500 0 5 0           
7 Unknown 11 ACIS 5.0 NT 24 Fri Mar 26 17:53:29 1999 
-1 9.9999999999999995e-007 1e-010 
body $-1 $5 $-1 $6 #
body $-1 $7 $-1 $8 #
body $-1 $9 $-1 $10 #
body $-1 $11 $-1 $12 #
body $-1 $13 $-1 $14 #
lump $-1 $-1 $15 $0 #
transform $-1 1 0 0 0 1 0 0 0 1 64.031495101779228 26.864228419223291 11.942353491188518 1 rotate no_reflect no_shear #
lump $-1 $-1 $16 $1 #
transform $-1 1 0 0 0 0.62932038083071107 0.77714596973225614 0 -0.77714596973225614 0.62932038083071107 27.156114276022123 -99.523636708556865 95.671526852536601 1 rotate no_reflect no_shear #
lump $-1 $-1 $17 $2 #
transform $-1 1 0 0 0 -0.62932038083071107 -0.77714596973225614 0 0.77714596973225614 -0.62932038083071107 27.156114276022123 10.120022222424124 14.173971959836805 1 rotate no_reflect no_shear #
lump $-1 $-1 $18 $3 #
transform $-1 1 0 0 0 0.68199835119979291 -0.73135370988377701 0 0.73135370988377701 0.68199835119979291 117.39980287112404 110.74508084629903 140.09297248151645 1 rotate no_reflect no_shear #
lump $-1 $-1 $19 $4 #
transform $-1 1 0 0 0 -0.68199835119979291 0.73135370988377701 0 -0.73135370988377701 -0.68199835119979291 117.39980287112404 45.872429031391896 15.87905182779944 1 rotate no_reflect no_shear #
shell $-1 $-1 $-1 $20 $-1 $5 #
shell $-1 $-1 $-1 $21 $-1 $7 #
shell $-1 $-1 $-1 $22 $-1 $9 #
shell $-1 $-1 $-1 $23 $-1 $11 #
shell $-1 $-1 $-1 $24 $-1 $13 #
face $-1 $25 $26 $15 $-1 $27 forward single #
face $-1 $28 $29 $16 $-1 $30 forward single #
face $-1 $31 $32 $17 $-1 $33 forward single #
face $-1 $34 $35 $18 $-1 $36 forward single #
face $-1 $37 $38 $19 $-1 $39 forward single #
face $-1 $40 $41 $15 $-1 $42 reversed single #
loop $-1 $-1 $43 $20 #
plane-surface $-1 0 0 11.942353491188518 0 0 1 1 0 0 forward_v I I I I #
face $-1 $44 $45 $16 $-1 $46 reversed single #
loop $-1 $-1 $47 $21 #
plane-surface $-1 0 0 128.06299020355846 0 0 1 1 0 0 forward_v I I I I #
face $-1 $48 $49 $17 $-1 $50 forward single #
loop $-1 $51 $52 $22 #
cone-surface $-1 0 0 -4.8421048615985587 0 0 1 2.5 0 0 1 I I 0 1 2.5 forward I I I I #
face $-1 $53 $54 $18 $-1 $55 reversed single #
loop $-1 $-1 $56 $23 #
plane-surface $-1 0 0 128.06299020355846 0 0 1 1 0 0 forward_v I I I I #
face $-1 $57 $58 $19 $-1 $59 forward single #
loop $-1 $60 $61 $24 #
cone-surface $-1 0 0 -2.547776726584674 0 0 1 2 0 0 1 I I 0 1 2 forward I I I I #
face $-1 $62 $63 $15 $-1 $64 reversed single #
loop $-1 $-1 $65 $25 #
plane-surface $-1 0 0 -11.942353491188518 0 0 1 1 0 0 forward_v I I I I #
coedge $-1 $66 $67 $68 $69 forward $26 $-1 #
face $-1 $70 $71 $16 $-1 $72 reversed single #
loop $-1 $-1 $73 $28 #
plane-surface $-1 0 0 -128.06299020355846 0 0 1 1 0 0 forward_v I I I I #
coedge $-1 $74 $75 $76 $77 forward $29 $-1 #
face $-1 $-1 $78 $17 $-1 $79 forward single #
loop $-1 $-1 $80 $31 #
plane-surface $-1 0 0 -8.4342097231971174 0 0 -1 -1 0 0 forward_v I I I I #
loop $-1 $-1 $81 $22 #
coedge $-1 $52 $52 $80 $82 reversed $32 $-1 #
face $-1 $83 $84 $18 $-1 $85 reversed single #
loop $-1 $-1 $86 $34 #
plane-surface $-1 0 0 -128.06299020355846 0 0 1 1 0 0 forward_v I I I I #
coedge $-1 $87 $88 $89 $90 forward $35 $-1 #
face $-1 $-1 $91 $19 $-1 $92 forward single #
loop $-1 $-1 $93 $37 #
plane-surface $-1 0 0 -4.095553453169348 0 0 -1 -1 0 0 forward_v I I I I #
loop $-1 $-1 $94 $24 #
coedge $-1 $61 $61 $93 $95 reversed $38 $-1 #
face $-1 $96 $97 $15 $-1 $98 reversed single #
loop $-1 $-1 $99 $40 #
plane-surface $-1 0 -26.864228419223291 0 0 1 0 0 0 1 forward_v I I I I #
coedge $-1 $100 $101 $102 $103 forward $41 $-1 #
coedge $-1 $104 $43 $105 $106 forward $26 $-1 #
coedge $-1 $43 $104 $107 $108 forward $26 $-1 #
coedge $-1 $109 $110 $43 $69 reversed $111 $-1 #
edge $-1 $112 -26.864228419223291 $113 26.864228419223291 $68 $114 forward 7 unknown #
face $-1 $115 $116 $16 $-1 $117 reversed single #
loop $-1 $-1 $118 $44 #
plane-surface $-1 0 -256.12598040711691 0 0 1 0 0 0 1 forward_v I I I I #
coedge $-1 $119 $120 $121 $122 forward $45 $-1 #
coedge $-1 $123 $47 $124 $125 forward $29 $-1 #
coedge $-1 $47 $123 $126 $127 forward $29 $-1 #
coedge $-1 $128 $129 $47 $77 reversed $130 $-1 #
edge $-1 $131 -256.12598040711691 $132 256.12598040711691 $76 $133 forward 7 unknown #
loop $-1 $134 $135 $48 #
cone-surface $-1 0 0 0 0 0 1 1.25 0 0 1 I I -0.70710678118654746 0.70710678118654746 1.25 forward I I I I #
coedge $-1 $80 $80 $52 $82 forward $49 $-1 #
coedge $-1 $81 $81 $135 $136 forward $51 $-1 #
edge $-1 $137 0 $137 6.2831853071796004 $80 $138 forward 7 unknown #
face $-1 $139 $140 $18 $-1 $141 reversed single #
loop $-1 $-1 $142 $53 #
plane-surface $-1 0 -256.12598040711691 0 0 1 0 0 0 1 forward_v I I I I #
coedge $-1 $143 $144 $145 $146 forward $54 $-1 #
coedge $-1 $147 $56 $148 $149 forward $35 $-1 #
coedge $-1 $56 $147 $150 $151 forward $35 $-1 #
coedge $-1 $152 $153 $56 $90 reversed $154 $-1 #
edge $-1 $155 -256.12598040711691 $156 256.12598040711691 $89 $157 forward 7 unknown #
loop $-1 $158 $159 $57 #
cone-surface $-1 0 0 0 0 0 1 1 0 0 1 I I -0.70710678118654746 0.70710678118654746 1 forward I I I I #
coedge $-1 $93 $93 $61 $95 forward $58 $-1 #
coedge $-1 $94 $94 $159 $160 forward $60 $-1 #
edge $-1 $161 0 $161 6.2831853071796004 $93 $162 forward 7 unknown #
face $-1 $163 $164 $15 $-1 $165 reversed single #
loop $-1 $-1 $166 $62 #
plane-surface $-1 -64.031495101779228 0 0 1 0 0 0 0 -1 forward_v I I I I #
coedge $-1 $167 $107 $168 $169 forward $63 $-1 #
coedge $-1 $170 $65 $167 $171 forward $41 $-1 #
coedge $-1 $65 $170 $172 $173 forward $41 $-1 #
coedge $-1 $110 $109 $65 $103 reversed $111 $-1 #
edge $-1 $174 -26.864228419223291 $175 26.864228419223291 $102 $176 forward 7 unknown #
coedge $-1 $67 $66 $177 $178 forward $26 $-1 #
coedge $-1 $179 $180 $66 $106 reversed $164 $-1 #
edge $-1 $113 -64.031495101779228 $181 64.031495101779228 $105 $182 forward 7 unknown #
coedge $-1 $99 $183 $67 $108 reversed $63 $-1 #
edge $-1 $184 -64.031495101779228 $112 64.031495101779228 $107 $185 forward 7 unknown #
coedge $-1 $102 $68 $183 $186 forward $111 $-1 #
coedge $-1 $68 $102 $179 $187 reversed $111 $-1 #
loop $-1 $-1 $109 $163 #
vertex $-1 $69 $188 #
vertex $-1 $69 $189 #
straight-curve $-1 64.031495101779228 0 11.942353491188518 0 1 0 I I #
face $-1 $190 $191 $16 $-1 $192 reversed single #
loop $-1 $-1 $193 $70 #
plane-surface $-1 -15.805717393466624 0 0 1 0 0 0 0 -1 forward_v I I I I #
coedge $-1 $194 $126 $195 $196 forward $71 $-1 #
coedge $-1 $197 $73 $194 $198 forward $45 $-1 #
coedge $-1 $73 $197 $199 $200 forward $45 $-1 #
coedge $-1 $129 $128 $73 $122 reversed $130 $-1 #
edge $-1 $201 -256.12598040711691 $202 256.12598040711691 $121 $203 forward 7 unknown #
coedge $-1 $75 $74 $204 $205 forward $29 $-1 #
coedge $-1 $206 $207 $74 $125 reversed $191 $-1 #
edge $-1 $132 -15.805717393466624 $208 15.805717393466624 $124 $209 forward 7 unknown #
coedge $-1 $118 $210 $75 $127 reversed $71 $-1 #
edge $-1 $211 -15.805717393466624 $131 15.805717393466624 $126 $212 forward 7 unknown #
coedge $-1 $121 $76 $210 $213 forward $130 $-1 #
coedge $-1 $76 $121 $206 $214 reversed $130 $-1 #
loop $-1 $-1 $128 $190 #
vertex $-1 $77 $215 #
vertex $-1 $77 $216 #
straight-curve $-1 15.805717393466624 0 128.06299020355846 0 1 0 I I #
loop $-1 $-1 $217 $48 #
coedge $-1 $135 $135 $81 $136 reversed $78 $-1 #
edge $-1 $218 0 $218 6.2831853071796004 $135 $219 forward 7 unknown #
vertex $-1 $82 $220 #
ellipse-curve $-1 0 0 -8.4342097231971174 0 0 -1 2.5 0 0 1 I I #
face $-1 $221 $222 $18 $-1 $223 reversed single #
loop $-1 $-1 $224 $83 #
plane-surface $-1 -10.663187332434418 0 0 1 0 0 0 0 -1 forward_v I I I I #
coedge $-1 $225 $150 $226 $227 forward $84 $-1 #
coedge $-1 $228 $86 $225 $229 forward $54 $-1 #
coedge $-1 $86 $228 $230 $231 forward $54 $-1 #
coedge $-1 $153 $152 $86 $146 reversed $154 $-1 #
edge $-1 $232 -256.12598040711691 $233 256.12598040711691 $145 $234 forward 7 unknown #
coedge $-1 $88 $87 $235 $236 forward $35 $-1 #
coedge $-1 $237 $238 $87 $149 reversed $222 $-1 #
edge $-1 $156 -10.663187332434418 $239 10.663187332434418 $148 $240 forward 7 unknown #
coedge $-1 $142 $241 $88 $151 reversed $84 $-1 #
edge $-1 $242 -10.663187332434418 $155 10.663187332434418 $150 $243 forward 7 unknown #
coedge $-1 $145 $89 $241 $244 forward $154 $-1 #
coedge $-1 $89 $145 $237 $245 reversed $154 $-1 #
loop $-1 $-1 $152 $221 #
vertex $-1 $90 $246 #
vertex $-1 $90 $247 #
straight-curve $-1 10.663187332434418 0 128.06299020355846 0 1 0 I I #
loop $-1 $-1 $248 $57 #
coedge $-1 $159 $159 $94 $160 reversed $91 $-1 #
edge $-1 $249 0 $249 6.2831853071796004 $159 $250 forward 7 unknown #
vertex $-1 $95 $251 #
ellipse-curve $-1 0 0 -4.095553453169348 0 0 -1 2 0 0 1 I I #
face $-1 $-1 $111 $15 $-1 $252 reversed single #
loop $-1 $-1 $179 $96 #
plane-surface $-1 0 26.864228419223291 0 0 -1 0 0 0 -1 forward_v I I I I #
coedge $-1 $253 $177 $180 $254 forward $97 $-1 #
coedge $-1 $183 $99 $100 $171 reversed $63 $-1 #
coedge $-1 $177 $253 $99 $169 reversed $97 $-1 #
edge $-1 $184 -11.942353491188518 $255 11.942353491188518 $168 $256 forward 7 unknown #
coedge $-1 $101 $100 $253 $257 forward $41 $-1 #
edge $-1 $175 -64.031495101779228 $255 64.031495101779228 $167 $258 forward 7 unknown #
coedge $-1 $180 $179 $101 $173 reversed $164 $-1 #
edge $-1 $259 -64.031495101779228 $174 64.031495101779228 $172 $260 forward 7 unknown #
vertex $-1 $103 $261 #
vertex $-1 $186 $262 #
straight-curve $-1 64.031495101779228 0 -11.942353491188518 0 -1 0 I I #
coedge $-1 $166 $168 $104 $178 reversed $97 $-1 #
edge $-1 $181 -26.864228419223291 $184 26.864228419223291 $177 $263 forward 7 unknown #
coedge $-1 $172 $105 $110 $187 forward $164 $-1 #
coedge $-1 $105 $172 $166 $254 reversed $164 $-1 #
vertex $-1 $106 $264 #
straight-curve $-1 0 26.864228419223291 11.942353491188518 -1 0 0 I I #
coedge $-1 $107 $167 $109 $186 reversed $63 $-1 #
vertex $-1 $178 $265 #
straight-curve $-1 0 -26.864228419223291 11.942353491188518 1 0 0 I I #
edge $-1 $112 -11.942353491188518 $175 11.942353491188518 $109 $266 forward 7 unknown #
edge $-1 $113 -11.942353491188518 $174 11.942353491188518 $110 $267 forward 7 unknown #
point $-1 64.031495101779228 -26.864228419223291 11.942353491188518 #
point $-1 64.031495101779228 26.864228419223291 11.942353491188518 #
face $-1 $-1 $130 $16 $-1 $268 reversed single #
loop $-1 $-1 $206 $115 #
plane-surface $-1 0 256.12598040711691 0 0 -1 0 0 0 -1 forward_v I I I I #
coedge $-1 $269 $204 $207 $270 forward $116 $-1 #
coedge $-1 $210 $118 $119 $198 reversed $71 $-1 #
coedge $-1 $204 $269 $118 $196 reversed $116 $-1 #
edge $-1 $211 -128.06299020355846 $271 128.06299020355846 $195 $272 forward 7 unknown #
coedge $-1 $120 $119 $269 $273 forward $45 $-1 #
edge $-1 $202 -15.805717393466624 $271 15.805717393466624 $194 $274 forward 7 unknown #
coedge $-1 $207 $206 $120 $200 reversed $191 $-1 #
edge $-1 $275 -15.805717393466624 $201 15.805717393466624 $199 $276 forward 7 unknown #
vertex $-1 $122 $277 #
vertex $-1 $213 $278 #
straight-curve $-1 15.805717393466624 0 -128.06299020355846 0 -1 0 I I #
coedge $-1 $193 $195 $123 $205 reversed $116 $-1 #
edge $-1 $208 -256.12598040711691 $211 256.12598040711691 $204 $279 forward 7 unknown #
coedge $-1 $199 $124 $129 $214 forward $191 $-1 #
coedge $-1 $124 $199 $193 $270 reversed $191 $-1 #
vertex $-1 $125 $280 #
straight-curve $-1 0 256.12598040711691 128.06299020355846 -1 0 0 I I #
coedge $-1 $126 $194 $128 $213 reversed $71 $-1 #
vertex $-1 $205 $281 #
straight-curve $-1 0 -256.12598040711691 128.06299020355846 1 0 0 I I #
edge $-1 $131 -128.06299020355846 $202 128.06299020355846 $128 $282 forward 7 unknown #
edge $-1 $132 -128.06299020355846 $201 128.06299020355846 $129 $283 forward 7 unknown #
point $-1 15.805717393466624 -256.12598040711691 128.06299020355846 #
point $-1 15.805717393466624 256.12598040711691 128.06299020355846 #
coedge $-1 $217 $217 $-1 $284 reversed $134 $-1 #
vertex $-1 $136 $285 #
ellipse-curve $-1 0 0 -1.25 0 0 -1 2.5 0 0 1 I I #
point $-1 2.5 0 -8.4342097231971174 #
face $-1 $-1 $154 $18 $-1 $286 reversed single #
loop $-1 $-1 $237 $139 #
plane-surface $-1 0 256.12598040711691 0 0 -1 0 0 0 -1 forward_v I I I I #
coedge $-1 $287 $235 $238 $288 forward $140 $-1 #
coedge $-1 $241 $142 $143 $229 reversed $84 $-1 #
coedge $-1 $235 $287 $142 $227 reversed $140 $-1 #
edge $-1 $242 -128.06299020355846 $289 128.06299020355846 $226 $290 forward 7 unknown #
coedge $-1 $144 $143 $287 $291 forward $54 $-1 #
edge $-1 $233 -10.663187332434418 $289 10.663187332434418 $225 $292 forward 7 unknown #
coedge $-1 $238 $237 $144 $231 reversed $222 $-1 #
edge $-1 $293 -10.663187332434418 $232 10.663187332434418 $230 $294 forward 7 unknown #
vertex $-1 $146 $295 #
vertex $-1 $244 $296 #
straight-curve $-1 10.663187332434418 0 -128.06299020355846 0 -1 0 I I #
coedge $-1 $224 $226 $147 $236 reversed $140 $-1 #
edge $-1 $239 -256.12598040711691 $242 256.12598040711691 $235 $297 forward 7 unknown #
coedge $-1 $230 $148 $153 $245 forward $222 $-1 #
coedge $-1 $148 $230 $224 $288 reversed $222 $-1 #
vertex $-1 $149 $298 #
straight-curve $-1 0 256.12598040711691 128.06299020355846 -1 0 0 I I #
coedge $-1 $150 $225 $152 $244 reversed $84 $-1 #
vertex $-1 $236 $299 #
straight-curve $-1 0 -256.12598040711691 128.06299020355846 1 0 0 I I #
edge $-1 $155 -128.06299020355846 $233 128.06299020355846 $152 $300 forward 7 unknown #
edge $-1 $156 -128.06299020355846 $232 128.06299020355846 $153 $301 forward 7 unknown #
point $-1 10.663187332434418 -256.12598040711691 128.06299020355846 #
point $-1 10.663187332434418 256.12598040711691 128.06299020355846 #
coedge $-1 $248 $248 $-1 $302 reversed $158 $-1 #
vertex $-1 $160 $303 #
ellipse-curve $-1 0 0 -1 0 0 -1 2 0 0 1 I I #
point $-1 2 0 -4.095553453169348 #
plane-surface $-1 64.031495101779228 0 0 -1 0 0 0 0 1 forward_v I I I I #
coedge $-1 $168 $166 $170 $257 reversed $97 $-1 #
edge $-1 $181 -11.942353491188518 $259 11.942353491188518 $180 $304 forward 7 unknown #
vertex $-1 $257 $305 #
straight-curve $-1 -64.031495101779228 -26.864228419223291 0 0 0 -1 I I #
edge $-1 $255 -26.864228419223291 $259 26.864228419223291 $253 $306 forward 7 unknown #
straight-curve $-1 0 -26.864228419223291 -11.942353491188518 -1 0 0 I I #
vertex $-1 $173 $307 #
straight-curve $-1 0 26.864228419223291 -11.942353491188518 1 0 0 I I #
point $-1 64.031495101779228 26.864228419223291 -11.942353491188518 #
point $-1 64.031495101779228 -26.864228419223291 -11.942353491188518 #
straight-curve $-1 -64.031495101779228 0 11.942353491188518 0 -1 0 I I #
point $-1 -64.031495101779228 26.864228419223291 11.942353491188518 #
point $-1 -64.031495101779228 -26.864228419223291 11.942353491188518 #
straight-curve $-1 64.031495101779228 -26.864228419223291 0 0 0 -1 I I #
straight-curve $-1 64.031495101779228 26.864228419223291 0 0 0 -1 I I #
plane-surface $-1 15.805717393466624 0 0 -1 0 0 0 0 1 forward_v I I I I #
coedge $-1 $195 $193 $197 $273 reversed $116 $-1 #
edge $-1 $208 -128.06299020355846 $275 128.06299020355846 $207 $308 forward 7 unknown #
vertex $-1 $273 $309 #
straight-curve $-1 -15.805717393466624 -256.12598040711691 0 0 0 -1 I I #
edge $-1 $271 -256.12598040711691 $275 256.12598040711691 $269 $310 forward 7 unknown #
straight-curve $-1 0 -256.12598040711691 -128.06299020355846 -1 0 0 I I #
vertex $-1 $200 $311 #
straight-curve $-1 0 256.12598040711691 -128.06299020355846 1 0 0 I I #
point $-1 15.805717393466624 256.12598040711691 -128.06299020355846 #
point $-1 15.805717393466624 -256.12598040711691 -128.06299020355846 #
straight-curve $-1 -15.805717393466624 0 128.06299020355846 0 -1 0 I I #
point $-1 -15.805717393466624 256.12598040711691 128.06299020355846 #
point $-1 -15.805717393466624 -256.12598040711691 128.06299020355846 #
straight-curve $-1 15.805717393466624 -256.12598040711691 0 0 0 -1 I I #
straight-curve $-1 15.805717393466624 256.12598040711691 0 0 0 -1 I I #
edge $-1 $312 1 $312 0 $217 $-1 forward 7 unknown #
point $-1 2.5 0 -1.25 #
plane-surface $-1 10.663187332434418 0 0 -1 0 0 0 0 1 forward_v I I I I #
coedge $-1 $226 $224 $228 $291 reversed $140 $-1 #
edge $-1 $239 -128.06299020355846 $293 128.06299020355846 $238 $313 forward 7 unknown #
vertex $-1 $291 $314 #
straight-curve $-1 -10.663187332434418 -256.12598040711691 0 0 0 -1 I I #
edge $-1 $289 -256.12598040711691 $293 256.12598040711691 $287 $315 forward 7 unknown #
straight-curve $-1 0 -256.12598040711691 -128.06299020355846 -1 0 0 I I #
vertex $-1 $231 $316 #
straight-curve $-1 0 256.12598040711691 -128.06299020355846 1 0 0 I I #
point $-1 10.663187332434418 256.12598040711691 -128.06299020355846 #
point $-1 10.663187332434418 -256.12598040711691 -128.06299020355846 #
straight-curve $-1 -10.663187332434418 0 128.06299020355846 0 -1 0 I I #
point $-1 -10.663187332434418 256.12598040711691 128.06299020355846 #
point $-1 -10.663187332434418 -256.12598040711691 128.06299020355846 #
straight-curve $-1 10.663187332434418 -256.12598040711691 0 0 0 -1 I I #
straight-curve $-1 10.663187332434418 256.12598040711691 0 0 0 -1 I I #
edge $-1 $317 1 $317 0 $248 $-1 forward 7 unknown #
point $-1 2 0 -1 #
straight-curve $-1 -64.031495101779228 26.864228419223291 0 0 0 -1 I I #
point $-1 -64.031495101779228 -26.864228419223291 -11.942353491188518 #
straight-curve $-1 -64.031495101779228 0 -11.942353491188518 0 1 0 I I #
point $-1 -64.031495101779228 26.864228419223291 -11.942353491188518 #
straight-curve $-1 -15.805717393466624 256.12598040711691 0 0 0 -1 I I #
point $-1 -15.805717393466624 -256.12598040711691 -128.06299020355846 #
straight-curve $-1 -15.805717393466624 0 -128.06299020355846 0 1 0 I I #
point $-1 -15.805717393466624 256.12598040711691 -128.06299020355846 #
vertex $-1 $284 $318 #
straight-curve $-1 -10.663187332434418 256.12598040711691 0 0 0 -1 I I #
point $-1 -10.663187332434418 -256.12598040711691 -128.06299020355846 #
straight-curve $-1 -10.663187332434418 0 -128.06299020355846 0 1 0 I I #
point $-1 -10.663187332434418 256.12598040711691 -128.06299020355846 #
vertex $-1 $302 $319 #
point $-1 0 0 1.25 #
point $-1 0 0 1 #
End-of-ACIS-data 