500 0 5 0           
7 Unknown 11 ACIS 5.0 NT 24 Thu Mar 25 19:07:34 1999 
-1 9.9999999999999995e-007 1e-010 
body $-1 $5 $-1 $6 #
body $-1 $7 $-1 $8 #
body $-1 $9 $-1 $10 #
body $-1 $11 $-1 $12 #
body $-1 $13 $-1 $14 #
lump $-1 $-1 $15 $0 #
transform $-1 1 0 0 0 1 0 0 0 1 48.131351664784688 31.500939233277599 10.106315002588907 1 rotate no_reflect no_shear #
lump $-1 $-1 $16 $1 #
transform $-1 1 0 0 0 1 0 0 0 1 48.131351664784688 31.500939233277599 10.106315002588907 1 rotate no_reflect no_shear #
lump $-1 $-1 $17 $2 #
transform $-1 1 0 0 0 1 0 0 0 1 48.131351664784688 31.500939233277599 10.106315002588907 1 rotate no_reflect no_shear #
lump $-1 $-1 $18 $3 #
transform $-1 1 0 0 0 1 0 0 0 1 48.131351664784688 31.500939233277599 10.106315002588907 1 rotate no_reflect no_shear #
lump $-1 $-1 $19 $4 #
transform $-1 1 0 0 0 1 0 0 0 1 48.131351664784688 31.500939233277599 10.106315002588907 1 rotate no_reflect no_shear #
shell $-1 $-1 $-1 $20 $-1 $5 #
shell $-1 $-1 $-1 $21 $-1 $7 #
shell $-1 $-1 $-1 $22 $-1 $9 #
shell $-1 $-1 $-1 $23 $-1 $11 #
shell $-1 $-1 $-1 $24 $-1 $13 #
face $-1 $25 $26 $15 $-1 $27 forward single #
face $-1 $28 $29 $16 $-1 $30 forward single #
face $-1 $31 $32 $17 $-1 $33 reversed single #
face $-1 $34 $35 $18 $-1 $36 forward single #
face $-1 $37 $38 $19 $-1 $39 reversed single #
face $-1 $40 $41 $15 $-1 $42 reversed single #
loop $-1 $-1 $43 $20 #
plane-surface $-1 0 0 10.106315002588907 0 0 1 1 0 0 forward_v I I I I #
face $-1 $44 $45 $16 $-1 $46 forward single #
loop $-1 $-1 $47 $21 #
plane-surface $-1 0 -26.044213845747375 7.1063150025889072 0 0 1 1 0 0 forward_v I I I I #
face $-1 $48 $49 $17 $-1 $50 reversed single #
loop $-1 $-1 $51 $22 #
plane-surface $-1 -32.169931175482112 36.991049048307438 0 1 0 0 0 0 -1 forward_v I I I I #
face $-1 $52 $53 $18 $-1 $54 forward single #
loop $-1 $-1 $55 $23 #
plane-surface $-1 -121.87286142770645 14.400320296394508 66.568327207054637 0 1 0 -0.7660444514056185 0 0.64278759981090561 forward_v I I I I #
face $-1 $56 $57 $19 $-1 $58 reversed single #
loop $-1 $59 $60 $24 #
cone-surface $-1 -44.872405510755215 17.460519949806205 6.5706331585590778 0.7660444514056185 0 -0.64278759981090561 0.64278759981090561 0 0.7660444514056185 1 I I 0 1 1 forward I I I I #
face $-1 $61 $62 $15 $-1 $63 reversed single #
loop $-1 $-1 $64 $25 #
plane-surface $-1 0 0 -10.106315002588907 0 0 1 1 0 0 forward_v I I I I #
coedge $-1 $65 $66 $67 $68 forward $26 $-1 #
face $-1 $69 $70 $16 $-1 $71 forward single #
loop $-1 $-1 $72 $28 #
plane-surface $-1 0 -20.587488458217152 8.6063150025889072 0 -1 0 0 0 -1 forward_v I I I I #
coedge $-1 $73 $74 $75 $76 reversed $29 $-1 #
face $-1 $77 $78 $17 $-1 $79 reversed single #
loop $-1 $-1 $80 $31 #
plane-surface $-1 -30.044326417544493 42.481158863337285 0 0 -1 0 0 0 -1 forward_v I I I I #
coedge $-1 $81 $82 $83 $84 forward $32 $-1 #
face $-1 $85 $86 $18 $-1 $87 forward single #
loop $-1 $-1 $88 $34 #
plane-surface $-1 -48.131351664784674 17.460519949806205 4.6918551825314623 -0.7660444514056185 0 0.64278759981090561 0.64278759981090561 0 0.7660444514056185 forward_v I I I I #
coedge $-1 $89 $90 $91 $92 reversed $35 $-1 #
face $-1 $93 $94 $19 $-1 $95 forward single #
loop $-1 $96 $97 $37 #
cone-surface $-1 -43.502072690565988 17.460519949806205 5.4207874246525183 0.7660444514056185 0 -0.64278759981090561 0.3213937999054528 0 0.38302222570280925 1 I I -0.70710678118654746 0.70710678118654746 0.5 forward I I I I #
loop $-1 $-1 $98 $24 #
coedge $-1 $60 $60 $99 $100 reversed $38 $-1 #
face $-1 $101 $102 $15 $-1 $103 reversed single #
loop $-1 $-1 $104 $40 #
plane-surface $-1 0 -31.500939233277599 0 0 1 0 0 0 1 forward_v I I I I #
coedge $-1 $105 $106 $107 $108 forward $41 $-1 #
coedge $-1 $109 $43 $110 $111 forward $26 $-1 #
coedge $-1 $43 $109 $112 $113 forward $26 $-1 #
coedge $-1 $114 $115 $43 $68 reversed $116 $-1 #
edge $-1 $117 -31.500939233277599 $118 31.500939233277599 $67 $119 forward 7 unknown #
face $-1 $120 $121 $16 $-1 $122 reversed single #
loop $-1 $-1 $123 $44 #
plane-surface $-1 0 0 10.106315002588907 0 0 1 1 0 0 forward_v I I I I #
coedge $-1 $124 $125 $126 $127 reversed $45 $-1 #
coedge $-1 $128 $47 $125 $129 reversed $29 $-1 #
coedge $-1 $47 $128 $130 $131 reversed $29 $-1 #
coedge $-1 $132 $126 $47 $76 forward $121 $-1 #
edge $-1 $133 7.5653815353434641 $134 18.478832310403909 $75 $135 forward 7 unknown #
face $-1 $136 $137 $17 $-1 $138 reversed single #
loop $-1 $-1 $139 $48 #
plane-surface $-1 -27.918721659606874 36.991049048307438 0 -1 0 0 0 0 1 forward_v I I I I #
coedge $-1 $140 $141 $142 $143 forward $49 $-1 #
coedge $-1 $144 $51 $145 $146 reversed $32 $-1 #
coedge $-1 $51 $144 $147 $148 reversed $32 $-1 #
coedge $-1 $141 $140 $51 $84 reversed $49 $-1 #
edge $-1 $149 -10.106315002588907 $150 10.106315002588907 $83 $151 forward 7 unknown #
face $-1 $152 $153 $18 $-1 $154 forward single #
loop $-1 $-1 $155 $52 #
plane-surface $-1 -121.87286142770645 20.520719603217902 66.568327207054637 0 -1 0 0.7660444514056185 0 -0.64278759981090561 forward_v I I I I #
coedge $-1 $156 $157 $158 $159 reversed $53 $-1 #
coedge $-1 $90 $55 $157 $160 forward $35 $-1 #
coedge $-1 $55 $89 $161 $162 reversed $35 $-1 #
coedge $-1 $163 $158 $55 $92 forward $153 $-1 #
edge $-1 $164 -17.348350168154667 $165 -12.805079049068539 $91 $166 forward 7 unknown #
face $-1 $167 $168 $19 $-1 $169 forward single #
loop $-1 $-1 $170 $56 #
plane-surface $-1 -121.87286142770645 14.400320296394508 66.568327207054637 0 1 0 -0.7660444514056185 0 0.64278759981090561 forward_v I I I I #
loop $-1 $-1 $171 $37 #
coedge $-1 $97 $97 $98 $172 forward $57 $-1 #
coedge $-1 $98 $98 $97 $172 reversed $59 $-1 #
coedge $-1 $99 $99 $60 $100 forward $168 $-1 #
edge $-1 $173 0 $173 6.2831853071796004 $99 $174 forward 7 unknown #
face $-1 $175 $176 $15 $-1 $177 reversed single #
loop $-1 $-1 $178 $61 #
plane-surface $-1 -48.131351664784688 0 0 1 0 0 0 0 -1 forward_v I I I I #
coedge $-1 $179 $112 $180 $181 forward $62 $-1 #
coedge $-1 $182 $64 $179 $183 forward $41 $-1 #
coedge $-1 $64 $182 $184 $185 forward $41 $-1 #
coedge $-1 $115 $114 $64 $108 reversed $116 $-1 #
edge $-1 $186 -31.500939233277599 $187 31.500939233277599 $107 $188 forward 7 unknown #
coedge $-1 $66 $65 $189 $190 forward $26 $-1 #
coedge $-1 $191 $192 $65 $111 reversed $176 $-1 #
edge $-1 $118 -48.131351664784688 $193 48.131351664784688 $110 $194 forward 7 unknown #
coedge $-1 $104 $195 $66 $113 reversed $62 $-1 #
edge $-1 $196 -48.131351664784688 $117 48.131351664784688 $112 $197 forward 7 unknown #
coedge $-1 $107 $67 $195 $198 forward $116 $-1 #
coedge $-1 $67 $107 $191 $199 reversed $116 $-1 #
loop $-1 $-1 $114 $175 #
vertex $-1 $68 $200 #
vertex $-1 $68 $201 #
straight-curve $-1 48.131351664784688 0 10.106315002588907 0 1 0 I I #
face $-1 $202 $203 $16 $-1 $204 reversed single #
loop $-1 $-1 $126 $69 #
plane-surface $-1 48.131351664784688 0 0 -1 0 0 0 0 1 forward_v I I I I #
coedge $-1 $205 $206 $124 $207 forward $70 $-1 #
coedge $-1 $208 $72 $123 $207 reversed $45 $-1 #
coedge $-1 $72 $208 $73 $129 forward $45 $-1 #
coedge $-1 $75 $209 $72 $127 forward $121 $-1 #
edge $-1 $210 -5.8031575012944536 $133 -2.8031575012944536 $126 $211 forward 7 unknown #
coedge $-1 $74 $73 $212 $213 reversed $29 $-1 #
edge $-1 $214 -48.131351664784688 $133 48.131351664784688 $125 $215 forward 7 unknown #
coedge $-1 $216 $217 $74 $131 forward $218 $-1 #
edge $-1 $134 -48.131351664784688 $219 48.131351664784688 $130 $220 forward 7 unknown #
coedge $-1 $221 $75 $217 $222 forward $121 $-1 #
vertex $-1 $76 $223 #
vertex $-1 $222 $224 #
straight-curve $-1 48.131351664784688 -13.022106922873688 7.1063150025889072 0 -1 0 I I #
face $-1 $225 $226 $17 $-1 $138 reversed single #
loop $-1 $-1 $227 $77 #
plane-surface $-1 0 31.500939233277599 0 0 -1 0 0 0 -1 forward_v I I I I #
coedge $-1 $228 $229 $227 $230 reversed $78 $-1 #
coedge $-1 $83 $80 $231 $232 reversed $49 $-1 #
coedge $-1 $80 $83 $233 $234 reversed $49 $-1 #
coedge $-1 $229 $228 $80 $143 reversed $78 $-1 #
edge $-1 $235 -10.106315002588907 $236 10.106315002588907 $142 $237 forward 7 unknown #
coedge $-1 $82 $81 $238 $239 reversed $32 $-1 #
coedge $-1 $231 $240 $81 $146 forward $241 $-1 #
edge $-1 $242 -5.4901098150298466 $150 5.4901098150298466 $81 $243 forward 7 unknown #
coedge $-1 $244 $233 $82 $148 forward $245 $-1 #
edge $-1 $149 -5.4901098150298466 $246 5.4901098150298466 $82 $247 forward 7 unknown #
vertex $-1 $234 $248 #
vertex $-1 $232 $249 #
straight-curve $-1 -32.169931175482112 42.481158863337285 0 0 0 -1 I I #
face $-1 $250 $251 $18 $-1 $252 reversed single #
loop $-1 $-1 $253 $85 #
plane-surface $-1 0 0 10.106315002588907 0 0 1 1 0 0 forward_v I I I I #
coedge $-1 $254 $255 $253 $256 reversed $86 $-1 #
coedge $-1 $257 $88 $255 $258 reversed $53 $-1 #
coedge $-1 $88 $257 $89 $160 reversed $53 $-1 #
coedge $-1 $91 $253 $88 $159 forward $153 $-1 #
edge $-1 $259 -11.7904596283148 $164 -5.6700603214914054 $158 $260 forward 7 unknown #
edge $-1 $164 -7.0680752404412415 $261 2.2061860048766535e-014 $89 $262 forward 7 unknown #
coedge $-1 $263 $264 $90 $162 forward $265 $-1 #
edge $-1 $165 23.177848600938411 $261 28.592308420995874 $161 $266 forward 7 unknown #
coedge $-1 $267 $91 $264 $268 forward $153 $-1 #
vertex $-1 $159 $269 #
vertex $-1 $268 $270 #
straight-curve $-1 -60.936430713853227 14.400320296394508 10.106315002588907 -1 0 0 I I #
face $-1 $271 $272 $19 $-1 $273 forward single #
loop $-1 $274 $99 $93 #
plane-surface $-1 -48.131351664784674 17.460519949806205 4.6918551825314623 -0.7660444514056185 0 0.64278759981090561 0.64278759981090561 0 0.7660444514056185 forward_v I I I I #
coedge $-1 $275 $276 $277 $278 reversed $94 $-1 #
coedge $-1 $171 $171 $-1 $279 forward $96 $-1 #
edge $-1 $280 0 $280 6.2831853071796004 $97 $281 forward 7 unknown #
vertex $-1 $100 $282 #
ellipse-curve $-1 -45.859716105241624 17.460519949806205 7.3990850925601777 0.7660444514056185 0 -0.64278759981090561 0.64278759981090561 0 0.7660444514056185 1 I I #
face $-1 $-1 $116 $15 $-1 $283 reversed single #
loop $-1 $-1 $191 $101 #
plane-surface $-1 0 31.500939233277599 0 0 -1 0 0 0 -1 forward_v I I I I #
coedge $-1 $284 $189 $192 $285 forward $102 $-1 #
coedge $-1 $195 $104 $105 $183 reversed $62 $-1 #
coedge $-1 $189 $284 $104 $181 reversed $102 $-1 #
edge $-1 $196 -10.106315002588907 $286 10.106315002588907 $180 $287 forward 7 unknown #
coedge $-1 $106 $105 $284 $288 forward $41 $-1 #
edge $-1 $187 -48.131351664784688 $286 48.131351664784688 $179 $289 forward 7 unknown #
coedge $-1 $192 $191 $106 $185 reversed $176 $-1 #
edge $-1 $290 -48.131351664784688 $186 48.131351664784688 $184 $291 forward 7 unknown #
vertex $-1 $108 $292 #
vertex $-1 $198 $293 #
straight-curve $-1 48.131351664784688 0 -10.106315002588907 0 -1 0 I I #
coedge $-1 $178 $180 $109 $190 reversed $102 $-1 #
edge $-1 $193 -31.500939233277599 $196 31.500939233277599 $189 $294 forward 7 unknown #
coedge $-1 $184 $110 $115 $199 forward $176 $-1 #
coedge $-1 $110 $184 $178 $285 reversed $176 $-1 #
vertex $-1 $111 $295 #
straight-curve $-1 0 31.500939233277599 10.106315002588907 -1 0 0 I I #
coedge $-1 $112 $179 $114 $198 reversed $62 $-1 #
vertex $-1 $190 $296 #
straight-curve $-1 0 -31.500939233277599 10.106315002588907 1 0 0 I I #
edge $-1 $117 -10.106315002588907 $187 10.106315002588907 $114 $297 forward 7 unknown #
edge $-1 $118 -10.106315002588907 $186 10.106315002588907 $115 $298 forward 7 unknown #
point $-1 48.131351664784688 -31.500939233277599 10.106315002588907 #
point $-1 48.131351664784688 31.500939233277599 10.106315002588907 #
face $-1 $299 $218 $16 $-1 $300 reversed single #
loop $-1 $-1 $301 $120 #
plane-surface $-1 0 0 -10.106315002588907 0 0 1 1 0 0 forward_v I I I I #
coedge $-1 $302 $123 $209 $303 forward $70 $-1 #
coedge $-1 $123 $302 $304 $305 forward $70 $-1 #
edge $-1 $306 -48.131351664784688 $210 48.131351664784688 $123 $307 forward 7 unknown #
coedge $-1 $125 $124 $308 $309 reversed $45 $-1 #
coedge $-1 $126 $310 $205 $303 reversed $121 $-1 #
vertex $-1 $303 $311 #
straight-curve $-1 48.131351664784688 -20.587488458217152 4.3031575012944536 0 0 -1 I I #
coedge $-1 $308 $312 $128 $213 forward $313 $-1 #
edge $-1 $219 -18.478832310403909 $214 -7.5653815353434641 $212 $314 forward 7 unknown #
vertex $-1 $213 $315 #
straight-curve $-1 0 -20.587488458217152 7.1063150025889072 1 0 0 I I #
coedge $-1 $316 $130 $312 $317 forward $218 $-1 #
coedge $-1 $130 $316 $132 $222 reversed $218 $-1 #
loop $-1 $-1 $130 $202 #
vertex $-1 $317 $318 #
straight-curve $-1 0 -31.500939233277599 7.1063150025889072 -1 0 0 I I #
coedge $-1 $310 $132 $301 $319 reversed $121 $-1 #
edge $-1 $134 -7.1063150025889072 $320 10.106315002588907 $132 $321 forward 7 unknown #
point $-1 48.131351664784688 -20.587488458217152 7.1063150025889072 #
point $-1 48.131351664784688 -31.500939233277599 7.1063150025889072 #
face $-1 $322 $323 $17 $-1 $324 forward single #
loop $-1 $-1 $238 $136 #
coedge $-1 $325 $326 $139 $230 forward $137 $-1 #
coedge $-1 $142 $139 $327 $328 reversed $78 $-1 #
coedge $-1 $139 $142 $329 $330 reversed $78 $-1 #
edge $-1 $331 -10.106315002588907 $332 10.106315002588907 $227 $333 forward 7 unknown #
coedge $-1 $327 $145 $140 $232 forward $241 $-1 #
edge $-1 $150 -2.1256047579376194 $236 2.1256047579376194 $140 $334 forward 7 unknown #
coedge $-1 $147 $329 $141 $234 forward $245 $-1 #
edge $-1 $235 -2.1256047579376194 $149 2.1256047579376194 $141 $335 forward 7 unknown #
vertex $-1 $330 $336 #
vertex $-1 $328 $337 #
straight-curve $-1 -27.918721659606874 42.481158863337285 0 0 0 -1 I I #
coedge $-1 $338 $339 $144 $239 forward $226 $-1 #
edge $-1 $246 -10.106315002588907 $242 10.106315002588907 $238 $340 forward 7 unknown #
coedge $-1 $145 $341 $338 $342 forward $241 $-1 #
loop $-1 $-1 $343 $344 #
vertex $-1 $146 $345 #
straight-curve $-1 -32.169931175482112 36.991049048307438 -10.106315002588907 0 1 0 I I #
coedge $-1 $346 $147 $339 $347 forward $245 $-1 #
loop $-1 $-1 $348 $349 #
vertex $-1 $347 $350 #
straight-curve $-1 -32.169931175482112 36.991049048307438 10.106315002588907 0 -1 0 I I #
point $-1 -32.169931175482112 42.481158863337285 10.106315002588907 #
point $-1 -32.169931175482112 42.481158863337285 -10.106315002588907 #
face $-1 $351 $352 $18 $-1 $353 reversed single #
loop $-1 $-1 $354 $152 #
plane-surface $-1 -32.169931175482112 36.991049048307438 0 1 0 0 0 0 -1 forward_v I I I I #
coedge $-1 $158 $355 $155 $256 forward $153 $-1 #
coedge $-1 $255 $155 $356 $357 reversed $86 $-1 #
coedge $-1 $155 $254 $156 $258 forward $86 $-1 #
edge $-1 $358 12.805079049068539 $259 17.348350168154667 $253 $359 forward 7 unknown #
coedge $-1 $157 $156 $263 $360 reversed $53 $-1 #
edge $-1 $361 -2.2061860048766535e-014 $259 7.0680752404412415 $255 $362 forward 7 unknown #
vertex $-1 $159 $363 #
straight-curve $-1 -43.58808054569856 8.7302599749031025 10.106315002588907 0 -1 0 I I #
vertex $-1 $360 $364 #
straight-curve $-1 -48.131351664784674 14.400320296394508 4.6918551825314623 -0.64278759981090561 0 -0.7660444514056185 I I #
coedge $-1 $356 $161 $257 $360 forward $265 $-1 #
coedge $-1 $161 $365 $163 $268 reversed $265 $-1 #
loop $-1 $-1 $356 $366 #
straight-curve $-1 -48.131351664784688 14.400320296394508 33.284163603527318 0 0 -1 I I #
coedge $-1 $367 $163 $368 $369 forward $153 $-1 #
edge $-1 $165 -14.400320296394508 $370 20.587488458217152 $264 $371 forward 7 unknown #
point $-1 -43.58808054569856 14.400320296394508 10.106315002588907 #
point $-1 -48.131351664784688 14.400320296394508 10.106315002588907 #
face $-1 $372 $373 $19 $-1 $374 forward single #
loop $-1 $-1 $375 $167 #
plane-surface $-1 -121.87286142770645 20.520719603217902 66.568327207054637 0 -1 0 0.7660444514056185 0 -0.64278759981090561 forward_v I I I I #
loop $-1 $-1 $376 $93 #
coedge $-1 $276 $170 $377 $378 forward $94 $-1 #
coedge $-1 $170 $275 $379 $380 reversed $94 $-1 #
coedge $-1 $381 $382 $170 $278 forward $373 $-1 #
edge $-1 $383 -17.348350168154667 $384 -12.805079049068539 $277 $385 forward 7 unknown #
edge $-1 $386 1 $386 0 $171 $-1 forward 7 unknown #
vertex $-1 $172 $387 #
ellipse-curve $-1 -43.885094916268798 17.460519949806205 5.7421812245579709 -0.7660444514056185 0 0.64278759981090561 0.64278759981090561 0 0.7660444514056185 1 I I #
point $-1 -45.216928505430722 17.460519949806205 8.1651295439658025 #
plane-surface $-1 48.131351664784688 0 0 -1 0 0 0 0 1 forward_v I I I I #
coedge $-1 $180 $178 $182 $288 reversed $102 $-1 #
edge $-1 $193 -10.106315002588907 $290 10.106315002588907 $192 $388 forward 7 unknown #
vertex $-1 $288 $389 #
straight-curve $-1 -48.131351664784688 -31.500939233277599 0 0 0 -1 I I #
edge $-1 $286 -31.500939233277599 $290 31.500939233277599 $284 $390 forward 7 unknown #
straight-curve $-1 0 -31.500939233277599 -10.106315002588907 -1 0 0 I I #
vertex $-1 $185 $391 #
straight-curve $-1 0 31.500939233277599 -10.106315002588907 1 0 0 I I #
point $-1 48.131351664784688 31.500939233277599 -10.106315002588907 #
point $-1 48.131351664784688 -31.500939233277599 -10.106315002588907 #
straight-curve $-1 -48.131351664784688 0 10.106315002588907 0 -1 0 I I #
point $-1 -48.131351664784688 31.500939233277599 10.106315002588907 #
point $-1 -48.131351664784688 -31.500939233277599 10.106315002588907 #
straight-curve $-1 48.131351664784688 -31.500939233277599 0 0 0 -1 I I #
straight-curve $-1 48.131351664784688 31.500939233277599 0 0 0 -1 I I #
face $-1 $392 $313 $16 $-1 $393 reversed single #
plane-surface $-1 0 -31.500939233277599 0 0 1 0 0 0 1 forward_v I I I I #
coedge $-1 $394 $395 $221 $319 forward $203 $-1 #
coedge $-1 $206 $205 $396 $397 forward $70 $-1 #
edge $-1 $210 -20.587488458217152 $398 31.500939233277599 $209 $399 forward 7 unknown #
coedge $-1 $400 $308 $206 $305 reversed $313 $-1 #
edge $-1 $401 -31.500939233277599 $306 20.587488458217152 $304 $402 forward 7 unknown #
vertex $-1 $309 $403 #
straight-curve $-1 0 -20.587488458217152 10.106315002588907 1 0 0 I I #
coedge $-1 $304 $212 $208 $309 forward $313 $-1 #
edge $-1 $214 2.8031575012944536 $306 5.8031575012944536 $308 $404 forward 7 unknown #
coedge $-1 $209 $221 $405 $406 reversed $121 $-1 #
point $-1 48.131351664784688 -20.587488458217152 10.106315002588907 #
coedge $-1 $212 $407 $216 $317 reversed $313 $-1 #
loop $-1 $-1 $308 $299 #
straight-curve $-1 -48.131351664784688 -13.022106922873688 7.1063150025889072 0 1 0 I I #
point $-1 -48.131351664784688 -20.587488458217152 7.1063150025889072 #
coedge $-1 $217 $216 $394 $408 reversed $218 $-1 #
edge $-1 $219 -7.1063150025889072 $409 10.106315002588907 $312 $410 forward 7 unknown #
point $-1 -48.131351664784688 -31.500939233277599 7.1063150025889072 #
edge $-1 $411 -31.500939233277599 $320 31.500939233277599 $221 $412 forward 7 unknown #
vertex $-1 $222 $413 #
straight-curve $-1 48.131351664784688 -31.500939233277599 0 0 0 -1 I I #
face $-1 $349 $414 $17 $-1 $415 forward single #
loop $-1 $-1 $416 $225 #
plane-surface $-1 0 -26.044213845747375 7.1063150025889072 0 0 1 1 0 0 forward_v I I I I #
coedge $-1 $417 $227 $418 $419 reversed $137 $-1 #
coedge $-1 $227 $417 $420 $421 reversed $137 $-1 #
coedge $-1 $420 $231 $228 $328 forward $241 $-1 #
edge $-1 $236 -5.4901098150298466 $331 5.4901098150298466 $228 $422 forward 7 unknown #
coedge $-1 $233 $418 $229 $330 forward $245 $-1 #
edge $-1 $332 -5.4901098150298466 $235 5.4901098150298466 $229 $423 forward 7 unknown #
vertex $-1 $421 $424 #
vertex $-1 $330 $425 #
straight-curve $-1 -27.918721659606874 31.500939233277599 0 0 0 1 I I #
straight-curve $-1 -30.044326417544493 42.481158863337285 -10.106315002588907 1 0 0 I I #
straight-curve $-1 -30.044326417544493 42.481158863337285 10.106315002588907 -1 0 0 I I #
point $-1 -27.918721659606874 42.481158863337285 10.106315002588907 #
point $-1 -27.918721659606874 42.481158863337285 -10.106315002588907 #
coedge $-1 $426 $238 $240 $342 reversed $226 $-1 #
coedge $-1 $238 $426 $244 $347 reversed $226 $-1 #
straight-curve $-1 -32.169931175482112 31.500939233277599 0 0 0 -1 I I #
coedge $-1 $240 $427 $428 $429 forward $241 $-1 #
edge $-1 $430 -48.131351664784688 $242 -32.169931175482112 $338 $431 forward 7 unknown #
coedge $-1 $427 $420 $432 $433 forward $241 $-1 #
face $-1 $434 $241 $17 $-1 $435 reversed single #
point $-1 -32.169931175482112 31.500939233277592 -10.106315002588907 #
coedge $-1 $348 $244 $436 $437 forward $245 $-1 #
edge $-1 $246 32.169931175482112 $438 48.131351664784688 $339 $439 forward 7 unknown #
coedge $-1 $440 $346 $441 $442 forward $245 $-1 #
face $-1 $443 $245 $17 $-1 $444 forward single #
point $-1 -32.169931175482112 31.500939233277592 10.106315002588907 #
face $-1 $445 $446 $18 $-1 $447 reversed single #
loop $-1 $-1 $448 $250 #
plane-surface $-1 -30.044326417544493 42.481158863337285 0 0 -1 0 0 0 -1 forward_v I I I I #
coedge $-1 $449 $450 $451 $452 forward $251 $-1 #
coedge $-1 $253 $453 $454 $455 forward $153 $-1 #
coedge $-1 $454 $263 $254 $357 forward $265 $-1 #
edge $-1 $361 -28.592308420995874 $358 -23.177848600938411 $356 $456 forward 7 unknown #
vertex $-1 $357 $457 #
straight-curve $-1 -60.936430713853227 20.520719603217902 10.106315002588907 1 0 0 I I #
edge $-1 $261 5.6700603214914054 $361 11.7904596283148 $263 $458 forward 7 unknown #
vertex $-1 $360 $459 #
straight-curve $-1 -48.131351664784674 20.520719603217902 4.6918551825314623 0.64278759981090561 0 0.7660444514056185 I I #
point $-1 -43.58808054569856 20.520719603217902 10.106315002588907 #
point $-1 -48.131351664784688 14.400320296394508 4.6918551825314454 #
coedge $-1 $264 $460 $461 $462 forward $265 $-1 #
face $-1 $-1 $265 $18 $-1 $463 reversed single #
coedge $-1 $464 $267 $465 $466 forward $153 $-1 #
coedge $-1 $461 $467 $267 $369 reversed $468 $-1 #
edge $-1 $370 -48.131351664784688 $469 48.131351664784688 $267 $470 forward 7 unknown #
vertex $-1 $462 $471 #
straight-curve $-1 -48.131351664784688 0 10.106315002588907 0 -1 0 I I #
face $-1 $472 $473 $19 $-1 $474 reversed single #
loop $-1 $-1 $475 $271 #
plane-surface $-1 0 0 10.106315002588907 0 0 1 1 0 0 forward_v I I I I #
coedge $-1 $476 $477 $475 $478 reversed $272 $-1 #
coedge $-1 $479 $377 $382 $480 reversed $274 $-1 #
coedge $-1 $376 $481 $275 $378 reversed $274 $-1 #
edge $-1 $383 -7.0680752404412415 $482 2.2061860048766535e-014 $275 $483 forward 7 unknown #
coedge $-1 $484 $485 $276 $380 forward $486 $-1 #
edge $-1 $384 23.177848600938411 $482 28.592308420995874 $379 $487 forward 7 unknown #
coedge $-1 $488 $277 $485 $489 forward $373 $-1 #
coedge $-1 $277 $475 $376 $480 forward $373 $-1 #
vertex $-1 $480 $490 #
vertex $-1 $489 $491 #
straight-curve $-1 -60.936430713853227 14.400320296394508 10.106315002588907 -1 0 0 I I #
vertex $-1 $279 $492 #
point $-1 -43.242307316457889 17.460519949806205 6.5082256759635895 #
straight-curve $-1 -48.131351664784688 31.500939233277599 0 0 0 -1 I I #
point $-1 -48.131351664784688 -31.500939233277599 -10.106315002588907 #
straight-curve $-1 -48.131351664784688 0 -10.106315002588907 0 1 0 I I #
point $-1 -48.131351664784688 31.500939233277599 -10.106315002588907 #
face $-1 $-1 $493 $16 $-1 $494 reversed single #
plane-surface $-1 -48.131351664784688 0 0 1 0 0 0 0 -1 forward_v I I I I #
coedge $-1 $495 $301 $316 $408 forward $203 $-1 #
coedge $-1 $301 $495 $496 $497 forward $203 $-1 #
coedge $-1 $405 $498 $302 $397 reversed $493 $-1 #
edge $-1 $398 -48.131351664784688 $401 48.131351664784688 $396 $499 forward 7 unknown #
vertex $-1 $303 $500 #
straight-curve $-1 48.131351664784688 0 10.106315002588907 0 1 0 I I #
coedge $-1 $407 $304 $498 $501 forward $313 $-1 #
vertex $-1 $397 $502 #
straight-curve $-1 -48.131351664784688 0 10.106315002588907 0 -1 0 I I #
point $-1 -48.131351664784688 -20.587488458217152 10.106315002588907 #
straight-curve $-1 -48.131351664784688 -20.587488458217152 4.3031575012944536 0 0 1 I I #
coedge $-1 $496 $396 $310 $406 forward $493 $-1 #
edge $-1 $398 -10.106315002588907 $411 10.106315002588907 $310 $503 forward 7 unknown #
coedge $-1 $312 $400 $495 $504 reversed $313 $-1 #
edge $-1 $320 -48.131351664784688 $409 48.131351664784688 $316 $505 forward 7 unknown #
vertex $-1 $504 $506 #
straight-curve $-1 -48.131351664784688 -31.500939233277599 0 0 0 -1 I I #
vertex $-1 $319 $507 #
straight-curve $-1 48.131351664784688 0 -10.106315002588907 0 -1 0 I I #
point $-1 48.131351664784688 -31.500939233277599 -10.106315002588907 #
loop $-1 $-1 $508 $322 #
plane-surface $-1 0 -20.587488458217152 8.6063150025889072 0 -1 0 0 0 -1 forward_v I I I I #
coedge $-1 $509 $510 $511 $512 reversed $323 $-1 #
coedge $-1 $326 $325 $513 $514 forward $137 $-1 #
coedge $-1 $329 $440 $325 $419 forward $245 $-1 #
edge $-1 $515 -48.131351664784688 $332 27.918721659606874 $325 $439 forward 7 unknown #
coedge $-1 $343 $327 $326 $421 forward $241 $-1 #
edge $-1 $331 -27.918721659606874 $516 48.131351664784688 $326 $431 forward 7 unknown #
straight-curve $-1 -27.918721659606874 36.991049048307438 -10.106315002588907 0 -1 0 I I #
straight-curve $-1 -27.918721659606874 36.991049048307438 10.106315002588907 0 1 0 I I #
point $-1 -27.918721659606874 31.500939233277592 -10.106315002588907 #
point $-1 -27.918721659606874 31.500939233277592 10.106315002588907 #
coedge $-1 $339 $338 $517 $518 reversed $226 $-1 #
coedge $-1 $341 $343 $519 $520 forward $241 $-1 #
coedge $-1 $521 $517 $341 $429 reversed $522 $-1 #
edge $-1 $523 -31.500939233277599 $430 31.500939233277599 $428 $524 forward 7 unknown #
vertex $-1 $342 $525 #
straight-curve $-1 0 31.500939233277599 -10.106315002588907 1 0 0 I I #
coedge $-1 $513 $526 $343 $433 reversed $527 $-1 #
edge $-1 $516 -31.500939233277599 $528 31.500939233277599 $432 $529 forward 7 unknown #
face $-1 $530 $531 $17 $-1 $532 reversed single #
plane-surface $-1 0 0 -10.106315002588907 0 0 1 1 0 0 forward_v I I I I #
coedge $-1 $517 $533 $346 $437 reversed $522 $-1 #
edge $-1 $438 -31.500939233277599 $534 20.587488458217152 $436 $535 forward 7 unknown #
vertex $-1 $347 $536 #
straight-curve $-1 0 31.500939233277599 10.106315002588907 -1 0 0 I I #
coedge $-1 $418 $348 $537 $538 forward $245 $-1 #
coedge $-1 $539 $508 $348 $442 reversed $414 $-1 #
edge $-1 $534 -48.131351664784688 $540 48.131351664784688 $348 $541 forward 7 unknown #
face $-1 $344 $527 $17 $-1 $542 reversed single #
plane-surface $-1 0 0 10.106315002588907 0 0 1 1 0 0 forward_v I I I I #
face $-1 $543 $544 $18 $-1 $545 reversed single #
loop $-1 $-1 $546 $351 #
plane-surface $-1 -27.918721659606874 36.991049048307438 0 -1 0 0 0 0 1 forward_v I I I I #
coedge $-1 $547 $548 $549 $550 forward $352 $-1 #
coedge $-1 $551 $354 $552 $553 reversed $251 $-1 #
coedge $-1 $354 $551 $554 $555 reversed $251 $-1 #
coedge $-1 $548 $547 $354 $452 reversed $352 $-1 #
edge $-1 $556 -10.106315002588907 $557 10.106315002588907 $451 $558 forward 7 unknown #
coedge $-1 $355 $554 $559 $560 forward $153 $-1 #
coedge $-1 $561 $356 $355 $455 reversed $265 $-1 #
edge $-1 $562 -31.500939233277599 $358 -20.520719603217902 $454 $371 forward 7 unknown #
straight-curve $-1 -48.131351664784688 20.520719603217902 33.284163603527318 0 0 1 I I #
point $-1 -48.131351664784688 20.520719603217902 10.106315002588907 #
straight-curve $-1 -48.131351664784688 8.7302599749031025 4.691855182531441 0 1 0 I I #
point $-1 -48.131351664784688 20.520719603217902 4.6918551825314454 #
coedge $-1 $365 $563 $564 $565 forward $265 $-1 #
coedge $-1 $566 $368 $365 $462 reversed $468 $-1 #
edge $-1 $567 2.8031575012944536 $370 5.8031575012944536 $365 $568 forward 7 unknown #
plane-surface $-1 -48.131351664784688 0 0 1 0 0 0 0 -1 forward_v I I I I #
coedge $-1 $569 $367 $570 $571 forward $153 $-1 #
coedge $-1 $572 $573 $367 $466 reversed $574 $-1 #
edge $-1 $469 -20.587488458217152 $575 31.500939233277599 $465 $576 forward 7 unknown #
coedge $-1 $368 $566 $572 $577 reversed $468 $-1 #
loop $-1 $-1 $467 $578 #
vertex $-1 $466 $579 #
straight-curve $-1 0 -20.587488458217152 10.106315002588907 1 0 0 I I #
point $-1 -48.131351664784688 -20.587488458217152 10.106315002588907 #
face $-1 $580 $581 $19 $-1 $582 reversed single #
loop $-1 $-1 $583 $372 #
plane-surface $-1 -32.169931175482112 36.991049048307438 0 1 0 0 0 0 -1 forward_v I I I I #
coedge $-1 $382 $584 $375 $478 forward $373 $-1 #
coedge $-1 $477 $375 $585 $586 reversed $272 $-1 #
coedge $-1 $375 $476 $479 $587 forward $272 $-1 #
edge $-1 $588 12.805079049068539 $589 17.348350168154667 $475 $590 forward 7 unknown #
coedge $-1 $481 $376 $477 $587 reversed $274 $-1 #
edge $-1 $589 -11.7904596283148 $383 -5.6700603214914054 $382 $591 forward 7 unknown #
coedge $-1 $377 $479 $484 $592 reversed $274 $-1 #
vertex $-1 $592 $593 #
straight-curve $-1 -48.131351664784674 14.400320296394508 4.6918551825314623 -0.64278759981090561 0 -0.7660444514056185 I I #
coedge $-1 $585 $379 $481 $592 forward $486 $-1 #
coedge $-1 $379 $594 $381 $489 reversed $486 $-1 #
loop $-1 $-1 $585 $595 #
straight-curve $-1 -48.131351664784688 14.400320296394508 33.284163603527318 0 0 -1 I I #
coedge $-1 $596 $381 $597 $598 forward $373 $-1 #
edge $-1 $384 -14.400320296394508 $599 20.587488458217152 $485 $600 forward 7 unknown #
point $-1 -43.58808054569856 14.400320296394508 10.106315002588907 #
point $-1 -48.131351664784688 14.400320296394508 10.106315002588907 #
point $-1 -43.119050464863179 17.460519949806205 5.0993936247470657 #
loop $-1 $-1 $405 $392 #
plane-surface $-1 0 31.500939233277599 0 0 -1 0 0 0 -1 forward_v I I I I #
coedge $-1 $395 $394 $407 $504 forward $203 $-1 #
coedge $-1 $498 $405 $395 $497 reversed $493 $-1 #
edge $-1 $601 -48.131351664784688 $411 48.131351664784688 $496 $602 forward 7 unknown #
coedge $-1 $396 $496 $400 $501 reversed $493 $-1 #
straight-curve $-1 0 31.500939233277599 10.106315002588907 -1 0 0 I I #
point $-1 48.131351664784688 31.500939233277599 10.106315002588907 #
edge $-1 $401 -10.106315002588907 $601 10.106315002588907 $498 $603 forward 7 unknown #
point $-1 -48.131351664784688 31.500939233277599 10.106315002588907 #
straight-curve $-1 48.131351664784688 31.500939233277599 0 0 0 -1 I I #
edge $-1 $409 -31.500939233277599 $601 31.500939233277599 $407 $604 forward 7 unknown #
straight-curve $-1 0 -31.500939233277599 -10.106315002588907 -1 0 0 I I #
point $-1 -48.131351664784688 -31.500939233277599 -10.106315002588907 #
point $-1 48.131351664784688 31.500939233277599 -10.106315002588907 #
coedge $-1 $441 $605 $606 $607 reversed $414 $-1 #
coedge $-1 $608 $416 $605 $609 reversed $323 $-1 #
coedge $-1 $416 $608 $610 $611 reversed $323 $-1 #
coedge $-1 $526 $606 $416 $512 forward $527 $-1 #
edge $-1 $612 7.5653815353434641 $613 18.478832310403909 $511 $614 forward 7 unknown #
coedge $-1 $537 $432 $417 $514 reversed $527 $-1 #
edge $-1 $515 -10.106315002588907 $516 10.106315002588907 $513 $615 forward 7 unknown #
vertex $-1 $538 $616 #
vertex $-1 $433 $617 #
coedge $-1 $428 $436 $426 $518 forward $522 $-1 #
edge $-1 $438 -10.106315002588907 $430 10.106315002588907 $426 $618 forward 7 unknown #
coedge $-1 $619 $620 $427 $520 reversed $531 $-1 #
edge $-1 $528 -48.131351664784688 $523 48.131351664784688 $519 $621 forward 7 unknown #
coedge $-1 $622 $428 $620 $623 reversed $522 $-1 #
loop $-1 $-1 $533 $530 #
vertex $-1 $429 $624 #
straight-curve $-1 -48.131351664784688 0 -10.106315002588907 0 1 0 I I #
point $-1 -48.131351664784688 31.500939233277599 -10.106315002588907 #
coedge $-1 $432 $511 $619 $625 forward $527 $-1 #
loop $-1 $-1 $606 $443 #
vertex $-1 $625 $626 #
straight-curve $-1 48.131351664784688 0 -10.106315002588907 0 -1 0 I I #
face $-1 $-1 $522 $17 $-1 $627 reversed single #
loop $-1 $-1 $610 $434 #
plane-surface $-1 0 -31.500939233277599 0 0 1 0 0 0 1 forward_v I I I I #
coedge $-1 $436 $622 $539 $628 forward $522 $-1 #
vertex $-1 $628 $629 #
straight-curve $-1 -48.131351664784688 0 10.106315002588907 0 -1 0 I I #
point $-1 -48.131351664784688 31.500939233277599 10.106315002588907 #
coedge $-1 $606 $513 $440 $538 reversed $527 $-1 #
edge $-1 $540 -20.587488458217152 $515 31.500939233277599 $537 $630 forward 7 unknown #
coedge $-1 $605 $441 $533 $628 reversed $414 $-1 #
vertex $-1 $538 $631 #
straight-curve $-1 0 -20.587488458217152 10.106315002588907 1 0 0 I I #
plane-surface $-1 48.131351664784688 0 0 -1 0 0 0 0 1 forward_v I I I I #
face $-1 $632 $633 $18 $-1 $545 reversed single #
loop $-1 $-1 $634 $445 #
plane-surface $-1 0 31.500939233277599 0 0 -1 0 0 0 -1 forward_v I I I I #
coedge $-1 $635 $636 $634 $637 reversed $446 $-1 #
coedge $-1 $451 $448 $638 $639 reversed $352 $-1 #
coedge $-1 $448 $451 $640 $641 reversed $352 $-1 #
coedge $-1 $636 $635 $448 $550 reversed $446 $-1 #
edge $-1 $642 -10.106315002588907 $643 10.106315002588907 $549 $644 forward 7 unknown #
coedge $-1 $450 $449 $645 $646 reversed $251 $-1 #
coedge $-1 $638 $647 $449 $553 forward $648 $-1 #
edge $-1 $649 -5.4901098150298466 $557 5.4901098150298466 $449 $650 forward 7 unknown #
coedge $-1 $453 $640 $450 $555 forward $153 $-1 #
edge $-1 $556 -5.4901098150298466 $651 5.4901098150298466 $450 $652 forward 7 unknown #
vertex $-1 $641 $653 #
vertex $-1 $639 $654 #
straight-curve $-1 -32.169931175482112 42.481158863337285 0 0 0 -1 I I #
coedge $-1 $645 $655 $453 $560 reversed $633 $-1 #
edge $-1 $651 32.169931175482112 $562 48.131351664784688 $559 $656 forward 7 unknown #
coedge $-1 $657 $454 $655 $658 forward $265 $-1 #
vertex $-1 $560 $659 #
coedge $-1 $460 $657 $660 $661 reversed $265 $-1 #
coedge $-1 $662 $663 $460 $565 reversed $664 $-1 #
edge $-1 $665 -18.478832310403909 $567 -7.5653815353434641 $460 $666 forward 7 unknown #
coedge $-1 $467 $461 $663 $667 forward $468 $-1 #
vertex $-1 $565 $668 #
straight-curve $-1 -48.131351664784688 -20.587488458217152 4.3031575012944536 0 0 1 I I #
coedge $-1 $640 $464 $636 $669 forward $153 $-1 #
coedge $-1 $670 $634 $464 $571 reversed $544 $-1 #
edge $-1 $575 -48.131351664784688 $671 27.918721659606874 $570 $656 forward 7 unknown #
coedge $-1 $672 $465 $467 $577 forward $574 $-1 #
coedge $-1 $465 $673 $670 $674 reversed $574 $-1 #
loop $-1 $-1 $572 $675 #
vertex $-1 $466 $676 #
straight-curve $-1 48.131351664784688 0 10.106315002588907 0 1 0 I I #
edge $-1 $469 -5.8031575012944536 $677 -2.8031575012944536 $572 $678 forward 7 unknown #
face $-1 $675 $468 $18 $-1 $679 forward single #
point $-1 48.131351664784688 -20.587488458217152 10.106315002588907 #
face $-1 $680 $681 $19 $-1 $682 reversed single #
loop $-1 $-1 $683 $472 #
plane-surface $-1 -30.044326417544493 42.481158863337285 0 0 -1 0 0 0 -1 forward_v I I I I #
coedge $-1 $684 $685 $686 $687 forward $473 $-1 #
coedge $-1 $475 $688 $689 $690 forward $373 $-1 #
coedge $-1 $689 $484 $476 $586 forward $486 $-1 #
edge $-1 $691 -28.592308420995874 $588 -23.177848600938411 $585 $692 forward 7 unknown #
edge $-1 $691 -2.2061860048766535e-014 $589 7.0680752404412415 $477 $693 forward 7 unknown #
vertex $-1 $586 $694 #
vertex $-1 $480 $695 #
straight-curve $-1 -60.936430713853227 20.520719603217902 10.106315002588907 1 0 0 I I #
straight-curve $-1 -43.58808054569856 8.7302599749031025 10.106315002588907 0 -1 0 I I #
edge $-1 $482 5.6700603214914054 $691 11.7904596283148 $484 $696 forward 7 unknown #
point $-1 -48.131351664784688 14.400320296394508 4.6918551825314454 #
coedge $-1 $485 $697 $698 $699 forward $486 $-1 #
face $-1 $-1 $486 $19 $-1 $700 reversed single #
coedge $-1 $701 $488 $702 $703 forward $373 $-1 #
coedge $-1 $698 $704 $488 $598 reversed $705 $-1 #
edge $-1 $599 -48.131351664784688 $706 48.131351664784688 $488 $707 forward 7 unknown #
vertex $-1 $699 $708 #
straight-curve $-1 -48.131351664784688 0 10.106315002588907 0 -1 0 I I #
vertex $-1 $497 $709 #
straight-curve $-1 0 31.500939233277599 -10.106315002588907 1 0 0 I I #
straight-curve $-1 -48.131351664784688 31.500939233277599 0 0 0 -1 I I #
straight-curve $-1 -48.131351664784688 0 -10.106315002588907 0 1 0 I I #
coedge $-1 $508 $539 $509 $609 forward $414 $-1 #
coedge $-1 $511 $537 $508 $607 forward $527 $-1 #
edge $-1 $540 -5.8031575012944536 $612 -2.8031575012944536 $606 $710 forward 7 unknown #
coedge $-1 $510 $509 $622 $711 reversed $323 $-1 #
edge $-1 $712 -48.131351664784688 $612 48.131351664784688 $605 $713 forward 7 unknown #
coedge $-1 $620 $619 $510 $611 forward $531 $-1 #
edge $-1 $613 -48.131351664784688 $714 48.131351664784688 $610 $715 forward 7 unknown #
vertex $-1 $512 $716 #
vertex $-1 $625 $717 #
straight-curve $-1 48.131351664784688 -13.022106922873688 7.1063150025889072 0 -1 0 I I #
straight-curve $-1 48.131351664784688 31.500939233277599 0 0 0 -1 I I #
point $-1 48.131351664784688 31.500939233277599 10.106315002588907 #
point $-1 48.131351664784688 31.500939233277599 -10.106315002588907 #
straight-curve $-1 -48.131351664784688 31.500939233277599 0 0 0 -1 I I #
coedge $-1 $610 $519 $526 $625 reversed $531 $-1 #
coedge $-1 $519 $610 $521 $623 forward $531 $-1 #
straight-curve $-1 0 -31.500939233277599 -10.106315002588907 -1 0 0 I I #
coedge $-1 $533 $521 $608 $711 forward $522 $-1 #
edge $-1 $714 -7.1063150025889072 $523 10.106315002588907 $521 $718 forward 7 unknown #
point $-1 -48.131351664784688 -31.500939233277599 -10.106315002588907 #
edge $-1 $613 -7.1063150025889072 $528 10.106315002588907 $526 $719 forward 7 unknown #
point $-1 48.131351664784688 -31.500939233277599 -10.106315002588907 #
plane-surface $-1 -48.131351664784688 0 0 1 0 0 0 0 -1 forward_v I I I I #
edge $-1 $712 2.8031575012944536 $534 5.8031575012944536 $533 $720 forward 7 unknown #
point $-1 -48.131351664784688 -20.587488458217152 10.106315002588907 #
straight-curve $-1 48.131351664784688 0 10.106315002588907 0 1 0 I I #
point $-1 48.131351664784688 -20.587488458217152 10.106315002588907 #
face $-1 $578 $664 $18 $-1 $721 forward single #
loop $-1 $-1 $645 $543 #
coedge $-1 $570 $722 $546 $637 forward $544 $-1 #
coedge $-1 $549 $546 $723 $724 reversed $446 $-1 #
coedge $-1 $546 $549 $569 $669 reversed $446 $-1 #
edge $-1 $725 -10.106315002588907 $671 10.106315002588907 $634 $726 forward 7 unknown #
coedge $-1 $723 $552 $547 $639 forward $648 $-1 #
edge $-1 $557 -2.1256047579376194 $643 2.1256047579376194 $547 $727 forward 7 unknown #
coedge $-1 $554 $569 $548 $641 forward $153 $-1 #
edge $-1 $642 -2.1256047579376194 $556 2.1256047579376194 $548 $728 forward 7 unknown #
vertex $-1 $669 $729 #
vertex $-1 $724 $730 #
straight-curve $-1 -27.918721659606874 42.481158863337285 0 0 0 -1 I I #
coedge $-1 $731 $559 $551 $646 forward $633 $-1 #
edge $-1 $651 -10.106315002588907 $649 10.106315002588907 $645 $732 forward 7 unknown #
coedge $-1 $552 $733 $731 $734 forward $648 $-1 #
loop $-1 $-1 $735 $736 #
vertex $-1 $553 $737 #
straight-curve $-1 -32.169931175482112 36.991049048307438 -10.106315002588907 0 1 0 I I #
vertex $-1 $560 $738 #
straight-curve $-1 -32.169931175482112 36.991049048307438 10.106315002588907 0 -1 0 I I #
point $-1 -32.169931175482112 42.481158863337285 10.106315002588907 #
point $-1 -32.169931175482112 42.481158863337285 -10.106315002588907 #
coedge $-1 $559 $731 $561 $658 reversed $633 $-1 #
straight-curve $-1 0 31.500939233277599 10.106315002588907 -1 0 0 I I #
coedge $-1 $563 $561 $733 $739 reversed $265 $-1 #
edge $-1 $562 -10.106315002588907 $740 10.106315002588907 $655 $741 forward 7 unknown #
point $-1 -48.131351664784688 31.500939233277599 10.106315002588907 #
coedge $-1 $742 $743 $563 $661 forward $744 $-1 #
edge $-1 $665 -7.1063150025889072 $745 10.106315002588907 $563 $746 forward 7 unknown #
coedge $-1 $747 $564 $743 $748 reversed $664 $-1 #
coedge $-1 $564 $747 $566 $667 reversed $664 $-1 #
loop $-1 $-1 $747 $632 #
vertex $-1 $661 $749 #
straight-curve $-1 -48.131351664784688 -13.022106922873688 7.1063150025889072 0 1 0 I I #
edge $-1 $567 -48.131351664784688 $677 48.131351664784688 $566 $750 forward 7 unknown #
point $-1 -48.131351664784688 -20.587488458217152 7.1063150025889072 #
edge $-1 $671 -5.4901098150298466 $642 5.4901098150298466 $636 $751 forward 7 unknown #
coedge $-1 $722 $570 $573 $674 forward $544 $-1 #
vertex $-1 $669 $752 #
coedge $-1 $753 $572 $747 $754 forward $574 $-1 #
coedge $-1 $573 $753 $735 $755 reversed $574 $-1 #
edge $-1 $575 -10.106315002588907 $756 10.106315002588907 $573 $757 forward 7 unknown #
face $-1 $736 $574 $18 $-1 $758 reversed single #
point $-1 48.131351664784688 31.500939233277599 10.106315002588907 #
vertex $-1 $754 $759 #
straight-curve $-1 48.131351664784688 -20.587488458217152 4.3031575012944536 0 0 -1 I I #
plane-surface $-1 0 -20.587488458217152 8.6063150025889072 0 -1 0 0 0 -1 forward_v I I I I #
face $-1 $760 $761 $19 $-1 $762 reversed single #
loop $-1 $-1 $763 $580 #
plane-surface $-1 -27.918721659606874 36.991049048307438 0 -1 0 0 0 0 1 forward_v I I I I #
coedge $-1 $764 $765 $766 $767 forward $581 $-1 #
coedge $-1 $768 $583 $769 $770 reversed $473 $-1 #
coedge $-1 $583 $768 $771 $772 reversed $473 $-1 #
coedge $-1 $765 $764 $583 $687 reversed $581 $-1 #
edge $-1 $773 -10.106315002588907 $774 10.106315002588907 $686 $775 forward 7 unknown #
coedge $-1 $584 $771 $776 $777 forward $373 $-1 #
coedge $-1 $778 $585 $584 $690 reversed $486 $-1 #
edge $-1 $779 -31.500939233277599 $588 -20.520719603217902 $689 $600 forward 7 unknown #
vertex $-1 $592 $780 #
straight-curve $-1 -48.131351664784688 20.520719603217902 33.284163603527318 0 0 1 I I #
straight-curve $-1 -48.131351664784674 20.520719603217902 4.6918551825314623 0.64278759981090561 0 0.7660444514056185 I I #
point $-1 -48.131351664784688 20.520719603217902 10.106315002588907 #
point $-1 -43.58808054569856 20.520719603217902 10.106315002588907 #
straight-curve $-1 -48.131351664784688 8.7302599749031025 4.691855182531441 0 1 0 I I #
coedge $-1 $594 $781 $782 $783 forward $486 $-1 #
coedge $-1 $784 $597 $594 $699 reversed $705 $-1 #
edge $-1 $785 2.8031575012944536 $599 5.8031575012944536 $594 $786 forward 7 unknown #
plane-surface $-1 -48.131351664784688 0 0 1 0 0 0 0 -1 forward_v I I I I #
coedge $-1 $787 $596 $788 $789 forward $373 $-1 #
coedge $-1 $790 $791 $596 $703 reversed $792 $-1 #
edge $-1 $706 -20.587488458217152 $793 31.500939233277599 $702 $794 forward 7 unknown #
coedge $-1 $597 $784 $790 $795 reversed $705 $-1 #
loop $-1 $-1 $704 $796 #
vertex $-1 $703 $797 #
straight-curve $-1 0 -20.587488458217152 10.106315002588907 1 0 0 I I #
point $-1 -48.131351664784688 -20.587488458217152 10.106315002588907 #
point $-1 -48.131351664784688 31.500939233277599 -10.106315002588907 #
straight-curve $-1 48.131351664784688 -20.587488458217152 4.3031575012944536 0 0 -1 I I #
edge $-1 $714 -18.478832310403909 $712 -7.5653815353434641 $622 $798 forward 7 unknown #
vertex $-1 $711 $799 #
straight-curve $-1 0 -20.587488458217152 7.1063150025889072 1 0 0 I I #
vertex $-1 $623 $800 #
straight-curve $-1 0 -31.500939233277599 7.1063150025889072 -1 0 0 I I #
point $-1 48.131351664784688 -20.587488458217152 7.1063150025889072 #
point $-1 48.131351664784688 -31.500939233277599 7.1063150025889072 #
straight-curve $-1 -48.131351664784688 -31.500939233277599 0 0 0 -1 I I #
straight-curve $-1 48.131351664784688 -31.500939233277599 0 0 0 -1 I I #
straight-curve $-1 -48.131351664784688 -20.587488458217152 4.3031575012944536 0 0 1 I I #
plane-surface $-1 0 -26.044213845747375 7.1063150025889072 0 0 1 1 0 0 forward_v I I I I #
coedge $-1 $634 $670 $801 $802 reversed $544 $-1 #
coedge $-1 $801 $638 $635 $724 forward $648 $-1 #
edge $-1 $643 -5.4901098150298466 $725 5.4901098150298466 $635 $803 forward 7 unknown #
vertex $-1 $802 $804 #
straight-curve $-1 -27.918721659606874 31.500939233277599 0 0 0 1 I I #
straight-curve $-1 -30.044326417544493 42.481158863337285 -10.106315002588907 1 0 0 I I #
straight-curve $-1 -30.044326417544493 42.481158863337285 10.106315002588907 -1 0 0 I I #
point $-1 -27.918721659606874 42.481158863337285 10.106315002588907 #
point $-1 -27.918721659606874 42.481158863337285 -10.106315002588907 #
coedge $-1 $655 $645 $647 $734 reversed $633 $-1 #
straight-curve $-1 -32.169931175482112 31.500939233277599 0 0 0 -1 I I #
coedge $-1 $647 $805 $657 $739 forward $648 $-1 #
edge $-1 $740 -48.131351664784688 $649 -32.169931175482112 $731 $806 forward 7 unknown #
coedge $-1 $805 $801 $673 $755 forward $648 $-1 #
face $-1 $807 $648 $18 $-1 $808 reversed single #
point $-1 -32.169931175482112 31.500939233277592 -10.106315002588907 #
point $-1 -32.169931175482112 31.500939233277592 10.106315002588907 #
edge $-1 $745 -31.500939233277599 $740 31.500939233277599 $657 $809 forward 7 unknown #
vertex $-1 $734 $810 #
straight-curve $-1 -48.131351664784688 31.500939233277599 0 0 0 -1 I I #
coedge $-1 $811 $660 $805 $812 reversed $744 $-1 #
coedge $-1 $660 $811 $662 $748 forward $744 $-1 #
loop $-1 $-1 $743 $807 #
vertex $-1 $739 $813 #
straight-curve $-1 -48.131351664784688 -31.500939233277599 0 0 0 -1 I I #
coedge $-1 $663 $662 $672 $754 reversed $664 $-1 #
edge $-1 $814 -48.131351664784688 $665 48.131351664784688 $743 $815 forward 7 unknown #
point $-1 -48.131351664784688 -31.500939233277599 7.1063150025889072 #
straight-curve $-1 0 -20.587488458217152 7.1063150025889072 1 0 0 I I #
straight-curve $-1 -27.918721659606874 36.991049048307438 10.106315002588907 0 1 0 I I #
point $-1 -27.918721659606874 31.500939233277592 10.106315002588907 #
coedge $-1 $673 $672 $811 $816 forward $574 $-1 #
edge $-1 $677 7.5653815353434641 $814 18.478832310403909 $672 $817 forward 7 unknown #
edge $-1 $756 -31.500939233277599 $818 31.500939233277599 $673 $819 forward 7 unknown #
vertex $-1 $755 $820 #
straight-curve $-1 48.131351664784688 31.500939233277599 0 0 0 -1 I I #
plane-surface $-1 48.131351664784688 0 0 -1 0 0 0 0 1 forward_v I I I I #
point $-1 48.131351664784688 -20.587488458217152 7.1063150025889072 #
face $-1 $821 $822 $19 $-1 $762 reversed single #
loop $-1 $-1 $823 $680 #
plane-surface $-1 0 31.500939233277599 0 0 -1 0 0 0 -1 forward_v I I I I #
coedge $-1 $824 $825 $823 $826 reversed $681 $-1 #
coedge $-1 $686 $683 $827 $828 reversed $581 $-1 #
coedge $-1 $683 $686 $829 $830 reversed $581 $-1 #
coedge $-1 $825 $824 $683 $767 reversed $681 $-1 #
edge $-1 $831 -10.106315002588907 $832 10.106315002588907 $766 $833 forward 7 unknown #
coedge $-1 $685 $684 $834 $835 reversed $473 $-1 #
coedge $-1 $827 $836 $684 $770 forward $837 $-1 #
edge $-1 $838 -5.4901098150298466 $774 5.4901098150298466 $684 $839 forward 7 unknown #
coedge $-1 $688 $829 $685 $772 forward $373 $-1 #
edge $-1 $773 -5.4901098150298466 $840 5.4901098150298466 $685 $841 forward 7 unknown #
vertex $-1 $830 $842 #
vertex $-1 $828 $843 #
straight-curve $-1 -32.169931175482112 42.481158863337285 0 0 0 -1 I I #
coedge $-1 $834 $844 $688 $777 reversed $822 $-1 #
edge $-1 $840 32.169931175482112 $779 48.131351664784688 $776 $845 forward 7 unknown #
coedge $-1 $846 $689 $844 $847 forward $486 $-1 #
vertex $-1 $777 $848 #
point $-1 -48.131351664784688 20.520719603217902 4.6918551825314454 #
coedge $-1 $697 $846 $849 $850 reversed $486 $-1 #
coedge $-1 $851 $852 $697 $783 reversed $853 $-1 #
edge $-1 $854 -18.478832310403909 $785 -7.5653815353434641 $697 $855 forward 7 unknown #
coedge $-1 $704 $698 $852 $856 forward $705 $-1 #
vertex $-1 $783 $857 #
straight-curve $-1 -48.131351664784688 -20.587488458217152 4.3031575012944536 0 0 1 I I #
coedge $-1 $829 $701 $825 $858 forward $373 $-1 #
coedge $-1 $859 $823 $701 $789 reversed $761 $-1 #
edge $-1 $793 -48.131351664784688 $860 27.918721659606874 $788 $845 forward 7 unknown #
coedge $-1 $861 $702 $704 $795 forward $792 $-1 #
coedge $-1 $702 $862 $859 $863 reversed $792 $-1 #
loop $-1 $-1 $790 $864 #
vertex $-1 $703 $865 #
straight-curve $-1 48.131351664784688 0 10.106315002588907 0 1 0 I I #
edge $-1 $706 -5.8031575012944536 $866 -2.8031575012944536 $790 $867 forward 7 unknown #
face $-1 $864 $705 $19 $-1 $868 forward single #
point $-1 48.131351664784688 -20.587488458217152 10.106315002588907 #
straight-curve $-1 -48.131351664784688 -13.022106922873688 7.1063150025889072 0 1 0 I I #
point $-1 -48.131351664784688 -20.587488458217152 7.1063150025889072 #
point $-1 -48.131351664784688 -31.500939233277599 7.1063150025889072 #
coedge $-1 $735 $723 $722 $802 forward $648 $-1 #
edge $-1 $725 -27.918721659606874 $756 48.131351664784688 $722 $806 forward 7 unknown #
straight-curve $-1 -27.918721659606874 36.991049048307438 -10.106315002588907 0 -1 0 I I #
point $-1 -27.918721659606874 31.500939233277592 -10.106315002588907 #
coedge $-1 $733 $735 $742 $812 forward $648 $-1 #
straight-curve $-1 0 31.500939233277599 -10.106315002588907 1 0 0 I I #
face $-1 $366 $744 $18 $-1 $869 reversed single #
plane-surface $-1 0 0 -10.106315002588907 0 0 1 1 0 0 forward_v I I I I #
straight-curve $-1 -48.131351664784688 0 -10.106315002588907 0 1 0 I I #
point $-1 -48.131351664784688 31.500939233277599 -10.106315002588907 #
coedge $-1 $743 $742 $753 $816 reversed $744 $-1 #
edge $-1 $818 -48.131351664784688 $745 48.131351664784688 $742 $870 forward 7 unknown #
point $-1 -48.131351664784688 -31.500939233277599 -10.106315002588907 #
vertex $-1 $816 $871 #
straight-curve $-1 0 -31.500939233277599 7.1063150025889072 -1 0 0 I I #
edge $-1 $814 -7.1063150025889072 $818 10.106315002588907 $753 $872 forward 7 unknown #
straight-curve $-1 48.131351664784688 -13.022106922873688 7.1063150025889072 0 -1 0 I I #
vertex $-1 $816 $873 #
straight-curve $-1 48.131351664784688 0 -10.106315002588907 0 -1 0 I I #
point $-1 48.131351664784688 31.500939233277599 -10.106315002588907 #
face $-1 $796 $853 $19 $-1 $874 forward single #
loop $-1 $-1 $834 $760 #
coedge $-1 $788 $875 $763 $826 forward $761 $-1 #
coedge $-1 $766 $763 $876 $877 reversed $681 $-1 #
coedge $-1 $763 $766 $787 $858 reversed $681 $-1 #
edge $-1 $878 -10.106315002588907 $860 10.106315002588907 $823 $879 forward 7 unknown #
coedge $-1 $876 $769 $764 $828 forward $837 $-1 #
edge $-1 $774 -2.1256047579376194 $832 2.1256047579376194 $764 $880 forward 7 unknown #
coedge $-1 $771 $787 $765 $830 forward $373 $-1 #
edge $-1 $831 -2.1256047579376194 $773 2.1256047579376194 $765 $881 forward 7 unknown #
vertex $-1 $858 $882 #
vertex $-1 $877 $883 #
straight-curve $-1 -27.918721659606874 42.481158863337285 0 0 0 -1 I I #
coedge $-1 $884 $776 $768 $835 forward $822 $-1 #
edge $-1 $840 -10.106315002588907 $838 10.106315002588907 $834 $885 forward 7 unknown #
coedge $-1 $769 $886 $884 $887 forward $837 $-1 #
loop $-1 $-1 $888 $889 #
vertex $-1 $770 $890 #
straight-curve $-1 -32.169931175482112 36.991049048307438 -10.106315002588907 0 1 0 I I #
vertex $-1 $777 $891 #
straight-curve $-1 -32.169931175482112 36.991049048307438 10.106315002588907 0 -1 0 I I #
point $-1 -32.169931175482112 42.481158863337285 10.106315002588907 #
point $-1 -32.169931175482112 42.481158863337285 -10.106315002588907 #
coedge $-1 $776 $884 $778 $847 reversed $822 $-1 #
straight-curve $-1 0 31.500939233277599 10.106315002588907 -1 0 0 I I #
coedge $-1 $781 $778 $886 $892 reversed $486 $-1 #
edge $-1 $779 -10.106315002588907 $893 10.106315002588907 $844 $894 forward 7 unknown #
point $-1 -48.131351664784688 31.500939233277599 10.106315002588907 #
coedge $-1 $895 $896 $781 $850 forward $897 $-1 #
edge $-1 $854 -7.1063150025889072 $898 10.106315002588907 $781 $899 forward 7 unknown #
coedge $-1 $900 $782 $896 $901 reversed $853 $-1 #
coedge $-1 $782 $900 $784 $856 reversed $853 $-1 #
loop $-1 $-1 $900 $821 #
vertex $-1 $850 $902 #
straight-curve $-1 -48.131351664784688 -13.022106922873688 7.1063150025889072 0 1 0 I I #
edge $-1 $785 -48.131351664784688 $866 48.131351664784688 $784 $903 forward 7 unknown #
point $-1 -48.131351664784688 -20.587488458217152 7.1063150025889072 #
edge $-1 $860 -5.4901098150298466 $831 5.4901098150298466 $825 $904 forward 7 unknown #
coedge $-1 $875 $788 $791 $863 forward $761 $-1 #
vertex $-1 $858 $905 #
coedge $-1 $906 $790 $900 $907 forward $792 $-1 #
coedge $-1 $791 $906 $888 $908 reversed $792 $-1 #
edge $-1 $793 -10.106315002588907 $909 10.106315002588907 $791 $910 forward 7 unknown #
face $-1 $889 $792 $19 $-1 $911 reversed single #
point $-1 48.131351664784688 31.500939233277599 10.106315002588907 #
vertex $-1 $907 $912 #
straight-curve $-1 48.131351664784688 -20.587488458217152 4.3031575012944536 0 0 -1 I I #
plane-surface $-1 0 -20.587488458217152 8.6063150025889072 0 -1 0 0 0 -1 forward_v I I I I #
plane-surface $-1 0 -31.500939233277599 0 0 1 0 0 0 1 forward_v I I I I #
straight-curve $-1 0 -31.500939233277599 -10.106315002588907 -1 0 0 I I #
point $-1 48.131351664784688 -31.500939233277599 7.1063150025889072 #
straight-curve $-1 48.131351664784688 -31.500939233277599 0 0 0 -1 I I #
point $-1 48.131351664784688 -31.500939233277599 -10.106315002588907 #
plane-surface $-1 0 -26.044213845747375 7.1063150025889072 0 0 1 1 0 0 forward_v I I I I #
coedge $-1 $823 $859 $913 $914 reversed $761 $-1 #
coedge $-1 $913 $827 $824 $877 forward $837 $-1 #
edge $-1 $832 -5.4901098150298466 $878 5.4901098150298466 $824 $915 forward 7 unknown #
vertex $-1 $914 $916 #
straight-curve $-1 -27.918721659606874 31.500939233277599 0 0 0 1 I I #
straight-curve $-1 -30.044326417544493 42.481158863337285 -10.106315002588907 1 0 0 I I #
straight-curve $-1 -30.044326417544493 42.481158863337285 10.106315002588907 -1 0 0 I I #
point $-1 -27.918721659606874 42.481158863337285 10.106315002588907 #
point $-1 -27.918721659606874 42.481158863337285 -10.106315002588907 #
coedge $-1 $844 $834 $836 $887 reversed $822 $-1 #
straight-curve $-1 -32.169931175482112 31.500939233277599 0 0 0 -1 I I #
coedge $-1 $836 $917 $846 $892 forward $837 $-1 #
edge $-1 $893 -48.131351664784688 $838 -32.169931175482112 $884 $918 forward 7 unknown #
coedge $-1 $917 $913 $862 $908 forward $837 $-1 #
face $-1 $919 $837 $19 $-1 $920 reversed single #
point $-1 -32.169931175482112 31.500939233277592 -10.106315002588907 #
point $-1 -32.169931175482112 31.500939233277592 10.106315002588907 #
edge $-1 $898 -31.500939233277599 $893 31.500939233277599 $846 $921 forward 7 unknown #
vertex $-1 $887 $922 #
straight-curve $-1 -48.131351664784688 31.500939233277599 0 0 0 -1 I I #
coedge $-1 $923 $849 $917 $924 reversed $897 $-1 #
coedge $-1 $849 $923 $851 $901 forward $897 $-1 #
loop $-1 $-1 $896 $919 #
vertex $-1 $892 $925 #
straight-curve $-1 -48.131351664784688 -31.500939233277599 0 0 0 -1 I I #
coedge $-1 $852 $851 $861 $907 reversed $853 $-1 #
edge $-1 $926 -48.131351664784688 $854 48.131351664784688 $896 $927 forward 7 unknown #
point $-1 -48.131351664784688 -31.500939233277599 7.1063150025889072 #
straight-curve $-1 0 -20.587488458217152 7.1063150025889072 1 0 0 I I #
straight-curve $-1 -27.918721659606874 36.991049048307438 10.106315002588907 0 1 0 I I #
point $-1 -27.918721659606874 31.500939233277592 10.106315002588907 #
coedge $-1 $862 $861 $923 $928 forward $792 $-1 #
edge $-1 $866 7.5653815353434641 $926 18.478832310403909 $861 $929 forward 7 unknown #
edge $-1 $909 -31.500939233277599 $930 31.500939233277599 $862 $931 forward 7 unknown #
vertex $-1 $908 $932 #
straight-curve $-1 48.131351664784688 31.500939233277599 0 0 0 -1 I I #
plane-surface $-1 48.131351664784688 0 0 -1 0 0 0 0 1 forward_v I I I I #
point $-1 48.131351664784688 -20.587488458217152 7.1063150025889072 #
coedge $-1 $888 $876 $875 $914 forward $837 $-1 #
edge $-1 $878 -27.918721659606874 $909 48.131351664784688 $875 $918 forward 7 unknown #
straight-curve $-1 -27.918721659606874 36.991049048307438 -10.106315002588907 0 -1 0 I I #
point $-1 -27.918721659606874 31.500939233277592 -10.106315002588907 #
coedge $-1 $886 $888 $895 $924 forward $837 $-1 #
straight-curve $-1 0 31.500939233277599 -10.106315002588907 1 0 0 I I #
face $-1 $595 $897 $19 $-1 $933 reversed single #
plane-surface $-1 0 0 -10.106315002588907 0 0 1 1 0 0 forward_v I I I I #
straight-curve $-1 -48.131351664784688 0 -10.106315002588907 0 1 0 I I #
point $-1 -48.131351664784688 31.500939233277599 -10.106315002588907 #
coedge $-1 $896 $895 $906 $928 reversed $897 $-1 #
edge $-1 $930 -48.131351664784688 $898 48.131351664784688 $895 $934 forward 7 unknown #
point $-1 -48.131351664784688 -31.500939233277599 -10.106315002588907 #
vertex $-1 $928 $935 #
straight-curve $-1 0 -31.500939233277599 7.1063150025889072 -1 0 0 I I #
edge $-1 $926 -7.1063150025889072 $930 10.106315002588907 $906 $936 forward 7 unknown #
straight-curve $-1 48.131351664784688 -13.022106922873688 7.1063150025889072 0 -1 0 I I #
vertex $-1 $928 $937 #
straight-curve $-1 48.131351664784688 0 -10.106315002588907 0 -1 0 I I #
point $-1 48.131351664784688 31.500939233277599 -10.106315002588907 #
plane-surface $-1 0 -31.500939233277599 0 0 1 0 0 0 1 forward_v I I I I #
straight-curve $-1 0 -31.500939233277599 -10.106315002588907 -1 0 0 I I #
point $-1 48.131351664784688 -31.500939233277599 7.1063150025889072 #
straight-curve $-1 48.131351664784688 -31.500939233277599 0 0 0 -1 I I #
point $-1 48.131351664784688 -31.500939233277599 -10.106315002588907 #
End-of-ACIS-data 