500 0 18 0           
7 Unknown 11 ACIS 5.0 NT 24 Thu Mar 25 15:44:31 1999 
-1 9.9999999999999995e-007 1e-010 
body $-1 $18 $-1 $19 #
body $-1 $20 $-1 $21 #
body $-1 $22 $-1 $23 #
body $-1 $24 $-1 $25 #
body $-1 $26 $-1 $27 #
body $-1 $28 $-1 $29 #
body $-1 $30 $-1 $31 #
body $-1 $32 $-1 $33 #
body $-1 $34 $-1 $35 #
body $-1 $36 $-1 $37 #
body $-1 $38 $-1 $39 #
body $-1 $40 $-1 $41 #
body $-1 $42 $-1 $43 #
body $-1 $44 $-1 $45 #
body $-1 $46 $-1 $47 #
body $-1 $48 $-1 $49 #
body $-1 $50 $-1 $51 #
body $-1 $52 $-1 $53 #
lump $-1 $-1 $54 $0 #
transform $-1 1 0 0 0 1 0 0 0 1 70.967741935483872 30.672263695673362 10.620576698041946 1 rotate no_reflect no_shear #
lump $-1 $-1 $55 $1 #
transform $-1 1 0 0 0 1 0 0 0 1 70.967741935483872 30.672263695673362 10.620576698041946 1 rotate no_reflect no_shear #
lump $-1 $-1 $56 $2 #
transform $-1 1 0 0 0 1 0 0 0 1 70.967741935483872 30.672263695673362 10.620576698041946 1 rotate no_reflect no_shear #
lump $-1 $-1 $57 $3 #
transform $-1 1 0 0 0 1 0 0 0 1 70.967741935483872 30.672263695673362 10.620576698041946 1 rotate no_reflect no_shear #
lump $-1 $-1 $58 $4 #
transform $-1 1 0 0 0 1 0 0 0 1 70.967741935483872 30.672263695673362 10.620576698041946 1 rotate no_reflect no_shear #
lump $-1 $-1 $59 $5 #
transform $-1 1 0 0 0 1 0 0 0 1 70.967741935483872 30.672263695673362 10.620576698041946 1 rotate no_reflect no_shear #
lump $-1 $-1 $60 $6 #
transform $-1 1 0 0 0 1 0 0 0 1 70.967741935483872 30.672263695673362 10.620576698041946 1 rotate no_reflect no_shear #
lump $-1 $-1 $61 $7 #
transform $-1 1 0 0 0 1 0 0 0 1 70.967741935483872 30.672263695673362 10.620576698041946 1 rotate no_reflect no_shear #
lump $-1 $-1 $62 $8 #
transform $-1 1 0 0 0 1 0 0 0 1 70.967741935483872 30.672263695673362 10.620576698041946 1 rotate no_reflect no_shear #
lump $-1 $-1 $63 $9 #
transform $-1 1 0 0 0 1 0 0 0 1 70.967741935483872 30.672263695673362 10.620576698041946 1 rotate no_reflect no_shear #
lump $-1 $-1 $64 $10 #
transform $-1 1 0 0 0 1 0 0 0 1 70.967741935483872 30.672263695673362 10.620576698041946 1 rotate no_reflect no_shear #
lump $-1 $-1 $65 $11 #
transform $-1 1 0 0 0 1 0 0 0 1 70.967741935483872 30.672263695673362 10.620576698041946 1 rotate no_reflect no_shear #
lump $-1 $-1 $66 $12 #
transform $-1 1 0 0 0 1 0 0 0 1 70.967741935483872 30.672263695673362 10.620576698041946 1 rotate no_reflect no_shear #
lump $-1 $-1 $67 $13 #
transform $-1 1 0 0 0 1 0 0 0 1 70.967741935483872 30.672263695673362 10.620576698041946 1 rotate no_reflect no_shear #
lump $-1 $-1 $68 $14 #
transform $-1 1 0 0 0 1 0 0 0 1 70.967741935483872 30.672263695673362 10.620576698041946 1 rotate no_reflect no_shear #
lump $-1 $-1 $69 $15 #
transform $-1 1 0 0 0 1 0 0 0 1 70.967741935483872 30.672263695673362 10.620576698041946 1 rotate no_reflect no_shear #
lump $-1 $-1 $70 $16 #
transform $-1 1 0 0 0 1 0 0 0 1 70.967741935483872 30.672263695673362 10.620576698041946 1 rotate no_reflect no_shear #
lump $-1 $-1 $71 $17 #
transform $-1 1 0 0 0 1 0 0 0 1 70.967741935483872 30.672263695673362 10.620576698041946 1 rotate no_reflect no_shear #
shell $-1 $-1 $-1 $72 $-1 $18 #
shell $-1 $-1 $-1 $73 $-1 $20 #
shell $-1 $-1 $-1 $74 $-1 $22 #
shell $-1 $-1 $-1 $75 $-1 $24 #
shell $-1 $-1 $-1 $76 $-1 $26 #
shell $-1 $-1 $-1 $77 $-1 $28 #
shell $-1 $-1 $-1 $78 $-1 $30 #
shell $-1 $-1 $-1 $79 $-1 $32 #
shell $-1 $-1 $-1 $80 $-1 $34 #
shell $-1 $-1 $-1 $81 $-1 $36 #
shell $-1 $-1 $-1 $82 $-1 $38 #
shell $-1 $-1 $-1 $83 $-1 $40 #
shell $-1 $-1 $-1 $84 $-1 $42 #
shell $-1 $-1 $-1 $85 $-1 $44 #
shell $-1 $-1 $-1 $86 $-1 $46 #
shell $-1 $-1 $-1 $87 $-1 $48 #
shell $-1 $-1 $-1 $88 $-1 $50 #
shell $-1 $-1 $-1 $89 $-1 $52 #
face $-1 $90 $91 $54 $-1 $92 forward single #
face $-1 $93 $94 $55 $-1 $95 reversed single #
face $-1 $96 $97 $56 $-1 $98 reversed single #
face $-1 $99 $100 $57 $-1 $101 forward single #
face $-1 $102 $103 $58 $-1 $104 forward single #
face $-1 $105 $106 $59 $-1 $107 forward single #
face $-1 $108 $109 $60 $-1 $110 reversed single #
face $-1 $111 $112 $61 $-1 $113 forward single #
face $-1 $114 $115 $62 $-1 $116 forward single #
face $-1 $117 $118 $63 $-1 $119 forward single #
face $-1 $120 $121 $64 $-1 $122 reversed single #
face $-1 $123 $124 $65 $-1 $125 forward single #
face $-1 $126 $127 $66 $-1 $128 forward single #
face $-1 $129 $130 $67 $-1 $131 forward single #
face $-1 $132 $133 $68 $-1 $134 reversed single #
face $-1 $135 $136 $69 $-1 $137 forward single #
face $-1 $138 $139 $70 $-1 $140 forward single #
face $-1 $141 $142 $71 $-1 $143 forward single #
face $-1 $144 $145 $54 $-1 $146 reversed single #
loop $-1 $-1 $147 $72 #
plane-surface $-1 0 0 10.620576698041946 0 0 1 1 0 0 forward_v I I I I #
face $-1 $148 $149 $55 $-1 $150 reversed single #
loop $-1 $-1 $151 $73 #
plane-surface $-1 -66.622238351428408 0 4.4432237802495891 0 0 1 1 0 0 forward_v I I I I #
face $-1 $152 $153 $56 $-1 $154 reversed single #
loop $-1 $-1 $155 $74 #
plane-surface $-1 98.903555694966684 -18.573210528182294 203.32266632613357 0 -1 0 -0.79863551827123203 0 -0.60181501223851219 forward_v I I I I #
face $-1 $156 $157 $57 $-1 $158 forward single #
loop $-1 $159 $160 $75 #
cone-surface $-1 68.001188559117764 -24.293470230418208 7.0731925247445417 -0.79863551827123203 0 -0.60181501223851219 0.3009075061192561 0 -0.39931775913561601 1 I I 0 1 0.5 forward I I I I #
face $-1 $161 $162 $58 $-1 $163 forward single #
loop $-1 $164 $165 $76 #
cone-surface $-1 68.001188559117764 -22.148372842079741 7.0731925247445417 -0.79863551827123203 0 -0.60181501223851219 0.3009075061192561 0 -0.39931775913561601 1 I I 0 1 0.5 forward I I I I #
face $-1 $166 $167 $59 $-1 $168 forward single #
loop $-1 $169 $170 $77 #
cone-surface $-1 68.001188559117764 -20.003275453741274 7.0731925247445417 -0.79863551827123203 0 -0.60181501223851219 0.3009075061192561 0 -0.39931775913561601 1 I I 0 1 0.5 forward I I I I #
face $-1 $171 $172 $60 $-1 $173 reversed single #
loop $-1 $-1 $174 $78 #
plane-surface $-1 98.903555694966684 -3.2370786803456113 203.32266632613357 0 -1 0 -0.79863551827123203 0 -0.60181501223851219 forward_v I I I I #
face $-1 $175 $176 $61 $-1 $177 forward single #
loop $-1 $178 $179 $79 #
cone-surface $-1 68.001188559117764 -8.9573383825815291 7.0731925247445417 -0.79863551827123203 0 -0.60181501223851219 0.3009075061192561 0 -0.39931775913561601 1 I I 0 1 0.5 forward I I I I #
face $-1 $180 $181 $62 $-1 $182 forward single #
loop $-1 $183 $184 $80 #
cone-surface $-1 68.001188559117764 -6.8122409942430586 7.0731925247445417 -0.79863551827123203 0 -0.60181501223851219 0.3009075061192561 0 -0.39931775913561601 1 I I 0 1 0.5 forward I I I I #
face $-1 $185 $186 $63 $-1 $187 forward single #
loop $-1 $188 $189 $81 #
cone-surface $-1 68.001188559117764 -4.6671436059045881 7.0731925247445417 -0.79863551827123203 0 -0.60181501223851219 0.3009075061192561 0 -0.39931775913561601 1 I I 0 1 0.5 forward I I I I #
face $-1 $190 $191 $64 $-1 $192 reversed single #
loop $-1 $-1 $193 $82 #
plane-surface $-1 98.903555694966684 12.099053167491071 203.32266632613357 0 -1 0 -0.79863551827123203 0 -0.60181501223851219 forward_v I I I I #
face $-1 $194 $195 $65 $-1 $196 forward single #
loop $-1 $197 $198 $83 #
cone-surface $-1 68.001188559117764 6.3787934652551534 7.0731925247445417 -0.79863551827123203 0 -0.60181501223851219 0.3009075061192561 0 -0.39931775913561601 1 I I 0 1 0.5 forward I I I I #
face $-1 $199 $200 $66 $-1 $201 forward single #
loop $-1 $202 $203 $84 #
cone-surface $-1 68.001188559117764 8.523890853593624 7.0731925247445417 -0.79863551827123203 0 -0.60181501223851219 0.3009075061192561 0 -0.39931775913561601 1 I I 0 1 0.5 forward I I I I #
face $-1 $204 $205 $67 $-1 $206 forward single #
loop $-1 $207 $208 $85 #
cone-surface $-1 68.001188559117764 10.668988241932094 7.0731925247445417 -0.79863551827123203 0 -0.60181501223851219 0.3009075061192561 0 -0.39931775913561601 1 I I 0 1 0.5 forward I I I I #
face $-1 $209 $210 $68 $-1 $211 reversed single #
loop $-1 $-1 $212 $86 #
plane-surface $-1 98.903555694966684 27.435185015327754 203.32266632613357 0 -1 0 -0.79863551827123203 0 -0.60181501223851219 forward_v I I I I #
face $-1 $213 $214 $69 $-1 $215 forward single #
loop $-1 $216 $217 $87 #
cone-surface $-1 68.001188559117764 21.714925313091836 7.0731925247445417 -0.79863551827123203 0 -0.60181501223851219 0.3009075061192561 0 -0.39931775913561601 1 I I 0 1 0.5 forward I I I I #
face $-1 $218 $219 $70 $-1 $220 forward single #
loop $-1 $221 $222 $88 #
cone-surface $-1 68.001188559117764 23.860022701430307 7.0731925247445417 -0.79863551827123203 0 -0.60181501223851219 0.3009075061192561 0 -0.39931775913561601 1 I I 0 1 0.5 forward I I I I #
face $-1 $223 $224 $71 $-1 $225 forward single #
loop $-1 $226 $227 $89 #
cone-surface $-1 68.001188559117764 26.005120089768777 7.0731925247445417 -0.79863551827123203 0 -0.60181501223851219 0.3009075061192561 0 -0.39931775913561601 1 I I 0 1 0.5 forward I I I I #
face $-1 $228 $229 $54 $-1 $230 reversed single #
loop $-1 $-1 $231 $90 #
plane-surface $-1 0 0 -10.620576698041946 0 0 1 1 0 0 forward_v I I I I #
coedge $-1 $232 $233 $234 $235 forward $91 $-1 #
face $-1 $236 $237 $55 $-1 $238 reversed single #
loop $-1 $-1 $239 $93 #
plane-surface $-1 -62.276734767372936 0 7.5319002391457683 -1 0 0 0 0 1 forward_v I I I I #
coedge $-1 $240 $241 $242 $243 forward $94 $-1 #
face $-1 $244 $245 $56 $-1 $246 reversed single #
loop $-1 $-1 $247 $96 #
plane-surface $-1 -14.451163027401734 -22.148372842079741 117.90376136324797 0.79863551827123203 0 0.60181501223851219 0.60181501223851219 0 -0.79863551827123203 forward_v I I I I #
coedge $-1 $248 $249 $250 $251 reversed $97 $-1 #
face $-1 $-1 $252 $57 $-1 $253 forward single #
loop $-1 $254 $255 $99 #
cone-surface $-1 67.122590777698605 -24.293470230418208 6.4111216269687059 -0.79863551827123203 0 -0.60181501223851219 0.15045375305962805 0 -0.19965887956780801 1 I I -0.70710678118654746 0.70710678118654746 0.25 forward I I I I #
loop $-1 $-1 $256 $75 #
coedge $-1 $160 $160 $257 $258 reversed $100 $-1 #
face $-1 $-1 $259 $58 $-1 $260 forward single #
loop $-1 $261 $262 $102 #
cone-surface $-1 67.122590777698605 -22.148372842079741 6.4111216269687059 -0.79863551827123203 0 -0.60181501223851219 0.15045375305962805 0 -0.19965887956780801 1 I I -0.70710678118654746 0.70710678118654746 0.25 forward I I I I #
loop $-1 $-1 $263 $76 #
coedge $-1 $165 $165 $264 $265 reversed $103 $-1 #
face $-1 $-1 $266 $59 $-1 $267 forward single #
loop $-1 $268 $269 $105 #
cone-surface $-1 67.122590777698605 -20.003275453741274 6.4111216269687059 -0.79863551827123203 0 -0.60181501223851219 0.15045375305962805 0 -0.19965887956780801 1 I I -0.70710678118654746 0.70710678118654746 0.25 forward I I I I #
loop $-1 $-1 $270 $77 #
coedge $-1 $170 $170 $271 $272 reversed $106 $-1 #
face $-1 $273 $274 $60 $-1 $275 reversed single #
loop $-1 $-1 $276 $108 #
plane-surface $-1 -14.451163027401734 -6.8122409942430586 117.90376136324797 0.79863551827123203 0 0.60181501223851219 0.60181501223851219 0 -0.79863551827123203 forward_v I I I I #
coedge $-1 $277 $278 $279 $280 reversed $109 $-1 #
face $-1 $-1 $281 $61 $-1 $282 forward single #
loop $-1 $283 $284 $111 #
cone-surface $-1 67.122590777698605 -8.9573383825815291 6.4111216269687059 -0.79863551827123203 0 -0.60181501223851219 0.15045375305962805 0 -0.19965887956780801 1 I I -0.70710678118654746 0.70710678118654746 0.25 forward I I I I #
loop $-1 $-1 $285 $79 #
coedge $-1 $179 $179 $286 $287 reversed $112 $-1 #
face $-1 $-1 $288 $62 $-1 $289 forward single #
loop $-1 $290 $291 $114 #
cone-surface $-1 67.122590777698605 -6.8122409942430586 6.4111216269687059 -0.79863551827123203 0 -0.60181501223851219 0.15045375305962805 0 -0.19965887956780801 1 I I -0.70710678118654746 0.70710678118654746 0.25 forward I I I I #
loop $-1 $-1 $292 $80 #
coedge $-1 $184 $184 $293 $294 reversed $115 $-1 #
face $-1 $-1 $295 $63 $-1 $296 forward single #
loop $-1 $297 $298 $117 #
cone-surface $-1 67.122590777698605 -4.6671436059045881 6.4111216269687059 -0.79863551827123203 0 -0.60181501223851219 0.15045375305962805 0 -0.19965887956780801 1 I I -0.70710678118654746 0.70710678118654746 0.25 forward I I I I #
loop $-1 $-1 $299 $81 #
coedge $-1 $189 $189 $300 $301 reversed $118 $-1 #
face $-1 $302 $303 $64 $-1 $304 reversed single #
loop $-1 $-1 $305 $120 #
plane-surface $-1 -14.451163027401734 8.523890853593624 117.90376136324797 0.79863551827123203 0 0.60181501223851219 0.60181501223851219 0 -0.79863551827123203 forward_v I I I I #
coedge $-1 $306 $307 $308 $309 reversed $121 $-1 #
face $-1 $-1 $310 $65 $-1 $311 forward single #
loop $-1 $312 $313 $123 #
cone-surface $-1 67.122590777698605 6.3787934652551534 6.4111216269687059 -0.79863551827123203 0 -0.60181501223851219 0.15045375305962805 0 -0.19965887956780801 1 I I -0.70710678118654746 0.70710678118654746 0.25 forward I I I I #
loop $-1 $-1 $314 $83 #
coedge $-1 $198 $198 $315 $316 reversed $124 $-1 #
face $-1 $-1 $317 $66 $-1 $318 forward single #
loop $-1 $319 $320 $126 #
cone-surface $-1 67.122590777698605 8.523890853593624 6.4111216269687059 -0.79863551827123203 0 -0.60181501223851219 0.15045375305962805 0 -0.19965887956780801 1 I I -0.70710678118654746 0.70710678118654746 0.25 forward I I I I #
loop $-1 $-1 $321 $84 #
coedge $-1 $203 $203 $322 $323 reversed $127 $-1 #
face $-1 $-1 $324 $67 $-1 $325 forward single #
loop $-1 $326 $327 $129 #
cone-surface $-1 67.122590777698605 10.668988241932094 6.4111216269687059 -0.79863551827123203 0 -0.60181501223851219 0.15045375305962805 0 -0.19965887956780801 1 I I -0.70710678118654746 0.70710678118654746 0.25 forward I I I I #
loop $-1 $-1 $328 $85 #
coedge $-1 $208 $208 $329 $330 reversed $130 $-1 #
face $-1 $331 $332 $68 $-1 $333 reversed single #
loop $-1 $-1 $334 $132 #
plane-surface $-1 -14.451163027401734 23.860022701430307 117.90376136324797 0.79863551827123203 0 0.60181501223851219 0.60181501223851219 0 -0.79863551827123203 forward_v I I I I #
coedge $-1 $335 $336 $337 $338 reversed $133 $-1 #
face $-1 $-1 $339 $69 $-1 $340 forward single #
loop $-1 $341 $342 $135 #
cone-surface $-1 67.122590777698605 21.714925313091836 6.4111216269687059 -0.79863551827123203 0 -0.60181501223851219 0.15045375305962805 0 -0.19965887956780801 1 I I -0.70710678118654746 0.70710678118654746 0.25 forward I I I I #
loop $-1 $-1 $343 $87 #
coedge $-1 $217 $217 $344 $345 reversed $136 $-1 #
face $-1 $-1 $346 $70 $-1 $347 forward single #
loop $-1 $348 $349 $138 #
cone-surface $-1 67.122590777698605 23.860022701430307 6.4111216269687059 -0.79863551827123203 0 -0.60181501223851219 0.15045375305962805 0 -0.19965887956780801 1 I I -0.70710678118654746 0.70710678118654746 0.25 forward I I I I #
loop $-1 $-1 $350 $88 #
coedge $-1 $222 $222 $351 $352 reversed $139 $-1 #
face $-1 $-1 $353 $71 $-1 $354 forward single #
loop $-1 $355 $356 $141 #
cone-surface $-1 67.122590777698605 26.005120089768777 6.4111216269687059 -0.79863551827123203 0 -0.60181501223851219 0.15045375305962805 0 -0.19965887956780801 1 I I -0.70710678118654746 0.70710678118654746 0.25 forward I I I I #
loop $-1 $-1 $357 $89 #
coedge $-1 $227 $227 $358 $359 reversed $142 $-1 #
face $-1 $360 $361 $54 $-1 $362 reversed single #
loop $-1 $-1 $363 $144 #
plane-surface $-1 0 -30.672263695673362 0 0 1 0 0 0 1 forward_v I I I I #
coedge $-1 $364 $365 $366 $367 forward $145 $-1 #
coedge $-1 $368 $147 $369 $370 forward $91 $-1 #
coedge $-1 $147 $368 $371 $372 forward $91 $-1 #
coedge $-1 $373 $374 $147 $235 reversed $375 $-1 #
edge $-1 $376 -30.672263695673362 $377 30.672263695673362 $234 $378 forward 7 unknown #
face $-1 $379 $380 $55 $-1 $381 reversed single #
loop $-1 $-1 $382 $148 #
plane-surface $-1 0 30.672263695673362 0 0 -1 0 0 0 -1 forward_v I I I I #
coedge $-1 $242 $383 $384 $385 reversed $149 $-1 #
coedge $-1 $386 $151 $387 $388 reversed $94 $-1 #
coedge $-1 $151 $386 $389 $390 reversed $94 $-1 #
coedge $-1 $391 $239 $151 $243 reversed $149 $-1 #
edge $-1 $392 -30.672263695673362 $393 30.672263695673362 $242 $394 forward 7 unknown #
face $-1 $395 $396 $56 $-1 $397 forward single #
loop $-1 $-1 $398 $152 #
plane-surface $-1 98.903555694966684 -25.723535155977189 203.32266632613357 0 1 0 0.79863551827123203 0 0.60181501223851219 forward_v I I I I #
coedge $-1 $399 $400 $401 $402 reversed $153 $-1 #
coedge $-1 $249 $155 $403 $404 reversed $97 $-1 #
coedge $-1 $155 $248 $399 $405 reversed $97 $-1 #
coedge $-1 $401 $406 $155 $251 forward $396 $-1 #
edge $-1 $407 -21.51596408800053 $408 -16.940735138971007 $250 $409 forward 7 unknown #
loop $-1 $-1 $257 $156 #
plane-surface $-1 -14.451163027401734 -22.148372842079741 117.90376136324797 0.79863551827123203 0 0.60181501223851219 0.60181501223851219 0 -0.79863551827123203 forward_v I I I I #
loop $-1 $-1 $410 $99 #
coedge $-1 $255 $255 $256 $411 reversed $157 $-1 #
coedge $-1 $256 $256 $255 $411 forward $159 $-1 #
coedge $-1 $257 $257 $160 $258 forward $252 $-1 #
edge $-1 $412 0 $412 6.2831853071796004 $257 $413 forward 7 unknown #
loop $-1 $-1 $264 $161 #
plane-surface $-1 -14.451163027401734 -22.148372842079741 117.90376136324797 0.79863551827123203 0 0.60181501223851219 0.60181501223851219 0 -0.79863551827123203 forward_v I I I I #
loop $-1 $-1 $414 $102 #
coedge $-1 $262 $262 $263 $415 reversed $162 $-1 #
coedge $-1 $263 $263 $262 $415 forward $164 $-1 #
coedge $-1 $264 $264 $165 $265 forward $259 $-1 #
edge $-1 $416 0 $416 6.2831853071796004 $264 $417 forward 7 unknown #
loop $-1 $-1 $271 $166 #
plane-surface $-1 -14.451163027401734 -22.148372842079741 117.90376136324797 0.79863551827123203 0 0.60181501223851219 0.60181501223851219 0 -0.79863551827123203 forward_v I I I I #
loop $-1 $-1 $418 $105 #
coedge $-1 $269 $269 $270 $419 reversed $167 $-1 #
coedge $-1 $270 $270 $269 $419 forward $169 $-1 #
coedge $-1 $271 $271 $170 $272 forward $266 $-1 #
edge $-1 $420 0 $420 6.2831853071796004 $271 $421 forward 7 unknown #
face $-1 $422 $423 $60 $-1 $424 reversed single #
loop $-1 $-1 $425 $171 #
plane-surface $-1 98.903555694966684 -10.387403308140506 203.32266632613357 0 1 0 0.79863551827123203 0 0.60181501223851219 forward_v I I I I #
coedge $-1 $426 $427 $428 $429 reversed $172 $-1 #
coedge $-1 $278 $174 $430 $431 reversed $109 $-1 #
coedge $-1 $174 $277 $426 $432 reversed $109 $-1 #
coedge $-1 $428 $433 $174 $280 forward $434 $-1 #
edge $-1 $435 -21.51596408800053 $436 -16.940735138971007 $279 $437 forward 7 unknown #
loop $-1 $-1 $286 $175 #
plane-surface $-1 -14.451163027401734 -6.8122409942430586 117.90376136324797 0.79863551827123203 0 0.60181501223851219 0.60181501223851219 0 -0.79863551827123203 forward_v I I I I #
loop $-1 $-1 $438 $111 #
coedge $-1 $284 $284 $285 $439 reversed $176 $-1 #
coedge $-1 $285 $285 $284 $439 forward $178 $-1 #
coedge $-1 $286 $286 $179 $287 forward $281 $-1 #
edge $-1 $440 0 $440 6.2831853071796004 $286 $441 forward 7 unknown #
loop $-1 $-1 $293 $180 #
plane-surface $-1 -14.451163027401734 -6.8122409942430586 117.90376136324797 0.79863551827123203 0 0.60181501223851219 0.60181501223851219 0 -0.79863551827123203 forward_v I I I I #
loop $-1 $-1 $442 $114 #
coedge $-1 $291 $291 $292 $443 reversed $181 $-1 #
coedge $-1 $292 $292 $291 $443 forward $183 $-1 #
coedge $-1 $293 $293 $184 $294 forward $288 $-1 #
edge $-1 $444 0 $444 6.2831853071796004 $293 $445 forward 7 unknown #
loop $-1 $-1 $300 $185 #
plane-surface $-1 -14.451163027401734 -6.8122409942430586 117.90376136324797 0.79863551827123203 0 0.60181501223851219 0.60181501223851219 0 -0.79863551827123203 forward_v I I I I #
loop $-1 $-1 $446 $117 #
coedge $-1 $298 $298 $299 $447 reversed $186 $-1 #
coedge $-1 $299 $299 $298 $447 forward $188 $-1 #
coedge $-1 $300 $300 $189 $301 forward $295 $-1 #
edge $-1 $448 0 $448 6.2831853071796004 $300 $449 forward 7 unknown #
face $-1 $450 $451 $64 $-1 $452 reversed single #
loop $-1 $-1 $453 $190 #
plane-surface $-1 98.903555694966684 4.9487285396961767 203.32266632613357 0 1 0 0.79863551827123203 0 0.60181501223851219 forward_v I I I I #
coedge $-1 $454 $455 $456 $457 reversed $191 $-1 #
coedge $-1 $307 $193 $458 $459 reversed $121 $-1 #
coedge $-1 $193 $306 $454 $460 reversed $121 $-1 #
coedge $-1 $456 $461 $193 $309 forward $462 $-1 #
edge $-1 $463 -21.51596408800053 $464 -16.940735138971007 $308 $465 forward 7 unknown #
loop $-1 $-1 $315 $194 #
plane-surface $-1 -14.451163027401734 8.523890853593624 117.90376136324797 0.79863551827123203 0 0.60181501223851219 0.60181501223851219 0 -0.79863551827123203 forward_v I I I I #
loop $-1 $-1 $466 $123 #
coedge $-1 $313 $313 $314 $467 reversed $195 $-1 #
coedge $-1 $314 $314 $313 $467 forward $197 $-1 #
coedge $-1 $315 $315 $198 $316 forward $310 $-1 #
edge $-1 $468 0 $468 6.2831853071796004 $315 $469 forward 7 unknown #
loop $-1 $-1 $322 $199 #
plane-surface $-1 -14.451163027401734 8.523890853593624 117.90376136324797 0.79863551827123203 0 0.60181501223851219 0.60181501223851219 0 -0.79863551827123203 forward_v I I I I #
loop $-1 $-1 $470 $126 #
coedge $-1 $320 $320 $321 $471 reversed $200 $-1 #
coedge $-1 $321 $321 $320 $471 forward $202 $-1 #
coedge $-1 $322 $322 $203 $323 forward $317 $-1 #
edge $-1 $472 0 $472 6.2831853071796004 $322 $473 forward 7 unknown #
loop $-1 $-1 $329 $204 #
plane-surface $-1 -14.451163027401734 8.523890853593624 117.90376136324797 0.79863551827123203 0 0.60181501223851219 0.60181501223851219 0 -0.79863551827123203 forward_v I I I I #
loop $-1 $-1 $474 $129 #
coedge $-1 $327 $327 $328 $475 reversed $205 $-1 #
coedge $-1 $328 $328 $327 $475 forward $207 $-1 #
coedge $-1 $329 $329 $208 $330 forward $324 $-1 #
edge $-1 $476 0 $476 6.2831853071796004 $329 $477 forward 7 unknown #
face $-1 $478 $479 $68 $-1 $480 reversed single #
loop $-1 $-1 $481 $209 #
plane-surface $-1 98.903555694966684 20.284860387532859 203.32266632613357 0 1 0 0.79863551827123203 0 0.60181501223851219 forward_v I I I I #
coedge $-1 $482 $483 $484 $485 reversed $210 $-1 #
coedge $-1 $336 $212 $486 $487 reversed $133 $-1 #
coedge $-1 $212 $335 $482 $488 reversed $133 $-1 #
coedge $-1 $484 $489 $212 $338 forward $490 $-1 #
edge $-1 $491 -21.51596408800053 $492 -16.940735138971007 $337 $493 forward 7 unknown #
loop $-1 $-1 $344 $213 #
plane-surface $-1 -14.451163027401734 23.860022701430307 117.90376136324797 0.79863551827123203 0 0.60181501223851219 0.60181501223851219 0 -0.79863551827123203 forward_v I I I I #
loop $-1 $-1 $494 $135 #
coedge $-1 $342 $342 $343 $495 reversed $214 $-1 #
coedge $-1 $343 $343 $342 $495 forward $216 $-1 #
coedge $-1 $344 $344 $217 $345 forward $339 $-1 #
edge $-1 $496 0 $496 6.2831853071796004 $344 $497 forward 7 unknown #
loop $-1 $-1 $351 $218 #
plane-surface $-1 -14.451163027401734 23.860022701430307 117.90376136324797 0.79863551827123203 0 0.60181501223851219 0.60181501223851219 0 -0.79863551827123203 forward_v I I I I #
loop $-1 $-1 $498 $138 #
coedge $-1 $349 $349 $350 $499 reversed $219 $-1 #
coedge $-1 $350 $350 $349 $499 forward $221 $-1 #
coedge $-1 $351 $351 $222 $352 forward $346 $-1 #
edge $-1 $500 0 $500 6.2831853071796004 $351 $501 forward 7 unknown #
loop $-1 $-1 $358 $223 #
plane-surface $-1 -14.451163027401734 23.860022701430307 117.90376136324797 0.79863551827123203 0 0.60181501223851219 0.60181501223851219 0 -0.79863551827123203 forward_v I I I I #
loop $-1 $-1 $502 $141 #
coedge $-1 $356 $356 $357 $503 reversed $224 $-1 #
coedge $-1 $357 $357 $356 $503 forward $226 $-1 #
coedge $-1 $358 $358 $227 $359 forward $353 $-1 #
edge $-1 $504 0 $504 6.2831853071796004 $358 $505 forward 7 unknown #
face $-1 $506 $507 $54 $-1 $508 reversed single #
loop $-1 $-1 $509 $228 #
plane-surface $-1 -70.967741935483872 0 0 1 0 0 0 0 -1 forward_v I I I I #
coedge $-1 $510 $371 $511 $512 forward $229 $-1 #
coedge $-1 $513 $231 $510 $514 forward $145 $-1 #
coedge $-1 $231 $513 $515 $516 forward $145 $-1 #
coedge $-1 $374 $373 $231 $367 reversed $375 $-1 #
edge $-1 $517 -30.672263695673362 $518 30.672263695673362 $366 $519 forward 7 unknown #
coedge $-1 $233 $232 $520 $521 forward $91 $-1 #
coedge $-1 $522 $523 $232 $370 reversed $507 $-1 #
edge $-1 $377 -70.967741935483872 $524 70.967741935483872 $369 $525 forward 7 unknown #
coedge $-1 $363 $526 $233 $372 reversed $229 $-1 #
edge $-1 $527 -70.967741935483872 $376 70.967741935483872 $371 $528 forward 7 unknown #
coedge $-1 $366 $234 $526 $529 forward $375 $-1 #
coedge $-1 $234 $366 $522 $530 reversed $375 $-1 #
loop $-1 $-1 $373 $506 #
vertex $-1 $235 $531 #
vertex $-1 $235 $532 #
straight-curve $-1 70.967741935483872 0 10.620576698041946 0 1 0 I I #
face $-1 $533 $534 $55 $-1 $535 forward single #
loop $-1 $-1 $536 $236 #
plane-surface $-1 -70.967741935483872 0 0 1 0 0 0 0 -1 forward_v I I I I #
coedge $-1 $389 $537 $391 $538 forward $237 $-1 #
coedge $-1 $239 $391 $539 $540 reversed $149 $-1 #
coedge $-1 $541 $387 $239 $385 forward $542 $-1 #
edge $-1 $393 0.67727366067670491 $543 6.8546265784690634 $384 $544 forward 7 unknown #
coedge $-1 $241 $240 $536 $545 reversed $94 $-1 #
coedge $-1 $384 $546 $240 $388 forward $542 $-1 #
edge $-1 $547 -37.656622759769668 $393 -28.965615591658732 $387 $548 forward 7 unknown #
coedge $-1 $549 $382 $241 $390 forward $237 $-1 #
edge $-1 $392 28.965615591658732 $550 37.656622759769668 $389 $551 forward 7 unknown #
coedge $-1 $383 $242 $382 $538 reversed $149 $-1 #
vertex $-1 $390 $552 #
vertex $-1 $388 $553 #
straight-curve $-1 -62.276734767372936 0 4.4432237802495891 0 -1 0 I I #
face $-1 $-1 $554 $56 $-1 $555 reversed single #
loop $-1 $-1 $250 $244 #
plane-surface $-1 0 0 10.620576698041946 0 0 1 1 0 0 forward_v I I I I #
coedge $-1 $556 $557 $558 $559 reversed $245 $-1 #
coedge $-1 $560 $247 $249 $405 forward $153 $-1 #
coedge $-1 $247 $560 $556 $561 forward $153 $-1 #
coedge $-1 $558 $250 $247 $402 forward $396 $-1 #
edge $-1 $408 7.4990241071424233 $562 14.649348734937318 $401 $563 forward 7 unknown #
coedge $-1 $564 $565 $248 $404 forward $554 $-1 #
edge $-1 $566 -97.112290522187237 $407 -91.040756465024842 $403 $567 forward 7 unknown #
edge $-1 $408 134.33309965657023 $566 141.93548387096774 $249 $568 forward 7 unknown #
coedge $-1 $250 $558 $564 $569 forward $396 $-1 #
vertex $-1 $404 $570 #
vertex $-1 $251 $571 #
straight-curve $-1 49.451777847483342 -18.573210528182294 10.620576698041944 -1 0 0 I I #
coedge $-1 $410 $410 $-1 $572 reversed $254 $-1 #
edge $-1 $573 0 $573 6.2831853071796004 $255 $574 forward 7 unknown #
vertex $-1 $258 $575 #
ellipse-curve $-1 68.680127460969118 -24.293470230418208 7.5848096694607436 0.79863551827123203 0 0.60181501223851219 0.3009075061192561 0 -0.39931775913561601 1 I I #
coedge $-1 $414 $414 $-1 $576 reversed $261 $-1 #
edge $-1 $577 0 $577 6.2831853071796004 $262 $578 forward 7 unknown #
vertex $-1 $265 $579 #
ellipse-curve $-1 68.680127460969118 -22.148372842079741 7.5848096694607436 0.79863551827123203 0 0.60181501223851219 0.3009075061192561 0 -0.39931775913561601 1 I I #
coedge $-1 $418 $418 $-1 $580 reversed $268 $-1 #
edge $-1 $581 0 $581 6.2831853071796004 $269 $582 forward 7 unknown #
vertex $-1 $272 $583 #
ellipse-curve $-1 68.680127460969118 -20.003275453741274 7.5848096694607436 0.79863551827123203 0 0.60181501223851219 0.3009075061192561 0 -0.39931775913561601 1 I I #
face $-1 $-1 $434 $60 $-1 $584 forward single #
loop $-1 $-1 $585 $273 #
plane-surface $-1 70.967741935483872 0 0 -1 0 0 0 0 1 forward_v I I I I #
coedge $-1 $586 $587 $588 $589 reversed $274 $-1 #
coedge $-1 $590 $276 $278 $432 forward $172 $-1 #
coedge $-1 $276 $590 $586 $591 forward $172 $-1 #
coedge $-1 $588 $279 $276 $429 forward $434 $-1 #
edge $-1 $436 -0.16904181677591801 $592 6.9812828110189766 $428 $593 forward 7 unknown #
coedge $-1 $594 $595 $277 $431 forward $423 $-1 #
edge $-1 $596 -97.112290522187237 $435 -91.040756465024842 $430 $597 forward 7 unknown #
edge $-1 $436 134.33309965657023 $596 141.93548387096774 $278 $598 forward 7 unknown #
coedge $-1 $279 $588 $594 $599 forward $434 $-1 #
loop $-1 $-1 $588 $422 #
vertex $-1 $431 $600 #
vertex $-1 $280 $601 #
straight-curve $-1 49.451777847483342 -3.2370786803456113 10.620576698041944 -1 0 0 I I #
coedge $-1 $438 $438 $-1 $602 reversed $283 $-1 #
edge $-1 $603 0 $603 6.2831853071796004 $284 $604 forward 7 unknown #
vertex $-1 $287 $605 #
ellipse-curve $-1 68.680127460969118 -8.9573383825815291 7.5848096694607436 0.79863551827123203 0 0.60181501223851219 0.3009075061192561 0 -0.39931775913561601 1 I I #
coedge $-1 $442 $442 $-1 $606 reversed $290 $-1 #
edge $-1 $607 0 $607 6.2831853071796004 $291 $608 forward 7 unknown #
vertex $-1 $294 $609 #
ellipse-curve $-1 68.680127460969118 -6.8122409942430586 7.5848096694607436 0.79863551827123203 0 0.60181501223851219 0.3009075061192561 0 -0.39931775913561601 1 I I #
coedge $-1 $446 $446 $-1 $610 reversed $297 $-1 #
edge $-1 $611 0 $611 6.2831853071796004 $298 $612 forward 7 unknown #
vertex $-1 $301 $613 #
ellipse-curve $-1 68.680127460969118 -4.6671436059045881 7.5848096694607436 0.79863551827123203 0 0.60181501223851219 0.3009075061192561 0 -0.39931775913561601 1 I I #
face $-1 $-1 $462 $64 $-1 $614 forward single #
loop $-1 $-1 $615 $302 #
plane-surface $-1 70.967741935483872 0 0 -1 0 0 0 0 1 forward_v I I I I #
coedge $-1 $616 $617 $618 $619 reversed $303 $-1 #
coedge $-1 $620 $305 $307 $460 forward $191 $-1 #
coedge $-1 $305 $620 $616 $621 forward $191 $-1 #
coedge $-1 $618 $308 $305 $457 forward $462 $-1 #
edge $-1 $464 -7.8371077406942593 $622 -0.68678311289936467 $456 $623 forward 7 unknown #
coedge $-1 $624 $625 $306 $459 forward $451 $-1 #
edge $-1 $626 -97.112290522187237 $463 -91.040756465024842 $458 $627 forward 7 unknown #
edge $-1 $464 134.33309965657023 $626 141.93548387096774 $307 $628 forward 7 unknown #
coedge $-1 $308 $618 $624 $629 forward $462 $-1 #
loop $-1 $-1 $618 $450 #
vertex $-1 $459 $630 #
vertex $-1 $309 $631 #
straight-curve $-1 49.451777847483342 12.099053167491071 10.620576698041944 -1 0 0 I I #
coedge $-1 $466 $466 $-1 $632 reversed $312 $-1 #
edge $-1 $633 0 $633 6.2831853071796004 $313 $634 forward 7 unknown #
vertex $-1 $316 $635 #
ellipse-curve $-1 68.680127460969118 6.3787934652551534 7.5848096694607436 0.79863551827123203 0 0.60181501223851219 0.3009075061192561 0 -0.39931775913561601 1 I I #
coedge $-1 $470 $470 $-1 $636 reversed $319 $-1 #
edge $-1 $637 0 $637 6.2831853071796004 $320 $638 forward 7 unknown #
vertex $-1 $323 $639 #
ellipse-curve $-1 68.680127460969118 8.523890853593624 7.5848096694607436 0.79863551827123203 0 0.60181501223851219 0.3009075061192561 0 -0.39931775913561601 1 I I #
coedge $-1 $474 $474 $-1 $640 reversed $326 $-1 #
edge $-1 $641 0 $641 6.2831853071796004 $327 $642 forward 7 unknown #
vertex $-1 $330 $643 #
ellipse-curve $-1 68.680127460969118 10.668988241932094 7.5848096694607436 0.79863551827123203 0 0.60181501223851219 0.3009075061192561 0 -0.39931775913561601 1 I I #
face $-1 $-1 $490 $68 $-1 $644 forward single #
loop $-1 $-1 $645 $331 #
plane-surface $-1 70.967741935483872 0 0 -1 0 0 0 0 1 forward_v I I I I #
coedge $-1 $646 $647 $648 $649 reversed $332 $-1 #
coedge $-1 $650 $334 $336 $488 forward $210 $-1 #
coedge $-1 $334 $650 $646 $651 forward $210 $-1 #
coedge $-1 $648 $337 $334 $485 forward $490 $-1 #
edge $-1 $492 -15.505173664612601 $652 -8.354849036817706 $484 $653 forward 7 unknown #
coedge $-1 $654 $655 $335 $487 forward $479 $-1 #
edge $-1 $656 -97.112290522187237 $491 -91.040756465024842 $486 $657 forward 7 unknown #
edge $-1 $492 134.33309965657023 $656 141.93548387096774 $336 $658 forward 7 unknown #
coedge $-1 $337 $648 $654 $659 forward $490 $-1 #
loop $-1 $-1 $648 $478 #
vertex $-1 $487 $660 #
vertex $-1 $338 $661 #
straight-curve $-1 49.451777847483342 27.435185015327754 10.620576698041944 -1 0 0 I I #
coedge $-1 $494 $494 $-1 $662 reversed $341 $-1 #
edge $-1 $663 0 $663 6.2831853071796004 $342 $664 forward 7 unknown #
vertex $-1 $345 $665 #
ellipse-curve $-1 68.680127460969118 21.714925313091836 7.5848096694607436 0.79863551827123203 0 0.60181501223851219 0.3009075061192561 0 -0.39931775913561601 1 I I #
coedge $-1 $498 $498 $-1 $666 reversed $348 $-1 #
edge $-1 $667 0 $667 6.2831853071796004 $349 $668 forward 7 unknown #
vertex $-1 $352 $669 #
ellipse-curve $-1 68.680127460969118 23.860022701430307 7.5848096694607436 0.79863551827123203 0 0.60181501223851219 0.3009075061192561 0 -0.39931775913561601 1 I I #
coedge $-1 $502 $502 $-1 $670 reversed $355 $-1 #
edge $-1 $671 0 $671 6.2831853071796004 $356 $672 forward 7 unknown #
vertex $-1 $359 $673 #
ellipse-curve $-1 68.680127460969118 26.005120089768777 7.5848096694607436 0.79863551827123203 0 0.60181501223851219 0.3009075061192561 0 -0.39931775913561601 1 I I #
face $-1 $-1 $375 $54 $-1 $674 reversed single #
loop $-1 $-1 $522 $360 #
plane-surface $-1 0 30.672263695673362 0 0 -1 0 0 0 -1 forward_v I I I I #
coedge $-1 $675 $520 $523 $676 forward $361 $-1 #
coedge $-1 $526 $363 $364 $514 reversed $229 $-1 #
coedge $-1 $520 $675 $363 $512 reversed $361 $-1 #
edge $-1 $527 -10.620576698041946 $677 10.620576698041946 $511 $678 forward 7 unknown #
coedge $-1 $365 $364 $675 $679 forward $145 $-1 #
edge $-1 $518 -70.967741935483872 $677 70.967741935483872 $510 $680 forward 7 unknown #
coedge $-1 $523 $522 $365 $516 reversed $507 $-1 #
edge $-1 $681 -70.967741935483872 $517 70.967741935483872 $515 $682 forward 7 unknown #
vertex $-1 $367 $683 #
vertex $-1 $529 $684 #
straight-curve $-1 70.967741935483872 0 -10.620576698041946 0 -1 0 I I #
coedge $-1 $509 $511 $368 $521 reversed $361 $-1 #
edge $-1 $524 -30.672263695673362 $527 30.672263695673362 $520 $685 forward 7 unknown #
coedge $-1 $515 $369 $374 $530 forward $507 $-1 #
coedge $-1 $369 $515 $509 $676 reversed $507 $-1 #
vertex $-1 $370 $686 #
straight-curve $-1 0 30.672263695673362 10.620576698041946 -1 0 0 I I #
coedge $-1 $371 $510 $373 $529 reversed $229 $-1 #
vertex $-1 $521 $687 #
straight-curve $-1 0 -30.672263695673362 10.620576698041946 1 0 0 I I #
edge $-1 $376 -10.620576698041946 $518 10.620576698041946 $373 $688 forward 7 unknown #
edge $-1 $377 -10.620576698041946 $517 10.620576698041946 $374 $689 forward 7 unknown #
point $-1 70.967741935483872 -30.672263695673362 10.620576698041946 #
point $-1 70.967741935483872 30.672263695673362 10.620576698041946 #
face $-1 $-1 $542 $55 $-1 $690 reversed single #
loop $-1 $-1 $539 $379 #
plane-surface $-1 0 0 10.620576698041946 0 0 1 1 0 0 forward_v I I I I #
coedge $-1 $691 $692 $386 $545 forward $380 $-1 #
coedge $-1 $382 $549 $693 $694 reversed $237 $-1 #
edge $-1 $695 -6.8546265784690634 $392 -0.67727366067670491 $382 $696 forward 7 unknown #
coedge $-1 $693 $697 $383 $540 forward $534 $-1 #
edge $-1 $543 -30.672263695673362 $695 30.672263695673362 $539 $698 forward 7 unknown #
coedge $-1 $546 $384 $697 $699 reversed $542 $-1 #
loop $-1 $-1 $384 $533 #
vertex $-1 $385 $700 #
straight-curve $-1 -62.276734767372936 -30.672263695673362 3.7659501195728842 0 0 1 I I #
edge $-1 $550 -30.672263695673362 $547 30.672263695673362 $536 $701 forward 7 unknown #
coedge $-1 $387 $541 $691 $702 forward $542 $-1 #
vertex $-1 $545 $703 #
straight-curve $-1 -33.311119175714204 -30.672263695673362 4.4432237802495891 1 0 0 I I #
coedge $-1 $537 $389 $692 $704 reversed $237 $-1 #
vertex $-1 $545 $705 #
straight-curve $-1 -33.311119175714204 30.672263695673362 4.4432237802495891 -1 0 0 I I #
point $-1 -62.276734767372936 30.672263695673362 4.4432237802495891 #
point $-1 -62.276734767372936 -30.672263695673362 4.4432237802495891 #
loop $-1 $-1 $403 $395 #
plane-surface $-1 70.967741935483872 0 0 -1 0 0 0 0 1 forward_v I I I I #
coedge $-1 $557 $398 $400 $561 reversed $245 $-1 #
coedge $-1 $398 $556 $706 $707 reversed $245 $-1 #
coedge $-1 $406 $401 $398 $559 forward $396 $-1 #
edge $-1 $562 16.940735138971007 $708 21.51596408800053 $558 $709 forward 7 unknown #
coedge $-1 $400 $399 $565 $710 reversed $153 $-1 #
edge $-1 $711 -141.93548387096774 $562 -134.33309965657023 $556 $712 forward 7 unknown #
vertex $-1 $402 $713 #
straight-curve $-1 66.392512986454363 -11.074186421039871 10.620576698041944 0 -1 0 I I #
coedge $-1 $706 $403 $406 $569 reversed $554 $-1 #
coedge $-1 $403 $706 $560 $710 forward $554 $-1 #
vertex $-1 $404 $714 #
straight-curve $-1 70.967741935483872 -18.573210528182294 101.66133316306679 0 0 1 I I #
straight-curve $-1 -14.451163027401734 -18.573210528182294 117.90376136324797 0.60181501223851219 0 -0.79863551827123203 I I #
edge $-1 $708 -25.723535155977189 $407 -18.573210528182294 $564 $715 forward 7 unknown #
point $-1 70.967741935483872 -18.573210528182294 10.620576698041946 #
point $-1 66.392512986454349 -18.573210528182294 10.620576698041944 #
edge $-1 $716 1 $716 0 $410 $-1 forward 7 unknown #
vertex $-1 $411 $717 #
ellipse-curve $-1 67.322249657266411 -24.293470230418208 6.5615753800283336 0.79863551827123203 0 0.60181501223851219 0.3009075061192561 0 -0.39931775913561601 1 I I #
point $-1 68.981034967088377 -24.293470230418208 7.1854919103251333 #
edge $-1 $718 1 $718 0 $414 $-1 forward 7 unknown #
vertex $-1 $415 $719 #
ellipse-curve $-1 67.322249657266411 -22.148372842079741 6.5615753800283336 0.79863551827123203 0 0.60181501223851219 0.3009075061192561 0 -0.39931775913561601 1 I I #
point $-1 68.981034967088377 -22.148372842079741 7.1854919103251333 #
edge $-1 $720 1 $720 0 $418 $-1 forward 7 unknown #
vertex $-1 $419 $721 #
ellipse-curve $-1 67.322249657266411 -20.003275453741274 6.5615753800283336 0.79863551827123203 0 0.60181501223851219 0.3009075061192561 0 -0.39931775913561601 1 I I #
point $-1 68.981034967088377 -20.003275453741274 7.1854919103251333 #
plane-surface $-1 0 0 10.620576698041946 0 0 1 1 0 0 forward_v I I I I #
coedge $-1 $595 $594 $587 $722 forward $423 $-1 #
coedge $-1 $587 $425 $427 $591 reversed $274 $-1 #
coedge $-1 $425 $586 $585 $722 reversed $274 $-1 #
coedge $-1 $433 $428 $425 $589 forward $434 $-1 #
edge $-1 $592 16.940735138971007 $723 21.51596408800053 $588 $724 forward 7 unknown #
coedge $-1 $427 $426 $595 $725 reversed $172 $-1 #
edge $-1 $726 -141.93548387096774 $592 -134.33309965657023 $586 $727 forward 7 unknown #
vertex $-1 $429 $728 #
straight-curve $-1 66.392512986454363 -3.4061204971215293 10.620576698041944 0 -1 0 I I #
coedge $-1 $585 $430 $433 $599 reversed $423 $-1 #
coedge $-1 $430 $585 $590 $725 forward $423 $-1 #
vertex $-1 $431 $729 #
straight-curve $-1 70.967741935483872 -3.2370786803456113 101.66133316306679 0 0 1 I I #
straight-curve $-1 -14.451163027401734 -3.2370786803456113 117.90376136324797 0.60181501223851219 0 -0.79863551827123203 I I #
edge $-1 $723 -10.387403308140506 $435 -3.2370786803456113 $594 $730 forward 7 unknown #
point $-1 70.967741935483872 -3.2370786803456113 10.620576698041946 #
point $-1 66.392512986454349 -3.2370786803456113 10.620576698041944 #
edge $-1 $731 1 $731 0 $438 $-1 forward 7 unknown #
vertex $-1 $439 $732 #
ellipse-curve $-1 67.322249657266411 -8.9573383825815291 6.5615753800283336 0.79863551827123203 0 0.60181501223851219 0.3009075061192561 0 -0.39931775913561601 1 I I #
point $-1 68.981034967088377 -8.9573383825815291 7.1854919103251333 #
edge $-1 $733 1 $733 0 $442 $-1 forward 7 unknown #
vertex $-1 $443 $734 #
ellipse-curve $-1 67.322249657266411 -6.8122409942430586 6.5615753800283336 0.79863551827123203 0 0.60181501223851219 0.3009075061192561 0 -0.39931775913561601 1 I I #
point $-1 68.981034967088377 -6.8122409942430586 7.1854919103251333 #
edge $-1 $735 1 $735 0 $446 $-1 forward 7 unknown #
vertex $-1 $447 $736 #
ellipse-curve $-1 67.322249657266411 -4.6671436059045881 6.5615753800283336 0.79863551827123203 0 0.60181501223851219 0.3009075061192561 0 -0.39931775913561601 1 I I #
point $-1 68.981034967088377 -4.6671436059045881 7.1854919103251333 #
plane-surface $-1 0 0 10.620576698041946 0 0 1 1 0 0 forward_v I I I I #
coedge $-1 $625 $624 $617 $737 forward $451 $-1 #
coedge $-1 $617 $453 $455 $621 reversed $303 $-1 #
coedge $-1 $453 $616 $615 $737 reversed $303 $-1 #
coedge $-1 $461 $456 $453 $619 forward $462 $-1 #
edge $-1 $622 16.940735138971007 $738 21.51596408800053 $618 $739 forward 7 unknown #
coedge $-1 $455 $454 $625 $740 reversed $191 $-1 #
edge $-1 $741 -141.93548387096774 $622 -134.33309965657023 $616 $742 forward 7 unknown #
vertex $-1 $457 $743 #
straight-curve $-1 66.392512986454363 4.261945426796812 10.620576698041944 0 -1 0 I I #
coedge $-1 $615 $458 $461 $629 reversed $451 $-1 #
coedge $-1 $458 $615 $620 $740 forward $451 $-1 #
vertex $-1 $459 $744 #
straight-curve $-1 70.967741935483872 12.099053167491071 101.66133316306679 0 0 1 I I #
straight-curve $-1 -14.451163027401734 12.099053167491071 117.90376136324797 0.60181501223851219 0 -0.79863551827123203 I I #
edge $-1 $738 4.9487285396961767 $463 12.099053167491071 $624 $745 forward 7 unknown #
point $-1 70.967741935483872 12.099053167491071 10.620576698041946 #
point $-1 66.392512986454349 12.099053167491071 10.620576698041944 #
edge $-1 $746 1 $746 0 $466 $-1 forward 7 unknown #
vertex $-1 $467 $747 #
ellipse-curve $-1 67.322249657266411 6.3787934652551534 6.5615753800283336 0.79863551827123203 0 0.60181501223851219 0.3009075061192561 0 -0.39931775913561601 1 I I #
point $-1 68.981034967088377 6.3787934652551534 7.1854919103251333 #
edge $-1 $748 1 $748 0 $470 $-1 forward 7 unknown #
vertex $-1 $471 $749 #
ellipse-curve $-1 67.322249657266411 8.523890853593624 6.5615753800283336 0.79863551827123203 0 0.60181501223851219 0.3009075061192561 0 -0.39931775913561601 1 I I #
point $-1 68.981034967088377 8.523890853593624 7.1854919103251333 #
edge $-1 $750 1 $750 0 $474 $-1 forward 7 unknown #
vertex $-1 $475 $751 #
ellipse-curve $-1 67.322249657266411 10.668988241932094 6.5615753800283336 0.79863551827123203 0 0.60181501223851219 0.3009075061192561 0 -0.39931775913561601 1 I I #
point $-1 68.981034967088377 10.668988241932094 7.1854919103251333 #
plane-surface $-1 0 0 10.620576698041946 0 0 1 1 0 0 forward_v I I I I #
coedge $-1 $655 $654 $647 $752 forward $479 $-1 #
coedge $-1 $647 $481 $483 $651 reversed $332 $-1 #
coedge $-1 $481 $646 $645 $752 reversed $332 $-1 #
coedge $-1 $489 $484 $481 $649 forward $490 $-1 #
edge $-1 $652 16.940735138971007 $753 21.51596408800053 $648 $754 forward 7 unknown #
coedge $-1 $483 $482 $655 $755 reversed $210 $-1 #
edge $-1 $756 -141.93548387096774 $652 -134.33309965657023 $646 $757 forward 7 unknown #
vertex $-1 $485 $758 #
straight-curve $-1 66.392512986454363 11.930011350715153 10.620576698041944 0 -1 0 I I #
coedge $-1 $645 $486 $489 $659 reversed $479 $-1 #
coedge $-1 $486 $645 $650 $755 forward $479 $-1 #
vertex $-1 $487 $759 #
straight-curve $-1 70.967741935483872 27.435185015327754 101.66133316306679 0 0 1 I I #
straight-curve $-1 -14.451163027401734 27.435185015327754 117.90376136324797 0.60181501223851219 0 -0.79863551827123203 I I #
edge $-1 $753 20.284860387532859 $491 27.435185015327754 $654 $760 forward 7 unknown #
point $-1 70.967741935483872 27.435185015327754 10.620576698041946 #
point $-1 66.392512986454349 27.435185015327754 10.620576698041944 #
edge $-1 $761 1 $761 0 $494 $-1 forward 7 unknown #
vertex $-1 $495 $762 #
ellipse-curve $-1 67.322249657266411 21.714925313091836 6.5615753800283336 0.79863551827123203 0 0.60181501223851219 0.3009075061192561 0 -0.39931775913561601 1 I I #
point $-1 68.981034967088377 21.714925313091836 7.1854919103251333 #
edge $-1 $763 1 $763 0 $498 $-1 forward 7 unknown #
vertex $-1 $499 $764 #
ellipse-curve $-1 67.322249657266411 23.860022701430307 6.5615753800283336 0.79863551827123203 0 0.60181501223851219 0.3009075061192561 0 -0.39931775913561601 1 I I #
point $-1 68.981034967088377 23.860022701430307 7.1854919103251333 #
edge $-1 $765 1 $765 0 $502 $-1 forward 7 unknown #
vertex $-1 $503 $766 #
ellipse-curve $-1 67.322249657266411 26.005120089768777 6.5615753800283336 0.79863551827123203 0 0.60181501223851219 0.3009075061192561 0 -0.39931775913561601 1 I I #
point $-1 68.981034967088377 26.005120089768777 7.1854919103251333 #
plane-surface $-1 70.967741935483872 0 0 -1 0 0 0 0 1 forward_v I I I I #
coedge $-1 $511 $509 $513 $679 reversed $361 $-1 #
edge $-1 $524 -10.620576698041946 $681 10.620576698041946 $523 $767 forward 7 unknown #
vertex $-1 $679 $768 #
straight-curve $-1 -70.967741935483872 -30.672263695673362 0 0 0 -1 I I #
edge $-1 $677 -30.672263695673362 $681 30.672263695673362 $675 $769 forward 7 unknown #
straight-curve $-1 0 -30.672263695673362 -10.620576698041946 -1 0 0 I I #
vertex $-1 $516 $770 #
straight-curve $-1 0 30.672263695673362 -10.620576698041946 1 0 0 I I #
point $-1 70.967741935483872 30.672263695673362 -10.620576698041946 #
point $-1 70.967741935483872 -30.672263695673362 -10.620576698041946 #
straight-curve $-1 -70.967741935483872 0 10.620576698041946 0 -1 0 I I #
point $-1 -70.967741935483872 30.672263695673362 10.620576698041946 #
point $-1 -70.967741935483872 -30.672263695673362 10.620576698041946 #
straight-curve $-1 70.967741935483872 -30.672263695673362 0 0 0 -1 I I #
straight-curve $-1 70.967741935483872 30.672263695673362 0 0 0 -1 I I #
plane-surface $-1 0 -30.672263695673362 0 0 1 0 0 0 1 forward_v I I I I #
coedge $-1 $771 $536 $546 $702 reversed $380 $-1 #
coedge $-1 $536 $771 $549 $704 forward $380 $-1 #
coedge $-1 $772 $539 $537 $694 forward $534 $-1 #
edge $-1 $695 62.276734767372936 $773 70.967741935483872 $537 $774 forward 7 unknown #
vertex $-1 $694 $775 #
straight-curve $-1 -62.276734767372936 30.672263695673362 3.7659501195728842 0 0 -1 I I #
coedge $-1 $539 $772 $541 $699 forward $534 $-1 #
straight-curve $-1 -62.276734767372936 0 10.620576698041946 0 1 0 I I #
edge $-1 $776 -70.967741935483872 $543 -62.276734767372936 $541 $777 forward 7 unknown #
point $-1 -62.276734767372936 -30.672263695673362 10.620576698041948 #
straight-curve $-1 -70.967741935483872 0 4.4432237802495891 0 -1 0 I I #
edge $-1 $776 -10.620576698041946 $547 -4.4432237802495891 $691 $778 forward 7 unknown #
point $-1 -70.967741935483872 -30.672263695673362 4.4432237802495891 #
edge $-1 $773 -10.620576698041946 $550 -4.4432237802495891 $549 $779 forward 7 unknown #
point $-1 -70.967741935483872 30.672263695673362 4.4432237802495891 #
coedge $-1 $565 $564 $557 $707 forward $554 $-1 #
edge $-1 $708 91.040756465024842 $711 97.112290522187237 $706 $780 forward 7 unknown #
vertex $-1 $569 $781 #
straight-curve $-1 49.451777847483342 -25.723535155977189 10.620576698041944 1 0 0 I I #
edge $-1 $711 -14.649348734937318 $566 -7.4990241071424233 $565 $782 forward 7 unknown #
vertex $-1 $710 $783 #
straight-curve $-1 -14.451163027401734 -25.723535155977189 117.90376136324797 -0.60181501223851219 0 0.79863551827123203 I I #
point $-1 66.392512986454349 -25.723535155977189 10.620576698041944 #
point $-1 70.967741935483872 -18.573210528182294 4.5490426408795486 #
straight-curve $-1 70.967741935483872 0 10.620576698041946 0 1 0 I I #
vertex $-1 $572 $784 #
point $-1 67.62315716338567 -24.293470230418208 6.162257620892718 #
vertex $-1 $576 $785 #
point $-1 67.62315716338567 -22.148372842079741 6.162257620892718 #
vertex $-1 $580 $786 #
point $-1 67.62315716338567 -20.003275453741274 6.162257620892718 #
edge $-1 $723 91.040756465024842 $726 97.112290522187237 $585 $787 forward 7 unknown #
vertex $-1 $599 $788 #
straight-curve $-1 49.451777847483342 -10.387403308140506 10.620576698041944 1 0 0 I I #
edge $-1 $726 -6.9812828110189766 $596 0.16904181677591801 $595 $789 forward 7 unknown #
vertex $-1 $725 $790 #
straight-curve $-1 -14.451163027401734 -10.387403308140506 117.90376136324797 -0.60181501223851219 0 0.79863551827123203 I I #
point $-1 66.392512986454349 -10.387403308140506 10.620576698041944 #
point $-1 70.967741935483872 -3.2370786803456113 4.5490426408795486 #
straight-curve $-1 70.967741935483872 0 10.620576698041946 0 1 0 I I #
vertex $-1 $602 $791 #
point $-1 67.62315716338567 -8.9573383825815291 6.162257620892718 #
vertex $-1 $606 $792 #
point $-1 67.62315716338567 -6.8122409942430586 6.162257620892718 #
vertex $-1 $610 $793 #
point $-1 67.62315716338567 -4.6671436059045881 6.162257620892718 #
edge $-1 $738 91.040756465024842 $741 97.112290522187237 $615 $794 forward 7 unknown #
vertex $-1 $629 $795 #
straight-curve $-1 49.451777847483342 4.9487285396961767 10.620576698041944 1 0 0 I I #
edge $-1 $741 0.68678311289936467 $626 7.8371077406942593 $625 $796 forward 7 unknown #
vertex $-1 $740 $797 #
straight-curve $-1 -14.451163027401734 4.9487285396961767 117.90376136324797 -0.60181501223851219 0 0.79863551827123203 I I #
point $-1 66.392512986454349 4.9487285396961767 10.620576698041944 #
point $-1 70.967741935483872 12.099053167491071 4.5490426408795486 #
straight-curve $-1 70.967741935483872 0 10.620576698041946 0 1 0 I I #
vertex $-1 $632 $798 #
point $-1 67.62315716338567 6.3787934652551534 6.162257620892718 #
vertex $-1 $636 $799 #
point $-1 67.62315716338567 8.523890853593624 6.162257620892718 #
vertex $-1 $640 $800 #
point $-1 67.62315716338567 10.668988241932094 6.162257620892718 #
edge $-1 $753 91.040756465024842 $756 97.112290522187237 $645 $801 forward 7 unknown #
vertex $-1 $659 $802 #
straight-curve $-1 49.451777847483342 20.284860387532859 10.620576698041944 1 0 0 I I #
edge $-1 $756 8.354849036817706 $656 15.505173664612601 $655 $803 forward 7 unknown #
vertex $-1 $755 $804 #
straight-curve $-1 -14.451163027401734 20.284860387532859 117.90376136324797 -0.60181501223851219 0 0.79863551827123203 I I #
point $-1 66.392512986454349 20.284860387532859 10.620576698041944 #
point $-1 70.967741935483872 27.435185015327754 4.5490426408795486 #
straight-curve $-1 70.967741935483872 0 10.620576698041946 0 1 0 I I #
vertex $-1 $662 $805 #
point $-1 67.62315716338567 21.714925313091836 6.162257620892718 #
vertex $-1 $666 $806 #
point $-1 67.62315716338567 23.860022701430307 6.162257620892718 #
vertex $-1 $670 $807 #
point $-1 67.62315716338567 26.005120089768777 6.162257620892718 #
straight-curve $-1 -70.967741935483872 30.672263695673362 0 0 0 -1 I I #
point $-1 -70.967741935483872 -30.672263695673362 -10.620576698041946 #
straight-curve $-1 -70.967741935483872 0 -10.620576698041946 0 1 0 I I #
point $-1 -70.967741935483872 30.672263695673362 -10.620576698041946 #
coedge $-1 $692 $691 $772 $808 reversed $380 $-1 #
coedge $-1 $697 $693 $771 $808 forward $534 $-1 #
vertex $-1 $694 $809 #
straight-curve $-1 0 30.672263695673362 10.620576698041946 -1 0 0 I I #
point $-1 -62.276734767372936 30.672263695673362 10.620576698041948 #
vertex $-1 $808 $810 #
straight-curve $-1 0 -30.672263695673362 10.620576698041946 1 0 0 I I #
straight-curve $-1 -70.967741935483872 -30.672263695673362 0 0 0 -1 I I #
straight-curve $-1 -70.967741935483872 30.672263695673362 0 0 0 -1 I I #
straight-curve $-1 70.967741935483872 -25.723535155977189 101.66133316306679 0 0 -1 I I #
point $-1 70.967741935483872 -25.723535155977189 10.620576698041946 #
straight-curve $-1 70.967741935483872 -11.074186421039871 4.5490426408795344 0 1 0 I I #
point $-1 70.967741935483872 -25.723535155977189 4.5490426408795486 #
point $-1 66.922931898130798 -24.293470230418208 6.2606678739090782 #
point $-1 66.922931898130798 -22.148372842079741 6.2606678739090782 #
point $-1 66.922931898130798 -20.003275453741274 6.2606678739090782 #
straight-curve $-1 70.967741935483872 -10.387403308140506 101.66133316306679 0 0 -1 I I #
point $-1 70.967741935483872 -10.387403308140506 10.620576698041946 #
straight-curve $-1 70.967741935483872 -3.4061204971215293 4.5490426408795344 0 1 0 I I #
point $-1 70.967741935483872 -10.387403308140506 4.5490426408795486 #
point $-1 66.922931898130798 -8.9573383825815291 6.2606678739090782 #
point $-1 66.922931898130798 -6.8122409942430586 6.2606678739090782 #
point $-1 66.922931898130798 -4.6671436059045881 6.2606678739090782 #
straight-curve $-1 70.967741935483872 4.9487285396961767 101.66133316306679 0 0 -1 I I #
point $-1 70.967741935483872 4.9487285396961767 10.620576698041946 #
straight-curve $-1 70.967741935483872 4.261945426796812 4.5490426408795344 0 1 0 I I #
point $-1 70.967741935483872 4.9487285396961767 4.5490426408795486 #
point $-1 66.922931898130798 6.3787934652551534 6.2606678739090782 #
point $-1 66.922931898130798 8.523890853593624 6.2606678739090782 #
point $-1 66.922931898130798 10.668988241932094 6.2606678739090782 #
straight-curve $-1 70.967741935483872 20.284860387532859 101.66133316306679 0 0 -1 I I #
point $-1 70.967741935483872 20.284860387532859 10.620576698041946 #
straight-curve $-1 70.967741935483872 11.930011350715153 4.5490426408795344 0 1 0 I I #
point $-1 70.967741935483872 20.284860387532859 4.5490426408795486 #
point $-1 66.922931898130798 21.714925313091836 6.2606678739090782 #
point $-1 66.922931898130798 23.860022701430307 6.2606678739090782 #
point $-1 66.922931898130798 26.005120089768777 6.2606678739090782 #
edge $-1 $773 -30.672263695673362 $776 30.672263695673362 $771 $811 forward 7 unknown #
point $-1 -70.967741935483872 30.672263695673362 10.620576698041946 #
point $-1 -70.967741935483872 -30.672263695673362 10.620576698041946 #
straight-curve $-1 -70.967741935483872 0 10.620576698041946 0 -1 0 I I #
End-of-ACIS-data 