500 0 6 0           
7 Unknown 11 ACIS 5.0 NT 24 Thu Mar 25 20:33:19 1999 
-1 9.9999999999999995e-007 1e-010 
body $-1 $6 $-1 $7 #
body $-1 $8 $-1 $9 #
body $-1 $10 $-1 $11 #
body $-1 $12 $-1 $13 #
body $-1 $14 $-1 $15 #
body $-1 $16 $-1 $17 #
lump $-1 $-1 $18 $0 #
transform $-1 1 0 0 0 1 0 0 0 1 51.406598101748713 21.503480235652294 5.4242688036068003 1 rotate no_reflect no_shear #
lump $-1 $-1 $19 $1 #
transform $-1 1 0 0 0 1 0 0 0 1 51.406598101748713 21.503480235652294 5.4242688036068003 1 rotate no_reflect no_shear #
lump $-1 $-1 $20 $2 #
transform $-1 1 0 0 0 1 0 0 0 1 51.406598101748713 21.503480235652294 5.4242688036068003 1 rotate no_reflect no_shear #
lump $-1 $-1 $21 $3 #
transform $-1 1 0 0 0 1 0 0 0 1 51.406598101748713 21.503480235652294 5.4242688036068003 1 rotate no_reflect no_shear #
lump $-1 $-1 $22 $4 #
transform $-1 1 0 0 0 1 0 0 0 1 51.406598101748713 21.503480235652294 5.4242688036068003 1 rotate no_reflect no_shear #
lump $-1 $-1 $23 $5 #
transform $-1 1 0 0 0 1 0 0 0 1 51.406598101748713 21.503480235652294 5.4242688036068003 1 rotate no_reflect no_shear #
shell $-1 $-1 $-1 $24 $-1 $6 #
shell $-1 $-1 $-1 $25 $-1 $8 #
shell $-1 $-1 $-1 $26 $-1 $10 #
shell $-1 $-1 $-1 $27 $-1 $12 #
shell $-1 $-1 $-1 $28 $-1 $14 #
shell $-1 $-1 $-1 $29 $-1 $16 #
face $-1 $30 $31 $18 $-1 $32 forward single #
face $-1 $33 $34 $19 $-1 $35 reversed single #
face $-1 $36 $37 $20 $-1 $38 reversed single #
face $-1 $39 $40 $21 $-1 $41 forward single #
face $-1 $42 $43 $22 $-1 $44 reversed single #
face $-1 $45 $46 $23 $-1 $47 forward single #
face $-1 $48 $49 $18 $-1 $50 reversed single #
loop $-1 $-1 $51 $24 #
plane-surface $-1 0 0 5.4242688036068003 0 0 1 1 0 0 forward_v I I I I #
face $-1 $52 $53 $19 $-1 $54 reversed single #
loop $-1 $-1 $55 $25 #
plane-surface $-1 -48.824586887697478 -20.499628155454772 0 0 1 0 0 0 1 forward_v I I I I #
face $-1 $56 $57 $20 $-1 $58 reversed single #
loop $-1 $-1 $59 $26 #
plane-surface $-1 -10.390246575359004 41.43088917161873 110.1620915307121 1 0 0 0 -0.54463904215088732 -0.83867056331134215 forward_v I I I I #
face $-1 $60 $61 $21 $-1 $62 forward single #
loop $-1 $63 $64 $27 #
cone-surface $-1 -3.9041176806538829 16.504873421897738 1.0946133268974538 0 -0.54463904215088732 -0.83867056331134215 2 0 0 1 I I 0 1 2 forward I I I I #
face $-1 $65 $66 $22 $-1 $67 reversed single #
loop $-1 $-1 $68 $28 #
plane-surface $-1 38.434340312338477 41.43088917161873 110.1620915307121 1 0 0 0 -0.54463904215088732 -0.83867056331134215 forward_v I I I I #
face $-1 $69 $70 $23 $-1 $71 forward single #
loop $-1 $72 $73 $29 #
cone-surface $-1 44.920469207043595 16.504873421897738 1.0946133268974538 0 -0.54463904215088732 -0.83867056331134215 2 0 0 1 I I 0 1 2 forward I I I I #
face $-1 $74 $75 $18 $-1 $76 reversed single #
loop $-1 $-1 $77 $30 #
plane-surface $-1 0 0 -5.4242688036068003 0 0 1 1 0 0 forward_v I I I I #
coedge $-1 $78 $79 $80 $81 forward $31 $-1 #
face $-1 $82 $83 $19 $-1 $84 reversed single #
loop $-1 $-1 $85 $33 #
plane-surface $-1 -48.824586887697478 -17.499628155454772 0 0 -1 0 0 0 -1 forward_v I I I I #
coedge $-1 $86 $87 $88 $89 reversed $34 $-1 #
face $-1 $90 $91 $20 $-1 $92 reversed single #
loop $-1 $-1 $93 $36 #
plane-surface $-1 -3.9041176806538829 -14.56519152912535 23.935690354885367 0 0.54463904215088732 0.83867056331134215 1 0 0 forward_v I I I I #
coedge $-1 $94 $95 $96 $97 reversed $37 $-1 #
face $-1 $-1 $98 $21 $-1 $99 forward single #
loop $-1 $100 $101 $39 #
cone-surface $-1 -3.9041176806538829 14.743418975262461 -1.6177886103063237 0 -0.54463904215088732 -0.83867056331134215 1 0 0 1 I I -0.70710678118654746 0.70710678118654746 1 forward I I I I #
loop $-1 $-1 $102 $27 #
coedge $-1 $64 $64 $103 $104 reversed $40 $-1 #
face $-1 $105 $106 $22 $-1 $107 forward single #
loop $-1 $-1 $108 $42 #
plane-surface $-1 44.920469207043595 -14.56519152912535 23.935690354885367 0 0.54463904215088732 0.83867056331134215 1 0 0 forward_v I I I I #
coedge $-1 $109 $110 $111 $112 reversed $43 $-1 #
face $-1 $-1 $113 $23 $-1 $114 forward single #
loop $-1 $115 $116 $45 #
cone-surface $-1 44.920469207043595 14.743418975262461 -1.6177886103063237 0 -0.54463904215088732 -0.83867056331134215 1 0 0 1 I I -0.70710678118654746 0.70710678118654746 1 forward I I I I #
loop $-1 $-1 $117 $29 #
coedge $-1 $73 $73 $118 $119 reversed $46 $-1 #
face $-1 $120 $121 $18 $-1 $122 reversed single #
loop $-1 $-1 $123 $48 #
plane-surface $-1 0 -21.503480235652294 0 0 1 0 0 0 1 forward_v I I I I #
coedge $-1 $124 $125 $126 $127 forward $49 $-1 #
coedge $-1 $128 $51 $129 $130 forward $31 $-1 #
coedge $-1 $51 $128 $131 $132 forward $31 $-1 #
coedge $-1 $133 $134 $51 $81 reversed $135 $-1 #
edge $-1 $136 -21.503480235652294 $137 21.503480235652294 $80 $138 forward 7 unknown #
face $-1 $139 $140 $19 $-1 $141 reversed single #
loop $-1 $-1 $142 $52 #
plane-surface $-1 -46.242575673646243 -18.999628155454772 0 -1 0 0 0 0 1 forward_v I I I I #
coedge $-1 $143 $144 $145 $146 forward $53 $-1 #
coedge $-1 $147 $55 $148 $149 reversed $34 $-1 #
coedge $-1 $55 $147 $150 $151 reversed $34 $-1 #
coedge $-1 $152 $153 $55 $89 forward $154 $-1 #
edge $-1 $155 -5.4242688036068003 $156 5.4242688036068003 $88 $157 forward 7 unknown #
face $-1 $158 $159 $20 $-1 $160 reversed single #
loop $-1 $-1 $161 $56 #
plane-surface $-1 2.5820112140512386 41.43088917161873 110.1620915307121 -1 0 0 0 0.54463904215088732 0.83867056331134215 forward_v I I I I #
coedge $-1 $162 $163 $164 $165 reversed $57 $-1 #
coedge $-1 $95 $59 $166 $167 reversed $37 $-1 #
coedge $-1 $59 $94 $162 $168 reversed $37 $-1 #
coedge $-1 $164 $169 $59 $97 forward $170 $-1 #
edge $-1 $171 -0.78803564984292862 $172 6.7755471686974431 $96 $173 forward 7 unknown #
loop $-1 $-1 $103 $60 #
plane-surface $-1 -3.9041176806538829 -14.56519152912535 23.935690354885367 0 0.54463904215088732 0.83867056331134215 1 0 0 forward_v I I I I #
loop $-1 $-1 $174 $39 #
coedge $-1 $101 $101 $102 $175 reversed $61 $-1 #
coedge $-1 $102 $102 $101 $175 forward $63 $-1 #
coedge $-1 $103 $103 $64 $104 forward $98 $-1 #
edge $-1 $176 -1.1322050897152755e-015 $176 6.2831853071795996 $103 $177 forward 7 unknown #
face $-1 $178 $179 $22 $-1 $180 reversed single #
loop $-1 $-1 $111 $65 #
plane-surface $-1 0 0 5.4242688036068003 0 0 1 1 0 0 forward_v I I I I #
coedge $-1 $181 $182 $183 $184 reversed $66 $-1 #
coedge $-1 $110 $68 $185 $186 reversed $43 $-1 #
coedge $-1 $68 $109 $181 $187 reversed $43 $-1 #
coedge $-1 $183 $188 $68 $112 forward $106 $-1 #
edge $-1 $189 -0.78803564984292862 $190 6.7755471686974431 $111 $191 forward 7 unknown #
loop $-1 $-1 $118 $69 #
plane-surface $-1 44.920469207043595 -14.56519152912535 23.935690354885367 0 0.54463904215088732 0.83867056331134215 1 0 0 forward_v I I I I #
loop $-1 $-1 $192 $45 #
coedge $-1 $116 $116 $117 $193 reversed $70 $-1 #
coedge $-1 $117 $117 $116 $193 forward $72 $-1 #
coedge $-1 $118 $118 $73 $119 forward $113 $-1 #
edge $-1 $194 -1.1322050897152755e-015 $194 6.2831853071795996 $118 $195 forward 7 unknown #
face $-1 $196 $197 $18 $-1 $198 reversed single #
loop $-1 $-1 $199 $74 #
plane-surface $-1 -51.406598101748713 0 0 1 0 0 0 0 -1 forward_v I I I I #
coedge $-1 $200 $131 $201 $202 forward $75 $-1 #
coedge $-1 $203 $77 $200 $204 forward $49 $-1 #
coedge $-1 $77 $203 $205 $206 forward $49 $-1 #
coedge $-1 $134 $133 $77 $127 reversed $135 $-1 #
edge $-1 $207 -21.503480235652294 $208 21.503480235652294 $126 $209 forward 7 unknown #
coedge $-1 $79 $78 $210 $211 forward $31 $-1 #
coedge $-1 $212 $213 $78 $130 reversed $197 $-1 #
edge $-1 $137 -51.406598101748713 $214 51.406598101748713 $129 $215 forward 7 unknown #
coedge $-1 $123 $216 $79 $132 reversed $75 $-1 #
edge $-1 $217 -51.406598101748713 $136 51.406598101748713 $131 $218 forward 7 unknown #
coedge $-1 $126 $80 $216 $219 forward $135 $-1 #
coedge $-1 $80 $126 $212 $220 reversed $135 $-1 #
loop $-1 $-1 $133 $196 #
vertex $-1 $81 $221 #
vertex $-1 $81 $222 #
straight-curve $-1 51.406598101748713 0 5.4242688036068003 0 1 0 I I #
face $-1 $223 $224 $19 $-1 $225 forward single #
loop $-1 $-1 $226 $82 #
plane-surface $-1 0 0 -5.4242688036068003 0 0 1 1 0 0 forward_v I I I I #
coedge $-1 $227 $228 $147 $229 forward $83 $-1 #
coedge $-1 $230 $85 $226 $231 reversed $53 $-1 #
coedge $-1 $85 $230 $232 $233 reversed $53 $-1 #
coedge $-1 $228 $227 $85 $146 reversed $83 $-1 #
edge $-1 $234 -5.4242688036068003 $235 5.4242688036068003 $145 $236 forward 7 unknown #
coedge $-1 $87 $86 $142 $229 reversed $34 $-1 #
coedge $-1 $237 $238 $86 $149 forward $140 $-1 #
edge $-1 $239 21.830282229797504 $155 26.994304657899974 $148 $240 forward 7 unknown #
coedge $-1 $241 $242 $87 $151 forward $224 $-1 #
edge $-1 $156 -26.994304657899974 $243 -21.830282229797504 $150 $244 forward 7 unknown #
coedge $-1 $245 $88 $242 $246 reversed $154 $-1 #
coedge $-1 $88 $245 $237 $247 reversed $154 $-1 #
loop $-1 $-1 $245 $223 #
vertex $-1 $247 $248 #
vertex $-1 $89 $249 #
straight-curve $-1 -51.406598101748713 -20.499628155454772 0 0 0 1 I I #
face $-1 $-1 $170 $20 $-1 $250 forward single #
loop $-1 $-1 $251 $90 #
plane-surface $-1 0 21.503480235652294 0 0 -1 0 0 0 -1 forward_v I I I I #
coedge $-1 $252 $253 $254 $255 reversed $91 $-1 #
coedge $-1 $256 $93 $95 $168 forward $57 $-1 #
coedge $-1 $93 $256 $252 $257 forward $57 $-1 #
coedge $-1 $254 $96 $93 $165 forward $170 $-1 #
edge $-1 $172 -8.4381877350320629 $258 4.53407005437818 $164 $259 forward 7 unknown #
coedge $-1 $260 $261 $94 $167 forward $159 $-1 #
edge $-1 $262 -54.56862516738309 $171 -49.656776961749252 $166 $263 forward 7 unknown #
edge $-1 $172 33.988421906320376 $262 43.006960471304595 $95 $264 forward 7 unknown #
coedge $-1 $96 $254 $260 $265 forward $170 $-1 #
loop $-1 $-1 $254 $158 #
vertex $-1 $167 $266 #
vertex $-1 $97 $267 #
straight-curve $-1 -10.390246575359004 20.715444585809365 5.4242688036068003 0 -1 0 I I #
coedge $-1 $174 $174 $-1 $268 reversed $100 $-1 #
edge $-1 $269 0 $269 6.2831853071796004 $101 $270 forward 7 unknown #
vertex $-1 $104 $271 #
ellipse-curve $-1 -3.9041176806538829 17.72168882638212 2.9683447007898742 0 0.54463904215088732 0.83867056331134215 2 0 0 1 I I #
face $-1 $-1 $272 $22 $-1 $273 reversed single #
loop $-1 $-1 $274 $105 #
plane-surface $-1 51.406598101748713 0 0 -1 0 0 0 0 1 forward_v I I I I #
coedge $-1 $275 $108 $110 $187 forward $66 $-1 #
coedge $-1 $108 $275 $274 $276 reversed $66 $-1 #
coedge $-1 $277 $111 $108 $184 forward $106 $-1 #
edge $-1 $190 15.97410570881668 $278 28.946363498226916 $183 $279 forward 7 unknown #
coedge $-1 $280 $281 $109 $186 forward $272 $-1 #
edge $-1 $282 -54.56862516738309 $189 -49.656776961749252 $185 $283 forward 7 unknown #
edge $-1 $190 33.988421906320376 $282 43.006960471304595 $110 $284 forward 7 unknown #
coedge $-1 $111 $277 $280 $285 forward $106 $-1 #
vertex $-1 $186 $286 #
vertex $-1 $112 $287 #
straight-curve $-1 38.434340312338477 20.715444585809365 5.4242688036068003 0 -1 0 I I #
coedge $-1 $192 $192 $-1 $288 reversed $115 $-1 #
edge $-1 $289 0 $289 6.2831853071796004 $116 $290 forward 7 unknown #
vertex $-1 $119 $291 #
ellipse-curve $-1 44.920469207043595 17.72168882638212 2.9683447007898742 0 0.54463904215088732 0.83867056331134215 2 0 0 1 I I #
face $-1 $-1 $135 $18 $-1 $292 reversed single #
loop $-1 $-1 $212 $120 #
plane-surface $-1 0 21.503480235652294 0 0 -1 0 0 0 -1 forward_v I I I I #
coedge $-1 $293 $210 $213 $294 forward $121 $-1 #
coedge $-1 $216 $123 $124 $204 reversed $75 $-1 #
coedge $-1 $210 $293 $123 $202 reversed $121 $-1 #
edge $-1 $217 -5.4242688036068003 $295 5.4242688036068003 $201 $296 forward 7 unknown #
coedge $-1 $125 $124 $293 $297 forward $49 $-1 #
edge $-1 $208 -51.406598101748713 $295 51.406598101748713 $200 $298 forward 7 unknown #
coedge $-1 $213 $212 $125 $206 reversed $197 $-1 #
edge $-1 $299 -51.406598101748713 $207 51.406598101748713 $205 $300 forward 7 unknown #
vertex $-1 $127 $301 #
vertex $-1 $219 $302 #
straight-curve $-1 51.406598101748713 0 -5.4242688036068003 0 -1 0 I I #
coedge $-1 $199 $201 $128 $211 reversed $121 $-1 #
edge $-1 $214 -21.503480235652294 $217 21.503480235652294 $210 $303 forward 7 unknown #
coedge $-1 $205 $129 $134 $220 forward $197 $-1 #
coedge $-1 $129 $205 $199 $294 reversed $197 $-1 #
vertex $-1 $130 $304 #
straight-curve $-1 0 21.503480235652294 5.4242688036068003 -1 0 0 I I #
coedge $-1 $131 $200 $133 $219 reversed $75 $-1 #
vertex $-1 $211 $305 #
straight-curve $-1 0 -21.503480235652294 5.4242688036068003 1 0 0 I I #
edge $-1 $136 -5.4242688036068003 $208 5.4242688036068003 $133 $306 forward 7 unknown #
edge $-1 $137 -5.4242688036068003 $207 5.4242688036068003 $134 $307 forward 7 unknown #
point $-1 51.406598101748713 -21.503480235652294 5.4242688036068003 #
point $-1 51.406598101748713 21.503480235652294 5.4242688036068003 #
face $-1 $-1 $154 $19 $-1 $308 reversed single #
loop $-1 $-1 $232 $139 #
plane-surface $-1 0 0 5.4242688036068003 0 0 1 1 0 0 forward_v I I I I #
coedge $-1 $238 $237 $143 $231 forward $140 $-1 #
coedge $-1 $145 $142 $238 $309 reversed $83 $-1 #
coedge $-1 $142 $145 $241 $310 reversed $83 $-1 #
edge $-1 $243 -5.4242688036068003 $239 5.4242688036068003 $142 $311 forward 7 unknown #
coedge $-1 $144 $143 $245 $312 reversed $53 $-1 #
edge $-1 $313 -26.994304657899974 $235 -21.830282229797504 $226 $314 forward 7 unknown #
coedge $-1 $242 $241 $144 $233 forward $224 $-1 #
edge $-1 $234 21.830282229797504 $315 26.994304657899974 $232 $316 forward 7 unknown #
vertex $-1 $233 $317 #
vertex $-1 $231 $318 #
straight-curve $-1 -46.242575673646243 -17.499628155454772 0 0 0 -1 I I #
coedge $-1 $226 $148 $153 $247 forward $140 $-1 #
coedge $-1 $148 $226 $227 $309 forward $140 $-1 #
vertex $-1 $149 $319 #
straight-curve $-1 -24.412293443848739 -20.499628155454772 -5.4242688036068003 -1 0 0 I I #
coedge $-1 $232 $150 $228 $310 forward $224 $-1 #
coedge $-1 $150 $232 $152 $246 forward $224 $-1 #
vertex $-1 $151 $320 #
straight-curve $-1 -24.412293443848739 -20.499628155454772 5.4242688036068003 1 0 0 I I #
coedge $-1 $153 $152 $230 $312 forward $154 $-1 #
edge $-1 $315 17.499628155454772 $156 20.499628155454772 $152 $321 forward 7 unknown #
edge $-1 $155 -20.499628155454772 $313 -17.499628155454772 $153 $322 forward 7 unknown #
point $-1 -51.406598101748713 -20.499628155454772 -5.4242688036068003 #
point $-1 -51.406598101748713 -20.499628155454772 5.4242688036068003 #
plane-surface $-1 0 0 5.4242688036068003 0 0 1 1 0 0 forward_v I I I I #
coedge $-1 $261 $260 $253 $323 forward $159 $-1 #
coedge $-1 $253 $161 $163 $257 reversed $91 $-1 #
coedge $-1 $161 $252 $251 $323 reversed $91 $-1 #
coedge $-1 $169 $164 $161 $255 forward $170 $-1 #
edge $-1 $258 -6.7755471686974431 $324 0.78803564984292862 $254 $325 forward 7 unknown #
coedge $-1 $163 $162 $261 $326 reversed $57 $-1 #
edge $-1 $327 -43.006960471304595 $258 -33.988421906320376 $252 $328 forward 7 unknown #
vertex $-1 $165 $329 #
straight-curve $-1 -1.9520588403269414 13.939897417111922 5.4242688036068003 1 0 0 I I #
coedge $-1 $251 $166 $169 $265 reversed $159 $-1 #
coedge $-1 $166 $251 $256 $326 forward $159 $-1 #
vertex $-1 $167 $330 #
straight-curve $-1 -10.390246575359004 21.503480235652294 55.081045765356052 0 0 1 I I #
straight-curve $-1 -10.390246575359004 -14.56519152912535 23.935690354885367 0 0.83867056331134215 -0.54463904215088732 I I #
edge $-1 $324 -2.5820112140512386 $171 10.390246575359004 $260 $331 forward 7 unknown #
point $-1 -10.390246575359004 21.503480235652294 5.4242688036068003 #
point $-1 -10.390246575359004 13.939897417111922 5.4242688036068003 #
edge $-1 $332 1 $332 0 $174 $-1 forward 7 unknown #
vertex $-1 $175 $333 #
ellipse-curve $-1 -3.9041176806538829 15.288058017413348 -0.77911804699498155 0 0.54463904215088732 0.83867056331134215 2 0 0 1 I I #
point $-1 -1.9041176806538829 17.721688826382128 2.9683447007898893 #
loop $-1 $-1 $185 $178 #
plane-surface $-1 0 21.503480235652294 0 0 -1 0 0 0 -1 forward_v I I I I #
coedge $-1 $334 $335 $182 $276 forward $179 $-1 #
coedge $-1 $182 $181 $281 $336 reversed $66 $-1 #
edge $-1 $278 21.362567480033306 $337 30.381106045017521 $274 $338 forward 7 unknown #
coedge $-1 $188 $183 $335 $339 forward $106 $-1 #
vertex $-1 $339 $340 #
straight-curve $-1 22.460234603521798 13.939897417111922 5.4242688036068003 1 0 0 I I #
coedge $-1 $341 $185 $188 $285 reversed $272 $-1 #
coedge $-1 $185 $341 $275 $336 forward $272 $-1 #
vertex $-1 $186 $342 #
straight-curve $-1 38.434340312338477 21.503480235652294 55.081045765356052 0 0 1 I I #
straight-curve $-1 38.434340312338477 -14.56519152912535 23.935690354885367 0 0.83867056331134215 -0.54463904215088732 I I #
edge $-1 $343 -51.406598101748713 $189 -38.434340312338477 $280 $344 forward 7 unknown #
point $-1 38.434340312338477 21.503480235652294 5.4242688036068003 #
point $-1 38.434340312338477 13.939897417111922 5.4242688036068003 #
edge $-1 $345 1 $345 0 $192 $-1 forward 7 unknown #
vertex $-1 $193 $346 #
ellipse-curve $-1 44.920469207043595 15.288058017413348 -0.77911804699498155 0 0.54463904215088732 0.83867056331134215 2 0 0 1 I I #
point $-1 46.920469207043595 17.721688826382128 2.9683447007898893 #
plane-surface $-1 51.406598101748713 0 0 -1 0 0 0 0 1 forward_v I I I I #
coedge $-1 $201 $199 $203 $297 reversed $121 $-1 #
edge $-1 $214 -5.4242688036068003 $299 5.4242688036068003 $213 $347 forward 7 unknown #
vertex $-1 $297 $348 #
straight-curve $-1 -51.406598101748713 -21.503480235652294 0 0 0 -1 I I #
edge $-1 $295 -21.503480235652294 $299 21.503480235652294 $293 $349 forward 7 unknown #
straight-curve $-1 0 -21.503480235652294 -5.4242688036068003 -1 0 0 I I #
vertex $-1 $206 $350 #
straight-curve $-1 0 21.503480235652294 -5.4242688036068003 1 0 0 I I #
point $-1 51.406598101748713 21.503480235652294 -5.4242688036068003 #
point $-1 51.406598101748713 -21.503480235652294 -5.4242688036068003 #
straight-curve $-1 -51.406598101748713 0 5.4242688036068003 0 -1 0 I I #
point $-1 -51.406598101748713 21.503480235652294 5.4242688036068003 #
point $-1 -51.406598101748713 -21.503480235652294 5.4242688036068003 #
straight-curve $-1 51.406598101748713 -21.503480235652294 0 0 0 -1 I I #
straight-curve $-1 51.406598101748713 21.503480235652294 0 0 0 -1 I I #
plane-surface $-1 -51.406598101748713 0 0 1 0 0 0 0 -1 forward_v I I I I #
edge $-1 $235 7.9998140777273861 $239 10.999814077727386 $238 $351 forward 7 unknown #
edge $-1 $243 -10.999814077727386 $234 -7.9998140777273861 $241 $352 forward 7 unknown #
straight-curve $-1 -46.242575673646243 -20.499628155454772 0 0 0 -1 I I #
edge $-1 $315 -5.4242688036068003 $313 5.4242688036068003 $245 $353 forward 7 unknown #
vertex $-1 $312 $354 #
straight-curve $-1 -24.412293443848739 -17.499628155454772 -5.4242688036068003 1 0 0 I I #
vertex $-1 $246 $355 #
straight-curve $-1 -24.412293443848739 -17.499628155454772 5.4242688036068003 -1 0 0 I I #
point $-1 -46.242575673646243 -17.499628155454772 5.4242688036068003 #
point $-1 -46.242575673646243 -17.499628155454772 -5.4242688036068003 #
point $-1 -46.242575673646243 -20.499628155454772 -5.4242688036068003 #
point $-1 -46.242575673646243 -20.499628155454772 5.4242688036068003 #
straight-curve $-1 -51.406598101748713 0 5.4242688036068003 0 -1 0 I I #
straight-curve $-1 -51.406598101748713 0 -5.4242688036068003 0 1 0 I I #
edge $-1 $324 49.656776961749252 $327 54.56862516738309 $251 $356 forward 7 unknown #
vertex $-1 $265 $357 #
straight-curve $-1 2.5820112140512386 20.715444585809365 5.4242688036068003 0 1 0 I I #
edge $-1 $327 -4.53407005437818 $262 8.4381877350320629 $261 $358 forward 7 unknown #
vertex $-1 $326 $359 #
straight-curve $-1 2.5820112140512386 -14.56519152912535 23.935690354885367 0 -0.83867056331134215 0.54463904215088732 I I #
point $-1 2.5820112140512386 13.939897417111922 5.4242688036068003 #
point $-1 -10.390246575359004 21.503480235652297 0.5124205979729588 #
straight-curve $-1 0 21.503480235652294 5.4242688036068003 -1 0 0 I I #
vertex $-1 $268 $360 #
point $-1 -1.9041176806538829 15.288058017413348 -0.77911804699498155 #
coedge $-1 $335 $274 $341 $361 reversed $179 $-1 #
coedge $-1 $274 $334 $277 $339 reversed $179 $-1 #
edge $-1 $337 -28.946363498226916 $282 -15.97410570881668 $281 $362 forward 7 unknown #
vertex $-1 $276 $363 #
straight-curve $-1 51.406598101748713 -3.9762590851441684 17.059157093815834 0 0.83867056331134215 -0.54463904215088732 I I #
edge $-1 $278 13.939897417111922 $343 21.503480235652294 $335 $364 forward 7 unknown #
point $-1 51.406598101748713 13.939897417111922 5.4242688036068003 #
coedge $-1 $281 $280 $334 $361 forward $272 $-1 #
point $-1 38.434340312338477 21.503480235652297 0.5124205979729588 #
vertex $-1 $339 $365 #
straight-curve $-1 0 21.503480235652294 5.4242688036068003 -1 0 0 I I #
vertex $-1 $288 $366 #
point $-1 46.920469207043595 15.288058017413348 -0.77911804699498155 #
straight-curve $-1 -51.406598101748713 21.503480235652294 0 0 0 -1 I I #
point $-1 -51.406598101748713 -21.503480235652294 -5.4242688036068003 #
straight-curve $-1 -51.406598101748713 0 -5.4242688036068003 0 1 0 I I #
point $-1 -51.406598101748713 21.503480235652294 -5.4242688036068003 #
straight-curve $-1 -46.242575673646243 -9.4998140777273861 -5.4242688036068003 0 -1 0 I I #
straight-curve $-1 -46.242575673646243 -9.4998140777273861 5.4242688036068003 0 1 0 I I #
straight-curve $-1 -51.406598101748713 -17.499628155454772 0 0 0 -1 I I #
point $-1 -51.406598101748713 -17.499628155454772 -5.4242688036068003 #
point $-1 -51.406598101748713 -17.499628155454772 5.4242688036068003 #
straight-curve $-1 2.5820112140512386 21.503480235652294 55.081045765356052 0 0 -1 I I #
point $-1 2.5820112140512386 21.503480235652294 5.4242688036068003 #
straight-curve $-1 -1.9520588403269414 21.503480235652297 0.51242059797296236 -1 0 0 I I #
point $-1 2.5820112140512386 21.503480235652297 0.5124205979729588 #
point $-1 -3.9041176806538829 14.198779933111574 -2.4564591736176657 #
edge $-1 $343 -5.4242688036068003 $337 -0.5124205979729588 $334 $367 forward 7 unknown #
straight-curve $-1 22.460234603521798 21.503480235652297 0.51242059797296236 -1 0 0 I I #
point $-1 51.406598101748713 21.503480235652297 0.5124205979729588 #
straight-curve $-1 51.406598101748713 0 5.4242688036068003 0 1 0 I I #
point $-1 51.406598101748713 21.503480235652294 5.4242688036068003 #
point $-1 44.920469207043595 14.198779933111574 -2.4564591736176657 #
straight-curve $-1 51.406598101748713 21.503480235652294 0 0 0 -1 I I #
End-of-ACIS-data 