500 0 4 0           
7 Unknown 11 ACIS 5.0 NT 24 Fri Mar 26 00:21:13 1999 
-1 9.9999999999999995e-007 1e-010 
body $-1 $4 $-1 $5 #
body $-1 $6 $-1 $7 #
body $-1 $8 $-1 $9 #
body $-1 $10 $-1 $11 #
lump $-1 $-1 $12 $0 #
transform $-1 1 0 0 0 1 0 0 0 1 69.035309915463728 45.206782581747035 22.198603852002563 1 rotate no_reflect no_shear #
lump $-1 $-1 $13 $1 #
transform $-1 1 0 0 0 1 0 0 0 1 69.035309915463728 45.206782581747035 22.198603852002563 1 rotate no_reflect no_shear #
lump $-1 $-1 $14 $2 #
transform $-1 1 0 0 0 1 0 0 0 1 69.035309915463728 45.206782581747035 22.198603852002563 1 rotate no_reflect no_shear #
lump $-1 $-1 $15 $3 #
transform $-1 1 0 0 0 1 0 0 0 1 69.035309915463728 45.206782581747035 22.198603852002563 1 rotate no_reflect no_shear #
shell $-1 $-1 $-1 $16 $-1 $4 #
shell $-1 $-1 $-1 $17 $-1 $6 #
shell $-1 $-1 $-1 $18 $-1 $8 #
shell $-1 $-1 $-1 $19 $-1 $10 #
face $-1 $20 $21 $12 $-1 $22 forward single #
face $-1 $23 $24 $13 $-1 $25 forward single #
face $-1 $26 $27 $14 $-1 $28 forward single #
face $-1 $29 $30 $15 $-1 $31 reversed single #
face $-1 $32 $33 $12 $-1 $34 reversed single #
loop $-1 $-1 $35 $16 #
plane-surface $-1 0 0 22.198603852002563 0 0 1 1 0 0 forward_v I I I I #
face $-1 $36 $37 $13 $-1 $38 forward single #
loop $-1 $-1 $39 $17 #
plane-surface $-1 0 -31.639321363175355 12.858890346815098 0 0 1 1 0 0 forward_v I I I I #
face $-1 $40 $41 $14 $-1 $42 forward single #
loop $-1 $-1 $43 $18 #
plane-surface $-1 -58.097757604655627 122.13270376731353 162.56045434269271 1 0 0 0 -0.87461971476443456 -0.48480960649040278 forward_v I I I I #
face $-1 $44 $45 $15 $-1 $46 reversed single #
loop $-1 $47 $48 $19 #
cone-surface $-1 -48.598160178042434 41.469374782079115 18.168683652355611 0 -0.87461971476443456 -0.48480960649040278 1.5 0 0 1 I I 0 1 1.5 forward I I I I #
face $-1 $49 $50 $12 $-1 $51 reversed single #
loop $-1 $-1 $52 $20 #
plane-surface $-1 0 0 -22.198603852002563 0 0 1 1 0 0 forward_v I I I I #
coedge $-1 $53 $54 $55 $56 forward $21 $-1 #
face $-1 $57 $58 $13 $-1 $59 forward single #
loop $-1 $-1 $60 $23 #
plane-surface $-1 0 -18.071860144603676 17.528747099408832 0 -1 0 0 0 -1 forward_v I I I I #
coedge $-1 $61 $62 $63 $64 reversed $24 $-1 #
face $-1 $65 $66 $14 $-1 $67 forward single #
loop $-1 $-1 $68 $26 #
plane-surface $-1 -48.598160178042434 1.3734176334390753 95.622491474574772 0 0.87461971476443456 0.48480960649040278 1 0 0 forward_v I I I I #
coedge $-1 $69 $70 $71 $72 reversed $27 $-1 #
face $-1 $73 $74 $15 $-1 $75 forward single #
loop $-1 $76 $77 $29 #
cone-surface $-1 -48.598160178042434 38.642922674284051 16.601955723620136 0 -0.87461971476443456 -0.48480960649040278 0.75 0 0 1 I I -0.70710678118654757 0.70710678118654757 0.75 forward I I I I #
loop $-1 $-1 $78 $19 #
coedge $-1 $48 $48 $79 $80 reversed $30 $-1 #
face $-1 $81 $82 $12 $-1 $83 reversed single #
loop $-1 $-1 $84 $32 #
plane-surface $-1 0 -45.206782581747035 0 0 1 0 0 0 1 forward_v I I I I #
coedge $-1 $85 $86 $87 $88 forward $33 $-1 #
coedge $-1 $89 $35 $90 $91 forward $21 $-1 #
coedge $-1 $35 $89 $92 $93 forward $21 $-1 #
coedge $-1 $94 $95 $35 $56 reversed $96 $-1 #
edge $-1 $97 -45.206782581747035 $98 45.206782581747035 $55 $99 forward 7 unknown #
face $-1 $100 $101 $13 $-1 $102 reversed single #
loop $-1 $-1 $103 $36 #
plane-surface $-1 0 0 22.198603852002563 0 0 1 1 0 0 forward_v I I I I #
coedge $-1 $104 $105 $106 $107 reversed $37 $-1 #
coedge $-1 $108 $39 $105 $109 reversed $24 $-1 #
coedge $-1 $39 $108 $110 $111 reversed $24 $-1 #
coedge $-1 $112 $106 $39 $64 forward $101 $-1 #
edge $-1 $113 2.252199463015998 $114 29.387121900159357 $63 $115 forward 7 unknown #
face $-1 $116 $117 $14 $-1 $118 forward single #
loop $-1 $-1 $119 $40 #
plane-surface $-1 -39.098562751429242 122.13270376731353 162.56045434269271 -1 0 0 0 0.87461971476443456 0.48480960649040278 forward_v I I I I #
coedge $-1 $120 $121 $122 $123 reversed $41 $-1 #
coedge $-1 $70 $43 $121 $124 forward $27 $-1 #
coedge $-1 $43 $69 $125 $126 reversed $27 $-1 #
coedge $-1 $127 $122 $43 $72 forward $117 $-1 #
edge $-1 $128 -18.993410257802097 $129 -15.85956930190973 $71 $130 forward 7 unknown #
face $-1 $131 $132 $15 $-1 $133 forward single #
loop $-1 $-1 $134 $44 #
plane-surface $-1 -58.097757604655627 122.13270376731353 162.56045434269271 1 0 0 0 -0.87461971476443456 -0.48480960649040278 forward_v I I I I #
loop $-1 $-1 $135 $29 #
coedge $-1 $77 $77 $78 $136 forward $45 $-1 #
coedge $-1 $78 $78 $77 $136 reversed $47 $-1 #
coedge $-1 $79 $79 $48 $80 forward $132 $-1 #
edge $-1 $137 2.0715156162614661e-015 $137 6.2831853071796022 $79 $138 forward 7 unknown #
face $-1 $139 $140 $12 $-1 $141 reversed single #
loop $-1 $-1 $142 $49 #
plane-surface $-1 -69.035309915463728 0 0 1 0 0 0 0 -1 forward_v I I I I #
coedge $-1 $143 $92 $144 $145 forward $50 $-1 #
coedge $-1 $146 $52 $143 $147 forward $33 $-1 #
coedge $-1 $52 $146 $148 $149 forward $33 $-1 #
coedge $-1 $95 $94 $52 $88 reversed $96 $-1 #
edge $-1 $150 -45.206782581747035 $151 45.206782581747035 $87 $152 forward 7 unknown #
coedge $-1 $54 $53 $153 $154 forward $21 $-1 #
coedge $-1 $155 $156 $53 $91 reversed $140 $-1 #
edge $-1 $98 -69.035309915463728 $157 69.035309915463728 $90 $158 forward 7 unknown #
coedge $-1 $84 $159 $54 $93 reversed $50 $-1 #
edge $-1 $160 -69.035309915463728 $97 69.035309915463728 $92 $161 forward 7 unknown #
coedge $-1 $87 $55 $159 $162 forward $96 $-1 #
coedge $-1 $55 $87 $155 $163 reversed $96 $-1 #
loop $-1 $-1 $94 $139 #
vertex $-1 $56 $164 #
vertex $-1 $56 $165 #
straight-curve $-1 69.035309915463728 0 22.198603852002563 0 1 0 I I #
face $-1 $166 $167 $13 $-1 $168 reversed single #
loop $-1 $-1 $106 $57 #
plane-surface $-1 69.035309915463728 0 0 -1 0 0 0 0 1 forward_v I I I I #
coedge $-1 $169 $170 $104 $171 forward $58 $-1 #
coedge $-1 $172 $60 $103 $171 reversed $37 $-1 #
coedge $-1 $60 $172 $61 $109 forward $37 $-1 #
coedge $-1 $63 $173 $60 $107 forward $101 $-1 #
edge $-1 $174 -13.43423030229815 $113 -4.0945167971106819 $106 $175 forward 7 unknown #
coedge $-1 $62 $61 $176 $177 reversed $24 $-1 #
edge $-1 $178 -69.035309915463728 $113 69.035309915463728 $105 $179 forward 7 unknown #
coedge $-1 $180 $181 $62 $111 forward $182 $-1 #
edge $-1 $114 -69.035309915463728 $183 69.035309915463728 $110 $184 forward 7 unknown #
coedge $-1 $185 $63 $181 $186 forward $101 $-1 #
vertex $-1 $64 $187 #
vertex $-1 $186 $188 #
straight-curve $-1 69.035309915463728 -15.819660681587678 12.858890346815098 0 -1 0 I I #
face $-1 $189 $190 $14 $-1 $191 forward single #
loop $-1 $-1 $192 $65 #
plane-surface $-1 0 0 22.198603852002563 0 0 1 1 0 0 forward_v I I I I #
coedge $-1 $193 $194 $192 $195 reversed $66 $-1 #
coedge $-1 $196 $68 $194 $197 reversed $41 $-1 #
coedge $-1 $68 $196 $69 $124 reversed $41 $-1 #
coedge $-1 $71 $192 $68 $123 forward $117 $-1 #
edge $-1 $198 14.799482662408025 $128 33.798677515634409 $122 $199 forward 7 unknown #
edge $-1 $128 83.94949986045971 $200 90.413565163494113 $69 $201 forward 7 unknown #
coedge $-1 $202 $203 $70 $126 forward $204 $-1 #
edge $-1 $129 59.081623319343791 $200 64.735222270902412 $125 $205 forward 7 unknown #
coedge $-1 $206 $71 $203 $207 forward $117 $-1 #
vertex $-1 $123 $208 #
vertex $-1 $207 $209 #
straight-curve $-1 -58.097757604655627 61.066351883656765 22.198603852002563 0 1 0 I I #
face $-1 $210 $211 $15 $-1 $212 forward single #
loop $-1 $213 $79 $73 #
plane-surface $-1 -48.598160178042434 1.3734176334390753 95.622491474574772 0 0.87461971476443456 0.48480960649040278 1 0 0 forward_v I I I I #
coedge $-1 $214 $215 $216 $217 reversed $74 $-1 #
coedge $-1 $135 $135 $-1 $218 forward $76 $-1 #
edge $-1 $219 0 $219 6.2831853071796004 $77 $220 forward 7 unknown #
vertex $-1 $80 $221 #
ellipse-curve $-1 -48.598160178042434 43.639862103800844 19.371804376223277 0 -0.87461971476443456 -0.48480960649040278 1.5 0 0 1 I I #
face $-1 $-1 $96 $12 $-1 $222 reversed single #
loop $-1 $-1 $155 $81 #
plane-surface $-1 0 45.206782581747035 0 0 -1 0 0 0 -1 forward_v I I I I #
coedge $-1 $223 $153 $156 $224 forward $82 $-1 #
coedge $-1 $159 $84 $85 $147 reversed $50 $-1 #
coedge $-1 $153 $223 $84 $145 reversed $82 $-1 #
edge $-1 $160 -22.198603852002563 $225 22.198603852002563 $144 $226 forward 7 unknown #
coedge $-1 $86 $85 $223 $227 forward $33 $-1 #
edge $-1 $151 -69.035309915463728 $225 69.035309915463728 $143 $228 forward 7 unknown #
coedge $-1 $156 $155 $86 $149 reversed $140 $-1 #
edge $-1 $229 -69.035309915463728 $150 69.035309915463728 $148 $230 forward 7 unknown #
vertex $-1 $88 $231 #
vertex $-1 $162 $232 #
straight-curve $-1 69.035309915463728 0 -22.198603852002563 0 -1 0 I I #
coedge $-1 $142 $144 $89 $154 reversed $82 $-1 #
edge $-1 $157 -45.206782581747035 $160 45.206782581747035 $153 $233 forward 7 unknown #
coedge $-1 $148 $90 $95 $163 forward $140 $-1 #
coedge $-1 $90 $148 $142 $224 reversed $140 $-1 #
vertex $-1 $91 $234 #
straight-curve $-1 0 45.206782581747035 22.198603852002563 -1 0 0 I I #
coedge $-1 $92 $143 $94 $162 reversed $50 $-1 #
vertex $-1 $154 $235 #
straight-curve $-1 0 -45.206782581747035 22.198603852002563 1 0 0 I I #
edge $-1 $97 -22.198603852002563 $151 22.198603852002563 $94 $236 forward 7 unknown #
edge $-1 $98 -22.198603852002563 $150 22.198603852002563 $95 $237 forward 7 unknown #
point $-1 69.035309915463728 -45.206782581747035 22.198603852002563 #
point $-1 69.035309915463728 45.206782581747035 22.198603852002563 #
face $-1 $238 $182 $13 $-1 $239 reversed single #
loop $-1 $-1 $240 $100 #
plane-surface $-1 0 0 -22.198603852002563 0 0 1 1 0 0 forward_v I I I I #
coedge $-1 $241 $103 $173 $242 forward $58 $-1 #
coedge $-1 $103 $241 $243 $244 forward $58 $-1 #
edge $-1 $245 -69.035309915463728 $174 69.035309915463728 $103 $246 forward 7 unknown #
coedge $-1 $105 $104 $247 $248 reversed $37 $-1 #
coedge $-1 $106 $249 $169 $242 reversed $101 $-1 #
vertex $-1 $242 $250 #
straight-curve $-1 69.035309915463728 -18.071860144603676 8.7643735497044162 0 0 -1 I I #
coedge $-1 $247 $251 $108 $177 forward $252 $-1 #
edge $-1 $183 -29.387121900159357 $178 -2.252199463015998 $176 $253 forward 7 unknown #
vertex $-1 $177 $254 #
straight-curve $-1 0 -18.071860144603676 12.858890346815098 1 0 0 I I #
coedge $-1 $255 $110 $251 $256 forward $182 $-1 #
coedge $-1 $110 $255 $112 $186 reversed $182 $-1 #
loop $-1 $-1 $110 $166 #
vertex $-1 $256 $257 #
straight-curve $-1 0 -45.206782581747035 12.858890346815098 -1 0 0 I I #
coedge $-1 $249 $112 $240 $258 reversed $101 $-1 #
edge $-1 $114 -12.858890346815098 $259 22.198603852002563 $112 $260 forward 7 unknown #
point $-1 69.035309915463728 -18.071860144603676 12.858890346815098 #
point $-1 69.035309915463728 -45.206782581747035 12.858890346815098 #
face $-1 $261 $262 $14 $-1 $263 forward single #
loop $-1 $-1 $264 $116 #
plane-surface $-1 0 -31.639321363175355 12.858890346815098 0 0 1 1 0 0 forward_v I I I I #
coedge $-1 $122 $265 $119 $195 forward $117 $-1 #
coedge $-1 $194 $119 $266 $267 reversed $66 $-1 #
coedge $-1 $119 $193 $120 $197 forward $66 $-1 #
edge $-1 $268 15.85956930190973 $198 18.993410257802097 $192 $269 forward 7 unknown #
coedge $-1 $121 $120 $202 $270 reversed $41 $-1 #
edge $-1 $271 -90.413565163494113 $198 -83.94949986045971 $194 $272 forward 7 unknown #
vertex $-1 $123 $273 #
straight-curve $-1 -24.299080089021217 42.072941625854668 22.198603852002563 -1 0 0 I I #
vertex $-1 $270 $274 #
straight-curve $-1 -58.097757604655627 1.3734176334390753 95.622491474574772 0 0.48480960649040278 -0.87461971476443456 I I #
coedge $-1 $266 $125 $196 $270 forward $204 $-1 #
coedge $-1 $125 $275 $127 $207 reversed $204 $-1 #
loop $-1 $-1 $266 $276 #
straight-curve $-1 -58.097757604655627 45.206782581747035 81.280227171346354 0 0 -1 I I #
coedge $-1 $277 $127 $278 $279 forward $117 $-1 #
edge $-1 $129 58.097757604655627 $280 69.035309915463728 $203 $281 forward 7 unknown #
point $-1 -58.097757604655627 42.072941625854668 22.198603852002563 #
point $-1 -58.097757604655627 45.206782581747035 22.198603852002563 #
face $-1 $282 $283 $15 $-1 $284 forward single #
loop $-1 $-1 $285 $131 #
plane-surface $-1 -39.098562751429242 122.13270376731353 162.56045434269271 -1 0 0 0 0.87461971476443456 0.48480960649040278 forward_v I I I I #
loop $-1 $-1 $286 $73 #
coedge $-1 $215 $134 $287 $288 forward $74 $-1 #
coedge $-1 $134 $214 $289 $290 reversed $74 $-1 #
coedge $-1 $291 $292 $134 $217 forward $283 $-1 #
edge $-1 $293 -18.993410257802097 $294 -15.85956930190973 $216 $295 forward 7 unknown #
edge $-1 $296 1 $296 0 $135 $-1 forward 7 unknown #
vertex $-1 $136 $297 #
ellipse-curve $-1 -48.598160178042434 39.298887460357378 16.965562928487937 0 0.87461971476443456 0.48480960649040278 1.5 0 0 1 I I #
point $-1 -47.098160178042434 43.639862103800844 19.371804376223281 #
plane-surface $-1 69.035309915463728 0 0 -1 0 0 0 0 1 forward_v I I I I #
coedge $-1 $144 $142 $146 $227 reversed $82 $-1 #
edge $-1 $157 -22.198603852002563 $229 22.198603852002563 $156 $298 forward 7 unknown #
vertex $-1 $227 $299 #
straight-curve $-1 -69.035309915463728 -45.206782581747035 0 0 0 -1 I I #
edge $-1 $225 -45.206782581747035 $229 45.206782581747035 $223 $300 forward 7 unknown #
straight-curve $-1 0 -45.206782581747035 -22.198603852002563 -1 0 0 I I #
vertex $-1 $149 $301 #
straight-curve $-1 0 45.206782581747035 -22.198603852002563 1 0 0 I I #
point $-1 69.035309915463728 45.206782581747035 -22.198603852002563 #
point $-1 69.035309915463728 -45.206782581747035 -22.198603852002563 #
straight-curve $-1 -69.035309915463728 0 22.198603852002563 0 -1 0 I I #
point $-1 -69.035309915463728 45.206782581747035 22.198603852002563 #
point $-1 -69.035309915463728 -45.206782581747035 22.198603852002563 #
straight-curve $-1 69.035309915463728 -45.206782581747035 0 0 0 -1 I I #
straight-curve $-1 69.035309915463728 45.206782581747035 0 0 0 -1 I I #
face $-1 $302 $252 $13 $-1 $303 reversed single #
plane-surface $-1 0 -45.206782581747035 0 0 1 0 0 0 1 forward_v I I I I #
coedge $-1 $304 $305 $185 $258 forward $167 $-1 #
coedge $-1 $170 $169 $306 $307 forward $58 $-1 #
edge $-1 $174 -18.071860144603676 $308 45.206782581747035 $173 $309 forward 7 unknown #
coedge $-1 $310 $247 $170 $244 reversed $252 $-1 #
edge $-1 $311 -45.206782581747035 $245 18.071860144603676 $243 $312 forward 7 unknown #
vertex $-1 $248 $313 #
straight-curve $-1 0 -18.071860144603676 22.198603852002563 1 0 0 I I #
coedge $-1 $243 $176 $172 $248 forward $252 $-1 #
edge $-1 $178 4.0945167971106819 $245 13.43423030229815 $247 $314 forward 7 unknown #
coedge $-1 $173 $185 $315 $316 reversed $101 $-1 #
point $-1 69.035309915463728 -18.071860144603676 22.198603852002567 #
coedge $-1 $176 $317 $180 $256 reversed $252 $-1 #
loop $-1 $-1 $247 $238 #
straight-curve $-1 -69.035309915463728 -15.819660681587678 12.858890346815098 0 1 0 I I #
point $-1 -69.035309915463728 -18.071860144603676 12.858890346815098 #
coedge $-1 $181 $180 $304 $318 reversed $182 $-1 #
edge $-1 $183 -12.858890346815098 $319 22.198603852002563 $251 $320 forward 7 unknown #
point $-1 -69.035309915463728 -45.206782581747035 12.858890346815098 #
edge $-1 $321 -45.206782581747035 $259 45.206782581747035 $185 $322 forward 7 unknown #
vertex $-1 $186 $323 #
straight-curve $-1 69.035309915463728 -45.206782581747035 0 0 0 -1 I I #
face $-1 $324 $325 $14 $-1 $326 reversed single #
loop $-1 $-1 $327 $189 #
plane-surface $-1 0 -18.071860144603676 17.528747099408832 0 -1 0 0 0 -1 forward_v I I I I #
coedge $-1 $328 $329 $330 $331 reversed $190 $-1 #
coedge $-1 $192 $332 $333 $334 forward $117 $-1 #
coedge $-1 $333 $202 $193 $267 forward $204 $-1 #
edge $-1 $271 -64.735222270902412 $268 -59.081623319343791 $266 $335 forward 7 unknown #
vertex $-1 $267 $336 #
straight-curve $-1 -39.098562751429242 61.066351883656765 22.198603852002563 0 -1 0 I I #
edge $-1 $200 -33.798677515634409 $271 -14.799482662408025 $202 $337 forward 7 unknown #
vertex $-1 $270 $338 #
straight-curve $-1 -39.098562751429242 1.3734176334390753 95.622491474574772 0 -0.48480960649040278 0.87461971476443456 I I #
point $-1 -39.098562751429242 42.072941625854668 22.198603852002563 #
point $-1 -58.097757604655627 45.206782581747035 16.545004900443942 #
coedge $-1 $203 $339 $340 $341 reversed $204 $-1 #
face $-1 $-1 $204 $14 $-1 $342 reversed single #
coedge $-1 $332 $206 $343 $344 forward $117 $-1 #
coedge $-1 $340 $345 $206 $279 reversed $346 $-1 #
edge $-1 $280 -45.206782581747035 $347 18.071860144603676 $278 $348 forward 7 unknown #
vertex $-1 $207 $349 #
straight-curve $-1 0 45.206782581747035 22.198603852002563 -1 0 0 I I #
face $-1 $350 $351 $15 $-1 $352 forward single #
loop $-1 $-1 $353 $210 #
plane-surface $-1 0 0 22.198603852002563 0 0 1 1 0 0 forward_v I I I I #
coedge $-1 $354 $355 $353 $356 reversed $211 $-1 #
coedge $-1 $357 $287 $292 $358 reversed $213 $-1 #
coedge $-1 $286 $359 $214 $288 reversed $213 $-1 #
edge $-1 $293 83.94949986045971 $360 90.413565163494113 $214 $361 forward 7 unknown #
coedge $-1 $362 $363 $215 $290 forward $364 $-1 #
edge $-1 $294 59.081623319343791 $360 64.735222270902412 $289 $365 forward 7 unknown #
coedge $-1 $366 $216 $363 $367 forward $283 $-1 #
coedge $-1 $216 $353 $286 $358 forward $283 $-1 #
vertex $-1 $358 $368 #
vertex $-1 $367 $369 #
straight-curve $-1 -58.097757604655627 61.066351883656765 22.198603852002563 0 1 0 I I #
vertex $-1 $218 $370 #
point $-1 -47.098160178042434 39.298887460357378 16.965562928487937 #
straight-curve $-1 -69.035309915463728 45.206782581747035 0 0 0 -1 I I #
point $-1 -69.035309915463728 -45.206782581747035 -22.198603852002563 #
straight-curve $-1 -69.035309915463728 0 -22.198603852002563 0 1 0 I I #
point $-1 -69.035309915463728 45.206782581747035 -22.198603852002563 #
face $-1 $-1 $371 $13 $-1 $372 reversed single #
plane-surface $-1 -69.035309915463728 0 0 1 0 0 0 0 -1 forward_v I I I I #
coedge $-1 $373 $240 $255 $318 forward $167 $-1 #
coedge $-1 $240 $373 $374 $375 forward $167 $-1 #
coedge $-1 $315 $376 $241 $307 reversed $371 $-1 #
edge $-1 $308 -69.035309915463728 $311 69.035309915463728 $306 $377 forward 7 unknown #
vertex $-1 $242 $378 #
straight-curve $-1 69.035309915463728 0 22.198603852002563 0 1 0 I I #
coedge $-1 $317 $243 $376 $379 forward $252 $-1 #
vertex $-1 $307 $380 #
straight-curve $-1 -69.035309915463728 0 22.198603852002563 0 -1 0 I I #
point $-1 -69.035309915463728 -18.071860144603676 22.198603852002567 #
straight-curve $-1 -69.035309915463728 -18.071860144603676 8.7643735497044162 0 0 1 I I #
coedge $-1 $374 $306 $249 $316 forward $371 $-1 #
edge $-1 $308 -22.198603852002563 $321 22.198603852002563 $249 $381 forward 7 unknown #
coedge $-1 $251 $310 $373 $382 reversed $252 $-1 #
edge $-1 $259 -69.035309915463728 $319 69.035309915463728 $255 $383 forward 7 unknown #
vertex $-1 $382 $384 #
straight-curve $-1 -69.035309915463728 -45.206782581747035 0 0 0 -1 I I #
vertex $-1 $258 $385 #
straight-curve $-1 69.035309915463728 0 -22.198603852002563 0 -1 0 I I #
point $-1 69.035309915463728 -45.206782581747035 -22.198603852002563 #
face $-1 $386 $387 $14 $-1 $388 reversed single #
loop $-1 $-1 $389 $261 #
plane-surface $-1 69.035309915463728 0 0 -1 0 0 0 0 1 forward_v I I I I #
coedge $-1 $343 $390 $389 $391 reversed $262 $-1 #
coedge $-1 $392 $264 $390 $393 reversed $190 $-1 #
coedge $-1 $264 $392 $394 $395 reversed $190 $-1 #
coedge $-1 $396 $389 $264 $331 forward $325 $-1 #
edge $-1 $397 2.252199463015998 $398 29.387121900159357 $330 $399 forward 7 unknown #
coedge $-1 $265 $277 $400 $401 forward $117 $-1 #
coedge $-1 $402 $266 $265 $334 reversed $204 $-1 #
edge $-1 $403 -69.035309915463728 $268 39.098562751429242 $333 $281 forward 7 unknown #
straight-curve $-1 -39.098562751429242 45.206782581747035 81.280227171346354 0 0 1 I I #
point $-1 -39.098562751429242 45.206782581747035 22.198603852002563 #
straight-curve $-1 -24.299080089021217 45.206782581747035 16.545004900443963 1 0 0 I I #
point $-1 -39.098562751429242 45.206782581747035 16.545004900443942 #
coedge $-1 $275 $402 $404 $405 reversed $204 $-1 #
coedge $-1 $406 $278 $275 $341 forward $346 $-1 #
edge $-1 $280 -22.198603852002563 $407 22.198603852002563 $275 $408 forward 7 unknown #
plane-surface $-1 0 45.206782581747035 0 0 -1 0 0 0 -1 forward_v I I I I #
coedge $-1 $409 $327 $277 $344 reversed $262 $-1 #
edge $-1 $347 -69.035309915463728 $410 69.035309915463728 $277 $411 forward 7 unknown #
coedge $-1 $278 $412 $409 $413 forward $346 $-1 #
loop $-1 $-1 $345 $414 #
vertex $-1 $413 $415 #
straight-curve $-1 -69.035309915463728 0 22.198603852002563 0 -1 0 I I #
point $-1 -69.035309915463728 45.206782581747035 22.198603852002563 #
face $-1 $416 $417 $15 $-1 $418 forward single #
loop $-1 $-1 $419 $282 #
plane-surface $-1 0 -31.639321363175355 12.858890346815098 0 0 1 1 0 0 forward_v I I I I #
coedge $-1 $292 $420 $285 $356 forward $283 $-1 #
coedge $-1 $355 $285 $421 $422 reversed $211 $-1 #
coedge $-1 $285 $354 $357 $423 forward $211 $-1 #
edge $-1 $424 15.85956930190973 $425 18.993410257802097 $353 $426 forward 7 unknown #
coedge $-1 $359 $286 $355 $423 reversed $213 $-1 #
edge $-1 $425 14.799482662408025 $293 33.798677515634409 $292 $427 forward 7 unknown #
coedge $-1 $287 $357 $362 $428 reversed $213 $-1 #
vertex $-1 $428 $429 #
straight-curve $-1 -58.097757604655627 1.3734176334390753 95.622491474574772 0 0.48480960649040278 -0.87461971476443456 I I #
coedge $-1 $421 $289 $359 $428 forward $364 $-1 #
coedge $-1 $289 $430 $291 $367 reversed $364 $-1 #
loop $-1 $-1 $421 $431 #
straight-curve $-1 -58.097757604655627 45.206782581747035 81.280227171346354 0 0 -1 I I #
coedge $-1 $432 $291 $433 $434 forward $283 $-1 #
edge $-1 $294 58.097757604655627 $435 69.035309915463728 $363 $436 forward 7 unknown #
point $-1 -58.097757604655627 42.072941625854668 22.198603852002563 #
point $-1 -58.097757604655627 45.206782581747035 22.198603852002563 #
point $-1 -48.598160178042434 37.986957888210725 16.238348518752336 #
loop $-1 $-1 $315 $302 #
plane-surface $-1 0 45.206782581747035 0 0 -1 0 0 0 -1 forward_v I I I I #
coedge $-1 $305 $304 $317 $382 forward $167 $-1 #
coedge $-1 $376 $315 $305 $375 reversed $371 $-1 #
edge $-1 $437 -69.035309915463728 $321 69.035309915463728 $374 $438 forward 7 unknown #
coedge $-1 $306 $374 $310 $379 reversed $371 $-1 #
straight-curve $-1 0 45.206782581747035 22.198603852002563 -1 0 0 I I #
point $-1 69.035309915463728 45.206782581747035 22.198603852002563 #
edge $-1 $311 -22.198603852002563 $437 22.198603852002563 $376 $439 forward 7 unknown #
point $-1 -69.035309915463728 45.206782581747035 22.198603852002563 #
straight-curve $-1 69.035309915463728 45.206782581747035 0 0 0 -1 I I #
edge $-1 $319 -45.206782581747035 $437 45.206782581747035 $317 $440 forward 7 unknown #
straight-curve $-1 0 -45.206782581747035 -22.198603852002563 -1 0 0 I I #
point $-1 -69.035309915463728 -45.206782581747035 -22.198603852002563 #
point $-1 69.035309915463728 45.206782581747035 -22.198603852002563 #
face $-1 $414 $441 $14 $-1 $442 reversed single #
loop $-1 $-1 $443 $324 #
plane-surface $-1 0 0 -22.198603852002563 0 0 1 1 0 0 forward_v I I I I #
coedge $-1 $330 $400 $327 $391 forward $325 $-1 #
coedge $-1 $327 $409 $328 $393 forward $262 $-1 #
edge $-1 $410 -13.43423030229815 $397 -4.0945167971106819 $389 $444 forward 7 unknown #
coedge $-1 $329 $328 $412 $445 reversed $190 $-1 #
edge $-1 $446 -69.035309915463728 $397 69.035309915463728 $390 $447 forward 7 unknown #
coedge $-1 $448 $449 $329 $395 forward $441 $-1 #
edge $-1 $398 -69.035309915463728 $450 69.035309915463728 $394 $451 forward 7 unknown #
coedge $-1 $452 $330 $449 $453 forward $325 $-1 #
vertex $-1 $331 $454 #
vertex $-1 $453 $455 #
straight-curve $-1 69.035309915463728 -15.819660681587678 12.858890346815098 0 -1 0 I I #
coedge $-1 $389 $456 $332 $401 reversed $325 $-1 #
edge $-1 $410 -18.071860144603676 $403 45.206782581747035 $400 $457 forward 7 unknown #
coedge $-1 $339 $333 $456 $458 forward $204 $-1 #
vertex $-1 $401 $459 #
coedge $-1 $443 $460 $339 $405 forward $387 $-1 #
edge $-1 $407 -69.035309915463728 $461 69.035309915463728 $339 $462 forward 7 unknown #
coedge $-1 $463 $340 $460 $464 reversed $346 $-1 #
vertex $-1 $405 $465 #
straight-curve $-1 -69.035309915463728 45.206782581747035 0 0 0 -1 I I #
coedge $-1 $390 $343 $345 $413 reversed $262 $-1 #
vertex $-1 $401 $466 #
straight-curve $-1 0 -18.071860144603676 22.198603852002563 1 0 0 I I #
coedge $-1 $345 $463 $392 $445 forward $346 $-1 #
edge $-1 $446 4.0945167971106819 $347 13.43423030229815 $345 $467 forward 7 unknown #
face $-1 $276 $346 $14 $-1 $468 reversed single #
point $-1 -69.035309915463728 -18.071860144603676 22.198603852002567 #
face $-1 $469 $470 $15 $-1 $471 reversed single #
loop $-1 $-1 $472 $350 #
plane-surface $-1 0 -18.071860144603676 17.528747099408832 0 -1 0 0 0 -1 forward_v I I I I #
coedge $-1 $473 $474 $475 $476 reversed $351 $-1 #
coedge $-1 $353 $477 $478 $479 forward $283 $-1 #
coedge $-1 $478 $362 $354 $422 forward $364 $-1 #
edge $-1 $480 -64.735222270902412 $424 -59.081623319343791 $421 $481 forward 7 unknown #
edge $-1 $480 -90.413565163494113 $425 -83.94949986045971 $355 $482 forward 7 unknown #
vertex $-1 $422 $483 #
vertex $-1 $358 $484 #
straight-curve $-1 -39.098562751429242 61.066351883656765 22.198603852002563 0 -1 0 I I #
straight-curve $-1 -24.299080089021217 42.072941625854668 22.198603852002563 -1 0 0 I I #
edge $-1 $360 -33.798677515634409 $480 -14.799482662408025 $362 $485 forward 7 unknown #
point $-1 -58.097757604655627 45.206782581747035 16.545004900443942 #
coedge $-1 $363 $486 $487 $488 reversed $364 $-1 #
face $-1 $-1 $364 $15 $-1 $489 reversed single #
coedge $-1 $477 $366 $490 $491 forward $283 $-1 #
coedge $-1 $487 $492 $366 $434 reversed $493 $-1 #
edge $-1 $435 -45.206782581747035 $494 18.071860144603676 $433 $495 forward 7 unknown #
vertex $-1 $367 $496 #
straight-curve $-1 0 45.206782581747035 22.198603852002563 -1 0 0 I I #
vertex $-1 $375 $497 #
straight-curve $-1 0 45.206782581747035 -22.198603852002563 1 0 0 I I #
straight-curve $-1 -69.035309915463728 45.206782581747035 0 0 0 -1 I I #
straight-curve $-1 -69.035309915463728 0 -22.198603852002563 0 1 0 I I #
loop $-1 $-1 $394 $386 #
plane-surface $-1 0 -45.206782581747035 0 0 1 0 0 0 1 forward_v I I I I #
coedge $-1 $498 $404 $452 $499 forward $387 $-1 #
straight-curve $-1 69.035309915463728 -18.071860144603676 8.7643735497044162 0 0 -1 I I #
edge $-1 $450 -29.387121900159357 $446 -2.252199463015998 $412 $500 forward 7 unknown #
vertex $-1 $445 $501 #
straight-curve $-1 0 -18.071860144603676 12.858890346815098 1 0 0 I I #
coedge $-1 $502 $394 $463 $503 forward $441 $-1 #
coedge $-1 $394 $502 $396 $453 reversed $441 $-1 #
vertex $-1 $503 $504 #
straight-curve $-1 0 -45.206782581747035 12.858890346815098 -1 0 0 I I #
coedge $-1 $456 $396 $443 $499 reversed $325 $-1 #
edge $-1 $398 -12.858890346815098 $505 22.198603852002563 $396 $506 forward 7 unknown #
point $-1 69.035309915463728 -18.071860144603676 12.858890346815098 #
point $-1 69.035309915463728 -45.206782581747035 12.858890346815098 #
coedge $-1 $400 $452 $402 $458 reversed $325 $-1 #
straight-curve $-1 69.035309915463728 0 22.198603852002563 0 1 0 I I #
edge $-1 $403 -22.198603852002563 $461 22.198603852002563 $456 $507 forward 7 unknown #
point $-1 69.035309915463728 45.206782581747035 22.198603852002563 #
coedge $-1 $404 $498 $406 $464 forward $387 $-1 #
vertex $-1 $499 $508 #
straight-curve $-1 0 45.206782581747035 -22.198603852002563 1 0 0 I I #
coedge $-1 $412 $406 $448 $503 reversed $346 $-1 #
edge $-1 $509 -45.206782581747035 $407 45.206782581747035 $406 $510 forward 7 unknown #
point $-1 -69.035309915463728 45.206782581747035 -22.198603852002563 #
point $-1 69.035309915463728 -18.071860144603676 22.198603852002567 #
straight-curve $-1 -69.035309915463728 -18.071860144603676 8.7643735497044162 0 0 1 I I #
plane-surface $-1 -69.035309915463728 0 0 1 0 0 0 0 -1 forward_v I I I I #
face $-1 $511 $512 $15 $-1 $513 reversed single #
loop $-1 $-1 $514 $416 #
plane-surface $-1 69.035309915463728 0 0 -1 0 0 0 0 1 forward_v I I I I #
coedge $-1 $490 $515 $514 $516 reversed $417 $-1 #
coedge $-1 $517 $419 $515 $518 reversed $351 $-1 #
coedge $-1 $419 $517 $519 $520 reversed $351 $-1 #
coedge $-1 $521 $514 $419 $476 forward $470 $-1 #
edge $-1 $522 2.252199463015998 $523 29.387121900159357 $475 $524 forward 7 unknown #
coedge $-1 $420 $432 $525 $526 forward $283 $-1 #
coedge $-1 $527 $421 $420 $479 reversed $364 $-1 #
edge $-1 $528 -69.035309915463728 $424 39.098562751429242 $478 $436 forward 7 unknown #
vertex $-1 $428 $529 #
straight-curve $-1 -39.098562751429242 45.206782581747035 81.280227171346354 0 0 1 I I #
straight-curve $-1 -39.098562751429242 1.3734176334390753 95.622491474574772 0 -0.48480960649040278 0.87461971476443456 I I #
point $-1 -39.098562751429242 45.206782581747035 22.198603852002563 #
point $-1 -39.098562751429242 42.072941625854668 22.198603852002563 #
straight-curve $-1 -24.299080089021217 45.206782581747035 16.545004900443963 1 0 0 I I #
coedge $-1 $430 $527 $530 $531 reversed $364 $-1 #
coedge $-1 $532 $433 $430 $488 forward $493 $-1 #
edge $-1 $435 -22.198603852002563 $533 22.198603852002563 $430 $534 forward 7 unknown #
plane-surface $-1 0 45.206782581747035 0 0 -1 0 0 0 -1 forward_v I I I I #
coedge $-1 $535 $472 $432 $491 reversed $417 $-1 #
edge $-1 $494 -69.035309915463728 $536 69.035309915463728 $432 $537 forward 7 unknown #
coedge $-1 $433 $538 $535 $539 forward $493 $-1 #
loop $-1 $-1 $492 $540 #
vertex $-1 $539 $541 #
straight-curve $-1 -69.035309915463728 0 22.198603852002563 0 -1 0 I I #
point $-1 -69.035309915463728 45.206782581747035 22.198603852002563 #
point $-1 -69.035309915463728 45.206782581747035 -22.198603852002563 #
coedge $-1 $460 $443 $502 $542 forward $387 $-1 #
edge $-1 $461 -45.206782581747035 $505 45.206782581747035 $452 $543 forward 7 unknown #
straight-curve $-1 -69.035309915463728 -15.819660681587678 12.858890346815098 0 1 0 I I #
point $-1 -69.035309915463728 -18.071860144603676 12.858890346815098 #
coedge $-1 $449 $448 $498 $542 reversed $441 $-1 #
edge $-1 $450 -12.858890346815098 $509 22.198603852002563 $463 $544 forward 7 unknown #
point $-1 -69.035309915463728 -45.206782581747035 12.858890346815098 #
vertex $-1 $453 $545 #
straight-curve $-1 69.035309915463728 -45.206782581747035 0 0 0 -1 I I #
straight-curve $-1 69.035309915463728 45.206782581747035 0 0 0 -1 I I #
point $-1 69.035309915463728 45.206782581747035 -22.198603852002563 #
vertex $-1 $464 $546 #
straight-curve $-1 -69.035309915463728 0 -22.198603852002563 0 1 0 I I #
face $-1 $540 $547 $15 $-1 $548 reversed single #
loop $-1 $-1 $549 $469 #
plane-surface $-1 0 0 -22.198603852002563 0 0 1 1 0 0 forward_v I I I I #
coedge $-1 $475 $525 $472 $516 forward $470 $-1 #
coedge $-1 $472 $535 $473 $518 forward $417 $-1 #
edge $-1 $536 -13.43423030229815 $522 -4.0945167971106819 $514 $550 forward 7 unknown #
coedge $-1 $474 $473 $538 $551 reversed $351 $-1 #
edge $-1 $552 -69.035309915463728 $522 69.035309915463728 $515 $553 forward 7 unknown #
coedge $-1 $554 $555 $474 $520 forward $547 $-1 #
edge $-1 $523 -69.035309915463728 $556 69.035309915463728 $519 $557 forward 7 unknown #
coedge $-1 $558 $475 $555 $559 forward $470 $-1 #
vertex $-1 $476 $560 #
vertex $-1 $559 $561 #
straight-curve $-1 69.035309915463728 -15.819660681587678 12.858890346815098 0 -1 0 I I #
coedge $-1 $514 $562 $477 $526 reversed $470 $-1 #
edge $-1 $536 -18.071860144603676 $528 45.206782581747035 $525 $563 forward 7 unknown #
coedge $-1 $486 $478 $562 $564 forward $364 $-1 #
vertex $-1 $526 $565 #
point $-1 -39.098562751429242 45.206782581747035 16.545004900443942 #
coedge $-1 $549 $566 $486 $531 forward $512 $-1 #
edge $-1 $533 -69.035309915463728 $567 69.035309915463728 $486 $568 forward 7 unknown #
coedge $-1 $569 $487 $566 $570 reversed $493 $-1 #
vertex $-1 $531 $571 #
straight-curve $-1 -69.035309915463728 45.206782581747035 0 0 0 -1 I I #
coedge $-1 $515 $490 $492 $539 reversed $417 $-1 #
vertex $-1 $526 $572 #
straight-curve $-1 0 -18.071860144603676 22.198603852002563 1 0 0 I I #
coedge $-1 $492 $569 $517 $551 forward $493 $-1 #
edge $-1 $552 4.0945167971106819 $494 13.43423030229815 $492 $573 forward 7 unknown #
face $-1 $431 $493 $15 $-1 $574 reversed single #
point $-1 -69.035309915463728 -18.071860144603676 22.198603852002567 #
edge $-1 $505 -69.035309915463728 $509 69.035309915463728 $502 $575 forward 7 unknown #
straight-curve $-1 69.035309915463728 0 -22.198603852002563 0 -1 0 I I #
straight-curve $-1 -69.035309915463728 -45.206782581747035 0 0 0 -1 I I #
point $-1 69.035309915463728 -45.206782581747035 -22.198603852002563 #
point $-1 -69.035309915463728 -45.206782581747035 -22.198603852002563 #
loop $-1 $-1 $519 $511 #
plane-surface $-1 0 -45.206782581747035 0 0 1 0 0 0 1 forward_v I I I I #
coedge $-1 $576 $530 $558 $577 forward $512 $-1 #
straight-curve $-1 69.035309915463728 -18.071860144603676 8.7643735497044162 0 0 -1 I I #
edge $-1 $556 -29.387121900159357 $552 -2.252199463015998 $538 $578 forward 7 unknown #
vertex $-1 $551 $579 #
straight-curve $-1 0 -18.071860144603676 12.858890346815098 1 0 0 I I #
coedge $-1 $580 $519 $569 $581 forward $547 $-1 #
coedge $-1 $519 $580 $521 $559 reversed $547 $-1 #
vertex $-1 $581 $582 #
straight-curve $-1 0 -45.206782581747035 12.858890346815098 -1 0 0 I I #
coedge $-1 $562 $521 $549 $577 reversed $470 $-1 #
edge $-1 $523 -12.858890346815098 $583 22.198603852002563 $521 $584 forward 7 unknown #
point $-1 69.035309915463728 -18.071860144603676 12.858890346815098 #
point $-1 69.035309915463728 -45.206782581747035 12.858890346815098 #
coedge $-1 $525 $558 $527 $564 reversed $470 $-1 #
straight-curve $-1 69.035309915463728 0 22.198603852002563 0 1 0 I I #
edge $-1 $528 -22.198603852002563 $567 22.198603852002563 $562 $585 forward 7 unknown #
point $-1 69.035309915463728 45.206782581747035 22.198603852002563 #
coedge $-1 $530 $576 $532 $570 forward $512 $-1 #
vertex $-1 $577 $586 #
straight-curve $-1 0 45.206782581747035 -22.198603852002563 1 0 0 I I #
coedge $-1 $538 $532 $554 $581 reversed $493 $-1 #
edge $-1 $587 -45.206782581747035 $533 45.206782581747035 $532 $588 forward 7 unknown #
point $-1 -69.035309915463728 45.206782581747035 -22.198603852002563 #
point $-1 69.035309915463728 -18.071860144603676 22.198603852002567 #
straight-curve $-1 -69.035309915463728 -18.071860144603676 8.7643735497044162 0 0 1 I I #
plane-surface $-1 -69.035309915463728 0 0 1 0 0 0 0 -1 forward_v I I I I #
straight-curve $-1 0 -45.206782581747035 -22.198603852002563 -1 0 0 I I #
coedge $-1 $566 $549 $580 $589 forward $512 $-1 #
edge $-1 $567 -45.206782581747035 $583 45.206782581747035 $558 $590 forward 7 unknown #
straight-curve $-1 -69.035309915463728 -15.819660681587678 12.858890346815098 0 1 0 I I #
point $-1 -69.035309915463728 -18.071860144603676 12.858890346815098 #
coedge $-1 $555 $554 $576 $589 reversed $547 $-1 #
edge $-1 $556 -12.858890346815098 $587 22.198603852002563 $569 $591 forward 7 unknown #
point $-1 -69.035309915463728 -45.206782581747035 12.858890346815098 #
vertex $-1 $559 $592 #
straight-curve $-1 69.035309915463728 -45.206782581747035 0 0 0 -1 I I #
straight-curve $-1 69.035309915463728 45.206782581747035 0 0 0 -1 I I #
point $-1 69.035309915463728 45.206782581747035 -22.198603852002563 #
vertex $-1 $570 $593 #
straight-curve $-1 -69.035309915463728 0 -22.198603852002563 0 1 0 I I #
edge $-1 $583 -69.035309915463728 $587 69.035309915463728 $580 $594 forward 7 unknown #
straight-curve $-1 69.035309915463728 0 -22.198603852002563 0 -1 0 I I #
straight-curve $-1 -69.035309915463728 -45.206782581747035 0 0 0 -1 I I #
point $-1 69.035309915463728 -45.206782581747035 -22.198603852002563 #
point $-1 -69.035309915463728 -45.206782581747035 -22.198603852002563 #
straight-curve $-1 0 -45.206782581747035 -22.198603852002563 -1 0 0 I I #
End-of-ACIS-data 