500 0 4 0           
7 Unknown 11 ACIS 5.0 NT 24 Fri Mar 26 02:28:19 1999 
-1 9.9999999999999995e-007 1e-010 
body $-1 $4 $-1 $5 #
body $-1 $6 $-1 $7 #
body $-1 $8 $-1 $9 #
body $-1 $10 $-1 $11 #
lump $-1 $-1 $12 $0 #
transform $-1 1 0 0 0 1 0 0 0 1 73.56913968321787 42.324426870155087 17.066688660847351 1 rotate no_reflect no_shear #
lump $-1 $-1 $13 $1 #
transform $-1 1 0 0 0 1 0 0 0 1 73.56913968321787 42.324426870155087 17.066688660847351 1 rotate no_reflect no_shear #
lump $-1 $-1 $14 $2 #
transform $-1 1 0 0 0 1 0 0 0 1 73.56913968321787 42.324426870155087 17.066688660847351 1 rotate no_reflect no_shear #
lump $-1 $-1 $15 $3 #
transform $-1 1 0 0 0 1 0 0 0 1 73.56913968321787 42.324426870155087 17.066688660847351 1 rotate no_reflect no_shear #
shell $-1 $-1 $-1 $16 $-1 $4 #
shell $-1 $-1 $-1 $17 $-1 $6 #
shell $-1 $-1 $-1 $18 $-1 $8 #
shell $-1 $-1 $-1 $19 $-1 $10 #
face $-1 $20 $21 $12 $-1 $22 forward single #
face $-1 $23 $24 $13 $-1 $25 reversed single #
face $-1 $26 $27 $14 $-1 $28 reversed single #
face $-1 $29 $30 $15 $-1 $31 forward single #
face $-1 $32 $33 $12 $-1 $34 reversed single #
loop $-1 $-1 $35 $16 #
plane-surface $-1 0 0 17.066688660847351 0 0 1 1 0 0 forward_v I I I I #
face $-1 $36 $37 $13 $-1 $38 reversed single #
loop $-1 $-1 $39 $17 #
plane-surface $-1 -64.897082607527409 0 11.232023915324593 0 0 1 1 0 0 forward_v I I I I #
face $-1 $40 $41 $14 $-1 $42 reversed single #
loop $-1 $-1 $43 $18 #
plane-surface $-1 44.609313863173156 31.820429409079182 212.08202350811268 0 -1 0 -0.6018150307709319 0 -0.79863550430605224 forward_v I I I I #
face $-1 $44 $45 $15 $-1 $46 forward single #
loop $-1 $47 $48 $19 #
cone-surface $-1 64.247037111731814 23.370915008275951 8.8985556345668702 -0.6018150307709319 0 -0.79863550430605224 1.9965887607651305 0 -1.5045375769273297 1 I I 0 1 2.5 forward I I I I #
face $-1 $49 $50 $12 $-1 $51 reversed single #
loop $-1 $-1 $52 $20 #
plane-surface $-1 0 0 -17.066688660847351 0 0 1 1 0 0 forward_v I I I I #
coedge $-1 $53 $54 $55 $56 forward $21 $-1 #
face $-1 $57 $58 $13 $-1 $59 reversed single #
loop $-1 $-1 $60 $23 #
plane-surface $-1 -56.225025531836948 0 14.149356288085972 -1 0 0 0 0 1 forward_v I I I I #
coedge $-1 $61 $62 $63 $64 forward $24 $-1 #
face $-1 $65 $66 $14 $-1 $67 reversed single #
loop $-1 $-1 $68 $26 #
plane-surface $-1 -43.940714261320338 23.370915008275951 94.572169563574477 0.6018150307709319 0 0.79863550430605224 0.79863550430605224 0 -0.6018150307709319 forward_v I I I I #
coedge $-1 $69 $70 $71 $72 reversed $27 $-1 #
face $-1 $-1 $73 $15 $-1 $74 forward single #
loop $-1 $75 $76 $29 #
cone-surface $-1 61.500970205218678 23.370915008275951 5.2544018387869862 -0.6018150307709319 0 -0.79863550430605224 0.99829438038256524 0 -0.75226878846366485 1 I I -0.70710678118654746 0.70710678118654746 1.25 forward I I I I #
loop $-1 $-1 $77 $19 #
coedge $-1 $48 $48 $78 $79 reversed $30 $-1 #
face $-1 $80 $81 $12 $-1 $82 reversed single #
loop $-1 $-1 $83 $32 #
plane-surface $-1 0 -42.324426870155087 0 0 1 0 0 0 1 forward_v I I I I #
coedge $-1 $84 $85 $86 $87 forward $33 $-1 #
coedge $-1 $88 $35 $89 $90 forward $21 $-1 #
coedge $-1 $35 $88 $91 $92 forward $21 $-1 #
coedge $-1 $93 $94 $35 $56 reversed $95 $-1 #
edge $-1 $96 -42.324426870155087 $97 42.324426870155087 $55 $98 forward 7 unknown #
face $-1 $99 $100 $13 $-1 $101 reversed single #
loop $-1 $-1 $102 $36 #
plane-surface $-1 0 42.324426870155087 0 0 -1 0 0 0 -1 forward_v I I I I #
coedge $-1 $63 $103 $104 $105 reversed $37 $-1 #
coedge $-1 $106 $39 $107 $108 reversed $24 $-1 #
coedge $-1 $39 $106 $109 $110 reversed $24 $-1 #
coedge $-1 $111 $60 $39 $64 reversed $37 $-1 #
edge $-1 $112 -42.324426870155087 $113 42.324426870155087 $63 $114 forward 7 unknown #
face $-1 $115 $116 $14 $-1 $117 forward single #
loop $-1 $-1 $118 $40 #
plane-surface $-1 44.609313863173156 14.921400607472719 212.08202350811268 0 1 0 0.6018150307709319 0 0.79863550430605224 forward_v I I I I #
coedge $-1 $119 $120 $121 $122 reversed $41 $-1 #
coedge $-1 $70 $43 $123 $124 reversed $27 $-1 #
coedge $-1 $43 $69 $119 $125 reversed $27 $-1 #
coedge $-1 $121 $126 $43 $72 forward $116 $-1 #
edge $-1 $127 -51.264482751631292 $128 -36.607873844758103 $71 $129 forward 7 unknown #
loop $-1 $-1 $78 $44 #
plane-surface $-1 -43.940714261320338 23.370915008275951 94.572169563574477 0.6018150307709319 0 0.79863550430605224 0.79863550430605224 0 -0.6018150307709319 forward_v I I I I #
loop $-1 $-1 $130 $29 #
coedge $-1 $76 $76 $77 $131 reversed $45 $-1 #
coedge $-1 $77 $77 $76 $131 forward $47 $-1 #
coedge $-1 $78 $78 $48 $79 forward $73 $-1 #
edge $-1 $132 0 $132 6.2831853071796004 $78 $133 forward 7 unknown #
face $-1 $134 $135 $12 $-1 $136 reversed single #
loop $-1 $-1 $137 $49 #
plane-surface $-1 -73.56913968321787 0 0 1 0 0 0 0 -1 forward_v I I I I #
coedge $-1 $138 $91 $139 $140 forward $50 $-1 #
coedge $-1 $141 $52 $138 $142 forward $33 $-1 #
coedge $-1 $52 $141 $143 $144 forward $33 $-1 #
coedge $-1 $94 $93 $52 $87 reversed $95 $-1 #
edge $-1 $145 -42.324426870155087 $146 42.324426870155087 $86 $147 forward 7 unknown #
coedge $-1 $54 $53 $148 $149 forward $21 $-1 #
coedge $-1 $150 $151 $53 $90 reversed $135 $-1 #
edge $-1 $97 -73.56913968321787 $152 73.56913968321787 $89 $153 forward 7 unknown #
coedge $-1 $83 $154 $54 $92 reversed $50 $-1 #
edge $-1 $155 -73.56913968321787 $96 73.56913968321787 $91 $156 forward 7 unknown #
coedge $-1 $86 $55 $154 $157 forward $95 $-1 #
coedge $-1 $55 $86 $150 $158 reversed $95 $-1 #
loop $-1 $-1 $93 $134 #
vertex $-1 $56 $159 #
vertex $-1 $56 $160 #
straight-curve $-1 73.56913968321787 0 17.066688660847351 0 1 0 I I #
face $-1 $161 $162 $13 $-1 $163 forward single #
loop $-1 $-1 $164 $57 #
plane-surface $-1 -73.56913968321787 0 0 1 0 0 0 0 -1 forward_v I I I I #
coedge $-1 $109 $165 $111 $166 forward $58 $-1 #
coedge $-1 $60 $111 $167 $168 reversed $37 $-1 #
coedge $-1 $169 $107 $60 $105 forward $170 $-1 #
edge $-1 $113 4.1573457712816069 $171 9.9920105168043651 $104 $172 forward 7 unknown #
coedge $-1 $62 $61 $164 $173 reversed $24 $-1 #
coedge $-1 $104 $174 $61 $108 forward $170 $-1 #
edge $-1 $175 -41.120598379454165 $113 -23.776484228073244 $107 $176 forward 7 unknown #
coedge $-1 $177 $102 $62 $110 forward $58 $-1 #
edge $-1 $112 23.776484228073244 $178 41.120598379454165 $109 $179 forward 7 unknown #
coedge $-1 $103 $63 $102 $166 reversed $37 $-1 #
vertex $-1 $110 $180 #
vertex $-1 $108 $181 #
straight-curve $-1 -56.225025531836948 0 11.232023915324593 0 -1 0 I I #
face $-1 $-1 $182 $14 $-1 $183 reversed single #
loop $-1 $-1 $71 $65 #
plane-surface $-1 0 0 17.066688660847351 0 0 1 1 0 0 forward_v I I I I #
coedge $-1 $184 $185 $186 $187 reversed $66 $-1 #
coedge $-1 $188 $68 $70 $125 forward $41 $-1 #
coedge $-1 $68 $188 $184 $189 forward $41 $-1 #
coedge $-1 $186 $71 $68 $122 forward $116 $-1 #
edge $-1 $128 -20.134971904941207 $190 -3.2359431033347441 $121 $191 forward 7 unknown #
coedge $-1 $192 $193 $69 $124 forward $182 $-1 #
edge $-1 $194 -100.01887031497536 $127 -88.974323093208994 $123 $195 forward 7 unknown #
edge $-1 $128 128.78621659456016 $194 147.13827936643574 $70 $196 forward 7 unknown #
coedge $-1 $71 $186 $192 $197 forward $116 $-1 #
vertex $-1 $124 $198 #
vertex $-1 $72 $199 #
straight-curve $-1 22.304656931586578 31.820429409079182 17.066688660847348 -1 0 0 I I #
coedge $-1 $130 $130 $-1 $200 reversed $75 $-1 #
edge $-1 $201 0 $201 6.2831853071796004 $76 $202 forward 7 unknown #
vertex $-1 $79 $203 #
ellipse-curve $-1 66.240835229781268 23.370915008275951 11.544415049964174 0.6018150307709319 0 0.79863550430605224 1.9965887607651305 0 -1.5045375769273297 1 I I #
face $-1 $-1 $95 $12 $-1 $204 reversed single #
loop $-1 $-1 $150 $80 #
plane-surface $-1 0 42.324426870155087 0 0 -1 0 0 0 -1 forward_v I I I I #
coedge $-1 $205 $148 $151 $206 forward $81 $-1 #
coedge $-1 $154 $83 $84 $142 reversed $50 $-1 #
coedge $-1 $148 $205 $83 $140 reversed $81 $-1 #
edge $-1 $155 -17.066688660847351 $207 17.066688660847351 $139 $208 forward 7 unknown #
coedge $-1 $85 $84 $205 $209 forward $33 $-1 #
edge $-1 $146 -73.56913968321787 $207 73.56913968321787 $138 $210 forward 7 unknown #
coedge $-1 $151 $150 $85 $144 reversed $135 $-1 #
edge $-1 $211 -73.56913968321787 $145 73.56913968321787 $143 $212 forward 7 unknown #
vertex $-1 $87 $213 #
vertex $-1 $157 $214 #
straight-curve $-1 73.56913968321787 0 -17.066688660847351 0 -1 0 I I #
coedge $-1 $137 $139 $88 $149 reversed $81 $-1 #
edge $-1 $152 -42.324426870155087 $155 42.324426870155087 $148 $215 forward 7 unknown #
coedge $-1 $143 $89 $94 $158 forward $135 $-1 #
coedge $-1 $89 $143 $137 $206 reversed $135 $-1 #
vertex $-1 $90 $216 #
straight-curve $-1 0 42.324426870155087 17.066688660847351 -1 0 0 I I #
coedge $-1 $91 $138 $93 $157 reversed $50 $-1 #
vertex $-1 $149 $217 #
straight-curve $-1 0 -42.324426870155087 17.066688660847351 1 0 0 I I #
edge $-1 $96 -17.066688660847351 $146 17.066688660847351 $93 $218 forward 7 unknown #
edge $-1 $97 -17.066688660847351 $145 17.066688660847351 $94 $219 forward 7 unknown #
point $-1 73.56913968321787 -42.324426870155087 17.066688660847351 #
point $-1 73.56913968321787 42.324426870155087 17.066688660847351 #
face $-1 $-1 $170 $13 $-1 $220 reversed single #
loop $-1 $-1 $167 $99 #
plane-surface $-1 0 0 17.066688660847351 0 0 1 1 0 0 forward_v I I I I #
coedge $-1 $221 $222 $106 $173 forward $100 $-1 #
coedge $-1 $102 $177 $223 $224 reversed $58 $-1 #
edge $-1 $225 -9.9920105168043651 $112 -4.1573457712816069 $102 $226 forward 7 unknown #
coedge $-1 $223 $227 $103 $168 forward $162 $-1 #
edge $-1 $171 -42.324426870155087 $225 42.324426870155087 $167 $228 forward 7 unknown #
coedge $-1 $174 $104 $227 $229 reversed $170 $-1 #
loop $-1 $-1 $104 $161 #
vertex $-1 $105 $230 #
straight-curve $-1 -56.225025531836948 -42.324426870155087 7.074678144042986 0 0 1 I I #
edge $-1 $178 -42.324426870155087 $175 42.324426870155087 $164 $231 forward 7 unknown #
coedge $-1 $107 $169 $221 $232 forward $170 $-1 #
vertex $-1 $173 $233 #
straight-curve $-1 -32.448541303763704 -42.324426870155087 11.232023915324593 1 0 0 I I #
coedge $-1 $165 $109 $222 $234 reversed $58 $-1 #
vertex $-1 $173 $235 #
straight-curve $-1 -32.448541303763704 42.324426870155087 11.232023915324593 -1 0 0 I I #
point $-1 -56.225025531836948 42.324426870155087 11.232023915324593 #
point $-1 -56.225025531836948 -42.324426870155087 11.232023915324593 #
loop $-1 $-1 $123 $115 #
plane-surface $-1 73.56913968321787 0 0 -1 0 0 0 0 1 forward_v I I I I #
coedge $-1 $185 $118 $120 $189 reversed $66 $-1 #
coedge $-1 $118 $184 $236 $237 reversed $66 $-1 #
coedge $-1 $126 $121 $118 $187 forward $116 $-1 #
edge $-1 $190 36.607873844758103 $238 51.264482751631292 $186 $239 forward 7 unknown #
coedge $-1 $120 $119 $193 $240 reversed $41 $-1 #
edge $-1 $241 -147.13827936643574 $190 -128.78621659456016 $184 $242 forward 7 unknown #
vertex $-1 $122 $243 #
straight-curve $-1 58.912530776344703 11.685457504137975 17.066688660847348 0 -1 0 I I #
coedge $-1 $236 $123 $126 $197 reversed $182 $-1 #
coedge $-1 $123 $236 $188 $240 forward $182 $-1 #
vertex $-1 $124 $244 #
straight-curve $-1 73.56913968321787 31.820429409079182 106.04101175405634 0 0 1 I I #
straight-curve $-1 -43.940714261320338 31.820429409079182 94.572169563574477 0.79863550430605224 0 -0.6018150307709319 I I #
edge $-1 $238 14.921400607472719 $127 31.820429409079182 $192 $245 forward 7 unknown #
point $-1 73.56913968321787 31.820429409079182 17.066688660847351 #
point $-1 58.912530776344681 31.820429409079182 17.066688660847348 #
edge $-1 $246 1 $246 0 $130 $-1 forward 7 unknown #
vertex $-1 $131 $247 #
ellipse-curve $-1 62.253238993682345 23.370915008275951 6.2526962191695512 0.6018150307709319 0 0.79863550430605224 1.9965887607651305 0 -1.5045375769273297 1 I I #
point $-1 68.237423990546418 23.370915008275951 10.039877473036857 #
plane-surface $-1 73.56913968321787 0 0 -1 0 0 0 0 1 forward_v I I I I #
coedge $-1 $139 $137 $141 $209 reversed $81 $-1 #
edge $-1 $152 -17.066688660847351 $211 17.066688660847351 $151 $248 forward 7 unknown #
vertex $-1 $209 $249 #
straight-curve $-1 -73.56913968321787 -42.324426870155087 0 0 0 -1 I I #
edge $-1 $207 -42.324426870155087 $211 42.324426870155087 $205 $250 forward 7 unknown #
straight-curve $-1 0 -42.324426870155087 -17.066688660847351 -1 0 0 I I #
vertex $-1 $144 $251 #
straight-curve $-1 0 42.324426870155087 -17.066688660847351 1 0 0 I I #
point $-1 73.56913968321787 42.324426870155087 -17.066688660847351 #
point $-1 73.56913968321787 -42.324426870155087 -17.066688660847351 #
straight-curve $-1 -73.56913968321787 0 17.066688660847351 0 -1 0 I I #
point $-1 -73.56913968321787 42.324426870155087 17.066688660847351 #
point $-1 -73.56913968321787 -42.324426870155087 17.066688660847351 #
straight-curve $-1 73.56913968321787 -42.324426870155087 0 0 0 -1 I I #
straight-curve $-1 73.56913968321787 42.324426870155087 0 0 0 -1 I I #
plane-surface $-1 0 -42.324426870155087 0 0 1 0 0 0 1 forward_v I I I I #
coedge $-1 $252 $164 $174 $232 reversed $100 $-1 #
coedge $-1 $164 $252 $177 $234 forward $100 $-1 #
coedge $-1 $253 $167 $165 $224 forward $162 $-1 #
edge $-1 $225 56.225025531836948 $254 73.56913968321787 $165 $255 forward 7 unknown #
vertex $-1 $224 $256 #
straight-curve $-1 -56.225025531836948 42.324426870155087 7.074678144042986 0 0 -1 I I #
coedge $-1 $167 $253 $169 $229 forward $162 $-1 #
straight-curve $-1 -56.225025531836948 0 17.066688660847351 0 1 0 I I #
edge $-1 $257 -73.56913968321787 $171 -56.225025531836948 $169 $258 forward 7 unknown #
point $-1 -56.225025531836948 -42.324426870155087 17.066688660847351 #
straight-curve $-1 -73.56913968321787 0 11.232023915324593 0 -1 0 I I #
edge $-1 $257 -17.066688660847351 $175 -11.232023915324593 $221 $259 forward 7 unknown #
point $-1 -73.56913968321787 -42.324426870155087 11.232023915324593 #
edge $-1 $254 -17.066688660847351 $178 -11.232023915324593 $177 $260 forward 7 unknown #
point $-1 -73.56913968321787 42.324426870155087 11.232023915324593 #
coedge $-1 $193 $192 $185 $237 forward $182 $-1 #
edge $-1 $238 88.974323093208994 $241 100.01887031497536 $236 $261 forward 7 unknown #
vertex $-1 $197 $262 #
straight-curve $-1 22.304656931586578 14.921400607472719 17.066688660847348 1 0 0 I I #
edge $-1 $241 3.2359431033347441 $194 20.134971904941207 $193 $263 forward 7 unknown #
vertex $-1 $240 $264 #
straight-curve $-1 -43.940714261320338 14.921400607472719 94.572169563574477 -0.79863550430605224 0 0.6018150307709319 I I #
point $-1 58.912530776344681 14.921400607472719 17.066688660847348 #
point $-1 73.56913968321787 31.820429409079182 6.0221414390809827 #
straight-curve $-1 73.56913968321787 0 17.066688660847351 0 1 0 I I #
vertex $-1 $200 $265 #
point $-1 64.24982775444748 23.370915008275951 4.7481586422422222 #
straight-curve $-1 -73.56913968321787 42.324426870155087 0 0 0 -1 I I #
point $-1 -73.56913968321787 -42.324426870155087 -17.066688660847351 #
straight-curve $-1 -73.56913968321787 0 -17.066688660847351 0 1 0 I I #
point $-1 -73.56913968321787 42.324426870155087 -17.066688660847351 #
coedge $-1 $222 $221 $253 $266 reversed $100 $-1 #
coedge $-1 $227 $223 $252 $266 forward $162 $-1 #
vertex $-1 $224 $267 #
straight-curve $-1 0 42.324426870155087 17.066688660847351 -1 0 0 I I #
point $-1 -56.225025531836948 42.324426870155087 17.066688660847351 #
vertex $-1 $266 $268 #
straight-curve $-1 0 -42.324426870155087 17.066688660847351 1 0 0 I I #
straight-curve $-1 -73.56913968321787 -42.324426870155087 0 0 0 -1 I I #
straight-curve $-1 -73.56913968321787 42.324426870155087 0 0 0 -1 I I #
straight-curve $-1 73.56913968321787 14.921400607472719 106.04101175405634 0 0 -1 I I #
point $-1 73.56913968321787 14.921400607472719 17.066688660847351 #
straight-curve $-1 73.569139683217855 11.685457504137975 6.0221414390809827 0 1 0 I I #
point $-1 73.56913968321787 14.921400607472719 6.0221414390809827 #
point $-1 60.748701416755011 23.370915008275951 4.2561074584044212 #
edge $-1 $254 -42.324426870155087 $257 42.324426870155087 $252 $269 forward 7 unknown #
point $-1 -73.56913968321787 42.324426870155087 17.066688660847351 #
point $-1 -73.56913968321787 -42.324426870155087 17.066688660847351 #
straight-curve $-1 -73.56913968321787 0 17.066688660847351 0 -1 0 I I #
End-of-ACIS-data 