500 0 5 0           
7 Unknown 11 ACIS 5.0 NT 24 Thu Mar 25 15:20:30 1999 
-1 9.9999999999999995e-007 1e-010 
body $-1 $5 $-1 $6 #
body $-1 $7 $-1 $8 #
body $-1 $9 $-1 $10 #
body $-1 $11 $-1 $12 #
body $-1 $13 $-1 $14 #
lump $-1 $-1 $15 $0 #
transform $-1 1 0 0 0 1 0 0 0 1 50.871913815729243 34.002534441738057 15.111292063584642 1 rotate no_reflect no_shear #
lump $-1 $-1 $16 $1 #
transform $-1 1 0 0 0 1 0 0 0 1 50.871913815729243 34.002534441738057 15.111292063584642 1 rotate no_reflect no_shear #
lump $-1 $-1 $17 $2 #
transform $-1 1 0 0 0 1 0 0 0 1 50.871913815729243 34.002534441738057 15.111292063584642 1 rotate no_reflect no_shear #
lump $-1 $-1 $18 $3 #
transform $-1 1 0 0 0 1 0 0 0 1 50.871913815729243 34.002534441738057 15.111292063584642 1 rotate no_reflect no_shear #
lump $-1 $-1 $19 $4 #
transform $-1 1 0 0 0 1 0 0 0 1 50.871913815729243 34.002534441738057 15.111292063584642 1 rotate no_reflect no_shear #
shell $-1 $-1 $-1 $20 $-1 $5 #
shell $-1 $-1 $-1 $21 $-1 $7 #
shell $-1 $-1 $-1 $22 $-1 $9 #
shell $-1 $-1 $-1 $23 $-1 $11 #
shell $-1 $-1 $-1 $24 $-1 $13 #
face $-1 $25 $26 $15 $-1 $27 forward single #
face $-1 $28 $29 $16 $-1 $30 forward single #
face $-1 $31 $32 $17 $-1 $33 reversed single #
face $-1 $34 $35 $18 $-1 $36 forward single #
face $-1 $37 $38 $19 $-1 $39 forward single #
face $-1 $40 $41 $15 $-1 $42 reversed single #
loop $-1 $-1 $43 $20 #
plane-surface $-1 0 0 15.111292063584642 0 0 1 1 0 0 forward_v I I I I #
face $-1 $44 $45 $16 $-1 $46 reversed single #
loop $-1 $-1 $47 $21 #
plane-surface $-1 0 -34.002534441738057 0 0 1 0 0 0 1 forward_v I I I I #
face $-1 $48 $49 $17 $-1 $50 reversed single #
loop $-1 $-1 $51 $22 #
plane-surface $-1 -35.391587491786368 80.324040039622844 116.46964443698946 -1 0 0 0 0.82903758062907751 0.55919289150049634 forward_v I I I I #
face $-1 $52 $53 $18 $-1 $54 forward single #
loop $-1 $55 $56 $23 #
cone-surface $-1 -46.448963437459852 27.148598623340263 7.2412346901382652 0 -0.82903758062907751 -0.55919289150049634 2 0 0 1 I I 0 1 2 forward I I I I #
face $-1 $57 $58 $19 $-1 $59 forward single #
loop $-1 $60 $61 $24 #
cone-surface $-1 -39.814537870055759 27.148598623340263 7.2412346901382652 0 -0.82903758062907751 -0.55919289150049634 2 0 0 1 I I 0 1 2 forward I I I I #
face $-1 $62 $63 $15 $-1 $64 reversed single #
loop $-1 $-1 $65 $25 #
plane-surface $-1 0 0 -15.111292063584642 0 0 1 1 0 0 forward_v I I I I #
coedge $-1 $66 $67 $68 $69 forward $26 $-1 #
face $-1 $70 $71 $16 $-1 $72 forward single #
loop $-1 $-1 $73 $28 #
plane-surface $-1 -50.871913815729243 0 0 1 0 0 0 0 -1 forward_v I I I I #
coedge $-1 $74 $75 $76 $77 forward $29 $-1 #
face $-1 $78 $79 $17 $-1 $80 forward single #
loop $-1 $-1 $81 $31 #
plane-surface $-1 -43.131750653757805 -4.0254166639033855 59.575219271426086 0 0.82903758062907751 0.55919289150049634 1 0 0 forward_v I I I I #
coedge $-1 $82 $83 $84 $85 reversed $32 $-1 #
face $-1 $-1 $86 $18 $-1 $87 forward single #
loop $-1 $88 $89 $34 #
cone-surface $-1 -46.448963437459852 23.483952447203393 4.7693997101060717 0 -0.82903758062907751 -0.55919289150049634 1 0 0 1 I I -0.70710678118654746 0.70710678118654746 1 forward I I I I #
loop $-1 $-1 $90 $23 #
coedge $-1 $56 $56 $91 $92 reversed $35 $-1 #
face $-1 $-1 $93 $19 $-1 $94 forward single #
loop $-1 $95 $96 $37 #
cone-surface $-1 -39.814537870055759 23.483952447203393 4.7693997101060717 0 -0.82903758062907751 -0.55919289150049634 1 0 0 1 I I -0.70710678118654746 0.70710678118654746 1 forward I I I I #
loop $-1 $-1 $97 $24 #
coedge $-1 $61 $61 $98 $99 reversed $38 $-1 #
face $-1 $100 $101 $15 $-1 $102 reversed single #
loop $-1 $-1 $103 $40 #
plane-surface $-1 0 -34.002534441738057 0 0 1 0 0 0 1 forward_v I I I I #
coedge $-1 $104 $105 $106 $107 forward $41 $-1 #
coedge $-1 $108 $43 $109 $110 forward $26 $-1 #
coedge $-1 $43 $108 $111 $112 forward $26 $-1 #
coedge $-1 $113 $114 $43 $69 reversed $115 $-1 #
edge $-1 $116 -34.002534441738057 $117 34.002534441738057 $68 $118 forward 7 unknown #
face $-1 $119 $120 $16 $-1 $121 reversed single #
loop $-1 $-1 $122 $44 #
plane-surface $-1 0 -43.612411370573994 -7.1092074936655063 0 0 1 1 0 0 forward_v I I I I #
coedge $-1 $123 $124 $75 $125 forward $45 $-1 #
coedge $-1 $126 $47 $127 $128 reversed $29 $-1 #
coedge $-1 $47 $126 $73 $125 reversed $29 $-1 #
coedge $-1 $129 $122 $47 $77 reversed $71 $-1 #
edge $-1 $130 -50.871913815729243 $131 50.871913815729243 $76 $132 forward 7 unknown #
face $-1 $133 $134 $17 $-1 $135 reversed single #
loop $-1 $-1 $136 $48 #
plane-surface $-1 0 0 15.111292063584642 0 0 1 1 0 0 forward_v I I I I #
coedge $-1 $137 $138 $139 $140 reversed $49 $-1 #
coedge $-1 $83 $51 $141 $142 reversed $32 $-1 #
coedge $-1 $51 $82 $137 $143 reversed $32 $-1 #
coedge $-1 $139 $144 $51 $85 forward $134 $-1 #
edge $-1 $145 43.123530154910085 $146 55.038360724739455 $84 $147 forward 7 unknown #
loop $-1 $-1 $91 $52 #
plane-surface $-1 -43.131750653757805 -4.0254166639033855 59.575219271426086 0 0.82903758062907751 0.55919289150049634 1 0 0 forward_v I I I I #
loop $-1 $-1 $148 $34 #
coedge $-1 $89 $89 $90 $149 reversed $53 $-1 #
coedge $-1 $90 $90 $89 $149 forward $55 $-1 #
coedge $-1 $91 $91 $56 $92 forward $86 $-1 #
edge $-1 $150 -1.2156737473445388e-015 $150 6.2831853071795996 $91 $151 forward 7 unknown #
loop $-1 $-1 $98 $57 #
plane-surface $-1 -43.131750653757805 -4.0254166639033855 59.575219271426086 0 0.82903758062907751 0.55919289150049634 1 0 0 forward_v I I I I #
loop $-1 $-1 $152 $37 #
coedge $-1 $96 $96 $97 $153 reversed $58 $-1 #
coedge $-1 $97 $97 $96 $153 forward $60 $-1 #
coedge $-1 $98 $98 $61 $99 forward $93 $-1 #
edge $-1 $154 -1.2156737473445388e-015 $154 6.2831853071795996 $98 $155 forward 7 unknown #
face $-1 $156 $157 $15 $-1 $158 reversed single #
loop $-1 $-1 $159 $62 #
plane-surface $-1 -50.871913815729243 0 0 1 0 0 0 0 -1 forward_v I I I I #
coedge $-1 $160 $111 $161 $162 forward $63 $-1 #
coedge $-1 $163 $65 $160 $164 forward $41 $-1 #
coedge $-1 $65 $163 $165 $166 forward $41 $-1 #
coedge $-1 $114 $113 $65 $107 reversed $115 $-1 #
edge $-1 $167 -34.002534441738057 $168 34.002534441738057 $106 $169 forward 7 unknown #
coedge $-1 $67 $66 $170 $171 forward $26 $-1 #
coedge $-1 $172 $173 $66 $110 reversed $157 $-1 #
edge $-1 $117 -50.871913815729243 $174 50.871913815729243 $109 $175 forward 7 unknown #
coedge $-1 $103 $176 $67 $112 reversed $63 $-1 #
edge $-1 $177 -50.871913815729243 $116 50.871913815729243 $111 $178 forward 7 unknown #
coedge $-1 $106 $68 $176 $179 forward $115 $-1 #
coedge $-1 $68 $106 $172 $180 reversed $115 $-1 #
loop $-1 $-1 $113 $156 #
vertex $-1 $69 $181 #
vertex $-1 $69 $182 #
straight-curve $-1 50.871913815729243 0 15.111292063584642 0 1 0 I I #
face $-1 $183 $184 $16 $-1 $185 reversed single #
loop $-1 $-1 $186 $70 #
plane-surface $-1 0 -43.612411370573994 -10.220564744441598 0 0 1 1 0 0 forward_v I I I I #
coedge $-1 $76 $187 $188 $189 forward $71 $-1 #
coedge $-1 $190 $73 $191 $192 reversed $45 $-1 #
coedge $-1 $73 $190 $129 $193 reversed $45 $-1 #
edge $-1 $130 7.1092074936655063 $194 10.220564744441598 $73 $195 forward 7 unknown #
coedge $-1 $75 $74 $196 $197 forward $29 $-1 #
coedge $-1 $188 $198 $74 $128 forward $199 $-1 #
edge $-1 $200 -10.220564744441598 $131 -7.1092074936655063 $127 $201 forward 7 unknown #
coedge $-1 $187 $76 $124 $193 forward $71 $-1 #
vertex $-1 $125 $202 #
vertex $-1 $189 $203 #
straight-curve $-1 0 -34.002534441738057 -7.1092074936655063 1 0 0 I I #
face $-1 $-1 $204 $17 $-1 $205 reversed single #
loop $-1 $-1 $84 $78 #
plane-surface $-1 0 34.002534441738057 0 0 -1 0 0 0 -1 forward_v I I I I #
coedge $-1 $141 $206 $207 $208 forward $79 $-1 #
coedge $-1 $207 $81 $83 $143 forward $49 $-1 #
coedge $-1 $81 $207 $209 $210 reversed $49 $-1 #
coedge $-1 $211 $84 $81 $140 forward $134 $-1 #
edge $-1 $146 13.825712164907465 $212 29.306038488850341 $139 $213 forward 7 unknown #
coedge $-1 $214 $136 $82 $142 forward $79 $-1 #
edge $-1 $215 -14.196140023853385 $145 -6.1594855780733653 $141 $216 forward 7 unknown #
edge $-1 $146 -68.005068883476142 $215 -53.633186536733369 $83 $217 forward 7 unknown #
coedge $-1 $84 $211 $214 $218 reversed $134 $-1 #
vertex $-1 $218 $219 #
vertex $-1 $85 $220 #
straight-curve $-1 -35.391587491786368 34.002534441738057 58.234822218494728 0 0 -1 I I #
coedge $-1 $148 $148 $-1 $221 reversed $88 $-1 #
edge $-1 $222 0 $222 6.2831853071796004 $89 $223 forward 7 unknown #
vertex $-1 $92 $224 #
ellipse-curve $-1 -46.448963437459852 29.984207218848052 9.1538767786699591 0 0.82903758062907751 0.55919289150049634 2 0 0 1 I I #
coedge $-1 $152 $152 $-1 $225 reversed $95 $-1 #
edge $-1 $226 0 $226 6.2831853071796004 $96 $227 forward 7 unknown #
vertex $-1 $99 $228 #
ellipse-curve $-1 -39.814537870055759 29.984207218848052 9.1538767786699591 0 0.82903758062907751 0.55919289150049634 2 0 0 1 I I #
face $-1 $-1 $115 $15 $-1 $229 reversed single #
loop $-1 $-1 $172 $100 #
plane-surface $-1 0 34.002534441738057 0 0 -1 0 0 0 -1 forward_v I I I I #
coedge $-1 $230 $170 $173 $231 forward $101 $-1 #
coedge $-1 $176 $103 $104 $164 reversed $63 $-1 #
coedge $-1 $170 $230 $103 $162 reversed $101 $-1 #
edge $-1 $177 -15.111292063584642 $232 15.111292063584642 $161 $233 forward 7 unknown #
coedge $-1 $105 $104 $230 $234 forward $41 $-1 #
edge $-1 $168 -50.871913815729243 $232 50.871913815729243 $160 $235 forward 7 unknown #
coedge $-1 $173 $172 $105 $166 reversed $157 $-1 #
edge $-1 $236 -50.871913815729243 $167 50.871913815729243 $165 $237 forward 7 unknown #
vertex $-1 $107 $238 #
vertex $-1 $179 $239 #
straight-curve $-1 50.871913815729243 0 -15.111292063584642 0 -1 0 I I #
coedge $-1 $159 $161 $108 $171 reversed $101 $-1 #
edge $-1 $174 -34.002534441738057 $177 34.002534441738057 $170 $240 forward 7 unknown #
coedge $-1 $165 $109 $114 $180 forward $157 $-1 #
coedge $-1 $109 $165 $159 $231 reversed $157 $-1 #
vertex $-1 $110 $241 #
straight-curve $-1 0 34.002534441738057 15.111292063584642 -1 0 0 I I #
coedge $-1 $111 $160 $113 $179 reversed $63 $-1 #
vertex $-1 $171 $242 #
straight-curve $-1 0 -34.002534441738057 15.111292063584642 1 0 0 I I #
edge $-1 $116 -15.111292063584642 $168 15.111292063584642 $113 $243 forward 7 unknown #
edge $-1 $117 -15.111292063584642 $167 15.111292063584642 $114 $244 forward 7 unknown #
point $-1 50.871913815729243 -34.002534441738057 15.111292063584642 #
point $-1 50.871913815729243 34.002534441738057 15.111292063584642 #
face $-1 $-1 $199 $16 $-1 $245 reversed single #
loop $-1 $-1 $246 $119 #
plane-surface $-1 0 -53.222288299409932 -8.664886119053552 0 1 0 0 0 1 forward_v I I I I #
coedge $-1 $247 $196 $198 $248 forward $120 $-1 #
coedge $-1 $122 $129 $249 $250 forward $71 $-1 #
coedge $-1 $251 $127 $122 $189 reversed $199 $-1 #
edge $-1 $252 -9.6098769288359378 $131 9.6098769288359378 $188 $253 forward 7 unknown #
coedge $-1 $124 $123 $246 $254 reversed $45 $-1 #
coedge $-1 $196 $247 $123 $192 forward $120 $-1 #
edge $-1 $255 -9.6098769288359378 $194 9.6098769288359378 $123 $256 forward 7 unknown #
edge $-1 $130 -9.6098769288359378 $257 9.6098769288359378 $124 $258 forward 7 unknown #
vertex $-1 $125 $259 #
straight-curve $-1 -50.871913815729243 -34.002534441738057 0 0 0 -1 I I #
coedge $-1 $186 $191 $126 $197 reversed $120 $-1 #
edge $-1 $200 -50.871913815729243 $194 50.871913815729243 $196 $260 forward 7 unknown #
coedge $-1 $127 $251 $186 $248 reversed $199 $-1 #
loop $-1 $-1 $127 $183 #
vertex $-1 $128 $261 #
straight-curve $-1 50.871913815729243 -34.002534441738057 0 0 0 1 I I #
point $-1 -50.871913815729243 -34.002534441738057 -7.1092074936655063 #
point $-1 50.871913815729243 -34.002534441738057 -7.1092074936655063 #
loop $-1 $-1 $209 $133 #
plane-surface $-1 -50.871913815729243 0 0 1 0 0 0 0 -1 forward_v I I I I #
coedge $-1 $136 $214 $262 $263 forward $79 $-1 #
coedge $-1 $138 $137 $136 $208 reversed $49 $-1 #
edge $-1 $264 -29.306038488850341 $215 -13.825712164907465 $136 $265 forward 7 unknown #
coedge $-1 $262 $266 $138 $210 forward $204 $-1 #
edge $-1 $212 -42.184528866469989 $264 -27.812646519727224 $209 $267 forward 7 unknown #
coedge $-1 $144 $139 $266 $268 reversed $134 $-1 #
vertex $-1 $140 $269 #
straight-curve $-1 -21.565875326878903 34.002534441738057 3.1964614937552795 -1 0 0 I I #
coedge $-1 $206 $141 $144 $218 forward $79 $-1 #
vertex $-1 $142 $270 #
straight-curve $-1 -35.391587491786368 40.162020019811422 15.111292063584642 0 1 0 I I #
straight-curve $-1 -35.391587491786368 -4.0254166639033855 59.575219271426086 0 -0.55919289150049634 0.82903758062907751 I I #
edge $-1 $145 35.391587491786368 $271 50.871913815729243 $144 $272 forward 7 unknown #
point $-1 -35.391587491786368 34.002534441738057 15.111292063584642 #
point $-1 -35.391587491786368 34.002534441738064 3.1964614937552724 #
edge $-1 $273 1 $273 0 $148 $-1 forward 7 unknown #
vertex $-1 $149 $274 #
ellipse-curve $-1 -46.448963437459852 24.31299002783247 5.3285926016065677 0 0.82903758062907751 0.55919289150049634 2 0 0 1 I I #
point $-1 -44.448963437459852 29.984207218848056 9.1538767786699644 #
edge $-1 $275 1 $275 0 $152 $-1 forward 7 unknown #
vertex $-1 $153 $276 #
ellipse-curve $-1 -39.814537870055759 24.31299002783247 5.3285926016065677 0 0.82903758062907751 0.55919289150049634 2 0 0 1 I I #
point $-1 -37.814537870055759 29.984207218848056 9.1538767786699644 #
plane-surface $-1 50.871913815729243 0 0 -1 0 0 0 0 1 forward_v I I I I #
coedge $-1 $161 $159 $163 $234 reversed $101 $-1 #
edge $-1 $174 -15.111292063584642 $236 15.111292063584642 $173 $277 forward 7 unknown #
vertex $-1 $234 $278 #
straight-curve $-1 -50.871913815729243 -34.002534441738057 0 0 0 -1 I I #
edge $-1 $232 -34.002534441738057 $236 34.002534441738057 $230 $279 forward 7 unknown #
straight-curve $-1 0 -34.002534441738057 -15.111292063584642 -1 0 0 I I #
vertex $-1 $166 $280 #
straight-curve $-1 0 34.002534441738057 -15.111292063584642 1 0 0 I I #
point $-1 50.871913815729243 34.002534441738057 -15.111292063584642 #
point $-1 50.871913815729243 -34.002534441738057 -15.111292063584642 #
straight-curve $-1 -50.871913815729243 0 15.111292063584642 0 -1 0 I I #
point $-1 -50.871913815729243 34.002534441738057 15.111292063584642 #
point $-1 -50.871913815729243 -34.002534441738057 15.111292063584642 #
straight-curve $-1 50.871913815729243 -34.002534441738057 0 0 0 -1 I I #
straight-curve $-1 50.871913815729243 34.002534441738057 0 0 0 -1 I I #
plane-surface $-1 50.871913815729243 0 0 -1 0 0 0 0 1 forward_v I I I I #
coedge $-1 $281 $249 $190 $254 forward $184 $-1 #
coedge $-1 $191 $186 $281 $282 forward $120 $-1 #
edge $-1 $200 -9.6098769288359378 $283 9.6098769288359378 $198 $284 forward 7 unknown #
coedge $-1 $246 $285 $187 $250 reversed $184 $-1 #
edge $-1 $257 -50.871913815729243 $252 50.871913815729243 $249 $286 forward 7 unknown #
coedge $-1 $198 $188 $285 $287 forward $199 $-1 #
vertex $-1 $189 $288 #
straight-curve $-1 50.871913815729243 -43.612411370573994 -7.1092074936655063 0 1 0 I I #
edge $-1 $257 -1.5556786253880457 $255 1.5556786253880457 $190 $289 forward 7 unknown #
vertex $-1 $192 $290 #
straight-curve $-1 -50.871913815729243 -43.612411370573994 -10.220564744441598 0 1 0 I I #
vertex $-1 $193 $291 #
straight-curve $-1 -50.871913815729243 -43.612411370573994 -7.1092074936655063 0 -1 0 I I #
point $-1 -50.871913815729243 -34.002534441738057 -10.220564744441598 #
straight-curve $-1 0 -34.002534441738057 -10.220564744441598 -1 0 0 I I #
point $-1 50.871913815729243 -34.002534441738057 -10.220564744441598 #
coedge $-1 $266 $209 $206 $263 reversed $204 $-1 #
edge $-1 $271 -34.002534441738057 $264 -25.965879995958037 $262 $292 forward 7 unknown #
vertex $-1 $210 $293 #
straight-curve $-1 -21.565875326878903 25.965879995958034 15.111292063584642 1 0 0 I I #
coedge $-1 $209 $262 $211 $268 forward $204 $-1 #
straight-curve $-1 -50.871913815729243 10.413245768310555 38.169021245191033 0 -0.55919289150049634 0.82903758062907751 I I #
edge $-1 $271 -15.111292063584642 $212 -3.1964614937552751 $211 $294 forward 7 unknown #
point $-1 -50.871913815729243 34.002534441738057 3.1964614937552751 #
point $-1 -35.391587491786368 25.965879995958037 15.111292063584642 #
vertex $-1 $218 $295 #
straight-curve $-1 0 34.002534441738057 15.111292063584642 -1 0 0 I I #
vertex $-1 $221 $296 #
point $-1 -44.448963437459852 24.31299002783247 5.3285926016065677 #
vertex $-1 $225 $297 #
point $-1 -37.814537870055759 24.31299002783247 5.3285926016065677 #
straight-curve $-1 -50.871913815729243 34.002534441738057 0 0 0 -1 I I #
point $-1 -50.871913815729243 -34.002534441738057 -15.111292063584642 #
straight-curve $-1 -50.871913815729243 0 -15.111292063584642 0 1 0 I I #
point $-1 -50.871913815729243 34.002534441738057 -15.111292063584642 #
coedge $-1 $285 $246 $247 $282 reversed $184 $-1 #
edge $-1 $283 -50.871913815729243 $255 50.871913815729243 $281 $298 forward 7 unknown #
vertex $-1 $287 $299 #
straight-curve $-1 50.871913815729243 -43.612411370573994 -10.220564744441598 0 -1 0 I I #
coedge $-1 $249 $281 $251 $287 reversed $184 $-1 #
straight-curve $-1 0 -53.222288299409932 -7.1092074936655063 1 0 0 I I #
edge $-1 $252 -1.5556786253880457 $283 1.5556786253880457 $251 $300 forward 7 unknown #
point $-1 50.871913815729243 -53.222288299409932 -7.1092074936655063 #
straight-curve $-1 -50.871913815729243 -53.222288299409932 -8.664886119053552 0 0 -1 I I #
point $-1 -50.871913815729243 -53.222288299409932 -10.220564744441598 #
point $-1 -50.871913815729243 -53.222288299409932 -7.1092074936655063 #
straight-curve $-1 -50.871913815729243 0 15.111292063584642 0 -1 0 I I #
point $-1 -50.871913815729243 25.965879995958037 15.111292063584642 #
straight-curve $-1 -50.871913815729243 34.002534441738057 0 0 0 -1 I I #
point $-1 -50.871913815729243 34.002534441738057 15.111292063584642 #
point $-1 -46.448963437459852 22.654914866574316 4.2102068186055757 #
point $-1 -39.814537870055759 22.654914866574316 4.2102068186055757 #
straight-curve $-1 0 -53.222288299409932 -10.220564744441598 -1 0 0 I I #
point $-1 50.871913815729243 -53.222288299409932 -10.220564744441598 #
straight-curve $-1 50.871913815729243 -53.222288299409932 -8.664886119053552 0 0 -1 I I #
End-of-ACIS-data 