500 0 8 0           
7 Unknown 11 ACIS 5.0 NT 24 Thu Mar 25 22:36:56 1999 
-1 9.9999999999999995e-007 1e-010 
body $-1 $8 $-1 $9 #
body $-1 $10 $-1 $11 #
body $-1 $12 $-1 $13 #
body $-1 $14 $-1 $15 #
body $-1 $16 $-1 $17 #
body $-1 $18 $-1 $19 #
body $-1 $20 $-1 $21 #
body $-1 $22 $-1 $23 #
lump $-1 $-1 $24 $0 #
transform $-1 1 0 0 0 1 0 0 0 1 51.413922544022952 21.117726961370945 8.6975363150268716 1 rotate no_reflect no_shear #
lump $-1 $-1 $25 $1 #
transform $-1 1 0 0 0 1 0 0 0 1 51.413922544022952 -4.6857442707570316 12.236726353979218 1 rotate no_reflect no_shear #
lump $-1 $-1 $26 $2 #
transform $-1 0.61566146476048833 0 0.78801076186113728 0 1 0 -0.78801076186113728 0 0.61566146476048833 -81.029448548370056 28.132010549622862 74.437263661217401 1 rotate no_reflect no_shear #
lump $-1 $-1 $27 $3 #
transform $-1 0.61566146476048833 0 0.78801076186113728 0 -1 0 0.78801076186113728 0 -0.61566146476048833 3.5725765167082937 25.996912240629033 13.383480172613572 1 rotate no_reflect no_shear #
lump $-1 $-1 $28 $4 #
transform $-1 0.61566146476048833 0 0.78801076186113728 0 -1 0 0.78801076186113728 0 -0.61566146476048833 3.5725765167082937 28.132010549622862 13.383480172613572 1 rotate no_reflect no_shear #
lump $-1 $-1 $29 $5 #
transform $-1 0.61566146476048833 0 0.78801076186113728 0 -1 0 0.78801076186113728 0 -0.61566146476048833 3.5725765167082937 30.267108858616691 13.383480172613572 1 rotate no_reflect no_shear #
lump $-1 $-1 $30 $6 #
transform $-1 0.54463902268945019 0 -0.83867057594974714 0 1 0 0.83867057594974714 0 0.54463902268945019 133.06247609769326 24.296135166585987 156.37960547844239 1 rotate no_reflect no_shear #
lump $-1 $-1 $31 $7 #
transform $-1 0.54463902268945019 0 -0.83867057594974714 0 -1 0 -0.83867057594974714 0 -0.54463902268945019 100.17746780757932 24.296135166585987 14.731834667795681 1 rotate no_reflect no_shear #
shell $-1 $-1 $-1 $32 $-1 $8 #
shell $-1 $-1 $-1 $33 $-1 $10 #
shell $-1 $-1 $-1 $34 $-1 $12 #
shell $-1 $-1 $-1 $35 $-1 $14 #
shell $-1 $-1 $-1 $36 $-1 $16 #
shell $-1 $-1 $-1 $37 $-1 $18 #
shell $-1 $-1 $-1 $38 $-1 $20 #
shell $-1 $-1 $-1 $39 $-1 $22 #
face $-1 $40 $41 $24 $-1 $42 forward single #
face $-1 $43 $44 $25 $-1 $45 forward single #
face $-1 $46 $47 $26 $-1 $48 forward single #
face $-1 $49 $50 $27 $-1 $51 forward single #
face $-1 $52 $53 $28 $-1 $54 forward single #
face $-1 $55 $56 $29 $-1 $57 forward single #
face $-1 $58 $59 $30 $-1 $60 forward single #
face $-1 $61 $62 $31 $-1 $63 forward single #
face $-1 $64 $65 $24 $-1 $66 reversed single #
loop $-1 $-1 $67 $32 #
plane-surface $-1 0 0 8.6975363150268716 0 0 1 1 0 0 forward_v I I I I #
face $-1 $68 $69 $25 $-1 $70 reversed single #
loop $-1 $-1 $71 $33 #
plane-surface $-1 0 0 2.0673470744830711 0 0 1 1 0 0 forward_v I I I I #
face $-1 $72 $73 $26 $-1 $74 reversed single #
loop $-1 $-1 $75 $34 #
plane-surface $-1 0 0 102.8278450880459 0 0 1 1 0 0 forward_v I I I I #
face $-1 $76 $77 $27 $-1 $78 forward single #
loop $-1 $79 $80 $35 #
cone-surface $-1 0 0 -0.83896145512253284 0 0 1 0.5 0 0 1 I I 0 1 0.5 forward I I I I #
face $-1 $81 $82 $28 $-1 $83 forward single #
loop $-1 $84 $85 $36 #
cone-surface $-1 0 0 -0.83896145512253284 0 0 1 0.5 0 0 1 I I 0 1 0.5 forward I I I I #
face $-1 $86 $87 $29 $-1 $88 forward single #
loop $-1 $89 $90 $37 #
cone-surface $-1 0 0 -0.83896145512253284 0 0 1 0.5 0 0 1 I I 0 1 0.5 forward I I I I #
face $-1 $91 $92 $30 $-1 $93 reversed single #
loop $-1 $-1 $94 $38 #
plane-surface $-1 0 0 102.8278450880459 0 0 1 1 0 0 forward_v I I I I #
face $-1 $95 $96 $31 $-1 $97 forward single #
loop $-1 $98 $99 $39 #
cone-surface $-1 0 0 -1.0743736075930048 0 0 1 0.5 0 0 1 I I 0 1 0.5 forward I I I I #
face $-1 $100 $101 $24 $-1 $102 reversed single #
loop $-1 $-1 $103 $40 #
plane-surface $-1 0 0 -8.6975363150268716 0 0 1 1 0 0 forward_v I I I I #
coedge $-1 $104 $105 $106 $107 forward $41 $-1 #
face $-1 $108 $109 $25 $-1 $110 reversed single #
loop $-1 $-1 $111 $43 #
plane-surface $-1 0 0 -2.0673470744830711 0 0 1 1 0 0 forward_v I I I I #
coedge $-1 $112 $113 $114 $115 forward $44 $-1 #
face $-1 $116 $117 $26 $-1 $118 reversed single #
loop $-1 $-1 $119 $46 #
plane-surface $-1 0 0 -102.8278450880459 0 0 1 1 0 0 forward_v I I I I #
coedge $-1 $120 $121 $122 $123 forward $47 $-1 #
face $-1 $-1 $124 $27 $-1 $125 forward single #
loop $-1 $-1 $126 $49 #
plane-surface $-1 0 0 -1.4279229102450648 0 0 -1 -1 0 0 forward_v I I I I #
loop $-1 $-1 $127 $35 #
coedge $-1 $80 $80 $126 $128 reversed $50 $-1 #
face $-1 $-1 $129 $28 $-1 $130 forward single #
loop $-1 $-1 $131 $52 #
plane-surface $-1 0 0 -1.4279229102450648 0 0 -1 -1 0 0 forward_v I I I I #
loop $-1 $-1 $132 $36 #
coedge $-1 $85 $85 $131 $133 reversed $53 $-1 #
face $-1 $-1 $134 $29 $-1 $135 forward single #
loop $-1 $-1 $136 $55 #
plane-surface $-1 0 0 -1.4279229102450648 0 0 -1 -1 0 0 forward_v I I I I #
loop $-1 $-1 $137 $37 #
coedge $-1 $90 $90 $136 $138 reversed $56 $-1 #
face $-1 $139 $140 $30 $-1 $141 reversed single #
loop $-1 $-1 $142 $58 #
plane-surface $-1 0 0 -102.8278450880459 0 0 1 1 0 0 forward_v I I I I #
coedge $-1 $143 $144 $145 $146 forward $59 $-1 #
face $-1 $-1 $147 $31 $-1 $148 forward single #
loop $-1 $-1 $149 $61 #
plane-surface $-1 0 0 -1.8987472151860096 0 0 -1 -1 0 0 forward_v I I I I #
loop $-1 $-1 $150 $39 #
coedge $-1 $99 $99 $149 $151 reversed $62 $-1 #
face $-1 $152 $153 $24 $-1 $154 reversed single #
loop $-1 $-1 $155 $64 #
plane-surface $-1 0 -21.117726961370945 0 0 1 0 0 0 1 forward_v I I I I #
coedge $-1 $156 $157 $158 $159 forward $65 $-1 #
coedge $-1 $160 $67 $161 $162 forward $41 $-1 #
coedge $-1 $67 $160 $163 $164 forward $41 $-1 #
coedge $-1 $165 $166 $67 $107 reversed $167 $-1 #
edge $-1 $168 -21.117726961370945 $169 21.117726961370945 $106 $170 forward 7 unknown #
face $-1 $171 $172 $25 $-1 $173 reversed single #
loop $-1 $-1 $174 $68 #
plane-surface $-1 0 -4.6857442707570316 0 0 1 0 0 0 1 forward_v I I I I #
coedge $-1 $175 $176 $177 $178 forward $69 $-1 #
coedge $-1 $179 $71 $180 $181 forward $44 $-1 #
coedge $-1 $71 $179 $182 $183 forward $44 $-1 #
coedge $-1 $184 $185 $71 $115 reversed $186 $-1 #
edge $-1 $187 -4.6857442707570316 $188 4.6857442707570316 $114 $189 forward 7 unknown #
face $-1 $190 $191 $26 $-1 $192 reversed single #
loop $-1 $-1 $193 $72 #
plane-surface $-1 0 -3.5584971816563833 0 0 1 0 0 0 1 forward_v I I I I #
coedge $-1 $194 $195 $196 $197 forward $73 $-1 #
coedge $-1 $198 $75 $199 $200 forward $47 $-1 #
coedge $-1 $75 $198 $201 $202 forward $47 $-1 #
coedge $-1 $203 $204 $75 $123 reversed $205 $-1 #
edge $-1 $206 -3.5584971816563833 $207 3.5584971816563833 $122 $208 forward 7 unknown #
loop $-1 $209 $210 $76 #
cone-surface $-1 0 0 0 0 0 1 0.25 0 0 1 I I -0.70710678118654746 0.70710678118654746 0.25 forward I I I I #
coedge $-1 $126 $126 $80 $128 forward $77 $-1 #
coedge $-1 $127 $127 $210 $211 forward $79 $-1 #
edge $-1 $212 0 $212 6.2831853071796004 $126 $213 forward 7 unknown #
loop $-1 $214 $215 $81 #
cone-surface $-1 0 0 0 0 0 1 0.25 0 0 1 I I -0.70710678118654746 0.70710678118654746 0.25 forward I I I I #
coedge $-1 $131 $131 $85 $133 forward $82 $-1 #
coedge $-1 $132 $132 $215 $216 forward $84 $-1 #
edge $-1 $217 0 $217 6.2831853071796004 $131 $218 forward 7 unknown #
loop $-1 $219 $220 $86 #
cone-surface $-1 0 0 0 0 0 1 0.25 0 0 1 I I -0.70710678118654746 0.70710678118654746 0.25 forward I I I I #
coedge $-1 $136 $136 $90 $138 forward $87 $-1 #
coedge $-1 $137 $137 $220 $221 forward $89 $-1 #
edge $-1 $222 0 $222 6.2831853071796004 $136 $223 forward 7 unknown #
face $-1 $224 $225 $30 $-1 $226 reversed single #
loop $-1 $-1 $227 $91 #
plane-surface $-1 0 -4.8433822519390297 0 0 1 0 0 0 1 forward_v I I I I #
coedge $-1 $228 $229 $230 $231 forward $92 $-1 #
coedge $-1 $232 $94 $233 $234 forward $59 $-1 #
coedge $-1 $94 $232 $235 $236 forward $59 $-1 #
coedge $-1 $237 $238 $94 $146 reversed $239 $-1 #
edge $-1 $240 -4.8433822519390297 $241 4.8433822519390297 $145 $242 forward 7 unknown #
loop $-1 $243 $244 $95 #
cone-surface $-1 0 0 0 0 0 1 0.25 0 0 1 I I -0.70710678118654746 0.70710678118654746 0.25 forward I I I I #
coedge $-1 $149 $149 $99 $151 forward $96 $-1 #
coedge $-1 $150 $150 $244 $245 forward $98 $-1 #
edge $-1 $246 0 $246 6.2831853071796004 $149 $247 forward 7 unknown #
face $-1 $248 $249 $24 $-1 $250 reversed single #
loop $-1 $-1 $251 $100 #
plane-surface $-1 -51.413922544022952 0 0 1 0 0 0 0 -1 forward_v I I I I #
coedge $-1 $252 $163 $253 $254 forward $101 $-1 #
coedge $-1 $255 $103 $252 $256 forward $65 $-1 #
coedge $-1 $103 $255 $257 $258 forward $65 $-1 #
coedge $-1 $166 $165 $103 $159 reversed $167 $-1 #
edge $-1 $259 -21.117726961370945 $260 21.117726961370945 $158 $261 forward 7 unknown #
coedge $-1 $105 $104 $262 $263 forward $41 $-1 #
coedge $-1 $264 $265 $104 $162 reversed $249 $-1 #
edge $-1 $169 -51.413922544022952 $266 51.413922544022952 $161 $267 forward 7 unknown #
coedge $-1 $155 $268 $105 $164 reversed $101 $-1 #
edge $-1 $269 -51.413922544022952 $168 51.413922544022952 $163 $270 forward 7 unknown #
coedge $-1 $158 $106 $268 $271 forward $167 $-1 #
coedge $-1 $106 $158 $264 $272 reversed $167 $-1 #
loop $-1 $-1 $165 $248 #
vertex $-1 $107 $273 #
vertex $-1 $107 $274 #
straight-curve $-1 51.413922544022952 0 8.6975363150268716 0 1 0 I I #
face $-1 $275 $276 $25 $-1 $277 reversed single #
loop $-1 $-1 $278 $108 #
plane-surface $-1 -51.413922544022952 0 0 1 0 0 0 0 -1 forward_v I I I I #
coedge $-1 $279 $182 $280 $281 forward $109 $-1 #
coedge $-1 $282 $111 $279 $283 forward $69 $-1 #
coedge $-1 $111 $282 $284 $285 forward $69 $-1 #
coedge $-1 $185 $184 $111 $178 reversed $186 $-1 #
edge $-1 $286 -4.6857442707570316 $287 4.6857442707570316 $177 $288 forward 7 unknown #
coedge $-1 $113 $112 $289 $290 forward $44 $-1 #
coedge $-1 $291 $292 $112 $181 reversed $276 $-1 #
edge $-1 $188 -51.413922544022952 $293 51.413922544022952 $180 $294 forward 7 unknown #
coedge $-1 $174 $295 $113 $183 reversed $109 $-1 #
edge $-1 $296 -51.413922544022952 $187 51.413922544022952 $182 $297 forward 7 unknown #
coedge $-1 $177 $114 $295 $298 forward $186 $-1 #
coedge $-1 $114 $177 $291 $299 reversed $186 $-1 #
loop $-1 $-1 $184 $275 #
vertex $-1 $115 $300 #
vertex $-1 $115 $301 #
straight-curve $-1 51.413922544022952 0 2.0673470744830711 0 1 0 I I #
face $-1 $302 $303 $26 $-1 $304 reversed single #
loop $-1 $-1 $305 $116 #
plane-surface $-1 -205.65569017609181 0 0 1 0 0 0 0 -1 forward_v I I I I #
coedge $-1 $306 $201 $307 $308 forward $117 $-1 #
coedge $-1 $309 $119 $306 $310 forward $73 $-1 #
coedge $-1 $119 $309 $311 $312 forward $73 $-1 #
coedge $-1 $204 $203 $119 $197 reversed $205 $-1 #
edge $-1 $313 -3.5584971816563833 $314 3.5584971816563833 $196 $315 forward 7 unknown #
coedge $-1 $121 $120 $316 $317 forward $47 $-1 #
coedge $-1 $318 $319 $120 $200 reversed $303 $-1 #
edge $-1 $207 -205.65569017609181 $320 205.65569017609181 $199 $321 forward 7 unknown #
coedge $-1 $193 $322 $121 $202 reversed $117 $-1 #
edge $-1 $323 -205.65569017609181 $206 205.65569017609181 $201 $324 forward 7 unknown #
coedge $-1 $196 $122 $322 $325 forward $205 $-1 #
coedge $-1 $122 $196 $318 $326 reversed $205 $-1 #
loop $-1 $-1 $203 $302 #
vertex $-1 $123 $327 #
vertex $-1 $123 $328 #
straight-curve $-1 205.65569017609181 0 102.8278450880459 0 1 0 I I #
loop $-1 $-1 $329 $76 #
coedge $-1 $210 $210 $127 $211 reversed $124 $-1 #
edge $-1 $330 0 $330 6.2831853071796004 $210 $331 forward 7 unknown #
vertex $-1 $128 $332 #
ellipse-curve $-1 0 0 -1.4279229102450648 0 0 -1 0.5 0 0 1 I I #
loop $-1 $-1 $333 $81 #
coedge $-1 $215 $215 $132 $216 reversed $129 $-1 #
edge $-1 $334 0 $334 6.2831853071796004 $215 $335 forward 7 unknown #
vertex $-1 $133 $336 #
ellipse-curve $-1 0 0 -1.4279229102450648 0 0 -1 0.5 0 0 1 I I #
loop $-1 $-1 $337 $86 #
coedge $-1 $220 $220 $137 $221 reversed $134 $-1 #
edge $-1 $338 0 $338 6.2831853071796004 $220 $339 forward 7 unknown #
vertex $-1 $138 $340 #
ellipse-curve $-1 0 0 -1.4279229102450648 0 0 -1 0.5 0 0 1 I I #
face $-1 $341 $342 $30 $-1 $343 reversed single #
loop $-1 $-1 $344 $139 #
plane-surface $-1 -205.65569017609181 0 0 1 0 0 0 0 -1 forward_v I I I I #
coedge $-1 $345 $235 $346 $347 forward $140 $-1 #
coedge $-1 $348 $142 $345 $349 forward $92 $-1 #
coedge $-1 $142 $348 $350 $351 forward $92 $-1 #
coedge $-1 $238 $237 $142 $231 reversed $239 $-1 #
edge $-1 $352 -4.8433822519390297 $353 4.8433822519390297 $230 $354 forward 7 unknown #
coedge $-1 $144 $143 $355 $356 forward $59 $-1 #
coedge $-1 $357 $358 $143 $234 reversed $342 $-1 #
edge $-1 $241 -205.65569017609181 $359 205.65569017609181 $233 $360 forward 7 unknown #
coedge $-1 $227 $361 $144 $236 reversed $140 $-1 #
edge $-1 $362 -205.65569017609181 $240 205.65569017609181 $235 $363 forward 7 unknown #
coedge $-1 $230 $145 $361 $364 forward $239 $-1 #
coedge $-1 $145 $230 $357 $365 reversed $239 $-1 #
loop $-1 $-1 $237 $341 #
vertex $-1 $146 $366 #
vertex $-1 $146 $367 #
straight-curve $-1 205.65569017609181 0 102.8278450880459 0 1 0 I I #
loop $-1 $-1 $368 $95 #
coedge $-1 $244 $244 $150 $245 reversed $147 $-1 #
edge $-1 $369 0 $369 6.2831853071796004 $244 $370 forward 7 unknown #
vertex $-1 $151 $371 #
ellipse-curve $-1 0 0 -1.8987472151860096 0 0 -1 0.5 0 0 1 I I #
face $-1 $-1 $167 $24 $-1 $372 reversed single #
loop $-1 $-1 $264 $152 #
plane-surface $-1 0 21.117726961370945 0 0 -1 0 0 0 -1 forward_v I I I I #
coedge $-1 $373 $262 $265 $374 forward $153 $-1 #
coedge $-1 $268 $155 $156 $256 reversed $101 $-1 #
coedge $-1 $262 $373 $155 $254 reversed $153 $-1 #
edge $-1 $269 -8.6975363150268716 $375 8.6975363150268716 $253 $376 forward 7 unknown #
coedge $-1 $157 $156 $373 $377 forward $65 $-1 #
edge $-1 $260 -51.413922544022952 $375 51.413922544022952 $252 $378 forward 7 unknown #
coedge $-1 $265 $264 $157 $258 reversed $249 $-1 #
edge $-1 $379 -51.413922544022952 $259 51.413922544022952 $257 $380 forward 7 unknown #
vertex $-1 $159 $381 #
vertex $-1 $271 $382 #
straight-curve $-1 51.413922544022952 0 -8.6975363150268716 0 -1 0 I I #
coedge $-1 $251 $253 $160 $263 reversed $153 $-1 #
edge $-1 $266 -21.117726961370945 $269 21.117726961370945 $262 $383 forward 7 unknown #
coedge $-1 $257 $161 $166 $272 forward $249 $-1 #
coedge $-1 $161 $257 $251 $374 reversed $249 $-1 #
vertex $-1 $162 $384 #
straight-curve $-1 0 21.117726961370945 8.6975363150268716 -1 0 0 I I #
coedge $-1 $163 $252 $165 $271 reversed $101 $-1 #
vertex $-1 $263 $385 #
straight-curve $-1 0 -21.117726961370945 8.6975363150268716 1 0 0 I I #
edge $-1 $168 -8.6975363150268716 $260 8.6975363150268716 $165 $386 forward 7 unknown #
edge $-1 $169 -8.6975363150268716 $259 8.6975363150268716 $166 $387 forward 7 unknown #
point $-1 51.413922544022952 -21.117726961370945 8.6975363150268716 #
point $-1 51.413922544022952 21.117726961370945 8.6975363150268716 #
face $-1 $-1 $186 $25 $-1 $388 reversed single #
loop $-1 $-1 $291 $171 #
plane-surface $-1 0 4.6857442707570316 0 0 -1 0 0 0 -1 forward_v I I I I #
coedge $-1 $389 $289 $292 $390 forward $172 $-1 #
coedge $-1 $295 $174 $175 $283 reversed $109 $-1 #
coedge $-1 $289 $389 $174 $281 reversed $172 $-1 #
edge $-1 $296 -2.0673470744830711 $391 2.0673470744830711 $280 $392 forward 7 unknown #
coedge $-1 $176 $175 $389 $393 forward $69 $-1 #
edge $-1 $287 -51.413922544022952 $391 51.413922544022952 $279 $394 forward 7 unknown #
coedge $-1 $292 $291 $176 $285 reversed $276 $-1 #
edge $-1 $395 -51.413922544022952 $286 51.413922544022952 $284 $396 forward 7 unknown #
vertex $-1 $178 $397 #
vertex $-1 $298 $398 #
straight-curve $-1 51.413922544022952 0 -2.0673470744830711 0 -1 0 I I #
coedge $-1 $278 $280 $179 $290 reversed $172 $-1 #
edge $-1 $293 -4.6857442707570316 $296 4.6857442707570316 $289 $399 forward 7 unknown #
coedge $-1 $284 $180 $185 $299 forward $276 $-1 #
coedge $-1 $180 $284 $278 $390 reversed $276 $-1 #
vertex $-1 $181 $400 #
straight-curve $-1 0 4.6857442707570316 2.0673470744830711 -1 0 0 I I #
coedge $-1 $182 $279 $184 $298 reversed $109 $-1 #
vertex $-1 $290 $401 #
straight-curve $-1 0 -4.6857442707570316 2.0673470744830711 1 0 0 I I #
edge $-1 $187 -2.0673470744830711 $287 2.0673470744830711 $184 $402 forward 7 unknown #
edge $-1 $188 -2.0673470744830711 $286 2.0673470744830711 $185 $403 forward 7 unknown #
point $-1 51.413922544022952 -4.6857442707570316 2.0673470744830711 #
point $-1 51.413922544022952 4.6857442707570316 2.0673470744830711 #
face $-1 $-1 $205 $26 $-1 $404 reversed single #
loop $-1 $-1 $318 $190 #
plane-surface $-1 0 3.5584971816563833 0 0 -1 0 0 0 -1 forward_v I I I I #
coedge $-1 $405 $316 $319 $406 forward $191 $-1 #
coedge $-1 $322 $193 $194 $310 reversed $117 $-1 #
coedge $-1 $316 $405 $193 $308 reversed $191 $-1 #
edge $-1 $323 -102.8278450880459 $407 102.8278450880459 $307 $408 forward 7 unknown #
coedge $-1 $195 $194 $405 $409 forward $73 $-1 #
edge $-1 $314 -205.65569017609181 $407 205.65569017609181 $306 $410 forward 7 unknown #
coedge $-1 $319 $318 $195 $312 reversed $303 $-1 #
edge $-1 $411 -205.65569017609181 $313 205.65569017609181 $311 $412 forward 7 unknown #
vertex $-1 $197 $413 #
vertex $-1 $325 $414 #
straight-curve $-1 205.65569017609181 0 -102.8278450880459 0 -1 0 I I #
coedge $-1 $305 $307 $198 $317 reversed $191 $-1 #
edge $-1 $320 -3.5584971816563833 $323 3.5584971816563833 $316 $415 forward 7 unknown #
coedge $-1 $311 $199 $204 $326 forward $303 $-1 #
coedge $-1 $199 $311 $305 $406 reversed $303 $-1 #
vertex $-1 $200 $416 #
straight-curve $-1 0 3.5584971816563833 102.8278450880459 -1 0 0 I I #
coedge $-1 $201 $306 $203 $325 reversed $117 $-1 #
vertex $-1 $317 $417 #
straight-curve $-1 0 -3.5584971816563833 102.8278450880459 1 0 0 I I #
edge $-1 $206 -102.8278450880459 $314 102.8278450880459 $203 $418 forward 7 unknown #
edge $-1 $207 -102.8278450880459 $313 102.8278450880459 $204 $419 forward 7 unknown #
point $-1 205.65569017609181 -3.5584971816563833 102.8278450880459 #
point $-1 205.65569017609181 3.5584971816563833 102.8278450880459 #
coedge $-1 $329 $329 $-1 $420 reversed $209 $-1 #
vertex $-1 $211 $421 #
ellipse-curve $-1 0 0 -0.25 0 0 -1 0.5 0 0 1 I I #
point $-1 0.5 0 -1.4279229102450648 #
coedge $-1 $333 $333 $-1 $422 reversed $214 $-1 #
vertex $-1 $216 $423 #
ellipse-curve $-1 0 0 -0.25 0 0 -1 0.5 0 0 1 I I #
point $-1 0.5 0 -1.4279229102450648 #
coedge $-1 $337 $337 $-1 $424 reversed $219 $-1 #
vertex $-1 $221 $425 #
ellipse-curve $-1 0 0 -0.25 0 0 -1 0.5 0 0 1 I I #
point $-1 0.5 0 -1.4279229102450648 #
face $-1 $-1 $239 $30 $-1 $426 reversed single #
loop $-1 $-1 $357 $224 #
plane-surface $-1 0 4.8433822519390297 0 0 -1 0 0 0 -1 forward_v I I I I #
coedge $-1 $427 $355 $358 $428 forward $225 $-1 #
coedge $-1 $361 $227 $228 $349 reversed $140 $-1 #
coedge $-1 $355 $427 $227 $347 reversed $225 $-1 #
edge $-1 $362 -102.8278450880459 $429 102.8278450880459 $346 $430 forward 7 unknown #
coedge $-1 $229 $228 $427 $431 forward $92 $-1 #
edge $-1 $353 -205.65569017609181 $429 205.65569017609181 $345 $432 forward 7 unknown #
coedge $-1 $358 $357 $229 $351 reversed $342 $-1 #
edge $-1 $433 -205.65569017609181 $352 205.65569017609181 $350 $434 forward 7 unknown #
vertex $-1 $231 $435 #
vertex $-1 $364 $436 #
straight-curve $-1 205.65569017609181 0 -102.8278450880459 0 -1 0 I I #
coedge $-1 $344 $346 $232 $356 reversed $225 $-1 #
edge $-1 $359 -4.8433822519390297 $362 4.8433822519390297 $355 $437 forward 7 unknown #
coedge $-1 $350 $233 $238 $365 forward $342 $-1 #
coedge $-1 $233 $350 $344 $428 reversed $342 $-1 #
vertex $-1 $234 $438 #
straight-curve $-1 0 4.8433822519390297 102.8278450880459 -1 0 0 I I #
coedge $-1 $235 $345 $237 $364 reversed $140 $-1 #
vertex $-1 $356 $439 #
straight-curve $-1 0 -4.8433822519390297 102.8278450880459 1 0 0 I I #
edge $-1 $240 -102.8278450880459 $353 102.8278450880459 $237 $440 forward 7 unknown #
edge $-1 $241 -102.8278450880459 $352 102.8278450880459 $238 $441 forward 7 unknown #
point $-1 205.65569017609181 -4.8433822519390297 102.8278450880459 #
point $-1 205.65569017609181 4.8433822519390297 102.8278450880459 #
coedge $-1 $368 $368 $-1 $442 reversed $243 $-1 #
vertex $-1 $245 $443 #
ellipse-curve $-1 0 0 -0.25 0 0 -1 0.5 0 0 1 I I #
point $-1 0.5 0 -1.8987472151860096 #
plane-surface $-1 51.413922544022952 0 0 -1 0 0 0 0 1 forward_v I I I I #
coedge $-1 $253 $251 $255 $377 reversed $153 $-1 #
edge $-1 $266 -8.6975363150268716 $379 8.6975363150268716 $265 $444 forward 7 unknown #
vertex $-1 $377 $445 #
straight-curve $-1 -51.413922544022952 -21.117726961370945 0 0 0 -1 I I #
edge $-1 $375 -21.117726961370945 $379 21.117726961370945 $373 $446 forward 7 unknown #
straight-curve $-1 0 -21.117726961370945 -8.6975363150268716 -1 0 0 I I #
vertex $-1 $258 $447 #
straight-curve $-1 0 21.117726961370945 -8.6975363150268716 1 0 0 I I #
point $-1 51.413922544022952 21.117726961370945 -8.6975363150268716 #
point $-1 51.413922544022952 -21.117726961370945 -8.6975363150268716 #
straight-curve $-1 -51.413922544022952 0 8.6975363150268716 0 -1 0 I I #
point $-1 -51.413922544022952 21.117726961370945 8.6975363150268716 #
point $-1 -51.413922544022952 -21.117726961370945 8.6975363150268716 #
straight-curve $-1 51.413922544022952 -21.117726961370945 0 0 0 -1 I I #
straight-curve $-1 51.413922544022952 21.117726961370945 0 0 0 -1 I I #
plane-surface $-1 51.413922544022952 0 0 -1 0 0 0 0 1 forward_v I I I I #
coedge $-1 $280 $278 $282 $393 reversed $172 $-1 #
edge $-1 $293 -2.0673470744830711 $395 2.0673470744830711 $292 $448 forward 7 unknown #
vertex $-1 $393 $449 #
straight-curve $-1 -51.413922544022952 -4.6857442707570316 0 0 0 -1 I I #
edge $-1 $391 -4.6857442707570316 $395 4.6857442707570316 $389 $450 forward 7 unknown #
straight-curve $-1 0 -4.6857442707570316 -2.0673470744830711 -1 0 0 I I #
vertex $-1 $285 $451 #
straight-curve $-1 0 4.6857442707570316 -2.0673470744830711 1 0 0 I I #
point $-1 51.413922544022952 4.6857442707570316 -2.0673470744830711 #
point $-1 51.413922544022952 -4.6857442707570316 -2.0673470744830711 #
straight-curve $-1 -51.413922544022952 0 2.0673470744830711 0 -1 0 I I #
point $-1 -51.413922544022952 4.6857442707570316 2.0673470744830711 #
point $-1 -51.413922544022952 -4.6857442707570316 2.0673470744830711 #
straight-curve $-1 51.413922544022952 -4.6857442707570316 0 0 0 -1 I I #
straight-curve $-1 51.413922544022952 4.6857442707570316 0 0 0 -1 I I #
plane-surface $-1 205.65569017609181 0 0 -1 0 0 0 0 1 forward_v I I I I #
coedge $-1 $307 $305 $309 $409 reversed $191 $-1 #
edge $-1 $320 -102.8278450880459 $411 102.8278450880459 $319 $452 forward 7 unknown #
vertex $-1 $409 $453 #
straight-curve $-1 -205.65569017609181 -3.5584971816563833 0 0 0 -1 I I #
edge $-1 $407 -3.5584971816563833 $411 3.5584971816563833 $405 $454 forward 7 unknown #
straight-curve $-1 0 -3.5584971816563833 -102.8278450880459 -1 0 0 I I #
vertex $-1 $312 $455 #
straight-curve $-1 0 3.5584971816563833 -102.8278450880459 1 0 0 I I #
point $-1 205.65569017609181 3.5584971816563833 -102.8278450880459 #
point $-1 205.65569017609181 -3.5584971816563833 -102.8278450880459 #
straight-curve $-1 -205.65569017609181 0 102.8278450880459 0 -1 0 I I #
point $-1 -205.65569017609181 3.5584971816563833 102.8278450880459 #
point $-1 -205.65569017609181 -3.5584971816563833 102.8278450880459 #
straight-curve $-1 205.65569017609181 -3.5584971816563833 0 0 0 -1 I I #
straight-curve $-1 205.65569017609181 3.5584971816563833 0 0 0 -1 I I #
edge $-1 $456 1 $456 0 $329 $-1 forward 7 unknown #
point $-1 0.5 0 -0.25 #
edge $-1 $457 1 $457 0 $333 $-1 forward 7 unknown #
point $-1 0.5 0 -0.25 #
edge $-1 $458 1 $458 0 $337 $-1 forward 7 unknown #
point $-1 0.5 0 -0.25 #
plane-surface $-1 205.65569017609181 0 0 -1 0 0 0 0 1 forward_v I I I I #
coedge $-1 $346 $344 $348 $431 reversed $225 $-1 #
edge $-1 $359 -102.8278450880459 $433 102.8278450880459 $358 $459 forward 7 unknown #
vertex $-1 $431 $460 #
straight-curve $-1 -205.65569017609181 -4.8433822519390297 0 0 0 -1 I I #
edge $-1 $429 -4.8433822519390297 $433 4.8433822519390297 $427 $461 forward 7 unknown #
straight-curve $-1 0 -4.8433822519390297 -102.8278450880459 -1 0 0 I I #
vertex $-1 $351 $462 #
straight-curve $-1 0 4.8433822519390297 -102.8278450880459 1 0 0 I I #
point $-1 205.65569017609181 4.8433822519390297 -102.8278450880459 #
point $-1 205.65569017609181 -4.8433822519390297 -102.8278450880459 #
straight-curve $-1 -205.65569017609181 0 102.8278450880459 0 -1 0 I I #
point $-1 -205.65569017609181 4.8433822519390297 102.8278450880459 #
point $-1 -205.65569017609181 -4.8433822519390297 102.8278450880459 #
straight-curve $-1 205.65569017609181 -4.8433822519390297 0 0 0 -1 I I #
straight-curve $-1 205.65569017609181 4.8433822519390297 0 0 0 -1 I I #
edge $-1 $463 1 $463 0 $368 $-1 forward 7 unknown #
point $-1 0.5 0 -0.25 #
straight-curve $-1 -51.413922544022952 21.117726961370945 0 0 0 -1 I I #
point $-1 -51.413922544022952 -21.117726961370945 -8.6975363150268716 #
straight-curve $-1 -51.413922544022952 0 -8.6975363150268716 0 1 0 I I #
point $-1 -51.413922544022952 21.117726961370945 -8.6975363150268716 #
straight-curve $-1 -51.413922544022952 4.6857442707570316 0 0 0 -1 I I #
point $-1 -51.413922544022952 -4.6857442707570316 -2.0673470744830711 #
straight-curve $-1 -51.413922544022952 0 -2.0673470744830711 0 1 0 I I #
point $-1 -51.413922544022952 4.6857442707570316 -2.0673470744830711 #
straight-curve $-1 -205.65569017609181 3.5584971816563833 0 0 0 -1 I I #
point $-1 -205.65569017609181 -3.5584971816563833 -102.8278450880459 #
straight-curve $-1 -205.65569017609181 0 -102.8278450880459 0 1 0 I I #
point $-1 -205.65569017609181 3.5584971816563833 -102.8278450880459 #
vertex $-1 $420 $464 #
vertex $-1 $422 $465 #
vertex $-1 $424 $466 #
straight-curve $-1 -205.65569017609181 4.8433822519390297 0 0 0 -1 I I #
point $-1 -205.65569017609181 -4.8433822519390297 -102.8278450880459 #
straight-curve $-1 -205.65569017609181 0 -102.8278450880459 0 1 0 I I #
point $-1 -205.65569017609181 4.8433822519390297 -102.8278450880459 #
vertex $-1 $442 $467 #
point $-1 0 0 0.25 #
point $-1 0 0 0.25 #
point $-1 0 0 0.25 #
point $-1 0 0 0.25 #
End-of-ACIS-data 