500 0 5 0           
7 Unknown 11 ACIS 5.0 NT 24 Thu Mar 25 17:20:56 1999 
-1 9.9999999999999995e-007 1e-010 
body $-1 $5 $-1 $6 #
body $-1 $7 $-1 $8 #
body $-1 $9 $-1 $10 #
body $-1 $11 $-1 $12 #
body $-1 $13 $-1 $14 #
lump $-1 $-1 $15 $0 #
transform $-1 1 0 0 0 1 0 0 0 1 79.912106692709131 44.701223364726836 20.89485816655483 1 rotate no_reflect no_shear #
lump $-1 $-1 $16 $1 #
transform $-1 1 0 0 0 1 0 0 0 1 79.912106692709131 44.701223364726836 20.89485816655483 1 rotate no_reflect no_shear #
lump $-1 $-1 $17 $2 #
transform $-1 1 0 0 0 1 0 0 0 1 79.912106692709131 44.701223364726836 20.89485816655483 1 rotate no_reflect no_shear #
lump $-1 $-1 $18 $3 #
transform $-1 1 0 0 0 1 0 0 0 1 79.912106692709131 44.701223364726836 20.89485816655483 1 rotate no_reflect no_shear #
lump $-1 $-1 $19 $4 #
transform $-1 1 0 0 0 1 0 0 0 1 79.912106692709131 44.701223364726836 20.89485816655483 1 rotate no_reflect no_shear #
shell $-1 $-1 $-1 $20 $-1 $5 #
shell $-1 $-1 $-1 $21 $-1 $7 #
shell $-1 $-1 $-1 $22 $-1 $9 #
shell $-1 $-1 $-1 $23 $-1 $11 #
shell $-1 $-1 $-1 $24 $-1 $13 #
face $-1 $25 $26 $15 $-1 $27 forward single #
face $-1 $28 $29 $16 $-1 $30 forward single #
face $-1 $31 $32 $17 $-1 $33 reversed single #
face $-1 $34 $35 $18 $-1 $36 reversed single #
face $-1 $37 $38 $19 $-1 $39 forward single #
face $-1 $40 $41 $15 $-1 $42 reversed single #
loop $-1 $-1 $43 $20 #
plane-surface $-1 0 0 20.89485816655483 0 0 1 1 0 0 forward_v I I I I #
face $-1 $44 $45 $16 $-1 $46 reversed single #
loop $-1 $-1 $47 $21 #
plane-surface $-1 0 -37.160517938892689 -9.8184853713210849 0 0 1 1 0 0 forward_v I I I I #
face $-1 $48 $49 $17 $-1 $50 reversed single #
loop $-1 $-1 $51 $22 #
plane-surface $-1 -72.47923685302473 21.656554860426517 0 0 1 0 0 0 1 forward_v I I I I #
face $-1 $52 $53 $18 $-1 $54 reversed single #
loop $-1 $-1 $55 $23 #
plane-surface $-1 -205.85530684640958 12.190258644208647 99.009268643410422 0 1 0 -0.78801076186113728 0 0.61566146476048833 forward_v I I I I #
face $-1 $56 $57 $19 $-1 $58 forward single #
loop $-1 $59 $60 $24 #
cone-surface $-1 -71.594615674034998 16.923406752317582 10.445428014072643 0.78801076186113728 0 -0.61566146476048833 0.30783073238024417 0 0.39400538093056864 1 I I 0 1 0.5 forward I I I I #
face $-1 $61 $62 $15 $-1 $63 reversed single #
loop $-1 $-1 $64 $25 #
plane-surface $-1 0 0 -20.89485816655483 0 0 1 1 0 0 forward_v I I I I #
coedge $-1 $65 $66 $67 $68 forward $26 $-1 #
face $-1 $69 $70 $16 $-1 $71 reversed single #
loop $-1 $-1 $72 $28 #
plane-surface $-1 0 -29.619812513058541 -15.356671768937957 0 -1 0 0 0 -1 forward_v I I I I #
coedge $-1 $73 $74 $75 $76 reversed $29 $-1 #
face $-1 $77 $78 $17 $-1 $79 reversed single #
loop $-1 $-1 $80 $31 #
plane-surface $-1 -76.895744259126673 33.178889112576677 0 1 0 0 0 0 -1 forward_v I I I I #
coedge $-1 $81 $82 $83 $84 forward $32 $-1 #
face $-1 $85 $86 $18 $-1 $87 reversed single #
loop $-1 $-1 $88 $34 #
plane-surface $-1 -79.912106692709159 16.923406752317582 0.6116593263509742 -0.78801076186113728 0 0.61566146476048833 0.61566146476048833 0 0.78801076186113728 forward_v I I I I #
coedge $-1 $89 $90 $91 $92 reversed $35 $-1 #
face $-1 $-1 $93 $19 $-1 $94 forward single #
loop $-1 $95 $96 $37 #
cone-surface $-1 -71.00360760263915 16.923406752317582 9.9836819155022773 0.78801076186113728 0 -0.61566146476048833 0.15391536619012208 0 0.19700269046528432 1 I I -0.70710678118654746 0.70710678118654746 0.25 forward I I I I #
loop $-1 $-1 $97 $24 #
coedge $-1 $60 $60 $98 $99 reversed $38 $-1 #
face $-1 $100 $101 $15 $-1 $102 reversed single #
loop $-1 $-1 $103 $40 #
plane-surface $-1 0 -44.701223364726836 0 0 1 0 0 0 1 forward_v I I I I #
coedge $-1 $104 $105 $106 $107 forward $41 $-1 #
coedge $-1 $108 $43 $109 $110 forward $26 $-1 #
coedge $-1 $43 $108 $111 $112 forward $26 $-1 #
coedge $-1 $113 $114 $43 $68 reversed $115 $-1 #
edge $-1 $116 -44.701223364726836 $117 44.701223364726836 $67 $118 forward 7 unknown #
face $-1 $119 $120 $16 $-1 $121 reversed single #
loop $-1 $-1 $122 $44 #
plane-surface $-1 0 0 -20.89485816655483 0 0 1 1 0 0 forward_v I I I I #
coedge $-1 $123 $124 $125 $126 reversed $45 $-1 #
coedge $-1 $127 $47 $124 $128 forward $29 $-1 #
coedge $-1 $47 $127 $129 $130 reversed $29 $-1 #
coedge $-1 $131 $125 $47 $76 forward $120 $-1 #
edge $-1 $132 11.039553543612197 $133 26.120964395280492 $75 $134 forward 7 unknown #
face $-1 $135 $136 $17 $-1 $137 reversed single #
loop $-1 $-1 $138 $48 #
plane-surface $-1 -68.062729446922788 33.178889112576677 0 -1 0 0 0 0 1 forward_v I I I I #
coedge $-1 $139 $140 $141 $142 reversed $49 $-1 #
coedge $-1 $143 $51 $144 $145 reversed $32 $-1 #
coedge $-1 $51 $143 $146 $147 reversed $32 $-1 #
coedge $-1 $140 $139 $51 $84 reversed $49 $-1 #
edge $-1 $148 -20.89485816655483 $149 20.89485816655483 $83 $150 forward 7 unknown #
face $-1 $151 $152 $18 $-1 $153 forward single #
loop $-1 $-1 $154 $52 #
plane-surface $-1 -79.912106692709131 0 0 1 0 0 0 0 -1 forward_v I I I I #
coedge $-1 $155 $156 $157 $158 reversed $53 $-1 #
coedge $-1 $90 $55 $159 $160 reversed $35 $-1 #
coedge $-1 $55 $89 $155 $161 reversed $35 $-1 #
coedge $-1 $157 $162 $55 $92 forward $152 $-1 #
edge $-1 $163 23.015546730495657 $164 38.862518005982722 $91 $165 forward 7 unknown #
loop $-1 $-1 $98 $56 #
plane-surface $-1 -79.912106692709159 16.923406752317582 0.6116593263509742 -0.78801076186113728 0 0.61566146476048833 0.61566146476048833 0 0.78801076186113728 forward_v I I I I #
loop $-1 $-1 $166 $37 #
coedge $-1 $96 $96 $97 $167 reversed $57 $-1 #
coedge $-1 $97 $97 $96 $167 forward $59 $-1 #
coedge $-1 $98 $98 $60 $99 forward $93 $-1 #
edge $-1 $168 0 $168 6.2831853071796004 $98 $169 forward 7 unknown #
face $-1 $170 $171 $15 $-1 $172 reversed single #
loop $-1 $-1 $173 $61 #
plane-surface $-1 -79.912106692709131 0 0 1 0 0 0 0 -1 forward_v I I I I #
coedge $-1 $174 $111 $175 $176 forward $62 $-1 #
coedge $-1 $177 $64 $174 $178 forward $41 $-1 #
coedge $-1 $64 $177 $179 $180 forward $41 $-1 #
coedge $-1 $114 $113 $64 $107 reversed $115 $-1 #
edge $-1 $181 -44.701223364726836 $182 44.701223364726836 $106 $183 forward 7 unknown #
coedge $-1 $66 $65 $184 $185 forward $26 $-1 #
coedge $-1 $186 $187 $65 $110 reversed $171 $-1 #
edge $-1 $117 -79.912106692709131 $188 79.912106692709131 $109 $189 forward 7 unknown #
coedge $-1 $103 $190 $66 $112 reversed $62 $-1 #
edge $-1 $191 -79.912106692709131 $116 79.912106692709131 $111 $192 forward 7 unknown #
coedge $-1 $106 $67 $190 $193 forward $115 $-1 #
coedge $-1 $67 $106 $186 $194 reversed $115 $-1 #
loop $-1 $-1 $113 $170 #
vertex $-1 $68 $195 #
vertex $-1 $68 $196 #
straight-curve $-1 79.912106692709131 0 20.89485816655483 0 1 0 I I #
face $-1 $197 $198 $16 $-1 $199 reversed single #
loop $-1 $-1 $125 $69 #
plane-surface $-1 79.912106692709131 0 0 -1 0 0 0 0 1 forward_v I I I I #
coedge $-1 $200 $201 $123 $202 forward $70 $-1 #
coedge $-1 $203 $72 $122 $202 reversed $45 $-1 #
coedge $-1 $72 $203 $73 $128 reversed $45 $-1 #
coedge $-1 $75 $204 $72 $126 forward $120 $-1 #
edge $-1 $205 -13.216522282085851 $132 -2.1401494868521063 $125 $206 forward 7 unknown #
coedge $-1 $74 $73 $207 $208 reversed $29 $-1 #
edge $-1 $132 -79.912106692709131 $209 79.912106692709131 $124 $210 forward 7 unknown #
coedge $-1 $211 $212 $74 $130 forward $198 $-1 #
edge $-1 $133 -79.912106692709131 $213 79.912106692709131 $129 $214 forward 7 unknown #
coedge $-1 $204 $75 $212 $215 forward $120 $-1 #
vertex $-1 $76 $216 #
vertex $-1 $215 $217 #
straight-curve $-1 79.912106692709131 -18.580258969446344 -9.8184853713210849 0 -1 0 I I #
face $-1 $218 $219 $17 $-1 $220 forward single #
loop $-1 $-1 $221 $77 #
plane-surface $-1 0 0 -20.89485816655483 0 0 1 1 0 0 forward_v I I I I #
coedge $-1 $222 $223 $143 $224 forward $78 $-1 #
coedge $-1 $83 $80 $225 $226 reversed $49 $-1 #
coedge $-1 $80 $83 $227 $228 reversed $49 $-1 #
coedge $-1 $229 $230 $80 $142 forward $231 $-1 #
edge $-1 $232 -20.89485816655483 $233 20.89485816655483 $141 $234 forward 7 unknown #
coedge $-1 $82 $81 $138 $224 reversed $32 $-1 #
coedge $-1 $225 $221 $81 $145 forward $136 $-1 #
edge $-1 $235 31.823111020410423 $149 40.656125832614308 $144 $236 forward 7 unknown #
coedge $-1 $237 $227 $82 $147 forward $219 $-1 #
edge $-1 $148 -40.656125832614308 $238 -31.823111020410423 $146 $239 forward 7 unknown #
vertex $-1 $147 $240 #
vertex $-1 $145 $241 #
straight-curve $-1 -76.895744259126673 21.656554860426517 0 0 0 -1 I I #
face $-1 $-1 $242 $18 $-1 $243 forward single #
loop $-1 $-1 $244 $85 #
plane-surface $-1 0 0 20.89485816655483 0 0 1 1 0 0 forward_v I I I I #
coedge $-1 $245 $246 $247 $248 forward $86 $-1 #
coedge $-1 $249 $88 $90 $161 forward $53 $-1 #
coedge $-1 $88 $249 $250 $251 reversed $53 $-1 #
coedge $-1 $244 $91 $88 $158 forward $152 $-1 #
edge $-1 $164 3.7285552680498562 $252 13.194851484267726 $157 $253 forward 7 unknown #
coedge $-1 $246 $245 $89 $160 forward $86 $-1 #
edge $-1 $254 -48.892974995354201 $163 -28.609776155150382 $159 $255 forward 7 unknown #
edge $-1 $164 -25.739748518533744 $254 -4.6193811539156697e-014 $90 $256 forward 7 unknown #
coedge $-1 $91 $244 $246 $257 forward $152 $-1 #
vertex $-1 $160 $258 #
vertex $-1 $92 $259 #
straight-curve $-1 -102.92765342320479 12.190258644208647 20.894858166554826 1 0 0 I I #
coedge $-1 $166 $166 $-1 $260 reversed $95 $-1 #
edge $-1 $261 0 $261 6.2831853071796004 $96 $262 forward 7 unknown #
vertex $-1 $99 $263 #
ellipse-curve $-1 -71.988621054965606 16.923406752317582 10.753258746452914 -0.78801076186113728 0 0.61566146476048833 0.30783073238024417 0 0.39400538093056864 1 I I #
face $-1 $-1 $115 $15 $-1 $264 reversed single #
loop $-1 $-1 $186 $100 #
plane-surface $-1 0 44.701223364726836 0 0 -1 0 0 0 -1 forward_v I I I I #
coedge $-1 $265 $184 $187 $266 forward $101 $-1 #
coedge $-1 $190 $103 $104 $178 reversed $62 $-1 #
coedge $-1 $184 $265 $103 $176 reversed $101 $-1 #
edge $-1 $191 -20.89485816655483 $267 20.89485816655483 $175 $268 forward 7 unknown #
coedge $-1 $105 $104 $265 $269 forward $41 $-1 #
edge $-1 $182 -79.912106692709131 $267 79.912106692709131 $174 $270 forward 7 unknown #
coedge $-1 $187 $186 $105 $180 reversed $171 $-1 #
edge $-1 $271 -79.912106692709131 $181 79.912106692709131 $179 $272 forward 7 unknown #
vertex $-1 $107 $273 #
vertex $-1 $193 $274 #
straight-curve $-1 79.912106692709131 0 -20.89485816655483 0 -1 0 I I #
coedge $-1 $173 $175 $108 $185 reversed $101 $-1 #
edge $-1 $188 -44.701223364726836 $191 44.701223364726836 $184 $275 forward 7 unknown #
coedge $-1 $179 $109 $114 $194 forward $171 $-1 #
coedge $-1 $109 $179 $173 $266 reversed $171 $-1 #
vertex $-1 $110 $276 #
straight-curve $-1 0 44.701223364726836 20.89485816655483 -1 0 0 I I #
coedge $-1 $111 $174 $113 $193 reversed $62 $-1 #
vertex $-1 $185 $277 #
straight-curve $-1 0 -44.701223364726836 20.89485816655483 1 0 0 I I #
edge $-1 $116 -20.89485816655483 $182 20.89485816655483 $113 $278 forward 7 unknown #
edge $-1 $117 -20.89485816655483 $181 20.89485816655483 $114 $279 forward 7 unknown #
point $-1 79.912106692709131 -44.701223364726836 20.89485816655483 #
point $-1 79.912106692709131 44.701223364726836 20.89485816655483 #
face $-1 $-1 $280 $16 $-1 $281 reversed single #
loop $-1 $-1 $129 $119 #
plane-surface $-1 0 -44.701223364726836 0 0 1 0 0 0 1 forward_v I I I I #
coedge $-1 $282 $122 $204 $283 forward $70 $-1 #
coedge $-1 $122 $282 $284 $285 forward $70 $-1 #
edge $-1 $286 -79.912106692709131 $205 79.912106692709131 $122 $287 forward 7 unknown #
coedge $-1 $124 $123 $288 $289 reversed $45 $-1 #
coedge $-1 $125 $131 $200 $283 reversed $120 $-1 #
vertex $-1 $283 $290 #
straight-curve $-1 79.912106692709131 -29.619812513058541 -7.6783358844689786 0 0 1 I I #
coedge $-1 $288 $291 $127 $208 forward $280 $-1 #
edge $-1 $213 -26.120964395280492 $209 -11.039553543612197 $207 $292 forward 7 unknown #
vertex $-1 $208 $293 #
straight-curve $-1 0 -29.619812513058541 -9.8184853713210849 -1 0 0 I I #
coedge $-1 $294 $129 $291 $295 forward $198 $-1 #
coedge $-1 $129 $294 $131 $215 reversed $198 $-1 #
vertex $-1 $295 $296 #
straight-curve $-1 0 -44.701223364726836 -9.8184853713210849 -1 0 0 I I #
edge $-1 $133 9.8184853713210849 $297 20.89485816655483 $131 $298 forward 7 unknown #
point $-1 79.912106692709131 -29.619812513058541 -9.8184853713210849 #
point $-1 79.912106692709131 -44.701223364726836 -9.8184853713210849 #
face $-1 $-1 $231 $17 $-1 $299 reversed single #
loop $-1 $-1 $237 $135 #
plane-surface $-1 0 0 20.89485816655483 0 0 1 1 0 0 forward_v I I I I #
coedge $-1 $144 $300 $222 $301 forward $136 $-1 #
coedge $-1 $302 $138 $221 $301 reversed $78 $-1 #
coedge $-1 $138 $302 $237 $303 reversed $78 $-1 #
edge $-1 $238 -20.89485816655483 $235 20.89485816655483 $138 $304 forward 7 unknown #
coedge $-1 $300 $144 $139 $226 forward $136 $-1 #
edge $-1 $149 5.0671103041381791 $232 28.111778808438498 $225 $305 forward 7 unknown #
coedge $-1 $146 $306 $140 $228 forward $219 $-1 #
edge $-1 $233 -28.111778808438498 $148 -5.0671103041381791 $227 $307 forward 7 unknown #
coedge $-1 $308 $141 $306 $309 reversed $231 $-1 #
coedge $-1 $141 $308 $300 $310 reversed $231 $-1 #
loop $-1 $-1 $308 $218 #
vertex $-1 $310 $311 #
vertex $-1 $142 $312 #
straight-curve $-1 -76.895744259126673 44.701223364726836 0 0 0 1 I I #
vertex $-1 $145 $313 #
straight-curve $-1 -36.239618426512365 21.656554860426517 -20.89485816655483 -1 0 0 I I #
coedge $-1 $306 $146 $223 $303 forward $219 $-1 #
vertex $-1 $147 $314 #
straight-curve $-1 -36.239618426512365 21.656554860426517 20.89485816655483 1 0 0 I I #
point $-1 -76.895744259126673 21.656554860426517 20.89485816655483 #
point $-1 -76.895744259126673 21.656554860426517 -20.89485816655483 #
loop $-1 $-1 $250 $151 #
plane-surface $-1 -72.47923685302473 21.656554860426517 0 0 1 0 0 0 1 forward_v I I I I #
coedge $-1 $162 $157 $315 $316 forward $152 $-1 #
coedge $-1 $159 $154 $249 $317 forward $86 $-1 #
coedge $-1 $154 $159 $162 $257 reversed $86 $-1 #
coedge $-1 $315 $250 $154 $248 reversed $242 $-1 #
edge $-1 $318 28.609776155150382 $319 48.892974995354201 $154 $320 forward 7 unknown #
coedge $-1 $156 $155 $245 $317 reversed $53 $-1 #
coedge $-1 $247 $315 $156 $251 forward $242 $-1 #
edge $-1 $252 -23.692679817975311 $319 2.0470687005583907 $250 $321 forward 7 unknown #
vertex $-1 $316 $322 #
straight-curve $-1 -64.065135417222066 8.4617033761587912 20.89485816655483 0 1 0 I I #
vertex $-1 $160 $323 #
straight-curve $-1 -79.912106692709131 12.190258644208647 49.504634321705211 0 0 1 I I #
straight-curve $-1 -79.912106692709159 12.190258644208647 0.6116593263509742 -0.61566146476048833 0 -0.78801076186113728 I I #
edge $-1 $318 -21.656554860426517 $163 -12.190258644208647 $246 $324 forward 7 unknown #
point $-1 -79.912106692709131 12.190258644208647 20.89485816655483 #
point $-1 -64.065135417222066 12.190258644208647 20.89485816655483 #
edge $-1 $325 1 $325 0 $166 $-1 forward 7 unknown #
vertex $-1 $167 $326 #
ellipse-curve $-1 -71.200610293104432 16.923406752317582 10.137597281692399 -0.78801076186113728 0 0.61566146476048833 0.30783073238024417 0 0.39400538093056864 1 I I #
point $-1 -71.680790322585324 16.923406752317582 11.147264127383457 #
plane-surface $-1 79.912106692709131 0 0 -1 0 0 0 0 1 forward_v I I I I #
coedge $-1 $175 $173 $177 $269 reversed $101 $-1 #
edge $-1 $188 -20.89485816655483 $271 20.89485816655483 $187 $327 forward 7 unknown #
vertex $-1 $269 $328 #
straight-curve $-1 -79.912106692709131 -44.701223364726836 0 0 0 -1 I I #
edge $-1 $267 -44.701223364726836 $271 44.701223364726836 $265 $329 forward 7 unknown #
straight-curve $-1 0 -44.701223364726836 -20.89485816655483 -1 0 0 I I #
vertex $-1 $180 $330 #
straight-curve $-1 0 44.701223364726836 -20.89485816655483 1 0 0 I I #
point $-1 79.912106692709131 44.701223364726836 -20.89485816655483 #
point $-1 79.912106692709131 -44.701223364726836 -20.89485816655483 #
straight-curve $-1 -79.912106692709131 0 20.89485816655483 0 -1 0 I I #
point $-1 -79.912106692709131 44.701223364726836 20.89485816655483 #
point $-1 -79.912106692709131 -44.701223364726836 20.89485816655483 #
straight-curve $-1 79.912106692709131 -44.701223364726836 0 0 0 -1 I I #
straight-curve $-1 79.912106692709131 44.701223364726836 0 0 0 -1 I I #
loop $-1 $-1 $288 $197 #
plane-surface $-1 -79.912106692709131 0 0 1 0 0 0 0 -1 forward_v I I I I #
coedge $-1 $201 $200 $294 $331 forward $70 $-1 #
edge $-1 $205 29.619812513058541 $297 44.701223364726836 $204 $332 forward 7 unknown #
coedge $-1 $291 $288 $201 $285 reversed $280 $-1 #
edge $-1 $333 -44.701223364726836 $286 -29.619812513058541 $284 $334 forward 7 unknown #
vertex $-1 $289 $335 #
straight-curve $-1 0 -29.619812513058541 -20.89485816655483 1 0 0 I I #
coedge $-1 $284 $207 $203 $289 forward $280 $-1 #
edge $-1 $209 2.1401494868521063 $286 13.216522282085851 $288 $336 forward 7 unknown #
point $-1 79.912106692709131 -29.619812513058541 -20.89485816655483 #
coedge $-1 $207 $284 $211 $295 reversed $280 $-1 #
straight-curve $-1 -79.912106692709131 -18.580258969446344 -9.8184853713210849 0 1 0 I I #
point $-1 -79.912106692709131 -29.619812513058541 -9.8184853713210849 #
coedge $-1 $212 $211 $282 $331 reversed $198 $-1 #
edge $-1 $213 9.8184853713210849 $333 20.89485816655483 $291 $337 forward 7 unknown #
point $-1 -79.912106692709131 -44.701223364726836 -9.8184853713210849 #
vertex $-1 $215 $338 #
straight-curve $-1 79.912106692709131 -44.701223364726836 0 0 0 -1 I I #
plane-surface $-1 0 44.701223364726836 0 0 -1 0 0 0 -1 forward_v I I I I #
coedge $-1 $221 $225 $230 $310 forward $136 $-1 #
edge $-1 $339 -28.111778808438498 $235 -5.0671103041381791 $221 $340 forward 7 unknown #
coedge $-1 $223 $222 $308 $341 reversed $78 $-1 #
edge $-1 $238 5.0671103041381791 $342 28.111778808438498 $237 $343 forward 7 unknown #
straight-curve $-1 -68.062729446922788 21.656554860426517 0 0 0 -1 I I #
straight-curve $-1 -76.895744259126673 16.589444556288338 -20.89485816655483 0 1 0 I I #
coedge $-1 $227 $237 $229 $309 forward $219 $-1 #
straight-curve $-1 -76.895744259126673 16.589444556288338 20.89485816655483 0 -1 0 I I #
coedge $-1 $230 $229 $302 $341 forward $231 $-1 #
edge $-1 $342 68.062729446922788 $233 76.895744259126673 $229 $344 forward 7 unknown #
edge $-1 $232 -76.895744259126673 $339 -68.062729446922788 $230 $345 forward 7 unknown #
point $-1 -76.895744259126673 44.701223364726836 -20.89485816655483 #
point $-1 -76.895744259126673 44.701223364726836 20.89485816655483 #
point $-1 -68.062729446922788 21.656554860426517 -20.89485816655483 #
point $-1 -68.062729446922788 21.656554860426517 20.89485816655483 #
coedge $-1 $250 $247 $244 $316 reversed $242 $-1 #
edge $-1 $252 27.825516990709701 $318 43.672488266196765 $244 $346 forward 7 unknown #
edge $-1 $319 -13.194851484267726 $254 -3.7285552680498562 $245 $347 forward 7 unknown #
vertex $-1 $257 $348 #
vertex $-1 $248 $349 #
straight-curve $-1 -79.912106692709131 21.656554860426517 49.504634321705211 0 0 -1 I I #
straight-curve $-1 -78.651805378058 21.656554860426517 2.224771492660115 -0.61566146476048833 0 -0.78801076186113728 I I #
point $-1 -64.065135417222066 21.656554860426517 20.89485816655483 #
point $-1 -79.912106692709131 12.190258644208647 0.61165932635101061 #
straight-curve $-1 -79.912106692709131 0 20.89485816655483 0 -1 0 I I #
vertex $-1 $260 $350 #
point $-1 -70.892779560724193 16.923406752317582 10.531602662622968 #
straight-curve $-1 -79.912106692709131 44.701223364726836 0 0 0 -1 I I #
point $-1 -79.912106692709131 -44.701223364726836 -20.89485816655483 #
straight-curve $-1 -79.912106692709131 0 -20.89485816655483 0 1 0 I I #
point $-1 -79.912106692709131 44.701223364726836 -20.89485816655483 #
edge $-1 $297 -79.912106692709131 $333 79.912106692709131 $294 $351 forward 7 unknown #
straight-curve $-1 79.912106692709131 0 -20.89485816655483 0 -1 0 I I #
vertex $-1 $285 $352 #
straight-curve $-1 -79.912106692709131 0 -20.89485816655483 0 1 0 I I #
point $-1 -79.912106692709131 -29.619812513058541 -20.89485816655483 #
straight-curve $-1 -79.912106692709131 -29.619812513058541 -7.6783358844689786 0 0 -1 I I #
straight-curve $-1 -79.912106692709131 -44.701223364726836 0 0 0 -1 I I #
point $-1 79.912106692709131 -44.701223364726836 -20.89485816655483 #
vertex $-1 $341 $353 #
straight-curve $-1 -68.062729446922788 16.589444556288338 -20.89485816655483 0 -1 0 I I #
edge $-1 $342 -20.89485816655483 $339 20.89485816655483 $308 $354 forward 7 unknown #
vertex $-1 $309 $355 #
straight-curve $-1 -68.062729446922788 16.589444556288338 20.89485816655483 0 1 0 I I #
straight-curve $-1 0 44.701223364726836 20.89485816655483 -1 0 0 I I #
straight-curve $-1 0 44.701223364726836 -20.89485816655483 1 0 0 I I #
straight-curve $-1 -36.239618426512365 21.656554860426517 20.89485816655483 -1 0 0 I I #
straight-curve $-1 -79.912106692709131 8.4617033761587912 0.61165932635101794 0 -1 0 I I #
point $-1 -79.912106692709131 21.656554860426517 20.89485816655483 #
point $-1 -79.912106692709131 21.656554860426517 0.61165932635101061 #
point $-1 -70.806604912173867 16.923406752317582 9.829766549312156 #
straight-curve $-1 0 -44.701223364726836 -20.89485816655483 -1 0 0 I I #
point $-1 -79.912106692709131 -44.701223364726836 -20.89485816655483 #
point $-1 -68.062729446922788 44.701223364726836 -20.89485816655483 #
straight-curve $-1 -68.062729446922788 44.701223364726836 0 0 0 -1 I I #
point $-1 -68.062729446922788 44.701223364726836 20.89485816655483 #
End-of-ACIS-data 