500 0 8 0           
7 Unknown 11 ACIS 5.0 NT 24 Thu Mar 25 20:06:22 1999 
-1 9.9999999999999995e-007 1e-010 
body $-1 $8 $-1 $9 #
body $-1 $10 $-1 $11 #
body $-1 $12 $-1 $13 #
body $-1 $14 $-1 $15 #
body $-1 $16 $-1 $17 #
body $-1 $18 $-1 $19 #
body $-1 $20 $-1 $21 #
body $-1 $22 $-1 $23 #
lump $-1 $-1 $24 $0 #
transform $-1 1 0 0 0 1 0 0 0 1 52.884914700766018 32.929482029382882 12.033174594055749 1 rotate no_reflect no_shear #
lump $-1 $-1 $25 $1 #
transform $-1 1 0 0 0 1 0 0 0 1 52.884914700766018 32.929482029382882 12.033174594055749 1 rotate no_reflect no_shear #
lump $-1 $-1 $26 $2 #
transform $-1 1 0 0 0 1 0 0 0 1 52.884914700766018 32.929482029382882 12.033174594055749 1 rotate no_reflect no_shear #
lump $-1 $-1 $27 $3 #
transform $-1 1 0 0 0 1 0 0 0 1 52.884914700766018 32.929482029382882 12.033174594055749 1 rotate no_reflect no_shear #
lump $-1 $-1 $28 $4 #
transform $-1 1 0 0 0 1 0 0 0 1 52.884914700766018 32.929482029382882 12.033174594055749 1 rotate no_reflect no_shear #
lump $-1 $-1 $29 $5 #
transform $-1 1 0 0 0 1 0 0 0 1 52.884914700766018 32.929482029382882 12.033174594055749 1 rotate no_reflect no_shear #
lump $-1 $-1 $30 $6 #
transform $-1 1 0 0 0 1 0 0 0 1 52.884914700766018 32.929482029382882 12.033174594055749 1 rotate no_reflect no_shear #
lump $-1 $-1 $31 $7 #
transform $-1 1 0 0 0 1 0 0 0 1 52.884914700766018 32.929482029382882 12.033174594055749 1 rotate no_reflect no_shear #
shell $-1 $-1 $-1 $32 $-1 $8 #
shell $-1 $-1 $-1 $33 $-1 $10 #
shell $-1 $-1 $-1 $34 $-1 $12 #
shell $-1 $-1 $-1 $35 $-1 $14 #
shell $-1 $-1 $-1 $36 $-1 $16 #
shell $-1 $-1 $-1 $37 $-1 $18 #
shell $-1 $-1 $-1 $38 $-1 $20 #
shell $-1 $-1 $-1 $39 $-1 $22 #
face $-1 $40 $41 $24 $-1 $42 forward single #
face $-1 $43 $44 $25 $-1 $45 forward single #
face $-1 $46 $47 $26 $-1 $48 forward single #
face $-1 $49 $50 $27 $-1 $51 reversed single #
face $-1 $52 $53 $28 $-1 $54 forward single #
face $-1 $55 $56 $29 $-1 $57 reversed single #
face $-1 $58 $59 $30 $-1 $60 forward single #
face $-1 $61 $62 $31 $-1 $63 forward single #
face $-1 $64 $65 $24 $-1 $66 reversed single #
loop $-1 $-1 $67 $32 #
plane-surface $-1 0 0 12.033174594055749 0 0 1 1 0 0 forward_v I I I I #
face $-1 $68 $69 $25 $-1 $70 reversed single #
loop $-1 $-1 $71 $33 #
plane-surface $-1 0 -25.224992918703201 7.5675886907603678 0 0 1 1 0 0 forward_v I I I I #
face $-1 $72 $73 $26 $-1 $74 reversed single #
loop $-1 $-1 $75 $34 #
plane-surface $-1 0 25.224992918703201 7.5675886907603678 0 0 1 1 0 0 forward_v I I I I #
face $-1 $76 $77 $27 $-1 $78 reversed single #
loop $-1 $-1 $79 $35 #
plane-surface $-1 -133.9093056399285 -10.797808340305863 68.694927150150804 0 -1 0 0.7660444514056185 0 -0.64278759981090561 forward_v I I I I #
face $-1 $80 $81 $28 $-1 $82 forward single #
loop $-1 $83 $84 $36 #
cone-surface $-1 -46.199002816179004 -14.159156074164692 4.7473119838200111 0.7660444514056185 0 -0.64278759981090561 0.96418139971635841 0 1.1490666771084277 1 I I 0 1 1.5 forward I I I I #
face $-1 $85 $86 $29 $-1 $87 reversed single #
loop $-1 $-1 $88 $37 #
plane-surface $-1 16.697966015530241 17.520503808023516 153.90452174901705 0 -1 0 -0.51503808176128008 0 -0.85716729658548041 forward_v I I I I #
face $-1 $89 $90 $30 $-1 $91 forward single #
loop $-1 $92 $93 $38 #
cone-surface $-1 49.161083011709373 10.589207899414241 8.7263187238530975 -0.51503808176128008 0 -0.85716729658548041 0.85716729658548041 0 -0.51503808176128008 1 I I 0 1 1 forward I I I I #
face $-1 $94 $95 $31 $-1 $96 forward single #
loop $-1 $97 $98 $39 #
cone-surface $-1 49.161083011709373 14.747985444579811 8.7263187238530975 -0.51503808176128008 0 -0.85716729658548041 0.85716729658548041 0 -0.51503808176128008 1 I I 0 1 1 forward I I I I #
face $-1 $99 $100 $24 $-1 $101 reversed single #
loop $-1 $-1 $102 $40 #
plane-surface $-1 0 0 -12.033174594055749 0 0 1 1 0 0 forward_v I I I I #
coedge $-1 $103 $104 $105 $106 forward $41 $-1 #
face $-1 $107 $108 $25 $-1 $109 reversed single #
loop $-1 $-1 $110 $43 #
plane-surface $-1 0 -25.224992918703201 2.420796432216977 0 0 1 1 0 0 forward_v I I I I #
coedge $-1 $111 $112 $113 $114 reversed $44 $-1 #
face $-1 $115 $116 $26 $-1 $117 reversed single #
loop $-1 $-1 $118 $46 #
plane-surface $-1 0 25.224992918703201 2.420796432216977 0 0 1 1 0 0 forward_v I I I I #
coedge $-1 $119 $120 $121 $122 reversed $47 $-1 #
face $-1 $123 $124 $27 $-1 $125 forward single #
loop $-1 $-1 $126 $49 #
plane-surface $-1 -52.884914700766032 -14.159156074164692 0.70739237673106459 -0.7660444514056185 0 0.64278759981090561 0.64278759981090561 0 0.7660444514056185 forward_v I I I I #
coedge $-1 $127 $128 $129 $130 reversed $50 $-1 #
face $-1 $-1 $131 $28 $-1 $132 forward single #
loop $-1 $133 $134 $52 #
cone-surface $-1 -43.690287309307465 -14.159156074164692 2.642249782388431 0.7660444514056185 0 -0.64278759981090561 0.48209069985817921 0 0.57453333855421385 1 I I -0.70710678118654757 0.70710678118654757 0.75 forward I I I I #
loop $-1 $-1 $135 $36 #
coedge $-1 $84 $84 $136 $137 reversed $53 $-1 #
face $-1 $138 $139 $29 $-1 $140 reversed single #
loop $-1 $-1 $141 $55 #
plane-surface $-1 -37.77752402765266 12.668596671997022 63.242083020598372 0.51503808176128008 0 0.85716729658548041 0.85716729658548041 0 -0.51503808176128008 forward_v I I I I #
coedge $-1 $142 $143 $144 $145 reversed $56 $-1 #
face $-1 $-1 $146 $30 $-1 $147 forward single #
loop $-1 $148 $149 $58 #
cone-surface $-1 47.897984613557128 10.589207899414241 6.6241700136778423 -0.51503808176128008 0 -0.85716729658548041 0.4285836482927402 0 -0.25751904088064004 1 I I -0.70710678118654746 0.70710678118654746 0.5 forward I I I I #
loop $-1 $-1 $150 $38 #
coedge $-1 $93 $93 $151 $152 reversed $59 $-1 #
face $-1 $-1 $153 $31 $-1 $154 forward single #
loop $-1 $155 $156 $61 #
cone-surface $-1 47.897984613557128 14.747985444579811 6.6241700136778423 -0.51503808176128008 0 -0.85716729658548041 0.4285836482927402 0 -0.25751904088064004 1 I I -0.70710678118654746 0.70710678118654746 0.5 forward I I I I #
loop $-1 $-1 $157 $39 #
coedge $-1 $98 $98 $158 $159 reversed $62 $-1 #
face $-1 $160 $161 $24 $-1 $162 reversed single #
loop $-1 $-1 $163 $64 #
plane-surface $-1 0 -32.929482029382882 0 0 1 0 0 0 1 forward_v I I I I #
coedge $-1 $164 $165 $166 $167 forward $65 $-1 #
coedge $-1 $168 $67 $169 $170 forward $41 $-1 #
coedge $-1 $67 $168 $171 $172 forward $41 $-1 #
coedge $-1 $173 $174 $67 $106 reversed $175 $-1 #
edge $-1 $176 -32.929482029382882 $177 32.929482029382882 $105 $178 forward 7 unknown #
face $-1 $179 $180 $25 $-1 $181 reversed single #
loop $-1 $-1 $182 $68 #
plane-surface $-1 0 -17.52050380802352 4.9941925614886724 0 -1 0 0 0 -1 forward_v I I I I #
coedge $-1 $183 $184 $185 $186 reversed $69 $-1 #
coedge $-1 $187 $71 $188 $189 forward $44 $-1 #
coedge $-1 $71 $187 $190 $191 reversed $44 $-1 #
coedge $-1 $192 $193 $71 $114 forward $194 $-1 #
edge $-1 $195 4.9080073486719193 $196 20.316985570031282 $113 $197 forward 7 unknown #
face $-1 $198 $199 $26 $-1 $200 reversed single #
loop $-1 $-1 $201 $72 #
plane-surface $-1 0 17.52050380802352 4.9941925614886724 0 1 0 0 0 1 forward_v I I I I #
coedge $-1 $202 $203 $204 $205 reversed $73 $-1 #
coedge $-1 $206 $75 $207 $208 reversed $47 $-1 #
coedge $-1 $75 $206 $209 $210 forward $47 $-1 #
coedge $-1 $211 $212 $75 $122 forward $199 $-1 #
edge $-1 $213 -20.316985570031282 $214 -4.9080073486719193 $121 $215 forward 7 unknown #
face $-1 $216 $217 $27 $-1 $218 reversed single #
loop $-1 $-1 $219 $76 #
plane-surface $-1 0 0 12.033174594055749 0 0 1 1 0 0 forward_v I I I I #
coedge $-1 $220 $221 $222 $223 reversed $77 $-1 #
coedge $-1 $128 $79 $224 $225 reversed $50 $-1 #
coedge $-1 $79 $127 $220 $226 reversed $50 $-1 #
coedge $-1 $222 $227 $79 $130 forward $217 $-1 #
edge $-1 $228 22.314288981019651 $229 33.640071198344323 $129 $230 forward 7 unknown #
loop $-1 $-1 $136 $80 #
plane-surface $-1 -52.884914700766032 -14.159156074164692 0.70739237673106459 -0.7660444514056185 0 0.64278759981090561 0.64278759981090561 0 0.7660444514056185 forward_v I I I I #
loop $-1 $-1 $231 $52 #
coedge $-1 $134 $134 $135 $232 reversed $81 $-1 #
coedge $-1 $135 $135 $134 $232 forward $83 $-1 #
coedge $-1 $136 $136 $84 $137 forward $131 $-1 #
edge $-1 $233 0 $233 6.2831853071796004 $136 $234 forward 7 unknown #
face $-1 $235 $236 $29 $-1 $237 reversed single #
loop $-1 $-1 $238 $85 #
plane-surface $-1 16.697966015530241 7.8166895359705286 153.90452174901705 0 1 0 0.51503808176128008 0 0.85716729658548041 forward_v I I I I #
coedge $-1 $239 $240 $241 $242 reversed $86 $-1 #
coedge $-1 $143 $88 $243 $244 reversed $56 $-1 #
coedge $-1 $88 $142 $239 $245 reversed $56 $-1 #
coedge $-1 $241 $246 $88 $145 forward $247 $-1 #
edge $-1 $248 -44.535931693000897 $249 -39.099427029430835 $144 $250 forward 7 unknown #
loop $-1 $-1 $151 $89 #
plane-surface $-1 -37.77752402765266 12.668596671997022 63.242083020598372 0.51503808176128008 0 0.85716729658548041 0.85716729658548041 0 -0.51503808176128008 forward_v I I I I #
loop $-1 $-1 $251 $58 #
coedge $-1 $149 $149 $150 $252 reversed $90 $-1 #
coedge $-1 $150 $150 $149 $252 forward $92 $-1 #
coedge $-1 $151 $151 $93 $152 forward $146 $-1 #
edge $-1 $253 0 $253 6.2831853071796004 $151 $254 forward 7 unknown #
loop $-1 $-1 $158 $94 #
plane-surface $-1 -37.77752402765266 12.668596671997022 63.242083020598372 0.51503808176128008 0 0.85716729658548041 0.85716729658548041 0 -0.51503808176128008 forward_v I I I I #
loop $-1 $-1 $255 $61 #
coedge $-1 $156 $156 $157 $256 reversed $95 $-1 #
coedge $-1 $157 $157 $156 $256 forward $97 $-1 #
coedge $-1 $158 $158 $98 $159 forward $153 $-1 #
edge $-1 $257 0 $257 6.2831853071796004 $158 $258 forward 7 unknown #
face $-1 $259 $260 $24 $-1 $261 reversed single #
loop $-1 $-1 $262 $99 #
plane-surface $-1 -52.884914700766018 0 0 1 0 0 0 0 -1 forward_v I I I I #
coedge $-1 $263 $171 $264 $265 forward $100 $-1 #
coedge $-1 $266 $102 $263 $267 forward $65 $-1 #
coedge $-1 $102 $266 $268 $269 forward $65 $-1 #
coedge $-1 $174 $173 $102 $167 reversed $175 $-1 #
edge $-1 $270 -32.929482029382882 $271 32.929482029382882 $166 $272 forward 7 unknown #
coedge $-1 $104 $103 $273 $274 forward $41 $-1 #
coedge $-1 $275 $276 $103 $170 reversed $260 $-1 #
edge $-1 $177 -52.884914700766018 $277 52.884914700766018 $169 $278 forward 7 unknown #
coedge $-1 $163 $279 $104 $172 reversed $100 $-1 #
edge $-1 $280 -52.884914700766018 $176 52.884914700766018 $171 $281 forward 7 unknown #
coedge $-1 $166 $105 $279 $282 forward $175 $-1 #
coedge $-1 $105 $166 $275 $283 reversed $175 $-1 #
loop $-1 $-1 $173 $259 #
vertex $-1 $106 $284 #
vertex $-1 $106 $285 #
straight-curve $-1 52.884914700766018 0 12.033174594055749 0 1 0 I I #
face $-1 $286 $287 $25 $-1 $288 reversed single #
loop $-1 $-1 $289 $107 #
plane-surface $-1 -52.884914700766018 0 0 1 0 0 0 0 -1 forward_v I I I I #
coedge $-1 $290 $188 $193 $291 reversed $108 $-1 #
coedge $-1 $292 $110 $293 $294 reversed $69 $-1 #
coedge $-1 $110 $292 $290 $295 forward $69 $-1 #
coedge $-1 $193 $192 $110 $186 forward $194 $-1 #
edge $-1 $296 -20.316985570031282 $297 -4.9080073486719193 $185 $298 forward 7 unknown #
coedge $-1 $112 $111 $289 $299 reversed $44 $-1 #
coedge $-1 $182 $300 $111 $189 reversed $108 $-1 #
edge $-1 $195 -52.884914700766018 $301 52.884914700766018 $188 $302 forward 7 unknown #
coedge $-1 $303 $304 $112 $191 forward $287 $-1 #
edge $-1 $196 -52.884914700766018 $305 52.884914700766018 $190 $306 forward 7 unknown #
coedge $-1 $185 $113 $304 $307 forward $194 $-1 #
coedge $-1 $113 $185 $182 $291 forward $194 $-1 #
loop $-1 $-1 $113 $286 #
vertex $-1 $114 $308 #
vertex $-1 $307 $309 #
straight-curve $-1 52.884914700766018 -12.6124964593516 7.5675886907603678 0 -1 0 I I #
face $-1 $310 $311 $26 $-1 $312 reversed single #
loop $-1 $-1 $121 $115 #
plane-surface $-1 52.884914700766018 0 0 -1 0 0 0 0 1 forward_v I I I I #
coedge $-1 $313 $209 $314 $315 reversed $116 $-1 #
coedge $-1 $316 $118 $313 $317 forward $73 $-1 #
coedge $-1 $118 $316 $318 $319 reversed $73 $-1 #
coedge $-1 $212 $211 $118 $205 forward $199 $-1 #
edge $-1 $320 4.9080073486719193 $321 20.316985570031282 $204 $322 forward 7 unknown #
coedge $-1 $120 $119 $323 $324 reversed $47 $-1 #
coedge $-1 $325 $326 $119 $208 forward $327 $-1 #
edge $-1 $328 -52.884914700766018 $213 52.884914700766018 $207 $329 forward 7 unknown #
coedge $-1 $201 $330 $120 $210 reversed $116 $-1 #
edge $-1 $331 -52.884914700766018 $214 52.884914700766018 $209 $332 forward 7 unknown #
coedge $-1 $204 $121 $330 $333 forward $199 $-1 #
coedge $-1 $121 $204 $325 $334 reversed $199 $-1 #
vertex $-1 $334 $335 #
vertex $-1 $122 $336 #
straight-curve $-1 52.884914700766018 12.6124964593516 7.5675886907603678 0 -1 0 I I #
face $-1 $-1 $337 $27 $-1 $338 forward single #
loop $-1 $-1 $339 $123 #
plane-surface $-1 -52.884914700766018 0 0 1 0 0 0 0 -1 forward_v I I I I #
coedge $-1 $340 $341 $342 $343 forward $124 $-1 #
coedge $-1 $344 $126 $128 $226 forward $77 $-1 #
coedge $-1 $126 $344 $345 $346 forward $77 $-1 #
coedge $-1 $339 $129 $126 $223 forward $217 $-1 #
edge $-1 $229 3.7182303032235176 $347 10.440925770941174 $222 $348 forward 7 unknown #
coedge $-1 $341 $340 $127 $225 forward $124 $-1 #
edge $-1 $349 -23.573197551737593 $228 -14.069738119198234 $224 $350 forward 7 unknown #
edge $-1 $229 2.214690806755022e-014 $349 14.784758503952297 $128 $351 forward 7 unknown #
coedge $-1 $129 $339 $341 $352 reversed $217 $-1 #
vertex $-1 $352 $353 #
vertex $-1 $130 $354 #
straight-curve $-1 -52.884914700766018 -10.797808340305863 34.347463575075402 0 0 -1 I I #
coedge $-1 $231 $231 $-1 $355 reversed $133 $-1 #
edge $-1 $356 0 $356 6.2831853071796004 $134 $357 forward 7 unknown #
vertex $-1 $137 $358 #
ellipse-curve $-1 -48.133184984496339 -14.159156074164692 6.3702834853934167 -0.7660444514056185 0 0.64278759981090561 0.96418139971635841 0 1.1490666771084277 1 I I #
face $-1 $-1 $247 $29 $-1 $359 forward single #
loop $-1 $-1 $360 $138 #
plane-surface $-1 52.884914700766018 0 0 -1 0 0 0 0 1 forward_v I I I I #
coedge $-1 $361 $362 $363 $364 reversed $139 $-1 #
coedge $-1 $365 $141 $143 $245 forward $86 $-1 #
coedge $-1 $141 $365 $361 $366 forward $86 $-1 #
coedge $-1 $363 $144 $141 $242 forward $247 $-1 #
edge $-1 $249 -11.186205472025005 $367 -1.4823911999720174 $241 $368 forward 7 unknown #
coedge $-1 $369 $370 $142 $244 forward $236 $-1 #
edge $-1 $371 -68.185667897093055 $248 -64.919086280452774 $243 $372 forward 7 unknown #
edge $-1 $249 99.427421466434254 $371 105.76982940153204 $143 $373 forward 7 unknown #
coedge $-1 $144 $363 $369 $374 forward $247 $-1 #
loop $-1 $-1 $363 $235 #
vertex $-1 $244 $375 #
vertex $-1 $145 $376 #
straight-curve $-1 8.3489830077651206 17.520503808023516 12.033174594055751 -1 0 0 I I #
coedge $-1 $251 $251 $-1 $377 reversed $148 $-1 #
edge $-1 $378 0 $378 6.2831853071796004 $149 $379 forward 7 unknown #
vertex $-1 $152 $380 #
ellipse-curve $-1 50.16666236898098 10.589207899414241 10.399883785735609 0.51503808176128008 0 0.85716729658548041 0.85716729658548041 0 -0.51503808176128008 1 I I #
coedge $-1 $255 $255 $-1 $381 reversed $155 $-1 #
edge $-1 $382 0 $382 6.2831853071796004 $156 $383 forward 7 unknown #
vertex $-1 $159 $384 #
ellipse-curve $-1 50.16666236898098 14.747985444579811 10.399883785735609 0.51503808176128008 0 0.85716729658548041 0.85716729658548041 0 -0.51503808176128008 1 I I #
face $-1 $-1 $175 $24 $-1 $385 reversed single #
loop $-1 $-1 $275 $160 #
plane-surface $-1 0 32.929482029382882 0 0 -1 0 0 0 -1 forward_v I I I I #
coedge $-1 $386 $273 $276 $387 forward $161 $-1 #
coedge $-1 $279 $163 $164 $267 reversed $100 $-1 #
coedge $-1 $273 $386 $163 $265 reversed $161 $-1 #
edge $-1 $280 -12.033174594055749 $388 12.033174594055749 $264 $389 forward 7 unknown #
coedge $-1 $165 $164 $386 $390 forward $65 $-1 #
edge $-1 $271 -52.884914700766018 $388 52.884914700766018 $263 $391 forward 7 unknown #
coedge $-1 $276 $275 $165 $269 reversed $260 $-1 #
edge $-1 $392 -52.884914700766018 $270 52.884914700766018 $268 $393 forward 7 unknown #
vertex $-1 $167 $394 #
vertex $-1 $282 $395 #
straight-curve $-1 52.884914700766018 0 -12.033174594055749 0 -1 0 I I #
coedge $-1 $262 $264 $168 $274 reversed $161 $-1 #
edge $-1 $277 -32.929482029382882 $280 32.929482029382882 $273 $396 forward 7 unknown #
coedge $-1 $268 $169 $174 $283 forward $260 $-1 #
coedge $-1 $169 $268 $262 $387 reversed $260 $-1 #
vertex $-1 $170 $397 #
straight-curve $-1 0 32.929482029382882 12.033174594055749 -1 0 0 I I #
coedge $-1 $171 $263 $173 $282 reversed $100 $-1 #
vertex $-1 $274 $398 #
straight-curve $-1 0 -32.929482029382882 12.033174594055749 1 0 0 I I #
edge $-1 $176 -12.033174594055749 $271 12.033174594055749 $173 $399 forward 7 unknown #
edge $-1 $177 -12.033174594055749 $270 12.033174594055749 $174 $400 forward 7 unknown #
point $-1 52.884914700766018 -32.929482029382882 12.033174594055749 #
point $-1 52.884914700766018 32.929482029382882 12.033174594055749 #
face $-1 $-1 $194 $25 $-1 $401 reversed single #
loop $-1 $-1 $190 $179 #
plane-surface $-1 0 -32.929482029382882 0 0 1 0 0 0 1 forward_v I I I I #
coedge $-1 $402 $403 $187 $299 forward $180 $-1 #
coedge $-1 $300 $182 $184 $295 reversed $108 $-1 #
edge $-1 $297 -0.07629984852735916 $195 5.0704924100160316 $193 $404 forward 7 unknown #
coedge $-1 $184 $183 $405 $406 reversed $69 $-1 #
coedge $-1 $304 $303 $183 $294 forward $287 $-1 #
edge $-1 $407 -52.884914700766018 $296 52.884914700766018 $293 $408 forward 7 unknown #
edge $-1 $409 -52.884914700766018 $297 52.884914700766018 $290 $410 forward 7 unknown #
vertex $-1 $294 $411 #
vertex $-1 $186 $412 #
straight-curve $-1 52.884914700766018 -12.6124964593516 2.420796432216977 0 1 0 I I #
edge $-1 $305 -20.316985570031282 $301 -4.9080073486719193 $289 $413 forward 7 unknown #
coedge $-1 $188 $290 $402 $414 reversed $108 $-1 #
vertex $-1 $299 $415 #
straight-curve $-1 0 -17.52050380802352 7.5675886907603678 -1 0 0 I I #
coedge $-1 $293 $190 $403 $416 forward $287 $-1 #
coedge $-1 $190 $293 $192 $307 reversed $287 $-1 #
vertex $-1 $416 $417 #
straight-curve $-1 0 -32.929482029382882 7.5675886907603678 -1 0 0 I I #
edge $-1 $196 -7.5675886907603678 $296 -2.420796432216977 $192 $418 forward 7 unknown #
point $-1 52.884914700766018 -17.52050380802352 7.5675886907603678 #
point $-1 52.884914700766018 -32.929482029382882 7.5675886907603678 #
face $-1 $-1 $327 $26 $-1 $419 reversed single #
loop $-1 $-1 $323 $198 #
plane-surface $-1 -52.884914700766018 0 0 1 0 0 0 0 -1 forward_v I I I I #
coedge $-1 $330 $201 $202 $317 reversed $116 $-1 #
coedge $-1 $323 $420 $201 $315 forward $311 $-1 #
edge $-1 $421 -0.07629984852735916 $331 5.0704924100160316 $314 $422 forward 7 unknown #
coedge $-1 $203 $202 $420 $423 reversed $73 $-1 #
edge $-1 $320 -52.884914700766018 $421 52.884914700766018 $313 $424 forward 7 unknown #
coedge $-1 $326 $325 $203 $319 forward $327 $-1 #
edge $-1 $321 -52.884914700766018 $425 52.884914700766018 $318 $426 forward 7 unknown #
vertex $-1 $205 $427 #
vertex $-1 $319 $428 #
straight-curve $-1 52.884914700766018 12.6124964593516 2.420796432216977 0 1 0 I I #
coedge $-1 $429 $314 $206 $324 forward $311 $-1 #
edge $-1 $331 4.9080073486719193 $328 20.316985570031282 $323 $430 forward 7 unknown #
coedge $-1 $318 $207 $212 $334 forward $327 $-1 #
coedge $-1 $207 $318 $429 $431 reversed $327 $-1 #
loop $-1 $-1 $207 $310 #
vertex $-1 $431 $432 #
straight-curve $-1 0 32.929482029382882 7.5675886907603678 1 0 0 I I #
coedge $-1 $209 $313 $211 $333 reversed $116 $-1 #
vertex $-1 $324 $433 #
straight-curve $-1 0 17.52050380802352 7.5675886907603678 1 0 0 I I #
edge $-1 $214 -5.0704924100160316 $320 0.07629984852735916 $211 $434 forward 7 unknown #
edge $-1 $213 -7.5675886907603678 $321 -2.420796432216977 $212 $435 forward 7 unknown #
point $-1 52.884914700766018 32.929482029382882 7.5675886907603678 #
point $-1 52.884914700766018 17.52050380802352 7.5675886907603678 #
loop $-1 $-1 $345 $216 #
plane-surface $-1 0 -17.52050380802352 4.9941925614886724 0 -1 0 0 0 -1 forward_v I I I I #
coedge $-1 $227 $222 $436 $437 forward $217 $-1 #
coedge $-1 $224 $219 $344 $438 forward $124 $-1 #
coedge $-1 $219 $224 $227 $352 forward $124 $-1 #
coedge $-1 $436 $345 $219 $343 reversed $337 $-1 #
edge $-1 $439 14.069738119198234 $440 23.573197551737593 $219 $441 forward 7 unknown #
coedge $-1 $221 $220 $340 $438 reversed $77 $-1 #
coedge $-1 $342 $436 $221 $346 reversed $337 $-1 #
edge $-1 $440 -14.784758503952297 $347 -2.214690806755022e-014 $345 $442 forward 7 unknown #
vertex $-1 $223 $443 #
straight-curve $-1 -52.884914700766018 -7.0795780370823458 0.70739237673108335 0 -1 0 I I #
vertex $-1 $225 $444 #
straight-curve $-1 -66.954652819964252 -10.797808340305863 12.033174594055751 -1 0 0 I I #
straight-curve $-1 -52.884914700766032 -10.797808340305863 0.70739237673106459 0.64278759981090561 0 0.7660444514056185 I I #
edge $-1 $228 10.797808340305863 $439 17.52050380802352 $227 $445 forward 7 unknown #
point $-1 -52.884914700766018 -10.797808340305863 12.033174594055749 #
point $-1 -52.884914700766018 -10.797808340305863 0.70739237673108157 #
edge $-1 $446 1 $446 0 $231 $-1 forward 7 unknown #
vertex $-1 $232 $447 #
ellipse-curve $-1 -44.264820647861676 -14.159156074164692 3.1243404822466103 -0.7660444514056185 0 0.64278759981090561 0.96418139971635841 0 1.1490666771084277 1 I I #
point $-1 -47.169003584779979 -14.159156074164692 7.5193501625018389 #
plane-surface $-1 0 0 12.033174594055749 0 0 1 1 0 0 forward_v I I I I #
coedge $-1 $370 $369 $362 $448 forward $236 $-1 #
coedge $-1 $362 $238 $240 $366 reversed $139 $-1 #
coedge $-1 $238 $361 $360 $448 reversed $139 $-1 #
coedge $-1 $246 $241 $238 $364 forward $247 $-1 #
edge $-1 $367 39.099427029430835 $449 44.535931693000897 $363 $450 forward 7 unknown #
coedge $-1 $240 $239 $370 $451 reversed $86 $-1 #
edge $-1 $452 -105.76982940153204 $367 -99.427421466434254 $361 $453 forward 7 unknown #
vertex $-1 $242 $454 #
straight-curve $-1 47.448410037195956 6.3342983359985112 12.033174594055751 0 -1 0 I I #
coedge $-1 $360 $243 $246 $374 reversed $236 $-1 #
coedge $-1 $243 $360 $365 $451 forward $236 $-1 #
vertex $-1 $244 $455 #
straight-curve $-1 52.884914700766018 17.520503808023516 76.952260874508525 0 0 1 I I #
straight-curve $-1 -37.77752402765266 17.520503808023516 63.242083020598372 0.85716729658548041 0 -0.51503808176128008 I I #
edge $-1 $449 7.8166895359705286 $248 17.520503808023516 $369 $456 forward 7 unknown #
point $-1 52.884914700766018 17.520503808023516 12.033174594055749 #
point $-1 47.448410037195956 17.520503808023516 12.033174594055751 #
edge $-1 $457 1 $457 0 $251 $-1 forward 7 unknown #
vertex $-1 $252 $458 #
ellipse-curve $-1 48.155503654437766 10.589207899414241 7.0527536619705824 0.51503808176128008 0 0.85716729658548041 0.85716729658548041 0 -0.51503808176128008 1 I I #
point $-1 51.02382966556646 10.589207899414241 9.8848457039743316 #
edge $-1 $459 1 $459 0 $255 $-1 forward 7 unknown #
vertex $-1 $256 $460 #
ellipse-curve $-1 48.155503654437766 14.747985444579811 7.0527536619705824 0.51503808176128008 0 0.85716729658548041 0.85716729658548041 0 -0.51503808176128008 1 I I #
point $-1 51.02382966556646 14.747985444579811 9.8848457039743316 #
plane-surface $-1 52.884914700766018 0 0 -1 0 0 0 0 1 forward_v I I I I #
coedge $-1 $264 $262 $266 $390 reversed $161 $-1 #
edge $-1 $277 -12.033174594055749 $392 12.033174594055749 $276 $461 forward 7 unknown #
vertex $-1 $390 $462 #
straight-curve $-1 -52.884914700766018 -32.929482029382882 0 0 0 -1 I I #
edge $-1 $388 -32.929482029382882 $392 32.929482029382882 $386 $463 forward 7 unknown #
straight-curve $-1 0 -32.929482029382882 -12.033174594055749 -1 0 0 I I #
vertex $-1 $269 $464 #
straight-curve $-1 0 32.929482029382882 -12.033174594055749 1 0 0 I I #
point $-1 52.884914700766018 32.929482029382882 -12.033174594055749 #
point $-1 52.884914700766018 -32.929482029382882 -12.033174594055749 #
straight-curve $-1 -52.884914700766018 0 12.033174594055749 0 -1 0 I I #
point $-1 -52.884914700766018 32.929482029382882 12.033174594055749 #
point $-1 -52.884914700766018 -32.929482029382882 12.033174594055749 #
straight-curve $-1 52.884914700766018 -32.929482029382882 0 0 0 -1 I I #
straight-curve $-1 52.884914700766018 32.929482029382882 0 0 0 -1 I I #
plane-surface $-1 52.884914700766018 0 0 -1 0 0 0 0 1 forward_v I I I I #
coedge $-1 $405 $289 $300 $414 forward $180 $-1 #
coedge $-1 $289 $405 $303 $416 reversed $180 $-1 #
straight-curve $-1 52.884914700766018 -17.52050380802352 2.4970962807443362 0 0 1 I I #
coedge $-1 $403 $402 $292 $406 forward $180 $-1 #
edge $-1 $409 4.9080073486719193 $407 20.316985570031282 $405 $465 forward 7 unknown #
vertex $-1 $294 $466 #
straight-curve $-1 0 -32.929482029382882 2.420796432216977 1 0 0 I I #
vertex $-1 $406 $467 #
straight-curve $-1 0 -17.52050380802352 2.420796432216977 1 0 0 I I #
point $-1 52.884914700766018 -32.929482029382882 2.420796432216977 #
point $-1 52.884914700766018 -17.52050380802352 2.420796432216977 #
straight-curve $-1 -52.884914700766018 -12.6124964593516 7.5675886907603678 0 1 0 I I #
edge $-1 $301 -5.0704924100160316 $409 0.07629984852735916 $402 $468 forward 7 unknown #
point $-1 -52.884914700766018 -17.52050380802352 7.5675886907603678 #
edge $-1 $305 -7.5675886907603678 $407 -2.420796432216977 $403 $469 forward 7 unknown #
point $-1 -52.884914700766018 -32.929482029382882 7.5675886907603678 #
straight-curve $-1 52.884914700766018 -32.929482029382882 0 0 0 -1 I I #
plane-surface $-1 0 32.929482029382882 0 0 -1 0 0 0 -1 forward_v I I I I #
coedge $-1 $314 $429 $316 $423 forward $311 $-1 #
vertex $-1 $423 $470 #
straight-curve $-1 -52.884914700766018 17.52050380802352 2.4970962807443362 0 0 1 I I #
edge $-1 $425 -20.316985570031282 $421 -4.9080073486719193 $420 $471 forward 7 unknown #
straight-curve $-1 0 17.52050380802352 2.420796432216977 -1 0 0 I I #
vertex $-1 $319 $472 #
straight-curve $-1 0 32.929482029382882 2.420796432216977 -1 0 0 I I #
point $-1 52.884914700766018 17.52050380802352 2.420796432216977 #
point $-1 52.884914700766018 32.929482029382882 2.420796432216977 #
coedge $-1 $420 $323 $326 $431 forward $311 $-1 #
straight-curve $-1 -52.884914700766018 12.6124964593516 7.5675886907603678 0 1 0 I I #
edge $-1 $328 -7.5675886907603678 $425 -2.420796432216977 $326 $473 forward 7 unknown #
point $-1 -52.884914700766018 32.929482029382882 7.5675886907603678 #
point $-1 -52.884914700766018 17.52050380802352 7.5675886907603678 #
straight-curve $-1 52.884914700766018 17.52050380802352 2.4970962807443362 0 0 -1 I I #
straight-curve $-1 52.884914700766018 32.929482029382882 0 0 0 -1 I I #
coedge $-1 $345 $342 $339 $437 reversed $337 $-1 #
edge $-1 $347 -33.640071198344323 $439 -22.314288981019651 $339 $474 forward 7 unknown #
edge $-1 $440 -10.440925770941174 $349 -3.7182303032235176 $340 $475 forward 7 unknown #
vertex $-1 $343 $476 #
vertex $-1 $343 $477 #
straight-curve $-1 -66.954652819964252 -17.52050380802352 12.033174594055751 1 0 0 I I #
straight-curve $-1 -52.884914700766032 -17.52050380802352 0.70739237673106459 -0.64278759981090561 0 -0.7660444514056185 I I #
point $-1 -52.884914700766018 -17.52050380802352 0.70739237673108157 #
point $-1 -43.381455268226659 -10.797808340305863 12.033174594055749 #
straight-curve $-1 -52.884914700766018 0 12.033174594055749 0 -1 0 I I #
vertex $-1 $355 $478 #
point $-1 -43.300639248145323 -14.159156074164692 4.2734071593550382 #
edge $-1 $449 64.919086280452774 $452 68.185667897093055 $360 $479 forward 7 unknown #
vertex $-1 $374 $480 #
straight-curve $-1 8.3489830077651206 7.8166895359705286 12.033174594055751 1 0 0 I I #
edge $-1 $452 1.4823911999720174 $371 11.186205472025005 $370 $481 forward 7 unknown #
vertex $-1 $451 $482 #
straight-curve $-1 -37.77752402765266 7.8166895359705286 63.242083020598372 -0.85716729658548041 0 0.51503808176128008 I I #
point $-1 47.448410037195956 7.8166895359705286 12.033174594055751 #
point $-1 52.884914700766018 17.520503808023516 8.7665929774154705 #
straight-curve $-1 52.884914700766018 0 12.033174594055749 0 1 0 I I #
vertex $-1 $377 $483 #
point $-1 49.012670951023246 10.589207899414241 6.5377155802093023 #
vertex $-1 $381 $484 #
point $-1 49.012670951023246 14.747985444579811 6.5377155802093023 #
straight-curve $-1 -52.884914700766018 32.929482029382882 0 0 0 -1 I I #
point $-1 -52.884914700766018 -32.929482029382882 -12.033174594055749 #
straight-curve $-1 -52.884914700766018 0 -12.033174594055749 0 1 0 I I #
point $-1 -52.884914700766018 32.929482029382882 -12.033174594055749 #
straight-curve $-1 -52.884914700766018 -12.6124964593516 2.420796432216977 0 -1 0 I I #
point $-1 -52.884914700766018 -32.929482029382882 2.420796432216977 #
point $-1 -52.884914700766018 -17.52050380802352 2.420796432216977 #
straight-curve $-1 -52.884914700766018 -17.52050380802352 2.4970962807443362 0 0 -1 I I #
straight-curve $-1 -52.884914700766018 -32.929482029382882 0 0 0 -1 I I #
point $-1 -52.884914700766018 17.52050380802352 2.420796432216977 #
straight-curve $-1 -52.884914700766018 12.6124964593516 2.420796432216977 0 -1 0 I I #
point $-1 -52.884914700766018 32.929482029382882 2.420796432216977 #
straight-curve $-1 -52.884914700766018 32.929482029382882 0 0 0 -1 I I #
straight-curve $-1 -52.884914700766018 -17.52050380802352 34.347463575075402 0 0 1 I I #
straight-curve $-1 -43.381455268226659 -7.0795780370823458 12.033174594055749 0 1 0 I I #
point $-1 -52.884914700766018 -17.52050380802352 12.033174594055749 #
point $-1 -43.381455268226659 -17.52050380802352 12.033174594055749 #
point $-1 -43.115753970753254 -14.159156074164692 2.1601590825302517 #
straight-curve $-1 52.884914700766018 7.8166895359705286 76.952260874508525 0 0 -1 I I #
point $-1 52.884914700766018 7.8166895359705286 12.033174594055749 #
straight-curve $-1 52.884914700766018 6.3342983359985112 8.7665929774154669 0 1 0 I I #
point $-1 52.884914700766018 7.8166895359705286 8.7665929774154705 #
point $-1 47.64046557267649 10.589207899414241 6.1955863653851022 #
point $-1 47.64046557267649 14.747985444579811 6.1955863653851022 #
End-of-ACIS-data 