500 0 11 0           
7 Unknown 11 ACIS 5.0 NT 24 Thu Mar 25 17:39:34 1999 
-1 9.9999999999999995e-007 1e-010 
body $-1 $11 $-1 $12 #
body $-1 $13 $-1 $14 #
body $-1 $15 $-1 $16 #
body $-1 $17 $-1 $18 #
body $-1 $19 $-1 $20 #
body $-1 $21 $-1 $22 #
body $-1 $23 $-1 $24 #
body $-1 $25 $-1 $26 #
body $-1 $27 $-1 $28 #
body $-1 $29 $-1 $30 #
body $-1 $31 $-1 $32 #
lump $-1 $-1 $33 $0 #
transform $-1 1 0 0 0 1 0 0 0 1 75.087740714743489 51.761203678774727 25.131362088880977 1 rotate no_reflect no_shear #
lump $-1 $-1 $34 $1 #
transform $-1 1 0 0 0 1 0 0 0 1 75.087740714743489 51.761203678774727 25.131362088880977 1 rotate no_reflect no_shear #
lump $-1 $-1 $35 $2 #
transform $-1 1 0 0 0 1 0 0 0 1 75.087740714743489 51.761203678774727 25.131362088880977 1 rotate no_reflect no_shear #
lump $-1 $-1 $36 $3 #
transform $-1 1 0 0 0 1 0 0 0 1 75.087740714743489 51.761203678774727 25.131362088880977 1 rotate no_reflect no_shear #
lump $-1 $-1 $37 $4 #
transform $-1 1 0 0 0 1 0 0 0 1 75.087740714743489 51.761203678774727 25.131362088880977 1 rotate no_reflect no_shear #
lump $-1 $-1 $38 $5 #
transform $-1 1 0 0 0 1 0 0 0 1 75.087740714743489 51.761203678774727 25.131362088880977 1 rotate no_reflect no_shear #
lump $-1 $-1 $39 $6 #
transform $-1 1 0 0 0 1 0 0 0 1 75.087740714743489 51.761203678774727 25.131362088880977 1 rotate no_reflect no_shear #
lump $-1 $-1 $40 $7 #
transform $-1 1 0 0 0 1 0 0 0 1 75.087740714743489 51.761203678774727 25.131362088880977 1 rotate no_reflect no_shear #
lump $-1 $-1 $41 $8 #
transform $-1 1 0 0 0 1 0 0 0 1 75.087740714743489 51.761203678774727 25.131362088880977 1 rotate no_reflect no_shear #
lump $-1 $-1 $42 $9 #
transform $-1 1 0 0 0 1 0 0 0 1 75.087740714743489 51.761203678774727 25.131362088880977 1 rotate no_reflect no_shear #
lump $-1 $-1 $43 $10 #
transform $-1 1 0 0 0 1 0 0 0 1 75.087740714743489 51.761203678774727 25.131362088880977 1 rotate no_reflect no_shear #
shell $-1 $-1 $-1 $44 $-1 $11 #
shell $-1 $-1 $-1 $45 $-1 $13 #
shell $-1 $-1 $-1 $46 $-1 $15 #
shell $-1 $-1 $-1 $47 $-1 $17 #
shell $-1 $-1 $-1 $48 $-1 $19 #
shell $-1 $-1 $-1 $49 $-1 $21 #
shell $-1 $-1 $-1 $50 $-1 $23 #
shell $-1 $-1 $-1 $51 $-1 $25 #
shell $-1 $-1 $-1 $52 $-1 $27 #
shell $-1 $-1 $-1 $53 $-1 $29 #
shell $-1 $-1 $-1 $54 $-1 $31 #
face $-1 $55 $56 $33 $-1 $57 forward single #
face $-1 $58 $59 $34 $-1 $60 forward single #
face $-1 $61 $62 $35 $-1 $63 forward single #
face $-1 $64 $65 $36 $-1 $66 reversed single #
face $-1 $67 $68 $37 $-1 $69 forward single #
face $-1 $70 $71 $38 $-1 $72 forward single #
face $-1 $73 $74 $39 $-1 $75 reversed single #
face $-1 $76 $77 $40 $-1 $78 forward single #
face $-1 $79 $80 $41 $-1 $81 forward single #
face $-1 $82 $83 $42 $-1 $84 reversed single #
face $-1 $85 $86 $43 $-1 $87 forward single #
face $-1 $88 $89 $33 $-1 $90 reversed single #
loop $-1 $-1 $91 $44 #
plane-surface $-1 0 0 25.131362088880977 0 0 1 1 0 0 forward_v I I I I #
face $-1 $92 $93 $34 $-1 $94 reversed single #
loop $-1 $-1 $95 $45 #
plane-surface $-1 -66.190239938110523 0 -10.809699309692327 0 0 1 1 0 0 forward_v I I I I #
face $-1 $96 $97 $35 $-1 $98 reversed single #
loop $-1 $-1 $99 $46 #
plane-surface $-1 66.190239938110523 0 -10.809699309692327 0 0 1 1 0 0 forward_v I I I I #
face $-1 $100 $101 $36 $-1 $102 reversed single #
loop $-1 $-1 $103 $47 #
plane-surface $-1 -40.084634940599436 97.183270410240596 179.44888013544977 -1 0 0 0 0.75470958851134928 0.65605901945558964 forward_v I I I I #
face $-1 $104 $105 $37 $-1 $106 forward single #
loop $-1 $107 $108 $48 #
cone-surface $-1 -52.376137955512391 39.922850069236731 12.111665335084457 0 -0.75470958851134928 -0.65605901945558964 2 0 0 1 I I 0 1 2 forward I I I I #
face $-1 $109 $110 $38 $-1 $111 forward single #
loop $-1 $112 $113 $49 #
cone-surface $-1 -45.001236146564615 39.922850069236731 12.111665335084457 0 -0.75470958851134928 -0.65605901945558964 2 0 0 1 I I 0 1 2 forward I I I I #
face $-1 $114 $115 $39 $-1 $116 reversed single #
loop $-1 $-1 $117 $50 #
plane-surface $-1 57.292739161477563 97.183270410240596 179.44888013544977 -1 0 0 0 0.75470958851134928 0.65605901945558964 forward_v I I I I #
face $-1 $118 $119 $40 $-1 $120 forward single #
loop $-1 $121 $122 $51 #
cone-surface $-1 45.001236146564608 39.922850069236731 12.111665335084457 0 -0.75470958851134928 -0.65605901945558964 2 0 0 1 I I 0 1 2 forward I I I I #
face $-1 $123 $124 $41 $-1 $125 forward single #
loop $-1 $126 $127 $52 #
cone-surface $-1 52.376137955512377 39.922850069236731 12.111665335084457 0 -0.75470958851134928 -0.65605901945558964 2 0 0 1 I I 0 1 2 forward I I I I #
face $-1 $128 $129 $42 $-1 $130 reversed single #
loop $-1 $-1 $131 $53 #
plane-surface $-1 -10.696673791752353 -142.13906565630094 141.63254082865177 1 0 0 0 0.6018150307709319 -0.79863550430605224 forward_v I I I I #
face $-1 $132 $133 $43 $-1 $134 forward single #
loop $-1 $135 $136 $54 #
cone-surface $-1 -0.580440967064078 -49.179554967710374 23.012229172102057 0 0.6018150307709319 -0.79863550430605224 1 0 0 1 I I 0 1 1 forward I I I I #
face $-1 $137 $138 $33 $-1 $139 reversed single #
loop $-1 $-1 $140 $55 #
plane-surface $-1 0 0 -25.131362088880977 0 0 1 1 0 0 forward_v I I I I #
coedge $-1 $141 $142 $143 $144 forward $56 $-1 #
face $-1 $145 $146 $34 $-1 $147 reversed single #
loop $-1 $-1 $148 $58 #
plane-surface $-1 -57.292739161477563 0 -17.970530699286652 -1 0 0 0 0 1 forward_v I I I I #
coedge $-1 $149 $150 $151 $152 forward $59 $-1 #
face $-1 $153 $154 $35 $-1 $155 reversed single #
loop $-1 $-1 $156 $61 #
plane-surface $-1 57.292739161477556 0 -17.970530699286652 1 0 0 0 0 -1 forward_v I I I I #
coedge $-1 $157 $158 $159 $160 reversed $62 $-1 #
face $-1 $161 $162 $36 $-1 $163 reversed single #
loop $-1 $-1 $164 $64 #
plane-surface $-1 -48.688687051038499 -16.155605383901303 80.924901042549436 0 0.75470958851134928 0.65605901945558964 1 0 0 forward_v I I I I #
coedge $-1 $165 $166 $167 $168 reversed $65 $-1 #
face $-1 $-1 $169 $37 $-1 $170 forward single #
loop $-1 $171 $172 $67 #
cone-surface $-1 -52.376137955512391 37.037900287169741 9.6038168142583231 0 -0.75470958851134928 -0.65605901945558964 1 0 0 1 I I -0.70710678118654746 0.70710678118654746 1 forward I I I I #
loop $-1 $-1 $173 $48 #
coedge $-1 $108 $108 $174 $175 reversed $68 $-1 #
face $-1 $-1 $176 $38 $-1 $177 forward single #
loop $-1 $178 $179 $70 #
cone-surface $-1 -45.001236146564615 37.037900287169741 9.6038168142583231 0 -0.75470958851134928 -0.65605901945558964 1 0 0 1 I I -0.70710678118654746 0.70710678118654746 1 forward I I I I #
loop $-1 $-1 $180 $49 #
coedge $-1 $113 $113 $181 $182 reversed $71 $-1 #
face $-1 $183 $184 $39 $-1 $185 reversed single #
loop $-1 $-1 $186 $73 #
plane-surface $-1 48.688687051038499 -16.155605383901303 80.924901042549436 0 0.75470958851134928 0.65605901945558964 1 0 0 forward_v I I I I #
coedge $-1 $187 $188 $189 $190 reversed $74 $-1 #
face $-1 $-1 $191 $40 $-1 $192 forward single #
loop $-1 $193 $194 $76 #
cone-surface $-1 45.001236146564608 37.037900287169741 9.6038168142583231 0 -0.75470958851134928 -0.65605901945558964 1 0 0 1 I I -0.70710678118654746 0.70710678118654746 1 forward I I I I #
loop $-1 $-1 $195 $51 #
coedge $-1 $122 $122 $196 $197 reversed $77 $-1 #
face $-1 $-1 $198 $41 $-1 $199 forward single #
loop $-1 $200 $201 $79 #
cone-surface $-1 52.376137955512377 37.037900287169741 9.6038168142583231 0 -0.75470958851134928 -0.65605901945558964 1 0 0 1 I I -0.70710678118654746 0.70710678118654746 1 forward I I I I #
loop $-1 $-1 $202 $52 #
coedge $-1 $127 $127 $203 $204 reversed $80 $-1 #
face $-1 $205 $206 $42 $-1 $207 reversed single #
loop $-1 $-1 $208 $82 #
plane-surface $-1 -0.580440967064078 -51.76120367877472 21.697069482809255 0 -0.6018150307709319 0.79863550430605224 1 0 0 forward_v I I I I #
coedge $-1 $209 $210 $211 $212 reversed $83 $-1 #
face $-1 $-1 $213 $43 $-1 $214 forward single #
loop $-1 $215 $216 $85 #
cone-surface $-1 -0.580440967064078 -48.575728805439169 22.210924806205945 0 0.6018150307709319 -0.79863550430605224 0.5 0 0 1 I I -0.70710678118654746 0.70710678118654746 0.5 forward I I I I #
loop $-1 $-1 $217 $54 #
coedge $-1 $136 $136 $218 $219 reversed $86 $-1 #
face $-1 $220 $221 $33 $-1 $222 reversed single #
loop $-1 $-1 $223 $88 #
plane-surface $-1 0 -51.761203678774727 0 0 1 0 0 0 1 forward_v I I I I #
coedge $-1 $224 $225 $226 $227 forward $89 $-1 #
coedge $-1 $228 $91 $229 $230 forward $56 $-1 #
coedge $-1 $91 $228 $231 $232 forward $56 $-1 #
coedge $-1 $233 $234 $91 $144 reversed $235 $-1 #
edge $-1 $236 -51.761203678774727 $237 51.761203678774727 $143 $238 forward 7 unknown #
face $-1 $239 $240 $34 $-1 $241 reversed single #
loop $-1 $-1 $242 $92 #
plane-surface $-1 0 0 -25.131362088880977 0 0 1 1 0 0 forward_v I I I I #
coedge $-1 $243 $151 $244 $245 reversed $93 $-1 #
coedge $-1 $246 $95 $247 $248 reversed $59 $-1 #
coedge $-1 $95 $246 $249 $250 reversed $59 $-1 #
coedge $-1 $148 $251 $95 $152 reversed $93 $-1 #
edge $-1 $252 -51.761203678774727 $253 51.761203678774727 $151 $254 forward 7 unknown #
face $-1 $255 $256 $35 $-1 $257 reversed single #
loop $-1 $-1 $258 $96 #
plane-surface $-1 0 -51.761203678774727 0 0 1 0 0 0 1 forward_v I I I I #
coedge $-1 $259 $260 $261 $262 reversed $97 $-1 #
coedge $-1 $263 $99 $264 $265 reversed $62 $-1 #
coedge $-1 $99 $263 $258 $266 reversed $62 $-1 #
coedge $-1 $267 $268 $99 $160 forward $269 $-1 #
edge $-1 $270 -51.761203678774727 $271 51.761203678774727 $159 $272 forward 7 unknown #
face $-1 $273 $274 $36 $-1 $275 reversed single #
loop $-1 $-1 $276 $100 #
plane-surface $-1 -57.292739161477563 97.183270410240596 179.44888013544977 1 0 0 0 -0.75470958851134928 -0.65605901945558964 forward_v I I I I #
coedge $-1 $277 $278 $279 $280 reversed $101 $-1 #
coedge $-1 $166 $103 $281 $282 reversed $65 $-1 #
coedge $-1 $103 $165 $277 $283 reversed $65 $-1 #
coedge $-1 $279 $284 $103 $168 forward $274 $-1 #
edge $-1 $285 64.593077978843908 $286 86.928892483695904 $167 $287 forward 7 unknown #
loop $-1 $-1 $174 $104 #
plane-surface $-1 -48.688687051038499 -16.155605383901303 80.924901042549436 0 0.75470958851134928 0.65605901945558964 1 0 0 forward_v I I I I #
loop $-1 $-1 $288 $67 #
coedge $-1 $172 $172 $173 $289 reversed $105 $-1 #
coedge $-1 $173 $173 $172 $289 forward $107 $-1 #
coedge $-1 $174 $174 $108 $175 forward $169 $-1 #
edge $-1 $290 6.39679087101383e-016 $290 6.2831853071796013 $174 $291 forward 7 unknown #
loop $-1 $-1 $181 $109 #
plane-surface $-1 -48.688687051038499 -16.155605383901303 80.924901042549436 0 0.75470958851134928 0.65605901945558964 1 0 0 forward_v I I I I #
loop $-1 $-1 $292 $70 #
coedge $-1 $179 $179 $180 $293 reversed $110 $-1 #
coedge $-1 $180 $180 $179 $293 forward $112 $-1 #
coedge $-1 $181 $181 $113 $182 forward $176 $-1 #
edge $-1 $294 6.39679087101383e-016 $294 6.2831853071796013 $181 $295 forward 7 unknown #
face $-1 $296 $297 $39 $-1 $298 forward single #
loop $-1 $-1 $299 $114 #
plane-surface $-1 40.084634940599436 97.183270410240596 179.44888013544977 1 0 0 0 -0.75470958851134928 -0.65605901945558964 forward_v I I I I #
coedge $-1 $300 $301 $302 $303 reversed $115 $-1 #
coedge $-1 $188 $117 $304 $305 reversed $74 $-1 #
coedge $-1 $117 $187 $300 $306 reversed $74 $-1 #
coedge $-1 $302 $307 $117 $190 forward $308 $-1 #
edge $-1 $309 64.593077978843908 $310 86.928892483695904 $189 $311 forward 7 unknown #
loop $-1 $-1 $196 $118 #
plane-surface $-1 48.688687051038499 -16.155605383901303 80.924901042549436 0 0.75470958851134928 0.65605901945558964 1 0 0 forward_v I I I I #
loop $-1 $-1 $312 $76 #
coedge $-1 $194 $194 $195 $313 reversed $119 $-1 #
coedge $-1 $195 $195 $194 $313 forward $121 $-1 #
coedge $-1 $196 $196 $122 $197 forward $191 $-1 #
edge $-1 $314 6.39679087101383e-016 $314 6.2831853071796013 $196 $315 forward 7 unknown #
loop $-1 $-1 $203 $123 #
plane-surface $-1 48.688687051038499 -16.155605383901303 80.924901042549436 0 0.75470958851134928 0.65605901945558964 1 0 0 forward_v I I I I #
loop $-1 $-1 $316 $79 #
coedge $-1 $201 $201 $202 $317 reversed $124 $-1 #
coedge $-1 $202 $202 $201 $317 forward $126 $-1 #
coedge $-1 $203 $203 $127 $204 forward $198 $-1 #
edge $-1 $318 6.39679087101383e-016 $318 6.2831853071796013 $203 $319 forward 7 unknown #
face $-1 $320 $321 $42 $-1 $322 forward single #
loop $-1 $-1 $323 $128 #
plane-surface $-1 9.5357918576241971 -142.13906565630094 141.63254082865177 -1 0 0 0 -0.6018150307709319 0.79863550430605224 forward_v I I I I #
coedge $-1 $324 $325 $326 $327 reversed $129 $-1 #
coedge $-1 $210 $131 $328 $329 reversed $83 $-1 #
coedge $-1 $131 $209 $324 $330 reversed $83 $-1 #
coedge $-1 $326 $331 $131 $212 forward $332 $-1 #
edge $-1 $333 45.684908325444908 $334 49.119200931516637 $211 $335 forward 7 unknown #
loop $-1 $-1 $218 $132 #
plane-surface $-1 -0.580440967064078 -51.76120367877472 21.697069482809255 0 -0.6018150307709319 0.79863550430605224 1 0 0 forward_v I I I I #
loop $-1 $-1 $336 $85 #
coedge $-1 $216 $216 $217 $337 reversed $133 $-1 #
coedge $-1 $217 $217 $216 $337 forward $135 $-1 #
coedge $-1 $218 $218 $136 $219 forward $213 $-1 #
edge $-1 $338 4.3568252361332511e-015 $338 6.2831853071796049 $218 $339 forward 7 unknown #
face $-1 $340 $341 $33 $-1 $342 reversed single #
loop $-1 $-1 $343 $137 #
plane-surface $-1 -75.087740714743489 0 0 1 0 0 0 0 -1 forward_v I I I I #
coedge $-1 $344 $231 $345 $346 forward $138 $-1 #
coedge $-1 $347 $140 $344 $348 forward $89 $-1 #
coedge $-1 $140 $347 $349 $350 forward $89 $-1 #
coedge $-1 $234 $233 $140 $227 reversed $235 $-1 #
edge $-1 $351 -51.761203678774727 $352 51.761203678774727 $226 $353 forward 7 unknown #
coedge $-1 $142 $141 $354 $355 forward $56 $-1 #
coedge $-1 $356 $357 $141 $230 reversed $341 $-1 #
edge $-1 $237 -75.087740714743489 $358 75.087740714743489 $229 $359 forward 7 unknown #
coedge $-1 $223 $360 $142 $232 reversed $138 $-1 #
edge $-1 $361 -75.087740714743489 $236 75.087740714743489 $231 $362 forward 7 unknown #
coedge $-1 $226 $143 $360 $363 forward $235 $-1 #
coedge $-1 $143 $226 $356 $364 reversed $235 $-1 #
loop $-1 $-1 $233 $340 #
vertex $-1 $144 $365 #
vertex $-1 $144 $366 #
straight-curve $-1 75.087740714743489 0 25.131362088880977 0 1 0 I I #
face $-1 $367 $368 $34 $-1 $369 reversed single #
loop $-1 $-1 $244 $145 #
plane-surface $-1 0 -51.761203678774727 0 0 1 0 0 0 1 forward_v I I I I #
coedge $-1 $370 $371 $243 $372 forward $146 $-1 #
coedge $-1 $251 $148 $242 $372 reversed $93 $-1 #
coedge $-1 $249 $373 $148 $245 forward $240 $-1 #
edge $-1 $374 -16.146096739237649 $252 -1.8244339600490012 $244 $375 forward 7 unknown #
coedge $-1 $150 $149 $376 $377 reversed $59 $-1 #
coedge $-1 $378 $379 $149 $248 forward $380 $-1 #
edge $-1 $381 -41.992620745688228 $253 -24.197619192422302 $247 $382 forward 7 unknown #
coedge $-1 $383 $244 $150 $250 forward $240 $-1 #
edge $-1 $252 24.197619192422302 $384 41.992620745688228 $249 $385 forward 7 unknown #
coedge $-1 $151 $243 $378 $386 reversed $93 $-1 #
vertex $-1 $250 $387 #
vertex $-1 $248 $388 #
straight-curve $-1 -57.292739161477563 0 -10.809699309692327 0 1 0 I I #
face $-1 $389 $390 $35 $-1 $391 reversed single #
loop $-1 $-1 $392 $153 #
plane-surface $-1 0 0 -25.131362088880977 0 0 1 1 0 0 forward_v I I I I #
coedge $-1 $393 $394 $158 $266 forward $154 $-1 #
coedge $-1 $395 $156 $392 $396 reversed $97 $-1 #
coedge $-1 $156 $395 $263 $397 reversed $97 $-1 #
coedge $-1 $264 $398 $156 $262 forward $390 $-1 #
edge $-1 $399 -16.146096739237649 $400 -1.8244339600490012 $261 $401 forward 7 unknown #
coedge $-1 $158 $157 $260 $397 forward $62 $-1 #
coedge $-1 $402 $261 $157 $265 forward $390 $-1 #
edge $-1 $400 24.197619192422295 $270 41.992620745688228 $264 $403 forward 7 unknown #
edge $-1 $271 -41.992620745688228 $404 -24.197619192422295 $258 $405 forward 7 unknown #
coedge $-1 $406 $159 $394 $407 forward $269 $-1 #
coedge $-1 $159 $406 $402 $408 reversed $269 $-1 #
loop $-1 $-1 $159 $389 #
vertex $-1 $408 $409 #
vertex $-1 $407 $410 #
straight-curve $-1 75.087740714743489 0 -10.809699309692327 0 -1 0 I I #
face $-1 $-1 $411 $36 $-1 $412 forward single #
loop $-1 $-1 $167 $161 #
plane-surface $-1 0 51.761203678774727 0 0 -1 0 0 0 -1 forward_v I I I I #
coedge $-1 $413 $414 $415 $416 reversed $162 $-1 #
coedge $-1 $417 $164 $166 $283 forward $101 $-1 #
coedge $-1 $164 $417 $413 $418 forward $101 $-1 #
coedge $-1 $415 $167 $164 $280 forward $274 $-1 #
edge $-1 $286 15.740291415080186 $419 32.948395635958313 $279 $420 forward 7 unknown #
coedge $-1 $421 $422 $165 $282 forward $411 $-1 #
edge $-1 $423 -16.246658358310313 $285 3.1695684736544294 $281 $424 forward 7 unknown #
edge $-1 $286 -103.52240735754951 $423 -73.927163246620736 $166 $425 forward 7 unknown #
coedge $-1 $167 $415 $421 $426 reversed $274 $-1 #
vertex $-1 $426 $427 #
vertex $-1 $168 $428 #
straight-curve $-1 -40.084634940599436 51.761203678774727 89.724440067724885 0 0 -1 I I #
coedge $-1 $288 $288 $-1 $429 reversed $171 $-1 #
edge $-1 $430 0 $430 6.2831853071796004 $172 $431 forward 7 unknown #
vertex $-1 $175 $432 #
ellipse-curve $-1 -52.376137955512391 42.05309026279236 13.963454836454989 0 0.75470958851134928 0.65605901945558964 2 0 0 1 I I #
coedge $-1 $292 $292 $-1 $433 reversed $178 $-1 #
edge $-1 $434 0 $434 6.2831853071796004 $179 $435 forward 7 unknown #
vertex $-1 $182 $436 #
ellipse-curve $-1 -45.001236146564615 42.05309026279236 13.963454836454989 0 0.75470958851134928 0.65605901945558964 2 0 0 1 I I #
face $-1 $-1 $308 $39 $-1 $437 reversed single #
loop $-1 $-1 $438 $183 #
plane-surface $-1 0 0 25.131362088880977 0 0 1 1 0 0 forward_v I I I I #
coedge $-1 $439 $440 $441 $442 reversed $184 $-1 #
coedge $-1 $443 $186 $188 $306 forward $115 $-1 #
coedge $-1 $186 $443 $439 $444 forward $115 $-1 #
coedge $-1 $441 $189 $186 $303 forward $308 $-1 #
edge $-1 $310 -32.948395635958313 $445 -15.740291415080186 $302 $446 forward 7 unknown #
coedge $-1 $447 $448 $187 $305 forward $297 $-1 #
edge $-1 $449 -16.246658358310313 $309 3.1695684736544294 $304 $450 forward 7 unknown #
edge $-1 $310 -103.52240735754951 $449 -73.927163246620736 $188 $451 forward 7 unknown #
coedge $-1 $189 $441 $447 $452 reversed $308 $-1 #
loop $-1 $-1 $441 $296 #
vertex $-1 $452 $453 #
vertex $-1 $190 $454 #
straight-curve $-1 57.292739161477563 51.761203678774727 89.724440067724885 0 0 -1 I I #
coedge $-1 $312 $312 $-1 $455 reversed $193 $-1 #
edge $-1 $456 0 $456 6.2831853071796004 $194 $457 forward 7 unknown #
vertex $-1 $197 $458 #
ellipse-curve $-1 45.001236146564608 42.05309026279236 13.963454836454989 0 0.75470958851134928 0.65605901945558964 2 0 0 1 I I #
coedge $-1 $316 $316 $-1 $459 reversed $200 $-1 #
edge $-1 $460 0 $460 6.2831853071796004 $201 $461 forward 7 unknown #
vertex $-1 $204 $462 #
ellipse-curve $-1 52.376137955512377 42.05309026279236 13.963454836454989 0 0.75470958851134928 0.65605901945558964 2 0 0 1 I I #
face $-1 $-1 $332 $42 $-1 $463 reversed single #
loop $-1 $-1 $464 $205 #
plane-surface $-1 0 0 25.131362088880977 0 0 1 1 0 0 forward_v I I I I #
coedge $-1 $465 $466 $467 $468 reversed $206 $-1 #
coedge $-1 $469 $208 $210 $330 forward $129 $-1 #
coedge $-1 $208 $469 $465 $470 forward $129 $-1 #
coedge $-1 $467 $211 $208 $327 forward $332 $-1 #
edge $-1 $334 -10.406453308220314 $471 9.8260123411562361 $326 $472 forward 7 unknown #
coedge $-1 $473 $474 $209 $329 forward $321 $-1 #
edge $-1 $475 -23.865789277733036 $333 -19.308329149375744 $328 $476 forward 7 unknown #
edge $-1 $334 -9.9507995449029654e-015 $475 5.7065583783647824 $210 $477 forward 7 unknown #
coedge $-1 $211 $467 $473 $478 reversed $332 $-1 #
loop $-1 $-1 $467 $320 #
vertex $-1 $478 $479 #
vertex $-1 $212 $480 #
straight-curve $-1 -10.696673791752353 -51.761203678774727 70.816270414325885 0 0 -1 I I #
coedge $-1 $336 $336 $-1 $481 reversed $215 $-1 #
edge $-1 $482 0 $482 6.2831853071796004 $216 $483 forward 7 unknown #
vertex $-1 $219 $484 #
ellipse-curve $-1 -0.580440967064078 -49.482473614596088 23.414215785845109 0 -0.6018150307709319 0.79863550430605224 1 0 0 1 I I #
face $-1 $-1 $235 $33 $-1 $485 reversed single #
loop $-1 $-1 $356 $220 #
plane-surface $-1 0 51.761203678774727 0 0 -1 0 0 0 -1 forward_v I I I I #
coedge $-1 $486 $354 $357 $487 forward $221 $-1 #
coedge $-1 $360 $223 $224 $348 reversed $138 $-1 #
coedge $-1 $354 $486 $223 $346 reversed $221 $-1 #
edge $-1 $361 -25.131362088880977 $488 25.131362088880977 $345 $489 forward 7 unknown #
coedge $-1 $225 $224 $486 $490 forward $89 $-1 #
edge $-1 $352 -75.087740714743489 $488 75.087740714743489 $344 $491 forward 7 unknown #
coedge $-1 $357 $356 $225 $350 reversed $341 $-1 #
edge $-1 $492 -75.087740714743489 $351 75.087740714743489 $349 $493 forward 7 unknown #
vertex $-1 $227 $494 #
vertex $-1 $363 $495 #
straight-curve $-1 75.087740714743489 0 -25.131362088880977 0 -1 0 I I #
coedge $-1 $343 $345 $228 $355 reversed $221 $-1 #
edge $-1 $358 -51.761203678774727 $361 51.761203678774727 $354 $496 forward 7 unknown #
coedge $-1 $349 $229 $234 $364 forward $341 $-1 #
coedge $-1 $229 $349 $343 $487 reversed $341 $-1 #
vertex $-1 $230 $497 #
straight-curve $-1 0 51.761203678774727 25.131362088880977 -1 0 0 I I #
coedge $-1 $231 $344 $233 $363 reversed $138 $-1 #
vertex $-1 $355 $498 #
straight-curve $-1 0 -51.761203678774727 25.131362088880977 1 0 0 I I #
edge $-1 $236 -25.131362088880977 $352 25.131362088880977 $233 $499 forward 7 unknown #
edge $-1 $237 -25.131362088880977 $351 25.131362088880977 $234 $500 forward 7 unknown #
point $-1 75.087740714743489 -51.761203678774727 25.131362088880977 #
point $-1 75.087740714743489 51.761203678774727 25.131362088880977 #
face $-1 $-1 $380 $34 $-1 $501 reversed single #
loop $-1 $-1 $376 $239 #
plane-surface $-1 -75.087740714743489 0 0 1 0 0 0 0 -1 forward_v I I I I #
coedge $-1 $502 $242 $373 $503 forward $146 $-1 #
coedge $-1 $242 $502 $504 $505 forward $146 $-1 #
edge $-1 $506 -51.761203678774727 $374 51.761203678774727 $242 $507 forward 7 unknown #
coedge $-1 $244 $383 $370 $503 reversed $240 $-1 #
vertex $-1 $503 $508 #
straight-curve $-1 -57.292739161477563 -51.761203678774727 -8.9852653496433259 0 0 1 I I #
coedge $-1 $509 $510 $246 $377 forward $368 $-1 #
edge $-1 $384 -51.761203678774727 $381 51.761203678774727 $376 $511 forward 7 unknown #
coedge $-1 $504 $247 $251 $386 forward $380 $-1 #
coedge $-1 $247 $504 $509 $512 reversed $380 $-1 #
loop $-1 $-1 $378 $367 #
vertex $-1 $512 $513 #
straight-curve $-1 -33.095119969055261 51.761203678774727 -10.809699309692327 1 0 0 I I #
coedge $-1 $373 $249 $510 $514 forward $240 $-1 #
vertex $-1 $514 $515 #
straight-curve $-1 -33.095119969055261 -51.761203678774727 -10.809699309692327 -1 0 0 I I #
edge $-1 $253 1.8244339600490012 $506 16.146096739237649 $378 $516 forward 7 unknown #
point $-1 -57.292739161477563 -51.761203678774727 -10.809699309692327 #
point $-1 -57.292739161477563 51.761203678774727 -10.809699309692327 #
face $-1 $-1 $269 $35 $-1 $517 reversed single #
loop $-1 $-1 $264 $255 #
plane-surface $-1 0 51.761203678774727 0 0 -1 0 0 0 -1 forward_v I I I I #
coedge $-1 $518 $519 $259 $396 forward $256 $-1 #
coedge $-1 $520 $258 $395 $521 forward $154 $-1 #
coedge $-1 $258 $520 $267 $407 reversed $154 $-1 #
coedge $-1 $260 $259 $393 $521 reversed $97 $-1 #
edge $-1 $522 -51.761203678774727 $399 51.761203678774727 $392 $523 forward 7 unknown #
edge $-1 $400 -51.761203678774727 $404 51.761203678774727 $260 $524 forward 7 unknown #
coedge $-1 $261 $402 $518 $525 reversed $390 $-1 #
vertex $-1 $525 $526 #
vertex $-1 $265 $527 #
straight-curve $-1 57.292739161477556 51.761203678774727 -8.9852653496433259 0 0 1 I I #
coedge $-1 $398 $264 $268 $408 forward $390 $-1 #
straight-curve $-1 33.095119969055261 51.761203678774727 -10.809699309692327 1 0 0 I I #
vertex $-1 $266 $528 #
straight-curve $-1 33.095119969055261 -51.761203678774727 -10.809699309692327 -1 0 0 I I #
coedge $-1 $268 $267 $529 $530 reversed $269 $-1 #
edge $-1 $271 10.809699309692327 $531 25.131362088880977 $267 $532 forward 7 unknown #
edge $-1 $270 10.809699309692327 $533 25.131362088880977 $268 $534 forward 7 unknown #
point $-1 75.087740714743489 51.761203678774727 -10.809699309692327 #
point $-1 75.087740714743489 -51.761203678774727 -10.809699309692327 #
loop $-1 $-1 $281 $273 #
plane-surface $-1 0 0 25.131362088880977 0 0 1 1 0 0 forward_v I I I I #
coedge $-1 $414 $276 $278 $418 reversed $162 $-1 #
coedge $-1 $276 $413 $535 $536 reversed $162 $-1 #
coedge $-1 $284 $279 $276 $416 forward $274 $-1 #
edge $-1 $419 -86.928892483695904 $537 -64.593077978843908 $415 $538 forward 7 unknown #
coedge $-1 $278 $277 $422 $539 reversed $101 $-1 #
edge $-1 $540 73.927163246620736 $419 103.52240735754951 $413 $541 forward 7 unknown #
vertex $-1 $280 $542 #
straight-curve $-1 -24.34434352551925 51.761203678774727 2.7955475840289878 -1 0 0 I I #
coedge $-1 $535 $281 $284 $426 forward $411 $-1 #
coedge $-1 $281 $535 $417 $539 forward $411 $-1 #
vertex $-1 $282 $543 #
straight-curve $-1 -40.084634940599436 48.591635205120298 25.131362088880977 0 1 0 I I #
straight-curve $-1 -40.084634940599436 -16.155605383901303 80.924901042549436 0 -0.65605901945558964 0.75470958851134928 I I #
edge $-1 $285 40.084634940599436 $537 57.292739161477563 $284 $544 forward 7 unknown #
point $-1 -40.084634940599436 51.761203678774727 25.131362088880977 #
point $-1 -40.084634940599436 51.761203678774734 2.7955475840289807 #
edge $-1 $545 1 $545 0 $288 $-1 forward 7 unknown #
vertex $-1 $289 $546 #
ellipse-curve $-1 -52.376137955512391 37.792609875681087 10.259875833713913 0 0.75470958851134928 0.65605901945558964 2 0 0 1 I I #
point $-1 -50.376137955512391 42.053090262792374 13.963454836455 #
edge $-1 $547 1 $547 0 $292 $-1 forward 7 unknown #
vertex $-1 $293 $548 #
ellipse-curve $-1 -45.001236146564615 37.792609875681087 10.259875833713913 0 0.75470958851134928 0.65605901945558964 2 0 0 1 I I #
point $-1 -43.001236146564615 42.053090262792374 13.963454836455 #
plane-surface $-1 0 51.761203678774727 0 0 -1 0 0 0 -1 forward_v I I I I #
coedge $-1 $448 $447 $440 $549 forward $297 $-1 #
coedge $-1 $440 $299 $301 $444 reversed $184 $-1 #
coedge $-1 $299 $439 $438 $549 reversed $184 $-1 #
coedge $-1 $307 $302 $299 $442 forward $308 $-1 #
edge $-1 $445 -86.928892483695904 $550 -64.593077978843908 $441 $551 forward 7 unknown #
coedge $-1 $301 $300 $448 $552 reversed $115 $-1 #
edge $-1 $553 73.927163246620736 $445 103.52240735754951 $439 $554 forward 7 unknown #
vertex $-1 $303 $555 #
straight-curve $-1 24.34434352551925 51.761203678774727 2.7955475840289878 -1 0 0 I I #
coedge $-1 $438 $304 $307 $452 forward $297 $-1 #
coedge $-1 $304 $438 $443 $552 forward $297 $-1 #
vertex $-1 $305 $556 #
straight-curve $-1 57.292739161477563 48.591635205120298 25.131362088880977 0 1 0 I I #
straight-curve $-1 57.292739161477563 -16.155605383901303 80.924901042549436 0 -0.65605901945558964 0.75470958851134928 I I #
edge $-1 $309 -57.292739161477563 $550 -40.084634940599436 $307 $557 forward 7 unknown #
point $-1 57.292739161477563 51.761203678774727 25.131362088880977 #
point $-1 57.292739161477563 51.761203678774734 2.7955475840289807 #
edge $-1 $558 1 $558 0 $312 $-1 forward 7 unknown #
vertex $-1 $313 $559 #
ellipse-curve $-1 45.001236146564608 37.792609875681087 10.259875833713913 0 0.75470958851134928 0.65605901945558964 2 0 0 1 I I #
point $-1 47.001236146564608 42.053090262792374 13.963454836455 #
edge $-1 $560 1 $560 0 $316 $-1 forward 7 unknown #
vertex $-1 $317 $561 #
ellipse-curve $-1 52.376137955512377 37.792609875681087 10.259875833713913 0 0.75470958851134928 0.65605901945558964 2 0 0 1 I I #
point $-1 54.376137955512377 42.053090262792374 13.963454836455 #
plane-surface $-1 0 -51.761203678774727 0 0 1 0 0 0 1 forward_v I I I I #
coedge $-1 $474 $473 $466 $562 forward $321 $-1 #
coedge $-1 $466 $323 $325 $470 reversed $206 $-1 #
coedge $-1 $323 $465 $464 $562 reversed $206 $-1 #
coedge $-1 $331 $326 $323 $468 forward $332 $-1 #
edge $-1 $471 -49.119200931516637 $563 -45.684908325444908 $467 $564 forward 7 unknown #
coedge $-1 $325 $324 $474 $565 reversed $129 $-1 #
edge $-1 $566 -5.7065583783647824 $471 9.9507995449029654e-015 $465 $567 forward 7 unknown #
vertex $-1 $327 $568 #
straight-curve $-1 -0.290220483532039 -51.761203678774727 21.697069482809248 1 0 0 I I #
coedge $-1 $464 $328 $331 $478 forward $321 $-1 #
coedge $-1 $328 $464 $469 $565 forward $321 $-1 #
vertex $-1 $329 $569 #
straight-curve $-1 -10.696673791752353 -71.069532828150471 25.131362088880977 0 -1 0 I I #
straight-curve $-1 -10.696673791752353 -51.76120367877472 21.697069482809255 0 0.79863550430605224 0.6018150307709319 I I #
edge $-1 $333 -10.696673791752353 $563 9.5357918576241971 $331 $570 forward 7 unknown #
point $-1 -10.696673791752353 -51.761203678774727 25.131362088880977 #
point $-1 -10.696673791752353 -51.761203678774727 21.697069482809248 #
edge $-1 $571 1 $571 0 $336 $-1 forward 7 unknown #
vertex $-1 $337 $572 #
ellipse-curve $-1 -0.580440967064078 -48.876636320824637 22.610242558358973 0 -0.6018150307709319 0.79863550430605224 1 0 0 1 I I #
point $-1 0.419559032935922 -49.48247361459611 23.414215785845144 #
plane-surface $-1 75.087740714743489 0 0 -1 0 0 0 0 1 forward_v I I I I #
coedge $-1 $345 $343 $347 $490 reversed $221 $-1 #
edge $-1 $358 -25.131362088880977 $492 25.131362088880977 $357 $573 forward 7 unknown #
vertex $-1 $490 $574 #
straight-curve $-1 -75.087740714743489 -51.761203678774727 0 0 0 -1 I I #
edge $-1 $488 -51.761203678774727 $492 51.761203678774727 $486 $575 forward 7 unknown #
straight-curve $-1 0 -51.761203678774727 -25.131362088880977 -1 0 0 I I #
vertex $-1 $350 $576 #
straight-curve $-1 0 51.761203678774727 -25.131362088880977 1 0 0 I I #
point $-1 75.087740714743489 51.761203678774727 -25.131362088880977 #
point $-1 75.087740714743489 -51.761203678774727 -25.131362088880977 #
straight-curve $-1 -75.087740714743489 0 25.131362088880977 0 -1 0 I I #
point $-1 -75.087740714743489 51.761203678774727 25.131362088880977 #
point $-1 -75.087740714743489 -51.761203678774727 25.131362088880977 #
straight-curve $-1 75.087740714743489 -51.761203678774727 0 0 0 -1 I I #
straight-curve $-1 75.087740714743489 51.761203678774727 0 0 0 -1 I I #
plane-surface $-1 0 51.761203678774727 0 0 -1 0 0 0 -1 forward_v I I I I #
coedge $-1 $371 $370 $577 $578 forward $146 $-1 #
edge $-1 $374 57.292739161477563 $579 75.087740714743489 $373 $580 forward 7 unknown #
coedge $-1 $379 $378 $371 $505 reversed $380 $-1 #
edge $-1 $581 -75.087740714743489 $506 -57.292739161477563 $504 $582 forward 7 unknown #
vertex $-1 $386 $583 #
straight-curve $-1 -57.292739161477563 0 -25.131362088880977 0 -1 0 I I #
point $-1 -57.292739161477563 -51.761203678774727 -25.131362088880977 #
coedge $-1 $577 $376 $379 $512 forward $368 $-1 #
coedge $-1 $376 $577 $383 $514 reversed $368 $-1 #
straight-curve $-1 -75.087740714743489 0 -10.809699309692327 0 1 0 I I #
edge $-1 $381 10.809699309692327 $581 25.131362088880977 $379 $584 forward 7 unknown #
point $-1 -75.087740714743489 51.761203678774727 -10.809699309692327 #
edge $-1 $384 10.809699309692327 $579 25.131362088880977 $510 $585 forward 7 unknown #
point $-1 -75.087740714743489 -51.761203678774727 -10.809699309692327 #
straight-curve $-1 -57.292739161477563 51.761203678774727 -8.9852653496433259 0 0 -1 I I #
plane-surface $-1 75.087740714743489 0 0 -1 0 0 0 0 1 forward_v I I I I #
coedge $-1 $529 $392 $398 $525 forward $256 $-1 #
coedge $-1 $392 $529 $520 $586 forward $256 $-1 #
coedge $-1 $394 $393 $519 $586 reversed $154 $-1 #
edge $-1 $404 1.8244339600490012 $522 16.146096739237649 $393 $587 forward 7 unknown #
vertex $-1 $396 $588 #
straight-curve $-1 57.292739161477556 0 -25.131362088880977 0 1 0 I I #
straight-curve $-1 57.292739161477556 0 -10.809699309692327 0 -1 0 I I #
edge $-1 $399 57.292739161477556 $533 75.087740714743489 $398 $589 forward 7 unknown #
point $-1 57.292739161477556 51.761203678774727 -25.131362088880977 #
point $-1 57.292739161477556 51.761203678774727 -10.809699309692327 #
point $-1 57.292739161477556 -51.761203678774727 -10.809699309692327 #
coedge $-1 $519 $518 $406 $530 forward $256 $-1 #
edge $-1 $533 -51.761203678774727 $531 51.761203678774727 $406 $590 forward 7 unknown #
vertex $-1 $407 $591 #
straight-curve $-1 75.087740714743489 -51.761203678774727 0 0 0 -1 I I #
vertex $-1 $530 $592 #
straight-curve $-1 75.087740714743489 51.761203678774727 0 0 0 -1 I I #
coedge $-1 $422 $421 $414 $536 forward $411 $-1 #
edge $-1 $537 -3.1695684736544294 $540 16.246658358310313 $535 $593 forward 7 unknown #
vertex $-1 $536 $594 #
straight-curve $-1 -57.292739161477563 51.761203678774727 89.724440067724885 0 0 1 I I #
edge $-1 $540 -32.948395635958313 $423 -15.740291415080186 $422 $595 forward 7 unknown #
vertex $-1 $539 $596 #
straight-curve $-1 -57.292739161477563 -16.155605383901303 80.924901042549436 0 0.65605901945558964 -0.75470958851134928 I I #
point $-1 -57.292739161477563 51.761203678774734 2.7955475840289807 #
point $-1 -40.084634940599436 32.344976846809985 25.131362088880977 #
straight-curve $-1 0 51.761203678774727 25.131362088880977 -1 0 0 I I #
vertex $-1 $429 $597 #
point $-1 -50.376137955512391 37.792609875681087 10.259875833713913 #
vertex $-1 $433 $598 #
point $-1 -43.001236146564615 37.792609875681087 10.259875833713913 #
edge $-1 $550 -3.1695684736544294 $553 16.246658358310313 $438 $599 forward 7 unknown #
vertex $-1 $549 $600 #
straight-curve $-1 40.084634940599436 51.761203678774727 89.724440067724885 0 0 1 I I #
edge $-1 $553 15.740291415080186 $449 32.948395635958313 $448 $601 forward 7 unknown #
vertex $-1 $552 $602 #
straight-curve $-1 40.084634940599436 -16.155605383901303 80.924901042549436 0 0.65605901945558964 -0.75470958851134928 I I #
point $-1 40.084634940599436 51.761203678774734 2.7955475840289807 #
point $-1 57.292739161477563 32.344976846809985 25.131362088880977 #
straight-curve $-1 0 51.761203678774727 25.131362088880977 -1 0 0 I I #
vertex $-1 $455 $603 #
point $-1 47.001236146564608 37.792609875681087 10.259875833713913 #
vertex $-1 $459 $604 #
point $-1 54.376137955512377 37.792609875681087 10.259875833713913 #
edge $-1 $563 19.308329149375744 $566 23.865789277733036 $464 $605 forward 7 unknown #
vertex $-1 $468 $606 #
straight-curve $-1 9.5357918576241971 -51.761203678774727 70.816270414325885 0 0 1 I I #
edge $-1 $566 -9.8260123411562361 $475 10.406453308220314 $474 $607 forward 7 unknown #
vertex $-1 $565 $608 #
straight-curve $-1 9.5357918576241971 -51.76120367877472 21.697069482809255 0 -0.79863550430605224 -0.6018150307709319 I I #
point $-1 9.5357918576241971 -51.761203678774727 21.697069482809248 #
point $-1 -10.696673791752353 -47.203743550417435 25.131362088880977 #
straight-curve $-1 0 -51.761203678774727 25.131362088880977 1 0 0 I I #
vertex $-1 $481 $609 #
point $-1 0.419559032935922 -48.876636320824637 22.610242558358973 #
straight-curve $-1 -75.087740714743489 51.761203678774727 0 0 0 -1 I I #
point $-1 -75.087740714743489 -51.761203678774727 -25.131362088880977 #
straight-curve $-1 -75.087740714743489 0 -25.131362088880977 0 1 0 I I #
point $-1 -75.087740714743489 51.761203678774727 -25.131362088880977 #
coedge $-1 $510 $509 $502 $578 reversed $368 $-1 #
edge $-1 $579 -51.761203678774727 $581 51.761203678774727 $577 $610 forward 7 unknown #
vertex $-1 $578 $611 #
straight-curve $-1 0 -51.761203678774727 -25.131362088880977 -1 0 0 I I #
vertex $-1 $505 $612 #
straight-curve $-1 0 51.761203678774727 -25.131362088880977 1 0 0 I I #
point $-1 -57.292739161477563 51.761203678774727 -25.131362088880977 #
straight-curve $-1 -75.087740714743489 51.761203678774727 0 0 0 -1 I I #
straight-curve $-1 -75.087740714743489 -51.761203678774727 0 0 0 -1 I I #
edge $-1 $531 -75.087740714743489 $522 -57.292739161477556 $520 $613 forward 7 unknown #
straight-curve $-1 57.292739161477556 -51.761203678774727 -8.9852653496433259 0 0 -1 I I #
point $-1 57.292739161477556 -51.761203678774727 -25.131362088880977 #
straight-curve $-1 0 51.761203678774727 -25.131362088880977 1 0 0 I I #
straight-curve $-1 75.087740714743489 0 -25.131362088880977 0 -1 0 I I #
point $-1 75.087740714743489 -51.761203678774727 -25.131362088880977 #
point $-1 75.087740714743489 51.761203678774727 -25.131362088880977 #
straight-curve $-1 -57.292739161477563 48.591635205120298 25.131362088880977 0 -1 0 I I #
point $-1 -57.292739161477563 51.761203678774727 25.131362088880977 #
straight-curve $-1 -24.34434352551925 32.344976846809985 25.131362088880977 1 0 0 I I #
point $-1 -57.292739161477563 32.344976846809985 25.131362088880977 #
point $-1 -52.376137955512391 36.283190698658395 8.9477577948027331 #
point $-1 -45.001236146564615 36.283190698658395 8.9477577948027331 #
straight-curve $-1 40.084634940599436 48.591635205120298 25.131362088880977 0 -1 0 I I #
point $-1 40.084634940599436 51.761203678774727 25.131362088880977 #
straight-curve $-1 24.34434352551925 32.344976846809985 25.131362088880977 1 0 0 I I #
point $-1 40.084634940599436 32.344976846809985 25.131362088880977 #
point $-1 45.001236146564608 36.283190698658395 8.9477577948027331 #
point $-1 52.376137955512377 36.283190698658395 8.9477577948027331 #
straight-curve $-1 9.5357918576241971 -71.069532828150471 25.131362088880977 0 1 0 I I #
point $-1 9.5357918576241971 -51.761203678774727 25.131362088880977 #
straight-curve $-1 -0.290220483532039 -47.203743550417443 25.131362088880977 -1 0 0 I I #
point $-1 9.5357918576241971 -47.203743550417435 25.131362088880977 #
point $-1 -0.580440967064078 -48.274821290053701 21.811607054052917 #
straight-curve $-1 -75.087740714743489 0 -25.131362088880977 0 1 0 I I #
point $-1 -75.087740714743489 -51.761203678774727 -25.131362088880977 #
point $-1 -75.087740714743489 51.761203678774727 -25.131362088880977 #
straight-curve $-1 0 -51.761203678774727 -25.131362088880977 -1 0 0 I I #
End-of-ACIS-data 