500 0 6 0           
7 Unknown 11 ACIS 5.0 NT 24 Thu Mar 25 17:11:23 1999 
-1 9.9999999999999995e-007 1e-010 
body $-1 $6 $-1 $7 #
body $-1 $8 $-1 $9 #
body $-1 $10 $-1 $11 #
body $-1 $12 $-1 $13 #
body $-1 $14 $-1 $15 #
body $-1 $16 $-1 $17 #
lump $-1 $-1 $18 $0 #
transform $-1 1 0 0 0 1 0 0 0 1 46.637165440839865 30.066148073425506 11.286344020897502 1 rotate no_reflect no_shear #
lump $-1 $-1 $19 $1 #
transform $-1 1 0 0 0 1 0 0 0 1 46.637165440839865 30.066148073425506 11.286344020897502 1 rotate no_reflect no_shear #
lump $-1 $-1 $20 $2 #
transform $-1 1 0 0 0 1 0 0 0 1 46.637165440839865 30.066148073425506 11.286344020897502 1 rotate no_reflect no_shear #
lump $-1 $-1 $21 $3 #
transform $-1 1 0 0 0 1 0 0 0 1 46.637165440839865 30.066148073425506 11.286344020897502 1 rotate no_reflect no_shear #
lump $-1 $-1 $22 $4 #
transform $-1 1 0 0 0 1 0 0 0 1 46.637165440839865 30.066148073425506 11.286344020897502 1 rotate no_reflect no_shear #
lump $-1 $-1 $23 $5 #
transform $-1 1 0 0 0 1 0 0 0 1 46.637165440839865 30.066148073425506 11.286344020897502 1 rotate no_reflect no_shear #
shell $-1 $-1 $-1 $24 $-1 $6 #
shell $-1 $-1 $-1 $25 $-1 $8 #
shell $-1 $-1 $-1 $26 $-1 $10 #
shell $-1 $-1 $-1 $27 $-1 $12 #
shell $-1 $-1 $-1 $28 $-1 $14 #
shell $-1 $-1 $-1 $29 $-1 $16 #
face $-1 $30 $31 $18 $-1 $32 forward single #
face $-1 $33 $34 $19 $-1 $35 reversed single #
face $-1 $36 $37 $20 $-1 $38 reversed single #
face $-1 $39 $40 $21 $-1 $41 reversed single #
face $-1 $42 $43 $22 $-1 $44 forward single #
face $-1 $45 $46 $23 $-1 $47 forward single #
face $-1 $48 $49 $18 $-1 $50 reversed single #
loop $-1 $-1 $51 $24 #
plane-surface $-1 0 0 11.286344020897502 0 0 1 1 0 0 forward_v I I I I #
face $-1 $52 $53 $19 $-1 $54 reversed single #
loop $-1 $-1 $55 $25 #
plane-surface $-1 -44.689171464882783 -22.237061945749648 0 0 -1 0 0 0 -1 forward_v I I I I #
face $-1 $56 $57 $20 $-1 $58 reversed single #
loop $-1 $-1 $59 $26 #
plane-surface $-1 -44.689171464882783 22.237061945749645 0 0 1 0 0 0 1 forward_v I I I I #
face $-1 $60 $61 $21 $-1 $62 reversed single #
loop $-1 $-1 $63 $27 #
plane-surface $-1 -124.8636022427055 7.0387538793179658 56.478150611754785 0 1 0 -0.83867057594974714 0 0.54463902268945019 forward_v I I I I #
face $-1 $64 $65 $22 $-1 $66 forward single #
loop $-1 $67 $68 $28 #
cone-surface $-1 -43.720541130048069 10.279304555930782 7.7704986604035255 0.83867057594974714 0 -0.54463902268945019 0.54463902268945019 0 0.83867057594974714 1 I I 0 1 1 forward I I I I #
face $-1 $69 $70 $23 $-1 $71 forward single #
loop $-1 $72 $73 $29 #
cone-surface $-1 -43.720541130048069 15.140130570850008 7.7704986604035255 0.83867057594974714 0 -0.54463902268945019 0.54463902268945019 0 0.83867057594974714 1 I I 0 1 1 forward I I I I #
face $-1 $74 $75 $18 $-1 $76 reversed single #
loop $-1 $-1 $77 $30 #
plane-surface $-1 0 0 -11.286344020897502 0 0 1 1 0 0 forward_v I I I I #
coedge $-1 $78 $79 $80 $81 forward $31 $-1 #
face $-1 $82 $83 $19 $-1 $84 forward single #
loop $-1 $-1 $85 $33 #
plane-surface $-1 -42.7411774889257 -26.151605009587577 0 -1 0 0 0 0 1 forward_v I I I I #
coedge $-1 $86 $87 $88 $89 forward $34 $-1 #
face $-1 $90 $91 $20 $-1 $92 reversed single #
loop $-1 $-1 $93 $36 #
plane-surface $-1 -42.7411774889257 26.151605009587573 0 -1 0 0 0 0 1 forward_v I I I I #
coedge $-1 $94 $95 $96 $97 reversed $37 $-1 #
face $-1 $98 $99 $21 $-1 $100 reversed single #
loop $-1 $-1 $101 $39 #
plane-surface $-1 -46.637165440839865 12.709717563390402 5.6773101983443297 -0.83867057594974714 0 0.54463902268945019 0.54463902268945019 0 0.83867057594974714 forward_v I I I I #
coedge $-1 $102 $103 $104 $105 reversed $40 $-1 #
face $-1 $-1 $106 $22 $-1 $107 forward single #
loop $-1 $108 $109 $42 #
cone-surface $-1 -42.205856050116125 10.279304555930782 6.7868506998414055 0.83867057594974714 0 -0.54463902268945019 0.2723195113447251 0 0.41933528797487357 1 I I -0.70710678118654746 0.70710678118654746 0.5 forward I I I I #
loop $-1 $-1 $110 $28 #
coedge $-1 $68 $68 $111 $112 reversed $43 $-1 #
face $-1 $-1 $113 $23 $-1 $114 forward single #
loop $-1 $115 $116 $45 #
cone-surface $-1 -42.205856050116125 15.140130570850008 6.7868506998414055 0.83867057594974714 0 -0.54463902268945019 0.2723195113447251 0 0.41933528797487357 1 I I -0.70710678118654746 0.70710678118654746 0.5 forward I I I I #
loop $-1 $-1 $117 $29 #
coedge $-1 $73 $73 $118 $119 reversed $46 $-1 #
face $-1 $120 $121 $18 $-1 $122 reversed single #
loop $-1 $-1 $123 $48 #
plane-surface $-1 0 -30.066148073425506 0 0 1 0 0 0 1 forward_v I I I I #
coedge $-1 $124 $125 $126 $127 forward $49 $-1 #
coedge $-1 $128 $51 $129 $130 forward $31 $-1 #
coedge $-1 $51 $128 $131 $132 forward $31 $-1 #
coedge $-1 $133 $134 $51 $81 reversed $135 $-1 #
edge $-1 $136 -30.066148073425506 $137 30.066148073425506 $80 $138 forward 7 unknown #
face $-1 $139 $140 $19 $-1 $141 reversed single #
loop $-1 $-1 $142 $52 #
plane-surface $-1 0 0 11.286344020897502 0 0 1 1 0 0 forward_v I I I I #
coedge $-1 $143 $144 $145 $146 reversed $53 $-1 #
coedge $-1 $147 $55 $148 $149 reversed $34 $-1 #
coedge $-1 $55 $147 $150 $151 reversed $34 $-1 #
coedge $-1 $144 $143 $55 $89 reversed $53 $-1 #
edge $-1 $152 -11.286344020897502 $153 11.286344020897502 $88 $154 forward 7 unknown #
face $-1 $155 $156 $20 $-1 $157 reversed single #
loop $-1 $-1 $158 $56 #
plane-surface $-1 0 0 -11.286344020897502 0 0 1 1 0 0 forward_v I I I I #
coedge $-1 $159 $160 $161 $162 forward $57 $-1 #
coedge $-1 $161 $59 $163 $164 reversed $37 $-1 #
coedge $-1 $59 $161 $165 $166 reversed $37 $-1 #
coedge $-1 $167 $168 $59 $97 forward $156 $-1 #
edge $-1 $169 -11.286344020897502 $170 11.286344020897502 $96 $171 forward 7 unknown #
face $-1 $172 $173 $21 $-1 $174 forward single #
loop $-1 $-1 $175 $60 #
plane-surface $-1 -124.8636022427055 18.380681247462839 56.478150611754785 0 -1 0 0.83867057594974714 0 -0.54463902268945019 forward_v I I I I #
coedge $-1 $176 $177 $178 $179 reversed $61 $-1 #
coedge $-1 $103 $63 $180 $181 reversed $40 $-1 #
coedge $-1 $63 $102 $176 $182 reversed $40 $-1 #
coedge $-1 $178 $183 $63 $105 forward $173 $-1 #
edge $-1 $184 15.794635680512883 $185 19.43718471818233 $104 $186 forward 7 unknown #
loop $-1 $-1 $111 $64 #
plane-surface $-1 -46.637165440839865 12.709717563390402 5.6773101983443297 -0.83867057594974714 0 0.54463902268945019 0.54463902268945019 0 0.83867057594974714 forward_v I I I I #
loop $-1 $-1 $187 $42 #
coedge $-1 $109 $109 $110 $188 reversed $65 $-1 #
coedge $-1 $110 $110 $109 $188 forward $67 $-1 #
coedge $-1 $111 $111 $68 $112 forward $106 $-1 #
edge $-1 $189 0 $189 6.2831853071796004 $111 $190 forward 7 unknown #
loop $-1 $-1 $118 $69 #
plane-surface $-1 -46.637165440839865 12.709717563390402 5.6773101983443297 -0.83867057594974714 0 0.54463902268945019 0.54463902268945019 0 0.83867057594974714 forward_v I I I I #
loop $-1 $-1 $191 $45 #
coedge $-1 $116 $116 $117 $192 reversed $70 $-1 #
coedge $-1 $117 $117 $116 $192 forward $72 $-1 #
coedge $-1 $118 $118 $73 $119 forward $113 $-1 #
edge $-1 $193 0 $193 6.2831853071796004 $118 $194 forward 7 unknown #
face $-1 $195 $196 $18 $-1 $197 reversed single #
loop $-1 $-1 $198 $74 #
plane-surface $-1 -46.637165440839865 0 0 1 0 0 0 0 -1 forward_v I I I I #
coedge $-1 $199 $131 $200 $201 forward $75 $-1 #
coedge $-1 $202 $77 $199 $203 forward $49 $-1 #
coedge $-1 $77 $202 $204 $205 forward $49 $-1 #
coedge $-1 $134 $133 $77 $127 reversed $135 $-1 #
edge $-1 $206 -30.066148073425506 $207 30.066148073425506 $126 $208 forward 7 unknown #
coedge $-1 $79 $78 $209 $210 forward $31 $-1 #
coedge $-1 $211 $212 $78 $130 reversed $196 $-1 #
edge $-1 $137 -46.637165440839865 $213 46.637165440839865 $129 $214 forward 7 unknown #
coedge $-1 $123 $215 $79 $132 reversed $75 $-1 #
edge $-1 $216 -46.637165440839865 $136 46.637165440839865 $131 $217 forward 7 unknown #
coedge $-1 $126 $80 $215 $218 forward $135 $-1 #
coedge $-1 $80 $126 $211 $219 reversed $135 $-1 #
loop $-1 $-1 $133 $195 #
vertex $-1 $81 $220 #
vertex $-1 $81 $221 #
straight-curve $-1 46.637165440839865 0 11.286344020897502 0 1 0 I I #
face $-1 $222 $223 $19 $-1 $224 reversed single #
loop $-1 $-1 $225 $82 #
plane-surface $-1 -46.637165440839865 0 0 1 0 0 0 0 -1 forward_v I I I I #
coedge $-1 $150 $226 $144 $227 forward $83 $-1 #
coedge $-1 $88 $85 $228 $229 reversed $53 $-1 #
coedge $-1 $85 $88 $142 $227 reversed $53 $-1 #
coedge $-1 $230 $231 $85 $146 forward $232 $-1 #
edge $-1 $233 -11.286344020897502 $234 11.286344020897502 $145 $235 forward 7 unknown #
coedge $-1 $87 $86 $225 $236 reversed $34 $-1 #
coedge $-1 $228 $237 $86 $149 forward $223 $-1 #
edge $-1 $238 -24.292579708398474 $153 -20.396591756484309 $148 $239 forward 7 unknown #
coedge $-1 $240 $142 $87 $151 forward $83 $-1 #
edge $-1 $152 20.396591756484309 $241 24.292579708398474 $150 $242 forward 7 unknown #
vertex $-1 $151 $243 #
vertex $-1 $149 $244 #
straight-curve $-1 -42.7411774889257 -22.237061945749648 0 0 0 -1 I I #
face $-1 $245 $246 $20 $-1 $247 forward single #
loop $-1 $-1 $96 $90 #
plane-surface $-1 -46.637165440839865 0 0 1 0 0 0 0 -1 forward_v I I I I #
coedge $-1 $163 $248 $159 $249 forward $91 $-1 #
coedge $-1 $250 $93 $158 $249 reversed $57 $-1 #
coedge $-1 $93 $250 $251 $252 reversed $57 $-1 #
coedge $-1 $95 $94 $93 $162 reversed $37 $-1 #
edge $-1 $253 -11.286344020897502 $254 11.286344020897502 $93 $255 forward 7 unknown #
coedge $-1 $256 $158 $94 $164 forward $91 $-1 #
edge $-1 $254 20.396591756484309 $169 24.292579708398474 $163 $257 forward 7 unknown #
coedge $-1 $251 $258 $95 $166 forward $246 $-1 #
edge $-1 $170 -24.292579708398474 $253 -20.396591756484309 $165 $259 forward 7 unknown #
coedge $-1 $260 $96 $258 $261 reversed $156 $-1 #
coedge $-1 $96 $260 $256 $262 reversed $156 $-1 #
vertex $-1 $262 $263 #
vertex $-1 $97 $264 #
straight-curve $-1 -46.637165440839865 22.237061945749645 0 0 0 1 I I #
face $-1 $-1 $265 $21 $-1 $266 reversed single #
loop $-1 $-1 $104 $98 #
plane-surface $-1 0 0 11.286344020897502 0 0 1 1 0 0 forward_v I I I I #
coedge $-1 $267 $268 $269 $270 reversed $99 $-1 #
coedge $-1 $271 $101 $103 $182 forward $61 $-1 #
coedge $-1 $101 $271 $267 $272 forward $61 $-1 #
coedge $-1 $269 $104 $101 $179 forward $173 $-1 #
edge $-1 $185 0.68389509762276468 $273 12.025822465767638 $178 $274 forward 7 unknown #
coedge $-1 $275 $276 $102 $181 forward $265 $-1 #
edge $-1 $277 -22.561765107533063 $184 -16.95273128497989 $180 $278 forward 7 unknown #
edge $-1 $185 -6.6880059744569653 $277 0 $103 $279 forward 7 unknown #
coedge $-1 $104 $269 $275 $280 forward $173 $-1 #
vertex $-1 $105 $281 #
vertex $-1 $105 $282 #
straight-curve $-1 -62.431801121352748 7.0387538793179658 11.286344020897502 1 0 0 I I #
coedge $-1 $187 $187 $-1 $283 reversed $108 $-1 #
edge $-1 $284 0 $284 6.2831853071796004 $109 $285 forward 7 unknown #
vertex $-1 $112 $286 #
ellipse-curve $-1 -44.815890922005138 10.279304555930782 8.4818271096209195 -0.83867057594974714 0 0.54463902268945019 0.54463902268945019 0 0.83867057594974714 1 I I #
coedge $-1 $191 $191 $-1 $287 reversed $115 $-1 #
edge $-1 $288 0 $288 6.2831853071796004 $116 $289 forward 7 unknown #
vertex $-1 $119 $290 #
ellipse-curve $-1 -44.815890922005138 15.140130570850008 8.4818271096209195 -0.83867057594974714 0 0.54463902268945019 0.54463902268945019 0 0.83867057594974714 1 I I #
face $-1 $-1 $135 $18 $-1 $291 reversed single #
loop $-1 $-1 $211 $120 #
plane-surface $-1 0 30.066148073425506 0 0 -1 0 0 0 -1 forward_v I I I I #
coedge $-1 $292 $209 $212 $293 forward $121 $-1 #
coedge $-1 $215 $123 $124 $203 reversed $75 $-1 #
coedge $-1 $209 $292 $123 $201 reversed $121 $-1 #
edge $-1 $216 -11.286344020897502 $294 11.286344020897502 $200 $295 forward 7 unknown #
coedge $-1 $125 $124 $292 $296 forward $49 $-1 #
edge $-1 $207 -46.637165440839865 $294 46.637165440839865 $199 $297 forward 7 unknown #
coedge $-1 $212 $211 $125 $205 reversed $196 $-1 #
edge $-1 $298 -46.637165440839865 $206 46.637165440839865 $204 $299 forward 7 unknown #
vertex $-1 $127 $300 #
vertex $-1 $218 $301 #
straight-curve $-1 46.637165440839865 0 -11.286344020897502 0 -1 0 I I #
coedge $-1 $198 $200 $128 $210 reversed $121 $-1 #
edge $-1 $213 -30.066148073425506 $216 30.066148073425506 $209 $302 forward 7 unknown #
coedge $-1 $204 $129 $134 $219 forward $196 $-1 #
coedge $-1 $129 $204 $198 $293 reversed $196 $-1 #
vertex $-1 $130 $303 #
straight-curve $-1 0 30.066148073425506 11.286344020897502 -1 0 0 I I #
coedge $-1 $131 $199 $133 $218 reversed $75 $-1 #
vertex $-1 $210 $304 #
straight-curve $-1 0 -30.066148073425506 11.286344020897502 1 0 0 I I #
edge $-1 $136 -11.286344020897502 $207 11.286344020897502 $133 $305 forward 7 unknown #
edge $-1 $137 -11.286344020897502 $206 11.286344020897502 $134 $306 forward 7 unknown #
point $-1 46.637165440839865 -30.066148073425506 11.286344020897502 #
point $-1 46.637165440839865 30.066148073425506 11.286344020897502 #
face $-1 $-1 $232 $19 $-1 $307 reversed single #
loop $-1 $-1 $228 $139 #
plane-surface $-1 0 0 -11.286344020897502 0 0 1 1 0 0 forward_v I I I I #
coedge $-1 $308 $309 $147 $236 forward $140 $-1 #
coedge $-1 $142 $240 $230 $310 forward $83 $-1 #
edge $-1 $234 -16.990345568631717 $152 -9.1612594409558596 $142 $311 forward 7 unknown #
coedge $-1 $312 $148 $143 $229 forward $223 $-1 #
edge $-1 $153 9.1612594409558596 $233 16.990345568631717 $228 $313 forward 7 unknown #
coedge $-1 $314 $145 $226 $310 reversed $232 $-1 #
coedge $-1 $145 $314 $312 $315 reversed $232 $-1 #
loop $-1 $-1 $145 $222 #
vertex $-1 $315 $316 #
vertex $-1 $146 $317 #
straight-curve $-1 -42.7411774889257 -30.066148073425506 0 0 0 1 I I #
edge $-1 $241 -11.286344020897502 $238 11.286344020897502 $225 $318 forward 7 unknown #
coedge $-1 $148 $312 $308 $319 forward $223 $-1 #
vertex $-1 $149 $320 #
straight-curve $-1 -22.344585732441391 -22.237061945749648 -11.286344020897502 1 0 0 I I #
coedge $-1 $226 $150 $309 $321 forward $83 $-1 #
vertex $-1 $321 $322 #
straight-curve $-1 -22.344585732441391 -22.237061945749648 11.286344020897502 -1 0 0 I I #
point $-1 -42.7411774889257 -22.237061945749648 11.286344020897502 #
point $-1 -42.7411774889257 -22.237061945749648 -11.286344020897502 #
face $-1 $-1 $323 $20 $-1 $324 reversed single #
loop $-1 $-1 $251 $155 #
plane-surface $-1 0 0 11.286344020897502 0 0 1 1 0 0 forward_v I I I I #
coedge $-1 $158 $256 $325 $326 forward $91 $-1 #
edge $-1 $327 -16.990345568631717 $254 -9.1612594409558579 $158 $328 forward 7 unknown #
coedge $-1 $160 $159 $329 $330 reversed $57 $-1 #
coedge $-1 $331 $165 $160 $252 forward $246 $-1 #
edge $-1 $253 9.1612594409558579 $332 16.990345568631717 $251 $333 forward 7 unknown #
vertex $-1 $166 $334 #
vertex $-1 $164 $335 #
straight-curve $-1 -42.7411774889257 22.237061945749645 0 0 0 -1 I I #
coedge $-1 $248 $163 $168 $262 forward $91 $-1 #
straight-curve $-1 -22.344585732441391 22.237061945749645 -11.286344020897502 -1 0 0 I I #
coedge $-1 $165 $331 $167 $261 forward $246 $-1 #
straight-curve $-1 -22.344585732441391 22.237061945749645 11.286344020897502 1 0 0 I I #
coedge $-1 $168 $167 $336 $337 forward $156 $-1 #
edge $-1 $338 -30.066148073425506 $170 -22.237061945749645 $167 $339 forward 7 unknown #
edge $-1 $169 22.237061945749645 $340 30.066148073425506 $168 $341 forward 7 unknown #
point $-1 -46.637165440839865 22.237061945749645 -11.286344020897502 #
point $-1 -46.637165440839865 22.237061945749645 11.286344020897502 #
loop $-1 $-1 $180 $172 #
plane-surface $-1 -46.637165440839865 0 0 1 0 0 0 0 -1 forward_v I I I I #
coedge $-1 $268 $175 $177 $272 reversed $99 $-1 #
coedge $-1 $175 $267 $342 $343 reversed $99 $-1 #
coedge $-1 $183 $178 $175 $270 forward $173 $-1 #
edge $-1 $273 -19.43718471818233 $344 -15.794635680512883 $269 $345 forward 7 unknown #
coedge $-1 $177 $176 $276 $346 reversed $61 $-1 #
edge $-1 $347 0 $273 6.6880059744569653 $267 $348 forward 7 unknown #
vertex $-1 $179 $349 #
straight-curve $-1 -42.994616403170426 6.3548587816952011 11.286344020897502 0 1 0 I I #
coedge $-1 $342 $180 $183 $280 reversed $265 $-1 #
coedge $-1 $180 $342 $271 $346 forward $265 $-1 #
vertex $-1 $181 $350 #
straight-curve $-1 -46.637165440839865 7.0387538793179658 28.239075305877392 0 0 1 I I #
straight-curve $-1 -46.637165440839865 7.0387538793179658 5.6773101983443297 -0.54463902268945019 0 -0.83867057594974714 I I #
edge $-1 $344 -18.380681247462839 $184 -7.0387538793179658 $275 $351 forward 7 unknown #
point $-1 -46.637165440839865 7.0387538793179658 11.286344020897502 #
point $-1 -42.994616403170419 7.0387538793179658 11.286344020897502 #
edge $-1 $352 1 $352 0 $187 $-1 forward 7 unknown #
vertex $-1 $188 $353 #
ellipse-curve $-1 -42.625191338091 10.279304555930782 7.0591702111861308 -0.83867057594974714 0 0.54463902268945019 0.54463902268945019 0 0.83867057594974714 1 I I #
point $-1 -44.271251899315693 10.279304555930782 9.3204976855706665 #
edge $-1 $354 1 $354 0 $191 $-1 forward 7 unknown #
vertex $-1 $192 $355 #
ellipse-curve $-1 -42.625191338091 15.140130570850008 7.0591702111861308 -0.83867057594974714 0 0.54463902268945019 0.54463902268945019 0 0.83867057594974714 1 I I #
point $-1 -44.271251899315693 15.140130570850008 9.3204976855706665 #
plane-surface $-1 46.637165440839865 0 0 -1 0 0 0 0 1 forward_v I I I I #
coedge $-1 $200 $198 $202 $296 reversed $121 $-1 #
edge $-1 $213 -11.286344020897502 $298 11.286344020897502 $212 $356 forward 7 unknown #
vertex $-1 $296 $357 #
straight-curve $-1 -46.637165440839865 -30.066148073425506 0 0 0 -1 I I #
edge $-1 $294 -30.066148073425506 $298 30.066148073425506 $292 $358 forward 7 unknown #
straight-curve $-1 0 -30.066148073425506 -11.286344020897502 -1 0 0 I I #
vertex $-1 $205 $359 #
straight-curve $-1 0 30.066148073425506 -11.286344020897502 1 0 0 I I #
point $-1 46.637165440839865 30.066148073425506 -11.286344020897502 #
point $-1 46.637165440839865 -30.066148073425506 -11.286344020897502 #
straight-curve $-1 -46.637165440839865 0 11.286344020897502 0 -1 0 I I #
point $-1 -46.637165440839865 30.066148073425506 11.286344020897502 #
point $-1 -46.637165440839865 -30.066148073425506 11.286344020897502 #
straight-curve $-1 46.637165440839865 -30.066148073425506 0 0 0 -1 I I #
straight-curve $-1 46.637165440839865 30.066148073425506 0 0 0 -1 I I #
plane-surface $-1 0 -30.066148073425506 0 0 1 0 0 0 1 forward_v I I I I #
coedge $-1 $360 $225 $237 $319 reversed $140 $-1 #
coedge $-1 $225 $360 $240 $321 reversed $140 $-1 #
edge $-1 $361 -46.637165440839865 $234 -42.7411774889257 $230 $362 forward 7 unknown #
straight-curve $-1 -42.7411774889257 -13.075802504793788 11.286344020897502 0 1 0 I I #
coedge $-1 $237 $228 $231 $315 forward $223 $-1 #
straight-curve $-1 -42.7411774889257 -13.075802504793788 -11.286344020897502 0 -1 0 I I #
coedge $-1 $231 $230 $360 $363 forward $232 $-1 #
edge $-1 $233 42.7411774889257 $364 46.637165440839865 $231 $365 forward 7 unknown #
point $-1 -42.7411774889257 -30.066148073425506 -11.286344020897502 #
point $-1 -42.7411774889257 -30.066148073425506 11.286344020897502 #
straight-curve $-1 -46.637165440839865 -22.237061945749648 0 0 0 -1 I I #
edge $-1 $364 -30.066148073425506 $238 -22.237061945749648 $308 $366 forward 7 unknown #
point $-1 -46.637165440839865 -22.237061945749648 -11.286344020897502 #
edge $-1 $241 22.237061945749648 $361 30.066148073425506 $309 $367 forward 7 unknown #
point $-1 -46.637165440839865 -22.237061945749648 11.286344020897502 #
loop $-1 $-1 $329 $245 #
plane-surface $-1 0 30.066148073425506 0 0 -1 0 0 0 -1 forward_v I I I I #
coedge $-1 $336 $329 $248 $326 reversed $323 $-1 #
edge $-1 $340 -46.637165440839865 $327 -42.7411774889257 $325 $368 forward 7 unknown #
vertex $-1 $249 $369 #
straight-curve $-1 -42.7411774889257 13.075802504793787 -11.286344020897502 0 -1 0 I I #
coedge $-1 $325 $370 $250 $330 forward $323 $-1 #
edge $-1 $332 -11.286344020897502 $327 11.286344020897502 $329 $371 forward 7 unknown #
coedge $-1 $258 $251 $370 $372 forward $246 $-1 #
vertex $-1 $372 $373 #
straight-curve $-1 -42.7411774889257 13.075802504793787 11.286344020897502 0 1 0 I I #
point $-1 -42.7411774889257 22.237061945749645 11.286344020897502 #
point $-1 -42.7411774889257 22.237061945749645 -11.286344020897502 #
coedge $-1 $370 $325 $260 $337 reversed $323 $-1 #
edge $-1 $338 -11.286344020897502 $340 11.286344020897502 $336 $374 forward 7 unknown #
vertex $-1 $372 $375 #
straight-curve $-1 -46.637165440839865 0 11.286344020897502 0 -1 0 I I #
vertex $-1 $326 $376 #
straight-curve $-1 -46.637165440839865 0 -11.286344020897502 0 1 0 I I #
coedge $-1 $276 $275 $268 $343 forward $265 $-1 #
edge $-1 $344 16.95273128497989 $347 22.561765107533063 $342 $377 forward 7 unknown #
vertex $-1 $280 $378 #
straight-curve $-1 -62.431801121352748 18.380681247462839 11.286344020897502 -1 0 0 I I #
edge $-1 $347 -12.025822465767638 $277 -0.68389509762276468 $276 $379 forward 7 unknown #
vertex $-1 $346 $380 #
straight-curve $-1 -46.637165440839865 18.380681247462839 5.6773101983443297 0.54463902268945019 0 0.83867057594974714 I I #
point $-1 -42.994616403170419 18.380681247462839 11.286344020897502 #
point $-1 -46.637165440839865 7.0387538793179658 5.6773101983443297 #
straight-curve $-1 -46.637165440839865 0 11.286344020897502 0 -1 0 I I #
vertex $-1 $283 $381 #
point $-1 -42.080552315401548 10.279304555930782 7.8978407871358778 #
vertex $-1 $287 $382 #
point $-1 -42.080552315401548 15.140130570850008 7.8978407871358778 #
straight-curve $-1 -46.637165440839865 30.066148073425506 0 0 0 -1 I I #
point $-1 -46.637165440839865 -30.066148073425506 -11.286344020897502 #
straight-curve $-1 -46.637165440839865 0 -11.286344020897502 0 1 0 I I #
point $-1 -46.637165440839865 30.066148073425506 -11.286344020897502 #
coedge $-1 $309 $308 $314 $363 reversed $140 $-1 #
vertex $-1 $321 $383 #
straight-curve $-1 0 -30.066148073425506 11.286344020897502 1 0 0 I I #
edge $-1 $361 -11.286344020897502 $364 11.286344020897502 $360 $384 forward 7 unknown #
vertex $-1 $319 $385 #
straight-curve $-1 0 -30.066148073425506 -11.286344020897502 -1 0 0 I I #
straight-curve $-1 -46.637165440839865 0 -11.286344020897502 0 1 0 I I #
straight-curve $-1 -46.637165440839865 0 11.286344020897502 0 -1 0 I I #
straight-curve $-1 0 30.066148073425506 -11.286344020897502 1 0 0 I I #
point $-1 -42.7411774889257 30.066148073425502 -11.286344020897502 #
coedge $-1 $329 $336 $331 $372 reversed $323 $-1 #
straight-curve $-1 -42.7411774889257 30.066148073425506 0 0 0 -1 I I #
edge $-1 $332 42.7411774889257 $338 46.637165440839865 $370 $386 forward 7 unknown #
point $-1 -42.7411774889257 30.066148073425502 11.286344020897502 #
straight-curve $-1 -46.637165440839865 30.066148073425506 0 0 0 -1 I I #
point $-1 -46.637165440839865 30.066148073425506 11.286344020897502 #
point $-1 -46.637165440839865 30.066148073425506 -11.286344020897502 #
straight-curve $-1 -46.637165440839865 18.380681247462839 28.239075305877392 0 0 -1 I I #
point $-1 -46.637165440839865 18.380681247462839 11.286344020897502 #
straight-curve $-1 -46.637165440839865 6.3548587816952011 5.6773101983443297 0 -1 0 I I #
point $-1 -46.637165440839865 18.380681247462839 5.6773101983443297 #
point $-1 -41.786520762141251 10.279304555930782 6.5145311884966803 #
point $-1 -41.786520762141251 15.140130570850008 6.5145311884966803 #
point $-1 -46.637165440839865 -30.066148073425506 11.286344020897502 #
straight-curve $-1 -46.637165440839865 -30.066148073425506 0 0 0 -1 I I #
point $-1 -46.637165440839865 -30.066148073425506 -11.286344020897502 #
straight-curve $-1 0 30.066148073425506 11.286344020897502 -1 0 0 I I #
End-of-ACIS-data 