500 0 7 0           
7 Unknown 11 ACIS 5.0 NT 24 Thu Mar 25 23:39:00 1999 
-1 9.9999999999999995e-007 1e-010 
body $-1 $7 $-1 $8 #
body $-1 $9 $-1 $10 #
body $-1 $11 $-1 $12 #
body $-1 $13 $-1 $14 #
body $-1 $15 $-1 $16 #
body $-1 $17 $-1 $18 #
body $-1 $19 $-1 $20 #
lump $-1 $-1 $21 $0 #
transform $-1 1 0 0 0 1 0 0 0 1 40.008545182653279 22.723564286516527 11.22447125948098 1 rotate no_reflect no_shear #
lump $-1 $-1 $22 $1 #
transform $-1 1 0 0 0 1 0 0 0 1 40.008545182653279 22.723564286516527 11.22447125948098 1 rotate no_reflect no_shear #
lump $-1 $-1 $23 $2 #
transform $-1 1 0 0 0 1 0 0 0 1 40.008545182653279 22.723564286516527 11.22447125948098 1 rotate no_reflect no_shear #
lump $-1 $-1 $24 $3 #
transform $-1 1 0 0 0 1 0 0 0 1 40.008545182653279 22.723564286516527 11.22447125948098 1 rotate no_reflect no_shear #
lump $-1 $-1 $25 $4 #
transform $-1 1 0 0 0 1 0 0 0 1 40.008545182653279 22.723564286516527 11.22447125948098 1 rotate no_reflect no_shear #
lump $-1 $-1 $26 $5 #
transform $-1 1 0 0 0 1 0 0 0 1 40.008545182653279 22.723564286516527 11.22447125948098 1 rotate no_reflect no_shear #
lump $-1 $-1 $27 $6 #
transform $-1 1 0 0 0 1 0 0 0 1 40.008545182653279 22.723564286516527 11.22447125948098 1 rotate no_reflect no_shear #
shell $-1 $-1 $-1 $28 $-1 $7 #
shell $-1 $-1 $-1 $29 $-1 $9 #
shell $-1 $-1 $-1 $30 $-1 $11 #
shell $-1 $-1 $-1 $31 $-1 $13 #
shell $-1 $-1 $-1 $32 $-1 $15 #
shell $-1 $-1 $-1 $33 $-1 $17 #
shell $-1 $-1 $-1 $34 $-1 $19 #
face $-1 $35 $36 $21 $-1 $37 reversed single #
face $-1 $38 $39 $22 $-1 $40 forward single #
face $-1 $41 $42 $23 $-1 $43 reversed single #
face $-1 $44 $45 $24 $-1 $46 forward single #
face $-1 $47 $48 $25 $-1 $49 reversed single #
face $-1 $50 $51 $26 $-1 $52 forward single #
face $-1 $53 $54 $27 $-1 $55 forward single #
face $-1 $56 $57 $21 $-1 $58 forward single #
loop $-1 $-1 $59 $28 #
plane-surface $-1 0 -22.723564286516527 0 0 1 0 0 0 1 forward_v I I I I #
face $-1 $60 $61 $22 $-1 $62 reversed single #
loop $-1 $-1 $63 $29 #
plane-surface $-1 0 -22.723564286516527 0 0 1 0 0 0 1 forward_v I I I I #
face $-1 $64 $65 $23 $-1 $66 reversed single #
loop $-1 $-1 $67 $30 #
plane-surface $-1 -96.589173047257944 2.0836813008409028 58.210862485064027 0 1 0 -0.70710678939079041 0 0.70710677298230451 forward_v I I I I #
face $-1 $68 $69 $24 $-1 $70 forward single #
loop $-1 $71 $72 $31 #
cone-surface $-1 -33.800343129719764 6.272193096610156 5.0162691279742191 0.70710678939079041 0 -0.70710677298230451 1.414213545964609 0 1.4142135787815808 1 I I 0 1 2 forward I I I I #
face $-1 $73 $74 $25 $-1 $75 reversed single #
loop $-1 $-1 $76 $32 #
plane-surface $-1 14.552802600573777 7.9007926760680256 116.45934953421566 0 -1 0 -0.52991927123019833 0 -0.84804809178421925 forward_v I I I I #
face $-1 $77 $78 $26 $-1 $79 forward single #
loop $-1 $80 $81 $33 #
cone-surface $-1 35.620342105015048 2.2663372927767824 8.1248960799597878 -0.52991927123019833 0 -0.84804809178421925 0.42402404589210962 0 -0.26495963561509916 1 I I 0 1 0.5 forward I I I I #
face $-1 $82 $83 $27 $-1 $84 forward single #
loop $-1 $85 $86 $34 #
cone-surface $-1 35.620342105015048 5.647010522751529 8.1248960799597878 -0.52991927123019833 0 -0.84804809178421925 0.42402404589210962 0 -0.26495963561509916 1 I I 0 1 0.5 forward I I I I #
face $-1 $87 $88 $21 $-1 $89 reversed single #
loop $-1 $-1 $90 $35 #
plane-surface $-1 0 0 11.22447125948098 0 0 1 1 0 0 forward_v I I I I #
coedge $-1 $91 $92 $93 $94 reversed $36 $-1 #
face $-1 $95 $96 $22 $-1 $97 reversed single #
loop $-1 $-1 $98 $38 #
plane-surface $-1 0 0 -11.22447125948098 0 0 1 1 0 0 forward_v I I I I #
coedge $-1 $99 $100 $101 $102 forward $39 $-1 #
face $-1 $103 $104 $23 $-1 $105 reversed single #
loop $-1 $-1 $106 $41 #
plane-surface $-1 -40.008545182653272 6.2721930966101525 1.6302359334186605 -0.70710678939079041 0 0.70710677298230451 0.70710677298230451 0 0.70710678939079041 forward_v I I I I #
coedge $-1 $107 $108 $109 $110 reversed $42 $-1 #
face $-1 $-1 $111 $24 $-1 $112 forward single #
loop $-1 $113 $114 $44 #
cone-surface $-1 -31.682151839109014 6.272193096610156 2.898077886516317 0.70710678939079041 0 -0.70710677298230451 0.70710677298230451 0 0.70710678939079041 1 I I -0.70710678118654746 0.70710678118654746 1 forward I I I I #
loop $-1 $-1 $115 $31 #
coedge $-1 $72 $72 $116 $117 reversed $45 $-1 #
face $-1 $118 $119 $25 $-1 $120 reversed single #
loop $-1 $-1 $121 $47 #
plane-surface $-1 -27.849795611770396 3.9566739077641557 48.601008739791993 0.52991927123019833 0 0.84804809178421925 0.84804809178421925 0 -0.52991927123019833 forward_v I I I I #
coedge $-1 $122 $123 $124 $125 reversed $48 $-1 #
face $-1 $-1 $126 $26 $-1 $127 forward single #
loop $-1 $128 $129 $50 #
cone-surface $-1 35.12134840299808 2.2663372927767824 7.3263392435091159 -0.52991927123019833 0 -0.84804809178421925 0.21201202294605481 0 -0.13247981780754958 1 I I -0.70710678118654746 0.70710678118654746 0.25 forward I I I I #
loop $-1 $-1 $130 $33 #
coedge $-1 $81 $81 $131 $132 reversed $51 $-1 #
face $-1 $-1 $133 $27 $-1 $134 forward single #
loop $-1 $135 $136 $53 #
cone-surface $-1 35.12134840299808 5.647010522751529 7.3263392435091159 -0.52991927123019833 0 -0.84804809178421925 0.21201202294605481 0 -0.13247981780754958 1 I I -0.70710678118654746 0.70710678118654746 0.25 forward I I I I #
loop $-1 $-1 $137 $34 #
coedge $-1 $86 $86 $138 $139 reversed $54 $-1 #
face $-1 $140 $141 $21 $-1 $142 reversed single #
loop $-1 $-1 $143 $56 #
plane-surface $-1 0 0 -11.22447125948098 0 0 1 1 0 0 forward_v I I I I #
coedge $-1 $144 $145 $146 $147 forward $57 $-1 #
coedge $-1 $148 $59 $149 $150 reversed $36 $-1 #
coedge $-1 $59 $148 $151 $152 forward $36 $-1 #
coedge $-1 $153 $143 $59 $94 forward $88 $-1 #
edge $-1 $154 -40.008545182653279 $155 40.008545182653279 $59 $156 forward 7 unknown #
face $-1 $157 $158 $22 $-1 $159 reversed single #
loop $-1 $-1 $160 $60 #
plane-surface $-1 -31.963005570742716 -30.729712066871421 0 0 1 0 0 0 1 forward_v I I I I #
coedge $-1 $161 $162 $100 $163 forward $61 $-1 #
coedge $-1 $164 $63 $165 $166 reversed $39 $-1 #
coedge $-1 $63 $164 $98 $163 reversed $39 $-1 #
coedge $-1 $167 $168 $63 $102 reversed $158 $-1 #
edge $-1 $169 -11.22447125948098 $170 11.22447125948098 $101 $171 forward 7 unknown #
face $-1 $172 $173 $23 $-1 $174 reversed single #
loop $-1 $-1 $175 $64 #
plane-surface $-1 -96.589173047257944 10.460704892379402 58.210862485064027 0 -1 0 0.70710678939079041 0 -0.70710677298230451 forward_v I I I I #
coedge $-1 $176 $177 $178 $179 reversed $65 $-1 #
coedge $-1 $108 $67 $180 $181 reversed $42 $-1 #
coedge $-1 $67 $107 $176 $182 reversed $42 $-1 #
coedge $-1 $178 $183 $67 $110 forward $184 $-1 #
edge $-1 $185 8.286041340975693 $186 17.880276444402803 $109 $187 forward 7 unknown #
loop $-1 $-1 $116 $68 #
plane-surface $-1 -40.008545182653272 6.2721930966101525 1.6302359334186605 -0.70710678939079041 0 0.70710677298230451 0.70710677298230451 0 0.70710678939079041 forward_v I I I I #
loop $-1 $-1 $188 $44 #
coedge $-1 $114 $114 $115 $189 reversed $69 $-1 #
coedge $-1 $115 $115 $114 $189 forward $71 $-1 #
coedge $-1 $116 $116 $72 $117 forward $111 $-1 #
edge $-1 $190 0 $190 6.2831853071796004 $116 $191 forward 7 unknown #
face $-1 $192 $193 $25 $-1 $194 forward single #
loop $-1 $-1 $195 $73 #
plane-surface $-1 14.552802600573777 0.012555139460285858 116.45934953421566 0 1 0 0.52991927123019833 0 0.84804809178421925 forward_v I I I I #
coedge $-1 $196 $197 $198 $199 reversed $74 $-1 #
coedge $-1 $123 $76 $200 $201 reversed $48 $-1 #
coedge $-1 $76 $122 $196 $202 reversed $48 $-1 #
coedge $-1 $198 $203 $76 $125 forward $193 $-1 #
edge $-1 $204 -32.732143882366387 $205 -24.688765495508751 $124 $206 forward 7 unknown #
loop $-1 $-1 $131 $77 #
plane-surface $-1 -27.849795611770396 3.9566739077641557 48.601008739791993 0.52991927123019833 0 0.84804809178421925 0.84804809178421925 0 -0.52991927123019833 forward_v I I I I #
loop $-1 $-1 $207 $50 #
coedge $-1 $129 $129 $130 $208 reversed $78 $-1 #
coedge $-1 $130 $130 $129 $208 forward $80 $-1 #
coedge $-1 $131 $131 $81 $132 forward $126 $-1 #
edge $-1 $209 0 $209 6.2831853071796004 $131 $210 forward 7 unknown #
loop $-1 $-1 $138 $82 #
plane-surface $-1 -27.849795611770396 3.9566739077641557 48.601008739791993 0.52991927123019833 0 0.84804809178421925 0.84804809178421925 0 -0.52991927123019833 forward_v I I I I #
loop $-1 $-1 $211 $53 #
coedge $-1 $136 $136 $137 $212 reversed $83 $-1 #
coedge $-1 $137 $137 $136 $212 forward $85 $-1 #
coedge $-1 $138 $138 $86 $139 forward $133 $-1 #
edge $-1 $213 0 $213 6.2831853071796004 $138 $214 forward 7 unknown #
face $-1 $215 $216 $21 $-1 $217 reversed single #
loop $-1 $-1 $218 $87 #
plane-surface $-1 -40.008545182653279 0 0 1 0 0 0 0 -1 forward_v I I I I #
coedge $-1 $93 $219 $220 $221 forward $88 $-1 #
coedge $-1 $222 $90 $223 $224 forward $57 $-1 #
coedge $-1 $90 $222 $148 $225 forward $57 $-1 #
coedge $-1 $149 $226 $90 $147 reversed $227 $-1 #
edge $-1 $228 -22.723564286516527 $229 22.723564286516527 $146 $230 forward 7 unknown #
coedge $-1 $92 $91 $145 $225 reversed $36 $-1 #
coedge $-1 $220 $146 $91 $150 forward $227 $-1 #
edge $-1 $228 -11.22447125948098 $154 11.22447125948098 $149 $231 forward 7 unknown #
coedge $-1 $232 $233 $92 $152 reversed $141 $-1 #
edge $-1 $234 -11.22447125948098 $155 11.22447125948098 $151 $235 forward 7 unknown #
coedge $-1 $219 $93 $233 $236 forward $88 $-1 #
vertex $-1 $150 $237 #
vertex $-1 $236 $238 #
straight-curve $-1 0 -22.723564286516527 -11.22447125948098 -1 0 0 I I #
face $-1 $239 $240 $22 $-1 $241 reversed single #
loop $-1 $-1 $101 $95 #
plane-surface $-1 -34.002744152687342 -26.726638176693974 0 1 0 0 0 0 -1 forward_v I I I I #
coedge $-1 $242 $243 $244 $245 forward $96 $-1 #
coedge $-1 $246 $98 $247 $248 forward $61 $-1 #
coedge $-1 $98 $246 $167 $249 forward $61 $-1 #
edge $-1 $169 -34.002744152687342 $250 -29.92326698879809 $98 $251 forward 7 unknown #
coedge $-1 $100 $99 $252 $253 forward $39 $-1 #
coedge $-1 $254 $255 $99 $166 forward $256 $-1 #
edge $-1 $257 29.92326698879809 $170 34.002744152687342 $165 $258 forward 7 unknown #
coedge $-1 $244 $101 $162 $249 reversed $158 $-1 #
coedge $-1 $101 $244 $254 $259 reversed $158 $-1 #
vertex $-1 $163 $260 #
vertex $-1 $259 $261 #
straight-curve $-1 -34.002744152687342 -22.723564286516527 0 0 0 1 I I #
face $-1 $-1 $184 $23 $-1 $262 forward single #
loop $-1 $-1 $263 $103 #
plane-surface $-1 -40.008545182653279 0 0 1 0 0 0 0 -1 forward_v I I I I #
coedge $-1 $264 $265 $266 $267 reversed $104 $-1 #
coedge $-1 $268 $106 $108 $182 forward $65 $-1 #
coedge $-1 $106 $268 $264 $269 forward $65 $-1 #
coedge $-1 $266 $109 $106 $179 forward $184 $-1 #
edge $-1 $186 -1.0524152474641735 $270 7.3246083440743259 $178 $271 forward 7 unknown #
coedge $-1 $272 $273 $107 $181 forward $173 $-1 #
edge $-1 $274 -27.47519530911336 $185 -17.880959983051035 $180 $275 forward 7 unknown #
edge $-1 $186 -13.568297561289519 $274 1.0048591735576163e-014 $108 $276 forward 7 unknown #
coedge $-1 $109 $266 $272 $277 forward $184 $-1 #
loop $-1 $-1 $266 $172 #
vertex $-1 $181 $278 #
vertex $-1 $110 $279 #
straight-curve $-1 -48.294586523628972 2.0836813008409028 11.224471259480978 1 0 0 I I #
coedge $-1 $188 $188 $-1 $280 reversed $113 $-1 #
edge $-1 $281 0 $281 6.2831853071796004 $114 $282 forward 7 unknown #
vertex $-1 $117 $283 #
ellipse-curve $-1 -35.211427630939724 6.272193096610156 6.4273535964498176 -0.70710678939079041 0 0.70710677298230451 1.414213545964609 0 1.4142135787815808 1 I I #
face $-1 $-1 $284 $25 $-1 $285 reversed single #
loop $-1 $-1 $124 $118 #
plane-surface $-1 0 0 11.22447125948098 0 0 1 1 0 0 forward_v I I I I #
coedge $-1 $286 $287 $288 $289 reversed $119 $-1 #
coedge $-1 $290 $121 $123 $202 forward $74 $-1 #
coedge $-1 $121 $290 $286 $291 forward $74 $-1 #
coedge $-1 $288 $124 $121 $199 forward $193 $-1 #
edge $-1 $205 -5.9224557221859477 $292 1.965781814421792 $198 $293 forward 7 unknown #
coedge $-1 $294 $295 $122 $201 forward $284 $-1 #
edge $-1 $296 -52.031264239660018 $204 -47.005203507626852 $200 $297 forward 7 unknown #
edge $-1 $205 70.532512232555789 $296 80.017090365306572 $123 $298 forward 7 unknown #
coedge $-1 $124 $288 $294 $299 forward $193 $-1 #
vertex $-1 $125 $300 #
vertex $-1 $125 $301 #
straight-curve $-1 7.2764013002868886 7.9007926760680256 11.224471259480978 -1 0 0 I I #
coedge $-1 $207 $207 $-1 $302 reversed $128 $-1 #
edge $-1 $303 0 $303 6.2831853071796004 $129 $304 forward 7 unknown #
vertex $-1 $132 $305 #
ellipse-curve $-1 35.986855989224459 2.2663372927767824 8.7114408934643937 0.52991927123019833 0 0.84804809178421925 0.42402404589210962 0 -0.26495963561509916 1 I I #
coedge $-1 $211 $211 $-1 $306 reversed $135 $-1 #
edge $-1 $307 0 $307 6.2831853071796004 $136 $308 forward 7 unknown #
vertex $-1 $139 $309 #
ellipse-curve $-1 35.986855989224459 5.647010522751529 8.7114408934643937 0.52991927123019833 0 0.84804809178421925 0.42402404589210962 0 -0.26495963561509916 1 I I #
face $-1 $-1 $227 $21 $-1 $310 reversed single #
loop $-1 $-1 $311 $140 #
plane-surface $-1 0 22.723564286516527 0 0 -1 0 0 0 -1 forward_v I I I I #
coedge $-1 $233 $232 $312 $313 forward $141 $-1 #
coedge $-1 $143 $153 $314 $315 forward $88 $-1 #
coedge $-1 $226 $149 $143 $221 reversed $227 $-1 #
edge $-1 $316 -22.723564286516527 $154 22.723564286516527 $220 $317 forward 7 unknown #
coedge $-1 $145 $144 $232 $318 forward $57 $-1 #
coedge $-1 $311 $312 $144 $224 reversed $216 $-1 #
edge $-1 $229 -40.008545182653279 $319 40.008545182653279 $223 $320 forward 7 unknown #
edge $-1 $234 -40.008545182653279 $228 40.008545182653279 $148 $321 forward 7 unknown #
coedge $-1 $146 $220 $311 $322 reversed $227 $-1 #
loop $-1 $-1 $149 $215 #
vertex $-1 $147 $323 #
vertex $-1 $147 $324 #
straight-curve $-1 40.008545182653279 0 11.22447125948098 0 1 0 I I #
straight-curve $-1 40.008545182653279 -22.723564286516527 0 0 0 -1 I I #
coedge $-1 $218 $151 $222 $318 reversed $141 $-1 #
coedge $-1 $151 $218 $153 $236 reversed $141 $-1 #
vertex $-1 $318 $325 #
straight-curve $-1 -40.008545182653279 -22.723564286516527 0 0 0 -1 I I #
edge $-1 $155 -22.723564286516527 $326 22.723564286516527 $233 $327 forward 7 unknown #
point $-1 40.008545182653279 -22.723564286516527 -11.22447125948098 #
point $-1 -40.008545182653279 -22.723564286516527 -11.22447125948098 #
face $-1 $-1 $256 $22 $-1 $328 forward single #
loop $-1 $-1 $329 $157 #
plane-surface $-1 -29.92326698879809 -26.726638176693974 0 -1 0 0 0 0 1 forward_v I I I I #
coedge $-1 $330 $160 $246 $331 reversed $96 $-1 #
coedge $-1 $160 $330 $332 $333 reversed $96 $-1 #
coedge $-1 $168 $167 $160 $245 reversed $158 $-1 #
edge $-1 $334 -11.22447125948098 $335 11.22447125948098 $244 $336 forward 7 unknown #
coedge $-1 $162 $161 $242 $331 forward $61 $-1 #
coedge $-1 $252 $329 $161 $248 reversed $240 $-1 #
edge $-1 $250 -4.003073890177447 $337 4.003073890177447 $247 $338 forward 7 unknown #
edge $-1 $335 -4.003073890177447 $169 4.003073890177447 $167 $339 forward 7 unknown #
vertex $-1 $248 $340 #
straight-curve $-1 0 -22.723564286516527 -11.22447125948098 1 0 0 I I #
coedge $-1 $341 $247 $164 $253 reversed $240 $-1 #
edge $-1 $257 -11.22447125948098 $250 11.22447125948098 $252 $342 forward 7 unknown #
coedge $-1 $332 $165 $168 $259 forward $256 $-1 #
coedge $-1 $165 $332 $341 $343 forward $256 $-1 #
loop $-1 $-1 $165 $239 #
vertex $-1 $166 $344 #
straight-curve $-1 0 -22.723564286516527 11.22447125948098 -1 0 0 I I #
edge $-1 $170 -4.003073890177447 $334 4.003073890177447 $168 $345 forward 7 unknown #
point $-1 -34.002744152687342 -22.723564286516527 -11.22447125948098 #
point $-1 -34.002744152687342 -22.723564286516527 11.22447125948098 #
plane-surface $-1 0 0 11.22447125948098 0 0 1 1 0 0 forward_v I I I I #
coedge $-1 $273 $272 $265 $346 forward $173 $-1 #
coedge $-1 $265 $175 $177 $269 reversed $104 $-1 #
coedge $-1 $175 $264 $263 $346 reversed $104 $-1 #
coedge $-1 $183 $178 $175 $267 forward $184 $-1 #
edge $-1 $270 -17.880276444402803 $347 -8.286041340975693 $266 $348 forward 7 unknown #
coedge $-1 $177 $176 $273 $349 reversed $65 $-1 #
edge $-1 $350 -1.0048591735576163e-014 $270 13.568297561289519 $264 $351 forward 7 unknown #
vertex $-1 $179 $352 #
straight-curve $-1 -30.414310079226169 3.1360965483050762 11.22447125948098 0 1 0 I I #
coedge $-1 $263 $180 $183 $277 reversed $173 $-1 #
coedge $-1 $180 $263 $268 $349 forward $173 $-1 #
vertex $-1 $181 $353 #
straight-curve $-1 -40.008545182653279 2.0836813008409028 29.105431242532013 0 0 1 I I #
straight-curve $-1 -40.008545182653272 2.0836813008409028 1.6302359334186605 -0.70710677298230451 0 -0.70710678939079041 I I #
edge $-1 $347 -10.460704892379402 $185 -2.0836813008409028 $272 $354 forward 7 unknown #
point $-1 -40.008545182653279 2.0836813008409028 11.22447125948098 #
point $-1 -30.414310079226169 2.0836813008409028 11.22447125948098 #
edge $-1 $355 1 $355 0 $188 $-1 forward 7 unknown #
vertex $-1 $189 $356 #
ellipse-curve $-1 -32.389258628499803 6.272193096610156 3.6051846594986214 -0.70710678939079041 0 0.70710677298230451 1.414213545964609 0 1.4142135787815808 1 I I #
point $-1 -33.79721408497511 6.272193096610156 7.8415671752313978 #
loop $-1 $-1 $200 $192 #
plane-surface $-1 40.008545182653279 0 0 -1 0 0 0 0 1 forward_v I I I I #
coedge $-1 $287 $195 $197 $291 reversed $119 $-1 #
coedge $-1 $195 $286 $357 $358 reversed $119 $-1 #
coedge $-1 $203 $198 $195 $289 forward $193 $-1 #
edge $-1 $292 24.688765495508751 $359 32.732143882366387 $288 $360 forward 7 unknown #
coedge $-1 $197 $196 $295 $361 reversed $74 $-1 #
edge $-1 $362 -80.017090365306572 $292 -70.532512232555789 $286 $363 forward 7 unknown #
vertex $-1 $199 $364 #
straight-curve $-1 31.965166795795657 1.9783369538820779 11.224471259480978 0 -1 0 I I #
coedge $-1 $357 $200 $203 $299 reversed $284 $-1 #
coedge $-1 $200 $357 $290 $361 forward $284 $-1 #
vertex $-1 $201 $365 #
straight-curve $-1 40.008545182653279 7.9007926760680256 58.229674767107831 0 0 1 I I #
straight-curve $-1 -27.849795611770396 7.9007926760680256 48.601008739791993 0.84804809178421925 0 -0.52991927123019833 I I #
edge $-1 $359 0.012555139460285858 $204 7.9007926760680256 $294 $366 forward 7 unknown #
point $-1 40.008545182653279 7.9007926760680256 11.22447125948098 #
point $-1 31.965166795795639 7.9007926760680256 11.224471259480978 #
edge $-1 $367 1 $367 0 $207 $-1 forward 7 unknown #
vertex $-1 $208 $368 #
ellipse-curve $-1 35.25382822080563 2.2663372927767824 7.5383512664551704 0.52991927123019833 0 0.84804809178421925 0.42402404589210962 0 -0.26495963561509916 1 I I #
point $-1 36.410880035116577 2.2663372927767824 8.4464812578493049 #
edge $-1 $369 1 $369 0 $211 $-1 forward 7 unknown #
vertex $-1 $212 $370 #
ellipse-curve $-1 35.25382822080563 5.647010522751529 7.5383512664551704 0.52991927123019833 0 0.84804809178421925 0.42402404589210962 0 -0.26495963561509916 1 I I #
point $-1 36.410880035116577 5.647010522751529 8.4464812578493049 #
plane-surface $-1 40.008545182653279 0 0 -1 0 0 0 0 1 forward_v I I I I #
coedge $-1 $314 $223 $226 $322 forward $216 $-1 #
coedge $-1 $223 $314 $218 $313 reversed $216 $-1 #
edge $-1 $319 -11.22447125948098 $326 11.22447125948098 $312 $371 forward 7 unknown #
coedge $-1 $312 $311 $219 $315 reversed $216 $-1 #
edge $-1 $326 -40.008545182653279 $316 40.008545182653279 $314 $372 forward 7 unknown #
vertex $-1 $221 $373 #
straight-curve $-1 40.008545182653279 0 -11.22447125948098 0 -1 0 I I #
edge $-1 $319 -22.723564286516527 $234 22.723564286516527 $232 $374 forward 7 unknown #
vertex $-1 $224 $375 #
straight-curve $-1 0 22.723564286516527 11.22447125948098 -1 0 0 I I #
straight-curve $-1 0 -22.723564286516527 11.22447125948098 1 0 0 I I #
edge $-1 $229 -11.22447125948098 $316 11.22447125948098 $226 $376 forward 7 unknown #
point $-1 40.008545182653279 -22.723564286516527 11.22447125948098 #
point $-1 40.008545182653279 22.723564286516527 11.22447125948098 #
point $-1 -40.008545182653279 -22.723564286516527 11.22447125948098 #
vertex $-1 $315 $377 #
straight-curve $-1 -40.008545182653279 0 -11.22447125948098 0 1 0 I I #
plane-surface $-1 0 0 11.22447125948098 0 0 1 1 0 0 forward_v I I I I #
coedge $-1 $247 $341 $330 $378 forward $240 $-1 #
coedge $-1 $243 $242 $329 $378 reversed $96 $-1 #
edge $-1 $337 -2.0397385819446257 $335 2.0397385819446257 $242 $379 forward 7 unknown #
coedge $-1 $255 $254 $243 $333 forward $256 $-1 #
edge $-1 $334 -2.0397385819446257 $380 2.0397385819446257 $243 $381 forward 7 unknown #
vertex $-1 $259 $382 #
vertex $-1 $249 $383 #
straight-curve $-1 -34.002744152687342 -30.729712066871421 0 0 0 -1 I I #
vertex $-1 $378 $384 #
straight-curve $-1 -29.92326698879809 -26.726638176693974 -11.22447125948098 0 -1 0 I I #
straight-curve $-1 -34.002744152687342 -26.726638176693974 -11.22447125948098 0 1 0 I I #
point $-1 -29.92326698879809 -22.723564286516527 -11.22447125948098 #
coedge $-1 $329 $252 $255 $343 reversed $240 $-1 #
straight-curve $-1 -29.92326698879809 -22.723564286516527 0 0 0 -1 I I #
edge $-1 $380 -4.003073890177447 $257 4.003073890177447 $341 $385 forward 7 unknown #
point $-1 -29.92326698879809 -22.723564286516527 11.22447125948098 #
straight-curve $-1 -34.002744152687342 -26.726638176693974 11.22447125948098 0 -1 0 I I #
edge $-1 $347 17.880959983051035 $350 27.47519530911336 $263 $386 forward 7 unknown #
vertex $-1 $277 $387 #
straight-curve $-1 -48.294586523628972 10.460704892379402 11.224471259480978 -1 0 0 I I #
edge $-1 $350 -7.3246083440743259 $274 1.0524152474641735 $273 $388 forward 7 unknown #
vertex $-1 $349 $389 #
straight-curve $-1 -40.008545182653272 10.460704892379402 1.6302359334186605 0.70710677298230451 0 0.70710678939079041 I I #
point $-1 -30.414310079226169 10.460704892379402 11.22447125948098 #
point $-1 -40.008545182653279 2.0836813008409028 1.6302359334186534 #
straight-curve $-1 -40.008545182653279 0 11.22447125948098 0 -1 0 I I #
vertex $-1 $280 $390 #
point $-1 -30.975045082535196 6.272193096610156 5.0193982382802025 #
coedge $-1 $295 $294 $287 $358 forward $284 $-1 #
edge $-1 $359 47.005203507626852 $362 52.031264239660018 $357 $391 forward 7 unknown #
vertex $-1 $299 $392 #
straight-curve $-1 7.2764013002868886 0.012555139460285858 11.224471259480978 1 0 0 I I #
edge $-1 $362 -1.965781814421792 $296 5.9224557221859477 $295 $393 forward 7 unknown #
vertex $-1 $361 $394 #
straight-curve $-1 -27.849795611770396 0.012555139460285858 48.601008739791993 -0.84804809178421925 0 0.52991927123019833 I I #
point $-1 31.965166795795639 0.012555139460285858 11.224471259480978 #
point $-1 40.008545182653272 7.9007926760680256 6.1984105274478125 #
straight-curve $-1 40.008545182653279 0 11.22447125948098 0 1 0 I I #
vertex $-1 $302 $395 #
point $-1 35.677852266697741 2.2663372927767824 7.2733916308400719 #
vertex $-1 $306 $396 #
point $-1 35.677852266697741 5.647010522751529 7.2733916308400719 #
straight-curve $-1 -40.008545182653279 22.723564286516527 0 0 0 -1 I I #
straight-curve $-1 0 22.723564286516527 -11.22447125948098 1 0 0 I I #
point $-1 40.008545182653279 22.723564286516527 -11.22447125948098 #
straight-curve $-1 -40.008545182653279 0 11.22447125948098 0 -1 0 I I #
point $-1 -40.008545182653279 22.723564286516527 11.22447125948098 #
straight-curve $-1 40.008545182653279 22.723564286516527 0 0 0 -1 I I #
point $-1 -40.008545182653279 22.723564286516527 -11.22447125948098 #
edge $-1 $380 -11.22447125948098 $337 11.22447125948098 $329 $397 forward 7 unknown #
straight-curve $-1 -31.963005570742716 -30.729712066871421 -11.22447125948098 -1 0 0 I I #
vertex $-1 $343 $398 #
straight-curve $-1 -31.963005570742716 -30.729712066871421 11.22447125948098 1 0 0 I I #
point $-1 -34.002744152687342 -30.729712066871421 11.22447125948098 #
point $-1 -34.002744152687342 -30.729712066871421 -11.22447125948098 #
point $-1 -29.92326698879809 -30.729712066871421 -11.22447125948098 #
straight-curve $-1 -29.92326698879809 -26.726638176693974 11.22447125948098 0 1 0 I I #
straight-curve $-1 -40.008545182653279 10.460704892379402 29.105431242532013 0 0 -1 I I #
point $-1 -40.008545182653279 10.460704892379402 11.22447125948098 #
straight-curve $-1 -40.008545182653279 3.1360965483050762 1.6302359334186551 0 -1 0 I I #
point $-1 -40.008545182653279 10.460704892379402 1.6302359334186534 #
point $-1 -30.975045049718226 6.272193096610156 2.1909711135340126 #
straight-curve $-1 40.008545182653279 0.012555139460285858 58.229674767107831 0 0 -1 I I #
point $-1 40.008545182653279 0.012555139460285858 11.22447125948098 #
straight-curve $-1 40.008545182653279 1.9783369538820779 6.1984105274478161 0 1 0 I I #
point $-1 40.008545182653272 0.012555139460285858 6.1984105274478125 #
point $-1 34.988868585190531 2.2663372927767824 7.1143272205630614 #
point $-1 34.988868585190531 5.647010522751529 7.1143272205630614 #
straight-curve $-1 -29.92326698879809 -30.729712066871421 0 0 0 -1 I I #
point $-1 -29.92326698879809 -30.729712066871421 11.22447125948098 #
End-of-ACIS-data 