500 0 8 0           
7 Unknown 11 ACIS 5.0 NT 24 Thu Mar 25 17:10:26 1999 
-1 9.9999999999999995e-007 1e-010 
body $-1 $8 $-1 $9 #
body $-1 $10 $-1 $11 #
body $-1 $12 $-1 $13 #
body $-1 $14 $-1 $15 #
body $-1 $16 $-1 $17 #
body $-1 $18 $-1 $19 #
body $-1 $20 $-1 $21 #
body $-1 $22 $-1 $23 #
lump $-1 $-1 $24 $0 #
transform $-1 1 0 0 0 1 0 0 0 1 45.078279976805931 28.912171757944073 13.402287645062536 1 rotate no_reflect no_shear #
lump $-1 $-1 $25 $1 #
transform $-1 1 0 0 0 1 0 0 0 1 45.078279976805931 28.912171757944073 13.402287645062536 1 rotate no_reflect no_shear #
lump $-1 $-1 $26 $2 #
transform $-1 1 0 0 0 1 0 0 0 1 45.078279976805931 28.912171757944073 13.402287645062536 1 rotate no_reflect no_shear #
lump $-1 $-1 $27 $3 #
transform $-1 1 0 0 0 1 0 0 0 1 45.078279976805931 28.912171757944073 13.402287645062536 1 rotate no_reflect no_shear #
lump $-1 $-1 $28 $4 #
transform $-1 1 0 0 0 1 0 0 0 1 45.078279976805931 28.912171757944073 13.402287645062536 1 rotate no_reflect no_shear #
lump $-1 $-1 $29 $5 #
transform $-1 1 0 0 0 1 0 0 0 1 45.078279976805931 28.912171757944073 13.402287645062536 1 rotate no_reflect no_shear #
lump $-1 $-1 $30 $6 #
transform $-1 1 0 0 0 1 0 0 0 1 45.078279976805931 28.912171757944073 13.402287645062536 1 rotate no_reflect no_shear #
lump $-1 $-1 $31 $7 #
transform $-1 1 0 0 0 1 0 0 0 1 45.078279976805931 28.912171757944073 13.402287645062536 1 rotate no_reflect no_shear #
shell $-1 $-1 $-1 $32 $-1 $8 #
shell $-1 $-1 $-1 $33 $-1 $10 #
shell $-1 $-1 $-1 $34 $-1 $12 #
shell $-1 $-1 $-1 $35 $-1 $14 #
shell $-1 $-1 $-1 $36 $-1 $16 #
shell $-1 $-1 $-1 $37 $-1 $18 #
shell $-1 $-1 $-1 $38 $-1 $20 #
shell $-1 $-1 $-1 $39 $-1 $22 #
face $-1 $40 $41 $24 $-1 $42 forward single #
face $-1 $43 $44 $25 $-1 $45 forward single #
face $-1 $46 $47 $26 $-1 $48 reversed single #
face $-1 $49 $50 $27 $-1 $51 forward single #
face $-1 $52 $53 $28 $-1 $54 forward single #
face $-1 $55 $56 $29 $-1 $57 reversed single #
face $-1 $58 $59 $30 $-1 $60 forward single #
face $-1 $61 $62 $31 $-1 $63 forward single #
face $-1 $64 $65 $24 $-1 $66 reversed single #
loop $-1 $-1 $67 $32 #
plane-surface $-1 0 0 13.402287645062536 0 0 1 1 0 0 forward_v I I I I #
face $-1 $68 $69 $25 $-1 $70 reversed single #
loop $-1 $-1 $71 $33 #
plane-surface $-1 0 -23.449697569627332 -6.7150913309603775 0 0 1 1 0 0 forward_v I I I I #
face $-1 $72 $73 $26 $-1 $74 reversed single #
loop $-1 $-1 $75 $34 #
plane-surface $-1 78.077873142876825 -7.3525020111000092 128.05046719992728 0 -1 0 -0.86602541151947299 0 -0.49999998660252726 forward_v I I I I #
face $-1 $76 $77 $27 $-1 $78 forward single #
loop $-1 $79 $80 $35 #
cone-surface $-1 42.07136392801916 -14.948731561250423 8.8302534325415856 -0.86602541151947299 0 -0.49999998660252726 0.49999998660252726 0 -0.86602541151947299 1 I I 0 1 1 forward I I I I #
face $-1 $81 $82 $28 $-1 $83 forward single #
loop $-1 $84 $85 $36 #
cone-surface $-1 42.07136392801916 -10.390993831160173 8.8302534325415856 -0.86602541151947299 0 -0.49999998660252726 0.49999998660252726 0 -0.86602541151947299 1 I I 0 1 1 forward I I I I #
face $-1 $86 $87 $29 $-1 $88 reversed single #
loop $-1 $-1 $89 $37 #
plane-surface $-1 -96.789959015123145 22.761941669425632 75.18336687060804 0 1 0 -0.57357644374324357 0 0.81915203911291934 forward_v I I I I #
face $-1 $90 $91 $30 $-1 $92 forward single #
loop $-1 $93 $94 $38 #
cone-surface $-1 -36.172011237141618 24.519150266145182 6.9572862755751714 0.57357644374324357 0 -0.81915203911291934 0.20478800977822983 0 0.14339411093581089 1 I I 0 1 0.25 forward I I I I #
face $-1 $95 $96 $31 $-1 $97 forward single #
loop $-1 $98 $99 $39 #
cone-surface $-1 -36.172011237141618 27.154963161224515 6.9572862755751714 0.57357644374324357 0 -0.81915203911291934 0.20478800977822983 0 0.14339411093581089 1 I I 0 1 0.25 forward I I I I #
face $-1 $100 $101 $24 $-1 $102 reversed single #
loop $-1 $-1 $103 $40 #
plane-surface $-1 0 0 -13.402287645062536 0 0 1 1 0 0 forward_v I I I I #
coedge $-1 $104 $105 $106 $107 forward $41 $-1 #
face $-1 $108 $109 $25 $-1 $110 reversed single #
loop $-1 $-1 $111 $43 #
plane-surface $-1 0 -17.987223381310592 -10.058689488011456 0 -1 0 0 0 -1 forward_v I I I I #
coedge $-1 $112 $113 $114 $115 reversed $44 $-1 #
face $-1 $116 $117 $26 $-1 $118 reversed single #
loop $-1 $-1 $119 $46 #
plane-surface $-1 1.2078700706297241e-006 -12.6698626962053 82.972188430991409 0.86602541151947299 0 0.49999998660252726 0.49999998660252726 0 -0.86602541151947299 forward_v I I I I #
coedge $-1 $120 $121 $122 $123 reversed $47 $-1 #
face $-1 $-1 $124 $27 $-1 $125 forward single #
loop $-1 $126 $127 $49 #
cone-surface $-1 41.087474802315569 -14.948731561250423 8.2622048012583136 -0.86602541151947299 0 -0.49999998660252726 0.24999999330126363 0 -0.43301270575973649 1 I I -0.70710678118654746 0.70710678118654746 0.5 forward I I I I #
loop $-1 $-1 $128 $35 #
coedge $-1 $80 $80 $129 $130 reversed $50 $-1 #
face $-1 $-1 $131 $28 $-1 $132 forward single #
loop $-1 $133 $134 $52 #
cone-surface $-1 41.087474802315569 -10.390993831160173 8.2622048012583136 -0.86602541151947299 0 -0.49999998660252726 0.24999999330126363 0 -0.43301270575973649 1 I I -0.70710678118654746 0.70710678118654746 0.5 forward I I I I #
loop $-1 $-1 $135 $36 #
coedge $-1 $85 $85 $136 $137 reversed $53 $-1 #
face $-1 $138 $139 $29 $-1 $140 reversed single #
loop $-1 $-1 $141 $55 #
plane-surface $-1 -45.078279976805923 25.837056713684852 1.3314369452007213 -0.57357644374324357 0 0.81915203911291934 0.81915203911291934 0 0.57357644374324357 forward_v I I I I #
coedge $-1 $142 $143 $144 $145 reversed $56 $-1 #
face $-1 $-1 $146 $30 $-1 $147 forward single #
loop $-1 $148 $149 $58 #
cone-surface $-1 -35.813525959802092 24.519150266145182 6.4453162511295972 0.57357644374324357 0 -0.81915203911291934 0.10239400488911492 0 0.071697055467905446 1 I I -0.70710678118654746 0.70710678118654746 0.125 forward I I I I #
loop $-1 $-1 $150 $38 #
coedge $-1 $94 $94 $151 $152 reversed $59 $-1 #
face $-1 $-1 $153 $31 $-1 $154 forward single #
loop $-1 $155 $156 $61 #
cone-surface $-1 -35.813525959802092 27.154963161224515 6.4453162511295972 0.57357644374324357 0 -0.81915203911291934 0.10239400488911492 0 0.071697055467905446 1 I I -0.70710678118654746 0.70710678118654746 0.125 forward I I I I #
loop $-1 $-1 $157 $39 #
coedge $-1 $99 $99 $158 $159 reversed $62 $-1 #
face $-1 $160 $161 $24 $-1 $162 reversed single #
loop $-1 $-1 $163 $64 #
plane-surface $-1 0 -28.912171757944073 0 0 1 0 0 0 1 forward_v I I I I #
coedge $-1 $164 $165 $166 $167 forward $65 $-1 #
coedge $-1 $168 $67 $169 $170 forward $41 $-1 #
coedge $-1 $67 $168 $171 $172 forward $41 $-1 #
coedge $-1 $173 $174 $67 $107 reversed $175 $-1 #
edge $-1 $176 -28.912171757944073 $177 28.912171757944073 $106 $178 forward 7 unknown #
face $-1 $179 $180 $25 $-1 $181 reversed single #
loop $-1 $-1 $182 $68 #
plane-surface $-1 0 0 -13.402287645062536 0 0 1 1 0 0 forward_v I I I I #
coedge $-1 $183 $184 $185 $186 reversed $69 $-1 #
coedge $-1 $187 $71 $184 $188 forward $44 $-1 #
coedge $-1 $71 $187 $189 $190 reversed $44 $-1 #
coedge $-1 $191 $185 $71 $115 forward $180 $-1 #
edge $-1 $192 6.262374596496926 $193 17.187322973130406 $114 $194 forward 7 unknown #
face $-1 $195 $196 $26 $-1 $197 reversed single #
loop $-1 $-1 $198 $72 #
plane-surface $-1 78.077873142876825 -17.987223381310592 128.05046719992728 0 1 0 0.86602541151947299 0 0.49999998660252726 forward_v I I I I #
coedge $-1 $199 $200 $201 $202 reversed $73 $-1 #
coedge $-1 $121 $75 $203 $204 reversed $47 $-1 #
coedge $-1 $75 $120 $199 $205 reversed $47 $-1 #
coedge $-1 $201 $206 $75 $123 forward $207 $-1 #
edge $-1 $208 -6.0393434053675179 $209 -1.1272641476817142 $122 $210 forward 7 unknown #
loop $-1 $-1 $129 $76 #
plane-surface $-1 1.2078700706297241e-006 -12.6698626962053 82.972188430991409 0.86602541151947299 0 0.49999998660252726 0.49999998660252726 0 -0.86602541151947299 forward_v I I I I #
loop $-1 $-1 $211 $49 #
coedge $-1 $127 $127 $128 $212 reversed $77 $-1 #
coedge $-1 $128 $128 $127 $212 forward $79 $-1 #
coedge $-1 $129 $129 $80 $130 forward $124 $-1 #
edge $-1 $213 0 $213 6.2831853071796004 $129 $214 forward 7 unknown #
loop $-1 $-1 $136 $81 #
plane-surface $-1 1.2078700706297241e-006 -12.6698626962053 82.972188430991409 0.86602541151947299 0 0.49999998660252726 0.49999998660252726 0 -0.86602541151947299 forward_v I I I I #
loop $-1 $-1 $215 $52 #
coedge $-1 $134 $134 $135 $216 reversed $82 $-1 #
coedge $-1 $135 $135 $134 $216 forward $84 $-1 #
coedge $-1 $136 $136 $85 $137 forward $131 $-1 #
edge $-1 $217 0 $217 6.2831853071796004 $136 $218 forward 7 unknown #
face $-1 $219 $220 $29 $-1 $221 reversed single #
loop $-1 $-1 $222 $86 #
plane-surface $-1 0 28.912171757944073 0 0 -1 0 0 0 -1 forward_v I I I I #
coedge $-1 $223 $224 $225 $226 reversed $87 $-1 #
coedge $-1 $143 $89 $227 $228 reversed $56 $-1 #
coedge $-1 $89 $142 $223 $229 reversed $56 $-1 #
coedge $-1 $225 $230 $89 $145 forward $231 $-1 #
edge $-1 $232 3.3166995307556419 $233 20.555660566341047 $144 $234 forward 7 unknown #
loop $-1 $-1 $151 $90 #
plane-surface $-1 -45.078279976805923 25.837056713684852 1.3314369452007213 -0.57357644374324357 0 0.81915203911291934 0.81915203911291934 0 0.57357644374324357 forward_v I I I I #
loop $-1 $-1 $235 $58 #
coedge $-1 $149 $149 $150 $236 reversed $91 $-1 #
coedge $-1 $150 $150 $149 $236 forward $93 $-1 #
coedge $-1 $151 $151 $94 $152 forward $146 $-1 #
edge $-1 $237 0 $237 6.2831853071796004 $151 $238 forward 7 unknown #
loop $-1 $-1 $158 $95 #
plane-surface $-1 -45.078279976805923 25.837056713684852 1.3314369452007213 -0.57357644374324357 0 0.81915203911291934 0.81915203911291934 0 0.57357644374324357 forward_v I I I I #
loop $-1 $-1 $239 $61 #
coedge $-1 $156 $156 $157 $240 reversed $96 $-1 #
coedge $-1 $157 $157 $156 $240 forward $98 $-1 #
coedge $-1 $158 $158 $99 $159 forward $153 $-1 #
edge $-1 $241 0 $241 6.2831853071796004 $158 $242 forward 7 unknown #
face $-1 $243 $244 $24 $-1 $245 reversed single #
loop $-1 $-1 $246 $100 #
plane-surface $-1 -45.078279976805931 0 0 1 0 0 0 0 -1 forward_v I I I I #
coedge $-1 $247 $171 $248 $249 forward $101 $-1 #
coedge $-1 $250 $103 $247 $251 forward $65 $-1 #
coedge $-1 $103 $250 $252 $253 forward $65 $-1 #
coedge $-1 $174 $173 $103 $167 reversed $175 $-1 #
edge $-1 $254 -28.912171757944073 $255 28.912171757944073 $166 $256 forward 7 unknown #
coedge $-1 $105 $104 $257 $258 forward $41 $-1 #
coedge $-1 $259 $260 $104 $170 reversed $244 $-1 #
edge $-1 $177 -45.078279976805931 $261 45.078279976805931 $169 $262 forward 7 unknown #
coedge $-1 $163 $263 $105 $172 reversed $101 $-1 #
edge $-1 $264 -45.078279976805931 $176 45.078279976805931 $171 $265 forward 7 unknown #
coedge $-1 $166 $106 $263 $266 forward $175 $-1 #
coedge $-1 $106 $166 $259 $267 reversed $175 $-1 #
loop $-1 $-1 $173 $243 #
vertex $-1 $107 $268 #
vertex $-1 $107 $269 #
straight-curve $-1 45.078279976805931 0 13.402287645062536 0 1 0 I I #
face $-1 $270 $271 $25 $-1 $272 reversed single #
loop $-1 $-1 $185 $108 #
plane-surface $-1 45.078279976805931 0 0 -1 0 0 0 0 1 forward_v I I I I #
coedge $-1 $273 $274 $183 $275 forward $109 $-1 #
coedge $-1 $276 $111 $182 $275 reversed $69 $-1 #
coedge $-1 $111 $276 $112 $188 reversed $69 $-1 #
coedge $-1 $114 $277 $111 $186 forward $180 $-1 #
edge $-1 $278 -8.3729429010568079 $192 -1.6857465869546493 $185 $279 forward 7 unknown #
coedge $-1 $113 $112 $280 $281 reversed $44 $-1 #
edge $-1 $192 -45.078279976805931 $282 45.078279976805931 $184 $283 forward 7 unknown #
coedge $-1 $284 $285 $113 $190 forward $271 $-1 #
edge $-1 $193 -45.078279976805931 $286 45.078279976805931 $189 $287 forward 7 unknown #
coedge $-1 $277 $114 $285 $288 forward $180 $-1 #
vertex $-1 $115 $289 #
vertex $-1 $288 $290 #
straight-curve $-1 45.078279976805931 -11.724848784813666 -6.7150913309603775 0 -1 0 I I #
face $-1 $-1 $207 $26 $-1 $291 forward single #
loop $-1 $-1 $292 $116 #
plane-surface $-1 45.078279976805931 0 0 -1 0 0 0 0 1 forward_v I I I I #
coedge $-1 $293 $294 $295 $296 reversed $117 $-1 #
coedge $-1 $297 $119 $121 $205 forward $73 $-1 #
coedge $-1 $119 $297 $293 $298 forward $73 $-1 #
coedge $-1 $295 $122 $119 $202 forward $207 $-1 #
edge $-1 $209 1.0175706629973593 $299 11.652292033207942 $201 $300 forward 7 unknown #
coedge $-1 $301 $302 $120 $204 forward $196 $-1 #
edge $-1 $303 -59.130917103978959 $208 -50.622945954901105 $203 $304 forward 7 unknown #
edge $-1 $209 80.332401175002417 $303 90.156559953611833 $121 $305 forward 7 unknown #
coedge $-1 $122 $295 $301 $306 forward $207 $-1 #
loop $-1 $-1 $295 $195 #
vertex $-1 $204 $307 #
vertex $-1 $123 $308 #
straight-curve $-1 39.038936571438413 -7.3525020111000092 13.402287645062536 -1 0 0 I I #
coedge $-1 $211 $211 $-1 $309 reversed $126 $-1 #
edge $-1 $310 0 $310 6.2831853071796004 $127 $311 forward 7 unknown #
vertex $-1 $130 $312 #
ellipse-curve $-1 42.622240347963036 -14.948731561250423 9.1483020705236058 0.86602541151947299 0 0.49999998660252726 0.49999998660252726 0 -0.86602541151947299 1 I I #
coedge $-1 $215 $215 $-1 $313 reversed $133 $-1 #
edge $-1 $314 0 $314 6.2831853071796004 $134 $315 forward 7 unknown #
vertex $-1 $137 $316 #
ellipse-curve $-1 42.622240347963036 -10.390993831160173 9.1483020705236058 0.86602541151947299 0 0.49999998660252726 0.49999998660252726 0 -0.86602541151947299 1 I I #
face $-1 $-1 $231 $29 $-1 $317 forward single #
loop $-1 $-1 $318 $138 #
plane-surface $-1 -45.078279976805931 0 0 1 0 0 0 0 -1 forward_v I I I I #
coedge $-1 $319 $320 $224 $321 forward $139 $-1 #
coedge $-1 $322 $141 $143 $229 forward $87 $-1 #
coedge $-1 $141 $322 $222 $321 reversed $87 $-1 #
coedge $-1 $323 $144 $141 $226 forward $231 $-1 #
edge $-1 $233 9.8434133125832055 $324 15.993643401101647 $225 $325 forward 7 unknown #
coedge $-1 $326 $318 $142 $228 forward $220 $-1 #
edge $-1 $327 -36.260246490103306 $232 -24.189395790241484 $227 $328 forward 7 unknown #
edge $-1 $233 -21.044885701870324 $327 8.6223355153435888e-015 $143 $329 forward 7 unknown #
coedge $-1 $144 $323 $326 $330 forward $231 $-1 #
loop $-1 $-1 $225 $219 #
vertex $-1 $228 $331 #
vertex $-1 $145 $332 #
straight-curve $-1 -48.394979507561573 22.761941669425632 13.402287645062536 1 0 0 I I #
coedge $-1 $235 $235 $-1 $333 reversed $148 $-1 #
edge $-1 $334 0 $334 6.2831853071796004 $149 $335 forward 7 unknown #
vertex $-1 $152 $336 #
ellipse-curve $-1 -36.458799459013235 24.519150266145182 7.3668622951316234 -0.57357644374324357 0 0.81915203911291934 0.20478800977822983 0 0.14339411093581089 1 I I #
coedge $-1 $239 $239 $-1 $337 reversed $155 $-1 #
edge $-1 $338 0 $338 6.2831853071796004 $156 $339 forward 7 unknown #
vertex $-1 $159 $340 #
ellipse-curve $-1 -36.458799459013235 27.154963161224515 7.3668622951316234 -0.57357644374324357 0 0.81915203911291934 0.20478800977822983 0 0.14339411093581089 1 I I #
face $-1 $-1 $175 $24 $-1 $341 reversed single #
loop $-1 $-1 $259 $160 #
plane-surface $-1 0 28.912171757944073 0 0 -1 0 0 0 -1 forward_v I I I I #
coedge $-1 $342 $257 $260 $343 forward $161 $-1 #
coedge $-1 $263 $163 $164 $251 reversed $101 $-1 #
coedge $-1 $257 $342 $163 $249 reversed $161 $-1 #
edge $-1 $264 -13.402287645062536 $344 13.402287645062536 $248 $345 forward 7 unknown #
coedge $-1 $165 $164 $342 $346 forward $65 $-1 #
edge $-1 $255 -45.078279976805931 $344 45.078279976805931 $247 $347 forward 7 unknown #
coedge $-1 $260 $259 $165 $253 reversed $244 $-1 #
edge $-1 $348 -45.078279976805931 $254 45.078279976805931 $252 $349 forward 7 unknown #
vertex $-1 $167 $350 #
vertex $-1 $266 $351 #
straight-curve $-1 45.078279976805931 0 -13.402287645062536 0 -1 0 I I #
coedge $-1 $246 $248 $168 $258 reversed $161 $-1 #
edge $-1 $261 -28.912171757944073 $264 28.912171757944073 $257 $352 forward 7 unknown #
coedge $-1 $252 $169 $174 $267 forward $244 $-1 #
coedge $-1 $169 $252 $246 $343 reversed $244 $-1 #
vertex $-1 $170 $353 #
straight-curve $-1 0 28.912171757944073 13.402287645062536 -1 0 0 I I #
coedge $-1 $171 $247 $173 $266 reversed $101 $-1 #
vertex $-1 $258 $354 #
straight-curve $-1 0 -28.912171757944073 13.402287645062536 1 0 0 I I #
edge $-1 $176 -13.402287645062536 $255 13.402287645062536 $173 $355 forward 7 unknown #
edge $-1 $177 -13.402287645062536 $254 13.402287645062536 $174 $356 forward 7 unknown #
point $-1 45.078279976805931 -28.912171757944073 13.402287645062536 #
point $-1 45.078279976805931 28.912171757944073 13.402287645062536 #
face $-1 $-1 $357 $25 $-1 $358 reversed single #
loop $-1 $-1 $189 $179 #
plane-surface $-1 0 -28.912171757944073 0 0 1 0 0 0 1 forward_v I I I I #
coedge $-1 $359 $182 $277 $360 forward $109 $-1 #
coedge $-1 $182 $359 $361 $362 forward $109 $-1 #
edge $-1 $363 -45.078279976805931 $278 45.078279976805931 $182 $364 forward 7 unknown #
coedge $-1 $184 $183 $365 $366 reversed $69 $-1 #
coedge $-1 $185 $191 $273 $360 reversed $180 $-1 #
vertex $-1 $360 $367 #
straight-curve $-1 45.078279976805931 -17.987223381310592 -5.0293447440057282 0 0 1 I I #
coedge $-1 $365 $368 $187 $281 forward $357 $-1 #
edge $-1 $286 -17.187322973130406 $282 -6.262374596496926 $280 $369 forward 7 unknown #
vertex $-1 $281 $370 #
straight-curve $-1 0 -17.987223381310592 -6.7150913309603775 -1 0 0 I I #
coedge $-1 $371 $189 $368 $372 forward $271 $-1 #
coedge $-1 $189 $371 $191 $288 reversed $271 $-1 #
vertex $-1 $372 $373 #
straight-curve $-1 0 -28.912171757944073 -6.7150913309603775 -1 0 0 I I #
edge $-1 $193 6.7150913309603775 $374 13.402287645062536 $191 $375 forward 7 unknown #
point $-1 45.078279976805931 -17.987223381310592 -6.7150913309603775 #
point $-1 45.078279976805931 -28.912171757944073 -6.7150913309603775 #
plane-surface $-1 0 0 13.402287645062536 0 0 1 1 0 0 forward_v I I I I #
coedge $-1 $302 $301 $294 $376 forward $196 $-1 #
coedge $-1 $294 $198 $200 $298 reversed $117 $-1 #
coedge $-1 $198 $293 $292 $376 reversed $117 $-1 #
coedge $-1 $206 $201 $198 $296 forward $207 $-1 #
edge $-1 $299 1.1272641476817142 $377 6.0393434053675179 $295 $378 forward 7 unknown #
coedge $-1 $200 $199 $302 $379 reversed $73 $-1 #
edge $-1 $380 -90.156559953611833 $299 -80.332401175002417 $293 $381 forward 7 unknown #
vertex $-1 $202 $382 #
straight-curve $-1 40.166200719120127 -6.3349313481026499 13.402287645062529 0 -1 0 I I #
coedge $-1 $292 $203 $206 $306 reversed $196 $-1 #
coedge $-1 $203 $292 $297 $379 forward $196 $-1 #
vertex $-1 $204 $383 #
straight-curve $-1 45.078279976805931 -7.3525020111000092 64.025233599963641 0 0 1 I I #
straight-curve $-1 1.2078700706297241e-006 -7.3525020111000092 82.972188430991409 0.49999998660252726 0 -0.86602541151947299 I I #
edge $-1 $377 -17.987223381310592 $208 -7.3525020111000092 $301 $384 forward 7 unknown #
point $-1 45.078279976805931 -7.3525020111000092 13.402287645062536 #
point $-1 40.166200719120127 -7.3525020111000092 13.402287645062543 #
edge $-1 $385 1 $385 0 $211 $-1 forward 7 unknown #
vertex $-1 $212 $386 #
ellipse-curve $-1 41.520487508075306 -14.948731561250423 8.5122047945595778 0.86602541151947299 0 0.49999998660252726 0.49999998660252726 0 -0.86602541151947299 1 I I #
point $-1 43.122240334565547 -14.948731561250423 8.2822766590041219 #
edge $-1 $387 1 $387 0 $215 $-1 forward 7 unknown #
vertex $-1 $216 $388 #
ellipse-curve $-1 41.520487508075306 -10.390993831160173 8.5122047945595778 0.86602541151947299 0 0.49999998660252726 0.49999998660252726 0 -0.86602541151947299 1 I I #
point $-1 43.122240334565547 -10.390993831160173 8.2822766590041219 #
plane-surface $-1 0 0 13.402287645062536 0 0 1 1 0 0 forward_v I I I I #
coedge $-1 $227 $389 $322 $390 forward $220 $-1 #
coedge $-1 $320 $222 $389 $391 reversed $139 $-1 #
coedge $-1 $222 $319 $323 $392 reversed $139 $-1 #
edge $-1 $324 -2.9637436545667972 $393 18.081142047303537 $222 $394 forward 7 unknown #
coedge $-1 $224 $223 $318 $390 reversed $87 $-1 #
coedge $-1 $230 $225 $320 $392 forward $231 $-1 #
vertex $-1 $392 $395 #
straight-curve $-1 -27.83931894122053 12.918528356842426 13.402287645062536 0 1 0 I I #
coedge $-1 $389 $227 $230 $330 reversed $220 $-1 #
vertex $-1 $228 $396 #
straight-curve $-1 -45.078279976805931 22.761941669425632 37.59168343530402 0 0 1 I I #
straight-curve $-1 -45.078279976805923 22.761941669425632 1.3314369452007213 -0.81915203911291934 0 -0.57357644374324357 I I #
edge $-1 $397 -28.912171757944073 $232 -22.761941669425632 $326 $398 forward 7 unknown #
point $-1 -45.078279976805931 22.761941669425632 13.402287645062536 #
point $-1 -27.839318941220526 22.761941669425632 13.402287645062536 #
edge $-1 $399 1 $399 0 $235 $-1 forward 7 unknown #
vertex $-1 $236 $400 #
ellipse-curve $-1 -35.88522301527 24.519150266145182 6.5477102560187124 -0.57357644374324357 0 0.81915203911291934 0.20478800977822983 0 0.14339411093581089 1 I I #
point $-1 -36.254011449235009 24.519150266145182 7.5102564060674428 #
edge $-1 $401 1 $401 0 $239 $-1 forward 7 unknown #
vertex $-1 $240 $402 #
ellipse-curve $-1 -35.88522301527 27.154963161224515 6.5477102560187124 -0.57357644374324357 0 0.81915203911291934 0.20478800977822983 0 0.14339411093581089 1 I I #
point $-1 -36.254011449235009 27.154963161224515 7.5102564060674428 #
plane-surface $-1 45.078279976805931 0 0 -1 0 0 0 0 1 forward_v I I I I #
coedge $-1 $248 $246 $250 $346 reversed $161 $-1 #
edge $-1 $261 -13.402287645062536 $348 13.402287645062536 $260 $403 forward 7 unknown #
vertex $-1 $346 $404 #
straight-curve $-1 -45.078279976805931 -28.912171757944073 0 0 0 -1 I I #
edge $-1 $344 -28.912171757944073 $348 28.912171757944073 $342 $405 forward 7 unknown #
straight-curve $-1 0 -28.912171757944073 -13.402287645062536 -1 0 0 I I #
vertex $-1 $253 $406 #
straight-curve $-1 0 28.912171757944073 -13.402287645062536 1 0 0 I I #
point $-1 45.078279976805931 28.912171757944073 -13.402287645062536 #
point $-1 45.078279976805931 -28.912171757944073 -13.402287645062536 #
straight-curve $-1 -45.078279976805931 0 13.402287645062536 0 -1 0 I I #
point $-1 -45.078279976805931 28.912171757944073 13.402287645062536 #
point $-1 -45.078279976805931 -28.912171757944073 13.402287645062536 #
straight-curve $-1 45.078279976805931 -28.912171757944073 0 0 0 -1 I I #
straight-curve $-1 45.078279976805931 28.912171757944073 0 0 0 -1 I I #
loop $-1 $-1 $365 $270 #
plane-surface $-1 -45.078279976805931 0 0 1 0 0 0 0 -1 forward_v I I I I #
coedge $-1 $274 $273 $371 $407 forward $109 $-1 #
edge $-1 $278 17.987223381310592 $374 28.912171757944073 $277 $408 forward 7 unknown #
coedge $-1 $368 $365 $274 $362 reversed $357 $-1 #
edge $-1 $409 -28.912171757944073 $363 -17.987223381310592 $361 $410 forward 7 unknown #
vertex $-1 $366 $411 #
straight-curve $-1 0 -17.987223381310592 -13.402287645062536 1 0 0 I I #
coedge $-1 $361 $280 $276 $366 forward $357 $-1 #
edge $-1 $282 1.6857465869546493 $363 8.3729429010568079 $365 $412 forward 7 unknown #
point $-1 45.078279976805931 -17.987223381310592 -13.402287645062536 #
coedge $-1 $280 $361 $284 $372 reversed $357 $-1 #
straight-curve $-1 -45.078279976805931 -11.724848784813666 -6.7150913309603775 0 1 0 I I #
point $-1 -45.078279976805931 -17.987223381310592 -6.7150913309603775 #
coedge $-1 $285 $284 $359 $407 reversed $271 $-1 #
edge $-1 $286 6.7150913309603775 $409 13.402287645062536 $368 $413 forward 7 unknown #
point $-1 -45.078279976805931 -28.912171757944073 -6.7150913309603775 #
vertex $-1 $288 $414 #
straight-curve $-1 45.078279976805931 -28.912171757944073 0 0 0 -1 I I #
edge $-1 $377 50.622945954901105 $380 59.130917103978959 $292 $415 forward 7 unknown #
vertex $-1 $306 $416 #
straight-curve $-1 39.038936571438413 -17.987223381310592 13.402287645062536 1 0 0 I I #
edge $-1 $380 -11.652292033207942 $303 -1.0175706629973593 $302 $417 forward 7 unknown #
vertex $-1 $379 $418 #
straight-curve $-1 1.2078700706297241e-006 -17.987223381310592 82.972188430991409 -0.49999998660252726 0 0.86602541151947299 I I #
point $-1 40.166200719120127 -17.987223381310592 13.402287645062543 #
point $-1 45.078279976805931 -7.3525020111000092 4.8943164959846825 #
straight-curve $-1 45.078279976805931 0 13.402287645062536 0 1 0 I I #
vertex $-1 $309 $419 #
point $-1 42.02048749467783 -14.948731561250423 7.6461793830401046 #
vertex $-1 $313 $420 #
point $-1 42.02048749467783 -10.390993831160173 7.6461793830401046 #
coedge $-1 $318 $326 $319 $391 forward $220 $-1 #
edge $-1 $393 -15.993643401101647 $327 -9.8434133125832055 $318 $421 forward 7 unknown #
edge $-1 $397 -13.402287645062536 $393 -1.3314369452007164 $319 $422 forward 7 unknown #
edge $-1 $324 27.839318941220526 $397 45.078279976805931 $320 $423 forward 7 unknown #
vertex $-1 $321 $424 #
straight-curve $-1 -30.267075599266896 28.912171757944073 11.702354099509511 -0.81915203911291934 0 -0.57357644374324357 I I #
point $-1 -27.839318941220526 28.912171757944073 13.402287645062536 #
point $-1 -45.078279976805931 22.761941669425632 1.3314369452007164 #
vertex $-1 $392 $425 #
straight-curve $-1 -45.078279976805931 0 13.402287645062536 0 -1 0 I I #
vertex $-1 $333 $426 #
point $-1 -35.680435005491766 24.519150266145182 6.6911043669545229 #
vertex $-1 $337 $427 #
point $-1 -35.680435005491766 27.154963161224515 6.6911043669545229 #
straight-curve $-1 -45.078279976805931 28.912171757944073 0 0 0 -1 I I #
point $-1 -45.078279976805931 -28.912171757944073 -13.402287645062536 #
straight-curve $-1 -45.078279976805931 0 -13.402287645062536 0 1 0 I I #
point $-1 -45.078279976805931 28.912171757944073 -13.402287645062536 #
edge $-1 $374 -45.078279976805931 $409 45.078279976805931 $371 $428 forward 7 unknown #
straight-curve $-1 45.078279976805931 0 -13.402287645062536 0 -1 0 I I #
vertex $-1 $362 $429 #
straight-curve $-1 -45.078279976805931 0 -13.402287645062536 0 1 0 I I #
point $-1 -45.078279976805931 -17.987223381310592 -13.402287645062536 #
straight-curve $-1 -45.078279976805931 -17.987223381310592 -5.0293447440057282 0 0 -1 I I #
straight-curve $-1 -45.078279976805931 -28.912171757944073 0 0 0 -1 I I #
point $-1 45.078279976805931 -28.912171757944073 -13.402287645062536 #
straight-curve $-1 45.078279976805931 -17.987223381310592 64.025233599963641 0 0 -1 I I #
point $-1 45.078279976805931 -17.987223381310592 13.402287645062536 #
straight-curve $-1 45.078279976805931 -6.3349313481026499 4.8943164959846825 0 1 0 I I #
point $-1 45.078279976805931 -17.987223381310592 4.8943164959846825 #
point $-1 40.654462096555832 -14.948731561250423 8.0122048079570494 #
point $-1 40.654462096555832 -10.390993831160173 8.0122048079570494 #
straight-curve $-1 -45.078279976805931 12.918528356842426 1.331436945200718 0 -1 0 I I #
straight-curve $-1 -45.078279976805931 28.912171757944073 0 0 0 -1 I I #
straight-curve $-1 0 28.912171757944073 13.402287645062536 -1 0 0 I I #
point $-1 -45.078279976805931 28.912171757944073 1.3314369452007164 #
point $-1 -45.078279976805931 28.912171757944073 13.402287645062536 #
point $-1 -35.741828904334184 24.519150266145182 6.342922246240482 #
point $-1 -35.741828904334184 27.154963161224515 6.342922246240482 #
straight-curve $-1 0 -28.912171757944073 -13.402287645062536 -1 0 0 I I #
point $-1 -45.078279976805931 -28.912171757944073 -13.402287645062536 #
End-of-ACIS-data 