500 0 11 0           
7 Unknown 11 ACIS 5.0 NT 24 Fri Mar 26 00:31:36 1999 
-1 9.9999999999999995e-007 1e-010 
body $-1 $11 $-1 $12 #
body $-1 $13 $-1 $14 #
body $-1 $15 $-1 $16 #
body $-1 $17 $-1 $18 #
body $-1 $19 $-1 $20 #
body $-1 $21 $-1 $22 #
body $-1 $23 $-1 $24 #
body $-1 $25 $-1 $26 #
body $-1 $27 $-1 $28 #
body $-1 $29 $-1 $30 #
body $-1 $31 $-1 $32 #
lump $-1 $-1 $33 $0 #
transform $-1 1 0 0 0 1 0 0 0 1 43.468123416852322 26.413713558314409 11.612699244658392 1 rotate no_reflect no_shear #
lump $-1 $-1 $34 $1 #
transform $-1 1 0 0 0 1 0 0 0 1 -6.6577691844606015 1.5 11.612699244658392 1 rotate no_reflect no_shear #
lump $-1 $-1 $35 $2 #
transform $-1 1 0 0 0 1 0 0 0 1 93.594016018165249 1.5 11.612699244658392 1 rotate no_reflect no_shear #
lump $-1 $-1 $36 $3 #
transform $-1 1 0 0 0 0.54463902268945019 0.83867057594974714 0 -0.83867057594974714 0.54463902268945019 24.526880920964132 -72.910872202932453 63.391853618351206 1 rotate no_reflect no_shear #
lump $-1 $-1 $37 $4 #
transform $-1 1 0 0 0 -0.54463902268945019 -0.83867057594974714 0 0.83867057594974714 -0.54463902268945019 20.651307059648868 3.8805645786091461 18.628642917350035 1 rotate no_reflect no_shear #
lump $-1 $-1 $38 $5 #
transform $-1 1 0 0 0 -0.54463902268945019 -0.83867057594974714 0 0.83867057594974714 -0.54463902268945019 24.526880920964128 3.8805645786091461 18.628642917350035 1 rotate no_reflect no_shear #
lump $-1 $-1 $39 $6 #
transform $-1 1 0 0 0 -0.54463902268945019 -0.83867057594974714 0 0.83867057594974714 -0.54463902268945019 28.402454782279388 3.8805645786091461 18.628642917350035 1 rotate no_reflect no_shear #
lump $-1 $-1 $40 $7 #
transform $-1 1 0 0 0 0.54463902268945019 0.83867057594974714 0 -0.83867057594974714 0.54463902268945019 62.409365912740512 -72.910872202932453 63.391853618351206 1 rotate no_reflect no_shear #
lump $-1 $-1 $41 $8 #
transform $-1 1 0 0 0 -0.54463902268945019 -0.83867057594974714 0 0.83867057594974714 -0.54463902268945019 58.533792051425252 3.8805645786091461 18.628642917350035 1 rotate no_reflect no_shear #
lump $-1 $-1 $42 $9 #
transform $-1 1 0 0 0 -0.54463902268945019 -0.83867057594974714 0 0.83867057594974714 -0.54463902268945019 62.409365912740512 3.8805645786091461 18.628642917350035 1 rotate no_reflect no_shear #
lump $-1 $-1 $43 $10 #
transform $-1 1 0 0 0 -0.54463902268945019 -0.83867057594974714 0 0.83867057594974714 -0.54463902268945019 66.284939774055772 3.8805645786091461 18.628642917350035 1 rotate no_reflect no_shear #
shell $-1 $-1 $-1 $44 $-1 $11 #
shell $-1 $-1 $-1 $45 $-1 $13 #
shell $-1 $-1 $-1 $46 $-1 $15 #
shell $-1 $-1 $-1 $47 $-1 $17 #
shell $-1 $-1 $-1 $48 $-1 $19 #
shell $-1 $-1 $-1 $49 $-1 $21 #
shell $-1 $-1 $-1 $50 $-1 $23 #
shell $-1 $-1 $-1 $51 $-1 $25 #
shell $-1 $-1 $-1 $52 $-1 $27 #
shell $-1 $-1 $-1 $53 $-1 $29 #
shell $-1 $-1 $-1 $54 $-1 $31 #
face $-1 $55 $56 $33 $-1 $57 forward single #
face $-1 $58 $59 $34 $-1 $60 forward single #
face $-1 $61 $62 $35 $-1 $63 forward single #
face $-1 $64 $65 $36 $-1 $66 forward single #
face $-1 $67 $68 $37 $-1 $69 forward single #
face $-1 $70 $71 $38 $-1 $72 forward single #
face $-1 $73 $74 $39 $-1 $75 forward single #
face $-1 $76 $77 $40 $-1 $78 forward single #
face $-1 $79 $80 $41 $-1 $81 forward single #
face $-1 $82 $83 $42 $-1 $84 forward single #
face $-1 $85 $86 $43 $-1 $87 forward single #
face $-1 $88 $89 $33 $-1 $90 reversed single #
loop $-1 $-1 $91 $44 #
plane-surface $-1 0 0 11.612699244658392 0 0 1 1 0 0 forward_v I I I I #
face $-1 $92 $93 $34 $-1 $94 reversed single #
loop $-1 $-1 $95 $45 #
plane-surface $-1 0 0 11.612699244658392 0 0 1 1 0 0 forward_v I I I I #
face $-1 $96 $97 $35 $-1 $98 reversed single #
loop $-1 $-1 $99 $46 #
plane-surface $-1 0 0 11.612699244658392 0 0 1 1 0 0 forward_v I I I I #
face $-1 $100 $101 $36 $-1 $102 reversed single #
loop $-1 $-1 $103 $47 #
plane-surface $-1 0 0 86.936246833704644 0 0 1 1 0 0 forward_v I I I I #
face $-1 $104 $105 $37 $-1 $106 forward single #
loop $-1 $107 $108 $48 #
cone-surface $-1 0 0 -1.1731315042573325 0 0 1 1 0 0 1 I I 0 1 1 forward I I I I #
face $-1 $109 $110 $38 $-1 $111 forward single #
loop $-1 $112 $113 $49 #
cone-surface $-1 0 0 -1.1731315042573325 0 0 1 1 0 0 1 I I 0 1 1 forward I I I I #
face $-1 $114 $115 $39 $-1 $116 forward single #
loop $-1 $117 $118 $50 #
cone-surface $-1 0 0 -1.1731315042573325 0 0 1 1 0 0 1 I I 0 1 1 forward I I I I #
face $-1 $119 $120 $40 $-1 $121 reversed single #
loop $-1 $-1 $122 $51 #
plane-surface $-1 0 0 86.936246833704644 0 0 1 1 0 0 forward_v I I I I #
face $-1 $123 $124 $41 $-1 $125 forward single #
loop $-1 $126 $127 $52 #
cone-surface $-1 0 0 -1.1731315042573325 0 0 1 1 0 0 1 I I 0 1 1 forward I I I I #
face $-1 $128 $129 $42 $-1 $130 forward single #
loop $-1 $131 $132 $53 #
cone-surface $-1 0 0 -1.1731315042573325 0 0 1 1 0 0 1 I I 0 1 1 forward I I I I #
face $-1 $133 $134 $43 $-1 $135 forward single #
loop $-1 $136 $137 $54 #
cone-surface $-1 0 0 -1.1731315042573325 0 0 1 1 0 0 1 I I 0 1 1 forward I I I I #
face $-1 $138 $139 $33 $-1 $140 reversed single #
loop $-1 $-1 $141 $55 #
plane-surface $-1 0 0 -11.612699244658392 0 0 1 1 0 0 forward_v I I I I #
coedge $-1 $142 $143 $144 $145 forward $56 $-1 #
face $-1 $146 $147 $34 $-1 $148 reversed single #
loop $-1 $-1 $149 $58 #
plane-surface $-1 0 0 -11.612699244658392 0 0 1 1 0 0 forward_v I I I I #
coedge $-1 $150 $151 $152 $153 forward $59 $-1 #
face $-1 $154 $155 $35 $-1 $156 reversed single #
loop $-1 $-1 $157 $61 #
plane-surface $-1 0 0 -11.612699244658392 0 0 1 1 0 0 forward_v I I I I #
coedge $-1 $158 $159 $160 $161 forward $62 $-1 #
face $-1 $162 $163 $36 $-1 $164 reversed single #
loop $-1 $-1 $165 $64 #
plane-surface $-1 0 0 -86.936246833704644 0 0 1 1 0 0 forward_v I I I I #
coedge $-1 $166 $167 $168 $169 forward $65 $-1 #
face $-1 $-1 $170 $37 $-1 $171 forward single #
loop $-1 $-1 $172 $67 #
plane-surface $-1 0 0 -1.846263008514665 0 0 -1 -1 0 0 forward_v I I I I #
loop $-1 $-1 $173 $48 #
coedge $-1 $108 $108 $172 $174 reversed $68 $-1 #
face $-1 $-1 $175 $38 $-1 $176 forward single #
loop $-1 $-1 $177 $70 #
plane-surface $-1 0 0 -1.846263008514665 0 0 -1 -1 0 0 forward_v I I I I #
loop $-1 $-1 $178 $49 #
coedge $-1 $113 $113 $177 $179 reversed $71 $-1 #
face $-1 $-1 $180 $39 $-1 $181 forward single #
loop $-1 $-1 $182 $73 #
plane-surface $-1 0 0 -1.846263008514665 0 0 -1 -1 0 0 forward_v I I I I #
loop $-1 $-1 $183 $50 #
coedge $-1 $118 $118 $182 $184 reversed $74 $-1 #
face $-1 $185 $186 $40 $-1 $187 reversed single #
loop $-1 $-1 $188 $76 #
plane-surface $-1 0 0 -86.936246833704644 0 0 1 1 0 0 forward_v I I I I #
coedge $-1 $189 $190 $191 $192 forward $77 $-1 #
face $-1 $-1 $193 $41 $-1 $194 forward single #
loop $-1 $-1 $195 $79 #
plane-surface $-1 0 0 -1.846263008514665 0 0 -1 -1 0 0 forward_v I I I I #
loop $-1 $-1 $196 $52 #
coedge $-1 $127 $127 $195 $197 reversed $80 $-1 #
face $-1 $-1 $198 $42 $-1 $199 forward single #
loop $-1 $-1 $200 $82 #
plane-surface $-1 0 0 -1.846263008514665 0 0 -1 -1 0 0 forward_v I I I I #
loop $-1 $-1 $201 $53 #
coedge $-1 $132 $132 $200 $202 reversed $83 $-1 #
face $-1 $-1 $203 $43 $-1 $204 forward single #
loop $-1 $-1 $205 $85 #
plane-surface $-1 0 0 -1.846263008514665 0 0 -1 -1 0 0 forward_v I I I I #
loop $-1 $-1 $206 $54 #
coedge $-1 $137 $137 $205 $207 reversed $86 $-1 #
face $-1 $208 $209 $33 $-1 $210 reversed single #
loop $-1 $-1 $211 $88 #
plane-surface $-1 0 -26.413713558314409 0 0 1 0 0 0 1 forward_v I I I I #
coedge $-1 $212 $213 $214 $215 forward $89 $-1 #
coedge $-1 $216 $91 $217 $218 forward $56 $-1 #
coedge $-1 $91 $216 $219 $220 forward $56 $-1 #
coedge $-1 $221 $222 $91 $145 reversed $223 $-1 #
edge $-1 $224 -26.413713558314409 $225 26.413713558314409 $144 $226 forward 7 unknown #
face $-1 $227 $228 $34 $-1 $229 reversed single #
loop $-1 $-1 $230 $92 #
plane-surface $-1 0 -1.5 0 0 1 0 0 0 1 forward_v I I I I #
coedge $-1 $231 $232 $233 $234 forward $93 $-1 #
coedge $-1 $235 $95 $236 $237 forward $59 $-1 #
coedge $-1 $95 $235 $238 $239 forward $59 $-1 #
coedge $-1 $240 $241 $95 $153 reversed $242 $-1 #
edge $-1 $243 -1.5 $244 1.5 $152 $245 forward 7 unknown #
face $-1 $246 $247 $35 $-1 $248 reversed single #
loop $-1 $-1 $249 $96 #
plane-surface $-1 0 -1.5 0 0 1 0 0 0 1 forward_v I I I I #
coedge $-1 $250 $251 $252 $253 forward $97 $-1 #
coedge $-1 $254 $99 $255 $256 forward $62 $-1 #
coedge $-1 $99 $254 $257 $258 forward $62 $-1 #
coedge $-1 $259 $260 $99 $161 reversed $261 $-1 #
edge $-1 $262 -1.5 $263 1.5 $160 $264 forward 7 unknown #
face $-1 $265 $266 $36 $-1 $267 reversed single #
loop $-1 $-1 $268 $100 #
plane-surface $-1 0 -173.87249366740929 0 0 1 0 0 0 1 forward_v I I I I #
coedge $-1 $269 $270 $271 $272 forward $101 $-1 #
coedge $-1 $273 $103 $274 $275 forward $65 $-1 #
coedge $-1 $103 $273 $276 $277 forward $65 $-1 #
coedge $-1 $278 $279 $103 $169 reversed $280 $-1 #
edge $-1 $281 -173.87249366740929 $282 173.87249366740929 $168 $283 forward 7 unknown #
loop $-1 $284 $285 $104 #
cone-surface $-1 0 0 0 0 0 1 0.5 0 0 1 I I -0.70710678118654746 0.70710678118654746 0.5 forward I I I I #
coedge $-1 $172 $172 $108 $174 forward $105 $-1 #
coedge $-1 $173 $173 $285 $286 forward $107 $-1 #
edge $-1 $287 0 $287 6.2831853071796004 $172 $288 forward 7 unknown #
loop $-1 $289 $290 $109 #
cone-surface $-1 0 0 0 0 0 1 0.5 0 0 1 I I -0.70710678118654746 0.70710678118654746 0.5 forward I I I I #
coedge $-1 $177 $177 $113 $179 forward $110 $-1 #
coedge $-1 $178 $178 $290 $291 forward $112 $-1 #
edge $-1 $292 0 $292 6.2831853071796004 $177 $293 forward 7 unknown #
loop $-1 $294 $295 $114 #
cone-surface $-1 0 0 0 0 0 1 0.5 0 0 1 I I -0.70710678118654746 0.70710678118654746 0.5 forward I I I I #
coedge $-1 $182 $182 $118 $184 forward $115 $-1 #
coedge $-1 $183 $183 $295 $296 forward $117 $-1 #
edge $-1 $297 0 $297 6.2831853071796004 $182 $298 forward 7 unknown #
face $-1 $299 $300 $40 $-1 $301 reversed single #
loop $-1 $-1 $302 $119 #
plane-surface $-1 0 -173.87249366740929 0 0 1 0 0 0 1 forward_v I I I I #
coedge $-1 $303 $304 $305 $306 forward $120 $-1 #
coedge $-1 $307 $122 $308 $309 forward $77 $-1 #
coedge $-1 $122 $307 $310 $311 forward $77 $-1 #
coedge $-1 $312 $313 $122 $192 reversed $314 $-1 #
edge $-1 $315 -173.87249366740929 $316 173.87249366740929 $191 $317 forward 7 unknown #
loop $-1 $318 $319 $123 #
cone-surface $-1 0 0 0 0 0 1 0.5 0 0 1 I I -0.70710678118654746 0.70710678118654746 0.5 forward I I I I #
coedge $-1 $195 $195 $127 $197 forward $124 $-1 #
coedge $-1 $196 $196 $319 $320 forward $126 $-1 #
edge $-1 $321 0 $321 6.2831853071796004 $195 $322 forward 7 unknown #
loop $-1 $323 $324 $128 #
cone-surface $-1 0 0 0 0 0 1 0.5 0 0 1 I I -0.70710678118654746 0.70710678118654746 0.5 forward I I I I #
coedge $-1 $200 $200 $132 $202 forward $129 $-1 #
coedge $-1 $201 $201 $324 $325 forward $131 $-1 #
edge $-1 $326 0 $326 6.2831853071796004 $200 $327 forward 7 unknown #
loop $-1 $328 $329 $133 #
cone-surface $-1 0 0 0 0 0 1 0.5 0 0 1 I I -0.70710678118654746 0.70710678118654746 0.5 forward I I I I #
coedge $-1 $205 $205 $137 $207 forward $134 $-1 #
coedge $-1 $206 $206 $329 $330 forward $136 $-1 #
edge $-1 $331 0 $331 6.2831853071796004 $205 $332 forward 7 unknown #
face $-1 $333 $334 $33 $-1 $335 reversed single #
loop $-1 $-1 $336 $138 #
plane-surface $-1 -43.468123416852322 0 0 1 0 0 0 0 -1 forward_v I I I I #
coedge $-1 $337 $219 $338 $339 forward $139 $-1 #
coedge $-1 $340 $141 $337 $341 forward $89 $-1 #
coedge $-1 $141 $340 $342 $343 forward $89 $-1 #
coedge $-1 $222 $221 $141 $215 reversed $223 $-1 #
edge $-1 $344 -26.413713558314409 $345 26.413713558314409 $214 $346 forward 7 unknown #
coedge $-1 $143 $142 $347 $348 forward $56 $-1 #
coedge $-1 $349 $350 $142 $218 reversed $334 $-1 #
edge $-1 $225 -43.468123416852322 $351 43.468123416852322 $217 $352 forward 7 unknown #
coedge $-1 $211 $353 $143 $220 reversed $139 $-1 #
edge $-1 $354 -43.468123416852322 $224 43.468123416852322 $219 $355 forward 7 unknown #
coedge $-1 $214 $144 $353 $356 forward $223 $-1 #
coedge $-1 $144 $214 $349 $357 reversed $223 $-1 #
loop $-1 $-1 $221 $333 #
vertex $-1 $145 $358 #
vertex $-1 $145 $359 #
straight-curve $-1 43.468123416852322 0 11.612699244658392 0 1 0 I I #
face $-1 $360 $361 $34 $-1 $362 reversed single #
loop $-1 $-1 $363 $146 #
plane-surface $-1 -6.6577691844606015 0 0 1 0 0 0 0 -1 forward_v I I I I #
coedge $-1 $364 $238 $365 $366 forward $147 $-1 #
coedge $-1 $367 $149 $364 $368 forward $93 $-1 #
coedge $-1 $149 $367 $369 $370 forward $93 $-1 #
coedge $-1 $241 $240 $149 $234 reversed $242 $-1 #
edge $-1 $371 -1.5 $372 1.5 $233 $373 forward 7 unknown #
coedge $-1 $151 $150 $374 $375 forward $59 $-1 #
coedge $-1 $376 $377 $150 $237 reversed $361 $-1 #
edge $-1 $244 -6.6577691844606015 $378 6.6577691844606015 $236 $379 forward 7 unknown #
coedge $-1 $230 $380 $151 $239 reversed $147 $-1 #
edge $-1 $381 -6.6577691844606015 $243 6.6577691844606015 $238 $382 forward 7 unknown #
coedge $-1 $233 $152 $380 $383 forward $242 $-1 #
coedge $-1 $152 $233 $376 $384 reversed $242 $-1 #
loop $-1 $-1 $240 $360 #
vertex $-1 $153 $385 #
vertex $-1 $153 $386 #
straight-curve $-1 6.6577691844606015 0 11.612699244658392 0 1 0 I I #
face $-1 $387 $388 $35 $-1 $389 reversed single #
loop $-1 $-1 $390 $154 #
plane-surface $-1 -6.6577691844606051 0 0 1 0 0 0 0 -1 forward_v I I I I #
coedge $-1 $391 $257 $392 $393 forward $155 $-1 #
coedge $-1 $394 $157 $391 $395 forward $97 $-1 #
coedge $-1 $157 $394 $396 $397 forward $97 $-1 #
coedge $-1 $260 $259 $157 $253 reversed $261 $-1 #
edge $-1 $398 -1.5 $399 1.5 $252 $400 forward 7 unknown #
coedge $-1 $159 $158 $401 $402 forward $62 $-1 #
coedge $-1 $403 $404 $158 $256 reversed $388 $-1 #
edge $-1 $263 -6.6577691844606051 $405 6.6577691844606051 $255 $406 forward 7 unknown #
coedge $-1 $249 $407 $159 $258 reversed $155 $-1 #
edge $-1 $408 -6.6577691844606051 $262 6.6577691844606051 $257 $409 forward 7 unknown #
coedge $-1 $252 $160 $407 $410 forward $261 $-1 #
coedge $-1 $160 $252 $403 $411 reversed $261 $-1 #
loop $-1 $-1 $259 $387 #
vertex $-1 $161 $412 #
vertex $-1 $161 $413 #
straight-curve $-1 6.6577691844606051 0 11.612699244658392 0 1 0 I I #
face $-1 $414 $415 $36 $-1 $416 reversed single #
loop $-1 $-1 $417 $162 #
plane-surface $-1 -6.4592897688587687 0 0 1 0 0 0 0 -1 forward_v I I I I #
coedge $-1 $418 $276 $419 $420 forward $163 $-1 #
coedge $-1 $421 $165 $418 $422 forward $101 $-1 #
coedge $-1 $165 $421 $423 $424 forward $101 $-1 #
coedge $-1 $279 $278 $165 $272 reversed $280 $-1 #
edge $-1 $425 -173.87249366740929 $426 173.87249366740929 $271 $427 forward 7 unknown #
coedge $-1 $167 $166 $428 $429 forward $65 $-1 #
coedge $-1 $430 $431 $166 $275 reversed $415 $-1 #
edge $-1 $282 -6.4592897688587687 $432 6.4592897688587687 $274 $433 forward 7 unknown #
coedge $-1 $268 $434 $167 $277 reversed $163 $-1 #
edge $-1 $435 -6.4592897688587687 $281 6.4592897688587687 $276 $436 forward 7 unknown #
coedge $-1 $271 $168 $434 $437 forward $280 $-1 #
coedge $-1 $168 $271 $430 $438 reversed $280 $-1 #
loop $-1 $-1 $278 $414 #
vertex $-1 $169 $439 #
vertex $-1 $169 $440 #
straight-curve $-1 6.4592897688587687 0 86.936246833704644 0 1 0 I I #
loop $-1 $-1 $441 $104 #
coedge $-1 $285 $285 $173 $286 reversed $170 $-1 #
edge $-1 $442 0 $442 6.2831853071796004 $285 $443 forward 7 unknown #
vertex $-1 $174 $444 #
ellipse-curve $-1 0 0 -1.846263008514665 0 0 -1 1 0 0 1 I I #
loop $-1 $-1 $445 $109 #
coedge $-1 $290 $290 $178 $291 reversed $175 $-1 #
edge $-1 $446 0 $446 6.2831853071796004 $290 $447 forward 7 unknown #
vertex $-1 $179 $448 #
ellipse-curve $-1 0 0 -1.846263008514665 0 0 -1 1 0 0 1 I I #
loop $-1 $-1 $449 $114 #
coedge $-1 $295 $295 $183 $296 reversed $180 $-1 #
edge $-1 $450 0 $450 6.2831853071796004 $295 $451 forward 7 unknown #
vertex $-1 $184 $452 #
ellipse-curve $-1 0 0 -1.846263008514665 0 0 -1 1 0 0 1 I I #
face $-1 $453 $454 $40 $-1 $455 reversed single #
loop $-1 $-1 $456 $185 #
plane-surface $-1 -6.4592897688587687 0 0 1 0 0 0 0 -1 forward_v I I I I #
coedge $-1 $457 $310 $458 $459 forward $186 $-1 #
coedge $-1 $460 $188 $457 $461 forward $120 $-1 #
coedge $-1 $188 $460 $462 $463 forward $120 $-1 #
coedge $-1 $313 $312 $188 $306 reversed $314 $-1 #
edge $-1 $464 -173.87249366740929 $465 173.87249366740929 $305 $466 forward 7 unknown #
coedge $-1 $190 $189 $467 $468 forward $77 $-1 #
coedge $-1 $469 $470 $189 $309 reversed $454 $-1 #
edge $-1 $316 -6.4592897688587687 $471 6.4592897688587687 $308 $472 forward 7 unknown #
coedge $-1 $302 $473 $190 $311 reversed $186 $-1 #
edge $-1 $474 -6.4592897688587687 $315 6.4592897688587687 $310 $475 forward 7 unknown #
coedge $-1 $305 $191 $473 $476 forward $314 $-1 #
coedge $-1 $191 $305 $469 $477 reversed $314 $-1 #
loop $-1 $-1 $312 $453 #
vertex $-1 $192 $478 #
vertex $-1 $192 $479 #
straight-curve $-1 6.4592897688587687 0 86.936246833704644 0 1 0 I I #
loop $-1 $-1 $480 $123 #
coedge $-1 $319 $319 $196 $320 reversed $193 $-1 #
edge $-1 $481 0 $481 6.2831853071796004 $319 $482 forward 7 unknown #
vertex $-1 $197 $483 #
ellipse-curve $-1 0 0 -1.846263008514665 0 0 -1 1 0 0 1 I I #
loop $-1 $-1 $484 $128 #
coedge $-1 $324 $324 $201 $325 reversed $198 $-1 #
edge $-1 $485 0 $485 6.2831853071796004 $324 $486 forward 7 unknown #
vertex $-1 $202 $487 #
ellipse-curve $-1 0 0 -1.846263008514665 0 0 -1 1 0 0 1 I I #
loop $-1 $-1 $488 $133 #
coedge $-1 $329 $329 $206 $330 reversed $203 $-1 #
edge $-1 $489 0 $489 6.2831853071796004 $329 $490 forward 7 unknown #
vertex $-1 $207 $491 #
ellipse-curve $-1 0 0 -1.846263008514665 0 0 -1 1 0 0 1 I I #
face $-1 $-1 $223 $33 $-1 $492 reversed single #
loop $-1 $-1 $349 $208 #
plane-surface $-1 0 26.413713558314409 0 0 -1 0 0 0 -1 forward_v I I I I #
coedge $-1 $493 $347 $350 $494 forward $209 $-1 #
coedge $-1 $353 $211 $212 $341 reversed $139 $-1 #
coedge $-1 $347 $493 $211 $339 reversed $209 $-1 #
edge $-1 $354 -11.612699244658392 $495 11.612699244658392 $338 $496 forward 7 unknown #
coedge $-1 $213 $212 $493 $497 forward $89 $-1 #
edge $-1 $345 -43.468123416852322 $495 43.468123416852322 $337 $498 forward 7 unknown #
coedge $-1 $350 $349 $213 $343 reversed $334 $-1 #
edge $-1 $499 -43.468123416852322 $344 43.468123416852322 $342 $500 forward 7 unknown #
vertex $-1 $215 $501 #
vertex $-1 $356 $502 #
straight-curve $-1 43.468123416852322 0 -11.612699244658392 0 -1 0 I I #
coedge $-1 $336 $338 $216 $348 reversed $209 $-1 #
edge $-1 $351 -26.413713558314409 $354 26.413713558314409 $347 $503 forward 7 unknown #
coedge $-1 $342 $217 $222 $357 forward $334 $-1 #
coedge $-1 $217 $342 $336 $494 reversed $334 $-1 #
vertex $-1 $218 $504 #
straight-curve $-1 0 26.413713558314409 11.612699244658392 -1 0 0 I I #
coedge $-1 $219 $337 $221 $356 reversed $139 $-1 #
vertex $-1 $348 $505 #
straight-curve $-1 0 -26.413713558314409 11.612699244658392 1 0 0 I I #
edge $-1 $224 -11.612699244658392 $345 11.612699244658392 $221 $506 forward 7 unknown #
edge $-1 $225 -11.612699244658392 $344 11.612699244658392 $222 $507 forward 7 unknown #
point $-1 43.468123416852322 -26.413713558314409 11.612699244658392 #
point $-1 43.468123416852322 26.413713558314409 11.612699244658392 #
face $-1 $-1 $242 $34 $-1 $508 reversed single #
loop $-1 $-1 $376 $227 #
plane-surface $-1 0 1.5 0 0 -1 0 0 0 -1 forward_v I I I I #
coedge $-1 $509 $374 $377 $510 forward $228 $-1 #
coedge $-1 $380 $230 $231 $368 reversed $147 $-1 #
coedge $-1 $374 $509 $230 $366 reversed $228 $-1 #
edge $-1 $381 -11.612699244658392 $511 11.612699244658392 $365 $512 forward 7 unknown #
coedge $-1 $232 $231 $509 $513 forward $93 $-1 #
edge $-1 $372 -6.6577691844606015 $511 6.6577691844606015 $364 $514 forward 7 unknown #
coedge $-1 $377 $376 $232 $370 reversed $361 $-1 #
edge $-1 $515 -6.6577691844606015 $371 6.6577691844606015 $369 $516 forward 7 unknown #
vertex $-1 $234 $517 #
vertex $-1 $383 $518 #
straight-curve $-1 6.6577691844606015 0 -11.612699244658392 0 -1 0 I I #
coedge $-1 $363 $365 $235 $375 reversed $228 $-1 #
edge $-1 $378 -1.5 $381 1.5 $374 $519 forward 7 unknown #
coedge $-1 $369 $236 $241 $384 forward $361 $-1 #
coedge $-1 $236 $369 $363 $510 reversed $361 $-1 #
vertex $-1 $237 $520 #
straight-curve $-1 0 1.5 11.612699244658392 -1 0 0 I I #
coedge $-1 $238 $364 $240 $383 reversed $147 $-1 #
vertex $-1 $375 $521 #
straight-curve $-1 0 -1.5 11.612699244658392 1 0 0 I I #
edge $-1 $243 -11.612699244658392 $372 11.612699244658392 $240 $522 forward 7 unknown #
edge $-1 $244 -11.612699244658392 $371 11.612699244658392 $241 $523 forward 7 unknown #
point $-1 6.6577691844606015 -1.5 11.612699244658392 #
point $-1 6.6577691844606015 1.5 11.612699244658392 #
face $-1 $-1 $261 $35 $-1 $524 reversed single #
loop $-1 $-1 $403 $246 #
plane-surface $-1 0 1.5 0 0 -1 0 0 0 -1 forward_v I I I I #
coedge $-1 $525 $401 $404 $526 forward $247 $-1 #
coedge $-1 $407 $249 $250 $395 reversed $155 $-1 #
coedge $-1 $401 $525 $249 $393 reversed $247 $-1 #
edge $-1 $408 -11.612699244658392 $527 11.612699244658392 $392 $528 forward 7 unknown #
coedge $-1 $251 $250 $525 $529 forward $97 $-1 #
edge $-1 $399 -6.6577691844606051 $527 6.6577691844606051 $391 $530 forward 7 unknown #
coedge $-1 $404 $403 $251 $397 reversed $388 $-1 #
edge $-1 $531 -6.6577691844606051 $398 6.6577691844606051 $396 $532 forward 7 unknown #
vertex $-1 $253 $533 #
vertex $-1 $410 $534 #
straight-curve $-1 6.6577691844606051 0 -11.612699244658392 0 -1 0 I I #
coedge $-1 $390 $392 $254 $402 reversed $247 $-1 #
edge $-1 $405 -1.5 $408 1.5 $401 $535 forward 7 unknown #
coedge $-1 $396 $255 $260 $411 forward $388 $-1 #
coedge $-1 $255 $396 $390 $526 reversed $388 $-1 #
vertex $-1 $256 $536 #
straight-curve $-1 0 1.5 11.612699244658392 -1 0 0 I I #
coedge $-1 $257 $391 $259 $410 reversed $155 $-1 #
vertex $-1 $402 $537 #
straight-curve $-1 0 -1.5 11.612699244658392 1 0 0 I I #
edge $-1 $262 -11.612699244658392 $399 11.612699244658392 $259 $538 forward 7 unknown #
edge $-1 $263 -11.612699244658392 $398 11.612699244658392 $260 $539 forward 7 unknown #
point $-1 6.6577691844606051 -1.5 11.612699244658392 #
point $-1 6.6577691844606051 1.5 11.612699244658392 #
face $-1 $-1 $280 $36 $-1 $540 reversed single #
loop $-1 $-1 $430 $265 #
plane-surface $-1 0 173.87249366740929 0 0 -1 0 0 0 -1 forward_v I I I I #
coedge $-1 $541 $428 $431 $542 forward $266 $-1 #
coedge $-1 $434 $268 $269 $422 reversed $163 $-1 #
coedge $-1 $428 $541 $268 $420 reversed $266 $-1 #
edge $-1 $435 -86.936246833704644 $543 86.936246833704644 $419 $544 forward 7 unknown #
coedge $-1 $270 $269 $541 $545 forward $101 $-1 #
edge $-1 $426 -6.4592897688587687 $543 6.4592897688587687 $418 $546 forward 7 unknown #
coedge $-1 $431 $430 $270 $424 reversed $415 $-1 #
edge $-1 $547 -6.4592897688587687 $425 6.4592897688587687 $423 $548 forward 7 unknown #
vertex $-1 $272 $549 #
vertex $-1 $437 $550 #
straight-curve $-1 6.4592897688587687 0 -86.936246833704644 0 -1 0 I I #
coedge $-1 $417 $419 $273 $429 reversed $266 $-1 #
edge $-1 $432 -173.87249366740929 $435 173.87249366740929 $428 $551 forward 7 unknown #
coedge $-1 $423 $274 $279 $438 forward $415 $-1 #
coedge $-1 $274 $423 $417 $542 reversed $415 $-1 #
vertex $-1 $275 $552 #
straight-curve $-1 0 173.87249366740929 86.936246833704644 -1 0 0 I I #
coedge $-1 $276 $418 $278 $437 reversed $163 $-1 #
vertex $-1 $429 $553 #
straight-curve $-1 0 -173.87249366740929 86.936246833704644 1 0 0 I I #
edge $-1 $281 -86.936246833704644 $426 86.936246833704644 $278 $554 forward 7 unknown #
edge $-1 $282 -86.936246833704644 $425 86.936246833704644 $279 $555 forward 7 unknown #
point $-1 6.4592897688587687 -173.87249366740929 86.936246833704644 #
point $-1 6.4592897688587687 173.87249366740929 86.936246833704644 #
coedge $-1 $441 $441 $-1 $556 reversed $284 $-1 #
vertex $-1 $286 $557 #
ellipse-curve $-1 0 0 -0.5 0 0 -1 1 0 0 1 I I #
point $-1 1 0 -1.846263008514665 #
coedge $-1 $445 $445 $-1 $558 reversed $289 $-1 #
vertex $-1 $291 $559 #
ellipse-curve $-1 0 0 -0.5 0 0 -1 1 0 0 1 I I #
point $-1 1 0 -1.846263008514665 #
coedge $-1 $449 $449 $-1 $560 reversed $294 $-1 #
vertex $-1 $296 $561 #
ellipse-curve $-1 0 0 -0.5 0 0 -1 1 0 0 1 I I #
point $-1 1 0 -1.846263008514665 #
face $-1 $-1 $314 $40 $-1 $562 reversed single #
loop $-1 $-1 $469 $299 #
plane-surface $-1 0 173.87249366740929 0 0 -1 0 0 0 -1 forward_v I I I I #
coedge $-1 $563 $467 $470 $564 forward $300 $-1 #
coedge $-1 $473 $302 $303 $461 reversed $186 $-1 #
coedge $-1 $467 $563 $302 $459 reversed $300 $-1 #
edge $-1 $474 -86.936246833704644 $565 86.936246833704644 $458 $566 forward 7 unknown #
coedge $-1 $304 $303 $563 $567 forward $120 $-1 #
edge $-1 $465 -6.4592897688587687 $565 6.4592897688587687 $457 $568 forward 7 unknown #
coedge $-1 $470 $469 $304 $463 reversed $454 $-1 #
edge $-1 $569 -6.4592897688587687 $464 6.4592897688587687 $462 $570 forward 7 unknown #
vertex $-1 $306 $571 #
vertex $-1 $476 $572 #
straight-curve $-1 6.4592897688587687 0 -86.936246833704644 0 -1 0 I I #
coedge $-1 $456 $458 $307 $468 reversed $300 $-1 #
edge $-1 $471 -173.87249366740929 $474 173.87249366740929 $467 $573 forward 7 unknown #
coedge $-1 $462 $308 $313 $477 forward $454 $-1 #
coedge $-1 $308 $462 $456 $564 reversed $454 $-1 #
vertex $-1 $309 $574 #
straight-curve $-1 0 173.87249366740929 86.936246833704644 -1 0 0 I I #
coedge $-1 $310 $457 $312 $476 reversed $186 $-1 #
vertex $-1 $468 $575 #
straight-curve $-1 0 -173.87249366740929 86.936246833704644 1 0 0 I I #
edge $-1 $315 -86.936246833704644 $465 86.936246833704644 $312 $576 forward 7 unknown #
edge $-1 $316 -86.936246833704644 $464 86.936246833704644 $313 $577 forward 7 unknown #
point $-1 6.4592897688587687 -173.87249366740929 86.936246833704644 #
point $-1 6.4592897688587687 173.87249366740929 86.936246833704644 #
coedge $-1 $480 $480 $-1 $578 reversed $318 $-1 #
vertex $-1 $320 $579 #
ellipse-curve $-1 0 0 -0.5 0 0 -1 1 0 0 1 I I #
point $-1 1 0 -1.846263008514665 #
coedge $-1 $484 $484 $-1 $580 reversed $323 $-1 #
vertex $-1 $325 $581 #
ellipse-curve $-1 0 0 -0.5 0 0 -1 1 0 0 1 I I #
point $-1 1 0 -1.846263008514665 #
coedge $-1 $488 $488 $-1 $582 reversed $328 $-1 #
vertex $-1 $330 $583 #
ellipse-curve $-1 0 0 -0.5 0 0 -1 1 0 0 1 I I #
point $-1 1 0 -1.846263008514665 #
plane-surface $-1 43.468123416852322 0 0 -1 0 0 0 0 1 forward_v I I I I #
coedge $-1 $338 $336 $340 $497 reversed $209 $-1 #
edge $-1 $351 -11.612699244658392 $499 11.612699244658392 $350 $584 forward 7 unknown #
vertex $-1 $497 $585 #
straight-curve $-1 -43.468123416852322 -26.413713558314409 0 0 0 -1 I I #
edge $-1 $495 -26.413713558314409 $499 26.413713558314409 $493 $586 forward 7 unknown #
straight-curve $-1 0 -26.413713558314409 -11.612699244658392 -1 0 0 I I #
vertex $-1 $343 $587 #
straight-curve $-1 0 26.413713558314409 -11.612699244658392 1 0 0 I I #
point $-1 43.468123416852322 26.413713558314409 -11.612699244658392 #
point $-1 43.468123416852322 -26.413713558314409 -11.612699244658392 #
straight-curve $-1 -43.468123416852322 0 11.612699244658392 0 -1 0 I I #
point $-1 -43.468123416852322 26.413713558314409 11.612699244658392 #
point $-1 -43.468123416852322 -26.413713558314409 11.612699244658392 #
straight-curve $-1 43.468123416852322 -26.413713558314409 0 0 0 -1 I I #
straight-curve $-1 43.468123416852322 26.413713558314409 0 0 0 -1 I I #
plane-surface $-1 6.6577691844606015 0 0 -1 0 0 0 0 1 forward_v I I I I #
coedge $-1 $365 $363 $367 $513 reversed $228 $-1 #
edge $-1 $378 -11.612699244658392 $515 11.612699244658392 $377 $588 forward 7 unknown #
vertex $-1 $513 $589 #
straight-curve $-1 -6.6577691844606015 -1.5 0 0 0 -1 I I #
edge $-1 $511 -1.5 $515 1.5 $509 $590 forward 7 unknown #
straight-curve $-1 0 -1.5 -11.612699244658392 -1 0 0 I I #
vertex $-1 $370 $591 #
straight-curve $-1 0 1.5 -11.612699244658392 1 0 0 I I #
point $-1 6.6577691844606015 1.5 -11.612699244658392 #
point $-1 6.6577691844606015 -1.5 -11.612699244658392 #
straight-curve $-1 -6.6577691844606015 0 11.612699244658392 0 -1 0 I I #
point $-1 -6.6577691844606015 1.5 11.612699244658392 #
point $-1 -6.6577691844606015 -1.5 11.612699244658392 #
straight-curve $-1 6.6577691844606015 -1.5 0 0 0 -1 I I #
straight-curve $-1 6.6577691844606015 1.5 0 0 0 -1 I I #
plane-surface $-1 6.6577691844606051 0 0 -1 0 0 0 0 1 forward_v I I I I #
coedge $-1 $392 $390 $394 $529 reversed $247 $-1 #
edge $-1 $405 -11.612699244658392 $531 11.612699244658392 $404 $592 forward 7 unknown #
vertex $-1 $529 $593 #
straight-curve $-1 -6.6577691844606051 -1.5 0 0 0 -1 I I #
edge $-1 $527 -1.5 $531 1.5 $525 $594 forward 7 unknown #
straight-curve $-1 0 -1.5 -11.612699244658392 -1 0 0 I I #
vertex $-1 $397 $595 #
straight-curve $-1 0 1.5 -11.612699244658392 1 0 0 I I #
point $-1 6.6577691844606051 1.5 -11.612699244658392 #
point $-1 6.6577691844606051 -1.5 -11.612699244658392 #
straight-curve $-1 -6.6577691844606051 0 11.612699244658392 0 -1 0 I I #
point $-1 -6.6577691844606051 1.5 11.612699244658392 #
point $-1 -6.6577691844606051 -1.5 11.612699244658392 #
straight-curve $-1 6.6577691844606051 -1.5 0 0 0 -1 I I #
straight-curve $-1 6.6577691844606051 1.5 0 0 0 -1 I I #
plane-surface $-1 6.4592897688587687 0 0 -1 0 0 0 0 1 forward_v I I I I #
coedge $-1 $419 $417 $421 $545 reversed $266 $-1 #
edge $-1 $432 -86.936246833704644 $547 86.936246833704644 $431 $596 forward 7 unknown #
vertex $-1 $545 $597 #
straight-curve $-1 -6.4592897688587687 -173.87249366740929 0 0 0 -1 I I #
edge $-1 $543 -173.87249366740929 $547 173.87249366740929 $541 $598 forward 7 unknown #
straight-curve $-1 0 -173.87249366740929 -86.936246833704644 -1 0 0 I I #
vertex $-1 $424 $599 #
straight-curve $-1 0 173.87249366740929 -86.936246833704644 1 0 0 I I #
point $-1 6.4592897688587687 173.87249366740929 -86.936246833704644 #
point $-1 6.4592897688587687 -173.87249366740929 -86.936246833704644 #
straight-curve $-1 -6.4592897688587687 0 86.936246833704644 0 -1 0 I I #
point $-1 -6.4592897688587687 173.87249366740929 86.936246833704644 #
point $-1 -6.4592897688587687 -173.87249366740929 86.936246833704644 #
straight-curve $-1 6.4592897688587687 -173.87249366740929 0 0 0 -1 I I #
straight-curve $-1 6.4592897688587687 173.87249366740929 0 0 0 -1 I I #
edge $-1 $600 1 $600 0 $441 $-1 forward 7 unknown #
point $-1 1 0 -0.5 #
edge $-1 $601 1 $601 0 $445 $-1 forward 7 unknown #
point $-1 1 0 -0.5 #
edge $-1 $602 1 $602 0 $449 $-1 forward 7 unknown #
point $-1 1 0 -0.5 #
plane-surface $-1 6.4592897688587687 0 0 -1 0 0 0 0 1 forward_v I I I I #
coedge $-1 $458 $456 $460 $567 reversed $300 $-1 #
edge $-1 $471 -86.936246833704644 $569 86.936246833704644 $470 $603 forward 7 unknown #
vertex $-1 $567 $604 #
straight-curve $-1 -6.4592897688587687 -173.87249366740929 0 0 0 -1 I I #
edge $-1 $565 -173.87249366740929 $569 173.87249366740929 $563 $605 forward 7 unknown #
straight-curve $-1 0 -173.87249366740929 -86.936246833704644 -1 0 0 I I #
vertex $-1 $463 $606 #
straight-curve $-1 0 173.87249366740929 -86.936246833704644 1 0 0 I I #
point $-1 6.4592897688587687 173.87249366740929 -86.936246833704644 #
point $-1 6.4592897688587687 -173.87249366740929 -86.936246833704644 #
straight-curve $-1 -6.4592897688587687 0 86.936246833704644 0 -1 0 I I #
point $-1 -6.4592897688587687 173.87249366740929 86.936246833704644 #
point $-1 -6.4592897688587687 -173.87249366740929 86.936246833704644 #
straight-curve $-1 6.4592897688587687 -173.87249366740929 0 0 0 -1 I I #
straight-curve $-1 6.4592897688587687 173.87249366740929 0 0 0 -1 I I #
edge $-1 $607 1 $607 0 $480 $-1 forward 7 unknown #
point $-1 1 0 -0.5 #
edge $-1 $608 1 $608 0 $484 $-1 forward 7 unknown #
point $-1 1 0 -0.5 #
edge $-1 $609 1 $609 0 $488 $-1 forward 7 unknown #
point $-1 1 0 -0.5 #
straight-curve $-1 -43.468123416852322 26.413713558314409 0 0 0 -1 I I #
point $-1 -43.468123416852322 -26.413713558314409 -11.612699244658392 #
straight-curve $-1 -43.468123416852322 0 -11.612699244658392 0 1 0 I I #
point $-1 -43.468123416852322 26.413713558314409 -11.612699244658392 #
straight-curve $-1 -6.6577691844606015 1.5 0 0 0 -1 I I #
point $-1 -6.6577691844606015 -1.5 -11.612699244658392 #
straight-curve $-1 -6.6577691844606015 0 -11.612699244658392 0 1 0 I I #
point $-1 -6.6577691844606015 1.5 -11.612699244658392 #
straight-curve $-1 -6.6577691844606051 1.5 0 0 0 -1 I I #
point $-1 -6.6577691844606051 -1.5 -11.612699244658392 #
straight-curve $-1 -6.6577691844606051 0 -11.612699244658392 0 1 0 I I #
point $-1 -6.6577691844606051 1.5 -11.612699244658392 #
straight-curve $-1 -6.4592897688587687 173.87249366740929 0 0 0 -1 I I #
point $-1 -6.4592897688587687 -173.87249366740929 -86.936246833704644 #
straight-curve $-1 -6.4592897688587687 0 -86.936246833704644 0 1 0 I I #
point $-1 -6.4592897688587687 173.87249366740929 -86.936246833704644 #
vertex $-1 $556 $610 #
vertex $-1 $558 $611 #
vertex $-1 $560 $612 #
straight-curve $-1 -6.4592897688587687 173.87249366740929 0 0 0 -1 I I #
point $-1 -6.4592897688587687 -173.87249366740929 -86.936246833704644 #
straight-curve $-1 -6.4592897688587687 0 -86.936246833704644 0 1 0 I I #
point $-1 -6.4592897688587687 173.87249366740929 -86.936246833704644 #
vertex $-1 $578 $613 #
vertex $-1 $580 $614 #
vertex $-1 $582 $615 #
point $-1 0 0 0.5 #
point $-1 0 0 0.5 #
point $-1 0 0 0.5 #
point $-1 0 0 0.5 #
point $-1 0 0 0.5 #
point $-1 0 0 0.5 #
End-of-ACIS-data 