500 0 9 0           
7 Unknown 11 ACIS 5.0 NT 24 Fri Mar 26 17:35:20 1999 
-1 9.9999999999999995e-007 1e-010 
body $-1 $9 $-1 $10 #
body $-1 $11 $-1 $12 #
body $-1 $13 $-1 $14 #
body $-1 $15 $-1 $16 #
body $-1 $17 $-1 $18 #
body $-1 $19 $-1 $20 #
body $-1 $21 $-1 $22 #
body $-1 $23 $-1 $24 #
body $-1 $25 $-1 $26 #
lump $-1 $-1 $27 $0 #
transform $-1 1 0 0 0 1 0 0 0 1 79.365215002899262 33.75958443653402 8.3267185112346063 1 rotate no_reflect no_shear #
lump $-1 $-1 $28 $1 #
transform $-1 1 0 0 0 1 0 0 0 1 79.365215002899262 33.75958443653402 8.3267185112346063 1 rotate no_reflect no_shear #
lump $-1 $-1 $29 $2 #
transform $-1 1 0 0 0 1 0 0 0 1 79.365215002899262 33.75958443653402 8.3267185112346063 1 rotate no_reflect no_shear #
lump $-1 $-1 $30 $3 #
transform $-1 1 0 0 0 1 0 0 0 1 79.365215002899262 33.75958443653402 8.3267185112346063 1 rotate no_reflect no_shear #
lump $-1 $-1 $31 $4 #
transform $-1 1 0 0 0 1 0 0 0 1 79.365215002899262 33.75958443653402 8.3267185112346063 1 rotate no_reflect no_shear #
lump $-1 $-1 $32 $5 #
transform $-1 1 0 0 0 1 0 0 0 1 79.365215002899262 33.75958443653402 8.3267185112346063 1 rotate no_reflect no_shear #
lump $-1 $-1 $33 $6 #
transform $-1 1 0 0 0 1 0 0 0 1 79.365215002899262 33.75958443653402 8.3267185112346063 1 rotate no_reflect no_shear #
lump $-1 $-1 $34 $7 #
transform $-1 1 0 0 0 1 0 0 0 1 79.365215002899262 33.75958443653402 8.3267185112346063 1 rotate no_reflect no_shear #
lump $-1 $-1 $35 $8 #
transform $-1 1 0 0 0 1 0 0 0 1 79.365215002899262 33.75958443653402 8.3267185112346063 1 rotate no_reflect no_shear #
shell $-1 $-1 $-1 $36 $-1 $9 #
shell $-1 $-1 $-1 $37 $-1 $11 #
shell $-1 $-1 $-1 $38 $-1 $13 #
shell $-1 $-1 $-1 $39 $-1 $15 #
shell $-1 $-1 $-1 $40 $-1 $17 #
shell $-1 $-1 $-1 $41 $-1 $19 #
shell $-1 $-1 $-1 $42 $-1 $21 #
shell $-1 $-1 $-1 $43 $-1 $23 #
shell $-1 $-1 $-1 $44 $-1 $25 #
face $-1 $45 $46 $27 $-1 $47 forward single #
face $-1 $48 $49 $28 $-1 $50 forward single #
face $-1 $51 $52 $29 $-1 $53 reversed single #
face $-1 $54 $55 $30 $-1 $56 forward single #
face $-1 $57 $58 $31 $-1 $59 reversed single #
face $-1 $60 $61 $32 $-1 $62 forward single #
face $-1 $63 $64 $33 $-1 $65 reversed single #
face $-1 $66 $67 $34 $-1 $68 forward single #
face $-1 $69 $70 $35 $-1 $71 forward single #
face $-1 $72 $73 $27 $-1 $74 reversed single #
loop $-1 $-1 $75 $36 #
plane-surface $-1 0 0 8.3267185112346063 0 0 1 1 0 0 forward_v I I I I #
face $-1 $76 $77 $28 $-1 $78 reversed single #
loop $-1 $-1 $79 $37 #
plane-surface $-1 -76.436345703338262 0 -4.3559052505500855 0 0 1 1 0 0 forward_v I I I I #
face $-1 $80 $81 $29 $-1 $82 reversed single #
loop $-1 $-1 $83 $38 #
plane-surface $-1 -58.078965683099881 106.54014166772811 161.6291190505116 1 0 0 0 -0.74314483375859142 -0.66913059716165679 forward_v I I I I #
face $-1 $84 $85 $30 $-1 $86 forward single #
loop $-1 $87 $88 $39 #
cone-surface $-1 -40.33627195405569 31.731210414385636 6.2083612887043094 0 -0.74314483375859142 -0.66913059716165679 1 0 0 1 I I 0 1 1 forward I I I I #
face $-1 $89 $90 $31 $-1 $91 reversed single #
loop $-1 $-1 $92 $40 #
plane-surface $-1 28.451316824133521 106.54014166772811 161.6291190505116 1 0 0 0 -0.74314483375859142 -0.66913059716165679 forward_v I I I I #
face $-1 $93 $94 $32 $-1 $95 forward single #
loop $-1 $96 $97 $41 #
cone-surface $-1 46.194010553177705 31.731210414385636 6.2083612887043094 0 -0.74314483375859142 -0.66913059716165679 1 0 0 1 I I 0 1 1 forward I I I I #
face $-1 $98 $99 $33 $-1 $100 reversed single #
loop $-1 $-1 $101 $42 #
plane-surface $-1 -55.245518459102612 -169.81811990752377 81.765705801354216 -1 0 0 0 -0.85716730853699208 0.51503806187062418 forward_v I I I I #
face $-1 $102 $103 $34 $-1 $104 forward single #
loop $-1 $105 $106 $43 #
cone-surface $-1 -68.289774133870225 -30.627574328241824 3.7888804942147214 0 0.85716730853699208 -0.51503806187062418 0.5 0 0 1 I I 0 1 0.5 forward I I I I #
face $-1 $107 $108 $35 $-1 $109 forward single #
loop $-1 $110 $111 $44 #
cone-surface $-1 -60.463220729009656 -30.627574328241824 3.7888804942147214 0 0.85716730853699208 -0.51503806187062418 0.5 0 0 1 I I 0 1 0.5 forward I I I I #
face $-1 $112 $113 $27 $-1 $114 reversed single #
loop $-1 $-1 $115 $45 #
plane-surface $-1 0 0 -8.3267185112346063 0 0 1 1 0 0 forward_v I I I I #
coedge $-1 $116 $117 $118 $119 forward $46 $-1 #
face $-1 $120 $121 $28 $-1 $122 reversed single #
loop $-1 $-1 $123 $48 #
plane-surface $-1 -73.507476403777261 0 -6.3413118808923459 -1 0 0 0 0 1 forward_v I I I I #
coedge $-1 $124 $125 $126 $127 forward $49 $-1 #
face $-1 $128 $129 $29 $-1 $130 reversed single #
loop $-1 $-1 $131 $51 #
plane-surface $-1 -40.336271954055697 -11.419557351360766 55.417731633005076 0 0.74314483375859142 0.66913059716165679 1 0 0 forward_v I I I I #
coedge $-1 $132 $133 $134 $135 reversed $52 $-1 #
face $-1 $-1 $136 $30 $-1 $137 forward single #
loop $-1 $138 $139 $54 #
cone-surface $-1 -40.33627195405569 30.720366064489788 5.2981929705551458 0 -0.74314483375859142 -0.66913059716165679 0.5 0 0 1 I I -0.70710678118654746 0.70710678118654746 0.5 forward I I I I #
loop $-1 $-1 $140 $39 #
coedge $-1 $88 $88 $141 $142 reversed $55 $-1 #
face $-1 $143 $144 $31 $-1 $145 reversed single #
loop $-1 $-1 $146 $57 #
plane-surface $-1 46.194010553177705 -11.419557351360766 55.417731633005076 0 0.74314483375859142 0.66913059716165679 1 0 0 forward_v I I I I #
coedge $-1 $147 $148 $149 $150 reversed $58 $-1 #
face $-1 $-1 $151 $32 $-1 $152 forward single #
loop $-1 $153 $154 $60 #
cone-surface $-1 46.194010553177705 30.720366064489788 5.2981929705551458 0 -0.74314483375859142 -0.66913059716165679 0.5 0 0 1 I I -0.70710678118654746 0.70710678118654746 0.5 forward I I I I #
loop $-1 $-1 $155 $41 #
coedge $-1 $97 $97 $156 $157 reversed $61 $-1 #
face $-1 $158 $159 $33 $-1 $160 reversed single #
loop $-1 $-1 $161 $63 #
plane-surface $-1 -64.37649743143993 -33.759584436534027 0.013492771276972348 0 -0.85716730853699208 0.51503806187062418 1 0 0 forward_v I I I I #
coedge $-1 $162 $163 $164 $165 reversed $64 $-1 #
face $-1 $-1 $166 $34 $-1 $167 forward single #
loop $-1 $168 $169 $66 #
cone-surface $-1 -68.289774133870225 -29.778817288868765 3.2788958317059986 0 0.85716730853699208 -0.51503806187062418 0.25 0 0 1 I I -0.70710678118654746 0.70710678118654746 0.25 forward I I I I #
loop $-1 $-1 $170 $43 #
coedge $-1 $106 $106 $171 $172 reversed $67 $-1 #
face $-1 $-1 $173 $35 $-1 $174 forward single #
loop $-1 $175 $176 $69 #
cone-surface $-1 -60.463220729009656 -29.778817288868765 3.2788958317059986 0 0.85716730853699208 -0.51503806187062418 0.25 0 0 1 I I -0.70710678118654746 0.70710678118654746 0.25 forward I I I I #
loop $-1 $-1 $177 $44 #
coedge $-1 $111 $111 $178 $179 reversed $70 $-1 #
face $-1 $180 $181 $27 $-1 $182 reversed single #
loop $-1 $-1 $183 $72 #
plane-surface $-1 0 -33.75958443653402 0 0 1 0 0 0 1 forward_v I I I I #
coedge $-1 $184 $185 $186 $187 forward $73 $-1 #
coedge $-1 $188 $75 $189 $190 forward $46 $-1 #
coedge $-1 $75 $188 $191 $192 forward $46 $-1 #
coedge $-1 $193 $194 $75 $119 reversed $195 $-1 #
edge $-1 $196 -33.75958443653402 $197 33.75958443653402 $118 $198 forward 7 unknown #
face $-1 $199 $200 $28 $-1 $201 reversed single #
loop $-1 $-1 $202 $76 #
plane-surface $-1 0 0 -8.3267185112346063 0 0 1 1 0 0 forward_v I I I I #
coedge $-1 $203 $126 $204 $205 reversed $77 $-1 #
coedge $-1 $206 $79 $207 $208 reversed $49 $-1 #
coedge $-1 $79 $206 $209 $210 reversed $49 $-1 #
coedge $-1 $123 $211 $79 $127 reversed $77 $-1 #
edge $-1 $212 -33.75958443653402 $213 33.75958443653402 $126 $214 forward 7 unknown #
face $-1 $215 $216 $29 $-1 $217 reversed single #
loop $-1 $-1 $218 $80 #
plane-surface $-1 -22.593578225011512 106.54014166772811 161.6291190505116 -1 0 0 0 0.74314483375859142 0.66913059716165679 forward_v I I I I #
coedge $-1 $219 $220 $221 $222 reversed $81 $-1 #
coedge $-1 $133 $83 $223 $224 reversed $52 $-1 #
coedge $-1 $83 $132 $219 $225 reversed $52 $-1 #
coedge $-1 $221 $226 $83 $135 forward $227 $-1 #
edge $-1 $228 19.510486397330034 $229 22.288690575593748 $134 $230 forward 7 unknown #
loop $-1 $-1 $141 $84 #
plane-surface $-1 -40.336271954055697 -11.419557351360766 55.417731633005076 0 0.74314483375859142 0.66913059716165679 1 0 0 forward_v I I I I #
loop $-1 $-1 $231 $54 #
coedge $-1 $139 $139 $140 $232 reversed $85 $-1 #
coedge $-1 $140 $140 $139 $232 forward $87 $-1 #
coedge $-1 $141 $141 $88 $142 forward $136 $-1 #
edge $-1 $233 -9.1766314064742074e-016 $233 6.2831853071795996 $141 $234 forward 7 unknown #
face $-1 $235 $236 $31 $-1 $237 forward single #
loop $-1 $-1 $238 $89 #
plane-surface $-1 63.936704282221889 106.54014166772811 161.6291190505116 -1 0 0 0 0.74314483375859142 0.66913059716165679 forward_v I I I I #
coedge $-1 $239 $240 $241 $242 reversed $90 $-1 #
coedge $-1 $148 $92 $243 $244 reversed $58 $-1 #
coedge $-1 $92 $147 $239 $245 reversed $58 $-1 #
coedge $-1 $241 $246 $92 $150 forward $236 $-1 #
edge $-1 $247 19.510486397330034 $248 22.288690575593748 $149 $249 forward 7 unknown #
loop $-1 $-1 $156 $93 #
plane-surface $-1 46.194010553177705 -11.419557351360766 55.417731633005076 0 0.74314483375859142 0.66913059716165679 1 0 0 forward_v I I I I #
loop $-1 $-1 $250 $60 #
coedge $-1 $154 $154 $155 $251 reversed $94 $-1 #
coedge $-1 $155 $155 $154 $251 forward $96 $-1 #
coedge $-1 $156 $156 $97 $157 forward $151 $-1 #
edge $-1 $252 -9.1766314064742074e-016 $252 6.2831853071795996 $156 $253 forward 7 unknown #
face $-1 $254 $255 $33 $-1 $256 forward single #
loop $-1 $-1 $257 $98 #
plane-surface $-1 -73.507476403777247 -169.81811990752377 81.765705801354216 1 0 0 0 0.85716730853699208 -0.51503806187062418 forward_v I I I I #
coedge $-1 $258 $259 $260 $261 reversed $99 $-1 #
coedge $-1 $163 $101 $262 $263 reversed $64 $-1 #
coedge $-1 $101 $162 $258 $264 reversed $64 $-1 #
coedge $-1 $260 $265 $101 $165 forward $255 $-1 #
edge $-1 $266 51.149475517227863 $267 56.144565309334631 $164 $268 forward 7 unknown #
loop $-1 $-1 $171 $102 #
plane-surface $-1 -64.37649743143993 -33.759584436534027 0.013492771276972348 0 -0.85716730853699208 0.51503806187062418 1 0 0 forward_v I I I I #
loop $-1 $-1 $269 $66 #
coedge $-1 $169 $169 $170 $270 reversed $103 $-1 #
coedge $-1 $170 $170 $169 $270 forward $105 $-1 #
coedge $-1 $171 $171 $106 $172 forward $166 $-1 #
edge $-1 $271 1.2285910259226982e-015 $271 6.2831853071796013 $171 $272 forward 7 unknown #
loop $-1 $-1 $178 $107 #
plane-surface $-1 -64.37649743143993 -33.759584436534027 0.013492771276972348 0 -0.85716730853699208 0.51503806187062418 1 0 0 forward_v I I I I #
loop $-1 $-1 $273 $69 #
coedge $-1 $176 $176 $177 $274 reversed $108 $-1 #
coedge $-1 $177 $177 $176 $274 forward $110 $-1 #
coedge $-1 $178 $178 $111 $179 forward $173 $-1 #
edge $-1 $275 1.2285910259226982e-015 $275 6.2831853071796013 $178 $276 forward 7 unknown #
face $-1 $277 $278 $27 $-1 $279 reversed single #
loop $-1 $-1 $280 $112 #
plane-surface $-1 -79.365215002899262 0 0 1 0 0 0 0 -1 forward_v I I I I #
coedge $-1 $281 $191 $282 $283 forward $113 $-1 #
coedge $-1 $284 $115 $281 $285 forward $73 $-1 #
coedge $-1 $115 $284 $286 $287 forward $73 $-1 #
coedge $-1 $194 $193 $115 $187 reversed $195 $-1 #
edge $-1 $288 -33.75958443653402 $289 33.75958443653402 $186 $290 forward 7 unknown #
coedge $-1 $117 $116 $291 $292 forward $46 $-1 #
coedge $-1 $293 $294 $116 $190 reversed $278 $-1 #
edge $-1 $197 -79.365215002899262 $295 79.365215002899262 $189 $296 forward 7 unknown #
coedge $-1 $183 $297 $117 $192 reversed $113 $-1 #
edge $-1 $298 -79.365215002899262 $196 79.365215002899262 $191 $299 forward 7 unknown #
coedge $-1 $186 $118 $297 $300 forward $195 $-1 #
coedge $-1 $118 $186 $293 $301 reversed $195 $-1 #
loop $-1 $-1 $193 $277 #
vertex $-1 $119 $302 #
vertex $-1 $119 $303 #
straight-curve $-1 79.365215002899262 0 8.3267185112346063 0 1 0 I I #
face $-1 $304 $305 $28 $-1 $306 reversed single #
loop $-1 $-1 $204 $120 #
plane-surface $-1 0 -33.75958443653402 0 0 1 0 0 0 1 forward_v I I I I #
coedge $-1 $307 $308 $203 $309 forward $121 $-1 #
coedge $-1 $211 $123 $202 $309 reversed $77 $-1 #
coedge $-1 $209 $310 $123 $205 forward $200 $-1 #
edge $-1 $311 -5.1560625707884338 $212 -1.1852493101039125 $204 $312 forward 7 unknown #
coedge $-1 $125 $124 $313 $314 reversed $49 $-1 #
coedge $-1 $315 $316 $124 $208 forward $317 $-1 #
edge $-1 $318 -41.147042151230131 $213 -35.28930355210813 $207 $319 forward 7 unknown #
coedge $-1 $320 $204 $125 $210 forward $200 $-1 #
edge $-1 $212 35.28930355210813 $321 41.147042151230131 $209 $322 forward 7 unknown #
coedge $-1 $126 $203 $315 $323 reversed $77 $-1 #
vertex $-1 $210 $324 #
vertex $-1 $208 $325 #
straight-curve $-1 -73.507476403777261 0 -4.3559052505500855 0 1 0 I I #
face $-1 $-1 $227 $29 $-1 $326 forward single #
loop $-1 $-1 $327 $128 #
plane-surface $-1 0 33.75958443653402 0 0 -1 0 0 0 -1 forward_v I I I I #
coedge $-1 $328 $329 $330 $331 reversed $129 $-1 #
coedge $-1 $332 $131 $133 $225 forward $81 $-1 #
coedge $-1 $131 $332 $328 $333 forward $81 $-1 #
coedge $-1 $330 $134 $131 $222 forward $227 $-1 #
edge $-1 $229 -37.910829706072036 $334 -2.4254422479836641 $221 $335 forward 7 unknown #
coedge $-1 $336 $337 $132 $224 forward $216 $-1 #
edge $-1 $338 -75.57334941994516 $228 -72.4878410140212 $223 $339 forward 7 unknown #
edge $-1 $229 63.367207820848357 $338 67.519168873068068 $133 $340 forward 7 unknown #
coedge $-1 $134 $330 $336 $341 forward $227 $-1 #
loop $-1 $-1 $330 $215 #
vertex $-1 $224 $342 #
vertex $-1 $135 $343 #
straight-curve $-1 -58.078965683099881 53.270070833864054 8.3267185112346027 0 -1 0 I I #
coedge $-1 $231 $231 $-1 $344 reversed $138 $-1 #
edge $-1 $345 0 $345 6.2831853071796004 $139 $346 forward 7 unknown #
vertex $-1 $142 $347 #
ellipse-curve $-1 -40.33627195405569 32.370482347402167 6.7839643082726226 0 0.74314483375859142 0.66913059716165679 1 0 0 1 I I #
face $-1 $-1 $348 $31 $-1 $349 reversed single #
loop $-1 $-1 $149 $143 #
plane-surface $-1 0 0 8.3267185112346063 0 0 1 1 0 0 forward_v I I I I #
coedge $-1 $350 $351 $352 $353 reversed $144 $-1 #
coedge $-1 $354 $146 $148 $245 forward $90 $-1 #
coedge $-1 $146 $354 $350 $355 forward $90 $-1 #
coedge $-1 $352 $149 $146 $242 forward $236 $-1 #
edge $-1 $248 5.3543115475446683 $356 40.839699005633037 $241 $357 forward 7 unknown #
coedge $-1 $358 $359 $147 $244 forward $348 $-1 #
edge $-1 $360 -75.57334941994516 $247 -72.4878410140212 $243 $361 forward 7 unknown #
edge $-1 $248 63.367207820848357 $360 67.519168873068068 $148 $362 forward 7 unknown #
coedge $-1 $149 $352 $358 $363 forward $236 $-1 #
vertex $-1 $150 $364 #
vertex $-1 $150 $365 #
straight-curve $-1 28.451316824133521 53.270070833864054 8.3267185112346027 0 -1 0 I I #
coedge $-1 $250 $250 $-1 $366 reversed $153 $-1 #
edge $-1 $367 0 $367 6.2831853071796004 $154 $368 forward 7 unknown #
vertex $-1 $157 $369 #
ellipse-curve $-1 46.194010553177705 32.370482347402167 6.7839643082726226 0 0.74314483375859142 0.66913059716165679 1 0 0 1 I I #
face $-1 $-1 $370 $33 $-1 $371 reversed single #
loop $-1 $-1 $164 $158 #
plane-surface $-1 0 0 8.3267185112346063 0 0 1 1 0 0 forward_v I I I I #
coedge $-1 $372 $373 $374 $375 reversed $159 $-1 #
coedge $-1 $376 $161 $163 $264 forward $99 $-1 #
coedge $-1 $161 $376 $372 $377 forward $99 $-1 #
coedge $-1 $374 $164 $161 $261 forward $255 $-1 #
edge $-1 $267 23.057269743382648 $378 41.319227688057282 $260 $379 forward 7 unknown #
coedge $-1 $380 $381 $162 $263 forward $370 $-1 #
edge $-1 $382 -40.869360129400121 $266 -32.556134389442505 $262 $383 forward 7 unknown #
edge $-1 $267 -9.6984866981763442 $382 -1.3796091775442667e-014 $163 $384 forward 7 unknown #
coedge $-1 $164 $374 $380 $385 forward $255 $-1 #
vertex $-1 $165 $386 #
vertex $-1 $165 $387 #
straight-curve $-1 -55.245518459102612 -84.909059953761883 8.3267185112346098 0 1 0 I I #
coedge $-1 $269 $269 $-1 $388 reversed $168 $-1 #
edge $-1 $389 0 $389 6.2831853071796004 $169 $390 forward 7 unknown #
vertex $-1 $172 $391 #
ellipse-curve $-1 -68.289774133870225 -31.262039540480639 4.170105641255792 0 -0.85716730853699208 0.51503806187062418 0.5 0 0 1 I I #
coedge $-1 $273 $273 $-1 $392 reversed $175 $-1 #
edge $-1 $393 0 $393 6.2831853071796004 $176 $394 forward 7 unknown #
vertex $-1 $179 $395 #
ellipse-curve $-1 -60.463220729009656 -31.262039540480639 4.170105641255792 0 -0.85716730853699208 0.51503806187062418 0.5 0 0 1 I I #
face $-1 $-1 $195 $27 $-1 $396 reversed single #
loop $-1 $-1 $293 $180 #
plane-surface $-1 0 33.75958443653402 0 0 -1 0 0 0 -1 forward_v I I I I #
coedge $-1 $397 $291 $294 $398 forward $181 $-1 #
coedge $-1 $297 $183 $184 $285 reversed $113 $-1 #
coedge $-1 $291 $397 $183 $283 reversed $181 $-1 #
edge $-1 $298 -8.3267185112346063 $399 8.3267185112346063 $282 $400 forward 7 unknown #
coedge $-1 $185 $184 $397 $401 forward $73 $-1 #
edge $-1 $289 -79.365215002899262 $399 79.365215002899262 $281 $402 forward 7 unknown #
coedge $-1 $294 $293 $185 $287 reversed $278 $-1 #
edge $-1 $403 -79.365215002899262 $288 79.365215002899262 $286 $404 forward 7 unknown #
vertex $-1 $187 $405 #
vertex $-1 $300 $406 #
straight-curve $-1 79.365215002899262 0 -8.3267185112346063 0 -1 0 I I #
coedge $-1 $280 $282 $188 $292 reversed $181 $-1 #
edge $-1 $295 -33.75958443653402 $298 33.75958443653402 $291 $407 forward 7 unknown #
coedge $-1 $286 $189 $194 $301 forward $278 $-1 #
coedge $-1 $189 $286 $280 $398 reversed $278 $-1 #
vertex $-1 $190 $408 #
straight-curve $-1 0 33.75958443653402 8.3267185112346063 -1 0 0 I I #
coedge $-1 $191 $281 $193 $300 reversed $113 $-1 #
vertex $-1 $292 $409 #
straight-curve $-1 0 -33.75958443653402 8.3267185112346063 1 0 0 I I #
edge $-1 $196 -8.3267185112346063 $289 8.3267185112346063 $193 $410 forward 7 unknown #
edge $-1 $197 -8.3267185112346063 $288 8.3267185112346063 $194 $411 forward 7 unknown #
point $-1 79.365215002899262 -33.75958443653402 8.3267185112346063 #
point $-1 79.365215002899262 33.75958443653402 8.3267185112346063 #
face $-1 $-1 $317 $28 $-1 $412 reversed single #
loop $-1 $-1 $313 $199 #
plane-surface $-1 -79.365215002899262 0 0 1 0 0 0 0 -1 forward_v I I I I #
coedge $-1 $413 $202 $310 $414 forward $121 $-1 #
coedge $-1 $202 $413 $415 $416 forward $121 $-1 #
edge $-1 $417 -33.75958443653402 $311 33.75958443653402 $202 $418 forward 7 unknown #
coedge $-1 $204 $320 $307 $414 reversed $200 $-1 #
vertex $-1 $414 $419 #
straight-curve $-1 -73.507476403777261 -33.75958443653402 -3.1706559404461729 0 0 1 I I #
coedge $-1 $420 $421 $206 $314 forward $305 $-1 #
edge $-1 $321 -33.75958443653402 $318 33.75958443653402 $313 $422 forward 7 unknown #
coedge $-1 $415 $207 $211 $323 forward $317 $-1 #
coedge $-1 $207 $415 $420 $423 reversed $317 $-1 #
loop $-1 $-1 $315 $304 #
vertex $-1 $423 $424 #
straight-curve $-1 -38.218172851669131 33.75958443653402 -4.3559052505500855 1 0 0 I I #
coedge $-1 $310 $209 $421 $425 forward $200 $-1 #
vertex $-1 $425 $426 #
straight-curve $-1 -38.218172851669131 -33.75958443653402 -4.3559052505500855 -1 0 0 I I #
edge $-1 $213 1.1852493101039125 $417 5.1560625707884338 $315 $427 forward 7 unknown #
point $-1 -73.507476403777261 -33.75958443653402 -4.3559052505500855 #
point $-1 -73.507476403777261 33.75958443653402 -4.3559052505500855 #
plane-surface $-1 0 0 8.3267185112346063 0 0 1 1 0 0 forward_v I I I I #
coedge $-1 $337 $336 $329 $428 forward $216 $-1 #
coedge $-1 $329 $218 $220 $333 reversed $129 $-1 #
coedge $-1 $218 $328 $327 $428 reversed $129 $-1 #
coedge $-1 $226 $221 $218 $331 forward $227 $-1 #
edge $-1 $334 -22.288690575593748 $429 -19.510486397330034 $330 $430 forward 7 unknown #
coedge $-1 $220 $219 $337 $431 reversed $81 $-1 #
edge $-1 $432 -67.519168873068068 $334 -63.367207820848357 $328 $433 forward 7 unknown #
vertex $-1 $222 $434 #
straight-curve $-1 -20.168135977027848 30.981380258270299 8.3267185112346063 1 0 0 I I #
coedge $-1 $327 $223 $226 $341 reversed $216 $-1 #
coedge $-1 $223 $327 $332 $431 forward $216 $-1 #
vertex $-1 $224 $435 #
straight-curve $-1 -58.078965683099881 33.75958443653402 80.814559525255802 0 0 1 I I #
straight-curve $-1 -58.078965683099881 -11.419557351360766 55.417731633005076 0 0.66913059716165679 -0.74314483375859142 I I #
edge $-1 $429 22.593578225011512 $228 58.078965683099881 $336 $436 forward 7 unknown #
point $-1 -58.078965683099881 33.75958443653402 8.3267185112346063 #
point $-1 -58.078965683099881 30.981380258270306 8.3267185112346027 #
edge $-1 $437 1 $437 0 $231 $-1 forward 7 unknown #
vertex $-1 $232 $438 #
ellipse-curve $-1 -40.33627195405569 31.091938481369084 5.6327582691359739 0 0.74314483375859142 0.66913059716165679 1 0 0 1 I I #
point $-1 -39.33627195405569 32.370482347402188 6.7839643082726431 #
loop $-1 $-1 $243 $235 #
plane-surface $-1 0 33.75958443653402 0 0 -1 0 0 0 -1 forward_v I I I I #
coedge $-1 $351 $238 $240 $355 reversed $144 $-1 #
coedge $-1 $238 $350 $439 $440 reversed $144 $-1 #
coedge $-1 $246 $241 $238 $353 forward $236 $-1 #
edge $-1 $356 -22.288690575593748 $441 -19.510486397330034 $352 $442 forward 7 unknown #
coedge $-1 $240 $239 $359 $443 reversed $90 $-1 #
edge $-1 $444 -67.519168873068068 $356 -63.367207820848357 $350 $445 forward 7 unknown #
vertex $-1 $242 $446 #
straight-curve $-1 23.097005276588852 30.981380258270299 8.3267185112346063 1 0 0 I I #
coedge $-1 $439 $243 $246 $363 reversed $348 $-1 #
coedge $-1 $243 $439 $354 $443 forward $348 $-1 #
vertex $-1 $244 $447 #
straight-curve $-1 28.451316824133521 33.75958443653402 80.814559525255802 0 0 1 I I #
straight-curve $-1 28.451316824133521 -11.419557351360766 55.417731633005076 0 0.66913059716165679 -0.74314483375859142 I I #
edge $-1 $441 -63.936704282221889 $247 -28.451316824133521 $358 $448 forward 7 unknown #
point $-1 28.451316824133521 33.75958443653402 8.3267185112346063 #
point $-1 28.451316824133521 30.981380258270306 8.3267185112346027 #
edge $-1 $449 1 $449 0 $250 $-1 forward 7 unknown #
vertex $-1 $251 $450 #
ellipse-curve $-1 46.194010553177705 31.091938481369084 5.6327582691359739 0 0.74314483375859142 0.66913059716165679 1 0 0 1 I I #
point $-1 47.194010553177705 32.370482347402188 6.7839643082726431 #
loop $-1 $-1 $262 $254 #
plane-surface $-1 0 -33.75958443653402 0 0 1 0 0 0 1 forward_v I I I I #
coedge $-1 $373 $257 $259 $377 reversed $159 $-1 #
coedge $-1 $257 $372 $451 $452 reversed $159 $-1 #
coedge $-1 $265 $260 $257 $375 forward $255 $-1 #
edge $-1 $378 -56.144565309334631 $453 -51.149475517227863 $374 $454 forward 7 unknown #
coedge $-1 $259 $258 $381 $455 reversed $99 $-1 #
edge $-1 $456 1.3796091775442667e-014 $378 9.6984866981763442 $372 $457 forward 7 unknown #
vertex $-1 $261 $458 #
straight-curve $-1 -32.188248715719965 -28.764494644427252 8.3267185112346063 -1 0 0 I I #
coedge $-1 $451 $262 $265 $385 reversed $370 $-1 #
coedge $-1 $262 $451 $376 $455 forward $370 $-1 #
vertex $-1 $263 $459 #
straight-curve $-1 -55.245518459102612 -33.759584436534027 40.882852900677108 0 0 1 I I #
straight-curve $-1 -55.245518459102612 -33.759584436534027 0.013492771276972348 0 -0.51503806187062418 -0.85716730853699208 I I #
edge $-1 $453 -73.507476403777247 $266 -55.245518459102612 $380 $460 forward 7 unknown #
point $-1 -55.245518459102612 -33.75958443653402 8.3267185112346063 #
point $-1 -55.245518459102612 -28.764494644427252 8.3267185112346063 #
edge $-1 $461 1 $461 0 $269 $-1 forward 7 unknown #
vertex $-1 $270 $462 #
ellipse-curve $-1 -68.289774133870225 -29.993109116003012 3.4076553471736548 0 -0.85716730853699208 0.51503806187062418 0.5 0 0 1 I I #
point $-1 -67.789774133870225 -31.262039540480632 4.1701056412557884 #
edge $-1 $463 1 $463 0 $273 $-1 forward 7 unknown #
vertex $-1 $274 $464 #
ellipse-curve $-1 -60.463220729009656 -29.993109116003012 3.4076553471736548 0 -0.85716730853699208 0.51503806187062418 0.5 0 0 1 I I #
point $-1 -59.963220729009656 -31.262039540480632 4.1701056412557884 #
plane-surface $-1 79.365215002899262 0 0 -1 0 0 0 0 1 forward_v I I I I #
coedge $-1 $282 $280 $284 $401 reversed $181 $-1 #
edge $-1 $295 -8.3267185112346063 $403 8.3267185112346063 $294 $465 forward 7 unknown #
vertex $-1 $401 $466 #
straight-curve $-1 -79.365215002899262 -33.75958443653402 0 0 0 -1 I I #
edge $-1 $399 -33.75958443653402 $403 33.75958443653402 $397 $467 forward 7 unknown #
straight-curve $-1 0 -33.75958443653402 -8.3267185112346063 -1 0 0 I I #
vertex $-1 $287 $468 #
straight-curve $-1 0 33.75958443653402 -8.3267185112346063 1 0 0 I I #
point $-1 79.365215002899262 33.75958443653402 -8.3267185112346063 #
point $-1 79.365215002899262 -33.75958443653402 -8.3267185112346063 #
straight-curve $-1 -79.365215002899262 0 8.3267185112346063 0 -1 0 I I #
point $-1 -79.365215002899262 33.75958443653402 8.3267185112346063 #
point $-1 -79.365215002899262 -33.75958443653402 8.3267185112346063 #
straight-curve $-1 79.365215002899262 -33.75958443653402 0 0 0 -1 I I #
straight-curve $-1 79.365215002899262 33.75958443653402 0 0 0 -1 I I #
plane-surface $-1 0 33.75958443653402 0 0 -1 0 0 0 -1 forward_v I I I I #
coedge $-1 $308 $307 $469 $470 forward $121 $-1 #
edge $-1 $311 73.507476403777261 $471 79.365215002899262 $310 $472 forward 7 unknown #
coedge $-1 $316 $315 $308 $416 reversed $317 $-1 #
edge $-1 $473 -79.365215002899262 $417 -73.507476403777261 $415 $474 forward 7 unknown #
vertex $-1 $323 $475 #
straight-curve $-1 -73.507476403777261 0 -8.3267185112346063 0 -1 0 I I #
point $-1 -73.507476403777261 -33.75958443653402 -8.3267185112346063 #
coedge $-1 $469 $313 $316 $423 forward $305 $-1 #
coedge $-1 $313 $469 $320 $425 reversed $305 $-1 #
straight-curve $-1 -79.365215002899262 0 -4.3559052505500855 0 1 0 I I #
edge $-1 $318 4.3559052505500855 $473 8.3267185112346063 $316 $476 forward 7 unknown #
point $-1 -79.365215002899262 33.75958443653402 -4.3559052505500855 #
edge $-1 $321 4.3559052505500855 $471 8.3267185112346063 $421 $477 forward 7 unknown #
point $-1 -79.365215002899262 -33.75958443653402 -4.3559052505500855 #
straight-curve $-1 -73.507476403777261 33.75958443653402 -3.1706559404461729 0 0 -1 I I #
edge $-1 $429 72.4878410140212 $432 75.57334941994516 $327 $478 forward 7 unknown #
vertex $-1 $341 $479 #
straight-curve $-1 -22.593578225011512 53.270070833864054 8.3267185112346027 0 1 0 I I #
edge $-1 $432 2.4254422479836641 $338 37.910829706072036 $337 $480 forward 7 unknown #
vertex $-1 $431 $481 #
straight-curve $-1 -22.593578225011512 -11.419557351360766 55.417731633005076 0 -0.66913059716165679 0.74314483375859142 I I #
point $-1 -22.593578225011512 30.981380258270306 8.3267185112346027 #
point $-1 -58.078965683099881 33.75958443653402 5.2412101053106426 #
straight-curve $-1 0 33.75958443653402 8.3267185112346063 -1 0 0 I I #
vertex $-1 $344 $482 #
point $-1 -39.33627195405569 31.091938481369084 5.6327582691359739 #
coedge $-1 $359 $358 $351 $440 forward $348 $-1 #
edge $-1 $441 72.4878410140212 $444 75.57334941994516 $439 $483 forward 7 unknown #
vertex $-1 $363 $484 #
straight-curve $-1 63.936704282221889 53.270070833864054 8.3267185112346027 0 1 0 I I #
edge $-1 $444 -40.839699005633037 $360 -5.3543115475446683 $359 $485 forward 7 unknown #
vertex $-1 $443 $486 #
straight-curve $-1 63.936704282221889 -11.419557351360766 55.417731633005076 0 -0.66913059716165679 0.74314483375859142 I I #
point $-1 63.936704282221889 30.981380258270306 8.3267185112346027 #
point $-1 28.451316824133521 33.75958443653402 5.2412101053106426 #
straight-curve $-1 0 33.75958443653402 8.3267185112346063 -1 0 0 I I #
vertex $-1 $366 $487 #
point $-1 47.194010553177705 31.091938481369084 5.6327582691359739 #
coedge $-1 $381 $380 $373 $452 forward $370 $-1 #
edge $-1 $453 32.556134389442505 $456 40.869360129400121 $451 $488 forward 7 unknown #
vertex $-1 $385 $489 #
straight-curve $-1 -73.507476403777247 -84.909059953761883 8.3267185112346098 0 -1 0 I I #
edge $-1 $456 -41.319227688057282 $382 -23.057269743382648 $381 $490 forward 7 unknown #
vertex $-1 $455 $491 #
straight-curve $-1 -73.507476403777247 -33.759584436534027 0.013492771276972348 0 0.51503806187062418 0.85716730853699208 I I #
point $-1 -73.507476403777247 -28.764494644427252 8.3267185112346063 #
point $-1 -55.245518459102612 -33.75958443653402 0.013492771276984174 #
straight-curve $-1 0 -33.75958443653402 8.3267185112346063 1 0 0 I I #
vertex $-1 $388 $492 #
point $-1 -67.789774133870225 -29.993109116003012 3.4076553471736548 #
vertex $-1 $392 $493 #
point $-1 -59.963220729009656 -29.993109116003012 3.4076553471736548 #
straight-curve $-1 -79.365215002899262 33.75958443653402 0 0 0 -1 I I #
point $-1 -79.365215002899262 -33.75958443653402 -8.3267185112346063 #
straight-curve $-1 -79.365215002899262 0 -8.3267185112346063 0 1 0 I I #
point $-1 -79.365215002899262 33.75958443653402 -8.3267185112346063 #
coedge $-1 $421 $420 $413 $470 reversed $305 $-1 #
edge $-1 $471 -33.75958443653402 $473 33.75958443653402 $469 $494 forward 7 unknown #
vertex $-1 $470 $495 #
straight-curve $-1 0 -33.75958443653402 -8.3267185112346063 -1 0 0 I I #
vertex $-1 $416 $496 #
straight-curve $-1 0 33.75958443653402 -8.3267185112346063 1 0 0 I I #
point $-1 -73.507476403777261 33.75958443653402 -8.3267185112346063 #
straight-curve $-1 -79.365215002899262 33.75958443653402 0 0 0 -1 I I #
straight-curve $-1 -79.365215002899262 -33.75958443653402 0 0 0 -1 I I #
straight-curve $-1 -22.593578225011512 33.75958443653402 80.814559525255802 0 0 -1 I I #
point $-1 -22.593578225011512 33.75958443653402 8.3267185112346063 #
straight-curve $-1 -20.168135977027848 33.759584436534027 5.2412101053106461 -1 0 0 I I #
point $-1 -22.593578225011512 33.75958443653402 5.2412101053106426 #
point $-1 -40.33627195405569 30.348793647610492 4.9636276719743178 #
straight-curve $-1 63.936704282221889 33.75958443653402 80.814559525255802 0 0 -1 I I #
point $-1 63.936704282221889 33.75958443653402 8.3267185112346063 #
straight-curve $-1 23.097005276588852 33.759584436534027 5.2412101053106461 -1 0 0 I I #
point $-1 63.936704282221889 33.75958443653402 5.2412101053106426 #
point $-1 46.194010553177705 30.348793647610492 4.9636276719743178 #
straight-curve $-1 -73.507476403777247 -33.759584436534027 40.882852900677108 0 0 -1 I I #
point $-1 -73.507476403777247 -33.75958443653402 8.3267185112346063 #
straight-curve $-1 -32.188248715719965 -33.75958443653402 0.013492771276995394 1 0 0 I I #
point $-1 -73.507476403777247 -33.75958443653402 0.013492771276984174 #
point $-1 -68.289774133870225 -29.564525461734519 3.1501363162383424 #
point $-1 -60.463220729009656 -29.564525461734519 3.1501363162383424 #
straight-curve $-1 -79.365215002899262 0 -8.3267185112346063 0 1 0 I I #
point $-1 -79.365215002899262 -33.75958443653402 -8.3267185112346063 #
point $-1 -79.365215002899262 33.75958443653402 -8.3267185112346063 #
End-of-ACIS-data 