500 0 8 0           
7 Unknown 11 ACIS 5.0 NT 24 Fri Mar 26 17:16:04 1999 
-1 9.9999999999999995e-007 1e-010 
body $-1 $8 $-1 $9 #
body $-1 $10 $-1 $11 #
body $-1 $12 $-1 $13 #
body $-1 $14 $-1 $15 #
body $-1 $16 $-1 $17 #
body $-1 $18 $-1 $19 #
body $-1 $20 $-1 $21 #
body $-1 $22 $-1 $23 #
lump $-1 $-1 $24 $0 #
transform $-1 1 0 0 0 1 0 0 0 1 69.5516830957976 35.263405914703959 16.305410606838318 1 rotate no_reflect no_shear #
lump $-1 $-1 $25 $1 #
transform $-1 1 0 0 0 1 0 0 0 1 6.3757554195673851 35.263405914703959 30.1984245926588 1 rotate no_reflect no_shear #
lump $-1 $-1 $26 $2 #
transform $-1 1 0 0 0 1 0 0 0 1 144.99403477477969 35.263405914703959 28.079543135322581 1 rotate no_reflect no_shear #
lump $-1 $-1 $27 $3 #
transform $-1 1 0 0 0 0.7313536940579346 0.68199836817093118 0 -0.68199836817093118 0.7313536940579346 75.868101283123835 -94.868268749751408 131.25443632526293 1 rotate no_reflect no_shear #
lump $-1 $-1 $28 $4 #
transform $-1 1 0 0 0 -0.7313536940579346 -0.68199836817093118 0 0.68199836817093118 -0.7313536940579346 71.012556878006109 2.5093856533886445 30.151556291838979 1 rotate no_reflect no_shear #
lump $-1 $-1 $29 $5 #
transform $-1 1 0 0 0 -0.7313536940579346 -0.68199836817093118 0 0.68199836817093118 -0.7313536940579346 80.723645688241561 2.5093856533886445 30.151556291838979 1 rotate no_reflect no_shear #
lump $-1 $-1 $30 $6 #
transform $-1 1 0 0 0 0.68199835119979291 -0.73135370988377701 0 0.73135370988377701 0.68199835119979291 51.891141901281799 124.16140536791839 163.2657657724649 1 rotate no_reflect no_shear #
lump $-1 $-1 $31 $7 #
transform $-1 1 0 0 0 -0.68199835119979291 0.73135370988377701 0 -0.73135370988377701 -0.68199835119979291 51.891141901281799 49.770303301856472 12.225213164493923 1 rotate no_reflect no_shear #
shell $-1 $-1 $-1 $32 $-1 $8 #
shell $-1 $-1 $-1 $33 $-1 $10 #
shell $-1 $-1 $-1 $34 $-1 $12 #
shell $-1 $-1 $-1 $35 $-1 $14 #
shell $-1 $-1 $-1 $36 $-1 $16 #
shell $-1 $-1 $-1 $37 $-1 $18 #
shell $-1 $-1 $-1 $38 $-1 $20 #
shell $-1 $-1 $-1 $39 $-1 $22 #
face $-1 $40 $41 $24 $-1 $42 forward single #
face $-1 $43 $44 $25 $-1 $45 forward single #
face $-1 $46 $47 $26 $-1 $48 forward single #
face $-1 $49 $50 $27 $-1 $51 forward single #
face $-1 $52 $53 $28 $-1 $54 forward single #
face $-1 $55 $56 $29 $-1 $57 forward single #
face $-1 $58 $59 $30 $-1 $60 forward single #
face $-1 $61 $62 $31 $-1 $63 forward single #
face $-1 $64 $65 $24 $-1 $66 reversed single #
loop $-1 $-1 $67 $32 #
plane-surface $-1 0 0 16.305410606838318 0 0 1 1 0 0 forward_v I I I I #
face $-1 $68 $69 $25 $-1 $70 reversed single #
loop $-1 $-1 $71 $33 #
plane-surface $-1 0 0 2.4123966210178374 0 0 1 1 0 0 forward_v I I I I #
face $-1 $72 $73 $26 $-1 $74 reversed single #
loop $-1 $-1 $75 $34 #
plane-surface $-1 0 0 3.9236589280025473 0 0 1 1 0 0 forward_v I I I I #
face $-1 $76 $77 $27 $-1 $78 reversed single #
loop $-1 $-1 $79 $35 #
plane-surface $-1 0 0 139.1033661915952 0 0 1 1 0 0 forward_v I I I I #
face $-1 $80 $81 $28 $-1 $82 forward single #
loop $-1 $83 $84 $36 #
cone-surface $-1 0 0 -0.75 0 0 1 0.5 0 0 1 I I 0 1 0.5 forward I I I I #
face $-1 $85 $86 $29 $-1 $87 forward single #
loop $-1 $88 $89 $37 #
cone-surface $-1 0 0 -0.75 0 0 1 0.5 0 0 1 I I 0 1 0.5 forward I I I I #
face $-1 $90 $91 $30 $-1 $92 reversed single #
loop $-1 $-1 $93 $38 #
plane-surface $-1 0 0 139.1033661915952 0 0 1 1 0 0 forward_v I I I I #
face $-1 $94 $95 $31 $-1 $96 forward single #
loop $-1 $97 $98 $39 #
cone-surface $-1 0 0 -10.406125064851834 0 0 1 5 0 0 1 I I 0 1 5 forward I I I I #
face $-1 $99 $100 $24 $-1 $101 reversed single #
loop $-1 $-1 $102 $40 #
plane-surface $-1 0 0 -16.305410606838318 0 0 1 1 0 0 forward_v I I I I #
coedge $-1 $103 $104 $105 $106 forward $41 $-1 #
face $-1 $107 $108 $25 $-1 $109 reversed single #
loop $-1 $-1 $110 $43 #
plane-surface $-1 0 0 -2.4123966210178374 0 0 1 1 0 0 forward_v I I I I #
coedge $-1 $111 $112 $113 $114 forward $44 $-1 #
face $-1 $115 $116 $26 $-1 $117 reversed single #
loop $-1 $-1 $118 $46 #
plane-surface $-1 0 0 -3.9236589280025473 0 0 1 1 0 0 forward_v I I I I #
coedge $-1 $119 $120 $121 $122 forward $47 $-1 #
face $-1 $123 $124 $27 $-1 $125 reversed single #
loop $-1 $-1 $126 $49 #
plane-surface $-1 0 0 -139.1033661915952 0 0 1 1 0 0 forward_v I I I I #
coedge $-1 $127 $128 $129 $130 forward $50 $-1 #
face $-1 $-1 $131 $28 $-1 $132 forward single #
loop $-1 $-1 $133 $52 #
plane-surface $-1 0 0 -1.25 0 0 -1 -1 0 0 forward_v I I I I #
loop $-1 $-1 $134 $36 #
coedge $-1 $84 $84 $133 $135 reversed $53 $-1 #
face $-1 $-1 $136 $29 $-1 $137 forward single #
loop $-1 $-1 $138 $55 #
plane-surface $-1 0 0 -1.25 0 0 -1 -1 0 0 forward_v I I I I #
loop $-1 $-1 $139 $37 #
coedge $-1 $89 $89 $138 $140 reversed $56 $-1 #
face $-1 $141 $142 $30 $-1 $143 reversed single #
loop $-1 $-1 $144 $58 #
plane-surface $-1 0 0 -139.1033661915952 0 0 1 1 0 0 forward_v I I I I #
coedge $-1 $145 $146 $147 $148 forward $59 $-1 #
face $-1 $-1 $149 $31 $-1 $150 forward single #
loop $-1 $-1 $151 $61 #
plane-surface $-1 0 0 -18.312250129703667 0 0 -1 -1 0 0 forward_v I I I I #
loop $-1 $-1 $152 $39 #
coedge $-1 $98 $98 $151 $153 reversed $62 $-1 #
face $-1 $154 $155 $24 $-1 $156 reversed single #
loop $-1 $-1 $157 $64 #
plane-surface $-1 0 -35.263405914703959 0 0 1 0 0 0 1 forward_v I I I I #
coedge $-1 $158 $159 $160 $161 forward $65 $-1 #
coedge $-1 $162 $67 $163 $164 forward $41 $-1 #
coedge $-1 $67 $162 $165 $166 forward $41 $-1 #
coedge $-1 $167 $168 $67 $106 reversed $169 $-1 #
edge $-1 $170 -35.263405914703959 $171 35.263405914703959 $105 $172 forward 7 unknown #
face $-1 $173 $174 $25 $-1 $175 reversed single #
loop $-1 $-1 $176 $68 #
plane-surface $-1 0 -35.263405914703959 0 0 1 0 0 0 1 forward_v I I I I #
coedge $-1 $177 $178 $179 $180 forward $69 $-1 #
coedge $-1 $181 $71 $182 $183 forward $44 $-1 #
coedge $-1 $71 $181 $184 $185 forward $44 $-1 #
coedge $-1 $186 $187 $71 $114 reversed $188 $-1 #
edge $-1 $189 -35.263405914703959 $190 35.263405914703959 $113 $191 forward 7 unknown #
face $-1 $192 $193 $26 $-1 $194 reversed single #
loop $-1 $-1 $195 $72 #
plane-surface $-1 0 -35.263405914703959 0 0 1 0 0 0 1 forward_v I I I I #
coedge $-1 $196 $197 $198 $199 forward $73 $-1 #
coedge $-1 $200 $75 $201 $202 forward $47 $-1 #
coedge $-1 $75 $200 $203 $204 forward $47 $-1 #
coedge $-1 $205 $206 $75 $122 reversed $207 $-1 #
edge $-1 $208 -35.263405914703959 $209 35.263405914703959 $121 $210 forward 7 unknown #
face $-1 $211 $212 $27 $-1 $213 reversed single #
loop $-1 $-1 $214 $76 #
plane-surface $-1 0 -278.2067323831904 0 0 1 0 0 0 1 forward_v I I I I #
coedge $-1 $215 $216 $217 $218 forward $77 $-1 #
coedge $-1 $219 $79 $220 $221 forward $50 $-1 #
coedge $-1 $79 $219 $222 $223 forward $50 $-1 #
coedge $-1 $224 $225 $79 $130 reversed $226 $-1 #
edge $-1 $227 -278.2067323831904 $228 278.2067323831904 $129 $229 forward 7 unknown #
loop $-1 $230 $231 $80 #
cone-surface $-1 0 0 0 0 0 1 0.25 0 0 1 I I -0.70710678118654746 0.70710678118654746 0.25 forward I I I I #
coedge $-1 $133 $133 $84 $135 forward $81 $-1 #
coedge $-1 $134 $134 $231 $232 forward $83 $-1 #
edge $-1 $233 0 $233 6.2831853071796004 $133 $234 forward 7 unknown #
loop $-1 $235 $236 $85 #
cone-surface $-1 0 0 0 0 0 1 0.25 0 0 1 I I -0.70710678118654746 0.70710678118654746 0.25 forward I I I I #
coedge $-1 $138 $138 $89 $140 forward $86 $-1 #
coedge $-1 $139 $139 $236 $237 forward $88 $-1 #
edge $-1 $238 0 $238 6.2831853071796004 $138 $239 forward 7 unknown #
face $-1 $240 $241 $30 $-1 $242 reversed single #
loop $-1 $-1 $243 $90 #
plane-surface $-1 0 -278.2067323831904 0 0 1 0 0 0 1 forward_v I I I I #
coedge $-1 $244 $245 $246 $247 forward $91 $-1 #
coedge $-1 $248 $93 $249 $250 forward $59 $-1 #
coedge $-1 $93 $248 $251 $252 forward $59 $-1 #
coedge $-1 $253 $254 $93 $148 reversed $255 $-1 #
edge $-1 $256 -278.2067323831904 $257 278.2067323831904 $147 $258 forward 7 unknown #
loop $-1 $259 $260 $94 #
cone-surface $-1 0 0 0 0 0 1 2.5 0 0 1 I I -0.70710678118654746 0.70710678118654746 2.5 forward I I I I #
coedge $-1 $151 $151 $98 $153 forward $95 $-1 #
coedge $-1 $152 $152 $260 $261 forward $97 $-1 #
edge $-1 $262 0 $262 6.2831853071796004 $151 $263 forward 7 unknown #
face $-1 $264 $265 $24 $-1 $266 reversed single #
loop $-1 $-1 $267 $99 #
plane-surface $-1 -69.5516830957976 0 0 1 0 0 0 0 -1 forward_v I I I I #
coedge $-1 $268 $165 $269 $270 forward $100 $-1 #
coedge $-1 $271 $102 $268 $272 forward $65 $-1 #
coedge $-1 $102 $271 $273 $274 forward $65 $-1 #
coedge $-1 $168 $167 $102 $161 reversed $169 $-1 #
edge $-1 $275 -35.263405914703959 $276 35.263405914703959 $160 $277 forward 7 unknown #
coedge $-1 $104 $103 $278 $279 forward $41 $-1 #
coedge $-1 $280 $281 $103 $164 reversed $265 $-1 #
edge $-1 $171 -69.5516830957976 $282 69.5516830957976 $163 $283 forward 7 unknown #
coedge $-1 $157 $284 $104 $166 reversed $100 $-1 #
edge $-1 $285 -69.5516830957976 $170 69.5516830957976 $165 $286 forward 7 unknown #
coedge $-1 $160 $105 $284 $287 forward $169 $-1 #
coedge $-1 $105 $160 $280 $288 reversed $169 $-1 #
loop $-1 $-1 $167 $264 #
vertex $-1 $106 $289 #
vertex $-1 $106 $290 #
straight-curve $-1 69.5516830957976 0 16.305410606838318 0 1 0 I I #
face $-1 $291 $292 $25 $-1 $293 reversed single #
loop $-1 $-1 $294 $107 #
plane-surface $-1 -6.3757554195673851 0 0 1 0 0 0 0 -1 forward_v I I I I #
coedge $-1 $295 $184 $296 $297 forward $108 $-1 #
coedge $-1 $298 $110 $295 $299 forward $69 $-1 #
coedge $-1 $110 $298 $300 $301 forward $69 $-1 #
coedge $-1 $187 $186 $110 $180 reversed $188 $-1 #
edge $-1 $302 -35.263405914703959 $303 35.263405914703959 $179 $304 forward 7 unknown #
coedge $-1 $112 $111 $305 $306 forward $44 $-1 #
coedge $-1 $307 $308 $111 $183 reversed $292 $-1 #
edge $-1 $190 -6.3757554195673851 $309 6.3757554195673851 $182 $310 forward 7 unknown #
coedge $-1 $176 $311 $112 $185 reversed $108 $-1 #
edge $-1 $312 -6.3757554195673851 $189 6.3757554195673851 $184 $313 forward 7 unknown #
coedge $-1 $179 $113 $311 $314 forward $188 $-1 #
coedge $-1 $113 $179 $307 $315 reversed $188 $-1 #
loop $-1 $-1 $186 $291 #
vertex $-1 $114 $316 #
vertex $-1 $114 $317 #
straight-curve $-1 6.3757554195673851 0 2.4123966210178374 0 1 0 I I #
face $-1 $318 $319 $26 $-1 $320 reversed single #
loop $-1 $-1 $321 $115 #
plane-surface $-1 -5.8906685831844925 0 0 1 0 0 0 0 -1 forward_v I I I I #
coedge $-1 $322 $203 $323 $324 forward $116 $-1 #
coedge $-1 $325 $118 $322 $326 forward $73 $-1 #
coedge $-1 $118 $325 $327 $328 forward $73 $-1 #
coedge $-1 $206 $205 $118 $199 reversed $207 $-1 #
edge $-1 $329 -35.263405914703959 $330 35.263405914703959 $198 $331 forward 7 unknown #
coedge $-1 $120 $119 $332 $333 forward $47 $-1 #
coedge $-1 $334 $335 $119 $202 reversed $319 $-1 #
edge $-1 $209 -5.8906685831844925 $336 5.8906685831844925 $201 $337 forward 7 unknown #
coedge $-1 $195 $338 $120 $204 reversed $116 $-1 #
edge $-1 $339 -5.8906685831844925 $208 5.8906685831844925 $203 $340 forward 7 unknown #
coedge $-1 $198 $121 $338 $341 forward $207 $-1 #
coedge $-1 $121 $198 $334 $342 reversed $207 $-1 #
loop $-1 $-1 $205 $318 #
vertex $-1 $122 $343 #
vertex $-1 $122 $344 #
straight-curve $-1 5.8906685831844925 0 3.9236589280025473 0 1 0 I I #
face $-1 $345 $346 $27 $-1 $347 reversed single #
loop $-1 $-1 $348 $123 #
plane-surface $-1 -11.329603611941366 0 0 1 0 0 0 0 -1 forward_v I I I I #
coedge $-1 $349 $222 $350 $351 forward $124 $-1 #
coedge $-1 $352 $126 $349 $353 forward $77 $-1 #
coedge $-1 $126 $352 $354 $355 forward $77 $-1 #
coedge $-1 $225 $224 $126 $218 reversed $226 $-1 #
edge $-1 $356 -278.2067323831904 $357 278.2067323831904 $217 $358 forward 7 unknown #
coedge $-1 $128 $127 $359 $360 forward $50 $-1 #
coedge $-1 $361 $362 $127 $221 reversed $346 $-1 #
edge $-1 $228 -11.329603611941366 $363 11.329603611941366 $220 $364 forward 7 unknown #
coedge $-1 $214 $365 $128 $223 reversed $124 $-1 #
edge $-1 $366 -11.329603611941366 $227 11.329603611941366 $222 $367 forward 7 unknown #
coedge $-1 $217 $129 $365 $368 forward $226 $-1 #
coedge $-1 $129 $217 $361 $369 reversed $226 $-1 #
loop $-1 $-1 $224 $345 #
vertex $-1 $130 $370 #
vertex $-1 $130 $371 #
straight-curve $-1 11.329603611941366 0 139.1033661915952 0 1 0 I I #
loop $-1 $-1 $372 $80 #
coedge $-1 $231 $231 $134 $232 reversed $131 $-1 #
edge $-1 $373 0 $373 6.2831853071796004 $231 $374 forward 7 unknown #
vertex $-1 $135 $375 #
ellipse-curve $-1 0 0 -1.25 0 0 -1 0.5 0 0 1 I I #
loop $-1 $-1 $376 $85 #
coedge $-1 $236 $236 $139 $237 reversed $136 $-1 #
edge $-1 $377 0 $377 6.2831853071796004 $236 $378 forward 7 unknown #
vertex $-1 $140 $379 #
ellipse-curve $-1 0 0 -1.25 0 0 -1 0.5 0 0 1 I I #
face $-1 $380 $381 $30 $-1 $382 reversed single #
loop $-1 $-1 $383 $141 #
plane-surface $-1 -16.69886194277916 0 0 1 0 0 0 0 -1 forward_v I I I I #
coedge $-1 $384 $251 $385 $386 forward $142 $-1 #
coedge $-1 $387 $144 $384 $388 forward $91 $-1 #
coedge $-1 $144 $387 $389 $390 forward $91 $-1 #
coedge $-1 $254 $253 $144 $247 reversed $255 $-1 #
edge $-1 $391 -278.2067323831904 $392 278.2067323831904 $246 $393 forward 7 unknown #
coedge $-1 $146 $145 $394 $395 forward $59 $-1 #
coedge $-1 $396 $397 $145 $250 reversed $381 $-1 #
edge $-1 $257 -16.69886194277916 $398 16.69886194277916 $249 $399 forward 7 unknown #
coedge $-1 $243 $400 $146 $252 reversed $142 $-1 #
edge $-1 $401 -16.69886194277916 $256 16.69886194277916 $251 $402 forward 7 unknown #
coedge $-1 $246 $147 $400 $403 forward $255 $-1 #
coedge $-1 $147 $246 $396 $404 reversed $255 $-1 #
loop $-1 $-1 $253 $380 #
vertex $-1 $148 $405 #
vertex $-1 $148 $406 #
straight-curve $-1 16.69886194277916 0 139.1033661915952 0 1 0 I I #
loop $-1 $-1 $407 $94 #
coedge $-1 $260 $260 $152 $261 reversed $149 $-1 #
edge $-1 $408 0 $408 6.2831853071796004 $260 $409 forward 7 unknown #
vertex $-1 $153 $410 #
ellipse-curve $-1 0 0 -18.312250129703667 0 0 -1 5 0 0 1 I I #
face $-1 $-1 $169 $24 $-1 $411 reversed single #
loop $-1 $-1 $280 $154 #
plane-surface $-1 0 35.263405914703959 0 0 -1 0 0 0 -1 forward_v I I I I #
coedge $-1 $412 $278 $281 $413 forward $155 $-1 #
coedge $-1 $284 $157 $158 $272 reversed $100 $-1 #
coedge $-1 $278 $412 $157 $270 reversed $155 $-1 #
edge $-1 $285 -16.305410606838318 $414 16.305410606838318 $269 $415 forward 7 unknown #
coedge $-1 $159 $158 $412 $416 forward $65 $-1 #
edge $-1 $276 -69.5516830957976 $414 69.5516830957976 $268 $417 forward 7 unknown #
coedge $-1 $281 $280 $159 $274 reversed $265 $-1 #
edge $-1 $418 -69.5516830957976 $275 69.5516830957976 $273 $419 forward 7 unknown #
vertex $-1 $161 $420 #
vertex $-1 $287 $421 #
straight-curve $-1 69.5516830957976 0 -16.305410606838318 0 -1 0 I I #
coedge $-1 $267 $269 $162 $279 reversed $155 $-1 #
edge $-1 $282 -35.263405914703959 $285 35.263405914703959 $278 $422 forward 7 unknown #
coedge $-1 $273 $163 $168 $288 forward $265 $-1 #
coedge $-1 $163 $273 $267 $413 reversed $265 $-1 #
vertex $-1 $164 $423 #
straight-curve $-1 0 35.263405914703959 16.305410606838318 -1 0 0 I I #
coedge $-1 $165 $268 $167 $287 reversed $100 $-1 #
vertex $-1 $279 $424 #
straight-curve $-1 0 -35.263405914703959 16.305410606838318 1 0 0 I I #
edge $-1 $170 -16.305410606838318 $276 16.305410606838318 $167 $425 forward 7 unknown #
edge $-1 $171 -16.305410606838318 $275 16.305410606838318 $168 $426 forward 7 unknown #
point $-1 69.5516830957976 -35.263405914703959 16.305410606838318 #
point $-1 69.5516830957976 35.263405914703959 16.305410606838318 #
face $-1 $-1 $188 $25 $-1 $427 reversed single #
loop $-1 $-1 $307 $173 #
plane-surface $-1 0 35.263405914703959 0 0 -1 0 0 0 -1 forward_v I I I I #
coedge $-1 $428 $305 $308 $429 forward $174 $-1 #
coedge $-1 $311 $176 $177 $299 reversed $108 $-1 #
coedge $-1 $305 $428 $176 $297 reversed $174 $-1 #
edge $-1 $312 -2.4123966210178374 $430 2.4123966210178374 $296 $431 forward 7 unknown #
coedge $-1 $178 $177 $428 $432 forward $69 $-1 #
edge $-1 $303 -6.3757554195673851 $430 6.3757554195673851 $295 $433 forward 7 unknown #
coedge $-1 $308 $307 $178 $301 reversed $292 $-1 #
edge $-1 $434 -6.3757554195673851 $302 6.3757554195673851 $300 $435 forward 7 unknown #
vertex $-1 $180 $436 #
vertex $-1 $314 $437 #
straight-curve $-1 6.3757554195673851 0 -2.4123966210178374 0 -1 0 I I #
coedge $-1 $294 $296 $181 $306 reversed $174 $-1 #
edge $-1 $309 -35.263405914703959 $312 35.263405914703959 $305 $438 forward 7 unknown #
coedge $-1 $300 $182 $187 $315 forward $292 $-1 #
coedge $-1 $182 $300 $294 $429 reversed $292 $-1 #
vertex $-1 $183 $439 #
straight-curve $-1 0 35.263405914703959 2.4123966210178374 -1 0 0 I I #
coedge $-1 $184 $295 $186 $314 reversed $108 $-1 #
vertex $-1 $306 $440 #
straight-curve $-1 0 -35.263405914703959 2.4123966210178374 1 0 0 I I #
edge $-1 $189 -2.4123966210178374 $303 2.4123966210178374 $186 $441 forward 7 unknown #
edge $-1 $190 -2.4123966210178374 $302 2.4123966210178374 $187 $442 forward 7 unknown #
point $-1 6.3757554195673851 -35.263405914703959 2.4123966210178374 #
point $-1 6.3757554195673851 35.263405914703959 2.4123966210178374 #
face $-1 $-1 $207 $26 $-1 $443 reversed single #
loop $-1 $-1 $334 $192 #
plane-surface $-1 0 35.263405914703959 0 0 -1 0 0 0 -1 forward_v I I I I #
coedge $-1 $444 $332 $335 $445 forward $193 $-1 #
coedge $-1 $338 $195 $196 $326 reversed $116 $-1 #
coedge $-1 $332 $444 $195 $324 reversed $193 $-1 #
edge $-1 $339 -3.9236589280025473 $446 3.9236589280025473 $323 $447 forward 7 unknown #
coedge $-1 $197 $196 $444 $448 forward $73 $-1 #
edge $-1 $330 -5.8906685831844925 $446 5.8906685831844925 $322 $449 forward 7 unknown #
coedge $-1 $335 $334 $197 $328 reversed $319 $-1 #
edge $-1 $450 -5.8906685831844925 $329 5.8906685831844925 $327 $451 forward 7 unknown #
vertex $-1 $199 $452 #
vertex $-1 $341 $453 #
straight-curve $-1 5.8906685831844925 0 -3.9236589280025473 0 -1 0 I I #
coedge $-1 $321 $323 $200 $333 reversed $193 $-1 #
edge $-1 $336 -35.263405914703959 $339 35.263405914703959 $332 $454 forward 7 unknown #
coedge $-1 $327 $201 $206 $342 forward $319 $-1 #
coedge $-1 $201 $327 $321 $445 reversed $319 $-1 #
vertex $-1 $202 $455 #
straight-curve $-1 0 35.263405914703959 3.9236589280025473 -1 0 0 I I #
coedge $-1 $203 $322 $205 $341 reversed $116 $-1 #
vertex $-1 $333 $456 #
straight-curve $-1 0 -35.263405914703959 3.9236589280025473 1 0 0 I I #
edge $-1 $208 -3.9236589280025473 $330 3.9236589280025473 $205 $457 forward 7 unknown #
edge $-1 $209 -3.9236589280025473 $329 3.9236589280025473 $206 $458 forward 7 unknown #
point $-1 5.8906685831844925 -35.263405914703959 3.9236589280025473 #
point $-1 5.8906685831844925 35.263405914703959 3.9236589280025473 #
face $-1 $-1 $226 $27 $-1 $459 reversed single #
loop $-1 $-1 $361 $211 #
plane-surface $-1 0 278.2067323831904 0 0 -1 0 0 0 -1 forward_v I I I I #
coedge $-1 $460 $359 $362 $461 forward $212 $-1 #
coedge $-1 $365 $214 $215 $353 reversed $124 $-1 #
coedge $-1 $359 $460 $214 $351 reversed $212 $-1 #
edge $-1 $366 -139.1033661915952 $462 139.1033661915952 $350 $463 forward 7 unknown #
coedge $-1 $216 $215 $460 $464 forward $77 $-1 #
edge $-1 $357 -11.329603611941366 $462 11.329603611941366 $349 $465 forward 7 unknown #
coedge $-1 $362 $361 $216 $355 reversed $346 $-1 #
edge $-1 $466 -11.329603611941366 $356 11.329603611941366 $354 $467 forward 7 unknown #
vertex $-1 $218 $468 #
vertex $-1 $368 $469 #
straight-curve $-1 11.329603611941366 0 -139.1033661915952 0 -1 0 I I #
coedge $-1 $348 $350 $219 $360 reversed $212 $-1 #
edge $-1 $363 -278.2067323831904 $366 278.2067323831904 $359 $470 forward 7 unknown #
coedge $-1 $354 $220 $225 $369 forward $346 $-1 #
coedge $-1 $220 $354 $348 $461 reversed $346 $-1 #
vertex $-1 $221 $471 #
straight-curve $-1 0 278.2067323831904 139.1033661915952 -1 0 0 I I #
coedge $-1 $222 $349 $224 $368 reversed $124 $-1 #
vertex $-1 $360 $472 #
straight-curve $-1 0 -278.2067323831904 139.1033661915952 1 0 0 I I #
edge $-1 $227 -139.1033661915952 $357 139.1033661915952 $224 $473 forward 7 unknown #
edge $-1 $228 -139.1033661915952 $356 139.1033661915952 $225 $474 forward 7 unknown #
point $-1 11.329603611941366 -278.2067323831904 139.1033661915952 #
point $-1 11.329603611941366 278.2067323831904 139.1033661915952 #
coedge $-1 $372 $372 $-1 $475 reversed $230 $-1 #
vertex $-1 $232 $476 #
ellipse-curve $-1 0 0 -0.25 0 0 -1 0.5 0 0 1 I I #
point $-1 0.5 0 -1.25 #
coedge $-1 $376 $376 $-1 $477 reversed $235 $-1 #
vertex $-1 $237 $478 #
ellipse-curve $-1 0 0 -0.25 0 0 -1 0.5 0 0 1 I I #
point $-1 0.5 0 -1.25 #
face $-1 $-1 $255 $30 $-1 $479 reversed single #
loop $-1 $-1 $396 $240 #
plane-surface $-1 0 278.2067323831904 0 0 -1 0 0 0 -1 forward_v I I I I #
coedge $-1 $480 $394 $397 $481 forward $241 $-1 #
coedge $-1 $400 $243 $244 $388 reversed $142 $-1 #
coedge $-1 $394 $480 $243 $386 reversed $241 $-1 #
edge $-1 $401 -139.1033661915952 $482 139.1033661915952 $385 $483 forward 7 unknown #
coedge $-1 $245 $244 $480 $484 forward $91 $-1 #
edge $-1 $392 -16.69886194277916 $482 16.69886194277916 $384 $485 forward 7 unknown #
coedge $-1 $397 $396 $245 $390 reversed $381 $-1 #
edge $-1 $486 -16.69886194277916 $391 16.69886194277916 $389 $487 forward 7 unknown #
vertex $-1 $247 $488 #
vertex $-1 $403 $489 #
straight-curve $-1 16.69886194277916 0 -139.1033661915952 0 -1 0 I I #
coedge $-1 $383 $385 $248 $395 reversed $241 $-1 #
edge $-1 $398 -278.2067323831904 $401 278.2067323831904 $394 $490 forward 7 unknown #
coedge $-1 $389 $249 $254 $404 forward $381 $-1 #
coedge $-1 $249 $389 $383 $481 reversed $381 $-1 #
vertex $-1 $250 $491 #
straight-curve $-1 0 278.2067323831904 139.1033661915952 -1 0 0 I I #
coedge $-1 $251 $384 $253 $403 reversed $142 $-1 #
vertex $-1 $395 $492 #
straight-curve $-1 0 -278.2067323831904 139.1033661915952 1 0 0 I I #
edge $-1 $256 -139.1033661915952 $392 139.1033661915952 $253 $493 forward 7 unknown #
edge $-1 $257 -139.1033661915952 $391 139.1033661915952 $254 $494 forward 7 unknown #
point $-1 16.69886194277916 -278.2067323831904 139.1033661915952 #
point $-1 16.69886194277916 278.2067323831904 139.1033661915952 #
coedge $-1 $407 $407 $-1 $495 reversed $259 $-1 #
vertex $-1 $261 $496 #
ellipse-curve $-1 0 0 -2.5 0 0 -1 5 0 0 1 I I #
point $-1 5 0 -18.312250129703667 #
plane-surface $-1 69.5516830957976 0 0 -1 0 0 0 0 1 forward_v I I I I #
coedge $-1 $269 $267 $271 $416 reversed $155 $-1 #
edge $-1 $282 -16.305410606838318 $418 16.305410606838318 $281 $497 forward 7 unknown #
vertex $-1 $416 $498 #
straight-curve $-1 -69.5516830957976 -35.263405914703959 0 0 0 -1 I I #
edge $-1 $414 -35.263405914703959 $418 35.263405914703959 $412 $499 forward 7 unknown #
straight-curve $-1 0 -35.263405914703959 -16.305410606838318 -1 0 0 I I #
vertex $-1 $274 $500 #
straight-curve $-1 0 35.263405914703959 -16.305410606838318 1 0 0 I I #
point $-1 69.5516830957976 35.263405914703959 -16.305410606838318 #
point $-1 69.5516830957976 -35.263405914703959 -16.305410606838318 #
straight-curve $-1 -69.5516830957976 0 16.305410606838318 0 -1 0 I I #
point $-1 -69.5516830957976 35.263405914703959 16.305410606838318 #
point $-1 -69.5516830957976 -35.263405914703959 16.305410606838318 #
straight-curve $-1 69.5516830957976 -35.263405914703959 0 0 0 -1 I I #
straight-curve $-1 69.5516830957976 35.263405914703959 0 0 0 -1 I I #
plane-surface $-1 6.3757554195673851 0 0 -1 0 0 0 0 1 forward_v I I I I #
coedge $-1 $296 $294 $298 $432 reversed $174 $-1 #
edge $-1 $309 -2.4123966210178374 $434 2.4123966210178374 $308 $501 forward 7 unknown #
vertex $-1 $432 $502 #
straight-curve $-1 -6.3757554195673851 -35.263405914703959 0 0 0 -1 I I #
edge $-1 $430 -35.263405914703959 $434 35.263405914703959 $428 $503 forward 7 unknown #
straight-curve $-1 0 -35.263405914703959 -2.4123966210178374 -1 0 0 I I #
vertex $-1 $301 $504 #
straight-curve $-1 0 35.263405914703959 -2.4123966210178374 1 0 0 I I #
point $-1 6.3757554195673851 35.263405914703959 -2.4123966210178374 #
point $-1 6.3757554195673851 -35.263405914703959 -2.4123966210178374 #
straight-curve $-1 -6.3757554195673851 0 2.4123966210178374 0 -1 0 I I #
point $-1 -6.3757554195673851 35.263405914703959 2.4123966210178374 #
point $-1 -6.3757554195673851 -35.263405914703959 2.4123966210178374 #
straight-curve $-1 6.3757554195673851 -35.263405914703959 0 0 0 -1 I I #
straight-curve $-1 6.3757554195673851 35.263405914703959 0 0 0 -1 I I #
plane-surface $-1 5.8906685831844925 0 0 -1 0 0 0 0 1 forward_v I I I I #
coedge $-1 $323 $321 $325 $448 reversed $193 $-1 #
edge $-1 $336 -3.9236589280025473 $450 3.9236589280025473 $335 $505 forward 7 unknown #
vertex $-1 $448 $506 #
straight-curve $-1 -5.8906685831844925 -35.263405914703959 0 0 0 -1 I I #
edge $-1 $446 -35.263405914703959 $450 35.263405914703959 $444 $507 forward 7 unknown #
straight-curve $-1 0 -35.263405914703959 -3.9236589280025473 -1 0 0 I I #
vertex $-1 $328 $508 #
straight-curve $-1 0 35.263405914703959 -3.9236589280025473 1 0 0 I I #
point $-1 5.8906685831844925 35.263405914703959 -3.9236589280025473 #
point $-1 5.8906685831844925 -35.263405914703959 -3.9236589280025473 #
straight-curve $-1 -5.8906685831844925 0 3.9236589280025473 0 -1 0 I I #
point $-1 -5.8906685831844925 35.263405914703959 3.9236589280025473 #
point $-1 -5.8906685831844925 -35.263405914703959 3.9236589280025473 #
straight-curve $-1 5.8906685831844925 -35.263405914703959 0 0 0 -1 I I #
straight-curve $-1 5.8906685831844925 35.263405914703959 0 0 0 -1 I I #
plane-surface $-1 11.329603611941366 0 0 -1 0 0 0 0 1 forward_v I I I I #
coedge $-1 $350 $348 $352 $464 reversed $212 $-1 #
edge $-1 $363 -139.1033661915952 $466 139.1033661915952 $362 $509 forward 7 unknown #
vertex $-1 $464 $510 #
straight-curve $-1 -11.329603611941366 -278.2067323831904 0 0 0 -1 I I #
edge $-1 $462 -278.2067323831904 $466 278.2067323831904 $460 $511 forward 7 unknown #
straight-curve $-1 0 -278.2067323831904 -139.1033661915952 -1 0 0 I I #
vertex $-1 $355 $512 #
straight-curve $-1 0 278.2067323831904 -139.1033661915952 1 0 0 I I #
point $-1 11.329603611941366 278.2067323831904 -139.1033661915952 #
point $-1 11.329603611941366 -278.2067323831904 -139.1033661915952 #
straight-curve $-1 -11.329603611941366 0 139.1033661915952 0 -1 0 I I #
point $-1 -11.329603611941366 278.2067323831904 139.1033661915952 #
point $-1 -11.329603611941366 -278.2067323831904 139.1033661915952 #
straight-curve $-1 11.329603611941366 -278.2067323831904 0 0 0 -1 I I #
straight-curve $-1 11.329603611941366 278.2067323831904 0 0 0 -1 I I #
edge $-1 $513 1 $513 0 $372 $-1 forward 7 unknown #
point $-1 0.5 0 -0.25 #
edge $-1 $514 1 $514 0 $376 $-1 forward 7 unknown #
point $-1 0.5 0 -0.25 #
plane-surface $-1 16.69886194277916 0 0 -1 0 0 0 0 1 forward_v I I I I #
coedge $-1 $385 $383 $387 $484 reversed $241 $-1 #
edge $-1 $398 -139.1033661915952 $486 139.1033661915952 $397 $515 forward 7 unknown #
vertex $-1 $484 $516 #
straight-curve $-1 -16.69886194277916 -278.2067323831904 0 0 0 -1 I I #
edge $-1 $482 -278.2067323831904 $486 278.2067323831904 $480 $517 forward 7 unknown #
straight-curve $-1 0 -278.2067323831904 -139.1033661915952 -1 0 0 I I #
vertex $-1 $390 $518 #
straight-curve $-1 0 278.2067323831904 -139.1033661915952 1 0 0 I I #
point $-1 16.69886194277916 278.2067323831904 -139.1033661915952 #
point $-1 16.69886194277916 -278.2067323831904 -139.1033661915952 #
straight-curve $-1 -16.69886194277916 0 139.1033661915952 0 -1 0 I I #
point $-1 -16.69886194277916 278.2067323831904 139.1033661915952 #
point $-1 -16.69886194277916 -278.2067323831904 139.1033661915952 #
straight-curve $-1 16.69886194277916 -278.2067323831904 0 0 0 -1 I I #
straight-curve $-1 16.69886194277916 278.2067323831904 0 0 0 -1 I I #
edge $-1 $519 1 $519 0 $407 $-1 forward 7 unknown #
point $-1 5 0 -2.5 #
straight-curve $-1 -69.5516830957976 35.263405914703959 0 0 0 -1 I I #
point $-1 -69.5516830957976 -35.263405914703959 -16.305410606838318 #
straight-curve $-1 -69.5516830957976 0 -16.305410606838318 0 1 0 I I #
point $-1 -69.5516830957976 35.263405914703959 -16.305410606838318 #
straight-curve $-1 -6.3757554195673851 35.263405914703959 0 0 0 -1 I I #
point $-1 -6.3757554195673851 -35.263405914703959 -2.4123966210178374 #
straight-curve $-1 -6.3757554195673851 0 -2.4123966210178374 0 1 0 I I #
point $-1 -6.3757554195673851 35.263405914703959 -2.4123966210178374 #
straight-curve $-1 -5.8906685831844925 35.263405914703959 0 0 0 -1 I I #
point $-1 -5.8906685831844925 -35.263405914703959 -3.9236589280025473 #
straight-curve $-1 -5.8906685831844925 0 -3.9236589280025473 0 1 0 I I #
point $-1 -5.8906685831844925 35.263405914703959 -3.9236589280025473 #
straight-curve $-1 -11.329603611941366 278.2067323831904 0 0 0 -1 I I #
point $-1 -11.329603611941366 -278.2067323831904 -139.1033661915952 #
straight-curve $-1 -11.329603611941366 0 -139.1033661915952 0 1 0 I I #
point $-1 -11.329603611941366 278.2067323831904 -139.1033661915952 #
vertex $-1 $475 $520 #
vertex $-1 $477 $521 #
straight-curve $-1 -16.69886194277916 278.2067323831904 0 0 0 -1 I I #
point $-1 -16.69886194277916 -278.2067323831904 -139.1033661915952 #
straight-curve $-1 -16.69886194277916 0 -139.1033661915952 0 1 0 I I #
point $-1 -16.69886194277916 278.2067323831904 -139.1033661915952 #
vertex $-1 $495 $522 #
point $-1 0 0 0.25 #
point $-1 0 0 0.25 #
point $-1 0 0 2.5 #
End-of-ACIS-data 