500 0 6 0           
7 Unknown 11 ACIS 5.0 NT 24 Fri Mar 26 17:39:40 1999 
-1 9.9999999999999995e-007 1e-010 
body $-1 $6 $-1 $7 #
body $-1 $8 $-1 $9 #
body $-1 $10 $-1 $11 #
body $-1 $12 $-1 $13 #
body $-1 $14 $-1 $15 #
body $-1 $16 $-1 $17 #
lump $-1 $-1 $18 $0 #
transform $-1 1 0 0 0 1 0 0 0 1 67.671742912076169 32.598379212228274 12.234514843474866 1 rotate no_reflect no_shear #
lump $-1 $-1 $19 $1 #
transform $-1 1 0 0 0 1 0 0 0 1 67.671742912076169 32.598379212228274 12.234514843474866 1 rotate no_reflect no_shear #
lump $-1 $-1 $20 $2 #
transform $-1 1 0 0 0 1 0 0 0 1 67.671742912076169 32.598379212228274 12.234514843474866 1 rotate no_reflect no_shear #
lump $-1 $-1 $21 $3 #
transform $-1 1 0 0 0 1 0 0 0 1 67.671742912076169 32.598379212228274 12.234514843474866 1 rotate no_reflect no_shear #
lump $-1 $-1 $22 $4 #
transform $-1 1 0 0 0 1 0 0 0 1 67.671742912076169 32.598379212228274 12.234514843474866 1 rotate no_reflect no_shear #
lump $-1 $-1 $23 $5 #
transform $-1 1 0 0 0 1 0 0 0 1 67.671742912076169 32.598379212228274 12.234514843474866 1 rotate no_reflect no_shear #
shell $-1 $-1 $-1 $24 $-1 $6 #
shell $-1 $-1 $-1 $25 $-1 $8 #
shell $-1 $-1 $-1 $26 $-1 $10 #
shell $-1 $-1 $-1 $27 $-1 $12 #
shell $-1 $-1 $-1 $28 $-1 $14 #
shell $-1 $-1 $-1 $29 $-1 $16 #
face $-1 $30 $31 $18 $-1 $32 forward single #
face $-1 $33 $34 $19 $-1 $35 reversed single #
face $-1 $36 $37 $20 $-1 $38 reversed single #
face $-1 $39 $40 $21 $-1 $41 forward single #
face $-1 $42 $43 $22 $-1 $44 reversed single #
face $-1 $45 $46 $23 $-1 $47 forward single #
face $-1 $48 $49 $18 $-1 $50 reversed single #
loop $-1 $-1 $51 $24 #
plane-surface $-1 0 0 12.234514843474866 0 0 1 1 0 0 forward_v I I I I #
face $-1 $52 $53 $19 $-1 $54 reversed single #
loop $-1 $-1 $55 $25 #
plane-surface $-1 -60.583107114452751 -27.071072060217567 0 1 0 0 0 0 -1 forward_v I I I I #
face $-1 $56 $57 $20 $-1 $58 reversed single #
loop $-1 $-1 $59 $26 #
plane-surface $-1 -169.81676940611379 16.420129558257919 89.804215955845592 0 1 0 -0.75470958851134928 0 0.65605901945558964 forward_v I I I I #
face $-1 $60 $61 $21 $-1 $62 forward single #
loop $-1 $63 $64 $27 #
cone-surface $-1 -61.576303976080169 24.509254385243096 5.5646384898587673 0.75470958851134928 0 -0.65605901945558964 0.65605901945558964 0 0.75470958851134928 1 I I 0 1 1 forward I I I I #
face $-1 $65 $66 $22 $-1 $67 reversed single #
loop $-1 $-1 $68 $28 #
plane-surface $-1 81.023454806618943 16.420129558257919 191.94924244988323 0 1 0 0.75470958851134928 0 0.65605901945558964 forward_v I I I I #
face $-1 $69 $70 $23 $-1 $71 forward single #
loop $-1 $72 $73 $29 #
cone-surface $-1 61.576303976080169 24.509254385243096 5.5646384898587744 -0.75470958851134928 0 -0.65605901945558964 0.65605901945558964 0 -0.75470958851134928 1 I I 0 1 1 forward I I I I #
face $-1 $74 $75 $18 $-1 $76 reversed single #
loop $-1 $-1 $77 $30 #
plane-surface $-1 0 0 -12.234514843474866 0 0 1 1 0 0 forward_v I I I I #
coedge $-1 $78 $79 $80 $81 forward $31 $-1 #
face $-1 $82 $83 $19 $-1 $84 reversed single #
loop $-1 $-1 $85 $33 #
plane-surface $-1 -58.817957148861531 -21.54376490820686 0 0 -1 0 0 0 -1 forward_v I I I I #
coedge $-1 $86 $87 $88 $89 forward $34 $-1 #
face $-1 $90 $91 $20 $-1 $92 forward single #
loop $-1 $-1 $93 $36 #
plane-surface $-1 -67.671742912076141 24.509254385243096 1.0109013563507148 -0.75470958851134928 0 0.65605901945558964 0.65605901945558964 0 0.75470958851134928 forward_v I I I I #
coedge $-1 $94 $95 $96 $97 reversed $37 $-1 #
face $-1 $-1 $98 $21 $-1 $99 forward single #
loop $-1 $100 $101 $39 #
cone-surface $-1 -59.981779298720255 24.509254385243096 4.178539370076944 0.75470958851134928 0 -0.65605901945558964 0.32802950972779482 0 0.37735479425567464 1 I I -0.70710678118654746 0.70710678118654746 0.5 forward I I I I #
loop $-1 $-1 $102 $27 #
coedge $-1 $64 $64 $103 $104 reversed $40 $-1 #
face $-1 $105 $106 $22 $-1 $107 reversed single #
loop $-1 $-1 $108 $42 #
plane-surface $-1 -21.121571687418708 24.509254385243096 103.15592785038835 0.75470958851134928 0 0.65605901945558964 0.65605901945558964 0 -0.75470958851134928 forward_v I I I I #
coedge $-1 $109 $110 $111 $112 reversed $43 $-1 #
face $-1 $-1 $113 $23 $-1 $114 forward single #
loop $-1 $115 $116 $45 #
cone-surface $-1 59.981779298720255 24.509254385243096 4.1785393700769511 -0.75470958851134928 0 -0.65605901945558964 0.32802950972779482 0 -0.37735479425567464 1 I I -0.70710678118654746 0.70710678118654746 0.5 forward I I I I #
loop $-1 $-1 $117 $29 #
coedge $-1 $73 $73 $118 $119 reversed $46 $-1 #
face $-1 $120 $121 $18 $-1 $122 reversed single #
loop $-1 $-1 $123 $48 #
plane-surface $-1 0 -32.598379212228274 0 0 1 0 0 0 1 forward_v I I I I #
coedge $-1 $124 $125 $126 $127 forward $49 $-1 #
coedge $-1 $128 $51 $129 $130 forward $31 $-1 #
coedge $-1 $51 $128 $131 $132 forward $31 $-1 #
coedge $-1 $133 $134 $51 $81 reversed $135 $-1 #
edge $-1 $136 -32.598379212228274 $137 32.598379212228274 $80 $138 forward 7 unknown #
face $-1 $139 $140 $19 $-1 $141 forward single #
loop $-1 $-1 $142 $52 #
plane-surface $-1 -57.052807183270311 -27.071072060217567 0 -1 0 0 0 0 1 forward_v I I I I #
coedge $-1 $143 $144 $145 $146 forward $53 $-1 #
coedge $-1 $147 $55 $148 $149 reversed $34 $-1 #
coedge $-1 $55 $147 $150 $151 reversed $34 $-1 #
coedge $-1 $144 $143 $55 $89 reversed $53 $-1 #
edge $-1 $152 -12.234514843474866 $153 12.234514843474866 $88 $154 forward 7 unknown #
face $-1 $155 $156 $20 $-1 $157 reversed single #
loop $-1 $-1 $96 $56 #
plane-surface $-1 0 0 12.234514843474866 0 0 1 1 0 0 forward_v I I I I #
coedge $-1 $158 $159 $160 $161 reversed $57 $-1 #
coedge $-1 $95 $59 $162 $163 reversed $37 $-1 #
coedge $-1 $59 $94 $158 $164 reversed $37 $-1 #
coedge $-1 $160 $165 $59 $97 forward $91 $-1 #
edge $-1 $166 17.236641790980727 $167 26.993179896764303 $96 $168 forward 7 unknown #
loop $-1 $-1 $103 $60 #
plane-surface $-1 -67.671742912076141 24.509254385243096 1.0109013563507148 -0.75470958851134928 0 0.65605901945558964 0.65605901945558964 0 0.75470958851134928 forward_v I I I I #
loop $-1 $-1 $169 $39 #
coedge $-1 $101 $101 $102 $170 reversed $61 $-1 #
coedge $-1 $102 $102 $101 $170 forward $63 $-1 #
coedge $-1 $103 $103 $64 $104 forward $98 $-1 #
edge $-1 $171 0 $171 6.2831853071796004 $103 $172 forward 7 unknown #
face $-1 $173 $174 $22 $-1 $175 forward single #
loop $-1 $-1 $111 $65 #
plane-surface $-1 67.671742912076169 0 0 -1 0 0 0 0 1 forward_v I I I I #
coedge $-1 $176 $177 $178 $179 reversed $66 $-1 #
coedge $-1 $110 $68 $180 $181 reversed $43 $-1 #
coedge $-1 $68 $109 $176 $182 reversed $43 $-1 #
coedge $-1 $178 $183 $68 $112 forward $106 $-1 #
edge $-1 $184 83.740106381466745 $185 94.9637198685909 $111 $186 forward 7 unknown #
loop $-1 $-1 $118 $69 #
plane-surface $-1 -21.121571687418708 24.509254385243096 103.15592785038835 0.75470958851134928 0 0.65605901945558964 0.65605901945558964 0 -0.75470958851134928 forward_v I I I I #
loop $-1 $-1 $187 $45 #
coedge $-1 $116 $116 $117 $188 reversed $70 $-1 #
coedge $-1 $117 $117 $116 $188 forward $72 $-1 #
coedge $-1 $118 $118 $73 $119 forward $113 $-1 #
edge $-1 $189 0 $189 6.2831853071796004 $118 $190 forward 7 unknown #
face $-1 $191 $192 $18 $-1 $193 reversed single #
loop $-1 $-1 $194 $74 #
plane-surface $-1 -67.671742912076169 0 0 1 0 0 0 0 -1 forward_v I I I I #
coedge $-1 $195 $131 $196 $197 forward $75 $-1 #
coedge $-1 $198 $77 $195 $199 forward $49 $-1 #
coedge $-1 $77 $198 $200 $201 forward $49 $-1 #
coedge $-1 $134 $133 $77 $127 reversed $135 $-1 #
edge $-1 $202 -32.598379212228274 $203 32.598379212228274 $126 $204 forward 7 unknown #
coedge $-1 $79 $78 $205 $206 forward $31 $-1 #
coedge $-1 $207 $208 $78 $130 reversed $192 $-1 #
edge $-1 $137 -67.671742912076169 $209 67.671742912076169 $129 $210 forward 7 unknown #
coedge $-1 $123 $211 $79 $132 reversed $75 $-1 #
edge $-1 $212 -67.671742912076169 $136 67.671742912076169 $131 $213 forward 7 unknown #
coedge $-1 $126 $80 $211 $214 forward $135 $-1 #
coedge $-1 $80 $126 $207 $215 reversed $135 $-1 #
loop $-1 $-1 $133 $191 #
vertex $-1 $81 $216 #
vertex $-1 $81 $217 #
straight-curve $-1 67.671742912076169 0 12.234514843474866 0 1 0 I I #
face $-1 $218 $219 $19 $-1 $220 reversed single #
loop $-1 $-1 $221 $82 #
plane-surface $-1 0 0 12.234514843474866 0 0 1 1 0 0 forward_v I I I I #
coedge $-1 $222 $223 $224 $225 reversed $83 $-1 #
coedge $-1 $88 $85 $226 $227 reversed $53 $-1 #
coedge $-1 $85 $88 $228 $229 reversed $53 $-1 #
coedge $-1 $223 $222 $85 $146 reversed $83 $-1 #
edge $-1 $230 -12.234514843474866 $231 12.234514843474866 $145 $232 forward 7 unknown #
coedge $-1 $87 $86 $233 $234 reversed $34 $-1 #
coedge $-1 $226 $235 $86 $149 forward $219 $-1 #
edge $-1 $236 -19.06284318211949 $153 -8.0082288780980768 $148 $237 forward 7 unknown #
coedge $-1 $238 $228 $87 $151 forward $140 $-1 #
edge $-1 $152 8.0082288780980768 $239 19.06284318211949 $150 $240 forward 7 unknown #
vertex $-1 $151 $241 #
vertex $-1 $149 $242 #
straight-curve $-1 -60.583107114452751 -21.54376490820686 0 0 0 -1 I I #
face $-1 $-1 $243 $20 $-1 $244 reversed single #
loop $-1 $-1 $245 $90 #
plane-surface $-1 0 32.598379212228274 0 0 -1 0 0 0 -1 forward_v I I I I #
coedge $-1 $246 $93 $95 $164 forward $57 $-1 #
coedge $-1 $93 $246 $245 $247 reversed $57 $-1 #
coedge $-1 $248 $96 $93 $161 forward $91 $-1 #
edge $-1 $167 4.165502365636371 $249 20.343752019606725 $160 $250 forward 7 unknown #
coedge $-1 $251 $252 $94 $163 forward $243 $-1 #
edge $-1 $253 -43.891206621572117 $166 -32.667593134447927 $162 $254 forward 7 unknown #
edge $-1 $167 -14.871433539439353 $253 4.328046010504047e-014 $95 $255 forward 7 unknown #
coedge $-1 $96 $248 $251 $256 forward $91 $-1 #
vertex $-1 $163 $257 #
vertex $-1 $97 $258 #
straight-curve $-1 -84.908384703056896 16.420129558257919 12.234514843474869 1 0 0 I I #
coedge $-1 $169 $169 $-1 $259 reversed $100 $-1 #
edge $-1 $260 0 $260 6.2831853071796004 $101 $261 forward 7 unknown #
vertex $-1 $104 $262 #
ellipse-curve $-1 -62.793473859184381 24.509254385243096 6.6227080999127743 -0.75470958851134928 0 0.65605901945558964 0.65605901945558964 0 0.75470958851134928 1 I I #
face $-1 $-1 $263 $22 $-1 $264 reversed single #
loop $-1 $-1 $180 $105 #
plane-surface $-1 0 0 12.234514843474866 0 0 1 1 0 0 forward_v I I I I #
coedge $-1 $265 $108 $110 $182 forward $66 $-1 #
coedge $-1 $108 $265 $266 $267 reversed $66 $-1 #
coedge $-1 $268 $111 $108 $179 forward $106 $-1 #
edge $-1 $185 4.165502365636371 $269 20.343752019606725 $178 $270 forward 7 unknown #
coedge $-1 $271 $272 $109 $181 forward $174 $-1 #
edge $-1 $273 17.40347740298315 $184 27.160015508766698 $180 $274 forward 7 unknown #
edge $-1 $185 -135.34348582415237 $273 -120.472052284713 $110 $275 forward 7 unknown #
coedge $-1 $111 $268 $271 $276 reversed $106 $-1 #
vertex $-1 $276 $277 #
vertex $-1 $112 $278 #
straight-curve $-1 67.671742912076169 16.420129558257919 95.974621224941615 0 0 -1 I I #
coedge $-1 $187 $187 $-1 $279 reversed $115 $-1 #
edge $-1 $280 0 $280 6.2831853071796004 $116 $281 forward 7 unknown #
vertex $-1 $119 $282 #
ellipse-curve $-1 62.793473859184395 24.509254385243096 6.6227080999127921 0.75470958851134928 0 0.65605901945558964 0.65605901945558964 0 -0.75470958851134928 1 I I #
face $-1 $-1 $135 $18 $-1 $283 reversed single #
loop $-1 $-1 $207 $120 #
plane-surface $-1 0 32.598379212228274 0 0 -1 0 0 0 -1 forward_v I I I I #
coedge $-1 $284 $205 $208 $285 forward $121 $-1 #
coedge $-1 $211 $123 $124 $199 reversed $75 $-1 #
coedge $-1 $205 $284 $123 $197 reversed $121 $-1 #
edge $-1 $212 -12.234514843474866 $286 12.234514843474866 $196 $287 forward 7 unknown #
coedge $-1 $125 $124 $284 $288 forward $49 $-1 #
edge $-1 $203 -67.671742912076169 $286 67.671742912076169 $195 $289 forward 7 unknown #
coedge $-1 $208 $207 $125 $201 reversed $192 $-1 #
edge $-1 $290 -67.671742912076169 $202 67.671742912076169 $200 $291 forward 7 unknown #
vertex $-1 $127 $292 #
vertex $-1 $214 $293 #
straight-curve $-1 67.671742912076169 0 -12.234514843474866 0 -1 0 I I #
coedge $-1 $194 $196 $128 $206 reversed $121 $-1 #
edge $-1 $209 -32.598379212228274 $212 32.598379212228274 $205 $294 forward 7 unknown #
coedge $-1 $200 $129 $134 $215 forward $192 $-1 #
coedge $-1 $129 $200 $194 $285 reversed $192 $-1 #
vertex $-1 $130 $295 #
straight-curve $-1 0 32.598379212228274 12.234514843474866 -1 0 0 I I #
coedge $-1 $131 $195 $133 $214 reversed $75 $-1 #
vertex $-1 $206 $296 #
straight-curve $-1 0 -32.598379212228274 12.234514843474866 1 0 0 I I #
edge $-1 $136 -12.234514843474866 $203 12.234514843474866 $133 $297 forward 7 unknown #
edge $-1 $137 -12.234514843474866 $202 12.234514843474866 $134 $298 forward 7 unknown #
point $-1 67.671742912076169 -32.598379212228274 12.234514843474866 #
point $-1 67.671742912076169 32.598379212228274 12.234514843474866 #
face $-1 $-1 $299 $19 $-1 $300 reversed single #
loop $-1 $-1 $301 $139 #
plane-surface $-1 0 0 -12.234514843474866 0 0 1 1 0 0 forward_v I I I I #
coedge $-1 $228 $238 $223 $302 forward $140 $-1 #
coedge $-1 $145 $142 $301 $303 reversed $83 $-1 #
coedge $-1 $142 $145 $221 $302 reversed $83 $-1 #
coedge $-1 $304 $305 $142 $225 forward $299 $-1 #
edge $-1 $306 -12.234514843474866 $307 12.234514843474866 $224 $308 forward 7 unknown #
coedge $-1 $301 $148 $143 $227 forward $219 $-1 #
edge $-1 $153 -31.174128540021986 $231 -27.643828608839545 $226 $309 forward 7 unknown #
coedge $-1 $150 $221 $144 $229 forward $140 $-1 #
edge $-1 $230 27.643828608839545 $152 31.174128540021986 $228 $310 forward 7 unknown #
vertex $-1 $229 $311 #
vertex $-1 $227 $312 #
straight-curve $-1 -57.052807183270311 -21.54376490820686 0 0 0 -1 I I #
coedge $-1 $305 $304 $147 $234 forward $299 $-1 #
edge $-1 $239 -12.234514843474866 $236 12.234514843474866 $233 $313 forward 7 unknown #
coedge $-1 $148 $301 $305 $314 forward $219 $-1 #
vertex $-1 $149 $315 #
straight-curve $-1 -60.583107114452751 -13.535536030108783 -12.234514843474866 0 1 0 I I #
coedge $-1 $221 $150 $304 $316 forward $140 $-1 #
vertex $-1 $316 $317 #
straight-curve $-1 -60.583107114452751 -13.535536030108783 12.234514843474866 0 -1 0 I I #
point $-1 -60.583107114452751 -21.54376490820686 12.234514843474866 #
point $-1 -60.583107114452751 -21.54376490820686 -12.234514843474866 #
loop $-1 $-1 $162 $155 #
plane-surface $-1 -67.671742912076169 0 0 1 0 0 0 0 -1 forward_v I I I I #
coedge $-1 $318 $319 $159 $247 forward $156 $-1 #
coedge $-1 $159 $158 $252 $320 reversed $57 $-1 #
edge $-1 $249 6.9454266370958599 $321 21.816860176535254 $245 $322 forward 7 unknown #
coedge $-1 $165 $160 $319 $323 forward $91 $-1 #
vertex $-1 $323 $324 #
straight-curve $-1 -57.915204806292593 12.254627192621548 12.234514843474864 0 1 0 I I #
coedge $-1 $325 $162 $165 $256 reversed $243 $-1 #
coedge $-1 $162 $325 $246 $320 forward $243 $-1 #
vertex $-1 $163 $326 #
straight-curve $-1 -67.671742912076169 16.420129558257919 44.902107977922796 0 0 1 I I #
straight-curve $-1 -67.671742912076141 16.420129558257919 1.0109013563507148 -0.65605901945558964 0 -0.75470958851134928 I I #
edge $-1 $327 -32.598379212228274 $166 -16.420129558257919 $251 $328 forward 7 unknown #
point $-1 -67.671742912076169 16.420129558257919 12.234514843474866 #
point $-1 -57.915204806292593 16.420129558257919 12.234514843474866 #
edge $-1 $329 1 $329 0 $169 $-1 forward 7 unknown #
vertex $-1 $170 $330 #
ellipse-curve $-1 -60.359134092975928 24.509254385243096 4.506568879804739 -0.75470958851134928 0 0.65605901945558964 0.65605901945558964 0 0.75470958851134928 1 I I #
point $-1 -62.137414839728812 24.509254385243096 7.3774176884241465 #
loop $-1 $-1 $266 $173 #
plane-surface $-1 0 32.598379212228274 0 0 -1 0 0 0 -1 forward_v I I I I #
coedge $-1 $177 $176 $272 $331 reversed $66 $-1 #
coedge $-1 $332 $333 $177 $267 forward $263 $-1 #
edge $-1 $269 -89.488603088611399 $334 -74.617169549172033 $266 $335 forward 7 unknown #
coedge $-1 $183 $178 $333 $336 reversed $106 $-1 #
vertex $-1 $179 $337 #
straight-curve $-1 67.671742912076169 12.254627192621548 1.0109013563507077 0 1 0 I I #
coedge $-1 $338 $180 $183 $276 forward $174 $-1 #
coedge $-1 $180 $338 $265 $331 forward $174 $-1 #
vertex $-1 $181 $339 #
straight-curve $-1 40.511727403309472 16.420129558257919 12.234514843474869 1 0 0 I I #
straight-curve $-1 -21.121571687418708 16.420129558257919 103.15592785038835 -0.65605901945558964 0 0.75470958851134928 I I #
edge $-1 $184 16.420129558257919 $340 32.598379212228274 $183 $341 forward 7 unknown #
point $-1 67.671742912076169 16.420129558257919 12.234514843474866 #
point $-1 67.671742912076169 16.420129558257919 1.0109013563507148 #
edge $-1 $342 1 $342 0 $187 $-1 forward 7 unknown #
vertex $-1 $188 $343 #
ellipse-curve $-1 60.359134092975928 24.509254385243096 4.5065688798047461 0.75470958851134928 0 0.65605901945558964 0.65605901945558964 0 -0.75470958851134928 1 I I #
point $-1 63.449532878639992 24.509254385243096 5.8679985114014546 #
plane-surface $-1 67.671742912076169 0 0 -1 0 0 0 0 1 forward_v I I I I #
coedge $-1 $196 $194 $198 $288 reversed $121 $-1 #
edge $-1 $209 -12.234514843474866 $290 12.234514843474866 $208 $344 forward 7 unknown #
vertex $-1 $288 $345 #
straight-curve $-1 -67.671742912076169 -32.598379212228274 0 0 0 -1 I I #
edge $-1 $286 -32.598379212228274 $290 32.598379212228274 $284 $346 forward 7 unknown #
straight-curve $-1 0 -32.598379212228274 -12.234514843474866 -1 0 0 I I #
vertex $-1 $201 $347 #
straight-curve $-1 0 32.598379212228274 -12.234514843474866 1 0 0 I I #
point $-1 67.671742912076169 32.598379212228274 -12.234514843474866 #
point $-1 67.671742912076169 -32.598379212228274 -12.234514843474866 #
straight-curve $-1 -67.671742912076169 0 12.234514843474866 0 -1 0 I I #
point $-1 -67.671742912076169 32.598379212228274 12.234514843474866 #
point $-1 -67.671742912076169 -32.598379212228274 12.234514843474866 #
straight-curve $-1 67.671742912076169 -32.598379212228274 0 0 0 -1 I I #
straight-curve $-1 67.671742912076169 32.598379212228274 0 0 0 -1 I I #
loop $-1 $-1 $224 $218 #
plane-surface $-1 0 -32.598379212228274 0 0 1 0 0 0 1 forward_v I I I I #
coedge $-1 $235 $226 $222 $303 forward $219 $-1 #
edge $-1 $307 -19.06284318211949 $230 -8.0082288780980768 $221 $348 forward 7 unknown #
edge $-1 $231 8.0082288780980768 $306 19.06284318211949 $301 $349 forward 7 unknown #
coedge $-1 $233 $224 $238 $316 reversed $299 $-1 #
coedge $-1 $224 $233 $235 $314 reversed $299 $-1 #
vertex $-1 $314 $350 #
vertex $-1 $225 $351 #
straight-curve $-1 -57.052807183270311 -32.598379212228274 0 0 0 1 I I #
straight-curve $-1 -29.408978574430765 -21.54376490820686 -12.234514843474866 1 0 0 I I #
straight-curve $-1 -29.408978574430765 -21.54376490820686 12.234514843474866 -1 0 0 I I #
point $-1 -57.052807183270311 -21.54376490820686 12.234514843474866 #
point $-1 -57.052807183270311 -21.54376490820686 -12.234514843474866 #
straight-curve $-1 -60.583107114452751 -32.598379212228274 0 0 0 -1 I I #
edge $-1 $306 57.052807183270311 $236 60.583107114452751 $305 $352 forward 7 unknown #
point $-1 -60.583107114452751 -32.598379212228274 -12.234514843474866 #
edge $-1 $239 -60.583107114452751 $307 -57.052807183270311 $304 $353 forward 7 unknown #
point $-1 -60.583107114452751 -32.598379212228274 12.234514843474866 #
coedge $-1 $319 $245 $325 $354 reversed $156 $-1 #
coedge $-1 $245 $318 $248 $323 reversed $156 $-1 #
edge $-1 $321 -20.343752019606725 $253 -4.165502365636371 $252 $355 forward 7 unknown #
vertex $-1 $247 $356 #
straight-curve $-1 -53.358595017058747 32.598379212228274 17.476294922793244 -0.65605901945558975 0 -0.75470958851134939 I I #
edge $-1 $249 57.915204806292593 $327 67.671742912076169 $319 $357 forward 7 unknown #
point $-1 -57.915204806292593 32.598379212228274 12.234514843474866 #
coedge $-1 $252 $251 $318 $354 forward $243 $-1 #
point $-1 -67.671742912076169 16.420129558257919 1.0109013563506821 #
vertex $-1 $323 $358 #
straight-curve $-1 -67.671742912076169 0 12.234514843474866 0 -1 0 I I #
vertex $-1 $259 $359 #
point $-1 -59.703075073520338 24.509254385243096 5.261278468316088 #
edge $-1 $334 -20.343752019606725 $273 -4.165502365636371 $272 $360 forward 7 unknown #
coedge $-1 $333 $266 $338 $361 reversed $263 $-1 #
coedge $-1 $266 $332 $268 $336 forward $263 $-1 #
vertex $-1 $267 $362 #
straight-curve $-1 8.9619377173113293 32.598379212228274 68.548808169812062 -0.65605901945558975 0 0.75470958851134939 I I #
edge $-1 $340 -12.234514843474866 $269 -1.0109013563507014 $268 $363 forward 7 unknown #
point $-1 67.671742912076169 32.598379212228274 1.0109013563507014 #
coedge $-1 $272 $271 $332 $361 forward $174 $-1 #
point $-1 57.915204806292621 16.420129558257919 12.234514843474869 #
vertex $-1 $276 $364 #
straight-curve $-1 67.671742912076169 0 12.234514843474866 0 1 0 I I #
vertex $-1 $279 $365 #
point $-1 61.015193112431518 24.509254385243096 3.7518592912933966 #
straight-curve $-1 -67.671742912076169 32.598379212228274 0 0 0 -1 I I #
point $-1 -67.671742912076169 -32.598379212228274 -12.234514843474866 #
straight-curve $-1 -67.671742912076169 0 -12.234514843474866 0 1 0 I I #
point $-1 -67.671742912076169 32.598379212228274 -12.234514843474866 #
straight-curve $-1 -57.052807183270311 -13.535536030108783 12.234514843474866 0 1 0 I I #
straight-curve $-1 -57.052807183270311 -13.535536030108783 -12.234514843474866 0 -1 0 I I #
point $-1 -57.052807183270311 -32.598379212228274 -12.234514843474866 #
point $-1 -57.052807183270311 -32.598379212228274 12.234514843474866 #
straight-curve $-1 0 -32.598379212228274 -12.234514843474866 -1 0 0 I I #
straight-curve $-1 0 -32.598379212228274 12.234514843474866 1 0 0 I I #
edge $-1 $327 -12.234514843474866 $321 -1.0109013563506821 $318 $366 forward 7 unknown #
straight-curve $-1 -67.671742912076169 12.254627192621548 1.0109013563506795 0 -1 0 I I #
point $-1 -67.671742912076169 32.598379212228274 1.0109013563506821 #
straight-curve $-1 0 32.598379212228274 12.234514843474866 -1 0 0 I I #
point $-1 -67.671742912076169 32.598379212228274 12.234514843474866 #
point $-1 -59.604424504464582 24.509254385243096 3.850509860349149 #
straight-curve $-1 57.915204806292607 12.254627192621548 12.234514843474862 0 -1 0 I I #
edge $-1 $340 -67.671742912076169 $334 -57.915204806292621 $332 $367 forward 7 unknown #
point $-1 57.915204806292621 32.598379212228274 12.234514843474869 #
straight-curve $-1 67.671742912076169 32.598379212228274 0 0 0 -1 I I #
point $-1 67.671742912076169 32.598379212228274 12.234514843474866 #
point $-1 59.604424504464582 24.509254385243096 3.8505098603491561 #
straight-curve $-1 -67.671742912076169 32.598379212228274 0 0 0 -1 I I #
straight-curve $-1 0 32.598379212228274 12.234514843474866 -1 0 0 I I #
End-of-ACIS-data 