500 0 10 0           
7 Unknown 11 ACIS 5.0 NT 24 Fri Mar 26 15:23:08 1999 
-1 9.9999999999999995e-007 1e-010 
body $-1 $10 $-1 $11 #
body $-1 $12 $-1 $13 #
body $-1 $14 $-1 $15 #
body $-1 $16 $-1 $17 #
body $-1 $18 $-1 $19 #
body $-1 $20 $-1 $21 #
body $-1 $22 $-1 $23 #
body $-1 $24 $-1 $25 #
body $-1 $26 $-1 $27 #
body $-1 $28 $-1 $29 #
lump $-1 $-1 $30 $0 #
transform $-1 1 0 0 0 1 0 0 0 1 75.961790826136053 44.339365821647576 17.557263026804257 1 rotate no_reflect no_shear #
lump $-1 $-1 $31 $1 #
transform $-1 1 0 0 0 1 0 0 0 1 75.961790826136053 44.339365821647576 17.557263026804257 1 rotate no_reflect no_shear #
lump $-1 $-1 $32 $2 #
transform $-1 1 0 0 0 1 0 0 0 1 75.961790826136053 44.339365821647576 17.557263026804257 1 rotate no_reflect no_shear #
lump $-1 $-1 $33 $3 #
transform $-1 1 0 0 0 1 0 0 0 1 75.961790826136053 44.339365821647576 17.557263026804257 1 rotate no_reflect no_shear #
lump $-1 $-1 $34 $4 #
transform $-1 1 0 0 0 1 0 0 0 1 75.961790826136053 44.339365821647576 17.557263026804257 1 rotate no_reflect no_shear #
lump $-1 $-1 $35 $5 #
transform $-1 1 0 0 0 1 0 0 0 1 75.961790826136053 44.339365821647576 17.557263026804257 1 rotate no_reflect no_shear #
lump $-1 $-1 $36 $6 #
transform $-1 1 0 0 0 1 0 0 0 1 75.961790826136053 44.339365821647576 17.557263026804257 1 rotate no_reflect no_shear #
lump $-1 $-1 $37 $7 #
transform $-1 1 0 0 0 1 0 0 0 1 75.961790826136053 44.339365821647576 17.557263026804257 1 rotate no_reflect no_shear #
lump $-1 $-1 $38 $8 #
transform $-1 1 0 0 0 1 0 0 0 1 75.961790826136053 44.339365821647576 17.557263026804257 1 rotate no_reflect no_shear #
lump $-1 $-1 $39 $9 #
transform $-1 1 0 0 0 1 0 0 0 1 75.961790826136053 44.339365821647576 17.557263026804257 1 rotate no_reflect no_shear #
shell $-1 $-1 $-1 $40 $-1 $10 #
shell $-1 $-1 $-1 $41 $-1 $12 #
shell $-1 $-1 $-1 $42 $-1 $14 #
shell $-1 $-1 $-1 $43 $-1 $16 #
shell $-1 $-1 $-1 $44 $-1 $18 #
shell $-1 $-1 $-1 $45 $-1 $20 #
shell $-1 $-1 $-1 $46 $-1 $22 #
shell $-1 $-1 $-1 $47 $-1 $24 #
shell $-1 $-1 $-1 $48 $-1 $26 #
shell $-1 $-1 $-1 $49 $-1 $28 #
face $-1 $50 $51 $30 $-1 $52 forward single #
face $-1 $53 $54 $31 $-1 $55 forward single #
face $-1 $56 $57 $32 $-1 $58 reversed single #
face $-1 $59 $60 $33 $-1 $61 forward single #
face $-1 $62 $63 $34 $-1 $64 reversed single #
face $-1 $65 $66 $35 $-1 $67 forward single #
face $-1 $68 $69 $36 $-1 $70 forward single #
face $-1 $71 $72 $37 $-1 $73 reversed single #
face $-1 $74 $75 $38 $-1 $76 forward single #
face $-1 $77 $78 $39 $-1 $79 forward single #
face $-1 $80 $81 $30 $-1 $82 reversed single #
loop $-1 $-1 $83 $40 #
plane-surface $-1 0 0 17.557263026804257 0 0 1 1 0 0 forward_v I I I I #
face $-1 $84 $85 $31 $-1 $86 forward single #
loop $-1 $-1 $87 $41 #
plane-surface $-1 0 -44.339365821647576 0 0 1 0 0 0 1 forward_v I I I I #
face $-1 $88 $89 $32 $-1 $90 reversed single #
loop $-1 $-1 $91 $42 #
plane-surface $-1 -194.02859001448866 24.468851021782612 98.948153556267982 0 1 0 -0.77714596973225614 0 0.62932038083071107 forward_v I I I I #
face $-1 $92 $93 $33 $-1 $94 forward single #
loop $-1 $95 $96 $43 #
cone-surface $-1 -64.463705966821266 34.404108421715094 5.799074457080434 0.77714596973225614 0 -0.62932038083071107 2.5172815233228443 0 3.1085838789290245 1 I I 0 1 4 forward I I I I #
face $-1 $97 $98 $34 $-1 $99 reversed single #
loop $-1 $-1 $100 $44 #
plane-surface $-1 38.653066811185766 11.108254789790521 221.44433992084294 0 -1 0 -0.57357644374324357 0 -0.81915203911291934 forward_v I I I I #
face $-1 $101 $102 $35 $-1 $103 forward single #
loop $-1 $104 $105 $45 #
cone-surface $-1 70.175759935169552 5.5203561575093758 13.297075761945466 -0.57357644374324357 0 -0.81915203911291934 0.40957601955645967 0 -0.28678822187162178 1 I I 0 1 0.5 forward I I I I #
face $-1 $106 $107 $36 $-1 $108 forward single #
loop $-1 $109 $110 $46 #
cone-surface $-1 70.175759935169552 8.8730953368780661 13.297075761945466 -0.57357644374324357 0 -0.81915203911291934 0.40957601955645967 0 -0.28678822187162178 1 I I 0 1 0.5 forward I I I I #
face $-1 $111 $112 $37 $-1 $113 reversed single #
loop $-1 $-1 $114 $47 #
plane-surface $-1 -48.486720873660758 7.1967257471937174 96.995828221046139 0.57357644374324357 0 0.81915203911291934 0.81915203911291934 0 -0.57357644374324357 forward_v I I I I #
face $-1 $115 $116 $38 $-1 $117 forward single #
loop $-1 $118 $119 $48 #
cone-surface $-1 70.175759935169552 13.343414242702984 13.297075761945466 -0.57357644374324357 0 -0.81915203911291934 0.40957601955645967 0 -0.28678822187162178 1 I I 0 1 0.5 forward I I I I #
face $-1 $120 $121 $39 $-1 $122 forward single #
loop $-1 $123 $124 $49 #
cone-surface $-1 70.175759935169552 16.696153422071674 13.297075761945466 -0.57357644374324357 0 -0.81915203911291934 0.40957601955645967 0 -0.28678822187162178 1 I I 0 1 0.5 forward I I I I #
face $-1 $125 $126 $30 $-1 $127 reversed single #
loop $-1 $-1 $128 $50 #
plane-surface $-1 0 0 -17.557263026804257 0 0 1 1 0 0 forward_v I I I I #
coedge $-1 $129 $130 $131 $132 forward $51 $-1 #
face $-1 $133 $134 $31 $-1 $135 reversed single #
loop $-1 $-1 $136 $53 #
plane-surface $-1 0 0 17.557263026804257 0 0 1 1 0 0 forward_v I I I I #
coedge $-1 $137 $138 $139 $140 forward $54 $-1 #
face $-1 $141 $142 $32 $-1 $143 reversed single #
loop $-1 $-1 $144 $56 #
plane-surface $-1 -75.961790826136053 34.404108421715094 3.3395472936944657 -0.77714596973225614 0 0.62932038083071107 0.62932038083071107 0 0.77714596973225614 forward_v I I I I #
coedge $-1 $145 $146 $147 $148 reversed $57 $-1 #
face $-1 $-1 $149 $33 $-1 $150 forward single #
loop $-1 $151 $152 $59 #
cone-surface $-1 -57.16796860785405 34.404108421715094 -0.10889700774993472 0.77714596973225614 0 -0.62932038083071107 1.2586407616614221 0 1.5542919394645123 1 I I -0.70710678118654746 0.70710678118654746 2 forward I I I I #
loop $-1 $-1 $153 $43 #
coedge $-1 $96 $96 $154 $155 reversed $60 $-1 #
face $-1 $156 $157 $34 $-1 $158 reversed single #
loop $-1 $-1 $159 $62 #
plane-surface $-1 -48.486720873660758 7.1967257471937174 96.995828221046139 0.57357644374324357 0 0.81915203911291934 0.81915203911291934 0 -0.57357644374324357 forward_v I I I I #
coedge $-1 $160 $161 $162 $163 reversed $63 $-1 #
face $-1 $-1 $164 $35 $-1 $165 forward single #
loop $-1 $166 $167 $65 #
cone-surface $-1 69.745577602362118 5.5203561575093758 12.682711732610777 -0.57357644374324357 0 -0.81915203911291934 0.20478800977822983 0 -0.14339411093581089 1 I I -0.70710678118654746 0.70710678118654746 0.25 forward I I I I #
loop $-1 $-1 $168 $45 #
coedge $-1 $105 $105 $169 $170 reversed $66 $-1 #
face $-1 $-1 $171 $36 $-1 $172 forward single #
loop $-1 $173 $174 $68 #
cone-surface $-1 69.745577602362118 8.8730953368780661 12.682711732610777 -0.57357644374324357 0 -0.81915203911291934 0.20478800977822983 0 -0.14339411093581089 1 I I -0.70710678118654746 0.70710678118654746 0.25 forward I I I I #
loop $-1 $-1 $175 $46 #
coedge $-1 $110 $110 $176 $177 reversed $69 $-1 #
face $-1 $178 $179 $37 $-1 $180 reversed single #
loop $-1 $-1 $181 $71 #
plane-surface $-1 38.653066811185766 18.93131287498413 221.44433992084294 0 -1 0 -0.57357644374324357 0 -0.81915203911291934 forward_v I I I I #
coedge $-1 $182 $183 $184 $185 reversed $72 $-1 #
face $-1 $-1 $186 $38 $-1 $187 forward single #
loop $-1 $188 $189 $74 #
cone-surface $-1 69.745577602362118 13.343414242702984 12.682711732610777 -0.57357644374324357 0 -0.81915203911291934 0.20478800977822983 0 -0.14339411093581089 1 I I -0.70710678118654746 0.70710678118654746 0.25 forward I I I I #
loop $-1 $-1 $190 $48 #
coedge $-1 $119 $119 $191 $192 reversed $75 $-1 #
face $-1 $-1 $193 $39 $-1 $194 forward single #
loop $-1 $195 $196 $77 #
cone-surface $-1 69.745577602362118 16.696153422071674 12.682711732610777 -0.57357644374324357 0 -0.81915203911291934 0.20478800977822983 0 -0.14339411093581089 1 I I -0.70710678118654746 0.70710678118654746 0.25 forward I I I I #
loop $-1 $-1 $197 $49 #
coedge $-1 $124 $124 $198 $199 reversed $78 $-1 #
face $-1 $200 $201 $30 $-1 $202 reversed single #
loop $-1 $-1 $203 $80 #
plane-surface $-1 0 -44.339365821647576 0 0 1 0 0 0 1 forward_v I I I I #
coedge $-1 $204 $205 $206 $207 forward $81 $-1 #
coedge $-1 $208 $83 $209 $210 forward $51 $-1 #
coedge $-1 $83 $208 $211 $212 forward $51 $-1 #
coedge $-1 $213 $214 $83 $132 reversed $215 $-1 #
edge $-1 $216 -44.339365821647576 $217 44.339365821647576 $131 $218 forward 7 unknown #
face $-1 $219 $220 $31 $-1 $221 reversed single #
loop $-1 $-1 $222 $84 #
plane-surface $-1 -75.961790826136053 0 0 1 0 0 0 0 -1 forward_v I I I I #
coedge $-1 $223 $224 $138 $225 forward $85 $-1 #
coedge $-1 $226 $87 $227 $228 reversed $54 $-1 #
coedge $-1 $87 $226 $136 $225 reversed $54 $-1 #
coedge $-1 $229 $230 $87 $140 reversed $231 $-1 #
edge $-1 $232 -17.557263026804257 $233 17.557263026804257 $139 $234 forward 7 unknown #
face $-1 $235 $236 $32 $-1 $237 reversed single #
loop $-1 $-1 $238 $88 #
plane-surface $-1 0 44.339365821647576 0 0 -1 0 0 0 -1 forward_v I I I I #
coedge $-1 $239 $240 $241 $242 reversed $89 $-1 #
coedge $-1 $146 $91 $243 $244 reversed $57 $-1 #
coedge $-1 $91 $145 $239 $245 reversed $57 $-1 #
coedge $-1 $241 $246 $91 $148 forward $247 $-1 #
edge $-1 $248 21.052504181108276 $249 32.565783060732471 $147 $250 forward 7 unknown #
loop $-1 $-1 $154 $92 #
plane-surface $-1 -75.961790826136053 34.404108421715094 3.3395472936944657 -0.77714596973225614 0 0.62932038083071107 0.62932038083071107 0 0.77714596973225614 forward_v I I I I #
loop $-1 $-1 $251 $59 #
coedge $-1 $152 $152 $153 $252 reversed $93 $-1 #
coedge $-1 $153 $153 $152 $252 forward $95 $-1 #
coedge $-1 $154 $154 $96 $155 forward $149 $-1 #
edge $-1 $253 0 $253 6.2831853071796004 $154 $254 forward 7 unknown #
face $-1 $255 $256 $34 $-1 $257 reversed single #
loop $-1 $-1 $258 $97 #
plane-surface $-1 38.653066811185766 3.2851967045969133 221.44433992084294 0 1 0 0.57357644374324357 0 0.81915203911291934 forward_v I I I I #
coedge $-1 $259 $260 $261 $262 reversed $98 $-1 #
coedge $-1 $161 $100 $263 $264 reversed $63 $-1 #
coedge $-1 $100 $160 $259 $265 reversed $63 $-1 #
coedge $-1 $261 $266 $100 $163 forward $267 $-1 #
edge $-1 $268 -56.635257420543169 $269 -45.636772082353417 $162 $270 forward 7 unknown #
loop $-1 $-1 $169 $101 #
plane-surface $-1 -48.486720873660758 7.1967257471937174 96.995828221046139 0.57357644374324357 0 0.81915203911291934 0.81915203911291934 0 -0.57357644374324357 forward_v I I I I #
loop $-1 $-1 $271 $65 #
coedge $-1 $167 $167 $168 $272 reversed $102 $-1 #
coedge $-1 $168 $168 $167 $272 forward $104 $-1 #
coedge $-1 $169 $169 $105 $170 forward $164 $-1 #
edge $-1 $273 0 $273 6.2831853071796004 $169 $274 forward 7 unknown #
loop $-1 $-1 $176 $106 #
plane-surface $-1 -48.486720873660758 7.1967257471937174 96.995828221046139 0.57357644374324357 0 0.81915203911291934 0.81915203911291934 0 -0.57357644374324357 forward_v I I I I #
loop $-1 $-1 $275 $68 #
coedge $-1 $174 $174 $175 $276 reversed $107 $-1 #
coedge $-1 $175 $175 $174 $276 forward $109 $-1 #
coedge $-1 $176 $176 $110 $177 forward $171 $-1 #
edge $-1 $277 0 $277 6.2831853071796004 $176 $278 forward 7 unknown #
face $-1 $279 $280 $37 $-1 $281 forward single #
loop $-1 $-1 $282 $111 #
plane-surface $-1 75.961790826136053 0 0 -1 0 0 0 0 1 forward_v I I I I #
coedge $-1 $283 $284 $285 $286 reversed $112 $-1 #
coedge $-1 $287 $114 $288 $289 reversed $72 $-1 #
coedge $-1 $114 $287 $282 $290 reversed $72 $-1 #
coedge $-1 $291 $292 $114 $185 forward $280 $-1 #
edge $-1 $293 138.49691015170393 $294 151.92358165227213 $184 $295 forward 7 unknown #
loop $-1 $-1 $191 $115 #
plane-surface $-1 -48.486720873660758 7.1967257471937174 96.995828221046139 0.57357644374324357 0 0.81915203911291934 0.81915203911291934 0 -0.57357644374324357 forward_v I I I I #
loop $-1 $-1 $296 $74 #
coedge $-1 $189 $189 $190 $297 reversed $116 $-1 #
coedge $-1 $190 $190 $189 $297 forward $118 $-1 #
coedge $-1 $191 $191 $119 $192 forward $186 $-1 #
edge $-1 $298 0 $298 6.2831853071796004 $191 $299 forward 7 unknown #
loop $-1 $-1 $198 $120 #
plane-surface $-1 -48.486720873660758 7.1967257471937174 96.995828221046139 0.57357644374324357 0 0.81915203911291934 0.81915203911291934 0 -0.57357644374324357 forward_v I I I I #
loop $-1 $-1 $300 $77 #
coedge $-1 $196 $196 $197 $301 reversed $121 $-1 #
coedge $-1 $197 $197 $196 $301 forward $123 $-1 #
coedge $-1 $198 $198 $124 $199 forward $193 $-1 #
edge $-1 $302 0 $302 6.2831853071796004 $198 $303 forward 7 unknown #
face $-1 $304 $305 $30 $-1 $306 reversed single #
loop $-1 $-1 $307 $125 #
plane-surface $-1 -75.961790826136053 0 0 1 0 0 0 0 -1 forward_v I I I I #
coedge $-1 $308 $211 $309 $310 forward $126 $-1 #
coedge $-1 $311 $128 $308 $312 forward $81 $-1 #
coedge $-1 $128 $311 $313 $314 forward $81 $-1 #
coedge $-1 $214 $213 $128 $207 reversed $215 $-1 #
edge $-1 $315 -44.339365821647576 $316 44.339365821647576 $206 $317 forward 7 unknown #
coedge $-1 $130 $129 $318 $319 forward $51 $-1 #
coedge $-1 $320 $321 $129 $210 reversed $305 $-1 #
edge $-1 $217 -75.961790826136053 $322 75.961790826136053 $209 $323 forward 7 unknown #
coedge $-1 $203 $324 $130 $212 reversed $126 $-1 #
edge $-1 $325 -75.961790826136053 $216 75.961790826136053 $211 $326 forward 7 unknown #
coedge $-1 $206 $131 $324 $327 forward $215 $-1 #
coedge $-1 $131 $206 $320 $328 reversed $215 $-1 #
loop $-1 $-1 $213 $304 #
vertex $-1 $132 $329 #
vertex $-1 $132 $330 #
straight-curve $-1 75.961790826136053 0 17.557263026804257 0 1 0 I I #
face $-1 $331 $231 $31 $-1 $332 reversed single #
loop $-1 $-1 $333 $133 #
plane-surface $-1 -70.895866472764652 -66.555875401228619 0 0 1 0 0 0 1 forward_v I I I I #
coedge $-1 $334 $335 $226 $336 forward $134 $-1 #
coedge $-1 $337 $136 $335 $338 forward $85 $-1 #
coedge $-1 $136 $337 $229 $339 forward $85 $-1 #
edge $-1 $232 65.829942119393252 $340 75.961790826136053 $136 $341 forward 7 unknown #
coedge $-1 $138 $137 $222 $336 reversed $54 $-1 #
coedge $-1 $342 $343 $137 $228 forward $344 $-1 #
edge $-1 $345 -75.961790826136053 $233 -65.829942119393252 $227 $346 forward 7 unknown #
coedge $-1 $347 $139 $224 $339 reversed $231 $-1 #
coedge $-1 $139 $347 $342 $348 reversed $231 $-1 #
loop $-1 $-1 $347 $219 #
vertex $-1 $225 $349 #
vertex $-1 $348 $350 #
straight-curve $-1 -65.829942119393252 -44.339365821647576 0 0 0 -1 I I #
face $-1 $-1 $247 $32 $-1 $351 forward single #
loop $-1 $-1 $352 $141 #
plane-surface $-1 -75.961790826136053 0 0 1 0 0 0 0 -1 forward_v I I I I #
coedge $-1 $353 $354 $240 $355 forward $142 $-1 #
coedge $-1 $356 $144 $146 $245 forward $89 $-1 #
coedge $-1 $144 $356 $238 $355 reversed $89 $-1 #
coedge $-1 $357 $147 $144 $242 forward $247 $-1 #
edge $-1 $249 7.2667968109250651 $358 27.137311610790029 $241 $359 forward 7 unknown #
coedge $-1 $360 $352 $145 $244 forward $236 $-1 #
edge $-1 $361 -46.134529484439526 $248 -31.916813751329734 $243 $362 forward 7 unknown #
edge $-1 $249 -18.294781529920446 $361 0 $146 $363 forward 7 unknown #
coedge $-1 $147 $357 $360 $364 forward $247 $-1 #
loop $-1 $-1 $241 $235 #
vertex $-1 $244 $365 #
vertex $-1 $148 $366 #
straight-curve $-1 -97.014295007244328 24.468851021782612 17.557263026804257 1 0 0 I I #
coedge $-1 $251 $251 $-1 $367 reversed $151 $-1 #
edge $-1 $368 0 $368 6.2831853071796004 $152 $369 forward 7 unknown #
vertex $-1 $155 $370 #
ellipse-curve $-1 -70.205151386323948 34.404108421715094 10.448405160249367 -0.77714596973225614 0 0.62932038083071107 2.5172815233228443 0 3.1085838789290245 1 I I #
face $-1 $-1 $267 $34 $-1 $371 forward single #
loop $-1 $-1 $372 $156 #
plane-surface $-1 75.961790826136053 0 0 -1 0 0 0 0 1 forward_v I I I I #
coedge $-1 $373 $374 $375 $376 reversed $157 $-1 #
coedge $-1 $377 $159 $161 $265 forward $98 $-1 #
coedge $-1 $159 $377 $373 $378 forward $98 $-1 #
coedge $-1 $375 $162 $159 $262 forward $267 $-1 #
edge $-1 $269 -7.5098919161936628 $379 0.31316616899994543 $261 $380 forward 7 unknown #
coedge $-1 $381 $382 $160 $264 forward $256 $-1 #
edge $-1 $383 -100.86612942422187 $268 -93.164906933617203 $263 $384 forward 7 unknown #
edge $-1 $269 138.49691015170393 $383 151.92358165227213 $161 $385 forward 7 unknown #
coedge $-1 $162 $375 $381 $386 forward $267 $-1 #
loop $-1 $-1 $375 $255 #
vertex $-1 $264 $387 #
vertex $-1 $163 $388 #
straight-curve $-1 19.326533405592883 11.108254789790521 17.557263026804264 -1 0 0 I I #
coedge $-1 $271 $271 $-1 $389 reversed $166 $-1 #
edge $-1 $390 0 $390 6.2831853071796004 $167 $391 forward 7 unknown #
vertex $-1 $170 $392 #
ellipse-curve $-1 70.462548157041184 5.5203561575093758 13.706651781501938 0.57357644374324357 0 0.81915203911291934 0.40957601955645967 0 -0.28678822187162178 1 I I #
coedge $-1 $275 $275 $-1 $393 reversed $173 $-1 #
edge $-1 $394 0 $394 6.2831853071796004 $174 $395 forward 7 unknown #
vertex $-1 $177 $396 #
ellipse-curve $-1 70.462548157041184 8.8730953368780661 13.706651781501938 0.57357644374324357 0 0.81915203911291934 0.40957601955645967 0 -0.28678822187162178 1 I I #
face $-1 $-1 $397 $37 $-1 $398 forward single #
loop $-1 $-1 $292 $178 #
plane-surface $-1 38.653066811185766 11.108254789790521 221.44433992084294 0 -1 0 -0.57357644374324357 0 -0.81915203911291934 forward_v I I I I #
coedge $-1 $285 $399 $183 $290 forward $179 $-1 #
coedge $-1 $284 $181 $287 $400 reversed $112 $-1 #
coedge $-1 $181 $283 $401 $402 reversed $112 $-1 #
coedge $-1 $403 $282 $181 $286 forward $179 $-1 #
edge $-1 $404 -100.86612942422187 $405 -93.164906933617203 $285 $406 forward 7 unknown #
coedge $-1 $183 $182 $283 $400 forward $72 $-1 #
coedge $-1 $407 $401 $182 $289 forward $397 $-1 #
edge $-1 $408 -15.332950001387271 $293 -7.5098919161936628 $288 $409 forward 7 unknown #
edge $-1 $294 7.5098919161936628 $404 15.332950001387271 $282 $410 forward 7 unknown #
coedge $-1 $292 $184 $399 $411 reversed $280 $-1 #
coedge $-1 $184 $291 $407 $412 reversed $280 $-1 #
vertex $-1 $289 $413 #
vertex $-1 $290 $414 #
straight-curve $-1 -48.486720873660758 11.108254789790521 96.995828221046139 0.81915203911291934 0 -0.57357644374324357 I I #
coedge $-1 $296 $296 $-1 $415 reversed $188 $-1 #
edge $-1 $416 0 $416 6.2831853071796004 $189 $417 forward 7 unknown #
vertex $-1 $192 $418 #
ellipse-curve $-1 70.462548157041184 13.343414242702984 13.706651781501938 0.57357644374324357 0 0.81915203911291934 0.40957601955645967 0 -0.28678822187162178 1 I I #
coedge $-1 $300 $300 $-1 $419 reversed $195 $-1 #
edge $-1 $420 0 $420 6.2831853071796004 $196 $421 forward 7 unknown #
vertex $-1 $199 $422 #
ellipse-curve $-1 70.462548157041184 16.696153422071674 13.706651781501938 0.57357644374324357 0 0.81915203911291934 0.40957601955645967 0 -0.28678822187162178 1 I I #
face $-1 $-1 $215 $30 $-1 $423 reversed single #
loop $-1 $-1 $320 $200 #
plane-surface $-1 0 44.339365821647576 0 0 -1 0 0 0 -1 forward_v I I I I #
coedge $-1 $424 $318 $321 $425 forward $201 $-1 #
coedge $-1 $324 $203 $204 $312 reversed $126 $-1 #
coedge $-1 $318 $424 $203 $310 reversed $201 $-1 #
edge $-1 $325 -17.557263026804257 $426 17.557263026804257 $309 $427 forward 7 unknown #
coedge $-1 $205 $204 $424 $428 forward $81 $-1 #
edge $-1 $316 -75.961790826136053 $426 75.961790826136053 $308 $429 forward 7 unknown #
coedge $-1 $321 $320 $205 $314 reversed $305 $-1 #
edge $-1 $430 -75.961790826136053 $315 75.961790826136053 $313 $431 forward 7 unknown #
vertex $-1 $207 $432 #
vertex $-1 $327 $433 #
straight-curve $-1 75.961790826136053 0 -17.557263026804257 0 -1 0 I I #
coedge $-1 $307 $309 $208 $319 reversed $201 $-1 #
edge $-1 $322 -44.339365821647576 $325 44.339365821647576 $318 $434 forward 7 unknown #
coedge $-1 $313 $209 $214 $328 forward $305 $-1 #
coedge $-1 $209 $313 $307 $425 reversed $305 $-1 #
vertex $-1 $210 $435 #
straight-curve $-1 0 44.339365821647576 17.557263026804257 -1 0 0 I I #
coedge $-1 $211 $308 $213 $327 reversed $126 $-1 #
vertex $-1 $319 $436 #
straight-curve $-1 0 -44.339365821647576 17.557263026804257 1 0 0 I I #
edge $-1 $216 -17.557263026804257 $316 17.557263026804257 $213 $437 forward 7 unknown #
edge $-1 $217 -17.557263026804257 $315 17.557263026804257 $214 $438 forward 7 unknown #
point $-1 75.961790826136053 -44.339365821647576 17.557263026804257 #
point $-1 75.961790826136053 44.339365821647576 17.557263026804257 #
face $-1 $-1 $344 $31 $-1 $439 reversed single #
plane-surface $-1 -65.829942119393252 -55.447620611438097 0 -1 0 0 0 0 1 forward_v I I I I #
coedge $-1 $440 $441 $442 $443 forward $220 $-1 #
coedge $-1 $442 $222 $343 $444 reversed $134 $-1 #
coedge $-1 $222 $442 $223 $338 reversed $134 $-1 #
edge $-1 $340 -17.557263026804257 $345 17.557263026804257 $222 $445 forward 7 unknown #
coedge $-1 $224 $223 $441 $446 forward $85 $-1 #
edge $-1 $340 44.339365821647576 $447 66.555875401228619 $335 $448 forward 7 unknown #
edge $-1 $449 -11.108254789790521 $232 11.108254789790521 $229 $450 forward 7 unknown #
vertex $-1 $338 $451 #
straight-curve $-1 0 -44.339365821647576 17.557263026804257 -1 0 0 I I #
coedge $-1 $452 $227 $230 $348 forward $344 $-1 #
coedge $-1 $227 $452 $334 $444 forward $344 $-1 #
loop $-1 $-1 $227 $331 #
vertex $-1 $336 $453 #
straight-curve $-1 0 -44.339365821647576 -17.557263026804257 1 0 0 I I #
coedge $-1 $230 $229 $454 $455 forward $231 $-1 #
edge $-1 $233 -11.108254789790521 $456 11.108254789790521 $230 $457 forward 7 unknown #
point $-1 -65.829942119393252 -44.339365821647576 17.557263026804257 #
point $-1 -65.829942119393252 -44.339365821647576 -17.557263026804257 #
plane-surface $-1 0 0 17.557263026804257 0 0 1 1 0 0 forward_v I I I I #
coedge $-1 $243 $458 $356 $459 forward $236 $-1 #
coedge $-1 $354 $238 $458 $460 reversed $142 $-1 #
coedge $-1 $238 $353 $357 $461 reversed $142 $-1 #
edge $-1 $358 4.309712175710473 $462 22.604493705630919 $238 $463 forward 7 unknown #
coedge $-1 $240 $239 $352 $459 reversed $89 $-1 #
coedge $-1 $246 $241 $354 $461 forward $247 $-1 #
vertex $-1 $461 $464 #
straight-curve $-1 -64.448511946511857 17.202054210857547 17.557263026804257 0 1 0 I I #
coedge $-1 $458 $243 $246 $364 reversed $236 $-1 #
vertex $-1 $244 $465 #
straight-curve $-1 -75.961790826136053 24.468851021782612 49.474076778133991 0 0 1 I I #
straight-curve $-1 -75.961790826136053 24.468851021782612 3.3395472936944657 -0.62932038083071107 0 -0.77714596973225614 I I #
edge $-1 $466 -44.339365821647576 $248 -24.468851021782612 $360 $467 forward 7 unknown #
point $-1 -75.961790826136053 24.468851021782612 17.557263026804257 #
point $-1 -64.448511946511857 24.468851021782612 17.557263026804257 #
edge $-1 $468 1 $468 0 $251 $-1 forward 7 unknown #
vertex $-1 $252 $469 #
ellipse-curve $-1 -58.722260547318562 34.404108421715094 1.1497437539114874 -0.77714596973225614 0 0.62932038083071107 2.5172815233228443 0 3.1085838789290245 1 I I #
point $-1 -67.687869863001126 34.404108421715094 13.556989039178406 #
plane-surface $-1 0 0 17.557263026804257 0 0 1 1 0 0 forward_v I I I I #
coedge $-1 $382 $381 $374 $470 forward $256 $-1 #
coedge $-1 $374 $258 $260 $378 reversed $157 $-1 #
coedge $-1 $258 $373 $372 $470 reversed $157 $-1 #
coedge $-1 $266 $261 $258 $376 forward $267 $-1 #
edge $-1 $379 45.636772082353417 $471 56.635257420543169 $375 $472 forward 7 unknown #
coedge $-1 $260 $259 $382 $473 reversed $98 $-1 #
edge $-1 $474 -151.92358165227213 $379 -138.49691015170393 $373 $475 forward 7 unknown #
vertex $-1 $262 $476 #
straight-curve $-1 64.963305487946315 3.5983628735968587 17.557263026804264 0 -1 0 I I #
coedge $-1 $372 $263 $266 $386 reversed $256 $-1 #
coedge $-1 $263 $372 $377 $473 forward $256 $-1 #
vertex $-1 $264 $477 #
straight-curve $-1 75.961790826136053 11.108254789790521 110.72216996042147 0 0 1 I I #
straight-curve $-1 -48.486720873660758 11.108254789790521 96.995828221046139 0.81915203911291934 0 -0.57357644374324357 I I #
edge $-1 $471 3.2851967045969133 $268 11.108254789790521 $381 $478 forward 7 unknown #
point $-1 75.961790826136053 11.108254789790521 17.557263026804257 #
point $-1 64.9633054879463 11.108254789790521 17.557263026804264 #
edge $-1 $479 1 $479 0 $271 $-1 forward 7 unknown #
vertex $-1 $272 $480 #
ellipse-curve $-1 69.888971713297934 5.5203561575093758 12.887499742389007 0.57357644374324357 0 0.81915203911291934 0.40957601955645967 0 -0.28678822187162178 1 I I #
point $-1 70.872124176597637 5.5203561575093758 13.419863559630304 #
edge $-1 $481 1 $481 0 $275 $-1 forward 7 unknown #
vertex $-1 $276 $482 #
ellipse-curve $-1 69.888971713297934 8.8730953368780661 12.887499742389007 0.57357644374324357 0 0.81915203911291934 0.40957601955645967 0 -0.28678822187162178 1 I I #
point $-1 70.872124176597637 8.8730953368780661 13.419863559630304 #
loop $-1 $-1 $288 $279 #
plane-surface $-1 0 0 17.557263026804257 0 0 1 1 0 0 forward_v I I I I #
coedge $-1 $282 $403 $291 $411 forward $179 $-1 #
edge $-1 $408 138.49691015170393 $404 151.92358165227213 $283 $483 forward 7 unknown #
coedge $-1 $288 $484 $284 $402 forward $397 $-1 #
edge $-1 $405 -56.635257420543169 $408 -45.636772082353417 $401 $485 forward 7 unknown #
coedge $-1 $399 $285 $484 $486 reversed $179 $-1 #
vertex $-1 $286 $487 #
vertex $-1 $286 $488 #
straight-curve $-1 75.961790826136053 18.93131287498413 110.72216996042147 0 0 1 I I #
coedge $-1 $484 $288 $292 $412 forward $397 $-1 #
vertex $-1 $402 $489 #
straight-curve $-1 64.963305487946315 3.5983628735968587 17.557263026804264 0 -1 0 I I #
straight-curve $-1 75.961790826136053 3.5983628735968587 9.8560405361996004 0 1 0 I I #
edge $-1 $490 93.164906933617203 $294 100.86612942422187 $399 $491 forward 7 unknown #
edge $-1 $293 45.636772082353417 $490 56.635257420543169 $407 $492 forward 7 unknown #
point $-1 64.9633054879463 11.108254789790521 17.557263026804264 #
point $-1 75.961790826136053 11.108254789790521 9.8560405361996004 #
edge $-1 $493 1 $493 0 $296 $-1 forward 7 unknown #
vertex $-1 $297 $494 #
ellipse-curve $-1 69.888971713297934 13.343414242702984 12.887499742389007 0.57357644374324357 0 0.81915203911291934 0.40957601955645967 0 -0.28678822187162178 1 I I #
point $-1 70.872124176597637 13.343414242702984 13.419863559630304 #
edge $-1 $495 1 $495 0 $300 $-1 forward 7 unknown #
vertex $-1 $301 $496 #
ellipse-curve $-1 69.888971713297934 16.696153422071674 12.887499742389007 0.57357644374324357 0 0.81915203911291934 0.40957601955645967 0 -0.28678822187162178 1 I I #
point $-1 70.872124176597637 16.696153422071674 13.419863559630304 #
plane-surface $-1 75.961790826136053 0 0 -1 0 0 0 0 1 forward_v I I I I #
coedge $-1 $309 $307 $311 $428 reversed $201 $-1 #
edge $-1 $322 -17.557263026804257 $430 17.557263026804257 $321 $497 forward 7 unknown #
vertex $-1 $428 $498 #
straight-curve $-1 -75.961790826136053 -44.339365821647576 0 0 0 -1 I I #
edge $-1 $426 -44.339365821647576 $430 44.339365821647576 $424 $499 forward 7 unknown #
straight-curve $-1 0 -44.339365821647576 -17.557263026804257 -1 0 0 I I #
vertex $-1 $314 $500 #
straight-curve $-1 0 44.339365821647576 -17.557263026804257 1 0 0 I I #
point $-1 75.961790826136053 44.339365821647576 -17.557263026804257 #
point $-1 75.961790826136053 -44.339365821647576 -17.557263026804257 #
straight-curve $-1 -75.961790826136053 0 17.557263026804257 0 -1 0 I I #
point $-1 -75.961790826136053 44.339365821647576 17.557263026804257 #
point $-1 -75.961790826136053 -44.339365821647576 17.557263026804257 #
straight-curve $-1 75.961790826136053 -44.339365821647576 0 0 0 -1 I I #
straight-curve $-1 75.961790826136053 44.339365821647576 0 0 0 -1 I I #
plane-surface $-1 0 0 -17.557263026804257 0 0 1 1 0 0 forward_v I I I I #
coedge $-1 $454 $333 $452 $501 reversed $220 $-1 #
coedge $-1 $333 $454 $337 $446 reversed $220 $-1 #
coedge $-1 $335 $334 $333 $443 reversed $134 $-1 #
edge $-1 $447 -17.557263026804257 $502 17.557263026804257 $442 $503 forward 7 unknown #
edge $-1 $502 -66.555875401228619 $345 -44.339365821647576 $334 $504 forward 7 unknown #
straight-curve $-1 -75.961790826136053 -44.339365821647576 0 0 0 -1 I I #
edge $-1 $447 -5.0659243533714005 $449 5.0659243533714005 $441 $505 forward 7 unknown #
vertex $-1 $338 $506 #
straight-curve $-1 -75.961790826136053 0 17.557263026804257 0 -1 0 I I #
vertex $-1 $339 $507 #
straight-curve $-1 -65.829942119393252 -55.447620611438097 17.557263026804257 0 1 0 I I #
point $-1 -75.961790826136053 -44.339365821647576 17.557263026804257 #
coedge $-1 $343 $342 $440 $501 forward $344 $-1 #
point $-1 -75.961790826136053 -44.339365821647576 -17.557263026804257 #
coedge $-1 $441 $440 $347 $455 reversed $220 $-1 #
edge $-1 $449 -17.557263026804257 $456 17.557263026804257 $347 $508 forward 7 unknown #
vertex $-1 $455 $509 #
straight-curve $-1 -65.829942119393252 -55.447620611438097 -17.557263026804257 0 -1 0 I I #
coedge $-1 $352 $360 $353 $460 forward $236 $-1 #
edge $-1 $462 -27.137311610790029 $361 -7.2667968109250651 $352 $510 forward 7 unknown #
edge $-1 $466 -17.557263026804257 $462 -3.3395472936944657 $353 $511 forward 7 unknown #
edge $-1 $358 64.448511946511857 $466 75.961790826136053 $354 $512 forward 7 unknown #
vertex $-1 $459 $513 #
straight-curve $-1 -61.736322238822993 44.339365821647576 20.906538474863687 -0.62932038083071107 0 -0.77714596973225614 I I #
point $-1 -64.448511946511857 44.339365821647576 17.557263026804257 #
point $-1 -75.961790826136053 24.468851021782612 3.3395472936944657 #
vertex $-1 $461 $514 #
straight-curve $-1 -75.961790826136053 0 17.557263026804257 0 -1 0 I I #
vertex $-1 $367 $515 #
point $-1 -56.204979023995719 34.404108421715094 4.258327632840512 #
edge $-1 $471 93.164906933617203 $474 100.86612942422187 $372 $516 forward 7 unknown #
vertex $-1 $386 $517 #
straight-curve $-1 19.326533405592883 3.2851967045969133 17.557263026804264 1 0 0 I I #
edge $-1 $474 -0.31316616899994543 $383 7.5098919161936628 $382 $518 forward 7 unknown #
vertex $-1 $473 $519 #
straight-curve $-1 -48.486720873660758 3.2851967045969133 96.995828221046139 -0.81915203911291934 0 0.57357644374324357 I I #
point $-1 64.9633054879463 3.2851967045969133 17.557263026804264 #
point $-1 75.961790826136053 11.108254789790521 9.8560405361996004 #
straight-curve $-1 75.961790826136053 0 17.557263026804257 0 1 0 I I #
vertex $-1 $389 $520 #
point $-1 70.298547732854388 5.5203561575093758 12.600711520517384 #
vertex $-1 $393 $521 #
point $-1 70.298547732854388 8.8730953368780661 12.600711520517384 #
straight-curve $-1 -48.486720873660758 18.93131287498413 96.995828221046139 0.81915203911291934 0 -0.57357644374324357 I I #
coedge $-1 $401 $407 $403 $486 forward $397 $-1 #
straight-curve $-1 19.326533405592883 18.93131287498413 17.557263026804264 -1 0 0 I I #
edge $-1 $490 11.108254789790521 $405 18.93131287498413 $403 $522 forward 7 unknown #
point $-1 75.961790826136053 18.93131287498413 9.8560405361996004 #
point $-1 75.961790826136053 18.93131287498413 17.557263026804257 #
point $-1 64.9633054879463 18.93131287498413 17.557263026804264 #
vertex $-1 $486 $523 #
straight-curve $-1 75.961790826136053 11.108254789790521 110.72216996042147 0 0 -1 I I #
straight-curve $-1 19.326533405592883 11.108254789790521 17.557263026804264 1 0 0 I I #
vertex $-1 $415 $524 #
point $-1 70.298547732854388 13.343414242702984 12.600711520517384 #
vertex $-1 $419 $525 #
point $-1 70.298547732854388 16.696153422071674 12.600711520517384 #
straight-curve $-1 -75.961790826136053 44.339365821647576 0 0 0 -1 I I #
point $-1 -75.961790826136053 -44.339365821647576 -17.557263026804257 #
straight-curve $-1 -75.961790826136053 0 -17.557263026804257 0 1 0 I I #
point $-1 -75.961790826136053 44.339365821647576 -17.557263026804257 #
edge $-1 $456 -5.0659243533714005 $502 5.0659243533714005 $440 $526 forward 7 unknown #
vertex $-1 $444 $527 #
straight-curve $-1 -75.961790826136053 -66.555875401228619 0 0 0 -1 I I #
straight-curve $-1 -75.961790826136053 0 -17.557263026804257 0 1 0 I I #
straight-curve $-1 -70.895866472764652 -66.555875401228619 17.557263026804257 1 0 0 I I #
point $-1 -75.961790826136053 -66.555875401228619 17.557263026804257 #
point $-1 -65.829942119393252 -66.555875401228619 17.557263026804257 #
straight-curve $-1 -65.829942119393252 -66.555875401228619 0 0 0 -1 I I #
point $-1 -65.829942119393252 -66.555875401228619 -17.557263026804257 #
straight-curve $-1 -75.961790826136053 17.202054210857547 3.339547293694471 0 -1 0 I I #
straight-curve $-1 -75.961790826136053 44.339365821647576 0 0 0 -1 I I #
straight-curve $-1 0 44.339365821647576 17.557263026804257 -1 0 0 I I #
point $-1 -75.961790826136053 44.339365821647576 3.3395472936944657 #
point $-1 -75.961790826136053 44.339365821647576 17.557263026804257 #
point $-1 -55.613676668389537 34.404108421715094 -1.3675377694113569 #
straight-curve $-1 75.961790826136053 3.2851967045969133 110.72216996042147 0 0 -1 I I #
point $-1 75.961790826136053 3.2851967045969133 17.557263026804257 #
straight-curve $-1 75.961790826136053 3.5983628735968587 9.8560405361996004 0 1 0 I I #
point $-1 75.961790826136053 3.2851967045969133 9.8560405361996004 #
point $-1 69.602183491426302 5.5203561575093758 12.477923722832546 #
point $-1 69.602183491426302 8.8730953368780661 12.477923722832546 #
straight-curve $-1 75.961790826136053 0 17.557263026804257 0 1 0 I I #
point $-1 75.961790826136053 11.108254789790521 17.557263026804257 #
point $-1 69.602183491426302 13.343414242702984 12.477923722832546 #
point $-1 69.602183491426302 16.696153422071674 12.477923722832546 #
straight-curve $-1 -70.895866472764652 -66.555875401228619 -17.557263026804257 -1 0 0 I I #
point $-1 -75.961790826136053 -66.555875401228619 -17.557263026804257 #
End-of-ACIS-data 