500 0 8 0           
7 Unknown 11 ACIS 5.0 NT 24 Fri Mar 26 00:36:10 1999 
-1 9.9999999999999995e-007 1e-010 
body $-1 $8 $-1 $9 #
body $-1 $10 $-1 $11 #
body $-1 $12 $-1 $13 #
body $-1 $14 $-1 $15 #
body $-1 $16 $-1 $17 #
body $-1 $18 $-1 $19 #
body $-1 $20 $-1 $21 #
body $-1 $22 $-1 $23 #
lump $-1 $-1 $24 $0 #
transform $-1 1 0 0 0 1 0 0 0 1 56.34693441572314 25.536595073303332 11.889203349125005 1 rotate no_reflect no_shear #
lump $-1 $-1 $25 $1 #
transform $-1 1 0 0 0 1 0 0 0 1 56.34693441572314 25.536595073303332 11.889203349125005 1 rotate no_reflect no_shear #
lump $-1 $-1 $26 $2 #
transform $-1 1 0 0 0 1 0 0 0 1 56.34693441572314 25.536595073303332 11.889203349125005 1 rotate no_reflect no_shear #
lump $-1 $-1 $27 $3 #
transform $-1 1 0 0 0 1 0 0 0 1 56.34693441572314 25.536595073303332 11.889203349125005 1 rotate no_reflect no_shear #
lump $-1 $-1 $28 $4 #
transform $-1 1 0 0 0 1 0 0 0 1 56.34693441572314 25.536595073303332 11.889203349125005 1 rotate no_reflect no_shear #
lump $-1 $-1 $29 $5 #
transform $-1 1 0 0 0 1 0 0 0 1 56.34693441572314 25.536595073303332 11.889203349125005 1 rotate no_reflect no_shear #
lump $-1 $-1 $30 $6 #
transform $-1 1 0 0 0 1 0 0 0 1 56.34693441572314 25.536595073303332 11.889203349125005 1 rotate no_reflect no_shear #
lump $-1 $-1 $31 $7 #
transform $-1 1 0 0 0 1 0 0 0 1 56.34693441572314 25.536595073303332 11.889203349125005 1 rotate no_reflect no_shear #
shell $-1 $-1 $-1 $32 $-1 $8 #
shell $-1 $-1 $-1 $33 $-1 $10 #
shell $-1 $-1 $-1 $34 $-1 $12 #
shell $-1 $-1 $-1 $35 $-1 $14 #
shell $-1 $-1 $-1 $36 $-1 $16 #
shell $-1 $-1 $-1 $37 $-1 $18 #
shell $-1 $-1 $-1 $38 $-1 $20 #
shell $-1 $-1 $-1 $39 $-1 $22 #
face $-1 $40 $41 $24 $-1 $42 forward single #
face $-1 $43 $44 $25 $-1 $45 reversed single #
face $-1 $46 $47 $26 $-1 $48 reversed single #
face $-1 $49 $50 $27 $-1 $51 forward single #
face $-1 $52 $53 $28 $-1 $54 forward single #
face $-1 $55 $56 $29 $-1 $57 forward single #
face $-1 $58 $59 $30 $-1 $60 reversed single #
face $-1 $61 $62 $31 $-1 $63 forward single #
face $-1 $64 $65 $24 $-1 $66 reversed single #
loop $-1 $-1 $67 $32 #
plane-surface $-1 0 0 11.889203349125005 0 0 1 1 0 0 forward_v I I I I #
face $-1 $68 $69 $25 $-1 $70 reversed single #
loop $-1 $-1 $71 $33 #
plane-surface $-1 0 -19.847509493912412 8.3360488730777149 0 0 1 1 0 0 forward_v I I I I #
face $-1 $72 $73 $26 $-1 $74 reversed single #
loop $-1 $-1 $75 $34 #
plane-surface $-1 -127.26748489830844 -7.2131708954611486 93.345480749814072 0 1 0 -0.62932039886446345 0 0.77714595512881146 forward_v I I I I #
face $-1 $76 $77 $27 $-1 $78 forward single #
loop $-1 $79 $80 $35 #
cone-surface $-1 -51.991739876878334 -5.5792157024672875 8.1182651574433855 0.62932039886446345 0 -0.77714595512881146 0.38857297756440573 0 0.31466019943223172 1 I I 0 1 0.5 forward I I I I #
face $-1 $81 $82 $28 $-1 $83 forward single #
loop $-1 $84 $85 $36 #
cone-surface $-1 -51.991739876878334 -3.1282829129764984 8.1182651574433855 0.62932039886446345 0 -0.77714595512881146 0.38857297756440573 0 0.31466019943223172 1 I I 0 1 0.5 forward I I I I #
face $-1 $86 $87 $29 $-1 $88 forward single #
loop $-1 $89 $90 $37 #
cone-surface $-1 -51.991739876878334 -0.67735012348570933 8.1182651574433855 0.62932039886446345 0 -0.77714595512881146 0.38857297756440573 0 0.31466019943223172 1 I I 0 1 0.5 forward I I I I #
face $-1 $91 $92 $30 $-1 $93 reversed single #
loop $-1 $-1 $94 $38 #
plane-surface $-1 -14.57361403456882 21.069160784022181 94.797400982053219 0.77714596973225614 0 0.62932038083071107 0.62932038083071107 0 -0.77714596973225614 forward_v I I I I #
face $-1 $95 $96 $31 $-1 $97 forward single #
loop $-1 $98 $99 $39 #
cone-surface $-1 54.032444910403768 21.069160784022181 9.210904373618277 -0.77714596973225614 0 -0.62932038083071107 0.62932038083071107 0 -0.77714596973225614 1 I I 0 1 1 forward I I I I #
face $-1 $100 $101 $24 $-1 $102 reversed single #
loop $-1 $-1 $103 $40 #
plane-surface $-1 0 0 -11.889203349125005 0 0 1 1 0 0 forward_v I I I I #
coedge $-1 $104 $105 $106 $107 forward $41 $-1 #
face $-1 $108 $109 $25 $-1 $110 reversed single #
loop $-1 $-1 $111 $43 #
plane-surface $-1 0 -14.158423914521494 10.11262611110136 0 -1 0 0 0 -1 forward_v I I I I #
coedge $-1 $112 $113 $114 $115 reversed $44 $-1 #
face $-1 $116 $117 $26 $-1 $118 reversed single #
loop $-1 $-1 $119 $46 #
plane-surface $-1 -56.34693441572314 -3.128282912976502 5.7658964196387501 -0.62932039886446345 0 0.77714595512881146 0.77714595512881146 0 0.62932039886446345 forward_v I I I I #
coedge $-1 $120 $121 $122 $123 reversed $47 $-1 #
face $-1 $-1 $124 $27 $-1 $125 forward single #
loop $-1 $126 $127 $49 #
cone-surface $-1 -51.260042318489134 -5.5792157024672875 7.2146939417226932 0.62932039886446345 0 -0.77714595512881146 0.19428648878220287 0 0.15733009971611586 1 I I -0.70710678118654746 0.70710678118654746 0.25 forward I I I I #
loop $-1 $-1 $128 $35 #
coedge $-1 $80 $80 $129 $130 reversed $50 $-1 #
face $-1 $-1 $131 $28 $-1 $132 forward single #
loop $-1 $133 $134 $52 #
cone-surface $-1 -51.260042318489134 -3.1282829129764984 7.2146939417226932 0.62932039886446345 0 -0.77714595512881146 0.19428648878220287 0 0.15733009971611586 1 I I -0.70710678118654746 0.70710678118654746 0.25 forward I I I I #
loop $-1 $-1 $135 $36 #
coedge $-1 $85 $85 $136 $137 reversed $53 $-1 #
face $-1 $-1 $138 $29 $-1 $139 forward single #
loop $-1 $140 $141 $55 #
cone-surface $-1 -51.260042318489134 -0.67735012348570933 7.2146939417226932 0.62932039886446345 0 -0.77714595512881146 0.19428648878220287 0 0.15733009971611586 1 I I -0.70710678118654746 0.70710678118654746 0.25 forward I I I I #
loop $-1 $-1 $142 $37 #
coedge $-1 $90 $90 $143 $144 reversed $56 $-1 #
face $-1 $145 $146 $30 $-1 $147 reversed single #
loop $-1 $-1 $148 $58 #
plane-surface $-1 73.005971941325171 16.60172649474103 165.71794943234519 0 1 0 0.77714596973225614 0 0.62932038083071107 forward_v I I I I #
coedge $-1 $149 $150 $151 $152 reversed $59 $-1 #
face $-1 $-1 $153 $31 $-1 $154 forward single #
loop $-1 $155 $156 $61 #
cone-surface $-1 53.220790215858116 21.069160784022181 8.5536393791790957 -0.77714596973225614 0 -0.62932038083071107 0.31466019041535553 0 -0.38857298486612807 1 I I -0.70710678118654746 0.70710678118654746 0.5 forward I I I I #
loop $-1 $-1 $157 $39 #
coedge $-1 $99 $99 $158 $159 reversed $62 $-1 #
face $-1 $160 $161 $24 $-1 $162 reversed single #
loop $-1 $-1 $163 $64 #
plane-surface $-1 0 -25.536595073303332 0 0 1 0 0 0 1 forward_v I I I I #
coedge $-1 $164 $165 $166 $167 forward $65 $-1 #
coedge $-1 $168 $67 $169 $170 forward $41 $-1 #
coedge $-1 $67 $168 $171 $172 forward $41 $-1 #
coedge $-1 $173 $174 $67 $107 reversed $175 $-1 #
edge $-1 $176 -25.536595073303332 $177 25.536595073303332 $106 $178 forward 7 unknown #
face $-1 $179 $180 $25 $-1 $181 reversed single #
loop $-1 $-1 $182 $68 #
plane-surface $-1 -56.34693441572314 0 0 1 0 0 0 0 -1 forward_v I I I I #
coedge $-1 $183 $184 $185 $186 reversed $69 $-1 #
coedge $-1 $187 $71 $188 $189 reversed $44 $-1 #
coedge $-1 $71 $187 $183 $190 forward $44 $-1 #
coedge $-1 $185 $191 $71 $115 forward $192 $-1 #
edge $-1 $193 -15.612840326347126 $194 -4.2346691675652881 $114 $195 forward 7 unknown #
face $-1 $196 $197 $26 $-1 $198 forward single #
loop $-1 $-1 $199 $72 #
plane-surface $-1 -127.26748489830844 0.95660506950814472 93.345480749814072 0 -1 0 0.62932039886446345 0 -0.77714595512881146 forward_v I I I I #
coedge $-1 $200 $201 $202 $203 reversed $73 $-1 #
coedge $-1 $121 $75 $204 $205 reversed $47 $-1 #
coedge $-1 $75 $120 $200 $206 reversed $47 $-1 #
coedge $-1 $202 $207 $75 $123 forward $197 $-1 #
edge $-1 $208 7.286808033431079 $209 14.848462193774523 $122 $210 forward 7 unknown #
loop $-1 $-1 $129 $76 #
plane-surface $-1 -56.34693441572314 -3.128282912976502 5.7658964196387501 -0.62932039886446345 0 0.77714595512881146 0.77714595512881146 0 0.62932039886446345 forward_v I I I I #
loop $-1 $-1 $211 $49 #
coedge $-1 $127 $127 $128 $212 reversed $77 $-1 #
coedge $-1 $128 $128 $127 $212 forward $79 $-1 #
coedge $-1 $129 $129 $80 $130 forward $124 $-1 #
edge $-1 $213 0 $213 6.2831853071796004 $129 $214 forward 7 unknown #
loop $-1 $-1 $136 $81 #
plane-surface $-1 -56.34693441572314 -3.128282912976502 5.7658964196387501 -0.62932039886446345 0 0.77714595512881146 0.77714595512881146 0 0.62932039886446345 forward_v I I I I #
loop $-1 $-1 $215 $52 #
coedge $-1 $134 $134 $135 $216 reversed $82 $-1 #
coedge $-1 $135 $135 $134 $216 forward $84 $-1 #
coedge $-1 $136 $136 $85 $137 forward $131 $-1 #
edge $-1 $217 0 $217 6.2831853071796004 $136 $218 forward 7 unknown #
loop $-1 $-1 $143 $86 #
plane-surface $-1 -56.34693441572314 -3.128282912976502 5.7658964196387501 -0.62932039886446345 0 0.77714595512881146 0.77714595512881146 0 0.62932039886446345 forward_v I I I I #
loop $-1 $-1 $219 $55 #
coedge $-1 $141 $141 $142 $220 reversed $87 $-1 #
coedge $-1 $142 $142 $141 $220 forward $89 $-1 #
coedge $-1 $143 $143 $90 $144 forward $138 $-1 #
edge $-1 $221 0 $221 6.2831853071796004 $143 $222 forward 7 unknown #
face $-1 $223 $224 $30 $-1 $225 forward single #
loop $-1 $-1 $226 $91 #
plane-surface $-1 0 25.536595073303332 0 0 -1 0 0 0 -1 forward_v I I I I #
coedge $-1 $227 $228 $229 $230 reversed $92 $-1 #
coedge $-1 $231 $94 $226 $232 reversed $59 $-1 #
coedge $-1 $94 $231 $227 $233 forward $59 $-1 #
coedge $-1 $229 $234 $94 $152 forward $224 $-1 #
edge $-1 $235 -15.002014681292241 $236 -6.0671461027299394 $151 $237 forward 7 unknown #
loop $-1 $-1 $158 $95 #
plane-surface $-1 -14.57361403456882 21.069160784022181 94.797400982053219 0.77714596973225614 0 0.62932038083071107 0.62932038083071107 0 -0.77714596973225614 forward_v I I I I #
loop $-1 $-1 $238 $61 #
coedge $-1 $156 $156 $157 $239 reversed $96 $-1 #
coedge $-1 $157 $157 $156 $239 forward $98 $-1 #
coedge $-1 $158 $158 $99 $159 forward $153 $-1 #
edge $-1 $240 0 $240 6.2831853071796004 $158 $241 forward 7 unknown #
face $-1 $242 $243 $24 $-1 $244 reversed single #
loop $-1 $-1 $245 $100 #
plane-surface $-1 -56.34693441572314 0 0 1 0 0 0 0 -1 forward_v I I I I #
coedge $-1 $246 $171 $247 $248 forward $101 $-1 #
coedge $-1 $249 $103 $246 $250 forward $65 $-1 #
coedge $-1 $103 $249 $251 $252 forward $65 $-1 #
coedge $-1 $174 $173 $103 $167 reversed $175 $-1 #
edge $-1 $253 -25.536595073303332 $254 25.536595073303332 $166 $255 forward 7 unknown #
coedge $-1 $105 $104 $256 $257 forward $41 $-1 #
coedge $-1 $258 $259 $104 $170 reversed $243 $-1 #
edge $-1 $177 -56.34693441572314 $260 56.34693441572314 $169 $261 forward 7 unknown #
coedge $-1 $163 $262 $105 $172 reversed $101 $-1 #
edge $-1 $263 -56.34693441572314 $176 56.34693441572314 $171 $264 forward 7 unknown #
coedge $-1 $166 $106 $262 $265 forward $175 $-1 #
coedge $-1 $106 $166 $258 $266 reversed $175 $-1 #
loop $-1 $-1 $173 $242 #
vertex $-1 $107 $267 #
vertex $-1 $107 $268 #
straight-curve $-1 56.34693441572314 0 11.889203349125005 0 1 0 I I #
face $-1 $269 $270 $25 $-1 $271 forward single #
loop $-1 $-1 $188 $108 #
plane-surface $-1 0 -25.536595073303332 0 0 1 0 0 0 1 forward_v I I I I #
coedge $-1 $272 $273 $274 $275 forward $109 $-1 #
coedge $-1 $274 $111 $113 $190 reversed $69 $-1 #
coedge $-1 $111 $274 $276 $277 reversed $69 $-1 #
coedge $-1 $278 $114 $111 $186 forward $192 $-1 #
edge $-1 $194 3.279735817527035 $279 6.8328902935743248 $185 $280 forward 7 unknown #
coedge $-1 $113 $112 $272 $281 reversed $44 $-1 #
coedge $-1 $282 $283 $112 $189 forward $180 $-1 #
edge $-1 $284 -56.34693441572314 $193 56.34693441572314 $188 $285 forward 7 unknown #
edge $-1 $286 -56.34693441572314 $194 56.34693441572314 $183 $287 forward 7 unknown #
coedge $-1 $114 $278 $282 $288 forward $192 $-1 #
loop $-1 $-1 $185 $269 #
vertex $-1 $189 $289 #
vertex $-1 $115 $290 #
straight-curve $-1 56.34693441572314 -9.923754746956206 8.3360488730777149 0 1 0 I I #
face $-1 $-1 $291 $26 $-1 $292 reversed single #
loop $-1 $-1 $122 $116 #
plane-surface $-1 0 0 11.889203349125005 0 0 1 1 0 0 forward_v I I I I #
coedge $-1 $293 $294 $295 $296 reversed $117 $-1 #
coedge $-1 $297 $119 $121 $206 forward $73 $-1 #
coedge $-1 $119 $297 $293 $298 forward $73 $-1 #
coedge $-1 $295 $122 $119 $203 forward $197 $-1 #
edge $-1 $209 -5.6490294389728977 $299 2.5207465259963957 $202 $300 forward 7 unknown #
coedge $-1 $301 $302 $120 $205 forward $291 $-1 #
edge $-1 $303 -40.906843955268286 $208 -34.783537025782032 $204 $304 forward 7 unknown #
edge $-1 $209 -9.7300309040276787 $303 0 $121 $305 forward 7 unknown #
coedge $-1 $122 $295 $301 $306 forward $197 $-1 #
vertex $-1 $205 $307 #
vertex $-1 $123 $308 #
straight-curve $-1 -63.633742449154219 -7.2131708954611486 11.889203349125005 1 0 0 I I #
coedge $-1 $211 $211 $-1 $309 reversed $126 $-1 #
edge $-1 $310 0 $310 6.2831853071796004 $127 $311 forward 7 unknown #
vertex $-1 $130 $312 #
ellipse-curve $-1 -52.566107335551422 -5.5792157024672875 8.8275498843818774 -0.62932039886446345 0 0.77714595512881146 0.38857297756440573 0 0.31466019943223172 1 I I #
coedge $-1 $215 $215 $-1 $313 reversed $133 $-1 #
edge $-1 $314 0 $314 6.2831853071796004 $134 $315 forward 7 unknown #
vertex $-1 $137 $316 #
ellipse-curve $-1 -52.566107335551422 -3.1282829129764984 8.8275498843818774 -0.62932039886446345 0 0.77714595512881146 0.38857297756440573 0 0.31466019943223172 1 I I #
coedge $-1 $219 $219 $-1 $317 reversed $140 $-1 #
edge $-1 $318 0 $318 6.2831853071796004 $141 $319 forward 7 unknown #
vertex $-1 $144 $320 #
ellipse-curve $-1 -52.566107335551422 -0.67735012348570933 8.8275498843818774 -0.62932039886446345 0 0.77714595512881146 0.38857297756440573 0 0.31466019943223172 1 I I #
face $-1 $-1 $321 $30 $-1 $322 reversed single #
loop $-1 $-1 $151 $145 #
plane-surface $-1 0 0 11.889203349125005 0 0 1 1 0 0 forward_v I I I I #
coedge $-1 $323 $324 $149 $232 forward $146 $-1 #
coedge $-1 $228 $148 $150 $233 reversed $92 $-1 #
coedge $-1 $148 $227 $325 $326 reversed $92 $-1 #
coedge $-1 $327 $151 $148 $230 forward $224 $-1 #
edge $-1 $236 16.061132853780855 $328 19.843948445060555 $229 $329 forward 7 unknown #
coedge $-1 $150 $149 $330 $331 reversed $59 $-1 #
edge $-1 $332 -71.272423607141292 $235 -65.26147003483473 $226 $333 forward 7 unknown #
edge $-1 $334 -112.69386883144625 $236 -106.68291525913969 $227 $335 forward 7 unknown #
coedge $-1 $151 $327 $323 $336 forward $224 $-1 #
vertex $-1 $152 $337 #
vertex $-1 $152 $338 #
straight-curve $-1 52.564118824443426 10.53458039201109 11.889203349125005 0 -1 0 I I #
coedge $-1 $238 $238 $-1 $339 reversed $155 $-1 #
edge $-1 $340 0 $340 6.2831853071796004 $156 $341 forward 7 unknown #
vertex $-1 $159 $342 #
ellipse-curve $-1 54.455526620083297 21.069160784022181 9.5535091776421091 0.77714596973225614 0 0.62932038083071107 0.62932038083071107 0 -0.77714596973225614 1 I I #
face $-1 $-1 $175 $24 $-1 $343 reversed single #
loop $-1 $-1 $258 $160 #
plane-surface $-1 0 25.536595073303332 0 0 -1 0 0 0 -1 forward_v I I I I #
coedge $-1 $344 $256 $259 $345 forward $161 $-1 #
coedge $-1 $262 $163 $164 $250 reversed $101 $-1 #
coedge $-1 $256 $344 $163 $248 reversed $161 $-1 #
edge $-1 $263 -11.889203349125005 $346 11.889203349125005 $247 $347 forward 7 unknown #
coedge $-1 $165 $164 $344 $348 forward $65 $-1 #
edge $-1 $254 -56.34693441572314 $346 56.34693441572314 $246 $349 forward 7 unknown #
coedge $-1 $259 $258 $165 $252 reversed $243 $-1 #
edge $-1 $350 -56.34693441572314 $253 56.34693441572314 $251 $351 forward 7 unknown #
vertex $-1 $167 $352 #
vertex $-1 $265 $353 #
straight-curve $-1 56.34693441572314 0 -11.889203349125005 0 -1 0 I I #
coedge $-1 $245 $247 $168 $257 reversed $161 $-1 #
edge $-1 $260 -25.536595073303332 $263 25.536595073303332 $256 $354 forward 7 unknown #
coedge $-1 $251 $169 $174 $266 forward $243 $-1 #
coedge $-1 $169 $251 $245 $345 reversed $243 $-1 #
vertex $-1 $170 $355 #
straight-curve $-1 0 25.536595073303332 11.889203349125005 -1 0 0 I I #
coedge $-1 $171 $246 $173 $265 reversed $101 $-1 #
vertex $-1 $257 $356 #
straight-curve $-1 0 -25.536595073303332 11.889203349125005 1 0 0 I I #
edge $-1 $176 -11.889203349125005 $254 11.889203349125005 $173 $357 forward 7 unknown #
edge $-1 $177 -11.889203349125005 $253 11.889203349125005 $174 $358 forward 7 unknown #
point $-1 56.34693441572314 -25.536595073303332 11.889203349125005 #
point $-1 56.34693441572314 25.536595073303332 11.889203349125005 #
face $-1 $-1 $192 $25 $-1 $359 reversed single #
loop $-1 $-1 $276 $179 #
plane-surface $-1 0 0 11.889203349125005 0 0 1 1 0 0 forward_v I I I I #
coedge $-1 $360 $182 $187 $281 forward $109 $-1 #
coedge $-1 $182 $360 $361 $362 reversed $109 $-1 #
coedge $-1 $184 $183 $182 $275 reversed $69 $-1 #
edge $-1 $363 -6.8328902935743248 $286 -3.279735817527035 $182 $364 forward 7 unknown #
coedge $-1 $361 $365 $184 $277 forward $270 $-1 #
edge $-1 $279 -56.34693441572314 $363 56.34693441572314 $276 $366 forward 7 unknown #
coedge $-1 $191 $185 $365 $367 reversed $192 $-1 #
vertex $-1 $186 $368 #
straight-curve $-1 56.34693441572314 -14.158423914521494 5.0563130555506799 0 0 1 I I #
edge $-1 $286 4.2346691675652881 $284 15.612840326347126 $272 $369 forward 7 unknown #
coedge $-1 $370 $188 $191 $288 reversed $180 $-1 #
coedge $-1 $188 $370 $360 $371 forward $180 $-1 #
vertex $-1 $189 $372 #
straight-curve $-1 0 -25.536595073303332 8.3360488730777149 1 0 0 I I #
vertex $-1 $281 $373 #
straight-curve $-1 0 -14.158423914521494 8.3360488730777149 1 0 0 I I #
edge $-1 $374 -11.889203349125005 $193 -8.3360488730777149 $191 $375 forward 7 unknown #
point $-1 56.34693441572314 -25.536595073303332 8.3360488730777149 #
point $-1 56.34693441572314 -14.158423914521494 8.3360488730777149 #
loop $-1 $-1 $204 $196 #
plane-surface $-1 -56.34693441572314 0 0 1 0 0 0 0 -1 forward_v I I I I #
coedge $-1 $294 $199 $201 $298 reversed $117 $-1 #
coedge $-1 $199 $293 $376 $377 reversed $117 $-1 #
coedge $-1 $207 $202 $199 $296 forward $197 $-1 #
edge $-1 $299 -14.848462193774523 $378 -7.286808033431079 $295 $379 forward 7 unknown #
coedge $-1 $201 $200 $302 $380 reversed $73 $-1 #
edge $-1 $381 0 $299 9.7300309040276787 $293 $382 forward 7 unknown #
vertex $-1 $203 $383 #
straight-curve $-1 -48.785280255379696 -1.564141456488251 11.889203349125003 0 1 0 I I #
coedge $-1 $376 $204 $207 $306 reversed $291 $-1 #
coedge $-1 $204 $376 $297 $380 forward $291 $-1 #
vertex $-1 $205 $384 #
straight-curve $-1 -56.34693441572314 -7.2131708954611486 46.672740374907036 0 0 1 I I #
straight-curve $-1 -56.34693441572314 -7.2131708954611486 5.7658964196387501 -0.77714595512881146 0 -0.62932039886446345 I I #
edge $-1 $378 -0.95660506950814472 $208 7.2131708954611486 $301 $385 forward 7 unknown #
point $-1 -56.34693441572314 -7.2131708954611486 11.889203349125005 #
point $-1 -48.785280255379696 -7.2131708954611486 11.889203349125005 #
edge $-1 $386 1 $386 0 $211 $-1 forward 7 unknown #
vertex $-1 $212 $387 #
ellipse-curve $-1 -51.417372418205247 -5.5792157024672875 7.4089804305048963 -0.62932039886446345 0 0.77714595512881146 0.38857297756440573 0 0.31466019943223172 1 I I #
point $-1 -52.177534357987014 -5.5792157024672875 9.1422100838141063 #
edge $-1 $388 1 $388 0 $215 $-1 forward 7 unknown #
vertex $-1 $216 $389 #
ellipse-curve $-1 -51.417372418205247 -3.1282829129764984 7.4089804305048963 -0.62932039886446345 0 0.77714595512881146 0.38857297756440573 0 0.31466019943223172 1 I I #
point $-1 -52.177534357987014 -3.1282829129764984 9.1422100838141063 #
edge $-1 $390 1 $390 0 $219 $-1 forward 7 unknown #
vertex $-1 $220 $391 #
ellipse-curve $-1 -51.417372418205247 -0.67735012348570933 7.4089804305048963 -0.62932039886446345 0 0.77714595512881146 0.38857297756440573 0 0.31466019943223172 1 I I #
point $-1 -52.177534357987014 -0.67735012348570933 9.1422100838141063 #
loop $-1 $-1 $330 $223 #
plane-surface $-1 56.34693441572314 0 0 -1 0 0 0 0 1 forward_v I I I I #
coedge $-1 $324 $226 $234 $336 reversed $146 $-1 #
coedge $-1 $226 $323 $392 $393 forward $146 $-1 #
coedge $-1 $330 $394 $228 $326 forward $321 $-1 #
edge $-1 $328 70.969771367047599 $334 75.641159710013355 $325 $395 forward 7 unknown #
coedge $-1 $234 $229 $394 $396 forward $224 $-1 #
vertex $-1 $396 $397 #
straight-curve $-1 36.502985970662586 16.60172649474103 11.889203349124998 1 0 0 I I #
coedge $-1 $392 $325 $231 $331 forward $321 $-1 #
edge $-1 $334 6.0671461027299394 $332 15.002014681292241 $330 $398 forward 7 unknown #
vertex $-1 $331 $399 #
straight-curve $-1 11.493745648549215 25.536595073303332 62.606891765499206 -0.62932038083071107 0 0.77714596973225614 I I #
vertex $-1 $331 $400 #
straight-curve $-1 -14.57361403456882 16.60172649474103 94.797400982053219 -0.62932038083071107 0 0.77714596973225614 I I #
edge $-1 $401 -56.34693441572314 $235 -52.56411882444344 $323 $402 forward 7 unknown #
point $-1 52.56411882444344 25.536595073303332 11.889203349124998 #
point $-1 52.56411882444344 16.60172649474103 11.889203349124998 #
edge $-1 $403 1 $403 0 $238 $-1 forward 7 unknown #
vertex $-1 $239 $404 #
ellipse-curve $-1 53.609363200724246 21.069160784022181 8.868299569594452 0.77714596973225614 0 0.62932038083071107 0.62932038083071107 0 -0.77714596973225614 1 I I #
point $-1 55.084847000913996 21.069160784022181 8.7763632079098439 #
plane-surface $-1 56.34693441572314 0 0 -1 0 0 0 0 1 forward_v I I I I #
coedge $-1 $247 $245 $249 $348 reversed $161 $-1 #
edge $-1 $260 -11.889203349125005 $350 11.889203349125005 $259 $405 forward 7 unknown #
vertex $-1 $348 $406 #
straight-curve $-1 -56.34693441572314 -25.536595073303332 0 0 0 -1 I I #
edge $-1 $346 -25.536595073303332 $350 25.536595073303332 $344 $407 forward 7 unknown #
straight-curve $-1 0 -25.536595073303332 -11.889203349125005 -1 0 0 I I #
vertex $-1 $252 $408 #
straight-curve $-1 0 25.536595073303332 -11.889203349125005 1 0 0 I I #
point $-1 56.34693441572314 25.536595073303332 -11.889203349125005 #
point $-1 56.34693441572314 -25.536595073303332 -11.889203349125005 #
straight-curve $-1 -56.34693441572314 0 11.889203349125005 0 -1 0 I I #
point $-1 -56.34693441572314 25.536595073303332 11.889203349125005 #
point $-1 -56.34693441572314 -25.536595073303332 11.889203349125005 #
straight-curve $-1 56.34693441572314 -25.536595073303332 0 0 0 -1 I I #
straight-curve $-1 56.34693441572314 25.536595073303332 0 0 0 -1 I I #
plane-surface $-1 56.34693441572314 0 0 -1 0 0 0 0 1 forward_v I I I I #
coedge $-1 $273 $272 $283 $371 reversed $109 $-1 #
coedge $-1 $409 $276 $273 $362 forward $270 $-1 #
edge $-1 $363 14.158423914521494 $410 25.536595073303332 $273 $411 forward 7 unknown #
vertex $-1 $362 $412 #
straight-curve $-1 -56.34693441572314 -14.158423914521494 5.0563130555506799 0 0 -1 I I #
coedge $-1 $276 $409 $278 $367 forward $270 $-1 #
straight-curve $-1 0 -14.158423914521494 11.889203349125005 -1 0 0 I I #
edge $-1 $374 -25.536595073303332 $279 -14.158423914521494 $278 $413 forward 7 unknown #
point $-1 56.34693441572314 -14.158423914521494 11.889203349125005 #
straight-curve $-1 -56.34693441572314 -9.923754746956206 8.3360488730777149 0 -1 0 I I #
coedge $-1 $283 $282 $409 $414 reversed $180 $-1 #
edge $-1 $410 -11.889203349125005 $284 -8.3360488730777149 $360 $415 forward 7 unknown #
point $-1 -56.34693441572314 -25.536595073303332 8.3360488730777149 #
point $-1 -56.34693441572314 -14.158423914521494 8.3360488730777149 #
vertex $-1 $367 $416 #
straight-curve $-1 56.34693441572314 -25.536595073303332 0 0 0 -1 I I #
coedge $-1 $302 $301 $294 $377 forward $291 $-1 #
edge $-1 $378 34.783537025782032 $381 40.906843955268286 $376 $417 forward 7 unknown #
vertex $-1 $306 $418 #
straight-curve $-1 -63.633742449154219 0.95660506950814472 11.889203349125005 -1 0 0 I I #
edge $-1 $381 -2.5207465259963957 $303 5.6490294389728977 $302 $419 forward 7 unknown #
vertex $-1 $380 $420 #
straight-curve $-1 -56.34693441572314 0.95660506950814472 5.7658964196387501 0.77714595512881146 0 0.62932039886446345 I I #
point $-1 -48.785280255379696 0.95660506950814472 11.889203349125005 #
point $-1 -56.34693441572314 -7.2131708954611486 5.7658964196387501 #
straight-curve $-1 -56.34693441572314 0 11.889203349125005 0 -1 0 I I #
vertex $-1 $309 $421 #
point $-1 -51.028799440640846 -5.5792157024672875 7.7236406299371279 #
vertex $-1 $313 $422 #
point $-1 -51.028799440640846 -3.1282829129764984 7.7236406299371279 #
vertex $-1 $317 $423 #
point $-1 -51.028799440640846 -0.67735012348570933 7.7236406299371279 #
coedge $-1 $394 $330 $324 $393 reversed $321 $-1 #
edge $-1 $401 -11.889203349125005 $332 -7.2178150061592419 $392 $424 forward 7 unknown #
coedge $-1 $325 $392 $327 $396 reversed $321 $-1 #
straight-curve $-1 56.34693441572314 16.60172649474103 82.858974716172597 0 0 -1 I I #
edge $-1 $328 16.60172649474103 $401 25.536595073303332 $394 $425 forward 7 unknown #
point $-1 56.34693441572314 16.60172649474103 11.889203349125005 #
straight-curve $-1 56.34693441572314 10.53458039201109 7.2178150061592348 0 1 0 I I #
point $-1 56.34693441572314 25.536595073303332 7.2178150061592419 #
point $-1 56.34693441572314 16.60172649474103 7.2178150061592419 #
vertex $-1 $396 $426 #
straight-curve $-1 0 25.536595073303332 11.889203349125005 -1 0 0 I I #
vertex $-1 $339 $427 #
point $-1 54.238683581554959 21.069160784022181 8.0911535998621957 #
straight-curve $-1 -56.34693441572314 25.536595073303332 0 0 0 -1 I I #
point $-1 -56.34693441572314 -25.536595073303332 -11.889203349125005 #
straight-curve $-1 -56.34693441572314 0 -11.889203349125005 0 1 0 I I #
point $-1 -56.34693441572314 25.536595073303332 -11.889203349125005 #
coedge $-1 $365 $361 $370 $414 forward $270 $-1 #
vertex $-1 $362 $428 #
straight-curve $-1 -56.34693441572314 0 11.889203349125005 0 -1 0 I I #
point $-1 -56.34693441572314 -14.158423914521494 11.889203349125005 #
straight-curve $-1 56.34693441572314 0 11.889203349125005 0 1 0 I I #
edge $-1 $410 -56.34693441572314 $374 56.34693441572314 $370 $429 forward 7 unknown #
straight-curve $-1 -56.34693441572314 -25.536595073303332 0 0 0 -1 I I #
point $-1 56.34693441572314 -25.536595073303332 11.889203349125005 #
straight-curve $-1 -56.34693441572314 0.95660506950814472 46.672740374907036 0 0 -1 I I #
point $-1 -56.34693441572314 0.95660506950814472 11.889203349125005 #
straight-curve $-1 -56.34693441572314 -1.564141456488251 5.765896419638751 0 -1 0 I I #
point $-1 -56.34693441572314 0.95660506950814472 5.7658964196387501 #
point $-1 -51.102712218773021 -5.5792157024672875 7.0204074529404901 #
point $-1 -51.102712218773021 -3.1282829129764984 7.0204074529404901 #
point $-1 -51.102712218773021 -0.67735012348570933 7.0204074529404901 #
straight-curve $-1 56.34693441572314 25.536595073303332 0 0 0 -1 I I #
straight-curve $-1 56.34693441572314 0 11.889203349125005 0 1 0 I I #
point $-1 56.34693441572314 25.536595073303332 11.889203349125005 #
point $-1 52.832217230991986 21.069160784022181 8.2389791887637394 #
point $-1 -56.34693441572314 -25.536595073303332 11.889203349125005 #
straight-curve $-1 0 -25.536595073303332 11.889203349125005 1 0 0 I I #
End-of-ACIS-data 