500 0 4 0           
7 Unknown 11 ACIS 5.0 NT 24 Thu Mar 25 16:08:00 1999 
-1 9.9999999999999995e-007 1e-010 
body $-1 $4 $-1 $5 #
body $-1 $6 $-1 $7 #
body $-1 $8 $-1 $9 #
body $-1 $10 $-1 $11 #
lump $-1 $-1 $12 $0 #
transform $-1 1 0 0 0 1 0 0 0 1 77.062898648030028 45.013133600084551 15.202149734751906 1 rotate no_reflect no_shear #
lump $-1 $-1 $13 $1 #
transform $-1 1 0 0 0 1 0 0 0 1 77.062898648030028 45.013133600084551 15.202149734751906 1 rotate no_reflect no_shear #
lump $-1 $-1 $14 $2 #
transform $-1 1 0 0 0 1 0 0 0 1 77.062898648030028 45.013133600084551 15.202149734751906 1 rotate no_reflect no_shear #
lump $-1 $-1 $15 $3 #
transform $-1 1 0 0 0 1 0 0 0 1 77.062898648030028 45.013133600084551 15.202149734751906 1 rotate no_reflect no_shear #
shell $-1 $-1 $-1 $16 $-1 $4 #
shell $-1 $-1 $-1 $17 $-1 $6 #
shell $-1 $-1 $-1 $18 $-1 $8 #
shell $-1 $-1 $-1 $19 $-1 $10 #
face $-1 $20 $21 $12 $-1 $22 forward single #
face $-1 $23 $24 $13 $-1 $25 reversed single #
face $-1 $26 $27 $14 $-1 $28 reversed single #
face $-1 $29 $30 $15 $-1 $31 forward single #
face $-1 $32 $33 $12 $-1 $34 reversed single #
loop $-1 $-1 $35 $16 #
plane-surface $-1 0 0 15.202149734751906 0 0 1 1 0 0 forward_v I I I I #
face $-1 $36 $37 $13 $-1 $38 reversed single #
loop $-1 $-1 $39 $17 #
plane-surface $-1 -69.666210970331122 -43.046120273448395 0 0 1 0 0 0 1 forward_v I I I I #
face $-1 $40 $41 $14 $-1 $42 reversed single #
loop $-1 $-1 $43 $18 #
plane-surface $-1 58.534497245913741 -45.013133600084529 10.97400282398155 0 -0.51503808176128008 0.85716729658548041 1 0 0 forward_v I I I I #
face $-1 $44 $45 $15 $-1 $46 forward single #
loop $-1 $47 $48 $19 #
cone-surface $-1 58.534497245913741 -41.161357398985523 12.533260116969156 0 0.51503808176128008 -0.85716729658548041 1 0 0 1 I I 0 1 1 forward I I I I #
face $-1 $49 $50 $12 $-1 $51 reversed single #
loop $-1 $-1 $52 $20 #
plane-surface $-1 0 0 -15.202149734751906 0 0 1 1 0 0 forward_v I I I I #
coedge $-1 $53 $54 $55 $56 forward $21 $-1 #
face $-1 $57 $58 $13 $-1 $59 reversed single #
loop $-1 $-1 $60 $23 #
plane-surface $-1 -69.666210970331122 -37.20474979551733 0 0 -1 0 0 0 -1 forward_v I I I I #
coedge $-1 $61 $62 $63 $64 reversed $24 $-1 #
face $-1 $65 $66 $14 $-1 $67 reversed single #
loop $-1 $-1 $68 $26 #
plane-surface $-1 40.006095843797453 -124.39378858937519 143.08559582632711 1 0 0 0 0.51503808176128008 -0.85716729658548041 forward_v I I I I #
coedge $-1 $69 $70 $71 $72 reversed $27 $-1 #
face $-1 $-1 $73 $15 $-1 $74 forward single #
loop $-1 $75 $76 $29 #
cone-surface $-1 58.534497245913741 -40.570471169284573 11.549860306278838 0 0.51503808176128008 -0.85716729658548041 0.5 0 0 1 I I -0.70710678118654746 0.70710678118654746 0.5 forward I I I I #
loop $-1 $-1 $77 $19 #
coedge $-1 $48 $48 $78 $79 reversed $30 $-1 #
face $-1 $80 $81 $12 $-1 $82 reversed single #
loop $-1 $-1 $83 $32 #
plane-surface $-1 0 -45.013133600084551 0 0 1 0 0 0 1 forward_v I I I I #
coedge $-1 $84 $85 $86 $87 forward $33 $-1 #
coedge $-1 $88 $35 $89 $90 forward $21 $-1 #
coedge $-1 $35 $88 $91 $92 forward $21 $-1 #
coedge $-1 $93 $94 $35 $56 reversed $95 $-1 #
edge $-1 $96 -45.013133600084551 $97 45.013133600084551 $55 $98 forward 7 unknown #
face $-1 $99 $100 $13 $-1 $101 reversed single #
loop $-1 $-1 $102 $36 #
plane-surface $-1 -62.269523292632208 -40.125435034482862 0 -1 0 0 0 0 1 forward_v I I I I #
coedge $-1 $103 $104 $105 $106 forward $37 $-1 #
coedge $-1 $107 $39 $108 $109 reversed $24 $-1 #
coedge $-1 $39 $107 $110 $111 reversed $24 $-1 #
coedge $-1 $112 $113 $39 $64 forward $114 $-1 #
edge $-1 $115 -15.202149734751906 $116 15.202149734751906 $63 $117 forward 7 unknown #
face $-1 $118 $119 $14 $-1 $120 forward single #
loop $-1 $-1 $121 $40 #
plane-surface $-1 0 -45.013133600084551 0 0 1 0 0 0 1 forward_v I I I I #
coedge $-1 $122 $123 $124 $125 reversed $41 $-1 #
coedge $-1 $126 $43 $127 $128 reversed $27 $-1 #
coedge $-1 $43 $126 $122 $129 forward $27 $-1 #
coedge $-1 $124 $130 $43 $72 forward $119 $-1 #
edge $-1 $131 -47.795650025073158 $132 -10.738847220840583 $71 $133 forward 7 unknown #
loop $-1 $-1 $78 $44 #
plane-surface $-1 58.534497245913741 -45.013133600084529 10.97400282398155 0 -0.51503808176128008 0.85716729658548041 1 0 0 forward_v I I I I #
loop $-1 $-1 $134 $29 #
coedge $-1 $76 $76 $77 $135 reversed $45 $-1 #
coedge $-1 $77 $77 $76 $135 forward $47 $-1 #
coedge $-1 $78 $78 $48 $79 forward $73 $-1 #
edge $-1 $136 3.0583742316829887e-015 $136 6.2831853071796031 $78 $137 forward 7 unknown #
face $-1 $138 $139 $12 $-1 $140 reversed single #
loop $-1 $-1 $141 $49 #
plane-surface $-1 -77.062898648030028 0 0 1 0 0 0 0 -1 forward_v I I I I #
coedge $-1 $142 $91 $143 $144 forward $50 $-1 #
coedge $-1 $145 $52 $142 $146 forward $33 $-1 #
coedge $-1 $52 $145 $147 $148 forward $33 $-1 #
coedge $-1 $94 $93 $52 $87 reversed $95 $-1 #
edge $-1 $149 -45.013133600084551 $150 45.013133600084551 $86 $151 forward 7 unknown #
coedge $-1 $54 $53 $152 $153 forward $21 $-1 #
coedge $-1 $154 $155 $53 $90 reversed $139 $-1 #
edge $-1 $97 -77.062898648030028 $156 77.062898648030028 $89 $157 forward 7 unknown #
coedge $-1 $83 $158 $54 $92 reversed $50 $-1 #
edge $-1 $159 -77.062898648030028 $96 77.062898648030028 $91 $160 forward 7 unknown #
coedge $-1 $86 $55 $158 $161 forward $95 $-1 #
coedge $-1 $55 $86 $154 $162 reversed $95 $-1 #
loop $-1 $-1 $93 $138 #
vertex $-1 $56 $163 #
vertex $-1 $56 $164 #
straight-curve $-1 77.062898648030028 0 15.202149734751906 0 1 0 I I #
face $-1 $165 $166 $13 $-1 $167 forward single #
loop $-1 $-1 $168 $57 #
plane-surface $-1 0 0 -15.202149734751906 0 0 1 1 0 0 forward_v I I I I #
coedge $-1 $169 $170 $107 $171 forward $58 $-1 #
coedge $-1 $172 $60 $168 $173 reversed $37 $-1 #
coedge $-1 $60 $172 $174 $175 reversed $37 $-1 #
coedge $-1 $170 $169 $60 $106 reversed $58 $-1 #
edge $-1 $176 -15.202149734751906 $177 15.202149734751906 $105 $178 forward 7 unknown #
coedge $-1 $62 $61 $102 $171 reversed $24 $-1 #
coedge $-1 $179 $180 $61 $109 forward $100 $-1 #
edge $-1 $181 27.436417807466647 $115 42.229793162864468 $108 $182 forward 7 unknown #
coedge $-1 $183 $184 $62 $111 forward $166 $-1 #
edge $-1 $116 -42.229793162864468 $185 -27.436417807466647 $110 $186 forward 7 unknown #
coedge $-1 $187 $63 $184 $188 reversed $114 $-1 #
coedge $-1 $63 $187 $179 $189 reversed $114 $-1 #
loop $-1 $-1 $187 $165 #
vertex $-1 $189 $190 #
vertex $-1 $64 $191 #
straight-curve $-1 -77.062898648030028 -43.046120273448395 0 0 0 1 I I #
face $-1 $-1 $192 $14 $-1 $193 reversed single #
loop $-1 $-1 $124 $65 #
plane-surface $-1 0 0 15.202149734751906 0 0 1 1 0 0 forward_v I I I I #
coedge $-1 $194 $195 $123 $196 forward $66 $-1 #
coedge $-1 $123 $68 $70 $129 reversed $41 $-1 #
coedge $-1 $68 $122 $121 $196 reversed $41 $-1 #
coedge $-1 $197 $71 $68 $125 forward $119 $-1 #
edge $-1 $132 -24.220578719160528 $198 -17.183760694603045 $124 $199 forward 7 unknown #
coedge $-1 $70 $69 $194 $200 reversed $27 $-1 #
coedge $-1 $201 $202 $69 $128 forward $192 $-1 #
edge $-1 $203 -16.465878337559616 $131 -8.2564913805576428 $127 $204 forward 7 unknown #
edge $-1 $205 -2.4675859811215743e-014 $132 8.2093869570019464 $122 $206 forward 7 unknown #
coedge $-1 $71 $197 $201 $207 forward $119 $-1 #
vertex $-1 $128 $208 #
vertex $-1 $72 $209 #
straight-curve $-1 29.26724862295687 -37.976315575527067 15.202149734751906 -1 0 0 I I #
coedge $-1 $134 $134 $-1 $210 reversed $75 $-1 #
edge $-1 $211 0 $211 6.2831853071796004 $76 $212 forward 7 unknown #
vertex $-1 $79 $213 #
ellipse-curve $-1 58.534497245913741 -41.49472458780582 13.088076279366716 0 -0.51503808176128008 0.85716729658548041 1 0 0 1 I I #
face $-1 $-1 $95 $12 $-1 $214 reversed single #
loop $-1 $-1 $154 $80 #
plane-surface $-1 0 45.013133600084551 0 0 -1 0 0 0 -1 forward_v I I I I #
coedge $-1 $215 $152 $155 $216 forward $81 $-1 #
coedge $-1 $158 $83 $84 $146 reversed $50 $-1 #
coedge $-1 $152 $215 $83 $144 reversed $81 $-1 #
edge $-1 $159 -15.202149734751906 $217 15.202149734751906 $143 $218 forward 7 unknown #
coedge $-1 $85 $84 $215 $219 forward $33 $-1 #
edge $-1 $150 -77.062898648030028 $217 77.062898648030028 $142 $220 forward 7 unknown #
coedge $-1 $155 $154 $85 $148 reversed $139 $-1 #
edge $-1 $221 -77.062898648030028 $149 77.062898648030028 $147 $222 forward 7 unknown #
vertex $-1 $87 $223 #
vertex $-1 $161 $224 #
straight-curve $-1 77.062898648030028 0 -15.202149734751906 0 -1 0 I I #
coedge $-1 $141 $143 $88 $153 reversed $81 $-1 #
edge $-1 $156 -45.013133600084551 $159 45.013133600084551 $152 $225 forward 7 unknown #
coedge $-1 $147 $89 $94 $162 forward $139 $-1 #
coedge $-1 $89 $147 $141 $216 reversed $139 $-1 #
vertex $-1 $90 $226 #
straight-curve $-1 0 45.013133600084551 15.202149734751906 -1 0 0 I I #
coedge $-1 $91 $142 $93 $161 reversed $50 $-1 #
vertex $-1 $153 $227 #
straight-curve $-1 0 -45.013133600084551 15.202149734751906 1 0 0 I I #
edge $-1 $96 -15.202149734751906 $150 15.202149734751906 $93 $228 forward 7 unknown #
edge $-1 $97 -15.202149734751906 $149 15.202149734751906 $94 $229 forward 7 unknown #
point $-1 77.062898648030028 -45.013133600084551 15.202149734751906 #
point $-1 77.062898648030028 45.013133600084551 15.202149734751906 #
face $-1 $-1 $114 $13 $-1 $230 reversed single #
loop $-1 $-1 $174 $99 #
plane-surface $-1 0 0 15.202149734751906 0 0 1 1 0 0 forward_v I I I I #
coedge $-1 $180 $179 $103 $173 forward $100 $-1 #
coedge $-1 $105 $102 $180 $231 reversed $58 $-1 #
coedge $-1 $102 $105 $183 $232 reversed $58 $-1 #
edge $-1 $185 -15.202149734751906 $181 15.202149734751906 $102 $233 forward 7 unknown #
coedge $-1 $104 $103 $187 $234 reversed $37 $-1 #
edge $-1 $235 -42.229793162864468 $177 -27.436417807466647 $168 $236 forward 7 unknown #
coedge $-1 $184 $183 $104 $175 forward $166 $-1 #
edge $-1 $176 27.436417807466647 $237 42.229793162864468 $174 $238 forward 7 unknown #
vertex $-1 $175 $239 #
vertex $-1 $173 $240 #
straight-curve $-1 -62.269523292632208 -37.20474979551733 0 0 0 -1 I I #
coedge $-1 $168 $108 $113 $189 forward $100 $-1 #
coedge $-1 $108 $168 $169 $231 forward $100 $-1 #
vertex $-1 $109 $241 #
straight-curve $-1 -34.833105485165561 -43.046120273448395 -15.202149734751906 -1 0 0 I I #
coedge $-1 $174 $110 $170 $232 forward $166 $-1 #
coedge $-1 $110 $174 $112 $188 forward $166 $-1 #
vertex $-1 $111 $242 #
straight-curve $-1 -34.833105485165561 -43.046120273448395 15.202149734751906 1 0 0 I I #
coedge $-1 $113 $112 $172 $234 forward $114 $-1 #
edge $-1 $237 37.20474979551733 $116 43.046120273448395 $112 $243 forward 7 unknown #
edge $-1 $115 -43.046120273448395 $235 -37.20474979551733 $113 $244 forward 7 unknown #
point $-1 -77.062898648030028 -43.046120273448395 -15.202149734751906 #
point $-1 -77.062898648030028 -43.046120273448395 15.202149734751906 #
loop $-1 $-1 $127 $118 #
plane-surface $-1 77.062898648030028 0 0 -1 0 0 0 0 1 forward_v I I I I #
coedge $-1 $245 $121 $126 $200 forward $66 $-1 #
coedge $-1 $121 $245 $197 $246 reversed $66 $-1 #
edge $-1 $198 56.340648178411648 $205 60.568795089182018 $121 $247 forward 7 unknown #
coedge $-1 $130 $124 $195 $246 forward $119 $-1 #
vertex $-1 $246 $248 #
straight-curve $-1 40.006095843797453 -62.196894294687596 15.202149734751906 0 -1 0 I I #
edge $-1 $205 10.738847220840583 $203 47.795650025073158 $194 $249 forward 7 unknown #
coedge $-1 $202 $127 $130 $207 reversed $192 $-1 #
coedge $-1 $127 $201 $245 $250 forward $192 $-1 #
vertex $-1 $200 $251 #
straight-curve $-1 77.062898648030028 -30.89912117957315 19.454557217472857 0 0.85716729658548041 0.51503808176128008 I I #
vertex $-1 $200 $252 #
straight-curve $-1 40.006095843797453 -45.013133600084529 10.97400282398155 0 0.85716729658548041 0.51503808176128008 I I #
edge $-1 $253 -45.013133600084551 $131 -37.976315575527067 $201 $254 forward 7 unknown #
point $-1 77.062898648030028 -37.976315575527067 15.202149734751906 #
point $-1 40.006095843797453 -37.976315575527067 15.202149734751906 #
edge $-1 $255 1 $255 0 $134 $-1 forward 7 unknown #
vertex $-1 $135 $256 #
ellipse-curve $-1 58.534497245913741 -40.827990210165211 11.978443954571578 0 -0.51503808176128008 0.85716729658548041 1 0 0 1 I I #
point $-1 59.534497245913741 -41.494724587805827 13.088076279366733 #
plane-surface $-1 77.062898648030028 0 0 -1 0 0 0 0 1 forward_v I I I I #
coedge $-1 $143 $141 $145 $219 reversed $81 $-1 #
edge $-1 $156 -15.202149734751906 $221 15.202149734751906 $155 $257 forward 7 unknown #
vertex $-1 $219 $258 #
straight-curve $-1 -77.062898648030028 -45.013133600084551 0 0 0 -1 I I #
edge $-1 $217 -45.013133600084551 $221 45.013133600084551 $215 $259 forward 7 unknown #
straight-curve $-1 0 -45.013133600084551 -15.202149734751906 -1 0 0 I I #
vertex $-1 $148 $260 #
straight-curve $-1 0 45.013133600084551 -15.202149734751906 1 0 0 I I #
point $-1 77.062898648030028 45.013133600084551 -15.202149734751906 #
point $-1 77.062898648030028 -45.013133600084551 -15.202149734751906 #
straight-curve $-1 -77.062898648030028 0 15.202149734751906 0 -1 0 I I #
point $-1 -77.062898648030028 45.013133600084551 15.202149734751906 #
point $-1 -77.062898648030028 -45.013133600084551 15.202149734751906 #
straight-curve $-1 77.062898648030028 -45.013133600084551 0 0 0 -1 I I #
straight-curve $-1 77.062898648030028 45.013133600084551 0 0 0 -1 I I #
plane-surface $-1 -77.062898648030028 0 0 1 0 0 0 0 -1 forward_v I I I I #
edge $-1 $177 17.142032278275899 $181 22.983402756206964 $180 $261 forward 7 unknown #
edge $-1 $185 -22.983402756206964 $176 -17.142032278275899 $183 $262 forward 7 unknown #
straight-curve $-1 -62.269523292632208 -43.046120273448395 0 0 0 -1 I I #
edge $-1 $237 -15.202149734751906 $235 15.202149734751906 $187 $263 forward 7 unknown #
vertex $-1 $234 $264 #
straight-curve $-1 -34.833105485165561 -37.20474979551733 -15.202149734751906 1 0 0 I I #
vertex $-1 $188 $265 #
straight-curve $-1 -34.833105485165561 -37.20474979551733 15.202149734751906 -1 0 0 I I #
point $-1 -62.269523292632208 -37.20474979551733 15.202149734751906 #
point $-1 -62.269523292632208 -37.20474979551733 -15.202149734751906 #
point $-1 -62.269523292632208 -43.046120273448395 -15.202149734751906 #
point $-1 -62.269523292632208 -43.046120273448395 15.202149734751906 #
straight-curve $-1 -77.062898648030028 0 15.202149734751906 0 -1 0 I I #
straight-curve $-1 -77.062898648030028 0 -15.202149734751906 0 1 0 I I #
coedge $-1 $195 $194 $202 $250 reversed $66 $-1 #
edge $-1 $198 40.006095843797453 $253 77.062898648030028 $195 $266 forward 7 unknown #
straight-curve $-1 40.006095843797453 -45.013133600084551 71.542797913163554 0 0 -1 I I #
point $-1 40.006095843797453 -45.013133600084551 15.202149734751906 #
straight-curve $-1 29.26724862295687 -45.013133600084551 10.974002823981539 1 0 0 I I #
edge $-1 $253 -15.202149734751906 $203 -10.974002823981538 $202 $267 forward 7 unknown #
point $-1 77.062898648030028 -45.013133600084551 10.974002823981538 #
point $-1 40.006095843797453 -45.013133600084551 10.974002823981538 #
vertex $-1 $207 $268 #
straight-curve $-1 77.062898648030028 0 15.202149734751906 0 1 0 I I #
vertex $-1 $210 $269 #
point $-1 59.534497245913741 -40.827990210165211 11.978443954571578 #
straight-curve $-1 -77.062898648030028 45.013133600084551 0 0 0 -1 I I #
point $-1 -77.062898648030028 -45.013133600084551 -15.202149734751906 #
straight-curve $-1 -77.062898648030028 0 -15.202149734751906 0 1 0 I I #
point $-1 -77.062898648030028 45.013133600084551 -15.202149734751906 #
straight-curve $-1 -62.269523292632208 -20.062717517241431 -15.202149734751906 0 -1 0 I I #
straight-curve $-1 -62.269523292632208 -20.062717517241431 15.202149734751906 0 1 0 I I #
straight-curve $-1 -77.062898648030028 -37.20474979551733 0 0 0 -1 I I #
point $-1 -77.062898648030028 -37.20474979551733 -15.202149734751906 #
point $-1 -77.062898648030028 -37.20474979551733 15.202149734751906 #
straight-curve $-1 0 -45.013133600084551 15.202149734751906 1 0 0 I I #
straight-curve $-1 77.062898648030028 -45.013133600084551 0 0 0 -1 I I #
point $-1 77.062898648030028 -45.013133600084551 15.202149734751906 #
point $-1 58.534497245913741 -40.312952128403936 11.121276657986098 #
End-of-ACIS-data 