500 0 10 0           
7 Unknown 11 ACIS 5.0 NT 24 Thu Mar 25 16:48:30 1999 
-1 9.9999999999999995e-007 1e-010 
body $-1 $10 $-1 $11 #
body $-1 $12 $-1 $13 #
body $-1 $14 $-1 $15 #
body $-1 $16 $-1 $17 #
body $-1 $18 $-1 $19 #
body $-1 $20 $-1 $21 #
body $-1 $22 $-1 $23 #
body $-1 $24 $-1 $25 #
body $-1 $26 $-1 $27 #
body $-1 $28 $-1 $29 #
lump $-1 $-1 $30 $0 #
transform $-1 1 0 0 0 1 0 0 0 1 71.861323892941073 39.779334003714787 19.153979376922209 1 rotate no_reflect no_shear #
lump $-1 $-1 $31 $1 #
transform $-1 1 0 0 0 1 0 0 0 1 71.861323892941073 39.779334003714787 19.153979376922209 1 rotate no_reflect no_shear #
lump $-1 $-1 $32 $2 #
transform $-1 1 0 0 0 1 0 0 0 1 71.861323892941073 39.779334003714787 19.153979376922209 1 rotate no_reflect no_shear #
lump $-1 $-1 $33 $3 #
transform $-1 1 0 0 0 1 0 0 0 1 71.861323892941073 39.779334003714787 19.153979376922209 1 rotate no_reflect no_shear #
lump $-1 $-1 $34 $4 #
transform $-1 1 0 0 0 1 0 0 0 1 71.861323892941073 39.779334003714787 19.153979376922209 1 rotate no_reflect no_shear #
lump $-1 $-1 $35 $5 #
transform $-1 1 0 0 0 1 0 0 0 1 71.861323892941073 39.779334003714787 19.153979376922209 1 rotate no_reflect no_shear #
lump $-1 $-1 $36 $6 #
transform $-1 1 0 0 0 1 0 0 0 1 71.861323892941073 39.779334003714787 19.153979376922209 1 rotate no_reflect no_shear #
lump $-1 $-1 $37 $7 #
transform $-1 1 0 0 0 1 0 0 0 1 71.861323892941073 39.779334003714787 19.153979376922209 1 rotate no_reflect no_shear #
lump $-1 $-1 $38 $8 #
transform $-1 1 0 0 0 1 0 0 0 1 71.861323892941073 39.779334003714787 19.153979376922209 1 rotate no_reflect no_shear #
lump $-1 $-1 $39 $9 #
transform $-1 1 0 0 0 1 0 0 0 1 71.861323892941073 39.779334003714787 19.153979376922209 1 rotate no_reflect no_shear #
shell $-1 $-1 $-1 $40 $-1 $10 #
shell $-1 $-1 $-1 $41 $-1 $12 #
shell $-1 $-1 $-1 $42 $-1 $14 #
shell $-1 $-1 $-1 $43 $-1 $16 #
shell $-1 $-1 $-1 $44 $-1 $18 #
shell $-1 $-1 $-1 $45 $-1 $20 #
shell $-1 $-1 $-1 $46 $-1 $22 #
shell $-1 $-1 $-1 $47 $-1 $24 #
shell $-1 $-1 $-1 $48 $-1 $26 #
shell $-1 $-1 $-1 $49 $-1 $28 #
face $-1 $50 $51 $30 $-1 $52 forward single #
face $-1 $53 $54 $31 $-1 $55 forward single #
face $-1 $56 $57 $32 $-1 $58 reversed single #
face $-1 $59 $60 $33 $-1 $61 forward single #
face $-1 $62 $63 $34 $-1 $64 forward single #
face $-1 $65 $66 $35 $-1 $67 reversed single #
face $-1 $68 $69 $36 $-1 $70 forward single #
face $-1 $71 $72 $37 $-1 $73 forward single #
face $-1 $74 $75 $38 $-1 $76 reversed single #
face $-1 $77 $78 $39 $-1 $79 forward single #
face $-1 $80 $81 $30 $-1 $82 reversed single #
loop $-1 $-1 $83 $40 #
plane-surface $-1 0 0 19.153979376922209 0 0 1 1 0 0 forward_v I I I I #
face $-1 $84 $85 $31 $-1 $86 reversed single #
loop $-1 $-1 $87 $41 #
plane-surface $-1 -64.991897986839803 0 -9.4234281667374944 0 0 1 1 0 0 forward_v I I I I #
face $-1 $88 $89 $32 $-1 $90 reversed single #
loop $-1 $-1 $91 $42 #
plane-surface $-1 -29.790383946765775 -165.48199521539235 76.668301706199031 1 0 0 0 0.87461971476443456 -0.48480960649040278 forward_v I I I I #
face $-1 $92 $93 $33 $-1 $94 forward single #
loop $-1 $95 $96 $43 #
cone-surface $-1 -22.999201111204812 -32.895703701535993 11.125137113816674 0 0.87461971476443456 -0.48480960649040278 2.5 0 0 1 I I 0 1 2.5 forward I I I I #
face $-1 $97 $98 $34 $-1 $99 forward single #
loop $-1 $100 $101 $44 #
cone-surface $-1 -12.812426857863358 -32.895703701535993 11.125137113816674 0 0.87461971476443456 -0.48480960649040278 2.5 0 0 1 I I 0 1 2.5 forward I I I I #
face $-1 $102 $103 $35 $-1 $104 reversed single #
loop $-1 $-1 $105 $45 #
plane-surface $-1 19.760095834504934 -165.48199521539235 76.668301706199031 1 0 0 0 0.87461971476443456 -0.48480960649040278 forward_v I I I I #
face $-1 $106 $107 $36 $-1 $108 forward single #
loop $-1 $109 $110 $46 #
cone-surface $-1 26.551278670065898 -32.895703701535993 11.125137113816674 0 0.87461971476443456 -0.48480960649040278 2.5 0 0 1 I I 0 1 2.5 forward I I I I #
face $-1 $111 $112 $37 $-1 $113 forward single #
loop $-1 $114 $115 $47 #
cone-surface $-1 36.738052923407366 -32.895703701535993 11.125137113816674 0 0.87461971476443456 -0.48480960649040278 2.5 0 0 1 I I 0 1 2.5 forward I I I I #
face $-1 $116 $117 $38 $-1 $118 reversed single #
loop $-1 $-1 $119 $48 #
plane-surface $-1 -58.122472080738532 109.28998886459971 157.01524357746007 1 0 0 0 -0.80901700255871778 -0.5877852410284794 forward_v I I I I #
face $-1 $120 $121 $39 $-1 $122 forward single #
loop $-1 $123 $124 $49 #
cone-surface $-1 -48.153821301232988 31.123436246675784 10.272814992038173 0 -0.80901700255871778 -0.5877852410284794 3 0 0 1 I I 0 1 3 forward I I I I #
face $-1 $125 $126 $30 $-1 $127 reversed single #
loop $-1 $-1 $128 $50 #
plane-surface $-1 0 0 -19.153979376922209 0 0 1 1 0 0 forward_v I I I I #
coedge $-1 $129 $130 $131 $132 forward $51 $-1 #
face $-1 $133 $134 $31 $-1 $135 reversed single #
loop $-1 $-1 $136 $53 #
plane-surface $-1 -58.122472080738532 0 -14.288703771829852 -1 0 0 0 0 1 forward_v I I I I #
coedge $-1 $137 $138 $139 $140 forward $54 $-1 #
face $-1 $141 $142 $32 $-1 $143 reversed single #
loop $-1 $-1 $144 $56 #
plane-surface $-1 -17.905813984534078 -39.779334003714808 6.9901813893667537 0 -0.87461971476443456 0.48480960649040278 1 0 0 forward_v I I I I #
coedge $-1 $145 $146 $147 $148 reversed $57 $-1 #
face $-1 $-1 $149 $33 $-1 $150 forward single #
loop $-1 $151 $152 $59 #
cone-surface $-1 -22.999201111204812 -28.290050293127646 8.5721818363758722 0 0.87461971476443456 -0.48480960649040278 1.25 0 0 1 I I -0.70710678118654724 0.70710678118654768 1.25 forward I I I I #
loop $-1 $-1 $153 $43 #
coedge $-1 $96 $96 $154 $155 reversed $60 $-1 #
face $-1 $-1 $156 $34 $-1 $157 forward single #
loop $-1 $158 $159 $62 #
cone-surface $-1 -12.812426857863358 -28.290050293127646 8.5721818363758722 0 0.87461971476443456 -0.48480960649040278 1.25 0 0 1 I I -0.70710678118654724 0.70710678118654768 1.25 forward I I I I #
loop $-1 $-1 $160 $44 #
coedge $-1 $101 $101 $161 $162 reversed $63 $-1 #
face $-1 $163 $164 $35 $-1 $165 reversed single #
loop $-1 $-1 $166 $65 #
plane-surface $-1 31.644665796736632 -39.779334003714808 6.9901813893667537 0 -0.87461971476443456 0.48480960649040278 1 0 0 forward_v I I I I #
coedge $-1 $167 $168 $169 $170 reversed $66 $-1 #
face $-1 $-1 $171 $36 $-1 $172 forward single #
loop $-1 $173 $174 $68 #
cone-surface $-1 26.551278670065898 -28.290050293127646 8.5721818363758722 0 0.87461971476443456 -0.48480960649040278 1.25 0 0 1 I I -0.70710678118654724 0.70710678118654768 1.25 forward I I I I #
loop $-1 $-1 $175 $46 #
coedge $-1 $110 $110 $176 $177 reversed $69 $-1 #
face $-1 $-1 $178 $37 $-1 $179 forward single #
loop $-1 $180 $181 $71 #
cone-surface $-1 36.738052923407366 -28.290050293127646 8.5721818363758722 0 0.87461971476443456 -0.48480960649040278 1.25 0 0 1 I I -0.70710678118654724 0.70710678118654768 1.25 forward I I I I #
loop $-1 $-1 $182 $47 #
coedge $-1 $115 $115 $183 $184 reversed $72 $-1 #
face $-1 $185 $186 $38 $-1 $187 reversed single #
loop $-1 $-1 $188 $74 #
plane-surface $-1 -48.153821301232988 -6.9840768469370005 72.537192407384083 0 0.80901700255871778 0.5877852410284794 1 0 0 forward_v I I I I #
coedge $-1 $189 $190 $191 $192 reversed $75 $-1 #
face $-1 $-1 $193 $39 $-1 $194 forward single #
loop $-1 $195 $196 $77 #
cone-surface $-1 -48.153821301232988 25.243131704822751 6.0005237898479109 0 -0.80901700255871778 -0.5877852410284794 1.5 0 0 1 I I -0.70710678118654757 0.70710678118654757 1.5 forward I I I I #
loop $-1 $-1 $197 $49 #
coedge $-1 $124 $124 $198 $199 reversed $78 $-1 #
face $-1 $200 $201 $30 $-1 $202 reversed single #
loop $-1 $-1 $203 $80 #
plane-surface $-1 0 -39.779334003714787 0 0 1 0 0 0 1 forward_v I I I I #
coedge $-1 $204 $205 $206 $207 forward $81 $-1 #
coedge $-1 $208 $83 $209 $210 forward $51 $-1 #
coedge $-1 $83 $208 $211 $212 forward $51 $-1 #
coedge $-1 $213 $214 $83 $132 reversed $215 $-1 #
edge $-1 $216 -39.779334003714787 $217 39.779334003714787 $131 $218 forward 7 unknown #
face $-1 $219 $220 $31 $-1 $221 reversed single #
loop $-1 $-1 $222 $84 #
plane-surface $-1 0 0 -19.153979376922209 0 0 1 1 0 0 forward_v I I I I #
coedge $-1 $223 $139 $224 $225 reversed $85 $-1 #
coedge $-1 $226 $87 $227 $228 reversed $54 $-1 #
coedge $-1 $87 $226 $229 $230 reversed $54 $-1 #
coedge $-1 $136 $231 $87 $140 reversed $85 $-1 #
edge $-1 $232 -39.779334003714787 $233 39.779334003714787 $139 $234 forward 7 unknown #
face $-1 $235 $236 $32 $-1 $237 forward single #
loop $-1 $-1 $238 $88 #
plane-surface $-1 -6.0212440223023798 -165.48199521539235 76.668301706199031 -1 0 0 0 -0.87461971476443456 0.48480960649040278 forward_v I I I I #
coedge $-1 $239 $240 $241 $242 reversed $89 $-1 #
coedge $-1 $146 $91 $243 $244 reversed $57 $-1 #
coedge $-1 $91 $145 $239 $245 reversed $57 $-1 #
coedge $-1 $241 $246 $91 $148 forward $247 $-1 #
edge $-1 $248 19.180171476177307 $249 31.343969463732723 $147 $250 forward 7 unknown #
loop $-1 $-1 $154 $92 #
plane-surface $-1 -17.905813984534078 -39.779334003714808 6.9901813893667537 0 -0.87461971476443456 0.48480960649040278 1 0 0 forward_v I I I I #
loop $-1 $-1 $251 $59 #
coedge $-1 $152 $152 $153 $252 reversed $93 $-1 #
coedge $-1 $153 $153 $152 $252 forward $95 $-1 #
coedge $-1 $154 $154 $96 $155 forward $149 $-1 #
edge $-1 $253 4.0500722015098231e-016 $253 6.2831853071796004 $154 $254 forward 7 unknown #
loop $-1 $-1 $161 $97 #
plane-surface $-1 -17.905813984534078 -39.779334003714808 6.9901813893667537 0 -0.87461971476443456 0.48480960649040278 1 0 0 forward_v I I I I #
loop $-1 $-1 $255 $62 #
coedge $-1 $159 $159 $160 $256 reversed $98 $-1 #
coedge $-1 $160 $160 $159 $256 forward $100 $-1 #
coedge $-1 $161 $161 $101 $162 forward $156 $-1 #
edge $-1 $257 4.0500722015098231e-016 $257 6.2831853071796004 $161 $258 forward 7 unknown #
face $-1 $259 $260 $35 $-1 $261 reversed single #
loop $-1 $-1 $262 $102 #
plane-surface $-1 43.529235758968326 -165.48199521539235 76.668301706199031 -1 0 0 0 -0.87461971476443456 0.48480960649040278 forward_v I I I I #
coedge $-1 $263 $264 $265 $266 reversed $103 $-1 #
coedge $-1 $168 $105 $267 $268 reversed $66 $-1 #
coedge $-1 $105 $167 $263 $269 reversed $66 $-1 #
coedge $-1 $265 $270 $105 $170 forward $260 $-1 #
edge $-1 $271 19.180171476177307 $272 31.343969463732723 $169 $273 forward 7 unknown #
loop $-1 $-1 $176 $106 #
plane-surface $-1 31.644665796736632 -39.779334003714808 6.9901813893667537 0 -0.87461971476443456 0.48480960649040278 1 0 0 forward_v I I I I #
loop $-1 $-1 $274 $68 #
coedge $-1 $174 $174 $175 $275 reversed $107 $-1 #
coedge $-1 $175 $175 $174 $275 forward $109 $-1 #
coedge $-1 $176 $176 $110 $177 forward $171 $-1 #
edge $-1 $276 4.0500722015098231e-016 $276 6.2831853071796004 $176 $277 forward 7 unknown #
loop $-1 $-1 $183 $111 #
plane-surface $-1 31.644665796736632 -39.779334003714808 6.9901813893667537 0 -0.87461971476443456 0.48480960649040278 1 0 0 forward_v I I I I #
loop $-1 $-1 $278 $71 #
coedge $-1 $181 $181 $182 $279 reversed $112 $-1 #
coedge $-1 $182 $182 $181 $279 forward $114 $-1 #
coedge $-1 $183 $183 $115 $184 forward $178 $-1 #
edge $-1 $280 4.0500722015098231e-016 $280 6.2831853071796004 $183 $281 forward 7 unknown #
face $-1 $282 $283 $38 $-1 $284 reversed single #
loop $-1 $-1 $285 $116 #
plane-surface $-1 -38.185170521727443 109.28998886459971 157.01524357746007 -1 0 0 0 0.80901700255871778 0.5877852410284794 forward_v I I I I #
coedge $-1 $286 $287 $288 $289 reversed $117 $-1 #
coedge $-1 $190 $119 $290 $291 reversed $75 $-1 #
coedge $-1 $119 $189 $286 $292 reversed $75 $-1 #
coedge $-1 $288 $293 $119 $192 forward $294 $-1 #
edge $-1 $295 14.865660428585066 $296 22.843897866633185 $191 $297 forward 7 unknown #
loop $-1 $-1 $198 $120 #
plane-surface $-1 -48.153821301232988 -6.9840768469370005 72.537192407384083 0 0.80901700255871778 0.5877852410284794 1 0 0 forward_v I I I I #
loop $-1 $-1 $298 $77 #
coedge $-1 $196 $196 $197 $299 reversed $121 $-1 #
coedge $-1 $197 $197 $196 $299 forward $123 $-1 #
coedge $-1 $198 $198 $124 $199 forward $193 $-1 #
edge $-1 $300 0 $300 6.2831853071796004 $198 $301 forward 7 unknown #
face $-1 $302 $303 $30 $-1 $304 reversed single #
loop $-1 $-1 $305 $125 #
plane-surface $-1 -71.861323892941073 0 0 1 0 0 0 0 -1 forward_v I I I I #
coedge $-1 $306 $211 $307 $308 forward $126 $-1 #
coedge $-1 $309 $128 $306 $310 forward $81 $-1 #
coedge $-1 $128 $309 $311 $312 forward $81 $-1 #
coedge $-1 $214 $213 $128 $207 reversed $215 $-1 #
edge $-1 $313 -39.779334003714787 $314 39.779334003714787 $206 $315 forward 7 unknown #
coedge $-1 $130 $129 $316 $317 forward $51 $-1 #
coedge $-1 $318 $319 $129 $210 reversed $303 $-1 #
edge $-1 $217 -71.861323892941073 $320 71.861323892941073 $209 $321 forward 7 unknown #
coedge $-1 $203 $322 $130 $212 reversed $126 $-1 #
edge $-1 $323 -71.861323892941073 $216 71.861323892941073 $211 $324 forward 7 unknown #
coedge $-1 $206 $131 $322 $325 forward $215 $-1 #
coedge $-1 $131 $206 $318 $326 reversed $215 $-1 #
loop $-1 $-1 $213 $302 #
vertex $-1 $132 $327 #
vertex $-1 $132 $328 #
straight-curve $-1 71.861323892941073 0 19.153979376922209 0 1 0 I I #
face $-1 $329 $330 $31 $-1 $331 reversed single #
loop $-1 $-1 $224 $133 #
plane-surface $-1 0 -39.779334003714787 0 0 1 0 0 0 1 forward_v I I I I #
coedge $-1 $332 $333 $223 $334 forward $134 $-1 #
coedge $-1 $231 $136 $222 $334 reversed $85 $-1 #
coedge $-1 $229 $335 $136 $225 forward $220 $-1 #
edge $-1 $336 -12.009627491007283 $232 -2.2790762808225686 $224 $337 forward 7 unknown #
coedge $-1 $138 $137 $338 $339 reversed $54 $-1 #
coedge $-1 $340 $341 $137 $228 forward $342 $-1 #
edge $-1 $343 -39.365374899521171 $233 -25.626523087318631 $227 $344 forward 7 unknown #
coedge $-1 $345 $224 $138 $230 forward $220 $-1 #
edge $-1 $232 25.626523087318631 $346 39.365374899521171 $229 $347 forward 7 unknown #
coedge $-1 $139 $223 $340 $348 reversed $85 $-1 #
vertex $-1 $230 $349 #
vertex $-1 $228 $350 #
straight-curve $-1 -58.122472080738532 0 -9.4234281667374944 0 1 0 I I #
face $-1 $-1 $247 $32 $-1 $351 reversed single #
loop $-1 $-1 $352 $141 #
plane-surface $-1 0 0 19.153979376922209 0 0 1 1 0 0 forward_v I I I I #
coedge $-1 $353 $354 $355 $356 reversed $142 $-1 #
coedge $-1 $357 $144 $146 $245 forward $89 $-1 #
coedge $-1 $144 $357 $353 $358 forward $89 $-1 #
coedge $-1 $355 $147 $144 $242 forward $247 $-1 #
edge $-1 $249 -20.837476954498737 $359 2.931662969964659 $241 $360 forward 7 unknown #
coedge $-1 $361 $362 $145 $244 forward $236 $-1 #
edge $-1 $363 -49.704166678433346 $248 -42.961663603981386 $243 $364 forward 7 unknown #
edge $-1 $249 4.3737527635770193e-014 $363 13.907527788613352 $146 $365 forward 7 unknown #
coedge $-1 $147 $355 $361 $366 reversed $247 $-1 #
loop $-1 $-1 $355 $235 #
vertex $-1 $366 $367 #
vertex $-1 $148 $368 #
straight-curve $-1 -29.790383946765775 -39.779334003714787 38.334150853099516 0 0 -1 I I #
coedge $-1 $251 $251 $-1 $369 reversed $151 $-1 #
edge $-1 $370 0 $370 6.2831853071796004 $152 $371 forward 7 unknown #
vertex $-1 $155 $372 #
ellipse-curve $-1 -22.999201111204812 -36.408082466488814 13.072080383144485 0 -0.87461971476443456 0.48480960649040278 2.5 0 0 1 I I #
coedge $-1 $255 $255 $-1 $373 reversed $158 $-1 #
edge $-1 $374 0 $374 6.2831853071796004 $159 $375 forward 7 unknown #
vertex $-1 $162 $376 #
ellipse-curve $-1 -12.812426857863358 -36.408082466488814 13.072080383144485 0 -0.87461971476443456 0.48480960649040278 2.5 0 0 1 I I #
face $-1 $-1 $377 $35 $-1 $378 forward single #
loop $-1 $-1 $169 $163 #
plane-surface $-1 0 -39.779334003714787 0 0 1 0 0 0 1 forward_v I I I I #
coedge $-1 $379 $380 $381 $382 reversed $164 $-1 #
coedge $-1 $383 $166 $168 $269 forward $103 $-1 #
coedge $-1 $166 $383 $379 $384 forward $103 $-1 #
coedge $-1 $381 $169 $166 $266 forward $260 $-1 #
edge $-1 $272 3.9377629361366182 $385 27.70690286060001 $265 $386 forward 7 unknown #
coedge $-1 $387 $388 $167 $268 forward $377 $-1 #
edge $-1 $389 -49.704166678433346 $271 -42.961663603981386 $267 $390 forward 7 unknown #
edge $-1 $272 4.3737527635770193e-014 $389 13.907527788613352 $168 $391 forward 7 unknown #
coedge $-1 $169 $381 $387 $392 reversed $260 $-1 #
vertex $-1 $392 $393 #
vertex $-1 $170 $394 #
straight-curve $-1 19.760095834504934 -39.779334003714787 38.334150853099516 0 0 -1 I I #
coedge $-1 $274 $274 $-1 $395 reversed $173 $-1 #
edge $-1 $396 0 $396 6.2831853071796004 $174 $397 forward 7 unknown #
vertex $-1 $177 $398 #
ellipse-curve $-1 26.551278670065898 -36.408082466488814 13.072080383144485 0 -0.87461971476443456 0.48480960649040278 2.5 0 0 1 I I #
coedge $-1 $278 $278 $-1 $399 reversed $180 $-1 #
edge $-1 $400 0 $400 6.2831853071796004 $181 $401 forward 7 unknown #
vertex $-1 $184 $402 #
ellipse-curve $-1 36.738052923407366 -36.408082466488814 13.072080383144485 0 -0.87461971476443456 0.48480960649040278 2.5 0 0 1 I I #
face $-1 $-1 $294 $38 $-1 $403 forward single #
loop $-1 $-1 $404 $185 #
plane-surface $-1 0 39.779334003714787 0 0 -1 0 0 0 -1 forward_v I I I I #
coedge $-1 $405 $406 $407 $408 reversed $186 $-1 #
coedge $-1 $409 $188 $190 $292 forward $117 $-1 #
coedge $-1 $188 $409 $405 $410 forward $117 $-1 #
coedge $-1 $407 $191 $188 $289 forward $294 $-1 #
edge $-1 $296 -34.045561430122035 $411 -14.108259871110949 $288 $412 forward 7 unknown #
coedge $-1 $413 $414 $189 $291 forward $283 $-1 #
edge $-1 $415 -70.33474450028082 $295 -59.353642411807826 $290 $416 forward 7 unknown #
edge $-1 $296 65.985279495516366 $415 79.558668007429617 $190 $417 forward 7 unknown #
coedge $-1 $191 $407 $413 $418 forward $294 $-1 #
loop $-1 $-1 $407 $282 #
vertex $-1 $291 $419 #
vertex $-1 $192 $420 #
straight-curve $-1 -58.122472080738532 54.644994432299853 19.153979376922209 0 -1 0 I I #
coedge $-1 $298 $298 $-1 $421 reversed $195 $-1 #
edge $-1 $422 0 $422 6.2831853071796004 $196 $423 forward 7 unknown #
vertex $-1 $199 $424 #
ellipse-curve $-1 -48.153821301232988 35.790215284690738 13.663428332685715 0 0.80901700255871778 0.5877852410284794 3 0 0 1 I I #
face $-1 $-1 $215 $30 $-1 $425 reversed single #
loop $-1 $-1 $318 $200 #
plane-surface $-1 0 39.779334003714787 0 0 -1 0 0 0 -1 forward_v I I I I #
coedge $-1 $426 $316 $319 $427 forward $201 $-1 #
coedge $-1 $322 $203 $204 $310 reversed $126 $-1 #
coedge $-1 $316 $426 $203 $308 reversed $201 $-1 #
edge $-1 $323 -19.153979376922209 $428 19.153979376922209 $307 $429 forward 7 unknown #
coedge $-1 $205 $204 $426 $430 forward $81 $-1 #
edge $-1 $314 -71.861323892941073 $428 71.861323892941073 $306 $431 forward 7 unknown #
coedge $-1 $319 $318 $205 $312 reversed $303 $-1 #
edge $-1 $432 -71.861323892941073 $313 71.861323892941073 $311 $433 forward 7 unknown #
vertex $-1 $207 $434 #
vertex $-1 $325 $435 #
straight-curve $-1 71.861323892941073 0 -19.153979376922209 0 -1 0 I I #
coedge $-1 $305 $307 $208 $317 reversed $201 $-1 #
edge $-1 $320 -39.779334003714787 $323 39.779334003714787 $316 $436 forward 7 unknown #
coedge $-1 $311 $209 $214 $326 forward $303 $-1 #
coedge $-1 $209 $311 $305 $427 reversed $303 $-1 #
vertex $-1 $210 $437 #
straight-curve $-1 0 39.779334003714787 19.153979376922209 -1 0 0 I I #
coedge $-1 $211 $306 $213 $325 reversed $126 $-1 #
vertex $-1 $317 $438 #
straight-curve $-1 0 -39.779334003714787 19.153979376922209 1 0 0 I I #
edge $-1 $216 -19.153979376922209 $314 19.153979376922209 $213 $439 forward 7 unknown #
edge $-1 $217 -19.153979376922209 $313 19.153979376922209 $214 $440 forward 7 unknown #
point $-1 71.861323892941073 -39.779334003714787 19.153979376922209 #
point $-1 71.861323892941073 39.779334003714787 19.153979376922209 #
face $-1 $-1 $342 $31 $-1 $441 reversed single #
loop $-1 $-1 $338 $219 #
plane-surface $-1 -71.861323892941073 0 0 1 0 0 0 0 -1 forward_v I I I I #
coedge $-1 $442 $222 $335 $443 forward $134 $-1 #
coedge $-1 $222 $442 $444 $445 forward $134 $-1 #
edge $-1 $446 -39.779334003714787 $336 39.779334003714787 $222 $447 forward 7 unknown #
coedge $-1 $224 $345 $332 $443 reversed $220 $-1 #
vertex $-1 $443 $448 #
straight-curve $-1 -58.122472080738532 -39.779334003714787 -7.1443518859149258 0 0 1 I I #
coedge $-1 $449 $450 $226 $339 forward $330 $-1 #
edge $-1 $346 -39.779334003714787 $343 39.779334003714787 $338 $451 forward 7 unknown #
coedge $-1 $444 $227 $231 $348 forward $342 $-1 #
coedge $-1 $227 $444 $449 $452 reversed $342 $-1 #
loop $-1 $-1 $340 $329 #
vertex $-1 $452 $453 #
straight-curve $-1 -32.495948993419901 39.779334003714787 -9.4234281667374944 1 0 0 I I #
coedge $-1 $335 $229 $450 $454 forward $220 $-1 #
vertex $-1 $454 $455 #
straight-curve $-1 -32.495948993419901 -39.779334003714787 -9.4234281667374944 -1 0 0 I I #
edge $-1 $233 2.2790762808225686 $446 12.009627491007283 $340 $456 forward 7 unknown #
point $-1 -58.122472080738532 -39.779334003714787 -9.4234281667374944 #
point $-1 -58.122472080738532 39.779334003714787 -9.4234281667374944 #
plane-surface $-1 0 -39.779334003714787 0 0 1 0 0 0 1 forward_v I I I I #
coedge $-1 $362 $361 $354 $457 forward $236 $-1 #
coedge $-1 $354 $238 $240 $358 reversed $142 $-1 #
coedge $-1 $238 $353 $352 $457 reversed $142 $-1 #
coedge $-1 $246 $241 $238 $356 forward $247 $-1 #
edge $-1 $359 -31.343969463732723 $458 -19.180171476177307 $355 $459 forward 7 unknown #
coedge $-1 $240 $239 $362 $460 reversed $89 $-1 #
edge $-1 $461 -13.907527788613352 $359 -4.3737527635770193e-014 $353 $462 forward 7 unknown #
vertex $-1 $242 $463 #
straight-curve $-1 -8.9529069922670388 -39.779334003714787 6.9901813893667848 1 0 0 I I #
coedge $-1 $352 $243 $246 $366 forward $236 $-1 #
coedge $-1 $243 $352 $357 $460 forward $236 $-1 #
vertex $-1 $244 $464 #
straight-curve $-1 -29.790383946765775 -82.740997607696173 19.153979376922209 0 -1 0 I I #
straight-curve $-1 -29.790383946765775 -39.779334003714808 6.9901813893667537 0 0.48480960649040278 0.87461971476443456 I I #
edge $-1 $248 -29.790383946765775 $458 -6.0212440223023798 $246 $465 forward 7 unknown #
point $-1 -29.790383946765775 -39.779334003714787 19.153979376922209 #
point $-1 -29.790383946765775 -39.779334003714787 6.9901813893667919 #
edge $-1 $466 1 $466 0 $251 $-1 forward 7 unknown #
vertex $-1 $252 $467 #
ellipse-curve $-1 -22.999201111204812 -29.38332493658319 9.1781938444888755 0 -0.87461971476443456 0.48480960649040278 2.5 0 0 1 I I #
point $-1 -20.499201111204812 -36.408082466488793 13.072080383144474 #
edge $-1 $468 1 $468 0 $255 $-1 forward 7 unknown #
vertex $-1 $256 $469 #
ellipse-curve $-1 -12.812426857863358 -29.38332493658319 9.1781938444888755 0 -0.87461971476443456 0.48480960649040278 2.5 0 0 1 I I #
point $-1 -10.312426857863358 -36.408082466488793 13.072080383144474 #
loop $-1 $-1 $267 $259 #
plane-surface $-1 0 0 19.153979376922209 0 0 1 1 0 0 forward_v I I I I #
coedge $-1 $380 $262 $264 $384 reversed $164 $-1 #
coedge $-1 $262 $379 $470 $471 reversed $164 $-1 #
coedge $-1 $270 $265 $262 $382 forward $260 $-1 #
edge $-1 $385 -31.343969463732723 $472 -19.180171476177307 $381 $473 forward 7 unknown #
coedge $-1 $264 $263 $388 $474 reversed $103 $-1 #
edge $-1 $475 -13.907527788613352 $385 -4.3737527635770193e-014 $379 $476 forward 7 unknown #
vertex $-1 $266 $477 #
straight-curve $-1 15.822332898368316 -39.779334003714787 6.9901813893667848 1 0 0 I I #
coedge $-1 $470 $267 $270 $392 forward $377 $-1 #
coedge $-1 $267 $470 $383 $474 forward $377 $-1 #
vertex $-1 $268 $478 #
straight-curve $-1 19.760095834504934 -82.740997607696173 19.153979376922209 0 -1 0 I I #
straight-curve $-1 19.760095834504934 -39.779334003714808 6.9901813893667537 0 0.48480960649040278 0.87461971476443456 I I #
edge $-1 $271 19.760095834504934 $472 43.529235758968326 $270 $479 forward 7 unknown #
point $-1 19.760095834504934 -39.779334003714787 19.153979376922209 #
point $-1 19.760095834504934 -39.779334003714787 6.9901813893667919 #
edge $-1 $480 1 $480 0 $274 $-1 forward 7 unknown #
vertex $-1 $275 $481 #
ellipse-curve $-1 26.551278670065898 -29.38332493658319 9.1781938444888755 0 -0.87461971476443456 0.48480960649040278 2.5 0 0 1 I I #
point $-1 29.051278670065898 -36.408082466488793 13.072080383144474 #
edge $-1 $482 1 $482 0 $278 $-1 forward 7 unknown #
vertex $-1 $279 $483 #
ellipse-curve $-1 36.738052923407366 -29.38332493658319 9.1781938444888755 0 -0.87461971476443456 0.48480960649040278 2.5 0 0 1 I I #
point $-1 39.238052923407366 -36.408082466488793 13.072080383144474 #
plane-surface $-1 0 0 19.153979376922209 0 0 1 1 0 0 forward_v I I I I #
coedge $-1 $414 $413 $406 $484 forward $283 $-1 #
coedge $-1 $406 $285 $287 $410 reversed $186 $-1 #
coedge $-1 $285 $405 $404 $484 reversed $186 $-1 #
coedge $-1 $293 $288 $285 $408 forward $294 $-1 #
edge $-1 $411 -22.843897866633185 $485 -14.865660428585066 $407 $486 forward 7 unknown #
coedge $-1 $287 $286 $414 $487 reversed $117 $-1 #
edge $-1 $488 -79.558668007429617 $411 -65.985279495516366 $405 $489 forward 7 unknown #
vertex $-1 $289 $490 #
straight-curve $-1 -24.076910650616494 31.801096565666668 19.153979376922209 1 0 0 I I #
coedge $-1 $404 $290 $293 $418 reversed $283 $-1 #
coedge $-1 $290 $404 $409 $487 forward $283 $-1 #
vertex $-1 $291 $491 #
straight-curve $-1 -58.122472080738532 39.779334003714787 78.507621788730034 0 0 1 I I #
straight-curve $-1 -58.122472080738532 -6.9840768469370005 72.537192407384083 0 0.5877852410284794 -0.80901700255871778 I I #
edge $-1 $485 38.185170521727443 $295 58.122472080738532 $413 $492 forward 7 unknown #
point $-1 -58.122472080738532 39.779334003714787 19.153979376922209 #
point $-1 -58.122472080738532 31.801096565666668 19.153979376922209 #
edge $-1 $493 1 $493 0 $298 $-1 forward 7 unknown #
vertex $-1 $299 $494 #
ellipse-curve $-1 -48.153821301232988 26.456657208660829 6.8822016513906297 0 0.80901700255871778 0.5877852410284794 3 0 0 1 I I #
point $-1 -45.153821301232988 35.790215284690738 13.663428332685715 #
plane-surface $-1 71.861323892941073 0 0 -1 0 0 0 0 1 forward_v I I I I #
coedge $-1 $307 $305 $309 $430 reversed $201 $-1 #
edge $-1 $320 -19.153979376922209 $432 19.153979376922209 $319 $495 forward 7 unknown #
vertex $-1 $430 $496 #
straight-curve $-1 -71.861323892941073 -39.779334003714787 0 0 0 -1 I I #
edge $-1 $428 -39.779334003714787 $432 39.779334003714787 $426 $497 forward 7 unknown #
straight-curve $-1 0 -39.779334003714787 -19.153979376922209 -1 0 0 I I #
vertex $-1 $312 $498 #
straight-curve $-1 0 39.779334003714787 -19.153979376922209 1 0 0 I I #
point $-1 71.861323892941073 39.779334003714787 -19.153979376922209 #
point $-1 71.861323892941073 -39.779334003714787 -19.153979376922209 #
straight-curve $-1 -71.861323892941073 0 19.153979376922209 0 -1 0 I I #
point $-1 -71.861323892941073 39.779334003714787 19.153979376922209 #
point $-1 -71.861323892941073 -39.779334003714787 19.153979376922209 #
straight-curve $-1 71.861323892941073 -39.779334003714787 0 0 0 -1 I I #
straight-curve $-1 71.861323892941073 39.779334003714787 0 0 0 -1 I I #
plane-surface $-1 0 39.779334003714787 0 0 -1 0 0 0 -1 forward_v I I I I #
coedge $-1 $333 $332 $499 $500 forward $134 $-1 #
edge $-1 $336 58.122472080738532 $501 71.861323892941073 $335 $502 forward 7 unknown #
coedge $-1 $341 $340 $333 $445 reversed $342 $-1 #
edge $-1 $503 -71.861323892941073 $446 -58.122472080738532 $444 $504 forward 7 unknown #
vertex $-1 $348 $505 #
straight-curve $-1 -58.122472080738532 0 -19.153979376922209 0 -1 0 I I #
point $-1 -58.122472080738532 -39.779334003714787 -19.153979376922209 #
coedge $-1 $499 $338 $341 $452 forward $330 $-1 #
coedge $-1 $338 $499 $345 $454 reversed $330 $-1 #
straight-curve $-1 -71.861323892941073 0 -9.4234281667374944 0 1 0 I I #
edge $-1 $343 9.4234281667374944 $503 19.153979376922209 $341 $506 forward 7 unknown #
point $-1 -71.861323892941073 39.779334003714787 -9.4234281667374944 #
edge $-1 $346 9.4234281667374944 $501 19.153979376922209 $450 $507 forward 7 unknown #
point $-1 -71.861323892941073 -39.779334003714787 -9.4234281667374944 #
straight-curve $-1 -58.122472080738532 39.779334003714787 -7.1443518859149258 0 0 -1 I I #
edge $-1 $458 42.961663603981386 $461 49.704166678433346 $352 $508 forward 7 unknown #
vertex $-1 $356 $509 #
straight-curve $-1 -6.0212440223023798 -39.779334003714787 38.334150853099516 0 0 1 I I #
edge $-1 $461 -2.931662969964659 $363 20.837476954498737 $362 $510 forward 7 unknown #
vertex $-1 $460 $511 #
straight-curve $-1 -6.0212440223023798 -39.779334003714808 6.9901813893667537 0 -0.48480960649040278 -0.87461971476443456 I I #
point $-1 -6.0212440223023798 -39.779334003714787 6.9901813893667919 #
point $-1 -29.790383946765775 -33.036830929262827 19.153979376922209 #
straight-curve $-1 0 -39.779334003714787 19.153979376922209 1 0 0 I I #
vertex $-1 $369 $512 #
point $-1 -20.499201111204812 -29.38332493658319 9.1781938444888755 #
vertex $-1 $373 $513 #
point $-1 -10.312426857863358 -29.38332493658319 9.1781938444888755 #
coedge $-1 $388 $387 $380 $471 forward $377 $-1 #
edge $-1 $472 42.961663603981386 $475 49.704166678433346 $470 $514 forward 7 unknown #
vertex $-1 $471 $515 #
straight-curve $-1 43.529235758968326 -39.779334003714787 38.334150853099516 0 0 1 I I #
edge $-1 $475 -27.70690286060001 $389 -3.9377629361366182 $388 $516 forward 7 unknown #
vertex $-1 $474 $517 #
straight-curve $-1 43.529235758968326 -39.779334003714808 6.9901813893667537 0 -0.48480960649040278 -0.87461971476443456 I I #
point $-1 43.529235758968326 -39.779334003714787 6.9901813893667919 #
point $-1 19.760095834504934 -33.036830929262827 19.153979376922209 #
straight-curve $-1 0 -39.779334003714787 19.153979376922209 1 0 0 I I #
vertex $-1 $395 $518 #
point $-1 29.051278670065898 -29.38332493658319 9.1781938444888755 #
vertex $-1 $399 $519 #
point $-1 39.238052923407366 -29.38332493658319 9.1781938444888755 #
edge $-1 $485 59.353642411807826 $488 70.33474450028082 $404 $520 forward 7 unknown #
vertex $-1 $418 $521 #
straight-curve $-1 -38.185170521727443 54.644994432299853 19.153979376922209 0 1 0 I I #
edge $-1 $488 14.108259871110949 $415 34.045561430122035 $414 $522 forward 7 unknown #
vertex $-1 $487 $523 #
straight-curve $-1 -38.185170521727443 -6.9840768469370005 72.537192407384083 0 -0.5877852410284794 0.80901700255871778 I I #
point $-1 -38.185170521727443 31.801096565666668 19.153979376922209 #
point $-1 -58.122472080738532 39.779334003714787 8.1728772884492145 #
straight-curve $-1 0 39.779334003714787 19.153979376922209 -1 0 0 I I #
vertex $-1 $421 $524 #
point $-1 -45.153821301232988 26.456657208660829 6.8822016513906297 #
straight-curve $-1 -71.861323892941073 39.779334003714787 0 0 0 -1 I I #
point $-1 -71.861323892941073 -39.779334003714787 -19.153979376922209 #
straight-curve $-1 -71.861323892941073 0 -19.153979376922209 0 1 0 I I #
point $-1 -71.861323892941073 39.779334003714787 -19.153979376922209 #
coedge $-1 $450 $449 $442 $500 reversed $330 $-1 #
edge $-1 $501 -39.779334003714787 $503 39.779334003714787 $499 $525 forward 7 unknown #
vertex $-1 $500 $526 #
straight-curve $-1 0 -39.779334003714787 -19.153979376922209 -1 0 0 I I #
vertex $-1 $445 $527 #
straight-curve $-1 0 39.779334003714787 -19.153979376922209 1 0 0 I I #
point $-1 -58.122472080738532 39.779334003714787 -19.153979376922209 #
straight-curve $-1 -71.861323892941073 39.779334003714787 0 0 0 -1 I I #
straight-curve $-1 -71.861323892941073 -39.779334003714787 0 0 0 -1 I I #
straight-curve $-1 -6.0212440223023798 -82.740997607696173 19.153979376922209 0 1 0 I I #
point $-1 -6.0212440223023798 -39.779334003714787 19.153979376922209 #
straight-curve $-1 -8.9529069922670388 -33.036830929262827 19.153979376922209 -1 0 0 I I #
point $-1 -6.0212440223023798 -33.036830929262827 19.153979376922209 #
point $-1 -22.999201111204812 -27.196775649672102 7.9661698282628679 #
point $-1 -12.812426857863358 -27.196775649672102 7.9661698282628679 #
straight-curve $-1 43.529235758968326 -82.740997607696173 19.153979376922209 0 1 0 I I #
point $-1 43.529235758968326 -39.779334003714787 19.153979376922209 #
straight-curve $-1 15.822332898368316 -33.036830929262827 19.153979376922209 -1 0 0 I I #
point $-1 43.529235758968326 -33.036830929262827 19.153979376922209 #
point $-1 26.551278670065898 -27.196775649672102 7.9661698282628679 #
point $-1 36.738052923407366 -27.196775649672102 7.9661698282628679 #
straight-curve $-1 -38.185170521727443 39.779334003714787 78.507621788730034 0 0 -1 I I #
point $-1 -38.185170521727443 39.779334003714787 19.153979376922209 #
straight-curve $-1 -24.076910650616494 39.779334003714787 8.1728772884492216 -1 0 0 I I #
point $-1 -38.185170521727443 39.779334003714787 8.1728772884492145 #
point $-1 -48.153821301232988 24.029606200984674 5.1188459283051921 #
straight-curve $-1 -71.861323892941073 0 -19.153979376922209 0 1 0 I I #
point $-1 -71.861323892941073 -39.779334003714787 -19.153979376922209 #
point $-1 -71.861323892941073 39.779334003714787 -19.153979376922209 #
End-of-ACIS-data 