500 0 7 0           
7 Unknown 11 ACIS 5.0 NT 24 Fri Mar 26 17:00:37 1999 
-1 9.9999999999999995e-007 1e-010 
body $-1 $7 $-1 $8 #
body $-1 $9 $-1 $10 #
body $-1 $11 $-1 $12 #
body $-1 $13 $-1 $14 #
body $-1 $15 $-1 $16 #
body $-1 $17 $-1 $18 #
body $-1 $19 $-1 $20 #
lump $-1 $-1 $21 $0 #
transform $-1 1 0 0 0 1 0 0 0 1 62.432325205236978 37.648214466623095 9.8845664557743618 1 rotate no_reflect no_shear #
lump $-1 $-1 $22 $1 #
transform $-1 1 0 0 0 1 0 0 0 1 62.432325205236978 37.648214466623095 9.8845664557743618 1 rotate no_reflect no_shear #
lump $-1 $-1 $23 $2 #
transform $-1 1 0 0 0 1 0 0 0 1 62.432325205236978 37.648214466623095 9.8845664557743618 1 rotate no_reflect no_shear #
lump $-1 $-1 $24 $3 #
transform $-1 1 0 0 0 1 0 0 0 1 62.432325205236978 37.648214466623095 9.8845664557743618 1 rotate no_reflect no_shear #
lump $-1 $-1 $25 $4 #
transform $-1 1 0 0 0 1 0 0 0 1 62.432325205236978 37.648214466623095 9.8845664557743618 1 rotate no_reflect no_shear #
lump $-1 $-1 $26 $5 #
transform $-1 1 0 0 0 1 0 0 0 1 62.432325205236978 37.648214466623095 9.8845664557743618 1 rotate no_reflect no_shear #
lump $-1 $-1 $27 $6 #
transform $-1 1 0 0 0 1 0 0 0 1 62.432325205236978 37.648214466623095 9.8845664557743618 1 rotate no_reflect no_shear #
shell $-1 $-1 $-1 $28 $-1 $7 #
shell $-1 $-1 $-1 $29 $-1 $9 #
shell $-1 $-1 $-1 $30 $-1 $11 #
shell $-1 $-1 $-1 $31 $-1 $13 #
shell $-1 $-1 $-1 $32 $-1 $15 #
shell $-1 $-1 $-1 $33 $-1 $17 #
shell $-1 $-1 $-1 $34 $-1 $19 #
face $-1 $35 $36 $21 $-1 $37 forward single #
face $-1 $38 $39 $22 $-1 $40 forward single #
face $-1 $41 $42 $23 $-1 $43 reversed single #
face $-1 $44 $45 $24 $-1 $46 forward single #
face $-1 $47 $48 $25 $-1 $49 reversed single #
face $-1 $50 $51 $26 $-1 $52 forward single #
face $-1 $53 $54 $27 $-1 $55 forward single #
face $-1 $56 $57 $21 $-1 $58 reversed single #
loop $-1 $-1 $59 $28 #
plane-surface $-1 0 0 9.8845664557743618 0 0 1 1 0 0 forward_v I I I I #
face $-1 $60 $61 $22 $-1 $62 reversed single #
loop $-1 $-1 $63 $29 #
plane-surface $-1 -62.432325205236978 0 0 1 0 0 0 0 -1 forward_v I I I I #
face $-1 $64 $65 $23 $-1 $66 reversed single #
loop $-1 $-1 $67 $30 #
plane-surface $-1 19.071844949912219 -122.80570228880012 91.604287602301184 -1 0 0 0 -0.68199836817093118 0.7313536940579346 forward_v I I I I #
face $-1 $68 $69 $24 $-1 $70 forward single #
loop $-1 $71 $72 $31 #
cone-surface $-1 5.1584212224455115 -29.228775388820445 1.5757393669850357 0 0.68199836817093118 -0.7313536940579346 3 0 0 1 I I 0 1 3 forward I I I I #
face $-1 $73 $74 $25 $-1 $75 reversed single #
loop $-1 $-1 $76 $32 #
plane-surface $-1 -3.397408918780858 70.222772506013115 145.22931332710499 1 0 0 0 -0.69465837861970381 -0.71933979245794832 forward_v I I I I #
face $-1 $77 $78 $26 $-1 $79 forward single #
loop $-1 $80 $81 $33 #
cone-surface $-1 5.526282505044037 32.878233480836357 5.1903054396473465 0 -0.69465837861970381 -0.71933979245794832 1 0 0 1 I I 0 1 1 forward I I I I #
face $-1 $82 $83 $27 $-1 $84 forward single #
loop $-1 $85 $86 $34 #
cone-surface $-1 18.911819640781374 32.878233480836357 5.1903054396473465 0 -0.69465837861970381 -0.71933979245794832 1 0 0 1 I I 0 1 1 forward I I I I #
face $-1 $87 $88 $21 $-1 $89 reversed single #
loop $-1 $-1 $90 $35 #
plane-surface $-1 0 0 -9.8845664557743618 0 0 1 1 0 0 forward_v I I I I #
coedge $-1 $91 $92 $93 $94 forward $36 $-1 #
face $-1 $95 $96 $22 $-1 $97 reversed single #
loop $-1 $-1 $98 $38 #
plane-surface $-1 0 0 -9.8845664557743618 0 0 1 1 0 0 forward_v I I I I #
coedge $-1 $99 $100 $101 $102 forward $39 $-1 #
face $-1 $103 $104 $23 $-1 $105 reversed single #
loop $-1 $-1 $106 $41 #
plane-surface $-1 5.1584212224455115 -37.648214466623088 0.28406426734845525 0 -0.68199836817093118 0.7313536940579346 1 0 0 forward_v I I I I #
coedge $-1 $107 $108 $109 $110 reversed $42 $-1 #
face $-1 $-1 $111 $24 $-1 $112 forward single #
loop $-1 $113 $114 $44 #
cone-surface $-1 5.1584212224455115 -24.933977718035845 -3.0298671686782406 0 0.68199836817093118 -0.7313536940579346 1.5 0 0 1 I I -0.70710678118654757 0.70710678118654757 1.5 forward I I I I #
loop $-1 $-1 $115 $31 #
coedge $-1 $72 $72 $116 $117 reversed $45 $-1 #
face $-1 $118 $119 $25 $-1 $120 reversed single #
loop $-1 $-1 $121 $47 #
plane-surface $-1 12.219051072912706 -16.515503095042874 55.409201615500365 0 0.69465837861970381 0.71933979245794832 1 0 0 forward_v I I I I #
coedge $-1 $122 $123 $124 $125 reversed $48 $-1 #
face $-1 $-1 $126 $26 $-1 $127 forward single #
loop $-1 $128 $129 $50 #
cone-surface $-1 5.526282505044037 31.271712755636862 3.5267045667396317 0 -0.69465837861970381 -0.71933979245794832 0.5 0 0 1 I I -0.70710678118654746 0.70710678118654746 0.5 forward I I I I #
loop $-1 $-1 $130 $33 #
coedge $-1 $81 $81 $131 $132 reversed $51 $-1 #
face $-1 $-1 $133 $27 $-1 $134 forward single #
loop $-1 $135 $136 $53 #
cone-surface $-1 18.911819640781374 31.271712755636862 3.5267045667396317 0 -0.69465837861970381 -0.71933979245794832 0.5 0 0 1 I I -0.70710678118654746 0.70710678118654746 0.5 forward I I I I #
loop $-1 $-1 $137 $34 #
coedge $-1 $86 $86 $138 $139 reversed $54 $-1 #
face $-1 $140 $141 $21 $-1 $142 reversed single #
loop $-1 $-1 $143 $56 #
plane-surface $-1 0 -37.648214466623095 0 0 1 0 0 0 1 forward_v I I I I #
coedge $-1 $144 $145 $146 $147 forward $57 $-1 #
coedge $-1 $148 $59 $149 $150 forward $36 $-1 #
coedge $-1 $59 $148 $151 $152 forward $36 $-1 #
coedge $-1 $153 $154 $59 $94 reversed $155 $-1 #
edge $-1 $156 -37.648214466623095 $157 37.648214466623095 $93 $158 forward 7 unknown #
face $-1 $159 $160 $22 $-1 $161 reversed single #
loop $-1 $-1 $162 $60 #
plane-surface $-1 -68.904572923589171 -22.049561954594637 0 0 1 0 0 0 1 forward_v I I I I #
coedge $-1 $163 $164 $100 $165 forward $61 $-1 #
coedge $-1 $166 $63 $167 $168 reversed $39 $-1 #
coedge $-1 $63 $166 $98 $165 reversed $39 $-1 #
coedge $-1 $169 $170 $63 $102 reversed $171 $-1 #
edge $-1 $172 -9.8845664557743618 $173 9.8845664557743618 $101 $174 forward 7 unknown #
face $-1 $175 $176 $23 $-1 $177 forward single #
loop $-1 $-1 $178 $64 #
plane-surface $-1 -8.7550025050211957 -122.80570228880012 91.604287602301184 1 0 0 0 0.68199836817093118 -0.7313536940579346 forward_v I I I I #
coedge $-1 $179 $180 $181 $182 reversed $65 $-1 #
coedge $-1 $108 $67 $183 $184 reversed $42 $-1 #
coedge $-1 $67 $107 $179 $185 reversed $42 $-1 #
coedge $-1 $181 $186 $67 $110 forward $176 $-1 #
edge $-1 $187 23.754636677776965 $188 34.049914596325877 $109 $189 forward 7 unknown #
loop $-1 $-1 $116 $68 #
plane-surface $-1 5.1584212224455115 -37.648214466623088 0.28406426734845525 0 -0.68199836817093118 0.7313536940579346 1 0 0 forward_v I I I I #
loop $-1 $-1 $190 $44 #
coedge $-1 $114 $114 $115 $191 reversed $69 $-1 #
coedge $-1 $115 $115 $114 $191 forward $71 $-1 #
coedge $-1 $116 $116 $72 $117 forward $111 $-1 #
edge $-1 $192 -3.1880897189364964e-016 $192 6.2831853071796004 $116 $193 forward 7 unknown #
face $-1 $194 $195 $25 $-1 $196 reversed single #
loop $-1 $-1 $197 $73 #
plane-surface $-1 27.835511064606269 70.222772506013115 145.22931332710499 -1 0 0 0 0.69465837861970381 0.71933979245794832 forward_v I I I I #
coedge $-1 $198 $199 $200 $201 reversed $74 $-1 #
coedge $-1 $123 $76 $202 $203 reversed $48 $-1 #
coedge $-1 $76 $122 $198 $204 reversed $48 $-1 #
coedge $-1 $200 $205 $76 $125 forward $206 $-1 #
edge $-1 $207 -2.5368282136165377 $208 4.4847506861776267 $124 $209 forward 7 unknown #
loop $-1 $-1 $131 $77 #
plane-surface $-1 12.219051072912706 -16.515503095042874 55.409201615500365 0 0.69465837861970381 0.71933979245794832 1 0 0 forward_v I I I I #
loop $-1 $-1 $210 $50 #
coedge $-1 $129 $129 $130 $211 reversed $78 $-1 #
coedge $-1 $130 $130 $129 $211 forward $80 $-1 #
coedge $-1 $131 $131 $81 $132 forward $126 $-1 #
edge $-1 $212 -2.6432943169261337e-015 $212 6.2831853071795978 $131 $213 forward 7 unknown #
loop $-1 $-1 $138 $82 #
plane-surface $-1 12.219051072912706 -16.515503095042874 55.409201615500365 0 0.69465837861970381 0.71933979245794832 1 0 0 forward_v I I I I #
loop $-1 $-1 $214 $53 #
coedge $-1 $136 $136 $137 $215 reversed $83 $-1 #
coedge $-1 $137 $137 $136 $215 forward $85 $-1 #
coedge $-1 $138 $138 $86 $139 forward $133 $-1 #
edge $-1 $216 -2.6432943169261337e-015 $216 6.2831853071795978 $138 $217 forward 7 unknown #
face $-1 $218 $219 $21 $-1 $220 reversed single #
loop $-1 $-1 $221 $87 #
plane-surface $-1 -62.432325205236978 0 0 1 0 0 0 0 -1 forward_v I I I I #
coedge $-1 $222 $151 $223 $224 forward $88 $-1 #
coedge $-1 $225 $90 $222 $226 forward $57 $-1 #
coedge $-1 $90 $225 $227 $228 forward $57 $-1 #
coedge $-1 $154 $153 $90 $147 reversed $155 $-1 #
edge $-1 $229 -37.648214466623095 $230 37.648214466623095 $146 $231 forward 7 unknown #
coedge $-1 $92 $91 $232 $233 forward $36 $-1 #
coedge $-1 $234 $235 $91 $150 reversed $219 $-1 #
edge $-1 $157 -62.432325205236978 $236 62.432325205236978 $149 $237 forward 7 unknown #
coedge $-1 $143 $238 $92 $152 reversed $88 $-1 #
edge $-1 $239 -62.432325205236978 $156 62.432325205236978 $151 $240 forward 7 unknown #
coedge $-1 $146 $93 $238 $241 forward $155 $-1 #
coedge $-1 $93 $146 $234 $242 reversed $155 $-1 #
loop $-1 $-1 $153 $218 #
vertex $-1 $94 $243 #
vertex $-1 $94 $244 #
straight-curve $-1 62.432325205236978 0 9.8845664557743618 0 1 0 I I #
face $-1 $245 $171 $22 $-1 $246 reversed single #
loop $-1 $-1 $247 $95 #
plane-surface $-1 -75.376820641941379 -19.964321754834504 0 1 0 0 0 0 -1 forward_v I I I I #
coedge $-1 $248 $249 $250 $251 forward $96 $-1 #
coedge $-1 $252 $98 $248 $253 forward $61 $-1 #
coedge $-1 $98 $252 $169 $254 forward $61 $-1 #
edge $-1 $172 17.879081555074372 $255 22.049561954594637 $98 $256 forward 7 unknown #
coedge $-1 $100 $99 $257 $258 forward $39 $-1 #
coedge $-1 $259 $260 $99 $168 forward $261 $-1 #
edge $-1 $262 -22.049561954594637 $173 -17.879081555074372 $167 $263 forward 7 unknown #
coedge $-1 $264 $101 $164 $254 reversed $171 $-1 #
coedge $-1 $101 $264 $259 $265 reversed $171 $-1 #
loop $-1 $-1 $101 $159 #
vertex $-1 $165 $266 #
vertex $-1 $265 $267 #
straight-curve $-1 -62.432325205236978 -17.879081555074372 0 0 0 1 I I #
face $-1 $-1 $268 $23 $-1 $269 reversed single #
loop $-1 $-1 $109 $103 #
plane-surface $-1 0 0 9.8845664557743618 0 0 1 1 0 0 forward_v I I I I #
coedge $-1 $270 $271 $272 $273 reversed $104 $-1 #
coedge $-1 $274 $106 $108 $185 forward $65 $-1 #
coedge $-1 $106 $274 $270 $275 forward $65 $-1 #
coedge $-1 $272 $109 $106 $182 forward $176 $-1 #
edge $-1 $188 -16.492634338689463 $276 11.334213116243951 $181 $277 forward 7 unknown #
coedge $-1 $278 $279 $107 $184 forward $268 $-1 #
edge $-1 $280 -45.518079533802144 $187 -35.91757734537623 $183 $281 forward 7 unknown #
edge $-1 $188 -14.077016363211744 $280 9.7017437778877088e-015 $108 $282 forward 7 unknown #
coedge $-1 $109 $272 $278 $283 forward $176 $-1 #
vertex $-1 $110 $284 #
vertex $-1 $110 $285 #
straight-curve $-1 19.071844949912219 -61.40285114440006 9.8845664557743618 0 1 0 I I #
coedge $-1 $190 $190 $-1 $286 reversed $113 $-1 #
edge $-1 $287 0 $287 6.2831853071796004 $114 $288 forward 7 unknown #
vertex $-1 $117 $289 #
ellipse-curve $-1 5.1584212224455115 -32.500575507348643 5.0843153615614041 0 -0.68199836817093118 0.7313536940579346 3 0 0 1 I I #
face $-1 $-1 $206 $25 $-1 $290 forward single #
loop $-1 $-1 $291 $118 #
plane-surface $-1 0 37.648214466623095 0 0 -1 0 0 0 -1 forward_v I I I I #
coedge $-1 $292 $293 $294 $295 reversed $119 $-1 #
coedge $-1 $296 $121 $123 $204 forward $74 $-1 #
coedge $-1 $121 $296 $292 $297 forward $74 $-1 #
coedge $-1 $294 $124 $121 $201 forward $206 $-1 #
edge $-1 $208 -9.5069344552372108 $298 21.725985528149916 $200 $299 forward 7 unknown #
coedge $-1 $300 $301 $122 $203 forward $195 $-1 #
edge $-1 $302 -69.510750286674693 $207 -62.730090207778133 $202 $303 forward 7 unknown #
edge $-1 $208 65.535285488363513 $302 75.296428933246176 $123 $304 forward 7 unknown #
coedge $-1 $124 $294 $300 $305 forward $206 $-1 #
loop $-1 $-1 $294 $194 #
vertex $-1 $203 $306 #
vertex $-1 $125 $307 #
straight-curve $-1 -3.397408918780858 35.111386253006557 9.8845664557743618 0 -1 0 I I #
coedge $-1 $210 $210 $-1 $308 reversed $128 $-1 #
edge $-1 $309 0 $309 6.2831853071796004 $129 $310 forward 7 unknown #
vertex $-1 $132 $311 #
ellipse-curve $-1 5.526282505044037 34.137425016726006 6.4942364163260908 0 0.69465837861970381 0.71933979245794832 1 0 0 1 I I #
coedge $-1 $214 $214 $-1 $312 reversed $135 $-1 #
edge $-1 $313 0 $313 6.2831853071796004 $136 $314 forward 7 unknown #
vertex $-1 $139 $315 #
ellipse-curve $-1 18.911819640781374 34.137425016726006 6.4942364163260908 0 0.69465837861970381 0.71933979245794832 1 0 0 1 I I #
face $-1 $-1 $155 $21 $-1 $316 reversed single #
loop $-1 $-1 $234 $140 #
plane-surface $-1 0 37.648214466623095 0 0 -1 0 0 0 -1 forward_v I I I I #
coedge $-1 $317 $232 $235 $318 forward $141 $-1 #
coedge $-1 $238 $143 $144 $226 reversed $88 $-1 #
coedge $-1 $232 $317 $143 $224 reversed $141 $-1 #
edge $-1 $239 -9.8845664557743618 $319 9.8845664557743618 $223 $320 forward 7 unknown #
coedge $-1 $145 $144 $317 $321 forward $57 $-1 #
edge $-1 $230 -62.432325205236978 $319 62.432325205236978 $222 $322 forward 7 unknown #
coedge $-1 $235 $234 $145 $228 reversed $219 $-1 #
edge $-1 $323 -62.432325205236978 $229 62.432325205236978 $227 $324 forward 7 unknown #
vertex $-1 $147 $325 #
vertex $-1 $241 $326 #
straight-curve $-1 62.432325205236978 0 -9.8845664557743618 0 -1 0 I I #
coedge $-1 $221 $223 $148 $233 reversed $141 $-1 #
edge $-1 $236 -37.648214466623095 $239 37.648214466623095 $232 $327 forward 7 unknown #
coedge $-1 $227 $149 $154 $242 forward $219 $-1 #
coedge $-1 $149 $227 $221 $318 reversed $219 $-1 #
vertex $-1 $150 $328 #
straight-curve $-1 0 37.648214466623095 9.8845664557743618 -1 0 0 I I #
coedge $-1 $151 $222 $153 $241 reversed $88 $-1 #
vertex $-1 $233 $329 #
straight-curve $-1 0 -37.648214466623095 9.8845664557743618 1 0 0 I I #
edge $-1 $156 -9.8845664557743618 $230 9.8845664557743618 $153 $330 forward 7 unknown #
edge $-1 $157 -9.8845664557743618 $229 9.8845664557743618 $154 $331 forward 7 unknown #
point $-1 62.432325205236978 -37.648214466623095 9.8845664557743618 #
point $-1 62.432325205236978 37.648214466623095 9.8845664557743618 #
face $-1 $-1 $261 $22 $-1 $332 forward single #
plane-surface $-1 -68.904572923589171 -17.879081555074372 0 0 -1 0 0 0 -1 forward_v I I I I #
coedge $-1 $333 $334 $264 $335 forward $160 $-1 #
coedge $-1 $257 $162 $163 $253 reversed $96 $-1 #
coedge $-1 $162 $257 $260 $336 reversed $96 $-1 #
coedge $-1 $334 $333 $162 $251 reversed $160 $-1 #
edge $-1 $337 -9.8845664557743618 $338 9.8845664557743618 $250 $339 forward 7 unknown #
coedge $-1 $164 $163 $333 $340 forward $61 $-1 #
edge $-1 $255 -6.4722477183522003 $338 6.4722477183522074 $248 $341 forward 7 unknown #
edge $-1 $342 -6.4722477183522074 $172 6.4722477183522003 $169 $343 forward 7 unknown #
vertex $-1 $253 $344 #
straight-curve $-1 -62.432325205236978 0 -9.8845664557743618 0 -1 0 I I #
coedge $-1 $249 $248 $166 $258 reversed $96 $-1 #
edge $-1 $262 -9.8845664557743618 $255 9.8845664557743618 $257 $345 forward 7 unknown #
coedge $-1 $346 $167 $170 $265 forward $261 $-1 #
coedge $-1 $167 $346 $249 $336 forward $261 $-1 #
loop $-1 $-1 $167 $245 #
vertex $-1 $168 $347 #
straight-curve $-1 -62.432325205236978 0 9.8845664557743618 0 1 0 I I #
coedge $-1 $170 $169 $247 $335 reversed $171 $-1 #
edge $-1 $173 -6.4722477183522003 $348 6.4722477183522074 $170 $349 forward 7 unknown #
point $-1 -62.432325205236971 -17.879081555074372 -9.8845664557743618 #
point $-1 -62.432325205236971 -17.879081555074372 9.8845664557743618 #
loop $-1 $-1 $183 $175 #
plane-surface $-1 0 -37.648214466623095 0 0 1 0 0 0 1 forward_v I I I I #
coedge $-1 $271 $178 $180 $275 reversed $104 $-1 #
coedge $-1 $178 $270 $350 $351 reversed $104 $-1 #
coedge $-1 $186 $181 $178 $273 forward $176 $-1 #
edge $-1 $276 -34.049914596325877 $352 -23.754636677776965 $272 $353 forward 7 unknown #
coedge $-1 $180 $179 $279 $354 reversed $65 $-1 #
edge $-1 $355 -9.7017437778877088e-015 $276 14.077016363211744 $270 $356 forward 7 unknown #
vertex $-1 $182 $357 #
straight-curve $-1 2.5792106112227557 -27.352936548074183 9.8845664557743618 -1 0 0 I I #
coedge $-1 $350 $183 $186 $283 reversed $268 $-1 #
coedge $-1 $183 $350 $274 $354 forward $268 $-1 #
vertex $-1 $184 $358 #
straight-curve $-1 19.071844949912219 -37.648214466623095 45.802143801150592 0 0 1 I I #
straight-curve $-1 19.071844949912219 -37.648214466623088 0.28406426734845525 0 -0.7313536940579346 -0.68199836817093118 I I #
edge $-1 $352 -8.7550025050211957 $187 19.071844949912219 $278 $359 forward 7 unknown #
point $-1 19.071844949912219 -37.648214466623095 9.8845664557743618 #
point $-1 19.071844949912219 -27.352936548074187 9.8845664557743618 #
edge $-1 $360 1 $360 0 $190 $-1 forward 7 unknown #
vertex $-1 $191 $361 #
ellipse-curve $-1 5.1584212224455115 -25.95697527029224 -1.9328366275913387 0 -0.68199836817093118 0.7313536940579346 3 0 0 1 I I #
point $-1 8.1584212224455115 -32.50057550734865 5.0843153615614103 #
plane-surface $-1 0 0 9.8845664557743618 0 0 1 1 0 0 forward_v I I I I #
coedge $-1 $301 $300 $293 $362 forward $195 $-1 #
coedge $-1 $293 $197 $199 $297 reversed $119 $-1 #
coedge $-1 $197 $292 $291 $362 reversed $119 $-1 #
coedge $-1 $205 $200 $197 $295 forward $206 $-1 #
edge $-1 $298 -4.4847506861776267 $363 2.5368282136165377 $294 $364 forward 7 unknown #
coedge $-1 $199 $198 $301 $365 reversed $74 $-1 #
edge $-1 $366 -75.296428933246176 $298 -65.535285488363513 $292 $367 forward 7 unknown #
vertex $-1 $201 $368 #
straight-curve $-1 6.1095255364563528 30.626635566828931 9.8845664557743582 1 0 0 I I #
coedge $-1 $291 $202 $205 $305 reversed $195 $-1 #
coedge $-1 $202 $291 $296 $365 forward $195 $-1 #
vertex $-1 $203 $369 #
straight-curve $-1 -3.397408918780858 37.648214466623095 72.614656663552495 0 0 1 I I #
straight-curve $-1 -3.397408918780858 -16.515503095042874 55.409201615500365 0 0.71933979245794832 -0.69465837861970381 I I #
edge $-1 $363 -27.835511064606269 $207 3.397408918780858 $300 $370 forward 7 unknown #
point $-1 -3.397408918780858 37.648214466623095 9.8845664557743618 #
point $-1 -3.397408918780858 30.626635566828931 9.8845664557743618 #
edge $-1 $371 1 $371 0 $210 $-1 forward 7 unknown #
vertex $-1 $211 $372 #
ellipse-curve $-1 5.526282505044037 31.619041944946716 3.8863744629686057 0 0.69465837861970381 0.71933979245794832 1 0 0 1 I I #
point $-1 6.526282505044037 34.137425016725999 6.4942364163260873 #
edge $-1 $373 1 $373 0 $214 $-1 forward 7 unknown #
vertex $-1 $215 $374 #
ellipse-curve $-1 18.911819640781374 31.619041944946716 3.8863744629686057 0 0.69465837861970381 0.71933979245794832 1 0 0 1 I I #
point $-1 19.911819640781374 34.137425016725999 6.4942364163260873 #
plane-surface $-1 62.432325205236978 0 0 -1 0 0 0 0 1 forward_v I I I I #
coedge $-1 $223 $221 $225 $321 reversed $141 $-1 #
edge $-1 $236 -9.8845664557743618 $323 9.8845664557743618 $235 $375 forward 7 unknown #
vertex $-1 $321 $376 #
straight-curve $-1 -62.432325205236978 -37.648214466623095 0 0 0 -1 I I #
edge $-1 $319 -37.648214466623095 $323 37.648214466623095 $317 $377 forward 7 unknown #
straight-curve $-1 0 -37.648214466623095 -9.8845664557743618 -1 0 0 I I #
vertex $-1 $228 $378 #
straight-curve $-1 0 37.648214466623095 -9.8845664557743618 1 0 0 I I #
point $-1 62.432325205236978 37.648214466623095 -9.8845664557743618 #
point $-1 62.432325205236978 -37.648214466623095 -9.8845664557743618 #
straight-curve $-1 -62.432325205236978 0 9.8845664557743618 0 -1 0 I I #
point $-1 -62.432325205236978 37.648214466623095 9.8845664557743618 #
point $-1 -62.432325205236978 -37.648214466623095 9.8845664557743618 #
straight-curve $-1 62.432325205236978 -37.648214466623095 0 0 0 -1 I I #
straight-curve $-1 62.432325205236978 37.648214466623095 0 0 0 -1 I I #
plane-surface $-1 0 0 9.8845664557743618 0 0 1 1 0 0 forward_v I I I I #
coedge $-1 $250 $247 $252 $340 reversed $160 $-1 #
coedge $-1 $247 $250 $346 $379 reversed $160 $-1 #
edge $-1 $348 -9.8845664557743618 $342 9.8845664557743618 $264 $380 forward 7 unknown #
edge $-1 $337 -6.4722477183522074 $262 6.4722477183522003 $249 $381 forward 7 unknown #
vertex $-1 $379 $382 #
vertex $-1 $340 $383 #
straight-curve $-1 -75.376820641941379 -22.049561954594637 0 0 0 -1 I I #
edge $-1 $338 -2.0852401997601326 $342 2.0852401997601326 $333 $384 forward 7 unknown #
straight-curve $-1 -68.904572923589171 -22.049561954594637 -9.8845664557743618 -1 0 0 I I #
vertex $-1 $254 $385 #
straight-curve $-1 -68.904572923589171 -17.879081555074372 -9.8845664557743618 1 0 0 I I #
point $-1 -62.432325205236971 -22.049561954594637 -9.8845664557743618 #
straight-curve $-1 -62.432325205236978 -22.049561954594637 0 0 0 -1 I I #
coedge $-1 $260 $259 $334 $379 forward $261 $-1 #
point $-1 -62.432325205236971 -22.049561954594637 9.8845664557743618 #
vertex $-1 $265 $386 #
straight-curve $-1 -68.904572923589171 -17.879081555074372 9.8845664557743618 -1 0 0 I I #
coedge $-1 $279 $278 $271 $351 forward $268 $-1 #
edge $-1 $352 35.91757734537623 $355 45.518079533802144 $350 $387 forward 7 unknown #
vertex $-1 $283 $388 #
straight-curve $-1 -8.7550025050211957 -61.40285114440006 9.8845664557743618 0 -1 0 I I #
edge $-1 $355 -11.334213116243951 $280 16.492634338689463 $279 $389 forward 7 unknown #
vertex $-1 $354 $390 #
straight-curve $-1 -8.7550025050211957 -37.648214466623088 0.28406426734845525 0 0.7313536940579346 0.68199836817093118 I I #
point $-1 -8.7550025050211957 -27.352936548074187 9.8845664557743618 #
point $-1 19.071844949912219 -37.648214466623095 0.28406426734844864 #
straight-curve $-1 0 -37.648214466623095 9.8845664557743618 1 0 0 I I #
vertex $-1 $286 $391 #
point $-1 8.1584212224455115 -25.95697527029224 -1.9328366275913387 #
edge $-1 $363 62.730090207778133 $366 69.510750286674693 $291 $392 forward 7 unknown #
vertex $-1 $305 $393 #
straight-curve $-1 27.835511064606269 35.111386253006557 9.8845664557743618 0 1 0 I I #
edge $-1 $366 -21.725985528149916 $302 9.5069344552372108 $301 $394 forward 7 unknown #
vertex $-1 $365 $395 #
straight-curve $-1 27.835511064606269 -16.515503095042874 55.409201615500365 0 -0.71933979245794832 0.69465837861970381 I I #
point $-1 27.835511064606269 30.626635566828931 9.8845664557743618 #
point $-1 -3.397408918780858 37.648214466623095 3.1039063768778092 #
straight-curve $-1 0 37.648214466623095 9.8845664557743618 -1 0 0 I I #
vertex $-1 $308 $396 #
point $-1 6.526282505044037 31.619041944946716 3.8863744629686057 #
vertex $-1 $312 $397 #
point $-1 19.911819640781374 31.619041944946716 3.8863744629686057 #
straight-curve $-1 -62.432325205236978 37.648214466623095 0 0 0 -1 I I #
point $-1 -62.432325205236978 -37.648214466623095 -9.8845664557743618 #
straight-curve $-1 -62.432325205236978 0 -9.8845664557743618 0 1 0 I I #
point $-1 -62.432325205236978 37.648214466623095 -9.8845664557743618 #
edge $-1 $348 -2.0852401997601326 $337 2.0852401997601326 $334 $398 forward 7 unknown #
straight-curve $-1 -75.376820641941379 -17.879081555074372 0 0 0 -1 I I #
straight-curve $-1 -68.904572923589171 -22.049561954594637 9.8845664557743618 1 0 0 I I #
point $-1 -75.376820641941379 -22.049561954594637 9.8845664557743618 #
point $-1 -75.376820641941379 -22.049561954594637 -9.8845664557743618 #
straight-curve $-1 -75.376820641941379 -19.964321754834504 -9.8845664557743618 0 1 0 I I #
point $-1 -75.376820641941379 -17.879081555074372 -9.8845664557743618 #
point $-1 -75.376820641941379 -17.879081555074372 9.8845664557743618 #
straight-curve $-1 -8.7550025050211957 -37.648214466623095 45.802143801150592 0 0 -1 I I #
point $-1 -8.7550025050211957 -37.648214466623095 9.8845664557743618 #
straight-curve $-1 2.5792106112227557 -37.648214466623095 0.28406426734844503 1 0 0 I I #
point $-1 -8.7550025050211957 -37.648214466623095 0.28406426734844864 #
point $-1 5.1584212224455115 -23.910980165779449 -4.1268977097651423 #
straight-curve $-1 27.835511064606269 37.648214466623095 72.614656663552495 0 0 -1 I I #
point $-1 27.835511064606269 37.648214466623095 9.8845664557743618 #
straight-curve $-1 6.1095255364563528 37.648214466623095 3.1039063768778092 -1 0 0 I I #
point $-1 27.835511064606269 37.648214466623095 3.1039063768778092 #
point $-1 5.526282505044037 30.924383566327009 3.1670346705106578 #
point $-1 18.911819640781374 30.924383566327009 3.1670346705106578 #
straight-curve $-1 -75.376820641941379 -19.964321754834504 9.8845664557743618 0 -1 0 I I #
End-of-ACIS-data 