500 0 13 0           
7 Unknown 11 ACIS 5.0 NT 24 Thu Mar 25 17:55:17 1999 
-1 9.9999999999999995e-007 1e-010 
body $-1 $13 $-1 $14 #
body $-1 $15 $-1 $16 #
body $-1 $17 $-1 $18 #
body $-1 $19 $-1 $20 #
body $-1 $21 $-1 $22 #
body $-1 $23 $-1 $24 #
body $-1 $25 $-1 $26 #
body $-1 $27 $-1 $28 #
body $-1 $29 $-1 $30 #
body $-1 $31 $-1 $32 #
body $-1 $33 $-1 $34 #
body $-1 $35 $-1 $36 #
body $-1 $37 $-1 $38 #
lump $-1 $-1 $39 $0 #
transform $-1 1 0 0 0 1 0 0 0 1 40.53468428601947 27.036771732229244 9.9771273767691984 1 rotate no_reflect no_shear #
lump $-1 $-1 $40 $1 #
transform $-1 1 0 0 0 1 0 0 0 1 40.53468428601947 27.036771732229244 9.9771273767691984 1 rotate no_reflect no_shear #
lump $-1 $-1 $41 $2 #
transform $-1 1 0 0 0 1 0 0 0 1 40.53468428601947 27.036771732229244 9.9771273767691984 1 rotate no_reflect no_shear #
lump $-1 $-1 $42 $3 #
transform $-1 1 0 0 0 1 0 0 0 1 40.53468428601947 27.036771732229244 9.9771273767691984 1 rotate no_reflect no_shear #
lump $-1 $-1 $43 $4 #
transform $-1 1 0 0 0 1 0 0 0 1 40.53468428601947 27.036771732229244 9.9771273767691984 1 rotate no_reflect no_shear #
lump $-1 $-1 $44 $5 #
transform $-1 1 0 0 0 1 0 0 0 1 40.53468428601947 27.036771732229244 9.9771273767691984 1 rotate no_reflect no_shear #
lump $-1 $-1 $45 $6 #
transform $-1 1 0 0 0 1 0 0 0 1 40.53468428601947 27.036771732229244 9.9771273767691984 1 rotate no_reflect no_shear #
lump $-1 $-1 $46 $7 #
transform $-1 1 0 0 0 1 0 0 0 1 40.53468428601947 27.036771732229244 9.9771273767691984 1 rotate no_reflect no_shear #
lump $-1 $-1 $47 $8 #
transform $-1 1 0 0 0 1 0 0 0 1 40.53468428601947 27.036771732229244 9.9771273767691984 1 rotate no_reflect no_shear #
lump $-1 $-1 $48 $9 #
transform $-1 1 0 0 0 1 0 0 0 1 40.53468428601947 27.036771732229244 9.9771273767691984 1 rotate no_reflect no_shear #
lump $-1 $-1 $49 $10 #
transform $-1 1 0 0 0 1 0 0 0 1 40.53468428601947 27.036771732229244 9.9771273767691984 1 rotate no_reflect no_shear #
lump $-1 $-1 $50 $11 #
transform $-1 1 0 0 0 1 0 0 0 1 40.53468428601947 27.036771732229244 9.9771273767691984 1 rotate no_reflect no_shear #
lump $-1 $-1 $51 $12 #
transform $-1 1 0 0 0 1 0 0 0 1 40.53468428601947 27.036771732229244 9.9771273767691984 1 rotate no_reflect no_shear #
shell $-1 $-1 $-1 $52 $-1 $13 #
shell $-1 $-1 $-1 $53 $-1 $15 #
shell $-1 $-1 $-1 $54 $-1 $17 #
shell $-1 $-1 $-1 $55 $-1 $19 #
shell $-1 $-1 $-1 $56 $-1 $21 #
shell $-1 $-1 $-1 $57 $-1 $23 #
shell $-1 $-1 $-1 $58 $-1 $25 #
shell $-1 $-1 $-1 $59 $-1 $27 #
shell $-1 $-1 $-1 $60 $-1 $29 #
shell $-1 $-1 $-1 $61 $-1 $31 #
shell $-1 $-1 $-1 $62 $-1 $33 #
shell $-1 $-1 $-1 $63 $-1 $35 #
shell $-1 $-1 $-1 $64 $-1 $37 #
face $-1 $65 $66 $39 $-1 $67 forward single #
face $-1 $68 $69 $40 $-1 $70 reversed single #
face $-1 $71 $72 $41 $-1 $73 reversed single #
face $-1 $74 $75 $42 $-1 $76 forward single #
face $-1 $77 $78 $43 $-1 $79 reversed single #
face $-1 $80 $81 $44 $-1 $82 forward single #
face $-1 $83 $84 $45 $-1 $85 reversed single #
face $-1 $86 $87 $46 $-1 $88 forward single #
face $-1 $89 $90 $47 $-1 $91 reversed single #
face $-1 $92 $93 $48 $-1 $94 forward single #
face $-1 $95 $96 $49 $-1 $97 reversed single #
face $-1 $98 $99 $50 $-1 $100 forward single #
face $-1 $101 $102 $51 $-1 $103 forward single #
face $-1 $104 $105 $39 $-1 $106 reversed single #
loop $-1 $-1 $107 $52 #
plane-surface $-1 0 0 9.9771273767691984 0 0 1 1 0 0 forward_v I I I I #
face $-1 $108 $109 $40 $-1 $110 reversed single #
loop $-1 $-1 $111 $53 #
plane-surface $-1 -39.03468428601947 -14.698341143405461 0 0 -1 0 0 0 -1 forward_v I I I I #
face $-1 $112 $113 $41 $-1 $114 reversed single #
loop $-1 $-1 $115 $54 #
plane-surface $-1 -97.859385214932573 -8.6079767486707972 59.278346367749613 0 -1 0 0.70710678939079041 0 -0.70710677298230451 forward_v I I I I #
face $-1 $116 $117 $42 $-1 $118 forward single #
loop $-1 $119 $120 $55 #
cone-surface $-1 -35.884606857726588 -11.653158946038129 5.327049870196146 0.70710678939079041 0 -0.70710677298230451 0.35355338649115226 0 0.35355339469539521 1 I I 0 1 0.5 forward I I I I #
face $-1 $121 $122 $43 $-1 $123 reversed single #
loop $-1 $-1 $124 $56 #
plane-surface $-1 -97.859385214932573 3.2736060782958871 59.278346367749613 0 -1 0 0.70710678939079041 0 -0.70710677298230451 forward_v I I I I #
face $-1 $125 $126 $44 $-1 $127 forward single #
loop $-1 $128 $129 $57 #
cone-surface $-1 -35.884606857726588 0.22842388092855614 5.327049870196146 0.70710678939079041 0 -0.70710677298230451 0.35355338649115226 0 0.35355339469539521 1 I I 0 1 0.5 forward I I I I #
face $-1 $130 $131 $45 $-1 $132 reversed single #
loop $-1 $-1 $133 $58 #
plane-surface $-1 -97.859385214932573 15.155188905262573 59.278346367749613 0 -1 0 0.70710678939079041 0 -0.70710677298230451 forward_v I I I I #
face $-1 $134 $135 $46 $-1 $136 forward single #
loop $-1 $137 $138 $59 #
cone-surface $-1 -35.884606857726588 12.110006707895241 5.327049870196146 0.70710678939079041 0 -0.70710677298230451 0.35355338649115226 0 0.35355339469539521 1 I I 0 1 0.5 forward I I I I #
face $-1 $139 $140 $47 $-1 $141 reversed single #
loop $-1 $-1 $142 $60 #
plane-surface $-1 -40.53468428601947 23.991589534861927 1.9536467690621038 -0.70710678939079041 0 0.70710677298230451 0.70710677298230451 0 0.70710678939079041 forward_v I I I I #
face $-1 $143 $144 $48 $-1 $145 forward single #
loop $-1 $146 $147 $61 #
cone-surface $-1 -35.884606857726588 23.991589534861927 5.327049870196146 0.70710678939079041 0 -0.70710677298230451 0.35355338649115226 0 0.35355339469539521 1 I I 0 1 0.5 forward I I I I #
face $-1 $148 $149 $49 $-1 $150 reversed single #
loop $-1 $-1 $151 $62 #
plane-surface $-1 44.535892050176571 22.415485859559084 121.50409245139713 0 -1 0 -0.73135370988377701 0 -0.68199835119979291 forward_v I I I I #
face $-1 $152 $153 $50 $-1 $154 forward single #
loop $-1 $155 $156 $63 #
cone-surface $-1 38.647884652952044 14.981781578313484 8.0186052663769978 -0.73135370988377701 0 -0.68199835119979291 0.68199835119979291 0 -0.73135370988377701 1 I I 0 1 1 forward I I I I #
face $-1 $157 $158 $51 $-1 $159 forward single #
loop $-1 $160 $161 $64 #
cone-surface $-1 38.647884652952044 19.442004147060846 8.0186052663769978 -0.73135370988377701 0 -0.68199835119979291 0.68199835119979291 0 -0.73135370988377701 1 I I 0 1 1 forward I I I I #
face $-1 $162 $163 $39 $-1 $164 reversed single #
loop $-1 $-1 $165 $65 #
plane-surface $-1 0 0 -9.9771273767691984 0 0 1 1 0 0 forward_v I I I I #
coedge $-1 $166 $167 $168 $169 forward $66 $-1 #
face $-1 $170 $171 $40 $-1 $172 forward single #
loop $-1 $-1 $173 $68 #
plane-surface $-1 -37.53468428601947 -20.867556437817353 0 -1 0 0 0 0 1 forward_v I I I I #
coedge $-1 $174 $175 $176 $177 forward $69 $-1 #
face $-1 $178 $179 $41 $-1 $180 forward single #
loop $-1 $-1 $181 $71 #
plane-surface $-1 -40.53468428601947 -11.653158946038129 1.9536467690621038 -0.70710678939079041 0 0.70710677298230451 0.70710677298230451 0 0.70710678939079041 forward_v I I I I #
coedge $-1 $182 $183 $184 $185 reversed $72 $-1 #
face $-1 $-1 $186 $42 $-1 $187 forward single #
loop $-1 $188 $189 $74 #
cone-surface $-1 -35.069492942846708 -11.653158946038129 4.5119359742310703 0.70710678939079041 0 -0.70710677298230451 0.17677669324557613 0 0.1767766973476976 1 I I -0.70710678118654746 0.70710678118654746 0.25 forward I I I I #
loop $-1 $-1 $190 $55 #
coedge $-1 $120 $120 $191 $192 reversed $75 $-1 #
face $-1 $193 $194 $43 $-1 $195 reversed single #
loop $-1 $-1 $196 $77 #
plane-surface $-1 -40.53468428601947 0.22842388092855614 1.9536467690621038 -0.70710678939079041 0 0.70710677298230451 0.70710677298230451 0 0.70710678939079041 forward_v I I I I #
coedge $-1 $197 $198 $199 $200 reversed $78 $-1 #
face $-1 $-1 $201 $44 $-1 $202 forward single #
loop $-1 $203 $204 $80 #
cone-surface $-1 -35.069492942846708 0.22842388092855614 4.5119359742310703 0.70710678939079041 0 -0.70710677298230451 0.17677669324557613 0 0.1767766973476976 1 I I -0.70710678118654746 0.70710678118654746 0.25 forward I I I I #
loop $-1 $-1 $205 $57 #
coedge $-1 $129 $129 $206 $207 reversed $81 $-1 #
face $-1 $208 $209 $45 $-1 $210 reversed single #
loop $-1 $-1 $211 $83 #
plane-surface $-1 -40.53468428601947 12.110006707895241 1.9536467690621038 -0.70710678939079041 0 0.70710677298230451 0.70710677298230451 0 0.70710678939079041 forward_v I I I I #
coedge $-1 $212 $213 $214 $215 reversed $84 $-1 #
face $-1 $-1 $216 $46 $-1 $217 forward single #
loop $-1 $218 $219 $86 #
cone-surface $-1 -35.069492942846708 12.110006707895241 4.5119359742310703 0.70710678939079041 0 -0.70710677298230451 0.17677669324557613 0 0.1767766973476976 1 I I -0.70710678118654746 0.70710678118654746 0.25 forward I I I I #
loop $-1 $-1 $220 $59 #
coedge $-1 $138 $138 $221 $222 reversed $87 $-1 #
face $-1 $223 $224 $47 $-1 $225 forward single #
loop $-1 $-1 $226 $89 #
plane-surface $-1 -97.859385214932573 20.946407337494595 59.278346367749613 0 1 0 -0.70710678939079041 0 0.70710677298230451 forward_v I I I I #
coedge $-1 $227 $228 $229 $230 reversed $90 $-1 #
face $-1 $-1 $231 $48 $-1 $232 forward single #
loop $-1 $233 $234 $92 #
cone-surface $-1 -35.069492942846708 23.991589534861927 4.5119359742310703 0.70710678939079041 0 -0.70710677298230451 0.17677669324557613 0 0.1767766973476976 1 I I -0.70710678118654746 0.70710678118654746 0.25 forward I I I I #
loop $-1 $-1 $235 $61 #
coedge $-1 $147 $147 $236 $237 reversed $93 $-1 #
face $-1 $238 $239 $49 $-1 $240 reversed single #
loop $-1 $-1 $241 $95 #
plane-surface $-1 -14.754491412919386 17.211892862687161 66.214916752458265 0.73135370988377701 0 0.68199835119979291 0.68199835119979291 0 -0.73135370988377701 forward_v I I I I #
coedge $-1 $242 $243 $244 $245 reversed $96 $-1 #
face $-1 $-1 $246 $50 $-1 $247 forward single #
loop $-1 $248 $249 $98 #
cone-surface $-1 37.818703149543666 14.981781578313484 7.2453810240883438 -0.73135370988377701 0 -0.68199835119979291 0.34099917559989645 0 -0.36567685494188851 1 I I -0.70710678118654746 0.70710678118654746 0.5 forward I I I I #
loop $-1 $-1 $250 $63 #
coedge $-1 $156 $156 $251 $252 reversed $99 $-1 #
face $-1 $-1 $253 $51 $-1 $254 forward single #
loop $-1 $255 $256 $101 #
cone-surface $-1 37.818703149543666 19.442004147060846 7.2453810240883438 -0.73135370988377701 0 -0.68199835119979291 0.34099917559989645 0 -0.36567685494188851 1 I I -0.70710678118654746 0.70710678118654746 0.5 forward I I I I #
loop $-1 $-1 $257 $64 #
coedge $-1 $161 $161 $258 $259 reversed $102 $-1 #
face $-1 $260 $261 $39 $-1 $262 reversed single #
loop $-1 $-1 $263 $104 #
plane-surface $-1 0 -27.036771732229244 0 0 1 0 0 0 1 forward_v I I I I #
coedge $-1 $264 $265 $266 $267 forward $105 $-1 #
coedge $-1 $268 $107 $269 $270 forward $66 $-1 #
coedge $-1 $107 $268 $271 $272 forward $66 $-1 #
coedge $-1 $273 $274 $107 $169 reversed $275 $-1 #
edge $-1 $276 -27.036771732229244 $277 27.036771732229244 $168 $278 forward 7 unknown #
face $-1 $279 $280 $40 $-1 $281 reversed single #
loop $-1 $-1 $282 $108 #
plane-surface $-1 0 0 9.9771273767691984 0 0 1 1 0 0 forward_v I I I I #
coedge $-1 $283 $284 $285 $286 reversed $109 $-1 #
coedge $-1 $287 $111 $288 $289 reversed $69 $-1 #
coedge $-1 $111 $287 $290 $291 reversed $69 $-1 #
coedge $-1 $284 $283 $111 $177 reversed $109 $-1 #
edge $-1 $292 -9.9771273767691984 $293 9.9771273767691984 $176 $294 forward 7 unknown #
face $-1 $295 $296 $41 $-1 $297 forward single #
loop $-1 $-1 $298 $112 #
plane-surface $-1 0 0 9.9771273767691984 0 0 1 1 0 0 forward_v I I I I #
coedge $-1 $299 $300 $301 $302 reversed $113 $-1 #
coedge $-1 $183 $115 $303 $304 reversed $72 $-1 #
coedge $-1 $115 $182 $299 $305 reversed $72 $-1 #
coedge $-1 $301 $306 $115 $185 forward $307 $-1 #
edge $-1 $308 19.662045807105606 $309 27.685526414812703 $184 $310 forward 7 unknown #
loop $-1 $-1 $191 $116 #
plane-surface $-1 -40.53468428601947 -11.653158946038129 1.9536467690621038 -0.70710678939079041 0 0.70710677298230451 0.70710677298230451 0 0.70710678939079041 forward_v I I I I #
loop $-1 $-1 $311 $74 #
coedge $-1 $189 $189 $190 $312 reversed $117 $-1 #
coedge $-1 $190 $190 $189 $312 forward $119 $-1 #
coedge $-1 $191 $191 $120 $192 forward $186 $-1 #
edge $-1 $313 0 $313 6.2831853071796004 $191 $314 forward 7 unknown #
face $-1 $315 $316 $43 $-1 $317 reversed single #
loop $-1 $-1 $318 $121 #
plane-surface $-1 -97.859385214932573 -2.8167583164387748 59.278346367749613 0 1 0 -0.70710678939079041 0 0.70710677298230451 forward_v I I I I #
coedge $-1 $319 $320 $321 $322 reversed $122 $-1 #
coedge $-1 $198 $124 $323 $324 reversed $78 $-1 #
coedge $-1 $124 $197 $319 $325 reversed $78 $-1 #
coedge $-1 $321 $326 $124 $200 forward $316 $-1 #
edge $-1 $327 19.662045807105606 $328 27.685526414812703 $199 $329 forward 7 unknown #
loop $-1 $-1 $206 $125 #
plane-surface $-1 -40.53468428601947 0.22842388092855614 1.9536467690621038 -0.70710678939079041 0 0.70710677298230451 0.70710677298230451 0 0.70710678939079041 forward_v I I I I #
loop $-1 $-1 $330 $80 #
coedge $-1 $204 $204 $205 $331 reversed $126 $-1 #
coedge $-1 $205 $205 $204 $331 forward $128 $-1 #
coedge $-1 $206 $206 $129 $207 forward $201 $-1 #
edge $-1 $332 0 $332 6.2831853071796004 $206 $333 forward 7 unknown #
face $-1 $334 $335 $45 $-1 $336 forward single #
loop $-1 $-1 $337 $130 #
plane-surface $-1 -97.859385214932573 9.0648245105279095 59.278346367749613 0 1 0 -0.70710678939079041 0 0.70710677298230451 forward_v I I I I #
coedge $-1 $338 $339 $340 $341 reversed $131 $-1 #
coedge $-1 $213 $133 $342 $343 reversed $84 $-1 #
coedge $-1 $133 $212 $338 $344 reversed $84 $-1 #
coedge $-1 $340 $345 $133 $215 forward $346 $-1 #
edge $-1 $347 19.662045807105606 $348 27.685526414812703 $214 $349 forward 7 unknown #
loop $-1 $-1 $221 $134 #
plane-surface $-1 -40.53468428601947 12.110006707895241 1.9536467690621038 -0.70710678939079041 0 0.70710677298230451 0.70710677298230451 0 0.70710678939079041 forward_v I I I I #
loop $-1 $-1 $350 $86 #
coedge $-1 $219 $219 $220 $351 reversed $135 $-1 #
coedge $-1 $220 $220 $219 $351 forward $137 $-1 #
coedge $-1 $221 $221 $138 $222 forward $216 $-1 #
edge $-1 $352 0 $352 6.2831853071796004 $221 $353 forward 7 unknown #
face $-1 $354 $355 $47 $-1 $356 reversed single #
loop $-1 $-1 $357 $139 #
plane-surface $-1 0 0 9.9771273767691984 0 0 1 1 0 0 forward_v I I I I #
coedge $-1 $358 $359 $360 $361 reversed $140 $-1 #
coedge $-1 $362 $142 $363 $364 reversed $90 $-1 #
coedge $-1 $142 $362 $358 $365 forward $90 $-1 #
coedge $-1 $360 $366 $142 $230 forward $367 $-1 #
edge $-1 $368 -15.040976964798295 $369 -8.9506125700636314 $229 $370 forward 7 unknown #
loop $-1 $-1 $236 $143 #
plane-surface $-1 -40.53468428601947 23.991589534861927 1.9536467690621038 -0.70710678939079041 0 0.70710677298230451 0.70710677298230451 0 0.70710678939079041 forward_v I I I I #
loop $-1 $-1 $371 $92 #
coedge $-1 $234 $234 $235 $372 reversed $144 $-1 #
coedge $-1 $235 $235 $234 $372 forward $146 $-1 #
coedge $-1 $236 $236 $147 $237 forward $231 $-1 #
edge $-1 $373 0 $373 6.2831853071796004 $236 $374 forward 7 unknown #
face $-1 $375 $376 $49 $-1 $377 forward single #
loop $-1 $-1 $378 $148 #
plane-surface $-1 44.535892050176571 12.008299865815239 121.50409245139713 0 1 0 0.73135370988377701 0 0.68199835119979291 forward_v I I I I #
coedge $-1 $379 $380 $381 $382 reversed $149 $-1 #
coedge $-1 $243 $151 $383 $384 reversed $96 $-1 #
coedge $-1 $151 $242 $379 $385 reversed $96 $-1 #
coedge $-1 $381 $386 $151 $245 forward $376 $-1 #
edge $-1 $387 -18.266738260931184 $388 -15.420148291729326 $244 $389 forward 7 unknown #
loop $-1 $-1 $251 $152 #
plane-surface $-1 -14.754491412919386 17.211892862687161 66.214916752458265 0.73135370988377701 0 0.68199835119979291 0.68199835119979291 0 -0.73135370988377701 forward_v I I I I #
loop $-1 $-1 $390 $98 #
coedge $-1 $249 $249 $250 $391 reversed $153 $-1 #
coedge $-1 $250 $250 $249 $391 forward $155 $-1 #
coedge $-1 $251 $251 $156 $252 forward $246 $-1 #
edge $-1 $392 0 $392 6.2831853071796004 $251 $393 forward 7 unknown #
loop $-1 $-1 $258 $157 #
plane-surface $-1 -14.754491412919386 17.211892862687161 66.214916752458265 0.73135370988377701 0 0.68199835119979291 0.68199835119979291 0 -0.73135370988377701 forward_v I I I I #
loop $-1 $-1 $394 $101 #
coedge $-1 $256 $256 $257 $395 reversed $158 $-1 #
coedge $-1 $257 $257 $256 $395 forward $160 $-1 #
coedge $-1 $258 $258 $161 $259 forward $253 $-1 #
edge $-1 $396 0 $396 6.2831853071796004 $258 $397 forward 7 unknown #
face $-1 $398 $399 $39 $-1 $400 reversed single #
loop $-1 $-1 $401 $162 #
plane-surface $-1 -40.53468428601947 0 0 1 0 0 0 0 -1 forward_v I I I I #
coedge $-1 $402 $271 $403 $404 forward $163 $-1 #
coedge $-1 $405 $165 $402 $406 forward $105 $-1 #
coedge $-1 $165 $405 $407 $408 forward $105 $-1 #
coedge $-1 $274 $273 $165 $267 reversed $275 $-1 #
edge $-1 $409 -27.036771732229244 $410 27.036771732229244 $266 $411 forward 7 unknown #
coedge $-1 $167 $166 $412 $413 forward $66 $-1 #
coedge $-1 $414 $415 $166 $270 reversed $399 $-1 #
edge $-1 $277 -40.53468428601947 $416 40.53468428601947 $269 $417 forward 7 unknown #
coedge $-1 $263 $418 $167 $272 reversed $163 $-1 #
edge $-1 $419 -40.53468428601947 $276 40.53468428601947 $271 $420 forward 7 unknown #
coedge $-1 $266 $168 $418 $421 forward $275 $-1 #
coedge $-1 $168 $266 $414 $422 reversed $275 $-1 #
loop $-1 $-1 $273 $398 #
vertex $-1 $169 $423 #
vertex $-1 $169 $424 #
straight-curve $-1 40.53468428601947 0 9.9771273767691984 0 1 0 I I #
face $-1 $425 $426 $40 $-1 $427 reversed single #
loop $-1 $-1 $428 $170 #
plane-surface $-1 -40.53468428601947 0 0 1 0 0 0 0 -1 forward_v I I I I #
coedge $-1 $290 $429 $284 $430 forward $171 $-1 #
coedge $-1 $176 $173 $431 $432 reversed $109 $-1 #
coedge $-1 $173 $176 $282 $430 reversed $109 $-1 #
coedge $-1 $433 $434 $173 $286 forward $435 $-1 #
edge $-1 $436 -9.9771273767691984 $437 9.9771273767691984 $285 $438 forward 7 unknown #
coedge $-1 $175 $174 $428 $439 reversed $69 $-1 #
coedge $-1 $431 $440 $174 $289 forward $426 $-1 #
edge $-1 $441 -21.017342143009735 $293 -18.017342143009735 $288 $442 forward 7 unknown #
coedge $-1 $443 $282 $175 $291 forward $171 $-1 #
edge $-1 $292 18.017342143009735 $444 21.017342143009735 $290 $445 forward 7 unknown #
vertex $-1 $291 $446 #
vertex $-1 $289 $447 #
straight-curve $-1 -37.53468428601947 -14.698341143405461 0 0 0 -1 I I #
face $-1 $-1 $307 $41 $-1 $448 reversed single #
loop $-1 $-1 $449 $178 #
plane-surface $-1 -39.03468428601947 -14.698341143405461 0 0 -1 0 0 0 -1 forward_v I I I I #
coedge $-1 $450 $451 $452 $453 forward $179 $-1 #
coedge $-1 $454 $181 $183 $305 forward $113 $-1 #
coedge $-1 $181 $454 $449 $455 reversed $113 $-1 #
coedge $-1 $456 $184 $181 $302 forward $307 $-1 #
edge $-1 $309 2.7813972756517327 $457 8.8717616703863964 $301 $458 forward 7 unknown #
coedge $-1 $451 $450 $182 $304 forward $179 $-1 #
edge $-1 $459 -16.418488742968215 $308 -8.3950083214468165 $303 $460 forward 7 unknown #
edge $-1 $309 0 $459 11.346914961203732 $183 $461 forward 7 unknown #
coedge $-1 $184 $456 $451 $462 reversed $307 $-1 #
loop $-1 $-1 $301 $295 #
vertex $-1 $462 $463 #
vertex $-1 $185 $464 #
straight-curve $-1 -40.53468428601947 -8.6079767486707972 29.639173183874806 0 0 -1 I I #
coedge $-1 $311 $311 $-1 $465 reversed $188 $-1 #
edge $-1 $466 0 $466 6.2831853071796004 $189 $467 forward 7 unknown #
vertex $-1 $192 $468 #
ellipse-curve $-1 -36.522944075258771 -11.653158946038129 5.9653870729156484 -0.70710678939079041 0 0.70710677298230451 0.35355338649115226 0 0.35355339469539521 1 I I #
face $-1 $-1 $469 $43 $-1 $470 forward single #
loop $-1 $-1 $199 $193 #
plane-surface $-1 -40.53468428601947 0 0 1 0 0 0 0 -1 forward_v I I I I #
coedge $-1 $471 $472 $473 $474 reversed $194 $-1 #
coedge $-1 $475 $196 $198 $325 forward $122 $-1 #
coedge $-1 $196 $475 $471 $476 forward $122 $-1 #
coedge $-1 $473 $199 $196 $322 forward $316 $-1 #
edge $-1 $328 -3.1593941378316091 $477 2.9309702569030529 $321 $478 forward 7 unknown #
coedge $-1 $479 $480 $197 $324 forward $469 $-1 #
edge $-1 $481 -16.418488742968215 $327 -8.3950083214468165 $323 $482 forward 7 unknown #
edge $-1 $328 0 $481 11.346914961203732 $198 $483 forward 7 unknown #
coedge $-1 $199 $473 $479 $484 reversed $316 $-1 #
vertex $-1 $484 $485 #
vertex $-1 $200 $486 #
straight-curve $-1 -40.53468428601947 3.2736060782958871 29.639173183874806 0 0 -1 I I #
coedge $-1 $330 $330 $-1 $487 reversed $203 $-1 #
edge $-1 $488 0 $488 6.2831853071796004 $204 $489 forward 7 unknown #
vertex $-1 $207 $490 #
ellipse-curve $-1 -36.522944075258771 0.22842388092855614 5.9653870729156484 -0.70710678939079041 0 0.70710677298230451 0.35355338649115226 0 0.35355339469539521 1 I I #
face $-1 $-1 $346 $45 $-1 $491 reversed single #
loop $-1 $-1 $492 $208 #
plane-surface $-1 0 0 9.9771273767691984 0 0 1 1 0 0 forward_v I I I I #
coedge $-1 $493 $494 $495 $496 reversed $209 $-1 #
coedge $-1 $497 $211 $213 $344 forward $131 $-1 #
coedge $-1 $211 $497 $493 $498 forward $131 $-1 #
coedge $-1 $495 $214 $211 $341 forward $346 $-1 #
edge $-1 $348 -9.1001855513149525 $499 -3.0098211565802888 $340 $500 forward 7 unknown #
coedge $-1 $501 $502 $212 $343 forward $335 $-1 #
edge $-1 $503 -16.418488742968215 $347 -8.3950083214468165 $342 $504 forward 7 unknown #
edge $-1 $348 0 $503 11.346914961203732 $213 $505 forward 7 unknown #
coedge $-1 $214 $495 $501 $506 reversed $346 $-1 #
loop $-1 $-1 $495 $334 #
vertex $-1 $506 $507 #
vertex $-1 $215 $508 #
straight-curve $-1 -40.53468428601947 15.155188905262573 29.639173183874806 0 0 -1 I I #
coedge $-1 $350 $350 $-1 $509 reversed $218 $-1 #
edge $-1 $510 0 $510 6.2831853071796004 $219 $511 forward 7 unknown #
vertex $-1 $222 $512 #
ellipse-curve $-1 -36.522944075258771 12.110006707895241 5.9653870729156484 -0.70710678939079041 0 0.70710677298230451 0.35355338649115226 0 0.35355339469539521 1 I I #
face $-1 $-1 $367 $47 $-1 $513 reversed single #
loop $-1 $-1 $363 $223 #
plane-surface $-1 0 27.036771732229244 0 0 -1 0 0 0 -1 forward_v I I I I #
coedge $-1 $514 $515 $359 $516 forward $224 $-1 #
coedge $-1 $359 $226 $228 $365 reversed $140 $-1 #
coedge $-1 $226 $358 $357 $516 reversed $140 $-1 #
coedge $-1 $517 $229 $226 $361 forward $367 $-1 #
edge $-1 $369 -27.685526414812703 $518 -19.662045807105606 $360 $519 forward 7 unknown #
coedge $-1 $228 $227 $514 $520 reversed $90 $-1 #
coedge $-1 $521 $522 $227 $364 forward $355 $-1 #
edge $-1 $523 2.2935414912305534 $368 13.640456452434282 $363 $524 forward 7 unknown #
edge $-1 $525 -11.346914961203732 $369 0 $358 $526 forward 7 unknown #
coedge $-1 $229 $517 $521 $527 forward $367 $-1 #
loop $-1 $-1 $360 $354 #
vertex $-1 $364 $528 #
vertex $-1 $230 $529 #
straight-curve $-1 -40.53468428601947 11.995794767430963 1.9536467690621002 0 -1 0 I I #
coedge $-1 $371 $371 $-1 $530 reversed $233 $-1 #
edge $-1 $531 0 $531 6.2831853071796004 $234 $532 forward 7 unknown #
vertex $-1 $237 $533 #
ellipse-curve $-1 -36.522944075258771 23.991589534861927 5.9653870729156484 -0.70710678939079041 0 0.70710677298230451 0.35355338649115226 0 0.35355339469539521 1 I I #
face $-1 $-1 $534 $49 $-1 $535 reversed single #
loop $-1 $-1 $244 $238 #
plane-surface $-1 0 0 9.9771273767691984 0 0 1 1 0 0 forward_v I I I I #
coedge $-1 $536 $537 $538 $539 reversed $239 $-1 #
coedge $-1 $540 $241 $243 $385 forward $149 $-1 #
coedge $-1 $241 $540 $536 $541 forward $149 $-1 #
coedge $-1 $538 $244 $241 $382 forward $376 $-1 #
edge $-1 $388 -13.809539428215503 $542 -3.4023534344716584 $381 $543 forward 7 unknown #
coedge $-1 $544 $545 $242 $384 forward $534 $-1 #
edge $-1 $546 -53.827512936336248 $387 -50.774918848929367 $383 $547 forward 7 unknown #
edge $-1 $388 76.895472895907091 $546 81.069368572038911 $243 $548 forward 7 unknown #
coedge $-1 $244 $538 $544 $549 forward $376 $-1 #
vertex $-1 $245 $550 #
vertex $-1 $245 $551 #
straight-curve $-1 22.267946025088285 22.415485859559084 9.9771273767691966 -1 0 0 I I #
coedge $-1 $390 $390 $-1 $552 reversed $248 $-1 #
edge $-1 $553 0 $553 6.2831853071796004 $249 $554 forward 7 unknown #
vertex $-1 $252 $555 #
ellipse-curve $-1 39.111389301418541 14.981781578313484 8.4508303330657615 0.73135370988377701 0 0.68199835119979291 0.68199835119979291 0 -0.73135370988377701 1 I I #
coedge $-1 $394 $394 $-1 $556 reversed $255 $-1 #
edge $-1 $557 0 $557 6.2831853071796004 $256 $558 forward 7 unknown #
vertex $-1 $259 $559 #
ellipse-curve $-1 39.111389301418541 19.442004147060846 8.4508303330657615 0.73135370988377701 0 0.68199835119979291 0.68199835119979291 0 -0.73135370988377701 1 I I #
face $-1 $-1 $275 $39 $-1 $560 reversed single #
loop $-1 $-1 $414 $260 #
plane-surface $-1 0 27.036771732229244 0 0 -1 0 0 0 -1 forward_v I I I I #
coedge $-1 $561 $412 $415 $562 forward $261 $-1 #
coedge $-1 $418 $263 $264 $406 reversed $163 $-1 #
coedge $-1 $412 $561 $263 $404 reversed $261 $-1 #
edge $-1 $419 -9.9771273767691984 $563 9.9771273767691984 $403 $564 forward 7 unknown #
coedge $-1 $265 $264 $561 $565 forward $105 $-1 #
edge $-1 $410 -40.53468428601947 $563 40.53468428601947 $402 $566 forward 7 unknown #
coedge $-1 $415 $414 $265 $408 reversed $399 $-1 #
edge $-1 $567 -40.53468428601947 $409 40.53468428601947 $407 $568 forward 7 unknown #
vertex $-1 $267 $569 #
vertex $-1 $421 $570 #
straight-curve $-1 40.53468428601947 0 -9.9771273767691984 0 -1 0 I I #
coedge $-1 $401 $403 $268 $413 reversed $261 $-1 #
edge $-1 $416 -27.036771732229244 $419 27.036771732229244 $412 $571 forward 7 unknown #
coedge $-1 $407 $269 $274 $422 forward $399 $-1 #
coedge $-1 $269 $407 $401 $562 reversed $399 $-1 #
vertex $-1 $270 $572 #
straight-curve $-1 0 27.036771732229244 9.9771273767691984 -1 0 0 I I #
coedge $-1 $271 $402 $273 $421 reversed $163 $-1 #
vertex $-1 $413 $573 #
straight-curve $-1 0 -27.036771732229244 9.9771273767691984 1 0 0 I I #
edge $-1 $276 -9.9771273767691984 $410 9.9771273767691984 $273 $574 forward 7 unknown #
edge $-1 $277 -9.9771273767691984 $409 9.9771273767691984 $274 $575 forward 7 unknown #
point $-1 40.53468428601947 -27.036771732229244 9.9771273767691984 #
point $-1 40.53468428601947 27.036771732229244 9.9771273767691984 #
face $-1 $-1 $435 $40 $-1 $576 reversed single #
loop $-1 $-1 $431 $279 #
plane-surface $-1 0 0 -9.9771273767691984 0 0 1 1 0 0 forward_v I I I I #
coedge $-1 $577 $578 $287 $439 forward $280 $-1 #
coedge $-1 $282 $443 $433 $579 forward $171 $-1 #
edge $-1 $437 -16.60299351332057 $292 -4.2645629244967846 $282 $580 forward 7 unknown #
coedge $-1 $581 $288 $283 $432 forward $426 $-1 #
edge $-1 $293 4.2645629244967846 $436 16.60299351332057 $431 $582 forward 7 unknown #
coedge $-1 $583 $285 $429 $579 reversed $435 $-1 #
coedge $-1 $285 $583 $581 $584 reversed $435 $-1 #
loop $-1 $-1 $285 $425 #
vertex $-1 $584 $585 #
vertex $-1 $286 $586 #
straight-curve $-1 -37.53468428601947 -27.036771732229244 0 0 0 1 I I #
edge $-1 $444 -9.9771273767691984 $441 9.9771273767691984 $428 $587 forward 7 unknown #
coedge $-1 $288 $581 $577 $588 forward $426 $-1 #
vertex $-1 $289 $589 #
straight-curve $-1 -19.517342143009735 -14.698341143405461 -9.9771273767691984 1 0 0 I I #
coedge $-1 $429 $290 $578 $590 forward $171 $-1 #
vertex $-1 $590 $591 #
straight-curve $-1 -19.517342143009735 -14.698341143405461 9.9771273767691984 -1 0 0 I I #
point $-1 -37.53468428601947 -14.698341143405461 9.9771273767691984 #
point $-1 -37.53468428601947 -14.698341143405461 -9.9771273767691984 #
plane-surface $-1 -40.53468428601947 0 0 1 0 0 0 0 -1 forward_v I I I I #
coedge $-1 $452 $592 $300 $455 forward $296 $-1 #
coedge $-1 $303 $298 $454 $593 forward $179 $-1 #
coedge $-1 $298 $303 $306 $462 forward $179 $-1 #
coedge $-1 $592 $449 $298 $453 reversed $296 $-1 #
edge $-1 $594 -21.017342143009735 $595 -12.993861721488337 $298 $596 forward 7 unknown #
coedge $-1 $300 $299 $450 $593 reversed $113 $-1 #
edge $-1 $457 0.16038836750086952 $595 11.507303328704598 $449 $597 forward 7 unknown #
coedge $-1 $306 $301 $592 $598 forward $307 $-1 #
vertex $-1 $598 $599 #
straight-curve $-1 -40.53468428601947 -5.8265794730190645 1.9536467690621002 0 -1 0 I I #
vertex $-1 $304 $600 #
straight-curve $-1 -48.929692607466286 -8.6079767486707972 9.9771273767691966 -1 0 0 I I #
straight-curve $-1 -40.53468428601947 -8.6079767486707972 1.9536467690621038 0.70710677298230451 0 0.70710678939079041 I I #
edge $-1 $308 8.6079767486707972 $594 14.698341143405461 $306 $601 forward 7 unknown #
point $-1 -40.53468428601947 -8.6079767486707972 9.9771273767691984 #
point $-1 -40.53468428601947 -8.6079767486707972 1.9536467690621038 #
edge $-1 $602 1 $602 0 $311 $-1 forward 7 unknown #
vertex $-1 $312 $603 #
ellipse-curve $-1 -35.246269640194406 -11.653158946038129 4.6887126674766462 -0.70710678939079041 0 0.70710677298230451 0.35355338649115226 0 0.35355339469539521 1 I I #
point $-1 -36.169390688767614 -11.653158946038129 6.3189404676110401 #
loop $-1 $-1 $323 $315 #
plane-surface $-1 0 0 9.9771273767691984 0 0 1 1 0 0 forward_v I I I I #
coedge $-1 $472 $318 $320 $476 reversed $194 $-1 #
coedge $-1 $318 $471 $604 $605 reversed $194 $-1 #
coedge $-1 $326 $321 $318 $474 forward $316 $-1 #
edge $-1 $477 -27.685526414812703 $606 -19.662045807105606 $473 $607 forward 7 unknown #
coedge $-1 $320 $319 $480 $608 reversed $122 $-1 #
edge $-1 $609 -11.346914961203732 $477 0 $471 $610 forward 7 unknown #
vertex $-1 $322 $611 #
straight-curve $-1 -40.53468428601947 0.11421194046427807 1.9536467690621002 0 -1 0 I I #
coedge $-1 $604 $323 $326 $484 forward $469 $-1 #
coedge $-1 $323 $604 $475 $608 forward $469 $-1 #
vertex $-1 $324 $612 #
straight-curve $-1 -48.929692607466286 3.2736060782958871 9.9771273767691966 -1 0 0 I I #
straight-curve $-1 -40.53468428601947 3.2736060782958871 1.9536467690621038 0.70710677298230451 0 0.70710678939079041 I I #
edge $-1 $327 -3.2736060782958871 $606 2.8167583164387748 $326 $613 forward 7 unknown #
point $-1 -40.53468428601947 3.2736060782958871 9.9771273767691984 #
point $-1 -40.53468428601947 3.2736060782958871 1.9536467690621038 #
edge $-1 $614 1 $614 0 $330 $-1 forward 7 unknown #
vertex $-1 $331 $615 #
ellipse-curve $-1 -35.246269640194406 0.22842388092855614 4.6887126674766462 -0.70710678939079041 0 0.70710677298230451 0.35355338649115226 0 0.35355339469539521 1 I I #
point $-1 -36.169390688767614 0.22842388092855614 6.3189404676110401 #
plane-surface $-1 -40.53468428601947 0 0 1 0 0 0 0 -1 forward_v I I I I #
coedge $-1 $502 $501 $494 $616 forward $335 $-1 #
coedge $-1 $494 $337 $339 $498 reversed $209 $-1 #
coedge $-1 $337 $493 $492 $616 reversed $209 $-1 #
coedge $-1 $345 $340 $337 $496 forward $346 $-1 #
edge $-1 $499 -27.685526414812703 $617 -19.662045807105606 $495 $618 forward 7 unknown #
coedge $-1 $339 $338 $502 $619 reversed $131 $-1 #
edge $-1 $620 -11.346914961203732 $499 0 $493 $621 forward 7 unknown #
vertex $-1 $341 $622 #
straight-curve $-1 -40.53468428601947 6.0550033539476207 1.9536467690621002 0 -1 0 I I #
coedge $-1 $492 $342 $345 $506 forward $335 $-1 #
coedge $-1 $342 $492 $497 $619 forward $335 $-1 #
vertex $-1 $343 $623 #
straight-curve $-1 -48.929692607466286 15.155188905262573 9.9771273767691966 -1 0 0 I I #
straight-curve $-1 -40.53468428601947 15.155188905262573 1.9536467690621038 0.70710677298230451 0 0.70710678939079041 I I #
edge $-1 $347 -15.155188905262573 $617 -9.0648245105279095 $345 $624 forward 7 unknown #
point $-1 -40.53468428601947 15.155188905262573 9.9771273767691984 #
point $-1 -40.53468428601947 15.155188905262573 1.9536467690621038 #
edge $-1 $625 1 $625 0 $350 $-1 forward 7 unknown #
vertex $-1 $351 $626 #
ellipse-curve $-1 -35.246269640194406 12.110006707895241 4.6887126674766462 -0.70710678939079041 0 0.70710677298230451 0.35355338649115226 0 0.35355339469539521 1 I I #
point $-1 -36.169390688767614 12.110006707895241 6.3189404676110401 #
plane-surface $-1 -40.53468428601947 0 0 1 0 0 0 0 -1 forward_v I I I I #
coedge $-1 $627 $357 $362 $520 forward $224 $-1 #
coedge $-1 $357 $627 $517 $628 forward $224 $-1 #
edge $-1 $518 8.3950083214468165 $525 16.418488742968215 $357 $629 forward 7 unknown #
coedge $-1 $366 $360 $515 $628 reversed $367 $-1 #
vertex $-1 $361 $630 #
straight-curve $-1 -40.53468428601947 20.946407337494595 29.639173183874806 0 0 1 I I #
edge $-1 $525 8.9506125700636314 $523 15.040976964798295 $514 $631 forward 7 unknown #
coedge $-1 $522 $363 $366 $527 reversed $355 $-1 #
coedge $-1 $363 $521 $627 $632 reversed $355 $-1 #
vertex $-1 $632 $633 #
straight-curve $-1 -30.88942514193301 27.036771732229244 11.598906136967798 -0.70710677298230462 0 -0.70710678939079052 I I #
vertex $-1 $520 $634 #
straight-curve $-1 -40.53468428601947 20.946407337494595 1.9536467690621038 -0.70710677298230451 0 -0.70710678939079041 I I #
edge $-1 $635 -9.9771273767691984 $368 -1.9536467690621038 $521 $636 forward 7 unknown #
point $-1 -40.53468428601947 27.036771732229258 1.9536467690621038 #
point $-1 -40.53468428601947 20.946407337494595 1.9536467690621038 #
edge $-1 $637 1 $637 0 $371 $-1 forward 7 unknown #
vertex $-1 $372 $638 #
ellipse-curve $-1 -35.246269640194406 23.991589534861927 4.6887126674766462 -0.70710678939079041 0 0.70710677298230451 0.35355338649115226 0 0.35355339469539521 1 I I #
point $-1 -36.169390688767614 23.991589534861927 6.3189404676110401 #
loop $-1 $-1 $383 $375 #
plane-surface $-1 40.53468428601947 0 0 -1 0 0 0 0 1 forward_v I I I I #
coedge $-1 $537 $378 $380 $541 reversed $239 $-1 #
coedge $-1 $378 $536 $639 $640 reversed $239 $-1 #
coedge $-1 $386 $381 $378 $539 forward $376 $-1 #
edge $-1 $542 15.420148291729326 $641 18.266738260931184 $538 $642 forward 7 unknown #
coedge $-1 $380 $379 $545 $643 reversed $149 $-1 #
edge $-1 $644 -81.069368572038911 $542 -76.895472895907091 $536 $645 forward 7 unknown #
vertex $-1 $382 $646 #
straight-curve $-1 37.688094316817619 8.6059464313435807 9.9771273767691966 0 -1 0 I I #
coedge $-1 $639 $383 $386 $549 reversed $534 $-1 #
coedge $-1 $383 $639 $540 $643 forward $534 $-1 #
vertex $-1 $384 $647 #
straight-curve $-1 40.53468428601947 22.415485859559084 60.752046225698564 0 0 1 I I #
straight-curve $-1 -14.754491412919386 22.415485859559084 66.214916752458265 0.68199835119979291 0 -0.73135370988377701 I I #
edge $-1 $641 12.008299865815239 $387 22.415485859559084 $544 $648 forward 7 unknown #
point $-1 40.53468428601947 22.415485859559084 9.9771273767691984 #
point $-1 37.688094316817612 22.415485859559084 9.9771273767691895 #
edge $-1 $649 1 $649 0 $390 $-1 forward 7 unknown #
vertex $-1 $391 $650 #
ellipse-curve $-1 38.184380004485554 14.981781578313484 7.5863801996882403 0.73135370988377701 0 0.68199835119979291 0.68199835119979291 0 -0.73135370988377701 1 I I #
point $-1 39.793387652618328 14.981781578313484 7.7194766231819774 #
edge $-1 $651 1 $651 0 $394 $-1 forward 7 unknown #
vertex $-1 $395 $652 #
ellipse-curve $-1 38.184380004485554 19.442004147060846 7.5863801996882403 0.73135370988377701 0 0.68199835119979291 0.68199835119979291 0 -0.73135370988377701 1 I I #
point $-1 39.793387652618328 19.442004147060846 7.7194766231819774 #
plane-surface $-1 40.53468428601947 0 0 -1 0 0 0 0 1 forward_v I I I I #
coedge $-1 $403 $401 $405 $565 reversed $261 $-1 #
edge $-1 $416 -9.9771273767691984 $567 9.9771273767691984 $415 $653 forward 7 unknown #
vertex $-1 $565 $654 #
straight-curve $-1 -40.53468428601947 -27.036771732229244 0 0 0 -1 I I #
edge $-1 $563 -27.036771732229244 $567 27.036771732229244 $561 $655 forward 7 unknown #
straight-curve $-1 0 -27.036771732229244 -9.9771273767691984 -1 0 0 I I #
vertex $-1 $408 $656 #
straight-curve $-1 0 27.036771732229244 -9.9771273767691984 1 0 0 I I #
point $-1 40.53468428601947 27.036771732229244 -9.9771273767691984 #
point $-1 40.53468428601947 -27.036771732229244 -9.9771273767691984 #
straight-curve $-1 -40.53468428601947 0 9.9771273767691984 0 -1 0 I I #
point $-1 -40.53468428601947 27.036771732229244 9.9771273767691984 #
point $-1 -40.53468428601947 -27.036771732229244 9.9771273767691984 #
straight-curve $-1 40.53468428601947 -27.036771732229244 0 0 0 -1 I I #
straight-curve $-1 40.53468428601947 27.036771732229244 0 0 0 -1 I I #
plane-surface $-1 0 -27.036771732229244 0 0 1 0 0 0 1 forward_v I I I I #
coedge $-1 $657 $428 $440 $588 reversed $280 $-1 #
coedge $-1 $428 $657 $443 $590 reversed $280 $-1 #
edge $-1 $658 -40.53468428601947 $437 -37.53468428601947 $433 $659 forward 7 unknown #
straight-curve $-1 -37.53468428601947 -10.433778218908676 9.9771273767691984 0 1 0 I I #
coedge $-1 $440 $431 $434 $584 forward $426 $-1 #
straight-curve $-1 -37.53468428601947 -10.433778218908676 -9.9771273767691984 0 -1 0 I I #
coedge $-1 $434 $433 $657 $660 forward $435 $-1 #
edge $-1 $436 37.53468428601947 $661 40.53468428601947 $434 $662 forward 7 unknown #
point $-1 -37.53468428601947 -27.036771732229244 -9.9771273767691984 #
point $-1 -37.53468428601947 -27.036771732229244 9.9771273767691984 #
straight-curve $-1 -40.53468428601947 -14.698341143405461 0 0 0 -1 I I #
edge $-1 $661 -27.036771732229244 $441 -14.698341143405461 $577 $663 forward 7 unknown #
point $-1 -40.53468428601947 -14.698341143405461 -9.9771273767691984 #
edge $-1 $444 14.698341143405461 $658 27.036771732229244 $578 $664 forward 7 unknown #
point $-1 -40.53468428601947 -14.698341143405461 9.9771273767691984 #
coedge $-1 $449 $452 $456 $598 reversed $296 $-1 #
edge $-1 $595 -8.8717616703863964 $459 -2.7813972756517327 $450 $665 forward 7 unknown #
vertex $-1 $598 $666 #
vertex $-1 $453 $667 #
straight-curve $-1 -19.517342143009735 -14.698341143405461 9.9771273767691984 1 0 0 I I #
straight-curve $-1 -40.64809598698691 -14.698341143405461 1.840235065462934 0.70710677298230462 0 0.70710678939079052 I I #
edge $-1 $457 1.953646769062104 $594 9.9771273767691984 $456 $668 forward 7 unknown #
point $-1 -40.53468428601947 -14.698341143405461 1.953646769062104 #
point $-1 -32.511203864498071 -8.6079767486707972 9.9771273767691984 #
straight-curve $-1 -40.53468428601947 0 9.9771273767691984 0 -1 0 I I #
vertex $-1 $465 $669 #
point $-1 -34.892716253703256 -11.653158946038129 5.0422660621720414 #
coedge $-1 $480 $479 $472 $605 forward $469 $-1 #
edge $-1 $606 8.3950083214468165 $609 16.418488742968215 $604 $670 forward 7 unknown #
vertex $-1 $605 $671 #
straight-curve $-1 -40.53468428601947 -2.8167583164387748 29.639173183874806 0 0 1 I I #
edge $-1 $609 -2.9309702569030529 $481 3.1593941378316091 $480 $672 forward 7 unknown #
vertex $-1 $608 $673 #
straight-curve $-1 -40.53468428601947 -2.8167583164387748 1.9536467690621038 -0.70710677298230451 0 -0.70710678939079041 I I #
point $-1 -40.53468428601947 -2.8167583164387748 1.9536467690621038 #
point $-1 -32.511203864498071 3.2736060782958871 9.9771273767691984 #
straight-curve $-1 -40.53468428601947 0 9.9771273767691984 0 -1 0 I I #
vertex $-1 $487 $674 #
point $-1 -34.892716253703256 0.22842388092855614 5.0422660621720414 #
edge $-1 $617 8.3950083214468165 $620 16.418488742968215 $492 $675 forward 7 unknown #
vertex $-1 $496 $676 #
straight-curve $-1 -40.53468428601947 9.0648245105279095 29.639173183874806 0 0 1 I I #
edge $-1 $620 3.0098211565802888 $503 9.1001855513149525 $502 $677 forward 7 unknown #
vertex $-1 $619 $678 #
straight-curve $-1 -40.53468428601947 9.0648245105279095 1.9536467690621038 -0.70710677298230451 0 -0.70710678939079041 I I #
point $-1 -40.53468428601947 9.0648245105279095 1.9536467690621038 #
point $-1 -32.511203864498071 15.155188905262573 9.9771273767691984 #
straight-curve $-1 -40.53468428601947 0 9.9771273767691984 0 -1 0 I I #
vertex $-1 $509 $679 #
point $-1 -34.892716253703256 12.110006707895241 5.0422660621720414 #
coedge $-1 $515 $514 $522 $632 forward $224 $-1 #
edge $-1 $635 -27.036771732229244 $518 -20.946407337494595 $517 $680 forward 7 unknown #
straight-curve $-1 -48.929692607466286 20.946407337494595 9.9771273767691966 1 0 0 I I #
point $-1 -40.53468428601947 20.946407337494595 9.9771273767691984 #
straight-curve $-1 -32.511203864498071 11.995794767430963 9.9771273767691966 0 1 0 I I #
edge $-1 $523 32.511203864498071 $635 40.53468428601947 $522 $681 forward 7 unknown #
point $-1 -32.511203864498071 27.036771732229258 9.9771273767691984 #
point $-1 -32.511203864498071 20.946407337494595 9.9771273767691984 #
vertex $-1 $632 $682 #
straight-curve $-1 -40.53468428601947 27.036771732229244 0 0 0 -1 I I #
vertex $-1 $530 $683 #
point $-1 -34.892716253703256 23.991589534861927 5.0422660621720414 #
coedge $-1 $545 $544 $537 $640 forward $534 $-1 #
edge $-1 $641 50.774918848929367 $644 53.827512936336248 $639 $684 forward 7 unknown #
vertex $-1 $549 $685 #
straight-curve $-1 22.267946025088285 12.008299865815239 9.9771273767691966 1 0 0 I I #
edge $-1 $644 3.4023534344716584 $546 13.809539428215503 $545 $686 forward 7 unknown #
vertex $-1 $643 $687 #
straight-curve $-1 -14.754491412919386 12.008299865815239 66.214916752458265 -0.68199835119979291 0 0.73135370988377701 I I #
point $-1 37.688094316817612 12.008299865815239 9.9771273767691895 #
point $-1 40.53468428601947 22.415485859559084 6.9245332893623157 #
straight-curve $-1 40.53468428601947 0 9.9771273767691984 0 1 0 I I #
vertex $-1 $552 $688 #
point $-1 38.866378355685349 14.981781578313484 6.8550264898044633 #
vertex $-1 $556 $689 #
point $-1 38.866378355685349 19.442004147060846 6.8550264898044633 #
straight-curve $-1 -40.53468428601947 27.036771732229244 0 0 0 -1 I I #
point $-1 -40.53468428601947 -27.036771732229244 -9.9771273767691984 #
straight-curve $-1 -40.53468428601947 0 -9.9771273767691984 0 1 0 I I #
point $-1 -40.53468428601947 27.036771732229244 -9.9771273767691984 #
coedge $-1 $578 $577 $583 $660 reversed $280 $-1 #
vertex $-1 $590 $690 #
straight-curve $-1 0 -27.036771732229244 9.9771273767691984 1 0 0 I I #
edge $-1 $658 -9.9771273767691984 $661 9.9771273767691984 $657 $691 forward 7 unknown #
vertex $-1 $588 $692 #
straight-curve $-1 0 -27.036771732229244 -9.9771273767691984 -1 0 0 I I #
straight-curve $-1 -40.53468428601947 0 -9.9771273767691984 0 1 0 I I #
straight-curve $-1 -40.53468428601947 0 9.9771273767691984 0 -1 0 I I #
straight-curve $-1 -32.511203864498071 -5.8265794730190645 9.9771273767691966 0 1 0 I I #
point $-1 -40.53468428601947 -14.698341143405461 9.9771273767691984 #
point $-1 -32.511203864498071 -14.698341143405461 9.9771273767691984 #
straight-curve $-1 -40.53468428601947 -14.698341143405461 0 0 0 1 I I #
point $-1 -34.89271624549901 -11.653158946038129 4.3351592809854944 #
straight-curve $-1 -48.929692607466286 -2.8167583164387748 9.9771273767691966 1 0 0 I I #
point $-1 -40.53468428601947 -2.8167583164387748 9.9771273767691984 #
straight-curve $-1 -32.511203864498071 0.11421194046427807 9.9771273767691966 0 1 0 I I #
point $-1 -32.511203864498071 -2.8167583164387748 9.9771273767691984 #
point $-1 -34.89271624549901 0.22842388092855614 4.3351592809854944 #
straight-curve $-1 -48.929692607466286 9.0648245105279095 9.9771273767691966 1 0 0 I I #
point $-1 -40.53468428601947 9.0648245105279095 9.9771273767691984 #
straight-curve $-1 -32.511203864498071 6.0550033539476207 9.9771273767691966 0 1 0 I I #
point $-1 -32.511203864498071 9.0648245105279095 9.9771273767691984 #
point $-1 -34.89271624549901 12.110006707895241 4.3351592809854944 #
straight-curve $-1 -40.53468428601947 0 9.9771273767691984 0 -1 0 I I #
straight-curve $-1 0 27.036771732229244 9.9771273767691984 -1 0 0 I I #
point $-1 -40.53468428601947 27.036771732229244 9.9771273767691984 #
point $-1 -34.89271624549901 23.991589534861927 4.3351592809854944 #
straight-curve $-1 40.53468428601947 12.008299865815239 60.752046225698564 0 0 -1 I I #
point $-1 40.53468428601947 12.008299865815239 9.9771273767691984 #
straight-curve $-1 40.53468428601947 8.6059464313435807 6.9245332893623264 0 1 0 I I #
point $-1 40.53468428601947 12.008299865815239 6.9245332893623157 #
point $-1 37.453026294601777 14.981781578313484 6.9043818484884474 #
point $-1 37.453026294601777 19.442004147060846 6.9043818484884474 #
point $-1 -40.53468428601947 -27.036771732229244 9.9771273767691984 #
straight-curve $-1 -40.53468428601947 -27.036771732229244 0 0 0 -1 I I #
point $-1 -40.53468428601947 -27.036771732229244 -9.9771273767691984 #
End-of-ACIS-data 