500 0 8 0           
7 Unknown 11 ACIS 5.0 NT 24 Thu Mar 25 15:41:55 1999 
-1 9.9999999999999995e-007 1e-010 
body $-1 $8 $-1 $9 #
body $-1 $10 $-1 $11 #
body $-1 $12 $-1 $13 #
body $-1 $14 $-1 $15 #
body $-1 $16 $-1 $17 #
body $-1 $18 $-1 $19 #
body $-1 $20 $-1 $21 #
body $-1 $22 $-1 $23 #
lump $-1 $-1 $24 $0 #
transform $-1 1 0 0 0 1 0 0 0 1 60.774559770500808 27.732392197775358 13.551099519547741 1 rotate no_reflect no_shear #
lump $-1 $-1 $25 $1 #
transform $-1 1 0 0 0 1 0 0 0 1 60.774559770500808 27.732392197775358 13.551099519547741 1 rotate no_reflect no_shear #
lump $-1 $-1 $26 $2 #
transform $-1 1 0 0 0 1 0 0 0 1 60.774559770500808 27.732392197775358 13.551099519547741 1 rotate no_reflect no_shear #
lump $-1 $-1 $27 $3 #
transform $-1 1 0 0 0 1 0 0 0 1 60.774559770500808 27.732392197775358 13.551099519547741 1 rotate no_reflect no_shear #
lump $-1 $-1 $28 $4 #
transform $-1 1 0 0 0 1 0 0 0 1 60.774559770500808 27.732392197775358 13.551099519547741 1 rotate no_reflect no_shear #
lump $-1 $-1 $29 $5 #
transform $-1 1 0 0 0 1 0 0 0 1 60.774559770500808 27.732392197775358 13.551099519547741 1 rotate no_reflect no_shear #
lump $-1 $-1 $30 $6 #
transform $-1 1 0 0 0 1 0 0 0 1 60.774559770500808 27.732392197775358 13.551099519547741 1 rotate no_reflect no_shear #
lump $-1 $-1 $31 $7 #
transform $-1 1 0 0 0 1 0 0 0 1 60.774559770500808 27.732392197775358 13.551099519547741 1 rotate no_reflect no_shear #
shell $-1 $-1 $-1 $32 $-1 $8 #
shell $-1 $-1 $-1 $33 $-1 $10 #
shell $-1 $-1 $-1 $34 $-1 $12 #
shell $-1 $-1 $-1 $35 $-1 $14 #
shell $-1 $-1 $-1 $36 $-1 $16 #
shell $-1 $-1 $-1 $37 $-1 $18 #
shell $-1 $-1 $-1 $38 $-1 $20 #
shell $-1 $-1 $-1 $39 $-1 $22 #
face $-1 $40 $41 $24 $-1 $42 forward single #
face $-1 $43 $44 $25 $-1 $45 forward single #
face $-1 $46 $47 $26 $-1 $48 reversed single #
face $-1 $49 $50 $27 $-1 $51 forward single #
face $-1 $52 $53 $28 $-1 $54 reversed single #
face $-1 $55 $56 $29 $-1 $57 forward single #
face $-1 $58 $59 $30 $-1 $60 reversed single #
face $-1 $61 $62 $31 $-1 $63 forward single #
face $-1 $64 $65 $24 $-1 $66 reversed single #
loop $-1 $-1 $67 $32 #
plane-surface $-1 0 0 13.551099519547741 0 0 1 1 0 0 forward_v I I I I #
face $-1 $68 $69 $25 $-1 $70 reversed single #
loop $-1 $-1 $71 $33 #
plane-surface $-1 -60.774559770500808 0 0 1 0 0 0 0 -1 forward_v I I I I #
face $-1 $72 $73 $26 $-1 $74 reversed single #
loop $-1 $-1 $75 $34 #
plane-surface $-1 5.0768991875759824 42.792218269914613 134.94918446953653 1 0 0 0 -0.51503808176128008 -0.85716729658548041 forward_v I I I I #
face $-1 $76 $77 $27 $-1 $78 forward single #
loop $-1 $79 $80 $35 #
cone-surface $-1 21.857982370697933 16.854721339937221 5.4969724103406516 0 -0.51503808176128008 -0.85716729658548041 2.5 0 0 1 I I 0 1 2.5 forward I I I I #
face $-1 $81 $82 $28 $-1 $83 reversed single #
loop $-1 $-1 $84 $36 #
plane-surface $-1 -2.1175395820382832 -100.88247931452293 104.75355574788287 -1 0 0 0 -0.6018150307709319 0.79863550430605224 forward_v I I I I #
face $-1 $85 $86 $29 $-1 $87 forward single #
loop $-1 $88 $89 $37 #
cone-surface $-1 -13.431211585235481 -22.28485559791249 8.5560252361829541 0 0.6018150307709319 -0.79863550430605224 2 0 0 1 I I 0 1 2 forward I I I I #
face $-1 $90 $91 $30 $-1 $92 reversed single #
loop $-1 $-1 $93 $38 #
plane-surface $-1 54.104227916029977 -100.88247931452293 104.75355574788287 -1 0 0 0 -0.6018150307709319 0.79863550430605224 forward_v I I I I #
face $-1 $94 $95 $31 $-1 $96 forward single #
loop $-1 $97 $98 $39 #
cone-surface $-1 42.790555912832779 -22.28485559791249 8.5560252361829541 0 0.6018150307709319 -0.79863550430605224 2 0 0 1 I I 0 1 2 forward I I I I #
face $-1 $99 $100 $24 $-1 $101 reversed single #
loop $-1 $-1 $102 $40 #
plane-surface $-1 0 0 -13.551099519547741 0 0 1 1 0 0 forward_v I I I I #
coedge $-1 $103 $104 $105 $106 forward $41 $-1 #
face $-1 $107 $108 $25 $-1 $109 forward single #
loop $-1 $-1 $110 $43 #
plane-surface $-1 0 27.732392197775358 0 0 -1 0 0 0 -1 forward_v I I I I #
coedge $-1 $111 $112 $113 $114 forward $44 $-1 #
face $-1 $115 $116 $26 $-1 $117 reversed single #
loop $-1 $-1 $118 $46 #
plane-surface $-1 21.857982370697933 -19.81020709825539 30.761254270230779 0 0.51503808176128008 0.85716729658548041 1 0 0 forward_v I I I I #
coedge $-1 $119 $120 $121 $122 reversed $47 $-1 #
face $-1 $-1 $123 $27 $-1 $124 forward single #
loop $-1 $125 $126 $49 #
cone-surface $-1 21.857982370697933 14.783299067379151 2.0495468852539016 0 -0.51503808176128008 -0.85716729658548041 1.25 0 0 1 I I -0.70710678118654746 0.70710678118654746 1.25 forward I I I I #
loop $-1 $-1 $127 $35 #
coedge $-1 $80 $80 $128 $129 reversed $50 $-1 #
face $-1 $130 $131 $28 $-1 $132 reversed single #
loop $-1 $-1 $133 $52 #
plane-surface $-1 -13.431211585235481 -27.732392197775354 7.6801133652984106 0 -0.6018150307709319 0.79863550430605224 1 0 0 forward_v I I I I #
coedge $-1 $134 $135 $136 $137 reversed $53 $-1 #
face $-1 $-1 $138 $29 $-1 $139 forward single #
loop $-1 $140 $141 $55 #
cone-surface $-1 -13.431211585235481 -20.131034776858492 5.6978085256367841 0 0.6018150307709319 -0.79863550430605224 1 0 0 1 I I -0.70710678118654746 0.70710678118654746 1 forward I I I I #
loop $-1 $-1 $142 $37 #
coedge $-1 $89 $89 $143 $144 reversed $56 $-1 #
face $-1 $145 $146 $30 $-1 $147 reversed single #
loop $-1 $-1 $148 $58 #
plane-surface $-1 42.790555912832779 -27.732392197775354 7.6801133652984106 0 -0.6018150307709319 0.79863550430605224 1 0 0 forward_v I I I I #
coedge $-1 $149 $150 $151 $152 reversed $59 $-1 #
face $-1 $-1 $153 $31 $-1 $154 forward single #
loop $-1 $155 $156 $61 #
cone-surface $-1 42.790555912832779 -20.131034776858492 5.6978085256367841 0 0.6018150307709319 -0.79863550430605224 1 0 0 1 I I -0.70710678118654746 0.70710678118654746 1 forward I I I I #
loop $-1 $-1 $157 $39 #
coedge $-1 $98 $98 $158 $159 reversed $62 $-1 #
face $-1 $160 $161 $24 $-1 $162 reversed single #
loop $-1 $-1 $163 $64 #
plane-surface $-1 0 -27.732392197775358 0 0 1 0 0 0 1 forward_v I I I I #
coedge $-1 $164 $165 $166 $167 forward $65 $-1 #
coedge $-1 $168 $67 $169 $170 forward $41 $-1 #
coedge $-1 $67 $168 $171 $172 forward $41 $-1 #
coedge $-1 $173 $174 $67 $106 reversed $175 $-1 #
edge $-1 $176 -27.732392197775358 $177 27.732392197775358 $105 $178 forward 7 unknown #
face $-1 $179 $180 $25 $-1 $181 reversed single #
loop $-1 $-1 $113 $68 #
plane-surface $-1 -65.327352042933356 0 -8.7067478989514591 0 0 1 1 0 0 forward_v I I I I #
coedge $-1 $182 $183 $112 $184 forward $69 $-1 #
coedge $-1 $185 $71 $186 $187 reversed $44 $-1 #
coedge $-1 $71 $185 $110 $184 reversed $44 $-1 #
coedge $-1 $188 $189 $71 $114 reversed $108 $-1 #
edge $-1 $190 -27.732392197775358 $191 27.732392197775358 $113 $192 forward 7 unknown #
face $-1 $193 $194 $26 $-1 $195 forward single #
loop $-1 $-1 $196 $72 #
plane-surface $-1 38.639065553819883 42.792218269914613 134.94918446953653 -1 0 0 0 0.51503808176128008 0.85716729658548041 forward_v I I I I #
coedge $-1 $197 $198 $199 $200 reversed $73 $-1 #
coedge $-1 $120 $75 $201 $202 reversed $47 $-1 #
coedge $-1 $75 $119 $197 $203 reversed $47 $-1 #
coedge $-1 $199 $204 $75 $122 forward $194 $-1 #
edge $-1 $205 -6.3362830628180511 $206 12.563809312145292 $121 $207 forward 7 unknown #
loop $-1 $-1 $128 $76 #
plane-surface $-1 21.857982370697933 -19.81020709825539 30.761254270230779 0 0.51503808176128008 0.85716729658548041 1 0 0 forward_v I I I I #
loop $-1 $-1 $208 $49 #
coedge $-1 $126 $126 $127 $209 reversed $77 $-1 #
coedge $-1 $127 $127 $126 $209 forward $79 $-1 #
coedge $-1 $128 $128 $80 $129 forward $123 $-1 #
edge $-1 $210 -5.4893485145294112e-016 $210 6.2831853071795996 $128 $211 forward 7 unknown #
face $-1 $212 $213 $28 $-1 $214 reversed single #
loop $-1 $-1 $215 $81 #
plane-surface $-1 -24.744883588432678 -100.88247931452293 104.75355574788287 1 0 0 0 0.6018150307709319 -0.79863550430605224 forward_v I I I I #
coedge $-1 $216 $217 $218 $219 reversed $82 $-1 #
coedge $-1 $135 $84 $220 $221 reversed $53 $-1 #
coedge $-1 $84 $134 $216 $222 reversed $53 $-1 #
coedge $-1 $218 $223 $84 $137 forward $224 $-1 #
edge $-1 $225 22.708847459486105 $226 30.499909078645715 $136 $227 forward 7 unknown #
loop $-1 $-1 $143 $85 #
plane-surface $-1 -13.431211585235481 -27.732392197775354 7.6801133652984106 0 -0.6018150307709319 0.79863550430605224 1 0 0 forward_v I I I I #
loop $-1 $-1 $228 $55 #
coedge $-1 $141 $141 $142 $229 reversed $86 $-1 #
coedge $-1 $142 $142 $141 $229 forward $88 $-1 #
coedge $-1 $143 $143 $89 $144 forward $138 $-1 #
edge $-1 $230 -3.49623394298107e-016 $230 6.2831853071796004 $143 $231 forward 7 unknown #
face $-1 $232 $233 $30 $-1 $234 reversed single #
loop $-1 $-1 $235 $90 #
plane-surface $-1 31.476883909635582 -100.88247931452293 104.75355574788287 1 0 0 0 0.6018150307709319 -0.79863550430605224 forward_v I I I I #
coedge $-1 $236 $237 $238 $239 reversed $91 $-1 #
coedge $-1 $150 $93 $240 $241 reversed $59 $-1 #
coedge $-1 $93 $149 $236 $242 reversed $59 $-1 #
coedge $-1 $238 $243 $93 $152 forward $244 $-1 #
edge $-1 $245 22.708847459486105 $246 30.499909078645715 $151 $247 forward 7 unknown #
loop $-1 $-1 $158 $94 #
plane-surface $-1 42.790555912832779 -27.732392197775354 7.6801133652984106 0 -0.6018150307709319 0.79863550430605224 1 0 0 forward_v I I I I #
loop $-1 $-1 $248 $61 #
coedge $-1 $156 $156 $157 $249 reversed $95 $-1 #
coedge $-1 $157 $157 $156 $249 forward $97 $-1 #
coedge $-1 $158 $158 $98 $159 forward $153 $-1 #
edge $-1 $250 -3.49623394298107e-016 $250 6.2831853071796004 $158 $251 forward 7 unknown #
face $-1 $252 $253 $24 $-1 $254 reversed single #
loop $-1 $-1 $255 $99 #
plane-surface $-1 -60.774559770500808 0 0 1 0 0 0 0 -1 forward_v I I I I #
coedge $-1 $256 $171 $255 $257 forward $100 $-1 #
coedge $-1 $258 $102 $256 $259 forward $65 $-1 #
coedge $-1 $102 $258 $260 $261 forward $65 $-1 #
coedge $-1 $174 $173 $102 $167 reversed $175 $-1 #
edge $-1 $262 -27.732392197775358 $263 27.732392197775358 $166 $264 forward 7 unknown #
coedge $-1 $104 $103 $265 $266 forward $41 $-1 #
coedge $-1 $267 $268 $103 $170 reversed $253 $-1 #
edge $-1 $177 -60.774559770500808 $269 60.774559770500808 $169 $270 forward 7 unknown #
coedge $-1 $163 $271 $104 $172 reversed $100 $-1 #
edge $-1 $272 -60.774559770500808 $176 60.774559770500808 $171 $273 forward 7 unknown #
coedge $-1 $166 $105 $271 $274 forward $175 $-1 #
coedge $-1 $105 $166 $267 $275 reversed $175 $-1 #
loop $-1 $-1 $173 $252 #
vertex $-1 $106 $276 #
vertex $-1 $106 $277 #
straight-curve $-1 60.774559770500808 0 13.551099519547741 0 1 0 I I #
face $-1 $278 $279 $25 $-1 $280 reversed single #
loop $-1 $-1 $281 $107 #
plane-surface $-1 -69.880144315365897 0 -11.1289237092496 1 0 0 0 0 -1 forward_v I I I I #
coedge $-1 $282 $110 $283 $284 reversed $69 $-1 #
coedge $-1 $110 $282 $188 $285 reversed $69 $-1 #
edge $-1 $190 8.7067478989514591 $286 13.551099519547741 $110 $287 forward 7 unknown #
coedge $-1 $112 $111 $288 $289 reversed $44 $-1 #
coedge $-1 $290 $291 $111 $187 forward $292 $-1 #
edge $-1 $293 -13.551099519547741 $191 -8.7067478989514591 $186 $294 forward 7 unknown #
coedge $-1 $295 $113 $183 $285 forward $108 $-1 #
coedge $-1 $113 $295 $290 $296 forward $108 $-1 #
vertex $-1 $184 $297 #
vertex $-1 $296 $298 #
straight-curve $-1 -60.774559770500808 0 -8.7067478989514591 0 -1 0 I I #
face $-1 $-1 $299 $26 $-1 $300 reversed single #
loop $-1 $-1 $121 $115 #
plane-surface $-1 0 0 13.551099519547741 0 0 1 1 0 0 forward_v I I I I #
coedge $-1 $301 $302 $303 $304 reversed $116 $-1 #
coedge $-1 $305 $118 $120 $203 forward $73 $-1 #
coedge $-1 $118 $305 $301 $306 forward $73 $-1 #
coedge $-1 $303 $121 $118 $200 forward $194 $-1 #
edge $-1 $206 -5.8520919977729839 $307 27.710074368470917 $199 $308 forward 7 unknown #
coedge $-1 $309 $310 $119 $202 forward $299 $-1 #
edge $-1 $311 -65.279814124924911 $205 -53.923492715220526 $201 $312 forward 7 unknown #
edge $-1 $206 33.415305314568833 $311 55.464784395550708 $120 $313 forward 7 unknown #
coedge $-1 $121 $303 $309 $314 forward $194 $-1 #
vertex $-1 $202 $315 #
vertex $-1 $122 $316 #
straight-curve $-1 5.0768991875759824 21.396109134957307 13.551099519547741 0 -1 0 I I #
coedge $-1 $208 $208 $-1 $317 reversed $125 $-1 #
edge $-1 $318 0 $318 6.2831853071796004 $126 $319 forward 7 unknown #
vertex $-1 $129 $320 #
ellipse-curve $-1 21.857982370697933 18.28234601029369 7.8729388146955479 0 0.51503808176128008 0.85716729658548041 2.5 0 0 1 I I #
face $-1 $-1 $224 $28 $-1 $321 forward single #
loop $-1 $-1 $322 $130 #
plane-surface $-1 0 -27.732392197775358 0 0 1 0 0 0 1 forward_v I I I I #
coedge $-1 $323 $324 $325 $326 reversed $131 $-1 #
coedge $-1 $327 $133 $135 $222 forward $82 $-1 #
coedge $-1 $133 $327 $323 $328 forward $82 $-1 #
coedge $-1 $325 $136 $133 $219 forward $224 $-1 #
edge $-1 $226 -4.5980662105794572 $329 18.029277795814938 $218 $330 forward 7 unknown #
coedge $-1 $331 $332 $134 $221 forward $213 $-1 #
edge $-1 $333 -44.696664508643025 $225 -38.825678354393695 $220 $334 forward 7 unknown #
edge $-1 $226 -9.7554661383723342 $333 4.4408806494695735e-015 $135 $335 forward 7 unknown #
coedge $-1 $136 $325 $331 $336 forward $224 $-1 #
loop $-1 $-1 $325 $212 #
vertex $-1 $221 $337 #
vertex $-1 $137 $338 #
straight-curve $-1 -2.1175395820382832 -50.441239657261463 13.551099519547741 0 1 0 I I #
coedge $-1 $228 $228 $-1 $339 reversed $140 $-1 #
edge $-1 $340 0 $340 6.2831853071796004 $141 $341 forward 7 unknown #
vertex $-1 $144 $342 #
ellipse-curve $-1 -13.431211585235481 -23.836861388195555 10.615606442423072 0 -0.6018150307709319 0.79863550430605224 2 0 0 1 I I #
face $-1 $-1 $244 $30 $-1 $343 forward single #
loop $-1 $-1 $344 $145 #
plane-surface $-1 0 -27.732392197775358 0 0 1 0 0 0 1 forward_v I I I I #
coedge $-1 $345 $346 $347 $348 reversed $146 $-1 #
coedge $-1 $349 $148 $150 $242 forward $91 $-1 #
coedge $-1 $148 $349 $345 $350 forward $91 $-1 #
coedge $-1 $347 $151 $148 $239 forward $244 $-1 #
edge $-1 $246 -32.708949959613591 $351 -10.081605953219192 $238 $352 forward 7 unknown #
coedge $-1 $353 $354 $149 $241 forward $233 $-1 #
edge $-1 $355 -44.696664508643025 $245 -38.825678354393695 $240 $356 forward 7 unknown #
edge $-1 $246 -9.7554661383723342 $355 4.4408806494695735e-015 $150 $357 forward 7 unknown #
coedge $-1 $151 $347 $353 $358 forward $244 $-1 #
loop $-1 $-1 $347 $232 #
vertex $-1 $241 $359 #
vertex $-1 $152 $360 #
straight-curve $-1 54.104227916029977 -50.441239657261463 13.551099519547741 0 1 0 I I #
coedge $-1 $248 $248 $-1 $361 reversed $155 $-1 #
edge $-1 $362 0 $362 6.2831853071796004 $156 $363 forward 7 unknown #
vertex $-1 $159 $364 #
ellipse-curve $-1 42.790555912832779 -23.836861388195555 10.615606442423072 0 -0.6018150307709319 0.79863550430605224 2 0 0 1 I I #
face $-1 $-1 $175 $24 $-1 $365 reversed single #
loop $-1 $-1 $267 $160 #
plane-surface $-1 0 27.732392197775358 0 0 -1 0 0 0 -1 forward_v I I I I #
coedge $-1 $265 $366 $163 $257 reversed $161 $-1 #
coedge $-1 $271 $163 $164 $259 reversed $100 $-1 #
edge $-1 $272 -13.551099519547741 $367 13.551099519547741 $255 $368 forward 7 unknown #
coedge $-1 $165 $164 $366 $369 forward $65 $-1 #
edge $-1 $263 -60.774559770500808 $367 60.774559770500808 $256 $370 forward 7 unknown #
coedge $-1 $268 $267 $165 $261 reversed $253 $-1 #
edge $-1 $371 -60.774559770500808 $262 60.774559770500808 $260 $372 forward 7 unknown #
vertex $-1 $167 $373 #
vertex $-1 $274 $374 #
straight-curve $-1 60.774559770500808 0 -13.551099519547741 0 -1 0 I I #
coedge $-1 $375 $255 $168 $266 reversed $161 $-1 #
edge $-1 $269 -27.732392197775358 $272 27.732392197775358 $265 $376 forward 7 unknown #
coedge $-1 $260 $169 $174 $275 forward $253 $-1 #
coedge $-1 $169 $260 $375 $377 reversed $253 $-1 #
vertex $-1 $170 $378 #
straight-curve $-1 0 27.732392197775358 13.551099519547741 -1 0 0 I I #
coedge $-1 $171 $256 $173 $274 reversed $100 $-1 #
vertex $-1 $266 $379 #
straight-curve $-1 0 -27.732392197775358 13.551099519547741 1 0 0 I I #
edge $-1 $176 -13.551099519547741 $263 13.551099519547741 $173 $380 forward 7 unknown #
edge $-1 $177 -13.551099519547741 $262 13.551099519547741 $174 $381 forward 7 unknown #
point $-1 60.774559770500808 -27.732392197775358 13.551099519547741 #
point $-1 60.774559770500808 27.732392197775358 13.551099519547741 #
face $-1 $-1 $292 $25 $-1 $382 reversed single #
loop $-1 $-1 $288 $179 #
plane-surface $-1 0 0 -13.551099519547741 0 0 1 1 0 0 forward_v I I I I #
coedge $-1 $383 $384 $282 $385 forward $180 $-1 #
coedge $-1 $183 $182 $281 $385 reversed $69 $-1 #
coedge $-1 $288 $386 $182 $284 forward $279 $-1 #
edge $-1 $387 -69.880144315365897 $286 -60.774559770500808 $182 $388 forward 7 unknown #
edge $-1 $190 -4.5527922724325407 $389 4.5527922724325407 $183 $390 forward 7 unknown #
vertex $-1 $184 $391 #
straight-curve $-1 -60.774559770500808 27.732392197775358 0 0 0 -1 I I #
coedge $-1 $392 $283 $185 $289 forward $279 $-1 #
edge $-1 $286 -27.732392197775358 $293 27.732392197775358 $288 $393 forward 7 unknown #
coedge $-1 $394 $186 $189 $296 reversed $292 $-1 #
coedge $-1 $186 $394 $392 $395 reversed $292 $-1 #
loop $-1 $-1 $186 $278 #
vertex $-1 $395 $396 #
straight-curve $-1 -60.774559770500808 -27.732392197775358 0 0 0 1 I I #
coedge $-1 $189 $188 $384 $397 forward $108 $-1 #
edge $-1 $398 -4.5527922724325407 $191 4.5527922724325407 $290 $399 forward 7 unknown #
point $-1 -60.774559770500815 27.732392197775358 -8.7067478989514591 #
point $-1 -60.774559770500815 -27.732392197775358 -8.7067478989514591 #
loop $-1 $-1 $201 $193 #
plane-surface $-1 0 27.732392197775358 0 0 -1 0 0 0 -1 forward_v I I I I #
coedge $-1 $302 $196 $198 $306 reversed $116 $-1 #
coedge $-1 $196 $301 $400 $401 reversed $116 $-1 #
coedge $-1 $204 $199 $196 $304 forward $194 $-1 #
edge $-1 $307 -12.563809312145292 $402 6.3362830628180511 $303 $403 forward 7 unknown #
coedge $-1 $198 $197 $310 $404 reversed $73 $-1 #
edge $-1 $405 -55.464784395550708 $307 -33.415305314568833 $301 $406 forward 7 unknown #
vertex $-1 $200 $407 #
straight-curve $-1 10.928991185348966 8.8322998228120149 13.551099519547741 1 0 0 I I #
coedge $-1 $400 $201 $204 $314 reversed $299 $-1 #
coedge $-1 $201 $400 $305 $404 forward $299 $-1 #
vertex $-1 $202 $408 #
straight-curve $-1 5.0768991875759824 27.732392197775358 67.474592234768267 0 0 1 I I #
straight-curve $-1 5.0768991875759824 -19.81020709825539 30.761254270230779 0 0.85716729658548041 -0.51503808176128008 I I #
edge $-1 $402 -38.639065553819883 $205 -5.0768991875759824 $309 $409 forward 7 unknown #
point $-1 5.0768991875759824 27.732392197775358 13.551099519547741 #
point $-1 5.0768991875759824 8.8322998228120149 13.551099519547741 #
edge $-1 $410 1 $410 0 $208 $-1 forward 7 unknown #
vertex $-1 $209 $411 #
ellipse-curve $-1 21.857982370697933 15.427096669580751 3.1210060059857518 0 0.51503808176128008 0.85716729658548041 2.5 0 0 1 I I #
point $-1 24.357982370697933 18.28234601029369 7.8729388146955506 #
plane-surface $-1 0 0 13.551099519547741 0 0 1 1 0 0 forward_v I I I I #
coedge $-1 $332 $331 $324 $412 forward $213 $-1 #
coedge $-1 $324 $215 $217 $328 reversed $131 $-1 #
coedge $-1 $215 $323 $322 $412 reversed $131 $-1 #
coedge $-1 $223 $218 $215 $326 forward $224 $-1 #
edge $-1 $329 -30.499909078645715 $413 -22.708847459486105 $325 $414 forward 7 unknown #
coedge $-1 $217 $216 $332 $415 reversed $82 $-1 #
edge $-1 $416 -4.4408806494695735e-015 $329 9.7554661383723342 $323 $417 forward 7 unknown #
vertex $-1 $219 $418 #
straight-curve $-1 -6.7156057926177404 -19.941330578615752 13.551099519547741 -1 0 0 I I #
coedge $-1 $322 $220 $223 $336 reversed $213 $-1 #
coedge $-1 $220 $322 $327 $415 forward $213 $-1 #
vertex $-1 $221 $419 #
straight-curve $-1 -2.1175395820382832 -27.732392197775354 52.376777873941435 0 0 1 I I #
straight-curve $-1 -2.1175395820382832 -27.732392197775354 7.6801133652984106 0 -0.79863550430605224 -0.6018150307709319 I I #
edge $-1 $413 -24.744883588432678 $225 -2.1175395820382832 $331 $420 forward 7 unknown #
point $-1 -2.1175395820382832 -27.732392197775358 13.551099519547741 #
point $-1 -2.1175395820382832 -19.941330578615748 13.551099519547741 #
edge $-1 $421 1 $421 0 $228 $-1 forward 7 unknown #
vertex $-1 $229 $422 #
ellipse-curve $-1 -13.431211585235481 -20.732849807629425 6.4964440299428361 0 -0.6018150307709319 0.79863550430605224 2 0 0 1 I I #
point $-1 -11.431211585235481 -23.836861388195558 10.615606442423076 #
plane-surface $-1 0 0 13.551099519547741 0 0 1 1 0 0 forward_v I I I I #
coedge $-1 $354 $353 $346 $423 forward $233 $-1 #
coedge $-1 $346 $235 $237 $350 reversed $146 $-1 #
coedge $-1 $235 $345 $344 $423 reversed $146 $-1 #
coedge $-1 $243 $238 $235 $348 forward $244 $-1 #
edge $-1 $351 -30.499909078645715 $424 -22.708847459486105 $347 $425 forward 7 unknown #
coedge $-1 $237 $236 $354 $426 reversed $91 $-1 #
edge $-1 $427 -4.4408806494695735e-015 $351 9.7554661383723342 $345 $428 forward 7 unknown #
vertex $-1 $239 $429 #
straight-curve $-1 21.39527795641639 -19.941330578615752 13.551099519547741 -1 0 0 I I #
coedge $-1 $344 $240 $243 $358 reversed $233 $-1 #
coedge $-1 $240 $344 $349 $426 forward $233 $-1 #
vertex $-1 $241 $430 #
straight-curve $-1 54.104227916029977 -27.732392197775354 52.376777873941435 0 0 1 I I #
straight-curve $-1 54.104227916029977 -27.732392197775354 7.6801133652984106 0 -0.79863550430605224 -0.6018150307709319 I I #
edge $-1 $424 31.476883909635582 $245 54.104227916029977 $353 $431 forward 7 unknown #
point $-1 54.104227916029977 -27.732392197775358 13.551099519547741 #
point $-1 54.104227916029977 -19.941330578615748 13.551099519547741 #
edge $-1 $432 1 $432 0 $248 $-1 forward 7 unknown #
vertex $-1 $249 $433 #
ellipse-curve $-1 42.790555912832779 -20.732849807629425 6.4964440299428361 0 -0.6018150307709319 0.79863550430605224 2 0 0 1 I I #
point $-1 44.790555912832779 -23.836861388195558 10.615606442423076 #
plane-surface $-1 60.774559770500808 0 0 -1 0 0 0 0 1 forward_v I I I I #
coedge $-1 $255 $375 $258 $369 reversed $161 $-1 #
vertex $-1 $369 $434 #
straight-curve $-1 -60.774559770500808 -27.732392197775358 0 0 0 -1 I I #
edge $-1 $367 -27.732392197775358 $371 27.732392197775358 $366 $435 forward 7 unknown #
straight-curve $-1 0 -27.732392197775358 -13.551099519547741 -1 0 0 I I #
vertex $-1 $261 $436 #
straight-curve $-1 0 27.732392197775358 -13.551099519547741 1 0 0 I I #
point $-1 60.774559770500808 27.732392197775358 -13.551099519547741 #
point $-1 60.774559770500808 -27.732392197775358 -13.551099519547741 #
coedge $-1 $366 $265 $268 $377 forward $161 $-1 #
straight-curve $-1 -60.774559770500808 0 13.551099519547741 0 -1 0 I I #
edge $-1 $269 -13.551099519547741 $371 13.551099519547741 $268 $437 forward 7 unknown #
point $-1 -60.774559770500808 27.732392197775358 13.551099519547741 #
point $-1 -60.774559770500808 -27.732392197775358 13.551099519547741 #
straight-curve $-1 60.774559770500808 -27.732392197775358 0 0 0 -1 I I #
straight-curve $-1 60.774559770500808 27.732392197775358 0 0 0 -1 I I #
plane-surface $-1 0 -27.732392197775358 0 0 1 0 0 0 1 forward_v I I I I #
coedge $-1 $438 $281 $386 $439 reversed $180 $-1 #
coedge $-1 $281 $438 $295 $397 reversed $180 $-1 #
edge $-1 $389 -2.4221758102981408 $387 2.4221758102981408 $282 $440 forward 7 unknown #
coedge $-1 $283 $392 $383 $439 forward $279 $-1 #
vertex $-1 $284 $441 #
straight-curve $-1 0 27.732392197775358 -13.551099519547741 1 0 0 I I #
vertex $-1 $285 $442 #
straight-curve $-1 -65.327352042933356 27.732392197775358 -8.7067478989514591 -1 0 0 I I #
point $-1 -60.774559770500808 27.732392197775358 -13.551099519547741 #
coedge $-1 $386 $288 $291 $395 forward $279 $-1 #
straight-curve $-1 -60.774559770500808 0 -13.551099519547741 0 -1 0 I I #
coedge $-1 $291 $290 $438 $443 forward $292 $-1 #
edge $-1 $293 -4.5527922724325478 $444 4.5527922724325407 $291 $445 forward 7 unknown #
point $-1 -60.774559770500808 -27.732392197775358 -13.551099519547741 #
edge $-1 $389 -27.732392197775358 $398 27.732392197775358 $384 $446 forward 7 unknown #
vertex $-1 $397 $447 #
straight-curve $-1 -65.327352042933356 -27.732392197775358 -8.7067478989514591 1 0 0 I I #
coedge $-1 $310 $309 $302 $401 forward $299 $-1 #
edge $-1 $402 53.923492715220526 $405 65.279814124924911 $400 $448 forward 7 unknown #
vertex $-1 $314 $449 #
straight-curve $-1 38.639065553819883 21.396109134957307 13.551099519547741 0 1 0 I I #
edge $-1 $405 -27.710074368470917 $311 5.8520919977729839 $310 $450 forward 7 unknown #
vertex $-1 $404 $451 #
straight-curve $-1 38.639065553819883 -19.81020709825539 30.761254270230779 0 -0.85716729658548041 0.51503808176128008 I I #
point $-1 38.639065553819883 8.8322998228120149 13.551099519547741 #
point $-1 5.0768991875759824 27.732392197775354 2.1947781098433587 #
straight-curve $-1 0 27.732392197775358 13.551099519547741 -1 0 0 I I #
vertex $-1 $317 $452 #
point $-1 24.357982370697933 15.427096669580751 3.1210060059857518 #
edge $-1 $413 38.825678354393695 $416 44.696664508643025 $322 $453 forward 7 unknown #
vertex $-1 $336 $454 #
straight-curve $-1 -24.744883588432678 -50.441239657261463 13.551099519547741 0 -1 0 I I #
edge $-1 $416 -18.029277795814938 $333 4.5980662105794572 $332 $455 forward 7 unknown #
vertex $-1 $415 $456 #
straight-curve $-1 -24.744883588432678 -27.732392197775354 7.6801133652984106 0 0.79863550430605224 0.6018150307709319 I I #
point $-1 -24.744883588432678 -19.941330578615748 13.551099519547741 #
point $-1 -2.1175395820382832 -27.732392197775358 7.6801133652984079 #
straight-curve $-1 0 -27.732392197775358 13.551099519547741 1 0 0 I I #
vertex $-1 $339 $457 #
point $-1 -11.431211585235481 -20.732849807629425 6.4964440299428361 #
edge $-1 $424 38.825678354393695 $427 44.696664508643025 $344 $458 forward 7 unknown #
vertex $-1 $358 $459 #
straight-curve $-1 31.476883909635582 -50.441239657261463 13.551099519547741 0 -1 0 I I #
edge $-1 $427 10.081605953219192 $355 32.708949959613591 $354 $460 forward 7 unknown #
vertex $-1 $426 $461 #
straight-curve $-1 31.476883909635582 -27.732392197775354 7.6801133652984106 0 0.79863550430605224 0.6018150307709319 I I #
point $-1 31.476883909635582 -19.941330578615748 13.551099519547741 #
point $-1 54.104227916029977 -27.732392197775358 7.6801133652984079 #
straight-curve $-1 0 -27.732392197775358 13.551099519547741 1 0 0 I I #
vertex $-1 $361 $462 #
point $-1 44.790555912832779 -20.732849807629425 6.4964440299428361 #
point $-1 -60.774559770500808 -27.732392197775358 -13.551099519547741 #
straight-curve $-1 -60.774559770500808 0 -13.551099519547741 0 1 0 I I #
point $-1 -60.774559770500808 27.732392197775358 -13.551099519547741 #
straight-curve $-1 -60.774559770500808 27.732392197775358 0 0 0 -1 I I #
coedge $-1 $384 $383 $394 $443 reversed $180 $-1 #
edge $-1 $444 -27.732392197775358 $387 27.732392197775358 $383 $463 forward 7 unknown #
straight-curve $-1 -69.880144315365897 27.732392197775358 -11.1289237092496 0 0 -1 I I #
point $-1 -69.880144315365897 27.732392197775358 -13.551099519547741 #
point $-1 -69.880144315365897 27.732392197775358 -8.7067478989514591 #
edge $-1 $398 -2.4221758102981408 $444 2.4221758102981408 $438 $464 forward 7 unknown #
vertex $-1 $439 $465 #
straight-curve $-1 -65.327352042933356 -27.732392197775358 -13.551099519547741 -1 0 0 I I #
straight-curve $-1 -69.880144315365897 0 -8.7067478989514591 0 -1 0 I I #
point $-1 -69.880144315365897 -27.732392197775358 -8.7067478989514591 #
straight-curve $-1 38.639065553819883 27.732392197775358 67.474592234768267 0 0 -1 I I #
point $-1 38.639065553819883 27.732392197775358 13.551099519547741 #
straight-curve $-1 10.928991185348966 27.732392197775358 2.1947781098433605 -1 0 0 I I #
point $-1 38.639065553819883 27.732392197775354 2.1947781098433587 #
point $-1 21.857982370697933 14.139501465177551 0.97808776452205115 #
straight-curve $-1 -24.744883588432678 -27.732392197775354 52.376777873941435 0 0 -1 I I #
point $-1 -24.744883588432678 -27.732392197775358 13.551099519547741 #
straight-curve $-1 -6.7156057926177404 -27.732392197775358 7.6801133652984079 1 0 0 I I #
point $-1 -24.744883588432678 -27.732392197775358 7.6801133652984079 #
point $-1 -13.431211585235481 -19.529219746087559 4.8991730213307321 #
straight-curve $-1 31.476883909635582 -27.732392197775354 52.376777873941435 0 0 -1 I I #
point $-1 31.476883909635582 -27.732392197775358 13.551099519547741 #
straight-curve $-1 21.39527795641639 -27.732392197775358 7.6801133652984079 1 0 0 I I #
point $-1 31.476883909635582 -27.732392197775358 7.6801133652984079 #
point $-1 42.790555912832779 -19.529219746087559 4.8991730213307321 #
straight-curve $-1 -69.880144315365897 0 -13.551099519547741 0 1 0 I I #
straight-curve $-1 -69.880144315365897 -27.732392197775358 -11.1289237092496 0 0 -1 I I #
point $-1 -69.880144315365897 -27.732392197775358 -13.551099519547741 #
End-of-ACIS-data 