500 0 16 0           
7 Unknown 11 ACIS 5.0 NT 24 Thu Mar 25 16:22:06 1999 
-1 9.9999999999999995e-007 1e-010 
body $-1 $16 $-1 $17 #
body $-1 $18 $-1 $19 #
body $-1 $20 $-1 $21 #
body $-1 $22 $-1 $23 #
body $-1 $24 $-1 $25 #
body $-1 $26 $-1 $27 #
body $-1 $28 $-1 $29 #
body $-1 $30 $-1 $31 #
body $-1 $32 $-1 $33 #
body $-1 $34 $-1 $35 #
body $-1 $36 $-1 $37 #
body $-1 $38 $-1 $39 #
body $-1 $40 $-1 $41 #
body $-1 $42 $-1 $43 #
body $-1 $44 $-1 $45 #
body $-1 $46 $-1 $47 #
lump $-1 $-1 $48 $0 #
transform $-1 1 0 0 0 1 0 0 0 1 56.649678029725024 27.36566541426156 7.8109945652627379 1 rotate no_reflect no_shear #
lump $-1 $-1 $49 $1 #
transform $-1 1 0 0 0 1 0 0 0 1 56.649678029725024 -4.7450951694782537 1.7400541651397856 1 rotate no_reflect no_shear #
lump $-1 $-1 $50 $2 #
transform $-1 1 0 0 0 1 0 0 0 1 56.649678029725024 59.476425998001375 1.7400541651397856 1 rotate no_reflect no_shear #
lump $-1 $-1 $51 $3 #
transform $-1 0.85716729658548041 0 0.51503808176128008 0 1 0 -0.51503808176128008 0 0.85716729658548041 -58.353483009647412 17.945913867171814 107.25319553396373 1 rotate no_reflect no_shear #
lump $-1 $-1 $52 $4 #
transform $-1 0.85716729658548041 0 0.51503808176128008 0 -1 0 0.51503808176128008 0 -0.85716729658548041 5.6412371775064862 17.945913867171814 11.087404307293111 1 rotate no_reflect no_shear #
lump $-1 $-1 $53 $5 #
transform $-1 0.85716729658548041 0 0.51503808176128008 0 1 0 -0.51503808176128008 0 0.85716729658548041 -58.353483009647412 36.785416961351302 107.25319553396373 1 rotate no_reflect no_shear #
lump $-1 $-1 $54 $6 #
transform $-1 0.85716729658548041 0 0.51503808176128008 0 -1 0 0.51503808176128008 0 -0.85716729658548041 5.6412371775064862 36.785416961351302 11.087404307293111 1 rotate no_reflect no_shear #
lump $-1 $-1 $55 $7 #
transform $-1 0.62932038083071107 0 -0.77714596973225614 0 1 0 0.77714596973225614 0 0.62932038083071107 130.04790009110411 15.448566937764218 167.5318429027692 1 rotate no_reflect no_shear #
lump $-1 $-1 $56 $8 #
transform $-1 0.62932038083071107 0 -0.77714596973225614 0 -1 0 -0.77714596973225614 0 -0.62932038083071107 107.78289353394963 13.761748644819727 9.873913255798584 1 rotate no_reflect no_shear #
lump $-1 $-1 $57 $9 #
transform $-1 0.62932038083071107 0 -0.77714596973225614 0 -1 0 -0.77714596973225614 0 -0.62932038083071107 107.78289353394963 17.13538523070871 9.873913255798584 1 rotate no_reflect no_shear #
lump $-1 $-1 $58 $10 #
transform $-1 0.62932038083071107 0 -0.77714596973225614 0 1 0 0.77714596973225614 0 0.62932038083071107 130.04790009110411 27.365550321300919 167.5318429027692 1 rotate no_reflect no_shear #
lump $-1 $-1 $59 $11 #
transform $-1 0.62932038083071107 0 -0.77714596973225614 0 -1 0 -0.77714596973225614 0 -0.62932038083071107 107.78289353394963 25.678732028356428 9.873913255798584 1 rotate no_reflect no_shear #
lump $-1 $-1 $60 $12 #
transform $-1 0.62932038083071107 0 -0.77714596973225614 0 -1 0 -0.77714596973225614 0 -0.62932038083071107 107.78289353394963 29.05236861424541 9.873913255798584 1 rotate no_reflect no_shear #
lump $-1 $-1 $61 $13 #
transform $-1 0.62932038083071107 0 -0.77714596973225614 0 1 0 0.77714596973225614 0 0.62932038083071107 130.04790009110411 39.282533704837618 167.5318429027692 1 rotate no_reflect no_shear #
lump $-1 $-1 $62 $14 #
transform $-1 0.62932038083071107 0 -0.77714596973225614 0 -1 0 -0.77714596973225614 0 -0.62932038083071107 107.78289353394963 37.595715411893131 9.873913255798584 1 rotate no_reflect no_shear #
lump $-1 $-1 $63 $15 #
transform $-1 0.62932038083071107 0 -0.77714596973225614 0 -1 0 -0.77714596973225614 0 -0.62932038083071107 107.78289353394963 40.969351997782113 9.873913255798584 1 rotate no_reflect no_shear #
shell $-1 $-1 $-1 $64 $-1 $16 #
shell $-1 $-1 $-1 $65 $-1 $18 #
shell $-1 $-1 $-1 $66 $-1 $20 #
shell $-1 $-1 $-1 $67 $-1 $22 #
shell $-1 $-1 $-1 $68 $-1 $24 #
shell $-1 $-1 $-1 $69 $-1 $26 #
shell $-1 $-1 $-1 $70 $-1 $28 #
shell $-1 $-1 $-1 $71 $-1 $30 #
shell $-1 $-1 $-1 $72 $-1 $32 #
shell $-1 $-1 $-1 $73 $-1 $34 #
shell $-1 $-1 $-1 $74 $-1 $36 #
shell $-1 $-1 $-1 $75 $-1 $38 #
shell $-1 $-1 $-1 $76 $-1 $40 #
shell $-1 $-1 $-1 $77 $-1 $42 #
shell $-1 $-1 $-1 $78 $-1 $44 #
shell $-1 $-1 $-1 $79 $-1 $46 #
face $-1 $80 $81 $48 $-1 $82 forward single #
face $-1 $83 $84 $49 $-1 $85 forward single #
face $-1 $86 $87 $50 $-1 $88 forward single #
face $-1 $89 $90 $51 $-1 $91 forward single #
face $-1 $92 $93 $52 $-1 $94 forward single #
face $-1 $95 $96 $53 $-1 $97 forward single #
face $-1 $98 $99 $54 $-1 $100 forward single #
face $-1 $101 $102 $55 $-1 $103 forward single #
face $-1 $104 $105 $56 $-1 $106 forward single #
face $-1 $107 $108 $57 $-1 $109 forward single #
face $-1 $110 $111 $58 $-1 $112 forward single #
face $-1 $113 $114 $59 $-1 $115 forward single #
face $-1 $116 $117 $60 $-1 $118 forward single #
face $-1 $119 $120 $61 $-1 $121 forward single #
face $-1 $122 $123 $62 $-1 $124 forward single #
face $-1 $125 $126 $63 $-1 $127 forward single #
face $-1 $128 $129 $48 $-1 $130 reversed single #
loop $-1 $-1 $131 $64 #
plane-surface $-1 0 0 7.8109945652627379 0 0 1 1 0 0 forward_v I I I I #
face $-1 $132 $133 $49 $-1 $134 reversed single #
loop $-1 $-1 $135 $65 #
plane-surface $-1 0 0 1.7400541651397856 0 0 1 1 0 0 forward_v I I I I #
face $-1 $136 $137 $50 $-1 $138 reversed single #
loop $-1 $-1 $139 $66 #
plane-surface $-1 0 0 1.7400541651397856 0 0 1 1 0 0 forward_v I I I I #
face $-1 $140 $141 $51 $-1 $142 reversed single #
loop $-1 $-1 $143 $67 #
plane-surface $-1 0 0 113.29935605945005 0 0 1 1 0 0 forward_v I I I I #
face $-1 $144 $145 $52 $-1 $146 forward single #
loop $-1 $147 $148 $68 #
cone-surface $-1 0 0 -1.2952665791802715 0 0 1 1 0 0 1 I I 0 1 1 forward I I I I #
face $-1 $149 $150 $53 $-1 $151 reversed single #
loop $-1 $-1 $152 $69 #
plane-surface $-1 0 0 113.29935605945005 0 0 1 1 0 0 forward_v I I I I #
face $-1 $153 $154 $54 $-1 $155 forward single #
loop $-1 $156 $157 $70 #
cone-surface $-1 0 0 -1.2952665791802715 0 0 1 1 0 0 1 I I 0 1 1 forward I I I I #
face $-1 $158 $159 $55 $-1 $160 reversed single #
loop $-1 $-1 $161 $71 #
plane-surface $-1 0 0 113.29935605945005 0 0 1 1 0 0 forward_v I I I I #
face $-1 $162 $163 $56 $-1 $164 forward single #
loop $-1 $165 $166 $72 #
cone-surface $-1 0 0 -1.8605761894589063 0 0 1 1 0 0 1 I I 0 1 1 forward I I I I #
face $-1 $167 $168 $57 $-1 $169 forward single #
loop $-1 $170 $171 $73 #
cone-surface $-1 0 0 -1.8605761894589063 0 0 1 1 0 0 1 I I 0 1 1 forward I I I I #
face $-1 $172 $173 $58 $-1 $174 reversed single #
loop $-1 $-1 $175 $74 #
plane-surface $-1 0 0 113.29935605945005 0 0 1 1 0 0 forward_v I I I I #
face $-1 $176 $177 $59 $-1 $178 forward single #
loop $-1 $179 $180 $75 #
cone-surface $-1 0 0 -1.8605761894589063 0 0 1 1 0 0 1 I I 0 1 1 forward I I I I #
face $-1 $181 $182 $60 $-1 $183 forward single #
loop $-1 $184 $185 $76 #
cone-surface $-1 0 0 -1.8605761894589063 0 0 1 1 0 0 1 I I 0 1 1 forward I I I I #
face $-1 $186 $187 $61 $-1 $188 reversed single #
loop $-1 $-1 $189 $77 #
plane-surface $-1 0 0 113.29935605945005 0 0 1 1 0 0 forward_v I I I I #
face $-1 $190 $191 $62 $-1 $192 forward single #
loop $-1 $193 $194 $78 #
cone-surface $-1 0 0 -1.8605761894589063 0 0 1 1 0 0 1 I I 0 1 1 forward I I I I #
face $-1 $195 $196 $63 $-1 $197 forward single #
loop $-1 $198 $199 $79 #
cone-surface $-1 0 0 -1.8605761894589063 0 0 1 1 0 0 1 I I 0 1 1 forward I I I I #
face $-1 $200 $201 $48 $-1 $202 reversed single #
loop $-1 $-1 $203 $80 #
plane-surface $-1 0 0 -7.8109945652627379 0 0 1 1 0 0 forward_v I I I I #
coedge $-1 $204 $205 $206 $207 forward $81 $-1 #
face $-1 $208 $209 $49 $-1 $210 reversed single #
loop $-1 $-1 $211 $83 #
plane-surface $-1 0 0 -1.7400541651397856 0 0 1 1 0 0 forward_v I I I I #
coedge $-1 $212 $213 $214 $215 forward $84 $-1 #
face $-1 $216 $217 $50 $-1 $218 reversed single #
loop $-1 $-1 $219 $86 #
plane-surface $-1 0 0 -1.7400541651397856 0 0 1 1 0 0 forward_v I I I I #
coedge $-1 $220 $221 $222 $223 forward $87 $-1 #
face $-1 $224 $225 $51 $-1 $226 reversed single #
loop $-1 $-1 $227 $89 #
plane-surface $-1 0 0 -113.29935605945005 0 0 1 1 0 0 forward_v I I I I #
coedge $-1 $228 $229 $230 $231 forward $90 $-1 #
face $-1 $-1 $232 $52 $-1 $233 forward single #
loop $-1 $-1 $234 $92 #
plane-surface $-1 0 0 -2.090533158360544 0 0 -1 -1 0 0 forward_v I I I I #
loop $-1 $-1 $235 $68 #
coedge $-1 $148 $148 $234 $236 reversed $93 $-1 #
face $-1 $237 $238 $53 $-1 $239 reversed single #
loop $-1 $-1 $240 $95 #
plane-surface $-1 0 0 -113.29935605945005 0 0 1 1 0 0 forward_v I I I I #
coedge $-1 $241 $242 $243 $244 forward $96 $-1 #
face $-1 $-1 $245 $54 $-1 $246 forward single #
loop $-1 $-1 $247 $98 #
plane-surface $-1 0 0 -2.090533158360544 0 0 -1 -1 0 0 forward_v I I I I #
loop $-1 $-1 $248 $70 #
coedge $-1 $157 $157 $247 $249 reversed $99 $-1 #
face $-1 $250 $251 $55 $-1 $252 reversed single #
loop $-1 $-1 $253 $101 #
plane-surface $-1 0 0 -113.29935605945005 0 0 1 1 0 0 forward_v I I I I #
coedge $-1 $254 $255 $256 $257 forward $102 $-1 #
face $-1 $-1 $258 $56 $-1 $259 forward single #
loop $-1 $-1 $260 $104 #
plane-surface $-1 0 0 -3.2211523789178131 0 0 -1 -1 0 0 forward_v I I I I #
loop $-1 $-1 $261 $72 #
coedge $-1 $166 $166 $260 $262 reversed $105 $-1 #
face $-1 $-1 $263 $57 $-1 $264 forward single #
loop $-1 $-1 $265 $107 #
plane-surface $-1 0 0 -3.2211523789178131 0 0 -1 -1 0 0 forward_v I I I I #
loop $-1 $-1 $266 $73 #
coedge $-1 $171 $171 $265 $267 reversed $108 $-1 #
face $-1 $268 $269 $58 $-1 $270 reversed single #
loop $-1 $-1 $271 $110 #
plane-surface $-1 0 0 -113.29935605945005 0 0 1 1 0 0 forward_v I I I I #
coedge $-1 $272 $273 $274 $275 forward $111 $-1 #
face $-1 $-1 $276 $59 $-1 $277 forward single #
loop $-1 $-1 $278 $113 #
plane-surface $-1 0 0 -3.2211523789178131 0 0 -1 -1 0 0 forward_v I I I I #
loop $-1 $-1 $279 $75 #
coedge $-1 $180 $180 $278 $280 reversed $114 $-1 #
face $-1 $-1 $281 $60 $-1 $282 forward single #
loop $-1 $-1 $283 $116 #
plane-surface $-1 0 0 -3.2211523789178131 0 0 -1 -1 0 0 forward_v I I I I #
loop $-1 $-1 $284 $76 #
coedge $-1 $185 $185 $283 $285 reversed $117 $-1 #
face $-1 $286 $287 $61 $-1 $288 reversed single #
loop $-1 $-1 $289 $119 #
plane-surface $-1 0 0 -113.29935605945005 0 0 1 1 0 0 forward_v I I I I #
coedge $-1 $290 $291 $292 $293 forward $120 $-1 #
face $-1 $-1 $294 $62 $-1 $295 forward single #
loop $-1 $-1 $296 $122 #
plane-surface $-1 0 0 -3.2211523789178131 0 0 -1 -1 0 0 forward_v I I I I #
loop $-1 $-1 $297 $78 #
coedge $-1 $194 $194 $296 $298 reversed $123 $-1 #
face $-1 $-1 $299 $63 $-1 $300 forward single #
loop $-1 $-1 $301 $125 #
plane-surface $-1 0 0 -3.2211523789178131 0 0 -1 -1 0 0 forward_v I I I I #
loop $-1 $-1 $302 $79 #
coedge $-1 $199 $199 $301 $303 reversed $126 $-1 #
face $-1 $304 $305 $48 $-1 $306 reversed single #
loop $-1 $-1 $307 $128 #
plane-surface $-1 0 -27.36566541426156 0 0 1 0 0 0 1 forward_v I I I I #
coedge $-1 $308 $309 $310 $311 forward $129 $-1 #
coedge $-1 $312 $131 $313 $314 forward $81 $-1 #
coedge $-1 $131 $312 $315 $316 forward $81 $-1 #
coedge $-1 $317 $318 $131 $207 reversed $319 $-1 #
edge $-1 $320 -27.36566541426156 $321 27.36566541426156 $206 $322 forward 7 unknown #
face $-1 $323 $324 $49 $-1 $325 reversed single #
loop $-1 $-1 $326 $132 #
plane-surface $-1 0 -4.7450951694782537 0 0 1 0 0 0 1 forward_v I I I I #
coedge $-1 $327 $328 $329 $330 forward $133 $-1 #
coedge $-1 $331 $135 $332 $333 forward $84 $-1 #
coedge $-1 $135 $331 $334 $335 forward $84 $-1 #
coedge $-1 $336 $337 $135 $215 reversed $338 $-1 #
edge $-1 $339 -4.7450951694782537 $340 4.7450951694782537 $214 $341 forward 7 unknown #
face $-1 $342 $343 $50 $-1 $344 reversed single #
loop $-1 $-1 $345 $136 #
plane-surface $-1 0 -4.7450951694782511 0 0 1 0 0 0 1 forward_v I I I I #
coedge $-1 $346 $347 $348 $349 forward $137 $-1 #
coedge $-1 $350 $139 $351 $352 forward $87 $-1 #
coedge $-1 $139 $350 $353 $354 forward $87 $-1 #
coedge $-1 $355 $356 $139 $223 reversed $357 $-1 #
edge $-1 $358 -4.7450951694782511 $359 4.7450951694782511 $222 $360 forward 7 unknown #
face $-1 $361 $362 $51 $-1 $363 reversed single #
loop $-1 $-1 $364 $140 #
plane-surface $-1 0 -3.065672559170217 0 0 1 0 0 0 1 forward_v I I I I #
coedge $-1 $365 $366 $367 $368 forward $141 $-1 #
coedge $-1 $369 $143 $370 $371 forward $90 $-1 #
coedge $-1 $143 $369 $372 $373 forward $90 $-1 #
coedge $-1 $374 $375 $143 $231 reversed $376 $-1 #
edge $-1 $377 -3.065672559170217 $378 3.065672559170217 $230 $379 forward 7 unknown #
loop $-1 $380 $381 $144 #
cone-surface $-1 0 0 0 0 0 1 0.5 0 0 1 I I -0.70710678118654724 0.70710678118654791 0.5 forward I I I I #
coedge $-1 $234 $234 $148 $236 forward $145 $-1 #
coedge $-1 $235 $235 $381 $382 forward $147 $-1 #
edge $-1 $383 0 $383 6.2831853071796004 $234 $384 forward 7 unknown #
face $-1 $385 $386 $53 $-1 $387 reversed single #
loop $-1 $-1 $388 $149 #
plane-surface $-1 0 -3.065672559170217 0 0 1 0 0 0 1 forward_v I I I I #
coedge $-1 $389 $390 $391 $392 forward $150 $-1 #
coedge $-1 $393 $152 $394 $395 forward $96 $-1 #
coedge $-1 $152 $393 $396 $397 forward $96 $-1 #
coedge $-1 $398 $399 $152 $244 reversed $400 $-1 #
edge $-1 $401 -3.065672559170217 $402 3.065672559170217 $243 $403 forward 7 unknown #
loop $-1 $404 $405 $153 #
cone-surface $-1 0 0 0 0 0 1 0.5 0 0 1 I I -0.70710678118654724 0.70710678118654791 0.5 forward I I I I #
coedge $-1 $247 $247 $157 $249 forward $154 $-1 #
coedge $-1 $248 $248 $405 $406 forward $156 $-1 #
edge $-1 $407 0 $407 6.2831853071796004 $247 $408 forward 7 unknown #
face $-1 $409 $410 $55 $-1 $411 reversed single #
loop $-1 $-1 $412 $158 #
plane-surface $-1 0 -3.9359093502038132 0 0 1 0 0 0 1 forward_v I I I I #
coedge $-1 $413 $414 $415 $416 forward $159 $-1 #
coedge $-1 $417 $161 $418 $419 forward $102 $-1 #
coedge $-1 $161 $417 $420 $421 forward $102 $-1 #
coedge $-1 $422 $423 $161 $257 reversed $424 $-1 #
edge $-1 $425 -3.9359093502038132 $426 3.9359093502038132 $256 $427 forward 7 unknown #
loop $-1 $428 $429 $162 #
cone-surface $-1 0 0 0 0 0 1 0.5 0 0 1 I I -0.70710678118654746 0.70710678118654746 0.5 forward I I I I #
coedge $-1 $260 $260 $166 $262 forward $163 $-1 #
coedge $-1 $261 $261 $429 $430 forward $165 $-1 #
edge $-1 $431 0 $431 6.2831853071796004 $260 $432 forward 7 unknown #
loop $-1 $433 $434 $167 #
cone-surface $-1 0 0 0 0 0 1 0.5 0 0 1 I I -0.70710678118654746 0.70710678118654746 0.5 forward I I I I #
coedge $-1 $265 $265 $171 $267 forward $168 $-1 #
coedge $-1 $266 $266 $434 $435 forward $170 $-1 #
edge $-1 $436 0 $436 6.2831853071796004 $265 $437 forward 7 unknown #
face $-1 $438 $439 $58 $-1 $440 reversed single #
loop $-1 $-1 $441 $172 #
plane-surface $-1 0 -3.9359093502038132 0 0 1 0 0 0 1 forward_v I I I I #
coedge $-1 $442 $443 $444 $445 forward $173 $-1 #
coedge $-1 $446 $175 $447 $448 forward $111 $-1 #
coedge $-1 $175 $446 $449 $450 forward $111 $-1 #
coedge $-1 $451 $452 $175 $275 reversed $453 $-1 #
edge $-1 $454 -3.9359093502038132 $455 3.9359093502038132 $274 $456 forward 7 unknown #
loop $-1 $457 $458 $176 #
cone-surface $-1 0 0 0 0 0 1 0.5 0 0 1 I I -0.70710678118654746 0.70710678118654746 0.5 forward I I I I #
coedge $-1 $278 $278 $180 $280 forward $177 $-1 #
coedge $-1 $279 $279 $458 $459 forward $179 $-1 #
edge $-1 $460 0 $460 6.2831853071796004 $278 $461 forward 7 unknown #
loop $-1 $462 $463 $181 #
cone-surface $-1 0 0 0 0 0 1 0.5 0 0 1 I I -0.70710678118654746 0.70710678118654746 0.5 forward I I I I #
coedge $-1 $283 $283 $185 $285 forward $182 $-1 #
coedge $-1 $284 $284 $463 $464 forward $184 $-1 #
edge $-1 $465 0 $465 6.2831853071796004 $283 $466 forward 7 unknown #
face $-1 $467 $468 $61 $-1 $469 reversed single #
loop $-1 $-1 $470 $186 #
plane-surface $-1 0 -3.9359093502038132 0 0 1 0 0 0 1 forward_v I I I I #
coedge $-1 $471 $472 $473 $474 forward $187 $-1 #
coedge $-1 $475 $189 $476 $477 forward $120 $-1 #
coedge $-1 $189 $475 $478 $479 forward $120 $-1 #
coedge $-1 $480 $481 $189 $293 reversed $482 $-1 #
edge $-1 $483 -3.9359093502038132 $484 3.9359093502038132 $292 $485 forward 7 unknown #
loop $-1 $486 $487 $190 #
cone-surface $-1 0 0 0 0 0 1 0.5 0 0 1 I I -0.70710678118654746 0.70710678118654746 0.5 forward I I I I #
coedge $-1 $296 $296 $194 $298 forward $191 $-1 #
coedge $-1 $297 $297 $487 $488 forward $193 $-1 #
edge $-1 $489 0 $489 6.2831853071796004 $296 $490 forward 7 unknown #
loop $-1 $491 $492 $195 #
cone-surface $-1 0 0 0 0 0 1 0.5 0 0 1 I I -0.70710678118654746 0.70710678118654746 0.5 forward I I I I #
coedge $-1 $301 $301 $199 $303 forward $196 $-1 #
coedge $-1 $302 $302 $492 $493 forward $198 $-1 #
edge $-1 $494 0 $494 6.2831853071796004 $301 $495 forward 7 unknown #
face $-1 $496 $497 $48 $-1 $498 reversed single #
loop $-1 $-1 $499 $200 #
plane-surface $-1 -56.649678029725024 0 0 1 0 0 0 0 -1 forward_v I I I I #
coedge $-1 $500 $315 $501 $502 forward $201 $-1 #
coedge $-1 $503 $203 $500 $504 forward $129 $-1 #
coedge $-1 $203 $503 $505 $506 forward $129 $-1 #
coedge $-1 $318 $317 $203 $311 reversed $319 $-1 #
edge $-1 $507 -27.36566541426156 $508 27.36566541426156 $310 $509 forward 7 unknown #
coedge $-1 $205 $204 $510 $511 forward $81 $-1 #
coedge $-1 $512 $513 $204 $314 reversed $497 $-1 #
edge $-1 $321 -56.649678029725024 $514 56.649678029725024 $313 $515 forward 7 unknown #
coedge $-1 $307 $516 $205 $316 reversed $201 $-1 #
edge $-1 $517 -56.649678029725024 $320 56.649678029725024 $315 $518 forward 7 unknown #
coedge $-1 $310 $206 $516 $519 forward $319 $-1 #
coedge $-1 $206 $310 $512 $520 reversed $319 $-1 #
loop $-1 $-1 $317 $496 #
vertex $-1 $207 $521 #
vertex $-1 $207 $522 #
straight-curve $-1 56.649678029725024 0 7.8109945652627379 0 1 0 I I #
face $-1 $523 $524 $49 $-1 $525 reversed single #
loop $-1 $-1 $526 $208 #
plane-surface $-1 -56.649678029725024 0 0 1 0 0 0 0 -1 forward_v I I I I #
coedge $-1 $527 $334 $528 $529 forward $209 $-1 #
coedge $-1 $530 $211 $527 $531 forward $133 $-1 #
coedge $-1 $211 $530 $532 $533 forward $133 $-1 #
coedge $-1 $337 $336 $211 $330 reversed $338 $-1 #
edge $-1 $534 -4.7450951694782537 $535 4.7450951694782537 $329 $536 forward 7 unknown #
coedge $-1 $213 $212 $537 $538 forward $84 $-1 #
coedge $-1 $539 $540 $212 $333 reversed $524 $-1 #
edge $-1 $340 -56.649678029725024 $541 56.649678029725024 $332 $542 forward 7 unknown #
coedge $-1 $326 $543 $213 $335 reversed $209 $-1 #
edge $-1 $544 -56.649678029725024 $339 56.649678029725024 $334 $545 forward 7 unknown #
coedge $-1 $329 $214 $543 $546 forward $338 $-1 #
coedge $-1 $214 $329 $539 $547 reversed $338 $-1 #
loop $-1 $-1 $336 $523 #
vertex $-1 $215 $548 #
vertex $-1 $215 $549 #
straight-curve $-1 56.649678029725024 0 1.7400541651397856 0 1 0 I I #
face $-1 $550 $551 $50 $-1 $552 reversed single #
loop $-1 $-1 $553 $216 #
plane-surface $-1 -56.649678029725024 0 0 1 0 0 0 0 -1 forward_v I I I I #
coedge $-1 $554 $353 $555 $556 forward $217 $-1 #
coedge $-1 $557 $219 $554 $558 forward $137 $-1 #
coedge $-1 $219 $557 $559 $560 forward $137 $-1 #
coedge $-1 $356 $355 $219 $349 reversed $357 $-1 #
edge $-1 $561 -4.7450951694782511 $562 4.7450951694782511 $348 $563 forward 7 unknown #
coedge $-1 $221 $220 $564 $565 forward $87 $-1 #
coedge $-1 $566 $567 $220 $352 reversed $551 $-1 #
edge $-1 $359 -56.649678029725024 $568 56.649678029725024 $351 $569 forward 7 unknown #
coedge $-1 $345 $570 $221 $354 reversed $217 $-1 #
edge $-1 $571 -56.649678029725024 $358 56.649678029725024 $353 $572 forward 7 unknown #
coedge $-1 $348 $222 $570 $573 forward $357 $-1 #
coedge $-1 $222 $348 $566 $574 reversed $357 $-1 #
loop $-1 $-1 $355 $550 #
vertex $-1 $223 $575 #
vertex $-1 $223 $576 #
straight-curve $-1 56.649678029725024 0 1.7400541651397856 0 1 0 I I #
face $-1 $577 $578 $51 $-1 $579 reversed single #
loop $-1 $-1 $580 $224 #
plane-surface $-1 -226.5987121189001 0 0 1 0 0 0 0 -1 forward_v I I I I #
coedge $-1 $581 $372 $582 $583 forward $225 $-1 #
coedge $-1 $584 $227 $581 $585 forward $141 $-1 #
coedge $-1 $227 $584 $586 $587 forward $141 $-1 #
coedge $-1 $375 $374 $227 $368 reversed $376 $-1 #
edge $-1 $588 -3.065672559170217 $589 3.065672559170217 $367 $590 forward 7 unknown #
coedge $-1 $229 $228 $591 $592 forward $90 $-1 #
coedge $-1 $593 $594 $228 $371 reversed $578 $-1 #
edge $-1 $378 -226.5987121189001 $595 226.5987121189001 $370 $596 forward 7 unknown #
coedge $-1 $364 $597 $229 $373 reversed $225 $-1 #
edge $-1 $598 -226.5987121189001 $377 226.5987121189001 $372 $599 forward 7 unknown #
coedge $-1 $367 $230 $597 $600 forward $376 $-1 #
coedge $-1 $230 $367 $593 $601 reversed $376 $-1 #
loop $-1 $-1 $374 $577 #
vertex $-1 $231 $602 #
vertex $-1 $231 $603 #
straight-curve $-1 226.5987121189001 0 113.29935605945005 0 1 0 I I #
loop $-1 $-1 $604 $144 #
coedge $-1 $381 $381 $235 $382 reversed $232 $-1 #
edge $-1 $605 0 $605 6.2831853071796004 $381 $606 forward 7 unknown #
vertex $-1 $236 $607 #
ellipse-curve $-1 0 0 -2.090533158360544 0 0 -1 1 0 0 1 I I #
face $-1 $608 $609 $53 $-1 $610 reversed single #
loop $-1 $-1 $611 $237 #
plane-surface $-1 -226.5987121189001 0 0 1 0 0 0 0 -1 forward_v I I I I #
coedge $-1 $612 $396 $613 $614 forward $238 $-1 #
coedge $-1 $615 $240 $612 $616 forward $150 $-1 #
coedge $-1 $240 $615 $617 $618 forward $150 $-1 #
coedge $-1 $399 $398 $240 $392 reversed $400 $-1 #
edge $-1 $619 -3.065672559170217 $620 3.065672559170217 $391 $621 forward 7 unknown #
coedge $-1 $242 $241 $622 $623 forward $96 $-1 #
coedge $-1 $624 $625 $241 $395 reversed $609 $-1 #
edge $-1 $402 -226.5987121189001 $626 226.5987121189001 $394 $627 forward 7 unknown #
coedge $-1 $388 $628 $242 $397 reversed $238 $-1 #
edge $-1 $629 -226.5987121189001 $401 226.5987121189001 $396 $630 forward 7 unknown #
coedge $-1 $391 $243 $628 $631 forward $400 $-1 #
coedge $-1 $243 $391 $624 $632 reversed $400 $-1 #
loop $-1 $-1 $398 $608 #
vertex $-1 $244 $633 #
vertex $-1 $244 $634 #
straight-curve $-1 226.5987121189001 0 113.29935605945005 0 1 0 I I #
loop $-1 $-1 $635 $153 #
coedge $-1 $405 $405 $248 $406 reversed $245 $-1 #
edge $-1 $636 0 $636 6.2831853071796004 $405 $637 forward 7 unknown #
vertex $-1 $249 $638 #
ellipse-curve $-1 0 0 -2.090533158360544 0 0 -1 1 0 0 1 I I #
face $-1 $639 $640 $55 $-1 $641 reversed single #
loop $-1 $-1 $642 $250 #
plane-surface $-1 -226.5987121189001 0 0 1 0 0 0 0 -1 forward_v I I I I #
coedge $-1 $643 $420 $644 $645 forward $251 $-1 #
coedge $-1 $646 $253 $643 $647 forward $159 $-1 #
coedge $-1 $253 $646 $648 $649 forward $159 $-1 #
coedge $-1 $423 $422 $253 $416 reversed $424 $-1 #
edge $-1 $650 -3.9359093502038132 $651 3.9359093502038132 $415 $652 forward 7 unknown #
coedge $-1 $255 $254 $653 $654 forward $102 $-1 #
coedge $-1 $655 $656 $254 $419 reversed $640 $-1 #
edge $-1 $426 -226.5987121189001 $657 226.5987121189001 $418 $658 forward 7 unknown #
coedge $-1 $412 $659 $255 $421 reversed $251 $-1 #
edge $-1 $660 -226.5987121189001 $425 226.5987121189001 $420 $661 forward 7 unknown #
coedge $-1 $415 $256 $659 $662 forward $424 $-1 #
coedge $-1 $256 $415 $655 $663 reversed $424 $-1 #
loop $-1 $-1 $422 $639 #
vertex $-1 $257 $664 #
vertex $-1 $257 $665 #
straight-curve $-1 226.5987121189001 0 113.29935605945005 0 1 0 I I #
loop $-1 $-1 $666 $162 #
coedge $-1 $429 $429 $261 $430 reversed $258 $-1 #
edge $-1 $667 0 $667 6.2831853071796004 $429 $668 forward 7 unknown #
vertex $-1 $262 $669 #
ellipse-curve $-1 0 0 -3.2211523789178131 0 0 -1 1 0 0 1 I I #
loop $-1 $-1 $670 $167 #
coedge $-1 $434 $434 $266 $435 reversed $263 $-1 #
edge $-1 $671 0 $671 6.2831853071796004 $434 $672 forward 7 unknown #
vertex $-1 $267 $673 #
ellipse-curve $-1 0 0 -3.2211523789178131 0 0 -1 1 0 0 1 I I #
face $-1 $674 $675 $58 $-1 $676 reversed single #
loop $-1 $-1 $677 $268 #
plane-surface $-1 -226.5987121189001 0 0 1 0 0 0 0 -1 forward_v I I I I #
coedge $-1 $678 $449 $679 $680 forward $269 $-1 #
coedge $-1 $681 $271 $678 $682 forward $173 $-1 #
coedge $-1 $271 $681 $683 $684 forward $173 $-1 #
coedge $-1 $452 $451 $271 $445 reversed $453 $-1 #
edge $-1 $685 -3.9359093502038132 $686 3.9359093502038132 $444 $687 forward 7 unknown #
coedge $-1 $273 $272 $688 $689 forward $111 $-1 #
coedge $-1 $690 $691 $272 $448 reversed $675 $-1 #
edge $-1 $455 -226.5987121189001 $692 226.5987121189001 $447 $693 forward 7 unknown #
coedge $-1 $441 $694 $273 $450 reversed $269 $-1 #
edge $-1 $695 -226.5987121189001 $454 226.5987121189001 $449 $696 forward 7 unknown #
coedge $-1 $444 $274 $694 $697 forward $453 $-1 #
coedge $-1 $274 $444 $690 $698 reversed $453 $-1 #
loop $-1 $-1 $451 $674 #
vertex $-1 $275 $699 #
vertex $-1 $275 $700 #
straight-curve $-1 226.5987121189001 0 113.29935605945005 0 1 0 I I #
loop $-1 $-1 $701 $176 #
coedge $-1 $458 $458 $279 $459 reversed $276 $-1 #
edge $-1 $702 0 $702 6.2831853071796004 $458 $703 forward 7 unknown #
vertex $-1 $280 $704 #
ellipse-curve $-1 0 0 -3.2211523789178131 0 0 -1 1 0 0 1 I I #
loop $-1 $-1 $705 $181 #
coedge $-1 $463 $463 $284 $464 reversed $281 $-1 #
edge $-1 $706 0 $706 6.2831853071796004 $463 $707 forward 7 unknown #
vertex $-1 $285 $708 #
ellipse-curve $-1 0 0 -3.2211523789178131 0 0 -1 1 0 0 1 I I #
face $-1 $709 $710 $61 $-1 $711 reversed single #
loop $-1 $-1 $712 $286 #
plane-surface $-1 -226.5987121189001 0 0 1 0 0 0 0 -1 forward_v I I I I #
coedge $-1 $713 $478 $714 $715 forward $287 $-1 #
coedge $-1 $716 $289 $713 $717 forward $187 $-1 #
coedge $-1 $289 $716 $718 $719 forward $187 $-1 #
coedge $-1 $481 $480 $289 $474 reversed $482 $-1 #
edge $-1 $720 -3.9359093502038132 $721 3.9359093502038132 $473 $722 forward 7 unknown #
coedge $-1 $291 $290 $723 $724 forward $120 $-1 #
coedge $-1 $725 $726 $290 $477 reversed $710 $-1 #
edge $-1 $484 -226.5987121189001 $727 226.5987121189001 $476 $728 forward 7 unknown #
coedge $-1 $470 $729 $291 $479 reversed $287 $-1 #
edge $-1 $730 -226.5987121189001 $483 226.5987121189001 $478 $731 forward 7 unknown #
coedge $-1 $473 $292 $729 $732 forward $482 $-1 #
coedge $-1 $292 $473 $725 $733 reversed $482 $-1 #
loop $-1 $-1 $480 $709 #
vertex $-1 $293 $734 #
vertex $-1 $293 $735 #
straight-curve $-1 226.5987121189001 0 113.29935605945005 0 1 0 I I #
loop $-1 $-1 $736 $190 #
coedge $-1 $487 $487 $297 $488 reversed $294 $-1 #
edge $-1 $737 0 $737 6.2831853071796004 $487 $738 forward 7 unknown #
vertex $-1 $298 $739 #
ellipse-curve $-1 0 0 -3.2211523789178131 0 0 -1 1 0 0 1 I I #
loop $-1 $-1 $740 $195 #
coedge $-1 $492 $492 $302 $493 reversed $299 $-1 #
edge $-1 $741 0 $741 6.2831853071796004 $492 $742 forward 7 unknown #
vertex $-1 $303 $743 #
ellipse-curve $-1 0 0 -3.2211523789178131 0 0 -1 1 0 0 1 I I #
face $-1 $-1 $319 $48 $-1 $744 reversed single #
loop $-1 $-1 $512 $304 #
plane-surface $-1 0 27.36566541426156 0 0 -1 0 0 0 -1 forward_v I I I I #
coedge $-1 $745 $510 $513 $746 forward $305 $-1 #
coedge $-1 $516 $307 $308 $504 reversed $201 $-1 #
coedge $-1 $510 $745 $307 $502 reversed $305 $-1 #
edge $-1 $517 -7.8109945652627379 $747 7.8109945652627379 $501 $748 forward 7 unknown #
coedge $-1 $309 $308 $745 $749 forward $129 $-1 #
edge $-1 $508 -56.649678029725024 $747 56.649678029725024 $500 $750 forward 7 unknown #
coedge $-1 $513 $512 $309 $506 reversed $497 $-1 #
edge $-1 $751 -56.649678029725024 $507 56.649678029725024 $505 $752 forward 7 unknown #
vertex $-1 $311 $753 #
vertex $-1 $519 $754 #
straight-curve $-1 56.649678029725024 0 -7.8109945652627379 0 -1 0 I I #
coedge $-1 $499 $501 $312 $511 reversed $305 $-1 #
edge $-1 $514 -27.36566541426156 $517 27.36566541426156 $510 $755 forward 7 unknown #
coedge $-1 $505 $313 $318 $520 forward $497 $-1 #
coedge $-1 $313 $505 $499 $746 reversed $497 $-1 #
vertex $-1 $314 $756 #
straight-curve $-1 0 27.36566541426156 7.8109945652627379 -1 0 0 I I #
coedge $-1 $315 $500 $317 $519 reversed $201 $-1 #
vertex $-1 $511 $757 #
straight-curve $-1 0 -27.36566541426156 7.8109945652627379 1 0 0 I I #
edge $-1 $320 -7.8109945652627379 $508 7.8109945652627379 $317 $758 forward 7 unknown #
edge $-1 $321 -7.8109945652627379 $507 7.8109945652627379 $318 $759 forward 7 unknown #
point $-1 56.649678029725024 -27.36566541426156 7.8109945652627379 #
point $-1 56.649678029725024 27.36566541426156 7.8109945652627379 #
face $-1 $-1 $338 $49 $-1 $760 reversed single #
loop $-1 $-1 $539 $323 #
plane-surface $-1 0 4.7450951694782537 0 0 -1 0 0 0 -1 forward_v I I I I #
coedge $-1 $761 $537 $540 $762 forward $324 $-1 #
coedge $-1 $543 $326 $327 $531 reversed $209 $-1 #
coedge $-1 $537 $761 $326 $529 reversed $324 $-1 #
edge $-1 $544 -1.7400541651397856 $763 1.7400541651397856 $528 $764 forward 7 unknown #
coedge $-1 $328 $327 $761 $765 forward $133 $-1 #
edge $-1 $535 -56.649678029725024 $763 56.649678029725024 $527 $766 forward 7 unknown #
coedge $-1 $540 $539 $328 $533 reversed $524 $-1 #
edge $-1 $767 -56.649678029725024 $534 56.649678029725024 $532 $768 forward 7 unknown #
vertex $-1 $330 $769 #
vertex $-1 $546 $770 #
straight-curve $-1 56.649678029725024 0 -1.7400541651397856 0 -1 0 I I #
coedge $-1 $526 $528 $331 $538 reversed $324 $-1 #
edge $-1 $541 -4.7450951694782537 $544 4.7450951694782537 $537 $771 forward 7 unknown #
coedge $-1 $532 $332 $337 $547 forward $524 $-1 #
coedge $-1 $332 $532 $526 $762 reversed $524 $-1 #
vertex $-1 $333 $772 #
straight-curve $-1 0 4.7450951694782537 1.7400541651397856 -1 0 0 I I #
coedge $-1 $334 $527 $336 $546 reversed $209 $-1 #
vertex $-1 $538 $773 #
straight-curve $-1 0 -4.7450951694782537 1.7400541651397856 1 0 0 I I #
edge $-1 $339 -1.7400541651397856 $535 1.7400541651397856 $336 $774 forward 7 unknown #
edge $-1 $340 -1.7400541651397856 $534 1.7400541651397856 $337 $775 forward 7 unknown #
point $-1 56.649678029725024 -4.7450951694782537 1.7400541651397856 #
point $-1 56.649678029725024 4.7450951694782537 1.7400541651397856 #
face $-1 $-1 $357 $50 $-1 $776 reversed single #
loop $-1 $-1 $566 $342 #
plane-surface $-1 0 4.7450951694782511 0 0 -1 0 0 0 -1 forward_v I I I I #
coedge $-1 $777 $564 $567 $778 forward $343 $-1 #
coedge $-1 $570 $345 $346 $558 reversed $217 $-1 #
coedge $-1 $564 $777 $345 $556 reversed $343 $-1 #
edge $-1 $571 -1.7400541651397856 $779 1.7400541651397856 $555 $780 forward 7 unknown #
coedge $-1 $347 $346 $777 $781 forward $137 $-1 #
edge $-1 $562 -56.649678029725024 $779 56.649678029725024 $554 $782 forward 7 unknown #
coedge $-1 $567 $566 $347 $560 reversed $551 $-1 #
edge $-1 $783 -56.649678029725024 $561 56.649678029725024 $559 $784 forward 7 unknown #
vertex $-1 $349 $785 #
vertex $-1 $573 $786 #
straight-curve $-1 56.649678029725024 0 -1.7400541651397856 0 -1 0 I I #
coedge $-1 $553 $555 $350 $565 reversed $343 $-1 #
edge $-1 $568 -4.7450951694782511 $571 4.7450951694782511 $564 $787 forward 7 unknown #
coedge $-1 $559 $351 $356 $574 forward $551 $-1 #
coedge $-1 $351 $559 $553 $778 reversed $551 $-1 #
vertex $-1 $352 $788 #
straight-curve $-1 0 4.7450951694782511 1.7400541651397856 -1 0 0 I I #
coedge $-1 $353 $554 $355 $573 reversed $217 $-1 #
vertex $-1 $565 $789 #
straight-curve $-1 0 -4.7450951694782511 1.7400541651397856 1 0 0 I I #
edge $-1 $358 -1.7400541651397856 $562 1.7400541651397856 $355 $790 forward 7 unknown #
edge $-1 $359 -1.7400541651397856 $561 1.7400541651397856 $356 $791 forward 7 unknown #
point $-1 56.649678029725024 -4.7450951694782511 1.7400541651397856 #
point $-1 56.649678029725024 4.7450951694782511 1.7400541651397856 #
face $-1 $-1 $376 $51 $-1 $792 reversed single #
loop $-1 $-1 $593 $361 #
plane-surface $-1 0 3.065672559170217 0 0 -1 0 0 0 -1 forward_v I I I I #
coedge $-1 $793 $591 $594 $794 forward $362 $-1 #
coedge $-1 $597 $364 $365 $585 reversed $225 $-1 #
coedge $-1 $591 $793 $364 $583 reversed $362 $-1 #
edge $-1 $598 -113.29935605945005 $795 113.29935605945005 $582 $796 forward 7 unknown #
coedge $-1 $366 $365 $793 $797 forward $141 $-1 #
edge $-1 $589 -226.5987121189001 $795 226.5987121189001 $581 $798 forward 7 unknown #
coedge $-1 $594 $593 $366 $587 reversed $578 $-1 #
edge $-1 $799 -226.5987121189001 $588 226.5987121189001 $586 $800 forward 7 unknown #
vertex $-1 $368 $801 #
vertex $-1 $600 $802 #
straight-curve $-1 226.5987121189001 0 -113.29935605945005 0 -1 0 I I #
coedge $-1 $580 $582 $369 $592 reversed $362 $-1 #
edge $-1 $595 -3.065672559170217 $598 3.065672559170217 $591 $803 forward 7 unknown #
coedge $-1 $586 $370 $375 $601 forward $578 $-1 #
coedge $-1 $370 $586 $580 $794 reversed $578 $-1 #
vertex $-1 $371 $804 #
straight-curve $-1 0 3.065672559170217 113.29935605945005 -1 0 0 I I #
coedge $-1 $372 $581 $374 $600 reversed $225 $-1 #
vertex $-1 $592 $805 #
straight-curve $-1 0 -3.065672559170217 113.29935605945005 1 0 0 I I #
edge $-1 $377 -113.29935605945005 $589 113.29935605945005 $374 $806 forward 7 unknown #
edge $-1 $378 -113.29935605945005 $588 113.29935605945005 $375 $807 forward 7 unknown #
point $-1 226.5987121189001 -3.065672559170217 113.29935605945005 #
point $-1 226.5987121189001 3.065672559170217 113.29935605945005 #
coedge $-1 $604 $604 $-1 $808 reversed $380 $-1 #
vertex $-1 $382 $809 #
ellipse-curve $-1 0 0 -0.50000000000000044 0 0 -1 1 0 0 1 I I #
point $-1 1 0 -2.090533158360544 #
face $-1 $-1 $400 $53 $-1 $810 reversed single #
loop $-1 $-1 $624 $385 #
plane-surface $-1 0 3.065672559170217 0 0 -1 0 0 0 -1 forward_v I I I I #
coedge $-1 $811 $622 $625 $812 forward $386 $-1 #
coedge $-1 $628 $388 $389 $616 reversed $238 $-1 #
coedge $-1 $622 $811 $388 $614 reversed $386 $-1 #
edge $-1 $629 -113.29935605945005 $813 113.29935605945005 $613 $814 forward 7 unknown #
coedge $-1 $390 $389 $811 $815 forward $150 $-1 #
edge $-1 $620 -226.5987121189001 $813 226.5987121189001 $612 $816 forward 7 unknown #
coedge $-1 $625 $624 $390 $618 reversed $609 $-1 #
edge $-1 $817 -226.5987121189001 $619 226.5987121189001 $617 $818 forward 7 unknown #
vertex $-1 $392 $819 #
vertex $-1 $631 $820 #
straight-curve $-1 226.5987121189001 0 -113.29935605945005 0 -1 0 I I #
coedge $-1 $611 $613 $393 $623 reversed $386 $-1 #
edge $-1 $626 -3.065672559170217 $629 3.065672559170217 $622 $821 forward 7 unknown #
coedge $-1 $617 $394 $399 $632 forward $609 $-1 #
coedge $-1 $394 $617 $611 $812 reversed $609 $-1 #
vertex $-1 $395 $822 #
straight-curve $-1 0 3.065672559170217 113.29935605945005 -1 0 0 I I #
coedge $-1 $396 $612 $398 $631 reversed $238 $-1 #
vertex $-1 $623 $823 #
straight-curve $-1 0 -3.065672559170217 113.29935605945005 1 0 0 I I #
edge $-1 $401 -113.29935605945005 $620 113.29935605945005 $398 $824 forward 7 unknown #
edge $-1 $402 -113.29935605945005 $619 113.29935605945005 $399 $825 forward 7 unknown #
point $-1 226.5987121189001 -3.065672559170217 113.29935605945005 #
point $-1 226.5987121189001 3.065672559170217 113.29935605945005 #
coedge $-1 $635 $635 $-1 $826 reversed $404 $-1 #
vertex $-1 $406 $827 #
ellipse-curve $-1 0 0 -0.50000000000000044 0 0 -1 1 0 0 1 I I #
point $-1 1 0 -2.090533158360544 #
face $-1 $-1 $424 $55 $-1 $828 reversed single #
loop $-1 $-1 $655 $409 #
plane-surface $-1 0 3.9359093502038132 0 0 -1 0 0 0 -1 forward_v I I I I #
coedge $-1 $829 $653 $656 $830 forward $410 $-1 #
coedge $-1 $659 $412 $413 $647 reversed $251 $-1 #
coedge $-1 $653 $829 $412 $645 reversed $410 $-1 #
edge $-1 $660 -113.29935605945005 $831 113.29935605945005 $644 $832 forward 7 unknown #
coedge $-1 $414 $413 $829 $833 forward $159 $-1 #
edge $-1 $651 -226.5987121189001 $831 226.5987121189001 $643 $834 forward 7 unknown #
coedge $-1 $656 $655 $414 $649 reversed $640 $-1 #
edge $-1 $835 -226.5987121189001 $650 226.5987121189001 $648 $836 forward 7 unknown #
vertex $-1 $416 $837 #
vertex $-1 $662 $838 #
straight-curve $-1 226.5987121189001 0 -113.29935605945005 0 -1 0 I I #
coedge $-1 $642 $644 $417 $654 reversed $410 $-1 #
edge $-1 $657 -3.9359093502038132 $660 3.9359093502038132 $653 $839 forward 7 unknown #
coedge $-1 $648 $418 $423 $663 forward $640 $-1 #
coedge $-1 $418 $648 $642 $830 reversed $640 $-1 #
vertex $-1 $419 $840 #
straight-curve $-1 0 3.9359093502038132 113.29935605945005 -1 0 0 I I #
coedge $-1 $420 $643 $422 $662 reversed $251 $-1 #
vertex $-1 $654 $841 #
straight-curve $-1 0 -3.9359093502038132 113.29935605945005 1 0 0 I I #
edge $-1 $425 -113.29935605945005 $651 113.29935605945005 $422 $842 forward 7 unknown #
edge $-1 $426 -113.29935605945005 $650 113.29935605945005 $423 $843 forward 7 unknown #
point $-1 226.5987121189001 -3.9359093502038132 113.29935605945005 #
point $-1 226.5987121189001 3.9359093502038132 113.29935605945005 #
coedge $-1 $666 $666 $-1 $844 reversed $428 $-1 #
vertex $-1 $430 $845 #
ellipse-curve $-1 0 0 -0.5 0 0 -1 1 0 0 1 I I #
point $-1 1 0 -3.2211523789178131 #
coedge $-1 $670 $670 $-1 $846 reversed $433 $-1 #
vertex $-1 $435 $847 #
ellipse-curve $-1 0 0 -0.5 0 0 -1 1 0 0 1 I I #
point $-1 1 0 -3.2211523789178131 #
face $-1 $-1 $453 $58 $-1 $848 reversed single #
loop $-1 $-1 $690 $438 #
plane-surface $-1 0 3.9359093502038132 0 0 -1 0 0 0 -1 forward_v I I I I #
coedge $-1 $849 $688 $691 $850 forward $439 $-1 #
coedge $-1 $694 $441 $442 $682 reversed $269 $-1 #
coedge $-1 $688 $849 $441 $680 reversed $439 $-1 #
edge $-1 $695 -113.29935605945005 $851 113.29935605945005 $679 $852 forward 7 unknown #
coedge $-1 $443 $442 $849 $853 forward $173 $-1 #
edge $-1 $686 -226.5987121189001 $851 226.5987121189001 $678 $854 forward 7 unknown #
coedge $-1 $691 $690 $443 $684 reversed $675 $-1 #
edge $-1 $855 -226.5987121189001 $685 226.5987121189001 $683 $856 forward 7 unknown #
vertex $-1 $445 $857 #
vertex $-1 $697 $858 #
straight-curve $-1 226.5987121189001 0 -113.29935605945005 0 -1 0 I I #
coedge $-1 $677 $679 $446 $689 reversed $439 $-1 #
edge $-1 $692 -3.9359093502038132 $695 3.9359093502038132 $688 $859 forward 7 unknown #
coedge $-1 $683 $447 $452 $698 forward $675 $-1 #
coedge $-1 $447 $683 $677 $850 reversed $675 $-1 #
vertex $-1 $448 $860 #
straight-curve $-1 0 3.9359093502038132 113.29935605945005 -1 0 0 I I #
coedge $-1 $449 $678 $451 $697 reversed $269 $-1 #
vertex $-1 $689 $861 #
straight-curve $-1 0 -3.9359093502038132 113.29935605945005 1 0 0 I I #
edge $-1 $454 -113.29935605945005 $686 113.29935605945005 $451 $862 forward 7 unknown #
edge $-1 $455 -113.29935605945005 $685 113.29935605945005 $452 $863 forward 7 unknown #
point $-1 226.5987121189001 -3.9359093502038132 113.29935605945005 #
point $-1 226.5987121189001 3.9359093502038132 113.29935605945005 #
coedge $-1 $701 $701 $-1 $864 reversed $457 $-1 #
vertex $-1 $459 $865 #
ellipse-curve $-1 0 0 -0.5 0 0 -1 1 0 0 1 I I #
point $-1 1 0 -3.2211523789178131 #
coedge $-1 $705 $705 $-1 $866 reversed $462 $-1 #
vertex $-1 $464 $867 #
ellipse-curve $-1 0 0 -0.5 0 0 -1 1 0 0 1 I I #
point $-1 1 0 -3.2211523789178131 #
face $-1 $-1 $482 $61 $-1 $868 reversed single #
loop $-1 $-1 $725 $467 #
plane-surface $-1 0 3.9359093502038132 0 0 -1 0 0 0 -1 forward_v I I I I #
coedge $-1 $869 $723 $726 $870 forward $468 $-1 #
coedge $-1 $729 $470 $471 $717 reversed $287 $-1 #
coedge $-1 $723 $869 $470 $715 reversed $468 $-1 #
edge $-1 $730 -113.29935605945005 $871 113.29935605945005 $714 $872 forward 7 unknown #
coedge $-1 $472 $471 $869 $873 forward $187 $-1 #
edge $-1 $721 -226.5987121189001 $871 226.5987121189001 $713 $874 forward 7 unknown #
coedge $-1 $726 $725 $472 $719 reversed $710 $-1 #
edge $-1 $875 -226.5987121189001 $720 226.5987121189001 $718 $876 forward 7 unknown #
vertex $-1 $474 $877 #
vertex $-1 $732 $878 #
straight-curve $-1 226.5987121189001 0 -113.29935605945005 0 -1 0 I I #
coedge $-1 $712 $714 $475 $724 reversed $468 $-1 #
edge $-1 $727 -3.9359093502038132 $730 3.9359093502038132 $723 $879 forward 7 unknown #
coedge $-1 $718 $476 $481 $733 forward $710 $-1 #
coedge $-1 $476 $718 $712 $870 reversed $710 $-1 #
vertex $-1 $477 $880 #
straight-curve $-1 0 3.9359093502038132 113.29935605945005 -1 0 0 I I #
coedge $-1 $478 $713 $480 $732 reversed $287 $-1 #
vertex $-1 $724 $881 #
straight-curve $-1 0 -3.9359093502038132 113.29935605945005 1 0 0 I I #
edge $-1 $483 -113.29935605945005 $721 113.29935605945005 $480 $882 forward 7 unknown #
edge $-1 $484 -113.29935605945005 $720 113.29935605945005 $481 $883 forward 7 unknown #
point $-1 226.5987121189001 -3.9359093502038132 113.29935605945005 #
point $-1 226.5987121189001 3.9359093502038132 113.29935605945005 #
coedge $-1 $736 $736 $-1 $884 reversed $486 $-1 #
vertex $-1 $488 $885 #
ellipse-curve $-1 0 0 -0.5 0 0 -1 1 0 0 1 I I #
point $-1 1 0 -3.2211523789178131 #
coedge $-1 $740 $740 $-1 $886 reversed $491 $-1 #
vertex $-1 $493 $887 #
ellipse-curve $-1 0 0 -0.5 0 0 -1 1 0 0 1 I I #
point $-1 1 0 -3.2211523789178131 #
plane-surface $-1 56.649678029725024 0 0 -1 0 0 0 0 1 forward_v I I I I #
coedge $-1 $501 $499 $503 $749 reversed $305 $-1 #
edge $-1 $514 -7.8109945652627379 $751 7.8109945652627379 $513 $888 forward 7 unknown #
vertex $-1 $749 $889 #
straight-curve $-1 -56.649678029725024 -27.36566541426156 0 0 0 -1 I I #
edge $-1 $747 -27.36566541426156 $751 27.36566541426156 $745 $890 forward 7 unknown #
straight-curve $-1 0 -27.36566541426156 -7.8109945652627379 -1 0 0 I I #
vertex $-1 $506 $891 #
straight-curve $-1 0 27.36566541426156 -7.8109945652627379 1 0 0 I I #
point $-1 56.649678029725024 27.36566541426156 -7.8109945652627379 #
point $-1 56.649678029725024 -27.36566541426156 -7.8109945652627379 #
straight-curve $-1 -56.649678029725024 0 7.8109945652627379 0 -1 0 I I #
point $-1 -56.649678029725024 27.36566541426156 7.8109945652627379 #
point $-1 -56.649678029725024 -27.36566541426156 7.8109945652627379 #
straight-curve $-1 56.649678029725024 -27.36566541426156 0 0 0 -1 I I #
straight-curve $-1 56.649678029725024 27.36566541426156 0 0 0 -1 I I #
plane-surface $-1 56.649678029725024 0 0 -1 0 0 0 0 1 forward_v I I I I #
coedge $-1 $528 $526 $530 $765 reversed $324 $-1 #
edge $-1 $541 -1.7400541651397856 $767 1.7400541651397856 $540 $892 forward 7 unknown #
vertex $-1 $765 $893 #
straight-curve $-1 -56.649678029725024 -4.7450951694782537 0 0 0 -1 I I #
edge $-1 $763 -4.7450951694782537 $767 4.7450951694782537 $761 $894 forward 7 unknown #
straight-curve $-1 0 -4.7450951694782537 -1.7400541651397856 -1 0 0 I I #
vertex $-1 $533 $895 #
straight-curve $-1 0 4.7450951694782537 -1.7400541651397856 1 0 0 I I #
point $-1 56.649678029725024 4.7450951694782537 -1.7400541651397856 #
point $-1 56.649678029725024 -4.7450951694782537 -1.7400541651397856 #
straight-curve $-1 -56.649678029725024 0 1.7400541651397856 0 -1 0 I I #
point $-1 -56.649678029725024 4.7450951694782537 1.7400541651397856 #
point $-1 -56.649678029725024 -4.7450951694782537 1.7400541651397856 #
straight-curve $-1 56.649678029725024 -4.7450951694782537 0 0 0 -1 I I #
straight-curve $-1 56.649678029725024 4.7450951694782537 0 0 0 -1 I I #
plane-surface $-1 56.649678029725024 0 0 -1 0 0 0 0 1 forward_v I I I I #
coedge $-1 $555 $553 $557 $781 reversed $343 $-1 #
edge $-1 $568 -1.7400541651397856 $783 1.7400541651397856 $567 $896 forward 7 unknown #
vertex $-1 $781 $897 #
straight-curve $-1 -56.649678029725024 -4.7450951694782511 0 0 0 -1 I I #
edge $-1 $779 -4.7450951694782511 $783 4.7450951694782511 $777 $898 forward 7 unknown #
straight-curve $-1 0 -4.7450951694782511 -1.7400541651397856 -1 0 0 I I #
vertex $-1 $560 $899 #
straight-curve $-1 0 4.7450951694782511 -1.7400541651397856 1 0 0 I I #
point $-1 56.649678029725024 4.7450951694782511 -1.7400541651397856 #
point $-1 56.649678029725024 -4.7450951694782511 -1.7400541651397856 #
straight-curve $-1 -56.649678029725024 0 1.7400541651397856 0 -1 0 I I #
point $-1 -56.649678029725024 4.7450951694782511 1.7400541651397856 #
point $-1 -56.649678029725024 -4.7450951694782511 1.7400541651397856 #
straight-curve $-1 56.649678029725024 -4.7450951694782511 0 0 0 -1 I I #
straight-curve $-1 56.649678029725024 4.7450951694782511 0 0 0 -1 I I #
plane-surface $-1 226.5987121189001 0 0 -1 0 0 0 0 1 forward_v I I I I #
coedge $-1 $582 $580 $584 $797 reversed $362 $-1 #
edge $-1 $595 -113.29935605945005 $799 113.29935605945005 $594 $900 forward 7 unknown #
vertex $-1 $797 $901 #
straight-curve $-1 -226.5987121189001 -3.065672559170217 0 0 0 -1 I I #
edge $-1 $795 -3.065672559170217 $799 3.065672559170217 $793 $902 forward 7 unknown #
straight-curve $-1 0 -3.065672559170217 -113.29935605945005 -1 0 0 I I #
vertex $-1 $587 $903 #
straight-curve $-1 0 3.065672559170217 -113.29935605945005 1 0 0 I I #
point $-1 226.5987121189001 3.065672559170217 -113.29935605945005 #
point $-1 226.5987121189001 -3.065672559170217 -113.29935605945005 #
straight-curve $-1 -226.5987121189001 0 113.29935605945005 0 -1 0 I I #
point $-1 -226.5987121189001 3.065672559170217 113.29935605945005 #
point $-1 -226.5987121189001 -3.065672559170217 113.29935605945005 #
straight-curve $-1 226.5987121189001 -3.065672559170217 0 0 0 -1 I I #
straight-curve $-1 226.5987121189001 3.065672559170217 0 0 0 -1 I I #
edge $-1 $904 1 $904 0 $604 $-1 forward 7 unknown #
point $-1 1 0 -0.50000000000000044 #
plane-surface $-1 226.5987121189001 0 0 -1 0 0 0 0 1 forward_v I I I I #
coedge $-1 $613 $611 $615 $815 reversed $386 $-1 #
edge $-1 $626 -113.29935605945005 $817 113.29935605945005 $625 $905 forward 7 unknown #
vertex $-1 $815 $906 #
straight-curve $-1 -226.5987121189001 -3.065672559170217 0 0 0 -1 I I #
edge $-1 $813 -3.065672559170217 $817 3.065672559170217 $811 $907 forward 7 unknown #
straight-curve $-1 0 -3.065672559170217 -113.29935605945005 -1 0 0 I I #
vertex $-1 $618 $908 #
straight-curve $-1 0 3.065672559170217 -113.29935605945005 1 0 0 I I #
point $-1 226.5987121189001 3.065672559170217 -113.29935605945005 #
point $-1 226.5987121189001 -3.065672559170217 -113.29935605945005 #
straight-curve $-1 -226.5987121189001 0 113.29935605945005 0 -1 0 I I #
point $-1 -226.5987121189001 3.065672559170217 113.29935605945005 #
point $-1 -226.5987121189001 -3.065672559170217 113.29935605945005 #
straight-curve $-1 226.5987121189001 -3.065672559170217 0 0 0 -1 I I #
straight-curve $-1 226.5987121189001 3.065672559170217 0 0 0 -1 I I #
edge $-1 $909 1 $909 0 $635 $-1 forward 7 unknown #
point $-1 1 0 -0.50000000000000044 #
plane-surface $-1 226.5987121189001 0 0 -1 0 0 0 0 1 forward_v I I I I #
coedge $-1 $644 $642 $646 $833 reversed $410 $-1 #
edge $-1 $657 -113.29935605945005 $835 113.29935605945005 $656 $910 forward 7 unknown #
vertex $-1 $833 $911 #
straight-curve $-1 -226.5987121189001 -3.9359093502038132 0 0 0 -1 I I #
edge $-1 $831 -3.9359093502038132 $835 3.9359093502038132 $829 $912 forward 7 unknown #
straight-curve $-1 0 -3.9359093502038132 -113.29935605945005 -1 0 0 I I #
vertex $-1 $649 $913 #
straight-curve $-1 0 3.9359093502038132 -113.29935605945005 1 0 0 I I #
point $-1 226.5987121189001 3.9359093502038132 -113.29935605945005 #
point $-1 226.5987121189001 -3.9359093502038132 -113.29935605945005 #
straight-curve $-1 -226.5987121189001 0 113.29935605945005 0 -1 0 I I #
point $-1 -226.5987121189001 3.9359093502038132 113.29935605945005 #
point $-1 -226.5987121189001 -3.9359093502038132 113.29935605945005 #
straight-curve $-1 226.5987121189001 -3.9359093502038132 0 0 0 -1 I I #
straight-curve $-1 226.5987121189001 3.9359093502038132 0 0 0 -1 I I #
edge $-1 $914 1 $914 0 $666 $-1 forward 7 unknown #
point $-1 1 0 -0.5 #
edge $-1 $915 1 $915 0 $670 $-1 forward 7 unknown #
point $-1 1 0 -0.5 #
plane-surface $-1 226.5987121189001 0 0 -1 0 0 0 0 1 forward_v I I I I #
coedge $-1 $679 $677 $681 $853 reversed $439 $-1 #
edge $-1 $692 -113.29935605945005 $855 113.29935605945005 $691 $916 forward 7 unknown #
vertex $-1 $853 $917 #
straight-curve $-1 -226.5987121189001 -3.9359093502038132 0 0 0 -1 I I #
edge $-1 $851 -3.9359093502038132 $855 3.9359093502038132 $849 $918 forward 7 unknown #
straight-curve $-1 0 -3.9359093502038132 -113.29935605945005 -1 0 0 I I #
vertex $-1 $684 $919 #
straight-curve $-1 0 3.9359093502038132 -113.29935605945005 1 0 0 I I #
point $-1 226.5987121189001 3.9359093502038132 -113.29935605945005 #
point $-1 226.5987121189001 -3.9359093502038132 -113.29935605945005 #
straight-curve $-1 -226.5987121189001 0 113.29935605945005 0 -1 0 I I #
point $-1 -226.5987121189001 3.9359093502038132 113.29935605945005 #
point $-1 -226.5987121189001 -3.9359093502038132 113.29935605945005 #
straight-curve $-1 226.5987121189001 -3.9359093502038132 0 0 0 -1 I I #
straight-curve $-1 226.5987121189001 3.9359093502038132 0 0 0 -1 I I #
edge $-1 $920 1 $920 0 $701 $-1 forward 7 unknown #
point $-1 1 0 -0.5 #
edge $-1 $921 1 $921 0 $705 $-1 forward 7 unknown #
point $-1 1 0 -0.5 #
plane-surface $-1 226.5987121189001 0 0 -1 0 0 0 0 1 forward_v I I I I #
coedge $-1 $714 $712 $716 $873 reversed $468 $-1 #
edge $-1 $727 -113.29935605945005 $875 113.29935605945005 $726 $922 forward 7 unknown #
vertex $-1 $873 $923 #
straight-curve $-1 -226.5987121189001 -3.9359093502038132 0 0 0 -1 I I #
edge $-1 $871 -3.9359093502038132 $875 3.9359093502038132 $869 $924 forward 7 unknown #
straight-curve $-1 0 -3.9359093502038132 -113.29935605945005 -1 0 0 I I #
vertex $-1 $719 $925 #
straight-curve $-1 0 3.9359093502038132 -113.29935605945005 1 0 0 I I #
point $-1 226.5987121189001 3.9359093502038132 -113.29935605945005 #
point $-1 226.5987121189001 -3.9359093502038132 -113.29935605945005 #
straight-curve $-1 -226.5987121189001 0 113.29935605945005 0 -1 0 I I #
point $-1 -226.5987121189001 3.9359093502038132 113.29935605945005 #
point $-1 -226.5987121189001 -3.9359093502038132 113.29935605945005 #
straight-curve $-1 226.5987121189001 -3.9359093502038132 0 0 0 -1 I I #
straight-curve $-1 226.5987121189001 3.9359093502038132 0 0 0 -1 I I #
edge $-1 $926 1 $926 0 $736 $-1 forward 7 unknown #
point $-1 1 0 -0.5 #
edge $-1 $927 1 $927 0 $740 $-1 forward 7 unknown #
point $-1 1 0 -0.5 #
straight-curve $-1 -56.649678029725024 27.36566541426156 0 0 0 -1 I I #
point $-1 -56.649678029725024 -27.36566541426156 -7.8109945652627379 #
straight-curve $-1 -56.649678029725024 0 -7.8109945652627379 0 1 0 I I #
point $-1 -56.649678029725024 27.36566541426156 -7.8109945652627379 #
straight-curve $-1 -56.649678029725024 4.7450951694782537 0 0 0 -1 I I #
point $-1 -56.649678029725024 -4.7450951694782537 -1.7400541651397856 #
straight-curve $-1 -56.649678029725024 0 -1.7400541651397856 0 1 0 I I #
point $-1 -56.649678029725024 4.7450951694782537 -1.7400541651397856 #
straight-curve $-1 -56.649678029725024 4.7450951694782511 0 0 0 -1 I I #
point $-1 -56.649678029725024 -4.7450951694782511 -1.7400541651397856 #
straight-curve $-1 -56.649678029725024 0 -1.7400541651397856 0 1 0 I I #
point $-1 -56.649678029725024 4.7450951694782511 -1.7400541651397856 #
straight-curve $-1 -226.5987121189001 3.065672559170217 0 0 0 -1 I I #
point $-1 -226.5987121189001 -3.065672559170217 -113.29935605945005 #
straight-curve $-1 -226.5987121189001 0 -113.29935605945005 0 1 0 I I #
point $-1 -226.5987121189001 3.065672559170217 -113.29935605945005 #
vertex $-1 $808 $928 #
straight-curve $-1 -226.5987121189001 3.065672559170217 0 0 0 -1 I I #
point $-1 -226.5987121189001 -3.065672559170217 -113.29935605945005 #
straight-curve $-1 -226.5987121189001 0 -113.29935605945005 0 1 0 I I #
point $-1 -226.5987121189001 3.065672559170217 -113.29935605945005 #
vertex $-1 $826 $929 #
straight-curve $-1 -226.5987121189001 3.9359093502038132 0 0 0 -1 I I #
point $-1 -226.5987121189001 -3.9359093502038132 -113.29935605945005 #
straight-curve $-1 -226.5987121189001 0 -113.29935605945005 0 1 0 I I #
point $-1 -226.5987121189001 3.9359093502038132 -113.29935605945005 #
vertex $-1 $844 $930 #
vertex $-1 $846 $931 #
straight-curve $-1 -226.5987121189001 3.9359093502038132 0 0 0 -1 I I #
point $-1 -226.5987121189001 -3.9359093502038132 -113.29935605945005 #
straight-curve $-1 -226.5987121189001 0 -113.29935605945005 0 1 0 I I #
point $-1 -226.5987121189001 3.9359093502038132 -113.29935605945005 #
vertex $-1 $864 $932 #
vertex $-1 $866 $933 #
straight-curve $-1 -226.5987121189001 3.9359093502038132 0 0 0 -1 I I #
point $-1 -226.5987121189001 -3.9359093502038132 -113.29935605945005 #
straight-curve $-1 -226.5987121189001 0 -113.29935605945005 0 1 0 I I #
point $-1 -226.5987121189001 3.9359093502038132 -113.29935605945005 #
vertex $-1 $884 $934 #
vertex $-1 $886 $935 #
point $-1 0 0 0.50000000000000044 #
point $-1 0 0 0.50000000000000044 #
point $-1 0 0 0.5 #
point $-1 0 0 0.5 #
point $-1 0 0 0.5 #
point $-1 0 0 0.5 #
point $-1 0 0 0.5 #
point $-1 0 0 0.5 #
End-of-ACIS-data 