500 0 6 0           
7 Unknown 11 ACIS 5.0 NT 24 Fri Mar 26 15:01:23 1999 
-1 9.9999999999999995e-007 1e-010 
body $-1 $6 $-1 $7 #
body $-1 $8 $-1 $9 #
body $-1 $10 $-1 $11 #
body $-1 $12 $-1 $13 #
body $-1 $14 $-1 $15 #
body $-1 $16 $-1 $17 #
lump $-1 $-1 $18 $0 #
transform $-1 1 0 0 0 1 0 0 0 1 53.78826258125553 29.858091583505203 9.6369275481073746 1 rotate no_reflect no_shear #
lump $-1 $-1 $19 $1 #
transform $-1 1 0 0 0 1 0 0 0 1 53.78826258125553 29.858091583505203 9.6369275481073746 1 rotate no_reflect no_shear #
lump $-1 $-1 $20 $2 #
transform $-1 1 0 0 0 1 0 0 0 1 53.78826258125553 29.858091583505203 9.6369275481073746 1 rotate no_reflect no_shear #
lump $-1 $-1 $21 $3 #
transform $-1 1 0 0 0 1 0 0 0 1 53.78826258125553 29.858091583505203 9.6369275481073746 1 rotate no_reflect no_shear #
lump $-1 $-1 $22 $4 #
transform $-1 1 0 0 0 1 0 0 0 1 53.78826258125553 29.858091583505203 9.6369275481073746 1 rotate no_reflect no_shear #
lump $-1 $-1 $23 $5 #
transform $-1 1 0 0 0 1 0 0 0 1 53.78826258125553 29.858091583505203 9.6369275481073746 1 rotate no_reflect no_shear #
shell $-1 $-1 $-1 $24 $-1 $6 #
shell $-1 $-1 $-1 $25 $-1 $8 #
shell $-1 $-1 $-1 $26 $-1 $10 #
shell $-1 $-1 $-1 $27 $-1 $12 #
shell $-1 $-1 $-1 $28 $-1 $14 #
shell $-1 $-1 $-1 $29 $-1 $16 #
face $-1 $30 $31 $18 $-1 $32 forward single #
face $-1 $33 $34 $19 $-1 $35 forward single #
face $-1 $36 $37 $20 $-1 $38 reversed single #
face $-1 $39 $40 $21 $-1 $41 reversed single #
face $-1 $42 $43 $22 $-1 $44 forward single #
face $-1 $45 $46 $23 $-1 $47 forward single #
face $-1 $48 $49 $18 $-1 $50 reversed single #
loop $-1 $-1 $51 $24 #
plane-surface $-1 0 0 9.6369275481073746 0 0 1 1 0 0 forward_v I I I I #
face $-1 $52 $53 $19 $-1 $54 reversed single #
loop $-1 $-1 $55 $25 #
plane-surface $-1 -53.78826258125553 0 0 1 0 0 0 0 -1 forward_v I I I I #
face $-1 $56 $57 $20 $-1 $58 reversed single #
loop $-1 $-1 $59 $26 #
plane-surface $-1 48.425416954942072 -18.741933036351458 0 0 1 0 0 0 1 forward_v I I I I #
face $-1 $60 $61 $21 $-1 $62 reversed single #
loop $-1 $-1 $63 $27 #
plane-surface $-1 43.062571328628607 -122.06917211881681 61.921605637958713 -1 0 0 0 -0.85716730853699208 0.51503806187062418 forward_v I I I I #
face $-1 $64 $65 $22 $-1 $66 forward single #
loop $-1 $67 $68 $28 #
cone-surface $-1 36.448606303009733 -28.49176674508708 7.8187450508596683 0 0.85716730853699208 -0.51503806187062418 0.25 0 0 1 I I 0 1 0.25 forward I I I I #
face $-1 $69 $70 $23 $-1 $71 forward single #
loop $-1 $72 $73 $29 #
cone-surface $-1 40.416985318381059 -28.49176674508708 7.8187450508596683 0 0.85716730853699208 -0.51503806187062418 0.25 0 0 1 I I 0 1 0.25 forward I I I I #
face $-1 $74 $75 $18 $-1 $76 reversed single #
loop $-1 $-1 $77 $30 #
plane-surface $-1 0 0 -9.6369275481073746 0 0 1 1 0 0 forward_v I I I I #
coedge $-1 $78 $79 $80 $81 forward $31 $-1 #
face $-1 $82 $83 $19 $-1 $84 reversed single #
loop $-1 $-1 $85 $33 #
plane-surface $-1 0 29.858091583505203 0 0 -1 0 0 0 -1 forward_v I I I I #
coedge $-1 $86 $87 $88 $89 forward $34 $-1 #
face $-1 $90 $91 $20 $-1 $92 reversed single #
loop $-1 $-1 $93 $36 #
plane-surface $-1 43.062571328628614 -16.426770526327761 0 1 0 0 0 0 -1 forward_v I I I I #
coedge $-1 $94 $95 $96 $97 forward $37 $-1 #
face $-1 $98 $99 $21 $-1 $100 reversed single #
loop $-1 $-1 $101 $39 #
plane-surface $-1 38.432795810695389 -29.858091583505214 6.5156006154825903 0 -0.85716730853699208 0.51503806187062418 1 0 0 forward_v I I I I #
coedge $-1 $102 $103 $104 $105 reversed $40 $-1 #
face $-1 $-1 $106 $22 $-1 $107 forward single #
loop $-1 $108 $109 $42 #
cone-surface $-1 36.448606303009733 -27.95603717725146 7.4968462621905285 0 0.85716730853699208 -0.51503806187062418 0.125 0 0 1 I I -0.70710678118654746 0.70710678118654746 0.125 forward I I I I #
loop $-1 $-1 $110 $28 #
coedge $-1 $68 $68 $111 $112 reversed $43 $-1 #
face $-1 $-1 $113 $23 $-1 $114 forward single #
loop $-1 $115 $116 $45 #
cone-surface $-1 40.416985318381059 -27.95603717725146 7.4968462621905285 0 0.85716730853699208 -0.51503806187062418 0.125 0 0 1 I I -0.70710678118654746 0.70710678118654746 0.125 forward I I I I #
loop $-1 $-1 $117 $29 #
coedge $-1 $73 $73 $118 $119 reversed $46 $-1 #
face $-1 $120 $121 $18 $-1 $122 reversed single #
loop $-1 $-1 $123 $48 #
plane-surface $-1 0 -29.858091583505203 0 0 1 0 0 0 1 forward_v I I I I #
coedge $-1 $124 $125 $126 $127 forward $49 $-1 #
coedge $-1 $128 $51 $129 $130 forward $31 $-1 #
coedge $-1 $51 $128 $131 $132 forward $31 $-1 #
coedge $-1 $133 $134 $51 $81 reversed $135 $-1 #
edge $-1 $136 -29.858091583505203 $137 29.858091583505203 $80 $138 forward 7 unknown #
face $-1 $139 $140 $19 $-1 $141 reversed single #
loop $-1 $-1 $88 $52 #
plane-surface $-1 -57.732267896814022 0 4.2128728589773061 0 0 1 1 0 0 forward_v I I I I #
coedge $-1 $142 $143 $86 $144 forward $53 $-1 #
coedge $-1 $145 $55 $85 $144 reversed $34 $-1 #
coedge $-1 $55 $145 $146 $147 reversed $34 $-1 #
coedge $-1 $148 $149 $55 $89 reversed $83 $-1 #
edge $-1 $150 -29.858091583505203 $151 29.858091583505203 $88 $152 forward 7 unknown #
face $-1 $153 $154 $20 $-1 $155 forward single #
loop $-1 $-1 $156 $56 #
plane-surface $-1 48.425416954942072 -14.111608016304064 0 0 -1 0 0 0 -1 forward_v I I I I #
coedge $-1 $157 $158 $159 $160 forward $57 $-1 #
coedge $-1 $161 $59 $162 $163 reversed $37 $-1 #
coedge $-1 $59 $161 $164 $165 reversed $37 $-1 #
coedge $-1 $158 $157 $59 $97 reversed $57 $-1 #
edge $-1 $166 -9.6369275481073746 $167 9.6369275481073746 $96 $168 forward 7 unknown #
face $-1 $169 $170 $21 $-1 $171 reversed single #
loop $-1 $-1 $172 $60 #
plane-surface $-1 33.80302029276217 -122.06917211881681 61.921605637958713 1 0 0 0 0.85716730853699208 -0.51503806187062418 forward_v I I I I #
coedge $-1 $173 $174 $175 $176 reversed $61 $-1 #
coedge $-1 $103 $63 $177 $178 reversed $40 $-1 #
coedge $-1 $63 $102 $173 $179 reversed $40 $-1 #
coedge $-1 $175 $180 $63 $105 forward $181 $-1 #
edge $-1 $182 31.176494475903201 $183 33.051976844202443 $104 $184 forward 7 unknown #
loop $-1 $-1 $111 $64 #
plane-surface $-1 38.432795810695389 -29.858091583505214 6.5156006154825903 0 -0.85716730853699208 0.51503806187062418 1 0 0 forward_v I I I I #
loop $-1 $-1 $185 $42 #
coedge $-1 $109 $109 $110 $186 reversed $65 $-1 #
coedge $-1 $110 $110 $109 $186 forward $67 $-1 #
coedge $-1 $111 $111 $68 $112 forward $106 $-1 #
edge $-1 $187 3.6857730777680949e-015 $187 6.283185307179604 $111 $188 forward 7 unknown #
loop $-1 $-1 $118 $69 #
plane-surface $-1 38.432795810695389 -29.858091583505214 6.5156006154825903 0 -0.85716730853699208 0.51503806187062418 1 0 0 forward_v I I I I #
loop $-1 $-1 $189 $45 #
coedge $-1 $116 $116 $117 $190 reversed $70 $-1 #
coedge $-1 $117 $117 $116 $190 forward $72 $-1 #
coedge $-1 $118 $118 $73 $119 forward $113 $-1 #
edge $-1 $191 3.6857730777680949e-015 $191 6.283185307179604 $118 $192 forward 7 unknown #
face $-1 $193 $194 $18 $-1 $195 reversed single #
loop $-1 $-1 $196 $74 #
plane-surface $-1 -53.78826258125553 0 0 1 0 0 0 0 -1 forward_v I I I I #
coedge $-1 $197 $131 $198 $199 forward $75 $-1 #
coedge $-1 $200 $77 $197 $201 forward $49 $-1 #
coedge $-1 $77 $200 $202 $203 forward $49 $-1 #
coedge $-1 $134 $133 $77 $127 reversed $135 $-1 #
edge $-1 $204 -29.858091583505203 $205 29.858091583505203 $126 $206 forward 7 unknown #
coedge $-1 $79 $78 $207 $208 forward $31 $-1 #
coedge $-1 $209 $210 $78 $130 reversed $194 $-1 #
edge $-1 $137 -53.78826258125553 $211 53.78826258125553 $129 $212 forward 7 unknown #
coedge $-1 $123 $213 $79 $132 reversed $75 $-1 #
edge $-1 $214 -53.78826258125553 $136 53.78826258125553 $131 $215 forward 7 unknown #
coedge $-1 $126 $80 $213 $216 forward $135 $-1 #
coedge $-1 $80 $126 $209 $217 reversed $135 $-1 #
loop $-1 $-1 $133 $193 #
vertex $-1 $81 $218 #
vertex $-1 $81 $219 #
straight-curve $-1 53.78826258125553 0 9.6369275481073746 0 1 0 I I #
face $-1 $220 $221 $19 $-1 $222 forward single #
loop $-1 $-1 $223 $82 #
plane-surface $-1 -61.676273212372514 0 6.9249002035423413 1 0 0 0 0 -1 forward_v I I I I #
coedge $-1 $224 $85 $149 $225 reversed $53 $-1 #
coedge $-1 $85 $224 $226 $227 reversed $53 $-1 #
edge $-1 $228 -9.6369275481073746 $151 -4.2128728589773061 $85 $229 forward 7 unknown #
coedge $-1 $87 $86 $230 $231 reversed $34 $-1 #
coedge $-1 $232 $233 $87 $147 forward $234 $-1 #
edge $-1 $150 4.2128728589773061 $235 9.6369275481073746 $146 $236 forward 7 unknown #
coedge $-1 $237 $88 $233 $238 forward $83 $-1 #
coedge $-1 $88 $237 $142 $225 forward $83 $-1 #
vertex $-1 $147 $239 #
vertex $-1 $144 $240 #
straight-curve $-1 -53.78826258125553 0 4.2128728589773061 0 1 0 I I #
face $-1 $241 $242 $20 $-1 $243 reversed single #
loop $-1 $-1 $244 $90 #
plane-surface $-1 0 0 9.6369275481073746 0 0 1 1 0 0 forward_v I I I I #
coedge $-1 $245 $246 $247 $248 reversed $91 $-1 #
coedge $-1 $96 $93 $249 $250 reversed $57 $-1 #
coedge $-1 $93 $96 $251 $252 reversed $57 $-1 #
coedge $-1 $246 $245 $93 $160 reversed $91 $-1 #
edge $-1 $253 -9.6369275481073746 $254 9.6369275481073746 $159 $255 forward 7 unknown #
coedge $-1 $95 $94 $256 $257 reversed $37 $-1 #
coedge $-1 $249 $258 $94 $163 forward $242 $-1 #
edge $-1 $259 -29.575554103784494 $167 -18.849862851157578 $162 $260 forward 7 unknown #
coedge $-1 $261 $251 $95 $165 forward $154 $-1 #
edge $-1 $166 18.849862851157578 $262 29.575554103784494 $164 $263 forward 7 unknown #
vertex $-1 $165 $264 #
vertex $-1 $163 $265 #
straight-curve $-1 43.062571328628614 -18.741933036351458 0 0 0 -1 I I #
face $-1 $-1 $181 $21 $-1 $266 forward single #
loop $-1 $-1 $267 $98 #
plane-surface $-1 0 -29.858091583505203 0 0 1 0 0 0 1 forward_v I I I I #
coedge $-1 $268 $269 $270 $271 reversed $99 $-1 #
coedge $-1 $272 $101 $103 $179 forward $61 $-1 #
coedge $-1 $101 $272 $268 $273 forward $61 $-1 #
coedge $-1 $270 $104 $101 $176 forward $181 $-1 #
edge $-1 $183 -23.846173423280913 $274 -14.586622387414476 $175 $275 forward 7 unknown #
coedge $-1 $276 $277 $102 $178 forward $170 $-1 #
edge $-1 $278 -24.445202203496748 $182 -21.32387527087198 $177 $279 forward 7 unknown #
edge $-1 $183 -3.6414442099433857 $278 -2.0715698412831909e-014 $103 $280 forward 7 unknown #
coedge $-1 $104 $270 $276 $281 forward $181 $-1 #
loop $-1 $-1 $270 $169 #
vertex $-1 $178 $282 #
vertex $-1 $105 $283 #
straight-curve $-1 43.062571328628607 -61.034586059408404 9.6369275481073728 0 1 0 I I #
coedge $-1 $185 $185 $-1 $284 reversed $108 $-1 #
edge $-1 $285 0 $285 6.2831853071796004 $109 $286 forward 7 unknown #
vertex $-1 $112 $287 #
ellipse-curve $-1 36.448606303009733 -28.920350399355588 8.0762640817949869 0 -0.85716730853699208 0.51503806187062418 0.25 0 0 1 I I #
coedge $-1 $189 $189 $-1 $288 reversed $115 $-1 #
edge $-1 $289 0 $289 6.2831853071796004 $116 $290 forward 7 unknown #
vertex $-1 $119 $291 #
ellipse-curve $-1 40.416985318381059 -28.920350399355588 8.0762640817949869 0 -0.85716730853699208 0.51503806187062418 0.25 0 0 1 I I #
face $-1 $-1 $135 $18 $-1 $292 reversed single #
loop $-1 $-1 $209 $120 #
plane-surface $-1 0 29.858091583505203 0 0 -1 0 0 0 -1 forward_v I I I I #
coedge $-1 $293 $207 $210 $294 forward $121 $-1 #
coedge $-1 $213 $123 $124 $201 reversed $75 $-1 #
coedge $-1 $207 $293 $123 $199 reversed $121 $-1 #
edge $-1 $214 -9.6369275481073746 $295 9.6369275481073746 $198 $296 forward 7 unknown #
coedge $-1 $125 $124 $293 $297 forward $49 $-1 #
edge $-1 $205 -53.78826258125553 $295 53.78826258125553 $197 $298 forward 7 unknown #
coedge $-1 $210 $209 $125 $203 reversed $194 $-1 #
edge $-1 $299 -53.78826258125553 $204 53.78826258125553 $202 $300 forward 7 unknown #
vertex $-1 $127 $301 #
vertex $-1 $216 $302 #
straight-curve $-1 53.78826258125553 0 -9.6369275481073746 0 -1 0 I I #
coedge $-1 $196 $198 $128 $208 reversed $121 $-1 #
edge $-1 $211 -29.858091583505203 $214 29.858091583505203 $207 $303 forward 7 unknown #
coedge $-1 $202 $129 $134 $217 forward $194 $-1 #
coedge $-1 $129 $202 $196 $294 reversed $194 $-1 #
vertex $-1 $130 $304 #
straight-curve $-1 0 29.858091583505203 9.6369275481073746 -1 0 0 I I #
coedge $-1 $131 $197 $133 $216 reversed $75 $-1 #
vertex $-1 $208 $305 #
straight-curve $-1 0 -29.858091583505203 9.6369275481073746 1 0 0 I I #
edge $-1 $136 -9.6369275481073746 $205 9.6369275481073746 $133 $306 forward 7 unknown #
edge $-1 $137 -9.6369275481073746 $204 9.6369275481073746 $134 $307 forward 7 unknown #
point $-1 53.78826258125553 -29.858091583505203 9.6369275481073746 #
point $-1 53.78826258125553 29.858091583505203 9.6369275481073746 #
face $-1 $-1 $234 $19 $-1 $308 reversed single #
loop $-1 $-1 $230 $139 #
plane-surface $-1 0 0 9.6369275481073746 0 0 1 1 0 0 forward_v I I I I #
coedge $-1 $309 $310 $224 $311 forward $140 $-1 #
coedge $-1 $143 $142 $223 $311 reversed $53 $-1 #
edge $-1 $312 -3.944005315558492 $151 3.944005315558492 $142 $313 forward 7 unknown #
coedge $-1 $314 $230 $143 $227 forward $221 $-1 #
edge $-1 $228 53.78826258125553 $315 61.676273212372514 $143 $316 forward 7 unknown #
vertex $-1 $227 $317 #
straight-curve $-1 -53.78826258125553 29.858091583505203 0 0 0 -1 I I #
coedge $-1 $226 $318 $145 $231 forward $221 $-1 #
edge $-1 $235 -29.858091583505203 $228 29.858091583505203 $230 $319 forward 7 unknown #
coedge $-1 $320 $146 $318 $321 reversed $234 $-1 #
coedge $-1 $146 $320 $148 $238 reversed $234 $-1 #
loop $-1 $-1 $146 $220 #
vertex $-1 $147 $322 #
straight-curve $-1 -53.78826258125553 -29.858091583505203 0 0 0 1 I I #
coedge $-1 $149 $148 $309 $323 forward $83 $-1 #
edge $-1 $150 -3.944005315558492 $324 3.944005315558492 $233 $325 forward 7 unknown #
point $-1 -53.78826258125553 -29.858091583505203 4.2128728589773061 #
point $-1 -53.78826258125553 29.858091583505203 4.2128728589773061 #
face $-1 $-1 $326 $20 $-1 $327 reversed single #
loop $-1 $-1 $328 $153 #
plane-surface $-1 0 0 -9.6369275481073746 0 0 1 1 0 0 forward_v I I I I #
coedge $-1 $251 $261 $246 $329 forward $154 $-1 #
coedge $-1 $159 $156 $328 $330 reversed $91 $-1 #
coedge $-1 $156 $159 $244 $329 reversed $91 $-1 #
coedge $-1 $331 $332 $156 $248 forward $326 $-1 #
edge $-1 $333 -9.6369275481073746 $334 9.6369275481073746 $247 $335 forward 7 unknown #
coedge $-1 $328 $162 $157 $250 forward $242 $-1 #
edge $-1 $167 -10.528547773187578 $254 -5.8982227531401836 $249 $336 forward 7 unknown #
coedge $-1 $164 $244 $158 $252 forward $154 $-1 #
edge $-1 $253 5.8982227531401836 $166 10.528547773187578 $251 $337 forward 7 unknown #
vertex $-1 $252 $338 #
vertex $-1 $250 $339 #
straight-curve $-1 43.062571328628614 -14.111608016304064 0 0 0 -1 I I #
coedge $-1 $332 $331 $161 $257 forward $326 $-1 #
edge $-1 $262 -9.6369275481073746 $259 9.6369275481073746 $256 $340 forward 7 unknown #
coedge $-1 $162 $328 $332 $341 forward $242 $-1 #
vertex $-1 $257 $342 #
straight-curve $-1 24.212708477471036 -18.741933036351458 -9.6369275481073746 -1 0 0 I I #
coedge $-1 $244 $164 $331 $343 forward $154 $-1 #
vertex $-1 $343 $344 #
straight-curve $-1 24.212708477471036 -18.741933036351458 9.6369275481073746 1 0 0 I I #
point $-1 43.062571328628614 -18.741933036351458 9.6369275481073746 #
point $-1 43.062571328628614 -18.741933036351458 -9.6369275481073746 #
plane-surface $-1 0 0 9.6369275481073746 0 0 1 1 0 0 forward_v I I I I #
coedge $-1 $277 $276 $269 $345 forward $170 $-1 #
coedge $-1 $269 $172 $174 $273 reversed $99 $-1 #
coedge $-1 $172 $268 $267 $345 reversed $99 $-1 #
coedge $-1 $180 $175 $172 $271 forward $181 $-1 #
edge $-1 $274 -33.051976844202443 $346 -31.176494475903201 $270 $347 forward 7 unknown #
coedge $-1 $174 $173 $277 $348 reversed $61 $-1 #
edge $-1 $349 2.0715698412831909e-014 $274 3.6414442099433857 $268 $350 forward 7 unknown #
vertex $-1 $176 $351 #
straight-curve $-1 19.216397905347694 -27.982609215205965 9.6369275481073746 -1 0 0 I I #
coedge $-1 $267 $177 $180 $281 reversed $170 $-1 #
coedge $-1 $177 $267 $272 $348 forward $170 $-1 #
vertex $-1 $178 $352 #
straight-curve $-1 43.062571328628607 -29.8580915835052 30.960802818979356 0 0 1 I I #
straight-curve $-1 43.062571328628607 -29.858091583505214 6.5156006154825903 0 -0.51503806187062418 -0.85716730853699208 I I #
edge $-1 $346 33.80302029276217 $182 43.062571328628607 $276 $353 forward 7 unknown #
point $-1 43.062571328628607 -29.858091583505203 9.6369275481073746 #
point $-1 43.062571328628607 -27.982609215205965 9.6369275481073746 #
edge $-1 $354 1 $354 0 $185 $-1 forward 7 unknown #
vertex $-1 $186 $355 #
ellipse-curve $-1 36.448606303009733 -28.063183090818583 7.5612260199243568 0 -0.85716730853699208 0.51503806187062418 0.25 0 0 1 I I #
point $-1 36.698606303009733 -28.920350399355577 8.0762640817949816 #
edge $-1 $356 1 $356 0 $189 $-1 forward 7 unknown #
vertex $-1 $190 $357 #
ellipse-curve $-1 40.416985318381059 -28.063183090818583 7.5612260199243568 0 -0.85716730853699208 0.51503806187062418 0.25 0 0 1 I I #
point $-1 40.666985318381059 -28.920350399355577 8.0762640817949816 #
plane-surface $-1 53.78826258125553 0 0 -1 0 0 0 0 1 forward_v I I I I #
coedge $-1 $198 $196 $200 $297 reversed $121 $-1 #
edge $-1 $211 -9.6369275481073746 $299 9.6369275481073746 $210 $358 forward 7 unknown #
vertex $-1 $297 $359 #
straight-curve $-1 -53.78826258125553 -29.858091583505203 0 0 0 -1 I I #
edge $-1 $295 -29.858091583505203 $299 29.858091583505203 $293 $360 forward 7 unknown #
straight-curve $-1 0 -29.858091583505203 -9.6369275481073746 -1 0 0 I I #
vertex $-1 $203 $361 #
straight-curve $-1 0 29.858091583505203 -9.6369275481073746 1 0 0 I I #
point $-1 53.78826258125553 29.858091583505203 -9.6369275481073746 #
point $-1 53.78826258125553 -29.858091583505203 -9.6369275481073746 #
straight-curve $-1 -53.78826258125553 0 9.6369275481073746 0 -1 0 I I #
point $-1 -53.78826258125553 29.858091583505203 9.6369275481073746 #
point $-1 -53.78826258125553 -29.858091583505203 9.6369275481073746 #
straight-curve $-1 53.78826258125553 -29.858091583505203 0 0 0 -1 I I #
straight-curve $-1 53.78826258125553 29.858091583505203 0 0 0 -1 I I #
plane-surface $-1 0 -29.858091583505203 0 0 1 0 0 0 1 forward_v I I I I #
coedge $-1 $362 $223 $237 $323 reversed $140 $-1 #
coedge $-1 $223 $362 $314 $363 reversed $140 $-1 #
edge $-1 $315 -2.7120273445650351 $312 2.7120273445650351 $224 $364 forward 7 unknown #
vertex $-1 $225 $365 #
straight-curve $-1 -57.732267896814022 29.858091583505203 4.2128728589773061 1 0 0 I I #
coedge $-1 $318 $226 $310 $363 forward $221 $-1 #
vertex $-1 $227 $366 #
straight-curve $-1 0 29.858091583505203 9.6369275481073746 -1 0 0 I I #
point $-1 -53.78826258125553 29.858091583505203 9.6369275481073746 #
coedge $-1 $230 $314 $232 $321 forward $221 $-1 #
straight-curve $-1 -53.78826258125553 0 9.6369275481073746 0 1 0 I I #
coedge $-1 $233 $232 $362 $367 forward $234 $-1 #
edge $-1 $368 -61.676273212372514 $235 -53.78826258125553 $232 $369 forward 7 unknown #
point $-1 -53.78826258125553 -29.858091583505203 9.6369275481073746 #
edge $-1 $324 -29.858091583505203 $312 29.858091583505203 $309 $370 forward 7 unknown #
vertex $-1 $323 $371 #
straight-curve $-1 -57.732267896814022 -29.858091583505203 4.2128728589773061 -1 0 0 I I #
loop $-1 $-1 $247 $241 #
plane-surface $-1 53.78826258125553 0 0 -1 0 0 0 0 1 forward_v I I I I #
coedge $-1 $258 $249 $245 $330 forward $242 $-1 #
edge $-1 $334 -29.575554103784494 $253 -18.849862851157578 $244 $372 forward 7 unknown #
edge $-1 $254 18.849862851157578 $333 29.575554103784494 $328 $373 forward 7 unknown #
coedge $-1 $256 $247 $261 $343 reversed $326 $-1 #
coedge $-1 $247 $256 $258 $341 reversed $326 $-1 #
vertex $-1 $341 $374 #
vertex $-1 $248 $375 #
straight-curve $-1 53.78826258125553 -14.111608016304064 0 0 0 1 I I #
straight-curve $-1 43.062571328628614 -8.2133852631638806 -9.6369275481073746 0 1 0 I I #
straight-curve $-1 43.062571328628614 -8.2133852631638806 9.6369275481073746 0 -1 0 I I #
point $-1 43.062571328628614 -14.111608016304064 9.6369275481073746 #
point $-1 43.062571328628614 -14.111608016304064 -9.6369275481073746 #
straight-curve $-1 53.78826258125553 -18.741933036351458 0 0 0 -1 I I #
edge $-1 $333 14.111608016304064 $259 18.741933036351458 $332 $376 forward 7 unknown #
point $-1 53.78826258125553 -18.741933036351458 -9.6369275481073746 #
edge $-1 $262 -18.741933036351458 $334 -14.111608016304064 $331 $377 forward 7 unknown #
point $-1 53.78826258125553 -18.741933036351458 9.6369275481073746 #
edge $-1 $346 21.32387527087198 $349 24.445202203496748 $267 $378 forward 7 unknown #
vertex $-1 $281 $379 #
straight-curve $-1 33.80302029276217 -61.034586059408404 9.6369275481073728 0 -1 0 I I #
edge $-1 $349 14.586622387414476 $278 23.846173423280913 $277 $380 forward 7 unknown #
vertex $-1 $348 $381 #
straight-curve $-1 33.80302029276217 -29.858091583505214 6.5156006154825903 0 0.51503806187062418 0.85716730853699208 I I #
point $-1 33.80302029276217 -27.982609215205965 9.6369275481073746 #
point $-1 43.062571328628607 -29.858091583505203 6.515600615482608 #
straight-curve $-1 0 -29.858091583505203 9.6369275481073746 1 0 0 I I #
vertex $-1 $284 $382 #
point $-1 36.698606303009733 -28.063183090818583 7.5612260199243568 #
vertex $-1 $288 $383 #
point $-1 40.666985318381059 -28.063183090818583 7.5612260199243568 #
straight-curve $-1 -53.78826258125553 29.858091583505203 0 0 0 -1 I I #
point $-1 -53.78826258125553 -29.858091583505203 -9.6369275481073746 #
straight-curve $-1 -53.78826258125553 0 -9.6369275481073746 0 1 0 I I #
point $-1 -53.78826258125553 29.858091583505203 -9.6369275481073746 #
coedge $-1 $310 $309 $320 $367 reversed $140 $-1 #
edge $-1 $315 -29.858091583505203 $368 29.858091583505203 $310 $384 forward 7 unknown #
straight-curve $-1 -61.676273212372514 29.858091583505203 6.9249002035423413 0 0 -1 I I #
point $-1 -61.676273212372514 29.858091583505203 4.2128728589773061 #
point $-1 -61.676273212372514 29.858091583505203 9.6369275481073764 #
edge $-1 $368 -2.7120273445650351 $324 2.7120273445650351 $362 $385 forward 7 unknown #
vertex $-1 $363 $386 #
straight-curve $-1 0 -29.858091583505203 9.6369275481073746 1 0 0 I I #
straight-curve $-1 -61.676273212372514 0 4.2128728589773061 0 1 0 I I #
point $-1 -61.676273212372514 -29.858091583505203 4.2128728589773061 #
straight-curve $-1 24.212708477471036 -14.111608016304064 9.6369275481073746 -1 0 0 I I #
straight-curve $-1 24.212708477471036 -14.111608016304064 -9.6369275481073746 1 0 0 I I #
point $-1 53.78826258125553 -14.111608016304064 -9.6369275481073746 #
point $-1 53.78826258125553 -14.111608016304064 9.6369275481073746 #
straight-curve $-1 53.78826258125553 0 -9.6369275481073746 0 -1 0 I I #
straight-curve $-1 53.78826258125553 0 9.6369275481073746 0 1 0 I I #
straight-curve $-1 33.80302029276217 -29.8580915835052 30.960802818979356 0 0 -1 I I #
point $-1 33.80302029276217 -29.858091583505203 9.6369275481073746 #
straight-curve $-1 19.216397905347694 -29.858091583505203 6.5156006154826072 1 0 0 I I #
point $-1 33.80302029276217 -29.858091583505203 6.515600615482608 #
point $-1 36.448606303009733 -27.848891263684337 7.4324665044567002 #
point $-1 40.416985318381059 -27.848891263684337 7.4324665044567002 #
straight-curve $-1 -61.676273212372514 0 9.6369275481073764 0 -1 0 I I #
straight-curve $-1 -61.676273212372514 -29.858091583505203 6.9249002035423413 0 0 -1 I I #
point $-1 -61.676273212372514 -29.858091583505203 9.6369275481073764 #
End-of-ACIS-data 