500 0 6 0           
7 Unknown 11 ACIS 5.0 NT 24 Fri Mar 26 01:17:45 1999 
-1 9.9999999999999995e-007 1e-010 
body $-1 $6 $-1 $7 #
body $-1 $8 $-1 $9 #
body $-1 $10 $-1 $11 #
body $-1 $12 $-1 $13 #
body $-1 $14 $-1 $15 #
body $-1 $16 $-1 $17 #
lump $-1 $-1 $18 $0 #
transform $-1 1 0 0 0 1 0 0 0 1 54.508499404889065 27.519081792817722 7.8910654199998786 1 rotate no_reflect no_shear #
lump $-1 $-1 $19 $1 #
transform $-1 1 0 0 0 1 0 0 0 1 54.508499404889065 27.519081792817722 7.8910654199998786 1 rotate no_reflect no_shear #
lump $-1 $-1 $20 $2 #
transform $-1 1 0 0 0 1 0 0 0 1 54.508499404889065 27.519081792817722 7.8910654199998786 1 rotate no_reflect no_shear #
lump $-1 $-1 $21 $3 #
transform $-1 1 0 0 0 1 0 0 0 1 54.508499404889065 27.519081792817722 7.8910654199998786 1 rotate no_reflect no_shear #
lump $-1 $-1 $22 $4 #
transform $-1 1 0 0 0 1 0 0 0 1 54.508499404889065 27.519081792817722 7.8910654199998786 1 rotate no_reflect no_shear #
lump $-1 $-1 $23 $5 #
transform $-1 1 0 0 0 1 0 0 0 1 54.508499404889065 27.519081792817722 7.8910654199998786 1 rotate no_reflect no_shear #
shell $-1 $-1 $-1 $24 $-1 $6 #
shell $-1 $-1 $-1 $25 $-1 $8 #
shell $-1 $-1 $-1 $26 $-1 $10 #
shell $-1 $-1 $-1 $27 $-1 $12 #
shell $-1 $-1 $-1 $28 $-1 $14 #
shell $-1 $-1 $-1 $29 $-1 $16 #
face $-1 $30 $31 $18 $-1 $32 forward single #
face $-1 $33 $34 $19 $-1 $35 reversed single #
face $-1 $36 $37 $20 $-1 $38 forward single #
face $-1 $39 $40 $21 $-1 $41 reversed single #
face $-1 $42 $43 $22 $-1 $44 forward single #
face $-1 $45 $46 $23 $-1 $47 forward single #
face $-1 $48 $49 $18 $-1 $50 reversed single #
loop $-1 $-1 $51 $24 #
plane-surface $-1 0 0 7.8910654199998786 0 0 1 1 0 0 forward_v I I I I #
face $-1 $52 $53 $19 $-1 $54 reversed single #
loop $-1 $-1 $55 $25 #
plane-surface $-1 54.508501193692965 23.54566813600383 155.9655794386002 0 -1 0 -0.70710678939079041 0 -0.70710677298230451 forward_v I I I I #
face $-1 $56 $57 $20 $-1 $58 forward single #
loop $-1 $59 $60 $26 #
cone-surface $-1 49.752153182318416 19.158235131689665 3.1347191662773453 -0.70710678939079041 0 -0.70710677298230451 1.414213545964609 0 -1.4142135787815808 1 I I 0 1 2 forward I I I I #
face $-1 $61 $62 $21 $-1 $63 reversed single #
loop $-1 $-1 $64 $27 #
plane-surface $-1 -131.59515942229092 -20.501203197976373 80.758203873171368 0 -1 0 0.70710678939079041 0 -0.70710677298230451 forward_v I I I I #
face $-1 $65 $66 $22 $-1 $67 forward single #
loop $-1 $68 $69 $28 #
cone-surface $-1 -51.833876326724521 -25.513973622863052 5.2164423059858445 0.70710678939079041 0 -0.70710677298230451 0.70710677298230451 0 0.70710678939079041 1 I I 0 1 1 forward I I I I #
face $-1 $70 $71 $23 $-1 $72 forward single #
loop $-1 $73 $74 $29 #
cone-surface $-1 -51.833876326724521 -22.506311367931048 5.2164423059858445 0.70710678939079041 0 -0.70710677298230451 0.70710677298230451 0 0.70710678939079041 1 I I 0 1 1 forward I I I I #
face $-1 $75 $76 $18 $-1 $77 reversed single #
loop $-1 $-1 $78 $30 #
plane-surface $-1 0 0 -7.8910654199998786 0 0 1 1 0 0 forward_v I I I I #
coedge $-1 $79 $80 $81 $82 forward $31 $-1 #
face $-1 $83 $84 $19 $-1 $85 reversed single #
loop $-1 $-1 $86 $33 #
plane-surface $-1 -22.578158823708876 19.158235131689672 78.878921210002261 0.70710678939079041 0 0.70710677298230451 0.70710677298230451 0 -0.70710678939079041 forward_v I I I I #
coedge $-1 $87 $88 $89 $90 reversed $34 $-1 #
face $-1 $-1 $91 $20 $-1 $92 forward single #
loop $-1 $93 $94 $36 #
cone-surface $-1 47.338102213295002 19.158235131689665 0.72066825327223416 -0.70710678939079041 0 -0.70710677298230451 0.70710677298230451 0 -0.70710678939079041 1 I I -0.70710678118654746 0.70710678118654746 1 forward I I I I #
loop $-1 $-1 $95 $26 #
coedge $-1 $60 $60 $96 $97 reversed $37 $-1 #
face $-1 $98 $99 $21 $-1 $100 reversed single #
loop $-1 $-1 $101 $39 #
plane-surface $-1 -54.508499404889079 -24.010142495397048 3.6715456445734276 -0.70710678939079041 0 0.70710677298230451 0.70710677298230451 0 0.70710678939079041 forward_v I I I I #
coedge $-1 $102 $103 $104 $105 reversed $40 $-1 #
face $-1 $-1 $106 $22 $-1 $107 forward single #
loop $-1 $108 $109 $42 #
cone-surface $-1 -50.915459692620615 -25.513973622863052 4.2980256931938934 0.70710678939079041 0 -0.70710677298230451 0.35355338649115226 0 0.35355339469539521 1 I I -0.70710678118654746 0.70710678118654746 0.5 forward I I I I #
loop $-1 $-1 $110 $28 #
coedge $-1 $69 $69 $111 $112 reversed $43 $-1 #
face $-1 $-1 $113 $23 $-1 $114 forward single #
loop $-1 $115 $116 $45 #
cone-surface $-1 -50.915459692620615 -22.506311367931048 4.2980256931938934 0.70710678939079041 0 -0.70710677298230451 0.35355338649115226 0 0.35355339469539521 1 I I -0.70710678118654746 0.70710678118654746 0.5 forward I I I I #
loop $-1 $-1 $117 $29 #
coedge $-1 $74 $74 $118 $119 reversed $46 $-1 #
face $-1 $120 $121 $18 $-1 $122 reversed single #
loop $-1 $-1 $123 $48 #
plane-surface $-1 0 -27.519081792817722 0 0 1 0 0 0 1 forward_v I I I I #
coedge $-1 $124 $125 $126 $127 forward $49 $-1 #
coedge $-1 $128 $51 $129 $130 forward $31 $-1 #
coedge $-1 $51 $128 $131 $132 forward $31 $-1 #
coedge $-1 $133 $134 $51 $82 reversed $135 $-1 #
edge $-1 $136 -27.519081792817722 $137 27.519081792817722 $81 $138 forward 7 unknown #
face $-1 $139 $140 $19 $-1 $141 forward single #
loop $-1 $-1 $142 $52 #
plane-surface $-1 54.508501193692965 14.770802127375514 155.9655794386002 0 1 0 0.70710678939079041 0 0.70710677298230451 forward_v I I I I #
coedge $-1 $143 $144 $145 $146 reversed $53 $-1 #
coedge $-1 $88 $55 $147 $148 reversed $34 $-1 #
coedge $-1 $55 $87 $143 $149 reversed $34 $-1 #
coedge $-1 $145 $150 $55 $90 forward $140 $-1 #
edge $-1 $151 -27.254248808042583 $152 -21.155444722166528 $89 $153 forward 7 unknown #
loop $-1 $-1 $96 $56 #
plane-surface $-1 -22.578158823708876 19.158235131689672 78.878921210002261 0.70710678939079041 0 0.70710677298230451 0.70710677298230451 0 -0.70710678939079041 forward_v I I I I #
loop $-1 $-1 $154 $36 #
coedge $-1 $94 $94 $95 $155 reversed $57 $-1 #
coedge $-1 $95 $95 $94 $155 forward $59 $-1 #
coedge $-1 $96 $96 $60 $97 forward $91 $-1 #
edge $-1 $156 0 $156 6.2831853071796004 $96 $157 forward 7 unknown #
face $-1 $158 $159 $21 $-1 $160 forward single #
loop $-1 $-1 $161 $61 #
plane-surface $-1 0 -27.519081792817722 0 0 1 0 0 0 1 forward_v I I I I #
coedge $-1 $162 $163 $164 $165 reversed $62 $-1 #
coedge $-1 $103 $64 $166 $167 reversed $40 $-1 #
coedge $-1 $64 $102 $162 $168 reversed $40 $-1 #
coedge $-1 $164 $169 $64 $105 forward $170 $-1 #
edge $-1 $171 32.488036516585808 $172 36.707556292012242 $104 $173 forward 7 unknown #
loop $-1 $-1 $111 $65 #
plane-surface $-1 -54.508499404889079 -24.010142495397048 3.6715456445734276 -0.70710678939079041 0 0.70710677298230451 0.70710677298230451 0 0.70710678939079041 forward_v I I I I #
loop $-1 $-1 $174 $42 #
coedge $-1 $109 $109 $110 $175 reversed $66 $-1 #
coedge $-1 $110 $110 $109 $175 forward $68 $-1 #
coedge $-1 $111 $111 $69 $112 forward $106 $-1 #
edge $-1 $176 0 $176 6.2831853071796004 $111 $177 forward 7 unknown #
loop $-1 $-1 $118 $70 #
plane-surface $-1 -54.508499404889079 -24.010142495397048 3.6715456445734276 -0.70710678939079041 0 0.70710677298230451 0.70710677298230451 0 0.70710678939079041 forward_v I I I I #
loop $-1 $-1 $178 $45 #
coedge $-1 $116 $116 $117 $179 reversed $71 $-1 #
coedge $-1 $117 $117 $116 $179 forward $73 $-1 #
coedge $-1 $118 $118 $74 $119 forward $113 $-1 #
edge $-1 $180 0 $180 6.2831853071796004 $118 $181 forward 7 unknown #
face $-1 $182 $183 $18 $-1 $184 reversed single #
loop $-1 $-1 $185 $75 #
plane-surface $-1 -54.508499404889065 0 0 1 0 0 0 0 -1 forward_v I I I I #
coedge $-1 $186 $131 $187 $188 forward $76 $-1 #
coedge $-1 $189 $78 $186 $190 forward $49 $-1 #
coedge $-1 $78 $189 $191 $192 forward $49 $-1 #
coedge $-1 $134 $133 $78 $127 reversed $135 $-1 #
edge $-1 $193 -27.519081792817722 $194 27.519081792817722 $126 $195 forward 7 unknown #
coedge $-1 $80 $79 $196 $197 forward $31 $-1 #
coedge $-1 $198 $199 $79 $130 reversed $183 $-1 #
edge $-1 $137 -54.508499404889065 $200 54.508499404889065 $129 $201 forward 7 unknown #
coedge $-1 $123 $202 $80 $132 reversed $76 $-1 #
edge $-1 $203 -54.508499404889065 $136 54.508499404889065 $131 $204 forward 7 unknown #
coedge $-1 $126 $81 $202 $205 forward $135 $-1 #
coedge $-1 $81 $126 $198 $206 reversed $135 $-1 #
loop $-1 $-1 $133 $182 #
vertex $-1 $82 $207 #
vertex $-1 $82 $208 #
straight-curve $-1 54.508499404889065 0 7.8910654199998786 0 1 0 I I #
face $-1 $-1 $209 $19 $-1 $210 reversed single #
loop $-1 $-1 $89 $83 #
plane-surface $-1 0 0 7.8910654199998786 0 0 1 1 0 0 forward_v I I I I #
coedge $-1 $211 $212 $213 $214 reversed $84 $-1 #
coedge $-1 $215 $86 $88 $149 forward $53 $-1 #
coedge $-1 $86 $215 $211 $216 forward $53 $-1 #
coedge $-1 $213 $89 $86 $146 forward $140 $-1 #
edge $-1 $152 -13.966550570158994 $217 -5.1916845615306784 $145 $218 forward 7 unknown #
coedge $-1 $219 $220 $87 $148 forward $209 $-1 #
edge $-1 $221 -76.190528526699666 $151 -70.091724299300225 $147 $222 forward 7 unknown #
edge $-1 $152 100.39198725720364 $221 109.01699880977814 $88 $223 forward 7 unknown #
coedge $-1 $89 $213 $219 $224 forward $140 $-1 #
vertex $-1 $148 $225 #
vertex $-1 $90 $226 #
straight-curve $-1 27.254250596846482 23.54566813600383 7.891065419999876 -1 0 0 I I #
coedge $-1 $154 $154 $-1 $227 reversed $93 $-1 #
edge $-1 $228 0 $228 6.2831853071796004 $94 $229 forward 7 unknown #
vertex $-1 $97 $230 #
ellipse-curve $-1 51.459097361951031 19.158235131689665 4.8416633063001431 0.70710678939079041 0 0.70710677298230451 1.414213545964609 0 -1.4142135787815808 1 I I #
face $-1 $-1 $170 $21 $-1 $231 reversed single #
loop $-1 $-1 $232 $98 #
plane-surface $-1 0 0 7.8910654199998786 0 0 1 1 0 0 forward_v I I I I #
coedge $-1 $233 $234 $163 $235 forward $99 $-1 #
coedge $-1 $236 $101 $103 $168 forward $62 $-1 #
coedge $-1 $101 $236 $161 $235 reversed $62 $-1 #
coedge $-1 $237 $104 $101 $165 forward $170 $-1 #
edge $-1 $172 8.4961319502778494 $238 15.514010545119199 $164 $239 forward 7 unknown #
coedge $-1 $240 $232 $102 $167 forward $159 $-1 #
edge $-1 $241 -15.508599983768441 $171 -11.289080306256395 $166 $242 forward 7 unknown #
edge $-1 $172 2.0097183471152325e-014 $241 5.9673020238736365 $103 $243 forward 7 unknown #
coedge $-1 $104 $237 $240 $244 reversed $170 $-1 #
loop $-1 $-1 $164 $158 #
vertex $-1 $244 $245 #
vertex $-1 $105 $246 #
straight-curve $-1 -54.508499404889065 -20.501203197976373 40.379101936585684 0 0 -1 I I #
coedge $-1 $174 $174 $-1 $247 reversed $108 $-1 #
edge $-1 $248 0 $248 6.2831853071796004 $109 $249 forward 7 unknown #
vertex $-1 $112 $250 #
ellipse-curve $-1 -52.398739566133045 -25.513973622863052 5.781305532286658 -0.70710678939079041 0 0.70710677298230451 0.70710677298230451 0 0.70710678939079041 1 I I #
coedge $-1 $178 $178 $-1 $251 reversed $115 $-1 #
edge $-1 $252 0 $252 6.2831853071796004 $116 $253 forward 7 unknown #
vertex $-1 $119 $254 #
ellipse-curve $-1 -52.398739566133045 -22.506311367931048 5.781305532286658 -0.70710678939079041 0 0.70710677298230451 0.70710677298230451 0 0.70710678939079041 1 I I #
face $-1 $-1 $135 $18 $-1 $255 reversed single #
loop $-1 $-1 $198 $120 #
plane-surface $-1 0 27.519081792817722 0 0 -1 0 0 0 -1 forward_v I I I I #
coedge $-1 $256 $196 $199 $257 forward $121 $-1 #
coedge $-1 $202 $123 $124 $190 reversed $76 $-1 #
coedge $-1 $196 $256 $123 $188 reversed $121 $-1 #
edge $-1 $203 -7.8910654199998786 $258 7.8910654199998786 $187 $259 forward 7 unknown #
coedge $-1 $125 $124 $256 $260 forward $49 $-1 #
edge $-1 $194 -54.508499404889065 $258 54.508499404889065 $186 $261 forward 7 unknown #
coedge $-1 $199 $198 $125 $192 reversed $183 $-1 #
edge $-1 $262 -54.508499404889065 $193 54.508499404889065 $191 $263 forward 7 unknown #
vertex $-1 $127 $264 #
vertex $-1 $205 $265 #
straight-curve $-1 54.508499404889065 0 -7.8910654199998786 0 -1 0 I I #
coedge $-1 $185 $187 $128 $197 reversed $121 $-1 #
edge $-1 $200 -27.519081792817722 $203 27.519081792817722 $196 $266 forward 7 unknown #
coedge $-1 $191 $129 $134 $206 forward $183 $-1 #
coedge $-1 $129 $191 $185 $257 reversed $183 $-1 #
vertex $-1 $130 $267 #
straight-curve $-1 0 27.519081792817722 7.8910654199998786 -1 0 0 I I #
coedge $-1 $131 $186 $133 $205 reversed $76 $-1 #
vertex $-1 $197 $268 #
straight-curve $-1 0 -27.519081792817722 7.8910654199998786 1 0 0 I I #
edge $-1 $136 -7.8910654199998786 $194 7.8910654199998786 $133 $269 forward 7 unknown #
edge $-1 $137 -7.8910654199998786 $193 7.8910654199998786 $134 $270 forward 7 unknown #
point $-1 54.508499404889065 -27.519081792817722 7.8910654199998786 #
point $-1 54.508499404889065 27.519081792817722 7.8910654199998786 #
loop $-1 $-1 $147 $139 #
plane-surface $-1 54.508499404889065 0 0 -1 0 0 0 0 1 forward_v I I I I #
coedge $-1 $212 $142 $144 $216 reversed $84 $-1 #
coedge $-1 $142 $211 $271 $272 reversed $84 $-1 #
coedge $-1 $150 $145 $142 $214 forward $140 $-1 #
edge $-1 $217 21.155444722166528 $273 27.254248808042583 $213 $274 forward 7 unknown #
coedge $-1 $144 $143 $220 $275 reversed $53 $-1 #
edge $-1 $276 -109.01699880977814 $217 -100.39198725720364 $211 $277 forward 7 unknown #
vertex $-1 $146 $278 #
straight-curve $-1 48.409695319013011 9.579117565844836 7.8910654199998689 0 -1 0 I I #
coedge $-1 $271 $147 $150 $224 reversed $209 $-1 #
coedge $-1 $147 $271 $215 $275 forward $209 $-1 #
vertex $-1 $148 $279 #
straight-curve $-1 54.508499404889065 23.54566813600383 77.982789719300101 0 0 1 I I #
straight-curve $-1 -22.578158823708876 23.54566813600383 78.878921210002261 0.70710677298230451 0 -0.70710678939079041 I I #
edge $-1 $273 14.770802127375514 $151 23.54566813600383 $219 $280 forward 7 unknown #
point $-1 54.508499404889065 23.54566813600383 7.8910654199998786 #
point $-1 48.409695319013011 23.54566813600383 7.891065419999876 #
edge $-1 $281 1 $281 0 $154 $-1 forward 7 unknown #
vertex $-1 $155 $282 #
ellipse-curve $-1 48.045209002685795 19.158235131689665 1.4277750262545386 0.70710678939079041 0 0.70710677298230451 1.414213545964609 0 -1.4142135787815808 1 I I #
point $-1 52.873310907915645 19.158235131689665 3.4274497275185709 #
plane-surface $-1 -54.508499404889065 0 0 1 0 0 0 0 -1 forward_v I I I I #
coedge $-1 $166 $283 $236 $284 forward $159 $-1 #
coedge $-1 $234 $161 $283 $285 reversed $99 $-1 #
coedge $-1 $161 $233 $237 $286 forward $99 $-1 #
edge $-1 $238 -17.973577130731449 $287 -12.006275106857832 $161 $288 forward 7 unknown #
coedge $-1 $163 $162 $232 $284 reversed $62 $-1 #
coedge $-1 $169 $164 $234 $286 reversed $170 $-1 #
vertex $-1 $235 $289 #
straight-curve $-1 -54.508499404889065 -12.005071247698524 3.6715456445734382 0 -1 0 I I #
coedge $-1 $283 $166 $169 $244 forward $159 $-1 #
vertex $-1 $167 $290 #
straight-curve $-1 -65.79757971114546 -20.501203197976373 7.891065419999876 -1 0 0 I I #
straight-curve $-1 -54.508499404889079 -20.501203197976373 3.6715456445734276 0.70710677298230451 0 0.70710678939079041 I I #
edge $-1 $171 20.501203197976373 $291 27.519081792817722 $169 $292 forward 7 unknown #
point $-1 -54.508499404889065 -20.501203197976373 7.8910654199998786 #
point $-1 -54.508499404889065 -20.501203197976373 3.6715456445734418 #
edge $-1 $293 1 $293 0 $174 $-1 forward 7 unknown #
vertex $-1 $175 $294 #
ellipse-curve $-1 -51.269013087316011 -25.513973622863052 4.651579079685046 -0.70710678939079041 0 0.70710677298230451 0.70710677298230451 0 0.70710678939079041 1 I I #
point $-1 -51.691632793150724 -25.513973622863052 6.4884123216774352 #
edge $-1 $295 1 $295 0 $178 $-1 forward 7 unknown #
vertex $-1 $179 $296 #
ellipse-curve $-1 -51.269013087316011 -22.506311367931048 4.651579079685046 -0.70710678939079041 0 0.70710677298230451 0.70710677298230451 0 0.70710678939079041 1 I I #
point $-1 -51.691632793150724 -22.506311367931048 6.4884123216774352 #
plane-surface $-1 54.508499404889065 0 0 -1 0 0 0 0 1 forward_v I I I I #
coedge $-1 $187 $185 $189 $260 reversed $121 $-1 #
edge $-1 $200 -7.8910654199998786 $262 7.8910654199998786 $199 $297 forward 7 unknown #
vertex $-1 $260 $298 #
straight-curve $-1 -54.508499404889065 -27.519081792817722 0 0 0 -1 I I #
edge $-1 $258 -27.519081792817722 $262 27.519081792817722 $256 $299 forward 7 unknown #
straight-curve $-1 0 -27.519081792817722 -7.8910654199998786 -1 0 0 I I #
vertex $-1 $192 $300 #
straight-curve $-1 0 27.519081792817722 -7.8910654199998786 1 0 0 I I #
point $-1 54.508499404889065 27.519081792817722 -7.8910654199998786 #
point $-1 54.508499404889065 -27.519081792817722 -7.8910654199998786 #
straight-curve $-1 -54.508499404889065 0 7.8910654199998786 0 -1 0 I I #
point $-1 -54.508499404889065 27.519081792817722 7.8910654199998786 #
point $-1 -54.508499404889065 -27.519081792817722 7.8910654199998786 #
straight-curve $-1 54.508499404889065 -27.519081792817722 0 0 0 -1 I I #
straight-curve $-1 54.508499404889065 27.519081792817722 0 0 0 -1 I I #
coedge $-1 $220 $219 $212 $272 forward $209 $-1 #
edge $-1 $273 70.091724299300225 $276 76.190528526699666 $271 $301 forward 7 unknown #
vertex $-1 $224 $302 #
straight-curve $-1 27.254250596846482 14.770802127375514 7.891065419999876 1 0 0 I I #
edge $-1 $276 5.1916845615306784 $221 13.966550570158994 $220 $303 forward 7 unknown #
vertex $-1 $275 $304 #
straight-curve $-1 -22.578158823708876 14.770802127375514 78.878921210002261 -0.70710677298230451 0 0.70710678939079041 I I #
point $-1 48.409695319013011 14.770802127375514 7.891065419999876 #
point $-1 54.508499404889065 23.54566813600383 1.792261192600435 #
straight-curve $-1 54.508499404889065 0 7.8910654199998786 0 1 0 I I #
vertex $-1 $227 $305 #
point $-1 49.459422548650402 19.158235131689665 0.013561447472957844 #
coedge $-1 $232 $240 $233 $285 forward $159 $-1 #
edge $-1 $287 -15.514010545119199 $241 -8.4961319502778494 $232 $306 forward 7 unknown #
edge $-1 $291 -54.508499404889065 $287 -50.288979727377018 $233 $307 forward 7 unknown #
edge $-1 $291 -7.8910654199998786 $238 -3.6715456445734418 $237 $308 forward 7 unknown #
vertex $-1 $235 $309 #
straight-curve $-1 -41.799261281029004 -27.519081792817722 16.380784063352689 0.70710677298230462 0 0.70710678939079052 I I #
point $-1 -54.508499404889065 -27.519081792817722 3.6715456445734418 #
point $-1 -50.288979727377018 -20.501203197976373 7.8910654199998786 #
vertex $-1 $244 $310 #
straight-curve $-1 -54.508499404889065 0 7.8910654199998786 0 -1 0 I I #
vertex $-1 $247 $311 #
point $-1 -50.561906314333704 -25.513973622863052 5.3586858690758365 #
vertex $-1 $251 $312 #
point $-1 -50.561906314333704 -22.506311367931048 5.3586858690758365 #
straight-curve $-1 -54.508499404889065 27.519081792817722 0 0 0 -1 I I #
point $-1 -54.508499404889065 -27.519081792817722 -7.8910654199998786 #
straight-curve $-1 -54.508499404889065 0 -7.8910654199998786 0 1 0 I I #
point $-1 -54.508499404889065 27.519081792817722 -7.8910654199998786 #
straight-curve $-1 54.508499404889065 14.770802127375514 77.982789719300101 0 0 -1 I I #
point $-1 54.508499404889065 14.770802127375514 7.8910654199998786 #
straight-curve $-1 54.508499404889065 9.579117565844836 1.792261192600435 0 1 0 I I #
point $-1 54.508499404889065 14.770802127375514 1.792261192600435 #
point $-1 46.63099542390421 19.158235131689665 0.01356148028992965 #
straight-curve $-1 -50.288979727377018 -12.005071247698524 7.8910654199998795 0 1 0 I I #
straight-curve $-1 0 -27.519081792817722 7.8910654199998786 1 0 0 I I #
straight-curve $-1 -54.508499404889065 -27.519081792817722 0 0 0 -1 I I #
point $-1 -50.288979727377018 -27.519081792817722 7.8910654199998786 #
point $-1 -54.508499404889065 -27.519081792817722 7.8910654199998786 #
point $-1 -50.561906297925219 -25.513973622863052 3.9444723067027412 #
point $-1 -50.561906297925219 -22.506311367931048 3.9444723067027412 #
End-of-ACIS-data 