500 0 7 0           
7 Unknown 11 ACIS 5.0 NT 24 Thu Mar 25 22:36:28 1999 
-1 9.9999999999999995e-007 1e-010 
body $-1 $7 $-1 $8 #
body $-1 $9 $-1 $10 #
body $-1 $11 $-1 $12 #
body $-1 $13 $-1 $14 #
body $-1 $15 $-1 $16 #
body $-1 $17 $-1 $18 #
body $-1 $19 $-1 $20 #
lump $-1 $-1 $21 $0 #
transform $-1 1 0 0 0 1 0 0 0 1 70.884731589709162 35.928891144582224 12.064418793191164 1 rotate no_reflect no_shear #
lump $-1 $-1 $22 $1 #
transform $-1 1 0 0 0 1 0 0 0 1 70.884731589709162 35.928891144582224 12.064418793191164 1 rotate no_reflect no_shear #
lump $-1 $-1 $23 $2 #
transform $-1 1 0 0 0 1 0 0 0 1 70.884731589709162 35.928891144582224 12.064418793191164 1 rotate no_reflect no_shear #
lump $-1 $-1 $24 $3 #
transform $-1 1 0 0 0 1 0 0 0 1 70.884731589709162 35.928891144582224 12.064418793191164 1 rotate no_reflect no_shear #
lump $-1 $-1 $25 $4 #
transform $-1 1 0 0 0 1 0 0 0 1 70.884731589709162 35.928891144582224 12.064418793191164 1 rotate no_reflect no_shear #
lump $-1 $-1 $26 $5 #
transform $-1 1 0 0 0 1 0 0 0 1 70.884731589709162 35.928891144582224 12.064418793191164 1 rotate no_reflect no_shear #
lump $-1 $-1 $27 $6 #
transform $-1 1 0 0 0 1 0 0 0 1 70.884731589709162 35.928891144582224 12.064418793191164 1 rotate no_reflect no_shear #
shell $-1 $-1 $-1 $28 $-1 $7 #
shell $-1 $-1 $-1 $29 $-1 $9 #
shell $-1 $-1 $-1 $30 $-1 $11 #
shell $-1 $-1 $-1 $31 $-1 $13 #
shell $-1 $-1 $-1 $32 $-1 $15 #
shell $-1 $-1 $-1 $33 $-1 $17 #
shell $-1 $-1 $-1 $34 $-1 $19 #
face $-1 $35 $36 $21 $-1 $37 forward single #
face $-1 $38 $39 $22 $-1 $40 reversed single #
face $-1 $41 $42 $23 $-1 $43 forward single #
face $-1 $44 $45 $24 $-1 $46 reversed single #
face $-1 $47 $48 $25 $-1 $49 forward single #
face $-1 $50 $51 $26 $-1 $52 reversed single #
face $-1 $53 $54 $27 $-1 $55 forward single #
face $-1 $56 $57 $21 $-1 $58 reversed single #
loop $-1 $-1 $59 $28 #
plane-surface $-1 0 0 12.064418793191164 0 0 1 1 0 0 forward_v I I I I #
face $-1 $60 $61 $22 $-1 $62 reversed single #
loop $-1 $-1 $63 $29 #
plane-surface $-1 0 -28.516900602831576 6.0045584718429783 0 0 1 1 0 0 forward_v I I I I #
face $-1 $64 $65 $23 $-1 $66 reversed single #
loop $-1 $-1 $67 $30 #
plane-surface $-1 0 28.154581441552608 0.025617629283633647 0 0 1 1 0 0 forward_v I I I I #
face $-1 $68 $69 $24 $-1 $70 reversed single #
loop $-1 $-1 $71 $31 #
plane-surface $-1 49.927581833913635 -13.09946468817256 200.11488441301483 0 -1 0 -0.62932039886446345 0 -0.77714595512881146 forward_v I I I I #
face $-1 $72 $73 $25 $-1 $74 forward single #
loop $-1 $75 $76 $32 #
cone-surface $-1 63.098994743488589 -17.102187374626745 5.4273423098262805 -0.62932039886446345 0 -0.77714595512881146 1.1657189326932171 0 -0.94398059829669512 1 I I 0 1 1.5 forward I I I I #
face $-1 $77 $78 $26 $-1 $79 reversed single #
loop $-1 $-1 $80 $33 #
plane-surface $-1 -70.884731589709148 -17.102187374626745 0.7209044274744798 -0.62932039886446345 0 0.77714595512881146 0.77714595512881146 0 0.62932039886446345 forward_v I I I I #
face $-1 $81 $82 $27 $-1 $83 forward single #
loop $-1 $84 $85 $34 #
cone-surface $-1 -63.098994743488589 -17.102187374626745 5.4273423098262823 0.62932039886446345 0 -0.77714595512881146 1.1657189326932171 0 0.94398059829669512 1 I I 0 1 1.5 forward I I I I #
face $-1 $86 $87 $21 $-1 $88 reversed single #
loop $-1 $-1 $89 $35 #
plane-surface $-1 0 0 -12.064418793191164 0 0 1 1 0 0 forward_v I I I I #
coedge $-1 $90 $91 $92 $93 forward $36 $-1 #
face $-1 $94 $95 $22 $-1 $96 reversed single #
loop $-1 $-1 $97 $38 #
plane-surface $-1 0 -21.104910061080929 9.034488632517073 0 -1 0 0 0 -1 forward_v I I I I #
coedge $-1 $98 $99 $100 $101 reversed $39 $-1 #
face $-1 $102 $103 $23 $-1 $104 reversed single #
loop $-1 $-1 $105 $41 #
plane-surface $-1 0 28.154581441552608 -2.9743823707163664 0 0 1 1 0 0 forward_v I I I I #
coedge $-1 $106 $107 $108 $109 reversed $42 $-1 #
face $-1 $110 $111 $24 $-1 $112 forward single #
loop $-1 $-1 $113 $44 #
plane-surface $-1 -39.290833280958765 -17.102187374626745 89.939319542346908 0.62932039886446345 0 0.77714595512881146 0.77714595512881146 0 -0.62932039886446345 forward_v I I I I #
coedge $-1 $114 $115 $116 $117 reversed $45 $-1 #
face $-1 $-1 $118 $25 $-1 $119 forward single #
loop $-1 $120 $121 $47 #
cone-surface $-1 61.845304271783021 -17.102187374626745 3.8791635429731333 -0.62932039886446345 0 -0.77714595512881146 0.58285946634660857 0 -0.47199029914834756 1 I I -0.70710678118654757 0.70710678118654757 0.75 forward I I I I #
loop $-1 $-1 $122 $32 #
coedge $-1 $76 $76 $123 $124 reversed $48 $-1 #
face $-1 $125 $126 $26 $-1 $127 forward single #
loop $-1 $-1 $128 $50 #
plane-surface $-1 -160.10314670458155 -13.09946468817256 110.89646929814241 0 -1 0 0.62932039886446345 0 -0.77714595512881146 forward_v I I I I #
coedge $-1 $129 $130 $131 $132 reversed $51 $-1 #
face $-1 $-1 $133 $27 $-1 $134 forward single #
loop $-1 $135 $136 $53 #
cone-surface $-1 -61.845304271783021 -17.102187374626745 3.879163542973135 0.62932039886446345 0 -0.77714595512881146 0.58285946634660857 0 0.47199029914834756 1 I I -0.70710678118654757 0.70710678118654757 0.75 forward I I I I #
loop $-1 $-1 $137 $34 #
coedge $-1 $85 $85 $138 $139 reversed $54 $-1 #
face $-1 $140 $141 $21 $-1 $142 reversed single #
loop $-1 $-1 $143 $56 #
plane-surface $-1 0 -35.928891144582224 0 0 1 0 0 0 1 forward_v I I I I #
coedge $-1 $144 $145 $146 $147 forward $57 $-1 #
coedge $-1 $148 $59 $149 $150 forward $36 $-1 #
coedge $-1 $59 $148 $151 $152 forward $36 $-1 #
coedge $-1 $153 $154 $59 $93 reversed $155 $-1 #
edge $-1 $156 -35.928891144582224 $157 35.928891144582224 $92 $158 forward 7 unknown #
face $-1 $159 $160 $22 $-1 $161 reversed single #
loop $-1 $-1 $162 $60 #
plane-surface $-1 -70.884731589709162 0 0 1 0 0 0 0 -1 forward_v I I I I #
coedge $-1 $163 $164 $165 $166 reversed $61 $-1 #
coedge $-1 $167 $63 $168 $169 reversed $39 $-1 #
coedge $-1 $63 $167 $163 $170 forward $39 $-1 #
coedge $-1 $165 $171 $63 $101 forward $172 $-1 #
edge $-1 $173 -21.670440843166435 $174 -6.8464597596651409 $100 $175 forward 7 unknown #
face $-1 $176 $177 $23 $-1 $178 reversed single #
loop $-1 $-1 $179 $64 #
plane-surface $-1 0 20.380271738523 -1.4743823707163664 0 1 0 0 0 1 forward_v I I I I #
coedge $-1 $180 $181 $182 $183 reversed $65 $-1 #
coedge $-1 $184 $67 $185 $186 reversed $42 $-1 #
coedge $-1 $67 $184 $187 $188 forward $42 $-1 #
coedge $-1 $189 $190 $67 $109 forward $177 $-1 #
edge $-1 $191 -21.851600423805912 $192 -6.3029810177466956 $108 $193 forward 7 unknown #
face $-1 $194 $195 $24 $-1 $196 forward single #
loop $-1 $-1 $116 $68 #
plane-surface $-1 0 0 12.064418793191164 0 0 1 1 0 0 forward_v I I I I #
coedge $-1 $197 $198 $199 $200 reversed $69 $-1 #
coedge $-1 $115 $71 $201 $202 reversed $45 $-1 #
coedge $-1 $71 $114 $197 $203 reversed $45 $-1 #
coedge $-1 $199 $204 $71 $117 forward $111 $-1 #
edge $-1 $205 -45.920940672752344 $206 -31.912867325425687 $116 $207 forward 7 unknown #
loop $-1 $-1 $123 $72 #
plane-surface $-1 -39.290833280958765 -17.102187374626745 89.939319542346908 0.62932039886446345 0 0.77714595512881146 0.77714595512881146 0 -0.62932039886446345 forward_v I I I I #
loop $-1 $-1 $208 $47 #
coedge $-1 $121 $121 $122 $209 reversed $73 $-1 #
coedge $-1 $122 $122 $121 $209 forward $75 $-1 #
coedge $-1 $123 $123 $76 $124 forward $118 $-1 #
edge $-1 $210 0 $210 6.2831853071796004 $123 $211 forward 7 unknown #
face $-1 $212 $213 $26 $-1 $214 reversed single #
loop $-1 $-1 $131 $77 #
plane-surface $-1 0 0 12.064418793191164 0 0 1 1 0 0 forward_v I I I I #
coedge $-1 $215 $216 $217 $218 reversed $78 $-1 #
coedge $-1 $219 $80 $220 $221 reversed $51 $-1 #
coedge $-1 $80 $219 $215 $222 forward $51 $-1 #
coedge $-1 $217 $223 $80 $132 forward $126 $-1 #
edge $-1 $224 -12.553816373767557 $225 -4.5483710008591878 $131 $226 forward 7 unknown #
loop $-1 $-1 $138 $81 #
plane-surface $-1 -70.884731589709148 -17.102187374626745 0.7209044274744798 -0.62932039886446345 0 0.77714595512881146 0.77714595512881146 0 0.62932039886446345 forward_v I I I I #
loop $-1 $-1 $227 $53 #
coedge $-1 $136 $136 $137 $228 reversed $82 $-1 #
coedge $-1 $137 $137 $136 $228 forward $84 $-1 #
coedge $-1 $138 $138 $85 $139 forward $133 $-1 #
edge $-1 $229 0 $229 6.2831853071796004 $138 $230 forward 7 unknown #
face $-1 $231 $232 $21 $-1 $233 reversed single #
loop $-1 $-1 $234 $86 #
plane-surface $-1 -70.884731589709162 0 0 1 0 0 0 0 -1 forward_v I I I I #
coedge $-1 $235 $151 $236 $237 forward $87 $-1 #
coedge $-1 $238 $89 $235 $239 forward $57 $-1 #
coedge $-1 $89 $238 $240 $241 forward $57 $-1 #
coedge $-1 $154 $153 $89 $147 reversed $155 $-1 #
edge $-1 $242 -35.928891144582224 $243 35.928891144582224 $146 $244 forward 7 unknown #
coedge $-1 $91 $90 $245 $246 forward $36 $-1 #
coedge $-1 $247 $248 $90 $150 reversed $232 $-1 #
edge $-1 $157 -70.884731589709162 $249 70.884731589709162 $149 $250 forward 7 unknown #
coedge $-1 $143 $251 $91 $152 reversed $87 $-1 #
edge $-1 $252 -70.884731589709162 $156 70.884731589709162 $151 $253 forward 7 unknown #
coedge $-1 $146 $92 $251 $254 forward $155 $-1 #
coedge $-1 $92 $146 $247 $255 reversed $155 $-1 #
loop $-1 $-1 $153 $231 #
vertex $-1 $93 $256 #
vertex $-1 $93 $257 #
straight-curve $-1 70.884731589709162 0 12.064418793191164 0 1 0 I I #
face $-1 $258 $259 $22 $-1 $260 forward single #
loop $-1 $-1 $168 $94 #
plane-surface $-1 0 -35.928891144582224 0 0 1 0 0 0 1 forward_v I I I I #
coedge $-1 $261 $262 $263 $264 forward $95 $-1 #
coedge $-1 $263 $97 $99 $170 reversed $61 $-1 #
coedge $-1 $97 $263 $265 $266 reversed $61 $-1 #
coedge $-1 $267 $100 $97 $166 forward $172 $-1 #
edge $-1 $174 1.4873141555844418 $268 7.5471744769326312 $165 $269 forward 7 unknown #
coedge $-1 $99 $98 $261 $270 reversed $39 $-1 #
coedge $-1 $271 $272 $98 $169 forward $160 $-1 #
edge $-1 $273 -70.884731589709162 $173 70.884731589709162 $168 $274 forward 7 unknown #
edge $-1 $275 -70.884731589709162 $174 70.884731589709162 $163 $276 forward 7 unknown #
coedge $-1 $100 $267 $271 $277 forward $172 $-1 #
loop $-1 $-1 $165 $258 #
vertex $-1 $169 $278 #
vertex $-1 $101 $279 #
straight-curve $-1 70.884731589709162 -14.258450301415788 6.0045584718429783 0 1 0 I I #
face $-1 $280 $281 $23 $-1 $282 reversed single #
loop $-1 $-1 $108 $102 #
plane-surface $-1 70.884731589709162 0 0 -1 0 0 0 0 1 forward_v I I I I #
coedge $-1 $283 $187 $284 $285 reversed $103 $-1 #
coedge $-1 $286 $105 $283 $287 forward $65 $-1 #
coedge $-1 $105 $286 $288 $289 reversed $65 $-1 #
coedge $-1 $190 $189 $105 $183 forward $177 $-1 #
edge $-1 $290 6.3029810177466956 $291 21.851600423805912 $182 $292 forward 7 unknown #
coedge $-1 $107 $106 $293 $294 reversed $42 $-1 #
coedge $-1 $295 $296 $106 $186 forward $297 $-1 #
edge $-1 $298 -70.884731589709162 $191 70.884731589709162 $185 $299 forward 7 unknown #
coedge $-1 $179 $300 $107 $188 reversed $103 $-1 #
edge $-1 $301 -70.884731589709162 $192 70.884731589709162 $187 $302 forward 7 unknown #
coedge $-1 $182 $108 $300 $303 forward $177 $-1 #
coedge $-1 $108 $182 $295 $304 reversed $177 $-1 #
vertex $-1 $304 $305 #
vertex $-1 $109 $306 #
straight-curve $-1 70.884731589709162 14.077290720776304 0.025617629283633647 0 -1 0 I I #
face $-1 $-1 $307 $24 $-1 $308 reversed single #
loop $-1 $-1 $309 $110 #
plane-surface $-1 0 -21.104910061080929 9.034488632517073 0 -1 0 0 0 -1 forward_v I I I I #
coedge $-1 $310 $113 $115 $203 forward $69 $-1 #
coedge $-1 $113 $310 $309 $311 forward $69 $-1 #
coedge $-1 $312 $116 $113 $200 forward $111 $-1 #
edge $-1 $206 4.5483710008591878 $313 12.553816373767557 $199 $314 forward 7 unknown #
coedge $-1 $315 $316 $114 $202 forward $307 $-1 #
edge $-1 $317 -99.336537779032909 $205 -87.993023413316251 $201 $318 forward 7 unknown #
edge $-1 $206 123.74444065323813 $317 141.76946317941832 $115 $319 forward 7 unknown #
coedge $-1 $116 $312 $315 $320 forward $111 $-1 #
vertex $-1 $117 $321 #
vertex $-1 $117 $322 #
straight-curve $-1 24.963790916956818 -13.09946468817256 12.064418793191166 -1 0 0 I I #
coedge $-1 $208 $208 $-1 $323 reversed $120 $-1 #
edge $-1 $324 0 $324 6.2831853071796004 $121 $325 forward 7 unknown #
vertex $-1 $124 $326 #
ellipse-curve $-1 63.880694916045819 -17.102187374626745 6.3926616103328247 0.62932039886446345 0 0.77714595512881146 1.1657189326932171 0 -0.94398059829669512 1 I I #
face $-1 $-1 $327 $26 $-1 $328 forward single #
loop $-1 $-1 $329 $125 #
plane-surface $-1 -70.884731589709162 0 0 1 0 0 0 0 -1 forward_v I I I I #
coedge $-1 $216 $128 $130 $222 reversed $78 $-1 #
coedge $-1 $128 $215 $329 $330 reversed $78 $-1 #
coedge $-1 $331 $131 $128 $218 forward $126 $-1 #
edge $-1 $225 -23.174915109908312 $332 -9.1668417625816119 $217 $333 forward 7 unknown #
coedge $-1 $130 $129 $334 $335 reversed $51 $-1 #
coedge $-1 $336 $337 $129 $221 forward $327 $-1 #
edge $-1 $338 -30.159845281622346 $224 -12.134822755442086 $220 $339 forward 7 unknown #
edge $-1 $340 -1.8310242626372826e-014 $225 18.025022526180241 $215 $341 forward 7 unknown #
coedge $-1 $131 $331 $336 $342 forward $126 $-1 #
vertex $-1 $221 $343 #
vertex $-1 $132 $344 #
straight-curve $-1 -56.876658242382469 -8.5510936873133723 12.064418793191164 0 1 0 I I #
coedge $-1 $227 $227 $-1 $345 reversed $135 $-1 #
edge $-1 $346 0 $346 6.2831853071796004 $136 $347 forward 7 unknown #
vertex $-1 $139 $348 #
ellipse-curve $-1 -63.880694916045812 -17.102187374626745 6.3926616103328193 -0.62932039886446345 0 0.77714595512881146 1.1657189326932171 0 0.94398059829669512 1 I I #
face $-1 $-1 $155 $21 $-1 $349 reversed single #
loop $-1 $-1 $247 $140 #
plane-surface $-1 0 35.928891144582224 0 0 -1 0 0 0 -1 forward_v I I I I #
coedge $-1 $350 $245 $248 $351 forward $141 $-1 #
coedge $-1 $251 $143 $144 $239 reversed $87 $-1 #
coedge $-1 $245 $350 $143 $237 reversed $141 $-1 #
edge $-1 $252 -12.064418793191164 $352 12.064418793191164 $236 $353 forward 7 unknown #
coedge $-1 $145 $144 $350 $354 forward $57 $-1 #
edge $-1 $243 -70.884731589709162 $352 70.884731589709162 $235 $355 forward 7 unknown #
coedge $-1 $248 $247 $145 $241 reversed $232 $-1 #
edge $-1 $356 -70.884731589709162 $242 70.884731589709162 $240 $357 forward 7 unknown #
vertex $-1 $147 $358 #
vertex $-1 $254 $359 #
straight-curve $-1 70.884731589709162 0 -12.064418793191164 0 -1 0 I I #
coedge $-1 $234 $236 $148 $246 reversed $141 $-1 #
edge $-1 $249 -35.928891144582224 $252 35.928891144582224 $245 $360 forward 7 unknown #
coedge $-1 $240 $149 $154 $255 forward $232 $-1 #
coedge $-1 $149 $240 $234 $351 reversed $232 $-1 #
vertex $-1 $150 $361 #
straight-curve $-1 0 35.928891144582224 12.064418793191164 -1 0 0 I I #
coedge $-1 $151 $235 $153 $254 reversed $87 $-1 #
vertex $-1 $246 $362 #
straight-curve $-1 0 -35.928891144582224 12.064418793191164 1 0 0 I I #
edge $-1 $156 -12.064418793191164 $243 12.064418793191164 $153 $363 forward 7 unknown #
edge $-1 $157 -12.064418793191164 $242 12.064418793191164 $154 $364 forward 7 unknown #
point $-1 70.884731589709162 -35.928891144582224 12.064418793191164 #
point $-1 70.884731589709162 35.928891144582224 12.064418793191164 #
face $-1 $-1 $172 $22 $-1 $365 reversed single #
loop $-1 $-1 $265 $159 #
plane-surface $-1 0 0 12.064418793191164 0 0 1 1 0 0 forward_v I I I I #
coedge $-1 $366 $162 $167 $270 forward $95 $-1 #
coedge $-1 $162 $366 $367 $368 reversed $95 $-1 #
coedge $-1 $164 $163 $162 $264 reversed $61 $-1 #
edge $-1 $369 -7.5471744769326312 $275 -1.4873141555844418 $162 $370 forward 7 unknown #
coedge $-1 $367 $371 $164 $266 forward $259 $-1 #
edge $-1 $268 -70.884731589709162 $369 70.884731589709162 $265 $372 forward 7 unknown #
coedge $-1 $171 $165 $371 $373 reversed $172 $-1 #
vertex $-1 $166 $374 #
straight-curve $-1 70.884731589709162 -21.104910061080929 4.5172443162585365 0 0 1 I I #
edge $-1 $275 6.8464597596651409 $273 21.670440843166435 $261 $375 forward 7 unknown #
coedge $-1 $376 $168 $171 $277 reversed $160 $-1 #
coedge $-1 $168 $376 $366 $377 forward $160 $-1 #
vertex $-1 $169 $378 #
straight-curve $-1 0 -35.928891144582224 6.0045584718429783 1 0 0 I I #
vertex $-1 $270 $379 #
straight-curve $-1 0 -21.104910061080929 6.0045584718429783 1 0 0 I I #
edge $-1 $380 -12.064418793191164 $173 -6.0045584718429783 $171 $381 forward 7 unknown #
point $-1 70.884731589709162 -35.928891144582224 6.0045584718429783 #
point $-1 70.884731589709162 -21.104910061080929 6.0045584718429783 #
face $-1 $-1 $297 $23 $-1 $382 reversed single #
loop $-1 $-1 $293 $176 #
plane-surface $-1 -70.884731589709162 0 0 1 0 0 0 0 -1 forward_v I I I I #
coedge $-1 $300 $179 $180 $287 reversed $103 $-1 #
coedge $-1 $293 $383 $179 $285 forward $281 $-1 #
edge $-1 $384 -2.2371911853581832 $301 0.76280881464181682 $284 $385 forward 7 unknown #
coedge $-1 $181 $180 $383 $386 reversed $65 $-1 #
edge $-1 $290 -70.884731589709162 $384 70.884731589709162 $283 $387 forward 7 unknown #
coedge $-1 $296 $295 $181 $289 forward $297 $-1 #
edge $-1 $291 -70.884731589709162 $388 70.884731589709162 $288 $389 forward 7 unknown #
vertex $-1 $183 $390 #
vertex $-1 $289 $391 #
straight-curve $-1 70.884731589709162 14.077290720776304 -2.9743823707163664 0 1 0 I I #
coedge $-1 $392 $284 $184 $294 forward $281 $-1 #
edge $-1 $301 6.3029810177466956 $298 21.851600423805912 $293 $393 forward 7 unknown #
coedge $-1 $288 $185 $190 $304 forward $297 $-1 #
coedge $-1 $185 $288 $392 $394 reversed $297 $-1 #
loop $-1 $-1 $185 $280 #
vertex $-1 $394 $395 #
straight-curve $-1 0 35.928891144582224 0.025617629283633647 1 0 0 I I #
coedge $-1 $187 $283 $189 $303 reversed $103 $-1 #
vertex $-1 $294 $396 #
straight-curve $-1 0 20.380271738523 0.025617629283633647 1 0 0 I I #
edge $-1 $192 -0.76280881464181682 $290 2.2371911853581832 $189 $397 forward 7 unknown #
edge $-1 $191 -0.025617629283633647 $291 2.9743823707163664 $190 $398 forward 7 unknown #
point $-1 70.884731589709162 35.928891144582217 0.025617629283633647 #
point $-1 70.884731589709162 20.380271738523 0.025617629283633647 #
loop $-1 $-1 $201 $194 #
plane-surface $-1 70.884731589709162 0 0 -1 0 0 0 0 1 forward_v I I I I #
coedge $-1 $399 $400 $198 $311 reversed $195 $-1 #
coedge $-1 $198 $197 $316 $401 reversed $69 $-1 #
edge $-1 $402 -141.76946317941832 $313 -123.74444065323812 $309 $403 forward 7 unknown #
coedge $-1 $204 $199 $400 $404 forward $111 $-1 #
vertex $-1 $404 $405 #
straight-curve $-1 56.876658242382497 -8.5510936873133723 12.064418793191166 0 -1 0 I I #
coedge $-1 $406 $201 $204 $320 reversed $307 $-1 #
coedge $-1 $201 $406 $310 $401 forward $307 $-1 #
vertex $-1 $202 $407 #
straight-curve $-1 70.884731589709162 -13.09946468817256 100.05744220650742 0 0 1 I I #
straight-curve $-1 -39.290833280958765 -13.09946468817256 89.939319542346908 0.77714595512881146 0 -0.62932039886446345 I I #
edge $-1 $408 -21.104910061080929 $205 -13.09946468817256 $315 $409 forward 7 unknown #
point $-1 70.884731589709162 -13.09946468817256 12.064418793191164 #
point $-1 56.876658242382504 -13.09946468817256 12.064418793191166 #
edge $-1 $410 1 $410 0 $208 $-1 forward 7 unknown #
vertex $-1 $209 $411 #
ellipse-curve $-1 62.317294570931367 -17.102187374626745 4.4620230093197417 0.62932039886446345 0 0.77714595512881146 1.1657189326932171 0 -0.94398059829669512 1 I I #
point $-1 65.046413848739036 -17.102187374626745 5.4486810120361246 #
loop $-1 $-1 $220 $212 #
plane-surface $-1 0 -21.104910061080929 9.034488632517073 0 -1 0 0 0 -1 forward_v I I I I #
coedge $-1 $334 $412 $216 $330 forward $213 $-1 #
edge $-1 $332 43.383815855880037 $340 54.727330221596738 $329 $413 forward 7 unknown #
coedge $-1 $223 $217 $412 $414 forward $126 $-1 #
vertex $-1 $414 $415 #
straight-curve $-1 -80.051573352290774 -13.09946468817256 12.064418793191166 -1 0 0 I I #
coedge $-1 $416 $329 $219 $335 forward $213 $-1 #
edge $-1 $340 4.5483710008591878 $338 12.553816373767557 $334 $417 forward 7 unknown #
coedge $-1 $337 $220 $223 $342 reversed $327 $-1 #
coedge $-1 $220 $336 $416 $418 reversed $327 $-1 #
vertex $-1 $418 $419 #
straight-curve $-1 -47.44612982178559 -21.104910061080929 19.701110289795551 0.77714595512881146 0 0.62932039886446345 I I #
vertex $-1 $335 $420 #
straight-curve $-1 -70.884731589709148 -13.09946468817256 0.7209044274744798 0.77714595512881146 0 0.62932039886446345 I I #
edge $-1 $421 -70.884731589709162 $224 -56.876658242382462 $223 $422 forward 7 unknown #
point $-1 -56.876658242382462 -21.104910061080929 12.064418793191166 #
point $-1 -56.876658242382462 -13.09946468817256 12.064418793191166 #
edge $-1 $423 1 $423 0 $227 $-1 forward 7 unknown #
vertex $-1 $228 $424 #
ellipse-curve $-1 -62.317294570931367 -17.102187374626745 4.4620230093197435 -0.62932039886446345 0 0.77714595512881146 1.1657189326932171 0 0.94398059829669512 1 I I #
point $-1 -62.714975983352595 -17.102187374626745 7.3366422086295167 #
plane-surface $-1 70.884731589709162 0 0 -1 0 0 0 0 1 forward_v I I I I #
coedge $-1 $236 $234 $238 $354 reversed $141 $-1 #
edge $-1 $249 -12.064418793191164 $356 12.064418793191164 $248 $425 forward 7 unknown #
vertex $-1 $354 $426 #
straight-curve $-1 -70.884731589709162 -35.928891144582224 0 0 0 -1 I I #
edge $-1 $352 -35.928891144582224 $356 35.928891144582224 $350 $427 forward 7 unknown #
straight-curve $-1 0 -35.928891144582224 -12.064418793191164 -1 0 0 I I #
vertex $-1 $241 $428 #
straight-curve $-1 0 35.928891144582224 -12.064418793191164 1 0 0 I I #
point $-1 70.884731589709162 35.928891144582224 -12.064418793191164 #
point $-1 70.884731589709162 -35.928891144582224 -12.064418793191164 #
straight-curve $-1 -70.884731589709162 0 12.064418793191164 0 -1 0 I I #
point $-1 -70.884731589709162 35.928891144582224 12.064418793191164 #
point $-1 -70.884731589709162 -35.928891144582224 12.064418793191164 #
straight-curve $-1 70.884731589709162 -35.928891144582224 0 0 0 -1 I I #
straight-curve $-1 70.884731589709162 35.928891144582224 0 0 0 -1 I I #
plane-surface $-1 70.884731589709162 0 0 -1 0 0 0 0 1 forward_v I I I I #
coedge $-1 $262 $261 $272 $377 reversed $95 $-1 #
coedge $-1 $429 $265 $262 $368 forward $259 $-1 #
edge $-1 $369 21.104910061080929 $430 35.928891144582224 $262 $431 forward 7 unknown #
vertex $-1 $368 $432 #
straight-curve $-1 -70.884731589709162 -21.104910061080929 4.5172443162585365 0 0 -1 I I #
coedge $-1 $265 $429 $267 $373 forward $259 $-1 #
straight-curve $-1 0 -21.104910061080929 12.064418793191164 -1 0 0 I I #
edge $-1 $380 -35.928891144582224 $268 -21.104910061080929 $267 $433 forward 7 unknown #
point $-1 70.884731589709162 -21.104910061080929 12.064418793191168 #
straight-curve $-1 -70.884731589709162 -14.258450301415788 6.0045584718429783 0 -1 0 I I #
coedge $-1 $272 $271 $429 $434 reversed $160 $-1 #
edge $-1 $430 -12.064418793191164 $273 -6.0045584718429783 $366 $435 forward 7 unknown #
point $-1 -70.884731589709162 -35.928891144582224 6.0045584718429783 #
point $-1 -70.884731589709162 -21.104910061080929 6.0045584718429783 #
vertex $-1 $373 $436 #
straight-curve $-1 70.884731589709162 -35.928891144582224 0 0 0 -1 I I #
plane-surface $-1 0 35.928891144582224 0 0 -1 0 0 0 -1 forward_v I I I I #
coedge $-1 $284 $392 $286 $386 forward $281 $-1 #
vertex $-1 $386 $437 #
straight-curve $-1 -70.884731589709162 20.380271738523 -0.73719118535818318 0 0 1 I I #
edge $-1 $388 -21.851600423805912 $384 -6.3029810177466956 $383 $438 forward 7 unknown #
straight-curve $-1 0 20.380271738523 -2.9743823707163664 -1 0 0 I I #
vertex $-1 $289 $439 #
straight-curve $-1 0 35.928891144582224 -2.9743823707163664 -1 0 0 I I #
point $-1 70.884731589709162 20.380271738523 -2.9743823707163664 #
point $-1 70.884731589709162 35.928891144582217 -2.9743823707163664 #
coedge $-1 $383 $293 $296 $394 forward $281 $-1 #
straight-curve $-1 -70.884731589709162 14.077290720776304 0.025617629283633647 0 1 0 I I #
edge $-1 $298 -0.025617629283633647 $388 2.9743823707163664 $296 $440 forward 7 unknown #
point $-1 -70.884731589709162 35.928891144582217 0.025617629283633647 #
point $-1 -70.884731589709162 20.380271738523 0.025617629283633647 #
straight-curve $-1 70.884731589709162 20.380271738523 -0.73719118535818318 0 0 -1 I I #
straight-curve $-1 70.884731589709162 35.928891144582224 0 0 0 -1 I I #
coedge $-1 $400 $309 $406 $441 reversed $195 $-1 #
coedge $-1 $309 $399 $312 $404 reversed $195 $-1 #
edge $-1 $402 -12.553816373767557 $317 -4.5483710008591878 $316 $442 forward 7 unknown #
vertex $-1 $441 $443 #
straight-curve $-1 -39.290833280958765 -21.104910061080929 89.939319542346908 -0.77714595512881146 0 0.62932039886446345 I I #
edge $-1 $313 56.876658242382497 $408 70.884731589709162 $312 $444 forward 7 unknown #
point $-1 56.876658242382497 -21.104910061080929 12.064418793191164 #
coedge $-1 $316 $315 $399 $441 forward $307 $-1 #
point $-1 70.884731589709162 -13.09946468817256 0.72090442747450822 #
vertex $-1 $320 $445 #
straight-curve $-1 70.884731589709162 0 12.064418793191164 0 1 0 I I #
vertex $-1 $323 $446 #
point $-1 63.483013503624584 -17.102187374626745 3.5180424110230466 #
coedge $-1 $329 $416 $331 $414 reversed $213 $-1 #
straight-curve $-1 -70.884731589709162 -13.09946468817256 55.448234649071203 0 0 -1 I I #
edge $-1 $332 13.09946468817256 $421 21.104910061080929 $412 $447 forward 7 unknown #
point $-1 -70.884731589709162 -13.09946468817256 12.064418793191164 #
coedge $-1 $412 $334 $337 $418 forward $213 $-1 #
straight-curve $-1 -70.884731589709162 -8.5510936873133723 0.72090442747447758 0 -1 0 I I #
edge $-1 $338 -54.727330221596738 $421 -43.383815855880037 $416 $448 forward 7 unknown #
point $-1 -70.884731589709162 -21.104910061080929 0.72090442747446826 #
point $-1 -70.884731589709162 -13.09946468817256 0.72090442747446826 #
vertex $-1 $418 $449 #
straight-curve $-1 0 -21.104910061080929 12.064418793191164 1 0 0 I I #
vertex $-1 $345 $450 #
point $-1 -61.15157563823815 -17.102187374626745 5.4060036076164391 #
straight-curve $-1 -70.884731589709162 35.928891144582224 0 0 0 -1 I I #
point $-1 -70.884731589709162 -35.928891144582224 -12.064418793191164 #
straight-curve $-1 -70.884731589709162 0 -12.064418793191164 0 1 0 I I #
point $-1 -70.884731589709162 35.928891144582224 -12.064418793191164 #
coedge $-1 $371 $367 $376 $434 forward $259 $-1 #
vertex $-1 $368 $451 #
straight-curve $-1 -70.884731589709162 0 12.064418793191164 0 -1 0 I I #
point $-1 -70.884731589709162 -21.104910061080929 12.064418793191168 #
straight-curve $-1 70.884731589709162 0 12.064418793191164 0 1 0 I I #
edge $-1 $430 -70.884731589709162 $380 70.884731589709162 $376 $452 forward 7 unknown #
straight-curve $-1 -70.884731589709162 -35.928891144582224 0 0 0 -1 I I #
point $-1 70.884731589709162 -35.928891144582224 12.064418793191164 #
point $-1 -70.884731589709162 20.380271738523 -2.9743823707163664 #
straight-curve $-1 -70.884731589709162 14.077290720776304 -2.9743823707163664 0 -1 0 I I #
point $-1 -70.884731589709162 35.928891144582217 -2.9743823707163664 #
straight-curve $-1 -70.884731589709162 35.928891144582224 0 0 0 -1 I I #
edge $-1 $408 87.993023413316251 $402 99.336537779032909 $406 $453 forward 7 unknown #
straight-curve $-1 70.884731589709148 -8.5510936873133723 0.72090442747450822 0 1 0 I I #
point $-1 70.884731589709162 -21.104910061080929 0.72090442747450822 #
straight-curve $-1 0 -21.104910061080929 12.064418793191164 1 0 0 I I #
point $-1 70.884731589709162 -21.104910061080929 12.064418793191168 #
point $-1 61.373313972634676 -17.102187374626745 3.2963040766265248 #
straight-curve $-1 -70.884731589709162 0 12.064418793191164 0 -1 0 I I #
straight-curve $-1 -70.884731589709162 -21.104910061080929 55.448234649071203 0 0 1 I I #
point $-1 -70.884731589709162 -21.104910061080929 12.064418793191168 #
point $-1 -61.373313972634676 -17.102187374626745 3.2963040766265266 #
point $-1 -70.884731589709162 -35.928891144582224 12.064418793191164 #
straight-curve $-1 0 -35.928891144582224 12.064418793191164 1 0 0 I I #
straight-curve $-1 70.884731589709162 -21.104910061080929 100.05744220650742 0 0 -1 I I #
End-of-ACIS-data 