500 0 10 0           
7 Unknown 11 ACIS 5.0 NT 24 Fri Mar 26 00:46:50 1999 
-1 9.9999999999999995e-007 1e-010 
body $-1 $10 $-1 $11 #
body $-1 $12 $-1 $13 #
body $-1 $14 $-1 $15 #
body $-1 $16 $-1 $17 #
body $-1 $18 $-1 $19 #
body $-1 $20 $-1 $21 #
body $-1 $22 $-1 $23 #
body $-1 $24 $-1 $25 #
body $-1 $26 $-1 $27 #
body $-1 $28 $-1 $29 #
lump $-1 $-1 $30 $0 #
transform $-1 1 0 0 0 1 0 0 0 1 76.093630787072357 49.975822096225869 16.583059739611336 1 rotate no_reflect no_shear #
lump $-1 $-1 $31 $1 #
transform $-1 1 0 0 0 1 0 0 0 1 76.093630787072357 49.975822096225869 16.583059739611336 1 rotate no_reflect no_shear #
lump $-1 $-1 $32 $2 #
transform $-1 1 0 0 0 1 0 0 0 1 76.093630787072357 49.975822096225869 16.583059739611336 1 rotate no_reflect no_shear #
lump $-1 $-1 $33 $3 #
transform $-1 1 0 0 0 1 0 0 0 1 76.093630787072357 49.975822096225869 16.583059739611336 1 rotate no_reflect no_shear #
lump $-1 $-1 $34 $4 #
transform $-1 1 0 0 0 1 0 0 0 1 76.093630787072357 49.975822096225869 16.583059739611336 1 rotate no_reflect no_shear #
lump $-1 $-1 $35 $5 #
transform $-1 1 0 0 0 1 0 0 0 1 76.093630787072357 49.975822096225869 16.583059739611336 1 rotate no_reflect no_shear #
lump $-1 $-1 $36 $6 #
transform $-1 1 0 0 0 1 0 0 0 1 76.093630787072357 49.975822096225869 16.583059739611336 1 rotate no_reflect no_shear #
lump $-1 $-1 $37 $7 #
transform $-1 1 0 0 0 1 0 0 0 1 76.093630787072357 49.975822096225869 16.583059739611336 1 rotate no_reflect no_shear #
lump $-1 $-1 $38 $8 #
transform $-1 1 0 0 0 1 0 0 0 1 76.093630787072357 49.975822096225869 16.583059739611336 1 rotate no_reflect no_shear #
lump $-1 $-1 $39 $9 #
transform $-1 1 0 0 0 1 0 0 0 1 76.093630787072357 49.975822096225869 16.583059739611336 1 rotate no_reflect no_shear #
shell $-1 $-1 $-1 $40 $-1 $10 #
shell $-1 $-1 $-1 $41 $-1 $12 #
shell $-1 $-1 $-1 $42 $-1 $14 #
shell $-1 $-1 $-1 $43 $-1 $16 #
shell $-1 $-1 $-1 $44 $-1 $18 #
shell $-1 $-1 $-1 $45 $-1 $20 #
shell $-1 $-1 $-1 $46 $-1 $22 #
shell $-1 $-1 $-1 $47 $-1 $24 #
shell $-1 $-1 $-1 $48 $-1 $26 #
shell $-1 $-1 $-1 $49 $-1 $28 #
face $-1 $50 $51 $30 $-1 $52 forward single #
face $-1 $53 $54 $31 $-1 $55 forward single #
face $-1 $56 $57 $32 $-1 $58 forward single #
face $-1 $59 $60 $33 $-1 $61 reversed single #
face $-1 $62 $63 $34 $-1 $64 forward single #
face $-1 $65 $66 $35 $-1 $67 forward single #
face $-1 $68 $69 $36 $-1 $70 reversed single #
face $-1 $71 $72 $37 $-1 $73 forward single #
face $-1 $74 $75 $38 $-1 $76 reversed single #
face $-1 $77 $78 $39 $-1 $79 forward single #
face $-1 $80 $81 $30 $-1 $82 reversed single #
loop $-1 $-1 $83 $40 #
plane-surface $-1 0 0 16.583059739611336 0 0 1 1 0 0 forward_v I I I I #
face $-1 $84 $85 $31 $-1 $86 forward single #
loop $-1 $-1 $87 $41 #
plane-surface $-1 -76.093630787072357 0 0 1 0 0 0 0 -1 forward_v I I I I #
face $-1 $88 $89 $32 $-1 $90 reversed single #
loop $-1 $-1 $91 $42 #
plane-surface $-1 66.796195904953947 0 13.686600523166243 0 0 1 1 0 0 forward_v I I I I #
face $-1 $92 $93 $33 $-1 $94 reversed single #
loop $-1 $-1 $95 $43 #
plane-surface $-1 -52.516097880449252 -147.79990939056694 124.82315561251315 -1 0 0 0 -0.64278761758704617 0.76604443648966558 forward_v I I I I #
face $-1 $96 $97 $34 $-1 $98 forward single #
loop $-1 $99 $100 $44 #
cone-surface $-1 -61.432578386653958 -43.552310185039481 10.680812998180521 0 0.64278761758704617 -0.76604443648966558 1.5 0 0 1 I I 0 1 1.5 forward I I I I #
face $-1 $101 $102 $35 $-1 $103 forward single #
loop $-1 $104 $105 $45 #
cone-surface $-1 -56.08269008293113 -43.552310185039481 10.680812998180521 0 0.64278761758704617 -0.76604443648966558 1.5 0 0 1 I I 0 1 1.5 forward I I I I #
face $-1 $106 $107 $36 $-1 $108 reversed single #
loop $-1 $-1 $109 $46 #
plane-surface $-1 -46.393371380460216 55.391257220010743 193.15907834942598 1 0 0 0 -0.57357644374324357 -0.81915203911291934 forward_v I I I I #
face $-1 $110 $111 $37 $-1 $112 forward single #
loop $-1 $113 $114 $47 #
cone-surface $-1 -32.925496351302307 45.479703413538509 12.978437009505049 0 -0.57357644374324357 -0.81915203911291934 2 0 0 1 I I 0 1 2 forward I I I I #
face $-1 $115 $116 $38 $-1 $117 reversed single #
loop $-1 $-1 $118 $48 #
plane-surface $-1 14.855594425525467 55.391257220010743 193.15907834942598 1 0 0 0 -0.57357644374324357 -0.81915203911291934 forward_v I I I I #
face $-1 $119 $120 $39 $-1 $121 forward single #
loop $-1 $122 $123 $49 #
cone-surface $-1 28.323469454683377 45.479703413538509 12.978437009505049 0 -0.57357644374324357 -0.81915203911291934 2 0 0 1 I I 0 1 2 forward I I I I #
face $-1 $124 $125 $30 $-1 $126 reversed single #
loop $-1 $-1 $127 $50 #
plane-surface $-1 0 0 -16.583059739611336 0 0 1 1 0 0 forward_v I I I I #
coedge $-1 $128 $129 $130 $131 forward $51 $-1 #
face $-1 $132 $133 $31 $-1 $134 reversed single #
loop $-1 $-1 $135 $53 #
plane-surface $-1 0 0 16.583059739611336 0 0 1 1 0 0 forward_v I I I I #
coedge $-1 $136 $137 $138 $139 forward $54 $-1 #
face $-1 $140 $141 $32 $-1 $142 reversed single #
loop $-1 $-1 $143 $56 #
plane-surface $-1 66.796195904953947 0 3.8108562943132025 0 0 1 1 0 0 forward_v I I I I #
coedge $-1 $144 $145 $146 $147 reversed $57 $-1 #
face $-1 $148 $149 $33 $-1 $150 reversed single #
loop $-1 $-1 $151 $59 #
plane-surface $-1 -58.757634234792548 -49.975822096225841 8.2409505790421207 0 -0.64278761758704617 0.76604443648966558 1 0 0 forward_v I I I I #
coedge $-1 $152 $153 $154 $155 reversed $60 $-1 #
face $-1 $-1 $156 $34 $-1 $157 forward single #
loop $-1 $158 $159 $62 #
cone-surface $-1 -61.432578386653958 -41.61757673750887 8.3750875096670576 0 0.64278761758704617 -0.76604443648966558 0.75 0 0 1 I I -0.70710678118654757 0.70710678118654757 0.75 forward I I I I #
loop $-1 $-1 $160 $44 #
coedge $-1 $100 $100 $161 $162 reversed $63 $-1 #
face $-1 $-1 $163 $35 $-1 $164 forward single #
loop $-1 $165 $166 $65 #
cone-surface $-1 -56.08269008293113 -41.61757673750887 8.3750875096670576 0 0.64278761758704617 -0.76604443648966558 0.75 0 0 1 I I -0.70710678118654757 0.70710678118654757 0.75 forward I I I I #
loop $-1 $-1 $167 $45 #
coedge $-1 $105 $105 $168 $169 reversed $66 $-1 #
face $-1 $170 $171 $36 $-1 $172 reversed single #
loop $-1 $-1 $173 $68 #
plane-surface $-1 -32.925496351302307 -31.899771056709966 68.494572703954105 0 0.57357644374324357 0.81915203911291934 1 0 0 forward_v I I I I #
coedge $-1 $174 $175 $176 $177 reversed $69 $-1 #
face $-1 $-1 $178 $37 $-1 $179 forward single #
loop $-1 $180 $181 $71 #
cone-surface $-1 -32.925496351302307 44.279143692046446 11.263860069212697 0 -0.57357644374324357 -0.81915203911291934 1 0 0 1 I I -0.70710678118654746 0.70710678118654746 1 forward I I I I #
loop $-1 $-1 $182 $47 #
coedge $-1 $114 $114 $183 $184 reversed $72 $-1 #
face $-1 $185 $186 $38 $-1 $187 reversed single #
loop $-1 $-1 $188 $74 #
plane-surface $-1 28.323469454683377 -31.899771056709966 68.494572703954105 0 0.57357644374324357 0.81915203911291934 1 0 0 forward_v I I I I #
coedge $-1 $189 $190 $191 $192 reversed $75 $-1 #
face $-1 $-1 $193 $39 $-1 $194 forward single #
loop $-1 $195 $196 $77 #
cone-surface $-1 28.323469454683377 44.279143692046446 11.263860069212697 0 -0.57357644374324357 -0.81915203911291934 1 0 0 1 I I -0.70710678118654746 0.70710678118654746 1 forward I I I I #
loop $-1 $-1 $197 $49 #
coedge $-1 $123 $123 $198 $199 reversed $78 $-1 #
face $-1 $200 $201 $30 $-1 $202 reversed single #
loop $-1 $-1 $203 $80 #
plane-surface $-1 0 -49.975822096225869 0 0 1 0 0 0 1 forward_v I I I I #
coedge $-1 $204 $205 $206 $207 forward $81 $-1 #
coedge $-1 $208 $83 $209 $210 forward $51 $-1 #
coedge $-1 $83 $208 $211 $212 forward $51 $-1 #
coedge $-1 $213 $214 $83 $131 reversed $215 $-1 #
edge $-1 $216 -49.975822096225869 $217 49.975822096225869 $130 $218 forward 7 unknown #
face $-1 $219 $220 $31 $-1 $221 reversed single #
loop $-1 $-1 $222 $84 #
plane-surface $-1 -87.18809098500887 -46.58830690206441 0 1 0 0 0 0 -1 forward_v I I I I #
coedge $-1 $223 $224 $136 $225 forward $85 $-1 #
coedge $-1 $226 $87 $135 $225 reversed $54 $-1 #
coedge $-1 $87 $226 $227 $228 reversed $54 $-1 #
coedge $-1 $229 $230 $87 $139 reversed $220 $-1 #
edge $-1 $231 -16.583059739611336 $232 16.583059739611336 $138 $233 forward 7 unknown #
face $-1 $234 $235 $32 $-1 $236 reversed single #
loop $-1 $-1 $237 $88 #
plane-surface $-1 57.498761022835538 0 8.7487284087397228 1 0 0 0 0 -1 forward_v I I I I #
coedge $-1 $238 $239 $240 $241 reversed $89 $-1 #
coedge $-1 $242 $91 $243 $244 reversed $57 $-1 #
coedge $-1 $91 $242 $245 $246 reversed $57 $-1 #
coedge $-1 $247 $248 $91 $147 forward $235 $-1 #
edge $-1 $249 -49.975822096225869 $250 49.975822096225869 $146 $251 forward 7 unknown #
face $-1 $252 $253 $33 $-1 $254 forward single #
loop $-1 $-1 $255 $92 #
plane-surface $-1 -64.999170589135844 -147.79990939056694 124.82315561251315 1 0 0 0 0.64278761758704617 -0.76604443648966558 forward_v I I I I #
coedge $-1 $256 $257 $258 $259 reversed $93 $-1 #
coedge $-1 $153 $95 $260 $261 reversed $60 $-1 #
coedge $-1 $95 $152 $256 $262 reversed $60 $-1 #
coedge $-1 $258 $263 $95 $155 forward $253 $-1 #
edge $-1 $264 23.9241325990576 $265 33.865870952749752 $154 $266 forward 7 unknown #
loop $-1 $-1 $161 $96 #
plane-surface $-1 -58.757634234792548 -49.975822096225841 8.2409505790421207 0 -0.64278761758704617 0.76604443648966558 1 0 0 forward_v I I I I #
loop $-1 $-1 $267 $62 #
coedge $-1 $159 $159 $160 $268 reversed $97 $-1 #
coedge $-1 $160 $160 $159 $268 forward $99 $-1 #
coedge $-1 $161 $161 $100 $162 forward $156 $-1 #
edge $-1 $269 3.5470374365466512e-016 $269 6.2831853071796004 $161 $270 forward 7 unknown #
loop $-1 $-1 $168 $101 #
plane-surface $-1 -58.757634234792548 -49.975822096225841 8.2409505790421207 0 -0.64278761758704617 0.76604443648966558 1 0 0 forward_v I I I I #
loop $-1 $-1 $271 $65 #
coedge $-1 $166 $166 $167 $272 reversed $102 $-1 #
coedge $-1 $167 $167 $166 $272 forward $104 $-1 #
coedge $-1 $168 $168 $105 $169 forward $163 $-1 #
edge $-1 $273 3.5470374365466512e-016 $273 6.2831853071796004 $168 $274 forward 7 unknown #
face $-1 $275 $276 $36 $-1 $277 reversed single #
loop $-1 $-1 $278 $106 #
plane-surface $-1 -19.457621322144398 55.391257220010743 193.15907834942598 -1 0 0 0 0.57357644374324357 0.81915203911291934 forward_v I I I I #
coedge $-1 $279 $280 $281 $282 reversed $107 $-1 #
coedge $-1 $175 $109 $283 $284 reversed $69 $-1 #
coedge $-1 $109 $174 $279 $285 reversed $69 $-1 #
coedge $-1 $281 $286 $109 $177 forward $287 $-1 #
edge $-1 $288 -22.280193486220497 $289 -14.541922676343376 $176 $290 forward 7 unknown #
loop $-1 $-1 $183 $110 #
plane-surface $-1 -32.925496351302307 -31.899771056709966 68.494572703954105 0 0.57357644374324357 0.81915203911291934 1 0 0 forward_v I I I I #
loop $-1 $-1 $291 $71 #
coedge $-1 $181 $181 $182 $292 reversed $111 $-1 #
coedge $-1 $182 $182 $181 $292 forward $113 $-1 #
coedge $-1 $183 $183 $114 $184 forward $178 $-1 #
edge $-1 $293 -1.8211479819687945e-015 $293 6.2831853071795987 $183 $294 forward 7 unknown #
face $-1 $295 $296 $38 $-1 $297 forward single #
loop $-1 $-1 $298 $115 #
plane-surface $-1 41.791344483841286 55.391257220010743 193.15907834942598 -1 0 0 0 0.57357644374324357 0.81915203911291934 forward_v I I I I #
coedge $-1 $299 $300 $301 $302 reversed $116 $-1 #
coedge $-1 $190 $118 $303 $304 reversed $75 $-1 #
coedge $-1 $118 $189 $299 $305 reversed $75 $-1 #
coedge $-1 $301 $306 $118 $192 forward $296 $-1 #
edge $-1 $307 -22.280193486220497 $308 -14.541922676343376 $191 $309 forward 7 unknown #
loop $-1 $-1 $198 $119 #
plane-surface $-1 28.323469454683377 -31.899771056709966 68.494572703954105 0 0.57357644374324357 0.81915203911291934 1 0 0 forward_v I I I I #
loop $-1 $-1 $310 $77 #
coedge $-1 $196 $196 $197 $311 reversed $120 $-1 #
coedge $-1 $197 $197 $196 $311 forward $122 $-1 #
coedge $-1 $198 $198 $123 $199 forward $193 $-1 #
edge $-1 $312 -1.8211479819687945e-015 $312 6.2831853071795987 $198 $313 forward 7 unknown #
face $-1 $314 $315 $30 $-1 $316 reversed single #
loop $-1 $-1 $317 $124 #
plane-surface $-1 -76.093630787072357 0 0 1 0 0 0 0 -1 forward_v I I I I #
coedge $-1 $318 $211 $319 $320 forward $125 $-1 #
coedge $-1 $321 $127 $318 $322 forward $81 $-1 #
coedge $-1 $127 $321 $323 $324 forward $81 $-1 #
coedge $-1 $214 $213 $127 $207 reversed $215 $-1 #
edge $-1 $325 -49.975822096225869 $326 49.975822096225869 $206 $327 forward 7 unknown #
coedge $-1 $129 $128 $328 $329 forward $51 $-1 #
coedge $-1 $330 $331 $128 $210 reversed $315 $-1 #
edge $-1 $217 -76.093630787072357 $332 76.093630787072357 $209 $333 forward 7 unknown #
coedge $-1 $203 $334 $129 $212 reversed $125 $-1 #
edge $-1 $335 -76.093630787072357 $216 76.093630787072357 $211 $336 forward 7 unknown #
coedge $-1 $206 $130 $334 $337 forward $215 $-1 #
coedge $-1 $130 $206 $330 $338 reversed $215 $-1 #
loop $-1 $-1 $213 $314 #
vertex $-1 $131 $339 #
vertex $-1 $131 $340 #
straight-curve $-1 76.093630787072357 0 16.583059739611336 0 1 0 I I #
face $-1 $341 $342 $31 $-1 $343 reversed single #
loop $-1 $-1 $138 $132 #
plane-surface $-1 -81.640860886040613 -43.200791707902951 0 0 -1 0 0 0 -1 forward_v I I I I #
coedge $-1 $344 $345 $346 $347 forward $133 $-1 #
coedge $-1 $348 $135 $230 $349 forward $85 $-1 #
coedge $-1 $135 $348 $350 $351 forward $85 $-1 #
edge $-1 $352 -49.975822096225869 $232 -43.200791707902951 $135 $353 forward 7 unknown #
coedge $-1 $137 $136 $354 $355 reversed $54 $-1 #
coedge $-1 $356 $357 $137 $228 forward $342 $-1 #
edge $-1 $231 43.200791707902951 $358 49.975822096225869 $227 $359 forward 7 unknown #
coedge $-1 $346 $138 $357 $360 reversed $220 $-1 #
coedge $-1 $138 $346 $223 $349 reversed $220 $-1 #
vertex $-1 $228 $361 #
vertex $-1 $349 $362 #
straight-curve $-1 -76.093630787072357 -43.200791707902951 0 0 0 1 I I #
face $-1 $363 $364 $32 $-1 $365 reversed single #
loop $-1 $-1 $146 $140 #
plane-surface $-1 76.093630787072357 0 0 -1 0 0 0 0 1 forward_v I I I I #
coedge $-1 $366 $367 $368 $369 reversed $141 $-1 #
coedge $-1 $370 $143 $371 $372 reversed $89 $-1 #
coedge $-1 $143 $370 $373 $374 reversed $89 $-1 #
coedge $-1 $248 $247 $143 $241 forward $235 $-1 #
edge $-1 $375 -49.975822096225869 $376 49.975822096225869 $240 $377 forward 7 unknown #
coedge $-1 $145 $144 $367 $378 forward $57 $-1 #
coedge $-1 $379 $368 $144 $244 forward $380 $-1 #
edge $-1 $381 24.100663070358564 $249 42.695532834595383 $243 $382 forward 7 unknown #
coedge $-1 $383 $384 $145 $246 forward $364 $-1 #
edge $-1 $250 -42.695532834595383 $385 -24.100663070358564 $245 $386 forward 7 unknown #
coedge $-1 $240 $146 $384 $387 forward $235 $-1 #
coedge $-1 $146 $240 $379 $388 reversed $235 $-1 #
vertex $-1 $388 $389 #
vertex $-1 $387 $390 #
straight-curve $-1 76.093630787072357 0 13.686600523166243 0 -1 0 I I #
face $-1 $-1 $391 $33 $-1 $392 reversed single #
loop $-1 $-1 $154 $148 #
plane-surface $-1 0 0 16.583059739611336 0 0 1 1 0 0 forward_v I I I I #
coedge $-1 $393 $394 $395 $396 reversed $149 $-1 #
coedge $-1 $397 $151 $153 $262 forward $93 $-1 #
coedge $-1 $151 $397 $393 $398 forward $93 $-1 #
coedge $-1 $395 $154 $151 $259 forward $253 $-1 #
edge $-1 $265 23.137280763052978 $399 35.62035347173957 $258 $400 forward 7 unknown #
coedge $-1 $401 $402 $152 $261 forward $391 $-1 #
edge $-1 $403 -54.170627227214474 $264 -45.828518066645238 $260 $404 forward 7 unknown #
edge $-1 $265 -12.978017827855137 $403 3.6615954734859901e-014 $153 $405 forward 7 unknown #
coedge $-1 $154 $395 $401 $406 forward $253 $-1 #
vertex $-1 $261 $407 #
vertex $-1 $155 $408 #
straight-curve $-1 -52.516097880449252 -73.899954695283469 16.583059739611336 0 1 0 I I #
coedge $-1 $267 $267 $-1 $409 reversed $158 $-1 #
edge $-1 $410 0 $410 6.2831853071796004 $159 $411 forward 7 unknown #
vertex $-1 $162 $412 #
ellipse-curve $-1 -61.432578386653958 -45.004952919379797 12.412005159326716 0 -0.64278761758704617 0.76604443648966558 1.5 0 0 1 I I #
coedge $-1 $271 $271 $-1 $413 reversed $165 $-1 #
edge $-1 $414 0 $414 6.2831853071796004 $166 $415 forward 7 unknown #
vertex $-1 $169 $416 #
ellipse-curve $-1 -56.08269008293113 -45.004952919379797 12.412005159326716 0 -0.64278761758704617 0.76604443648966558 1.5 0 0 1 I I #
face $-1 $-1 $287 $36 $-1 $417 forward single #
loop $-1 $-1 $418 $170 #
plane-surface $-1 0 49.975822096225869 0 0 -1 0 0 0 -1 forward_v I I I I #
coedge $-1 $419 $420 $421 $422 reversed $171 $-1 #
coedge $-1 $423 $173 $175 $285 forward $107 $-1 #
coedge $-1 $173 $423 $419 $424 forward $107 $-1 #
coedge $-1 $421 $176 $173 $282 forward $287 $-1 #
edge $-1 $289 -29.930623204809063 $425 -2.9948731464932443 $281 $426 forward 7 unknown #
coedge $-1 $427 $428 $174 $284 forward $276 $-1 #
edge $-1 $429 -85.414875092955384 $288 -79.996479435101662 $283 $430 forward 7 unknown #
edge $-1 $289 90.504959767107351 $429 99.951644192451738 $175 $431 forward 7 unknown #
coedge $-1 $176 $421 $427 $432 forward $287 $-1 #
loop $-1 $-1 $421 $275 #
vertex $-1 $284 $433 #
vertex $-1 $177 $434 #
straight-curve $-1 -46.393371380460216 27.695628610005372 16.583059739611343 0 -1 0 I I #
coedge $-1 $291 $291 $-1 $435 reversed $180 $-1 #
edge $-1 $436 0 $436 6.2831853071796004 $181 $437 forward 7 unknown #
vertex $-1 $184 $438 #
ellipse-curve $-1 -32.925496351302307 46.106686691287308 13.873861910684457 0 0.57357644374324357 0.81915203911291934 2 0 0 1 I I #
face $-1 $-1 $439 $38 $-1 $440 reversed single #
loop $-1 $-1 $191 $185 #
plane-surface $-1 0 0 16.583059739611336 0 0 1 1 0 0 forward_v I I I I #
coedge $-1 $441 $442 $443 $444 reversed $186 $-1 #
coedge $-1 $445 $188 $190 $305 forward $116 $-1 #
coedge $-1 $188 $445 $441 $446 forward $116 $-1 #
coedge $-1 $443 $191 $188 $302 forward $296 $-1 #
edge $-1 $308 0.69385969818377902 $447 27.629609756499597 $301 $448 forward 7 unknown #
coedge $-1 $449 $450 $189 $304 forward $439 $-1 #
edge $-1 $451 -85.414875092955384 $307 -79.996479435101662 $303 $452 forward 7 unknown #
edge $-1 $308 90.504959767107351 $451 99.951644192451738 $190 $453 forward 7 unknown #
coedge $-1 $191 $443 $449 $454 forward $296 $-1 #
vertex $-1 $192 $455 #
vertex $-1 $192 $456 #
straight-curve $-1 14.855594425525467 27.695628610005372 16.583059739611343 0 -1 0 I I #
coedge $-1 $310 $310 $-1 $457 reversed $195 $-1 #
edge $-1 $458 0 $458 6.2831853071796004 $196 $459 forward 7 unknown #
vertex $-1 $199 $460 #
ellipse-curve $-1 28.323469454683377 46.106686691287308 13.873861910684457 0 0.57357644374324357 0.81915203911291934 2 0 0 1 I I #
face $-1 $-1 $215 $30 $-1 $461 reversed single #
loop $-1 $-1 $330 $200 #
plane-surface $-1 0 49.975822096225869 0 0 -1 0 0 0 -1 forward_v I I I I #
coedge $-1 $462 $328 $331 $463 forward $201 $-1 #
coedge $-1 $334 $203 $204 $322 reversed $125 $-1 #
coedge $-1 $328 $462 $203 $320 reversed $201 $-1 #
edge $-1 $335 -16.583059739611336 $464 16.583059739611336 $319 $465 forward 7 unknown #
coedge $-1 $205 $204 $462 $466 forward $81 $-1 #
edge $-1 $326 -76.093630787072357 $464 76.093630787072357 $318 $467 forward 7 unknown #
coedge $-1 $331 $330 $205 $324 reversed $315 $-1 #
edge $-1 $468 -76.093630787072357 $325 76.093630787072357 $323 $469 forward 7 unknown #
vertex $-1 $207 $470 #
vertex $-1 $337 $471 #
straight-curve $-1 76.093630787072357 0 -16.583059739611336 0 -1 0 I I #
coedge $-1 $317 $319 $208 $329 reversed $201 $-1 #
edge $-1 $332 -49.975822096225869 $335 49.975822096225869 $328 $472 forward 7 unknown #
coedge $-1 $323 $209 $214 $338 forward $315 $-1 #
coedge $-1 $209 $323 $317 $463 reversed $315 $-1 #
vertex $-1 $210 $473 #
straight-curve $-1 0 49.975822096225869 16.583059739611336 -1 0 0 I I #
coedge $-1 $211 $318 $213 $337 reversed $125 $-1 #
vertex $-1 $329 $474 #
straight-curve $-1 0 -49.975822096225869 16.583059739611336 1 0 0 I I #
edge $-1 $216 -16.583059739611336 $326 16.583059739611336 $213 $475 forward 7 unknown #
edge $-1 $217 -16.583059739611336 $325 16.583059739611336 $214 $476 forward 7 unknown #
point $-1 76.093630787072357 -49.975822096225869 16.583059739611336 #
point $-1 76.093630787072357 49.975822096225869 16.583059739611336 #
face $-1 $-1 $477 $31 $-1 $478 reversed single #
loop $-1 $-1 $227 $219 #
plane-surface $-1 0 0 -16.583059739611336 0 0 1 1 0 0 forward_v I I I I #
coedge $-1 $479 $222 $480 $481 reversed $133 $-1 #
coedge $-1 $222 $479 $348 $482 reversed $133 $-1 #
coedge $-1 $230 $229 $222 $347 reversed $220 $-1 #
edge $-1 $483 -16.583059739611336 $484 16.583059739611336 $346 $485 forward 7 unknown #
coedge $-1 $224 $223 $345 $482 forward $85 $-1 #
edge $-1 $232 -5.5472300989682566 $483 5.5472300989682566 $230 $486 forward 7 unknown #
coedge $-1 $487 $354 $224 $351 reversed $477 $-1 #
edge $-1 $488 -87.18809098500887 $352 -76.093630787072357 $350 $489 forward 7 unknown #
vertex $-1 $355 $490 #
straight-curve $-1 -76.093630787072357 0 16.583059739611336 0 1 0 I I #
coedge $-1 $350 $491 $226 $355 forward $477 $-1 #
edge $-1 $358 -16.583059739611336 $352 16.583059739611336 $354 $492 forward 7 unknown #
coedge $-1 $480 $227 $491 $493 forward $342 $-1 #
coedge $-1 $227 $480 $229 $360 forward $342 $-1 #
vertex $-1 $493 $494 #
straight-curve $-1 -76.093630787072357 0 -16.583059739611336 0 -1 0 I I #
edge $-1 $484 -5.5472300989682566 $231 5.5472300989682566 $229 $495 forward 7 unknown #
point $-1 -76.093630787072357 -43.200791707902951 -16.583059739611336 #
point $-1 -76.093630787072357 -43.200791707902951 16.583059739611336 #
face $-1 $-1 $380 $32 $-1 $496 reversed single #
loop $-1 $-1 $245 $234 #
plane-surface $-1 0 -49.975822096225869 0 0 1 0 0 0 1 forward_v I I I I #
coedge $-1 $497 $237 $370 $498 reversed $141 $-1 #
coedge $-1 $237 $497 $242 $378 reversed $141 $-1 #
coedge $-1 $243 $373 $237 $369 forward $380 $-1 #
edge $-1 $499 -0.5635079100566589 $381 9.3122363187963817 $368 $500 forward 7 unknown #
coedge $-1 $239 $238 $366 $498 forward $89 $-1 #
coedge $-1 $384 $383 $238 $372 forward $364 $-1 #
edge $-1 $501 24.100663070358564 $375 42.695532834595383 $371 $502 forward 7 unknown #
coedge $-1 $368 $379 $239 $374 forward $380 $-1 #
edge $-1 $376 -42.695532834595383 $499 -24.100663070358564 $373 $503 forward 7 unknown #
vertex $-1 $372 $504 #
vertex $-1 $241 $505 #
straight-curve $-1 76.093630787072357 0 3.8108562943132025 0 1 0 I I #
edge $-1 $381 -49.975822096225869 $385 49.975822096225869 $367 $506 forward 7 unknown #
coedge $-1 $373 $243 $248 $388 forward $380 $-1 #
loop $-1 $-1 $243 $363 #
vertex $-1 $244 $507 #
straight-curve $-1 33.398097952476974 49.975822096225869 13.686600523166243 1 0 0 I I #
coedge $-1 $371 $245 $497 $508 forward $364 $-1 #
coedge $-1 $245 $371 $247 $387 reversed $364 $-1 #
vertex $-1 $246 $509 #
straight-curve $-1 33.398097952476974 -49.975822096225869 13.686600523166243 -1 0 0 I I #
edge $-1 $250 -13.686600523166243 $375 -3.8108562943132025 $247 $510 forward 7 unknown #
edge $-1 $249 -13.686600523166243 $376 -3.8108562943132025 $248 $511 forward 7 unknown #
point $-1 76.093630787072357 49.975822096225869 13.686600523166243 #
point $-1 76.093630787072357 -49.975822096225869 13.686600523166243 #
loop $-1 $-1 $260 $252 #
plane-surface $-1 0 -49.975822096225869 0 0 1 0 0 0 1 forward_v I I I I #
coedge $-1 $394 $255 $257 $398 reversed $149 $-1 #
coedge $-1 $255 $393 $512 $513 reversed $149 $-1 #
coedge $-1 $263 $258 $255 $396 forward $253 $-1 #
edge $-1 $399 -33.865870952749752 $514 -23.9241325990576 $395 $515 forward 7 unknown #
coedge $-1 $257 $256 $402 $516 reversed $93 $-1 #
edge $-1 $517 -3.6615954734859901e-014 $399 12.978017827855137 $393 $518 forward 7 unknown #
vertex $-1 $259 $519 #
straight-curve $-1 -29.378817117396274 -40.034083742533717 16.583059739611336 -1 0 0 I I #
coedge $-1 $512 $260 $263 $406 reversed $391 $-1 #
coedge $-1 $260 $512 $397 $516 forward $391 $-1 #
vertex $-1 $261 $520 #
straight-curve $-1 -52.516097880449252 -49.975822096225869 62.411577806256574 0 0 1 I I #
straight-curve $-1 -52.516097880449252 -49.975822096225841 8.2409505790421207 0 -0.76604443648966558 -0.64278761758704617 I I #
edge $-1 $514 -64.999170589135844 $264 -52.516097880449252 $401 $521 forward 7 unknown #
point $-1 -52.516097880449252 -49.975822096225869 16.583059739611336 #
point $-1 -52.516097880449252 -40.034083742533717 16.583059739611336 #
edge $-1 $522 1 $522 0 $267 $-1 forward 7 unknown #
vertex $-1 $268 $523 #
ellipse-curve $-1 -61.432578386653958 -42.099667450699151 8.9496208370343062 0 -0.64278761758704617 0.76604443648966558 1.5 0 0 1 I I #
point $-1 -59.932578386653958 -45.004952919379811 12.412005159326734 #
edge $-1 $524 1 $524 0 $271 $-1 forward 7 unknown #
vertex $-1 $272 $525 #
ellipse-curve $-1 -56.08269008293113 -42.099667450699151 8.9496208370343062 0 -0.64278761758704617 0.76604443648966558 1.5 0 0 1 I I #
point $-1 -54.58269008293113 -45.004952919379811 12.412005159326734 #
plane-surface $-1 0 0 16.583059739611336 0 0 1 1 0 0 forward_v I I I I #
coedge $-1 $428 $427 $420 $526 forward $276 $-1 #
coedge $-1 $420 $278 $280 $424 reversed $171 $-1 #
coedge $-1 $278 $419 $418 $526 reversed $171 $-1 #
coedge $-1 $286 $281 $278 $422 forward $287 $-1 #
edge $-1 $425 14.541922676343376 $527 22.280193486220497 $421 $528 forward 7 unknown #
coedge $-1 $280 $279 $428 $529 reversed $107 $-1 #
edge $-1 $530 -99.951644192451738 $425 -90.504959767107351 $419 $531 forward 7 unknown #
vertex $-1 $282 $532 #
straight-curve $-1 -16.462748175651154 42.237551286348733 16.583059739611343 1 0 0 I I #
coedge $-1 $418 $283 $286 $432 reversed $276 $-1 #
coedge $-1 $283 $418 $423 $529 forward $276 $-1 #
vertex $-1 $284 $533 #
straight-curve $-1 -46.393371380460216 49.975822096225869 96.579539174712991 0 0 1 I I #
straight-curve $-1 -46.393371380460216 -31.899771056709966 68.494572703954105 0 0.81915203911291934 -0.57357644374324357 I I #
edge $-1 $527 19.457621322144398 $288 46.393371380460216 $427 $534 forward 7 unknown #
point $-1 -46.393371380460216 49.975822096225869 16.583059739611336 #
point $-1 -46.393371380460216 42.237551286348747 16.583059739611336 #
edge $-1 $535 1 $535 0 $291 $-1 forward 7 unknown #
vertex $-1 $292 $536 #
ellipse-curve $-1 -32.925496351302307 44.852720135789689 12.083012108325617 0 0.57357644374324357 0.81915203911291934 2 0 0 1 I I #
point $-1 -30.925496351302307 46.106686691287322 13.873861910684484 #
loop $-1 $-1 $303 $295 #
plane-surface $-1 0 49.975822096225869 0 0 -1 0 0 0 -1 forward_v I I I I #
coedge $-1 $442 $298 $300 $446 reversed $186 $-1 #
coedge $-1 $298 $441 $537 $538 reversed $186 $-1 #
coedge $-1 $306 $301 $298 $444 forward $296 $-1 #
edge $-1 $447 14.541922676343376 $539 22.280193486220497 $443 $540 forward 7 unknown #
coedge $-1 $300 $299 $450 $541 reversed $116 $-1 #
edge $-1 $542 -99.951644192451738 $447 -90.504959767107351 $441 $543 forward 7 unknown #
vertex $-1 $302 $544 #
straight-curve $-1 14.161734727341688 42.237551286348733 16.583059739611343 1 0 0 I I #
coedge $-1 $537 $303 $306 $454 reversed $439 $-1 #
coedge $-1 $303 $537 $445 $541 forward $439 $-1 #
vertex $-1 $304 $545 #
straight-curve $-1 14.855594425525467 49.975822096225869 96.579539174712991 0 0 1 I I #
straight-curve $-1 14.855594425525467 -31.899771056709966 68.494572703954105 0 0.81915203911291934 -0.57357644374324357 I I #
edge $-1 $539 -41.791344483841286 $307 -14.855594425525467 $449 $546 forward 7 unknown #
point $-1 14.855594425525467 49.975822096225869 16.583059739611336 #
point $-1 14.855594425525467 42.237551286348747 16.583059739611336 #
edge $-1 $547 1 $547 0 $310 $-1 forward 7 unknown #
vertex $-1 $311 $548 #
ellipse-curve $-1 28.323469454683377 44.852720135789689 12.083012108325617 0 0.57357644374324357 0.81915203911291934 2 0 0 1 I I #
point $-1 30.323469454683377 46.106686691287322 13.873861910684484 #
plane-surface $-1 76.093630787072357 0 0 -1 0 0 0 0 1 forward_v I I I I #
coedge $-1 $319 $317 $321 $466 reversed $201 $-1 #
edge $-1 $332 -16.583059739611336 $468 16.583059739611336 $331 $549 forward 7 unknown #
vertex $-1 $466 $550 #
straight-curve $-1 -76.093630787072357 -49.975822096225869 0 0 0 -1 I I #
edge $-1 $464 -49.975822096225869 $468 49.975822096225869 $462 $551 forward 7 unknown #
straight-curve $-1 0 -49.975822096225869 -16.583059739611336 -1 0 0 I I #
vertex $-1 $324 $552 #
straight-curve $-1 0 49.975822096225869 -16.583059739611336 1 0 0 I I #
point $-1 76.093630787072357 49.975822096225869 -16.583059739611336 #
point $-1 76.093630787072357 -49.975822096225869 -16.583059739611336 #
straight-curve $-1 -76.093630787072357 0 16.583059739611336 0 -1 0 I I #
point $-1 -76.093630787072357 49.975822096225869 16.583059739611336 #
point $-1 -76.093630787072357 -49.975822096225869 16.583059739611336 #
straight-curve $-1 76.093630787072357 -49.975822096225869 0 0 0 -1 I I #
straight-curve $-1 76.093630787072357 49.975822096225869 0 0 0 -1 I I #
loop $-1 $-1 $354 $341 #
plane-surface $-1 0 -49.975822096225869 0 0 1 0 0 0 1 forward_v I I I I #
coedge $-1 $345 $344 $487 $553 reversed $133 $-1 #
coedge $-1 $357 $356 $344 $481 forward $342 $-1 #
edge $-1 $554 -3.387515194161459 $484 3.387515194161459 $344 $555 forward 7 unknown #
edge $-1 $483 -3.387515194161459 $488 3.387515194161459 $345 $556 forward 7 unknown #
vertex $-1 $349 $557 #
vertex $-1 $360 $558 #
straight-curve $-1 -87.18809098500887 -43.200791707902951 0 0 0 -1 I I #
straight-curve $-1 -81.640860886040613 -43.200791707902951 16.583059739611336 -1 0 0 I I #
coedge $-1 $491 $350 $479 $553 forward $477 $-1 #
vertex $-1 $482 $559 #
straight-curve $-1 0 -49.975822096225869 16.583059739611336 1 0 0 I I #
point $-1 -76.093630787072357 -49.975822096225869 16.583059739611336 #
coedge $-1 $354 $487 $356 $493 reversed $477 $-1 #
straight-curve $-1 -76.093630787072357 -49.975822096225869 0 0 0 1 I I #
edge $-1 $358 -5.5472300989682566 $554 5.5472300989682566 $491 $560 forward 7 unknown #
point $-1 -76.093630787072357 -49.975822096225869 -16.583059739611336 #
straight-curve $-1 -81.640860886040613 -43.200791707902951 -16.583059739611336 1 0 0 I I #
plane-surface $-1 0 49.975822096225869 0 0 -1 0 0 0 -1 forward_v I I I I #
coedge $-1 $367 $366 $383 $508 reversed $141 $-1 #
edge $-1 $501 -49.975822096225869 $499 49.975822096225869 $366 $561 forward 7 unknown #
vertex $-1 $374 $562 #
straight-curve $-1 57.498761022835538 49.975822096225869 4.3743642043698614 0 0 1 I I #
vertex $-1 $372 $563 #
straight-curve $-1 33.398097952476974 -49.975822096225869 3.8108562943132025 1 0 0 I I #
straight-curve $-1 33.398097952476974 49.975822096225869 3.8108562943132025 -1 0 0 I I #
point $-1 76.093630787072357 -49.975822096225869 3.8108562943132025 #
point $-1 76.093630787072357 49.975822096225869 3.8108562943132025 #
straight-curve $-1 57.498761022835538 0 13.686600523166243 0 -1 0 I I #
point $-1 57.498761022835538 49.975822096225869 13.686600523166243 #
edge $-1 $385 -9.3122363187963817 $501 0.5635079100566589 $383 $564 forward 7 unknown #
point $-1 57.498761022835538 -49.975822096225869 13.686600523166243 #
straight-curve $-1 76.093630787072357 -49.975822096225869 0 0 0 -1 I I #
straight-curve $-1 76.093630787072357 49.975822096225869 0 0 0 -1 I I #
coedge $-1 $402 $401 $394 $513 forward $391 $-1 #
edge $-1 $514 45.828518066645238 $517 54.170627227214474 $512 $565 forward 7 unknown #
vertex $-1 $406 $566 #
straight-curve $-1 -64.999170589135844 -73.899954695283469 16.583059739611336 0 -1 0 I I #
edge $-1 $517 -35.62035347173957 $403 -23.137280763052978 $402 $567 forward 7 unknown #
vertex $-1 $516 $568 #
straight-curve $-1 -64.999170589135844 -49.975822096225841 8.2409505790421207 0 0.76604443648966558 0.64278761758704617 I I #
point $-1 -64.999170589135844 -40.034083742533717 16.583059739611336 #
point $-1 -52.516097880449252 -49.975822096225869 8.2409505790420976 #
straight-curve $-1 0 -49.975822096225869 16.583059739611336 1 0 0 I I #
vertex $-1 $409 $569 #
point $-1 -59.932578386653958 -42.099667450699151 8.9496208370343062 #
vertex $-1 $413 $570 #
point $-1 -54.58269008293113 -42.099667450699151 8.9496208370343062 #
edge $-1 $527 79.996479435101662 $530 85.414875092955384 $418 $571 forward 7 unknown #
vertex $-1 $432 $572 #
straight-curve $-1 -19.457621322144398 27.695628610005372 16.583059739611343 0 1 0 I I #
edge $-1 $530 2.9948731464932443 $429 29.930623204809063 $428 $573 forward 7 unknown #
vertex $-1 $529 $574 #
straight-curve $-1 -19.457621322144398 -31.899771056709966 68.494572703954105 0 -0.81915203911291934 0.57357644374324357 I I #
point $-1 -19.457621322144398 42.237551286348747 16.583059739611336 #
point $-1 -46.393371380460216 49.975822096225869 11.164664081757607 #
straight-curve $-1 0 49.975822096225869 16.583059739611336 -1 0 0 I I #
vertex $-1 $435 $575 #
point $-1 -30.925496351302307 44.852720135789689 12.083012108325617 #
coedge $-1 $450 $449 $442 $538 forward $439 $-1 #
edge $-1 $539 79.996479435101662 $542 85.414875092955384 $537 $576 forward 7 unknown #
vertex $-1 $454 $577 #
straight-curve $-1 41.791344483841286 27.695628610005372 16.583059739611343 0 1 0 I I #
edge $-1 $542 -27.629609756499597 $451 -0.69385969818377902 $450 $578 forward 7 unknown #
vertex $-1 $541 $579 #
straight-curve $-1 41.791344483841286 -31.899771056709966 68.494572703954105 0 -0.81915203911291934 0.57357644374324357 I I #
point $-1 41.791344483841286 42.237551286348747 16.583059739611336 #
point $-1 14.855594425525467 49.975822096225869 11.164664081757607 #
straight-curve $-1 0 49.975822096225869 16.583059739611336 -1 0 0 I I #
vertex $-1 $457 $580 #
point $-1 30.323469454683377 44.852720135789689 12.083012108325617 #
straight-curve $-1 -76.093630787072357 49.975822096225869 0 0 0 -1 I I #
point $-1 -76.093630787072357 -49.975822096225869 -16.583059739611336 #
straight-curve $-1 -76.093630787072357 0 -16.583059739611336 0 1 0 I I #
point $-1 -76.093630787072357 49.975822096225869 -16.583059739611336 #
edge $-1 $488 -16.583059739611336 $554 16.583059739611336 $479 $581 forward 7 unknown #
vertex $-1 $481 $582 #
straight-curve $-1 -87.18809098500887 -46.58830690206441 -16.583059739611336 0 1 0 I I #
straight-curve $-1 -87.18809098500887 -46.58830690206441 16.583059739611336 0 -1 0 I I #
point $-1 -87.18809098500887 -43.200791707902951 16.583059739611336 #
point $-1 -87.18809098500887 -43.200791707902951 -16.583059739611336 #
point $-1 -87.18809098500887 -49.975822096225869 16.583059739611336 #
straight-curve $-1 -81.640860886040613 -49.975822096225869 -16.583059739611336 -1 0 0 I I #
straight-curve $-1 57.498761022835538 0 3.8108562943132025 0 1 0 I I #
point $-1 57.498761022835538 49.975822096225869 3.8108562943132025 #
point $-1 57.498761022835538 -49.975822096225869 3.8108562943132025 #
straight-curve $-1 57.498761022835538 -49.975822096225869 4.3743642043698614 0 0 -1 I I #
straight-curve $-1 -64.999170589135844 -49.975822096225869 62.411577806256574 0 0 -1 I I #
point $-1 -64.999170589135844 -49.975822096225869 16.583059739611336 #
straight-curve $-1 -29.378817117396274 -49.975822096225869 8.2409505790420976 1 0 0 I I #
point $-1 -64.999170589135844 -49.975822096225869 8.2409505790420976 #
point $-1 -61.432578386653958 -41.135486024318588 7.8005541822998081 #
point $-1 -56.08269008293113 -41.135486024318588 7.8005541822998081 #
straight-curve $-1 -19.457621322144398 49.975822096225869 96.579539174712991 0 0 -1 I I #
point $-1 -19.457621322144398 49.975822096225869 16.583059739611336 #
straight-curve $-1 -16.462748175651154 49.975822096225876 11.164664081757603 -1 0 0 I I #
point $-1 -19.457621322144398 49.975822096225869 11.164664081757607 #
point $-1 -32.925496351302307 43.705567248303204 10.444708030099777 #
straight-curve $-1 41.791344483841286 49.975822096225869 96.579539174712991 0 0 -1 I I #
point $-1 41.791344483841286 49.975822096225869 16.583059739611336 #
straight-curve $-1 14.161734727341688 49.975822096225876 11.164664081757603 -1 0 0 I I #
point $-1 41.791344483841286 49.975822096225869 11.164664081757607 #
point $-1 28.323469454683377 43.705567248303204 10.444708030099777 #
straight-curve $-1 -87.18809098500887 -49.975822096225869 0 0 0 -1 I I #
point $-1 -87.18809098500887 -49.975822096225869 -16.583059739611336 #
End-of-ACIS-data 