500 0 14 0           
7 Unknown 11 ACIS 5.0 NT 24 Fri Mar 26 02:10:56 1999 
-1 9.9999999999999995e-007 1e-010 
body $-1 $14 $-1 $15 #
body $-1 $16 $-1 $17 #
body $-1 $18 $-1 $19 #
body $-1 $20 $-1 $21 #
body $-1 $22 $-1 $23 #
body $-1 $24 $-1 $25 #
body $-1 $26 $-1 $27 #
body $-1 $28 $-1 $29 #
body $-1 $30 $-1 $31 #
body $-1 $32 $-1 $33 #
body $-1 $34 $-1 $35 #
body $-1 $36 $-1 $37 #
body $-1 $38 $-1 $39 #
body $-1 $40 $-1 $41 #
lump $-1 $-1 $42 $0 #
transform $-1 1 0 0 0 1 0 0 0 1 69.798272652363664 37.532414461282755 7.9126535568877614 1 rotate no_reflect no_shear #
lump $-1 $-1 $43 $1 #
transform $-1 1 0 0 0 1 0 0 0 1 69.798272652363664 37.532414461282755 7.9126535568877614 1 rotate no_reflect no_shear #
lump $-1 $-1 $44 $2 #
transform $-1 1 0 0 0 1 0 0 0 1 69.798272652363664 37.532414461282755 7.9126535568877614 1 rotate no_reflect no_shear #
lump $-1 $-1 $45 $3 #
transform $-1 1 0 0 0 1 0 0 0 1 69.798272652363664 37.532414461282755 7.9126535568877614 1 rotate no_reflect no_shear #
lump $-1 $-1 $46 $4 #
transform $-1 1 0 0 0 1 0 0 0 1 69.798272652363664 37.532414461282755 7.9126535568877614 1 rotate no_reflect no_shear #
lump $-1 $-1 $47 $5 #
transform $-1 1 0 0 0 1 0 0 0 1 69.798272652363664 37.532414461282755 7.9126535568877614 1 rotate no_reflect no_shear #
lump $-1 $-1 $48 $6 #
transform $-1 1 0 0 0 1 0 0 0 1 69.798272652363664 37.532414461282755 7.9126535568877614 1 rotate no_reflect no_shear #
lump $-1 $-1 $49 $7 #
transform $-1 1 0 0 0 1 0 0 0 1 69.798272652363664 37.532414461282755 7.9126535568877614 1 rotate no_reflect no_shear #
lump $-1 $-1 $50 $8 #
transform $-1 1 0 0 0 1 0 0 0 1 69.798272652363664 37.532414461282755 7.9126535568877614 1 rotate no_reflect no_shear #
lump $-1 $-1 $51 $9 #
transform $-1 1 0 0 0 1 0 0 0 1 69.798272652363664 37.532414461282755 7.9126535568877614 1 rotate no_reflect no_shear #
lump $-1 $-1 $52 $10 #
transform $-1 1 0 0 0 1 0 0 0 1 69.798272652363664 37.532414461282755 7.9126535568877614 1 rotate no_reflect no_shear #
lump $-1 $-1 $53 $11 #
transform $-1 1 0 0 0 1 0 0 0 1 69.798272652363664 37.532414461282755 7.9126535568877614 1 rotate no_reflect no_shear #
lump $-1 $-1 $54 $12 #
transform $-1 1 0 0 0 1 0 0 0 1 69.798272652363664 37.532414461282755 7.9126535568877614 1 rotate no_reflect no_shear #
lump $-1 $-1 $55 $13 #
transform $-1 1 0 0 0 1 0 0 0 1 69.798272652363664 37.532414461282755 7.9126535568877614 1 rotate no_reflect no_shear #
shell $-1 $-1 $-1 $56 $-1 $14 #
shell $-1 $-1 $-1 $57 $-1 $16 #
shell $-1 $-1 $-1 $58 $-1 $18 #
shell $-1 $-1 $-1 $59 $-1 $20 #
shell $-1 $-1 $-1 $60 $-1 $22 #
shell $-1 $-1 $-1 $61 $-1 $24 #
shell $-1 $-1 $-1 $62 $-1 $26 #
shell $-1 $-1 $-1 $63 $-1 $28 #
shell $-1 $-1 $-1 $64 $-1 $30 #
shell $-1 $-1 $-1 $65 $-1 $32 #
shell $-1 $-1 $-1 $66 $-1 $34 #
shell $-1 $-1 $-1 $67 $-1 $36 #
shell $-1 $-1 $-1 $68 $-1 $38 #
shell $-1 $-1 $-1 $69 $-1 $40 #
face $-1 $70 $71 $42 $-1 $72 forward single #
face $-1 $73 $74 $43 $-1 $75 forward single #
face $-1 $76 $77 $44 $-1 $78 reversed single #
face $-1 $79 $80 $45 $-1 $81 forward single #
face $-1 $82 $83 $46 $-1 $84 forward single #
face $-1 $85 $86 $47 $-1 $87 reversed single #
face $-1 $88 $89 $48 $-1 $90 forward single #
face $-1 $91 $92 $49 $-1 $93 forward single #
face $-1 $94 $95 $50 $-1 $96 reversed single #
face $-1 $97 $98 $51 $-1 $99 forward single #
face $-1 $100 $101 $52 $-1 $102 forward single #
face $-1 $103 $104 $53 $-1 $105 reversed single #
face $-1 $106 $107 $54 $-1 $108 forward single #
face $-1 $109 $110 $55 $-1 $111 forward single #
face $-1 $112 $113 $42 $-1 $114 reversed single #
loop $-1 $-1 $115 $56 #
plane-surface $-1 0 0 7.9126535568877614 0 0 1 1 0 0 forward_v I I I I #
face $-1 $116 $117 $43 $-1 $118 reversed single #
loop $-1 $-1 $119 $57 #
plane-surface $-1 0 -33.829656269142475 -4.9126535568877614 0 0 1 1 0 0 forward_v I I I I #
face $-1 $120 $121 $44 $-1 $122 reversed single #
loop $-1 $-1 $123 $58 #
plane-surface $-1 -149.86756266709176 -7.8323833699152949 115.909584345827 0 1 0 -0.57357644374324357 0 0.81915203911291934 forward_v I I I I #
face $-1 $124 $125 $45 $-1 $126 forward single #
loop $-1 $127 $128 $59 #
cone-surface $-1 -64.933341941866161 -4.5366286378994118 4.2675722038729083 0.57357644374324357 0 -0.81915203911291934 0.81915203911291934 0 0.57357644374324357 1 I I 0 1 1 forward I I I I #
face $-1 $129 $130 $46 $-1 $131 forward single #
loop $-1 $132 $133 $60 #
cone-surface $-1 -64.933341941866161 0.40700346012440747 4.2675722038729083 0.57357644374324357 0 -0.81915203911291934 0.81915203911291934 0 0.57357644374324357 1 I I 0 1 1 forward I I I I #
face $-1 $134 $135 $47 $-1 $136 reversed single #
loop $-1 $-1 $137 $61 #
plane-surface $-1 -69.798272652363679 -2.0648125888875057 1.5587896063405822 -0.57357644374324357 0 0.81915203911291934 0.81915203911291934 0 0.57357644374324357 forward_v I I I I #
face $-1 $138 $139 $48 $-1 $140 forward single #
loop $-1 $141 $142 $62 #
cone-surface $-1 -64.933341941866161 6.9985129241561665 4.2675722038729083 0.57357644374324357 0 -0.81915203911291934 0.81915203911291934 0 0.57357644374324357 1 I I 0 1 1 forward I I I I #
face $-1 $143 $144 $49 $-1 $145 forward single #
loop $-1 $146 $147 $63 #
cone-surface $-1 -64.933341941866161 11.942145022179986 4.2675722038729083 0.57357644374324357 0 -0.81915203911291934 0.81915203911291934 0 0.57357644374324357 1 I I 0 1 1 forward I I I I #
face $-1 $148 $149 $50 $-1 $150 reversed single #
loop $-1 $-1 $151 $64 #
plane-surface $-1 35.516767927605343 3.7027581921402835 195.97887436055507 0 -1 0 -0.57357644374324357 0 -0.81915203911291934 forward_v I I I I #
face $-1 $152 $153 $51 $-1 $154 forward single #
loop $-1 $155 $156 $65 #
cone-surface $-1 64.933341941866161 -4.5366286378994118 4.2675722038729047 -0.57357644374324357 0 -0.81915203911291934 0.81915203911291934 0 -0.57357644374324357 1 I I 0 1 1 forward I I I I #
face $-1 $157 $158 $52 $-1 $159 forward single #
loop $-1 $160 $161 $66 #
cone-surface $-1 64.933341941866161 0.40700346012440747 4.2675722038729047 -0.57357644374324357 0 -0.81915203911291934 0.81915203911291934 0 -0.57357644374324357 1 I I 0 1 1 forward I I I I #
face $-1 $162 $163 $53 $-1 $164 reversed single #
loop $-1 $-1 $165 $67 #
plane-surface $-1 35.516767927605343 15.237899754195862 195.97887436055507 0 -1 0 -0.57357644374324357 0 -0.81915203911291934 forward_v I I I I #
face $-1 $166 $167 $54 $-1 $168 forward single #
loop $-1 $169 $170 $68 #
cone-surface $-1 64.933341941866161 6.9985129241561665 4.2675722038729047 -0.57357644374324357 0 -0.81915203911291934 0.81915203911291934 0 -0.57357644374324357 1 I I 0 1 1 forward I I I I #
face $-1 $171 $172 $55 $-1 $173 forward single #
loop $-1 $174 $175 $69 #
cone-surface $-1 64.933341941866161 11.942145022179986 4.2675722038729047 -0.57357644374324357 0 -0.81915203911291934 0.81915203911291934 0 -0.57357644374324357 1 I I 0 1 1 forward I I I I #
face $-1 $176 $177 $42 $-1 $178 reversed single #
loop $-1 $-1 $179 $70 #
plane-surface $-1 0 0 -7.9126535568877614 0 0 1 1 0 0 forward_v I I I I #
coedge $-1 $180 $181 $182 $183 forward $71 $-1 #
face $-1 $184 $185 $43 $-1 $186 reversed single #
loop $-1 $-1 $187 $73 #
plane-surface $-1 0 -30.126898077002192 -6.4126535568877614 0 -1 0 0 0 -1 forward_v I I I I #
coedge $-1 $188 $189 $190 $191 reversed $74 $-1 #
face $-1 $192 $193 $44 $-1 $194 reversed single #
loop $-1 $-1 $195 $76 #
plane-surface $-1 -69.798272652363679 -2.0648125888875057 1.5587896063405822 -0.57357644374324357 0 0.81915203911291934 0.81915203911291934 0 0.57357644374324357 forward_v I I I I #
coedge $-1 $196 $197 $198 $199 reversed $77 $-1 #
face $-1 $-1 $200 $45 $-1 $201 forward single #
loop $-1 $202 $203 $79 #
cone-surface $-1 -64.318751990395924 -4.5366286378994118 3.3898468065751821 0.57357644374324357 0 -0.81915203911291934 0.40957601955645967 0 0.28678822187162178 1 I I -0.70710678118654746 0.70710678118654746 0.5 forward I I I I #
loop $-1 $-1 $204 $59 #
coedge $-1 $128 $128 $205 $206 reversed $80 $-1 #
face $-1 $-1 $207 $46 $-1 $208 forward single #
loop $-1 $209 $210 $82 #
cone-surface $-1 -64.318751990395924 0.40700346012440747 3.3898468065751821 0.57357644374324357 0 -0.81915203911291934 0.40957601955645967 0 0.28678822187162178 1 I I -0.70710678118654746 0.70710678118654746 0.5 forward I I I I #
loop $-1 $-1 $211 $60 #
coedge $-1 $133 $133 $212 $213 reversed $83 $-1 #
face $-1 $214 $215 $47 $-1 $216 forward single #
loop $-1 $-1 $217 $85 #
plane-surface $-1 -149.86756266709176 15.237899754195862 115.909584345827 0 -1 0 0.57357644374324357 0 -0.81915203911291934 forward_v I I I I #
coedge $-1 $218 $219 $220 $221 reversed $86 $-1 #
face $-1 $-1 $222 $48 $-1 $223 forward single #
loop $-1 $224 $225 $88 #
cone-surface $-1 -64.318751990395924 6.9985129241561665 3.3898468065751821 0.57357644374324357 0 -0.81915203911291934 0.40957601955645967 0 0.28678822187162178 1 I I -0.70710678118654746 0.70710678118654746 0.5 forward I I I I #
loop $-1 $-1 $226 $62 #
coedge $-1 $142 $142 $227 $228 reversed $89 $-1 #
face $-1 $-1 $229 $49 $-1 $230 forward single #
loop $-1 $231 $232 $91 #
cone-surface $-1 -64.318751990395924 11.942145022179986 3.3898468065751821 0.57357644374324357 0 -0.81915203911291934 0.40957601955645967 0 0.28678822187162178 1 I I -0.70710678118654746 0.70710678118654746 0.5 forward I I I I #
loop $-1 $-1 $233 $63 #
coedge $-1 $147 $147 $234 $235 reversed $92 $-1 #
face $-1 $236 $237 $50 $-1 $238 reversed single #
loop $-1 $-1 $239 $94 #
plane-surface $-1 -44.552522087122739 -2.0648125888875057 81.62807962106865 0.57357644374324357 0 0.81915203911291934 0.81915203911291934 0 -0.57357644374324357 forward_v I I I I #
coedge $-1 $240 $241 $242 $243 reversed $95 $-1 #
face $-1 $-1 $244 $51 $-1 $245 forward single #
loop $-1 $246 $247 $97 #
cone-surface $-1 64.318751990395924 -4.5366286378994118 3.3898468065751786 -0.57357644374324357 0 -0.81915203911291934 0.40957601955645967 0 -0.28678822187162178 1 I I -0.70710678118654746 0.70710678118654746 0.5 forward I I I I #
loop $-1 $-1 $248 $65 #
coedge $-1 $156 $156 $249 $250 reversed $98 $-1 #
face $-1 $-1 $251 $52 $-1 $252 forward single #
loop $-1 $253 $254 $100 #
cone-surface $-1 64.318751990395924 0.40700346012440747 3.3898468065751786 -0.57357644374324357 0 -0.81915203911291934 0.40957601955645967 0 -0.28678822187162178 1 I I -0.70710678118654746 0.70710678118654746 0.5 forward I I I I #
loop $-1 $-1 $255 $66 #
coedge $-1 $161 $161 $256 $257 reversed $101 $-1 #
face $-1 $258 $259 $53 $-1 $260 reversed single #
loop $-1 $-1 $261 $103 #
plane-surface $-1 -44.552522087122739 -2.0648125888875057 81.62807962106865 0.57357644374324357 0 0.81915203911291934 0.81915203911291934 0 -0.57357644374324357 forward_v I I I I #
coedge $-1 $262 $263 $264 $265 reversed $104 $-1 #
face $-1 $-1 $266 $54 $-1 $267 forward single #
loop $-1 $268 $269 $106 #
cone-surface $-1 64.318751990395924 6.9985129241561665 3.3898468065751786 -0.57357644374324357 0 -0.81915203911291934 0.40957601955645967 0 -0.28678822187162178 1 I I -0.70710678118654746 0.70710678118654746 0.5 forward I I I I #
loop $-1 $-1 $270 $68 #
coedge $-1 $170 $170 $271 $272 reversed $107 $-1 #
face $-1 $-1 $273 $55 $-1 $274 forward single #
loop $-1 $275 $276 $109 #
cone-surface $-1 64.318751990395924 11.942145022179986 3.3898468065751786 -0.57357644374324357 0 -0.81915203911291934 0.40957601955645967 0 -0.28678822187162178 1 I I -0.70710678118654746 0.70710678118654746 0.5 forward I I I I #
loop $-1 $-1 $277 $69 #
coedge $-1 $175 $175 $278 $279 reversed $110 $-1 #
face $-1 $280 $281 $42 $-1 $282 reversed single #
loop $-1 $-1 $283 $112 #
plane-surface $-1 0 -37.532414461282755 0 0 1 0 0 0 1 forward_v I I I I #
coedge $-1 $284 $285 $286 $287 forward $113 $-1 #
coedge $-1 $288 $115 $289 $290 forward $71 $-1 #
coedge $-1 $115 $288 $291 $292 forward $71 $-1 #
coedge $-1 $293 $294 $115 $183 reversed $295 $-1 #
edge $-1 $296 -37.532414461282755 $297 37.532414461282755 $182 $298 forward 7 unknown #
face $-1 $299 $300 $43 $-1 $301 reversed single #
loop $-1 $-1 $302 $116 #
plane-surface $-1 0 0 -7.9126535568877614 0 0 1 1 0 0 forward_v I I I I #
coedge $-1 $303 $304 $305 $306 reversed $117 $-1 #
coedge $-1 $307 $119 $304 $308 forward $74 $-1 #
coedge $-1 $119 $307 $309 $310 reversed $74 $-1 #
coedge $-1 $311 $305 $119 $191 forward $300 $-1 #
edge $-1 $312 13.212069942430954 $313 20.617586326711518 $190 $314 forward 7 unknown #
face $-1 $315 $316 $44 $-1 $317 forward single #
loop $-1 $-1 $318 $120 #
plane-surface $-1 -149.86756266709176 3.7027581921402835 115.909584345827 0 -1 0 0.57357644374324357 0 -0.81915203911291934 forward_v I I I I #
coedge $-1 $319 $320 $321 $322 reversed $121 $-1 #
coedge $-1 $197 $123 $323 $324 reversed $77 $-1 #
coedge $-1 $123 $196 $319 $325 reversed $77 $-1 #
coedge $-1 $321 $326 $123 $199 forward $316 $-1 #
edge $-1 $327 5.1355086811822162 $328 14.209766642979993 $198 $329 forward 7 unknown #
loop $-1 $-1 $205 $124 #
plane-surface $-1 -69.798272652363679 -2.0648125888875057 1.5587896063405822 -0.57357644374324357 0 0.81915203911291934 0.81915203911291934 0 0.57357644374324357 forward_v I I I I #
loop $-1 $-1 $330 $79 #
coedge $-1 $203 $203 $204 $331 reversed $125 $-1 #
coedge $-1 $204 $204 $203 $331 forward $127 $-1 #
coedge $-1 $205 $205 $128 $206 forward $200 $-1 #
edge $-1 $332 0 $332 6.2831853071796004 $205 $333 forward 7 unknown #
loop $-1 $-1 $212 $129 #
plane-surface $-1 -69.798272652363679 -2.0648125888875057 1.5587896063405822 -0.57357644374324357 0 0.81915203911291934 0.81915203911291934 0 0.57357644374324357 forward_v I I I I #
loop $-1 $-1 $334 $82 #
coedge $-1 $210 $210 $211 $335 reversed $130 $-1 #
coedge $-1 $211 $211 $210 $335 forward $132 $-1 #
coedge $-1 $212 $212 $133 $213 forward $207 $-1 #
edge $-1 $336 0 $336 6.2831853071796004 $212 $337 forward 7 unknown #
face $-1 $338 $339 $47 $-1 $340 forward single #
loop $-1 $-1 $341 $134 #
plane-surface $-1 0 0 7.9126535568877614 0 0 1 1 0 0 forward_v I I I I #
coedge $-1 $342 $343 $344 $345 reversed $135 $-1 #
coedge $-1 $346 $137 $347 $348 reversed $86 $-1 #
coedge $-1 $137 $346 $341 $349 reversed $86 $-1 #
coedge $-1 $350 $351 $137 $221 forward $339 $-1 #
edge $-1 $352 1.7372030585532449e-014 $353 11.077623601626552 $220 $354 forward 7 unknown #
loop $-1 $-1 $227 $138 #
plane-surface $-1 -69.798272652363679 -2.0648125888875057 1.5587896063405822 -0.57357644374324357 0 0.81915203911291934 0.81915203911291934 0 0.57357644374324357 forward_v I I I I #
loop $-1 $-1 $355 $88 #
coedge $-1 $225 $225 $226 $356 reversed $139 $-1 #
coedge $-1 $226 $226 $225 $356 forward $141 $-1 #
coedge $-1 $227 $227 $142 $228 forward $222 $-1 #
edge $-1 $357 0 $357 6.2831853071796004 $227 $358 forward 7 unknown #
loop $-1 $-1 $234 $143 #
plane-surface $-1 -69.798272652363679 -2.0648125888875057 1.5587896063405822 -0.57357644374324357 0 0.81915203911291934 0.81915203911291934 0 0.57357644374324357 forward_v I I I I #
loop $-1 $-1 $359 $91 #
coedge $-1 $232 $232 $233 $360 reversed $144 $-1 #
coedge $-1 $233 $233 $232 $360 forward $146 $-1 #
coedge $-1 $234 $234 $147 $235 forward $229 $-1 #
edge $-1 $361 0 $361 6.2831853071796004 $234 $362 forward 7 unknown #
face $-1 $363 $364 $50 $-1 $365 reversed single #
loop $-1 $-1 $366 $148 #
plane-surface $-1 35.516767927605343 -7.8323833699152949 195.97887436055507 0 1 0 0.57357644374324357 0 0.81915203911291934 forward_v I I I I #
coedge $-1 $367 $368 $369 $370 reversed $149 $-1 #
coedge $-1 $241 $151 $371 $372 reversed $95 $-1 #
coedge $-1 $151 $240 $367 $373 reversed $95 $-1 #
coedge $-1 $369 $374 $151 $243 forward $375 $-1 #
edge $-1 $376 -52.039888688560993 $377 -42.965630726763195 $242 $378 forward 7 unknown #
loop $-1 $-1 $249 $152 #
plane-surface $-1 -44.552522087122739 -2.0648125888875057 81.62807962106865 0.57357644374324357 0 0.81915203911291934 0.81915203911291934 0 -0.57357644374324357 forward_v I I I I #
loop $-1 $-1 $379 $97 #
coedge $-1 $247 $247 $248 $380 reversed $153 $-1 #
coedge $-1 $248 $248 $247 $380 forward $155 $-1 #
coedge $-1 $249 $249 $156 $250 forward $244 $-1 #
edge $-1 $381 0 $381 6.2831853071796004 $249 $382 forward 7 unknown #
loop $-1 $-1 $256 $157 #
plane-surface $-1 -44.552522087122739 -2.0648125888875057 81.62807962106865 0.57357644374324357 0 0.81915203911291934 0.81915203911291934 0 -0.57357644374324357 forward_v I I I I #
loop $-1 $-1 $383 $100 #
coedge $-1 $254 $254 $255 $384 reversed $158 $-1 #
coedge $-1 $255 $255 $254 $384 forward $160 $-1 #
coedge $-1 $256 $256 $161 $257 forward $251 $-1 #
edge $-1 $385 0 $385 6.2831853071796004 $256 $386 forward 7 unknown #
face $-1 $387 $388 $53 $-1 $389 forward single #
loop $-1 $-1 $390 $162 #
plane-surface $-1 69.798272652363664 0 0 -1 0 0 0 0 1 forward_v I I I I #
coedge $-1 $391 $392 $393 $394 reversed $163 $-1 #
coedge $-1 $263 $165 $395 $396 reversed $104 $-1 #
coedge $-1 $165 $262 $397 $398 reversed $104 $-1 #
coedge $-1 $399 $390 $165 $265 forward $259 $-1 #
edge $-1 $400 -96.430647573936952 $401 -90.076783623389773 $264 $402 forward 7 unknown #
loop $-1 $-1 $271 $166 #
plane-surface $-1 -44.552522087122739 -2.0648125888875057 81.62807962106865 0.57357644374324357 0 0.81915203911291934 0.81915203911291934 0 -0.57357644374324357 forward_v I I I I #
loop $-1 $-1 $403 $106 #
coedge $-1 $269 $269 $270 $404 reversed $167 $-1 #
coedge $-1 $270 $270 $269 $404 forward $169 $-1 #
coedge $-1 $271 $271 $170 $272 forward $266 $-1 #
edge $-1 $405 0 $405 6.2831853071796004 $271 $406 forward 7 unknown #
loop $-1 $-1 $278 $171 #
plane-surface $-1 -44.552522087122739 -2.0648125888875057 81.62807962106865 0.57357644374324357 0 0.81915203911291934 0.81915203911291934 0 -0.57357644374324357 forward_v I I I I #
loop $-1 $-1 $407 $109 #
coedge $-1 $276 $276 $277 $408 reversed $172 $-1 #
coedge $-1 $277 $277 $276 $408 forward $174 $-1 #
coedge $-1 $278 $278 $175 $279 forward $273 $-1 #
edge $-1 $409 0 $409 6.2831853071796004 $278 $410 forward 7 unknown #
face $-1 $411 $412 $42 $-1 $413 reversed single #
loop $-1 $-1 $414 $176 #
plane-surface $-1 -69.798272652363664 0 0 1 0 0 0 0 -1 forward_v I I I I #
coedge $-1 $415 $291 $416 $417 forward $177 $-1 #
coedge $-1 $418 $179 $415 $419 forward $113 $-1 #
coedge $-1 $179 $418 $420 $421 forward $113 $-1 #
coedge $-1 $294 $293 $179 $287 reversed $295 $-1 #
edge $-1 $422 -37.532414461282755 $423 37.532414461282755 $286 $424 forward 7 unknown #
coedge $-1 $181 $180 $425 $426 forward $71 $-1 #
coedge $-1 $427 $428 $180 $290 reversed $412 $-1 #
edge $-1 $297 -69.798272652363664 $429 69.798272652363664 $289 $430 forward 7 unknown #
coedge $-1 $283 $431 $181 $292 reversed $177 $-1 #
edge $-1 $432 -69.798272652363664 $296 69.798272652363664 $291 $433 forward 7 unknown #
coedge $-1 $286 $182 $431 $434 forward $295 $-1 #
coedge $-1 $182 $286 $427 $435 reversed $295 $-1 #
loop $-1 $-1 $293 $411 #
vertex $-1 $183 $436 #
vertex $-1 $183 $437 #
straight-curve $-1 69.798272652363664 0 7.9126535568877614 0 1 0 I I #
face $-1 $438 $439 $43 $-1 $440 reversed single #
loop $-1 $-1 $305 $184 #
plane-surface $-1 69.798272652363664 0 0 -1 0 0 0 0 1 forward_v I I I I #
coedge $-1 $441 $442 $303 $443 forward $185 $-1 #
coedge $-1 $444 $187 $302 $443 reversed $117 $-1 #
coedge $-1 $187 $444 $188 $308 reversed $117 $-1 #
coedge $-1 $190 $445 $187 $306 forward $300 $-1 #
edge $-1 $446 -4.7063267784438807 $312 -1.7063267784438807 $305 $447 forward 7 unknown #
coedge $-1 $189 $188 $448 $449 reversed $74 $-1 #
edge $-1 $312 -69.798272652363664 $450 69.798272652363664 $304 $451 forward 7 unknown #
coedge $-1 $452 $453 $189 $310 forward $439 $-1 #
edge $-1 $313 -69.798272652363664 $454 69.798272652363664 $309 $455 forward 7 unknown #
coedge $-1 $445 $190 $453 $456 forward $300 $-1 #
vertex $-1 $191 $457 #
vertex $-1 $456 $458 #
straight-curve $-1 69.798272652363664 -16.914828134571238 -4.9126535568877614 0 -1 0 I I #
face $-1 $-1 $459 $44 $-1 $460 reversed single #
loop $-1 $-1 $198 $192 #
plane-surface $-1 0 0 7.9126535568877614 0 0 1 1 0 0 forward_v I I I I #
coedge $-1 $461 $462 $463 $464 reversed $193 $-1 #
coedge $-1 $465 $195 $197 $325 forward $121 $-1 #
coedge $-1 $195 $465 $461 $466 forward $121 $-1 #
coedge $-1 $463 $198 $195 $322 forward $316 $-1 #
edge $-1 $328 -6.7999770754715421 $467 4.7351644865840363 $321 $468 forward 7 unknown #
coedge $-1 $469 $470 $196 $324 forward $459 $-1 #
edge $-1 $471 -56.396002566572911 $327 -50.042138616025738 $323 $472 forward 7 unknown #
edge $-1 $328 -11.077623601626552 $471 -1.7372030585532449e-014 $197 $473 forward 7 unknown #
coedge $-1 $198 $463 $469 $474 forward $316 $-1 #
vertex $-1 $324 $475 #
vertex $-1 $199 $476 #
straight-curve $-1 -74.93378133354588 -7.8323833699152949 7.9126535568877614 1 0 0 I I #
coedge $-1 $330 $330 $-1 $477 reversed $202 $-1 #
edge $-1 $478 0 $478 6.2831853071796004 $203 $479 forward 7 unknown #
vertex $-1 $206 $480 #
ellipse-curve $-1 -65.261143671464779 -4.5366286378994118 4.7357215816141753 -0.57357644374324357 0 0.81915203911291934 0.81915203911291934 0 0.57357644374324357 1 I I #
coedge $-1 $334 $334 $-1 $481 reversed $209 $-1 #
edge $-1 $482 0 $482 6.2831853071796004 $210 $483 forward 7 unknown #
vertex $-1 $213 $484 #
ellipse-curve $-1 -65.261143671464779 0.40700346012440747 4.7357215816141753 -0.57357644374324357 0 0.81915203911291934 0.81915203911291934 0 0.57357644374324357 1 I I #
face $-1 $-1 $485 $47 $-1 $486 reversed single #
loop $-1 $-1 $350 $214 #
plane-surface $-1 -149.86756266709176 3.7027581921402835 115.909584345827 0 -1 0 0.57357644374324357 0 -0.81915203911291934 forward_v I I I I #
coedge $-1 $344 $487 $219 $349 forward $215 $-1 #
coedge $-1 $343 $217 $346 $488 reversed $135 $-1 #
coedge $-1 $217 $342 $489 $490 reversed $135 $-1 #
coedge $-1 $491 $341 $217 $345 forward $215 $-1 #
edge $-1 $492 -14.209766642979993 $493 -5.1355086811822162 $344 $494 forward 7 unknown #
coedge $-1 $219 $218 $342 $488 forward $86 $-1 #
coedge $-1 $495 $489 $218 $348 forward $485 $-1 #
edge $-1 $496 -16.270306048639615 $352 -4.7351644865840363 $347 $497 forward 7 unknown #
edge $-1 $353 4.7351644865840363 $492 16.270306048639615 $341 $498 forward 7 unknown #
coedge $-1 $351 $220 $487 $499 reversed $339 $-1 #
coedge $-1 $220 $350 $495 $500 reversed $339 $-1 #
vertex $-1 $348 $501 #
vertex $-1 $349 $502 #
straight-curve $-1 -69.798272652363679 3.7027581921402835 1.5587896063405822 0.81915203911291934 0 0.57357644374324357 I I #
coedge $-1 $355 $355 $-1 $503 reversed $224 $-1 #
edge $-1 $504 0 $504 6.2831853071796004 $225 $505 forward 7 unknown #
vertex $-1 $228 $506 #
ellipse-curve $-1 -65.261143671464779 6.9985129241561665 4.7357215816141753 -0.57357644374324357 0 0.81915203911291934 0.81915203911291934 0 0.57357644374324357 1 I I #
coedge $-1 $359 $359 $-1 $507 reversed $231 $-1 #
edge $-1 $508 0 $508 6.2831853071796004 $232 $509 forward 7 unknown #
vertex $-1 $235 $510 #
ellipse-curve $-1 -65.261143671464779 11.942145022179986 4.7357215816141753 -0.57357644374324357 0 0.81915203911291934 0.81915203911291934 0 0.57357644374324357 1 I I #
face $-1 $-1 $375 $50 $-1 $511 forward single #
loop $-1 $-1 $512 $236 #
plane-surface $-1 69.798272652363664 0 0 -1 0 0 0 0 1 forward_v I I I I #
coedge $-1 $513 $514 $515 $516 reversed $237 $-1 #
coedge $-1 $517 $239 $241 $373 forward $149 $-1 #
coedge $-1 $239 $517 $513 $518 forward $149 $-1 #
coedge $-1 $515 $242 $239 $370 forward $375 $-1 #
edge $-1 $377 -4.7351644865840363 $519 6.7999770754715421 $369 $520 forward 7 unknown #
coedge $-1 $521 $522 $240 $372 forward $364 $-1 #
edge $-1 $523 -96.430647573936952 $376 -90.076783623389773 $371 $524 forward 7 unknown #
edge $-1 $377 128.51892170310074 $523 139.59654530472727 $241 $525 forward 7 unknown #
coedge $-1 $242 $515 $521 $526 forward $375 $-1 #
loop $-1 $-1 $515 $363 #
vertex $-1 $372 $527 #
vertex $-1 $243 $528 #
straight-curve $-1 17.758383963802672 3.7027581921402835 7.9126535568877614 -1 0 0 I I #
coedge $-1 $379 $379 $-1 $529 reversed $246 $-1 #
edge $-1 $530 0 $530 6.2831853071796004 $247 $531 forward 7 unknown #
vertex $-1 $250 $532 #
ellipse-curve $-1 65.261143671464765 -4.5366286378994118 4.7357215816141638 0.57357644374324357 0 0.81915203911291934 0.81915203911291934 0 -0.57357644374324357 1 I I #
coedge $-1 $383 $383 $-1 $533 reversed $253 $-1 #
edge $-1 $534 0 $534 6.2831853071796004 $254 $535 forward 7 unknown #
vertex $-1 $257 $536 #
ellipse-curve $-1 65.261143671464765 0.40700346012440747 4.7357215816141638 0.57357644374324357 0 0.81915203911291934 0.81915203911291934 0 -0.57357644374324357 1 I I #
face $-1 $-1 $537 $53 $-1 $538 forward single #
loop $-1 $-1 $539 $258 #
plane-surface $-1 35.516767927605343 3.7027581921402835 195.97887436055507 0 -1 0 -0.57357644374324357 0 -0.81915203911291934 forward_v I I I I #
coedge $-1 $264 $540 $392 $541 forward $259 $-1 #
coedge $-1 $395 $261 $542 $543 reversed $163 $-1 #
coedge $-1 $261 $395 $390 $541 reversed $163 $-1 #
coedge $-1 $544 $539 $261 $394 forward $388 $-1 #
edge $-1 $545 128.51892170310074 $546 139.59654530472727 $393 $547 forward 7 unknown #
coedge $-1 $392 $391 $262 $396 forward $163 $-1 #
edge $-1 $548 128.51892170310074 $400 139.59654530472727 $262 $549 forward 7 unknown #
coedge $-1 $542 $550 $263 $398 forward $537 $-1 #
edge $-1 $401 -52.039888688560993 $548 -42.965630726763195 $397 $551 forward 7 unknown #
coedge $-1 $540 $264 $550 $552 reversed $259 $-1 #
vertex $-1 $265 $553 #
vertex $-1 $265 $554 #
straight-curve $-1 69.798272652363664 15.237899754195862 97.989437180277534 0 0 1 I I #
coedge $-1 $403 $403 $-1 $555 reversed $268 $-1 #
edge $-1 $556 0 $556 6.2831853071796004 $269 $557 forward 7 unknown #
vertex $-1 $272 $558 #
ellipse-curve $-1 65.261143671464765 6.9985129241561665 4.7357215816141638 0.57357644374324357 0 0.81915203911291934 0.81915203911291934 0 -0.57357644374324357 1 I I #
coedge $-1 $407 $407 $-1 $559 reversed $275 $-1 #
edge $-1 $560 0 $560 6.2831853071796004 $276 $561 forward 7 unknown #
vertex $-1 $279 $562 #
ellipse-curve $-1 65.261143671464765 11.942145022179986 4.7357215816141638 0.57357644374324357 0 0.81915203911291934 0.81915203911291934 0 -0.57357644374324357 1 I I #
face $-1 $-1 $295 $42 $-1 $563 reversed single #
loop $-1 $-1 $427 $280 #
plane-surface $-1 0 37.532414461282755 0 0 -1 0 0 0 -1 forward_v I I I I #
coedge $-1 $564 $425 $428 $565 forward $281 $-1 #
coedge $-1 $431 $283 $284 $419 reversed $177 $-1 #
coedge $-1 $425 $564 $283 $417 reversed $281 $-1 #
edge $-1 $432 -7.9126535568877614 $566 7.9126535568877614 $416 $567 forward 7 unknown #
coedge $-1 $285 $284 $564 $568 forward $113 $-1 #
edge $-1 $423 -69.798272652363664 $566 69.798272652363664 $415 $569 forward 7 unknown #
coedge $-1 $428 $427 $285 $421 reversed $412 $-1 #
edge $-1 $570 -69.798272652363664 $422 69.798272652363664 $420 $571 forward 7 unknown #
vertex $-1 $287 $572 #
vertex $-1 $434 $573 #
straight-curve $-1 69.798272652363664 0 -7.9126535568877614 0 -1 0 I I #
coedge $-1 $414 $416 $288 $426 reversed $281 $-1 #
edge $-1 $429 -37.532414461282755 $432 37.532414461282755 $425 $574 forward 7 unknown #
coedge $-1 $420 $289 $294 $435 forward $412 $-1 #
coedge $-1 $289 $420 $414 $565 reversed $412 $-1 #
vertex $-1 $290 $575 #
straight-curve $-1 0 37.532414461282755 7.9126535568877614 -1 0 0 I I #
coedge $-1 $291 $415 $293 $434 reversed $177 $-1 #
vertex $-1 $426 $576 #
straight-curve $-1 0 -37.532414461282755 7.9126535568877614 1 0 0 I I #
edge $-1 $296 -7.9126535568877614 $423 7.9126535568877614 $293 $577 forward 7 unknown #
edge $-1 $297 -7.9126535568877614 $422 7.9126535568877614 $294 $578 forward 7 unknown #
point $-1 69.798272652363664 -37.532414461282755 7.9126535568877614 #
point $-1 69.798272652363664 37.532414461282755 7.9126535568877614 #
face $-1 $-1 $579 $43 $-1 $580 reversed single #
loop $-1 $-1 $309 $299 #
plane-surface $-1 0 -37.532414461282755 0 0 1 0 0 0 1 forward_v I I I I #
coedge $-1 $581 $302 $445 $582 forward $185 $-1 #
coedge $-1 $302 $581 $583 $584 forward $185 $-1 #
edge $-1 $585 -69.798272652363664 $446 69.798272652363664 $302 $586 forward 7 unknown #
coedge $-1 $304 $303 $587 $588 reversed $117 $-1 #
coedge $-1 $305 $311 $441 $582 reversed $300 $-1 #
vertex $-1 $582 $589 #
straight-curve $-1 69.798272652363664 -30.126898077002192 -3.2063267784438807 0 0 1 I I #
coedge $-1 $587 $590 $307 $449 forward $579 $-1 #
edge $-1 $454 -20.617586326711518 $450 -13.212069942430954 $448 $591 forward 7 unknown #
vertex $-1 $449 $592 #
straight-curve $-1 0 -30.126898077002192 -4.9126535568877614 -1 0 0 I I #
coedge $-1 $593 $309 $590 $594 forward $439 $-1 #
coedge $-1 $309 $593 $311 $456 reversed $439 $-1 #
vertex $-1 $594 $595 #
straight-curve $-1 0 -37.532414461282755 -4.9126535568877614 -1 0 0 I I #
edge $-1 $313 4.9126535568877614 $596 7.9126535568877614 $311 $597 forward 7 unknown #
point $-1 69.798272652363664 -30.126898077002192 -4.9126535568877614 #
point $-1 69.798272652363664 -37.532414461282755 -4.9126535568877614 #
loop $-1 $-1 $323 $315 #
plane-surface $-1 -69.798272652363664 0 0 1 0 0 0 0 -1 forward_v I I I I #
coedge $-1 $462 $318 $320 $466 reversed $193 $-1 #
coedge $-1 $318 $461 $598 $599 reversed $193 $-1 #
coedge $-1 $326 $321 $318 $464 forward $316 $-1 #
edge $-1 $467 -14.209766642979993 $600 -5.1355086811822162 $463 $601 forward 7 unknown #
coedge $-1 $320 $319 $470 $602 reversed $121 $-1 #
edge $-1 $603 1.7372030585532449e-014 $467 11.077623601626552 $461 $604 forward 7 unknown #
vertex $-1 $322 $605 #
straight-curve $-1 -60.72401469056588 -1.0324062944437529 7.9126535568877632 0 1 0 I I #
coedge $-1 $598 $323 $326 $474 reversed $459 $-1 #
coedge $-1 $323 $598 $465 $602 forward $459 $-1 #
vertex $-1 $324 $606 #
straight-curve $-1 -69.798272652363664 -7.8323833699152949 57.9547921729135 0 0 1 I I #
straight-curve $-1 -69.798272652363679 -7.8323833699152949 1.5587896063405822 -0.81915203911291934 0 -0.57357644374324357 I I #
edge $-1 $600 -3.7027581921402835 $327 7.8323833699152949 $469 $607 forward 7 unknown #
point $-1 -69.798272652363664 -7.8323833699152949 7.9126535568877614 #
point $-1 -60.724014690565888 -7.8323833699152949 7.9126535568877614 #
edge $-1 $608 1 $608 0 $330 $-1 forward 7 unknown #
vertex $-1 $331 $609 #
ellipse-curve $-1 -64.605540212267542 -4.5366286378994118 3.7994228261316416 -0.57357644374324357 0 0.81915203911291934 0.81915203911291934 0 0.57357644374324357 1 I I #
point $-1 -64.441991632351858 -4.5366286378994118 5.3092980253574185 #
edge $-1 $610 1 $610 0 $334 $-1 forward 7 unknown #
vertex $-1 $335 $611 #
ellipse-curve $-1 -64.605540212267542 0.40700346012440747 3.7994228261316416 -0.57357644374324357 0 0.81915203911291934 0.81915203911291934 0 0.57357644374324357 1 I I #
point $-1 -64.441991632351858 0.40700346012440747 5.3092980253574185 #
loop $-1 $-1 $347 $338 #
plane-surface $-1 -69.798272652363664 0 0 1 0 0 0 0 -1 forward_v I I I I #
coedge $-1 $341 $491 $350 $499 forward $215 $-1 #
edge $-1 $496 1.7372030585532449e-014 $492 11.077623601626552 $342 $612 forward 7 unknown #
coedge $-1 $347 $613 $343 $490 forward $485 $-1 #
edge $-1 $493 50.042138616025738 $496 56.396002566572911 $489 $614 forward 7 unknown #
coedge $-1 $487 $344 $613 $615 forward $215 $-1 #
vertex $-1 $345 $616 #
vertex $-1 $615 $617 #
straight-curve $-1 -74.93378133354588 15.237899754195862 7.9126535568877614 -1 0 0 I I #
coedge $-1 $613 $347 $351 $500 forward $485 $-1 #
vertex $-1 $490 $618 #
straight-curve $-1 -69.798272652363664 -1.0324062944437529 1.5587896063405853 0 -1 0 I I #
straight-curve $-1 -60.72401469056588 -1.0324062944437529 7.9126535568877632 0 1 0 I I #
edge $-1 $619 5.1355086811822162 $353 14.209766642979993 $487 $620 forward 7 unknown #
edge $-1 $352 -56.396002566572911 $619 -50.042138616025738 $495 $621 forward 7 unknown #
point $-1 -69.798272652363664 3.7027581921402835 1.5587896063405922 #
point $-1 -60.724014690565888 3.7027581921402835 7.9126535568877614 #
edge $-1 $622 1 $622 0 $355 $-1 forward 7 unknown #
vertex $-1 $356 $623 #
ellipse-curve $-1 -64.605540212267542 6.9985129241561665 3.7994228261316416 -0.57357644374324357 0 0.81915203911291934 0.81915203911291934 0 0.57357644374324357 1 I I #
point $-1 -64.441991632351858 6.9985129241561665 5.3092980253574185 #
edge $-1 $624 1 $624 0 $359 $-1 forward 7 unknown #
vertex $-1 $360 $625 #
ellipse-curve $-1 -64.605540212267542 11.942145022179986 3.7994228261316416 -0.57357644374324357 0 0.81915203911291934 0.81915203911291934 0 0.57357644374324357 1 I I #
point $-1 -64.441991632351858 11.942145022179986 5.3092980253574185 #
plane-surface $-1 0 0 7.9126535568877614 0 0 1 1 0 0 forward_v I I I I #
coedge $-1 $522 $521 $514 $626 forward $364 $-1 #
coedge $-1 $514 $366 $368 $518 reversed $237 $-1 #
coedge $-1 $366 $513 $512 $626 reversed $237 $-1 #
coedge $-1 $374 $369 $366 $516 forward $375 $-1 #
edge $-1 $519 42.965630726763195 $627 52.039888688560993 $515 $628 forward 7 unknown #
coedge $-1 $368 $367 $522 $629 reversed $149 $-1 #
edge $-1 $630 -139.59654530472727 $519 -128.51892170310074 $513 $631 forward 7 unknown #
vertex $-1 $370 $632 #
straight-curve $-1 60.724014690565845 -1.0324062944437529 7.9126535568877614 0 -1 0 I I #
coedge $-1 $512 $371 $374 $526 reversed $364 $-1 #
coedge $-1 $371 $512 $517 $629 forward $364 $-1 #
vertex $-1 $372 $633 #
straight-curve $-1 69.798272652363664 3.7027581921402835 97.989437180277534 0 0 1 I I #
straight-curve $-1 -44.552522087122739 3.7027581921402835 81.62807962106865 0.81915203911291934 0 -0.57357644374324357 I I #
edge $-1 $627 -7.8323833699152949 $376 3.7027581921402835 $521 $634 forward 7 unknown #
point $-1 69.798272652363664 3.7027581921402835 7.9126535568877614 #
point $-1 60.724014690565866 3.7027581921402835 7.9126535568877614 #
edge $-1 $635 1 $635 0 $379 $-1 forward 7 unknown #
vertex $-1 $380 $636 #
ellipse-curve $-1 64.605540212267542 -4.5366286378994118 3.7994228261316381 0.57357644374324357 0 0.81915203911291934 0.81915203911291934 0 -0.57357644374324357 1 I I #
point $-1 66.080295710577701 -4.5366286378994118 4.1621451378709278 #
edge $-1 $637 1 $637 0 $383 $-1 forward 7 unknown #
vertex $-1 $384 $638 #
ellipse-curve $-1 64.605540212267542 0.40700346012440747 3.7994228261316381 0.57357644374324357 0 0.81915203911291934 0.81915203911291934 0 -0.57357644374324357 1 I I #
point $-1 66.080295710577701 0.40700346012440747 4.1621451378709278 #
loop $-1 $-1 $542 $387 #
plane-surface $-1 0 0 7.9126535568877614 0 0 1 1 0 0 forward_v I I I I #
coedge $-1 $393 $544 $639 $640 reversed $388 $-1 #
coedge $-1 $390 $399 $544 $641 forward $259 $-1 #
edge $-1 $546 4.7351644865840363 $400 16.270306048639615 $390 $642 forward 7 unknown #
coedge $-1 $639 $397 $391 $543 forward $537 $-1 #
edge $-1 $548 -16.270306048639615 $545 -4.7351644865840363 $542 $643 forward 7 unknown #
coedge $-1 $539 $393 $540 $641 reversed $388 $-1 #
vertex $-1 $543 $644 #
vertex $-1 $541 $645 #
straight-curve $-1 -44.552522087122739 3.7027581921402835 81.62807962106865 0.81915203911291934 0 -0.57357644374324357 I I #
vertex $-1 $398 $646 #
straight-curve $-1 -44.552522087122739 15.237899754195862 81.62807962106865 0.81915203911291934 0 -0.57357644374324357 I I #
coedge $-1 $397 $639 $399 $552 forward $537 $-1 #
straight-curve $-1 17.758383963802672 15.237899754195862 7.9126535568877614 -1 0 0 I I #
edge $-1 $647 3.7027581921402835 $401 15.237899754195862 $399 $648 forward 7 unknown #
point $-1 69.79827265236365 15.237899754195862 1.5587896063405822 #
point $-1 69.798272652363664 15.237899754195862 7.9126535568877614 #
edge $-1 $649 1 $649 0 $403 $-1 forward 7 unknown #
vertex $-1 $404 $650 #
ellipse-curve $-1 64.605540212267542 6.9985129241561665 3.7994228261316381 0.57357644374324357 0 0.81915203911291934 0.81915203911291934 0 -0.57357644374324357 1 I I #
point $-1 66.080295710577701 6.9985129241561665 4.1621451378709278 #
edge $-1 $651 1 $651 0 $407 $-1 forward 7 unknown #
vertex $-1 $408 $652 #
ellipse-curve $-1 64.605540212267542 11.942145022179986 3.7994228261316381 0.57357644374324357 0 0.81915203911291934 0.81915203911291934 0 -0.57357644374324357 1 I I #
point $-1 66.080295710577701 11.942145022179986 4.1621451378709278 #
plane-surface $-1 69.798272652363664 0 0 -1 0 0 0 0 1 forward_v I I I I #
coedge $-1 $416 $414 $418 $568 reversed $281 $-1 #
edge $-1 $429 -7.9126535568877614 $570 7.9126535568877614 $428 $653 forward 7 unknown #
vertex $-1 $568 $654 #
straight-curve $-1 -69.798272652363664 -37.532414461282755 0 0 0 -1 I I #
edge $-1 $566 -37.532414461282755 $570 37.532414461282755 $564 $655 forward 7 unknown #
straight-curve $-1 0 -37.532414461282755 -7.9126535568877614 -1 0 0 I I #
vertex $-1 $421 $656 #
straight-curve $-1 0 37.532414461282755 -7.9126535568877614 1 0 0 I I #
point $-1 69.798272652363664 37.532414461282755 -7.9126535568877614 #
point $-1 69.798272652363664 -37.532414461282755 -7.9126535568877614 #
straight-curve $-1 -69.798272652363664 0 7.9126535568877614 0 -1 0 I I #
point $-1 -69.798272652363664 37.532414461282755 7.9126535568877614 #
point $-1 -69.798272652363664 -37.532414461282755 7.9126535568877614 #
straight-curve $-1 69.798272652363664 -37.532414461282755 0 0 0 -1 I I #
straight-curve $-1 69.798272652363664 37.532414461282755 0 0 0 -1 I I #
loop $-1 $-1 $587 $438 #
plane-surface $-1 -69.798272652363664 0 0 1 0 0 0 0 -1 forward_v I I I I #
coedge $-1 $442 $441 $593 $657 forward $185 $-1 #
edge $-1 $446 30.126898077002192 $596 37.532414461282755 $445 $658 forward 7 unknown #
coedge $-1 $590 $587 $442 $584 reversed $579 $-1 #
edge $-1 $659 -37.532414461282755 $585 -30.126898077002192 $583 $660 forward 7 unknown #
vertex $-1 $588 $661 #
straight-curve $-1 0 -30.126898077002192 -7.9126535568877614 1 0 0 I I #
coedge $-1 $583 $448 $444 $588 forward $579 $-1 #
edge $-1 $450 1.7063267784438807 $585 4.7063267784438807 $587 $662 forward 7 unknown #
point $-1 69.798272652363664 -30.126898077002192 -7.9126535568877614 #
coedge $-1 $448 $583 $452 $594 reversed $579 $-1 #
straight-curve $-1 -69.798272652363664 -16.914828134571238 -4.9126535568877614 0 1 0 I I #
point $-1 -69.798272652363664 -30.126898077002192 -4.9126535568877614 #
coedge $-1 $453 $452 $581 $657 reversed $439 $-1 #
edge $-1 $454 4.9126535568877614 $659 7.9126535568877614 $590 $663 forward 7 unknown #
point $-1 -69.798272652363664 -37.532414461282755 -4.9126535568877614 #
vertex $-1 $456 $664 #
straight-curve $-1 69.798272652363664 -37.532414461282755 0 0 0 -1 I I #
coedge $-1 $470 $469 $462 $599 forward $459 $-1 #
edge $-1 $600 50.042138616025738 $603 56.396002566572911 $598 $665 forward 7 unknown #
vertex $-1 $474 $666 #
straight-curve $-1 -74.93378133354588 3.7027581921402835 7.9126535568877614 -1 0 0 I I #
edge $-1 $603 -4.7351644865840363 $471 6.7999770754715421 $470 $667 forward 7 unknown #
vertex $-1 $602 $668 #
straight-curve $-1 -69.798272652363679 3.7027581921402835 1.5587896063405822 0.81915203911291934 0 0.57357644374324357 I I #
point $-1 -60.724014690565888 3.7027581921402835 7.9126535568877614 #
point $-1 -69.798272652363664 -7.8323833699152949 1.5587896063405922 #
straight-curve $-1 -69.798272652363664 0 7.9126535568877614 0 -1 0 I I #
vertex $-1 $477 $669 #
point $-1 -63.786388173154627 -4.5366286378994118 4.3729992698748852 #
vertex $-1 $481 $670 #
point $-1 -63.786388173154627 0.40700346012440747 4.3729992698748852 #
straight-curve $-1 -69.798272652363679 15.237899754195862 1.5587896063405822 0.81915203911291934 0 0.57357644374324357 I I #
coedge $-1 $489 $495 $491 $615 reversed $485 $-1 #
straight-curve $-1 -69.798272652363664 15.237899754195862 57.9547921729135 0 0 -1 I I #
edge $-1 $493 -15.237899754195862 $619 -3.7027581921402835 $613 $671 forward 7 unknown #
point $-1 -60.724014690565888 15.237899754195862 7.9126535568877614 #
point $-1 -69.798272652363664 15.237899754195862 7.9126535568877614 #
point $-1 -69.798272652363664 15.237899754195862 1.5587896063405922 #
vertex $-1 $500 $672 #
straight-curve $-1 -74.93378133354588 3.7027581921402835 7.9126535568877614 1 0 0 I I #
straight-curve $-1 -69.798272652363664 3.7027581921402835 57.9547921729135 0 0 1 I I #
vertex $-1 $503 $673 #
point $-1 -63.786388173154627 6.9985129241561665 4.3729992698748852 #
vertex $-1 $507 $674 #
point $-1 -63.786388173154627 11.942145022179986 4.3729992698748852 #
edge $-1 $627 90.076783623389773 $630 96.430647573936952 $512 $675 forward 7 unknown #
vertex $-1 $526 $676 #
straight-curve $-1 17.758383963802672 -7.8323833699152949 7.9126535568877614 1 0 0 I I #
edge $-1 $630 -6.7999770754715421 $523 4.7351644865840363 $522 $677 forward 7 unknown #
vertex $-1 $629 $678 #
straight-curve $-1 -44.552522087122739 -7.8323833699152949 81.62807962106865 -0.81915203911291934 0 0.57357644374324357 I I #
point $-1 60.724014690565866 -7.8323833699152949 7.9126535568877614 #
point $-1 69.79827265236365 3.7027581921402835 1.5587896063405822 #
straight-curve $-1 69.798272652363664 0 7.9126535568877614 0 1 0 I I #
vertex $-1 $529 $679 #
point $-1 65.424692251380463 -4.5366286378994118 3.2258463823883945 #
vertex $-1 $533 $680 #
point $-1 65.424692251380463 0.40700346012440747 3.2258463823883945 #
coedge $-1 $550 $542 $539 $640 forward $537 $-1 #
edge $-1 $545 42.965630726763195 $647 52.039888688560993 $639 $681 forward 7 unknown #
edge $-1 $647 90.076783623389773 $546 96.430647573936952 $540 $682 forward 7 unknown #
straight-curve $-1 69.798272652363664 -1.0324062944437529 1.5587896063405609 0 1 0 I I #
straight-curve $-1 60.724014690565845 -1.0324062944437529 7.9126535568877614 0 -1 0 I I #
point $-1 60.724014690565866 3.7027581921402835 7.9126535568877614 #
point $-1 69.79827265236365 3.7027581921402835 1.5587896063405822 #
point $-1 60.724014690565866 15.237899754195862 7.9126535568877614 #
vertex $-1 $552 $683 #
straight-curve $-1 69.798272652363664 0 7.9126535568877614 0 1 0 I I #
vertex $-1 $555 $684 #
point $-1 65.424692251380463 6.9985129241561665 3.2258463823883945 #
vertex $-1 $559 $685 #
point $-1 65.424692251380463 11.942145022179986 3.2258463823883945 #
straight-curve $-1 -69.798272652363664 37.532414461282755 0 0 0 -1 I I #
point $-1 -69.798272652363664 -37.532414461282755 -7.9126535568877614 #
straight-curve $-1 -69.798272652363664 0 -7.9126535568877614 0 1 0 I I #
point $-1 -69.798272652363664 37.532414461282755 -7.9126535568877614 #
edge $-1 $596 -69.798272652363664 $659 69.798272652363664 $593 $686 forward 7 unknown #
straight-curve $-1 69.798272652363664 0 -7.9126535568877614 0 -1 0 I I #
vertex $-1 $584 $687 #
straight-curve $-1 -69.798272652363664 0 -7.9126535568877614 0 1 0 I I #
point $-1 -69.798272652363664 -30.126898077002192 -7.9126535568877614 #
straight-curve $-1 -69.798272652363664 -30.126898077002192 -3.2063267784438807 0 0 -1 I I #
straight-curve $-1 -69.798272652363664 -37.532414461282755 0 0 0 -1 I I #
point $-1 69.798272652363664 -37.532414461282755 -7.9126535568877614 #
straight-curve $-1 -69.798272652363664 3.7027581921402835 57.9547921729135 0 0 -1 I I #
point $-1 -69.798272652363664 3.7027581921402835 7.9126535568877614 #
straight-curve $-1 -69.798272652363664 -1.0324062944437529 1.5587896063405853 0 -1 0 I I #
point $-1 -69.798272652363664 3.7027581921402835 1.5587896063405922 #
point $-1 -64.031963768524307 -4.5366286378994118 2.9802707870187226 #
point $-1 -64.031963768524307 0.40700346012440747 2.9802707870187226 #
straight-curve $-1 -69.798272652363664 0 7.9126535568877614 0 -1 0 I I #
point $-1 -69.798272652363664 3.7027581921402835 7.9126535568877614 #
point $-1 -64.031963768524307 6.9985129241561665 2.9802707870187226 #
point $-1 -64.031963768524307 11.942145022179986 2.9802707870187226 #
straight-curve $-1 69.798272652363664 -7.8323833699152949 97.989437180277534 0 0 -1 I I #
point $-1 69.798272652363664 -7.8323833699152949 7.9126535568877614 #
straight-curve $-1 69.798272652363664 -1.0324062944437529 1.5587896063405609 0 1 0 I I #
point $-1 69.79827265236365 -7.8323833699152949 1.5587896063405822 #
point $-1 64.031963768524307 -4.5366286378994118 2.9802707870187191 #
point $-1 64.031963768524307 0.40700346012440747 2.9802707870187191 #
straight-curve $-1 17.758383963802672 3.7027581921402835 7.9126535568877614 1 0 0 I I #
straight-curve $-1 69.798272652363664 3.7027581921402835 97.989437180277534 0 0 -1 I I #
point $-1 69.798272652363664 3.7027581921402835 7.9126535568877614 #
point $-1 64.031963768524307 6.9985129241561665 2.9802707870187191 #
point $-1 64.031963768524307 11.942145022179986 2.9802707870187191 #
straight-curve $-1 0 -37.532414461282755 -7.9126535568877614 -1 0 0 I I #
point $-1 -69.798272652363664 -37.532414461282755 -7.9126535568877614 #
End-of-ACIS-data 