500 0 13 0           
7 Unknown 11 ACIS 5.0 NT 24 Thu Mar 25 17:06:58 1999 
-1 9.9999999999999995e-007 1e-010 
body $-1 $13 $-1 $14 #
body $-1 $15 $-1 $16 #
body $-1 $17 $-1 $18 #
body $-1 $19 $-1 $20 #
body $-1 $21 $-1 $22 #
body $-1 $23 $-1 $24 #
body $-1 $25 $-1 $26 #
body $-1 $27 $-1 $28 #
body $-1 $29 $-1 $30 #
body $-1 $31 $-1 $32 #
body $-1 $33 $-1 $34 #
body $-1 $35 $-1 $36 #
body $-1 $37 $-1 $38 #
lump $-1 $-1 $39 $0 #
transform $-1 1 0 0 0 1 0 0 0 1 57.13309121982482 32.553325390610354 10.451994845559719 1 rotate no_reflect no_shear #
lump $-1 $-1 $40 $1 #
transform $-1 1 0 0 0 1 0 0 0 1 57.13309121982482 32.553325390610354 10.451994845559719 1 rotate no_reflect no_shear #
lump $-1 $-1 $41 $2 #
transform $-1 1 0 0 0 1 0 0 0 1 57.13309121982482 32.553325390610354 10.451994845559719 1 rotate no_reflect no_shear #
lump $-1 $-1 $42 $3 #
transform $-1 1 0 0 0 1 0 0 0 1 57.13309121982482 32.553325390610354 10.451994845559719 1 rotate no_reflect no_shear #
lump $-1 $-1 $43 $4 #
transform $-1 1 0 0 0 1 0 0 0 1 57.13309121982482 32.553325390610354 10.451994845559719 1 rotate no_reflect no_shear #
lump $-1 $-1 $44 $5 #
transform $-1 1 0 0 0 1 0 0 0 1 57.13309121982482 32.553325390610354 10.451994845559719 1 rotate no_reflect no_shear #
lump $-1 $-1 $45 $6 #
transform $-1 1 0 0 0 1 0 0 0 1 57.13309121982482 32.553325390610354 10.451994845559719 1 rotate no_reflect no_shear #
lump $-1 $-1 $46 $7 #
transform $-1 1 0 0 0 1 0 0 0 1 57.13309121982482 32.553325390610354 10.451994845559719 1 rotate no_reflect no_shear #
lump $-1 $-1 $47 $8 #
transform $-1 1 0 0 0 1 0 0 0 1 57.13309121982482 32.553325390610354 10.451994845559719 1 rotate no_reflect no_shear #
lump $-1 $-1 $48 $9 #
transform $-1 1 0 0 0 1 0 0 0 1 57.13309121982482 32.553325390610354 10.451994845559719 1 rotate no_reflect no_shear #
lump $-1 $-1 $49 $10 #
transform $-1 1 0 0 0 1 0 0 0 1 57.13309121982482 32.553325390610354 10.451994845559719 1 rotate no_reflect no_shear #
lump $-1 $-1 $50 $11 #
transform $-1 1 0 0 0 1 0 0 0 1 57.13309121982482 32.553325390610354 10.451994845559719 1 rotate no_reflect no_shear #
lump $-1 $-1 $51 $12 #
transform $-1 1 0 0 0 1 0 0 0 1 57.13309121982482 32.553325390610354 10.451994845559719 1 rotate no_reflect no_shear #
shell $-1 $-1 $-1 $52 $-1 $13 #
shell $-1 $-1 $-1 $53 $-1 $15 #
shell $-1 $-1 $-1 $54 $-1 $17 #
shell $-1 $-1 $-1 $55 $-1 $19 #
shell $-1 $-1 $-1 $56 $-1 $21 #
shell $-1 $-1 $-1 $57 $-1 $23 #
shell $-1 $-1 $-1 $58 $-1 $25 #
shell $-1 $-1 $-1 $59 $-1 $27 #
shell $-1 $-1 $-1 $60 $-1 $29 #
shell $-1 $-1 $-1 $61 $-1 $31 #
shell $-1 $-1 $-1 $62 $-1 $33 #
shell $-1 $-1 $-1 $63 $-1 $35 #
shell $-1 $-1 $-1 $64 $-1 $37 #
face $-1 $65 $66 $39 $-1 $67 forward single #
face $-1 $68 $69 $40 $-1 $70 forward single #
face $-1 $71 $72 $41 $-1 $73 reversed single #
face $-1 $74 $75 $42 $-1 $76 forward single #
face $-1 $77 $78 $43 $-1 $79 forward single #
face $-1 $80 $81 $44 $-1 $82 reversed single #
face $-1 $83 $84 $45 $-1 $85 forward single #
face $-1 $86 $87 $46 $-1 $88 forward single #
face $-1 $89 $90 $47 $-1 $91 forward single #
face $-1 $92 $93 $48 $-1 $94 reversed single #
face $-1 $95 $96 $49 $-1 $97 forward single #
face $-1 $98 $99 $50 $-1 $100 forward single #
face $-1 $101 $102 $51 $-1 $103 forward single #
face $-1 $104 $105 $39 $-1 $106 reversed single #
loop $-1 $-1 $107 $52 #
plane-surface $-1 0 0 10.451994845559719 0 0 1 1 0 0 forward_v I I I I #
face $-1 $108 $109 $40 $-1 $110 reversed single #
loop $-1 $-1 $111 $53 #
plane-surface $-1 0 -32.553325390610354 0 0 1 0 0 0 1 forward_v I I I I #
face $-1 $112 $113 $41 $-1 $114 reversed single #
loop $-1 $-1 $115 $54 #
plane-surface $-1 -142.04941437316711 -19.570165974034506 80.308601135886036 0 1 0 -0.74314483375859142 0 0.66913059716165679 forward_v I I I I #
face $-1 $116 $117 $42 $-1 $118 forward single #
loop $-1 $119 $120 $55 #
cone-surface $-1 -53.187439341217271 -16.285089723767104 6.2744880268844492 0.74314483375859142 0 -0.66913059716165679 0.66913059716165679 0 0.74314483375859142 1 I I 0 1 1 forward I I I I #
face $-1 $121 $122 $43 $-1 $123 forward single #
loop $-1 $124 $125 $56 #
cone-surface $-1 -53.187439341217271 -11.357475348366002 6.2744880268844492 0.74314483375859142 0 -0.66913059716165679 0.66913059716165679 0 0.74314483375859142 1 I I 0 1 1 forward I I I I #
face $-1 $126 $127 $44 $-1 $128 reversed single #
loop $-1 $-1 $129 $57 #
plane-surface $-1 82.412400044284084 -7.3276519075822151 161.24243694232044 0 -1 0 -0.80901700255871778 0 -0.5877852410284794 forward_v I I I I #
face $-1 $130 $131 $45 $-1 $132 forward single #
loop $-1 $133 $134 $58 #
cone-surface $-1 53.525686228914594 -12.989715408258178 5.7496932745025493 -0.80901700255871778 0 -0.5877852410284794 0.2938926205142397 0 -0.40450850127935889 1 I I 0 1 0.5 forward I I I I #
face $-1 $135 $136 $46 $-1 $137 forward single #
loop $-1 $138 $139 $59 #
cone-surface $-1 53.525686228914594 -10.866441595504693 5.7496932745025493 -0.80901700255871778 0 -0.5877852410284794 0.2938926205142397 0 -0.40450850127935889 1 I I 0 1 0.5 forward I I I I #
face $-1 $140 $141 $47 $-1 $142 forward single #
loop $-1 $143 $144 $60 #
cone-surface $-1 53.525686228914594 -8.7431677827512075 5.7496932745025493 -0.80901700255871778 0 -0.5877852410284794 0.2938926205142397 0 -0.40450850127935889 1 I I 0 1 0.5 forward I I I I #
face $-1 $145 $146 $48 $-1 $147 reversed single #
loop $-1 $-1 $148 $61 #
plane-surface $-1 82.412400044284084 27.388390700003018 161.24243694232044 0 -1 0 -0.80901700255871778 0 -0.5877852410284794 forward_v I I I I #
face $-1 $149 $150 $49 $-1 $151 forward single #
loop $-1 $152 $153 $62 #
cone-surface $-1 53.525686228914594 21.726327199327059 5.7496932745025493 -0.80901700255871778 0 -0.5877852410284794 0.2938926205142397 0 -0.40450850127935889 1 I I 0 1 0.5 forward I I I I #
face $-1 $154 $155 $50 $-1 $156 forward single #
loop $-1 $157 $158 $63 #
cone-surface $-1 53.525686228914594 23.849601012080541 5.7496932745025493 -0.80901700255871778 0 -0.5877852410284794 0.2938926205142397 0 -0.40450850127935889 1 I I 0 1 0.5 forward I I I I #
face $-1 $159 $160 $51 $-1 $161 forward single #
loop $-1 $162 $163 $64 #
cone-surface $-1 53.525686228914594 25.97287482483403 5.7496932745025493 -0.80901700255871778 0 -0.5877852410284794 0.2938926205142397 0 -0.40450850127935889 1 I I 0 1 0.5 forward I I I I #
face $-1 $164 $165 $39 $-1 $166 reversed single #
loop $-1 $-1 $167 $65 #
plane-surface $-1 0 0 -10.451994845559719 0 0 1 1 0 0 forward_v I I I I #
coedge $-1 $168 $169 $170 $171 forward $66 $-1 #
face $-1 $172 $173 $40 $-1 $174 reversed single #
loop $-1 $-1 $175 $68 #
plane-surface $-1 0 0 -10.451994845559719 0 0 1 1 0 0 forward_v I I I I #
coedge $-1 $176 $177 $178 $179 forward $69 $-1 #
face $-1 $180 $181 $41 $-1 $182 reversed single #
loop $-1 $-1 $183 $71 #
plane-surface $-1 -57.133091219824806 -13.821282536066551 3.8496022446604456 -0.74314483375859142 0 0.66913059716165679 0.66913059716165679 0 0.74314483375859142 forward_v I I I I #
coedge $-1 $184 $185 $186 $187 reversed $72 $-1 #
face $-1 $-1 $188 $42 $-1 $189 forward single #
loop $-1 $190 $191 $74 #
cone-surface $-1 -51.842625471697652 -16.285089723767104 5.063612210077979 0.74314483375859142 0 -0.66913059716165679 0.3345652985808284 0 0.37157241687929571 1 I I -0.70710678118654746 0.70710678118654746 0.5 forward I I I I #
loop $-1 $-1 $192 $55 #
coedge $-1 $120 $120 $193 $194 reversed $75 $-1 #
face $-1 $-1 $195 $43 $-1 $196 forward single #
loop $-1 $197 $198 $77 #
cone-surface $-1 -51.842625471697652 -11.357475348366002 5.063612210077979 0.74314483375859142 0 -0.66913059716165679 0.3345652985808284 0 0.37157241687929571 1 I I -0.70710678118654746 0.70710678118654746 0.5 forward I I I I #
loop $-1 $-1 $199 $56 #
coedge $-1 $125 $125 $200 $201 reversed $78 $-1 #
face $-1 $202 $203 $44 $-1 $204 reversed single #
loop $-1 $-1 $205 $80 #
plane-surface $-1 -10.030884366868861 -10.866441595504693 94.078461355626771 0.80901700255871778 0 0.5877852410284794 0.5877852410284794 0 -0.80901700255871778 forward_v I I I I #
coedge $-1 $206 $207 $208 $209 reversed $81 $-1 #
face $-1 $-1 $210 $45 $-1 $211 forward single #
loop $-1 $212 $213 $83 #
cone-surface $-1 52.918923476995559 -12.989715408258178 5.3088543437311895 -0.80901700255871778 0 -0.5877852410284794 0.14694631025711985 0 -0.20225425063967944 1 I I -0.70710678118654746 0.70710678118654746 0.25 forward I I I I #
loop $-1 $-1 $214 $58 #
coedge $-1 $134 $134 $215 $216 reversed $84 $-1 #
face $-1 $-1 $217 $46 $-1 $218 forward single #
loop $-1 $219 $220 $86 #
cone-surface $-1 52.918923476995559 -10.866441595504693 5.3088543437311895 -0.80901700255871778 0 -0.5877852410284794 0.14694631025711985 0 -0.20225425063967944 1 I I -0.70710678118654746 0.70710678118654746 0.25 forward I I I I #
loop $-1 $-1 $221 $59 #
coedge $-1 $139 $139 $222 $223 reversed $87 $-1 #
face $-1 $-1 $224 $47 $-1 $225 forward single #
loop $-1 $226 $227 $89 #
cone-surface $-1 52.918923476995559 -8.7431677827512075 5.3088543437311895 -0.80901700255871778 0 -0.5877852410284794 0.14694631025711985 0 -0.20225425063967944 1 I I -0.70710678118654746 0.70710678118654746 0.25 forward I I I I #
loop $-1 $-1 $228 $60 #
coedge $-1 $144 $144 $229 $230 reversed $90 $-1 #
face $-1 $231 $232 $48 $-1 $233 reversed single #
loop $-1 $-1 $234 $92 #
plane-surface $-1 -10.030884366868861 23.849601012080541 94.078461355626771 0.80901700255871778 0 0.5877852410284794 0.5877852410284794 0 -0.80901700255871778 forward_v I I I I #
coedge $-1 $235 $236 $237 $238 reversed $93 $-1 #
face $-1 $-1 $239 $49 $-1 $240 forward single #
loop $-1 $241 $242 $95 #
cone-surface $-1 52.918923476995559 21.726327199327059 5.3088543437311895 -0.80901700255871778 0 -0.5877852410284794 0.14694631025711985 0 -0.20225425063967944 1 I I -0.70710678118654746 0.70710678118654746 0.25 forward I I I I #
loop $-1 $-1 $243 $62 #
coedge $-1 $153 $153 $244 $245 reversed $96 $-1 #
face $-1 $-1 $246 $50 $-1 $247 forward single #
loop $-1 $248 $249 $98 #
cone-surface $-1 52.918923476995559 23.849601012080541 5.3088543437311895 -0.80901700255871778 0 -0.5877852410284794 0.14694631025711985 0 -0.20225425063967944 1 I I -0.70710678118654746 0.70710678118654746 0.25 forward I I I I #
loop $-1 $-1 $250 $63 #
coedge $-1 $158 $158 $251 $252 reversed $99 $-1 #
face $-1 $-1 $253 $51 $-1 $254 forward single #
loop $-1 $255 $256 $101 #
cone-surface $-1 52.918923476995559 25.97287482483403 5.3088543437311895 -0.80901700255871778 0 -0.5877852410284794 0.14694631025711985 0 -0.20225425063967944 1 I I -0.70710678118654746 0.70710678118654746 0.25 forward I I I I #
loop $-1 $-1 $257 $64 #
coedge $-1 $163 $163 $258 $259 reversed $102 $-1 #
face $-1 $260 $261 $39 $-1 $262 reversed single #
loop $-1 $-1 $263 $104 #
plane-surface $-1 0 -32.553325390610354 0 0 1 0 0 0 1 forward_v I I I I #
coedge $-1 $264 $265 $266 $267 forward $105 $-1 #
coedge $-1 $268 $107 $269 $270 forward $66 $-1 #
coedge $-1 $107 $268 $271 $272 forward $66 $-1 #
coedge $-1 $273 $274 $107 $171 reversed $275 $-1 #
edge $-1 $276 -32.553325390610354 $277 32.553325390610354 $170 $278 forward 7 unknown #
face $-1 $279 $280 $40 $-1 $281 reversed single #
loop $-1 $-1 $282 $108 #
plane-surface $-1 -44.093438374339286 -45.536484807186199 0 0 1 0 0 0 1 forward_v I I I I #
coedge $-1 $283 $284 $177 $285 forward $109 $-1 #
coedge $-1 $286 $111 $287 $288 reversed $69 $-1 #
coedge $-1 $111 $286 $175 $285 reversed $69 $-1 #
coedge $-1 $289 $290 $111 $179 reversed $280 $-1 #
edge $-1 $291 -10.451994845559719 $292 10.451994845559719 $178 $293 forward 7 unknown #
face $-1 $294 $295 $41 $-1 $296 reversed single #
loop $-1 $-1 $297 $112 #
plane-surface $-1 -142.04941437316711 -8.0723990980985967 80.308601135886036 0 -1 0 0.74314483375859142 0 -0.66913059716165679 forward_v I I I I #
coedge $-1 $298 $299 $300 $301 reversed $113 $-1 #
coedge $-1 $185 $115 $302 $303 reversed $72 $-1 #
coedge $-1 $115 $184 $298 $304 reversed $72 $-1 #
coedge $-1 $300 $305 $115 $187 forward $306 $-1 #
edge $-1 $307 13.891615966758735 $308 19.836436818693201 $186 $309 forward 7 unknown #
loop $-1 $-1 $193 $116 #
plane-surface $-1 -57.133091219824806 -13.821282536066551 3.8496022446604456 -0.74314483375859142 0 0.66913059716165679 0.66913059716165679 0 0.74314483375859142 forward_v I I I I #
loop $-1 $-1 $310 $74 #
coedge $-1 $191 $191 $192 $311 reversed $117 $-1 #
coedge $-1 $192 $192 $191 $311 forward $119 $-1 #
coedge $-1 $193 $193 $120 $194 forward $188 $-1 #
edge $-1 $312 0 $312 6.2831853071796004 $193 $313 forward 7 unknown #
loop $-1 $-1 $200 $121 #
plane-surface $-1 -57.133091219824806 -13.821282536066551 3.8496022446604456 -0.74314483375859142 0 0.66913059716165679 0.66913059716165679 0 0.74314483375859142 forward_v I I I I #
loop $-1 $-1 $314 $77 #
coedge $-1 $198 $198 $199 $315 reversed $122 $-1 #
coedge $-1 $199 $199 $198 $315 forward $124 $-1 #
coedge $-1 $200 $200 $125 $201 forward $195 $-1 #
edge $-1 $316 0 $316 6.2831853071796004 $200 $317 forward 7 unknown #
face $-1 $318 $319 $44 $-1 $320 forward single #
loop $-1 $-1 $321 $126 #
plane-surface $-1 82.412400044284084 -14.40523128342717 161.24243694232044 0 1 0 0.80901700255871778 0 0.5877852410284794 forward_v I I I I #
coedge $-1 $322 $323 $324 $325 reversed $127 $-1 #
coedge $-1 $207 $129 $326 $327 reversed $81 $-1 #
coedge $-1 $129 $206 $322 $328 reversed $81 $-1 #
coedge $-1 $324 $329 $129 $209 forward $319 $-1 #
edge $-1 $330 -15.926891197682778 $331 -9.5210982184210522 $208 $332 forward 7 unknown #
loop $-1 $-1 $215 $130 #
plane-surface $-1 -10.030884366868861 -10.866441595504693 94.078461355626771 0.80901700255871778 0 0.5877852410284794 0.5877852410284794 0 -0.80901700255871778 forward_v I I I I #
loop $-1 $-1 $333 $83 #
coedge $-1 $213 $213 $214 $334 reversed $131 $-1 #
coedge $-1 $214 $214 $213 $334 forward $133 $-1 #
coedge $-1 $215 $215 $134 $216 forward $210 $-1 #
edge $-1 $335 0 $335 6.2831853071796004 $215 $336 forward 7 unknown #
loop $-1 $-1 $222 $135 #
plane-surface $-1 -10.030884366868861 -10.866441595504693 94.078461355626771 0.80901700255871778 0 0.5877852410284794 0.5877852410284794 0 -0.80901700255871778 forward_v I I I I #
loop $-1 $-1 $337 $86 #
coedge $-1 $220 $220 $221 $338 reversed $136 $-1 #
coedge $-1 $221 $221 $220 $338 forward $138 $-1 #
coedge $-1 $222 $222 $139 $223 forward $217 $-1 #
edge $-1 $339 0 $339 6.2831853071796004 $222 $340 forward 7 unknown #
loop $-1 $-1 $229 $140 #
plane-surface $-1 -10.030884366868861 -10.866441595504693 94.078461355626771 0.80901700255871778 0 0.5877852410284794 0.5877852410284794 0 -0.80901700255871778 forward_v I I I I #
loop $-1 $-1 $341 $89 #
coedge $-1 $227 $227 $228 $342 reversed $141 $-1 #
coedge $-1 $228 $228 $227 $342 forward $143 $-1 #
coedge $-1 $229 $229 $144 $230 forward $224 $-1 #
edge $-1 $343 0 $343 6.2831853071796004 $229 $344 forward 7 unknown #
face $-1 $345 $346 $48 $-1 $347 reversed single #
loop $-1 $-1 $348 $145 #
plane-surface $-1 82.412400044284084 20.310811324158063 161.24243694232044 0 1 0 0.80901700255871778 0 0.5877852410284794 forward_v I I I I #
coedge $-1 $349 $350 $351 $352 reversed $146 $-1 #
coedge $-1 $236 $148 $353 $354 reversed $93 $-1 #
coedge $-1 $148 $235 $349 $355 reversed $93 $-1 #
coedge $-1 $351 $356 $148 $238 forward $357 $-1 #
edge $-1 $358 -15.926891197682778 $359 -9.5210982184210522 $237 $360 forward 7 unknown #
loop $-1 $-1 $244 $149 #
plane-surface $-1 -10.030884366868861 23.849601012080541 94.078461355626771 0.80901700255871778 0 0.5877852410284794 0.5877852410284794 0 -0.80901700255871778 forward_v I I I I #
loop $-1 $-1 $361 $95 #
coedge $-1 $242 $242 $243 $362 reversed $150 $-1 #
coedge $-1 $243 $243 $242 $362 forward $152 $-1 #
coedge $-1 $244 $244 $153 $245 forward $239 $-1 #
edge $-1 $363 0 $363 6.2831853071796004 $244 $364 forward 7 unknown #
loop $-1 $-1 $251 $154 #
plane-surface $-1 -10.030884366868861 23.849601012080541 94.078461355626771 0.80901700255871778 0 0.5877852410284794 0.5877852410284794 0 -0.80901700255871778 forward_v I I I I #
loop $-1 $-1 $365 $98 #
coedge $-1 $249 $249 $250 $366 reversed $155 $-1 #
coedge $-1 $250 $250 $249 $366 forward $157 $-1 #
coedge $-1 $251 $251 $158 $252 forward $246 $-1 #
edge $-1 $367 0 $367 6.2831853071796004 $251 $368 forward 7 unknown #
loop $-1 $-1 $258 $159 #
plane-surface $-1 -10.030884366868861 23.849601012080541 94.078461355626771 0.80901700255871778 0 0.5877852410284794 0.5877852410284794 0 -0.80901700255871778 forward_v I I I I #
loop $-1 $-1 $369 $101 #
coedge $-1 $256 $256 $257 $370 reversed $160 $-1 #
coedge $-1 $257 $257 $256 $370 forward $162 $-1 #
coedge $-1 $258 $258 $163 $259 forward $253 $-1 #
edge $-1 $371 0 $371 6.2831853071796004 $258 $372 forward 7 unknown #
face $-1 $373 $374 $39 $-1 $375 reversed single #
loop $-1 $-1 $376 $164 #
plane-surface $-1 -57.13309121982482 0 0 1 0 0 0 0 -1 forward_v I I I I #
coedge $-1 $377 $271 $378 $379 forward $165 $-1 #
coedge $-1 $380 $167 $377 $381 forward $105 $-1 #
coedge $-1 $167 $380 $382 $383 forward $105 $-1 #
coedge $-1 $274 $273 $167 $267 reversed $275 $-1 #
edge $-1 $384 -32.553325390610354 $385 32.553325390610354 $266 $386 forward 7 unknown #
coedge $-1 $169 $168 $387 $388 forward $66 $-1 #
coedge $-1 $389 $390 $168 $270 reversed $374 $-1 #
edge $-1 $277 -57.13309121982482 $391 57.13309121982482 $269 $392 forward 7 unknown #
coedge $-1 $263 $393 $169 $272 reversed $165 $-1 #
edge $-1 $394 -57.13309121982482 $276 57.13309121982482 $271 $395 forward 7 unknown #
coedge $-1 $266 $170 $393 $396 forward $275 $-1 #
coedge $-1 $170 $266 $389 $397 reversed $275 $-1 #
loop $-1 $-1 $273 $373 #
vertex $-1 $171 $398 #
vertex $-1 $171 $399 #
straight-curve $-1 57.13309121982482 0 10.451994845559719 0 1 0 I I #
face $-1 $400 $401 $40 $-1 $402 reversed single #
loop $-1 $-1 $178 $172 #
plane-surface $-1 -46.497043121790874 -39.044905098898276 0 1 0 0 0 0 -1 forward_v I I I I #
coedge $-1 $403 $404 $405 $406 forward $173 $-1 #
coedge $-1 $407 $175 $408 $409 forward $109 $-1 #
coedge $-1 $175 $407 $289 $410 forward $109 $-1 #
edge $-1 $291 -46.497043121790874 $411 -41.689833626887697 $175 $412 forward 7 unknown #
coedge $-1 $177 $176 $413 $414 forward $69 $-1 #
coedge $-1 $415 $416 $176 $288 forward $417 $-1 #
edge $-1 $418 41.689833626887697 $292 46.497043121790874 $287 $419 forward 7 unknown #
coedge $-1 $405 $178 $284 $410 reversed $280 $-1 #
coedge $-1 $178 $405 $415 $420 reversed $280 $-1 #
vertex $-1 $285 $421 #
vertex $-1 $420 $422 #
straight-curve $-1 -46.497043121790874 -32.553325390610354 0 0 0 1 I I #
face $-1 $-1 $306 $41 $-1 $423 forward single #
loop $-1 $-1 $424 $180 #
plane-surface $-1 -57.13309121982482 0 0 1 0 0 0 0 -1 forward_v I I I I #
coedge $-1 $425 $426 $427 $428 reversed $181 $-1 #
coedge $-1 $429 $183 $185 $304 forward $113 $-1 #
coedge $-1 $183 $429 $425 $430 forward $113 $-1 #
coedge $-1 $427 $186 $183 $301 forward $306 $-1 #
edge $-1 $308 -12.65952470600123 $431 -1.1617578300653211 $300 $432 forward 7 unknown #
coedge $-1 $433 $434 $184 $303 forward $295 $-1 #
edge $-1 $435 -36.304698323282587 $307 -29.702305722383301 $302 $436 forward 7 unknown #
edge $-1 $308 -8.8843954784782113 $435 2.1389731374768986e-014 $185 $437 forward 7 unknown #
coedge $-1 $186 $427 $433 $438 forward $306 $-1 #
loop $-1 $-1 $427 $294 #
vertex $-1 $303 $439 #
vertex $-1 $187 $440 #
straight-curve $-1 -71.024707186583555 -19.570165974034506 10.451994845559717 1 0 0 I I #
coedge $-1 $310 $310 $-1 $441 reversed $190 $-1 #
edge $-1 $442 0 $442 6.2831853071796004 $191 $443 forward 7 unknown #
vertex $-1 $194 $444 #
ellipse-curve $-1 -54.16068079385758 -16.285089723767104 7.1507985451100788 -0.74314483375859142 0 0.66913059716165679 0.66913059716165679 0 0.74314483375859142 1 I I #
coedge $-1 $314 $314 $-1 $445 reversed $197 $-1 #
edge $-1 $446 0 $446 6.2831853071796004 $198 $447 forward 7 unknown #
vertex $-1 $201 $448 #
ellipse-curve $-1 -54.16068079385758 -11.357475348366002 7.1507985451100788 -0.74314483375859142 0 0.66913059716165679 0.66913059716165679 0 0.74314483375859142 1 I I #
face $-1 $-1 $449 $44 $-1 $450 reversed single #
loop $-1 $-1 $208 $202 #
plane-surface $-1 0 0 10.451994845559719 0 0 1 1 0 0 forward_v I I I I #
coedge $-1 $451 $452 $453 $454 reversed $203 $-1 #
coedge $-1 $455 $205 $207 $328 forward $127 $-1 #
coedge $-1 $205 $455 $451 $456 forward $127 $-1 #
coedge $-1 $453 $208 $205 $325 forward $319 $-1 #
edge $-1 $331 1.8944311098298687 $457 8.972010485674824 $324 $458 forward 7 unknown #
coedge $-1 $459 $460 $206 $327 forward $449 $-1 #
edge $-1 $461 -78.986041526686421 $330 -70.169223625600495 $326 $462 forward 7 unknown #
edge $-1 $331 103.36799627891318 $461 114.26618243964967 $207 $463 forward 7 unknown #
coedge $-1 $208 $453 $459 $464 forward $319 $-1 #
vertex $-1 $209 $465 #
vertex $-1 $209 $466 #
straight-curve $-1 41.206200022142042 -7.3276519075822151 10.451994845559724 -1 0 0 I I #
coedge $-1 $333 $333 $-1 $467 reversed $212 $-1 #
edge $-1 $468 0 $468 6.2831853071796004 $213 $469 forward 7 unknown #
vertex $-1 $216 $470 #
ellipse-curve $-1 53.930194730193939 -12.989715408258178 6.0435858950167809 0.80901700255871778 0 0.5877852410284794 0.2938926205142397 0 -0.40450850127935889 1 I I #
coedge $-1 $337 $337 $-1 $471 reversed $219 $-1 #
edge $-1 $472 0 $472 6.2831853071796004 $220 $473 forward 7 unknown #
vertex $-1 $223 $474 #
ellipse-curve $-1 53.930194730193939 -10.866441595504693 6.0435858950167809 0.80901700255871778 0 0.5877852410284794 0.2938926205142397 0 -0.40450850127935889 1 I I #
coedge $-1 $341 $341 $-1 $475 reversed $226 $-1 #
edge $-1 $476 0 $476 6.2831853071796004 $227 $477 forward 7 unknown #
vertex $-1 $230 $478 #
ellipse-curve $-1 53.930194730193939 -8.7431677827512075 6.0435858950167809 0.80901700255871778 0 0.5877852410284794 0.2938926205142397 0 -0.40450850127935889 1 I I #
face $-1 $-1 $357 $48 $-1 $479 forward single #
loop $-1 $-1 $480 $231 #
plane-surface $-1 57.13309121982482 0 0 -1 0 0 0 0 1 forward_v I I I I #
coedge $-1 $481 $482 $483 $484 reversed $232 $-1 #
coedge $-1 $485 $234 $236 $355 forward $146 $-1 #
coedge $-1 $234 $485 $481 $486 forward $146 $-1 #
coedge $-1 $483 $237 $234 $352 forward $357 $-1 #
edge $-1 $359 -15.463590193962748 $487 -8.3860108181177928 $351 $488 forward 7 unknown #
coedge $-1 $489 $490 $235 $354 forward $346 $-1 #
edge $-1 $491 -78.986041526686421 $358 -70.169223625600495 $353 $492 forward 7 unknown #
edge $-1 $359 103.36799627891318 $491 114.26618243964967 $236 $493 forward 7 unknown #
coedge $-1 $237 $483 $489 $494 forward $357 $-1 #
loop $-1 $-1 $483 $345 #
vertex $-1 $354 $495 #
vertex $-1 $238 $496 #
straight-curve $-1 41.206200022142042 27.388390700003018 10.451994845559724 -1 0 0 I I #
coedge $-1 $361 $361 $-1 $497 reversed $241 $-1 #
edge $-1 $498 0 $498 6.2831853071796004 $242 $499 forward 7 unknown #
vertex $-1 $245 $500 #
ellipse-curve $-1 53.930194730193939 21.726327199327059 6.0435858950167809 0.80901700255871778 0 0.5877852410284794 0.2938926205142397 0 -0.40450850127935889 1 I I #
coedge $-1 $365 $365 $-1 $501 reversed $248 $-1 #
edge $-1 $502 0 $502 6.2831853071796004 $249 $503 forward 7 unknown #
vertex $-1 $252 $504 #
ellipse-curve $-1 53.930194730193939 23.849601012080541 6.0435858950167809 0.80901700255871778 0 0.5877852410284794 0.2938926205142397 0 -0.40450850127935889 1 I I #
coedge $-1 $369 $369 $-1 $505 reversed $255 $-1 #
edge $-1 $506 0 $506 6.2831853071796004 $256 $507 forward 7 unknown #
vertex $-1 $259 $508 #
ellipse-curve $-1 53.930194730193939 25.97287482483403 6.0435858950167809 0.80901700255871778 0 0.5877852410284794 0.2938926205142397 0 -0.40450850127935889 1 I I #
face $-1 $-1 $275 $39 $-1 $509 reversed single #
loop $-1 $-1 $389 $260 #
plane-surface $-1 0 32.553325390610354 0 0 -1 0 0 0 -1 forward_v I I I I #
coedge $-1 $510 $387 $390 $511 forward $261 $-1 #
coedge $-1 $393 $263 $264 $381 reversed $165 $-1 #
coedge $-1 $387 $510 $263 $379 reversed $261 $-1 #
edge $-1 $394 -10.451994845559719 $512 10.451994845559719 $378 $513 forward 7 unknown #
coedge $-1 $265 $264 $510 $514 forward $105 $-1 #
edge $-1 $385 -57.13309121982482 $512 57.13309121982482 $377 $515 forward 7 unknown #
coedge $-1 $390 $389 $265 $383 reversed $374 $-1 #
edge $-1 $516 -57.13309121982482 $384 57.13309121982482 $382 $517 forward 7 unknown #
vertex $-1 $267 $518 #
vertex $-1 $396 $519 #
straight-curve $-1 57.13309121982482 0 -10.451994845559719 0 -1 0 I I #
coedge $-1 $376 $378 $268 $388 reversed $261 $-1 #
edge $-1 $391 -32.553325390610354 $394 32.553325390610354 $387 $520 forward 7 unknown #
coedge $-1 $382 $269 $274 $397 forward $374 $-1 #
coedge $-1 $269 $382 $376 $511 reversed $374 $-1 #
vertex $-1 $270 $521 #
straight-curve $-1 0 32.553325390610354 10.451994845559719 -1 0 0 I I #
coedge $-1 $271 $377 $273 $396 reversed $165 $-1 #
vertex $-1 $388 $522 #
straight-curve $-1 0 -32.553325390610354 10.451994845559719 1 0 0 I I #
edge $-1 $276 -10.451994845559719 $385 10.451994845559719 $273 $523 forward 7 unknown #
edge $-1 $277 -10.451994845559719 $384 10.451994845559719 $274 $524 forward 7 unknown #
point $-1 57.13309121982482 -32.553325390610354 10.451994845559719 #
point $-1 57.13309121982482 32.553325390610354 10.451994845559719 #
face $-1 $-1 $417 $40 $-1 $525 forward single #
loop $-1 $-1 $526 $279 #
plane-surface $-1 -41.689833626887697 -39.044905098898276 0 -1 0 0 0 0 1 forward_v I I I I #
coedge $-1 $527 $282 $407 $528 reversed $173 $-1 #
coedge $-1 $282 $527 $529 $530 reversed $173 $-1 #
coedge $-1 $290 $289 $282 $406 reversed $280 $-1 #
edge $-1 $531 -10.451994845559719 $532 10.451994845559719 $405 $533 forward 7 unknown #
coedge $-1 $284 $283 $403 $528 forward $109 $-1 #
coedge $-1 $413 $526 $283 $409 reversed $401 $-1 #
edge $-1 $411 -6.4915797082879223 $534 6.4915797082879223 $408 $535 forward 7 unknown #
edge $-1 $532 -6.4915797082879223 $291 6.4915797082879223 $289 $536 forward 7 unknown #
vertex $-1 $409 $537 #
straight-curve $-1 0 -32.553325390610354 -10.451994845559719 1 0 0 I I #
coedge $-1 $538 $408 $286 $414 reversed $401 $-1 #
edge $-1 $418 -10.451994845559719 $411 10.451994845559719 $413 $539 forward 7 unknown #
coedge $-1 $529 $287 $290 $420 forward $417 $-1 #
coedge $-1 $287 $529 $538 $540 forward $417 $-1 #
loop $-1 $-1 $287 $400 #
vertex $-1 $288 $541 #
straight-curve $-1 0 -32.553325390610354 10.451994845559719 -1 0 0 I I #
edge $-1 $292 -6.4915797082879223 $531 6.4915797082879223 $290 $542 forward 7 unknown #
point $-1 -46.497043121790874 -32.553325390610354 -10.451994845559719 #
point $-1 -46.497043121790874 -32.553325390610354 10.451994845559719 #
plane-surface $-1 0 0 10.451994845559719 0 0 1 1 0 0 forward_v I I I I #
coedge $-1 $434 $433 $426 $543 forward $295 $-1 #
coedge $-1 $426 $297 $299 $430 reversed $181 $-1 #
coedge $-1 $297 $425 $424 $543 reversed $181 $-1 #
coedge $-1 $305 $300 $297 $428 forward $306 $-1 #
edge $-1 $431 -19.836436818693201 $544 -13.891615966758735 $427 $545 forward 7 unknown #
coedge $-1 $299 $298 $434 $546 reversed $113 $-1 #
edge $-1 $547 -2.1389731374768986e-014 $431 8.8843954784782113 $425 $548 forward 7 unknown #
vertex $-1 $301 $549 #
straight-curve $-1 -51.188270367890354 -6.9106412680332756 10.451994845559719 0 1 0 I I #
coedge $-1 $424 $302 $305 $438 reversed $295 $-1 #
coedge $-1 $302 $424 $429 $546 forward $295 $-1 #
vertex $-1 $303 $550 #
straight-curve $-1 -57.13309121982482 -19.570165974034506 40.154300567943018 0 0 1 I I #
straight-curve $-1 -57.133091219824806 -19.570165974034506 3.8496022446604456 -0.66913059716165679 0 -0.74314483375859142 I I #
edge $-1 $544 8.0723990980985967 $307 19.570165974034506 $433 $551 forward 7 unknown #
point $-1 -57.13309121982482 -19.570165974034506 10.451994845559719 #
point $-1 -51.188270367890354 -19.570165974034506 10.451994845559717 #
edge $-1 $552 1 $552 0 $310 $-1 forward 7 unknown #
vertex $-1 $311 $553 #
ellipse-curve $-1 -52.214197888576948 -16.285089723767104 5.3981775086588071 -0.74314483375859142 0 0.66913059716165679 0.66913059716165679 0 0.74314483375859142 1 I I #
point $-1 -53.49155019669594 -16.285089723767104 7.8939433788686824 #
edge $-1 $554 1 $554 0 $314 $-1 forward 7 unknown #
vertex $-1 $315 $555 #
ellipse-curve $-1 -52.214197888576948 -11.357475348366002 5.3981775086588071 -0.74314483375859142 0 0.66913059716165679 0.66913059716165679 0 0.74314483375859142 1 I I #
point $-1 -53.49155019669594 -11.357475348366002 7.8939433788686824 #
loop $-1 $-1 $326 $318 #
plane-surface $-1 57.13309121982482 0 0 -1 0 0 0 0 1 forward_v I I I I #
coedge $-1 $452 $321 $323 $456 reversed $203 $-1 #
coedge $-1 $321 $451 $556 $557 reversed $203 $-1 #
coedge $-1 $329 $324 $321 $454 forward $319 $-1 #
edge $-1 $457 9.5210982184210522 $558 15.926891197682778 $453 $559 forward 7 unknown #
coedge $-1 $323 $322 $460 $560 reversed $127 $-1 #
edge $-1 $561 -114.26618243964967 $457 -103.36799627891318 $451 $562 forward 7 unknown #
vertex $-1 $325 $563 #
straight-curve $-1 50.727298240563094 -5.4332207977523463 10.451994845559717 0 -1 0 I I #
coedge $-1 $556 $326 $329 $464 reversed $449 $-1 #
coedge $-1 $326 $556 $455 $560 forward $449 $-1 #
vertex $-1 $327 $564 #
straight-curve $-1 57.13309121982482 -7.3276519075822151 80.621218471160219 0 0 1 I I #
straight-curve $-1 -10.030884366868861 -7.3276519075822151 94.078461355626771 0.5877852410284794 0 -0.80901700255871778 I I #
edge $-1 $558 -14.40523128342717 $330 -7.3276519075822151 $459 $565 forward 7 unknown #
point $-1 57.13309121982482 -7.3276519075822151 10.451994845559719 #
point $-1 50.727298240563094 -7.3276519075822151 10.451994845559724 #
edge $-1 $566 1 $566 0 $333 $-1 forward 7 unknown #
vertex $-1 $334 $567 #
ellipse-curve $-1 53.121177727635235 -12.989715408258178 5.4558006539883097 0.80901700255871778 0 0.5877852410284794 0.2938926205142397 0 -0.40450850127935889 1 I I #
point $-1 54.224087350708196 -12.989715408258178 5.6390773937374297 #
edge $-1 $568 1 $568 0 $337 $-1 forward 7 unknown #
vertex $-1 $338 $569 #
ellipse-curve $-1 53.121177727635235 -10.866441595504693 5.4558006539883097 0.80901700255871778 0 0.5877852410284794 0.2938926205142397 0 -0.40450850127935889 1 I I #
point $-1 54.224087350708196 -10.866441595504693 5.6390773937374297 #
edge $-1 $570 1 $570 0 $341 $-1 forward 7 unknown #
vertex $-1 $342 $571 #
ellipse-curve $-1 53.121177727635235 -8.7431677827512075 5.4558006539883097 0.80901700255871778 0 0.5877852410284794 0.2938926205142397 0 -0.40450850127935889 1 I I #
point $-1 54.224087350708196 -8.7431677827512075 5.6390773937374297 #
plane-surface $-1 0 0 10.451994845559719 0 0 1 1 0 0 forward_v I I I I #
coedge $-1 $490 $489 $482 $572 forward $346 $-1 #
coedge $-1 $482 $348 $350 $486 reversed $232 $-1 #
coedge $-1 $348 $481 $480 $572 reversed $232 $-1 #
coedge $-1 $356 $351 $348 $484 forward $357 $-1 #
edge $-1 $487 9.5210982184210522 $573 15.926891197682778 $483 $574 forward 7 unknown #
coedge $-1 $350 $349 $490 $575 reversed $146 $-1 #
edge $-1 $576 -114.26618243964967 $487 -103.36799627891318 $481 $577 forward 7 unknown #
vertex $-1 $352 $578 #
straight-curve $-1 50.727298240563094 11.92480050604027 10.451994845559717 0 -1 0 I I #
coedge $-1 $480 $353 $356 $494 reversed $346 $-1 #
coedge $-1 $353 $480 $485 $575 forward $346 $-1 #
vertex $-1 $354 $579 #
straight-curve $-1 57.13309121982482 27.388390700003018 80.621218471160219 0 0 1 I I #
straight-curve $-1 -10.030884366868861 27.388390700003018 94.078461355626771 0.5877852410284794 0 -0.80901700255871778 I I #
edge $-1 $573 20.310811324158063 $358 27.388390700003018 $489 $580 forward 7 unknown #
point $-1 57.13309121982482 27.388390700003018 10.451994845559719 #
point $-1 50.727298240563094 27.388390700003018 10.451994845559724 #
edge $-1 $581 1 $581 0 $361 $-1 forward 7 unknown #
vertex $-1 $362 $582 #
ellipse-curve $-1 53.121177727635235 21.726327199327059 5.4558006539883097 0.80901700255871778 0 0.5877852410284794 0.2938926205142397 0 -0.40450850127935889 1 I I #
point $-1 54.224087350708196 21.726327199327059 5.6390773937374297 #
edge $-1 $583 1 $583 0 $365 $-1 forward 7 unknown #
vertex $-1 $366 $584 #
ellipse-curve $-1 53.121177727635235 23.849601012080541 5.4558006539883097 0.80901700255871778 0 0.5877852410284794 0.2938926205142397 0 -0.40450850127935889 1 I I #
point $-1 54.224087350708196 23.849601012080541 5.6390773937374297 #
edge $-1 $585 1 $585 0 $369 $-1 forward 7 unknown #
vertex $-1 $370 $586 #
ellipse-curve $-1 53.121177727635235 25.97287482483403 5.4558006539883097 0.80901700255871778 0 0.5877852410284794 0.2938926205142397 0 -0.40450850127935889 1 I I #
point $-1 54.224087350708196 25.97287482483403 5.6390773937374297 #
plane-surface $-1 57.13309121982482 0 0 -1 0 0 0 0 1 forward_v I I I I #
coedge $-1 $378 $376 $380 $514 reversed $261 $-1 #
edge $-1 $391 -10.451994845559719 $516 10.451994845559719 $390 $587 forward 7 unknown #
vertex $-1 $514 $588 #
straight-curve $-1 -57.13309121982482 -32.553325390610354 0 0 0 -1 I I #
edge $-1 $512 -32.553325390610354 $516 32.553325390610354 $510 $589 forward 7 unknown #
straight-curve $-1 0 -32.553325390610354 -10.451994845559719 -1 0 0 I I #
vertex $-1 $383 $590 #
straight-curve $-1 0 32.553325390610354 -10.451994845559719 1 0 0 I I #
point $-1 57.13309121982482 32.553325390610354 -10.451994845559719 #
point $-1 57.13309121982482 -32.553325390610354 -10.451994845559719 #
straight-curve $-1 -57.13309121982482 0 10.451994845559719 0 -1 0 I I #
point $-1 -57.13309121982482 32.553325390610354 10.451994845559719 #
point $-1 -57.13309121982482 -32.553325390610354 10.451994845559719 #
straight-curve $-1 57.13309121982482 -32.553325390610354 0 0 0 -1 I I #
straight-curve $-1 57.13309121982482 32.553325390610354 0 0 0 -1 I I #
plane-surface $-1 0 0 10.451994845559719 0 0 1 1 0 0 forward_v I I I I #
coedge $-1 $408 $538 $527 $591 forward $401 $-1 #
coedge $-1 $404 $403 $526 $591 reversed $173 $-1 #
edge $-1 $534 -2.4036047474515883 $532 2.4036047474515883 $403 $592 forward 7 unknown #
coedge $-1 $416 $415 $404 $530 forward $417 $-1 #
edge $-1 $531 -2.4036047474515883 $593 2.4036047474515883 $404 $594 forward 7 unknown #
vertex $-1 $420 $595 #
vertex $-1 $410 $596 #
straight-curve $-1 -46.497043121790874 -45.536484807186199 0 0 0 -1 I I #
vertex $-1 $591 $597 #
straight-curve $-1 -41.689833626887697 -39.044905098898276 -10.451994845559719 0 -1 0 I I #
straight-curve $-1 -46.497043121790874 -39.044905098898276 -10.451994845559719 0 1 0 I I #
point $-1 -41.689833626887697 -32.553325390610354 -10.451994845559719 #
coedge $-1 $526 $413 $416 $540 reversed $401 $-1 #
straight-curve $-1 -41.689833626887697 -32.553325390610354 0 0 0 -1 I I #
edge $-1 $593 -6.4915797082879223 $418 6.4915797082879223 $538 $598 forward 7 unknown #
point $-1 -41.689833626887697 -32.553325390610354 10.451994845559719 #
straight-curve $-1 -46.497043121790874 -39.044905098898276 10.451994845559719 0 -1 0 I I #
edge $-1 $544 29.702305722383301 $547 36.304698323282587 $424 $599 forward 7 unknown #
vertex $-1 $438 $600 #
straight-curve $-1 -71.024707186583555 -8.0723990980985967 10.451994845559717 -1 0 0 I I #
edge $-1 $547 1.1617578300653211 $435 12.65952470600123 $434 $601 forward 7 unknown #
vertex $-1 $546 $602 #
straight-curve $-1 -57.133091219824806 -8.0723990980985967 3.8496022446604456 0.66913059716165679 0 0.74314483375859142 I I #
point $-1 -51.188270367890354 -8.0723990980985967 10.451994845559717 #
point $-1 -57.13309121982482 -19.570165974034506 3.8496022446604297 #
straight-curve $-1 -57.13309121982482 0 10.451994845559719 0 -1 0 I I #
vertex $-1 $441 $603 #
point $-1 -51.545067291415293 -16.285089723767104 6.141322342417399 #
vertex $-1 $445 $604 #
point $-1 -51.545067291415293 -11.357475348366002 6.141322342417399 #
coedge $-1 $460 $459 $452 $557 forward $449 $-1 #
edge $-1 $558 70.169223625600495 $561 78.986041526686421 $556 $605 forward 7 unknown #
vertex $-1 $464 $606 #
straight-curve $-1 41.206200022142042 -14.40523128342717 10.451994845559724 1 0 0 I I #
edge $-1 $561 -8.972010485674824 $461 -1.8944311098298687 $460 $607 forward 7 unknown #
vertex $-1 $560 $608 #
straight-curve $-1 -10.030884366868861 -14.40523128342717 94.078461355626771 -0.5877852410284794 0 0.80901700255871778 I I #
point $-1 50.727298240563094 -14.40523128342717 10.451994845559724 #
point $-1 57.13309121982482 -7.3276519075822151 1.6351769444737982 #
straight-curve $-1 57.13309121982482 0 10.451994845559719 0 1 0 I I #
vertex $-1 $467 $609 #
point $-1 53.415070348149477 -12.989715408258178 5.0512921527089505 #
vertex $-1 $471 $610 #
point $-1 53.415070348149477 -10.866441595504693 5.0512921527089505 #
vertex $-1 $475 $611 #
point $-1 53.415070348149477 -8.7431677827512075 5.0512921527089505 #
edge $-1 $573 70.169223625600495 $576 78.986041526686421 $480 $612 forward 7 unknown #
vertex $-1 $494 $613 #
straight-curve $-1 41.206200022142042 20.310811324158063 10.451994845559724 1 0 0 I I #
edge $-1 $576 8.3860108181177928 $491 15.463590193962748 $490 $614 forward 7 unknown #
vertex $-1 $575 $615 #
straight-curve $-1 -10.030884366868861 20.310811324158063 94.078461355626771 -0.5877852410284794 0 0.80901700255871778 I I #
point $-1 50.727298240563094 20.310811324158063 10.451994845559724 #
point $-1 57.13309121982482 27.388390700003018 1.6351769444737982 #
straight-curve $-1 57.13309121982482 0 10.451994845559719 0 1 0 I I #
vertex $-1 $497 $616 #
point $-1 53.415070348149477 21.726327199327059 5.0512921527089505 #
vertex $-1 $501 $617 #
point $-1 53.415070348149477 23.849601012080541 5.0512921527089505 #
vertex $-1 $505 $618 #
point $-1 53.415070348149477 25.97287482483403 5.0512921527089505 #
straight-curve $-1 -57.13309121982482 32.553325390610354 0 0 0 -1 I I #
point $-1 -57.13309121982482 -32.553325390610354 -10.451994845559719 #
straight-curve $-1 -57.13309121982482 0 -10.451994845559719 0 1 0 I I #
point $-1 -57.13309121982482 32.553325390610354 -10.451994845559719 #
edge $-1 $593 -10.451994845559719 $534 10.451994845559719 $526 $619 forward 7 unknown #
straight-curve $-1 -44.093438374339286 -45.536484807186199 -10.451994845559719 -1 0 0 I I #
vertex $-1 $540 $620 #
straight-curve $-1 -44.093438374339286 -45.536484807186199 10.451994845559719 1 0 0 I I #
point $-1 -46.497043121790874 -45.536484807186199 10.451994845559719 #
point $-1 -46.497043121790874 -45.536484807186199 -10.451994845559719 #
point $-1 -41.689833626887697 -45.536484807186199 -10.451994845559719 #
straight-curve $-1 -41.689833626887697 -39.044905098898276 10.451994845559719 0 1 0 I I #
straight-curve $-1 -57.13309121982482 -8.0723990980985967 40.154300567943018 0 0 -1 I I #
point $-1 -57.13309121982482 -8.0723990980985967 10.451994845559719 #
straight-curve $-1 -57.13309121982482 -6.9106412680332756 3.8496022446604323 0 -1 0 I I #
point $-1 -57.13309121982482 -8.0723990980985967 3.8496022446604297 #
point $-1 -51.471053054818356 -16.285089723767104 4.729046911497151 #
point $-1 -51.471053054818356 -11.357475348366002 4.729046911497151 #
straight-curve $-1 57.13309121982482 -14.40523128342717 80.621218471160219 0 0 -1 I I #
point $-1 57.13309121982482 -14.40523128342717 10.451994845559719 #
straight-curve $-1 57.13309121982482 -5.4332207977523463 1.6351769444738053 0 1 0 I I #
point $-1 57.13309121982482 -14.40523128342717 1.6351769444737982 #
point $-1 52.716669226355883 -12.989715408258178 5.1619080334740692 #
point $-1 52.716669226355883 -10.866441595504693 5.1619080334740692 #
point $-1 52.716669226355883 -8.7431677827512075 5.1619080334740692 #
straight-curve $-1 57.13309121982482 20.310811324158063 80.621218471160219 0 0 -1 I I #
point $-1 57.13309121982482 20.310811324158063 10.451994845559719 #
straight-curve $-1 57.13309121982482 11.92480050604027 1.6351769444738053 0 1 0 I I #
point $-1 57.13309121982482 20.310811324158063 1.6351769444737982 #
point $-1 52.716669226355883 21.726327199327059 5.1619080334740692 #
point $-1 52.716669226355883 23.849601012080541 5.1619080334740692 #
point $-1 52.716669226355883 25.97287482483403 5.1619080334740692 #
straight-curve $-1 -41.689833626887697 -45.536484807186199 0 0 0 -1 I I #
point $-1 -41.689833626887697 -45.536484807186199 10.451994845559719 #
End-of-ACIS-data 