500 0 10 0           
7 Unknown 11 ACIS 5.0 NT 24 Fri Mar 26 01:42:58 1999 
-1 9.9999999999999995e-007 1e-010 
body $-1 $10 $-1 $11 #
body $-1 $12 $-1 $13 #
body $-1 $14 $-1 $15 #
body $-1 $16 $-1 $17 #
body $-1 $18 $-1 $19 #
body $-1 $20 $-1 $21 #
body $-1 $22 $-1 $23 #
body $-1 $24 $-1 $25 #
body $-1 $26 $-1 $27 #
body $-1 $28 $-1 $29 #
lump $-1 $-1 $30 $0 #
transform $-1 1 0 0 0 1 0 0 0 1 52.390514847254863 29.914892841598366 14.363658576194075 1 rotate no_reflect no_shear #
lump $-1 $-1 $31 $1 #
transform $-1 1 0 0 0 1 0 0 0 1 52.390514847254863 29.914892841598366 14.363658576194075 1 rotate no_reflect no_shear #
lump $-1 $-1 $32 $2 #
transform $-1 1 0 0 0 1 0 0 0 1 52.390514847254863 29.914892841598366 14.363658576194075 1 rotate no_reflect no_shear #
lump $-1 $-1 $33 $3 #
transform $-1 1 0 0 0 1 0 0 0 1 52.390514847254863 29.914892841598366 14.363658576194075 1 rotate no_reflect no_shear #
lump $-1 $-1 $34 $4 #
transform $-1 1 0 0 0 1 0 0 0 1 52.390514847254863 29.914892841598366 14.363658576194075 1 rotate no_reflect no_shear #
lump $-1 $-1 $35 $5 #
transform $-1 1 0 0 0 1 0 0 0 1 52.390514847254863 29.914892841598366 14.363658576194075 1 rotate no_reflect no_shear #
lump $-1 $-1 $36 $6 #
transform $-1 1 0 0 0 1 0 0 0 1 52.390514847254863 29.914892841598366 14.363658576194075 1 rotate no_reflect no_shear #
lump $-1 $-1 $37 $7 #
transform $-1 1 0 0 0 1 0 0 0 1 52.390514847254863 29.914892841598366 14.363658576194075 1 rotate no_reflect no_shear #
lump $-1 $-1 $38 $8 #
transform $-1 1 0 0 0 1 0 0 0 1 52.390514847254863 29.914892841598366 14.363658576194075 1 rotate no_reflect no_shear #
lump $-1 $-1 $39 $9 #
transform $-1 1 0 0 0 1 0 0 0 1 52.390514847254863 29.914892841598366 14.363658576194075 1 rotate no_reflect no_shear #
shell $-1 $-1 $-1 $40 $-1 $10 #
shell $-1 $-1 $-1 $41 $-1 $12 #
shell $-1 $-1 $-1 $42 $-1 $14 #
shell $-1 $-1 $-1 $43 $-1 $16 #
shell $-1 $-1 $-1 $44 $-1 $18 #
shell $-1 $-1 $-1 $45 $-1 $20 #
shell $-1 $-1 $-1 $46 $-1 $22 #
shell $-1 $-1 $-1 $47 $-1 $24 #
shell $-1 $-1 $-1 $48 $-1 $26 #
shell $-1 $-1 $-1 $49 $-1 $28 #
face $-1 $50 $51 $30 $-1 $52 forward single #
face $-1 $53 $54 $31 $-1 $55 forward single #
face $-1 $56 $57 $32 $-1 $58 forward single #
face $-1 $59 $60 $33 $-1 $61 reversed single #
face $-1 $62 $63 $34 $-1 $64 forward single #
face $-1 $65 $66 $35 $-1 $67 forward single #
face $-1 $68 $69 $36 $-1 $70 reversed single #
face $-1 $71 $72 $37 $-1 $73 forward single #
face $-1 $74 $75 $38 $-1 $76 reversed single #
face $-1 $77 $78 $39 $-1 $79 forward single #
face $-1 $80 $81 $30 $-1 $82 reversed single #
loop $-1 $-1 $83 $40 #
plane-surface $-1 0 0 14.363658576194075 0 0 1 1 0 0 forward_v I I I I #
face $-1 $84 $85 $31 $-1 $86 reversed single #
loop $-1 $-1 $87 $41 #
plane-surface $-1 -52.390514847254863 0 0 1 0 0 0 0 -1 forward_v I I I I #
face $-1 $88 $89 $32 $-1 $90 reversed single #
loop $-1 $-1 $91 $42 #
plane-surface $-1 47.567618506820807 0 -8.6878354353713316 0 0 1 1 0 0 forward_v I I I I #
face $-1 $92 $93 $33 $-1 $94 reversed single #
loop $-1 $-1 $95 $43 #
plane-surface $-1 42.744722166386765 -116.78230419535825 64.212732114303094 -1 0 0 0 -0.82903758062907751 0.55919289150049634 forward_v I I I I #
face $-1 $96 $97 $34 $-1 $98 forward single #
loop $-1 $99 $100 $44 #
cone-surface $-1 28.462261693352829 -23.812516048587391 7.8647188299223689 0 0.82903758062907751 -0.55919289150049634 2.5 0 0 1 I I 0 1 2.5 forward I I I I #
face $-1 $101 $102 $35 $-1 $103 forward single #
loop $-1 $104 $105 $45 #
cone-surface $-1 37.031737977173194 -23.812516048587391 7.8647188299223689 0 0.82903758062907751 -0.55919289150049634 2.5 0 0 1 I I 0 1 2.5 forward I I I I #
face $-1 $106 $107 $36 $-1 $108 reversed single #
loop $-1 $-1 $109 $46 #
plane-surface $-1 -21.656798487986421 32.59697773107596 128.86534204936902 1 0 0 0 -0.51503808176128008 -0.85716729658548041 forward_v I I I I #
face $-1 $110 $111 $37 $-1 $112 forward single #
loop $-1 $113 $114 $47 #
cone-surface $-1 -12.943728134097356 23.194684183862147 8.6019293472073564 0 -0.51503808176128008 -0.85716729658548041 2.5 0 0 1 I I 0 1 2.5 forward I I I I #
face $-1 $115 $116 $38 $-1 $117 reversed single #
loop $-1 $-1 $118 $48 #
plane-surface $-1 17.132541115818221 32.59697773107596 128.86534204936902 1 0 0 0 -0.51503808176128008 -0.85716729658548041 forward_v I I I I #
face $-1 $119 $120 $39 $-1 $121 forward single #
loop $-1 $122 $123 $49 #
cone-surface $-1 25.845611469707279 23.194684183862147 8.6019293472073564 0 -0.51503808176128008 -0.85716729658548041 2.5 0 0 1 I I 0 1 2.5 forward I I I I #
face $-1 $124 $125 $30 $-1 $126 reversed single #
loop $-1 $-1 $127 $50 #
plane-surface $-1 0 0 -14.363658576194075 0 0 1 1 0 0 forward_v I I I I #
coedge $-1 $128 $129 $130 $131 forward $51 $-1 #
face $-1 $132 $133 $31 $-1 $134 forward single #
loop $-1 $-1 $135 $53 #
plane-surface $-1 0 29.914892841598366 0 0 -1 0 0 0 -1 forward_v I I I I #
coedge $-1 $136 $137 $138 $139 forward $54 $-1 #
face $-1 $140 $141 $32 $-1 $142 reversed single #
loop $-1 $-1 $143 $56 #
plane-surface $-1 47.567618506820807 0 -11.687835435371332 0 0 1 1 0 0 forward_v I I I I #
coedge $-1 $144 $145 $146 $147 reversed $57 $-1 #
face $-1 $148 $149 $33 $-1 $150 reversed single #
loop $-1 $-1 $151 $59 #
plane-surface $-1 32.746999835263011 -29.914892841598373 5.6199251450308338 0 -0.82903758062907751 0.55919289150049634 1 0 0 forward_v I I I I #
coedge $-1 $152 $153 $154 $155 reversed $60 $-1 #
face $-1 $-1 $156 $34 $-1 $157 forward single #
loop $-1 $158 $159 $62 #
cone-surface $-1 28.462261693352829 -19.622703522106498 5.0386546848566685 0 0.82903758062907751 -0.55919289150049634 1.25 0 0 1 I I -0.70710678118654746 0.70710678118654746 1.25 forward I I I I #
loop $-1 $-1 $160 $44 #
coedge $-1 $100 $100 $161 $162 reversed $63 $-1 #
face $-1 $-1 $163 $35 $-1 $164 forward single #
loop $-1 $165 $166 $65 #
cone-surface $-1 37.031737977173194 -19.622703522106498 5.0386546848566685 0 0.82903758062907751 -0.55919289150049634 1.25 0 0 1 I I -0.70710678118654746 0.70710678118654746 1.25 forward I I I I #
loop $-1 $-1 $167 $45 #
coedge $-1 $105 $105 $168 $169 reversed $66 $-1 #
face $-1 $170 $171 $36 $-1 $172 reversed single #
loop $-1 $-1 $173 $68 #
plane-surface $-1 -12.943728134097348 -21.369242807756059 39.05047009268317 0 0.51503808176128008 0.85716729658548041 1 0 0 forward_v I I I I #
coedge $-1 $174 $175 $176 $177 reversed $69 $-1 #
face $-1 $-1 $178 $37 $-1 $179 forward single #
loop $-1 $180 $181 $71 #
cone-surface $-1 -12.943728134097356 20.929869174756014 4.832644264475304 0 -0.51503808176128008 -0.85716729658548041 1.25 0 0 1 I I -0.70710678118654724 0.70710678118654768 1.25 forward I I I I #
loop $-1 $-1 $182 $47 #
coedge $-1 $114 $114 $183 $184 reversed $72 $-1 #
face $-1 $185 $186 $38 $-1 $187 reversed single #
loop $-1 $-1 $188 $74 #
plane-surface $-1 25.845611469707293 -21.369242807756059 39.05047009268317 0 0.51503808176128008 0.85716729658548041 1 0 0 forward_v I I I I #
coedge $-1 $189 $190 $191 $192 reversed $75 $-1 #
face $-1 $-1 $193 $39 $-1 $194 forward single #
loop $-1 $195 $196 $77 #
cone-surface $-1 25.845611469707279 20.929869174756014 4.832644264475304 0 -0.51503808176128008 -0.85716729658548041 1.25 0 0 1 I I -0.70710678118654724 0.70710678118654768 1.25 forward I I I I #
loop $-1 $-1 $197 $49 #
coedge $-1 $123 $123 $198 $199 reversed $78 $-1 #
face $-1 $200 $201 $30 $-1 $202 reversed single #
loop $-1 $-1 $203 $80 #
plane-surface $-1 0 -29.914892841598366 0 0 1 0 0 0 1 forward_v I I I I #
coedge $-1 $204 $205 $206 $207 forward $81 $-1 #
coedge $-1 $208 $83 $209 $210 forward $51 $-1 #
coedge $-1 $83 $208 $211 $212 forward $51 $-1 #
coedge $-1 $213 $214 $83 $131 reversed $215 $-1 #
edge $-1 $216 -29.914892841598366 $217 29.914892841598366 $130 $218 forward 7 unknown #
face $-1 $219 $220 $31 $-1 $221 reversed single #
loop $-1 $-1 $138 $84 #
plane-surface $-1 -61.168793750271043 0 11.510635819685714 0 0 1 1 0 0 forward_v I I I I #
coedge $-1 $222 $223 $137 $224 forward $85 $-1 #
coedge $-1 $225 $87 $226 $227 reversed $54 $-1 #
coedge $-1 $87 $225 $135 $224 reversed $54 $-1 #
coedge $-1 $228 $229 $87 $139 reversed $133 $-1 #
edge $-1 $230 -29.914892841598366 $231 29.914892841598366 $138 $232 forward 7 unknown #
face $-1 $233 $234 $32 $-1 $235 reversed single #
loop $-1 $-1 $236 $88 #
plane-surface $-1 42.744722166386758 0 -10.187835435371332 1 0 0 0 0 -1 forward_v I I I I #
coedge $-1 $237 $238 $239 $240 reversed $89 $-1 #
coedge $-1 $241 $91 $242 $243 reversed $57 $-1 #
coedge $-1 $91 $241 $244 $245 reversed $57 $-1 #
coedge $-1 $246 $247 $91 $147 forward $248 $-1 #
edge $-1 $249 -29.914892841598366 $250 29.914892841598366 $146 $251 forward 7 unknown #
face $-1 $252 $253 $33 $-1 $254 forward single #
loop $-1 $-1 $255 $92 #
plane-surface $-1 22.749277504139258 -116.78230419535825 64.212732114303094 1 0 0 0 0.82903758062907751 -0.55919289150049634 forward_v I I I I #
coedge $-1 $256 $257 $258 $259 reversed $93 $-1 #
coedge $-1 $153 $95 $260 $261 reversed $60 $-1 #
coedge $-1 $95 $152 $256 $262 reversed $60 $-1 #
coedge $-1 $258 $263 $95 $155 forward $253 $-1 #
edge $-1 $264 28.476259256080759 $265 34.373981740713603 $154 $266 forward 7 unknown #
loop $-1 $-1 $161 $96 #
plane-surface $-1 32.746999835263011 -29.914892841598373 5.6199251450308338 0 -0.82903758062907751 0.55919289150049634 1 0 0 forward_v I I I I #
loop $-1 $-1 $267 $62 #
coedge $-1 $159 $159 $160 $268 reversed $97 $-1 #
coedge $-1 $160 $160 $159 $268 forward $99 $-1 #
coedge $-1 $161 $161 $100 $162 forward $156 $-1 #
edge $-1 $269 -7.6694473457502311e-016 $269 6.2831853071795996 $161 $270 forward 7 unknown #
loop $-1 $-1 $168 $101 #
plane-surface $-1 32.746999835263011 -29.914892841598373 5.6199251450308338 0 -0.82903758062907751 0.55919289150049634 1 0 0 forward_v I I I I #
loop $-1 $-1 $271 $65 #
coedge $-1 $166 $166 $167 $272 reversed $102 $-1 #
coedge $-1 $167 $167 $166 $272 forward $104 $-1 #
coedge $-1 $168 $168 $105 $169 forward $163 $-1 #
edge $-1 $273 -7.6694473457502311e-016 $273 6.2831853071795996 $168 $274 forward 7 unknown #
face $-1 $275 $276 $36 $-1 $277 reversed single #
loop $-1 $-1 $278 $106 #
plane-surface $-1 -4.2306577802082739 32.59697773107596 128.86534204936902 -1 0 0 0 0.51503808176128008 0.85716729658548041 forward_v I I I I #
coedge $-1 $279 $280 $281 $282 reversed $107 $-1 #
coedge $-1 $175 $109 $283 $284 reversed $69 $-1 #
coedge $-1 $109 $174 $279 $285 reversed $69 $-1 #
coedge $-1 $281 $286 $109 $177 forward $287 $-1 #
edge $-1 $288 -13.616403976060386 $289 -3.4180214743969835 $176 $290 forward 7 unknown #
loop $-1 $-1 $183 $110 #
plane-surface $-1 -12.943728134097348 -21.369242807756059 39.05047009268317 0 0.51503808176128008 0.85716729658548041 1 0 0 forward_v I I I I #
loop $-1 $-1 $291 $71 #
coedge $-1 $181 $181 $182 $292 reversed $111 $-1 #
coedge $-1 $182 $182 $181 $292 forward $113 $-1 #
coedge $-1 $183 $183 $114 $184 forward $178 $-1 #
edge $-1 $293 -2.4571827870130346e-016 $293 6.2831853071796004 $183 $294 forward 7 unknown #
face $-1 $295 $296 $38 $-1 $297 forward single #
loop $-1 $-1 $298 $115 #
plane-surface $-1 34.558681823596366 32.59697773107596 128.86534204936902 -1 0 0 0 0.51503808176128008 0.85716729658548041 forward_v I I I I #
coedge $-1 $299 $300 $301 $302 reversed $116 $-1 #
coedge $-1 $190 $118 $303 $304 reversed $75 $-1 #
coedge $-1 $118 $189 $299 $305 reversed $75 $-1 #
coedge $-1 $301 $306 $118 $192 forward $296 $-1 #
edge $-1 $307 -13.616403976060386 $308 -3.4180214743969835 $191 $309 forward 7 unknown #
loop $-1 $-1 $198 $119 #
plane-surface $-1 25.845611469707293 -21.369242807756059 39.05047009268317 0 0.51503808176128008 0.85716729658548041 1 0 0 forward_v I I I I #
loop $-1 $-1 $310 $77 #
coedge $-1 $196 $196 $197 $311 reversed $120 $-1 #
coedge $-1 $197 $197 $196 $311 forward $122 $-1 #
coedge $-1 $198 $198 $123 $199 forward $193 $-1 #
edge $-1 $312 -2.4571827870130346e-016 $312 6.2831853071796004 $198 $313 forward 7 unknown #
face $-1 $314 $315 $30 $-1 $316 reversed single #
loop $-1 $-1 $317 $124 #
plane-surface $-1 -52.390514847254863 0 0 1 0 0 0 0 -1 forward_v I I I I #
coedge $-1 $318 $211 $317 $319 forward $125 $-1 #
coedge $-1 $320 $127 $318 $321 forward $81 $-1 #
coedge $-1 $127 $320 $322 $323 forward $81 $-1 #
coedge $-1 $214 $213 $127 $207 reversed $215 $-1 #
edge $-1 $324 -29.914892841598366 $325 29.914892841598366 $206 $326 forward 7 unknown #
coedge $-1 $129 $128 $327 $328 forward $51 $-1 #
coedge $-1 $329 $330 $128 $210 reversed $315 $-1 #
edge $-1 $217 -52.390514847254863 $331 52.390514847254863 $209 $332 forward 7 unknown #
coedge $-1 $203 $333 $129 $212 reversed $125 $-1 #
edge $-1 $334 -52.390514847254863 $216 52.390514847254863 $211 $335 forward 7 unknown #
coedge $-1 $206 $130 $333 $336 forward $215 $-1 #
coedge $-1 $130 $206 $329 $337 reversed $215 $-1 #
loop $-1 $-1 $213 $314 #
vertex $-1 $131 $338 #
vertex $-1 $131 $339 #
straight-curve $-1 52.390514847254863 0 14.363658576194075 0 1 0 I I #
face $-1 $340 $341 $31 $-1 $342 reversed single #
loop $-1 $-1 $343 $132 #
plane-surface $-1 -61.168793750271043 0 5.2827161793335407 0 0 1 1 0 0 forward_v I I I I #
coedge $-1 $344 $135 $345 $346 reversed $85 $-1 #
coedge $-1 $135 $344 $228 $347 reversed $85 $-1 #
edge $-1 $230 -11.510635819685714 $348 -5.2827161793335407 $135 $349 forward 7 unknown #
coedge $-1 $137 $136 $343 $350 forward $54 $-1 #
coedge $-1 $351 $352 $136 $227 forward $353 $-1 #
edge $-1 $354 5.2827161793335407 $231 11.510635819685714 $226 $355 forward 7 unknown #
coedge $-1 $356 $138 $223 $347 forward $133 $-1 #
coedge $-1 $138 $356 $351 $357 forward $133 $-1 #
vertex $-1 $224 $358 #
vertex $-1 $357 $359 #
straight-curve $-1 -52.390514847254863 0 11.510635819685714 0 -1 0 I I #
face $-1 $360 $361 $32 $-1 $362 reversed single #
loop $-1 $-1 $244 $140 #
plane-surface $-1 0 -29.914892841598366 0 0 1 0 0 0 1 forward_v I I I I #
coedge $-1 $363 $364 $365 $366 reversed $141 $-1 #
coedge $-1 $367 $143 $368 $369 reversed $89 $-1 #
coedge $-1 $143 $367 $370 $371 reversed $89 $-1 #
coedge $-1 $247 $246 $143 $240 forward $248 $-1 #
edge $-1 $372 -29.914892841598366 $373 29.914892841598366 $239 $374 forward 7 unknown #
coedge $-1 $145 $144 $364 $375 forward $57 $-1 #
coedge $-1 $376 $365 $144 $243 forward $361 $-1 #
edge $-1 $377 18.960912912976355 $249 28.606705593844453 $242 $378 forward 7 unknown #
coedge $-1 $379 $380 $145 $245 forward $234 $-1 #
edge $-1 $250 -28.606705593844453 $381 -18.960912912976355 $244 $382 forward 7 unknown #
coedge $-1 $239 $146 $380 $383 forward $248 $-1 #
coedge $-1 $146 $239 $376 $384 reversed $248 $-1 #
loop $-1 $-1 $146 $360 #
vertex $-1 $384 $385 #
vertex $-1 $383 $386 #
straight-curve $-1 52.390514847254863 0 -8.6878354353713316 0 -1 0 I I #
face $-1 $-1 $387 $33 $-1 $388 reversed single #
loop $-1 $-1 $154 $148 #
plane-surface $-1 0 0 14.363658576194075 0 0 1 1 0 0 forward_v I I I I #
coedge $-1 $389 $390 $391 $392 reversed $149 $-1 #
coedge $-1 $393 $151 $153 $262 forward $93 $-1 #
coedge $-1 $151 $393 $389 $394 forward $93 $-1 #
coedge $-1 $391 $154 $151 $259 forward $253 $-1 #
edge $-1 $265 -26.371222248755259 $395 -6.3757775865077519 $258 $396 forward 7 unknown #
coedge $-1 $397 $398 $152 $261 forward $387 $-1 #
edge $-1 $399 -26.486440912120703 $264 -17.742707480957471 $260 $400 forward 7 unknown #
edge $-1 $265 -10.546848098886489 $399 -1.2809303928265426e-014 $153 $401 forward 7 unknown #
coedge $-1 $154 $391 $397 $402 forward $253 $-1 #
vertex $-1 $261 $403 #
vertex $-1 $155 $404 #
straight-curve $-1 42.744722166386765 -58.391152097679125 14.363658576194076 0 1 0 I I #
coedge $-1 $267 $267 $-1 $405 reversed $158 $-1 #
edge $-1 $406 0 $406 6.2831853071796004 $159 $407 forward 7 unknown #
vertex $-1 $162 $408 #
ellipse-curve $-1 28.462261693352829 -26.966031599281948 9.9917918606124569 0 -0.82903758062907751 0.55919289150049634 2.5 0 0 1 I I #
coedge $-1 $271 $271 $-1 $409 reversed $165 $-1 #
edge $-1 $410 0 $410 6.2831853071796004 $166 $411 forward 7 unknown #
vertex $-1 $169 $412 #
ellipse-curve $-1 37.031737977173194 -26.966031599281948 9.9917918606124569 0 -0.82903758062907751 0.55919289150049634 2.5 0 0 1 I I #
face $-1 $-1 $287 $36 $-1 $413 forward single #
loop $-1 $-1 $414 $170 #
plane-surface $-1 0 29.914892841598366 0 0 -1 0 0 0 -1 forward_v I I I I #
coedge $-1 $415 $416 $417 $418 reversed $171 $-1 #
coedge $-1 $419 $173 $175 $285 forward $107 $-1 #
coedge $-1 $173 $419 $415 $420 forward $107 $-1 #
coedge $-1 $417 $176 $173 $282 forward $287 $-1 #
edge $-1 $289 -15.184934420937747 $421 2.2412062868404004 $281 $422 forward 7 unknown #
coedge $-1 $423 $424 $174 $284 forward $276 $-1 #
edge $-1 $425 -56.196818982463483 $288 -50.069012448490433 $283 $426 forward 7 unknown #
edge $-1 $289 47.932012002039528 $425 59.829785683196732 $175 $427 forward 7 unknown #
coedge $-1 $176 $417 $423 $428 forward $287 $-1 #
loop $-1 $-1 $417 $275 #
vertex $-1 $284 $429 #
vertex $-1 $177 $430 #
straight-curve $-1 -21.656798487986421 16.29848886553798 14.363658576194076 0 -1 0 I I #
coedge $-1 $291 $291 $-1 $431 reversed $180 $-1 #
edge $-1 $432 0 $432 6.2831853071796004 $181 $433 forward 7 unknown #
vertex $-1 $184 $434 #
ellipse-curve $-1 -12.943728134097356 24.815701590766675 11.299755309207548 0 0.51503808176128008 0.85716729658548041 2.5 0 0 1 I I #
face $-1 $-1 $435 $38 $-1 $436 reversed single #
loop $-1 $-1 $191 $185 #
plane-surface $-1 0 0 14.363658576194075 0 0 1 1 0 0 forward_v I I I I #
coedge $-1 $437 $438 $439 $440 reversed $186 $-1 #
coedge $-1 $441 $188 $190 $305 forward $116 $-1 #
coedge $-1 $188 $441 $437 $442 forward $116 $-1 #
coedge $-1 $439 $191 $188 $302 forward $296 $-1 #
edge $-1 $308 4.2097353809645739 $443 21.63587608874272 $301 $444 forward 7 unknown #
coedge $-1 $445 $446 $189 $304 forward $435 $-1 #
edge $-1 $447 -56.196818982463483 $307 -50.069012448490433 $303 $448 forward 7 unknown #
edge $-1 $308 47.932012002039528 $447 59.829785683196732 $190 $449 forward 7 unknown #
coedge $-1 $191 $439 $445 $450 forward $296 $-1 #
vertex $-1 $304 $451 #
vertex $-1 $192 $452 #
straight-curve $-1 17.132541115818221 16.29848886553798 14.363658576194076 0 -1 0 I I #
coedge $-1 $310 $310 $-1 $453 reversed $195 $-1 #
edge $-1 $454 0 $454 6.2831853071796004 $196 $455 forward 7 unknown #
vertex $-1 $199 $456 #
ellipse-curve $-1 25.845611469707279 24.815701590766675 11.299755309207548 0 0.51503808176128008 0.85716729658548041 2.5 0 0 1 I I #
face $-1 $-1 $215 $30 $-1 $457 reversed single #
loop $-1 $-1 $329 $200 #
plane-surface $-1 0 29.914892841598366 0 0 -1 0 0 0 -1 forward_v I I I I #
coedge $-1 $327 $458 $203 $319 reversed $201 $-1 #
coedge $-1 $333 $203 $204 $321 reversed $125 $-1 #
edge $-1 $334 -14.363658576194075 $459 14.363658576194075 $317 $460 forward 7 unknown #
coedge $-1 $205 $204 $458 $461 forward $81 $-1 #
edge $-1 $325 -52.390514847254863 $459 52.390514847254863 $318 $462 forward 7 unknown #
coedge $-1 $330 $329 $205 $323 reversed $315 $-1 #
edge $-1 $463 -52.390514847254863 $324 52.390514847254863 $322 $464 forward 7 unknown #
vertex $-1 $207 $465 #
vertex $-1 $336 $466 #
straight-curve $-1 52.390514847254863 0 -14.363658576194075 0 -1 0 I I #
coedge $-1 $467 $317 $208 $328 reversed $201 $-1 #
edge $-1 $331 -29.914892841598366 $334 29.914892841598366 $327 $468 forward 7 unknown #
coedge $-1 $322 $209 $214 $337 forward $315 $-1 #
coedge $-1 $209 $322 $467 $469 reversed $315 $-1 #
vertex $-1 $210 $470 #
straight-curve $-1 0 29.914892841598366 14.363658576194075 -1 0 0 I I #
coedge $-1 $211 $318 $213 $336 reversed $125 $-1 #
vertex $-1 $328 $471 #
straight-curve $-1 0 -29.914892841598366 14.363658576194075 1 0 0 I I #
edge $-1 $216 -14.363658576194075 $325 14.363658576194075 $213 $472 forward 7 unknown #
edge $-1 $217 -14.363658576194075 $324 14.363658576194075 $214 $473 forward 7 unknown #
point $-1 52.390514847254863 -29.914892841598366 14.363658576194075 #
point $-1 52.390514847254863 29.914892841598366 14.363658576194075 #
face $-1 $-1 $353 $31 $-1 $474 reversed single #
loop $-1 $-1 $475 $219 #
plane-surface $-1 -69.947072653287222 0 8.3966759995096272 1 0 0 0 0 -1 forward_v I I I I #
coedge $-1 $476 $345 $225 $350 reversed $220 $-1 #
coedge $-1 $223 $222 $475 $477 reversed $85 $-1 #
coedge $-1 $343 $478 $222 $346 forward $220 $-1 #
edge $-1 $479 -8.7782789030161794 $348 8.7782789030161794 $222 $480 forward 7 unknown #
edge $-1 $230 -8.7782789030161794 $481 8.7782789030161794 $223 $482 forward 7 unknown #
vertex $-1 $224 $483 #
straight-curve $-1 -52.390514847254863 29.914892841598366 0 0 0 -1 I I #
edge $-1 $354 -29.914892841598366 $348 29.914892841598366 $343 $484 forward 7 unknown #
coedge $-1 $485 $226 $229 $357 reversed $353 $-1 #
coedge $-1 $226 $485 $476 $486 reversed $353 $-1 #
loop $-1 $-1 $226 $340 #
vertex $-1 $227 $487 #
straight-curve $-1 -52.390514847254863 -29.914892841598366 0 0 0 1 I I #
coedge $-1 $229 $228 $488 $489 forward $133 $-1 #
edge $-1 $490 -8.7782789030161794 $231 8.7782789030161794 $351 $491 forward 7 unknown #
point $-1 -52.390514847254863 29.914892841598366 11.510635819685714 #
point $-1 -52.390514847254863 -29.914892841598366 11.510635819685714 #
face $-1 $-1 $248 $32 $-1 $492 reversed single #
loop $-1 $-1 $242 $233 #
plane-surface $-1 0 29.914892841598366 0 0 -1 0 0 0 -1 forward_v I I I I #
coedge $-1 $493 $236 $367 $494 reversed $141 $-1 #
coedge $-1 $236 $493 $241 $375 reversed $141 $-1 #
coedge $-1 $242 $370 $236 $366 forward $361 $-1 #
edge $-1 $495 -6.5939177176856658 $377 -3.5939177176856658 $365 $496 forward 7 unknown #
coedge $-1 $238 $237 $363 $494 forward $89 $-1 #
coedge $-1 $380 $379 $237 $369 forward $234 $-1 #
edge $-1 $497 18.960912912976355 $372 28.606705593844453 $368 $498 forward 7 unknown #
coedge $-1 $365 $376 $238 $371 forward $361 $-1 #
edge $-1 $373 -28.606705593844453 $495 -18.960912912976355 $370 $499 forward 7 unknown #
vertex $-1 $240 $500 #
vertex $-1 $240 $501 #
straight-curve $-1 52.390514847254863 0 -11.687835435371332 0 1 0 I I #
edge $-1 $377 -29.914892841598366 $381 29.914892841598366 $364 $502 forward 7 unknown #
coedge $-1 $370 $242 $247 $384 forward $361 $-1 #
vertex $-1 $243 $503 #
straight-curve $-1 23.783809253410404 29.914892841598366 -8.6878354353713316 1 0 0 I I #
coedge $-1 $368 $244 $493 $504 forward $234 $-1 #
coedge $-1 $244 $368 $246 $383 reversed $234 $-1 #
vertex $-1 $245 $505 #
straight-curve $-1 23.783809253410404 -29.914892841598366 -8.6878354353713316 -1 0 0 I I #
edge $-1 $250 8.6878354353713316 $372 11.687835435371332 $246 $506 forward 7 unknown #
edge $-1 $249 8.6878354353713316 $373 11.687835435371332 $247 $507 forward 7 unknown #
point $-1 52.390514847254856 29.914892841598366 -8.6878354353713316 #
point $-1 52.390514847254856 -29.914892841598366 -8.6878354353713316 #
loop $-1 $-1 $260 $252 #
plane-surface $-1 0 -29.914892841598366 0 0 1 0 0 0 1 forward_v I I I I #
coedge $-1 $390 $255 $257 $394 reversed $149 $-1 #
coedge $-1 $255 $389 $508 $509 reversed $149 $-1 #
coedge $-1 $263 $258 $255 $392 forward $253 $-1 #
edge $-1 $395 -34.373981740713603 $510 -28.476259256080759 $391 $511 forward 7 unknown #
coedge $-1 $257 $256 $398 $512 reversed $93 $-1 #
edge $-1 $513 1.2809303928265426e-014 $395 10.546848098886489 $389 $514 forward 7 unknown #
vertex $-1 $259 $515 #
straight-curve $-1 16.373499917631506 -24.017170356965526 14.363658576194075 -1 0 0 I I #
coedge $-1 $508 $260 $263 $402 reversed $387 $-1 #
coedge $-1 $260 $508 $393 $512 forward $387 $-1 #
vertex $-1 $261 $516 #
straight-curve $-1 42.744722166386765 -29.914892841598366 32.106366057151547 0 0 1 I I #
straight-curve $-1 42.744722166386765 -29.914892841598373 5.6199251450308338 0 -0.55919289150049634 -0.82903758062907751 I I #
edge $-1 $510 22.749277504139258 $264 42.744722166386765 $397 $517 forward 7 unknown #
point $-1 42.744722166386765 -29.914892841598366 14.363658576194075 #
point $-1 42.744722166386765 -24.017170356965526 14.363658576194075 #
edge $-1 $518 1 $518 0 $267 $-1 forward 7 unknown #
vertex $-1 $268 $519 #
ellipse-curve $-1 28.462261693352829 -20.659000497892844 5.7376457992322889 0 -0.82903758062907751 0.55919289150049634 2.5 0 0 1 I I #
point $-1 30.962261693352829 -26.966031599281941 9.9917918606124498 #
edge $-1 $520 1 $520 0 $271 $-1 forward 7 unknown #
vertex $-1 $272 $521 #
ellipse-curve $-1 37.031737977173194 -20.659000497892844 5.7376457992322889 0 -0.82903758062907751 0.55919289150049634 2.5 0 0 1 I I #
point $-1 39.531737977173194 -26.966031599281941 9.9917918606124498 #
plane-surface $-1 0 0 14.363658576194075 0 0 1 1 0 0 forward_v I I I I #
coedge $-1 $424 $423 $416 $522 forward $276 $-1 #
coedge $-1 $416 $278 $280 $420 reversed $171 $-1 #
coedge $-1 $278 $415 $414 $522 reversed $171 $-1 #
coedge $-1 $286 $281 $278 $418 forward $287 $-1 #
edge $-1 $421 3.4180214743969835 $523 13.616403976060386 $417 $524 forward 7 unknown #
coedge $-1 $280 $279 $424 $525 reversed $107 $-1 #
edge $-1 $526 -59.829785683196732 $421 -47.932012002039528 $415 $527 forward 7 unknown #
vertex $-1 $282 $528 #
straight-curve $-1 -6.4718640670486742 19.716510339934974 14.363658576194073 1 0 0 I I #
coedge $-1 $414 $283 $286 $428 reversed $276 $-1 #
coedge $-1 $283 $414 $419 $525 forward $276 $-1 #
vertex $-1 $284 $529 #
straight-curve $-1 -21.656798487986421 29.914892841598366 64.43267102468451 0 0 1 I I #
straight-curve $-1 -21.656798487986421 -21.369242807756059 39.05047009268317 0 0.85716729658548041 -0.51503808176128008 I I #
edge $-1 $523 4.2306577802082739 $288 21.656798487986421 $423 $530 forward 7 unknown #
point $-1 -21.656798487986421 29.914892841598366 14.363658576194075 #
point $-1 -21.656798487986421 19.716510339934963 14.363658576194076 #
edge $-1 $531 1 $531 0 $291 $-1 forward 7 unknown #
vertex $-1 $292 $532 #
ellipse-curve $-1 -12.943728134097356 21.573666776957616 5.9041033852071552 0 0.51503808176128008 0.85716729658548041 2.5 0 0 1 I I #
point $-1 -10.443728134097356 24.815701590766679 11.299755309207555 #
loop $-1 $-1 $303 $295 #
plane-surface $-1 0 29.914892841598366 0 0 -1 0 0 0 -1 forward_v I I I I #
coedge $-1 $438 $298 $300 $442 reversed $186 $-1 #
coedge $-1 $298 $437 $533 $534 reversed $186 $-1 #
coedge $-1 $306 $301 $298 $440 forward $296 $-1 #
edge $-1 $443 3.4180214743969835 $535 13.616403976060386 $439 $536 forward 7 unknown #
coedge $-1 $300 $299 $446 $537 reversed $116 $-1 #
edge $-1 $538 -59.829785683196732 $443 -47.932012002039528 $437 $539 forward 7 unknown #
vertex $-1 $302 $540 #
straight-curve $-1 12.922805734853647 19.716510339934974 14.363658576194073 1 0 0 I I #
coedge $-1 $533 $303 $306 $450 reversed $435 $-1 #
coedge $-1 $303 $533 $441 $537 forward $435 $-1 #
vertex $-1 $304 $541 #
straight-curve $-1 17.132541115818221 29.914892841598366 64.43267102468451 0 0 1 I I #
straight-curve $-1 17.132541115818221 -21.369242807756059 39.05047009268317 0 0.85716729658548041 -0.51503808176128008 I I #
edge $-1 $535 -34.558681823596366 $307 -17.132541115818221 $445 $542 forward 7 unknown #
point $-1 17.132541115818221 29.914892841598366 14.363658576194075 #
point $-1 17.132541115818221 19.716510339934963 14.363658576194076 #
edge $-1 $543 1 $543 0 $310 $-1 forward 7 unknown #
vertex $-1 $311 $544 #
ellipse-curve $-1 25.845611469707279 21.573666776957616 5.9041033852071552 0 0.51503808176128008 0.85716729658548041 2.5 0 0 1 I I #
point $-1 28.345611469707279 24.815701590766679 11.299755309207555 #
plane-surface $-1 52.390514847254863 0 0 -1 0 0 0 0 1 forward_v I I I I #
coedge $-1 $317 $467 $320 $461 reversed $201 $-1 #
vertex $-1 $461 $545 #
straight-curve $-1 -52.390514847254863 -29.914892841598366 0 0 0 -1 I I #
edge $-1 $459 -29.914892841598366 $463 29.914892841598366 $458 $546 forward 7 unknown #
straight-curve $-1 0 -29.914892841598366 -14.363658576194075 -1 0 0 I I #
vertex $-1 $323 $547 #
straight-curve $-1 0 29.914892841598366 -14.363658576194075 1 0 0 I I #
point $-1 52.390514847254863 29.914892841598366 -14.363658576194075 #
point $-1 52.390514847254863 -29.914892841598366 -14.363658576194075 #
coedge $-1 $458 $327 $330 $469 forward $201 $-1 #
straight-curve $-1 -52.390514847254863 0 14.363658576194075 0 -1 0 I I #
edge $-1 $331 -14.363658576194075 $463 14.363658576194075 $330 $548 forward 7 unknown #
point $-1 -52.390514847254863 29.914892841598366 14.363658576194075 #
point $-1 -52.390514847254863 -29.914892841598366 14.363658576194075 #
straight-curve $-1 52.390514847254863 -29.914892841598366 0 0 0 -1 I I #
straight-curve $-1 52.390514847254863 29.914892841598366 0 0 0 -1 I I #
plane-surface $-1 0 -29.914892841598366 0 0 1 0 0 0 1 forward_v I I I I #
coedge $-1 $549 $488 $344 $477 forward $341 $-1 #
coedge $-1 $478 $343 $352 $486 forward $220 $-1 #
edge $-1 $481 -3.1139598201760865 $479 3.1139598201760865 $344 $550 forward 7 unknown #
coedge $-1 $345 $476 $549 $551 forward $220 $-1 #
vertex $-1 $346 $552 #
straight-curve $-1 -61.168793750271043 29.914892841598366 5.2827161793335407 1 0 0 I I #
vertex $-1 $347 $553 #
straight-curve $-1 -61.168793750271043 29.914892841598366 11.510635819685714 -1 0 0 I I #
point $-1 -52.390514847254863 29.914892841598366 5.2827161793335407 #
straight-curve $-1 -52.390514847254863 0 5.2827161793335407 0 1 0 I I #
coedge $-1 $352 $351 $554 $555 forward $353 $-1 #
edge $-1 $354 -8.7782789030161794 $556 8.7782789030161794 $352 $557 forward 7 unknown #
point $-1 -52.390514847254863 -29.914892841598366 5.2827161793335407 #
coedge $-1 $475 $554 $356 $489 reversed $341 $-1 #
edge $-1 $481 -29.914892841598366 $490 29.914892841598366 $488 $558 forward 7 unknown #
vertex $-1 $489 $559 #
straight-curve $-1 -61.168793750271043 -29.914892841598366 11.510635819685714 1 0 0 I I #
plane-surface $-1 52.390514847254863 0 0 -1 0 0 0 0 1 forward_v I I I I #
coedge $-1 $364 $363 $379 $504 reversed $141 $-1 #
edge $-1 $497 -29.914892841598366 $495 29.914892841598366 $363 $560 forward 7 unknown #
vertex $-1 $371 $561 #
straight-curve $-1 42.744722166386758 29.914892841598366 -5.0939177176856658 0 0 1 I I #
vertex $-1 $369 $562 #
straight-curve $-1 23.783809253410404 -29.914892841598366 -11.687835435371332 1 0 0 I I #
straight-curve $-1 23.783809253410404 29.914892841598366 -11.687835435371332 -1 0 0 I I #
point $-1 52.390514847254856 -29.914892841598366 -11.687835435371332 #
point $-1 52.390514847254856 29.914892841598366 -11.687835435371332 #
straight-curve $-1 42.744722166386758 0 -8.6878354353713316 0 -1 0 I I #
point $-1 42.744722166386758 29.914892841598366 -8.6878354353713316 #
edge $-1 $381 3.5939177176856658 $497 6.5939177176856658 $379 $563 forward 7 unknown #
point $-1 42.744722166386758 -29.914892841598366 -8.6878354353713316 #
straight-curve $-1 52.390514847254863 -29.914892841598366 0 0 0 -1 I I #
straight-curve $-1 52.390514847254863 29.914892841598366 0 0 0 -1 I I #
coedge $-1 $398 $397 $390 $509 forward $387 $-1 #
edge $-1 $510 17.742707480957471 $513 26.486440912120703 $508 $564 forward 7 unknown #
vertex $-1 $402 $565 #
straight-curve $-1 22.749277504139258 -58.391152097679125 14.363658576194076 0 -1 0 I I #
edge $-1 $513 6.3757775865077519 $399 26.371222248755259 $398 $566 forward 7 unknown #
vertex $-1 $512 $567 #
straight-curve $-1 22.749277504139258 -29.914892841598373 5.6199251450308338 0 0.55919289150049634 0.82903758062907751 I I #
point $-1 22.749277504139258 -24.017170356965526 14.363658576194075 #
point $-1 42.744722166386765 -29.914892841598366 5.6199251450308445 #
straight-curve $-1 0 -29.914892841598366 14.363658576194075 1 0 0 I I #
vertex $-1 $405 $568 #
point $-1 30.962261693352829 -20.659000497892844 5.7376457992322889 #
vertex $-1 $409 $569 #
point $-1 39.531737977173194 -20.659000497892844 5.7376457992322889 #
edge $-1 $523 50.069012448490433 $526 56.196818982463483 $414 $570 forward 7 unknown #
vertex $-1 $428 $571 #
straight-curve $-1 -4.2306577802082739 16.29848886553798 14.363658576194076 0 1 0 I I #
edge $-1 $526 -2.2412062868404004 $425 15.184934420937747 $424 $572 forward 7 unknown #
vertex $-1 $525 $573 #
straight-curve $-1 -4.2306577802082739 -21.369242807756059 39.05047009268317 0 -0.85716729658548041 0.51503808176128008 I I #
point $-1 -4.2306577802082739 19.716510339934963 14.363658576194076 #
point $-1 -21.656798487986421 29.914892841598366 8.2358520422210262 #
straight-curve $-1 0 29.914892841598366 14.363658576194075 -1 0 0 I I #
vertex $-1 $431 $574 #
point $-1 -10.443728134097356 21.573666776957616 5.9041033852071552 #
coedge $-1 $446 $445 $438 $534 forward $435 $-1 #
edge $-1 $535 50.069012448490433 $538 56.196818982463483 $533 $575 forward 7 unknown #
vertex $-1 $450 $576 #
straight-curve $-1 34.558681823596366 16.29848886553798 14.363658576194076 0 1 0 I I #
edge $-1 $538 -21.63587608874272 $447 -4.2097353809645739 $446 $577 forward 7 unknown #
vertex $-1 $537 $578 #
straight-curve $-1 34.558681823596366 -21.369242807756059 39.05047009268317 0 -0.85716729658548041 0.51503808176128008 I I #
point $-1 34.558681823596366 19.716510339934963 14.363658576194076 #
point $-1 17.132541115818221 29.914892841598366 8.2358520422210262 #
straight-curve $-1 0 29.914892841598366 14.363658576194075 -1 0 0 I I #
vertex $-1 $453 $579 #
point $-1 28.345611469707279 21.573666776957616 5.9041033852071552 #
point $-1 -52.390514847254863 -29.914892841598366 -14.363658576194075 #
straight-curve $-1 -52.390514847254863 0 -14.363658576194075 0 1 0 I I #
point $-1 -52.390514847254863 29.914892841598366 -14.363658576194075 #
straight-curve $-1 -52.390514847254863 29.914892841598366 0 0 0 -1 I I #
coedge $-1 $554 $475 $478 $551 reversed $341 $-1 #
straight-curve $-1 -69.947072653287222 29.914892841598366 8.3966759995096272 0 0 -1 I I #
edge $-1 $556 -29.914892841598366 $479 29.914892841598366 $549 $580 forward 7 unknown #
point $-1 -69.947072653287222 29.914892841598366 5.2827161793335407 #
point $-1 -69.947072653287222 29.914892841598366 11.510635819685714 #
coedge $-1 $488 $549 $485 $555 reversed $341 $-1 #
edge $-1 $490 -3.1139598201760865 $556 3.1139598201760865 $554 $581 forward 7 unknown #
vertex $-1 $551 $582 #
straight-curve $-1 -61.168793750271043 -29.914892841598366 5.2827161793335407 -1 0 0 I I #
straight-curve $-1 -69.947072653287222 0 11.510635819685714 0 -1 0 I I #
point $-1 -69.947072653287222 -29.914892841598366 11.510635819685714 #
straight-curve $-1 42.744722166386758 0 -11.687835435371332 0 1 0 I I #
point $-1 42.744722166386758 29.914892841598366 -11.687835435371332 #
point $-1 42.744722166386758 -29.914892841598366 -11.687835435371332 #
straight-curve $-1 42.744722166386758 -29.914892841598366 -5.0939177176856658 0 0 -1 I I #
straight-curve $-1 22.749277504139258 -29.914892841598366 32.106366057151547 0 0 -1 I I #
point $-1 22.749277504139258 -29.914892841598366 14.363658576194075 #
straight-curve $-1 16.373499917631506 -29.914892841598366 5.6199251450308454 1 0 0 I I #
point $-1 22.749277504139258 -29.914892841598366 5.6199251450308445 #
point $-1 28.462261693352829 -18.586406546320152 4.339663570481048 #
point $-1 37.031737977173194 -18.586406546320152 4.339663570481048 #
straight-curve $-1 -4.2306577802082739 29.914892841598366 64.43267102468451 0 0 -1 I I #
point $-1 -4.2306577802082739 29.914892841598366 14.363658576194075 #
straight-curve $-1 -6.4718640670486742 29.914892841598366 8.2358520422210244 -1 0 0 I I #
point $-1 -4.2306577802082739 29.914892841598366 8.2358520422210262 #
point $-1 -12.943728134097356 20.286071572554413 3.7611851437434529 #
straight-curve $-1 34.558681823596366 29.914892841598366 64.43267102468451 0 0 -1 I I #
point $-1 34.558681823596366 29.914892841598366 14.363658576194075 #
straight-curve $-1 12.922805734853647 29.914892841598366 8.2358520422210244 -1 0 0 I I #
point $-1 34.558681823596366 29.914892841598366 8.2358520422210262 #
point $-1 25.845611469707279 20.286071572554413 3.7611851437434529 #
straight-curve $-1 -69.947072653287222 0 5.2827161793335407 0 1 0 I I #
straight-curve $-1 -69.947072653287222 -29.914892841598366 8.3966759995096272 0 0 -1 I I #
point $-1 -69.947072653287222 -29.914892841598366 5.2827161793335407 #
End-of-ACIS-data 