500 0 13 0           
7 Unknown 11 ACIS 5.0 NT 24 Thu Mar 25 15:36:52 1999 
-1 9.9999999999999995e-007 1e-010 
body $-1 $13 $-1 $14 #
body $-1 $15 $-1 $16 #
body $-1 $17 $-1 $18 #
body $-1 $19 $-1 $20 #
body $-1 $21 $-1 $22 #
body $-1 $23 $-1 $24 #
body $-1 $25 $-1 $26 #
body $-1 $27 $-1 $28 #
body $-1 $29 $-1 $30 #
body $-1 $31 $-1 $32 #
body $-1 $33 $-1 $34 #
body $-1 $35 $-1 $36 #
body $-1 $37 $-1 $38 #
lump $-1 $-1 $39 $0 #
transform $-1 1 0 0 0 1 0 0 0 1 48.041016876735739 20.768169568844787 8.3773042281042578 1 rotate no_reflect no_shear #
lump $-1 $-1 $40 $1 #
transform $-1 1 0 0 0 1 0 0 0 1 48.041016876735739 20.768169568844787 8.3773042281042578 1 rotate no_reflect no_shear #
lump $-1 $-1 $41 $2 #
transform $-1 1 0 0 0 1 0 0 0 1 48.041016876735739 20.768169568844787 8.3773042281042578 1 rotate no_reflect no_shear #
lump $-1 $-1 $42 $3 #
transform $-1 1 0 0 0 1 0 0 0 1 48.041016876735739 20.768169568844787 8.3773042281042578 1 rotate no_reflect no_shear #
lump $-1 $-1 $43 $4 #
transform $-1 1 0 0 0 1 0 0 0 1 48.041016876735739 20.768169568844787 8.3773042281042578 1 rotate no_reflect no_shear #
lump $-1 $-1 $44 $5 #
transform $-1 1 0 0 0 1 0 0 0 1 48.041016876735739 20.768169568844787 8.3773042281042578 1 rotate no_reflect no_shear #
lump $-1 $-1 $45 $6 #
transform $-1 1 0 0 0 1 0 0 0 1 48.041016876735739 20.768169568844787 8.3773042281042578 1 rotate no_reflect no_shear #
lump $-1 $-1 $46 $7 #
transform $-1 1 0 0 0 1 0 0 0 1 48.041016876735739 20.768169568844787 8.3773042281042578 1 rotate no_reflect no_shear #
lump $-1 $-1 $47 $8 #
transform $-1 1 0 0 0 1 0 0 0 1 48.041016876735739 20.768169568844787 8.3773042281042578 1 rotate no_reflect no_shear #
lump $-1 $-1 $48 $9 #
transform $-1 1 0 0 0 1 0 0 0 1 48.041016876735739 20.768169568844787 8.3773042281042578 1 rotate no_reflect no_shear #
lump $-1 $-1 $49 $10 #
transform $-1 1 0 0 0 1 0 0 0 1 48.041016876735739 20.768169568844787 8.3773042281042578 1 rotate no_reflect no_shear #
lump $-1 $-1 $50 $11 #
transform $-1 1 0 0 0 1 0 0 0 1 48.041016876735739 20.768169568844787 8.3773042281042578 1 rotate no_reflect no_shear #
lump $-1 $-1 $51 $12 #
transform $-1 1 0 0 0 1 0 0 0 1 48.041016876735739 20.768169568844787 8.3773042281042578 1 rotate no_reflect no_shear #
shell $-1 $-1 $-1 $52 $-1 $13 #
shell $-1 $-1 $-1 $53 $-1 $15 #
shell $-1 $-1 $-1 $54 $-1 $17 #
shell $-1 $-1 $-1 $55 $-1 $19 #
shell $-1 $-1 $-1 $56 $-1 $21 #
shell $-1 $-1 $-1 $57 $-1 $23 #
shell $-1 $-1 $-1 $58 $-1 $25 #
shell $-1 $-1 $-1 $59 $-1 $27 #
shell $-1 $-1 $-1 $60 $-1 $29 #
shell $-1 $-1 $-1 $61 $-1 $31 #
shell $-1 $-1 $-1 $62 $-1 $33 #
shell $-1 $-1 $-1 $63 $-1 $35 #
shell $-1 $-1 $-1 $64 $-1 $37 #
face $-1 $65 $66 $39 $-1 $67 forward single #
face $-1 $68 $69 $40 $-1 $70 reversed single #
face $-1 $71 $72 $41 $-1 $73 reversed single #
face $-1 $74 $75 $42 $-1 $76 reversed single #
face $-1 $77 $78 $43 $-1 $79 forward single #
face $-1 $80 $81 $44 $-1 $82 forward single #
face $-1 $83 $84 $45 $-1 $85 forward single #
face $-1 $86 $87 $46 $-1 $88 reversed single #
face $-1 $89 $90 $47 $-1 $91 forward single #
face $-1 $92 $93 $48 $-1 $94 forward single #
face $-1 $95 $96 $49 $-1 $97 reversed single #
face $-1 $98 $99 $50 $-1 $100 forward single #
face $-1 $101 $102 $51 $-1 $103 forward single #
face $-1 $104 $105 $39 $-1 $106 reversed single #
loop $-1 $-1 $107 $52 #
plane-surface $-1 0 0 8.3773042281042578 0 0 1 1 0 0 forward_v I I I I #
face $-1 $108 $109 $40 $-1 $110 reversed single #
loop $-1 $-1 $111 $53 #
plane-surface $-1 -42.893764619730334 0 5.3773042281042578 0 0 1 1 0 0 forward_v I I I I #
face $-1 $112 $113 $41 $-1 $114 reversed single #
loop $-1 $-1 $115 $54 #
plane-surface $-1 42.893764619730334 0 5.3773042281042578 0 0 1 1 0 0 forward_v I I I I #
face $-1 $116 $117 $42 $-1 $118 reversed single #
loop $-1 $-1 $119 $55 #
plane-surface $-1 20.48150922563352 -93.282201726260809 65.771974246530363 -1 0 0 0 -0.75470958851134928 0.65605901945558964 forward_v I I I I #
face $-1 $120 $121 $43 $-1 $122 forward single #
loop $-1 $123 $124 $56 #
cone-surface $-1 2.7808405540832979 -17.531648205802501 4.8746991449496377 0 0.75470958851134928 -0.65605901945558964 1.5 0 0 1 I I 0 1 1.5 forward I I I I #
face $-1 $125 $126 $44 $-1 $127 forward single #
loop $-1 $128 $129 $57 #
cone-surface $-1 9.4185913059146316 -17.531648205802501 4.8746991449496377 0 0.75470958851134928 -0.65605901945558964 1.5 0 0 1 I I 0 1 1.5 forward I I I I #
face $-1 $130 $131 $45 $-1 $132 forward single #
loop $-1 $133 $134 $58 #
cone-surface $-1 16.056342057745965 -17.531648205802501 4.8746991449496377 0 0.75470958851134928 -0.65605901945558964 1.5 0 0 1 I I 0 1 1.5 forward I I I I #
face $-1 $135 $136 $46 $-1 $137 reversed single #
loop $-1 $-1 $138 $59 #
plane-surface $-1 -30.409690257784678 5.5648196450874821e-007 40.507451244255471 0 0.86602541151947299 0.49999998660252726 1 0 0 forward_v I I I I #
face $-1 $139 $140 $47 $-1 $141 forward single #
loop $-1 $142 $143 $60 #
cone-surface $-1 -33.554042588473351 19.226246539971836 6.2066151455136094 0 -0.86602541151947299 -0.49999998660252726 0.5 0 0 1 I I 0 1 0.5 forward I I I I #
face $-1 $144 $145 $48 $-1 $146 forward single #
loop $-1 $147 $148 $61 #
cone-surface $-1 -27.265337927096002 19.226246539971836 6.2066151455136094 0 -0.86602541151947299 -0.49999998660252726 0.5 0 0 1 I I 0 1 0.5 forward I I I I #
face $-1 $149 $150 $49 $-1 $151 reversed single #
loop $-1 $-1 $152 $62 #
plane-surface $-1 9.7699626167013776e-015 83.209483377459989 88.548466833734778 1 0 0 0 -0.86602541151947299 -0.49999998660252726 forward_v I I I I #
face $-1 $153 $154 $50 $-1 $155 forward single #
loop $-1 $156 $157 $63 #
cone-surface $-1 4.1924697742515775 19.226246539971836 6.2066151455136094 0 -0.86602541151947299 -0.49999998660252726 0.5 0 0 1 I I 0 1 0.5 forward I I I I #
face $-1 $158 $159 $51 $-1 $160 forward single #
loop $-1 $161 $162 $64 #
cone-surface $-1 10.48117443562893 19.226246539971836 6.2066151455136094 0 -0.86602541151947299 -0.49999998660252726 0.5 0 0 1 I I 0 1 0.5 forward I I I I #
face $-1 $163 $164 $39 $-1 $165 reversed single #
loop $-1 $-1 $166 $65 #
plane-surface $-1 0 0 -8.3773042281042578 0 0 1 1 0 0 forward_v I I I I #
coedge $-1 $167 $168 $169 $170 forward $66 $-1 #
face $-1 $171 $172 $40 $-1 $173 reversed single #
loop $-1 $-1 $174 $68 #
plane-surface $-1 -37.746512362724928 0 6.8773042281042578 -1 0 0 0 0 1 forward_v I I I I #
coedge $-1 $175 $176 $177 $178 forward $69 $-1 #
face $-1 $179 $180 $41 $-1 $181 forward single #
loop $-1 $-1 $182 $71 #
plane-surface $-1 37.746512362724928 0 6.8773042281042578 1 0 0 0 0 -1 forward_v I I I I #
coedge $-1 $183 $184 $185 $186 reversed $72 $-1 #
face $-1 $187 $188 $42 $-1 $189 reversed single #
loop $-1 $-1 $190 $74 #
plane-surface $-1 9.4185913059146316 -20.768169568844783 2.736489394928995 0 -0.75470958851134928 0.65605901945558964 1 0 0 forward_v I I I I #
coedge $-1 $191 $192 $193 $194 reversed $75 $-1 #
face $-1 $-1 $195 $43 $-1 $196 forward single #
loop $-1 $197 $198 $77 #
cone-surface $-1 2.7808405540832979 -16.180837351295938 3.7004572137909548 0 0.75470958851134928 -0.65605901945558964 0.75 0 0 1 I I -0.70710678118654768 0.70710678118654735 0.75 forward I I I I #
loop $-1 $-1 $199 $56 #
coedge $-1 $124 $124 $200 $201 reversed $78 $-1 #
face $-1 $-1 $202 $44 $-1 $203 forward single #
loop $-1 $204 $205 $80 #
cone-surface $-1 9.4185913059146316 -16.180837351295938 3.7004572137909548 0 0.75470958851134928 -0.65605901945558964 0.75 0 0 1 I I -0.70710678118654768 0.70710678118654735 0.75 forward I I I I #
loop $-1 $-1 $206 $57 #
coedge $-1 $129 $129 $207 $208 reversed $81 $-1 #
face $-1 $-1 $209 $45 $-1 $210 forward single #
loop $-1 $211 $212 $83 #
cone-surface $-1 16.056342057745965 -16.180837351295938 3.7004572137909548 0 0.75470958851134928 -0.65605901945558964 0.75 0 0 1 I I -0.70710678118654768 0.70710678118654735 0.75 forward I I I I #
loop $-1 $-1 $213 $58 #
coedge $-1 $134 $134 $214 $215 reversed $84 $-1 #
face $-1 $216 $217 $46 $-1 $218 reversed single #
loop $-1 $-1 $219 $86 #
plane-surface $-1 -23.072868152844435 83.209483377459989 88.548466833734778 -1 0 0 0 0.86602541151947299 0.49999998660252726 forward_v I I I I #
coedge $-1 $220 $221 $222 $223 reversed $87 $-1 #
face $-1 $-1 $224 $47 $-1 $225 forward single #
loop $-1 $226 $227 $89 #
cone-surface $-1 -33.554042588473351 18.576727481332231 5.8316151555617139 0 -0.86602541151947299 -0.49999998660252726 0.25 0 0 1 I I -0.70710678118654746 0.70710678118654746 0.25 forward I I I I #
loop $-1 $-1 $228 $60 #
coedge $-1 $143 $143 $229 $230 reversed $90 $-1 #
face $-1 $-1 $231 $48 $-1 $232 forward single #
loop $-1 $233 $234 $92 #
cone-surface $-1 -27.265337927096002 18.576727481332231 5.8316151555617139 0 -0.86602541151947299 -0.49999998660252726 0.25 0 0 1 I I -0.70710678118654746 0.70710678118654746 0.25 forward I I I I #
loop $-1 $-1 $235 $61 #
coedge $-1 $148 $148 $236 $237 reversed $93 $-1 #
face $-1 $238 $239 $49 $-1 $240 reversed single #
loop $-1 $-1 $241 $95 #
plane-surface $-1 7.3368221049402536 5.5648196450874821e-007 40.507451244255471 0 0.86602541151947299 0.49999998660252726 1 0 0 forward_v I I I I #
coedge $-1 $242 $243 $244 $245 reversed $96 $-1 #
face $-1 $-1 $246 $50 $-1 $247 forward single #
loop $-1 $248 $249 $98 #
cone-surface $-1 4.1924697742515775 18.576727481332231 5.8316151555617139 0 -0.86602541151947299 -0.49999998660252726 0.25 0 0 1 I I -0.70710678118654746 0.70710678118654746 0.25 forward I I I I #
loop $-1 $-1 $250 $63 #
coedge $-1 $157 $157 $251 $252 reversed $99 $-1 #
face $-1 $-1 $253 $51 $-1 $254 forward single #
loop $-1 $255 $256 $101 #
cone-surface $-1 10.48117443562893 18.576727481332231 5.8316151555617139 0 -0.86602541151947299 -0.49999998660252726 0.25 0 0 1 I I -0.70710678118654746 0.70710678118654746 0.25 forward I I I I #
loop $-1 $-1 $257 $64 #
coedge $-1 $162 $162 $258 $259 reversed $102 $-1 #
face $-1 $260 $261 $39 $-1 $262 reversed single #
loop $-1 $-1 $263 $104 #
plane-surface $-1 0 -20.768169568844787 0 0 1 0 0 0 1 forward_v I I I I #
coedge $-1 $264 $265 $266 $267 forward $105 $-1 #
coedge $-1 $268 $107 $269 $270 forward $66 $-1 #
coedge $-1 $107 $268 $271 $272 forward $66 $-1 #
coedge $-1 $273 $274 $107 $170 reversed $275 $-1 #
edge $-1 $276 -20.768169568844787 $277 20.768169568844787 $169 $278 forward 7 unknown #
face $-1 $279 $280 $40 $-1 $281 reversed single #
loop $-1 $-1 $282 $108 #
plane-surface $-1 0 20.768169568844787 0 0 -1 0 0 0 -1 forward_v I I I I #
coedge $-1 $177 $283 $284 $285 reversed $109 $-1 #
coedge $-1 $286 $111 $287 $288 reversed $69 $-1 #
coedge $-1 $111 $286 $289 $290 reversed $69 $-1 #
coedge $-1 $291 $174 $111 $178 reversed $109 $-1 #
edge $-1 $292 -20.768169568844787 $293 20.768169568844787 $177 $294 forward 7 unknown #
face $-1 $295 $296 $41 $-1 $297 reversed single #
loop $-1 $-1 $298 $112 #
plane-surface $-1 0 0 8.3773042281042578 0 0 1 1 0 0 forward_v I I I I #
coedge $-1 $299 $300 $301 $302 reversed $113 $-1 #
coedge $-1 $303 $115 $304 $305 reversed $72 $-1 #
coedge $-1 $115 $303 $306 $307 reversed $72 $-1 #
coedge $-1 $308 $309 $115 $186 forward $310 $-1 #
edge $-1 $311 -20.768169568844787 $312 20.768169568844787 $185 $313 forward 7 unknown #
face $-1 $314 $315 $42 $-1 $316 forward single #
loop $-1 $-1 $317 $116 #
plane-surface $-1 -1.6443266138042567 -93.282201726260809 65.771974246530363 1 0 0 0 0.75470958851134928 -0.65605901945558964 forward_v I I I I #
coedge $-1 $318 $319 $320 $321 reversed $117 $-1 #
coedge $-1 $192 $119 $322 $323 reversed $75 $-1 #
coedge $-1 $119 $191 $318 $324 reversed $75 $-1 #
coedge $-1 $320 $325 $119 $194 forward $315 $-1 #
edge $-1 $326 25.872931294285618 $327 30.776416694124102 $193 $328 forward 7 unknown #
loop $-1 $-1 $200 $120 #
plane-surface $-1 9.4185913059146316 -20.768169568844783 2.736489394928995 0 -0.75470958851134928 0.65605901945558964 1 0 0 forward_v I I I I #
loop $-1 $-1 $329 $77 #
coedge $-1 $198 $198 $199 $330 reversed $121 $-1 #
coedge $-1 $199 $199 $198 $330 forward $123 $-1 #
coedge $-1 $200 $200 $124 $201 forward $195 $-1 #
edge $-1 $331 1.127407176945957e-015 $331 6.2831853071796013 $200 $332 forward 7 unknown #
loop $-1 $-1 $207 $125 #
plane-surface $-1 9.4185913059146316 -20.768169568844783 2.736489394928995 0 -0.75470958851134928 0.65605901945558964 1 0 0 forward_v I I I I #
loop $-1 $-1 $333 $80 #
coedge $-1 $205 $205 $206 $334 reversed $126 $-1 #
coedge $-1 $206 $206 $205 $334 forward $128 $-1 #
coedge $-1 $207 $207 $129 $208 forward $202 $-1 #
edge $-1 $335 1.127407176945957e-015 $335 6.2831853071796013 $207 $336 forward 7 unknown #
loop $-1 $-1 $214 $130 #
plane-surface $-1 9.4185913059146316 -20.768169568844783 2.736489394928995 0 -0.75470958851134928 0.65605901945558964 1 0 0 forward_v I I I I #
loop $-1 $-1 $337 $83 #
coedge $-1 $212 $212 $213 $338 reversed $131 $-1 #
coedge $-1 $213 $213 $212 $338 forward $133 $-1 #
coedge $-1 $214 $214 $134 $215 forward $209 $-1 #
edge $-1 $339 1.127407176945957e-015 $339 6.2831853071796013 $214 $340 forward 7 unknown #
face $-1 $341 $342 $46 $-1 $343 forward single #
loop $-1 $-1 $344 $135 #
plane-surface $-1 0 20.768169568844787 0 0 -1 0 0 0 -1 forward_v I I I I #
coedge $-1 $345 $346 $347 $348 reversed $136 $-1 #
coedge $-1 $349 $138 $350 $351 reversed $87 $-1 #
coedge $-1 $138 $349 $345 $352 forward $87 $-1 #
coedge $-1 $347 $353 $138 $223 forward $342 $-1 #
edge $-1 $354 -22.541667233832584 $355 -7.8680230239520963 $222 $356 forward 7 unknown #
loop $-1 $-1 $229 $139 #
plane-surface $-1 -30.409690257784678 5.5648196450874821e-007 40.507451244255471 0 0.86602541151947299 0.49999998660252726 1 0 0 forward_v I I I I #
loop $-1 $-1 $357 $89 #
coedge $-1 $227 $227 $228 $358 reversed $140 $-1 #
coedge $-1 $228 $228 $227 $358 forward $142 $-1 #
coedge $-1 $229 $229 $143 $230 forward $224 $-1 #
edge $-1 $359 -1.1728472940473972e-015 $359 6.2831853071795996 $229 $360 forward 7 unknown #
loop $-1 $-1 $236 $144 #
plane-surface $-1 -30.409690257784678 5.5648196450874821e-007 40.507451244255471 0 0.86602541151947299 0.49999998660252726 1 0 0 forward_v I I I I #
loop $-1 $-1 $361 $92 #
coedge $-1 $234 $234 $235 $362 reversed $145 $-1 #
coedge $-1 $235 $235 $234 $362 forward $147 $-1 #
coedge $-1 $236 $236 $148 $237 forward $231 $-1 #
edge $-1 $363 -1.1728472940473972e-015 $363 6.2831853071795996 $236 $364 forward 7 unknown #
face $-1 $365 $366 $49 $-1 $367 forward single #
loop $-1 $-1 $368 $149 #
plane-surface $-1 14.673644209880496 83.209483377459989 88.548466833734778 -1 0 0 0 0.86602541151947299 0.49999998660252726 forward_v I I I I #
coedge $-1 $369 $370 $371 $372 reversed $150 $-1 #
coedge $-1 $243 $152 $373 $374 reversed $96 $-1 #
coedge $-1 $152 $242 $369 $375 reversed $96 $-1 #
coedge $-1 $371 $376 $152 $245 forward $366 $-1 #
edge $-1 $377 20.836572119885208 $378 23.054392766111658 $244 $379 forward 7 unknown #
loop $-1 $-1 $251 $153 #
plane-surface $-1 7.3368221049402536 5.5648196450874821e-007 40.507451244255471 0 0.86602541151947299 0.49999998660252726 1 0 0 forward_v I I I I #
loop $-1 $-1 $380 $98 #
coedge $-1 $249 $249 $250 $381 reversed $154 $-1 #
coedge $-1 $250 $250 $249 $381 forward $156 $-1 #
coedge $-1 $251 $251 $157 $252 forward $246 $-1 #
edge $-1 $382 -1.1728472940473972e-015 $382 6.2831853071795996 $251 $383 forward 7 unknown #
loop $-1 $-1 $258 $158 #
plane-surface $-1 7.3368221049402536 5.5648196450874821e-007 40.507451244255471 0 0.86602541151947299 0.49999998660252726 1 0 0 forward_v I I I I #
loop $-1 $-1 $384 $101 #
coedge $-1 $256 $256 $257 $385 reversed $159 $-1 #
coedge $-1 $257 $257 $256 $385 forward $161 $-1 #
coedge $-1 $258 $258 $162 $259 forward $253 $-1 #
edge $-1 $386 -1.1728472940473972e-015 $386 6.2831853071795996 $258 $387 forward 7 unknown #
face $-1 $388 $389 $39 $-1 $390 reversed single #
loop $-1 $-1 $391 $163 #
plane-surface $-1 -48.041016876735739 0 0 1 0 0 0 0 -1 forward_v I I I I #
coedge $-1 $392 $271 $393 $394 forward $164 $-1 #
coedge $-1 $395 $166 $392 $396 forward $105 $-1 #
coedge $-1 $166 $395 $397 $398 forward $105 $-1 #
coedge $-1 $274 $273 $166 $267 reversed $275 $-1 #
edge $-1 $399 -20.768169568844787 $400 20.768169568844787 $266 $401 forward 7 unknown #
coedge $-1 $168 $167 $402 $403 forward $66 $-1 #
coedge $-1 $404 $405 $167 $270 reversed $389 $-1 #
edge $-1 $277 -48.041016876735739 $406 48.041016876735739 $269 $407 forward 7 unknown #
coedge $-1 $263 $408 $168 $272 reversed $164 $-1 #
edge $-1 $409 -48.041016876735739 $276 48.041016876735739 $271 $410 forward 7 unknown #
coedge $-1 $266 $169 $408 $411 forward $275 $-1 #
coedge $-1 $169 $266 $404 $412 reversed $275 $-1 #
loop $-1 $-1 $273 $388 #
vertex $-1 $170 $413 #
vertex $-1 $170 $414 #
straight-curve $-1 48.041016876735739 0 8.3773042281042578 0 1 0 I I #
face $-1 $415 $416 $40 $-1 $417 forward single #
loop $-1 $-1 $418 $171 #
plane-surface $-1 -48.041016876735739 0 0 1 0 0 0 0 -1 forward_v I I I I #
coedge $-1 $289 $419 $291 $420 forward $172 $-1 #
coedge $-1 $174 $291 $421 $422 reversed $109 $-1 #
coedge $-1 $423 $287 $174 $285 forward $424 $-1 #
edge $-1 $293 1.9386521140521289 $425 4.9386521140521289 $284 $426 forward 7 unknown #
coedge $-1 $176 $175 $418 $427 reversed $69 $-1 #
coedge $-1 $284 $428 $175 $288 forward $424 $-1 #
edge $-1 $429 -26.594134566870572 $293 -16.299630052859762 $287 $430 forward 7 unknown #
coedge $-1 $431 $282 $176 $290 forward $172 $-1 #
edge $-1 $292 16.299630052859762 $432 26.594134566870572 $289 $433 forward 7 unknown #
coedge $-1 $283 $177 $282 $420 reversed $109 $-1 #
vertex $-1 $290 $434 #
vertex $-1 $288 $435 #
straight-curve $-1 -37.746512362724928 0 5.3773042281042578 0 -1 0 I I #
face $-1 $436 $437 $41 $-1 $438 reversed single #
loop $-1 $-1 $439 $179 #
plane-surface $-1 0 -20.768169568844787 0 0 1 0 0 0 1 forward_v I I I I #
coedge $-1 $440 $441 $300 $442 forward $180 $-1 #
coedge $-1 $443 $182 $303 $444 reversed $113 $-1 #
coedge $-1 $182 $443 $298 $442 reversed $113 $-1 #
coedge $-1 $445 $306 $182 $302 forward $437 $-1 #
edge $-1 $446 1.9386521140521289 $447 4.9386521140521289 $301 $448 forward 7 unknown #
coedge $-1 $184 $183 $299 $444 forward $72 $-1 #
coedge $-1 $449 $439 $183 $305 forward $296 $-1 #
edge $-1 $450 16.299630052859762 $311 26.594134566870572 $304 $451 forward 7 unknown #
coedge $-1 $301 $452 $184 $307 forward $437 $-1 #
edge $-1 $312 -26.594134566870572 $446 -16.299630052859762 $306 $453 forward 7 unknown #
coedge $-1 $454 $185 $452 $455 reversed $310 $-1 #
coedge $-1 $185 $454 $449 $456 forward $310 $-1 #
loop $-1 $-1 $185 $436 #
vertex $-1 $305 $457 #
vertex $-1 $186 $458 #
straight-curve $-1 48.041016876735739 0 5.3773042281042578 0 1 0 I I #
face $-1 $-1 $459 $42 $-1 $460 reversed single #
loop $-1 $-1 $193 $187 #
plane-surface $-1 0 0 8.3773042281042578 0 0 1 1 0 0 forward_v I I I I #
coedge $-1 $461 $462 $463 $464 reversed $188 $-1 #
coedge $-1 $465 $190 $192 $324 forward $117 $-1 #
coedge $-1 $190 $465 $461 $466 forward $117 $-1 #
coedge $-1 $463 $193 $190 $321 forward $315 $-1 #
edge $-1 $327 -15.772213572676204 $467 6.3536222667615725 $320 $468 forward 7 unknown #
coedge $-1 $469 $470 $191 $323 forward $459 $-1 #
edge $-1 $471 -30.14949772833619 $326 -24.508682895160923 $322 $472 forward 7 unknown #
edge $-1 $327 -7.4741528649472526 $471 5.3472153159747578e-015 $192 $473 forward 7 unknown #
coedge $-1 $193 $463 $469 $474 forward $315 $-1 #
vertex $-1 $323 $475 #
vertex $-1 $194 $476 #
straight-curve $-1 20.48150922563352 -46.641100863130404 8.3773042281042578 0 1 0 I I #
coedge $-1 $329 $329 $-1 $477 reversed $197 $-1 #
edge $-1 $478 0 $478 6.2831853071796004 $198 $479 forward 7 unknown #
vertex $-1 $201 $480 #
ellipse-curve $-1 2.7808405540832979 -18.316426868925547 5.5568968115166237 0 -0.75470958851134928 0.65605901945558964 1.5 0 0 1 I I #
coedge $-1 $333 $333 $-1 $481 reversed $204 $-1 #
edge $-1 $482 0 $482 6.2831853071796004 $205 $483 forward 7 unknown #
vertex $-1 $208 $484 #
ellipse-curve $-1 9.4185913059146316 -18.316426868925547 5.5568968115166237 0 -0.75470958851134928 0.65605901945558964 1.5 0 0 1 I I #
coedge $-1 $337 $337 $-1 $485 reversed $211 $-1 #
edge $-1 $486 0 $486 6.2831853071796004 $212 $487 forward 7 unknown #
vertex $-1 $215 $488 #
ellipse-curve $-1 16.056342057745965 -18.316426868925547 5.5568968115166237 0 -0.75470958851134928 0.65605901945558964 1.5 0 0 1 I I #
face $-1 $-1 $489 $46 $-1 $490 forward single #
loop $-1 $-1 $347 $216 #
plane-surface $-1 0 0 8.3773042281042578 0 0 1 1 0 0 forward_v I I I I #
coedge $-1 $491 $492 $346 $493 forward $217 $-1 #
coedge $-1 $346 $219 $221 $352 reversed $136 $-1 #
coedge $-1 $219 $345 $344 $493 reversed $136 $-1 #
coedge $-1 $494 $222 $219 $348 forward $342 $-1 #
edge $-1 $355 -23.054392766111658 $495 -20.836572119885208 $347 $496 forward 7 unknown #
coedge $-1 $221 $220 $491 $497 reversed $87 $-1 #
coedge $-1 $498 $499 $220 $351 forward $489 $-1 #
edge $-1 $500 -26.974058322248712 $354 -22.538416910943042 $350 $501 forward 7 unknown #
edge $-1 $502 -41.536339137689588 $355 -37.10069772638392 $345 $503 forward 7 unknown #
coedge $-1 $222 $494 $498 $504 forward $342 $-1 #
vertex $-1 $351 $505 #
vertex $-1 $223 $506 #
straight-curve $-1 -15.204845128892339 18.55034892261834 8.3773042281042578 1 0 0 I I #
coedge $-1 $357 $357 $-1 $507 reversed $226 $-1 #
edge $-1 $508 0 $508 6.2831853071796004 $227 $509 forward 7 unknown #
vertex $-1 $230 $510 #
ellipse-curve $-1 -33.554042588473351 19.659259245731558 6.4566151388148638 0 0.86602541151947299 0.49999998660252726 0.5 0 0 1 I I #
coedge $-1 $361 $361 $-1 $511 reversed $233 $-1 #
edge $-1 $512 0 $512 6.2831853071796004 $234 $513 forward 7 unknown #
vertex $-1 $237 $514 #
ellipse-curve $-1 -27.265337927096002 19.659259245731558 6.4566151388148638 0 0.86602541151947299 0.49999998660252726 0.5 0 0 1 I I #
face $-1 $-1 $515 $49 $-1 $516 reversed single #
loop $-1 $-1 $244 $238 #
plane-surface $-1 0 0 8.3773042281042578 0 0 1 1 0 0 forward_v I I I I #
coedge $-1 $517 $518 $519 $520 reversed $239 $-1 #
coedge $-1 $521 $241 $243 $375 forward $150 $-1 #
coedge $-1 $241 $521 $517 $522 forward $150 $-1 #
coedge $-1 $519 $244 $241 $372 forward $366 $-1 #
edge $-1 $378 -3.668411052470117 $523 11.00523315741037 $371 $524 forward 7 unknown #
coedge $-1 $525 $526 $242 $374 forward $515 $-1 #
edge $-1 $527 -39.738307367341939 $377 -35.896929188763131 $373 $528 forward 7 unknown #
edge $-1 $378 37.10069772638392 $527 41.536339137689588 $243 $529 forward 7 unknown #
coedge $-1 $244 $519 $525 $530 forward $366 $-1 #
vertex $-1 $374 $531 #
vertex $-1 $245 $532 #
straight-curve $-1 9.7699626167013776e-015 41.604741688729995 8.3773042281042578 0 -1 0 I I #
coedge $-1 $380 $380 $-1 $533 reversed $248 $-1 #
edge $-1 $534 0 $534 6.2831853071796004 $249 $535 forward 7 unknown #
vertex $-1 $252 $536 #
ellipse-curve $-1 4.1924697742515775 19.659259245731558 6.4566151388148638 0 0.86602541151947299 0.49999998660252726 0.5 0 0 1 I I #
coedge $-1 $384 $384 $-1 $537 reversed $255 $-1 #
edge $-1 $538 0 $538 6.2831853071796004 $256 $539 forward 7 unknown #
vertex $-1 $259 $540 #
ellipse-curve $-1 10.48117443562893 19.659259245731558 6.4566151388148638 0 0.86602541151947299 0.49999998660252726 0.5 0 0 1 I I #
face $-1 $-1 $275 $39 $-1 $541 reversed single #
loop $-1 $-1 $404 $260 #
plane-surface $-1 0 20.768169568844787 0 0 -1 0 0 0 -1 forward_v I I I I #
coedge $-1 $542 $402 $405 $543 forward $261 $-1 #
coedge $-1 $408 $263 $264 $396 reversed $164 $-1 #
coedge $-1 $402 $542 $263 $394 reversed $261 $-1 #
edge $-1 $409 -8.3773042281042578 $544 8.3773042281042578 $393 $545 forward 7 unknown #
coedge $-1 $265 $264 $542 $546 forward $105 $-1 #
edge $-1 $400 -48.041016876735739 $544 48.041016876735739 $392 $547 forward 7 unknown #
coedge $-1 $405 $404 $265 $398 reversed $389 $-1 #
edge $-1 $548 -48.041016876735739 $399 48.041016876735739 $397 $549 forward 7 unknown #
vertex $-1 $267 $550 #
vertex $-1 $411 $551 #
straight-curve $-1 48.041016876735739 0 -8.3773042281042578 0 -1 0 I I #
coedge $-1 $391 $393 $268 $403 reversed $261 $-1 #
edge $-1 $406 -20.768169568844787 $409 20.768169568844787 $402 $552 forward 7 unknown #
coedge $-1 $397 $269 $274 $412 forward $389 $-1 #
coedge $-1 $269 $397 $391 $543 reversed $389 $-1 #
vertex $-1 $270 $553 #
straight-curve $-1 0 20.768169568844787 8.3773042281042578 -1 0 0 I I #
coedge $-1 $271 $392 $273 $411 reversed $164 $-1 #
vertex $-1 $403 $554 #
straight-curve $-1 0 -20.768169568844787 8.3773042281042578 1 0 0 I I #
edge $-1 $276 -8.3773042281042578 $400 8.3773042281042578 $273 $555 forward 7 unknown #
edge $-1 $277 -8.3773042281042578 $399 8.3773042281042578 $274 $556 forward 7 unknown #
point $-1 48.041016876735739 -20.768169568844787 8.3773042281042578 #
point $-1 48.041016876735739 20.768169568844787 8.3773042281042578 #
face $-1 $-1 $424 $40 $-1 $557 reversed single #
loop $-1 $-1 $421 $279 #
plane-surface $-1 0 0 8.3773042281042578 0 0 1 1 0 0 forward_v I I I I #
coedge $-1 $558 $559 $286 $427 forward $280 $-1 #
coedge $-1 $282 $431 $560 $561 reversed $172 $-1 #
edge $-1 $562 -4.9386521140521289 $292 -1.9386521140521289 $282 $563 forward 7 unknown #
coedge $-1 $560 $564 $283 $422 forward $416 $-1 #
edge $-1 $425 -20.768169568844787 $562 20.768169568844787 $421 $565 forward 7 unknown #
coedge $-1 $428 $284 $564 $566 reversed $424 $-1 #
loop $-1 $-1 $284 $415 #
vertex $-1 $285 $567 #
straight-curve $-1 -37.746512362724928 -20.768169568844787 3.4386521140521289 0 0 1 I I #
edge $-1 $432 -20.768169568844787 $429 20.768169568844787 $418 $568 forward 7 unknown #
coedge $-1 $287 $423 $558 $569 forward $424 $-1 #
vertex $-1 $427 $570 #
straight-curve $-1 -21.446882309865167 -20.768169568844787 5.3773042281042578 1 0 0 I I #
coedge $-1 $419 $289 $559 $571 reversed $172 $-1 #
vertex $-1 $427 $572 #
straight-curve $-1 -21.446882309865167 20.768169568844787 5.3773042281042578 -1 0 0 I I #
point $-1 -37.746512362724928 20.768169568844787 5.3773042281042578 #
point $-1 -37.746512362724928 -20.768169568844787 5.3773042281042578 #
face $-1 $-1 $310 $41 $-1 $573 reversed single #
loop $-1 $-1 $301 $295 #
plane-surface $-1 0 20.768169568844787 0 0 -1 0 0 0 -1 forward_v I I I I #
coedge $-1 $304 $574 $443 $575 forward $296 $-1 #
coedge $-1 $576 $298 $574 $577 forward $180 $-1 #
coedge $-1 $298 $576 $445 $578 forward $180 $-1 #
edge $-1 $447 -20.768169568844787 $579 20.768169568844787 $298 $580 forward 7 unknown #
coedge $-1 $300 $299 $439 $575 reversed $113 $-1 #
edge $-1 $450 -20.768169568844787 $446 20.768169568844787 $299 $581 forward 7 unknown #
coedge $-1 $452 $301 $441 $578 reversed $437 $-1 #
vertex $-1 $307 $582 #
vertex $-1 $302 $583 #
straight-curve $-1 37.746512362724928 20.768169568844787 3.4386521140521289 0 0 1 I I #
coedge $-1 $574 $304 $309 $456 reversed $296 $-1 #
vertex $-1 $305 $584 #
straight-curve $-1 21.446882309865167 -20.768169568844787 5.3773042281042578 1 0 0 I I #
coedge $-1 $306 $445 $308 $455 forward $437 $-1 #
straight-curve $-1 21.446882309865167 20.768169568844787 5.3773042281042578 -1 0 0 I I #
coedge $-1 $309 $308 $576 $585 reversed $310 $-1 #
edge $-1 $586 -8.3773042281042578 $312 -5.3773042281042578 $308 $587 forward 7 unknown #
edge $-1 $588 -8.3773042281042578 $311 -5.3773042281042578 $309 $589 forward 7 unknown #
point $-1 48.041016876735739 -20.768169568844787 5.3773042281042578 #
point $-1 48.041016876735739 20.768169568844787 5.3773042281042578 #
loop $-1 $-1 $322 $314 #
plane-surface $-1 0 -20.768169568844787 0 0 1 0 0 0 1 forward_v I I I I #
coedge $-1 $462 $317 $319 $466 reversed $188 $-1 #
coedge $-1 $317 $461 $590 $591 reversed $188 $-1 #
coedge $-1 $325 $320 $317 $464 forward $315 $-1 #
edge $-1 $467 -30.776416694124102 $592 -25.872931294285618 $463 $593 forward 7 unknown #
coedge $-1 $319 $318 $470 $594 reversed $117 $-1 #
edge $-1 $595 -5.3472153159747578e-015 $467 7.4741528649472526 $461 $596 forward 7 unknown #
vertex $-1 $321 $597 #
straight-curve $-1 4.7092956529573158 -15.864684169006303 8.3773042281042578 -1 0 0 I I #
coedge $-1 $590 $322 $325 $474 reversed $459 $-1 #
coedge $-1 $322 $590 $465 $594 forward $459 $-1 #
vertex $-1 $323 $598 #
straight-curve $-1 20.48150922563352 -20.76816956884479 32.885987123265181 0 0 1 I I #
straight-curve $-1 20.48150922563352 -20.768169568844783 2.736489394928995 0 -0.65605901945558964 -0.75470958851134928 I I #
edge $-1 $592 -1.6443266138042567 $326 20.48150922563352 $469 $599 forward 7 unknown #
point $-1 20.48150922563352 -20.768169568844787 8.3773042281042578 #
point $-1 20.48150922563352 -15.864684169006303 8.3773042281042578 #
edge $-1 $600 1 $600 0 $329 $-1 forward 7 unknown #
vertex $-1 $330 $601 #
ellipse-curve $-1 2.7808405540832979 -16.746869542679448 4.1925014783826464 0 -0.75470958851134928 0.65605901945558964 1.5 0 0 1 I I #
point $-1 4.2808405540832979 -18.31642686892555 5.5568968115166291 #
edge $-1 $602 1 $602 0 $333 $-1 forward 7 unknown #
vertex $-1 $334 $603 #
ellipse-curve $-1 9.4185913059146316 -16.746869542679448 4.1925014783826464 0 -0.75470958851134928 0.65605901945558964 1.5 0 0 1 I I #
point $-1 10.918591305914632 -18.31642686892555 5.5568968115166291 #
edge $-1 $604 1 $604 0 $337 $-1 forward 7 unknown #
vertex $-1 $338 $605 #
ellipse-curve $-1 16.056342057745965 -16.746869542679448 4.1925014783826464 0 -0.75470958851134928 0.65605901945558964 1.5 0 0 1 I I #
point $-1 17.556342057745965 -18.31642686892555 5.5568968115166291 #
loop $-1 $-1 $350 $341 #
plane-surface $-1 -37.746512362724928 0 6.8773042281042578 -1 0 0 0 0 1 forward_v I I I I #
coedge $-1 $606 $344 $349 $497 forward $217 $-1 #
coedge $-1 $344 $606 $494 $607 reversed $217 $-1 #
edge $-1 $495 35.896929188763131 $502 39.738307367341939 $344 $608 forward 7 unknown #
coedge $-1 $353 $347 $492 $607 forward $342 $-1 #
vertex $-1 $607 $609 #
straight-curve $-1 -23.072868152844435 41.604741688729995 8.3773042281042578 0 1 0 I I #
edge $-1 $502 7.8680230239520963 $500 22.541667233832584 $491 $610 forward 7 unknown #
coedge $-1 $499 $350 $353 $504 reversed $489 $-1 #
coedge $-1 $350 $498 $606 $611 reversed $489 $-1 #
vertex $-1 $611 $612 #
straight-curve $-1 -37.746512362724928 7.2811407691046428 27.896146008401157 0 -0.49999998660252726 0.86602541151947299 I I #
vertex $-1 $497 $613 #
straight-curve $-1 -23.072868152844435 5.5648196450874821e-007 40.507451244255471 0 -0.49999998660252726 0.86602541151947299 I I #
edge $-1 $614 -20.768169568844787 $354 -18.550348922618337 $353 $615 forward 7 unknown #
point $-1 -37.746512362724921 18.550348922618337 8.3773042281042578 #
point $-1 -23.072868152844435 18.550348922618337 8.3773042281042578 #
edge $-1 $616 1 $616 0 $357 $-1 forward 7 unknown #
vertex $-1 $358 $617 #
ellipse-curve $-1 -33.554042588473351 18.793233834212099 5.9566151522123461 0 0.86602541151947299 0.49999998660252726 0.5 0 0 1 I I #
point $-1 -33.054042588473351 19.659259245731572 6.4566151388148727 #
edge $-1 $618 1 $618 0 $361 $-1 forward 7 unknown #
vertex $-1 $362 $619 #
ellipse-curve $-1 -27.265337927096002 18.793233834212099 5.9566151522123461 0 0.86602541151947299 0.49999998660252726 0.5 0 0 1 I I #
point $-1 -26.765337927096002 19.659259245731572 6.4566151388148727 #
loop $-1 $-1 $373 $365 #
plane-surface $-1 0 20.768169568844787 0 0 -1 0 0 0 -1 forward_v I I I I #
coedge $-1 $518 $368 $370 $522 reversed $239 $-1 #
coedge $-1 $368 $517 $620 $621 reversed $239 $-1 #
coedge $-1 $376 $371 $368 $520 forward $366 $-1 #
edge $-1 $523 -23.054392766111658 $622 -20.836572119885208 $519 $623 forward 7 unknown #
coedge $-1 $370 $369 $526 $624 reversed $150 $-1 #
edge $-1 $625 -41.536339137689588 $523 -37.10069772638392 $517 $626 forward 7 unknown #
vertex $-1 $372 $627 #
straight-curve $-1 3.6684110524701268 18.55034892261834 8.3773042281042578 1 0 0 I I #
coedge $-1 $620 $373 $376 $530 reversed $515 $-1 #
coedge $-1 $373 $620 $521 $624 forward $515 $-1 #
vertex $-1 $374 $628 #
straight-curve $-1 9.7699626167013776e-015 20.768169568844787 44.274233416867389 0 0 1 I I #
straight-curve $-1 9.7699626167013776e-015 5.5648196450874821e-007 40.507451244255471 0 0.49999998660252726 -0.86602541151947299 I I #
edge $-1 $622 -14.673644209880496 $377 -9.7699626167013776e-015 $525 $629 forward 7 unknown #
point $-1 9.7699626167013776e-015 20.768169568844787 8.3773042281042578 #
point $-1 9.7699626167013776e-015 18.550348922618337 8.3773042281042578 #
edge $-1 $630 1 $630 0 $380 $-1 forward 7 unknown #
vertex $-1 $381 $631 #
ellipse-curve $-1 4.1924697742515775 18.793233834212099 5.9566151522123461 0 0.86602541151947299 0.49999998660252726 0.5 0 0 1 I I #
point $-1 4.6924697742515775 19.659259245731572 6.4566151388148727 #
edge $-1 $632 1 $632 0 $384 $-1 forward 7 unknown #
vertex $-1 $385 $633 #
ellipse-curve $-1 10.48117443562893 18.793233834212099 5.9566151522123461 0 0.86602541151947299 0.49999998660252726 0.5 0 0 1 I I #
point $-1 10.98117443562893 19.659259245731572 6.4566151388148727 #
plane-surface $-1 48.041016876735739 0 0 -1 0 0 0 0 1 forward_v I I I I #
coedge $-1 $393 $391 $395 $546 reversed $261 $-1 #
edge $-1 $406 -8.3773042281042578 $548 8.3773042281042578 $405 $634 forward 7 unknown #
vertex $-1 $546 $635 #
straight-curve $-1 -48.041016876735739 -20.768169568844787 0 0 0 -1 I I #
edge $-1 $544 -20.768169568844787 $548 20.768169568844787 $542 $636 forward 7 unknown #
straight-curve $-1 0 -20.768169568844787 -8.3773042281042578 -1 0 0 I I #
vertex $-1 $398 $637 #
straight-curve $-1 0 20.768169568844787 -8.3773042281042578 1 0 0 I I #
point $-1 48.041016876735739 20.768169568844787 -8.3773042281042578 #
point $-1 48.041016876735739 -20.768169568844787 -8.3773042281042578 #
straight-curve $-1 -48.041016876735739 0 8.3773042281042578 0 -1 0 I I #
point $-1 -48.041016876735739 20.768169568844787 8.3773042281042578 #
point $-1 -48.041016876735739 -20.768169568844787 8.3773042281042578 #
straight-curve $-1 48.041016876735739 -20.768169568844787 0 0 0 -1 I I #
straight-curve $-1 48.041016876735739 20.768169568844787 0 0 0 -1 I I #
plane-surface $-1 0 -20.768169568844787 0 0 1 0 0 0 1 forward_v I I I I #
coedge $-1 $638 $418 $428 $569 reversed $280 $-1 #
coedge $-1 $418 $638 $431 $571 forward $280 $-1 #
coedge $-1 $639 $421 $419 $561 forward $416 $-1 #
edge $-1 $562 37.746512362724928 $640 48.041016876735739 $419 $641 forward 7 unknown #
vertex $-1 $561 $642 #
straight-curve $-1 -37.746512362724928 20.768169568844787 3.4386521140521289 0 0 -1 I I #
coedge $-1 $421 $639 $423 $566 forward $416 $-1 #
straight-curve $-1 -37.746512362724928 0 8.3773042281042578 0 1 0 I I #
edge $-1 $643 -48.041016876735739 $425 -37.746512362724928 $423 $644 forward 7 unknown #
point $-1 -37.746512362724928 -20.768169568844787 8.3773042281042578 #
straight-curve $-1 -48.041016876735739 0 5.3773042281042578 0 -1 0 I I #
edge $-1 $643 -8.3773042281042578 $429 -5.3773042281042578 $558 $645 forward 7 unknown #
point $-1 -48.041016876735739 -20.768169568844787 5.3773042281042578 #
edge $-1 $640 -8.3773042281042578 $432 -5.3773042281042578 $431 $646 forward 7 unknown #
point $-1 -48.041016876735739 20.768169568844787 5.3773042281042578 #
plane-surface $-1 48.041016876735739 0 0 -1 0 0 0 0 1 forward_v I I I I #
coedge $-1 $439 $449 $440 $577 reversed $296 $-1 #
edge $-1 $579 -4.9386521140521289 $450 -1.9386521140521289 $439 $647 forward 7 unknown #
coedge $-1 $441 $440 $454 $585 forward $180 $-1 #
edge $-1 $579 37.746512362724928 $588 48.041016876735739 $574 $648 forward 7 unknown #
edge $-1 $586 -48.041016876735739 $447 -37.746512362724928 $445 $649 forward 7 unknown #
vertex $-1 $577 $650 #
straight-curve $-1 37.746512362724928 0 8.3773042281042578 0 -1 0 I I #
straight-curve $-1 37.746512362724928 0 5.3773042281042578 0 1 0 I I #
point $-1 37.746512362724928 20.768169568844787 5.3773042281042578 #
point $-1 37.746512362724928 20.768169568844787 8.3773042281042578 #
point $-1 37.746512362724928 -20.768169568844787 5.3773042281042578 #
edge $-1 $588 -20.768169568844787 $586 20.768169568844787 $454 $651 forward 7 unknown #
vertex $-1 $585 $652 #
straight-curve $-1 48.041016876735739 20.768169568844787 0 0 0 -1 I I #
vertex $-1 $585 $653 #
straight-curve $-1 48.041016876735739 -20.768169568844787 0 0 0 -1 I I #
coedge $-1 $470 $469 $462 $591 forward $459 $-1 #
edge $-1 $592 24.508682895160923 $595 30.14949772833619 $590 $654 forward 7 unknown #
vertex $-1 $474 $655 #
straight-curve $-1 -1.6443266138042567 -46.641100863130404 8.3773042281042578 0 -1 0 I I #
edge $-1 $595 -6.3536222667615725 $471 15.772213572676204 $470 $656 forward 7 unknown #
vertex $-1 $594 $657 #
straight-curve $-1 -1.6443266138042567 -20.768169568844783 2.736489394928995 0 0.65605901945558964 0.75470958851134928 I I #
point $-1 -1.6443266138042567 -15.864684169006303 8.3773042281042578 #
point $-1 20.48150922563352 -20.768169568844787 2.736489394928991 #
straight-curve $-1 0 -20.768169568844787 8.3773042281042578 1 0 0 I I #
vertex $-1 $477 $658 #
point $-1 4.2808405540832979 -16.746869542679448 4.1925014783826464 #
vertex $-1 $481 $659 #
point $-1 10.918591305914632 -16.746869542679448 4.1925014783826464 #
vertex $-1 $485 $660 #
point $-1 17.556342057745965 -16.746869542679448 4.1925014783826464 #
coedge $-1 $492 $491 $499 $611 forward $217 $-1 #
edge $-1 $495 23.072868152844435 $614 37.746512362724928 $492 $661 forward 7 unknown #
straight-curve $-1 -23.072868152844435 20.768169568844787 44.274233416867389 0 0 -1 I I #
point $-1 -23.072868152844435 20.768169568844787 8.3773042281042578 #
straight-curve $-1 -15.204845128892339 20.768169568844787 4.5359260495254539 -1 0 0 I I #
edge $-1 $500 -39.738307367341939 $614 -35.896929188763131 $606 $662 forward 7 unknown #
point $-1 -37.746512362724921 20.768169568844787 4.5359260495254503 #
point $-1 -23.072868152844435 20.768169568844787 4.5359260495254503 #
vertex $-1 $504 $663 #
straight-curve $-1 -37.746512362724928 0 8.3773042281042578 0 -1 0 I I #
vertex $-1 $507 $664 #
point $-1 -33.054042588473351 18.793233834212099 5.9566151522123461 #
vertex $-1 $511 $665 #
point $-1 -26.765337927096002 18.793233834212099 5.9566151522123461 #
coedge $-1 $526 $525 $518 $621 forward $515 $-1 #
edge $-1 $622 35.896929188763131 $625 39.738307367341939 $620 $666 forward 7 unknown #
vertex $-1 $530 $667 #
straight-curve $-1 14.673644209880496 41.604741688729995 8.3773042281042578 0 1 0 I I #
edge $-1 $625 -11.00523315741037 $527 3.668411052470117 $526 $668 forward 7 unknown #
vertex $-1 $624 $669 #
straight-curve $-1 14.673644209880496 5.5648196450874821e-007 40.507451244255471 0 -0.49999998660252726 0.86602541151947299 I I #
point $-1 14.673644209880496 18.550348922618337 8.3773042281042578 #
point $-1 9.7699626167013776e-015 20.768169568844787 4.5359260495254503 #
straight-curve $-1 0 20.768169568844787 8.3773042281042578 -1 0 0 I I #
vertex $-1 $533 $670 #
point $-1 4.6924697742515775 18.793233834212099 5.9566151522123461 #
vertex $-1 $537 $671 #
point $-1 10.98117443562893 18.793233834212099 5.9566151522123461 #
straight-curve $-1 -48.041016876735739 20.768169568844787 0 0 0 -1 I I #
point $-1 -48.041016876735739 -20.768169568844787 -8.3773042281042578 #
straight-curve $-1 -48.041016876735739 0 -8.3773042281042578 0 1 0 I I #
point $-1 -48.041016876735739 20.768169568844787 -8.3773042281042578 #
coedge $-1 $559 $558 $639 $672 reversed $280 $-1 #
coedge $-1 $564 $560 $638 $672 forward $416 $-1 #
vertex $-1 $561 $673 #
straight-curve $-1 0 20.768169568844787 8.3773042281042578 -1 0 0 I I #
point $-1 -37.746512362724928 20.768169568844787 8.3773042281042578 #
vertex $-1 $672 $674 #
straight-curve $-1 0 -20.768169568844787 8.3773042281042578 1 0 0 I I #
straight-curve $-1 -48.041016876735739 -20.768169568844787 0 0 0 -1 I I #
straight-curve $-1 -48.041016876735739 20.768169568844787 0 0 0 -1 I I #
straight-curve $-1 37.746512362724928 -20.768169568844787 3.4386521140521289 0 0 -1 I I #
straight-curve $-1 0 -20.768169568844787 8.3773042281042578 1 0 0 I I #
straight-curve $-1 0 20.768169568844787 8.3773042281042578 -1 0 0 I I #
point $-1 37.746512362724928 -20.768169568844787 8.3773042281042578 #
straight-curve $-1 48.041016876735739 0 8.3773042281042578 0 1 0 I I #
point $-1 48.041016876735739 20.768169568844787 8.3773042281042578 #
point $-1 48.041016876735739 -20.768169568844787 8.3773042281042578 #
straight-curve $-1 -1.6443266138042567 -20.76816956884479 32.885987123265181 0 0 -1 I I #
point $-1 -1.6443266138042567 -20.768169568844787 8.3773042281042578 #
straight-curve $-1 4.7092956529573158 -20.768169568844787 2.736489394928987 1 0 0 I I #
point $-1 -1.6443266138042567 -20.768169568844787 2.736489394928991 #
point $-1 2.7808405540832979 -15.614805159912427 3.2084129491992628 #
point $-1 9.4185913059146316 -15.614805159912427 3.2084129491992628 #
point $-1 16.056342057745965 -15.614805159912427 3.2084129491992628 #
straight-curve $-1 0 20.768169568844787 8.3773042281042578 -1 0 0 I I #
straight-curve $-1 -37.746512362724921 20.768169568844787 44.274233416867389 0 0 1 I I #
point $-1 -37.746512362724928 20.768169568844787 8.3773042281042578 #
point $-1 -33.554042588473351 18.360221128452363 5.7066151589110818 #
point $-1 -27.265337927096002 18.360221128452363 5.7066151589110818 #
straight-curve $-1 14.673644209880496 20.768169568844787 44.274233416867389 0 0 -1 I I #
point $-1 14.673644209880496 20.768169568844787 8.3773042281042578 #
straight-curve $-1 3.6684110524701268 20.768169568844787 4.5359260495254539 -1 0 0 I I #
point $-1 14.673644209880496 20.768169568844787 4.5359260495254503 #
point $-1 4.1924697742515775 18.360221128452363 5.7066151589110818 #
point $-1 10.48117443562893 18.360221128452363 5.7066151589110818 #
edge $-1 $640 -20.768169568844787 $643 20.768169568844787 $638 $675 forward 7 unknown #
point $-1 -48.041016876735739 20.768169568844787 8.3773042281042578 #
point $-1 -48.041016876735739 -20.768169568844787 8.3773042281042578 #
straight-curve $-1 -48.041016876735739 0 8.3773042281042578 0 -1 0 I I #
End-of-ACIS-data 