500 0 5 0           
7 Unknown 11 ACIS 5.0 NT 24 Fri Mar 26 02:59:20 1999 
-1 9.9999999999999995e-007 1e-010 
body $-1 $5 $-1 $6 #
body $-1 $7 $-1 $8 #
body $-1 $9 $-1 $10 #
body $-1 $11 $-1 $12 #
body $-1 $13 $-1 $14 #
lump $-1 $-1 $15 $0 #
transform $-1 1 0 0 0 1 0 0 0 1 61.680349131748407 40.480846829988998 14.375660816303016 1 rotate no_reflect no_shear #
lump $-1 $-1 $16 $1 #
transform $-1 1 0 0 0 1 0 0 0 1 61.680349131748407 40.480846829988998 14.375660816303016 1 rotate no_reflect no_shear #
lump $-1 $-1 $17 $2 #
transform $-1 1 0 0 0 1 0 0 0 1 61.680349131748407 40.480846829988998 14.375660816303016 1 rotate no_reflect no_shear #
lump $-1 $-1 $18 $3 #
transform $-1 1 0 0 0 1 0 0 0 1 61.680349131748407 40.480846829988998 14.375660816303016 1 rotate no_reflect no_shear #
lump $-1 $-1 $19 $4 #
transform $-1 1 0 0 0 1 0 0 0 1 61.680349131748407 40.480846829988998 14.375660816303016 1 rotate no_reflect no_shear #
shell $-1 $-1 $-1 $20 $-1 $5 #
shell $-1 $-1 $-1 $21 $-1 $7 #
shell $-1 $-1 $-1 $22 $-1 $9 #
shell $-1 $-1 $-1 $23 $-1 $11 #
shell $-1 $-1 $-1 $24 $-1 $13 #
face $-1 $25 $26 $15 $-1 $27 forward single #
face $-1 $28 $29 $16 $-1 $30 reversed single #
face $-1 $31 $32 $17 $-1 $33 forward single #
face $-1 $34 $35 $18 $-1 $36 reversed single #
face $-1 $37 $38 $19 $-1 $39 reversed single #
face $-1 $40 $41 $15 $-1 $42 reversed single #
loop $-1 $-1 $43 $20 #
plane-surface $-1 0 0 14.375660816303016 0 0 1 1 0 0 forward_v I I I I #
face $-1 $44 $45 $16 $-1 $46 forward single #
loop $-1 $-1 $47 $21 #
plane-surface $-1 0 -32.521196067991454 -10.864730207808295 0 0 1 1 0 0 forward_v I I I I #
face $-1 $48 $49 $17 $-1 $50 forward single #
loop $-1 $-1 $51 $22 #
plane-surface $-1 49.510750087401654 23.217130632416524 175.24258773327199 0 1 0 0.6560590369687036 0 0.75470957328743171 forward_v I I I I #
face $-1 $52 $53 $18 $-1 $54 reversed single #
loop $-1 $55 $56 $23 #
cone-surface $-1 53.193079597874643 28.149620974580095 6.7408469502084687 -0.6560590369687036 0 -0.75470957328743171 0.75470957328743171 0 -0.6560590369687036 1 I I 0 1 1 forward I I I I #
face $-1 $57 $58 $19 $-1 $59 reversed single #
loop $-1 $60 $61 $24 #
cone-surface $-1 53.193079597874643 35.548356487825437 6.7408469502084687 -0.6560590369687036 0 -0.75470957328743171 0.75470957328743171 0 -0.6560590369687036 1 I I 0 1 1 forward I I I I #
face $-1 $62 $63 $15 $-1 $64 reversed single #
loop $-1 $-1 $65 $25 #
plane-surface $-1 0 0 -14.375660816303016 0 0 1 1 0 0 forward_v I I I I #
coedge $-1 $66 $67 $68 $69 forward $26 $-1 #
face $-1 $70 $71 $16 $-1 $72 reversed single #
loop $-1 $-1 $73 $28 #
plane-surface $-1 0 -24.561545305993914 -12.620195512055655 0 -1 0 0 0 -1 forward_v I I I I #
coedge $-1 $74 $75 $76 $77 reversed $29 $-1 #
face $-1 $78 $79 $17 $-1 $80 reversed single #
loop $-1 $-1 $81 $31 #
plane-surface $-1 -31.421150815134887 31.848988731202759 82.141087786388695 0.6560590369687036 0 0.75470957328743171 0.75470957328743171 0 -0.6560590369687036 forward_v I I I I #
coedge $-1 $82 $83 $84 $85 reversed $32 $-1 #
face $-1 $86 $87 $18 $-1 $88 forward single #
loop $-1 $89 $90 $34 #
cone-surface $-1 51.950928207023487 28.149620974580095 5.3119152636956475 -0.6560590369687036 0 -0.75470957328743171 0.37735478664371586 0 -0.3280295184843518 1 I I -0.70710678118654746 0.70710678118654746 0.5 forward I I I I #
loop $-1 $-1 $91 $23 #
coedge $-1 $56 $56 $92 $93 reversed $35 $-1 #
face $-1 $94 $95 $19 $-1 $96 reversed single #
loop $-1 $97 $98 $37 #
cone-surface $-1 51.950928207023487 35.548356487825437 5.3119152636956475 -0.6560590369687036 0 -0.75470957328743171 0.37735478664371586 0 -0.3280295184843518 1 I I -0.70710678118654746 0.70710678118654746 0.5 forward I I I I #
loop $-1 $-1 $99 $24 #
coedge $-1 $61 $61 $100 $101 reversed $38 $-1 #
face $-1 $102 $103 $15 $-1 $104 reversed single #
loop $-1 $-1 $105 $40 #
plane-surface $-1 0 -40.480846829988998 0 0 1 0 0 0 1 forward_v I I I I #
coedge $-1 $106 $107 $108 $109 forward $41 $-1 #
coedge $-1 $110 $43 $111 $112 forward $26 $-1 #
coedge $-1 $43 $110 $113 $114 forward $26 $-1 #
coedge $-1 $115 $116 $43 $69 reversed $117 $-1 #
edge $-1 $118 -40.480846829988998 $119 40.480846829988998 $68 $120 forward 7 unknown #
face $-1 $121 $122 $16 $-1 $123 reversed single #
loop $-1 $-1 $124 $44 #
plane-surface $-1 0 -40.480846829988998 0 0 1 0 0 0 1 forward_v I I I I #
coedge $-1 $125 $126 $127 $128 reversed $45 $-1 #
coedge $-1 $129 $47 $124 $130 reversed $29 $-1 #
coedge $-1 $47 $129 $125 $131 reversed $29 $-1 #
coedge $-1 $127 $132 $47 $77 forward $133 $-1 #
edge $-1 $134 -24.220248795993264 $135 -8.3009472719981865 $76 $136 forward 7 unknown #
face $-1 $137 $138 $17 $-1 $139 forward single #
loop $-1 $-1 $140 $48 #
plane-surface $-1 61.680349131748407 0 0 -1 0 0 0 0 1 forward_v I I I I #
coedge $-1 $141 $142 $140 $143 reversed $49 $-1 #
coedge $-1 $83 $51 $142 $144 forward $32 $-1 #
coedge $-1 $51 $82 $145 $146 reversed $32 $-1 #
coedge $-1 $147 $140 $51 $85 forward $79 $-1 #
edge $-1 $148 -86.41210698278384 $149 -73.245633050332984 $84 $150 forward 7 unknown #
face $-1 $151 $152 $18 $-1 $153 forward single #
loop $-1 $-1 $154 $52 #
plane-surface $-1 49.510750087401654 23.217130632416524 175.24258773327199 0 1 0 0.6560590369687036 0 0.75470957328743171 forward_v I I I I #
loop $-1 $-1 $155 $34 #
coedge $-1 $90 $90 $91 $156 forward $53 $-1 #
coedge $-1 $91 $91 $90 $156 reversed $55 $-1 #
coedge $-1 $92 $92 $56 $93 forward $152 $-1 #
edge $-1 $157 0 $157 6.2831853071796004 $92 $158 forward 7 unknown #
face $-1 $159 $160 $19 $-1 $161 reversed single #
loop $-1 $162 $163 $57 #
cone-surface $-1 53.193079597874643 28.149620974580095 6.7408469502084687 -0.6560590369687036 0 -0.75470957328743171 0.75470957328743171 0 -0.6560590369687036 1 I I 0 1 1 forward I I I I #
loop $-1 $-1 $164 $37 #
coedge $-1 $98 $98 $99 $165 forward $58 $-1 #
coedge $-1 $99 $99 $98 $165 reversed $60 $-1 #
coedge $-1 $100 $100 $61 $101 forward $166 $-1 #
edge $-1 $167 0 $167 6.2831853071796004 $100 $168 forward 7 unknown #
face $-1 $169 $170 $15 $-1 $171 reversed single #
loop $-1 $-1 $172 $62 #
plane-surface $-1 -61.680349131748407 0 0 1 0 0 0 0 -1 forward_v I I I I #
coedge $-1 $173 $113 $174 $175 forward $63 $-1 #
coedge $-1 $176 $65 $173 $177 forward $41 $-1 #
coedge $-1 $65 $176 $178 $179 forward $41 $-1 #
coedge $-1 $116 $115 $65 $109 reversed $117 $-1 #
edge $-1 $180 -40.480846829988998 $181 40.480846829988998 $108 $182 forward 7 unknown #
coedge $-1 $67 $66 $183 $184 forward $26 $-1 #
coedge $-1 $185 $186 $66 $112 reversed $170 $-1 #
edge $-1 $119 -61.680349131748407 $187 61.680349131748407 $111 $188 forward 7 unknown #
coedge $-1 $105 $189 $67 $114 reversed $63 $-1 #
edge $-1 $190 -61.680349131748407 $118 61.680349131748407 $113 $191 forward 7 unknown #
coedge $-1 $108 $68 $189 $192 forward $117 $-1 #
coedge $-1 $68 $108 $185 $193 reversed $117 $-1 #
loop $-1 $-1 $115 $169 #
vertex $-1 $69 $194 #
vertex $-1 $69 $195 #
straight-curve $-1 61.680349131748407 0 14.375660816303016 0 1 0 I I #
face $-1 $196 $197 $16 $-1 $198 forward single #
loop $-1 $-1 $199 $70 #
plane-surface $-1 0 0 -14.375660816303016 0 0 1 1 0 0 forward_v I I I I #
coedge $-1 $200 $201 $74 $130 forward $71 $-1 #
coedge $-1 $202 $73 $75 $131 forward $45 $-1 #
coedge $-1 $73 $202 $199 $203 reversed $45 $-1 #
coedge $-1 $204 $76 $73 $128 forward $133 $-1 #
edge $-1 $135 4.5546324517804671 $205 8.0655630602751884 $127 $206 forward 7 unknown #
coedge $-1 $75 $74 $207 $208 reversed $29 $-1 #
edge $-1 $209 -61.680349131748407 $134 61.680349131748407 $124 $210 forward 7 unknown #
edge $-1 $135 -61.680349131748407 $211 61.680349131748407 $125 $212 forward 7 unknown #
coedge $-1 $76 $213 $200 $214 forward $133 $-1 #
loop $-1 $-1 $127 $215 #
vertex $-1 $130 $216 #
vertex $-1 $77 $217 #
straight-curve $-1 61.680349131748407 -16.260598033995727 -10.864730207808295 0 1 0 I I #
face $-1 $218 $219 $17 $-1 $220 reversed single #
loop $-1 $-1 $145 $78 #
plane-surface $-1 0 0 14.375660816303016 0 0 1 1 0 0 forward_v I I I I #
coedge $-1 $84 $221 $81 $143 forward $79 $-1 #
coedge $-1 $222 $81 $223 $224 reversed $49 $-1 #
coedge $-1 $81 $222 $82 $144 reversed $49 $-1 #
edge $-1 $225 -24.556352464387619 $148 -7.2926362668151441 $140 $226 forward 7 unknown #
edge $-1 $148 -123.36069826349681 $227 -103.29165997498231 $82 $228 forward 7 unknown #
coedge $-1 $229 $230 $83 $146 forward $138 $-1 #
edge $-1 $149 -36.924974088047577 $227 -21.778678765033678 $145 $231 forward 7 unknown #
coedge $-1 $232 $84 $230 $233 reversed $79 $-1 #
vertex $-1 $143 $234 #
vertex $-1 $146 $235 #
straight-curve $-1 61.680349131748407 23.217130632416524 87.621293866635995 0 0 1 I I #
face $-1 $236 $237 $18 $-1 $238 reversed single #
loop $-1 $239 $92 $86 #
plane-surface $-1 -31.421150815134887 31.848988731202759 82.141087786388695 0.6560590369687036 0 0.75470957328743171 0.75470957328743171 0 -0.6560590369687036 forward_v I I I I #
coedge $-1 $240 $241 $242 $243 reversed $87 $-1 #
coedge $-1 $155 $155 $-1 $244 forward $89 $-1 #
edge $-1 $245 0 $245 6.2831853071796004 $90 $246 forward 7 unknown #
vertex $-1 $93 $247 #
ellipse-curve $-1 54.107201470241463 28.149620974580095 7.7924238500775926 -0.6560590369687036 0 -0.75470957328743171 0.75470957328743171 0 -0.6560590369687036 1 I I #
face $-1 $248 $249 $19 $-1 $250 forward single #
loop $-1 $251 $252 $94 #
cone-surface $-1 51.950928207023487 28.149620974580095 5.3119152636956475 -0.6560590369687036 0 -0.75470957328743171 0.37735478664371586 0 -0.3280295184843518 1 I I -0.70710678118654746 0.70710678118654746 0.5 forward I I I I #
loop $-1 $-1 $253 $57 #
coedge $-1 $163 $163 $254 $255 reversed $95 $-1 #
coedge $-1 $164 $164 $-1 $256 forward $97 $-1 #
edge $-1 $257 0 $257 6.2831853071796004 $98 $258 forward 7 unknown #
loop $-1 $259 $100 $248 #
vertex $-1 $101 $260 #
ellipse-curve $-1 54.107201470241463 35.548356487825437 7.7924238500775926 -0.6560590369687036 0 -0.75470957328743171 0.75470957328743171 0 -0.6560590369687036 1 I I #
face $-1 $-1 $117 $15 $-1 $261 reversed single #
loop $-1 $-1 $185 $102 #
plane-surface $-1 0 40.480846829988998 0 0 -1 0 0 0 -1 forward_v I I I I #
coedge $-1 $262 $183 $186 $263 forward $103 $-1 #
coedge $-1 $189 $105 $106 $177 reversed $63 $-1 #
coedge $-1 $183 $262 $105 $175 reversed $103 $-1 #
edge $-1 $190 -14.375660816303016 $264 14.375660816303016 $174 $265 forward 7 unknown #
coedge $-1 $107 $106 $262 $266 forward $41 $-1 #
edge $-1 $181 -61.680349131748407 $264 61.680349131748407 $173 $267 forward 7 unknown #
coedge $-1 $186 $185 $107 $179 reversed $170 $-1 #
edge $-1 $268 -61.680349131748407 $180 61.680349131748407 $178 $269 forward 7 unknown #
vertex $-1 $109 $270 #
vertex $-1 $192 $271 #
straight-curve $-1 61.680349131748407 0 -14.375660816303016 0 -1 0 I I #
coedge $-1 $172 $174 $110 $184 reversed $103 $-1 #
edge $-1 $187 -40.480846829988998 $190 40.480846829988998 $183 $272 forward 7 unknown #
coedge $-1 $178 $111 $116 $193 forward $170 $-1 #
coedge $-1 $111 $178 $172 $263 reversed $170 $-1 #
vertex $-1 $112 $273 #
straight-curve $-1 0 40.480846829988998 14.375660816303016 -1 0 0 I I #
coedge $-1 $113 $173 $115 $192 reversed $63 $-1 #
vertex $-1 $184 $274 #
straight-curve $-1 0 -40.480846829988998 14.375660816303016 1 0 0 I I #
edge $-1 $118 -14.375660816303016 $181 14.375660816303016 $115 $275 forward 7 unknown #
edge $-1 $119 -14.375660816303016 $180 14.375660816303016 $116 $276 forward 7 unknown #
point $-1 61.680349131748407 -40.480846829988998 14.375660816303016 #
point $-1 61.680349131748407 40.480846829988998 14.375660816303016 #
face $-1 $277 $278 $16 $-1 $279 reversed single #
loop $-1 $-1 $280 $121 #
plane-surface $-1 0 0 14.375660816303016 0 0 1 1 0 0 forward_v I I I I #
coedge $-1 $281 $282 $126 $203 forward $122 $-1 #
coedge $-1 $283 $124 $132 $214 reversed $71 $-1 #
coedge $-1 $124 $283 $284 $285 forward $71 $-1 #
coedge $-1 $126 $125 $286 $287 reversed $45 $-1 #
edge $-1 $205 -61.680349131748407 $288 61.680349131748407 $199 $289 forward 7 unknown #
coedge $-1 $290 $127 $282 $291 reversed $133 $-1 #
vertex $-1 $203 $292 #
straight-curve $-1 61.680349131748407 -24.561545305993914 -6.3100977560278277 0 0 -1 I I #
coedge $-1 $284 $286 $129 $208 forward $278 $-1 #
edge $-1 $211 8.3009472719981865 $209 24.220248795993264 $207 $293 forward 7 unknown #
vertex $-1 $130 $294 #
straight-curve $-1 0 -40.480846829988998 -10.864730207808295 1 0 0 I I #
vertex $-1 $208 $295 #
straight-curve $-1 0 -24.561545305993914 -10.864730207808295 -1 0 0 I I #
coedge $-1 $132 $290 $280 $296 reversed $133 $-1 #
edge $-1 $297 -14.375660816303016 $134 10.864730207808295 $132 $298 forward 7 unknown #
face $-1 $-1 $133 $16 $-1 $299 reversed single #
point $-1 61.680349131748407 -40.480846829988991 -10.864730207808295 #
point $-1 61.680349131748407 -24.561545305993914 -10.864730207808295 #
face $-1 $300 $301 $17 $-1 $302 forward single #
loop $-1 $-1 $303 $137 #
plane-surface $-1 0 -32.521196067991454 -10.864730207808295 0 0 1 1 0 0 forward_v I I I I #
coedge $-1 $140 $304 $305 $306 reversed $79 $-1 #
coedge $-1 $142 $141 $229 $307 reversed $49 $-1 #
coedge $-1 $305 $308 $141 $224 forward $309 $-1 #
edge $-1 $310 64.490036838687118 $225 84.559075127201623 $223 $311 forward 7 unknown #
vertex $-1 $306 $312 #
straight-curve $-1 61.6803491317484 15.92449436560138 1.2091868838521549 0 -1 0 I I #
vertex $-1 $307 $313 #
straight-curve $-1 -31.421150815134887 23.217130632416524 82.141087786388695 -0.75470957328743171 0 0.6560590369687036 I I #
coedge $-1 $314 $145 $222 $307 forward $138 $-1 #
coedge $-1 $145 $315 $147 $233 forward $138 $-1 #
straight-curve $-1 24.755375043700827 23.217130632416524 14.375660816303011 -1 0 0 I I #
coedge $-1 $316 $147 $317 $318 forward $79 $-1 #
edge $-1 $319 -40.480846829988998 $149 23.217130632416524 $147 $320 forward 7 unknown #
point $-1 61.680349131748407 23.217130632416524 1.2091868838521549 #
point $-1 61.680349131748407 23.217130632416524 14.375660816303016 #
face $-1 $321 $322 $18 $-1 $323 forward single #
loop $-1 $-1 $324 $151 #
plane-surface $-1 61.680349131748407 0 0 -1 0 0 0 0 1 forward_v I I I I #
loop $-1 $-1 $325 $86 #
coedge $-1 $241 $154 $326 $327 forward $87 $-1 #
coedge $-1 $154 $240 $328 $329 reversed $87 $-1 #
coedge $-1 $330 $324 $154 $243 forward $237 $-1 #
edge $-1 $331 -86.41210698278384 $332 -73.245633050332984 $242 $333 forward 7 unknown #
edge $-1 $334 1 $334 0 $155 $-1 forward 7 unknown #
vertex $-1 $156 $335 #
ellipse-curve $-1 52.278957725507837 28.149620974580095 5.6892700503393634 0.6560590369687036 0 0.75470957328743171 0.75470957328743171 0 -0.6560590369687036 1 I I #
point $-1 54.861911043528885 28.149620974580095 7.1363648131088695 #
face $-1 $336 $166 $19 $-1 $337 forward single #
loop $-1 $-1 $338 $159 #
plane-surface $-1 49.510750087401654 23.217130632416524 175.24258773327199 0 1 0 0.6560590369687036 0 0.75470957328743171 forward_v I I I I #
loop $-1 $-1 $339 $94 #
coedge $-1 $252 $252 $253 $340 forward $160 $-1 #
coedge $-1 $253 $253 $252 $340 reversed $162 $-1 #
coedge $-1 $254 $254 $163 $255 forward $259 $-1 #
edge $-1 $341 0 $341 6.2831853071796004 $254 $342 forward 7 unknown #
edge $-1 $343 1 $343 0 $164 $-1 forward 7 unknown #
vertex $-1 $165 $344 #
ellipse-curve $-1 52.278957725507837 35.548356487825437 5.6892700503393634 0.6560590369687036 0 0.75470957328743171 0.75470957328743171 0 -0.6560590369687036 1 I I #
loop $-1 $345 $254 $248 #
point $-1 54.861911043528885 35.548356487825437 7.1363648131088695 #
plane-surface $-1 61.680349131748407 0 0 -1 0 0 0 0 1 forward_v I I I I #
coedge $-1 $174 $172 $176 $266 reversed $103 $-1 #
edge $-1 $187 -14.375660816303016 $268 14.375660816303016 $186 $346 forward 7 unknown #
vertex $-1 $266 $347 #
straight-curve $-1 -61.680349131748407 -40.480846829988998 0 0 0 -1 I I #
edge $-1 $264 -40.480846829988998 $268 40.480846829988998 $262 $348 forward 7 unknown #
straight-curve $-1 0 -40.480846829988998 -14.375660816303016 -1 0 0 I I #
vertex $-1 $179 $349 #
straight-curve $-1 0 40.480846829988998 -14.375660816303016 1 0 0 I I #
point $-1 61.680349131748407 40.480846829988998 -14.375660816303016 #
point $-1 61.680349131748407 -40.480846829988998 -14.375660816303016 #
straight-curve $-1 -61.680349131748407 0 14.375660816303016 0 -1 0 I I #
point $-1 -61.680349131748407 40.480846829988998 14.375660816303016 #
point $-1 -61.680349131748407 -40.480846829988998 14.375660816303016 #
straight-curve $-1 61.680349131748407 -40.480846829988998 0 0 0 -1 I I #
straight-curve $-1 61.680349131748407 40.480846829988998 0 0 0 -1 I I #
face $-1 $215 $350 $16 $-1 $351 reversed single #
loop $-1 $-1 $207 $196 #
plane-surface $-1 -61.680349131748407 0 0 1 0 0 0 0 -1 forward_v I I I I #
coedge $-1 $352 $353 $213 $296 forward $197 $-1 #
coedge $-1 $354 $199 $355 $356 forward $122 $-1 #
coedge $-1 $199 $354 $204 $291 forward $122 $-1 #
coedge $-1 $201 $200 $353 $357 reversed $71 $-1 #
coedge $-1 $358 $207 $201 $285 reversed $278 $-1 #
edge $-1 $359 -14.375660816303016 $209 10.864730207808295 $284 $360 forward 7 unknown #
coedge $-1 $207 $355 $202 $287 forward $278 $-1 #
edge $-1 $288 -8.0655630602751884 $211 -4.5546324517804671 $286 $361 forward 7 unknown #
vertex $-1 $356 $362 #
straight-curve $-1 0 -24.561545305993914 -14.375660816303016 -1 0 0 I I #
coedge $-1 $213 $204 $363 $364 reversed $133 $-1 #
edge $-1 $365 -40.480846829988998 $205 24.561545305993914 $204 $366 forward 7 unknown #
point $-1 61.680349131748407 -24.561545305993914 -14.375660816303016 #
straight-curve $-1 -61.680349131748407 -16.260598033995727 -10.864730207808295 0 -1 0 I I #
point $-1 -61.680349131748407 -40.480846829988991 -10.864730207808295 #
point $-1 -61.680349131748407 -24.561545305993914 -10.864730207808295 #
edge $-1 $297 -40.480846829988998 $367 40.480846829988998 $213 $368 forward 7 unknown #
vertex $-1 $296 $369 #
straight-curve $-1 61.680349131748407 -40.480846829988998 0 0 0 -1 I I #
plane-surface $-1 61.680349131748407 0 0 -1 0 0 0 0 1 forward_v I I I I #
face $-1 $370 $371 $17 $-1 $372 reversed single #
loop $-1 $-1 $373 $218 #
plane-surface $-1 0 -24.561545305993914 -12.620195512055655 0 -1 0 0 0 -1 forward_v I I I I #
coedge $-1 $374 $375 $316 $376 reversed $219 $-1 #
coedge $-1 $221 $377 $378 $379 reversed $79 $-1 #
coedge $-1 $380 $223 $221 $306 forward $309 $-1 #
edge $-1 $225 -1.2091868838521544 $381 14.375660816303016 $221 $382 forward 7 unknown #
edge $-1 $227 7.2926362668151441 $310 24.556352464387611 $229 $383 forward 7 unknown #
coedge $-1 $223 $384 $314 $385 reversed $309 $-1 #
loop $-1 $-1 $223 $386 #
vertex $-1 $385 $387 #
straight-curve $-1 -2.1371943750817994 40.480846829988998 56.684932278768301 0.75470957328743171 0 -0.6560590369687036 I I #
point $-1 61.680349131748407 40.480846829988998 1.2091868838521544 #
point $-1 46.534053808734505 23.217130632416524 14.375660816303011 #
coedge $-1 $388 $229 $308 $385 forward $138 $-1 #
coedge $-1 $230 $388 $389 $390 forward $138 $-1 #
coedge $-1 $377 $232 $303 $376 forward $79 $-1 #
coedge $-1 $389 $391 $232 $318 reversed $371 $-1 #
edge $-1 $319 -14.375660816303016 $392 10.864730207808295 $232 $393 forward 7 unknown #
vertex $-1 $233 $394 #
straight-curve $-1 61.680349131748407 0 14.375660816303016 0 1 0 I I #
face $-1 $395 $396 $18 $-1 $397 reversed single #
loop $-1 $-1 $328 $236 #
plane-surface $-1 0 0 14.375660816303016 0 0 1 1 0 0 forward_v I I I I #
coedge $-1 $242 $398 $325 $399 forward $237 $-1 #
coedge $-1 $400 $326 $324 $399 reversed $239 $-1 #
coedge $-1 $325 $401 $240 $327 reversed $239 $-1 #
edge $-1 $331 -123.36069826349681 $402 -103.29165997498231 $240 $403 forward 7 unknown #
coedge $-1 $404 $405 $241 $329 forward $322 $-1 #
edge $-1 $332 -36.924974088047577 $402 -21.778678765033678 $328 $406 forward 7 unknown #
coedge $-1 $407 $242 $405 $408 reversed $237 $-1 #
vertex $-1 $399 $409 #
vertex $-1 $329 $410 #
straight-curve $-1 61.680349131748407 23.217130632416524 87.621293866635995 0 0 1 I I #
vertex $-1 $244 $411 #
point $-1 53.033667298795272 28.149620974580095 5.0332110133706598 #
face $-1 $412 $413 $19 $-1 $414 reversed single #
plane-surface $-1 -31.421150815134887 31.848988731202759 82.141087786388695 0.6560590369687036 0 0.75470957328743171 0.75470957328743171 0 -0.6560590369687036 forward_v I I I I #
coedge $-1 $415 $416 $417 $418 reversed $249 $-1 #
coedge $-1 $339 $339 $-1 $419 forward $251 $-1 #
edge $-1 $420 0 $420 6.2831853071796004 $252 $421 forward 7 unknown #
vertex $-1 $255 $422 #
ellipse-curve $-1 54.107201470241463 28.149620974580095 7.7924238500775926 -0.6560590369687036 0 -0.75470957328743171 0.75470957328743171 0 -0.6560590369687036 1 I I #
vertex $-1 $256 $423 #
point $-1 53.033667298795272 35.548356487825437 5.0332110133706598 #
loop $-1 $-1 $424 $248 #
straight-curve $-1 -61.680349131748407 40.480846829988998 0 0 0 -1 I I #
point $-1 -61.680349131748407 -40.480846829988998 -14.375660816303016 #
straight-curve $-1 -61.680349131748407 0 -14.375660816303016 0 1 0 I I #
point $-1 -61.680349131748407 40.480846829988998 -14.375660816303016 #
loop $-1 $-1 $363 $277 #
plane-surface $-1 0 40.480846829988998 0 0 -1 0 0 0 -1 forward_v I I I I #
coedge $-1 $425 $280 $426 $427 forward $197 $-1 #
coedge $-1 $280 $425 $283 $357 forward $197 $-1 #
coedge $-1 $282 $281 $428 $429 forward $122 $-1 #
coedge $-1 $286 $430 $281 $356 reversed $278 $-1 #
edge $-1 $288 -24.561545305993914 $431 40.480846829988998 $355 $432 forward 7 unknown #
edge $-1 $359 -61.680349131748407 $297 61.680349131748407 $283 $433 forward 7 unknown #
coedge $-1 $430 $284 $425 $434 reversed $278 $-1 #
vertex $-1 $434 $435 #
straight-curve $-1 -61.680349131748407 -40.480846829988998 0 0 0 -1 I I #
straight-curve $-1 -61.680349131748407 -24.561545305993914 -6.3100977560278277 0 0 1 I I #
point $-1 -61.680349131748407 -24.561545305993914 -14.375660816303016 #
coedge $-1 $428 $426 $290 $364 forward $350 $-1 #
edge $-1 $367 -14.375660816303016 $365 14.375660816303016 $290 $436 forward 7 unknown #
vertex $-1 $291 $437 #
straight-curve $-1 61.680349131748407 0 -14.375660816303016 0 -1 0 I I #
vertex $-1 $296 $438 #
straight-curve $-1 61.680349131748407 0 14.375660816303016 0 1 0 I I #
point $-1 61.680349131748407 -40.480846829988998 14.375660816303016 #
face $-1 $439 $440 $17 $-1 $441 reversed single #
loop $-1 $-1 $391 $300 #
plane-surface $-1 0 -40.480846829988998 0 0 1 0 0 0 1 forward_v I I I I #
coedge $-1 $442 $443 $377 $444 reversed $301 $-1 #
coedge $-1 $445 $303 $391 $446 reversed $219 $-1 #
coedge $-1 $303 $445 $442 $447 reversed $219 $-1 #
edge $-1 $392 -24.220248795993264 $448 -8.3009472719981865 $316 $449 forward 7 unknown #
coedge $-1 $304 $316 $373 $444 forward $79 $-1 #
coedge $-1 $450 $451 $304 $379 forward $440 $-1 #
edge $-1 $381 -40.480846829988998 $452 24.561545305993914 $304 $453 forward 7 unknown #
coedge $-1 $384 $305 $451 $454 reversed $309 $-1 #
vertex $-1 $379 $455 #
straight-curve $-1 61.680349131748407 40.480846829988998 0 0 0 -1 I I #
straight-curve $-1 46.534053808734484 15.92449436560138 14.375660816303025 0 1 0 I I #
coedge $-1 $308 $380 $456 $457 reversed $309 $-1 #
edge $-1 $310 -46.534053808734505 $458 61.680349131748407 $308 $459 forward 7 unknown #
face $-1 $-1 $309 $17 $-1 $460 reversed single #
point $-1 46.534053808734505 40.480846829988991 14.375660816303011 #
coedge $-1 $315 $314 $461 $462 forward $138 $-1 #
coedge $-1 $463 $317 $315 $390 reversed $371 $-1 #
edge $-1 $464 -61.680349131748407 $319 61.680349131748407 $389 $465 forward 7 unknown #
coedge $-1 $317 $463 $374 $446 forward $371 $-1 #
vertex $-1 $446 $466 #
straight-curve $-1 61.680349131748407 -40.480846829988998 0 0 0 -1 I I #
point $-1 61.680349131748407 -40.480846829988998 14.375660816303016 #
face $-1 $467 $468 $18 $-1 $469 forward single #
loop $-1 $-1 $470 $321 #
plane-surface $-1 0 -32.521196067991454 -10.864730207808295 0 0 1 1 0 0 forward_v I I I I #
coedge $-1 $324 $471 $472 $473 reversed $237 $-1 #
edge $-1 $474 -24.556352464387619 $331 -7.2926362668151441 $324 $475 forward 7 unknown #
coedge $-1 $401 $325 $476 $477 reversed $239 $-1 #
coedge $-1 $326 $400 $404 $478 reversed $239 $-1 #
vertex $-1 $478 $479 #
straight-curve $-1 -31.421150815134887 23.217130632416524 82.141087786388695 -0.75470957328743171 0 0.6560590369687036 I I #
coedge $-1 $480 $328 $401 $478 forward $322 $-1 #
coedge $-1 $328 $481 $330 $408 forward $322 $-1 #
straight-curve $-1 24.755375043700827 23.217130632416524 14.375660816303011 -1 0 0 I I #
coedge $-1 $482 $330 $483 $484 forward $237 $-1 #
edge $-1 $485 -40.480846829988998 $332 23.217130632416524 $330 $486 forward 7 unknown #
point $-1 61.680349131748407 23.217130632416524 1.2091868838521549 #
point $-1 61.680349131748407 23.217130632416524 14.375660816303016 #
point $-1 51.622898688539138 28.149620974580095 4.9345604770519316 #
face $-1 $487 $488 $19 $-1 $489 forward single #
loop $-1 $-1 $490 $336 #
plane-surface $-1 61.680349131748407 0 0 -1 0 0 0 0 1 forward_v I I I I #
coedge $-1 $416 $338 $491 $492 forward $249 $-1 #
coedge $-1 $338 $415 $493 $494 reversed $249 $-1 #
coedge $-1 $495 $490 $338 $418 forward $413 $-1 #
edge $-1 $496 -86.41210698278384 $497 -73.245633050332984 $417 $498 forward 7 unknown #
edge $-1 $499 1 $499 0 $339 $-1 forward 7 unknown #
vertex $-1 $340 $500 #
ellipse-curve $-1 52.278957725507837 28.149620974580095 5.6892700503393634 0.6560590369687036 0 0.75470957328743171 0.75470957328743171 0 -0.6560590369687036 1 I I #
point $-1 54.861911043528885 28.149620974580095 7.1363648131088695 #
point $-1 51.622898688539138 35.548356487825437 4.9345604770519316 #
coedge $-1 $501 $491 $490 $502 reversed $345 $-1 #
coedge $-1 $353 $352 $358 $434 forward $197 $-1 #
coedge $-1 $363 $503 $352 $427 reversed $350 $-1 #
edge $-1 $367 -61.680349131748407 $504 61.680349131748407 $426 $505 forward 7 unknown #
coedge $-1 $503 $363 $354 $429 reversed $350 $-1 #
edge $-1 $431 -61.680349131748407 $365 61.680349131748407 $428 $506 forward 7 unknown #
coedge $-1 $355 $358 $503 $507 forward $278 $-1 #
vertex $-1 $429 $508 #
straight-curve $-1 -61.680349131748407 0 -14.375660816303016 0 1 0 I I #
straight-curve $-1 0 -40.480846829988998 14.375660816303016 1 0 0 I I #
edge $-1 $504 -40.480846829988998 $359 40.480846829988998 $358 $509 forward 7 unknown #
point $-1 -61.680349131748407 -40.480846829988998 14.375660816303016 #
straight-curve $-1 61.680349131748407 40.480846829988998 0 0 0 -1 I I #
point $-1 61.680349131748407 40.480846829988998 -14.375660816303016 #
point $-1 61.680349131748407 40.480846829988998 14.375660816303016 #
face $-1 $386 $510 $17 $-1 $511 reversed single #
loop $-1 $-1 $450 $370 #
plane-surface $-1 0 0 -14.375660816303016 0 0 1 1 0 0 forward_v I I I I #
coedge $-1 $512 $373 $375 $447 forward $301 $-1 #
coedge $-1 $373 $512 $450 $513 reversed $301 $-1 #
edge $-1 $448 4.5546324517804671 $452 8.0655630602751884 $377 $514 forward 7 unknown #
coedge $-1 $375 $374 $515 $516 reversed $219 $-1 #
edge $-1 $517 -61.680349131748407 $392 61.680349131748407 $391 $518 forward 7 unknown #
edge $-1 $448 -61.680349131748407 $519 61.680349131748407 $442 $520 forward 7 unknown #
vertex $-1 $376 $521 #
straight-curve $-1 61.680349131748407 -16.260598033995727 -10.864730207808295 0 1 0 I I #
coedge $-1 $522 $378 $443 $513 forward $440 $-1 #
coedge $-1 $378 $522 $380 $454 forward $440 $-1 #
vertex $-1 $513 $523 #
straight-curve $-1 61.680349131748407 0 -14.375660816303016 0 -1 0 I I #
edge $-1 $524 -61.680349131748407 $381 61.680349131748407 $380 $525 forward 7 unknown #
point $-1 61.680349131748407 40.480846829988998 -14.375660816303016 #
coedge $-1 $526 $461 $384 $457 forward $510 $-1 #
edge $-1 $458 -14.375660816303016 $524 14.375660816303016 $384 $527 forward 7 unknown #
vertex $-1 $385 $528 #
straight-curve $-1 0 40.480846829988998 14.375660816303016 -1 0 0 I I #
plane-surface $-1 0 40.480846829988998 0 0 -1 0 0 0 -1 forward_v I I I I #
coedge $-1 $456 $529 $388 $462 reversed $510 $-1 #
edge $-1 $458 -40.480846829988998 $464 40.480846829988998 $461 $530 forward 7 unknown #
coedge $-1 $391 $389 $529 $531 forward $371 $-1 #
vertex $-1 $462 $532 #
straight-curve $-1 0 -40.480846829988998 14.375660816303016 1 0 0 I I #
point $-1 61.680349131748407 -40.480846829988991 -10.864730207808295 #
face $-1 $533 $534 $18 $-1 $535 reversed single #
loop $-1 $-1 $536 $395 #
plane-surface $-1 0 -24.561545305993914 -12.620195512055655 0 -1 0 0 0 -1 forward_v I I I I #
coedge $-1 $537 $538 $482 $539 reversed $396 $-1 #
coedge $-1 $398 $540 $541 $542 reversed $237 $-1 #
coedge $-1 $543 $476 $398 $473 forward $544 $-1 #
edge $-1 $474 -1.2091868838521544 $545 14.375660816303016 $398 $546 forward 7 unknown #
vertex $-1 $473 $547 #
straight-curve $-1 61.6803491317484 15.92449436560138 1.2091868838521549 0 -1 0 I I #
coedge $-1 $472 $548 $400 $477 forward $544 $-1 #
edge $-1 $549 64.490036838687118 $474 84.559075127201623 $476 $550 forward 7 unknown #
edge $-1 $402 7.2926362668151441 $549 24.556352464387611 $404 $551 forward 7 unknown #
point $-1 46.534053808734505 23.217130632416524 14.375660816303011 #
coedge $-1 $552 $404 $548 $553 forward $322 $-1 #
coedge $-1 $405 $552 $554 $555 forward $322 $-1 #
coedge $-1 $540 $407 $470 $539 forward $237 $-1 #
coedge $-1 $554 $556 $407 $484 reversed $534 $-1 #
edge $-1 $485 -14.375660816303016 $557 10.864730207808295 $407 $558 forward 7 unknown #
vertex $-1 $408 $559 #
straight-curve $-1 61.680349131748407 0 14.375660816303016 0 1 0 I I #
face $-1 $560 $561 $19 $-1 $562 reversed single #
loop $-1 $-1 $493 $412 #
plane-surface $-1 0 0 14.375660816303016 0 0 1 1 0 0 forward_v I I I I #
coedge $-1 $417 $563 $424 $502 forward $413 $-1 #
coedge $-1 $424 $564 $415 $492 reversed $345 $-1 #
edge $-1 $496 -123.36069826349681 $565 -103.29165997498231 $415 $566 forward 7 unknown #
coedge $-1 $567 $568 $416 $494 forward $488 $-1 #
edge $-1 $497 -36.924974088047577 $565 -21.778678765033678 $493 $569 forward 7 unknown #
coedge $-1 $570 $417 $568 $571 reversed $413 $-1 #
vertex $-1 $502 $572 #
vertex $-1 $494 $573 #
straight-curve $-1 61.680349131748407 23.217130632416524 87.621293866635995 0 0 1 I I #
vertex $-1 $419 $574 #
point $-1 53.033667298795272 28.149620974580095 5.0332110133706598 #
coedge $-1 $564 $424 $575 $576 reversed $345 $-1 #
edge $-1 $577 -24.556352464387619 $496 -7.2926362668151441 $490 $578 forward 7 unknown #
coedge $-1 $426 $428 $430 $507 reversed $350 $-1 #
vertex $-1 $427 $579 #
straight-curve $-1 0 40.480846829988998 14.375660816303016 -1 0 0 I I #
straight-curve $-1 0 40.480846829988998 -14.375660816303016 1 0 0 I I #
edge $-1 $504 -14.375660816303016 $431 14.375660816303016 $503 $580 forward 7 unknown #
point $-1 -61.680349131748407 40.480846829988998 -14.375660816303016 #
straight-curve $-1 -61.680349131748407 0 14.375660816303016 0 -1 0 I I #
loop $-1 $-1 $515 $439 #
plane-surface $-1 -61.680349131748407 0 0 1 0 0 0 0 -1 forward_v I I I I #
coedge $-1 $443 $442 $581 $582 reversed $301 $-1 #
edge $-1 $452 -61.680349131748407 $583 61.680349131748407 $450 $584 forward 7 unknown #
straight-curve $-1 61.680349131748407 -24.561545305993914 -6.3100977560278277 0 0 -1 I I #
coedge $-1 $529 $581 $445 $516 forward $510 $-1 #
edge $-1 $519 8.3009472719981865 $517 24.220248795993264 $515 $585 forward 7 unknown #
vertex $-1 $446 $586 #
straight-curve $-1 0 -40.480846829988998 -10.864730207808295 1 0 0 I I #
vertex $-1 $516 $587 #
straight-curve $-1 0 -24.561545305993914 -10.864730207808295 -1 0 0 I I #
point $-1 61.680349131748407 -24.561545305993914 -10.864730207808295 #
coedge $-1 $451 $450 $526 $588 forward $440 $-1 #
point $-1 61.680349131748407 -24.561545305993914 -14.375660816303016 #
vertex $-1 $454 $589 #
straight-curve $-1 0 40.480846829988998 -14.375660816303016 1 0 0 I I #
coedge $-1 $581 $456 $522 $588 reversed $510 $-1 #
straight-curve $-1 -61.680349131748407 40.480846829988998 0 0 0 -1 I I #
point $-1 -61.680349131748407 40.480846829988998 14.375660816303016 #
coedge $-1 $461 $515 $463 $531 reversed $510 $-1 #
straight-curve $-1 -61.680349131748407 0 14.375660816303016 0 -1 0 I I #
edge $-1 $464 -14.375660816303016 $517 10.864730207808295 $529 $590 forward 7 unknown #
point $-1 -61.680349131748407 -40.480846829988998 14.375660816303016 #
face $-1 $591 $592 $18 $-1 $593 reversed single #
loop $-1 $-1 $556 $467 #
plane-surface $-1 0 -40.480846829988998 0 0 1 0 0 0 1 forward_v I I I I #
coedge $-1 $594 $595 $540 $596 reversed $468 $-1 #
coedge $-1 $597 $470 $556 $598 reversed $396 $-1 #
coedge $-1 $470 $597 $594 $599 reversed $396 $-1 #
edge $-1 $557 -24.220248795993264 $600 -8.3009472719981865 $482 $601 forward 7 unknown #
coedge $-1 $471 $482 $536 $596 forward $237 $-1 #
coedge $-1 $602 $603 $471 $542 forward $592 $-1 #
edge $-1 $545 -40.480846829988998 $604 24.561545305993914 $471 $605 forward 7 unknown #
coedge $-1 $606 $472 $603 $607 reversed $544 $-1 #
loop $-1 $-1 $476 $608 #
vertex $-1 $542 $609 #
straight-curve $-1 61.680349131748407 40.480846829988998 0 0 0 -1 I I #
point $-1 61.680349131748407 40.480846829988998 1.2091868838521544 #
coedge $-1 $476 $606 $480 $553 reversed $544 $-1 #
vertex $-1 $553 $610 #
straight-curve $-1 -2.1371943750817994 40.480846829988998 56.684932278768301 0.75470957328743171 0 -0.6560590369687036 I I #
straight-curve $-1 46.534053808734484 15.92449436560138 14.375660816303025 0 1 0 I I #
coedge $-1 $481 $480 $611 $612 forward $322 $-1 #
edge $-1 $549 -46.534053808734505 $613 61.680349131748407 $548 $614 forward 7 unknown #
coedge $-1 $615 $483 $481 $555 reversed $534 $-1 #
edge $-1 $616 -61.680349131748407 $485 61.680349131748407 $554 $617 forward 7 unknown #
coedge $-1 $483 $615 $537 $598 forward $534 $-1 #
vertex $-1 $598 $618 #
straight-curve $-1 61.680349131748407 -40.480846829988998 0 0 0 -1 I I #
point $-1 61.680349131748407 -40.480846829988998 14.375660816303016 #
face $-1 $619 $620 $19 $-1 $621 forward single #
loop $-1 $-1 $622 $487 #
plane-surface $-1 0 -32.521196067991454 -10.864730207808295 0 0 1 1 0 0 forward_v I I I I #
coedge $-1 $490 $623 $624 $625 reversed $413 $-1 #
coedge $-1 $491 $501 $567 $626 reversed $345 $-1 #
vertex $-1 $626 $627 #
straight-curve $-1 -31.421150815134887 23.217130632416524 82.141087786388695 -0.75470957328743171 0 0.6560590369687036 I I #
coedge $-1 $628 $493 $564 $626 forward $488 $-1 #
coedge $-1 $493 $629 $495 $571 forward $488 $-1 #
straight-curve $-1 24.755375043700827 23.217130632416524 14.375660816303011 -1 0 0 I I #
coedge $-1 $630 $495 $631 $632 forward $413 $-1 #
edge $-1 $633 -40.480846829988998 $497 23.217130632416524 $495 $634 forward 7 unknown #
point $-1 61.680349131748407 23.217130632416524 1.2091868838521549 #
point $-1 61.680349131748407 23.217130632416524 14.375660816303016 #
point $-1 51.622898688539138 28.149620974580095 4.9345604770519316 #
coedge $-1 $624 $635 $501 $576 forward $636 $-1 #
edge $-1 $637 64.490036838687118 $577 84.559075127201623 $575 $638 forward 7 unknown #
vertex $-1 $625 $639 #
straight-curve $-1 61.6803491317484 15.92449436560138 1.2091868838521549 0 -1 0 I I #
point $-1 -61.680349131748407 40.480846829988998 14.375660816303016 #
straight-curve $-1 -61.680349131748407 40.480846829988998 0 0 0 -1 I I #
coedge $-1 $515 $526 $512 $582 forward $510 $-1 #
edge $-1 $583 -8.0655630602751884 $519 -4.5546324517804671 $581 $640 forward 7 unknown #
vertex $-1 $588 $641 #
straight-curve $-1 0 -24.561545305993914 -14.375660816303016 -1 0 0 I I #
straight-curve $-1 -61.680349131748407 -16.260598033995727 -10.864730207808295 0 -1 0 I I #
point $-1 -61.680349131748407 -40.480846829988991 -10.864730207808295 #
point $-1 -61.680349131748407 -24.561545305993914 -10.864730207808295 #
edge $-1 $583 -24.561545305993914 $524 40.480846829988998 $526 $642 forward 7 unknown #
point $-1 -61.680349131748407 40.480846829988998 -14.375660816303016 #
straight-curve $-1 -61.680349131748407 -40.480846829988998 0 0 0 -1 I I #
face $-1 $608 $643 $18 $-1 $644 reversed single #
loop $-1 $-1 $602 $533 #
plane-surface $-1 0 0 -14.375660816303016 0 0 1 1 0 0 forward_v I I I I #
coedge $-1 $645 $536 $538 $599 forward $468 $-1 #
coedge $-1 $536 $645 $602 $646 reversed $468 $-1 #
edge $-1 $600 4.5546324517804671 $604 8.0655630602751884 $540 $647 forward 7 unknown #
coedge $-1 $538 $537 $648 $649 reversed $396 $-1 #
edge $-1 $650 -61.680349131748407 $557 61.680349131748407 $556 $651 forward 7 unknown #
edge $-1 $600 -61.680349131748407 $652 61.680349131748407 $594 $653 forward 7 unknown #
vertex $-1 $539 $654 #
straight-curve $-1 61.680349131748407 -16.260598033995727 -10.864730207808295 0 1 0 I I #
coedge $-1 $655 $541 $595 $646 forward $592 $-1 #
coedge $-1 $541 $655 $543 $607 forward $592 $-1 #
vertex $-1 $646 $656 #
straight-curve $-1 61.680349131748407 0 -14.375660816303016 0 -1 0 I I #
coedge $-1 $548 $543 $657 $658 reversed $544 $-1 #
edge $-1 $659 -61.680349131748407 $545 61.680349131748407 $543 $660 forward 7 unknown #
face $-1 $-1 $544 $18 $-1 $661 reversed single #
point $-1 61.680349131748407 40.480846829988998 -14.375660816303016 #
point $-1 46.534053808734505 40.480846829988991 14.375660816303011 #
coedge $-1 $657 $662 $552 $612 reversed $643 $-1 #
edge $-1 $613 -40.480846829988998 $616 40.480846829988998 $611 $663 forward 7 unknown #
vertex $-1 $553 $664 #
straight-curve $-1 0 40.480846829988998 14.375660816303016 -1 0 0 I I #
coedge $-1 $556 $554 $662 $665 forward $534 $-1 #
vertex $-1 $612 $666 #
straight-curve $-1 0 -40.480846829988998 14.375660816303016 1 0 0 I I #
point $-1 61.680349131748407 -40.480846829988991 -10.864730207808295 #
face $-1 $667 $668 $19 $-1 $669 reversed single #
loop $-1 $-1 $670 $560 #
plane-surface $-1 0 -24.561545305993914 -12.620195512055655 0 -1 0 0 0 -1 forward_v I I I I #
coedge $-1 $671 $672 $630 $673 reversed $561 $-1 #
coedge $-1 $563 $674 $675 $676 reversed $413 $-1 #
coedge $-1 $677 $575 $563 $625 forward $636 $-1 #
edge $-1 $577 -1.2091868838521544 $678 14.375660816303016 $563 $679 forward 7 unknown #
edge $-1 $565 7.2926362668151441 $637 24.556352464387611 $567 $680 forward 7 unknown #
point $-1 46.534053808734505 23.217130632416524 14.375660816303011 #
coedge $-1 $681 $567 $635 $682 forward $488 $-1 #
coedge $-1 $568 $681 $683 $684 forward $488 $-1 #
coedge $-1 $674 $570 $622 $673 forward $413 $-1 #
coedge $-1 $683 $685 $570 $632 reversed $668 $-1 #
edge $-1 $633 -14.375660816303016 $686 10.864730207808295 $570 $687 forward 7 unknown #
vertex $-1 $571 $688 #
straight-curve $-1 61.680349131748407 0 14.375660816303016 0 1 0 I I #
coedge $-1 $575 $689 $628 $682 reversed $636 $-1 #
loop $-1 $-1 $575 $690 #
vertex $-1 $682 $691 #
straight-curve $-1 -2.1371943750817994 40.480846829988998 56.684932278768301 0.75470957328743171 0 -0.6560590369687036 I I #
point $-1 61.680349131748407 40.480846829988998 1.2091868838521544 #
straight-curve $-1 -61.680349131748407 -24.561545305993914 -6.3100977560278277 0 0 1 I I #
point $-1 -61.680349131748407 -24.561545305993914 -14.375660816303016 #
straight-curve $-1 -61.680349131748407 0 -14.375660816303016 0 1 0 I I #
loop $-1 $-1 $648 $591 #
plane-surface $-1 -61.680349131748407 0 0 1 0 0 0 0 -1 forward_v I I I I #
coedge $-1 $595 $594 $692 $693 reversed $468 $-1 #
edge $-1 $604 -61.680349131748407 $694 61.680349131748407 $602 $695 forward 7 unknown #
straight-curve $-1 61.680349131748407 -24.561545305993914 -6.3100977560278277 0 0 -1 I I #
coedge $-1 $662 $692 $597 $649 forward $643 $-1 #
edge $-1 $652 8.3009472719981865 $650 24.220248795993264 $648 $696 forward 7 unknown #
vertex $-1 $598 $697 #
straight-curve $-1 0 -40.480846829988998 -10.864730207808295 1 0 0 I I #
vertex $-1 $649 $698 #
straight-curve $-1 0 -24.561545305993914 -10.864730207808295 -1 0 0 I I #
point $-1 61.680349131748407 -24.561545305993914 -10.864730207808295 #
coedge $-1 $603 $602 $699 $700 forward $592 $-1 #
point $-1 61.680349131748407 -24.561545305993914 -14.375660816303016 #
coedge $-1 $699 $611 $606 $658 forward $643 $-1 #
edge $-1 $613 -14.375660816303016 $659 14.375660816303016 $606 $701 forward 7 unknown #
vertex $-1 $607 $702 #
straight-curve $-1 0 40.480846829988998 -14.375660816303016 1 0 0 I I #
plane-surface $-1 0 40.480846829988998 0 0 -1 0 0 0 -1 forward_v I I I I #
coedge $-1 $611 $648 $615 $665 reversed $643 $-1 #
straight-curve $-1 -61.680349131748407 0 14.375660816303016 0 -1 0 I I #
point $-1 -61.680349131748407 40.480846829988998 14.375660816303016 #
edge $-1 $616 -14.375660816303016 $650 10.864730207808295 $662 $703 forward 7 unknown #
point $-1 -61.680349131748407 -40.480846829988998 14.375660816303016 #
face $-1 $704 $705 $19 $-1 $706 reversed single #
loop $-1 $-1 $685 $619 #
plane-surface $-1 0 -40.480846829988998 0 0 1 0 0 0 1 forward_v I I I I #
coedge $-1 $707 $708 $674 $709 reversed $620 $-1 #
coedge $-1 $710 $622 $685 $711 reversed $561 $-1 #
coedge $-1 $622 $710 $707 $712 reversed $561 $-1 #
edge $-1 $686 -24.220248795993264 $713 -8.3009472719981865 $630 $714 forward 7 unknown #
coedge $-1 $623 $630 $670 $709 forward $413 $-1 #
coedge $-1 $715 $716 $623 $676 forward $705 $-1 #
edge $-1 $678 -40.480846829988998 $717 24.561545305993914 $623 $718 forward 7 unknown #
coedge $-1 $689 $624 $716 $719 reversed $636 $-1 #
vertex $-1 $676 $720 #
straight-curve $-1 61.680349131748407 40.480846829988998 0 0 0 -1 I I #
straight-curve $-1 46.534053808734484 15.92449436560138 14.375660816303025 0 1 0 I I #
coedge $-1 $629 $628 $721 $722 forward $488 $-1 #
edge $-1 $637 -46.534053808734505 $723 61.680349131748407 $635 $724 forward 7 unknown #
coedge $-1 $725 $631 $629 $684 reversed $668 $-1 #
edge $-1 $726 -61.680349131748407 $633 61.680349131748407 $683 $727 forward 7 unknown #
coedge $-1 $631 $725 $671 $711 forward $668 $-1 #
vertex $-1 $711 $728 #
straight-curve $-1 61.680349131748407 -40.480846829988998 0 0 0 -1 I I #
point $-1 61.680349131748407 -40.480846829988998 14.375660816303016 #
coedge $-1 $635 $677 $729 $730 reversed $636 $-1 #
face $-1 $-1 $636 $19 $-1 $731 reversed single #
point $-1 46.534053808734505 40.480846829988991 14.375660816303011 #
coedge $-1 $648 $699 $645 $693 forward $643 $-1 #
edge $-1 $694 -8.0655630602751884 $652 -4.5546324517804671 $692 $732 forward 7 unknown #
vertex $-1 $700 $733 #
straight-curve $-1 0 -24.561545305993914 -14.375660816303016 -1 0 0 I I #
straight-curve $-1 -61.680349131748407 -16.260598033995727 -10.864730207808295 0 -1 0 I I #
point $-1 -61.680349131748407 -40.480846829988991 -10.864730207808295 #
point $-1 -61.680349131748407 -24.561545305993914 -10.864730207808295 #
coedge $-1 $692 $657 $655 $700 reversed $643 $-1 #
edge $-1 $694 -24.561545305993914 $659 40.480846829988998 $699 $734 forward 7 unknown #
straight-curve $-1 -61.680349131748407 40.480846829988998 0 0 0 -1 I I #
point $-1 -61.680349131748407 40.480846829988998 -14.375660816303016 #
straight-curve $-1 -61.680349131748407 -40.480846829988998 0 0 0 -1 I I #
face $-1 $690 $735 $19 $-1 $736 reversed single #
loop $-1 $-1 $715 $667 #
plane-surface $-1 0 0 -14.375660816303016 0 0 1 1 0 0 forward_v I I I I #
coedge $-1 $737 $670 $672 $712 forward $620 $-1 #
coedge $-1 $670 $737 $715 $738 reversed $620 $-1 #
edge $-1 $713 4.5546324517804671 $717 8.0655630602751884 $674 $739 forward 7 unknown #
coedge $-1 $672 $671 $740 $741 reversed $561 $-1 #
edge $-1 $742 -61.680349131748407 $686 61.680349131748407 $685 $743 forward 7 unknown #
edge $-1 $713 -61.680349131748407 $744 61.680349131748407 $707 $745 forward 7 unknown #
vertex $-1 $673 $746 #
straight-curve $-1 61.680349131748407 -16.260598033995727 -10.864730207808295 0 1 0 I I #
coedge $-1 $747 $675 $708 $738 forward $705 $-1 #
coedge $-1 $675 $747 $677 $719 forward $705 $-1 #
vertex $-1 $738 $748 #
straight-curve $-1 61.680349131748407 0 -14.375660816303016 0 -1 0 I I #
edge $-1 $749 -61.680349131748407 $678 61.680349131748407 $677 $750 forward 7 unknown #
point $-1 61.680349131748407 40.480846829988998 -14.375660816303016 #
coedge $-1 $729 $751 $681 $722 reversed $735 $-1 #
edge $-1 $723 -40.480846829988998 $726 40.480846829988998 $721 $752 forward 7 unknown #
vertex $-1 $682 $753 #
straight-curve $-1 0 40.480846829988998 14.375660816303016 -1 0 0 I I #
coedge $-1 $685 $683 $751 $754 forward $668 $-1 #
vertex $-1 $722 $755 #
straight-curve $-1 0 -40.480846829988998 14.375660816303016 1 0 0 I I #
point $-1 61.680349131748407 -40.480846829988991 -10.864730207808295 #
coedge $-1 $756 $721 $689 $730 forward $735 $-1 #
edge $-1 $723 -14.375660816303016 $749 14.375660816303016 $689 $757 forward 7 unknown #
plane-surface $-1 0 40.480846829988998 0 0 -1 0 0 0 -1 forward_v I I I I #
straight-curve $-1 -61.680349131748407 -24.561545305993914 -6.3100977560278277 0 0 1 I I #
point $-1 -61.680349131748407 -24.561545305993914 -14.375660816303016 #
straight-curve $-1 -61.680349131748407 0 -14.375660816303016 0 1 0 I I #
loop $-1 $-1 $740 $704 #
plane-surface $-1 -61.680349131748407 0 0 1 0 0 0 0 -1 forward_v I I I I #
coedge $-1 $708 $707 $758 $759 reversed $620 $-1 #
edge $-1 $717 -61.680349131748407 $760 61.680349131748407 $715 $761 forward 7 unknown #
straight-curve $-1 61.680349131748407 -24.561545305993914 -6.3100977560278277 0 0 -1 I I #
coedge $-1 $751 $758 $710 $741 forward $735 $-1 #
edge $-1 $744 8.3009472719981865 $742 24.220248795993264 $740 $762 forward 7 unknown #
vertex $-1 $711 $763 #
straight-curve $-1 0 -40.480846829988998 -10.864730207808295 1 0 0 I I #
vertex $-1 $741 $764 #
straight-curve $-1 0 -24.561545305993914 -10.864730207808295 -1 0 0 I I #
point $-1 61.680349131748407 -24.561545305993914 -10.864730207808295 #
coedge $-1 $716 $715 $756 $765 forward $705 $-1 #
point $-1 61.680349131748407 -24.561545305993914 -14.375660816303016 #
vertex $-1 $719 $766 #
straight-curve $-1 0 40.480846829988998 -14.375660816303016 1 0 0 I I #
coedge $-1 $721 $740 $725 $754 reversed $735 $-1 #
straight-curve $-1 -61.680349131748407 0 14.375660816303016 0 -1 0 I I #
point $-1 -61.680349131748407 40.480846829988998 14.375660816303016 #
edge $-1 $726 -14.375660816303016 $742 10.864730207808295 $751 $767 forward 7 unknown #
point $-1 -61.680349131748407 -40.480846829988998 14.375660816303016 #
coedge $-1 $758 $729 $747 $765 reversed $735 $-1 #
straight-curve $-1 -61.680349131748407 40.480846829988998 0 0 0 -1 I I #
coedge $-1 $740 $756 $737 $759 forward $735 $-1 #
edge $-1 $760 -8.0655630602751884 $744 -4.5546324517804671 $758 $768 forward 7 unknown #
vertex $-1 $765 $769 #
straight-curve $-1 0 -24.561545305993914 -14.375660816303016 -1 0 0 I I #
straight-curve $-1 -61.680349131748407 -16.260598033995727 -10.864730207808295 0 -1 0 I I #
point $-1 -61.680349131748407 -40.480846829988991 -10.864730207808295 #
point $-1 -61.680349131748407 -24.561545305993914 -10.864730207808295 #
edge $-1 $760 -24.561545305993914 $749 40.480846829988998 $756 $770 forward 7 unknown #
point $-1 -61.680349131748407 40.480846829988998 -14.375660816303016 #
straight-curve $-1 -61.680349131748407 -40.480846829988998 0 0 0 -1 I I #
straight-curve $-1 -61.680349131748407 -24.561545305993914 -6.3100977560278277 0 0 1 I I #
point $-1 -61.680349131748407 -24.561545305993914 -14.375660816303016 #
straight-curve $-1 -61.680349131748407 0 -14.375660816303016 0 1 0 I I #
End-of-ACIS-data 