500 0 7 0           
7 Unknown 11 ACIS 5.0 NT 24 Thu Mar 25 16:10:31 1999 
-1 9.9999999999999995e-007 1e-010 
body $-1 $7 $-1 $8 #
body $-1 $9 $-1 $10 #
body $-1 $11 $-1 $12 #
body $-1 $13 $-1 $14 #
body $-1 $15 $-1 $16 #
body $-1 $17 $-1 $18 #
body $-1 $19 $-1 $20 #
lump $-1 $-1 $21 $0 #
transform $-1 1 0 0 0 1 0 0 0 1 54.911343729972231 34.80561731209098 11.537785431804323 1 rotate no_reflect no_shear #
lump $-1 $-1 $22 $1 #
transform $-1 1 0 0 0 1 0 0 0 1 54.911343729972231 34.80561731209098 11.537785431804323 1 rotate no_reflect no_shear #
lump $-1 $-1 $23 $2 #
transform $-1 1 0 0 0 1 0 0 0 1 54.911343729972231 34.80561731209098 11.537785431804323 1 rotate no_reflect no_shear #
lump $-1 $-1 $24 $3 #
transform $-1 1 0 0 0 1 0 0 0 1 54.911343729972231 34.80561731209098 11.537785431804323 1 rotate no_reflect no_shear #
lump $-1 $-1 $25 $4 #
transform $-1 1 0 0 0 1 0 0 0 1 54.911343729972231 34.80561731209098 11.537785431804323 1 rotate no_reflect no_shear #
lump $-1 $-1 $26 $5 #
transform $-1 1 0 0 0 1 0 0 0 1 54.911343729972231 34.80561731209098 11.537785431804323 1 rotate no_reflect no_shear #
lump $-1 $-1 $27 $6 #
transform $-1 1 0 0 0 1 0 0 0 1 54.911343729972231 34.80561731209098 11.537785431804323 1 rotate no_reflect no_shear #
shell $-1 $-1 $-1 $28 $-1 $7 #
shell $-1 $-1 $-1 $29 $-1 $9 #
shell $-1 $-1 $-1 $30 $-1 $11 #
shell $-1 $-1 $-1 $31 $-1 $13 #
shell $-1 $-1 $-1 $32 $-1 $15 #
shell $-1 $-1 $-1 $33 $-1 $17 #
shell $-1 $-1 $-1 $34 $-1 $19 #
face $-1 $35 $36 $21 $-1 $37 forward single #
face $-1 $38 $39 $22 $-1 $40 reversed single #
face $-1 $41 $42 $23 $-1 $43 reversed single #
face $-1 $44 $45 $24 $-1 $46 forward single #
face $-1 $47 $48 $25 $-1 $49 reversed single #
face $-1 $50 $51 $26 $-1 $52 forward single #
face $-1 $53 $54 $27 $-1 $55 forward single #
face $-1 $56 $57 $21 $-1 $58 reversed single #
loop $-1 $-1 $59 $28 #
plane-surface $-1 0 0 11.537785431804323 0 0 1 1 0 0 forward_v I I I I #
face $-1 $60 $61 $22 $-1 $62 reversed single #
loop $-1 $-1 $63 $29 #
plane-surface $-1 -49.702523224830088 0 5.3146982694015872 0 0 1 1 0 0 forward_v I I I I #
face $-1 $64 $65 $23 $-1 $66 reversed single #
loop $-1 $-1 $67 $30 #
plane-surface $-1 -16.235080890826474 -118.93467767923482 75.084985009468994 -1 0 0 0 -0.7660444514056185 0.64278759981090561 forward_v I I I I #
face $-1 $68 $69 $24 $-1 $70 forward single #
loop $-1 $71 $72 $31 #
cone-surface $-1 -27.662853946753089 -30.530070286798978 6.9077577464494428 0 0.7660444514056185 -0.64278759981090561 2 0 0 1 I I 0 1 2 forward I I I I #
face $-1 $73 $74 $25 $-1 $75 reversed single #
loop $-1 $-1 $76 $32 #
plane-surface $-1 30.097222540533927 65.44942207122682 126.43034440759185 1 0 0 0 -0.71933980857756763 -0.69465836192734942 forward_v I I I I #
face $-1 $77 $78 $26 $-1 $79 forward single #
loop $-1 $80 $81 $33 #
cone-surface $-1 36.126385702070053 27.140621799384505 3.7489593628605311 0 -0.71933980857756763 -0.69465836192734942 3 0 0 1 I I 0 1 3 forward I I I I #
face $-1 $82 $83 $27 $-1 $84 forward single #
loop $-1 $85 $86 $34 #
cone-surface $-1 45.170130444374252 27.140621799384505 3.7489593628605311 0 -0.71933980857756763 -0.69465836192734942 3 0 0 1 I I 0 1 3 forward I I I I #
face $-1 $87 $88 $21 $-1 $89 reversed single #
loop $-1 $-1 $90 $35 #
plane-surface $-1 0 0 -11.537785431804323 0 0 1 1 0 0 forward_v I I I I #
coedge $-1 $91 $92 $93 $94 forward $36 $-1 #
face $-1 $95 $96 $22 $-1 $97 reversed single #
loop $-1 $-1 $98 $38 #
plane-surface $-1 -44.493702719687946 0 8.4262418506029562 -1 0 0 0 0 1 forward_v I I I I #
coedge $-1 $99 $100 $101 $102 forward $39 $-1 #
face $-1 $103 $104 $23 $-1 $105 reversed single #
loop $-1 $-1 $106 $41 #
plane-surface $-1 -27.662853946753089 -34.805617312090973 4.4923233323080467 0 -0.7660444514056185 0.64278759981090561 1 0 0 forward_v I I I I #
coedge $-1 $107 $108 $109 $110 reversed $42 $-1 #
face $-1 $-1 $111 $24 $-1 $112 forward single #
loop $-1 $113 $114 $44 #
cone-surface $-1 -27.662853946753089 -28.444401057292175 5.1576735110317884 0 0.7660444514056185 -0.64278759981090561 1 0 0 1 I I -0.70710678118654746 0.70710678118654746 1 forward I I I I #
loop $-1 $-1 $115 $31 #
coedge $-1 $72 $72 $116 $117 reversed $45 $-1 #
face $-1 $118 $119 $25 $-1 $120 reversed single #
loop $-1 $-1 $121 $47 #
plane-surface $-1 40.648258073222166 -13.55040890368366 50.141096234207566 0 0.71933980857756763 0.69465836192734942 1 0 0 forward_v I I I I #
coedge $-1 $122 $123 $124 $125 reversed $48 $-1 #
face $-1 $-1 $126 $26 $-1 $127 forward single #
loop $-1 $128 $129 $50 #
cone-surface $-1 36.126385702070053 23.935238167974532 0.65355644452768757 0 -0.71933980857756763 -0.69465836192734942 1.5 0 0 1 I I -0.70710678118654768 0.70710678118654757 1.5 forward I I I I #
loop $-1 $-1 $130 $33 #
coedge $-1 $81 $81 $131 $132 reversed $51 $-1 #
face $-1 $-1 $133 $27 $-1 $134 forward single #
loop $-1 $135 $136 $53 #
cone-surface $-1 45.170130444374252 23.935238167974532 0.65355644452768757 0 -0.71933980857756763 -0.69465836192734942 1.5 0 0 1 I I -0.70710678118654768 0.70710678118654757 1.5 forward I I I I #
loop $-1 $-1 $137 $34 #
coedge $-1 $86 $86 $138 $139 reversed $54 $-1 #
face $-1 $140 $141 $21 $-1 $142 reversed single #
loop $-1 $-1 $143 $56 #
plane-surface $-1 0 -34.80561731209098 0 0 1 0 0 0 1 forward_v I I I I #
coedge $-1 $144 $145 $146 $147 forward $57 $-1 #
coedge $-1 $148 $59 $149 $150 forward $36 $-1 #
coedge $-1 $59 $148 $151 $152 forward $36 $-1 #
coedge $-1 $153 $154 $59 $94 reversed $155 $-1 #
edge $-1 $156 -34.80561731209098 $157 34.80561731209098 $93 $158 forward 7 unknown #
face $-1 $159 $160 $22 $-1 $161 reversed single #
loop $-1 $-1 $162 $60 #
plane-surface $-1 0 34.80561731209098 0 0 -1 0 0 0 -1 forward_v I I I I #
coedge $-1 $101 $163 $164 $165 reversed $61 $-1 #
coedge $-1 $166 $63 $167 $168 reversed $39 $-1 #
coedge $-1 $63 $166 $169 $170 reversed $39 $-1 #
coedge $-1 $171 $98 $63 $102 reversed $61 $-1 #
edge $-1 $172 -34.80561731209098 $173 34.80561731209098 $101 $174 forward 7 unknown #
face $-1 $175 $176 $23 $-1 $177 reversed single #
loop $-1 $-1 $178 $64 #
plane-surface $-1 -39.090627002679703 -118.93467767923482 75.084985009468994 1 0 0 0 0.7660444514056185 -0.64278759981090561 forward_v I I I I #
coedge $-1 $179 $180 $181 $182 reversed $65 $-1 #
coedge $-1 $108 $67 $183 $184 reversed $42 $-1 #
coedge $-1 $67 $107 $179 $185 reversed $42 $-1 #
coedge $-1 $181 $186 $67 $110 forward $187 $-1 #
edge $-1 $188 24.661721527526431 $189 30.573566021908086 $109 $190 forward 7 unknown #
loop $-1 $-1 $116 $68 #
plane-surface $-1 -27.662853946753089 -34.805617312090973 4.4923233323080467 0 -0.7660444514056185 0.64278759981090561 1 0 0 forward_v I I I I #
loop $-1 $-1 $191 $44 #
coedge $-1 $114 $114 $115 $192 reversed $69 $-1 #
coedge $-1 $115 $115 $114 $192 forward $71 $-1 #
coedge $-1 $116 $116 $72 $117 forward $111 $-1 #
edge $-1 $193 -4.8497569520614378e-016 $193 6.2831853071795996 $116 $194 forward 7 unknown #
face $-1 $195 $196 $25 $-1 $197 forward single #
loop $-1 $-1 $198 $73 #
plane-surface $-1 51.199293605910405 65.44942207122682 126.43034440759185 -1 0 0 0 0.71933980857756763 0.69465836192734942 forward_v I I I I #
coedge $-1 $199 $200 $201 $202 reversed $74 $-1 #
coedge $-1 $123 $76 $203 $204 reversed $48 $-1 #
coedge $-1 $76 $122 $199 $205 reversed $48 $-1 #
coedge $-1 $201 $206 $76 $125 forward $196 $-1 #
edge $-1 $207 -2.0809062764775703 $208 8.9963369118481396 $124 $209 forward 7 unknown #
loop $-1 $-1 $131 $77 #
plane-surface $-1 40.648258073222166 -13.55040890368366 50.141096234207566 0 0.71933980857756763 0.69465836192734942 1 0 0 forward_v I I I I #
loop $-1 $-1 $210 $50 #
coedge $-1 $129 $129 $130 $211 reversed $78 $-1 #
coedge $-1 $130 $130 $129 $211 forward $80 $-1 #
coedge $-1 $131 $131 $81 $132 forward $126 $-1 #
edge $-1 $212 5.5121598128299967e-016 $212 6.2831853071796013 $131 $213 forward 7 unknown #
loop $-1 $-1 $138 $82 #
plane-surface $-1 40.648258073222166 -13.55040890368366 50.141096234207566 0 0.71933980857756763 0.69465836192734942 1 0 0 forward_v I I I I #
loop $-1 $-1 $214 $53 #
coedge $-1 $136 $136 $137 $215 reversed $83 $-1 #
coedge $-1 $137 $137 $136 $215 forward $85 $-1 #
coedge $-1 $138 $138 $86 $139 forward $133 $-1 #
edge $-1 $216 5.5121598128299967e-016 $216 6.2831853071796013 $138 $217 forward 7 unknown #
face $-1 $218 $219 $21 $-1 $220 reversed single #
loop $-1 $-1 $221 $87 #
plane-surface $-1 -54.911343729972231 0 0 1 0 0 0 0 -1 forward_v I I I I #
coedge $-1 $222 $151 $223 $224 forward $88 $-1 #
coedge $-1 $225 $90 $222 $226 forward $57 $-1 #
coedge $-1 $90 $225 $227 $228 forward $57 $-1 #
coedge $-1 $154 $153 $90 $147 reversed $155 $-1 #
edge $-1 $229 -34.80561731209098 $230 34.80561731209098 $146 $231 forward 7 unknown #
coedge $-1 $92 $91 $232 $233 forward $36 $-1 #
coedge $-1 $234 $235 $91 $150 reversed $219 $-1 #
edge $-1 $157 -54.911343729972231 $236 54.911343729972231 $149 $237 forward 7 unknown #
coedge $-1 $143 $238 $92 $152 reversed $88 $-1 #
edge $-1 $239 -54.911343729972231 $156 54.911343729972231 $151 $240 forward 7 unknown #
coedge $-1 $146 $93 $238 $241 forward $155 $-1 #
coedge $-1 $93 $146 $234 $242 reversed $155 $-1 #
loop $-1 $-1 $153 $218 #
vertex $-1 $94 $243 #
vertex $-1 $94 $244 #
straight-curve $-1 54.911343729972231 0 11.537785431804323 0 1 0 I I #
face $-1 $245 $246 $22 $-1 $247 forward single #
loop $-1 $-1 $248 $95 #
plane-surface $-1 -54.911343729972231 0 0 1 0 0 0 0 -1 forward_v I I I I #
coedge $-1 $169 $249 $171 $250 forward $96 $-1 #
coedge $-1 $98 $171 $251 $252 reversed $61 $-1 #
coedge $-1 $253 $167 $98 $165 forward $254 $-1 #
edge $-1 $173 1.1015773441001091 $255 7.3246645065028471 $164 $256 forward 7 unknown #
coedge $-1 $100 $99 $248 $257 reversed $39 $-1 #
coedge $-1 $164 $258 $99 $168 forward $254 $-1 #
edge $-1 $259 -30.060082117557187 $173 -19.642441107272901 $167 $260 forward 7 unknown #
coedge $-1 $261 $162 $100 $170 forward $96 $-1 #
edge $-1 $172 19.642441107272901 $262 30.060082117557187 $169 $263 forward 7 unknown #
coedge $-1 $163 $101 $162 $250 reversed $61 $-1 #
vertex $-1 $170 $264 #
vertex $-1 $168 $265 #
straight-curve $-1 -44.493702719687946 0 5.3146982694015872 0 -1 0 I I #
face $-1 $-1 $187 $23 $-1 $266 forward single #
loop $-1 $-1 $267 $103 #
plane-surface $-1 0 -34.80561731209098 0 0 1 0 0 0 1 forward_v I I I I #
coedge $-1 $268 $269 $270 $271 reversed $104 $-1 #
coedge $-1 $272 $106 $108 $185 forward $65 $-1 #
coedge $-1 $106 $272 $268 $273 forward $65 $-1 #
coedge $-1 $270 $109 $106 $182 forward $187 $-1 #
edge $-1 $189 2.4036539174499296 $274 25.259200029303159 $181 $275 forward 7 unknown #
coedge $-1 $276 $277 $107 $184 forward $176 $-1 #
edge $-1 $278 -33.050169172426457 $188 -26.004707072930174 $183 $279 forward 7 unknown #
edge $-1 $189 -9.1971974819066009 $278 1.1371122099518014e-014 $108 $280 forward 7 unknown #
coedge $-1 $109 $270 $276 $281 forward $187 $-1 #
loop $-1 $-1 $270 $175 #
vertex $-1 $184 $282 #
vertex $-1 $110 $283 #
straight-curve $-1 -16.235080890826474 -59.467338839617412 11.537785431804323 0 1 0 I I #
coedge $-1 $191 $191 $-1 $284 reversed $113 $-1 #
edge $-1 $285 0 $285 6.2831853071796004 $114 $286 forward 7 unknown #
vertex $-1 $117 $287 #
ellipse-curve $-1 -27.662853946753089 -31.84969506490015 8.0150543820561833 0 -0.7660444514056185 0.64278759981090561 2 0 0 1 I I #
face $-1 $-1 $288 $25 $-1 $289 reversed single #
loop $-1 $-1 $124 $118 #
plane-surface $-1 0 0 11.537785431804323 0 0 1 1 0 0 forward_v I I I I #
coedge $-1 $290 $291 $292 $293 reversed $119 $-1 #
coedge $-1 $294 $121 $123 $205 forward $74 $-1 #
coedge $-1 $121 $294 $290 $295 forward $74 $-1 #
coedge $-1 $292 $124 $121 $202 forward $196 $-1 #
edge $-1 $208 9.7730935039228441 $296 30.875164569299322 $201 $297 forward 7 unknown #
coedge $-1 $298 $299 $122 $204 forward $288 $-1 #
edge $-1 $300 -63.148208158995565 $207 -51.6773867719916 $203 $301 forward 7 unknown #
edge $-1 $208 53.664916555553845 $300 69.611234624181975 $123 $302 forward 7 unknown #
coedge $-1 $124 $292 $298 $303 forward $196 $-1 #
vertex $-1 $204 $304 #
vertex $-1 $125 $305 #
straight-curve $-1 30.097222540533927 32.72471103561341 11.537785431804323 0 -1 0 I I #
coedge $-1 $210 $210 $-1 $306 reversed $128 $-1 #
edge $-1 $307 0 $307 6.2831853071796004 $129 $308 forward 7 unknown #
vertex $-1 $132 $309 #
ellipse-curve $-1 36.126385702070053 29.266995717928118 5.8023747383023423 0 0.71933980857756763 0.69465836192734942 3 0 0 1 I I #
coedge $-1 $214 $214 $-1 $310 reversed $135 $-1 #
edge $-1 $311 0 $311 6.2831853071796004 $136 $312 forward 7 unknown #
vertex $-1 $139 $313 #
ellipse-curve $-1 45.170130444374252 29.266995717928118 5.8023747383023423 0 0.71933980857756763 0.69465836192734942 3 0 0 1 I I #
face $-1 $-1 $155 $21 $-1 $314 reversed single #
loop $-1 $-1 $234 $140 #
plane-surface $-1 0 34.80561731209098 0 0 -1 0 0 0 -1 forward_v I I I I #
coedge $-1 $315 $232 $235 $316 forward $141 $-1 #
coedge $-1 $238 $143 $144 $226 reversed $88 $-1 #
coedge $-1 $232 $315 $143 $224 reversed $141 $-1 #
edge $-1 $239 -11.537785431804323 $317 11.537785431804323 $223 $318 forward 7 unknown #
coedge $-1 $145 $144 $315 $319 forward $57 $-1 #
edge $-1 $230 -54.911343729972231 $317 54.911343729972231 $222 $320 forward 7 unknown #
coedge $-1 $235 $234 $145 $228 reversed $219 $-1 #
edge $-1 $321 -54.911343729972231 $229 54.911343729972231 $227 $322 forward 7 unknown #
vertex $-1 $147 $323 #
vertex $-1 $241 $324 #
straight-curve $-1 54.911343729972231 0 -11.537785431804323 0 -1 0 I I #
coedge $-1 $221 $223 $148 $233 reversed $141 $-1 #
edge $-1 $236 -34.80561731209098 $239 34.80561731209098 $232 $325 forward 7 unknown #
coedge $-1 $227 $149 $154 $242 forward $219 $-1 #
coedge $-1 $149 $227 $221 $316 reversed $219 $-1 #
vertex $-1 $150 $326 #
straight-curve $-1 0 34.80561731209098 11.537785431804323 -1 0 0 I I #
coedge $-1 $151 $222 $153 $241 reversed $88 $-1 #
vertex $-1 $233 $327 #
straight-curve $-1 0 -34.80561731209098 11.537785431804323 1 0 0 I I #
edge $-1 $156 -11.537785431804323 $230 11.537785431804323 $153 $328 forward 7 unknown #
edge $-1 $157 -11.537785431804323 $229 11.537785431804323 $154 $329 forward 7 unknown #
point $-1 54.911343729972231 -34.80561731209098 11.537785431804323 #
point $-1 54.911343729972231 34.80561731209098 11.537785431804323 #
face $-1 $-1 $254 $22 $-1 $330 reversed single #
loop $-1 $-1 $251 $159 #
plane-surface $-1 0 0 11.537785431804323 0 0 1 1 0 0 forward_v I I I I #
coedge $-1 $331 $332 $166 $257 forward $160 $-1 #
coedge $-1 $162 $261 $333 $334 reversed $96 $-1 #
edge $-1 $335 -7.3246645065028471 $172 -1.1015773441001091 $162 $336 forward 7 unknown #
coedge $-1 $333 $337 $163 $252 forward $246 $-1 #
edge $-1 $255 -34.80561731209098 $335 34.80561731209098 $251 $338 forward 7 unknown #
coedge $-1 $258 $164 $337 $339 reversed $254 $-1 #
loop $-1 $-1 $164 $245 #
vertex $-1 $165 $340 #
straight-curve $-1 -44.493702719687946 -34.80561731209098 4.2131209253014781 0 0 1 I I #
edge $-1 $262 -34.80561731209098 $259 34.80561731209098 $248 $341 forward 7 unknown #
coedge $-1 $167 $253 $331 $342 forward $254 $-1 #
vertex $-1 $257 $343 #
straight-curve $-1 -24.851261612415044 -34.80561731209098 5.3146982694015872 1 0 0 I I #
coedge $-1 $249 $169 $332 $344 reversed $96 $-1 #
vertex $-1 $257 $345 #
straight-curve $-1 -24.851261612415044 34.80561731209098 5.3146982694015872 -1 0 0 I I #
point $-1 -44.493702719687946 34.80561731209098 5.3146982694015872 #
point $-1 -44.493702719687946 -34.80561731209098 5.3146982694015872 #
plane-surface $-1 0 0 11.537785431804323 0 0 1 1 0 0 forward_v I I I I #
coedge $-1 $277 $276 $269 $346 forward $176 $-1 #
coedge $-1 $269 $178 $180 $273 reversed $104 $-1 #
coedge $-1 $178 $268 $267 $346 reversed $104 $-1 #
coedge $-1 $186 $181 $178 $271 forward $187 $-1 #
edge $-1 $274 -30.573566021908086 $347 -24.661721527526431 $270 $348 forward 7 unknown #
coedge $-1 $180 $179 $277 $349 reversed $65 $-1 #
edge $-1 $350 -1.1371122099518014e-014 $274 9.1971974819066009 $268 $351 forward 7 unknown #
vertex $-1 $182 $352 #
straight-curve $-1 -13.831426973376544 -28.893772817709326 11.537785431804323 -1 0 0 I I #
coedge $-1 $267 $183 $186 $281 reversed $176 $-1 #
coedge $-1 $183 $267 $272 $349 forward $176 $-1 #
vertex $-1 $184 $353 #
straight-curve $-1 -16.235080890826474 -34.80561731209098 37.542492504734497 0 0 1 I I #
straight-curve $-1 -16.235080890826474 -34.805617312090973 4.4923233323080467 0 -0.64278759981090561 -0.7660444514056185 I I #
edge $-1 $347 -39.090627002679703 $188 -16.235080890826474 $276 $354 forward 7 unknown #
point $-1 -16.235080890826474 -34.80561731209098 11.537785431804323 #
point $-1 -16.235080890826474 -28.893772817709326 11.537785431804323 #
edge $-1 $355 1 $355 0 $191 $-1 forward 7 unknown #
vertex $-1 $192 $356 #
ellipse-curve $-1 -27.662853946753089 -29.210445508697795 5.8004611108426936 0 -0.7660444514056185 0.64278759981090561 2 0 0 1 I I #
point $-1 -25.662853946753089 -31.849695064900164 8.0150543820561939 #
loop $-1 $-1 $203 $195 #
plane-surface $-1 0 34.80561731209098 0 0 -1 0 0 0 -1 forward_v I I I I #
coedge $-1 $291 $198 $200 $295 reversed $119 $-1 #
coedge $-1 $198 $290 $357 $358 reversed $119 $-1 #
coedge $-1 $206 $201 $198 $293 forward $196 $-1 #
edge $-1 $296 -8.9963369118481396 $359 2.0809062764775703 $292 $360 forward 7 unknown #
coedge $-1 $200 $199 $299 $361 reversed $74 $-1 #
edge $-1 $362 -69.611234624181975 $296 -53.664916555553845 $290 $363 forward 7 unknown #
vertex $-1 $202 $364 #
straight-curve $-1 20.324129036611083 23.72837412376526 11.537785431804327 1 0 0 I I #
coedge $-1 $357 $203 $206 $303 reversed $288 $-1 #
coedge $-1 $203 $357 $294 $361 forward $288 $-1 #
vertex $-1 $204 $365 #
straight-curve $-1 30.097222540533927 34.80561731209098 63.215172203795923 0 0 1 I I #
straight-curve $-1 30.097222540533927 -13.55040890368366 50.141096234207566 0 0.69465836192734942 -0.71933980857756763 I I #
edge $-1 $359 -51.199293605910405 $207 -30.097222540533927 $298 $366 forward 7 unknown #
point $-1 30.097222540533927 34.80561731209098 11.537785431804323 #
point $-1 30.097222540533927 23.728374123765271 11.537785431804323 #
edge $-1 $367 1 $367 0 $210 $-1 forward 7 unknown #
vertex $-1 $211 $368 #
ellipse-curve $-1 36.126385702070053 25.014247880840884 1.6955439874187115 0 0.71933980857756763 0.69465836192734942 3 0 0 1 I I #
point $-1 39.126385702070053 29.266995717928129 5.8023747383023503 #
edge $-1 $369 1 $369 0 $214 $-1 forward 7 unknown #
vertex $-1 $215 $370 #
ellipse-curve $-1 45.170130444374252 25.014247880840884 1.6955439874187115 0 0.71933980857756763 0.69465836192734942 3 0 0 1 I I #
point $-1 48.170130444374252 29.266995717928129 5.8023747383023503 #
plane-surface $-1 54.911343729972231 0 0 -1 0 0 0 0 1 forward_v I I I I #
coedge $-1 $223 $221 $225 $319 reversed $141 $-1 #
edge $-1 $236 -11.537785431804323 $321 11.537785431804323 $235 $371 forward 7 unknown #
vertex $-1 $319 $372 #
straight-curve $-1 -54.911343729972231 -34.80561731209098 0 0 0 -1 I I #
edge $-1 $317 -34.80561731209098 $321 34.80561731209098 $315 $373 forward 7 unknown #
straight-curve $-1 0 -34.80561731209098 -11.537785431804323 -1 0 0 I I #
vertex $-1 $228 $374 #
straight-curve $-1 0 34.80561731209098 -11.537785431804323 1 0 0 I I #
point $-1 54.911343729972231 34.80561731209098 -11.537785431804323 #
point $-1 54.911343729972231 -34.80561731209098 -11.537785431804323 #
straight-curve $-1 -54.911343729972231 0 11.537785431804323 0 -1 0 I I #
point $-1 -54.911343729972231 34.80561731209098 11.537785431804323 #
point $-1 -54.911343729972231 -34.80561731209098 11.537785431804323 #
straight-curve $-1 54.911343729972231 -34.80561731209098 0 0 0 -1 I I #
straight-curve $-1 54.911343729972231 34.80561731209098 0 0 0 -1 I I #
plane-surface $-1 0 -34.80561731209098 0 0 1 0 0 0 1 forward_v I I I I #
coedge $-1 $375 $248 $258 $342 reversed $160 $-1 #
coedge $-1 $248 $375 $261 $344 forward $160 $-1 #
coedge $-1 $376 $251 $249 $334 forward $246 $-1 #
edge $-1 $335 44.493702719687946 $377 54.911343729972231 $249 $378 forward 7 unknown #
vertex $-1 $334 $379 #
straight-curve $-1 -44.493702719687946 34.80561731209098 4.2131209253014781 0 0 -1 I I #
coedge $-1 $251 $376 $253 $339 forward $246 $-1 #
straight-curve $-1 -44.493702719687946 0 11.537785431804323 0 1 0 I I #
edge $-1 $380 -54.911343729972231 $255 -44.493702719687946 $253 $381 forward 7 unknown #
point $-1 -44.493702719687946 -34.80561731209098 11.537785431804325 #
straight-curve $-1 -54.911343729972231 0 5.3146982694015872 0 -1 0 I I #
edge $-1 $380 -11.537785431804323 $259 -5.3146982694015872 $331 $382 forward 7 unknown #
point $-1 -54.911343729972231 -34.80561731209098 5.3146982694015872 #
edge $-1 $377 -11.537785431804323 $262 -5.3146982694015872 $261 $383 forward 7 unknown #
point $-1 -54.911343729972231 34.80561731209098 5.3146982694015872 #
edge $-1 $347 26.004707072930174 $350 33.050169172426457 $267 $384 forward 7 unknown #
vertex $-1 $281 $385 #
straight-curve $-1 -39.090627002679703 -59.467338839617412 11.537785431804323 0 -1 0 I I #
edge $-1 $350 -25.259200029303159 $278 -2.4036539174499296 $277 $386 forward 7 unknown #
vertex $-1 $349 $387 #
straight-curve $-1 -39.090627002679703 -34.805617312090973 4.4923233323080467 0 0.64278759981090561 0.7660444514056185 I I #
point $-1 -39.090627002679703 -28.893772817709326 11.537785431804323 #
point $-1 -16.235080890826474 -34.80561731209098 4.4923233323080378 #
straight-curve $-1 0 -34.80561731209098 11.537785431804323 1 0 0 I I #
vertex $-1 $284 $388 #
point $-1 -25.662853946753089 -29.210445508697795 5.8004611108426936 #
coedge $-1 $299 $298 $291 $358 forward $288 $-1 #
edge $-1 $359 51.6773867719916 $362 63.148208158995565 $357 $389 forward 7 unknown #
vertex $-1 $303 $390 #
straight-curve $-1 51.199293605910405 32.72471103561341 11.537785431804323 0 1 0 I I #
edge $-1 $362 -30.875164569299322 $300 -9.7730935039228441 $299 $391 forward 7 unknown #
vertex $-1 $361 $392 #
straight-curve $-1 51.199293605910405 -13.55040890368366 50.141096234207566 0 -0.69465836192734942 0.71933980857756763 I I #
point $-1 51.199293605910405 23.728374123765271 11.537785431804323 #
point $-1 30.097222540533927 34.80561731209098 0.066964044800357669 #
straight-curve $-1 0 34.80561731209098 11.537785431804323 -1 0 0 I I #
vertex $-1 $306 $393 #
point $-1 39.126385702070053 25.014247880840884 1.6955439874187115 #
vertex $-1 $310 $394 #
point $-1 48.170130444374252 25.014247880840884 1.6955439874187115 #
straight-curve $-1 -54.911343729972231 34.80561731209098 0 0 0 -1 I I #
point $-1 -54.911343729972231 -34.80561731209098 -11.537785431804323 #
straight-curve $-1 -54.911343729972231 0 -11.537785431804323 0 1 0 I I #
point $-1 -54.911343729972231 34.80561731209098 -11.537785431804323 #
coedge $-1 $332 $331 $376 $395 reversed $160 $-1 #
coedge $-1 $337 $333 $375 $395 forward $246 $-1 #
vertex $-1 $334 $396 #
straight-curve $-1 0 34.80561731209098 11.537785431804323 -1 0 0 I I #
point $-1 -44.493702719687946 34.80561731209098 11.537785431804325 #
vertex $-1 $395 $397 #
straight-curve $-1 0 -34.80561731209098 11.537785431804323 1 0 0 I I #
straight-curve $-1 -54.911343729972231 -34.80561731209098 0 0 0 -1 I I #
straight-curve $-1 -54.911343729972231 34.80561731209098 0 0 0 -1 I I #
straight-curve $-1 -39.090627002679703 -34.80561731209098 37.542492504734497 0 0 -1 I I #
point $-1 -39.090627002679703 -34.80561731209098 11.537785431804323 #
straight-curve $-1 -13.831426973376544 -34.80561731209098 4.4923233323080343 1 0 0 I I #
point $-1 -39.090627002679703 -34.80561731209098 4.4923233323080378 #
point $-1 -27.662853946753089 -27.678356605886556 4.5148859112208832 #
straight-curve $-1 51.199293605910405 34.80561731209098 63.215172203795923 0 0 -1 I I #
point $-1 51.199293605910405 34.80561731209098 11.537785431804323 #
straight-curve $-1 20.324129036611083 34.80561731209098 0.066964044800354117 -1 0 0 I I #
point $-1 51.199293605910405 34.80561731209098 0.066964044800357669 #
point $-1 36.126385702070053 22.85622845510818 -0.38843109836333634 #
point $-1 45.170130444374252 22.85622845510818 -0.38843109836333634 #
edge $-1 $377 -34.80561731209098 $380 34.80561731209098 $375 $398 forward 7 unknown #
point $-1 -54.911343729972231 34.80561731209098 11.537785431804323 #
point $-1 -54.911343729972231 -34.80561731209098 11.537785431804323 #
straight-curve $-1 -54.911343729972231 0 11.537785431804323 0 -1 0 I I #
End-of-ACIS-data 