500 0 19 0           
7 Unknown 11 ACIS 5.0 NT 24 Thu Mar 25 16:02:32 1999 
-1 9.9999999999999995e-007 1e-010 
body $-1 $19 $-1 $20 #
body $-1 $21 $-1 $22 #
body $-1 $23 $-1 $24 #
body $-1 $25 $-1 $26 #
body $-1 $27 $-1 $28 #
body $-1 $29 $-1 $30 #
body $-1 $31 $-1 $32 #
body $-1 $33 $-1 $34 #
body $-1 $35 $-1 $36 #
body $-1 $37 $-1 $38 #
body $-1 $39 $-1 $40 #
body $-1 $41 $-1 $42 #
body $-1 $43 $-1 $44 #
body $-1 $45 $-1 $46 #
body $-1 $47 $-1 $48 #
body $-1 $49 $-1 $50 #
body $-1 $51 $-1 $52 #
body $-1 $53 $-1 $54 #
body $-1 $55 $-1 $56 #
lump $-1 $-1 $57 $0 #
transform $-1 1 0 0 0 1 0 0 0 1 70.649128696554456 37.370277819369818 15.345114018123081 1 rotate no_reflect no_shear #
lump $-1 $-1 $58 $1 #
transform $-1 1 0 0 0 1 0 0 0 1 70.649128696554456 37.370277819369818 15.345114018123081 1 rotate no_reflect no_shear #
lump $-1 $-1 $59 $2 #
transform $-1 1 0 0 0 1 0 0 0 1 70.649128696554456 37.370277819369818 15.345114018123081 1 rotate no_reflect no_shear #
lump $-1 $-1 $60 $3 #
transform $-1 1 0 0 0 1 0 0 0 1 70.649128696554456 37.370277819369818 15.345114018123081 1 rotate no_reflect no_shear #
lump $-1 $-1 $61 $4 #
transform $-1 1 0 0 0 1 0 0 0 1 70.649128696554456 37.370277819369818 15.345114018123081 1 rotate no_reflect no_shear #
lump $-1 $-1 $62 $5 #
transform $-1 1 0 0 0 1 0 0 0 1 70.649128696554456 37.370277819369818 15.345114018123081 1 rotate no_reflect no_shear #
lump $-1 $-1 $63 $6 #
transform $-1 1 0 0 0 1 0 0 0 1 70.649128696554456 37.370277819369818 15.345114018123081 1 rotate no_reflect no_shear #
lump $-1 $-1 $64 $7 #
transform $-1 1 0 0 0 1 0 0 0 1 70.649128696554456 37.370277819369818 15.345114018123081 1 rotate no_reflect no_shear #
lump $-1 $-1 $65 $8 #
transform $-1 1 0 0 0 1 0 0 0 1 70.649128696554456 37.370277819369818 15.345114018123081 1 rotate no_reflect no_shear #
lump $-1 $-1 $66 $9 #
transform $-1 1 0 0 0 1 0 0 0 1 70.649128696554456 37.370277819369818 15.345114018123081 1 rotate no_reflect no_shear #
lump $-1 $-1 $67 $10 #
transform $-1 1 0 0 0 1 0 0 0 1 70.649128696554456 37.370277819369818 15.345114018123081 1 rotate no_reflect no_shear #
lump $-1 $-1 $68 $11 #
transform $-1 1 0 0 0 1 0 0 0 1 70.649128696554456 37.370277819369818 15.345114018123081 1 rotate no_reflect no_shear #
lump $-1 $-1 $69 $12 #
transform $-1 1 0 0 0 1 0 0 0 1 70.649128696554456 37.370277819369818 15.345114018123081 1 rotate no_reflect no_shear #
lump $-1 $-1 $70 $13 #
transform $-1 1 0 0 0 1 0 0 0 1 70.649128696554456 37.370277819369818 15.345114018123081 1 rotate no_reflect no_shear #
lump $-1 $-1 $71 $14 #
transform $-1 1 0 0 0 1 0 0 0 1 70.649128696554456 37.370277819369818 15.345114018123081 1 rotate no_reflect no_shear #
lump $-1 $-1 $72 $15 #
transform $-1 1 0 0 0 1 0 0 0 1 70.649128696554456 37.370277819369818 15.345114018123081 1 rotate no_reflect no_shear #
lump $-1 $-1 $73 $16 #
transform $-1 1 0 0 0 1 0 0 0 1 70.649128696554456 37.370277819369818 15.345114018123081 1 rotate no_reflect no_shear #
lump $-1 $-1 $74 $17 #
transform $-1 1 0 0 0 1 0 0 0 1 70.649128696554456 37.370277819369818 15.345114018123081 1 rotate no_reflect no_shear #
lump $-1 $-1 $75 $18 #
transform $-1 1 0 0 0 1 0 0 0 1 70.649128696554456 37.370277819369818 15.345114018123081 1 rotate no_reflect no_shear #
shell $-1 $-1 $-1 $76 $-1 $19 #
shell $-1 $-1 $-1 $77 $-1 $21 #
shell $-1 $-1 $-1 $78 $-1 $23 #
shell $-1 $-1 $-1 $79 $-1 $25 #
shell $-1 $-1 $-1 $80 $-1 $27 #
shell $-1 $-1 $-1 $81 $-1 $29 #
shell $-1 $-1 $-1 $82 $-1 $31 #
shell $-1 $-1 $-1 $83 $-1 $33 #
shell $-1 $-1 $-1 $84 $-1 $35 #
shell $-1 $-1 $-1 $85 $-1 $37 #
shell $-1 $-1 $-1 $86 $-1 $39 #
shell $-1 $-1 $-1 $87 $-1 $41 #
shell $-1 $-1 $-1 $88 $-1 $43 #
shell $-1 $-1 $-1 $89 $-1 $45 #
shell $-1 $-1 $-1 $90 $-1 $47 #
shell $-1 $-1 $-1 $91 $-1 $49 #
shell $-1 $-1 $-1 $92 $-1 $51 #
shell $-1 $-1 $-1 $93 $-1 $53 #
shell $-1 $-1 $-1 $94 $-1 $55 #
face $-1 $95 $96 $57 $-1 $97 forward single #
face $-1 $98 $99 $58 $-1 $100 reversed single #
face $-1 $101 $102 $59 $-1 $103 reversed single #
face $-1 $104 $105 $60 $-1 $106 reversed single #
face $-1 $107 $108 $61 $-1 $109 forward single #
face $-1 $110 $111 $62 $-1 $112 forward single #
face $-1 $113 $114 $63 $-1 $115 forward single #
face $-1 $116 $117 $64 $-1 $118 reversed single #
face $-1 $119 $120 $65 $-1 $121 forward single #
face $-1 $122 $123 $66 $-1 $124 forward single #
face $-1 $125 $126 $67 $-1 $127 forward single #
face $-1 $128 $129 $68 $-1 $130 reversed single #
face $-1 $131 $132 $69 $-1 $133 forward single #
face $-1 $134 $135 $70 $-1 $136 forward single #
face $-1 $137 $138 $71 $-1 $139 forward single #
face $-1 $140 $141 $72 $-1 $142 reversed single #
face $-1 $143 $144 $73 $-1 $145 forward single #
face $-1 $146 $147 $74 $-1 $148 forward single #
face $-1 $149 $150 $75 $-1 $151 forward single #
face $-1 $152 $153 $57 $-1 $154 reversed single #
loop $-1 $-1 $155 $76 #
plane-surface $-1 0 0 15.345114018123081 0 0 1 1 0 0 forward_v I I I I #
face $-1 $156 $157 $58 $-1 $158 reversed single #
loop $-1 $-1 $159 $77 #
plane-surface $-1 -54.501458651121354 -32.149066129445345 0 1 0 0 0 0 -1 forward_v I I I I #
face $-1 $160 $161 $59 $-1 $162 reversed single #
loop $-1 $-1 $163 $78 #
plane-surface $-1 -52.714247169223007 26.927854439520871 0 0 1 0 0 0 1 forward_v I I I I #
face $-1 $164 $165 $60 $-1 $166 reversed single #
loop $-1 $-1 $167 $79 #
plane-surface $-1 32.520548907687257 -20.411116278500735 204.95892287982375 0 -1 0 -0.55919291073839883 0 -0.82903756765294845 forward_v I I I I #
face $-1 $168 $169 $61 $-1 $170 forward single #
loop $-1 $171 $172 $80 #
cone-surface $-1 65.457658188193463 -25.624506807316848 11.566302333461014 -0.55919291073839883 0 -0.82903756765294845 0.41451878382647422 0 -0.27959645536919941 1 I I 0 1 0.5 forward I I I I #
face $-1 $173 $174 $62 $-1 $175 forward single #
loop $-1 $176 $177 $81 #
cone-surface $-1 65.457658188193463 -23.669485359010807 11.566302333461014 -0.55919291073839883 0 -0.82903756765294845 0.41451878382647422 0 -0.27959645536919941 1 I I 0 1 0.5 forward I I I I #
face $-1 $178 $179 $63 $-1 $180 forward single #
loop $-1 $181 $182 $82 #
cone-surface $-1 65.457658188193463 -21.714463910704765 11.566302333461014 -0.55919291073839883 0 -0.82903756765294845 0.41451878382647422 0 -0.27959645536919941 1 I I 0 1 0.5 forward I I I I #
face $-1 $183 $184 $64 $-1 $185 reversed single #
loop $-1 $-1 $186 $83 #
plane-surface $-1 32.520548907687257 -6.9471890587403005 204.95892287982375 0 -1 0 -0.55919291073839883 0 -0.82903756765294845 forward_v I I I I #
face $-1 $187 $188 $65 $-1 $189 forward single #
loop $-1 $190 $191 $84 #
cone-surface $-1 65.457658188193463 -12.160579587556413 11.566302333461014 -0.55919291073839883 0 -0.82903756765294845 0.41451878382647422 0 -0.27959645536919941 1 I I 0 1 0.5 forward I I I I #
face $-1 $192 $193 $66 $-1 $194 forward single #
loop $-1 $195 $196 $85 #
cone-surface $-1 65.457658188193463 -10.205558139250371 11.566302333461014 -0.55919291073839883 0 -0.82903756765294845 0.41451878382647422 0 -0.27959645536919941 1 I I 0 1 0.5 forward I I I I #
face $-1 $197 $198 $67 $-1 $199 forward single #
loop $-1 $200 $201 $86 #
cone-surface $-1 65.457658188193463 -8.2505366909443296 11.566302333461014 -0.55919291073839883 0 -0.82903756765294845 0.41451878382647422 0 -0.27959645536919941 1 I I 0 1 0.5 forward I I I I #
face $-1 $202 $203 $68 $-1 $204 reversed single #
loop $-1 $-1 $205 $87 #
plane-surface $-1 32.520548907687257 6.5167381610201351 204.95892287982375 0 -1 0 -0.55919291073839883 0 -0.82903756765294845 forward_v I I I I #
face $-1 $206 $207 $69 $-1 $208 forward single #
loop $-1 $209 $210 $88 #
cone-surface $-1 65.457658188193463 1.3033476322040229 11.566302333461014 -0.55919291073839883 0 -0.82903756765294845 0.41451878382647422 0 -0.27959645536919941 1 I I 0 1 0.5 forward I I I I #
face $-1 $211 $212 $70 $-1 $213 forward single #
loop $-1 $214 $215 $89 #
cone-surface $-1 65.457658188193463 3.2583690805100645 11.566302333461014 -0.55919291073839883 0 -0.82903756765294845 0.41451878382647422 0 -0.27959645536919941 1 I I 0 1 0.5 forward I I I I #
face $-1 $216 $217 $71 $-1 $218 forward single #
loop $-1 $219 $220 $90 #
cone-surface $-1 65.457658188193463 5.213390528816106 11.566302333461014 -0.55919291073839883 0 -0.82903756765294845 0.41451878382647422 0 -0.27959645536919941 1 I I 0 1 0.5 forward I I I I #
face $-1 $221 $222 $72 $-1 $223 reversed single #
loop $-1 $-1 $224 $91 #
plane-surface $-1 32.520548907687257 19.980665380780572 204.95892287982375 0 -1 0 -0.55919291073839883 0 -0.82903756765294845 forward_v I I I I #
face $-1 $225 $226 $73 $-1 $227 forward single #
loop $-1 $228 $229 $92 #
cone-surface $-1 65.457658188193463 14.767274851964459 11.566302333461014 -0.55919291073839883 0 -0.82903756765294845 0.41451878382647422 0 -0.27959645536919941 1 I I 0 1 0.5 forward I I I I #
face $-1 $230 $231 $74 $-1 $232 forward single #
loop $-1 $233 $234 $93 #
cone-surface $-1 65.457658188193463 16.7222963002705 11.566302333461014 -0.55919291073839883 0 -0.82903756765294845 0.41451878382647422 0 -0.27959645536919941 1 I I 0 1 0.5 forward I I I I #
face $-1 $235 $236 $75 $-1 $237 forward single #
loop $-1 $238 $239 $94 #
cone-surface $-1 65.457658188193463 18.677317748576542 11.566302333461014 -0.55919291073839883 0 -0.82903756765294845 0.41451878382647422 0 -0.27959645536919941 1 I I 0 1 0.5 forward I I I I #
face $-1 $240 $241 $57 $-1 $242 reversed single #
loop $-1 $-1 $243 $95 #
plane-surface $-1 0 0 -15.345114018123081 0 0 1 1 0 0 forward_v I I I I #
coedge $-1 $244 $245 $246 $247 forward $96 $-1 #
face $-1 $248 $249 $58 $-1 $250 reversed single #
loop $-1 $-1 $251 $98 #
plane-surface $-1 -52.714247169223007 -26.927854439520875 0 0 -1 0 0 0 -1 forward_v I I I I #
coedge $-1 $252 $253 $254 $255 forward $99 $-1 #
face $-1 $256 $257 $59 $-1 $258 reversed single #
loop $-1 $-1 $259 $101 #
plane-surface $-1 -54.501458651121354 32.149066129445345 0 1 0 0 0 0 -1 forward_v I I I I #
coedge $-1 $260 $261 $262 $263 forward $102 $-1 #
face $-1 $264 $265 $60 $-1 $266 reversed single #
loop $-1 $-1 $267 $104 #
plane-surface $-1 -46.492434926228796 -23.669485359010807 87.817359257040494 0.55919291073839883 0 0.82903756765294845 0.82903756765294845 0 -0.55919291073839883 forward_v I I I I #
coedge $-1 $268 $269 $270 $271 reversed $105 $-1 #
face $-1 $-1 $272 $61 $-1 $273 forward single #
loop $-1 $274 $275 $107 #
cone-surface $-1 64.974911233558842 -25.624506807316848 10.850600554385029 -0.55919291073839883 0 -0.82903756765294845 0.20725939191323711 0 -0.13979822768459971 1 I I -0.70710678118654746 0.70710678118654746 0.25 forward I I I I #
loop $-1 $-1 $276 $80 #
coedge $-1 $172 $172 $277 $278 reversed $108 $-1 #
face $-1 $-1 $279 $62 $-1 $280 forward single #
loop $-1 $281 $282 $110 #
cone-surface $-1 64.974911233558842 -23.669485359010807 10.850600554385029 -0.55919291073839883 0 -0.82903756765294845 0.20725939191323711 0 -0.13979822768459971 1 I I -0.70710678118654746 0.70710678118654746 0.25 forward I I I I #
loop $-1 $-1 $283 $81 #
coedge $-1 $177 $177 $284 $285 reversed $111 $-1 #
face $-1 $-1 $286 $63 $-1 $287 forward single #
loop $-1 $288 $289 $113 #
cone-surface $-1 64.974911233558842 -21.714463910704765 10.850600554385029 -0.55919291073839883 0 -0.82903756765294845 0.20725939191323711 0 -0.13979822768459971 1 I I -0.70710678118654746 0.70710678118654746 0.25 forward I I I I #
loop $-1 $-1 $290 $82 #
coedge $-1 $182 $182 $291 $292 reversed $114 $-1 #
face $-1 $293 $294 $64 $-1 $295 reversed single #
loop $-1 $-1 $296 $116 #
plane-surface $-1 -46.492434926228796 -10.205558139250371 87.817359257040494 0.55919291073839883 0 0.82903756765294845 0.82903756765294845 0 -0.55919291073839883 forward_v I I I I #
coedge $-1 $297 $298 $299 $300 reversed $117 $-1 #
face $-1 $-1 $301 $65 $-1 $302 forward single #
loop $-1 $303 $304 $119 #
cone-surface $-1 64.974911233558842 -12.160579587556413 10.850600554385029 -0.55919291073839883 0 -0.82903756765294845 0.20725939191323711 0 -0.13979822768459971 1 I I -0.70710678118654746 0.70710678118654746 0.25 forward I I I I #
loop $-1 $-1 $305 $84 #
coedge $-1 $191 $191 $306 $307 reversed $120 $-1 #
face $-1 $-1 $308 $66 $-1 $309 forward single #
loop $-1 $310 $311 $122 #
cone-surface $-1 64.974911233558842 -10.205558139250371 10.850600554385029 -0.55919291073839883 0 -0.82903756765294845 0.20725939191323711 0 -0.13979822768459971 1 I I -0.70710678118654746 0.70710678118654746 0.25 forward I I I I #
loop $-1 $-1 $312 $85 #
coedge $-1 $196 $196 $313 $314 reversed $123 $-1 #
face $-1 $-1 $315 $67 $-1 $316 forward single #
loop $-1 $317 $318 $125 #
cone-surface $-1 64.974911233558842 -8.2505366909443296 10.850600554385029 -0.55919291073839883 0 -0.82903756765294845 0.20725939191323711 0 -0.13979822768459971 1 I I -0.70710678118654746 0.70710678118654746 0.25 forward I I I I #
loop $-1 $-1 $319 $86 #
coedge $-1 $201 $201 $320 $321 reversed $126 $-1 #
face $-1 $322 $323 $68 $-1 $324 reversed single #
loop $-1 $-1 $325 $128 #
plane-surface $-1 -46.492434926228796 3.2583690805100645 87.817359257040494 0.55919291073839883 0 0.82903756765294845 0.82903756765294845 0 -0.55919291073839883 forward_v I I I I #
coedge $-1 $326 $327 $328 $329 reversed $129 $-1 #
face $-1 $-1 $330 $69 $-1 $331 forward single #
loop $-1 $332 $333 $131 #
cone-surface $-1 64.974911233558842 1.3033476322040229 10.850600554385029 -0.55919291073839883 0 -0.82903756765294845 0.20725939191323711 0 -0.13979822768459971 1 I I -0.70710678118654746 0.70710678118654746 0.25 forward I I I I #
loop $-1 $-1 $334 $88 #
coedge $-1 $210 $210 $335 $336 reversed $132 $-1 #
face $-1 $-1 $337 $70 $-1 $338 forward single #
loop $-1 $339 $340 $134 #
cone-surface $-1 64.974911233558842 3.2583690805100645 10.850600554385029 -0.55919291073839883 0 -0.82903756765294845 0.20725939191323711 0 -0.13979822768459971 1 I I -0.70710678118654746 0.70710678118654746 0.25 forward I I I I #
loop $-1 $-1 $341 $89 #
coedge $-1 $215 $215 $342 $343 reversed $135 $-1 #
face $-1 $-1 $344 $71 $-1 $345 forward single #
loop $-1 $346 $347 $137 #
cone-surface $-1 64.974911233558842 5.213390528816106 10.850600554385029 -0.55919291073839883 0 -0.82903756765294845 0.20725939191323711 0 -0.13979822768459971 1 I I -0.70710678118654746 0.70710678118654746 0.25 forward I I I I #
loop $-1 $-1 $348 $90 #
coedge $-1 $220 $220 $349 $350 reversed $138 $-1 #
face $-1 $351 $352 $72 $-1 $353 reversed single #
loop $-1 $-1 $354 $140 #
plane-surface $-1 -46.492434926228796 16.7222963002705 87.817359257040494 0.55919291073839883 0 0.82903756765294845 0.82903756765294845 0 -0.55919291073839883 forward_v I I I I #
coedge $-1 $355 $356 $357 $358 reversed $141 $-1 #
face $-1 $-1 $359 $73 $-1 $360 forward single #
loop $-1 $361 $362 $143 #
cone-surface $-1 64.974911233558842 14.767274851964459 10.850600554385029 -0.55919291073839883 0 -0.82903756765294845 0.20725939191323711 0 -0.13979822768459971 1 I I -0.70710678118654746 0.70710678118654746 0.25 forward I I I I #
loop $-1 $-1 $363 $92 #
coedge $-1 $229 $229 $364 $365 reversed $144 $-1 #
face $-1 $-1 $366 $74 $-1 $367 forward single #
loop $-1 $368 $369 $146 #
cone-surface $-1 64.974911233558842 16.7222963002705 10.850600554385029 -0.55919291073839883 0 -0.82903756765294845 0.20725939191323711 0 -0.13979822768459971 1 I I -0.70710678118654746 0.70710678118654746 0.25 forward I I I I #
loop $-1 $-1 $370 $93 #
coedge $-1 $234 $234 $371 $372 reversed $147 $-1 #
face $-1 $-1 $373 $75 $-1 $374 forward single #
loop $-1 $375 $376 $149 #
cone-surface $-1 64.974911233558842 18.677317748576542 10.850600554385029 -0.55919291073839883 0 -0.82903756765294845 0.20725939191323711 0 -0.13979822768459971 1 I I -0.70710678118654746 0.70710678118654746 0.25 forward I I I I #
loop $-1 $-1 $377 $94 #
coedge $-1 $239 $239 $378 $379 reversed $150 $-1 #
face $-1 $380 $381 $57 $-1 $382 reversed single #
loop $-1 $-1 $383 $152 #
plane-surface $-1 0 -37.370277819369818 0 0 1 0 0 0 1 forward_v I I I I #
coedge $-1 $384 $385 $386 $387 forward $153 $-1 #
coedge $-1 $388 $155 $389 $390 forward $96 $-1 #
coedge $-1 $155 $388 $391 $392 forward $96 $-1 #
coedge $-1 $393 $394 $155 $247 reversed $395 $-1 #
edge $-1 $396 -37.370277819369818 $397 37.370277819369818 $246 $398 forward 7 unknown #
face $-1 $399 $400 $58 $-1 $401 forward single #
loop $-1 $-1 $402 $156 #
plane-surface $-1 -50.927035687324661 -32.149066129445345 0 -1 0 0 0 0 1 forward_v I I I I #
coedge $-1 $403 $404 $405 $406 forward $157 $-1 #
coedge $-1 $407 $159 $408 $409 reversed $99 $-1 #
coedge $-1 $159 $407 $410 $411 reversed $99 $-1 #
coedge $-1 $404 $403 $159 $255 reversed $157 $-1 #
edge $-1 $412 -15.345114018123081 $413 15.345114018123081 $254 $414 forward 7 unknown #
face $-1 $415 $416 $59 $-1 $417 reversed single #
loop $-1 $-1 $418 $160 #
plane-surface $-1 -50.927035687324661 32.149066129445345 0 -1 0 0 0 0 1 forward_v I I I I #
coedge $-1 $419 $420 $421 $422 reversed $161 $-1 #
coedge $-1 $423 $163 $424 $425 reversed $102 $-1 #
coedge $-1 $163 $423 $426 $427 reversed $102 $-1 #
coedge $-1 $420 $419 $163 $263 reversed $161 $-1 #
edge $-1 $428 -15.345114018123081 $429 15.345114018123081 $262 $430 forward 7 unknown #
face $-1 $431 $432 $60 $-1 $433 forward single #
loop $-1 $-1 $434 $164 #
plane-surface $-1 32.520548907687257 -26.927854439520878 204.95892287982375 0 1 0 0.55919291073839883 0 0.82903756765294845 forward_v I I I I #
coedge $-1 $435 $436 $437 $438 reversed $165 $-1 #
coedge $-1 $269 $167 $439 $440 reversed $105 $-1 #
coedge $-1 $167 $268 $435 $441 reversed $105 $-1 #
coedge $-1 $437 $442 $167 $271 forward $432 $-1 #
edge $-1 $443 -54.388854242710828 $444 -44.69181067988891 $270 $445 forward 7 unknown #
loop $-1 $-1 $277 $168 #
plane-surface $-1 -46.492434926228796 -23.669485359010807 87.817359257040494 0.55919291073839883 0 0.82903756765294845 0.82903756765294845 0 -0.55919291073839883 forward_v I I I I #
loop $-1 $-1 $446 $107 #
coedge $-1 $275 $275 $276 $447 reversed $169 $-1 #
coedge $-1 $276 $276 $275 $447 forward $171 $-1 #
coedge $-1 $277 $277 $172 $278 forward $272 $-1 #
edge $-1 $448 0 $448 6.2831853071796004 $277 $449 forward 7 unknown #
loop $-1 $-1 $284 $173 #
plane-surface $-1 -46.492434926228796 -23.669485359010807 87.817359257040494 0.55919291073839883 0 0.82903756765294845 0.82903756765294845 0 -0.55919291073839883 forward_v I I I I #
loop $-1 $-1 $450 $110 #
coedge $-1 $282 $282 $283 $451 reversed $174 $-1 #
coedge $-1 $283 $283 $282 $451 forward $176 $-1 #
coedge $-1 $284 $284 $177 $285 forward $279 $-1 #
edge $-1 $452 0 $452 6.2831853071796004 $284 $453 forward 7 unknown #
loop $-1 $-1 $291 $178 #
plane-surface $-1 -46.492434926228796 -23.669485359010807 87.817359257040494 0.55919291073839883 0 0.82903756765294845 0.82903756765294845 0 -0.55919291073839883 forward_v I I I I #
loop $-1 $-1 $454 $113 #
coedge $-1 $289 $289 $290 $455 reversed $179 $-1 #
coedge $-1 $290 $290 $289 $455 forward $181 $-1 #
coedge $-1 $291 $291 $182 $292 forward $286 $-1 #
edge $-1 $456 0 $456 6.2831853071796004 $291 $457 forward 7 unknown #
face $-1 $458 $459 $64 $-1 $460 reversed single #
loop $-1 $-1 $461 $183 #
plane-surface $-1 32.520548907687257 -13.463927219760443 204.95892287982375 0 1 0 0.55919291073839883 0 0.82903756765294845 forward_v I I I I #
coedge $-1 $462 $463 $464 $465 reversed $184 $-1 #
coedge $-1 $298 $186 $466 $467 reversed $117 $-1 #
coedge $-1 $186 $297 $462 $468 reversed $117 $-1 #
coedge $-1 $464 $469 $186 $300 forward $470 $-1 #
edge $-1 $471 -54.388854242710828 $472 -44.69181067988891 $299 $473 forward 7 unknown #
loop $-1 $-1 $306 $187 #
plane-surface $-1 -46.492434926228796 -10.205558139250371 87.817359257040494 0.55919291073839883 0 0.82903756765294845 0.82903756765294845 0 -0.55919291073839883 forward_v I I I I #
loop $-1 $-1 $474 $119 #
coedge $-1 $304 $304 $305 $475 reversed $188 $-1 #
coedge $-1 $305 $305 $304 $475 forward $190 $-1 #
coedge $-1 $306 $306 $191 $307 forward $301 $-1 #
edge $-1 $476 0 $476 6.2831853071796004 $306 $477 forward 7 unknown #
loop $-1 $-1 $313 $192 #
plane-surface $-1 -46.492434926228796 -10.205558139250371 87.817359257040494 0.55919291073839883 0 0.82903756765294845 0.82903756765294845 0 -0.55919291073839883 forward_v I I I I #
loop $-1 $-1 $478 $122 #
coedge $-1 $311 $311 $312 $479 reversed $193 $-1 #
coedge $-1 $312 $312 $311 $479 forward $195 $-1 #
coedge $-1 $313 $313 $196 $314 forward $308 $-1 #
edge $-1 $480 0 $480 6.2831853071796004 $313 $481 forward 7 unknown #
loop $-1 $-1 $320 $197 #
plane-surface $-1 -46.492434926228796 -10.205558139250371 87.817359257040494 0.55919291073839883 0 0.82903756765294845 0.82903756765294845 0 -0.55919291073839883 forward_v I I I I #
loop $-1 $-1 $482 $125 #
coedge $-1 $318 $318 $319 $483 reversed $198 $-1 #
coedge $-1 $319 $319 $318 $483 forward $200 $-1 #
coedge $-1 $320 $320 $201 $321 forward $315 $-1 #
edge $-1 $484 0 $484 6.2831853071796004 $320 $485 forward 7 unknown #
face $-1 $486 $487 $68 $-1 $488 reversed single #
loop $-1 $-1 $489 $202 #
plane-surface $-1 32.520548907687257 -6.2172489379008766e-015 204.95892287982375 0 1 0 0.55919291073839883 0 0.82903756765294845 forward_v I I I I #
coedge $-1 $490 $491 $492 $493 reversed $203 $-1 #
coedge $-1 $327 $205 $494 $495 reversed $129 $-1 #
coedge $-1 $205 $326 $490 $496 reversed $129 $-1 #
coedge $-1 $492 $497 $205 $329 forward $498 $-1 #
edge $-1 $499 -54.388854242710828 $500 -44.69181067988891 $328 $501 forward 7 unknown #
loop $-1 $-1 $335 $206 #
plane-surface $-1 -46.492434926228796 3.2583690805100645 87.817359257040494 0.55919291073839883 0 0.82903756765294845 0.82903756765294845 0 -0.55919291073839883 forward_v I I I I #
loop $-1 $-1 $502 $131 #
coedge $-1 $333 $333 $334 $503 reversed $207 $-1 #
coedge $-1 $334 $334 $333 $503 forward $209 $-1 #
coedge $-1 $335 $335 $210 $336 forward $330 $-1 #
edge $-1 $504 0 $504 6.2831853071796004 $335 $505 forward 7 unknown #
loop $-1 $-1 $342 $211 #
plane-surface $-1 -46.492434926228796 3.2583690805100645 87.817359257040494 0.55919291073839883 0 0.82903756765294845 0.82903756765294845 0 -0.55919291073839883 forward_v I I I I #
loop $-1 $-1 $506 $134 #
coedge $-1 $340 $340 $341 $507 reversed $212 $-1 #
coedge $-1 $341 $341 $340 $507 forward $214 $-1 #
coedge $-1 $342 $342 $215 $343 forward $337 $-1 #
edge $-1 $508 0 $508 6.2831853071796004 $342 $509 forward 7 unknown #
loop $-1 $-1 $349 $216 #
plane-surface $-1 -46.492434926228796 3.2583690805100645 87.817359257040494 0.55919291073839883 0 0.82903756765294845 0.82903756765294845 0 -0.55919291073839883 forward_v I I I I #
loop $-1 $-1 $510 $137 #
coedge $-1 $347 $347 $348 $511 reversed $217 $-1 #
coedge $-1 $348 $348 $347 $511 forward $219 $-1 #
coedge $-1 $349 $349 $220 $350 forward $344 $-1 #
edge $-1 $512 0 $512 6.2831853071796004 $349 $513 forward 7 unknown #
face $-1 $514 $515 $72 $-1 $516 reversed single #
loop $-1 $-1 $517 $221 #
plane-surface $-1 32.520548907687257 13.463927219760428 204.95892287982375 0 1 0 0.55919291073839883 0 0.82903756765294845 forward_v I I I I #
coedge $-1 $518 $519 $520 $521 reversed $222 $-1 #
coedge $-1 $356 $224 $522 $523 reversed $141 $-1 #
coedge $-1 $224 $355 $518 $524 reversed $141 $-1 #
coedge $-1 $520 $525 $224 $358 forward $526 $-1 #
edge $-1 $527 -54.388854242710828 $528 -44.69181067988891 $357 $529 forward 7 unknown #
loop $-1 $-1 $364 $225 #
plane-surface $-1 -46.492434926228796 16.7222963002705 87.817359257040494 0.55919291073839883 0 0.82903756765294845 0.82903756765294845 0 -0.55919291073839883 forward_v I I I I #
loop $-1 $-1 $530 $143 #
coedge $-1 $362 $362 $363 $531 reversed $226 $-1 #
coedge $-1 $363 $363 $362 $531 forward $228 $-1 #
coedge $-1 $364 $364 $229 $365 forward $359 $-1 #
edge $-1 $532 0 $532 6.2831853071796004 $364 $533 forward 7 unknown #
loop $-1 $-1 $371 $230 #
plane-surface $-1 -46.492434926228796 16.7222963002705 87.817359257040494 0.55919291073839883 0 0.82903756765294845 0.82903756765294845 0 -0.55919291073839883 forward_v I I I I #
loop $-1 $-1 $534 $146 #
coedge $-1 $369 $369 $370 $535 reversed $231 $-1 #
coedge $-1 $370 $370 $369 $535 forward $233 $-1 #
coedge $-1 $371 $371 $234 $372 forward $366 $-1 #
edge $-1 $536 0 $536 6.2831853071796004 $371 $537 forward 7 unknown #
loop $-1 $-1 $378 $235 #
plane-surface $-1 -46.492434926228796 16.7222963002705 87.817359257040494 0.55919291073839883 0 0.82903756765294845 0.82903756765294845 0 -0.55919291073839883 forward_v I I I I #
loop $-1 $-1 $538 $149 #
coedge $-1 $376 $376 $377 $539 reversed $236 $-1 #
coedge $-1 $377 $377 $376 $539 forward $238 $-1 #
coedge $-1 $378 $378 $239 $379 forward $373 $-1 #
edge $-1 $540 0 $540 6.2831853071796004 $378 $541 forward 7 unknown #
face $-1 $542 $543 $57 $-1 $544 reversed single #
loop $-1 $-1 $545 $240 #
plane-surface $-1 -70.649128696554456 0 0 1 0 0 0 0 -1 forward_v I I I I #
coedge $-1 $546 $391 $547 $548 forward $241 $-1 #
coedge $-1 $549 $243 $546 $550 forward $153 $-1 #
coedge $-1 $243 $549 $551 $552 forward $153 $-1 #
coedge $-1 $394 $393 $243 $387 reversed $395 $-1 #
edge $-1 $553 -37.370277819369818 $554 37.370277819369818 $386 $555 forward 7 unknown #
coedge $-1 $245 $244 $556 $557 forward $96 $-1 #
coedge $-1 $558 $559 $244 $390 reversed $543 $-1 #
edge $-1 $397 -70.649128696554456 $560 70.649128696554456 $389 $561 forward 7 unknown #
coedge $-1 $383 $562 $245 $392 reversed $241 $-1 #
edge $-1 $563 -70.649128696554456 $396 70.649128696554456 $391 $564 forward 7 unknown #
coedge $-1 $386 $246 $562 $565 forward $395 $-1 #
coedge $-1 $246 $386 $558 $566 reversed $395 $-1 #
loop $-1 $-1 $393 $542 #
vertex $-1 $247 $567 #
vertex $-1 $247 $568 #
straight-curve $-1 70.649128696554456 0 15.345114018123081 0 1 0 I I #
face $-1 $569 $570 $58 $-1 $571 reversed single #
loop $-1 $-1 $572 $248 #
plane-surface $-1 0 0 15.345114018123081 0 0 1 1 0 0 forward_v I I I I #
coedge $-1 $573 $574 $575 $576 reversed $249 $-1 #
coedge $-1 $254 $251 $577 $578 reversed $157 $-1 #
coedge $-1 $251 $254 $579 $580 reversed $157 $-1 #
coedge $-1 $574 $573 $251 $406 reversed $249 $-1 #
edge $-1 $581 -15.345114018123081 $582 15.345114018123081 $405 $583 forward 7 unknown #
coedge $-1 $253 $252 $584 $585 reversed $99 $-1 #
coedge $-1 $577 $586 $252 $409 forward $570 $-1 #
edge $-1 $587 -21.295744754647146 $413 -10.853321374798202 $408 $588 forward 7 unknown #
coedge $-1 $589 $579 $253 $411 forward $400 $-1 #
edge $-1 $412 10.853321374798202 $590 21.295744754647146 $410 $591 forward 7 unknown #
vertex $-1 $411 $592 #
vertex $-1 $409 $593 #
straight-curve $-1 -54.501458651121354 -26.927854439520875 0 0 0 -1 I I #
face $-1 $594 $595 $59 $-1 $596 forward single #
loop $-1 $-1 $597 $256 #
plane-surface $-1 0 0 -15.345114018123081 0 0 1 1 0 0 forward_v I I I I #
coedge $-1 $598 $599 $423 $600 forward $257 $-1 #
coedge $-1 $262 $259 $601 $602 reversed $161 $-1 #
coedge $-1 $259 $262 $603 $604 reversed $161 $-1 #
coedge $-1 $605 $606 $259 $422 forward $607 $-1 #
edge $-1 $608 -15.345114018123081 $609 15.345114018123081 $421 $610 forward 7 unknown #
coedge $-1 $261 $260 $418 $600 reversed $102 $-1 #
coedge $-1 $601 $597 $260 $425 forward $416 $-1 #
edge $-1 $611 24.569912102713158 $429 28.14433506650985 $424 $612 forward 7 unknown #
coedge $-1 $613 $603 $261 $427 forward $595 $-1 #
edge $-1 $428 -28.14433506650985 $614 -24.569912102713158 $426 $615 forward 7 unknown #
vertex $-1 $427 $616 #
vertex $-1 $425 $617 #
straight-curve $-1 -54.501458651121354 26.927854439520871 0 0 0 -1 I I #
face $-1 $-1 $618 $60 $-1 $619 reversed single #
loop $-1 $-1 $270 $264 #
plane-surface $-1 0 0 15.345114018123081 0 0 1 1 0 0 forward_v I I I I #
coedge $-1 $620 $621 $622 $623 reversed $265 $-1 #
coedge $-1 $624 $267 $269 $441 forward $165 $-1 #
coedge $-1 $267 $624 $620 $625 forward $165 $-1 #
coedge $-1 $622 $270 $267 $438 forward $432 $-1 #
edge $-1 $444 8.5763735989953318 $626 15.093111760015475 $437 $627 forward 7 unknown #
coedge $-1 $628 $629 $268 $440 forward $618 $-1 #
edge $-1 $630 -93.675086016787432 $443 -87.134347421788789 $439 $631 forward 7 unknown #
edge $-1 $444 129.60150933104606 $630 141.29825739310891 $269 $632 forward 7 unknown #
coedge $-1 $270 $622 $628 $633 forward $432 $-1 #
vertex $-1 $271 $634 #
vertex $-1 $271 $635 #
straight-curve $-1 16.260274453843628 -20.411116278500735 15.345114018123084 -1 0 0 I I #
coedge $-1 $446 $446 $-1 $636 reversed $274 $-1 #
edge $-1 $637 0 $637 6.2831853071796004 $275 $638 forward 7 unknown #
vertex $-1 $278 $639 #
ellipse-curve $-1 65.80060691514349 -25.624506807316848 12.074744720623777 0.55919291073839883 0 0.82903756765294845 0.41451878382647422 0 -0.27959645536919941 1 I I #
coedge $-1 $450 $450 $-1 $640 reversed $281 $-1 #
edge $-1 $641 0 $641 6.2831853071796004 $282 $642 forward 7 unknown #
vertex $-1 $285 $643 #
ellipse-curve $-1 65.80060691514349 -23.669485359010807 12.074744720623777 0.55919291073839883 0 0.82903756765294845 0.41451878382647422 0 -0.27959645536919941 1 I I #
coedge $-1 $454 $454 $-1 $644 reversed $288 $-1 #
edge $-1 $645 0 $645 6.2831853071796004 $289 $646 forward 7 unknown #
vertex $-1 $292 $647 #
ellipse-curve $-1 65.80060691514349 -21.714463910704765 12.074744720623777 0.55919291073839883 0 0.82903756765294845 0.41451878382647422 0 -0.27959645536919941 1 I I #
face $-1 $-1 $470 $64 $-1 $648 forward single #
loop $-1 $-1 $649 $293 #
plane-surface $-1 70.649128696554456 0 0 -1 0 0 0 0 1 forward_v I I I I #
coedge $-1 $650 $651 $652 $653 reversed $294 $-1 #
coedge $-1 $654 $296 $298 $468 forward $184 $-1 #
coedge $-1 $296 $654 $650 $655 forward $184 $-1 #
coedge $-1 $652 $299 $296 $465 forward $470 $-1 #
edge $-1 $472 1.8444099891151149 $656 8.3611481501352571 $464 $657 forward 7 unknown #
coedge $-1 $658 $659 $297 $467 forward $459 $-1 #
edge $-1 $660 -93.675086016787432 $471 -87.134347421788789 $466 $661 forward 7 unknown #
edge $-1 $472 129.60150933104606 $660 141.29825739310891 $298 $662 forward 7 unknown #
coedge $-1 $299 $652 $658 $663 forward $470 $-1 #
loop $-1 $-1 $652 $458 #
vertex $-1 $467 $664 #
vertex $-1 $300 $665 #
straight-curve $-1 16.260274453843628 -6.9471890587403005 15.345114018123084 -1 0 0 I I #
coedge $-1 $474 $474 $-1 $666 reversed $303 $-1 #
edge $-1 $667 0 $667 6.2831853071796004 $304 $668 forward 7 unknown #
vertex $-1 $307 $669 #
ellipse-curve $-1 65.80060691514349 -12.160579587556413 12.074744720623777 0.55919291073839883 0 0.82903756765294845 0.41451878382647422 0 -0.27959645536919941 1 I I #
coedge $-1 $478 $478 $-1 $670 reversed $310 $-1 #
edge $-1 $671 0 $671 6.2831853071796004 $311 $672 forward 7 unknown #
vertex $-1 $314 $673 #
ellipse-curve $-1 65.80060691514349 -10.205558139250371 12.074744720623777 0.55919291073839883 0 0.82903756765294845 0.41451878382647422 0 -0.27959645536919941 1 I I #
coedge $-1 $482 $482 $-1 $674 reversed $317 $-1 #
edge $-1 $675 0 $675 6.2831853071796004 $318 $676 forward 7 unknown #
vertex $-1 $321 $677 #
ellipse-curve $-1 65.80060691514349 -8.2505366909443296 12.074744720623777 0.55919291073839883 0 0.82903756765294845 0.41451878382647422 0 -0.27959645536919941 1 I I #
face $-1 $-1 $498 $68 $-1 $678 forward single #
loop $-1 $-1 $679 $322 #
plane-surface $-1 70.649128696554456 0 0 -1 0 0 0 0 1 forward_v I I I I #
coedge $-1 $680 $681 $682 $683 reversed $323 $-1 #
coedge $-1 $684 $325 $327 $496 forward $203 $-1 #
coedge $-1 $325 $684 $680 $685 forward $203 $-1 #
coedge $-1 $682 $328 $325 $493 forward $498 $-1 #
edge $-1 $500 -4.8875536207651029 $686 1.6291845402550384 $492 $687 forward 7 unknown #
coedge $-1 $688 $689 $326 $495 forward $487 $-1 #
edge $-1 $690 -93.675086016787432 $499 -87.134347421788789 $494 $691 forward 7 unknown #
edge $-1 $500 129.60150933104606 $690 141.29825739310891 $327 $692 forward 7 unknown #
coedge $-1 $328 $682 $688 $693 forward $498 $-1 #
loop $-1 $-1 $682 $486 #
vertex $-1 $495 $694 #
vertex $-1 $329 $695 #
straight-curve $-1 16.260274453843628 6.5167381610201351 15.345114018123084 -1 0 0 I I #
coedge $-1 $502 $502 $-1 $696 reversed $332 $-1 #
edge $-1 $697 0 $697 6.2831853071796004 $333 $698 forward 7 unknown #
vertex $-1 $336 $699 #
ellipse-curve $-1 65.80060691514349 1.3033476322040229 12.074744720623777 0.55919291073839883 0 0.82903756765294845 0.41451878382647422 0 -0.27959645536919941 1 I I #
coedge $-1 $506 $506 $-1 $700 reversed $339 $-1 #
edge $-1 $701 0 $701 6.2831853071796004 $340 $702 forward 7 unknown #
vertex $-1 $343 $703 #
ellipse-curve $-1 65.80060691514349 3.2583690805100645 12.074744720623777 0.55919291073839883 0 0.82903756765294845 0.41451878382647422 0 -0.27959645536919941 1 I I #
coedge $-1 $510 $510 $-1 $704 reversed $346 $-1 #
edge $-1 $705 0 $705 6.2831853071796004 $347 $706 forward 7 unknown #
vertex $-1 $350 $707 #
ellipse-curve $-1 65.80060691514349 5.213390528816106 12.074744720623777 0.55919291073839883 0 0.82903756765294845 0.41451878382647422 0 -0.27959645536919941 1 I I #
face $-1 $-1 $526 $72 $-1 $708 forward single #
loop $-1 $-1 $709 $351 #
plane-surface $-1 70.649128696554456 0 0 -1 0 0 0 0 1 forward_v I I I I #
coedge $-1 $710 $711 $712 $713 reversed $352 $-1 #
coedge $-1 $714 $354 $356 $524 forward $222 $-1 #
coedge $-1 $354 $714 $710 $715 forward $222 $-1 #
coedge $-1 $712 $357 $354 $521 forward $526 $-1 #
edge $-1 $528 -11.619517230645322 $716 -5.1027790696251785 $520 $717 forward 7 unknown #
coedge $-1 $718 $719 $355 $523 forward $515 $-1 #
edge $-1 $720 -93.675086016787432 $527 -87.134347421788789 $522 $721 forward 7 unknown #
edge $-1 $528 129.60150933104606 $720 141.29825739310891 $356 $722 forward 7 unknown #
coedge $-1 $357 $712 $718 $723 forward $526 $-1 #
loop $-1 $-1 $712 $514 #
vertex $-1 $523 $724 #
vertex $-1 $358 $725 #
straight-curve $-1 16.260274453843628 19.980665380780572 15.345114018123084 -1 0 0 I I #
coedge $-1 $530 $530 $-1 $726 reversed $361 $-1 #
edge $-1 $727 0 $727 6.2831853071796004 $362 $728 forward 7 unknown #
vertex $-1 $365 $729 #
ellipse-curve $-1 65.80060691514349 14.767274851964459 12.074744720623777 0.55919291073839883 0 0.82903756765294845 0.41451878382647422 0 -0.27959645536919941 1 I I #
coedge $-1 $534 $534 $-1 $730 reversed $368 $-1 #
edge $-1 $731 0 $731 6.2831853071796004 $369 $732 forward 7 unknown #
vertex $-1 $372 $733 #
ellipse-curve $-1 65.80060691514349 16.7222963002705 12.074744720623777 0.55919291073839883 0 0.82903756765294845 0.41451878382647422 0 -0.27959645536919941 1 I I #
coedge $-1 $538 $538 $-1 $734 reversed $375 $-1 #
edge $-1 $735 0 $735 6.2831853071796004 $376 $736 forward 7 unknown #
vertex $-1 $379 $737 #
ellipse-curve $-1 65.80060691514349 18.677317748576542 12.074744720623777 0.55919291073839883 0 0.82903756765294845 0.41451878382647422 0 -0.27959645536919941 1 I I #
face $-1 $-1 $395 $57 $-1 $738 reversed single #
loop $-1 $-1 $558 $380 #
plane-surface $-1 0 37.370277819369818 0 0 -1 0 0 0 -1 forward_v I I I I #
coedge $-1 $739 $556 $559 $740 forward $381 $-1 #
coedge $-1 $562 $383 $384 $550 reversed $241 $-1 #
coedge $-1 $556 $739 $383 $548 reversed $381 $-1 #
edge $-1 $563 -15.345114018123081 $741 15.345114018123081 $547 $742 forward 7 unknown #
coedge $-1 $385 $384 $739 $743 forward $153 $-1 #
edge $-1 $554 -70.649128696554456 $741 70.649128696554456 $546 $744 forward 7 unknown #
coedge $-1 $559 $558 $385 $552 reversed $543 $-1 #
edge $-1 $745 -70.649128696554456 $553 70.649128696554456 $551 $746 forward 7 unknown #
vertex $-1 $387 $747 #
vertex $-1 $565 $748 #
straight-curve $-1 70.649128696554456 0 -15.345114018123081 0 -1 0 I I #
coedge $-1 $545 $547 $388 $557 reversed $381 $-1 #
edge $-1 $560 -37.370277819369818 $563 37.370277819369818 $556 $749 forward 7 unknown #
coedge $-1 $551 $389 $394 $566 forward $543 $-1 #
coedge $-1 $389 $551 $545 $740 reversed $543 $-1 #
vertex $-1 $390 $750 #
straight-curve $-1 0 37.370277819369818 15.345114018123081 -1 0 0 I I #
coedge $-1 $391 $546 $393 $565 reversed $241 $-1 #
vertex $-1 $557 $751 #
straight-curve $-1 0 -37.370277819369818 15.345114018123081 1 0 0 I I #
edge $-1 $396 -15.345114018123081 $554 15.345114018123081 $393 $752 forward 7 unknown #
edge $-1 $397 -15.345114018123081 $553 15.345114018123081 $394 $753 forward 7 unknown #
point $-1 70.649128696554456 -37.370277819369818 15.345114018123081 #
point $-1 70.649128696554456 37.370277819369818 15.345114018123081 #
face $-1 $-1 $754 $58 $-1 $755 reversed single #
loop $-1 $-1 $756 $399 #
plane-surface $-1 0 0 -15.345114018123081 0 0 1 1 0 0 forward_v I I I I #
coedge $-1 $579 $589 $574 $757 forward $400 $-1 #
coedge $-1 $405 $402 $756 $758 reversed $249 $-1 #
coedge $-1 $402 $405 $572 $757 reversed $249 $-1 #
coedge $-1 $759 $760 $402 $576 forward $754 $-1 #
edge $-1 $761 -15.345114018123081 $762 15.345114018123081 $575 $763 forward 7 unknown #
coedge $-1 $756 $408 $403 $578 forward $570 $-1 #
edge $-1 $413 -28.14433506650985 $582 -24.569912102713158 $577 $764 forward 7 unknown #
coedge $-1 $410 $572 $404 $580 forward $400 $-1 #
edge $-1 $581 24.569912102713158 $412 28.14433506650985 $579 $765 forward 7 unknown #
vertex $-1 $580 $766 #
vertex $-1 $578 $767 #
straight-curve $-1 -50.927035687324661 -26.927854439520875 0 0 0 -1 I I #
coedge $-1 $760 $759 $407 $585 forward $754 $-1 #
edge $-1 $590 -15.345114018123081 $587 15.345114018123081 $584 $768 forward 7 unknown #
coedge $-1 $408 $756 $760 $769 forward $570 $-1 #
vertex $-1 $409 $770 #
straight-curve $-1 -54.501458651121354 -16.074533064722672 -15.345114018123081 0 1 0 I I #
coedge $-1 $572 $410 $759 $771 forward $400 $-1 #
vertex $-1 $771 $772 #
straight-curve $-1 -54.501458651121354 -16.074533064722672 15.345114018123081 0 -1 0 I I #
point $-1 -54.501458651121354 -26.927854439520875 15.345114018123081 #
point $-1 -54.501458651121354 -26.927854439520875 -15.345114018123081 #
face $-1 $-1 $607 $59 $-1 $773 reversed single #
loop $-1 $-1 $613 $415 #
plane-surface $-1 0 0 15.345114018123081 0 0 1 1 0 0 forward_v I I I I #
coedge $-1 $424 $774 $598 $775 forward $416 $-1 #
coedge $-1 $776 $418 $597 $775 reversed $257 $-1 #
coedge $-1 $418 $776 $613 $777 reversed $257 $-1 #
edge $-1 $614 -15.345114018123081 $611 15.345114018123081 $418 $778 forward 7 unknown #
coedge $-1 $774 $424 $419 $602 forward $416 $-1 #
edge $-1 $429 10.853321374798199 $608 21.295744754647146 $601 $779 forward 7 unknown #
coedge $-1 $426 $780 $420 $604 forward $595 $-1 #
edge $-1 $609 -21.295744754647146 $428 -10.853321374798199 $603 $781 forward 7 unknown #
coedge $-1 $782 $421 $780 $783 reversed $607 $-1 #
coedge $-1 $421 $782 $774 $784 reversed $607 $-1 #
loop $-1 $-1 $782 $594 #
vertex $-1 $784 $785 #
vertex $-1 $422 $786 #
straight-curve $-1 -54.501458651121354 37.370277819369818 0 0 0 1 I I #
vertex $-1 $425 $787 #
straight-curve $-1 -26.357123584611504 26.927854439520871 -15.345114018123081 -1 0 0 I I #
coedge $-1 $780 $426 $599 $777 forward $595 $-1 #
vertex $-1 $427 $788 #
straight-curve $-1 -26.357123584611504 26.927854439520871 15.345114018123081 1 0 0 I I #
point $-1 -54.501458651121354 26.927854439520871 15.345114018123081 #
point $-1 -54.501458651121354 26.927854439520871 -15.345114018123081 #
loop $-1 $-1 $439 $431 #
plane-surface $-1 70.649128696554456 0 0 -1 0 0 0 0 1 forward_v I I I I #
coedge $-1 $621 $434 $436 $625 reversed $265 $-1 #
coedge $-1 $434 $620 $789 $790 reversed $265 $-1 #
coedge $-1 $442 $437 $434 $623 forward $432 $-1 #
edge $-1 $626 44.69181067988891 $791 54.388854242710828 $622 $792 forward 7 unknown #
coedge $-1 $436 $435 $629 $793 reversed $165 $-1 #
edge $-1 $794 -141.29825739310891 $626 -129.60150933104606 $620 $795 forward 7 unknown #
vertex $-1 $438 $796 #
straight-curve $-1 60.952085133732545 -11.834742679505403 15.345114018123084 0 -1 0 I I #
coedge $-1 $789 $439 $442 $633 reversed $618 $-1 #
coedge $-1 $439 $789 $624 $793 forward $618 $-1 #
vertex $-1 $440 $797 #
straight-curve $-1 70.649128696554456 -20.411116278500735 102.47946143991187 0 0 1 I I #
straight-curve $-1 -46.492434926228796 -20.411116278500735 87.817359257040494 0.82903756765294845 0 -0.55919291073839883 I I #
edge $-1 $791 -26.927854439520878 $443 -20.411116278500735 $628 $798 forward 7 unknown #
point $-1 70.649128696554456 -20.411116278500735 15.345114018123081 #
point $-1 60.952085133732538 -20.411116278500735 15.345114018123084 #
edge $-1 $799 1 $799 0 $446 $-1 forward 7 unknown #
vertex $-1 $447 $800 #
ellipse-curve $-1 65.114709461243436 -25.624506807316848 11.057859946298265 0.55919291073839883 0 0.82903756765294845 0.41451878382647422 0 -0.27959645536919941 1 I I #
point $-1 66.215125698969942 -25.624506807316848 11.795148265254561 #
edge $-1 $801 1 $801 0 $450 $-1 forward 7 unknown #
vertex $-1 $451 $802 #
ellipse-curve $-1 65.114709461243436 -23.669485359010807 11.057859946298265 0.55919291073839883 0 0.82903756765294845 0.41451878382647422 0 -0.27959645536919941 1 I I #
point $-1 66.215125698969942 -23.669485359010807 11.795148265254561 #
edge $-1 $803 1 $803 0 $454 $-1 forward 7 unknown #
vertex $-1 $455 $804 #
ellipse-curve $-1 65.114709461243436 -21.714463910704765 11.057859946298265 0.55919291073839883 0 0.82903756765294845 0.41451878382647422 0 -0.27959645536919941 1 I I #
point $-1 66.215125698969942 -21.714463910704765 11.795148265254561 #
plane-surface $-1 0 0 15.345114018123081 0 0 1 1 0 0 forward_v I I I I #
coedge $-1 $659 $658 $651 $805 forward $459 $-1 #
coedge $-1 $651 $461 $463 $655 reversed $294 $-1 #
coedge $-1 $461 $650 $649 $805 reversed $294 $-1 #
coedge $-1 $469 $464 $461 $653 forward $470 $-1 #
edge $-1 $656 44.69181067988891 $806 54.388854242710828 $652 $807 forward 7 unknown #
coedge $-1 $463 $462 $659 $808 reversed $184 $-1 #
edge $-1 $809 -141.29825739310891 $656 -129.60150933104606 $650 $810 forward 7 unknown #
vertex $-1 $465 $811 #
straight-curve $-1 60.952085133732545 -5.1027790696251856 15.345114018123084 0 -1 0 I I #
coedge $-1 $649 $466 $469 $663 reversed $459 $-1 #
coedge $-1 $466 $649 $654 $808 forward $459 $-1 #
vertex $-1 $467 $812 #
straight-curve $-1 70.649128696554456 -6.9471890587403005 102.47946143991187 0 0 1 I I #
straight-curve $-1 -46.492434926228796 -6.9471890587403005 87.817359257040494 0.82903756765294845 0 -0.55919291073839883 I I #
edge $-1 $806 -13.463927219760443 $471 -6.9471890587403005 $658 $813 forward 7 unknown #
point $-1 70.649128696554456 -6.9471890587403005 15.345114018123081 #
point $-1 60.952085133732538 -6.9471890587403005 15.345114018123084 #
edge $-1 $814 1 $814 0 $474 $-1 forward 7 unknown #
vertex $-1 $475 $815 #
ellipse-curve $-1 65.114709461243436 -12.160579587556413 11.057859946298265 0.55919291073839883 0 0.82903756765294845 0.41451878382647422 0 -0.27959645536919941 1 I I #
point $-1 66.215125698969942 -12.160579587556413 11.795148265254561 #
edge $-1 $816 1 $816 0 $478 $-1 forward 7 unknown #
vertex $-1 $479 $817 #
ellipse-curve $-1 65.114709461243436 -10.205558139250371 11.057859946298265 0.55919291073839883 0 0.82903756765294845 0.41451878382647422 0 -0.27959645536919941 1 I I #
point $-1 66.215125698969942 -10.205558139250371 11.795148265254561 #
edge $-1 $818 1 $818 0 $482 $-1 forward 7 unknown #
vertex $-1 $483 $819 #
ellipse-curve $-1 65.114709461243436 -8.2505366909443296 11.057859946298265 0.55919291073839883 0 0.82903756765294845 0.41451878382647422 0 -0.27959645536919941 1 I I #
point $-1 66.215125698969942 -8.2505366909443296 11.795148265254561 #
plane-surface $-1 0 0 15.345114018123081 0 0 1 1 0 0 forward_v I I I I #
coedge $-1 $689 $688 $681 $820 forward $487 $-1 #
coedge $-1 $681 $489 $491 $685 reversed $323 $-1 #
coedge $-1 $489 $680 $679 $820 reversed $323 $-1 #
coedge $-1 $497 $492 $489 $683 forward $498 $-1 #
edge $-1 $686 44.69181067988891 $821 54.388854242710828 $682 $822 forward 7 unknown #
coedge $-1 $491 $490 $689 $823 reversed $203 $-1 #
edge $-1 $824 -141.29825739310891 $686 -129.60150933104606 $680 $825 forward 7 unknown #
vertex $-1 $493 $826 #
straight-curve $-1 60.952085133732545 1.6291845402550322 15.345114018123084 0 -1 0 I I #
coedge $-1 $679 $494 $497 $693 reversed $487 $-1 #
coedge $-1 $494 $679 $684 $823 forward $487 $-1 #
vertex $-1 $495 $827 #
straight-curve $-1 70.649128696554456 6.5167381610201351 102.47946143991187 0 0 1 I I #
straight-curve $-1 -46.492434926228796 6.5167381610201351 87.817359257040494 0.82903756765294845 0 -0.55919291073839883 I I #
edge $-1 $821 -6.2172489379008766e-015 $499 6.5167381610201351 $688 $828 forward 7 unknown #
point $-1 70.649128696554456 6.5167381610201351 15.345114018123081 #
point $-1 60.952085133732538 6.5167381610201351 15.345114018123084 #
edge $-1 $829 1 $829 0 $502 $-1 forward 7 unknown #
vertex $-1 $503 $830 #
ellipse-curve $-1 65.114709461243436 1.3033476322040229 11.057859946298265 0.55919291073839883 0 0.82903756765294845 0.41451878382647422 0 -0.27959645536919941 1 I I #
point $-1 66.215125698969942 1.3033476322040229 11.795148265254561 #
edge $-1 $831 1 $831 0 $506 $-1 forward 7 unknown #
vertex $-1 $507 $832 #
ellipse-curve $-1 65.114709461243436 3.2583690805100645 11.057859946298265 0.55919291073839883 0 0.82903756765294845 0.41451878382647422 0 -0.27959645536919941 1 I I #
point $-1 66.215125698969942 3.2583690805100645 11.795148265254561 #
edge $-1 $833 1 $833 0 $510 $-1 forward 7 unknown #
vertex $-1 $511 $834 #
ellipse-curve $-1 65.114709461243436 5.213390528816106 11.057859946298265 0.55919291073839883 0 0.82903756765294845 0.41451878382647422 0 -0.27959645536919941 1 I I #
point $-1 66.215125698969942 5.213390528816106 11.795148265254561 #
plane-surface $-1 0 0 15.345114018123081 0 0 1 1 0 0 forward_v I I I I #
coedge $-1 $719 $718 $711 $835 forward $515 $-1 #
coedge $-1 $711 $517 $519 $715 reversed $352 $-1 #
coedge $-1 $517 $710 $709 $835 reversed $352 $-1 #
coedge $-1 $525 $520 $517 $713 forward $526 $-1 #
edge $-1 $716 44.69181067988891 $836 54.388854242710828 $712 $837 forward 7 unknown #
coedge $-1 $519 $518 $719 $838 reversed $222 $-1 #
edge $-1 $839 -141.29825739310891 $716 -129.60150933104606 $710 $840 forward 7 unknown #
vertex $-1 $521 $841 #
straight-curve $-1 60.952085133732545 8.36114815013525 15.345114018123084 0 -1 0 I I #
coedge $-1 $709 $522 $525 $723 reversed $515 $-1 #
coedge $-1 $522 $709 $714 $838 forward $515 $-1 #
vertex $-1 $523 $842 #
straight-curve $-1 70.649128696554456 19.980665380780572 102.47946143991187 0 0 1 I I #
straight-curve $-1 -46.492434926228796 19.980665380780572 87.817359257040494 0.82903756765294845 0 -0.55919291073839883 I I #
edge $-1 $836 13.463927219760428 $527 19.980665380780572 $718 $843 forward 7 unknown #
point $-1 70.649128696554456 19.980665380780572 15.345114018123081 #
point $-1 60.952085133732538 19.980665380780572 15.345114018123084 #
edge $-1 $844 1 $844 0 $530 $-1 forward 7 unknown #
vertex $-1 $531 $845 #
ellipse-curve $-1 65.114709461243436 14.767274851964459 11.057859946298265 0.55919291073839883 0 0.82903756765294845 0.41451878382647422 0 -0.27959645536919941 1 I I #
point $-1 66.215125698969942 14.767274851964459 11.795148265254561 #
edge $-1 $846 1 $846 0 $534 $-1 forward 7 unknown #
vertex $-1 $535 $847 #
ellipse-curve $-1 65.114709461243436 16.7222963002705 11.057859946298265 0.55919291073839883 0 0.82903756765294845 0.41451878382647422 0 -0.27959645536919941 1 I I #
point $-1 66.215125698969942 16.7222963002705 11.795148265254561 #
edge $-1 $848 1 $848 0 $538 $-1 forward 7 unknown #
vertex $-1 $539 $849 #
ellipse-curve $-1 65.114709461243436 18.677317748576542 11.057859946298265 0.55919291073839883 0 0.82903756765294845 0.41451878382647422 0 -0.27959645536919941 1 I I #
point $-1 66.215125698969942 18.677317748576542 11.795148265254561 #
plane-surface $-1 70.649128696554456 0 0 -1 0 0 0 0 1 forward_v I I I I #
coedge $-1 $547 $545 $549 $743 reversed $381 $-1 #
edge $-1 $560 -15.345114018123081 $745 15.345114018123081 $559 $850 forward 7 unknown #
vertex $-1 $743 $851 #
straight-curve $-1 -70.649128696554456 -37.370277819369818 0 0 0 -1 I I #
edge $-1 $741 -37.370277819369818 $745 37.370277819369818 $739 $852 forward 7 unknown #
straight-curve $-1 0 -37.370277819369818 -15.345114018123081 -1 0 0 I I #
vertex $-1 $552 $853 #
straight-curve $-1 0 37.370277819369818 -15.345114018123081 1 0 0 I I #
point $-1 70.649128696554456 37.370277819369818 -15.345114018123081 #
point $-1 70.649128696554456 -37.370277819369818 -15.345114018123081 #
straight-curve $-1 -70.649128696554456 0 15.345114018123081 0 -1 0 I I #
point $-1 -70.649128696554456 37.370277819369818 15.345114018123081 #
point $-1 -70.649128696554456 -37.370277819369818 15.345114018123081 #
straight-curve $-1 70.649128696554456 -37.370277819369818 0 0 0 -1 I I #
straight-curve $-1 70.649128696554456 37.370277819369818 0 0 0 -1 I I #
loop $-1 $-1 $575 $569 #
plane-surface $-1 0 -37.370277819369818 0 0 1 0 0 0 1 forward_v I I I I #
coedge $-1 $586 $577 $573 $758 forward $570 $-1 #
edge $-1 $762 -21.295744754647146 $581 -10.853321374798202 $572 $854 forward 7 unknown #
edge $-1 $582 10.853321374798202 $761 21.295744754647146 $756 $855 forward 7 unknown #
coedge $-1 $584 $575 $589 $771 reversed $754 $-1 #
coedge $-1 $575 $584 $586 $769 reversed $754 $-1 #
vertex $-1 $769 $856 #
vertex $-1 $576 $857 #
straight-curve $-1 -50.927035687324661 -37.370277819369818 0 0 0 1 I I #
straight-curve $-1 -26.357123584611504 -26.927854439520875 -15.345114018123081 1 0 0 I I #
straight-curve $-1 -26.357123584611504 -26.927854439520875 15.345114018123081 -1 0 0 I I #
point $-1 -50.927035687324661 -26.927854439520875 15.345114018123081 #
point $-1 -50.927035687324661 -26.927854439520875 -15.345114018123081 #
straight-curve $-1 -54.501458651121354 -37.370277819369818 0 0 0 -1 I I #
edge $-1 $761 50.927035687324661 $587 54.501458651121354 $760 $858 forward 7 unknown #
point $-1 -54.501458651121354 -37.370277819369818 -15.345114018123081 #
edge $-1 $590 -54.501458651121354 $762 -50.927035687324661 $759 $859 forward 7 unknown #
point $-1 -54.501458651121354 -37.370277819369818 15.345114018123081 #
plane-surface $-1 0 37.370277819369818 0 0 -1 0 0 0 -1 forward_v I I I I #
coedge $-1 $597 $601 $606 $784 forward $416 $-1 #
edge $-1 $860 -21.295744754647146 $611 -10.853321374798199 $597 $861 forward 7 unknown #
coedge $-1 $599 $598 $782 $862 reversed $257 $-1 #
edge $-1 $614 10.853321374798199 $863 21.295744754647146 $613 $864 forward 7 unknown #
straight-curve $-1 -50.927035687324661 26.927854439520871 0 0 0 -1 I I #
straight-curve $-1 -54.501458651121354 16.074533064722672 -15.345114018123081 0 1 0 I I #
coedge $-1 $603 $613 $605 $783 forward $595 $-1 #
straight-curve $-1 -54.501458651121354 16.074533064722672 15.345114018123081 0 -1 0 I I #
coedge $-1 $606 $605 $776 $862 forward $607 $-1 #
edge $-1 $863 50.927035687324661 $609 54.501458651121354 $605 $865 forward 7 unknown #
edge $-1 $608 -54.501458651121354 $860 -50.927035687324661 $606 $866 forward 7 unknown #
point $-1 -54.501458651121354 37.370277819369818 -15.345114018123081 #
point $-1 -54.501458651121354 37.370277819369818 15.345114018123081 #
point $-1 -50.927035687324661 26.927854439520871 -15.345114018123081 #
point $-1 -50.927035687324661 26.927854439520871 15.345114018123081 #
coedge $-1 $629 $628 $621 $790 forward $618 $-1 #
edge $-1 $791 87.134347421788789 $794 93.675086016787432 $789 $867 forward 7 unknown #
vertex $-1 $633 $868 #
straight-curve $-1 16.260274453843628 -26.927854439520878 15.345114018123084 1 0 0 I I #
edge $-1 $794 -15.093111760015475 $630 -8.5763735989953318 $629 $869 forward 7 unknown #
vertex $-1 $793 $870 #
straight-curve $-1 -46.492434926228796 -26.927854439520878 87.817359257040494 -0.82903756765294845 0 0.55919291073839883 I I #
point $-1 60.952085133732538 -26.927854439520878 15.345114018123084 #
point $-1 70.649128696554456 -20.411116278500735 8.8043754231244407 #
straight-curve $-1 70.649128696554456 0 15.345114018123081 0 1 0 I I #
vertex $-1 $636 $871 #
point $-1 65.529228245069916 -25.624506807316848 10.778263490929067 #
vertex $-1 $640 $872 #
point $-1 65.529228245069916 -23.669485359010807 10.778263490929067 #
vertex $-1 $644 $873 #
point $-1 65.529228245069916 -21.714463910704765 10.778263490929067 #
edge $-1 $806 87.134347421788789 $809 93.675086016787432 $649 $874 forward 7 unknown #
vertex $-1 $663 $875 #
straight-curve $-1 16.260274453843628 -13.463927219760443 15.345114018123084 1 0 0 I I #
edge $-1 $809 -8.3611481501352571 $660 -1.8444099891151149 $659 $876 forward 7 unknown #
vertex $-1 $808 $877 #
straight-curve $-1 -46.492434926228796 -13.463927219760443 87.817359257040494 -0.82903756765294845 0 0.55919291073839883 I I #
point $-1 60.952085133732538 -13.463927219760443 15.345114018123084 #
point $-1 70.649128696554456 -6.9471890587403005 8.8043754231244407 #
straight-curve $-1 70.649128696554456 0 15.345114018123081 0 1 0 I I #
vertex $-1 $666 $878 #
point $-1 65.529228245069916 -12.160579587556413 10.778263490929067 #
vertex $-1 $670 $879 #
point $-1 65.529228245069916 -10.205558139250371 10.778263490929067 #
vertex $-1 $674 $880 #
point $-1 65.529228245069916 -8.2505366909443296 10.778263490929067 #
edge $-1 $821 87.134347421788789 $824 93.675086016787432 $679 $881 forward 7 unknown #
vertex $-1 $693 $882 #
straight-curve $-1 16.260274453843628 -6.2172489379008766e-015 15.345114018123084 1 0 0 I I #
edge $-1 $824 -1.6291845402550384 $690 4.8875536207651029 $689 $883 forward 7 unknown #
vertex $-1 $823 $884 #
straight-curve $-1 -46.492434926228796 -6.2172489379008766e-015 87.817359257040494 -0.82903756765294845 0 0.55919291073839883 I I #
point $-1 60.952085133732538 -6.2172489379008766e-015 15.345114018123084 #
point $-1 70.649128696554456 6.5167381610201351 8.8043754231244407 #
straight-curve $-1 70.649128696554456 0 15.345114018123081 0 1 0 I I #
vertex $-1 $696 $885 #
point $-1 65.529228245069916 1.3033476322040229 10.778263490929067 #
vertex $-1 $700 $886 #
point $-1 65.529228245069916 3.2583690805100645 10.778263490929067 #
vertex $-1 $704 $887 #
point $-1 65.529228245069916 5.213390528816106 10.778263490929067 #
edge $-1 $836 87.134347421788789 $839 93.675086016787432 $709 $888 forward 7 unknown #
vertex $-1 $723 $889 #
straight-curve $-1 16.260274453843628 13.463927219760428 15.345114018123084 1 0 0 I I #
edge $-1 $839 5.1027790696251785 $720 11.619517230645322 $719 $890 forward 7 unknown #
vertex $-1 $838 $891 #
straight-curve $-1 -46.492434926228796 13.463927219760428 87.817359257040494 -0.82903756765294845 0 0.55919291073839883 I I #
point $-1 60.952085133732538 13.463927219760428 15.345114018123084 #
point $-1 70.649128696554456 19.980665380780572 8.8043754231244407 #
straight-curve $-1 70.649128696554456 0 15.345114018123081 0 1 0 I I #
vertex $-1 $726 $892 #
point $-1 65.529228245069916 14.767274851964459 10.778263490929067 #
vertex $-1 $730 $893 #
point $-1 65.529228245069916 16.7222963002705 10.778263490929067 #
vertex $-1 $734 $894 #
point $-1 65.529228245069916 18.677317748576542 10.778263490929067 #
straight-curve $-1 -70.649128696554456 37.370277819369818 0 0 0 -1 I I #
point $-1 -70.649128696554456 -37.370277819369818 -15.345114018123081 #
straight-curve $-1 -70.649128696554456 0 -15.345114018123081 0 1 0 I I #
point $-1 -70.649128696554456 37.370277819369818 -15.345114018123081 #
straight-curve $-1 -50.927035687324661 -16.074533064722672 15.345114018123081 0 1 0 I I #
straight-curve $-1 -50.927035687324661 -16.074533064722672 -15.345114018123081 0 -1 0 I I #
point $-1 -50.927035687324661 -37.370277819369818 -15.345114018123081 #
point $-1 -50.927035687324661 -37.370277819369818 15.345114018123081 #
straight-curve $-1 0 -37.370277819369818 -15.345114018123081 -1 0 0 I I #
straight-curve $-1 0 -37.370277819369818 15.345114018123081 1 0 0 I I #
vertex $-1 $862 $895 #
straight-curve $-1 -50.927035687324661 16.074533064722672 -15.345114018123081 0 -1 0 I I #
edge $-1 $863 -15.345114018123081 $860 15.345114018123081 $782 $896 forward 7 unknown #
vertex $-1 $783 $897 #
straight-curve $-1 -50.927035687324661 16.074533064722672 15.345114018123081 0 1 0 I I #
straight-curve $-1 0 37.370277819369818 15.345114018123081 -1 0 0 I I #
straight-curve $-1 0 37.370277819369818 -15.345114018123081 1 0 0 I I #
straight-curve $-1 70.649128696554456 -26.927854439520878 102.47946143991187 0 0 -1 I I #
point $-1 70.649128696554456 -26.927854439520878 15.345114018123081 #
straight-curve $-1 70.649128696554456 -11.834742679505403 8.8043754231244478 0 1 0 I I #
point $-1 70.649128696554456 -26.927854439520878 8.8043754231244407 #
point $-1 64.835113005874248 -25.624506807316848 10.643341162471792 #
point $-1 64.835113005874248 -23.669485359010807 10.643341162471792 #
point $-1 64.835113005874248 -21.714463910704765 10.643341162471792 #
straight-curve $-1 70.649128696554456 -13.463927219760443 102.47946143991187 0 0 -1 I I #
point $-1 70.649128696554456 -13.463927219760443 15.345114018123081 #
straight-curve $-1 70.649128696554456 -5.1027790696251856 8.8043754231244478 0 1 0 I I #
point $-1 70.649128696554456 -13.463927219760443 8.8043754231244407 #
point $-1 64.835113005874248 -12.160579587556413 10.643341162471792 #
point $-1 64.835113005874248 -10.205558139250371 10.643341162471792 #
point $-1 64.835113005874248 -8.2505366909443296 10.643341162471792 #
straight-curve $-1 70.649128696554456 -6.2172489379008766e-015 102.47946143991187 0 0 -1 I I #
point $-1 70.649128696554456 -6.2172489379008766e-015 15.345114018123081 #
straight-curve $-1 70.649128696554456 1.6291845402550322 8.8043754231244478 0 1 0 I I #
point $-1 70.649128696554456 -6.2172489379008766e-015 8.8043754231244407 #
point $-1 64.835113005874248 1.3033476322040229 10.643341162471792 #
point $-1 64.835113005874248 3.2583690805100645 10.643341162471792 #
point $-1 64.835113005874248 5.213390528816106 10.643341162471792 #
straight-curve $-1 70.649128696554456 13.463927219760428 102.47946143991187 0 0 -1 I I #
point $-1 70.649128696554456 13.463927219760428 15.345114018123081 #
straight-curve $-1 70.649128696554456 8.36114815013525 8.8043754231244478 0 1 0 I I #
point $-1 70.649128696554456 13.463927219760428 8.8043754231244407 #
point $-1 64.835113005874248 14.767274851964459 10.643341162471792 #
point $-1 64.835113005874248 16.7222963002705 10.643341162471792 #
point $-1 64.835113005874248 18.677317748576542 10.643341162471792 #
point $-1 -50.927035687324661 37.370277819369818 -15.345114018123081 #
straight-curve $-1 -50.927035687324661 37.370277819369818 0 0 0 -1 I I #
point $-1 -50.927035687324661 37.370277819369818 15.345114018123081 #
End-of-ACIS-data 