500 0 8 0           
7 Unknown 11 ACIS 5.0 NT 24 Thu Mar 25 16:51:28 1999 
-1 9.9999999999999995e-007 1e-010 
body $-1 $8 $-1 $9 #
body $-1 $10 $-1 $11 #
body $-1 $12 $-1 $13 #
body $-1 $14 $-1 $15 #
body $-1 $16 $-1 $17 #
body $-1 $18 $-1 $19 #
body $-1 $20 $-1 $21 #
body $-1 $22 $-1 $23 #
lump $-1 $-1 $24 $0 #
transform $-1 1 0 0 0 1 0 0 0 1 49.109164708395639 27.188315535205042 12.037137774871654 1 rotate no_reflect no_shear #
lump $-1 $-1 $25 $1 #
transform $-1 1 0 0 0 1 0 0 0 1 49.109164708395639 27.188315535205042 12.037137774871654 1 rotate no_reflect no_shear #
lump $-1 $-1 $26 $2 #
transform $-1 1 0 0 0 1 0 0 0 1 49.109164708395639 27.188315535205042 12.037137774871654 1 rotate no_reflect no_shear #
lump $-1 $-1 $27 $3 #
transform $-1 1 0 0 0 1 0 0 0 1 49.109164708395639 27.188315535205042 12.037137774871654 1 rotate no_reflect no_shear #
lump $-1 $-1 $28 $4 #
transform $-1 1 0 0 0 1 0 0 0 1 49.109164708395639 27.188315535205042 12.037137774871654 1 rotate no_reflect no_shear #
lump $-1 $-1 $29 $5 #
transform $-1 1 0 0 0 1 0 0 0 1 49.109164708395639 27.188315535205042 12.037137774871654 1 rotate no_reflect no_shear #
lump $-1 $-1 $30 $6 #
transform $-1 1 0 0 0 1 0 0 0 1 49.109164708395639 27.188315535205042 12.037137774871654 1 rotate no_reflect no_shear #
lump $-1 $-1 $31 $7 #
transform $-1 1 0 0 0 1 0 0 0 1 49.109164708395639 27.188315535205042 12.037137774871654 1 rotate no_reflect no_shear #
shell $-1 $-1 $-1 $32 $-1 $8 #
shell $-1 $-1 $-1 $33 $-1 $10 #
shell $-1 $-1 $-1 $34 $-1 $12 #
shell $-1 $-1 $-1 $35 $-1 $14 #
shell $-1 $-1 $-1 $36 $-1 $16 #
shell $-1 $-1 $-1 $37 $-1 $18 #
shell $-1 $-1 $-1 $38 $-1 $20 #
shell $-1 $-1 $-1 $39 $-1 $22 #
face $-1 $40 $41 $24 $-1 $42 forward single #
face $-1 $43 $44 $25 $-1 $45 reversed single #
face $-1 $46 $47 $26 $-1 $48 reversed single #
face $-1 $49 $50 $27 $-1 $51 forward single #
face $-1 $52 $53 $28 $-1 $54 forward single #
face $-1 $55 $56 $29 $-1 $57 reversed single #
face $-1 $58 $59 $30 $-1 $60 forward single #
face $-1 $61 $62 $31 $-1 $63 forward single #
face $-1 $64 $65 $24 $-1 $66 reversed single #
loop $-1 $-1 $67 $32 #
plane-surface $-1 0 0 12.037137774871654 0 0 1 1 0 0 forward_v I I I I #
face $-1 $68 $69 $25 $-1 $70 reversed single #
loop $-1 $-1 $71 $33 #
plane-surface $-1 -43.9119072137877 -21.533612273734683 0 0 -1 0 0 0 -1 forward_v I I I I #
face $-1 $72 $73 $26 $-1 $74 reversed single #
loop $-1 $-1 $75 $34 #
plane-surface $-1 6.87353448863702 52.499495030980803 113.61814213155212 1 0 0 0 -0.66913061440640931 -0.74314481823134659 forward_v I I I I #
face $-1 $76 $77 $27 $-1 $78 forward single #
loop $-1 $79 $80 $35 #
cone-surface $-1 9.5716292213400109 21.907333501813348 7.0818663468469385 0 -0.66913061440640931 -0.74314481823134659 1 0 0 1 I I 0 1 1 forward I I I I #
face $-1 $81 $82 $28 $-1 $83 forward single #
loop $-1 $84 $85 $36 #
cone-surface $-1 13.618771320394501 21.907333501813348 7.0818663468469385 0 -0.66913061440640931 -0.74314481823134659 1 0 0 1 I I 0 1 1 forward I I I I #
face $-1 $86 $87 $29 $-1 $88 reversed single #
loop $-1 $-1 $89 $37 #
plane-surface $-1 41.516145051954709 -27.188315535205042 4.9530917477620875 0 -0.52991927123019833 0.84804809178421925 1 0 0 forward_v I I I I #
face $-1 $90 $91 $30 $-1 $92 forward single #
loop $-1 $93 $94 $38 #
cone-surface $-1 38.26199377062288 -20.718570321178582 7.2127289798960383 0 0.52991927123019833 -0.84804809178421925 2 0 0 1 I I 0 1 2 forward I I I I #
face $-1 $95 $96 $31 $-1 $97 forward single #
loop $-1 $98 $99 $39 #
cone-surface $-1 44.770296333286524 -20.718570321178582 7.2127289798960383 0 0.52991927123019833 -0.84804809178421925 2 0 0 1 I I 0 1 2 forward I I I I #
face $-1 $100 $101 $24 $-1 $102 reversed single #
loop $-1 $-1 $103 $40 #
plane-surface $-1 0 0 -12.037137774871654 0 0 1 1 0 0 forward_v I I I I #
coedge $-1 $104 $105 $106 $107 forward $41 $-1 #
face $-1 $108 $109 $25 $-1 $110 forward single #
loop $-1 $-1 $111 $43 #
plane-surface $-1 -38.714649719179761 -24.360963904469862 0 -1 0 0 0 0 1 forward_v I I I I #
coedge $-1 $112 $113 $114 $115 forward $44 $-1 #
face $-1 $116 $117 $26 $-1 $118 reversed single #
loop $-1 $-1 $119 $46 #
plane-surface $-1 11.595200270867259 -13.221396077647846 40.62769957012425 0 0.66913061440640931 0.74314481823134659 1 0 0 forward_v I I I I #
coedge $-1 $120 $121 $122 $123 reversed $47 $-1 #
face $-1 $-1 $124 $27 $-1 $125 forward single #
loop $-1 $126 $127 $49 #
cone-surface $-1 9.5716292213400109 20.620124445491633 5.6522758908273243 0 -0.66913061440640931 -0.74314481823134659 0.5 0 0 1 I I -0.70710678118654746 0.70710678118654746 0.5 forward I I I I #
loop $-1 $-1 $128 $35 #
coedge $-1 $80 $80 $129 $130 reversed $50 $-1 #
face $-1 $-1 $131 $28 $-1 $132 forward single #
loop $-1 $133 $134 $52 #
cone-surface $-1 13.618771320394501 20.620124445491633 5.6522758908273243 0 -0.66913061440640931 -0.74314481823134659 0.5 0 0 1 I I -0.70710678118654746 0.70710678118654746 0.5 forward I I I I #
loop $-1 $-1 $135 $36 #
coedge $-1 $85 $85 $136 $137 reversed $53 $-1 #
face $-1 $138 $139 $29 $-1 $140 forward single #
loop $-1 $-1 $141 $55 #
plane-surface $-1 33.923125395513786 -79.236101081198626 88.24695858790578 1 0 0 0 0.52991927123019833 -0.84804809178421925 forward_v I I I I #
coedge $-1 $142 $143 $144 $145 reversed $56 $-1 #
face $-1 $-1 $146 $30 $-1 $147 forward single #
loop $-1 $148 $149 $58 #
cone-surface $-1 38.26199377062288 -19.387327463102316 5.0822951066909905 0 0.52991927123019833 -0.84804809178421925 1 0 0 1 I I -0.70710678118654746 0.70710678118654746 1 forward I I I I #
loop $-1 $-1 $150 $38 #
coedge $-1 $94 $94 $151 $152 reversed $59 $-1 #
face $-1 $-1 $153 $31 $-1 $154 forward single #
loop $-1 $155 $156 $61 #
cone-surface $-1 44.770296333286524 -19.387327463102316 5.0822951066909905 0 0.52991927123019833 -0.84804809178421925 1 0 0 1 I I -0.70710678118654746 0.70710678118654746 1 forward I I I I #
loop $-1 $-1 $157 $39 #
coedge $-1 $99 $99 $158 $159 reversed $62 $-1 #
face $-1 $160 $161 $24 $-1 $162 reversed single #
loop $-1 $-1 $163 $64 #
plane-surface $-1 0 -27.188315535205042 0 0 1 0 0 0 1 forward_v I I I I #
coedge $-1 $164 $165 $166 $167 forward $65 $-1 #
coedge $-1 $168 $67 $169 $170 forward $41 $-1 #
coedge $-1 $67 $168 $171 $172 forward $41 $-1 #
coedge $-1 $173 $174 $67 $107 reversed $175 $-1 #
edge $-1 $176 -27.188315535205042 $177 27.188315535205042 $106 $178 forward 7 unknown #
face $-1 $179 $180 $25 $-1 $181 reversed single #
loop $-1 $-1 $182 $68 #
plane-surface $-1 0 0 12.037137774871654 0 0 1 1 0 0 forward_v I I I I #
coedge $-1 $183 $184 $185 $186 reversed $69 $-1 #
coedge $-1 $187 $71 $188 $189 reversed $44 $-1 #
coedge $-1 $71 $187 $190 $191 reversed $44 $-1 #
coedge $-1 $184 $183 $71 $115 reversed $69 $-1 #
edge $-1 $192 -12.037137774871654 $193 12.037137774871654 $114 $194 forward 7 unknown #
face $-1 $195 $196 $26 $-1 $197 reversed single #
loop $-1 $-1 $198 $72 #
plane-surface $-1 16.316866053097499 52.499495030980803 113.61814213155212 -1 0 0 0 0.66913061440640931 0.74314481823134659 forward_v I I I I #
coedge $-1 $199 $200 $201 $202 reversed $73 $-1 #
coedge $-1 $121 $75 $203 $204 reversed $47 $-1 #
coedge $-1 $75 $120 $199 $205 reversed $47 $-1 #
coedge $-1 $201 $206 $75 $123 forward $207 $-1 #
edge $-1 $208 -0.93856801971464066 $209 7.7181085488317223 $122 $210 forward 7 unknown #
loop $-1 $-1 $129 $76 #
plane-surface $-1 11.595200270867259 -13.221396077647846 40.62769957012425 0 0.66913061440640931 0.74314481823134659 1 0 0 forward_v I I I I #
loop $-1 $-1 $211 $49 #
coedge $-1 $127 $127 $128 $212 reversed $77 $-1 #
coedge $-1 $128 $128 $127 $212 forward $79 $-1 #
coedge $-1 $129 $129 $80 $130 forward $124 $-1 #
edge $-1 $213 -2.9031320354146e-015 $213 6.2831853071795978 $129 $214 forward 7 unknown #
loop $-1 $-1 $136 $81 #
plane-surface $-1 11.595200270867259 -13.221396077647846 40.62769957012425 0 0.66913061440640931 0.74314481823134659 1 0 0 forward_v I I I I #
loop $-1 $-1 $215 $52 #
coedge $-1 $134 $134 $135 $216 reversed $82 $-1 #
coedge $-1 $135 $135 $134 $216 forward $84 $-1 #
coedge $-1 $136 $136 $85 $137 forward $131 $-1 #
edge $-1 $217 -2.9031320354146e-015 $217 6.2831853071795978 $136 $218 forward 7 unknown #
face $-1 $219 $220 $29 $-1 $221 reversed single #
loop $-1 $-1 $144 $86 #
plane-surface $-1 0 0 12.037137774871654 0 0 1 1 0 0 forward_v I I I I #
coedge $-1 $222 $223 $224 $225 reversed $87 $-1 #
coedge $-1 $226 $89 $227 $228 reversed $56 $-1 #
coedge $-1 $89 $226 $222 $229 forward $56 $-1 #
coedge $-1 $224 $230 $89 $145 forward $139 $-1 #
edge $-1 $231 -28.351092182418277 $232 -13.165052869536432 $144 $233 forward 7 unknown #
loop $-1 $-1 $151 $90 #
plane-surface $-1 41.516145051954709 -27.188315535205042 4.9530917477620875 0 -0.52991927123019833 0.84804809178421925 1 0 0 forward_v I I I I #
loop $-1 $-1 $234 $58 #
coedge $-1 $149 $149 $150 $235 reversed $91 $-1 #
coedge $-1 $150 $150 $149 $235 forward $93 $-1 #
coedge $-1 $151 $151 $94 $152 forward $146 $-1 #
edge $-1 $236 -3.7621541557828905e-016 $236 6.2831853071796004 $151 $237 forward 7 unknown #
loop $-1 $-1 $158 $95 #
plane-surface $-1 41.516145051954709 -27.188315535205042 4.9530917477620875 0 -0.52991927123019833 0.84804809178421925 1 0 0 forward_v I I I I #
loop $-1 $-1 $238 $61 #
coedge $-1 $156 $156 $157 $239 reversed $96 $-1 #
coedge $-1 $157 $157 $156 $239 forward $98 $-1 #
coedge $-1 $158 $158 $99 $159 forward $153 $-1 #
edge $-1 $240 -3.7621541557828905e-016 $240 6.2831853071796004 $158 $241 forward 7 unknown #
face $-1 $242 $243 $24 $-1 $244 reversed single #
loop $-1 $-1 $245 $100 #
plane-surface $-1 -49.109164708395639 0 0 1 0 0 0 0 -1 forward_v I I I I #
coedge $-1 $246 $171 $247 $248 forward $101 $-1 #
coedge $-1 $249 $103 $246 $250 forward $65 $-1 #
coedge $-1 $103 $249 $251 $252 forward $65 $-1 #
coedge $-1 $174 $173 $103 $167 reversed $175 $-1 #
edge $-1 $253 -27.188315535205042 $254 27.188315535205042 $166 $255 forward 7 unknown #
coedge $-1 $105 $104 $256 $257 forward $41 $-1 #
coedge $-1 $258 $259 $104 $170 reversed $243 $-1 #
edge $-1 $177 -49.109164708395639 $260 49.109164708395639 $169 $261 forward 7 unknown #
coedge $-1 $163 $262 $105 $172 reversed $101 $-1 #
edge $-1 $263 -49.109164708395639 $176 49.109164708395639 $171 $264 forward 7 unknown #
coedge $-1 $166 $106 $262 $265 forward $175 $-1 #
coedge $-1 $106 $166 $258 $266 reversed $175 $-1 #
loop $-1 $-1 $173 $242 #
vertex $-1 $107 $267 #
vertex $-1 $107 $268 #
straight-curve $-1 49.109164708395639 0 12.037137774871654 0 1 0 I I #
face $-1 $269 $270 $25 $-1 $271 reversed single #
loop $-1 $-1 $272 $108 #
plane-surface $-1 -49.109164708395639 0 0 1 0 0 0 0 -1 forward_v I I I I #
coedge $-1 $190 $273 $184 $274 forward $109 $-1 #
coedge $-1 $114 $111 $275 $276 reversed $69 $-1 #
coedge $-1 $111 $114 $182 $274 reversed $69 $-1 #
coedge $-1 $277 $278 $111 $186 forward $279 $-1 #
edge $-1 $280 -12.037137774871654 $281 12.037137774871654 $185 $282 forward 7 unknown #
coedge $-1 $113 $112 $272 $283 reversed $44 $-1 #
coedge $-1 $275 $284 $112 $189 forward $270 $-1 #
edge $-1 $285 -27.153211101501789 $193 -16.758696112285911 $188 $286 forward 7 unknown #
coedge $-1 $287 $182 $113 $191 forward $109 $-1 #
edge $-1 $192 16.758696112285911 $288 27.153211101501789 $190 $289 forward 7 unknown #
vertex $-1 $191 $290 #
vertex $-1 $189 $291 #
straight-curve $-1 -38.714649719179761 -21.533612273734683 0 0 0 -1 I I #
face $-1 $-1 $207 $26 $-1 $292 forward single #
loop $-1 $-1 $293 $116 #
plane-surface $-1 0 27.188315535205042 0 0 -1 0 0 0 -1 forward_v I I I I #
coedge $-1 $294 $295 $296 $297 reversed $117 $-1 #
coedge $-1 $298 $119 $121 $205 forward $73 $-1 #
coedge $-1 $119 $298 $294 $299 forward $73 $-1 #
coedge $-1 $296 $122 $119 $202 forward $207 $-1 #
edge $-1 $209 1.0759343532033903 $300 10.519265917663869 $201 $301 forward 7 unknown #
coedge $-1 $302 $303 $120 $204 forward $196 $-1 #
edge $-1 $304 -52.566440053145953 $208 -44.771933290904407 $203 $305 forward 7 unknown #
edge $-1 $209 42.727923636576534 $304 54.376631070410077 $121 $306 forward 7 unknown #
coedge $-1 $122 $296 $302 $307 forward $207 $-1 #
loop $-1 $-1 $296 $195 #
vertex $-1 $204 $308 #
vertex $-1 $123 $309 #
straight-curve $-1 6.87353448863702 26.249747515490402 12.037137774871653 0 -1 0 I I #
coedge $-1 $211 $211 $-1 $310 reversed $126 $-1 #
edge $-1 $311 0 $311 6.2831853071796004 $127 $312 forward 7 unknown #
vertex $-1 $130 $313 #
ellipse-curve $-1 9.5716292213400109 22.859977250931863 8.1398843937508829 0 0.66913061440640931 0.74314481823134659 1 0 0 1 I I #
coedge $-1 $215 $215 $-1 $314 reversed $133 $-1 #
edge $-1 $315 0 $315 6.2831853071796004 $134 $316 forward 7 unknown #
vertex $-1 $137 $317 #
ellipse-curve $-1 13.618771320394501 22.859977250931863 8.1398843937508829 0 0.66913061440640931 0.74314481823134659 1 0 0 1 I I #
face $-1 $-1 $318 $29 $-1 $319 reversed single #
loop $-1 $-1 $320 $138 #
plane-surface $-1 0 -27.188315535205042 0 0 1 0 0 0 1 forward_v I I I I #
coedge $-1 $223 $141 $143 $229 reversed $87 $-1 #
coedge $-1 $141 $222 $321 $322 reversed $87 $-1 #
coedge $-1 $323 $144 $141 $225 forward $139 $-1 #
edge $-1 $232 -23.766578259755036 $324 -12.429735005394271 $224 $325 forward 7 unknown #
coedge $-1 $143 $142 $320 $326 reversed $56 $-1 #
coedge $-1 $327 $328 $142 $228 forward $318 $-1 #
edge $-1 $329 -10.216130169573741 $231 3.152030627190789 $227 $330 forward 7 unknown #
edge $-1 $331 0 $232 13.368160796764531 $222 $332 forward 7 unknown #
coedge $-1 $144 $323 $327 $333 forward $139 $-1 #
vertex $-1 $145 $334 #
vertex $-1 $145 $335 #
straight-curve $-1 20.758072525977354 -15.851472280844272 12.037137774871654 -1 0 0 I I #
coedge $-1 $234 $234 $-1 $336 reversed $148 $-1 #
edge $-1 $337 0 $337 6.2831853071796004 $149 $338 forward 7 unknown #
vertex $-1 $152 $339 #
ellipse-curve $-1 38.26199377062288 -21.519893908024653 8.4951147613168736 0 -0.52991927123019833 0.84804809178421925 2 0 0 1 I I #
coedge $-1 $238 $238 $-1 $340 reversed $155 $-1 #
edge $-1 $341 0 $341 6.2831853071796004 $156 $342 forward 7 unknown #
vertex $-1 $159 $343 #
ellipse-curve $-1 44.770296333286524 -21.519893908024653 8.4951147613168736 0 -0.52991927123019833 0.84804809178421925 2 0 0 1 I I #
face $-1 $-1 $175 $24 $-1 $344 reversed single #
loop $-1 $-1 $258 $160 #
plane-surface $-1 0 27.188315535205042 0 0 -1 0 0 0 -1 forward_v I I I I #
coedge $-1 $345 $256 $259 $346 forward $161 $-1 #
coedge $-1 $262 $163 $164 $250 reversed $101 $-1 #
coedge $-1 $256 $345 $163 $248 reversed $161 $-1 #
edge $-1 $263 -12.037137774871654 $347 12.037137774871654 $247 $348 forward 7 unknown #
coedge $-1 $165 $164 $345 $349 forward $65 $-1 #
edge $-1 $254 -49.109164708395639 $347 49.109164708395639 $246 $350 forward 7 unknown #
coedge $-1 $259 $258 $165 $252 reversed $243 $-1 #
edge $-1 $351 -49.109164708395639 $253 49.109164708395639 $251 $352 forward 7 unknown #
vertex $-1 $167 $353 #
vertex $-1 $265 $354 #
straight-curve $-1 49.109164708395639 0 -12.037137774871654 0 -1 0 I I #
coedge $-1 $245 $247 $168 $257 reversed $161 $-1 #
edge $-1 $260 -27.188315535205042 $263 27.188315535205042 $256 $355 forward 7 unknown #
coedge $-1 $251 $169 $174 $266 forward $243 $-1 #
coedge $-1 $169 $251 $245 $346 reversed $243 $-1 #
vertex $-1 $170 $356 #
straight-curve $-1 0 27.188315535205042 12.037137774871654 -1 0 0 I I #
coedge $-1 $171 $246 $173 $265 reversed $101 $-1 #
vertex $-1 $257 $357 #
straight-curve $-1 0 -27.188315535205042 12.037137774871654 1 0 0 I I #
edge $-1 $176 -12.037137774871654 $254 12.037137774871654 $173 $358 forward 7 unknown #
edge $-1 $177 -12.037137774871654 $253 12.037137774871654 $174 $359 forward 7 unknown #
point $-1 49.109164708395639 -27.188315535205042 12.037137774871654 #
point $-1 49.109164708395639 27.188315535205042 12.037137774871654 #
face $-1 $-1 $279 $25 $-1 $360 reversed single #
loop $-1 $-1 $275 $179 #
plane-surface $-1 0 0 -12.037137774871654 0 0 1 1 0 0 forward_v I I I I #
coedge $-1 $361 $362 $187 $283 forward $180 $-1 #
coedge $-1 $182 $287 $277 $363 forward $109 $-1 #
edge $-1 $281 -15.007833582970111 $192 -9.3531303214997514 $182 $364 forward 7 unknown #
coedge $-1 $365 $188 $183 $276 forward $270 $-1 #
edge $-1 $193 9.3531303214997514 $280 15.007833582970111 $275 $366 forward 7 unknown #
coedge $-1 $367 $185 $273 $363 reversed $279 $-1 #
coedge $-1 $185 $367 $365 $368 reversed $279 $-1 #
loop $-1 $-1 $185 $269 #
vertex $-1 $368 $369 #
vertex $-1 $186 $370 #
straight-curve $-1 -38.714649719179761 -27.188315535205042 0 0 0 1 I I #
edge $-1 $288 -12.037137774871654 $285 12.037137774871654 $272 $371 forward 7 unknown #
coedge $-1 $188 $365 $361 $372 forward $270 $-1 #
vertex $-1 $189 $373 #
straight-curve $-1 -21.95595360689385 -21.533612273734683 -12.037137774871654 1 0 0 I I #
coedge $-1 $273 $190 $362 $374 forward $109 $-1 #
vertex $-1 $374 $375 #
straight-curve $-1 -21.95595360689385 -21.533612273734683 12.037137774871654 -1 0 0 I I #
point $-1 -38.714649719179761 -21.533612273734683 12.037137774871654 #
point $-1 -38.714649719179761 -21.533612273734683 -12.037137774871654 #
plane-surface $-1 0 0 12.037137774871654 0 0 1 1 0 0 forward_v I I I I #
coedge $-1 $303 $302 $295 $376 forward $196 $-1 #
coedge $-1 $295 $198 $200 $299 reversed $117 $-1 #
coedge $-1 $198 $294 $293 $376 reversed $117 $-1 #
coedge $-1 $206 $201 $198 $297 forward $207 $-1 #
edge $-1 $300 -7.7181085488317223 $377 0.93856801971464066 $296 $378 forward 7 unknown #
coedge $-1 $200 $199 $303 $379 reversed $73 $-1 #
edge $-1 $380 -54.376631070410077 $300 -42.727923636576534 $294 $381 forward 7 unknown #
vertex $-1 $202 $382 #
straight-curve $-1 5.7976001354336297 18.531638966658683 12.037137774871656 1 0 0 I I #
coedge $-1 $293 $203 $206 $307 reversed $196 $-1 #
coedge $-1 $203 $293 $298 $379 forward $196 $-1 #
vertex $-1 $204 $383 #
straight-curve $-1 6.87353448863702 27.188315535205042 56.80907106577606 0 0 1 I I #
straight-curve $-1 6.87353448863702 -13.221396077647846 40.62769957012425 0 0.74314481823134659 -0.66913061440640931 I I #
edge $-1 $377 -16.316866053097499 $208 -6.87353448863702 $302 $384 forward 7 unknown #
point $-1 6.87353448863702 27.188315535205042 12.037137774871654 #
point $-1 6.87353448863702 18.531638966658679 12.037137774871656 #
edge $-1 $385 1 $385 0 $211 $-1 forward 7 unknown #
vertex $-1 $212 $386 #
ellipse-curve $-1 9.5716292213400109 20.95468975269484 6.0238482999429976 0 0.66913061440640931 0.74314481823134659 1 0 0 1 I I #
point $-1 10.571629221340011 22.859977250931856 8.1398843937508794 #
edge $-1 $387 1 $387 0 $215 $-1 forward 7 unknown #
vertex $-1 $216 $388 #
ellipse-curve $-1 13.618771320394501 20.95468975269484 6.0238482999429976 0 0.66913061440640931 0.74314481823134659 1 0 0 1 I I #
point $-1 14.618771320394501 22.859977250931856 8.1398843937508794 #
loop $-1 $-1 $227 $219 #
plane-surface $-1 49.109164708395639 0 0 -1 0 0 0 0 1 forward_v I I I I #
coedge $-1 $389 $321 $226 $326 forward $220 $-1 #
coedge $-1 $320 $390 $223 $322 forward $220 $-1 #
edge $-1 $324 32.086341519081238 $331 39.170387546190803 $321 $391 forward 7 unknown #
coedge $-1 $230 $224 $390 $392 forward $139 $-1 #
vertex $-1 $392 $393 #
straight-curve $-1 33.923125395513786 -39.618050540599313 12.037137774871653 0 -1 0 I I #
edge $-1 $331 13.165052869536432 $329 28.351092182418277 $320 $394 forward 7 unknown #
coedge $-1 $328 $227 $230 $333 reversed $318 $-1 #
coedge $-1 $227 $327 $389 $395 forward $318 $-1 #
vertex $-1 $326 $396 #
straight-curve $-1 49.109164708395639 -18.52454583947884 10.366816002015447 0 0.84804809178421925 0.52991927123019833 I I #
vertex $-1 $326 $397 #
straight-curve $-1 33.923125395513786 -27.188315535205042 4.9530917477620875 0 0.84804809178421925 0.52991927123019833 I I #
edge $-1 $398 -27.188315535205042 $231 -15.851472280844275 $327 $399 forward 7 unknown #
point $-1 49.109164708395632 -15.851472280844275 12.037137774871654 #
point $-1 33.923125395513786 -15.851472280844275 12.037137774871654 #
edge $-1 $400 1 $400 0 $234 $-1 forward 7 unknown #
vertex $-1 $235 $401 #
ellipse-curve $-1 38.26199377062288 -19.917246734332515 5.9303431984752102 0 -0.52991927123019833 0.84804809178421925 2 0 0 1 I I #
point $-1 40.26199377062288 -21.519893908024649 8.4951147613168665 #
edge $-1 $402 1 $402 0 $238 $-1 forward 7 unknown #
vertex $-1 $239 $403 #
ellipse-curve $-1 44.770296333286524 -19.917246734332515 5.9303431984752102 0 -0.52991927123019833 0.84804809178421925 2 0 0 1 I I #
point $-1 46.770296333286524 -21.519893908024649 8.4951147613168665 #
plane-surface $-1 49.109164708395639 0 0 -1 0 0 0 0 1 forward_v I I I I #
coedge $-1 $247 $245 $249 $349 reversed $161 $-1 #
edge $-1 $260 -12.037137774871654 $351 12.037137774871654 $259 $404 forward 7 unknown #
vertex $-1 $349 $405 #
straight-curve $-1 -49.109164708395639 -27.188315535205042 0 0 0 -1 I I #
edge $-1 $347 -27.188315535205042 $351 27.188315535205042 $345 $406 forward 7 unknown #
straight-curve $-1 0 -27.188315535205042 -12.037137774871654 -1 0 0 I I #
vertex $-1 $252 $407 #
straight-curve $-1 0 27.188315535205042 -12.037137774871654 1 0 0 I I #
point $-1 49.109164708395639 27.188315535205042 -12.037137774871654 #
point $-1 49.109164708395639 -27.188315535205042 -12.037137774871654 #
straight-curve $-1 -49.109164708395639 0 12.037137774871654 0 -1 0 I I #
point $-1 -49.109164708395639 27.188315535205042 12.037137774871654 #
point $-1 -49.109164708395639 -27.188315535205042 12.037137774871654 #
straight-curve $-1 49.109164708395639 -27.188315535205042 0 0 0 -1 I I #
straight-curve $-1 49.109164708395639 27.188315535205042 0 0 0 -1 I I #
plane-surface $-1 0 -27.188315535205042 0 0 1 0 0 0 1 forward_v I I I I #
coedge $-1 $408 $272 $284 $372 reversed $180 $-1 #
coedge $-1 $272 $408 $287 $374 reversed $180 $-1 #
edge $-1 $409 -49.109164708395639 $281 -38.714649719179761 $277 $410 forward 7 unknown #
straight-curve $-1 -38.714649719179761 -12.180481952234931 12.037137774871654 0 1 0 I I #
coedge $-1 $284 $275 $278 $368 forward $270 $-1 #
straight-curve $-1 -38.714649719179761 -12.180481952234931 -12.037137774871654 0 -1 0 I I #
coedge $-1 $278 $277 $408 $411 forward $279 $-1 #
edge $-1 $280 38.714649719179761 $412 49.109164708395639 $278 $413 forward 7 unknown #
point $-1 -38.714649719179761 -27.188315535205042 -12.037137774871654 #
point $-1 -38.714649719179761 -27.188315535205042 12.037137774871654 #
straight-curve $-1 -49.109164708395639 -21.533612273734683 0 0 0 -1 I I #
edge $-1 $412 -27.188315535205042 $285 -21.533612273734683 $361 $414 forward 7 unknown #
point $-1 -49.109164708395639 -21.533612273734683 -12.037137774871654 #
edge $-1 $288 21.533612273734683 $409 27.188315535205042 $362 $415 forward 7 unknown #
point $-1 -49.109164708395639 -21.533612273734683 12.037137774871654 #
edge $-1 $377 44.771933290904407 $380 52.566440053145953 $293 $416 forward 7 unknown #
vertex $-1 $307 $417 #
straight-curve $-1 16.316866053097499 26.249747515490402 12.037137774871653 0 1 0 I I #
edge $-1 $380 -10.519265917663869 $304 -1.0759343532033903 $303 $418 forward 7 unknown #
vertex $-1 $379 $419 #
straight-curve $-1 16.316866053097499 -13.221396077647846 40.62769957012425 0 -0.74314481823134659 0.66913061440640931 I I #
point $-1 16.316866053097499 18.531638966658679 12.037137774871656 #
point $-1 6.87353448863702 27.188315535205042 4.2426310126301061 #
straight-curve $-1 0 27.188315535205042 12.037137774871654 -1 0 0 I I #
vertex $-1 $310 $420 #
point $-1 10.571629221340011 20.95468975269484 6.0238482999429976 #
vertex $-1 $314 $421 #
point $-1 14.618771320394501 20.95468975269484 6.0238482999429976 #
coedge $-1 $390 $320 $328 $395 reversed $220 $-1 #
coedge $-1 $321 $389 $323 $392 reversed $220 $-1 #
straight-curve $-1 33.923125395513786 -27.188315535205042 44.12347929395289 0 0 -1 I I #
edge $-1 $324 33.923125395513786 $398 49.109164708395639 $390 $422 forward 7 unknown #
point $-1 33.923125395513786 -27.188315535205042 12.037137774871654 #
straight-curve $-1 20.758072525977354 -27.188315535205042 4.9530917477620866 1 0 0 I I #
edge $-1 $398 -12.037137774871654 $329 -4.9530917477620875 $328 $423 forward 7 unknown #
point $-1 49.109164708395632 -27.188315535205042 4.9530917477620875 #
point $-1 33.923125395513786 -27.188315535205042 4.9530917477620875 #
vertex $-1 $333 $424 #
straight-curve $-1 49.109164708395639 0 12.037137774871654 0 1 0 I I #
vertex $-1 $336 $425 #
point $-1 40.26199377062288 -19.917246734332515 5.9303431984752102 #
vertex $-1 $340 $426 #
point $-1 46.770296333286524 -19.917246734332515 5.9303431984752102 #
straight-curve $-1 -49.109164708395639 27.188315535205042 0 0 0 -1 I I #
point $-1 -49.109164708395639 -27.188315535205042 -12.037137774871654 #
straight-curve $-1 -49.109164708395639 0 -12.037137774871654 0 1 0 I I #
point $-1 -49.109164708395639 27.188315535205042 -12.037137774871654 #
coedge $-1 $362 $361 $367 $411 reversed $180 $-1 #
vertex $-1 $374 $427 #
straight-curve $-1 0 -27.188315535205042 12.037137774871654 1 0 0 I I #
edge $-1 $409 -12.037137774871654 $412 12.037137774871654 $408 $428 forward 7 unknown #
vertex $-1 $372 $429 #
straight-curve $-1 0 -27.188315535205042 -12.037137774871654 -1 0 0 I I #
straight-curve $-1 -49.109164708395639 0 -12.037137774871654 0 1 0 I I #
straight-curve $-1 -49.109164708395639 0 12.037137774871654 0 -1 0 I I #
straight-curve $-1 16.316866053097499 27.188315535205042 56.80907106577606 0 0 -1 I I #
point $-1 16.316866053097499 27.188315535205042 12.037137774871654 #
straight-curve $-1 5.7976001354336297 27.188315535205042 4.2426310126301132 -1 0 0 I I #
point $-1 16.316866053097499 27.188315535205042 4.2426310126301061 #
point $-1 9.5716292213400109 20.285559138288427 5.2807034817116509 #
point $-1 13.618771320394501 20.285559138288427 5.2807034817116509 #
straight-curve $-1 0 -27.188315535205042 12.037137774871654 1 0 0 I I #
straight-curve $-1 49.109164708395639 -27.188315535205042 0 0 0 -1 I I #
point $-1 49.109164708395639 -27.188315535205042 12.037137774871654 #
point $-1 38.26199377062288 -18.857408191872118 4.2342470149067708 #
point $-1 44.770296333286524 -18.857408191872118 4.2342470149067708 #
point $-1 -49.109164708395639 -27.188315535205042 12.037137774871654 #
straight-curve $-1 -49.109164708395639 -27.188315535205042 0 0 0 -1 I I #
point $-1 -49.109164708395639 -27.188315535205042 -12.037137774871654 #
End-of-ACIS-data 