500 0 13 0           
7 Unknown 11 ACIS 5.0 NT 24 Thu Mar 25 16:26:38 1999 
-1 9.9999999999999995e-007 1e-010 
body $-1 $13 $-1 $14 #
body $-1 $15 $-1 $16 #
body $-1 $17 $-1 $18 #
body $-1 $19 $-1 $20 #
body $-1 $21 $-1 $22 #
body $-1 $23 $-1 $24 #
body $-1 $25 $-1 $26 #
body $-1 $27 $-1 $28 #
body $-1 $29 $-1 $30 #
body $-1 $31 $-1 $32 #
body $-1 $33 $-1 $34 #
body $-1 $35 $-1 $36 #
body $-1 $37 $-1 $38 #
lump $-1 $-1 $39 $0 #
transform $-1 1 0 0 0 1 0 0 0 1 46.176946317941834 29.223649885407873 9.1774407803834368 1 rotate no_reflect no_shear #
lump $-1 $-1 $40 $1 #
transform $-1 1 0 0 0 1 0 0 0 1 46.176946317941834 29.223649885407873 9.1774407803834368 1 rotate no_reflect no_shear #
lump $-1 $-1 $41 $2 #
transform $-1 1 0 0 0 1 0 0 0 1 46.176946317941834 29.223649885407873 9.1774407803834368 1 rotate no_reflect no_shear #
lump $-1 $-1 $42 $3 #
transform $-1 1 0 0 0 1 0 0 0 1 46.176946317941834 29.223649885407873 9.1774407803834368 1 rotate no_reflect no_shear #
lump $-1 $-1 $43 $4 #
transform $-1 1 0 0 0 1 0 0 0 1 46.176946317941834 29.223649885407873 9.1774407803834368 1 rotate no_reflect no_shear #
lump $-1 $-1 $44 $5 #
transform $-1 1 0 0 0 1 0 0 0 1 46.176946317941834 29.223649885407873 9.1774407803834368 1 rotate no_reflect no_shear #
lump $-1 $-1 $45 $6 #
transform $-1 1 0 0 0 1 0 0 0 1 46.176946317941834 29.223649885407873 9.1774407803834368 1 rotate no_reflect no_shear #
lump $-1 $-1 $46 $7 #
transform $-1 1 0 0 0 1 0 0 0 1 46.176946317941834 29.223649885407873 9.1774407803834368 1 rotate no_reflect no_shear #
lump $-1 $-1 $47 $8 #
transform $-1 1 0 0 0 1 0 0 0 1 46.176946317941834 29.223649885407873 9.1774407803834368 1 rotate no_reflect no_shear #
lump $-1 $-1 $48 $9 #
transform $-1 1 0 0 0 1 0 0 0 1 46.176946317941834 29.223649885407873 9.1774407803834368 1 rotate no_reflect no_shear #
lump $-1 $-1 $49 $10 #
transform $-1 1 0 0 0 1 0 0 0 1 46.176946317941834 29.223649885407873 9.1774407803834368 1 rotate no_reflect no_shear #
lump $-1 $-1 $50 $11 #
transform $-1 1 0 0 0 1 0 0 0 1 46.176946317941834 29.223649885407873 9.1774407803834368 1 rotate no_reflect no_shear #
lump $-1 $-1 $51 $12 #
transform $-1 1 0 0 0 1 0 0 0 1 46.176946317941834 29.223649885407873 9.1774407803834368 1 rotate no_reflect no_shear #
shell $-1 $-1 $-1 $52 $-1 $13 #
shell $-1 $-1 $-1 $53 $-1 $15 #
shell $-1 $-1 $-1 $54 $-1 $17 #
shell $-1 $-1 $-1 $55 $-1 $19 #
shell $-1 $-1 $-1 $56 $-1 $21 #
shell $-1 $-1 $-1 $57 $-1 $23 #
shell $-1 $-1 $-1 $58 $-1 $25 #
shell $-1 $-1 $-1 $59 $-1 $27 #
shell $-1 $-1 $-1 $60 $-1 $29 #
shell $-1 $-1 $-1 $61 $-1 $31 #
shell $-1 $-1 $-1 $62 $-1 $33 #
shell $-1 $-1 $-1 $63 $-1 $35 #
shell $-1 $-1 $-1 $64 $-1 $37 #
face $-1 $65 $66 $39 $-1 $67 forward single #
face $-1 $68 $69 $40 $-1 $70 reversed single #
face $-1 $71 $72 $41 $-1 $73 reversed single #
face $-1 $74 $75 $42 $-1 $76 forward single #
face $-1 $77 $78 $43 $-1 $79 forward single #
face $-1 $80 $81 $44 $-1 $82 forward single #
face $-1 $83 $84 $45 $-1 $85 reversed single #
face $-1 $86 $87 $46 $-1 $88 forward single #
face $-1 $89 $90 $47 $-1 $91 forward single #
face $-1 $92 $93 $48 $-1 $94 forward single #
face $-1 $95 $96 $49 $-1 $97 reversed single #
face $-1 $98 $99 $50 $-1 $100 forward single #
face $-1 $101 $102 $51 $-1 $103 forward single #
face $-1 $104 $105 $39 $-1 $106 reversed single #
loop $-1 $-1 $107 $52 #
plane-surface $-1 0 0 9.1774407803834368 0 0 1 1 0 0 forward_v I I I I #
face $-1 $108 $109 $40 $-1 $110 reversed single #
loop $-1 $-1 $111 $53 #
plane-surface $-1 -40.710536349849185 -23.158597310582685 0 0 1 0 0 0 1 forward_v I I I I #
face $-1 $112 $113 $41 $-1 $114 reversed single #
loop $-1 $-1 $115 $54 #
plane-surface $-1 5.4664099680926483 -87.343838435708008 74.873522964236315 -1 0 0 0 -0.62932039886446345 0.77714595512881146 forward_v I I I I #
face $-1 $116 $117 $42 $-1 $118 forward single #
loop $-1 $119 $120 $55 #
cone-surface $-1 -5.4028199340351222 -24.352424092653493 4.7569373156194663 0 0.62932039886446345 -0.77714595512881146 1 0 0 1 I I 0 1 1 forward I I I I #
face $-1 $121 $122 $43 $-1 $123 forward single #
loop $-1 $124 $125 $56 #
cone-surface $-1 -1.3268587207372065 -24.352424092653493 4.7569373156194663 0 0.62932039886446345 -0.77714595512881146 1 0 0 1 I I 0 1 1 forward I I I I #
face $-1 $126 $127 $44 $-1 $128 forward single #
loop $-1 $129 $130 $57 #
cone-surface $-1 2.7491024925607093 -24.352424092653493 4.7569373156194663 0 0.62932039886446345 -0.77714595512881146 1 0 0 1 I I 0 1 1 forward I I I I #
face $-1 $131 $132 $45 $-1 $133 reversed single #
loop $-1 $-1 $134 $58 #
plane-surface $-1 -1.3268587207372065 -29.223649885407866 3.101068861858792 0 -0.62932039886446345 0.77714595512881146 1 0 0 forward_v I I I I #
face $-1 $135 $136 $46 $-1 $137 forward single #
loop $-1 $138 $139 $59 #
cone-surface $-1 8.1837174436245874 -24.352424092653493 4.7569373156194663 0 0.62932039886446345 -0.77714595512881146 1 0 0 1 I I 0 1 1 forward I I I I #
face $-1 $140 $141 $47 $-1 $142 forward single #
loop $-1 $143 $144 $60 #
cone-surface $-1 12.259678656922503 -24.352424092653493 4.7569373156194663 0 0.62932039886446345 -0.77714595512881146 1 0 0 1 I I 0 1 1 forward I I I I #
face $-1 $145 $146 $48 $-1 $147 forward single #
loop $-1 $148 $149 $61 #
cone-surface $-1 16.335639870220419 -24.352424092653493 4.7569373156194663 0 0.62932039886446345 -0.77714595512881146 1 0 0 1 I I 0 1 1 forward I I I I #
face $-1 $150 $151 $49 $-1 $152 reversed single #
loop $-1 $-1 $153 $62 #
plane-surface $-1 20.477454513224409 69.585059097067415 107.20510760101938 1 0 0 0 -0.80901700255871778 -0.5877852410284794 forward_v I I I I #
face $-1 $154 $155 $50 $-1 $156 forward single #
loop $-1 $157 $158 $63 #
cone-surface $-1 26.174647090192259 26.47865654683083 6.3470640379698793 0 -0.80901700255871778 -0.5877852410284794 1 0 0 1 I I 0 1 1 forward I I I I #
face $-1 $159 $160 $51 $-1 $161 forward single #
loop $-1 $162 $163 $64 #
cone-surface $-1 34.720435955644028 26.47865654683083 6.3470640379698793 0 -0.80901700255871778 -0.5877852410284794 1 0 0 1 I I 0 1 1 forward I I I I #
face $-1 $164 $165 $39 $-1 $166 reversed single #
loop $-1 $-1 $167 $65 #
plane-surface $-1 0 0 -9.1774407803834368 0 0 1 1 0 0 forward_v I I I I #
coedge $-1 $168 $169 $170 $171 forward $66 $-1 #
face $-1 $172 $173 $40 $-1 $174 reversed single #
loop $-1 $-1 $175 $68 #
plane-surface $-1 -40.710536349849185 -17.711846284974094 0 0 -1 0 0 0 -1 forward_v I I I I #
coedge $-1 $176 $177 $178 $179 reversed $69 $-1 #
face $-1 $180 $181 $41 $-1 $182 reversed single #
loop $-1 $-1 $183 $71 #
plane-surface $-1 -1.3268587207372065 -29.223649885407866 3.101068861858792 0 -0.62932039886446345 0.77714595512881146 1 0 0 forward_v I I I I #
coedge $-1 $184 $185 $186 $187 reversed $72 $-1 #
face $-1 $-1 $188 $42 $-1 $189 forward single #
loop $-1 $190 $191 $74 #
cone-surface $-1 -5.4028199340351222 -22.91838522544522 2.9860468325534129 0 0.62932039886446345 -0.77714595512881146 0.5 0 0 1 I I -0.70710678118654746 0.70710678118654746 0.5 forward I I I I #
loop $-1 $-1 $192 $55 #
coedge $-1 $120 $120 $193 $194 reversed $75 $-1 #
face $-1 $-1 $195 $43 $-1 $196 forward single #
loop $-1 $197 $198 $77 #
cone-surface $-1 -1.3268587207372065 -22.91838522544522 2.9860468325534129 0 0.62932039886446345 -0.77714595512881146 0.5 0 0 1 I I -0.70710678118654746 0.70710678118654746 0.5 forward I I I I #
loop $-1 $-1 $199 $56 #
coedge $-1 $125 $125 $200 $201 reversed $78 $-1 #
face $-1 $-1 $202 $44 $-1 $203 forward single #
loop $-1 $204 $205 $80 #
cone-surface $-1 2.7491024925607093 -22.91838522544522 2.9860468325534129 0 0.62932039886446345 -0.77714595512881146 0.5 0 0 1 I I -0.70710678118654746 0.70710678118654746 0.5 forward I I I I #
loop $-1 $-1 $206 $57 #
coedge $-1 $130 $130 $207 $208 reversed $81 $-1 #
face $-1 $209 $210 $45 $-1 $211 reversed single #
loop $-1 $-1 $212 $83 #
plane-surface $-1 19.052947345752358 -87.343838435708008 74.873522964236315 -1 0 0 0 -0.62932039886446345 0.77714595512881146 forward_v I I I I #
coedge $-1 $213 $214 $215 $216 reversed $84 $-1 #
face $-1 $-1 $217 $46 $-1 $218 forward single #
loop $-1 $219 $220 $86 #
cone-surface $-1 8.1837174436245874 -22.91838522544522 2.9860468325534129 0 0.62932039886446345 -0.77714595512881146 0.5 0 0 1 I I -0.70710678118654746 0.70710678118654746 0.5 forward I I I I #
loop $-1 $-1 $221 $59 #
coedge $-1 $139 $139 $222 $223 reversed $87 $-1 #
face $-1 $-1 $224 $47 $-1 $225 forward single #
loop $-1 $226 $227 $89 #
cone-surface $-1 12.259678656922503 -22.91838522544522 2.9860468325534129 0 0.62932039886446345 -0.77714595512881146 0.5 0 0 1 I I -0.70710678118654746 0.70710678118654746 0.5 forward I I I I #
loop $-1 $-1 $228 $60 #
coedge $-1 $144 $144 $229 $230 reversed $90 $-1 #
face $-1 $-1 $231 $48 $-1 $232 forward single #
loop $-1 $233 $234 $92 #
cone-surface $-1 16.335639870220419 -22.91838522544522 2.9860468325534129 0 0.62932039886446345 -0.77714595512881146 0.5 0 0 1 I I -0.70710678118654746 0.70710678118654746 0.5 forward I I I I #
loop $-1 $-1 $235 $61 #
coedge $-1 $149 $149 $236 $237 reversed $93 $-1 #
face $-1 $238 $239 $49 $-1 $240 reversed single #
loop $-1 $-1 $241 $95 #
plane-surface $-1 30.447541522918151 -5.1308102978448318 52.920852558118185 0 0.80901700255871778 0.5877852410284794 1 0 0 forward_v I I I I #
coedge $-1 $242 $243 $244 $245 reversed $96 $-1 #
face $-1 $-1 $246 $50 $-1 $247 forward single #
loop $-1 $248 $249 $98 #
cone-surface $-1 26.174647090192259 24.615660775580203 4.9935184202928138 0 -0.80901700255871778 -0.5877852410284794 0.5 0 0 1 I I -0.70710678118654746 0.70710678118654746 0.5 forward I I I I #
loop $-1 $-1 $250 $63 #
coedge $-1 $158 $158 $251 $252 reversed $99 $-1 #
face $-1 $-1 $253 $51 $-1 $254 forward single #
loop $-1 $255 $256 $101 #
cone-surface $-1 34.720435955644028 24.615660775580203 4.9935184202928138 0 -0.80901700255871778 -0.5877852410284794 0.5 0 0 1 I I -0.70710678118654746 0.70710678118654746 0.5 forward I I I I #
loop $-1 $-1 $257 $64 #
coedge $-1 $163 $163 $258 $259 reversed $102 $-1 #
face $-1 $260 $261 $39 $-1 $262 reversed single #
loop $-1 $-1 $263 $104 #
plane-surface $-1 0 -29.223649885407873 0 0 1 0 0 0 1 forward_v I I I I #
coedge $-1 $264 $265 $266 $267 forward $105 $-1 #
coedge $-1 $268 $107 $269 $270 forward $66 $-1 #
coedge $-1 $107 $268 $271 $272 forward $66 $-1 #
coedge $-1 $273 $274 $107 $171 reversed $275 $-1 #
edge $-1 $276 -29.223649885407873 $277 29.223649885407873 $170 $278 forward 7 unknown #
face $-1 $279 $280 $40 $-1 $281 reversed single #
loop $-1 $-1 $282 $108 #
plane-surface $-1 -35.244126381756537 -20.435221797778389 0 -1 0 0 0 0 1 forward_v I I I I #
coedge $-1 $283 $284 $285 $286 forward $109 $-1 #
coedge $-1 $287 $111 $288 $289 reversed $69 $-1 #
coedge $-1 $111 $287 $290 $291 reversed $69 $-1 #
coedge $-1 $292 $293 $111 $179 forward $294 $-1 #
edge $-1 $295 -9.1774407803834368 $296 9.1774407803834368 $178 $297 forward 7 unknown #
face $-1 $298 $299 $41 $-1 $300 reversed single #
loop $-1 $-1 $301 $112 #
plane-surface $-1 -8.1201274095670612 -87.343838435708008 74.873522964236315 1 0 0 0 0.62932039886446345 -0.77714595512881146 forward_v I I I I #
coedge $-1 $302 $303 $304 $305 reversed $113 $-1 #
coedge $-1 $185 $115 $306 $307 reversed $72 $-1 #
coedge $-1 $115 $184 $302 $308 reversed $72 $-1 #
coedge $-1 $304 $309 $115 $187 forward $310 $-1 #
edge $-1 $311 14.448269332446131 $312 21.951963582402826 $186 $313 forward 7 unknown #
loop $-1 $-1 $193 $116 #
plane-surface $-1 -1.3268587207372065 -29.223649885407866 3.101068861858792 0 -0.62932039886446345 0.77714595512881146 1 0 0 forward_v I I I I #
loop $-1 $-1 $314 $74 #
coedge $-1 $191 $191 $192 $315 reversed $117 $-1 #
coedge $-1 $192 $192 $191 $315 forward $119 $-1 #
coedge $-1 $193 $193 $120 $194 forward $188 $-1 #
edge $-1 $316 1.1516645162288325e-015 $316 6.2831853071796013 $193 $317 forward 7 unknown #
loop $-1 $-1 $200 $121 #
plane-surface $-1 -1.3268587207372065 -29.223649885407866 3.101068861858792 0 -0.62932039886446345 0.77714595512881146 1 0 0 forward_v I I I I #
loop $-1 $-1 $318 $77 #
coedge $-1 $198 $198 $199 $319 reversed $122 $-1 #
coedge $-1 $199 $199 $198 $319 forward $124 $-1 #
coedge $-1 $200 $200 $125 $201 forward $195 $-1 #
edge $-1 $320 1.1516645162288325e-015 $320 6.2831853071796013 $200 $321 forward 7 unknown #
loop $-1 $-1 $207 $126 #
plane-surface $-1 -1.3268587207372065 -29.223649885407866 3.101068861858792 0 -0.62932039886446345 0.77714595512881146 1 0 0 forward_v I I I I #
loop $-1 $-1 $322 $80 #
coedge $-1 $205 $205 $206 $323 reversed $127 $-1 #
coedge $-1 $206 $206 $205 $323 forward $129 $-1 #
coedge $-1 $207 $207 $130 $208 forward $202 $-1 #
edge $-1 $324 1.1516645162288325e-015 $324 6.2831853071796013 $207 $325 forward 7 unknown #
face $-1 $326 $327 $45 $-1 $328 forward single #
loop $-1 $-1 $329 $131 #
plane-surface $-1 0 -29.223649885407873 0 0 1 0 0 0 1 forward_v I I I I #
coedge $-1 $330 $331 $332 $333 reversed $132 $-1 #
coedge $-1 $334 $134 $335 $336 reversed $84 $-1 #
coedge $-1 $134 $334 $329 $337 reversed $84 $-1 #
coedge $-1 $338 $339 $134 $216 forward $327 $-1 #
edge $-1 $340 -9.6554504342919145 $341 9.1551213131864128e-015 $215 $342 forward 7 unknown #
loop $-1 $-1 $222 $135 #
plane-surface $-1 -1.3268587207372065 -29.223649885407866 3.101068861858792 0 -0.62932039886446345 0.77714595512881146 1 0 0 forward_v I I I I #
loop $-1 $-1 $343 $86 #
coedge $-1 $220 $220 $221 $344 reversed $136 $-1 #
coedge $-1 $221 $221 $220 $344 forward $138 $-1 #
coedge $-1 $222 $222 $139 $223 forward $217 $-1 #
edge $-1 $345 1.1516645162288325e-015 $345 6.2831853071796013 $222 $346 forward 7 unknown #
loop $-1 $-1 $229 $140 #
plane-surface $-1 -1.3268587207372065 -29.223649885407866 3.101068861858792 0 -0.62932039886446345 0.77714595512881146 1 0 0 forward_v I I I I #
loop $-1 $-1 $347 $89 #
coedge $-1 $227 $227 $228 $348 reversed $141 $-1 #
coedge $-1 $228 $228 $227 $348 forward $143 $-1 #
coedge $-1 $229 $229 $144 $230 forward $224 $-1 #
edge $-1 $349 1.1516645162288325e-015 $349 6.2831853071796013 $229 $350 forward 7 unknown #
loop $-1 $-1 $236 $145 #
plane-surface $-1 -1.3268587207372065 -29.223649885407866 3.101068861858792 0 -0.62932039886446345 0.77714595512881146 1 0 0 forward_v I I I I #
loop $-1 $-1 $351 $92 #
coedge $-1 $234 $234 $235 $352 reversed $146 $-1 #
coedge $-1 $235 $235 $234 $352 forward $148 $-1 #
coedge $-1 $236 $236 $149 $237 forward $231 $-1 #
edge $-1 $353 1.1516645162288325e-015 $353 6.2831853071796013 $236 $354 forward 7 unknown #
face $-1 $355 $356 $49 $-1 $357 reversed single #
loop $-1 $-1 $358 $150 #
plane-surface $-1 40.417628532611893 69.585059097067415 107.20510760101938 -1 0 0 0 0.80901700255871778 0.5877852410284794 forward_v I I I I #
coedge $-1 $359 $360 $361 $362 reversed $151 $-1 #
coedge $-1 $243 $153 $363 $364 reversed $96 $-1 #
coedge $-1 $153 $242 $359 $365 reversed $96 $-1 #
coedge $-1 $361 $366 $153 $245 forward $367 $-1 #
edge $-1 $368 5.5688796631258342 $369 8.141891800337369 $244 $370 forward 7 unknown #
loop $-1 $-1 $251 $154 #
plane-surface $-1 30.447541522918151 -5.1308102978448318 52.920852558118185 0 0.80901700255871778 0.5877852410284794 1 0 0 forward_v I I I I #
loop $-1 $-1 $371 $98 #
coedge $-1 $249 $249 $250 $372 reversed $155 $-1 #
coedge $-1 $250 $250 $249 $372 forward $157 $-1 #
coedge $-1 $251 $251 $158 $252 forward $246 $-1 #
edge $-1 $373 -4.4886479272123672e-016 $373 6.2831853071795996 $251 $374 forward 7 unknown #
loop $-1 $-1 $258 $159 #
plane-surface $-1 30.447541522918151 -5.1308102978448318 52.920852558118185 0 0.80901700255871778 0.5877852410284794 1 0 0 forward_v I I I I #
loop $-1 $-1 $375 $101 #
coedge $-1 $256 $256 $257 $376 reversed $160 $-1 #
coedge $-1 $257 $257 $256 $376 forward $162 $-1 #
coedge $-1 $258 $258 $163 $259 forward $253 $-1 #
edge $-1 $377 -4.4886479272123672e-016 $377 6.2831853071795996 $258 $378 forward 7 unknown #
face $-1 $379 $380 $39 $-1 $381 reversed single #
loop $-1 $-1 $382 $164 #
plane-surface $-1 -46.176946317941834 0 0 1 0 0 0 0 -1 forward_v I I I I #
coedge $-1 $383 $271 $384 $385 forward $165 $-1 #
coedge $-1 $386 $167 $383 $387 forward $105 $-1 #
coedge $-1 $167 $386 $388 $389 forward $105 $-1 #
coedge $-1 $274 $273 $167 $267 reversed $275 $-1 #
edge $-1 $390 -29.223649885407873 $391 29.223649885407873 $266 $392 forward 7 unknown #
coedge $-1 $169 $168 $393 $394 forward $66 $-1 #
coedge $-1 $395 $396 $168 $270 reversed $380 $-1 #
edge $-1 $277 -46.176946317941834 $397 46.176946317941834 $269 $398 forward 7 unknown #
coedge $-1 $263 $399 $169 $272 reversed $165 $-1 #
edge $-1 $400 -46.176946317941834 $276 46.176946317941834 $271 $401 forward 7 unknown #
coedge $-1 $266 $170 $399 $402 forward $275 $-1 #
coedge $-1 $170 $266 $395 $403 reversed $275 $-1 #
loop $-1 $-1 $273 $379 #
vertex $-1 $171 $404 #
vertex $-1 $171 $405 #
straight-curve $-1 46.176946317941834 0 9.1774407803834368 0 1 0 I I #
face $-1 $406 $407 $40 $-1 $408 forward single #
loop $-1 $-1 $409 $172 #
plane-surface $-1 0 0 -9.1774407803834368 0 0 1 1 0 0 forward_v I I I I #
coedge $-1 $410 $411 $287 $412 forward $173 $-1 #
coedge $-1 $413 $175 $409 $414 reversed $109 $-1 #
coedge $-1 $175 $413 $415 $416 reversed $109 $-1 #
coedge $-1 $411 $410 $175 $286 reversed $173 $-1 #
edge $-1 $417 -9.1774407803834368 $418 9.1774407803834368 $285 $419 forward 7 unknown #
coedge $-1 $177 $176 $282 $412 reversed $69 $-1 #
coedge $-1 $420 $421 $176 $289 forward $280 $-1 #
edge $-1 $422 14.888858206831944 $295 25.821678143017241 $288 $423 forward 7 unknown #
coedge $-1 $424 $425 $177 $291 forward $407 $-1 #
edge $-1 $296 -25.821678143017241 $426 -14.888858206831944 $290 $427 forward 7 unknown #
coedge $-1 $428 $178 $425 $429 reversed $294 $-1 #
coedge $-1 $178 $428 $420 $430 reversed $294 $-1 #
loop $-1 $-1 $428 $406 #
vertex $-1 $430 $431 #
vertex $-1 $179 $432 #
straight-curve $-1 -46.176946317941834 -23.158597310582685 0 0 0 1 I I #
face $-1 $-1 $310 $41 $-1 $433 forward single #
loop $-1 $-1 $434 $180 #
plane-surface $-1 0 -29.223649885407873 0 0 1 0 0 0 1 forward_v I I I I #
coedge $-1 $435 $436 $437 $438 reversed $181 $-1 #
coedge $-1 $439 $183 $185 $308 forward $113 $-1 #
coedge $-1 $183 $439 $435 $440 forward $113 $-1 #
coedge $-1 $437 $186 $183 $305 forward $310 $-1 #
edge $-1 $312 -6.1298393284612516 $441 7.456698049198458 $304 $442 forward 7 unknown #
coedge $-1 $443 $444 $184 $307 forward $299 $-1 #
edge $-1 $445 -34.335692620259373 $311 -28.259320701734723 $306 $446 forward 7 unknown #
edge $-1 $312 -9.6554504342919145 $445 9.1551213131864128e-015 $185 $447 forward 7 unknown #
coedge $-1 $186 $437 $443 $448 forward $310 $-1 #
loop $-1 $-1 $437 $298 #
vertex $-1 $307 $449 #
vertex $-1 $187 $450 #
straight-curve $-1 5.4664099680926483 -43.671919217854004 9.177440780383435 0 1 0 I I #
coedge $-1 $314 $314 $-1 $451 reversed $190 $-1 #
edge $-1 $452 0 $452 6.2831853071796004 $191 $453 forward 7 unknown #
vertex $-1 $194 $454 #
ellipse-curve $-1 -5.4028199340351222 -25.471802760429529 6.1392548211211091 0 -0.62932039886446345 0.77714595512881146 1 0 0 1 I I #
coedge $-1 $318 $318 $-1 $455 reversed $197 $-1 #
edge $-1 $456 0 $456 6.2831853071796004 $198 $457 forward 7 unknown #
vertex $-1 $201 $458 #
ellipse-curve $-1 -1.3268587207372065 -25.471802760429529 6.1392548211211091 0 -0.62932039886446345 0.77714595512881146 1 0 0 1 I I #
coedge $-1 $322 $322 $-1 $459 reversed $204 $-1 #
edge $-1 $460 0 $460 6.2831853071796004 $205 $461 forward 7 unknown #
vertex $-1 $208 $462 #
ellipse-curve $-1 2.7491024925607093 -25.471802760429529 6.1392548211211091 0 -0.62932039886446345 0.77714595512881146 1 0 0 1 I I #
face $-1 $-1 $463 $45 $-1 $464 forward single #
loop $-1 $-1 $339 $209 #
plane-surface $-1 5.4664099680926483 -87.343838435708008 74.873522964236315 -1 0 0 0 -0.62932039886446345 0.77714595512881146 forward_v I I I I #
coedge $-1 $332 $465 $214 $337 forward $210 $-1 #
coedge $-1 $331 $212 $334 $466 reversed $132 $-1 #
coedge $-1 $212 $330 $467 $468 reversed $132 $-1 #
coedge $-1 $469 $329 $212 $333 forward $210 $-1 #
edge $-1 $470 -34.335692620259373 $471 -28.259320701734723 $332 $472 forward 7 unknown #
coedge $-1 $214 $213 $330 $466 forward $84 $-1 #
coedge $-1 $473 $467 $213 $336 forward $463 $-1 #
edge $-1 $474 -19.716376706120961 $340 -6.1298393284612516 $335 $475 forward 7 unknown #
edge $-1 $341 6.1298393284612516 $470 19.716376706120961 $329 $476 forward 7 unknown #
coedge $-1 $339 $215 $465 $477 reversed $327 $-1 #
coedge $-1 $215 $338 $473 $478 reversed $327 $-1 #
vertex $-1 $336 $479 #
vertex $-1 $337 $480 #
straight-curve $-1 5.4664099680926483 -29.223649885407866 3.101068861858792 0 -0.77714595512881146 -0.62932039886446345 I I #
coedge $-1 $343 $343 $-1 $481 reversed $219 $-1 #
edge $-1 $482 0 $482 6.2831853071796004 $220 $483 forward 7 unknown #
vertex $-1 $223 $484 #
ellipse-curve $-1 8.1837174436245874 -25.471802760429529 6.1392548211211091 0 -0.62932039886446345 0.77714595512881146 1 0 0 1 I I #
coedge $-1 $347 $347 $-1 $485 reversed $226 $-1 #
edge $-1 $486 0 $486 6.2831853071796004 $227 $487 forward 7 unknown #
vertex $-1 $230 $488 #
ellipse-curve $-1 12.259678656922503 -25.471802760429529 6.1392548211211091 0 -0.62932039886446345 0.77714595512881146 1 0 0 1 I I #
coedge $-1 $351 $351 $-1 $489 reversed $233 $-1 #
edge $-1 $490 0 $490 6.2831853071796004 $234 $491 forward 7 unknown #
vertex $-1 $237 $492 #
ellipse-curve $-1 16.335639870220419 -25.471802760429529 6.1392548211211091 0 -0.62932039886446345 0.77714595512881146 1 0 0 1 I I #
face $-1 $-1 $367 $49 $-1 $493 forward single #
loop $-1 $-1 $494 $238 #
plane-surface $-1 0 29.223649885407873 0 0 -1 0 0 0 -1 forward_v I I I I #
coedge $-1 $495 $496 $497 $498 reversed $239 $-1 #
coedge $-1 $499 $241 $243 $365 forward $151 $-1 #
coedge $-1 $241 $499 $495 $500 forward $151 $-1 #
coedge $-1 $497 $244 $241 $362 forward $367 $-1 #
edge $-1 $369 5.2536837517653332 $501 25.193857771152818 $361 $502 forward 7 unknown #
coedge $-1 $503 $504 $242 $364 forward $356 $-1 #
edge $-1 $505 -47.966560510627673 $368 -44.425113020126254 $363 $506 forward 7 unknown #
edge $-1 $369 54.069829978091086 $505 58.447299770815718 $243 $507 forward 7 unknown #
coedge $-1 $244 $497 $503 $508 forward $367 $-1 #
loop $-1 $-1 $497 $355 #
vertex $-1 $364 $509 #
vertex $-1 $245 $510 #
straight-curve $-1 20.477454513224409 34.792529548533707 9.177440780383435 0 -1 0 I I #
coedge $-1 $371 $371 $-1 $511 reversed $248 $-1 #
edge $-1 $512 0 $512 6.2831853071796004 $249 $513 forward 7 unknown #
vertex $-1 $252 $514 #
ellipse-curve $-1 26.174647090192259 27.937143816802113 7.406717035132715 0 0.80901700255871778 0.5877852410284794 1 0 0 1 I I #
coedge $-1 $375 $375 $-1 $515 reversed $255 $-1 #
edge $-1 $516 0 $516 6.2831853071796004 $256 $517 forward 7 unknown #
vertex $-1 $259 $518 #
ellipse-curve $-1 34.720435955644028 27.937143816802113 7.406717035132715 0 0.80901700255871778 0.5877852410284794 1 0 0 1 I I #
face $-1 $-1 $275 $39 $-1 $519 reversed single #
loop $-1 $-1 $395 $260 #
plane-surface $-1 0 29.223649885407873 0 0 -1 0 0 0 -1 forward_v I I I I #
coedge $-1 $520 $393 $396 $521 forward $261 $-1 #
coedge $-1 $399 $263 $264 $387 reversed $165 $-1 #
coedge $-1 $393 $520 $263 $385 reversed $261 $-1 #
edge $-1 $400 -9.1774407803834368 $522 9.1774407803834368 $384 $523 forward 7 unknown #
coedge $-1 $265 $264 $520 $524 forward $105 $-1 #
edge $-1 $391 -46.176946317941834 $522 46.176946317941834 $383 $525 forward 7 unknown #
coedge $-1 $396 $395 $265 $389 reversed $380 $-1 #
edge $-1 $526 -46.176946317941834 $390 46.176946317941834 $388 $527 forward 7 unknown #
vertex $-1 $267 $528 #
vertex $-1 $402 $529 #
straight-curve $-1 46.176946317941834 0 -9.1774407803834368 0 -1 0 I I #
coedge $-1 $382 $384 $268 $394 reversed $261 $-1 #
edge $-1 $397 -29.223649885407873 $400 29.223649885407873 $393 $530 forward 7 unknown #
coedge $-1 $388 $269 $274 $403 forward $380 $-1 #
coedge $-1 $269 $388 $382 $521 reversed $380 $-1 #
vertex $-1 $270 $531 #
straight-curve $-1 0 29.223649885407873 9.1774407803834368 -1 0 0 I I #
coedge $-1 $271 $383 $273 $402 reversed $165 $-1 #
vertex $-1 $394 $532 #
straight-curve $-1 0 -29.223649885407873 9.1774407803834368 1 0 0 I I #
edge $-1 $276 -9.1774407803834368 $391 9.1774407803834368 $273 $533 forward 7 unknown #
edge $-1 $277 -9.1774407803834368 $390 9.1774407803834368 $274 $534 forward 7 unknown #
point $-1 46.176946317941834 -29.223649885407873 9.1774407803834368 #
point $-1 46.176946317941834 29.223649885407873 9.1774407803834368 #
face $-1 $-1 $294 $40 $-1 $535 reversed single #
loop $-1 $-1 $415 $279 #
plane-surface $-1 0 0 9.1774407803834368 0 0 1 1 0 0 forward_v I I I I #
coedge $-1 $421 $420 $283 $414 forward $280 $-1 #
coedge $-1 $285 $282 $421 $536 reversed $173 $-1 #
coedge $-1 $282 $285 $424 $537 reversed $173 $-1 #
edge $-1 $426 -9.1774407803834368 $422 9.1774407803834368 $282 $538 forward 7 unknown #
coedge $-1 $284 $283 $428 $539 reversed $109 $-1 #
edge $-1 $540 -25.821678143017241 $418 -14.888858206831944 $409 $541 forward 7 unknown #
coedge $-1 $425 $424 $284 $416 forward $407 $-1 #
edge $-1 $417 14.888858206831944 $542 25.821678143017241 $415 $543 forward 7 unknown #
vertex $-1 $416 $544 #
vertex $-1 $414 $545 #
straight-curve $-1 -35.244126381756537 -17.711846284974094 0 0 0 -1 I I #
coedge $-1 $409 $288 $293 $430 forward $280 $-1 #
coedge $-1 $288 $409 $410 $536 forward $280 $-1 #
vertex $-1 $289 $546 #
straight-curve $-1 -20.355268174924593 -23.158597310582685 -9.1774407803834368 -1 0 0 I I #
coedge $-1 $415 $290 $411 $537 forward $407 $-1 #
coedge $-1 $290 $415 $292 $429 forward $407 $-1 #
vertex $-1 $291 $547 #
straight-curve $-1 -20.355268174924593 -23.158597310582685 9.1774407803834368 1 0 0 I I #
coedge $-1 $293 $292 $413 $539 forward $294 $-1 #
edge $-1 $542 17.711846284974094 $296 23.158597310582685 $292 $548 forward 7 unknown #
edge $-1 $295 -23.158597310582685 $540 -17.711846284974094 $293 $549 forward 7 unknown #
point $-1 -46.176946317941834 -23.158597310582685 -9.1774407803834368 #
point $-1 -46.176946317941834 -23.158597310582685 9.1774407803834368 #
plane-surface $-1 0 0 9.1774407803834368 0 0 1 1 0 0 forward_v I I I I #
coedge $-1 $444 $443 $436 $550 forward $299 $-1 #
coedge $-1 $436 $301 $303 $440 reversed $181 $-1 #
coedge $-1 $301 $435 $434 $550 reversed $181 $-1 #
coedge $-1 $309 $304 $301 $438 forward $310 $-1 #
edge $-1 $441 -21.951963582402826 $551 -14.448269332446131 $437 $552 forward 7 unknown #
coedge $-1 $303 $302 $444 $553 reversed $113 $-1 #
edge $-1 $554 -9.1551213131864128e-015 $441 9.6554504342919145 $435 $555 forward 7 unknown #
vertex $-1 $305 $556 #
straight-curve $-1 -0.66342936036860323 -21.719955635451178 9.1774407803834368 -1 0 0 I I #
coedge $-1 $434 $306 $309 $448 reversed $299 $-1 #
coedge $-1 $306 $434 $439 $553 forward $299 $-1 #
vertex $-1 $307 $557 #
straight-curve $-1 5.4664099680926483 -29.223649885407873 37.436761482118158 0 0 1 I I #
straight-curve $-1 5.4664099680926483 -29.223649885407866 3.101068861858792 0 -0.77714595512881146 -0.62932039886446345 I I #
edge $-1 $551 -8.1201274095670612 $311 5.4664099680926483 $443 $558 forward 7 unknown #
point $-1 5.4664099680926483 -29.223649885407873 9.1774407803834368 #
point $-1 5.4664099680926483 -21.719955635451178 9.1774407803834368 #
edge $-1 $559 1 $559 0 $314 $-1 forward 7 unknown #
vertex $-1 $315 $560 #
ellipse-curve $-1 -5.4028199340351222 -23.233045424877453 3.3746198101178186 0 -0.62932039886446345 0.77714595512881146 1 0 0 1 I I #
point $-1 -4.4028199340351222 -25.471802760429533 6.1392548211211153 #
edge $-1 $561 1 $561 0 $318 $-1 forward 7 unknown #
vertex $-1 $319 $562 #
ellipse-curve $-1 -1.3268587207372065 -23.233045424877453 3.3746198101178186 0 -0.62932039886446345 0.77714595512881146 1 0 0 1 I I #
point $-1 -0.32685872073720645 -25.471802760429533 6.1392548211211153 #
edge $-1 $563 1 $563 0 $322 $-1 forward 7 unknown #
vertex $-1 $323 $564 #
ellipse-curve $-1 2.7491024925607093 -23.233045424877453 3.3746198101178186 0 -0.62932039886446345 0.77714595512881146 1 0 0 1 I I #
point $-1 3.7491024925607093 -25.471802760429533 6.1392548211211153 #
loop $-1 $-1 $335 $326 #
plane-surface $-1 0 0 9.1774407803834368 0 0 1 1 0 0 forward_v I I I I #
coedge $-1 $329 $469 $338 $477 forward $210 $-1 #
edge $-1 $474 -9.6554504342919145 $470 9.1551213131864128e-015 $330 $565 forward 7 unknown #
coedge $-1 $335 $566 $331 $468 forward $463 $-1 #
edge $-1 $471 14.448269332446131 $474 21.951963582402826 $467 $567 forward 7 unknown #
coedge $-1 $465 $332 $566 $568 reversed $210 $-1 #
vertex $-1 $333 $569 #
vertex $-1 $333 $570 #
straight-curve $-1 19.052947345752358 -29.223649885407873 37.436761482118158 0 0 1 I I #
coedge $-1 $566 $335 $339 $478 forward $463 $-1 #
vertex $-1 $468 $571 #
straight-curve $-1 -0.66342936036860323 -21.719955635451178 9.1774407803834368 -1 0 0 I I #
straight-curve $-1 -0.66342936036860323 -29.223649885407873 3.1010688618587849 1 0 0 I I #
edge $-1 $572 28.259320701734723 $341 34.335692620259373 $465 $573 forward 7 unknown #
edge $-1 $340 -21.951963582402826 $572 -14.448269332446131 $473 $574 forward 7 unknown #
point $-1 5.4664099680926483 -21.719955635451178 9.1774407803834368 #
point $-1 5.4664099680926483 -29.223649885407873 3.1010688618587863 #
edge $-1 $575 1 $575 0 $343 $-1 forward 7 unknown #
vertex $-1 $344 $576 #
ellipse-curve $-1 8.1837174436245874 -23.233045424877453 3.3746198101178186 0 -0.62932039886446345 0.77714595512881146 1 0 0 1 I I #
point $-1 9.1837174436245874 -25.471802760429533 6.1392548211211153 #
edge $-1 $577 1 $577 0 $347 $-1 forward 7 unknown #
vertex $-1 $348 $578 #
ellipse-curve $-1 12.259678656922503 -23.233045424877453 3.3746198101178186 0 -0.62932039886446345 0.77714595512881146 1 0 0 1 I I #
point $-1 13.259678656922503 -25.471802760429533 6.1392548211211153 #
edge $-1 $579 1 $579 0 $351 $-1 forward 7 unknown #
vertex $-1 $352 $580 #
ellipse-curve $-1 16.335639870220419 -23.233045424877453 3.3746198101178186 0 -0.62932039886446345 0.77714595512881146 1 0 0 1 I I #
point $-1 17.335639870220419 -25.471802760429533 6.1392548211211153 #
plane-surface $-1 0 0 9.1774407803834368 0 0 1 1 0 0 forward_v I I I I #
coedge $-1 $504 $503 $496 $581 forward $356 $-1 #
coedge $-1 $496 $358 $360 $500 reversed $239 $-1 #
coedge $-1 $358 $495 $494 $581 reversed $239 $-1 #
coedge $-1 $366 $361 $358 $498 forward $367 $-1 #
edge $-1 $501 -8.141891800337369 $582 -5.5688796631258342 $497 $583 forward 7 unknown #
coedge $-1 $360 $359 $504 $584 reversed $151 $-1 #
edge $-1 $585 -58.447299770815718 $501 -54.069829978091086 $495 $586 forward 7 unknown #
vertex $-1 $362 $587 #
straight-curve $-1 15.223770761459075 26.650637748196338 9.177440780383435 1 0 0 I I #
coedge $-1 $494 $363 $366 $508 reversed $356 $-1 #
coedge $-1 $363 $494 $499 $584 forward $356 $-1 #
vertex $-1 $364 $588 #
straight-curve $-1 20.477454513224409 29.223649885407873 53.602553800509689 0 0 1 I I #
straight-curve $-1 20.477454513224409 -5.1308102978448318 52.920852558118185 0 0.5877852410284794 -0.80901700255871778 I I #
edge $-1 $582 -40.417628532611893 $368 -20.477454513224409 $503 $589 forward 7 unknown #
point $-1 20.477454513224409 29.223649885407873 9.1774407803834368 #
point $-1 20.477454513224409 26.650637748196338 9.177440780383435 #
edge $-1 $590 1 $590 0 $371 $-1 forward 7 unknown #
vertex $-1 $372 $591 #
ellipse-curve $-1 26.174647090192259 25.020169276859562 5.2874110408070534 0 0.80901700255871778 0.5877852410284794 1 0 0 1 I I #
point $-1 27.174647090192259 27.937143816802099 7.4067170351327052 #
edge $-1 $592 1 $592 0 $375 $-1 forward 7 unknown #
vertex $-1 $376 $593 #
ellipse-curve $-1 34.720435955644028 25.020169276859562 5.2874110408070534 0 0.80901700255871778 0.5877852410284794 1 0 0 1 I I #
point $-1 35.720435955644028 27.937143816802099 7.4067170351327052 #
plane-surface $-1 46.176946317941834 0 0 -1 0 0 0 0 1 forward_v I I I I #
coedge $-1 $384 $382 $386 $524 reversed $261 $-1 #
edge $-1 $397 -9.1774407803834368 $526 9.1774407803834368 $396 $594 forward 7 unknown #
vertex $-1 $524 $595 #
straight-curve $-1 -46.176946317941834 -29.223649885407873 0 0 0 -1 I I #
edge $-1 $522 -29.223649885407873 $526 29.223649885407873 $520 $596 forward 7 unknown #
straight-curve $-1 0 -29.223649885407873 -9.1774407803834368 -1 0 0 I I #
vertex $-1 $389 $597 #
straight-curve $-1 0 29.223649885407873 -9.1774407803834368 1 0 0 I I #
point $-1 46.176946317941834 29.223649885407873 -9.1774407803834368 #
point $-1 46.176946317941834 -29.223649885407873 -9.1774407803834368 #
straight-curve $-1 -46.176946317941834 0 9.1774407803834368 0 -1 0 I I #
point $-1 -46.176946317941834 29.223649885407873 9.1774407803834368 #
point $-1 -46.176946317941834 -29.223649885407873 9.1774407803834368 #
straight-curve $-1 46.176946317941834 -29.223649885407873 0 0 0 -1 I I #
straight-curve $-1 46.176946317941834 29.223649885407873 0 0 0 -1 I I #
plane-surface $-1 -46.176946317941834 0 0 1 0 0 0 0 -1 forward_v I I I I #
edge $-1 $418 7.4942353860848989 $422 12.940986411693491 $421 $598 forward 7 unknown #
edge $-1 $426 -12.940986411693491 $417 -7.4942353860848989 $424 $599 forward 7 unknown #
straight-curve $-1 -35.244126381756537 -23.158597310582685 0 0 0 -1 I I #
edge $-1 $542 -9.1774407803834368 $540 9.1774407803834368 $428 $600 forward 7 unknown #
vertex $-1 $539 $601 #
straight-curve $-1 -20.355268174924593 -17.711846284974094 -9.1774407803834368 1 0 0 I I #
vertex $-1 $429 $602 #
straight-curve $-1 -20.355268174924593 -17.711846284974094 9.1774407803834368 -1 0 0 I I #
point $-1 -35.244126381756537 -17.711846284974094 9.1774407803834368 #
point $-1 -35.244126381756537 -17.711846284974094 -9.1774407803834368 #
point $-1 -35.244126381756537 -23.158597310582685 -9.1774407803834368 #
point $-1 -35.244126381756537 -23.158597310582685 9.1774407803834368 #
straight-curve $-1 -46.176946317941834 0 9.1774407803834368 0 -1 0 I I #
straight-curve $-1 -46.176946317941834 0 -9.1774407803834368 0 1 0 I I #
edge $-1 $551 28.259320701734723 $554 34.335692620259373 $434 $603 forward 7 unknown #
vertex $-1 $448 $604 #
straight-curve $-1 -8.1201274095670612 -43.671919217854004 9.177440780383435 0 -1 0 I I #
edge $-1 $554 -7.456698049198458 $445 6.1298393284612516 $444 $605 forward 7 unknown #
vertex $-1 $553 $606 #
straight-curve $-1 -8.1201274095670612 -29.223649885407866 3.101068861858792 0 0.77714595512881146 0.62932039886446345 I I #
point $-1 -8.1201274095670612 -21.719955635451178 9.1774407803834368 #
point $-1 5.4664099680926483 -29.223649885407873 3.1010688618587863 #
straight-curve $-1 0 -29.223649885407873 9.1774407803834368 1 0 0 I I #
vertex $-1 $451 $607 #
point $-1 -4.4028199340351222 -23.233045424877453 3.3746198101178186 #
vertex $-1 $455 $608 #
point $-1 -0.32685872073720645 -23.233045424877453 3.3746198101178186 #
vertex $-1 $459 $609 #
point $-1 3.7491024925607093 -23.233045424877453 3.3746198101178186 #
straight-curve $-1 19.052947345752358 -29.223649885407866 3.101068861858792 0 -0.77714595512881146 -0.62932039886446345 I I #
coedge $-1 $467 $473 $469 $568 forward $463 $-1 #
straight-curve $-1 19.052947345752358 -43.671919217854004 9.177440780383435 0 1 0 I I #
edge $-1 $572 5.4664099680926483 $471 19.052947345752358 $469 $610 forward 7 unknown #
point $-1 19.052947345752358 -29.223649885407873 3.1010688618587863 #
point $-1 19.052947345752358 -29.223649885407873 9.1774407803834368 #
point $-1 19.052947345752358 -21.719955635451178 9.1774407803834368 #
vertex $-1 $568 $611 #
straight-curve $-1 5.4664099680926483 -29.223649885407873 37.436761482118158 0 0 -1 I I #
straight-curve $-1 5.4664099680926483 -43.671919217854004 9.177440780383435 0 -1 0 I I #
vertex $-1 $481 $612 #
point $-1 9.1837174436245874 -23.233045424877453 3.3746198101178186 #
vertex $-1 $485 $613 #
point $-1 13.259678656922503 -23.233045424877453 3.3746198101178186 #
vertex $-1 $489 $614 #
point $-1 17.335639870220419 -23.233045424877453 3.3746198101178186 #
edge $-1 $582 44.425113020126254 $585 47.966560510627673 $494 $615 forward 7 unknown #
vertex $-1 $508 $616 #
straight-curve $-1 40.417628532611893 34.792529548533707 9.177440780383435 0 1 0 I I #
edge $-1 $585 -25.193857771152818 $505 -5.2536837517653332 $504 $617 forward 7 unknown #
vertex $-1 $584 $618 #
straight-curve $-1 40.417628532611893 -5.1308102978448318 52.920852558118185 0 -0.5877852410284794 0.80901700255871778 I I #
point $-1 40.417628532611893 26.650637748196338 9.177440780383435 #
point $-1 20.477454513224409 29.223649885407873 5.6359932898820162 #
straight-curve $-1 0 29.223649885407873 9.1774407803834368 -1 0 0 I I #
vertex $-1 $511 $619 #
point $-1 27.174647090192259 25.020169276859562 5.2874110408070534 #
vertex $-1 $515 $620 #
point $-1 35.720435955644028 25.020169276859562 5.2874110408070534 #
straight-curve $-1 -46.176946317941834 29.223649885407873 0 0 0 -1 I I #
point $-1 -46.176946317941834 -29.223649885407873 -9.1774407803834368 #
straight-curve $-1 -46.176946317941834 0 -9.1774407803834368 0 1 0 I I #
point $-1 -46.176946317941834 29.223649885407873 -9.1774407803834368 #
straight-curve $-1 -35.244126381756537 -10.217610898889195 -9.1774407803834368 0 -1 0 I I #
straight-curve $-1 -35.244126381756537 -10.217610898889195 9.1774407803834368 0 1 0 I I #
straight-curve $-1 -46.176946317941834 -17.711846284974094 0 0 0 -1 I I #
point $-1 -46.176946317941834 -17.711846284974094 -9.1774407803834368 #
point $-1 -46.176946317941834 -17.711846284974094 9.1774407803834368 #
straight-curve $-1 -8.1201274095670612 -29.223649885407873 37.436761482118158 0 0 -1 I I #
point $-1 -8.1201274095670612 -29.223649885407873 9.1774407803834368 #
straight-curve $-1 -0.66342936036860323 -29.223649885407873 3.1010688618587849 1 0 0 I I #
point $-1 -8.1201274095670612 -29.223649885407873 3.1010688618587863 #
point $-1 -5.4028199340351222 -22.603725026012988 2.5974738549890071 #
point $-1 -1.3268587207372065 -22.603725026012988 2.5974738549890071 #
point $-1 2.7491024925607093 -22.603725026012988 2.5974738549890071 #
straight-curve $-1 0 -29.223649885407873 9.1774407803834368 1 0 0 I I #
point $-1 5.4664099680926483 -29.223649885407873 9.1774407803834368 #
point $-1 8.1837174436245874 -22.603725026012988 2.5974738549890071 #
point $-1 12.259678656922503 -22.603725026012988 2.5974738549890071 #
point $-1 16.335639870220419 -22.603725026012988 2.5974738549890071 #
straight-curve $-1 40.417628532611893 29.223649885407873 53.602553800509689 0 0 -1 I I #
point $-1 40.417628532611893 29.223649885407873 9.1774407803834368 #
straight-curve $-1 15.223770761459075 29.223649885407873 5.6359932898820198 -1 0 0 I I #
point $-1 40.417628532611893 29.223649885407873 5.6359932898820162 #
point $-1 26.174647090192259 24.211152274300844 4.6996257997785742 #
point $-1 34.720435955644028 24.211152274300844 4.6996257997785742 #
End-of-ACIS-data 