500 0 8 0           
7 Unknown 11 ACIS 5.0 NT 24 Fri Mar 26 19:58:01 1999 
-1 9.9999999999999995e-007 1e-010 
body $-1 $8 $-1 $9 #
body $-1 $10 $-1 $11 #
body $-1 $12 $-1 $13 #
body $-1 $14 $-1 $15 #
body $-1 $16 $-1 $17 #
body $-1 $18 $-1 $19 #
body $-1 $20 $-1 $21 #
body $-1 $22 $-1 $23 #
lump $-1 $-1 $24 $0 #
transform $-1 1 0 0 0 1 0 0 0 1 65.08011108737449 31.05620438266007 11.573262748368347 1 rotate no_reflect no_shear #
lump $-1 $-1 $25 $1 #
transform $-1 1 0 0 0 1 0 0 0 1 65.08011108737449 31.05620438266007 11.573262748368347 1 rotate no_reflect no_shear #
lump $-1 $-1 $26 $2 #
transform $-1 1 0 0 0 1 0 0 0 1 65.08011108737449 31.05620438266007 11.573262748368347 1 rotate no_reflect no_shear #
lump $-1 $-1 $27 $3 #
transform $-1 1 0 0 0 1 0 0 0 1 65.08011108737449 31.05620438266007 11.573262748368347 1 rotate no_reflect no_shear #
lump $-1 $-1 $28 $4 #
transform $-1 1 0 0 0 1 0 0 0 1 65.08011108737449 31.05620438266007 11.573262748368347 1 rotate no_reflect no_shear #
lump $-1 $-1 $29 $5 #
transform $-1 1 0 0 0 1 0 0 0 1 65.08011108737449 31.05620438266007 11.573262748368347 1 rotate no_reflect no_shear #
lump $-1 $-1 $30 $6 #
transform $-1 1 0 0 0 1 0 0 0 1 65.08011108737449 31.05620438266007 11.573262748368347 1 rotate no_reflect no_shear #
lump $-1 $-1 $31 $7 #
transform $-1 1 0 0 0 1 0 0 0 1 65.08011108737449 31.05620438266007 11.573262748368347 1 rotate no_reflect no_shear #
shell $-1 $-1 $-1 $32 $-1 $8 #
shell $-1 $-1 $-1 $33 $-1 $10 #
shell $-1 $-1 $-1 $34 $-1 $12 #
shell $-1 $-1 $-1 $35 $-1 $14 #
shell $-1 $-1 $-1 $36 $-1 $16 #
shell $-1 $-1 $-1 $37 $-1 $18 #
shell $-1 $-1 $-1 $38 $-1 $20 #
shell $-1 $-1 $-1 $39 $-1 $22 #
face $-1 $40 $41 $24 $-1 $42 forward single #
face $-1 $43 $44 $25 $-1 $45 forward single #
face $-1 $46 $47 $26 $-1 $48 reversed single #
face $-1 $49 $50 $27 $-1 $51 forward single #
face $-1 $52 $53 $28 $-1 $54 reversed single #
face $-1 $55 $56 $29 $-1 $57 forward single #
face $-1 $58 $59 $30 $-1 $60 forward single #
face $-1 $61 $62 $31 $-1 $63 forward single #
face $-1 $64 $65 $24 $-1 $66 reversed single #
loop $-1 $-1 $67 $32 #
plane-surface $-1 0 0 11.573262748368347 0 0 1 1 0 0 forward_v I I I I #
face $-1 $68 $69 $25 $-1 $70 reversed single #
loop $-1 $-1 $71 $33 #
plane-surface $-1 0 -31.05620438266007 0 0 1 0 0 0 1 forward_v I I I I #
face $-1 $72 $73 $26 $-1 $74 reversed single #
loop $-1 $-1 $75 $34 #
plane-surface $-1 65.080113223106679 21.505642773056636 189.39460431849352 0 1 0 0.70710678939079041 0 0.70710677298230451 forward_v I I I I #
face $-1 $76 $77 $27 $-1 $78 forward single #
loop $-1 $79 $80 $35 #
cone-surface $-1 60.995180537273164 26.280923577858353 7.4883321479564939 -0.70710678939079041 0 -0.70710677298230451 1.414213545964609 0 -1.4142135787815808 1 I I 0 1 2 forward I I I I #
face $-1 $81 $82 $28 $-1 $83 reversed single #
loop $-1 $-1 $84 $36 #
plane-surface $-1 -171.70112422563037 17.245497563121198 76.125699804864595 0 1 0 -0.81915205242281985 0 0.57357642473473569 forward_v I I I I #
face $-1 $85 $86 $29 $-1 $87 forward single #
loop $-1 $88 $89 $37 #
cone-surface $-1 -61.13294740620622 19.225753773679273 6.2342756254134111 0.81915205242281985 0 -0.57357642473473569 0.28678821236736785 0 0.40957602621140993 1 I I 0 1 0.5 forward I I I I #
face $-1 $90 $91 $30 $-1 $92 forward single #
loop $-1 $93 $94 $38 #
cone-surface $-1 -61.13294740620622 22.196138089516381 6.2342756254134111 0.81915205242281985 0 -0.57357642473473569 0.28678821236736785 0 0.40957602621140993 1 I I 0 1 0.5 forward I I I I #
face $-1 $95 $96 $31 $-1 $97 forward single #
loop $-1 $98 $99 $39 #
cone-surface $-1 -61.13294740620622 25.16652240535349 6.2342756254134111 0.81915205242281985 0 -0.57357642473473569 0.28678821236736785 0 0.40957602621140993 1 I I 0 1 0.5 forward I I I I #
face $-1 $100 $101 $24 $-1 $102 reversed single #
loop $-1 $-1 $103 $40 #
plane-surface $-1 0 0 -11.573262748368347 0 0 1 1 0 0 forward_v I I I I #
coedge $-1 $104 $105 $106 $107 forward $41 $-1 #
face $-1 $108 $109 $25 $-1 $110 forward single #
loop $-1 $-1 $111 $43 #
plane-surface $-1 -65.08011108737449 0 0 1 0 0 0 0 -1 forward_v I I I I #
coedge $-1 $112 $113 $114 $115 forward $44 $-1 #
face $-1 $116 $117 $26 $-1 $118 forward single #
loop $-1 $-1 $119 $46 #
plane-surface $-1 -26.957063585272039 26.280923577858353 97.357429645846977 0.70710678939079041 0 0.70710677298230451 0.70710677298230451 0 -0.70710678939079041 forward_v I I I I #
coedge $-1 $120 $121 $122 $123 reversed $47 $-1 #
face $-1 $-1 $124 $27 $-1 $125 forward single #
loop $-1 $126 $127 $49 #
cone-surface $-1 59.329648080680215 26.280923577858353 5.8227997300123953 -0.70710678939079041 0 -0.70710677298230451 0.70710677298230451 0 -0.70710678939079041 1 I I -0.70710678118654746 0.70710678118654746 1 forward I I I I #
loop $-1 $-1 $128 $35 #
coedge $-1 $80 $80 $129 $130 reversed $50 $-1 #
face $-1 $131 $132 $28 $-1 $133 reversed single #
loop $-1 $-1 $134 $52 #
plane-surface $-1 -65.080111087374505 22.196138089516381 1.4688649271932093 -0.81915205242281985 0 0.57357642473473569 0.57357642473473569 0 0.81915205242281985 forward_v I I I I #
coedge $-1 $135 $136 $137 $138 reversed $53 $-1 #
face $-1 $-1 $139 $29 $-1 $140 forward single #
loop $-1 $141 $142 $55 #
cone-surface $-1 -60.518583366889104 19.225753773679273 5.8040933068623595 0.81915205242281985 0 -0.57357642473473569 0.14339410618368392 0 0.20478801310570496 1 I I -0.70710678118654746 0.70710678118654746 0.25 forward I I I I #
loop $-1 $-1 $143 $37 #
coedge $-1 $89 $89 $144 $145 reversed $56 $-1 #
face $-1 $-1 $146 $30 $-1 $147 forward single #
loop $-1 $148 $149 $58 #
cone-surface $-1 -60.518583366889104 22.196138089516381 5.8040933068623595 0.81915205242281985 0 -0.57357642473473569 0.14339410618368392 0 0.20478801310570496 1 I I -0.70710678118654746 0.70710678118654746 0.25 forward I I I I #
loop $-1 $-1 $150 $38 #
coedge $-1 $94 $94 $151 $152 reversed $59 $-1 #
face $-1 $-1 $153 $31 $-1 $154 forward single #
loop $-1 $155 $156 $61 #
cone-surface $-1 -60.518583366889104 25.16652240535349 5.8040933068623595 0.81915205242281985 0 -0.57357642473473569 0.14339410618368392 0 0.20478801310570496 1 I I -0.70710678118654746 0.70710678118654746 0.25 forward I I I I #
loop $-1 $-1 $157 $39 #
coedge $-1 $99 $99 $158 $159 reversed $62 $-1 #
face $-1 $160 $161 $24 $-1 $162 reversed single #
loop $-1 $-1 $163 $64 #
plane-surface $-1 0 -31.05620438266007 0 0 1 0 0 0 1 forward_v I I I I #
coedge $-1 $164 $165 $166 $167 forward $65 $-1 #
coedge $-1 $168 $67 $169 $170 forward $41 $-1 #
coedge $-1 $67 $168 $171 $172 forward $41 $-1 #
coedge $-1 $173 $174 $67 $107 reversed $175 $-1 #
edge $-1 $176 -31.05620438266007 $177 31.05620438266007 $106 $178 forward 7 unknown #
face $-1 $179 $180 $25 $-1 $181 reversed single #
loop $-1 $-1 $182 $68 #
plane-surface $-1 0 -38.342909610148567 -1.918778010688035 0 0 1 1 0 0 forward_v I I I I #
coedge $-1 $183 $184 $113 $185 forward $69 $-1 #
coedge $-1 $186 $71 $187 $188 reversed $44 $-1 #
coedge $-1 $71 $186 $111 $185 reversed $44 $-1 #
coedge $-1 $189 $182 $71 $115 reversed $109 $-1 #
edge $-1 $190 -65.08011108737449 $191 65.08011108737449 $114 $192 forward 7 unknown #
face $-1 $193 $194 $26 $-1 $195 reversed single #
loop $-1 $-1 $196 $72 #
plane-surface $-1 0 0 11.573262748368347 0 0 1 1 0 0 forward_v I I I I #
coedge $-1 $197 $198 $199 $200 reversed $73 $-1 #
coedge $-1 $121 $75 $201 $202 reversed $47 $-1 #
coedge $-1 $75 $120 $197 $203 reversed $47 $-1 #
coedge $-1 $199 $204 $75 $123 forward $194 $-1 #
edge $-1 $205 83.12403941087841 $206 89.377049321778472 $122 $207 forward 7 unknown #
loop $-1 $-1 $129 $76 #
plane-surface $-1 -26.957063585272039 26.280923577858353 97.357429645846977 0.70710678939079041 0 0.70710677298230451 0.70710677298230451 0 -0.70710678939079041 forward_v I I I I #
loop $-1 $-1 $208 $49 #
coedge $-1 $127 $127 $128 $209 reversed $77 $-1 #
coedge $-1 $128 $128 $127 $209 forward $79 $-1 #
coedge $-1 $129 $129 $80 $130 forward $124 $-1 #
edge $-1 $210 0 $210 6.2831853071796004 $129 $211 forward 7 unknown #
face $-1 $212 $213 $28 $-1 $214 reversed single #
loop $-1 $-1 $215 $81 #
plane-surface $-1 -171.70112422563037 27.146778615911565 76.125699804864595 0 -1 0 0.81915205242281985 0 -0.57357642473473569 forward_v I I I I #
coedge $-1 $216 $217 $218 $219 reversed $82 $-1 #
coedge $-1 $136 $84 $220 $221 reversed $53 $-1 #
coedge $-1 $84 $135 $216 $222 reversed $53 $-1 #
coedge $-1 $218 $223 $84 $138 forward $224 $-1 #
edge $-1 $225 20.770451025440693 $226 27.845626335354403 $137 $227 forward 7 unknown #
loop $-1 $-1 $144 $85 #
plane-surface $-1 -65.080111087374505 22.196138089516381 1.4688649271932093 -0.81915205242281985 0 0.57357642473473569 0.57357642473473569 0 0.81915205242281985 forward_v I I I I #
loop $-1 $-1 $228 $55 #
coedge $-1 $142 $142 $143 $229 reversed $86 $-1 #
coedge $-1 $143 $143 $142 $229 forward $88 $-1 #
coedge $-1 $144 $144 $89 $145 forward $139 $-1 #
edge $-1 $230 0 $230 6.2831853071796004 $144 $231 forward 7 unknown #
loop $-1 $-1 $151 $90 #
plane-surface $-1 -65.080111087374505 22.196138089516381 1.4688649271932093 -0.81915205242281985 0 0.57357642473473569 0.57357642473473569 0 0.81915205242281985 forward_v I I I I #
loop $-1 $-1 $232 $58 #
coedge $-1 $149 $149 $150 $233 reversed $91 $-1 #
coedge $-1 $150 $150 $149 $233 forward $93 $-1 #
coedge $-1 $151 $151 $94 $152 forward $146 $-1 #
edge $-1 $234 0 $234 6.2831853071796004 $151 $235 forward 7 unknown #
loop $-1 $-1 $158 $95 #
plane-surface $-1 -65.080111087374505 22.196138089516381 1.4688649271932093 -0.81915205242281985 0 0.57357642473473569 0.57357642473473569 0 0.81915205242281985 forward_v I I I I #
loop $-1 $-1 $236 $61 #
coedge $-1 $156 $156 $157 $237 reversed $96 $-1 #
coedge $-1 $157 $157 $156 $237 forward $98 $-1 #
coedge $-1 $158 $158 $99 $159 forward $153 $-1 #
edge $-1 $238 0 $238 6.2831853071796004 $158 $239 forward 7 unknown #
face $-1 $240 $241 $24 $-1 $242 reversed single #
loop $-1 $-1 $243 $100 #
plane-surface $-1 -65.08011108737449 0 0 1 0 0 0 0 -1 forward_v I I I I #
coedge $-1 $244 $171 $245 $246 forward $101 $-1 #
coedge $-1 $247 $103 $244 $248 forward $65 $-1 #
coedge $-1 $103 $247 $249 $250 forward $65 $-1 #
coedge $-1 $174 $173 $103 $167 reversed $175 $-1 #
edge $-1 $251 -31.05620438266007 $252 31.05620438266007 $166 $253 forward 7 unknown #
coedge $-1 $105 $104 $254 $255 forward $41 $-1 #
coedge $-1 $256 $257 $104 $170 reversed $241 $-1 #
edge $-1 $177 -65.08011108737449 $258 65.08011108737449 $169 $259 forward 7 unknown #
coedge $-1 $163 $260 $105 $172 reversed $101 $-1 #
edge $-1 $261 -65.08011108737449 $176 65.08011108737449 $171 $262 forward 7 unknown #
coedge $-1 $166 $106 $260 $263 forward $175 $-1 #
coedge $-1 $106 $166 $256 $264 reversed $175 $-1 #
loop $-1 $-1 $173 $240 #
vertex $-1 $107 $265 #
vertex $-1 $107 $266 #
straight-curve $-1 65.08011108737449 0 11.573262748368347 0 1 0 I I #
face $-1 $267 $268 $25 $-1 $269 reversed single #
loop $-1 $-1 $270 $108 #
plane-surface $-1 0 -38.342909610148567 -4.9555100416314044 0 0 1 1 0 0 forward_v I I I I #
coedge $-1 $114 $271 $272 $273 forward $109 $-1 #
coedge $-1 $274 $111 $275 $276 reversed $69 $-1 #
coedge $-1 $111 $274 $189 $277 reversed $69 $-1 #
edge $-1 $190 1.918778010688035 $278 4.9555100416314044 $111 $279 forward 7 unknown #
coedge $-1 $113 $112 $280 $281 forward $44 $-1 #
coedge $-1 $272 $282 $112 $188 forward $283 $-1 #
edge $-1 $284 -4.9555100416314044 $191 -1.918778010688035 $187 $285 forward 7 unknown #
coedge $-1 $271 $114 $184 $277 forward $109 $-1 #
vertex $-1 $185 $286 #
vertex $-1 $273 $287 #
straight-curve $-1 0 -31.05620438266007 -1.918778010688035 1 0 0 I I #
face $-1 $-1 $288 $26 $-1 $289 reversed single #
loop $-1 $-1 $122 $116 #
plane-surface $-1 65.08011108737449 0 0 -1 0 0 0 0 1 forward_v I I I I #
coedge $-1 $201 $290 $291 $292 forward $117 $-1 #
coedge $-1 $291 $119 $121 $203 forward $73 $-1 #
coedge $-1 $119 $291 $293 $294 reversed $73 $-1 #
coedge $-1 $295 $122 $119 $200 forward $194 $-1 #
edge $-1 $206 8.3651809841274591 $296 17.915742593730894 $199 $297 forward 7 unknown #
coedge $-1 $298 $196 $120 $202 forward $117 $-1 #
edge $-1 $299 26.287044710022812 $205 32.540054475821151 $201 $300 forward 7 unknown #
edge $-1 $206 -130.16022217474898 $299 -121.31713085570314 $121 $301 forward 7 unknown #
coedge $-1 $122 $295 $298 $302 reversed $194 $-1 #
vertex $-1 $302 $303 #
vertex $-1 $123 $304 #
straight-curve $-1 65.08011108737449 21.505642773056636 94.69730215924676 0 0 -1 I I #
coedge $-1 $208 $208 $-1 $305 reversed $126 $-1 #
edge $-1 $306 0 $306 6.2831853071796004 $127 $307 forward 7 unknown #
vertex $-1 $130 $308 #
ellipse-curve $-1 61.953606204475335 26.280923577858353 8.4467577929182962 0.70710678939079041 0 0.70710677298230451 1.414213545964609 0 -1.4142135787815808 1 I I #
face $-1 $-1 $224 $28 $-1 $309 forward single #
loop $-1 $-1 $310 $131 #
plane-surface $-1 -65.08011108737449 0 0 1 0 0 0 0 -1 forward_v I I I I #
coedge $-1 $311 $312 $313 $314 reversed $132 $-1 #
coedge $-1 $315 $134 $136 $222 forward $82 $-1 #
coedge $-1 $134 $315 $311 $316 forward $82 $-1 #
coedge $-1 $313 $137 $134 $219 forward $224 $-1 #
edge $-1 $226 6.1474285183630073 $317 16.048709571153374 $218 $318 forward 7 unknown #
coedge $-1 $319 $320 $135 $221 forward $213 $-1 #
edge $-1 $321 -36.593984975239067 $225 -26.489587154063951 $220 $322 forward 7 unknown #
edge $-1 $226 -12.335191972344074 $321 -2.4702845980661902e-014 $136 $323 forward 7 unknown #
coedge $-1 $137 $313 $319 $324 forward $224 $-1 #
loop $-1 $-1 $313 $212 #
vertex $-1 $221 $325 #
vertex $-1 $138 $326 #
straight-curve $-1 -85.850562112815183 17.245497563121198 11.57326274836835 1 0 0 I I #
coedge $-1 $228 $228 $-1 $327 reversed $141 $-1 #
edge $-1 $328 0 $328 6.2831853071796004 $142 $329 forward 7 unknown #
vertex $-1 $145 $330 #
ellipse-curve $-1 -61.542523432417639 19.225753773679273 6.5210638377807841 -0.81915205242281985 0 0.57357642473473569 0.28678821236736785 0 0.40957602621140993 1 I I #
coedge $-1 $232 $232 $-1 $331 reversed $148 $-1 #
edge $-1 $332 0 $332 6.2831853071796004 $149 $333 forward 7 unknown #
vertex $-1 $152 $334 #
ellipse-curve $-1 -61.542523432417639 22.196138089516381 6.5210638377807841 -0.81915205242281985 0 0.57357642473473569 0.28678821236736785 0 0.40957602621140993 1 I I #
coedge $-1 $236 $236 $-1 $335 reversed $155 $-1 #
edge $-1 $336 0 $336 6.2831853071796004 $156 $337 forward 7 unknown #
vertex $-1 $159 $338 #
ellipse-curve $-1 -61.542523432417639 25.16652240535349 6.5210638377807841 -0.81915205242281985 0 0.57357642473473569 0.28678821236736785 0 0.40957602621140993 1 I I #
face $-1 $-1 $175 $24 $-1 $339 reversed single #
loop $-1 $-1 $256 $160 #
plane-surface $-1 0 31.05620438266007 0 0 -1 0 0 0 -1 forward_v I I I I #
coedge $-1 $340 $254 $257 $341 forward $161 $-1 #
coedge $-1 $260 $163 $164 $248 reversed $101 $-1 #
coedge $-1 $254 $340 $163 $246 reversed $161 $-1 #
edge $-1 $261 -11.573262748368347 $342 11.573262748368347 $245 $343 forward 7 unknown #
coedge $-1 $165 $164 $340 $344 forward $65 $-1 #
edge $-1 $252 -65.08011108737449 $342 65.08011108737449 $244 $345 forward 7 unknown #
coedge $-1 $257 $256 $165 $250 reversed $241 $-1 #
edge $-1 $346 -65.08011108737449 $251 65.08011108737449 $249 $347 forward 7 unknown #
vertex $-1 $167 $348 #
vertex $-1 $263 $349 #
straight-curve $-1 65.08011108737449 0 -11.573262748368347 0 -1 0 I I #
coedge $-1 $243 $245 $168 $255 reversed $161 $-1 #
edge $-1 $258 -31.05620438266007 $261 31.05620438266007 $254 $350 forward 7 unknown #
coedge $-1 $249 $169 $174 $264 forward $241 $-1 #
coedge $-1 $169 $249 $243 $341 reversed $241 $-1 #
vertex $-1 $170 $351 #
straight-curve $-1 0 31.05620438266007 11.573262748368347 -1 0 0 I I #
coedge $-1 $171 $244 $173 $263 reversed $101 $-1 #
vertex $-1 $255 $352 #
straight-curve $-1 0 -31.05620438266007 11.573262748368347 1 0 0 I I #
edge $-1 $176 -11.573262748368347 $252 11.573262748368347 $173 $353 forward 7 unknown #
edge $-1 $177 -11.573262748368347 $251 11.573262748368347 $174 $354 forward 7 unknown #
point $-1 65.08011108737449 -31.05620438266007 11.573262748368347 #
point $-1 65.08011108737449 31.05620438266007 11.573262748368347 #
face $-1 $-1 $283 $25 $-1 $355 reversed single #
loop $-1 $-1 $356 $179 #
plane-surface $-1 0 -45.629614837637064 -3.4371440261597197 0 1 0 0 0 1 forward_v I I I I #
coedge $-1 $357 $280 $282 $358 forward $180 $-1 #
coedge $-1 $182 $189 $359 $360 forward $109 $-1 #
coedge $-1 $361 $187 $182 $273 reversed $283 $-1 #
edge $-1 $362 -7.2867052274884969 $191 7.2867052274884934 $272 $363 forward 7 unknown #
coedge $-1 $184 $183 $356 $364 reversed $69 $-1 #
coedge $-1 $280 $357 $183 $276 forward $180 $-1 #
edge $-1 $365 -7.2867052274884969 $278 7.2867052274884934 $183 $366 forward 7 unknown #
edge $-1 $190 -7.2867052274884934 $367 7.2867052274884969 $184 $368 forward 7 unknown #
vertex $-1 $185 $369 #
straight-curve $-1 -65.08011108737449 -31.05620438266007 0 0 0 -1 I I #
coedge $-1 $270 $275 $186 $281 reversed $180 $-1 #
edge $-1 $284 -65.08011108737449 $278 65.08011108737449 $280 $370 forward 7 unknown #
coedge $-1 $187 $361 $270 $358 reversed $283 $-1 #
loop $-1 $-1 $187 $267 #
vertex $-1 $188 $371 #
straight-curve $-1 65.08011108737449 -31.05620438266007 0 0 0 1 I I #
point $-1 -65.08011108737449 -31.056204382660074 -1.918778010688035 #
point $-1 65.08011108737449 -31.056204382660074 -1.918778010688035 #
loop $-1 $-1 $293 $193 #
plane-surface $-1 0 31.05620438266007 0 0 -1 0 0 0 -1 forward_v I I I I #
coedge $-1 $196 $298 $372 $373 forward $117 $-1 #
coedge $-1 $198 $197 $196 $292 reversed $73 $-1 #
edge $-1 $374 -17.915742593730894 $299 -8.3651809841274591 $196 $375 forward 7 unknown #
coedge $-1 $372 $376 $198 $294 forward $288 $-1 #
edge $-1 $296 -86.20841130421141 $374 -77.36531998516557 $293 $377 forward 7 unknown #
coedge $-1 $204 $199 $376 $378 reversed $194 $-1 #
vertex $-1 $200 $379 #
straight-curve $-1 65.08011108737449 13.140461788929176 5.3202528374682814 0 1 0 I I #
coedge $-1 $290 $201 $204 $302 forward $117 $-1 #
vertex $-1 $202 $380 #
straight-curve $-1 32.540056611553339 21.505642773056636 11.57326274836835 1 0 0 I I #
straight-curve $-1 -26.957063585272039 21.505642773056636 97.357429645846977 -0.70710677298230451 0 0.70710678939079041 I I #
edge $-1 $205 21.505642773056636 $381 31.05620438266007 $204 $382 forward 7 unknown #
point $-1 65.08011108737449 21.505642773056636 11.573262748368347 #
point $-1 65.080111087374476 21.505642773056636 5.3202528374682885 #
edge $-1 $383 1 $383 0 $208 $-1 forward 7 unknown #
vertex $-1 $209 $384 #
ellipse-curve $-1 60.036754870071007 26.280923577858353 6.5299065029946997 0.70710678939079041 0 0.70710677298230451 1.414213545964609 0 -1.4142135787815808 1 I I #
point $-1 63.367819750439935 26.280923577858353 7.0325442141367072 #
plane-surface $-1 0 0 11.573262748368347 0 0 1 1 0 0 forward_v I I I I #
coedge $-1 $320 $319 $312 $385 forward $213 $-1 #
coedge $-1 $312 $215 $217 $316 reversed $132 $-1 #
coedge $-1 $215 $311 $310 $385 reversed $132 $-1 #
coedge $-1 $223 $218 $215 $314 forward $224 $-1 #
edge $-1 $317 -27.845626335354403 $386 -20.770451025440693 $313 $387 forward 7 unknown #
coedge $-1 $217 $216 $320 $388 reversed $82 $-1 #
edge $-1 $389 2.4702845980661902e-014 $317 12.335191972344074 $311 $390 forward 7 unknown #
vertex $-1 $219 $391 #
straight-curve $-1 -58.00493577746078 11.098069044758191 11.573262748368347 0 1 0 I I #
coedge $-1 $310 $220 $223 $324 reversed $213 $-1 #
coedge $-1 $220 $310 $315 $388 forward $213 $-1 #
vertex $-1 $221 $392 #
straight-curve $-1 -65.08011108737449 17.245497563121198 38.062849902432298 0 0 1 I I #
straight-curve $-1 -65.080111087374505 17.245497563121198 1.4688649271932093 -0.57357642473473569 0 -0.81915205242281985 I I #
edge $-1 $386 -27.146778615911565 $225 -17.245497563121198 $319 $393 forward 7 unknown #
point $-1 -65.08011108737449 17.245497563121198 11.573262748368347 #
point $-1 -58.00493577746078 17.245497563121198 11.573262748368347 #
edge $-1 $394 1 $394 0 $228 $-1 forward 7 unknown #
vertex $-1 $229 $395 #
ellipse-curve $-1 -60.723371379994809 19.225753773679273 5.9474874130460433 -0.81915205242281985 0 0.57357642473473569 0.28678821236736785 0 0.40957602621140993 1 I I #
point $-1 -61.255735220050262 19.225753773679273 6.9306398639921891 #
edge $-1 $396 1 $396 0 $232 $-1 forward 7 unknown #
vertex $-1 $233 $397 #
ellipse-curve $-1 -60.723371379994809 22.196138089516381 5.9474874130460433 -0.81915205242281985 0 0.57357642473473569 0.28678821236736785 0 0.40957602621140993 1 I I #
point $-1 -61.255735220050262 22.196138089516381 6.9306398639921891 #
edge $-1 $398 1 $398 0 $236 $-1 forward 7 unknown #
vertex $-1 $237 $399 #
ellipse-curve $-1 -60.723371379994809 25.16652240535349 5.9474874130460433 -0.81915205242281985 0 0.57357642473473569 0.28678821236736785 0 0.40957602621140993 1 I I #
point $-1 -61.255735220050262 25.16652240535349 6.9306398639921891 #
plane-surface $-1 65.08011108737449 0 0 -1 0 0 0 0 1 forward_v I I I I #
coedge $-1 $245 $243 $247 $344 reversed $161 $-1 #
edge $-1 $258 -11.573262748368347 $346 11.573262748368347 $257 $400 forward 7 unknown #
vertex $-1 $344 $401 #
straight-curve $-1 -65.08011108737449 -31.05620438266007 0 0 0 -1 I I #
edge $-1 $342 -31.05620438266007 $346 31.05620438266007 $340 $402 forward 7 unknown #
straight-curve $-1 0 -31.05620438266007 -11.573262748368347 -1 0 0 I I #
vertex $-1 $250 $403 #
straight-curve $-1 0 31.05620438266007 -11.573262748368347 1 0 0 I I #
point $-1 65.08011108737449 31.05620438266007 -11.573262748368347 #
point $-1 65.08011108737449 -31.05620438266007 -11.573262748368347 #
straight-curve $-1 -65.08011108737449 0 11.573262748368347 0 -1 0 I I #
point $-1 -65.08011108737449 31.05620438266007 11.573262748368347 #
point $-1 -65.08011108737449 -31.05620438266007 11.573262748368347 #
straight-curve $-1 65.08011108737449 -31.05620438266007 0 0 0 -1 I I #
straight-curve $-1 65.08011108737449 31.05620438266007 0 0 0 -1 I I #
plane-surface $-1 65.08011108737449 0 0 -1 0 0 0 0 1 forward_v I I I I #
coedge $-1 $404 $359 $274 $364 forward $268 $-1 #
coedge $-1 $275 $270 $404 $405 forward $180 $-1 #
edge $-1 $284 -7.2867052274884934 $406 7.2867052274884969 $282 $407 forward 7 unknown #
coedge $-1 $356 $408 $271 $360 reversed $268 $-1 #
edge $-1 $367 -65.08011108737449 $362 65.08011108737449 $359 $409 forward 7 unknown #
coedge $-1 $282 $272 $408 $410 forward $283 $-1 #
vertex $-1 $273 $411 #
straight-curve $-1 65.08011108737449 -38.342909610148567 -1.918778010688035 0 1 0 I I #
edge $-1 $367 -1.5183660154716847 $365 1.5183660154716847 $274 $412 forward 7 unknown #
vertex $-1 $276 $413 #
straight-curve $-1 -65.08011108737449 -38.342909610148567 -4.9555100416314044 0 1 0 I I #
vertex $-1 $277 $414 #
straight-curve $-1 -65.08011108737449 -38.342909610148567 -1.918778010688035 0 -1 0 I I #
point $-1 -65.08011108737449 -31.056204382660074 -4.9555100416314044 #
straight-curve $-1 0 -31.05620438266007 -4.9555100416314044 -1 0 0 I I #
point $-1 65.08011108737449 -31.056204382660074 -4.9555100416314044 #
coedge $-1 $376 $293 $290 $373 reversed $288 $-1 #
edge $-1 $381 -65.08011108737449 $374 -58.827101321576151 $372 $415 forward 7 unknown #
vertex $-1 $294 $416 #
straight-curve $-1 58.827101321576166 13.140461788929176 11.573262748368343 0 -1 0 I I #
coedge $-1 $293 $372 $295 $378 forward $288 $-1 #
straight-curve $-1 4.1215595661223468 31.05620438266007 66.278805773269923 -0.70710677298230462 0 0.70710678939079052 I I #
edge $-1 $381 -11.573262748368347 $296 -5.3202528374682814 $295 $417 forward 7 unknown #
point $-1 65.08011108737449 31.05620438266007 5.3202528374682814 #
point $-1 58.827101321576151 21.505642773056636 11.57326274836835 #
vertex $-1 $302 $418 #
straight-curve $-1 65.08011108737449 0 11.573262748368347 0 1 0 I I #
vertex $-1 $305 $419 #
point $-1 61.450968416035614 26.280923577858353 5.1156929242131186 #
edge $-1 $386 26.489587154063951 $389 36.593984975239067 $310 $420 forward 7 unknown #
vertex $-1 $324 $421 #
straight-curve $-1 -85.850562112815183 27.146778615911565 11.57326274836835 -1 0 0 I I #
edge $-1 $389 -16.048709571153374 $321 -6.1474285183630073 $320 $422 forward 7 unknown #
vertex $-1 $388 $423 #
straight-curve $-1 -65.080111087374505 27.146778615911565 1.4688649271932093 0.57357642473473569 0 0.81915205242281985 I I #
point $-1 -58.00493577746078 27.146778615911565 11.573262748368347 #
point $-1 -65.08011108737449 17.245497563121198 1.4688649271932295 #
straight-curve $-1 -65.08011108737449 0 11.573262748368347 0 -1 0 I I #
vertex $-1 $327 $424 #
point $-1 -60.43658316762744 19.225753773679273 6.3570634392574537 #
vertex $-1 $331 $425 #
point $-1 -60.43658316762744 22.196138089516381 6.3570634392574537 #
vertex $-1 $335 $426 #
point $-1 -60.43658316762744 25.16652240535349 6.3570634392574537 #
straight-curve $-1 -65.08011108737449 31.05620438266007 0 0 0 -1 I I #
point $-1 -65.08011108737449 -31.05620438266007 -11.573262748368347 #
straight-curve $-1 -65.08011108737449 0 -11.573262748368347 0 1 0 I I #
point $-1 -65.08011108737449 31.05620438266007 -11.573262748368347 #
coedge $-1 $408 $356 $357 $405 reversed $268 $-1 #
edge $-1 $406 -65.08011108737449 $365 65.08011108737449 $404 $427 forward 7 unknown #
vertex $-1 $410 $428 #
straight-curve $-1 65.08011108737449 -38.342909610148567 -4.9555100416314044 0 -1 0 I I #
coedge $-1 $359 $404 $361 $410 reversed $268 $-1 #
straight-curve $-1 0 -45.629614837637064 -1.918778010688035 1 0 0 I I #
edge $-1 $362 -1.5183660154716847 $406 1.5183660154716847 $361 $429 forward 7 unknown #
point $-1 65.08011108737449 -45.629614837637064 -1.918778010688035 #
straight-curve $-1 -65.08011108737449 -45.629614837637064 -3.4371440261597197 0 0 -1 I I #
point $-1 -65.08011108737449 -45.629614837637064 -4.9555100416314044 #
point $-1 -65.08011108737449 -45.629614837637064 -1.918778010688035 #
straight-curve $-1 0 31.05620438266007 11.573262748368347 -1 0 0 I I #
point $-1 58.827101321576151 31.05620438266007 11.57326274836835 #
straight-curve $-1 65.08011108737449 31.05620438266007 0 0 0 -1 I I #
point $-1 65.08011108737449 31.05620438266007 11.573262748368347 #
point $-1 58.622541291289423 26.280923577858353 5.1156929570300909 #
straight-curve $-1 -65.08011108737449 27.146778615911565 38.062849902432298 0 0 -1 I I #
point $-1 -65.08011108737449 27.146778615911565 11.573262748368347 #
straight-curve $-1 -65.08011108737449 11.098069044758191 1.4688649271932133 0 -1 0 I I #
point $-1 -65.08011108737449 27.146778615911565 1.4688649271932295 #
point $-1 -60.313795353783398 19.225753773679273 5.6606992006786756 #
point $-1 -60.313795353783398 22.196138089516381 5.6606992006786756 #
point $-1 -60.313795353783398 25.16652240535349 5.6606992006786756 #
straight-curve $-1 0 -45.629614837637064 -4.9555100416314044 -1 0 0 I I #
point $-1 65.08011108737449 -45.629614837637064 -4.9555100416314044 #
straight-curve $-1 65.08011108737449 -45.629614837637064 -3.4371440261597197 0 0 -1 I I #
End-of-ACIS-data 