500 0 14 0           
7 Unknown 11 ACIS 5.0 NT 24 Fri Mar 26 01:02:43 1999 
-1 9.9999999999999995e-007 1e-010 
body $-1 $14 $-1 $15 #
body $-1 $16 $-1 $17 #
body $-1 $18 $-1 $19 #
body $-1 $20 $-1 $21 #
body $-1 $22 $-1 $23 #
body $-1 $24 $-1 $25 #
body $-1 $26 $-1 $27 #
body $-1 $28 $-1 $29 #
body $-1 $30 $-1 $31 #
body $-1 $32 $-1 $33 #
body $-1 $34 $-1 $35 #
body $-1 $36 $-1 $37 #
body $-1 $38 $-1 $39 #
body $-1 $40 $-1 $41 #
lump $-1 $-1 $42 $0 #
transform $-1 1 0 0 0 1 0 0 0 1 65.005645924253059 37.979311062163163 11.02648341308544 1 rotate no_reflect no_shear #
lump $-1 $-1 $43 $1 #
transform $-1 1 0 0 0 1 0 0 0 1 65.005645924253059 37.979311062163163 11.02648341308544 1 rotate no_reflect no_shear #
lump $-1 $-1 $44 $2 #
transform $-1 1 0 0 0 1 0 0 0 1 65.005645924253059 37.979311062163163 11.02648341308544 1 rotate no_reflect no_shear #
lump $-1 $-1 $45 $3 #
transform $-1 1 0 0 0 1 0 0 0 1 65.005645924253059 37.979311062163163 11.02648341308544 1 rotate no_reflect no_shear #
lump $-1 $-1 $46 $4 #
transform $-1 1 0 0 0 1 0 0 0 1 65.005645924253059 37.979311062163163 11.02648341308544 1 rotate no_reflect no_shear #
lump $-1 $-1 $47 $5 #
transform $-1 1 0 0 0 1 0 0 0 1 65.005645924253059 37.979311062163163 11.02648341308544 1 rotate no_reflect no_shear #
lump $-1 $-1 $48 $6 #
transform $-1 1 0 0 0 1 0 0 0 1 65.005645924253059 37.979311062163163 11.02648341308544 1 rotate no_reflect no_shear #
lump $-1 $-1 $49 $7 #
transform $-1 1 0 0 0 1 0 0 0 1 65.005645924253059 37.979311062163163 11.02648341308544 1 rotate no_reflect no_shear #
lump $-1 $-1 $50 $8 #
transform $-1 1 0 0 0 1 0 0 0 1 65.005645924253059 37.979311062163163 11.02648341308544 1 rotate no_reflect no_shear #
lump $-1 $-1 $51 $9 #
transform $-1 1 0 0 0 1 0 0 0 1 65.005645924253059 37.979311062163163 11.02648341308544 1 rotate no_reflect no_shear #
lump $-1 $-1 $52 $10 #
transform $-1 1 0 0 0 1 0 0 0 1 65.005645924253059 37.979311062163163 11.02648341308544 1 rotate no_reflect no_shear #
lump $-1 $-1 $53 $11 #
transform $-1 1 0 0 0 1 0 0 0 1 65.005645924253059 37.979311062163163 11.02648341308544 1 rotate no_reflect no_shear #
lump $-1 $-1 $54 $12 #
transform $-1 1 0 0 0 1 0 0 0 1 65.005645924253059 37.979311062163163 11.02648341308544 1 rotate no_reflect no_shear #
lump $-1 $-1 $55 $13 #
transform $-1 1 0 0 0 1 0 0 0 1 65.005645924253059 37.979311062163163 11.02648341308544 1 rotate no_reflect no_shear #
shell $-1 $-1 $-1 $56 $-1 $14 #
shell $-1 $-1 $-1 $57 $-1 $16 #
shell $-1 $-1 $-1 $58 $-1 $18 #
shell $-1 $-1 $-1 $59 $-1 $20 #
shell $-1 $-1 $-1 $60 $-1 $22 #
shell $-1 $-1 $-1 $61 $-1 $24 #
shell $-1 $-1 $-1 $62 $-1 $26 #
shell $-1 $-1 $-1 $63 $-1 $28 #
shell $-1 $-1 $-1 $64 $-1 $30 #
shell $-1 $-1 $-1 $65 $-1 $32 #
shell $-1 $-1 $-1 $66 $-1 $34 #
shell $-1 $-1 $-1 $67 $-1 $36 #
shell $-1 $-1 $-1 $68 $-1 $38 #
shell $-1 $-1 $-1 $69 $-1 $40 #
face $-1 $70 $71 $42 $-1 $72 forward single #
face $-1 $73 $74 $43 $-1 $75 forward single #
face $-1 $76 $77 $44 $-1 $78 reversed single #
face $-1 $79 $80 $45 $-1 $81 forward single #
face $-1 $82 $83 $46 $-1 $84 forward single #
face $-1 $85 $86 $47 $-1 $87 reversed single #
face $-1 $88 $89 $48 $-1 $90 forward single #
face $-1 $91 $92 $49 $-1 $93 forward single #
face $-1 $94 $95 $50 $-1 $96 reversed single #
face $-1 $97 $98 $51 $-1 $99 forward single #
face $-1 $100 $101 $52 $-1 $102 forward single #
face $-1 $103 $104 $53 $-1 $105 reversed single #
face $-1 $106 $107 $54 $-1 $108 forward single #
face $-1 $109 $110 $55 $-1 $111 forward single #
face $-1 $112 $113 $42 $-1 $114 reversed single #
loop $-1 $-1 $115 $56 #
plane-surface $-1 0 0 11.02648341308544 0 0 1 1 0 0 forward_v I I I I #
face $-1 $116 $117 $43 $-1 $118 reversed single #
loop $-1 $-1 $119 $57 #
plane-surface $-1 -59.114168276321934 0 -6.6146113028648541 0 0 1 1 0 0 forward_v I I I I #
face $-1 $120 $121 $44 $-1 $122 reversed single #
loop $-1 $-1 $123 $58 #
plane-surface $-1 -53.222690628390801 -136.10007963497816 85.361463808322839 1 0 0 0 0.75470958851134928 -0.65605901945558964 forward_v I I I I #
face $-1 $124 $125 $45 $-1 $126 forward single #
loop $-1 $127 $128 $59 #
cone-surface $-1 -49.716236377525732 -32.268198900538472 4.7228907105475342 0 0.75470958851134928 -0.65605901945558964 1 0 0 1 I I 0 1 1 forward I I I I #
face $-1 $129 $130 $46 $-1 $131 forward single #
loop $-1 $132 $133 $60 #
cone-surface $-1 -44.456555001228125 -32.268198900538472 4.7228907105475342 0 0.75470958851134928 -0.65605901945558964 1 0 0 1 I I 0 1 1 forward I I I I #
face $-1 $134 $135 $47 $-1 $136 reversed single #
loop $-1 $-1 $137 $61 #
plane-surface $-1 -17.904108403518773 -136.10007963497816 85.361463808322839 1 0 0 0 0.75470958851134928 -0.65605901945558964 forward_v I I I I #
face $-1 $138 $139 $48 $-1 $140 forward single #
loop $-1 $141 $142 $62 #
cone-surface $-1 -14.397654152653701 -32.268198900538472 4.7228907105475342 0 0.75470958851134928 -0.65605901945558964 1 0 0 1 I I 0 1 1 forward I I I I #
face $-1 $143 $144 $49 $-1 $145 forward single #
loop $-1 $146 $147 $63 #
cone-surface $-1 -9.1379727763560936 -32.268198900538472 4.7228907105475342 0 0.75470958851134928 -0.65605901945558964 1 0 0 1 I I 0 1 1 forward I I I I #
face $-1 $148 $149 $50 $-1 $150 reversed single #
loop $-1 $-1 $151 $64 #
plane-surface $-1 17.414473821353258 -136.10007963497816 85.361463808322839 1 0 0 0 0.75470958851134928 -0.65605901945558964 forward_v I I I I #
face $-1 $152 $153 $51 $-1 $154 forward single #
loop $-1 $155 $156 $65 #
cone-surface $-1 20.920928072218345 -32.268198900538472 4.7228907105475342 0 0.75470958851134928 -0.65605901945558964 1 0 0 1 I I 0 1 1 forward I I I I #
face $-1 $157 $158 $52 $-1 $159 forward single #
loop $-1 $160 $161 $66 #
cone-surface $-1 26.180609448515952 -32.268198900538472 4.7228907105475342 0 0.75470958851134928 -0.65605901945558964 1 0 0 1 I I 0 1 1 forward I I I I #
face $-1 $162 $163 $53 $-1 $164 reversed single #
loop $-1 $-1 $165 $67 #
plane-surface $-1 52.733056046225308 -136.10007963497816 85.361463808322839 1 0 0 0 0.75470958851134928 -0.65605901945558964 forward_v I I I I #
face $-1 $166 $167 $54 $-1 $168 forward single #
loop $-1 $169 $170 $68 #
cone-surface $-1 56.239510297090391 -32.268198900538472 4.7228907105475342 0 0.75470958851134928 -0.65605901945558964 1 0 0 1 I I 0 1 1 forward I I I I #
face $-1 $171 $172 $55 $-1 $173 forward single #
loop $-1 $174 $175 $69 #
cone-surface $-1 61.499191673387998 -32.268198900538472 4.7228907105475342 0 0.75470958851134928 -0.65605901945558964 1 0 0 1 I I 0 1 1 forward I I I I #
face $-1 $176 $177 $42 $-1 $178 reversed single #
loop $-1 $-1 $179 $70 #
plane-surface $-1 0 0 -11.02648341308544 0 0 1 1 0 0 forward_v I I I I #
coedge $-1 $180 $181 $182 $183 forward $71 $-1 #
face $-1 $184 $185 $43 $-1 $186 reversed single #
loop $-1 $-1 $187 $73 #
plane-surface $-1 -53.222690628390808 0 -8.8205473579751477 -1 0 0 0 0 1 forward_v I I I I #
coedge $-1 $188 $189 $190 $191 forward $74 $-1 #
face $-1 $192 $193 $44 $-1 $194 reversed single #
loop $-1 $-1 $195 $76 #
plane-surface $-1 -47.086395689376928 -37.979311062163163 0.066383160037418065 0 -0.75470958851134928 0.65605901945558964 1 0 0 forward_v I I I I #
coedge $-1 $196 $197 $198 $199 reversed $77 $-1 #
face $-1 $-1 $200 $45 $-1 $201 forward single #
loop $-1 $202 $203 $79 #
cone-surface $-1 -49.716236377525732 -30.943466720661629 3.5713186248058442 0 0.75470958851134928 -0.65605901945558964 0.5 0 0 1 I I -0.70710678118654746 0.70710678118654746 0.5 forward I I I I #
loop $-1 $-1 $204 $59 #
coedge $-1 $128 $128 $205 $206 reversed $80 $-1 #
face $-1 $-1 $207 $46 $-1 $208 forward single #
loop $-1 $209 $210 $82 #
cone-surface $-1 -44.456555001228125 -30.943466720661629 3.5713186248058442 0 0.75470958851134928 -0.65605901945558964 0.5 0 0 1 I I -0.70710678118654746 0.70710678118654746 0.5 forward I I I I #
loop $-1 $-1 $211 $60 #
coedge $-1 $133 $133 $212 $213 reversed $83 $-1 #
face $-1 $214 $215 $47 $-1 $216 reversed single #
loop $-1 $-1 $217 $85 #
plane-surface $-1 -11.767813464504897 -37.979311062163163 0.066383160037418065 0 -0.75470958851134928 0.65605901945558964 1 0 0 forward_v I I I I #
coedge $-1 $218 $219 $220 $221 reversed $86 $-1 #
face $-1 $-1 $222 $48 $-1 $223 forward single #
loop $-1 $224 $225 $88 #
cone-surface $-1 -14.397654152653701 -30.943466720661629 3.5713186248058442 0 0.75470958851134928 -0.65605901945558964 0.5 0 0 1 I I -0.70710678118654746 0.70710678118654746 0.5 forward I I I I #
loop $-1 $-1 $226 $62 #
coedge $-1 $142 $142 $227 $228 reversed $89 $-1 #
face $-1 $-1 $229 $49 $-1 $230 forward single #
loop $-1 $231 $232 $91 #
cone-surface $-1 -9.1379727763560936 -30.943466720661629 3.5713186248058442 0 0.75470958851134928 -0.65605901945558964 0.5 0 0 1 I I -0.70710678118654746 0.70710678118654746 0.5 forward I I I I #
loop $-1 $-1 $233 $63 #
coedge $-1 $147 $147 $234 $235 reversed $92 $-1 #
face $-1 $236 $237 $50 $-1 $238 reversed single #
loop $-1 $-1 $239 $94 #
plane-surface $-1 23.550768760367134 -37.979311062163163 0.066383160037418065 0 -0.75470958851134928 0.65605901945558964 1 0 0 forward_v I I I I #
coedge $-1 $240 $241 $242 $243 reversed $95 $-1 #
face $-1 $-1 $244 $51 $-1 $245 forward single #
loop $-1 $246 $247 $97 #
cone-surface $-1 20.920928072218345 -30.943466720661629 3.5713186248058442 0 0.75470958851134928 -0.65605901945558964 0.5 0 0 1 I I -0.70710678118654746 0.70710678118654746 0.5 forward I I I I #
loop $-1 $-1 $248 $65 #
coedge $-1 $156 $156 $249 $250 reversed $98 $-1 #
face $-1 $-1 $251 $52 $-1 $252 forward single #
loop $-1 $253 $254 $100 #
cone-surface $-1 26.180609448515952 -30.943466720661629 3.5713186248058442 0 0.75470958851134928 -0.65605901945558964 0.5 0 0 1 I I -0.70710678118654746 0.70710678118654746 0.5 forward I I I I #
loop $-1 $-1 $255 $66 #
coedge $-1 $161 $161 $256 $257 reversed $101 $-1 #
face $-1 $258 $259 $53 $-1 $260 reversed single #
loop $-1 $-1 $261 $103 #
plane-surface $-1 58.86935098523918 -37.979311062163163 0.066383160037418065 0 -0.75470958851134928 0.65605901945558964 1 0 0 forward_v I I I I #
coedge $-1 $262 $263 $264 $265 reversed $104 $-1 #
face $-1 $-1 $266 $54 $-1 $267 forward single #
loop $-1 $268 $269 $106 #
cone-surface $-1 56.239510297090391 -30.943466720661629 3.5713186248058442 0 0.75470958851134928 -0.65605901945558964 0.5 0 0 1 I I -0.70710678118654746 0.70710678118654746 0.5 forward I I I I #
loop $-1 $-1 $270 $68 #
coedge $-1 $170 $170 $271 $272 reversed $107 $-1 #
face $-1 $-1 $273 $55 $-1 $274 forward single #
loop $-1 $275 $276 $109 #
cone-surface $-1 61.499191673387998 -30.943466720661629 3.5713186248058442 0 0.75470958851134928 -0.65605901945558964 0.5 0 0 1 I I -0.70710678118654746 0.70710678118654746 0.5 forward I I I I #
loop $-1 $-1 $277 $69 #
coedge $-1 $175 $175 $278 $279 reversed $110 $-1 #
face $-1 $280 $281 $42 $-1 $282 reversed single #
loop $-1 $-1 $283 $112 #
plane-surface $-1 0 -37.979311062163163 0 0 1 0 0 0 1 forward_v I I I I #
coedge $-1 $284 $285 $286 $287 forward $113 $-1 #
coedge $-1 $288 $115 $289 $290 forward $71 $-1 #
coedge $-1 $115 $288 $291 $292 forward $71 $-1 #
coedge $-1 $293 $294 $115 $183 reversed $295 $-1 #
edge $-1 $296 -37.979311062163163 $297 37.979311062163163 $182 $298 forward 7 unknown #
face $-1 $299 $300 $43 $-1 $301 reversed single #
loop $-1 $-1 $302 $116 #
plane-surface $-1 0 0 -11.02648341308544 0 0 1 1 0 0 forward_v I I I I #
coedge $-1 $303 $190 $304 $305 reversed $117 $-1 #
coedge $-1 $306 $119 $307 $308 reversed $74 $-1 #
coedge $-1 $119 $306 $309 $310 reversed $74 $-1 #
coedge $-1 $187 $311 $119 $191 reversed $117 $-1 #
edge $-1 $312 -37.979311062163163 $313 37.979311062163163 $190 $314 forward 7 unknown #
face $-1 $315 $316 $44 $-1 $317 forward single #
loop $-1 $-1 $318 $120 #
plane-surface $-1 -40.950100750363056 -136.10007963497816 85.361463808322839 -1 0 0 0 -0.75470958851134928 0.65605901945558964 forward_v I I I I #
coedge $-1 $319 $320 $321 $322 reversed $121 $-1 #
coedge $-1 $197 $123 $323 $324 reversed $77 $-1 #
coedge $-1 $123 $196 $319 $325 reversed $77 $-1 #
coedge $-1 $321 $326 $123 $199 forward $327 $-1 #
edge $-1 $328 31.654248491075979 $329 42.614348744124001 $198 $330 forward 7 unknown #
loop $-1 $-1 $205 $124 #
plane-surface $-1 -47.086395689376928 -37.979311062163163 0.066383160037418065 0 -0.75470958851134928 0.65605901945558964 1 0 0 forward_v I I I I #
loop $-1 $-1 $331 $79 #
coedge $-1 $203 $203 $204 $332 reversed $125 $-1 #
coedge $-1 $204 $204 $203 $332 forward $127 $-1 #
coedge $-1 $205 $205 $128 $206 forward $200 $-1 #
edge $-1 $333 0 $333 6.2831853071796004 $205 $334 forward 7 unknown #
loop $-1 $-1 $212 $129 #
plane-surface $-1 -47.086395689376928 -37.979311062163163 0.066383160037418065 0 -0.75470958851134928 0.65605901945558964 1 0 0 forward_v I I I I #
loop $-1 $-1 $335 $82 #
coedge $-1 $210 $210 $211 $336 reversed $130 $-1 #
coedge $-1 $211 $211 $210 $336 forward $132 $-1 #
coedge $-1 $212 $212 $133 $213 forward $207 $-1 #
edge $-1 $337 0 $337 6.2831853071796004 $212 $338 forward 7 unknown #
face $-1 $339 $340 $47 $-1 $341 reversed single #
loop $-1 $-1 $342 $134 #
plane-surface $-1 -5.6315185254910221 -136.10007963497816 85.361463808322839 -1 0 0 0 -0.75470958851134928 0.65605901945558964 forward_v I I I I #
coedge $-1 $343 $344 $345 $346 reversed $135 $-1 #
coedge $-1 $219 $137 $347 $348 reversed $86 $-1 #
coedge $-1 $137 $218 $343 $349 reversed $86 $-1 #
coedge $-1 $345 $350 $137 $221 forward $340 $-1 #
edge $-1 $351 31.654248491075979 $352 42.614348744124001 $220 $353 forward 7 unknown #
loop $-1 $-1 $227 $138 #
plane-surface $-1 -11.767813464504897 -37.979311062163163 0.066383160037418065 0 -0.75470958851134928 0.65605901945558964 1 0 0 forward_v I I I I #
loop $-1 $-1 $354 $88 #
coedge $-1 $225 $225 $226 $355 reversed $139 $-1 #
coedge $-1 $226 $226 $225 $355 forward $141 $-1 #
coedge $-1 $227 $227 $142 $228 forward $222 $-1 #
edge $-1 $356 0 $356 6.2831853071796004 $227 $357 forward 7 unknown #
loop $-1 $-1 $234 $143 #
plane-surface $-1 -11.767813464504897 -37.979311062163163 0.066383160037418065 0 -0.75470958851134928 0.65605901945558964 1 0 0 forward_v I I I I #
loop $-1 $-1 $358 $91 #
coedge $-1 $232 $232 $233 $359 reversed $144 $-1 #
coedge $-1 $233 $233 $232 $359 forward $146 $-1 #
coedge $-1 $234 $234 $147 $235 forward $229 $-1 #
edge $-1 $360 0 $360 6.2831853071796004 $234 $361 forward 7 unknown #
face $-1 $362 $363 $50 $-1 $364 reversed single #
loop $-1 $-1 $365 $148 #
plane-surface $-1 29.68706369938101 -136.10007963497816 85.361463808322839 -1 0 0 0 -0.75470958851134928 0.65605901945558964 forward_v I I I I #
coedge $-1 $366 $367 $368 $369 reversed $149 $-1 #
coedge $-1 $241 $151 $370 $371 reversed $95 $-1 #
coedge $-1 $151 $240 $366 $372 reversed $95 $-1 #
coedge $-1 $368 $373 $151 $243 forward $363 $-1 #
edge $-1 $374 31.654248491075979 $375 42.614348744124001 $242 $376 forward 7 unknown #
loop $-1 $-1 $249 $152 #
plane-surface $-1 23.550768760367134 -37.979311062163163 0.066383160037418065 0 -0.75470958851134928 0.65605901945558964 1 0 0 forward_v I I I I #
loop $-1 $-1 $377 $97 #
coedge $-1 $247 $247 $248 $378 reversed $153 $-1 #
coedge $-1 $248 $248 $247 $378 forward $155 $-1 #
coedge $-1 $249 $249 $156 $250 forward $244 $-1 #
edge $-1 $379 0 $379 6.2831853071796004 $249 $380 forward 7 unknown #
loop $-1 $-1 $256 $157 #
plane-surface $-1 23.550768760367134 -37.979311062163163 0.066383160037418065 0 -0.75470958851134928 0.65605901945558964 1 0 0 forward_v I I I I #
loop $-1 $-1 $381 $100 #
coedge $-1 $254 $254 $255 $382 reversed $158 $-1 #
coedge $-1 $255 $255 $254 $382 forward $160 $-1 #
coedge $-1 $256 $256 $161 $257 forward $251 $-1 #
edge $-1 $383 0 $383 6.2831853071796004 $256 $384 forward 7 unknown #
face $-1 $385 $386 $53 $-1 $387 forward single #
loop $-1 $-1 $264 $162 #
plane-surface $-1 0 -37.979311062163163 0 0 1 0 0 0 1 forward_v I I I I #
coedge $-1 $388 $389 $390 $391 reversed $163 $-1 #
coedge $-1 $263 $165 $392 $393 reversed $104 $-1 #
coedge $-1 $165 $262 $388 $394 reversed $104 $-1 #
coedge $-1 $390 $395 $165 $265 forward $259 $-1 #
edge $-1 $396 31.654248491075979 $397 42.614348744124001 $264 $398 forward 7 unknown #
loop $-1 $-1 $271 $166 #
plane-surface $-1 58.86935098523918 -37.979311062163163 0.066383160037418065 0 -0.75470958851134928 0.65605901945558964 1 0 0 forward_v I I I I #
loop $-1 $-1 $399 $106 #
coedge $-1 $269 $269 $270 $400 reversed $167 $-1 #
coedge $-1 $270 $270 $269 $400 forward $169 $-1 #
coedge $-1 $271 $271 $170 $272 forward $266 $-1 #
edge $-1 $401 0 $401 6.2831853071796004 $271 $402 forward 7 unknown #
loop $-1 $-1 $278 $171 #
plane-surface $-1 58.86935098523918 -37.979311062163163 0.066383160037418065 0 -0.75470958851134928 0.65605901945558964 1 0 0 forward_v I I I I #
loop $-1 $-1 $403 $109 #
coedge $-1 $276 $276 $277 $404 reversed $172 $-1 #
coedge $-1 $277 $277 $276 $404 forward $174 $-1 #
coedge $-1 $278 $278 $175 $279 forward $273 $-1 #
edge $-1 $405 0 $405 6.2831853071796004 $278 $406 forward 7 unknown #
face $-1 $407 $408 $42 $-1 $409 reversed single #
loop $-1 $-1 $410 $176 #
plane-surface $-1 -65.005645924253059 0 0 1 0 0 0 0 -1 forward_v I I I I #
coedge $-1 $411 $291 $412 $413 forward $177 $-1 #
coedge $-1 $414 $179 $411 $415 forward $113 $-1 #
coedge $-1 $179 $414 $416 $417 forward $113 $-1 #
coedge $-1 $294 $293 $179 $287 reversed $295 $-1 #
edge $-1 $418 -37.979311062163163 $419 37.979311062163163 $286 $420 forward 7 unknown #
coedge $-1 $181 $180 $421 $422 forward $71 $-1 #
coedge $-1 $423 $424 $180 $290 reversed $408 $-1 #
edge $-1 $297 -65.005645924253059 $425 65.005645924253059 $289 $426 forward 7 unknown #
coedge $-1 $283 $427 $181 $292 reversed $177 $-1 #
edge $-1 $428 -65.005645924253059 $296 65.005645924253059 $291 $429 forward 7 unknown #
coedge $-1 $286 $182 $427 $430 forward $295 $-1 #
coedge $-1 $182 $286 $423 $431 reversed $295 $-1 #
loop $-1 $-1 $293 $407 #
vertex $-1 $183 $432 #
vertex $-1 $183 $433 #
straight-curve $-1 65.005645924253059 0 11.02648341308544 0 1 0 I I #
face $-1 $434 $435 $43 $-1 $436 reversed single #
loop $-1 $-1 $304 $184 #
plane-surface $-1 0 -37.979311062163163 0 0 1 0 0 0 1 forward_v I I I I #
coedge $-1 $437 $438 $303 $439 forward $185 $-1 #
coedge $-1 $311 $187 $302 $439 reversed $117 $-1 #
coedge $-1 $309 $440 $187 $305 forward $300 $-1 #
edge $-1 $441 -6.6162097340978665 $312 -2.2043376238772803 $304 $442 forward 7 unknown #
coedge $-1 $189 $188 $443 $444 reversed $74 $-1 #
coedge $-1 $445 $446 $188 $308 forward $447 $-1 #
edge $-1 $448 -35.448561786092093 $313 -23.665606490229841 $307 $449 forward 7 unknown #
coedge $-1 $450 $304 $189 $310 forward $300 $-1 #
edge $-1 $312 23.665606490229841 $451 35.448561786092093 $309 $452 forward 7 unknown #
coedge $-1 $190 $303 $445 $453 reversed $117 $-1 #
vertex $-1 $310 $454 #
vertex $-1 $308 $455 #
straight-curve $-1 -53.222690628390808 0 -6.6146113028648541 0 1 0 I I #
face $-1 $-1 $327 $44 $-1 $456 reversed single #
loop $-1 $-1 $457 $192 #
plane-surface $-1 0 0 11.02648341308544 0 0 1 1 0 0 forward_v I I I I #
coedge $-1 $458 $459 $460 $461 reversed $193 $-1 #
coedge $-1 $462 $195 $197 $325 forward $121 $-1 #
coedge $-1 $195 $462 $458 $463 forward $121 $-1 #
coedge $-1 $460 $198 $195 $322 forward $327 $-1 #
edge $-1 $329 -29.679492783702337 $464 -17.406902905674592 $321 $465 forward 7 unknown #
coedge $-1 $466 $467 $196 $324 forward $316 $-1 #
edge $-1 $468 -39.598198307332964 $328 -30.070728755325916 $323 $469 forward 7 unknown #
edge $-1 $329 0 $468 14.52227508420374 $197 $470 forward 7 unknown #
coedge $-1 $198 $460 $466 $471 reversed $327 $-1 #
loop $-1 $-1 $460 $315 #
vertex $-1 $471 $472 #
vertex $-1 $199 $473 #
straight-curve $-1 -53.222690628390801 -37.979311062163163 42.680731904161419 0 0 -1 I I #
coedge $-1 $331 $331 $-1 $474 reversed $202 $-1 #
edge $-1 $475 0 $475 6.2831853071796004 $203 $476 forward 7 unknown #
vertex $-1 $206 $477 #
ellipse-curve $-1 -49.716236377525732 -33.215576286159639 5.5464332865614292 0 -0.75470958851134928 0.65605901945558964 1 0 0 1 I I #
coedge $-1 $335 $335 $-1 $478 reversed $209 $-1 #
edge $-1 $479 0 $479 6.2831853071796004 $210 $480 forward 7 unknown #
vertex $-1 $213 $481 #
ellipse-curve $-1 -44.456555001228125 -33.215576286159639 5.5464332865614292 0 -0.75470958851134928 0.65605901945558964 1 0 0 1 I I #
face $-1 $-1 $482 $47 $-1 $483 forward single #
loop $-1 $-1 $220 $214 #
plane-surface $-1 0 -37.979311062163163 0 0 1 0 0 0 1 forward_v I I I I #
coedge $-1 $484 $485 $486 $487 reversed $215 $-1 #
coedge $-1 $488 $217 $219 $349 forward $135 $-1 #
coedge $-1 $217 $488 $484 $489 forward $135 $-1 #
coedge $-1 $486 $220 $217 $346 forward $340 $-1 #
edge $-1 $352 -12.020201671266324 $490 0.25238820676142648 $345 $491 forward 7 unknown #
coedge $-1 $492 $493 $218 $348 forward $482 $-1 #
edge $-1 $494 -39.598198307332964 $351 -30.070728755325916 $347 $495 forward 7 unknown #
edge $-1 $352 0 $494 14.52227508420374 $219 $496 forward 7 unknown #
coedge $-1 $220 $486 $492 $497 reversed $340 $-1 #
vertex $-1 $497 $498 #
vertex $-1 $221 $499 #
straight-curve $-1 -17.904108403518773 -37.979311062163163 42.680731904161419 0 0 -1 I I #
coedge $-1 $354 $354 $-1 $500 reversed $224 $-1 #
edge $-1 $501 0 $501 6.2831853071796004 $225 $502 forward 7 unknown #
vertex $-1 $228 $503 #
ellipse-curve $-1 -14.397654152653701 -33.215576286159639 5.5464332865614292 0 -0.75470958851134928 0.65605901945558964 1 0 0 1 I I #
coedge $-1 $358 $358 $-1 $504 reversed $231 $-1 #
edge $-1 $505 0 $505 6.2831853071796004 $232 $506 forward 7 unknown #
vertex $-1 $235 $507 #
ellipse-curve $-1 -9.1379727763560936 -33.215576286159639 5.5464332865614292 0 -0.75470958851134928 0.65605901945558964 1 0 0 1 I I #
face $-1 $-1 $508 $50 $-1 $509 forward single #
loop $-1 $-1 $242 $236 #
plane-surface $-1 0 -37.979311062163163 0 0 1 0 0 0 1 forward_v I I I I #
coedge $-1 $510 $511 $512 $513 reversed $237 $-1 #
coedge $-1 $514 $239 $241 $372 forward $149 $-1 #
coedge $-1 $239 $514 $510 $515 forward $149 $-1 #
coedge $-1 $512 $242 $239 $369 forward $363 $-1 #
edge $-1 $375 5.6390894411696912 $516 17.911679319197443 $368 $517 forward 7 unknown #
coedge $-1 $518 $519 $240 $371 forward $508 $-1 #
edge $-1 $520 -39.598198307332964 $374 -30.070728755325916 $370 $521 forward 7 unknown #
edge $-1 $375 0 $520 14.52227508420374 $241 $522 forward 7 unknown #
coedge $-1 $242 $512 $518 $523 reversed $363 $-1 #
vertex $-1 $523 $524 #
vertex $-1 $243 $525 #
straight-curve $-1 17.414473821353258 -37.979311062163163 42.680731904161419 0 0 -1 I I #
coedge $-1 $377 $377 $-1 $526 reversed $246 $-1 #
edge $-1 $527 0 $527 6.2831853071796004 $247 $528 forward 7 unknown #
vertex $-1 $250 $529 #
ellipse-curve $-1 20.920928072218345 -33.215576286159639 5.5464332865614292 0 -0.75470958851134928 0.65605901945558964 1 0 0 1 I I #
coedge $-1 $381 $381 $-1 $530 reversed $253 $-1 #
edge $-1 $531 0 $531 6.2831853071796004 $254 $532 forward 7 unknown #
vertex $-1 $257 $533 #
ellipse-curve $-1 26.180609448515952 -33.215576286159639 5.5464332865614292 0 -0.75470958851134928 0.65605901945558964 1 0 0 1 I I #
face $-1 $-1 $534 $53 $-1 $535 reversed single #
loop $-1 $-1 $392 $258 #
plane-surface $-1 0 0 11.02648341308544 0 0 1 1 0 0 forward_v I I I I #
coedge $-1 $536 $261 $263 $394 forward $163 $-1 #
coedge $-1 $261 $536 $537 $538 reversed $163 $-1 #
coedge $-1 $539 $264 $261 $391 forward $259 $-1 #
edge $-1 $397 23.298380553605718 $540 35.570970431633469 $390 $541 forward 7 unknown #
coedge $-1 $542 $543 $262 $393 forward $386 $-1 #
edge $-1 $544 -39.598198307332964 $396 -30.070728755325916 $392 $545 forward 7 unknown #
edge $-1 $397 0 $544 14.52227508420374 $263 $546 forward 7 unknown #
coedge $-1 $264 $539 $542 $547 reversed $259 $-1 #
vertex $-1 $547 $548 #
vertex $-1 $265 $549 #
straight-curve $-1 52.733056046225308 -37.979311062163163 42.680731904161419 0 0 -1 I I #
coedge $-1 $399 $399 $-1 $550 reversed $268 $-1 #
edge $-1 $551 0 $551 6.2831853071796004 $269 $552 forward 7 unknown #
vertex $-1 $272 $553 #
ellipse-curve $-1 56.239510297090391 -33.215576286159639 5.5464332865614292 0 -0.75470958851134928 0.65605901945558964 1 0 0 1 I I #
coedge $-1 $403 $403 $-1 $554 reversed $275 $-1 #
edge $-1 $555 0 $555 6.2831853071796004 $276 $556 forward 7 unknown #
vertex $-1 $279 $557 #
ellipse-curve $-1 61.499191673387998 -33.215576286159639 5.5464332865614292 0 -0.75470958851134928 0.65605901945558964 1 0 0 1 I I #
face $-1 $-1 $295 $42 $-1 $558 reversed single #
loop $-1 $-1 $423 $280 #
plane-surface $-1 0 37.979311062163163 0 0 -1 0 0 0 -1 forward_v I I I I #
coedge $-1 $559 $421 $424 $560 forward $281 $-1 #
coedge $-1 $427 $283 $284 $415 reversed $177 $-1 #
coedge $-1 $421 $559 $283 $413 reversed $281 $-1 #
edge $-1 $428 -11.02648341308544 $561 11.02648341308544 $412 $562 forward 7 unknown #
coedge $-1 $285 $284 $559 $563 forward $113 $-1 #
edge $-1 $419 -65.005645924253059 $561 65.005645924253059 $411 $564 forward 7 unknown #
coedge $-1 $424 $423 $285 $417 reversed $408 $-1 #
edge $-1 $565 -65.005645924253059 $418 65.005645924253059 $416 $566 forward 7 unknown #
vertex $-1 $287 $567 #
vertex $-1 $430 $568 #
straight-curve $-1 65.005645924253059 0 -11.02648341308544 0 -1 0 I I #
coedge $-1 $410 $412 $288 $422 reversed $281 $-1 #
edge $-1 $425 -37.979311062163163 $428 37.979311062163163 $421 $569 forward 7 unknown #
coedge $-1 $416 $289 $294 $431 forward $408 $-1 #
coedge $-1 $289 $416 $410 $560 reversed $408 $-1 #
vertex $-1 $290 $570 #
straight-curve $-1 0 37.979311062163163 11.02648341308544 -1 0 0 I I #
coedge $-1 $291 $411 $293 $430 reversed $177 $-1 #
vertex $-1 $422 $571 #
straight-curve $-1 0 -37.979311062163163 11.02648341308544 1 0 0 I I #
edge $-1 $296 -11.02648341308544 $419 11.02648341308544 $293 $572 forward 7 unknown #
edge $-1 $297 -11.02648341308544 $418 11.02648341308544 $294 $573 forward 7 unknown #
point $-1 65.005645924253059 -37.979311062163163 11.02648341308544 #
point $-1 65.005645924253059 37.979311062163163 11.02648341308544 #
face $-1 $-1 $447 $43 $-1 $574 reversed single #
loop $-1 $-1 $443 $299 #
plane-surface $-1 -65.005645924253059 0 0 1 0 0 0 0 -1 forward_v I I I I #
coedge $-1 $575 $302 $440 $576 forward $185 $-1 #
coedge $-1 $302 $575 $577 $578 forward $185 $-1 #
edge $-1 $579 -37.979311062163163 $441 37.979311062163163 $302 $580 forward 7 unknown #
coedge $-1 $304 $450 $437 $576 reversed $300 $-1 #
vertex $-1 $576 $581 #
straight-curve $-1 -53.222690628390808 -37.979311062163163 -4.4102736789875738 0 0 1 I I #
coedge $-1 $582 $583 $306 $444 forward $435 $-1 #
edge $-1 $451 -37.979311062163163 $448 37.979311062163163 $443 $584 forward 7 unknown #
coedge $-1 $577 $307 $311 $453 forward $447 $-1 #
coedge $-1 $307 $577 $582 $585 reversed $447 $-1 #
loop $-1 $-1 $445 $434 #
vertex $-1 $585 $586 #
straight-curve $-1 -29.557084138160967 37.979311062163163 -6.6146113028648541 1 0 0 I I #
coedge $-1 $440 $309 $583 $587 forward $300 $-1 #
vertex $-1 $587 $588 #
straight-curve $-1 -29.557084138160967 -37.979311062163163 -6.6146113028648541 -1 0 0 I I #
edge $-1 $313 2.2043376238772803 $579 6.6162097340978665 $445 $589 forward 7 unknown #
point $-1 -53.222690628390808 -37.979311062163163 -6.6146113028648541 #
point $-1 -53.222690628390808 37.979311062163163 -6.6146113028648541 #
plane-surface $-1 0 -37.979311062163163 0 0 1 0 0 0 1 forward_v I I I I #
coedge $-1 $467 $466 $459 $590 forward $316 $-1 #
coedge $-1 $459 $318 $320 $463 reversed $193 $-1 #
coedge $-1 $318 $458 $457 $590 reversed $193 $-1 #
coedge $-1 $326 $321 $318 $461 forward $327 $-1 #
edge $-1 $464 -42.614348744124001 $591 -31.654248491075979 $460 $592 forward 7 unknown #
coedge $-1 $320 $319 $467 $593 reversed $121 $-1 #
edge $-1 $594 -14.52227508420374 $464 0 $458 $595 forward 7 unknown #
vertex $-1 $322 $596 #
straight-curve $-1 -23.543197844688464 -37.979311062163163 0.066383160037417538 1 0 0 I I #
coedge $-1 $457 $323 $326 $471 forward $316 $-1 #
coedge $-1 $323 $457 $462 $593 forward $316 $-1 #
vertex $-1 $324 $597 #
straight-curve $-1 -53.222690628390801 -68.050039817489079 11.026483413085437 0 -1 0 I I #
straight-curve $-1 -53.222690628390801 -37.979311062163163 0.066383160037418065 0 0.65605901945558964 0.75470958851134928 I I #
edge $-1 $328 -53.222690628390801 $591 -40.950100750363056 $326 $598 forward 7 unknown #
point $-1 -53.222690628390801 -37.979311062163163 11.02648341308544 #
point $-1 -53.222690628390801 -37.979311062163163 0.066383160037418065 #
edge $-1 $599 1 $599 0 $331 $-1 forward 7 unknown #
vertex $-1 $332 $600 #
ellipse-curve $-1 -49.716236377525732 -31.320821514917302 3.8993481345336392 0 -0.75470958851134928 0.65605901945558964 1 0 0 1 I I #
point $-1 -48.716236377525732 -33.215576286159639 5.5464332865614292 #
edge $-1 $601 1 $601 0 $335 $-1 forward 7 unknown #
vertex $-1 $336 $602 #
ellipse-curve $-1 -44.456555001228125 -31.320821514917302 3.8993481345336392 0 -0.75470958851134928 0.65605901945558964 1 0 0 1 I I #
point $-1 -43.456555001228125 -33.215576286159639 5.5464332865614292 #
loop $-1 $-1 $347 $339 #
plane-surface $-1 0 0 11.02648341308544 0 0 1 1 0 0 forward_v I I I I #
coedge $-1 $485 $342 $344 $489 reversed $215 $-1 #
coedge $-1 $342 $484 $603 $604 reversed $215 $-1 #
coedge $-1 $350 $345 $342 $487 forward $340 $-1 #
edge $-1 $490 -42.614348744124001 $605 -31.654248491075979 $486 $606 forward 7 unknown #
coedge $-1 $344 $343 $493 $607 reversed $135 $-1 #
edge $-1 $608 -14.52227508420374 $490 0 $484 $609 forward 7 unknown #
vertex $-1 $346 $610 #
straight-curve $-1 -5.8839067322524485 -37.979311062163163 0.066383160037417538 1 0 0 I I #
coedge $-1 $603 $347 $350 $497 forward $482 $-1 #
coedge $-1 $347 $603 $488 $607 forward $482 $-1 #
vertex $-1 $348 $611 #
straight-curve $-1 -17.904108403518773 -68.050039817489079 11.026483413085437 0 -1 0 I I #
straight-curve $-1 -17.904108403518773 -37.979311062163163 0.066383160037418065 0 0.65605901945558964 0.75470958851134928 I I #
edge $-1 $351 -17.904108403518773 $605 -5.6315185254910221 $350 $612 forward 7 unknown #
point $-1 -17.904108403518773 -37.979311062163163 11.02648341308544 #
point $-1 -17.904108403518773 -37.979311062163163 0.066383160037418065 #
edge $-1 $613 1 $613 0 $354 $-1 forward 7 unknown #
vertex $-1 $355 $614 #
ellipse-curve $-1 -14.397654152653701 -31.320821514917302 3.8993481345336392 0 -0.75470958851134928 0.65605901945558964 1 0 0 1 I I #
point $-1 -13.397654152653701 -33.215576286159639 5.5464332865614292 #
edge $-1 $615 1 $615 0 $358 $-1 forward 7 unknown #
vertex $-1 $359 $616 #
ellipse-curve $-1 -9.1379727763560936 -31.320821514917302 3.8993481345336392 0 -0.75470958851134928 0.65605901945558964 1 0 0 1 I I #
point $-1 -8.1379727763560936 -33.215576286159639 5.5464332865614292 #
loop $-1 $-1 $370 $362 #
plane-surface $-1 0 0 11.02648341308544 0 0 1 1 0 0 forward_v I I I I #
coedge $-1 $511 $365 $367 $515 reversed $237 $-1 #
coedge $-1 $365 $510 $617 $618 reversed $237 $-1 #
coedge $-1 $373 $368 $365 $513 forward $363 $-1 #
edge $-1 $516 -42.614348744124001 $619 -31.654248491075979 $512 $620 forward 7 unknown #
coedge $-1 $367 $366 $519 $621 reversed $149 $-1 #
edge $-1 $622 -14.52227508420374 $516 0 $510 $623 forward 7 unknown #
vertex $-1 $369 $624 #
straight-curve $-1 11.775384380183567 -37.979311062163163 0.066383160037417538 1 0 0 I I #
coedge $-1 $617 $370 $373 $523 forward $508 $-1 #
coedge $-1 $370 $617 $514 $621 forward $508 $-1 #
vertex $-1 $371 $625 #
straight-curve $-1 17.414473821353258 -68.050039817489079 11.026483413085437 0 -1 0 I I #
straight-curve $-1 17.414473821353258 -37.979311062163163 0.066383160037418065 0 0.65605901945558964 0.75470958851134928 I I #
edge $-1 $374 17.414473821353258 $619 29.68706369938101 $373 $626 forward 7 unknown #
point $-1 17.414473821353258 -37.979311062163163 11.02648341308544 #
point $-1 17.414473821353258 -37.979311062163163 0.066383160037418065 #
edge $-1 $627 1 $627 0 $377 $-1 forward 7 unknown #
vertex $-1 $378 $628 #
ellipse-curve $-1 20.920928072218345 -31.320821514917302 3.8993481345336392 0 -0.75470958851134928 0.65605901945558964 1 0 0 1 I I #
point $-1 21.920928072218345 -33.215576286159639 5.5464332865614292 #
edge $-1 $629 1 $629 0 $381 $-1 forward 7 unknown #
vertex $-1 $382 $630 #
ellipse-curve $-1 26.180609448515952 -31.320821514917302 3.8993481345336392 0 -0.75470958851134928 0.65605901945558964 1 0 0 1 I I #
point $-1 27.180609448515952 -33.215576286159639 5.5464332865614292 #
loop $-1 $-1 $537 $385 #
plane-surface $-1 65.005645924253059 0 0 -1 0 0 0 0 1 forward_v I I I I #
coedge $-1 $389 $388 $543 $631 reversed $163 $-1 #
coedge $-1 $632 $633 $389 $538 forward $534 $-1 #
edge $-1 $540 -12.433284783822835 $634 2.0889903003809023 $537 $635 forward 7 unknown #
coedge $-1 $395 $390 $633 $636 reversed $259 $-1 #
vertex $-1 $391 $637 #
straight-curve $-1 29.43467549261959 -37.979311062163163 0.066383160037417538 1 0 0 I I #
coedge $-1 $638 $392 $395 $547 forward $386 $-1 #
coedge $-1 $392 $638 $536 $631 forward $386 $-1 #
vertex $-1 $393 $639 #
straight-curve $-1 52.733056046225308 -68.050039817489079 11.026483413085437 0 -1 0 I I #
straight-curve $-1 52.733056046225308 -37.979311062163163 0.066383160037418065 0 0.65605901945558964 0.75470958851134928 I I #
edge $-1 $396 52.733056046225308 $640 65.005645924253059 $395 $641 forward 7 unknown #
point $-1 52.733056046225308 -37.979311062163163 11.02648341308544 #
point $-1 52.733056046225308 -37.979311062163163 0.066383160037418065 #
edge $-1 $642 1 $642 0 $399 $-1 forward 7 unknown #
vertex $-1 $400 $643 #
ellipse-curve $-1 56.239510297090391 -31.320821514917302 3.8993481345336392 0 -0.75470958851134928 0.65605901945558964 1 0 0 1 I I #
point $-1 57.239510297090391 -33.215576286159639 5.5464332865614292 #
edge $-1 $644 1 $644 0 $403 $-1 forward 7 unknown #
vertex $-1 $404 $645 #
ellipse-curve $-1 61.499191673387998 -31.320821514917302 3.8993481345336392 0 -0.75470958851134928 0.65605901945558964 1 0 0 1 I I #
point $-1 62.499191673387998 -33.215576286159639 5.5464332865614292 #
plane-surface $-1 65.005645924253059 0 0 -1 0 0 0 0 1 forward_v I I I I #
coedge $-1 $412 $410 $414 $563 reversed $281 $-1 #
edge $-1 $425 -11.02648341308544 $565 11.02648341308544 $424 $646 forward 7 unknown #
vertex $-1 $563 $647 #
straight-curve $-1 -65.005645924253059 -37.979311062163163 0 0 0 -1 I I #
edge $-1 $561 -37.979311062163163 $565 37.979311062163163 $559 $648 forward 7 unknown #
straight-curve $-1 0 -37.979311062163163 -11.02648341308544 -1 0 0 I I #
vertex $-1 $417 $649 #
straight-curve $-1 0 37.979311062163163 -11.02648341308544 1 0 0 I I #
point $-1 65.005645924253059 37.979311062163163 -11.02648341308544 #
point $-1 65.005645924253059 -37.979311062163163 -11.02648341308544 #
straight-curve $-1 -65.005645924253059 0 11.02648341308544 0 -1 0 I I #
point $-1 -65.005645924253059 37.979311062163163 11.02648341308544 #
point $-1 -65.005645924253059 -37.979311062163163 11.02648341308544 #
straight-curve $-1 65.005645924253059 -37.979311062163163 0 0 0 -1 I I #
straight-curve $-1 65.005645924253059 37.979311062163163 0 0 0 -1 I I #
plane-surface $-1 0 37.979311062163163 0 0 -1 0 0 0 -1 forward_v I I I I #
coedge $-1 $438 $437 $650 $651 forward $185 $-1 #
edge $-1 $441 53.222690628390808 $652 65.005645924253059 $440 $653 forward 7 unknown #
coedge $-1 $446 $445 $438 $578 reversed $447 $-1 #
edge $-1 $654 -65.005645924253059 $579 -53.222690628390808 $577 $655 forward 7 unknown #
vertex $-1 $453 $656 #
straight-curve $-1 -53.222690628390808 0 -11.02648341308544 0 -1 0 I I #
point $-1 -53.222690628390808 -37.979311062163163 -11.02648341308544 #
coedge $-1 $650 $443 $446 $585 forward $435 $-1 #
coedge $-1 $443 $650 $450 $587 reversed $435 $-1 #
straight-curve $-1 -65.005645924253059 0 -6.6146113028648541 0 1 0 I I #
edge $-1 $448 6.6146113028648541 $654 11.02648341308544 $446 $657 forward 7 unknown #
point $-1 -65.005645924253059 37.979311062163163 -6.6146113028648541 #
edge $-1 $451 6.6146113028648541 $652 11.02648341308544 $583 $658 forward 7 unknown #
point $-1 -65.005645924253059 -37.979311062163163 -6.6146113028648541 #
straight-curve $-1 -53.222690628390808 37.979311062163163 -4.4102736789875738 0 0 -1 I I #
edge $-1 $591 30.070728755325916 $594 39.598198307332964 $457 $659 forward 7 unknown #
vertex $-1 $461 $660 #
straight-curve $-1 -40.950100750363056 -37.979311062163163 42.680731904161419 0 0 1 I I #
edge $-1 $594 17.406902905674592 $468 29.679492783702337 $467 $661 forward 7 unknown #
vertex $-1 $593 $662 #
straight-curve $-1 -40.950100750363056 -37.979311062163163 0.066383160037418065 0 -0.65605901945558964 -0.75470958851134928 I I #
point $-1 -40.950100750363056 -37.979311062163163 0.066383160037418065 #
point $-1 -53.222690628390801 -28.451841510156118 11.02648341308544 #
straight-curve $-1 0 -37.979311062163163 11.02648341308544 1 0 0 I I #
vertex $-1 $474 $663 #
point $-1 -48.716236377525732 -31.320821514917302 3.8993481345336392 #
vertex $-1 $478 $664 #
point $-1 -43.456555001228125 -31.320821514917302 3.8993481345336392 #
coedge $-1 $493 $492 $485 $604 forward $482 $-1 #
edge $-1 $605 30.070728755325916 $608 39.598198307332964 $603 $665 forward 7 unknown #
vertex $-1 $604 $666 #
straight-curve $-1 -5.6315185254910221 -37.979311062163163 42.680731904161419 0 0 1 I I #
edge $-1 $608 -0.25238820676142648 $494 12.020201671266324 $493 $667 forward 7 unknown #
vertex $-1 $607 $668 #
straight-curve $-1 -5.6315185254910221 -37.979311062163163 0.066383160037418065 0 -0.65605901945558964 -0.75470958851134928 I I #
point $-1 -5.6315185254910221 -37.979311062163163 0.066383160037418065 #
point $-1 -17.904108403518773 -28.451841510156118 11.02648341308544 #
straight-curve $-1 0 -37.979311062163163 11.02648341308544 1 0 0 I I #
vertex $-1 $500 $669 #
point $-1 -13.397654152653701 -31.320821514917302 3.8993481345336392 #
vertex $-1 $504 $670 #
point $-1 -8.1379727763560936 -31.320821514917302 3.8993481345336392 #
coedge $-1 $519 $518 $511 $618 forward $508 $-1 #
edge $-1 $619 30.070728755325916 $622 39.598198307332964 $617 $671 forward 7 unknown #
vertex $-1 $618 $672 #
straight-curve $-1 29.68706369938101 -37.979311062163163 42.680731904161419 0 0 1 I I #
edge $-1 $622 -17.911679319197443 $520 -5.6390894411696912 $519 $673 forward 7 unknown #
vertex $-1 $621 $674 #
straight-curve $-1 29.68706369938101 -37.979311062163163 0.066383160037418065 0 -0.65605901945558964 -0.75470958851134928 I I #
point $-1 29.68706369938101 -37.979311062163163 0.066383160037418065 #
point $-1 17.414473821353258 -28.451841510156118 11.02648341308544 #
straight-curve $-1 0 -37.979311062163163 11.02648341308544 1 0 0 I I #
vertex $-1 $526 $675 #
point $-1 21.920928072218345 -31.320821514917302 3.8993481345336392 #
vertex $-1 $530 $676 #
point $-1 27.180609448515952 -31.320821514917302 3.8993481345336392 #
edge $-1 $634 -35.570970431633469 $544 -23.298380553605718 $543 $677 forward 7 unknown #
coedge $-1 $633 $537 $638 $678 reversed $534 $-1 #
coedge $-1 $537 $632 $539 $636 forward $534 $-1 #
vertex $-1 $538 $679 #
straight-curve $-1 65.005645924253059 -29.822342438276252 9.4499024030807703 0 0.65605901945558975 0.75470958851134939 I I #
edge $-1 $640 -11.02648341308544 $540 -0.066383160037418065 $633 $680 forward 7 unknown #
point $-1 65.005645924253059 -37.979311062163163 0.066383160037418065 #
coedge $-1 $543 $542 $632 $678 forward $386 $-1 #
point $-1 52.733056046225308 -28.451841510156118 11.02648341308544 #
vertex $-1 $678 $681 #
straight-curve $-1 0 -37.979311062163163 11.02648341308544 1 0 0 I I #
vertex $-1 $550 $682 #
point $-1 57.239510297090391 -31.320821514917302 3.8993481345336392 #
vertex $-1 $554 $683 #
point $-1 62.499191673387998 -31.320821514917302 3.8993481345336392 #
straight-curve $-1 -65.005645924253059 37.979311062163163 0 0 0 -1 I I #
point $-1 -65.005645924253059 -37.979311062163163 -11.02648341308544 #
straight-curve $-1 -65.005645924253059 0 -11.02648341308544 0 1 0 I I #
point $-1 -65.005645924253059 37.979311062163163 -11.02648341308544 #
coedge $-1 $583 $582 $575 $651 reversed $435 $-1 #
edge $-1 $652 -37.979311062163163 $654 37.979311062163163 $650 $684 forward 7 unknown #
vertex $-1 $651 $685 #
straight-curve $-1 0 -37.979311062163163 -11.02648341308544 -1 0 0 I I #
vertex $-1 $578 $686 #
straight-curve $-1 0 37.979311062163163 -11.02648341308544 1 0 0 I I #
point $-1 -53.222690628390808 37.979311062163163 -11.02648341308544 #
straight-curve $-1 -65.005645924253059 37.979311062163163 0 0 0 -1 I I #
straight-curve $-1 -65.005645924253059 -37.979311062163163 0 0 0 -1 I I #
straight-curve $-1 -40.950100750363056 -68.050039817489079 11.026483413085437 0 1 0 I I #
point $-1 -40.950100750363056 -37.979311062163163 11.02648341308544 #
straight-curve $-1 -23.543197844688464 -28.451841510156115 11.02648341308544 -1 0 0 I I #
point $-1 -40.950100750363056 -28.451841510156118 11.02648341308544 #
point $-1 -49.716236377525732 -30.566111926405956 3.2432891150780492 #
point $-1 -44.456555001228125 -30.566111926405956 3.2432891150780492 #
straight-curve $-1 -5.6315185254910221 -68.050039817489079 11.026483413085437 0 1 0 I I #
point $-1 -5.6315185254910221 -37.979311062163163 11.02648341308544 #
straight-curve $-1 -5.8839067322524485 -28.451841510156115 11.02648341308544 -1 0 0 I I #
point $-1 -5.6315185254910221 -28.451841510156118 11.02648341308544 #
point $-1 -14.397654152653701 -30.566111926405956 3.2432891150780492 #
point $-1 -9.1379727763560936 -30.566111926405956 3.2432891150780492 #
straight-curve $-1 29.68706369938101 -68.050039817489079 11.026483413085437 0 1 0 I I #
point $-1 29.68706369938101 -37.979311062163163 11.02648341308544 #
straight-curve $-1 11.775384380183567 -28.451841510156115 11.02648341308544 -1 0 0 I I #
point $-1 29.68706369938101 -28.451841510156118 11.02648341308544 #
point $-1 20.920928072218345 -30.566111926405956 3.2432891150780492 #
point $-1 26.180609448515952 -30.566111926405956 3.2432891150780492 #
straight-curve $-1 29.43467549261959 -28.451841510156115 11.02648341308544 -1 0 0 I I #
edge $-1 $640 -37.979311062163163 $634 -28.451841510156118 $632 $687 forward 7 unknown #
point $-1 65.005645924253059 -28.451841510156118 11.02648341308544 #
straight-curve $-1 65.005645924253059 -37.979311062163163 0 0 0 -1 I I #
point $-1 65.005645924253059 -37.979311062163163 11.02648341308544 #
point $-1 56.239510297090391 -30.566111926405956 3.2432891150780492 #
point $-1 61.499191673387998 -30.566111926405956 3.2432891150780492 #
straight-curve $-1 -65.005645924253059 0 -11.02648341308544 0 1 0 I I #
point $-1 -65.005645924253059 -37.979311062163163 -11.02648341308544 #
point $-1 -65.005645924253059 37.979311062163163 -11.02648341308544 #
straight-curve $-1 65.005645924253059 0 11.02648341308544 0 1 0 I I #
End-of-ACIS-data 