500 0 6 0           
7 Unknown 11 ACIS 5.0 NT 24 Thu Mar 25 20:19:05 1999 
-1 9.9999999999999995e-007 1e-010 
body $-1 $6 $-1 $7 #
body $-1 $8 $-1 $9 #
body $-1 $10 $-1 $11 #
body $-1 $12 $-1 $13 #
body $-1 $14 $-1 $15 #
body $-1 $16 $-1 $17 #
lump $-1 $-1 $18 $0 #
transform $-1 1 0 0 0 1 0 0 0 1 66.391186254463335 45.029583496744237 19.935213783293271 1 rotate no_reflect no_shear #
lump $-1 $-1 $19 $1 #
transform $-1 1 0 0 0 1 0 0 0 1 66.391186254463335 45.029583496744237 19.935213783293271 1 rotate no_reflect no_shear #
lump $-1 $-1 $20 $2 #
transform $-1 1 0 0 0 1 0 0 0 1 66.391186254463335 45.029583496744237 19.935213783293271 1 rotate no_reflect no_shear #
lump $-1 $-1 $21 $3 #
transform $-1 1 0 0 0 1 0 0 0 1 66.391186254463335 45.029583496744237 19.935213783293271 1 rotate no_reflect no_shear #
lump $-1 $-1 $22 $4 #
transform $-1 1 0 0 0 1 0 0 0 1 66.391186254463335 45.029583496744237 19.935213783293271 1 rotate no_reflect no_shear #
lump $-1 $-1 $23 $5 #
transform $-1 1 0 0 0 1 0 0 0 1 66.391186254463335 45.029583496744237 19.935213783293271 1 rotate no_reflect no_shear #
shell $-1 $-1 $-1 $24 $-1 $6 #
shell $-1 $-1 $-1 $25 $-1 $8 #
shell $-1 $-1 $-1 $26 $-1 $10 #
shell $-1 $-1 $-1 $27 $-1 $12 #
shell $-1 $-1 $-1 $28 $-1 $14 #
shell $-1 $-1 $-1 $29 $-1 $16 #
face $-1 $30 $31 $18 $-1 $32 forward single #
face $-1 $33 $34 $19 $-1 $35 forward single #
face $-1 $36 $37 $20 $-1 $38 reversed single #
face $-1 $39 $40 $21 $-1 $41 forward single #
face $-1 $42 $43 $22 $-1 $44 forward single #
face $-1 $45 $46 $23 $-1 $47 forward single #
face $-1 $48 $49 $18 $-1 $50 reversed single #
loop $-1 $-1 $51 $24 #
plane-surface $-1 0 0 19.935213783293271 0 0 1 1 0 0 forward_v I I I I #
face $-1 $52 $53 $19 $-1 $54 reversed single #
loop $-1 $-1 $55 $25 #
plane-surface $-1 0 -45.029583496744237 0 0 1 0 0 0 1 forward_v I I I I #
face $-1 $56 $57 $20 $-1 $58 reversed single #
loop $-1 $-1 $59 $26 #
plane-surface $-1 43.800717428342132 58.60312177497201 165.05536924902597 1 0 0 0 -0.62932039886446345 -0.77714595512881146 forward_v I I I I #
face $-1 $60 $61 $21 $-1 $62 forward single #
loop $-1 $63 $64 $27 #
cone-surface $-1 48.318811193566361 34.97576945223669 11.390713044776135 0 -0.62932039886446345 -0.77714595512881146 2 0 0 1 I I 0 1 2 forward I I I I #
face $-1 $65 $66 $22 $-1 $67 forward single #
loop $-1 $68 $69 $28 #
cone-surface $-1 55.095951841402723 34.97576945223669 11.390713044776135 0 -0.62932039886446345 -0.77714595512881146 2 0 0 1 I I 0 1 2 forward I I I I #
face $-1 $70 $71 $23 $-1 $72 forward single #
loop $-1 $73 $74 $29 #
cone-surface $-1 61.873092489239085 34.97576945223669 11.390713044776135 0 -0.62932039886446345 -0.77714595512881146 2 0 0 1 I I 0 1 2 forward I I I I #
face $-1 $75 $76 $18 $-1 $77 reversed single #
loop $-1 $-1 $78 $30 #
plane-surface $-1 0 0 -19.935213783293271 0 0 1 1 0 0 forward_v I I I I #
coedge $-1 $79 $80 $81 $82 forward $31 $-1 #
face $-1 $83 $84 $19 $-1 $85 reversed single #
loop $-1 $-1 $86 $33 #
plane-surface $-1 0 0 -19.935213783293271 0 0 1 1 0 0 forward_v I I I I #
coedge $-1 $87 $88 $89 $90 forward $34 $-1 #
face $-1 $91 $92 $20 $-1 $93 forward single #
loop $-1 $-1 $94 $36 #
plane-surface $-1 55.095951841402737 -24.95953385451547 61.864085541306537 0 0.62932039886446345 0.77714595512881146 1 0 0 forward_v I I I I #
coedge $-1 $95 $96 $97 $98 reversed $37 $-1 #
face $-1 $-1 $99 $21 $-1 $100 forward single #
loop $-1 $101 $102 $39 #
cone-surface $-1 48.318811193566361 33.398271961434006 9.442665918995317 0 -0.62932039886446345 -0.77714595512881146 1 0 0 1 I I -0.70710678118654746 0.70710678118654746 1 forward I I I I #
loop $-1 $-1 $103 $27 #
coedge $-1 $64 $64 $104 $105 reversed $40 $-1 #
face $-1 $-1 $106 $22 $-1 $107 forward single #
loop $-1 $108 $109 $42 #
cone-surface $-1 55.095951841402723 33.398271961434006 9.442665918995317 0 -0.62932039886446345 -0.77714595512881146 1 0 0 1 I I -0.70710678118654746 0.70710678118654746 1 forward I I I I #
loop $-1 $-1 $110 $28 #
coedge $-1 $69 $69 $111 $112 reversed $43 $-1 #
face $-1 $-1 $113 $23 $-1 $114 forward single #
loop $-1 $115 $116 $45 #
cone-surface $-1 61.873092489239085 33.398271961434006 9.442665918995317 0 -0.62932039886446345 -0.77714595512881146 1 0 0 1 I I -0.70710678118654746 0.70710678118654746 1 forward I I I I #
loop $-1 $-1 $117 $29 #
coedge $-1 $74 $74 $118 $119 reversed $46 $-1 #
face $-1 $120 $121 $18 $-1 $122 reversed single #
loop $-1 $-1 $123 $48 #
plane-surface $-1 0 -45.029583496744237 0 0 1 0 0 0 1 forward_v I I I I #
coedge $-1 $124 $125 $126 $127 forward $49 $-1 #
coedge $-1 $128 $51 $129 $130 forward $31 $-1 #
coedge $-1 $51 $128 $131 $132 forward $31 $-1 #
coedge $-1 $133 $134 $51 $82 reversed $135 $-1 #
edge $-1 $136 -45.029583496744237 $137 45.029583496744237 $81 $138 forward 7 unknown #
face $-1 $139 $140 $19 $-1 $141 forward single #
loop $-1 $-1 $142 $52 #
plane-surface $-1 66.391186254463335 0 0 -1 0 0 0 0 1 forward_v I I I I #
coedge $-1 $143 $144 $145 $146 forward $53 $-1 #
coedge $-1 $145 $55 $142 $147 reversed $34 $-1 #
coedge $-1 $55 $145 $148 $149 reversed $34 $-1 #
coedge $-1 $150 $151 $55 $90 reversed $140 $-1 #
edge $-1 $152 -66.391186254463335 $153 66.391186254463335 $89 $154 forward 7 unknown #
face $-1 $155 $156 $20 $-1 $157 reversed single #
loop $-1 $-1 $97 $56 #
plane-surface $-1 0 0 19.935213783293271 0 0 1 1 0 0 forward_v I I I I #
coedge $-1 $158 $159 $160 $161 reversed $57 $-1 #
coedge $-1 $96 $59 $162 $163 reversed $37 $-1 #
coedge $-1 $59 $95 $158 $164 reversed $37 $-1 #
coedge $-1 $160 $165 $59 $98 forward $92 $-1 #
edge $-1 $166 -15.728022609258232 $167 2.4832512958803932 $97 $168 forward 7 unknown #
loop $-1 $-1 $104 $60 #
plane-surface $-1 55.095951841402737 -24.95953385451547 61.864085541306537 0 0.62932039886446345 0.77714595512881146 1 0 0 forward_v I I I I #
loop $-1 $-1 $169 $39 #
coedge $-1 $102 $102 $103 $170 reversed $61 $-1 #
coedge $-1 $103 $103 $102 $170 forward $63 $-1 #
coedge $-1 $104 $104 $64 $105 forward $99 $-1 #
edge $-1 $171 1.0130076459554845e-016 $171 6.2831853071796004 $104 $172 forward 7 unknown #
loop $-1 $-1 $111 $65 #
plane-surface $-1 55.095951841402737 -24.95953385451547 61.864085541306537 0 0.62932039886446345 0.77714595512881146 1 0 0 forward_v I I I I #
loop $-1 $-1 $173 $42 #
coedge $-1 $109 $109 $110 $174 reversed $66 $-1 #
coedge $-1 $110 $110 $109 $174 forward $68 $-1 #
coedge $-1 $111 $111 $69 $112 forward $106 $-1 #
edge $-1 $175 1.0130076459554845e-016 $175 6.2831853071796004 $111 $176 forward 7 unknown #
loop $-1 $-1 $118 $70 #
plane-surface $-1 55.095951841402737 -24.95953385451547 61.864085541306537 0 0.62932039886446345 0.77714595512881146 1 0 0 forward_v I I I I #
loop $-1 $-1 $177 $45 #
coedge $-1 $116 $116 $117 $178 reversed $71 $-1 #
coedge $-1 $117 $117 $116 $178 forward $73 $-1 #
coedge $-1 $118 $118 $74 $119 forward $113 $-1 #
edge $-1 $179 1.0130076459554845e-016 $179 6.2831853071796004 $118 $180 forward 7 unknown #
face $-1 $181 $182 $18 $-1 $183 reversed single #
loop $-1 $-1 $184 $75 #
plane-surface $-1 -66.391186254463335 0 0 1 0 0 0 0 -1 forward_v I I I I #
coedge $-1 $185 $131 $186 $187 forward $76 $-1 #
coedge $-1 $188 $78 $185 $189 forward $49 $-1 #
coedge $-1 $78 $188 $190 $191 forward $49 $-1 #
coedge $-1 $134 $133 $78 $127 reversed $135 $-1 #
edge $-1 $192 -45.029583496744237 $193 45.029583496744237 $126 $194 forward 7 unknown #
coedge $-1 $80 $79 $195 $196 forward $31 $-1 #
coedge $-1 $197 $198 $79 $130 reversed $182 $-1 #
edge $-1 $137 -66.391186254463335 $199 66.391186254463335 $129 $200 forward 7 unknown #
coedge $-1 $123 $201 $80 $132 reversed $76 $-1 #
edge $-1 $202 -66.391186254463335 $136 66.391186254463335 $131 $203 forward 7 unknown #
coedge $-1 $126 $81 $201 $204 forward $135 $-1 #
coedge $-1 $81 $126 $197 $205 reversed $135 $-1 #
loop $-1 $-1 $133 $181 #
vertex $-1 $82 $206 #
vertex $-1 $82 $207 #
straight-curve $-1 66.391186254463335 0 19.935213783293271 0 1 0 I I #
face $-1 $208 $209 $19 $-1 $210 reversed single #
loop $-1 $-1 $151 $83 #
plane-surface $-1 0 -52.079209746294588 -10.559512451806739 0 0 1 1 0 0 forward_v I I I I #
coedge $-1 $211 $212 $87 $147 forward $84 $-1 #
coedge $-1 $213 $86 $212 $214 forward $53 $-1 #
coedge $-1 $86 $213 $215 $216 forward $53 $-1 #
coedge $-1 $88 $87 $86 $146 reversed $34 $-1 #
edge $-1 $217 -66.391186254463335 $218 66.391186254463335 $86 $219 forward 7 unknown #
edge $-1 $218 -19.935213783293271 $153 -10.559512451806739 $142 $220 forward 7 unknown #
coedge $-1 $215 $221 $88 $149 forward $222 $-1 #
edge $-1 $152 10.559512451806739 $217 19.935213783293271 $148 $223 forward 7 unknown #
coedge $-1 $224 $89 $221 $225 forward $140 $-1 #
coedge $-1 $89 $224 $211 $226 forward $140 $-1 #
vertex $-1 $149 $227 #
vertex $-1 $226 $228 #
straight-curve $-1 0 -45.029583496744237 -10.559512451806739 1 0 0 I I #
face $-1 $-1 $229 $20 $-1 $230 reversed single #
loop $-1 $-1 $231 $91 #
plane-surface $-1 66.391186254463335 0 0 -1 0 0 0 0 1 forward_v I I I I #
coedge $-1 $232 $94 $96 $164 forward $57 $-1 #
coedge $-1 $94 $232 $231 $233 reversed $57 $-1 #
coedge $-1 $234 $97 $94 $161 forward $92 $-1 #
edge $-1 $167 16.252741507640764 $235 38.843210333761981 $160 $236 forward 7 unknown #
coedge $-1 $237 $238 $95 $163 forward $229 $-1 #
edge $-1 $239 -77.339669976949921 $166 -62.592470841219715 $162 $240 forward 7 unknown #
edge $-1 $167 66.625635898135684 $239 90.059166993488446 $96 $241 forward 7 unknown #
coedge $-1 $97 $234 $237 $242 forward $92 $-1 #
vertex $-1 $163 $243 #
vertex $-1 $98 $244 #
straight-curve $-1 43.800717428342132 29.301560887486005 19.935213783293278 0 -1 0 I I #
coedge $-1 $169 $169 $-1 $245 reversed $101 $-1 #
edge $-1 $246 0 $246 6.2831853071796004 $102 $247 forward 7 unknown #
vertex $-1 $105 $248 #
ellipse-curve $-1 48.318811193566361 35.923946544174932 12.561614215428168 0 0.62932039886446345 0.77714595512881146 2 0 0 1 I I #
coedge $-1 $173 $173 $-1 $249 reversed $108 $-1 #
edge $-1 $250 0 $250 6.2831853071796004 $109 $251 forward 7 unknown #
vertex $-1 $112 $252 #
ellipse-curve $-1 55.095951841402723 35.923946544174932 12.561614215428168 0 0.62932039886446345 0.77714595512881146 2 0 0 1 I I #
coedge $-1 $177 $177 $-1 $253 reversed $115 $-1 #
edge $-1 $254 0 $254 6.2831853071796004 $116 $255 forward 7 unknown #
vertex $-1 $119 $256 #
ellipse-curve $-1 61.873092489239085 35.923946544174932 12.561614215428168 0 0.62932039886446345 0.77714595512881146 2 0 0 1 I I #
face $-1 $-1 $135 $18 $-1 $257 reversed single #
loop $-1 $-1 $197 $120 #
plane-surface $-1 0 45.029583496744237 0 0 -1 0 0 0 -1 forward_v I I I I #
coedge $-1 $258 $195 $198 $259 forward $121 $-1 #
coedge $-1 $201 $123 $124 $189 reversed $76 $-1 #
coedge $-1 $195 $258 $123 $187 reversed $121 $-1 #
edge $-1 $202 -19.935213783293271 $260 19.935213783293271 $186 $261 forward 7 unknown #
coedge $-1 $125 $124 $258 $262 forward $49 $-1 #
edge $-1 $193 -66.391186254463335 $260 66.391186254463335 $185 $263 forward 7 unknown #
coedge $-1 $198 $197 $125 $191 reversed $182 $-1 #
edge $-1 $264 -66.391186254463335 $192 66.391186254463335 $190 $265 forward 7 unknown #
vertex $-1 $127 $266 #
vertex $-1 $204 $267 #
straight-curve $-1 66.391186254463335 0 -19.935213783293271 0 -1 0 I I #
coedge $-1 $184 $186 $128 $196 reversed $121 $-1 #
edge $-1 $199 -45.029583496744237 $202 45.029583496744237 $195 $268 forward 7 unknown #
coedge $-1 $190 $129 $134 $205 forward $182 $-1 #
coedge $-1 $129 $190 $184 $259 reversed $182 $-1 #
vertex $-1 $130 $269 #
straight-curve $-1 0 45.029583496744237 19.935213783293271 -1 0 0 I I #
coedge $-1 $131 $185 $133 $204 reversed $76 $-1 #
vertex $-1 $196 $270 #
straight-curve $-1 0 -45.029583496744237 19.935213783293271 1 0 0 I I #
edge $-1 $136 -19.935213783293271 $193 19.935213783293271 $133 $271 forward 7 unknown #
edge $-1 $137 -19.935213783293271 $192 19.935213783293271 $134 $272 forward 7 unknown #
point $-1 66.391186254463335 -45.029583496744237 19.935213783293271 #
point $-1 66.391186254463335 45.029583496744237 19.935213783293271 #
face $-1 $-1 $222 $19 $-1 $273 reversed single #
loop $-1 $-1 $274 $139 #
plane-surface $-1 0 -59.128835995844938 -15.247363117550005 0 1 0 0 0 1 forward_v I I I I #
coedge $-1 $275 $142 $151 $226 reversed $84 $-1 #
coedge $-1 $142 $275 $143 $214 reversed $84 $-1 #
coedge $-1 $144 $143 $276 $277 forward $53 $-1 #
edge $-1 $218 45.029583496744237 $278 59.128835995844938 $212 $279 forward 7 unknown #
coedge $-1 $280 $148 $144 $216 reversed $222 $-1 #
edge $-1 $281 -59.128835995844938 $217 -45.029583496744237 $215 $282 forward 7 unknown #
vertex $-1 $149 $283 #
vertex $-1 $214 $284 #
straight-curve $-1 0 -45.029583496744237 -19.935213783293271 1 0 0 I I #
straight-curve $-1 66.391186254463335 -45.029583496744237 0 0 0 1 I I #
coedge $-1 $148 $280 $150 $225 reversed $222 $-1 #
loop $-1 $-1 $148 $208 #
straight-curve $-1 -66.391186254463335 -45.029583496744237 0 0 0 -1 I I #
coedge $-1 $151 $150 $285 $286 forward $140 $-1 #
edge $-1 $152 -7.0496262495503501 $287 7.0496262495503501 $221 $288 forward 7 unknown #
edge $-1 $289 -7.0496262495503501 $153 7.0496262495503501 $211 $290 forward 7 unknown #
point $-1 -66.391186254463335 -45.029583496744237 -10.559512451806739 #
point $-1 66.391186254463335 -45.029583496744237 -10.559512451806739 #
loop $-1 $-1 $162 $155 #
plane-surface $-1 0 45.029583496744237 0 0 -1 0 0 0 -1 forward_v I I I I #
coedge $-1 $291 $292 $159 $233 forward $156 $-1 #
coedge $-1 $159 $158 $238 $293 reversed $57 $-1 #
edge $-1 $235 37.46087001554686 $294 60.894401110899622 $231 $295 forward 7 unknown #
coedge $-1 $165 $160 $292 $296 forward $92 $-1 #
vertex $-1 $296 $297 #
straight-curve $-1 27.547975920701369 26.81830959160563 19.935213783293268 1 0 0 I I #
coedge $-1 $298 $162 $165 $242 reversed $229 $-1 #
coedge $-1 $162 $298 $232 $293 forward $229 $-1 #
vertex $-1 $163 $299 #
straight-curve $-1 43.800717428342132 45.029583496744237 82.527684624512986 0 0 1 I I #
straight-curve $-1 43.800717428342132 -24.95953385451547 61.864085541306537 0 0.77714595512881146 -0.62932039886446345 I I #
edge $-1 $300 -66.391186254463335 $166 -43.800717428342132 $237 $301 forward 7 unknown #
point $-1 43.800717428342132 45.029583496744237 19.935213783293271 #
point $-1 43.800717428342132 26.818309591605612 19.935213783293271 #
edge $-1 $302 1 $302 0 $169 $-1 forward 7 unknown #
vertex $-1 $170 $303 #
ellipse-curve $-1 48.318811193566361 34.02759236029847 10.219811874124128 0 0.62932039886446345 0.77714595512881146 2 0 0 1 I I #
point $-1 50.318811193566361 35.92394654417491 12.561614215428142 #
edge $-1 $304 1 $304 0 $173 $-1 forward 7 unknown #
vertex $-1 $174 $305 #
ellipse-curve $-1 55.095951841402723 34.02759236029847 10.219811874124128 0 0.62932039886446345 0.77714595512881146 2 0 0 1 I I #
point $-1 57.095951841402723 35.92394654417491 12.561614215428142 #
edge $-1 $306 1 $306 0 $177 $-1 forward 7 unknown #
vertex $-1 $178 $307 #
ellipse-curve $-1 61.873092489239085 34.02759236029847 10.219811874124128 0 0.62932039886446345 0.77714595512881146 2 0 0 1 I I #
point $-1 63.873092489239085 35.92394654417491 12.561614215428142 #
plane-surface $-1 66.391186254463335 0 0 -1 0 0 0 0 1 forward_v I I I I #
coedge $-1 $186 $184 $188 $262 reversed $121 $-1 #
edge $-1 $199 -19.935213783293271 $264 19.935213783293271 $198 $308 forward 7 unknown #
vertex $-1 $262 $309 #
straight-curve $-1 -66.391186254463335 -45.029583496744237 0 0 0 -1 I I #
edge $-1 $260 -45.029583496744237 $264 45.029583496744237 $258 $310 forward 7 unknown #
straight-curve $-1 0 -45.029583496744237 -19.935213783293271 -1 0 0 I I #
vertex $-1 $191 $311 #
straight-curve $-1 0 45.029583496744237 -19.935213783293271 1 0 0 I I #
point $-1 66.391186254463335 45.029583496744237 -19.935213783293271 #
point $-1 66.391186254463335 -45.029583496744237 -19.935213783293271 #
straight-curve $-1 -66.391186254463335 0 19.935213783293271 0 -1 0 I I #
point $-1 -66.391186254463335 45.029583496744237 19.935213783293271 #
point $-1 -66.391186254463335 -45.029583496744237 19.935213783293271 #
straight-curve $-1 66.391186254463335 -45.029583496744237 0 0 0 -1 I I #
straight-curve $-1 66.391186254463335 45.029583496744237 0 0 0 -1 I I #
plane-surface $-1 -66.391186254463335 0 0 1 0 0 0 0 -1 forward_v I I I I #
coedge $-1 $276 $285 $280 $312 forward $209 $-1 #
coedge $-1 $212 $211 $313 $314 forward $84 $-1 #
coedge $-1 $313 $274 $213 $277 reversed $209 $-1 #
edge $-1 $278 -66.391186254463335 $281 66.391186254463335 $276 $315 forward 7 unknown #
vertex $-1 $314 $316 #
straight-curve $-1 66.391186254463335 0 -19.935213783293271 0 -1 0 I I #
coedge $-1 $221 $215 $274 $312 reversed $222 $-1 #
vertex $-1 $216 $317 #
straight-curve $-1 -66.391186254463335 0 -19.935213783293271 0 1 0 I I #
point $-1 -66.391186254463335 -45.029583496744237 -19.935213783293271 #
point $-1 66.391186254463335 -45.029583496744237 -19.935213783293271 #
coedge $-1 $274 $313 $224 $286 reversed $209 $-1 #
edge $-1 $287 -66.391186254463335 $289 66.391186254463335 $285 $318 forward 7 unknown #
vertex $-1 $225 $319 #
straight-curve $-1 -66.391186254463335 -52.079209746294588 -10.559512451806739 0 -1 0 I I #
vertex $-1 $226 $320 #
straight-curve $-1 66.391186254463335 -52.079209746294588 -10.559512451806739 0 1 0 I I #
coedge $-1 $292 $231 $298 $321 reversed $156 $-1 #
coedge $-1 $231 $291 $234 $296 reversed $156 $-1 #
edge $-1 $294 -38.843210333761981 $239 -16.252741507640764 $238 $322 forward 7 unknown #
vertex $-1 $233 $323 #
straight-curve $-1 66.391186254463335 -2.2942540165828049 43.510103443287043 0 0.77714595512881146 -0.62932039886446345 I I #
edge $-1 $235 26.818309591605612 $300 45.029583496744237 $292 $324 forward 7 unknown #
point $-1 66.391186254463349 26.818309591605612 19.935213783293271 #
coedge $-1 $238 $237 $291 $321 forward $229 $-1 #
point $-1 43.800717428342132 45.029583496744237 5.1880146475630653 #
vertex $-1 $296 $325 #
straight-curve $-1 0 45.029583496744237 19.935213783293271 -1 0 0 I I #
vertex $-1 $245 $326 #
point $-1 50.318811193566361 34.02759236029847 10.219811874124128 #
vertex $-1 $249 $327 #
point $-1 57.095951841402723 34.02759236029847 10.219811874124128 #
vertex $-1 $253 $328 #
point $-1 63.873092489239085 34.02759236029847 10.219811874124128 #
straight-curve $-1 -66.391186254463335 45.029583496744237 0 0 0 -1 I I #
point $-1 -66.391186254463335 -45.029583496744237 -19.935213783293271 #
straight-curve $-1 -66.391186254463335 0 -19.935213783293271 0 1 0 I I #
point $-1 -66.391186254463335 45.029583496744237 -19.935213783293271 #
edge $-1 $287 -4.6878506657432659 $281 4.6878506657432659 $280 $329 forward 7 unknown #
coedge $-1 $285 $276 $275 $314 reversed $209 $-1 #
edge $-1 $289 -4.6878506657432659 $278 4.6878506657432659 $275 $330 forward 7 unknown #
straight-curve $-1 0 -59.128835995844938 -19.935213783293271 -1 0 0 I I #
point $-1 66.391186254463335 -59.128835995844938 -19.935213783293271 #
point $-1 -66.391186254463335 -59.128835995844938 -19.935213783293271 #
straight-curve $-1 0 -59.128835995844938 -10.559512451806739 1 0 0 I I #
point $-1 -66.391186254463335 -59.128835995844938 -10.559512451806739 #
point $-1 66.391186254463335 -59.128835995844938 -10.559512451806739 #
edge $-1 $300 -19.935213783293271 $294 -5.1880146475630653 $291 $331 forward 7 unknown #
straight-curve $-1 27.547975920701369 45.029583496744237 5.1880146475630688 -1 0 0 I I #
point $-1 66.391186254463349 45.029583496744237 5.1880146475630653 #
straight-curve $-1 66.391186254463335 0 19.935213783293271 0 1 0 I I #
point $-1 66.391186254463335 45.029583496744237 19.935213783293271 #
point $-1 48.318811193566361 32.768951562569541 8.6655199638665064 #
point $-1 55.095951841402723 32.768951562569541 8.6655199638665064 #
point $-1 61.873092489239085 32.768951562569541 8.6655199638665064 #
straight-curve $-1 -66.391186254463335 -59.128835995844938 -15.247363117550005 0 0 -1 I I #
straight-curve $-1 66.391186254463335 -59.128835995844938 -15.247363117550005 0 0 -1 I I #
straight-curve $-1 66.391186254463335 45.029583496744237 0 0 0 -1 I I #
End-of-ACIS-data 