500 0 6 0           
7 Unknown 11 ACIS 5.0 NT 24 Thu Mar 25 15:45:26 1999 
-1 9.9999999999999995e-007 1e-010 
body $-1 $6 $-1 $7 #
body $-1 $8 $-1 $9 #
body $-1 $10 $-1 $11 #
body $-1 $12 $-1 $13 #
body $-1 $14 $-1 $15 #
body $-1 $16 $-1 $17 #
lump $-1 $-1 $18 $0 #
transform $-1 1 0 0 0 1 0 0 0 1 72.536393322550126 34.0870354826286 15.149781989106986 1 rotate no_reflect no_shear #
lump $-1 $-1 $19 $1 #
transform $-1 1 0 0 0 1 0 0 0 1 72.536393322550126 34.0870354826286 15.149781989106986 1 rotate no_reflect no_shear #
lump $-1 $-1 $20 $2 #
transform $-1 1 0 0 0 1 0 0 0 1 72.536393322550126 34.0870354826286 15.149781989106986 1 rotate no_reflect no_shear #
lump $-1 $-1 $21 $3 #
transform $-1 1 0 0 0 1 0 0 0 1 72.536393322550126 34.0870354826286 15.149781989106986 1 rotate no_reflect no_shear #
lump $-1 $-1 $22 $4 #
transform $-1 1 0 0 0 1 0 0 0 1 72.536393322550126 34.0870354826286 15.149781989106986 1 rotate no_reflect no_shear #
lump $-1 $-1 $23 $5 #
transform $-1 1 0 0 0 1 0 0 0 1 72.536393322550126 34.0870354826286 15.149781989106986 1 rotate no_reflect no_shear #
shell $-1 $-1 $-1 $24 $-1 $6 #
shell $-1 $-1 $-1 $25 $-1 $8 #
shell $-1 $-1 $-1 $26 $-1 $10 #
shell $-1 $-1 $-1 $27 $-1 $12 #
shell $-1 $-1 $-1 $28 $-1 $14 #
shell $-1 $-1 $-1 $29 $-1 $16 #
face $-1 $30 $31 $18 $-1 $32 forward single #
face $-1 $33 $34 $19 $-1 $35 forward single #
face $-1 $36 $37 $20 $-1 $38 forward single #
face $-1 $39 $40 $21 $-1 $41 reversed single #
face $-1 $42 $43 $22 $-1 $44 forward single #
face $-1 $45 $46 $23 $-1 $47 forward single #
face $-1 $48 $49 $18 $-1 $50 reversed single #
loop $-1 $-1 $51 $24 #
plane-surface $-1 0 0 15.149781989106986 0 0 1 1 0 0 forward_v I I I I #
face $-1 $52 $53 $19 $-1 $54 reversed single #
loop $-1 $-1 $55 $25 #
plane-surface $-1 0 -34.0870354826286 0 0 1 0 0 0 1 forward_v I I I I #
face $-1 $56 $57 $20 $-1 $58 reversed single #
loop $-1 $-1 $59 $26 #
plane-surface $-1 0 34.0870354826286 0 0 -1 0 0 0 -1 forward_v I I I I #
face $-1 $60 $61 $21 $-1 $62 reversed single #
loop $-1 $-1 $63 $27 #
plane-surface $-1 -189.90274432700949 -17.807301083350055 87.198284523098835 0 1 0 -0.80901700255871778 0 0.5877852410284794 forward_v I I I I #
face $-1 $64 $65 $22 $-1 $66 forward single #
loop $-1 $67 $68 $28 #
cone-surface $-1 -66.566266114067389 -14.335724622771018 7.690670603068364 0.80901700255871778 0 -0.5877852410284794 0.5877852410284794 0 0.80901700255871778 1 I I 0 1 1 forward I I I I #
face $-1 $69 $70 $23 $-1 $71 forward single #
loop $-1 $72 $73 $29 #
cone-surface $-1 -66.566266114067389 -9.128359931902466 7.690670603068364 0.80901700255871778 0 -0.5877852410284794 0.5877852410284794 0 0.80901700255871778 1 I I 0 1 1 forward I I I I #
face $-1 $74 $75 $18 $-1 $76 reversed single #
loop $-1 $-1 $77 $30 #
plane-surface $-1 0 0 -15.149781989106986 0 0 1 1 0 0 forward_v I I I I #
coedge $-1 $78 $79 $80 $81 forward $31 $-1 #
face $-1 $82 $83 $19 $-1 $84 reversed single #
loop $-1 $-1 $85 $33 #
plane-surface $-1 0 0 -15.149781989106986 0 0 1 1 0 0 forward_v I I I I #
coedge $-1 $86 $87 $88 $89 forward $34 $-1 #
face $-1 $90 $91 $20 $-1 $92 forward single #
loop $-1 $-1 $93 $36 #
plane-surface $-1 -72.536393322550126 0 0 1 0 0 0 0 -1 forward_v I I I I #
coedge $-1 $94 $95 $96 $97 forward $37 $-1 #
face $-1 $98 $99 $21 $-1 $100 reversed single #
loop $-1 $-1 $101 $39 #
plane-surface $-1 -72.536393322550097 -11.732042277336742 1.9266416582354111 -0.80901700255871778 0 0.5877852410284794 0.5877852410284794 0 0.80901700255871778 forward_v I I I I #
coedge $-1 $102 $103 $104 $105 reversed $40 $-1 #
face $-1 $-1 $106 $22 $-1 $107 forward single #
loop $-1 $108 $109 $42 #
cone-surface $-1 -64.995217165740911 -14.335724622771018 6.5492367619512901 0.80901700255871778 0 -0.5877852410284794 0.2938926205142397 0 0.40450850127935889 1 I I -0.70710678118654746 0.70710678118654746 0.5 forward I I I I #
loop $-1 $-1 $110 $28 #
coedge $-1 $68 $68 $111 $112 reversed $43 $-1 #
face $-1 $-1 $113 $23 $-1 $114 forward single #
loop $-1 $115 $116 $45 #
cone-surface $-1 -64.995217165740911 -9.128359931902466 6.5492367619512901 0.80901700255871778 0 -0.5877852410284794 0.2938926205142397 0 0.40450850127935889 1 I I -0.70710678118654746 0.70710678118654746 0.5 forward I I I I #
loop $-1 $-1 $117 $29 #
coedge $-1 $73 $73 $118 $119 reversed $46 $-1 #
face $-1 $120 $121 $18 $-1 $122 reversed single #
loop $-1 $-1 $123 $48 #
plane-surface $-1 0 -34.0870354826286 0 0 1 0 0 0 1 forward_v I I I I #
coedge $-1 $124 $125 $126 $127 forward $49 $-1 #
coedge $-1 $128 $51 $129 $130 forward $31 $-1 #
coedge $-1 $51 $128 $131 $132 forward $31 $-1 #
coedge $-1 $133 $134 $51 $81 reversed $135 $-1 #
edge $-1 $136 -34.0870354826286 $137 34.0870354826286 $80 $138 forward 7 unknown #
face $-1 $139 $140 $19 $-1 $141 forward single #
loop $-1 $-1 $142 $52 #
plane-surface $-1 72.536393322550126 0 0 -1 0 0 0 0 1 forward_v I I I I #
coedge $-1 $143 $144 $145 $146 forward $53 $-1 #
coedge $-1 $145 $55 $142 $147 reversed $34 $-1 #
coedge $-1 $55 $145 $148 $149 reversed $34 $-1 #
coedge $-1 $150 $151 $55 $89 reversed $140 $-1 #
edge $-1 $152 -72.536393322550126 $153 72.536393322550126 $88 $154 forward 7 unknown #
face $-1 $155 $156 $20 $-1 $157 reversed single #
loop $-1 $-1 $158 $56 #
plane-surface $-1 0 40.516855031352385 -6.4190653164453808 0 0 1 1 0 0 forward_v I I I I #
coedge $-1 $159 $160 $94 $161 forward $57 $-1 #
coedge $-1 $162 $59 $93 $161 reversed $37 $-1 #
coedge $-1 $59 $162 $163 $164 reversed $37 $-1 #
coedge $-1 $158 $165 $59 $97 reversed $91 $-1 #
edge $-1 $166 -72.536393322550126 $167 72.536393322550126 $96 $168 forward 7 unknown #
face $-1 $169 $170 $21 $-1 $171 reversed single #
loop $-1 $-1 $172 $60 #
plane-surface $-1 -189.90274432700949 -5.6567834713234291 87.198284523098835 0 -1 0 0.80901700255871778 0 -0.5877852410284794 forward_v I I I I #
coedge $-1 $173 $174 $175 $176 reversed $61 $-1 #
coedge $-1 $103 $63 $177 $178 reversed $40 $-1 #
coedge $-1 $63 $102 $173 $179 reversed $40 $-1 #
coedge $-1 $175 $180 $63 $105 forward $181 $-1 #
edge $-1 $182 22.414978840954618 $183 32.022152363825867 $104 $184 forward 7 unknown #
loop $-1 $-1 $111 $64 #
plane-surface $-1 -72.536393322550097 -11.732042277336742 1.9266416582354111 -0.80901700255871778 0 0.5877852410284794 0.5877852410284794 0 0.80901700255871778 forward_v I I I I #
loop $-1 $-1 $185 $42 #
coedge $-1 $109 $109 $110 $186 reversed $65 $-1 #
coedge $-1 $110 $110 $109 $186 forward $67 $-1 #
coedge $-1 $111 $111 $68 $112 forward $106 $-1 #
edge $-1 $187 0 $187 6.2831853071796004 $111 $188 forward 7 unknown #
loop $-1 $-1 $118 $69 #
plane-surface $-1 -72.536393322550097 -11.732042277336742 1.9266416582354111 -0.80901700255871778 0 0.5877852410284794 0.5877852410284794 0 0.80901700255871778 forward_v I I I I #
loop $-1 $-1 $189 $45 #
coedge $-1 $116 $116 $117 $190 reversed $70 $-1 #
coedge $-1 $117 $117 $116 $190 forward $72 $-1 #
coedge $-1 $118 $118 $73 $119 forward $113 $-1 #
edge $-1 $191 0 $191 6.2831853071796004 $118 $192 forward 7 unknown #
face $-1 $193 $194 $18 $-1 $195 reversed single #
loop $-1 $-1 $196 $74 #
plane-surface $-1 -72.536393322550126 0 0 1 0 0 0 0 -1 forward_v I I I I #
coedge $-1 $131 $197 $133 $198 reversed $75 $-1 #
coedge $-1 $199 $77 $197 $200 forward $49 $-1 #
coedge $-1 $77 $199 $201 $202 forward $49 $-1 #
coedge $-1 $134 $133 $77 $127 reversed $135 $-1 #
edge $-1 $203 -34.0870354826286 $204 34.0870354826286 $126 $205 forward 7 unknown #
coedge $-1 $79 $78 $206 $207 forward $31 $-1 #
coedge $-1 $208 $209 $78 $130 reversed $194 $-1 #
edge $-1 $137 -72.536393322550126 $210 72.536393322550126 $129 $211 forward 7 unknown #
coedge $-1 $212 $123 $79 $132 reversed $75 $-1 #
edge $-1 $213 -72.536393322550126 $136 72.536393322550126 $131 $214 forward 7 unknown #
coedge $-1 $126 $80 $123 $198 forward $135 $-1 #
coedge $-1 $80 $126 $208 $215 reversed $135 $-1 #
loop $-1 $-1 $133 $193 #
vertex $-1 $81 $216 #
vertex $-1 $81 $217 #
straight-curve $-1 72.536393322550126 0 15.149781989106986 0 1 0 I I #
face $-1 $218 $219 $19 $-1 $220 reversed single #
loop $-1 $-1 $151 $82 #
plane-surface $-1 0 -40.516855031352392 -6.4190653164453808 0 0 1 1 0 0 forward_v I I I I #
coedge $-1 $221 $222 $86 $147 forward $83 $-1 #
coedge $-1 $223 $85 $222 $224 forward $53 $-1 #
coedge $-1 $85 $223 $225 $226 forward $53 $-1 #
coedge $-1 $87 $86 $85 $146 reversed $34 $-1 #
edge $-1 $227 -72.536393322550126 $228 72.536393322550126 $85 $229 forward 7 unknown #
edge $-1 $228 -15.149781989106986 $153 -6.4190653164453808 $142 $230 forward 7 unknown #
coedge $-1 $225 $231 $87 $149 forward $232 $-1 #
edge $-1 $152 6.4190653164453808 $227 15.149781989106986 $148 $233 forward 7 unknown #
coedge $-1 $234 $88 $231 $235 forward $140 $-1 #
coedge $-1 $88 $234 $221 $236 forward $140 $-1 #
vertex $-1 $149 $237 #
vertex $-1 $236 $238 #
straight-curve $-1 0 -34.0870354826286 -6.4190653164453808 1 0 0 I I #
face $-1 $239 $240 $20 $-1 $241 reversed single #
loop $-1 $-1 $242 $90 #
plane-surface $-1 0 46.946674580076177 -10.784423652776184 0 -1 0 0 0 -1 forward_v I I I I #
coedge $-1 $243 $96 $244 $245 forward $91 $-1 #
coedge $-1 $246 $93 $165 $247 reversed $57 $-1 #
coedge $-1 $93 $246 $248 $249 reversed $57 $-1 #
edge $-1 $250 -15.149781989106986 $167 -6.4190653164453808 $93 $251 forward 7 unknown #
coedge $-1 $95 $94 $252 $253 reversed $37 $-1 #
coedge $-1 $254 $244 $95 $164 forward $255 $-1 #
edge $-1 $166 6.4190653164453808 $256 15.149781989106986 $163 $257 forward 7 unknown #
coedge $-1 $96 $243 $159 $247 forward $91 $-1 #
vertex $-1 $164 $258 #
vertex $-1 $247 $259 #
straight-curve $-1 0 34.0870354826286 -6.4190653164453808 -1 0 0 I I #
face $-1 $-1 $181 $21 $-1 $260 forward single #
loop $-1 $-1 $261 $98 #
plane-surface $-1 -72.536393322550126 0 0 1 0 0 0 0 -1 forward_v I I I I #
coedge $-1 $262 $263 $264 $265 reversed $99 $-1 #
coedge $-1 $266 $101 $103 $179 forward $61 $-1 #
coedge $-1 $101 $266 $262 $267 forward $61 $-1 #
coedge $-1 $264 $104 $101 $176 forward $181 $-1 #
edge $-1 $183 -11.941279944681684 $268 0.20923766734494187 $175 $269 forward 7 unknown #
coedge $-1 $270 $271 $102 $178 forward $170 $-1 #
edge $-1 $272 -41.672500603314049 $182 -28.449360272442433 $177 $273 forward 7 unknown #
edge $-1 $183 -16.3447001596383 $272 4.8322124813089328e-014 $103 $274 forward 7 unknown #
coedge $-1 $104 $264 $270 $275 forward $181 $-1 #
loop $-1 $-1 $264 $169 #
vertex $-1 $178 $276 #
vertex $-1 $105 $277 #
straight-curve $-1 -94.951372163504743 -17.807301083350055 15.149781989106984 1 0 0 I I #
coedge $-1 $185 $185 $-1 $278 reversed $108 $-1 #
edge $-1 $279 0 $279 6.2831853071796004 $109 $280 forward 7 unknown #
vertex $-1 $112 $281 #
ellipse-curve $-1 -67.732806561114501 -14.335724622771018 8.5382118236711868 -0.80901700255871778 0 0.5877852410284794 0.5877852410284794 0 0.80901700255871778 1 I I #
coedge $-1 $189 $189 $-1 $282 reversed $115 $-1 #
edge $-1 $283 0 $283 6.2831853071796004 $116 $284 forward 7 unknown #
vertex $-1 $119 $285 #
ellipse-curve $-1 -67.732806561114501 -9.128359931902466 8.5382118236711868 -0.80901700255871778 0 0.5877852410284794 0.5877852410284794 0 0.80901700255871778 1 I I #
face $-1 $-1 $135 $18 $-1 $286 reversed single #
loop $-1 $-1 $209 $120 #
plane-surface $-1 0 34.0870354826286 0 0 -1 0 0 0 -1 forward_v I I I I #
coedge $-1 $287 $206 $209 $288 forward $121 $-1 #
coedge $-1 $123 $212 $124 $200 reversed $75 $-1 #
edge $-1 $136 -15.149781989106986 $204 15.149781989106986 $133 $289 forward 7 unknown #
coedge $-1 $125 $124 $287 $290 forward $49 $-1 #
edge $-1 $204 -72.536393322550126 $291 72.536393322550126 $197 $292 forward 7 unknown #
coedge $-1 $209 $208 $125 $202 reversed $194 $-1 #
edge $-1 $293 -72.536393322550126 $203 72.536393322550126 $201 $294 forward 7 unknown #
vertex $-1 $127 $295 #
vertex $-1 $198 $296 #
straight-curve $-1 72.536393322550126 0 -15.149781989106986 0 -1 0 I I #
coedge $-1 $196 $297 $128 $207 reversed $121 $-1 #
edge $-1 $210 -34.0870354826286 $213 34.0870354826286 $206 $298 forward 7 unknown #
coedge $-1 $201 $129 $134 $215 forward $194 $-1 #
coedge $-1 $129 $201 $196 $288 reversed $194 $-1 #
vertex $-1 $130 $299 #
straight-curve $-1 0 34.0870354826286 15.149781989106986 -1 0 0 I I #
coedge $-1 $197 $131 $297 $300 forward $75 $-1 #
vertex $-1 $207 $301 #
straight-curve $-1 0 -34.0870354826286 15.149781989106986 1 0 0 I I #
edge $-1 $137 -15.149781989106986 $203 15.149781989106986 $134 $302 forward 7 unknown #
point $-1 72.536393322550126 -34.0870354826286 15.149781989106986 #
point $-1 72.536393322550126 34.0870354826286 15.149781989106986 #
face $-1 $-1 $232 $19 $-1 $303 reversed single #
loop $-1 $-1 $304 $139 #
plane-surface $-1 0 -46.946674580076177 -10.784423652776184 0 1 0 0 0 1 forward_v I I I I #
coedge $-1 $305 $142 $151 $236 reversed $83 $-1 #
coedge $-1 $142 $305 $143 $224 reversed $83 $-1 #
coedge $-1 $144 $143 $306 $307 forward $53 $-1 #
edge $-1 $228 34.0870354826286 $308 46.946674580076177 $222 $309 forward 7 unknown #
coedge $-1 $310 $148 $144 $226 reversed $232 $-1 #
edge $-1 $311 -46.946674580076177 $227 -34.0870354826286 $225 $312 forward 7 unknown #
vertex $-1 $149 $313 #
vertex $-1 $224 $314 #
straight-curve $-1 0 -34.0870354826286 -15.149781989106986 1 0 0 I I #
straight-curve $-1 72.536393322550126 -34.0870354826286 0 0 0 1 I I #
coedge $-1 $148 $310 $150 $235 reversed $232 $-1 #
loop $-1 $-1 $148 $218 #
straight-curve $-1 -72.536393322550126 -34.0870354826286 0 0 0 -1 I I #
coedge $-1 $151 $150 $315 $316 forward $140 $-1 #
edge $-1 $152 -6.4298195487237848 $317 6.4298195487237848 $231 $318 forward 7 unknown #
edge $-1 $319 -6.4298195487237848 $153 6.4298195487237848 $221 $320 forward 7 unknown #
point $-1 -72.536393322550126 -34.087035482628607 -6.4190653164453808 #
point $-1 72.536393322550126 -34.087035482628607 -6.4190653164453808 #
face $-1 $-1 $255 $20 $-1 $321 reversed single #
loop $-1 $-1 $252 $155 #
plane-surface $-1 0 0 -15.149781989106986 0 0 1 1 0 0 forward_v I I I I #
coedge $-1 $322 $323 $324 $325 forward $156 $-1 #
coedge $-1 $165 $158 $323 $326 forward $91 $-1 #
coedge $-1 $163 $324 $158 $245 reversed $255 $-1 #
edge $-1 $166 -6.4298195487237919 $327 6.4298195487237919 $244 $328 forward 7 unknown #
coedge $-1 $160 $159 $329 $330 forward $57 $-1 #
edge $-1 $331 -6.4298195487237919 $167 6.4298195487237919 $159 $332 forward 7 unknown #
coedge $-1 $333 $252 $160 $249 forward $240 $-1 #
edge $-1 $250 -6.4298195487237848 $334 6.4298195487237919 $160 $335 forward 7 unknown #
vertex $-1 $249 $336 #
straight-curve $-1 -72.536393322550126 34.0870354826286 0 0 0 1 I I #
coedge $-1 $248 $337 $162 $253 forward $240 $-1 #
edge $-1 $256 -72.536393322550126 $250 72.536393322550126 $252 $338 forward 7 unknown #
coedge $-1 $324 $163 $337 $339 reversed $255 $-1 #
loop $-1 $-1 $163 $239 #
vertex $-1 $164 $340 #
straight-curve $-1 72.536393322550126 34.0870354826286 0 0 0 -1 I I #
point $-1 72.536393322550126 34.087035482628593 -6.4190653164453808 #
point $-1 -72.536393322550126 34.087035482628593 -6.4190653164453808 #
plane-surface $-1 0 0 15.149781989106986 0 0 1 1 0 0 forward_v I I I I #
coedge $-1 $271 $270 $263 $341 forward $170 $-1 #
coedge $-1 $263 $172 $174 $267 reversed $99 $-1 #
coedge $-1 $172 $262 $261 $341 reversed $99 $-1 #
coedge $-1 $180 $175 $172 $265 forward $181 $-1 #
edge $-1 $268 -32.022152363825867 $342 -22.414978840954618 $264 $343 forward 7 unknown #
coedge $-1 $174 $173 $271 $344 reversed $61 $-1 #
edge $-1 $345 -4.8322124813089328e-014 $268 16.3447001596383 $262 $346 forward 7 unknown #
vertex $-1 $176 $347 #
straight-curve $-1 -62.929219799678876 -5.8660211386683709 15.149781989106987 0 1 0 I I #
coedge $-1 $261 $177 $180 $275 reversed $170 $-1 #
coedge $-1 $177 $261 $266 $344 forward $170 $-1 #
vertex $-1 $178 $348 #
straight-curve $-1 -72.536393322550126 -17.807301083350055 43.599142261549417 0 0 1 I I #
straight-curve $-1 -72.536393322550097 -17.807301083350055 1.9266416582354111 -0.5877852410284794 0 -0.80901700255871778 I I #
edge $-1 $342 5.6567834713234291 $182 17.807301083350055 $270 $349 forward 7 unknown #
point $-1 -72.536393322550126 -17.807301083350055 15.149781989106986 #
point $-1 -62.929219799678876 -17.807301083350055 15.149781989106986 #
edge $-1 $350 1 $350 0 $185 $-1 forward 7 unknown #
vertex $-1 $186 $351 #
ellipse-curve $-1 -65.399725667020263 -14.335724622771018 6.8431293824655297 -0.80901700255871778 0 0.5877852410284794 0.5877852410284794 0 0.80901700255871778 1 I I #
point $-1 -67.14502132008603 -14.335724622771018 9.3472288262299159 #
edge $-1 $352 1 $352 0 $189 $-1 forward 7 unknown #
vertex $-1 $190 $353 #
ellipse-curve $-1 -65.399725667020263 -9.128359931902466 6.8431293824655297 -0.80901700255871778 0 0.5877852410284794 0.5877852410284794 0 0.80901700255871778 1 I I #
point $-1 -67.14502132008603 -9.128359931902466 9.3472288262299159 #
plane-surface $-1 72.536393322550126 0 0 -1 0 0 0 0 1 forward_v I I I I #
coedge $-1 $297 $196 $199 $290 reversed $121 $-1 #
edge $-1 $210 -15.149781989106986 $293 15.149781989106986 $209 $354 forward 7 unknown #
straight-curve $-1 72.536393322550126 -34.0870354826286 0 0 0 -1 I I #
edge $-1 $291 -34.0870354826286 $293 34.0870354826286 $287 $355 forward 7 unknown #
vertex $-1 $290 $356 #
straight-curve $-1 0 -34.0870354826286 -15.149781989106986 -1 0 0 I I #
vertex $-1 $202 $357 #
straight-curve $-1 0 34.0870354826286 -15.149781989106986 1 0 0 I I #
point $-1 72.536393322550126 34.0870354826286 -15.149781989106986 #
point $-1 72.536393322550126 -34.0870354826286 -15.149781989106986 #
coedge $-1 $206 $287 $212 $300 reversed $121 $-1 #
straight-curve $-1 -72.536393322550126 0 15.149781989106986 0 -1 0 I I #
point $-1 -72.536393322550126 34.0870354826286 15.149781989106986 #
edge $-1 $213 -15.149781989106986 $291 15.149781989106986 $297 $358 forward 7 unknown #
point $-1 -72.536393322550126 -34.0870354826286 15.149781989106986 #
straight-curve $-1 72.536393322550126 34.0870354826286 0 0 0 -1 I I #
plane-surface $-1 -72.536393322550126 0 0 1 0 0 0 0 -1 forward_v I I I I #
coedge $-1 $306 $315 $310 $359 forward $219 $-1 #
coedge $-1 $222 $221 $360 $361 forward $83 $-1 #
coedge $-1 $360 $304 $223 $307 reversed $219 $-1 #
edge $-1 $308 -72.536393322550126 $311 72.536393322550126 $306 $362 forward 7 unknown #
vertex $-1 $361 $363 #
straight-curve $-1 72.536393322550126 0 -15.149781989106986 0 -1 0 I I #
coedge $-1 $231 $225 $304 $359 reversed $232 $-1 #
vertex $-1 $226 $364 #
straight-curve $-1 -72.536393322550126 0 -15.149781989106986 0 1 0 I I #
point $-1 -72.536393322550126 -34.0870354826286 -15.149781989106986 #
point $-1 72.536393322550126 -34.0870354826286 -15.149781989106986 #
coedge $-1 $304 $360 $234 $316 reversed $219 $-1 #
edge $-1 $317 -72.536393322550126 $319 72.536393322550126 $315 $365 forward 7 unknown #
vertex $-1 $235 $366 #
straight-curve $-1 -72.536393322550126 -40.516855031352392 -6.4190653164453808 0 -1 0 I I #
vertex $-1 $236 $367 #
straight-curve $-1 72.536393322550126 -40.516855031352392 -6.4190653164453808 0 1 0 I I #
plane-surface $-1 72.536393322550126 0 0 -1 0 0 0 0 1 forward_v I I I I #
coedge $-1 $329 $242 $333 $368 reversed $156 $-1 #
coedge $-1 $242 $329 $243 $326 reversed $156 $-1 #
coedge $-1 $244 $254 $242 $325 reversed $255 $-1 #
edge $-1 $327 -4.3653583363308028 $369 4.3653583363308037 $324 $370 forward 7 unknown #
edge $-1 $327 -72.536393322550126 $331 72.536393322550126 $323 $371 forward 7 unknown #
vertex $-1 $245 $372 #
straight-curve $-1 72.536393322550126 40.516855031352385 -6.4190653164453808 0 1 0 I I #
coedge $-1 $323 $322 $246 $330 reversed $156 $-1 #
edge $-1 $331 -4.3653583363308028 $334 4.3653583363308037 $329 $373 forward 7 unknown #
vertex $-1 $326 $374 #
straight-curve $-1 -72.536393322550126 40.516855031352385 -6.4190653164453808 0 -1 0 I I #
coedge $-1 $337 $248 $322 $368 forward $240 $-1 #
vertex $-1 $368 $375 #
straight-curve $-1 -72.536393322550126 40.516855031352385 -15.149781989106987 0 1 0 I I #
point $-1 -72.536393322550126 34.0870354826286 -15.149781989106986 #
coedge $-1 $252 $333 $254 $339 forward $240 $-1 #
straight-curve $-1 0 34.0870354826286 -15.149781989106986 -1 0 0 I I #
edge $-1 $369 -46.946674580076177 $256 -34.0870354826286 $254 $376 forward 7 unknown #
point $-1 72.536393322550126 34.0870354826286 -15.149781989106986 #
edge $-1 $342 28.449360272442433 $345 41.672500603314049 $261 $377 forward 7 unknown #
vertex $-1 $275 $378 #
straight-curve $-1 -94.951372163504743 -5.6567834713234291 15.149781989106984 -1 0 0 I I #
edge $-1 $345 -0.20923766734494187 $272 11.941279944681684 $271 $379 forward 7 unknown #
vertex $-1 $344 $380 #
straight-curve $-1 -72.536393322550097 -5.6567834713234291 1.9266416582354111 0.5877852410284794 0 0.80901700255871778 I I #
point $-1 -62.929219799678876 -5.6567834713234291 15.149781989106986 #
point $-1 -72.536393322550126 -17.807301083350055 1.926641658235372 #
straight-curve $-1 -72.536393322550126 0 15.149781989106986 0 -1 0 I I #
vertex $-1 $278 $381 #
point $-1 -64.811940425991793 -14.335724622771018 7.6521463850242473 #
vertex $-1 $282 $382 #
point $-1 -64.811940425991793 -9.128359931902466 7.6521463850242473 #
straight-curve $-1 -72.536393322550126 34.0870354826286 0 0 0 -1 I I #
straight-curve $-1 -72.536393322550126 0 -15.149781989106986 0 1 0 I I #
point $-1 -72.536393322550126 -34.0870354826286 -15.149781989106986 #
point $-1 -72.536393322550126 34.0870354826286 -15.149781989106986 #
straight-curve $-1 -72.536393322550126 -34.0870354826286 0 0 0 -1 I I #
edge $-1 $317 -4.3653583363308028 $311 4.3653583363308037 $310 $383 forward 7 unknown #
coedge $-1 $315 $306 $305 $361 reversed $219 $-1 #
edge $-1 $319 -4.3653583363308028 $308 4.3653583363308037 $305 $384 forward 7 unknown #
straight-curve $-1 0 -46.946674580076177 -15.149781989106987 -1 0 0 I I #
point $-1 72.536393322550126 -46.946674580076177 -15.149781989106987 #
point $-1 -72.536393322550126 -46.946674580076177 -15.149781989106987 #
straight-curve $-1 0 -46.946674580076177 -6.4190653164453808 1 0 0 I I #
point $-1 -72.536393322550126 -46.946674580076177 -6.4190653164453808 #
point $-1 72.536393322550126 -46.946674580076177 -6.4190653164453808 #
edge $-1 $334 -72.536393322550126 $369 72.536393322550126 $322 $385 forward 7 unknown #
vertex $-1 $339 $386 #
straight-curve $-1 72.536393322550126 46.946674580076177 -10.784423652776184 0 0 -1 I I #
straight-curve $-1 0 46.946674580076177 -6.4190653164453808 -1 0 0 I I #
point $-1 72.536393322550126 46.946674580076177 -6.4190653164453808 #
straight-curve $-1 -72.536393322550126 46.946674580076177 -10.784423652776184 0 0 -1 I I #
point $-1 -72.536393322550126 46.946674580076177 -6.4190653164453808 #
point $-1 -72.536393322550126 46.946674580076177 -15.149781989106987 #
straight-curve $-1 72.536393322550126 0 -15.149781989106986 0 -1 0 I I #
straight-curve $-1 -72.536393322550126 -5.6567834713234291 43.599142261549417 0 0 -1 I I #
point $-1 -72.536393322550126 -5.6567834713234291 15.149781989106986 #
straight-curve $-1 -72.536393322550126 -5.8660211386683709 1.9266416582353789 0 -1 0 I I #
point $-1 -72.536393322550126 -5.6567834713234291 1.926641658235372 #
point $-1 -64.590708664461559 -14.335724622771018 6.2553441414370505 #
point $-1 -64.590708664461559 -9.128359931902466 6.2553441414370505 #
straight-curve $-1 -72.536393322550126 -46.946674580076177 -10.784423652776184 0 0 -1 I I #
straight-curve $-1 72.536393322550126 -46.946674580076177 -10.784423652776184 0 0 -1 I I #
straight-curve $-1 0 46.946674580076177 -15.149781989106987 1 0 0 I I #
point $-1 72.536393322550126 46.946674580076177 -15.149781989106987 #
End-of-ACIS-data 