500 0 9 0           
7 Unknown 11 ACIS 5.0 NT 24 Thu Mar 25 18:32:28 1999 
-1 9.9999999999999995e-007 1e-010 
body $-1 $9 $-1 $10 #
body $-1 $11 $-1 $12 #
body $-1 $13 $-1 $14 #
body $-1 $15 $-1 $16 #
body $-1 $17 $-1 $18 #
body $-1 $19 $-1 $20 #
body $-1 $21 $-1 $22 #
body $-1 $23 $-1 $24 #
body $-1 $25 $-1 $26 #
lump $-1 $-1 $27 $0 #
transform $-1 1 0 0 0 1 0 0 0 1 61.994079409161657 40.71342491572895 12.882996497657265 1 rotate no_reflect no_shear #
lump $-1 $-1 $28 $1 #
transform $-1 1 0 0 0 1 0 0 0 1 61.994079409161657 40.71342491572895 12.882996497657265 1 rotate no_reflect no_shear #
lump $-1 $-1 $29 $2 #
transform $-1 1 0 0 0 1 0 0 0 1 61.994079409161657 40.71342491572895 12.882996497657265 1 rotate no_reflect no_shear #
lump $-1 $-1 $30 $3 #
transform $-1 1 0 0 0 1 0 0 0 1 61.994079409161657 40.71342491572895 12.882996497657265 1 rotate no_reflect no_shear #
lump $-1 $-1 $31 $4 #
transform $-1 1 0 0 0 1 0 0 0 1 61.994079409161657 40.71342491572895 12.882996497657265 1 rotate no_reflect no_shear #
lump $-1 $-1 $32 $5 #
transform $-1 1 0 0 0 1 0 0 0 1 61.994079409161657 40.71342491572895 12.882996497657265 1 rotate no_reflect no_shear #
lump $-1 $-1 $33 $6 #
transform $-1 1 0 0 0 1 0 0 0 1 61.994079409161657 40.71342491572895 12.882996497657265 1 rotate no_reflect no_shear #
lump $-1 $-1 $34 $7 #
transform $-1 1 0 0 0 1 0 0 0 1 61.994079409161657 40.71342491572895 12.882996497657265 1 rotate no_reflect no_shear #
lump $-1 $-1 $35 $8 #
transform $-1 1 0 0 0 1 0 0 0 1 61.994079409161657 40.71342491572895 12.882996497657265 1 rotate no_reflect no_shear #
shell $-1 $-1 $-1 $36 $-1 $9 #
shell $-1 $-1 $-1 $37 $-1 $11 #
shell $-1 $-1 $-1 $38 $-1 $13 #
shell $-1 $-1 $-1 $39 $-1 $15 #
shell $-1 $-1 $-1 $40 $-1 $17 #
shell $-1 $-1 $-1 $41 $-1 $19 #
shell $-1 $-1 $-1 $42 $-1 $21 #
shell $-1 $-1 $-1 $43 $-1 $23 #
shell $-1 $-1 $-1 $44 $-1 $25 #
face $-1 $45 $46 $27 $-1 $47 reversed single #
face $-1 $48 $49 $28 $-1 $50 forward single #
face $-1 $51 $52 $29 $-1 $53 reversed single #
face $-1 $54 $55 $30 $-1 $56 forward single #
face $-1 $57 $58 $31 $-1 $59 forward single #
face $-1 $60 $61 $32 $-1 $62 reversed single #
face $-1 $63 $64 $33 $-1 $65 forward single #
face $-1 $66 $67 $34 $-1 $68 forward single #
face $-1 $69 $70 $35 $-1 $71 forward single #
face $-1 $72 $73 $27 $-1 $74 forward single #
loop $-1 $-1 $75 $36 #
plane-surface $-1 0 -40.71342491572895 0 0 1 0 0 0 1 forward_v I I I I #
face $-1 $76 $77 $28 $-1 $78 reversed single #
loop $-1 $-1 $79 $37 #
plane-surface $-1 0 -40.71342491572895 0 0 1 0 0 0 1 forward_v I I I I #
face $-1 $80 $81 $29 $-1 $82 reversed single #
loop $-1 $-1 $83 $38 #
plane-surface $-1 65.054286536294882 22.675253132246837 180.41540693669398 0 1 0 0.71933980857756763 0 0.69465836192734942 forward_v I I I I #
face $-1 $84 $85 $30 $-1 $86 forward single #
loop $-1 $87 $88 $39 #
cone-surface $-1 55.650821673845748 27.829016498956008 6.4947986702889455 -0.71933980857756763 0 -0.69465836192734942 1.7366459048183736 0 -1.7983495214439191 1 I I 0 1 2.5 forward I I I I #
face $-1 $89 $90 $31 $-1 $91 forward single #
loop $-1 $92 $93 $40 #
cone-surface $-1 55.650821673845748 35.559661549019779 6.4947986702889455 -0.71933980857756763 0 -0.69465836192734942 1.7366459048183736 0 -1.7983495214439191 1 I I 0 1 2.5 forward I I I I #
face $-1 $94 $95 $32 $-1 $96 reversed single #
loop $-1 $-1 $97 $41 #
plane-surface $-1 -146.55380139577642 10.411378498335267 92.126946718094644 0 1 0 -0.68199836817093118 0 0.7313536940579346 forward_v I I I I #
face $-1 $98 $99 $33 $-1 $100 forward single #
loop $-1 $101 $102 $42 #
cone-surface $-1 -55.521679421703304 11.909420809892303 6.7996957752356675 0.68199836817093118 0 -0.7313536940579346 0.3656768470289673 0 0.34099918408546559 1 I I 0 1 0.5 forward I I I I #
face $-1 $103 $104 $34 $-1 $105 forward single #
loop $-1 $106 $107 $43 #
cone-surface $-1 -55.521679421703304 14.156484277227854 6.7996957752356675 0.68199836817093118 0 -0.7313536940579346 0.3656768470289673 0 0.34099918408546559 1 I I 0 1 0.5 forward I I I I #
face $-1 $108 $109 $35 $-1 $110 forward single #
loop $-1 $111 $112 $44 #
cone-surface $-1 -55.521679421703304 16.403547744563404 6.7996957752356675 0.68199836817093118 0 -0.7313536940579346 0.3656768470289673 0 0.34099918408546559 1 I I 0 1 0.5 forward I I I I #
face $-1 $113 $114 $27 $-1 $115 reversed single #
loop $-1 $-1 $116 $45 #
plane-surface $-1 0 0 12.882996497657265 0 0 1 1 0 0 forward_v I I I I #
coedge $-1 $117 $118 $119 $120 reversed $46 $-1 #
face $-1 $121 $122 $28 $-1 $123 reversed single #
loop $-1 $-1 $124 $48 #
plane-surface $-1 0 0 -12.882996497657265 0 0 1 1 0 0 forward_v I I I I #
coedge $-1 $125 $126 $127 $128 forward $49 $-1 #
face $-1 $129 $130 $29 $-1 $131 reversed single #
loop $-1 $-1 $132 $51 #
plane-surface $-1 -24.135331893962856 31.694339023987894 94.28599563356947 0.71933980857756763 0 0.69465836192734942 0.69465836192734942 0 -0.71933980857756763 forward_v I I I I #
coedge $-1 $133 $134 $135 $136 reversed $52 $-1 #
face $-1 $-1 $137 $30 $-1 $138 forward single #
loop $-1 $139 $140 $54 #
cone-surface $-1 52.168114511692764 27.829016498956008 3.1315875376842062 -0.71933980857756763 0 -0.69465836192734942 0.86832295240918678 0 -0.89917476072195957 1 I I -0.70710678118654746 0.70710678118654746 1.25 forward I I I I #
loop $-1 $-1 $141 $39 #
coedge $-1 $88 $88 $142 $143 reversed $55 $-1 #
face $-1 $-1 $144 $31 $-1 $145 forward single #
loop $-1 $146 $147 $57 #
cone-surface $-1 52.168114511692764 35.559661549019779 3.1315875376842062 -0.71933980857756763 0 -0.69465836192734942 0.86832295240918678 0 -0.89917476072195957 1 I I -0.70710678118654746 0.70710678118654746 1.25 forward I I I I #
loop $-1 $-1 $148 $40 #
coedge $-1 $93 $93 $149 $150 reversed $58 $-1 #
face $-1 $151 $152 $32 $-1 $153 reversed single #
loop $-1 $-1 $154 $60 #
plane-surface $-1 -61.994079409161671 14.156484277227854 1.4477487468720085 -0.68199836817093118 0 0.7313536940579346 0.7313536940579346 0 0.68199836817093118 forward_v I I I I #
coedge $-1 $155 $156 $157 $158 reversed $61 $-1 #
face $-1 $-1 $159 $33 $-1 $160 forward single #
loop $-1 $161 $162 $63 #
cone-surface $-1 -55.010180645575105 11.909420809892303 6.2511805046922166 0.68199836817093118 0 -0.7313536940579346 0.18283842351448365 0 0.17049959204273279 1 I I -0.70710678118654746 0.70710678118654746 0.25 forward I I I I #
loop $-1 $-1 $163 $42 #
coedge $-1 $102 $102 $164 $165 reversed $64 $-1 #
face $-1 $-1 $166 $34 $-1 $167 forward single #
loop $-1 $168 $169 $66 #
cone-surface $-1 -55.010180645575105 14.156484277227854 6.2511805046922166 0.68199836817093118 0 -0.7313536940579346 0.18283842351448365 0 0.17049959204273279 1 I I -0.70710678118654746 0.70710678118654746 0.25 forward I I I I #
loop $-1 $-1 $170 $43 #
coedge $-1 $107 $107 $171 $172 reversed $67 $-1 #
face $-1 $-1 $173 $35 $-1 $174 forward single #
loop $-1 $175 $176 $69 #
cone-surface $-1 -55.010180645575105 16.403547744563404 6.2511805046922166 0.68199836817093118 0 -0.7313536940579346 0.18283842351448365 0 0.17049959204273279 1 I I -0.70710678118654746 0.70710678118654746 0.25 forward I I I I #
loop $-1 $-1 $177 $44 #
coedge $-1 $112 $112 $178 $179 reversed $70 $-1 #
face $-1 $180 $181 $27 $-1 $182 reversed single #
loop $-1 $-1 $183 $72 #
plane-surface $-1 0 0 -12.882996497657265 0 0 1 1 0 0 forward_v I I I I #
coedge $-1 $184 $185 $186 $187 forward $73 $-1 #
coedge $-1 $188 $75 $189 $190 reversed $46 $-1 #
coedge $-1 $75 $188 $191 $192 forward $46 $-1 #
coedge $-1 $193 $183 $75 $120 forward $114 $-1 #
edge $-1 $194 -61.994079409161657 $195 61.994079409161657 $75 $196 forward 7 unknown #
face $-1 $197 $198 $28 $-1 $199 reversed single #
loop $-1 $-1 $200 $76 #
plane-surface $-1 -59.532594341039392 -49.615301456224188 0 0 1 0 0 0 1 forward_v I I I I #
coedge $-1 $201 $202 $126 $203 forward $77 $-1 #
coedge $-1 $204 $79 $205 $206 reversed $49 $-1 #
coedge $-1 $79 $204 $124 $203 reversed $49 $-1 #
coedge $-1 $207 $208 $79 $128 reversed $198 $-1 #
edge $-1 $209 -12.882996497657265 $210 12.882996497657265 $127 $211 forward 7 unknown #
face $-1 $212 $213 $29 $-1 $214 forward single #
loop $-1 $-1 $215 $80 #
plane-surface $-1 0 40.71342491572895 0 0 -1 0 0 0 -1 forward_v I I I I #
coedge $-1 $216 $217 $218 $219 reversed $81 $-1 #
coedge $-1 $134 $83 $220 $221 reversed $52 $-1 #
coedge $-1 $83 $133 $216 $222 reversed $52 $-1 #
coedge $-1 $218 $223 $83 $136 forward $224 $-1 #
edge $-1 $225 77.324706970689732 $226 85.111326265035274 $135 $227 forward 7 unknown #
loop $-1 $-1 $142 $84 #
plane-surface $-1 -24.135331893962856 31.694339023987894 94.28599563356947 0.71933980857756763 0 0.69465836192734942 0.69465836192734942 0 -0.71933980857756763 forward_v I I I I #
loop $-1 $-1 $228 $54 #
coedge $-1 $140 $140 $141 $229 reversed $85 $-1 #
coedge $-1 $141 $141 $140 $229 forward $87 $-1 #
coedge $-1 $142 $142 $88 $143 forward $137 $-1 #
edge $-1 $230 0 $230 6.2831853071796004 $142 $231 forward 7 unknown #
loop $-1 $-1 $149 $89 #
plane-surface $-1 -24.135331893962856 31.694339023987894 94.28599563356947 0.71933980857756763 0 0.69465836192734942 0.69465836192734942 0 -0.71933980857756763 forward_v I I I I #
loop $-1 $-1 $232 $57 #
coedge $-1 $147 $147 $148 $233 reversed $90 $-1 #
coedge $-1 $148 $148 $147 $233 forward $92 $-1 #
coedge $-1 $149 $149 $93 $150 forward $144 $-1 #
edge $-1 $234 0 $234 6.2831853071796004 $149 $235 forward 7 unknown #
face $-1 $236 $237 $32 $-1 $238 reversed single #
loop $-1 $-1 $239 $94 #
plane-surface $-1 -146.55380139577642 17.90159005612044 92.126946718094644 0 -1 0 0.68199836817093118 0 -0.7313536940579346 forward_v I I I I #
coedge $-1 $240 $241 $242 $243 reversed $95 $-1 #
coedge $-1 $156 $97 $244 $245 reversed $61 $-1 #
coedge $-1 $97 $155 $240 $246 reversed $61 $-1 #
coedge $-1 $242 $247 $97 $158 forward $248 $-1 #
edge $-1 $249 11.282821288726552 $250 23.545622895472306 $157 $251 forward 7 unknown #
loop $-1 $-1 $164 $98 #
plane-surface $-1 -61.994079409161671 14.156484277227854 1.4477487468720085 -0.68199836817093118 0 0.7313536940579346 0.7313536940579346 0 0.68199836817093118 forward_v I I I I #
loop $-1 $-1 $252 $63 #
coedge $-1 $162 $162 $163 $253 reversed $99 $-1 #
coedge $-1 $163 $163 $162 $253 forward $101 $-1 #
coedge $-1 $164 $164 $102 $165 forward $159 $-1 #
edge $-1 $254 0 $254 6.2831853071796004 $164 $255 forward 7 unknown #
loop $-1 $-1 $171 $103 #
plane-surface $-1 -61.994079409161671 14.156484277227854 1.4477487468720085 -0.68199836817093118 0 0.7313536940579346 0.7313536940579346 0 0.68199836817093118 forward_v I I I I #
loop $-1 $-1 $256 $66 #
coedge $-1 $169 $169 $170 $257 reversed $104 $-1 #
coedge $-1 $170 $170 $169 $257 forward $106 $-1 #
coedge $-1 $171 $171 $107 $172 forward $166 $-1 #
edge $-1 $258 0 $258 6.2831853071796004 $171 $259 forward 7 unknown #
loop $-1 $-1 $178 $108 #
plane-surface $-1 -61.994079409161671 14.156484277227854 1.4477487468720085 -0.68199836817093118 0 0.7313536940579346 0.7313536940579346 0 0.68199836817093118 forward_v I I I I #
loop $-1 $-1 $260 $69 #
coedge $-1 $176 $176 $177 $261 reversed $109 $-1 #
coedge $-1 $177 $177 $176 $261 forward $111 $-1 #
coedge $-1 $178 $178 $112 $179 forward $173 $-1 #
edge $-1 $262 0 $262 6.2831853071796004 $178 $263 forward 7 unknown #
face $-1 $264 $265 $27 $-1 $266 reversed single #
loop $-1 $-1 $267 $113 #
plane-surface $-1 -61.994079409161657 0 0 1 0 0 0 0 -1 forward_v I I I I #
coedge $-1 $119 $268 $269 $270 forward $114 $-1 #
coedge $-1 $271 $116 $272 $273 forward $73 $-1 #
coedge $-1 $116 $271 $188 $274 forward $73 $-1 #
coedge $-1 $189 $275 $116 $187 reversed $276 $-1 #
edge $-1 $277 -40.71342491572895 $278 40.71342491572895 $186 $279 forward 7 unknown #
coedge $-1 $118 $117 $185 $274 reversed $46 $-1 #
coedge $-1 $269 $186 $117 $190 forward $276 $-1 #
edge $-1 $277 -12.882996497657265 $194 12.882996497657265 $189 $280 forward 7 unknown #
coedge $-1 $281 $282 $118 $192 reversed $181 $-1 #
edge $-1 $283 -12.882996497657265 $195 12.882996497657265 $191 $284 forward 7 unknown #
coedge $-1 $268 $119 $282 $285 forward $114 $-1 #
vertex $-1 $190 $286 #
vertex $-1 $285 $287 #
straight-curve $-1 0 -40.71342491572895 -12.882996497657265 -1 0 0 I I #
face $-1 $288 $289 $28 $-1 $290 reversed single #
loop $-1 $-1 $127 $121 #
plane-surface $-1 -61.494079409161657 -45.164363185976569 0 1 0 0 0 0 -1 forward_v I I I I #
coedge $-1 $291 $292 $293 $294 forward $122 $-1 #
coedge $-1 $295 $124 $296 $297 forward $77 $-1 #
coedge $-1 $124 $295 $207 $298 forward $77 $-1 #
edge $-1 $209 -61.494079409161657 $299 -57.571109272917127 $124 $300 forward 7 unknown #
coedge $-1 $126 $125 $301 $302 forward $49 $-1 #
coedge $-1 $303 $304 $125 $206 forward $305 $-1 #
edge $-1 $306 57.571109272917127 $210 61.494079409161657 $205 $307 forward 7 unknown #
coedge $-1 $293 $127 $202 $298 reversed $198 $-1 #
coedge $-1 $127 $293 $303 $308 reversed $198 $-1 #
vertex $-1 $203 $309 #
vertex $-1 $308 $310 #
straight-curve $-1 -61.494079409161657 -40.71342491572895 0 0 0 1 I I #
face $-1 $-1 $224 $29 $-1 $311 reversed single #
loop $-1 $-1 $312 $129 #
plane-surface $-1 0 0 12.882996497657265 0 0 1 1 0 0 forward_v I I I I #
coedge $-1 $313 $314 $217 $315 forward $130 $-1 #
coedge $-1 $316 $132 $134 $222 forward $81 $-1 #
coedge $-1 $132 $316 $215 $315 reversed $81 $-1 #
coedge $-1 $317 $135 $132 $219 forward $224 $-1 #
edge $-1 $226 6.8280836202528903 $318 24.866255403735003 $218 $319 forward 7 unknown #
coedge $-1 $320 $312 $133 $221 forward $213 $-1 #
edge $-1 $321 21.947485473244456 $225 29.466936141014216 $220 $322 forward 7 unknown #
edge $-1 $226 -123.98815881832331 $321 -113.16348430219594 $134 $323 forward 7 unknown #
coedge $-1 $135 $317 $320 $324 reversed $224 $-1 #
loop $-1 $-1 $218 $212 #
vertex $-1 $324 $325 #
vertex $-1 $136 $326 #
straight-curve $-1 61.994079409161657 22.675253132246837 90.207703468346992 0 0 -1 I I #
coedge $-1 $228 $228 $-1 $327 reversed $139 $-1 #
edge $-1 $328 0 $328 6.2831853071796004 $140 $329 forward 7 unknown #
vertex $-1 $143 $330 #
ellipse-curve $-1 58.234354075276769 27.829016498956008 8.9896868504844978 0.71933980857756763 0 0.69465836192734942 1.7366459048183736 0 -1.7983495214439191 1 I I #
coedge $-1 $232 $232 $-1 $331 reversed $146 $-1 #
edge $-1 $332 0 $332 6.2831853071796004 $147 $333 forward 7 unknown #
vertex $-1 $150 $334 #
ellipse-curve $-1 58.234354075276769 35.559661549019779 8.9896868504844978 0.71933980857756763 0 0.69465836192734942 1.7366459048183736 0 -1.7983495214439191 1 I I #
face $-1 $-1 $248 $32 $-1 $335 forward single #
loop $-1 $-1 $336 $151 #
plane-surface $-1 -61.994079409161657 0 0 1 0 0 0 0 -1 forward_v I I I I #
coedge $-1 $337 $338 $339 $340 reversed $152 $-1 #
coedge $-1 $341 $154 $156 $246 forward $95 $-1 #
coedge $-1 $154 $341 $337 $342 forward $95 $-1 #
coedge $-1 $339 $157 $154 $243 forward $248 $-1 #
edge $-1 $250 3.3331363597213404 $343 10.823347917506513 $242 $344 forward 7 unknown #
coedge $-1 $345 $346 $155 $245 forward $237 $-1 #
edge $-1 $347 -44.615724612175299 $249 -33.180476861390055 $244 $348 forward 7 unknown #
edge $-1 $250 -16.767265560258949 $347 -1.9479204584885432e-014 $156 $349 forward 7 unknown #
coedge $-1 $157 $339 $345 $350 forward $248 $-1 #
loop $-1 $-1 $339 $236 #
vertex $-1 $245 $351 #
vertex $-1 $158 $352 #
straight-curve $-1 -73.276900697888209 10.411378498335267 12.882996497657267 1 0 0 I I #
coedge $-1 $252 $252 $-1 $353 reversed $161 $-1 #
edge $-1 $354 0 $354 6.2831853071796004 $162 $355 forward 7 unknown #
vertex $-1 $165 $356 #
ellipse-curve $-1 -55.86267860578878 11.909420809892303 7.1653726222646448 -0.68199836817093118 0 0.7313536940579346 0.3656768470289673 0 0.34099918408546559 1 I I #
coedge $-1 $256 $256 $-1 $357 reversed $168 $-1 #
edge $-1 $358 0 $358 6.2831853071796004 $169 $359 forward 7 unknown #
vertex $-1 $172 $360 #
ellipse-curve $-1 -55.86267860578878 14.156484277227854 7.1653726222646448 -0.68199836817093118 0 0.7313536940579346 0.3656768470289673 0 0.34099918408546559 1 I I #
coedge $-1 $260 $260 $-1 $361 reversed $175 $-1 #
edge $-1 $362 0 $362 6.2831853071796004 $176 $363 forward 7 unknown #
vertex $-1 $179 $364 #
ellipse-curve $-1 -55.86267860578878 16.403547744563404 7.1653726222646448 -0.68199836817093118 0 0.7313536940579346 0.3656768470289673 0 0.34099918408546559 1 I I #
face $-1 $-1 $276 $27 $-1 $365 reversed single #
loop $-1 $-1 $366 $180 #
plane-surface $-1 0 40.71342491572895 0 0 -1 0 0 0 -1 forward_v I I I I #
coedge $-1 $282 $281 $367 $368 forward $181 $-1 #
coedge $-1 $183 $193 $369 $370 forward $114 $-1 #
coedge $-1 $275 $189 $183 $270 reversed $276 $-1 #
edge $-1 $371 -40.71342491572895 $194 40.71342491572895 $269 $372 forward 7 unknown #
coedge $-1 $185 $184 $281 $373 forward $73 $-1 #
coedge $-1 $366 $367 $184 $273 reversed $265 $-1 #
edge $-1 $278 -61.994079409161657 $374 61.994079409161657 $272 $375 forward 7 unknown #
edge $-1 $283 -61.994079409161657 $277 61.994079409161657 $188 $376 forward 7 unknown #
coedge $-1 $186 $269 $366 $377 reversed $276 $-1 #
loop $-1 $-1 $189 $264 #
vertex $-1 $187 $378 #
vertex $-1 $187 $379 #
straight-curve $-1 61.994079409161657 0 12.882996497657265 0 1 0 I I #
straight-curve $-1 61.994079409161657 -40.71342491572895 0 0 0 -1 I I #
coedge $-1 $267 $191 $271 $373 reversed $181 $-1 #
coedge $-1 $191 $267 $193 $285 reversed $181 $-1 #
vertex $-1 $373 $380 #
straight-curve $-1 -61.994079409161657 -40.71342491572895 0 0 0 -1 I I #
edge $-1 $195 -40.71342491572895 $381 40.71342491572895 $282 $382 forward 7 unknown #
point $-1 61.994079409161657 -40.71342491572895 -12.882996497657265 #
point $-1 -61.994079409161657 -40.71342491572895 -12.882996497657265 #
face $-1 $-1 $305 $28 $-1 $383 forward single #
loop $-1 $-1 $384 $197 #
plane-surface $-1 -57.571109272917127 -45.164363185976569 0 -1 0 0 0 0 1 forward_v I I I I #
coedge $-1 $385 $200 $295 $386 reversed $122 $-1 #
coedge $-1 $200 $385 $387 $388 reversed $122 $-1 #
coedge $-1 $208 $207 $200 $294 reversed $198 $-1 #
edge $-1 $389 -12.882996497657265 $390 12.882996497657265 $293 $391 forward 7 unknown #
coedge $-1 $202 $201 $291 $386 forward $77 $-1 #
coedge $-1 $301 $384 $201 $297 reversed $289 $-1 #
edge $-1 $299 -4.4509382702476188 $392 4.4509382702476188 $296 $393 forward 7 unknown #
edge $-1 $390 -4.4509382702476188 $209 4.4509382702476188 $207 $394 forward 7 unknown #
vertex $-1 $297 $395 #
straight-curve $-1 0 -40.71342491572895 -12.882996497657265 1 0 0 I I #
coedge $-1 $396 $296 $204 $302 reversed $289 $-1 #
edge $-1 $306 -12.882996497657265 $299 12.882996497657265 $301 $397 forward 7 unknown #
coedge $-1 $387 $205 $208 $308 forward $305 $-1 #
coedge $-1 $205 $387 $396 $398 forward $305 $-1 #
loop $-1 $-1 $205 $288 #
vertex $-1 $206 $399 #
straight-curve $-1 0 -40.71342491572895 12.882996497657265 -1 0 0 I I #
edge $-1 $210 -4.4509382702476188 $389 4.4509382702476188 $208 $400 forward 7 unknown #
point $-1 -61.494079409161657 -40.71342491572895 -12.882996497657265 #
point $-1 -61.494079409161657 -40.71342491572895 12.882996497657265 #
plane-surface $-1 61.994079409161657 0 0 -1 0 0 0 0 1 forward_v I I I I #
coedge $-1 $220 $401 $316 $402 forward $213 $-1 #
coedge $-1 $314 $215 $401 $403 reversed $130 $-1 #
coedge $-1 $215 $313 $317 $404 forward $130 $-1 #
edge $-1 $318 -81.693418734008105 $405 -70.86874421788076 $215 $406 forward 7 unknown #
coedge $-1 $217 $216 $312 $402 reversed $81 $-1 #
coedge $-1 $223 $218 $314 $404 reversed $224 $-1 #
vertex $-1 $219 $407 #
straight-curve $-1 61.994079409161657 15.847169511993947 5.0963772033117252 0 1 0 I I #
coedge $-1 $401 $220 $223 $324 forward $213 $-1 #
vertex $-1 $221 $408 #
straight-curve $-1 32.527143268147441 22.675253132246837 12.88299649765726 1 0 0 I I #
straight-curve $-1 -24.135331893962856 22.675253132246837 94.28599563356947 -0.69465836192734942 0 0.71933980857756763 I I #
edge $-1 $225 22.675253132246837 $409 40.71342491572895 $223 $410 forward 7 unknown #
point $-1 61.994079409161657 22.675253132246837 12.882996497657265 #
point $-1 61.994079409161657 22.675253132246837 5.0963772033117181 #
edge $-1 $411 1 $411 0 $228 $-1 forward 7 unknown #
vertex $-1 $229 $412 #
ellipse-curve $-1 53.067289272414726 27.829016498956008 3.9999104900933928 0.71933980857756763 0 0.69465836192734942 1.7366459048183736 0 -1.7983495214439191 1 I I #
point $-1 59.970999980095144 27.829016498956008 7.1913373290405804 #
edge $-1 $413 1 $413 0 $232 $-1 forward 7 unknown #
vertex $-1 $233 $414 #
ellipse-curve $-1 53.067289272414726 35.559661549019779 3.9999104900933928 0.71933980857756763 0 0.69465836192734942 1.7366459048183736 0 -1.7983495214439191 1 I I #
point $-1 59.970999980095144 35.559661549019779 7.1913373290405804 #
plane-surface $-1 0 0 12.882996497657265 0 0 1 1 0 0 forward_v I I I I #
coedge $-1 $346 $345 $338 $415 forward $237 $-1 #
coedge $-1 $338 $239 $241 $342 reversed $152 $-1 #
coedge $-1 $239 $337 $336 $415 reversed $152 $-1 #
coedge $-1 $247 $242 $239 $340 forward $248 $-1 #
edge $-1 $343 -23.545622895472306 $416 -11.282821288726552 $339 $417 forward 7 unknown #
coedge $-1 $241 $240 $346 $418 reversed $95 $-1 #
edge $-1 $419 1.9479204584885432e-014 $343 16.767265560258949 $337 $420 forward 7 unknown #
vertex $-1 $243 $421 #
straight-curve $-1 -49.731277802415903 7.0782421386139269 12.882996497657267 0 1 0 I I #
coedge $-1 $336 $244 $247 $350 reversed $237 $-1 #
coedge $-1 $244 $336 $341 $418 forward $237 $-1 #
vertex $-1 $245 $422 #
straight-curve $-1 -61.994079409161657 10.411378498335267 46.063473359047322 0 0 1 I I #
straight-curve $-1 -61.994079409161671 10.411378498335267 1.4477487468720085 -0.7313536940579346 0 -0.68199836817093118 I I #
edge $-1 $416 -17.90159005612044 $249 -10.411378498335267 $345 $423 forward 7 unknown #
point $-1 -61.994079409161657 10.411378498335267 12.882996497657265 #
point $-1 -49.731277802415903 10.411378498335267 12.882996497657265 #
edge $-1 $424 1 $424 0 $252 $-1 forward 7 unknown #
vertex $-1 $253 $425 #
ellipse-curve $-1 -55.180680237617835 11.909420809892303 6.4340189282067 -0.68199836817093118 0 0.7313536940579346 0.3656768470289673 0 0.34099918408546559 1 I I #
point $-1 -55.497001758759801 11.909420809892303 7.506371806350101 #
edge $-1 $426 1 $426 0 $256 $-1 forward 7 unknown #
vertex $-1 $257 $427 #
ellipse-curve $-1 -55.180680237617835 14.156484277227854 6.4340189282067 -0.68199836817093118 0 0.7313536940579346 0.3656768470289673 0 0.34099918408546559 1 I I #
point $-1 -55.497001758759801 14.156484277227854 7.506371806350101 #
edge $-1 $428 1 $428 0 $260 $-1 forward 7 unknown #
vertex $-1 $261 $429 #
ellipse-curve $-1 -55.180680237617835 16.403547744563404 6.4340189282067 -0.68199836817093118 0 0.7313536940579346 0.3656768470289673 0 0.34099918408546559 1 I I #
point $-1 -55.497001758759801 16.403547744563404 7.506371806350101 #
plane-surface $-1 61.994079409161657 0 0 -1 0 0 0 0 1 forward_v I I I I #
coedge $-1 $369 $272 $275 $377 forward $265 $-1 #
coedge $-1 $272 $369 $267 $368 reversed $265 $-1 #
edge $-1 $374 -12.882996497657265 $381 12.882996497657265 $367 $430 forward 7 unknown #
coedge $-1 $367 $366 $268 $370 reversed $265 $-1 #
edge $-1 $381 -61.994079409161657 $371 61.994079409161657 $369 $431 forward 7 unknown #
vertex $-1 $270 $432 #
straight-curve $-1 61.994079409161657 0 -12.882996497657265 0 -1 0 I I #
edge $-1 $374 -40.71342491572895 $283 40.71342491572895 $281 $433 forward 7 unknown #
vertex $-1 $273 $434 #
straight-curve $-1 0 40.71342491572895 12.882996497657265 -1 0 0 I I #
straight-curve $-1 0 -40.71342491572895 12.882996497657265 1 0 0 I I #
edge $-1 $278 -12.882996497657265 $371 12.882996497657265 $275 $435 forward 7 unknown #
point $-1 61.994079409161657 -40.71342491572895 12.882996497657265 #
point $-1 61.994079409161657 40.71342491572895 12.882996497657265 #
point $-1 -61.994079409161657 -40.71342491572895 12.882996497657265 #
vertex $-1 $370 $436 #
straight-curve $-1 -61.994079409161657 0 -12.882996497657265 0 1 0 I I #
plane-surface $-1 0 0 12.882996497657265 0 0 1 1 0 0 forward_v I I I I #
coedge $-1 $296 $396 $385 $437 forward $289 $-1 #
coedge $-1 $292 $291 $384 $437 reversed $122 $-1 #
edge $-1 $392 -1.9614850681222649 $390 1.9614850681222649 $291 $438 forward 7 unknown #
coedge $-1 $304 $303 $292 $388 forward $305 $-1 #
edge $-1 $389 -1.9614850681222649 $439 1.9614850681222649 $292 $440 forward 7 unknown #
vertex $-1 $308 $441 #
vertex $-1 $298 $442 #
straight-curve $-1 -61.494079409161657 -49.615301456224188 0 0 0 -1 I I #
vertex $-1 $437 $443 #
straight-curve $-1 -57.571109272917127 -45.164363185976569 -12.882996497657265 0 -1 0 I I #
straight-curve $-1 -61.494079409161657 -45.164363185976569 -12.882996497657265 0 1 0 I I #
point $-1 -57.571109272917127 -40.71342491572895 -12.882996497657265 #
coedge $-1 $384 $301 $304 $398 reversed $289 $-1 #
straight-curve $-1 -57.571109272917127 -40.71342491572895 0 0 0 -1 I I #
edge $-1 $439 -4.4509382702476188 $306 4.4509382702476188 $396 $444 forward 7 unknown #
point $-1 -57.571109272917127 -40.71342491572895 12.882996497657265 #
straight-curve $-1 -61.494079409161657 -45.164363185976569 12.882996497657265 0 -1 0 I I #
coedge $-1 $312 $320 $313 $403 forward $213 $-1 #
edge $-1 $405 -24.866255403735003 $321 -6.8280836202528903 $312 $445 forward 7 unknown #
edge $-1 $409 -61.994079409161657 $405 -54.474628741391896 $313 $446 forward 7 unknown #
edge $-1 $409 -12.882996497657265 $318 -5.0963772033117332 $317 $447 forward 7 unknown #
vertex $-1 $402 $448 #
straight-curve $-1 5.2450629711505421 40.71342491572895 63.861705397480208 -0.69465836192734942 0 0.71933980857756763 I I #
point $-1 61.994079409161657 40.71342491572895 5.0963772033117332 #
point $-1 54.474628741391896 22.675253132246837 12.88299649765726 #
vertex $-1 $324 $449 #
straight-curve $-1 61.994079409161657 0 12.882996497657265 0 1 0 I I #
vertex $-1 $327 $450 #
point $-1 54.8039351772331 27.829016498956008 2.2015609686494737 #
vertex $-1 $331 $451 #
point $-1 54.8039351772331 35.559661549019779 2.2015609686494737 #
edge $-1 $416 33.180476861390055 $419 44.615724612175299 $336 $452 forward 7 unknown #
vertex $-1 $350 $453 #
straight-curve $-1 -73.276900697888209 17.90159005612044 12.882996497657267 -1 0 0 I I #
edge $-1 $419 -10.823347917506513 $347 -3.3331363597213404 $346 $454 forward 7 unknown #
vertex $-1 $418 $455 #
straight-curve $-1 -61.994079409161671 17.90159005612044 1.4477487468720085 0.7313536940579346 0 0.68199836817093118 I I #
point $-1 -49.731277802415903 17.90159005612044 12.882996497657265 #
point $-1 -61.994079409161657 10.411378498335267 1.4477487468720218 #
straight-curve $-1 -61.994079409161657 0 12.882996497657265 0 -1 0 I I #
vertex $-1 $353 $456 #
point $-1 -54.815003390588871 11.909420809892303 6.775018112292166 #
vertex $-1 $357 $457 #
point $-1 -54.815003390588871 14.156484277227854 6.775018112292166 #
vertex $-1 $361 $458 #
point $-1 -54.815003390588871 16.403547744563404 6.775018112292166 #
straight-curve $-1 -61.994079409161657 40.71342491572895 0 0 0 -1 I I #
straight-curve $-1 0 40.71342491572895 -12.882996497657265 1 0 0 I I #
point $-1 61.994079409161657 40.71342491572895 -12.882996497657265 #
straight-curve $-1 -61.994079409161657 0 12.882996497657265 0 -1 0 I I #
point $-1 -61.994079409161657 40.71342491572895 12.882996497657265 #
straight-curve $-1 61.994079409161657 40.71342491572895 0 0 0 -1 I I #
point $-1 -61.994079409161657 40.71342491572895 -12.882996497657265 #
edge $-1 $439 -12.882996497657265 $392 12.882996497657265 $384 $459 forward 7 unknown #
straight-curve $-1 -59.532594341039392 -49.615301456224188 -12.882996497657265 -1 0 0 I I #
vertex $-1 $398 $460 #
straight-curve $-1 -59.532594341039392 -49.615301456224188 12.882996497657265 1 0 0 I I #
point $-1 -61.494079409161657 -49.615301456224188 12.882996497657265 #
point $-1 -61.494079409161657 -49.615301456224188 -12.882996497657265 #
point $-1 -57.571109272917127 -49.615301456224188 -12.882996497657265 #
straight-curve $-1 -57.571109272917127 -45.164363185976569 12.882996497657265 0 1 0 I I #
straight-curve $-1 54.474628741391882 15.847169511993947 12.882996497657281 0 -1 0 I I #
straight-curve $-1 0 40.71342491572895 12.882996497657265 -1 0 0 I I #
straight-curve $-1 61.994079409161657 40.71342491572895 0 0 0 -1 I I #
point $-1 54.474628741391896 40.71342491572895 12.88299649765726 #
point $-1 61.994079409161657 40.71342491572895 12.882996497657265 #
point $-1 51.268939750970802 27.829016498956008 2.2632645852750195 #
point $-1 51.268939750970802 35.559661549019779 2.2632645852750195 #
straight-curve $-1 -61.994079409161657 17.90159005612044 46.063473359047322 0 0 -1 I I #
point $-1 -61.994079409161657 17.90159005612044 12.882996497657265 #
straight-curve $-1 -61.994079409161657 7.0782421386139269 1.447748746872022 0 -1 0 I I #
point $-1 -61.994079409161657 17.90159005612044 1.4477487468720218 #
point $-1 -54.839681053532374 11.909420809892303 6.0683420811777333 #
point $-1 -54.839681053532374 14.156484277227854 6.0683420811777333 #
point $-1 -54.839681053532374 16.403547744563404 6.0683420811777333 #
straight-curve $-1 -57.571109272917127 -49.615301456224188 0 0 0 -1 I I #
point $-1 -57.571109272917127 -49.615301456224188 12.882996497657265 #
End-of-ACIS-data 