500 0 16 0           
7 Unknown 11 ACIS 5.0 NT 24 Thu Mar 25 16:22:07 1999 
-1 9.9999999999999995e-007 1e-010 
body $-1 $16 $-1 $17 #
body $-1 $18 $-1 $19 #
body $-1 $20 $-1 $21 #
body $-1 $22 $-1 $23 #
body $-1 $24 $-1 $25 #
body $-1 $26 $-1 $27 #
body $-1 $28 $-1 $29 #
body $-1 $30 $-1 $31 #
body $-1 $32 $-1 $33 #
body $-1 $34 $-1 $35 #
body $-1 $36 $-1 $37 #
body $-1 $38 $-1 $39 #
body $-1 $40 $-1 $41 #
body $-1 $42 $-1 $43 #
body $-1 $44 $-1 $45 #
body $-1 $46 $-1 $47 #
lump $-1 $-1 $48 $0 #
transform $-1 1 0 0 0 1 0 0 0 1 56.649678029725024 27.36566541426156 7.8109945652627379 1 rotate no_reflect no_shear #
lump $-1 $-1 $49 $1 #
transform $-1 1 0 0 0 1 0 0 0 1 56.649678029725024 27.36566541426156 7.8109945652627379 1 rotate no_reflect no_shear #
lump $-1 $-1 $50 $2 #
transform $-1 1 0 0 0 1 0 0 0 1 56.649678029725024 27.36566541426156 7.8109945652627379 1 rotate no_reflect no_shear #
lump $-1 $-1 $51 $3 #
transform $-1 1 0 0 0 1 0 0 0 1 56.649678029725024 27.36566541426156 7.8109945652627379 1 rotate no_reflect no_shear #
lump $-1 $-1 $52 $4 #
transform $-1 1 0 0 0 1 0 0 0 1 56.649678029725024 27.36566541426156 7.8109945652627379 1 rotate no_reflect no_shear #
lump $-1 $-1 $53 $5 #
transform $-1 1 0 0 0 1 0 0 0 1 56.649678029725024 27.36566541426156 7.8109945652627379 1 rotate no_reflect no_shear #
lump $-1 $-1 $54 $6 #
transform $-1 1 0 0 0 1 0 0 0 1 56.649678029725024 27.36566541426156 7.8109945652627379 1 rotate no_reflect no_shear #
lump $-1 $-1 $55 $7 #
transform $-1 1 0 0 0 1 0 0 0 1 56.649678029725024 27.36566541426156 7.8109945652627379 1 rotate no_reflect no_shear #
lump $-1 $-1 $56 $8 #
transform $-1 1 0 0 0 1 0 0 0 1 56.649678029725024 27.36566541426156 7.8109945652627379 1 rotate no_reflect no_shear #
lump $-1 $-1 $57 $9 #
transform $-1 1 0 0 0 1 0 0 0 1 56.649678029725024 27.36566541426156 7.8109945652627379 1 rotate no_reflect no_shear #
lump $-1 $-1 $58 $10 #
transform $-1 1 0 0 0 1 0 0 0 1 56.649678029725024 27.36566541426156 7.8109945652627379 1 rotate no_reflect no_shear #
lump $-1 $-1 $59 $11 #
transform $-1 1 0 0 0 1 0 0 0 1 56.649678029725024 27.36566541426156 7.8109945652627379 1 rotate no_reflect no_shear #
lump $-1 $-1 $60 $12 #
transform $-1 1 0 0 0 1 0 0 0 1 56.649678029725024 27.36566541426156 7.8109945652627379 1 rotate no_reflect no_shear #
lump $-1 $-1 $61 $13 #
transform $-1 1 0 0 0 1 0 0 0 1 56.649678029725024 27.36566541426156 7.8109945652627379 1 rotate no_reflect no_shear #
lump $-1 $-1 $62 $14 #
transform $-1 1 0 0 0 1 0 0 0 1 56.649678029725024 27.36566541426156 7.8109945652627379 1 rotate no_reflect no_shear #
lump $-1 $-1 $63 $15 #
transform $-1 1 0 0 0 1 0 0 0 1 56.649678029725024 27.36566541426156 7.8109945652627379 1 rotate no_reflect no_shear #
shell $-1 $-1 $-1 $64 $-1 $16 #
shell $-1 $-1 $-1 $65 $-1 $18 #
shell $-1 $-1 $-1 $66 $-1 $20 #
shell $-1 $-1 $-1 $67 $-1 $22 #
shell $-1 $-1 $-1 $68 $-1 $24 #
shell $-1 $-1 $-1 $69 $-1 $26 #
shell $-1 $-1 $-1 $70 $-1 $28 #
shell $-1 $-1 $-1 $71 $-1 $30 #
shell $-1 $-1 $-1 $72 $-1 $32 #
shell $-1 $-1 $-1 $73 $-1 $34 #
shell $-1 $-1 $-1 $74 $-1 $36 #
shell $-1 $-1 $-1 $75 $-1 $38 #
shell $-1 $-1 $-1 $76 $-1 $40 #
shell $-1 $-1 $-1 $77 $-1 $42 #
shell $-1 $-1 $-1 $78 $-1 $44 #
shell $-1 $-1 $-1 $79 $-1 $46 #
face $-1 $80 $81 $48 $-1 $82 forward single #
face $-1 $83 $84 $49 $-1 $85 forward single #
face $-1 $86 $87 $50 $-1 $88 forward single #
face $-1 $89 $90 $51 $-1 $91 reversed single #
face $-1 $92 $93 $52 $-1 $94 forward single #
face $-1 $95 $96 $53 $-1 $97 reversed single #
face $-1 $98 $99 $54 $-1 $100 forward single #
face $-1 $101 $102 $55 $-1 $103 reversed single #
face $-1 $104 $105 $56 $-1 $106 forward single #
face $-1 $107 $108 $57 $-1 $109 forward single #
face $-1 $110 $111 $58 $-1 $112 reversed single #
face $-1 $113 $114 $59 $-1 $115 forward single #
face $-1 $116 $117 $60 $-1 $118 forward single #
face $-1 $119 $120 $61 $-1 $121 reversed single #
face $-1 $122 $123 $62 $-1 $124 forward single #
face $-1 $125 $126 $63 $-1 $127 forward single #
face $-1 $128 $129 $48 $-1 $130 reversed single #
loop $-1 $-1 $131 $64 #
plane-surface $-1 0 0 7.8109945652627379 0 0 1 1 0 0 forward_v I I I I #
face $-1 $132 $133 $49 $-1 $134 reversed single #
loop $-1 $-1 $135 $65 #
plane-surface $-1 0 -27.36566541426156 0 0 1 0 0 0 1 forward_v I I I I #
face $-1 $136 $137 $50 $-1 $138 reversed single #
loop $-1 $-1 $139 $66 #
plane-surface $-1 0 27.36566541426156 0 0 -1 0 0 0 -1 forward_v I I I I #
face $-1 $140 $141 $51 $-1 $142 reversed single #
loop $-1 $-1 $143 $67 #
plane-surface $-1 -115.00316103937243 -12.485424106259963 99.442200968701002 0 1 0 -0.51503808176128008 0 0.85716729658548041 forward_v I I I I #
face $-1 $144 $145 $52 $-1 $146 forward single #
loop $-1 $147 $148 $68 #
cone-surface $-1 -51.675552466529041 -9.4197515470897457 4.38666989406385 0.51503808176128008 0 -0.85716729658548041 0.85716729658548041 0 0.51503808176128008 1 I I 0 1 1 forward I I I I #
face $-1 $149 $150 $53 $-1 $151 reversed single #
loop $-1 $-1 $152 $69 #
plane-surface $-1 -115.00316103937243 6.3540789879195252 99.442200968701002 0 1 0 -0.51503808176128008 0 0.85716729658548041 forward_v I I I I #
face $-1 $153 $154 $54 $-1 $155 forward single #
loop $-1 $156 $157 $70 #
cone-surface $-1 -51.675552466529041 9.4197515470897422 4.38666989406385 0.51503808176128008 0 -0.85716729658548041 0.85716729658548041 0 0.51503808176128008 1 I I 0 1 1 forward I I I I #
face $-1 $158 $159 $55 $-1 $160 reversed single #
loop $-1 $-1 $161 $71 #
plane-surface $-1 73.398222061379087 -7.9811891262935291 159.72084833750645 0 -1 0 -0.77714596973225614 0 -0.62932038083071107 forward_v I I I I #
face $-1 $162 $163 $56 $-1 $164 forward single #
loop $-1 $165 $166 $72 #
cone-surface $-1 52.579154791242395 -13.603916769441833 3.2338172066506781 -0.77714596973225614 0 -0.62932038083071107 0.62932038083071107 0 -0.77714596973225614 1 I I 0 1 1 forward I I I I #
face $-1 $167 $168 $57 $-1 $169 forward single #
loop $-1 $170 $171 $73 #
cone-surface $-1 52.579154791242395 -10.23028018355285 3.2338172066506781 -0.77714596973225614 0 -0.62932038083071107 0.62932038083071107 0 -0.77714596973225614 1 I I 0 1 1 forward I I I I #
face $-1 $172 $173 $58 $-1 $174 reversed single #
loop $-1 $-1 $175 $74 #
plane-surface $-1 73.398222061379087 3.9357942572431721 159.72084833750645 0 -1 0 -0.77714596973225614 0 -0.62932038083071107 forward_v I I I I #
face $-1 $176 $177 $59 $-1 $178 forward single #
loop $-1 $179 $180 $75 #
cone-surface $-1 52.579154791242395 -1.6869333859051316 3.2338172066506781 -0.77714596973225614 0 -0.62932038083071107 0.62932038083071107 0 -0.77714596973225614 1 I I 0 1 1 forward I I I I #
face $-1 $181 $182 $60 $-1 $183 forward single #
loop $-1 $184 $185 $76 #
cone-surface $-1 52.579154791242395 1.6867031999838495 3.2338172066506781 -0.77714596973225614 0 -0.62932038083071107 0.62932038083071107 0 -0.77714596973225614 1 I I 0 1 1 forward I I I I #
face $-1 $186 $187 $61 $-1 $188 reversed single #
loop $-1 $-1 $189 $77 #
plane-surface $-1 73.398222061379087 15.852777640779872 159.72084833750645 0 -1 0 -0.77714596973225614 0 -0.62932038083071107 forward_v I I I I #
face $-1 $190 $191 $62 $-1 $192 forward single #
loop $-1 $193 $194 $78 #
cone-surface $-1 52.579154791242395 10.230049997631571 3.2338172066506781 -0.77714596973225614 0 -0.62932038083071107 0.62932038083071107 0 -0.77714596973225614 1 I I 0 1 1 forward I I I I #
face $-1 $195 $196 $63 $-1 $197 forward single #
loop $-1 $198 $199 $79 #
cone-surface $-1 52.579154791242395 13.603686583520552 3.2338172066506781 -0.77714596973225614 0 -0.62932038083071107 0.62932038083071107 0 -0.77714596973225614 1 I I 0 1 1 forward I I I I #
face $-1 $200 $201 $48 $-1 $202 reversed single #
loop $-1 $-1 $203 $80 #
plane-surface $-1 0 0 -7.8109945652627379 0 0 1 1 0 0 forward_v I I I I #
coedge $-1 $204 $205 $206 $207 forward $81 $-1 #
face $-1 $208 $209 $49 $-1 $210 reversed single #
loop $-1 $-1 $211 $83 #
plane-surface $-1 0 0 -7.8109945652627379 0 0 1 1 0 0 forward_v I I I I #
coedge $-1 $212 $213 $214 $215 forward $84 $-1 #
face $-1 $216 $217 $50 $-1 $218 forward single #
loop $-1 $-1 $219 $86 #
plane-surface $-1 -56.649678029725024 0 0 1 0 0 0 0 -1 forward_v I I I I #
coedge $-1 $220 $221 $222 $223 forward $87 $-1 #
face $-1 $224 $225 $51 $-1 $226 reversed single #
loop $-1 $-1 $227 $89 #
plane-surface $-1 -56.64967802972501 -9.4197515470897457 2.3256982303464326 -0.51503808176128008 0 0.85716729658548041 0.85716729658548041 0 0.51503808176128008 forward_v I I I I #
coedge $-1 $228 $229 $230 $231 reversed $90 $-1 #
face $-1 $-1 $232 $52 $-1 $233 forward single #
loop $-1 $234 $235 $92 #
cone-surface $-1 -51.008440852218541 -9.4197515470897457 3.2764097420303733 0.51503808176128008 0 -0.85716729658548041 0.4285836482927402 0 0.25751904088064004 1 I I -0.70710678118654724 0.70710678118654791 0.5 forward I I I I #
loop $-1 $-1 $236 $68 #
coedge $-1 $148 $148 $237 $238 reversed $93 $-1 #
face $-1 $239 $240 $53 $-1 $241 reversed single #
loop $-1 $-1 $242 $95 #
plane-surface $-1 -56.64967802972501 9.4197515470897422 2.3256982303464326 -0.51503808176128008 0 0.85716729658548041 0.85716729658548041 0 0.51503808176128008 forward_v I I I I #
coedge $-1 $243 $244 $245 $246 reversed $96 $-1 #
face $-1 $-1 $247 $54 $-1 $248 forward single #
loop $-1 $249 $250 $98 #
cone-surface $-1 -51.008440852218541 9.4197515470897422 3.2764097420303733 0.51503808176128008 0 -0.85716729658548041 0.4285836482927402 0 0.25751904088064004 1 I I -0.70710678118654724 0.70710678118654791 0.5 forward I I I I #
loop $-1 $-1 $251 $70 #
coedge $-1 $157 $157 $252 $253 reversed $99 $-1 #
face $-1 $254 $255 $55 $-1 $256 reversed single #
loop $-1 $-1 $257 $101 #
plane-surface $-1 -14.651915873482395 -11.917098476497342 88.41925443429902 0.77714596973225614 0 0.62932038083071107 0.62932038083071107 0 -0.77714596973225614 forward_v I I I I #
coedge $-1 $258 $259 $260 $261 reversed $102 $-1 #
face $-1 $-1 $262 $56 $-1 $263 forward single #
loop $-1 $264 $265 $104 #
cone-surface $-1 51.133215504224609 -13.603916769441833 2.0629186905358461 -0.77714596973225614 0 -0.62932038083071107 0.31466019041535553 0 -0.38857298486612807 1 I I -0.70710678118654746 0.70710678118654746 0.5 forward I I I I #
loop $-1 $-1 $266 $72 #
coedge $-1 $166 $166 $267 $268 reversed $105 $-1 #
face $-1 $-1 $269 $57 $-1 $270 forward single #
loop $-1 $271 $272 $107 #
cone-surface $-1 51.133215504224609 -10.23028018355285 2.0629186905358461 -0.77714596973225614 0 -0.62932038083071107 0.31466019041535553 0 -0.38857298486612807 1 I I -0.70710678118654746 0.70710678118654746 0.5 forward I I I I #
loop $-1 $-1 $273 $73 #
coedge $-1 $171 $171 $274 $275 reversed $108 $-1 #
face $-1 $276 $277 $58 $-1 $278 reversed single #
loop $-1 $-1 $279 $110 #
plane-surface $-1 -14.651915873482395 -0.00011509296064105001 88.41925443429902 0.77714596973225614 0 0.62932038083071107 0.62932038083071107 0 -0.77714596973225614 forward_v I I I I #
coedge $-1 $280 $281 $282 $283 reversed $111 $-1 #
face $-1 $-1 $284 $59 $-1 $285 forward single #
loop $-1 $286 $287 $113 #
cone-surface $-1 51.133215504224609 -1.6869333859051316 2.0629186905358461 -0.77714596973225614 0 -0.62932038083071107 0.31466019041535553 0 -0.38857298486612807 1 I I -0.70710678118654746 0.70710678118654746 0.5 forward I I I I #
loop $-1 $-1 $288 $75 #
coedge $-1 $180 $180 $289 $290 reversed $114 $-1 #
face $-1 $-1 $291 $60 $-1 $292 forward single #
loop $-1 $293 $294 $116 #
cone-surface $-1 51.133215504224609 1.6867031999838495 2.0629186905358461 -0.77714596973225614 0 -0.62932038083071107 0.31466019041535553 0 -0.38857298486612807 1 I I -0.70710678118654746 0.70710678118654746 0.5 forward I I I I #
loop $-1 $-1 $295 $76 #
coedge $-1 $185 $185 $296 $297 reversed $117 $-1 #
face $-1 $298 $299 $61 $-1 $300 reversed single #
loop $-1 $-1 $301 $119 #
plane-surface $-1 -14.651915873482395 11.916868290576058 88.41925443429902 0.77714596973225614 0 0.62932038083071107 0.62932038083071107 0 -0.77714596973225614 forward_v I I I I #
coedge $-1 $302 $303 $304 $305 reversed $120 $-1 #
face $-1 $-1 $306 $62 $-1 $307 forward single #
loop $-1 $308 $309 $122 #
cone-surface $-1 51.133215504224609 10.230049997631571 2.0629186905358461 -0.77714596973225614 0 -0.62932038083071107 0.31466019041535553 0 -0.38857298486612807 1 I I -0.70710678118654746 0.70710678118654746 0.5 forward I I I I #
loop $-1 $-1 $310 $78 #
coedge $-1 $194 $194 $311 $312 reversed $123 $-1 #
face $-1 $-1 $313 $63 $-1 $314 forward single #
loop $-1 $315 $316 $125 #
cone-surface $-1 51.133215504224609 13.603686583520552 2.0629186905358461 -0.77714596973225614 0 -0.62932038083071107 0.31466019041535553 0 -0.38857298486612807 1 I I -0.70710678118654746 0.70710678118654746 0.5 forward I I I I #
loop $-1 $-1 $317 $79 #
coedge $-1 $199 $199 $318 $319 reversed $126 $-1 #
face $-1 $320 $321 $48 $-1 $322 reversed single #
loop $-1 $-1 $323 $128 #
plane-surface $-1 0 -27.36566541426156 0 0 1 0 0 0 1 forward_v I I I I #
coedge $-1 $324 $325 $326 $327 forward $129 $-1 #
coedge $-1 $328 $131 $329 $330 forward $81 $-1 #
coedge $-1 $131 $328 $331 $332 forward $81 $-1 #
coedge $-1 $333 $334 $131 $207 reversed $335 $-1 #
edge $-1 $336 -27.36566541426156 $337 27.36566541426156 $206 $338 forward 7 unknown #
face $-1 $339 $340 $49 $-1 $341 forward single #
loop $-1 $-1 $342 $132 #
plane-surface $-1 56.649678029725024 0 0 -1 0 0 0 0 1 forward_v I I I I #
coedge $-1 $343 $344 $345 $346 forward $133 $-1 #
coedge $-1 $345 $135 $342 $347 reversed $84 $-1 #
coedge $-1 $135 $345 $348 $349 reversed $84 $-1 #
coedge $-1 $350 $351 $135 $215 reversed $340 $-1 #
edge $-1 $352 -56.649678029725024 $353 56.649678029725024 $214 $354 forward 7 unknown #
face $-1 $355 $356 $50 $-1 $357 reversed single #
loop $-1 $-1 $358 $136 #
plane-surface $-1 0 32.110760583739818 -4.3308862349831667 0 0 1 1 0 0 forward_v I I I I #
coedge $-1 $359 $360 $220 $361 forward $137 $-1 #
coedge $-1 $362 $139 $219 $361 reversed $87 $-1 #
coedge $-1 $139 $362 $363 $364 reversed $87 $-1 #
coedge $-1 $358 $365 $139 $223 reversed $217 $-1 #
edge $-1 $366 -56.649678029725024 $367 56.649678029725024 $222 $368 forward 7 unknown #
face $-1 $369 $370 $51 $-1 $371 reversed single #
loop $-1 $-1 $372 $140 #
plane-surface $-1 -115.00316103937243 -6.3540789879195287 99.442200968701002 0 -1 0 0.51503808176128008 0 -0.85716729658548041 forward_v I I I I #
coedge $-1 $373 $374 $375 $376 reversed $141 $-1 #
coedge $-1 $229 $143 $377 $378 reversed $90 $-1 #
coedge $-1 $143 $228 $373 $379 reversed $90 $-1 #
coedge $-1 $375 $380 $143 $231 forward $381 $-1 #
edge $-1 $382 0.85190248996119067 $383 9.9809684694934617 $230 $384 forward 7 unknown #
loop $-1 $-1 $237 $144 #
plane-surface $-1 -56.64967802972501 -9.4197515470897457 2.3256982303464326 -0.51503808176128008 0 0.85716729658548041 0.85716729658548041 0 0.51503808176128008 forward_v I I I I #
loop $-1 $-1 $385 $92 #
coedge $-1 $235 $235 $236 $386 reversed $145 $-1 #
coedge $-1 $236 $236 $235 $386 forward $147 $-1 #
coedge $-1 $237 $237 $148 $238 forward $232 $-1 #
edge $-1 $387 0 $387 6.2831853071796004 $237 $388 forward 7 unknown #
face $-1 $389 $390 $53 $-1 $391 forward single #
loop $-1 $-1 $392 $149 #
plane-surface $-1 -115.00316103937243 12.485424106259959 99.442200968701002 0 -1 0 0.51503808176128008 0 -0.85716729658548041 forward_v I I I I #
coedge $-1 $393 $394 $395 $396 reversed $150 $-1 #
coedge $-1 $244 $152 $397 $398 reversed $96 $-1 #
coedge $-1 $152 $243 $393 $399 reversed $96 $-1 #
coedge $-1 $395 $400 $152 $246 forward $390 $-1 #
edge $-1 $401 0.85190248996119067 $402 9.9809684694934617 $245 $403 forward 7 unknown #
loop $-1 $-1 $252 $153 #
plane-surface $-1 -56.64967802972501 9.4197515470897422 2.3256982303464326 -0.51503808176128008 0 0.85716729658548041 0.85716729658548041 0 0.51503808176128008 forward_v I I I I #
loop $-1 $-1 $404 $98 #
coedge $-1 $250 $250 $251 $405 reversed $154 $-1 #
coedge $-1 $251 $251 $250 $405 forward $156 $-1 #
coedge $-1 $252 $252 $157 $253 forward $247 $-1 #
edge $-1 $406 0 $406 6.2831853071796004 $252 $407 forward 7 unknown #
face $-1 $408 $409 $55 $-1 $410 forward single #
loop $-1 $-1 $411 $158 #
plane-surface $-1 73.398222061379087 -15.853007826701155 159.72084833750645 0 1 0 0.77714596973225614 0 0.62932038083071107 forward_v I I I I #
coedge $-1 $412 $413 $414 $415 reversed $159 $-1 #
coedge $-1 $259 $161 $416 $417 reversed $102 $-1 #
coedge $-1 $161 $258 $412 $418 reversed $102 $-1 #
coedge $-1 $414 $419 $161 $261 forward $409 $-1 #
edge $-1 $420 -19.95056699903548 $421 -13.924253126373536 $260 $422 forward 7 unknown #
loop $-1 $-1 $267 $162 #
plane-surface $-1 -14.651915873482395 -11.917098476497342 88.41925443429902 0.77714596973225614 0 0.62932038083071107 0.62932038083071107 0 -0.77714596973225614 forward_v I I I I #
loop $-1 $-1 $423 $104 #
coedge $-1 $265 $265 $266 $424 reversed $163 $-1 #
coedge $-1 $266 $266 $265 $424 forward $165 $-1 #
coedge $-1 $267 $267 $166 $268 forward $262 $-1 #
edge $-1 $425 0 $425 6.2831853071796004 $267 $426 forward 7 unknown #
loop $-1 $-1 $274 $167 #
plane-surface $-1 -14.651915873482395 -11.917098476497342 88.41925443429902 0.77714596973225614 0 0.62932038083071107 0.62932038083071107 0 -0.77714596973225614 forward_v I I I I #
loop $-1 $-1 $427 $107 #
coedge $-1 $272 $272 $273 $428 reversed $168 $-1 #
coedge $-1 $273 $273 $272 $428 forward $170 $-1 #
coedge $-1 $274 $274 $171 $275 forward $269 $-1 #
edge $-1 $429 0 $429 6.2831853071796004 $274 $430 forward 7 unknown #
face $-1 $431 $432 $58 $-1 $433 reversed single #
loop $-1 $-1 $434 $172 #
plane-surface $-1 73.398222061379087 -3.9360244431644542 159.72084833750645 0 1 0 0.77714596973225614 0 0.62932038083071107 forward_v I I I I #
coedge $-1 $435 $436 $437 $438 reversed $173 $-1 #
coedge $-1 $281 $175 $439 $440 reversed $111 $-1 #
coedge $-1 $175 $280 $435 $441 reversed $111 $-1 #
coedge $-1 $437 $442 $175 $283 forward $443 $-1 #
edge $-1 $444 -19.95056699903548 $445 -13.924253126373536 $282 $446 forward 7 unknown #
loop $-1 $-1 $289 $176 #
plane-surface $-1 -14.651915873482395 -0.00011509296064105001 88.41925443429902 0.77714596973225614 0 0.62932038083071107 0.62932038083071107 0 -0.77714596973225614 forward_v I I I I #
loop $-1 $-1 $447 $113 #
coedge $-1 $287 $287 $288 $448 reversed $177 $-1 #
coedge $-1 $288 $288 $287 $448 forward $179 $-1 #
coedge $-1 $289 $289 $180 $290 forward $284 $-1 #
edge $-1 $449 0 $449 6.2831853071796004 $289 $450 forward 7 unknown #
loop $-1 $-1 $296 $181 #
plane-surface $-1 -14.651915873482395 -0.00011509296064105001 88.41925443429902 0.77714596973225614 0 0.62932038083071107 0.62932038083071107 0 -0.77714596973225614 forward_v I I I I #
loop $-1 $-1 $451 $116 #
coedge $-1 $294 $294 $295 $452 reversed $182 $-1 #
coedge $-1 $295 $295 $294 $452 forward $184 $-1 #
coedge $-1 $296 $296 $185 $297 forward $291 $-1 #
edge $-1 $453 0 $453 6.2831853071796004 $296 $454 forward 7 unknown #
face $-1 $455 $456 $61 $-1 $457 reversed single #
loop $-1 $-1 $458 $186 #
plane-surface $-1 73.398222061379087 7.9809589403722452 159.72084833750645 0 1 0 0.77714596973225614 0 0.62932038083071107 forward_v I I I I #
coedge $-1 $459 $460 $461 $462 reversed $187 $-1 #
coedge $-1 $303 $189 $463 $464 reversed $120 $-1 #
coedge $-1 $189 $302 $459 $465 reversed $120 $-1 #
coedge $-1 $461 $466 $189 $305 forward $467 $-1 #
edge $-1 $468 -19.95056699903548 $469 -13.924253126373536 $304 $470 forward 7 unknown #
loop $-1 $-1 $311 $190 #
plane-surface $-1 -14.651915873482395 11.916868290576058 88.41925443429902 0.77714596973225614 0 0.62932038083071107 0.62932038083071107 0 -0.77714596973225614 forward_v I I I I #
loop $-1 $-1 $471 $122 #
coedge $-1 $309 $309 $310 $472 reversed $191 $-1 #
coedge $-1 $310 $310 $309 $472 forward $193 $-1 #
coedge $-1 $311 $311 $194 $312 forward $306 $-1 #
edge $-1 $473 0 $473 6.2831853071796004 $311 $474 forward 7 unknown #
loop $-1 $-1 $318 $195 #
plane-surface $-1 -14.651915873482395 11.916868290576058 88.41925443429902 0.77714596973225614 0 0.62932038083071107 0.62932038083071107 0 -0.77714596973225614 forward_v I I I I #
loop $-1 $-1 $475 $125 #
coedge $-1 $316 $316 $317 $476 reversed $196 $-1 #
coedge $-1 $317 $317 $316 $476 forward $198 $-1 #
coedge $-1 $318 $318 $199 $319 forward $313 $-1 #
edge $-1 $477 0 $477 6.2831853071796004 $318 $478 forward 7 unknown #
face $-1 $479 $480 $48 $-1 $481 reversed single #
loop $-1 $-1 $482 $200 #
plane-surface $-1 -56.649678029725024 0 0 1 0 0 0 0 -1 forward_v I I I I #
coedge $-1 $483 $331 $484 $485 forward $201 $-1 #
coedge $-1 $486 $203 $483 $487 forward $129 $-1 #
coedge $-1 $203 $486 $488 $489 forward $129 $-1 #
coedge $-1 $334 $333 $203 $327 reversed $335 $-1 #
edge $-1 $490 -27.36566541426156 $491 27.36566541426156 $326 $492 forward 7 unknown #
coedge $-1 $205 $204 $493 $494 forward $81 $-1 #
coedge $-1 $495 $496 $204 $330 reversed $480 $-1 #
edge $-1 $337 -56.649678029725024 $497 56.649678029725024 $329 $498 forward 7 unknown #
coedge $-1 $323 $499 $205 $332 reversed $201 $-1 #
edge $-1 $500 -56.649678029725024 $336 56.649678029725024 $331 $501 forward 7 unknown #
coedge $-1 $326 $206 $499 $502 forward $335 $-1 #
coedge $-1 $206 $326 $495 $503 reversed $335 $-1 #
loop $-1 $-1 $333 $479 #
vertex $-1 $207 $504 #
vertex $-1 $207 $505 #
straight-curve $-1 56.649678029725024 0 7.8109945652627379 0 1 0 I I #
face $-1 $506 $507 $49 $-1 $508 reversed single #
loop $-1 $-1 $351 $208 #
plane-surface $-1 0 -32.110760583739811 -4.3308862349831667 0 0 1 1 0 0 forward_v I I I I #
coedge $-1 $509 $510 $212 $347 forward $209 $-1 #
coedge $-1 $511 $211 $510 $512 forward $133 $-1 #
coedge $-1 $211 $511 $513 $514 forward $133 $-1 #
coedge $-1 $213 $212 $211 $346 reversed $84 $-1 #
edge $-1 $515 -56.649678029725024 $516 56.649678029725024 $211 $517 forward 7 unknown #
edge $-1 $516 -7.8109945652627379 $353 -4.3308862349831667 $342 $518 forward 7 unknown #
coedge $-1 $513 $519 $213 $349 forward $520 $-1 #
edge $-1 $352 4.3308862349831667 $515 7.8109945652627379 $348 $521 forward 7 unknown #
coedge $-1 $522 $214 $519 $523 forward $340 $-1 #
coedge $-1 $214 $522 $509 $524 forward $340 $-1 #
vertex $-1 $349 $525 #
vertex $-1 $524 $526 #
straight-curve $-1 0 -27.36566541426156 -4.3308862349831667 1 0 0 I I #
face $-1 $527 $528 $50 $-1 $529 reversed single #
loop $-1 $-1 $530 $216 #
plane-surface $-1 0 36.855855753218066 -6.0709404001229519 0 -1 0 0 0 -1 forward_v I I I I #
coedge $-1 $531 $222 $532 $533 forward $217 $-1 #
coedge $-1 $534 $219 $365 $535 reversed $137 $-1 #
coedge $-1 $219 $534 $536 $537 reversed $137 $-1 #
edge $-1 $538 -7.8109945652627379 $367 -4.3308862349831667 $219 $539 forward 7 unknown #
coedge $-1 $221 $220 $540 $541 reversed $87 $-1 #
coedge $-1 $542 $532 $221 $364 forward $543 $-1 #
edge $-1 $366 4.3308862349831667 $544 7.8109945652627379 $363 $545 forward 7 unknown #
coedge $-1 $222 $531 $359 $535 forward $217 $-1 #
vertex $-1 $364 $546 #
vertex $-1 $535 $547 #
straight-curve $-1 0 27.36566541426156 -4.3308862349831667 -1 0 0 I I #
face $-1 $-1 $381 $51 $-1 $548 forward single #
loop $-1 $-1 $549 $224 #
plane-surface $-1 -56.649678029725024 0 0 1 0 0 0 0 -1 forward_v I I I I #
coedge $-1 $550 $551 $552 $553 reversed $225 $-1 #
coedge $-1 $554 $227 $229 $379 forward $141 $-1 #
coedge $-1 $227 $554 $550 $555 forward $141 $-1 #
coedge $-1 $552 $230 $227 $376 forward $381 $-1 #
edge $-1 $383 -7.7755483327150898 $556 -1.6442032143746559 $375 $557 forward 7 unknown #
coedge $-1 $558 $559 $228 $378 forward $370 $-1 #
edge $-1 $560 -47.395402254004075 $382 -41.910105919087762 $377 $561 forward 7 unknown #
edge $-1 $383 -10.650273308253619 $560 1.6526814159067847e-014 $229 $562 forward 7 unknown #
coedge $-1 $230 $552 $558 $563 forward $381 $-1 #
loop $-1 $-1 $552 $369 #
vertex $-1 $378 $564 #
vertex $-1 $231 $565 #
straight-curve $-1 -57.501580519686215 -12.485424106259963 7.8109945652627388 1 0 0 I I #
coedge $-1 $385 $385 $-1 $566 reversed $234 $-1 #
edge $-1 $567 0 $567 6.2831853071796004 $235 $568 forward 7 unknown #
vertex $-1 $238 $569 #
ellipse-curve $-1 -52.085145039958896 -9.4197515470897457 5.0683463978045769 -0.51503808176128008 0 0.85716729658548041 0.85716729658548041 0 0.51503808176128008 1 I I #
face $-1 $-1 $570 $53 $-1 $571 reversed single #
loop $-1 $-1 $245 $239 #
plane-surface $-1 0 0 7.8109945652627379 0 0 1 1 0 0 forward_v I I I I #
coedge $-1 $572 $573 $574 $575 reversed $240 $-1 #
coedge $-1 $576 $242 $244 $399 forward $150 $-1 #
coedge $-1 $242 $576 $572 $577 forward $150 $-1 #
coedge $-1 $574 $245 $242 $396 forward $390 $-1 #
edge $-1 $402 1.6442032143746541 $578 7.7755483327150881 $395 $579 forward 7 unknown #
coedge $-1 $580 $581 $243 $398 forward $570 $-1 #
edge $-1 $582 -47.395402254004075 $401 -41.910105919087762 $397 $583 forward 7 unknown #
edge $-1 $402 -10.650273308253619 $582 1.6526814159067847e-014 $244 $584 forward 7 unknown #
coedge $-1 $245 $574 $580 $585 forward $390 $-1 #
vertex $-1 $246 $586 #
vertex $-1 $246 $587 #
straight-curve $-1 -57.501580519686215 6.3540789879195252 7.8109945652627388 1 0 0 I I #
coedge $-1 $404 $404 $-1 $588 reversed $249 $-1 #
edge $-1 $589 0 $589 6.2831853071796004 $250 $590 forward 7 unknown #
vertex $-1 $253 $591 #
ellipse-curve $-1 -52.085145039958896 9.4197515470897422 5.0683463978045769 -0.51503808176128008 0 0.85716729658548041 0.85716729658548041 0 0.51503808176128008 1 I I #
face $-1 $-1 $592 $55 $-1 $593 reversed single #
loop $-1 $-1 $260 $254 #
plane-surface $-1 0 0 7.8109945652627379 0 0 1 1 0 0 forward_v I I I I #
coedge $-1 $594 $595 $596 $597 reversed $255 $-1 #
coedge $-1 $598 $257 $259 $418 forward $159 $-1 #
coedge $-1 $257 $598 $594 $599 forward $159 $-1 #
coedge $-1 $596 $260 $257 $415 forward $409 $-1 #
edge $-1 $421 2.0226398880448579 $600 9.8944585884524834 $414 $601 forward 7 unknown #
coedge $-1 $602 $603 $258 $417 forward $592 $-1 #
edge $-1 $604 -79.49130766931566 $420 -72.049429603490495 $416 $605 forward 7 unknown #
edge $-1 $421 103.7234483720061 $604 113.29935605945002 $259 $606 forward 7 unknown #
coedge $-1 $260 $596 $602 $607 forward $409 $-1 #
vertex $-1 $417 $608 #
vertex $-1 $261 $609 #
straight-curve $-1 36.699111030689544 -7.9811891262935291 7.8109945652627317 -1 0 0 I I #
coedge $-1 $423 $423 $-1 $610 reversed $264 $-1 #
edge $-1 $611 0 $611 6.2831853071796004 $265 $612 forward 7 unknown #
vertex $-1 $268 $613 #
ellipse-curve $-1 53.636521093394045 -13.603916769441833 4.0900555323501484 0.77714596973225614 0 0.62932038083071107 0.62932038083071107 0 -0.77714596973225614 1 I I #
coedge $-1 $427 $427 $-1 $614 reversed $271 $-1 #
edge $-1 $615 0 $615 6.2831853071796004 $272 $616 forward 7 unknown #
vertex $-1 $275 $617 #
ellipse-curve $-1 53.636521093394045 -10.23028018355285 4.0900555323501484 0.77714596973225614 0 0.62932038083071107 0.62932038083071107 0 -0.77714596973225614 1 I I #
face $-1 $-1 $443 $58 $-1 $618 forward single #
loop $-1 $-1 $619 $276 #
plane-surface $-1 56.649678029725024 0 0 -1 0 0 0 0 1 forward_v I I I I #
coedge $-1 $620 $621 $622 $623 reversed $277 $-1 #
coedge $-1 $624 $279 $281 $441 forward $173 $-1 #
coedge $-1 $279 $624 $620 $625 forward $173 $-1 #
coedge $-1 $622 $282 $279 $438 forward $443 $-1 #
edge $-1 $445 -3.9358518037234926 $626 3.9359668966841337 $437 $627 forward 7 unknown #
coedge $-1 $628 $629 $280 $440 forward $432 $-1 #
edge $-1 $630 -79.49130766931566 $444 -72.049429603490495 $439 $631 forward 7 unknown #
edge $-1 $445 103.7234483720061 $630 113.29935605945002 $281 $632 forward 7 unknown #
coedge $-1 $282 $622 $628 $633 forward $443 $-1 #
loop $-1 $-1 $622 $431 #
vertex $-1 $440 $634 #
vertex $-1 $283 $635 #
straight-curve $-1 36.699111030689544 3.9357942572431721 7.8109945652627317 -1 0 0 I I #
coedge $-1 $447 $447 $-1 $636 reversed $286 $-1 #
edge $-1 $637 0 $637 6.2831853071796004 $287 $638 forward 7 unknown #
vertex $-1 $290 $639 #
ellipse-curve $-1 53.636521093394045 -1.6869333859051316 4.0900555323501484 0.77714596973225614 0 0.62932038083071107 0.62932038083071107 0 -0.77714596973225614 1 I I #
coedge $-1 $451 $451 $-1 $640 reversed $293 $-1 #
edge $-1 $641 0 $641 6.2831853071796004 $294 $642 forward 7 unknown #
vertex $-1 $297 $643 #
ellipse-curve $-1 53.636521093394045 1.6867031999838495 4.0900555323501484 0.77714596973225614 0 0.62932038083071107 0.62932038083071107 0 -0.77714596973225614 1 I I #
face $-1 $-1 $467 $61 $-1 $644 forward single #
loop $-1 $-1 $645 $298 #
plane-surface $-1 56.649678029725024 0 0 -1 0 0 0 0 1 forward_v I I I I #
coedge $-1 $646 $647 $648 $649 reversed $299 $-1 #
coedge $-1 $650 $301 $303 $465 forward $187 $-1 #
coedge $-1 $301 $650 $646 $651 forward $187 $-1 #
coedge $-1 $648 $304 $301 $462 forward $467 $-1 #
edge $-1 $469 -9.8943434954918423 $652 -2.022524795084216 $461 $653 forward 7 unknown #
coedge $-1 $654 $655 $302 $464 forward $456 $-1 #
edge $-1 $656 -79.49130766931566 $468 -72.049429603490495 $463 $657 forward 7 unknown #
edge $-1 $469 103.7234483720061 $656 113.29935605945002 $303 $658 forward 7 unknown #
coedge $-1 $304 $648 $654 $659 forward $467 $-1 #
loop $-1 $-1 $648 $455 #
vertex $-1 $464 $660 #
vertex $-1 $305 $661 #
straight-curve $-1 36.699111030689544 15.852777640779872 7.8109945652627317 -1 0 0 I I #
coedge $-1 $471 $471 $-1 $662 reversed $308 $-1 #
edge $-1 $663 0 $663 6.2831853071796004 $309 $664 forward 7 unknown #
vertex $-1 $312 $665 #
ellipse-curve $-1 53.636521093394045 10.230049997631571 4.0900555323501484 0.77714596973225614 0 0.62932038083071107 0.62932038083071107 0 -0.77714596973225614 1 I I #
coedge $-1 $475 $475 $-1 $666 reversed $315 $-1 #
edge $-1 $667 0 $667 6.2831853071796004 $316 $668 forward 7 unknown #
vertex $-1 $319 $669 #
ellipse-curve $-1 53.636521093394045 13.603686583520552 4.0900555323501484 0.77714596973225614 0 0.62932038083071107 0.62932038083071107 0 -0.77714596973225614 1 I I #
face $-1 $-1 $335 $48 $-1 $670 reversed single #
loop $-1 $-1 $495 $320 #
plane-surface $-1 0 27.36566541426156 0 0 -1 0 0 0 -1 forward_v I I I I #
coedge $-1 $671 $493 $496 $672 forward $321 $-1 #
coedge $-1 $499 $323 $324 $487 reversed $201 $-1 #
coedge $-1 $493 $671 $323 $485 reversed $321 $-1 #
edge $-1 $500 -7.8109945652627379 $673 7.8109945652627379 $484 $674 forward 7 unknown #
coedge $-1 $325 $324 $671 $675 forward $129 $-1 #
edge $-1 $491 -56.649678029725024 $673 56.649678029725024 $483 $676 forward 7 unknown #
coedge $-1 $496 $495 $325 $489 reversed $480 $-1 #
edge $-1 $677 -56.649678029725024 $490 56.649678029725024 $488 $678 forward 7 unknown #
vertex $-1 $327 $679 #
vertex $-1 $502 $680 #
straight-curve $-1 56.649678029725024 0 -7.8109945652627379 0 -1 0 I I #
coedge $-1 $482 $484 $328 $494 reversed $321 $-1 #
edge $-1 $497 -27.36566541426156 $500 27.36566541426156 $493 $681 forward 7 unknown #
coedge $-1 $488 $329 $334 $503 forward $480 $-1 #
coedge $-1 $329 $488 $482 $672 reversed $480 $-1 #
vertex $-1 $330 $682 #
straight-curve $-1 0 27.36566541426156 7.8109945652627379 -1 0 0 I I #
coedge $-1 $331 $483 $333 $502 reversed $201 $-1 #
vertex $-1 $494 $683 #
straight-curve $-1 0 -27.36566541426156 7.8109945652627379 1 0 0 I I #
edge $-1 $336 -7.8109945652627379 $491 7.8109945652627379 $333 $684 forward 7 unknown #
edge $-1 $337 -7.8109945652627379 $490 7.8109945652627379 $334 $685 forward 7 unknown #
point $-1 56.649678029725024 -27.36566541426156 7.8109945652627379 #
point $-1 56.649678029725024 27.36566541426156 7.8109945652627379 #
face $-1 $-1 $520 $49 $-1 $686 reversed single #
loop $-1 $-1 $687 $339 #
plane-surface $-1 0 -36.855855753218066 -6.0709404001229519 0 1 0 0 0 1 forward_v I I I I #
coedge $-1 $688 $342 $351 $524 reversed $209 $-1 #
coedge $-1 $342 $688 $343 $512 reversed $209 $-1 #
coedge $-1 $344 $343 $689 $690 forward $133 $-1 #
edge $-1 $516 27.36566541426156 $691 36.855855753218066 $510 $692 forward 7 unknown #
coedge $-1 $693 $348 $344 $514 reversed $520 $-1 #
edge $-1 $694 -36.855855753218066 $515 -27.36566541426156 $513 $695 forward 7 unknown #
vertex $-1 $349 $696 #
vertex $-1 $512 $697 #
straight-curve $-1 0 -27.36566541426156 -7.8109945652627379 1 0 0 I I #
straight-curve $-1 56.649678029725024 -27.36566541426156 0 0 0 1 I I #
coedge $-1 $348 $693 $350 $523 reversed $520 $-1 #
loop $-1 $-1 $348 $506 #
straight-curve $-1 -56.649678029725024 -27.36566541426156 0 0 0 -1 I I #
coedge $-1 $351 $350 $698 $699 forward $340 $-1 #
edge $-1 $352 -4.7450951694782546 $700 4.7450951694782546 $519 $701 forward 7 unknown #
edge $-1 $702 -4.7450951694782546 $353 4.7450951694782546 $509 $703 forward 7 unknown #
point $-1 -56.649678029725024 -27.365665414261557 -4.3308862349831667 #
point $-1 56.649678029725024 -27.365665414261557 -4.3308862349831667 #
face $-1 $-1 $543 $50 $-1 $704 reversed single #
loop $-1 $-1 $540 $355 #
plane-surface $-1 0 0 -7.8109945652627379 0 0 1 1 0 0 forward_v I I I I #
coedge $-1 $705 $706 $707 $708 forward $356 $-1 #
coedge $-1 $365 $358 $706 $709 forward $217 $-1 #
coedge $-1 $363 $707 $358 $533 reversed $543 $-1 #
edge $-1 $366 -4.7450951694782511 $710 4.7450951694782475 $532 $711 forward 7 unknown #
coedge $-1 $360 $359 $712 $713 forward $137 $-1 #
edge $-1 $714 -4.7450951694782475 $367 4.7450951694782511 $359 $715 forward 7 unknown #
coedge $-1 $716 $540 $360 $537 forward $528 $-1 #
edge $-1 $538 -4.7450951694782582 $717 4.7450951694782475 $360 $718 forward 7 unknown #
vertex $-1 $537 $719 #
straight-curve $-1 -56.649678029725024 27.36566541426156 0 0 0 1 I I #
coedge $-1 $536 $720 $362 $541 forward $528 $-1 #
edge $-1 $544 -56.649678029725024 $538 56.649678029725024 $540 $721 forward 7 unknown #
coedge $-1 $707 $363 $720 $722 reversed $543 $-1 #
loop $-1 $-1 $363 $527 #
vertex $-1 $364 $723 #
straight-curve $-1 56.649678029725024 27.36566541426156 0 0 0 -1 I I #
point $-1 56.649678029725024 27.365665414261567 -4.3308862349831667 #
point $-1 -56.649678029725024 27.365665414261567 -4.3308862349831667 #
plane-surface $-1 0 0 7.8109945652627379 0 0 1 1 0 0 forward_v I I I I #
coedge $-1 $559 $558 $551 $724 forward $370 $-1 #
coedge $-1 $551 $372 $374 $555 reversed $225 $-1 #
coedge $-1 $372 $550 $549 $724 reversed $225 $-1 #
coedge $-1 $380 $375 $372 $553 forward $381 $-1 #
edge $-1 $556 -9.9809684694934617 $725 -0.85190248996119067 $552 $726 forward 7 unknown #
coedge $-1 $374 $373 $559 $727 reversed $141 $-1 #
edge $-1 $728 -1.6526814159067847e-014 $556 10.650273308253619 $550 $729 forward 7 unknown #
vertex $-1 $376 $730 #
straight-curve $-1 -47.52061205019276 -4.7098757735448729 7.8109945652627379 0 1 0 I I #
coedge $-1 $549 $377 $380 $563 reversed $370 $-1 #
coedge $-1 $377 $549 $554 $727 forward $370 $-1 #
vertex $-1 $378 $731 #
straight-curve $-1 -56.649678029725024 -12.485424106259963 49.721100484350501 0 0 1 I I #
straight-curve $-1 -56.64967802972501 -12.485424106259963 2.3256982303464326 -0.85716729658548041 0 -0.51503808176128008 I I #
edge $-1 $725 6.3540789879195287 $382 12.485424106259963 $558 $732 forward 7 unknown #
point $-1 -56.649678029725024 -12.485424106259963 7.8109945652627379 #
point $-1 -47.520612050192753 -12.485424106259963 7.8109945652627379 #
edge $-1 $733 1 $733 0 $385 $-1 forward 7 unknown #
vertex $-1 $386 $734 #
ellipse-curve $-1 -51.265959893099179 -9.4197515470897457 3.7049933903231138 -0.51503808176128008 0 0.85716729658548041 0.85716729658548041 0 0.51503808176128008 1 I I #
point $-1 -51.227977743373422 -9.4197515470897457 5.5833844795658667 #
loop $-1 $-1 $397 $389 #
plane-surface $-1 -56.649678029725024 0 0 1 0 0 0 0 -1 forward_v I I I I #
coedge $-1 $573 $392 $394 $577 reversed $240 $-1 #
coedge $-1 $392 $572 $735 $736 reversed $240 $-1 #
coedge $-1 $400 $395 $392 $575 forward $390 $-1 #
edge $-1 $578 -9.9809684694934617 $737 -0.85190248996119067 $574 $738 forward 7 unknown #
coedge $-1 $394 $393 $581 $739 reversed $150 $-1 #
edge $-1 $740 -1.6526814159067847e-014 $578 10.650273308253619 $572 $741 forward 7 unknown #
vertex $-1 $396 $742 #
straight-curve $-1 -47.52061205019276 4.7098757735448711 7.8109945652627379 0 1 0 I I #
coedge $-1 $735 $397 $400 $585 reversed $570 $-1 #
coedge $-1 $397 $735 $576 $739 forward $570 $-1 #
vertex $-1 $398 $743 #
straight-curve $-1 -56.649678029725024 6.3540789879195252 49.721100484350501 0 0 1 I I #
straight-curve $-1 -56.64967802972501 6.3540789879195252 2.3256982303464326 -0.85716729658548041 0 -0.51503808176128008 I I #
edge $-1 $737 -12.485424106259959 $401 -6.3540789879195252 $580 $744 forward 7 unknown #
point $-1 -56.649678029725024 6.3540789879195252 7.8109945652627379 #
point $-1 -47.520612050192753 6.3540789879195252 7.8109945652627379 #
edge $-1 $745 1 $745 0 $404 $-1 forward 7 unknown #
vertex $-1 $405 $746 #
ellipse-curve $-1 -51.265959893099179 9.4197515470897422 3.7049933903231138 -0.51503808176128008 0 0.85716729658548041 0.85716729658548041 0 0.51503808176128008 1 I I #
point $-1 -51.227977743373422 9.4197515470897422 5.5833844795658667 #
loop $-1 $-1 $416 $408 #
plane-surface $-1 56.649678029725024 0 0 -1 0 0 0 0 1 forward_v I I I I #
coedge $-1 $595 $411 $413 $599 reversed $255 $-1 #
coedge $-1 $411 $594 $747 $748 reversed $255 $-1 #
coedge $-1 $419 $414 $411 $597 forward $409 $-1 #
edge $-1 $600 13.924253126373536 $749 19.95056699903548 $596 $750 forward 7 unknown #
coedge $-1 $413 $412 $603 $751 reversed $159 $-1 #
edge $-1 $752 -113.29935605945002 $600 -103.7234483720061 $594 $753 forward 7 unknown #
vertex $-1 $415 $754 #
straight-curve $-1 50.623364157063079 -5.9585492382486711 7.8109945652627388 0 -1 0 I I #
coedge $-1 $747 $416 $419 $607 reversed $592 $-1 #
coedge $-1 $416 $747 $598 $751 forward $592 $-1 #
vertex $-1 $417 $755 #
straight-curve $-1 56.649678029725024 -7.9811891262935291 79.860424168753227 0 0 1 I I #
straight-curve $-1 -14.651915873482395 -7.9811891262935291 88.41925443429902 0.62932038083071107 0 -0.77714596973225614 I I #
edge $-1 $749 -15.853007826701155 $420 -7.9811891262935291 $602 $756 forward 7 unknown #
point $-1 56.649678029725024 -7.9811891262935291 7.8109945652627379 #
point $-1 50.623364157063079 -7.9811891262935291 7.8109945652627317 #
edge $-1 $757 1 $757 0 $423 $-1 forward 7 unknown #
vertex $-1 $424 $758 #
ellipse-curve $-1 51.521788489090738 -13.603916769441833 2.3775788809512015 0.77714596973225614 0 0.62932038083071107 0.62932038083071107 0 -0.77714596973225614 1 I I #
point $-1 54.265841474224764 -13.603916769441833 3.3129095626178988 #
edge $-1 $759 1 $759 0 $427 $-1 forward 7 unknown #
vertex $-1 $428 $760 #
ellipse-curve $-1 51.521788489090738 -10.23028018355285 2.3775788809512015 0.77714596973225614 0 0.62932038083071107 0.62932038083071107 0 -0.77714596973225614 1 I I #
point $-1 54.265841474224764 -10.23028018355285 3.3129095626178988 #
plane-surface $-1 0 0 7.8109945652627379 0 0 1 1 0 0 forward_v I I I I #
coedge $-1 $629 $628 $621 $761 forward $432 $-1 #
coedge $-1 $621 $434 $436 $625 reversed $277 $-1 #
coedge $-1 $434 $620 $619 $761 reversed $277 $-1 #
coedge $-1 $442 $437 $434 $623 forward $443 $-1 #
edge $-1 $626 13.924253126373536 $762 19.95056699903548 $622 $763 forward 7 unknown #
coedge $-1 $436 $435 $629 $764 reversed $173 $-1 #
edge $-1 $765 -113.29935605945002 $626 -103.7234483720061 $620 $766 forward 7 unknown #
vertex $-1 $438 $767 #
straight-curve $-1 50.623364157063079 -5.7546480320525006e-005 7.8109945652627388 0 -1 0 I I #
coedge $-1 $619 $439 $442 $633 reversed $432 $-1 #
coedge $-1 $439 $619 $624 $764 forward $432 $-1 #
vertex $-1 $440 $768 #
straight-curve $-1 56.649678029725024 3.9357942572431721 79.860424168753227 0 0 1 I I #
straight-curve $-1 -14.651915873482395 3.9357942572431721 88.41925443429902 0.62932038083071107 0 -0.77714596973225614 I I #
edge $-1 $762 -3.9360244431644542 $444 3.9357942572431721 $628 $769 forward 7 unknown #
point $-1 56.649678029725024 3.9357942572431721 7.8109945652627379 #
point $-1 50.623364157063079 3.9357942572431721 7.8109945652627317 #
edge $-1 $770 1 $770 0 $447 $-1 forward 7 unknown #
vertex $-1 $448 $771 #
ellipse-curve $-1 51.521788489090738 -1.6869333859051316 2.3775788809512015 0.77714596973225614 0 0.62932038083071107 0.62932038083071107 0 -0.77714596973225614 1 I I #
point $-1 54.265841474224764 -1.6869333859051316 3.3129095626178988 #
edge $-1 $772 1 $772 0 $451 $-1 forward 7 unknown #
vertex $-1 $452 $773 #
ellipse-curve $-1 51.521788489090738 1.6867031999838495 2.3775788809512015 0.77714596973225614 0 0.62932038083071107 0.62932038083071107 0 -0.77714596973225614 1 I I #
point $-1 54.265841474224764 1.6867031999838495 3.3129095626178988 #
plane-surface $-1 0 0 7.8109945652627379 0 0 1 1 0 0 forward_v I I I I #
coedge $-1 $655 $654 $647 $774 forward $456 $-1 #
coedge $-1 $647 $458 $460 $651 reversed $299 $-1 #
coedge $-1 $458 $646 $645 $774 reversed $299 $-1 #
coedge $-1 $466 $461 $458 $649 forward $467 $-1 #
edge $-1 $652 13.924253126373536 $775 19.95056699903548 $648 $776 forward 7 unknown #
coedge $-1 $460 $459 $655 $777 reversed $187 $-1 #
edge $-1 $778 -113.29935605945002 $652 -103.7234483720061 $646 $779 forward 7 unknown #
vertex $-1 $462 $780 #
straight-curve $-1 50.623364157063079 5.9584341452880292 7.8109945652627388 0 -1 0 I I #
coedge $-1 $645 $463 $466 $659 reversed $456 $-1 #
coedge $-1 $463 $645 $650 $777 forward $456 $-1 #
vertex $-1 $464 $781 #
straight-curve $-1 56.649678029725024 15.852777640779872 79.860424168753227 0 0 1 I I #
straight-curve $-1 -14.651915873482395 15.852777640779872 88.41925443429902 0.62932038083071107 0 -0.77714596973225614 I I #
edge $-1 $775 7.9809589403722452 $468 15.852777640779872 $654 $782 forward 7 unknown #
point $-1 56.649678029725024 15.852777640779872 7.8109945652627379 #
point $-1 50.623364157063079 15.852777640779872 7.8109945652627317 #
edge $-1 $783 1 $783 0 $471 $-1 forward 7 unknown #
vertex $-1 $472 $784 #
ellipse-curve $-1 51.521788489090738 10.230049997631571 2.3775788809512015 0.77714596973225614 0 0.62932038083071107 0.62932038083071107 0 -0.77714596973225614 1 I I #
point $-1 54.265841474224764 10.230049997631571 3.3129095626178988 #
edge $-1 $785 1 $785 0 $475 $-1 forward 7 unknown #
vertex $-1 $476 $786 #
ellipse-curve $-1 51.521788489090738 13.603686583520552 2.3775788809512015 0.77714596973225614 0 0.62932038083071107 0.62932038083071107 0 -0.77714596973225614 1 I I #
point $-1 54.265841474224764 13.603686583520552 3.3129095626178988 #
plane-surface $-1 56.649678029725024 0 0 -1 0 0 0 0 1 forward_v I I I I #
coedge $-1 $484 $482 $486 $675 reversed $321 $-1 #
edge $-1 $497 -7.8109945652627379 $677 7.8109945652627379 $496 $787 forward 7 unknown #
vertex $-1 $675 $788 #
straight-curve $-1 -56.649678029725024 -27.36566541426156 0 0 0 -1 I I #
edge $-1 $673 -27.36566541426156 $677 27.36566541426156 $671 $789 forward 7 unknown #
straight-curve $-1 0 -27.36566541426156 -7.8109945652627379 -1 0 0 I I #
vertex $-1 $489 $790 #
straight-curve $-1 0 27.36566541426156 -7.8109945652627379 1 0 0 I I #
point $-1 56.649678029725024 27.36566541426156 -7.8109945652627379 #
point $-1 56.649678029725024 -27.36566541426156 -7.8109945652627379 #
straight-curve $-1 -56.649678029725024 0 7.8109945652627379 0 -1 0 I I #
point $-1 -56.649678029725024 27.36566541426156 7.8109945652627379 #
point $-1 -56.649678029725024 -27.36566541426156 7.8109945652627379 #
straight-curve $-1 56.649678029725024 -27.36566541426156 0 0 0 -1 I I #
straight-curve $-1 56.649678029725024 27.36566541426156 0 0 0 -1 I I #
plane-surface $-1 -56.649678029725024 0 0 1 0 0 0 0 -1 forward_v I I I I #
coedge $-1 $689 $698 $693 $791 forward $507 $-1 #
coedge $-1 $510 $509 $792 $793 forward $209 $-1 #
coedge $-1 $792 $687 $511 $690 reversed $507 $-1 #
edge $-1 $691 -56.649678029725024 $694 56.649678029725024 $689 $794 forward 7 unknown #
vertex $-1 $793 $795 #
straight-curve $-1 56.649678029725024 0 -7.8109945652627379 0 -1 0 I I #
coedge $-1 $519 $513 $687 $791 reversed $520 $-1 #
vertex $-1 $514 $796 #
straight-curve $-1 -56.649678029725024 0 -7.8109945652627379 0 1 0 I I #
point $-1 -56.649678029725024 -27.36566541426156 -7.8109945652627379 #
point $-1 56.649678029725024 -27.36566541426156 -7.8109945652627379 #
coedge $-1 $687 $792 $522 $699 reversed $507 $-1 #
edge $-1 $700 -56.649678029725024 $702 56.649678029725024 $698 $797 forward 7 unknown #
vertex $-1 $523 $798 #
straight-curve $-1 -56.649678029725024 -32.110760583739811 -4.3308862349831667 0 -1 0 I I #
vertex $-1 $524 $799 #
straight-curve $-1 56.649678029725024 -32.110760583739811 -4.3308862349831667 0 1 0 I I #
plane-surface $-1 56.649678029725024 0 0 -1 0 0 0 0 1 forward_v I I I I #
coedge $-1 $712 $530 $716 $800 reversed $356 $-1 #
coedge $-1 $530 $712 $531 $709 reversed $356 $-1 #
coedge $-1 $532 $542 $530 $708 reversed $543 $-1 #
edge $-1 $710 -1.7400541651397852 $801 1.7400541651397852 $707 $802 forward 7 unknown #
edge $-1 $710 -56.649678029725024 $714 56.649678029725024 $706 $803 forward 7 unknown #
vertex $-1 $533 $804 #
straight-curve $-1 56.649678029725024 32.110760583739818 -4.3308862349831667 0 1 0 I I #
coedge $-1 $706 $705 $534 $713 reversed $356 $-1 #
edge $-1 $714 -1.7400541651397852 $717 1.7400541651397852 $712 $805 forward 7 unknown #
vertex $-1 $709 $806 #
straight-curve $-1 -56.649678029725024 32.110760583739818 -4.3308862349831667 0 -1 0 I I #
coedge $-1 $720 $536 $705 $800 forward $528 $-1 #
vertex $-1 $800 $807 #
straight-curve $-1 -56.649678029725024 32.110760583739818 -7.8109945652627371 0 1 0 I I #
point $-1 -56.649678029725024 27.36566541426156 -7.8109945652627379 #
coedge $-1 $540 $716 $542 $722 forward $528 $-1 #
straight-curve $-1 0 27.36566541426156 -7.8109945652627379 -1 0 0 I I #
edge $-1 $801 -36.855855753218066 $544 -27.36566541426156 $542 $808 forward 7 unknown #
point $-1 56.649678029725024 27.36566541426156 -7.8109945652627379 #
edge $-1 $725 41.910105919087762 $728 47.395402254004075 $549 $809 forward 7 unknown #
vertex $-1 $563 $810 #
straight-curve $-1 -57.501580519686215 -6.3540789879195287 7.8109945652627388 -1 0 0 I I #
edge $-1 $728 1.6442032143746559 $560 7.7755483327150898 $559 $811 forward 7 unknown #
vertex $-1 $727 $812 #
straight-curve $-1 -56.64967802972501 -6.3540789879195287 2.3256982303464326 0.85716729658548041 0 0.51503808176128008 I I #
point $-1 -47.520612050192753 -6.3540789879195287 7.8109945652627379 #
point $-1 -56.649678029725024 -12.485424106259963 2.3256982303464242 #
straight-curve $-1 -56.649678029725024 0 7.8109945652627379 0 -1 0 I I #
vertex $-1 $566 $813 #
point $-1 -50.408792596513699 -9.4197515470897457 4.2200314720843934 #
coedge $-1 $581 $580 $573 $736 forward $570 $-1 #
edge $-1 $737 41.910105919087762 $740 47.395402254004075 $735 $814 forward 7 unknown #
vertex $-1 $585 $815 #
straight-curve $-1 -57.501580519686215 12.485424106259959 7.8109945652627388 -1 0 0 I I #
edge $-1 $740 -7.7755483327150881 $582 -1.6442032143746541 $581 $816 forward 7 unknown #
vertex $-1 $739 $817 #
straight-curve $-1 -56.64967802972501 12.485424106259959 2.3256982303464326 0.85716729658548041 0 0.51503808176128008 I I #
point $-1 -47.520612050192753 12.485424106259959 7.8109945652627379 #
point $-1 -56.649678029725024 6.3540789879195252 2.3256982303464242 #
straight-curve $-1 -56.649678029725024 0 7.8109945652627379 0 -1 0 I I #
vertex $-1 $588 $818 #
point $-1 -50.408792596513699 9.4197515470897422 4.2200314720843934 #
coedge $-1 $603 $602 $595 $748 forward $592 $-1 #
edge $-1 $749 72.049429603490495 $752 79.49130766931566 $747 $819 forward 7 unknown #
vertex $-1 $607 $820 #
straight-curve $-1 36.699111030689544 -15.853007826701155 7.8109945652627317 1 0 0 I I #
edge $-1 $752 -9.8944585884524834 $604 -2.0226398880448579 $603 $821 forward 7 unknown #
vertex $-1 $751 $822 #
straight-curve $-1 -14.651915873482395 -15.853007826701155 88.41925443429902 -0.62932038083071107 0 0.77714596973225614 I I #
point $-1 50.623364157063079 -15.853007826701155 7.8109945652627317 #
point $-1 56.649678029725024 -7.9811891262935291 0.36911649943756686 #
straight-curve $-1 56.649678029725024 0 7.8109945652627379 0 1 0 I I #
vertex $-1 $610 $823 #
point $-1 52.151108869921451 -13.603916769441833 1.6004329112189455 #
vertex $-1 $614 $824 #
point $-1 52.151108869921451 -10.23028018355285 1.6004329112189455 #
edge $-1 $762 72.049429603490495 $765 79.49130766931566 $619 $825 forward 7 unknown #
vertex $-1 $633 $826 #
straight-curve $-1 36.699111030689544 -3.9360244431644542 7.8109945652627317 1 0 0 I I #
edge $-1 $765 -3.9359668966841337 $630 3.9358518037234926 $629 $827 forward 7 unknown #
vertex $-1 $764 $828 #
straight-curve $-1 -14.651915873482395 -3.9360244431644542 88.41925443429902 -0.62932038083071107 0 0.77714596973225614 I I #
point $-1 50.623364157063079 -3.9360244431644542 7.8109945652627317 #
point $-1 56.649678029725024 3.9357942572431721 0.36911649943756686 #
straight-curve $-1 56.649678029725024 0 7.8109945652627379 0 1 0 I I #
vertex $-1 $636 $829 #
point $-1 52.151108869921451 -1.6869333859051316 1.6004329112189455 #
vertex $-1 $640 $830 #
point $-1 52.151108869921451 1.6867031999838495 1.6004329112189455 #
edge $-1 $775 72.049429603490495 $778 79.49130766931566 $645 $831 forward 7 unknown #
vertex $-1 $659 $832 #
straight-curve $-1 36.699111030689544 7.9809589403722452 7.8109945652627317 1 0 0 I I #
edge $-1 $778 2.022524795084216 $656 9.8943434954918423 $655 $833 forward 7 unknown #
vertex $-1 $777 $834 #
straight-curve $-1 -14.651915873482395 7.9809589403722452 88.41925443429902 -0.62932038083071107 0 0.77714596973225614 I I #
point $-1 50.623364157063079 7.9809589403722452 7.8109945652627317 #
point $-1 56.649678029725024 15.852777640779872 0.36911649943756686 #
straight-curve $-1 56.649678029725024 0 7.8109945652627379 0 1 0 I I #
vertex $-1 $662 $835 #
point $-1 52.151108869921451 10.230049997631571 1.6004329112189455 #
vertex $-1 $666 $836 #
point $-1 52.151108869921451 13.603686583520552 1.6004329112189455 #
straight-curve $-1 -56.649678029725024 27.36566541426156 0 0 0 -1 I I #
point $-1 -56.649678029725024 -27.36566541426156 -7.8109945652627379 #
straight-curve $-1 -56.649678029725024 0 -7.8109945652627379 0 1 0 I I #
point $-1 -56.649678029725024 27.36566541426156 -7.8109945652627379 #
edge $-1 $700 -1.7400541651397852 $694 1.7400541651397852 $693 $837 forward 7 unknown #
coedge $-1 $698 $689 $688 $793 reversed $507 $-1 #
edge $-1 $702 -1.7400541651397852 $691 1.7400541651397852 $688 $838 forward 7 unknown #
straight-curve $-1 0 -36.855855753218066 -7.8109945652627371 -1 0 0 I I #
point $-1 56.649678029725024 -36.855855753218066 -7.8109945652627371 #
point $-1 -56.649678029725024 -36.855855753218066 -7.8109945652627371 #
straight-curve $-1 0 -36.855855753218066 -4.3308862349831667 1 0 0 I I #
point $-1 -56.649678029725024 -36.855855753218066 -4.3308862349831667 #
point $-1 56.649678029725024 -36.855855753218066 -4.3308862349831667 #
edge $-1 $717 -56.649678029725024 $801 56.649678029725024 $705 $839 forward 7 unknown #
vertex $-1 $722 $840 #
straight-curve $-1 56.649678029725024 36.855855753218066 -6.0709404001229519 0 0 -1 I I #
straight-curve $-1 0 36.855855753218066 -4.3308862349831667 -1 0 0 I I #
point $-1 56.649678029725024 36.855855753218066 -4.3308862349831667 #
straight-curve $-1 -56.649678029725024 36.855855753218066 -6.0709404001229519 0 0 -1 I I #
point $-1 -56.649678029725024 36.855855753218066 -4.3308862349831667 #
point $-1 -56.649678029725024 36.855855753218066 -7.8109945652627371 #
straight-curve $-1 56.649678029725024 0 -7.8109945652627379 0 -1 0 I I #
straight-curve $-1 -56.649678029725024 -6.3540789879195287 49.721100484350501 0 0 -1 I I #
point $-1 -56.649678029725024 -6.3540789879195287 7.8109945652627379 #
straight-curve $-1 -56.649678029725024 -4.7098757735448729 2.3256982303464238 0 -1 0 I I #
point $-1 -56.649678029725024 -6.3540789879195287 2.3256982303464242 #
point $-1 -50.750921811337903 -9.4197515470897457 2.8478260937376327 #
straight-curve $-1 -56.649678029725024 12.485424106259959 49.721100484350501 0 0 -1 I I #
point $-1 -56.649678029725024 12.485424106259959 7.8109945652627379 #
straight-curve $-1 -56.649678029725024 4.7098757735448711 2.3256982303464238 0 -1 0 I I #
point $-1 -56.649678029725024 12.485424106259959 2.3256982303464242 #
point $-1 -50.750921811337903 9.4197515470897422 2.8478260937376327 #
straight-curve $-1 56.649678029725024 -15.853007826701155 79.860424168753227 0 0 -1 I I #
point $-1 56.649678029725024 -15.853007826701155 7.8109945652627379 #
straight-curve $-1 56.649678029725024 -5.9585492382486711 0.36911649943755975 0 1 0 I I #
point $-1 56.649678029725024 -15.853007826701155 0.36911649943756686 #
point $-1 50.744642519358479 -13.603916769441833 1.7482585001204907 #
point $-1 50.744642519358479 -10.23028018355285 1.7482585001204907 #
straight-curve $-1 56.649678029725024 -3.9360244431644542 79.860424168753227 0 0 -1 I I #
point $-1 56.649678029725024 -3.9360244431644542 7.8109945652627379 #
straight-curve $-1 56.649678029725024 -5.7546480320525006e-005 0.36911649943755975 0 1 0 I I #
point $-1 56.649678029725024 -3.9360244431644542 0.36911649943756686 #
point $-1 50.744642519358479 -1.6869333859051316 1.7482585001204907 #
point $-1 50.744642519358479 1.6867031999838495 1.7482585001204907 #
straight-curve $-1 56.649678029725024 7.9809589403722452 79.860424168753227 0 0 -1 I I #
point $-1 56.649678029725024 7.9809589403722452 7.8109945652627379 #
straight-curve $-1 56.649678029725024 5.9584341452880292 0.36911649943755975 0 1 0 I I #
point $-1 56.649678029725024 7.9809589403722452 0.36911649943756686 #
point $-1 50.744642519358479 10.230049997631571 1.7482585001204907 #
point $-1 50.744642519358479 13.603686583520552 1.7482585001204907 #
straight-curve $-1 -56.649678029725024 -36.855855753218066 -6.0709404001229519 0 0 -1 I I #
straight-curve $-1 56.649678029725024 -36.855855753218066 -6.0709404001229519 0 0 -1 I I #
straight-curve $-1 0 36.855855753218066 -7.8109945652627371 1 0 0 I I #
point $-1 56.649678029725024 36.855855753218066 -7.8109945652627371 #
End-of-ACIS-data 