500 0 18 0           
7 Unknown 11 ACIS 5.0 NT 24 Fri Mar 26 00:02:52 1999 
-1 9.9999999999999995e-007 1e-010 
body $-1 $18 $-1 $19 #
body $-1 $20 $-1 $21 #
body $-1 $22 $-1 $23 #
body $-1 $24 $-1 $25 #
body $-1 $26 $-1 $27 #
body $-1 $28 $-1 $29 #
body $-1 $30 $-1 $31 #
body $-1 $32 $-1 $33 #
body $-1 $34 $-1 $35 #
body $-1 $36 $-1 $37 #
body $-1 $38 $-1 $39 #
body $-1 $40 $-1 $41 #
body $-1 $42 $-1 $43 #
body $-1 $44 $-1 $45 #
body $-1 $46 $-1 $47 #
body $-1 $48 $-1 $49 #
body $-1 $50 $-1 $51 #
body $-1 $52 $-1 $53 #
lump $-1 $-1 $54 $0 #
transform $-1 1 0 0 0 1 0 0 0 1 69.196447645496988 46.758020727791262 21.944890339742361 1 rotate no_reflect no_shear #
lump $-1 $-1 $55 $1 #
transform $-1 1 0 0 0 1 0 0 0 1 69.196447645496988 46.758020727791262 21.944890339742361 1 rotate no_reflect no_shear #
lump $-1 $-1 $56 $2 #
transform $-1 1 0 0 0 1 0 0 0 1 69.196447645496988 46.758020727791262 21.944890339742361 1 rotate no_reflect no_shear #
lump $-1 $-1 $57 $3 #
transform $-1 1 0 0 0 1 0 0 0 1 69.196447645496988 46.758020727791262 21.944890339742361 1 rotate no_reflect no_shear #
lump $-1 $-1 $58 $4 #
transform $-1 1 0 0 0 1 0 0 0 1 69.196447645496988 46.758020727791262 21.944890339742361 1 rotate no_reflect no_shear #
lump $-1 $-1 $59 $5 #
transform $-1 1 0 0 0 1 0 0 0 1 69.196447645496988 46.758020727791262 21.944890339742361 1 rotate no_reflect no_shear #
lump $-1 $-1 $60 $6 #
transform $-1 1 0 0 0 1 0 0 0 1 69.196447645496988 46.758020727791262 21.944890339742361 1 rotate no_reflect no_shear #
lump $-1 $-1 $61 $7 #
transform $-1 1 0 0 0 1 0 0 0 1 69.196447645496988 46.758020727791262 21.944890339742361 1 rotate no_reflect no_shear #
lump $-1 $-1 $62 $8 #
transform $-1 1 0 0 0 1 0 0 0 1 69.196447645496988 46.758020727791262 21.944890339742361 1 rotate no_reflect no_shear #
lump $-1 $-1 $63 $9 #
transform $-1 1 0 0 0 1 0 0 0 1 69.196447645496988 46.758020727791262 21.944890339742361 1 rotate no_reflect no_shear #
lump $-1 $-1 $64 $10 #
transform $-1 1 0 0 0 1 0 0 0 1 69.196447645496988 46.758020727791262 21.944890339742361 1 rotate no_reflect no_shear #
lump $-1 $-1 $65 $11 #
transform $-1 1 0 0 0 1 0 0 0 1 69.196447645496988 46.758020727791262 21.944890339742361 1 rotate no_reflect no_shear #
lump $-1 $-1 $66 $12 #
transform $-1 1 0 0 0 1 0 0 0 1 69.196447645496988 46.758020727791262 21.944890339742361 1 rotate no_reflect no_shear #
lump $-1 $-1 $67 $13 #
transform $-1 1 0 0 0 1 0 0 0 1 69.196447645496988 46.758020727791262 21.944890339742361 1 rotate no_reflect no_shear #
lump $-1 $-1 $68 $14 #
transform $-1 1 0 0 0 1 0 0 0 1 69.196447645496988 46.758020727791262 21.944890339742361 1 rotate no_reflect no_shear #
lump $-1 $-1 $69 $15 #
transform $-1 1 0 0 0 1 0 0 0 1 69.196447645496988 46.758020727791262 21.944890339742361 1 rotate no_reflect no_shear #
lump $-1 $-1 $70 $16 #
transform $-1 1 0 0 0 1 0 0 0 1 69.196447645496988 46.758020727791262 21.944890339742361 1 rotate no_reflect no_shear #
lump $-1 $-1 $71 $17 #
transform $-1 1 0 0 0 1 0 0 0 1 69.196447645496988 46.758020727791262 21.944890339742361 1 rotate no_reflect no_shear #
shell $-1 $-1 $-1 $72 $-1 $18 #
shell $-1 $-1 $-1 $73 $-1 $20 #
shell $-1 $-1 $-1 $74 $-1 $22 #
shell $-1 $-1 $-1 $75 $-1 $24 #
shell $-1 $-1 $-1 $76 $-1 $26 #
shell $-1 $-1 $-1 $77 $-1 $28 #
shell $-1 $-1 $-1 $78 $-1 $30 #
shell $-1 $-1 $-1 $79 $-1 $32 #
shell $-1 $-1 $-1 $80 $-1 $34 #
shell $-1 $-1 $-1 $81 $-1 $36 #
shell $-1 $-1 $-1 $82 $-1 $38 #
shell $-1 $-1 $-1 $83 $-1 $40 #
shell $-1 $-1 $-1 $84 $-1 $42 #
shell $-1 $-1 $-1 $85 $-1 $44 #
shell $-1 $-1 $-1 $86 $-1 $46 #
shell $-1 $-1 $-1 $87 $-1 $48 #
shell $-1 $-1 $-1 $88 $-1 $50 #
shell $-1 $-1 $-1 $89 $-1 $52 #
face $-1 $90 $91 $54 $-1 $92 forward single #
face $-1 $93 $94 $55 $-1 $95 forward single #
face $-1 $96 $97 $56 $-1 $98 reversed single #
face $-1 $99 $100 $57 $-1 $101 forward single #
face $-1 $102 $103 $58 $-1 $104 forward single #
face $-1 $105 $106 $59 $-1 $107 forward single #
face $-1 $108 $109 $60 $-1 $110 reversed single #
face $-1 $111 $112 $61 $-1 $113 forward single #
face $-1 $114 $115 $62 $-1 $116 forward single #
face $-1 $117 $118 $63 $-1 $119 forward single #
face $-1 $120 $121 $64 $-1 $122 reversed single #
face $-1 $123 $124 $65 $-1 $125 forward single #
face $-1 $126 $127 $66 $-1 $128 forward single #
face $-1 $129 $130 $67 $-1 $131 forward single #
face $-1 $132 $133 $68 $-1 $134 reversed single #
face $-1 $135 $136 $69 $-1 $137 forward single #
face $-1 $138 $139 $70 $-1 $140 forward single #
face $-1 $141 $142 $71 $-1 $143 forward single #
face $-1 $144 $145 $54 $-1 $146 reversed single #
loop $-1 $-1 $147 $72 #
plane-surface $-1 0 0 21.944890339742361 0 0 1 1 0 0 forward_v I I I I #
face $-1 $148 $149 $55 $-1 $150 forward single #
loop $-1 $-1 $151 $73 #
plane-surface $-1 0 -46.758020727791262 0 0 1 0 0 0 1 forward_v I I I I #
face $-1 $152 $153 $56 $-1 $154 reversed single #
loop $-1 $-1 $155 $74 #
plane-surface $-1 -187.82231322272008 3.5381120888529338 88.466019008031168 0 1 0 -0.85716730853699208 0 0.51503806187062418 forward_v I I I I #
face $-1 $156 $157 $57 $-1 $158 forward single #
loop $-1 $159 $160 $75 #
cone-surface $-1 -66.963694213136847 5.2838262109780842 19.083701021340481 0.85716730853699208 0 -0.51503806187062418 0.25751903093531209 0 0.42858365426849604 1 I I 0 1 0.5 forward I I I I #
face $-1 $161 $162 $58 $-1 $163 forward single #
loop $-1 $164 $165 $76 #
cone-surface $-1 -66.963694213136847 7.9023973941658028 19.083701021340481 0.85716730853699208 0 -0.51503806187062418 0.25751903093531209 0 0.42858365426849604 1 I I 0 1 0.5 forward I I I I #
face $-1 $166 $167 $59 $-1 $168 forward single #
loop $-1 $169 $170 $77 #
cone-surface $-1 -66.963694213136847 10.520968577353528 19.083701021340481 0.85716730853699208 0 -0.51503806187062418 0.25751903093531209 0 0.42858365426849604 1 I I 0 1 0.5 forward I I I I #
face $-1 $171 $172 $60 $-1 $173 reversed single #
loop $-1 $-1 $174 $78 #
plane-surface $-1 -69.196447645497017 7.9023973941658028 17.188410440693403 -0.85716730853699208 0 0.51503806187062418 0.51503806187062418 0 0.85716730853699208 forward_v I I I I #
face $-1 $175 $176 $61 $-1 $177 forward single #
loop $-1 $178 $179 $79 #
cone-surface $-1 -66.963694213136847 14.012396821603822 19.083701021340481 0.85716730853699208 0 -0.51503806187062418 0.25751903093531209 0 0.42858365426849604 1 I I 0 1 0.5 forward I I I I #
face $-1 $180 $181 $62 $-1 $182 forward single #
loop $-1 $183 $184 $80 #
cone-surface $-1 -66.963694213136847 16.630968004791541 19.083701021340481 0.85716730853699208 0 -0.51503806187062418 0.25751903093531209 0 0.42858365426849604 1 I I 0 1 0.5 forward I I I I #
face $-1 $185 $186 $63 $-1 $187 forward single #
loop $-1 $188 $189 $81 #
cone-surface $-1 -66.963694213136847 19.249539187979266 19.083701021340481 0.85716730853699208 0 -0.51503806187062418 0.25751903093531209 0 0.42858365426849604 1 I I 0 1 0.5 forward I I I I #
face $-1 $190 $191 $64 $-1 $192 reversed single #
loop $-1 $-1 $193 $82 #
plane-surface $-1 116.5447046553823 12.266682699478672 207.09188458525426 0 -1 0 -0.85716730853699208 0 -0.51503806187062418 forward_v I I I I #
face $-1 $194 $195 $65 $-1 $196 forward single #
loop $-1 $197 $198 $83 #
cone-surface $-1 66.963694213136833 5.2838262109780842 19.083701021340481 -0.85716730853699208 0 -0.51503806187062418 0.25751903093531209 0 -0.42858365426849604 1 I I 0 1 0.5 forward I I I I #
face $-1 $199 $200 $66 $-1 $201 forward single #
loop $-1 $202 $203 $84 #
cone-surface $-1 66.963694213136833 7.9023973941658028 19.083701021340481 -0.85716730853699208 0 -0.51503806187062418 0.25751903093531209 0 -0.42858365426849604 1 I I 0 1 0.5 forward I I I I #
face $-1 $204 $205 $67 $-1 $206 forward single #
loop $-1 $207 $208 $85 #
cone-surface $-1 66.963694213136833 10.520968577353528 19.083701021340481 -0.85716730853699208 0 -0.51503806187062418 0.25751903093531209 0 -0.42858365426849604 1 I I 0 1 0.5 forward I I I I #
face $-1 $209 $210 $68 $-1 $211 reversed single #
loop $-1 $-1 $212 $86 #
plane-surface $-1 116.5447046553823 20.99525331010441 207.09188458525426 0 -1 0 -0.85716730853699208 0 -0.51503806187062418 forward_v I I I I #
face $-1 $213 $214 $69 $-1 $215 forward single #
loop $-1 $216 $217 $87 #
cone-surface $-1 66.963694213136833 14.012396821603822 19.083701021340481 -0.85716730853699208 0 -0.51503806187062418 0.25751903093531209 0 -0.42858365426849604 1 I I 0 1 0.5 forward I I I I #
face $-1 $218 $219 $70 $-1 $220 forward single #
loop $-1 $221 $222 $88 #
cone-surface $-1 66.963694213136833 16.630968004791541 19.083701021340481 -0.85716730853699208 0 -0.51503806187062418 0.25751903093531209 0 -0.42858365426849604 1 I I 0 1 0.5 forward I I I I #
face $-1 $223 $224 $71 $-1 $225 forward single #
loop $-1 $226 $227 $89 #
cone-surface $-1 66.963694213136833 19.249539187979266 19.083701021340481 -0.85716730853699208 0 -0.51503806187062418 0.25751903093531209 0 -0.42858365426849604 1 I I 0 1 0.5 forward I I I I #
face $-1 $228 $229 $54 $-1 $230 reversed single #
loop $-1 $-1 $231 $90 #
plane-surface $-1 0 0 -21.944890339742361 0 0 1 1 0 0 forward_v I I I I #
coedge $-1 $232 $233 $234 $235 forward $91 $-1 #
face $-1 $236 $237 $55 $-1 $238 reversed single #
loop $-1 $-1 $239 $93 #
plane-surface $-1 0 0 21.944890339742361 0 0 1 1 0 0 forward_v I I I I #
coedge $-1 $240 $241 $242 $243 forward $94 $-1 #
face $-1 $244 $245 $56 $-1 $246 reversed single #
loop $-1 $-1 $247 $96 #
plane-surface $-1 -69.196447645497017 7.9023973941658028 17.188410440693403 -0.85716730853699208 0 0.51503806187062418 0.51503806187062418 0 0.85716730853699208 forward_v I I I I #
coedge $-1 $248 $249 $250 $251 reversed $97 $-1 #
face $-1 $-1 $252 $57 $-1 $253 forward single #
loop $-1 $254 $255 $99 #
cone-surface $-1 -65.945639632669881 5.2838262109780842 18.471992136995421 0.85716730853699208 0 -0.51503806187062418 0.12875951546765604 0 0.21429182713424802 1 I I -0.70710678118654746 0.70710678118654746 0.25 forward I I I I #
loop $-1 $-1 $256 $75 #
coedge $-1 $160 $160 $257 $258 reversed $100 $-1 #
face $-1 $-1 $259 $58 $-1 $260 forward single #
loop $-1 $261 $262 $102 #
cone-surface $-1 -65.945639632669881 7.9023973941658028 18.471992136995421 0.85716730853699208 0 -0.51503806187062418 0.12875951546765604 0 0.21429182713424802 1 I I -0.70710678118654746 0.70710678118654746 0.25 forward I I I I #
loop $-1 $-1 $263 $76 #
coedge $-1 $165 $165 $264 $265 reversed $103 $-1 #
face $-1 $-1 $266 $59 $-1 $267 forward single #
loop $-1 $268 $269 $105 #
cone-surface $-1 -65.945639632669881 10.520968577353528 18.471992136995421 0.85716730853699208 0 -0.51503806187062418 0.12875951546765604 0 0.21429182713424802 1 I I -0.70710678118654746 0.70710678118654746 0.25 forward I I I I #
loop $-1 $-1 $270 $77 #
coedge $-1 $170 $170 $271 $272 reversed $106 $-1 #
face $-1 $273 $274 $60 $-1 $275 forward single #
loop $-1 $-1 $276 $108 #
plane-surface $-1 -187.82231322272008 20.99525331010441 88.466019008031168 0 -1 0 0.85716730853699208 0 -0.51503806187062418 forward_v I I I I #
coedge $-1 $277 $278 $279 $280 reversed $109 $-1 #
face $-1 $-1 $281 $61 $-1 $282 forward single #
loop $-1 $283 $284 $111 #
cone-surface $-1 -65.945639632669881 14.012396821603822 18.471992136995421 0.85716730853699208 0 -0.51503806187062418 0.12875951546765604 0 0.21429182713424802 1 I I -0.70710678118654746 0.70710678118654746 0.25 forward I I I I #
loop $-1 $-1 $285 $79 #
coedge $-1 $179 $179 $286 $287 reversed $112 $-1 #
face $-1 $-1 $288 $62 $-1 $289 forward single #
loop $-1 $290 $291 $114 #
cone-surface $-1 -65.945639632669881 16.630968004791541 18.471992136995421 0.85716730853699208 0 -0.51503806187062418 0.12875951546765604 0 0.21429182713424802 1 I I -0.70710678118654746 0.70710678118654746 0.25 forward I I I I #
loop $-1 $-1 $292 $80 #
coedge $-1 $184 $184 $293 $294 reversed $115 $-1 #
face $-1 $-1 $295 $63 $-1 $296 forward single #
loop $-1 $297 $298 $117 #
cone-surface $-1 -65.945639632669881 19.249539187979266 18.471992136995421 0.85716730853699208 0 -0.51503806187062418 0.12875951546765604 0 0.21429182713424802 1 I I -0.70710678118654746 0.70710678118654746 0.25 forward I I I I #
loop $-1 $-1 $299 $81 #
coedge $-1 $189 $189 $300 $301 reversed $118 $-1 #
face $-1 $302 $303 $64 $-1 $304 reversed single #
loop $-1 $-1 $305 $120 #
plane-surface $-1 -2.0811609218407625 7.9023973941658028 135.81427601791648 0.85716730853699208 0 0.51503806187062418 0.51503806187062418 0 -0.85716730853699208 forward_v I I I I #
coedge $-1 $306 $307 $308 $309 reversed $121 $-1 #
face $-1 $-1 $310 $65 $-1 $311 forward single #
loop $-1 $312 $313 $123 #
cone-surface $-1 65.945639632669867 5.2838262109780842 18.471992136995421 -0.85716730853699208 0 -0.51503806187062418 0.12875951546765604 0 -0.21429182713424802 1 I I -0.70710678118654746 0.70710678118654746 0.25 forward I I I I #
loop $-1 $-1 $314 $83 #
coedge $-1 $198 $198 $315 $316 reversed $124 $-1 #
face $-1 $-1 $317 $66 $-1 $318 forward single #
loop $-1 $319 $320 $126 #
cone-surface $-1 65.945639632669867 7.9023973941658028 18.471992136995421 -0.85716730853699208 0 -0.51503806187062418 0.12875951546765604 0 -0.21429182713424802 1 I I -0.70710678118654746 0.70710678118654746 0.25 forward I I I I #
loop $-1 $-1 $321 $84 #
coedge $-1 $203 $203 $322 $323 reversed $127 $-1 #
face $-1 $-1 $324 $67 $-1 $325 forward single #
loop $-1 $326 $327 $129 #
cone-surface $-1 65.945639632669867 10.520968577353528 18.471992136995421 -0.85716730853699208 0 -0.51503806187062418 0.12875951546765604 0 -0.21429182713424802 1 I I -0.70710678118654746 0.70710678118654746 0.25 forward I I I I #
loop $-1 $-1 $328 $85 #
coedge $-1 $208 $208 $329 $330 reversed $130 $-1 #
face $-1 $331 $332 $68 $-1 $333 reversed single #
loop $-1 $-1 $334 $132 #
plane-surface $-1 -2.0811609218407625 7.9023973941658028 135.81427601791648 0.85716730853699208 0 0.51503806187062418 0.51503806187062418 0 -0.85716730853699208 forward_v I I I I #
coedge $-1 $335 $336 $337 $338 reversed $133 $-1 #
face $-1 $-1 $339 $69 $-1 $340 forward single #
loop $-1 $341 $342 $135 #
cone-surface $-1 65.945639632669867 14.012396821603822 18.471992136995421 -0.85716730853699208 0 -0.51503806187062418 0.12875951546765604 0 -0.21429182713424802 1 I I -0.70710678118654746 0.70710678118654746 0.25 forward I I I I #
loop $-1 $-1 $343 $87 #
coedge $-1 $217 $217 $344 $345 reversed $136 $-1 #
face $-1 $-1 $346 $70 $-1 $347 forward single #
loop $-1 $348 $349 $138 #
cone-surface $-1 65.945639632669867 16.630968004791541 18.471992136995421 -0.85716730853699208 0 -0.51503806187062418 0.12875951546765604 0 -0.21429182713424802 1 I I -0.70710678118654746 0.70710678118654746 0.25 forward I I I I #
loop $-1 $-1 $350 $88 #
coedge $-1 $222 $222 $351 $352 reversed $139 $-1 #
face $-1 $-1 $353 $71 $-1 $354 forward single #
loop $-1 $355 $356 $141 #
cone-surface $-1 65.945639632669867 19.249539187979266 18.471992136995421 -0.85716730853699208 0 -0.51503806187062418 0.12875951546765604 0 -0.21429182713424802 1 I I -0.70710678118654746 0.70710678118654746 0.25 forward I I I I #
loop $-1 $-1 $357 $89 #
coedge $-1 $227 $227 $358 $359 reversed $142 $-1 #
face $-1 $360 $361 $54 $-1 $362 reversed single #
loop $-1 $-1 $363 $144 #
plane-surface $-1 0 -46.758020727791262 0 0 1 0 0 0 1 forward_v I I I I #
coedge $-1 $364 $365 $366 $367 forward $145 $-1 #
coedge $-1 $368 $147 $369 $370 forward $91 $-1 #
coedge $-1 $147 $368 $371 $372 forward $91 $-1 #
coedge $-1 $373 $374 $147 $235 reversed $375 $-1 #
edge $-1 $376 -46.758020727791262 $377 46.758020727791262 $234 $378 forward 7 unknown #
face $-1 $379 $380 $55 $-1 $381 reversed single #
loop $-1 $-1 $382 $148 #
plane-surface $-1 -69.196447645496988 0 0 1 0 0 0 0 -1 forward_v I I I I #
coedge $-1 $383 $384 $385 $386 forward $149 $-1 #
coedge $-1 $385 $151 $382 $387 reversed $94 $-1 #
coedge $-1 $151 $385 $388 $389 reversed $94 $-1 #
coedge $-1 $390 $391 $151 $243 reversed $380 $-1 #
edge $-1 $392 -69.196447645496988 $393 69.196447645496988 $242 $394 forward 7 unknown #
face $-1 $395 $396 $56 $-1 $397 forward single #
loop $-1 $-1 $398 $152 #
plane-surface $-1 -187.82231322272008 12.266682699478672 88.466019008031168 0 -1 0 0.85716730853699208 0 -0.51503806187062418 forward_v I I I I #
coedge $-1 $399 $400 $401 $402 reversed $153 $-1 #
coedge $-1 $249 $155 $403 $404 reversed $97 $-1 #
coedge $-1 $155 $248 $399 $405 reversed $97 $-1 #
coedge $-1 $401 $406 $155 $251 forward $396 $-1 #
edge $-1 $407 24.714708965863053 $408 27.572690323917854 $250 $409 forward 7 unknown #
loop $-1 $-1 $257 $156 #
plane-surface $-1 -69.196447645497017 7.9023973941658028 17.188410440693403 -0.85716730853699208 0 0.51503806187062418 0.51503806187062418 0 0.85716730853699208 forward_v I I I I #
loop $-1 $-1 $410 $99 #
coedge $-1 $255 $255 $256 $411 reversed $157 $-1 #
coedge $-1 $256 $256 $255 $411 forward $159 $-1 #
coedge $-1 $257 $257 $160 $258 forward $252 $-1 #
edge $-1 $412 0 $412 6.2831853071796004 $257 $413 forward 7 unknown #
loop $-1 $-1 $264 $161 #
plane-surface $-1 -69.196447645497017 7.9023973941658028 17.188410440693403 -0.85716730853699208 0 0.51503806187062418 0.51503806187062418 0 0.85716730853699208 forward_v I I I I #
loop $-1 $-1 $414 $102 #
coedge $-1 $262 $262 $263 $415 reversed $162 $-1 #
coedge $-1 $263 $263 $262 $415 forward $164 $-1 #
coedge $-1 $264 $264 $165 $265 forward $259 $-1 #
edge $-1 $416 0 $416 6.2831853071796004 $264 $417 forward 7 unknown #
loop $-1 $-1 $271 $166 #
plane-surface $-1 -69.196447645497017 7.9023973941658028 17.188410440693403 -0.85716730853699208 0 0.51503806187062418 0.51503806187062418 0 0.85716730853699208 forward_v I I I I #
loop $-1 $-1 $418 $105 #
coedge $-1 $269 $269 $270 $419 reversed $167 $-1 #
coedge $-1 $270 $270 $269 $419 forward $169 $-1 #
coedge $-1 $271 $271 $170 $272 forward $266 $-1 #
edge $-1 $420 0 $420 6.2831853071796004 $271 $421 forward 7 unknown #
face $-1 $422 $423 $60 $-1 $424 forward single #
loop $-1 $-1 $425 $171 #
plane-surface $-1 0 0 21.944890339742361 0 0 1 1 0 0 forward_v I I I I #
coedge $-1 $426 $427 $428 $429 reversed $172 $-1 #
coedge $-1 $430 $174 $431 $432 reversed $109 $-1 #
coedge $-1 $174 $430 $425 $433 reversed $109 $-1 #
coedge $-1 $434 $435 $174 $280 forward $423 $-1 #
edge $-1 $436 5.4226772426865094e-014 $437 5.5490682526930355 $279 $438 forward 7 unknown #
loop $-1 $-1 $286 $175 #
plane-surface $-1 -69.196447645497017 7.9023973941658028 17.188410440693403 -0.85716730853699208 0 0.51503806187062418 0.51503806187062418 0 0.85716730853699208 forward_v I I I I #
loop $-1 $-1 $439 $111 #
coedge $-1 $284 $284 $285 $440 reversed $176 $-1 #
coedge $-1 $285 $285 $284 $440 forward $178 $-1 #
coedge $-1 $286 $286 $179 $287 forward $281 $-1 #
edge $-1 $441 0 $441 6.2831853071796004 $286 $442 forward 7 unknown #
loop $-1 $-1 $293 $180 #
plane-surface $-1 -69.196447645497017 7.9023973941658028 17.188410440693403 -0.85716730853699208 0 0.51503806187062418 0.51503806187062418 0 0.85716730853699208 forward_v I I I I #
loop $-1 $-1 $443 $114 #
coedge $-1 $291 $291 $292 $444 reversed $181 $-1 #
coedge $-1 $292 $292 $291 $444 forward $183 $-1 #
coedge $-1 $293 $293 $184 $294 forward $288 $-1 #
edge $-1 $445 0 $445 6.2831853071796004 $293 $446 forward 7 unknown #
loop $-1 $-1 $300 $185 #
plane-surface $-1 -69.196447645497017 7.9023973941658028 17.188410440693403 -0.85716730853699208 0 0.51503806187062418 0.51503806187062418 0 0.85716730853699208 forward_v I I I I #
loop $-1 $-1 $447 $117 #
coedge $-1 $298 $298 $299 $448 reversed $186 $-1 #
coedge $-1 $299 $299 $298 $448 forward $188 $-1 #
coedge $-1 $300 $300 $189 $301 forward $295 $-1 #
edge $-1 $449 0 $449 6.2831853071796004 $300 $450 forward 7 unknown #
face $-1 $451 $452 $64 $-1 $453 reversed single #
loop $-1 $-1 $454 $190 #
plane-surface $-1 116.5447046553823 3.5381120888529338 207.09188458525426 0 1 0 0.85716730853699208 0 0.51503806187062418 forward_v I I I I #
coedge $-1 $455 $456 $457 $458 reversed $191 $-1 #
coedge $-1 $307 $193 $459 $460 reversed $121 $-1 #
coedge $-1 $193 $306 $455 $461 reversed $121 $-1 #
coedge $-1 $457 $462 $193 $309 forward $463 $-1 #
edge $-1 $464 -10.924095317805836 $465 -8.0661139597510356 $308 $466 forward 7 unknown #
loop $-1 $-1 $315 $194 #
plane-surface $-1 -2.0811609218407625 7.9023973941658028 135.81427601791648 0.85716730853699208 0 0.51503806187062418 0.51503806187062418 0 -0.85716730853699208 forward_v I I I I #
loop $-1 $-1 $467 $123 #
coedge $-1 $313 $313 $314 $468 reversed $195 $-1 #
coedge $-1 $314 $314 $313 $468 forward $197 $-1 #
coedge $-1 $315 $315 $198 $316 forward $310 $-1 #
edge $-1 $469 0 $469 6.2831853071796004 $315 $470 forward 7 unknown #
loop $-1 $-1 $322 $199 #
plane-surface $-1 -2.0811609218407625 7.9023973941658028 135.81427601791648 0.85716730853699208 0 0.51503806187062418 0.51503806187062418 0 -0.85716730853699208 forward_v I I I I #
loop $-1 $-1 $471 $126 #
coedge $-1 $320 $320 $321 $472 reversed $200 $-1 #
coedge $-1 $321 $321 $320 $472 forward $202 $-1 #
coedge $-1 $322 $322 $203 $323 forward $317 $-1 #
edge $-1 $473 0 $473 6.2831853071796004 $322 $474 forward 7 unknown #
loop $-1 $-1 $329 $204 #
plane-surface $-1 -2.0811609218407625 7.9023973941658028 135.81427601791648 0.85716730853699208 0 0.51503806187062418 0.51503806187062418 0 -0.85716730853699208 forward_v I I I I #
loop $-1 $-1 $475 $129 #
coedge $-1 $327 $327 $328 $476 reversed $205 $-1 #
coedge $-1 $328 $328 $327 $476 forward $207 $-1 #
coedge $-1 $329 $329 $208 $330 forward $324 $-1 #
edge $-1 $477 0 $477 6.2831853071796004 $329 $478 forward 7 unknown #
face $-1 $479 $480 $68 $-1 $481 forward single #
loop $-1 $-1 $482 $209 #
plane-surface $-1 69.196447645496988 0 0 -1 0 0 0 0 1 forward_v I I I I #
coedge $-1 $483 $484 $485 $486 reversed $210 $-1 #
coedge $-1 $336 $212 $487 $488 reversed $133 $-1 #
coedge $-1 $212 $335 $489 $490 reversed $133 $-1 #
coedge $-1 $491 $482 $212 $338 forward $332 $-1 #
edge $-1 $492 -86.357531851933686 $493 -81.601051952884774 $337 $494 forward 7 unknown #
loop $-1 $-1 $344 $213 #
plane-surface $-1 -2.0811609218407625 7.9023973941658028 135.81427601791648 0.85716730853699208 0 0.51503806187062418 0.51503806187062418 0 -0.85716730853699208 forward_v I I I I #
loop $-1 $-1 $495 $135 #
coedge $-1 $342 $342 $343 $496 reversed $214 $-1 #
coedge $-1 $343 $343 $342 $496 forward $216 $-1 #
coedge $-1 $344 $344 $217 $345 forward $339 $-1 #
edge $-1 $497 0 $497 6.2831853071796004 $344 $498 forward 7 unknown #
loop $-1 $-1 $351 $218 #
plane-surface $-1 -2.0811609218407625 7.9023973941658028 135.81427601791648 0.85716730853699208 0 0.51503806187062418 0.51503806187062418 0 -0.85716730853699208 forward_v I I I I #
loop $-1 $-1 $499 $138 #
coedge $-1 $349 $349 $350 $500 reversed $219 $-1 #
coedge $-1 $350 $350 $349 $500 forward $221 $-1 #
coedge $-1 $351 $351 $222 $352 forward $346 $-1 #
edge $-1 $501 0 $501 6.2831853071796004 $351 $502 forward 7 unknown #
loop $-1 $-1 $358 $223 #
plane-surface $-1 -2.0811609218407625 7.9023973941658028 135.81427601791648 0.85716730853699208 0 0.51503806187062418 0.51503806187062418 0 -0.85716730853699208 forward_v I I I I #
loop $-1 $-1 $503 $141 #
coedge $-1 $356 $356 $357 $504 reversed $224 $-1 #
coedge $-1 $357 $357 $356 $504 forward $226 $-1 #
coedge $-1 $358 $358 $227 $359 forward $353 $-1 #
edge $-1 $505 0 $505 6.2831853071796004 $358 $506 forward 7 unknown #
face $-1 $507 $508 $54 $-1 $509 reversed single #
loop $-1 $-1 $510 $228 #
plane-surface $-1 -69.196447645496988 0 0 1 0 0 0 0 -1 forward_v I I I I #
coedge $-1 $511 $371 $512 $513 forward $229 $-1 #
coedge $-1 $514 $231 $511 $515 forward $145 $-1 #
coedge $-1 $231 $514 $516 $517 forward $145 $-1 #
coedge $-1 $374 $373 $231 $367 reversed $375 $-1 #
edge $-1 $518 -46.758020727791262 $519 46.758020727791262 $366 $520 forward 7 unknown #
coedge $-1 $233 $232 $521 $522 forward $91 $-1 #
coedge $-1 $523 $524 $232 $370 reversed $508 $-1 #
edge $-1 $377 -69.196447645496988 $525 69.196447645496988 $369 $526 forward 7 unknown #
coedge $-1 $363 $527 $233 $372 reversed $229 $-1 #
edge $-1 $528 -69.196447645496988 $376 69.196447645496988 $371 $529 forward 7 unknown #
coedge $-1 $366 $234 $527 $530 forward $375 $-1 #
coedge $-1 $234 $366 $523 $531 reversed $375 $-1 #
loop $-1 $-1 $373 $507 #
vertex $-1 $235 $532 #
vertex $-1 $235 $533 #
straight-curve $-1 69.196447645496988 0 21.944890339742361 0 1 0 I I #
face $-1 $534 $535 $55 $-1 $536 reversed single #
loop $-1 $-1 $390 $236 #
plane-surface $-1 0 -59.024703427269941 10.952152491954553 0 0 1 1 0 0 forward_v I I I I #
coedge $-1 $537 $538 $240 $387 forward $237 $-1 #
coedge $-1 $539 $239 $538 $540 forward $149 $-1 #
coedge $-1 $239 $539 $541 $542 forward $149 $-1 #
coedge $-1 $241 $240 $239 $386 reversed $94 $-1 #
edge $-1 $543 -69.196447645496988 $544 69.196447645496988 $239 $545 forward 7 unknown #
edge $-1 $544 -21.944890339742361 $393 -10.952152491954553 $382 $546 forward 7 unknown #
coedge $-1 $541 $547 $241 $389 forward $548 $-1 #
edge $-1 $392 10.952152491954553 $543 21.944890339742361 $388 $549 forward 7 unknown #
coedge $-1 $550 $242 $547 $551 forward $380 $-1 #
coedge $-1 $242 $550 $537 $552 forward $380 $-1 #
vertex $-1 $389 $553 #
vertex $-1 $387 $554 #
straight-curve $-1 0 -46.758020727791262 10.952152491954553 -1 0 0 I I #
face $-1 $-1 $555 $56 $-1 $556 reversed single #
loop $-1 $-1 $250 $244 #
plane-surface $-1 0 0 21.944890339742361 0 0 1 1 0 0 forward_v I I I I #
coedge $-1 $557 $558 $559 $560 reversed $245 $-1 #
coedge $-1 $561 $247 $249 $405 forward $153 $-1 #
coedge $-1 $247 $561 $557 $562 forward $153 $-1 #
coedge $-1 $559 $250 $247 $402 forward $396 $-1 #
edge $-1 $408 -0.41308660822996757 $563 8.3154840023957703 $401 $564 forward 7 unknown #
coedge $-1 $565 $566 $248 $404 forward $555 $-1 #
edge $-1 $567 -27.044599063322135 $407 -22.288119164273223 $403 $568 forward 7 unknown #
edge $-1 $408 -5.5490682526930355 $567 -5.4226772426865094e-014 $249 $569 forward 7 unknown #
coedge $-1 $250 $559 $565 $570 forward $396 $-1 #
vertex $-1 $404 $571 #
vertex $-1 $251 $572 #
straight-curve $-1 -93.911156611360042 3.5381120888529338 21.944890339742358 1 0 0 I I #
coedge $-1 $410 $410 $-1 $573 reversed $254 $-1 #
edge $-1 $574 0 $574 6.2831853071796004 $255 $575 forward 7 unknown #
vertex $-1 $258 $576 #
ellipse-curve $-1 -67.767456966469595 5.2838262109780842 19.566650390217898 -0.85716730853699208 0 0.51503806187062418 0.25751903093531209 0 0.42858365426849604 1 I I #
coedge $-1 $414 $414 $-1 $577 reversed $261 $-1 #
edge $-1 $578 0 $578 6.2831853071796004 $262 $579 forward 7 unknown #
vertex $-1 $265 $580 #
ellipse-curve $-1 -67.767456966469595 7.9023973941658028 19.566650390217898 -0.85716730853699208 0 0.51503806187062418 0.25751903093531209 0 0.42858365426849604 1 I I #
coedge $-1 $418 $418 $-1 $581 reversed $268 $-1 #
edge $-1 $582 0 $582 6.2831853071796004 $269 $583 forward 7 unknown #
vertex $-1 $272 $584 #
ellipse-curve $-1 -67.767456966469595 10.520968577353528 19.566650390217898 -0.85716730853699208 0 0.51503806187062418 0.25751903093531209 0 0.42858365426849604 1 I I #
face $-1 $-1 $585 $60 $-1 $586 reversed single #
loop $-1 $-1 $434 $273 #
plane-surface $-1 -187.82231322272008 12.266682699478672 88.466019008031168 0 -1 0 0.85716730853699208 0 -0.51503806187062418 forward_v I I I I #
coedge $-1 $428 $587 $278 $433 forward $274 $-1 #
coedge $-1 $427 $276 $430 $588 reversed $172 $-1 #
coedge $-1 $276 $426 $589 $590 reversed $172 $-1 #
coedge $-1 $591 $425 $276 $429 forward $274 $-1 #
edge $-1 $592 -27.572690323917854 $593 -24.714708965863053 $428 $594 forward 7 unknown #
coedge $-1 $278 $277 $426 $588 forward $109 $-1 #
coedge $-1 $595 $589 $277 $432 forward $585 $-1 #
edge $-1 $596 -17.044054613021508 $436 -8.3154840023957703 $431 $597 forward 7 unknown #
edge $-1 $437 8.3154840023957703 $592 17.044054613021508 $425 $598 forward 7 unknown #
coedge $-1 $435 $279 $587 $599 reversed $423 $-1 #
coedge $-1 $279 $434 $595 $600 reversed $423 $-1 #
vertex $-1 $432 $601 #
vertex $-1 $433 $602 #
straight-curve $-1 -69.196447645497017 12.266682699478672 17.188410440693403 0.51503806187062418 0 0.85716730853699208 I I #
coedge $-1 $439 $439 $-1 $603 reversed $283 $-1 #
edge $-1 $604 0 $604 6.2831853071796004 $284 $605 forward 7 unknown #
vertex $-1 $287 $606 #
ellipse-curve $-1 -67.767456966469595 14.012396821603822 19.566650390217898 -0.85716730853699208 0 0.51503806187062418 0.25751903093531209 0 0.42858365426849604 1 I I #
coedge $-1 $443 $443 $-1 $607 reversed $290 $-1 #
edge $-1 $608 0 $608 6.2831853071796004 $291 $609 forward 7 unknown #
vertex $-1 $294 $610 #
ellipse-curve $-1 -67.767456966469595 16.630968004791541 19.566650390217898 -0.85716730853699208 0 0.51503806187062418 0.25751903093531209 0 0.42858365426849604 1 I I #
coedge $-1 $447 $447 $-1 $611 reversed $297 $-1 #
edge $-1 $612 0 $612 6.2831853071796004 $298 $613 forward 7 unknown #
vertex $-1 $301 $614 #
ellipse-curve $-1 -67.767456966469595 19.249539187979266 19.566650390217898 -0.85716730853699208 0 0.51503806187062418 0.25751903093531209 0 0.42858365426849604 1 I I #
face $-1 $-1 $463 $64 $-1 $615 forward single #
loop $-1 $-1 $616 $302 #
plane-surface $-1 69.196447645496988 0 0 -1 0 0 0 0 1 forward_v I I I I #
coedge $-1 $617 $618 $619 $620 reversed $303 $-1 #
coedge $-1 $621 $305 $307 $461 forward $191 $-1 #
coedge $-1 $305 $621 $617 $622 forward $191 $-1 #
coedge $-1 $619 $308 $305 $458 forward $463 $-1 #
edge $-1 $465 -8.3154840023957703 $623 0.41308660822996757 $457 $624 forward 7 unknown #
coedge $-1 $625 $626 $306 $460 forward $452 $-1 #
edge $-1 $627 -86.357531851933686 $464 -81.601051952884774 $459 $628 forward 7 unknown #
edge $-1 $465 132.84382703830099 $627 138.39289529099398 $307 $629 forward 7 unknown #
coedge $-1 $308 $619 $625 $630 forward $463 $-1 #
loop $-1 $-1 $619 $451 #
vertex $-1 $460 $631 #
vertex $-1 $309 $632 #
straight-curve $-1 58.272352327691152 12.266682699478672 21.944890339742358 -1 0 0 I I #
coedge $-1 $467 $467 $-1 $633 reversed $312 $-1 #
edge $-1 $634 0 $634 6.2831853071796004 $313 $635 forward 7 unknown #
vertex $-1 $316 $636 #
ellipse-curve $-1 67.767456966469581 5.2838262109780842 19.566650390217898 0.85716730853699208 0 0.51503806187062418 0.25751903093531209 0 -0.42858365426849604 1 I I #
coedge $-1 $471 $471 $-1 $637 reversed $319 $-1 #
edge $-1 $638 0 $638 6.2831853071796004 $320 $639 forward 7 unknown #
vertex $-1 $323 $640 #
ellipse-curve $-1 67.767456966469581 7.9023973941658028 19.566650390217898 0.85716730853699208 0 0.51503806187062418 0.25751903093531209 0 -0.42858365426849604 1 I I #
coedge $-1 $475 $475 $-1 $641 reversed $326 $-1 #
edge $-1 $642 0 $642 6.2831853071796004 $327 $643 forward 7 unknown #
vertex $-1 $330 $644 #
ellipse-curve $-1 67.767456966469581 10.520968577353528 19.566650390217898 0.85716730853699208 0 0.51503806187062418 0.25751903093531209 0 -0.42858365426849604 1 I I #
face $-1 $-1 $645 $68 $-1 $646 forward single #
loop $-1 $-1 $647 $331 #
plane-surface $-1 116.5447046553823 12.266682699478672 207.09188458525426 0 -1 0 -0.85716730853699208 0 -0.51503806187062418 forward_v I I I I #
coedge $-1 $337 $648 $484 $649 forward $332 $-1 #
coedge $-1 $487 $334 $650 $651 reversed $210 $-1 #
coedge $-1 $334 $487 $482 $649 reversed $210 $-1 #
coedge $-1 $652 $647 $334 $486 forward $480 $-1 #
edge $-1 $653 132.84382703830099 $654 138.39289529099398 $485 $655 forward 7 unknown #
coedge $-1 $484 $483 $335 $488 forward $210 $-1 #
edge $-1 $656 132.84382703830099 $492 138.39289529099398 $335 $657 forward 7 unknown #
coedge $-1 $650 $658 $336 $490 forward $645 $-1 #
edge $-1 $493 -10.924095317805836 $656 -8.0661139597510356 $489 $659 forward 7 unknown #
coedge $-1 $648 $337 $658 $660 reversed $332 $-1 #
vertex $-1 $338 $661 #
vertex $-1 $338 $662 #
straight-curve $-1 69.196447645496988 20.99525331010441 103.54594229262713 0 0 1 I I #
coedge $-1 $495 $495 $-1 $663 reversed $341 $-1 #
edge $-1 $664 0 $664 6.2831853071796004 $342 $665 forward 7 unknown #
vertex $-1 $345 $666 #
ellipse-curve $-1 67.767456966469581 14.012396821603822 19.566650390217898 0.85716730853699208 0 0.51503806187062418 0.25751903093531209 0 -0.42858365426849604 1 I I #
coedge $-1 $499 $499 $-1 $667 reversed $348 $-1 #
edge $-1 $668 0 $668 6.2831853071796004 $349 $669 forward 7 unknown #
vertex $-1 $352 $670 #
ellipse-curve $-1 67.767456966469581 16.630968004791541 19.566650390217898 0.85716730853699208 0 0.51503806187062418 0.25751903093531209 0 -0.42858365426849604 1 I I #
coedge $-1 $503 $503 $-1 $671 reversed $355 $-1 #
edge $-1 $672 0 $672 6.2831853071796004 $356 $673 forward 7 unknown #
vertex $-1 $359 $674 #
ellipse-curve $-1 67.767456966469581 19.249539187979266 19.566650390217898 0.85716730853699208 0 0.51503806187062418 0.25751903093531209 0 -0.42858365426849604 1 I I #
face $-1 $-1 $375 $54 $-1 $675 reversed single #
loop $-1 $-1 $523 $360 #
plane-surface $-1 0 46.758020727791262 0 0 -1 0 0 0 -1 forward_v I I I I #
coedge $-1 $676 $521 $524 $677 forward $361 $-1 #
coedge $-1 $527 $363 $364 $515 reversed $229 $-1 #
coedge $-1 $521 $676 $363 $513 reversed $361 $-1 #
edge $-1 $528 -21.944890339742361 $678 21.944890339742361 $512 $679 forward 7 unknown #
coedge $-1 $365 $364 $676 $680 forward $145 $-1 #
edge $-1 $519 -69.196447645496988 $678 69.196447645496988 $511 $681 forward 7 unknown #
coedge $-1 $524 $523 $365 $517 reversed $508 $-1 #
edge $-1 $682 -69.196447645496988 $518 69.196447645496988 $516 $683 forward 7 unknown #
vertex $-1 $367 $684 #
vertex $-1 $530 $685 #
straight-curve $-1 69.196447645496988 0 -21.944890339742361 0 -1 0 I I #
coedge $-1 $510 $512 $368 $522 reversed $361 $-1 #
edge $-1 $525 -46.758020727791262 $528 46.758020727791262 $521 $686 forward 7 unknown #
coedge $-1 $516 $369 $374 $531 forward $508 $-1 #
coedge $-1 $369 $516 $510 $677 reversed $508 $-1 #
vertex $-1 $370 $687 #
straight-curve $-1 0 46.758020727791262 21.944890339742361 -1 0 0 I I #
coedge $-1 $371 $511 $373 $530 reversed $229 $-1 #
vertex $-1 $522 $688 #
straight-curve $-1 0 -46.758020727791262 21.944890339742361 1 0 0 I I #
edge $-1 $376 -21.944890339742361 $519 21.944890339742361 $373 $689 forward 7 unknown #
edge $-1 $377 -21.944890339742361 $518 21.944890339742361 $374 $690 forward 7 unknown #
point $-1 69.196447645496988 -46.758020727791262 21.944890339742361 #
point $-1 69.196447645496988 46.758020727791262 21.944890339742361 #
face $-1 $-1 $548 $55 $-1 $691 reversed single #
loop $-1 $-1 $692 $379 #
plane-surface $-1 0 -71.29138612674862 16.448521415848457 0 1 0 0 0 1 forward_v I I I I #
coedge $-1 $693 $382 $391 $552 reversed $237 $-1 #
coedge $-1 $382 $693 $383 $540 reversed $237 $-1 #
coedge $-1 $384 $383 $694 $695 forward $149 $-1 #
edge $-1 $544 46.758020727791262 $696 71.29138612674862 $538 $697 forward 7 unknown #
coedge $-1 $698 $388 $384 $542 reversed $548 $-1 #
edge $-1 $699 -71.29138612674862 $543 -46.758020727791262 $541 $700 forward 7 unknown #
vertex $-1 $389 $701 #
vertex $-1 $540 $702 #
straight-curve $-1 0 -46.758020727791262 21.944890339742361 -1 0 0 I I #
straight-curve $-1 -69.196447645496988 -46.758020727791262 0 0 0 -1 I I #
coedge $-1 $388 $698 $390 $551 reversed $548 $-1 #
loop $-1 $-1 $388 $534 #
straight-curve $-1 69.196447645496988 -46.758020727791262 0 0 0 1 I I #
coedge $-1 $391 $390 $703 $704 forward $380 $-1 #
edge $-1 $392 -12.266682699478679 $705 12.266682699478679 $547 $706 forward 7 unknown #
edge $-1 $707 -12.266682699478679 $393 12.266682699478679 $537 $708 forward 7 unknown #
point $-1 69.196447645496988 -46.758020727791262 10.952152491954553 #
point $-1 -69.196447645496988 -46.758020727791262 10.952152491954553 #
loop $-1 $-1 $403 $395 #
plane-surface $-1 -69.196447645496988 0 0 1 0 0 0 0 -1 forward_v I I I I #
coedge $-1 $558 $398 $400 $562 reversed $245 $-1 #
coedge $-1 $398 $557 $709 $710 reversed $245 $-1 #
coedge $-1 $406 $401 $398 $560 forward $396 $-1 #
edge $-1 $563 -27.572690323917854 $711 -24.714708965863053 $559 $712 forward 7 unknown #
coedge $-1 $400 $399 $566 $713 reversed $153 $-1 #
edge $-1 $714 5.4226772426865094e-014 $563 5.5490682526930355 $557 $715 forward 7 unknown #
vertex $-1 $402 $716 #
straight-curve $-1 -66.338466287442188 3.9511986970829014 21.944890339742361 0 1 0 I I #
coedge $-1 $709 $403 $406 $570 reversed $555 $-1 #
coedge $-1 $403 $709 $561 $713 forward $555 $-1 #
vertex $-1 $404 $717 #
straight-curve $-1 -69.196447645496988 3.5381120888529338 44.233009504015584 0 0 1 I I #
straight-curve $-1 -69.196447645497017 3.5381120888529338 17.188410440693403 -0.51503806187062418 0 -0.85716730853699208 I I #
edge $-1 $711 -12.266682699478672 $407 -3.5381120888529338 $565 $718 forward 7 unknown #
point $-1 -69.196447645496988 3.5381120888529338 21.944890339742361 #
point $-1 -66.338466287442188 3.5381120888529338 21.944890339742361 #
edge $-1 $719 1 $719 0 $410 $-1 forward 7 unknown #
vertex $-1 $411 $720 #
ellipse-curve $-1 -66.159931459804127 5.2838262109780842 18.600751652463078 -0.85716730853699208 0 0.51503806187062418 0.25751903093531209 0 0.42858365426849604 1 I I #
point $-1 -67.509937935534268 5.2838262109780842 19.995234044486381 #
edge $-1 $721 1 $721 0 $414 $-1 forward 7 unknown #
vertex $-1 $415 $722 #
ellipse-curve $-1 -66.159931459804127 7.9023973941658028 18.600751652463078 -0.85716730853699208 0 0.51503806187062418 0.25751903093531209 0 0.42858365426849604 1 I I #
point $-1 -67.509937935534268 7.9023973941658028 19.995234044486381 #
edge $-1 $723 1 $723 0 $418 $-1 forward 7 unknown #
vertex $-1 $419 $724 #
ellipse-curve $-1 -66.159931459804127 10.520968577353528 18.600751652463078 -0.85716730853699208 0 0.51503806187062418 0.25751903093531209 0 0.42858365426849604 1 I I #
point $-1 -67.509937935534268 10.520968577353528 19.995234044486381 #
loop $-1 $-1 $431 $422 #
plane-surface $-1 -69.196447645496988 0 0 1 0 0 0 0 -1 forward_v I I I I #
coedge $-1 $425 $591 $434 $599 forward $274 $-1 #
edge $-1 $596 5.4226772426865094e-014 $592 5.5490682526930355 $426 $725 forward 7 unknown #
coedge $-1 $431 $726 $427 $590 forward $585 $-1 #
edge $-1 $593 22.288119164273223 $596 27.044599063322135 $589 $727 forward 7 unknown #
coedge $-1 $587 $428 $726 $728 forward $274 $-1 #
vertex $-1 $429 $729 #
vertex $-1 $728 $730 #
straight-curve $-1 -93.911156611360042 20.99525331010441 21.944890339742358 -1 0 0 I I #
coedge $-1 $726 $431 $435 $600 forward $585 $-1 #
vertex $-1 $590 $731 #
straight-curve $-1 -69.196447645496988 3.9511986970829014 17.188410440693442 0 -1 0 I I #
straight-curve $-1 -66.338466287442188 3.9511986970829014 21.944890339742361 0 1 0 I I #
edge $-1 $732 24.714708965863053 $437 27.572690323917854 $587 $733 forward 7 unknown #
edge $-1 $436 -27.044599063322135 $732 -22.288119164273223 $595 $734 forward 7 unknown #
point $-1 -69.196447645496988 12.266682699478672 17.188410440693449 #
point $-1 -66.338466287442188 12.266682699478672 21.944890339742361 #
edge $-1 $735 1 $735 0 $439 $-1 forward 7 unknown #
vertex $-1 $440 $736 #
ellipse-curve $-1 -66.159931459804127 14.012396821603822 18.600751652463078 -0.85716730853699208 0 0.51503806187062418 0.25751903093531209 0 0.42858365426849604 1 I I #
point $-1 -67.509937935534268 14.012396821603822 19.995234044486381 #
edge $-1 $737 1 $737 0 $443 $-1 forward 7 unknown #
vertex $-1 $444 $738 #
ellipse-curve $-1 -66.159931459804127 16.630968004791541 18.600751652463078 -0.85716730853699208 0 0.51503806187062418 0.25751903093531209 0 0.42858365426849604 1 I I #
point $-1 -67.509937935534268 16.630968004791541 19.995234044486381 #
edge $-1 $739 1 $739 0 $447 $-1 forward 7 unknown #
vertex $-1 $448 $740 #
ellipse-curve $-1 -66.159931459804127 19.249539187979266 18.600751652463078 -0.85716730853699208 0 0.51503806187062418 0.25751903093531209 0 0.42858365426849604 1 I I #
point $-1 -67.509937935534268 19.249539187979266 19.995234044486381 #
plane-surface $-1 0 0 21.944890339742361 0 0 1 1 0 0 forward_v I I I I #
coedge $-1 $626 $625 $618 $741 forward $452 $-1 #
coedge $-1 $618 $454 $456 $622 reversed $303 $-1 #
coedge $-1 $454 $617 $616 $741 reversed $303 $-1 #
coedge $-1 $462 $457 $454 $620 forward $463 $-1 #
edge $-1 $623 8.0661139597510356 $742 10.924095317805836 $619 $743 forward 7 unknown #
coedge $-1 $456 $455 $626 $744 reversed $191 $-1 #
edge $-1 $745 -138.39289529099398 $623 -132.84382703830099 $617 $746 forward 7 unknown #
vertex $-1 $458 $747 #
straight-curve $-1 66.338466287442174 3.9511986970829014 21.944890339742358 0 -1 0 I I #
coedge $-1 $616 $459 $462 $630 reversed $452 $-1 #
coedge $-1 $459 $616 $621 $744 forward $452 $-1 #
vertex $-1 $460 $748 #
straight-curve $-1 69.196447645496988 12.266682699478672 103.54594229262713 0 0 1 I I #
straight-curve $-1 -2.0811609218407625 12.266682699478672 135.81427601791648 0.51503806187062418 0 -0.85716730853699208 I I #
edge $-1 $742 3.5381120888529338 $464 12.266682699478672 $625 $749 forward 7 unknown #
point $-1 69.196447645496988 12.266682699478672 21.944890339742361 #
point $-1 66.338466287442188 12.266682699478672 21.944890339742372 #
edge $-1 $750 1 $750 0 $467 $-1 forward 7 unknown #
vertex $-1 $468 $751 #
ellipse-curve $-1 66.159931459804113 5.2838262109780842 18.600751652463078 0.85716730853699208 0 0.51503806187062418 0.25751903093531209 0 -0.42858365426849604 1 I I #
point $-1 68.02497599740488 5.2838262109780842 19.138066735949391 #
edge $-1 $752 1 $752 0 $471 $-1 forward 7 unknown #
vertex $-1 $472 $753 #
ellipse-curve $-1 66.159931459804113 7.9023973941658028 18.600751652463078 0.85716730853699208 0 0.51503806187062418 0.25751903093531209 0 -0.42858365426849604 1 I I #
point $-1 68.02497599740488 7.9023973941658028 19.138066735949391 #
edge $-1 $754 1 $754 0 $475 $-1 forward 7 unknown #
vertex $-1 $476 $755 #
ellipse-curve $-1 66.159931459804113 10.520968577353528 18.600751652463078 0.85716730853699208 0 0.51503806187062418 0.25751903093531209 0 -0.42858365426849604 1 I I #
point $-1 68.02497599740488 10.520968577353528 19.138066735949391 #
loop $-1 $-1 $650 $479 #
plane-surface $-1 0 0 21.944890339742361 0 0 1 1 0 0 forward_v I I I I #
coedge $-1 $485 $652 $756 $757 reversed $480 $-1 #
coedge $-1 $482 $491 $652 $758 forward $332 $-1 #
edge $-1 $654 8.3154840023957703 $492 17.044054613021508 $482 $759 forward 7 unknown #
coedge $-1 $756 $489 $483 $651 forward $645 $-1 #
edge $-1 $656 -17.044054613021508 $653 -8.3154840023957703 $650 $760 forward 7 unknown #
coedge $-1 $647 $485 $648 $758 reversed $480 $-1 #
vertex $-1 $651 $761 #
vertex $-1 $649 $762 #
straight-curve $-1 -2.0811609218407625 12.266682699478672 135.81427601791648 0.51503806187062418 0 -0.85716730853699208 I I #
vertex $-1 $490 $763 #
straight-curve $-1 -2.0811609218407625 20.99525331010441 135.81427601791648 0.51503806187062418 0 -0.85716730853699208 I I #
coedge $-1 $489 $756 $491 $660 forward $645 $-1 #
straight-curve $-1 58.272352327691152 20.99525331010441 21.944890339742358 -1 0 0 I I #
edge $-1 $764 12.266682699478672 $493 20.99525331010441 $491 $765 forward 7 unknown #
point $-1 69.196447645496988 20.99525331010441 17.188410440693445 #
point $-1 69.196447645496988 20.99525331010441 21.944890339742361 #
edge $-1 $766 1 $766 0 $495 $-1 forward 7 unknown #
vertex $-1 $496 $767 #
ellipse-curve $-1 66.159931459804113 14.012396821603822 18.600751652463078 0.85716730853699208 0 0.51503806187062418 0.25751903093531209 0 -0.42858365426849604 1 I I #
point $-1 68.02497599740488 14.012396821603822 19.138066735949391 #
edge $-1 $768 1 $768 0 $499 $-1 forward 7 unknown #
vertex $-1 $500 $769 #
ellipse-curve $-1 66.159931459804113 16.630968004791541 18.600751652463078 0.85716730853699208 0 0.51503806187062418 0.25751903093531209 0 -0.42858365426849604 1 I I #
point $-1 68.02497599740488 16.630968004791541 19.138066735949391 #
edge $-1 $770 1 $770 0 $503 $-1 forward 7 unknown #
vertex $-1 $504 $771 #
ellipse-curve $-1 66.159931459804113 19.249539187979266 18.600751652463078 0.85716730853699208 0 0.51503806187062418 0.25751903093531209 0 -0.42858365426849604 1 I I #
point $-1 68.02497599740488 19.249539187979266 19.138066735949391 #
plane-surface $-1 69.196447645496988 0 0 -1 0 0 0 0 1 forward_v I I I I #
coedge $-1 $512 $510 $514 $680 reversed $361 $-1 #
edge $-1 $525 -21.944890339742361 $682 21.944890339742361 $524 $772 forward 7 unknown #
vertex $-1 $680 $773 #
straight-curve $-1 -69.196447645496988 -46.758020727791262 0 0 0 -1 I I #
edge $-1 $678 -46.758020727791262 $682 46.758020727791262 $676 $774 forward 7 unknown #
straight-curve $-1 0 -46.758020727791262 -21.944890339742361 -1 0 0 I I #
vertex $-1 $517 $775 #
straight-curve $-1 0 46.758020727791262 -21.944890339742361 1 0 0 I I #
point $-1 69.196447645496988 46.758020727791262 -21.944890339742361 #
point $-1 69.196447645496988 -46.758020727791262 -21.944890339742361 #
straight-curve $-1 -69.196447645496988 0 21.944890339742361 0 -1 0 I I #
point $-1 -69.196447645496988 46.758020727791262 21.944890339742361 #
point $-1 -69.196447645496988 -46.758020727791262 21.944890339742361 #
straight-curve $-1 69.196447645496988 -46.758020727791262 0 0 0 -1 I I #
straight-curve $-1 69.196447645496988 46.758020727791262 0 0 0 -1 I I #
plane-surface $-1 69.196447645496988 0 0 -1 0 0 0 0 1 forward_v I I I I #
coedge $-1 $703 $694 $693 $776 forward $535 $-1 #
coedge $-1 $538 $537 $692 $776 reversed $237 $-1 #
coedge $-1 $692 $777 $539 $695 reversed $535 $-1 #
edge $-1 $696 -69.196447645496988 $699 69.196447645496988 $694 $778 forward 7 unknown #
vertex $-1 $540 $779 #
straight-curve $-1 -69.196447645496988 0 21.944890339742361 0 -1 0 I I #
coedge $-1 $547 $541 $777 $780 forward $548 $-1 #
vertex $-1 $542 $781 #
straight-curve $-1 69.196447645496988 0 21.944890339742361 0 1 0 I I #
point $-1 69.196447645496988 -46.758020727791262 21.944890339742361 #
point $-1 -69.196447645496988 -46.758020727791262 21.944890339742361 #
coedge $-1 $777 $692 $550 $704 reversed $535 $-1 #
edge $-1 $705 -69.196447645496988 $707 69.196447645496988 $703 $782 forward 7 unknown #
vertex $-1 $780 $783 #
straight-curve $-1 69.196447645496988 -59.024703427269941 10.952152491954553 0 -1 0 I I #
vertex $-1 $552 $784 #
straight-curve $-1 -69.196447645496988 -59.024703427269941 10.952152491954553 0 1 0 I I #
coedge $-1 $566 $565 $558 $710 forward $555 $-1 #
edge $-1 $711 22.288119164273223 $714 27.044599063322135 $709 $785 forward 7 unknown #
vertex $-1 $570 $786 #
straight-curve $-1 -93.911156611360042 12.266682699478672 21.944890339742358 -1 0 0 I I #
edge $-1 $714 -8.3154840023957703 $567 0.41308660822996757 $566 $787 forward 7 unknown #
vertex $-1 $713 $788 #
straight-curve $-1 -69.196447645497017 12.266682699478672 17.188410440693403 0.51503806187062418 0 0.85716730853699208 I I #
point $-1 -66.338466287442188 12.266682699478672 21.944890339742361 #
point $-1 -69.196447645496988 3.5381120888529338 17.188410440693449 #
straight-curve $-1 -69.196447645496988 0 21.944890339742361 0 -1 0 I I #
vertex $-1 $573 $789 #
point $-1 -65.902412428868814 5.2838262109780842 19.029335306731575 #
vertex $-1 $577 $790 #
point $-1 -65.902412428868814 7.9023973941658028 19.029335306731575 #
vertex $-1 $581 $791 #
point $-1 -65.902412428868814 10.520968577353528 19.029335306731575 #
straight-curve $-1 -69.196447645497017 20.99525331010441 17.188410440693403 0.51503806187062418 0 0.85716730853699208 I I #
coedge $-1 $589 $595 $591 $728 reversed $585 $-1 #
straight-curve $-1 -69.196447645496988 20.99525331010441 44.233009504015584 0 0 -1 I I #
edge $-1 $593 -20.99525331010441 $732 -12.266682699478672 $726 $792 forward 7 unknown #
point $-1 -66.338466287442188 20.99525331010441 21.944890339742361 #
point $-1 -69.196447645496988 20.99525331010441 21.944890339742361 #
point $-1 -69.196447645496988 20.99525331010441 17.188410440693449 #
vertex $-1 $600 $793 #
straight-curve $-1 -93.911156611360042 12.266682699478672 21.944890339742358 1 0 0 I I #
straight-curve $-1 -69.196447645496988 12.266682699478672 44.233009504015584 0 0 1 I I #
vertex $-1 $603 $794 #
point $-1 -65.902412428868814 14.012396821603822 19.029335306731575 #
vertex $-1 $607 $795 #
point $-1 -65.902412428868814 16.630968004791541 19.029335306731575 #
vertex $-1 $611 $796 #
point $-1 -65.902412428868814 19.249539187979266 19.029335306731575 #
edge $-1 $742 81.601051952884774 $745 86.357531851933686 $616 $797 forward 7 unknown #
vertex $-1 $630 $798 #
straight-curve $-1 58.272352327691152 3.5381120888529338 21.944890339742358 1 0 0 I I #
edge $-1 $745 -0.41308660822996757 $627 8.3154840023957703 $626 $799 forward 7 unknown #
vertex $-1 $744 $800 #
straight-curve $-1 -2.0811609218407625 3.5381120888529338 135.81427601791648 -0.51503806187062418 0 0.85716730853699208 I I #
point $-1 66.338466287442188 3.5381120888529338 21.944890339742372 #
point $-1 69.196447645496988 12.266682699478672 17.188410440693445 #
straight-curve $-1 69.196447645496988 0 21.944890339742361 0 1 0 I I #
vertex $-1 $633 $801 #
point $-1 66.417450490739427 5.2838262109780842 18.172167998194581 #
vertex $-1 $637 $802 #
point $-1 66.417450490739427 7.9023973941658028 18.172167998194581 #
vertex $-1 $641 $803 #
point $-1 66.417450490739427 10.520968577353528 18.172167998194581 #
coedge $-1 $658 $650 $647 $757 forward $645 $-1 #
edge $-1 $653 8.0661139597510356 $764 10.924095317805836 $756 $804 forward 7 unknown #
edge $-1 $764 81.601051952884774 $654 86.357531851933686 $648 $805 forward 7 unknown #
straight-curve $-1 69.196447645496988 3.9511986970829014 17.188410440693424 0 1 0 I I #
straight-curve $-1 66.338466287442174 3.9511986970829014 21.944890339742358 0 -1 0 I I #
point $-1 66.338466287442188 12.266682699478672 21.944890339742372 #
point $-1 69.196447645496988 12.266682699478672 17.188410440693445 #
point $-1 66.338466287442188 20.99525331010441 21.944890339742372 #
vertex $-1 $660 $806 #
straight-curve $-1 69.196447645496988 0 21.944890339742361 0 1 0 I I #
vertex $-1 $663 $807 #
point $-1 66.417450490739427 14.012396821603822 18.172167998194581 #
vertex $-1 $667 $808 #
point $-1 66.417450490739427 16.630968004791541 18.172167998194581 #
vertex $-1 $671 $809 #
point $-1 66.417450490739427 19.249539187979266 18.172167998194581 #
straight-curve $-1 -69.196447645496988 46.758020727791262 0 0 0 -1 I I #
point $-1 -69.196447645496988 -46.758020727791262 -21.944890339742361 #
straight-curve $-1 -69.196447645496988 0 -21.944890339742361 0 1 0 I I #
point $-1 -69.196447645496988 46.758020727791262 -21.944890339742361 #
edge $-1 $696 -5.496368923893904 $707 5.496368923893904 $693 $810 forward 7 unknown #
coedge $-1 $694 $703 $698 $780 reversed $535 $-1 #
straight-curve $-1 0 -71.29138612674862 21.944890339742361 1 0 0 I I #
point $-1 -69.196447645496988 -71.29138612674862 21.944890339742361 #
edge $-1 $699 -5.496368923893904 $705 5.496368923893904 $698 $811 forward 7 unknown #
point $-1 69.196447645496988 -71.29138612674862 21.944890339742361 #
straight-curve $-1 0 -71.29138612674862 10.952152491954553 -1 0 0 I I #
point $-1 69.196447645496988 -71.29138612674862 10.952152491954553 #
point $-1 -69.196447645496988 -71.29138612674862 10.952152491954553 #
straight-curve $-1 -69.196447645496988 12.266682699478672 44.233009504015584 0 0 -1 I I #
point $-1 -69.196447645496988 12.266682699478672 21.944890339742361 #
straight-curve $-1 -69.196447645496988 3.9511986970829014 17.188410440693442 0 -1 0 I I #
point $-1 -69.196447645496988 12.266682699478672 17.188410440693449 #
point $-1 -65.731347805535634 5.2838262109780842 18.343232621527765 #
point $-1 -65.731347805535634 7.9023973941658028 18.343232621527765 #
point $-1 -65.731347805535634 10.520968577353528 18.343232621527765 #
straight-curve $-1 -69.196447645496988 0 21.944890339742361 0 -1 0 I I #
point $-1 -69.196447645496988 12.266682699478672 21.944890339742361 #
point $-1 -65.731347805535634 14.012396821603822 18.343232621527765 #
point $-1 -65.731347805535634 16.630968004791541 18.343232621527765 #
point $-1 -65.731347805535634 19.249539187979266 18.343232621527765 #
straight-curve $-1 69.196447645496988 3.5381120888529338 103.54594229262713 0 0 -1 I I #
point $-1 69.196447645496988 3.5381120888529338 21.944890339742361 #
straight-curve $-1 69.196447645496988 3.9511986970829014 17.188410440693424 0 1 0 I I #
point $-1 69.196447645496988 3.5381120888529338 17.188410440693445 #
point $-1 65.73134780553562 5.2838262109780842 18.343232621527765 #
point $-1 65.73134780553562 7.9023973941658028 18.343232621527765 #
point $-1 65.73134780553562 10.520968577353528 18.343232621527765 #
straight-curve $-1 58.272352327691152 12.266682699478672 21.944890339742358 1 0 0 I I #
straight-curve $-1 69.196447645496988 12.266682699478672 103.54594229262713 0 0 -1 I I #
point $-1 69.196447645496988 12.266682699478672 21.944890339742361 #
point $-1 65.73134780553562 14.012396821603822 18.343232621527765 #
point $-1 65.73134780553562 16.630968004791541 18.343232621527765 #
point $-1 65.73134780553562 19.249539187979266 18.343232621527765 #
straight-curve $-1 -69.196447645496988 -71.29138612674862 16.448521415848457 0 0 -1 I I #
straight-curve $-1 69.196447645496988 -71.29138612674862 16.448521415848457 0 0 -1 I I #
End-of-ACIS-data 