500 0 3 0           
7 Unknown 11 ACIS 5.0 NT 24 Thu Mar 25 15:27:11 1999 
-1 9.9999999999999995e-007 1e-010 
body $-1 $3 $-1 $4 #
body $-1 $5 $-1 $6 #
body $-1 $7 $-1 $8 #
lump $-1 $-1 $9 $0 #
transform $-1 1 0 0 0 1 0 0 0 1 64.872585222937715 36.350782052149803 12.355183409924546 1 rotate no_reflect no_shear #
lump $-1 $-1 $10 $1 #
transform $-1 1 0 0 0 1 0 0 0 1 64.872585222937715 36.350782052149803 12.355183409924546 1 rotate no_reflect no_shear #
lump $-1 $-1 $11 $2 #
transform $-1 1 0 0 0 1 0 0 0 1 64.872585222937715 36.350782052149803 12.355183409924546 1 rotate no_reflect no_shear #
shell $-1 $-1 $-1 $12 $-1 $3 #
shell $-1 $-1 $-1 $13 $-1 $5 #
shell $-1 $-1 $-1 $14 $-1 $7 #
face $-1 $15 $16 $9 $-1 $17 forward single #
face $-1 $18 $19 $10 $-1 $20 reversed single #
face $-1 $21 $22 $11 $-1 $23 reversed single #
face $-1 $24 $25 $9 $-1 $26 reversed single #
loop $-1 $-1 $27 $12 #
plane-surface $-1 0 0 12.355183409924546 0 0 1 1 0 0 forward_v I I I I #
face $-1 $28 $29 $10 $-1 $30 reversed single #
loop $-1 $-1 $31 $13 #
plane-surface $-1 -58.337003520934196 -31.763071350878651 0 0 -1 0 0 0 -1 forward_v I I I I #
face $-1 $32 $33 $11 $-1 $34 reversed single #
loop $-1 $-1 $35 $14 #
plane-surface $-1 51.80142181893067 -34.056926701514229 0 1 0 0 0 0 -1 forward_v I I I I #
face $-1 $36 $37 $9 $-1 $38 reversed single #
loop $-1 $-1 $39 $15 #
plane-surface $-1 0 0 -12.355183409924546 0 0 1 1 0 0 forward_v I I I I #
coedge $-1 $40 $41 $42 $43 forward $16 $-1 #
face $-1 $44 $45 $10 $-1 $46 forward single #
loop $-1 $-1 $47 $18 #
plane-surface $-1 -51.801421818930677 -34.056926701514229 0 -1 0 0 0 0 1 forward_v I I I I #
coedge $-1 $48 $49 $50 $51 forward $19 $-1 #
face $-1 $52 $53 $11 $-1 $54 forward single #
loop $-1 $-1 $55 $21 #
plane-surface $-1 58.337003520934189 -31.763071350878651 0 0 -1 0 0 0 -1 forward_v I I I I #
coedge $-1 $56 $57 $58 $59 forward $22 $-1 #
face $-1 $60 $61 $9 $-1 $62 reversed single #
loop $-1 $-1 $63 $24 #
plane-surface $-1 0 -36.350782052149803 0 0 1 0 0 0 1 forward_v I I I I #
coedge $-1 $64 $65 $66 $67 forward $25 $-1 #
coedge $-1 $68 $27 $69 $70 forward $16 $-1 #
coedge $-1 $27 $68 $71 $72 forward $16 $-1 #
coedge $-1 $73 $74 $27 $43 reversed $75 $-1 #
edge $-1 $76 -36.350782052149803 $77 36.350782052149803 $42 $78 forward 7 unknown #
face $-1 $79 $80 $10 $-1 $81 reversed single #
loop $-1 $-1 $82 $28 #
plane-surface $-1 0 0 12.355183409924546 0 0 1 1 0 0 forward_v I I I I #
coedge $-1 $83 $84 $85 $86 reversed $29 $-1 #
coedge $-1 $87 $31 $88 $89 reversed $19 $-1 #
coedge $-1 $31 $87 $90 $91 reversed $19 $-1 #
coedge $-1 $84 $83 $31 $51 reversed $29 $-1 #
edge $-1 $92 -12.355183409924546 $93 12.355183409924546 $50 $94 forward 7 unknown #
face $-1 $95 $96 $11 $-1 $97 reversed single #
loop $-1 $-1 $98 $32 #
plane-surface $-1 0 0 12.355183409924546 0 0 1 1 0 0 forward_v I I I I #
coedge $-1 $99 $100 $101 $102 reversed $33 $-1 #
coedge $-1 $103 $35 $104 $105 reversed $22 $-1 #
coedge $-1 $35 $103 $106 $107 reversed $22 $-1 #
coedge $-1 $100 $99 $35 $59 reversed $33 $-1 #
edge $-1 $108 -12.355183409924546 $109 12.355183409924546 $58 $110 forward 7 unknown #
face $-1 $111 $112 $9 $-1 $113 reversed single #
loop $-1 $-1 $114 $36 #
plane-surface $-1 -64.872585222937715 0 0 1 0 0 0 0 -1 forward_v I I I I #
coedge $-1 $115 $71 $116 $117 forward $37 $-1 #
coedge $-1 $118 $39 $115 $119 forward $25 $-1 #
coedge $-1 $39 $118 $120 $121 forward $25 $-1 #
coedge $-1 $74 $73 $39 $67 reversed $75 $-1 #
edge $-1 $122 -36.350782052149803 $123 36.350782052149803 $66 $124 forward 7 unknown #
coedge $-1 $41 $40 $125 $126 forward $16 $-1 #
coedge $-1 $127 $128 $40 $70 reversed $112 $-1 #
edge $-1 $77 -64.872585222937715 $129 64.872585222937715 $69 $130 forward 7 unknown #
coedge $-1 $63 $131 $41 $72 reversed $37 $-1 #
edge $-1 $132 -64.872585222937715 $76 64.872585222937715 $71 $133 forward 7 unknown #
coedge $-1 $66 $42 $131 $134 forward $75 $-1 #
coedge $-1 $42 $66 $127 $135 reversed $75 $-1 #
loop $-1 $-1 $73 $111 #
vertex $-1 $43 $136 #
vertex $-1 $43 $137 #
straight-curve $-1 64.872585222937715 0 12.355183409924546 0 1 0 I I #
face $-1 $138 $139 $10 $-1 $140 reversed single #
loop $-1 $-1 $141 $44 #
plane-surface $-1 -64.872585222937715 0 0 1 0 0 0 0 -1 forward_v I I I I #
coedge $-1 $90 $142 $84 $143 forward $45 $-1 #
coedge $-1 $50 $47 $144 $145 reversed $29 $-1 #
coedge $-1 $47 $50 $82 $143 reversed $29 $-1 #
coedge $-1 $146 $147 $47 $86 forward $148 $-1 #
edge $-1 $149 -12.355183409924546 $150 12.355183409924546 $85 $151 forward 7 unknown #
coedge $-1 $49 $48 $141 $152 reversed $19 $-1 #
coedge $-1 $144 $153 $48 $89 forward $139 $-1 #
edge $-1 $154 -35.704083462470621 $93 -22.632920058463579 $88 $155 forward 7 unknown #
coedge $-1 $156 $82 $49 $91 forward $45 $-1 #
edge $-1 $92 22.632920058463579 $157 35.704083462470621 $90 $158 forward 7 unknown #
vertex $-1 $91 $159 #
vertex $-1 $89 $160 #
straight-curve $-1 -51.801421818930677 -31.763071350878651 0 0 0 -1 I I #
face $-1 $161 $162 $11 $-1 $163 reversed single #
loop $-1 $-1 $164 $52 #
plane-surface $-1 0 -36.350782052149803 0 0 1 0 0 0 1 forward_v I I I I #
coedge $-1 $106 $165 $100 $166 forward $53 $-1 #
coedge $-1 $58 $55 $167 $168 reversed $33 $-1 #
coedge $-1 $55 $58 $98 $166 reversed $33 $-1 #
coedge $-1 $169 $170 $55 $102 forward $171 $-1 #
edge $-1 $172 -12.355183409924546 $173 12.355183409924546 $101 $174 forward 7 unknown #
coedge $-1 $57 $56 $164 $175 reversed $22 $-1 #
coedge $-1 $167 $176 $56 $105 forward $162 $-1 #
edge $-1 $177 -19.322318701392689 $109 -14.734608000121536 $104 $178 forward 7 unknown #
coedge $-1 $179 $98 $57 $107 forward $53 $-1 #
edge $-1 $108 14.734608000121536 $180 19.322318701392689 $106 $181 forward 7 unknown #
vertex $-1 $107 $182 #
vertex $-1 $105 $183 #
straight-curve $-1 51.80142181893067 -31.763071350878651 0 0 0 -1 I I #
face $-1 $-1 $75 $9 $-1 $184 reversed single #
loop $-1 $-1 $127 $60 #
plane-surface $-1 0 36.350782052149803 0 0 -1 0 0 0 -1 forward_v I I I I #
coedge $-1 $185 $125 $128 $186 forward $61 $-1 #
coedge $-1 $131 $63 $64 $119 reversed $37 $-1 #
coedge $-1 $125 $185 $63 $117 reversed $61 $-1 #
edge $-1 $132 -12.355183409924546 $187 12.355183409924546 $116 $188 forward 7 unknown #
coedge $-1 $65 $64 $185 $189 forward $25 $-1 #
edge $-1 $123 -64.872585222937715 $187 64.872585222937715 $115 $190 forward 7 unknown #
coedge $-1 $128 $127 $65 $121 reversed $112 $-1 #
edge $-1 $191 -64.872585222937715 $122 64.872585222937715 $120 $192 forward 7 unknown #
vertex $-1 $67 $193 #
vertex $-1 $134 $194 #
straight-curve $-1 64.872585222937715 0 -12.355183409924546 0 -1 0 I I #
coedge $-1 $114 $116 $68 $126 reversed $61 $-1 #
edge $-1 $129 -36.350782052149803 $132 36.350782052149803 $125 $195 forward 7 unknown #
coedge $-1 $120 $69 $74 $135 forward $112 $-1 #
coedge $-1 $69 $120 $114 $186 reversed $112 $-1 #
vertex $-1 $70 $196 #
straight-curve $-1 0 36.350782052149803 12.355183409924546 -1 0 0 I I #
coedge $-1 $71 $115 $73 $134 reversed $37 $-1 #
vertex $-1 $126 $197 #
straight-curve $-1 0 -36.350782052149803 12.355183409924546 1 0 0 I I #
edge $-1 $76 -12.355183409924546 $123 12.355183409924546 $73 $198 forward 7 unknown #
edge $-1 $77 -12.355183409924546 $122 12.355183409924546 $74 $199 forward 7 unknown #
point $-1 64.872585222937715 -36.350782052149803 12.355183409924546 #
point $-1 64.872585222937715 36.350782052149803 12.355183409924546 #
face $-1 $-1 $148 $10 $-1 $200 reversed single #
loop $-1 $-1 $144 $79 #
plane-surface $-1 0 0 -12.355183409924546 0 0 1 1 0 0 forward_v I I I I #
coedge $-1 $201 $202 $87 $152 forward $80 $-1 #
coedge $-1 $82 $156 $146 $203 forward $45 $-1 #
edge $-1 $150 -19.322318701392689 $92 -14.734608000121536 $82 $204 forward 7 unknown #
coedge $-1 $205 $88 $83 $145 forward $139 $-1 #
edge $-1 $93 14.734608000121536 $149 19.322318701392689 $144 $206 forward 7 unknown #
coedge $-1 $207 $85 $142 $203 reversed $148 $-1 #
coedge $-1 $85 $207 $205 $208 reversed $148 $-1 #
loop $-1 $-1 $85 $138 #
vertex $-1 $208 $209 #
vertex $-1 $86 $210 #
straight-curve $-1 -51.801421818930677 -36.350782052149803 0 0 0 1 I I #
edge $-1 $157 -12.355183409924546 $154 12.355183409924546 $141 $211 forward 7 unknown #
coedge $-1 $88 $205 $201 $212 forward $139 $-1 #
vertex $-1 $89 $213 #
straight-curve $-1 -29.168501760467098 -31.763071350878651 -12.355183409924546 1 0 0 I I #
coedge $-1 $142 $90 $202 $214 forward $45 $-1 #
vertex $-1 $214 $215 #
straight-curve $-1 -29.168501760467098 -31.763071350878651 12.355183409924546 -1 0 0 I I #
point $-1 -51.801421818930677 -31.763071350878651 12.355183409924546 #
point $-1 -51.801421818930677 -31.763071350878651 -12.355183409924546 #
face $-1 $-1 $171 $11 $-1 $216 reversed single #
loop $-1 $-1 $167 $95 #
plane-surface $-1 0 0 -12.355183409924546 0 0 1 1 0 0 forward_v I I I I #
coedge $-1 $217 $218 $103 $175 forward $96 $-1 #
coedge $-1 $98 $179 $169 $219 forward $53 $-1 #
edge $-1 $173 -35.704083462470621 $108 -22.632920058463576 $98 $220 forward 7 unknown #
coedge $-1 $221 $104 $99 $168 forward $162 $-1 #
edge $-1 $109 22.632920058463576 $172 35.704083462470621 $167 $222 forward 7 unknown #
coedge $-1 $223 $101 $165 $219 reversed $171 $-1 #
coedge $-1 $101 $223 $221 $224 reversed $171 $-1 #
loop $-1 $-1 $101 $161 #
vertex $-1 $224 $225 #
vertex $-1 $102 $226 #
straight-curve $-1 64.872585222937715 -31.763071350878651 0 0 0 1 I I #
edge $-1 $180 -12.355183409924546 $177 12.355183409924546 $164 $227 forward 7 unknown #
coedge $-1 $104 $221 $217 $228 forward $162 $-1 #
vertex $-1 $105 $229 #
straight-curve $-1 51.80142181893067 -17.028463350757114 -12.355183409924546 0 1 0 I I #
coedge $-1 $165 $106 $218 $230 forward $53 $-1 #
vertex $-1 $230 $231 #
straight-curve $-1 51.80142181893067 -17.028463350757114 12.355183409924546 0 -1 0 I I #
point $-1 51.80142181893067 -31.763071350878651 12.355183409924546 #
point $-1 51.80142181893067 -31.763071350878651 -12.355183409924546 #
plane-surface $-1 64.872585222937715 0 0 -1 0 0 0 0 1 forward_v I I I I #
coedge $-1 $116 $114 $118 $189 reversed $61 $-1 #
edge $-1 $129 -12.355183409924546 $191 12.355183409924546 $128 $232 forward 7 unknown #
vertex $-1 $189 $233 #
straight-curve $-1 -64.872585222937715 -36.350782052149803 0 0 0 -1 I I #
edge $-1 $187 -36.350782052149803 $191 36.350782052149803 $185 $234 forward 7 unknown #
straight-curve $-1 0 -36.350782052149803 -12.355183409924546 -1 0 0 I I #
vertex $-1 $121 $235 #
straight-curve $-1 0 36.350782052149803 -12.355183409924546 1 0 0 I I #
point $-1 64.872585222937715 36.350782052149803 -12.355183409924546 #
point $-1 64.872585222937715 -36.350782052149803 -12.355183409924546 #
straight-curve $-1 -64.872585222937715 0 12.355183409924546 0 -1 0 I I #
point $-1 -64.872585222937715 36.350782052149803 12.355183409924546 #
point $-1 -64.872585222937715 -36.350782052149803 12.355183409924546 #
straight-curve $-1 64.872585222937715 -36.350782052149803 0 0 0 -1 I I #
straight-curve $-1 64.872585222937715 36.350782052149803 0 0 0 -1 I I #
plane-surface $-1 0 -36.350782052149803 0 0 1 0 0 0 1 forward_v I I I I #
coedge $-1 $236 $141 $153 $212 reversed $80 $-1 #
coedge $-1 $141 $236 $156 $214 reversed $80 $-1 #
edge $-1 $237 -64.872585222937715 $150 -51.801421818930677 $146 $238 forward 7 unknown #
straight-curve $-1 -51.801421818930677 -17.028463350757114 12.355183409924546 0 1 0 I I #
coedge $-1 $153 $144 $147 $208 forward $139 $-1 #
straight-curve $-1 -51.801421818930677 -17.028463350757114 -12.355183409924546 0 -1 0 I I #
coedge $-1 $147 $146 $236 $239 forward $148 $-1 #
edge $-1 $149 51.801421818930677 $240 64.872585222937715 $147 $241 forward 7 unknown #
point $-1 -51.801421818930677 -36.350782052149803 -12.355183409924546 #
point $-1 -51.801421818930677 -36.350782052149803 12.355183409924546 #
straight-curve $-1 -64.872585222937715 -31.763071350878651 0 0 0 -1 I I #
edge $-1 $240 -36.350782052149803 $154 -31.763071350878651 $201 $242 forward 7 unknown #
point $-1 -64.872585222937715 -31.763071350878651 -12.355183409924546 #
edge $-1 $157 31.763071350878651 $237 36.350782052149803 $202 $243 forward 7 unknown #
point $-1 -64.872585222937715 -31.763071350878651 12.355183409924546 #
plane-surface $-1 64.872585222937715 0 0 -1 0 0 0 0 1 forward_v I I I I #
coedge $-1 $244 $164 $176 $228 reversed $96 $-1 #
coedge $-1 $164 $244 $179 $230 reversed $96 $-1 #
edge $-1 $245 -36.350782052149803 $173 -31.763071350878651 $169 $246 forward 7 unknown #
straight-curve $-1 29.168501760467095 -31.763071350878651 12.355183409924546 -1 0 0 I I #
coedge $-1 $176 $167 $170 $224 forward $162 $-1 #
straight-curve $-1 29.168501760467095 -31.763071350878651 -12.355183409924546 1 0 0 I I #
coedge $-1 $170 $169 $244 $247 forward $171 $-1 #
edge $-1 $172 31.763071350878651 $248 36.350782052149803 $170 $249 forward 7 unknown #
point $-1 64.872585222937715 -31.763071350878651 -12.355183409924546 #
point $-1 64.872585222937715 -31.763071350878651 12.355183409924546 #
straight-curve $-1 51.80142181893067 -36.350782052149803 0 0 0 -1 I I #
edge $-1 $248 -64.872585222937715 $177 -51.80142181893067 $217 $250 forward 7 unknown #
point $-1 51.80142181893067 -36.350782052149803 -12.355183409924546 #
edge $-1 $180 51.80142181893067 $245 64.872585222937715 $218 $251 forward 7 unknown #
point $-1 51.80142181893067 -36.350782052149803 12.355183409924546 #
straight-curve $-1 -64.872585222937715 36.350782052149803 0 0 0 -1 I I #
point $-1 -64.872585222937715 -36.350782052149803 -12.355183409924546 #
straight-curve $-1 -64.872585222937715 0 -12.355183409924546 0 1 0 I I #
point $-1 -64.872585222937715 36.350782052149803 -12.355183409924546 #
coedge $-1 $202 $201 $207 $239 reversed $80 $-1 #
vertex $-1 $214 $252 #
straight-curve $-1 0 -36.350782052149803 12.355183409924546 1 0 0 I I #
edge $-1 $237 -12.355183409924546 $240 12.355183409924546 $236 $253 forward 7 unknown #
vertex $-1 $212 $254 #
straight-curve $-1 0 -36.350782052149803 -12.355183409924546 -1 0 0 I I #
straight-curve $-1 -64.872585222937715 0 -12.355183409924546 0 1 0 I I #
straight-curve $-1 -64.872585222937715 0 12.355183409924546 0 -1 0 I I #
coedge $-1 $218 $217 $223 $247 reversed $96 $-1 #
vertex $-1 $219 $255 #
straight-curve $-1 64.872585222937715 0 12.355183409924546 0 1 0 I I #
edge $-1 $245 -12.355183409924546 $248 12.355183409924546 $223 $256 forward 7 unknown #
vertex $-1 $247 $257 #
straight-curve $-1 64.872585222937715 0 -12.355183409924546 0 -1 0 I I #
straight-curve $-1 0 -36.350782052149803 -12.355183409924546 -1 0 0 I I #
straight-curve $-1 0 -36.350782052149803 12.355183409924546 1 0 0 I I #
point $-1 -64.872585222937715 -36.350782052149803 12.355183409924546 #
straight-curve $-1 -64.872585222937715 -36.350782052149803 0 0 0 -1 I I #
point $-1 -64.872585222937715 -36.350782052149803 -12.355183409924546 #
point $-1 64.872585222937715 -36.350782052149803 12.355183409924546 #
straight-curve $-1 64.872585222937715 -36.350782052149803 0 0 0 -1 I I #
point $-1 64.872585222937715 -36.350782052149803 -12.355183409924546 #
End-of-ACIS-data 