500 0 6 0           
7 Unknown 11 ACIS 5.0 NT 24 Thu Mar 25 18:23:37 1999 
-1 9.9999999999999995e-007 1e-010 
body $-1 $6 $-1 $7 #
body $-1 $8 $-1 $9 #
body $-1 $10 $-1 $11 #
body $-1 $12 $-1 $13 #
body $-1 $14 $-1 $15 #
body $-1 $16 $-1 $17 #
lump $-1 $-1 $18 $0 #
transform $-1 1 0 0 0 1 0 0 0 1 77.117831965086822 36.787185158747604 17.160542087725116 1 rotate no_reflect no_shear #
lump $-1 $-1 $19 $1 #
transform $-1 1 0 0 0 1 0 0 0 1 77.117831965086822 36.787185158747604 17.160542087725116 1 rotate no_reflect no_shear #
lump $-1 $-1 $20 $2 #
transform $-1 1 0 0 0 1 0 0 0 1 77.117831965086822 36.787185158747604 17.160542087725116 1 rotate no_reflect no_shear #
lump $-1 $-1 $21 $3 #
transform $-1 1 0 0 0 1 0 0 0 1 77.117831965086822 36.787185158747604 17.160542087725116 1 rotate no_reflect no_shear #
lump $-1 $-1 $22 $4 #
transform $-1 1 0 0 0 1 0 0 0 1 77.117831965086822 36.787185158747604 17.160542087725116 1 rotate no_reflect no_shear #
lump $-1 $-1 $23 $5 #
transform $-1 1 0 0 0 1 0 0 0 1 77.117831965086822 36.787185158747604 17.160542087725116 1 rotate no_reflect no_shear #
shell $-1 $-1 $-1 $24 $-1 $6 #
shell $-1 $-1 $-1 $25 $-1 $8 #
shell $-1 $-1 $-1 $26 $-1 $10 #
shell $-1 $-1 $-1 $27 $-1 $12 #
shell $-1 $-1 $-1 $28 $-1 $14 #
shell $-1 $-1 $-1 $29 $-1 $16 #
face $-1 $30 $31 $18 $-1 $32 forward single #
face $-1 $33 $34 $19 $-1 $35 forward single #
face $-1 $36 $37 $20 $-1 $38 forward single #
face $-1 $39 $40 $21 $-1 $41 reversed single #
face $-1 $42 $43 $22 $-1 $44 forward single #
face $-1 $45 $46 $23 $-1 $47 forward single #
face $-1 $48 $49 $18 $-1 $50 reversed single #
loop $-1 $-1 $51 $24 #
plane-surface $-1 0 0 17.160542087725116 0 0 1 1 0 0 forward_v I I I I #
face $-1 $52 $53 $19 $-1 $54 reversed single #
loop $-1 $-1 $55 $25 #
plane-surface $-1 0 -30.948615384115389 0.88085093999787745 0 0 1 1 0 0 forward_v I I I I #
face $-1 $56 $57 $20 $-1 $58 reversed single #
loop $-1 $-1 $59 $26 #
plane-surface $-1 0 36.787185158747604 0 0 -1 0 0 0 -1 forward_v I I I I #
face $-1 $60 $61 $21 $-1 $62 reversed single #
loop $-1 $-1 $63 $27 #
plane-surface $-1 -172.07478955897739 14.212985443833119 132.81351538154968 0 1 0 -0.61566148304635926 0 0.78801074757464917 forward_v I I I I #
face $-1 $64 $65 $22 $-1 $66 forward single #
loop $-1 $67 $68 $28 #
cone-surface $-1 -72.902154919905925 16.534494584361148 13.643216580837654 0.61566148304635926 0 -0.78801074757464917 0.39400537378732459 0 0.30783074152317963 1 I I 0 1 0.5 forward I I I I #
face $-1 $69 $70 $23 $-1 $71 forward single #
loop $-1 $72 $73 $29 #
cone-surface $-1 -72.902154919905925 20.016758295153188 13.643216580837654 0.61566148304635926 0 -0.78801074757464917 0.39400537378732459 0 0.30783074152317963 1 I I 0 1 0.5 forward I I I I #
face $-1 $74 $75 $18 $-1 $76 reversed single #
loop $-1 $-1 $77 $30 #
plane-surface $-1 0 0 -17.160542087725116 0 0 1 1 0 0 forward_v I I I I #
coedge $-1 $78 $79 $80 $81 forward $31 $-1 #
face $-1 $82 $83 $19 $-1 $84 reversed single #
loop $-1 $-1 $85 $33 #
plane-surface $-1 0 -30.948615384115389 -5.0099907455744876 0 0 1 1 0 0 forward_v I I I I #
coedge $-1 $86 $87 $88 $89 reversed $34 $-1 #
face $-1 $90 $91 $20 $-1 $92 forward single #
loop $-1 $-1 $93 $36 #
plane-surface $-1 -77.117831965086822 0 0 1 0 0 0 0 -1 forward_v I I I I #
coedge $-1 $94 $95 $96 $97 forward $37 $-1 #
face $-1 $98 $99 $21 $-1 $100 reversed single #
loop $-1 $-1 $101 $39 #
plane-surface $-1 -77.117831965086822 18.275626439757168 11.274154545261197 -0.61566148304635926 0 0.78801074757464917 0.78801074757464917 0 0.61566148304635926 forward_v I I I I #
coedge $-1 $102 $103 $104 $105 reversed $40 $-1 #
face $-1 $-1 $106 $22 $-1 $107 forward single #
loop $-1 $108 $109 $42 #
cone-surface $-1 -72.299678667296519 16.534494584361148 12.872082158288503 0.61566148304635926 0 -0.78801074757464917 0.19700268689366229 0 0.15391537076158981 1 I I -0.70710678118654746 0.70710678118654746 0.25 forward I I I I #
loop $-1 $-1 $110 $28 #
coedge $-1 $68 $68 $111 $112 reversed $43 $-1 #
face $-1 $-1 $113 $23 $-1 $114 forward single #
loop $-1 $115 $116 $45 #
cone-surface $-1 -72.299678667296519 20.016758295153188 12.872082158288503 0.61566148304635926 0 -0.78801074757464917 0.19700268689366229 0 0.15391537076158981 1 I I -0.70710678118654746 0.70710678118654746 0.25 forward I I I I #
loop $-1 $-1 $117 $29 #
coedge $-1 $73 $73 $118 $119 reversed $46 $-1 #
face $-1 $120 $121 $18 $-1 $122 reversed single #
loop $-1 $-1 $123 $48 #
plane-surface $-1 0 -36.787185158747604 0 0 1 0 0 0 1 forward_v I I I I #
coedge $-1 $124 $125 $126 $127 forward $49 $-1 #
coedge $-1 $128 $51 $129 $130 forward $31 $-1 #
coedge $-1 $51 $128 $131 $132 forward $31 $-1 #
coedge $-1 $133 $134 $51 $81 reversed $135 $-1 #
edge $-1 $136 -36.787185158747604 $137 36.787185158747604 $80 $138 forward 7 unknown #
face $-1 $139 $140 $19 $-1 $141 reversed single #
loop $-1 $-1 $142 $52 #
plane-surface $-1 0 -25.110045609483173 -2.0645699027883051 0 -1 0 0 0 -1 forward_v I I I I #
coedge $-1 $143 $144 $145 $146 reversed $53 $-1 #
coedge $-1 $147 $55 $148 $149 forward $34 $-1 #
coedge $-1 $55 $147 $150 $151 reversed $34 $-1 #
coedge $-1 $152 $153 $55 $89 forward $154 $-1 #
edge $-1 $155 9.6357379174254785 $156 21.312877466689912 $88 $157 forward 7 unknown #
face $-1 $158 $159 $20 $-1 $160 reversed single #
loop $-1 $-1 $161 $56 #
plane-surface $-1 0 0 17.160542087725116 0 0 1 1 0 0 forward_v I I I I #
coedge $-1 $162 $163 $95 $164 forward $57 $-1 #
coedge $-1 $165 $59 $166 $167 reversed $37 $-1 #
coedge $-1 $59 $165 $93 $164 reversed $37 $-1 #
coedge $-1 $168 $169 $59 $97 reversed $159 $-1 #
edge $-1 $170 -77.117831965086822 $171 77.117831965086822 $96 $172 forward 7 unknown #
face $-1 $173 $174 $21 $-1 $175 reversed single #
loop $-1 $-1 $176 $60 #
plane-surface $-1 -172.07478955897739 22.338267435681217 132.81351538154968 0 -1 0 0.61566148304635926 0 -0.78801074757464917 forward_v I I I I #
coedge $-1 $177 $178 $179 $180 reversed $61 $-1 #
coedge $-1 $103 $63 $181 $182 reversed $40 $-1 #
coedge $-1 $63 $102 $177 $183 reversed $40 $-1 #
coedge $-1 $179 $184 $63 $105 forward $185 $-1 #
edge $-1 $186 8.9195628144018713 $187 16.453795141067999 $104 $188 forward 7 unknown #
loop $-1 $-1 $111 $64 #
plane-surface $-1 -77.117831965086822 18.275626439757168 11.274154545261197 -0.61566148304635926 0 0.78801074757464917 0.78801074757464917 0 0.61566148304635926 forward_v I I I I #
loop $-1 $-1 $189 $42 #
coedge $-1 $109 $109 $110 $190 reversed $65 $-1 #
coedge $-1 $110 $110 $109 $190 forward $67 $-1 #
coedge $-1 $111 $111 $68 $112 forward $106 $-1 #
edge $-1 $191 0 $191 6.2831853071796004 $111 $192 forward 7 unknown #
loop $-1 $-1 $118 $69 #
plane-surface $-1 -77.117831965086822 18.275626439757168 11.274154545261197 -0.61566148304635926 0 0.78801074757464917 0.78801074757464917 0 0.61566148304635926 forward_v I I I I #
loop $-1 $-1 $193 $45 #
coedge $-1 $116 $116 $117 $194 reversed $70 $-1 #
coedge $-1 $117 $117 $116 $194 forward $72 $-1 #
coedge $-1 $118 $118 $73 $119 forward $113 $-1 #
edge $-1 $195 0 $195 6.2831853071796004 $118 $196 forward 7 unknown #
face $-1 $197 $198 $18 $-1 $199 reversed single #
loop $-1 $-1 $200 $74 #
plane-surface $-1 -77.117831965086822 0 0 1 0 0 0 0 -1 forward_v I I I I #
coedge $-1 $201 $131 $202 $203 forward $75 $-1 #
coedge $-1 $204 $77 $201 $205 forward $49 $-1 #
coedge $-1 $77 $204 $206 $207 forward $49 $-1 #
coedge $-1 $134 $133 $77 $127 reversed $135 $-1 #
edge $-1 $208 -36.787185158747604 $209 36.787185158747604 $126 $210 forward 7 unknown #
coedge $-1 $79 $78 $211 $212 forward $31 $-1 #
coedge $-1 $213 $214 $78 $130 reversed $198 $-1 #
edge $-1 $137 -77.117831965086822 $215 77.117831965086822 $129 $216 forward 7 unknown #
coedge $-1 $123 $217 $79 $132 reversed $75 $-1 #
edge $-1 $218 -77.117831965086822 $136 77.117831965086822 $131 $219 forward 7 unknown #
coedge $-1 $126 $80 $217 $220 forward $135 $-1 #
coedge $-1 $80 $126 $213 $221 reversed $135 $-1 #
loop $-1 $-1 $133 $197 #
vertex $-1 $81 $222 #
vertex $-1 $81 $223 #
straight-curve $-1 77.117831965086822 0 17.160542087725116 0 1 0 I I #
face $-1 $224 $225 $19 $-1 $226 reversed single #
loop $-1 $-1 $227 $82 #
plane-surface $-1 -77.117831965086822 0 0 1 0 0 0 0 -1 forward_v I I I I #
coedge $-1 $228 $148 $153 $229 reversed $83 $-1 #
coedge $-1 $230 $85 $231 $232 reversed $53 $-1 #
coedge $-1 $85 $230 $228 $233 forward $53 $-1 #
coedge $-1 $153 $152 $85 $146 forward $154 $-1 #
edge $-1 $234 -21.312877466689912 $235 -9.6357379174254785 $145 $236 forward 7 unknown #
coedge $-1 $87 $86 $227 $237 reversed $34 $-1 #
coedge $-1 $142 $238 $86 $149 reversed $83 $-1 #
edge $-1 $155 -77.117831965086822 $239 77.117831965086822 $148 $240 forward 7 unknown #
coedge $-1 $241 $242 $87 $151 forward $225 $-1 #
edge $-1 $156 -77.117831965086822 $243 77.117831965086822 $150 $244 forward 7 unknown #
coedge $-1 $145 $88 $242 $245 forward $154 $-1 #
coedge $-1 $88 $145 $142 $229 forward $154 $-1 #
loop $-1 $-1 $88 $224 #
vertex $-1 $89 $246 #
vertex $-1 $245 $247 #
straight-curve $-1 77.117831965086822 -15.474307692057694 0.88085093999787745 0 -1 0 I I #
face $-1 $248 $249 $20 $-1 $250 reversed single #
loop $-1 $-1 $169 $90 #
plane-surface $-1 0 44.011644020280798 10.862879237757324 0 0 1 1 0 0 forward_v I I I I #
coedge $-1 $251 $252 $165 $253 forward $91 $-1 #
coedge $-1 $254 $93 $252 $255 reversed $57 $-1 #
coedge $-1 $93 $254 $168 $256 reversed $57 $-1 #
edge $-1 $170 10.862879237757324 $257 17.160542087725116 $93 $258 forward 7 unknown #
coedge $-1 $95 $94 $161 $253 reversed $37 $-1 #
coedge $-1 $259 $260 $94 $167 forward $261 $-1 #
edge $-1 $262 -17.160542087725116 $171 -10.862879237757324 $166 $263 forward 7 unknown #
coedge $-1 $264 $96 $163 $256 forward $159 $-1 #
coedge $-1 $96 $264 $259 $265 forward $159 $-1 #
vertex $-1 $164 $266 #
vertex $-1 $167 $267 #
straight-curve $-1 0 36.787185158747604 10.862879237757324 1 0 0 I I #
face $-1 $-1 $185 $21 $-1 $268 forward single #
loop $-1 $-1 $269 $98 #
plane-surface $-1 -77.117831965086822 0 0 1 0 0 0 0 -1 forward_v I I I I #
coedge $-1 $270 $271 $272 $273 reversed $99 $-1 #
coedge $-1 $274 $101 $103 $183 forward $61 $-1 #
coedge $-1 $101 $274 $270 $275 forward $61 $-1 #
coedge $-1 $272 $104 $101 $180 forward $185 $-1 #
edge $-1 $187 5.0751722239545352 $276 13.200454215802633 $179 $277 forward 7 unknown #
coedge $-1 $278 $279 $102 $182 forward $174 $-1 #
edge $-1 $280 -55.132603145513642 $186 -49.24621560304972 $181 $281 forward 7 unknown #
edge $-1 $187 -9.5610781323162151 $280 0 $103 $282 forward 7 unknown #
coedge $-1 $104 $272 $278 $283 forward $185 $-1 #
loop $-1 $-1 $272 $173 #
vertex $-1 $182 $284 #
vertex $-1 $105 $285 #
straight-curve $-1 -86.037394779488693 14.212985443833119 17.160542087725119 1 0 0 I I #
coedge $-1 $189 $189 $-1 $286 reversed $108 $-1 #
edge $-1 $287 0 $287 6.2831853071796004 $109 $288 forward 7 unknown #
vertex $-1 $112 $289 #
ellipse-curve $-1 -73.350715801753751 16.534494584361148 14.21734831649316 -0.61566148304635926 0 0.78801074757464917 0.39400537378732459 0 0.30783074152317963 1 I I #
coedge $-1 $193 $193 $-1 $290 reversed $115 $-1 #
edge $-1 $291 0 $291 6.2831853071796004 $116 $292 forward 7 unknown #
vertex $-1 $119 $293 #
ellipse-curve $-1 -73.350715801753751 20.016758295153188 14.21734831649316 -0.61566148304635926 0 0.78801074757464917 0.39400537378732459 0 0.30783074152317963 1 I I #
face $-1 $-1 $135 $18 $-1 $294 reversed single #
loop $-1 $-1 $213 $120 #
plane-surface $-1 0 36.787185158747604 0 0 -1 0 0 0 -1 forward_v I I I I #
coedge $-1 $295 $211 $214 $296 forward $121 $-1 #
coedge $-1 $217 $123 $124 $205 reversed $75 $-1 #
coedge $-1 $211 $295 $123 $203 reversed $121 $-1 #
edge $-1 $218 -17.160542087725116 $297 17.160542087725116 $202 $298 forward 7 unknown #
coedge $-1 $125 $124 $295 $299 forward $49 $-1 #
edge $-1 $209 -77.117831965086822 $297 77.117831965086822 $201 $300 forward 7 unknown #
coedge $-1 $214 $213 $125 $207 reversed $198 $-1 #
edge $-1 $301 -77.117831965086822 $208 77.117831965086822 $206 $302 forward 7 unknown #
vertex $-1 $127 $303 #
vertex $-1 $220 $304 #
straight-curve $-1 77.117831965086822 0 -17.160542087725116 0 -1 0 I I #
coedge $-1 $200 $202 $128 $212 reversed $121 $-1 #
edge $-1 $215 -36.787185158747604 $218 36.787185158747604 $211 $305 forward 7 unknown #
coedge $-1 $206 $129 $134 $221 forward $198 $-1 #
coedge $-1 $129 $206 $200 $296 reversed $198 $-1 #
vertex $-1 $130 $306 #
straight-curve $-1 0 36.787185158747604 17.160542087725116 -1 0 0 I I #
coedge $-1 $131 $201 $133 $220 reversed $75 $-1 #
vertex $-1 $212 $307 #
straight-curve $-1 0 -36.787185158747604 17.160542087725116 1 0 0 I I #
edge $-1 $136 -17.160542087725116 $209 17.160542087725116 $133 $308 forward 7 unknown #
edge $-1 $137 -17.160542087725116 $208 17.160542087725116 $134 $309 forward 7 unknown #
point $-1 77.117831965086822 -36.787185158747604 17.160542087725116 #
point $-1 77.117831965086822 36.787185158747604 17.160542087725116 #
face $-1 $-1 $154 $19 $-1 $310 reversed single #
loop $-1 $-1 $150 $139 #
plane-surface $-1 0 -36.787185158747604 0 0 1 0 0 0 1 forward_v I I I I #
coedge $-1 $311 $312 $147 $237 forward $140 $-1 #
coedge $-1 $238 $142 $144 $233 reversed $83 $-1 #
edge $-1 $235 -3.9777057941803351 $155 1.91313589139203 $153 $313 forward 7 unknown #
coedge $-1 $144 $143 $314 $315 reversed $53 $-1 #
coedge $-1 $242 $241 $143 $232 forward $225 $-1 #
edge $-1 $316 -77.117831965086822 $234 77.117831965086822 $231 $317 forward 7 unknown #
edge $-1 $318 -77.117831965086822 $235 77.117831965086822 $228 $319 forward 7 unknown #
vertex $-1 $232 $320 #
vertex $-1 $146 $321 #
straight-curve $-1 77.117831965086822 -15.474307692057694 -5.0099907455744876 0 1 0 I I #
edge $-1 $243 -21.312877466689912 $239 -9.6357379174254785 $227 $322 forward 7 unknown #
coedge $-1 $148 $228 $311 $323 reversed $83 $-1 #
vertex $-1 $237 $324 #
straight-curve $-1 0 -25.110045609483173 0.88085093999787745 -1 0 0 I I #
coedge $-1 $231 $150 $312 $325 forward $225 $-1 #
coedge $-1 $150 $231 $152 $245 reversed $225 $-1 #
vertex $-1 $325 $326 #
straight-curve $-1 0 -36.787185158747604 0.88085093999787745 -1 0 0 I I #
edge $-1 $156 -0.88085093999787745 $234 5.0099907455744876 $152 $327 forward 7 unknown #
point $-1 77.117831965086822 -25.110045609483173 0.88085093999787745 #
point $-1 77.117831965086822 -36.787185158747604 0.88085093999787745 #
face $-1 $-1 $261 $20 $-1 $328 reversed single #
loop $-1 $-1 $329 $158 #
plane-surface $-1 0 51.236102881813991 14.011710662741219 0 -1 0 0 0 -1 forward_v I I I I #
coedge $-1 $330 $161 $260 $331 forward $91 $-1 #
coedge $-1 $161 $330 $162 $255 forward $91 $-1 #
edge $-1 $257 -77.117831965086822 $262 77.117831965086822 $161 $332 forward 7 unknown #
coedge $-1 $163 $162 $333 $334 forward $57 $-1 #
edge $-1 $335 -51.236102881813991 $257 -36.787185158747604 $162 $336 forward 7 unknown #
edge $-1 $170 -7.2244588615331935 $337 7.2244588615331935 $163 $338 forward 7 unknown #
vertex $-1 $253 $339 #
straight-curve $-1 -77.117831965086822 36.787185158747604 0 0 0 1 I I #
coedge $-1 $340 $166 $169 $265 reversed $261 $-1 #
coedge $-1 $166 $340 $251 $331 reversed $261 $-1 #
loop $-1 $-1 $166 $248 #
vertex $-1 $331 $341 #
straight-curve $-1 77.117831965086822 36.787185158747604 0 0 0 -1 I I #
coedge $-1 $169 $168 $342 $343 forward $159 $-1 #
edge $-1 $344 -7.2244588615331935 $171 7.2244588615331935 $259 $345 forward 7 unknown #
point $-1 -77.117831965086822 36.787185158747604 10.862879237757324 #
point $-1 77.117831965086822 36.787185158747604 10.862879237757324 #
plane-surface $-1 0 0 17.160542087725116 0 0 1 1 0 0 forward_v I I I I #
coedge $-1 $279 $278 $271 $346 forward $174 $-1 #
coedge $-1 $271 $176 $178 $275 reversed $99 $-1 #
coedge $-1 $176 $270 $269 $346 reversed $99 $-1 #
coedge $-1 $184 $179 $176 $273 forward $185 $-1 #
edge $-1 $276 -16.453795141067999 $347 -8.9195628144018713 $272 $348 forward 7 unknown #
coedge $-1 $178 $177 $279 $349 reversed $61 $-1 #
edge $-1 $350 0 $276 9.5610781323162151 $270 $351 forward 7 unknown #
vertex $-1 $180 $352 #
straight-curve $-1 -69.583599638420679 9.1378132198785842 17.160542087725112 0 1 0 I I #
coedge $-1 $269 $181 $184 $283 reversed $174 $-1 #
coedge $-1 $181 $269 $274 $349 forward $174 $-1 #
vertex $-1 $182 $353 #
straight-curve $-1 -77.117831965086822 14.212985443833119 66.406757690774839 0 0 1 I I #
straight-curve $-1 -77.117831965086822 14.212985443833119 11.274154545261197 -0.78801074757464917 0 -0.61566148304635926 I I #
edge $-1 $347 -22.338267435681217 $186 -14.212985443833119 $278 $354 forward 7 unknown #
point $-1 -77.117831965086822 14.212985443833119 17.160542087725116 #
point $-1 -69.583599638420694 14.212985443833119 17.160542087725116 #
edge $-1 $355 1 $355 0 $189 $-1 forward 7 unknown #
vertex $-1 $190 $356 #
ellipse-curve $-1 -72.453594038058114 16.534494584361148 13.069084845182164 -0.61566148304635926 0 0.78801074757464917 0.39400537378732459 0 0.30783074152317963 1 I I #
point $-1 -72.956710427966414 16.534494584361148 14.525179058016322 #
edge $-1 $357 1 $357 0 $193 $-1 forward 7 unknown #
vertex $-1 $194 $358 #
ellipse-curve $-1 -72.453594038058114 20.016758295153188 13.069084845182164 -0.61566148304635926 0 0.78801074757464917 0.39400537378732459 0 0.30783074152317963 1 I I #
point $-1 -72.956710427966414 20.016758295153188 14.525179058016322 #
plane-surface $-1 77.117831965086822 0 0 -1 0 0 0 0 1 forward_v I I I I #
coedge $-1 $202 $200 $204 $299 reversed $121 $-1 #
edge $-1 $215 -17.160542087725116 $301 17.160542087725116 $214 $359 forward 7 unknown #
vertex $-1 $299 $360 #
straight-curve $-1 -77.117831965086822 -36.787185158747604 0 0 0 -1 I I #
edge $-1 $297 -36.787185158747604 $301 36.787185158747604 $295 $361 forward 7 unknown #
straight-curve $-1 0 -36.787185158747604 -17.160542087725116 -1 0 0 I I #
vertex $-1 $207 $362 #
straight-curve $-1 0 36.787185158747604 -17.160542087725116 1 0 0 I I #
point $-1 77.117831965086822 36.787185158747604 -17.160542087725116 #
point $-1 77.117831965086822 -36.787185158747604 -17.160542087725116 #
straight-curve $-1 -77.117831965086822 0 17.160542087725116 0 -1 0 I I #
point $-1 -77.117831965086822 36.787185158747604 17.160542087725116 #
point $-1 -77.117831965086822 -36.787185158747604 17.160542087725116 #
straight-curve $-1 77.117831965086822 -36.787185158747604 0 0 0 -1 I I #
straight-curve $-1 77.117831965086822 36.787185158747604 0 0 0 -1 I I #
plane-surface $-1 77.117831965086822 0 0 -1 0 0 0 0 1 forward_v I I I I #
coedge $-1 $314 $227 $238 $323 forward $140 $-1 #
coedge $-1 $227 $314 $241 $325 reversed $140 $-1 #
straight-curve $-1 77.117831965086822 -25.110045609483173 -1.0322849513941526 0 0 1 I I #
coedge $-1 $312 $311 $230 $315 forward $140 $-1 #
edge $-1 $318 9.6357379174254785 $316 21.312877466689912 $314 $363 forward 7 unknown #
vertex $-1 $232 $364 #
straight-curve $-1 0 -36.787185158747604 -5.0099907455744876 1 0 0 I I #
vertex $-1 $315 $365 #
straight-curve $-1 0 -25.110045609483173 -5.0099907455744876 1 0 0 I I #
point $-1 77.117831965086822 -36.787185158747604 -5.0099907455744876 #
point $-1 77.117831965086822 -25.110045609483173 -5.0099907455744876 #
straight-curve $-1 -77.117831965086822 -15.474307692057694 0.88085093999787745 0 1 0 I I #
edge $-1 $239 -1.91313589139203 $318 3.9777057941803351 $311 $366 forward 7 unknown #
point $-1 -77.117831965086822 -25.110045609483173 0.88085093999787745 #
edge $-1 $243 -0.88085093999787745 $316 5.0099907455744876 $312 $367 forward 7 unknown #
point $-1 -77.117831965086822 -36.787185158747604 0.88085093999787745 #
straight-curve $-1 77.117831965086822 -36.787185158747604 0 0 0 -1 I I #
plane-surface $-1 77.117831965086822 0 0 -1 0 0 0 0 1 forward_v I I I I #
coedge $-1 $342 $368 $340 $369 forward $249 $-1 #
coedge $-1 $252 $251 $368 $370 forward $91 $-1 #
edge $-1 $262 36.787185158747604 $371 51.236102881813991 $260 $372 forward 7 unknown #
straight-curve $-1 0 36.787185158747604 17.160542087725116 1 0 0 I I #
coedge $-1 $368 $342 $254 $334 reversed $249 $-1 #
edge $-1 $335 -3.1488314249838929 $337 3.1488314249838947 $333 $373 forward 7 unknown #
vertex $-1 $370 $374 #
straight-curve $-1 -77.117831965086822 0 17.160542087725116 0 -1 0 I I #
vertex $-1 $343 $375 #
straight-curve $-1 -77.117831965086822 44.011644020280798 10.862879237757324 0 1 0 I I #
point $-1 -77.117831965086822 36.787185158747604 17.160542087725116 #
coedge $-1 $260 $259 $329 $369 reversed $261 $-1 #
point $-1 77.117831965086822 36.787185158747604 17.160542087725116 #
coedge $-1 $333 $329 $264 $343 reversed $249 $-1 #
edge $-1 $337 -77.117831965086822 $344 77.117831965086822 $342 $376 forward 7 unknown #
vertex $-1 $265 $377 #
straight-curve $-1 77.117831965086822 44.011644020280798 10.862879237757324 0 -1 0 I I #
edge $-1 $347 49.24621560304972 $350 55.132603145513642 $269 $378 forward 7 unknown #
vertex $-1 $283 $379 #
straight-curve $-1 -86.037394779488693 22.338267435681217 17.160542087725119 -1 0 0 I I #
edge $-1 $350 -13.200454215802633 $280 -5.0751722239545352 $279 $380 forward 7 unknown #
vertex $-1 $349 $381 #
straight-curve $-1 -77.117831965086822 22.338267435681217 11.274154545261197 0.78801074757464917 0 0.61566148304635926 I I #
point $-1 -69.583599638420694 22.338267435681217 17.160542087725116 #
point $-1 -77.117831965086822 14.212985443833119 11.274154545261197 #
straight-curve $-1 -77.117831965086822 0 17.160542087725116 0 -1 0 I I #
vertex $-1 $286 $382 #
point $-1 -72.059588664270777 16.534494584361148 13.376915586705344 #
vertex $-1 $290 $383 #
point $-1 -72.059588664270777 20.016758295153188 13.376915586705344 #
straight-curve $-1 -77.117831965086822 36.787185158747604 0 0 0 -1 I I #
point $-1 -77.117831965086822 -36.787185158747604 -17.160542087725116 #
straight-curve $-1 -77.117831965086822 0 -17.160542087725116 0 1 0 I I #
point $-1 -77.117831965086822 36.787185158747604 -17.160542087725116 #
straight-curve $-1 -77.117831965086822 -15.474307692057694 -5.0099907455744876 0 -1 0 I I #
point $-1 -77.117831965086822 -36.787185158747604 -5.0099907455744876 #
point $-1 -77.117831965086822 -25.110045609483173 -5.0099907455744876 #
straight-curve $-1 -77.117831965086822 -25.110045609483173 -1.0322849513941526 0 0 -1 I I #
straight-curve $-1 -77.117831965086822 -36.787185158747604 0 0 0 -1 I I #
coedge $-1 $329 $333 $330 $370 reversed $249 $-1 #
edge $-1 $371 -3.1488314249838929 $344 3.1488314249838947 $340 $384 forward 7 unknown #
edge $-1 $371 -77.117831965086822 $335 77.117831965086822 $368 $385 forward 7 unknown #
vertex $-1 $331 $386 #
straight-curve $-1 77.117831965086822 0 17.160542087725116 0 1 0 I I #
straight-curve $-1 -77.117831965086822 51.236102881813991 14.011710662741219 0 0 -1 I I #
point $-1 -77.117831965086822 51.236102881813991 17.160542087725112 #
point $-1 -77.117831965086822 51.236102881813991 10.862879237757324 #
straight-curve $-1 0 51.236102881813991 10.862879237757324 1 0 0 I I #
point $-1 77.117831965086822 51.236102881813991 10.862879237757324 #
straight-curve $-1 -77.117831965086822 22.338267435681217 66.406757690774839 0 0 -1 I I #
point $-1 -77.117831965086822 22.338267435681217 17.160542087725116 #
straight-curve $-1 -77.117831965086822 9.1378132198785842 11.274154545261199 0 -1 0 I I #
point $-1 -77.117831965086822 22.338267435681217 11.274154545261197 #
point $-1 -72.145763296534923 16.534494584361148 12.675079471394842 #
point $-1 -72.145763296534923 20.016758295153188 12.675079471394842 #
straight-curve $-1 77.117831965086822 51.236102881813991 14.011710662741219 0 0 -1 I I #
straight-curve $-1 0 51.236102881813991 17.160542087725112 -1 0 0 I I #
point $-1 77.117831965086822 51.236102881813991 17.160542087725112 #
End-of-ACIS-data 