500 0 5 0           
7 Unknown 11 ACIS 5.0 NT 24 Fri Mar 26 14:37:58 1999 
-1 9.9999999999999995e-007 1e-010 
body $-1 $5 $-1 $6 #
body $-1 $7 $-1 $8 #
body $-1 $9 $-1 $10 #
body $-1 $11 $-1 $12 #
body $-1 $13 $-1 $14 #
lump $-1 $-1 $15 $0 #
transform $-1 1 0 0 0 1 0 0 0 1 56.611835077974789 39.548982719501957 19.506904779688305 1 rotate no_reflect no_shear #
lump $-1 $-1 $16 $1 #
transform $-1 1 0 0 0 1 0 0 0 1 56.611835077974789 39.548982719501957 19.506904779688305 1 rotate no_reflect no_shear #
lump $-1 $-1 $17 $2 #
transform $-1 1 0 0 0 1 0 0 0 1 56.611835077974789 39.548982719501957 19.506904779688305 1 rotate no_reflect no_shear #
lump $-1 $-1 $18 $3 #
transform $-1 1 0 0 0 1 0 0 0 1 56.611835077974789 39.548982719501957 19.506904779688305 1 rotate no_reflect no_shear #
lump $-1 $-1 $19 $4 #
transform $-1 1 0 0 0 1 0 0 0 1 56.611835077974789 39.548982719501957 19.506904779688305 1 rotate no_reflect no_shear #
shell $-1 $-1 $-1 $20 $-1 $5 #
shell $-1 $-1 $-1 $21 $-1 $7 #
shell $-1 $-1 $-1 $22 $-1 $9 #
shell $-1 $-1 $-1 $23 $-1 $11 #
shell $-1 $-1 $-1 $24 $-1 $13 #
face $-1 $25 $26 $15 $-1 $27 forward single #
face $-1 $28 $29 $16 $-1 $30 forward single #
face $-1 $31 $32 $17 $-1 $33 reversed single #
face $-1 $34 $35 $18 $-1 $36 reversed single #
face $-1 $37 $38 $19 $-1 $39 reversed single #
face $-1 $40 $41 $15 $-1 $42 reversed single #
loop $-1 $-1 $43 $20 #
plane-surface $-1 0 0 19.506904779688305 0 0 1 1 0 0 forward_v I I I I #
face $-1 $44 $45 $16 $-1 $46 forward single #
loop $-1 $-1 $47 $21 #
plane-surface $-1 -30.934972058417131 54.134402979701711 150.2030570543354 -1 0 0 0 0.6560590369687036 0.75470957328743171 forward_v I I I I #
face $-1 $48 $49 $17 $-1 $50 reversed single #
loop $-1 $51 $52 $22 #
cone-surface $-1 -51.476462474063254 33.970216642726655 14.164038384372761 0 -0.6560590369687036 -0.75470957328743171 2.5 0 0 1 I I 0 1 2.5 forward I I I I #
face $-1 $53 $54 $18 $-1 $55 reversed single #
loop $-1 $56 $57 $23 #
cone-surface $-1 -43.77340356819596 33.970216642726655 14.164038384372761 0 -0.6560590369687036 -0.75470957328743171 2.5 0 0 1 I I 0 1 2.5 forward I I I I #
face $-1 $58 $59 $19 $-1 $60 reversed single #
loop $-1 $61 $62 $24 #
cone-surface $-1 -36.070344662328665 33.970216642726655 14.164038384372761 0 -0.6560590369687036 -0.75470957328743171 2.5 0 0 1 I I 0 1 2.5 forward I I I I #
face $-1 $63 $64 $15 $-1 $65 reversed single #
loop $-1 $-1 $66 $25 #
plane-surface $-1 0 0 -19.506904779688305 0 0 1 1 0 0 forward_v I I I I #
coedge $-1 $67 $68 $69 $70 forward $26 $-1 #
face $-1 $71 $72 $16 $-1 $73 reversed single #
loop $-1 $-1 $74 $28 #
plane-surface $-1 -43.77340356819596 -20.147009024872709 64.752069264901778 0 0.6560590369687036 0.75470957328743171 1 0 0 forward_v I I I I #
coedge $-1 $75 $76 $77 $78 reversed $29 $-1 #
face $-1 $79 $80 $17 $-1 $81 forward single #
loop $-1 $82 $83 $31 #
cone-surface $-1 -51.476462474063254 31.39506929589826 11.201670295889542 0 -0.6560590369687036 -0.75470957328743171 1.25 0 0 1 I I -0.70710678118654746 0.70710678118654746 1.25 forward I I I I #
loop $-1 $-1 $84 $22 #
coedge $-1 $52 $52 $85 $86 reversed $32 $-1 #
face $-1 $87 $88 $18 $-1 $89 reversed single #
loop $-1 $90 $91 $34 #
cone-surface $-1 -43.77340356819596 31.39506929589826 11.201670295889542 0 -0.6560590369687036 -0.75470957328743171 1.25 0 0 1 I I -0.70710678118654746 0.70710678118654746 1.25 forward I I I I #
loop $-1 $-1 $92 $23 #
coedge $-1 $57 $57 $93 $94 reversed $35 $-1 #
face $-1 $95 $96 $19 $-1 $97 reversed single #
loop $-1 $98 $99 $37 #
cone-surface $-1 -36.070344662328665 31.39506929589826 11.201670295889542 0 -0.6560590369687036 -0.75470957328743171 1.25 0 0 1 I I -0.70710678118654746 0.70710678118654746 1.25 forward I I I I #
loop $-1 $-1 $100 $24 #
coedge $-1 $62 $62 $101 $102 reversed $38 $-1 #
face $-1 $103 $104 $15 $-1 $105 reversed single #
loop $-1 $-1 $106 $40 #
plane-surface $-1 0 -39.548982719501957 0 0 1 0 0 0 1 forward_v I I I I #
coedge $-1 $107 $108 $109 $110 forward $41 $-1 #
coedge $-1 $111 $43 $112 $113 forward $26 $-1 #
coedge $-1 $43 $111 $114 $115 forward $26 $-1 #
coedge $-1 $116 $117 $43 $70 reversed $118 $-1 #
edge $-1 $119 -39.548982719501957 $120 39.548982719501957 $69 $121 forward 7 unknown #
face $-1 $122 $123 $16 $-1 $124 forward single #
loop $-1 $-1 $125 $44 #
plane-surface $-1 0 39.548982719501957 0 0 -1 0 0 0 -1 forward_v I I I I #
coedge $-1 $126 $127 $125 $128 reversed $45 $-1 #
coedge $-1 $76 $47 $127 $129 forward $29 $-1 #
coedge $-1 $47 $75 $130 $131 reversed $29 $-1 #
coedge $-1 $132 $125 $47 $78 forward $72 $-1 #
edge $-1 $133 -62.242394294362633 $134 -55.594623747479396 $77 $135 forward 7 unknown #
face $-1 $136 $137 $17 $-1 $138 forward single #
loop $-1 $-1 $139 $48 #
plane-surface $-1 -30.934972058417131 54.134402979701711 150.2030570543354 -1 0 0 0 0.6560590369687036 0.75470957328743171 forward_v I I I I #
loop $-1 $-1 $140 $31 #
coedge $-1 $83 $83 $84 $141 forward $49 $-1 #
coedge $-1 $84 $84 $83 $141 reversed $51 $-1 #
coedge $-1 $85 $85 $52 $86 forward $137 $-1 #
edge $-1 $142 0 $142 6.2831853071796004 $85 $143 forward 7 unknown #
face $-1 $144 $145 $18 $-1 $146 reversed single #
loop $-1 $147 $148 $53 #
cone-surface $-1 -51.476462474063254 33.970216642726655 14.164038384372761 0 -0.6560590369687036 -0.75470957328743171 2.5 0 0 1 I I 0 1 2.5 forward I I I I #
loop $-1 $-1 $149 $34 #
coedge $-1 $91 $91 $92 $150 forward $54 $-1 #
coedge $-1 $92 $92 $91 $150 reversed $56 $-1 #
coedge $-1 $93 $93 $57 $94 forward $151 $-1 #
edge $-1 $152 0 $152 6.2831853071796004 $93 $153 forward 7 unknown #
face $-1 $154 $155 $19 $-1 $156 reversed single #
loop $-1 $157 $158 $58 #
cone-surface $-1 -43.77340356819596 33.970216642726655 14.164038384372761 0 -0.6560590369687036 -0.75470957328743171 2.5 0 0 1 I I 0 1 2.5 forward I I I I #
loop $-1 $-1 $159 $37 #
coedge $-1 $99 $99 $100 $160 forward $59 $-1 #
coedge $-1 $100 $100 $99 $160 reversed $61 $-1 #
coedge $-1 $101 $101 $62 $102 forward $161 $-1 #
edge $-1 $162 0 $162 6.2831853071796004 $101 $163 forward 7 unknown #
face $-1 $164 $165 $15 $-1 $166 reversed single #
loop $-1 $-1 $167 $63 #
plane-surface $-1 -56.611835077974789 0 0 1 0 0 0 0 -1 forward_v I I I I #
coedge $-1 $168 $114 $169 $170 forward $64 $-1 #
coedge $-1 $171 $66 $168 $172 forward $41 $-1 #
coedge $-1 $66 $171 $173 $174 forward $41 $-1 #
coedge $-1 $117 $116 $66 $110 reversed $118 $-1 #
edge $-1 $175 -39.548982719501957 $176 39.548982719501957 $109 $177 forward 7 unknown #
coedge $-1 $68 $67 $178 $179 forward $26 $-1 #
coedge $-1 $180 $181 $67 $113 reversed $165 $-1 #
edge $-1 $120 -56.611835077974789 $182 56.611835077974789 $112 $183 forward 7 unknown #
coedge $-1 $106 $184 $68 $115 reversed $64 $-1 #
edge $-1 $185 -56.611835077974789 $119 56.611835077974789 $114 $186 forward 7 unknown #
coedge $-1 $109 $69 $184 $187 forward $118 $-1 #
coedge $-1 $69 $109 $180 $188 reversed $118 $-1 #
loop $-1 $-1 $116 $164 #
vertex $-1 $70 $189 #
vertex $-1 $70 $190 #
straight-curve $-1 56.611835077974789 0 19.506904779688305 0 1 0 I I #
face $-1 $191 $192 $16 $-1 $193 reversed single #
loop $-1 $-1 $130 $71 #
plane-surface $-1 0 0 19.506904779688305 0 0 1 1 0 0 forward_v I I I I #
coedge $-1 $77 $194 $74 $128 forward $72 $-1 #
coedge $-1 $195 $74 $196 $197 reversed $45 $-1 #
coedge $-1 $74 $195 $75 $129 reversed $45 $-1 #
edge $-1 $198 -34.725133293876809 $133 -9.048270274319151 $125 $199 forward 7 unknown #
edge $-1 $133 -79.097965439003929 $200 -68.965080786429027 $75 $201 forward 7 unknown #
coedge $-1 $202 $203 $76 $131 forward $123 $-1 #
edge $-1 $134 -12.481781229651101 $200 -4.8343961773355453 $130 $204 forward 7 unknown #
coedge $-1 $205 $77 $203 $206 reversed $72 $-1 #
vertex $-1 $128 $207 #
vertex $-1 $131 $208 #
straight-curve $-1 -30.934972058417131 39.548982719501957 75.101528527167702 0 0 1 I I #
face $-1 $209 $210 $17 $-1 $211 reversed single #
loop $-1 $212 $85 $79 #
plane-surface $-1 -43.77340356819596 -20.147009024872709 64.752069264901778 0 0.6560590369687036 0.75470957328743171 1 0 0 forward_v I I I I #
coedge $-1 $213 $214 $215 $216 reversed $80 $-1 #
coedge $-1 $140 $140 $-1 $217 forward $82 $-1 #
edge $-1 $218 0 $218 6.2831853071796004 $83 $219 forward 7 unknown #
vertex $-1 $86 $220 #
ellipse-curve $-1 -51.476462474063254 35.725290193344172 16.183019506246691 0 -0.6560590369687036 -0.75470957328743171 2.5 0 0 1 I I #
face $-1 $221 $222 $18 $-1 $223 forward single #
loop $-1 $224 $225 $87 #
cone-surface $-1 -51.476462474063254 31.39506929589826 11.201670295889542 0 -0.6560590369687036 -0.75470957328743171 1.25 0 0 1 I I -0.70710678118654746 0.70710678118654746 1.25 forward I I I I #
loop $-1 $-1 $226 $53 #
coedge $-1 $148 $148 $227 $228 reversed $88 $-1 #
coedge $-1 $149 $149 $-1 $229 forward $90 $-1 #
edge $-1 $230 0 $230 6.2831853071796004 $91 $231 forward 7 unknown #
loop $-1 $232 $93 $221 #
vertex $-1 $94 $233 #
ellipse-curve $-1 -43.77340356819596 35.725290193344172 16.183019506246691 0 -0.6560590369687036 -0.75470957328743171 2.5 0 0 1 I I #
face $-1 $234 $235 $19 $-1 $236 reversed single #
loop $-1 $237 $238 $95 #
cone-surface $-1 -43.77340356819596 31.39506929589826 11.201670295889542 0 -0.6560590369687036 -0.75470957328743171 1.25 0 0 1 I I -0.70710678118654746 0.70710678118654746 1.25 forward I I I I #
loop $-1 $-1 $239 $58 #
coedge $-1 $158 $158 $240 $241 reversed $96 $-1 #
coedge $-1 $159 $159 $-1 $242 forward $98 $-1 #
edge $-1 $243 0 $243 6.2831853071796004 $99 $244 forward 7 unknown #
loop $-1 $245 $101 $246 #
vertex $-1 $102 $247 #
ellipse-curve $-1 -36.070344662328665 35.725290193344172 16.183019506246691 0 -0.6560590369687036 -0.75470957328743171 2.5 0 0 1 I I #
face $-1 $-1 $118 $15 $-1 $248 reversed single #
loop $-1 $-1 $180 $103 #
plane-surface $-1 0 39.548982719501957 0 0 -1 0 0 0 -1 forward_v I I I I #
coedge $-1 $249 $178 $181 $250 forward $104 $-1 #
coedge $-1 $184 $106 $107 $172 reversed $64 $-1 #
coedge $-1 $178 $249 $106 $170 reversed $104 $-1 #
edge $-1 $185 -19.506904779688305 $251 19.506904779688305 $169 $252 forward 7 unknown #
coedge $-1 $108 $107 $249 $253 forward $41 $-1 #
edge $-1 $176 -56.611835077974789 $251 56.611835077974789 $168 $254 forward 7 unknown #
coedge $-1 $181 $180 $108 $174 reversed $165 $-1 #
edge $-1 $255 -56.611835077974789 $175 56.611835077974789 $173 $256 forward 7 unknown #
vertex $-1 $110 $257 #
vertex $-1 $187 $258 #
straight-curve $-1 56.611835077974789 0 -19.506904779688305 0 -1 0 I I #
coedge $-1 $167 $169 $111 $179 reversed $104 $-1 #
edge $-1 $182 -39.548982719501957 $185 39.548982719501957 $178 $259 forward 7 unknown #
coedge $-1 $173 $112 $117 $188 forward $165 $-1 #
coedge $-1 $112 $173 $167 $250 reversed $165 $-1 #
vertex $-1 $113 $260 #
straight-curve $-1 0 39.548982719501957 19.506904779688305 -1 0 0 I I #
coedge $-1 $114 $168 $116 $187 reversed $64 $-1 #
vertex $-1 $179 $261 #
straight-curve $-1 0 -39.548982719501957 19.506904779688305 1 0 0 I I #
edge $-1 $119 -19.506904779688305 $176 19.506904779688305 $116 $262 forward 7 unknown #
edge $-1 $120 -19.506904779688305 $175 19.506904779688305 $117 $263 forward 7 unknown #
point $-1 56.611835077974789 -39.548982719501957 19.506904779688305 #
point $-1 56.611835077974789 39.548982719501957 19.506904779688305 #
face $-1 $264 $265 $16 $-1 $266 reversed single #
loop $-1 $-1 $267 $122 #
plane-surface $-1 0 0 -19.506904779688305 0 0 1 1 0 0 forward_v I I I I #
coedge $-1 $125 $268 $269 $270 reversed $72 $-1 #
coedge $-1 $127 $126 $202 $271 reversed $45 $-1 #
coedge $-1 $269 $272 $126 $197 forward $273 $-1 #
edge $-1 $274 40.121920392508052 $198 50.254805045082932 $196 $275 forward 7 unknown #
vertex $-1 $270 $276 #
straight-curve $-1 -21.88670178409798 39.54898271950195 12.859134232805072 1 0 0 I I #
vertex $-1 $271 $277 #
straight-curve $-1 -30.934972058417131 -20.147009024872709 64.752069264901778 0 -0.75470957328743171 0.6560590369687036 I I #
coedge $-1 $278 $130 $195 $271 forward $123 $-1 #
coedge $-1 $130 $279 $132 $206 forward $123 $-1 #
straight-curve $-1 -30.934972058417131 27.067201489850856 19.506904779688313 0 -1 0 I I #
coedge $-1 $268 $132 $280 $281 forward $72 $-1 #
edge $-1 $282 -56.611835077974789 $134 30.934972058417131 $132 $283 forward 7 unknown #
point $-1 -30.934972058417131 39.548982719501957 12.859134232805069 #
point $-1 -30.934972058417131 39.548982719501957 19.506904779688305 #
face $-1 $284 $285 $17 $-1 $286 forward single #
loop $-1 $-1 $287 $136 #
plane-surface $-1 0 39.548982719501957 0 0 -1 0 0 0 -1 forward_v I I I I #
loop $-1 $-1 $288 $79 #
coedge $-1 $214 $139 $289 $290 forward $80 $-1 #
coedge $-1 $139 $213 $291 $292 reversed $80 $-1 #
coedge $-1 $293 $287 $139 $216 forward $210 $-1 #
edge $-1 $294 -62.242394294362633 $295 -55.594623747479396 $215 $296 forward 7 unknown #
edge $-1 $297 1 $297 0 $140 $-1 forward 7 unknown #
vertex $-1 $141 $298 #
ellipse-curve $-1 -51.476462474063254 32.215143092109138 12.145057262498831 0 0.6560590369687036 0.75470957328743171 2.5 0 0 1 I I #
point $-1 -48.976462474063254 35.725290193344172 16.183019506246691 #
face $-1 $299 $151 $18 $-1 $300 forward single #
loop $-1 $-1 $301 $144 #
plane-surface $-1 -30.934972058417131 54.134402979701711 150.2030570543354 -1 0 0 0 0.6560590369687036 0.75470957328743171 forward_v I I I I #
loop $-1 $-1 $302 $87 #
coedge $-1 $225 $225 $226 $303 forward $145 $-1 #
coedge $-1 $226 $226 $225 $303 reversed $147 $-1 #
coedge $-1 $227 $227 $148 $228 forward $232 $-1 #
edge $-1 $304 0 $304 6.2831853071796004 $227 $305 forward 7 unknown #
edge $-1 $306 1 $306 0 $149 $-1 forward 7 unknown #
vertex $-1 $150 $307 #
ellipse-curve $-1 -43.77340356819596 32.215143092109138 12.145057262498831 0 0.6560590369687036 0.75470957328743171 2.5 0 0 1 I I #
loop $-1 $308 $227 $221 #
point $-1 -41.27340356819596 35.725290193344172 16.183019506246691 #
face $-1 $309 $310 $19 $-1 $311 reversed single #
loop $-1 $312 $313 $154 #
cone-surface $-1 -51.476462474063254 33.970216642726655 14.164038384372761 0 -0.6560590369687036 -0.75470957328743171 2.5 0 0 1 I I 0 1 2.5 forward I I I I #
loop $-1 $-1 $314 $95 #
coedge $-1 $238 $238 $239 $315 forward $155 $-1 #
coedge $-1 $239 $239 $238 $315 reversed $157 $-1 #
coedge $-1 $240 $240 $158 $241 forward $245 $-1 #
edge $-1 $316 0 $316 6.2831853071796004 $240 $317 forward 7 unknown #
edge $-1 $318 1 $318 0 $159 $-1 forward 7 unknown #
vertex $-1 $160 $319 #
ellipse-curve $-1 -36.070344662328665 32.215143092109138 12.145057262498831 0 0.6560590369687036 0.75470957328743171 2.5 0 0 1 I I #
loop $-1 $320 $240 $246 #
face $-1 $321 $161 $19 $-1 $322 forward single #
point $-1 -33.570344662328665 35.725290193344172 16.183019506246691 #
plane-surface $-1 56.611835077974789 0 0 -1 0 0 0 0 1 forward_v I I I I #
coedge $-1 $169 $167 $171 $253 reversed $104 $-1 #
edge $-1 $182 -19.506904779688305 $255 19.506904779688305 $181 $323 forward 7 unknown #
vertex $-1 $253 $324 #
straight-curve $-1 -56.611835077974789 -39.548982719501957 0 0 0 -1 I I #
edge $-1 $251 -39.548982719501957 $255 39.548982719501957 $249 $325 forward 7 unknown #
straight-curve $-1 0 -39.548982719501957 -19.506904779688305 -1 0 0 I I #
vertex $-1 $174 $326 #
straight-curve $-1 0 39.548982719501957 -19.506904779688305 1 0 0 I I #
point $-1 56.611835077974789 39.548982719501957 -19.506904779688305 #
point $-1 56.611835077974789 -39.548982719501957 -19.506904779688305 #
straight-curve $-1 -56.611835077974789 0 19.506904779688305 0 -1 0 I I #
point $-1 -56.611835077974789 39.548982719501957 19.506904779688305 #
point $-1 -56.611835077974789 -39.548982719501957 19.506904779688305 #
straight-curve $-1 56.611835077974789 -39.548982719501957 0 0 0 -1 I I #
straight-curve $-1 56.611835077974789 39.548982719501957 0 0 0 -1 I I #
face $-1 $327 $273 $16 $-1 $328 reversed single #
loop $-1 $-1 $329 $191 #
plane-surface $-1 0 -39.548982719501957 0 0 1 0 0 0 1 forward_v I I I I #
coedge $-1 $330 $331 $332 $333 forward $192 $-1 #
coedge $-1 $194 $205 $331 $334 reversed $72 $-1 #
coedge $-1 $335 $196 $194 $270 forward $273 $-1 #
edge $-1 $198 -12.859134232805074 $336 19.506904779688305 $194 $337 forward 7 unknown #
edge $-1 $200 9.048270274319151 $274 34.725133293876809 $202 $338 forward 7 unknown #
coedge $-1 $196 $339 $278 $340 reversed $273 $-1 #
loop $-1 $-1 $196 $264 #
vertex $-1 $340 $341 #
straight-curve $-1 -56.611835077974789 1.6212002482843477 45.829253233732125 0 0.75470957328743171 -0.6560590369687036 I I #
point $-1 -56.611835077974789 39.548982719501957 12.859134232805074 #
point $-1 -30.934972058417131 31.901597667186401 19.506904779688305 #
coedge $-1 $342 $202 $272 $340 forward $123 $-1 #
coedge $-1 $203 $342 $343 $344 forward $123 $-1 #
coedge $-1 $343 $332 $205 $281 reversed $345 $-1 #
edge $-1 $282 -19.506904779688305 $346 19.506904779688305 $280 $347 forward 7 unknown #
vertex $-1 $344 $348 #
straight-curve $-1 0 39.548982719501957 19.506904779688305 -1 0 0 I I #
face $-1 $349 $350 $17 $-1 $351 reversed single #
loop $-1 $-1 $291 $209 #
plane-surface $-1 0 0 19.506904779688305 0 0 1 1 0 0 forward_v I I I I #
coedge $-1 $215 $352 $288 $353 forward $210 $-1 #
coedge $-1 $354 $289 $287 $353 reversed $212 $-1 #
coedge $-1 $288 $355 $213 $290 reversed $212 $-1 #
edge $-1 $294 -79.097965439003929 $356 -68.965080786429027 $213 $357 forward 7 unknown #
coedge $-1 $358 $359 $214 $292 forward $285 $-1 #
edge $-1 $295 -12.481781229651101 $356 -4.8343961773355453 $291 $360 forward 7 unknown #
coedge $-1 $361 $215 $359 $362 reversed $210 $-1 #
vertex $-1 $353 $363 #
vertex $-1 $292 $364 #
straight-curve $-1 -30.934972058417131 39.548982719501957 75.101528527167702 0 0 1 I I #
vertex $-1 $217 $365 #
point $-1 -48.976462474063254 32.215143092109138 12.145057262498831 #
face $-1 $366 $367 $18 $-1 $368 reversed single #
plane-surface $-1 -43.77340356819596 -20.147009024872709 64.752069264901778 0 0.6560590369687036 0.75470957328743171 1 0 0 forward_v I I I I #
coedge $-1 $369 $370 $371 $372 reversed $222 $-1 #
coedge $-1 $302 $302 $-1 $373 forward $224 $-1 #
edge $-1 $374 0 $374 6.2831853071796004 $225 $375 forward 7 unknown #
vertex $-1 $228 $376 #
ellipse-curve $-1 -51.476462474063254 35.725290193344172 16.183019506246691 0 -0.6560590369687036 -0.75470957328743171 2.5 0 0 1 I I #
vertex $-1 $229 $377 #
point $-1 -41.27340356819596 32.215143092109138 12.145057262498831 #
loop $-1 $-1 $378 $221 #
face $-1 $246 $379 $19 $-1 $380 forward single #
loop $-1 $381 $382 $234 #
cone-surface $-1 -51.476462474063254 31.39506929589826 11.201670295889542 0 -0.6560590369687036 -0.75470957328743171 1.25 0 0 1 I I -0.70710678118654746 0.70710678118654746 1.25 forward I I I I #
loop $-1 $-1 $383 $154 #
coedge $-1 $313 $313 $384 $385 reversed $235 $-1 #
coedge $-1 $314 $314 $-1 $386 forward $237 $-1 #
edge $-1 $387 0 $387 6.2831853071796004 $238 $388 forward 7 unknown #
vertex $-1 $241 $389 #
ellipse-curve $-1 -43.77340356819596 35.725290193344172 16.183019506246691 0 -0.6560590369687036 -0.75470957328743171 2.5 0 0 1 I I #
vertex $-1 $242 $390 #
point $-1 -33.570344662328665 32.215143092109138 12.145057262498831 #
loop $-1 $391 $384 $246 #
face $-1 $392 $393 $19 $-1 $394 reversed single #
plane-surface $-1 -43.77340356819596 -20.147009024872709 64.752069264901778 0 0.6560590369687036 0.75470957328743171 1 0 0 forward_v I I I I #
straight-curve $-1 -56.611835077974789 39.548982719501957 0 0 0 -1 I I #
point $-1 -56.611835077974789 -39.548982719501957 -19.506904779688305 #
straight-curve $-1 -56.611835077974789 0 -19.506904779688305 0 1 0 I I #
point $-1 -56.611835077974789 39.548982719501957 -19.506904779688305 #
face $-1 $-1 $345 $16 $-1 $395 reversed single #
plane-surface $-1 -56.611835077974789 0 0 1 0 0 0 0 -1 forward_v I I I I #
coedge $-1 $396 $397 $339 $398 forward $265 $-1 #
coedge $-1 $399 $267 $396 $400 forward $192 $-1 #
coedge $-1 $267 $399 $268 $334 forward $192 $-1 #
coedge $-1 $280 $401 $267 $333 reversed $345 $-1 #
edge $-1 $346 -39.548982719501957 $402 39.548982719501957 $332 $403 forward 7 unknown #
edge $-1 $336 -56.611835077974789 $346 56.611835077974789 $268 $404 forward 7 unknown #
coedge $-1 $339 $269 $399 $405 reversed $273 $-1 #
vertex $-1 $334 $406 #
straight-curve $-1 -56.611835077974789 39.548982719501957 0 0 0 -1 I I #
straight-curve $-1 -21.88670178409798 31.901597667186383 19.506904779688313 -1 0 0 I I #
coedge $-1 $272 $335 $329 $398 reversed $273 $-1 #
edge $-1 $274 -31.901597667186401 $407 39.548982719501957 $272 $408 forward 7 unknown #
point $-1 -56.611835077974789 31.901597667186401 19.506904779688305 #
coedge $-1 $279 $278 $397 $409 forward $123 $-1 #
coedge $-1 $401 $280 $279 $344 reversed $345 $-1 #
edge $-1 $410 -39.548982719501957 $282 39.548982719501957 $343 $411 forward 7 unknown #
loop $-1 $-1 $401 $327 #
vertex $-1 $333 $412 #
straight-curve $-1 56.611835077974789 39.548982719501957 0 0 0 -1 I I #
point $-1 56.611835077974789 39.548982719501957 19.506904779688305 #
face $-1 $413 $414 $17 $-1 $415 reversed single #
loop $-1 $-1 $416 $284 #
plane-surface $-1 0 0 -19.506904779688305 0 0 1 1 0 0 forward_v I I I I #
coedge $-1 $287 $417 $418 $419 reversed $210 $-1 #
edge $-1 $420 -34.725133293876809 $294 -9.048270274319151 $287 $421 forward 7 unknown #
coedge $-1 $355 $288 $422 $423 reversed $212 $-1 #
coedge $-1 $289 $354 $358 $424 reversed $212 $-1 #
vertex $-1 $424 $425 #
straight-curve $-1 -30.934972058417131 -20.147009024872709 64.752069264901778 0 -0.75470957328743171 0.6560590369687036 I I #
coedge $-1 $426 $291 $355 $424 forward $285 $-1 #
coedge $-1 $291 $427 $293 $362 forward $285 $-1 #
straight-curve $-1 -30.934972058417131 27.067201489850856 19.506904779688313 0 -1 0 I I #
coedge $-1 $417 $293 $428 $429 forward $210 $-1 #
edge $-1 $430 -56.611835077974789 $295 30.934972058417131 $293 $431 forward 7 unknown #
point $-1 -30.934972058417131 39.548982719501957 12.859134232805069 #
point $-1 -30.934972058417131 39.548982719501957 19.506904779688305 #
point $-1 -51.476462474063254 30.574995499687379 10.258283329280253 #
face $-1 $432 $433 $18 $-1 $434 forward single #
loop $-1 $-1 $435 $299 #
plane-surface $-1 0 39.548982719501957 0 0 -1 0 0 0 -1 forward_v I I I I #
coedge $-1 $370 $301 $436 $437 forward $222 $-1 #
coedge $-1 $301 $369 $438 $439 reversed $222 $-1 #
coedge $-1 $440 $435 $301 $372 forward $367 $-1 #
edge $-1 $441 -62.242394294362633 $442 -55.594623747479396 $371 $443 forward 7 unknown #
edge $-1 $444 1 $444 0 $302 $-1 forward 7 unknown #
vertex $-1 $303 $445 #
ellipse-curve $-1 -51.476462474063254 32.215143092109138 12.145057262498831 0 0.6560590369687036 0.75470957328743171 2.5 0 0 1 I I #
point $-1 -48.976462474063254 35.725290193344172 16.183019506246691 #
point $-1 -43.77340356819596 30.574995499687379 10.258283329280253 #
coedge $-1 $446 $436 $435 $447 reversed $308 $-1 #
loop $-1 $-1 $448 $309 #
plane-surface $-1 -30.934972058417131 54.134402979701711 150.2030570543354 -1 0 0 0 0.6560590369687036 0.75470957328743171 forward_v I I I I #
loop $-1 $-1 $449 $234 #
coedge $-1 $382 $382 $383 $450 forward $310 $-1 #
coedge $-1 $383 $383 $382 $450 reversed $312 $-1 #
coedge $-1 $384 $384 $313 $385 forward $320 $-1 #
edge $-1 $451 0 $451 6.2831853071796004 $384 $452 forward 7 unknown #
edge $-1 $453 1 $453 0 $314 $-1 forward 7 unknown #
vertex $-1 $315 $454 #
ellipse-curve $-1 -43.77340356819596 32.215143092109138 12.145057262498831 0 0.6560590369687036 0.75470957328743171 2.5 0 0 1 I I #
point $-1 -41.27340356819596 35.725290193344172 16.183019506246691 #
point $-1 -36.070344662328665 30.574995499687379 10.258283329280253 #
loop $-1 $-1 $455 $246 #
face $-1 $456 $457 $19 $-1 $458 forward single #
loop $-1 $-1 $459 $321 #
plane-surface $-1 0 39.548982719501957 0 0 -1 0 0 0 -1 forward_v I I I I #
plane-surface $-1 56.611835077974789 0 0 -1 0 0 0 0 1 forward_v I I I I #
coedge $-1 $460 $329 $330 $400 reversed $265 $-1 #
coedge $-1 $329 $460 $342 $409 reversed $265 $-1 #
edge $-1 $407 -19.506904779688305 $461 19.506904779688305 $339 $462 forward 7 unknown #
coedge $-1 $331 $330 $335 $405 forward $192 $-1 #
edge $-1 $402 -56.611835077974789 $461 56.611835077974789 $396 $463 forward 7 unknown #
coedge $-1 $332 $343 $460 $464 forward $345 $-1 #
vertex $-1 $464 $465 #
straight-curve $-1 56.611835077974789 0 -19.506904779688305 0 -1 0 I I #
straight-curve $-1 0 39.548982719501957 -19.506904779688305 1 0 0 I I #
edge $-1 $461 -39.548982719501957 $336 39.548982719501957 $335 $466 forward 7 unknown #
point $-1 -56.611835077974789 39.548982719501957 -19.506904779688305 #
vertex $-1 $340 $467 #
straight-curve $-1 -56.611835077974789 0 19.506904779688305 0 -1 0 I I #
edge $-1 $407 -56.611835077974789 $410 56.611835077974789 $397 $468 forward 7 unknown #
vertex $-1 $344 $469 #
straight-curve $-1 56.611835077974789 0 19.506904779688305 0 1 0 I I #
point $-1 56.611835077974789 39.548982719501957 -19.506904779688305 #
face $-1 $470 $471 $17 $-1 $472 reversed single #
loop $-1 $-1 $473 $349 #
plane-surface $-1 0 -39.548982719501957 0 0 1 0 0 0 1 forward_v I I I I #
coedge $-1 $474 $475 $476 $477 forward $350 $-1 #
coedge $-1 $352 $361 $475 $478 reversed $210 $-1 #
coedge $-1 $479 $422 $352 $419 forward $471 $-1 #
edge $-1 $420 -12.859134232805074 $480 19.506904779688305 $352 $481 forward 7 unknown #
vertex $-1 $419 $482 #
straight-curve $-1 -21.88670178409798 39.54898271950195 12.859134232805072 1 0 0 I I #
coedge $-1 $418 $483 $354 $423 forward $471 $-1 #
edge $-1 $484 40.121920392508052 $420 50.254805045082932 $422 $485 forward 7 unknown #
edge $-1 $356 9.048270274319151 $484 34.725133293876809 $358 $486 forward 7 unknown #
point $-1 -30.934972058417131 31.901597667186401 19.506904779688305 #
coedge $-1 $487 $358 $483 $488 forward $285 $-1 #
coedge $-1 $359 $487 $489 $490 forward $285 $-1 #
coedge $-1 $489 $476 $361 $429 reversed $491 $-1 #
edge $-1 $430 -19.506904779688305 $492 19.506904779688305 $428 $493 forward 7 unknown #
vertex $-1 $490 $494 #
straight-curve $-1 0 39.548982719501957 19.506904779688305 -1 0 0 I I #
face $-1 $495 $496 $18 $-1 $497 reversed single #
loop $-1 $-1 $438 $366 #
plane-surface $-1 0 0 19.506904779688305 0 0 1 1 0 0 forward_v I I I I #
coedge $-1 $371 $498 $378 $447 forward $367 $-1 #
coedge $-1 $378 $499 $369 $437 reversed $308 $-1 #
edge $-1 $441 -79.097965439003929 $500 -68.965080786429027 $369 $501 forward 7 unknown #
coedge $-1 $502 $503 $370 $439 forward $433 $-1 #
edge $-1 $442 -12.481781229651101 $500 -4.8343961773355453 $438 $504 forward 7 unknown #
coedge $-1 $505 $371 $503 $506 reversed $367 $-1 #
vertex $-1 $447 $507 #
vertex $-1 $439 $508 #
straight-curve $-1 -30.934972058417131 39.548982719501957 75.101528527167702 0 0 1 I I #
vertex $-1 $373 $509 #
point $-1 -48.976462474063254 32.215143092109138 12.145057262498831 #
coedge $-1 $499 $378 $510 $511 reversed $308 $-1 #
edge $-1 $512 -34.725133293876809 $441 -9.048270274319151 $435 $513 forward 7 unknown #
coedge $-1 $514 $515 $516 $517 reversed $379 $-1 #
coedge $-1 $449 $449 $-1 $518 forward $381 $-1 #
edge $-1 $519 0 $519 6.2831853071796004 $382 $520 forward 7 unknown #
vertex $-1 $385 $521 #
ellipse-curve $-1 -51.476462474063254 35.725290193344172 16.183019506246691 0 -0.6560590369687036 -0.75470957328743171 2.5 0 0 1 I I #
vertex $-1 $386 $522 #
point $-1 -41.27340356819596 32.215143092109138 12.145057262498831 #
coedge $-1 $523 $524 $459 $525 reversed $391 $-1 #
face $-1 $526 $527 $19 $-1 $528 reversed single #
loop $-1 $-1 $529 $392 #
plane-surface $-1 0 0 19.506904779688305 0 0 1 1 0 0 forward_v I I I I #
coedge $-1 $516 $530 $455 $525 forward $393 $-1 #
coedge $-1 $397 $396 $401 $464 reversed $265 $-1 #
vertex $-1 $405 $531 #
straight-curve $-1 -56.611835077974789 -39.548982719501957 0 0 0 -1 I I #
straight-curve $-1 0 -39.548982719501957 -19.506904779688305 -1 0 0 I I #
edge $-1 $410 -19.506904779688305 $402 19.506904779688305 $401 $532 forward 7 unknown #
point $-1 56.611835077974789 -39.548982719501957 -19.506904779688305 #
straight-curve $-1 -56.611835077974789 0 -19.506904779688305 0 1 0 I I #
point $-1 -56.611835077974789 -39.548982719501957 19.506904779688305 #
straight-curve $-1 0 -39.548982719501957 19.506904779688305 1 0 0 I I #
point $-1 56.611835077974789 -39.548982719501957 19.506904779688305 #
face $-1 $-1 $491 $17 $-1 $533 reversed single #
loop $-1 $-1 $422 $413 #
plane-surface $-1 -56.611835077974789 0 0 1 0 0 0 0 -1 forward_v I I I I #
coedge $-1 $534 $535 $536 $537 forward $414 $-1 #
coedge $-1 $538 $416 $534 $539 forward $350 $-1 #
coedge $-1 $416 $538 $417 $478 forward $350 $-1 #
coedge $-1 $428 $540 $416 $477 reversed $491 $-1 #
edge $-1 $492 -39.548982719501957 $541 39.548982719501957 $476 $542 forward 7 unknown #
edge $-1 $480 -56.611835077974789 $492 56.611835077974789 $417 $543 forward 7 unknown #
coedge $-1 $536 $418 $538 $544 reversed $471 $-1 #
vertex $-1 $478 $545 #
straight-curve $-1 -56.611835077974789 39.548982719501957 0 0 0 -1 I I #
point $-1 -56.611835077974789 39.548982719501957 12.859134232805074 #
coedge $-1 $422 $536 $426 $488 reversed $471 $-1 #
vertex $-1 $488 $546 #
straight-curve $-1 -56.611835077974789 1.6212002482843477 45.829253233732125 0 0.75470957328743171 -0.6560590369687036 I I #
straight-curve $-1 -21.88670178409798 31.901597667186383 19.506904779688313 -1 0 0 I I #
coedge $-1 $427 $426 $535 $547 forward $285 $-1 #
edge $-1 $484 -31.901597667186401 $548 39.548982719501957 $483 $549 forward 7 unknown #
coedge $-1 $540 $428 $427 $490 reversed $491 $-1 #
edge $-1 $550 -39.548982719501957 $430 39.548982719501957 $489 $551 forward 7 unknown #
loop $-1 $-1 $540 $470 #
vertex $-1 $477 $552 #
straight-curve $-1 56.611835077974789 39.548982719501957 0 0 0 -1 I I #
point $-1 56.611835077974789 39.548982719501957 19.506904779688305 #
face $-1 $553 $554 $18 $-1 $555 reversed single #
loop $-1 $-1 $556 $432 #
plane-surface $-1 0 0 -19.506904779688305 0 0 1 1 0 0 forward_v I I I I #
coedge $-1 $435 $557 $558 $559 reversed $367 $-1 #
coedge $-1 $436 $446 $502 $560 reversed $308 $-1 #
vertex $-1 $560 $561 #
straight-curve $-1 -30.934972058417131 -20.147009024872709 64.752069264901778 0 -0.75470957328743171 0.6560590369687036 I I #
coedge $-1 $562 $438 $499 $560 forward $433 $-1 #
coedge $-1 $438 $563 $440 $506 forward $433 $-1 #
straight-curve $-1 -30.934972058417131 27.067201489850856 19.506904779688313 0 -1 0 I I #
coedge $-1 $557 $440 $564 $565 forward $367 $-1 #
edge $-1 $566 -56.611835077974789 $442 30.934972058417131 $440 $567 forward 7 unknown #
point $-1 -30.934972058417131 39.548982719501957 12.859134232805069 #
point $-1 -30.934972058417131 39.548982719501957 19.506904779688305 #
point $-1 -51.476462474063254 30.574995499687379 10.258283329280253 #
coedge $-1 $558 $568 $446 $511 forward $569 $-1 #
edge $-1 $570 40.121920392508052 $512 50.254805045082932 $510 $571 forward 7 unknown #
vertex $-1 $559 $572 #
straight-curve $-1 -21.88670178409798 39.54898271950195 12.859134232805072 1 0 0 I I #
coedge $-1 $515 $448 $524 $573 forward $379 $-1 #
coedge $-1 $448 $514 $529 $574 reversed $379 $-1 #
coedge $-1 $575 $459 $448 $517 forward $393 $-1 #
edge $-1 $576 -62.242394294362633 $577 -55.594623747479396 $516 $578 forward 7 unknown #
edge $-1 $579 1 $579 0 $449 $-1 forward 7 unknown #
vertex $-1 $450 $580 #
ellipse-curve $-1 -51.476462474063254 32.215143092109138 12.145057262498831 0 0.6560590369687036 0.75470957328743171 2.5 0 0 1 I I #
point $-1 -48.976462474063254 35.725290193344172 16.183019506246691 #
point $-1 -43.77340356819596 30.574995499687379 10.258283329280253 #
coedge $-1 $581 $455 $582 $583 reversed $391 $-1 #
coedge $-1 $455 $581 $514 $573 reversed $391 $-1 #
edge $-1 $584 -34.725133293876809 $576 -9.048270274319151 $459 $585 forward 7 unknown #
face $-1 $586 $587 $19 $-1 $588 reversed single #
loop $-1 $-1 $589 $456 #
plane-surface $-1 0 0 -19.506904779688305 0 0 1 1 0 0 forward_v I I I I #
coedge $-1 $590 $591 $515 $574 forward $457 $-1 #
coedge $-1 $459 $592 $593 $594 reversed $393 $-1 #
point $-1 -56.611835077974789 -39.548982719501957 -19.506904779688305 #
straight-curve $-1 56.611835077974789 -39.548982719501957 0 0 0 -1 I I #
plane-surface $-1 56.611835077974789 0 0 -1 0 0 0 0 1 forward_v I I I I #
coedge $-1 $595 $473 $474 $539 reversed $414 $-1 #
coedge $-1 $473 $595 $487 $547 reversed $414 $-1 #
coedge $-1 $483 $479 $473 $537 reversed $471 $-1 #
edge $-1 $548 -19.506904779688305 $596 19.506904779688305 $536 $597 forward 7 unknown #
coedge $-1 $475 $474 $479 $544 forward $350 $-1 #
edge $-1 $541 -56.611835077974789 $596 56.611835077974789 $534 $598 forward 7 unknown #
coedge $-1 $476 $489 $595 $599 forward $491 $-1 #
vertex $-1 $599 $600 #
straight-curve $-1 56.611835077974789 0 -19.506904779688305 0 -1 0 I I #
straight-curve $-1 0 39.548982719501957 -19.506904779688305 1 0 0 I I #
edge $-1 $596 -39.548982719501957 $480 39.548982719501957 $479 $601 forward 7 unknown #
point $-1 -56.611835077974789 39.548982719501957 -19.506904779688305 #
point $-1 -56.611835077974789 31.901597667186401 19.506904779688305 #
edge $-1 $548 -56.611835077974789 $550 56.611835077974789 $535 $602 forward 7 unknown #
vertex $-1 $488 $603 #
straight-curve $-1 -56.611835077974789 0 19.506904779688305 0 -1 0 I I #
vertex $-1 $490 $604 #
straight-curve $-1 56.611835077974789 0 19.506904779688305 0 1 0 I I #
point $-1 56.611835077974789 39.548982719501957 -19.506904779688305 #
face $-1 $605 $569 $18 $-1 $606 reversed single #
loop $-1 $-1 $607 $495 #
plane-surface $-1 0 -39.548982719501957 0 0 1 0 0 0 1 forward_v I I I I #
coedge $-1 $608 $609 $610 $611 forward $496 $-1 #
coedge $-1 $498 $505 $609 $612 reversed $367 $-1 #
coedge $-1 $613 $510 $498 $559 forward $569 $-1 #
edge $-1 $512 -12.859134232805074 $614 19.506904779688305 $498 $615 forward 7 unknown #
edge $-1 $500 9.048270274319151 $570 34.725133293876809 $502 $616 forward 7 unknown #
point $-1 -30.934972058417131 31.901597667186401 19.506904779688305 #
coedge $-1 $617 $502 $568 $618 forward $433 $-1 #
coedge $-1 $503 $617 $619 $620 forward $433 $-1 #
coedge $-1 $619 $610 $505 $565 reversed $621 $-1 #
edge $-1 $566 -19.506904779688305 $622 19.506904779688305 $564 $623 forward 7 unknown #
vertex $-1 $620 $624 #
straight-curve $-1 0 39.548982719501957 19.506904779688305 -1 0 0 I I #
coedge $-1 $510 $625 $562 $618 reversed $569 $-1 #
loop $-1 $-1 $510 $553 #
vertex $-1 $618 $626 #
straight-curve $-1 -56.611835077974789 1.6212002482843477 45.829253233732125 0 0.75470957328743171 -0.6560590369687036 I I #
point $-1 -56.611835077974789 39.548982719501957 12.859134232805074 #
edge $-1 $576 -79.097965439003929 $627 -68.965080786429027 $514 $628 forward 7 unknown #
edge $-1 $577 -12.481781229651101 $627 -4.8343961773355453 $529 $629 forward 7 unknown #
coedge $-1 $630 $516 $591 $631 reversed $393 $-1 #
vertex $-1 $525 $632 #
vertex $-1 $574 $633 #
straight-curve $-1 -30.934972058417131 39.548982719501957 75.101528527167702 0 0 1 I I #
vertex $-1 $518 $634 #
point $-1 -48.976462474063254 32.215143092109138 12.145057262498831 #
coedge $-1 $524 $523 $590 $635 reversed $391 $-1 #
coedge $-1 $593 $636 $523 $583 forward $637 $-1 #
edge $-1 $638 40.121920392508052 $584 50.254805045082932 $582 $639 forward 7 unknown #
vertex $-1 $594 $640 #
straight-curve $-1 -21.88670178409798 39.54898271950195 12.859134232805072 1 0 0 I I #
face $-1 $641 $637 $19 $-1 $642 reversed single #
loop $-1 $-1 $643 $526 #
plane-surface $-1 0 -39.548982719501957 0 0 1 0 0 0 1 forward_v I I I I #
coedge $-1 $644 $645 $646 $647 forward $527 $-1 #
coedge $-1 $648 $529 $581 $635 forward $457 $-1 #
coedge $-1 $529 $649 $575 $631 forward $457 $-1 #
coedge $-1 $530 $630 $645 $650 reversed $393 $-1 #
coedge $-1 $651 $582 $530 $594 forward $637 $-1 #
edge $-1 $584 -12.859134232805074 $652 19.506904779688305 $530 $653 forward 7 unknown #
coedge $-1 $535 $534 $540 $599 reversed $414 $-1 #
vertex $-1 $544 $654 #
straight-curve $-1 -56.611835077974789 -39.548982719501957 0 0 0 -1 I I #
straight-curve $-1 0 -39.548982719501957 -19.506904779688305 -1 0 0 I I #
edge $-1 $550 -19.506904779688305 $541 19.506904779688305 $540 $655 forward 7 unknown #
point $-1 56.611835077974789 -39.548982719501957 -19.506904779688305 #
straight-curve $-1 -56.611835077974789 0 -19.506904779688305 0 1 0 I I #
straight-curve $-1 0 -39.548982719501957 19.506904779688305 1 0 0 I I #
point $-1 -56.611835077974789 -39.548982719501957 19.506904779688305 #
point $-1 56.611835077974789 -39.548982719501957 19.506904779688305 #
face $-1 $-1 $621 $18 $-1 $656 reversed single #
plane-surface $-1 -56.611835077974789 0 0 1 0 0 0 0 -1 forward_v I I I I #
coedge $-1 $657 $658 $625 $659 forward $554 $-1 #
coedge $-1 $660 $556 $657 $661 forward $496 $-1 #
coedge $-1 $556 $660 $557 $612 forward $496 $-1 #
coedge $-1 $564 $662 $556 $611 reversed $621 $-1 #
edge $-1 $622 -39.548982719501957 $663 39.548982719501957 $610 $664 forward 7 unknown #
edge $-1 $614 -56.611835077974789 $622 56.611835077974789 $557 $665 forward 7 unknown #
coedge $-1 $625 $558 $660 $666 reversed $569 $-1 #
vertex $-1 $612 $667 #
straight-curve $-1 -56.611835077974789 39.548982719501957 0 0 0 -1 I I #
straight-curve $-1 -21.88670178409798 31.901597667186383 19.506904779688313 -1 0 0 I I #
coedge $-1 $563 $562 $658 $668 forward $433 $-1 #
edge $-1 $570 -31.901597667186401 $669 39.548982719501957 $568 $670 forward 7 unknown #
coedge $-1 $662 $564 $563 $620 reversed $621 $-1 #
edge $-1 $671 -39.548982719501957 $566 39.548982719501957 $619 $672 forward 7 unknown #
loop $-1 $-1 $662 $605 #
vertex $-1 $611 $673 #
straight-curve $-1 56.611835077974789 39.548982719501957 0 0 0 -1 I I #
point $-1 56.611835077974789 39.548982719501957 19.506904779688305 #
coedge $-1 $568 $613 $607 $659 reversed $569 $-1 #
point $-1 -56.611835077974789 31.901597667186401 19.506904779688305 #
vertex $-1 $635 $674 #
straight-curve $-1 -30.934972058417131 -20.147009024872709 64.752069264901778 0 -0.75470957328743171 0.6560590369687036 I I #
straight-curve $-1 -30.934972058417131 27.067201489850856 19.506904779688313 0 -1 0 I I #
coedge $-1 $592 $575 $675 $676 forward $393 $-1 #
edge $-1 $677 -56.611835077974789 $577 30.934972058417131 $575 $678 forward 7 unknown #
point $-1 -30.934972058417131 39.548982719501957 12.859134232805069 #
point $-1 -30.934972058417131 39.548982719501957 19.506904779688305 #
point $-1 -51.476462474063254 30.574995499687379 10.258283329280253 #
edge $-1 $627 9.048270274319151 $638 34.725133293876809 $590 $679 forward 7 unknown #
coedge $-1 $582 $680 $648 $681 reversed $637 $-1 #
loop $-1 $-1 $582 $586 #
vertex $-1 $681 $682 #
straight-curve $-1 -56.611835077974789 1.6212002482843477 45.829253233732125 0 0.75470957328743171 -0.6560590369687036 I I #
point $-1 -56.611835077974789 39.548982719501957 12.859134232805074 #
face $-1 $-1 $683 $19 $-1 $684 reversed single #
plane-surface $-1 -56.611835077974789 0 0 1 0 0 0 0 -1 forward_v I I I I #
coedge $-1 $685 $686 $680 $687 forward $587 $-1 #
coedge $-1 $688 $589 $685 $689 forward $527 $-1 #
coedge $-1 $589 $688 $592 $650 forward $527 $-1 #
coedge $-1 $675 $690 $589 $647 reversed $683 $-1 #
edge $-1 $691 -39.548982719501957 $692 39.548982719501957 $646 $693 forward 7 unknown #
coedge $-1 $694 $590 $636 $681 forward $457 $-1 #
coedge $-1 $591 $694 $695 $696 forward $457 $-1 #
edge $-1 $652 -56.611835077974789 $691 56.611835077974789 $592 $697 forward 7 unknown #
coedge $-1 $680 $593 $688 $698 reversed $637 $-1 #
vertex $-1 $650 $699 #
straight-curve $-1 -56.611835077974789 39.548982719501957 0 0 0 -1 I I #
point $-1 -56.611835077974789 -39.548982719501957 -19.506904779688305 #
straight-curve $-1 56.611835077974789 -39.548982719501957 0 0 0 -1 I I #
plane-surface $-1 56.611835077974789 0 0 -1 0 0 0 0 1 forward_v I I I I #
coedge $-1 $700 $607 $608 $661 reversed $554 $-1 #
coedge $-1 $607 $700 $617 $668 reversed $554 $-1 #
edge $-1 $669 -19.506904779688305 $701 19.506904779688305 $625 $702 forward 7 unknown #
coedge $-1 $609 $608 $613 $666 forward $496 $-1 #
edge $-1 $663 -56.611835077974789 $701 56.611835077974789 $657 $703 forward 7 unknown #
coedge $-1 $610 $619 $700 $704 forward $621 $-1 #
vertex $-1 $704 $705 #
straight-curve $-1 56.611835077974789 0 -19.506904779688305 0 -1 0 I I #
straight-curve $-1 0 39.548982719501957 -19.506904779688305 1 0 0 I I #
edge $-1 $701 -39.548982719501957 $614 39.548982719501957 $613 $706 forward 7 unknown #
point $-1 -56.611835077974789 39.548982719501957 -19.506904779688305 #
edge $-1 $669 -56.611835077974789 $671 56.611835077974789 $658 $707 forward 7 unknown #
vertex $-1 $618 $708 #
straight-curve $-1 -56.611835077974789 0 19.506904779688305 0 -1 0 I I #
vertex $-1 $620 $709 #
straight-curve $-1 56.611835077974789 0 19.506904779688305 0 1 0 I I #
point $-1 56.611835077974789 39.548982719501957 -19.506904779688305 #
point $-1 -30.934972058417131 31.901597667186401 19.506904779688305 #
coedge $-1 $695 $646 $630 $676 reversed $683 $-1 #
edge $-1 $677 -19.506904779688305 $691 19.506904779688305 $675 $710 forward 7 unknown #
vertex $-1 $696 $711 #
straight-curve $-1 0 39.548982719501957 19.506904779688305 -1 0 0 I I #
straight-curve $-1 -21.88670178409798 31.901597667186383 19.506904779688313 -1 0 0 I I #
coedge $-1 $636 $651 $643 $687 reversed $637 $-1 #
edge $-1 $638 -31.901597667186401 $712 39.548982719501957 $636 $713 forward 7 unknown #
point $-1 -56.611835077974789 31.901597667186401 19.506904779688305 #
loop $-1 $-1 $690 $641 #
plane-surface $-1 56.611835077974789 0 0 -1 0 0 0 0 1 forward_v I I I I #
coedge $-1 $714 $643 $644 $689 reversed $587 $-1 #
coedge $-1 $643 $714 $694 $715 reversed $587 $-1 #
edge $-1 $712 -19.506904779688305 $716 19.506904779688305 $680 $717 forward 7 unknown #
coedge $-1 $645 $644 $651 $698 forward $527 $-1 #
edge $-1 $692 -56.611835077974789 $716 56.611835077974789 $685 $718 forward 7 unknown #
coedge $-1 $646 $695 $714 $719 forward $683 $-1 #
vertex $-1 $647 $720 #
vertex $-1 $719 $721 #
straight-curve $-1 56.611835077974789 0 -19.506904779688305 0 -1 0 I I #
coedge $-1 $649 $648 $686 $715 forward $457 $-1 #
coedge $-1 $690 $675 $649 $696 reversed $683 $-1 #
edge $-1 $722 -39.548982719501957 $677 39.548982719501957 $695 $723 forward 7 unknown #
straight-curve $-1 0 39.548982719501957 -19.506904779688305 1 0 0 I I #
edge $-1 $716 -39.548982719501957 $652 39.548982719501957 $651 $724 forward 7 unknown #
point $-1 -56.611835077974789 39.548982719501957 -19.506904779688305 #
coedge $-1 $658 $657 $662 $704 reversed $554 $-1 #
vertex $-1 $666 $725 #
straight-curve $-1 -56.611835077974789 -39.548982719501957 0 0 0 -1 I I #
straight-curve $-1 0 -39.548982719501957 -19.506904779688305 -1 0 0 I I #
edge $-1 $671 -19.506904779688305 $663 19.506904779688305 $662 $726 forward 7 unknown #
point $-1 56.611835077974789 -39.548982719501957 -19.506904779688305 #
straight-curve $-1 -56.611835077974789 0 -19.506904779688305 0 1 0 I I #
straight-curve $-1 0 -39.548982719501957 19.506904779688305 1 0 0 I I #
point $-1 -56.611835077974789 -39.548982719501957 19.506904779688305 #
point $-1 56.611835077974789 -39.548982719501957 19.506904779688305 #
straight-curve $-1 56.611835077974789 39.548982719501957 0 0 0 -1 I I #
point $-1 56.611835077974789 39.548982719501957 19.506904779688305 #
vertex $-1 $681 $727 #
straight-curve $-1 -56.611835077974789 0 19.506904779688305 0 -1 0 I I #
coedge $-1 $686 $685 $690 $719 reversed $587 $-1 #
edge $-1 $712 -56.611835077974789 $722 56.611835077974789 $686 $728 forward 7 unknown #
vertex $-1 $698 $729 #
straight-curve $-1 -56.611835077974789 -39.548982719501957 0 0 0 -1 I I #
straight-curve $-1 0 -39.548982719501957 -19.506904779688305 -1 0 0 I I #
edge $-1 $722 -19.506904779688305 $692 19.506904779688305 $690 $730 forward 7 unknown #
point $-1 56.611835077974789 39.548982719501957 -19.506904779688305 #
point $-1 56.611835077974789 -39.548982719501957 -19.506904779688305 #
vertex $-1 $696 $731 #
straight-curve $-1 56.611835077974789 0 19.506904779688305 0 1 0 I I #
straight-curve $-1 -56.611835077974789 0 -19.506904779688305 0 1 0 I I #
point $-1 -56.611835077974789 -39.548982719501957 -19.506904779688305 #
straight-curve $-1 56.611835077974789 -39.548982719501957 0 0 0 -1 I I #
point $-1 -56.611835077974789 -39.548982719501957 19.506904779688305 #
straight-curve $-1 0 -39.548982719501957 19.506904779688305 1 0 0 I I #
point $-1 -56.611835077974789 -39.548982719501957 -19.506904779688305 #
straight-curve $-1 56.611835077974789 -39.548982719501957 0 0 0 -1 I I #
point $-1 56.611835077974789 -39.548982719501957 19.506904779688305 #
End-of-ACIS-data 