500 0 16 0           
7 Unknown 11 ACIS 5.0 NT 24 Fri Mar 26 19:27:38 1999 
-1 9.9999999999999995e-007 1e-010 
body $-1 $16 $-1 $17 #
body $-1 $18 $-1 $19 #
body $-1 $20 $-1 $21 #
body $-1 $22 $-1 $23 #
body $-1 $24 $-1 $25 #
body $-1 $26 $-1 $27 #
body $-1 $28 $-1 $29 #
body $-1 $30 $-1 $31 #
body $-1 $32 $-1 $33 #
body $-1 $34 $-1 $35 #
body $-1 $36 $-1 $37 #
body $-1 $38 $-1 $39 #
body $-1 $40 $-1 $41 #
body $-1 $42 $-1 $43 #
body $-1 $44 $-1 $45 #
body $-1 $46 $-1 $47 #
lump $-1 $-1 $48 $0 #
transform $-1 1 0 0 0 1 0 0 0 1 66.955168309579761 42.949634775812768 16.802879669121342 1 rotate no_reflect no_shear #
lump $-1 $-1 $49 $1 #
transform $-1 1 0 0 0 1 0 0 0 1 66.955168309579761 42.949634775812768 16.802879669121342 1 rotate no_reflect no_shear #
lump $-1 $-1 $50 $2 #
transform $-1 1 0 0 0 1 0 0 0 1 66.955168309579761 42.949634775812768 16.802879669121342 1 rotate no_reflect no_shear #
lump $-1 $-1 $51 $3 #
transform $-1 1 0 0 0 1 0 0 0 1 66.955168309579761 42.949634775812768 16.802879669121342 1 rotate no_reflect no_shear #
lump $-1 $-1 $52 $4 #
transform $-1 1 0 0 0 1 0 0 0 1 66.955168309579761 42.949634775812768 16.802879669121342 1 rotate no_reflect no_shear #
lump $-1 $-1 $53 $5 #
transform $-1 1 0 0 0 1 0 0 0 1 66.955168309579761 42.949634775812768 16.802879669121342 1 rotate no_reflect no_shear #
lump $-1 $-1 $54 $6 #
transform $-1 1 0 0 0 1 0 0 0 1 66.955168309579761 42.949634775812768 16.802879669121342 1 rotate no_reflect no_shear #
lump $-1 $-1 $55 $7 #
transform $-1 1 0 0 0 1 0 0 0 1 66.955168309579761 42.949634775812768 16.802879669121342 1 rotate no_reflect no_shear #
lump $-1 $-1 $56 $8 #
transform $-1 1 0 0 0 1 0 0 0 1 66.955168309579761 42.949634775812768 16.802879669121342 1 rotate no_reflect no_shear #
lump $-1 $-1 $57 $9 #
transform $-1 1 0 0 0 1 0 0 0 1 66.955168309579761 42.949634775812768 16.802879669121342 1 rotate no_reflect no_shear #
lump $-1 $-1 $58 $10 #
transform $-1 1 0 0 0 1 0 0 0 1 66.955168309579761 42.949634775812768 16.802879669121342 1 rotate no_reflect no_shear #
lump $-1 $-1 $59 $11 #
transform $-1 1 0 0 0 1 0 0 0 1 66.955168309579761 42.949634775812768 16.802879669121342 1 rotate no_reflect no_shear #
lump $-1 $-1 $60 $12 #
transform $-1 1 0 0 0 1 0 0 0 1 66.955168309579761 42.949634775812768 16.802879669121342 1 rotate no_reflect no_shear #
lump $-1 $-1 $61 $13 #
transform $-1 1 0 0 0 1 0 0 0 1 66.955168309579761 42.949634775812768 16.802879669121342 1 rotate no_reflect no_shear #
lump $-1 $-1 $62 $14 #
transform $-1 1 0 0 0 1 0 0 0 1 66.955168309579761 42.949634775812768 16.802879669121342 1 rotate no_reflect no_shear #
lump $-1 $-1 $63 $15 #
transform $-1 1 0 0 0 1 0 0 0 1 66.955168309579761 42.949634775812768 16.802879669121342 1 rotate no_reflect no_shear #
shell $-1 $-1 $-1 $64 $-1 $16 #
shell $-1 $-1 $-1 $65 $-1 $18 #
shell $-1 $-1 $-1 $66 $-1 $20 #
shell $-1 $-1 $-1 $67 $-1 $22 #
shell $-1 $-1 $-1 $68 $-1 $24 #
shell $-1 $-1 $-1 $69 $-1 $26 #
shell $-1 $-1 $-1 $70 $-1 $28 #
shell $-1 $-1 $-1 $71 $-1 $30 #
shell $-1 $-1 $-1 $72 $-1 $32 #
shell $-1 $-1 $-1 $73 $-1 $34 #
shell $-1 $-1 $-1 $74 $-1 $36 #
shell $-1 $-1 $-1 $75 $-1 $38 #
shell $-1 $-1 $-1 $76 $-1 $40 #
shell $-1 $-1 $-1 $77 $-1 $42 #
shell $-1 $-1 $-1 $78 $-1 $44 #
shell $-1 $-1 $-1 $79 $-1 $46 #
face $-1 $80 $81 $48 $-1 $82 forward single #
face $-1 $83 $84 $49 $-1 $85 reversed single #
face $-1 $86 $87 $50 $-1 $88 reversed single #
face $-1 $89 $90 $51 $-1 $91 forward single #
face $-1 $92 $93 $52 $-1 $94 forward single #
face $-1 $95 $96 $53 $-1 $97 reversed single #
face $-1 $98 $99 $54 $-1 $100 forward single #
face $-1 $101 $102 $55 $-1 $103 forward single #
face $-1 $104 $105 $56 $-1 $106 reversed single #
face $-1 $107 $108 $57 $-1 $109 forward single #
face $-1 $110 $111 $58 $-1 $112 reversed single #
face $-1 $113 $114 $59 $-1 $115 forward single #
face $-1 $116 $117 $60 $-1 $118 reversed single #
face $-1 $119 $120 $61 $-1 $121 forward single #
face $-1 $122 $123 $62 $-1 $124 reversed single #
face $-1 $125 $126 $63 $-1 $127 forward single #
face $-1 $128 $129 $48 $-1 $130 reversed single #
loop $-1 $-1 $131 $64 #
plane-surface $-1 0 0 16.802879669121342 0 0 1 1 0 0 forward_v I I I I #
face $-1 $132 $133 $49 $-1 $134 reversed single #
loop $-1 $-1 $135 $65 #
plane-surface $-1 0 -36.373943427801152 11.917445097518236 0 0 1 1 0 0 forward_v I I I I #
face $-1 $136 $137 $50 $-1 $138 reversed single #
loop $-1 $-1 $139 $66 #
plane-surface $-1 30.820179467270833 -15.006823906237315 196.3157578210413 0 -1 0 -0.55919291073839883 0 -0.82903756765294845 forward_v I I I I #
face $-1 $140 $141 $51 $-1 $142 forward single #
loop $-1 $143 $144 $67 #
cone-surface $-1 61.524340670169039 -23.728631681542268 12.576239022209309 -0.55919291073839883 0 -0.82903756765294845 1.2435563514794228 0 -0.83878936610759824 1 I I 0 1 1.5 forward I I I I #
face $-1 $145 $146 $52 $-1 $147 forward single #
loop $-1 $148 $149 $68 #
cone-surface $-1 61.524340670169039 -18.495547016359296 12.576239022209309 -0.55919291073839883 0 -0.82903756765294845 1.2435563514794228 0 -0.83878936610759824 1 I I 0 1 1.5 forward I I I I #
face $-1 $150 $151 $53 $-1 $152 reversed single #
loop $-1 $-1 $153 $69 #
plane-surface $-1 30.820179467270833 21.367119521563836 196.3157578210413 0 -1 0 -0.55919291073839883 0 -0.82903756765294845 forward_v I I I I #
face $-1 $154 $155 $54 $-1 $156 forward single #
loop $-1 $157 $158 $70 #
cone-surface $-1 61.524340670169039 12.645311746258884 12.576239022209309 -0.55919291073839883 0 -0.82903756765294845 1.2435563514794228 0 -0.83878936610759824 1 I I 0 1 1.5 forward I I I I #
face $-1 $159 $160 $55 $-1 $161 forward single #
loop $-1 $162 $163 $71 #
cone-surface $-1 61.524340670169039 17.878396411441855 12.576239022209309 -0.55919291073839883 0 -0.82903756765294845 1.2435563514794228 0 -0.83878936610759824 1 I I 0 1 1.5 forward I I I I #
face $-1 $164 $165 $56 $-1 $166 reversed single #
loop $-1 $-1 $167 $72 #
plane-surface $-1 -163.28220421976363 -27.730692510918502 95.374157746259186 0 1 0 -0.71933980857756763 0 0.69465836192734942 forward_v I I I I #
face $-1 $168 $169 $57 $-1 $170 forward single #
loop $-1 $171 $172 $73 #
cone-surface $-1 -59.221797624117265 -23.941272912471483 8.8475366089925398 0.71933980857756763 0 -0.69465836192734942 1.0419875428910241 0 1.0790097128663514 1 I I 0 1 1.5 forward I I I I #
face $-1 $173 $174 $58 $-1 $175 reversed single #
loop $-1 $-1 $176 $74 #
plane-surface $-1 -163.28220421976363 -9.5437207970179259 95.374157746259186 0 1 0 -0.71933980857756763 0 0.69465836192734942 forward_v I I I I #
face $-1 $177 $178 $59 $-1 $179 forward single #
loop $-1 $180 $181 $75 #
cone-surface $-1 -59.221797624117265 -5.7543011985709072 8.8475366089925398 0.71933980857756763 0 -0.69465836192734942 1.0419875428910241 0 1.0790097128663514 1 I I 0 1 1.5 forward I I I I #
face $-1 $182 $183 $60 $-1 $184 reversed single #
loop $-1 $-1 $185 $76 #
plane-surface $-1 -163.28220421976363 8.6432509168826499 95.374157746259186 0 1 0 -0.71933980857756763 0 0.69465836192734942 forward_v I I I I #
face $-1 $186 $187 $61 $-1 $188 forward single #
loop $-1 $189 $190 $77 #
cone-surface $-1 -59.221797624117265 12.432670515329669 8.8475366089925398 0.71933980857756763 0 -0.69465836192734942 1.0419875428910241 0 1.0790097128663514 1 I I 0 1 1.5 forward I I I I #
face $-1 $191 $192 $62 $-1 $193 reversed single #
loop $-1 $-1 $194 $78 #
plane-surface $-1 -163.28220421976363 26.830222630783219 95.374157746259186 0 1 0 -0.71933980857756763 0 0.69465836192734942 forward_v I I I I #
face $-1 $195 $196 $63 $-1 $197 forward single #
loop $-1 $198 $199 $79 #
cone-surface $-1 -59.221797624117265 30.619642229230237 8.8475366089925398 0.71933980857756763 0 -0.69465836192734942 1.0419875428910241 0 1.0790097128663514 1 I I 0 1 1.5 forward I I I I #
face $-1 $200 $201 $48 $-1 $202 reversed single #
loop $-1 $-1 $203 $80 #
plane-surface $-1 0 0 -16.802879669121342 0 0 1 1 0 0 forward_v I I I I #
coedge $-1 $204 $205 $206 $207 forward $81 $-1 #
face $-1 $208 $209 $49 $-1 $210 reversed single #
loop $-1 $-1 $211 $83 #
plane-surface $-1 0 -29.798252079789535 14.360162383319789 0 -1 0 0 0 -1 forward_v I I I I #
coedge $-1 $212 $213 $214 $215 reversed $84 $-1 #
face $-1 $216 $217 $50 $-1 $218 reversed single #
loop $-1 $-1 $219 $86 #
plane-surface $-1 -44.061531444755772 -21.112089348950782 85.29905806670574 0.55919291073839883 0 0.82903756765294845 0.82903756765294845 0 -0.55919291073839883 forward_v I I I I #
coedge $-1 $220 $221 $222 $223 reversed $87 $-1 #
face $-1 $-1 $224 $51 $-1 $225 forward single #
loop $-1 $226 $227 $89 #
cone-surface $-1 60.407588892736655 -23.728631681542268 10.920586456778675 -0.55919291073839883 0 -0.82903756765294845 0.62177817573971139 0 -0.41939468305379912 1 I I -0.70710678118654757 0.70710678118654757 0.75 forward I I I I #
loop $-1 $-1 $228 $67 #
coedge $-1 $144 $144 $229 $230 reversed $90 $-1 #
face $-1 $-1 $231 $52 $-1 $232 forward single #
loop $-1 $233 $234 $92 #
cone-surface $-1 60.407588892736655 -18.495547016359296 10.920586456778675 -0.55919291073839883 0 -0.82903756765294845 0.62177817573971139 0 -0.41939468305379912 1 I I -0.70710678118654757 0.70710678118654757 0.75 forward I I I I #
loop $-1 $-1 $235 $68 #
coedge $-1 $149 $149 $236 $237 reversed $93 $-1 #
face $-1 $238 $239 $53 $-1 $240 reversed single #
loop $-1 $-1 $241 $95 #
plane-surface $-1 -44.061531444755772 15.261854078850369 85.29905806670574 0.55919291073839883 0 0.82903756765294845 0.82903756765294845 0 -0.55919291073839883 forward_v I I I I #
coedge $-1 $242 $243 $244 $245 reversed $96 $-1 #
face $-1 $-1 $246 $54 $-1 $247 forward single #
loop $-1 $248 $249 $98 #
cone-surface $-1 60.407588892736655 12.645311746258884 10.920586456778675 -0.55919291073839883 0 -0.82903756765294845 0.62177817573971139 0 -0.41939468305379912 1 I I -0.70710678118654757 0.70710678118654757 0.75 forward I I I I #
loop $-1 $-1 $250 $70 #
coedge $-1 $158 $158 $251 $252 reversed $99 $-1 #
face $-1 $-1 $253 $55 $-1 $254 forward single #
loop $-1 $255 $256 $101 #
cone-surface $-1 60.407588892736655 17.878396411441855 10.920586456778675 -0.55919291073839883 0 -0.82903756765294845 0.62177817573971139 0 -0.41939468305379912 1 I I -0.70710678118654757 0.70710678118654757 0.75 forward I I I I #
loop $-1 $-1 $257 $71 #
coedge $-1 $163 $163 $258 $259 reversed $102 $-1 #
face $-1 $260 $261 $56 $-1 $262 reversed single #
loop $-1 $-1 $263 $104 #
plane-surface $-1 -66.955168309579776 -23.941272912471483 2.3522226652538762 -0.71933980857756763 0 0.69465836192734942 0.69465836192734942 0 0.71933980857756763 forward_v I I I I #
coedge $-1 $264 $265 $266 $267 reversed $105 $-1 #
face $-1 $-1 $268 $57 $-1 $269 forward single #
loop $-1 $270 $271 $107 #
cone-surface $-1 -57.926340545221962 -23.941272912471483 7.5965282793519577 0.71933980857756763 0 -0.69465836192734942 0.52099377144551207 0 0.53950485643317569 1 I I -0.70710678118654757 0.70710678118654757 0.75 forward I I I I #
loop $-1 $-1 $272 $73 #
coedge $-1 $172 $172 $273 $274 reversed $108 $-1 #
face $-1 $275 $276 $58 $-1 $277 reversed single #
loop $-1 $-1 $278 $110 #
plane-surface $-1 -66.955168309579776 -5.7543011985709072 2.3522226652538762 -0.71933980857756763 0 0.69465836192734942 0.69465836192734942 0 0.71933980857756763 forward_v I I I I #
coedge $-1 $279 $280 $281 $282 reversed $111 $-1 #
face $-1 $-1 $283 $59 $-1 $284 forward single #
loop $-1 $285 $286 $113 #
cone-surface $-1 -57.926340545221962 -5.7543011985709072 7.5965282793519577 0.71933980857756763 0 -0.69465836192734942 0.52099377144551207 0 0.53950485643317569 1 I I -0.70710678118654757 0.70710678118654757 0.75 forward I I I I #
loop $-1 $-1 $287 $75 #
coedge $-1 $181 $181 $288 $289 reversed $114 $-1 #
face $-1 $290 $291 $60 $-1 $292 reversed single #
loop $-1 $-1 $293 $116 #
plane-surface $-1 -66.955168309579776 12.432670515329669 2.3522226652538762 -0.71933980857756763 0 0.69465836192734942 0.69465836192734942 0 0.71933980857756763 forward_v I I I I #
coedge $-1 $294 $295 $296 $297 reversed $117 $-1 #
face $-1 $-1 $298 $61 $-1 $299 forward single #
loop $-1 $300 $301 $119 #
cone-surface $-1 -57.926340545221962 12.432670515329669 7.5965282793519577 0.71933980857756763 0 -0.69465836192734942 0.52099377144551207 0 0.53950485643317569 1 I I -0.70710678118654757 0.70710678118654757 0.75 forward I I I I #
loop $-1 $-1 $302 $77 #
coedge $-1 $190 $190 $303 $304 reversed $120 $-1 #
face $-1 $305 $306 $62 $-1 $307 reversed single #
loop $-1 $-1 $308 $122 #
plane-surface $-1 -66.955168309579776 30.619642229230237 2.3522226652538762 -0.71933980857756763 0 0.69465836192734942 0.69465836192734942 0 0.71933980857756763 forward_v I I I I #
coedge $-1 $309 $310 $311 $312 reversed $123 $-1 #
face $-1 $-1 $313 $63 $-1 $314 forward single #
loop $-1 $315 $316 $125 #
cone-surface $-1 -57.926340545221962 30.619642229230237 7.5965282793519577 0.71933980857756763 0 -0.69465836192734942 0.52099377144551207 0 0.53950485643317569 1 I I -0.70710678118654757 0.70710678118654757 0.75 forward I I I I #
loop $-1 $-1 $317 $79 #
coedge $-1 $199 $199 $318 $319 reversed $126 $-1 #
face $-1 $320 $321 $48 $-1 $322 reversed single #
loop $-1 $-1 $323 $128 #
plane-surface $-1 0 -42.949634775812768 0 0 1 0 0 0 1 forward_v I I I I #
coedge $-1 $324 $325 $326 $327 forward $129 $-1 #
coedge $-1 $328 $131 $329 $330 forward $81 $-1 #
coedge $-1 $131 $328 $331 $332 forward $81 $-1 #
coedge $-1 $333 $334 $131 $207 reversed $335 $-1 #
edge $-1 $336 -42.949634775812768 $337 42.949634775812768 $206 $338 forward 7 unknown #
face $-1 $339 $340 $49 $-1 $341 reversed single #
loop $-1 $-1 $342 $132 #
plane-surface $-1 -66.955168309579761 0 0 1 0 0 0 0 -1 forward_v I I I I #
coedge $-1 $343 $344 $345 $346 reversed $133 $-1 #
coedge $-1 $347 $135 $348 $349 reversed $84 $-1 #
coedge $-1 $135 $347 $343 $350 forward $84 $-1 #
coedge $-1 $345 $351 $135 $215 forward $352 $-1 #
edge $-1 $353 -24.762663061912193 $354 -11.611280365888959 $214 $355 forward 7 unknown #
face $-1 $356 $357 $50 $-1 $358 reversed single #
loop $-1 $-1 $359 $136 #
plane-surface $-1 30.820179467270833 -27.217354791664249 196.3157578210413 0 1 0 0.55919291073839883 0 0.82903756765294845 forward_v I I I I #
coedge $-1 $360 $361 $362 $363 reversed $137 $-1 #
coedge $-1 $221 $139 $364 $365 reversed $87 $-1 #
coedge $-1 $139 $220 $360 $366 reversed $87 $-1 #
coedge $-1 $362 $367 $139 $223 forward $368 $-1 #
edge $-1 $369 -51.545078575944345 $370 -42.078137485880106 $222 $371 forward 7 unknown #
loop $-1 $-1 $229 $140 #
plane-surface $-1 -44.061531444755772 -21.112089348950782 85.29905806670574 0.55919291073839883 0 0.82903756765294845 0.82903756765294845 0 -0.55919291073839883 forward_v I I I I #
loop $-1 $-1 $372 $89 #
coedge $-1 $227 $227 $228 $373 reversed $141 $-1 #
coedge $-1 $228 $228 $227 $373 forward $143 $-1 #
coedge $-1 $229 $229 $144 $230 forward $224 $-1 #
edge $-1 $374 0 $374 6.2831853071796004 $229 $375 forward 7 unknown #
loop $-1 $-1 $236 $145 #
plane-surface $-1 -44.061531444755772 -21.112089348950782 85.29905806670574 0.55919291073839883 0 0.82903756765294845 0.82903756765294845 0 -0.55919291073839883 forward_v I I I I #
loop $-1 $-1 $376 $92 #
coedge $-1 $234 $234 $235 $377 reversed $146 $-1 #
coedge $-1 $235 $235 $234 $377 forward $148 $-1 #
coedge $-1 $236 $236 $149 $237 forward $231 $-1 #
edge $-1 $378 0 $378 6.2831853071796004 $236 $379 forward 7 unknown #
face $-1 $380 $381 $53 $-1 $382 reversed single #
loop $-1 $-1 $383 $150 #
plane-surface $-1 30.820179467270833 9.1565886361369024 196.3157578210413 0 1 0 0.55919291073839883 0 0.82903756765294845 forward_v I I I I #
coedge $-1 $384 $385 $386 $387 reversed $151 $-1 #
coedge $-1 $243 $153 $388 $389 reversed $96 $-1 #
coedge $-1 $153 $242 $384 $390 reversed $96 $-1 #
coedge $-1 $386 $391 $153 $245 forward $392 $-1 #
edge $-1 $393 -51.545078575944345 $394 -42.078137485880106 $244 $395 forward 7 unknown #
loop $-1 $-1 $251 $154 #
plane-surface $-1 -44.061531444755772 15.261854078850369 85.29905806670574 0.55919291073839883 0 0.82903756765294845 0.82903756765294845 0 -0.55919291073839883 forward_v I I I I #
loop $-1 $-1 $396 $98 #
coedge $-1 $249 $249 $250 $397 reversed $155 $-1 #
coedge $-1 $250 $250 $249 $397 forward $157 $-1 #
coedge $-1 $251 $251 $158 $252 forward $246 $-1 #
edge $-1 $398 0 $398 6.2831853071796004 $251 $399 forward 7 unknown #
loop $-1 $-1 $258 $159 #
plane-surface $-1 -44.061531444755772 15.261854078850369 85.29905806670574 0.55919291073839883 0 0.82903756765294845 0.82903756765294845 0 -0.55919291073839883 forward_v I I I I #
loop $-1 $-1 $400 $101 #
coedge $-1 $256 $256 $257 $401 reversed $160 $-1 #
coedge $-1 $257 $257 $256 $401 forward $162 $-1 #
coedge $-1 $258 $258 $163 $259 forward $253 $-1 #
edge $-1 $402 0 $402 6.2831853071796004 $258 $403 forward 7 unknown #
face $-1 $404 $405 $56 $-1 $406 forward single #
loop $-1 $-1 $407 $164 #
plane-surface $-1 -163.28220421976363 -20.151853314024464 95.374157746259186 0 -1 0 0.71933980857756763 0 -0.69465836192734942 forward_v I I I I #
coedge $-1 $408 $409 $410 $411 reversed $165 $-1 #
coedge $-1 $265 $167 $412 $413 reversed $105 $-1 #
coedge $-1 $167 $264 $408 $414 reversed $105 $-1 #
coedge $-1 $410 $415 $167 $267 forward $405 $-1 #
edge $-1 $416 14.685933800302053 $417 28.64077072630279 $266 $418 forward 7 unknown #
loop $-1 $-1 $273 $168 #
plane-surface $-1 -66.955168309579776 -23.941272912471483 2.3522226652538762 -0.71933980857756763 0 0.69465836192734942 0.69465836192734942 0 0.71933980857756763 forward_v I I I I #
loop $-1 $-1 $419 $107 #
coedge $-1 $271 $271 $272 $420 reversed $169 $-1 #
coedge $-1 $272 $272 $271 $420 forward $171 $-1 #
coedge $-1 $273 $273 $172 $274 forward $268 $-1 #
edge $-1 $421 0 $421 6.2831853071796004 $273 $422 forward 7 unknown #
face $-1 $423 $424 $58 $-1 $425 forward single #
loop $-1 $-1 $426 $173 #
plane-surface $-1 -163.28220421976363 -1.9648816001238893 95.374157746259186 0 -1 0 0.71933980857756763 0 -0.69465836192734942 forward_v I I I I #
coedge $-1 $427 $428 $429 $430 reversed $174 $-1 #
coedge $-1 $280 $176 $431 $432 reversed $111 $-1 #
coedge $-1 $176 $279 $427 $433 reversed $111 $-1 #
coedge $-1 $429 $434 $176 $282 forward $424 $-1 #
edge $-1 $435 14.685933800302053 $436 28.64077072630279 $281 $437 forward 7 unknown #
loop $-1 $-1 $288 $177 #
plane-surface $-1 -66.955168309579776 -5.7543011985709072 2.3522226652538762 -0.71933980857756763 0 0.69465836192734942 0.69465836192734942 0 0.71933980857756763 forward_v I I I I #
loop $-1 $-1 $438 $113 #
coedge $-1 $286 $286 $287 $439 reversed $178 $-1 #
coedge $-1 $287 $287 $286 $439 forward $180 $-1 #
coedge $-1 $288 $288 $181 $289 forward $283 $-1 #
edge $-1 $440 0 $440 6.2831853071796004 $288 $441 forward 7 unknown #
face $-1 $442 $443 $60 $-1 $444 forward single #
loop $-1 $-1 $445 $182 #
plane-surface $-1 -163.28220421976363 16.222090113776687 95.374157746259186 0 -1 0 0.71933980857756763 0 -0.69465836192734942 forward_v I I I I #
coedge $-1 $446 $447 $448 $449 reversed $183 $-1 #
coedge $-1 $295 $185 $450 $451 reversed $117 $-1 #
coedge $-1 $185 $294 $446 $452 reversed $117 $-1 #
coedge $-1 $448 $453 $185 $297 forward $443 $-1 #
edge $-1 $454 14.685933800302053 $455 28.64077072630279 $296 $456 forward 7 unknown #
loop $-1 $-1 $303 $186 #
plane-surface $-1 -66.955168309579776 12.432670515329669 2.3522226652538762 -0.71933980857756763 0 0.69465836192734942 0.69465836192734942 0 0.71933980857756763 forward_v I I I I #
loop $-1 $-1 $457 $119 #
coedge $-1 $301 $301 $302 $458 reversed $187 $-1 #
coedge $-1 $302 $302 $301 $458 forward $189 $-1 #
coedge $-1 $303 $303 $190 $304 forward $298 $-1 #
edge $-1 $459 0 $459 6.2831853071796004 $303 $460 forward 7 unknown #
face $-1 $461 $462 $62 $-1 $463 forward single #
loop $-1 $-1 $464 $191 #
plane-surface $-1 -163.28220421976363 34.409061827677256 95.374157746259186 0 -1 0 0.71933980857756763 0 -0.69465836192734942 forward_v I I I I #
coedge $-1 $465 $466 $467 $468 reversed $192 $-1 #
coedge $-1 $310 $194 $469 $470 reversed $123 $-1 #
coedge $-1 $194 $309 $465 $471 reversed $123 $-1 #
coedge $-1 $467 $472 $194 $312 forward $462 $-1 #
edge $-1 $473 14.685933800302053 $474 28.64077072630279 $311 $475 forward 7 unknown #
loop $-1 $-1 $318 $195 #
plane-surface $-1 -66.955168309579776 30.619642229230237 2.3522226652538762 -0.71933980857756763 0 0.69465836192734942 0.69465836192734942 0 0.71933980857756763 forward_v I I I I #
loop $-1 $-1 $476 $125 #
coedge $-1 $316 $316 $317 $477 reversed $196 $-1 #
coedge $-1 $317 $317 $316 $477 forward $198 $-1 #
coedge $-1 $318 $318 $199 $319 forward $313 $-1 #
edge $-1 $478 0 $478 6.2831853071796004 $318 $479 forward 7 unknown #
face $-1 $480 $481 $48 $-1 $482 reversed single #
loop $-1 $-1 $483 $200 #
plane-surface $-1 -66.955168309579761 0 0 1 0 0 0 0 -1 forward_v I I I I #
coedge $-1 $484 $331 $485 $486 forward $201 $-1 #
coedge $-1 $487 $203 $484 $488 forward $129 $-1 #
coedge $-1 $203 $487 $489 $490 forward $129 $-1 #
coedge $-1 $334 $333 $203 $327 reversed $335 $-1 #
edge $-1 $491 -42.949634775812768 $492 42.949634775812768 $326 $493 forward 7 unknown #
coedge $-1 $205 $204 $494 $495 forward $81 $-1 #
coedge $-1 $496 $497 $204 $330 reversed $481 $-1 #
edge $-1 $337 -66.955168309579761 $498 66.955168309579761 $329 $499 forward 7 unknown #
coedge $-1 $323 $500 $205 $332 reversed $201 $-1 #
edge $-1 $501 -66.955168309579761 $336 66.955168309579761 $331 $502 forward 7 unknown #
coedge $-1 $326 $206 $500 $503 forward $335 $-1 #
coedge $-1 $206 $326 $496 $504 reversed $335 $-1 #
loop $-1 $-1 $333 $480 #
vertex $-1 $207 $505 #
vertex $-1 $207 $506 #
straight-curve $-1 66.955168309579761 0 16.802879669121342 0 1 0 I I #
face $-1 $507 $508 $49 $-1 $509 forward single #
loop $-1 $-1 $348 $208 #
plane-surface $-1 0 -42.949634775812768 0 0 1 0 0 0 1 forward_v I I I I #
coedge $-1 $510 $511 $512 $513 forward $209 $-1 #
coedge $-1 $512 $211 $213 $350 reversed $133 $-1 #
coedge $-1 $211 $512 $514 $515 reversed $133 $-1 #
coedge $-1 $516 $214 $211 $346 forward $352 $-1 #
edge $-1 $354 4.7373639058583414 $517 9.6227984774614477 $345 $518 forward 7 unknown #
coedge $-1 $213 $212 $510 $519 reversed $84 $-1 #
coedge $-1 $520 $521 $212 $349 forward $340 $-1 #
edge $-1 $522 -66.955168309579761 $353 66.955168309579761 $348 $523 forward 7 unknown #
edge $-1 $524 -66.955168309579761 $354 66.955168309579761 $343 $525 forward 7 unknown #
coedge $-1 $214 $516 $520 $526 forward $352 $-1 #
loop $-1 $-1 $345 $507 #
vertex $-1 $349 $527 #
vertex $-1 $215 $528 #
straight-curve $-1 66.955168309579761 -18.186971713900576 11.917445097518236 0 1 0 I I #
face $-1 $-1 $368 $50 $-1 $529 forward single #
loop $-1 $-1 $530 $216 #
plane-surface $-1 66.955168309579761 0 0 -1 0 0 0 0 1 forward_v I I I I #
coedge $-1 $531 $532 $533 $534 reversed $217 $-1 #
coedge $-1 $535 $219 $221 $366 forward $137 $-1 #
coedge $-1 $219 $535 $531 $536 forward $137 $-1 #
coedge $-1 $533 $222 $219 $363 forward $368 $-1 #
edge $-1 $370 4.4507792317619241 $537 16.661310117188858 $362 $538 forward 7 unknown #
coedge $-1 $539 $540 $220 $365 forward $357 $-1 #
edge $-1 $541 -87.740531755841502 $369 -81.354999241399312 $364 $542 forward 7 unknown #
edge $-1 $370 122.49114229137325 $541 133.91033661915947 $221 $543 forward 7 unknown #
coedge $-1 $222 $533 $539 $544 forward $368 $-1 #
loop $-1 $-1 $533 $356 #
vertex $-1 $365 $545 #
vertex $-1 $223 $546 #
straight-curve $-1 15.410089733635417 -15.006823906237315 16.802879669121339 -1 0 0 I I #
coedge $-1 $372 $372 $-1 $547 reversed $226 $-1 #
edge $-1 $548 0 $548 6.2831853071796004 $227 $549 forward 7 unknown #
vertex $-1 $230 $550 #
ellipse-curve $-1 62.221697764547642 -23.728631681542268 13.610113411900254 0.55919291073839883 0 0.82903756765294845 1.2435563514794228 0 -0.83878936610759824 1 I I #
coedge $-1 $376 $376 $-1 $551 reversed $233 $-1 #
edge $-1 $552 0 $552 6.2831853071796004 $234 $553 forward 7 unknown #
vertex $-1 $237 $554 #
ellipse-curve $-1 62.221697764547642 -18.495547016359296 13.610113411900254 0.55919291073839883 0 0.82903756765294845 1.2435563514794228 0 -0.83878936610759824 1 I I #
face $-1 $-1 $392 $53 $-1 $555 forward single #
loop $-1 $-1 $556 $238 #
plane-surface $-1 66.955168309579761 0 0 -1 0 0 0 0 1 forward_v I I I I #
coedge $-1 $557 $558 $559 $560 reversed $239 $-1 #
coedge $-1 $561 $241 $243 $390 forward $151 $-1 #
coedge $-1 $241 $561 $557 $562 forward $151 $-1 #
coedge $-1 $559 $244 $241 $387 forward $392 $-1 #
edge $-1 $394 -13.736192482138652 $563 -1.5256615967117177 $386 $564 forward 7 unknown #
coedge $-1 $565 $566 $242 $389 forward $381 $-1 #
edge $-1 $567 -87.740531755841502 $393 -81.354999241399312 $388 $568 forward 7 unknown #
edge $-1 $394 122.49114229137325 $567 133.91033661915947 $243 $569 forward 7 unknown #
coedge $-1 $244 $559 $565 $570 forward $392 $-1 #
loop $-1 $-1 $559 $380 #
vertex $-1 $389 $571 #
vertex $-1 $245 $572 #
straight-curve $-1 15.410089733635417 21.367119521563836 16.802879669121339 -1 0 0 I I #
coedge $-1 $396 $396 $-1 $573 reversed $248 $-1 #
edge $-1 $574 0 $574 6.2831853071796004 $249 $575 forward 7 unknown #
vertex $-1 $252 $576 #
ellipse-curve $-1 62.221697764547642 12.645311746258884 13.610113411900254 0.55919291073839883 0 0.82903756765294845 1.2435563514794228 0 -0.83878936610759824 1 I I #
coedge $-1 $400 $400 $-1 $577 reversed $255 $-1 #
edge $-1 $578 0 $578 6.2831853071796004 $256 $579 forward 7 unknown #
vertex $-1 $259 $580 #
ellipse-curve $-1 62.221697764547642 17.878396411441855 13.610113411900254 0.55919291073839883 0 0.82903756765294845 1.2435563514794228 0 -0.83878936610759824 1 I I #
face $-1 $-1 $581 $56 $-1 $582 reversed single #
loop $-1 $-1 $266 $260 #
plane-surface $-1 0 0 16.802879669121342 0 0 1 1 0 0 forward_v I I I I #
coedge $-1 $583 $584 $585 $586 reversed $261 $-1 #
coedge $-1 $587 $263 $265 $414 forward $165 $-1 #
coedge $-1 $263 $587 $583 $588 forward $165 $-1 #
coedge $-1 $585 $266 $263 $411 forward $405 $-1 #
edge $-1 $417 -15.76005605468276 $589 -8.1812168577887228 $410 $590 forward 7 unknown #
coedge $-1 $591 $592 $264 $413 forward $581 $-1 #
edge $-1 $593 -45.334856207875703 $416 -30.884199204008251 $412 $594 forward 7 unknown #
edge $-1 $417 -20.088777002961081 $593 -2.0413573615811715e-014 $265 $595 forward 7 unknown #
coedge $-1 $266 $585 $591 $596 forward $405 $-1 #
vertex $-1 $413 $597 #
vertex $-1 $267 $598 #
straight-curve $-1 -81.641102109881814 -27.730692510918502 16.802879669121346 1 0 0 I I #
coedge $-1 $419 $419 $-1 $599 reversed $270 $-1 #
edge $-1 $600 0 $600 6.2831853071796004 $271 $601 forward 7 unknown #
vertex $-1 $274 $602 #
ellipse-curve $-1 -59.977749846579393 -23.941272912471483 9.5775511671876146 -0.71933980857756763 0 0.69465836192734942 1.0419875428910241 0 1.0790097128663514 1 I I #
face $-1 $-1 $603 $58 $-1 $604 reversed single #
loop $-1 $-1 $281 $275 #
plane-surface $-1 0 0 16.802879669121342 0 0 1 1 0 0 forward_v I I I I #
coedge $-1 $605 $606 $607 $608 reversed $276 $-1 #
coedge $-1 $609 $278 $280 $433 forward $174 $-1 #
coedge $-1 $278 $609 $605 $610 forward $174 $-1 #
coedge $-1 $607 $281 $278 $430 forward $424 $-1 #
edge $-1 $436 -6.6665701977324723 $611 0.91226899916156423 $429 $612 forward 7 unknown #
coedge $-1 $613 $614 $279 $432 forward $603 $-1 #
edge $-1 $615 -45.334856207875703 $435 -30.884199204008251 $431 $616 forward 7 unknown #
edge $-1 $436 -20.088777002961081 $615 -2.0413573615811715e-014 $280 $617 forward 7 unknown #
coedge $-1 $281 $607 $613 $618 forward $424 $-1 #
vertex $-1 $282 $619 #
vertex $-1 $282 $620 #
straight-curve $-1 -81.641102109881814 -9.5437207970179259 16.802879669121346 1 0 0 I I #
coedge $-1 $438 $438 $-1 $621 reversed $285 $-1 #
edge $-1 $622 0 $622 6.2831853071796004 $286 $623 forward 7 unknown #
vertex $-1 $289 $624 #
ellipse-curve $-1 -59.977749846579393 -5.7543011985709072 9.5775511671876146 -0.71933980857756763 0 0.69465836192734942 1.0419875428910241 0 1.0790097128663514 1 I I #
face $-1 $-1 $625 $60 $-1 $626 reversed single #
loop $-1 $-1 $296 $290 #
plane-surface $-1 0 0 16.802879669121342 0 0 1 1 0 0 forward_v I I I I #
coedge $-1 $627 $628 $629 $630 reversed $291 $-1 #
coedge $-1 $631 $293 $295 $452 forward $183 $-1 #
coedge $-1 $293 $631 $627 $632 forward $183 $-1 #
coedge $-1 $629 $296 $293 $449 forward $443 $-1 #
edge $-1 $455 2.4269156592178156 $633 10.005754856111853 $448 $634 forward 7 unknown #
coedge $-1 $635 $636 $294 $451 forward $625 $-1 #
edge $-1 $637 -45.334856207875703 $454 -30.884199204008251 $450 $638 forward 7 unknown #
edge $-1 $455 -20.088777002961081 $637 -2.0413573615811715e-014 $295 $639 forward 7 unknown #
coedge $-1 $296 $629 $635 $640 forward $443 $-1 #
vertex $-1 $297 $641 #
vertex $-1 $297 $642 #
straight-curve $-1 -81.641102109881814 8.6432509168826499 16.802879669121346 1 0 0 I I #
coedge $-1 $457 $457 $-1 $643 reversed $300 $-1 #
edge $-1 $644 0 $644 6.2831853071796004 $301 $645 forward 7 unknown #
vertex $-1 $304 $646 #
ellipse-curve $-1 -59.977749846579393 12.432670515329669 9.5775511671876146 -0.71933980857756763 0 0.69465836192734942 1.0419875428910241 0 1.0790097128663514 1 I I #
face $-1 $-1 $647 $62 $-1 $648 reversed single #
loop $-1 $-1 $311 $305 #
plane-surface $-1 0 0 16.802879669121342 0 0 1 1 0 0 forward_v I I I I #
coedge $-1 $649 $650 $651 $652 reversed $306 $-1 #
coedge $-1 $653 $308 $310 $471 forward $192 $-1 #
coedge $-1 $308 $653 $649 $654 forward $192 $-1 #
coedge $-1 $651 $311 $308 $468 forward $462 $-1 #
edge $-1 $474 11.5204015161681 $655 19.099240713062137 $467 $656 forward 7 unknown #
coedge $-1 $657 $658 $309 $470 forward $647 $-1 #
edge $-1 $659 -45.334856207875703 $473 -30.884199204008251 $469 $660 forward 7 unknown #
edge $-1 $474 -20.088777002961081 $659 -2.0413573615811715e-014 $310 $661 forward 7 unknown #
coedge $-1 $311 $651 $657 $662 forward $462 $-1 #
vertex $-1 $312 $663 #
vertex $-1 $312 $664 #
straight-curve $-1 -81.641102109881814 26.830222630783219 16.802879669121346 1 0 0 I I #
coedge $-1 $476 $476 $-1 $665 reversed $315 $-1 #
edge $-1 $666 0 $666 6.2831853071796004 $316 $667 forward 7 unknown #
vertex $-1 $319 $668 #
ellipse-curve $-1 -59.977749846579393 30.619642229230237 9.5775511671876146 -0.71933980857756763 0 0.69465836192734942 1.0419875428910241 0 1.0790097128663514 1 I I #
face $-1 $-1 $335 $48 $-1 $669 reversed single #
loop $-1 $-1 $496 $320 #
plane-surface $-1 0 42.949634775812768 0 0 -1 0 0 0 -1 forward_v I I I I #
coedge $-1 $670 $494 $497 $671 forward $321 $-1 #
coedge $-1 $500 $323 $324 $488 reversed $201 $-1 #
coedge $-1 $494 $670 $323 $486 reversed $321 $-1 #
edge $-1 $501 -16.802879669121342 $672 16.802879669121342 $485 $673 forward 7 unknown #
coedge $-1 $325 $324 $670 $674 forward $129 $-1 #
edge $-1 $492 -66.955168309579761 $672 66.955168309579761 $484 $675 forward 7 unknown #
coedge $-1 $497 $496 $325 $490 reversed $481 $-1 #
edge $-1 $676 -66.955168309579761 $491 66.955168309579761 $489 $677 forward 7 unknown #
vertex $-1 $327 $678 #
vertex $-1 $503 $679 #
straight-curve $-1 66.955168309579761 0 -16.802879669121342 0 -1 0 I I #
coedge $-1 $483 $485 $328 $495 reversed $321 $-1 #
edge $-1 $498 -42.949634775812768 $501 42.949634775812768 $494 $680 forward 7 unknown #
coedge $-1 $489 $329 $334 $504 forward $481 $-1 #
coedge $-1 $329 $489 $483 $671 reversed $481 $-1 #
vertex $-1 $330 $681 #
straight-curve $-1 0 42.949634775812768 16.802879669121342 -1 0 0 I I #
coedge $-1 $331 $484 $333 $503 reversed $201 $-1 #
vertex $-1 $495 $682 #
straight-curve $-1 0 -42.949634775812768 16.802879669121342 1 0 0 I I #
edge $-1 $336 -16.802879669121342 $492 16.802879669121342 $333 $683 forward 7 unknown #
edge $-1 $337 -16.802879669121342 $491 16.802879669121342 $334 $684 forward 7 unknown #
point $-1 66.955168309579761 -42.949634775812768 16.802879669121342 #
point $-1 66.955168309579761 42.949634775812768 16.802879669121342 #
face $-1 $-1 $352 $49 $-1 $685 reversed single #
loop $-1 $-1 $514 $339 #
plane-surface $-1 0 0 16.802879669121342 0 0 1 1 0 0 forward_v I I I I #
coedge $-1 $686 $342 $347 $519 forward $209 $-1 #
coedge $-1 $342 $686 $687 $688 reversed $209 $-1 #
coedge $-1 $344 $343 $342 $513 reversed $133 $-1 #
edge $-1 $689 -9.6227984774614477 $524 -4.7373639058583414 $342 $690 forward 7 unknown #
coedge $-1 $687 $691 $344 $515 forward $508 $-1 #
edge $-1 $517 -66.955168309579761 $689 66.955168309579761 $514 $692 forward 7 unknown #
coedge $-1 $351 $345 $691 $693 reversed $352 $-1 #
vertex $-1 $346 $694 #
straight-curve $-1 66.955168309579761 -29.798252079789535 7.1800811916598946 0 0 1 I I #
edge $-1 $524 11.611280365888959 $522 24.762663061912193 $510 $695 forward 7 unknown #
coedge $-1 $696 $348 $351 $526 reversed $340 $-1 #
coedge $-1 $348 $696 $686 $697 forward $340 $-1 #
vertex $-1 $349 $698 #
straight-curve $-1 0 -42.949634775812768 11.917445097518236 1 0 0 I I #
vertex $-1 $519 $699 #
straight-curve $-1 0 -29.798252079789535 11.917445097518236 1 0 0 I I #
edge $-1 $700 -16.802879669121342 $353 -11.917445097518236 $351 $701 forward 7 unknown #
point $-1 66.955168309579761 -42.949634775812768 11.917445097518236 #
point $-1 66.955168309579761 -29.798252079789535 11.917445097518236 #
plane-surface $-1 0 0 16.802879669121342 0 0 1 1 0 0 forward_v I I I I #
coedge $-1 $540 $539 $532 $702 forward $357 $-1 #
coedge $-1 $532 $359 $361 $536 reversed $217 $-1 #
coedge $-1 $359 $531 $530 $702 reversed $217 $-1 #
coedge $-1 $367 $362 $359 $534 forward $368 $-1 #
edge $-1 $537 42.078137485880106 $703 51.545078575944345 $533 $704 forward 7 unknown #
coedge $-1 $361 $360 $540 $705 reversed $137 $-1 #
edge $-1 $706 -133.91033661915947 $537 -122.49114229137325 $531 $707 forward 7 unknown #
vertex $-1 $363 $708 #
straight-curve $-1 57.488227219515544 -10.556044674475391 16.802879669121339 0 -1 0 I I #
coedge $-1 $530 $364 $367 $544 reversed $357 $-1 #
coedge $-1 $364 $530 $535 $705 forward $357 $-1 #
vertex $-1 $365 $709 #
straight-curve $-1 66.955168309579761 -15.006823906237315 98.157878910520651 0 0 1 I I #
straight-curve $-1 -44.061531444755772 -15.006823906237315 85.29905806670574 0.82903756765294845 0 -0.55919291073839883 I I #
edge $-1 $703 -27.217354791664249 $369 -15.006823906237315 $539 $710 forward 7 unknown #
point $-1 66.955168309579761 -15.006823906237315 16.802879669121342 #
point $-1 57.488227219515522 -15.006823906237315 16.802879669121339 #
edge $-1 $711 1 $711 0 $372 $-1 forward 7 unknown #
vertex $-1 $373 $712 #
ellipse-curve $-1 60.826983575790457 -23.728631681542268 11.542364632518387 0.55919291073839883 0 0.82903756765294845 1.2435563514794228 0 -0.83878936610759824 1 I I #
point $-1 63.465254116027054 -23.728631681542268 12.771324045792632 #
edge $-1 $713 1 $713 0 $376 $-1 forward 7 unknown #
vertex $-1 $377 $714 #
ellipse-curve $-1 60.826983575790457 -18.495547016359296 11.542364632518387 0.55919291073839883 0 0.82903756765294845 1.2435563514794228 0 -0.83878936610759824 1 I I #
point $-1 63.465254116027054 -18.495547016359296 12.771324045792632 #
plane-surface $-1 0 0 16.802879669121342 0 0 1 1 0 0 forward_v I I I I #
coedge $-1 $566 $565 $558 $715 forward $381 $-1 #
coedge $-1 $558 $383 $385 $562 reversed $239 $-1 #
coedge $-1 $383 $557 $556 $715 reversed $239 $-1 #
coedge $-1 $391 $386 $383 $560 forward $392 $-1 #
edge $-1 $563 42.078137485880106 $716 51.545078575944345 $559 $717 forward 7 unknown #
coedge $-1 $385 $384 $566 $718 reversed $151 $-1 #
edge $-1 $719 -133.91033661915947 $563 -122.49114229137325 $557 $720 forward 7 unknown #
vertex $-1 $387 $721 #
straight-curve $-1 57.488227219515544 7.6309270394251847 16.802879669121339 0 -1 0 I I #
coedge $-1 $556 $388 $391 $570 reversed $381 $-1 #
coedge $-1 $388 $556 $561 $718 forward $381 $-1 #
vertex $-1 $389 $722 #
straight-curve $-1 66.955168309579761 21.367119521563836 98.157878910520651 0 0 1 I I #
straight-curve $-1 -44.061531444755772 21.367119521563836 85.29905806670574 0.82903756765294845 0 -0.55919291073839883 I I #
edge $-1 $716 9.1565886361369024 $393 21.367119521563836 $565 $723 forward 7 unknown #
point $-1 66.955168309579761 21.367119521563836 16.802879669121342 #
point $-1 57.488227219515522 21.367119521563836 16.802879669121339 #
edge $-1 $724 1 $724 0 $396 $-1 forward 7 unknown #
vertex $-1 $397 $725 #
ellipse-curve $-1 60.826983575790457 12.645311746258884 11.542364632518387 0.55919291073839883 0 0.82903756765294845 1.2435563514794228 0 -0.83878936610759824 1 I I #
point $-1 63.465254116027054 12.645311746258884 12.771324045792632 #
edge $-1 $726 1 $726 0 $400 $-1 forward 7 unknown #
vertex $-1 $401 $727 #
ellipse-curve $-1 60.826983575790457 17.878396411441855 11.542364632518387 0.55919291073839883 0 0.82903756765294845 1.2435563514794228 0 -0.83878936610759824 1 I I #
point $-1 63.465254116027054 17.878396411441855 12.771324045792632 #
loop $-1 $-1 $412 $404 #
plane-surface $-1 -66.955168309579761 0 0 1 0 0 0 0 -1 forward_v I I I I #
coedge $-1 $584 $407 $409 $588 reversed $261 $-1 #
coedge $-1 $407 $583 $728 $729 reversed $261 $-1 #
coedge $-1 $415 $410 $407 $586 forward $405 $-1 #
edge $-1 $589 -28.64077072630279 $730 -14.685933800302053 $585 $731 forward 7 unknown #
coedge $-1 $409 $408 $592 $732 reversed $165 $-1 #
edge $-1 $733 2.0413573615811715e-014 $589 20.088777002961081 $583 $734 forward 7 unknown #
vertex $-1 $411 $735 #
straight-curve $-1 -53.000331383579024 -11.970636456235741 16.802879669121346 0 1 0 I I #
coedge $-1 $728 $412 $415 $596 reversed $581 $-1 #
coedge $-1 $412 $728 $587 $732 forward $581 $-1 #
vertex $-1 $413 $736 #
straight-curve $-1 -66.955168309579761 -27.730692510918502 47.687078873129593 0 0 1 I I #
straight-curve $-1 -66.955168309579776 -27.730692510918502 2.3522226652538762 -0.69465836192734942 0 -0.71933980857756763 I I #
edge $-1 $730 20.151853314024464 $416 27.730692510918502 $591 $737 forward 7 unknown #
point $-1 -66.955168309579761 -27.730692510918502 16.802879669121342 #
point $-1 -53.000331383579024 -27.730692510918502 16.802879669121342 #
edge $-1 $738 1 $738 0 $419 $-1 forward 7 unknown #
vertex $-1 $420 $739 #
ellipse-curve $-1 -58.465845401655137 -23.941272912471483 8.1175220507974704 -0.71933980857756763 0 0.69465836192734942 1.0419875428910241 0 1.0790097128663514 1 I I #
point $-1 -58.935762303688364 -23.941272912471483 10.656560880053959 #
loop $-1 $-1 $431 $423 #
plane-surface $-1 -66.955168309579761 0 0 1 0 0 0 0 -1 forward_v I I I I #
coedge $-1 $606 $426 $428 $610 reversed $276 $-1 #
coedge $-1 $426 $605 $740 $741 reversed $276 $-1 #
coedge $-1 $434 $429 $426 $608 forward $424 $-1 #
edge $-1 $611 -28.64077072630279 $742 -14.685933800302053 $607 $743 forward 7 unknown #
coedge $-1 $428 $427 $614 $744 reversed $174 $-1 #
edge $-1 $745 2.0413573615811715e-014 $611 20.088777002961081 $605 $746 forward 7 unknown #
vertex $-1 $430 $747 #
straight-curve $-1 -53.000331383579024 -2.8771505992854536 16.802879669121346 0 1 0 I I #
coedge $-1 $740 $431 $434 $618 reversed $603 $-1 #
coedge $-1 $431 $740 $609 $744 forward $603 $-1 #
vertex $-1 $432 $748 #
straight-curve $-1 -66.955168309579761 -9.5437207970179259 47.687078873129593 0 0 1 I I #
straight-curve $-1 -66.955168309579776 -9.5437207970179259 2.3522226652538762 -0.69465836192734942 0 -0.71933980857756763 I I #
edge $-1 $742 1.9648816001238893 $435 9.5437207970179259 $613 $749 forward 7 unknown #
point $-1 -66.955168309579761 -9.5437207970179259 16.802879669121342 #
point $-1 -53.000331383579024 -9.5437207970179259 16.802879669121342 #
edge $-1 $750 1 $750 0 $438 $-1 forward 7 unknown #
vertex $-1 $439 $751 #
ellipse-curve $-1 -58.465845401655137 -5.7543011985709072 8.1175220507974704 -0.71933980857756763 0 0.69465836192734942 1.0419875428910241 0 1.0790097128663514 1 I I #
point $-1 -58.935762303688364 -5.7543011985709072 10.656560880053959 #
loop $-1 $-1 $450 $442 #
plane-surface $-1 -66.955168309579761 0 0 1 0 0 0 0 -1 forward_v I I I I #
coedge $-1 $628 $445 $447 $632 reversed $291 $-1 #
coedge $-1 $445 $627 $752 $753 reversed $291 $-1 #
coedge $-1 $453 $448 $445 $630 forward $443 $-1 #
edge $-1 $633 -28.64077072630279 $754 -14.685933800302053 $629 $755 forward 7 unknown #
coedge $-1 $447 $446 $636 $756 reversed $183 $-1 #
edge $-1 $757 2.0413573615811715e-014 $633 20.088777002961081 $627 $758 forward 7 unknown #
vertex $-1 $449 $759 #
straight-curve $-1 -53.000331383579024 6.2163352576648343 16.802879669121346 0 1 0 I I #
coedge $-1 $752 $450 $453 $640 reversed $625 $-1 #
coedge $-1 $450 $752 $631 $756 forward $625 $-1 #
vertex $-1 $451 $760 #
straight-curve $-1 -66.955168309579761 8.6432509168826499 47.687078873129593 0 0 1 I I #
straight-curve $-1 -66.955168309579776 8.6432509168826499 2.3522226652538762 -0.69465836192734942 0 -0.71933980857756763 I I #
edge $-1 $754 -16.222090113776687 $454 -8.6432509168826499 $635 $761 forward 7 unknown #
point $-1 -66.955168309579761 8.6432509168826499 16.802879669121342 #
point $-1 -53.000331383579024 8.6432509168826499 16.802879669121342 #
edge $-1 $762 1 $762 0 $457 $-1 forward 7 unknown #
vertex $-1 $458 $763 #
ellipse-curve $-1 -58.465845401655137 12.432670515329669 8.1175220507974704 -0.71933980857756763 0 0.69465836192734942 1.0419875428910241 0 1.0790097128663514 1 I I #
point $-1 -58.935762303688364 12.432670515329669 10.656560880053959 #
loop $-1 $-1 $469 $461 #
plane-surface $-1 -66.955168309579761 0 0 1 0 0 0 0 -1 forward_v I I I I #
coedge $-1 $650 $464 $466 $654 reversed $306 $-1 #
coedge $-1 $464 $649 $764 $765 reversed $306 $-1 #
coedge $-1 $472 $467 $464 $652 forward $462 $-1 #
edge $-1 $655 -28.64077072630279 $766 -14.685933800302053 $651 $767 forward 7 unknown #
coedge $-1 $466 $465 $658 $768 reversed $192 $-1 #
edge $-1 $769 2.0413573615811715e-014 $655 20.088777002961081 $649 $770 forward 7 unknown #
vertex $-1 $468 $771 #
straight-curve $-1 -53.000331383579024 15.309821114615119 16.802879669121346 0 1 0 I I #
coedge $-1 $764 $469 $472 $662 reversed $647 $-1 #
coedge $-1 $469 $764 $653 $768 forward $647 $-1 #
vertex $-1 $470 $772 #
straight-curve $-1 -66.955168309579761 26.830222630783219 47.687078873129593 0 0 1 I I #
straight-curve $-1 -66.955168309579776 26.830222630783219 2.3522226652538762 -0.69465836192734942 0 -0.71933980857756763 I I #
edge $-1 $766 -34.409061827677256 $473 -26.830222630783219 $657 $773 forward 7 unknown #
point $-1 -66.955168309579761 26.830222630783219 16.802879669121342 #
point $-1 -53.000331383579024 26.830222630783219 16.802879669121342 #
edge $-1 $774 1 $774 0 $476 $-1 forward 7 unknown #
vertex $-1 $477 $775 #
ellipse-curve $-1 -58.465845401655137 30.619642229230237 8.1175220507974704 -0.71933980857756763 0 0.69465836192734942 1.0419875428910241 0 1.0790097128663514 1 I I #
point $-1 -58.935762303688364 30.619642229230237 10.656560880053959 #
plane-surface $-1 66.955168309579761 0 0 -1 0 0 0 0 1 forward_v I I I I #
coedge $-1 $485 $483 $487 $674 reversed $321 $-1 #
edge $-1 $498 -16.802879669121342 $676 16.802879669121342 $497 $776 forward 7 unknown #
vertex $-1 $674 $777 #
straight-curve $-1 -66.955168309579761 -42.949634775812768 0 0 0 -1 I I #
edge $-1 $672 -42.949634775812768 $676 42.949634775812768 $670 $778 forward 7 unknown #
straight-curve $-1 0 -42.949634775812768 -16.802879669121342 -1 0 0 I I #
vertex $-1 $490 $779 #
straight-curve $-1 0 42.949634775812768 -16.802879669121342 1 0 0 I I #
point $-1 66.955168309579761 42.949634775812768 -16.802879669121342 #
point $-1 66.955168309579761 -42.949634775812768 -16.802879669121342 #
straight-curve $-1 -66.955168309579761 0 16.802879669121342 0 -1 0 I I #
point $-1 -66.955168309579761 42.949634775812768 16.802879669121342 #
point $-1 -66.955168309579761 -42.949634775812768 16.802879669121342 #
straight-curve $-1 66.955168309579761 -42.949634775812768 0 0 0 -1 I I #
straight-curve $-1 66.955168309579761 42.949634775812768 0 0 0 -1 I I #
plane-surface $-1 66.955168309579761 0 0 -1 0 0 0 0 1 forward_v I I I I #
coedge $-1 $511 $510 $521 $697 reversed $209 $-1 #
coedge $-1 $780 $514 $511 $688 forward $508 $-1 #
edge $-1 $689 29.798252079789535 $781 42.949634775812768 $511 $782 forward 7 unknown #
vertex $-1 $688 $783 #
straight-curve $-1 -66.955168309579761 -29.798252079789535 7.1800811916598946 0 0 -1 I I #
coedge $-1 $514 $780 $516 $693 forward $508 $-1 #
straight-curve $-1 0 -29.798252079789535 16.802879669121342 -1 0 0 I I #
edge $-1 $700 -42.949634775812768 $517 -29.798252079789535 $516 $784 forward 7 unknown #
point $-1 66.955168309579761 -29.798252079789535 16.802879669121342 #
straight-curve $-1 -66.955168309579761 -18.186971713900576 11.917445097518236 0 -1 0 I I #
coedge $-1 $521 $520 $780 $785 reversed $340 $-1 #
edge $-1 $781 -16.802879669121342 $522 -11.917445097518236 $686 $786 forward 7 unknown #
point $-1 -66.955168309579761 -42.949634775812768 11.917445097518236 #
point $-1 -66.955168309579761 -29.798252079789535 11.917445097518236 #
vertex $-1 $693 $787 #
straight-curve $-1 66.955168309579761 -42.949634775812768 0 0 0 -1 I I #
edge $-1 $703 81.354999241399312 $706 87.740531755841502 $530 $788 forward 7 unknown #
vertex $-1 $544 $789 #
straight-curve $-1 15.410089733635417 -27.217354791664249 16.802879669121339 1 0 0 I I #
edge $-1 $706 -16.661310117188858 $541 -4.4507792317619241 $540 $790 forward 7 unknown #
vertex $-1 $705 $791 #
straight-curve $-1 -44.061531444755772 -27.217354791664249 85.29905806670574 -0.82903756765294845 0 0.55919291073839883 I I #
point $-1 57.488227219515522 -27.217354791664249 16.802879669121339 #
point $-1 66.955168309579761 -15.006823906237315 10.417347154679149 #
straight-curve $-1 66.955168309579761 0 16.802879669121342 0 1 0 I I #
vertex $-1 $547 $792 #
point $-1 62.070539927269877 -23.728631681542268 10.703575266410789 #
vertex $-1 $551 $793 #
point $-1 62.070539927269877 -18.495547016359296 10.703575266410789 #
edge $-1 $716 81.354999241399312 $719 87.740531755841502 $556 $794 forward 7 unknown #
vertex $-1 $570 $795 #
straight-curve $-1 15.410089733635417 9.1565886361369024 16.802879669121339 1 0 0 I I #
edge $-1 $719 1.5256615967117177 $567 13.736192482138652 $566 $796 forward 7 unknown #
vertex $-1 $718 $797 #
straight-curve $-1 -44.061531444755772 9.1565886361369024 85.29905806670574 -0.82903756765294845 0 0.55919291073839883 I I #
point $-1 57.488227219515522 9.1565886361369024 16.802879669121339 #
point $-1 66.955168309579761 21.367119521563836 10.417347154679149 #
straight-curve $-1 66.955168309579761 0 16.802879669121342 0 1 0 I I #
vertex $-1 $573 $798 #
point $-1 62.070539927269877 12.645311746258884 10.703575266410789 #
vertex $-1 $577 $799 #
point $-1 62.070539927269877 17.878396411441855 10.703575266410789 #
coedge $-1 $592 $591 $584 $729 forward $581 $-1 #
edge $-1 $730 30.884199204008251 $733 45.334856207875703 $728 $800 forward 7 unknown #
vertex $-1 $596 $801 #
straight-curve $-1 -81.641102109881814 -20.151853314024464 16.802879669121346 -1 0 0 I I #
edge $-1 $733 8.1812168577887228 $593 15.76005605468276 $592 $802 forward 7 unknown #
vertex $-1 $732 $803 #
straight-curve $-1 -66.955168309579776 -20.151853314024464 2.3522226652538762 0.69465836192734942 0 0.71933980857756763 I I #
point $-1 -53.000331383579024 -20.151853314024464 16.802879669121342 #
point $-1 -66.955168309579761 -27.730692510918502 2.3522226652538909 #
straight-curve $-1 -66.955168309579761 0 16.802879669121342 0 -1 0 I I #
vertex $-1 $599 $804 #
point $-1 -57.423857858764116 -23.941272912471483 9.1965317636638204 #
coedge $-1 $614 $613 $606 $741 forward $603 $-1 #
edge $-1 $742 30.884199204008251 $745 45.334856207875703 $740 $805 forward 7 unknown #
vertex $-1 $618 $806 #
straight-curve $-1 -81.641102109881814 -1.9648816001238893 16.802879669121346 -1 0 0 I I #
edge $-1 $745 -0.91226899916156423 $615 6.6665701977324723 $614 $807 forward 7 unknown #
vertex $-1 $744 $808 #
straight-curve $-1 -66.955168309579776 -1.9648816001238893 2.3522226652538762 0.69465836192734942 0 0.71933980857756763 I I #
point $-1 -53.000331383579024 -1.9648816001238893 16.802879669121342 #
point $-1 -66.955168309579761 -9.5437207970179259 2.3522226652538909 #
straight-curve $-1 -66.955168309579761 0 16.802879669121342 0 -1 0 I I #
vertex $-1 $621 $809 #
point $-1 -57.423857858764116 -5.7543011985709072 9.1965317636638204 #
coedge $-1 $636 $635 $628 $753 forward $625 $-1 #
edge $-1 $754 30.884199204008251 $757 45.334856207875703 $752 $810 forward 7 unknown #
vertex $-1 $640 $811 #
straight-curve $-1 -81.641102109881814 16.222090113776687 16.802879669121346 -1 0 0 I I #
edge $-1 $757 -10.005754856111853 $637 -2.4269156592178156 $636 $812 forward 7 unknown #
vertex $-1 $756 $813 #
straight-curve $-1 -66.955168309579776 16.222090113776687 2.3522226652538762 0.69465836192734942 0 0.71933980857756763 I I #
point $-1 -53.000331383579024 16.222090113776687 16.802879669121342 #
point $-1 -66.955168309579761 8.6432509168826499 2.3522226652538909 #
straight-curve $-1 -66.955168309579761 0 16.802879669121342 0 -1 0 I I #
vertex $-1 $643 $814 #
point $-1 -57.423857858764116 12.432670515329669 9.1965317636638204 #
coedge $-1 $658 $657 $650 $765 forward $647 $-1 #
edge $-1 $766 30.884199204008251 $769 45.334856207875703 $764 $815 forward 7 unknown #
vertex $-1 $662 $816 #
straight-curve $-1 -81.641102109881814 34.409061827677256 16.802879669121346 -1 0 0 I I #
edge $-1 $769 -19.099240713062137 $659 -11.5204015161681 $658 $817 forward 7 unknown #
vertex $-1 $768 $818 #
straight-curve $-1 -66.955168309579776 34.409061827677256 2.3522226652538762 0.69465836192734942 0 0.71933980857756763 I I #
point $-1 -53.000331383579024 34.409061827677256 16.802879669121342 #
point $-1 -66.955168309579761 26.830222630783219 2.3522226652538909 #
straight-curve $-1 -66.955168309579761 0 16.802879669121342 0 -1 0 I I #
vertex $-1 $665 $819 #
point $-1 -57.423857858764116 30.619642229230237 9.1965317636638204 #
straight-curve $-1 -66.955168309579761 42.949634775812768 0 0 0 -1 I I #
point $-1 -66.955168309579761 -42.949634775812768 -16.802879669121342 #
straight-curve $-1 -66.955168309579761 0 -16.802879669121342 0 1 0 I I #
point $-1 -66.955168309579761 42.949634775812768 -16.802879669121342 #
coedge $-1 $691 $687 $696 $785 forward $508 $-1 #
vertex $-1 $688 $820 #
straight-curve $-1 -66.955168309579761 0 16.802879669121342 0 -1 0 I I #
point $-1 -66.955168309579761 -29.798252079789535 16.802879669121342 #
straight-curve $-1 66.955168309579761 0 16.802879669121342 0 1 0 I I #
edge $-1 $781 -66.955168309579761 $700 66.955168309579761 $696 $821 forward 7 unknown #
straight-curve $-1 -66.955168309579761 -42.949634775812768 0 0 0 -1 I I #
point $-1 66.955168309579761 -42.949634775812768 16.802879669121342 #
straight-curve $-1 66.955168309579761 -27.217354791664249 98.157878910520651 0 0 -1 I I #
point $-1 66.955168309579761 -27.217354791664249 16.802879669121342 #
straight-curve $-1 66.955168309579761 -10.556044674475391 10.417347154679142 0 1 0 I I #
point $-1 66.955168309579761 -27.217354791664249 10.417347154679149 #
point $-1 59.988194209682852 -23.728631681542268 10.298808281038964 #
point $-1 59.988194209682852 -18.495547016359296 10.298808281038964 #
straight-curve $-1 66.955168309579761 9.1565886361369024 98.157878910520651 0 0 -1 I I #
point $-1 66.955168309579761 9.1565886361369024 16.802879669121342 #
straight-curve $-1 66.955168309579761 7.6309270394251847 10.417347154679142 0 1 0 I I #
point $-1 66.955168309579761 9.1565886361369024 10.417347154679149 #
point $-1 59.988194209682852 12.645311746258884 10.298808281038964 #
point $-1 59.988194209682852 17.878396411441855 10.298808281038964 #
straight-curve $-1 -66.955168309579761 -20.151853314024464 47.687078873129593 0 0 -1 I I #
point $-1 -66.955168309579761 -20.151853314024464 16.802879669121342 #
straight-curve $-1 -66.955168309579761 -11.970636456235741 2.3522226652538776 0 -1 0 I I #
point $-1 -66.955168309579761 -20.151853314024464 2.3522226652538909 #
point $-1 -57.386835688788786 -23.941272912471483 7.075534507906446 #
straight-curve $-1 -66.955168309579761 -1.9648816001238893 47.687078873129593 0 0 -1 I I #
point $-1 -66.955168309579761 -1.9648816001238893 16.802879669121342 #
straight-curve $-1 -66.955168309579761 -2.8771505992854536 2.3522226652538776 0 -1 0 I I #
point $-1 -66.955168309579761 -1.9648816001238893 2.3522226652538909 #
point $-1 -57.386835688788786 -5.7543011985709072 7.075534507906446 #
straight-curve $-1 -66.955168309579761 16.222090113776687 47.687078873129593 0 0 -1 I I #
point $-1 -66.955168309579761 16.222090113776687 16.802879669121342 #
straight-curve $-1 -66.955168309579761 6.2163352576648343 2.3522226652538776 0 -1 0 I I #
point $-1 -66.955168309579761 16.222090113776687 2.3522226652538909 #
point $-1 -57.386835688788786 12.432670515329669 7.075534507906446 #
straight-curve $-1 -66.955168309579761 34.409061827677256 47.687078873129593 0 0 -1 I I #
point $-1 -66.955168309579761 34.409061827677256 16.802879669121342 #
straight-curve $-1 -66.955168309579761 15.309821114615119 2.3522226652538776 0 -1 0 I I #
point $-1 -66.955168309579761 34.409061827677256 2.3522226652538909 #
point $-1 -57.386835688788786 30.619642229230237 7.075534507906446 #
point $-1 -66.955168309579761 -42.949634775812768 16.802879669121342 #
straight-curve $-1 0 -42.949634775812768 16.802879669121342 1 0 0 I I #
End-of-ACIS-data 