500 0 9 0           
7 Unknown 11 ACIS 5.0 NT 24 Fri Mar 26 17:01:16 1999 
-1 9.9999999999999995e-007 1e-010 
body $-1 $9 $-1 $10 #
body $-1 $11 $-1 $12 #
body $-1 $13 $-1 $14 #
body $-1 $15 $-1 $16 #
body $-1 $17 $-1 $18 #
body $-1 $19 $-1 $20 #
body $-1 $21 $-1 $22 #
body $-1 $23 $-1 $24 #
body $-1 $25 $-1 $26 #
lump $-1 $-1 $27 $0 #
transform $-1 1 0 0 0 1 0 0 0 1 53.224280526139104 30.243320386858244 9.9185390649512026 1 rotate no_reflect no_shear #
lump $-1 $-1 $28 $1 #
transform $-1 1 0 0 0 1 0 0 0 1 53.224280526139104 30.243320386858244 9.9185390649512026 1 rotate no_reflect no_shear #
lump $-1 $-1 $29 $2 #
transform $-1 1 0 0 0 1 0 0 0 1 53.224280526139104 30.243320386858244 9.9185390649512026 1 rotate no_reflect no_shear #
lump $-1 $-1 $30 $3 #
transform $-1 1 0 0 0 1 0 0 0 1 53.224280526139104 30.243320386858244 9.9185390649512026 1 rotate no_reflect no_shear #
lump $-1 $-1 $31 $4 #
transform $-1 1 0 0 0 1 0 0 0 1 53.224280526139104 30.243320386858244 9.9185390649512026 1 rotate no_reflect no_shear #
lump $-1 $-1 $32 $5 #
transform $-1 1 0 0 0 1 0 0 0 1 53.224280526139104 30.243320386858244 9.9185390649512026 1 rotate no_reflect no_shear #
lump $-1 $-1 $33 $6 #
transform $-1 1 0 0 0 1 0 0 0 1 53.224280526139104 30.243320386858244 9.9185390649512026 1 rotate no_reflect no_shear #
lump $-1 $-1 $34 $7 #
transform $-1 1 0 0 0 1 0 0 0 1 53.224280526139104 30.243320386858244 9.9185390649512026 1 rotate no_reflect no_shear #
lump $-1 $-1 $35 $8 #
transform $-1 1 0 0 0 1 0 0 0 1 53.224280526139104 30.243320386858244 9.9185390649512026 1 rotate no_reflect no_shear #
shell $-1 $-1 $-1 $36 $-1 $9 #
shell $-1 $-1 $-1 $37 $-1 $11 #
shell $-1 $-1 $-1 $38 $-1 $13 #
shell $-1 $-1 $-1 $39 $-1 $15 #
shell $-1 $-1 $-1 $40 $-1 $17 #
shell $-1 $-1 $-1 $41 $-1 $19 #
shell $-1 $-1 $-1 $42 $-1 $21 #
shell $-1 $-1 $-1 $43 $-1 $23 #
shell $-1 $-1 $-1 $44 $-1 $25 #
face $-1 $45 $46 $27 $-1 $47 forward single #
face $-1 $48 $49 $28 $-1 $50 reversed single #
face $-1 $51 $52 $29 $-1 $53 reversed single #
face $-1 $54 $55 $30 $-1 $56 forward single #
face $-1 $57 $58 $31 $-1 $59 forward single #
face $-1 $60 $61 $32 $-1 $62 forward single #
face $-1 $63 $64 $33 $-1 $65 reversed single #
face $-1 $66 $67 $34 $-1 $68 forward single #
face $-1 $69 $70 $35 $-1 $71 forward single #
face $-1 $72 $73 $27 $-1 $74 reversed single #
loop $-1 $-1 $75 $36 #
plane-surface $-1 0 0 9.9185390649512026 0 0 1 1 0 0 forward_v I I I I #
face $-1 $76 $77 $28 $-1 $78 reversed single #
loop $-1 $-1 $79 $37 #
plane-surface $-1 -51.615179438068239 -26.749943547378699 0 1 0 0 0 0 -1 forward_v I I I I #
face $-1 $80 $81 $29 $-1 $82 reversed single #
loop $-1 $-1 $83 $38 #
plane-surface $-1 -112.74956122487671 -19.682333334800482 88.381187391945673 0 1 0 -0.55919291073839883 0 0.82903756765294845 forward_v I I I I #
face $-1 $84 $85 $30 $-1 $86 forward single #
loop $-1 $87 $88 $39 #
cone-surface $-1 -45.689618064571398 -17.84848647665028 4.6104163771534115 0.55919291073839883 0 -0.82903756765294845 0.41451878382647422 0 0.27959645536919941 1 I I 0 1 0.5 forward I I I I #
face $-1 $89 $90 $31 $-1 $91 forward single #
loop $-1 $92 $93 $40 #
cone-surface $-1 -45.689618064571398 -15.097716189424975 4.6104163771534115 0.55919291073839883 0 -0.82903756765294845 0.41451878382647422 0 0.27959645536919941 1 I I 0 1 0.5 forward I I I I #
face $-1 $94 $95 $32 $-1 $96 forward single #
loop $-1 $97 $98 $41 #
cone-surface $-1 -45.689618064571398 -12.346945902199671 4.6104163771534115 0.55919291073839883 0 -0.82903756765294845 0.41451878382647422 0 0.27959645536919941 1 I I 0 1 0.5 forward I I I I #
face $-1 $99 $100 $33 $-1 $101 reversed single #
loop $-1 $-1 $102 $42 #
plane-surface $-1 21.925048194596194 0.38250720534551697 152.78264326110974 0 -1 0 -0.54463904215088732 0 -0.83867056331134215 forward_v I I I I #
face $-1 $103 $104 $34 $-1 $105 forward single #
loop $-1 $106 $107 $43 #
cone-surface $-1 49.574103432005295 -4.4649245128310326 7.3055973857502963 -0.54463904215088732 0 -0.83867056331134215 0.41933528165567108 0 -0.27231952107544366 1 I I 0 1 0.5 forward I I I I #
face $-1 $108 $109 $35 $-1 $110 forward single #
loop $-1 $111 $112 $44 #
cone-surface $-1 49.574103432005295 -1.5564654819251018 7.3055973857502963 -0.54463904215088732 0 -0.83867056331134215 0.41933528165567108 0 -0.27231952107544366 1 I I 0 1 0.5 forward I I I I #
face $-1 $113 $114 $27 $-1 $115 reversed single #
loop $-1 $-1 $116 $45 #
plane-surface $-1 0 0 -9.9185390649512026 0 0 1 1 0 0 forward_v I I I I #
coedge $-1 $117 $118 $119 $120 forward $46 $-1 #
face $-1 $121 $122 $28 $-1 $123 reversed single #
loop $-1 $-1 $124 $48 #
plane-surface $-1 -49.338004917003708 -23.256566707899154 0 0 -1 0 0 0 -1 forward_v I I I I #
coedge $-1 $125 $126 $127 $128 forward $49 $-1 #
face $-1 $129 $130 $29 $-1 $131 reversed single #
loop $-1 $-1 $132 $51 #
plane-surface $-1 -53.224280526139111 -15.097716189424975 0.13133125700856851 -0.55919291073839883 0 0.82903756765294845 0.82903756765294845 0 0.55919291073839883 forward_v I I I I #
coedge $-1 $133 $134 $135 $136 reversed $52 $-1 #
face $-1 $-1 $137 $30 $-1 $138 forward single #
loop $-1 $139 $140 $54 #
cone-surface $-1 -45.270223381517596 -17.84848647665028 3.9886382014136998 0.55919291073839883 0 -0.82903756765294845 0.20725939191323711 0 0.13979822768459971 1 I I -0.70710678118654746 0.70710678118654746 0.25 forward I I I I #
loop $-1 $-1 $141 $39 #
coedge $-1 $88 $88 $142 $143 reversed $55 $-1 #
face $-1 $-1 $144 $31 $-1 $145 forward single #
loop $-1 $146 $147 $57 #
cone-surface $-1 -45.270223381517596 -15.097716189424975 3.9886382014136998 0.55919291073839883 0 -0.82903756765294845 0.20725939191323711 0 0.13979822768459971 1 I I -0.70710678118654746 0.70710678118654746 0.25 forward I I I I #
loop $-1 $-1 $148 $40 #
coedge $-1 $93 $93 $149 $150 reversed $58 $-1 #
face $-1 $-1 $151 $32 $-1 $152 forward single #
loop $-1 $153 $154 $60 #
cone-surface $-1 -45.270223381517596 -12.346945902199671 3.9886382014136998 0.55919291073839883 0 -0.82903756765294845 0.20725939191323711 0 0.13979822768459971 1 I I -0.70710678118654746 0.70710678118654746 0.25 forward I I I I #
loop $-1 $-1 $155 $41 #
coedge $-1 $98 $98 $156 $157 reversed $61 $-1 #
face $-1 $158 $159 $33 $-1 $160 reversed single #
loop $-1 $-1 $161 $63 #
plane-surface $-1 -36.050994135256857 -3.0106949973780672 63.507368599713772 0.54463904215088732 0 0.83867056331134215 0.83867056331134215 0 -0.54463904215088732 forward_v I I I I #
coedge $-1 $162 $163 $164 $165 reversed $64 $-1 #
face $-1 $-1 $166 $34 $-1 $167 forward single #
loop $-1 $168 $169 $66 #
cone-surface $-1 49.165624150392127 -4.4649245128310326 6.67659446326679 -0.54463904215088732 0 -0.83867056331134215 0.20966764082783554 0 -0.13615976053772183 1 I I -0.70710678118654746 0.70710678118654746 0.25 forward I I I I #
loop $-1 $-1 $170 $43 #
coedge $-1 $107 $107 $171 $172 reversed $67 $-1 #
face $-1 $-1 $173 $35 $-1 $174 forward single #
loop $-1 $175 $176 $69 #
cone-surface $-1 49.165624150392127 -1.5564654819251018 6.67659446326679 -0.54463904215088732 0 -0.83867056331134215 0.20966764082783554 0 -0.13615976053772183 1 I I -0.70710678118654746 0.70710678118654746 0.25 forward I I I I #
loop $-1 $-1 $177 $44 #
coedge $-1 $112 $112 $178 $179 reversed $70 $-1 #
face $-1 $180 $181 $27 $-1 $182 reversed single #
loop $-1 $-1 $183 $72 #
plane-surface $-1 0 -30.243320386858244 0 0 1 0 0 0 1 forward_v I I I I #
coedge $-1 $184 $185 $186 $187 forward $73 $-1 #
coedge $-1 $188 $75 $189 $190 forward $46 $-1 #
coedge $-1 $75 $188 $191 $192 forward $46 $-1 #
coedge $-1 $193 $194 $75 $120 reversed $195 $-1 #
edge $-1 $196 -30.243320386858244 $197 30.243320386858244 $119 $198 forward 7 unknown #
face $-1 $199 $200 $28 $-1 $201 forward single #
loop $-1 $-1 $202 $76 #
plane-surface $-1 -47.060830395939178 -26.749943547378699 0 -1 0 0 0 0 1 forward_v I I I I #
coedge $-1 $203 $204 $205 $206 forward $77 $-1 #
coedge $-1 $207 $79 $208 $209 reversed $49 $-1 #
coedge $-1 $79 $207 $210 $211 reversed $49 $-1 #
coedge $-1 $204 $203 $79 $128 reversed $77 $-1 #
edge $-1 $212 -9.9185390649512026 $213 9.9185390649512026 $127 $214 forward 7 unknown #
face $-1 $215 $216 $29 $-1 $217 reversed single #
loop $-1 $-1 $218 $80 #
plane-surface $-1 -112.74956122487671 -10.513099044049468 88.381187391945673 0 -1 0 0.55919291073839883 0 -0.82903756765294845 forward_v I I I I #
coedge $-1 $219 $220 $221 $222 reversed $81 $-1 #
coedge $-1 $134 $83 $223 $224 reversed $52 $-1 #
coedge $-1 $83 $133 $219 $225 reversed $52 $-1 #
coedge $-1 $221 $226 $83 $136 forward $227 $-1 #
edge $-1 $228 3.1505000862992532 $229 17.660632098696261 $135 $230 forward 7 unknown #
loop $-1 $-1 $142 $84 #
plane-surface $-1 -53.224280526139111 -15.097716189424975 0.13133125700856851 -0.55919291073839883 0 0.82903756765294845 0.82903756765294845 0 0.55919291073839883 forward_v I I I I #
loop $-1 $-1 $231 $54 #
coedge $-1 $140 $140 $141 $232 reversed $85 $-1 #
coedge $-1 $141 $141 $140 $232 forward $87 $-1 #
coedge $-1 $142 $142 $88 $143 forward $137 $-1 #
edge $-1 $233 0 $233 6.2831853071796004 $142 $234 forward 7 unknown #
loop $-1 $-1 $149 $89 #
plane-surface $-1 -53.224280526139111 -15.097716189424975 0.13133125700856851 -0.55919291073839883 0 0.82903756765294845 0.82903756765294845 0 0.55919291073839883 forward_v I I I I #
loop $-1 $-1 $235 $57 #
coedge $-1 $147 $147 $148 $236 reversed $90 $-1 #
coedge $-1 $148 $148 $147 $236 forward $92 $-1 #
coedge $-1 $149 $149 $93 $150 forward $144 $-1 #
edge $-1 $237 0 $237 6.2831853071796004 $149 $238 forward 7 unknown #
loop $-1 $-1 $156 $94 #
plane-surface $-1 -53.224280526139111 -15.097716189424975 0.13133125700856851 -0.55919291073839883 0 0.82903756765294845 0.82903756765294845 0 0.55919291073839883 forward_v I I I I #
loop $-1 $-1 $239 $60 #
coedge $-1 $154 $154 $155 $240 reversed $95 $-1 #
coedge $-1 $155 $155 $154 $240 forward $97 $-1 #
coedge $-1 $156 $156 $98 $157 forward $151 $-1 #
edge $-1 $241 0 $241 6.2831853071796004 $156 $242 forward 7 unknown #
face $-1 $243 $244 $33 $-1 $245 forward single #
loop $-1 $-1 $246 $99 #
plane-surface $-1 21.925048194596194 -6.4038972001016514 152.78264326110974 0 1 0 0.54463904215088732 0 0.83867056331134215 forward_v I I I I #
coedge $-1 $247 $248 $249 $250 reversed $100 $-1 #
coedge $-1 $163 $102 $251 $252 reversed $64 $-1 #
coedge $-1 $102 $162 $247 $253 reversed $64 $-1 #
coedge $-1 $249 $254 $102 $165 forward $244 $-1 #
edge $-1 $255 -42.261756428841011 $256 -35.506041282724254 $164 $257 forward 7 unknown #
loop $-1 $-1 $171 $103 #
plane-surface $-1 -36.050994135256857 -3.0106949973780672 63.507368599713772 0.54463904215088732 0 0.83867056331134215 0.83867056331134215 0 -0.54463904215088732 forward_v I I I I #
loop $-1 $-1 $258 $66 #
coedge $-1 $169 $169 $170 $259 reversed $104 $-1 #
coedge $-1 $170 $170 $169 $259 forward $106 $-1 #
coedge $-1 $171 $171 $107 $172 forward $166 $-1 #
edge $-1 $260 0 $260 6.2831853071796004 $171 $261 forward 7 unknown #
loop $-1 $-1 $178 $108 #
plane-surface $-1 -36.050994135256857 -3.0106949973780672 63.507368599713772 0.54463904215088732 0 0.83867056331134215 0.83867056331134215 0 -0.54463904215088732 forward_v I I I I #
loop $-1 $-1 $262 $69 #
coedge $-1 $176 $176 $177 $263 reversed $109 $-1 #
coedge $-1 $177 $177 $176 $263 forward $111 $-1 #
coedge $-1 $178 $178 $112 $179 forward $173 $-1 #
edge $-1 $264 0 $264 6.2831853071796004 $178 $265 forward 7 unknown #
face $-1 $266 $267 $27 $-1 $268 reversed single #
loop $-1 $-1 $269 $113 #
plane-surface $-1 -53.224280526139104 0 0 1 0 0 0 0 -1 forward_v I I I I #
coedge $-1 $270 $191 $271 $272 forward $114 $-1 #
coedge $-1 $273 $116 $270 $274 forward $73 $-1 #
coedge $-1 $116 $273 $275 $276 forward $73 $-1 #
coedge $-1 $194 $193 $116 $187 reversed $195 $-1 #
edge $-1 $277 -30.243320386858244 $278 30.243320386858244 $186 $279 forward 7 unknown #
coedge $-1 $118 $117 $280 $281 forward $46 $-1 #
coedge $-1 $282 $283 $117 $190 reversed $267 $-1 #
edge $-1 $197 -53.224280526139104 $284 53.224280526139104 $189 $285 forward 7 unknown #
coedge $-1 $183 $286 $118 $192 reversed $114 $-1 #
edge $-1 $287 -53.224280526139104 $196 53.224280526139104 $191 $288 forward 7 unknown #
coedge $-1 $186 $119 $286 $289 forward $195 $-1 #
coedge $-1 $119 $186 $282 $290 reversed $195 $-1 #
loop $-1 $-1 $193 $266 #
vertex $-1 $120 $291 #
vertex $-1 $120 $292 #
straight-curve $-1 53.224280526139104 0 9.9185390649512026 0 1 0 I I #
face $-1 $293 $294 $28 $-1 $295 reversed single #
loop $-1 $-1 $296 $121 #
plane-surface $-1 0 0 9.9185390649512026 0 0 1 1 0 0 forward_v I I I I #
coedge $-1 $297 $298 $299 $300 reversed $122 $-1 #
coedge $-1 $127 $124 $301 $302 reversed $77 $-1 #
coedge $-1 $124 $127 $303 $304 reversed $77 $-1 #
coedge $-1 $298 $297 $124 $206 reversed $122 $-1 #
edge $-1 $305 -9.9185390649512026 $306 9.9185390649512026 $205 $307 forward 7 unknown #
coedge $-1 $126 $125 $308 $309 reversed $49 $-1 #
coedge $-1 $301 $310 $125 $209 forward $294 $-1 #
edge $-1 $311 -16.868348613168894 $213 -9.8815949342098044 $208 $312 forward 7 unknown #
coedge $-1 $313 $303 $126 $211 forward $200 $-1 #
edge $-1 $212 9.8815949342098044 $314 16.868348613168894 $210 $315 forward 7 unknown #
vertex $-1 $211 $316 #
vertex $-1 $209 $317 #
straight-curve $-1 -51.615179438068239 -23.256566707899154 0 0 0 -1 I I #
face $-1 $-1 $227 $29 $-1 $318 forward single #
loop $-1 $-1 $319 $129 #
plane-surface $-1 -53.224280526139104 0 0 1 0 0 0 0 -1 forward_v I I I I #
coedge $-1 $320 $321 $322 $323 reversed $130 $-1 #
coedge $-1 $324 $132 $134 $225 forward $81 $-1 #
coedge $-1 $132 $324 $320 $325 forward $81 $-1 #
coedge $-1 $322 $135 $132 $222 forward $227 $-1 #
edge $-1 $229 -12.133475240087995 $326 -2.9642409493369808 $221 $327 forward 7 unknown #
coedge $-1 $328 $329 $133 $224 forward $216 $-1 #
edge $-1 $330 -44.059262438964261 $228 -34.272054631021632 $223 $331 forward 7 unknown #
edge $-1 $229 -17.50238177200583 $330 -8.575750967046375e-015 $134 $332 forward 7 unknown #
coedge $-1 $135 $322 $328 $333 forward $227 $-1 #
loop $-1 $-1 $322 $215 #
vertex $-1 $224 $334 #
vertex $-1 $136 $335 #
straight-curve $-1 -56.374780612438357 -19.682333334800482 9.9185390649512044 1 0 0 I I #
coedge $-1 $231 $231 $-1 $336 reversed $139 $-1 #
edge $-1 $337 0 $337 6.2831853071796004 $140 $338 forward 7 unknown #
vertex $-1 $143 $339 #
ellipse-curve $-1 -45.9692145199406 -17.84848647665028 5.0249351609798891 -0.55919291073839883 0 0.82903756765294845 0.41451878382647422 0 0.27959645536919941 1 I I #
coedge $-1 $235 $235 $-1 $340 reversed $146 $-1 #
edge $-1 $341 0 $341 6.2831853071796004 $147 $342 forward 7 unknown #
vertex $-1 $150 $343 #
ellipse-curve $-1 -45.9692145199406 -15.097716189424975 5.0249351609798891 -0.55919291073839883 0 0.82903756765294845 0.41451878382647422 0 0.27959645536919941 1 I I #
coedge $-1 $239 $239 $-1 $344 reversed $153 $-1 #
edge $-1 $345 0 $345 6.2831853071796004 $154 $346 forward 7 unknown #
vertex $-1 $157 $347 #
ellipse-curve $-1 -45.9692145199406 -12.346945902199671 5.0249351609798891 -0.55919291073839883 0 0.82903756765294845 0.41451878382647422 0 0.27959645536919941 1 I I #
face $-1 $-1 $348 $33 $-1 $349 reversed single #
loop $-1 $-1 $164 $158 #
plane-surface $-1 0 0 9.9185390649512026 0 0 1 1 0 0 forward_v I I I I #
coedge $-1 $350 $351 $352 $353 reversed $159 $-1 #
coedge $-1 $354 $161 $163 $253 forward $100 $-1 #
coedge $-1 $161 $354 $350 $355 forward $100 $-1 #
coedge $-1 $352 $164 $161 $250 forward $244 $-1 #
edge $-1 $256 -1.8878547040345506 $356 4.8985497014126178 $249 $357 forward 7 unknown #
coedge $-1 $358 $359 $162 $252 forward $348 $-1 #
edge $-1 $360 -70.859995360694157 $255 -66.472782565603666 $251 $361 forward 7 unknown #
edge $-1 $256 98.393294250683311 $360 106.44856105227822 $163 $362 forward 7 unknown #
coedge $-1 $164 $352 $358 $363 forward $244 $-1 #
vertex $-1 $252 $364 #
vertex $-1 $165 $365 #
straight-curve $-1 10.962524097298097 0.38250720534551697 9.9185390649512044 -1 0 0 I I #
coedge $-1 $258 $258 $-1 $366 reversed $168 $-1 #
edge $-1 $367 0 $367 6.2831853071796004 $169 $368 forward 7 unknown #
vertex $-1 $172 $369 #
ellipse-curve $-1 49.846422953080733 -4.4649245128310326 7.7249326674059615 0.54463904215088732 0 0.83867056331134215 0.41933528165567108 0 -0.27231952107544366 1 I I #
coedge $-1 $262 $262 $-1 $370 reversed $175 $-1 #
edge $-1 $371 0 $371 6.2831853071796004 $176 $372 forward 7 unknown #
vertex $-1 $179 $373 #
ellipse-curve $-1 49.846422953080733 -1.5564654819251018 7.7249326674059615 0.54463904215088732 0 0.83867056331134215 0.41933528165567108 0 -0.27231952107544366 1 I I #
face $-1 $-1 $195 $27 $-1 $374 reversed single #
loop $-1 $-1 $282 $180 #
plane-surface $-1 0 30.243320386858244 0 0 -1 0 0 0 -1 forward_v I I I I #
coedge $-1 $375 $280 $283 $376 forward $181 $-1 #
coedge $-1 $286 $183 $184 $274 reversed $114 $-1 #
coedge $-1 $280 $375 $183 $272 reversed $181 $-1 #
edge $-1 $287 -9.9185390649512026 $377 9.9185390649512026 $271 $378 forward 7 unknown #
coedge $-1 $185 $184 $375 $379 forward $73 $-1 #
edge $-1 $278 -53.224280526139104 $377 53.224280526139104 $270 $380 forward 7 unknown #
coedge $-1 $283 $282 $185 $276 reversed $267 $-1 #
edge $-1 $381 -53.224280526139104 $277 53.224280526139104 $275 $382 forward 7 unknown #
vertex $-1 $187 $383 #
vertex $-1 $289 $384 #
straight-curve $-1 53.224280526139104 0 -9.9185390649512026 0 -1 0 I I #
coedge $-1 $269 $271 $188 $281 reversed $181 $-1 #
edge $-1 $284 -30.243320386858244 $287 30.243320386858244 $280 $385 forward 7 unknown #
coedge $-1 $275 $189 $194 $290 forward $267 $-1 #
coedge $-1 $189 $275 $269 $376 reversed $267 $-1 #
vertex $-1 $190 $386 #
straight-curve $-1 0 30.243320386858244 9.9185390649512026 -1 0 0 I I #
coedge $-1 $191 $270 $193 $289 reversed $114 $-1 #
vertex $-1 $281 $387 #
straight-curve $-1 0 -30.243320386858244 9.9185390649512026 1 0 0 I I #
edge $-1 $196 -9.9185390649512026 $278 9.9185390649512026 $193 $388 forward 7 unknown #
edge $-1 $197 -9.9185390649512026 $277 9.9185390649512026 $194 $389 forward 7 unknown #
point $-1 53.224280526139104 -30.243320386858244 9.9185390649512026 #
point $-1 53.224280526139104 30.243320386858244 9.9185390649512026 #
face $-1 $-1 $390 $28 $-1 $391 reversed single #
loop $-1 $-1 $392 $199 #
plane-surface $-1 0 0 -9.9185390649512026 0 0 1 1 0 0 forward_v I I I I #
coedge $-1 $303 $313 $298 $393 forward $200 $-1 #
coedge $-1 $205 $202 $392 $394 reversed $122 $-1 #
coedge $-1 $202 $205 $296 $393 reversed $122 $-1 #
coedge $-1 $395 $396 $202 $300 forward $390 $-1 #
edge $-1 $397 -9.9185390649512026 $398 9.9185390649512026 $299 $399 forward 7 unknown #
coedge $-1 $392 $208 $203 $302 forward $294 $-1 #
edge $-1 $213 -26.946176979566385 $306 -22.391827937437323 $301 $400 forward 7 unknown #
coedge $-1 $210 $296 $204 $304 forward $200 $-1 #
edge $-1 $305 22.391827937437323 $212 26.946176979566385 $303 $401 forward 7 unknown #
vertex $-1 $304 $402 #
vertex $-1 $302 $403 #
straight-curve $-1 -47.060830395939178 -23.256566707899154 0 0 0 -1 I I #
coedge $-1 $396 $395 $207 $309 forward $390 $-1 #
edge $-1 $314 -9.9185390649512026 $311 9.9185390649512026 $308 $404 forward 7 unknown #
coedge $-1 $208 $392 $396 $405 forward $294 $-1 #
vertex $-1 $209 $406 #
straight-curve $-1 -51.615179438068239 -13.374971773689349 -9.9185390649512026 0 1 0 I I #
coedge $-1 $296 $210 $395 $407 forward $200 $-1 #
vertex $-1 $407 $408 #
straight-curve $-1 -51.615179438068239 -13.374971773689349 9.9185390649512026 0 -1 0 I I #
point $-1 -51.615179438068239 -23.256566707899154 9.9185390649512026 #
point $-1 -51.615179438068239 -23.256566707899154 -9.9185390649512026 #
plane-surface $-1 0 0 9.9185390649512026 0 0 1 1 0 0 forward_v I I I I #
coedge $-1 $329 $328 $321 $409 forward $216 $-1 #
coedge $-1 $321 $218 $220 $325 reversed $130 $-1 #
coedge $-1 $218 $320 $319 $409 reversed $130 $-1 #
coedge $-1 $226 $221 $218 $323 forward $227 $-1 #
edge $-1 $326 -17.660632098696261 $410 -3.1505000862992532 $322 $411 forward 7 unknown #
coedge $-1 $220 $219 $329 $412 reversed $81 $-1 #
edge $-1 $413 8.575750967046375e-015 $326 17.50238177200583 $320 $414 forward 7 unknown #
vertex $-1 $222 $415 #
straight-curve $-1 -38.714148513742096 -7.5488580947124877 9.9185390649512026 0 1 0 I I #
coedge $-1 $319 $223 $226 $333 reversed $216 $-1 #
coedge $-1 $223 $319 $324 $412 forward $216 $-1 #
vertex $-1 $224 $416 #
straight-curve $-1 -53.224280526139104 -19.682333334800482 44.190593695972836 0 0 1 I I #
straight-curve $-1 -53.224280526139111 -19.682333334800482 0.13133125700856851 -0.82903756765294845 0 -0.55919291073839883 I I #
edge $-1 $410 10.513099044049468 $228 19.682333334800482 $328 $417 forward 7 unknown #
point $-1 -53.224280526139104 -19.682333334800482 9.9185390649512026 #
point $-1 -38.714148513742096 -19.682333334800482 9.9185390649512026 #
edge $-1 $418 1 $418 0 $231 $-1 forward 7 unknown #
vertex $-1 $232 $419 #
ellipse-curve $-1 -45.410021609202197 -17.84848647665028 4.1958975933269373 -0.55919291073839883 0 0.82903756765294845 0.41451878382647422 0 0.27959645536919941 1 I I #
point $-1 -45.55469573611412 -17.84848647665028 5.3045316163490845 #
edge $-1 $420 1 $420 0 $235 $-1 forward 7 unknown #
vertex $-1 $236 $421 #
ellipse-curve $-1 -45.410021609202197 -15.097716189424975 4.1958975933269373 -0.55919291073839883 0 0.82903756765294845 0.41451878382647422 0 0.27959645536919941 1 I I #
point $-1 -45.55469573611412 -15.097716189424975 5.3045316163490845 #
edge $-1 $422 1 $422 0 $239 $-1 forward 7 unknown #
vertex $-1 $240 $423 #
ellipse-curve $-1 -45.410021609202197 -12.346945902199671 4.1958975933269373 -0.55919291073839883 0 0.82903756765294845 0.41451878382647422 0 0.27959645536919941 1 I I #
point $-1 -45.55469573611412 -12.346945902199671 5.3045316163490845 #
loop $-1 $-1 $251 $243 #
plane-surface $-1 53.224280526139104 0 0 -1 0 0 0 0 1 forward_v I I I I #
coedge $-1 $351 $246 $248 $355 reversed $159 $-1 #
coedge $-1 $246 $350 $424 $425 reversed $159 $-1 #
coedge $-1 $254 $249 $246 $353 forward $244 $-1 #
edge $-1 $356 35.506041282724254 $426 42.261756428841011 $352 $427 forward 7 unknown #
coedge $-1 $248 $247 $359 $428 reversed $100 $-1 #
edge $-1 $429 -106.44856105227822 $356 -98.393294250683311 $350 $430 forward 7 unknown #
vertex $-1 $250 $431 #
straight-curve $-1 46.468565380022362 -1.5053474986890336 9.9185390649512044 0 -1 0 I I #
coedge $-1 $424 $251 $254 $363 reversed $348 $-1 #
coedge $-1 $251 $424 $354 $428 forward $348 $-1 #
vertex $-1 $252 $432 #
straight-curve $-1 53.224280526139104 0.38250720534551697 76.39132163055487 0 0 1 I I #
straight-curve $-1 -36.050994135256857 0.38250720534551697 63.507368599713772 0.83867056331134215 0 -0.54463904215088732 I I #
edge $-1 $426 -6.4038972001016514 $255 0.38250720534551697 $358 $433 forward 7 unknown #
point $-1 53.224280526139104 0.38250720534551697 9.9185390649512026 #
point $-1 46.468565380022355 0.38250720534551697 9.9185390649512044 #
edge $-1 $434 1 $434 0 $258 $-1 forward 7 unknown #
vertex $-1 $259 $435 #
ellipse-curve $-1 49.301783910929849 -4.4649245128310326 6.8862621040946257 0.54463904215088732 0 0.83867056331134215 0.41933528165567108 0 -0.27231952107544366 1 I I #
point $-1 50.26575823473641 -4.4649245128310326 7.4526131463305241 #
edge $-1 $436 1 $436 0 $262 $-1 forward 7 unknown #
vertex $-1 $263 $437 #
ellipse-curve $-1 49.301783910929849 -1.5564654819251018 6.8862621040946257 0.54463904215088732 0 0.83867056331134215 0.41933528165567108 0 -0.27231952107544366 1 I I #
point $-1 50.26575823473641 -1.5564654819251018 7.4526131463305241 #
plane-surface $-1 53.224280526139104 0 0 -1 0 0 0 0 1 forward_v I I I I #
coedge $-1 $271 $269 $273 $379 reversed $181 $-1 #
edge $-1 $284 -9.9185390649512026 $381 9.9185390649512026 $283 $438 forward 7 unknown #
vertex $-1 $379 $439 #
straight-curve $-1 -53.224280526139104 -30.243320386858244 0 0 0 -1 I I #
edge $-1 $377 -30.243320386858244 $381 30.243320386858244 $375 $440 forward 7 unknown #
straight-curve $-1 0 -30.243320386858244 -9.9185390649512026 -1 0 0 I I #
vertex $-1 $276 $441 #
straight-curve $-1 0 30.243320386858244 -9.9185390649512026 1 0 0 I I #
point $-1 53.224280526139104 30.243320386858244 -9.9185390649512026 #
point $-1 53.224280526139104 -30.243320386858244 -9.9185390649512026 #
straight-curve $-1 -53.224280526139104 0 9.9185390649512026 0 -1 0 I I #
point $-1 -53.224280526139104 30.243320386858244 9.9185390649512026 #
point $-1 -53.224280526139104 -30.243320386858244 9.9185390649512026 #
straight-curve $-1 53.224280526139104 -30.243320386858244 0 0 0 -1 I I #
straight-curve $-1 53.224280526139104 30.243320386858244 0 0 0 -1 I I #
loop $-1 $-1 $299 $293 #
plane-surface $-1 0 -30.243320386858244 0 0 1 0 0 0 1 forward_v I I I I #
coedge $-1 $310 $301 $297 $394 forward $294 $-1 #
edge $-1 $398 -16.868348613168894 $305 -9.8815949342098044 $296 $442 forward 7 unknown #
edge $-1 $306 9.8815949342098044 $397 16.868348613168894 $392 $443 forward 7 unknown #
coedge $-1 $308 $299 $313 $407 reversed $390 $-1 #
coedge $-1 $299 $308 $310 $405 reversed $390 $-1 #
vertex $-1 $405 $444 #
vertex $-1 $300 $445 #
straight-curve $-1 -47.060830395939178 -30.243320386858244 0 0 0 1 I I #
straight-curve $-1 -24.669002458501854 -23.256566707899154 -9.9185390649512026 1 0 0 I I #
straight-curve $-1 -24.669002458501854 -23.256566707899154 9.9185390649512026 -1 0 0 I I #
point $-1 -47.060830395939178 -23.256566707899154 9.9185390649512026 #
point $-1 -47.060830395939178 -23.256566707899154 -9.9185390649512026 #
straight-curve $-1 -51.615179438068239 -30.243320386858244 0 0 0 -1 I I #
edge $-1 $397 47.060830395939178 $311 51.615179438068239 $396 $446 forward 7 unknown #
point $-1 -51.615179438068239 -30.243320386858244 -9.9185390649512026 #
edge $-1 $314 -51.615179438068239 $398 -47.060830395939178 $395 $447 forward 7 unknown #
point $-1 -51.615179438068239 -30.243320386858244 9.9185390649512026 #
edge $-1 $410 34.272054631021632 $413 44.059262438964261 $319 $448 forward 7 unknown #
vertex $-1 $333 $449 #
straight-curve $-1 -56.374780612438357 -10.513099044049468 9.9185390649512044 -1 0 0 I I #
edge $-1 $413 2.9642409493369808 $330 12.133475240087995 $329 $450 forward 7 unknown #
vertex $-1 $412 $451 #
straight-curve $-1 -53.224280526139111 -10.513099044049468 0.13133125700856851 0.82903756765294845 0 0.55919291073839883 I I #
point $-1 -38.714148513742096 -10.513099044049468 9.9185390649512026 #
point $-1 -53.224280526139104 -19.682333334800482 0.13133125700857332 #
straight-curve $-1 -53.224280526139104 0 9.9185390649512026 0 -1 0 I I #
vertex $-1 $336 $452 #
point $-1 -44.995502825375723 -17.84848647665028 4.4754940486961363 #
vertex $-1 $340 $453 #
point $-1 -44.995502825375723 -15.097716189424975 4.4754940486961363 #
vertex $-1 $344 $454 #
point $-1 -44.995502825375723 -12.346945902199671 4.4754940486961363 #
coedge $-1 $359 $358 $351 $425 forward $348 $-1 #
edge $-1 $426 66.472782565603666 $429 70.859995360694157 $424 $455 forward 7 unknown #
vertex $-1 $363 $456 #
straight-curve $-1 10.962524097298097 -6.4038972001016514 9.9185390649512044 1 0 0 I I #
edge $-1 $429 -4.8985497014126178 $360 1.8878547040345506 $359 $457 forward 7 unknown #
vertex $-1 $428 $458 #
straight-curve $-1 -36.050994135256857 -6.4038972001016514 63.507368599713772 -0.83867056331134215 0 0.54463904215088732 I I #
point $-1 46.468565380022355 -6.4038972001016514 9.9185390649512044 #
point $-1 53.224280526139111 0.38250720534551697 5.5313262698607133 #
straight-curve $-1 53.224280526139104 0 9.9185390649512026 0 1 0 I I #
vertex $-1 $366 $459 #
point $-1 49.721119192585519 -4.4649245128310326 6.613942583019182 #
vertex $-1 $370 $460 #
point $-1 49.721119192585519 -1.5564654819251018 6.613942583019182 #
straight-curve $-1 -53.224280526139104 30.243320386858244 0 0 0 -1 I I #
point $-1 -53.224280526139104 -30.243320386858244 -9.9185390649512026 #
straight-curve $-1 -53.224280526139104 0 -9.9185390649512026 0 1 0 I I #
point $-1 -53.224280526139104 30.243320386858244 -9.9185390649512026 #
straight-curve $-1 -47.060830395939178 -13.374971773689349 9.9185390649512026 0 1 0 I I #
straight-curve $-1 -47.060830395939178 -13.374971773689349 -9.9185390649512026 0 -1 0 I I #
point $-1 -47.060830395939178 -30.243320386858244 -9.9185390649512026 #
point $-1 -47.060830395939178 -30.243320386858244 9.9185390649512026 #
straight-curve $-1 0 -30.243320386858244 -9.9185390649512026 -1 0 0 I I #
straight-curve $-1 0 -30.243320386858244 9.9185390649512026 1 0 0 I I #
straight-curve $-1 -53.224280526139104 -10.513099044049468 44.190593695972836 0 0 -1 I I #
point $-1 -53.224280526139104 -10.513099044049468 9.9185390649512026 #
straight-curve $-1 -53.224280526139104 -7.5488580947124877 0.13133125700857554 0 -1 0 I I #
point $-1 -53.224280526139104 -10.513099044049468 0.13133125700857332 #
point $-1 -45.130425153832995 -17.84848647665028 3.7813788095004628 #
point $-1 -45.130425153832995 -15.097716189424975 3.7813788095004628 #
point $-1 -45.130425153832995 -12.346945902199671 3.7813788095004628 #
straight-curve $-1 53.224280526139104 -6.4038972001016514 76.39132163055487 0 0 -1 I I #
point $-1 53.224280526139104 -6.4038972001016514 9.9185390649512026 #
straight-curve $-1 53.224280526139097 -1.5053474986890336 5.5313262698607204 0 1 0 I I #
point $-1 53.224280526139111 -6.4038972001016514 5.5313262698607133 #
point $-1 49.029464389854404 -4.4649245128310326 6.4669268224389542 #
point $-1 49.029464389854404 -1.5564654819251018 6.4669268224389542 #
End-of-ACIS-data 