500 0 8 0           
7 Unknown 11 ACIS 5.0 NT 24 Fri Mar 26 15:29:00 1999 
-1 9.9999999999999995e-007 1e-010 
body $-1 $8 $-1 $9 #
body $-1 $10 $-1 $11 #
body $-1 $12 $-1 $13 #
body $-1 $14 $-1 $15 #
body $-1 $16 $-1 $17 #
body $-1 $18 $-1 $19 #
body $-1 $20 $-1 $21 #
body $-1 $22 $-1 $23 #
lump $-1 $-1 $24 $0 #
transform $-1 1 0 0 0 1 0 0 0 1 53.945738090151679 34.48793330668402 7.7962285100640853 1 rotate no_reflect no_shear #
lump $-1 $-1 $25 $1 #
transform $-1 1 0 0 0 1 0 0 0 1 53.945738090151679 34.48793330668402 7.7962285100640853 1 rotate no_reflect no_shear #
lump $-1 $-1 $26 $2 #
transform $-1 1 0 0 0 1 0 0 0 1 53.945738090151679 34.48793330668402 7.7962285100640853 1 rotate no_reflect no_shear #
lump $-1 $-1 $27 $3 #
transform $-1 1 0 0 0 1 0 0 0 1 53.945738090151679 34.48793330668402 7.7962285100640853 1 rotate no_reflect no_shear #
lump $-1 $-1 $28 $4 #
transform $-1 1 0 0 0 1 0 0 0 1 53.945738090151679 34.48793330668402 7.7962285100640853 1 rotate no_reflect no_shear #
lump $-1 $-1 $29 $5 #
transform $-1 1 0 0 0 1 0 0 0 1 53.945738090151679 34.48793330668402 7.7962285100640853 1 rotate no_reflect no_shear #
lump $-1 $-1 $30 $6 #
transform $-1 1 0 0 0 1 0 0 0 1 53.945738090151679 34.48793330668402 7.7962285100640853 1 rotate no_reflect no_shear #
lump $-1 $-1 $31 $7 #
transform $-1 1 0 0 0 1 0 0 0 1 53.945738090151679 34.48793330668402 7.7962285100640853 1 rotate no_reflect no_shear #
shell $-1 $-1 $-1 $32 $-1 $8 #
shell $-1 $-1 $-1 $33 $-1 $10 #
shell $-1 $-1 $-1 $34 $-1 $12 #
shell $-1 $-1 $-1 $35 $-1 $14 #
shell $-1 $-1 $-1 $36 $-1 $16 #
shell $-1 $-1 $-1 $37 $-1 $18 #
shell $-1 $-1 $-1 $38 $-1 $20 #
shell $-1 $-1 $-1 $39 $-1 $22 #
face $-1 $40 $41 $24 $-1 $42 forward single #
face $-1 $43 $44 $25 $-1 $45 reversed single #
face $-1 $46 $47 $26 $-1 $48 reversed single #
face $-1 $49 $50 $27 $-1 $51 forward single #
face $-1 $52 $53 $28 $-1 $54 forward single #
face $-1 $55 $56 $29 $-1 $57 reversed single #
face $-1 $58 $59 $30 $-1 $60 forward single #
face $-1 $61 $62 $31 $-1 $63 forward single #
face $-1 $64 $65 $24 $-1 $66 reversed single #
loop $-1 $-1 $67 $32 #
plane-surface $-1 0 0 7.7962285100640853 0 0 1 1 0 0 forward_v I I I I #
face $-1 $68 $69 $25 $-1 $70 reversed single #
loop $-1 $-1 $71 $33 #
plane-surface $-1 -49.57455857746956 0 4.7962285100640853 0 0 1 1 0 0 forward_v I I I I #
face $-1 $72 $73 $26 $-1 $74 reversed single #
loop $-1 $-1 $75 $34 #
plane-surface $-1 64.589293611604546 0 154.51617239228278 0 -1 0 -0.75470958851134928 0 -0.65605901945558964 forward_v I I I I #
face $-1 $76 $77 $27 $-1 $78 forward single #
loop $-1 $79 $80 $35 #
cone-surface $-1 50.921189931772567 -9.1158033065395863 4.4963184366493403 -0.75470958851134928 0 -0.65605901945558964 0.65605901945558964 0 -0.75470958851134928 1 I I 0 1 1 forward I I I I #
face $-1 $81 $82 $28 $-1 $83 forward single #
loop $-1 $84 $85 $36 #
cone-surface $-1 50.921189931772567 -3.6463213226158331 4.4963184366493403 -0.75470958851134928 0 -0.65605901945558964 0.65605901945558964 0 -0.75470958851134928 1 I I 0 1 1 forward I I I I #
face $-1 $86 $87 $29 $-1 $88 reversed single #
loop $-1 $-1 $89 $37 #
plane-surface $-1 64.589293611604546 12.762124629155423 154.51617239228278 0 -1 0 -0.75470958851134928 0 -0.65605901945558964 forward_v I I I I #
face $-1 $90 $91 $30 $-1 $92 forward single #
loop $-1 $93 $94 $38 #
cone-surface $-1 50.921189931772567 3.6463213226158402 4.4963184366493403 -0.75470958851134928 0 -0.65605901945558964 0.65605901945558964 0 -0.75470958851134928 1 I I 0 1 1 forward I I I I #
face $-1 $95 $96 $31 $-1 $97 forward single #
loop $-1 $98 $99 $39 #
cone-surface $-1 50.921189931772567 9.1158033065395898 4.4963184366493403 -0.75470958851134928 0 -0.65605901945558964 0.65605901945558964 0 -0.75470958851134928 1 I I 0 1 1 forward I I I I #
face $-1 $100 $101 $24 $-1 $102 reversed single #
loop $-1 $-1 $103 $40 #
plane-surface $-1 0 0 -7.7962285100640853 0 0 1 1 0 0 forward_v I I I I #
coedge $-1 $104 $105 $106 $107 forward $41 $-1 #
face $-1 $108 $109 $25 $-1 $110 reversed single #
loop $-1 $-1 $111 $43 #
plane-surface $-1 -45.203379064787441 0 6.2962285100640853 -1 0 0 0 0 1 forward_v I I I I #
coedge $-1 $112 $113 $114 $115 forward $44 $-1 #
face $-1 $116 $117 $26 $-1 $118 reversed single #
loop $-1 $-1 $119 $46 #
plane-surface $-1 -16.837437980314249 -6.3810623145777114 83.732996321816856 0.75470958851134928 0 0.65605901945558964 0.65605901945558964 0 -0.75470958851134928 forward_v I I I I #
coedge $-1 $120 $121 $122 $123 reversed $47 $-1 #
face $-1 $-1 $124 $27 $-1 $125 forward single #
loop $-1 $126 $127 $49 #
cone-surface $-1 49.905463270846752 -9.1158033065395863 3.6133607435898059 -0.75470958851134928 0 -0.65605901945558964 0.32802950972779482 0 -0.37735479425567464 1 I I -0.70710678118654746 0.70710678118654746 0.5 forward I I I I #
loop $-1 $-1 $128 $35 #
coedge $-1 $80 $80 $129 $130 reversed $50 $-1 #
face $-1 $-1 $131 $28 $-1 $132 forward single #
loop $-1 $133 $134 $52 #
cone-surface $-1 49.905463270846752 -3.6463213226158331 3.6133607435898059 -0.75470958851134928 0 -0.65605901945558964 0.32802950972779482 0 -0.37735479425567464 1 I I -0.70710678118654746 0.70710678118654746 0.5 forward I I I I #
loop $-1 $-1 $135 $36 #
coedge $-1 $85 $85 $136 $137 reversed $53 $-1 #
face $-1 $138 $139 $29 $-1 $140 reversed single #
loop $-1 $-1 $141 $55 #
plane-surface $-1 -16.837437980314249 -6.3810623145777114 83.732996321816856 0.75470958851134928 0 0.65605901945558964 0.65605901945558964 0 -0.75470958851134928 forward_v I I I I #
coedge $-1 $142 $143 $144 $145 reversed $56 $-1 #
face $-1 $-1 $146 $30 $-1 $147 forward single #
loop $-1 $148 $149 $58 #
cone-surface $-1 49.905463270846752 3.6463213226158402 3.6133607435898059 -0.75470958851134928 0 -0.65605901945558964 0.32802950972779482 0 -0.37735479425567464 1 I I -0.70710678118654746 0.70710678118654746 0.5 forward I I I I #
loop $-1 $-1 $150 $38 #
coedge $-1 $94 $94 $151 $152 reversed $59 $-1 #
face $-1 $-1 $153 $31 $-1 $154 forward single #
loop $-1 $155 $156 $61 #
cone-surface $-1 49.905463270846752 9.1158033065395898 3.6133607435898059 -0.75470958851134928 0 -0.65605901945558964 0.32802950972779482 0 -0.37735479425567464 1 I I -0.70710678118654746 0.70710678118654746 0.5 forward I I I I #
loop $-1 $-1 $157 $39 #
coedge $-1 $99 $99 $158 $159 reversed $62 $-1 #
face $-1 $160 $161 $24 $-1 $162 reversed single #
loop $-1 $-1 $163 $64 #
plane-surface $-1 0 -34.48793330668402 0 0 1 0 0 0 1 forward_v I I I I #
coedge $-1 $164 $165 $166 $167 forward $65 $-1 #
coedge $-1 $168 $67 $169 $170 forward $41 $-1 #
coedge $-1 $67 $168 $171 $172 forward $41 $-1 #
coedge $-1 $173 $174 $67 $107 reversed $175 $-1 #
edge $-1 $176 -34.48793330668402 $177 34.48793330668402 $106 $178 forward 7 unknown #
face $-1 $179 $180 $25 $-1 $181 reversed single #
loop $-1 $-1 $182 $68 #
plane-surface $-1 0 34.48793330668402 0 0 -1 0 0 0 -1 forward_v I I I I #
coedge $-1 $114 $183 $184 $185 reversed $69 $-1 #
coedge $-1 $186 $71 $187 $188 reversed $44 $-1 #
coedge $-1 $71 $186 $189 $190 reversed $44 $-1 #
coedge $-1 $191 $111 $71 $115 reversed $69 $-1 #
edge $-1 $192 -34.48793330668402 $193 34.48793330668402 $114 $194 forward 7 unknown #
face $-1 $195 $196 $26 $-1 $197 forward single #
loop $-1 $-1 $198 $72 #
plane-surface $-1 64.589293611604546 -12.762124629155423 154.51617239228278 0 1 0 0.75470958851134928 0 0.65605901945558964 forward_v I I I I #
coedge $-1 $199 $200 $201 $202 reversed $73 $-1 #
coedge $-1 $121 $75 $203 $204 reversed $47 $-1 #
coedge $-1 $75 $120 $199 $205 reversed $47 $-1 #
coedge $-1 $201 $206 $75 $123 forward $196 $-1 #
edge $-1 $207 -21.651091284349405 $208 -16.878738700931478 $122 $209 forward 7 unknown #
loop $-1 $-1 $129 $76 #
plane-surface $-1 -16.837437980314249 -6.3810623145777114 83.732996321816856 0.75470958851134928 0 0.65605901945558964 0.65605901945558964 0 -0.75470958851134928 forward_v I I I I #
loop $-1 $-1 $210 $49 #
coedge $-1 $127 $127 $128 $211 reversed $77 $-1 #
coedge $-1 $128 $128 $127 $211 forward $79 $-1 #
coedge $-1 $129 $129 $80 $130 forward $124 $-1 #
edge $-1 $212 0 $212 6.2831853071796004 $129 $213 forward 7 unknown #
loop $-1 $-1 $136 $81 #
plane-surface $-1 -16.837437980314249 -6.3810623145777114 83.732996321816856 0.75470958851134928 0 0.65605901945558964 0.65605901945558964 0 -0.75470958851134928 forward_v I I I I #
loop $-1 $-1 $214 $52 #
coedge $-1 $134 $134 $135 $215 reversed $82 $-1 #
coedge $-1 $135 $135 $134 $215 forward $84 $-1 #
coedge $-1 $136 $136 $85 $137 forward $131 $-1 #
edge $-1 $216 0 $216 6.2831853071796004 $136 $217 forward 7 unknown #
face $-1 $218 $219 $29 $-1 $220 forward single #
loop $-1 $-1 $221 $86 #
plane-surface $-1 53.945738090151679 0 0 -1 0 0 0 0 1 forward_v I I I I #
coedge $-1 $222 $223 $224 $225 reversed $87 $-1 #
coedge $-1 $143 $89 $226 $227 reversed $56 $-1 #
coedge $-1 $89 $142 $228 $229 reversed $56 $-1 #
coedge $-1 $230 $221 $89 $145 forward $139 $-1 #
edge $-1 $231 -74.951821466243331 $232 -69.461857686077309 $144 $233 forward 7 unknown #
loop $-1 $-1 $151 $90 #
plane-surface $-1 -16.837437980314249 -6.3810623145777114 83.732996321816856 0.75470958851134928 0 0.65605901945558964 0.65605901945558964 0 -0.75470958851134928 forward_v I I I I #
loop $-1 $-1 $234 $58 #
coedge $-1 $149 $149 $150 $235 reversed $91 $-1 #
coedge $-1 $150 $150 $149 $235 forward $93 $-1 #
coedge $-1 $151 $151 $94 $152 forward $146 $-1 #
edge $-1 $236 0 $236 6.2831853071796004 $151 $237 forward 7 unknown #
loop $-1 $-1 $158 $95 #
plane-surface $-1 -16.837437980314249 -6.3810623145777114 83.732996321816856 0.75470958851134928 0 0.65605901945558964 0.65605901945558964 0 -0.75470958851134928 forward_v I I I I #
loop $-1 $-1 $238 $61 #
coedge $-1 $156 $156 $157 $239 reversed $96 $-1 #
coedge $-1 $157 $157 $156 $239 forward $98 $-1 #
coedge $-1 $158 $158 $99 $159 forward $153 $-1 #
edge $-1 $240 0 $240 6.2831853071796004 $158 $241 forward 7 unknown #
face $-1 $242 $243 $24 $-1 $244 reversed single #
loop $-1 $-1 $245 $100 #
plane-surface $-1 -53.945738090151679 0 0 1 0 0 0 0 -1 forward_v I I I I #
coedge $-1 $246 $171 $247 $248 forward $101 $-1 #
coedge $-1 $249 $103 $246 $250 forward $65 $-1 #
coedge $-1 $103 $249 $251 $252 forward $65 $-1 #
coedge $-1 $174 $173 $103 $167 reversed $175 $-1 #
edge $-1 $253 -34.48793330668402 $254 34.48793330668402 $166 $255 forward 7 unknown #
coedge $-1 $105 $104 $256 $257 forward $41 $-1 #
coedge $-1 $258 $259 $104 $170 reversed $243 $-1 #
edge $-1 $177 -53.945738090151679 $260 53.945738090151679 $169 $261 forward 7 unknown #
coedge $-1 $163 $262 $105 $172 reversed $101 $-1 #
edge $-1 $263 -53.945738090151679 $176 53.945738090151679 $171 $264 forward 7 unknown #
coedge $-1 $166 $106 $262 $265 forward $175 $-1 #
coedge $-1 $106 $166 $258 $266 reversed $175 $-1 #
loop $-1 $-1 $173 $242 #
vertex $-1 $107 $267 #
vertex $-1 $107 $268 #
straight-curve $-1 53.945738090151679 0 7.7962285100640853 0 1 0 I I #
face $-1 $269 $270 $25 $-1 $271 forward single #
loop $-1 $-1 $272 $108 #
plane-surface $-1 -53.945738090151679 0 0 1 0 0 0 0 -1 forward_v I I I I #
coedge $-1 $189 $273 $191 $274 forward $109 $-1 #
coedge $-1 $111 $191 $275 $276 reversed $69 $-1 #
coedge $-1 $277 $187 $111 $185 forward $278 $-1 #
edge $-1 $193 1.6481142550320427 $279 4.6481142550320431 $184 $280 forward 7 unknown #
coedge $-1 $113 $112 $272 $281 reversed $44 $-1 #
coedge $-1 $184 $282 $112 $188 forward $278 $-1 #
edge $-1 $283 -29.158458801416899 $193 -20.416099776052661 $187 $284 forward 7 unknown #
coedge $-1 $285 $182 $113 $190 forward $109 $-1 #
edge $-1 $192 20.416099776052661 $286 29.158458801416899 $189 $287 forward 7 unknown #
coedge $-1 $183 $114 $182 $274 reversed $69 $-1 #
vertex $-1 $190 $288 #
vertex $-1 $188 $289 #
straight-curve $-1 -45.203379064787441 0 4.7962285100640853 0 -1 0 I I #
face $-1 $-1 $290 $26 $-1 $291 reversed single #
loop $-1 $-1 $122 $116 #
plane-surface $-1 0 0 7.7962285100640853 0 0 1 1 0 0 forward_v I I I I #
coedge $-1 $292 $293 $294 $295 reversed $117 $-1 #
coedge $-1 $296 $119 $121 $205 forward $73 $-1 #
coedge $-1 $119 $296 $292 $297 forward $73 $-1 #
coedge $-1 $294 $122 $119 $202 forward $196 $-1 #
edge $-1 $208 -3.1905311572888557 $298 9.5715934718665672 $201 $299 forward 7 unknown #
coedge $-1 $300 $301 $120 $204 forward $290 $-1 #
edge $-1 $302 -74.951821466243331 $207 -69.461857686077309 $203 $303 forward 7 unknown #
edge $-1 $208 100.61720291845855 $302 107.89147618030339 $121 $304 forward 7 unknown #
coedge $-1 $122 $294 $300 $305 forward $196 $-1 #
vertex $-1 $204 $306 #
vertex $-1 $123 $307 #
straight-curve $-1 32.294646805802273 0 7.7962285100640827 -1 0 0 I I #
coedge $-1 $210 $210 $-1 $308 reversed $126 $-1 #
edge $-1 $309 0 $309 6.2831853071796004 $127 $310 forward 7 unknown #
vertex $-1 $130 $311 #
ellipse-curve $-1 51.559561798442715 -9.1158033065395863 5.0512466199810833 0.75470958851134928 0 0.65605901945558964 0.65605901945558964 0 -0.75470958851134928 1 I I #
coedge $-1 $214 $214 $-1 $312 reversed $133 $-1 #
edge $-1 $313 0 $313 6.2831853071796004 $134 $314 forward 7 unknown #
vertex $-1 $137 $315 #
ellipse-curve $-1 51.559561798442715 -3.6463213226158331 5.0512466199810833 0.75470958851134928 0 0.65605901945558964 0.65605901945558964 0 -0.75470958851134928 1 I I #
face $-1 $-1 $316 $29 $-1 $317 forward single #
loop $-1 $-1 $318 $138 #
plane-surface $-1 64.589293611604546 0 154.51617239228278 0 -1 0 -0.75470958851134928 0 -0.65605901945558964 forward_v I I I I #
coedge $-1 $144 $319 $223 $320 forward $139 $-1 #
coedge $-1 $226 $141 $321 $322 reversed $87 $-1 #
coedge $-1 $141 $226 $221 $320 reversed $87 $-1 #
coedge $-1 $323 $318 $141 $225 forward $219 $-1 #
edge $-1 $324 100.61720291845855 $325 107.89147618030339 $224 $326 forward 7 unknown #
coedge $-1 $223 $222 $142 $227 forward $87 $-1 #
edge $-1 $327 100.61720291845855 $231 107.89147618030339 $142 $328 forward 7 unknown #
coedge $-1 $321 $329 $143 $229 forward $316 $-1 #
edge $-1 $232 -21.651091284349405 $327 -16.878738700931478 $228 $330 forward 7 unknown #
coedge $-1 $319 $144 $329 $331 reversed $139 $-1 #
vertex $-1 $145 $332 #
vertex $-1 $145 $333 #
straight-curve $-1 53.945738090151679 12.762124629155423 77.258086196141392 0 0 1 I I #
coedge $-1 $234 $234 $-1 $334 reversed $148 $-1 #
edge $-1 $335 0 $335 6.2831853071796004 $149 $336 forward 7 unknown #
vertex $-1 $152 $337 #
ellipse-curve $-1 51.559561798442715 3.6463213226158402 5.0512466199810833 0.75470958851134928 0 0.65605901945558964 0.65605901945558964 0 -0.75470958851134928 1 I I #
coedge $-1 $238 $238 $-1 $338 reversed $155 $-1 #
edge $-1 $339 0 $339 6.2831853071796004 $156 $340 forward 7 unknown #
vertex $-1 $159 $341 #
ellipse-curve $-1 51.559561798442715 9.1158033065395898 5.0512466199810833 0.75470958851134928 0 0.65605901945558964 0.65605901945558964 0 -0.75470958851134928 1 I I #
face $-1 $-1 $175 $24 $-1 $342 reversed single #
loop $-1 $-1 $258 $160 #
plane-surface $-1 0 34.48793330668402 0 0 -1 0 0 0 -1 forward_v I I I I #
coedge $-1 $343 $256 $259 $344 forward $161 $-1 #
coedge $-1 $262 $163 $164 $250 reversed $101 $-1 #
coedge $-1 $256 $343 $163 $248 reversed $161 $-1 #
edge $-1 $263 -7.7962285100640853 $345 7.7962285100640853 $247 $346 forward 7 unknown #
coedge $-1 $165 $164 $343 $347 forward $65 $-1 #
edge $-1 $254 -53.945738090151679 $345 53.945738090151679 $246 $348 forward 7 unknown #
coedge $-1 $259 $258 $165 $252 reversed $243 $-1 #
edge $-1 $349 -53.945738090151679 $253 53.945738090151679 $251 $350 forward 7 unknown #
vertex $-1 $167 $351 #
vertex $-1 $265 $352 #
straight-curve $-1 53.945738090151679 0 -7.7962285100640853 0 -1 0 I I #
coedge $-1 $245 $247 $168 $257 reversed $161 $-1 #
edge $-1 $260 -34.48793330668402 $263 34.48793330668402 $256 $353 forward 7 unknown #
coedge $-1 $251 $169 $174 $266 forward $243 $-1 #
coedge $-1 $169 $251 $245 $344 reversed $243 $-1 #
vertex $-1 $170 $354 #
straight-curve $-1 0 34.48793330668402 7.7962285100640853 -1 0 0 I I #
coedge $-1 $171 $246 $173 $265 reversed $101 $-1 #
vertex $-1 $257 $355 #
straight-curve $-1 0 -34.48793330668402 7.7962285100640853 1 0 0 I I #
edge $-1 $176 -7.7962285100640853 $254 7.7962285100640853 $173 $356 forward 7 unknown #
edge $-1 $177 -7.7962285100640853 $253 7.7962285100640853 $174 $357 forward 7 unknown #
point $-1 53.945738090151679 -34.48793330668402 7.7962285100640853 #
point $-1 53.945738090151679 34.48793330668402 7.7962285100640853 #
face $-1 $-1 $278 $25 $-1 $358 reversed single #
loop $-1 $-1 $275 $179 #
plane-surface $-1 0 0 7.7962285100640853 0 0 1 1 0 0 forward_v I I I I #
coedge $-1 $359 $360 $186 $281 forward $180 $-1 #
coedge $-1 $182 $285 $361 $362 reversed $109 $-1 #
edge $-1 $363 -4.6481142550320431 $192 -1.6481142550320427 $182 $364 forward 7 unknown #
coedge $-1 $361 $365 $183 $276 forward $270 $-1 #
edge $-1 $279 -34.48793330668402 $363 34.48793330668402 $275 $366 forward 7 unknown #
coedge $-1 $282 $184 $365 $367 reversed $278 $-1 #
loop $-1 $-1 $184 $269 #
vertex $-1 $185 $368 #
straight-curve $-1 -45.203379064787441 -34.48793330668402 3.1481142550320427 0 0 1 I I #
edge $-1 $286 -34.48793330668402 $283 34.48793330668402 $272 $369 forward 7 unknown #
coedge $-1 $187 $277 $359 $370 forward $278 $-1 #
vertex $-1 $281 $371 #
straight-curve $-1 -24.78727928873478 -34.48793330668402 4.7962285100640853 1 0 0 I I #
coedge $-1 $273 $189 $360 $372 reversed $109 $-1 #
vertex $-1 $281 $373 #
straight-curve $-1 -24.78727928873478 34.48793330668402 4.7962285100640853 -1 0 0 I I #
point $-1 -45.203379064787441 34.48793330668402 4.7962285100640853 #
point $-1 -45.203379064787441 -34.48793330668402 4.7962285100640853 #
loop $-1 $-1 $203 $195 #
plane-surface $-1 53.945738090151679 0 0 -1 0 0 0 0 1 forward_v I I I I #
coedge $-1 $293 $198 $200 $297 reversed $117 $-1 #
coedge $-1 $198 $292 $374 $375 reversed $117 $-1 #
coedge $-1 $206 $201 $198 $295 forward $196 $-1 #
edge $-1 $298 16.878738700931478 $376 21.651091284349405 $294 $377 forward 7 unknown #
coedge $-1 $200 $199 $301 $378 reversed $73 $-1 #
edge $-1 $379 -107.89147618030339 $298 -100.61720291845855 $292 $380 forward 7 unknown #
vertex $-1 $202 $381 #
straight-curve $-1 49.173385506733752 -3.1905311572888557 7.7962285100640827 0 -1 0 I I #
coedge $-1 $374 $203 $206 $305 reversed $290 $-1 #
coedge $-1 $203 $374 $296 $378 forward $290 $-1 #
vertex $-1 $204 $382 #
straight-curve $-1 53.945738090151679 0 77.258086196141392 0 0 1 I I #
straight-curve $-1 -16.837437980314249 0 83.732996321816856 0.65605901945558964 0 -0.75470958851134928 I I #
edge $-1 $376 -12.762124629155423 $207 0 $300 $383 forward 7 unknown #
point $-1 53.945738090151679 0 7.7962285100640853 #
point $-1 49.173385506733752 0 7.7962285100640827 #
edge $-1 $384 1 $384 0 $210 $-1 forward 7 unknown #
vertex $-1 $211 $385 #
ellipse-curve $-1 50.282818065102425 -9.1158033065395863 3.9413902533176008 0.75470958851134928 0 0.65605901945558964 0.65605901945558964 0 -0.75470958851134928 1 I I #
point $-1 52.215620817898298 -9.1158033065395863 4.2965370314697306 #
edge $-1 $386 1 $386 0 $214 $-1 forward 7 unknown #
vertex $-1 $215 $387 #
ellipse-curve $-1 50.282818065102425 -3.6463213226158331 3.9413902533176008 0.75470958851134928 0 0.65605901945558964 0.65605901945558964 0 -0.75470958851134928 1 I I #
point $-1 52.215620817898298 -3.6463213226158331 4.2965370314697306 #
loop $-1 $-1 $321 $218 #
plane-surface $-1 0 0 7.7962285100640853 0 0 1 1 0 0 forward_v I I I I #
coedge $-1 $224 $323 $388 $389 reversed $219 $-1 #
coedge $-1 $221 $230 $323 $390 forward $139 $-1 #
edge $-1 $325 3.1905311572888557 $231 15.952655786444279 $221 $391 forward 7 unknown #
coedge $-1 $388 $228 $222 $322 forward $316 $-1 #
edge $-1 $327 -15.952655786444279 $324 -3.1905311572888557 $321 $392 forward 7 unknown #
coedge $-1 $318 $224 $319 $390 reversed $219 $-1 #
vertex $-1 $322 $393 #
vertex $-1 $320 $394 #
straight-curve $-1 -16.837437980314249 0 83.732996321816856 0.65605901945558964 0 -0.75470958851134928 I I #
vertex $-1 $229 $395 #
straight-curve $-1 -16.837437980314249 12.762124629155423 83.732996321816856 0.65605901945558964 0 -0.75470958851134928 I I #
coedge $-1 $228 $388 $230 $331 forward $316 $-1 #
straight-curve $-1 32.294646805802273 12.762124629155423 7.7962285100640827 -1 0 0 I I #
edge $-1 $396 0 $232 12.762124629155423 $230 $397 forward 7 unknown #
point $-1 53.945738090151679 12.762124629155423 2.3062647298980608 #
point $-1 53.945738090151679 12.762124629155423 7.7962285100640853 #
edge $-1 $398 1 $398 0 $234 $-1 forward 7 unknown #
vertex $-1 $235 $399 #
ellipse-curve $-1 50.282818065102425 3.6463213226158402 3.9413902533176008 0.75470958851134928 0 0.65605901945558964 0.65605901945558964 0 -0.75470958851134928 1 I I #
point $-1 52.215620817898298 3.6463213226158402 4.2965370314697306 #
edge $-1 $400 1 $400 0 $238 $-1 forward 7 unknown #
vertex $-1 $239 $401 #
ellipse-curve $-1 50.282818065102425 9.1158033065395898 3.9413902533176008 0.75470958851134928 0 0.65605901945558964 0.65605901945558964 0 -0.75470958851134928 1 I I #
point $-1 52.215620817898298 9.1158033065395898 4.2965370314697306 #
plane-surface $-1 53.945738090151679 0 0 -1 0 0 0 0 1 forward_v I I I I #
coedge $-1 $247 $245 $249 $347 reversed $161 $-1 #
edge $-1 $260 -7.7962285100640853 $349 7.7962285100640853 $259 $402 forward 7 unknown #
vertex $-1 $347 $403 #
straight-curve $-1 -53.945738090151679 -34.48793330668402 0 0 0 -1 I I #
edge $-1 $345 -34.48793330668402 $349 34.48793330668402 $343 $404 forward 7 unknown #
straight-curve $-1 0 -34.48793330668402 -7.7962285100640853 -1 0 0 I I #
vertex $-1 $252 $405 #
straight-curve $-1 0 34.48793330668402 -7.7962285100640853 1 0 0 I I #
point $-1 53.945738090151679 34.48793330668402 -7.7962285100640853 #
point $-1 53.945738090151679 -34.48793330668402 -7.7962285100640853 #
straight-curve $-1 -53.945738090151679 0 7.7962285100640853 0 -1 0 I I #
point $-1 -53.945738090151679 34.48793330668402 7.7962285100640853 #
point $-1 -53.945738090151679 -34.48793330668402 7.7962285100640853 #
straight-curve $-1 53.945738090151679 -34.48793330668402 0 0 0 -1 I I #
straight-curve $-1 53.945738090151679 34.48793330668402 0 0 0 -1 I I #
plane-surface $-1 0 -34.48793330668402 0 0 1 0 0 0 1 forward_v I I I I #
coedge $-1 $406 $272 $282 $370 reversed $180 $-1 #
coedge $-1 $272 $406 $285 $372 forward $180 $-1 #
coedge $-1 $407 $275 $273 $362 forward $270 $-1 #
edge $-1 $363 45.203379064787441 $408 53.945738090151679 $273 $409 forward 7 unknown #
vertex $-1 $362 $410 #
straight-curve $-1 -45.203379064787441 34.48793330668402 3.1481142550320427 0 0 -1 I I #
coedge $-1 $275 $407 $277 $367 forward $270 $-1 #
straight-curve $-1 -45.203379064787441 0 7.7962285100640853 0 1 0 I I #
edge $-1 $411 -53.945738090151679 $279 -45.203379064787441 $277 $412 forward 7 unknown #
point $-1 -45.203379064787441 -34.48793330668402 7.7962285100640853 #
straight-curve $-1 -53.945738090151679 0 4.7962285100640853 0 -1 0 I I #
edge $-1 $411 -7.7962285100640853 $283 -4.7962285100640853 $359 $413 forward 7 unknown #
point $-1 -53.945738090151679 -34.48793330668402 4.7962285100640853 #
edge $-1 $408 -7.7962285100640853 $286 -4.7962285100640853 $285 $414 forward 7 unknown #
point $-1 -53.945738090151679 34.48793330668402 4.7962285100640853 #
coedge $-1 $301 $300 $293 $375 forward $290 $-1 #
edge $-1 $376 69.461857686077309 $379 74.951821466243331 $374 $415 forward 7 unknown #
vertex $-1 $305 $416 #
straight-curve $-1 32.294646805802273 -12.762124629155423 7.7962285100640827 1 0 0 I I #
edge $-1 $379 -9.5715934718665672 $302 3.1905311572888557 $301 $417 forward 7 unknown #
vertex $-1 $378 $418 #
straight-curve $-1 -16.837437980314249 -12.762124629155423 83.732996321816856 -0.65605901945558964 0 0.75470958851134928 I I #
point $-1 49.173385506733752 -12.762124629155423 7.7962285100640827 #
point $-1 53.945738090151679 0 2.3062647298980608 #
straight-curve $-1 53.945738090151679 0 7.7962285100640853 0 1 0 I I #
vertex $-1 $308 $419 #
point $-1 50.938877084558015 -9.1158033065395863 3.1866806648062513 #
vertex $-1 $312 $420 #
point $-1 50.938877084558015 -3.6463213226158331 3.1866806648062513 #
coedge $-1 $329 $321 $318 $389 forward $316 $-1 #
edge $-1 $324 16.878738700931478 $396 21.651091284349405 $388 $421 forward 7 unknown #
edge $-1 $396 69.461857686077309 $325 74.951821466243331 $319 $422 forward 7 unknown #
straight-curve $-1 53.945738090151679 -3.1905311572888557 2.3062647298980608 0 1 0 I I #
straight-curve $-1 49.173385506733752 -3.1905311572888557 7.7962285100640827 0 -1 0 I I #
point $-1 49.173385506733752 0 7.7962285100640827 #
point $-1 53.945738090151679 0 2.3062647298980608 #
point $-1 49.173385506733752 12.762124629155423 7.7962285100640827 #
vertex $-1 $331 $423 #
straight-curve $-1 53.945738090151679 0 7.7962285100640853 0 1 0 I I #
vertex $-1 $334 $424 #
point $-1 50.938877084558015 3.6463213226158402 3.1866806648062513 #
vertex $-1 $338 $425 #
point $-1 50.938877084558015 9.1158033065395898 3.1866806648062513 #
straight-curve $-1 -53.945738090151679 34.48793330668402 0 0 0 -1 I I #
point $-1 -53.945738090151679 -34.48793330668402 -7.7962285100640853 #
straight-curve $-1 -53.945738090151679 0 -7.7962285100640853 0 1 0 I I #
point $-1 -53.945738090151679 34.48793330668402 -7.7962285100640853 #
coedge $-1 $360 $359 $407 $426 reversed $180 $-1 #
coedge $-1 $365 $361 $406 $426 forward $270 $-1 #
vertex $-1 $362 $427 #
straight-curve $-1 0 34.48793330668402 7.7962285100640853 -1 0 0 I I #
point $-1 -45.203379064787441 34.48793330668402 7.7962285100640853 #
vertex $-1 $426 $428 #
straight-curve $-1 0 -34.48793330668402 7.7962285100640853 1 0 0 I I #
straight-curve $-1 -53.945738090151679 -34.48793330668402 0 0 0 -1 I I #
straight-curve $-1 -53.945738090151679 34.48793330668402 0 0 0 -1 I I #
straight-curve $-1 53.945738090151679 -12.762124629155423 77.258086196141392 0 0 -1 I I #
point $-1 53.945738090151679 -12.762124629155423 7.7962285100640853 #
straight-curve $-1 53.945738090151679 -3.1905311572888557 2.3062647298980608 0 1 0 I I #
point $-1 53.945738090151679 -12.762124629155423 2.3062647298980608 #
point $-1 49.528108476591079 -9.1158033065395863 3.2853312338620109 #
point $-1 49.528108476591079 -3.6463213226158331 3.2853312338620109 #
straight-curve $-1 32.294646805802273 0 7.7962285100640827 1 0 0 I I #
straight-curve $-1 53.945738090151679 0 77.258086196141392 0 0 -1 I I #
point $-1 53.945738090151679 0 7.7962285100640853 #
point $-1 49.528108476591079 3.6463213226158402 3.2853312338620109 #
point $-1 49.528108476591079 9.1158033065395898 3.2853312338620109 #
edge $-1 $408 -34.48793330668402 $411 34.48793330668402 $406 $429 forward 7 unknown #
point $-1 -53.945738090151679 34.48793330668402 7.7962285100640853 #
point $-1 -53.945738090151679 -34.48793330668402 7.7962285100640853 #
straight-curve $-1 -53.945738090151679 0 7.7962285100640853 0 -1 0 I I #
End-of-ACIS-data 