500 0 8 0           
7 Unknown 11 ACIS 5.0 NT 24 Fri Mar 26 14:26:41 1999 
-1 9.9999999999999995e-007 1e-010 
body $-1 $8 $-1 $9 #
body $-1 $10 $-1 $11 #
body $-1 $12 $-1 $13 #
body $-1 $14 $-1 $15 #
body $-1 $16 $-1 $17 #
body $-1 $18 $-1 $19 #
body $-1 $20 $-1 $21 #
body $-1 $22 $-1 $23 #
lump $-1 $-1 $24 $0 #
transform $-1 1 0 0 0 1 0 0 0 1 59.69176305429243 26.545865389786961 10.146439463524546 1 rotate no_reflect no_shear #
lump $-1 $-1 $25 $1 #
transform $-1 1 0 0 0 1 0 0 0 1 59.69176305429243 26.545865389786961 10.146439463524546 1 rotate no_reflect no_shear #
lump $-1 $-1 $26 $2 #
transform $-1 1 0 0 0 1 0 0 0 1 59.69176305429243 26.545865389786961 10.146439463524546 1 rotate no_reflect no_shear #
lump $-1 $-1 $27 $3 #
transform $-1 1 0 0 0 1 0 0 0 1 59.69176305429243 26.545865389786961 10.146439463524546 1 rotate no_reflect no_shear #
lump $-1 $-1 $28 $4 #
transform $-1 1 0 0 0 1 0 0 0 1 59.69176305429243 26.545865389786961 10.146439463524546 1 rotate no_reflect no_shear #
lump $-1 $-1 $29 $5 #
transform $-1 1 0 0 0 1 0 0 0 1 59.69176305429243 26.545865389786961 10.146439463524546 1 rotate no_reflect no_shear #
lump $-1 $-1 $30 $6 #
transform $-1 1 0 0 0 1 0 0 0 1 59.69176305429243 26.545865389786961 10.146439463524546 1 rotate no_reflect no_shear #
lump $-1 $-1 $31 $7 #
transform $-1 1 0 0 0 1 0 0 0 1 59.69176305429243 26.545865389786961 10.146439463524546 1 rotate no_reflect no_shear #
shell $-1 $-1 $-1 $32 $-1 $8 #
shell $-1 $-1 $-1 $33 $-1 $10 #
shell $-1 $-1 $-1 $34 $-1 $12 #
shell $-1 $-1 $-1 $35 $-1 $14 #
shell $-1 $-1 $-1 $36 $-1 $16 #
shell $-1 $-1 $-1 $37 $-1 $18 #
shell $-1 $-1 $-1 $38 $-1 $20 #
shell $-1 $-1 $-1 $39 $-1 $22 #
face $-1 $40 $41 $24 $-1 $42 forward single #
face $-1 $43 $44 $25 $-1 $45 forward single #
face $-1 $46 $47 $26 $-1 $48 forward single #
face $-1 $49 $50 $27 $-1 $51 reversed single #
face $-1 $52 $53 $28 $-1 $54 forward single #
face $-1 $55 $56 $29 $-1 $57 forward single #
face $-1 $58 $59 $30 $-1 $60 reversed single #
face $-1 $61 $62 $31 $-1 $63 forward single #
face $-1 $64 $65 $24 $-1 $66 reversed single #
loop $-1 $-1 $67 $32 #
plane-surface $-1 0 0 10.146439463524546 0 0 1 1 0 0 forward_v I I I I #
face $-1 $68 $69 $25 $-1 $70 reversed single #
loop $-1 $-1 $71 $33 #
plane-surface $-1 -53.925208969516476 0 -6.5245380435269507 0 0 1 1 0 0 forward_v I I I I #
face $-1 $72 $73 $26 $-1 $74 reversed single #
loop $-1 $-1 $75 $34 #
plane-surface $-1 53.925208969516468 0 -6.5245380435269507 0 0 1 1 0 0 forward_v I I I I #
face $-1 $76 $77 $27 $-1 $78 reversed single #
loop $-1 $-1 $79 $35 #
plane-surface $-1 -19.600527434663796 -124.33912582710755 74.627921755451908 1 0 0 0 0.81915205242281985 -0.57357642473473569 forward_v I I I I #
face $-1 $80 $81 $28 $-1 $82 forward single #
loop $-1 $83 $84 $36 #
cone-surface $-1 -13.599240421861012 -24.624545293940422 7.7832030502242509 0 0.81915205242281985 -0.57357642473473569 1 0 0 1 I I 0 1 1 forward I I I I #
face $-1 $85 $86 $29 $-1 $87 forward single #
loop $-1 $88 $89 $37 #
cone-surface $-1 -4.5973099026568391 -24.624545293940422 7.7832030502242509 0 0.81915205242281985 -0.57357642473473569 1 0 0 1 I I 0 1 1 forward I I I I #
face $-1 $90 $91 $30 $-1 $92 reversed single #
loop $-1 $-1 $93 $38 #
plane-surface $-1 48.158654884740514 49.289247500677028 132.63570553213989 -1 0 0 0 0.55919291073839883 0.82903756765294845 forward_v I I I I #
face $-1 $94 $95 $31 $-1 $96 forward single #
loop $-1 $97 $98 $39 #
cone-surface $-1 42.893051904438401 19.181636181750989 2.9259168037620586 0 -0.55919291073839883 -0.82903756765294845 2.5 0 0 1 I I 0 1 2.5 forward I I I I #
face $-1 $99 $100 $24 $-1 $101 reversed single #
loop $-1 $-1 $102 $40 #
plane-surface $-1 0 0 -10.146439463524546 0 0 1 1 0 0 forward_v I I I I #
coedge $-1 $103 $104 $105 $106 forward $41 $-1 #
face $-1 $107 $108 $25 $-1 $109 reversed single #
loop $-1 $-1 $110 $43 #
plane-surface $-1 -48.158654884740521 0 -8.3354887535257483 -1 0 0 0 0 1 forward_v I I I I #
coedge $-1 $111 $112 $113 $114 forward $44 $-1 #
face $-1 $115 $116 $26 $-1 $117 reversed single #
loop $-1 $-1 $118 $46 #
plane-surface $-1 48.158654884740514 0 -8.3354887535257483 1 0 0 0 0 -1 forward_v I I I I #
coedge $-1 $119 $120 $121 $122 reversed $47 $-1 #
face $-1 $123 $124 $27 $-1 $125 reversed single #
loop $-1 $-1 $126 $49 #
plane-surface $-1 -9.0982751622589291 -26.545865389786968 6.1523456778638348 0 -0.81915205242281985 0.57357642473473569 1 0 0 forward_v I I I I #
coedge $-1 $127 $128 $129 $130 reversed $50 $-1 #
face $-1 $-1 $131 $28 $-1 $132 forward single #
loop $-1 $133 $134 $52 #
cone-surface $-1 -13.599240421861012 -23.691996418195664 7.1302253173869499 0 0.81915205242281985 -0.57357642473473569 0.5 0 0 1 I I -0.70710678118654746 0.70710678118654746 0.5 forward I I I I #
loop $-1 $-1 $135 $36 #
coedge $-1 $84 $84 $136 $137 reversed $53 $-1 #
face $-1 $-1 $138 $29 $-1 $139 forward single #
loop $-1 $140 $141 $55 #
cone-surface $-1 -4.5973099026568391 -23.691996418195664 7.1302253173869499 0 0.81915205242281985 -0.57357642473473569 0.5 0 0 1 I I -0.70710678118654746 0.70710678118654746 0.5 forward I I I I #
loop $-1 $-1 $142 $37 #
coedge $-1 $89 $89 $143 $144 reversed $56 $-1 #
face $-1 $145 $146 $30 $-1 $147 reversed single #
loop $-1 $-1 $148 $58 #
plane-surface $-1 42.893051904438387 -17.469173958196173 33.66227742924643 0 0.55919291073839883 0.82903756765294845 1 0 0 forward_v I I I I #
coedge $-1 $149 $150 $151 $152 reversed $59 $-1 #
face $-1 $-1 $153 $31 $-1 $154 forward single #
loop $-1 $155 $156 $61 #
cone-surface $-1 42.893051904438401 15.694104083989195 -2.2445620630428653 0 -0.55919291073839883 -0.82903756765294845 1.25 0 0 1 I I -0.70710678118654746 0.70710678118654746 1.25 forward I I I I #
loop $-1 $-1 $157 $39 #
coedge $-1 $98 $98 $158 $159 reversed $62 $-1 #
face $-1 $160 $161 $24 $-1 $162 reversed single #
loop $-1 $-1 $163 $64 #
plane-surface $-1 0 -26.545865389786961 0 0 1 0 0 0 1 forward_v I I I I #
coedge $-1 $164 $165 $166 $167 forward $65 $-1 #
coedge $-1 $168 $67 $169 $170 forward $41 $-1 #
coedge $-1 $67 $168 $171 $172 forward $41 $-1 #
coedge $-1 $173 $174 $67 $106 reversed $175 $-1 #
edge $-1 $176 -26.545865389786961 $177 26.545865389786961 $105 $178 forward 7 unknown #
face $-1 $179 $180 $25 $-1 $181 reversed single #
loop $-1 $-1 $182 $68 #
plane-surface $-1 0 0 -10.146439463524546 0 0 1 1 0 0 forward_v I I I I #
coedge $-1 $183 $113 $184 $185 reversed $69 $-1 #
coedge $-1 $186 $71 $187 $188 reversed $44 $-1 #
coedge $-1 $71 $186 $189 $190 reversed $44 $-1 #
coedge $-1 $110 $191 $71 $114 reversed $69 $-1 #
edge $-1 $192 -26.545865389786961 $193 26.545865389786961 $113 $194 forward 7 unknown #
face $-1 $195 $196 $26 $-1 $197 reversed single #
loop $-1 $-1 $198 $72 #
plane-surface $-1 0 -26.545865389786961 0 0 1 0 0 0 1 forward_v I I I I #
coedge $-1 $199 $200 $201 $202 reversed $73 $-1 #
coedge $-1 $203 $75 $204 $205 reversed $47 $-1 #
coedge $-1 $75 $203 $198 $206 reversed $47 $-1 #
coedge $-1 $207 $208 $75 $122 forward $209 $-1 #
edge $-1 $210 -26.545865389786961 $211 26.545865389786961 $121 $212 forward 7 unknown #
face $-1 $213 $214 $27 $-1 $215 forward single #
loop $-1 $-1 $216 $76 #
plane-surface $-1 1.403977110145938 -124.33912582710755 74.627921755451908 -1 0 0 0 -0.81915205242281985 0.57357642473473569 forward_v I I I I #
coedge $-1 $217 $218 $219 $220 reversed $77 $-1 #
coedge $-1 $128 $79 $221 $222 reversed $50 $-1 #
coedge $-1 $79 $127 $217 $223 reversed $50 $-1 #
coedge $-1 $219 $224 $79 $130 forward $225 $-1 #
edge $-1 $226 27.16752141420141 $227 31.161615199862108 $129 $228 forward 7 unknown #
loop $-1 $-1 $136 $80 #
plane-surface $-1 -9.0982751622589291 -26.545865389786968 6.1523456778638348 0 -0.81915205242281985 0.57357642473473569 1 0 0 forward_v I I I I #
loop $-1 $-1 $229 $52 #
coedge $-1 $134 $134 $135 $230 reversed $81 $-1 #
coedge $-1 $135 $135 $134 $230 forward $83 $-1 #
coedge $-1 $136 $136 $84 $137 forward $131 $-1 #
edge $-1 $231 2.9283302665763018e-016 $231 6.2831853071796004 $136 $232 forward 7 unknown #
loop $-1 $-1 $143 $85 #
plane-surface $-1 -9.0982751622589291 -26.545865389786968 6.1523456778638348 0 -0.81915205242281985 0.57357642473473569 1 0 0 forward_v I I I I #
loop $-1 $-1 $233 $55 #
coedge $-1 $141 $141 $142 $234 reversed $86 $-1 #
coedge $-1 $142 $142 $141 $234 forward $88 $-1 #
coedge $-1 $143 $143 $89 $144 forward $138 $-1 #
edge $-1 $235 2.9283302665763018e-016 $235 6.2831853071796004 $143 $236 forward 7 unknown #
face $-1 $237 $238 $30 $-1 $239 reversed single #
loop $-1 $-1 $240 $90 #
plane-surface $-1 37.62744892413626 49.289247500677028 132.63570553213989 1 0 0 0 -0.55919291073839883 -0.82903756765294845 forward_v I I I I #
coedge $-1 $241 $242 $243 $244 reversed $91 $-1 #
coedge $-1 $150 $93 $245 $246 reversed $59 $-1 #
coedge $-1 $93 $149 $241 $247 reversed $59 $-1 #
coedge $-1 $243 $248 $93 $152 forward $238 $-1 #
edge $-1 $249 56.171413302545403 $250 62.344094807592896 $151 $251 forward 7 unknown #
loop $-1 $-1 $158 $94 #
plane-surface $-1 42.893051904438387 -17.469173958196173 33.66227742924643 0 0.55919291073839883 0.82903756765294845 1 0 0 forward_v I I I I #
loop $-1 $-1 $252 $61 #
coedge $-1 $156 $156 $157 $253 reversed $95 $-1 #
coedge $-1 $157 $157 $156 $253 forward $97 $-1 #
coedge $-1 $158 $158 $98 $159 forward $153 $-1 #
edge $-1 $254 1.3858139105096109e-017 $254 6.2831853071796004 $158 $255 forward 7 unknown #
face $-1 $256 $257 $24 $-1 $258 reversed single #
loop $-1 $-1 $259 $99 #
plane-surface $-1 -59.69176305429243 0 0 1 0 0 0 0 -1 forward_v I I I I #
coedge $-1 $260 $171 $261 $262 forward $100 $-1 #
coedge $-1 $263 $102 $260 $264 forward $65 $-1 #
coedge $-1 $102 $263 $265 $266 forward $65 $-1 #
coedge $-1 $174 $173 $102 $167 reversed $175 $-1 #
edge $-1 $267 -26.545865389786961 $268 26.545865389786961 $166 $269 forward 7 unknown #
coedge $-1 $104 $103 $270 $271 forward $41 $-1 #
coedge $-1 $272 $273 $103 $170 reversed $257 $-1 #
edge $-1 $177 -59.69176305429243 $274 59.69176305429243 $169 $275 forward 7 unknown #
coedge $-1 $163 $276 $104 $172 reversed $100 $-1 #
edge $-1 $277 -59.69176305429243 $176 59.69176305429243 $171 $278 forward 7 unknown #
coedge $-1 $166 $105 $276 $279 forward $175 $-1 #
coedge $-1 $105 $166 $272 $280 reversed $175 $-1 #
loop $-1 $-1 $173 $256 #
vertex $-1 $106 $281 #
vertex $-1 $106 $282 #
straight-curve $-1 59.69176305429243 0 10.146439463524546 0 1 0 I I #
face $-1 $283 $284 $25 $-1 $285 reversed single #
loop $-1 $-1 $184 $107 #
plane-surface $-1 0 -26.545865389786961 0 0 1 0 0 0 1 forward_v I I I I #
coedge $-1 $286 $287 $183 $288 forward $108 $-1 #
coedge $-1 $191 $110 $182 $288 reversed $69 $-1 #
coedge $-1 $189 $289 $110 $185 forward $180 $-1 #
edge $-1 $290 -5.9786950867616717 $192 -2.3567936667640765 $184 $291 forward 7 unknown #
coedge $-1 $112 $111 $292 $293 reversed $44 $-1 #
coedge $-1 $294 $295 $111 $188 forward $296 $-1 #
edge $-1 $297 -32.729158569534192 $193 -21.196050399982283 $187 $298 forward 7 unknown #
coedge $-1 $299 $184 $112 $190 forward $180 $-1 #
edge $-1 $192 21.196050399982283 $300 32.729158569534192 $189 $301 forward 7 unknown #
coedge $-1 $113 $183 $294 $302 reversed $69 $-1 #
vertex $-1 $190 $303 #
vertex $-1 $188 $304 #
straight-curve $-1 -48.158654884740521 0 -6.5245380435269507 0 1 0 I I #
face $-1 $305 $306 $26 $-1 $307 reversed single #
loop $-1 $-1 $308 $115 #
plane-surface $-1 0 0 -10.146439463524546 0 0 1 1 0 0 forward_v I I I I #
coedge $-1 $309 $310 $120 $206 forward $116 $-1 #
coedge $-1 $311 $118 $308 $312 reversed $73 $-1 #
coedge $-1 $118 $311 $203 $313 reversed $73 $-1 #
coedge $-1 $204 $314 $118 $202 forward $306 $-1 #
edge $-1 $315 -5.9786950867616717 $316 -2.3567936667640765 $201 $317 forward 7 unknown #
coedge $-1 $120 $119 $200 $313 forward $47 $-1 #
coedge $-1 $318 $201 $119 $205 forward $306 $-1 #
edge $-1 $316 21.19605039998228 $210 32.729158569534192 $204 $319 forward 7 unknown #
edge $-1 $211 -32.729158569534192 $320 -21.19605039998228 $198 $321 forward 7 unknown #
coedge $-1 $322 $121 $310 $323 forward $209 $-1 #
coedge $-1 $121 $322 $318 $324 reversed $209 $-1 #
loop $-1 $-1 $121 $305 #
vertex $-1 $324 $325 #
vertex $-1 $323 $326 #
straight-curve $-1 59.69176305429243 0 -6.5245380435269507 0 -1 0 I I #
face $-1 $-1 $225 $27 $-1 $327 reversed single #
loop $-1 $-1 $328 $123 #
plane-surface $-1 0 0 10.146439463524546 0 0 1 1 0 0 forward_v I I I I #
coedge $-1 $329 $330 $331 $332 reversed $124 $-1 #
coedge $-1 $333 $126 $128 $223 forward $77 $-1 #
coedge $-1 $126 $333 $329 $334 forward $77 $-1 #
coedge $-1 $331 $129 $126 $220 forward $225 $-1 #
edge $-1 $227 -15.051389853534332 $335 5.9531146912754025 $219 $336 forward 7 unknown #
coedge $-1 $337 $338 $127 $222 forward $214 $-1 #
edge $-1 $339 -38.420392016393187 $226 -35.623697523766815 $221 $340 forward 7 unknown #
edge $-1 $227 1.207859054955032e-014 $339 4.8758881502491658 $128 $341 forward 7 unknown #
coedge $-1 $129 $331 $337 $342 reversed $225 $-1 #
loop $-1 $-1 $331 $213 #
vertex $-1 $342 $343 #
vertex $-1 $130 $344 #
straight-curve $-1 -19.600527434663796 -26.545865389786961 37.313960877725954 0 0 -1 I I #
coedge $-1 $229 $229 $-1 $345 reversed $133 $-1 #
edge $-1 $346 0 $346 6.2831853071796004 $134 $347 forward 7 unknown #
vertex $-1 $137 $348 #
ellipse-curve $-1 -13.599240421861012 -25.147518143473778 8.1493925706941912 0 -0.81915205242281985 0.57357642473473569 1 0 0 1 I I #
coedge $-1 $233 $233 $-1 $349 reversed $140 $-1 #
edge $-1 $350 0 $350 6.2831853071796004 $141 $351 forward 7 unknown #
vertex $-1 $144 $352 #
ellipse-curve $-1 -4.5973099026568391 -25.147518143473778 8.1493925706941912 0 -0.81915205242281985 0.57357642473473569 1 0 0 1 I I #
face $-1 $-1 $353 $30 $-1 $354 forward single #
loop $-1 $-1 $151 $145 #
plane-surface $-1 0 26.545865389786961 0 0 -1 0 0 0 -1 forward_v I I I I #
coedge $-1 $355 $356 $357 $358 reversed $146 $-1 #
coedge $-1 $359 $148 $150 $247 forward $91 $-1 #
coedge $-1 $148 $359 $355 $360 forward $91 $-1 #
coedge $-1 $357 $151 $148 $244 forward $238 $-1 #
edge $-1 $250 -26.71212893252132 $361 -16.180922971917067 $243 $362 forward 7 unknown #
coedge $-1 $363 $364 $149 $246 forward $353 $-1 #
edge $-1 $365 -7.2501348579458913 $249 1.9012416394484468 $245 $366 forward 7 unknown #
edge $-1 $250 -53.091730779573908 $365 -42.053176129629165 $150 $367 forward 7 unknown #
coedge $-1 $151 $357 $363 $368 reversed $238 $-1 #
vertex $-1 $368 $369 #
vertex $-1 $152 $370 #
straight-curve $-1 48.158654884740514 26.545865389786961 66.317852766069947 0 0 -1 I I #
coedge $-1 $252 $252 $-1 $371 reversed $155 $-1 #
edge $-1 $372 0 $372 6.2831853071796004 $156 $373 forward 7 unknown #
vertex $-1 $159 $374 #
ellipse-curve $-1 42.893051904438401 21.970177141089788 7.0600987110008013 0 0.55919291073839883 0.82903756765294845 2.5 0 0 1 I I #
face $-1 $-1 $175 $24 $-1 $375 reversed single #
loop $-1 $-1 $272 $160 #
plane-surface $-1 0 26.545865389786961 0 0 -1 0 0 0 -1 forward_v I I I I #
coedge $-1 $376 $270 $273 $377 forward $161 $-1 #
coedge $-1 $276 $163 $164 $264 reversed $100 $-1 #
coedge $-1 $270 $376 $163 $262 reversed $161 $-1 #
edge $-1 $277 -10.146439463524546 $378 10.146439463524546 $261 $379 forward 7 unknown #
coedge $-1 $165 $164 $376 $380 forward $65 $-1 #
edge $-1 $268 -59.69176305429243 $378 59.69176305429243 $260 $381 forward 7 unknown #
coedge $-1 $273 $272 $165 $266 reversed $257 $-1 #
edge $-1 $382 -59.69176305429243 $267 59.69176305429243 $265 $383 forward 7 unknown #
vertex $-1 $167 $384 #
vertex $-1 $279 $385 #
straight-curve $-1 59.69176305429243 0 -10.146439463524546 0 -1 0 I I #
coedge $-1 $259 $261 $168 $271 reversed $161 $-1 #
edge $-1 $274 -26.545865389786961 $277 26.545865389786961 $270 $386 forward 7 unknown #
coedge $-1 $265 $169 $174 $280 forward $257 $-1 #
coedge $-1 $169 $265 $259 $377 reversed $257 $-1 #
vertex $-1 $170 $387 #
straight-curve $-1 0 26.545865389786961 10.146439463524546 -1 0 0 I I #
coedge $-1 $171 $260 $173 $279 reversed $100 $-1 #
vertex $-1 $271 $388 #
straight-curve $-1 0 -26.545865389786961 10.146439463524546 1 0 0 I I #
edge $-1 $176 -10.146439463524546 $268 10.146439463524546 $173 $389 forward 7 unknown #
edge $-1 $177 -10.146439463524546 $267 10.146439463524546 $174 $390 forward 7 unknown #
point $-1 59.69176305429243 -26.545865389786961 10.146439463524546 #
point $-1 59.69176305429243 26.545865389786961 10.146439463524546 #
face $-1 $-1 $296 $25 $-1 $391 reversed single #
loop $-1 $-1 $292 $179 #
plane-surface $-1 -59.69176305429243 0 0 1 0 0 0 0 -1 forward_v I I I I #
coedge $-1 $392 $182 $289 $393 forward $108 $-1 #
coedge $-1 $182 $392 $394 $395 forward $108 $-1 #
edge $-1 $396 -26.545865389786961 $290 26.545865389786961 $182 $397 forward 7 unknown #
coedge $-1 $184 $299 $286 $393 reversed $180 $-1 #
vertex $-1 $393 $398 #
straight-curve $-1 -48.158654884740521 -26.545865389786961 -4.1677443767628741 0 0 1 I I #
coedge $-1 $399 $400 $186 $293 forward $284 $-1 #
edge $-1 $300 -26.545865389786961 $297 26.545865389786961 $292 $401 forward 7 unknown #
coedge $-1 $394 $187 $191 $302 forward $296 $-1 #
coedge $-1 $187 $394 $399 $402 reversed $296 $-1 #
loop $-1 $-1 $294 $283 #
vertex $-1 $402 $403 #
straight-curve $-1 -26.962604484758238 26.545865389786961 -6.5245380435269507 1 0 0 I I #
coedge $-1 $289 $189 $400 $404 forward $180 $-1 #
vertex $-1 $404 $405 #
straight-curve $-1 -26.962604484758238 -26.545865389786961 -6.5245380435269507 -1 0 0 I I #
edge $-1 $193 2.3567936667640765 $396 5.9786950867616717 $294 $406 forward 7 unknown #
point $-1 -48.158654884740521 -26.545865389786961 -6.5245380435269507 #
point $-1 -48.158654884740521 26.545865389786961 -6.5245380435269507 #
face $-1 $-1 $209 $26 $-1 $407 reversed single #
loop $-1 $-1 $204 $195 #
plane-surface $-1 0 26.545865389786961 0 0 -1 0 0 0 -1 forward_v I I I I #
coedge $-1 $408 $409 $199 $312 forward $196 $-1 #
coedge $-1 $410 $198 $311 $411 forward $116 $-1 #
coedge $-1 $198 $410 $207 $323 reversed $116 $-1 #
coedge $-1 $200 $199 $309 $411 reversed $73 $-1 #
edge $-1 $412 -26.545865389786961 $315 26.545865389786961 $308 $413 forward 7 unknown #
edge $-1 $316 -26.545865389786961 $320 26.545865389786961 $200 $414 forward 7 unknown #
coedge $-1 $201 $318 $408 $415 reversed $306 $-1 #
vertex $-1 $415 $416 #
vertex $-1 $205 $417 #
straight-curve $-1 48.158654884740514 26.545865389786961 -4.1677443767628741 0 0 1 I I #
coedge $-1 $314 $204 $208 $324 forward $306 $-1 #
straight-curve $-1 26.962604484758234 26.545865389786961 -6.5245380435269507 1 0 0 I I #
vertex $-1 $206 $418 #
straight-curve $-1 26.962604484758234 -26.545865389786961 -6.5245380435269507 -1 0 0 I I #
coedge $-1 $208 $207 $419 $420 reversed $209 $-1 #
edge $-1 $211 6.5245380435269507 $421 10.146439463524546 $207 $422 forward 7 unknown #
edge $-1 $210 6.5245380435269507 $423 10.146439463524546 $208 $424 forward 7 unknown #
point $-1 59.691763054292423 26.545865389786961 -6.5245380435269507 #
point $-1 59.691763054292423 -26.545865389786961 -6.5245380435269507 #
plane-surface $-1 0 -26.545865389786961 0 0 1 0 0 0 1 forward_v I I I I #
coedge $-1 $338 $337 $330 $425 forward $214 $-1 #
coedge $-1 $330 $216 $218 $334 reversed $124 $-1 #
coedge $-1 $216 $329 $328 $425 reversed $124 $-1 #
coedge $-1 $224 $219 $216 $332 forward $225 $-1 #
edge $-1 $335 -31.161615199862108 $426 -27.16752141420141 $331 $427 forward 7 unknown #
coedge $-1 $218 $217 $338 $428 reversed $77 $-1 #
edge $-1 $429 -4.8758881502491658 $335 -1.207859054955032e-014 $329 $430 forward 7 unknown #
vertex $-1 $220 $431 #
straight-curve $-1 -4.5491375811294645 -26.545865389786961 6.1523456778638437 1 0 0 I I #
coedge $-1 $328 $221 $224 $342 forward $214 $-1 #
coedge $-1 $221 $328 $333 $428 forward $214 $-1 #
vertex $-1 $222 $432 #
straight-curve $-1 -19.600527434663796 -62.169562913553776 10.146439463524544 0 -1 0 I I #
straight-curve $-1 -19.600527434663796 -26.545865389786968 6.1523456778638348 0 0.57357642473473569 0.81915205242281985 I I #
edge $-1 $226 -19.600527434663796 $426 1.403977110145938 $224 $433 forward 7 unknown #
point $-1 -19.600527434663796 -26.545865389786961 10.146439463524546 #
point $-1 -19.600527434663796 -26.545865389786961 6.1523456778638446 #
edge $-1 $434 1 $434 0 $229 $-1 forward 7 unknown #
vertex $-1 $230 $435 #
ellipse-curve $-1 -13.599240421861012 -24.101572444407076 7.4170135297543176 0 -0.81915205242281985 0.57357642473473569 1 0 0 1 I I #
point $-1 -12.599240421861012 -25.147518143473768 8.1493925706941841 #
edge $-1 $436 1 $436 0 $233 $-1 forward 7 unknown #
vertex $-1 $234 $437 #
ellipse-curve $-1 -4.5973099026568391 -24.101572444407076 7.4170135297543176 0 -0.81915205242281985 0.57357642473473569 1 0 0 1 I I #
point $-1 -3.5973099026568391 -25.147518143473768 8.1493925706941841 #
loop $-1 $-1 $245 $237 #
plane-surface $-1 0 0 10.146439463524546 0 0 1 1 0 0 forward_v I I I I #
coedge $-1 $356 $240 $242 $360 reversed $146 $-1 #
coedge $-1 $240 $355 $438 $439 reversed $146 $-1 #
coedge $-1 $248 $243 $240 $358 forward $238 $-1 #
edge $-1 $361 -62.344094807592896 $440 -56.171413302545403 $357 $441 forward 7 unknown #
coedge $-1 $242 $241 $364 $442 reversed $91 $-1 #
edge $-1 $443 42.053176129629165 $361 53.091730779573908 $355 $444 forward 7 unknown #
vertex $-1 $244 $445 #
straight-curve $-1 21.446525952219194 26.545865389786965 3.9737579584770497 -1 0 0 I I #
coedge $-1 $438 $245 $248 $368 forward $353 $-1 #
coedge $-1 $245 $438 $359 $442 forward $353 $-1 #
vertex $-1 $246 $446 #
straight-curve $-1 48.158654884740514 24.644623750338514 10.146439463524544 0 1 0 I I #
straight-curve $-1 48.158654884740514 -17.469173958196173 33.66227742924643 0 -0.82903756765294845 0.55919291073839883 I I #
edge $-1 $249 -48.158654884740514 $440 -37.62744892413626 $248 $447 forward 7 unknown #
point $-1 48.158654884740514 26.545865389786961 10.146439463524546 #
point $-1 48.158654884740514 26.545865389786961 3.9737579584770515 #
edge $-1 $448 1 $448 0 $252 $-1 forward 7 unknown #
vertex $-1 $253 $449 #
ellipse-curve $-1 42.893051904438401 16.393095222412192 -1.2082651034766798 0 0.55919291073839883 0.82903756765294845 2.5 0 0 1 I I #
point $-1 45.393051904438401 21.970177141089785 7.060098711000796 #
plane-surface $-1 59.69176305429243 0 0 -1 0 0 0 0 1 forward_v I I I I #
coedge $-1 $261 $259 $263 $380 reversed $161 $-1 #
edge $-1 $274 -10.146439463524546 $382 10.146439463524546 $273 $450 forward 7 unknown #
vertex $-1 $380 $451 #
straight-curve $-1 -59.69176305429243 -26.545865389786961 0 0 0 -1 I I #
edge $-1 $378 -26.545865389786961 $382 26.545865389786961 $376 $452 forward 7 unknown #
straight-curve $-1 0 -26.545865389786961 -10.146439463524546 -1 0 0 I I #
vertex $-1 $266 $453 #
straight-curve $-1 0 26.545865389786961 -10.146439463524546 1 0 0 I I #
point $-1 59.69176305429243 26.545865389786961 -10.146439463524546 #
point $-1 59.69176305429243 -26.545865389786961 -10.146439463524546 #
straight-curve $-1 -59.69176305429243 0 10.146439463524546 0 -1 0 I I #
point $-1 -59.69176305429243 26.545865389786961 10.146439463524546 #
point $-1 -59.69176305429243 -26.545865389786961 10.146439463524546 #
straight-curve $-1 59.69176305429243 -26.545865389786961 0 0 0 -1 I I #
straight-curve $-1 59.69176305429243 26.545865389786961 0 0 0 -1 I I #
plane-surface $-1 0 26.545865389786961 0 0 -1 0 0 0 -1 forward_v I I I I #
coedge $-1 $287 $286 $454 $455 forward $108 $-1 #
edge $-1 $290 48.158654884740521 $456 59.69176305429243 $289 $457 forward 7 unknown #
coedge $-1 $295 $294 $287 $395 reversed $296 $-1 #
edge $-1 $458 -59.69176305429243 $396 -48.158654884740521 $394 $459 forward 7 unknown #
vertex $-1 $302 $460 #
straight-curve $-1 -48.158654884740521 0 -10.146439463524546 0 -1 0 I I #
point $-1 -48.158654884740521 -26.545865389786961 -10.146439463524546 #
coedge $-1 $454 $292 $295 $402 forward $284 $-1 #
coedge $-1 $292 $454 $299 $404 reversed $284 $-1 #
straight-curve $-1 -59.69176305429243 0 -6.5245380435269507 0 1 0 I I #
edge $-1 $297 6.5245380435269507 $458 10.146439463524546 $295 $461 forward 7 unknown #
point $-1 -59.69176305429243 26.545865389786961 -6.5245380435269507 #
edge $-1 $300 6.5245380435269507 $456 10.146439463524546 $400 $462 forward 7 unknown #
point $-1 -59.69176305429243 -26.545865389786961 -6.5245380435269507 #
straight-curve $-1 -48.158654884740521 26.545865389786961 -4.1677443767628741 0 0 -1 I I #
plane-surface $-1 59.69176305429243 0 0 -1 0 0 0 0 1 forward_v I I I I #
coedge $-1 $419 $308 $314 $415 forward $196 $-1 #
coedge $-1 $308 $419 $410 $463 forward $196 $-1 #
coedge $-1 $310 $309 $409 $463 reversed $116 $-1 #
edge $-1 $320 2.3567936667640765 $412 5.9786950867616717 $309 $464 forward 7 unknown #
vertex $-1 $312 $465 #
straight-curve $-1 48.158654884740514 0 -10.146439463524546 0 1 0 I I #
straight-curve $-1 48.158654884740514 0 -6.5245380435269507 0 -1 0 I I #
edge $-1 $315 48.158654884740514 $423 59.69176305429243 $314 $466 forward 7 unknown #
point $-1 48.158654884740514 26.545865389786961 -10.146439463524546 #
point $-1 48.158654884740514 26.545865389786961 -6.5245380435269507 #
point $-1 48.158654884740514 -26.545865389786961 -6.5245380435269507 #
coedge $-1 $409 $408 $322 $420 forward $196 $-1 #
edge $-1 $423 -26.545865389786961 $421 26.545865389786961 $322 $467 forward 7 unknown #
vertex $-1 $323 $468 #
straight-curve $-1 59.69176305429243 -26.545865389786961 0 0 0 -1 I I #
vertex $-1 $420 $469 #
straight-curve $-1 59.69176305429243 26.545865389786961 0 0 0 -1 I I #
edge $-1 $426 35.623697523766815 $429 38.420392016393187 $328 $470 forward 7 unknown #
vertex $-1 $425 $471 #
straight-curve $-1 1.403977110145938 -26.545865389786961 37.313960877725954 0 0 1 I I #
edge $-1 $429 -5.9531146912754025 $339 15.051389853534332 $338 $472 forward 7 unknown #
vertex $-1 $428 $473 #
straight-curve $-1 1.403977110145938 -26.545865389786968 6.1523456778638348 0 -0.57357642473473569 -0.81915205242281985 I I #
point $-1 1.403977110145938 -26.545865389786961 6.1523456778638446 #
point $-1 -19.600527434663796 -23.749170897160589 10.146439463524546 #
straight-curve $-1 0 -26.545865389786961 10.146439463524546 1 0 0 I I #
vertex $-1 $345 $474 #
point $-1 -12.599240421861012 -24.101572444407076 7.4170135297543176 #
vertex $-1 $349 $475 #
point $-1 -3.5973099026568391 -24.101572444407076 7.4170135297543176 #
coedge $-1 $364 $363 $356 $439 forward $353 $-1 #
edge $-1 $440 -1.9012416394484468 $443 7.2501348579458913 $438 $476 forward 7 unknown #
vertex $-1 $439 $477 #
straight-curve $-1 37.62744892413626 26.545865389786961 66.317852766069947 0 0 1 I I #
edge $-1 $443 16.180922971917067 $365 26.71212893252132 $364 $478 forward 7 unknown #
vertex $-1 $442 $479 #
straight-curve $-1 37.62744892413626 -17.469173958196173 33.66227742924643 0 0.82903756765294845 -0.55919291073839883 I I #
point $-1 37.62744892413626 26.545865389786961 3.9737579584770515 #
point $-1 48.158654884740514 17.394488892392623 10.146439463524544 #
straight-curve $-1 0 26.545865389786961 10.146439463524546 -1 0 0 I I #
vertex $-1 $371 $480 #
point $-1 45.393051904438401 16.393095222412192 -1.2082651034766798 #
straight-curve $-1 -59.69176305429243 26.545865389786961 0 0 0 -1 I I #
point $-1 -59.69176305429243 -26.545865389786961 -10.146439463524546 #
straight-curve $-1 -59.69176305429243 0 -10.146439463524546 0 1 0 I I #
point $-1 -59.69176305429243 26.545865389786961 -10.146439463524546 #
coedge $-1 $400 $399 $392 $455 reversed $284 $-1 #
edge $-1 $456 -26.545865389786961 $458 26.545865389786961 $454 $481 forward 7 unknown #
vertex $-1 $455 $482 #
straight-curve $-1 0 -26.545865389786961 -10.146439463524546 -1 0 0 I I #
vertex $-1 $395 $483 #
straight-curve $-1 0 26.545865389786961 -10.146439463524546 1 0 0 I I #
point $-1 -48.158654884740521 26.545865389786961 -10.146439463524546 #
straight-curve $-1 -59.69176305429243 26.545865389786961 0 0 0 -1 I I #
straight-curve $-1 -59.69176305429243 -26.545865389786961 0 0 0 -1 I I #
edge $-1 $421 -59.69176305429243 $412 -48.158654884740514 $410 $484 forward 7 unknown #
straight-curve $-1 48.158654884740514 -26.545865389786961 -4.1677443767628741 0 0 -1 I I #
point $-1 48.158654884740514 -26.545865389786961 -10.146439463524546 #
straight-curve $-1 0 26.545865389786961 -10.146439463524546 1 0 0 I I #
straight-curve $-1 59.69176305429243 0 -10.146439463524546 0 -1 0 I I #
point $-1 59.69176305429243 -26.545865389786961 -10.146439463524546 #
point $-1 59.69176305429243 26.545865389786961 -10.146439463524546 #
straight-curve $-1 1.403977110145938 -62.169562913553776 10.146439463524544 0 1 0 I I #
point $-1 1.403977110145938 -26.545865389786961 10.146439463524546 #
straight-curve $-1 -4.5491375811294645 -23.749170897160589 10.146439463524546 -1 0 0 I I #
point $-1 1.403977110145938 -23.749170897160589 10.146439463524546 #
point $-1 -13.599240421861012 -23.282420391984253 6.8434371050195821 #
point $-1 -4.5973099026568391 -23.282420391984253 6.8434371050195821 #
straight-curve $-1 37.62744892413626 24.644623750338514 10.146439463524544 0 -1 0 I I #
point $-1 37.62744892413626 26.545865389786961 10.146439463524546 #
straight-curve $-1 21.446525952219194 17.394488892392623 10.146439463524546 1 0 0 I I #
point $-1 37.62744892413626 17.394488892392623 10.146439463524544 #
point $-1 42.893051904438401 14.995112945566197 -3.280859022609051 #
straight-curve $-1 -59.69176305429243 0 -10.146439463524546 0 1 0 I I #
point $-1 -59.69176305429243 -26.545865389786961 -10.146439463524546 #
point $-1 -59.69176305429243 26.545865389786961 -10.146439463524546 #
straight-curve $-1 0 -26.545865389786961 -10.146439463524546 -1 0 0 I I #
End-of-ACIS-data 