500 0 11 0           
7 Unknown 11 ACIS 5.0 NT 24 Fri Mar 26 19:07:41 1999 
-1 9.9999999999999995e-007 1e-010 
body $-1 $11 $-1 $12 #
body $-1 $13 $-1 $14 #
body $-1 $15 $-1 $16 #
body $-1 $17 $-1 $18 #
body $-1 $19 $-1 $20 #
body $-1 $21 $-1 $22 #
body $-1 $23 $-1 $24 #
body $-1 $25 $-1 $26 #
body $-1 $27 $-1 $28 #
body $-1 $29 $-1 $30 #
body $-1 $31 $-1 $32 #
lump $-1 $-1 $33 $0 #
transform $-1 1 0 0 0 1 0 0 0 1 44.889065218054753 28.363390187524207 13.738936401147013 1 rotate no_reflect no_shear #
lump $-1 $-1 $34 $1 #
transform $-1 1 0 0 0 1 0 0 0 1 44.889065218054753 28.363390187524207 13.738936401147013 1 rotate no_reflect no_shear #
lump $-1 $-1 $35 $2 #
transform $-1 1 0 0 0 1 0 0 0 1 44.889065218054753 28.363390187524207 13.738936401147013 1 rotate no_reflect no_shear #
lump $-1 $-1 $36 $3 #
transform $-1 1 0 0 0 1 0 0 0 1 44.889065218054753 28.363390187524207 13.738936401147013 1 rotate no_reflect no_shear #
lump $-1 $-1 $37 $4 #
transform $-1 1 0 0 0 1 0 0 0 1 44.889065218054753 28.363390187524207 13.738936401147013 1 rotate no_reflect no_shear #
lump $-1 $-1 $38 $5 #
transform $-1 1 0 0 0 1 0 0 0 1 44.889065218054753 28.363390187524207 13.738936401147013 1 rotate no_reflect no_shear #
lump $-1 $-1 $39 $6 #
transform $-1 1 0 0 0 1 0 0 0 1 44.889065218054753 28.363390187524207 13.738936401147013 1 rotate no_reflect no_shear #
lump $-1 $-1 $40 $7 #
transform $-1 1 0 0 0 1 0 0 0 1 44.889065218054753 28.363390187524207 13.738936401147013 1 rotate no_reflect no_shear #
lump $-1 $-1 $41 $8 #
transform $-1 1 0 0 0 1 0 0 0 1 44.889065218054753 28.363390187524207 13.738936401147013 1 rotate no_reflect no_shear #
lump $-1 $-1 $42 $9 #
transform $-1 1 0 0 0 1 0 0 0 1 44.889065218054753 28.363390187524207 13.738936401147013 1 rotate no_reflect no_shear #
lump $-1 $-1 $43 $10 #
transform $-1 1 0 0 0 1 0 0 0 1 44.889065218054753 28.363390187524207 13.738936401147013 1 rotate no_reflect no_shear #
shell $-1 $-1 $-1 $44 $-1 $11 #
shell $-1 $-1 $-1 $45 $-1 $13 #
shell $-1 $-1 $-1 $46 $-1 $15 #
shell $-1 $-1 $-1 $47 $-1 $17 #
shell $-1 $-1 $-1 $48 $-1 $19 #
shell $-1 $-1 $-1 $49 $-1 $21 #
shell $-1 $-1 $-1 $50 $-1 $23 #
shell $-1 $-1 $-1 $51 $-1 $25 #
shell $-1 $-1 $-1 $52 $-1 $27 #
shell $-1 $-1 $-1 $53 $-1 $29 #
shell $-1 $-1 $-1 $54 $-1 $31 #
face $-1 $55 $56 $33 $-1 $57 forward single #
face $-1 $58 $59 $34 $-1 $60 forward single #
face $-1 $61 $62 $35 $-1 $63 reversed single #
face $-1 $64 $65 $36 $-1 $66 forward single #
face $-1 $67 $68 $37 $-1 $69 forward single #
face $-1 $70 $71 $38 $-1 $72 reversed single #
face $-1 $73 $74 $39 $-1 $75 forward single #
face $-1 $76 $77 $40 $-1 $78 forward single #
face $-1 $79 $80 $41 $-1 $81 reversed single #
face $-1 $82 $83 $42 $-1 $84 forward single #
face $-1 $85 $86 $43 $-1 $87 forward single #
face $-1 $88 $89 $33 $-1 $90 reversed single #
loop $-1 $-1 $91 $44 #
plane-surface $-1 0 0 13.738936401147013 0 0 1 1 0 0 forward_v I I I I #
face $-1 $92 $93 $34 $-1 $94 reversed single #
loop $-1 $-1 $95 $45 #
plane-surface $-1 -44.889065218054753 0 0 1 0 0 0 0 -1 forward_v I I I I #
face $-1 $96 $97 $35 $-1 $98 reversed single #
loop $-1 $-1 $99 $46 #
plane-surface $-1 -31.46255156818868 33.390153152453308 113.55114420758494 1 0 0 0 -0.57357644374324357 -0.81915203911291934 forward_v I I I I #
face $-1 $100 $101 $36 $-1 $102 forward single #
loop $-1 $103 $104 $47 #
cone-surface $-1 -26.912125828581551 23.343854189478449 9.82783906870851 0 -0.57357644374324357 -0.81915203911291934 0.5 0 0 1 I I 0 1 0.5 forward I I I I #
face $-1 $105 $106 $37 $-1 $107 forward single #
loop $-1 $108 $109 $48 #
cone-surface $-1 -20.086487219170856 23.343854189478449 9.82783906870851 0 -0.57357644374324357 -0.81915203911291934 0.5 0 0 1 I I 0 1 0.5 forward I I I I #
face $-1 $110 $111 $38 $-1 $112 reversed single #
loop $-1 $-1 $113 $49 #
plane-surface $-1 6.713256824933036 33.390153152453308 113.55114420758494 1 0 0 0 -0.57357644374324357 -0.81915203911291934 forward_v I I I I #
face $-1 $114 $115 $39 $-1 $116 forward single #
loop $-1 $117 $118 $50 #
cone-surface $-1 11.263682564540169 23.343854189478449 9.82783906870851 0 -0.57357644374324357 -0.81915203911291934 0.5 0 0 1 I I 0 1 0.5 forward I I I I #
face $-1 $119 $120 $40 $-1 $121 forward single #
loop $-1 $122 $123 $51 #
cone-surface $-1 18.089321173950864 23.343854189478449 9.82783906870851 0 -0.57357644374324357 -0.81915203911291934 0.5 0 0 1 I I 0 1 0.5 forward I I I I #
face $-1 $124 $125 $41 $-1 $126 reversed single #
loop $-1 $-1 $127 $52 #
plane-surface $-1 -22.490356968883574 -91.846115757709214 65.752625934713848 -1 0 0 0 -0.70710678939079041 0.70710677298230451 forward_v I I I I #
face $-1 $128 $129 $42 $-1 $130 forward single #
loop $-1 $131 $132 $53 #
cone-surface $-1 -28.89906739695865 -22.138816333006289 7.5143624249308489 0 0.70710678939079041 -0.70710677298230451 1 0 0 1 I I 0 1 1 forward I I I I #
face $-1 $133 $134 $43 $-1 $135 forward single #
loop $-1 $136 $137 $54 #
cone-surface $-1 -25.053841140113605 -22.138816333006289 7.5143624249308489 0 0.70710678939079041 -0.70710677298230451 1 0 0 1 I I 0 1 1 forward I I I I #
face $-1 $138 $139 $33 $-1 $140 reversed single #
loop $-1 $-1 $141 $55 #
plane-surface $-1 0 0 -13.738936401147013 0 0 1 1 0 0 forward_v I I I I #
coedge $-1 $142 $143 $144 $145 forward $56 $-1 #
face $-1 $146 $147 $34 $-1 $148 reversed single #
loop $-1 $-1 $149 $58 #
plane-surface $-1 0 28.363390187524207 0 0 -1 0 0 0 -1 forward_v I I I I #
coedge $-1 $150 $151 $152 $153 forward $59 $-1 #
face $-1 $154 $155 $35 $-1 $156 reversed single #
loop $-1 $-1 $157 $61 #
plane-surface $-1 -23.499306523876204 -18.104467629007438 40.009205593100191 0 0.57357644374324357 0.81915203911291934 1 0 0 forward_v I I I I #
coedge $-1 $158 $159 $160 $161 reversed $62 $-1 #
face $-1 $-1 $162 $36 $-1 $163 forward single #
loop $-1 $164 $165 $64 #
cone-surface $-1 -26.912125828581551 22.655937057526618 8.8453916067773424 0 -0.57357644374324357 -0.81915203911291934 0.25 0 0 1 I I -0.70710678118654746 0.70710678118654746 0.25 forward I I I I #
loop $-1 $-1 $166 $47 #
coedge $-1 $104 $104 $167 $168 reversed $65 $-1 #
face $-1 $-1 $169 $37 $-1 $170 forward single #
loop $-1 $171 $172 $67 #
cone-surface $-1 -20.086487219170856 22.655937057526618 8.8453916067773424 0 -0.57357644374324357 -0.81915203911291934 0.25 0 0 1 I I -0.70710678118654746 0.70710678118654746 0.25 forward I I I I #
loop $-1 $-1 $173 $48 #
coedge $-1 $109 $109 $174 $175 reversed $68 $-1 #
face $-1 $176 $177 $38 $-1 $178 reversed single #
loop $-1 $-1 $179 $70 #
plane-surface $-1 14.676501869245513 -18.104467629007438 40.009205593100191 0 0.57357644374324357 0.81915203911291934 1 0 0 forward_v I I I I #
coedge $-1 $180 $181 $182 $183 reversed $71 $-1 #
face $-1 $-1 $184 $39 $-1 $185 forward single #
loop $-1 $186 $187 $73 #
cone-surface $-1 11.263682564540169 22.655937057526618 8.8453916067773424 0 -0.57357644374324357 -0.81915203911291934 0.25 0 0 1 I I -0.70710678118654746 0.70710678118654746 0.25 forward I I I I #
loop $-1 $-1 $188 $50 #
coedge $-1 $118 $118 $189 $190 reversed $74 $-1 #
face $-1 $-1 $191 $40 $-1 $192 forward single #
loop $-1 $193 $194 $76 #
cone-surface $-1 18.089321173950864 22.655937057526618 8.8453916067773424 0 -0.57357644374324357 -0.81915203911291934 0.25 0 0 1 I I -0.70710678118654746 0.70710678118654746 0.25 forward I I I I #
loop $-1 $-1 $195 $51 #
coedge $-1 $123 $123 $196 $197 reversed $77 $-1 #
face $-1 $198 $199 $41 $-1 $200 reversed single #
loop $-1 $-1 $201 $79 #
plane-surface $-1 -26.976454268536127 -28.363390187524217 2.2699018376520428 0 -0.70710678939079041 0.70710677298230451 1 0 0 forward_v I I I I #
coedge $-1 $202 $203 $204 $205 reversed $80 $-1 #
face $-1 $-1 $206 $42 $-1 $207 forward single #
loop $-1 $208 $209 $82 #
cone-surface $-1 -28.89906739695865 -21.295206232470399 6.670752343971019 0 0.70710678939079041 -0.70710677298230451 0.5 0 0 1 I I -0.70710678118654746 0.70710678118654746 0.5 forward I I I I #
loop $-1 $-1 $210 $53 #
coedge $-1 $132 $132 $211 $212 reversed $83 $-1 #
face $-1 $-1 $213 $43 $-1 $214 forward single #
loop $-1 $215 $216 $85 #
cone-surface $-1 -25.053841140113605 -21.295206232470399 6.670752343971019 0 0.70710678939079041 -0.70710677298230451 0.5 0 0 1 I I -0.70710678118654746 0.70710678118654746 0.5 forward I I I I #
loop $-1 $-1 $217 $54 #
coedge $-1 $137 $137 $218 $219 reversed $86 $-1 #
face $-1 $220 $221 $33 $-1 $222 reversed single #
loop $-1 $-1 $223 $88 #
plane-surface $-1 0 -28.363390187524207 0 0 1 0 0 0 1 forward_v I I I I #
coedge $-1 $224 $225 $226 $227 forward $89 $-1 #
coedge $-1 $228 $91 $229 $230 forward $56 $-1 #
coedge $-1 $91 $228 $231 $232 forward $56 $-1 #
coedge $-1 $233 $234 $91 $145 reversed $235 $-1 #
edge $-1 $236 -28.363390187524207 $237 28.363390187524207 $144 $238 forward 7 unknown #
face $-1 $239 $240 $34 $-1 $241 reversed single #
loop $-1 $-1 $152 $92 #
plane-surface $-1 -51.602322042987787 0 9.872478436440538 0 0 1 1 0 0 forward_v I I I I #
coedge $-1 $242 $243 $150 $244 forward $93 $-1 #
coedge $-1 $245 $95 $149 $244 reversed $59 $-1 #
coedge $-1 $95 $245 $246 $247 reversed $59 $-1 #
coedge $-1 $248 $249 $95 $153 reversed $147 $-1 #
edge $-1 $250 -28.363390187524207 $251 28.363390187524207 $152 $252 forward 7 unknown #
face $-1 $253 $254 $35 $-1 $255 forward single #
loop $-1 $-1 $256 $96 #
plane-surface $-1 -15.536061479563728 33.390153152453308 113.55114420758494 -1 0 0 0 0.57357644374324357 0.81915203911291934 forward_v I I I I #
coedge $-1 $257 $258 $259 $260 reversed $97 $-1 #
coedge $-1 $159 $99 $261 $262 reversed $62 $-1 #
coedge $-1 $99 $158 $257 $263 reversed $62 $-1 #
coedge $-1 $259 $264 $99 $161 forward $254 $-1 #
edge $-1 $265 -11.668313611297553 $266 -2.7182876572380934 $160 $267 forward 7 unknown #
loop $-1 $-1 $167 $100 #
plane-surface $-1 -23.499306523876204 -18.104467629007438 40.009205593100191 0 0.57357644374324357 0.81915203911291934 1 0 0 forward_v I I I I #
loop $-1 $-1 $268 $64 #
coedge $-1 $165 $165 $166 $269 reversed $101 $-1 #
coedge $-1 $166 $166 $165 $269 forward $103 $-1 #
coedge $-1 $167 $167 $104 $168 forward $162 $-1 #
edge $-1 $270 2.3305862013498867e-015 $270 6.2831853071796031 $167 $271 forward 7 unknown #
loop $-1 $-1 $174 $105 #
plane-surface $-1 -23.499306523876204 -18.104467629007438 40.009205593100191 0 0.57357644374324357 0.81915203911291934 1 0 0 forward_v I I I I #
loop $-1 $-1 $272 $67 #
coedge $-1 $172 $172 $173 $273 reversed $106 $-1 #
coedge $-1 $173 $173 $172 $273 forward $108 $-1 #
coedge $-1 $174 $174 $109 $175 forward $169 $-1 #
edge $-1 $274 2.3305862013498867e-015 $274 6.2831853071796031 $174 $275 forward 7 unknown #
face $-1 $276 $277 $38 $-1 $278 forward single #
loop $-1 $-1 $279 $110 #
plane-surface $-1 22.639746913557989 33.390153152453308 113.55114420758494 -1 0 0 0 0.57357644374324357 0.81915203911291934 forward_v I I I I #
coedge $-1 $280 $281 $282 $283 reversed $111 $-1 #
coedge $-1 $181 $113 $284 $285 reversed $71 $-1 #
coedge $-1 $113 $180 $280 $286 reversed $71 $-1 #
coedge $-1 $282 $287 $113 $183 forward $277 $-1 #
edge $-1 $288 -11.668313611297553 $289 -2.7182876572380934 $182 $290 forward 7 unknown #
loop $-1 $-1 $189 $114 #
plane-surface $-1 14.676501869245513 -18.104467629007438 40.009205593100191 0 0.57357644374324357 0.81915203911291934 1 0 0 forward_v I I I I #
loop $-1 $-1 $291 $73 #
coedge $-1 $187 $187 $188 $292 reversed $115 $-1 #
coedge $-1 $188 $188 $187 $292 forward $117 $-1 #
coedge $-1 $189 $189 $118 $190 forward $184 $-1 #
edge $-1 $293 2.3305862013498867e-015 $293 6.2831853071796031 $189 $294 forward 7 unknown #
loop $-1 $-1 $196 $119 #
plane-surface $-1 14.676501869245513 -18.104467629007438 40.009205593100191 0 0.57357644374324357 0.81915203911291934 1 0 0 forward_v I I I I #
loop $-1 $-1 $295 $76 #
coedge $-1 $194 $194 $195 $296 reversed $120 $-1 #
coedge $-1 $195 $195 $194 $296 forward $122 $-1 #
coedge $-1 $196 $196 $123 $197 forward $191 $-1 #
edge $-1 $297 2.3305862013498867e-015 $297 6.2831853071796031 $196 $298 forward 7 unknown #
face $-1 $299 $300 $41 $-1 $301 reversed single #
loop $-1 $-1 $302 $124 #
plane-surface $-1 -31.46255156818868 -91.846115757709214 65.752625934713848 1 0 0 0 0.70710678939079041 -0.70710677298230451 forward_v I I I I #
coedge $-1 $303 $304 $305 $306 reversed $125 $-1 #
coedge $-1 $203 $127 $307 $308 reversed $80 $-1 #
coedge $-1 $127 $202 $303 $309 reversed $80 $-1 #
coedge $-1 $305 $310 $127 $205 forward $311 $-1 #
edge $-1 $312 17.5596676913304 $313 29.028701988685228 $204 $314 forward 7 unknown #
loop $-1 $-1 $211 $128 #
plane-surface $-1 -26.976454268536127 -28.363390187524217 2.2699018376520428 0 -0.70710678939079041 0.70710677298230451 1 0 0 forward_v I I I I #
loop $-1 $-1 $315 $82 #
coedge $-1 $209 $209 $210 $316 reversed $129 $-1 #
coedge $-1 $210 $210 $209 $316 forward $131 $-1 #
coedge $-1 $211 $211 $132 $212 forward $206 $-1 #
edge $-1 $317 1.2560738066367263e-015 $317 6.2831853071796013 $211 $318 forward 7 unknown #
loop $-1 $-1 $218 $133 #
plane-surface $-1 -26.976454268536127 -28.363390187524217 2.2699018376520428 0 -0.70710678939079041 0.70710677298230451 1 0 0 forward_v I I I I #
loop $-1 $-1 $319 $85 #
coedge $-1 $216 $216 $217 $320 reversed $134 $-1 #
coedge $-1 $217 $217 $216 $320 forward $136 $-1 #
coedge $-1 $218 $218 $137 $219 forward $213 $-1 #
edge $-1 $321 1.2560738066367263e-015 $321 6.2831853071796013 $218 $322 forward 7 unknown #
face $-1 $323 $324 $33 $-1 $325 reversed single #
loop $-1 $-1 $326 $138 #
plane-surface $-1 -44.889065218054753 0 0 1 0 0 0 0 -1 forward_v I I I I #
coedge $-1 $327 $231 $328 $329 forward $139 $-1 #
coedge $-1 $330 $141 $327 $331 forward $89 $-1 #
coedge $-1 $141 $330 $332 $333 forward $89 $-1 #
coedge $-1 $234 $233 $141 $227 reversed $235 $-1 #
edge $-1 $334 -28.363390187524207 $335 28.363390187524207 $226 $336 forward 7 unknown #
coedge $-1 $143 $142 $337 $338 forward $56 $-1 #
coedge $-1 $339 $340 $142 $230 reversed $324 $-1 #
edge $-1 $237 -44.889065218054753 $341 44.889065218054753 $229 $342 forward 7 unknown #
coedge $-1 $223 $343 $143 $232 reversed $139 $-1 #
edge $-1 $344 -44.889065218054753 $236 44.889065218054753 $231 $345 forward 7 unknown #
coedge $-1 $226 $144 $343 $346 forward $235 $-1 #
coedge $-1 $144 $226 $339 $347 reversed $235 $-1 #
loop $-1 $-1 $233 $323 #
vertex $-1 $145 $348 #
vertex $-1 $145 $349 #
straight-curve $-1 44.889065218054753 0 13.738936401147013 0 1 0 I I #
face $-1 $350 $351 $34 $-1 $352 forward single #
loop $-1 $-1 $353 $146 #
plane-surface $-1 -58.31557886792082 0 11.805707418793775 1 0 0 0 0 -1 forward_v I I I I #
coedge $-1 $354 $149 $249 $355 reversed $93 $-1 #
coedge $-1 $149 $354 $356 $357 reversed $93 $-1 #
edge $-1 $358 -13.738936401147013 $251 -9.872478436440538 $149 $359 forward 7 unknown #
coedge $-1 $151 $150 $360 $361 reversed $59 $-1 #
coedge $-1 $362 $363 $151 $247 forward $364 $-1 #
edge $-1 $250 9.872478436440538 $365 13.738936401147013 $246 $366 forward 7 unknown #
coedge $-1 $367 $152 $363 $368 forward $147 $-1 #
coedge $-1 $152 $367 $242 $355 forward $147 $-1 #
vertex $-1 $247 $369 #
vertex $-1 $244 $370 #
straight-curve $-1 -44.889065218054753 0 9.872478436440538 0 1 0 I I #
face $-1 $-1 $371 $35 $-1 $372 reversed single #
loop $-1 $-1 $160 $154 #
plane-surface $-1 0 0 13.738936401147013 0 0 1 1 0 0 forward_v I I I I #
coedge $-1 $373 $374 $375 $376 reversed $155 $-1 #
coedge $-1 $377 $157 $159 $263 forward $97 $-1 #
coedge $-1 $157 $377 $373 $378 forward $97 $-1 #
coedge $-1 $375 $160 $157 $260 forward $254 $-1 #
edge $-1 $266 -19.71289830625058 $379 -3.7864082176256257 $259 $380 forward 7 unknown #
coedge $-1 $381 $382 $158 $262 forward $371 $-1 #
edge $-1 $383 -49.303511463216573 $265 -43.036635702645455 $261 $384 forward 7 unknown #
edge $-1 $266 45.80081605253794 $383 56.726780375048421 $159 $385 forward 7 unknown #
coedge $-1 $160 $375 $381 $386 forward $254 $-1 #
vertex $-1 $262 $387 #
vertex $-1 $161 $388 #
straight-curve $-1 -31.46255156818868 16.695076576226654 13.738936401147015 0 -1 0 I I #
coedge $-1 $268 $268 $-1 $389 reversed $164 $-1 #
edge $-1 $390 0 $390 6.2831853071796004 $165 $391 forward 7 unknown #
vertex $-1 $168 $392 #
ellipse-curve $-1 -26.912125828581551 23.888377210494475 10.605498520861456 0 0.57357644374324357 0.81915203911291934 0.5 0 0 1 I I #
coedge $-1 $272 $272 $-1 $393 reversed $171 $-1 #
edge $-1 $394 0 $394 6.2831853071796004 $172 $395 forward 7 unknown #
vertex $-1 $175 $396 #
ellipse-curve $-1 -20.086487219170856 23.888377210494475 10.605498520861456 0 0.57357644374324357 0.81915203911291934 0.5 0 0 1 I I #
face $-1 $-1 $397 $38 $-1 $398 reversed single #
loop $-1 $-1 $182 $176 #
plane-surface $-1 0 0 13.738936401147013 0 0 1 1 0 0 forward_v I I I I #
coedge $-1 $399 $400 $401 $402 reversed $177 $-1 #
coedge $-1 $403 $179 $181 $286 forward $111 $-1 #
coedge $-1 $179 $403 $399 $404 forward $111 $-1 #
coedge $-1 $401 $182 $179 $283 forward $277 $-1 #
edge $-1 $289 -0.62499410968972047 $405 15.301495978935233 $282 $406 forward 7 unknown #
coedge $-1 $407 $408 $180 $285 forward $397 $-1 #
edge $-1 $409 -49.303511463216573 $288 -43.036635702645455 $284 $410 forward 7 unknown #
edge $-1 $289 45.80081605253794 $409 56.726780375048421 $181 $411 forward 7 unknown #
coedge $-1 $182 $401 $407 $412 forward $277 $-1 #
vertex $-1 $183 $413 #
vertex $-1 $183 $414 #
straight-curve $-1 6.713256824933036 16.695076576226654 13.738936401147015 0 -1 0 I I #
coedge $-1 $291 $291 $-1 $415 reversed $186 $-1 #
edge $-1 $416 0 $416 6.2831853071796004 $187 $417 forward 7 unknown #
vertex $-1 $190 $418 #
ellipse-curve $-1 11.263682564540169 23.888377210494475 10.605498520861456 0 0.57357644374324357 0.81915203911291934 0.5 0 0 1 I I #
coedge $-1 $295 $295 $-1 $419 reversed $193 $-1 #
edge $-1 $420 0 $420 6.2831853071796004 $194 $421 forward 7 unknown #
vertex $-1 $197 $422 #
ellipse-curve $-1 18.089321173950864 23.888377210494475 10.605498520861456 0 0.57357644374324357 0.81915203911291934 0.5 0 0 1 I I #
face $-1 $-1 $311 $41 $-1 $423 forward single #
loop $-1 $-1 $424 $198 #
plane-surface $-1 0 -28.363390187524207 0 0 1 0 0 0 1 forward_v I I I I #
coedge $-1 $425 $426 $427 $428 reversed $199 $-1 #
coedge $-1 $429 $201 $203 $309 forward $125 $-1 #
coedge $-1 $201 $429 $425 $430 forward $125 $-1 #
coedge $-1 $427 $204 $201 $306 forward $311 $-1 #
edge $-1 $313 9.002129834615511 $431 17.974324433920614 $305 $432 forward 7 unknown #
coedge $-1 $433 $434 $202 $308 forward $300 $-1 #
edge $-1 $435 -30.60641112970487 $312 -19.137376566209909 $307 $436 forward 7 unknown #
edge $-1 $313 -16.219664038830889 $435 -1.5072887603364246e-014 $203 $437 forward 7 unknown #
coedge $-1 $204 $427 $433 $438 forward $311 $-1 #
loop $-1 $-1 $427 $299 #
vertex $-1 $308 $439 #
vertex $-1 $205 $440 #
straight-curve $-1 -22.490356968883574 -45.923057878854607 13.738936401147015 0 1 0 I I #
coedge $-1 $315 $315 $-1 $441 reversed $208 $-1 #
edge $-1 $442 0 $442 6.2831853071796004 $209 $443 forward 7 unknown #
vertex $-1 $212 $444 #
ellipse-curve $-1 -28.89906739695865 -22.628873038846791 8.0044191193995342 0 -0.70710678939079041 0.70710677298230451 1 0 0 1 I I #
coedge $-1 $319 $319 $-1 $445 reversed $215 $-1 #
edge $-1 $446 0 $446 6.2831853071796004 $216 $447 forward 7 unknown #
vertex $-1 $219 $448 #
ellipse-curve $-1 -25.053841140113605 -22.628873038846791 8.0044191193995342 0 -0.70710678939079041 0.70710677298230451 1 0 0 1 I I #
face $-1 $-1 $235 $33 $-1 $449 reversed single #
loop $-1 $-1 $339 $220 #
plane-surface $-1 0 28.363390187524207 0 0 -1 0 0 0 -1 forward_v I I I I #
coedge $-1 $450 $337 $340 $451 forward $221 $-1 #
coedge $-1 $343 $223 $224 $331 reversed $139 $-1 #
coedge $-1 $337 $450 $223 $329 reversed $221 $-1 #
edge $-1 $344 -13.738936401147013 $452 13.738936401147013 $328 $453 forward 7 unknown #
coedge $-1 $225 $224 $450 $454 forward $89 $-1 #
edge $-1 $335 -44.889065218054753 $452 44.889065218054753 $327 $455 forward 7 unknown #
coedge $-1 $340 $339 $225 $333 reversed $324 $-1 #
edge $-1 $456 -44.889065218054753 $334 44.889065218054753 $332 $457 forward 7 unknown #
vertex $-1 $227 $458 #
vertex $-1 $346 $459 #
straight-curve $-1 44.889065218054753 0 -13.738936401147013 0 -1 0 I I #
coedge $-1 $326 $328 $228 $338 reversed $221 $-1 #
edge $-1 $341 -28.363390187524207 $344 28.363390187524207 $337 $460 forward 7 unknown #
coedge $-1 $332 $229 $234 $347 forward $324 $-1 #
coedge $-1 $229 $332 $326 $451 reversed $324 $-1 #
vertex $-1 $230 $461 #
straight-curve $-1 0 28.363390187524207 13.738936401147013 -1 0 0 I I #
coedge $-1 $231 $327 $233 $346 reversed $139 $-1 #
vertex $-1 $338 $462 #
straight-curve $-1 0 -28.363390187524207 13.738936401147013 1 0 0 I I #
edge $-1 $236 -13.738936401147013 $335 13.738936401147013 $233 $463 forward 7 unknown #
edge $-1 $237 -13.738936401147013 $334 13.738936401147013 $234 $464 forward 7 unknown #
point $-1 44.889065218054753 -28.363390187524207 13.738936401147013 #
point $-1 44.889065218054753 28.363390187524207 13.738936401147013 #
face $-1 $-1 $364 $34 $-1 $465 reversed single #
loop $-1 $-1 $360 $239 #
plane-surface $-1 0 0 13.738936401147013 0 0 1 1 0 0 forward_v I I I I #
coedge $-1 $466 $467 $354 $468 forward $240 $-1 #
coedge $-1 $243 $242 $353 $468 reversed $93 $-1 #
edge $-1 $469 -6.7132568249330333 $251 6.7132568249330333 $242 $470 forward 7 unknown #
coedge $-1 $471 $360 $243 $357 forward $351 $-1 #
edge $-1 $358 44.889065218054753 $472 58.31557886792082 $243 $473 forward 7 unknown #
vertex $-1 $357 $474 #
straight-curve $-1 -44.889065218054753 28.363390187524207 0 0 0 -1 I I #
coedge $-1 $356 $475 $245 $361 forward $351 $-1 #
edge $-1 $365 -28.363390187524207 $358 28.363390187524207 $360 $476 forward 7 unknown #
coedge $-1 $477 $246 $475 $478 reversed $364 $-1 #
coedge $-1 $246 $477 $248 $368 reversed $364 $-1 #
loop $-1 $-1 $246 $350 #
vertex $-1 $247 $479 #
straight-curve $-1 -44.889065218054753 -28.363390187524207 0 0 0 1 I I #
coedge $-1 $249 $248 $466 $480 forward $147 $-1 #
edge $-1 $250 -6.7132568249330333 $481 6.7132568249330333 $363 $482 forward 7 unknown #
point $-1 -44.889065218054753 -28.363390187524207 9.872478436440538 #
point $-1 -44.889065218054753 28.363390187524207 9.872478436440538 #
loop $-1 $-1 $261 $253 #
plane-surface $-1 0 28.363390187524207 0 0 -1 0 0 0 -1 forward_v I I I I #
coedge $-1 $374 $256 $258 $378 reversed $155 $-1 #
coedge $-1 $256 $373 $483 $484 reversed $155 $-1 #
coedge $-1 $264 $259 $256 $376 forward $254 $-1 #
edge $-1 $379 2.7182876572380934 $485 11.668313611297553 $375 $486 forward 7 unknown #
coedge $-1 $258 $257 $382 $487 reversed $97 $-1 #
edge $-1 $488 -56.726780375048421 $379 -45.80081605253794 $373 $489 forward 7 unknown #
vertex $-1 $260 $490 #
straight-curve $-1 -11.749653261938102 19.41336423346474 13.738936401147019 1 0 0 I I #
coedge $-1 $483 $261 $264 $386 reversed $371 $-1 #
coedge $-1 $261 $483 $377 $487 forward $371 $-1 #
vertex $-1 $262 $491 #
straight-curve $-1 -31.46255156818868 28.363390187524207 56.77557210379247 0 0 1 I I #
straight-curve $-1 -31.46255156818868 -18.104467629007438 40.009205593100191 0 0.81915203911291934 -0.57357644374324357 I I #
edge $-1 $485 15.536061479563728 $265 31.46255156818868 $381 $492 forward 7 unknown #
point $-1 -31.46255156818868 28.363390187524207 13.738936401147013 #
point $-1 -31.46255156818868 19.413364233464748 13.738936401147015 #
edge $-1 $493 1 $493 0 $268 $-1 forward 7 unknown #
vertex $-1 $269 $494 #
ellipse-curve $-1 -26.912125828581551 22.79933116846243 9.0501796165555728 0 0.57357644374324357 0.81915203911291934 0.5 0 0 1 I I #
point $-1 -26.412125828581551 23.888377210494472 10.605498520861449 #
edge $-1 $495 1 $495 0 $272 $-1 forward 7 unknown #
vertex $-1 $273 $496 #
ellipse-curve $-1 -20.086487219170856 22.79933116846243 9.0501796165555728 0 0.57357644374324357 0.81915203911291934 0.5 0 0 1 I I #
point $-1 -19.586487219170856 23.888377210494472 10.605498520861449 #
loop $-1 $-1 $284 $276 #
plane-surface $-1 0 28.363390187524207 0 0 -1 0 0 0 -1 forward_v I I I I #
coedge $-1 $400 $279 $281 $404 reversed $177 $-1 #
coedge $-1 $279 $399 $497 $498 reversed $177 $-1 #
coedge $-1 $287 $282 $279 $402 forward $277 $-1 #
edge $-1 $405 2.7182876572380934 $499 11.668313611297553 $401 $500 forward 7 unknown #
coedge $-1 $281 $280 $408 $501 reversed $111 $-1 #
edge $-1 $502 -56.726780375048421 $405 -45.80081605253794 $399 $503 forward 7 unknown #
vertex $-1 $283 $504 #
straight-curve $-1 7.3382509346227565 19.41336423346474 13.738936401147019 1 0 0 I I #
coedge $-1 $497 $284 $287 $412 reversed $397 $-1 #
coedge $-1 $284 $497 $403 $501 forward $397 $-1 #
vertex $-1 $285 $505 #
straight-curve $-1 6.713256824933036 28.363390187524207 56.77557210379247 0 0 1 I I #
straight-curve $-1 6.713256824933036 -18.104467629007438 40.009205593100191 0 0.81915203911291934 -0.57357644374324357 I I #
edge $-1 $499 -22.639746913557989 $288 -6.713256824933036 $407 $506 forward 7 unknown #
point $-1 6.713256824933036 28.363390187524207 13.738936401147013 #
point $-1 6.713256824933036 19.413364233464748 13.738936401147015 #
edge $-1 $507 1 $507 0 $291 $-1 forward 7 unknown #
vertex $-1 $292 $508 #
ellipse-curve $-1 11.263682564540169 22.79933116846243 9.0501796165555728 0 0.57357644374324357 0.81915203911291934 0.5 0 0 1 I I #
point $-1 11.763682564540169 23.888377210494472 10.605498520861449 #
edge $-1 $509 1 $509 0 $295 $-1 forward 7 unknown #
vertex $-1 $296 $510 #
ellipse-curve $-1 18.089321173950864 22.79933116846243 9.0501796165555728 0 0.57357644374324357 0.81915203911291934 0.5 0 0 1 I I #
point $-1 18.589321173950864 23.888377210494472 10.605498520861449 #
plane-surface $-1 0 0 13.738936401147013 0 0 1 1 0 0 forward_v I I I I #
coedge $-1 $434 $433 $426 $511 forward $300 $-1 #
coedge $-1 $426 $302 $304 $430 reversed $199 $-1 #
coedge $-1 $302 $425 $424 $511 reversed $199 $-1 #
coedge $-1 $310 $305 $302 $428 forward $311 $-1 #
edge $-1 $431 -29.028701988685228 $512 -17.5596676913304 $427 $513 forward 7 unknown #
coedge $-1 $304 $303 $434 $514 reversed $125 $-1 #
edge $-1 $515 1.5072887603364246e-014 $431 16.219664038830889 $425 $516 forward 7 unknown #
vertex $-1 $306 $517 #
straight-curve $-1 -13.488227134268064 -16.894355890169372 13.738936401147013 -1 0 0 I I #
coedge $-1 $424 $307 $310 $438 reversed $300 $-1 #
coedge $-1 $307 $424 $429 $514 forward $300 $-1 #
vertex $-1 $308 $518 #
straight-curve $-1 -22.490356968883574 -28.363390187524207 32.876312967356924 0 0 1 I I #
straight-curve $-1 -22.490356968883574 -28.363390187524217 2.2699018376520428 0 -0.70710677298230451 -0.70710678939079041 I I #
edge $-1 $512 -31.46255156818868 $312 -22.490356968883574 $433 $519 forward 7 unknown #
point $-1 -22.490356968883574 -28.363390187524207 13.738936401147013 #
point $-1 -22.490356968883574 -16.894355890169379 13.738936401147011 #
edge $-1 $520 1 $520 0 $315 $-1 forward 7 unknown #
vertex $-1 $316 $521 #
ellipse-curve $-1 -28.89906739695865 -21.648759627165795 7.0243057304621717 0 -0.70710678939079041 0.70710677298230451 1 0 0 1 I I #
point $-1 -27.89906739695865 -22.62887303884678 8.0044191193995253 #
edge $-1 $522 1 $522 0 $319 $-1 forward 7 unknown #
vertex $-1 $320 $523 #
ellipse-curve $-1 -25.053841140113605 -21.648759627165795 7.0243057304621717 0 -0.70710678939079041 0.70710677298230451 1 0 0 1 I I #
point $-1 -24.053841140113605 -22.62887303884678 8.0044191193995253 #
plane-surface $-1 44.889065218054753 0 0 -1 0 0 0 0 1 forward_v I I I I #
coedge $-1 $328 $326 $330 $454 reversed $221 $-1 #
edge $-1 $341 -13.738936401147013 $456 13.738936401147013 $340 $524 forward 7 unknown #
vertex $-1 $454 $525 #
straight-curve $-1 -44.889065218054753 -28.363390187524207 0 0 0 -1 I I #
edge $-1 $452 -28.363390187524207 $456 28.363390187524207 $450 $526 forward 7 unknown #
straight-curve $-1 0 -28.363390187524207 -13.738936401147013 -1 0 0 I I #
vertex $-1 $333 $527 #
straight-curve $-1 0 28.363390187524207 -13.738936401147013 1 0 0 I I #
point $-1 44.889065218054753 28.363390187524207 -13.738936401147013 #
point $-1 44.889065218054753 -28.363390187524207 -13.738936401147013 #
straight-curve $-1 -44.889065218054753 0 13.738936401147013 0 -1 0 I I #
point $-1 -44.889065218054753 28.363390187524207 13.738936401147013 #
point $-1 -44.889065218054753 -28.363390187524207 13.738936401147013 #
straight-curve $-1 44.889065218054753 -28.363390187524207 0 0 0 -1 I I #
straight-curve $-1 44.889065218054753 28.363390187524207 0 0 0 -1 I I #
plane-surface $-1 0 -28.363390187524207 0 0 1 0 0 0 1 forward_v I I I I #
coedge $-1 $528 $353 $367 $480 reversed $240 $-1 #
coedge $-1 $353 $528 $471 $529 reversed $240 $-1 #
edge $-1 $472 -1.9332289823532367 $469 1.9332289823532367 $354 $530 forward 7 unknown #
vertex $-1 $355 $531 #
straight-curve $-1 -51.602322042987787 28.363390187524207 9.872478436440538 1 0 0 I I #
coedge $-1 $475 $356 $467 $529 forward $351 $-1 #
vertex $-1 $357 $532 #
straight-curve $-1 0 28.363390187524207 13.738936401147013 -1 0 0 I I #
point $-1 -44.889065218054753 28.363390187524207 13.738936401147013 #
coedge $-1 $360 $471 $362 $478 forward $351 $-1 #
straight-curve $-1 -44.889065218054753 0 13.738936401147013 0 1 0 I I #
coedge $-1 $363 $362 $528 $533 forward $364 $-1 #
edge $-1 $534 -58.31557886792082 $365 -44.889065218054753 $362 $535 forward 7 unknown #
point $-1 -44.889065218054753 -28.363390187524207 13.738936401147013 #
edge $-1 $481 -28.363390187524207 $469 28.363390187524207 $466 $536 forward 7 unknown #
vertex $-1 $480 $537 #
straight-curve $-1 -51.602322042987787 -28.363390187524207 9.872478436440538 -1 0 0 I I #
coedge $-1 $382 $381 $374 $484 forward $371 $-1 #
edge $-1 $485 43.036635702645455 $488 49.303511463216573 $483 $538 forward 7 unknown #
vertex $-1 $386 $539 #
straight-curve $-1 -15.536061479563728 16.695076576226654 13.738936401147015 0 1 0 I I #
edge $-1 $488 3.7864082176256257 $383 19.71289830625058 $382 $540 forward 7 unknown #
vertex $-1 $487 $541 #
straight-curve $-1 -15.536061479563728 -18.104467629007438 40.009205593100191 0 -0.81915203911291934 0.57357644374324357 I I #
point $-1 -15.536061479563728 19.413364233464748 13.738936401147015 #
point $-1 -31.46255156818868 28.36339018752421 7.4720606405758971 #
straight-curve $-1 0 28.363390187524207 13.738936401147013 -1 0 0 I I #
vertex $-1 $389 $542 #
point $-1 -26.412125828581551 22.79933116846243 9.0501796165555728 #
vertex $-1 $393 $543 #
point $-1 -19.586487219170856 22.79933116846243 9.0501796165555728 #
coedge $-1 $408 $407 $400 $498 forward $397 $-1 #
edge $-1 $499 43.036635702645455 $502 49.303511463216573 $497 $544 forward 7 unknown #
vertex $-1 $412 $545 #
straight-curve $-1 22.639746913557989 16.695076576226654 13.738936401147015 0 1 0 I I #
edge $-1 $502 -15.301495978935233 $409 0.62499410968972047 $408 $546 forward 7 unknown #
vertex $-1 $501 $547 #
straight-curve $-1 22.639746913557989 -18.104467629007438 40.009205593100191 0 -0.81915203911291934 0.57357644374324357 I I #
point $-1 22.639746913557989 19.413364233464748 13.738936401147015 #
point $-1 6.713256824933036 28.36339018752421 7.4720606405758971 #
straight-curve $-1 0 28.363390187524207 13.738936401147013 -1 0 0 I I #
vertex $-1 $415 $548 #
point $-1 11.763682564540169 22.79933116846243 9.0501796165555728 #
vertex $-1 $419 $549 #
point $-1 18.589321173950864 22.79933116846243 9.0501796165555728 #
edge $-1 $512 19.137376566209909 $515 30.60641112970487 $424 $550 forward 7 unknown #
vertex $-1 $438 $551 #
straight-curve $-1 -31.46255156818868 -45.923057878854607 13.738936401147015 0 -1 0 I I #
edge $-1 $515 -17.974324433920614 $435 -9.002129834615511 $434 $552 forward 7 unknown #
vertex $-1 $514 $553 #
straight-curve $-1 -31.46255156818868 -28.363390187524217 2.2699018376520428 0 0.70710677298230451 0.70710678939079041 I I #
point $-1 -31.46255156818868 -16.894355890169379 13.738936401147011 #
point $-1 -22.490356968883574 -28.363390187524207 2.2699018376520534 #
straight-curve $-1 0 -28.363390187524207 13.738936401147013 1 0 0 I I #
vertex $-1 $441 $554 #
point $-1 -27.89906739695865 -21.648759627165795 7.0243057304621717 #
vertex $-1 $445 $555 #
point $-1 -24.053841140113605 -21.648759627165795 7.0243057304621717 #
straight-curve $-1 -44.889065218054753 28.363390187524207 0 0 0 -1 I I #
point $-1 -44.889065218054753 -28.363390187524207 -13.738936401147013 #
straight-curve $-1 -44.889065218054753 0 -13.738936401147013 0 1 0 I I #
point $-1 -44.889065218054753 28.363390187524207 -13.738936401147013 #
coedge $-1 $467 $466 $477 $533 reversed $240 $-1 #
edge $-1 $472 -28.363390187524207 $534 28.363390187524207 $467 $556 forward 7 unknown #
straight-curve $-1 -58.31557886792082 28.363390187524207 11.805707418793775 0 0 -1 I I #
point $-1 -58.31557886792082 28.363390187524207 9.872478436440538 #
point $-1 -58.31557886792082 28.363390187524207 13.738936401147011 #
edge $-1 $534 -1.9332289823532367 $481 1.9332289823532367 $528 $557 forward 7 unknown #
vertex $-1 $529 $558 #
straight-curve $-1 0 -28.363390187524207 13.738936401147013 1 0 0 I I #
straight-curve $-1 -58.31557886792082 0 9.872478436440538 0 1 0 I I #
point $-1 -58.31557886792082 -28.363390187524207 9.872478436440538 #
straight-curve $-1 -15.536061479563728 28.363390187524207 56.77557210379247 0 0 -1 I I #
point $-1 -15.536061479563728 28.363390187524207 13.738936401147013 #
straight-curve $-1 -11.749653261938102 28.36339018752421 7.4720606405758989 -1 0 0 I I #
point $-1 -15.536061479563728 28.36339018752421 7.4720606405758971 #
point $-1 -26.912125828581551 22.512542946590806 8.640603596999112 #
point $-1 -20.086487219170856 22.512542946590806 8.640603596999112 #
straight-curve $-1 22.639746913557989 28.363390187524207 56.77557210379247 0 0 -1 I I #
point $-1 22.639746913557989 28.363390187524207 13.738936401147013 #
straight-curve $-1 7.3382509346227565 28.36339018752421 7.4720606405758989 -1 0 0 I I #
point $-1 22.639746913557989 28.36339018752421 7.4720606405758971 #
point $-1 11.263682564540169 22.512542946590806 8.640603596999112 #
point $-1 18.089321173950864 22.512542946590806 8.640603596999112 #
straight-curve $-1 -31.46255156818868 -28.363390187524207 32.876312967356924 0 0 -1 I I #
point $-1 -31.46255156818868 -28.363390187524207 13.738936401147013 #
straight-curve $-1 -13.488227134268064 -28.363390187524207 2.2699018376520526 1 0 0 I I #
point $-1 -31.46255156818868 -28.363390187524207 2.2699018376520534 #
point $-1 -28.89906739695865 -20.941652837775003 6.3171989574798664 #
point $-1 -25.053841140113605 -20.941652837775003 6.3171989574798664 #
straight-curve $-1 -58.31557886792082 0 13.738936401147011 0 -1 0 I I #
straight-curve $-1 -58.31557886792082 -28.363390187524207 11.805707418793775 0 0 -1 I I #
point $-1 -58.31557886792082 -28.363390187524207 13.738936401147011 #
End-of-ACIS-data 