500 0 6 0           
7 Unknown 11 ACIS 5.0 NT 24 Thu Mar 25 17:55:49 1999 
-1 9.9999999999999995e-007 1e-010 
body $-1 $6 $-1 $7 #
body $-1 $8 $-1 $9 #
body $-1 $10 $-1 $11 #
body $-1 $12 $-1 $13 #
body $-1 $14 $-1 $15 #
body $-1 $16 $-1 $17 #
lump $-1 $-1 $18 $0 #
transform $-1 1 0 0 0 1 0 0 0 1 58.184148686178169 37.153900370803477 12.037287708256773 1 rotate no_reflect no_shear #
lump $-1 $-1 $19 $1 #
transform $-1 1 0 0 0 1 0 0 0 1 58.184148686178169 37.153900370803477 12.037287708256773 1 rotate no_reflect no_shear #
lump $-1 $-1 $20 $2 #
transform $-1 1 0 0 0 1 0 0 0 1 58.184148686178169 37.153900370803477 12.037287708256773 1 rotate no_reflect no_shear #
lump $-1 $-1 $21 $3 #
transform $-1 1 0 0 0 1 0 0 0 1 58.184148686178169 37.153900370803477 12.037287708256773 1 rotate no_reflect no_shear #
lump $-1 $-1 $22 $4 #
transform $-1 1 0 0 0 1 0 0 0 1 58.184148686178169 37.153900370803477 12.037287708256773 1 rotate no_reflect no_shear #
lump $-1 $-1 $23 $5 #
transform $-1 1 0 0 0 1 0 0 0 1 58.184148686178169 37.153900370803477 12.037287708256773 1 rotate no_reflect no_shear #
shell $-1 $-1 $-1 $24 $-1 $6 #
shell $-1 $-1 $-1 $25 $-1 $8 #
shell $-1 $-1 $-1 $26 $-1 $10 #
shell $-1 $-1 $-1 $27 $-1 $12 #
shell $-1 $-1 $-1 $28 $-1 $14 #
shell $-1 $-1 $-1 $29 $-1 $16 #
face $-1 $30 $31 $18 $-1 $32 forward single #
face $-1 $33 $34 $19 $-1 $35 reversed single #
face $-1 $36 $37 $20 $-1 $38 reversed single #
face $-1 $39 $40 $21 $-1 $41 reversed single #
face $-1 $42 $43 $22 $-1 $44 forward single #
face $-1 $45 $46 $23 $-1 $47 forward single #
face $-1 $48 $49 $18 $-1 $50 reversed single #
loop $-1 $-1 $51 $24 #
plane-surface $-1 0 0 12.037287708256773 0 0 1 1 0 0 forward_v I I I I #
face $-1 $52 $53 $19 $-1 $54 reversed single #
loop $-1 $-1 $55 $25 #
plane-surface $-1 -54.110860130339944 -30.331803287916635 0 0 -1 0 0 0 -1 forward_v I I I I #
face $-1 $56 $57 $20 $-1 $58 reversed single #
loop $-1 $-1 $59 $26 #
plane-surface $-1 50.037571574501712 -33.742851829360056 0 1 0 0 0 0 -1 forward_v I I I I #
face $-1 $60 $61 $21 $-1 $62 reversed single #
loop $-1 $-1 $63 $27 #
plane-surface $-1 38.579208319164472 -115.01949068899603 89.801390423838967 -1 0 0 0 -0.66913061440640931 0.74314481823134659 forward_v I I I I #
face $-1 $64 $65 $22 $-1 $66 forward single #
loop $-1 $67 $68 $28 #
cone-surface $-1 22.787755709773243 -31.094136298059436 6.3244697614987793 0 0.66913061440640931 -0.74314481823134659 1 0 0 1 I I 0 1 1 forward I I I I #
face $-1 $69 $70 $23 $-1 $71 forward single #
loop $-1 $72 $73 $29 #
cone-surface $-1 32.262627275407986 -31.094136298059436 6.3244697614987793 0 0.66913061440640931 -0.74314481823134659 1 0 0 1 I I 0 1 1 forward I I I I #
face $-1 $74 $75 $18 $-1 $76 reversed single #
loop $-1 $-1 $77 $30 #
plane-surface $-1 0 0 -12.037287708256773 0 0 1 1 0 0 forward_v I I I I #
coedge $-1 $78 $79 $80 $81 forward $31 $-1 #
face $-1 $82 $83 $19 $-1 $84 forward single #
loop $-1 $-1 $85 $33 #
plane-surface $-1 -50.037571574501719 -33.742851829360056 0 -1 0 0 0 0 1 forward_v I I I I #
coedge $-1 $86 $87 $88 $89 forward $34 $-1 #
face $-1 $90 $91 $20 $-1 $92 forward single #
loop $-1 $-1 $93 $36 #
plane-surface $-1 54.110860130339937 -30.331803287916635 0 0 -1 0 0 0 -1 forward_v I I I I #
coedge $-1 $94 $95 $96 $97 forward $37 $-1 #
face $-1 $98 $99 $21 $-1 $100 reversed single #
loop $-1 $-1 $101 $39 #
plane-surface $-1 27.525191492590615 -37.153900370803484 3.3228932251679311 0 -0.66913061440640931 0.74314481823134659 1 0 0 forward_v I I I I #
coedge $-1 $102 $103 $104 $105 reversed $40 $-1 #
face $-1 $-1 $106 $22 $-1 $107 forward single #
loop $-1 $108 $109 $42 #
cone-surface $-1 22.787755709773243 -29.538964598766412 4.597276647169533 0 0.66913061440640931 -0.74314481823134659 0.5 0 0 1 I I -0.70710678118654746 0.70710678118654746 0.5 forward I I I I #
loop $-1 $-1 $110 $28 #
coedge $-1 $68 $68 $111 $112 reversed $43 $-1 #
face $-1 $-1 $113 $23 $-1 $114 forward single #
loop $-1 $115 $116 $45 #
cone-surface $-1 32.262627275407986 -29.538964598766412 4.597276647169533 0 0.66913061440640931 -0.74314481823134659 0.5 0 0 1 I I -0.70710678118654746 0.70710678118654746 0.5 forward I I I I #
loop $-1 $-1 $117 $29 #
coedge $-1 $73 $73 $118 $119 reversed $46 $-1 #
face $-1 $120 $121 $18 $-1 $122 reversed single #
loop $-1 $-1 $123 $48 #
plane-surface $-1 0 -37.153900370803477 0 0 1 0 0 0 1 forward_v I I I I #
coedge $-1 $124 $125 $126 $127 forward $49 $-1 #
coedge $-1 $128 $51 $129 $130 forward $31 $-1 #
coedge $-1 $51 $128 $131 $132 forward $31 $-1 #
coedge $-1 $133 $134 $51 $81 reversed $135 $-1 #
edge $-1 $136 -37.153900370803477 $137 37.153900370803477 $80 $138 forward 7 unknown #
face $-1 $139 $140 $19 $-1 $141 reversed single #
loop $-1 $-1 $142 $52 #
plane-surface $-1 0 0 12.037287708256773 0 0 1 1 0 0 forward_v I I I I #
coedge $-1 $143 $144 $145 $146 reversed $53 $-1 #
coedge $-1 $147 $55 $148 $149 reversed $34 $-1 #
coedge $-1 $55 $147 $150 $151 reversed $34 $-1 #
coedge $-1 $144 $143 $55 $89 reversed $53 $-1 #
edge $-1 $152 -12.037287708256773 $153 12.037287708256773 $88 $154 forward 7 unknown #
face $-1 $155 $156 $20 $-1 $157 reversed single #
loop $-1 $-1 $158 $56 #
plane-surface $-1 0 0 12.037287708256773 0 0 1 1 0 0 forward_v I I I I #
coedge $-1 $159 $160 $161 $162 reversed $57 $-1 #
coedge $-1 $163 $59 $164 $165 reversed $37 $-1 #
coedge $-1 $59 $163 $166 $167 reversed $37 $-1 #
coedge $-1 $160 $159 $59 $97 reversed $57 $-1 #
edge $-1 $168 -12.037287708256773 $169 12.037287708256773 $96 $170 forward 7 unknown #
face $-1 $171 $172 $21 $-1 $173 forward single #
loop $-1 $-1 $174 $60 #
plane-surface $-1 16.471174666016758 -115.01949068899603 89.801390423838967 1 0 0 0 0.66913061440640931 -0.74314481823134659 forward_v I I I I #
coedge $-1 $175 $176 $177 $178 reversed $61 $-1 #
coedge $-1 $103 $63 $179 $180 reversed $40 $-1 #
coedge $-1 $63 $102 $175 $181 reversed $40 $-1 #
coedge $-1 $177 $182 $63 $105 forward $172 $-1 #
edge $-1 $183 20.355844973694538 $184 30.034160335002973 $104 $185 forward 7 unknown #
loop $-1 $-1 $111 $64 #
plane-surface $-1 27.525191492590615 -37.153900370803484 3.3228932251679311 0 -0.66913061440640931 0.74314481823134659 1 0 0 forward_v I I I I #
loop $-1 $-1 $186 $42 #
coedge $-1 $109 $109 $110 $187 reversed $65 $-1 #
coedge $-1 $110 $110 $109 $187 forward $67 $-1 #
coedge $-1 $111 $111 $68 $112 forward $106 $-1 #
edge $-1 $188 2.9031320354146e-015 $188 6.2831853071796031 $111 $189 forward 7 unknown #
loop $-1 $-1 $118 $69 #
plane-surface $-1 27.525191492590615 -37.153900370803484 3.3228932251679311 0 -0.66913061440640931 0.74314481823134659 1 0 0 forward_v I I I I #
loop $-1 $-1 $190 $45 #
coedge $-1 $116 $116 $117 $191 reversed $70 $-1 #
coedge $-1 $117 $117 $116 $191 forward $72 $-1 #
coedge $-1 $118 $118 $73 $119 forward $113 $-1 #
edge $-1 $192 2.9031320354146e-015 $192 6.2831853071796031 $118 $193 forward 7 unknown #
face $-1 $194 $195 $18 $-1 $196 reversed single #
loop $-1 $-1 $197 $74 #
plane-surface $-1 -58.184148686178169 0 0 1 0 0 0 0 -1 forward_v I I I I #
coedge $-1 $198 $131 $199 $200 forward $75 $-1 #
coedge $-1 $201 $77 $198 $202 forward $49 $-1 #
coedge $-1 $77 $201 $203 $204 forward $49 $-1 #
coedge $-1 $134 $133 $77 $127 reversed $135 $-1 #
edge $-1 $205 -37.153900370803477 $206 37.153900370803477 $126 $207 forward 7 unknown #
coedge $-1 $79 $78 $208 $209 forward $31 $-1 #
coedge $-1 $210 $211 $78 $130 reversed $195 $-1 #
edge $-1 $137 -58.184148686178169 $212 58.184148686178169 $129 $213 forward 7 unknown #
coedge $-1 $123 $214 $79 $132 reversed $75 $-1 #
edge $-1 $215 -58.184148686178169 $136 58.184148686178169 $131 $216 forward 7 unknown #
coedge $-1 $126 $80 $214 $217 forward $135 $-1 #
coedge $-1 $80 $126 $210 $218 reversed $135 $-1 #
loop $-1 $-1 $133 $194 #
vertex $-1 $81 $219 #
vertex $-1 $81 $220 #
straight-curve $-1 58.184148686178169 0 12.037287708256773 0 1 0 I I #
face $-1 $221 $222 $19 $-1 $223 reversed single #
loop $-1 $-1 $224 $82 #
plane-surface $-1 -58.184148686178169 0 0 1 0 0 0 0 -1 forward_v I I I I #
coedge $-1 $150 $225 $144 $226 forward $83 $-1 #
coedge $-1 $88 $85 $227 $228 reversed $53 $-1 #
coedge $-1 $85 $88 $142 $226 reversed $53 $-1 #
coedge $-1 $229 $230 $85 $146 forward $231 $-1 #
edge $-1 $232 -12.037287708256773 $233 12.037287708256773 $145 $234 forward 7 unknown #
coedge $-1 $87 $86 $224 $235 reversed $34 $-1 #
coedge $-1 $227 $236 $86 $149 forward $222 $-1 #
edge $-1 $237 -31.128718621008197 $153 -22.982141509331747 $148 $238 forward 7 unknown #
coedge $-1 $239 $142 $87 $151 forward $83 $-1 #
edge $-1 $152 22.982141509331747 $240 31.128718621008197 $150 $241 forward 7 unknown #
vertex $-1 $151 $242 #
vertex $-1 $149 $243 #
straight-curve $-1 -50.037571574501719 -30.331803287916635 0 0 0 -1 I I #
face $-1 $244 $245 $20 $-1 $246 reversed single #
loop $-1 $-1 $247 $90 #
plane-surface $-1 0 -37.153900370803477 0 0 1 0 0 0 1 forward_v I I I I #
coedge $-1 $166 $248 $160 $249 forward $91 $-1 #
coedge $-1 $96 $93 $250 $251 reversed $57 $-1 #
coedge $-1 $93 $96 $158 $249 reversed $57 $-1 #
coedge $-1 $252 $253 $93 $162 forward $254 $-1 #
edge $-1 $255 -12.037287708256773 $256 12.037287708256773 $161 $257 forward 7 unknown #
coedge $-1 $95 $94 $247 $258 reversed $37 $-1 #
coedge $-1 $250 $259 $94 $165 forward $245 $-1 #
edge $-1 $260 -20.282474456123449 $169 -13.460377373236607 $164 $261 forward 7 unknown #
coedge $-1 $262 $158 $95 $167 forward $91 $-1 #
edge $-1 $168 13.460377373236607 $263 20.282474456123449 $166 $264 forward 7 unknown #
vertex $-1 $167 $265 #
vertex $-1 $165 $266 #
straight-curve $-1 50.037571574501712 -30.331803287916635 0 0 0 -1 I I #
face $-1 $-1 $267 $21 $-1 $268 reversed single #
loop $-1 $-1 $104 $98 #
plane-surface $-1 0 0 12.037287708256773 0 0 1 1 0 0 forward_v I I I I #
coedge $-1 $269 $270 $271 $272 reversed $99 $-1 #
coedge $-1 $273 $101 $103 $181 forward $61 $-1 #
coedge $-1 $101 $273 $269 $274 forward $61 $-1 #
coedge $-1 $271 $104 $101 $178 forward $172 $-1 #
edge $-1 $184 -24.816612572869165 $275 -2.7085789197214503 $177 $276 forward 7 unknown #
coedge $-1 $277 $278 $102 $180 forward $267 $-1 #
edge $-1 $279 -41.577801986751545 $183 -32.863407503662714 $179 $280 forward 7 unknown #
edge $-1 $184 -13.023458044614273 $279 -9.4405131238556439e-015 $103 $281 forward 7 unknown #
coedge $-1 $104 $271 $277 $282 forward $172 $-1 #
vertex $-1 $180 $283 #
vertex $-1 $105 $284 #
straight-curve $-1 38.579208319164472 -57.509745344498015 12.03728770825677 0 1 0 I I #
coedge $-1 $186 $186 $-1 $285 reversed $108 $-1 #
edge $-1 $286 0 $286 6.2831853071796004 $109 $287 forward 7 unknown #
vertex $-1 $112 $288 #
ellipse-curve $-1 22.787755709773243 -32.314742690149259 7.6800904667123566 0 -0.66913061440640931 0.74314481823134659 1 0 0 1 I I #
coedge $-1 $190 $190 $-1 $289 reversed $115 $-1 #
edge $-1 $290 0 $290 6.2831853071796004 $116 $291 forward 7 unknown #
vertex $-1 $119 $292 #
ellipse-curve $-1 32.262627275407986 -32.314742690149259 7.6800904667123566 0 -0.66913061440640931 0.74314481823134659 1 0 0 1 I I #
face $-1 $-1 $135 $18 $-1 $293 reversed single #
loop $-1 $-1 $210 $120 #
plane-surface $-1 0 37.153900370803477 0 0 -1 0 0 0 -1 forward_v I I I I #
coedge $-1 $294 $208 $211 $295 forward $121 $-1 #
coedge $-1 $214 $123 $124 $202 reversed $75 $-1 #
coedge $-1 $208 $294 $123 $200 reversed $121 $-1 #
edge $-1 $215 -12.037287708256773 $296 12.037287708256773 $199 $297 forward 7 unknown #
coedge $-1 $125 $124 $294 $298 forward $49 $-1 #
edge $-1 $206 -58.184148686178169 $296 58.184148686178169 $198 $299 forward 7 unknown #
coedge $-1 $211 $210 $125 $204 reversed $195 $-1 #
edge $-1 $300 -58.184148686178169 $205 58.184148686178169 $203 $301 forward 7 unknown #
vertex $-1 $127 $302 #
vertex $-1 $217 $303 #
straight-curve $-1 58.184148686178169 0 -12.037287708256773 0 -1 0 I I #
coedge $-1 $197 $199 $128 $209 reversed $121 $-1 #
edge $-1 $212 -37.153900370803477 $215 37.153900370803477 $208 $304 forward 7 unknown #
coedge $-1 $203 $129 $134 $218 forward $195 $-1 #
coedge $-1 $129 $203 $197 $295 reversed $195 $-1 #
vertex $-1 $130 $305 #
straight-curve $-1 0 37.153900370803477 12.037287708256773 -1 0 0 I I #
coedge $-1 $131 $198 $133 $217 reversed $75 $-1 #
vertex $-1 $209 $306 #
straight-curve $-1 0 -37.153900370803477 12.037287708256773 1 0 0 I I #
edge $-1 $136 -12.037287708256773 $206 12.037287708256773 $133 $307 forward 7 unknown #
edge $-1 $137 -12.037287708256773 $205 12.037287708256773 $134 $308 forward 7 unknown #
point $-1 58.184148686178169 -37.153900370803477 12.037287708256773 #
point $-1 58.184148686178169 37.153900370803477 12.037287708256773 #
face $-1 $-1 $231 $19 $-1 $309 reversed single #
loop $-1 $-1 $227 $139 #
plane-surface $-1 0 0 -12.037287708256773 0 0 1 1 0 0 forward_v I I I I #
coedge $-1 $310 $311 $147 $235 forward $140 $-1 #
coedge $-1 $142 $239 $229 $312 forward $83 $-1 #
edge $-1 $233 -20.282474456123449 $152 -13.460377373236607 $142 $313 forward 7 unknown #
coedge $-1 $314 $148 $143 $228 forward $222 $-1 #
edge $-1 $153 13.460377373236607 $232 20.282474456123449 $227 $315 forward 7 unknown #
coedge $-1 $316 $145 $225 $312 reversed $231 $-1 #
coedge $-1 $145 $316 $314 $317 reversed $231 $-1 #
loop $-1 $-1 $145 $221 #
vertex $-1 $317 $318 #
vertex $-1 $146 $319 #
straight-curve $-1 -50.037571574501719 -37.153900370803477 0 0 0 1 I I #
edge $-1 $240 -12.037287708256773 $237 12.037287708256773 $224 $320 forward 7 unknown #
coedge $-1 $148 $314 $310 $321 forward $222 $-1 #
vertex $-1 $149 $322 #
straight-curve $-1 -27.055430065169972 -30.331803287916635 -12.037287708256773 1 0 0 I I #
coedge $-1 $225 $150 $311 $323 forward $83 $-1 #
vertex $-1 $323 $324 #
straight-curve $-1 -27.055430065169972 -30.331803287916635 12.037287708256773 -1 0 0 I I #
point $-1 -50.037571574501719 -30.331803287916635 12.037287708256773 #
point $-1 -50.037571574501719 -30.331803287916635 -12.037287708256773 #
face $-1 $-1 $254 $20 $-1 $325 reversed single #
loop $-1 $-1 $250 $155 #
plane-surface $-1 0 0 -12.037287708256773 0 0 1 1 0 0 forward_v I I I I #
coedge $-1 $326 $327 $163 $258 forward $156 $-1 #
coedge $-1 $158 $262 $252 $328 forward $91 $-1 #
edge $-1 $256 -31.128718621008193 $168 -22.982141509331743 $158 $329 forward 7 unknown #
coedge $-1 $330 $164 $159 $251 forward $245 $-1 #
edge $-1 $169 22.982141509331743 $255 31.128718621008193 $250 $331 forward 7 unknown #
coedge $-1 $332 $161 $248 $328 reversed $254 $-1 #
coedge $-1 $161 $332 $330 $333 reversed $254 $-1 #
loop $-1 $-1 $161 $244 #
vertex $-1 $333 $334 #
vertex $-1 $162 $335 #
straight-curve $-1 58.184148686178169 -30.331803287916635 0 0 0 1 I I #
edge $-1 $263 -12.037287708256773 $260 12.037287708256773 $247 $336 forward 7 unknown #
coedge $-1 $164 $330 $326 $337 forward $245 $-1 #
vertex $-1 $165 $338 #
straight-curve $-1 50.037571574501712 -16.871425914680028 -12.037287708256773 0 1 0 I I #
coedge $-1 $248 $166 $327 $339 forward $91 $-1 #
vertex $-1 $339 $340 #
straight-curve $-1 50.037571574501712 -16.871425914680028 12.037287708256773 0 -1 0 I I #
point $-1 50.037571574501712 -30.331803287916635 12.037287708256773 #
point $-1 50.037571574501712 -30.331803287916635 -12.037287708256773 #
loop $-1 $-1 $179 $171 #
plane-surface $-1 0 -37.153900370803477 0 0 1 0 0 0 1 forward_v I I I I #
coedge $-1 $270 $174 $176 $274 reversed $99 $-1 #
coedge $-1 $174 $269 $341 $342 reversed $99 $-1 #
coedge $-1 $182 $177 $174 $272 forward $172 $-1 #
edge $-1 $275 -30.034160335002973 $343 -20.355844973694538 $271 $344 forward 7 unknown #
coedge $-1 $176 $175 $278 $345 reversed $61 $-1 #
edge $-1 $346 9.4405131238556439e-015 $275 13.023458044614273 $269 $347 forward 7 unknown #
vertex $-1 $178 $348 #
straight-curve $-1 13.762595746295307 -27.475585009495042 12.037287708256773 -1 0 0 I I #
coedge $-1 $341 $179 $182 $282 reversed $267 $-1 #
coedge $-1 $179 $341 $273 $345 forward $267 $-1 #
vertex $-1 $180 $349 #
straight-curve $-1 38.579208319164472 -37.153900370803477 44.900695211919484 0 0 1 I I #
straight-curve $-1 38.579208319164472 -37.153900370803484 3.3228932251679311 0 -0.74314481823134659 -0.66913061440640931 I I #
edge $-1 $343 16.471174666016758 $183 38.579208319164472 $277 $350 forward 7 unknown #
point $-1 38.579208319164472 -37.153900370803477 12.037287708256773 #
point $-1 38.579208319164472 -27.475585009495042 12.037287708256773 #
edge $-1 $351 1 $351 0 $186 $-1 forward 7 unknown #
vertex $-1 $187 $352 #
ellipse-curve $-1 22.787755709773243 -29.873529905969619 4.9688490562852063 0 -0.66913061440640931 0.74314481823134659 1 0 0 1 I I #
point $-1 23.787755709773243 -32.314742690149252 7.6800904667123531 #
edge $-1 $353 1 $353 0 $190 $-1 forward 7 unknown #
vertex $-1 $191 $354 #
ellipse-curve $-1 32.262627275407986 -29.873529905969619 4.9688490562852063 0 -0.66913061440640931 0.74314481823134659 1 0 0 1 I I #
point $-1 33.262627275407986 -32.314742690149252 7.6800904667123531 #
plane-surface $-1 58.184148686178169 0 0 -1 0 0 0 0 1 forward_v I I I I #
coedge $-1 $199 $197 $201 $298 reversed $121 $-1 #
edge $-1 $212 -12.037287708256773 $300 12.037287708256773 $211 $355 forward 7 unknown #
vertex $-1 $298 $356 #
straight-curve $-1 -58.184148686178169 -37.153900370803477 0 0 0 -1 I I #
edge $-1 $296 -37.153900370803477 $300 37.153900370803477 $294 $357 forward 7 unknown #
straight-curve $-1 0 -37.153900370803477 -12.037287708256773 -1 0 0 I I #
vertex $-1 $204 $358 #
straight-curve $-1 0 37.153900370803477 -12.037287708256773 1 0 0 I I #
point $-1 58.184148686178169 37.153900370803477 -12.037287708256773 #
point $-1 58.184148686178169 -37.153900370803477 -12.037287708256773 #
straight-curve $-1 -58.184148686178169 0 12.037287708256773 0 -1 0 I I #
point $-1 -58.184148686178169 37.153900370803477 12.037287708256773 #
point $-1 -58.184148686178169 -37.153900370803477 12.037287708256773 #
straight-curve $-1 58.184148686178169 -37.153900370803477 0 0 0 -1 I I #
straight-curve $-1 58.184148686178169 37.153900370803477 0 0 0 -1 I I #
plane-surface $-1 0 -37.153900370803477 0 0 1 0 0 0 1 forward_v I I I I #
coedge $-1 $359 $224 $236 $321 reversed $140 $-1 #
coedge $-1 $224 $359 $239 $323 reversed $140 $-1 #
edge $-1 $360 -58.184148686178169 $233 -50.037571574501719 $229 $361 forward 7 unknown #
straight-curve $-1 -50.037571574501719 -16.871425914680028 12.037287708256773 0 1 0 I I #
coedge $-1 $236 $227 $230 $317 forward $222 $-1 #
straight-curve $-1 -50.037571574501719 -16.871425914680028 -12.037287708256773 0 -1 0 I I #
coedge $-1 $230 $229 $359 $362 forward $231 $-1 #
edge $-1 $232 50.037571574501719 $363 58.184148686178169 $230 $364 forward 7 unknown #
point $-1 -50.037571574501719 -37.153900370803477 -12.037287708256773 #
point $-1 -50.037571574501719 -37.153900370803477 12.037287708256773 #
straight-curve $-1 -58.184148686178169 -30.331803287916635 0 0 0 -1 I I #
edge $-1 $363 -37.153900370803477 $237 -30.331803287916635 $310 $365 forward 7 unknown #
point $-1 -58.184148686178169 -30.331803287916635 -12.037287708256773 #
edge $-1 $240 30.331803287916635 $360 37.153900370803477 $311 $366 forward 7 unknown #
point $-1 -58.184148686178169 -30.331803287916635 12.037287708256773 #
plane-surface $-1 58.184148686178169 0 0 -1 0 0 0 0 1 forward_v I I I I #
coedge $-1 $367 $247 $259 $337 reversed $156 $-1 #
coedge $-1 $247 $367 $262 $339 reversed $156 $-1 #
edge $-1 $368 -37.153900370803477 $256 -30.331803287916635 $252 $369 forward 7 unknown #
straight-curve $-1 27.055430065169968 -30.331803287916635 12.037287708256773 -1 0 0 I I #
coedge $-1 $259 $250 $253 $333 forward $245 $-1 #
straight-curve $-1 27.055430065169968 -30.331803287916635 -12.037287708256773 1 0 0 I I #
coedge $-1 $253 $252 $367 $370 forward $254 $-1 #
edge $-1 $255 30.331803287916635 $371 37.153900370803477 $253 $372 forward 7 unknown #
point $-1 58.184148686178162 -30.331803287916635 -12.037287708256773 #
point $-1 58.184148686178162 -30.331803287916635 12.037287708256773 #
straight-curve $-1 50.037571574501712 -37.153900370803477 0 0 0 -1 I I #
edge $-1 $371 -58.184148686178169 $260 -50.037571574501712 $326 $373 forward 7 unknown #
point $-1 50.037571574501712 -37.153900370803477 -12.037287708256773 #
edge $-1 $263 50.037571574501712 $368 58.184148686178169 $327 $374 forward 7 unknown #
point $-1 50.037571574501712 -37.153900370803477 12.037287708256773 #
coedge $-1 $278 $277 $270 $342 forward $267 $-1 #
edge $-1 $343 32.863407503662714 $346 41.577801986751545 $341 $375 forward 7 unknown #
vertex $-1 $282 $376 #
straight-curve $-1 16.471174666016758 -57.509745344498015 12.03728770825677 0 -1 0 I I #
edge $-1 $346 2.7085789197214503 $279 24.816612572869165 $278 $377 forward 7 unknown #
vertex $-1 $345 $378 #
straight-curve $-1 16.471174666016758 -37.153900370803484 3.3228932251679311 0 0.74314481823134659 0.66913061440640931 I I #
point $-1 16.471174666016758 -27.475585009495042 12.037287708256773 #
point $-1 38.579208319164472 -37.153900370803477 3.3228932251679373 #
straight-curve $-1 0 -37.153900370803477 12.037287708256773 1 0 0 I I #
vertex $-1 $285 $379 #
point $-1 23.787755709773243 -29.873529905969619 4.9688490562852063 #
vertex $-1 $289 $380 #
point $-1 33.262627275407986 -29.873529905969619 4.9688490562852063 #
straight-curve $-1 -58.184148686178169 37.153900370803477 0 0 0 -1 I I #
point $-1 -58.184148686178169 -37.153900370803477 -12.037287708256773 #
straight-curve $-1 -58.184148686178169 0 -12.037287708256773 0 1 0 I I #
point $-1 -58.184148686178169 37.153900370803477 -12.037287708256773 #
coedge $-1 $311 $310 $316 $362 reversed $140 $-1 #
vertex $-1 $323 $381 #
straight-curve $-1 0 -37.153900370803477 12.037287708256773 1 0 0 I I #
edge $-1 $360 -12.037287708256773 $363 12.037287708256773 $359 $382 forward 7 unknown #
vertex $-1 $321 $383 #
straight-curve $-1 0 -37.153900370803477 -12.037287708256773 -1 0 0 I I #
straight-curve $-1 -58.184148686178169 0 -12.037287708256773 0 1 0 I I #
straight-curve $-1 -58.184148686178169 0 12.037287708256773 0 -1 0 I I #
coedge $-1 $327 $326 $332 $370 reversed $156 $-1 #
vertex $-1 $328 $384 #
straight-curve $-1 58.184148686178169 0 12.037287708256773 0 1 0 I I #
edge $-1 $368 -12.037287708256773 $371 12.037287708256773 $332 $385 forward 7 unknown #
vertex $-1 $370 $386 #
straight-curve $-1 58.184148686178169 0 -12.037287708256773 0 -1 0 I I #
straight-curve $-1 0 -37.153900370803477 -12.037287708256773 -1 0 0 I I #
straight-curve $-1 0 -37.153900370803477 12.037287708256773 1 0 0 I I #
straight-curve $-1 16.471174666016758 -37.153900370803477 44.900695211919484 0 0 -1 I I #
point $-1 16.471174666016758 -37.153900370803477 12.037287708256773 #
straight-curve $-1 13.762595746295307 -37.153900370803477 3.3228932251679426 1 0 0 I I #
point $-1 16.471174666016758 -37.153900370803477 3.3228932251679373 #
point $-1 22.787755709773243 -29.204399291563206 4.2257042380538596 #
point $-1 32.262627275407986 -29.204399291563206 4.2257042380538596 #
point $-1 -58.184148686178169 -37.153900370803477 12.037287708256773 #
straight-curve $-1 -58.184148686178169 -37.153900370803477 0 0 0 -1 I I #
point $-1 -58.184148686178169 -37.153900370803477 -12.037287708256773 #
point $-1 58.184148686178169 -37.153900370803477 12.037287708256773 #
straight-curve $-1 58.184148686178169 -37.153900370803477 0 0 0 -1 I I #
point $-1 58.184148686178169 -37.153900370803477 -12.037287708256773 #
End-of-ACIS-data 