500 0 8 0           
7 Unknown 11 ACIS 5.0 NT 24 Thu Mar 25 23:13:08 1999 
-1 9.9999999999999995e-007 1e-010 
body $-1 $8 $-1 $9 #
body $-1 $10 $-1 $11 #
body $-1 $12 $-1 $13 #
body $-1 $14 $-1 $15 #
body $-1 $16 $-1 $17 #
body $-1 $18 $-1 $19 #
body $-1 $20 $-1 $21 #
body $-1 $22 $-1 $23 #
lump $-1 $-1 $24 $0 #
transform $-1 1 0 0 0 1 0 0 0 1 40.656758323923462 26.658485181467949 7.8022056608867958 1 rotate no_reflect no_shear #
lump $-1 $-1 $25 $1 #
transform $-1 1 0 0 0 1 0 0 0 1 40.656758323923462 26.658485181467949 7.8022056608867958 1 rotate no_reflect no_shear #
lump $-1 $-1 $26 $2 #
transform $-1 1 0 0 0 1 0 0 0 1 40.656758323923462 26.658485181467949 7.8022056608867958 1 rotate no_reflect no_shear #
lump $-1 $-1 $27 $3 #
transform $-1 1 0 0 0 1 0 0 0 1 40.656758323923462 26.658485181467949 7.8022056608867958 1 rotate no_reflect no_shear #
lump $-1 $-1 $28 $4 #
transform $-1 1 0 0 0 1 0 0 0 1 40.656758323923462 26.658485181467949 7.8022056608867958 1 rotate no_reflect no_shear #
lump $-1 $-1 $29 $5 #
transform $-1 1 0 0 0 1 0 0 0 1 40.656758323923462 26.658485181467949 7.8022056608867958 1 rotate no_reflect no_shear #
lump $-1 $-1 $30 $6 #
transform $-1 1 0 0 0 1 0 0 0 1 40.656758323923462 26.658485181467949 7.8022056608867958 1 rotate no_reflect no_shear #
lump $-1 $-1 $31 $7 #
transform $-1 1 0 0 0 1 0 0 0 1 40.656758323923462 26.658485181467949 7.8022056608867958 1 rotate no_reflect no_shear #
shell $-1 $-1 $-1 $32 $-1 $8 #
shell $-1 $-1 $-1 $33 $-1 $10 #
shell $-1 $-1 $-1 $34 $-1 $12 #
shell $-1 $-1 $-1 $35 $-1 $14 #
shell $-1 $-1 $-1 $36 $-1 $16 #
shell $-1 $-1 $-1 $37 $-1 $18 #
shell $-1 $-1 $-1 $38 $-1 $20 #
shell $-1 $-1 $-1 $39 $-1 $22 #
face $-1 $40 $41 $24 $-1 $42 forward single #
face $-1 $43 $44 $25 $-1 $45 reversed single #
face $-1 $46 $47 $26 $-1 $48 reversed single #
face $-1 $49 $50 $27 $-1 $51 forward single #
face $-1 $52 $53 $28 $-1 $54 forward single #
face $-1 $55 $56 $29 $-1 $57 reversed single #
face $-1 $58 $59 $30 $-1 $60 forward single #
face $-1 $61 $62 $31 $-1 $63 forward single #
face $-1 $64 $65 $24 $-1 $66 reversed single #
loop $-1 $-1 $67 $32 #
plane-surface $-1 0 0 7.8022056608867958 0 0 1 1 0 0 forward_v I I I I #
face $-1 $68 $69 $25 $-1 $70 reversed single #
loop $-1 $-1 $71 $33 #
plane-surface $-1 -35.644419202924851 0 4.8022056608867958 0 0 1 1 0 0 forward_v I I I I #
face $-1 $72 $73 $26 $-1 $74 reversed single #
loop $-1 $-1 $75 $34 #
plane-surface $-1 -10.724421215840032 -94.070446295641176 48.004336149407564 -1 0 0 0 -0.82903758062907751 0.55919289150049634 forward_v I I I I #
face $-1 $76 $77 $27 $-1 $78 forward single #
loop $-1 $79 $80 $35 #
cone-surface $-1 -24.944177548758745 -24.247591704298308 4.7404584522188857 0 0.82903758062907751 -0.55919289150049634 1.5 0 0 1 I I 0 1 1.5 forward I I I I #
face $-1 $81 $82 $28 $-1 $83 forward single #
loop $-1 $84 $85 $36 #
cone-surface $-1 -16.41232374900752 -24.247591704298308 4.7404584522188857 0 0.82903758062907751 -0.55919289150049634 1.5 0 0 1 I I 0 1 1.5 forward I I I I #
face $-1 $86 $87 $29 $-1 $88 reversed single #
loop $-1 $-1 $89 $37 #
plane-surface $-1 -8.3822726006524277 41.445618286577457 99.096265896211975 1 0 0 0 -0.66913061440640931 -0.74314481823134659 forward_v I I I I #
face $-1 $90 $91 $30 $-1 $92 forward single #
loop $-1 $93 $94 $38 #
cone-surface $-1 -6.0248230791025676 23.653077058393826 5.0257955263060214 0 -0.66913061440640931 -0.74314481823134659 0.5 0 0 1 I I 0 1 0.5 forward I I I I #
face $-1 $95 $96 $31 $-1 $97 forward single #
loop $-1 $98 $99 $39 #
cone-surface $-1 -2.488648796777774 23.653077058393826 5.0257955263060214 0 -0.66913061440640931 -0.74314481823134659 0.5 0 0 1 I I 0 1 0.5 forward I I I I #
face $-1 $100 $101 $24 $-1 $102 reversed single #
loop $-1 $-1 $103 $40 #
plane-surface $-1 0 0 -7.8022056608867958 0 0 1 1 0 0 forward_v I I I I #
coedge $-1 $104 $105 $106 $107 forward $41 $-1 #
face $-1 $108 $109 $25 $-1 $110 reversed single #
loop $-1 $-1 $111 $43 #
plane-surface $-1 -30.632080081926237 0 6.3022056608867958 -1 0 0 0 0 1 forward_v I I I I #
coedge $-1 $112 $113 $111 $114 forward $44 $-1 #
face $-1 $115 $116 $26 $-1 $117 forward single #
loop $-1 $-1 $118 $46 #
plane-surface $-1 -20.678250648883132 -26.658485181467938 2.534395657024298 0 -0.82903758062907751 0.55919289150049634 1 0 0 forward_v I I I I #
coedge $-1 $119 $120 $121 $122 reversed $47 $-1 #
face $-1 $-1 $123 $27 $-1 $124 forward single #
loop $-1 $125 $126 $49 #
cone-surface $-1 -24.944177548758745 -22.991511342680802 3.8932215768568481 0 0.82903758062907751 -0.55919289150049634 0.75 0 0 1 I I -0.70710678118654724 0.70710678118654768 0.75 forward I I I I #
loop $-1 $-1 $127 $35 #
coedge $-1 $80 $80 $128 $129 reversed $50 $-1 #
face $-1 $-1 $130 $28 $-1 $131 forward single #
loop $-1 $132 $133 $52 #
cone-surface $-1 -16.41232374900752 -22.991511342680802 3.8932215768568481 0 0.82903758062907751 -0.55919289150049634 0.75 0 0 1 I I -0.70710678118654724 0.70710678118654768 0.75 forward I I I I #
loop $-1 $-1 $134 $36 #
coedge $-1 $85 $85 $135 $136 reversed $53 $-1 #
face $-1 $137 $138 $29 $-1 $139 reversed single #
loop $-1 $-1 $140 $55 #
plane-surface $-1 -4.2567359379401708 -12.963745067542135 38.66854734719621 0 0.66913061440640931 0.74314481823134659 1 0 0 forward_v I I I I #
coedge $-1 $141 $142 $143 $144 reversed $56 $-1 #
face $-1 $-1 $145 $30 $-1 $146 forward single #
loop $-1 $147 $148 $58 #
cone-surface $-1 -6.0248230791025676 23.15122909758902 4.4684369126325114 0 -0.66913061440640931 -0.74314481823134659 0.25 0 0 1 I I -0.70710678118654746 0.70710678118654746 0.25 forward I I I I #
loop $-1 $-1 $149 $38 #
coedge $-1 $94 $94 $150 $151 reversed $59 $-1 #
face $-1 $-1 $152 $31 $-1 $153 forward single #
loop $-1 $154 $155 $61 #
cone-surface $-1 -2.488648796777774 23.15122909758902 4.4684369126325114 0 -0.66913061440640931 -0.74314481823134659 0.25 0 0 1 I I -0.70710678118654746 0.70710678118654746 0.25 forward I I I I #
loop $-1 $-1 $156 $39 #
coedge $-1 $99 $99 $157 $158 reversed $62 $-1 #
face $-1 $159 $160 $24 $-1 $161 reversed single #
loop $-1 $-1 $162 $64 #
plane-surface $-1 0 -26.658485181467949 0 0 1 0 0 0 1 forward_v I I I I #
coedge $-1 $163 $164 $165 $166 forward $65 $-1 #
coedge $-1 $167 $67 $168 $169 forward $41 $-1 #
coedge $-1 $67 $167 $170 $171 forward $41 $-1 #
coedge $-1 $172 $173 $67 $107 reversed $174 $-1 #
edge $-1 $175 -26.658485181467949 $176 26.658485181467949 $106 $177 forward 7 unknown #
face $-1 $178 $179 $25 $-1 $180 reversed single #
loop $-1 $-1 $181 $68 #
plane-surface $-1 0 26.658485181467949 0 0 -1 0 0 0 -1 forward_v I I I I #
coedge $-1 $182 $183 $71 $114 reversed $69 $-1 #
coedge $-1 $184 $71 $185 $186 reversed $44 $-1 #
coedge $-1 $71 $184 $187 $188 reversed $44 $-1 #
edge $-1 $189 -26.658485181467949 $190 26.658485181467949 $111 $191 forward 7 unknown #
face $-1 $192 $193 $26 $-1 $194 forward single #
loop $-1 $-1 $195 $72 #
plane-surface $-1 -30.632080081926237 0 6.3022056608867958 -1 0 0 0 0 1 forward_v I I I I #
coedge $-1 $196 $197 $198 $199 reversed $73 $-1 #
coedge $-1 $120 $75 $200 $201 reversed $47 $-1 #
coedge $-1 $75 $119 $196 $202 reversed $47 $-1 #
coedge $-1 $198 $203 $75 $122 forward $193 $-1 #
edge $-1 $204 20.376737966352639 $205 23.929920568400536 $121 $206 forward 7 unknown #
loop $-1 $-1 $128 $76 #
plane-surface $-1 -20.678250648883132 -26.658485181467938 2.534395657024298 0 -0.82903758062907751 0.55919289150049634 1 0 0 forward_v I I I I #
loop $-1 $-1 $207 $49 #
coedge $-1 $126 $126 $127 $208 reversed $77 $-1 #
coedge $-1 $127 $127 $126 $208 forward $79 $-1 #
coedge $-1 $128 $128 $80 $129 forward $123 $-1 #
edge $-1 $209 -4.619359885617304e-017 $209 6.2831853071796004 $128 $210 forward 7 unknown #
loop $-1 $-1 $135 $81 #
plane-surface $-1 -20.678250648883132 -26.658485181467938 2.534395657024298 0 -0.82903758062907751 0.55919289150049634 1 0 0 forward_v I I I I #
loop $-1 $-1 $211 $52 #
coedge $-1 $133 $133 $134 $212 reversed $82 $-1 #
coedge $-1 $134 $134 $133 $212 forward $84 $-1 #
coedge $-1 $135 $135 $85 $136 forward $130 $-1 #
edge $-1 $213 -4.619359885617304e-017 $213 6.2831853071796004 $135 $214 forward 7 unknown #
face $-1 $215 $216 $29 $-1 $217 forward single #
loop $-1 $-1 $218 $86 #
plane-surface $-1 -0.13119927522791386 41.445618286577457 99.096265896211975 -1 0 0 0 0.66913061440640931 0.74314481823134659 forward_v I I I I #
coedge $-1 $219 $220 $221 $222 reversed $87 $-1 #
coedge $-1 $142 $89 $223 $224 reversed $56 $-1 #
coedge $-1 $89 $141 $219 $225 reversed $56 $-1 #
coedge $-1 $221 $226 $89 $144 forward $216 $-1 #
edge $-1 $227 -5.9356760381792206 $228 -0.59399040643740619 $143 $229 forward 7 unknown #
loop $-1 $-1 $150 $90 #
plane-surface $-1 -4.2567359379401708 -12.963745067542135 38.66854734719621 0 0.66913061440640931 0.74314481823134659 1 0 0 forward_v I I I I #
loop $-1 $-1 $230 $58 #
coedge $-1 $148 $148 $149 $231 reversed $91 $-1 #
coedge $-1 $149 $149 $148 $231 forward $93 $-1 #
coedge $-1 $150 $150 $94 $151 forward $145 $-1 #
edge $-1 $232 1.3680964593538434e-016 $232 6.2831853071796004 $150 $233 forward 7 unknown #
loop $-1 $-1 $157 $95 #
plane-surface $-1 -4.2567359379401708 -12.963745067542135 38.66854734719621 0 0.66913061440640931 0.74314481823134659 1 0 0 forward_v I I I I #
loop $-1 $-1 $234 $61 #
coedge $-1 $155 $155 $156 $235 reversed $96 $-1 #
coedge $-1 $156 $156 $155 $235 forward $98 $-1 #
coedge $-1 $157 $157 $99 $158 forward $152 $-1 #
edge $-1 $236 1.3680964593538434e-016 $236 6.2831853071796004 $157 $237 forward 7 unknown #
face $-1 $238 $239 $24 $-1 $240 reversed single #
loop $-1 $-1 $241 $100 #
plane-surface $-1 -40.656758323923462 0 0 1 0 0 0 0 -1 forward_v I I I I #
coedge $-1 $242 $170 $243 $244 forward $101 $-1 #
coedge $-1 $245 $103 $242 $246 forward $65 $-1 #
coedge $-1 $103 $245 $247 $248 forward $65 $-1 #
coedge $-1 $173 $172 $103 $166 reversed $174 $-1 #
edge $-1 $249 -26.658485181467949 $250 26.658485181467949 $165 $251 forward 7 unknown #
coedge $-1 $105 $104 $252 $253 forward $41 $-1 #
coedge $-1 $254 $255 $104 $169 reversed $239 $-1 #
edge $-1 $176 -40.656758323923462 $256 40.656758323923462 $168 $257 forward 7 unknown #
coedge $-1 $162 $258 $105 $171 reversed $101 $-1 #
edge $-1 $259 -40.656758323923462 $175 40.656758323923462 $170 $260 forward 7 unknown #
coedge $-1 $165 $106 $258 $261 forward $174 $-1 #
coedge $-1 $106 $165 $254 $262 reversed $174 $-1 #
loop $-1 $-1 $172 $238 #
vertex $-1 $107 $263 #
vertex $-1 $107 $264 #
straight-curve $-1 40.656758323923462 0 7.8022056608867958 0 1 0 I I #
face $-1 $265 $266 $25 $-1 $267 forward single #
loop $-1 $-1 $268 $108 #
plane-surface $-1 -40.656758323923462 0 0 1 0 0 0 0 -1 forward_v I I I I #
coedge $-1 $187 $269 $182 $270 forward $109 $-1 #
coedge $-1 $271 $111 $181 $270 reversed $69 $-1 #
coedge $-1 $111 $271 $272 $273 reversed $69 $-1 #
coedge $-1 $113 $112 $268 $274 reversed $44 $-1 #
coedge $-1 $272 $275 $112 $186 forward $276 $-1 #
edge $-1 $277 -22.834548722461044 $190 -12.809870480463811 $185 $278 forward 7 unknown #
coedge $-1 $279 $181 $113 $188 forward $109 $-1 #
edge $-1 $189 12.809870480463811 $280 22.834548722461044 $187 $281 forward 7 unknown #
vertex $-1 $188 $282 #
vertex $-1 $186 $283 #
straight-curve $-1 -30.632080081926237 0 4.8022056608867958 0 -1 0 I I #
face $-1 $-1 $284 $26 $-1 $285 reversed single #
loop $-1 $-1 $198 $115 #
plane-surface $-1 0 0 7.8022056608867958 0 0 1 1 0 0 forward_v I I I I #
coedge $-1 $286 $287 $197 $288 reversed $116 $-1 #
coedge $-1 $289 $118 $120 $202 forward $73 $-1 #
coedge $-1 $118 $289 $195 $288 forward $73 $-1 #
coedge $-1 $290 $121 $118 $199 forward $193 $-1 #
edge $-1 $205 0.38529589139846543 $291 20.292954757484672 $198 $292 forward 7 unknown #
coedge $-1 $293 $294 $119 $201 forward $284 $-1 #
edge $-1 $295 -21.467772417679498 $204 -16.199962413816987 $200 $296 forward 7 unknown #
edge $-1 $205 -6.3541269140842322 $295 1.9213955892398137e-014 $120 $297 forward 7 unknown #
coedge $-1 $121 $290 $293 $298 forward $193 $-1 #
vertex $-1 $201 $299 #
vertex $-1 $122 $300 #
straight-curve $-1 -10.724421215840032 -47.035223147820588 7.8022056608867949 0 1 0 I I #
coedge $-1 $207 $207 $-1 $301 reversed $125 $-1 #
edge $-1 $302 0 $302 6.2831853071796004 $126 $303 forward 7 unknown #
vertex $-1 $129 $304 #
ellipse-curve $-1 -24.944177548758745 -24.881893880443997 5.1683006589555438 0 -0.82903758062907751 0.55919289150049634 1.5 0 0 1 I I #
coedge $-1 $211 $211 $-1 $305 reversed $132 $-1 #
edge $-1 $306 0 $306 6.2831853071796004 $133 $307 forward 7 unknown #
vertex $-1 $136 $308 #
ellipse-curve $-1 -16.41232374900752 -24.881893880443997 5.1683006589555438 0 -0.82903758062907751 0.55919289150049634 1.5 0 0 1 I I #
face $-1 $-1 $309 $29 $-1 $310 reversed single #
loop $-1 $-1 $143 $137 #
plane-surface $-1 0 0 7.8022056608867958 0 0 1 1 0 0 forward_v I I I I #
coedge $-1 $311 $312 $313 $314 reversed $138 $-1 #
coedge $-1 $315 $140 $142 $225 forward $87 $-1 #
coedge $-1 $140 $315 $311 $316 forward $87 $-1 #
coedge $-1 $313 $143 $140 $222 forward $216 $-1 #
edge $-1 $228 -6.2539046316823423 $317 1.9971686937421715 $221 $318 forward 7 unknown #
coedge $-1 $319 $320 $141 $224 forward $309 $-1 #
edge $-1 $321 -46.555602738149389 $227 -41.745927287219189 $223 $322 forward 7 unknown #
edge $-1 $228 46.12902327550978 $321 53.316970362935891 $142 $323 forward 7 unknown #
coedge $-1 $143 $313 $319 $324 forward $216 $-1 #
vertex $-1 $224 $325 #
vertex $-1 $144 $326 #
straight-curve $-1 -8.3822726006524277 20.722809143288728 7.8022056608867985 0 -1 0 I I #
coedge $-1 $230 $230 $-1 $327 reversed $147 $-1 #
edge $-1 $328 0 $328 6.2831853071796004 $148 $329 forward 7 unknown #
vertex $-1 $151 $330 #
ellipse-curve $-1 -6.0248230791025676 23.98764236559704 5.3973679354217028 0 0.66913061440640931 0.74314481823134659 0.5 0 0 1 I I #
coedge $-1 $234 $234 $-1 $331 reversed $154 $-1 #
edge $-1 $332 0 $332 6.2831853071796004 $155 $333 forward 7 unknown #
vertex $-1 $158 $334 #
ellipse-curve $-1 -2.488648796777774 23.98764236559704 5.3973679354217028 0 0.66913061440640931 0.74314481823134659 0.5 0 0 1 I I #
face $-1 $-1 $174 $24 $-1 $335 reversed single #
loop $-1 $-1 $254 $159 #
plane-surface $-1 0 26.658485181467949 0 0 -1 0 0 0 -1 forward_v I I I I #
coedge $-1 $336 $252 $255 $337 forward $160 $-1 #
coedge $-1 $258 $162 $163 $246 reversed $101 $-1 #
coedge $-1 $252 $336 $162 $244 reversed $160 $-1 #
edge $-1 $259 -7.8022056608867958 $338 7.8022056608867958 $243 $339 forward 7 unknown #
coedge $-1 $164 $163 $336 $340 forward $65 $-1 #
edge $-1 $250 -40.656758323923462 $338 40.656758323923462 $242 $341 forward 7 unknown #
coedge $-1 $255 $254 $164 $248 reversed $239 $-1 #
edge $-1 $342 -40.656758323923462 $249 40.656758323923462 $247 $343 forward 7 unknown #
vertex $-1 $166 $344 #
vertex $-1 $261 $345 #
straight-curve $-1 40.656758323923462 0 -7.8022056608867958 0 -1 0 I I #
coedge $-1 $241 $243 $167 $253 reversed $160 $-1 #
edge $-1 $256 -26.658485181467949 $259 26.658485181467949 $252 $346 forward 7 unknown #
coedge $-1 $247 $168 $173 $262 forward $239 $-1 #
coedge $-1 $168 $247 $241 $337 reversed $239 $-1 #
vertex $-1 $169 $347 #
straight-curve $-1 0 26.658485181467949 7.8022056608867958 -1 0 0 I I #
coedge $-1 $170 $242 $172 $261 reversed $101 $-1 #
vertex $-1 $253 $348 #
straight-curve $-1 0 -26.658485181467949 7.8022056608867958 1 0 0 I I #
edge $-1 $175 -7.8022056608867958 $250 7.8022056608867958 $172 $349 forward 7 unknown #
edge $-1 $176 -7.8022056608867958 $249 7.8022056608867958 $173 $350 forward 7 unknown #
point $-1 40.656758323923462 -26.658485181467949 7.8022056608867958 #
point $-1 40.656758323923462 26.658485181467949 7.8022056608867958 #
face $-1 $-1 $276 $25 $-1 $351 reversed single #
loop $-1 $-1 $352 $178 #
plane-surface $-1 0 0 7.8022056608867958 0 0 1 1 0 0 forward_v I I I I #
coedge $-1 $353 $354 $184 $274 forward $179 $-1 #
coedge $-1 $181 $279 $355 $356 reversed $109 $-1 #
edge $-1 $357 -4.6511028304433975 $189 -1.6511028304433979 $181 $358 forward 7 unknown #
coedge $-1 $183 $182 $352 $359 reversed $69 $-1 #
coedge $-1 $360 $185 $183 $273 forward $276 $-1 #
edge $-1 $190 1.6511028304433979 $361 4.6511028304433975 $272 $362 forward 7 unknown #
edge $-1 $280 -26.658485181467949 $277 26.658485181467949 $268 $363 forward 7 unknown #
coedge $-1 $185 $360 $353 $364 forward $276 $-1 #
loop $-1 $-1 $272 $265 #
vertex $-1 $274 $365 #
straight-curve $-1 -17.822209601462426 -26.658485181467949 4.8022056608867958 1 0 0 I I #
coedge $-1 $269 $187 $354 $366 reversed $109 $-1 #
vertex $-1 $274 $367 #
straight-curve $-1 -17.822209601462426 26.658485181467949 4.8022056608867958 -1 0 0 I I #
point $-1 -30.632080081926237 26.658485181467949 4.8022056608867958 #
point $-1 -30.632080081926237 -26.658485181467949 4.8022056608867958 #
loop $-1 $-1 $200 $192 #
plane-surface $-1 0 -26.658485181467949 0 0 1 0 0 0 1 forward_v I I I I #
coedge $-1 $287 $195 $368 $369 reversed $116 $-1 #
coedge $-1 $195 $286 $290 $370 reversed $116 $-1 #
edge $-1 $371 -1.9213955892398137e-014 $291 6.3541269140842322 $195 $372 forward 7 unknown #
coedge $-1 $197 $196 $294 $373 reversed $73 $-1 #
coedge $-1 $203 $198 $287 $370 forward $193 $-1 #
vertex $-1 $370 $374 #
straight-curve $-1 -10.339125324441566 -23.105302579420048 7.8022056608867958 -1 0 0 I I #
coedge $-1 $368 $200 $203 $298 reversed $284 $-1 #
coedge $-1 $200 $368 $289 $373 forward $284 $-1 #
vertex $-1 $201 $375 #
straight-curve $-1 -10.724421215840032 -26.658485181467945 24.002168074703782 0 0 1 I I #
straight-curve $-1 -10.724421215840032 -26.658485181467938 2.534395657024298 0 -0.55919289150049634 -0.82903758062907751 I I #
edge $-1 $376 -30.632080081926237 $204 -10.724421215840032 $293 $377 forward 7 unknown #
point $-1 -10.724421215840032 -26.658485181467949 7.8022056608867958 #
point $-1 -10.724421215840032 -23.105302579420052 7.8022056608867958 #
edge $-1 $378 1 $378 0 $207 $-1 forward 7 unknown #
vertex $-1 $208 $379 #
ellipse-curve $-1 -24.944177548758745 -23.61328952815261 4.3126162454822206 0 -0.82903758062907751 0.55919289150049634 1.5 0 0 1 I I #
point $-1 -23.444177548758745 -24.881893880444007 5.1683006589555509 #
edge $-1 $380 1 $380 0 $211 $-1 forward 7 unknown #
vertex $-1 $212 $381 #
ellipse-curve $-1 -16.41232374900752 -23.61328952815261 4.3126162454822206 0 -0.82903758062907751 0.55919289150049634 1.5 0 0 1 I I #
point $-1 -14.91232374900752 -24.881893880444007 5.1683006589555509 #
loop $-1 $-1 $223 $215 #
plane-surface $-1 0 26.658485181467949 0 0 -1 0 0 0 -1 forward_v I I I I #
coedge $-1 $312 $218 $220 $316 reversed $138 $-1 #
coedge $-1 $218 $311 $382 $383 reversed $138 $-1 #
coedge $-1 $226 $221 $218 $314 forward $216 $-1 #
edge $-1 $317 0.59399040643740619 $384 5.9356760381792206 $313 $385 forward 7 unknown #
coedge $-1 $220 $219 $320 $386 reversed $87 $-1 #
edge $-1 $387 -53.316970362935891 $317 -46.12902327550978 $311 $388 forward 7 unknown #
vertex $-1 $222 $389 #
straight-curve $-1 -2.1283679689700854 21.316799549726134 7.8022056608867913 1 0 0 I I #
coedge $-1 $382 $223 $226 $324 reversed $309 $-1 #
coedge $-1 $223 $382 $315 $386 forward $309 $-1 #
vertex $-1 $224 $390 #
straight-curve $-1 -8.3822726006524277 26.658485181467949 49.548132948105987 0 0 1 I I #
straight-curve $-1 -8.3822726006524277 -12.963745067542135 38.66854734719621 0 0.74314481823134659 -0.66913061440640931 I I #
edge $-1 $384 0.13119927522791386 $227 8.3822726006524277 $319 $391 forward 7 unknown #
point $-1 -8.3822726006524277 26.658485181467949 7.8022056608867958 #
point $-1 -8.3822726006524277 21.316799549726134 7.8022056608867949 #
edge $-1 $392 1 $392 0 $230 $-1 forward 7 unknown #
vertex $-1 $231 $393 #
ellipse-curve $-1 -6.0248230791025676 23.318511751190623 4.6542231171903481 0 0.66913061440640931 0.74314481823134659 0.5 0 0 1 I I #
point $-1 -5.5248230791025676 23.987642365597033 5.3973679354216948 #
edge $-1 $394 1 $394 0 $234 $-1 forward 7 unknown #
vertex $-1 $235 $395 #
ellipse-curve $-1 -2.488648796777774 23.318511751190623 4.6542231171903481 0 0.66913061440640931 0.74314481823134659 0.5 0 0 1 I I #
point $-1 -1.988648796777774 23.987642365597033 5.3973679354216948 #
plane-surface $-1 40.656758323923462 0 0 -1 0 0 0 0 1 forward_v I I I I #
coedge $-1 $243 $241 $245 $340 reversed $160 $-1 #
edge $-1 $256 -7.8022056608867958 $342 7.8022056608867958 $255 $396 forward 7 unknown #
vertex $-1 $340 $397 #
straight-curve $-1 -40.656758323923462 -26.658485181467949 0 0 0 -1 I I #
edge $-1 $338 -26.658485181467949 $342 26.658485181467949 $336 $398 forward 7 unknown #
straight-curve $-1 0 -26.658485181467949 -7.8022056608867958 -1 0 0 I I #
vertex $-1 $248 $399 #
straight-curve $-1 0 26.658485181467949 -7.8022056608867958 1 0 0 I I #
point $-1 40.656758323923462 26.658485181467949 -7.8022056608867958 #
point $-1 40.656758323923462 -26.658485181467949 -7.8022056608867958 #
straight-curve $-1 -40.656758323923462 0 7.8022056608867958 0 -1 0 I I #
point $-1 -40.656758323923462 26.658485181467949 7.8022056608867958 #
point $-1 -40.656758323923462 -26.658485181467949 7.8022056608867958 #
straight-curve $-1 40.656758323923462 -26.658485181467949 0 0 0 -1 I I #
straight-curve $-1 40.656758323923462 26.658485181467949 0 0 0 -1 I I #
plane-surface $-1 0 -26.658485181467949 0 0 1 0 0 0 1 forward_v I I I I #
coedge $-1 $355 $400 $271 $359 forward $266 $-1 #
coedge $-1 $401 $268 $275 $364 reversed $179 $-1 #
coedge $-1 $268 $401 $279 $366 forward $179 $-1 #
coedge $-1 $402 $352 $269 $356 forward $266 $-1 #
edge $-1 $357 30.632080081926237 $403 40.656758323923462 $269 $404 forward 7 unknown #
vertex $-1 $356 $405 #
straight-curve $-1 -30.632080081926237 26.658485181467949 3.1511028304433979 0 0 -1 I I #
edge $-1 $361 -26.658485181467949 $357 26.658485181467949 $352 $406 forward 7 unknown #
coedge $-1 $275 $272 $400 $407 reversed $276 $-1 #
vertex $-1 $273 $408 #
straight-curve $-1 -30.632080081926237 -26.658485181467949 3.1511028304433979 0 0 1 I I #
straight-curve $-1 -40.656758323923462 0 4.8022056608867958 0 -1 0 I I #
edge $-1 $409 -7.8022056608867958 $277 -4.8022056608867958 $353 $410 forward 7 unknown #
point $-1 -40.656758323923469 -26.658485181467949 4.8022056608867958 #
edge $-1 $403 -7.8022056608867958 $280 -4.8022056608867958 $279 $411 forward 7 unknown #
point $-1 -40.656758323923469 26.658485181467949 4.8022056608867958 #
coedge $-1 $294 $293 $286 $369 forward $284 $-1 #
edge $-1 $376 16.199962413816987 $371 21.467772417679498 $368 $412 forward 7 unknown #
edge $-1 $291 23.105302579420052 $376 26.658485181467949 $290 $413 forward 7 unknown #
vertex $-1 $369 $414 #
straight-curve $-1 -30.632080081926233 -26.658485181467938 2.534395657024298 0 0.55919289150049634 0.82903758062907751 I I #
edge $-1 $371 -20.292954757484665 $295 -0.38529589139846543 $294 $415 forward 7 unknown #
point $-1 -30.632080081926237 -23.105302579420052 7.8022056608867958 #
point $-1 -10.724421215840032 -26.658485181467949 2.534395657024282 #
vertex $-1 $298 $416 #
straight-curve $-1 0 -26.658485181467949 7.8022056608867958 1 0 0 I I #
vertex $-1 $301 $417 #
point $-1 -23.444177548758745 -23.61328952815261 4.3126162454822206 #
vertex $-1 $305 $418 #
point $-1 -14.91232374900752 -23.61328952815261 4.3126162454822206 #
coedge $-1 $320 $319 $312 $383 forward $309 $-1 #
edge $-1 $384 41.745927287219189 $387 46.555602738149389 $382 $419 forward 7 unknown #
vertex $-1 $324 $420 #
straight-curve $-1 -0.13119927522791386 20.722809143288728 7.8022056608867985 0 1 0 I I #
edge $-1 $387 -1.9971686937421715 $321 6.2539046316823423 $320 $421 forward 7 unknown #
vertex $-1 $386 $422 #
straight-curve $-1 -0.13119927522791386 -12.963745067542135 38.66854734719621 0 -0.74314481823134659 0.66913061440640931 I I #
point $-1 -0.13119927522791386 21.316799549726134 7.8022056608867949 #
point $-1 -8.3822726006524277 26.658485181467952 2.9925302099565982 #
straight-curve $-1 0 26.658485181467949 7.8022056608867958 -1 0 0 I I #
vertex $-1 $327 $423 #
point $-1 -5.5248230791025676 23.318511751190623 4.6542231171903481 #
vertex $-1 $331 $424 #
point $-1 -1.988648796777774 23.318511751190623 4.6542231171903481 #
straight-curve $-1 -40.656758323923462 26.658485181467949 0 0 0 -1 I I #
point $-1 -40.656758323923462 -26.658485181467949 -7.8022056608867958 #
straight-curve $-1 -40.656758323923462 0 -7.8022056608867958 0 1 0 I I #
point $-1 -40.656758323923462 26.658485181467949 -7.8022056608867958 #
coedge $-1 $352 $402 $360 $407 forward $266 $-1 #
coedge $-1 $354 $353 $402 $425 reversed $179 $-1 #
coedge $-1 $400 $355 $401 $425 forward $266 $-1 #
vertex $-1 $356 $426 #
straight-curve $-1 0 26.658485181467949 7.8022056608867958 -1 0 0 I I #
point $-1 -30.632080081926237 26.658485181467949 7.8022056608867958 #
straight-curve $-1 -30.632080081926237 0 7.8022056608867958 0 1 0 I I #
edge $-1 $409 -40.656758323923462 $361 -30.632080081926237 $360 $427 forward 7 unknown #
point $-1 -30.632080081926237 -26.658485181467949 7.8022056608867958 #
vertex $-1 $425 $428 #
straight-curve $-1 -40.656758323923462 -26.658485181467949 0 0 0 -1 I I #
straight-curve $-1 -40.656758323923462 26.658485181467949 0 0 0 -1 I I #
straight-curve $-1 -30.632080081926233 -26.658485181467945 24.002168074703782 0 0 -1 I I #
straight-curve $-1 -30.632080081926237 0 7.8022056608867958 0 -1 0 I I #
point $-1 -30.632080081926233 -26.658485181467949 2.534395657024282 #
straight-curve $-1 -10.339125324441566 -26.658485181467949 2.5343956570242829 1 0 0 I I #
point $-1 -30.632080081926237 -26.658485181467949 7.8022056608867958 #
point $-1 -24.944177548758745 -22.369733157208994 3.4738269082314757 #
point $-1 -16.41232374900752 -22.369733157208994 3.4738269082314757 #
straight-curve $-1 -0.13119927522791386 26.658485181467949 49.548132948105987 0 0 -1 I I #
point $-1 -0.13119927522791386 26.658485181467949 7.8022056608867958 #
straight-curve $-1 -2.1283679689700854 26.658485181467945 2.9925302099566018 -1 0 0 I I #
point $-1 -0.13119927522791386 26.658485181467952 2.9925302099565982 #
point $-1 -6.0248230791025676 22.983946443987417 4.2826507080746747 #
point $-1 -2.488648796777774 22.983946443987417 4.2826507080746747 #
edge $-1 $403 -26.658485181467949 $409 26.658485181467949 $401 $429 forward 7 unknown #
point $-1 -40.656758323923462 26.658485181467949 7.8022056608867958 #
straight-curve $-1 0 -26.658485181467949 7.8022056608867958 1 0 0 I I #
point $-1 -40.656758323923462 -26.658485181467949 7.8022056608867958 #
straight-curve $-1 -40.656758323923462 0 7.8022056608867958 0 -1 0 I I #
End-of-ACIS-data 