500 0 11 0           
7 Unknown 11 ACIS 5.0 NT 24 Thu Mar 25 16:21:41 1999 
-1 9.9999999999999995e-007 1e-010 
body $-1 $11 $-1 $12 #
body $-1 $13 $-1 $14 #
body $-1 $15 $-1 $16 #
body $-1 $17 $-1 $18 #
body $-1 $19 $-1 $20 #
body $-1 $21 $-1 $22 #
body $-1 $23 $-1 $24 #
body $-1 $25 $-1 $26 #
body $-1 $27 $-1 $28 #
body $-1 $29 $-1 $30 #
body $-1 $31 $-1 $32 #
lump $-1 $-1 $33 $0 #
transform $-1 1 0 0 0 1 0 0 0 1 56.342051454206981 22.85767469714515 10.230739985605357 1 rotate no_reflect no_shear #
lump $-1 $-1 $34 $1 #
transform $-1 1 0 0 0 1 0 0 0 1 56.342051454206981 22.85767469714515 10.230739985605357 1 rotate no_reflect no_shear #
lump $-1 $-1 $35 $2 #
transform $-1 1 0 0 0 1 0 0 0 1 56.342051454206981 22.85767469714515 10.230739985605357 1 rotate no_reflect no_shear #
lump $-1 $-1 $36 $3 #
transform $-1 1 0 0 0 1 0 0 0 1 56.342051454206981 22.85767469714515 10.230739985605357 1 rotate no_reflect no_shear #
lump $-1 $-1 $37 $4 #
transform $-1 1 0 0 0 1 0 0 0 1 56.342051454206981 22.85767469714515 10.230739985605357 1 rotate no_reflect no_shear #
lump $-1 $-1 $38 $5 #
transform $-1 1 0 0 0 1 0 0 0 1 56.342051454206981 22.85767469714515 10.230739985605357 1 rotate no_reflect no_shear #
lump $-1 $-1 $39 $6 #
transform $-1 1 0 0 0 1 0 0 0 1 56.342051454206981 22.85767469714515 10.230739985605357 1 rotate no_reflect no_shear #
lump $-1 $-1 $40 $7 #
transform $-1 1 0 0 0 1 0 0 0 1 56.342051454206981 22.85767469714515 10.230739985605357 1 rotate no_reflect no_shear #
lump $-1 $-1 $41 $8 #
transform $-1 1 0 0 0 1 0 0 0 1 56.342051454206981 22.85767469714515 10.230739985605357 1 rotate no_reflect no_shear #
lump $-1 $-1 $42 $9 #
transform $-1 1 0 0 0 1 0 0 0 1 56.342051454206981 22.85767469714515 10.230739985605357 1 rotate no_reflect no_shear #
lump $-1 $-1 $43 $10 #
transform $-1 1 0 0 0 1 0 0 0 1 56.342051454206981 22.85767469714515 10.230739985605357 1 rotate no_reflect no_shear #
shell $-1 $-1 $-1 $44 $-1 $11 #
shell $-1 $-1 $-1 $45 $-1 $13 #
shell $-1 $-1 $-1 $46 $-1 $15 #
shell $-1 $-1 $-1 $47 $-1 $17 #
shell $-1 $-1 $-1 $48 $-1 $19 #
shell $-1 $-1 $-1 $49 $-1 $21 #
shell $-1 $-1 $-1 $50 $-1 $23 #
shell $-1 $-1 $-1 $51 $-1 $25 #
shell $-1 $-1 $-1 $52 $-1 $27 #
shell $-1 $-1 $-1 $53 $-1 $29 #
shell $-1 $-1 $-1 $54 $-1 $31 #
face $-1 $55 $56 $33 $-1 $57 forward single #
face $-1 $58 $59 $34 $-1 $60 forward single #
face $-1 $61 $62 $35 $-1 $63 reversed single #
face $-1 $64 $65 $36 $-1 $66 forward single #
face $-1 $67 $68 $37 $-1 $69 forward single #
face $-1 $70 $71 $38 $-1 $72 reversed single #
face $-1 $73 $74 $39 $-1 $75 forward single #
face $-1 $76 $77 $40 $-1 $78 forward single #
face $-1 $79 $80 $41 $-1 $81 reversed single #
face $-1 $82 $83 $42 $-1 $84 forward single #
face $-1 $85 $86 $43 $-1 $87 forward single #
face $-1 $88 $89 $33 $-1 $90 reversed single #
loop $-1 $-1 $91 $44 #
plane-surface $-1 0 0 10.230739985605357 0 0 1 1 0 0 forward_v I I I I #
face $-1 $92 $93 $34 $-1 $94 reversed single #
loop $-1 $-1 $95 $45 #
plane-surface $-1 0 -17.813807794771975 -2.1429613321639729 0 0 1 1 0 0 forward_v I I I I #
face $-1 $96 $97 $35 $-1 $98 reversed single #
loop $-1 $-1 $99 $46 #
plane-surface $-1 -137.40021247008042 -6.1683362323464408 78.571109326835014 0 1 0 -0.71933980857756763 0 0.69465836192734942 forward_v I I I I #
face $-1 $100 $101 $36 $-1 $102 forward single #
loop $-1 $103 $104 $47 #
cone-surface $-1 -50.886861285766521 -4.0952388951178165 4.6276365478993728 0.71933980857756763 0 -0.69465836192734942 0.34732918096367471 0 0.35966990428878381 1 I I 0 1 0.5 forward I I I I #
face $-1 $105 $106 $37 $-1 $107 forward single #
loop $-1 $108 $109 $48 #
cone-surface $-1 -50.886861285766521 -0.98559288927487998 4.6276365478993728 0.71933980857756763 0 -0.69465836192734942 0.34732918096367471 0 0.35966990428878381 1 I I 0 1 0.5 forward I I I I #
face $-1 $110 $111 $38 $-1 $112 reversed single #
loop $-1 $-1 $113 $49 #
plane-surface $-1 -137.40021247008042 9.0002293567926159 78.571109326835014 0 1 0 -0.71933980857756763 0 0.69465836192734942 forward_v I I I I #
face $-1 $114 $115 $39 $-1 $116 forward single #
loop $-1 $117 $118 $50 #
cone-surface $-1 -50.886861285766521 11.07332669402124 4.6276365478993728 0.71933980857756763 0 -0.69465836192734942 0.34732918096367471 0 0.35966990428878381 1 I I 0 1 0.5 forward I I I I #
face $-1 $119 $120 $40 $-1 $121 forward single #
loop $-1 $122 $123 $51 #
cone-surface $-1 -50.886861285766521 14.18297269986418 4.6276365478993728 0.71933980857756763 0 -0.69465836192734942 0.34732918096367471 0 0.35966990428878381 1 I I 0 1 0.5 forward I I I I #
face $-1 $124 $125 $41 $-1 $126 reversed single #
loop $-1 $-1 $127 $52 #
plane-surface $-1 50.780490832877575 -4.1096644863525569 165.44000525851945 0 -1 0 -0.68199836817093118 0 -0.7313536940579346 forward_v I I I I #
face $-1 $128 $129 $42 $-1 $130 forward single #
loop $-1 $131 $132 $53 #
cone-surface $-1 53.339056376365399 -10.295576204957014 7.314348920385739 -0.68199836817093118 0 -0.7313536940579346 0.7313536940579346 0 -0.68199836817093118 1 I I 0 1 1 forward I I I I #
face $-1 $133 $134 $43 $-1 $135 forward single #
loop $-1 $136 $137 $54 #
cone-surface $-1 53.339056376365399 -6.5840291737943417 7.314348920385739 -0.68199836817093118 0 -0.7313536940579346 0.7313536940579346 0 -0.68199836817093118 1 I I 0 1 1 forward I I I I #
face $-1 $138 $139 $33 $-1 $140 reversed single #
loop $-1 $-1 $141 $55 #
plane-surface $-1 0 0 -10.230739985605357 0 0 1 1 0 0 forward_v I I I I #
coedge $-1 $142 $143 $144 $145 forward $56 $-1 #
face $-1 $146 $147 $34 $-1 $148 reversed single #
loop $-1 $-1 $149 $58 #
plane-surface $-1 0 -17.813807794771975 -6.11942113344797 0 0 1 1 0 0 forward_v I I I I #
coedge $-1 $150 $151 $152 $153 reversed $59 $-1 #
face $-1 $154 $155 $35 $-1 $156 reversed single #
loop $-1 $-1 $157 $61 #
plane-surface $-1 -56.342051454206981 -2.54041589219635 0.29415498522330097 -0.71933980857756763 0 0.69465836192734942 0.69465836192734942 0 0.71933980857756763 forward_v I I I I #
coedge $-1 $158 $159 $160 $161 reversed $62 $-1 #
face $-1 $-1 $162 $36 $-1 $163 forward single #
loop $-1 $164 $165 $64 #
cone-surface $-1 -50.049660348696847 -4.0952388951178165 3.8191610199025803 0.71933980857756763 0 -0.69465836192734942 0.17366459048183736 0 0.17983495214439191 1 I I -0.70710678118654746 0.70710678118654746 0.25 forward I I I I #
loop $-1 $-1 $166 $47 #
coedge $-1 $104 $104 $167 $168 reversed $65 $-1 #
face $-1 $-1 $169 $37 $-1 $170 forward single #
loop $-1 $171 $172 $67 #
cone-surface $-1 -50.049660348696847 -0.98559288927487998 3.8191610199025803 0.71933980857756763 0 -0.69465836192734942 0.17366459048183736 0 0.17983495214439191 1 I I -0.70710678118654746 0.70710678118654746 0.25 forward I I I I #
loop $-1 $-1 $173 $48 #
coedge $-1 $109 $109 $174 $175 reversed $68 $-1 #
face $-1 $176 $177 $38 $-1 $178 reversed single #
loop $-1 $-1 $179 $70 #
plane-surface $-1 -56.342051454206981 12.628149696942707 0.29415498522330097 -0.71933980857756763 0 0.69465836192734942 0.69465836192734942 0 0.71933980857756763 forward_v I I I I #
coedge $-1 $180 $181 $182 $183 reversed $71 $-1 #
face $-1 $-1 $184 $39 $-1 $185 forward single #
loop $-1 $186 $187 $73 #
cone-surface $-1 -50.049660348696847 11.07332669402124 3.8191610199025803 0.71933980857756763 0 -0.69465836192734942 0.17366459048183736 0 0.17983495214439191 1 I I -0.70710678118654746 0.70710678118654746 0.25 forward I I I I #
loop $-1 $-1 $188 $50 #
coedge $-1 $118 $118 $189 $190 reversed $74 $-1 #
face $-1 $-1 $191 $40 $-1 $192 forward single #
loop $-1 $193 $194 $76 #
cone-surface $-1 -50.049660348696847 14.18297269986418 3.8191610199025803 0.71933980857756763 0 -0.69465836192734942 0.17366459048183736 0 0.17983495214439191 1 I I -0.70710678118654746 0.70710678118654746 0.25 forward I I I I #
loop $-1 $-1 $195 $51 #
coedge $-1 $123 $123 $196 $197 reversed $77 $-1 #
face $-1 $198 $199 $41 $-1 $200 reversed single #
loop $-1 $-1 $201 $79 #
plane-surface $-1 -26.069883469466021 -8.4398026893756768 83.028070334846447 0.68199836817093118 0 0.7313536940579346 0.7313536940579346 0 -0.68199836817093118 forward_v I I I I #
coedge $-1 $202 $203 $204 $205 reversed $80 $-1 #
face $-1 $-1 $206 $42 $-1 $207 forward single #
loop $-1 $208 $209 $82 #
cone-surface $-1 52.168240823964041 -10.295576204957014 6.0588029846884233 -0.68199836817093118 0 -0.7313536940579346 0.3656768470289673 0 -0.34099918408546559 1 I I -0.70710678118654746 0.70710678118654746 0.5 forward I I I I #
loop $-1 $-1 $210 $53 #
coedge $-1 $132 $132 $211 $212 reversed $83 $-1 #
face $-1 $-1 $213 $43 $-1 $214 forward single #
loop $-1 $215 $216 $85 #
cone-surface $-1 52.168240823964041 -6.5840291737943417 6.0588029846884233 -0.68199836817093118 0 -0.7313536940579346 0.3656768470289673 0 -0.34099918408546559 1 I I -0.70710678118654746 0.70710678118654746 0.5 forward I I I I #
loop $-1 $-1 $217 $54 #
coedge $-1 $137 $137 $218 $219 reversed $86 $-1 #
face $-1 $220 $221 $33 $-1 $222 reversed single #
loop $-1 $-1 $223 $88 #
plane-surface $-1 0 -22.85767469714515 0 0 1 0 0 0 1 forward_v I I I I #
coedge $-1 $224 $225 $226 $227 forward $89 $-1 #
coedge $-1 $228 $91 $229 $230 forward $56 $-1 #
coedge $-1 $91 $228 $231 $232 forward $56 $-1 #
coedge $-1 $233 $234 $91 $145 reversed $235 $-1 #
edge $-1 $236 -22.85767469714515 $237 22.85767469714515 $144 $238 forward 7 unknown #
face $-1 $239 $240 $34 $-1 $241 reversed single #
loop $-1 $-1 $242 $92 #
plane-surface $-1 0 -12.769940892398798 -4.1311912328059712 0 -1 0 0 0 -1 forward_v I I I I #
coedge $-1 $243 $244 $245 $246 reversed $93 $-1 #
coedge $-1 $247 $95 $248 $249 forward $59 $-1 #
coedge $-1 $95 $247 $250 $251 reversed $59 $-1 #
coedge $-1 $252 $253 $95 $153 forward $254 $-1 #
edge $-1 $255 3.8630369950128109 $256 13.950770799759162 $152 $257 forward 7 unknown #
face $-1 $258 $259 $35 $-1 $260 reversed single #
loop $-1 $-1 $261 $96 #
plane-surface $-1 -137.40021247008042 1.0875044479537408 78.571109326835014 0 -1 0 0.71933980857756763 0 -0.69465836192734942 forward_v I I I I #
coedge $-1 $262 $263 $264 $265 reversed $97 $-1 #
coedge $-1 $159 $99 $266 $267 reversed $62 $-1 #
coedge $-1 $99 $158 $262 $268 reversed $62 $-1 #
coedge $-1 $264 $269 $99 $161 forward $270 $-1 #
edge $-1 $271 12.358054780833228 $272 21.953703147863592 $160 $273 forward 7 unknown #
loop $-1 $-1 $167 $100 #
plane-surface $-1 -56.342051454206981 -2.54041589219635 0.29415498522330097 -0.71933980857756763 0 0.69465836192734942 0.69465836192734942 0 0.71933980857756763 forward_v I I I I #
loop $-1 $-1 $274 $64 #
coedge $-1 $165 $165 $166 $275 reversed $101 $-1 #
coedge $-1 $166 $166 $165 $275 forward $103 $-1 #
coedge $-1 $167 $167 $104 $168 forward $162 $-1 #
edge $-1 $276 0 $276 6.2831853071796004 $167 $277 forward 7 unknown #
loop $-1 $-1 $174 $105 #
plane-surface $-1 -56.342051454206981 -2.54041589219635 0.29415498522330097 -0.71933980857756763 0 0.69465836192734942 0.69465836192734942 0 0.71933980857756763 forward_v I I I I #
loop $-1 $-1 $278 $67 #
coedge $-1 $172 $172 $173 $279 reversed $106 $-1 #
coedge $-1 $173 $173 $172 $279 forward $108 $-1 #
coedge $-1 $174 $174 $109 $175 forward $169 $-1 #
edge $-1 $280 0 $280 6.2831853071796004 $174 $281 forward 7 unknown #
face $-1 $282 $283 $38 $-1 $284 forward single #
loop $-1 $-1 $285 $110 #
plane-surface $-1 -137.40021247008042 16.256070037092798 78.571109326835014 0 -1 0 0.71933980857756763 0 -0.69465836192734942 forward_v I I I I #
coedge $-1 $286 $287 $288 $289 reversed $111 $-1 #
coedge $-1 $181 $113 $290 $291 reversed $71 $-1 #
coedge $-1 $113 $180 $286 $292 reversed $71 $-1 #
coedge $-1 $288 $293 $113 $183 forward $283 $-1 #
edge $-1 $294 12.358054780833228 $295 21.953703147863592 $182 $296 forward 7 unknown #
loop $-1 $-1 $189 $114 #
plane-surface $-1 -56.342051454206981 12.628149696942707 0.29415498522330097 -0.71933980857756763 0 0.69465836192734942 0.69465836192734942 0 0.71933980857756763 forward_v I I I I #
loop $-1 $-1 $297 $73 #
coedge $-1 $187 $187 $188 $298 reversed $115 $-1 #
coedge $-1 $188 $188 $187 $298 forward $117 $-1 #
coedge $-1 $189 $189 $118 $190 forward $184 $-1 #
edge $-1 $299 0 $299 6.2831853071796004 $189 $300 forward 7 unknown #
loop $-1 $-1 $196 $119 #
plane-surface $-1 -56.342051454206981 12.628149696942707 0.29415498522330097 -0.71933980857756763 0 0.69465836192734942 0.69465836192734942 0 0.71933980857756763 forward_v I I I I #
loop $-1 $-1 $301 $76 #
coedge $-1 $194 $194 $195 $302 reversed $120 $-1 #
coedge $-1 $195 $195 $194 $302 forward $122 $-1 #
coedge $-1 $196 $196 $123 $197 forward $191 $-1 #
edge $-1 $303 0 $303 6.2831853071796004 $196 $304 forward 7 unknown #
face $-1 $305 $306 $41 $-1 $307 forward single #
loop $-1 $-1 $308 $124 #
plane-surface $-1 50.780490832877575 -12.769940892398797 165.44000525851945 0 1 0 0.68199836817093118 0 0.7313536940579346 forward_v I I I I #
coedge $-1 $309 $310 $311 $312 reversed $125 $-1 #
coedge $-1 $203 $127 $313 $314 reversed $80 $-1 #
coedge $-1 $127 $202 $309 $315 reversed $80 $-1 #
coedge $-1 $311 $316 $127 $205 forward $306 $-1 #
edge $-1 $317 -30.951806037768193 $318 -26.605448618716764 $204 $319 forward 7 unknown #
loop $-1 $-1 $211 $128 #
plane-surface $-1 -26.069883469466021 -8.4398026893756768 83.028070334846447 0.68199836817093118 0 0.7313536940579346 0.7313536940579346 0 -0.68199836817093118 forward_v I I I I #
loop $-1 $-1 $320 $82 #
coedge $-1 $209 $209 $210 $321 reversed $129 $-1 #
coedge $-1 $210 $210 $209 $321 forward $131 $-1 #
coedge $-1 $211 $211 $132 $212 forward $206 $-1 #
edge $-1 $322 0 $322 6.2831853071796004 $211 $323 forward 7 unknown #
loop $-1 $-1 $218 $133 #
plane-surface $-1 -26.069883469466021 -8.4398026893756768 83.028070334846447 0.68199836817093118 0 0.7313536940579346 0.7313536940579346 0 -0.68199836817093118 forward_v I I I I #
loop $-1 $-1 $324 $85 #
coedge $-1 $216 $216 $217 $325 reversed $134 $-1 #
coedge $-1 $217 $217 $216 $325 forward $136 $-1 #
coedge $-1 $218 $218 $137 $219 forward $213 $-1 #
edge $-1 $326 0 $326 6.2831853071796004 $218 $327 forward 7 unknown #
face $-1 $328 $329 $33 $-1 $330 reversed single #
loop $-1 $-1 $331 $138 #
plane-surface $-1 -56.342051454206981 0 0 1 0 0 0 0 -1 forward_v I I I I #
coedge $-1 $332 $231 $333 $334 forward $139 $-1 #
coedge $-1 $335 $141 $332 $336 forward $89 $-1 #
coedge $-1 $141 $335 $337 $338 forward $89 $-1 #
coedge $-1 $234 $233 $141 $227 reversed $235 $-1 #
edge $-1 $339 -22.85767469714515 $340 22.85767469714515 $226 $341 forward 7 unknown #
coedge $-1 $143 $142 $342 $343 forward $56 $-1 #
coedge $-1 $344 $345 $142 $230 reversed $329 $-1 #
edge $-1 $237 -56.342051454206981 $346 56.342051454206981 $229 $347 forward 7 unknown #
coedge $-1 $223 $348 $143 $232 reversed $139 $-1 #
edge $-1 $349 -56.342051454206981 $236 56.342051454206981 $231 $350 forward 7 unknown #
coedge $-1 $226 $144 $348 $351 forward $235 $-1 #
coedge $-1 $144 $226 $344 $352 reversed $235 $-1 #
loop $-1 $-1 $233 $328 #
vertex $-1 $145 $353 #
vertex $-1 $145 $354 #
straight-curve $-1 56.342051454206981 0 10.230739985605357 0 1 0 I I #
face $-1 $355 $356 $34 $-1 $357 reversed single #
loop $-1 $-1 $358 $146 #
plane-surface $-1 -56.342051454206981 0 0 1 0 0 0 0 -1 forward_v I I I I #
coedge $-1 $359 $248 $253 $360 reversed $147 $-1 #
coedge $-1 $361 $149 $362 $363 reversed $93 $-1 #
coedge $-1 $149 $361 $359 $364 forward $93 $-1 #
coedge $-1 $253 $252 $149 $246 forward $254 $-1 #
edge $-1 $365 -13.950770799759162 $366 -3.8630369950128109 $245 $367 forward 7 unknown #
coedge $-1 $151 $150 $358 $368 reversed $59 $-1 #
coedge $-1 $242 $369 $150 $249 reversed $147 $-1 #
edge $-1 $255 -56.342051454206981 $370 56.342051454206981 $248 $371 forward 7 unknown #
coedge $-1 $372 $373 $151 $251 forward $356 $-1 #
edge $-1 $256 -56.342051454206981 $374 56.342051454206981 $250 $375 forward 7 unknown #
coedge $-1 $245 $152 $373 $376 forward $254 $-1 #
coedge $-1 $152 $245 $242 $360 forward $254 $-1 #
loop $-1 $-1 $152 $355 #
vertex $-1 $153 $377 #
vertex $-1 $376 $378 #
straight-curve $-1 56.342051454206981 -8.9069038973859875 -2.1429613321639729 0 -1 0 I I #
face $-1 $-1 $270 $35 $-1 $379 forward single #
loop $-1 $-1 $380 $154 #
plane-surface $-1 -56.342051454206981 0 0 1 0 0 0 0 -1 forward_v I I I I #
coedge $-1 $381 $382 $383 $384 reversed $155 $-1 #
coedge $-1 $385 $157 $159 $268 forward $97 $-1 #
coedge $-1 $157 $385 $381 $386 forward $97 $-1 #
coedge $-1 $383 $160 $157 $265 forward $270 $-1 #
edge $-1 $272 -4.8981282862482658 $387 2.3577123940519158 $264 $388 forward 7 unknown #
coedge $-1 $389 $390 $158 $267 forward $259 $-1 #
edge $-1 $391 -38.991399678194206 $271 -29.05481467781215 $266 $392 forward 7 unknown #
edge $-1 $272 -13.813478528361717 $391 0 $159 $393 forward 7 unknown #
coedge $-1 $160 $383 $389 $394 forward $270 $-1 #
loop $-1 $-1 $383 $258 #
vertex $-1 $267 $395 #
vertex $-1 $161 $396 #
straight-curve $-1 -68.700106235040209 -6.1683362323464408 10.230739985605354 1 0 0 I I #
coedge $-1 $274 $274 $-1 $397 reversed $164 $-1 #
edge $-1 $398 0 $398 6.2831853071796004 $165 $399 forward 7 unknown #
vertex $-1 $168 $400 #
ellipse-curve $-1 -51.544227270691799 -4.0952388951178165 5.2624474854143273 -0.71933980857756763 0 0.69465836192734942 0.34732918096367471 0 0.35966990428878381 1 I I #
coedge $-1 $278 $278 $-1 $401 reversed $171 $-1 #
edge $-1 $402 0 $402 6.2831853071796004 $172 $403 forward 7 unknown #
vertex $-1 $175 $404 #
ellipse-curve $-1 -51.544227270691799 -0.98559288927487998 5.2624474854143273 -0.71933980857756763 0 0.69465836192734942 0.34732918096367471 0 0.35966990428878381 1 I I #
face $-1 $-1 $405 $38 $-1 $406 reversed single #
loop $-1 $-1 $182 $176 #
plane-surface $-1 0 0 10.230739985605357 0 0 1 1 0 0 forward_v I I I I #
coedge $-1 $407 $408 $409 $410 reversed $177 $-1 #
coedge $-1 $411 $179 $181 $292 forward $111 $-1 #
coedge $-1 $179 $411 $407 $412 forward $111 $-1 #
coedge $-1 $409 $182 $179 $289 forward $283 $-1 #
edge $-1 $295 2.6861545083212626 $413 9.9419951886214442 $288 $414 forward 7 unknown #
coedge $-1 $415 $416 $180 $291 forward $405 $-1 #
edge $-1 $417 -38.991399678194206 $294 -29.05481467781215 $290 $418 forward 7 unknown #
edge $-1 $295 -13.813478528361717 $417 0 $181 $419 forward 7 unknown #
coedge $-1 $182 $409 $415 $420 forward $283 $-1 #
vertex $-1 $183 $421 #
vertex $-1 $183 $422 #
straight-curve $-1 -68.700106235040209 9.0002293567926159 10.230739985605354 1 0 0 I I #
coedge $-1 $297 $297 $-1 $423 reversed $186 $-1 #
edge $-1 $424 0 $424 6.2831853071796004 $187 $425 forward 7 unknown #
vertex $-1 $190 $426 #
ellipse-curve $-1 -51.544227270691799 11.07332669402124 5.2624474854143273 -0.71933980857756763 0 0.69465836192734942 0.34732918096367471 0 0.35966990428878381 1 I I #
coedge $-1 $301 $301 $-1 $427 reversed $193 $-1 #
edge $-1 $428 0 $428 6.2831853071796004 $194 $429 forward 7 unknown #
vertex $-1 $197 $430 #
ellipse-curve $-1 -51.544227270691799 14.18297269986418 5.2624474854143273 -0.71933980857756763 0 0.69465836192734942 0.34732918096367471 0 0.35966990428878381 1 I I #
face $-1 $-1 $431 $41 $-1 $432 reversed single #
loop $-1 $-1 $204 $198 #
plane-surface $-1 0 0 10.230739985605357 0 0 1 1 0 0 forward_v I I I I #
coedge $-1 $433 $434 $435 $436 reversed $199 $-1 #
coedge $-1 $437 $201 $203 $315 forward $125 $-1 #
coedge $-1 $201 $437 $433 $438 forward $125 $-1 #
coedge $-1 $435 $204 $201 $312 forward $306 $-1 #
edge $-1 $318 -0.11023685833528152 $439 8.5500395477109592 $311 $440 forward 7 unknown #
coedge $-1 $441 $442 $202 $314 forward $431 $-1 #
edge $-1 $443 -76.542306596756873 $317 -72.489262643654371 $313 $444 forward 7 unknown #
edge $-1 $318 106.74120899215362 $443 112.68410290841396 $203 $445 forward 7 unknown #
coedge $-1 $204 $435 $441 $446 forward $306 $-1 #
vertex $-1 $314 $447 #
vertex $-1 $205 $448 #
straight-curve $-1 25.390245416438788 -4.1096644863525569 10.230739985605354 -1 0 0 I I #
coedge $-1 $320 $320 $-1 $449 reversed $208 $-1 #
edge $-1 $450 0 $450 6.2831853071796004 $209 $451 forward 7 unknown #
vertex $-1 $212 $452 #
ellipse-curve $-1 54.168872744681288 -10.295576204957014 8.2042180090540828 0.68199836817093118 0 0.7313536940579346 0.7313536940579346 0 -0.68199836817093118 1 I I #
coedge $-1 $324 $324 $-1 $453 reversed $215 $-1 #
edge $-1 $454 0 $454 6.2831853071796004 $216 $455 forward 7 unknown #
vertex $-1 $219 $456 #
ellipse-curve $-1 54.168872744681288 -6.5840291737943417 8.2042180090540828 0.68199836817093118 0 0.7313536940579346 0.7313536940579346 0 -0.68199836817093118 1 I I #
face $-1 $-1 $235 $33 $-1 $457 reversed single #
loop $-1 $-1 $344 $220 #
plane-surface $-1 0 22.85767469714515 0 0 -1 0 0 0 -1 forward_v I I I I #
coedge $-1 $458 $342 $345 $459 forward $221 $-1 #
coedge $-1 $348 $223 $224 $336 reversed $139 $-1 #
coedge $-1 $342 $458 $223 $334 reversed $221 $-1 #
edge $-1 $349 -10.230739985605357 $460 10.230739985605357 $333 $461 forward 7 unknown #
coedge $-1 $225 $224 $458 $462 forward $89 $-1 #
edge $-1 $340 -56.342051454206981 $460 56.342051454206981 $332 $463 forward 7 unknown #
coedge $-1 $345 $344 $225 $338 reversed $329 $-1 #
edge $-1 $464 -56.342051454206981 $339 56.342051454206981 $337 $465 forward 7 unknown #
vertex $-1 $227 $466 #
vertex $-1 $351 $467 #
straight-curve $-1 56.342051454206981 0 -10.230739985605357 0 -1 0 I I #
coedge $-1 $331 $333 $228 $343 reversed $221 $-1 #
edge $-1 $346 -22.85767469714515 $349 22.85767469714515 $342 $468 forward 7 unknown #
coedge $-1 $337 $229 $234 $352 forward $329 $-1 #
coedge $-1 $229 $337 $331 $459 reversed $329 $-1 #
vertex $-1 $230 $469 #
straight-curve $-1 0 22.85767469714515 10.230739985605357 -1 0 0 I I #
coedge $-1 $231 $332 $233 $351 reversed $139 $-1 #
vertex $-1 $343 $470 #
straight-curve $-1 0 -22.85767469714515 10.230739985605357 1 0 0 I I #
edge $-1 $236 -10.230739985605357 $340 10.230739985605357 $233 $471 forward 7 unknown #
edge $-1 $237 -10.230739985605357 $339 10.230739985605357 $234 $472 forward 7 unknown #
point $-1 56.342051454206981 -22.85767469714515 10.230739985605357 #
point $-1 56.342051454206981 22.85767469714515 10.230739985605357 #
face $-1 $-1 $254 $34 $-1 $473 reversed single #
loop $-1 $-1 $250 $239 #
plane-surface $-1 0 -22.85767469714515 0 0 1 0 0 0 1 forward_v I I I I #
coedge $-1 $474 $475 $247 $368 forward $240 $-1 #
coedge $-1 $369 $242 $244 $364 reversed $147 $-1 #
edge $-1 $366 -4.0538255170449844 $255 -0.077365715760987275 $253 $476 forward 7 unknown #
coedge $-1 $244 $243 $477 $478 reversed $93 $-1 #
coedge $-1 $373 $372 $243 $363 forward $356 $-1 #
edge $-1 $479 -56.342051454206981 $365 56.342051454206981 $362 $480 forward 7 unknown #
edge $-1 $481 -56.342051454206981 $366 56.342051454206981 $359 $482 forward 7 unknown #
vertex $-1 $363 $483 #
vertex $-1 $246 $484 #
straight-curve $-1 56.342051454206981 -8.9069038973859875 -6.11942113344797 0 1 0 I I #
edge $-1 $374 -13.950770799759162 $370 -3.8630369950128109 $358 $485 forward 7 unknown #
coedge $-1 $248 $359 $474 $486 reversed $147 $-1 #
vertex $-1 $368 $487 #
straight-curve $-1 0 -12.769940892398798 -2.1429613321639729 -1 0 0 I I #
coedge $-1 $362 $250 $475 $488 forward $356 $-1 #
coedge $-1 $250 $362 $252 $376 reversed $356 $-1 #
vertex $-1 $488 $489 #
straight-curve $-1 0 -22.85767469714515 -2.1429613321639729 -1 0 0 I I #
edge $-1 $256 2.1429613321639729 $365 6.11942113344797 $252 $490 forward 7 unknown #
point $-1 56.342051454206981 -12.769940892398798 -2.1429613321639729 #
point $-1 56.342051454206981 -22.85767469714515 -2.1429613321639729 #
plane-surface $-1 0 0 10.230739985605357 0 0 1 1 0 0 forward_v I I I I #
coedge $-1 $390 $389 $382 $491 forward $259 $-1 #
coedge $-1 $382 $261 $263 $386 reversed $155 $-1 #
coedge $-1 $261 $381 $380 $491 reversed $155 $-1 #
coedge $-1 $269 $264 $261 $384 forward $270 $-1 #
edge $-1 $387 -21.953703147863592 $492 -12.358054780833228 $383 $493 forward 7 unknown #
coedge $-1 $263 $262 $390 $494 reversed $97 $-1 #
edge $-1 $495 0 $387 13.813478528361717 $381 $496 forward 7 unknown #
vertex $-1 $265 $497 #
straight-curve $-1 -46.746403087176624 -1.270207946098175 10.230739985605357 0 1 0 I I #
coedge $-1 $380 $266 $269 $394 reversed $259 $-1 #
coedge $-1 $266 $380 $385 $494 forward $259 $-1 #
vertex $-1 $267 $498 #
straight-curve $-1 -56.342051454206981 -6.1683362323464408 39.285554663417507 0 0 1 I I #
straight-curve $-1 -56.342051454206981 -6.1683362323464408 0.29415498522330097 -0.69465836192734942 0 -0.71933980857756763 I I #
edge $-1 $492 -1.0875044479537408 $271 6.1683362323464408 $389 $499 forward 7 unknown #
point $-1 -56.342051454206981 -6.1683362323464408 10.230739985605357 #
point $-1 -46.746403087176617 -6.1683362323464408 10.230739985605357 #
edge $-1 $500 1 $500 0 $274 $-1 forward 7 unknown #
vertex $-1 $275 $501 #
ellipse-curve $-1 -50.229495300841236 -4.0952388951178165 3.9928256103844175 -0.71933980857756763 0 0.69465836192734942 0.34732918096367471 0 0.35966990428878381 1 I I #
point $-1 -51.196898089728123 -4.0952388951178165 5.6221173897031118 #
edge $-1 $502 1 $502 0 $278 $-1 forward 7 unknown #
vertex $-1 $279 $503 #
ellipse-curve $-1 -50.229495300841236 -0.98559288927487998 3.9928256103844175 -0.71933980857756763 0 0.69465836192734942 0.34732918096367471 0 0.35966990428878381 1 I I #
point $-1 -51.196898089728123 -0.98559288927487998 5.6221173897031118 #
loop $-1 $-1 $290 $282 #
plane-surface $-1 -56.342051454206981 0 0 1 0 0 0 0 -1 forward_v I I I I #
coedge $-1 $408 $285 $287 $412 reversed $177 $-1 #
coedge $-1 $285 $407 $504 $505 reversed $177 $-1 #
coedge $-1 $293 $288 $285 $410 forward $283 $-1 #
edge $-1 $413 -21.953703147863592 $506 -12.358054780833228 $409 $507 forward 7 unknown #
coedge $-1 $287 $286 $416 $508 reversed $111 $-1 #
edge $-1 $509 0 $413 13.813478528361717 $407 $510 forward 7 unknown #
vertex $-1 $289 $511 #
straight-curve $-1 -46.746403087176624 6.3140748484713534 10.230739985605357 0 1 0 I I #
coedge $-1 $504 $290 $293 $420 reversed $405 $-1 #
coedge $-1 $290 $504 $411 $508 forward $405 $-1 #
vertex $-1 $291 $512 #
straight-curve $-1 -56.342051454206981 9.0002293567926159 39.285554663417507 0 0 1 I I #
straight-curve $-1 -56.342051454206981 9.0002293567926159 0.29415498522330097 -0.69465836192734942 0 -0.71933980857756763 I I #
edge $-1 $506 -16.256070037092798 $294 -9.0002293567926159 $415 $513 forward 7 unknown #
point $-1 -56.342051454206981 9.0002293567926159 10.230739985605357 #
point $-1 -46.746403087176617 9.0002293567926159 10.230739985605357 #
edge $-1 $514 1 $514 0 $297 $-1 forward 7 unknown #
vertex $-1 $298 $515 #
ellipse-curve $-1 -50.229495300841236 11.07332669402124 3.9928256103844175 -0.71933980857756763 0 0.69465836192734942 0.34732918096367471 0 0.35966990428878381 1 I I #
point $-1 -51.196898089728123 11.07332669402124 5.6221173897031118 #
edge $-1 $516 1 $516 0 $301 $-1 forward 7 unknown #
vertex $-1 $302 $517 #
ellipse-curve $-1 -50.229495300841236 14.18297269986418 3.9928256103844175 -0.71933980857756763 0 0.69465836192734942 0.34732918096367471 0 0.35966990428878381 1 I I #
point $-1 -51.196898089728123 14.18297269986418 5.6221173897031118 #
loop $-1 $-1 $313 $305 #
plane-surface $-1 56.342051454206981 0 0 -1 0 0 0 0 1 forward_v I I I I #
coedge $-1 $434 $308 $310 $438 reversed $199 $-1 #
coedge $-1 $308 $433 $518 $519 reversed $199 $-1 #
coedge $-1 $316 $311 $308 $436 forward $306 $-1 #
edge $-1 $439 26.605448618716764 $520 30.951806037768193 $435 $521 forward 7 unknown #
coedge $-1 $310 $309 $442 $522 reversed $125 $-1 #
edge $-1 $523 -112.68410290841396 $439 -106.74120899215362 $433 $524 forward 7 unknown #
vertex $-1 $312 $525 #
straight-curve $-1 51.995694035155552 -4.2199013446878384 10.230739985605354 0 -1 0 I I #
coedge $-1 $518 $313 $316 $446 reversed $431 $-1 #
coedge $-1 $313 $518 $437 $522 forward $431 $-1 #
vertex $-1 $314 $526 #
straight-curve $-1 56.342051454206981 -4.1096644863525569 82.720002629259724 0 0 1 I I #
straight-curve $-1 -26.069883469466021 -4.1096644863525569 83.028070334846447 0.7313536940579346 0 -0.68199836817093118 I I #
edge $-1 $520 -12.769940892398797 $317 -4.1096644863525569 $441 $527 forward 7 unknown #
point $-1 56.342051454206981 -4.1096644863525569 10.230739985605357 #
point $-1 51.995694035155552 -4.1096644863525569 10.230739985605354 #
edge $-1 $528 1 $528 0 $320 $-1 forward 7 unknown #
vertex $-1 $321 $529 #
ellipse-curve $-1 52.50924000804951 -10.295576204957014 6.4244798317173908 0.68199836817093118 0 0.7313536940579346 0.7313536940579346 0 -0.68199836817093118 1 I I #
point $-1 54.900226438739224 -10.295576204957014 7.522219640883157 #
edge $-1 $530 1 $530 0 $324 $-1 forward 7 unknown #
vertex $-1 $325 $531 #
ellipse-curve $-1 52.50924000804951 -6.5840291737943417 6.4244798317173908 0.68199836817093118 0 0.7313536940579346 0.7313536940579346 0 -0.68199836817093118 1 I I #
point $-1 54.900226438739224 -6.5840291737943417 7.522219640883157 #
plane-surface $-1 56.342051454206981 0 0 -1 0 0 0 0 1 forward_v I I I I #
coedge $-1 $333 $331 $335 $462 reversed $221 $-1 #
edge $-1 $346 -10.230739985605357 $464 10.230739985605357 $345 $532 forward 7 unknown #
vertex $-1 $462 $533 #
straight-curve $-1 -56.342051454206981 -22.85767469714515 0 0 0 -1 I I #
edge $-1 $460 -22.85767469714515 $464 22.85767469714515 $458 $534 forward 7 unknown #
straight-curve $-1 0 -22.85767469714515 -10.230739985605357 -1 0 0 I I #
vertex $-1 $338 $535 #
straight-curve $-1 0 22.85767469714515 -10.230739985605357 1 0 0 I I #
point $-1 56.342051454206981 22.85767469714515 -10.230739985605357 #
point $-1 56.342051454206981 -22.85767469714515 -10.230739985605357 #
straight-curve $-1 -56.342051454206981 0 10.230739985605357 0 -1 0 I I #
point $-1 -56.342051454206981 22.85767469714515 10.230739985605357 #
point $-1 -56.342051454206981 -22.85767469714515 10.230739985605357 #
straight-curve $-1 56.342051454206981 -22.85767469714515 0 0 0 -1 I I #
straight-curve $-1 56.342051454206981 22.85767469714515 0 0 0 -1 I I #
plane-surface $-1 56.342051454206981 0 0 -1 0 0 0 0 1 forward_v I I I I #
coedge $-1 $477 $358 $369 $486 forward $240 $-1 #
coedge $-1 $358 $477 $372 $488 reversed $240 $-1 #
straight-curve $-1 56.342051454206981 -12.769940892398798 -2.0655956164029856 0 0 1 I I #
coedge $-1 $475 $474 $361 $478 forward $240 $-1 #
edge $-1 $481 3.8630369950128109 $479 13.950770799759162 $477 $536 forward 7 unknown #
vertex $-1 $363 $537 #
straight-curve $-1 0 -22.85767469714515 -6.11942113344797 1 0 0 I I #
vertex $-1 $478 $538 #
straight-curve $-1 0 -12.769940892398798 -6.11942113344797 1 0 0 I I #
point $-1 56.342051454206981 -22.85767469714515 -6.11942113344797 #
point $-1 56.342051454206981 -12.769940892398798 -6.11942113344797 #
straight-curve $-1 -56.342051454206981 -8.9069038973859875 -2.1429613321639729 0 1 0 I I #
edge $-1 $370 0.077365715760987275 $481 4.0538255170449844 $474 $539 forward 7 unknown #
point $-1 -56.342051454206981 -12.769940892398798 -2.1429613321639729 #
edge $-1 $374 2.1429613321639729 $479 6.11942113344797 $475 $540 forward 7 unknown #
point $-1 -56.342051454206981 -22.85767469714515 -2.1429613321639729 #
straight-curve $-1 56.342051454206981 -22.85767469714515 0 0 0 -1 I I #
edge $-1 $492 29.05481467781215 $495 38.991399678194206 $380 $541 forward 7 unknown #
vertex $-1 $394 $542 #
straight-curve $-1 -68.700106235040209 1.0875044479537408 10.230739985605354 -1 0 0 I I #
edge $-1 $495 -2.3577123940519158 $391 4.8981282862482658 $390 $543 forward 7 unknown #
vertex $-1 $494 $544 #
straight-curve $-1 -56.342051454206981 1.0875044479537408 0.29415498522330097 0.69465836192734942 0 0.71933980857756763 I I #
point $-1 -46.746403087176617 1.0875044479537408 10.230739985605357 #
point $-1 -56.342051454206981 -6.1683362323464408 0.29415498522330097 #
straight-curve $-1 -56.342051454206981 0 10.230739985605357 0 -1 0 I I #
vertex $-1 $397 $545 #
point $-1 -49.882166119877567 -4.0952388951178165 4.3524955146732012 #
vertex $-1 $401 $546 #
point $-1 -49.882166119877567 -0.98559288927487998 4.3524955146732012 #
coedge $-1 $416 $415 $408 $505 forward $405 $-1 #
edge $-1 $506 29.05481467781215 $509 38.991399678194206 $504 $547 forward 7 unknown #
vertex $-1 $420 $548 #
straight-curve $-1 -68.700106235040209 16.256070037092798 10.230739985605354 -1 0 0 I I #
edge $-1 $509 -9.9419951886214442 $417 -2.6861545083212626 $416 $549 forward 7 unknown #
vertex $-1 $508 $550 #
straight-curve $-1 -56.342051454206981 16.256070037092798 0.29415498522330097 0.69465836192734942 0 0.71933980857756763 I I #
point $-1 -46.746403087176617 16.256070037092798 10.230739985605357 #
point $-1 -56.342051454206981 9.0002293567926159 0.29415498522330097 #
straight-curve $-1 -56.342051454206981 0 10.230739985605357 0 -1 0 I I #
vertex $-1 $423 $551 #
point $-1 -49.882166119877567 11.07332669402124 4.3524955146732012 #
vertex $-1 $427 $552 #
point $-1 -49.882166119877567 14.18297269986418 4.3524955146732012 #
coedge $-1 $442 $441 $434 $519 forward $431 $-1 #
edge $-1 $520 72.489262643654371 $523 76.542306596756873 $518 $553 forward 7 unknown #
vertex $-1 $446 $554 #
straight-curve $-1 25.390245416438788 -12.769940892398797 10.230739985605354 1 0 0 I I #
edge $-1 $523 -8.5500395477109592 $443 0.11023685833528152 $442 $555 forward 7 unknown #
vertex $-1 $522 $556 #
straight-curve $-1 -26.069883469466021 -12.769940892398797 83.028070334846447 -0.7313536940579346 0 0.68199836817093118 I I #
point $-1 51.995694035155552 -12.769940892398797 10.230739985605354 #
point $-1 56.342051454206981 -4.1096644863525569 6.1776960325028512 #
straight-curve $-1 56.342051454206981 0 10.230739985605357 0 1 0 I I #
vertex $-1 $449 $557 #
point $-1 53.240593702107439 -10.295576204957014 5.7424814635464596 #
vertex $-1 $453 $558 #
point $-1 53.240593702107439 -6.5840291737943417 5.7424814635464596 #
straight-curve $-1 -56.342051454206981 22.85767469714515 0 0 0 -1 I I #
point $-1 -56.342051454206981 -22.85767469714515 -10.230739985605357 #
straight-curve $-1 -56.342051454206981 0 -10.230739985605357 0 1 0 I I #
point $-1 -56.342051454206981 22.85767469714515 -10.230739985605357 #
straight-curve $-1 -56.342051454206981 -8.9069038973859875 -6.11942113344797 0 -1 0 I I #
point $-1 -56.342051454206981 -22.85767469714515 -6.11942113344797 #
point $-1 -56.342051454206981 -12.769940892398798 -6.11942113344797 #
straight-curve $-1 -56.342051454206981 -12.769940892398798 -2.0655956164029856 0 0 -1 I I #
straight-curve $-1 -56.342051454206981 -22.85767469714515 0 0 0 -1 I I #
straight-curve $-1 -56.342051454206981 1.0875044479537408 39.285554663417507 0 0 -1 I I #
point $-1 -56.342051454206981 1.0875044479537408 10.230739985605357 #
straight-curve $-1 -56.342051454206981 -1.270207946098175 0.29415498522329997 0 -1 0 I I #
point $-1 -56.342051454206981 1.0875044479537408 0.29415498522330097 #
point $-1 -49.869825396552457 -4.0952388951178165 3.645496429420743 #
point $-1 -49.869825396552457 -0.98559288927487998 3.645496429420743 #
straight-curve $-1 -56.342051454206981 16.256070037092798 39.285554663417507 0 0 -1 I I #
point $-1 -56.342051454206981 16.256070037092798 10.230739985605357 #
straight-curve $-1 -56.342051454206981 6.3140748484713534 0.29415498522329997 0 -1 0 I I #
point $-1 -56.342051454206981 16.256070037092798 0.29415498522330097 #
point $-1 -49.869825396552457 11.07332669402124 3.645496429420743 #
point $-1 -49.869825396552457 14.18297269986418 3.645496429420743 #
straight-curve $-1 56.342051454206981 -12.769940892398797 82.720002629259724 0 0 -1 I I #
point $-1 56.342051454206981 -12.769940892398797 10.230739985605357 #
straight-curve $-1 56.342051454206981 -4.2199013446878384 6.1776960325028512 0 1 0 I I #
point $-1 56.342051454206981 -12.769940892398797 6.1776960325028512 #
point $-1 51.827241639878572 -10.295576204957014 5.6931261376594557 #
point $-1 51.827241639878572 -6.5840291737943417 5.6931261376594557 #
End-of-ACIS-data 