500 0 8 0           
7 Unknown 11 ACIS 5.0 NT 24 Thu Mar 25 16:56:39 1999 
-1 9.9999999999999995e-007 1e-010 
body $-1 $8 $-1 $9 #
body $-1 $10 $-1 $11 #
body $-1 $12 $-1 $13 #
body $-1 $14 $-1 $15 #
body $-1 $16 $-1 $17 #
body $-1 $18 $-1 $19 #
body $-1 $20 $-1 $21 #
body $-1 $22 $-1 $23 #
lump $-1 $-1 $24 $0 #
transform $-1 1 0 0 0 1 0 0 0 1 43.825800347911006 20.585433306518699 6.7624659321277081 1 rotate no_reflect no_shear #
lump $-1 $-1 $25 $1 #
transform $-1 1 0 0 0 1 0 0 0 1 43.825800347911006 20.585433306518699 6.7624659321277081 1 rotate no_reflect no_shear #
lump $-1 $-1 $26 $2 #
transform $-1 1 0 0 0 1 0 0 0 1 43.825800347911006 20.585433306518699 6.7624659321277081 1 rotate no_reflect no_shear #
lump $-1 $-1 $27 $3 #
transform $-1 1 0 0 0 1 0 0 0 1 43.825800347911006 20.585433306518699 6.7624659321277081 1 rotate no_reflect no_shear #
lump $-1 $-1 $28 $4 #
transform $-1 1 0 0 0 1 0 0 0 1 43.825800347911006 20.585433306518699 6.7624659321277081 1 rotate no_reflect no_shear #
lump $-1 $-1 $29 $5 #
transform $-1 1 0 0 0 1 0 0 0 1 43.825800347911006 20.585433306518699 6.7624659321277081 1 rotate no_reflect no_shear #
lump $-1 $-1 $30 $6 #
transform $-1 1 0 0 0 1 0 0 0 1 43.825800347911006 20.585433306518699 6.7624659321277081 1 rotate no_reflect no_shear #
lump $-1 $-1 $31 $7 #
transform $-1 1 0 0 0 1 0 0 0 1 43.825800347911006 20.585433306518699 6.7624659321277081 1 rotate no_reflect no_shear #
shell $-1 $-1 $-1 $32 $-1 $8 #
shell $-1 $-1 $-1 $33 $-1 $10 #
shell $-1 $-1 $-1 $34 $-1 $12 #
shell $-1 $-1 $-1 $35 $-1 $14 #
shell $-1 $-1 $-1 $36 $-1 $16 #
shell $-1 $-1 $-1 $37 $-1 $18 #
shell $-1 $-1 $-1 $38 $-1 $20 #
shell $-1 $-1 $-1 $39 $-1 $22 #
face $-1 $40 $41 $24 $-1 $42 forward single #
face $-1 $43 $44 $25 $-1 $45 reversed single #
face $-1 $46 $47 $26 $-1 $48 reversed single #
face $-1 $49 $50 $27 $-1 $51 forward single #
face $-1 $52 $53 $28 $-1 $54 reversed single #
face $-1 $55 $56 $29 $-1 $57 forward single #
face $-1 $58 $59 $30 $-1 $60 forward single #
face $-1 $61 $62 $31 $-1 $63 forward single #
face $-1 $64 $65 $24 $-1 $66 reversed single #
loop $-1 $-1 $67 $32 #
plane-surface $-1 0 0 6.7624659321277081 0 0 1 1 0 0 forward_v I I I I #
face $-1 $68 $69 $25 $-1 $70 reversed single #
loop $-1 $-1 $71 $33 #
plane-surface $-1 -39.872887536088562 0 3.4997159425839675 0 0 1 1 0 0 forward_v I I I I #
face $-1 $72 $73 $26 $-1 $74 reversed single #
loop $-1 $-1 $75 $34 #
plane-surface $-1 37.317905519829232 -20.585433306518695 1.6441770586912554 0 -0.55919291073839883 0.82903756765294845 1 0 0 forward_v I I I I #
face $-1 $76 $77 $27 $-1 $78 forward single #
loop $-1 $79 $80 $35 #
cone-surface $-1 37.317905519829232 -15.416734969664667 2.1653772832658755 0 0.55919291073839883 -0.82903756765294845 2 0 0 1 I I 0 1 2 forward I I I I #
face $-1 $81 $82 $28 $-1 $83 reversed single #
loop $-1 $-1 $84 $36 #
plane-surface $-1 -5.0347660313631231 40.454968256175931 98.139390807097428 1 0 0 0 -0.6018150307709319 -0.79863550430605224 forward_v I I I I #
face $-1 $85 $86 $29 $-1 $87 forward single #
loop $-1 $88 $89 $37 #
cone-surface $-1 -2.06684181796183 17.408509186330811 3.8410884598981596 0 -0.6018150307709319 -0.79863550430605224 1 0 0 1 I I 0 1 1 forward I I I I #
face $-1 $90 $91 $30 $-1 $92 forward single #
loop $-1 $93 $94 $38 #
cone-surface $-1 2.3850445021401043 17.408509186330811 3.8410884598981596 0 -0.6018150307709319 -0.79863550430605224 1 0 0 1 I I 0 1 1 forward I I I I #
face $-1 $95 $96 $31 $-1 $97 forward single #
loop $-1 $98 $99 $39 #
cone-surface $-1 6.8369308222420386 17.408509186330811 3.8410884598981596 0 -0.6018150307709319 -0.79863550430605224 1 0 0 1 I I 0 1 1 forward I I I I #
face $-1 $100 $101 $24 $-1 $102 reversed single #
loop $-1 $-1 $103 $40 #
plane-surface $-1 0 0 -6.7624659321277081 0 0 1 1 0 0 forward_v I I I I #
coedge $-1 $104 $105 $106 $107 forward $41 $-1 #
face $-1 $108 $109 $25 $-1 $110 reversed single #
loop $-1 $-1 $111 $43 #
plane-surface $-1 -35.919974724266119 0 5.1310909373558387 -1 0 0 0 0 1 forward_v I I I I #
coedge $-1 $112 $113 $114 $115 forward $44 $-1 #
face $-1 $116 $117 $26 $-1 $118 reversed single #
loop $-1 $-1 $119 $46 #
plane-surface $-1 30.810010691747465 -69.599587030495272 74.310646900443018 1 0 0 0 0.55919291073839883 -0.82903756765294845 forward_v I I I I #
coedge $-1 $120 $121 $122 $123 reversed $47 $-1 #
face $-1 $-1 $124 $27 $-1 $125 forward single #
loop $-1 $126 $127 $49 #
cone-surface $-1 37.317905519829232 -13.482931304992231 -0.7016044965306838 0 0.55919291073839883 -0.82903756765294845 1 0 0 1 I I -0.70710678118654746 0.70710678118654746 1 forward I I I I #
loop $-1 $-1 $128 $35 #
coedge $-1 $80 $80 $129 $130 reversed $50 $-1 #
face $-1 $131 $132 $28 $-1 $133 reversed single #
loop $-1 $-1 $134 $52 #
plane-surface $-1 2.3850445021400972 -12.29508251370163 28.137710482156891 0 0.6018150307709319 0.79863550430605224 1 0 0 forward_v I I I I #
coedge $-1 $135 $136 $137 $138 reversed $53 $-1 #
face $-1 $-1 $139 $29 $-1 $140 forward single #
loop $-1 $141 $142 $55 #
cone-surface $-1 -2.06684181796183 16.187981946887117 2.221394139296506 0 -0.6018150307709319 -0.79863550430605224 0.5 0 0 1 I I -0.70710678118654746 0.70710678118654746 0.5 forward I I I I #
loop $-1 $-1 $143 $37 #
coedge $-1 $89 $89 $144 $145 reversed $56 $-1 #
face $-1 $-1 $146 $30 $-1 $147 forward single #
loop $-1 $148 $149 $58 #
cone-surface $-1 2.3850445021401043 16.187981946887117 2.221394139296506 0 -0.6018150307709319 -0.79863550430605224 0.5 0 0 1 I I -0.70710678118654746 0.70710678118654746 0.5 forward I I I I #
loop $-1 $-1 $150 $38 #
coedge $-1 $94 $94 $151 $152 reversed $59 $-1 #
face $-1 $-1 $153 $31 $-1 $154 forward single #
loop $-1 $155 $156 $61 #
cone-surface $-1 6.8369308222420386 16.187981946887117 2.221394139296506 0 -0.6018150307709319 -0.79863550430605224 0.5 0 0 1 I I -0.70710678118654746 0.70710678118654746 0.5 forward I I I I #
loop $-1 $-1 $157 $39 #
coedge $-1 $99 $99 $158 $159 reversed $62 $-1 #
face $-1 $160 $161 $24 $-1 $162 reversed single #
loop $-1 $-1 $163 $64 #
plane-surface $-1 0 -20.585433306518699 0 0 1 0 0 0 1 forward_v I I I I #
coedge $-1 $164 $165 $166 $167 forward $65 $-1 #
coedge $-1 $168 $67 $169 $170 forward $41 $-1 #
coedge $-1 $67 $168 $171 $172 forward $41 $-1 #
coedge $-1 $173 $174 $67 $107 reversed $175 $-1 #
edge $-1 $176 -20.585433306518699 $177 20.585433306518699 $106 $178 forward 7 unknown #
face $-1 $179 $180 $25 $-1 $181 reversed single #
loop $-1 $-1 $182 $68 #
plane-surface $-1 0 20.585433306518699 0 0 -1 0 0 0 -1 forward_v I I I I #
coedge $-1 $114 $183 $184 $185 reversed $69 $-1 #
coedge $-1 $186 $71 $187 $188 reversed $44 $-1 #
coedge $-1 $71 $186 $189 $190 reversed $44 $-1 #
coedge $-1 $191 $111 $71 $115 reversed $69 $-1 #
edge $-1 $192 -20.585433306518699 $193 20.585433306518699 $114 $194 forward 7 unknown #
face $-1 $195 $196 $26 $-1 $197 forward single #
loop $-1 $-1 $198 $72 #
plane-surface $-1 43.825800347911006 0 0 -1 0 0 0 0 1 forward_v I I I I #
coedge $-1 $199 $200 $201 $202 reversed $73 $-1 #
coedge $-1 $203 $75 $198 $204 reversed $47 $-1 #
coedge $-1 $75 $203 $199 $205 forward $47 $-1 #
coedge $-1 $201 $206 $75 $123 forward $196 $-1 #
edge $-1 $207 -25.166847587996383 $208 -12.151057931832849 $122 $209 forward 7 unknown #
loop $-1 $-1 $129 $76 #
plane-surface $-1 37.317905519829232 -20.585433306518695 1.6441770586912554 0 -0.55919291073839883 0.82903756765294845 1 0 0 forward_v I I I I #
loop $-1 $-1 $210 $49 #
coedge $-1 $127 $127 $128 $211 reversed $77 $-1 #
coedge $-1 $128 $128 $127 $211 forward $79 $-1 #
coedge $-1 $129 $129 $80 $130 forward $124 $-1 #
edge $-1 $212 -4.6201772800440444e-016 $212 6.2831853071795996 $129 $213 forward 7 unknown #
face $-1 $214 $215 $28 $-1 $216 reversed single #
loop $-1 $-1 $217 $81 #
plane-surface $-1 9.8048550356433175 40.454968256175931 98.139390807097428 -1 0 0 0 0.6018150307709319 0.79863550430605224 forward_v I I I I #
coedge $-1 $218 $219 $220 $221 reversed $82 $-1 #
coedge $-1 $136 $84 $222 $223 reversed $53 $-1 #
coedge $-1 $84 $135 $218 $224 reversed $53 $-1 #
coedge $-1 $220 $225 $84 $138 forward $226 $-1 #
edge $-1 $227 -0.35794917843073293 $228 4.1566596138285803 $137 $229 forward 7 unknown #
loop $-1 $-1 $144 $85 #
plane-surface $-1 2.3850445021400972 -12.29508251370163 28.137710482156891 0 0.6018150307709319 0.79863550430605224 1 0 0 forward_v I I I I #
loop $-1 $-1 $230 $55 #
coedge $-1 $142 $142 $143 $231 reversed $86 $-1 #
coedge $-1 $143 $143 $142 $231 forward $88 $-1 #
coedge $-1 $144 $144 $89 $145 forward $139 $-1 #
edge $-1 $232 -5.3451912298190854e-016 $232 6.2831853071795996 $144 $233 forward 7 unknown #
loop $-1 $-1 $151 $90 #
plane-surface $-1 2.3850445021400972 -12.29508251370163 28.137710482156891 0 0.6018150307709319 0.79863550430605224 1 0 0 forward_v I I I I #
loop $-1 $-1 $234 $58 #
coedge $-1 $149 $149 $150 $235 reversed $91 $-1 #
coedge $-1 $150 $150 $149 $235 forward $93 $-1 #
coedge $-1 $151 $151 $94 $152 forward $146 $-1 #
edge $-1 $236 -5.3451912298190854e-016 $236 6.2831853071795996 $151 $237 forward 7 unknown #
loop $-1 $-1 $158 $95 #
plane-surface $-1 2.3850445021400972 -12.29508251370163 28.137710482156891 0 0.6018150307709319 0.79863550430605224 1 0 0 forward_v I I I I #
loop $-1 $-1 $238 $61 #
coedge $-1 $156 $156 $157 $239 reversed $96 $-1 #
coedge $-1 $157 $157 $156 $239 forward $98 $-1 #
coedge $-1 $158 $158 $99 $159 forward $153 $-1 #
edge $-1 $240 -5.3451912298190854e-016 $240 6.2831853071795996 $158 $241 forward 7 unknown #
face $-1 $242 $243 $24 $-1 $244 reversed single #
loop $-1 $-1 $245 $100 #
plane-surface $-1 -43.825800347911006 0 0 1 0 0 0 0 -1 forward_v I I I I #
coedge $-1 $246 $171 $247 $248 forward $101 $-1 #
coedge $-1 $249 $103 $246 $250 forward $65 $-1 #
coedge $-1 $103 $249 $251 $252 forward $65 $-1 #
coedge $-1 $174 $173 $103 $167 reversed $175 $-1 #
edge $-1 $253 -20.585433306518699 $254 20.585433306518699 $166 $255 forward 7 unknown #
coedge $-1 $105 $104 $256 $257 forward $41 $-1 #
coedge $-1 $258 $259 $104 $170 reversed $243 $-1 #
edge $-1 $177 -43.825800347911006 $260 43.825800347911006 $169 $261 forward 7 unknown #
coedge $-1 $163 $262 $105 $172 reversed $101 $-1 #
edge $-1 $263 -43.825800347911006 $176 43.825800347911006 $171 $264 forward 7 unknown #
coedge $-1 $166 $106 $262 $265 forward $175 $-1 #
coedge $-1 $106 $166 $258 $266 reversed $175 $-1 #
loop $-1 $-1 $173 $242 #
vertex $-1 $107 $267 #
vertex $-1 $107 $268 #
straight-curve $-1 43.825800347911006 0 6.7624659321277081 0 1 0 I I #
face $-1 $269 $270 $25 $-1 $271 forward single #
loop $-1 $-1 $272 $108 #
plane-surface $-1 -43.825800347911006 0 0 1 0 0 0 0 -1 forward_v I I I I #
coedge $-1 $189 $273 $191 $274 forward $109 $-1 #
coedge $-1 $111 $191 $275 $276 reversed $69 $-1 #
coedge $-1 $277 $187 $111 $185 forward $278 $-1 #
edge $-1 $193 0.93417047390604813 $279 4.196920463449791 $184 $280 forward 7 unknown #
coedge $-1 $113 $112 $272 $281 reversed $44 $-1 #
coedge $-1 $184 $282 $112 $188 forward $278 $-1 #
edge $-1 $283 -23.889356579866725 $193 -15.983530956221838 $187 $284 forward 7 unknown #
coedge $-1 $285 $182 $113 $190 forward $109 $-1 #
edge $-1 $192 15.983530956221838 $286 23.889356579866725 $189 $287 forward 7 unknown #
coedge $-1 $183 $114 $182 $274 reversed $69 $-1 #
vertex $-1 $190 $288 #
vertex $-1 $188 $289 #
straight-curve $-1 -35.919974724266119 0 3.4997159425839675 0 -1 0 I I #
face $-1 $-1 $290 $26 $-1 $291 reversed single #
loop $-1 $-1 $122 $116 #
plane-surface $-1 0 0 6.7624659321277081 0 0 1 1 0 0 forward_v I I I I #
coedge $-1 $292 $293 $120 $204 forward $117 $-1 #
coedge $-1 $200 $119 $121 $205 reversed $73 $-1 #
coedge $-1 $119 $199 $294 $295 reversed $73 $-1 #
coedge $-1 $296 $122 $119 $202 forward $196 $-1 #
edge $-1 $208 -21.802535374568947 $297 -14.214360208728937 $201 $298 forward 7 unknown #
coedge $-1 $121 $120 $299 $300 reversed $47 $-1 #
edge $-1 $301 -8.0733427011496985 $207 1.0796504343997053 $198 $302 forward 7 unknown #
edge $-1 $303 -4.3111565651997722e-015 $208 9.1529931355493996 $199 $304 forward 7 unknown #
coedge $-1 $122 $296 $292 $305 forward $196 $-1 #
vertex $-1 $123 $306 #
vertex $-1 $123 $307 #
straight-curve $-1 18.658952759914616 -12.997258140678687 6.7624659321277081 -1 0 0 I I #
coedge $-1 $210 $210 $-1 $308 reversed $126 $-1 #
edge $-1 $309 0 $309 6.2831853071796004 $127 $310 forward 7 unknown #
vertex $-1 $130 $311 #
ellipse-curve $-1 37.317905519829232 -16.791345723598695 4.2033214954094777 0 -0.55919291073839883 0.82903756765294845 2 0 0 1 I I #
face $-1 $-1 $226 $28 $-1 $312 forward single #
loop $-1 $-1 $313 $131 #
plane-surface $-1 0 20.585433306518699 0 0 -1 0 0 0 -1 forward_v I I I I #
coedge $-1 $314 $315 $316 $317 reversed $132 $-1 #
coedge $-1 $318 $134 $136 $224 forward $82 $-1 #
coedge $-1 $134 $318 $314 $319 forward $82 $-1 #
coedge $-1 $316 $137 $134 $221 forward $226 $-1 #
edge $-1 $228 -6.2272882824331717 $320 8.6123327845732689 $220 $321 forward 7 unknown #
coedge $-1 $322 $323 $135 $223 forward $215 $-1 #
edge $-1 $324 -45.709231278982855 $227 -42.307229471421003 $222 $325 forward 7 unknown #
edge $-1 $228 35.517963920986247 $324 41.17086661303739 $136 $326 forward 7 unknown #
coedge $-1 $137 $316 $322 $327 forward $226 $-1 #
loop $-1 $-1 $316 $214 #
vertex $-1 $223 $328 #
vertex $-1 $138 $329 #
straight-curve $-1 -5.0347660313631231 20.227484128087966 6.7624659321277107 0 -1 0 I I #
coedge $-1 $230 $230 $-1 $330 reversed $141 $-1 #
edge $-1 $331 0 $331 6.2831853071796004 $142 $332 forward 7 unknown #
vertex $-1 $145 $333 #
ellipse-curve $-1 -2.06684181796183 18.328128910389037 5.0614650283467864 0 0.6018150307709319 0.79863550430605224 1 0 0 1 I I #
coedge $-1 $234 $234 $-1 $334 reversed $148 $-1 #
edge $-1 $335 0 $335 6.2831853071796004 $149 $336 forward 7 unknown #
vertex $-1 $152 $337 #
ellipse-curve $-1 2.3850445021401043 18.328128910389037 5.0614650283467864 0 0.6018150307709319 0.79863550430605224 1 0 0 1 I I #
coedge $-1 $238 $238 $-1 $338 reversed $155 $-1 #
edge $-1 $339 0 $339 6.2831853071796004 $156 $340 forward 7 unknown #
vertex $-1 $159 $341 #
ellipse-curve $-1 6.8369308222420386 18.328128910389037 5.0614650283467864 0 0.6018150307709319 0.79863550430605224 1 0 0 1 I I #
face $-1 $-1 $175 $24 $-1 $342 reversed single #
loop $-1 $-1 $258 $160 #
plane-surface $-1 0 20.585433306518699 0 0 -1 0 0 0 -1 forward_v I I I I #
coedge $-1 $343 $256 $259 $344 forward $161 $-1 #
coedge $-1 $262 $163 $164 $250 reversed $101 $-1 #
coedge $-1 $256 $343 $163 $248 reversed $161 $-1 #
edge $-1 $263 -6.7624659321277081 $345 6.7624659321277081 $247 $346 forward 7 unknown #
coedge $-1 $165 $164 $343 $347 forward $65 $-1 #
edge $-1 $254 -43.825800347911006 $345 43.825800347911006 $246 $348 forward 7 unknown #
coedge $-1 $259 $258 $165 $252 reversed $243 $-1 #
edge $-1 $349 -43.825800347911006 $253 43.825800347911006 $251 $350 forward 7 unknown #
vertex $-1 $167 $351 #
vertex $-1 $265 $352 #
straight-curve $-1 43.825800347911006 0 -6.7624659321277081 0 -1 0 I I #
coedge $-1 $245 $247 $168 $257 reversed $161 $-1 #
edge $-1 $260 -20.585433306518699 $263 20.585433306518699 $256 $353 forward 7 unknown #
coedge $-1 $251 $169 $174 $266 forward $243 $-1 #
coedge $-1 $169 $251 $245 $344 reversed $243 $-1 #
vertex $-1 $170 $354 #
straight-curve $-1 0 20.585433306518699 6.7624659321277081 -1 0 0 I I #
coedge $-1 $171 $246 $173 $265 reversed $101 $-1 #
vertex $-1 $257 $355 #
straight-curve $-1 0 -20.585433306518699 6.7624659321277081 1 0 0 I I #
edge $-1 $176 -6.7624659321277081 $254 6.7624659321277081 $173 $356 forward 7 unknown #
edge $-1 $177 -6.7624659321277081 $253 6.7624659321277081 $174 $357 forward 7 unknown #
point $-1 43.825800347911006 -20.585433306518699 6.7624659321277081 #
point $-1 43.825800347911006 20.585433306518699 6.7624659321277081 #
face $-1 $-1 $278 $25 $-1 $358 reversed single #
loop $-1 $-1 $275 $179 #
plane-surface $-1 0 0 6.7624659321277081 0 0 1 1 0 0 forward_v I I I I #
coedge $-1 $359 $360 $186 $281 forward $180 $-1 #
coedge $-1 $182 $285 $361 $362 reversed $109 $-1 #
edge $-1 $363 -4.196920463449791 $192 -0.93417047390604813 $182 $364 forward 7 unknown #
coedge $-1 $361 $365 $183 $276 forward $270 $-1 #
edge $-1 $279 -20.585433306518699 $363 20.585433306518699 $275 $366 forward 7 unknown #
coedge $-1 $282 $184 $365 $367 reversed $278 $-1 #
loop $-1 $-1 $184 $269 #
vertex $-1 $185 $368 #
straight-curve $-1 -35.919974724266119 -20.585433306518699 2.5655454686779193 0 0 1 I I #
edge $-1 $286 -20.585433306518699 $283 20.585433306518699 $272 $369 forward 7 unknown #
coedge $-1 $187 $277 $359 $370 forward $278 $-1 #
vertex $-1 $281 $371 #
straight-curve $-1 -19.936443768044281 -20.585433306518699 3.4997159425839675 1 0 0 I I #
coedge $-1 $273 $189 $360 $372 reversed $109 $-1 #
vertex $-1 $281 $373 #
straight-curve $-1 -19.936443768044281 20.585433306518699 3.4997159425839675 -1 0 0 I I #
point $-1 -35.919974724266119 20.585433306518699 3.4997159425839675 #
point $-1 -35.919974724266119 -20.585433306518699 3.4997159425839675 #
loop $-1 $-1 $299 $195 #
plane-surface $-1 0 -20.585433306518699 0 0 1 0 0 0 1 forward_v I I I I #
coedge $-1 $293 $198 $206 $305 reversed $117 $-1 #
coedge $-1 $198 $292 $374 $375 forward $117 $-1 #
coedge $-1 $299 $376 $200 $295 forward $290 $-1 #
edge $-1 $297 30.392857518093802 $303 35.511146391530254 $294 $377 forward 7 unknown #
coedge $-1 $206 $201 $376 $378 forward $196 $-1 #
vertex $-1 $378 $379 #
straight-curve $-1 30.810010691747465 -34.799793515247636 6.7624659321277107 0 -1 0 I I #
coedge $-1 $374 $294 $203 $300 forward $290 $-1 #
edge $-1 $303 12.151057931832849 $301 25.166847587996383 $299 $380 forward 7 unknown #
vertex $-1 $300 $381 #
straight-curve $-1 43.825800347911006 -13.892328910728867 6.1587330631357595 0 0.82903756765294845 0.55919291073839883 I I #
vertex $-1 $300 $382 #
straight-curve $-1 30.810010691747465 -20.585433306518695 1.6441770586912554 0 0.82903756765294845 0.55919291073839883 I I #
edge $-1 $383 -20.585433306518699 $207 -12.997258140678687 $292 $384 forward 7 unknown #
point $-1 43.825800347910999 -12.997258140678687 6.7624659321277081 #
point $-1 30.810010691747465 -12.997258140678687 6.7624659321277081 #
edge $-1 $385 1 $385 0 $210 $-1 forward 7 unknown #
vertex $-1 $211 $386 #
ellipse-curve $-1 37.317905519829232 -14.042124215730631 0.12743307112226465 0 -0.55919291073839883 0.82903756765294845 2 0 0 1 I I #
point $-1 39.317905519829232 -16.791345723598702 4.2033214954094866 #
plane-surface $-1 0 0 6.7624659321277081 0 0 1 1 0 0 forward_v I I I I #
coedge $-1 $323 $322 $315 $387 forward $215 $-1 #
coedge $-1 $315 $217 $219 $319 reversed $132 $-1 #
coedge $-1 $217 $314 $313 $387 reversed $132 $-1 #
coedge $-1 $225 $220 $217 $317 forward $226 $-1 #
edge $-1 $320 -4.1566596138285803 $388 0.35794917843073293 $316 $389 forward 7 unknown #
coedge $-1 $219 $218 $323 $390 reversed $82 $-1 #
edge $-1 $391 -41.17086661303739 $320 -35.517963920986247 $314 $392 forward 7 unknown #
vertex $-1 $221 $393 #
straight-curve $-1 1.1925222510700486 16.070824514259389 6.7624659321277072 1 0 0 I I #
coedge $-1 $313 $222 $225 $327 reversed $215 $-1 #
coedge $-1 $222 $313 $318 $390 forward $215 $-1 #
vertex $-1 $223 $394 #
straight-curve $-1 -5.0347660313631231 20.585433306518699 49.069695403548714 0 0 1 I I #
straight-curve $-1 -5.0347660313631231 -12.29508251370163 28.137710482156891 0 0.79863550430605224 -0.6018150307709319 I I #
edge $-1 $388 -9.8048550356433175 $227 5.0347660313631231 $322 $395 forward 7 unknown #
point $-1 -5.0347660313631231 20.585433306518699 6.7624659321277081 #
point $-1 -5.0347660313631231 16.070824514259385 6.7624659321277072 #
edge $-1 $396 1 $396 0 $230 $-1 forward 7 unknown #
vertex $-1 $231 $397 #
ellipse-curve $-1 -2.06684181796183 16.488889462272581 2.620711891449532 0 0.6018150307709319 0.79863550430605224 1 0 0 1 I I #
point $-1 -1.06684181796183 18.328128910389037 5.0614650283467872 #
edge $-1 $398 1 $398 0 $234 $-1 forward 7 unknown #
vertex $-1 $235 $399 #
ellipse-curve $-1 2.3850445021401043 16.488889462272581 2.620711891449532 0 0.6018150307709319 0.79863550430605224 1 0 0 1 I I #
point $-1 3.3850445021401043 18.328128910389037 5.0614650283467872 #
edge $-1 $400 1 $400 0 $238 $-1 forward 7 unknown #
vertex $-1 $239 $401 #
ellipse-curve $-1 6.8369308222420386 16.488889462272581 2.620711891449532 0 0.6018150307709319 0.79863550430605224 1 0 0 1 I I #
point $-1 7.8369308222420386 18.328128910389037 5.0614650283467872 #
plane-surface $-1 43.825800347911006 0 0 -1 0 0 0 0 1 forward_v I I I I #
coedge $-1 $247 $245 $249 $347 reversed $161 $-1 #
edge $-1 $260 -6.7624659321277081 $349 6.7624659321277081 $259 $402 forward 7 unknown #
vertex $-1 $347 $403 #
straight-curve $-1 -43.825800347911006 -20.585433306518699 0 0 0 -1 I I #
edge $-1 $345 -20.585433306518699 $349 20.585433306518699 $343 $404 forward 7 unknown #
straight-curve $-1 0 -20.585433306518699 -6.7624659321277081 -1 0 0 I I #
vertex $-1 $252 $405 #
straight-curve $-1 0 20.585433306518699 -6.7624659321277081 1 0 0 I I #
point $-1 43.825800347911006 20.585433306518699 -6.7624659321277081 #
point $-1 43.825800347911006 -20.585433306518699 -6.7624659321277081 #
straight-curve $-1 -43.825800347911006 0 6.7624659321277081 0 -1 0 I I #
point $-1 -43.825800347911006 20.585433306518699 6.7624659321277081 #
point $-1 -43.825800347911006 -20.585433306518699 6.7624659321277081 #
straight-curve $-1 43.825800347911006 -20.585433306518699 0 0 0 -1 I I #
straight-curve $-1 43.825800347911006 20.585433306518699 0 0 0 -1 I I #
plane-surface $-1 0 -20.585433306518699 0 0 1 0 0 0 1 forward_v I I I I #
coedge $-1 $406 $272 $282 $370 reversed $180 $-1 #
coedge $-1 $272 $406 $285 $372 forward $180 $-1 #
coedge $-1 $407 $275 $273 $362 forward $270 $-1 #
edge $-1 $363 35.919974724266119 $408 43.825800347911006 $273 $409 forward 7 unknown #
vertex $-1 $362 $410 #
straight-curve $-1 -35.919974724266119 20.585433306518699 2.5655454686779193 0 0 -1 I I #
coedge $-1 $275 $407 $277 $367 forward $270 $-1 #
straight-curve $-1 -35.919974724266119 0 6.7624659321277081 0 1 0 I I #
edge $-1 $411 -43.825800347911006 $279 -35.919974724266119 $277 $412 forward 7 unknown #
point $-1 -35.919974724266119 -20.585433306518699 6.7624659321277099 #
straight-curve $-1 -43.825800347911006 0 3.4997159425839675 0 -1 0 I I #
edge $-1 $411 -6.7624659321277081 $283 -3.4997159425839675 $359 $413 forward 7 unknown #
point $-1 -43.825800347911006 -20.585433306518699 3.4997159425839675 #
edge $-1 $408 -6.7624659321277081 $286 -3.4997159425839675 $285 $414 forward 7 unknown #
point $-1 -43.825800347911006 20.585433306518699 3.4997159425839675 #
coedge $-1 $376 $299 $293 $375 reversed $290 $-1 #
edge $-1 $383 -6.7624659321277081 $301 -1.644177058691253 $293 $415 forward 7 unknown #
coedge $-1 $294 $374 $296 $378 reversed $290 $-1 #
straight-curve $-1 30.810010691747465 -20.585433306518699 37.155323450221509 0 0 -1 I I #
edge $-1 $297 30.810010691747465 $383 43.825800347911006 $376 $416 forward 7 unknown #
point $-1 30.810010691747465 -20.585433306518699 6.7624659321277081 #
straight-curve $-1 18.658952759914616 -20.585433306518699 1.6441770586912505 1 0 0 I I #
point $-1 43.825800347910999 -20.585433306518699 1.644177058691253 #
point $-1 30.810010691747465 -20.585433306518699 1.644177058691253 #
vertex $-1 $305 $417 #
straight-curve $-1 43.825800347911006 0 6.7624659321277081 0 1 0 I I #
vertex $-1 $308 $418 #
point $-1 39.317905519829232 -14.042124215730631 0.12743307112226465 #
edge $-1 $388 42.307229471421003 $391 45.709231278982855 $313 $419 forward 7 unknown #
vertex $-1 $327 $420 #
straight-curve $-1 9.8048550356433175 20.227484128087966 6.7624659321277107 0 1 0 I I #
edge $-1 $391 -8.6123327845732689 $324 6.2272882824331717 $323 $421 forward 7 unknown #
vertex $-1 $390 $422 #
straight-curve $-1 9.8048550356433175 -12.29508251370163 28.137710482156891 0 -0.79863550430605224 0.6018150307709319 I I #
point $-1 9.8048550356433175 16.070824514259385 6.7624659321277072 #
point $-1 -5.0347660313631231 20.585433306518695 3.360464124565862 #
straight-curve $-1 0 20.585433306518699 6.7624659321277081 -1 0 0 I I #
vertex $-1 $330 $423 #
point $-1 -1.06684181796183 16.488889462272581 2.620711891449532 #
vertex $-1 $334 $424 #
point $-1 3.3850445021401043 16.488889462272581 2.620711891449532 #
vertex $-1 $338 $425 #
point $-1 7.8369308222420386 16.488889462272581 2.620711891449532 #
straight-curve $-1 -43.825800347911006 20.585433306518699 0 0 0 -1 I I #
point $-1 -43.825800347911006 -20.585433306518699 -6.7624659321277081 #
straight-curve $-1 -43.825800347911006 0 -6.7624659321277081 0 1 0 I I #
point $-1 -43.825800347911006 20.585433306518699 -6.7624659321277081 #
coedge $-1 $360 $359 $407 $426 reversed $180 $-1 #
coedge $-1 $365 $361 $406 $426 forward $270 $-1 #
vertex $-1 $362 $427 #
straight-curve $-1 0 20.585433306518699 6.7624659321277081 -1 0 0 I I #
point $-1 -35.919974724266119 20.585433306518699 6.7624659321277099 #
vertex $-1 $426 $428 #
straight-curve $-1 0 -20.585433306518699 6.7624659321277081 1 0 0 I I #
straight-curve $-1 -43.825800347911006 -20.585433306518699 0 0 0 -1 I I #
straight-curve $-1 -43.825800347911006 20.585433306518699 0 0 0 -1 I I #
straight-curve $-1 43.825800347911006 -20.585433306518699 0 0 0 -1 I I #
straight-curve $-1 0 -20.585433306518699 6.7624659321277081 1 0 0 I I #
point $-1 43.825800347911006 -20.585433306518699 6.7624659321277081 #
point $-1 37.317905519829232 -12.923738394253832 -1.5306420641836322 #
straight-curve $-1 9.8048550356433175 20.585433306518699 49.069695403548714 0 0 -1 I I #
point $-1 9.8048550356433175 20.585433306518699 6.7624659321277081 #
straight-curve $-1 1.1925222510700486 20.585433306518699 3.3604641245658602 -1 0 0 I I #
point $-1 9.8048550356433175 20.585433306518695 3.360464124565862 #
point $-1 -2.06684181796183 15.887074431501651 1.82207638714348 #
point $-1 2.3850445021401043 15.887074431501651 1.82207638714348 #
point $-1 6.8369308222420386 15.887074431501651 1.82207638714348 #
edge $-1 $408 -20.585433306518699 $411 20.585433306518699 $406 $429 forward 7 unknown #
point $-1 -43.825800347911006 20.585433306518699 6.7624659321277081 #
point $-1 -43.825800347911006 -20.585433306518699 6.7624659321277081 #
straight-curve $-1 -43.825800347911006 0 6.7624659321277081 0 -1 0 I I #
End-of-ACIS-data 