500 0 8 0           
7 Unknown 11 ACIS 5.0 NT 24 Fri Mar 26 15:35:10 1999 
-1 9.9999999999999995e-007 1e-010 
body $-1 $8 $-1 $9 #
body $-1 $10 $-1 $11 #
body $-1 $12 $-1 $13 #
body $-1 $14 $-1 $15 #
body $-1 $16 $-1 $17 #
body $-1 $18 $-1 $19 #
body $-1 $20 $-1 $21 #
body $-1 $22 $-1 $23 #
lump $-1 $-1 $24 $0 #
transform $-1 1 0 0 0 1 0 0 0 1 77.120273445844902 53.949593553890985 11.484889975742869 1 rotate no_reflect no_shear #
lump $-1 $-1 $25 $1 #
transform $-1 1 0 0 0 1 0 0 0 1 77.120273445844902 53.949593553890985 11.484889975742869 1 rotate no_reflect no_shear #
lump $-1 $-1 $26 $2 #
transform $-1 1 0 0 0 1 0 0 0 1 77.120273445844902 53.949593553890985 11.484889975742869 1 rotate no_reflect no_shear #
lump $-1 $-1 $27 $3 #
transform $-1 1 0 0 0 1 0 0 0 1 77.120273445844902 53.949593553890985 11.484889975742869 1 rotate no_reflect no_shear #
lump $-1 $-1 $28 $4 #
transform $-1 1 0 0 0 1 0 0 0 1 77.120273445844902 53.949593553890985 11.484889975742869 1 rotate no_reflect no_shear #
lump $-1 $-1 $29 $5 #
transform $-1 1 0 0 0 1 0 0 0 1 77.120273445844902 53.949593553890985 11.484889975742869 1 rotate no_reflect no_shear #
lump $-1 $-1 $30 $6 #
transform $-1 1 0 0 0 1 0 0 0 1 77.120273445844902 53.949593553890985 11.484889975742869 1 rotate no_reflect no_shear #
lump $-1 $-1 $31 $7 #
transform $-1 1 0 0 0 1 0 0 0 1 77.120273445844902 53.949593553890985 11.484889975742869 1 rotate no_reflect no_shear #
shell $-1 $-1 $-1 $32 $-1 $8 #
shell $-1 $-1 $-1 $33 $-1 $10 #
shell $-1 $-1 $-1 $34 $-1 $12 #
shell $-1 $-1 $-1 $35 $-1 $14 #
shell $-1 $-1 $-1 $36 $-1 $16 #
shell $-1 $-1 $-1 $37 $-1 $18 #
shell $-1 $-1 $-1 $38 $-1 $20 #
shell $-1 $-1 $-1 $39 $-1 $22 #
face $-1 $40 $41 $24 $-1 $42 forward single #
face $-1 $43 $44 $25 $-1 $45 reversed single #
face $-1 $46 $47 $26 $-1 $48 reversed single #
face $-1 $49 $50 $27 $-1 $51 forward single #
face $-1 $52 $53 $28 $-1 $54 forward single #
face $-1 $55 $56 $29 $-1 $57 reversed single #
face $-1 $58 $59 $30 $-1 $60 forward single #
face $-1 $61 $62 $31 $-1 $63 forward single #
face $-1 $64 $65 $24 $-1 $66 reversed single #
loop $-1 $-1 $67 $32 #
plane-surface $-1 0 0 11.484889975742869 0 0 1 1 0 0 forward_v I I I I #
face $-1 $68 $69 $25 $-1 $70 reversed single #
loop $-1 $-1 $71 $33 #
plane-surface $-1 0 -46.549079132636876 5.3033714787734691 0 0 1 1 0 0 forward_v I I I I #
face $-1 $72 $73 $26 $-1 $74 reversed single #
loop $-1 $-1 $75 $34 #
plane-surface $-1 -56.59122512718222 130.58735979490658 175.17174501822029 1 0 0 0 -0.85716730853699208 -0.51503806187062418 forward_v I I I I #
face $-1 $76 $77 $27 $-1 $78 forward single #
loop $-1 $79 $80 $35 #
cone-surface $-1 -50.583369252849877 50.011894418752121 6.4861628616544076 0 -0.85716730853699208 -0.51503806187062418 1 0 0 1 I I 0 1 1 forward I I I I #
face $-1 $81 $82 $28 $-1 $83 forward single #
loop $-1 $84 $85 $36 #
cone-surface $-1 -41.57158544135136 50.011894418752121 6.4861628616544076 0 -0.85716730853699208 -0.51503806187062418 1 0 0 1 I I 0 1 1 forward I I I I #
face $-1 $86 $87 $29 $-1 $88 reversed single #
loop $-1 $-1 $89 $37 #
plane-surface $-1 20.529048318662674 130.58735979490658 175.17174501822029 1 0 0 0 -0.85716730853699208 -0.51503806187062418 forward_v I I I I #
face $-1 $90 $91 $30 $-1 $92 forward single #
loop $-1 $93 $94 $38 #
cone-surface $-1 26.536904192995024 50.011894418752121 6.4861628616544076 0 -0.85716730853699208 -0.51503806187062418 1 0 0 1 I I 0 1 1 forward I I I I #
face $-1 $95 $96 $31 $-1 $97 forward single #
loop $-1 $98 $99 $39 #
cone-surface $-1 35.548688004493542 50.011894418752121 6.4861628616544076 0 -0.85716730853699208 -0.51503806187062418 1 0 0 1 I I 0 1 1 forward I I I I #
face $-1 $100 $101 $24 $-1 $102 reversed single #
loop $-1 $-1 $103 $40 #
plane-surface $-1 0 0 -11.484889975742869 0 0 1 1 0 0 forward_v I I I I #
coedge $-1 $104 $105 $106 $107 forward $41 $-1 #
face $-1 $108 $109 $25 $-1 $110 reversed single #
loop $-1 $-1 $111 $43 #
plane-surface $-1 0 -39.148564711382761 8.3941307272581707 0 -1 0 0 0 -1 forward_v I I I I #
coedge $-1 $112 $113 $114 $115 reversed $44 $-1 #
face $-1 $116 $117 $26 $-1 $118 reversed single #
loop $-1 $-1 $119 $46 #
plane-surface $-1 -46.077477347100618 -1.6225946515168914 95.731992685259257 0 0.85716730853699208 0.51503806187062418 1 0 0 forward_v I I I I #
coedge $-1 $120 $121 $122 $123 reversed $47 $-1 #
face $-1 $-1 $124 $27 $-1 $125 forward single #
loop $-1 $126 $127 $49 #
cone-surface $-1 -50.583369252849877 48.121323461530615 5.3501932651258297 0 -0.85716730853699208 -0.51503806187062418 0.5 0 0 1 I I -0.70710678118654746 0.70710678118654746 0.5 forward I I I I #
loop $-1 $-1 $128 $35 #
coedge $-1 $80 $80 $129 $130 reversed $50 $-1 #
face $-1 $-1 $131 $28 $-1 $132 forward single #
loop $-1 $133 $134 $52 #
cone-surface $-1 -41.57158544135136 48.121323461530615 5.3501932651258297 0 -0.85716730853699208 -0.51503806187062418 0.5 0 0 1 I I -0.70710678118654746 0.70710678118654746 0.5 forward I I I I #
loop $-1 $-1 $135 $36 #
coedge $-1 $85 $85 $136 $137 reversed $53 $-1 #
face $-1 $138 $139 $29 $-1 $140 reversed single #
loop $-1 $-1 $141 $55 #
plane-surface $-1 31.042796098744276 -1.6225946515168914 95.731992685259257 0 0.85716730853699208 0.51503806187062418 1 0 0 forward_v I I I I #
coedge $-1 $142 $143 $144 $145 reversed $56 $-1 #
face $-1 $-1 $146 $30 $-1 $147 forward single #
loop $-1 $148 $149 $58 #
cone-surface $-1 26.536904192995024 48.121323461530615 5.3501932651258297 0 -0.85716730853699208 -0.51503806187062418 0.5 0 0 1 I I -0.70710678118654746 0.70710678118654746 0.5 forward I I I I #
loop $-1 $-1 $150 $38 #
coedge $-1 $94 $94 $151 $152 reversed $59 $-1 #
face $-1 $-1 $153 $31 $-1 $154 forward single #
loop $-1 $155 $156 $61 #
cone-surface $-1 35.548688004493542 48.121323461530615 5.3501932651258297 0 -0.85716730853699208 -0.51503806187062418 0.5 0 0 1 I I -0.70710678118654746 0.70710678118654746 0.5 forward I I I I #
loop $-1 $-1 $157 $39 #
coedge $-1 $99 $99 $158 $159 reversed $62 $-1 #
face $-1 $160 $161 $24 $-1 $162 reversed single #
loop $-1 $-1 $163 $64 #
plane-surface $-1 0 -53.949593553890985 0 0 1 0 0 0 1 forward_v I I I I #
coedge $-1 $164 $165 $166 $167 forward $65 $-1 #
coedge $-1 $168 $67 $169 $170 forward $41 $-1 #
coedge $-1 $67 $168 $171 $172 forward $41 $-1 #
coedge $-1 $173 $174 $67 $107 reversed $175 $-1 #
edge $-1 $176 -53.949593553890985 $177 53.949593553890985 $106 $178 forward 7 unknown #
face $-1 $179 $180 $25 $-1 $181 reversed single #
loop $-1 $-1 $182 $68 #
plane-surface $-1 -77.120273445844902 0 0 1 0 0 0 0 -1 forward_v I I I I #
coedge $-1 $183 $184 $185 $186 reversed $69 $-1 #
coedge $-1 $187 $71 $188 $189 reversed $44 $-1 #
coedge $-1 $71 $187 $183 $190 forward $44 $-1 #
coedge $-1 $185 $191 $71 $115 forward $192 $-1 #
edge $-1 $193 -30.675053987572554 $194 -15.874025145064323 $114 $195 forward 7 unknown #
face $-1 $196 $197 $26 $-1 $198 forward single #
loop $-1 $-1 $199 $72 #
plane-surface $-1 -35.563729567019017 130.58735979490658 175.17174501822029 -1 0 0 0 0.85716730853699208 0.51503806187062418 forward_v I I I I #
coedge $-1 $200 $201 $202 $203 reversed $73 $-1 #
coedge $-1 $121 $75 $204 $205 reversed $47 $-1 #
coedge $-1 $75 $120 $200 $206 reversed $47 $-1 #
coedge $-1 $202 $207 $75 $123 forward $197 $-1 #
edge $-1 $208 11.344086343562303 $209 16.295510007934062 $122 $210 forward 7 unknown #
loop $-1 $-1 $129 $76 #
plane-surface $-1 -46.077477347100618 -1.6225946515168914 95.731992685259257 0 0.85716730853699208 0.51503806187062418 1 0 0 forward_v I I I I #
loop $-1 $-1 $211 $49 #
coedge $-1 $127 $127 $128 $212 reversed $77 $-1 #
coedge $-1 $128 $128 $127 $212 forward $79 $-1 #
coedge $-1 $129 $129 $80 $130 forward $124 $-1 #
edge $-1 $213 -1.2023834831759341e-015 $213 6.2831853071795996 $129 $214 forward 7 unknown #
loop $-1 $-1 $136 $81 #
plane-surface $-1 -46.077477347100618 -1.6225946515168914 95.731992685259257 0 0.85716730853699208 0.51503806187062418 1 0 0 forward_v I I I I #
loop $-1 $-1 $215 $52 #
coedge $-1 $134 $134 $135 $216 reversed $82 $-1 #
coedge $-1 $135 $135 $134 $216 forward $84 $-1 #
coedge $-1 $136 $136 $85 $137 forward $131 $-1 #
edge $-1 $217 -1.2023834831759341e-015 $217 6.2831853071795996 $136 $218 forward 7 unknown #
face $-1 $219 $220 $29 $-1 $221 forward single #
loop $-1 $-1 $222 $86 #
plane-surface $-1 41.556543878825877 130.58735979490658 175.17174501822029 -1 0 0 0 0.85716730853699208 0.51503806187062418 forward_v I I I I #
coedge $-1 $223 $224 $225 $226 reversed $87 $-1 #
coedge $-1 $143 $89 $227 $228 reversed $56 $-1 #
coedge $-1 $89 $142 $223 $229 reversed $56 $-1 #
coedge $-1 $225 $230 $89 $145 forward $220 $-1 #
edge $-1 $231 11.344086343562303 $232 16.295510007934062 $144 $233 forward 7 unknown #
loop $-1 $-1 $151 $90 #
plane-surface $-1 31.042796098744276 -1.6225946515168914 95.731992685259257 0 0.85716730853699208 0.51503806187062418 1 0 0 forward_v I I I I #
loop $-1 $-1 $234 $58 #
coedge $-1 $149 $149 $150 $235 reversed $91 $-1 #
coedge $-1 $150 $150 $149 $235 forward $93 $-1 #
coedge $-1 $151 $151 $94 $152 forward $146 $-1 #
edge $-1 $236 -1.2023834831759341e-015 $236 6.2831853071795996 $151 $237 forward 7 unknown #
loop $-1 $-1 $158 $95 #
plane-surface $-1 31.042796098744276 -1.6225946515168914 95.731992685259257 0 0.85716730853699208 0.51503806187062418 1 0 0 forward_v I I I I #
loop $-1 $-1 $238 $61 #
coedge $-1 $156 $156 $157 $239 reversed $96 $-1 #
coedge $-1 $157 $157 $156 $239 forward $98 $-1 #
coedge $-1 $158 $158 $99 $159 forward $153 $-1 #
edge $-1 $240 -1.2023834831759341e-015 $240 6.2831853071795996 $158 $241 forward 7 unknown #
face $-1 $242 $243 $24 $-1 $244 reversed single #
loop $-1 $-1 $245 $100 #
plane-surface $-1 -77.120273445844902 0 0 1 0 0 0 0 -1 forward_v I I I I #
coedge $-1 $246 $171 $247 $248 forward $101 $-1 #
coedge $-1 $249 $103 $246 $250 forward $65 $-1 #
coedge $-1 $103 $249 $251 $252 forward $65 $-1 #
coedge $-1 $174 $173 $103 $167 reversed $175 $-1 #
edge $-1 $253 -53.949593553890985 $254 53.949593553890985 $166 $255 forward 7 unknown #
coedge $-1 $105 $104 $256 $257 forward $41 $-1 #
coedge $-1 $258 $259 $104 $170 reversed $243 $-1 #
edge $-1 $177 -77.120273445844902 $260 77.120273445844902 $169 $261 forward 7 unknown #
coedge $-1 $163 $262 $105 $172 reversed $101 $-1 #
edge $-1 $263 -77.120273445844902 $176 77.120273445844902 $171 $264 forward 7 unknown #
coedge $-1 $166 $106 $262 $265 forward $175 $-1 #
coedge $-1 $106 $166 $258 $266 reversed $175 $-1 #
loop $-1 $-1 $173 $242 #
vertex $-1 $107 $267 #
vertex $-1 $107 $268 #
straight-curve $-1 77.120273445844902 0 11.484889975742869 0 1 0 I I #
face $-1 $269 $270 $25 $-1 $271 forward single #
loop $-1 $-1 $188 $108 #
plane-surface $-1 0 -53.949593553890985 0 0 1 0 0 0 1 forward_v I I I I #
coedge $-1 $272 $273 $274 $275 forward $109 $-1 #
coedge $-1 $274 $111 $113 $190 reversed $69 $-1 #
coedge $-1 $111 $274 $276 $277 reversed $69 $-1 #
coedge $-1 $278 $114 $111 $186 forward $192 $-1 #
edge $-1 $194 1.1063061151443838 $279 7.2878246121137868 $185 $280 forward 7 unknown #
coedge $-1 $113 $112 $272 $281 reversed $44 $-1 #
coedge $-1 $282 $283 $112 $189 forward $180 $-1 #
edge $-1 $284 -77.120273445844902 $193 77.120273445844902 $188 $285 forward 7 unknown #
edge $-1 $286 -77.120273445844902 $194 77.120273445844902 $183 $287 forward 7 unknown #
coedge $-1 $114 $278 $282 $288 forward $192 $-1 #
loop $-1 $-1 $185 $269 #
vertex $-1 $189 $289 #
vertex $-1 $115 $290 #
straight-curve $-1 77.120273445844902 -23.274539566318438 5.3033714787734691 0 1 0 I I #
face $-1 $-1 $291 $26 $-1 $292 reversed single #
loop $-1 $-1 $122 $116 #
plane-surface $-1 0 0 11.484889975742869 0 0 1 1 0 0 forward_v I I I I #
coedge $-1 $293 $294 $295 $296 reversed $117 $-1 #
coedge $-1 $297 $119 $121 $206 forward $73 $-1 #
coedge $-1 $119 $297 $293 $298 forward $73 $-1 #
coedge $-1 $295 $122 $119 $203 forward $197 $-1 #
edge $-1 $209 -33.552486453631914 $299 -12.524990893468708 $202 $300 forward 7 unknown #
coedge $-1 $301 $302 $120 $205 forward $291 $-1 #
edge $-1 $303 -84.341535630357683 $208 -76.100982533367272 $204 $304 forward 7 unknown #
edge $-1 $209 98.285482741180189 $303 107.899187107782 $121 $305 forward 7 unknown #
coedge $-1 $122 $295 $301 $306 forward $197 $-1 #
vertex $-1 $205 $307 #
vertex $-1 $123 $308 #
straight-curve $-1 -56.59122512718222 65.293679897453288 11.484889975742874 0 -1 0 I I #
coedge $-1 $211 $211 $-1 $309 reversed $126 $-1 #
edge $-1 $310 0 $310 6.2831853071796004 $127 $311 forward 7 unknown #
vertex $-1 $130 $312 #
ellipse-curve $-1 -50.583369252849877 51.473881721705105 7.364613427247658 0 0.85716730853699208 0.51503806187062418 1 0 0 1 I I #
coedge $-1 $215 $215 $-1 $313 reversed $133 $-1 #
edge $-1 $314 0 $314 6.2831853071796004 $134 $315 forward 7 unknown #
vertex $-1 $137 $316 #
ellipse-curve $-1 -41.57158544135136 51.473881721705105 7.364613427247658 0 0.85716730853699208 0.51503806187062418 1 0 0 1 I I #
face $-1 $-1 $317 $29 $-1 $318 reversed single #
loop $-1 $-1 $144 $138 #
plane-surface $-1 0 0 11.484889975742869 0 0 1 1 0 0 forward_v I I I I #
coedge $-1 $319 $320 $321 $322 reversed $139 $-1 #
coedge $-1 $323 $141 $143 $229 forward $87 $-1 #
coedge $-1 $141 $323 $319 $324 forward $87 $-1 #
coedge $-1 $321 $144 $141 $226 forward $220 $-1 #
edge $-1 $232 5.0076502692905365 $325 26.035145829453739 $225 $326 forward 7 unknown #
coedge $-1 $327 $328 $142 $228 forward $317 $-1 #
edge $-1 $329 -84.341535630357683 $231 -76.100982533367272 $227 $330 forward 7 unknown #
edge $-1 $232 98.285482741180189 $329 107.899187107782 $143 $331 forward 7 unknown #
coedge $-1 $144 $321 $327 $332 forward $220 $-1 #
vertex $-1 $145 $333 #
vertex $-1 $145 $334 #
straight-curve $-1 20.529048318662674 65.293679897453288 11.484889975742874 0 -1 0 I I #
coedge $-1 $234 $234 $-1 $335 reversed $148 $-1 #
edge $-1 $336 0 $336 6.2831853071796004 $149 $337 forward 7 unknown #
vertex $-1 $152 $338 #
ellipse-curve $-1 26.536904192995024 51.473881721705105 7.364613427247658 0 0.85716730853699208 0.51503806187062418 1 0 0 1 I I #
coedge $-1 $238 $238 $-1 $339 reversed $155 $-1 #
edge $-1 $340 0 $340 6.2831853071796004 $156 $341 forward 7 unknown #
vertex $-1 $159 $342 #
ellipse-curve $-1 35.548688004493542 51.473881721705105 7.364613427247658 0 0.85716730853699208 0.51503806187062418 1 0 0 1 I I #
face $-1 $-1 $175 $24 $-1 $343 reversed single #
loop $-1 $-1 $258 $160 #
plane-surface $-1 0 53.949593553890985 0 0 -1 0 0 0 -1 forward_v I I I I #
coedge $-1 $344 $256 $259 $345 forward $161 $-1 #
coedge $-1 $262 $163 $164 $250 reversed $101 $-1 #
coedge $-1 $256 $344 $163 $248 reversed $161 $-1 #
edge $-1 $263 -11.484889975742869 $346 11.484889975742869 $247 $347 forward 7 unknown #
coedge $-1 $165 $164 $344 $348 forward $65 $-1 #
edge $-1 $254 -77.120273445844902 $346 77.120273445844902 $246 $349 forward 7 unknown #
coedge $-1 $259 $258 $165 $252 reversed $243 $-1 #
edge $-1 $350 -77.120273445844902 $253 77.120273445844902 $251 $351 forward 7 unknown #
vertex $-1 $167 $352 #
vertex $-1 $265 $353 #
straight-curve $-1 77.120273445844902 0 -11.484889975742869 0 -1 0 I I #
coedge $-1 $245 $247 $168 $257 reversed $161 $-1 #
edge $-1 $260 -53.949593553890985 $263 53.949593553890985 $256 $354 forward 7 unknown #
coedge $-1 $251 $169 $174 $266 forward $243 $-1 #
coedge $-1 $169 $251 $245 $345 reversed $243 $-1 #
vertex $-1 $170 $355 #
straight-curve $-1 0 53.949593553890985 11.484889975742869 -1 0 0 I I #
coedge $-1 $171 $246 $173 $265 reversed $101 $-1 #
vertex $-1 $257 $356 #
straight-curve $-1 0 -53.949593553890985 11.484889975742869 1 0 0 I I #
edge $-1 $176 -11.484889975742869 $254 11.484889975742869 $173 $357 forward 7 unknown #
edge $-1 $177 -11.484889975742869 $253 11.484889975742869 $174 $358 forward 7 unknown #
point $-1 77.120273445844902 -53.949593553890985 11.484889975742869 #
point $-1 77.120273445844902 53.949593553890985 11.484889975742869 #
face $-1 $-1 $192 $25 $-1 $359 reversed single #
loop $-1 $-1 $276 $179 #
plane-surface $-1 0 0 11.484889975742869 0 0 1 1 0 0 forward_v I I I I #
coedge $-1 $360 $182 $187 $281 forward $109 $-1 #
coedge $-1 $182 $360 $361 $362 reversed $109 $-1 #
coedge $-1 $184 $183 $182 $275 reversed $69 $-1 #
edge $-1 $363 -7.2878246121137868 $286 -1.1063061151443838 $182 $364 forward 7 unknown #
coedge $-1 $361 $365 $184 $277 forward $270 $-1 #
edge $-1 $279 -77.120273445844902 $363 77.120273445844902 $276 $366 forward 7 unknown #
coedge $-1 $191 $185 $365 $367 reversed $192 $-1 #
vertex $-1 $186 $368 #
straight-curve $-1 77.120273445844902 -39.148564711382761 4.1970653636290853 0 0 1 I I #
edge $-1 $286 15.874025145064323 $284 30.675053987572554 $272 $369 forward 7 unknown #
coedge $-1 $370 $188 $191 $288 reversed $180 $-1 #
coedge $-1 $188 $370 $360 $371 forward $180 $-1 #
vertex $-1 $189 $372 #
straight-curve $-1 0 -53.949593553890985 5.3033714787734691 1 0 0 I I #
vertex $-1 $281 $373 #
straight-curve $-1 0 -39.148564711382761 5.3033714787734691 1 0 0 I I #
edge $-1 $374 -11.484889975742869 $193 -5.3033714787734691 $191 $375 forward 7 unknown #
point $-1 77.120273445844902 -53.949593553890992 5.3033714787734691 #
point $-1 77.120273445844902 -39.148564711382761 5.3033714787734691 #
loop $-1 $-1 $204 $196 #
plane-surface $-1 0 53.949593553890985 0 0 -1 0 0 0 -1 forward_v I I I I #
coedge $-1 $294 $199 $201 $298 reversed $117 $-1 #
coedge $-1 $199 $293 $376 $377 reversed $117 $-1 #
coedge $-1 $207 $202 $199 $296 forward $197 $-1 #
edge $-1 $299 -16.295510007934062 $378 -11.344086343562303 $295 $379 forward 7 unknown #
coedge $-1 $201 $200 $302 $380 reversed $73 $-1 #
edge $-1 $381 -107.899187107782 $299 -98.285482741180189 $293 $382 forward 7 unknown #
vertex $-1 $203 $383 #
straight-curve $-1 -23.038738673550309 48.998169889519218 11.48488997574286 1 0 0 I I #
coedge $-1 $376 $204 $207 $306 reversed $291 $-1 #
coedge $-1 $204 $376 $297 $380 forward $291 $-1 #
vertex $-1 $205 $384 #
straight-curve $-1 -56.59122512718222 53.949593553890985 87.585872509110146 0 0 1 I I #
straight-curve $-1 -56.59122512718222 -1.6225946515168914 95.731992685259257 0 0.51503806187062418 -0.85716730853699208 I I #
edge $-1 $378 35.563729567019017 $208 56.59122512718222 $301 $385 forward 7 unknown #
point $-1 -56.59122512718222 53.949593553890985 11.484889975742869 #
point $-1 -56.59122512718222 48.998169889519225 11.484889975742874 #
edge $-1 $386 1 $386 0 $211 $-1 forward 7 unknown #
vertex $-1 $212 $387 #
ellipse-curve $-1 -50.583369252849877 48.549907115799108 5.6077122960611421 0 0.85716730853699208 0.51503806187062418 1 0 0 1 I I #
point $-1 -49.583369252849877 51.473881721705126 7.3646134272476722 #
edge $-1 $388 1 $388 0 $215 $-1 forward 7 unknown #
vertex $-1 $216 $389 #
ellipse-curve $-1 -41.57158544135136 48.549907115799108 5.6077122960611421 0 0.85716730853699208 0.51503806187062418 1 0 0 1 I I #
point $-1 -40.57158544135136 51.473881721705126 7.3646134272476722 #
loop $-1 $-1 $227 $219 #
plane-surface $-1 0 53.949593553890985 0 0 -1 0 0 0 -1 forward_v I I I I #
coedge $-1 $320 $222 $224 $324 reversed $139 $-1 #
coedge $-1 $222 $319 $390 $391 reversed $139 $-1 #
coedge $-1 $230 $225 $222 $322 forward $220 $-1 #
edge $-1 $325 -16.295510007934062 $392 -11.344086343562303 $321 $393 forward 7 unknown #
coedge $-1 $224 $223 $328 $394 reversed $87 $-1 #
edge $-1 $395 -107.899187107782 $325 -98.285482741180189 $319 $396 forward 7 unknown #
vertex $-1 $226 $397 #
straight-curve $-1 15.521398049372138 48.998169889519218 11.48488997574286 1 0 0 I I #
coedge $-1 $390 $227 $230 $332 reversed $317 $-1 #
coedge $-1 $227 $390 $323 $394 forward $317 $-1 #
vertex $-1 $228 $398 #
straight-curve $-1 20.529048318662674 53.949593553890985 87.585872509110146 0 0 1 I I #
straight-curve $-1 20.529048318662674 -1.6225946515168914 95.731992685259257 0 0.51503806187062418 -0.85716730853699208 I I #
edge $-1 $392 -41.556543878825877 $231 -20.529048318662674 $327 $399 forward 7 unknown #
point $-1 20.529048318662674 53.949593553890985 11.484889975742869 #
point $-1 20.529048318662674 48.998169889519225 11.484889975742874 #
edge $-1 $400 1 $400 0 $234 $-1 forward 7 unknown #
vertex $-1 $235 $401 #
ellipse-curve $-1 26.536904192995024 48.549907115799108 5.6077122960611421 0 0.85716730853699208 0.51503806187062418 1 0 0 1 I I #
point $-1 27.536904192995024 51.473881721705126 7.3646134272476722 #
edge $-1 $402 1 $402 0 $238 $-1 forward 7 unknown #
vertex $-1 $239 $403 #
ellipse-curve $-1 35.548688004493542 48.549907115799108 5.6077122960611421 0 0.85716730853699208 0.51503806187062418 1 0 0 1 I I #
point $-1 36.548688004493542 51.473881721705126 7.3646134272476722 #
plane-surface $-1 77.120273445844902 0 0 -1 0 0 0 0 1 forward_v I I I I #
coedge $-1 $247 $245 $249 $348 reversed $161 $-1 #
edge $-1 $260 -11.484889975742869 $350 11.484889975742869 $259 $404 forward 7 unknown #
vertex $-1 $348 $405 #
straight-curve $-1 -77.120273445844902 -53.949593553890985 0 0 0 -1 I I #
edge $-1 $346 -53.949593553890985 $350 53.949593553890985 $344 $406 forward 7 unknown #
straight-curve $-1 0 -53.949593553890985 -11.484889975742869 -1 0 0 I I #
vertex $-1 $252 $407 #
straight-curve $-1 0 53.949593553890985 -11.484889975742869 1 0 0 I I #
point $-1 77.120273445844902 53.949593553890985 -11.484889975742869 #
point $-1 77.120273445844902 -53.949593553890985 -11.484889975742869 #
straight-curve $-1 -77.120273445844902 0 11.484889975742869 0 -1 0 I I #
point $-1 -77.120273445844902 53.949593553890985 11.484889975742869 #
point $-1 -77.120273445844902 -53.949593553890985 11.484889975742869 #
straight-curve $-1 77.120273445844902 -53.949593553890985 0 0 0 -1 I I #
straight-curve $-1 77.120273445844902 53.949593553890985 0 0 0 -1 I I #
plane-surface $-1 77.120273445844902 0 0 -1 0 0 0 0 1 forward_v I I I I #
coedge $-1 $273 $272 $283 $371 reversed $109 $-1 #
coedge $-1 $408 $276 $273 $362 forward $270 $-1 #
edge $-1 $363 39.148564711382761 $409 53.949593553890985 $273 $410 forward 7 unknown #
vertex $-1 $362 $411 #
straight-curve $-1 -77.120273445844902 -39.148564711382761 4.1970653636290853 0 0 -1 I I #
coedge $-1 $276 $408 $278 $367 forward $270 $-1 #
straight-curve $-1 0 -39.148564711382761 11.484889975742869 -1 0 0 I I #
edge $-1 $374 -53.949593553890985 $279 -39.148564711382761 $278 $412 forward 7 unknown #
point $-1 77.120273445844902 -39.148564711382761 11.484889975742872 #
straight-curve $-1 -77.120273445844902 -23.274539566318438 5.3033714787734691 0 -1 0 I I #
coedge $-1 $283 $282 $408 $413 reversed $180 $-1 #
edge $-1 $409 -11.484889975742869 $284 -5.3033714787734691 $360 $414 forward 7 unknown #
point $-1 -77.120273445844902 -53.949593553890992 5.3033714787734691 #
point $-1 -77.120273445844902 -39.148564711382761 5.3033714787734691 #
vertex $-1 $367 $415 #
straight-curve $-1 77.120273445844902 -53.949593553890985 0 0 0 -1 I I #
coedge $-1 $302 $301 $294 $377 forward $291 $-1 #
edge $-1 $378 76.100982533367272 $381 84.341535630357683 $376 $416 forward 7 unknown #
vertex $-1 $306 $417 #
straight-curve $-1 -35.563729567019017 65.293679897453288 11.484889975742874 0 1 0 I I #
edge $-1 $381 12.524990893468708 $303 33.552486453631914 $302 $418 forward 7 unknown #
vertex $-1 $380 $419 #
straight-curve $-1 -35.563729567019017 -1.6225946515168914 95.731992685259257 0 -0.51503806187062418 0.85716730853699208 I I #
point $-1 -35.563729567019017 48.998169889519225 11.484889975742874 #
point $-1 -56.59122512718222 53.949593553890985 3.2443368787524633 #
straight-curve $-1 0 53.949593553890985 11.484889975742869 -1 0 0 I I #
vertex $-1 $309 $420 #
point $-1 -49.583369252849877 48.549907115799108 5.6077122960611421 #
vertex $-1 $313 $421 #
point $-1 -40.57158544135136 48.549907115799108 5.6077122960611421 #
coedge $-1 $328 $327 $320 $391 forward $317 $-1 #
edge $-1 $392 76.100982533367272 $395 84.341535630357683 $390 $422 forward 7 unknown #
vertex $-1 $332 $423 #
straight-curve $-1 41.556543878825877 65.293679897453288 11.484889975742874 0 1 0 I I #
edge $-1 $395 -26.035145829453739 $329 -5.0076502692905365 $328 $424 forward 7 unknown #
vertex $-1 $394 $425 #
straight-curve $-1 41.556543878825877 -1.6225946515168914 95.731992685259257 0 -0.51503806187062418 0.85716730853699208 I I #
point $-1 41.556543878825877 48.998169889519225 11.484889975742874 #
point $-1 20.529048318662674 53.949593553890985 3.2443368787524633 #
straight-curve $-1 0 53.949593553890985 11.484889975742869 -1 0 0 I I #
vertex $-1 $335 $426 #
point $-1 27.536904192995024 48.549907115799108 5.6077122960611421 #
vertex $-1 $339 $427 #
point $-1 36.548688004493542 48.549907115799108 5.6077122960611421 #
straight-curve $-1 -77.120273445844902 53.949593553890985 0 0 0 -1 I I #
point $-1 -77.120273445844902 -53.949593553890985 -11.484889975742869 #
straight-curve $-1 -77.120273445844902 0 -11.484889975742869 0 1 0 I I #
point $-1 -77.120273445844902 53.949593553890985 -11.484889975742869 #
coedge $-1 $365 $361 $370 $413 forward $270 $-1 #
vertex $-1 $362 $428 #
straight-curve $-1 -77.120273445844902 0 11.484889975742869 0 -1 0 I I #
point $-1 -77.120273445844902 -39.148564711382761 11.484889975742872 #
straight-curve $-1 77.120273445844902 0 11.484889975742869 0 1 0 I I #
edge $-1 $409 -77.120273445844902 $374 77.120273445844902 $370 $429 forward 7 unknown #
straight-curve $-1 -77.120273445844902 -53.949593553890985 0 0 0 -1 I I #
point $-1 77.120273445844902 -53.949593553890985 11.484889975742869 #
straight-curve $-1 -35.563729567019017 53.949593553890985 87.585872509110146 0 0 -1 I I #
point $-1 -35.563729567019017 53.949593553890985 11.484889975742869 #
straight-curve $-1 -23.038738673550309 53.949593553890985 3.2443368787524562 -1 0 0 I I #
point $-1 -35.563729567019017 53.949593553890985 3.2443368787524633 #
point $-1 -50.583369252849877 47.692739807262122 5.0926742341905173 #
point $-1 -41.57158544135136 47.692739807262122 5.0926742341905173 #
straight-curve $-1 41.556543878825877 53.949593553890985 87.585872509110146 0 0 -1 I I #
point $-1 41.556543878825877 53.949593553890985 11.484889975742869 #
straight-curve $-1 15.521398049372138 53.949593553890985 3.2443368787524562 -1 0 0 I I #
point $-1 41.556543878825877 53.949593553890985 3.2443368787524633 #
point $-1 26.536904192995024 47.692739807262122 5.0926742341905173 #
point $-1 35.548688004493542 47.692739807262122 5.0926742341905173 #
point $-1 -77.120273445844902 -53.949593553890985 11.484889975742869 #
straight-curve $-1 0 -53.949593553890985 11.484889975742869 1 0 0 I I #
End-of-ACIS-data 