500 0 8 0           
7 Unknown 11 ACIS 5.0 NT 24 Fri Mar 26 18:57:11 1999 
-1 9.9999999999999995e-007 1e-010 
body $-1 $8 $-1 $9 #
body $-1 $10 $-1 $11 #
body $-1 $12 $-1 $13 #
body $-1 $14 $-1 $15 #
body $-1 $16 $-1 $17 #
body $-1 $18 $-1 $19 #
body $-1 $20 $-1 $21 #
body $-1 $22 $-1 $23 #
lump $-1 $-1 $24 $0 #
transform $-1 1 0 0 0 1 0 0 0 1 70.418408764915924 31.709452233232657 11.751958280439284 1 rotate no_reflect no_shear #
lump $-1 $-1 $25 $1 #
transform $-1 1 0 0 0 1 0 0 0 1 70.418408764915924 31.709452233232657 11.751958280439284 1 rotate no_reflect no_shear #
lump $-1 $-1 $26 $2 #
transform $-1 1 0 0 0 1 0 0 0 1 70.418408764915924 31.709452233232657 11.751958280439284 1 rotate no_reflect no_shear #
lump $-1 $-1 $27 $3 #
transform $-1 1 0 0 0 1 0 0 0 1 70.418408764915924 31.709452233232657 11.751958280439284 1 rotate no_reflect no_shear #
lump $-1 $-1 $28 $4 #
transform $-1 1 0 0 0 1 0 0 0 1 70.418408764915924 31.709452233232657 11.751958280439284 1 rotate no_reflect no_shear #
lump $-1 $-1 $29 $5 #
transform $-1 1 0 0 0 1 0 0 0 1 70.418408764915924 31.709452233232657 11.751958280439284 1 rotate no_reflect no_shear #
lump $-1 $-1 $30 $6 #
transform $-1 1 0 0 0 1 0 0 0 1 70.418408764915924 31.709452233232657 11.751958280439284 1 rotate no_reflect no_shear #
lump $-1 $-1 $31 $7 #
transform $-1 1 0 0 0 1 0 0 0 1 70.418408764915924 31.709452233232657 11.751958280439284 1 rotate no_reflect no_shear #
shell $-1 $-1 $-1 $32 $-1 $8 #
shell $-1 $-1 $-1 $33 $-1 $10 #
shell $-1 $-1 $-1 $34 $-1 $12 #
shell $-1 $-1 $-1 $35 $-1 $14 #
shell $-1 $-1 $-1 $36 $-1 $16 #
shell $-1 $-1 $-1 $37 $-1 $18 #
shell $-1 $-1 $-1 $38 $-1 $20 #
shell $-1 $-1 $-1 $39 $-1 $22 #
face $-1 $40 $41 $24 $-1 $42 reversed single #
face $-1 $43 $44 $25 $-1 $45 forward single #
face $-1 $46 $47 $26 $-1 $48 reversed single #
face $-1 $49 $50 $27 $-1 $51 forward single #
face $-1 $52 $53 $28 $-1 $54 forward single #
face $-1 $55 $56 $29 $-1 $57 forward single #
face $-1 $58 $59 $30 $-1 $60 reversed single #
face $-1 $61 $62 $31 $-1 $63 forward single #
face $-1 $64 $65 $24 $-1 $66 forward single #
loop $-1 $-1 $67 $32 #
plane-surface $-1 -70.418408764915924 0 0 1 0 0 0 0 -1 forward_v I I I I #
face $-1 $68 $69 $25 $-1 $70 reversed single #
loop $-1 $-1 $71 $33 #
plane-surface $-1 -70.418408764915924 0 0 1 0 0 0 0 -1 forward_v I I I I #
face $-1 $72 $73 $26 $-1 $74 reversed single #
loop $-1 $-1 $75 $34 #
plane-surface $-1 -57.31624670445288 91.459392940873229 145.74386065443142 1 0 0 0 -0.73135370988377701 -0.68199835119979291 forward_v I I I I #
face $-1 $76 $77 $27 $-1 $78 forward single #
loop $-1 $79 $80 $35 #
cone-surface $-1 -50.507292167201143 26.466052026877339 6.3120397954392438 0 -0.73135370988377701 -0.68199835119979291 2.5 0 0 1 I I 0 1 2.5 forward I I I I #
face $-1 $81 $82 $28 $-1 $83 forward single #
loop $-1 $84 $85 $36 #
cone-surface $-1 -40.293860361323532 26.466052026877339 6.3120397954392438 0 -0.73135370988377701 -0.68199835119979291 2.5 0 0 1 I I 0 1 2.5 forward I I I I #
face $-1 $86 $87 $29 $-1 $88 forward single #
loop $-1 $89 $90 $37 #
cone-surface $-1 -30.08042855544592 26.466052026877339 6.3120397954392438 0 -0.73135370988377701 -0.68199835119979291 2.5 0 0 1 I I 0 1 2.5 forward I I I I #
face $-1 $91 $92 $30 $-1 $93 reversed single #
loop $-1 $-1 $94 $38 #
plane-surface $-1 56.964110136594556 -31.709452233232639 4.8459358220773794 0 -0.66913061440640931 0.74314481823134659 1 0 0 forward_v I I I I #
face $-1 $95 $96 $31 $-1 $97 forward single #
loop $-1 $98 $99 $39 #
cone-surface $-1 56.964110136594556 -26.038617867255834 6.2599991631808649 0 0.66913061440640931 -0.74314481823134659 2 0 0 1 I I 0 1 2 forward I I I I #
face $-1 $100 $101 $24 $-1 $102 reversed single #
loop $-1 $-1 $103 $40 #
plane-surface $-1 0 0 11.751958280439284 0 0 1 1 0 0 forward_v I I I I #
coedge $-1 $104 $105 $106 $107 reversed $41 $-1 #
face $-1 $108 $109 $25 $-1 $110 reversed single #
loop $-1 $-1 $111 $43 #
plane-surface $-1 0 0 -11.751958280439284 0 0 1 1 0 0 forward_v I I I I #
coedge $-1 $112 $113 $114 $115 forward $44 $-1 #
face $-1 $116 $117 $26 $-1 $118 reversed single #
loop $-1 $-1 $119 $46 #
plane-surface $-1 -40.293860361323539 -11.542136047793846 49.69338331086 0 0.73135370988377701 0.68199835119979291 1 0 0 forward_v I I I I #
coedge $-1 $120 $121 $122 $123 reversed $47 $-1 #
face $-1 $-1 $124 $27 $-1 $125 forward single #
loop $-1 $126 $127 $49 #
cone-surface $-1 -50.507292167201143 24.243778638267511 4.2397363853862213 0 -0.73135370988377701 -0.68199835119979291 1.25 0 0 1 I I -0.70710678118654746 0.70710678118654746 1.25 forward I I I I #
loop $-1 $-1 $128 $35 #
coedge $-1 $80 $80 $129 $130 reversed $50 $-1 #
face $-1 $-1 $131 $28 $-1 $132 forward single #
loop $-1 $133 $134 $52 #
cone-surface $-1 -40.293860361323532 24.243778638267511 4.2397363853862213 0 -0.73135370988377701 -0.68199835119979291 1.25 0 0 1 I I -0.70710678118654746 0.70710678118654746 1.25 forward I I I I #
loop $-1 $-1 $135 $36 #
coedge $-1 $85 $85 $136 $137 reversed $53 $-1 #
face $-1 $-1 $138 $29 $-1 $139 forward single #
loop $-1 $140 $141 $55 #
cone-surface $-1 -30.08042855544592 24.243778638267511 4.2397363853862213 0 -0.73135370988377701 -0.68199835119979291 1.25 0 0 1 I I -0.70710678118654746 0.70710678118654746 1.25 forward I I I I #
loop $-1 $-1 $142 $37 #
coedge $-1 $90 $90 $143 $144 reversed $56 $-1 #
face $-1 $145 $146 $30 $-1 $147 reversed single #
loop $-1 $-1 $148 $58 #
plane-surface $-1 43.509811508273195 -125.94767847801239 109.50808698556561 1 0 0 0 0.66913061440640931 -0.74314481823134659 forward_v I I I I #
coedge $-1 $149 $150 $151 $152 reversed $59 $-1 #
face $-1 $-1 $153 $31 $-1 $154 forward single #
loop $-1 $155 $156 $61 #
cone-surface $-1 56.964110136594556 -23.53361028833131 3.4779064568720468 0 0.66913061440640931 -0.74314481823134659 1 0 0 1 I I -0.70710678118654746 0.70710678118654746 1 forward I I I I #
loop $-1 $-1 $157 $39 #
coedge $-1 $99 $99 $158 $159 reversed $62 $-1 #
face $-1 $160 $161 $24 $-1 $162 reversed single #
loop $-1 $-1 $163 $64 #
plane-surface $-1 0 0 -11.751958280439284 0 0 1 1 0 0 forward_v I I I I #
coedge $-1 $164 $165 $166 $167 forward $65 $-1 #
coedge $-1 $168 $67 $169 $170 reversed $41 $-1 #
coedge $-1 $67 $168 $171 $172 forward $41 $-1 #
coedge $-1 $173 $174 $67 $107 forward $101 $-1 #
edge $-1 $175 -31.709452233232657 $176 31.709452233232657 $67 $177 forward 7 unknown #
face $-1 $178 $179 $25 $-1 $180 reversed single #
loop $-1 $-1 $181 $68 #
plane-surface $-1 -76.969489795147453 -11.289729832234748 0 0 1 0 0 0 1 forward_v I I I I #
coedge $-1 $182 $183 $113 $184 forward $69 $-1 #
coedge $-1 $185 $71 $186 $187 reversed $44 $-1 #
coedge $-1 $71 $185 $111 $184 reversed $44 $-1 #
coedge $-1 $188 $189 $71 $115 reversed $190 $-1 #
edge $-1 $191 -11.751958280439284 $192 11.751958280439284 $114 $193 forward 7 unknown #
face $-1 $194 $195 $26 $-1 $196 forward single #
loop $-1 $-1 $197 $72 #
plane-surface $-1 -23.271474018194194 91.459392940873229 145.74386065443142 -1 0 0 0 0.73135370988377701 0.68199835119979291 forward_v I I I I #
coedge $-1 $198 $199 $200 $201 reversed $73 $-1 #
coedge $-1 $121 $75 $202 $203 reversed $47 $-1 #
coedge $-1 $75 $120 $198 $204 reversed $47 $-1 #
coedge $-1 $200 $205 $75 $123 forward $195 $-1 #
edge $-1 $206 14.020244237203958 $207 21.890882147404341 $122 $208 forward 7 unknown #
loop $-1 $-1 $129 $76 #
plane-surface $-1 -40.293860361323539 -11.542136047793846 49.69338331086 0 0.73135370988377701 0.68199835119979291 1 0 0 forward_v I I I I #
loop $-1 $-1 $209 $49 #
coedge $-1 $127 $127 $128 $210 reversed $77 $-1 #
coedge $-1 $128 $128 $127 $210 forward $79 $-1 #
coedge $-1 $129 $129 $80 $130 forward $124 $-1 #
edge $-1 $211 2.8055273266991274e-016 $211 6.2831853071796004 $129 $212 forward 7 unknown #
loop $-1 $-1 $136 $81 #
plane-surface $-1 -40.293860361323539 -11.542136047793846 49.69338331086 0 0.73135370988377701 0.68199835119979291 1 0 0 forward_v I I I I #
loop $-1 $-1 $213 $52 #
coedge $-1 $134 $134 $135 $214 reversed $82 $-1 #
coedge $-1 $135 $135 $134 $214 forward $84 $-1 #
coedge $-1 $136 $136 $85 $137 forward $131 $-1 #
edge $-1 $215 2.8055273266991274e-016 $215 6.2831853071796004 $136 $216 forward 7 unknown #
loop $-1 $-1 $143 $86 #
plane-surface $-1 -40.293860361323539 -11.542136047793846 49.69338331086 0 0.73135370988377701 0.68199835119979291 1 0 0 forward_v I I I I #
loop $-1 $-1 $217 $55 #
coedge $-1 $141 $141 $142 $218 reversed $87 $-1 #
coedge $-1 $142 $142 $141 $218 forward $89 $-1 #
coedge $-1 $143 $143 $90 $144 forward $138 $-1 #
edge $-1 $219 2.8055273266991274e-016 $219 6.2831853071796004 $143 $220 forward 7 unknown #
face $-1 $221 $222 $30 $-1 $223 forward single #
loop $-1 $-1 $224 $91 #
plane-surface $-1 0 -31.709452233232657 0 0 1 0 0 0 1 forward_v I I I I #
coedge $-1 $225 $226 $227 $228 reversed $92 $-1 #
coedge $-1 $229 $94 $230 $231 reversed $59 $-1 #
coedge $-1 $94 $229 $225 $232 forward $59 $-1 #
coedge $-1 $227 $233 $94 $152 forward $222 $-1 #
edge $-1 $234 -41.936353696618632 $235 -15.027756439975917 $151 $236 forward 7 unknown #
loop $-1 $-1 $158 $95 #
plane-surface $-1 56.964110136594556 -31.709452233232639 4.8459358220773794 0 -0.66913061440640931 0.74314481823134659 1 0 0 forward_v I I I I #
loop $-1 $-1 $237 $61 #
coedge $-1 $156 $156 $157 $238 reversed $96 $-1 #
coedge $-1 $157 $157 $156 $238 forward $98 $-1 #
coedge $-1 $158 $158 $99 $159 forward $153 $-1 #
edge $-1 $239 1.3884952034978006e-015 $239 6.2831853071796022 $158 $240 forward 7 unknown #
face $-1 $241 $242 $24 $-1 $243 reversed single #
loop $-1 $-1 $169 $100 #
plane-surface $-1 0 -31.709452233232657 0 0 1 0 0 0 1 forward_v I I I I #
coedge $-1 $174 $173 $244 $245 forward $101 $-1 #
coedge $-1 $246 $103 $247 $248 forward $65 $-1 #
coedge $-1 $103 $246 $249 $250 forward $65 $-1 #
coedge $-1 $251 $252 $103 $167 reversed $253 $-1 #
edge $-1 $254 -31.709452233232657 $255 31.709452233232657 $166 $256 forward 7 unknown #
coedge $-1 $105 $104 $246 $257 reversed $41 $-1 #
coedge $-1 $258 $249 $104 $170 forward $161 $-1 #
edge $-1 $259 -11.751958280439284 $175 11.751958280439284 $104 $260 forward 7 unknown #
coedge $-1 $247 $261 $105 $172 reversed $242 $-1 #
edge $-1 $262 -11.751958280439284 $176 11.751958280439284 $171 $263 forward 7 unknown #
coedge $-1 $163 $106 $261 $264 forward $101 $-1 #
coedge $-1 $106 $163 $258 $265 forward $101 $-1 #
vertex $-1 $107 $266 #
vertex $-1 $264 $267 #
straight-curve $-1 -70.418408764915924 0 -11.751958280439284 0 1 0 I I #
face $-1 $268 $190 $25 $-1 $269 reversed single #
loop $-1 $-1 $270 $108 #
plane-surface $-1 -83.520570825378982 -9.7476327522944182 0 1 0 0 0 0 -1 forward_v I I I I #
coedge $-1 $271 $272 $273 $274 forward $109 $-1 #
coedge $-1 $275 $111 $271 $276 forward $69 $-1 #
coedge $-1 $111 $275 $188 $277 forward $69 $-1 #
edge $-1 $191 8.2055356723540882 $278 11.289729832234748 $111 $279 forward 7 unknown #
coedge $-1 $113 $112 $280 $281 forward $44 $-1 #
coedge $-1 $282 $283 $112 $187 forward $284 $-1 #
edge $-1 $285 -11.289729832234748 $192 -8.2055356723540882 $186 $286 forward 7 unknown #
coedge $-1 $287 $114 $183 $277 reversed $190 $-1 #
coedge $-1 $114 $287 $282 $288 reversed $190 $-1 #
loop $-1 $-1 $114 $178 #
vertex $-1 $184 $289 #
vertex $-1 $288 $290 #
straight-curve $-1 -70.418408764915924 -8.2055356723540882 0 0 0 1 I I #
face $-1 $-1 $291 $26 $-1 $292 reversed single #
loop $-1 $-1 $122 $116 #
plane-surface $-1 0 0 11.751958280439284 0 0 1 1 0 0 forward_v I I I I #
coedge $-1 $293 $294 $295 $296 reversed $117 $-1 #
coedge $-1 $297 $119 $121 $204 forward $73 $-1 #
coedge $-1 $119 $297 $293 $298 forward $73 $-1 #
coedge $-1 $295 $122 $119 $201 forward $195 $-1 #
edge $-1 $207 -37.16931652379111 $299 -3.1245438375324248 $200 $300 forward 7 unknown #
coedge $-1 $301 $302 $120 $203 forward $291 $-1 #
edge $-1 $303 -69.560198074669927 $206 -61.119972046776425 $202 $304 forward 7 unknown #
edge $-1 $207 51.878351771060508 $303 63.418904466465271 $121 $305 forward 7 unknown #
coedge $-1 $122 $295 $301 $306 forward $195 $-1 #
vertex $-1 $203 $307 #
vertex $-1 $123 $308 #
straight-curve $-1 -57.31624670445288 45.729696470436615 11.751958280439283 0 -1 0 I I #
coedge $-1 $209 $209 $-1 $309 reversed $126 $-1 #
edge $-1 $310 0 $310 6.2831853071796004 $127 $311 forward 7 unknown #
vertex $-1 $130 $312 #
ellipse-curve $-1 -50.507292167201143 27.77413327813246 7.5318452664925388 0 0.73135370988377701 0.68199835119979291 2.5 0 0 1 I I #
coedge $-1 $213 $213 $-1 $313 reversed $133 $-1 #
edge $-1 $314 0 $314 6.2831853071796004 $134 $315 forward 7 unknown #
vertex $-1 $137 $316 #
ellipse-curve $-1 -40.293860361323532 27.77413327813246 7.5318452664925388 0 0.73135370988377701 0.68199835119979291 2.5 0 0 1 I I #
coedge $-1 $217 $217 $-1 $317 reversed $140 $-1 #
edge $-1 $318 0 $318 6.2831853071796004 $141 $319 forward 7 unknown #
vertex $-1 $144 $320 #
ellipse-curve $-1 -30.08042855544592 27.77413327813246 7.5318452664925388 0 0.73135370988377701 0.68199835119979291 2.5 0 0 1 I I #
face $-1 $-1 $321 $30 $-1 $322 reversed single #
loop $-1 $-1 $227 $145 #
plane-surface $-1 0 0 11.751958280439284 0 0 1 1 0 0 forward_v I I I I #
coedge $-1 $323 $324 $226 $325 forward $146 $-1 #
coedge $-1 $226 $148 $150 $232 reversed $92 $-1 #
coedge $-1 $148 $225 $224 $325 reversed $92 $-1 #
coedge $-1 $326 $151 $148 $228 forward $222 $-1 #
edge $-1 $235 -38.934301808690989 $327 -31.264387005773539 $227 $328 forward 7 unknown #
coedge $-1 $150 $149 $323 $329 reversed $59 $-1 #
coedge $-1 $330 $331 $149 $231 forward $321 $-1 #
edge $-1 $332 -10.161075551040309 $234 0.15981294169186655 $230 $333 forward 7 unknown #
edge $-1 $334 -2.3898436495477339e-014 $235 10.320888492732152 $225 $335 forward 7 unknown #
coedge $-1 $151 $326 $330 $336 forward $222 $-1 #
vertex $-1 $231 $337 #
vertex $-1 $152 $338 #
straight-curve $-1 28.482055068297278 -24.039537430315203 11.751958280439284 -1 0 0 I I #
coedge $-1 $237 $237 $-1 $339 reversed $155 $-1 #
edge $-1 $340 0 $340 6.2831853071796004 $156 $341 forward 7 unknown #
vertex $-1 $159 $342 #
ellipse-curve $-1 56.964110136594556 -27.874494831773934 8.2989470512583221 0 -0.66913061440640931 0.74314481823134659 2 0 0 1 I I #
face $-1 $-1 $253 $24 $-1 $343 reversed single #
loop $-1 $-1 $344 $160 #
plane-surface $-1 0 31.709452233232657 0 0 -1 0 0 0 -1 forward_v I I I I #
coedge $-1 $252 $251 $163 $245 reversed $253 $-1 #
edge $-1 $345 -31.709452233232657 $346 31.709452233232657 $244 $347 forward 7 unknown #
coedge $-1 $165 $164 $168 $257 forward $65 $-1 #
coedge $-1 $344 $171 $164 $248 reversed $242 $-1 #
edge $-1 $255 -70.418408764915924 $262 70.418408764915924 $247 $348 forward 7 unknown #
coedge $-1 $169 $349 $165 $250 reversed $161 $-1 #
edge $-1 $259 -70.418408764915924 $254 70.418408764915924 $249 $350 forward 7 unknown #
coedge $-1 $244 $166 $349 $351 forward $253 $-1 #
coedge $-1 $166 $244 $344 $352 reversed $253 $-1 #
loop $-1 $-1 $251 $241 #
vertex $-1 $167 $353 #
vertex $-1 $167 $354 #
straight-curve $-1 70.418408764915924 0 11.751958280439284 0 1 0 I I #
edge $-1 $262 -31.709452233232657 $259 31.709452233232657 $168 $355 forward 7 unknown #
coedge $-1 $349 $169 $174 $265 reversed $161 $-1 #
vertex $-1 $257 $356 #
straight-curve $-1 -70.418408764915924 -31.709452233232657 0 0 0 -1 I I #
coedge $-1 $171 $344 $173 $264 reversed $242 $-1 #
vertex $-1 $248 $357 #
straight-curve $-1 -70.418408764915924 31.709452233232657 0 0 0 -1 I I #
edge $-1 $176 -70.418408764915924 $345 70.418408764915924 $261 $358 forward 7 unknown #
edge $-1 $346 -70.418408764915924 $175 70.418408764915924 $258 $359 forward 7 unknown #
point $-1 -70.418408764915924 -31.709452233232657 -11.751958280439284 #
point $-1 -70.418408764915924 31.709452233232657 -11.751958280439284 #
face $-1 $-1 $284 $25 $-1 $360 forward single #
plane-surface $-1 -76.969489795147453 -8.2055356723540882 0 0 -1 0 0 0 -1 forward_v I I I I #
coedge $-1 $361 $362 $287 $363 forward $179 $-1 #
coedge $-1 $280 $181 $182 $276 reversed $109 $-1 #
coedge $-1 $181 $280 $283 $364 reversed $109 $-1 #
coedge $-1 $362 $361 $181 $274 reversed $179 $-1 #
edge $-1 $365 -11.751958280439284 $366 11.751958280439284 $273 $367 forward 7 unknown #
coedge $-1 $183 $182 $361 $368 forward $69 $-1 #
edge $-1 $278 -6.5510810302315292 $366 6.5510810302315292 $271 $369 forward 7 unknown #
edge $-1 $370 -6.5510810302315292 $191 6.5510810302315292 $188 $371 forward 7 unknown #
vertex $-1 $276 $372 #
straight-curve $-1 -70.418408764915924 0 -11.751958280439284 0 -1 0 I I #
coedge $-1 $272 $271 $185 $281 reversed $109 $-1 #
edge $-1 $285 -11.751958280439284 $278 11.751958280439284 $280 $373 forward 7 unknown #
coedge $-1 $374 $186 $189 $288 forward $284 $-1 #
coedge $-1 $186 $374 $272 $364 forward $284 $-1 #
loop $-1 $-1 $186 $268 #
vertex $-1 $187 $375 #
straight-curve $-1 -70.418408764915924 0 11.751958280439284 0 1 0 I I #
coedge $-1 $189 $188 $270 $363 reversed $190 $-1 #
edge $-1 $192 -6.5510810302315292 $376 6.5510810302315292 $189 $377 forward 7 unknown #
point $-1 -70.418408764915924 -8.2055356723540882 -11.751958280439284 #
point $-1 -70.418408764915924 -8.2055356723540882 11.751958280439284 #
loop $-1 $-1 $202 $194 #
plane-surface $-1 0 31.709452233232657 0 0 -1 0 0 0 -1 forward_v I I I I #
coedge $-1 $294 $197 $199 $298 reversed $117 $-1 #
coedge $-1 $197 $293 $378 $379 reversed $117 $-1 #
coedge $-1 $205 $200 $197 $296 forward $195 $-1 #
edge $-1 $299 -21.890882147404341 $380 -14.020244237203958 $295 $381 forward 7 unknown #
coedge $-1 $199 $198 $302 $382 reversed $73 $-1 #
edge $-1 $383 -63.418904466465271 $299 -51.878351771060508 $293 $384 forward 7 unknown #
vertex $-1 $201 $385 #
straight-curve $-1 -20.146930180661769 23.838814323032274 11.751958280439283 1 0 0 I I #
coedge $-1 $378 $202 $205 $306 reversed $291 $-1 #
coedge $-1 $202 $378 $297 $382 forward $291 $-1 #
vertex $-1 $203 $386 #
straight-curve $-1 -57.31624670445288 31.709452233232657 72.871930327215708 0 0 1 I I #
straight-curve $-1 -57.31624670445288 -11.542136047793846 49.69338331086 0 0.68199835119979291 -0.73135370988377701 I I #
edge $-1 $380 23.271474018194194 $206 57.31624670445288 $301 $387 forward 7 unknown #
point $-1 -57.31624670445288 31.709452233232657 11.751958280439284 #
point $-1 -57.31624670445288 23.838814323032274 11.751958280439283 #
edge $-1 $388 1 $388 0 $209 $-1 forward 7 unknown #
vertex $-1 $210 $389 #
ellipse-curve $-1 -50.507292167201143 25.157970775622232 5.0922343243859629 0 0.73135370988377701 0.68199835119979291 2.5 0 0 1 I I #
point $-1 -48.007292167201143 27.774133278132446 7.5318452664925246 #
edge $-1 $390 1 $390 0 $213 $-1 forward 7 unknown #
vertex $-1 $214 $391 #
ellipse-curve $-1 -40.293860361323532 25.157970775622232 5.0922343243859629 0 0.73135370988377701 0.68199835119979291 2.5 0 0 1 I I #
point $-1 -37.793860361323532 27.774133278132446 7.5318452664925246 #
edge $-1 $392 1 $392 0 $217 $-1 forward 7 unknown #
vertex $-1 $218 $393 #
ellipse-curve $-1 -30.08042855544592 25.157970775622232 5.0922343243859629 0 0.73135370988377701 0.68199835119979291 2.5 0 0 1 I I #
point $-1 -27.58042855544592 27.774133278132446 7.5318452664925246 #
loop $-1 $-1 $230 $221 #
plane-surface $-1 70.418408764915924 0 0 -1 0 0 0 0 1 forward_v I I I I #
coedge $-1 $394 $224 $229 $329 forward $146 $-1 #
coedge $-1 $224 $394 $326 $395 reversed $146 $-1 #
edge $-1 $327 43.002085212343523 $334 49.908107670705441 $224 $396 forward 7 unknown #
coedge $-1 $233 $227 $324 $395 forward $222 $-1 #
vertex $-1 $395 $397 #
straight-curve $-1 43.509811508273195 -62.973839239006196 11.751958280439283 0 -1 0 I I #
edge $-1 $334 15.027756439975917 $332 41.936353696618632 $323 $398 forward 7 unknown #
coedge $-1 $331 $230 $233 $336 reversed $321 $-1 #
coedge $-1 $230 $330 $394 $399 forward $321 $-1 #
vertex $-1 $329 $400 #
straight-curve $-1 70.418408764915924 -24.158301589819825 11.645022548574909 0 0.74314481823134659 0.66913061440640931 I I #
vertex $-1 $329 $401 #
straight-curve $-1 43.509811508273195 -31.709452233232639 4.8459358220773794 0 0.74314481823134659 0.66913061440640931 I I #
edge $-1 $402 -31.709452233232657 $234 -24.039537430315207 $330 $403 forward 7 unknown #
point $-1 70.41840876491591 -24.039537430315207 11.751958280439284 #
point $-1 43.509811508273195 -24.039537430315207 11.751958280439284 #
edge $-1 $404 1 $404 0 $237 $-1 forward 7 unknown #
vertex $-1 $238 $405 #
ellipse-curve $-1 56.964110136594556 -24.20274090273772 4.2210512751033935 0 -0.66913061440640931 0.74314481823134659 2 0 0 1 I I #
point $-1 58.964110136594556 -27.874494831773944 8.2989470512583381 #
plane-surface $-1 70.418408764915924 0 0 -1 0 0 0 0 1 forward_v I I I I #
coedge $-1 $261 $247 $252 $352 forward $242 $-1 #
vertex $-1 $245 $406 #
vertex $-1 $351 $407 #
straight-curve $-1 70.418408764915924 0 -11.751958280439284 0 -1 0 I I #
straight-curve $-1 0 31.709452233232657 11.751958280439284 -1 0 0 I I #
coedge $-1 $249 $258 $251 $351 reversed $161 $-1 #
straight-curve $-1 0 -31.709452233232657 11.751958280439284 1 0 0 I I #
edge $-1 $254 -11.751958280439284 $346 11.751958280439284 $251 $408 forward 7 unknown #
edge $-1 $255 -11.751958280439284 $345 11.751958280439284 $252 $409 forward 7 unknown #
point $-1 70.418408764915924 -31.709452233232657 11.751958280439284 #
point $-1 70.418408764915924 31.709452233232657 11.751958280439284 #
straight-curve $-1 -70.418408764915924 0 11.751958280439284 0 -1 0 I I #
point $-1 -70.418408764915924 -31.709452233232657 11.751958280439284 #
point $-1 -70.418408764915924 31.709452233232657 11.751958280439284 #
straight-curve $-1 0 31.709452233232657 -11.751958280439284 1 0 0 I I #
straight-curve $-1 0 -31.709452233232657 -11.751958280439284 -1 0 0 I I #
plane-surface $-1 0 0 11.751958280439284 0 0 1 1 0 0 forward_v I I I I #
coedge $-1 $273 $270 $275 $368 reversed $179 $-1 #
coedge $-1 $270 $273 $374 $410 reversed $179 $-1 #
edge $-1 $376 -11.751958280439284 $370 11.751958280439284 $287 $411 forward 7 unknown #
edge $-1 $365 -6.5510810302315292 $285 6.5510810302315292 $272 $412 forward 7 unknown #
vertex $-1 $410 $413 #
vertex $-1 $368 $414 #
straight-curve $-1 -83.520570825378982 -11.289729832234748 0 0 0 -1 I I #
edge $-1 $366 -1.54209707994033 $370 1.54209707994033 $361 $415 forward 7 unknown #
straight-curve $-1 -76.969489795147453 -11.289729832234748 -11.751958280439284 -1 0 0 I I #
vertex $-1 $277 $416 #
straight-curve $-1 -76.969489795147453 -8.2055356723540882 -11.751958280439284 1 0 0 I I #
point $-1 -70.418408764915924 -11.289729832234748 -11.751958280439284 #
straight-curve $-1 -70.418408764915924 -11.289729832234748 0 0 0 -1 I I #
coedge $-1 $283 $282 $362 $410 forward $284 $-1 #
point $-1 -70.418408764915924 -11.289729832234748 11.751958280439284 #
vertex $-1 $288 $417 #
straight-curve $-1 -76.969489795147453 -8.2055356723540882 11.751958280439284 -1 0 0 I I #
coedge $-1 $302 $301 $294 $379 forward $291 $-1 #
edge $-1 $380 61.119972046776425 $383 69.560198074669927 $378 $418 forward 7 unknown #
vertex $-1 $306 $419 #
straight-curve $-1 -23.271474018194194 45.729696470436615 11.751958280439283 0 1 0 I I #
edge $-1 $383 3.1245438375324248 $303 37.16931652379111 $302 $420 forward 7 unknown #
vertex $-1 $382 $421 #
straight-curve $-1 -23.271474018194194 -11.542136047793846 49.69338331086 0 -0.68199835119979291 0.73135370988377701 I I #
point $-1 -23.271474018194194 23.838814323032274 11.751958280439283 #
point $-1 -57.31624670445288 31.709452233232653 3.3117322525457809 #
straight-curve $-1 0 31.709452233232657 11.751958280439284 -1 0 0 I I #
vertex $-1 $309 $422 #
point $-1 -48.007292167201143 25.157970775622232 5.0922343243859629 #
vertex $-1 $313 $423 #
point $-1 -37.793860361323532 25.157970775622232 5.0922343243859629 #
vertex $-1 $317 $424 #
point $-1 -27.58042855544592 25.157970775622232 5.0922343243859629 #
coedge $-1 $324 $323 $331 $399 reversed $146 $-1 #
edge $-1 $327 43.509811508273195 $402 70.418408764915924 $324 $425 forward 7 unknown #
straight-curve $-1 43.509811508273195 -31.709452233232653 54.754043492782806 0 0 -1 I I #
point $-1 43.509811508273195 -31.709452233232657 11.751958280439284 #
straight-curve $-1 28.482055068297278 -31.709452233232657 4.8459358220773598 1 0 0 I I #
edge $-1 $402 -11.751958280439284 $332 -4.8459358220773634 $331 $426 forward 7 unknown #
point $-1 70.41840876491591 -31.709452233232657 4.8459358220773634 #
point $-1 43.509811508273195 -31.709452233232657 4.8459358220773634 #
vertex $-1 $336 $427 #
straight-curve $-1 70.418408764915924 0 11.751958280439284 0 1 0 I I #
vertex $-1 $339 $428 #
point $-1 58.964110136594556 -24.20274090273772 4.2210512751033935 #
point $-1 70.418408764915924 31.709452233232657 -11.751958280439284 #
point $-1 70.418408764915924 -31.709452233232657 -11.751958280439284 #
straight-curve $-1 70.418408764915924 -31.709452233232657 0 0 0 -1 I I #
straight-curve $-1 70.418408764915924 31.709452233232657 0 0 0 -1 I I #
edge $-1 $376 -1.54209707994033 $365 1.54209707994033 $362 $429 forward 7 unknown #
straight-curve $-1 -83.520570825378982 -8.2055356723540882 0 0 0 -1 I I #
straight-curve $-1 -76.969489795147453 -11.289729832234748 11.751958280439284 1 0 0 I I #
point $-1 -83.520570825378982 -11.289729832234748 11.751958280439284 #
point $-1 -83.520570825378982 -11.289729832234748 -11.751958280439284 #
straight-curve $-1 -83.520570825378982 -9.7476327522944182 -11.751958280439284 0 1 0 I I #
point $-1 -83.520570825378982 -8.2055356723540882 -11.751958280439284 #
point $-1 -83.520570825378982 -8.2055356723540882 11.751958280439284 #
straight-curve $-1 -23.271474018194194 31.709452233232657 72.871930327215708 0 0 -1 I I #
point $-1 -23.271474018194194 31.709452233232657 11.751958280439284 #
straight-curve $-1 -20.146930180661769 31.709452233232657 3.3117322525457844 -1 0 0 I I #
point $-1 -23.271474018194194 31.709452233232653 3.3117322525457809 #
point $-1 -50.507292167201143 23.329586500912789 3.3872384463864802 #
point $-1 -40.293860361323532 23.329586500912789 3.3872384463864802 #
point $-1 -30.08042855544592 23.329586500912789 3.3872384463864802 #
straight-curve $-1 0 -31.709452233232657 11.751958280439284 1 0 0 I I #
straight-curve $-1 70.418408764915924 -31.709452233232657 0 0 0 -1 I I #
point $-1 70.418408764915924 -31.709452233232657 11.751958280439284 #
point $-1 56.964110136594556 -22.864479673924901 2.7347616386407001 #
straight-curve $-1 -83.520570825378982 -9.7476327522944182 11.751958280439284 0 -1 0 I I #
End-of-ACIS-data 