500 0 18 0           
7 Unknown 11 ACIS 5.0 NT 24 Thu Mar 25 21:58:14 1999 
-1 9.9999999999999995e-007 1e-010 
body $-1 $18 $-1 $19 #
body $-1 $20 $-1 $21 #
body $-1 $22 $-1 $23 #
body $-1 $24 $-1 $25 #
body $-1 $26 $-1 $27 #
body $-1 $28 $-1 $29 #
body $-1 $30 $-1 $31 #
body $-1 $32 $-1 $33 #
body $-1 $34 $-1 $35 #
body $-1 $36 $-1 $37 #
body $-1 $38 $-1 $39 #
body $-1 $40 $-1 $41 #
body $-1 $42 $-1 $43 #
body $-1 $44 $-1 $45 #
body $-1 $46 $-1 $47 #
body $-1 $48 $-1 $49 #
body $-1 $50 $-1 $51 #
body $-1 $52 $-1 $53 #
lump $-1 $-1 $54 $0 #
transform $-1 1 0 0 0 1 0 0 0 1 52.264778588213751 30.746530091249877 14.170127715902945 1 rotate no_reflect no_shear #
lump $-1 $-1 $55 $1 #
transform $-1 1 0 0 0 1 0 0 0 1 52.264778588213751 30.746530091249877 14.170127715902945 1 rotate no_reflect no_shear #
lump $-1 $-1 $56 $2 #
transform $-1 1 0 0 0 1 0 0 0 1 52.264778588213751 30.746530091249877 14.170127715902945 1 rotate no_reflect no_shear #
lump $-1 $-1 $57 $3 #
transform $-1 1 0 0 0 1 0 0 0 1 52.264778588213751 30.746530091249877 14.170127715902945 1 rotate no_reflect no_shear #
lump $-1 $-1 $58 $4 #
transform $-1 1 0 0 0 1 0 0 0 1 52.264778588213751 30.746530091249877 14.170127715902945 1 rotate no_reflect no_shear #
lump $-1 $-1 $59 $5 #
transform $-1 1 0 0 0 1 0 0 0 1 52.264778588213751 30.746530091249877 14.170127715902945 1 rotate no_reflect no_shear #
lump $-1 $-1 $60 $6 #
transform $-1 1 0 0 0 1 0 0 0 1 52.264778588213751 30.746530091249877 14.170127715902945 1 rotate no_reflect no_shear #
lump $-1 $-1 $61 $7 #
transform $-1 1 0 0 0 1 0 0 0 1 52.264778588213751 30.746530091249877 14.170127715902945 1 rotate no_reflect no_shear #
lump $-1 $-1 $62 $8 #
transform $-1 1 0 0 0 1 0 0 0 1 52.264778588213751 30.746530091249877 14.170127715902945 1 rotate no_reflect no_shear #
lump $-1 $-1 $63 $9 #
transform $-1 1 0 0 0 1 0 0 0 1 52.264778588213751 30.746530091249877 14.170127715902945 1 rotate no_reflect no_shear #
lump $-1 $-1 $64 $10 #
transform $-1 1 0 0 0 1 0 0 0 1 52.264778588213751 30.746530091249877 14.170127715902945 1 rotate no_reflect no_shear #
lump $-1 $-1 $65 $11 #
transform $-1 1 0 0 0 1 0 0 0 1 52.264778588213751 30.746530091249877 14.170127715902945 1 rotate no_reflect no_shear #
lump $-1 $-1 $66 $12 #
transform $-1 1 0 0 0 1 0 0 0 1 52.264778588213751 30.746530091249877 14.170127715902945 1 rotate no_reflect no_shear #
lump $-1 $-1 $67 $13 #
transform $-1 1 0 0 0 1 0 0 0 1 52.264778588213751 30.746530091249877 14.170127715902945 1 rotate no_reflect no_shear #
lump $-1 $-1 $68 $14 #
transform $-1 1 0 0 0 1 0 0 0 1 52.264778588213751 30.746530091249877 14.170127715902945 1 rotate no_reflect no_shear #
lump $-1 $-1 $69 $15 #
transform $-1 1 0 0 0 1 0 0 0 1 52.264778588213751 30.746530091249877 14.170127715902945 1 rotate no_reflect no_shear #
lump $-1 $-1 $70 $16 #
transform $-1 1 0 0 0 1 0 0 0 1 52.264778588213751 30.746530091249877 14.170127715902945 1 rotate no_reflect no_shear #
lump $-1 $-1 $71 $17 #
transform $-1 1 0 0 0 1 0 0 0 1 52.264778588213751 30.746530091249877 14.170127715902945 1 rotate no_reflect no_shear #
shell $-1 $-1 $-1 $72 $-1 $18 #
shell $-1 $-1 $-1 $73 $-1 $20 #
shell $-1 $-1 $-1 $74 $-1 $22 #
shell $-1 $-1 $-1 $75 $-1 $24 #
shell $-1 $-1 $-1 $76 $-1 $26 #
shell $-1 $-1 $-1 $77 $-1 $28 #
shell $-1 $-1 $-1 $78 $-1 $30 #
shell $-1 $-1 $-1 $79 $-1 $32 #
shell $-1 $-1 $-1 $80 $-1 $34 #
shell $-1 $-1 $-1 $81 $-1 $36 #
shell $-1 $-1 $-1 $82 $-1 $38 #
shell $-1 $-1 $-1 $83 $-1 $40 #
shell $-1 $-1 $-1 $84 $-1 $42 #
shell $-1 $-1 $-1 $85 $-1 $44 #
shell $-1 $-1 $-1 $86 $-1 $46 #
shell $-1 $-1 $-1 $87 $-1 $48 #
shell $-1 $-1 $-1 $88 $-1 $50 #
shell $-1 $-1 $-1 $89 $-1 $52 #
face $-1 $90 $91 $54 $-1 $92 forward single #
face $-1 $93 $94 $55 $-1 $95 forward single #
face $-1 $96 $97 $56 $-1 $98 forward single #
face $-1 $99 $100 $57 $-1 $101 reversed single #
face $-1 $102 $103 $58 $-1 $104 forward single #
face $-1 $105 $106 $59 $-1 $107 forward single #
face $-1 $108 $109 $60 $-1 $110 reversed single #
face $-1 $111 $112 $61 $-1 $113 forward single #
face $-1 $114 $115 $62 $-1 $116 forward single #
face $-1 $117 $118 $63 $-1 $119 forward single #
face $-1 $120 $121 $64 $-1 $122 reversed single #
face $-1 $123 $124 $65 $-1 $125 forward single #
face $-1 $126 $127 $66 $-1 $128 forward single #
face $-1 $129 $130 $67 $-1 $131 forward single #
face $-1 $132 $133 $68 $-1 $134 reversed single #
face $-1 $135 $136 $69 $-1 $137 forward single #
face $-1 $138 $139 $70 $-1 $140 forward single #
face $-1 $141 $142 $71 $-1 $143 forward single #
face $-1 $144 $145 $54 $-1 $146 reversed single #
loop $-1 $-1 $147 $72 #
plane-surface $-1 0 0 14.170127715902945 0 0 1 1 0 0 forward_v I I I I #
face $-1 $148 $149 $55 $-1 $150 reversed single #
loop $-1 $-1 $151 $73 #
plane-surface $-1 0 -24.840808162535627 10.124259830008667 0 0 1 1 0 0 forward_v I I I I #
face $-1 $152 $153 $56 $-1 $154 reversed single #
loop $-1 $-1 $155 $74 #
plane-surface $-1 0 24.840808162535627 10.124259830008667 0 0 1 1 0 0 forward_v I I I I #
face $-1 $156 $157 $57 $-1 $158 reversed single #
loop $-1 $-1 $159 $75 #
plane-surface $-1 90.52525417009582 -13.648310842557761 149.7265746140574 0 1 0 0.86602541151947299 0 0.49999998660252726 forward_v I I I I #
face $-1 $160 $161 $58 $-1 $162 forward single #
loop $-1 $163 $164 $76 #
cone-surface $-1 49.743610393813029 -11.737598066090928 10.303336192956008 -0.86602541151947299 0 -0.49999998660252726 0.24999999330126363 0 -0.43301270575973649 1 I I 0 1 0.5 forward I I I I #
face $-1 $165 $166 $59 $-1 $167 forward single #
loop $-1 $168 $169 $77 #
cone-surface $-1 49.743610393813029 -8.8715289013906791 10.303336192956008 -0.86602541151947299 0 -0.49999998660252726 0.24999999330126363 0 -0.43301270575973649 1 I I 0 1 0.5 forward I I I I #
face $-1 $170 $171 $60 $-1 $172 reversed single #
loop $-1 $-1 $173 $78 #
plane-surface $-1 -139.93064250914023 -10.019996950802438 62.090672399120969 0 -1 0 0.83867057594974714 0 -0.54463902268945019 forward_v I I I I #
face $-1 $174 $175 $61 $-1 $176 forward single #
loop $-1 $177 $178 $79 #
cone-surface $-1 -48.677869331846516 -14.840620916252075 9.235560456413161 0.83867057594974714 0 -0.54463902268945019 0.2723195113447251 0 0.41933528797487357 1 I I 0 1 0.5 forward I I I I #
face $-1 $179 $180 $62 $-1 $181 forward single #
loop $-1 $182 $183 $80 #
cone-surface $-1 -48.677869331846516 -13.032886929208459 9.235560456413161 0.83867057594974714 0 -0.54463902268945019 0.2723195113447251 0 0.41933528797487357 1 I I 0 1 0.5 forward I I I I #
face $-1 $184 $185 $63 $-1 $186 forward single #
loop $-1 $187 $188 $81 #
cone-surface $-1 -48.677869331846516 -11.225152942164843 9.235560456413161 0.83867057594974714 0 -0.54463902268945019 0.2723195113447251 0 0.41933528797487357 1 I I 0 1 0.5 forward I I I I #
face $-1 $189 $190 $64 $-1 $191 reversed single #
loop $-1 $-1 $192 $82 #
plane-surface $-1 -139.93064250914023 3.0128899784060206 62.090672399120969 0 -1 0 0.83867057594974714 0 -0.54463902268945019 forward_v I I I I #
face $-1 $193 $194 $65 $-1 $195 forward single #
loop $-1 $196 $197 $83 #
cone-surface $-1 -48.677869331846516 -1.8077339870436155 9.235560456413161 0.83867057594974714 0 -0.54463902268945019 0.2723195113447251 0 0.41933528797487357 1 I I 0 1 0.5 forward I I I I #
face $-1 $198 $199 $66 $-1 $200 forward single #
loop $-1 $201 $202 $84 #
cone-surface $-1 -48.677869331846516 3.5527136788005009e-015 9.235560456413161 0.83867057594974714 0 -0.54463902268945019 0.2723195113447251 0 0.41933528797487357 1 I I 0 1 0.5 forward I I I I #
face $-1 $203 $204 $67 $-1 $205 forward single #
loop $-1 $206 $207 $85 #
cone-surface $-1 -48.677869331846516 1.8077339870436155 9.235560456413161 0.83867057594974714 0 -0.54463902268945019 0.2723195113447251 0 0.41933528797487357 1 I I 0 1 0.5 forward I I I I #
face $-1 $208 $209 $68 $-1 $210 reversed single #
loop $-1 $-1 $211 $86 #
plane-surface $-1 -139.93064250914023 16.045776907614481 62.090672399120969 0 -1 0 0.83867057594974714 0 -0.54463902268945019 forward_v I I I I #
face $-1 $212 $213 $69 $-1 $214 forward single #
loop $-1 $215 $216 $87 #
cone-surface $-1 -48.677869331846516 11.225152942164843 9.235560456413161 0.83867057594974714 0 -0.54463902268945019 0.2723195113447251 0 0.41933528797487357 1 I I 0 1 0.5 forward I I I I #
face $-1 $217 $218 $70 $-1 $219 forward single #
loop $-1 $220 $221 $88 #
cone-surface $-1 -48.677869331846516 13.032886929208463 9.235560456413161 0.83867057594974714 0 -0.54463902268945019 0.2723195113447251 0 0.41933528797487357 1 I I 0 1 0.5 forward I I I I #
face $-1 $222 $223 $71 $-1 $224 forward single #
loop $-1 $225 $226 $89 #
cone-surface $-1 -48.677869331846516 14.840620916252075 9.235560456413161 0.83867057594974714 0 -0.54463902268945019 0.2723195113447251 0 0.41933528797487357 1 I I 0 1 0.5 forward I I I I #
face $-1 $227 $228 $54 $-1 $229 reversed single #
loop $-1 $-1 $230 $90 #
plane-surface $-1 0 0 -14.170127715902945 0 0 1 1 0 0 forward_v I I I I #
coedge $-1 $231 $232 $233 $234 forward $91 $-1 #
face $-1 $235 $236 $55 $-1 $237 reversed single #
loop $-1 $-1 $238 $93 #
plane-surface $-1 0 -24.840808162535627 4.4573331167076216 0 0 1 1 0 0 forward_v I I I I #
coedge $-1 $239 $240 $241 $242 reversed $94 $-1 #
face $-1 $243 $244 $56 $-1 $245 reversed single #
loop $-1 $-1 $246 $96 #
plane-surface $-1 0 24.840808162535627 4.4573331167076216 0 0 1 1 0 0 forward_v I I I I #
coedge $-1 $247 $248 $249 $250 reversed $97 $-1 #
face $-1 $251 $252 $57 $-1 $253 reversed single #
loop $-1 $-1 $254 $99 #
plane-surface $-1 1.4004319126570408e-006 -10.304563483740804 97.461797426275538 0.86602541151947299 0 0.49999998660252726 0.49999998660252726 0 -0.86602541151947299 forward_v I I I I #
coedge $-1 $255 $256 $257 $258 reversed $100 $-1 #
face $-1 $-1 $259 $58 $-1 $260 forward single #
loop $-1 $261 $262 $102 #
cone-surface $-1 49.094091335173424 -11.737598066090928 9.9283362030041129 -0.86602541151947299 0 -0.49999998660252726 0.12499999665063181 0 -0.21650635287986825 1 I I -0.70710678118654746 0.70710678118654746 0.25 forward I I I I #
loop $-1 $-1 $263 $76 #
coedge $-1 $164 $164 $264 $265 reversed $103 $-1 #
face $-1 $-1 $266 $59 $-1 $267 forward single #
loop $-1 $268 $269 $105 #
cone-surface $-1 49.094091335173424 -8.8715289013906791 9.9283362030041129 -0.86602541151947299 0 -0.49999998660252726 0.12499999665063181 0 -0.21650635287986825 1 I I -0.70710678118654746 0.70710678118654746 0.25 forward I I I I #
loop $-1 $-1 $270 $77 #
coedge $-1 $169 $169 $271 $272 reversed $106 $-1 #
face $-1 $273 $274 $60 $-1 $275 reversed single #
loop $-1 $-1 $276 $108 #
plane-surface $-1 -52.264778588213744 -13.032886929208463 5.1597965363904876 -0.83867057594974714 0 0.54463902268945019 0.54463902268945019 0 0.83867057594974714 forward_v I I I I #
coedge $-1 $277 $278 $279 $280 reversed $109 $-1 #
face $-1 $-1 $281 $61 $-1 $282 forward single #
loop $-1 $283 $284 $111 #
cone-surface $-1 -47.80698107995827 -14.840620916252075 8.669999031007249 0.83867057594974714 0 -0.54463902268945019 0.13615975567236255 0 0.20966764398743679 1 I I -0.70710678118654746 0.70710678118654746 0.25 forward I I I I #
loop $-1 $-1 $285 $79 #
coedge $-1 $178 $178 $286 $287 reversed $112 $-1 #
face $-1 $-1 $288 $62 $-1 $289 forward single #
loop $-1 $290 $291 $114 #
cone-surface $-1 -47.80698107995827 -13.032886929208459 8.669999031007249 0.83867057594974714 0 -0.54463902268945019 0.13615975567236255 0 0.20966764398743679 1 I I -0.70710678118654746 0.70710678118654746 0.25 forward I I I I #
loop $-1 $-1 $292 $80 #
coedge $-1 $183 $183 $293 $294 reversed $115 $-1 #
face $-1 $-1 $295 $63 $-1 $296 forward single #
loop $-1 $297 $298 $117 #
cone-surface $-1 -47.80698107995827 -11.225152942164843 8.669999031007249 0.83867057594974714 0 -0.54463902268945019 0.13615975567236255 0 0.20966764398743679 1 I I -0.70710678118654746 0.70710678118654746 0.25 forward I I I I #
loop $-1 $-1 $299 $81 #
coedge $-1 $188 $188 $300 $301 reversed $118 $-1 #
face $-1 $302 $303 $64 $-1 $304 reversed single #
loop $-1 $-1 $305 $120 #
plane-surface $-1 -52.264778588213744 -3.5527136788005009e-015 5.1597965363904876 -0.83867057594974714 0 0.54463902268945019 0.54463902268945019 0 0.83867057594974714 forward_v I I I I #
coedge $-1 $306 $307 $308 $309 reversed $121 $-1 #
face $-1 $-1 $310 $65 $-1 $311 forward single #
loop $-1 $312 $313 $123 #
cone-surface $-1 -47.80698107995827 -1.8077339870436155 8.669999031007249 0.83867057594974714 0 -0.54463902268945019 0.13615975567236255 0 0.20966764398743679 1 I I -0.70710678118654746 0.70710678118654746 0.25 forward I I I I #
loop $-1 $-1 $314 $83 #
coedge $-1 $197 $197 $315 $316 reversed $124 $-1 #
face $-1 $-1 $317 $66 $-1 $318 forward single #
loop $-1 $319 $320 $126 #
cone-surface $-1 -47.80698107995827 3.5527136788005009e-015 8.669999031007249 0.83867057594974714 0 -0.54463902268945019 0.13615975567236255 0 0.20966764398743679 1 I I -0.70710678118654746 0.70710678118654746 0.25 forward I I I I #
loop $-1 $-1 $321 $84 #
coedge $-1 $202 $202 $322 $323 reversed $127 $-1 #
face $-1 $-1 $324 $67 $-1 $325 forward single #
loop $-1 $326 $327 $129 #
cone-surface $-1 -47.80698107995827 1.8077339870436155 8.669999031007249 0.83867057594974714 0 -0.54463902268945019 0.13615975567236255 0 0.20966764398743679 1 I I -0.70710678118654746 0.70710678118654746 0.25 forward I I I I #
loop $-1 $-1 $328 $85 #
coedge $-1 $207 $207 $329 $330 reversed $130 $-1 #
face $-1 $331 $332 $68 $-1 $333 reversed single #
loop $-1 $-1 $334 $132 #
plane-surface $-1 -52.264778588213744 13.032886929208455 5.1597965363904876 -0.83867057594974714 0 0.54463902268945019 0.54463902268945019 0 0.83867057594974714 forward_v I I I I #
coedge $-1 $335 $336 $337 $338 reversed $133 $-1 #
face $-1 $-1 $339 $69 $-1 $340 forward single #
loop $-1 $341 $342 $135 #
cone-surface $-1 -47.80698107995827 11.225152942164843 8.669999031007249 0.83867057594974714 0 -0.54463902268945019 0.13615975567236255 0 0.20966764398743679 1 I I -0.70710678118654746 0.70710678118654746 0.25 forward I I I I #
loop $-1 $-1 $343 $87 #
coedge $-1 $216 $216 $344 $345 reversed $136 $-1 #
face $-1 $-1 $346 $70 $-1 $347 forward single #
loop $-1 $348 $349 $138 #
cone-surface $-1 -47.80698107995827 13.032886929208463 8.669999031007249 0.83867057594974714 0 -0.54463902268945019 0.13615975567236255 0 0.20966764398743679 1 I I -0.70710678118654746 0.70710678118654746 0.25 forward I I I I #
loop $-1 $-1 $350 $88 #
coedge $-1 $221 $221 $351 $352 reversed $139 $-1 #
face $-1 $-1 $353 $71 $-1 $354 forward single #
loop $-1 $355 $356 $141 #
cone-surface $-1 -47.80698107995827 14.840620916252075 8.669999031007249 0.83867057594974714 0 -0.54463902268945019 0.13615975567236255 0 0.20966764398743679 1 I I -0.70710678118654746 0.70710678118654746 0.25 forward I I I I #
loop $-1 $-1 $357 $89 #
coedge $-1 $226 $226 $358 $359 reversed $142 $-1 #
face $-1 $360 $361 $54 $-1 $362 reversed single #
loop $-1 $-1 $363 $144 #
plane-surface $-1 0 -30.746530091249877 0 0 1 0 0 0 1 forward_v I I I I #
coedge $-1 $364 $365 $366 $367 forward $145 $-1 #
coedge $-1 $368 $147 $369 $370 forward $91 $-1 #
coedge $-1 $147 $368 $371 $372 forward $91 $-1 #
coedge $-1 $373 $374 $147 $234 reversed $375 $-1 #
edge $-1 $376 -30.746530091249877 $377 30.746530091249877 $233 $378 forward 7 unknown #
face $-1 $379 $380 $55 $-1 $381 reversed single #
loop $-1 $-1 $382 $148 #
plane-surface $-1 0 -18.935086233821377 7.2907964733581441 0 -1 0 0 0 -1 forward_v I I I I #
coedge $-1 $383 $384 $385 $386 reversed $149 $-1 #
coedge $-1 $387 $151 $388 $389 forward $94 $-1 #
coedge $-1 $151 $387 $390 $391 reversed $94 $-1 #
coedge $-1 $392 $393 $151 $242 forward $394 $-1 #
edge $-1 $395 6.5146821525535632 $396 18.326126009982062 $241 $397 forward 7 unknown #
face $-1 $398 $399 $56 $-1 $400 reversed single #
loop $-1 $-1 $401 $152 #
plane-surface $-1 0 18.935086233821377 7.2907964733581441 0 1 0 0 0 1 forward_v I I I I #
coedge $-1 $402 $403 $404 $405 reversed $153 $-1 #
coedge $-1 $406 $155 $407 $408 reversed $97 $-1 #
coedge $-1 $155 $406 $409 $410 forward $97 $-1 #
coedge $-1 $411 $412 $155 $250 forward $399 $-1 #
edge $-1 $413 -18.326126009982062 $414 -6.5146821525535632 $249 $415 forward 7 unknown #
face $-1 $416 $417 $57 $-1 $418 forward single #
loop $-1 $-1 $419 $156 #
plane-surface $-1 90.52525417009582 -6.9608161249238467 149.7265746140574 0 -1 0 -0.86602541151947299 0 -0.49999998660252726 forward_v I I I I #
coedge $-1 $420 $421 $422 $423 reversed $157 $-1 #
coedge $-1 $256 $159 $424 $425 reversed $100 $-1 #
coedge $-1 $159 $255 $420 $426 reversed $100 $-1 #
coedge $-1 $422 $427 $159 $258 forward $428 $-1 #
edge $-1 $429 60.693159591125756 $430 67.926742650417026 $257 $431 forward 7 unknown #
loop $-1 $-1 $264 $160 #
plane-surface $-1 1.4004319126570408e-006 -10.304563483740804 97.461797426275538 0.86602541151947299 0 0.49999998660252726 0.49999998660252726 0 -0.86602541151947299 forward_v I I I I #
loop $-1 $-1 $432 $102 #
coedge $-1 $262 $262 $263 $433 reversed $161 $-1 #
coedge $-1 $263 $263 $262 $433 forward $163 $-1 #
coedge $-1 $264 $264 $164 $265 forward $259 $-1 #
edge $-1 $434 0 $434 6.2831853071796004 $264 $435 forward 7 unknown #
loop $-1 $-1 $271 $165 #
plane-surface $-1 1.4004319126570408e-006 -10.304563483740804 97.461797426275538 0.86602541151947299 0 0.49999998660252726 0.49999998660252726 0 -0.86602541151947299 forward_v I I I I #
loop $-1 $-1 $436 $105 #
coedge $-1 $269 $269 $270 $437 reversed $166 $-1 #
coedge $-1 $270 $270 $269 $437 forward $168 $-1 #
coedge $-1 $271 $271 $169 $272 forward $266 $-1 #
edge $-1 $438 0 $438 6.2831853071796004 $271 $439 forward 7 unknown #
face $-1 $440 $441 $60 $-1 $442 reversed single #
loop $-1 $-1 $443 $170 #
plane-surface $-1 -139.93064250914023 -16.045776907614488 62.090672399120969 0 1 0 -0.83867057594974714 0 0.54463902268945019 forward_v I I I I #
coedge $-1 $444 $445 $446 $447 reversed $171 $-1 #
coedge $-1 $278 $173 $448 $449 reversed $109 $-1 #
coedge $-1 $173 $277 $444 $450 reversed $109 $-1 #
coedge $-1 $446 $451 $173 $280 forward $441 $-1 #
edge $-1 $452 16.875208483657538 $453 25.885539663170007 $279 $454 forward 7 unknown #
loop $-1 $-1 $286 $174 #
plane-surface $-1 -52.264778588213744 -13.032886929208463 5.1597965363904876 -0.83867057594974714 0 0.54463902268945019 0.54463902268945019 0 0.83867057594974714 forward_v I I I I #
loop $-1 $-1 $455 $111 #
coedge $-1 $284 $284 $285 $456 reversed $175 $-1 #
coedge $-1 $285 $285 $284 $456 forward $177 $-1 #
coedge $-1 $286 $286 $178 $287 forward $281 $-1 #
edge $-1 $457 0 $457 6.2831853071796004 $286 $458 forward 7 unknown #
loop $-1 $-1 $293 $179 #
plane-surface $-1 -52.264778588213744 -13.032886929208463 5.1597965363904876 -0.83867057594974714 0 0.54463902268945019 0.54463902268945019 0 0.83867057594974714 forward_v I I I I #
loop $-1 $-1 $459 $114 #
coedge $-1 $291 $291 $292 $460 reversed $180 $-1 #
coedge $-1 $292 $292 $291 $460 forward $182 $-1 #
coedge $-1 $293 $293 $183 $294 forward $288 $-1 #
edge $-1 $461 0 $461 6.2831853071796004 $293 $462 forward 7 unknown #
loop $-1 $-1 $300 $184 #
plane-surface $-1 -52.264778588213744 -13.032886929208463 5.1597965363904876 -0.83867057594974714 0 0.54463902268945019 0.54463902268945019 0 0.83867057594974714 forward_v I I I I #
loop $-1 $-1 $463 $117 #
coedge $-1 $298 $298 $299 $464 reversed $185 $-1 #
coedge $-1 $299 $299 $298 $464 forward $187 $-1 #
coedge $-1 $300 $300 $188 $301 forward $295 $-1 #
edge $-1 $465 0 $465 6.2831853071796004 $300 $466 forward 7 unknown #
face $-1 $467 $468 $64 $-1 $469 reversed single #
loop $-1 $-1 $470 $189 #
plane-surface $-1 -139.93064250914023 -3.0128899784060277 62.090672399120969 0 1 0 -0.83867057594974714 0 0.54463902268945019 forward_v I I I I #
coedge $-1 $471 $472 $473 $474 reversed $190 $-1 #
coedge $-1 $307 $192 $475 $476 reversed $121 $-1 #
coedge $-1 $192 $306 $471 $477 reversed $121 $-1 #
coedge $-1 $473 $478 $192 $309 forward $468 $-1 #
edge $-1 $479 16.875208483657538 $480 25.885539663170007 $308 $481 forward 7 unknown #
loop $-1 $-1 $315 $193 #
plane-surface $-1 -52.264778588213744 -3.5527136788005009e-015 5.1597965363904876 -0.83867057594974714 0 0.54463902268945019 0.54463902268945019 0 0.83867057594974714 forward_v I I I I #
loop $-1 $-1 $482 $123 #
coedge $-1 $313 $313 $314 $483 reversed $194 $-1 #
coedge $-1 $314 $314 $313 $483 forward $196 $-1 #
coedge $-1 $315 $315 $197 $316 forward $310 $-1 #
edge $-1 $484 0 $484 6.2831853071796004 $315 $485 forward 7 unknown #
loop $-1 $-1 $322 $198 #
plane-surface $-1 -52.264778588213744 -3.5527136788005009e-015 5.1597965363904876 -0.83867057594974714 0 0.54463902268945019 0.54463902268945019 0 0.83867057594974714 forward_v I I I I #
loop $-1 $-1 $486 $126 #
coedge $-1 $320 $320 $321 $487 reversed $199 $-1 #
coedge $-1 $321 $321 $320 $487 forward $201 $-1 #
coedge $-1 $322 $322 $202 $323 forward $317 $-1 #
edge $-1 $488 0 $488 6.2831853071796004 $322 $489 forward 7 unknown #
loop $-1 $-1 $329 $203 #
plane-surface $-1 -52.264778588213744 -3.5527136788005009e-015 5.1597965363904876 -0.83867057594974714 0 0.54463902268945019 0.54463902268945019 0 0.83867057594974714 forward_v I I I I #
loop $-1 $-1 $490 $129 #
coedge $-1 $327 $327 $328 $491 reversed $204 $-1 #
coedge $-1 $328 $328 $327 $491 forward $206 $-1 #
coedge $-1 $329 $329 $207 $330 forward $324 $-1 #
edge $-1 $492 0 $492 6.2831853071796004 $329 $493 forward 7 unknown #
face $-1 $494 $495 $68 $-1 $496 forward single #
loop $-1 $-1 $497 $208 #
plane-surface $-1 -139.93064250914023 10.019996950802431 62.090672399120969 0 1 0 -0.83867057594974714 0 0.54463902268945019 forward_v I I I I #
coedge $-1 $498 $499 $500 $501 reversed $209 $-1 #
coedge $-1 $336 $211 $502 $503 reversed $133 $-1 #
coedge $-1 $211 $335 $498 $504 reversed $133 $-1 #
coedge $-1 $500 $505 $211 $338 forward $506 $-1 #
edge $-1 $507 16.875208483657538 $508 25.885539663170007 $337 $509 forward 7 unknown #
loop $-1 $-1 $344 $212 #
plane-surface $-1 -52.264778588213744 13.032886929208455 5.1597965363904876 -0.83867057594974714 0 0.54463902268945019 0.54463902268945019 0 0.83867057594974714 forward_v I I I I #
loop $-1 $-1 $510 $135 #
coedge $-1 $342 $342 $343 $511 reversed $213 $-1 #
coedge $-1 $343 $343 $342 $511 forward $215 $-1 #
coedge $-1 $344 $344 $216 $345 forward $339 $-1 #
edge $-1 $512 0 $512 6.2831853071796004 $344 $513 forward 7 unknown #
loop $-1 $-1 $351 $217 #
plane-surface $-1 -52.264778588213744 13.032886929208455 5.1597965363904876 -0.83867057594974714 0 0.54463902268945019 0.54463902268945019 0 0.83867057594974714 forward_v I I I I #
loop $-1 $-1 $514 $138 #
coedge $-1 $349 $349 $350 $515 reversed $218 $-1 #
coedge $-1 $350 $350 $349 $515 forward $220 $-1 #
coedge $-1 $351 $351 $221 $352 forward $346 $-1 #
edge $-1 $516 0 $516 6.2831853071796004 $351 $517 forward 7 unknown #
loop $-1 $-1 $358 $222 #
plane-surface $-1 -52.264778588213744 13.032886929208455 5.1597965363904876 -0.83867057594974714 0 0.54463902268945019 0.54463902268945019 0 0.83867057594974714 forward_v I I I I #
loop $-1 $-1 $518 $141 #
coedge $-1 $356 $356 $357 $519 reversed $223 $-1 #
coedge $-1 $357 $357 $356 $519 forward $225 $-1 #
coedge $-1 $358 $358 $226 $359 forward $353 $-1 #
edge $-1 $520 0 $520 6.2831853071796004 $358 $521 forward 7 unknown #
face $-1 $522 $523 $54 $-1 $524 reversed single #
loop $-1 $-1 $525 $227 #
plane-surface $-1 -52.264778588213751 0 0 1 0 0 0 0 -1 forward_v I I I I #
coedge $-1 $526 $371 $527 $528 forward $228 $-1 #
coedge $-1 $529 $230 $526 $530 forward $145 $-1 #
coedge $-1 $230 $529 $531 $532 forward $145 $-1 #
coedge $-1 $374 $373 $230 $367 reversed $375 $-1 #
edge $-1 $533 -30.746530091249877 $534 30.746530091249877 $366 $535 forward 7 unknown #
coedge $-1 $232 $231 $536 $537 forward $91 $-1 #
coedge $-1 $538 $539 $231 $370 reversed $523 $-1 #
edge $-1 $377 -52.264778588213751 $540 52.264778588213751 $369 $541 forward 7 unknown #
coedge $-1 $363 $542 $232 $372 reversed $228 $-1 #
edge $-1 $543 -52.264778588213751 $376 52.264778588213751 $371 $544 forward 7 unknown #
coedge $-1 $366 $233 $542 $545 forward $375 $-1 #
coedge $-1 $233 $366 $538 $546 reversed $375 $-1 #
loop $-1 $-1 $373 $522 #
vertex $-1 $234 $547 #
vertex $-1 $234 $548 #
straight-curve $-1 52.264778588213751 0 14.170127715902945 0 1 0 I I #
face $-1 $549 $550 $55 $-1 $551 reversed single #
loop $-1 $-1 $552 $235 #
plane-surface $-1 -52.264778588213751 0 0 1 0 0 0 0 -1 forward_v I I I I #
coedge $-1 $553 $388 $393 $554 reversed $236 $-1 #
coedge $-1 $555 $238 $556 $557 reversed $149 $-1 #
coedge $-1 $238 $555 $553 $558 forward $149 $-1 #
coedge $-1 $393 $392 $238 $386 forward $394 $-1 #
edge $-1 $559 -18.326126009982062 $560 -6.5146821525535632 $385 $561 forward 7 unknown #
coedge $-1 $240 $239 $552 $562 reversed $94 $-1 #
coedge $-1 $382 $563 $239 $389 reversed $236 $-1 #
edge $-1 $395 -52.264778588213751 $564 52.264778588213751 $388 $565 forward 7 unknown #
coedge $-1 $566 $567 $240 $391 forward $550 $-1 #
edge $-1 $396 -52.264778588213751 $568 52.264778588213751 $390 $569 forward 7 unknown #
coedge $-1 $385 $241 $567 $570 forward $394 $-1 #
coedge $-1 $241 $385 $382 $554 forward $394 $-1 #
loop $-1 $-1 $241 $549 #
vertex $-1 $242 $571 #
vertex $-1 $570 $572 #
straight-curve $-1 52.264778588213751 -12.420404081267813 10.124259830008667 0 -1 0 I I #
face $-1 $573 $574 $56 $-1 $575 reversed single #
loop $-1 $-1 $249 $243 #
plane-surface $-1 52.264778588213751 0 0 -1 0 0 0 0 1 forward_v I I I I #
coedge $-1 $576 $409 $577 $578 reversed $244 $-1 #
coedge $-1 $579 $246 $576 $580 forward $153 $-1 #
coedge $-1 $246 $579 $581 $582 reversed $153 $-1 #
coedge $-1 $412 $411 $246 $405 forward $399 $-1 #
edge $-1 $583 6.5146821525535632 $584 18.326126009982062 $404 $585 forward 7 unknown #
coedge $-1 $248 $247 $586 $587 reversed $97 $-1 #
coedge $-1 $588 $589 $247 $408 forward $590 $-1 #
edge $-1 $591 -52.264778588213751 $413 52.264778588213751 $407 $592 forward 7 unknown #
coedge $-1 $401 $593 $248 $410 reversed $244 $-1 #
edge $-1 $594 -52.264778588213751 $414 52.264778588213751 $409 $595 forward 7 unknown #
coedge $-1 $404 $249 $593 $596 forward $399 $-1 #
coedge $-1 $249 $404 $588 $597 reversed $399 $-1 #
vertex $-1 $597 $598 #
vertex $-1 $250 $599 #
straight-curve $-1 52.264778588213751 12.420404081267813 10.124259830008667 0 -1 0 I I #
face $-1 $-1 $428 $57 $-1 $600 reversed single #
loop $-1 $-1 $601 $251 #
plane-surface $-1 0 0 14.170127715902945 0 0 1 1 0 0 forward_v I I I I #
coedge $-1 $602 $603 $604 $605 reversed $252 $-1 #
coedge $-1 $606 $254 $256 $426 forward $157 $-1 #
coedge $-1 $254 $606 $602 $607 forward $157 $-1 #
coedge $-1 $604 $257 $254 $423 forward $428 $-1 #
edge $-1 $430 -8.4960291006873589 $608 -1.8085343830534448 $422 $609 forward 7 unknown #
coedge $-1 $610 $611 $255 $425 forward $417 $-1 #
edge $-1 $612 2.8258405258838692 $429 7.002151503165841 $424 $613 forward 7 unknown #
edge $-1 $430 -104.52955717642745 $612 -96.176934998055458 $256 $614 forward 7 unknown #
coedge $-1 $257 $604 $610 $615 reversed $428 $-1 #
loop $-1 $-1 $604 $416 #
vertex $-1 $615 $616 #
vertex $-1 $258 $617 #
straight-curve $-1 52.264778588213751 -13.648310842557761 74.863287307028699 0 0 -1 I I #
coedge $-1 $432 $432 $-1 $618 reversed $261 $-1 #
edge $-1 $619 0 $619 6.2831853071796004 $262 $620 forward 7 unknown #
vertex $-1 $265 $621 #
ellipse-curve $-1 50.17662309957278 -11.737598066090928 10.55333618625728 0.86602541151947299 0 0.49999998660252726 0.24999999330126363 0 -0.43301270575973649 1 I I #
coedge $-1 $436 $436 $-1 $622 reversed $268 $-1 #
edge $-1 $623 0 $623 6.2831853071796004 $269 $624 forward 7 unknown #
vertex $-1 $272 $625 #
ellipse-curve $-1 50.17662309957278 -8.8715289013906791 10.55333618625728 0.86602541151947299 0 0.49999998660252726 0.24999999330126363 0 -0.43301270575973649 1 I I #
face $-1 $-1 $626 $60 $-1 $627 forward single #
loop $-1 $-1 $279 $273 #
plane-surface $-1 -52.264778588213751 0 0 1 0 0 0 0 -1 forward_v I I I I #
coedge $-1 $628 $629 $630 $631 reversed $274 $-1 #
coedge $-1 $632 $276 $278 $450 forward $171 $-1 #
coedge $-1 $276 $632 $628 $633 forward $171 $-1 #
coedge $-1 $630 $279 $276 $447 forward $441 $-1 #
edge $-1 $453 3.5035534861982072 $634 9.5293334430102572 $446 $635 forward 7 unknown #
coedge $-1 $636 $637 $277 $449 forward $626 $-1 #
edge $-1 $638 -23.551919963289215 $452 -17.700542666356363 $448 $639 forward 7 unknown #
edge $-1 $453 -1.2808562293387176e-014 $638 10.74358805220842 $278 $640 forward 7 unknown #
coedge $-1 $279 $630 $636 $641 reversed $441 $-1 #
vertex $-1 $641 $642 #
vertex $-1 $280 $643 #
straight-curve $-1 -52.264778588213751 -10.019996950802438 31.045336199560484 0 0 -1 I I #
coedge $-1 $455 $455 $-1 $644 reversed $283 $-1 #
edge $-1 $645 0 $645 6.2831853071796004 $284 $646 forward 7 unknown #
vertex $-1 $287 $647 #
ellipse-curve $-1 -49.339089939747325 -14.840620916252075 9.6649621261467118 -0.83867057594974714 0 0.54463902268945019 0.2723195113447251 0 0.41933528797487357 1 I I #
coedge $-1 $459 $459 $-1 $648 reversed $290 $-1 #
edge $-1 $649 0 $649 6.2831853071796004 $291 $650 forward 7 unknown #
vertex $-1 $294 $651 #
ellipse-curve $-1 -49.339089939747325 -13.032886929208459 9.6649621261467118 -0.83867057594974714 0 0.54463902268945019 0.2723195113447251 0 0.41933528797487357 1 I I #
coedge $-1 $463 $463 $-1 $652 reversed $297 $-1 #
edge $-1 $653 0 $653 6.2831853071796004 $298 $654 forward 7 unknown #
vertex $-1 $301 $655 #
ellipse-curve $-1 -49.339089939747325 -11.225152942164843 9.6649621261467118 -0.83867057594974714 0 0.54463902268945019 0.2723195113447251 0 0.41933528797487357 1 I I #
face $-1 $-1 $656 $64 $-1 $657 forward single #
loop $-1 $-1 $308 $302 #
plane-surface $-1 -52.264778588213751 0 0 1 0 0 0 0 -1 forward_v I I I I #
coedge $-1 $658 $659 $660 $661 reversed $303 $-1 #
coedge $-1 $662 $305 $307 $477 forward $190 $-1 #
coedge $-1 $305 $662 $658 $663 forward $190 $-1 #
coedge $-1 $660 $308 $305 $474 forward $468 $-1 #
edge $-1 $480 -3.0128899784060224 $664 3.0128899784060259 $473 $665 forward 7 unknown #
coedge $-1 $666 $667 $306 $476 forward $656 $-1 #
edge $-1 $668 -23.551919963289215 $479 -17.700542666356363 $475 $669 forward 7 unknown #
edge $-1 $480 -1.2808562293387176e-014 $668 10.74358805220842 $307 $670 forward 7 unknown #
coedge $-1 $308 $660 $666 $671 reversed $468 $-1 #
vertex $-1 $671 $672 #
vertex $-1 $309 $673 #
straight-curve $-1 -52.264778588213751 3.0128899784060206 31.045336199560484 0 0 -1 I I #
coedge $-1 $482 $482 $-1 $674 reversed $312 $-1 #
edge $-1 $675 0 $675 6.2831853071796004 $313 $676 forward 7 unknown #
vertex $-1 $316 $677 #
ellipse-curve $-1 -49.339089939747325 -1.8077339870436155 9.6649621261467118 -0.83867057594974714 0 0.54463902268945019 0.2723195113447251 0 0.41933528797487357 1 I I #
coedge $-1 $486 $486 $-1 $678 reversed $319 $-1 #
edge $-1 $679 0 $679 6.2831853071796004 $320 $680 forward 7 unknown #
vertex $-1 $323 $681 #
ellipse-curve $-1 -49.339089939747325 3.5527136788005009e-015 9.6649621261467118 -0.83867057594974714 0 0.54463902268945019 0.2723195113447251 0 0.41933528797487357 1 I I #
coedge $-1 $490 $490 $-1 $682 reversed $326 $-1 #
edge $-1 $683 0 $683 6.2831853071796004 $327 $684 forward 7 unknown #
vertex $-1 $330 $685 #
ellipse-curve $-1 -49.339089939747325 1.8077339870436155 9.6649621261467118 -0.83867057594974714 0 0.54463902268945019 0.2723195113447251 0 0.41933528797487357 1 I I #
face $-1 $-1 $506 $68 $-1 $686 reversed single #
loop $-1 $-1 $687 $331 #
plane-surface $-1 0 0 14.170127715902945 0 0 1 1 0 0 forward_v I I I I #
coedge $-1 $688 $689 $690 $691 reversed $332 $-1 #
coedge $-1 $692 $334 $336 $504 forward $209 $-1 #
coedge $-1 $334 $692 $688 $693 forward $209 $-1 #
coedge $-1 $690 $337 $334 $501 forward $506 $-1 #
edge $-1 $508 -9.5293334430102536 $694 -3.5035534861982036 $500 $695 forward 7 unknown #
coedge $-1 $696 $697 $335 $503 forward $495 $-1 #
edge $-1 $698 -23.551919963289215 $507 -17.700542666356363 $502 $699 forward 7 unknown #
edge $-1 $508 -1.2808562293387176e-014 $698 10.74358805220842 $336 $700 forward 7 unknown #
coedge $-1 $337 $690 $696 $701 reversed $506 $-1 #
loop $-1 $-1 $690 $494 #
vertex $-1 $701 $702 #
vertex $-1 $338 $703 #
straight-curve $-1 -52.264778588213751 16.045776907614481 31.045336199560484 0 0 -1 I I #
coedge $-1 $510 $510 $-1 $704 reversed $341 $-1 #
edge $-1 $705 0 $705 6.2831853071796004 $342 $706 forward 7 unknown #
vertex $-1 $345 $707 #
ellipse-curve $-1 -49.339089939747325 11.225152942164843 9.6649621261467118 -0.83867057594974714 0 0.54463902268945019 0.2723195113447251 0 0.41933528797487357 1 I I #
coedge $-1 $514 $514 $-1 $708 reversed $348 $-1 #
edge $-1 $709 0 $709 6.2831853071796004 $349 $710 forward 7 unknown #
vertex $-1 $352 $711 #
ellipse-curve $-1 -49.339089939747325 13.032886929208463 9.6649621261467118 -0.83867057594974714 0 0.54463902268945019 0.2723195113447251 0 0.41933528797487357 1 I I #
coedge $-1 $518 $518 $-1 $712 reversed $355 $-1 #
edge $-1 $713 0 $713 6.2831853071796004 $356 $714 forward 7 unknown #
vertex $-1 $359 $715 #
ellipse-curve $-1 -49.339089939747325 14.840620916252075 9.6649621261467118 -0.83867057594974714 0 0.54463902268945019 0.2723195113447251 0 0.41933528797487357 1 I I #
face $-1 $-1 $375 $54 $-1 $716 reversed single #
loop $-1 $-1 $538 $360 #
plane-surface $-1 0 30.746530091249877 0 0 -1 0 0 0 -1 forward_v I I I I #
coedge $-1 $717 $536 $539 $718 forward $361 $-1 #
coedge $-1 $542 $363 $364 $530 reversed $228 $-1 #
coedge $-1 $536 $717 $363 $528 reversed $361 $-1 #
edge $-1 $543 -14.170127715902945 $719 14.170127715902945 $527 $720 forward 7 unknown #
coedge $-1 $365 $364 $717 $721 forward $145 $-1 #
edge $-1 $534 -52.264778588213751 $719 52.264778588213751 $526 $722 forward 7 unknown #
coedge $-1 $539 $538 $365 $532 reversed $523 $-1 #
edge $-1 $723 -52.264778588213751 $533 52.264778588213751 $531 $724 forward 7 unknown #
vertex $-1 $367 $725 #
vertex $-1 $545 $726 #
straight-curve $-1 52.264778588213751 0 -14.170127715902945 0 -1 0 I I #
coedge $-1 $525 $527 $368 $537 reversed $361 $-1 #
edge $-1 $540 -30.746530091249877 $543 30.746530091249877 $536 $727 forward 7 unknown #
coedge $-1 $531 $369 $374 $546 forward $523 $-1 #
coedge $-1 $369 $531 $525 $718 reversed $523 $-1 #
vertex $-1 $370 $728 #
straight-curve $-1 0 30.746530091249877 14.170127715902945 -1 0 0 I I #
coedge $-1 $371 $526 $373 $545 reversed $228 $-1 #
vertex $-1 $537 $729 #
straight-curve $-1 0 -30.746530091249877 14.170127715902945 1 0 0 I I #
edge $-1 $376 -14.170127715902945 $534 14.170127715902945 $373 $730 forward 7 unknown #
edge $-1 $377 -14.170127715902945 $533 14.170127715902945 $374 $731 forward 7 unknown #
point $-1 52.264778588213751 -30.746530091249877 14.170127715902945 #
point $-1 52.264778588213751 30.746530091249877 14.170127715902945 #
face $-1 $-1 $394 $55 $-1 $732 reversed single #
loop $-1 $-1 $390 $379 #
plane-surface $-1 0 -30.746530091249877 0 0 1 0 0 0 1 forward_v I I I I #
coedge $-1 $733 $734 $387 $562 forward $380 $-1 #
coedge $-1 $563 $382 $384 $558 reversed $236 $-1 #
edge $-1 $560 0.81193488002854952 $395 6.4788615933295945 $393 $735 forward 7 unknown #
coedge $-1 $384 $383 $736 $737 reversed $149 $-1 #
coedge $-1 $567 $566 $383 $557 forward $550 $-1 #
edge $-1 $738 -52.264778588213751 $559 52.264778588213751 $556 $739 forward 7 unknown #
edge $-1 $740 -52.264778588213751 $560 52.264778588213751 $553 $741 forward 7 unknown #
vertex $-1 $557 $742 #
vertex $-1 $386 $743 #
straight-curve $-1 52.264778588213751 -12.420404081267813 4.4573331167076216 0 1 0 I I #
edge $-1 $568 -18.326126009982062 $564 -6.5146821525535632 $552 $744 forward 7 unknown #
coedge $-1 $388 $553 $733 $745 reversed $236 $-1 #
vertex $-1 $562 $746 #
straight-curve $-1 0 -18.935086233821377 10.124259830008667 -1 0 0 I I #
coedge $-1 $556 $390 $734 $747 forward $550 $-1 #
coedge $-1 $390 $556 $392 $570 reversed $550 $-1 #
vertex $-1 $747 $748 #
straight-curve $-1 0 -30.746530091249877 10.124259830008667 -1 0 0 I I #
edge $-1 $396 -10.124259830008667 $559 -4.4573331167076216 $392 $749 forward 7 unknown #
point $-1 52.264778588213751 -18.935086233821377 10.124259830008667 #
point $-1 52.264778588213751 -30.746530091249877 10.124259830008667 #
face $-1 $-1 $590 $56 $-1 $750 reversed single #
loop $-1 $-1 $586 $398 #
plane-surface $-1 -52.264778588213751 0 0 1 0 0 0 0 -1 forward_v I I I I #
coedge $-1 $593 $401 $402 $580 reversed $244 $-1 #
coedge $-1 $586 $751 $401 $578 forward $574 $-1 #
edge $-1 $752 0.81193488002854952 $594 6.4788615933295945 $577 $753 forward 7 unknown #
coedge $-1 $403 $402 $751 $754 reversed $153 $-1 #
edge $-1 $583 -52.264778588213751 $752 52.264778588213751 $576 $755 forward 7 unknown #
coedge $-1 $589 $588 $403 $582 forward $590 $-1 #
edge $-1 $584 -52.264778588213751 $756 52.264778588213751 $581 $757 forward 7 unknown #
vertex $-1 $405 $758 #
vertex $-1 $582 $759 #
straight-curve $-1 52.264778588213751 12.420404081267813 4.4573331167076216 0 1 0 I I #
coedge $-1 $760 $577 $406 $587 forward $574 $-1 #
edge $-1 $594 6.5146821525535632 $591 18.326126009982062 $586 $761 forward 7 unknown #
coedge $-1 $581 $407 $412 $597 forward $590 $-1 #
coedge $-1 $407 $581 $760 $762 reversed $590 $-1 #
loop $-1 $-1 $407 $573 #
vertex $-1 $762 $763 #
straight-curve $-1 0 30.746530091249877 10.124259830008667 1 0 0 I I #
coedge $-1 $409 $576 $411 $596 reversed $244 $-1 #
vertex $-1 $587 $764 #
straight-curve $-1 0 18.935086233821377 10.124259830008667 1 0 0 I I #
edge $-1 $414 -6.4788615933295945 $583 -0.81193488002854952 $411 $765 forward 7 unknown #
edge $-1 $413 -10.124259830008667 $584 -4.4573331167076216 $412 $766 forward 7 unknown #
point $-1 52.264778588213751 30.746530091249877 10.124259830008667 #
point $-1 52.264778588213751 18.935086233821377 10.124259830008667 #
plane-surface $-1 52.264778588213751 0 0 -1 0 0 0 0 1 forward_v I I I I #
coedge $-1 $611 $610 $603 $767 forward $417 $-1 #
coedge $-1 $603 $419 $421 $607 reversed $252 $-1 #
coedge $-1 $419 $602 $601 $767 reversed $252 $-1 #
coedge $-1 $427 $422 $419 $605 forward $428 $-1 #
edge $-1 $608 -67.926742650417026 $768 -60.693159591125756 $604 $769 forward 7 unknown #
coedge $-1 $421 $420 $611 $770 reversed $157 $-1 #
edge $-1 $771 96.176934998055458 $608 104.52955717642745 $602 $772 forward 7 unknown #
vertex $-1 $423 $773 #
straight-curve $-1 52.264778588213758 -5.1522817418704019 6.9365446566116518 0 1 0 I I #
coedge $-1 $601 $424 $427 $615 forward $417 $-1 #
coedge $-1 $424 $601 $606 $770 forward $417 $-1 #
vertex $-1 $425 $774 #
straight-curve $-1 45.26262708504791 -13.648310842557761 14.17012771590295 1 0 0 I I #
straight-curve $-1 1.4004319126570408e-006 -13.648310842557761 97.461797426275538 -0.49999998660252726 0 0.86602541151947299 I I #
edge $-1 $429 -13.648310842557761 $768 -6.9608161249238467 $427 $775 forward 7 unknown #
point $-1 52.264778588213751 -13.648310842557761 14.170127715902945 #
point $-1 52.264778588213751 -13.648310842557761 6.9365446566116731 #
edge $-1 $776 1 $776 0 $432 $-1 forward 7 unknown #
vertex $-1 $433 $777 #
ellipse-curve $-1 49.310597688053292 -11.737598066090928 10.053336199654744 0.86602541151947299 0 0.49999998660252726 0.24999999330126363 0 -0.43301270575973649 1 I I #
point $-1 50.426623092874031 -11.737598066090928 10.120323480497536 #
edge $-1 $778 1 $778 0 $436 $-1 forward 7 unknown #
vertex $-1 $437 $779 #
ellipse-curve $-1 49.310597688053292 -8.8715289013906791 10.053336199654744 0.86602541151947299 0 0.49999998660252726 0.24999999330126363 0 -0.43301270575973649 1 I I #
point $-1 50.426623092874031 -8.8715289013906791 10.120323480497536 #
loop $-1 $-1 $448 $440 #
plane-surface $-1 0 0 14.170127715902945 0 0 1 1 0 0 forward_v I I I I #
coedge $-1 $629 $443 $445 $633 reversed $274 $-1 #
coedge $-1 $443 $628 $780 $781 reversed $274 $-1 #
coedge $-1 $451 $446 $443 $631 forward $441 $-1 #
edge $-1 $634 -25.885539663170007 $782 -16.875208483657538 $630 $783 forward 7 unknown #
coedge $-1 $445 $444 $637 $784 reversed $171 $-1 #
edge $-1 $785 -10.74358805220842 $634 1.2808562293387176e-014 $628 $786 forward 7 unknown #
vertex $-1 $447 $787 #
straight-curve $-1 -52.264778588213751 -6.5164434646042313 5.1597965363904663 0 -1 0 I I #
coedge $-1 $780 $448 $451 $641 forward $626 $-1 #
coedge $-1 $448 $780 $632 $784 forward $626 $-1 #
vertex $-1 $449 $788 #
straight-curve $-1 -69.965321254570114 -10.019996950802438 14.170127715902943 -1 0 0 I I #
straight-curve $-1 -52.264778588213744 -10.019996950802438 5.1597965363904876 0.54463902268945019 0 0.83867057594974714 I I #
edge $-1 $452 10.019996950802438 $782 16.045776907614488 $451 $789 forward 7 unknown #
point $-1 -52.264778588213751 -10.019996950802438 14.170127715902945 #
point $-1 -52.264778588213751 -10.019996950802438 5.159796536390477 #
edge $-1 $790 1 $790 0 $455 $-1 forward 7 unknown #
vertex $-1 $456 $791 #
ellipse-curve $-1 -48.016648723945707 -14.840620916252075 8.806158786679612 -0.83867057594974714 0 0.54463902268945019 0.2723195113447251 0 0.41933528797487357 1 I I #
point $-1 -49.066770428402599 -14.840620916252075 10.084297414121586 #
edge $-1 $792 1 $792 0 $459 $-1 forward 7 unknown #
vertex $-1 $460 $793 #
ellipse-curve $-1 -48.016648723945707 -13.032886929208459 8.806158786679612 -0.83867057594974714 0 0.54463902268945019 0.2723195113447251 0 0.41933528797487357 1 I I #
point $-1 -49.066770428402599 -13.032886929208459 10.084297414121586 #
edge $-1 $794 1 $794 0 $463 $-1 forward 7 unknown #
vertex $-1 $464 $795 #
ellipse-curve $-1 -48.016648723945707 -11.225152942164843 8.806158786679612 -0.83867057594974714 0 0.54463902268945019 0.2723195113447251 0 0.41933528797487357 1 I I #
point $-1 -49.066770428402599 -11.225152942164843 10.084297414121586 #
loop $-1 $-1 $475 $467 #
plane-surface $-1 0 0 14.170127715902945 0 0 1 1 0 0 forward_v I I I I #
coedge $-1 $659 $470 $472 $663 reversed $303 $-1 #
coedge $-1 $470 $658 $796 $797 reversed $303 $-1 #
coedge $-1 $478 $473 $470 $661 forward $468 $-1 #
edge $-1 $664 -25.885539663170007 $798 -16.875208483657538 $660 $799 forward 7 unknown #
coedge $-1 $472 $471 $667 $800 reversed $190 $-1 #
edge $-1 $801 -10.74358805220842 $664 1.2808562293387176e-014 $658 $802 forward 7 unknown #
vertex $-1 $474 $803 #
straight-curve $-1 -52.264778588213751 -1.7763568394002505e-015 5.1597965363904663 0 -1 0 I I #
coedge $-1 $796 $475 $478 $671 forward $656 $-1 #
coedge $-1 $475 $796 $662 $800 forward $656 $-1 #
vertex $-1 $476 $804 #
straight-curve $-1 -69.965321254570114 3.0128899784060206 14.170127715902943 -1 0 0 I I #
straight-curve $-1 -52.264778588213744 3.0128899784060206 5.1597965363904876 0.54463902268945019 0 0.83867057594974714 I I #
edge $-1 $479 -3.0128899784060206 $798 3.0128899784060277 $478 $805 forward 7 unknown #
point $-1 -52.264778588213751 3.0128899784060206 14.170127715902945 #
point $-1 -52.264778588213751 3.0128899784060206 5.159796536390477 #
edge $-1 $806 1 $806 0 $482 $-1 forward 7 unknown #
vertex $-1 $483 $807 #
ellipse-curve $-1 -48.016648723945707 -1.8077339870436155 8.806158786679612 -0.83867057594974714 0 0.54463902268945019 0.2723195113447251 0 0.41933528797487357 1 I I #
point $-1 -49.066770428402599 -1.8077339870436155 10.084297414121586 #
edge $-1 $808 1 $808 0 $486 $-1 forward 7 unknown #
vertex $-1 $487 $809 #
ellipse-curve $-1 -48.016648723945707 3.5527136788005009e-015 8.806158786679612 -0.83867057594974714 0 0.54463902268945019 0.2723195113447251 0 0.41933528797487357 1 I I #
point $-1 -49.066770428402599 3.5527136788005009e-015 10.084297414121586 #
edge $-1 $810 1 $810 0 $490 $-1 forward 7 unknown #
vertex $-1 $491 $811 #
ellipse-curve $-1 -48.016648723945707 1.8077339870436155 8.806158786679612 -0.83867057594974714 0 0.54463902268945019 0.2723195113447251 0 0.41933528797487357 1 I I #
point $-1 -49.066770428402599 1.8077339870436155 10.084297414121586 #
plane-surface $-1 -52.264778588213751 0 0 1 0 0 0 0 -1 forward_v I I I I #
coedge $-1 $697 $696 $689 $812 forward $495 $-1 #
coedge $-1 $689 $497 $499 $693 reversed $332 $-1 #
coedge $-1 $497 $688 $687 $812 reversed $332 $-1 #
coedge $-1 $505 $500 $497 $691 forward $506 $-1 #
edge $-1 $694 -25.885539663170007 $813 -16.875208483657538 $690 $814 forward 7 unknown #
coedge $-1 $499 $498 $697 $815 reversed $209 $-1 #
edge $-1 $816 -10.74358805220842 $694 1.2808562293387176e-014 $688 $817 forward 7 unknown #
vertex $-1 $501 $818 #
straight-curve $-1 -52.264778588213751 6.5164434646042277 5.1597965363904663 0 -1 0 I I #
coedge $-1 $687 $502 $505 $701 forward $495 $-1 #
coedge $-1 $502 $687 $692 $815 forward $495 $-1 #
vertex $-1 $503 $819 #
straight-curve $-1 -69.965321254570114 16.045776907614481 14.170127715902943 -1 0 0 I I #
straight-curve $-1 -52.264778588213744 16.045776907614481 5.1597965363904876 0.54463902268945019 0 0.83867057594974714 I I #
edge $-1 $507 -16.045776907614481 $813 -10.019996950802431 $505 $820 forward 7 unknown #
point $-1 -52.264778588213751 16.045776907614481 14.170127715902945 #
point $-1 -52.264778588213751 16.045776907614481 5.159796536390477 #
edge $-1 $821 1 $821 0 $510 $-1 forward 7 unknown #
vertex $-1 $511 $822 #
ellipse-curve $-1 -48.016648723945707 11.225152942164843 8.806158786679612 -0.83867057594974714 0 0.54463902268945019 0.2723195113447251 0 0.41933528797487357 1 I I #
point $-1 -49.066770428402599 11.225152942164843 10.084297414121586 #
edge $-1 $823 1 $823 0 $514 $-1 forward 7 unknown #
vertex $-1 $515 $824 #
ellipse-curve $-1 -48.016648723945707 13.032886929208463 8.806158786679612 -0.83867057594974714 0 0.54463902268945019 0.2723195113447251 0 0.41933528797487357 1 I I #
point $-1 -49.066770428402599 13.032886929208463 10.084297414121586 #
edge $-1 $825 1 $825 0 $518 $-1 forward 7 unknown #
vertex $-1 $519 $826 #
ellipse-curve $-1 -48.016648723945707 14.840620916252075 8.806158786679612 -0.83867057594974714 0 0.54463902268945019 0.2723195113447251 0 0.41933528797487357 1 I I #
point $-1 -49.066770428402599 14.840620916252075 10.084297414121586 #
plane-surface $-1 52.264778588213751 0 0 -1 0 0 0 0 1 forward_v I I I I #
coedge $-1 $527 $525 $529 $721 reversed $361 $-1 #
edge $-1 $540 -14.170127715902945 $723 14.170127715902945 $539 $827 forward 7 unknown #
vertex $-1 $721 $828 #
straight-curve $-1 -52.264778588213751 -30.746530091249877 0 0 0 -1 I I #
edge $-1 $719 -30.746530091249877 $723 30.746530091249877 $717 $829 forward 7 unknown #
straight-curve $-1 0 -30.746530091249877 -14.170127715902945 -1 0 0 I I #
vertex $-1 $532 $830 #
straight-curve $-1 0 30.746530091249877 -14.170127715902945 1 0 0 I I #
point $-1 52.264778588213751 30.746530091249877 -14.170127715902945 #
point $-1 52.264778588213751 -30.746530091249877 -14.170127715902945 #
straight-curve $-1 -52.264778588213751 0 14.170127715902945 0 -1 0 I I #
point $-1 -52.264778588213751 30.746530091249877 14.170127715902945 #
point $-1 -52.264778588213751 -30.746530091249877 14.170127715902945 #
straight-curve $-1 52.264778588213751 -30.746530091249877 0 0 0 -1 I I #
straight-curve $-1 52.264778588213751 30.746530091249877 0 0 0 -1 I I #
plane-surface $-1 52.264778588213751 0 0 -1 0 0 0 0 1 forward_v I I I I #
coedge $-1 $736 $552 $563 $745 forward $380 $-1 #
coedge $-1 $552 $736 $566 $747 reversed $380 $-1 #
straight-curve $-1 52.264778588213751 -18.935086233821377 3.645398236679072 0 0 1 I I #
coedge $-1 $734 $733 $555 $737 forward $380 $-1 #
edge $-1 $740 6.5146821525535632 $738 18.326126009982062 $736 $831 forward 7 unknown #
vertex $-1 $557 $832 #
straight-curve $-1 0 -30.746530091249877 4.4573331167076216 1 0 0 I I #
vertex $-1 $737 $833 #
straight-curve $-1 0 -18.935086233821377 4.4573331167076216 1 0 0 I I #
point $-1 52.264778588213751 -30.746530091249877 4.4573331167076216 #
point $-1 52.264778588213751 -18.935086233821377 4.4573331167076216 #
straight-curve $-1 -52.264778588213751 -12.420404081267813 10.124259830008667 0 1 0 I I #
edge $-1 $564 -6.4788615933295945 $740 -0.81193488002854952 $733 $834 forward 7 unknown #
point $-1 -52.264778588213751 -18.935086233821377 10.124259830008667 #
edge $-1 $568 -10.124259830008667 $738 -4.4573331167076216 $734 $835 forward 7 unknown #
point $-1 -52.264778588213751 -30.746530091249877 10.124259830008667 #
straight-curve $-1 52.264778588213751 -30.746530091249877 0 0 0 -1 I I #
plane-surface $-1 0 30.746530091249877 0 0 -1 0 0 0 -1 forward_v I I I I #
coedge $-1 $577 $760 $579 $754 forward $574 $-1 #
vertex $-1 $754 $836 #
straight-curve $-1 -52.264778588213751 18.935086233821377 3.645398236679072 0 0 1 I I #
edge $-1 $756 -18.326126009982062 $752 -6.5146821525535632 $751 $837 forward 7 unknown #
straight-curve $-1 0 18.935086233821377 4.4573331167076216 -1 0 0 I I #
vertex $-1 $582 $838 #
straight-curve $-1 0 30.746530091249877 4.4573331167076216 -1 0 0 I I #
point $-1 52.264778588213751 18.935086233821377 4.4573331167076216 #
point $-1 52.264778588213751 30.746530091249877 4.4573331167076216 #
coedge $-1 $751 $586 $589 $762 forward $574 $-1 #
straight-curve $-1 -52.264778588213751 12.420404081267813 10.124259830008667 0 1 0 I I #
edge $-1 $591 -10.124259830008667 $756 -4.4573331167076216 $589 $839 forward 7 unknown #
point $-1 -52.264778588213751 30.746530091249877 10.124259830008667 #
point $-1 -52.264778588213751 18.935086233821377 10.124259830008667 #
straight-curve $-1 52.264778588213751 18.935086233821377 3.645398236679072 0 0 -1 I I #
straight-curve $-1 52.264778588213751 30.746530091249877 0 0 0 -1 I I #
edge $-1 $768 -7.002151503165841 $771 -2.8258405258838692 $601 $840 forward 7 unknown #
vertex $-1 $767 $841 #
straight-curve $-1 52.264778588213751 -6.9608161249238467 74.863287307028699 0 0 1 I I #
edge $-1 $771 1.8085343830534448 $612 8.4960291006873589 $611 $842 forward 7 unknown #
vertex $-1 $770 $843 #
straight-curve $-1 1.4004319126570408e-006 -6.9608161249238467 97.461797426275538 0.49999998660252726 0 -0.86602541151947299 I I #
point $-1 52.264778588213751 -6.9608161249238467 6.9365446566116731 #
point $-1 48.088467610931779 -13.648310842557761 14.17012771590295 #
straight-curve $-1 52.264778588213751 0 14.170127715902945 0 1 0 I I #
vertex $-1 $618 $844 #
point $-1 49.560597681354558 -11.737598066090928 9.6203234938950075 #
vertex $-1 $622 $845 #
point $-1 49.560597681354558 -8.8715289013906791 9.6203234938950075 #
coedge $-1 $637 $636 $629 $781 forward $626 $-1 #
edge $-1 $782 17.700542666356363 $785 23.551919963289215 $780 $846 forward 7 unknown #
vertex $-1 $781 $847 #
straight-curve $-1 -52.264778588213751 -16.045776907614488 31.045336199560484 0 0 1 I I #
edge $-1 $785 -9.5293334430102572 $638 -3.5035534861982072 $637 $848 forward 7 unknown #
vertex $-1 $784 $849 #
straight-curve $-1 -52.264778588213744 -16.045776907614488 5.1597965363904876 -0.54463902268945019 0 -0.83867057594974714 I I #
point $-1 -52.264778588213751 -16.045776907614488 5.159796536390477 #
point $-1 -46.413401291280898 -10.019996950802438 14.170127715902945 #
straight-curve $-1 -52.264778588213751 0 14.170127715902945 0 -1 0 I I #
vertex $-1 $644 $850 #
point $-1 -47.744329212600981 -14.840620916252075 9.2254940746544847 #
vertex $-1 $648 $851 #
point $-1 -47.744329212600981 -13.032886929208459 9.2254940746544847 #
vertex $-1 $652 $852 #
point $-1 -47.744329212600981 -11.225152942164843 9.2254940746544847 #
coedge $-1 $667 $666 $659 $797 forward $656 $-1 #
edge $-1 $798 17.700542666356363 $801 23.551919963289215 $796 $853 forward 7 unknown #
vertex $-1 $797 $854 #
straight-curve $-1 -52.264778588213751 -3.0128899784060277 31.045336199560484 0 0 1 I I #
edge $-1 $801 -3.0128899784060259 $668 3.0128899784060224 $667 $855 forward 7 unknown #
vertex $-1 $800 $856 #
straight-curve $-1 -52.264778588213744 -3.0128899784060277 5.1597965363904876 -0.54463902268945019 0 -0.83867057594974714 I I #
point $-1 -52.264778588213751 -3.0128899784060277 5.159796536390477 #
point $-1 -46.413401291280898 3.0128899784060206 14.170127715902945 #
straight-curve $-1 -52.264778588213751 0 14.170127715902945 0 -1 0 I I #
vertex $-1 $674 $857 #
point $-1 -47.744329212600981 -1.8077339870436155 9.2254940746544847 #
vertex $-1 $678 $858 #
point $-1 -47.744329212600981 3.5527136788005009e-015 9.2254940746544847 #
vertex $-1 $682 $859 #
point $-1 -47.744329212600981 1.8077339870436155 9.2254940746544847 #
edge $-1 $813 17.700542666356363 $816 23.551919963289215 $687 $860 forward 7 unknown #
vertex $-1 $691 $861 #
straight-curve $-1 -52.264778588213751 10.019996950802431 31.045336199560484 0 0 1 I I #
edge $-1 $816 3.5035534861982036 $698 9.5293334430102536 $697 $862 forward 7 unknown #
vertex $-1 $815 $863 #
straight-curve $-1 -52.264778588213744 10.019996950802431 5.1597965363904876 -0.54463902268945019 0 -0.83867057594974714 I I #
point $-1 -52.264778588213751 10.019996950802431 5.159796536390477 #
point $-1 -46.413401291280898 16.045776907614481 14.170127715902945 #
straight-curve $-1 -52.264778588213751 0 14.170127715902945 0 -1 0 I I #
vertex $-1 $704 $864 #
point $-1 -47.744329212600981 11.225152942164843 9.2254940746544847 #
vertex $-1 $708 $865 #
point $-1 -47.744329212600981 13.032886929208463 9.2254940746544847 #
vertex $-1 $712 $866 #
point $-1 -47.744329212600981 14.840620916252075 9.2254940746544847 #
straight-curve $-1 -52.264778588213751 30.746530091249877 0 0 0 -1 I I #
point $-1 -52.264778588213751 -30.746530091249877 -14.170127715902945 #
straight-curve $-1 -52.264778588213751 0 -14.170127715902945 0 1 0 I I #
point $-1 -52.264778588213751 30.746530091249877 -14.170127715902945 #
straight-curve $-1 -52.264778588213751 -12.420404081267813 4.4573331167076216 0 -1 0 I I #
point $-1 -52.264778588213751 -30.746530091249877 4.4573331167076216 #
point $-1 -52.264778588213751 -18.935086233821377 4.4573331167076216 #
straight-curve $-1 -52.264778588213751 -18.935086233821377 3.645398236679072 0 0 -1 I I #
straight-curve $-1 -52.264778588213751 -30.746530091249877 0 0 0 -1 I I #
point $-1 -52.264778588213751 18.935086233821377 4.4573331167076216 #
straight-curve $-1 -52.264778588213751 12.420404081267813 4.4573331167076216 0 -1 0 I I #
point $-1 -52.264778588213751 30.746530091249877 4.4573331167076216 #
straight-curve $-1 -52.264778588213751 30.746530091249877 0 0 0 -1 I I #
straight-curve $-1 45.26262708504791 -6.9608161249238467 14.17012771590295 -1 0 0 I I #
point $-1 52.264778588213751 -6.9608161249238467 14.170127715902945 #
straight-curve $-1 48.088467610931787 -5.1522817418704019 14.170127715902936 0 -1 0 I I #
point $-1 48.088467610931779 -6.9608161249238467 14.17012771590295 #
point $-1 48.877584982293556 -11.737598066090928 9.8033362063534817 #
point $-1 48.877584982293556 -8.8715289013906791 9.8033362063534817 #
straight-curve $-1 -69.965321254570114 -16.045776907614488 14.170127715902943 1 0 0 I I #
point $-1 -52.264778588213751 -16.045776907614488 14.170127715902945 #
straight-curve $-1 -46.413401291280898 -6.5164434646042313 14.170127715902945 0 1 0 I I #
point $-1 -46.413401291280898 -16.045776907614488 14.170127715902945 #
point $-1 -47.597313435970833 -14.840620916252075 8.533839275334886 #
point $-1 -47.597313435970833 -13.032886929208459 8.533839275334886 #
point $-1 -47.597313435970833 -11.225152942164843 8.533839275334886 #
straight-curve $-1 -69.965321254570114 -3.0128899784060277 14.170127715902943 1 0 0 I I #
point $-1 -52.264778588213751 -3.0128899784060277 14.170127715902945 #
straight-curve $-1 -46.413401291280898 -1.7763568394002505e-015 14.170127715902945 0 1 0 I I #
point $-1 -46.413401291280898 -3.0128899784060277 14.170127715902945 #
point $-1 -47.597313435970833 -1.8077339870436155 8.533839275334886 #
point $-1 -47.597313435970833 3.5527136788005009e-015 8.533839275334886 #
point $-1 -47.597313435970833 1.8077339870436155 8.533839275334886 #
straight-curve $-1 -69.965321254570114 10.019996950802431 14.170127715902943 1 0 0 I I #
point $-1 -52.264778588213751 10.019996950802431 14.170127715902945 #
straight-curve $-1 -46.413401291280898 6.5164434646042277 14.170127715902945 0 1 0 I I #
point $-1 -46.413401291280898 10.019996950802431 14.170127715902945 #
point $-1 -47.597313435970833 11.225152942164843 8.533839275334886 #
point $-1 -47.597313435970833 13.032886929208463 8.533839275334886 #
point $-1 -47.597313435970833 14.840620916252075 8.533839275334886 #
End-of-ACIS-data 