500 0 12 0           
7 Unknown 11 ACIS 5.0 NT 24 Fri Mar 26 17:30:16 1999 
-1 9.9999999999999995e-007 1e-010 
body $-1 $12 $-1 $13 #
body $-1 $14 $-1 $15 #
body $-1 $16 $-1 $17 #
body $-1 $18 $-1 $19 #
body $-1 $20 $-1 $21 #
body $-1 $22 $-1 $23 #
body $-1 $24 $-1 $25 #
body $-1 $26 $-1 $27 #
body $-1 $28 $-1 $29 #
body $-1 $30 $-1 $31 #
body $-1 $32 $-1 $33 #
body $-1 $34 $-1 $35 #
lump $-1 $-1 $36 $0 #
transform $-1 1 0 0 0 1 0 0 0 1 75.497909482100894 43.819063158989067 15.603261364374298 1 rotate no_reflect no_shear #
lump $-1 $-1 $37 $1 #
transform $-1 1 0 0 0 1 0 0 0 1 75.497909482100894 43.819063158989067 15.603261364374298 1 rotate no_reflect no_shear #
lump $-1 $-1 $38 $2 #
transform $-1 1 0 0 0 1 0 0 0 1 75.497909482100894 43.819063158989067 15.603261364374298 1 rotate no_reflect no_shear #
lump $-1 $-1 $39 $3 #
transform $-1 1 0 0 0 1 0 0 0 1 75.497909482100894 43.819063158989067 15.603261364374298 1 rotate no_reflect no_shear #
lump $-1 $-1 $40 $4 #
transform $-1 1 0 0 0 1 0 0 0 1 75.497909482100894 43.819063158989067 15.603261364374298 1 rotate no_reflect no_shear #
lump $-1 $-1 $41 $5 #
transform $-1 1 0 0 0 1 0 0 0 1 75.497909482100894 43.819063158989067 15.603261364374298 1 rotate no_reflect no_shear #
lump $-1 $-1 $42 $6 #
transform $-1 1 0 0 0 1 0 0 0 1 75.497909482100894 43.819063158989067 15.603261364374298 1 rotate no_reflect no_shear #
lump $-1 $-1 $43 $7 #
transform $-1 1 0 0 0 1 0 0 0 1 75.497909482100894 43.819063158989067 15.603261364374298 1 rotate no_reflect no_shear #
lump $-1 $-1 $44 $8 #
transform $-1 1 0 0 0 1 0 0 0 1 75.497909482100894 43.819063158989067 15.603261364374298 1 rotate no_reflect no_shear #
lump $-1 $-1 $45 $9 #
transform $-1 1 0 0 0 1 0 0 0 1 75.497909482100894 43.819063158989067 15.603261364374298 1 rotate no_reflect no_shear #
lump $-1 $-1 $46 $10 #
transform $-1 1 0 0 0 1 0 0 0 1 75.497909482100894 43.819063158989067 15.603261364374298 1 rotate no_reflect no_shear #
lump $-1 $-1 $47 $11 #
transform $-1 1 0 0 0 1 0 0 0 1 75.497909482100894 43.819063158989067 15.603261364374298 1 rotate no_reflect no_shear #
shell $-1 $-1 $-1 $48 $-1 $12 #
shell $-1 $-1 $-1 $49 $-1 $14 #
shell $-1 $-1 $-1 $50 $-1 $16 #
shell $-1 $-1 $-1 $51 $-1 $18 #
shell $-1 $-1 $-1 $52 $-1 $20 #
shell $-1 $-1 $-1 $53 $-1 $22 #
shell $-1 $-1 $-1 $54 $-1 $24 #
shell $-1 $-1 $-1 $55 $-1 $26 #
shell $-1 $-1 $-1 $56 $-1 $28 #
shell $-1 $-1 $-1 $57 $-1 $30 #
shell $-1 $-1 $-1 $58 $-1 $32 #
shell $-1 $-1 $-1 $59 $-1 $34 #
face $-1 $60 $61 $36 $-1 $62 forward single #
face $-1 $63 $64 $37 $-1 $65 reversed single #
face $-1 $66 $67 $38 $-1 $68 reversed single #
face $-1 $69 $70 $39 $-1 $71 reversed single #
face $-1 $72 $73 $40 $-1 $74 forward single #
face $-1 $75 $76 $41 $-1 $77 forward single #
face $-1 $78 $79 $42 $-1 $80 reversed single #
face $-1 $81 $82 $43 $-1 $83 forward single #
face $-1 $84 $85 $44 $-1 $86 forward single #
face $-1 $87 $88 $45 $-1 $89 reversed single #
face $-1 $90 $91 $46 $-1 $92 forward single #
face $-1 $93 $94 $47 $-1 $95 forward single #
face $-1 $96 $97 $36 $-1 $98 reversed single #
loop $-1 $-1 $99 $48 #
plane-surface $-1 0 0 15.603261364374298 0 0 1 1 0 0 forward_v I I I I #
face $-1 $100 $101 $37 $-1 $102 reversed single #
loop $-1 $-1 $103 $49 #
plane-surface $-1 -67.290061625943196 -16.628045718525108 0 0 1 0 0 0 1 forward_v I I I I #
face $-1 $104 $105 $38 $-1 $106 reversed single #
loop $-1 $-1 $107 $50 #
plane-surface $-1 67.290061625943181 -16.628045718525108 0 0 1 0 0 0 1 forward_v I I I I #
face $-1 $108 $109 $39 $-1 $110 reversed single #
loop $-1 $-1 $111 $51 #
plane-surface $-1 35.92374988879881 -144.85498827530438 117.16583027558244 -1 0 0 0 -0.66913061440640931 0.74314481823134659 forward_v I I I I #
face $-1 $112 $113 $40 $-1 $114 forward single #
loop $-1 $115 $116 $52 #
cone-surface $-1 20.911902881185185 -37.030287677521834 9.3066432011299245 0 0.66913061440640931 -0.74314481823134659 1.5 0 0 1 I I 0 1 1.5 forward I I I I #
face $-1 $117 $118 $41 $-1 $119 forward single #
loop $-1 $120 $121 $53 #
cone-surface $-1 29.919011085753354 -37.030287677521834 9.3066432011299245 0 0.66913061440640931 -0.74314481823134659 1.5 0 0 1 I I 0 1 1.5 forward I I I I #
face $-1 $122 $123 $42 $-1 $124 reversed single #
loop $-1 $-1 $125 $54 #
plane-surface $-1 -20.598987595714689 106.01239628371987 164.70051068466418 1 0 0 0 -0.77714596973225614 -0.62932038083071107 forward_v I I I I #
face $-1 $126 $127 $43 $-1 $128 forward single #
loop $-1 $129 $130 $55 #
cone-surface $-1 -14.713562568367635 35.860975864069438 6.7431365953110376 0 -0.77714596973225614 -0.62932038083071107 2.5 0 0 1 I I 0 1 2.5 forward I I I I #
face $-1 $131 $132 $44 $-1 $133 forward single #
loop $-1 $134 $135 $56 #
cone-surface $-1 -5.8854250273470541 35.860975864069438 6.7431365953110376 0 -0.77714596973225614 -0.62932038083071107 2.5 0 0 1 I I 0 1 2.5 forward I I I I #
face $-1 $136 $137 $45 $-1 $138 reversed single #
loop $-1 $-1 $139 $57 #
plane-surface $-1 -10.299493797857338 -11.333395870730925 69.675764390267602 0 0.77714596973225614 0.62932038083071107 1 0 0 forward_v I I I I #
face $-1 $140 $141 $46 $-1 $142 forward single #
loop $-1 $143 $144 $58 #
cone-surface $-1 5.8854250273470541 35.860975864069438 6.7431365953110376 0 -0.77714596973225614 -0.62932038083071107 2.5 0 0 1 I I 0 1 2.5 forward I I I I #
face $-1 $145 $146 $47 $-1 $147 forward single #
loop $-1 $148 $149 $59 #
cone-surface $-1 14.713562568367635 35.860975864069438 6.7431365953110376 0 -0.77714596973225614 -0.62932038083071107 2.5 0 0 1 I I 0 1 2.5 forward I I I I #
face $-1 $150 $151 $36 $-1 $152 reversed single #
loop $-1 $-1 $153 $60 #
plane-surface $-1 0 0 -15.603261364374298 0 0 1 1 0 0 forward_v I I I I #
coedge $-1 $154 $155 $156 $157 forward $61 $-1 #
face $-1 $158 $159 $37 $-1 $160 reversed single #
loop $-1 $-1 $161 $63 #
plane-surface $-1 -67.290061625943196 -12.612540430240472 0 0 -1 0 0 0 -1 forward_v I I I I #
coedge $-1 $162 $163 $164 $165 reversed $64 $-1 #
face $-1 $166 $167 $38 $-1 $168 reversed single #
loop $-1 $-1 $169 $66 #
plane-surface $-1 59.082213769785483 -14.62029307438279 0 1 0 0 0 0 -1 forward_v I I I I #
coedge $-1 $170 $171 $172 $173 forward $67 $-1 #
face $-1 $174 $175 $39 $-1 $176 reversed single #
loop $-1 $-1 $177 $69 #
plane-surface $-1 25.415456983469269 -43.819063158989081 4.9540698377373786 0 -0.66913061440640931 0.74314481823134659 1 0 0 forward_v I I I I #
coedge $-1 $178 $179 $180 $181 reversed $70 $-1 #
face $-1 $-1 $182 $40 $-1 $183 forward single #
loop $-1 $184 $185 $72 #
cone-surface $-1 20.911902881185185 -35.653226797615773 7.7772621875304893 0 0.66913061440640931 -0.74314481823134659 0.75 0 0 1 I I -0.70710678118654757 0.70710678118654757 0.75 forward I I I I #
loop $-1 $-1 $186 $52 #
coedge $-1 $116 $116 $187 $188 reversed $73 $-1 #
face $-1 $-1 $189 $41 $-1 $190 forward single #
loop $-1 $191 $192 $75 #
cone-surface $-1 29.919011085753354 -35.653226797615773 7.7772621875304893 0 0.66913061440640931 -0.74314481823134659 0.75 0 0 1 I I -0.70710678118654757 0.70710678118654757 0.75 forward I I I I #
loop $-1 $-1 $193 $53 #
coedge $-1 $121 $121 $194 $195 reversed $76 $-1 #
face $-1 $196 $197 $42 $-1 $198 reversed single #
loop $-1 $-1 $199 $78 #
plane-surface $-1 -10.299493797857338 -11.333395870730925 69.675764390267602 0 0.77714596973225614 0.62932038083071107 1 0 0 forward_v I I I I #
coedge $-1 $200 $201 $202 $203 reversed $79 $-1 #
face $-1 $-1 $204 $43 $-1 $205 forward single #
loop $-1 $206 $207 $81 #
cone-surface $-1 -14.713562568367635 32.614161417859549 4.113918168714271 0 -0.77714596973225614 -0.62932038083071107 1.25 0 0 1 I I -0.70710678118654746 0.70710678118654746 1.25 forward I I I I #
loop $-1 $-1 $208 $55 #
coedge $-1 $130 $130 $209 $210 reversed $82 $-1 #
face $-1 $-1 $211 $44 $-1 $212 forward single #
loop $-1 $213 $214 $84 #
cone-surface $-1 -5.8854250273470541 32.614161417859549 4.113918168714271 0 -0.77714596973225614 -0.62932038083071107 1.25 0 0 1 I I -0.70710678118654746 0.70710678118654746 1.25 forward I I I I #
loop $-1 $-1 $215 $56 #
coedge $-1 $135 $135 $216 $217 reversed $85 $-1 #
face $-1 $218 $219 $45 $-1 $220 reversed single #
loop $-1 $-1 $221 $87 #
plane-surface $-1 20.598987595714704 106.01239628371987 164.70051068466418 -1 0 0 0 0.77714596973225614 0.62932038083071107 forward_v I I I I #
coedge $-1 $222 $223 $224 $225 reversed $88 $-1 #
face $-1 $-1 $226 $46 $-1 $227 forward single #
loop $-1 $228 $229 $90 #
cone-surface $-1 5.8854250273470541 32.614161417859549 4.113918168714271 0 -0.77714596973225614 -0.62932038083071107 1.25 0 0 1 I I -0.70710678118654746 0.70710678118654746 1.25 forward I I I I #
loop $-1 $-1 $230 $58 #
coedge $-1 $144 $144 $231 $232 reversed $91 $-1 #
face $-1 $-1 $233 $47 $-1 $234 forward single #
loop $-1 $235 $236 $93 #
cone-surface $-1 14.713562568367635 32.614161417859549 4.113918168714271 0 -0.77714596973225614 -0.62932038083071107 1.25 0 0 1 I I -0.70710678118654746 0.70710678118654746 1.25 forward I I I I #
loop $-1 $-1 $237 $59 #
coedge $-1 $149 $149 $238 $239 reversed $94 $-1 #
face $-1 $240 $241 $36 $-1 $242 reversed single #
loop $-1 $-1 $243 $96 #
plane-surface $-1 0 -43.819063158989067 0 0 1 0 0 0 1 forward_v I I I I #
coedge $-1 $244 $245 $246 $247 forward $97 $-1 #
coedge $-1 $248 $99 $249 $250 forward $61 $-1 #
coedge $-1 $99 $248 $251 $252 forward $61 $-1 #
coedge $-1 $253 $254 $99 $157 reversed $255 $-1 #
edge $-1 $256 -43.819063158989067 $257 43.819063158989067 $156 $258 forward 7 unknown #
face $-1 $259 $260 $37 $-1 $261 reversed single #
loop $-1 $-1 $262 $100 #
plane-surface $-1 -59.082213769785497 -14.62029307438279 0 -1 0 0 0 0 1 forward_v I I I I #
coedge $-1 $263 $264 $265 $266 forward $101 $-1 #
coedge $-1 $267 $103 $268 $269 reversed $64 $-1 #
coedge $-1 $103 $267 $270 $271 reversed $64 $-1 #
coedge $-1 $272 $273 $103 $165 forward $274 $-1 #
edge $-1 $275 -15.603261364374298 $276 15.603261364374298 $164 $277 forward 7 unknown #
face $-1 $278 $279 $38 $-1 $280 reversed single #
loop $-1 $-1 $281 $104 #
plane-surface $-1 67.290061625943181 -12.612540430240472 0 0 -1 0 0 0 -1 forward_v I I I I #
coedge $-1 $282 $283 $284 $285 forward $105 $-1 #
coedge $-1 $286 $107 $287 $288 reversed $67 $-1 #
coedge $-1 $107 $286 $289 $290 reversed $67 $-1 #
coedge $-1 $283 $282 $107 $173 reversed $105 $-1 #
edge $-1 $291 -15.603261364374298 $292 15.603261364374298 $172 $293 forward 7 unknown #
face $-1 $294 $295 $39 $-1 $296 forward single #
loop $-1 $-1 $297 $108 #
plane-surface $-1 14.907164078139729 -144.85498827530438 117.16583027558244 1 0 0 0 0.66913061440640931 -0.74314481823134659 forward_v I I I I #
coedge $-1 $298 $299 $300 $301 reversed $109 $-1 #
coedge $-1 $179 $111 $302 $303 reversed $70 $-1 #
coedge $-1 $111 $178 $298 $304 reversed $70 $-1 #
coedge $-1 $300 $305 $111 $181 forward $295 $-1 #
edge $-1 $306 28.608430978663122 $307 40.435556103395086 $180 $308 forward 7 unknown #
loop $-1 $-1 $187 $112 #
plane-surface $-1 25.415456983469269 -43.819063158989081 4.9540698377373786 0 -0.66913061440640931 0.74314481823134659 1 0 0 forward_v I I I I #
loop $-1 $-1 $309 $72 #
coedge $-1 $185 $185 $186 $310 reversed $113 $-1 #
coedge $-1 $186 $186 $185 $310 forward $115 $-1 #
coedge $-1 $187 $187 $116 $188 forward $182 $-1 #
edge $-1 $311 7.9240982890194459e-016 $311 6.2831853071796013 $187 $312 forward 7 unknown #
loop $-1 $-1 $194 $117 #
plane-surface $-1 25.415456983469269 -43.819063158989081 4.9540698377373786 0 -0.66913061440640931 0.74314481823134659 1 0 0 forward_v I I I I #
loop $-1 $-1 $313 $75 #
coedge $-1 $192 $192 $193 $314 reversed $118 $-1 #
coedge $-1 $193 $193 $192 $314 forward $120 $-1 #
coedge $-1 $194 $194 $121 $195 forward $189 $-1 #
edge $-1 $315 7.9240982890194459e-016 $315 6.2831853071796013 $194 $316 forward 7 unknown #
face $-1 $317 $318 $42 $-1 $319 reversed single #
loop $-1 $-1 $320 $122 #
plane-surface $-1 1.4210854715202004e-014 106.01239628371987 164.70051068466418 -1 0 0 0 0.77714596973225614 0.62932038083071107 forward_v I I I I #
coedge $-1 $321 $322 $323 $324 reversed $123 $-1 #
coedge $-1 $201 $125 $325 $326 reversed $79 $-1 #
coedge $-1 $125 $200 $321 $327 reversed $79 $-1 #
coedge $-1 $323 $328 $125 $203 forward $329 $-1 #
edge $-1 $330 9.1871349828708659 $331 20.552545604621031 $202 $332 forward 7 unknown #
loop $-1 $-1 $209 $126 #
plane-surface $-1 -10.299493797857338 -11.333395870730925 69.675764390267602 0 0.77714596973225614 0.62932038083071107 1 0 0 forward_v I I I I #
loop $-1 $-1 $333 $81 #
coedge $-1 $207 $207 $208 $334 reversed $127 $-1 #
coedge $-1 $208 $208 $207 $334 forward $129 $-1 #
coedge $-1 $209 $209 $130 $210 forward $204 $-1 #
edge $-1 $335 -1.5604593340443471e-016 $335 6.2831853071796004 $209 $336 forward 7 unknown #
loop $-1 $-1 $216 $131 #
plane-surface $-1 -10.299493797857338 -11.333395870730925 69.675764390267602 0 0.77714596973225614 0.62932038083071107 1 0 0 forward_v I I I I #
loop $-1 $-1 $337 $84 #
coedge $-1 $214 $214 $215 $338 reversed $132 $-1 #
coedge $-1 $215 $215 $214 $338 forward $134 $-1 #
coedge $-1 $216 $216 $135 $217 forward $211 $-1 #
edge $-1 $339 -1.5604593340443471e-016 $339 6.2831853071796004 $216 $340 forward 7 unknown #
face $-1 $341 $342 $45 $-1 $343 forward single #
loop $-1 $-1 $344 $136 #
plane-surface $-1 0 43.819063158989067 0 0 -1 0 0 0 -1 forward_v I I I I #
coedge $-1 $345 $346 $347 $348 reversed $137 $-1 #
coedge $-1 $349 $139 $350 $351 reversed $88 $-1 #
coedge $-1 $139 $349 $352 $353 reversed $88 $-1 #
coedge $-1 $354 $355 $139 $225 forward $342 $-1 #
edge $-1 $356 -87.638126317978191 $357 -69.578309779464561 $224 $358 forward 7 unknown #
loop $-1 $-1 $231 $140 #
plane-surface $-1 -10.299493797857338 -11.333395870730925 69.675764390267602 0 0.77714596973225614 0.62932038083071107 1 0 0 forward_v I I I I #
loop $-1 $-1 $359 $90 #
coedge $-1 $229 $229 $230 $360 reversed $141 $-1 #
coedge $-1 $230 $230 $229 $360 forward $143 $-1 #
coedge $-1 $231 $231 $144 $232 forward $226 $-1 #
edge $-1 $361 -1.5604593340443471e-016 $361 6.2831853071796004 $231 $362 forward 7 unknown #
loop $-1 $-1 $238 $145 #
plane-surface $-1 -10.299493797857338 -11.333395870730925 69.675764390267602 0 0.77714596973225614 0.62932038083071107 1 0 0 forward_v I I I I #
loop $-1 $-1 $363 $93 #
coedge $-1 $236 $236 $237 $364 reversed $146 $-1 #
coedge $-1 $237 $237 $236 $364 forward $148 $-1 #
coedge $-1 $238 $238 $149 $239 forward $233 $-1 #
edge $-1 $365 -1.5604593340443471e-016 $365 6.2831853071796004 $238 $366 forward 7 unknown #
face $-1 $367 $368 $36 $-1 $369 reversed single #
loop $-1 $-1 $370 $150 #
plane-surface $-1 -75.497909482100894 0 0 1 0 0 0 0 -1 forward_v I I I I #
coedge $-1 $371 $251 $372 $373 forward $151 $-1 #
coedge $-1 $374 $153 $371 $375 forward $97 $-1 #
coedge $-1 $153 $374 $376 $377 forward $97 $-1 #
coedge $-1 $254 $253 $153 $247 reversed $255 $-1 #
edge $-1 $378 -43.819063158989067 $379 43.819063158989067 $246 $380 forward 7 unknown #
coedge $-1 $155 $154 $381 $382 forward $61 $-1 #
coedge $-1 $383 $384 $154 $250 reversed $368 $-1 #
edge $-1 $257 -75.497909482100894 $385 75.497909482100894 $249 $386 forward 7 unknown #
coedge $-1 $243 $387 $155 $252 reversed $151 $-1 #
edge $-1 $388 -75.497909482100894 $256 75.497909482100894 $251 $389 forward 7 unknown #
coedge $-1 $246 $156 $387 $390 forward $255 $-1 #
coedge $-1 $156 $246 $383 $391 reversed $255 $-1 #
loop $-1 $-1 $253 $367 #
vertex $-1 $157 $392 #
vertex $-1 $157 $393 #
straight-curve $-1 75.497909482100894 0 15.603261364374298 0 1 0 I I #
face $-1 $394 $395 $37 $-1 $396 forward single #
loop $-1 $-1 $397 $158 #
plane-surface $-1 0 0 -15.603261364374298 0 0 1 1 0 0 forward_v I I I I #
coedge $-1 $398 $399 $267 $400 forward $159 $-1 #
coedge $-1 $401 $161 $397 $402 reversed $101 $-1 #
coedge $-1 $161 $401 $403 $404 reversed $101 $-1 #
coedge $-1 $399 $398 $161 $266 reversed $159 $-1 #
edge $-1 $405 -15.603261364374298 $406 15.603261364374298 $265 $407 forward 7 unknown #
coedge $-1 $163 $162 $262 $400 reversed $64 $-1 #
coedge $-1 $408 $409 $162 $269 forward $260 $-1 #
edge $-1 $410 25.437182956813899 $275 41.852878669129296 $268 $411 forward 7 unknown #
coedge $-1 $412 $413 $163 $271 forward $395 $-1 #
edge $-1 $276 -41.852878669129296 $414 -25.437182956813899 $270 $415 forward 7 unknown #
coedge $-1 $416 $164 $413 $417 reversed $274 $-1 #
coedge $-1 $164 $416 $408 $418 reversed $274 $-1 #
loop $-1 $-1 $416 $394 #
vertex $-1 $418 $419 #
vertex $-1 $165 $420 #
straight-curve $-1 -75.497909482100894 -16.628045718525108 0 0 0 1 I I #
face $-1 $421 $422 $38 $-1 $423 forward single #
loop $-1 $-1 $287 $166 #
plane-surface $-1 0 0 -15.603261364374298 0 0 1 1 0 0 forward_v I I I I #
coedge $-1 $424 $425 $426 $427 reversed $167 $-1 #
coedge $-1 $172 $169 $428 $429 reversed $105 $-1 #
coedge $-1 $169 $172 $430 $431 reversed $105 $-1 #
coedge $-1 $425 $424 $169 $285 reversed $167 $-1 #
edge $-1 $432 -15.603261364374298 $433 15.603261364374298 $284 $434 forward 7 unknown #
coedge $-1 $171 $170 $435 $436 reversed $67 $-1 #
coedge $-1 $428 $437 $170 $288 forward $279 $-1 #
edge $-1 $438 -41.852878669129289 $292 -25.437182956813892 $287 $439 forward 7 unknown #
coedge $-1 $440 $430 $171 $290 forward $422 $-1 #
edge $-1 $291 25.437182956813892 $441 41.852878669129289 $289 $442 forward 7 unknown #
vertex $-1 $290 $443 #
vertex $-1 $288 $444 #
straight-curve $-1 59.082213769785483 -16.628045718525108 0 0 0 -1 I I #
face $-1 $-1 $445 $39 $-1 $446 reversed single #
loop $-1 $-1 $180 $174 #
plane-surface $-1 0 0 15.603261364374298 0 0 1 1 0 0 forward_v I I I I #
coedge $-1 $447 $448 $449 $450 reversed $175 $-1 #
coedge $-1 $451 $177 $179 $304 forward $109 $-1 #
coedge $-1 $177 $451 $447 $452 forward $109 $-1 #
coedge $-1 $449 $180 $177 $301 forward $295 $-1 #
edge $-1 $307 -23.216021397064175 $453 -2.1994355864050945 $300 $454 forward 7 unknown #
coedge $-1 $455 $456 $178 $303 forward $445 $-1 #
edge $-1 $457 -53.628845300053825 $306 -42.979653773416921 $302 $458 forward 7 unknown #
edge $-1 $307 -15.914966820168427 $457 -1.8881026247711288e-014 $179 $459 forward 7 unknown #
coedge $-1 $180 $449 $455 $460 forward $295 $-1 #
vertex $-1 $181 $461 #
vertex $-1 $181 $462 #
straight-curve $-1 35.92374988879881 -72.427494137652189 15.603261364374298 0 1 0 I I #
coedge $-1 $309 $309 $-1 $463 reversed $184 $-1 #
edge $-1 $464 0 $464 6.2831853071796004 $185 $465 forward 7 unknown #
vertex $-1 $188 $466 #
ellipse-curve $-1 20.911902881185185 -37.905500596623085 10.278665601055845 0 -0.66913061440640931 0.74314481823134659 1.5 0 0 1 I I #
coedge $-1 $313 $313 $-1 $467 reversed $191 $-1 #
edge $-1 $468 0 $468 6.2831853071796004 $192 $469 forward 7 unknown #
vertex $-1 $195 $470 #
ellipse-curve $-1 29.919011085753354 -37.905500596623085 10.278665601055845 0 -0.66913061440640931 0.74314481823134659 1.5 0 0 1 I I #
face $-1 $-1 $329 $42 $-1 $471 forward single #
loop $-1 $-1 $472 $196 #
plane-surface $-1 0 43.819063158989067 0 0 -1 0 0 0 -1 forward_v I I I I #
coedge $-1 $473 $474 $475 $476 reversed $197 $-1 #
coedge $-1 $477 $199 $201 $327 forward $123 $-1 #
coedge $-1 $199 $477 $473 $478 forward $123 $-1 #
coedge $-1 $475 $202 $199 $324 forward $329 $-1 #
edge $-1 $331 -15.449240696786021 $479 5.149746898928683 $323 $480 forward 7 unknown #
coedge $-1 $481 $482 $200 $326 forward $318 $-1 #
edge $-1 $483 -80.7821076149676 $330 -66.7469939779578 $325 $484 forward 7 unknown #
edge $-1 $331 69.578309779464561 $483 87.638126317978191 $201 $485 forward 7 unknown #
coedge $-1 $202 $475 $481 $486 forward $329 $-1 #
loop $-1 $-1 $475 $317 #
vertex $-1 $326 $487 #
vertex $-1 $203 $488 #
straight-curve $-1 -20.598987595714689 53.006198141859933 15.603261364374291 0 -1 0 I I #
coedge $-1 $333 $333 $-1 $489 reversed $206 $-1 #
edge $-1 $490 0 $490 6.2831853071796004 $207 $491 forward 7 unknown #
vertex $-1 $210 $492 #
ellipse-curve $-1 -14.713562568367635 38.136357848113981 8.5857045458693975 0 0.77714596973225614 0.62932038083071107 2.5 0 0 1 I I #
coedge $-1 $337 $337 $-1 $493 reversed $213 $-1 #
edge $-1 $494 0 $494 6.2831853071796004 $214 $495 forward 7 unknown #
vertex $-1 $217 $496 #
ellipse-curve $-1 -5.8854250273470541 38.136357848113981 8.5857045458693975 0 0.77714596973225614 0.62932038083071107 2.5 0 0 1 I I #
face $-1 $-1 $497 $45 $-1 $498 forward single #
loop $-1 $-1 $354 $218 #
plane-surface $-1 1.4210854715202004e-014 106.01239628371987 164.70051068466418 -1 0 0 0 0.77714596973225614 0.62932038083071107 forward_v I I I I #
coedge $-1 $350 $499 $346 $500 forward $219 $-1 #
coedge $-1 $346 $221 $349 $501 reversed $137 $-1 #
coedge $-1 $221 $345 $344 $500 reversed $137 $-1 #
coedge $-1 $502 $352 $221 $348 forward $497 $-1 #
edge $-1 $503 -20.552545604621031 $504 -9.1871349828708659 $347 $505 forward 7 unknown #
coedge $-1 $223 $222 $345 $501 forward $88 $-1 #
coedge $-1 $506 $344 $222 $351 forward $219 $-1 #
edge $-1 $507 -25.748734494643372 $356 -5.149746898928683 $350 $508 forward 7 unknown #
coedge $-1 $347 $509 $223 $353 forward $497 $-1 #
edge $-1 $357 5.149746898928683 $503 25.748734494643372 $352 $510 forward 7 unknown #
coedge $-1 $355 $224 $509 $511 reversed $342 $-1 #
coedge $-1 $224 $354 $506 $512 reversed $342 $-1 #
vertex $-1 $351 $513 #
vertex $-1 $353 $514 #
straight-curve $-1 1.4210854715202004e-014 -11.333395870730925 69.675764390267602 0 -0.62932038083071107 0.77714596973225614 I I #
coedge $-1 $359 $359 $-1 $515 reversed $228 $-1 #
edge $-1 $516 0 $516 6.2831853071796004 $229 $517 forward 7 unknown #
vertex $-1 $232 $518 #
ellipse-curve $-1 5.8854250273470541 38.136357848113981 8.5857045458693975 0 0.77714596973225614 0.62932038083071107 2.5 0 0 1 I I #
coedge $-1 $363 $363 $-1 $519 reversed $235 $-1 #
edge $-1 $520 0 $520 6.2831853071796004 $236 $521 forward 7 unknown #
vertex $-1 $239 $522 #
ellipse-curve $-1 14.713562568367635 38.136357848113981 8.5857045458693975 0 0.77714596973225614 0.62932038083071107 2.5 0 0 1 I I #
face $-1 $-1 $255 $36 $-1 $523 reversed single #
loop $-1 $-1 $383 $240 #
plane-surface $-1 0 43.819063158989067 0 0 -1 0 0 0 -1 forward_v I I I I #
coedge $-1 $524 $381 $384 $525 forward $241 $-1 #
coedge $-1 $387 $243 $244 $375 reversed $151 $-1 #
coedge $-1 $381 $524 $243 $373 reversed $241 $-1 #
edge $-1 $388 -15.603261364374298 $526 15.603261364374298 $372 $527 forward 7 unknown #
coedge $-1 $245 $244 $524 $528 forward $97 $-1 #
edge $-1 $379 -75.497909482100894 $526 75.497909482100894 $371 $529 forward 7 unknown #
coedge $-1 $384 $383 $245 $377 reversed $368 $-1 #
edge $-1 $530 -75.497909482100894 $378 75.497909482100894 $376 $531 forward 7 unknown #
vertex $-1 $247 $532 #
vertex $-1 $390 $533 #
straight-curve $-1 75.497909482100894 0 -15.603261364374298 0 -1 0 I I #
coedge $-1 $370 $372 $248 $382 reversed $241 $-1 #
edge $-1 $385 -43.819063158989067 $388 43.819063158989067 $381 $534 forward 7 unknown #
coedge $-1 $376 $249 $254 $391 forward $368 $-1 #
coedge $-1 $249 $376 $370 $525 reversed $368 $-1 #
vertex $-1 $250 $535 #
straight-curve $-1 0 43.819063158989067 15.603261364374298 -1 0 0 I I #
coedge $-1 $251 $371 $253 $390 reversed $151 $-1 #
vertex $-1 $382 $536 #
straight-curve $-1 0 -43.819063158989067 15.603261364374298 1 0 0 I I #
edge $-1 $256 -15.603261364374298 $379 15.603261364374298 $253 $537 forward 7 unknown #
edge $-1 $257 -15.603261364374298 $378 15.603261364374298 $254 $538 forward 7 unknown #
point $-1 75.497909482100894 -43.819063158989067 15.603261364374298 #
point $-1 75.497909482100894 43.819063158989067 15.603261364374298 #
face $-1 $-1 $274 $37 $-1 $539 reversed single #
loop $-1 $-1 $403 $259 #
plane-surface $-1 0 0 15.603261364374298 0 0 1 1 0 0 forward_v I I I I #
coedge $-1 $409 $408 $263 $402 forward $260 $-1 #
coedge $-1 $265 $262 $409 $540 reversed $159 $-1 #
coedge $-1 $262 $265 $412 $541 reversed $159 $-1 #
edge $-1 $414 -15.603261364374298 $410 15.603261364374298 $262 $542 forward 7 unknown #
coedge $-1 $264 $263 $416 $543 reversed $101 $-1 #
edge $-1 $544 -41.852878669129296 $406 -25.437182956813899 $397 $545 forward 7 unknown #
coedge $-1 $413 $412 $264 $404 forward $395 $-1 #
edge $-1 $405 25.437182956813899 $546 41.852878669129296 $403 $547 forward 7 unknown #
vertex $-1 $404 $548 #
vertex $-1 $402 $549 #
straight-curve $-1 -59.082213769785497 -12.612540430240472 0 0 0 -1 I I #
coedge $-1 $397 $268 $273 $418 forward $260 $-1 #
coedge $-1 $268 $397 $398 $540 forward $260 $-1 #
vertex $-1 $269 $550 #
straight-curve $-1 -33.645030812971598 -16.628045718525108 -15.603261364374298 -1 0 0 I I #
coedge $-1 $403 $270 $399 $541 forward $395 $-1 #
coedge $-1 $270 $403 $272 $417 forward $395 $-1 #
vertex $-1 $271 $551 #
straight-curve $-1 -33.645030812971598 -16.628045718525108 15.603261364374298 1 0 0 I I #
coedge $-1 $273 $272 $401 $543 forward $274 $-1 #
edge $-1 $546 12.612540430240472 $276 16.628045718525108 $272 $552 forward 7 unknown #
edge $-1 $275 -16.628045718525108 $544 -12.612540430240472 $273 $553 forward 7 unknown #
point $-1 -75.497909482100894 -16.628045718525108 -15.603261364374298 #
point $-1 -75.497909482100894 -16.628045718525108 15.603261364374298 #
face $-1 $-1 $554 $38 $-1 $555 reversed single #
loop $-1 $-1 $289 $278 #
plane-surface $-1 0 0 15.603261364374298 0 0 1 1 0 0 forward_v I I I I #
coedge $-1 $284 $281 $556 $557 reversed $167 $-1 #
coedge $-1 $281 $284 $558 $559 reversed $167 $-1 #
coedge $-1 $560 $561 $281 $427 forward $554 $-1 #
edge $-1 $562 -15.603261364374298 $563 15.603261364374298 $426 $564 forward 7 unknown #
coedge $-1 $556 $287 $282 $429 forward $279 $-1 #
edge $-1 $292 -9.3178991813337131 $433 -5.3023938930490768 $428 $565 forward 7 unknown #
coedge $-1 $289 $558 $283 $431 forward $422 $-1 #
edge $-1 $432 5.3023938930490768 $291 9.3178991813337131 $430 $566 forward 7 unknown #
vertex $-1 $431 $567 #
vertex $-1 $429 $568 #
straight-curve $-1 59.082213769785483 -12.612540430240472 0 0 0 -1 I I #
coedge $-1 $561 $560 $286 $436 forward $554 $-1 #
edge $-1 $441 -15.603261364374298 $438 15.603261364374298 $435 $569 forward 7 unknown #
coedge $-1 $287 $556 $561 $570 forward $279 $-1 #
vertex $-1 $436 $571 #
straight-curve $-1 33.645030812971591 -16.628045718525108 -15.603261364374298 -1 0 0 I I #
coedge $-1 $558 $289 $560 $572 forward $422 $-1 #
vertex $-1 $572 $573 #
straight-curve $-1 33.645030812971591 -16.628045718525108 15.603261364374298 1 0 0 I I #
point $-1 59.082213769785483 -16.628045718525108 15.603261364374298 #
point $-1 59.082213769785483 -16.628045718525108 -15.603261364374298 #
loop $-1 $-1 $302 $294 #
plane-surface $-1 0 -43.819063158989067 0 0 1 0 0 0 1 forward_v I I I I #
coedge $-1 $448 $297 $299 $452 reversed $175 $-1 #
coedge $-1 $297 $447 $574 $575 reversed $175 $-1 #
coedge $-1 $305 $300 $297 $450 forward $295 $-1 #
edge $-1 $453 -40.435556103395086 $576 -28.608430978663122 $449 $577 forward 7 unknown #
coedge $-1 $299 $298 $456 $578 reversed $109 $-1 #
edge $-1 $579 1.8881026247711288e-014 $453 15.914966820168427 $447 $580 forward 7 unknown #
vertex $-1 $301 $581 #
straight-curve $-1 12.707728491734635 -31.991938034257107 15.603261364374298 -1 0 0 I I #
coedge $-1 $574 $302 $305 $460 reversed $445 $-1 #
coedge $-1 $302 $574 $451 $578 forward $445 $-1 #
vertex $-1 $303 $582 #
straight-curve $-1 35.92374988879881 -43.819063158989067 58.582915137791218 0 0 1 I I #
straight-curve $-1 35.92374988879881 -43.819063158989081 4.9540698377373786 0 -0.74314481823134659 -0.66913061440640931 I I #
edge $-1 $576 14.907164078139729 $306 35.92374988879881 $455 $583 forward 7 unknown #
point $-1 35.92374988879881 -43.819063158989067 15.603261364374298 #
point $-1 35.92374988879881 -31.991938034257103 15.603261364374298 #
edge $-1 $584 1 $584 0 $309 $-1 forward 7 unknown #
vertex $-1 $310 $585 #
ellipse-curve $-1 20.911902881185185 -36.155074758420582 8.3346208012039984 0 -0.66913061440640931 0.74314481823134659 1.5 0 0 1 I I #
point $-1 22.411902881185185 -37.905500596623085 10.278665601055847 #
edge $-1 $586 1 $586 0 $313 $-1 forward 7 unknown #
vertex $-1 $314 $587 #
ellipse-curve $-1 29.919011085753354 -36.155074758420582 8.3346208012039984 0 -0.66913061440640931 0.74314481823134659 1.5 0 0 1 I I #
point $-1 31.419011085753354 -37.905500596623085 10.278665601055847 #
plane-surface $-1 0 0 15.603261364374298 0 0 1 1 0 0 forward_v I I I I #
coedge $-1 $482 $481 $474 $588 forward $318 $-1 #
coedge $-1 $474 $320 $322 $478 reversed $197 $-1 #
coedge $-1 $320 $473 $472 $588 reversed $197 $-1 #
coedge $-1 $328 $323 $320 $476 forward $329 $-1 #
edge $-1 $479 -20.552545604621031 $589 -9.1871349828708659 $475 $590 forward 7 unknown #
coedge $-1 $322 $321 $482 $591 reversed $123 $-1 #
edge $-1 $592 -87.638126317978191 $479 -69.578309779464561 $473 $593 forward 7 unknown #
vertex $-1 $324 $594 #
straight-curve $-1 -5.1497468989286688 32.453652537238902 15.603261364374298 1 0 0 I I #
coedge $-1 $472 $325 $328 $486 reversed $318 $-1 #
coedge $-1 $325 $472 $477 $591 forward $318 $-1 #
vertex $-1 $326 $595 #
straight-curve $-1 -20.598987595714689 43.819063158989067 82.35025534233209 0 0 1 I I #
straight-curve $-1 -20.598987595714689 -11.333395870730925 69.675764390267602 0 0.62932038083071107 -0.77714596973225614 I I #
edge $-1 $589 -1.4210854715202004e-014 $330 20.598987595714689 $481 $596 forward 7 unknown #
point $-1 -20.598987595714689 43.819063158989067 15.603261364374298 #
point $-1 -20.598987595714689 32.453652537238902 15.603261364374298 #
edge $-1 $597 1 $597 0 $333 $-1 forward 7 unknown #
vertex $-1 $334 $598 #
ellipse-curve $-1 -14.713562568367635 33.585593880024867 4.90056864475266 0 0.77714596973225614 0.62932038083071107 2.5 0 0 1 I I #
point $-1 -12.213562568367635 38.136357848114002 8.5857045458694152 #
edge $-1 $599 1 $599 0 $337 $-1 forward 7 unknown #
vertex $-1 $338 $600 #
ellipse-curve $-1 -5.8854250273470541 33.585593880024867 4.90056864475266 0 0.77714596973225614 0.62932038083071107 2.5 0 0 1 I I #
point $-1 -3.3854250273470541 38.136357848114002 8.5857045458694152 #
loop $-1 $-1 $347 $341 #
plane-surface $-1 0 0 15.603261364374298 0 0 1 1 0 0 forward_v I I I I #
coedge $-1 $344 $506 $502 $601 reversed $219 $-1 #
edge $-1 $504 66.7469939779578 $507 80.7821076149676 $344 $602 forward 7 unknown #
edge $-1 $507 -87.638126317978191 $503 -69.578309779464561 $345 $603 forward 7 unknown #
coedge $-1 $509 $347 $499 $601 forward $497 $-1 #
vertex $-1 $348 $604 #
vertex $-1 $601 $605 #
straight-curve $-1 20.598987595714704 53.006198141859933 15.603261364374291 0 1 0 I I #
coedge $-1 $499 $350 $355 $512 forward $219 $-1 #
vertex $-1 $500 $606 #
straight-curve $-1 -5.1497468989286688 43.819063158989067 1.568147727364483 -1 0 0 I I #
coedge $-1 $352 $502 $354 $511 forward $497 $-1 #
straight-curve $-1 -5.1497468989286688 32.453652537238902 15.603261364374298 1 0 0 I I #
edge $-1 $607 9.1871349828708659 $357 20.552545604621031 $509 $608 forward 7 unknown #
edge $-1 $356 -80.7821076149676 $607 -66.7469939779578 $506 $609 forward 7 unknown #
point $-1 1.4210854715202004e-014 43.819063158989067 1.5681477273644902 #
point $-1 1.4210854715202004e-014 32.453652537238902 15.603261364374298 #
edge $-1 $610 1 $610 0 $359 $-1 forward 7 unknown #
vertex $-1 $360 $611 #
ellipse-curve $-1 5.8854250273470541 33.585593880024867 4.90056864475266 0 0.77714596973225614 0.62932038083071107 2.5 0 0 1 I I #
point $-1 8.3854250273470541 38.136357848114002 8.5857045458694152 #
edge $-1 $612 1 $612 0 $363 $-1 forward 7 unknown #
vertex $-1 $364 $613 #
ellipse-curve $-1 14.713562568367635 33.585593880024867 4.90056864475266 0 0.77714596973225614 0.62932038083071107 2.5 0 0 1 I I #
point $-1 17.213562568367635 38.136357848114002 8.5857045458694152 #
plane-surface $-1 75.497909482100894 0 0 -1 0 0 0 0 1 forward_v I I I I #
coedge $-1 $372 $370 $374 $528 reversed $241 $-1 #
edge $-1 $385 -15.603261364374298 $530 15.603261364374298 $384 $614 forward 7 unknown #
vertex $-1 $528 $615 #
straight-curve $-1 -75.497909482100894 -43.819063158989067 0 0 0 -1 I I #
edge $-1 $526 -43.819063158989067 $530 43.819063158989067 $524 $616 forward 7 unknown #
straight-curve $-1 0 -43.819063158989067 -15.603261364374298 -1 0 0 I I #
vertex $-1 $377 $617 #
straight-curve $-1 0 43.819063158989067 -15.603261364374298 1 0 0 I I #
point $-1 75.497909482100894 43.819063158989067 -15.603261364374298 #
point $-1 75.497909482100894 -43.819063158989067 -15.603261364374298 #
straight-curve $-1 -75.497909482100894 0 15.603261364374298 0 -1 0 I I #
point $-1 -75.497909482100894 43.819063158989067 15.603261364374298 #
point $-1 -75.497909482100894 -43.819063158989067 15.603261364374298 #
straight-curve $-1 75.497909482100894 -43.819063158989067 0 0 0 -1 I I #
straight-curve $-1 75.497909482100894 43.819063158989067 0 0 0 -1 I I #
plane-surface $-1 -75.497909482100894 0 0 1 0 0 0 0 -1 forward_v I I I I #
edge $-1 $406 5.3023938930490768 $410 9.3178991813337131 $409 $618 forward 7 unknown #
edge $-1 $414 -9.3178991813337131 $405 -5.3023938930490768 $412 $619 forward 7 unknown #
straight-curve $-1 -59.082213769785497 -16.628045718525108 0 0 0 -1 I I #
edge $-1 $546 -15.603261364374298 $544 15.603261364374298 $416 $620 forward 7 unknown #
vertex $-1 $543 $621 #
straight-curve $-1 -33.645030812971598 -12.612540430240472 -15.603261364374298 1 0 0 I I #
vertex $-1 $417 $622 #
straight-curve $-1 -33.645030812971598 -12.612540430240472 15.603261364374298 -1 0 0 I I #
point $-1 -59.082213769785497 -12.612540430240472 15.603261364374298 #
point $-1 -59.082213769785497 -12.612540430240472 -15.603261364374298 #
point $-1 -59.082213769785497 -16.628045718525108 -15.603261364374298 #
point $-1 -59.082213769785497 -16.628045718525108 15.603261364374298 #
straight-curve $-1 -75.497909482100894 0 15.603261364374298 0 -1 0 I I #
straight-curve $-1 -75.497909482100894 0 -15.603261364374298 0 1 0 I I #
loop $-1 $-1 $435 $421 #
plane-surface $-1 75.497909482100894 0 0 -1 0 0 0 0 1 forward_v I I I I #
coedge $-1 $437 $428 $424 $557 forward $279 $-1 #
edge $-1 $433 25.437182956813892 $562 41.852878669129289 $556 $623 forward 7 unknown #
coedge $-1 $430 $440 $425 $559 forward $422 $-1 #
edge $-1 $563 -41.852878669129289 $432 -25.437182956813892 $558 $624 forward 7 unknown #
coedge $-1 $435 $426 $440 $572 reversed $554 $-1 #
coedge $-1 $426 $435 $437 $570 reversed $554 $-1 #
vertex $-1 $570 $625 #
vertex $-1 $427 $626 #
straight-curve $-1 75.497909482100894 -12.612540430240472 0 0 0 1 I I #
straight-curve $-1 59.082213769785483 -7.310146537191395 -15.603261364374298 0 1 0 I I #
straight-curve $-1 59.082213769785483 -7.310146537191395 15.603261364374298 0 -1 0 I I #
point $-1 59.082213769785483 -12.612540430240472 15.603261364374298 #
point $-1 59.082213769785483 -12.612540430240472 -15.603261364374298 #
straight-curve $-1 75.497909482100894 -16.628045718525108 0 0 0 -1 I I #
edge $-1 $562 12.612540430240472 $438 16.628045718525108 $561 $627 forward 7 unknown #
point $-1 75.49790948210088 -16.628045718525108 -15.603261364374298 #
edge $-1 $441 -16.628045718525108 $563 -12.612540430240472 $560 $628 forward 7 unknown #
point $-1 75.49790948210088 -16.628045718525108 15.603261364374298 #
coedge $-1 $456 $455 $448 $575 forward $445 $-1 #
edge $-1 $576 42.979653773416921 $579 53.628845300053825 $574 $629 forward 7 unknown #
vertex $-1 $460 $630 #
straight-curve $-1 14.907164078139729 -72.427494137652189 15.603261364374298 0 -1 0 I I #
edge $-1 $579 2.1994355864050945 $457 23.216021397064175 $456 $631 forward 7 unknown #
vertex $-1 $578 $632 #
straight-curve $-1 14.907164078139729 -43.819063158989081 4.9540698377373786 0 0.74314481823134659 0.66913061440640931 I I #
point $-1 14.907164078139729 -31.991938034257103 15.603261364374298 #
point $-1 35.92374988879881 -43.819063158989067 4.9540698377373911 #
straight-curve $-1 0 -43.819063158989067 15.603261364374298 1 0 0 I I #
vertex $-1 $463 $633 #
point $-1 22.411902881185185 -36.155074758420582 8.3346208012039984 #
vertex $-1 $467 $634 #
point $-1 31.419011085753354 -36.155074758420582 8.3346208012039984 #
edge $-1 $589 66.7469939779578 $592 80.7821076149676 $472 $635 forward 7 unknown #
vertex $-1 $486 $636 #
straight-curve $-1 1.4210854715202004e-014 53.006198141859933 15.603261364374291 0 1 0 I I #
edge $-1 $592 -5.149746898928683 $483 15.449240696786021 $482 $637 forward 7 unknown #
vertex $-1 $591 $638 #
straight-curve $-1 1.4210854715202004e-014 -11.333395870730925 69.675764390267602 0 -0.62932038083071107 0.77714596973225614 I I #
point $-1 1.4210854715202004e-014 32.453652537238902 15.603261364374298 #
point $-1 -20.598987595714689 43.819063158989067 1.5681477273644902 #
straight-curve $-1 0 43.819063158989067 15.603261364374298 -1 0 0 I I #
vertex $-1 $489 $639 #
point $-1 -12.213562568367635 33.585593880024867 4.90056864475266 #
vertex $-1 $493 $640 #
point $-1 -3.3854250273470541 33.585593880024867 4.90056864475266 #
edge $-1 $504 -20.598987595714704 $607 -1.4210854715202004e-014 $499 $641 forward 7 unknown #
straight-curve $-1 20.598987595714704 43.819063158989067 82.35025534233209 0 0 -1 I I #
straight-curve $-1 20.598987595714704 -11.333395870730925 69.675764390267602 0 -0.62932038083071107 0.77714596973225614 I I #
point $-1 20.598987595714704 32.453652537238902 15.603261364374298 #
point $-1 20.598987595714704 43.819063158989067 15.603261364374298 #
point $-1 20.598987595714704 43.819063158989067 1.5681477273644902 #
vertex $-1 $512 $642 #
straight-curve $-1 1.4210854715202004e-014 53.006198141859933 15.603261364374291 0 -1 0 I I #
straight-curve $-1 1.4210854715202004e-014 43.819063158989067 82.35025534233209 0 0 1 I I #
vertex $-1 $515 $643 #
point $-1 8.3854250273470541 33.585593880024867 4.90056864475266 #
vertex $-1 $519 $644 #
point $-1 17.213562568367635 33.585593880024867 4.90056864475266 #
straight-curve $-1 -75.497909482100894 43.819063158989067 0 0 0 -1 I I #
point $-1 -75.497909482100894 -43.819063158989067 -15.603261364374298 #
straight-curve $-1 -75.497909482100894 0 -15.603261364374298 0 1 0 I I #
point $-1 -75.497909482100894 43.819063158989067 -15.603261364374298 #
straight-curve $-1 -59.082213769785497 -7.310146537191395 -15.603261364374298 0 -1 0 I I #
straight-curve $-1 -59.082213769785497 -7.310146537191395 15.603261364374298 0 1 0 I I #
straight-curve $-1 -75.497909482100894 -12.612540430240472 0 0 0 -1 I I #
point $-1 -75.497909482100894 -12.612540430240472 -15.603261364374298 #
point $-1 -75.497909482100894 -12.612540430240472 15.603261364374298 #
straight-curve $-1 33.645030812971591 -12.612540430240472 -15.603261364374298 1 0 0 I I #
straight-curve $-1 33.645030812971591 -12.612540430240472 15.603261364374298 -1 0 0 I I #
point $-1 75.49790948210088 -12.612540430240472 -15.603261364374298 #
point $-1 75.49790948210088 -12.612540430240472 15.603261364374298 #
straight-curve $-1 75.497909482100894 0 -15.603261364374298 0 -1 0 I I #
straight-curve $-1 75.497909482100894 0 15.603261364374298 0 1 0 I I #
straight-curve $-1 14.907164078139729 -43.819063158989067 58.582915137791218 0 0 -1 I I #
point $-1 14.907164078139729 -43.819063158989067 15.603261364374298 #
straight-curve $-1 12.707728491734635 -43.819063158989067 4.9540698377373911 1 0 0 I I #
point $-1 14.907164078139729 -43.819063158989067 4.9540698377373911 #
point $-1 20.911902881185185 -35.151378836810963 7.2199035738569792 #
point $-1 29.919011085753354 -35.151378836810963 7.2199035738569792 #
straight-curve $-1 1.4210854715202004e-014 43.819063158989067 82.35025534233209 0 0 -1 I I #
point $-1 1.4210854715202004e-014 43.819063158989067 15.603261364374298 #
straight-curve $-1 -5.1497468989286688 43.819063158989067 1.568147727364483 -1 0 0 I I #
point $-1 1.4210854715202004e-014 43.819063158989067 1.5681477273644902 #
point $-1 -14.713562568367635 31.642728955694228 3.327267692675882 #
point $-1 -5.8854250273470541 31.642728955694228 3.327267692675882 #
straight-curve $-1 0 43.819063158989067 15.603261364374298 -1 0 0 I I #
point $-1 1.4210854715202004e-014 43.819063158989067 15.603261364374298 #
point $-1 5.8854250273470541 31.642728955694228 3.327267692675882 #
point $-1 14.713562568367635 31.642728955694228 3.327267692675882 #
End-of-ACIS-data 