500 0 9 0           
7 Unknown 11 ACIS 5.0 NT 24 Fri Mar 26 02:53:19 1999 
-1 9.9999999999999995e-007 1e-010 
body $-1 $9 $-1 $10 #
body $-1 $11 $-1 $12 #
body $-1 $13 $-1 $14 #
body $-1 $15 $-1 $16 #
body $-1 $17 $-1 $18 #
body $-1 $19 $-1 $20 #
body $-1 $21 $-1 $22 #
body $-1 $23 $-1 $24 #
body $-1 $25 $-1 $26 #
lump $-1 $-1 $27 $0 #
transform $-1 1 0 0 0 1 0 0 0 1 64.584490493484296 30.97461678228418 13.295443284996201 1 rotate no_reflect no_shear #
lump $-1 $-1 $28 $1 #
transform $-1 1 0 0 0 1 0 0 0 1 64.584490493484296 30.97461678228418 13.295443284996201 1 rotate no_reflect no_shear #
lump $-1 $-1 $29 $2 #
transform $-1 1 0 0 0 1 0 0 0 1 64.584490493484296 30.97461678228418 13.295443284996201 1 rotate no_reflect no_shear #
lump $-1 $-1 $30 $3 #
transform $-1 1 0 0 0 1 0 0 0 1 64.584490493484296 30.97461678228418 13.295443284996201 1 rotate no_reflect no_shear #
lump $-1 $-1 $31 $4 #
transform $-1 1 0 0 0 1 0 0 0 1 64.584490493484296 30.97461678228418 13.295443284996201 1 rotate no_reflect no_shear #
lump $-1 $-1 $32 $5 #
transform $-1 1 0 0 0 1 0 0 0 1 64.584490493484296 30.97461678228418 13.295443284996201 1 rotate no_reflect no_shear #
lump $-1 $-1 $33 $6 #
transform $-1 1 0 0 0 1 0 0 0 1 64.584490493484296 30.97461678228418 13.295443284996201 1 rotate no_reflect no_shear #
lump $-1 $-1 $34 $7 #
transform $-1 1 0 0 0 1 0 0 0 1 64.584490493484296 30.97461678228418 13.295443284996201 1 rotate no_reflect no_shear #
lump $-1 $-1 $35 $8 #
transform $-1 1 0 0 0 1 0 0 0 1 64.584490493484296 30.97461678228418 13.295443284996201 1 rotate no_reflect no_shear #
shell $-1 $-1 $-1 $36 $-1 $9 #
shell $-1 $-1 $-1 $37 $-1 $11 #
shell $-1 $-1 $-1 $38 $-1 $13 #
shell $-1 $-1 $-1 $39 $-1 $15 #
shell $-1 $-1 $-1 $40 $-1 $17 #
shell $-1 $-1 $-1 $41 $-1 $19 #
shell $-1 $-1 $-1 $42 $-1 $21 #
shell $-1 $-1 $-1 $43 $-1 $23 #
shell $-1 $-1 $-1 $44 $-1 $25 #
face $-1 $45 $46 $27 $-1 $47 forward single #
face $-1 $48 $49 $28 $-1 $50 forward single #
face $-1 $51 $52 $29 $-1 $53 forward single #
face $-1 $54 $55 $30 $-1 $56 reversed single #
face $-1 $57 $58 $31 $-1 $59 forward single #
face $-1 $60 $61 $32 $-1 $62 forward single #
face $-1 $63 $64 $33 $-1 $65 reversed single #
face $-1 $66 $67 $34 $-1 $68 forward single #
face $-1 $69 $70 $35 $-1 $71 forward single #
face $-1 $72 $73 $27 $-1 $74 reversed single #
loop $-1 $-1 $75 $36 #
plane-surface $-1 0 0 13.295443284996201 0 0 1 1 0 0 forward_v I I I I #
face $-1 $76 $77 $28 $-1 $78 reversed single #
loop $-1 $-1 $79 $37 #
plane-surface $-1 0 -25.559706972813331 -6.075806993302197 0 0 1 1 0 0 forward_v I I I I #
face $-1 $80 $81 $29 $-1 $82 reversed single #
loop $-1 $-1 $83 $38 #
plane-surface $-1 0 25.559706972813331 -6.075806993302197 0 0 1 1 0 0 forward_v I I I I #
face $-1 $84 $85 $30 $-1 $86 reversed single #
loop $-1 $-1 $87 $39 #
plane-surface $-1 -136.81486894870017 14.896255546167204 107.66312612244909 0 -1 0 0.55919291073839883 0 -0.82903756765294845 forward_v I I I I #
face $-1 $88 $89 $31 $-1 $90 forward single #
loop $-1 $91 $92 $40 #
cone-surface $-1 -54.877100008742907 8.3069541555766406 6.5217970130729732 0.55919291073839883 0 -0.82903756765294845 0.41451878382647422 0 0.27959645536919941 1 I I 0 1 0.5 forward I I I I #
face $-1 $93 $94 $32 $-1 $95 forward single #
loop $-1 $96 $97 $41 #
cone-surface $-1 -54.877100008742907 12.260534989930981 6.5217970130729732 0.55919291073839883 0 -0.82903756765294845 0.41451878382647422 0 0.27959645536919941 1 I I 0 1 0.5 forward I I I I #
face $-1 $98 $99 $33 $-1 $100 reversed single #
loop $-1 $-1 $101 $42 #
plane-surface $-1 67.772567806577214 -8.893292616554092 189.83929065945907 0 -1 0 -0.71933980857756763 0 -0.69465836192734942 forward_v I I I I #
face $-1 $102 $103 $34 $-1 $104 forward single #
loop $-1 $105 $106 $43 #
cone-surface $-1 60.686847907428458 -16.930081578545799 9.3257968683635308 -0.71933980857756763 0 -0.69465836192734942 0.69465836192734942 0 -0.71933980857756763 1 I I 0 1 1 forward I I I I #
face $-1 $107 $108 $35 $-1 $109 forward single #
loop $-1 $110 $111 $44 #
cone-surface $-1 60.686847907428458 -12.108008201350774 9.3257968683635308 -0.71933980857756763 0 -0.69465836192734942 0.69465836192734942 0 -0.71933980857756763 1 I I 0 1 1 forward I I I I #
face $-1 $112 $113 $27 $-1 $114 reversed single #
loop $-1 $-1 $115 $45 #
plane-surface $-1 0 0 -13.295443284996201 0 0 1 1 0 0 forward_v I I I I #
coedge $-1 $116 $117 $118 $119 forward $46 $-1 #
face $-1 $120 $121 $28 $-1 $122 reversed single #
loop $-1 $-1 $123 $48 #
plane-surface $-1 0 -20.144797163342481 -9.6856251391491988 0 -1 0 0 0 -1 forward_v I I I I #
coedge $-1 $124 $125 $126 $127 reversed $49 $-1 #
face $-1 $128 $129 $29 $-1 $130 reversed single #
loop $-1 $-1 $131 $51 #
plane-surface $-1 0 20.144797163342481 -9.6856251391491988 0 1 0 0 0 1 forward_v I I I I #
coedge $-1 $132 $133 $134 $135 reversed $52 $-1 #
face $-1 $136 $137 $30 $-1 $138 reversed single #
loop $-1 $-1 $139 $54 #
plane-surface $-1 -64.584490493484324 10.283744572753811 0.5771883088027181 -0.55919291073839883 0 0.82903756765294845 0.82903756765294845 0 0.55919291073839883 forward_v I I I I #
coedge $-1 $140 $141 $142 $143 reversed $55 $-1 #
face $-1 $-1 $144 $31 $-1 $145 forward single #
loop $-1 $146 $147 $57 #
cone-surface $-1 -54.457705325689105 8.3069541555766406 5.9000188373332616 0.55919291073839883 0 -0.82903756765294845 0.20725939191323711 0 0.13979822768459971 1 I I -0.70710678118654746 0.70710678118654746 0.25 forward I I I I #
loop $-1 $-1 $148 $40 #
coedge $-1 $92 $92 $149 $150 reversed $58 $-1 #
face $-1 $-1 $151 $32 $-1 $152 forward single #
loop $-1 $153 $154 $60 #
cone-surface $-1 -54.457705325689105 12.260534989930981 5.9000188373332616 0.55919291073839883 0 -0.82903756765294845 0.20725939191323711 0 0.13979822768459971 1 I I -0.70710678118654746 0.70710678118654746 0.25 forward I I I I #
loop $-1 $-1 $155 $41 #
coedge $-1 $97 $97 $156 $157 reversed $61 $-1 #
face $-1 $158 $159 $33 $-1 $160 reversed single #
loop $-1 $-1 $161 $63 #
plane-surface $-1 -25.143822250748244 -14.519044889948287 100.11097791522653 0.71933980857756763 0 0.69465836192734942 0.69465836192734942 0 -0.71933980857756763 forward_v I I I I #
coedge $-1 $162 $163 $164 $165 reversed $64 $-1 #
face $-1 $-1 $166 $34 $-1 $167 forward single #
loop $-1 $168 $169 $66 #
cone-surface $-1 59.375299148498755 -16.930081578545799 8.0592489843147721 -0.71933980857756763 0 -0.69465836192734942 0.34732918096367471 0 -0.35966990428878381 1 I I -0.70710678118654746 0.70710678118654746 0.5 forward I I I I #
loop $-1 $-1 $170 $43 #
coedge $-1 $106 $106 $171 $172 reversed $67 $-1 #
face $-1 $-1 $173 $35 $-1 $174 forward single #
loop $-1 $175 $176 $69 #
cone-surface $-1 59.375299148498755 -12.108008201350774 8.0592489843147721 -0.71933980857756763 0 -0.69465836192734942 0.34732918096367471 0 -0.35966990428878381 1 I I -0.70710678118654746 0.70710678118654746 0.5 forward I I I I #
loop $-1 $-1 $177 $44 #
coedge $-1 $111 $111 $178 $179 reversed $70 $-1 #
face $-1 $180 $181 $27 $-1 $182 reversed single #
loop $-1 $-1 $183 $72 #
plane-surface $-1 0 -30.97461678228418 0 0 1 0 0 0 1 forward_v I I I I #
coedge $-1 $184 $185 $186 $187 forward $73 $-1 #
coedge $-1 $188 $75 $189 $190 forward $46 $-1 #
coedge $-1 $75 $188 $191 $192 forward $46 $-1 #
coedge $-1 $193 $194 $75 $119 reversed $195 $-1 #
edge $-1 $196 -30.97461678228418 $197 30.97461678228418 $118 $198 forward 7 unknown #
face $-1 $199 $200 $28 $-1 $201 reversed single #
loop $-1 $-1 $202 $76 #
plane-surface $-1 0 0 -13.295443284996201 0 0 1 1 0 0 forward_v I I I I #
coedge $-1 $203 $204 $205 $206 reversed $77 $-1 #
coedge $-1 $207 $79 $204 $208 forward $49 $-1 #
coedge $-1 $79 $207 $209 $210 reversed $49 $-1 #
coedge $-1 $211 $205 $79 $127 forward $200 $-1 #
edge $-1 $212 7.3649436769358161 $213 18.194763295877515 $126 $214 forward 7 unknown #
face $-1 $215 $216 $29 $-1 $217 reversed single #
loop $-1 $-1 $134 $80 #
plane-surface $-1 64.584490493484296 0 0 -1 0 0 0 0 1 forward_v I I I I #
coedge $-1 $218 $219 $220 $221 reversed $81 $-1 #
coedge $-1 $222 $83 $223 $224 reversed $52 $-1 #
coedge $-1 $83 $222 $219 $225 forward $52 $-1 #
coedge $-1 $226 $227 $83 $135 forward $129 $-1 #
edge $-1 $228 -18.194763295877515 $229 -7.3649436769358161 $134 $230 forward 7 unknown #
face $-1 $231 $232 $30 $-1 $233 reversed single #
loop $-1 $-1 $234 $84 #
plane-surface $-1 -136.81486894870017 5.6712335993404182 107.66312612244909 0 1 0 -0.55919291073839883 0 0.82903756765294845 forward_v I I I I #
coedge $-1 $235 $236 $237 $238 reversed $85 $-1 #
coedge $-1 $141 $87 $239 $240 reversed $55 $-1 #
coedge $-1 $87 $140 $235 $241 reversed $55 $-1 #
coedge $-1 $237 $242 $87 $143 forward $232 $-1 #
edge $-1 $243 40.53611977622834 $244 53.254374752421803 $142 $245 forward 7 unknown #
loop $-1 $-1 $149 $88 #
plane-surface $-1 -64.584490493484324 10.283744572753811 0.5771883088027181 -0.55919291073839883 0 0.82903756765294845 0.82903756765294845 0 0.55919291073839883 forward_v I I I I #
loop $-1 $-1 $246 $57 #
coedge $-1 $147 $147 $148 $247 reversed $89 $-1 #
coedge $-1 $148 $148 $147 $247 forward $91 $-1 #
coedge $-1 $149 $149 $92 $150 forward $144 $-1 #
edge $-1 $248 0 $248 6.2831853071796004 $149 $249 forward 7 unknown #
loop $-1 $-1 $156 $93 #
plane-surface $-1 -64.584490493484324 10.283744572753811 0.5771883088027181 -0.55919291073839883 0 0.82903756765294845 0.82903756765294845 0 0.55919291073839883 forward_v I I I I #
loop $-1 $-1 $250 $60 #
coedge $-1 $154 $154 $155 $251 reversed $94 $-1 #
coedge $-1 $155 $155 $154 $251 forward $96 $-1 #
coedge $-1 $156 $156 $97 $157 forward $151 $-1 #
edge $-1 $252 0 $252 6.2831853071796004 $156 $253 forward 7 unknown #
face $-1 $254 $255 $33 $-1 $256 forward single #
loop $-1 $-1 $257 $98 #
plane-surface $-1 67.772567806577214 -20.144797163342481 189.83929065945907 0 1 0 0.71933980857756763 0 0.69465836192734942 forward_v I I I I #
coedge $-1 $258 $259 $260 $261 reversed $99 $-1 #
coedge $-1 $163 $101 $262 $263 reversed $64 $-1 #
coedge $-1 $101 $162 $258 $264 reversed $64 $-1 #
coedge $-1 $260 $265 $101 $165 forward $255 $-1 #
edge $-1 $266 -30.698206590195689 $267 -24.806679127365875 $164 $268 forward 7 unknown #
loop $-1 $-1 $171 $102 #
plane-surface $-1 -25.143822250748244 -14.519044889948287 100.11097791522653 0.71933980857756763 0 0.69465836192734942 0.69465836192734942 0 -0.71933980857756763 forward_v I I I I #
loop $-1 $-1 $269 $66 #
coedge $-1 $169 $169 $170 $270 reversed $103 $-1 #
coedge $-1 $170 $170 $169 $270 forward $105 $-1 #
coedge $-1 $171 $171 $106 $172 forward $166 $-1 #
edge $-1 $271 0 $271 6.2831853071796004 $171 $272 forward 7 unknown #
loop $-1 $-1 $178 $107 #
plane-surface $-1 -25.143822250748244 -14.519044889948287 100.11097791522653 0.71933980857756763 0 0.69465836192734942 0.69465836192734942 0 -0.71933980857756763 forward_v I I I I #
loop $-1 $-1 $273 $69 #
coedge $-1 $176 $176 $177 $274 reversed $108 $-1 #
coedge $-1 $177 $177 $176 $274 forward $110 $-1 #
coedge $-1 $178 $178 $111 $179 forward $173 $-1 #
edge $-1 $275 0 $275 6.2831853071796004 $178 $276 forward 7 unknown #
face $-1 $277 $278 $27 $-1 $279 reversed single #
loop $-1 $-1 $280 $112 #
plane-surface $-1 -64.584490493484296 0 0 1 0 0 0 0 -1 forward_v I I I I #
coedge $-1 $281 $191 $282 $283 forward $113 $-1 #
coedge $-1 $284 $115 $281 $285 forward $73 $-1 #
coedge $-1 $115 $284 $286 $287 forward $73 $-1 #
coedge $-1 $194 $193 $115 $187 reversed $195 $-1 #
edge $-1 $288 -30.97461678228418 $289 30.97461678228418 $186 $290 forward 7 unknown #
coedge $-1 $117 $116 $291 $292 forward $46 $-1 #
coedge $-1 $293 $294 $116 $190 reversed $278 $-1 #
edge $-1 $197 -64.584490493484296 $295 64.584490493484296 $189 $296 forward 7 unknown #
coedge $-1 $183 $297 $117 $192 reversed $113 $-1 #
edge $-1 $298 -64.584490493484296 $196 64.584490493484296 $191 $299 forward 7 unknown #
coedge $-1 $186 $118 $297 $300 forward $195 $-1 #
coedge $-1 $118 $186 $293 $301 reversed $195 $-1 #
loop $-1 $-1 $193 $277 #
vertex $-1 $119 $302 #
vertex $-1 $119 $303 #
straight-curve $-1 64.584490493484296 0 13.295443284996201 0 1 0 I I #
face $-1 $304 $305 $28 $-1 $306 reversed single #
loop $-1 $-1 $205 $120 #
plane-surface $-1 64.584490493484296 0 0 -1 0 0 0 0 1 forward_v I I I I #
coedge $-1 $307 $308 $203 $309 forward $121 $-1 #
coedge $-1 $310 $123 $202 $309 reversed $77 $-1 #
coedge $-1 $123 $310 $124 $208 reversed $77 $-1 #
coedge $-1 $126 $311 $123 $206 forward $200 $-1 #
edge $-1 $312 -8.4526307154216003 $212 -1.2329944237275976 $205 $313 forward 7 unknown #
coedge $-1 $125 $124 $314 $315 reversed $49 $-1 #
edge $-1 $212 -64.584490493484296 $316 64.584490493484296 $204 $317 forward 7 unknown #
coedge $-1 $318 $319 $125 $210 forward $305 $-1 #
edge $-1 $213 -64.584490493484296 $320 64.584490493484296 $209 $321 forward 7 unknown #
coedge $-1 $311 $126 $319 $322 forward $200 $-1 #
vertex $-1 $127 $323 #
vertex $-1 $322 $324 #
straight-curve $-1 64.584490493484296 -12.779853486406665 -6.075806993302197 0 -1 0 I I #
face $-1 $325 $326 $29 $-1 $327 reversed single #
loop $-1 $-1 $328 $128 #
plane-surface $-1 0 0 -13.295443284996201 0 0 1 1 0 0 forward_v I I I I #
coedge $-1 $329 $131 $328 $330 reversed $81 $-1 #
coedge $-1 $131 $329 $133 $225 reversed $81 $-1 #
coedge $-1 $331 $332 $131 $221 forward $326 $-1 #
edge $-1 $333 -8.4526307154216003 $334 -1.2329944237275976 $220 $335 forward 7 unknown #
coedge $-1 $133 $132 $331 $336 reversed $52 $-1 #
coedge $-1 $337 $338 $132 $224 forward $339 $-1 #
edge $-1 $340 -64.584490493484296 $228 64.584490493484296 $223 $341 forward 7 unknown #
edge $-1 $334 -64.584490493484296 $229 64.584490493484296 $219 $342 forward 7 unknown #
coedge $-1 $343 $134 $329 $344 forward $129 $-1 #
coedge $-1 $134 $343 $337 $345 reversed $129 $-1 #
vertex $-1 $345 $346 #
vertex $-1 $135 $347 #
straight-curve $-1 64.584490493484296 12.779853486406665 -6.075806993302197 0 -1 0 I I #
face $-1 $-1 $348 $30 $-1 $349 forward single #
loop $-1 $-1 $142 $136 #
plane-surface $-1 -64.584490493484296 0 0 1 0 0 0 0 -1 forward_v I I I I #
coedge $-1 $350 $351 $352 $353 reversed $137 $-1 #
coedge $-1 $354 $139 $141 $241 forward $85 $-1 #
coedge $-1 $139 $354 $350 $355 forward $85 $-1 #
coedge $-1 $352 $142 $139 $238 forward $232 $-1 #
edge $-1 $244 -9.7543832597902984 $356 -0.52936131296351263 $237 $357 forward 7 unknown #
coedge $-1 $358 $359 $140 $240 forward $348 $-1 #
edge $-1 $360 -22.678532039610118 $243 -3.8229439808657872 $239 $361 forward 7 unknown #
edge $-1 $244 3.43030038681855e-014 $360 22.743948880538163 $141 $362 forward 7 unknown #
coedge $-1 $142 $352 $358 $363 reversed $232 $-1 #
vertex $-1 $363 $364 #
vertex $-1 $143 $365 #
straight-curve $-1 -64.584490493484296 14.896255546167204 53.831563061224543 0 0 -1 I I #
coedge $-1 $246 $246 $-1 $366 reversed $146 $-1 #
edge $-1 $367 0 $367 6.2831853071796004 $147 $368 forward 7 unknown #
vertex $-1 $150 $369 #
ellipse-curve $-1 -55.156696464112123 8.3069541555766406 6.936315796899474 -0.55919291073839883 0 0.82903756765294845 0.41451878382647422 0 0.27959645536919941 1 I I #
coedge $-1 $250 $250 $-1 $370 reversed $153 $-1 #
edge $-1 $371 0 $371 6.2831853071796004 $154 $372 forward 7 unknown #
vertex $-1 $157 $373 #
ellipse-curve $-1 -55.156696464112123 12.260534989930981 6.936315796899474 -0.55919291073839883 0 0.82903756765294845 0.41451878382647422 0 0.27959645536919941 1 I I #
face $-1 $-1 $374 $33 $-1 $375 reversed single #
loop $-1 $-1 $164 $158 #
plane-surface $-1 0 0 13.295443284996201 0 0 1 1 0 0 forward_v I I I I #
coedge $-1 $376 $377 $378 $379 reversed $159 $-1 #
coedge $-1 $380 $161 $163 $264 forward $99 $-1 #
coedge $-1 $161 $380 $376 $381 forward $99 $-1 #
coedge $-1 $378 $164 $161 $261 forward $255 $-1 #
edge $-1 $267 1.6337701715799486 $382 12.885274718368338 $260 $383 forward 7 unknown #
coedge $-1 $384 $385 $162 $263 forward $374 $-1 #
edge $-1 $386 -87.725057471828464 $266 -81.624202044733337 $262 $387 forward 7 unknown #
edge $-1 $267 120.68779399530322 $386 129.16898098696859 $163 $388 forward 7 unknown #
coedge $-1 $164 $378 $384 $389 forward $255 $-1 #
vertex $-1 $165 $390 #
vertex $-1 $165 $391 #
straight-curve $-1 33.886283903288607 -8.893292616554092 13.295443284996196 -1 0 0 I I #
coedge $-1 $269 $269 $-1 $392 reversed $168 $-1 #
edge $-1 $393 0 $393 6.2831853071796004 $169 $394 forward 7 unknown #
vertex $-1 $172 $395 #
ellipse-curve $-1 61.638726762069403 -16.930081578545799 10.245015571448636 0.71933980857756763 0 0.69465836192734942 0.69465836192734942 0 -0.71933980857756763 1 I I #
coedge $-1 $273 $273 $-1 $396 reversed $175 $-1 #
edge $-1 $397 0 $397 6.2831853071796004 $176 $398 forward 7 unknown #
vertex $-1 $179 $399 #
ellipse-curve $-1 61.638726762069403 -12.108008201350774 10.245015571448636 0.71933980857756763 0 0.69465836192734942 0.69465836192734942 0 -0.71933980857756763 1 I I #
face $-1 $-1 $195 $27 $-1 $400 reversed single #
loop $-1 $-1 $293 $180 #
plane-surface $-1 0 30.97461678228418 0 0 -1 0 0 0 -1 forward_v I I I I #
coedge $-1 $401 $291 $294 $402 forward $181 $-1 #
coedge $-1 $297 $183 $184 $285 reversed $113 $-1 #
coedge $-1 $291 $401 $183 $283 reversed $181 $-1 #
edge $-1 $298 -13.295443284996201 $403 13.295443284996201 $282 $404 forward 7 unknown #
coedge $-1 $185 $184 $401 $405 forward $73 $-1 #
edge $-1 $289 -64.584490493484296 $403 64.584490493484296 $281 $406 forward 7 unknown #
coedge $-1 $294 $293 $185 $287 reversed $278 $-1 #
edge $-1 $407 -64.584490493484296 $288 64.584490493484296 $286 $408 forward 7 unknown #
vertex $-1 $187 $409 #
vertex $-1 $300 $410 #
straight-curve $-1 64.584490493484296 0 -13.295443284996201 0 -1 0 I I #
coedge $-1 $280 $282 $188 $292 reversed $181 $-1 #
edge $-1 $295 -30.97461678228418 $298 30.97461678228418 $291 $411 forward 7 unknown #
coedge $-1 $286 $189 $194 $301 forward $278 $-1 #
coedge $-1 $189 $286 $280 $402 reversed $278 $-1 #
vertex $-1 $190 $412 #
straight-curve $-1 0 30.97461678228418 13.295443284996201 -1 0 0 I I #
coedge $-1 $191 $281 $193 $300 reversed $113 $-1 #
vertex $-1 $292 $413 #
straight-curve $-1 0 -30.97461678228418 13.295443284996201 1 0 0 I I #
edge $-1 $196 -13.295443284996201 $289 13.295443284996201 $193 $414 forward 7 unknown #
edge $-1 $197 -13.295443284996201 $288 13.295443284996201 $194 $415 forward 7 unknown #
point $-1 64.584490493484296 -30.97461678228418 13.295443284996201 #
point $-1 64.584490493484296 30.97461678228418 13.295443284996201 #
face $-1 $-1 $416 $28 $-1 $417 reversed single #
loop $-1 $-1 $209 $199 #
plane-surface $-1 0 -30.97461678228418 0 0 1 0 0 0 1 forward_v I I I I #
coedge $-1 $418 $202 $311 $419 forward $121 $-1 #
coedge $-1 $202 $418 $420 $421 forward $121 $-1 #
edge $-1 $422 -64.584490493484296 $312 64.584490493484296 $202 $423 forward 7 unknown #
coedge $-1 $204 $203 $424 $425 reversed $77 $-1 #
coedge $-1 $205 $211 $307 $419 reversed $200 $-1 #
vertex $-1 $419 $426 #
straight-curve $-1 64.584490493484296 -20.144797163342481 -4.8428125695745994 0 0 1 I I #
coedge $-1 $424 $427 $207 $315 forward $416 $-1 #
edge $-1 $320 -18.194763295877515 $316 -7.3649436769358161 $314 $428 forward 7 unknown #
vertex $-1 $315 $429 #
straight-curve $-1 0 -20.144797163342481 -6.075806993302197 -1 0 0 I I #
coedge $-1 $430 $209 $427 $431 forward $305 $-1 #
coedge $-1 $209 $430 $211 $322 reversed $305 $-1 #
vertex $-1 $431 $432 #
straight-curve $-1 0 -30.97461678228418 -6.075806993302197 -1 0 0 I I #
edge $-1 $213 6.075806993302197 $433 13.295443284996201 $211 $434 forward 7 unknown #
point $-1 64.584490493484296 -20.144797163342481 -6.075806993302197 #
point $-1 64.584490493484296 -30.97461678228418 -6.075806993302197 #
face $-1 $-1 $339 $29 $-1 $435 reversed single #
loop $-1 $-1 $331 $215 #
plane-surface $-1 -64.584490493484296 0 0 1 0 0 0 0 -1 forward_v I I I I #
coedge $-1 $436 $437 $218 $330 forward $216 $-1 #
coedge $-1 $219 $218 $226 $344 reversed $81 $-1 #
edge $-1 $438 -64.584490493484296 $333 64.584490493484296 $328 $439 forward 7 unknown #
coedge $-1 $440 $220 $222 $336 forward $326 $-1 #
coedge $-1 $220 $440 $436 $441 reversed $326 $-1 #
vertex $-1 $441 $442 #
vertex $-1 $336 $443 #
straight-curve $-1 -64.584490493484296 20.144797163342481 -4.8428125695745994 0 0 1 I I #
edge $-1 $334 7.3649436769358161 $340 18.194763295877515 $331 $444 forward 7 unknown #
coedge $-1 $445 $223 $227 $345 forward $339 $-1 #
coedge $-1 $223 $445 $440 $446 reversed $339 $-1 #
loop $-1 $-1 $223 $325 #
vertex $-1 $446 $447 #
straight-curve $-1 0 30.97461678228418 -6.075806993302197 1 0 0 I I #
straight-curve $-1 0 20.144797163342481 -6.075806993302197 1 0 0 I I #
coedge $-1 $227 $226 $437 $448 reversed $129 $-1 #
edge $-1 $229 1.2329944237275976 $438 8.4526307154216003 $226 $449 forward 7 unknown #
edge $-1 $228 6.075806993302197 $450 13.295443284996201 $227 $451 forward 7 unknown #
point $-1 64.584490493484296 30.97461678228418 -6.075806993302197 #
point $-1 64.584490493484296 20.144797163342481 -6.075806993302197 #
loop $-1 $-1 $239 $231 #
plane-surface $-1 0 0 13.295443284996201 0 0 1 1 0 0 forward_v I I I I #
coedge $-1 $351 $234 $236 $355 reversed $137 $-1 #
coedge $-1 $234 $350 $452 $453 reversed $137 $-1 #
coedge $-1 $242 $237 $234 $353 forward $232 $-1 #
edge $-1 $356 -53.254374752421803 $454 -40.53611977622834 $352 $455 forward 7 unknown #
coedge $-1 $236 $235 $359 $456 reversed $85 $-1 #
edge $-1 $457 -22.743948880538163 $356 -3.43030038681855e-014 $350 $458 forward 7 unknown #
vertex $-1 $238 $459 #
straight-curve $-1 -64.584490493484296 5.1418722863769055 0.57718830880273564 0 -1 0 I I #
coedge $-1 $452 $239 $242 $363 forward $348 $-1 #
coedge $-1 $239 $452 $354 $456 forward $348 $-1 #
vertex $-1 $240 $460 #
straight-curve $-1 -68.407434474350083 14.896255546167204 13.295443284996203 -1 0 0 I I #
straight-curve $-1 -64.584490493484324 14.896255546167204 0.5771883088027181 0.82903756765294845 0 0.55919291073839883 I I #
edge $-1 $243 -14.896255546167204 $454 -5.6712335993404182 $242 $461 forward 7 unknown #
point $-1 -64.584490493484296 14.896255546167204 13.295443284996201 #
point $-1 -64.584490493484296 14.896255546167204 0.5771883088027373 #
edge $-1 $462 1 $462 0 $246 $-1 forward 7 unknown #
vertex $-1 $247 $463 #
ellipse-curve $-1 -54.597503553373706 8.3069541555766406 6.1072782292464991 -0.55919291073839883 0 0.82903756765294845 0.41451878382647422 0 0.27959645536919941 1 I I #
point $-1 -54.742177680285629 8.3069541555766406 7.2159122522686463 #
edge $-1 $464 1 $464 0 $250 $-1 forward 7 unknown #
vertex $-1 $251 $465 #
ellipse-curve $-1 -54.597503553373706 12.260534989930981 6.1072782292464991 -0.55919291073839883 0 0.82903756765294845 0.41451878382647422 0 0.27959645536919941 1 I I #
point $-1 -54.742177680285629 12.260534989930981 7.2159122522686463 #
loop $-1 $-1 $262 $254 #
plane-surface $-1 64.584490493484296 0 0 -1 0 0 0 0 1 forward_v I I I I #
coedge $-1 $377 $257 $259 $381 reversed $159 $-1 #
coedge $-1 $257 $376 $466 $467 reversed $159 $-1 #
coedge $-1 $265 $260 $257 $379 forward $255 $-1 #
edge $-1 $382 24.806679127365875 $468 30.698206590195689 $378 $469 forward 7 unknown #
coedge $-1 $259 $258 $385 $470 reversed $99 $-1 #
edge $-1 $471 -129.16898098696859 $382 -120.68779399530322 $376 $472 forward 7 unknown #
vertex $-1 $261 $473 #
straight-curve $-1 58.692963030654482 -7.2595224449741433 13.295443284996203 0 -1 0 I I #
coedge $-1 $466 $262 $265 $389 reversed $374 $-1 #
coedge $-1 $262 $466 $380 $470 forward $374 $-1 #
vertex $-1 $263 $474 #
straight-curve $-1 64.584490493484296 -8.893292616554092 94.919645329729534 0 0 1 I I #
straight-curve $-1 -25.143822250748244 -8.893292616554092 100.11097791522653 0.69465836192734942 0 -0.71933980857756763 I I #
edge $-1 $468 -20.144797163342481 $266 -8.893292616554092 $384 $475 forward 7 unknown #
point $-1 64.584490493484296 -8.893292616554092 13.295443284996201 #
point $-1 58.692963030654482 -8.893292616554092 13.295443284996196 #
edge $-1 $476 1 $476 0 $269 $-1 forward 7 unknown #
vertex $-1 $270 $477 #
ellipse-curve $-1 59.734969052787541 -16.930081578545799 8.4065781652784466 0.71933980857756763 0 0.69465836192734942 0.69465836192734942 0 -0.71933980857756763 1 I I #
point $-1 62.333385123996727 -16.930081578545799 9.525675762871046 #
edge $-1 $478 1 $478 0 $273 $-1 forward 7 unknown #
vertex $-1 $274 $479 #
ellipse-curve $-1 59.734969052787541 -12.108008201350774 8.4065781652784466 0.71933980857756763 0 0.69465836192734942 0.69465836192734942 0 -0.71933980857756763 1 I I #
point $-1 62.333385123996727 -12.108008201350774 9.525675762871046 #
plane-surface $-1 64.584490493484296 0 0 -1 0 0 0 0 1 forward_v I I I I #
coedge $-1 $282 $280 $284 $405 reversed $181 $-1 #
edge $-1 $295 -13.295443284996201 $407 13.295443284996201 $294 $480 forward 7 unknown #
vertex $-1 $405 $481 #
straight-curve $-1 -64.584490493484296 -30.97461678228418 0 0 0 -1 I I #
edge $-1 $403 -30.97461678228418 $407 30.97461678228418 $401 $482 forward 7 unknown #
straight-curve $-1 0 -30.97461678228418 -13.295443284996201 -1 0 0 I I #
vertex $-1 $287 $483 #
straight-curve $-1 0 30.97461678228418 -13.295443284996201 1 0 0 I I #
point $-1 64.584490493484296 30.97461678228418 -13.295443284996201 #
point $-1 64.584490493484296 -30.97461678228418 -13.295443284996201 #
straight-curve $-1 -64.584490493484296 0 13.295443284996201 0 -1 0 I I #
point $-1 -64.584490493484296 30.97461678228418 13.295443284996201 #
point $-1 -64.584490493484296 -30.97461678228418 13.295443284996201 #
straight-curve $-1 64.584490493484296 -30.97461678228418 0 0 0 -1 I I #
straight-curve $-1 64.584490493484296 30.97461678228418 0 0 0 -1 I I #
loop $-1 $-1 $424 $304 #
plane-surface $-1 -64.584490493484296 0 0 1 0 0 0 0 -1 forward_v I I I I #
coedge $-1 $308 $307 $430 $484 forward $121 $-1 #
edge $-1 $312 20.144797163342481 $433 30.97461678228418 $311 $485 forward 7 unknown #
coedge $-1 $427 $424 $308 $421 reversed $416 $-1 #
edge $-1 $486 -30.97461678228418 $422 -20.144797163342481 $420 $487 forward 7 unknown #
vertex $-1 $425 $488 #
straight-curve $-1 0 -20.144797163342481 -13.295443284996201 1 0 0 I I #
coedge $-1 $420 $314 $310 $425 forward $416 $-1 #
edge $-1 $316 1.2329944237275976 $422 8.4526307154216003 $424 $489 forward 7 unknown #
point $-1 64.584490493484296 -20.144797163342481 -13.2954432849962 #
coedge $-1 $314 $420 $318 $431 reversed $416 $-1 #
straight-curve $-1 -64.584490493484296 -12.779853486406665 -6.075806993302197 0 1 0 I I #
point $-1 -64.584490493484296 -20.144797163342481 -6.075806993302197 #
coedge $-1 $319 $318 $418 $484 reversed $305 $-1 #
edge $-1 $320 6.075806993302197 $486 13.295443284996201 $427 $490 forward 7 unknown #
point $-1 -64.584490493484296 -30.97461678228418 -6.075806993302197 #
vertex $-1 $322 $491 #
straight-curve $-1 64.584490493484296 -30.97461678228418 0 0 0 -1 I I #
plane-surface $-1 0 30.97461678228418 0 0 -1 0 0 0 -1 forward_v I I I I #
coedge $-1 $492 $328 $332 $441 forward $216 $-1 #
coedge $-1 $328 $492 $343 $448 forward $216 $-1 #
vertex $-1 $330 $493 #
straight-curve $-1 0 20.144797163342481 -13.295443284996201 -1 0 0 I I #
coedge $-1 $332 $331 $338 $446 forward $326 $-1 #
edge $-1 $333 20.144797163342481 $494 30.97461678228418 $332 $495 forward 7 unknown #
point $-1 -64.584490493484296 20.144797163342481 -13.2954432849962 #
point $-1 -64.584490493484296 20.144797163342481 -6.075806993302197 #
straight-curve $-1 -64.584490493484296 12.779853486406665 -6.075806993302197 0 1 0 I I #
coedge $-1 $338 $337 $492 $496 reversed $339 $-1 #
edge $-1 $340 6.075806993302197 $494 13.295443284996201 $338 $497 forward 7 unknown #
point $-1 -64.584490493484296 30.97461678228418 -6.075806993302197 #
edge $-1 $450 -30.97461678228418 $438 -20.144797163342481 $343 $498 forward 7 unknown #
straight-curve $-1 64.584490493484296 20.144797163342481 -4.8428125695745994 0 0 -1 I I #
vertex $-1 $448 $499 #
straight-curve $-1 64.584490493484296 30.97461678228418 0 0 0 -1 I I #
coedge $-1 $359 $358 $351 $453 forward $348 $-1 #
edge $-1 $454 3.8229439808657872 $457 22.678532039610118 $452 $500 forward 7 unknown #
vertex $-1 $453 $501 #
straight-curve $-1 -64.584490493484296 5.6712335993404182 53.831563061224543 0 0 1 I I #
edge $-1 $457 0.52936131296351263 $360 9.7543832597902984 $359 $502 forward 7 unknown #
vertex $-1 $456 $503 #
straight-curve $-1 -64.584490493484324 5.6712335993404182 0.5771883088027181 -0.82903756765294845 0 -0.55919291073839883 I I #
point $-1 -64.584490493484296 5.6712335993404182 0.5771883088027373 #
point $-1 -45.728902434739965 14.896255546167204 13.295443284996201 #
straight-curve $-1 -64.584490493484296 0 13.295443284996201 0 -1 0 I I #
vertex $-1 $366 $504 #
point $-1 -54.182984769547232 8.3069541555766406 6.3868746846156981 #
vertex $-1 $370 $505 #
point $-1 -54.182984769547232 12.260534989930981 6.3868746846156981 #
coedge $-1 $385 $384 $377 $467 forward $374 $-1 #
edge $-1 $468 81.624202044733337 $471 87.725057471828464 $466 $506 forward 7 unknown #
vertex $-1 $389 $507 #
straight-curve $-1 33.886283903288607 -20.144797163342481 13.295443284996196 1 0 0 I I #
edge $-1 $471 -12.885274718368338 $386 -1.6337701715799486 $385 $508 forward 7 unknown #
vertex $-1 $470 $509 #
straight-curve $-1 -25.143822250748244 -20.144797163342481 100.11097791522653 -0.69465836192734942 0 0.71933980857756763 I I #
point $-1 58.692963030654482 -20.144797163342481 13.295443284996196 #
point $-1 64.584490493484296 -8.893292616554092 7.1945878579010696 #
straight-curve $-1 64.584490493484296 0 13.295443284996201 0 1 0 I I #
vertex $-1 $392 $510 #
point $-1 60.429627414714886 -16.930081578545799 7.6872383567008793 #
vertex $-1 $396 $511 #
point $-1 60.429627414714886 -12.108008201350774 7.6872383567008793 #
straight-curve $-1 -64.584490493484296 30.97461678228418 0 0 0 -1 I I #
point $-1 -64.584490493484296 -30.97461678228418 -13.295443284996201 #
straight-curve $-1 -64.584490493484296 0 -13.295443284996201 0 1 0 I I #
point $-1 -64.584490493484296 30.97461678228418 -13.295443284996201 #
edge $-1 $433 -64.584490493484296 $486 64.584490493484296 $430 $512 forward 7 unknown #
straight-curve $-1 64.584490493484296 0 -13.295443284996201 0 -1 0 I I #
vertex $-1 $421 $513 #
straight-curve $-1 -64.584490493484296 0 -13.295443284996201 0 1 0 I I #
point $-1 -64.584490493484296 -20.144797163342481 -13.2954432849962 #
straight-curve $-1 -64.584490493484296 -20.144797163342481 -4.8428125695745994 0 0 -1 I I #
straight-curve $-1 -64.584490493484296 -30.97461678228418 0 0 0 -1 I I #
point $-1 64.584490493484296 -30.97461678228418 -13.295443284996201 #
coedge $-1 $437 $436 $445 $496 forward $216 $-1 #
point $-1 64.584490493484296 20.144797163342481 -13.2954432849962 #
vertex $-1 $496 $514 #
straight-curve $-1 -64.584490493484296 0 -13.295443284996201 0 1 0 I I #
edge $-1 $494 -64.584490493484296 $450 64.584490493484296 $445 $515 forward 7 unknown #
straight-curve $-1 -64.584490493484296 30.97461678228418 0 0 0 -1 I I #
straight-curve $-1 64.584490493484296 0 -13.295443284996201 0 -1 0 I I #
point $-1 64.584490493484296 30.97461678228418 -13.295443284996201 #
straight-curve $-1 -68.407434474350083 5.6712335993404182 13.295443284996203 1 0 0 I I #
point $-1 -64.584490493484296 5.6712335993404182 13.295443284996201 #
straight-curve $-1 -45.728902434739965 5.1418722863769055 13.295443284996201 0 1 0 I I #
point $-1 -45.728902434739965 5.6712335993404182 13.295443284996201 #
point $-1 -54.317907098004504 8.3069541555766406 5.6927594454200241 #
point $-1 -54.317907098004504 12.260534989930981 5.6927594454200241 #
straight-curve $-1 64.584490493484296 -20.144797163342481 94.919645329729534 0 0 -1 I I #
point $-1 64.584490493484296 -20.144797163342481 13.295443284996201 #
straight-curve $-1 64.584490493484296 -7.2595224449741433 7.1945878579010838 0 1 0 I I #
point $-1 64.584490493484296 -20.144797163342481 7.1945878579010696 #
point $-1 59.015629244209968 -16.930081578545799 7.7119198033510976 #
point $-1 59.015629244209968 -12.108008201350774 7.7119198033510976 #
straight-curve $-1 0 -30.97461678228418 -13.295443284996201 -1 0 0 I I #
point $-1 -64.584490493484296 -30.97461678228418 -13.295443284996201 #
point $-1 -64.584490493484296 30.97461678228418 -13.295443284996201 #
straight-curve $-1 0 30.97461678228418 -13.295443284996201 1 0 0 I I #
End-of-ACIS-data 