500 0 15 0           
7 Unknown 11 ACIS 5.0 NT 24 Thu Mar 25 15:49:39 1999 
-1 9.9999999999999995e-007 1e-010 
body $-1 $15 $-1 $16 #
body $-1 $17 $-1 $18 #
body $-1 $19 $-1 $20 #
body $-1 $21 $-1 $22 #
body $-1 $23 $-1 $24 #
body $-1 $25 $-1 $26 #
body $-1 $27 $-1 $28 #
body $-1 $29 $-1 $30 #
body $-1 $31 $-1 $32 #
body $-1 $33 $-1 $34 #
body $-1 $35 $-1 $36 #
body $-1 $37 $-1 $38 #
body $-1 $39 $-1 $40 #
body $-1 $41 $-1 $42 #
body $-1 $43 $-1 $44 #
lump $-1 $-1 $45 $0 #
transform $-1 1 0 0 0 1 0 0 0 1 69.653004547257922 27.8669412247773 10.746806323035321 1 rotate no_reflect no_shear #
lump $-1 $-1 $46 $1 #
transform $-1 1 0 0 0 1 0 0 0 1 69.653004547257922 27.8669412247773 10.746806323035321 1 rotate no_reflect no_shear #
lump $-1 $-1 $47 $2 #
transform $-1 1 0 0 0 1 0 0 0 1 69.653004547257922 27.8669412247773 10.746806323035321 1 rotate no_reflect no_shear #
lump $-1 $-1 $48 $3 #
transform $-1 1 0 0 0 1 0 0 0 1 69.653004547257922 27.8669412247773 10.746806323035321 1 rotate no_reflect no_shear #
lump $-1 $-1 $49 $4 #
transform $-1 1 0 0 0 1 0 0 0 1 69.653004547257922 27.8669412247773 10.746806323035321 1 rotate no_reflect no_shear #
lump $-1 $-1 $50 $5 #
transform $-1 1 0 0 0 1 0 0 0 1 69.653004547257922 27.8669412247773 10.746806323035321 1 rotate no_reflect no_shear #
lump $-1 $-1 $51 $6 #
transform $-1 1 0 0 0 1 0 0 0 1 69.653004547257922 27.8669412247773 10.746806323035321 1 rotate no_reflect no_shear #
lump $-1 $-1 $52 $7 #
transform $-1 1 0 0 0 1 0 0 0 1 69.653004547257922 27.8669412247773 10.746806323035321 1 rotate no_reflect no_shear #
lump $-1 $-1 $53 $8 #
transform $-1 1 0 0 0 1 0 0 0 1 69.653004547257922 27.8669412247773 10.746806323035321 1 rotate no_reflect no_shear #
lump $-1 $-1 $54 $9 #
transform $-1 1 0 0 0 1 0 0 0 1 69.653004547257922 27.8669412247773 10.746806323035321 1 rotate no_reflect no_shear #
lump $-1 $-1 $55 $10 #
transform $-1 1 0 0 0 1 0 0 0 1 69.653004547257922 27.8669412247773 10.746806323035321 1 rotate no_reflect no_shear #
lump $-1 $-1 $56 $11 #
transform $-1 1 0 0 0 1 0 0 0 1 69.653004547257922 27.8669412247773 10.746806323035321 1 rotate no_reflect no_shear #
lump $-1 $-1 $57 $12 #
transform $-1 1 0 0 0 1 0 0 0 1 69.653004547257922 27.8669412247773 10.746806323035321 1 rotate no_reflect no_shear #
lump $-1 $-1 $58 $13 #
transform $-1 1 0 0 0 1 0 0 0 1 69.653004547257922 27.8669412247773 10.746806323035321 1 rotate no_reflect no_shear #
lump $-1 $-1 $59 $14 #
transform $-1 1 0 0 0 1 0 0 0 1 69.653004547257922 27.8669412247773 10.746806323035321 1 rotate no_reflect no_shear #
shell $-1 $-1 $-1 $60 $-1 $15 #
shell $-1 $-1 $-1 $61 $-1 $17 #
shell $-1 $-1 $-1 $62 $-1 $19 #
shell $-1 $-1 $-1 $63 $-1 $21 #
shell $-1 $-1 $-1 $64 $-1 $23 #
shell $-1 $-1 $-1 $65 $-1 $25 #
shell $-1 $-1 $-1 $66 $-1 $27 #
shell $-1 $-1 $-1 $67 $-1 $29 #
shell $-1 $-1 $-1 $68 $-1 $31 #
shell $-1 $-1 $-1 $69 $-1 $33 #
shell $-1 $-1 $-1 $70 $-1 $35 #
shell $-1 $-1 $-1 $71 $-1 $37 #
shell $-1 $-1 $-1 $72 $-1 $39 #
shell $-1 $-1 $-1 $73 $-1 $41 #
shell $-1 $-1 $-1 $74 $-1 $43 #
face $-1 $75 $76 $45 $-1 $77 forward single #
face $-1 $78 $79 $46 $-1 $80 forward single #
face $-1 $81 $82 $47 $-1 $83 forward single #
face $-1 $84 $85 $48 $-1 $86 reversed single #
face $-1 $87 $88 $49 $-1 $89 forward single #
face $-1 $90 $91 $50 $-1 $92 forward single #
face $-1 $93 $94 $51 $-1 $95 reversed single #
face $-1 $96 $97 $52 $-1 $98 forward single #
face $-1 $99 $100 $53 $-1 $101 forward single #
face $-1 $102 $103 $54 $-1 $104 reversed single #
face $-1 $105 $106 $55 $-1 $107 forward single #
face $-1 $108 $109 $56 $-1 $110 forward single #
face $-1 $111 $112 $57 $-1 $113 reversed single #
face $-1 $114 $115 $58 $-1 $116 forward single #
face $-1 $117 $118 $59 $-1 $119 forward single #
face $-1 $120 $121 $45 $-1 $122 reversed single #
loop $-1 $-1 $123 $60 #
plane-surface $-1 0 0 10.746806323035321 0 0 1 1 0 0 forward_v I I I I #
face $-1 $124 $125 $46 $-1 $126 reversed single #
loop $-1 $-1 $127 $61 #
plane-surface $-1 -69.653004547257922 0 0 1 0 0 0 0 -1 forward_v I I I I #
face $-1 $128 $129 $47 $-1 $130 forward single #
loop $-1 $-1 $131 $62 #
plane-surface $-1 69.653004547257922 0 0 -1 0 0 0 0 1 forward_v I I I I #
face $-1 $132 $133 $48 $-1 $134 reversed single #
loop $-1 $-1 $135 $63 #
plane-surface $-1 -60.960006812229636 122.68640154544357 122.97166624939226 1 0 0 0 -0.87461971476443456 -0.48480960649040278 forward_v I I I I #
face $-1 $136 $137 $49 $-1 $138 forward single #
loop $-1 $139 $140 $64 #
cone-surface $-1 -55.655025267312098 25.75662054730698 8.1714695916575231 0 -0.87461971476443456 -0.48480960649040278 1 0 0 1 I I 0 1 1 forward I I I I #
face $-1 $141 $142 $50 $-1 $143 forward single #
loop $-1 $144 $145 $65 #
cone-surface $-1 -47.69755294993579 25.75662054730698 8.1714695916575231 0 -0.87461971476443456 -0.48480960649040278 1 0 0 1 I I 0 1 1 forward I I I I #
face $-1 $146 $147 $51 $-1 $148 reversed single #
loop $-1 $-1 $149 $66 #
plane-surface $-1 -30.480003406114818 122.68640154544357 122.97166624939226 1 0 0 0 -0.87461971476443456 -0.48480960649040278 forward_v I I I I #
face $-1 $150 $151 $52 $-1 $152 forward single #
loop $-1 $153 $154 $67 #
cone-surface $-1 -25.17502186119728 25.75662054730698 8.1714695916575231 0 -0.87461971476443456 -0.48480960649040278 1 0 0 1 I I 0 1 1 forward I I I I #
face $-1 $155 $156 $53 $-1 $157 forward single #
loop $-1 $158 $159 $68 #
cone-surface $-1 -17.217549543820972 25.75662054730698 8.1714695916575231 0 -0.87461971476443456 -0.48480960649040278 1 0 0 1 I I 0 1 1 forward I I I I #
face $-1 $160 $161 $54 $-1 $162 reversed single #
loop $-1 $-1 $163 $69 #
plane-surface $-1 -1.7763568394002505e-015 122.68640154544357 122.97166624939226 1 0 0 0 -0.87461971476443456 -0.48480960649040278 forward_v I I I I #
face $-1 $164 $165 $55 $-1 $166 forward single #
loop $-1 $167 $168 $70 #
cone-surface $-1 5.3049815449175384 25.75662054730698 8.1714695916575231 0 -0.87461971476443456 -0.48480960649040278 1 0 0 1 I I 0 1 1 forward I I I I #
face $-1 $169 $170 $56 $-1 $171 forward single #
loop $-1 $172 $173 $71 #
cone-surface $-1 13.262453862293853 25.75662054730698 8.1714695916575231 0 -0.87461971476443456 -0.48480960649040278 1 0 0 1 I I 0 1 1 forward I I I I #
face $-1 $174 $175 $57 $-1 $176 reversed single #
loop $-1 $-1 $177 $72 #
plane-surface $-1 30.480003406114818 122.68640154544357 122.97166624939226 1 0 0 0 -0.87461971476443456 -0.48480960649040278 forward_v I I I I #
face $-1 $178 $179 $58 $-1 $180 forward single #
loop $-1 $181 $182 $73 #
cone-surface $-1 35.784984951032357 25.75662054730698 8.1714695916575231 0 -0.87461971476443456 -0.48480960649040278 1 0 0 1 I I 0 1 1 forward I I I I #
face $-1 $183 $184 $59 $-1 $185 forward single #
loop $-1 $186 $187 $74 #
cone-surface $-1 43.742457268408671 25.75662054730698 8.1714695916575231 0 -0.87461971476443456 -0.48480960649040278 1 0 0 1 I I 0 1 1 forward I I I I #
face $-1 $188 $189 $45 $-1 $190 reversed single #
loop $-1 $-1 $191 $75 #
plane-surface $-1 0 0 -10.746806323035321 0 0 1 1 0 0 forward_v I I I I #
coedge $-1 $192 $193 $194 $195 forward $76 $-1 #
face $-1 $196 $197 $46 $-1 $198 reversed single #
loop $-1 $-1 $199 $78 #
plane-surface $-1 0 27.8669412247773 0 0 -1 0 0 0 -1 forward_v I I I I #
coedge $-1 $200 $201 $202 $203 forward $79 $-1 #
face $-1 $204 $205 $47 $-1 $206 reversed single #
loop $-1 $-1 $207 $81 #
plane-surface $-1 0 0 10.746806323035321 0 0 1 1 0 0 forward_v I I I I #
coedge $-1 $208 $209 $210 $211 forward $82 $-1 #
face $-1 $212 $213 $48 $-1 $214 reversed single #
loop $-1 $-1 $215 $84 #
plane-surface $-1 -51.676289108623948 0.84661960622639754 55.434774798531564 0 0.87461971476443456 0.48480960649040278 1 0 0 forward_v I I I I #
coedge $-1 $216 $217 $218 $219 reversed $85 $-1 #
face $-1 $-1 $220 $49 $-1 $221 forward single #
loop $-1 $222 $223 $87 #
cone-surface $-1 -55.655025267312098 24.333678572630184 7.3827200046584043 0 -0.87461971476443456 -0.48480960649040278 0.5 0 0 1 I I -0.70710678118654746 0.70710678118654746 0.5 forward I I I I #
loop $-1 $-1 $224 $64 #
coedge $-1 $140 $140 $225 $226 reversed $88 $-1 #
face $-1 $-1 $227 $50 $-1 $228 forward single #
loop $-1 $229 $230 $90 #
cone-surface $-1 -47.69755294993579 24.333678572630184 7.3827200046584043 0 -0.87461971476443456 -0.48480960649040278 0.5 0 0 1 I I -0.70710678118654746 0.70710678118654746 0.5 forward I I I I #
loop $-1 $-1 $231 $65 #
coedge $-1 $145 $145 $232 $233 reversed $91 $-1 #
face $-1 $234 $235 $51 $-1 $236 reversed single #
loop $-1 $-1 $237 $93 #
plane-surface $-1 -21.19628570250913 0.84661960622639754 55.434774798531564 0 0.87461971476443456 0.48480960649040278 1 0 0 forward_v I I I I #
coedge $-1 $238 $239 $240 $241 reversed $94 $-1 #
face $-1 $-1 $242 $52 $-1 $243 forward single #
loop $-1 $244 $245 $96 #
cone-surface $-1 -25.17502186119728 24.333678572630184 7.3827200046584043 0 -0.87461971476443456 -0.48480960649040278 0.5 0 0 1 I I -0.70710678118654746 0.70710678118654746 0.5 forward I I I I #
loop $-1 $-1 $246 $67 #
coedge $-1 $154 $154 $247 $248 reversed $97 $-1 #
face $-1 $-1 $249 $53 $-1 $250 forward single #
loop $-1 $251 $252 $99 #
cone-surface $-1 -17.217549543820972 24.333678572630184 7.3827200046584043 0 -0.87461971476443456 -0.48480960649040278 0.5 0 0 1 I I -0.70710678118654746 0.70710678118654746 0.5 forward I I I I #
loop $-1 $-1 $253 $68 #
coedge $-1 $159 $159 $254 $255 reversed $100 $-1 #
face $-1 $256 $257 $54 $-1 $258 reversed single #
loop $-1 $-1 $259 $102 #
plane-surface $-1 9.2837177036056886 0.84661960622639754 55.434774798531564 0 0.87461971476443456 0.48480960649040278 1 0 0 forward_v I I I I #
coedge $-1 $260 $261 $262 $263 reversed $103 $-1 #
face $-1 $-1 $264 $55 $-1 $265 forward single #
loop $-1 $266 $267 $105 #
cone-surface $-1 5.3049815449175384 24.333678572630184 7.3827200046584043 0 -0.87461971476443456 -0.48480960649040278 0.5 0 0 1 I I -0.70710678118654746 0.70710678118654746 0.5 forward I I I I #
loop $-1 $-1 $268 $70 #
coedge $-1 $168 $168 $269 $270 reversed $106 $-1 #
face $-1 $-1 $271 $56 $-1 $272 forward single #
loop $-1 $273 $274 $108 #
cone-surface $-1 13.262453862293853 24.333678572630184 7.3827200046584043 0 -0.87461971476443456 -0.48480960649040278 0.5 0 0 1 I I -0.70710678118654746 0.70710678118654746 0.5 forward I I I I #
loop $-1 $-1 $275 $71 #
coedge $-1 $173 $173 $276 $277 reversed $109 $-1 #
face $-1 $278 $279 $57 $-1 $280 reversed single #
loop $-1 $-1 $281 $111 #
plane-surface $-1 39.763721109720507 0.84661960622639754 55.434774798531564 0 0.87461971476443456 0.48480960649040278 1 0 0 forward_v I I I I #
coedge $-1 $282 $283 $284 $285 reversed $112 $-1 #
face $-1 $-1 $286 $58 $-1 $287 forward single #
loop $-1 $288 $289 $114 #
cone-surface $-1 35.784984951032357 24.333678572630184 7.3827200046584043 0 -0.87461971476443456 -0.48480960649040278 0.5 0 0 1 I I -0.70710678118654746 0.70710678118654746 0.5 forward I I I I #
loop $-1 $-1 $290 $73 #
coedge $-1 $182 $182 $291 $292 reversed $115 $-1 #
face $-1 $-1 $293 $59 $-1 $294 forward single #
loop $-1 $295 $296 $117 #
cone-surface $-1 43.742457268408671 24.333678572630184 7.3827200046584043 0 -0.87461971476443456 -0.48480960649040278 0.5 0 0 1 I I -0.70710678118654746 0.70710678118654746 0.5 forward I I I I #
loop $-1 $-1 $297 $74 #
coedge $-1 $187 $187 $298 $299 reversed $118 $-1 #
face $-1 $300 $301 $45 $-1 $302 reversed single #
loop $-1 $-1 $303 $120 #
plane-surface $-1 0 -27.8669412247773 0 0 1 0 0 0 1 forward_v I I I I #
coedge $-1 $304 $305 $306 $307 forward $121 $-1 #
coedge $-1 $308 $123 $309 $310 forward $76 $-1 #
coedge $-1 $123 $308 $311 $312 forward $76 $-1 #
coedge $-1 $313 $314 $123 $195 reversed $315 $-1 #
edge $-1 $316 -27.8669412247773 $317 27.8669412247773 $194 $318 forward 7 unknown #
face $-1 $319 $320 $46 $-1 $321 reversed single #
loop $-1 $-1 $202 $124 #
plane-surface $-1 -73.999503414772065 0 7.1450338788594934 0 0 1 1 0 0 forward_v I I I I #
coedge $-1 $322 $323 $200 $324 forward $125 $-1 #
coedge $-1 $325 $127 $199 $324 reversed $79 $-1 #
coedge $-1 $127 $325 $326 $327 reversed $79 $-1 #
coedge $-1 $328 $329 $127 $203 reversed $197 $-1 #
edge $-1 $330 -27.8669412247773 $331 27.8669412247773 $202 $332 forward 7 unknown #
face $-1 $333 $334 $47 $-1 $335 reversed single #
loop $-1 $-1 $336 $128 #
plane-surface $-1 0 -27.8669412247773 0 0 1 0 0 0 1 forward_v I I I I #
coedge $-1 $337 $338 $339 $340 forward $129 $-1 #
coedge $-1 $339 $131 $336 $341 reversed $82 $-1 #
coedge $-1 $131 $339 $342 $343 reversed $82 $-1 #
coedge $-1 $344 $345 $131 $211 reversed $334 $-1 #
edge $-1 $346 -27.8669412247773 $347 27.8669412247773 $210 $348 forward 7 unknown #
face $-1 $349 $350 $48 $-1 $351 reversed single #
loop $-1 $-1 $352 $132 #
plane-surface $-1 -42.392571405018259 122.68640154544357 122.97166624939226 -1 0 0 0 0.87461971476443456 0.48480960649040278 forward_v I I I I #
coedge $-1 $353 $354 $355 $356 reversed $133 $-1 #
coedge $-1 $217 $135 $357 $358 reversed $85 $-1 #
coedge $-1 $135 $216 $353 $359 reversed $85 $-1 #
coedge $-1 $355 $360 $135 $219 forward $361 $-1 #
edge $-1 $362 33.476259547944487 $363 35.72563666829592 $218 $364 forward 7 unknown #
loop $-1 $-1 $225 $136 #
plane-surface $-1 -51.676289108623948 0.84661960622639754 55.434774798531564 0 0.87461971476443456 0.48480960649040278 1 0 0 forward_v I I I I #
loop $-1 $-1 $365 $87 #
coedge $-1 $223 $223 $224 $366 reversed $137 $-1 #
coedge $-1 $224 $224 $223 $366 forward $139 $-1 #
coedge $-1 $225 $225 $140 $226 forward $220 $-1 #
edge $-1 $367 3.4859636629917759e-017 $367 6.2831853071796004 $225 $368 forward 7 unknown #
loop $-1 $-1 $232 $141 #
plane-surface $-1 -51.676289108623948 0.84661960622639754 55.434774798531564 0 0.87461971476443456 0.48480960649040278 1 0 0 forward_v I I I I #
loop $-1 $-1 $369 $90 #
coedge $-1 $230 $230 $231 $370 reversed $142 $-1 #
coedge $-1 $231 $231 $230 $370 forward $144 $-1 #
coedge $-1 $232 $232 $145 $233 forward $227 $-1 #
edge $-1 $371 3.4859636629917759e-017 $371 6.2831853071796004 $232 $372 forward 7 unknown #
face $-1 $373 $374 $51 $-1 $375 forward single #
loop $-1 $-1 $376 $146 #
plane-surface $-1 -11.912567998903439 122.68640154544357 122.97166624939226 -1 0 0 0 0.87461971476443456 0.48480960649040278 forward_v I I I I #
coedge $-1 $377 $378 $379 $380 reversed $147 $-1 #
coedge $-1 $239 $149 $381 $382 reversed $94 $-1 #
coedge $-1 $149 $238 $377 $383 reversed $94 $-1 #
coedge $-1 $379 $384 $149 $241 forward $374 $-1 #
edge $-1 $385 33.476259547944487 $386 35.72563666829592 $240 $387 forward 7 unknown #
loop $-1 $-1 $247 $150 #
plane-surface $-1 -21.19628570250913 0.84661960622639754 55.434774798531564 0 0.87461971476443456 0.48480960649040278 1 0 0 forward_v I I I I #
loop $-1 $-1 $388 $96 #
coedge $-1 $245 $245 $246 $389 reversed $151 $-1 #
coedge $-1 $246 $246 $245 $389 forward $153 $-1 #
coedge $-1 $247 $247 $154 $248 forward $242 $-1 #
edge $-1 $390 3.4859636629917759e-017 $390 6.2831853071796004 $247 $391 forward 7 unknown #
loop $-1 $-1 $254 $155 #
plane-surface $-1 -21.19628570250913 0.84661960622639754 55.434774798531564 0 0.87461971476443456 0.48480960649040278 1 0 0 forward_v I I I I #
loop $-1 $-1 $392 $99 #
coedge $-1 $252 $252 $253 $393 reversed $156 $-1 #
coedge $-1 $253 $253 $252 $393 forward $158 $-1 #
coedge $-1 $254 $254 $159 $255 forward $249 $-1 #
edge $-1 $394 3.4859636629917759e-017 $394 6.2831853071796004 $254 $395 forward 7 unknown #
face $-1 $396 $397 $54 $-1 $398 forward single #
loop $-1 $-1 $399 $160 #
plane-surface $-1 18.567435407211377 122.68640154544357 122.97166624939226 -1 0 0 0 0.87461971476443456 0.48480960649040278 forward_v I I I I #
coedge $-1 $400 $401 $402 $403 reversed $161 $-1 #
coedge $-1 $261 $163 $404 $405 reversed $103 $-1 #
coedge $-1 $163 $260 $400 $406 reversed $103 $-1 #
coedge $-1 $402 $407 $163 $263 forward $397 $-1 #
edge $-1 $408 33.476259547944487 $409 35.72563666829592 $262 $410 forward 7 unknown #
loop $-1 $-1 $269 $164 #
plane-surface $-1 9.2837177036056886 0.84661960622639754 55.434774798531564 0 0.87461971476443456 0.48480960649040278 1 0 0 forward_v I I I I #
loop $-1 $-1 $411 $105 #
coedge $-1 $267 $267 $268 $412 reversed $165 $-1 #
coedge $-1 $268 $268 $267 $412 forward $167 $-1 #
coedge $-1 $269 $269 $168 $270 forward $264 $-1 #
edge $-1 $413 3.4859636629917759e-017 $413 6.2831853071796004 $269 $414 forward 7 unknown #
loop $-1 $-1 $276 $169 #
plane-surface $-1 9.2837177036056886 0.84661960622639754 55.434774798531564 0 0.87461971476443456 0.48480960649040278 1 0 0 forward_v I I I I #
loop $-1 $-1 $415 $108 #
coedge $-1 $274 $274 $275 $416 reversed $170 $-1 #
coedge $-1 $275 $275 $274 $416 forward $172 $-1 #
coedge $-1 $276 $276 $173 $277 forward $271 $-1 #
edge $-1 $417 3.4859636629917759e-017 $417 6.2831853071796004 $276 $418 forward 7 unknown #
face $-1 $419 $420 $57 $-1 $421 forward single #
loop $-1 $-1 $422 $174 #
plane-surface $-1 49.047438813326195 122.68640154544357 122.97166624939226 -1 0 0 0 0.87461971476443456 0.48480960649040278 forward_v I I I I #
coedge $-1 $423 $424 $425 $426 reversed $175 $-1 #
coedge $-1 $283 $177 $427 $428 reversed $112 $-1 #
coedge $-1 $177 $282 $423 $429 reversed $112 $-1 #
coedge $-1 $425 $430 $177 $285 forward $420 $-1 #
edge $-1 $431 33.476259547944487 $432 35.72563666829592 $284 $433 forward 7 unknown #
loop $-1 $-1 $291 $178 #
plane-surface $-1 39.763721109720507 0.84661960622639754 55.434774798531564 0 0.87461971476443456 0.48480960649040278 1 0 0 forward_v I I I I #
loop $-1 $-1 $434 $114 #
coedge $-1 $289 $289 $290 $435 reversed $179 $-1 #
coedge $-1 $290 $290 $289 $435 forward $181 $-1 #
coedge $-1 $291 $291 $182 $292 forward $286 $-1 #
edge $-1 $436 3.4859636629917759e-017 $436 6.2831853071796004 $291 $437 forward 7 unknown #
loop $-1 $-1 $298 $183 #
plane-surface $-1 39.763721109720507 0.84661960622639754 55.434774798531564 0 0.87461971476443456 0.48480960649040278 1 0 0 forward_v I I I I #
loop $-1 $-1 $438 $117 #
coedge $-1 $296 $296 $297 $439 reversed $184 $-1 #
coedge $-1 $297 $297 $296 $439 forward $186 $-1 #
coedge $-1 $298 $298 $187 $299 forward $293 $-1 #
edge $-1 $440 3.4859636629917759e-017 $440 6.2831853071796004 $298 $441 forward 7 unknown #
face $-1 $442 $443 $45 $-1 $444 reversed single #
loop $-1 $-1 $445 $188 #
plane-surface $-1 -69.653004547257922 0 0 1 0 0 0 0 -1 forward_v I I I I #
coedge $-1 $446 $311 $447 $448 forward $189 $-1 #
coedge $-1 $449 $191 $446 $450 forward $121 $-1 #
coedge $-1 $191 $449 $451 $452 forward $121 $-1 #
coedge $-1 $314 $313 $191 $307 reversed $315 $-1 #
edge $-1 $453 -27.8669412247773 $454 27.8669412247773 $306 $455 forward 7 unknown #
coedge $-1 $193 $192 $456 $457 forward $76 $-1 #
coedge $-1 $458 $459 $192 $310 reversed $443 $-1 #
edge $-1 $317 -69.653004547257922 $460 69.653004547257922 $309 $461 forward 7 unknown #
coedge $-1 $303 $462 $193 $312 reversed $189 $-1 #
edge $-1 $463 -69.653004547257922 $316 69.653004547257922 $311 $464 forward 7 unknown #
coedge $-1 $306 $194 $462 $465 forward $315 $-1 #
coedge $-1 $194 $306 $458 $466 reversed $315 $-1 #
loop $-1 $-1 $313 $442 #
vertex $-1 $195 $467 #
vertex $-1 $195 $468 #
straight-curve $-1 69.653004547257922 0 10.746806323035321 0 1 0 I I #
face $-1 $469 $470 $46 $-1 $471 forward single #
loop $-1 $-1 $472 $196 #
plane-surface $-1 -78.346002282286207 0 8.9459201009474061 1 0 0 0 0 -1 forward_v I I I I #
coedge $-1 $473 $199 $329 $474 reversed $125 $-1 #
coedge $-1 $199 $473 $475 $476 reversed $125 $-1 #
edge $-1 $477 -10.746806323035321 $331 -7.1450338788594934 $199 $478 forward 7 unknown #
coedge $-1 $201 $200 $479 $480 reversed $79 $-1 #
coedge $-1 $481 $482 $201 $327 forward $483 $-1 #
edge $-1 $330 7.1450338788594934 $484 10.746806323035321 $326 $485 forward 7 unknown #
coedge $-1 $486 $202 $482 $487 forward $197 $-1 #
coedge $-1 $202 $486 $322 $474 forward $197 $-1 #
vertex $-1 $327 $488 #
vertex $-1 $324 $489 #
straight-curve $-1 -69.653004547257922 0 7.1450338788594934 0 1 0 I I #
face $-1 $490 $491 $47 $-1 $492 reversed single #
loop $-1 $-1 $493 $204 #
plane-surface $-1 73.99950341477205 0 7.1450338788594934 0 0 1 1 0 0 forward_v I I I I #
coedge $-1 $494 $495 $208 $341 forward $205 $-1 #
coedge $-1 $496 $207 $495 $497 forward $129 $-1 #
coedge $-1 $207 $496 $498 $499 forward $129 $-1 #
coedge $-1 $209 $208 $207 $340 reversed $82 $-1 #
edge $-1 $500 -27.8669412247773 $501 27.8669412247773 $207 $502 forward 7 unknown #
edge $-1 $501 -10.746806323035321 $347 -7.1450338788594934 $336 $503 forward 7 unknown #
coedge $-1 $498 $504 $209 $343 forward $505 $-1 #
edge $-1 $346 7.1450338788594934 $500 10.746806323035321 $342 $506 forward 7 unknown #
coedge $-1 $493 $210 $504 $507 forward $334 $-1 #
coedge $-1 $210 $493 $494 $508 forward $334 $-1 #
vertex $-1 $343 $509 #
vertex $-1 $341 $510 #
straight-curve $-1 69.653004547257922 0 7.1450338788594934 0 -1 0 I I #
face $-1 $-1 $361 $48 $-1 $511 forward single #
loop $-1 $-1 $512 $212 #
plane-surface $-1 0 27.8669412247773 0 0 -1 0 0 0 -1 forward_v I I I I #
coedge $-1 $513 $514 $515 $516 reversed $213 $-1 #
coedge $-1 $517 $215 $217 $359 forward $133 $-1 #
coedge $-1 $215 $517 $513 $518 forward $133 $-1 #
coedge $-1 $515 $218 $215 $356 forward $361 $-1 #
edge $-1 $363 -35.121862257917662 $519 -16.554426850706285 $355 $520 forward 7 unknown #
coedge $-1 $521 $522 $216 $358 forward $350 $-1 #
edge $-1 $523 -54.797010696908487 $362 -50.739026801660806 $357 $524 forward 7 unknown #
edge $-1 $363 51.094170096008256 $523 55.733882449554542 $217 $525 forward 7 unknown #
coedge $-1 $218 $515 $521 $526 forward $361 $-1 #
loop $-1 $-1 $515 $349 #
vertex $-1 $358 $527 #
vertex $-1 $219 $528 #
straight-curve $-1 -60.960006812229636 61.343200772721787 10.746806323035322 0 -1 0 I I #
coedge $-1 $365 $365 $-1 $529 reversed $222 $-1 #
edge $-1 $530 0 $530 6.2831853071796004 $223 $531 forward 7 unknown #
vertex $-1 $226 $532 #
ellipse-curve $-1 -55.655025267312098 26.742252664601594 8.717814375411459 0 0.87461971476443456 0.48480960649040278 1 0 0 1 I I #
coedge $-1 $369 $369 $-1 $533 reversed $229 $-1 #
edge $-1 $534 0 $534 6.2831853071796004 $230 $535 forward 7 unknown #
vertex $-1 $233 $536 #
ellipse-curve $-1 -47.69755294993579 26.742252664601594 8.717814375411459 0 0.87461971476443456 0.48480960649040278 1 0 0 1 I I #
face $-1 $-1 $537 $51 $-1 $538 reversed single #
loop $-1 $-1 $240 $234 #
plane-surface $-1 0 0 10.746806323035321 0 0 1 1 0 0 forward_v I I I I #
coedge $-1 $539 $540 $541 $542 reversed $235 $-1 #
coedge $-1 $543 $237 $239 $383 forward $147 $-1 #
coedge $-1 $237 $543 $539 $544 forward $147 $-1 #
coedge $-1 $541 $240 $237 $380 forward $374 $-1 #
edge $-1 $386 -19.881860554860253 $545 -1.3144251476488744 $379 $546 forward 7 unknown #
coedge $-1 $547 $548 $238 $382 forward $537 $-1 #
edge $-1 $549 -54.797010696908487 $385 -50.739026801660806 $381 $550 forward 7 unknown #
edge $-1 $386 51.094170096008256 $549 55.733882449554542 $239 $551 forward 7 unknown #
coedge $-1 $240 $541 $547 $552 forward $374 $-1 #
vertex $-1 $241 $553 #
vertex $-1 $241 $554 #
straight-curve $-1 -30.480003406114818 61.343200772721787 10.746806323035322 0 -1 0 I I #
coedge $-1 $388 $388 $-1 $555 reversed $244 $-1 #
edge $-1 $556 0 $556 6.2831853071796004 $245 $557 forward 7 unknown #
vertex $-1 $248 $558 #
ellipse-curve $-1 -25.17502186119728 26.742252664601594 8.717814375411459 0 0.87461971476443456 0.48480960649040278 1 0 0 1 I I #
coedge $-1 $392 $392 $-1 $559 reversed $251 $-1 #
edge $-1 $560 0 $560 6.2831853071796004 $252 $561 forward 7 unknown #
vertex $-1 $255 $562 #
ellipse-curve $-1 -17.217549543820972 26.742252664601594 8.717814375411459 0 0.87461971476443456 0.48480960649040278 1 0 0 1 I I #
face $-1 $-1 $563 $54 $-1 $564 reversed single #
loop $-1 $-1 $262 $256 #
plane-surface $-1 0 0 10.746806323035321 0 0 1 1 0 0 forward_v I I I I #
coedge $-1 $565 $566 $567 $568 reversed $257 $-1 #
coedge $-1 $569 $259 $261 $406 forward $161 $-1 #
coedge $-1 $259 $569 $565 $570 forward $161 $-1 #
coedge $-1 $567 $262 $259 $403 forward $397 $-1 #
edge $-1 $409 -4.6418588518028461 $571 13.925576555408533 $402 $572 forward 7 unknown #
coedge $-1 $573 $574 $260 $405 forward $563 $-1 #
edge $-1 $575 -54.797010696908487 $408 -50.739026801660806 $404 $576 forward 7 unknown #
edge $-1 $409 51.094170096008256 $575 55.733882449554542 $261 $577 forward 7 unknown #
coedge $-1 $262 $567 $573 $578 forward $397 $-1 #
vertex $-1 $263 $579 #
vertex $-1 $263 $580 #
straight-curve $-1 -1.7763568394002505e-015 61.343200772721787 10.746806323035322 0 -1 0 I I #
coedge $-1 $411 $411 $-1 $581 reversed $266 $-1 #
edge $-1 $582 0 $582 6.2831853071796004 $267 $583 forward 7 unknown #
vertex $-1 $270 $584 #
ellipse-curve $-1 5.3049815449175384 26.742252664601594 8.717814375411459 0 0.87461971476443456 0.48480960649040278 1 0 0 1 I I #
coedge $-1 $415 $415 $-1 $585 reversed $273 $-1 #
edge $-1 $586 0 $586 6.2831853071796004 $274 $587 forward 7 unknown #
vertex $-1 $277 $588 #
ellipse-curve $-1 13.262453862293853 26.742252664601594 8.717814375411459 0 0.87461971476443456 0.48480960649040278 1 0 0 1 I I #
face $-1 $-1 $589 $57 $-1 $590 reversed single #
loop $-1 $-1 $284 $278 #
plane-surface $-1 0 0 10.746806323035321 0 0 1 1 0 0 forward_v I I I I #
coedge $-1 $591 $592 $593 $594 reversed $279 $-1 #
coedge $-1 $595 $281 $283 $429 forward $175 $-1 #
coedge $-1 $281 $595 $591 $596 forward $175 $-1 #
coedge $-1 $593 $284 $281 $426 forward $420 $-1 #
edge $-1 $432 10.598142851254565 $597 29.165578258465942 $425 $598 forward 7 unknown #
coedge $-1 $599 $600 $282 $428 forward $589 $-1 #
edge $-1 $601 -54.797010696908487 $431 -50.739026801660806 $427 $602 forward 7 unknown #
edge $-1 $432 51.094170096008256 $601 55.733882449554542 $283 $603 forward 7 unknown #
coedge $-1 $284 $593 $599 $604 forward $420 $-1 #
vertex $-1 $285 $605 #
vertex $-1 $285 $606 #
straight-curve $-1 30.480003406114818 61.343200772721787 10.746806323035322 0 -1 0 I I #
coedge $-1 $434 $434 $-1 $607 reversed $288 $-1 #
edge $-1 $608 0 $608 6.2831853071796004 $289 $609 forward 7 unknown #
vertex $-1 $292 $610 #
ellipse-curve $-1 35.784984951032357 26.742252664601594 8.717814375411459 0 0.87461971476443456 0.48480960649040278 1 0 0 1 I I #
coedge $-1 $438 $438 $-1 $611 reversed $295 $-1 #
edge $-1 $612 0 $612 6.2831853071796004 $296 $613 forward 7 unknown #
vertex $-1 $299 $614 #
ellipse-curve $-1 43.742457268408671 26.742252664601594 8.717814375411459 0 0.87461971476443456 0.48480960649040278 1 0 0 1 I I #
face $-1 $-1 $315 $45 $-1 $615 reversed single #
loop $-1 $-1 $458 $300 #
plane-surface $-1 0 27.8669412247773 0 0 -1 0 0 0 -1 forward_v I I I I #
coedge $-1 $616 $456 $459 $617 forward $301 $-1 #
coedge $-1 $462 $303 $304 $450 reversed $189 $-1 #
coedge $-1 $456 $616 $303 $448 reversed $301 $-1 #
edge $-1 $463 -10.746806323035321 $618 10.746806323035321 $447 $619 forward 7 unknown #
coedge $-1 $305 $304 $616 $620 forward $121 $-1 #
edge $-1 $454 -69.653004547257922 $618 69.653004547257922 $446 $621 forward 7 unknown #
coedge $-1 $459 $458 $305 $452 reversed $443 $-1 #
edge $-1 $622 -69.653004547257922 $453 69.653004547257922 $451 $623 forward 7 unknown #
vertex $-1 $307 $624 #
vertex $-1 $465 $625 #
straight-curve $-1 69.653004547257922 0 -10.746806323035321 0 -1 0 I I #
coedge $-1 $445 $447 $308 $457 reversed $301 $-1 #
edge $-1 $460 -27.8669412247773 $463 27.8669412247773 $456 $626 forward 7 unknown #
coedge $-1 $451 $309 $314 $466 forward $443 $-1 #
coedge $-1 $309 $451 $445 $617 reversed $443 $-1 #
vertex $-1 $310 $627 #
straight-curve $-1 0 27.8669412247773 10.746806323035321 -1 0 0 I I #
coedge $-1 $311 $446 $313 $465 reversed $189 $-1 #
vertex $-1 $457 $628 #
straight-curve $-1 0 -27.8669412247773 10.746806323035321 1 0 0 I I #
edge $-1 $316 -10.746806323035321 $454 10.746806323035321 $313 $629 forward 7 unknown #
edge $-1 $317 -10.746806323035321 $453 10.746806323035321 $314 $630 forward 7 unknown #
point $-1 69.653004547257922 -27.8669412247773 10.746806323035321 #
point $-1 69.653004547257922 27.8669412247773 10.746806323035321 #
face $-1 $-1 $483 $46 $-1 $631 reversed single #
loop $-1 $-1 $479 $319 #
plane-surface $-1 0 0 10.746806323035321 0 0 1 1 0 0 forward_v I I I I #
coedge $-1 $632 $633 $473 $634 forward $320 $-1 #
coedge $-1 $323 $322 $472 $634 reversed $125 $-1 #
edge $-1 $635 -4.3464988675141427 $331 4.3464988675141427 $322 $636 forward 7 unknown #
coedge $-1 $637 $479 $323 $476 forward $470 $-1 #
edge $-1 $477 69.653004547257922 $638 78.346002282286207 $323 $639 forward 7 unknown #
vertex $-1 $476 $640 #
straight-curve $-1 -69.653004547257922 27.8669412247773 0 0 0 -1 I I #
coedge $-1 $475 $641 $325 $480 forward $470 $-1 #
edge $-1 $484 -27.8669412247773 $477 27.8669412247773 $479 $642 forward 7 unknown #
coedge $-1 $643 $326 $641 $644 reversed $483 $-1 #
coedge $-1 $326 $643 $328 $487 reversed $483 $-1 #
loop $-1 $-1 $326 $469 #
vertex $-1 $327 $645 #
straight-curve $-1 -69.653004547257922 -27.8669412247773 0 0 0 1 I I #
coedge $-1 $329 $328 $632 $646 forward $197 $-1 #
edge $-1 $330 -4.3464988675141427 $647 4.3464988675141427 $482 $648 forward 7 unknown #
point $-1 -69.653004547257922 -27.8669412247773 7.1450338788594934 #
point $-1 -69.653004547257922 27.8669412247773 7.1450338788594934 #
face $-1 $-1 $505 $47 $-1 $649 reversed single #
loop $-1 $-1 $650 $333 #
plane-surface $-1 78.346002282286193 0 8.9459201009474061 -1 0 0 0 0 1 forward_v I I I I #
coedge $-1 $345 $344 $651 $652 forward $334 $-1 #
coedge $-1 $653 $336 $345 $508 reversed $205 $-1 #
coedge $-1 $336 $653 $337 $497 reversed $205 $-1 #
coedge $-1 $338 $337 $654 $655 forward $129 $-1 #
edge $-1 $501 -4.3464988675141285 $656 4.3464988675141427 $495 $657 forward 7 unknown #
coedge $-1 $658 $342 $338 $499 reversed $505 $-1 #
edge $-1 $659 -78.346002282286193 $500 -69.653004547257922 $498 $660 forward 7 unknown #
vertex $-1 $343 $661 #
vertex $-1 $497 $662 #
straight-curve $-1 69.653004547257922 0 10.746806323035321 0 -1 0 I I #
straight-curve $-1 69.653004547257922 -27.8669412247773 0 0 0 -1 I I #
coedge $-1 $342 $658 $344 $507 reversed $505 $-1 #
loop $-1 $-1 $342 $490 #
straight-curve $-1 69.653004547257922 27.8669412247773 0 0 0 1 I I #
edge $-1 $346 -4.3464988675141427 $663 4.3464988675141427 $504 $664 forward 7 unknown #
edge $-1 $665 -4.3464988675141427 $347 4.3464988675141427 $494 $666 forward 7 unknown #
point $-1 69.653004547257908 27.8669412247773 7.1450338788594934 #
point $-1 69.653004547257908 -27.8669412247773 7.1450338788594934 #
plane-surface $-1 0 0 10.746806323035321 0 0 1 1 0 0 forward_v I I I I #
coedge $-1 $522 $521 $514 $667 forward $350 $-1 #
coedge $-1 $514 $352 $354 $518 reversed $213 $-1 #
coedge $-1 $352 $513 $512 $667 reversed $213 $-1 #
coedge $-1 $360 $355 $352 $516 forward $361 $-1 #
edge $-1 $519 -35.72563666829592 $668 -33.476259547944487 $515 $669 forward 7 unknown #
coedge $-1 $354 $353 $522 $670 reversed $133 $-1 #
edge $-1 $671 -55.733882449554542 $519 -51.094170096008256 $513 $672 forward 7 unknown #
vertex $-1 $356 $673 #
straight-curve $-1 -25.838144554311974 25.617564104425863 10.746806323035326 1 0 0 I I #
coedge $-1 $512 $357 $360 $526 reversed $350 $-1 #
coedge $-1 $357 $512 $517 $670 forward $350 $-1 #
vertex $-1 $358 $674 #
straight-curve $-1 -60.960006812229636 27.8669412247773 61.485833124696128 0 0 1 I I #
straight-curve $-1 -60.960006812229636 0.84661960622639754 55.434774798531564 0 0.48480960649040278 -0.87461971476443456 I I #
edge $-1 $668 42.392571405018259 $362 60.960006812229636 $521 $675 forward 7 unknown #
point $-1 -60.960006812229636 27.8669412247773 10.746806323035321 #
point $-1 -60.960006812229636 25.617564104425867 10.746806323035322 #
edge $-1 $676 1 $676 0 $365 $-1 forward 7 unknown #
vertex $-1 $366 $677 #
ellipse-curve $-1 -55.655025267312098 24.770988430012402 7.6251248079036058 0 0.87461971476443456 0.48480960649040278 1 0 0 1 I I #
point $-1 -54.655025267312098 26.742252664601562 8.7178143754114412 #
edge $-1 $678 1 $678 0 $369 $-1 forward 7 unknown #
vertex $-1 $370 $679 #
ellipse-curve $-1 -47.69755294993579 24.770988430012402 7.6251248079036058 0 0.87461971476443456 0.48480960649040278 1 0 0 1 I I #
point $-1 -46.69755294993579 26.742252664601562 8.7178143754114412 #
loop $-1 $-1 $381 $373 #
plane-surface $-1 0 27.8669412247773 0 0 -1 0 0 0 -1 forward_v I I I I #
coedge $-1 $540 $376 $378 $544 reversed $235 $-1 #
coedge $-1 $376 $539 $680 $681 reversed $235 $-1 #
coedge $-1 $384 $379 $376 $542 forward $374 $-1 #
edge $-1 $545 -35.72563666829592 $682 -33.476259547944487 $541 $683 forward 7 unknown #
coedge $-1 $378 $377 $548 $684 reversed $147 $-1 #
edge $-1 $685 -55.733882449554542 $545 -51.094170096008256 $539 $686 forward 7 unknown #
vertex $-1 $380 $687 #
straight-curve $-1 -10.598142851254565 25.617564104425863 10.746806323035326 1 0 0 I I #
coedge $-1 $680 $381 $384 $552 reversed $537 $-1 #
coedge $-1 $381 $680 $543 $684 forward $537 $-1 #
vertex $-1 $382 $688 #
straight-curve $-1 -30.480003406114818 27.8669412247773 61.485833124696128 0 0 1 I I #
straight-curve $-1 -30.480003406114818 0.84661960622639754 55.434774798531564 0 0.48480960649040278 -0.87461971476443456 I I #
edge $-1 $682 11.912567998903439 $385 30.480003406114818 $547 $689 forward 7 unknown #
point $-1 -30.480003406114818 27.8669412247773 10.746806323035321 #
point $-1 -30.480003406114818 25.617564104425867 10.746806323035322 #
edge $-1 $690 1 $690 0 $388 $-1 forward 7 unknown #
vertex $-1 $389 $691 #
ellipse-curve $-1 -25.17502186119728 24.770988430012402 7.6251248079036058 0 0.87461971476443456 0.48480960649040278 1 0 0 1 I I #
point $-1 -24.17502186119728 26.742252664601562 8.7178143754114412 #
edge $-1 $692 1 $692 0 $392 $-1 forward 7 unknown #
vertex $-1 $393 $693 #
ellipse-curve $-1 -17.217549543820972 24.770988430012402 7.6251248079036058 0 0.87461971476443456 0.48480960649040278 1 0 0 1 I I #
point $-1 -16.217549543820972 26.742252664601562 8.7178143754114412 #
loop $-1 $-1 $404 $396 #
plane-surface $-1 0 27.8669412247773 0 0 -1 0 0 0 -1 forward_v I I I I #
coedge $-1 $566 $399 $401 $570 reversed $257 $-1 #
coedge $-1 $399 $565 $694 $695 reversed $257 $-1 #
coedge $-1 $407 $402 $399 $568 forward $397 $-1 #
edge $-1 $571 -35.72563666829592 $696 -33.476259547944487 $567 $697 forward 7 unknown #
coedge $-1 $401 $400 $574 $698 reversed $161 $-1 #
edge $-1 $699 -55.733882449554542 $571 -51.094170096008256 $565 $700 forward 7 unknown #
vertex $-1 $403 $701 #
straight-curve $-1 4.6418588518028443 25.617564104425863 10.746806323035326 1 0 0 I I #
coedge $-1 $694 $404 $407 $578 reversed $563 $-1 #
coedge $-1 $404 $694 $569 $698 forward $563 $-1 #
vertex $-1 $405 $702 #
straight-curve $-1 -1.7763568394002505e-015 27.8669412247773 61.485833124696128 0 0 1 I I #
straight-curve $-1 -1.7763568394002505e-015 0.84661960622639754 55.434774798531564 0 0.48480960649040278 -0.87461971476443456 I I #
edge $-1 $696 -18.567435407211377 $408 1.7763568394002505e-015 $573 $703 forward 7 unknown #
point $-1 -1.7763568394002505e-015 27.8669412247773 10.746806323035321 #
point $-1 -1.7763568394002505e-015 25.617564104425867 10.746806323035322 #
edge $-1 $704 1 $704 0 $411 $-1 forward 7 unknown #
vertex $-1 $412 $705 #
ellipse-curve $-1 5.3049815449175384 24.770988430012402 7.6251248079036058 0 0.87461971476443456 0.48480960649040278 1 0 0 1 I I #
point $-1 6.3049815449175384 26.742252664601562 8.7178143754114412 #
edge $-1 $706 1 $706 0 $415 $-1 forward 7 unknown #
vertex $-1 $416 $707 #
ellipse-curve $-1 13.262453862293853 24.770988430012402 7.6251248079036058 0 0.87461971476443456 0.48480960649040278 1 0 0 1 I I #
point $-1 14.262453862293853 26.742252664601562 8.7178143754114412 #
loop $-1 $-1 $427 $419 #
plane-surface $-1 0 27.8669412247773 0 0 -1 0 0 0 -1 forward_v I I I I #
coedge $-1 $592 $422 $424 $596 reversed $279 $-1 #
coedge $-1 $422 $591 $708 $709 reversed $279 $-1 #
coedge $-1 $430 $425 $422 $594 forward $420 $-1 #
edge $-1 $597 -35.72563666829592 $710 -33.476259547944487 $593 $711 forward 7 unknown #
coedge $-1 $424 $423 $600 $712 reversed $175 $-1 #
edge $-1 $713 -55.733882449554542 $597 -51.094170096008256 $591 $714 forward 7 unknown #
vertex $-1 $426 $715 #
straight-curve $-1 19.881860554860253 25.617564104425863 10.746806323035326 1 0 0 I I #
coedge $-1 $708 $427 $430 $604 reversed $589 $-1 #
coedge $-1 $427 $708 $595 $712 forward $589 $-1 #
vertex $-1 $428 $716 #
straight-curve $-1 30.480003406114818 27.8669412247773 61.485833124696128 0 0 1 I I #
straight-curve $-1 30.480003406114818 0.84661960622639754 55.434774798531564 0 0.48480960649040278 -0.87461971476443456 I I #
edge $-1 $710 -49.047438813326195 $431 -30.480003406114818 $599 $717 forward 7 unknown #
point $-1 30.480003406114818 27.8669412247773 10.746806323035321 #
point $-1 30.480003406114818 25.617564104425867 10.746806323035322 #
edge $-1 $718 1 $718 0 $434 $-1 forward 7 unknown #
vertex $-1 $435 $719 #
ellipse-curve $-1 35.784984951032357 24.770988430012402 7.6251248079036058 0 0.87461971476443456 0.48480960649040278 1 0 0 1 I I #
point $-1 36.784984951032357 26.742252664601562 8.7178143754114412 #
edge $-1 $720 1 $720 0 $438 $-1 forward 7 unknown #
vertex $-1 $439 $721 #
ellipse-curve $-1 43.742457268408671 24.770988430012402 7.6251248079036058 0 0.87461971476443456 0.48480960649040278 1 0 0 1 I I #
point $-1 44.742457268408671 26.742252664601562 8.7178143754114412 #
plane-surface $-1 69.653004547257922 0 0 -1 0 0 0 0 1 forward_v I I I I #
coedge $-1 $447 $445 $449 $620 reversed $301 $-1 #
edge $-1 $460 -10.746806323035321 $622 10.746806323035321 $459 $722 forward 7 unknown #
vertex $-1 $620 $723 #
straight-curve $-1 -69.653004547257922 -27.8669412247773 0 0 0 -1 I I #
edge $-1 $618 -27.8669412247773 $622 27.8669412247773 $616 $724 forward 7 unknown #
straight-curve $-1 0 -27.8669412247773 -10.746806323035321 -1 0 0 I I #
vertex $-1 $452 $725 #
straight-curve $-1 0 27.8669412247773 -10.746806323035321 1 0 0 I I #
point $-1 69.653004547257922 27.8669412247773 -10.746806323035321 #
point $-1 69.653004547257922 -27.8669412247773 -10.746806323035321 #
straight-curve $-1 -69.653004547257922 0 10.746806323035321 0 -1 0 I I #
point $-1 -69.653004547257922 27.8669412247773 10.746806323035321 #
point $-1 -69.653004547257922 -27.8669412247773 10.746806323035321 #
straight-curve $-1 69.653004547257922 -27.8669412247773 0 0 0 -1 I I #
straight-curve $-1 69.653004547257922 27.8669412247773 0 0 0 -1 I I #
plane-surface $-1 0 -27.8669412247773 0 0 1 0 0 0 1 forward_v I I I I #
coedge $-1 $726 $472 $486 $646 reversed $320 $-1 #
coedge $-1 $472 $726 $637 $727 reversed $320 $-1 #
edge $-1 $638 -1.8008862220879127 $635 1.8008862220879127 $473 $728 forward 7 unknown #
vertex $-1 $474 $729 #
straight-curve $-1 -73.999503414772065 27.8669412247773 7.1450338788594934 1 0 0 I I #
coedge $-1 $641 $475 $633 $727 forward $470 $-1 #
vertex $-1 $476 $730 #
straight-curve $-1 0 27.8669412247773 10.746806323035321 -1 0 0 I I #
point $-1 -69.653004547257922 27.8669412247773 10.746806323035321 #
coedge $-1 $479 $637 $481 $644 forward $470 $-1 #
straight-curve $-1 -69.653004547257922 0 10.746806323035321 0 1 0 I I #
coedge $-1 $482 $481 $726 $731 forward $483 $-1 #
edge $-1 $732 -78.346002282286207 $484 -69.653004547257922 $481 $733 forward 7 unknown #
point $-1 -69.653004547257922 -27.8669412247773 10.746806323035321 #
edge $-1 $647 -27.8669412247773 $635 27.8669412247773 $632 $734 forward 7 unknown #
vertex $-1 $646 $735 #
straight-curve $-1 -73.999503414772065 -27.8669412247773 7.1450338788594934 -1 0 0 I I #
plane-surface $-1 0 27.8669412247773 0 0 -1 0 0 0 -1 forward_v I I I I #
coedge $-1 $651 $654 $653 $736 forward $491 $-1 #
coedge $-1 $737 $650 $493 $652 reversed $491 $-1 #
edge $-1 $663 -27.8669412247773 $665 27.8669412247773 $651 $738 forward 7 unknown #
coedge $-1 $495 $494 $650 $736 reversed $205 $-1 #
coedge $-1 $650 $737 $496 $655 reversed $491 $-1 #
edge $-1 $656 -27.8669412247773 $659 27.8669412247773 $654 $739 forward 7 unknown #
vertex $-1 $655 $740 #
straight-curve $-1 73.99950341477205 -27.8669412247773 10.746806323035319 1 0 0 I I #
coedge $-1 $504 $498 $737 $741 forward $505 $-1 #
vertex $-1 $655 $742 #
straight-curve $-1 0 27.8669412247773 10.746806323035321 -1 0 0 I I #
point $-1 69.653004547257922 27.8669412247773 10.746806323035321 #
point $-1 69.653004547257922 -27.8669412247773 10.746806323035321 #
vertex $-1 $652 $743 #
straight-curve $-1 73.99950341477205 27.8669412247773 7.1450338788594934 1 0 0 I I #
vertex $-1 $736 $744 #
straight-curve $-1 73.99950341477205 -27.8669412247773 7.1450338788594934 -1 0 0 I I #
edge $-1 $668 50.739026801660806 $671 54.797010696908487 $512 $745 forward 7 unknown #
vertex $-1 $526 $746 #
straight-curve $-1 -42.392571405018259 61.343200772721787 10.746806323035322 0 1 0 I I #
edge $-1 $671 16.554426850706285 $523 35.121862257917662 $522 $747 forward 7 unknown #
vertex $-1 $670 $748 #
straight-curve $-1 -42.392571405018259 0.84661960622639754 55.434774798531564 0 -0.48480960649040278 0.87461971476443456 I I #
point $-1 -42.392571405018259 25.617564104425867 10.746806323035322 #
point $-1 -60.960006812229636 27.8669412247773 6.6888224277876418 #
straight-curve $-1 0 27.8669412247773 10.746806323035321 -1 0 0 I I #
vertex $-1 $529 $749 #
point $-1 -54.655025267312098 24.770988430012402 7.6251248079036058 #
vertex $-1 $533 $750 #
point $-1 -46.69755294993579 24.770988430012402 7.6251248079036058 #
coedge $-1 $548 $547 $540 $681 forward $537 $-1 #
edge $-1 $682 50.739026801660806 $685 54.797010696908487 $680 $751 forward 7 unknown #
vertex $-1 $552 $752 #
straight-curve $-1 -11.912567998903439 61.343200772721787 10.746806323035322 0 1 0 I I #
edge $-1 $685 1.3144251476488744 $549 19.881860554860253 $548 $753 forward 7 unknown #
vertex $-1 $684 $754 #
straight-curve $-1 -11.912567998903439 0.84661960622639754 55.434774798531564 0 -0.48480960649040278 0.87461971476443456 I I #
point $-1 -11.912567998903439 25.617564104425867 10.746806323035322 #
point $-1 -30.480003406114818 27.8669412247773 6.6888224277876418 #
straight-curve $-1 0 27.8669412247773 10.746806323035321 -1 0 0 I I #
vertex $-1 $555 $755 #
point $-1 -24.17502186119728 24.770988430012402 7.6251248079036058 #
vertex $-1 $559 $756 #
point $-1 -16.217549543820972 24.770988430012402 7.6251248079036058 #
coedge $-1 $574 $573 $566 $695 forward $563 $-1 #
edge $-1 $696 50.739026801660806 $699 54.797010696908487 $694 $757 forward 7 unknown #
vertex $-1 $578 $758 #
straight-curve $-1 18.567435407211377 61.343200772721787 10.746806323035322 0 1 0 I I #
edge $-1 $699 -13.925576555408533 $575 4.6418588518028461 $574 $759 forward 7 unknown #
vertex $-1 $698 $760 #
straight-curve $-1 18.567435407211377 0.84661960622639754 55.434774798531564 0 -0.48480960649040278 0.87461971476443456 I I #
point $-1 18.567435407211377 25.617564104425867 10.746806323035322 #
point $-1 -1.7763568394002505e-015 27.8669412247773 6.6888224277876418 #
straight-curve $-1 0 27.8669412247773 10.746806323035321 -1 0 0 I I #
vertex $-1 $581 $761 #
point $-1 6.3049815449175384 24.770988430012402 7.6251248079036058 #
vertex $-1 $585 $762 #
point $-1 14.262453862293853 24.770988430012402 7.6251248079036058 #
coedge $-1 $600 $599 $592 $709 forward $589 $-1 #
edge $-1 $710 50.739026801660806 $713 54.797010696908487 $708 $763 forward 7 unknown #
vertex $-1 $604 $764 #
straight-curve $-1 49.047438813326195 61.343200772721787 10.746806323035322 0 1 0 I I #
edge $-1 $713 -29.165578258465942 $601 -10.598142851254565 $600 $765 forward 7 unknown #
vertex $-1 $712 $766 #
straight-curve $-1 49.047438813326195 0.84661960622639754 55.434774798531564 0 -0.48480960649040278 0.87461971476443456 I I #
point $-1 49.047438813326195 25.617564104425867 10.746806323035322 #
point $-1 30.480003406114818 27.8669412247773 6.6888224277876418 #
straight-curve $-1 0 27.8669412247773 10.746806323035321 -1 0 0 I I #
vertex $-1 $607 $767 #
point $-1 36.784984951032357 24.770988430012402 7.6251248079036058 #
vertex $-1 $611 $768 #
point $-1 44.742457268408671 24.770988430012402 7.6251248079036058 #
straight-curve $-1 -69.653004547257922 27.8669412247773 0 0 0 -1 I I #
point $-1 -69.653004547257922 -27.8669412247773 -10.746806323035321 #
straight-curve $-1 -69.653004547257922 0 -10.746806323035321 0 1 0 I I #
point $-1 -69.653004547257922 27.8669412247773 -10.746806323035321 #
coedge $-1 $633 $632 $643 $731 reversed $320 $-1 #
edge $-1 $638 -27.8669412247773 $732 27.8669412247773 $633 $769 forward 7 unknown #
straight-curve $-1 -78.346002282286207 27.8669412247773 8.9459201009474061 0 0 -1 I I #
point $-1 -78.346002282286207 27.8669412247773 7.1450338788594934 #
point $-1 -78.346002282286207 27.8669412247773 10.746806323035319 #
edge $-1 $732 -1.8008862220879127 $647 1.8008862220879127 $726 $770 forward 7 unknown #
vertex $-1 $727 $771 #
straight-curve $-1 0 -27.8669412247773 10.746806323035321 1 0 0 I I #
straight-curve $-1 -78.346002282286207 0 7.1450338788594934 0 1 0 I I #
point $-1 -78.346002282286207 -27.8669412247773 7.1450338788594934 #
edge $-1 $656 -1.8008862220879127 $665 1.8008862220879127 $650 $772 forward 7 unknown #
coedge $-1 $654 $651 $658 $741 reversed $491 $-1 #
straight-curve $-1 78.346002282286193 0 7.1450338788594934 0 -1 0 I I #
straight-curve $-1 78.346002282286193 0 10.746806323035319 0 1 0 I I #
point $-1 78.346002282286193 -27.8669412247773 10.746806323035319 #
edge $-1 $659 -1.8008862220879127 $663 1.8008862220879127 $737 $773 forward 7 unknown #
point $-1 78.346002282286193 27.8669412247773 10.746806323035319 #
point $-1 78.346002282286193 27.8669412247773 7.1450338788594934 #
point $-1 78.346002282286193 -27.8669412247773 7.1450338788594934 #
straight-curve $-1 -42.392571405018259 27.8669412247773 61.485833124696128 0 0 -1 I I #
point $-1 -42.392571405018259 27.8669412247773 10.746806323035321 #
straight-curve $-1 -25.838144554311974 27.8669412247773 6.6888224277876525 -1 0 0 I I #
point $-1 -42.392571405018259 27.8669412247773 6.6888224277876418 #
point $-1 -55.655025267312098 23.896368715247966 7.1403152014132028 #
point $-1 -47.69755294993579 23.896368715247966 7.1403152014132028 #
straight-curve $-1 -11.912567998903439 27.8669412247773 61.485833124696128 0 0 -1 I I #
point $-1 -11.912567998903439 27.8669412247773 10.746806323035321 #
straight-curve $-1 -10.598142851254565 27.8669412247773 6.6888224277876525 -1 0 0 I I #
point $-1 -11.912567998903439 27.8669412247773 6.6888224277876418 #
point $-1 -25.17502186119728 23.896368715247966 7.1403152014132028 #
point $-1 -17.217549543820972 23.896368715247966 7.1403152014132028 #
straight-curve $-1 18.567435407211377 27.8669412247773 61.485833124696128 0 0 -1 I I #
point $-1 18.567435407211377 27.8669412247773 10.746806323035321 #
straight-curve $-1 4.6418588518028443 27.8669412247773 6.6888224277876525 -1 0 0 I I #
point $-1 18.567435407211377 27.8669412247773 6.6888224277876418 #
point $-1 5.3049815449175384 23.896368715247966 7.1403152014132028 #
point $-1 13.262453862293853 23.896368715247966 7.1403152014132028 #
straight-curve $-1 49.047438813326195 27.8669412247773 61.485833124696128 0 0 -1 I I #
point $-1 49.047438813326195 27.8669412247773 10.746806323035321 #
straight-curve $-1 19.881860554860253 27.8669412247773 6.6888224277876525 -1 0 0 I I #
point $-1 49.047438813326195 27.8669412247773 6.6888224277876418 #
point $-1 35.784984951032357 23.896368715247966 7.1403152014132028 #
point $-1 43.742457268408671 23.896368715247966 7.1403152014132028 #
straight-curve $-1 -78.346002282286207 0 10.746806323035319 0 -1 0 I I #
straight-curve $-1 -78.346002282286207 -27.8669412247773 8.9459201009474061 0 0 -1 I I #
point $-1 -78.346002282286207 -27.8669412247773 10.746806323035319 #
straight-curve $-1 78.346002282286193 -27.8669412247773 8.9459201009474061 0 0 -1 I I #
straight-curve $-1 78.346002282286193 27.8669412247773 8.9459201009474061 0 0 -1 I I #
End-of-ACIS-data 