500 0 10 0           
7 Unknown 11 ACIS 5.0 NT 24 Fri Mar 26 17:41:52 1999 
-1 9.9999999999999995e-007 1e-010 
body $-1 $10 $-1 $11 #
body $-1 $12 $-1 $13 #
body $-1 $14 $-1 $15 #
body $-1 $16 $-1 $17 #
body $-1 $18 $-1 $19 #
body $-1 $20 $-1 $21 #
body $-1 $22 $-1 $23 #
body $-1 $24 $-1 $25 #
body $-1 $26 $-1 $27 #
body $-1 $28 $-1 $29 #
lump $-1 $-1 $30 $0 #
transform $-1 1 0 0 0 1 0 0 0 1 61.571703238013853 36.378923144869781 9.0447149017093604 1 rotate no_reflect no_shear #
lump $-1 $-1 $31 $1 #
transform $-1 1 0 0 0 1 0 0 0 1 61.571703238013853 36.378923144869781 9.0447149017093604 1 rotate no_reflect no_shear #
lump $-1 $-1 $32 $2 #
transform $-1 1 0 0 0 1 0 0 0 1 61.571703238013853 36.378923144869781 9.0447149017093604 1 rotate no_reflect no_shear #
lump $-1 $-1 $33 $3 #
transform $-1 1 0 0 0 1 0 0 0 1 61.571703238013853 36.378923144869781 9.0447149017093604 1 rotate no_reflect no_shear #
lump $-1 $-1 $34 $4 #
transform $-1 1 0 0 0 1 0 0 0 1 61.571703238013853 36.378923144869781 9.0447149017093604 1 rotate no_reflect no_shear #
lump $-1 $-1 $35 $5 #
transform $-1 1 0 0 0 1 0 0 0 1 61.571703238013853 36.378923144869781 9.0447149017093604 1 rotate no_reflect no_shear #
lump $-1 $-1 $36 $6 #
transform $-1 1 0 0 0 1 0 0 0 1 61.571703238013853 36.378923144869781 9.0447149017093604 1 rotate no_reflect no_shear #
lump $-1 $-1 $37 $7 #
transform $-1 1 0 0 0 1 0 0 0 1 61.571703238013853 36.378923144869781 9.0447149017093604 1 rotate no_reflect no_shear #
lump $-1 $-1 $38 $8 #
transform $-1 1 0 0 0 1 0 0 0 1 61.571703238013853 36.378923144869781 9.0447149017093604 1 rotate no_reflect no_shear #
lump $-1 $-1 $39 $9 #
transform $-1 1 0 0 0 1 0 0 0 1 61.571703238013853 36.378923144869781 9.0447149017093604 1 rotate no_reflect no_shear #
shell $-1 $-1 $-1 $40 $-1 $10 #
shell $-1 $-1 $-1 $41 $-1 $12 #
shell $-1 $-1 $-1 $42 $-1 $14 #
shell $-1 $-1 $-1 $43 $-1 $16 #
shell $-1 $-1 $-1 $44 $-1 $18 #
shell $-1 $-1 $-1 $45 $-1 $20 #
shell $-1 $-1 $-1 $46 $-1 $22 #
shell $-1 $-1 $-1 $47 $-1 $24 #
shell $-1 $-1 $-1 $48 $-1 $26 #
shell $-1 $-1 $-1 $49 $-1 $28 #
face $-1 $50 $51 $30 $-1 $52 forward single #
face $-1 $53 $54 $31 $-1 $55 reversed single #
face $-1 $56 $57 $32 $-1 $58 reversed single #
face $-1 $59 $60 $33 $-1 $61 forward single #
face $-1 $62 $63 $34 $-1 $64 forward single #
face $-1 $65 $66 $35 $-1 $67 forward single #
face $-1 $68 $69 $36 $-1 $70 reversed single #
face $-1 $71 $72 $37 $-1 $73 forward single #
face $-1 $74 $75 $38 $-1 $76 forward single #
face $-1 $77 $78 $39 $-1 $79 forward single #
face $-1 $80 $81 $30 $-1 $82 reversed single #
loop $-1 $-1 $83 $40 #
plane-surface $-1 0 0 9.0447149017093604 0 0 1 1 0 0 forward_v I I I I #
face $-1 $84 $85 $31 $-1 $86 reversed single #
loop $-1 $-1 $87 $41 #
plane-surface $-1 0 -33.236125553762989 5.006102159410414 0 0 1 1 0 0 forward_v I I I I #
face $-1 $88 $89 $32 $-1 $90 reversed single #
loop $-1 $-1 $91 $42 #
plane-surface $-1 -24.03012476632037 67.150805756829953 142.80842716796488 1 0 0 0 -0.68199836817093118 -0.7313536940579346 forward_v I I I I #
face $-1 $92 $93 $33 $-1 $94 forward single #
loop $-1 $95 $96 $43 #
cone-surface $-1 -20.170012852085854 31.449359114831452 4.2022100379823968 0 -0.68199836817093118 -0.7313536940579346 1.5 0 0 1 I I 0 1 1.5 forward I I I I #
face $-1 $97 $98 $34 $-1 $99 forward single #
loop $-1 $100 $101 $44 #
cone-surface $-1 -14.379844980734084 31.449359114831452 4.2022100379823968 0 -0.68199836817093118 -0.7313536940579346 1.5 0 0 1 I I 0 1 1.5 forward I I I I #
face $-1 $102 $103 $35 $-1 $104 forward single #
loop $-1 $105 $106 $45 #
cone-surface $-1 -8.5896771093823148 31.449359114831452 4.2022100379823968 0 -0.68199836817093118 -0.7313536940579346 1.5 0 0 1 I I 0 1 1.5 forward I I I I #
face $-1 $107 $108 $36 $-1 $109 reversed single #
loop $-1 $-1 $110 $46 #
plane-surface $-1 4.7295651951478064 67.150805756829953 142.80842716796488 1 0 0 0 -0.68199836817093118 -0.7313536940579346 forward_v I I I I #
face $-1 $111 $112 $37 $-1 $113 forward single #
loop $-1 $114 $115 $47 #
cone-surface $-1 8.5896771093823219 31.449359114831452 4.2022100379823968 0 -0.68199836817093118 -0.7313536940579346 1.5 0 0 1 I I 0 1 1.5 forward I I I I #
face $-1 $116 $117 $38 $-1 $118 forward single #
loop $-1 $119 $120 $48 #
cone-surface $-1 14.379844980734092 31.449359114831452 4.2022100379823968 0 -0.68199836817093118 -0.7313536940579346 1.5 0 0 1 I I 0 1 1.5 forward I I I I #
face $-1 $121 $122 $39 $-1 $123 forward single #
loop $-1 $124 $125 $49 #
cone-surface $-1 20.170012852085861 31.449359114831452 4.2022100379823968 0 -0.68199836817093118 -0.7313536940579346 1.5 0 0 1 I I 0 1 1.5 forward I I I I #
face $-1 $126 $127 $30 $-1 $128 reversed single #
loop $-1 $-1 $129 $50 #
plane-surface $-1 0 0 -9.0447149017093604 0 0 1 1 0 0 forward_v I I I I #
coedge $-1 $130 $131 $132 $133 forward $51 $-1 #
face $-1 $134 $135 $31 $-1 $136 reversed single #
loop $-1 $-1 $137 $53 #
plane-surface $-1 0 -30.093327962656197 7.0254085305598881 0 -1 0 0 0 -1 forward_v I I I I #
coedge $-1 $138 $139 $140 $141 reversed $54 $-1 #
face $-1 $142 $143 $32 $-1 $144 reversed single #
loop $-1 $-1 $145 $56 #
plane-surface $-1 -14.379844980734084 -16.832796510830619 52.747041942844234 0 0.68199836817093118 0.7313536940579346 1 0 0 forward_v I I I I #
coedge $-1 $146 $147 $148 $149 reversed $57 $-1 #
face $-1 $-1 $150 $33 $-1 $151 forward single #
loop $-1 $152 $153 $59 #
cone-surface $-1 -20.170012852085854 29.181652620281461 1.7703926037614526 0 -0.68199836817093118 -0.7313536940579346 0.75 0 0 1 I I -0.70710678118654757 0.70710678118654757 0.75 forward I I I I #
loop $-1 $-1 $154 $43 #
coedge $-1 $96 $96 $155 $156 reversed $60 $-1 #
face $-1 $-1 $157 $34 $-1 $158 forward single #
loop $-1 $159 $160 $62 #
cone-surface $-1 -14.379844980734084 29.181652620281461 1.7703926037614526 0 -0.68199836817093118 -0.7313536940579346 0.75 0 0 1 I I -0.70710678118654757 0.70710678118654757 0.75 forward I I I I #
loop $-1 $-1 $161 $44 #
coedge $-1 $101 $101 $162 $163 reversed $63 $-1 #
face $-1 $-1 $164 $35 $-1 $165 forward single #
loop $-1 $166 $167 $65 #
cone-surface $-1 -8.5896771093823148 29.181652620281461 1.7703926037614526 0 -0.68199836817093118 -0.7313536940579346 0.75 0 0 1 I I -0.70710678118654757 0.70710678118654757 0.75 forward I I I I #
loop $-1 $-1 $168 $45 #
coedge $-1 $106 $106 $169 $170 reversed $66 $-1 #
face $-1 $171 $172 $36 $-1 $173 reversed single #
loop $-1 $-1 $174 $68 #
plane-surface $-1 14.379844980734092 -16.832796510830619 52.747041942844234 0 0.68199836817093118 0.7313536940579346 1 0 0 forward_v I I I I #
coedge $-1 $175 $176 $177 $178 reversed $69 $-1 #
face $-1 $-1 $179 $37 $-1 $180 forward single #
loop $-1 $181 $182 $71 #
cone-surface $-1 8.5896771093823219 29.181652620281461 1.7703926037614526 0 -0.68199836817093118 -0.7313536940579346 0.75 0 0 1 I I -0.70710678118654757 0.70710678118654757 0.75 forward I I I I #
loop $-1 $-1 $183 $47 #
coedge $-1 $115 $115 $184 $185 reversed $72 $-1 #
face $-1 $-1 $186 $38 $-1 $187 forward single #
loop $-1 $188 $189 $74 #
cone-surface $-1 14.379844980734092 29.181652620281461 1.7703926037614526 0 -0.68199836817093118 -0.7313536940579346 0.75 0 0 1 I I -0.70710678118654757 0.70710678118654757 0.75 forward I I I I #
loop $-1 $-1 $190 $48 #
coedge $-1 $120 $120 $191 $192 reversed $75 $-1 #
face $-1 $-1 $193 $39 $-1 $194 forward single #
loop $-1 $195 $196 $77 #
cone-surface $-1 20.170012852085861 29.181652620281461 1.7703926037614526 0 -0.68199836817093118 -0.7313536940579346 0.75 0 0 1 I I -0.70710678118654757 0.70710678118654757 0.75 forward I I I I #
loop $-1 $-1 $197 $49 #
coedge $-1 $125 $125 $198 $199 reversed $78 $-1 #
face $-1 $200 $201 $30 $-1 $202 reversed single #
loop $-1 $-1 $203 $80 #
plane-surface $-1 0 -36.378923144869781 0 0 1 0 0 0 1 forward_v I I I I #
coedge $-1 $204 $205 $206 $207 forward $81 $-1 #
coedge $-1 $208 $83 $209 $210 forward $51 $-1 #
coedge $-1 $83 $208 $211 $212 forward $51 $-1 #
coedge $-1 $213 $214 $83 $133 reversed $215 $-1 #
edge $-1 $216 -36.378923144869781 $217 36.378923144869781 $132 $218 forward 7 unknown #
face $-1 $219 $220 $31 $-1 $221 reversed single #
loop $-1 $-1 $222 $84 #
plane-surface $-1 -61.571703238013853 0 0 1 0 0 0 0 -1 forward_v I I I I #
coedge $-1 $223 $224 $225 $226 reversed $85 $-1 #
coedge $-1 $227 $87 $228 $229 reversed $54 $-1 #
coedge $-1 $87 $227 $223 $230 forward $54 $-1 #
coedge $-1 $225 $231 $87 $141 forward $232 $-1 #
edge $-1 $233 -19.760860367988286 $234 -13.475265185774703 $140 $235 forward 7 unknown #
face $-1 $236 $237 $32 $-1 $238 forward single #
loop $-1 $-1 $239 $88 #
plane-surface $-1 -4.7295651951477993 67.150805756829953 142.80842716796488 -1 0 0 0 0.68199836817093118 0.7313536940579346 forward_v I I I I #
coedge $-1 $240 $241 $242 $243 reversed $89 $-1 #
coedge $-1 $147 $91 $244 $245 reversed $57 $-1 #
coedge $-1 $91 $146 $240 $246 reversed $57 $-1 #
coedge $-1 $242 $247 $91 $149 forward $237 $-1 #
edge $-1 $248 -2.8035202664548038 $249 3.5431923567782349 $148 $250 forward 7 unknown #
loop $-1 $-1 $155 $92 #
plane-surface $-1 -14.379844980734084 -16.832796510830619 52.747041942844234 0 0.68199836817093118 0.7313536940579346 1 0 0 forward_v I I I I #
loop $-1 $-1 $251 $59 #
coedge $-1 $153 $153 $154 $252 reversed $93 $-1 #
coedge $-1 $154 $154 $153 $252 forward $95 $-1 #
coedge $-1 $155 $155 $96 $156 forward $150 $-1 #
edge $-1 $253 -8.7141173232118414e-016 $253 6.2831853071795996 $155 $254 forward 7 unknown #
loop $-1 $-1 $162 $97 #
plane-surface $-1 -14.379844980734084 -16.832796510830619 52.747041942844234 0 0.68199836817093118 0.7313536940579346 1 0 0 forward_v I I I I #
loop $-1 $-1 $255 $62 #
coedge $-1 $160 $160 $161 $256 reversed $98 $-1 #
coedge $-1 $161 $161 $160 $256 forward $100 $-1 #
coedge $-1 $162 $162 $101 $163 forward $157 $-1 #
edge $-1 $257 -8.7141173232118414e-016 $257 6.2831853071795996 $162 $258 forward 7 unknown #
loop $-1 $-1 $169 $102 #
plane-surface $-1 -14.379844980734084 -16.832796510830619 52.747041942844234 0 0.68199836817093118 0.7313536940579346 1 0 0 forward_v I I I I #
loop $-1 $-1 $259 $65 #
coedge $-1 $167 $167 $168 $260 reversed $103 $-1 #
coedge $-1 $168 $168 $167 $260 forward $105 $-1 #
coedge $-1 $169 $169 $106 $170 forward $164 $-1 #
edge $-1 $261 -8.7141173232118414e-016 $261 6.2831853071795996 $169 $262 forward 7 unknown #
face $-1 $263 $264 $36 $-1 $265 forward single #
loop $-1 $-1 $266 $107 #
plane-surface $-1 24.030124766320377 67.150805756829953 142.80842716796488 -1 0 0 0 0.68199836817093118 0.7313536940579346 forward_v I I I I #
coedge $-1 $267 $268 $269 $270 reversed $108 $-1 #
coedge $-1 $176 $110 $271 $272 reversed $69 $-1 #
coedge $-1 $110 $175 $267 $273 reversed $69 $-1 #
coedge $-1 $269 $274 $110 $178 forward $264 $-1 #
edge $-1 $275 -2.8035202664548038 $276 3.5431923567782349 $177 $277 forward 7 unknown #
loop $-1 $-1 $184 $111 #
plane-surface $-1 14.379844980734092 -16.832796510830619 52.747041942844234 0 0.68199836817093118 0.7313536940579346 1 0 0 forward_v I I I I #
loop $-1 $-1 $278 $71 #
coedge $-1 $182 $182 $183 $279 reversed $112 $-1 #
coedge $-1 $183 $183 $182 $279 forward $114 $-1 #
coedge $-1 $184 $184 $115 $185 forward $179 $-1 #
edge $-1 $280 -8.7141173232118414e-016 $280 6.2831853071795996 $184 $281 forward 7 unknown #
loop $-1 $-1 $191 $116 #
plane-surface $-1 14.379844980734092 -16.832796510830619 52.747041942844234 0 0.68199836817093118 0.7313536940579346 1 0 0 forward_v I I I I #
loop $-1 $-1 $282 $74 #
coedge $-1 $189 $189 $190 $283 reversed $117 $-1 #
coedge $-1 $190 $190 $189 $283 forward $119 $-1 #
coedge $-1 $191 $191 $120 $192 forward $186 $-1 #
edge $-1 $284 -8.7141173232118414e-016 $284 6.2831853071795996 $191 $285 forward 7 unknown #
loop $-1 $-1 $198 $121 #
plane-surface $-1 14.379844980734092 -16.832796510830619 52.747041942844234 0 0.68199836817093118 0.7313536940579346 1 0 0 forward_v I I I I #
loop $-1 $-1 $286 $77 #
coedge $-1 $196 $196 $197 $287 reversed $122 $-1 #
coedge $-1 $197 $197 $196 $287 forward $124 $-1 #
coedge $-1 $198 $198 $125 $199 forward $193 $-1 #
edge $-1 $288 -8.7141173232118414e-016 $288 6.2831853071795996 $198 $289 forward 7 unknown #
face $-1 $290 $291 $30 $-1 $292 reversed single #
loop $-1 $-1 $293 $126 #
plane-surface $-1 -61.571703238013853 0 0 1 0 0 0 0 -1 forward_v I I I I #
coedge $-1 $294 $211 $295 $296 forward $127 $-1 #
coedge $-1 $297 $129 $294 $298 forward $81 $-1 #
coedge $-1 $129 $297 $299 $300 forward $81 $-1 #
coedge $-1 $214 $213 $129 $207 reversed $215 $-1 #
edge $-1 $301 -36.378923144869781 $302 36.378923144869781 $206 $303 forward 7 unknown #
coedge $-1 $131 $130 $304 $305 forward $51 $-1 #
coedge $-1 $306 $307 $130 $210 reversed $291 $-1 #
edge $-1 $217 -61.571703238013853 $308 61.571703238013853 $209 $309 forward 7 unknown #
coedge $-1 $203 $310 $131 $212 reversed $127 $-1 #
edge $-1 $311 -61.571703238013853 $216 61.571703238013853 $211 $312 forward 7 unknown #
coedge $-1 $206 $132 $310 $313 forward $215 $-1 #
coedge $-1 $132 $206 $306 $314 reversed $215 $-1 #
loop $-1 $-1 $213 $290 #
vertex $-1 $133 $315 #
vertex $-1 $133 $316 #
straight-curve $-1 61.571703238013853 0 9.0447149017093604 0 1 0 I I #
face $-1 $317 $318 $31 $-1 $319 forward single #
loop $-1 $-1 $228 $134 #
plane-surface $-1 0 -36.378923144869781 0 0 1 0 0 0 1 forward_v I I I I #
coedge $-1 $320 $321 $322 $323 forward $135 $-1 #
coedge $-1 $322 $137 $139 $230 reversed $85 $-1 #
coedge $-1 $137 $322 $324 $325 reversed $85 $-1 #
coedge $-1 $326 $140 $137 $226 forward $232 $-1 #
edge $-1 $234 1.49339789413047 $327 5.5320106364294181 $225 $328 forward 7 unknown #
coedge $-1 $139 $138 $320 $329 reversed $54 $-1 #
coedge $-1 $330 $331 $138 $229 forward $220 $-1 #
edge $-1 $332 -61.571703238013853 $233 61.571703238013853 $228 $333 forward 7 unknown #
edge $-1 $334 -61.571703238013853 $234 61.571703238013853 $223 $335 forward 7 unknown #
coedge $-1 $140 $326 $330 $336 forward $232 $-1 #
loop $-1 $-1 $225 $317 #
vertex $-1 $229 $337 #
vertex $-1 $141 $338 #
straight-curve $-1 61.571703238013853 -16.618062776881494 5.006102159410414 0 1 0 I I #
face $-1 $-1 $339 $32 $-1 $340 reversed single #
loop $-1 $-1 $148 $142 #
plane-surface $-1 0 0 9.0447149017093604 0 0 1 1 0 0 forward_v I I I I #
coedge $-1 $341 $342 $343 $344 reversed $143 $-1 #
coedge $-1 $345 $145 $147 $246 forward $89 $-1 #
coedge $-1 $145 $345 $341 $346 forward $89 $-1 #
coedge $-1 $343 $148 $145 $243 forward $237 $-1 #
edge $-1 $249 -16.840202275953327 $347 2.460357295219243 $242 $348 forward 7 unknown #
coedge $-1 $349 $350 $146 $245 forward $339 $-1 #
edge $-1 $351 -68.277904082372004 $248 -62.359498682273077 $244 $352 forward 7 unknown #
edge $-1 $249 64.079811742572431 $351 72.757846289739518 $147 $353 forward 7 unknown #
coedge $-1 $148 $343 $349 $354 forward $237 $-1 #
vertex $-1 $245 $355 #
vertex $-1 $149 $356 #
straight-curve $-1 -24.03012476632037 33.575402878414977 9.0447149017093551 0 -1 0 I I #
coedge $-1 $251 $251 $-1 $357 reversed $152 $-1 #
edge $-1 $358 0 $358 6.2831853071796004 $153 $359 forward 7 unknown #
vertex $-1 $156 $360 #
ellipse-curve $-1 -20.170012852085854 33.205566833253258 6.0855122016599035 0 0.68199836817093118 0.7313536940579346 1.5 0 0 1 I I #
coedge $-1 $255 $255 $-1 $361 reversed $159 $-1 #
edge $-1 $362 0 $362 6.2831853071796004 $160 $363 forward 7 unknown #
vertex $-1 $163 $364 #
ellipse-curve $-1 -14.379844980734084 33.205566833253258 6.0855122016599035 0 0.68199836817093118 0.7313536940579346 1.5 0 0 1 I I #
coedge $-1 $259 $259 $-1 $365 reversed $166 $-1 #
edge $-1 $366 0 $366 6.2831853071796004 $167 $367 forward 7 unknown #
vertex $-1 $170 $368 #
ellipse-curve $-1 -8.5896771093823148 33.205566833253258 6.0855122016599035 0 0.68199836817093118 0.7313536940579346 1.5 0 0 1 I I #
face $-1 $-1 $369 $36 $-1 $370 reversed single #
loop $-1 $-1 $177 $171 #
plane-surface $-1 0 0 9.0447149017093604 0 0 1 1 0 0 forward_v I I I I #
coedge $-1 $371 $372 $373 $374 reversed $172 $-1 #
coedge $-1 $375 $174 $176 $273 forward $108 $-1 #
coedge $-1 $174 $375 $371 $376 forward $108 $-1 #
coedge $-1 $373 $177 $174 $270 forward $264 $-1 #
edge $-1 $276 -2.4603572952192394 $377 16.840202275953331 $269 $378 forward 7 unknown #
coedge $-1 $379 $380 $175 $272 forward $369 $-1 #
edge $-1 $381 -68.277904082372004 $275 -62.359498682273077 $271 $382 forward 7 unknown #
edge $-1 $276 64.079811742572431 $381 72.757846289739518 $176 $383 forward 7 unknown #
coedge $-1 $177 $373 $379 $384 forward $264 $-1 #
vertex $-1 $178 $385 #
vertex $-1 $178 $386 #
straight-curve $-1 4.7295651951478064 33.575402878414977 9.0447149017093551 0 -1 0 I I #
coedge $-1 $278 $278 $-1 $387 reversed $181 $-1 #
edge $-1 $388 0 $388 6.2831853071796004 $182 $389 forward 7 unknown #
vertex $-1 $185 $390 #
ellipse-curve $-1 8.5896771093823219 33.205566833253258 6.0855122016599035 0 0.68199836817093118 0.7313536940579346 1.5 0 0 1 I I #
coedge $-1 $282 $282 $-1 $391 reversed $188 $-1 #
edge $-1 $392 0 $392 6.2831853071796004 $189 $393 forward 7 unknown #
vertex $-1 $192 $394 #
ellipse-curve $-1 14.379844980734092 33.205566833253258 6.0855122016599035 0 0.68199836817093118 0.7313536940579346 1.5 0 0 1 I I #
coedge $-1 $286 $286 $-1 $395 reversed $195 $-1 #
edge $-1 $396 0 $396 6.2831853071796004 $196 $397 forward 7 unknown #
vertex $-1 $199 $398 #
ellipse-curve $-1 20.170012852085861 33.205566833253258 6.0855122016599035 0 0.68199836817093118 0.7313536940579346 1.5 0 0 1 I I #
face $-1 $-1 $215 $30 $-1 $399 reversed single #
loop $-1 $-1 $306 $200 #
plane-surface $-1 0 36.378923144869781 0 0 -1 0 0 0 -1 forward_v I I I I #
coedge $-1 $400 $304 $307 $401 forward $201 $-1 #
coedge $-1 $310 $203 $204 $298 reversed $127 $-1 #
coedge $-1 $304 $400 $203 $296 reversed $201 $-1 #
edge $-1 $311 -9.0447149017093604 $402 9.0447149017093604 $295 $403 forward 7 unknown #
coedge $-1 $205 $204 $400 $404 forward $81 $-1 #
edge $-1 $302 -61.571703238013853 $402 61.571703238013853 $294 $405 forward 7 unknown #
coedge $-1 $307 $306 $205 $300 reversed $291 $-1 #
edge $-1 $406 -61.571703238013853 $301 61.571703238013853 $299 $407 forward 7 unknown #
vertex $-1 $207 $408 #
vertex $-1 $313 $409 #
straight-curve $-1 61.571703238013853 0 -9.0447149017093604 0 -1 0 I I #
coedge $-1 $293 $295 $208 $305 reversed $201 $-1 #
edge $-1 $308 -36.378923144869781 $311 36.378923144869781 $304 $410 forward 7 unknown #
coedge $-1 $299 $209 $214 $314 forward $291 $-1 #
coedge $-1 $209 $299 $293 $401 reversed $291 $-1 #
vertex $-1 $210 $411 #
straight-curve $-1 0 36.378923144869781 9.0447149017093604 -1 0 0 I I #
coedge $-1 $211 $294 $213 $313 reversed $127 $-1 #
vertex $-1 $305 $412 #
straight-curve $-1 0 -36.378923144869781 9.0447149017093604 1 0 0 I I #
edge $-1 $216 -9.0447149017093604 $302 9.0447149017093604 $213 $413 forward 7 unknown #
edge $-1 $217 -9.0447149017093604 $301 9.0447149017093604 $214 $414 forward 7 unknown #
point $-1 61.571703238013853 -36.378923144869781 9.0447149017093604 #
point $-1 61.571703238013853 36.378923144869781 9.0447149017093604 #
face $-1 $-1 $232 $31 $-1 $415 reversed single #
loop $-1 $-1 $324 $219 #
plane-surface $-1 0 0 9.0447149017093604 0 0 1 1 0 0 forward_v I I I I #
coedge $-1 $416 $222 $227 $329 forward $135 $-1 #
coedge $-1 $222 $416 $417 $418 reversed $135 $-1 #
coedge $-1 $224 $223 $222 $323 reversed $85 $-1 #
edge $-1 $419 -5.5320106364294181 $334 -1.49339789413047 $222 $420 forward 7 unknown #
coedge $-1 $417 $421 $224 $325 forward $318 $-1 #
edge $-1 $327 -61.571703238013853 $419 61.571703238013853 $324 $422 forward 7 unknown #
coedge $-1 $231 $225 $421 $423 reversed $232 $-1 #
vertex $-1 $226 $424 #
straight-curve $-1 61.571703238013853 -30.093327962656197 3.5127042652799441 0 0 1 I I #
edge $-1 $334 13.475265185774703 $332 19.760860367988286 $320 $425 forward 7 unknown #
coedge $-1 $426 $228 $231 $336 reversed $220 $-1 #
coedge $-1 $228 $426 $416 $427 forward $220 $-1 #
vertex $-1 $229 $428 #
straight-curve $-1 0 -36.378923144869781 5.006102159410414 1 0 0 I I #
vertex $-1 $329 $429 #
straight-curve $-1 0 -30.093327962656197 5.006102159410414 1 0 0 I I #
edge $-1 $430 -9.0447149017093604 $233 -5.006102159410414 $231 $431 forward 7 unknown #
point $-1 61.571703238013853 -36.378923144869781 5.006102159410414 #
point $-1 61.571703238013853 -30.093327962656197 5.006102159410414 #
loop $-1 $-1 $244 $236 #
plane-surface $-1 0 36.378923144869781 0 0 -1 0 0 0 -1 forward_v I I I I #
coedge $-1 $342 $239 $241 $346 reversed $143 $-1 #
coedge $-1 $239 $341 $432 $433 reversed $143 $-1 #
coedge $-1 $247 $242 $239 $344 forward $237 $-1 #
edge $-1 $347 -3.5431923567782349 $434 2.8035202664548038 $343 $435 forward 7 unknown #
coedge $-1 $241 $240 $350 $436 reversed $89 $-1 #
edge $-1 $437 -72.757846289739518 $347 -64.079811742572431 $341 $438 forward 7 unknown #
vertex $-1 $243 $439 #
straight-curve $-1 -7.1899224903670422 30.032210521636742 9.0447149017093622 1 0 0 I I #
coedge $-1 $432 $244 $247 $354 reversed $339 $-1 #
coedge $-1 $244 $432 $345 $436 forward $339 $-1 #
vertex $-1 $245 $440 #
straight-curve $-1 -24.03012476632037 36.378923144869781 71.40421358398244 0 0 1 I I #
straight-curve $-1 -24.03012476632037 -16.832796510830619 52.747041942844234 0 0.7313536940579346 -0.68199836817093118 I I #
edge $-1 $434 4.7295651951477993 $248 24.03012476632037 $349 $441 forward 7 unknown #
point $-1 -24.03012476632037 36.378923144869781 9.0447149017093604 #
point $-1 -24.03012476632037 30.032210521636742 9.0447149017093622 #
edge $-1 $442 1 $442 0 $251 $-1 forward 7 unknown #
vertex $-1 $252 $443 #
ellipse-curve $-1 -20.170012852085854 29.693151396409661 2.3189078743049034 0 0.68199836817093118 0.7313536940579346 1.5 0 0 1 I I #
point $-1 -18.670012852085854 33.205566833253243 6.0855122016598902 #
edge $-1 $444 1 $444 0 $255 $-1 forward 7 unknown #
vertex $-1 $256 $445 #
ellipse-curve $-1 -14.379844980734084 29.693151396409661 2.3189078743049034 0 0.68199836817093118 0.7313536940579346 1.5 0 0 1 I I #
point $-1 -12.879844980734084 33.205566833253243 6.0855122016598902 #
edge $-1 $446 1 $446 0 $259 $-1 forward 7 unknown #
vertex $-1 $260 $447 #
ellipse-curve $-1 -8.5896771093823148 29.693151396409661 2.3189078743049034 0 0.68199836817093118 0.7313536940579346 1.5 0 0 1 I I #
point $-1 -7.0896771093823148 33.205566833253243 6.0855122016598902 #
loop $-1 $-1 $271 $263 #
plane-surface $-1 0 36.378923144869781 0 0 -1 0 0 0 -1 forward_v I I I I #
coedge $-1 $372 $266 $268 $376 reversed $172 $-1 #
coedge $-1 $266 $371 $448 $449 reversed $172 $-1 #
coedge $-1 $274 $269 $266 $374 forward $264 $-1 #
edge $-1 $377 -3.5431923567782349 $450 2.8035202664548038 $373 $451 forward 7 unknown #
coedge $-1 $268 $267 $380 $452 reversed $108 $-1 #
edge $-1 $453 -72.757846289739518 $377 -64.079811742572431 $371 $454 forward 7 unknown #
vertex $-1 $270 $455 #
straight-curve $-1 7.1899224903670458 30.032210521636742 9.0447149017093622 1 0 0 I I #
coedge $-1 $448 $271 $274 $384 reversed $369 $-1 #
coedge $-1 $271 $448 $375 $452 forward $369 $-1 #
vertex $-1 $272 $456 #
straight-curve $-1 4.7295651951478064 36.378923144869781 71.40421358398244 0 0 1 I I #
straight-curve $-1 4.7295651951478064 -16.832796510830619 52.747041942844234 0 0.7313536940579346 -0.68199836817093118 I I #
edge $-1 $450 -24.030124766320377 $275 -4.7295651951478064 $379 $457 forward 7 unknown #
point $-1 4.7295651951478064 36.378923144869781 9.0447149017093604 #
point $-1 4.7295651951478064 30.032210521636742 9.0447149017093622 #
edge $-1 $458 1 $458 0 $278 $-1 forward 7 unknown #
vertex $-1 $279 $459 #
ellipse-curve $-1 8.5896771093823219 29.693151396409661 2.3189078743049034 0 0.68199836817093118 0.7313536940579346 1.5 0 0 1 I I #
point $-1 10.089677109382322 33.205566833253243 6.0855122016598902 #
edge $-1 $460 1 $460 0 $282 $-1 forward 7 unknown #
vertex $-1 $283 $461 #
ellipse-curve $-1 14.379844980734092 29.693151396409661 2.3189078743049034 0 0.68199836817093118 0.7313536940579346 1.5 0 0 1 I I #
point $-1 15.879844980734092 33.205566833253243 6.0855122016598902 #
edge $-1 $462 1 $462 0 $286 $-1 forward 7 unknown #
vertex $-1 $287 $463 #
ellipse-curve $-1 20.170012852085861 29.693151396409661 2.3189078743049034 0 0.68199836817093118 0.7313536940579346 1.5 0 0 1 I I #
point $-1 21.670012852085861 33.205566833253243 6.0855122016598902 #
plane-surface $-1 61.571703238013853 0 0 -1 0 0 0 0 1 forward_v I I I I #
coedge $-1 $295 $293 $297 $404 reversed $201 $-1 #
edge $-1 $308 -9.0447149017093604 $406 9.0447149017093604 $307 $464 forward 7 unknown #
vertex $-1 $404 $465 #
straight-curve $-1 -61.571703238013853 -36.378923144869781 0 0 0 -1 I I #
edge $-1 $402 -36.378923144869781 $406 36.378923144869781 $400 $466 forward 7 unknown #
straight-curve $-1 0 -36.378923144869781 -9.0447149017093604 -1 0 0 I I #
vertex $-1 $300 $467 #
straight-curve $-1 0 36.378923144869781 -9.0447149017093604 1 0 0 I I #
point $-1 61.571703238013853 36.378923144869781 -9.0447149017093604 #
point $-1 61.571703238013853 -36.378923144869781 -9.0447149017093604 #
straight-curve $-1 -61.571703238013853 0 9.0447149017093604 0 -1 0 I I #
point $-1 -61.571703238013853 36.378923144869781 9.0447149017093604 #
point $-1 -61.571703238013853 -36.378923144869781 9.0447149017093604 #
straight-curve $-1 61.571703238013853 -36.378923144869781 0 0 0 -1 I I #
straight-curve $-1 61.571703238013853 36.378923144869781 0 0 0 -1 I I #
plane-surface $-1 61.571703238013853 0 0 -1 0 0 0 0 1 forward_v I I I I #
coedge $-1 $321 $320 $331 $427 reversed $135 $-1 #
coedge $-1 $468 $324 $321 $418 forward $318 $-1 #
edge $-1 $419 30.093327962656197 $469 36.378923144869781 $321 $470 forward 7 unknown #
vertex $-1 $418 $471 #
straight-curve $-1 -61.571703238013853 -30.093327962656197 3.5127042652799441 0 0 -1 I I #
coedge $-1 $324 $468 $326 $423 forward $318 $-1 #
straight-curve $-1 0 -30.093327962656197 9.0447149017093604 -1 0 0 I I #
edge $-1 $430 -36.378923144869781 $327 -30.093327962656197 $326 $472 forward 7 unknown #
point $-1 61.571703238013853 -30.093327962656197 9.0447149017093622 #
straight-curve $-1 -61.571703238013853 -16.618062776881494 5.006102159410414 0 -1 0 I I #
coedge $-1 $331 $330 $468 $473 reversed $220 $-1 #
edge $-1 $469 -9.0447149017093604 $332 -5.006102159410414 $416 $474 forward 7 unknown #
point $-1 -61.571703238013853 -36.378923144869781 5.006102159410414 #
point $-1 -61.571703238013853 -30.093327962656197 5.006102159410414 #
vertex $-1 $423 $475 #
straight-curve $-1 61.571703238013853 -36.378923144869781 0 0 0 -1 I I #
coedge $-1 $350 $349 $342 $433 forward $339 $-1 #
edge $-1 $434 62.359498682273077 $437 68.277904082372004 $432 $476 forward 7 unknown #
vertex $-1 $354 $477 #
straight-curve $-1 -4.7295651951477993 33.575402878414977 9.0447149017093551 0 1 0 I I #
edge $-1 $437 -2.460357295219243 $351 16.840202275953327 $350 $478 forward 7 unknown #
vertex $-1 $436 $479 #
straight-curve $-1 -4.7295651951477993 -16.832796510830619 52.747041942844234 0 -0.7313536940579346 0.68199836817093118 I I #
point $-1 -4.7295651951477993 30.032210521636742 9.0447149017093622 #
point $-1 -24.03012476632037 36.378923144869781 3.1263095016104359 #
straight-curve $-1 0 36.378923144869781 9.0447149017093604 -1 0 0 I I #
vertex $-1 $357 $480 #
point $-1 -18.670012852085854 29.693151396409661 2.3189078743049034 #
vertex $-1 $361 $481 #
point $-1 -12.879844980734084 29.693151396409661 2.3189078743049034 #
vertex $-1 $365 $482 #
point $-1 -7.0896771093823148 29.693151396409661 2.3189078743049034 #
coedge $-1 $380 $379 $372 $449 forward $369 $-1 #
edge $-1 $450 62.359498682273077 $453 68.277904082372004 $448 $483 forward 7 unknown #
vertex $-1 $384 $484 #
straight-curve $-1 24.030124766320377 33.575402878414977 9.0447149017093551 0 1 0 I I #
edge $-1 $453 -16.840202275953331 $381 2.4603572952192394 $380 $485 forward 7 unknown #
vertex $-1 $452 $486 #
straight-curve $-1 24.030124766320377 -16.832796510830619 52.747041942844234 0 -0.7313536940579346 0.68199836817093118 I I #
point $-1 24.030124766320377 30.032210521636742 9.0447149017093622 #
point $-1 4.7295651951478064 36.378923144869781 3.1263095016104359 #
straight-curve $-1 0 36.378923144869781 9.0447149017093604 -1 0 0 I I #
vertex $-1 $387 $487 #
point $-1 10.089677109382322 29.693151396409661 2.3189078743049034 #
vertex $-1 $391 $488 #
point $-1 15.879844980734092 29.693151396409661 2.3189078743049034 #
vertex $-1 $395 $489 #
point $-1 21.670012852085861 29.693151396409661 2.3189078743049034 #
straight-curve $-1 -61.571703238013853 36.378923144869781 0 0 0 -1 I I #
point $-1 -61.571703238013853 -36.378923144869781 -9.0447149017093604 #
straight-curve $-1 -61.571703238013853 0 -9.0447149017093604 0 1 0 I I #
point $-1 -61.571703238013853 36.378923144869781 -9.0447149017093604 #
coedge $-1 $421 $417 $426 $473 forward $318 $-1 #
vertex $-1 $418 $490 #
straight-curve $-1 -61.571703238013853 0 9.0447149017093604 0 -1 0 I I #
point $-1 -61.571703238013853 -30.093327962656197 9.0447149017093622 #
straight-curve $-1 61.571703238013853 0 9.0447149017093604 0 1 0 I I #
edge $-1 $469 -61.571703238013853 $430 61.571703238013853 $426 $491 forward 7 unknown #
straight-curve $-1 -61.571703238013853 -36.378923144869781 0 0 0 -1 I I #
point $-1 61.571703238013853 -36.378923144869781 9.0447149017093604 #
straight-curve $-1 -4.7295651951477993 36.378923144869781 71.40421358398244 0 0 -1 I I #
point $-1 -4.7295651951477993 36.378923144869781 9.0447149017093604 #
straight-curve $-1 -7.1899224903670422 36.378923144869781 3.1263095016104359 -1 0 0 I I #
point $-1 -4.7295651951477993 36.378923144869781 3.1263095016104359 #
point $-1 -20.170012852085854 28.670153844153262 1.2218773332180017 #
point $-1 -14.379844980734084 28.670153844153262 1.2218773332180017 #
point $-1 -8.5896771093823148 28.670153844153262 1.2218773332180017 #
straight-curve $-1 24.030124766320377 36.378923144869781 71.40421358398244 0 0 -1 I I #
point $-1 24.030124766320377 36.378923144869781 9.0447149017093604 #
straight-curve $-1 7.1899224903670458 36.378923144869781 3.1263095016104359 -1 0 0 I I #
point $-1 24.030124766320377 36.378923144869781 3.1263095016104359 #
point $-1 8.5896771093823219 28.670153844153262 1.2218773332180017 #
point $-1 14.379844980734092 28.670153844153262 1.2218773332180017 #
point $-1 20.170012852085861 28.670153844153262 1.2218773332180017 #
point $-1 -61.571703238013853 -36.378923144869781 9.0447149017093604 #
straight-curve $-1 0 -36.378923144869781 9.0447149017093604 1 0 0 I I #
End-of-ACIS-data 