500 0 5 0           
7 Unknown 11 ACIS 5.0 NT 24 Fri Mar 26 17:26:19 1999 
-1 9.9999999999999995e-007 1e-010 
body $-1 $5 $-1 $6 #
body $-1 $7 $-1 $8 #
body $-1 $9 $-1 $10 #
body $-1 $11 $-1 $12 #
body $-1 $13 $-1 $14 #
lump $-1 $-1 $15 $0 #
transform $-1 1 0 0 0 1 0 0 0 1 72.084719382305366 47.957336608371342 20.634226949048202 1 rotate no_reflect no_shear #
lump $-1 $-1 $16 $1 #
transform $-1 1 0 0 0 1 0 0 0 1 72.084719382305366 47.957336608371342 20.634226949048202 1 rotate no_reflect no_shear #
lump $-1 $-1 $17 $2 #
transform $-1 1 0 0 0 1 0 0 0 1 72.084719382305366 47.957336608371342 20.634226949048202 1 rotate no_reflect no_shear #
lump $-1 $-1 $18 $3 #
transform $-1 1 0 0 0 1 0 0 0 1 72.084719382305366 47.957336608371342 20.634226949048202 1 rotate no_reflect no_shear #
lump $-1 $-1 $19 $4 #
transform $-1 1 0 0 0 1 0 0 0 1 72.084719382305366 47.957336608371342 20.634226949048202 1 rotate no_reflect no_shear #
shell $-1 $-1 $-1 $20 $-1 $5 #
shell $-1 $-1 $-1 $21 $-1 $7 #
shell $-1 $-1 $-1 $22 $-1 $9 #
shell $-1 $-1 $-1 $23 $-1 $11 #
shell $-1 $-1 $-1 $24 $-1 $13 #
face $-1 $25 $26 $15 $-1 $27 forward single #
face $-1 $28 $29 $16 $-1 $30 forward single #
face $-1 $31 $32 $17 $-1 $33 forward single #
face $-1 $34 $35 $18 $-1 $36 forward single #
face $-1 $37 $38 $19 $-1 $39 reversed single #
face $-1 $40 $41 $15 $-1 $42 reversed single #
loop $-1 $-1 $43 $20 #
plane-surface $-1 0 0 20.634226949048202 0 0 1 1 0 0 forward_v I I I I #
face $-1 $44 $45 $16 $-1 $46 reversed single #
loop $-1 $-1 $47 $21 #
plane-surface $-1 0 -55.708839913853303 -13.461775455036873 0 0 1 1 0 0 forward_v I I I I #
face $-1 $48 $49 $17 $-1 $50 reversed single #
loop $-1 $-1 $51 $22 #
plane-surface $-1 0 55.708839913853303 -13.461775455036873 0 0 1 1 0 0 forward_v I I I I #
face $-1 $52 $53 $18 $-1 $54 forward single #
loop $-1 $-1 $55 $23 #
plane-surface $-1 57.862326927406485 5.4322741567546373 218.28035341359285 0 -1 0 -0.6560590369687036 0 -0.75470957328743171 forward_v I I I I #
face $-1 $56 $57 $19 $-1 $58 reversed single #
loop $-1 $59 $60 $24 #
cone-surface $-1 67.044742855245104 0.17145767122866573 15.764985167300015 -0.6560590369687036 0 -0.75470957328743171 1.1320643599311475 0 -0.9840885554530554 1 I I 0 1 1.5 forward I I I I #
face $-1 $61 $62 $15 $-1 $63 reversed single #
loop $-1 $-1 $64 $25 #
plane-surface $-1 0 0 -20.634226949048202 0 0 1 1 0 0 forward_v I I I I #
coedge $-1 $65 $66 $67 $68 forward $26 $-1 #
face $-1 $69 $70 $16 $-1 $71 forward single #
loop $-1 $-1 $72 $28 #
plane-surface $-1 0 -63.460343219335265 -17.048001202042538 0 1 0 0 0 1 forward_v I I I I #
coedge $-1 $73 $74 $75 $76 forward $29 $-1 #
face $-1 $77 $78 $17 $-1 $79 forward single #
loop $-1 $-1 $80 $31 #
plane-surface $-1 0 63.460343219335265 -17.048001202042538 0 -1 0 0 0 -1 forward_v I I I I #
coedge $-1 $81 $82 $83 $84 forward $32 $-1 #
face $-1 $85 $86 $18 $-1 $87 forward single #
loop $-1 $-1 $88 $34 #
plane-surface $-1 -36.721336228822523 0.17145767122866573 109.47429780246497 0.6560590369687036 0 0.75470957328743171 0.75470957328743171 0 -0.6560590369687036 forward_v I I I I #
coedge $-1 $89 $90 $91 $92 reversed $35 $-1 #
face $-1 $93 $94 $19 $-1 $95 forward single #
loop $-1 $96 $97 $37 #
cone-surface $-1 64.81634554448172 0.17145767122866573 13.201507356992348 -0.6560590369687036 0 -0.75470957328743171 0.56603217996557376 0 -0.4920442777265277 1 I I -0.70710678118654757 0.70710678118654757 0.75 forward I I I I #
loop $-1 $-1 $98 $24 #
coedge $-1 $60 $60 $99 $100 reversed $38 $-1 #
face $-1 $101 $102 $15 $-1 $103 reversed single #
loop $-1 $-1 $104 $40 #
plane-surface $-1 0 -47.957336608371342 0 0 1 0 0 0 1 forward_v I I I I #
coedge $-1 $105 $106 $107 $108 forward $41 $-1 #
coedge $-1 $109 $43 $110 $111 forward $26 $-1 #
coedge $-1 $43 $109 $112 $113 forward $26 $-1 #
coedge $-1 $114 $115 $43 $68 reversed $116 $-1 #
edge $-1 $117 -47.957336608371342 $118 47.957336608371342 $67 $119 forward 7 unknown #
face $-1 $120 $121 $16 $-1 $122 reversed single #
loop $-1 $-1 $123 $44 #
plane-surface $-1 0 0 20.634226949048202 0 0 1 1 0 0 forward_v I I I I #
coedge $-1 $124 $125 $126 $127 forward $45 $-1 #
coedge $-1 $128 $47 $129 $130 reversed $29 $-1 #
coedge $-1 $47 $128 $125 $131 forward $29 $-1 #
coedge $-1 $132 $133 $47 $76 reversed $134 $-1 #
edge $-1 $135 -7.7515033054819611 $136 7.7515033054819611 $75 $137 forward 7 unknown #
face $-1 $138 $139 $17 $-1 $140 reversed single #
loop $-1 $-1 $141 $48 #
plane-surface $-1 0 -55.708839913853303 -13.461775455036873 0 0 1 1 0 0 forward_v I I I I #
coedge $-1 $142 $143 $144 $145 forward $49 $-1 #
coedge $-1 $146 $51 $143 $147 forward $32 $-1 #
coedge $-1 $51 $146 $148 $149 reversed $32 $-1 #
coedge $-1 $150 $144 $51 $84 reversed $151 $-1 #
edge $-1 $152 -7.7515033054819611 $153 7.7515033054819611 $83 $154 forward 7 unknown #
face $-1 $155 $156 $18 $-1 $157 forward single #
loop $-1 $-1 $158 $52 #
plane-surface $-1 57.862326927406485 -5.0893588142973059 218.28035341359285 0 1 0 0.6560590369687036 0 0.75470957328743171 forward_v I I I I #
coedge $-1 $159 $160 $161 $162 reversed $53 $-1 #
coedge $-1 $90 $55 $160 $163 forward $35 $-1 #
coedge $-1 $55 $89 $164 $165 reversed $35 $-1 #
coedge $-1 $166 $161 $55 $92 forward $156 $-1 #
edge $-1 $167 36.546308930555256 $168 43.153555918602123 $91 $169 forward 7 unknown #
face $-1 $170 $171 $19 $-1 $172 forward single #
loop $-1 $-1 $173 $56 #
plane-surface $-1 57.862326927406485 5.4322741567546373 218.28035341359285 0 -1 0 -0.6560590369687036 0 -0.75470957328743171 forward_v I I I I #
loop $-1 $-1 $174 $37 #
coedge $-1 $97 $97 $98 $175 forward $57 $-1 #
coedge $-1 $98 $98 $97 $175 reversed $59 $-1 #
coedge $-1 $99 $99 $60 $100 forward $171 $-1 #
edge $-1 $176 0 $176 6.2831853071796004 $99 $177 forward 7 unknown #
face $-1 $178 $179 $15 $-1 $180 reversed single #
loop $-1 $-1 $181 $61 #
plane-surface $-1 -72.084719382305366 0 0 1 0 0 0 0 -1 forward_v I I I I #
coedge $-1 $182 $112 $183 $184 forward $62 $-1 #
coedge $-1 $185 $64 $182 $186 forward $41 $-1 #
coedge $-1 $64 $185 $187 $188 forward $41 $-1 #
coedge $-1 $115 $114 $64 $108 reversed $116 $-1 #
edge $-1 $189 -47.957336608371342 $190 47.957336608371342 $107 $191 forward 7 unknown #
coedge $-1 $66 $65 $192 $193 forward $26 $-1 #
coedge $-1 $194 $195 $65 $111 reversed $179 $-1 #
edge $-1 $118 -72.084719382305366 $196 72.084719382305366 $110 $197 forward 7 unknown #
coedge $-1 $104 $198 $66 $113 reversed $62 $-1 #
edge $-1 $199 -72.084719382305366 $117 72.084719382305366 $112 $200 forward 7 unknown #
coedge $-1 $107 $67 $198 $201 forward $116 $-1 #
coedge $-1 $67 $107 $194 $202 reversed $116 $-1 #
loop $-1 $-1 $114 $178 #
vertex $-1 $68 $203 #
vertex $-1 $68 $204 #
straight-curve $-1 72.084719382305366 0 20.634226949048202 0 1 0 I I #
face $-1 $205 $206 $16 $-1 $207 reversed single #
loop $-1 $-1 $208 $69 #
plane-surface $-1 0 0 -20.634226949048202 0 0 1 1 0 0 forward_v I I I I #
coedge $-1 $209 $210 $211 $212 forward $70 $-1 #
coedge $-1 $213 $72 $214 $215 reversed $45 $-1 #
coedge $-1 $72 $213 $74 $131 reversed $45 $-1 #
coedge $-1 $216 $217 $72 $127 reversed $218 $-1 #
edge $-1 $219 -3.5862257470056651 $220 3.5862257470056633 $126 $221 forward 7 unknown #
coedge $-1 $74 $73 $216 $222 forward $29 $-1 #
coedge $-1 $223 $224 $73 $130 forward $206 $-1 #
edge $-1 $225 -72.084719382305366 $136 72.084719382305366 $129 $226 forward 7 unknown #
edge $-1 $219 -72.084719382305366 $135 72.084719382305366 $125 $227 forward 7 unknown #
coedge $-1 $228 $75 $213 $229 forward $134 $-1 #
coedge $-1 $75 $211 $223 $230 forward $134 $-1 #
loop $-1 $-1 $133 $231 #
vertex $-1 $76 $232 #
vertex $-1 $76 $233 #
straight-curve $-1 72.084719382305366 -55.708839913853303 -13.461775455036873 0 1 0 I I #
face $-1 $234 $235 $17 $-1 $236 forward single #
loop $-1 $-1 $237 $77 #
plane-surface $-1 0 -63.460343219335265 -17.048001202042538 0 1 0 0 0 1 forward_v I I I I #
coedge $-1 $238 $239 $240 $241 forward $78 $-1 #
coedge $-1 $242 $80 $243 $244 reversed $49 $-1 #
coedge $-1 $80 $242 $81 $147 reversed $49 $-1 #
coedge $-1 $83 $245 $80 $145 reversed $151 $-1 #
edge $-1 $153 -3.5862257470056651 $246 3.5862257470056633 $144 $247 forward 7 unknown #
coedge $-1 $82 $81 $248 $249 forward $32 $-1 #
edge $-1 $153 -72.084719382305366 $250 72.084719382305366 $143 $251 forward 7 unknown #
coedge $-1 $252 $253 $82 $149 forward $254 $-1 #
edge $-1 $152 -72.084719382305366 $255 72.084719382305366 $148 $256 forward 7 unknown #
coedge $-1 $257 $83 $253 $258 reversed $151 $-1 #
loop $-1 $-1 $259 $260 #
vertex $-1 $258 $261 #
vertex $-1 $84 $262 #
straight-curve $-1 72.084719382305366 55.708839913853303 -13.461775455036873 0 1 0 I I #
face $-1 $263 $264 $18 $-1 $265 forward single #
loop $-1 $-1 $266 $85 #
plane-surface $-1 0 0 20.634226949048202 0 0 1 1 0 0 forward_v I I I I #
coedge $-1 $267 $268 $266 $269 reversed $86 $-1 #
coedge $-1 $270 $88 $268 $271 reversed $53 $-1 #
coedge $-1 $88 $270 $89 $163 reversed $53 $-1 #
coedge $-1 $91 $266 $88 $162 forward $156 $-1 #
edge $-1 $272 -5.1750876499116387 $167 5.3465453211403045 $161 $273 forward 7 unknown #
edge $-1 $167 135.41475057473338 $274 144.16943876461073 $89 $275 forward 7 unknown #
coedge $-1 $276 $277 $90 $165 forward $278 $-1 #
edge $-1 $168 88.505949757748226 $274 94.249542060560458 $164 $279 forward 7 unknown #
coedge $-1 $280 $91 $277 $281 forward $156 $-1 #
vertex $-1 $162 $282 #
vertex $-1 $281 $283 #
straight-curve $-1 28.931163463703243 5.4322741567546373 20.634226949048198 1 0 0 I I #
face $-1 $284 $285 $19 $-1 $286 forward single #
loop $-1 $287 $99 $93 #
plane-surface $-1 -36.721336228822523 0.17145767122866573 109.47429780246497 0.6560590369687036 0 0.75470957328743171 0.75470957328743171 0 -0.6560590369687036 forward_v I I I I #
coedge $-1 $288 $289 $290 $291 reversed $94 $-1 #
coedge $-1 $174 $174 $-1 $292 forward $96 $-1 #
edge $-1 $293 0 $293 6.2831853071796004 $97 $294 forward 7 unknown #
vertex $-1 $100 $295 #
ellipse-curve $-1 68.781095888281925 0.17145767122866573 17.762430797642082 -0.6560590369687036 0 -0.75470957328743171 1.1320643599311475 0 -0.9840885554530554 1 I I #
face $-1 $-1 $116 $15 $-1 $296 reversed single #
loop $-1 $-1 $194 $101 #
plane-surface $-1 0 47.957336608371342 0 0 -1 0 0 0 -1 forward_v I I I I #
coedge $-1 $297 $192 $195 $298 forward $102 $-1 #
coedge $-1 $198 $104 $105 $186 reversed $62 $-1 #
coedge $-1 $192 $297 $104 $184 reversed $102 $-1 #
edge $-1 $199 -20.634226949048202 $299 20.634226949048202 $183 $300 forward 7 unknown #
coedge $-1 $106 $105 $297 $301 forward $41 $-1 #
edge $-1 $190 -72.084719382305366 $299 72.084719382305366 $182 $302 forward 7 unknown #
coedge $-1 $195 $194 $106 $188 reversed $179 $-1 #
edge $-1 $303 -72.084719382305366 $189 72.084719382305366 $187 $304 forward 7 unknown #
vertex $-1 $108 $305 #
vertex $-1 $201 $306 #
straight-curve $-1 72.084719382305366 0 -20.634226949048202 0 -1 0 I I #
coedge $-1 $181 $183 $109 $193 reversed $102 $-1 #
edge $-1 $196 -47.957336608371342 $199 47.957336608371342 $192 $307 forward 7 unknown #
coedge $-1 $187 $110 $115 $202 forward $179 $-1 #
coedge $-1 $110 $187 $181 $298 reversed $179 $-1 #
vertex $-1 $111 $308 #
straight-curve $-1 0 47.957336608371342 20.634226949048202 -1 0 0 I I #
coedge $-1 $112 $182 $114 $201 reversed $62 $-1 #
vertex $-1 $193 $309 #
straight-curve $-1 0 -47.957336608371342 20.634226949048202 1 0 0 I I #
edge $-1 $117 -20.634226949048202 $190 20.634226949048202 $114 $310 forward 7 unknown #
edge $-1 $118 -20.634226949048202 $189 20.634226949048202 $115 $311 forward 7 unknown #
point $-1 72.084719382305366 -47.957336608371342 20.634226949048202 #
point $-1 72.084719382305366 47.957336608371342 20.634226949048202 #
face $-1 $312 $218 $16 $-1 $313 reversed single #
loop $-1 $-1 $129 $120 #
plane-surface $-1 0 -47.957336608371342 0 0 1 0 0 0 1 forward_v I I I I #
coedge $-1 $214 $314 $228 $315 forward $121 $-1 #
coedge $-1 $316 $123 $317 $318 forward $70 $-1 #
coedge $-1 $123 $316 $319 $320 forward $70 $-1 #
coedge $-1 $133 $321 $123 $212 reversed $134 $-1 #
edge $-1 $322 -47.957336608371342 $323 47.957336608371342 $211 $324 forward 7 unknown #
coedge $-1 $125 $124 $132 $229 reversed $45 $-1 #
coedge $-1 $325 $208 $124 $215 forward $121 $-1 #
edge $-1 $326 -72.084719382305366 $220 72.084719382305366 $124 $327 forward 7 unknown #
coedge $-1 $328 $126 $128 $222 reversed $218 $-1 #
coedge $-1 $126 $329 $325 $330 reversed $218 $-1 #
loop $-1 $-1 $329 $205 #
vertex $-1 $222 $331 #
vertex $-1 $330 $332 #
straight-curve $-1 -72.084719382305366 -63.460343219335265 -17.048001202042538 0 0 -1 I I #
edge $-1 $225 -7.7515033054819611 $219 7.7515033054819611 $216 $333 forward 7 unknown #
coedge $-1 $319 $129 $133 $230 reversed $206 $-1 #
coedge $-1 $129 $319 $328 $334 forward $206 $-1 #
vertex $-1 $334 $335 #
straight-curve $-1 0 -47.957336608371342 -13.461775455036873 1 0 0 I I #
straight-curve $-1 0 -63.460343219335265 -13.461775455036873 1 0 0 I I #
coedge $-1 $321 $132 $208 $315 reversed $134 $-1 #
edge $-1 $135 -3.5862257470056651 $326 3.5862257470056633 $132 $336 forward 7 unknown #
edge $-1 $322 -20.634226949048202 $136 13.461775455036873 $133 $337 forward 7 unknown #
face $-1 $-1 $134 $16 $-1 $338 reversed single #
point $-1 72.084719382305366 -63.460343219335265 -13.461775455036873 #
point $-1 72.084719382305366 -47.957336608371342 -13.461775455036873 #
face $-1 $339 $340 $17 $-1 $341 reversed single #
loop $-1 $-1 $342 $138 #
plane-surface $-1 0 0 20.634226949048202 0 0 1 1 0 0 forward_v I I I I #
coedge $-1 $343 $344 $345 $346 forward $139 $-1 #
coedge $-1 $347 $141 $348 $349 reversed $78 $-1 #
coedge $-1 $141 $347 $344 $350 forward $78 $-1 #
coedge $-1 $351 $259 $141 $241 reversed $151 $-1 #
edge $-1 $352 -7.7515033054819611 $353 7.7515033054819611 $240 $354 forward 7 unknown #
coedge $-1 $143 $142 $355 $356 reversed $49 $-1 #
coedge $-1 $357 $358 $142 $244 forward $340 $-1 #
edge $-1 $359 -72.084719382305366 $246 72.084719382305366 $142 $360 forward 7 unknown #
coedge $-1 $144 $351 $357 $361 reversed $151 $-1 #
vertex $-1 $361 $362 #
straight-curve $-1 72.084719382305366 63.460343219335265 -17.048001202042538 0 0 -1 I I #
coedge $-1 $355 $363 $146 $249 reversed $364 $-1 #
edge $-1 $250 -7.7515033054819611 $255 7.7515033054819611 $248 $365 forward 7 unknown #
vertex $-1 $147 $366 #
straight-curve $-1 0 63.460343219335265 -13.461775455036873 -1 0 0 I I #
coedge $-1 $367 $148 $363 $368 reversed $254 $-1 #
coedge $-1 $148 $367 $150 $258 forward $254 $-1 #
loop $-1 $-1 $148 $369 #
vertex $-1 $249 $370 #
straight-curve $-1 0 47.957336608371342 -13.461775455036873 -1 0 0 I I #
coedge $-1 $259 $150 $342 $371 reversed $151 $-1 #
edge $-1 $372 -20.634226949048202 $152 13.461775455036873 $150 $373 forward 7 unknown #
coedge $-1 $240 $257 $374 $375 forward $151 $-1 #
face $-1 $-1 $151 $17 $-1 $376 reversed single #
point $-1 72.084719382305366 47.957336608371342 -13.461775455036873 #
point $-1 72.084719382305366 63.460343219335265 -13.461775455036873 #
face $-1 $377 $378 $18 $-1 $379 reversed single #
loop $-1 $-1 $380 $155 #
plane-surface $-1 0 55.708839913853303 -13.461775455036873 0 0 1 1 0 0 forward_v I I I I #
coedge $-1 $161 $381 $158 $269 forward $156 $-1 #
coedge $-1 $268 $158 $382 $383 reversed $86 $-1 #
coedge $-1 $158 $267 $159 $271 forward $86 $-1 #
edge $-1 $384 -43.153555918602123 $272 -36.546308930555256 $266 $385 forward 7 unknown #
coedge $-1 $160 $159 $276 $386 reversed $53 $-1 #
edge $-1 $387 -144.16943876461073 $272 -135.41475057473338 $268 $388 forward 7 unknown #
vertex $-1 $162 $389 #
straight-curve $-1 65.477472394258498 0.085728835614332866 20.634226949048212 0 1 0 I I #
vertex $-1 $386 $390 #
straight-curve $-1 -36.721336228822523 5.4322741567546373 109.47429780246497 0.75470957328743171 0 -0.6560590369687036 I I #
coedge $-1 $382 $164 $270 $386 forward $278 $-1 #
coedge $-1 $164 $391 $166 $281 reversed $278 $-1 #
loop $-1 $-1 $382 $392 #
straight-curve $-1 72.084719382305366 5.4322741567546373 109.14017670679642 0 0 -1 I I #
coedge $-1 $393 $166 $394 $395 forward $156 $-1 #
edge $-1 $168 5.4322741567546373 $396 47.957336608371342 $277 $397 forward 7 unknown #
point $-1 65.477472394258498 5.4322741567546373 20.634226949048198 #
point $-1 72.084719382305366 5.4322741567546373 20.634226949048202 #
face $-1 $398 $399 $19 $-1 $400 forward single #
loop $-1 $-1 $401 $170 #
plane-surface $-1 57.862326927406485 -5.0893588142973059 218.28035341359285 0 1 0 0.6560590369687036 0 0.75470957328743171 forward_v I I I I #
loop $-1 $-1 $402 $93 #
coedge $-1 $289 $173 $403 $404 forward $94 $-1 #
coedge $-1 $173 $288 $405 $406 reversed $94 $-1 #
coedge $-1 $407 $408 $173 $291 forward $399 $-1 #
edge $-1 $409 36.546308930555256 $410 43.153555918602123 $290 $411 forward 7 unknown #
edge $-1 $412 1 $412 0 $174 $-1 forward 7 unknown #
vertex $-1 $175 $413 #
ellipse-curve $-1 65.308389822208241 0.17145767122866573 13.767539536957921 0.6560590369687036 0 0.75470957328743171 1.1320643599311475 0 -0.9840885554530554 1 I I #
point $-1 69.913160248213089 0.17145767122866573 16.778342242189051 #
plane-surface $-1 72.084719382305366 0 0 -1 0 0 0 0 1 forward_v I I I I #
coedge $-1 $183 $181 $185 $301 reversed $102 $-1 #
edge $-1 $196 -20.634226949048202 $303 20.634226949048202 $195 $414 forward 7 unknown #
vertex $-1 $301 $415 #
straight-curve $-1 -72.084719382305366 -47.957336608371342 0 0 0 -1 I I #
edge $-1 $299 -47.957336608371342 $303 47.957336608371342 $297 $416 forward 7 unknown #
straight-curve $-1 0 -47.957336608371342 -20.634226949048202 -1 0 0 I I #
vertex $-1 $188 $417 #
straight-curve $-1 0 47.957336608371342 -20.634226949048202 1 0 0 I I #
point $-1 72.084719382305366 47.957336608371342 -20.634226949048202 #
point $-1 72.084719382305366 -47.957336608371342 -20.634226949048202 #
straight-curve $-1 -72.084719382305366 0 20.634226949048202 0 -1 0 I I #
point $-1 -72.084719382305366 47.957336608371342 20.634226949048202 #
point $-1 -72.084719382305366 -47.957336608371342 20.634226949048202 #
straight-curve $-1 72.084719382305366 -47.957336608371342 0 0 0 -1 I I #
straight-curve $-1 72.084719382305366 47.957336608371342 0 0 0 -1 I I #
face $-1 $231 $418 $16 $-1 $419 reversed single #
plane-surface $-1 -72.084719382305366 0 0 1 0 0 0 0 -1 forward_v I I I I #
coedge $-1 $208 $325 $420 $421 forward $121 $-1 #
edge $-1 $422 -47.957336608371342 $326 63.460343219335265 $228 $423 forward 7 unknown #
coedge $-1 $210 $209 $424 $425 forward $70 $-1 #
coedge $-1 $426 $427 $209 $318 reversed $418 $-1 #
edge $-1 $323 -72.084719382305366 $428 72.084719382305366 $317 $429 forward 7 unknown #
coedge $-1 $224 $223 $210 $320 reversed $206 $-1 #
edge $-1 $430 -72.084719382305366 $322 72.084719382305366 $319 $431 forward 7 unknown #
coedge $-1 $211 $228 $426 $432 reversed $134 $-1 #
vertex $-1 $212 $433 #
vertex $-1 $212 $434 #
straight-curve $-1 72.084719382305366 0 20.634226949048202 0 1 0 I I #
coedge $-1 $314 $214 $217 $330 forward $121 $-1 #
vertex $-1 $229 $435 #
straight-curve $-1 0 -63.460343219335265 -20.634226949048202 -1 0 0 I I #
coedge $-1 $424 $216 $224 $334 reversed $218 $-1 #
coedge $-1 $217 $424 $427 $436 forward $218 $-1 #
edge $-1 $220 -63.460343219335265 $437 47.957336608371342 $217 $438 forward 7 unknown #
point $-1 -72.084719382305366 -63.460343219335265 -13.461775455036873 #
point $-1 -72.084719382305366 -63.460343219335265 -20.634226949048202 #
straight-curve $-1 -72.084719382305366 -55.708839913853303 -13.461775455036873 0 -1 0 I I #
edge $-1 $430 -20.634226949048202 $225 13.461775455036873 $328 $439 forward 7 unknown #
point $-1 -72.084719382305366 -47.957336608371342 -13.461775455036873 #
straight-curve $-1 72.084719382305366 -63.460343219335265 -17.048001202042538 0 0 -1 I I #
straight-curve $-1 72.084719382305366 -47.957336608371342 0 0 0 -1 I I #
plane-surface $-1 72.084719382305366 0 0 -1 0 0 0 0 1 forward_v I I I I #
face $-1 $440 $441 $17 $-1 $442 reversed single #
loop $-1 $-1 $357 $234 #
plane-surface $-1 0 0 -20.634226949048202 0 0 1 1 0 0 forward_v I I I I #
coedge $-1 $443 $444 $257 $371 forward $235 $-1 #
coedge $-1 $445 $237 $446 $447 reversed $139 $-1 #
coedge $-1 $237 $445 $239 $350 reversed $139 $-1 #
coedge $-1 $448 $449 $237 $346 reversed $364 $-1 #
edge $-1 $450 -3.5862257470056651 $451 3.5862257470056633 $345 $452 forward 7 unknown #
coedge $-1 $239 $238 $448 $453 forward $78 $-1 #
coedge $-1 $374 $454 $238 $349 forward $441 $-1 #
edge $-1 $455 -72.084719382305366 $353 72.084719382305366 $348 $456 forward 7 unknown #
edge $-1 $450 -72.084719382305366 $352 72.084719382305366 $344 $457 forward 7 unknown #
coedge $-1 $245 $240 $445 $458 forward $151 $-1 #
vertex $-1 $241 $459 #
vertex $-1 $241 $460 #
straight-curve $-1 72.084719382305366 -55.708839913853303 -13.461775455036873 0 1 0 I I #
coedge $-1 $449 $248 $242 $356 forward $364 $-1 #
edge $-1 $250 -3.5862257470056651 $359 3.5862257470056633 $242 $461 forward 7 unknown #
coedge $-1 $446 $243 $245 $361 forward $340 $-1 #
coedge $-1 $243 $446 $449 $462 forward $340 $-1 #
vertex $-1 $244 $463 #
straight-curve $-1 0 63.460343219335265 -20.634226949048202 1 0 0 I I #
edge $-1 $246 -63.460343219335265 $464 63.460343219335265 $245 $465 forward 7 unknown #
point $-1 72.084719382305366 63.460343219335265 -20.634226949048202 #
coedge $-1 $248 $466 $252 $368 forward $364 $-1 #
loop $-1 $-1 $363 $440 #
straight-curve $-1 -72.084719382305366 55.708839913853303 -13.461775455036873 0 -1 0 I I #
point $-1 -72.084719382305366 63.460343219335265 -13.461775455036873 #
coedge $-1 $253 $252 $443 $467 reversed $254 $-1 #
edge $-1 $468 -20.634226949048202 $255 13.461775455036873 $252 $469 forward 7 unknown #
face $-1 $260 $254 $17 $-1 $470 reversed single #
point $-1 -72.084719382305366 47.957336608371342 -13.461775455036873 #
edge $-1 $471 -47.957336608371342 $372 47.957336608371342 $257 $472 forward 7 unknown #
vertex $-1 $371 $473 #
straight-curve $-1 72.084719382305366 47.957336608371342 0 0 0 -1 I I #
coedge $-1 $474 $348 $259 $375 reversed $441 $-1 #
edge $-1 $471 -20.634226949048202 $353 13.461775455036873 $259 $475 forward 7 unknown #
plane-surface $-1 72.084719382305366 0 0 -1 0 0 0 0 1 forward_v I I I I #
face $-1 $476 $477 $18 $-1 $478 forward single #
loop $-1 $-1 $479 $263 #
plane-surface $-1 0 63.460343219335265 -17.048001202042538 0 -1 0 0 0 -1 forward_v I I I I #
coedge $-1 $480 $481 $482 $483 forward $264 $-1 #
coedge $-1 $266 $484 $485 $486 forward $156 $-1 #
coedge $-1 $485 $276 $267 $383 forward $278 $-1 #
edge $-1 $387 -94.249542060560458 $384 -88.505949757748226 $382 $487 forward 7 unknown #
vertex $-1 $383 $488 #
straight-curve $-1 28.931163463703243 -5.0893588142973059 20.634226949048198 -1 0 0 I I #
edge $-1 $274 -5.3465453211403045 $387 5.1750876499116387 $276 $489 forward 7 unknown #
vertex $-1 $386 $490 #
straight-curve $-1 -36.721336228822523 -5.0893588142973059 109.47429780246497 -0.75470957328743171 0 0.6560590369687036 I I #
point $-1 65.477472394258498 -5.0893588142973059 20.634226949048198 #
point $-1 72.084719382305352 5.4322741567546373 14.890634646235966 #
coedge $-1 $277 $482 $491 $492 reversed $278 $-1 #
face $-1 $-1 $278 $18 $-1 $493 reversed single #
coedge $-1 $484 $280 $494 $495 forward $156 $-1 #
coedge $-1 $491 $496 $280 $395 reversed $497 $-1 #
edge $-1 $396 -72.084719382305366 $498 72.084719382305366 $394 $499 forward 7 unknown #
vertex $-1 $281 $500 #
straight-curve $-1 72.084719382305366 0 20.634226949048202 0 1 0 I I #
face $-1 $501 $502 $19 $-1 $503 forward single #
loop $-1 $-1 $504 $284 #
plane-surface $-1 0 0 20.634226949048202 0 0 1 1 0 0 forward_v I I I I #
coedge $-1 $505 $506 $504 $507 reversed $285 $-1 #
coedge $-1 $508 $403 $408 $509 reversed $287 $-1 #
coedge $-1 $402 $510 $288 $404 reversed $287 $-1 #
edge $-1 $409 135.41475057473338 $511 144.16943876461073 $288 $512 forward 7 unknown #
coedge $-1 $513 $514 $289 $406 forward $515 $-1 #
edge $-1 $410 88.505949757748226 $511 94.249542060560458 $405 $516 forward 7 unknown #
coedge $-1 $517 $290 $514 $518 forward $399 $-1 #
coedge $-1 $290 $504 $402 $509 forward $399 $-1 #
vertex $-1 $509 $519 #
vertex $-1 $518 $520 #
straight-curve $-1 28.931163463703243 5.4322741567546373 20.634226949048198 1 0 0 I I #
vertex $-1 $292 $521 #
point $-1 66.440454182139391 0.17145767122866573 12.783450981504867 #
straight-curve $-1 -72.084719382305366 47.957336608371342 0 0 0 -1 I I #
point $-1 -72.084719382305366 -47.957336608371342 -20.634226949048202 #
straight-curve $-1 -72.084719382305366 0 -20.634226949048202 0 1 0 I I #
point $-1 -72.084719382305366 47.957336608371342 -20.634226949048202 #
loop $-1 $-1 $426 $312 #
plane-surface $-1 0 47.957336608371342 0 0 -1 0 0 0 -1 forward_v I I I I #
coedge $-1 $427 $426 $314 $421 reversed $418 $-1 #
edge $-1 $437 -72.084719382305366 $422 72.084719382305366 $420 $522 forward 7 unknown #
vertex $-1 $315 $523 #
straight-curve $-1 72.084719382305366 0 -20.634226949048202 0 -1 0 I I #
coedge $-1 $329 $328 $316 $425 reversed $218 $-1 #
edge $-1 $428 -47.957336608371342 $430 47.957336608371342 $424 $524 forward 7 unknown #
coedge $-1 $420 $317 $321 $432 forward $418 $-1 #
coedge $-1 $317 $420 $329 $436 reversed $418 $-1 #
vertex $-1 $318 $525 #
straight-curve $-1 0 47.957336608371342 20.634226949048202 -1 0 0 I I #
vertex $-1 $425 $526 #
straight-curve $-1 0 -47.957336608371342 20.634226949048202 1 0 0 I I #
edge $-1 $323 -20.634226949048202 $422 20.634226949048202 $321 $527 forward 7 unknown #
point $-1 72.084719382305366 -47.957336608371342 20.634226949048202 #
point $-1 72.084719382305366 47.957336608371342 20.634226949048202 #
point $-1 72.084719382305366 -63.460343219335265 -20.634226949048202 #
edge $-1 $428 -20.634226949048202 $437 20.634226949048202 $427 $528 forward 7 unknown #
vertex $-1 $421 $529 #
straight-curve $-1 -72.084719382305366 0 -20.634226949048202 0 1 0 I I #
straight-curve $-1 -72.084719382305366 -47.957336608371342 0 0 0 -1 I I #
face $-1 $369 $364 $17 $-1 $530 reversed single #
loop $-1 $-1 $348 $339 #
plane-surface $-1 0 -47.957336608371342 0 0 1 0 0 0 1 forward_v I I I I #
coedge $-1 $531 $342 $367 $467 forward $235 $-1 #
coedge $-1 $342 $531 $474 $532 forward $235 $-1 #
coedge $-1 $344 $343 $351 $458 reversed $139 $-1 #
coedge $-1 $358 $357 $343 $447 forward $340 $-1 #
edge $-1 $464 -72.084719382305366 $451 72.084719382305366 $343 $533 forward 7 unknown #
coedge $-1 $534 $345 $347 $453 reversed $364 $-1 #
coedge $-1 $345 $355 $358 $462 reversed $364 $-1 #
vertex $-1 $453 $535 #
vertex $-1 $462 $536 #
straight-curve $-1 -72.084719382305366 -63.460343219335265 -17.048001202042538 0 0 -1 I I #
edge $-1 $455 -7.7515033054819611 $450 7.7515033054819611 $448 $537 forward 7 unknown #
coedge $-1 $348 $474 $534 $538 forward $441 $-1 #
vertex $-1 $538 $539 #
straight-curve $-1 0 -47.957336608371342 -13.461775455036873 1 0 0 I I #
straight-curve $-1 0 -63.460343219335265 -13.461775455036873 1 0 0 I I #
edge $-1 $352 -3.5862257470056651 $464 3.5862257470056633 $351 $540 forward 7 unknown #
point $-1 72.084719382305366 -63.460343219335265 -13.461775455036873 #
point $-1 72.084719382305366 -47.957336608371342 -13.461775455036873 #
straight-curve $-1 -72.084719382305366 63.460343219335265 -17.048001202042538 0 0 -1 I I #
edge $-1 $451 -119.16918313318857 $359 7.7515033054819611 $449 $541 forward 7 unknown #
point $-1 -72.084719382305366 63.460343219335265 -20.634226949048202 #
vertex $-1 $458 $542 #
straight-curve $-1 72.084719382305366 0 -20.634226949048202 0 -1 0 I I #
coedge $-1 $363 $534 $531 $543 reversed $364 $-1 #
edge $-1 $372 -72.084719382305366 $468 72.084719382305366 $367 $544 forward 7 unknown #
vertex $-1 $467 $545 #
straight-curve $-1 -72.084719382305366 47.957336608371342 0 0 0 -1 I I #
plane-surface $-1 0 47.957336608371342 0 0 -1 0 0 0 -1 forward_v I I I I #
vertex $-1 $371 $546 #
straight-curve $-1 72.084719382305366 0 20.634226949048202 0 1 0 I I #
point $-1 72.084719382305366 47.957336608371342 20.634226949048202 #
coedge $-1 $454 $374 $444 $532 reversed $441 $-1 #
straight-curve $-1 72.084719382305366 -47.957336608371342 0 0 0 -1 I I #
face $-1 $547 $548 $18 $-1 $549 reversed single #
loop $-1 $-1 $550 $377 #
plane-surface $-1 0 -55.708839913853303 -13.461775455036873 0 0 1 1 0 0 forward_v I I I I #
coedge $-1 $551 $552 $553 $554 forward $378 $-1 #
coedge $-1 $555 $380 $552 $556 forward $264 $-1 #
coedge $-1 $380 $555 $557 $558 reversed $264 $-1 #
coedge $-1 $391 $553 $380 $483 reversed $278 $-1 #
edge $-1 $559 -7.7515033054819611 $560 7.7515033054819611 $482 $561 forward 7 unknown #
coedge $-1 $381 $393 $562 $563 forward $156 $-1 #
coedge $-1 $564 $382 $381 $486 reversed $278 $-1 #
edge $-1 $565 -47.957336608371342 $384 -5.0893588142973059 $485 $397 forward 7 unknown #
straight-curve $-1 72.084719382305366 -5.0893588142973059 109.14017670679642 0 0 1 I I #
point $-1 72.084719382305366 -5.0893588142973059 20.634226949048202 #
straight-curve $-1 72.084719382305366 0.085728835614332866 14.890634646235966 0 -1 0 I I #
point $-1 72.084719382305352 -5.0893588142973059 14.890634646235966 #
coedge $-1 $557 $394 $391 $492 forward $497 $-1 #
edge $-1 $396 -20.634226949048202 $559 13.461775455036873 $391 $566 forward 7 unknown #
plane-surface $-1 72.084719382305366 0 0 -1 0 0 0 0 1 forward_v I I I I #
coedge $-1 $567 $568 $393 $495 reversed $569 $-1 #
edge $-1 $498 -47.957336608371342 $570 47.957336608371342 $494 $571 forward 7 unknown #
coedge $-1 $394 $557 $567 $572 reversed $497 $-1 #
loop $-1 $-1 $557 $573 #
vertex $-1 $395 $574 #
straight-curve $-1 0 47.957336608371342 20.634226949048202 -1 0 0 I I #
point $-1 72.084719382305366 47.957336608371342 20.634226949048202 #
face $-1 $575 $576 $19 $-1 $577 reversed single #
loop $-1 $-1 $578 $398 #
plane-surface $-1 0 55.708839913853303 -13.461775455036873 0 0 1 1 0 0 forward_v I I I I #
coedge $-1 $408 $579 $401 $507 forward $399 $-1 #
coedge $-1 $506 $401 $580 $581 reversed $285 $-1 #
coedge $-1 $401 $505 $508 $582 forward $285 $-1 #
edge $-1 $583 -43.153555918602123 $584 -36.546308930555256 $504 $585 forward 7 unknown #
coedge $-1 $510 $402 $506 $582 reversed $287 $-1 #
edge $-1 $584 -5.1750876499116387 $409 5.3465453211403045 $408 $586 forward 7 unknown #
coedge $-1 $403 $508 $513 $587 reversed $287 $-1 #
vertex $-1 $587 $588 #
straight-curve $-1 -36.721336228822523 5.4322741567546373 109.47429780246497 0.75470957328743171 0 -0.6560590369687036 I I #
coedge $-1 $580 $405 $510 $587 forward $515 $-1 #
coedge $-1 $405 $589 $407 $518 reversed $515 $-1 #
loop $-1 $-1 $580 $590 #
straight-curve $-1 72.084719382305366 5.4322741567546373 109.14017670679642 0 0 -1 I I #
coedge $-1 $591 $407 $592 $593 forward $399 $-1 #
edge $-1 $410 5.4322741567546373 $594 47.957336608371342 $514 $595 forward 7 unknown #
point $-1 65.477472394258498 5.4322741567546373 20.634226949048198 #
point $-1 72.084719382305366 5.4322741567546373 20.634226949048202 #
point $-1 64.324301266755199 0.17145767122866573 12.635475177026775 #
straight-curve $-1 0 47.957336608371342 -20.634226949048202 1 0 0 I I #
point $-1 72.084719382305366 47.957336608371342 -20.634226949048202 #
straight-curve $-1 -72.084719382305366 0 20.634226949048202 0 -1 0 I I #
point $-1 -72.084719382305366 47.957336608371342 20.634226949048202 #
point $-1 -72.084719382305366 -47.957336608371342 20.634226949048202 #
straight-curve $-1 72.084719382305366 47.957336608371342 0 0 0 -1 I I #
straight-curve $-1 -72.084719382305366 47.957336608371342 0 0 0 -1 I I #
point $-1 -72.084719382305366 47.957336608371342 -20.634226949048202 #
plane-surface $-1 -72.084719382305366 0 0 1 0 0 0 0 -1 forward_v I I I I #
coedge $-1 $444 $443 $466 $543 forward $235 $-1 #
edge $-1 $596 -72.084719382305366 $471 72.084719382305366 $474 $597 forward 7 unknown #
straight-curve $-1 0 -63.460343219335265 -20.634226949048202 -1 0 0 I I #
coedge $-1 $466 $448 $454 $538 reversed $364 $-1 #
point $-1 -72.084719382305366 -63.460343219335265 -13.461775455036873 #
point $-1 -72.084719382305366 -63.460343219335265 -20.634226949048202 #
straight-curve $-1 -72.084719382305366 -55.708839913853303 -13.461775455036873 0 -1 0 I I #
edge $-1 $596 -20.634226949048202 $455 13.461775455036873 $534 $598 forward 7 unknown #
point $-1 -72.084719382305366 -47.957336608371342 -13.461775455036873 #
straight-curve $-1 72.084719382305366 -63.460343219335265 -17.048001202042538 0 0 -1 I I #
straight-curve $-1 -72.084719382305366 55.708839913853303 -20.634226949048202 0 1 0 I I #
point $-1 72.084719382305366 -63.460343219335265 -20.634226949048202 #
edge $-1 $468 -47.957336608371342 $596 47.957336608371342 $466 $599 forward 7 unknown #
straight-curve $-1 0 47.957336608371342 20.634226949048202 -1 0 0 I I #
point $-1 -72.084719382305366 47.957336608371342 20.634226949048202 #
point $-1 72.084719382305366 -47.957336608371342 20.634226949048202 #
face $-1 $600 $601 $18 $-1 $602 reversed single #
loop $-1 $-1 $603 $476 #
plane-surface $-1 0 -63.460343219335265 -17.048001202042538 0 1 0 0 0 1 forward_v I I I I #
coedge $-1 $604 $605 $606 $607 forward $477 $-1 #
coedge $-1 $608 $479 $609 $610 reversed $378 $-1 #
coedge $-1 $479 $608 $480 $556 reversed $378 $-1 #
coedge $-1 $482 $611 $479 $554 reversed $278 $-1 #
edge $-1 $560 -3.5862257470056651 $612 3.5862257470056633 $553 $613 forward 7 unknown #
coedge $-1 $481 $480 $614 $615 forward $264 $-1 #
edge $-1 $560 -72.084719382305366 $616 72.084719382305366 $552 $617 forward 7 unknown #
coedge $-1 $496 $491 $481 $558 forward $497 $-1 #
edge $-1 $559 -72.084719382305366 $618 72.084719382305366 $557 $619 forward 7 unknown #
vertex $-1 $492 $620 #
vertex $-1 $483 $621 #
straight-curve $-1 72.084719382305366 55.708839913853303 -13.461775455036873 0 1 0 I I #
coedge $-1 $622 $623 $484 $563 reversed $624 $-1 #
edge $-1 $570 -72.084719382305366 $565 72.084719382305366 $562 $625 forward 7 unknown #
coedge $-1 $606 $485 $623 $626 forward $278 $-1 #
vertex $-1 $486 $627 #
straight-curve $-1 72.084719382305366 47.957336608371342 0 0 0 -1 I I #
coedge $-1 $614 $494 $496 $572 forward $569 $-1 #
coedge $-1 $494 $628 $622 $629 reversed $569 $-1 #
loop $-1 $-1 $567 $630 #
vertex $-1 $495 $631 #
straight-curve $-1 -72.084719382305366 0 20.634226949048202 0 -1 0 I I #
edge $-1 $498 -20.634226949048202 $618 13.461775455036873 $496 $632 forward 7 unknown #
face $-1 $392 $497 $18 $-1 $633 reversed single #
point $-1 -72.084719382305366 47.957336608371342 20.634226949048202 #
face $-1 $634 $635 $19 $-1 $636 forward single #
loop $-1 $-1 $637 $501 #
plane-surface $-1 0 63.460343219335265 -17.048001202042538 0 -1 0 0 0 -1 forward_v I I I I #
coedge $-1 $638 $639 $640 $641 forward $502 $-1 #
coedge $-1 $504 $642 $643 $644 forward $399 $-1 #
coedge $-1 $643 $513 $505 $581 forward $515 $-1 #
edge $-1 $645 -94.249542060560458 $583 -88.505949757748226 $580 $646 forward 7 unknown #
edge $-1 $645 -144.16943876461073 $584 -135.41475057473338 $506 $647 forward 7 unknown #
vertex $-1 $581 $648 #
vertex $-1 $509 $649 #
straight-curve $-1 28.931163463703243 -5.0893588142973059 20.634226949048198 -1 0 0 I I #
straight-curve $-1 65.477472394258498 0.085728835614332866 20.634226949048212 0 1 0 I I #
edge $-1 $511 -5.3465453211403045 $645 5.1750876499116387 $513 $650 forward 7 unknown #
point $-1 72.084719382305352 5.4322741567546373 14.890634646235966 #
coedge $-1 $514 $640 $651 $652 reversed $515 $-1 #
face $-1 $-1 $515 $19 $-1 $653 reversed single #
coedge $-1 $642 $517 $654 $655 forward $399 $-1 #
coedge $-1 $651 $656 $517 $593 reversed $657 $-1 #
edge $-1 $594 -72.084719382305366 $658 72.084719382305366 $592 $659 forward 7 unknown #
vertex $-1 $518 $660 #
straight-curve $-1 72.084719382305366 0 20.634226949048202 0 1 0 I I #
vertex $-1 $543 $661 #
straight-curve $-1 0 -47.957336608371342 20.634226949048202 1 0 0 I I #
straight-curve $-1 -72.084719382305366 -47.957336608371342 0 0 0 -1 I I #
straight-curve $-1 -72.084719382305366 0 20.634226949048202 0 -1 0 I I #
face $-1 $630 $624 $18 $-1 $662 reversed single #
loop $-1 $-1 $663 $547 #
plane-surface $-1 0 0 -20.634226949048202 0 0 1 1 0 0 forward_v I I I I #
coedge $-1 $664 $665 $666 $667 forward $548 $-1 #
coedge $-1 $668 $550 $669 $670 reversed $477 $-1 #
coedge $-1 $550 $668 $665 $671 forward $477 $-1 #
coedge $-1 $672 $564 $550 $607 reversed $278 $-1 #
edge $-1 $673 -7.7515033054819611 $674 7.7515033054819611 $606 $675 forward 7 unknown #
coedge $-1 $552 $551 $676 $677 reversed $378 $-1 #
coedge $-1 $663 $678 $551 $610 forward $601 $-1 #
edge $-1 $679 -72.084719382305366 $612 72.084719382305366 $551 $680 forward 7 unknown #
coedge $-1 $553 $672 $663 $681 reversed $278 $-1 #
vertex $-1 $681 $682 #
straight-curve $-1 72.084719382305366 63.460343219335265 -17.048001202042538 0 0 -1 I I #
coedge $-1 $676 $567 $555 $615 reversed $569 $-1 #
edge $-1 $616 -7.7515033054819611 $618 7.7515033054819611 $614 $683 forward 7 unknown #
vertex $-1 $556 $684 #
straight-curve $-1 0 63.460343219335265 -13.461775455036873 -1 0 0 I I #
vertex $-1 $615 $685 #
straight-curve $-1 0 47.957336608371342 -13.461775455036873 -1 0 0 I I #
point $-1 72.084719382305366 47.957336608371342 -13.461775455036873 #
point $-1 72.084719382305366 63.460343219335265 -13.461775455036873 #
coedge $-1 $669 $562 $568 $629 forward $624 $-1 #
coedge $-1 $562 $669 $564 $626 reversed $624 $-1 #
loop $-1 $-1 $669 $600 #
straight-curve $-1 0 -47.957336608371342 20.634226949048202 1 0 0 I I #
edge $-1 $565 -20.634226949048202 $674 13.461775455036873 $564 $686 forward 7 unknown #
point $-1 72.084719382305366 -47.957336608371342 20.634226949048202 #
coedge $-1 $568 $666 $668 $687 reversed $569 $-1 #
edge $-1 $570 -20.634226949048202 $688 13.461775455036873 $568 $689 forward 7 unknown #
face $-1 $573 $569 $18 $-1 $690 reversed single #
point $-1 -72.084719382305366 -47.957336608371342 20.634226949048202 #
straight-curve $-1 -72.084719382305366 47.957336608371342 0 0 0 -1 I I #
plane-surface $-1 0 47.957336608371342 0 0 -1 0 0 0 -1 forward_v I I I I #
face $-1 $691 $692 $19 $-1 $693 reversed single #
loop $-1 $-1 $694 $575 #
plane-surface $-1 0 -55.708839913853303 -13.461775455036873 0 0 1 1 0 0 forward_v I I I I #
coedge $-1 $695 $696 $697 $698 forward $576 $-1 #
coedge $-1 $699 $578 $696 $700 forward $502 $-1 #
coedge $-1 $578 $699 $701 $702 reversed $502 $-1 #
coedge $-1 $589 $697 $578 $641 reversed $515 $-1 #
edge $-1 $703 -7.7515033054819611 $704 7.7515033054819611 $640 $705 forward 7 unknown #
coedge $-1 $579 $591 $706 $707 forward $399 $-1 #
coedge $-1 $708 $580 $579 $644 reversed $515 $-1 #
edge $-1 $709 -47.957336608371342 $583 -5.0893588142973059 $643 $595 forward 7 unknown #
vertex $-1 $587 $710 #
straight-curve $-1 72.084719382305366 -5.0893588142973059 109.14017670679642 0 0 1 I I #
straight-curve $-1 -36.721336228822523 -5.0893588142973059 109.47429780246497 -0.75470957328743171 0 0.6560590369687036 I I #
point $-1 72.084719382305366 -5.0893588142973059 20.634226949048202 #
point $-1 65.477472394258498 -5.0893588142973059 20.634226949048198 #
straight-curve $-1 72.084719382305366 0.085728835614332866 14.890634646235966 0 -1 0 I I #
coedge $-1 $701 $592 $589 $652 forward $657 $-1 #
edge $-1 $594 -20.634226949048202 $703 13.461775455036873 $589 $711 forward 7 unknown #
plane-surface $-1 72.084719382305366 0 0 -1 0 0 0 0 1 forward_v I I I I #
coedge $-1 $712 $713 $591 $655 reversed $714 $-1 #
edge $-1 $658 -47.957336608371342 $715 47.957336608371342 $654 $716 forward 7 unknown #
coedge $-1 $592 $701 $712 $717 reversed $657 $-1 #
loop $-1 $-1 $701 $718 #
vertex $-1 $593 $719 #
straight-curve $-1 0 47.957336608371342 20.634226949048202 -1 0 0 I I #
point $-1 72.084719382305366 47.957336608371342 20.634226949048202 #
point $-1 -72.084719382305366 -47.957336608371342 20.634226949048202 #
plane-surface $-1 0 -47.957336608371342 0 0 1 0 0 0 1 forward_v I I I I #
coedge $-1 $720 $609 $611 $681 forward $601 $-1 #
coedge $-1 $721 $603 $720 $722 reversed $548 $-1 #
coedge $-1 $603 $721 $605 $671 reversed $548 $-1 #
coedge $-1 $628 $723 $603 $667 reversed $569 $-1 #
edge $-1 $724 -3.5862257470056651 $725 3.5862257470056633 $666 $726 forward 7 unknown #
coedge $-1 $605 $604 $628 $687 forward $477 $-1 #
coedge $-1 $623 $622 $604 $670 forward $624 $-1 #
edge $-1 $688 -72.084719382305366 $674 72.084719382305366 $669 $727 forward 7 unknown #
edge $-1 $724 -72.084719382305366 $673 72.084719382305366 $665 $728 forward 7 unknown #
coedge $-1 $611 $606 $721 $729 forward $278 $-1 #
vertex $-1 $607 $730 #
vertex $-1 $607 $731 #
straight-curve $-1 72.084719382305366 -55.708839913853303 -13.461775455036873 0 1 0 I I #
coedge $-1 $723 $614 $608 $677 forward $569 $-1 #
edge $-1 $616 -3.5862257470056651 $679 3.5862257470056633 $608 $732 forward 7 unknown #
coedge $-1 $609 $720 $723 $733 forward $601 $-1 #
vertex $-1 $610 $734 #
straight-curve $-1 0 63.460343219335265 -20.634226949048202 1 0 0 I I #
edge $-1 $612 -63.460343219335265 $735 63.460343219335265 $611 $736 forward 7 unknown #
point $-1 72.084719382305366 63.460343219335265 -20.634226949048202 #
straight-curve $-1 -72.084719382305366 55.708839913853303 -13.461775455036873 0 -1 0 I I #
point $-1 -72.084719382305366 63.460343219335265 -13.461775455036873 #
point $-1 -72.084719382305366 47.957336608371342 -13.461775455036873 #
straight-curve $-1 72.084719382305366 -47.957336608371342 0 0 0 -1 I I #
edge $-1 $688 -7.7515033054819611 $724 7.7515033054819611 $628 $737 forward 7 unknown #
vertex $-1 $629 $738 #
straight-curve $-1 -72.084719382305366 -47.957336608371342 0 0 0 -1 I I #
plane-surface $-1 -72.084719382305366 0 0 1 0 0 0 0 -1 forward_v I I I I #
face $-1 $739 $740 $19 $-1 $741 reversed single #
loop $-1 $-1 $742 $634 #
plane-surface $-1 0 -63.460343219335265 -17.048001202042538 0 1 0 0 0 1 forward_v I I I I #
coedge $-1 $743 $744 $745 $746 forward $635 $-1 #
coedge $-1 $747 $637 $748 $749 reversed $576 $-1 #
coedge $-1 $637 $747 $638 $700 reversed $576 $-1 #
coedge $-1 $640 $750 $637 $698 reversed $515 $-1 #
edge $-1 $704 -3.5862257470056651 $751 3.5862257470056633 $697 $752 forward 7 unknown #
coedge $-1 $639 $638 $753 $754 forward $502 $-1 #
edge $-1 $704 -72.084719382305366 $755 72.084719382305366 $696 $756 forward 7 unknown #
coedge $-1 $656 $651 $639 $702 forward $657 $-1 #
edge $-1 $703 -72.084719382305366 $757 72.084719382305366 $701 $758 forward 7 unknown #
vertex $-1 $652 $759 #
vertex $-1 $641 $760 #
straight-curve $-1 72.084719382305366 55.708839913853303 -13.461775455036873 0 1 0 I I #
coedge $-1 $761 $762 $642 $707 reversed $763 $-1 #
edge $-1 $715 -72.084719382305366 $709 72.084719382305366 $706 $764 forward 7 unknown #
coedge $-1 $745 $643 $762 $765 forward $515 $-1 #
vertex $-1 $644 $766 #
point $-1 72.084719382305352 -5.0893588142973059 14.890634646235966 #
straight-curve $-1 72.084719382305366 47.957336608371342 0 0 0 -1 I I #
coedge $-1 $753 $654 $656 $717 forward $714 $-1 #
coedge $-1 $654 $767 $761 $768 reversed $714 $-1 #
loop $-1 $-1 $712 $769 #
vertex $-1 $655 $770 #
straight-curve $-1 -72.084719382305366 0 20.634226949048202 0 -1 0 I I #
edge $-1 $658 -20.634226949048202 $757 13.461775455036873 $656 $771 forward 7 unknown #
face $-1 $590 $657 $19 $-1 $772 reversed single #
point $-1 -72.084719382305366 47.957336608371342 20.634226949048202 #
coedge $-1 $678 $663 $664 $722 forward $601 $-1 #
coedge $-1 $665 $664 $672 $729 reversed $548 $-1 #
edge $-1 $735 -72.084719382305366 $725 72.084719382305366 $664 $773 forward 7 unknown #
coedge $-1 $666 $676 $678 $733 reversed $569 $-1 #
vertex $-1 $687 $774 #
vertex $-1 $733 $775 #
straight-curve $-1 -72.084719382305366 -63.460343219335265 -17.048001202042538 0 0 -1 I I #
straight-curve $-1 0 -47.957336608371342 -13.461775455036873 1 0 0 I I #
straight-curve $-1 0 -63.460343219335265 -13.461775455036873 1 0 0 I I #
edge $-1 $673 -3.5862257470056651 $735 3.5862257470056633 $672 $776 forward 7 unknown #
point $-1 72.084719382305366 -63.460343219335265 -13.461775455036873 #
point $-1 72.084719382305366 -47.957336608371342 -13.461775455036873 #
straight-curve $-1 -72.084719382305366 63.460343219335265 -17.048001202042538 0 0 -1 I I #
edge $-1 $725 -119.16918313318857 $679 7.7515033054819611 $723 $777 forward 7 unknown #
point $-1 -72.084719382305366 63.460343219335265 -20.634226949048202 #
vertex $-1 $729 $778 #
straight-curve $-1 72.084719382305366 0 -20.634226949048202 0 -1 0 I I #
straight-curve $-1 -72.084719382305366 -55.708839913853303 -13.461775455036873 0 -1 0 I I #
point $-1 -72.084719382305366 -47.957336608371342 -13.461775455036873 #
face $-1 $769 $763 $19 $-1 $779 reversed single #
loop $-1 $-1 $780 $691 #
plane-surface $-1 0 0 -20.634226949048202 0 0 1 1 0 0 forward_v I I I I #
coedge $-1 $781 $782 $783 $784 forward $692 $-1 #
coedge $-1 $785 $694 $786 $787 reversed $635 $-1 #
coedge $-1 $694 $785 $782 $788 forward $635 $-1 #
coedge $-1 $789 $708 $694 $746 reversed $515 $-1 #
edge $-1 $790 -7.7515033054819611 $791 7.7515033054819611 $745 $792 forward 7 unknown #
coedge $-1 $696 $695 $793 $794 reversed $576 $-1 #
coedge $-1 $780 $795 $695 $749 forward $740 $-1 #
edge $-1 $796 -72.084719382305366 $751 72.084719382305366 $695 $797 forward 7 unknown #
coedge $-1 $697 $789 $780 $798 reversed $515 $-1 #
vertex $-1 $798 $799 #
straight-curve $-1 72.084719382305366 63.460343219335265 -17.048001202042538 0 0 -1 I I #
coedge $-1 $793 $712 $699 $754 reversed $714 $-1 #
edge $-1 $755 -7.7515033054819611 $757 7.7515033054819611 $753 $800 forward 7 unknown #
vertex $-1 $700 $801 #
straight-curve $-1 0 63.460343219335265 -13.461775455036873 -1 0 0 I I #
vertex $-1 $754 $802 #
straight-curve $-1 0 47.957336608371342 -13.461775455036873 -1 0 0 I I #
point $-1 72.084719382305366 47.957336608371342 -13.461775455036873 #
point $-1 72.084719382305366 63.460343219335265 -13.461775455036873 #
coedge $-1 $786 $706 $713 $768 forward $763 $-1 #
coedge $-1 $706 $786 $708 $765 reversed $763 $-1 #
loop $-1 $-1 $786 $739 #
straight-curve $-1 0 -47.957336608371342 20.634226949048202 1 0 0 I I #
edge $-1 $709 -20.634226949048202 $791 13.461775455036873 $708 $803 forward 7 unknown #
point $-1 72.084719382305366 -47.957336608371342 20.634226949048202 #
coedge $-1 $713 $783 $785 $804 reversed $714 $-1 #
edge $-1 $715 -20.634226949048202 $805 13.461775455036873 $713 $806 forward 7 unknown #
face $-1 $718 $714 $19 $-1 $807 reversed single #
point $-1 -72.084719382305366 -47.957336608371342 20.634226949048202 #
straight-curve $-1 -72.084719382305366 47.957336608371342 0 0 0 -1 I I #
plane-surface $-1 0 47.957336608371342 0 0 -1 0 0 0 -1 forward_v I I I I #
straight-curve $-1 0 -63.460343219335265 -20.634226949048202 -1 0 0 I I #
point $-1 -72.084719382305366 -63.460343219335265 -13.461775455036873 #
point $-1 -72.084719382305366 -63.460343219335265 -20.634226949048202 #
straight-curve $-1 72.084719382305366 -63.460343219335265 -17.048001202042538 0 0 -1 I I #
straight-curve $-1 -72.084719382305366 55.708839913853303 -20.634226949048202 0 1 0 I I #
point $-1 72.084719382305366 -63.460343219335265 -20.634226949048202 #
plane-surface $-1 0 -47.957336608371342 0 0 1 0 0 0 1 forward_v I I I I #
coedge $-1 $808 $748 $750 $798 forward $740 $-1 #
coedge $-1 $809 $742 $808 $810 reversed $692 $-1 #
coedge $-1 $742 $809 $744 $788 reversed $692 $-1 #
coedge $-1 $767 $811 $742 $784 reversed $714 $-1 #
edge $-1 $812 -3.5862257470056651 $813 3.5862257470056633 $783 $814 forward 7 unknown #
coedge $-1 $744 $743 $767 $804 forward $635 $-1 #
coedge $-1 $762 $761 $743 $787 forward $763 $-1 #
edge $-1 $805 -72.084719382305366 $791 72.084719382305366 $786 $815 forward 7 unknown #
edge $-1 $812 -72.084719382305366 $790 72.084719382305366 $782 $816 forward 7 unknown #
coedge $-1 $750 $745 $809 $817 forward $515 $-1 #
vertex $-1 $746 $818 #
vertex $-1 $746 $819 #
straight-curve $-1 72.084719382305366 -55.708839913853303 -13.461775455036873 0 1 0 I I #
coedge $-1 $811 $753 $747 $794 forward $714 $-1 #
edge $-1 $755 -3.5862257470056651 $796 3.5862257470056633 $747 $820 forward 7 unknown #
coedge $-1 $748 $808 $811 $821 forward $740 $-1 #
vertex $-1 $749 $822 #
straight-curve $-1 0 63.460343219335265 -20.634226949048202 1 0 0 I I #
edge $-1 $751 -63.460343219335265 $823 63.460343219335265 $750 $824 forward 7 unknown #
point $-1 72.084719382305366 63.460343219335265 -20.634226949048202 #
straight-curve $-1 -72.084719382305366 55.708839913853303 -13.461775455036873 0 -1 0 I I #
point $-1 -72.084719382305366 63.460343219335265 -13.461775455036873 #
point $-1 -72.084719382305366 47.957336608371342 -13.461775455036873 #
straight-curve $-1 72.084719382305366 -47.957336608371342 0 0 0 -1 I I #
edge $-1 $805 -7.7515033054819611 $812 7.7515033054819611 $767 $825 forward 7 unknown #
vertex $-1 $768 $826 #
straight-curve $-1 -72.084719382305366 -47.957336608371342 0 0 0 -1 I I #
plane-surface $-1 -72.084719382305366 0 0 1 0 0 0 0 -1 forward_v I I I I #
coedge $-1 $795 $780 $781 $810 forward $740 $-1 #
coedge $-1 $782 $781 $789 $817 reversed $692 $-1 #
edge $-1 $823 -72.084719382305366 $813 72.084719382305366 $781 $827 forward 7 unknown #
coedge $-1 $783 $793 $795 $821 reversed $714 $-1 #
vertex $-1 $804 $828 #
vertex $-1 $821 $829 #
straight-curve $-1 -72.084719382305366 -63.460343219335265 -17.048001202042538 0 0 -1 I I #
straight-curve $-1 0 -47.957336608371342 -13.461775455036873 1 0 0 I I #
straight-curve $-1 0 -63.460343219335265 -13.461775455036873 1 0 0 I I #
edge $-1 $790 -3.5862257470056651 $823 3.5862257470056633 $789 $830 forward 7 unknown #
point $-1 72.084719382305366 -63.460343219335265 -13.461775455036873 #
point $-1 72.084719382305366 -47.957336608371342 -13.461775455036873 #
straight-curve $-1 -72.084719382305366 63.460343219335265 -17.048001202042538 0 0 -1 I I #
edge $-1 $813 -119.16918313318857 $796 7.7515033054819611 $811 $831 forward 7 unknown #
point $-1 -72.084719382305366 63.460343219335265 -20.634226949048202 #
vertex $-1 $817 $832 #
straight-curve $-1 72.084719382305366 0 -20.634226949048202 0 -1 0 I I #
straight-curve $-1 -72.084719382305366 -55.708839913853303 -13.461775455036873 0 -1 0 I I #
point $-1 -72.084719382305366 -47.957336608371342 -13.461775455036873 #
straight-curve $-1 0 -63.460343219335265 -20.634226949048202 -1 0 0 I I #
point $-1 -72.084719382305366 -63.460343219335265 -13.461775455036873 #
point $-1 -72.084719382305366 -63.460343219335265 -20.634226949048202 #
straight-curve $-1 72.084719382305366 -63.460343219335265 -17.048001202042538 0 0 -1 I I #
straight-curve $-1 -72.084719382305366 55.708839913853303 -20.634226949048202 0 1 0 I I #
point $-1 72.084719382305366 -63.460343219335265 -20.634226949048202 #
End-of-ACIS-data 