500 0 7 0           
7 Unknown 11 ACIS 5.0 NT 24 Fri Mar 26 19:08:22 1999 
-1 9.9999999999999995e-007 1e-010 
body $-1 $7 $-1 $8 #
body $-1 $9 $-1 $10 #
body $-1 $11 $-1 $12 #
body $-1 $13 $-1 $14 #
body $-1 $15 $-1 $16 #
body $-1 $17 $-1 $18 #
body $-1 $19 $-1 $20 #
lump $-1 $-1 $21 $0 #
transform $-1 1 0 0 0 1 0 0 0 1 45.14419995727409 24.503407071141904 7.3740545911381323 1 rotate no_reflect no_shear #
lump $-1 $-1 $22 $1 #
transform $-1 1 0 0 0 1 0 0 0 1 45.14419995727409 24.503407071141904 7.3740545911381323 1 rotate no_reflect no_shear #
lump $-1 $-1 $23 $2 #
transform $-1 1 0 0 0 1 0 0 0 1 45.14419995727409 24.503407071141904 7.3740545911381323 1 rotate no_reflect no_shear #
lump $-1 $-1 $24 $3 #
transform $-1 1 0 0 0 1 0 0 0 1 45.14419995727409 24.503407071141904 7.3740545911381323 1 rotate no_reflect no_shear #
lump $-1 $-1 $25 $4 #
transform $-1 1 0 0 0 1 0 0 0 1 45.14419995727409 24.503407071141904 7.3740545911381323 1 rotate no_reflect no_shear #
lump $-1 $-1 $26 $5 #
transform $-1 1 0 0 0 1 0 0 0 1 45.14419995727409 24.503407071141904 7.3740545911381323 1 rotate no_reflect no_shear #
lump $-1 $-1 $27 $6 #
transform $-1 1 0 0 0 1 0 0 0 1 45.14419995727409 24.503407071141904 7.3740545911381323 1 rotate no_reflect no_shear #
shell $-1 $-1 $-1 $28 $-1 $7 #
shell $-1 $-1 $-1 $29 $-1 $9 #
shell $-1 $-1 $-1 $30 $-1 $11 #
shell $-1 $-1 $-1 $31 $-1 $13 #
shell $-1 $-1 $-1 $32 $-1 $15 #
shell $-1 $-1 $-1 $33 $-1 $17 #
shell $-1 $-1 $-1 $34 $-1 $19 #
face $-1 $35 $36 $21 $-1 $37 forward single #
face $-1 $38 $39 $22 $-1 $40 reversed single #
face $-1 $41 $42 $23 $-1 $43 forward single #
face $-1 $44 $45 $24 $-1 $46 forward single #
face $-1 $47 $48 $25 $-1 $49 forward single #
face $-1 $50 $51 $26 $-1 $52 reversed single #
face $-1 $53 $54 $27 $-1 $55 forward single #
face $-1 $56 $57 $21 $-1 $58 reversed single #
loop $-1 $-1 $59 $28 #
plane-surface $-1 0 0 7.3740545911381323 0 0 1 1 0 0 forward_v I I I I #
face $-1 $60 $61 $22 $-1 $62 reversed single #
loop $-1 $-1 $63 $29 #
plane-surface $-1 38.461575922971285 16.188681730453755 128.84965510890081 0 -1 0 -0.66913061440640931 0 -0.74314481823134659 forward_v I I I I #
face $-1 $64 $65 $23 $-1 $66 forward single #
loop $-1 $67 $68 $30 #
cone-surface $-1 41.175104038825765 7.5574133487687369 3.6705667091119745 -0.66913061440640931 0 -0.74314481823134659 0.3715724091156733 0 -0.33456530720320465 1 I I 0 1 0.5 forward I I I I #
face $-1 $69 $70 $24 $-1 $71 forward single #
loop $-1 $72 $73 $31 #
cone-surface $-1 41.175104038825765 10.794138991900621 3.6705667091119745 -0.66913061440640931 0 -0.74314481823134659 0.3715724091156733 0 -0.33456530720320465 1 I I 0 1 0.5 forward I I I I #
face $-1 $74 $75 $25 $-1 $76 forward single #
loop $-1 $77 $78 $32 #
cone-surface $-1 41.175104038825765 14.030864635032504 3.6705667091119745 -0.66913061440640931 0 -0.74314481823134659 0.3715724091156733 0 -0.33456530720320465 1 I I 0 1 0.5 forward I I I I #
face $-1 $79 $80 $26 $-1 $81 reversed single #
loop $-1 $-1 $82 $33 #
plane-surface $-1 -94.318787604069868 13.820550961908008 78.676749119876703 0 1 0 -0.54463904215088732 0 0.83867056331134215 forward_v I I I I #
face $-1 $83 $84 $27 $-1 $85 forward single #
loop $-1 $86 $87 $34 #
cone-surface $-1 -40.370231522771064 19.161979016524956 3.0527815505003804 0.54463904215088732 0 -0.83867056331134215 1.2580058449670133 0 0.81695856322633098 1 I I 0 1 1.5 forward I I I I #
face $-1 $88 $89 $21 $-1 $90 reversed single #
loop $-1 $-1 $91 $35 #
plane-surface $-1 0 0 -7.3740545911381323 0 0 1 1 0 0 forward_v I I I I #
coedge $-1 $92 $93 $94 $95 forward $36 $-1 #
face $-1 $96 $97 $22 $-1 $98 reversed single #
loop $-1 $-1 $99 $38 #
plane-surface $-1 -21.953156585621933 10.794138991900621 61.752298566004768 0.66913061440640931 0 0.74314481823134659 0.74314481823134659 0 -0.66913061440640931 forward_v I I I I #
coedge $-1 $100 $101 $102 $103 reversed $39 $-1 #
face $-1 $-1 $104 $23 $-1 $105 forward single #
loop $-1 $106 $107 $41 #
cone-surface $-1 40.390825249365669 7.5574133487687369 2.7995368893912635 -0.66913061440640931 0 -0.74314481823134659 0.18578620455783665 0 -0.16728265360160233 1 I I -0.70710678118654746 0.70710678118654746 0.25 forward I I I I #
loop $-1 $-1 $108 $30 #
coedge $-1 $68 $68 $109 $110 reversed $42 $-1 #
face $-1 $-1 $111 $24 $-1 $112 forward single #
loop $-1 $113 $114 $44 #
cone-surface $-1 40.390825249365669 10.794138991900621 2.7995368893912635 -0.66913061440640931 0 -0.74314481823134659 0.18578620455783665 0 -0.16728265360160233 1 I I -0.70710678118654746 0.70710678118654746 0.25 forward I I I I #
loop $-1 $-1 $115 $31 #
coedge $-1 $73 $73 $116 $117 reversed $45 $-1 #
face $-1 $-1 $118 $25 $-1 $119 forward single #
loop $-1 $120 $121 $47 #
cone-surface $-1 40.390825249365669 14.030864635032504 2.7995368893912635 -0.66913061440640931 0 -0.74314481823134659 0.18578620455783665 0 -0.16728265360160233 1 I I -0.70710678118654746 0.70710678118654746 0.25 forward I I I I #
loop $-1 $-1 $122 $32 #
coedge $-1 $78 $78 $123 $124 reversed $48 $-1 #
face $-1 $125 $126 $26 $-1 $127 forward single #
loop $-1 $-1 $128 $50 #
plane-surface $-1 -45.144199957274097 19.161979016524956 2.9545259030628586 -0.54463904215088732 0 0.83867056331134215 0.83867056331134215 0 0.54463904215088732 forward_v I I I I #
coedge $-1 $129 $130 $131 $132 reversed $51 $-1 #
face $-1 $-1 $133 $27 $-1 $134 forward single #
loop $-1 $135 $136 $53 #
cone-surface $-1 -38.590522434940617 19.161979016524956 0.31226993141676385 0.54463904215088732 0 -0.83867056331134215 0.62900292248350664 0 0.40847928161316549 1 I I -0.70710678118654757 0.70710678118654757 0.75 forward I I I I #
loop $-1 $-1 $137 $34 #
coedge $-1 $87 $87 $138 $139 reversed $54 $-1 #
face $-1 $140 $141 $21 $-1 $142 reversed single #
loop $-1 $-1 $143 $56 #
plane-surface $-1 0 -24.503407071141904 0 0 1 0 0 0 1 forward_v I I I I #
coedge $-1 $144 $145 $146 $147 forward $57 $-1 #
coedge $-1 $148 $59 $149 $150 forward $36 $-1 #
coedge $-1 $59 $148 $151 $152 forward $36 $-1 #
coedge $-1 $153 $154 $59 $95 reversed $155 $-1 #
edge $-1 $156 -24.503407071141904 $157 24.503407071141904 $94 $158 forward 7 unknown #
face $-1 $159 $160 $22 $-1 $161 forward single #
loop $-1 $-1 $162 $60 #
plane-surface $-1 38.461575922971285 5.3995962533474859 128.84965510890081 0 1 0 0.66913061440640931 0 0.74314481823134659 forward_v I I I I #
coedge $-1 $163 $164 $165 $166 reversed $61 $-1 #
coedge $-1 $101 $63 $167 $168 reversed $39 $-1 #
coedge $-1 $63 $100 $163 $169 reversed $39 $-1 #
coedge $-1 $165 $170 $63 $103 forward $160 $-1 #
edge $-1 $171 -25.913411995788447 $172 -19.209212430608797 $102 $173 forward 7 unknown #
loop $-1 $-1 $109 $64 #
plane-surface $-1 -21.953156585621933 10.794138991900621 61.752298566004768 0.66913061440640931 0 0.74314481823134659 0.74314481823134659 0 -0.66913061440640931 forward_v I I I I #
loop $-1 $-1 $174 $41 #
coedge $-1 $107 $107 $108 $175 reversed $65 $-1 #
coedge $-1 $108 $108 $107 $175 forward $67 $-1 #
coedge $-1 $109 $109 $68 $110 forward $104 $-1 #
edge $-1 $176 0 $176 6.2831853071796004 $109 $177 forward 7 unknown #
loop $-1 $-1 $116 $69 #
plane-surface $-1 -21.953156585621933 10.794138991900621 61.752298566004768 0.66913061440640931 0 0.74314481823134659 0.74314481823134659 0 -0.66913061440640931 forward_v I I I I #
loop $-1 $-1 $178 $44 #
coedge $-1 $114 $114 $115 $179 reversed $70 $-1 #
coedge $-1 $115 $115 $114 $179 forward $72 $-1 #
coedge $-1 $116 $116 $73 $117 forward $111 $-1 #
edge $-1 $180 0 $180 6.2831853071796004 $116 $181 forward 7 unknown #
loop $-1 $-1 $123 $74 #
plane-surface $-1 -21.953156585621933 10.794138991900621 61.752298566004768 0.66913061440640931 0 0.74314481823134659 0.74314481823134659 0 -0.66913061440640931 forward_v I I I I #
loop $-1 $-1 $182 $47 #
coedge $-1 $121 $121 $122 $183 reversed $75 $-1 #
coedge $-1 $122 $122 $121 $183 forward $77 $-1 #
coedge $-1 $123 $123 $78 $124 forward $118 $-1 #
edge $-1 $184 0 $184 6.2831853071796004 $123 $185 forward 7 unknown #
face $-1 $186 $187 $26 $-1 $188 reversed single #
loop $-1 $-1 $131 $79 #
plane-surface $-1 0 0 7.3740545911381323 0 0 1 1 0 0 forward_v I I I I #
coedge $-1 $189 $190 $191 $192 reversed $80 $-1 #
coedge $-1 $130 $82 $193 $194 reversed $51 $-1 #
coedge $-1 $82 $129 $189 $195 reversed $51 $-1 #
coedge $-1 $191 $196 $82 $132 forward $126 $-1 #
edge $-1 $197 2.0151938447608444 $198 8.8206711013322945 $131 $199 forward 7 unknown #
loop $-1 $-1 $138 $83 #
plane-surface $-1 -45.144199957274097 19.161979016524956 2.9545259030628586 -0.54463904215088732 0 0.83867056331134215 0.83867056331134215 0 0.54463904215088732 forward_v I I I I #
loop $-1 $-1 $200 $53 #
coedge $-1 $136 $136 $137 $201 reversed $84 $-1 #
coedge $-1 $137 $137 $136 $201 forward $86 $-1 #
coedge $-1 $138 $138 $87 $139 forward $133 $-1 #
edge $-1 $202 0 $202 6.2831853071796004 $138 $203 forward 7 unknown #
face $-1 $204 $205 $21 $-1 $206 reversed single #
loop $-1 $-1 $207 $88 #
plane-surface $-1 -45.14419995727409 0 0 1 0 0 0 0 -1 forward_v I I I I #
coedge $-1 $208 $151 $209 $210 forward $89 $-1 #
coedge $-1 $211 $91 $208 $212 forward $57 $-1 #
coedge $-1 $91 $211 $213 $214 forward $57 $-1 #
coedge $-1 $154 $153 $91 $147 reversed $155 $-1 #
edge $-1 $215 -24.503407071141904 $216 24.503407071141904 $146 $217 forward 7 unknown #
coedge $-1 $93 $92 $218 $219 forward $36 $-1 #
coedge $-1 $220 $221 $92 $150 reversed $205 $-1 #
edge $-1 $157 -45.14419995727409 $222 45.14419995727409 $149 $223 forward 7 unknown #
coedge $-1 $143 $224 $93 $152 reversed $89 $-1 #
edge $-1 $225 -45.14419995727409 $156 45.14419995727409 $151 $226 forward 7 unknown #
coedge $-1 $146 $94 $224 $227 forward $155 $-1 #
coedge $-1 $94 $146 $220 $228 reversed $155 $-1 #
loop $-1 $-1 $153 $204 #
vertex $-1 $95 $229 #
vertex $-1 $95 $230 #
straight-curve $-1 45.14419995727409 0 7.3740545911381323 0 1 0 I I #
face $-1 $-1 $231 $22 $-1 $232 reversed single #
loop $-1 $-1 $102 $96 #
plane-surface $-1 0 0 7.3740545911381323 0 0 1 1 0 0 forward_v I I I I #
coedge $-1 $233 $234 $235 $236 reversed $97 $-1 #
coedge $-1 $237 $99 $101 $169 forward $61 $-1 #
coedge $-1 $99 $237 $233 $238 forward $61 $-1 #
coedge $-1 $235 $102 $99 $166 forward $160 $-1 #
edge $-1 $172 -10.791612234503445 $239 -0.0025267573971756718 $165 $240 forward 7 unknown #
coedge $-1 $241 $242 $100 $168 forward $231 $-1 #
edge $-1 $243 -63.087261497038845 $171 -57.050772963312269 $167 $244 forward 7 unknown #
edge $-1 $172 81.267009465866352 $243 90.288399914548165 $101 $245 forward 7 unknown #
coedge $-1 $102 $235 $241 $246 forward $160 $-1 #
vertex $-1 $168 $247 #
vertex $-1 $103 $248 #
straight-curve $-1 19.230787961485643 16.188681730453755 7.3740545911381332 -1 0 0 I I #
coedge $-1 $174 $174 $-1 $249 reversed $106 $-1 #
edge $-1 $250 0 $250 6.2831853071796004 $107 $251 forward 7 unknown #
vertex $-1 $110 $252 #
ellipse-curve $-1 41.792100174684258 7.5574133487687369 4.3558103242748505 0.66913061440640931 0 0.74314481823134659 0.3715724091156733 0 -0.33456530720320465 1 I I #
coedge $-1 $178 $178 $-1 $253 reversed $113 $-1 #
edge $-1 $254 0 $254 6.2831853071796004 $114 $255 forward 7 unknown #
vertex $-1 $117 $256 #
ellipse-curve $-1 41.792100174684258 10.794138991900621 4.3558103242748505 0.66913061440640931 0 0.74314481823134659 0.3715724091156733 0 -0.33456530720320465 1 I I #
coedge $-1 $182 $182 $-1 $257 reversed $120 $-1 #
edge $-1 $258 0 $258 6.2831853071796004 $121 $259 forward 7 unknown #
vertex $-1 $124 $260 #
ellipse-curve $-1 41.792100174684258 14.030864635032504 4.3558103242748505 0.66913061440640931 0 0.74314481823134659 0.3715724091156733 0 -0.33456530720320465 1 I I #
face $-1 $-1 $261 $26 $-1 $262 reversed single #
loop $-1 $-1 $263 $125 #
plane-surface $-1 0 24.503407071141904 0 0 -1 0 0 0 -1 forward_v I I I I #
coedge $-1 $264 $128 $130 $195 forward $80 $-1 #
coedge $-1 $128 $264 $263 $265 reversed $80 $-1 #
coedge $-1 $266 $131 $128 $192 forward $126 $-1 #
edge $-1 $198 4.2395614536455302 $267 14.922417562879426 $191 $268 forward 7 unknown #
coedge $-1 $269 $270 $129 $194 forward $261 $-1 #
edge $-1 $271 -36.383848656875486 $197 -31.964319968800218 $193 $272 forward 7 unknown #
edge $-1 $198 -8.1146013158029966 $271 -8.3777959833898778e-015 $130 $273 forward 7 unknown #
coedge $-1 $131 $266 $269 $274 forward $126 $-1 #
vertex $-1 $194 $275 #
vertex $-1 $132 $276 #
straight-curve $-1 -47.159393802034934 13.820550961908008 7.3740545911381332 1 0 0 I I #
coedge $-1 $200 $200 $-1 $277 reversed $135 $-1 #
edge $-1 $278 0 $278 6.2831853071796004 $136 $279 forward 7 unknown #
vertex $-1 $139 $280 #
ellipse-curve $-1 -41.741461328988358 19.161979016524956 5.164290247100503 -0.54463904215088732 0 0.83867056331134215 1.2580058449670133 0 0.81695856322633098 1 I I #
face $-1 $-1 $155 $21 $-1 $281 reversed single #
loop $-1 $-1 $220 $140 #
plane-surface $-1 0 24.503407071141904 0 0 -1 0 0 0 -1 forward_v I I I I #
coedge $-1 $282 $218 $221 $283 forward $141 $-1 #
coedge $-1 $224 $143 $144 $212 reversed $89 $-1 #
coedge $-1 $218 $282 $143 $210 reversed $141 $-1 #
edge $-1 $225 -7.3740545911381323 $284 7.3740545911381323 $209 $285 forward 7 unknown #
coedge $-1 $145 $144 $282 $286 forward $57 $-1 #
edge $-1 $216 -45.14419995727409 $284 45.14419995727409 $208 $287 forward 7 unknown #
coedge $-1 $221 $220 $145 $214 reversed $205 $-1 #
edge $-1 $288 -45.14419995727409 $215 45.14419995727409 $213 $289 forward 7 unknown #
vertex $-1 $147 $290 #
vertex $-1 $227 $291 #
straight-curve $-1 45.14419995727409 0 -7.3740545911381323 0 -1 0 I I #
coedge $-1 $207 $209 $148 $219 reversed $141 $-1 #
edge $-1 $222 -24.503407071141904 $225 24.503407071141904 $218 $292 forward 7 unknown #
coedge $-1 $213 $149 $154 $228 forward $205 $-1 #
coedge $-1 $149 $213 $207 $283 reversed $205 $-1 #
vertex $-1 $150 $293 #
straight-curve $-1 0 24.503407071141904 7.3740545911381323 -1 0 0 I I #
coedge $-1 $151 $208 $153 $227 reversed $89 $-1 #
vertex $-1 $219 $294 #
straight-curve $-1 0 -24.503407071141904 7.3740545911381323 1 0 0 I I #
edge $-1 $156 -7.3740545911381323 $216 7.3740545911381323 $153 $295 forward 7 unknown #
edge $-1 $157 -7.3740545911381323 $215 7.3740545911381323 $154 $296 forward 7 unknown #
point $-1 45.14419995727409 -24.503407071141904 7.3740545911381323 #
point $-1 45.14419995727409 24.503407071141904 7.3740545911381323 #
loop $-1 $-1 $167 $159 #
plane-surface $-1 45.14419995727409 0 0 -1 0 0 0 0 1 forward_v I I I I #
coedge $-1 $234 $162 $164 $238 reversed $97 $-1 #
coedge $-1 $162 $233 $297 $298 reversed $97 $-1 #
coedge $-1 $170 $165 $162 $236 forward $160 $-1 #
edge $-1 $239 19.209212430608797 $299 25.913411995788447 $235 $300 forward 7 unknown #
coedge $-1 $164 $163 $242 $301 reversed $61 $-1 #
edge $-1 $302 -90.288399914548165 $239 -81.267009465866352 $233 $303 forward 7 unknown #
vertex $-1 $166 $304 #
straight-curve $-1 38.440000392094447 5.3970694959503103 7.3740545911381261 0 -1 0 I I #
coedge $-1 $297 $167 $170 $246 reversed $231 $-1 #
coedge $-1 $167 $297 $237 $301 forward $231 $-1 #
vertex $-1 $168 $305 #
straight-curve $-1 45.14419995727409 16.188681730453755 64.424827554450403 0 0 1 I I #
straight-curve $-1 -21.953156585621933 16.188681730453755 61.752298566004768 0.74314481823134659 0 -0.66913061440640931 I I #
edge $-1 $299 5.3995962533474859 $171 16.188681730453755 $241 $306 forward 7 unknown #
point $-1 45.14419995727409 16.188681730453755 7.3740545911381323 #
point $-1 38.44000039209444 16.188681730453755 7.3740545911381332 #
edge $-1 $307 1 $307 0 $174 $-1 forward 7 unknown #
vertex $-1 $175 $308 #
ellipse-curve $-1 40.558107902967272 7.5574133487687369 2.9853230939491002 0.66913061440640931 0 0.74314481823134659 0.3715724091156733 0 -0.33456530720320465 1 I I #
point $-1 42.163672583799929 7.5574133487687369 4.0212450170716441 #
edge $-1 $309 1 $309 0 $178 $-1 forward 7 unknown #
vertex $-1 $179 $310 #
ellipse-curve $-1 40.558107902967272 10.794138991900621 2.9853230939491002 0.66913061440640931 0 0.74314481823134659 0.3715724091156733 0 -0.33456530720320465 1 I I #
point $-1 42.163672583799929 10.794138991900621 4.0212450170716441 #
edge $-1 $311 1 $311 0 $182 $-1 forward 7 unknown #
vertex $-1 $183 $312 #
ellipse-curve $-1 40.558107902967272 14.030864635032504 2.9853230939491002 0.66913061440640931 0 0.74314481823134659 0.3715724091156733 0 -0.33456530720320465 1 I I #
point $-1 42.163672583799929 14.030864635032504 4.0212450170716441 #
loop $-1 $-1 $193 $186 #
plane-surface $-1 -45.14419995727409 0 0 1 0 0 0 0 -1 forward_v I I I I #
coedge $-1 $313 $314 $190 $265 forward $187 $-1 #
coedge $-1 $190 $189 $270 $315 reversed $80 $-1 #
edge $-1 $267 10.011379409473399 $316 18.125980725276388 $263 $317 forward 7 unknown #
coedge $-1 $196 $191 $314 $318 forward $126 $-1 #
vertex $-1 $318 $319 #
straight-curve $-1 -38.33872270070264 9.5809895082624781 7.3740545911381323 0 1 0 I I #
coedge $-1 $320 $193 $196 $274 reversed $261 $-1 #
coedge $-1 $193 $320 $264 $315 forward $261 $-1 #
vertex $-1 $194 $321 #
straight-curve $-1 -45.14419995727409 13.820550961908008 39.338374559938352 0 0 1 I I #
straight-curve $-1 -45.144199957274097 13.820550961908008 2.9545259030628586 -0.83867056331134215 0 -0.54463904215088732 I I #
edge $-1 $322 -24.503407071141904 $197 -13.820550961908008 $269 $323 forward 7 unknown #
point $-1 -45.14419995727409 13.820550961908008 7.3740545911381323 #
point $-1 -38.33872270070264 13.820550961908008 7.3740545911381323 #
edge $-1 $324 1 $324 0 $200 $-1 forward 7 unknown #
vertex $-1 $201 $325 #
ellipse-curve $-1 -38.999001716553785 19.161979016524956 0.94127285390027049 -0.54463904215088732 0 0.83867056331134215 1.2580058449670133 0 0.81695856322633098 1 I I #
point $-1 -40.483455484021334 19.161979016524956 5.9812488103268215 #
plane-surface $-1 45.14419995727409 0 0 -1 0 0 0 0 1 forward_v I I I I #
coedge $-1 $209 $207 $211 $286 reversed $141 $-1 #
edge $-1 $222 -7.3740545911381323 $288 7.3740545911381323 $221 $326 forward 7 unknown #
vertex $-1 $286 $327 #
straight-curve $-1 -45.14419995727409 -24.503407071141904 0 0 0 -1 I I #
edge $-1 $284 -24.503407071141904 $288 24.503407071141904 $282 $328 forward 7 unknown #
straight-curve $-1 0 -24.503407071141904 -7.3740545911381323 -1 0 0 I I #
vertex $-1 $214 $329 #
straight-curve $-1 0 24.503407071141904 -7.3740545911381323 1 0 0 I I #
point $-1 45.14419995727409 24.503407071141904 -7.3740545911381323 #
point $-1 45.14419995727409 -24.503407071141904 -7.3740545911381323 #
straight-curve $-1 -45.14419995727409 0 7.3740545911381323 0 -1 0 I I #
point $-1 -45.14419995727409 24.503407071141904 7.3740545911381323 #
point $-1 -45.14419995727409 -24.503407071141904 7.3740545911381323 #
straight-curve $-1 45.14419995727409 -24.503407071141904 0 0 0 -1 I I #
straight-curve $-1 45.14419995727409 24.503407071141904 0 0 0 -1 I I #
coedge $-1 $242 $241 $234 $298 forward $231 $-1 #
edge $-1 $299 57.050772963312269 $302 63.087261497038845 $297 $330 forward 7 unknown #
vertex $-1 $246 $331 #
straight-curve $-1 19.230787961485643 5.3995962533474859 7.3740545911381332 1 0 0 I I #
edge $-1 $302 0.0025267573971756718 $243 10.791612234503445 $242 $332 forward 7 unknown #
vertex $-1 $301 $333 #
straight-curve $-1 -21.953156585621933 5.3995962533474859 61.752298566004768 -0.74314481823134659 0 0.66913061440640931 I I #
point $-1 38.44000039209444 5.3995962533474859 7.3740545911381332 #
point $-1 45.14419995727409 16.188681730453755 1.3375660574115571 #
straight-curve $-1 45.14419995727409 0 7.3740545911381323 0 1 0 I I #
vertex $-1 $249 $334 #
point $-1 40.929680312082944 7.5574133487687369 2.6507577867458956 #
vertex $-1 $253 $335 #
point $-1 40.929680312082944 10.794138991900621 2.6507577867458956 #
vertex $-1 $257 $336 #
point $-1 40.929680312082944 14.030864635032504 2.6507577867458956 #
coedge $-1 $314 $263 $320 $337 reversed $187 $-1 #
coedge $-1 $263 $313 $266 $318 reversed $187 $-1 #
edge $-1 $316 -14.922417562879426 $271 -4.2395614536455302 $270 $338 forward 7 unknown #
vertex $-1 $265 $339 #
straight-curve $-1 -29.942473491836012 24.503407071141904 12.826642683322842 -0.83867056331134215 0 -0.54463904215088732 I I #
edge $-1 $267 38.33872270070264 $322 45.14419995727409 $314 $340 forward 7 unknown #
point $-1 -38.33872270070264 24.503407071141904 7.3740545911381323 #
coedge $-1 $270 $269 $313 $337 forward $261 $-1 #
point $-1 -45.14419995727409 13.820550961908008 2.954525903062863 #
vertex $-1 $318 $341 #
straight-curve $-1 -45.14419995727409 0 7.3740545911381323 0 -1 0 I I #
vertex $-1 $277 $342 #
point $-1 -37.740995871586769 19.161979016524956 1.7582314171266016 #
straight-curve $-1 -45.14419995727409 24.503407071141904 0 0 0 -1 I I #
point $-1 -45.14419995727409 -24.503407071141904 -7.3740545911381323 #
straight-curve $-1 -45.14419995727409 0 -7.3740545911381323 0 1 0 I I #
point $-1 -45.14419995727409 24.503407071141904 -7.3740545911381323 #
straight-curve $-1 45.14419995727409 5.3995962533474859 64.424827554450403 0 0 -1 I I #
point $-1 45.14419995727409 5.3995962533474859 7.3740545911381323 #
straight-curve $-1 45.14419995727409 5.3970694959503103 1.3375660574115642 0 1 0 I I #
point $-1 45.14419995727409 5.3995962533474859 1.3375660574115571 #
point $-1 40.223542595764066 7.5574133487687369 2.6137506848334269 #
point $-1 40.223542595764066 10.794138991900621 2.6137506848334269 #
point $-1 40.223542595764066 14.030864635032504 2.6137506848334269 #
edge $-1 $322 -7.3740545911381323 $316 -2.954525903062863 $313 $343 forward 7 unknown #
straight-curve $-1 -45.14419995727409 9.5809895082624781 2.9545259030628666 0 -1 0 I I #
point $-1 -45.14419995727409 24.503407071141904 2.954525903062863 #
straight-curve $-1 0 24.503407071141904 7.3740545911381323 -1 0 0 I I #
point $-1 -45.14419995727409 24.503407071141904 7.3740545911381323 #
point $-1 -38.182043153327449 19.161979016524956 -0.3167329910667428 #
straight-curve $-1 -45.14419995727409 24.503407071141904 0 0 0 -1 I I #
End-of-ACIS-data 