500 0 12 0           
7 Unknown 11 ACIS 5.0 NT 24 Fri Mar 26 02:03:28 1999 
-1 9.9999999999999995e-007 1e-010 
body $-1 $12 $-1 $13 #
body $-1 $14 $-1 $15 #
body $-1 $16 $-1 $17 #
body $-1 $18 $-1 $19 #
body $-1 $20 $-1 $21 #
body $-1 $22 $-1 $23 #
body $-1 $24 $-1 $25 #
body $-1 $26 $-1 $27 #
body $-1 $28 $-1 $29 #
body $-1 $30 $-1 $31 #
body $-1 $32 $-1 $33 #
body $-1 $34 $-1 $35 #
lump $-1 $-1 $36 $0 #
transform $-1 1 0 0 0 1 0 0 0 1 50.194402905362097 26.203662746621387 12.492702374192632 1 rotate no_reflect no_shear #
lump $-1 $-1 $37 $1 #
transform $-1 1 0 0 0 1 0 0 0 1 50.194402905362097 26.203662746621387 12.492702374192632 1 rotate no_reflect no_shear #
lump $-1 $-1 $38 $2 #
transform $-1 1 0 0 0 1 0 0 0 1 50.194402905362097 26.203662746621387 12.492702374192632 1 rotate no_reflect no_shear #
lump $-1 $-1 $39 $3 #
transform $-1 1 0 0 0 1 0 0 0 1 50.194402905362097 26.203662746621387 12.492702374192632 1 rotate no_reflect no_shear #
lump $-1 $-1 $40 $4 #
transform $-1 1 0 0 0 1 0 0 0 1 50.194402905362097 26.203662746621387 12.492702374192632 1 rotate no_reflect no_shear #
lump $-1 $-1 $41 $5 #
transform $-1 1 0 0 0 1 0 0 0 1 50.194402905362097 26.203662746621387 12.492702374192632 1 rotate no_reflect no_shear #
lump $-1 $-1 $42 $6 #
transform $-1 1 0 0 0 1 0 0 0 1 50.194402905362097 26.203662746621387 12.492702374192632 1 rotate no_reflect no_shear #
lump $-1 $-1 $43 $7 #
transform $-1 1 0 0 0 1 0 0 0 1 50.194402905362097 26.203662746621387 12.492702374192632 1 rotate no_reflect no_shear #
lump $-1 $-1 $44 $8 #
transform $-1 1 0 0 0 1 0 0 0 1 50.194402905362097 26.203662746621387 12.492702374192632 1 rotate no_reflect no_shear #
lump $-1 $-1 $45 $9 #
transform $-1 1 0 0 0 1 0 0 0 1 50.194402905362097 26.203662746621387 12.492702374192632 1 rotate no_reflect no_shear #
lump $-1 $-1 $46 $10 #
transform $-1 1 0 0 0 1 0 0 0 1 50.194402905362097 26.203662746621387 12.492702374192632 1 rotate no_reflect no_shear #
lump $-1 $-1 $47 $11 #
transform $-1 1 0 0 0 1 0 0 0 1 50.194402905362097 26.203662746621387 12.492702374192632 1 rotate no_reflect no_shear #
shell $-1 $-1 $-1 $48 $-1 $12 #
shell $-1 $-1 $-1 $49 $-1 $14 #
shell $-1 $-1 $-1 $50 $-1 $16 #
shell $-1 $-1 $-1 $51 $-1 $18 #
shell $-1 $-1 $-1 $52 $-1 $20 #
shell $-1 $-1 $-1 $53 $-1 $22 #
shell $-1 $-1 $-1 $54 $-1 $24 #
shell $-1 $-1 $-1 $55 $-1 $26 #
shell $-1 $-1 $-1 $56 $-1 $28 #
shell $-1 $-1 $-1 $57 $-1 $30 #
shell $-1 $-1 $-1 $58 $-1 $32 #
shell $-1 $-1 $-1 $59 $-1 $34 #
face $-1 $60 $61 $36 $-1 $62 forward single #
face $-1 $63 $64 $37 $-1 $65 forward single #
face $-1 $66 $67 $38 $-1 $68 reversed single #
face $-1 $69 $70 $39 $-1 $71 forward single #
face $-1 $72 $73 $40 $-1 $74 forward single #
face $-1 $75 $76 $41 $-1 $77 forward single #
face $-1 $78 $79 $42 $-1 $80 reversed single #
face $-1 $81 $82 $43 $-1 $83 forward single #
face $-1 $84 $85 $44 $-1 $86 forward single #
face $-1 $87 $88 $45 $-1 $89 forward single #
face $-1 $90 $91 $46 $-1 $92 reversed single #
face $-1 $93 $94 $47 $-1 $95 forward single #
face $-1 $96 $97 $36 $-1 $98 reversed single #
loop $-1 $-1 $99 $48 #
plane-surface $-1 0 0 12.492702374192632 0 0 1 1 0 0 forward_v I I I I #
face $-1 $100 $101 $37 $-1 $102 reversed single #
loop $-1 $-1 $103 $49 #
plane-surface $-1 -43.621431240439094 0 -6.8306300770908299 0 0 1 1 0 0 forward_v I I I I #
face $-1 $104 $105 $38 $-1 $106 reversed single #
loop $-1 $-1 $107 $50 #
plane-surface $-1 -37.048459575516091 32.985875207364188 120.28840370427552 1 0 0 0 -0.51503808176128008 -0.85716729658548041 forward_v I I I I #
face $-1 $108 $109 $39 $-1 $110 forward single #
loop $-1 $111 $112 $51 #
cone-surface $-1 -34.720829483105021 21.358277234608622 9.0709411564979323 0 -0.51503808176128008 -0.85716729658548041 1 0 0 1 I I 0 1 1 forward I I I I #
face $-1 $113 $114 $40 $-1 $115 forward single #
loop $-1 $116 $117 $52 #
cone-surface $-1 -31.22938434448843 21.358277234608622 9.0709411564979323 0 -0.51503808176128008 -0.85716729658548041 1 0 0 1 I I 0 1 1 forward I I I I #
face $-1 $118 $119 $41 $-1 $120 forward single #
loop $-1 $121 $122 $53 #
cone-surface $-1 -27.737939205871836 21.358277234608622 9.0709411564979323 0 -0.51503808176128008 -0.85716729658548041 1 0 0 1 I I 0 1 1 forward I I I I #
face $-1 $123 $124 $42 $-1 $125 reversed single #
loop $-1 $-1 $126 $54 #
plane-surface $-1 38.556252443306782 32.985875207364188 120.28840370427552 1 0 0 0 -0.51503808176128008 -0.85716729658548041 forward_v I I I I #
face $-1 $127 $128 $43 $-1 $129 forward single #
loop $-1 $130 $131 $55 #
cone-surface $-1 40.883882535717845 21.358277234608622 9.0709411564979323 0 -0.51503808176128008 -0.85716729658548041 1 0 0 1 I I 0 1 1 forward I I I I #
face $-1 $132 $133 $44 $-1 $134 forward single #
loop $-1 $135 $136 $56 #
cone-surface $-1 44.375327674334443 21.358277234608622 9.0709411564979323 0 -0.51503808176128008 -0.85716729658548041 1 0 0 1 I I 0 1 1 forward I I I I #
face $-1 $137 $138 $45 $-1 $139 forward single #
loop $-1 $140 $141 $57 #
cone-surface $-1 47.866772812951027 21.358277234608622 9.0709411564979323 0 -0.51503808176128008 -0.85716729658548041 1 0 0 1 I I 0 1 1 forward I I I I #
face $-1 $142 $143 $46 $-1 $144 reversed single #
loop $-1 $-1 $145 $58 #
plane-surface $-1 -23.904919103795908 -99.623388307096604 71.379413503067852 -1 0 0 0 -0.73135370988377701 0.68199835119979291 forward_v I I I I #
face $-1 $146 $147 $47 $-1 $148 forward single #
loop $-1 $149 $150 $59 #
cone-surface $-1 -30.476689339655998 -19.435892154409924 5.5570749329780105 0 0.73135370988377701 -0.68199835119979291 2 0 0 1 I I 0 1 2 forward I I I I #
face $-1 $151 $152 $36 $-1 $153 reversed single #
loop $-1 $-1 $154 $60 #
plane-surface $-1 0 0 -12.492702374192632 0 0 1 1 0 0 forward_v I I I I #
coedge $-1 $155 $156 $157 $158 forward $61 $-1 #
face $-1 $159 $160 $37 $-1 $161 reversed single #
loop $-1 $-1 $162 $63 #
plane-surface $-1 -37.048459575516091 0 -9.6616662256417314 -1 0 0 0 0 1 forward_v I I I I #
coedge $-1 $163 $164 $165 $166 forward $64 $-1 #
face $-1 $167 $168 $38 $-1 $169 reversed single #
loop $-1 $-1 $170 $66 #
plane-surface $-1 -31.22938434448843 -18.718182767696845 34.238402420052296 0 0.51503808176128008 0.85716729658548041 1 0 0 forward_v I I I I #
coedge $-1 $171 $172 $173 $174 reversed $67 $-1 #
face $-1 $-1 $175 $39 $-1 $176 forward single #
loop $-1 $177 $178 $69 #
cone-surface $-1 -34.720829483105021 20.620834558655584 7.8436304637200536 0 -0.51503808176128008 -0.85716729658548041 0.5 0 0 1 I I -0.70710678118654746 0.70710678118654746 0.5 forward I I I I #
loop $-1 $-1 $179 $51 #
coedge $-1 $112 $112 $180 $181 reversed $70 $-1 #
face $-1 $-1 $182 $40 $-1 $183 forward single #
loop $-1 $184 $185 $72 #
cone-surface $-1 -31.22938434448843 20.620834558655584 7.8436304637200536 0 -0.51503808176128008 -0.85716729658548041 0.5 0 0 1 I I -0.70710678118654746 0.70710678118654746 0.5 forward I I I I #
loop $-1 $-1 $186 $52 #
coedge $-1 $117 $117 $187 $188 reversed $73 $-1 #
face $-1 $-1 $189 $41 $-1 $190 forward single #
loop $-1 $191 $192 $75 #
cone-surface $-1 -27.737939205871836 20.620834558655584 7.8436304637200536 0 -0.51503808176128008 -0.85716729658548041 0.5 0 0 1 I I -0.70710678118654746 0.70710678118654746 0.5 forward I I I I #
loop $-1 $-1 $193 $53 #
coedge $-1 $122 $122 $194 $195 reversed $76 $-1 #
face $-1 $196 $197 $42 $-1 $198 forward single #
loop $-1 $-1 $199 $78 #
plane-surface $-1 44.375327674334443 -18.718182767696845 34.238402420052296 0 0.51503808176128008 0.85716729658548041 1 0 0 forward_v I I I I #
coedge $-1 $200 $201 $202 $203 reversed $79 $-1 #
face $-1 $-1 $204 $43 $-1 $205 forward single #
loop $-1 $206 $207 $81 #
cone-surface $-1 40.883882535717845 20.620834558655584 7.8436304637200536 0 -0.51503808176128008 -0.85716729658548041 0.5 0 0 1 I I -0.70710678118654746 0.70710678118654746 0.5 forward I I I I #
loop $-1 $-1 $208 $55 #
coedge $-1 $131 $131 $209 $210 reversed $82 $-1 #
face $-1 $-1 $211 $44 $-1 $212 forward single #
loop $-1 $213 $214 $84 #
cone-surface $-1 44.375327674334443 20.620834558655584 7.8436304637200536 0 -0.51503808176128008 -0.85716729658548041 0.5 0 0 1 I I -0.70710678118654746 0.70710678118654746 0.5 forward I I I I #
loop $-1 $-1 $215 $56 #
coedge $-1 $136 $136 $216 $217 reversed $85 $-1 #
face $-1 $-1 $218 $45 $-1 $219 forward single #
loop $-1 $220 $221 $87 #
cone-surface $-1 47.866772812951027 20.620834558655584 7.8436304637200536 0 -0.51503808176128008 -0.85716729658548041 0.5 0 0 1 I I -0.70710678118654746 0.70710678118654746 0.5 forward I I I I #
loop $-1 $-1 $222 $57 #
coedge $-1 $141 $141 $223 $224 reversed $88 $-1 #
face $-1 $225 $226 $46 $-1 $227 reversed single #
loop $-1 $-1 $228 $90 #
plane-surface $-1 -30.476689339655998 -26.20366274662139 2.914413461237757 0 -0.73135370988377701 0.68199835119979291 1 0 0 forward_v I I I I #
coedge $-1 $229 $230 $231 $232 reversed $91 $-1 #
face $-1 $-1 $233 $47 $-1 $234 forward single #
loop $-1 $235 $236 $93 #
cone-surface $-1 -30.476689339655998 -16.402717199169416 2.72859359704103 0 0.73135370988377701 -0.68199835119979291 1 0 0 1 I I -0.70710678118654779 0.70710678118654713 1 forward I I I I #
loop $-1 $-1 $237 $59 #
coedge $-1 $150 $150 $238 $239 reversed $94 $-1 #
face $-1 $240 $241 $36 $-1 $242 reversed single #
loop $-1 $-1 $243 $96 #
plane-surface $-1 0 -26.203662746621387 0 0 1 0 0 0 1 forward_v I I I I #
coedge $-1 $244 $245 $246 $247 forward $97 $-1 #
coedge $-1 $248 $99 $249 $250 forward $61 $-1 #
coedge $-1 $99 $248 $251 $252 forward $61 $-1 #
coedge $-1 $253 $254 $99 $158 reversed $255 $-1 #
edge $-1 $256 -26.203662746621387 $257 26.203662746621387 $157 $258 forward 7 unknown #
face $-1 $259 $260 $37 $-1 $261 reversed single #
loop $-1 $-1 $262 $100 #
plane-surface $-1 0 0 -12.492702374192632 0 0 1 1 0 0 forward_v I I I I #
coedge $-1 $263 $165 $264 $265 reversed $101 $-1 #
coedge $-1 $266 $103 $267 $268 reversed $64 $-1 #
coedge $-1 $103 $266 $269 $270 reversed $64 $-1 #
coedge $-1 $162 $271 $103 $166 reversed $101 $-1 #
edge $-1 $272 -26.203662746621387 $273 26.203662746621387 $165 $274 forward 7 unknown #
face $-1 $275 $276 $38 $-1 $277 reversed single #
loop $-1 $-1 $278 $104 #
plane-surface $-1 -25.410309113460769 32.985875207364188 120.28840370427552 -1 0 0 0 0.51503808176128008 0.85716729658548041 forward_v I I I I #
coedge $-1 $279 $280 $281 $282 reversed $105 $-1 #
coedge $-1 $172 $107 $283 $284 reversed $67 $-1 #
coedge $-1 $107 $171 $279 $285 reversed $67 $-1 #
coedge $-1 $281 $286 $107 $174 forward $287 $-1 #
edge $-1 $288 -9.7107251429392925 $289 -0.97980138905852954 $173 $290 forward 7 unknown #
loop $-1 $-1 $180 $108 #
plane-surface $-1 -31.22938434448843 -18.718182767696845 34.238402420052296 0 0.51503808176128008 0.85716729658548041 1 0 0 forward_v I I I I #
loop $-1 $-1 $291 $69 #
coedge $-1 $178 $178 $179 $292 reversed $109 $-1 #
coedge $-1 $179 $179 $178 $292 forward $111 $-1 #
coedge $-1 $180 $180 $112 $181 forward $175 $-1 #
edge $-1 $293 -3.9601613986879174e-015 $293 6.2831853071795969 $180 $294 forward 7 unknown #
loop $-1 $-1 $187 $113 #
plane-surface $-1 -31.22938434448843 -18.718182767696845 34.238402420052296 0 0.51503808176128008 0.85716729658548041 1 0 0 forward_v I I I I #
loop $-1 $-1 $295 $72 #
coedge $-1 $185 $185 $186 $296 reversed $114 $-1 #
coedge $-1 $186 $186 $185 $296 forward $116 $-1 #
coedge $-1 $187 $187 $117 $188 forward $182 $-1 #
edge $-1 $297 -3.9601613986879174e-015 $297 6.2831853071795969 $187 $298 forward 7 unknown #
loop $-1 $-1 $194 $118 #
plane-surface $-1 -31.22938434448843 -18.718182767696845 34.238402420052296 0 0.51503808176128008 0.85716729658548041 1 0 0 forward_v I I I I #
loop $-1 $-1 $299 $75 #
coedge $-1 $192 $192 $193 $300 reversed $119 $-1 #
coedge $-1 $193 $193 $192 $300 forward $121 $-1 #
coedge $-1 $194 $194 $122 $195 forward $189 $-1 #
edge $-1 $301 -3.9601613986879174e-015 $301 6.2831853071795969 $194 $302 forward 7 unknown #
face $-1 $303 $304 $42 $-1 $305 reversed single #
loop $-1 $-1 $202 $123 #
plane-surface $-1 0 0 12.492702374192632 0 0 1 1 0 0 forward_v I I I I #
coedge $-1 $306 $307 $308 $309 reversed $124 $-1 #
coedge $-1 $201 $126 $310 $311 reversed $79 $-1 #
coedge $-1 $126 $200 $306 $312 reversed $79 $-1 #
coedge $-1 $308 $313 $126 $203 forward $197 $-1 #
edge $-1 $314 -9.7107251429392925 $315 -0.97980138905852954 $202 $316 forward 7 unknown #
loop $-1 $-1 $209 $127 #
plane-surface $-1 44.375327674334443 -18.718182767696845 34.238402420052296 0 0.51503808176128008 0.85716729658548041 1 0 0 forward_v I I I I #
loop $-1 $-1 $317 $81 #
coedge $-1 $207 $207 $208 $318 reversed $128 $-1 #
coedge $-1 $208 $208 $207 $318 forward $130 $-1 #
coedge $-1 $209 $209 $131 $210 forward $204 $-1 #
edge $-1 $319 -3.9601613986879174e-015 $319 6.2831853071795969 $209 $320 forward 7 unknown #
loop $-1 $-1 $216 $132 #
plane-surface $-1 44.375327674334443 -18.718182767696845 34.238402420052296 0 0.51503808176128008 0.85716729658548041 1 0 0 forward_v I I I I #
loop $-1 $-1 $321 $84 #
coedge $-1 $214 $214 $215 $322 reversed $133 $-1 #
coedge $-1 $215 $215 $214 $322 forward $135 $-1 #
coedge $-1 $216 $216 $136 $217 forward $211 $-1 #
edge $-1 $323 -3.9601613986879174e-015 $323 6.2831853071795969 $216 $324 forward 7 unknown #
loop $-1 $-1 $223 $137 #
plane-surface $-1 44.375327674334443 -18.718182767696845 34.238402420052296 0 0.51503808176128008 0.85716729658548041 1 0 0 forward_v I I I I #
loop $-1 $-1 $325 $87 #
coedge $-1 $221 $221 $222 $326 reversed $138 $-1 #
coedge $-1 $222 $222 $221 $326 forward $140 $-1 #
coedge $-1 $223 $223 $141 $224 forward $218 $-1 #
edge $-1 $327 -3.9601613986879174e-015 $327 6.2831853071795969 $223 $328 forward 7 unknown #
face $-1 $329 $330 $46 $-1 $331 forward single #
loop $-1 $-1 $332 $142 #
plane-surface $-1 -37.048459575516091 -99.623388307096604 71.379413503067852 1 0 0 0 0.73135370988377701 -0.68199835119979291 forward_v I I I I #
coedge $-1 $333 $334 $335 $336 reversed $143 $-1 #
coedge $-1 $230 $145 $337 $338 reversed $91 $-1 #
coedge $-1 $145 $229 $333 $339 reversed $91 $-1 #
coedge $-1 $335 $340 $145 $232 forward $330 $-1 #
edge $-1 $341 23.608031406926916 $342 32.539930100636383 $231 $343 forward 7 unknown #
loop $-1 $-1 $238 $146 #
plane-surface $-1 -30.476689339655998 -26.20366274662139 2.914413461237757 0 -0.73135370988377701 0.68199835119979291 1 0 0 forward_v I I I I #
loop $-1 $-1 $344 $93 #
coedge $-1 $236 $236 $237 $345 reversed $147 $-1 #
coedge $-1 $237 $237 $236 $345 forward $149 $-1 #
coedge $-1 $238 $238 $150 $239 forward $233 $-1 #
edge $-1 $346 9.7435887342959539e-016 $346 6.2831853071796013 $238 $347 forward 7 unknown #
face $-1 $348 $349 $36 $-1 $350 reversed single #
loop $-1 $-1 $351 $151 #
plane-surface $-1 -50.194402905362097 0 0 1 0 0 0 0 -1 forward_v I I I I #
coedge $-1 $352 $251 $353 $354 forward $152 $-1 #
coedge $-1 $355 $154 $352 $356 forward $97 $-1 #
coedge $-1 $154 $355 $357 $358 forward $97 $-1 #
coedge $-1 $254 $253 $154 $247 reversed $255 $-1 #
edge $-1 $359 -26.203662746621387 $360 26.203662746621387 $246 $361 forward 7 unknown #
coedge $-1 $156 $155 $362 $363 forward $61 $-1 #
coedge $-1 $364 $365 $155 $250 reversed $349 $-1 #
edge $-1 $257 -50.194402905362097 $366 50.194402905362097 $249 $367 forward 7 unknown #
coedge $-1 $243 $368 $156 $252 reversed $152 $-1 #
edge $-1 $369 -50.194402905362097 $256 50.194402905362097 $251 $370 forward 7 unknown #
coedge $-1 $246 $157 $368 $371 forward $255 $-1 #
coedge $-1 $157 $246 $364 $372 reversed $255 $-1 #
loop $-1 $-1 $253 $348 #
vertex $-1 $158 $373 #
vertex $-1 $158 $374 #
straight-curve $-1 50.194402905362097 0 12.492702374192632 0 1 0 I I #
face $-1 $375 $376 $37 $-1 $377 reversed single #
loop $-1 $-1 $264 $159 #
plane-surface $-1 0 -26.203662746621387 0 0 1 0 0 0 1 forward_v I I I I #
coedge $-1 $378 $379 $263 $380 forward $160 $-1 #
coedge $-1 $271 $162 $262 $380 reversed $101 $-1 #
coedge $-1 $269 $381 $162 $265 forward $260 $-1 #
edge $-1 $382 -7.6618692613717663 $272 -1.9997969642699642 $264 $383 forward 7 unknown #
coedge $-1 $164 $163 $384 $385 reversed $64 $-1 #
coedge $-1 $386 $387 $163 $268 forward $388 $-1 #
edge $-1 $389 -28.38368728514255 $273 -15.237743955296544 $267 $390 forward 7 unknown #
coedge $-1 $391 $264 $164 $270 forward $260 $-1 #
edge $-1 $272 15.237743955296544 $392 28.38368728514255 $269 $393 forward 7 unknown #
coedge $-1 $165 $263 $386 $394 reversed $101 $-1 #
vertex $-1 $270 $395 #
vertex $-1 $268 $396 #
straight-curve $-1 -37.048459575516091 0 -6.8306300770908299 0 1 0 I I #
face $-1 $-1 $287 $38 $-1 $397 forward single #
loop $-1 $-1 $398 $167 #
plane-surface $-1 0 26.203662746621387 0 0 -1 0 0 0 -1 forward_v I I I I #
coedge $-1 $399 $400 $401 $402 reversed $168 $-1 #
coedge $-1 $403 $170 $172 $285 forward $105 $-1 #
coedge $-1 $170 $403 $399 $404 forward $105 $-1 #
coedge $-1 $401 $173 $170 $282 forward $287 $-1 #
edge $-1 $289 -21.433767403271876 $405 -9.7956169412165544 $281 $406 forward 7 unknown #
coedge $-1 $407 $408 $171 $284 forward $276 $-1 #
edge $-1 $409 -52.897567824364259 $288 -47.65149947794513 $283 $410 forward 7 unknown #
edge $-1 $289 42.221538204506558 $409 52.407325493242773 $172 $411 forward 7 unknown #
coedge $-1 $173 $401 $407 $412 forward $287 $-1 #
loop $-1 $-1 $401 $275 #
vertex $-1 $284 $413 #
vertex $-1 $174 $414 #
straight-curve $-1 -37.048459575516091 16.492937603682094 12.492702374192632 0 -1 0 I I #
coedge $-1 $291 $291 $-1 $415 reversed $177 $-1 #
edge $-1 $416 0 $416 6.2831853071796004 $178 $417 forward 7 unknown #
vertex $-1 $181 $418 #
ellipse-curve $-1 -34.720829483105021 21.838200869681017 9.8696682009830674 0 0.51503808176128008 0.85716729658548041 1 0 0 1 I I #
coedge $-1 $295 $295 $-1 $419 reversed $184 $-1 #
edge $-1 $420 0 $420 6.2831853071796004 $185 $421 forward 7 unknown #
vertex $-1 $188 $422 #
ellipse-curve $-1 -31.22938434448843 21.838200869681017 9.8696682009830674 0 0.51503808176128008 0.85716729658548041 1 0 0 1 I I #
coedge $-1 $299 $299 $-1 $423 reversed $191 $-1 #
edge $-1 $424 0 $424 6.2831853071796004 $192 $425 forward 7 unknown #
vertex $-1 $195 $426 #
ellipse-curve $-1 -27.737939205871836 21.838200869681017 9.8696682009830674 0 0.51503808176128008 0.85716729658548041 1 0 0 1 I I #
face $-1 $-1 $427 $42 $-1 $428 reversed single #
loop $-1 $-1 $429 $196 #
plane-surface $-1 50.194402905362097 0 0 -1 0 0 0 0 1 forward_v I I I I #
coedge $-1 $430 $199 $201 $312 forward $124 $-1 #
coedge $-1 $199 $430 $429 $431 reversed $124 $-1 #
coedge $-1 $432 $202 $199 $309 forward $197 $-1 #
edge $-1 $315 16.368588606139561 $433 28.006739068194882 $308 $434 forward 7 unknown #
coedge $-1 $435 $436 $200 $311 forward $427 $-1 #
edge $-1 $437 -52.897567824364259 $314 -47.65149947794513 $310 $438 forward 7 unknown #
edge $-1 $315 42.221538204506558 $437 52.407325493242773 $201 $439 forward 7 unknown #
coedge $-1 $202 $432 $435 $440 forward $197 $-1 #
vertex $-1 $311 $441 #
vertex $-1 $203 $442 #
straight-curve $-1 38.556252443306782 16.492937603682094 12.492702374192632 0 -1 0 I I #
coedge $-1 $317 $317 $-1 $443 reversed $206 $-1 #
edge $-1 $444 0 $444 6.2831853071796004 $207 $445 forward 7 unknown #
vertex $-1 $210 $446 #
ellipse-curve $-1 40.883882535717845 21.838200869681017 9.8696682009830674 0 0.51503808176128008 0.85716729658548041 1 0 0 1 I I #
coedge $-1 $321 $321 $-1 $447 reversed $213 $-1 #
edge $-1 $448 0 $448 6.2831853071796004 $214 $449 forward 7 unknown #
vertex $-1 $217 $450 #
ellipse-curve $-1 44.375327674334443 21.838200869681017 9.8696682009830674 0 0.51503808176128008 0.85716729658548041 1 0 0 1 I I #
coedge $-1 $325 $325 $-1 $451 reversed $220 $-1 #
edge $-1 $452 0 $452 6.2831853071796004 $221 $453 forward 7 unknown #
vertex $-1 $224 $454 #
ellipse-curve $-1 47.866772812951027 21.838200869681017 9.8696682009830674 0 0.51503808176128008 0.85716729658548041 1 0 0 1 I I #
face $-1 $-1 $455 $46 $-1 $456 reversed single #
loop $-1 $-1 $231 $225 #
plane-surface $-1 0 0 12.492702374192632 0 0 1 1 0 0 forward_v I I I I #
coedge $-1 $457 $458 $459 $460 reversed $226 $-1 #
coedge $-1 $461 $228 $230 $339 forward $143 $-1 #
coedge $-1 $228 $461 $457 $462 forward $143 $-1 #
coedge $-1 $459 $231 $228 $336 forward $330 $-1 #
edge $-1 $342 8.6665744339679094 $463 21.810114905688092 $335 $464 forward 7 unknown #
coedge $-1 $465 $466 $229 $338 forward $455 $-1 #
edge $-1 $467 -32.775293290296162 $341 -23.197004377341294 $337 $468 forward 7 unknown #
edge $-1 $342 -13.096657313021641 $467 -5.3460214915156785e-015 $230 $469 forward 7 unknown #
coedge $-1 $231 $459 $465 $470 forward $330 $-1 #
vertex $-1 $338 $471 #
vertex $-1 $232 $472 #
straight-curve $-1 -23.904919103795908 -49.811694153548302 12.492702374192632 0 1 0 I I #
coedge $-1 $344 $344 $-1 $473 reversed $235 $-1 #
edge $-1 $474 0 $474 6.2831853071796004 $236 $475 forward 7 unknown #
vertex $-1 $239 $476 #
ellipse-curve $-1 -30.476689339655998 -21.737713399766655 7.7035579177151963 0 -0.73135370988377701 0.68199835119979291 2 0 0 1 I I #
face $-1 $-1 $255 $36 $-1 $477 reversed single #
loop $-1 $-1 $364 $240 #
plane-surface $-1 0 26.203662746621387 0 0 -1 0 0 0 -1 forward_v I I I I #
coedge $-1 $478 $362 $365 $479 forward $241 $-1 #
coedge $-1 $368 $243 $244 $356 reversed $152 $-1 #
coedge $-1 $362 $478 $243 $354 reversed $241 $-1 #
edge $-1 $369 -12.492702374192632 $480 12.492702374192632 $353 $481 forward 7 unknown #
coedge $-1 $245 $244 $478 $482 forward $97 $-1 #
edge $-1 $360 -50.194402905362097 $480 50.194402905362097 $352 $483 forward 7 unknown #
coedge $-1 $365 $364 $245 $358 reversed $349 $-1 #
edge $-1 $484 -50.194402905362097 $359 50.194402905362097 $357 $485 forward 7 unknown #
vertex $-1 $247 $486 #
vertex $-1 $371 $487 #
straight-curve $-1 50.194402905362097 0 -12.492702374192632 0 -1 0 I I #
coedge $-1 $351 $353 $248 $363 reversed $241 $-1 #
edge $-1 $366 -26.203662746621387 $369 26.203662746621387 $362 $488 forward 7 unknown #
coedge $-1 $357 $249 $254 $372 forward $349 $-1 #
coedge $-1 $249 $357 $351 $479 reversed $349 $-1 #
vertex $-1 $250 $489 #
straight-curve $-1 0 26.203662746621387 12.492702374192632 -1 0 0 I I #
coedge $-1 $251 $352 $253 $371 reversed $152 $-1 #
vertex $-1 $363 $490 #
straight-curve $-1 0 -26.203662746621387 12.492702374192632 1 0 0 I I #
edge $-1 $256 -12.492702374192632 $360 12.492702374192632 $253 $491 forward 7 unknown #
edge $-1 $257 -12.492702374192632 $359 12.492702374192632 $254 $492 forward 7 unknown #
point $-1 50.194402905362097 -26.203662746621387 12.492702374192632 #
point $-1 50.194402905362097 26.203662746621387 12.492702374192632 #
face $-1 $-1 $388 $37 $-1 $493 reversed single #
loop $-1 $-1 $384 $259 #
plane-surface $-1 -50.194402905362097 0 0 1 0 0 0 0 -1 forward_v I I I I #
coedge $-1 $494 $262 $381 $495 forward $160 $-1 #
coedge $-1 $262 $494 $496 $497 forward $160 $-1 #
edge $-1 $498 -26.203662746621387 $382 26.203662746621387 $262 $499 forward 7 unknown #
coedge $-1 $264 $391 $378 $495 reversed $260 $-1 #
vertex $-1 $495 $500 #
straight-curve $-1 -37.048459575516091 -26.203662746621387 -4.8308331128208657 0 0 1 I I #
coedge $-1 $501 $502 $266 $385 forward $376 $-1 #
edge $-1 $392 -26.203662746621387 $389 26.203662746621387 $384 $503 forward 7 unknown #
coedge $-1 $496 $267 $271 $394 forward $388 $-1 #
coedge $-1 $267 $496 $501 $504 reversed $388 $-1 #
loop $-1 $-1 $386 $375 #
vertex $-1 $504 $505 #
straight-curve $-1 -21.810715620219547 26.203662746621387 -6.8306300770908299 1 0 0 I I #
coedge $-1 $381 $269 $502 $506 forward $260 $-1 #
vertex $-1 $506 $507 #
straight-curve $-1 -21.810715620219547 -26.203662746621387 -6.8306300770908299 -1 0 0 I I #
edge $-1 $273 1.9997969642699642 $498 7.6618692613717663 $386 $508 forward 7 unknown #
point $-1 -37.048459575516091 -26.203662746621387 -6.8306300770908299 #
point $-1 -37.048459575516091 26.203662746621387 -6.8306300770908299 #
plane-surface $-1 0 0 12.492702374192632 0 0 1 1 0 0 forward_v I I I I #
coedge $-1 $408 $407 $400 $509 forward $276 $-1 #
coedge $-1 $400 $278 $280 $404 reversed $168 $-1 #
coedge $-1 $278 $399 $398 $509 reversed $168 $-1 #
coedge $-1 $286 $281 $278 $402 forward $287 $-1 #
edge $-1 $405 0.97980138905852954 $510 9.7107251429392925 $401 $511 forward 7 unknown #
coedge $-1 $280 $279 $408 $512 reversed $105 $-1 #
edge $-1 $513 -52.407325493242773 $405 -42.221538204506558 $399 $514 forward 7 unknown #
vertex $-1 $282 $515 #
straight-curve $-1 -15.614692172244215 17.472738992740631 12.49270237419263 1 0 0 I I #
coedge $-1 $398 $283 $286 $412 reversed $276 $-1 #
coedge $-1 $283 $398 $403 $512 forward $276 $-1 #
vertex $-1 $284 $516 #
straight-curve $-1 -37.048459575516091 26.203662746621387 60.144201852137762 0 0 1 I I #
straight-curve $-1 -37.048459575516091 -18.718182767696845 34.238402420052296 0 0.85716729658548041 -0.51503808176128008 I I #
edge $-1 $510 25.410309113460769 $288 37.048459575516091 $407 $517 forward 7 unknown #
point $-1 -37.048459575516091 26.203662746621387 12.492702374192632 #
point $-1 -37.048459575516091 17.472738992740624 12.492702374192632 #
edge $-1 $518 1 $518 0 $291 $-1 forward 7 unknown #
vertex $-1 $292 $519 #
ellipse-curve $-1 -34.720829483105021 20.878353599536226 8.2722141120127937 0 0.51503808176128008 0.85716729658548041 1 0 0 1 I I #
point $-1 -33.720829483105021 21.838200869681014 9.8696682009830692 #
edge $-1 $520 1 $520 0 $295 $-1 forward 7 unknown #
vertex $-1 $296 $521 #
ellipse-curve $-1 -31.22938434448843 20.878353599536226 8.2722141120127937 0 0.51503808176128008 0.85716729658548041 1 0 0 1 I I #
point $-1 -30.22938434448843 21.838200869681014 9.8696682009830692 #
edge $-1 $522 1 $522 0 $299 $-1 forward 7 unknown #
vertex $-1 $300 $523 #
ellipse-curve $-1 -27.737939205871836 20.878353599536226 8.2722141120127937 0 0.51503808176128008 0.85716729658548041 1 0 0 1 I I #
point $-1 -26.737939205871836 21.838200869681014 9.8696682009830692 #
loop $-1 $-1 $310 $303 #
plane-surface $-1 0 26.203662746621387 0 0 -1 0 0 0 -1 forward_v I I I I #
coedge $-1 $524 $525 $307 $431 forward $304 $-1 #
coedge $-1 $307 $306 $436 $526 reversed $124 $-1 #
edge $-1 $433 25.382190592019494 $527 35.567977880755706 $429 $528 forward 7 unknown #
coedge $-1 $313 $308 $525 $529 forward $197 $-1 #
vertex $-1 $529 $530 #
straight-curve $-1 22.187663837167221 17.472738992740631 12.49270237419263 1 0 0 I I #
coedge $-1 $531 $310 $313 $440 reversed $427 $-1 #
coedge $-1 $310 $531 $430 $526 forward $427 $-1 #
vertex $-1 $311 $532 #
straight-curve $-1 38.556252443306782 26.203662746621387 60.144201852137762 0 0 1 I I #
straight-curve $-1 38.556252443306782 -18.718182767696845 34.238402420052296 0 0.85716729658548041 -0.51503808176128008 I I #
edge $-1 $533 -50.194402905362097 $314 -38.556252443306782 $435 $534 forward 7 unknown #
point $-1 38.556252443306782 26.203662746621387 12.492702374192632 #
point $-1 38.556252443306782 17.472738992740624 12.492702374192632 #
edge $-1 $535 1 $535 0 $317 $-1 forward 7 unknown #
vertex $-1 $318 $536 #
ellipse-curve $-1 40.883882535717845 20.878353599536226 8.2722141120127937 0 0.51503808176128008 0.85716729658548041 1 0 0 1 I I #
point $-1 41.883882535717845 21.838200869681014 9.8696682009830692 #
edge $-1 $537 1 $537 0 $321 $-1 forward 7 unknown #
vertex $-1 $322 $538 #
ellipse-curve $-1 44.375327674334443 20.878353599536226 8.2722141120127937 0 0.51503808176128008 0.85716729658548041 1 0 0 1 I I #
point $-1 45.375327674334443 21.838200869681014 9.8696682009830692 #
edge $-1 $539 1 $539 0 $325 $-1 forward 7 unknown #
vertex $-1 $326 $540 #
ellipse-curve $-1 47.866772812951027 20.878353599536226 8.2722141120127937 0 0.51503808176128008 0.85716729658548041 1 0 0 1 I I #
point $-1 48.866772812951027 21.838200869681014 9.8696682009830692 #
loop $-1 $-1 $337 $329 #
plane-surface $-1 0 -26.203662746621387 0 0 1 0 0 0 1 forward_v I I I I #
coedge $-1 $458 $332 $334 $462 reversed $226 $-1 #
coedge $-1 $332 $457 $541 $542 reversed $226 $-1 #
coedge $-1 $340 $335 $332 $460 forward $330 $-1 #
edge $-1 $463 -32.539930100636383 $543 -23.608031406926916 $459 $544 forward 7 unknown #
coedge $-1 $334 $333 $466 $545 reversed $143 $-1 #
edge $-1 $546 5.3460214915156785e-015 $463 13.096657313021641 $457 $547 forward 7 unknown #
vertex $-1 $336 $548 #
straight-curve $-1 -15.238344669827999 -17.271764052911923 12.492702374192632 -1 0 0 I I #
coedge $-1 $541 $337 $340 $470 reversed $455 $-1 #
coedge $-1 $337 $541 $461 $545 forward $455 $-1 #
vertex $-1 $338 $549 #
straight-curve $-1 -23.904919103795908 -26.203662746621383 35.689706751533926 0 0 1 I I #
straight-curve $-1 -23.904919103795908 -26.20366274662139 2.914413461237757 0 -0.68199835119979291 -0.73135370988377701 I I #
edge $-1 $543 -37.048459575516091 $341 -23.904919103795908 $465 $550 forward 7 unknown #
point $-1 -23.904919103795908 -26.203662746621387 12.492702374192632 #
point $-1 -23.904919103795908 -17.271764052911919 12.492702374192632 #
edge $-1 $551 1 $551 0 $344 $-1 forward 7 unknown #
vertex $-1 $345 $552 #
ellipse-curve $-1 -30.476689339655998 -17.134070909053193 3.4105919482408225 0 -0.73135370988377701 0.68199835119979291 2 0 0 1 I I #
point $-1 -28.476689339655998 -21.737713399766655 7.7035579177151989 #
plane-surface $-1 50.194402905362097 0 0 -1 0 0 0 0 1 forward_v I I I I #
coedge $-1 $353 $351 $355 $482 reversed $241 $-1 #
edge $-1 $366 -12.492702374192632 $484 12.492702374192632 $365 $553 forward 7 unknown #
vertex $-1 $482 $554 #
straight-curve $-1 -50.194402905362097 -26.203662746621387 0 0 0 -1 I I #
edge $-1 $480 -26.203662746621387 $484 26.203662746621387 $478 $555 forward 7 unknown #
straight-curve $-1 0 -26.203662746621387 -12.492702374192632 -1 0 0 I I #
vertex $-1 $358 $556 #
straight-curve $-1 0 26.203662746621387 -12.492702374192632 1 0 0 I I #
point $-1 50.194402905362097 26.203662746621387 -12.492702374192632 #
point $-1 50.194402905362097 -26.203662746621387 -12.492702374192632 #
straight-curve $-1 -50.194402905362097 0 12.492702374192632 0 -1 0 I I #
point $-1 -50.194402905362097 26.203662746621387 12.492702374192632 #
point $-1 -50.194402905362097 -26.203662746621387 12.492702374192632 #
straight-curve $-1 50.194402905362097 -26.203662746621387 0 0 0 -1 I I #
straight-curve $-1 50.194402905362097 26.203662746621387 0 0 0 -1 I I #
plane-surface $-1 0 26.203662746621387 0 0 -1 0 0 0 -1 forward_v I I I I #
coedge $-1 $379 $378 $557 $558 forward $160 $-1 #
edge $-1 $382 37.048459575516091 $559 50.194402905362097 $381 $560 forward 7 unknown #
coedge $-1 $387 $386 $379 $497 reversed $388 $-1 #
edge $-1 $561 -50.194402905362097 $498 -37.048459575516091 $496 $562 forward 7 unknown #
vertex $-1 $394 $563 #
straight-curve $-1 -37.048459575516091 0 -12.492702374192632 0 -1 0 I I #
point $-1 -37.048459575516091 -26.203662746621387 -12.492702374192632 #
coedge $-1 $557 $384 $387 $504 forward $376 $-1 #
coedge $-1 $384 $557 $391 $506 reversed $376 $-1 #
straight-curve $-1 -50.194402905362097 0 -6.8306300770908299 0 1 0 I I #
edge $-1 $389 6.8306300770908299 $561 12.492702374192632 $387 $564 forward 7 unknown #
point $-1 -50.194402905362097 26.203662746621387 -6.8306300770908299 #
edge $-1 $392 6.8306300770908299 $559 12.492702374192632 $502 $565 forward 7 unknown #
point $-1 -50.194402905362097 -26.203662746621387 -6.8306300770908299 #
straight-curve $-1 -37.048459575516091 26.203662746621387 -4.8308331128208657 0 0 -1 I I #
edge $-1 $510 47.65149947794513 $513 52.897567824364259 $398 $566 forward 7 unknown #
vertex $-1 $412 $567 #
straight-curve $-1 -25.410309113460769 16.492937603682094 12.492702374192632 0 1 0 I I #
edge $-1 $513 9.7956169412165544 $409 21.433767403271876 $408 $568 forward 7 unknown #
vertex $-1 $512 $569 #
straight-curve $-1 -25.410309113460769 -18.718182767696845 34.238402420052296 0 -0.85716729658548041 0.51503808176128008 I I #
point $-1 -25.410309113460769 17.472738992740624 12.492702374192632 #
point $-1 -37.048459575516091 26.20366274662139 7.2466340277735064 #
straight-curve $-1 0 26.203662746621387 12.492702374192632 -1 0 0 I I #
vertex $-1 $415 $570 #
point $-1 -33.720829483105021 20.878353599536226 8.2722141120127937 #
vertex $-1 $419 $571 #
point $-1 -30.22938434448843 20.878353599536226 8.2722141120127937 #
vertex $-1 $423 $572 #
point $-1 -26.737939205871836 20.878353599536226 8.2722141120127937 #
coedge $-1 $525 $429 $531 $573 reversed $304 $-1 #
coedge $-1 $429 $524 $432 $529 reversed $304 $-1 #
edge $-1 $527 -28.006739068194882 $437 -16.368588606139561 $436 $574 forward 7 unknown #
vertex $-1 $431 $575 #
straight-curve $-1 50.194402905362097 -4.2840446984381408 25.565497127605568 0 0.85716729658548041 -0.51503808176128008 I I #
edge $-1 $433 17.472738992740624 $533 26.203662746621387 $525 $576 forward 7 unknown #
point $-1 50.194402905362104 17.472738992740624 12.492702374192632 #
coedge $-1 $436 $435 $524 $573 forward $427 $-1 #
point $-1 38.556252443306782 26.20366274662139 7.2466340277735064 #
vertex $-1 $529 $577 #
straight-curve $-1 0 26.203662746621387 12.492702374192632 -1 0 0 I I #
vertex $-1 $443 $578 #
point $-1 41.883882535717845 20.878353599536226 8.2722141120127937 #
vertex $-1 $447 $579 #
point $-1 45.375327674334443 20.878353599536226 8.2722141120127937 #
vertex $-1 $451 $580 #
point $-1 48.866772812951027 20.878353599536226 8.2722141120127937 #
coedge $-1 $466 $465 $458 $542 forward $455 $-1 #
edge $-1 $543 23.197004377341294 $546 32.775293290296162 $541 $581 forward 7 unknown #
vertex $-1 $470 $582 #
straight-curve $-1 -37.048459575516091 -49.811694153548302 12.492702374192632 0 -1 0 I I #
edge $-1 $546 -21.810114905688092 $467 -8.6665744339679094 $466 $583 forward 7 unknown #
vertex $-1 $545 $584 #
straight-curve $-1 -37.048459575516091 -26.20366274662139 2.914413461237757 0 0.68199835119979291 0.73135370988377701 I I #
point $-1 -37.048459575516091 -17.271764052911919 12.492702374192632 #
point $-1 -23.904919103795908 -26.203662746621387 2.914413461237761 #
straight-curve $-1 0 -26.203662746621387 12.492702374192632 1 0 0 I I #
vertex $-1 $473 $585 #
point $-1 -28.476689339655998 -17.134070909053193 3.4105919482408225 #
straight-curve $-1 -50.194402905362097 26.203662746621387 0 0 0 -1 I I #
point $-1 -50.194402905362097 -26.203662746621387 -12.492702374192632 #
straight-curve $-1 -50.194402905362097 0 -12.492702374192632 0 1 0 I I #
point $-1 -50.194402905362097 26.203662746621387 -12.492702374192632 #
coedge $-1 $502 $501 $494 $558 reversed $376 $-1 #
edge $-1 $559 -26.203662746621387 $561 26.203662746621387 $557 $586 forward 7 unknown #
vertex $-1 $558 $587 #
straight-curve $-1 0 -26.203662746621387 -12.492702374192632 -1 0 0 I I #
vertex $-1 $497 $588 #
straight-curve $-1 0 26.203662746621387 -12.492702374192632 1 0 0 I I #
point $-1 -37.048459575516091 26.203662746621387 -12.492702374192632 #
straight-curve $-1 -50.194402905362097 26.203662746621387 0 0 0 -1 I I #
straight-curve $-1 -50.194402905362097 -26.203662746621387 0 0 0 -1 I I #
straight-curve $-1 -25.410309113460769 26.203662746621387 60.144201852137762 0 0 -1 I I #
point $-1 -25.410309113460769 26.203662746621387 12.492702374192632 #
straight-curve $-1 -15.614692172244215 26.203662746621387 7.2466340277735082 -1 0 0 I I #
point $-1 -25.410309113460769 26.20366274662139 7.2466340277735064 #
point $-1 -34.720829483105021 20.363315517774943 7.4150468154273135 #
point $-1 -31.22938434448843 20.363315517774943 7.4150468154273135 #
point $-1 -27.737939205871836 20.363315517774943 7.4150468154273135 #
edge $-1 $533 -12.492702374192632 $527 -7.2466340277735064 $524 $589 forward 7 unknown #
straight-curve $-1 22.187663837167221 26.203662746621387 7.2466340277735082 -1 0 0 I I #
point $-1 50.194402905362104 26.20366274662139 7.2466340277735064 #
straight-curve $-1 50.194402905362097 0 12.492702374192632 0 1 0 I I #
point $-1 50.194402905362097 26.203662746621387 12.492702374192632 #
point $-1 40.883882535717845 20.363315517774943 7.4150468154273135 #
point $-1 44.375327674334443 20.363315517774943 7.4150468154273135 #
point $-1 47.866772812951027 20.363315517774943 7.4150468154273135 #
straight-curve $-1 -37.048459575516091 -26.203662746621383 35.689706751533926 0 0 -1 I I #
point $-1 -37.048459575516091 -26.203662746621387 12.492702374192632 #
straight-curve $-1 -15.238344669827999 -26.203662746621387 2.9144134612377632 1 0 0 I I #
point $-1 -37.048459575516091 -26.203662746621387 2.914413461237761 #
point $-1 -30.476689339655998 -15.671363489285639 2.0465952458412375 #
straight-curve $-1 -50.194402905362097 0 -12.492702374192632 0 1 0 I I #
point $-1 -50.194402905362097 -26.203662746621387 -12.492702374192632 #
point $-1 -50.194402905362097 26.203662746621387 -12.492702374192632 #
straight-curve $-1 50.194402905362097 26.203662746621387 0 0 0 -1 I I #
End-of-ACIS-data 