500 0 6 0           
7 Unknown 11 ACIS 5.0 NT 24 Thu Mar 25 22:13:08 1999 
-1 9.9999999999999995e-007 1e-010 
body $-1 $6 $-1 $7 #
body $-1 $8 $-1 $9 #
body $-1 $10 $-1 $11 #
body $-1 $12 $-1 $13 #
body $-1 $14 $-1 $15 #
body $-1 $16 $-1 $17 #
lump $-1 $-1 $18 $0 #
transform $-1 1 0 0 0 1 0 0 0 1 67.088229010895105 27.415738789775954 9.5850918172451962 1 rotate no_reflect no_shear #
lump $-1 $-1 $19 $1 #
transform $-1 1 0 0 0 1 0 0 0 1 67.088229010895105 27.415738789775954 9.5850918172451962 1 rotate no_reflect no_shear #
lump $-1 $-1 $20 $2 #
transform $-1 1 0 0 0 1 0 0 0 1 67.088229010895105 27.415738789775954 9.5850918172451962 1 rotate no_reflect no_shear #
lump $-1 $-1 $21 $3 #
transform $-1 1 0 0 0 1 0 0 0 1 67.088229010895105 27.415738789775954 9.5850918172451962 1 rotate no_reflect no_shear #
lump $-1 $-1 $22 $4 #
transform $-1 1 0 0 0 1 0 0 0 1 67.088229010895105 27.415738789775954 9.5850918172451962 1 rotate no_reflect no_shear #
lump $-1 $-1 $23 $5 #
transform $-1 1 0 0 0 1 0 0 0 1 67.088229010895105 27.415738789775954 9.5850918172451962 1 rotate no_reflect no_shear #
shell $-1 $-1 $-1 $24 $-1 $6 #
shell $-1 $-1 $-1 $25 $-1 $8 #
shell $-1 $-1 $-1 $26 $-1 $10 #
shell $-1 $-1 $-1 $27 $-1 $12 #
shell $-1 $-1 $-1 $28 $-1 $14 #
shell $-1 $-1 $-1 $29 $-1 $16 #
face $-1 $30 $31 $18 $-1 $32 forward single #
face $-1 $33 $34 $19 $-1 $35 forward single #
face $-1 $36 $37 $20 $-1 $38 reversed single #
face $-1 $39 $40 $21 $-1 $41 forward single #
face $-1 $42 $43 $22 $-1 $44 forward single #
face $-1 $45 $46 $23 $-1 $47 forward single #
face $-1 $48 $49 $18 $-1 $50 reversed single #
loop $-1 $-1 $51 $24 #
plane-surface $-1 0 0 9.5850918172451962 0 0 1 1 0 0 forward_v I I I I #
face $-1 $52 $53 $19 $-1 $54 reversed single #
loop $-1 $-1 $55 $25 #
plane-surface $-1 -67.088229010895105 0 0 1 0 0 0 0 -1 forward_v I I I I #
face $-1 $56 $57 $20 $-1 $58 reversed single #
loop $-1 $-1 $59 $26 #
plane-surface $-1 109.773631637893 21.264898411696223 190.36934553386789 0 1 0 0.84804810408105047 0 0.52991925155115449 forward_v I I I I #
face $-1 $60 $61 $21 $-1 $62 forward single #
loop $-1 $63 $64 $27 #
cone-surface $-1 65.122909483371444 22.495066487312169 7.1054816447635458 -0.84804810408105047 0 -0.52991925155115449 0.26495962577557725 0 -0.42402405204052523 1 I I 0 1 0.5 forward I I I I #
face $-1 $65 $66 $22 $-1 $67 forward single #
loop $-1 $68 $69 $28 #
cone-surface $-1 65.122909483371444 24.340318600736087 7.1054816447635458 -0.84804810408105047 0 -0.52991925155115449 0.26495962577557725 0 -0.42402405204052523 1 I I 0 1 0.5 forward I I I I #
face $-1 $70 $71 $23 $-1 $72 forward single #
loop $-1 $73 $74 $29 #
cone-surface $-1 65.122909483371444 26.185570714160004 7.1054816447635458 -0.84804810408105047 0 -0.52991925155115449 0.26495962577557725 0 -0.42402405204052523 1 I I 0 1 0.5 forward I I I I #
face $-1 $75 $76 $18 $-1 $77 reversed single #
loop $-1 $-1 $78 $30 #
plane-surface $-1 0 0 -9.5850918172451962 0 0 1 1 0 0 forward_v I I I I #
coedge $-1 $79 $80 $81 $82 forward $31 $-1 #
face $-1 $83 $84 $19 $-1 $85 forward single #
loop $-1 $-1 $86 $33 #
plane-surface $-1 0 27.415738789775954 0 0 -1 0 0 0 -1 forward_v I I I I #
coedge $-1 $87 $88 $89 $90 forward $34 $-1 #
face $-1 $91 $92 $20 $-1 $93 forward single #
loop $-1 $-1 $94 $36 #
plane-surface $-1 -4.0144591997968462 24.340318600736087 119.26665732317592 0.84804810408105047 0 0.52991925155115449 0.52991925155115449 0 -0.84804810408105047 forward_v I I I I #
coedge $-1 $95 $96 $97 $98 reversed $37 $-1 #
face $-1 $-1 $99 $21 $-1 $100 forward single #
loop $-1 $101 $102 $39 #
cone-surface $-1 64.228598798460752 22.495066487312169 6.546654325273682 -0.84804810408105047 0 -0.52991925155115449 0.13247981288778862 0 -0.21201202602026262 1 I I -0.70710678118654746 0.70710678118654746 0.25 forward I I I I #
loop $-1 $-1 $103 $27 #
coedge $-1 $64 $64 $104 $105 reversed $40 $-1 #
face $-1 $-1 $106 $22 $-1 $107 forward single #
loop $-1 $108 $109 $42 #
cone-surface $-1 64.228598798460752 24.340318600736087 6.546654325273682 -0.84804810408105047 0 -0.52991925155115449 0.13247981288778862 0 -0.21201202602026262 1 I I -0.70710678118654746 0.70710678118654746 0.25 forward I I I I #
loop $-1 $-1 $110 $28 #
coedge $-1 $69 $69 $111 $112 reversed $43 $-1 #
face $-1 $-1 $113 $23 $-1 $114 forward single #
loop $-1 $115 $116 $45 #
cone-surface $-1 64.228598798460752 26.185570714160004 6.546654325273682 -0.84804810408105047 0 -0.52991925155115449 0.13247981288778862 0 -0.21201202602026262 1 I I -0.70710678118654746 0.70710678118654746 0.25 forward I I I I #
loop $-1 $-1 $117 $29 #
coedge $-1 $74 $74 $118 $119 reversed $46 $-1 #
face $-1 $120 $121 $18 $-1 $122 reversed single #
loop $-1 $-1 $123 $48 #
plane-surface $-1 0 -27.415738789775954 0 0 1 0 0 0 1 forward_v I I I I #
coedge $-1 $124 $125 $126 $127 forward $49 $-1 #
coedge $-1 $128 $51 $129 $130 forward $31 $-1 #
coedge $-1 $51 $128 $131 $132 forward $31 $-1 #
coedge $-1 $133 $134 $51 $82 reversed $135 $-1 #
edge $-1 $136 -27.415738789775954 $137 27.415738789775954 $81 $138 forward 7 unknown #
face $-1 $139 $140 $19 $-1 $141 reversed single #
loop $-1 $-1 $89 $52 #
plane-surface $-1 -71.821120762155388 0 -4.6966277102255916 0 0 1 1 0 0 forward_v I I I I #
coedge $-1 $142 $143 $88 $144 forward $53 $-1 #
coedge $-1 $145 $55 $146 $147 reversed $34 $-1 #
coedge $-1 $55 $145 $86 $144 reversed $34 $-1 #
coedge $-1 $148 $149 $55 $90 reversed $84 $-1 #
edge $-1 $150 -27.415738789775954 $151 27.415738789775954 $89 $152 forward 7 unknown #
face $-1 $153 $154 $20 $-1 $155 reversed single #
loop $-1 $-1 $156 $56 #
plane-surface $-1 0 0 9.5850918172451962 0 0 1 1 0 0 forward_v I I I I #
coedge $-1 $157 $158 $159 $160 reversed $57 $-1 #
coedge $-1 $96 $59 $161 $162 reversed $37 $-1 #
coedge $-1 $59 $95 $157 $163 reversed $37 $-1 #
coedge $-1 $159 $164 $59 $98 forward $154 $-1 #
edge $-1 $165 85.599580949688743 $166 89.706106281447845 $97 $167 forward 7 unknown #
loop $-1 $-1 $104 $60 #
plane-surface $-1 -4.0144591997968462 24.340318600736087 119.26665732317592 0.84804810408105047 0 0.52991925155115449 0.52991925155115449 0 -0.84804810408105047 forward_v I I I I #
loop $-1 $-1 $168 $39 #
coedge $-1 $102 $102 $103 $169 reversed $61 $-1 #
coedge $-1 $103 $103 $102 $169 forward $63 $-1 #
coedge $-1 $104 $104 $64 $105 forward $99 $-1 #
edge $-1 $170 0 $170 6.2831853071796004 $104 $171 forward 7 unknown #
loop $-1 $-1 $111 $65 #
plane-surface $-1 -4.0144591997968462 24.340318600736087 119.26665732317592 0.84804810408105047 0 0.52991925155115449 0.52991925155115449 0 -0.84804810408105047 forward_v I I I I #
loop $-1 $-1 $172 $42 #
coedge $-1 $109 $109 $110 $173 reversed $66 $-1 #
coedge $-1 $110 $110 $109 $173 forward $68 $-1 #
coedge $-1 $111 $111 $69 $112 forward $106 $-1 #
edge $-1 $174 0 $174 6.2831853071796004 $111 $175 forward 7 unknown #
loop $-1 $-1 $118 $70 #
plane-surface $-1 -4.0144591997968462 24.340318600736087 119.26665732317592 0.84804810408105047 0 0.52991925155115449 0.52991925155115449 0 -0.84804810408105047 forward_v I I I I #
loop $-1 $-1 $176 $45 #
coedge $-1 $116 $116 $117 $177 reversed $71 $-1 #
coedge $-1 $117 $117 $116 $177 forward $73 $-1 #
coedge $-1 $118 $118 $74 $119 forward $113 $-1 #
edge $-1 $178 0 $178 6.2831853071796004 $118 $179 forward 7 unknown #
face $-1 $180 $181 $18 $-1 $182 reversed single #
loop $-1 $-1 $183 $75 #
plane-surface $-1 -67.088229010895105 0 0 1 0 0 0 0 -1 forward_v I I I I #
coedge $-1 $184 $131 $183 $185 forward $76 $-1 #
coedge $-1 $186 $78 $184 $187 forward $49 $-1 #
coedge $-1 $78 $186 $188 $189 forward $49 $-1 #
coedge $-1 $134 $133 $78 $127 reversed $135 $-1 #
edge $-1 $190 -27.415738789775954 $191 27.415738789775954 $126 $192 forward 7 unknown #
coedge $-1 $80 $79 $193 $194 forward $31 $-1 #
coedge $-1 $195 $196 $79 $130 reversed $181 $-1 #
edge $-1 $137 -67.088229010895105 $197 67.088229010895105 $129 $198 forward 7 unknown #
coedge $-1 $123 $199 $80 $132 reversed $76 $-1 #
edge $-1 $200 -67.088229010895105 $136 67.088229010895105 $131 $201 forward 7 unknown #
coedge $-1 $126 $81 $199 $202 forward $135 $-1 #
coedge $-1 $81 $126 $195 $203 reversed $135 $-1 #
loop $-1 $-1 $133 $180 #
vertex $-1 $82 $204 #
vertex $-1 $82 $205 #
straight-curve $-1 67.088229010895105 0 9.5850918172451962 0 1 0 I I #
face $-1 $206 $207 $19 $-1 $208 reversed single #
loop $-1 $-1 $209 $83 #
plane-surface $-1 -76.554012513415671 0 -7.1408597637353939 1 0 0 0 0 -1 forward_v I I I I #
coedge $-1 $210 $86 $211 $212 reversed $53 $-1 #
coedge $-1 $86 $210 $148 $213 reversed $53 $-1 #
edge $-1 $150 4.6966277102255916 $214 9.5850918172451962 $86 $215 forward 7 unknown #
coedge $-1 $88 $87 $216 $217 reversed $34 $-1 #
coedge $-1 $218 $219 $87 $147 forward $220 $-1 #
edge $-1 $221 -9.5850918172451962 $151 -4.6966277102255916 $146 $222 forward 7 unknown #
coedge $-1 $223 $89 $143 $213 forward $84 $-1 #
coedge $-1 $89 $223 $218 $224 forward $84 $-1 #
vertex $-1 $144 $225 #
vertex $-1 $224 $226 #
straight-curve $-1 -67.088229010895105 0 -4.6966277102255916 0 -1 0 I I #
face $-1 $-1 $227 $20 $-1 $228 reversed single #
loop $-1 $-1 $97 $91 #
plane-surface $-1 67.088229010895105 0 0 -1 0 0 0 0 1 forward_v I I I I #
coedge $-1 $161 $229 $230 $231 forward $92 $-1 #
coedge $-1 $230 $94 $96 $163 forward $57 $-1 #
coedge $-1 $94 $230 $232 $233 reversed $57 $-1 #
coedge $-1 $234 $97 $94 $160 forward $154 $-1 #
edge $-1 $166 9.0947391113281792 $235 15.245579489407911 $159 $236 forward 7 unknown #
coedge $-1 $237 $156 $95 $162 forward $92 $-1 #
edge $-1 $238 9.6353714546821863 $165 12.201413191948603 $161 $239 forward 7 unknown #
edge $-1 $166 -134.17645802179018 $238 -129.33413208296983 $96 $240 forward 7 unknown #
coedge $-1 $97 $234 $237 $241 reversed $154 $-1 #
vertex $-1 $241 $242 #
vertex $-1 $98 $243 #
straight-curve $-1 67.088229010895105 21.264898411696223 95.184672766933943 0 0 -1 I I #
coedge $-1 $168 $168 $-1 $244 reversed $101 $-1 #
edge $-1 $245 0 $245 6.2831853071796004 $102 $246 forward 7 unknown #
vertex $-1 $105 $247 #
ellipse-curve $-1 65.805208142261904 22.495066487312169 7.5318291513656392 0.84804810408105047 0 0.52991925155115449 0.26495962577557725 0 -0.42402405204052523 1 I I #
coedge $-1 $172 $172 $-1 $248 reversed $108 $-1 #
edge $-1 $249 0 $249 6.2831853071796004 $109 $250 forward 7 unknown #
vertex $-1 $112 $251 #
ellipse-curve $-1 65.805208142261904 24.340318600736087 7.5318291513656392 0.84804810408105047 0 0.52991925155115449 0.26495962577557725 0 -0.42402405204052523 1 I I #
coedge $-1 $176 $176 $-1 $252 reversed $115 $-1 #
edge $-1 $253 0 $253 6.2831853071796004 $116 $254 forward 7 unknown #
vertex $-1 $119 $255 #
ellipse-curve $-1 65.805208142261904 26.185570714160004 7.5318291513656392 0.84804810408105047 0 0.52991925155115449 0.26495962577557725 0 -0.42402405204052523 1 I I #
face $-1 $-1 $135 $18 $-1 $256 reversed single #
loop $-1 $-1 $195 $120 #
plane-surface $-1 0 27.415738789775954 0 0 -1 0 0 0 -1 forward_v I I I I #
coedge $-1 $193 $257 $123 $185 reversed $121 $-1 #
coedge $-1 $199 $123 $124 $187 reversed $76 $-1 #
edge $-1 $200 -9.5850918172451962 $258 9.5850918172451962 $183 $259 forward 7 unknown #
coedge $-1 $125 $124 $257 $260 forward $49 $-1 #
edge $-1 $191 -67.088229010895105 $258 67.088229010895105 $184 $261 forward 7 unknown #
coedge $-1 $196 $195 $125 $189 reversed $181 $-1 #
edge $-1 $262 -67.088229010895105 $190 67.088229010895105 $188 $263 forward 7 unknown #
vertex $-1 $127 $264 #
vertex $-1 $202 $265 #
straight-curve $-1 67.088229010895105 0 -9.5850918172451962 0 -1 0 I I #
coedge $-1 $266 $183 $128 $194 reversed $121 $-1 #
edge $-1 $197 -27.415738789775954 $200 27.415738789775954 $193 $267 forward 7 unknown #
coedge $-1 $188 $129 $134 $203 forward $181 $-1 #
coedge $-1 $129 $188 $266 $268 reversed $181 $-1 #
vertex $-1 $130 $269 #
straight-curve $-1 0 27.415738789775954 9.5850918172451962 -1 0 0 I I #
coedge $-1 $131 $184 $133 $202 reversed $76 $-1 #
vertex $-1 $194 $270 #
straight-curve $-1 0 -27.415738789775954 9.5850918172451962 1 0 0 I I #
edge $-1 $136 -9.5850918172451962 $191 9.5850918172451962 $133 $271 forward 7 unknown #
edge $-1 $137 -9.5850918172451962 $190 9.5850918172451962 $134 $272 forward 7 unknown #
point $-1 67.088229010895105 -27.415738789775954 9.5850918172451962 #
point $-1 67.088229010895105 27.415738789775954 9.5850918172451962 #
face $-1 $-1 $220 $19 $-1 $273 reversed single #
loop $-1 $-1 $216 $139 #
plane-surface $-1 0 0 -9.5850918172451962 0 0 1 1 0 0 forward_v I I I I #
coedge $-1 $274 $275 $210 $276 forward $140 $-1 #
coedge $-1 $143 $142 $209 $276 reversed $53 $-1 #
coedge $-1 $216 $277 $142 $212 forward $207 $-1 #
edge $-1 $278 -76.554012513415671 $214 -67.088229010895105 $142 $279 forward 7 unknown #
edge $-1 $150 -4.7328917512602828 $280 4.7328917512602828 $143 $281 forward 7 unknown #
vertex $-1 $144 $282 #
straight-curve $-1 -67.088229010895105 27.415738789775954 0 0 0 -1 I I #
coedge $-1 $283 $211 $145 $217 forward $207 $-1 #
edge $-1 $214 -27.415738789775954 $221 27.415738789775954 $216 $284 forward 7 unknown #
coedge $-1 $285 $146 $149 $224 reversed $220 $-1 #
coedge $-1 $146 $285 $283 $286 reversed $220 $-1 #
loop $-1 $-1 $146 $206 #
vertex $-1 $286 $287 #
straight-curve $-1 -67.088229010895105 -27.415738789775954 0 0 0 1 I I #
coedge $-1 $149 $148 $275 $288 forward $84 $-1 #
edge $-1 $289 -4.7328917512602828 $151 4.7328917512602828 $218 $290 forward 7 unknown #
point $-1 -67.088229010895105 27.415738789775954 -4.6966277102255916 #
point $-1 -67.088229010895105 -27.415738789775954 -4.6966277102255916 #
loop $-1 $-1 $232 $153 #
plane-surface $-1 0 27.415738789775954 0 0 -1 0 0 0 -1 forward_v I I I I #
coedge $-1 $156 $237 $291 $292 forward $92 $-1 #
coedge $-1 $158 $157 $156 $231 reversed $57 $-1 #
edge $-1 $293 -15.245579489407907 $238 -9.0947391113281792 $156 $294 forward 7 unknown #
coedge $-1 $291 $295 $158 $233 forward $227 $-1 #
edge $-1 $235 -82.540857103018837 $293 -77.698531164198499 $232 $296 forward 7 unknown #
coedge $-1 $164 $159 $295 $297 reversed $154 $-1 #
vertex $-1 $160 $298 #
straight-curve $-1 67.088229010895105 12.170159300368043 5.4785664854861125 0 1 0 I I #
coedge $-1 $229 $161 $164 $241 forward $92 $-1 #
vertex $-1 $162 $299 #
straight-curve $-1 54.886815818946502 21.264898411696223 9.5850918172451998 1 0 0 I I #
straight-curve $-1 -4.0144591997968462 21.264898411696223 119.26665732317592 -0.52991925155115449 0 0.84804810408105047 I I #
edge $-1 $165 21.264898411696223 $300 27.415738789775954 $164 $301 forward 7 unknown #
point $-1 67.088229010895105 21.264898411696223 9.5850918172451962 #
point $-1 67.088229010895105 21.264898411696223 5.4785664854860983 #
edge $-1 $302 1 $302 0 $168 $-1 forward 7 unknown #
vertex $-1 $169 $303 #
ellipse-curve $-1 64.440610824481013 22.495066487312169 6.6791341381614702 0.84804810408105047 0 0.52991925155115449 0.26495962577557725 0 -0.42402405204052523 1 I I #
point $-1 66.07016776803745 22.495066487312169 7.1078050993250965 #
edge $-1 $304 1 $304 0 $172 $-1 forward 7 unknown #
vertex $-1 $173 $305 #
ellipse-curve $-1 64.440610824481013 24.340318600736087 6.6791341381614702 0.84804810408105047 0 0.52991925155115449 0.26495962577557725 0 -0.42402405204052523 1 I I #
point $-1 66.07016776803745 24.340318600736087 7.1078050993250965 #
edge $-1 $306 1 $306 0 $176 $-1 forward 7 unknown #
vertex $-1 $177 $307 #
ellipse-curve $-1 64.440610824481013 26.185570714160004 6.6791341381614702 0.84804810408105047 0 0.52991925155115449 0.26495962577557725 0 -0.42402405204052523 1 I I #
point $-1 66.07016776803745 26.185570714160004 7.1078050993250965 #
plane-surface $-1 67.088229010895105 0 0 -1 0 0 0 0 1 forward_v I I I I #
coedge $-1 $183 $266 $186 $260 reversed $121 $-1 #
vertex $-1 $260 $308 #
straight-curve $-1 -67.088229010895105 -27.415738789775954 0 0 0 -1 I I #
edge $-1 $258 -27.415738789775954 $262 27.415738789775954 $257 $309 forward 7 unknown #
straight-curve $-1 0 -27.415738789775954 -9.5850918172451962 -1 0 0 I I #
vertex $-1 $189 $310 #
straight-curve $-1 0 27.415738789775954 -9.5850918172451962 1 0 0 I I #
point $-1 67.088229010895105 27.415738789775954 -9.5850918172451962 #
point $-1 67.088229010895105 -27.415738789775954 -9.5850918172451962 #
coedge $-1 $257 $193 $196 $268 forward $121 $-1 #
straight-curve $-1 -67.088229010895105 0 9.5850918172451962 0 -1 0 I I #
edge $-1 $197 -9.5850918172451962 $262 9.5850918172451962 $196 $311 forward 7 unknown #
point $-1 -67.088229010895105 27.415738789775954 9.5850918172451962 #
point $-1 -67.088229010895105 -27.415738789775954 9.5850918172451962 #
straight-curve $-1 67.088229010895105 -27.415738789775954 0 0 0 -1 I I #
straight-curve $-1 67.088229010895105 27.415738789775954 0 0 0 -1 I I #
plane-surface $-1 0 -27.415738789775954 0 0 1 0 0 0 1 forward_v I I I I #
coedge $-1 $312 $209 $277 $313 reversed $140 $-1 #
coedge $-1 $209 $312 $223 $288 reversed $140 $-1 #
edge $-1 $280 -2.4442320535098023 $278 2.4442320535098023 $210 $314 forward 7 unknown #
coedge $-1 $211 $283 $274 $313 forward $207 $-1 #
vertex $-1 $212 $315 #
straight-curve $-1 0 27.415738789775954 -9.5850918172451962 1 0 0 I I #
vertex $-1 $213 $316 #
straight-curve $-1 -71.821120762155388 27.415738789775954 -4.6966277102255916 -1 0 0 I I #
point $-1 -67.088229010895105 27.415738789775954 -9.5850918172451962 #
coedge $-1 $277 $216 $219 $286 forward $207 $-1 #
straight-curve $-1 -67.088229010895105 0 -9.5850918172451962 0 -1 0 I I #
coedge $-1 $219 $218 $312 $317 forward $220 $-1 #
edge $-1 $221 -4.7328917512602828 $318 4.7328917512602828 $219 $319 forward 7 unknown #
point $-1 -67.088229010895105 -27.415738789775954 -9.5850918172451962 #
edge $-1 $280 -27.415738789775954 $289 27.415738789775954 $275 $320 forward 7 unknown #
vertex $-1 $288 $321 #
straight-curve $-1 -71.821120762155388 -27.415738789775954 -4.6966277102255916 1 0 0 I I #
coedge $-1 $295 $232 $229 $292 reversed $227 $-1 #
edge $-1 $300 -67.088229010895105 $293 -64.522187273628688 $291 $322 forward 7 unknown #
vertex $-1 $233 $323 #
straight-curve $-1 64.522187273628674 12.170159300368043 9.5850918172451998 0 -1 0 I I #
coedge $-1 $232 $291 $234 $297 forward $227 $-1 #
straight-curve $-1 23.348239792472565 27.415738789775954 75.477183860926147 -0.52991925155115449 0 0.84804810408105047 I I #
edge $-1 $300 -9.5850918172451962 $235 -5.4785664854861151 $234 $324 forward 7 unknown #
point $-1 67.088229010895105 27.415738789775954 5.4785664854861151 #
point $-1 64.522187273628688 21.264898411696223 9.5850918172451998 #
vertex $-1 $241 $325 #
straight-curve $-1 67.088229010895105 0 9.5850918172451962 0 1 0 I I #
vertex $-1 $244 $326 #
point $-1 64.705570450256587 22.495066487312169 6.2551100861209452 #
vertex $-1 $248 $327 #
point $-1 64.705570450256587 24.340318600736087 6.2551100861209452 #
vertex $-1 $252 $328 #
point $-1 64.705570450256587 26.185570714160004 6.2551100861209452 #
point $-1 -67.088229010895105 -27.415738789775954 -9.5850918172451962 #
straight-curve $-1 -67.088229010895105 0 -9.5850918172451962 0 1 0 I I #
point $-1 -67.088229010895105 27.415738789775954 -9.5850918172451962 #
straight-curve $-1 -67.088229010895105 27.415738789775954 0 0 0 -1 I I #
coedge $-1 $275 $274 $285 $317 reversed $140 $-1 #
edge $-1 $318 -27.415738789775954 $278 27.415738789775954 $274 $329 forward 7 unknown #
straight-curve $-1 -76.554012513415671 27.415738789775954 -7.1408597637353939 0 0 -1 I I #
point $-1 -76.554012513415671 27.415738789775954 -9.5850918172451962 #
point $-1 -76.554012513415671 27.415738789775954 -4.6966277102255916 #
edge $-1 $289 -2.4442320535098023 $318 2.4442320535098023 $312 $330 forward 7 unknown #
vertex $-1 $313 $331 #
straight-curve $-1 -71.821120762155388 -27.415738789775954 -9.5850918172451962 -1 0 0 I I #
straight-curve $-1 -76.554012513415671 0 -4.6966277102255916 0 -1 0 I I #
point $-1 -76.554012513415671 -27.415738789775954 -4.6966277102255916 #
straight-curve $-1 0 27.415738789775954 9.5850918172451962 -1 0 0 I I #
point $-1 64.522187273628688 27.415738789775951 9.5850918172451998 #
straight-curve $-1 67.088229010895105 27.415738789775954 0 0 0 -1 I I #
point $-1 67.088229010895105 27.415738789775954 9.5850918172451962 #
point $-1 64.01658677244049 22.495066487312169 6.4141745123858938 #
point $-1 64.01658677244049 24.340318600736087 6.4141745123858938 #
point $-1 64.01658677244049 26.185570714160004 6.4141745123858938 #
straight-curve $-1 -76.554012513415671 0 -9.5850918172451962 0 1 0 I I #
straight-curve $-1 -76.554012513415671 -27.415738789775954 -7.1408597637353939 0 0 -1 I I #
point $-1 -76.554012513415671 -27.415738789775954 -9.5850918172451962 #
End-of-ACIS-data 