500 0 6 0           
7 Unknown 11 ACIS 5.0 NT 24 Thu Mar 25 20:56:28 1999 
-1 9.9999999999999995e-007 1e-010 
body $-1 $6 $-1 $7 #
body $-1 $8 $-1 $9 #
body $-1 $10 $-1 $11 #
body $-1 $12 $-1 $13 #
body $-1 $14 $-1 $15 #
body $-1 $16 $-1 $17 #
lump $-1 $-1 $18 $0 #
transform $-1 1 0 0 0 1 0 0 0 1 62.80465102084414 32.735010036158116 15.886175392680913 1 rotate no_reflect no_shear #
lump $-1 $-1 $19 $1 #
transform $-1 1 0 0 0 1 0 0 0 1 62.80465102084414 32.735010036158116 15.886175392680913 1 rotate no_reflect no_shear #
lump $-1 $-1 $20 $2 #
transform $-1 1 0 0 0 1 0 0 0 1 62.80465102084414 32.735010036158116 15.886175392680913 1 rotate no_reflect no_shear #
lump $-1 $-1 $21 $3 #
transform $-1 1 0 0 0 1 0 0 0 1 62.80465102084414 32.735010036158116 15.886175392680913 1 rotate no_reflect no_shear #
lump $-1 $-1 $22 $4 #
transform $-1 1 0 0 0 1 0 0 0 1 62.80465102084414 32.735010036158116 15.886175392680913 1 rotate no_reflect no_shear #
lump $-1 $-1 $23 $5 #
transform $-1 1 0 0 0 1 0 0 0 1 62.80465102084414 32.735010036158116 15.886175392680913 1 rotate no_reflect no_shear #
shell $-1 $-1 $-1 $24 $-1 $6 #
shell $-1 $-1 $-1 $25 $-1 $8 #
shell $-1 $-1 $-1 $26 $-1 $10 #
shell $-1 $-1 $-1 $27 $-1 $12 #
shell $-1 $-1 $-1 $28 $-1 $14 #
shell $-1 $-1 $-1 $29 $-1 $16 #
face $-1 $30 $31 $18 $-1 $32 forward single #
face $-1 $33 $34 $19 $-1 $35 reversed single #
face $-1 $36 $37 $20 $-1 $38 forward single #
face $-1 $39 $40 $21 $-1 $41 reversed single #
face $-1 $42 $43 $22 $-1 $44 forward single #
face $-1 $45 $46 $23 $-1 $47 forward single #
face $-1 $48 $49 $18 $-1 $50 reversed single #
loop $-1 $-1 $51 $24 #
plane-surface $-1 0 0 15.886175392680913 0 0 1 1 0 0 forward_v I I I I #
face $-1 $52 $53 $19 $-1 $54 reversed single #
loop $-1 $-1 $55 $25 #
plane-surface $-1 25.648570760232197 84.581357520856898 133.11574809782053 1 0 0 0 -0.75470958851134928 -0.65605901945558964 forward_v I I I I #
face $-1 $56 $57 $20 $-1 $58 forward single #
loop $-1 $59 $60 $26 #
cone-surface $-1 44.226610890538176 22.36829882868614 5.0922624499402263 0 -0.75470958851134928 -0.65605901945558964 4 0 0 1 I I 0 1 4 forward I I I I #
face $-1 $61 $62 $21 $-1 $63 reversed single #
loop $-1 $-1 $64 $27 #
plane-surface $-1 -27.236962846916214 -113.47511404230661 102.43317061245261 -1 0 0 0 -0.64278761758704617 0.76604443648966558 forward_v I I I I #
face $-1 $65 $66 $22 $-1 $67 forward single #
loop $-1 $68 $69 $28 #
cone-surface $-1 -48.870804702205618 -25.340815609378481 9.1072712096974087 0 0.64278761758704617 -0.76604443648966558 3 0 0 1 I I 0 1 3 forward I I I I #
face $-1 $70 $71 $23 $-1 $72 forward single #
loop $-1 $73 $74 $29 #
cone-surface $-1 -35.890499589031982 -25.340815609378481 9.1072712096974087 0 0.64278761758704617 -0.76604443648966558 3 0 0 1 I I 0 1 3 forward I I I I #
face $-1 $75 $76 $18 $-1 $77 reversed single #
loop $-1 $-1 $78 $30 #
plane-surface $-1 0 0 -15.886175392680913 0 0 1 1 0 0 forward_v I I I I #
coedge $-1 $79 $80 $81 $82 forward $31 $-1 #
face $-1 $83 $84 $19 $-1 $85 forward single #
loop $-1 $-1 $86 $33 #
plane-surface $-1 44.226610890538176 -10.217187136223444 50.708632565849527 0 0.75470958851134928 0.65605901945558964 1 0 0 forward_v I I I I #
coedge $-1 $87 $88 $89 $90 reversed $34 $-1 #
face $-1 $-1 $91 $20 $-1 $92 forward single #
loop $-1 $93 $94 $36 #
cone-surface $-1 44.226610890538176 16.832917317172864 0.28042883600782709 0 -0.75470958851134928 -0.65605901945558964 2 0 0 1 I I -0.70710678118654746 0.70710678118654746 2 forward I I I I #
loop $-1 $-1 $95 $26 #
coedge $-1 $60 $60 $96 $97 reversed $37 $-1 #
face $-1 $98 $99 $21 $-1 $100 reversed single #
loop $-1 $-1 $101 $39 #
plane-surface $-1 -42.380652145618797 -32.735010036158116 6.2108636120673282 0 -0.64278761758704617 0.76604443648966558 1 0 0 forward_v I I I I #
coedge $-1 $102 $103 $104 $105 reversed $40 $-1 #
face $-1 $-1 $106 $22 $-1 $107 forward single #
loop $-1 $108 $109 $42 #
cone-surface $-1 -48.870804702205618 -22.747733422472102 6.0169562622862056 0 0.64278761758704617 -0.76604443648966558 1.5 0 0 1 I I -0.70710678118654724 0.70710678118654768 1.5 forward I I I I #
loop $-1 $-1 $110 $28 #
coedge $-1 $69 $69 $111 $112 reversed $43 $-1 #
face $-1 $-1 $113 $23 $-1 $114 forward single #
loop $-1 $115 $116 $45 #
cone-surface $-1 -35.890499589031982 -22.747733422472102 6.0169562622862056 0 0.64278761758704617 -0.76604443648966558 1.5 0 0 1 I I -0.70710678118654724 0.70710678118654768 1.5 forward I I I I #
loop $-1 $-1 $117 $29 #
coedge $-1 $74 $74 $118 $119 reversed $46 $-1 #
face $-1 $120 $121 $18 $-1 $122 reversed single #
loop $-1 $-1 $123 $48 #
plane-surface $-1 0 -32.735010036158116 0 0 1 0 0 0 1 forward_v I I I I #
coedge $-1 $124 $125 $126 $127 forward $49 $-1 #
coedge $-1 $128 $51 $129 $130 forward $31 $-1 #
coedge $-1 $51 $128 $131 $132 forward $31 $-1 #
coedge $-1 $133 $134 $51 $82 reversed $135 $-1 #
edge $-1 $136 -32.735010036158116 $137 32.735010036158116 $81 $138 forward 7 unknown #
face $-1 $139 $140 $19 $-1 $141 reversed single #
loop $-1 $-1 $89 $52 #
plane-surface $-1 0 0 15.886175392680913 0 0 1 1 0 0 forward_v I I I I #
coedge $-1 $142 $143 $144 $145 reversed $53 $-1 #
coedge $-1 $88 $55 $146 $147 reversed $34 $-1 #
coedge $-1 $55 $87 $142 $148 reversed $34 $-1 #
coedge $-1 $144 $149 $55 $90 forward $84 $-1 #
edge $-1 $150 9.5556687242703333 $151 22.237166470233095 $89 $152 forward 7 unknown #
loop $-1 $-1 $96 $56 #
plane-surface $-1 44.226610890538176 -10.217187136223444 50.708632565849527 0 0.75470958851134928 0.65605901945558964 1 0 0 forward_v I I I I #
loop $-1 $-1 $153 $36 #
coedge $-1 $94 $94 $95 $154 reversed $57 $-1 #
coedge $-1 $95 $95 $94 $154 forward $59 $-1 #
coedge $-1 $96 $96 $60 $97 forward $91 $-1 #
edge $-1 $155 -2.4753907830180837e-016 $155 6.2831853071796004 $96 $156 forward 7 unknown #
face $-1 $157 $158 $21 $-1 $159 reversed single #
loop $-1 $-1 $160 $61 #
plane-surface $-1 -57.524341444321379 -113.47511404230661 102.43317061245261 1 0 0 0 0.64278761758704617 -0.76604443648966558 forward_v I I I I #
coedge $-1 $161 $162 $163 $164 reversed $62 $-1 #
coedge $-1 $103 $64 $165 $166 reversed $40 $-1 #
coedge $-1 $64 $102 $161 $167 reversed $40 $-1 #
coedge $-1 $163 $168 $64 $105 forward $169 $-1 #
edge $-1 $170 24.002546984995192 $171 35.533134317502828 $104 $172 forward 7 unknown #
loop $-1 $-1 $111 $65 #
plane-surface $-1 -42.380652145618797 -32.735010036158116 6.2108636120673282 0 -0.64278761758704617 0.76604443648966558 1 0 0 forward_v I I I I #
loop $-1 $-1 $173 $42 #
coedge $-1 $109 $109 $110 $174 reversed $66 $-1 #
coedge $-1 $110 $110 $109 $174 forward $68 $-1 #
coedge $-1 $111 $111 $69 $112 forward $106 $-1 #
edge $-1 $175 8.18502913448286e-016 $175 6.2831853071796013 $111 $176 forward 7 unknown #
loop $-1 $-1 $118 $70 #
plane-surface $-1 -42.380652145618797 -32.735010036158116 6.2108636120673282 0 -0.64278761758704617 0.76604443648966558 1 0 0 forward_v I I I I #
loop $-1 $-1 $177 $45 #
coedge $-1 $116 $116 $117 $178 reversed $71 $-1 #
coedge $-1 $117 $117 $116 $178 forward $73 $-1 #
coedge $-1 $118 $118 $74 $119 forward $113 $-1 #
edge $-1 $179 8.18502913448286e-016 $179 6.2831853071796013 $118 $180 forward 7 unknown #
face $-1 $181 $182 $18 $-1 $183 reversed single #
loop $-1 $-1 $184 $75 #
plane-surface $-1 -62.80465102084414 0 0 1 0 0 0 0 -1 forward_v I I I I #
coedge $-1 $185 $131 $186 $187 forward $76 $-1 #
coedge $-1 $188 $78 $185 $189 forward $49 $-1 #
coedge $-1 $78 $188 $190 $191 forward $49 $-1 #
coedge $-1 $134 $133 $78 $127 reversed $135 $-1 #
edge $-1 $192 -32.735010036158116 $193 32.735010036158116 $126 $194 forward 7 unknown #
coedge $-1 $80 $79 $195 $196 forward $31 $-1 #
coedge $-1 $197 $198 $79 $130 reversed $182 $-1 #
edge $-1 $137 -62.80465102084414 $199 62.80465102084414 $129 $200 forward 7 unknown #
coedge $-1 $123 $201 $80 $132 reversed $76 $-1 #
edge $-1 $202 -62.80465102084414 $136 62.80465102084414 $131 $203 forward 7 unknown #
coedge $-1 $126 $81 $201 $204 forward $135 $-1 #
coedge $-1 $81 $126 $197 $205 reversed $135 $-1 #
loop $-1 $-1 $133 $181 #
vertex $-1 $82 $206 #
vertex $-1 $82 $207 #
straight-curve $-1 62.80465102084414 0 15.886175392680913 0 1 0 I I #
face $-1 $-1 $208 $19 $-1 $209 reversed single #
loop $-1 $-1 $146 $83 #
plane-surface $-1 0 32.735010036158116 0 0 -1 0 0 0 -1 forward_v I I I I #
coedge $-1 $210 $86 $88 $148 forward $53 $-1 #
coedge $-1 $86 $210 $211 $212 reversed $53 $-1 #
coedge $-1 $213 $89 $86 $145 forward $84 $-1 #
edge $-1 $151 3.5352653149631088 $214 40.69134557557507 $144 $215 forward 7 unknown #
coedge $-1 $216 $217 $87 $147 forward $140 $-1 #
edge $-1 $218 -65.260093391668292 $150 -50.671698656229353 $146 $219 forward 7 unknown #
edge $-1 $151 46.140207708047377 $218 65.470020072316245 $88 $220 forward 7 unknown #
coedge $-1 $89 $213 $216 $221 forward $84 $-1 #
vertex $-1 $147 $222 #
vertex $-1 $90 $223 #
straight-curve $-1 25.648570760232197 42.290678760428449 15.886175392680912 0 -1 0 I I #
coedge $-1 $153 $153 $-1 $224 reversed $93 $-1 #
edge $-1 $225 0 $225 6.2831853071796004 $94 $226 forward 7 unknown #
vertex $-1 $97 $227 #
ellipse-curve $-1 44.226610890538176 26.394261163176722 8.591978024961449 0 0.75470958851134928 0.65605901945558964 4 0 0 1 I I #
face $-1 $-1 $169 $21 $-1 $228 forward single #
loop $-1 $-1 $229 $98 #
plane-surface $-1 0 -32.735010036158116 0 0 1 0 0 0 1 forward_v I I I I #
coedge $-1 $230 $231 $232 $233 reversed $99 $-1 #
coedge $-1 $234 $101 $103 $167 forward $62 $-1 #
coedge $-1 $101 $234 $230 $235 forward $62 $-1 #
coedge $-1 $232 $104 $101 $164 forward $169 $-1 #
edge $-1 $171 6.0466367741068154 $236 36.334015371511981 $163 $237 forward 7 unknown #
coedge $-1 $238 $239 $102 $166 forward $158 $-1 #
edge $-1 $240 -45.005721694158979 $170 -35.330409913545395 $165 $241 forward 7 unknown #
edge $-1 $171 -15.052112884398177 $240 0 $103 $242 forward 7 unknown #
coedge $-1 $104 $232 $238 $243 forward $169 $-1 #
loop $-1 $-1 $232 $157 #
vertex $-1 $166 $244 #
vertex $-1 $105 $245 #
straight-curve $-1 -27.236962846916214 -56.737557021153307 15.886175392680912 0 1 0 I I #
coedge $-1 $173 $173 $-1 $246 reversed $108 $-1 #
edge $-1 $247 0 $247 6.2831853071796004 $109 $248 forward 7 unknown #
vertex $-1 $112 $249 #
ellipse-curve $-1 -48.870804702205618 -26.969716369904297 11.048519502374123 0 -0.64278761758704617 0.76604443648966558 3 0 0 1 I I #
coedge $-1 $177 $177 $-1 $250 reversed $115 $-1 #
edge $-1 $251 0 $251 6.2831853071796004 $116 $252 forward 7 unknown #
vertex $-1 $119 $253 #
ellipse-curve $-1 -35.890499589031982 -26.969716369904297 11.048519502374123 0 -0.64278761758704617 0.76604443648966558 3 0 0 1 I I #
face $-1 $-1 $135 $18 $-1 $254 reversed single #
loop $-1 $-1 $197 $120 #
plane-surface $-1 0 32.735010036158116 0 0 -1 0 0 0 -1 forward_v I I I I #
coedge $-1 $255 $195 $198 $256 forward $121 $-1 #
coedge $-1 $201 $123 $124 $189 reversed $76 $-1 #
coedge $-1 $195 $255 $123 $187 reversed $121 $-1 #
edge $-1 $202 -15.886175392680913 $257 15.886175392680913 $186 $258 forward 7 unknown #
coedge $-1 $125 $124 $255 $259 forward $49 $-1 #
edge $-1 $193 -62.80465102084414 $257 62.80465102084414 $185 $260 forward 7 unknown #
coedge $-1 $198 $197 $125 $191 reversed $182 $-1 #
edge $-1 $261 -62.80465102084414 $192 62.80465102084414 $190 $262 forward 7 unknown #
vertex $-1 $127 $263 #
vertex $-1 $204 $264 #
straight-curve $-1 62.80465102084414 0 -15.886175392680913 0 -1 0 I I #
coedge $-1 $184 $186 $128 $196 reversed $121 $-1 #
edge $-1 $199 -32.735010036158116 $202 32.735010036158116 $195 $265 forward 7 unknown #
coedge $-1 $190 $129 $134 $205 forward $182 $-1 #
coedge $-1 $129 $190 $184 $256 reversed $182 $-1 #
vertex $-1 $130 $266 #
straight-curve $-1 0 32.735010036158116 15.886175392680913 -1 0 0 I I #
coedge $-1 $131 $185 $133 $204 reversed $76 $-1 #
vertex $-1 $196 $267 #
straight-curve $-1 0 -32.735010036158116 15.886175392680913 1 0 0 I I #
edge $-1 $136 -15.886175392680913 $193 15.886175392680913 $133 $268 forward 7 unknown #
edge $-1 $137 -15.886175392680913 $192 15.886175392680913 $134 $269 forward 7 unknown #
point $-1 62.80465102084414 -32.735010036158116 15.886175392680913 #
point $-1 62.80465102084414 32.735010036158116 15.886175392680913 #
loop $-1 $-1 $211 $139 #
plane-surface $-1 62.80465102084414 0 0 -1 0 0 0 0 1 forward_v I I I I #
coedge $-1 $143 $142 $217 $270 reversed $53 $-1 #
coedge $-1 $271 $272 $143 $212 forward $208 $-1 #
edge $-1 $214 23.653523212082114 $273 42.983335576350967 $211 $274 forward 7 unknown #
coedge $-1 $149 $144 $272 $275 forward $84 $-1 #
vertex $-1 $275 $276 #
straight-curve $-1 22.113305445269088 20.05351229019535 15.886175392680908 1 0 0 I I #
coedge $-1 $277 $146 $149 $221 reversed $140 $-1 #
coedge $-1 $146 $277 $210 $270 forward $140 $-1 #
vertex $-1 $147 $278 #
straight-curve $-1 25.648570760232197 32.735010036158116 66.557874048910264 0 0 1 I I #
straight-curve $-1 25.648570760232197 -10.217187136223444 50.708632565849527 0 0.65605901945558964 -0.75470958851134928 I I #
edge $-1 $279 -62.80465102084414 $150 -25.648570760232197 $216 $280 forward 7 unknown #
point $-1 25.648570760232197 32.735010036158116 15.886175392680913 #
point $-1 25.648570760232197 20.053512290195354 15.886175392680912 #
edge $-1 $281 1 $281 0 $153 $-1 forward 7 unknown #
vertex $-1 $154 $282 #
ellipse-curve $-1 44.226610890538176 18.342336494195564 1.5925468749190064 0 0.75470958851134928 0.65605901945558964 4 0 0 1 I I #
point $-1 48.226610890538176 26.394261163176719 8.5919780249614472 #
plane-surface $-1 0 0 15.886175392680913 0 0 1 1 0 0 forward_v I I I I #
coedge $-1 $239 $238 $231 $283 forward $158 $-1 #
coedge $-1 $231 $160 $162 $235 reversed $99 $-1 #
coedge $-1 $160 $230 $229 $283 reversed $99 $-1 #
coedge $-1 $168 $163 $160 $233 forward $169 $-1 #
edge $-1 $236 -35.533134317502828 $284 -24.002546984995192 $232 $285 forward 7 unknown #
coedge $-1 $162 $161 $239 $286 reversed $62 $-1 #
edge $-1 $287 0 $236 15.052112884398177 $230 $288 forward 7 unknown #
vertex $-1 $164 $289 #
straight-curve $-1 -21.190326072809398 -21.204422703650476 15.886175392680913 -1 0 0 I I #
coedge $-1 $229 $165 $168 $243 reversed $158 $-1 #
coedge $-1 $165 $229 $234 $286 forward $158 $-1 #
vertex $-1 $166 $290 #
straight-curve $-1 -27.236962846916214 -32.735010036158116 51.216585306226307 0 0 1 I I #
straight-curve $-1 -27.236962846916214 -32.735010036158116 6.2108636120673282 0 -0.76604443648966558 -0.64278761758704617 I I #
edge $-1 $284 -57.524341444321379 $170 -27.236962846916214 $238 $291 forward 7 unknown #
point $-1 -27.236962846916214 -32.735010036158116 15.886175392680913 #
point $-1 -27.236962846916214 -21.204422703650479 15.886175392680913 #
edge $-1 $292 1 $292 0 $173 $-1 forward 7 unknown #
vertex $-1 $174 $293 #
ellipse-curve $-1 -48.870804702205618 -23.711914848852672 7.1660229170207046 0 -0.64278761758704617 0.76604443648966558 3 0 0 1 I I #
point $-1 -45.870804702205618 -26.969716369904287 11.048519502374115 #
edge $-1 $294 1 $294 0 $177 $-1 forward 7 unknown #
vertex $-1 $178 $295 #
ellipse-curve $-1 -35.890499589031982 -23.711914848852672 7.1660229170207046 0 -0.64278761758704617 0.76604443648966558 3 0 0 1 I I #
point $-1 -32.890499589031982 -26.969716369904287 11.048519502374115 #
plane-surface $-1 62.80465102084414 0 0 -1 0 0 0 0 1 forward_v I I I I #
coedge $-1 $186 $184 $188 $259 reversed $121 $-1 #
edge $-1 $199 -15.886175392680913 $261 15.886175392680913 $198 $296 forward 7 unknown #
vertex $-1 $259 $297 #
straight-curve $-1 -62.80465102084414 -32.735010036158116 0 0 0 -1 I I #
edge $-1 $257 -32.735010036158116 $261 32.735010036158116 $255 $298 forward 7 unknown #
straight-curve $-1 0 -32.735010036158116 -15.886175392680913 -1 0 0 I I #
vertex $-1 $191 $299 #
straight-curve $-1 0 32.735010036158116 -15.886175392680913 1 0 0 I I #
point $-1 62.80465102084414 32.735010036158116 -15.886175392680913 #
point $-1 62.80465102084414 -32.735010036158116 -15.886175392680913 #
straight-curve $-1 -62.80465102084414 0 15.886175392680913 0 -1 0 I I #
point $-1 -62.80465102084414 32.735010036158116 15.886175392680913 #
point $-1 -62.80465102084414 -32.735010036158116 15.886175392680913 #
straight-curve $-1 62.80465102084414 -32.735010036158116 0 0 0 -1 I I #
straight-curve $-1 62.80465102084414 32.735010036158116 0 0 0 -1 I I #
edge $-1 $273 -40.69134557557507 $218 -3.5352653149631088 $217 $300 forward 7 unknown #
coedge $-1 $272 $211 $277 $301 reversed $208 $-1 #
coedge $-1 $211 $271 $213 $275 reversed $208 $-1 #
vertex $-1 $212 $302 #
straight-curve $-1 62.80465102084414 4.5354050450067351 33.737716162915049 0 0.65605901945558975 -0.75470958851134939 I I #
edge $-1 $214 20.053512290195354 $279 32.735010036158116 $272 $303 forward 7 unknown #
point $-1 62.804651020844155 20.053512290195354 15.886175392680912 #
coedge $-1 $217 $216 $271 $301 forward $140 $-1 #
point $-1 25.648570760232197 32.735010036158116 1.2977806572419723 #
vertex $-1 $275 $304 #
straight-curve $-1 0 32.735010036158116 15.886175392680913 -1 0 0 I I #
vertex $-1 $224 $305 #
point $-1 48.226610890538176 18.342336494195564 1.5925468749190064 #
edge $-1 $284 35.330409913545395 $287 45.005721694158979 $229 $306 forward 7 unknown #
vertex $-1 $243 $307 #
straight-curve $-1 -57.524341444321379 -56.737557021153307 15.886175392680912 0 -1 0 I I #
edge $-1 $287 -36.334015371511981 $240 -6.0466367741068154 $239 $308 forward 7 unknown #
vertex $-1 $286 $309 #
straight-curve $-1 -57.524341444321379 -32.735010036158116 6.2108636120673282 0 0.76604443648966558 0.64278761758704617 I I #
point $-1 -57.524341444321379 -21.204422703650479 15.886175392680913 #
point $-1 -27.236962846916214 -32.735010036158116 6.2108636120673282 #
straight-curve $-1 0 -32.735010036158116 15.886175392680913 1 0 0 I I #
vertex $-1 $246 $310 #
point $-1 -45.870804702205618 -23.711914848852672 7.1660229170207046 #
vertex $-1 $250 $311 #
point $-1 -32.890499589031982 -23.711914848852672 7.1660229170207046 #
straight-curve $-1 -62.80465102084414 32.735010036158116 0 0 0 -1 I I #
point $-1 -62.80465102084414 -32.735010036158116 -15.886175392680913 #
straight-curve $-1 -62.80465102084414 0 -15.886175392680913 0 1 0 I I #
point $-1 -62.80465102084414 32.735010036158116 -15.886175392680913 #
straight-curve $-1 22.113305445269088 32.735010036158116 1.2977806572419652 -1 0 0 I I #
edge $-1 $279 -15.886175392680913 $273 -1.2977806572419723 $271 $312 forward 7 unknown #
point $-1 62.804651020844155 32.735010036158116 1.2977806572419723 #
straight-curve $-1 62.80465102084414 0 15.886175392680913 0 1 0 I I #
point $-1 62.80465102084414 32.735010036158116 15.886175392680913 #
point $-1 44.226610890538176 15.323498140150166 -1.0316892029033522 #
straight-curve $-1 -57.524341444321379 -32.735010036158116 51.216585306226307 0 0 -1 I I #
point $-1 -57.524341444321379 -32.735010036158116 15.886175392680913 #
straight-curve $-1 -21.190326072809398 -32.735010036158116 6.21086361206733 1 0 0 I I #
point $-1 -57.524341444321379 -32.735010036158116 6.2108636120673282 #
point $-1 -48.870804702205618 -21.783551996091532 4.8678896075517066 #
point $-1 -35.890499589031982 -21.783551996091532 4.8678896075517066 #
straight-curve $-1 62.80465102084414 32.735010036158116 0 0 0 -1 I I #
End-of-ACIS-data 