500 0 14 0           
7 Unknown 11 ACIS 5.0 NT 24 Thu Mar 25 20:34:18 1999 
-1 9.9999999999999995e-007 1e-010 
body $-1 $14 $-1 $15 #
body $-1 $16 $-1 $17 #
body $-1 $18 $-1 $19 #
body $-1 $20 $-1 $21 #
body $-1 $22 $-1 $23 #
body $-1 $24 $-1 $25 #
body $-1 $26 $-1 $27 #
body $-1 $28 $-1 $29 #
body $-1 $30 $-1 $31 #
body $-1 $32 $-1 $33 #
body $-1 $34 $-1 $35 #
body $-1 $36 $-1 $37 #
body $-1 $38 $-1 $39 #
body $-1 $40 $-1 $41 #
lump $-1 $-1 $42 $0 #
transform $-1 1 0 0 0 1 0 0 0 1 44.887844477675714 29.257307147256938 8.5145933700443184 1 rotate no_reflect no_shear #
lump $-1 $-1 $43 $1 #
transform $-1 1 0 0 0 1 0 0 0 1 44.887844477675714 29.257307147256938 8.5145933700443184 1 rotate no_reflect no_shear #
lump $-1 $-1 $44 $2 #
transform $-1 1 0 0 0 1 0 0 0 1 44.887844477675714 29.257307147256938 8.5145933700443184 1 rotate no_reflect no_shear #
lump $-1 $-1 $45 $3 #
transform $-1 1 0 0 0 1 0 0 0 1 44.887844477675714 29.257307147256938 8.5145933700443184 1 rotate no_reflect no_shear #
lump $-1 $-1 $46 $4 #
transform $-1 1 0 0 0 1 0 0 0 1 44.887844477675714 29.257307147256938 8.5145933700443184 1 rotate no_reflect no_shear #
lump $-1 $-1 $47 $5 #
transform $-1 1 0 0 0 1 0 0 0 1 44.887844477675714 29.257307147256938 8.5145933700443184 1 rotate no_reflect no_shear #
lump $-1 $-1 $48 $6 #
transform $-1 1 0 0 0 1 0 0 0 1 44.887844477675714 29.257307147256938 8.5145933700443184 1 rotate no_reflect no_shear #
lump $-1 $-1 $49 $7 #
transform $-1 1 0 0 0 1 0 0 0 1 44.887844477675714 29.257307147256938 8.5145933700443184 1 rotate no_reflect no_shear #
lump $-1 $-1 $50 $8 #
transform $-1 1 0 0 0 1 0 0 0 1 44.887844477675714 29.257307147256938 8.5145933700443184 1 rotate no_reflect no_shear #
lump $-1 $-1 $51 $9 #
transform $-1 1 0 0 0 1 0 0 0 1 44.887844477675714 29.257307147256938 8.5145933700443184 1 rotate no_reflect no_shear #
lump $-1 $-1 $52 $10 #
transform $-1 1 0 0 0 1 0 0 0 1 44.887844477675714 29.257307147256938 8.5145933700443184 1 rotate no_reflect no_shear #
lump $-1 $-1 $53 $11 #
transform $-1 1 0 0 0 1 0 0 0 1 44.887844477675714 29.257307147256938 8.5145933700443184 1 rotate no_reflect no_shear #
lump $-1 $-1 $54 $12 #
transform $-1 1 0 0 0 1 0 0 0 1 44.887844477675714 29.257307147256938 8.5145933700443184 1 rotate no_reflect no_shear #
lump $-1 $-1 $55 $13 #
transform $-1 1 0 0 0 1 0 0 0 1 44.887844477675714 29.257307147256938 8.5145933700443184 1 rotate no_reflect no_shear #
shell $-1 $-1 $-1 $56 $-1 $14 #
shell $-1 $-1 $-1 $57 $-1 $16 #
shell $-1 $-1 $-1 $58 $-1 $18 #
shell $-1 $-1 $-1 $59 $-1 $20 #
shell $-1 $-1 $-1 $60 $-1 $22 #
shell $-1 $-1 $-1 $61 $-1 $24 #
shell $-1 $-1 $-1 $62 $-1 $26 #
shell $-1 $-1 $-1 $63 $-1 $28 #
shell $-1 $-1 $-1 $64 $-1 $30 #
shell $-1 $-1 $-1 $65 $-1 $32 #
shell $-1 $-1 $-1 $66 $-1 $34 #
shell $-1 $-1 $-1 $67 $-1 $36 #
shell $-1 $-1 $-1 $68 $-1 $38 #
shell $-1 $-1 $-1 $69 $-1 $40 #
face $-1 $70 $71 $42 $-1 $72 forward single #
face $-1 $73 $74 $43 $-1 $75 reversed single #
face $-1 $76 $77 $44 $-1 $78 reversed single #
face $-1 $79 $80 $45 $-1 $81 forward single #
face $-1 $82 $83 $46 $-1 $84 forward single #
face $-1 $85 $86 $47 $-1 $87 reversed single #
face $-1 $88 $89 $48 $-1 $90 forward single #
face $-1 $91 $92 $49 $-1 $93 forward single #
face $-1 $94 $95 $50 $-1 $96 reversed single #
face $-1 $97 $98 $51 $-1 $99 forward single #
face $-1 $100 $101 $52 $-1 $102 forward single #
face $-1 $103 $104 $53 $-1 $105 reversed single #
face $-1 $106 $107 $54 $-1 $108 forward single #
face $-1 $109 $110 $55 $-1 $111 forward single #
face $-1 $112 $113 $42 $-1 $114 reversed single #
loop $-1 $-1 $115 $56 #
plane-surface $-1 0 0 8.5145933700443184 0 0 1 1 0 0 forward_v I I I I #
face $-1 $116 $117 $43 $-1 $118 reversed single #
loop $-1 $-1 $119 $57 #
plane-surface $-1 0 -23.757727469710645 3.909535818689255 0 0 1 1 0 0 forward_v I I I I #
face $-1 $120 $121 $44 $-1 $122 reversed single #
loop $-1 $-1 $123 $58 #
plane-surface $-1 66.934565644016345 -6.7985749459578813 126.67338278357157 0 -1 0 -0.81915205242281985 0 -0.57357642473473569 forward_v I I I I #
face $-1 $124 $125 $45 $-1 $126 forward single #
loop $-1 $127 $128 $59 #
cone-surface $-1 41.322671952371827 -14.983984121819645 4.2662673669477318 -0.81915205242281985 0 -0.57357642473473569 0.57357642473473569 0 -0.81915205242281985 1 I I 0 1 1 forward I I I I #
face $-1 $129 $130 $46 $-1 $131 forward single #
loop $-1 $132 $133 $60 #
cone-surface $-1 41.322671952371827 -10.072738616302587 4.2662673669477318 -0.81915205242281985 0 -0.57357642473473569 0.57357642473473569 0 -0.81915205242281985 1 I I 0 1 1 forward I I I I #
face $-1 $134 $135 $47 $-1 $136 reversed single #
loop $-1 $-1 $137 $61 #
plane-surface $-1 66.934565644016345 16.959152523752763 126.67338278357157 0 -1 0 -0.81915205242281985 0 -0.57357642473473569 forward_v I I I I #
face $-1 $138 $139 $48 $-1 $140 forward single #
loop $-1 $141 $142 $62 #
cone-surface $-1 41.322671952371827 8.7737433478909992 4.2662673669477318 -0.81915205242281985 0 -0.57357642473473569 0.57357642473473569 0 -0.81915205242281985 1 I I 0 1 1 forward I I I I #
face $-1 $143 $144 $49 $-1 $145 forward single #
loop $-1 $146 $147 $63 #
cone-surface $-1 41.322671952371827 13.684988853408058 4.2662673669477318 -0.81915205242281985 0 -0.57357642473473569 0.57357642473473569 0 -0.81915205242281985 1 I I 0 1 1 forward I I I I #
face $-1 $148 $149 $50 $-1 $150 reversed single #
loop $-1 $-1 $151 $64 #
plane-surface $-1 -44.887844477675714 -12.528361369061116 1.6402242190146126 -0.81915205242281985 0 0.57357642473473569 0.57357642473473569 0 0.81915205242281985 forward_v I I I I #
face $-1 $152 $153 $51 $-1 $154 forward single #
loop $-1 $155 $156 $65 #
cone-surface $-1 -41.322671952371827 -14.983984121819645 4.2662673669477353 0.81915205242281985 0 -0.57357642473473569 0.57357642473473569 0 0.81915205242281985 1 I I 0 1 1 forward I I I I #
face $-1 $157 $158 $52 $-1 $159 forward single #
loop $-1 $160 $161 $66 #
cone-surface $-1 -41.322671952371827 -10.072738616302587 4.2662673669477353 0.81915205242281985 0 -0.57357642473473569 0.57357642473473569 0 0.81915205242281985 1 I I 0 1 1 forward I I I I #
face $-1 $162 $163 $53 $-1 $164 reversed single #
loop $-1 $-1 $165 $67 #
plane-surface $-1 -118.42778434312451 5.4995796775462935 53.133442918122782 0 1 0 -0.81915205242281985 0 0.57357642473473569 forward_v I I I I #
face $-1 $166 $167 $54 $-1 $168 forward single #
loop $-1 $169 $170 $68 #
cone-surface $-1 -41.322671952371827 8.7737433478909992 4.2662673669477353 0.81915205242281985 0 -0.57357642473473569 0.57357642473473569 0 0.81915205242281985 1 I I 0 1 1 forward I I I I #
face $-1 $171 $172 $55 $-1 $173 forward single #
loop $-1 $174 $175 $69 #
cone-surface $-1 -41.322671952371827 13.684988853408058 4.2662673669477353 0.81915205242281985 0 -0.57357642473473569 0.57357642473473569 0 0.81915205242281985 1 I I 0 1 1 forward I I I I #
face $-1 $176 $177 $42 $-1 $178 reversed single #
loop $-1 $-1 $179 $70 #
plane-surface $-1 0 0 -8.5145933700443184 0 0 1 1 0 0 forward_v I I I I #
coedge $-1 $180 $181 $182 $183 forward $71 $-1 #
face $-1 $184 $185 $43 $-1 $186 reversed single #
loop $-1 $-1 $187 $73 #
plane-surface $-1 0 -18.258147792164351 6.2120645943667867 0 -1 0 0 0 -1 forward_v I I I I #
coedge $-1 $188 $189 $190 $191 reversed $74 $-1 #
face $-1 $192 $193 $44 $-1 $194 forward single #
loop $-1 $-1 $195 $76 #
plane-surface $-1 -6.6053742214324558 -12.528361369061116 75.180164084463399 0.81915205242281985 0 0.57357642473473569 0.57357642473473569 0 -0.81915205242281985 forward_v I I I I #
coedge $-1 $196 $197 $198 $199 reversed $77 $-1 #
face $-1 $-1 $200 $45 $-1 $201 forward single #
loop $-1 $202 $203 $79 #
cone-surface $-1 39.754665878209892 -14.983984121819645 3.1683377269986348 -0.81915205242281985 0 -0.57357642473473569 0.28678821236736785 0 -0.40957602621140993 1 I I -0.70710678118654746 0.70710678118654746 0.5 forward I I I I #
loop $-1 $-1 $204 $59 #
coedge $-1 $128 $128 $205 $206 reversed $80 $-1 #
face $-1 $-1 $207 $46 $-1 $208 forward single #
loop $-1 $209 $210 $82 #
cone-surface $-1 39.754665878209892 -10.072738616302587 3.1683377269986348 -0.81915205242281985 0 -0.57357642473473569 0.28678821236736785 0 -0.40957602621140993 1 I I -0.70710678118654746 0.70710678118654746 0.5 forward I I I I #
loop $-1 $-1 $211 $60 #
coedge $-1 $133 $133 $212 $213 reversed $83 $-1 #
face $-1 $214 $215 $47 $-1 $216 reversed single #
loop $-1 $-1 $217 $85 #
plane-surface $-1 -6.6053742214324558 11.229366100649528 75.180164084463399 0.81915205242281985 0 0.57357642473473569 0.57357642473473569 0 -0.81915205242281985 forward_v I I I I #
coedge $-1 $218 $219 $220 $221 reversed $86 $-1 #
face $-1 $-1 $222 $48 $-1 $223 forward single #
loop $-1 $224 $225 $88 #
cone-surface $-1 39.754665878209892 8.7737433478909992 3.1683377269986348 -0.81915205242281985 0 -0.57357642473473569 0.28678821236736785 0 -0.40957602621140993 1 I I -0.70710678118654746 0.70710678118654746 0.5 forward I I I I #
loop $-1 $-1 $226 $62 #
coedge $-1 $142 $142 $227 $228 reversed $89 $-1 #
face $-1 $-1 $229 $49 $-1 $230 forward single #
loop $-1 $231 $232 $91 #
cone-surface $-1 39.754665878209892 13.684988853408058 3.1683377269986348 -0.81915205242281985 0 -0.57357642473473569 0.28678821236736785 0 -0.40957602621140993 1 I I -0.70710678118654746 0.70710678118654746 0.5 forward I I I I #
loop $-1 $-1 $233 $63 #
coedge $-1 $147 $147 $234 $235 reversed $92 $-1 #
face $-1 $236 $237 $50 $-1 $238 forward single #
loop $-1 $-1 $239 $94 #
plane-surface $-1 -118.42778434312451 -6.7985749459578813 53.133442918122782 0 -1 0 0.81915205242281985 0 -0.57357642473473569 forward_v I I I I #
coedge $-1 $240 $241 $242 $243 reversed $95 $-1 #
face $-1 $-1 $244 $51 $-1 $245 forward single #
loop $-1 $246 $247 $97 #
cone-surface $-1 -39.754665878209892 -14.983984121819645 3.1683377269986384 0.81915205242281985 0 -0.57357642473473569 0.28678821236736785 0 0.40957602621140993 1 I I -0.70710678118654746 0.70710678118654746 0.5 forward I I I I #
loop $-1 $-1 $248 $65 #
coedge $-1 $156 $156 $249 $250 reversed $98 $-1 #
face $-1 $-1 $251 $52 $-1 $252 forward single #
loop $-1 $253 $254 $100 #
cone-surface $-1 -39.754665878209892 -10.072738616302587 3.1683377269986384 0.81915205242281985 0 -0.57357642473473569 0.28678821236736785 0 0.40957602621140993 1 I I -0.70710678118654746 0.70710678118654746 0.5 forward I I I I #
loop $-1 $-1 $255 $66 #
coedge $-1 $161 $161 $256 $257 reversed $101 $-1 #
face $-1 $258 $259 $53 $-1 $260 reversed single #
loop $-1 $-1 $261 $103 #
plane-surface $-1 -44.887844477675714 11.229366100649528 1.6402242190146126 -0.81915205242281985 0 0.57357642473473569 0.57357642473473569 0 0.81915205242281985 forward_v I I I I #
coedge $-1 $262 $263 $264 $265 reversed $104 $-1 #
face $-1 $-1 $266 $54 $-1 $267 forward single #
loop $-1 $268 $269 $106 #
cone-surface $-1 -39.754665878209892 8.7737433478909992 3.1683377269986384 0.81915205242281985 0 -0.57357642473473569 0.28678821236736785 0 0.40957602621140993 1 I I -0.70710678118654746 0.70710678118654746 0.5 forward I I I I #
loop $-1 $-1 $270 $68 #
coedge $-1 $170 $170 $271 $272 reversed $107 $-1 #
face $-1 $-1 $273 $55 $-1 $274 forward single #
loop $-1 $275 $276 $109 #
cone-surface $-1 -39.754665878209892 13.684988853408058 3.1683377269986384 0.81915205242281985 0 -0.57357642473473569 0.28678821236736785 0 0.40957602621140993 1 I I -0.70710678118654746 0.70710678118654746 0.5 forward I I I I #
loop $-1 $-1 $277 $69 #
coedge $-1 $175 $175 $278 $279 reversed $110 $-1 #
face $-1 $280 $281 $42 $-1 $282 reversed single #
loop $-1 $-1 $283 $112 #
plane-surface $-1 0 -29.257307147256938 0 0 1 0 0 0 1 forward_v I I I I #
coedge $-1 $284 $285 $286 $287 forward $113 $-1 #
coedge $-1 $288 $115 $289 $290 forward $71 $-1 #
coedge $-1 $115 $288 $291 $292 forward $71 $-1 #
coedge $-1 $293 $294 $115 $183 reversed $295 $-1 #
edge $-1 $296 -29.257307147256938 $297 29.257307147256938 $182 $298 forward 7 unknown #
face $-1 $299 $300 $43 $-1 $301 reversed single #
loop $-1 $-1 $302 $116 #
plane-surface $-1 -44.887844477675714 0 0 1 0 0 0 0 -1 forward_v I I I I #
coedge $-1 $303 $304 $305 $306 reversed $117 $-1 #
coedge $-1 $307 $119 $308 $309 reversed $74 $-1 #
coedge $-1 $119 $307 $310 $311 forward $74 $-1 #
coedge $-1 $312 $313 $119 $191 forward $314 $-1 #
edge $-1 $315 -17.378443412401616 $316 -6.3792840573090288 $190 $317 forward 7 unknown #
face $-1 $318 $319 $44 $-1 $320 forward single #
loop $-1 $-1 $321 $120 #
plane-surface $-1 0 -18.258147792164351 6.2120645943667867 0 -1 0 0 0 -1 forward_v I I I I #
coedge $-1 $322 $323 $324 $325 reversed $121 $-1 #
coedge $-1 $197 $123 $326 $327 reversed $77 $-1 #
coedge $-1 $123 $196 $322 $328 reversed $77 $-1 #
coedge $-1 $324 $329 $123 $199 forward $319 $-1 #
edge $-1 $330 -11.420561655667541 $331 -6.6070767009608034 $198 $332 forward 7 unknown #
loop $-1 $-1 $205 $124 #
plane-surface $-1 -6.6053742214324558 -12.528361369061116 75.180164084463399 0.81915205242281985 0 0.57357642473473569 0.57357642473473569 0 -0.81915205242281985 forward_v I I I I #
loop $-1 $-1 $333 $79 #
coedge $-1 $203 $203 $204 $334 reversed $125 $-1 #
coedge $-1 $204 $204 $203 $334 forward $127 $-1 #
coedge $-1 $205 $205 $128 $206 forward $200 $-1 #
edge $-1 $335 0 $335 6.2831853071796004 $205 $336 forward 7 unknown #
loop $-1 $-1 $212 $129 #
plane-surface $-1 -6.6053742214324558 -12.528361369061116 75.180164084463399 0.81915205242281985 0 0.57357642473473569 0.57357642473473569 0 -0.81915205242281985 forward_v I I I I #
loop $-1 $-1 $337 $82 #
coedge $-1 $210 $210 $211 $338 reversed $130 $-1 #
coedge $-1 $211 $211 $210 $338 forward $132 $-1 #
coedge $-1 $212 $212 $133 $213 forward $207 $-1 #
edge $-1 $339 0 $339 6.2831853071796004 $212 $340 forward 7 unknown #
face $-1 $341 $342 $47 $-1 $343 reversed single #
loop $-1 $-1 $344 $134 #
plane-surface $-1 66.934565644016345 5.4995796775462935 126.67338278357157 0 1 0 0.81915205242281985 0 0.57357642473473569 forward_v I I I I #
coedge $-1 $345 $346 $347 $348 reversed $135 $-1 #
coedge $-1 $219 $137 $349 $350 reversed $86 $-1 #
coedge $-1 $137 $218 $345 $351 reversed $86 $-1 #
coedge $-1 $347 $352 $137 $221 forward $353 $-1 #
edge $-1 $354 -11.420561655667541 $355 -6.6070767009608034 $220 $356 forward 7 unknown #
loop $-1 $-1 $227 $138 #
plane-surface $-1 -6.6053742214324558 11.229366100649528 75.180164084463399 0.81915205242281985 0 0.57357642473473569 0.57357642473473569 0 -0.81915205242281985 forward_v I I I I #
loop $-1 $-1 $357 $88 #
coedge $-1 $225 $225 $226 $358 reversed $139 $-1 #
coedge $-1 $226 $226 $225 $358 forward $141 $-1 #
coedge $-1 $227 $227 $142 $228 forward $222 $-1 #
edge $-1 $359 0 $359 6.2831853071796004 $227 $360 forward 7 unknown #
loop $-1 $-1 $234 $143 #
plane-surface $-1 -6.6053742214324558 11.229366100649528 75.180164084463399 0.81915205242281985 0 0.57357642473473569 0.57357642473473569 0 -0.81915205242281985 forward_v I I I I #
loop $-1 $-1 $361 $91 #
coedge $-1 $232 $232 $233 $362 reversed $144 $-1 #
coedge $-1 $233 $233 $232 $362 forward $146 $-1 #
coedge $-1 $234 $234 $147 $235 forward $229 $-1 #
edge $-1 $363 0 $363 6.2831853071796004 $234 $364 forward 7 unknown #
face $-1 $365 $366 $50 $-1 $367 reversed single #
loop $-1 $-1 $242 $148 #
plane-surface $-1 0 0 8.5145933700443184 0 0 1 1 0 0 forward_v I I I I #
coedge $-1 $368 $369 $370 $371 reversed $149 $-1 #
coedge $-1 $372 $151 $373 $374 reversed $95 $-1 #
coedge $-1 $151 $372 $368 $375 forward $95 $-1 #
coedge $-1 $370 $376 $151 $243 forward $237 $-1 #
edge $-1 $377 -11.993967107633793 $378 -0.53439426142732316 $242 $379 forward 7 unknown #
loop $-1 $-1 $249 $152 #
plane-surface $-1 -44.887844477675714 -12.528361369061116 1.6402242190146126 -0.81915205242281985 0 0.57357642473473569 0.57357642473473569 0 0.81915205242281985 forward_v I I I I #
loop $-1 $-1 $380 $97 #
coedge $-1 $247 $247 $248 $381 reversed $153 $-1 #
coedge $-1 $248 $248 $247 $381 forward $155 $-1 #
coedge $-1 $249 $249 $156 $250 forward $244 $-1 #
edge $-1 $382 0 $382 6.2831853071796004 $249 $383 forward 7 unknown #
loop $-1 $-1 $256 $157 #
plane-surface $-1 -44.887844477675714 -12.528361369061116 1.6402242190146126 -0.81915205242281985 0 0.57357642473473569 0.57357642473473569 0 0.81915205242281985 forward_v I I I I #
loop $-1 $-1 $384 $100 #
coedge $-1 $254 $254 $255 $385 reversed $158 $-1 #
coedge $-1 $255 $255 $254 $385 forward $160 $-1 #
coedge $-1 $256 $256 $161 $257 forward $251 $-1 #
edge $-1 $386 0 $386 6.2831853071796004 $256 $387 forward 7 unknown #
face $-1 $388 $389 $53 $-1 $390 forward single #
loop $-1 $-1 $391 $162 #
plane-surface $-1 -118.42778434312451 16.959152523752763 53.133442918122782 0 -1 0 0.81915205242281985 0 -0.57357642473473569 forward_v I I I I #
coedge $-1 $392 $393 $394 $395 reversed $163 $-1 #
coedge $-1 $263 $165 $396 $397 reversed $104 $-1 #
coedge $-1 $165 $262 $392 $398 reversed $104 $-1 #
coedge $-1 $394 $399 $165 $265 forward $389 $-1 #
edge $-1 $400 14.326047693886544 $401 19.139532648593267 $264 $402 forward 7 unknown #
loop $-1 $-1 $271 $166 #
plane-surface $-1 -44.887844477675714 11.229366100649528 1.6402242190146126 -0.81915205242281985 0 0.57357642473473569 0.57357642473473569 0 0.81915205242281985 forward_v I I I I #
loop $-1 $-1 $403 $106 #
coedge $-1 $269 $269 $270 $404 reversed $167 $-1 #
coedge $-1 $270 $270 $269 $404 forward $169 $-1 #
coedge $-1 $271 $271 $170 $272 forward $266 $-1 #
edge $-1 $405 0 $405 6.2831853071796004 $271 $406 forward 7 unknown #
loop $-1 $-1 $278 $171 #
plane-surface $-1 -44.887844477675714 11.229366100649528 1.6402242190146126 -0.81915205242281985 0 0.57357642473473569 0.57357642473473569 0 0.81915205242281985 forward_v I I I I #
loop $-1 $-1 $407 $109 #
coedge $-1 $276 $276 $277 $408 reversed $172 $-1 #
coedge $-1 $277 $277 $276 $408 forward $174 $-1 #
coedge $-1 $278 $278 $175 $279 forward $273 $-1 #
edge $-1 $409 0 $409 6.2831853071796004 $278 $410 forward 7 unknown #
face $-1 $411 $412 $42 $-1 $413 reversed single #
loop $-1 $-1 $414 $176 #
plane-surface $-1 -44.887844477675714 0 0 1 0 0 0 0 -1 forward_v I I I I #
coedge $-1 $415 $291 $416 $417 forward $177 $-1 #
coedge $-1 $418 $179 $415 $419 forward $113 $-1 #
coedge $-1 $179 $418 $420 $421 forward $113 $-1 #
coedge $-1 $294 $293 $179 $287 reversed $295 $-1 #
edge $-1 $422 -29.257307147256938 $423 29.257307147256938 $286 $424 forward 7 unknown #
coedge $-1 $181 $180 $425 $426 forward $71 $-1 #
coedge $-1 $427 $428 $180 $290 reversed $412 $-1 #
edge $-1 $297 -44.887844477675714 $429 44.887844477675714 $289 $430 forward 7 unknown #
coedge $-1 $283 $431 $181 $292 reversed $177 $-1 #
edge $-1 $432 -44.887844477675714 $296 44.887844477675714 $291 $433 forward 7 unknown #
coedge $-1 $286 $182 $431 $434 forward $295 $-1 #
coedge $-1 $182 $286 $427 $435 reversed $295 $-1 #
loop $-1 $-1 $293 $411 #
vertex $-1 $183 $436 #
vertex $-1 $183 $437 #
straight-curve $-1 44.887844477675714 0 8.5145933700443184 0 1 0 I I #
face $-1 $438 $439 $43 $-1 $440 forward single #
loop $-1 $-1 $308 $184 #
plane-surface $-1 0 -29.257307147256938 0 0 1 0 0 0 1 forward_v I I I I #
coedge $-1 $441 $442 $304 $443 forward $185 $-1 #
coedge $-1 $310 $187 $312 $444 reversed $117 $-1 #
coedge $-1 $187 $310 $302 $443 reversed $117 $-1 #
coedge $-1 $445 $446 $187 $306 forward $439 $-1 #
edge $-1 $447 -44.887844477675714 $448 44.887844477675714 $305 $449 forward 7 unknown #
coedge $-1 $189 $188 $441 $450 reversed $74 $-1 #
coedge $-1 $451 $452 $188 $309 forward $300 $-1 #
edge $-1 $453 -44.887844477675714 $315 44.887844477675714 $308 $454 forward 7 unknown #
coedge $-1 $304 $303 $189 $311 reversed $117 $-1 #
edge $-1 $455 -44.887844477675714 $316 44.887844477675714 $310 $456 forward 7 unknown #
coedge $-1 $457 $190 $303 $444 forward $314 $-1 #
coedge $-1 $190 $457 $451 $458 forward $314 $-1 #
loop $-1 $-1 $312 $438 #
vertex $-1 $309 $459 #
vertex $-1 $191 $460 #
straight-curve $-1 44.887844477675714 -11.878863734855322 3.909535818689255 0 1 0 I I #
face $-1 $-1 $461 $44 $-1 $462 reversed single #
loop $-1 $-1 $324 $192 #
plane-surface $-1 0 0 8.5145933700443184 0 0 1 1 0 0 forward_v I I I I #
coedge $-1 $463 $464 $323 $465 reversed $193 $-1 #
coedge $-1 $466 $195 $197 $328 forward $121 $-1 #
coedge $-1 $195 $466 $321 $465 forward $121 $-1 #
coedge $-1 $467 $198 $195 $325 forward $319 $-1 #
edge $-1 $331 0.53439426142732316 $468 11.993967107633793 $324 $469 forward 7 unknown #
coedge $-1 $470 $471 $196 $327 forward $461 $-1 #
edge $-1 $472 -61.696467172771186 $330 -54.822098021741468 $326 $473 forward 7 unknown #
edge $-1 $331 81.383633865338183 $472 89.775688955351441 $197 $474 forward 7 unknown #
coedge $-1 $198 $467 $470 $475 forward $319 $-1 #
vertex $-1 $327 $476 #
vertex $-1 $199 $477 #
straight-curve $-1 33.467282822008173 -6.7985749459578813 8.5145933700443166 -1 0 0 I I #
coedge $-1 $333 $333 $-1 $478 reversed $202 $-1 #
edge $-1 $479 0 $479 6.2831853071796004 $203 $480 forward 7 unknown #
vertex $-1 $206 $481 #
ellipse-curve $-1 42.481102000322345 -14.983984121819645 5.0774087945294593 0.81915205242281985 0 0.57357642473473569 0.57357642473473569 0 -0.81915205242281985 1 I I #
coedge $-1 $337 $337 $-1 $482 reversed $209 $-1 #
edge $-1 $483 0 $483 6.2831853071796004 $210 $484 forward 7 unknown #
vertex $-1 $213 $485 #
ellipse-curve $-1 42.481102000322345 -10.072738616302587 5.0774087945294593 0.81915205242281985 0 0.57357642473473569 0.57357642473473569 0 -0.81915205242281985 1 I I #
face $-1 $-1 $353 $47 $-1 $486 forward single #
loop $-1 $-1 $487 $214 #
plane-surface $-1 44.887844477675714 0 0 -1 0 0 0 0 1 forward_v I I I I #
coedge $-1 $488 $489 $490 $491 reversed $215 $-1 #
coedge $-1 $492 $217 $219 $351 forward $135 $-1 #
coedge $-1 $217 $492 $488 $493 forward $135 $-1 #
coedge $-1 $490 $220 $217 $348 forward $353 $-1 #
edge $-1 $355 -11.344469473427999 $494 0.11510337277847071 $347 $495 forward 7 unknown #
coedge $-1 $496 $497 $218 $350 forward $342 $-1 #
edge $-1 $498 -61.696467172771186 $354 -54.822098021741468 $349 $499 forward 7 unknown #
edge $-1 $355 81.383633865338183 $498 89.775688955351441 $219 $500 forward 7 unknown #
coedge $-1 $220 $490 $496 $501 forward $353 $-1 #
loop $-1 $-1 $490 $341 #
vertex $-1 $350 $502 #
vertex $-1 $221 $503 #
straight-curve $-1 33.467282822008173 16.959152523752763 8.5145933700443166 -1 0 0 I I #
coedge $-1 $357 $357 $-1 $504 reversed $224 $-1 #
edge $-1 $505 0 $505 6.2831853071796004 $225 $506 forward 7 unknown #
vertex $-1 $228 $507 #
ellipse-curve $-1 42.481102000322345 8.7737433478909992 5.0774087945294593 0.81915205242281985 0 0.57357642473473569 0.57357642473473569 0 -0.81915205242281985 1 I I #
coedge $-1 $361 $361 $-1 $508 reversed $231 $-1 #
edge $-1 $509 0 $509 6.2831853071796004 $232 $510 forward 7 unknown #
vertex $-1 $235 $511 #
ellipse-curve $-1 42.481102000322345 13.684988853408058 5.0774087945294593 0.81915205242281985 0 0.57357642473473569 0.57357642473473569 0 -0.81915205242281985 1 I I #
face $-1 $-1 $512 $50 $-1 $513 forward single #
loop $-1 $-1 $514 $236 #
plane-surface $-1 -44.887844477675714 0 0 1 0 0 0 0 -1 forward_v I I I I #
coedge $-1 $369 $239 $241 $375 reversed $149 $-1 #
coedge $-1 $239 $368 $514 $515 reversed $149 $-1 #
coedge $-1 $516 $242 $239 $371 forward $237 $-1 #
edge $-1 $378 -19.139532648593267 $517 -14.326047693886544 $370 $518 forward 7 unknown #
coedge $-1 $241 $240 $519 $520 reversed $95 $-1 #
coedge $-1 $521 $522 $240 $374 forward $512 $-1 #
edge $-1 $523 -14.745820888186667 $377 -6.3537657981734412 $373 $524 forward 7 unknown #
edge $-1 $525 0 $378 8.3920550900132262 $368 $526 forward 7 unknown #
coedge $-1 $242 $516 $521 $527 forward $237 $-1 #
vertex $-1 $374 $528 #
vertex $-1 $243 $529 #
straight-curve $-1 -40.07435952296899 -6.2641806845305581 8.5145933700443184 0 1 0 I I #
coedge $-1 $380 $380 $-1 $530 reversed $246 $-1 #
edge $-1 $531 0 $531 6.2831853071796004 $247 $532 forward 7 unknown #
vertex $-1 $250 $533 #
ellipse-curve $-1 -42.481102000322352 -14.983984121819645 5.0774087945294646 -0.81915205242281985 0 0.57357642473473569 0.57357642473473569 0 0.81915205242281985 1 I I #
coedge $-1 $384 $384 $-1 $534 reversed $253 $-1 #
edge $-1 $535 0 $535 6.2831853071796004 $254 $536 forward 7 unknown #
vertex $-1 $257 $537 #
ellipse-curve $-1 -42.481102000322352 -10.072738616302587 5.0774087945294646 -0.81915205242281985 0 0.57357642473473569 0.57357642473473569 0 0.81915205242281985 1 I I #
face $-1 $-1 $538 $53 $-1 $539 reversed single #
loop $-1 $-1 $264 $258 #
plane-surface $-1 0 0 8.5145933700443184 0 0 1 1 0 0 forward_v I I I I #
coedge $-1 $540 $541 $542 $543 reversed $259 $-1 #
coedge $-1 $544 $261 $263 $398 forward $163 $-1 #
coedge $-1 $261 $544 $540 $545 forward $163 $-1 #
coedge $-1 $542 $264 $261 $395 forward $389 $-1 #
edge $-1 $401 -0.11510337277847071 $546 11.344469473427999 $394 $547 forward 7 unknown #
coedge $-1 $548 $549 $262 $397 forward $538 $-1 #
edge $-1 $550 -24.926497240046778 $400 -18.052128089017074 $396 $551 forward 7 unknown #
edge $-1 $401 -8.3920550900132262 $550 0 $263 $552 forward 7 unknown #
coedge $-1 $264 $542 $548 $553 forward $389 $-1 #
vertex $-1 $265 $554 #
vertex $-1 $265 $555 #
straight-curve $-1 -59.213892171562257 5.4995796775462935 8.5145933700443202 1 0 0 I I #
coedge $-1 $403 $403 $-1 $556 reversed $268 $-1 #
edge $-1 $557 0 $557 6.2831853071796004 $269 $558 forward 7 unknown #
vertex $-1 $272 $559 #
ellipse-curve $-1 -42.481102000322352 8.7737433478909992 5.0774087945294646 -0.81915205242281985 0 0.57357642473473569 0.57357642473473569 0 0.81915205242281985 1 I I #
coedge $-1 $407 $407 $-1 $560 reversed $275 $-1 #
edge $-1 $561 0 $561 6.2831853071796004 $276 $562 forward 7 unknown #
vertex $-1 $279 $563 #
ellipse-curve $-1 -42.481102000322352 13.684988853408058 5.0774087945294646 -0.81915205242281985 0 0.57357642473473569 0.57357642473473569 0 0.81915205242281985 1 I I #
face $-1 $-1 $295 $42 $-1 $564 reversed single #
loop $-1 $-1 $427 $280 #
plane-surface $-1 0 29.257307147256938 0 0 -1 0 0 0 -1 forward_v I I I I #
coedge $-1 $565 $425 $428 $566 forward $281 $-1 #
coedge $-1 $431 $283 $284 $419 reversed $177 $-1 #
coedge $-1 $425 $565 $283 $417 reversed $281 $-1 #
edge $-1 $432 -8.5145933700443184 $567 8.5145933700443184 $416 $568 forward 7 unknown #
coedge $-1 $285 $284 $565 $569 forward $113 $-1 #
edge $-1 $423 -44.887844477675714 $567 44.887844477675714 $415 $570 forward 7 unknown #
coedge $-1 $428 $427 $285 $421 reversed $412 $-1 #
edge $-1 $571 -44.887844477675714 $422 44.887844477675714 $420 $572 forward 7 unknown #
vertex $-1 $287 $573 #
vertex $-1 $434 $574 #
straight-curve $-1 44.887844477675714 0 -8.5145933700443184 0 -1 0 I I #
coedge $-1 $414 $416 $288 $426 reversed $281 $-1 #
edge $-1 $429 -29.257307147256938 $432 29.257307147256938 $425 $575 forward 7 unknown #
coedge $-1 $420 $289 $294 $435 forward $412 $-1 #
coedge $-1 $289 $420 $414 $566 reversed $412 $-1 #
vertex $-1 $290 $576 #
straight-curve $-1 0 29.257307147256938 8.5145933700443184 -1 0 0 I I #
coedge $-1 $291 $415 $293 $434 reversed $177 $-1 #
vertex $-1 $426 $577 #
straight-curve $-1 0 -29.257307147256938 8.5145933700443184 1 0 0 I I #
edge $-1 $296 -8.5145933700443184 $423 8.5145933700443184 $293 $578 forward 7 unknown #
edge $-1 $297 -8.5145933700443184 $422 8.5145933700443184 $294 $579 forward 7 unknown #
point $-1 44.887844477675714 -29.257307147256938 8.5145933700443184 #
point $-1 44.887844477675714 29.257307147256938 8.5145933700443184 #
face $-1 $-1 $314 $43 $-1 $580 reversed single #
loop $-1 $-1 $305 $299 #
plane-surface $-1 0 0 8.5145933700443184 0 0 1 1 0 0 forward_v I I I I #
coedge $-1 $581 $302 $307 $450 forward $185 $-1 #
coedge $-1 $302 $581 $445 $582 reversed $185 $-1 #
edge $-1 $448 -5.408561072860925 $455 -0.80350352150586168 $302 $583 forward 7 unknown #
edge $-1 $316 0.80350352150586168 $447 5.408561072860925 $312 $584 forward 7 unknown #
coedge $-1 $585 $305 $442 $582 forward $439 $-1 #
coedge $-1 $305 $585 $457 $586 forward $439 $-1 #
vertex $-1 $444 $587 #
vertex $-1 $582 $588 #
straight-curve $-1 0 -18.258147792164351 8.5145933700443184 -1 0 0 I I #
edge $-1 $455 6.3792840573090288 $453 17.378443412401616 $441 $589 forward 7 unknown #
coedge $-1 $590 $308 $313 $458 reversed $300 $-1 #
coedge $-1 $308 $590 $581 $591 forward $300 $-1 #
vertex $-1 $309 $592 #
straight-curve $-1 0 -29.257307147256938 3.909535818689255 1 0 0 I I #
vertex $-1 $450 $593 #
straight-curve $-1 0 -18.258147792164351 3.909535818689255 1 0 0 I I #
coedge $-1 $313 $312 $446 $586 reversed $314 $-1 #
edge $-1 $594 -8.5145933700443184 $315 -3.909535818689255 $313 $595 forward 7 unknown #
point $-1 44.887844477675714 -29.257307147256938 3.909535818689255 #
point $-1 44.887844477675714 -18.258147792164351 3.909535818689255 #
loop $-1 $-1 $326 $318 #
plane-surface $-1 44.887844477675714 0 0 -1 0 0 0 0 1 forward_v I I I I #
coedge $-1 $464 $321 $596 $597 reversed $193 $-1 #
coedge $-1 $321 $463 $467 $598 reversed $193 $-1 #
edge $-1 $599 -89.775688955351441 $468 -81.383633865338183 $321 $600 forward 7 unknown #
coedge $-1 $323 $322 $471 $601 reversed $121 $-1 #
coedge $-1 $329 $324 $464 $598 forward $319 $-1 #
vertex $-1 $598 $602 #
straight-curve $-1 40.074359522968983 -6.2641806845305581 8.5145933700443166 0 -1 0 I I #
coedge $-1 $596 $326 $329 $475 reversed $461 $-1 #
coedge $-1 $326 $596 $466 $601 forward $461 $-1 #
vertex $-1 $327 $603 #
straight-curve $-1 44.887844477675714 -6.7985749459578813 63.336691391785784 0 0 1 I I #
straight-curve $-1 -6.6053742214324558 -6.7985749459578813 75.180164084463399 0.57357642473473569 0 -0.81915205242281985 I I #
edge $-1 $604 -18.258147792164351 $330 -6.7985749459578813 $470 $605 forward 7 unknown #
point $-1 44.887844477675714 -6.7985749459578813 8.5145933700443184 #
point $-1 40.074359522968976 -6.7985749459578813 8.5145933700443237 #
edge $-1 $606 1 $606 0 $333 $-1 forward 7 unknown #
vertex $-1 $334 $607 #
ellipse-curve $-1 40.164241904421303 -14.983984121819645 3.4551259393660025 0.81915205242281985 0 0.57357642473473569 0.57357642473473569 0 -0.81915205242281985 1 I I #
point $-1 43.054678425057084 -14.983984121819645 4.2582567421066422 #
edge $-1 $608 1 $608 0 $337 $-1 forward 7 unknown #
vertex $-1 $338 $609 #
ellipse-curve $-1 40.164241904421303 -10.072738616302587 3.4551259393660025 0.81915205242281985 0 0.57357642473473569 0.57357642473473569 0 -0.81915205242281985 1 I I #
point $-1 43.054678425057084 -10.072738616302587 4.2582567421066422 #
plane-surface $-1 0 0 8.5145933700443184 0 0 1 1 0 0 forward_v I I I I #
coedge $-1 $497 $496 $489 $610 forward $342 $-1 #
coedge $-1 $489 $344 $346 $493 reversed $215 $-1 #
coedge $-1 $344 $488 $487 $610 reversed $215 $-1 #
coedge $-1 $352 $347 $344 $491 forward $353 $-1 #
edge $-1 $494 6.6070767009608034 $611 11.420561655667541 $490 $612 forward 7 unknown #
coedge $-1 $346 $345 $497 $613 reversed $135 $-1 #
edge $-1 $614 -89.775688955351441 $494 -81.383633865338183 $488 $615 forward 7 unknown #
vertex $-1 $348 $616 #
straight-curve $-1 40.074359522968983 5.6146830503247642 8.5145933700443166 0 -1 0 I I #
coedge $-1 $487 $349 $352 $501 reversed $342 $-1 #
coedge $-1 $349 $487 $492 $613 forward $342 $-1 #
vertex $-1 $350 $617 #
straight-curve $-1 44.887844477675714 16.959152523752763 63.336691391785784 0 0 1 I I #
straight-curve $-1 -6.6053742214324558 16.959152523752763 75.180164084463399 0.57357642473473569 0 -0.81915205242281985 I I #
edge $-1 $611 5.4995796775462935 $354 16.959152523752763 $496 $618 forward 7 unknown #
point $-1 44.887844477675714 16.959152523752763 8.5145933700443184 #
point $-1 40.074359522968976 16.959152523752763 8.5145933700443237 #
edge $-1 $619 1 $619 0 $357 $-1 forward 7 unknown #
vertex $-1 $358 $620 #
ellipse-curve $-1 40.164241904421303 8.7737433478909992 3.4551259393660025 0.81915205242281985 0 0.57357642473473569 0.57357642473473569 0 -0.81915205242281985 1 I I #
point $-1 43.054678425057084 8.7737433478909992 4.2582567421066422 #
edge $-1 $621 1 $621 0 $361 $-1 forward 7 unknown #
vertex $-1 $362 $622 #
ellipse-curve $-1 40.164241904421303 13.684988853408058 3.4551259393660025 0.81915205242281985 0 0.57357642473473569 0.57357642473473569 0 -0.81915205242281985 1 I I #
point $-1 43.054678425057084 13.684988853408058 4.2582567421066422 #
loop $-1 $-1 $373 $365 #
plane-surface $-1 0 -18.258147792164351 6.2120645943667867 0 -1 0 0 0 -1 forward_v I I I I #
coedge $-1 $519 $623 $369 $515 forward $366 $-1 #
edge $-1 $517 18.052128089017074 $525 24.926497240046778 $514 $624 forward 7 unknown #
coedge $-1 $376 $370 $623 $625 forward $237 $-1 #
vertex $-1 $625 $626 #
straight-curve $-1 -59.213892171562257 -6.7985749459578813 8.5145933700443202 -1 0 0 I I #
coedge $-1 $627 $514 $372 $520 forward $366 $-1 #
edge $-1 $525 0.53439426142732316 $523 11.993967107633793 $519 $628 forward 7 unknown #
coedge $-1 $522 $373 $376 $527 reversed $512 $-1 #
coedge $-1 $373 $521 $627 $629 reversed $512 $-1 #
vertex $-1 $629 $630 #
straight-curve $-1 -36.429989252850824 -18.258147792164351 13.71929366423201 0.57357642473473569 0 0.81915205242281985 I I #
vertex $-1 $520 $631 #
straight-curve $-1 -44.887844477675714 -6.7985749459578813 1.6402242190146126 0.57357642473473569 0 0.81915205242281985 I I #
edge $-1 $632 -44.887844477675714 $377 -40.07435952296899 $376 $633 forward 7 unknown #
point $-1 -40.07435952296899 -18.258147792164351 8.5145933700443202 #
point $-1 -40.07435952296899 -6.7985749459578813 8.5145933700443202 #
edge $-1 $634 1 $634 0 $380 $-1 forward 7 unknown #
vertex $-1 $381 $635 #
ellipse-curve $-1 -40.164241904421303 -14.983984121819645 3.4551259393660061 -0.81915205242281985 0 0.57357642473473569 0.57357642473473569 0 0.81915205242281985 1 I I #
point $-1 -41.907525575587613 -14.983984121819645 5.8965608469522852 #
edge $-1 $636 1 $636 0 $384 $-1 forward 7 unknown #
vertex $-1 $385 $637 #
ellipse-curve $-1 -40.164241904421303 -10.072738616302587 3.4551259393660061 -0.81915205242281985 0 0.57357642473473569 0.57357642473473569 0 0.81915205242281985 1 I I #
point $-1 -41.907525575587613 -10.072738616302587 5.8965608469522852 #
loop $-1 $-1 $396 $388 #
plane-surface $-1 -44.887844477675714 0 0 1 0 0 0 0 -1 forward_v I I I I #
coedge $-1 $541 $391 $393 $545 reversed $259 $-1 #
coedge $-1 $391 $540 $638 $639 reversed $259 $-1 #
coedge $-1 $399 $394 $391 $543 forward $389 $-1 #
edge $-1 $546 -19.139532648593267 $640 -14.326047693886544 $542 $641 forward 7 unknown #
coedge $-1 $393 $392 $549 $642 reversed $163 $-1 #
edge $-1 $643 0 $546 8.3920550900132262 $540 $644 forward 7 unknown #
vertex $-1 $395 $645 #
straight-curve $-1 -40.07435952296899 5.6146830503247642 8.5145933700443184 0 1 0 I I #
coedge $-1 $638 $396 $399 $553 reversed $538 $-1 #
coedge $-1 $396 $638 $544 $642 forward $538 $-1 #
vertex $-1 $397 $646 #
straight-curve $-1 -44.887844477675714 5.4995796775462935 26.566721459061391 0 0 1 I I #
straight-curve $-1 -44.887844477675714 5.4995796775462935 1.6402242190146126 -0.57357642473473569 0 -0.81915205242281985 I I #
edge $-1 $640 -16.959152523752763 $400 -5.4995796775462935 $548 $647 forward 7 unknown #
point $-1 -44.887844477675714 5.4995796775462935 8.5145933700443184 #
point $-1 -40.07435952296899 5.4995796775462935 8.5145933700443202 #
edge $-1 $648 1 $648 0 $403 $-1 forward 7 unknown #
vertex $-1 $404 $649 #
ellipse-curve $-1 -40.164241904421303 8.7737433478909992 3.4551259393660061 -0.81915205242281985 0 0.57357642473473569 0.57357642473473569 0 0.81915205242281985 1 I I #
point $-1 -41.907525575587613 8.7737433478909992 5.8965608469522852 #
edge $-1 $650 1 $650 0 $407 $-1 forward 7 unknown #
vertex $-1 $408 $651 #
ellipse-curve $-1 -40.164241904421303 13.684988853408058 3.4551259393660061 -0.81915205242281985 0 0.57357642473473569 0.57357642473473569 0 0.81915205242281985 1 I I #
point $-1 -41.907525575587613 13.684988853408058 5.8965608469522852 #
plane-surface $-1 44.887844477675714 0 0 -1 0 0 0 0 1 forward_v I I I I #
coedge $-1 $416 $414 $418 $569 reversed $281 $-1 #
edge $-1 $429 -8.5145933700443184 $571 8.5145933700443184 $428 $652 forward 7 unknown #
vertex $-1 $569 $653 #
straight-curve $-1 -44.887844477675714 -29.257307147256938 0 0 0 -1 I I #
edge $-1 $567 -29.257307147256938 $571 29.257307147256938 $565 $654 forward 7 unknown #
straight-curve $-1 0 -29.257307147256938 -8.5145933700443184 -1 0 0 I I #
vertex $-1 $421 $655 #
straight-curve $-1 0 29.257307147256938 -8.5145933700443184 1 0 0 I I #
point $-1 44.887844477675714 29.257307147256938 -8.5145933700443184 #
point $-1 44.887844477675714 -29.257307147256938 -8.5145933700443184 #
straight-curve $-1 -44.887844477675714 0 8.5145933700443184 0 -1 0 I I #
point $-1 -44.887844477675714 29.257307147256938 8.5145933700443184 #
point $-1 -44.887844477675714 -29.257307147256938 8.5145933700443184 #
straight-curve $-1 44.887844477675714 -29.257307147256938 0 0 0 -1 I I #
straight-curve $-1 44.887844477675714 29.257307147256938 0 0 0 -1 I I #
plane-surface $-1 44.887844477675714 0 0 -1 0 0 0 0 1 forward_v I I I I #
coedge $-1 $442 $441 $452 $591 reversed $185 $-1 #
edge $-1 $448 18.258147792164351 $656 29.257307147256938 $442 $657 forward 7 unknown #
straight-curve $-1 -44.887844477675714 -18.258147792164351 3.1060322971833934 0 0 -1 I I #
straight-curve $-1 44.887844477675714 -18.258147792164351 3.1060322971833934 0 0 1 I I #
coedge $-1 $446 $445 $590 $658 forward $439 $-1 #
edge $-1 $594 -29.257307147256938 $447 -18.258147792164351 $457 $659 forward 7 unknown #
point $-1 44.887844477675714 -18.258147792164351 8.5145933700443184 #
point $-1 -44.887844477675714 -18.258147792164351 8.5145933700443184 #
straight-curve $-1 -44.887844477675714 -11.878863734855322 3.909535818689255 0 -1 0 I I #
coedge $-1 $452 $451 $585 $658 reversed $300 $-1 #
edge $-1 $656 -8.5145933700443184 $453 -3.909535818689255 $581 $660 forward 7 unknown #
point $-1 -44.887844477675714 -29.257307147256938 3.909535818689255 #
point $-1 -44.887844477675714 -18.258147792164351 3.909535818689255 #
vertex $-1 $586 $661 #
straight-curve $-1 44.887844477675714 -29.257307147256938 0 0 0 -1 I I #
coedge $-1 $471 $470 $463 $597 forward $461 $-1 #
edge $-1 $604 54.822098021741468 $599 61.696467172771186 $596 $662 forward 7 unknown #
edge $-1 $468 40.074359522968969 $604 44.887844477675714 $467 $663 forward 7 unknown #
vertex $-1 $597 $664 #
straight-curve $-1 -6.6053742214324558 -18.258147792164351 75.180164084463399 -0.57357642473473569 0 0.81915205242281985 I I #
edge $-1 $599 -11.993967107633793 $472 -0.53439426142732316 $471 $665 forward 7 unknown #
point $-1 40.074359522968969 -18.258147792164351 8.5145933700443184 #
point $-1 44.887844477675714 -6.7985749459578813 1.6402242190145984 #
vertex $-1 $475 $666 #
straight-curve $-1 44.887844477675714 0 8.5145933700443184 0 1 0 I I #
vertex $-1 $478 $667 #
point $-1 40.737818329156035 -14.983984121819645 2.6359738869431828 #
vertex $-1 $482 $668 #
point $-1 40.737818329156035 -10.072738616302587 2.6359738869431828 #
edge $-1 $611 54.822098021741468 $614 61.696467172771186 $487 $669 forward 7 unknown #
vertex $-1 $501 $670 #
straight-curve $-1 33.467282822008173 5.4995796775462935 8.5145933700443166 1 0 0 I I #
edge $-1 $614 -0.11510337277847071 $498 11.344469473427999 $497 $671 forward 7 unknown #
vertex $-1 $613 $672 #
straight-curve $-1 -6.6053742214324558 5.4995796775462935 75.180164084463399 -0.57357642473473569 0 0.81915205242281985 I I #
point $-1 40.074359522968976 5.4995796775462935 8.5145933700443237 #
point $-1 44.887844477675714 16.959152523752763 1.6402242190145984 #
straight-curve $-1 44.887844477675714 0 8.5145933700443184 0 1 0 I I #
vertex $-1 $504 $673 #
point $-1 40.737818329156035 8.7737433478909992 2.6359738869431828 #
vertex $-1 $508 $674 #
point $-1 40.737818329156035 13.684988853408058 2.6359738869431828 #
coedge $-1 $514 $627 $516 $625 reversed $366 $-1 #
straight-curve $-1 -44.887844477675714 -6.7985749459578813 26.566721459061391 0 0 -1 I I #
edge $-1 $517 6.7985749459578813 $632 18.258147792164351 $623 $675 forward 7 unknown #
point $-1 -44.887844477675714 -6.7985749459578813 8.5145933700443184 #
coedge $-1 $623 $519 $522 $629 forward $366 $-1 #
straight-curve $-1 -44.887844477675714 -6.2641806845305581 1.6402242190146126 0 -1 0 I I #
edge $-1 $523 -24.926497240046778 $632 -18.052128089017074 $627 $676 forward 7 unknown #
point $-1 -44.887844477675714 -18.258147792164351 1.6402242190146126 #
point $-1 -44.887844477675714 -6.7985749459578813 1.6402242190146126 #
vertex $-1 $629 $677 #
straight-curve $-1 0 -18.258147792164351 8.5145933700443184 1 0 0 I I #
vertex $-1 $530 $678 #
point $-1 -39.590665479686564 -14.983984121819645 4.2742779917888258 #
vertex $-1 $534 $679 #
point $-1 -39.590665479686564 -10.072738616302587 4.2742779917888258 #
coedge $-1 $549 $548 $541 $639 forward $538 $-1 #
edge $-1 $640 18.052128089017074 $643 24.926497240046778 $638 $680 forward 7 unknown #
vertex $-1 $553 $681 #
straight-curve $-1 -59.213892171562257 16.959152523752763 8.5145933700443202 -1 0 0 I I #
edge $-1 $643 -11.344469473427999 $550 0.11510337277847071 $549 $682 forward 7 unknown #
vertex $-1 $642 $683 #
straight-curve $-1 -44.887844477675714 16.959152523752763 1.6402242190146126 0.57357642473473569 0 0.81915205242281985 I I #
point $-1 -40.07435952296899 16.959152523752763 8.5145933700443202 #
point $-1 -44.887844477675714 5.4995796775462935 1.6402242190146126 #
straight-curve $-1 -44.887844477675714 0 8.5145933700443184 0 -1 0 I I #
vertex $-1 $556 $684 #
point $-1 -39.590665479686564 8.7737433478909992 4.2742779917888258 #
vertex $-1 $560 $685 #
point $-1 -39.590665479686564 13.684988853408058 4.2742779917888258 #
straight-curve $-1 -44.887844477675714 29.257307147256938 0 0 0 -1 I I #
point $-1 -44.887844477675714 -29.257307147256938 -8.5145933700443184 #
straight-curve $-1 -44.887844477675714 0 -8.5145933700443184 0 1 0 I I #
point $-1 -44.887844477675714 29.257307147256938 -8.5145933700443184 #
vertex $-1 $582 $686 #
straight-curve $-1 -44.887844477675714 0 8.5145933700443184 0 -1 0 I I #
edge $-1 $656 -44.887844477675714 $594 44.887844477675714 $590 $687 forward 7 unknown #
straight-curve $-1 44.887844477675714 0 8.5145933700443184 0 1 0 I I #
straight-curve $-1 -44.887844477675714 -29.257307147256938 0 0 0 -1 I I #
point $-1 44.887844477675714 -29.257307147256938 8.5145933700443184 #
straight-curve $-1 44.887844477675714 -18.258147792164351 63.336691391785784 0 0 -1 I I #
straight-curve $-1 0 -18.258147792164351 8.5145933700443184 1 0 0 I I #
point $-1 44.887844477675714 -18.258147792164351 1.6402242190145984 #
straight-curve $-1 44.887844477675714 -6.2641806845305581 1.6402242190145984 0 1 0 I I #
point $-1 44.887844477675714 -18.258147792164351 8.5145933700443184 #
point $-1 39.34508985199848 -14.983984121819645 2.8815495146312671 #
point $-1 39.34508985199848 -10.072738616302587 2.8815495146312671 #
straight-curve $-1 44.887844477675714 5.4995796775462935 63.336691391785784 0 0 -1 I I #
point $-1 44.887844477675714 5.4995796775462935 8.5145933700443184 #
straight-curve $-1 44.887844477675714 5.6146830503247642 1.6402242190145984 0 1 0 I I #
point $-1 44.887844477675714 5.4995796775462935 1.6402242190145984 #
point $-1 39.34508985199848 8.7737433478909992 2.8815495146312671 #
point $-1 39.34508985199848 13.684988853408058 2.8815495146312671 #
straight-curve $-1 -44.887844477675714 0 8.5145933700443184 0 -1 0 I I #
straight-curve $-1 -44.887844477675714 -18.258147792164351 26.566721459061391 0 0 1 I I #
point $-1 -44.887844477675714 -18.258147792164351 8.5145933700443184 #
point $-1 -39.34508985199848 -14.983984121819645 2.8815495146312706 #
point $-1 -39.34508985199848 -10.072738616302587 2.8815495146312706 #
straight-curve $-1 -44.887844477675714 16.959152523752763 26.566721459061391 0 0 -1 I I #
point $-1 -44.887844477675714 16.959152523752763 8.5145933700443184 #
straight-curve $-1 -44.887844477675714 5.6146830503247642 1.6402242190146126 0 -1 0 I I #
point $-1 -44.887844477675714 16.959152523752763 1.6402242190146126 #
point $-1 -39.34508985199848 8.7737433478909992 2.8815495146312706 #
point $-1 -39.34508985199848 13.684988853408058 2.8815495146312706 #
point $-1 -44.887844477675714 -29.257307147256938 8.5145933700443184 #
straight-curve $-1 0 -29.257307147256938 8.5145933700443184 1 0 0 I I #
End-of-ACIS-data 