500 0 8 0           
7 Unknown 11 ACIS 5.0 NT 24 Thu Mar 25 23:29:53 1999 
-1 9.9999999999999995e-007 1e-010 
body $-1 $8 $-1 $9 #
body $-1 $10 $-1 $11 #
body $-1 $12 $-1 $13 #
body $-1 $14 $-1 $15 #
body $-1 $16 $-1 $17 #
body $-1 $18 $-1 $19 #
body $-1 $20 $-1 $21 #
body $-1 $22 $-1 $23 #
lump $-1 $-1 $24 $0 #
transform $-1 1 0 0 0 1 0 0 0 1 43.426618243964967 21.774406173926412 8.5981891550589449 1 rotate no_reflect no_shear #
lump $-1 $-1 $25 $1 #
transform $-1 1 0 0 0 1 0 0 0 1 43.426618243964967 21.774406173926412 8.5981891550589449 1 rotate no_reflect no_shear #
lump $-1 $-1 $26 $2 #
transform $-1 1 0 0 0 1 0 0 0 1 43.426618243964967 21.774406173926412 8.5981891550589449 1 rotate no_reflect no_shear #
lump $-1 $-1 $27 $3 #
transform $-1 1 0 0 0 1 0 0 0 1 43.426618243964967 21.774406173926412 8.5981891550589449 1 rotate no_reflect no_shear #
lump $-1 $-1 $28 $4 #
transform $-1 1 0 0 0 1 0 0 0 1 43.426618243964967 21.774406173926412 8.5981891550589449 1 rotate no_reflect no_shear #
lump $-1 $-1 $29 $5 #
transform $-1 1 0 0 0 1 0 0 0 1 43.426618243964967 21.774406173926412 8.5981891550589449 1 rotate no_reflect no_shear #
lump $-1 $-1 $30 $6 #
transform $-1 1 0 0 0 1 0 0 0 1 43.426618243964967 21.774406173926412 8.5981891550589449 1 rotate no_reflect no_shear #
lump $-1 $-1 $31 $7 #
transform $-1 1 0 0 0 1 0 0 0 1 43.426618243964967 21.774406173926412 8.5981891550589449 1 rotate no_reflect no_shear #
shell $-1 $-1 $-1 $32 $-1 $8 #
shell $-1 $-1 $-1 $33 $-1 $10 #
shell $-1 $-1 $-1 $34 $-1 $12 #
shell $-1 $-1 $-1 $35 $-1 $14 #
shell $-1 $-1 $-1 $36 $-1 $16 #
shell $-1 $-1 $-1 $37 $-1 $18 #
shell $-1 $-1 $-1 $38 $-1 $20 #
shell $-1 $-1 $-1 $39 $-1 $22 #
face $-1 $40 $41 $24 $-1 $42 forward single #
face $-1 $43 $44 $25 $-1 $45 forward single #
face $-1 $46 $47 $26 $-1 $48 reversed single #
face $-1 $49 $50 $27 $-1 $51 forward single #
face $-1 $52 $53 $28 $-1 $54 forward single #
face $-1 $55 $56 $29 $-1 $57 reversed single #
face $-1 $58 $59 $30 $-1 $60 forward single #
face $-1 $61 $62 $31 $-1 $63 forward single #
face $-1 $64 $65 $24 $-1 $66 reversed single #
loop $-1 $-1 $67 $32 #
plane-surface $-1 0 0 8.5981891550589449 0 0 1 1 0 0 forward_v I I I I #
face $-1 $68 $69 $25 $-1 $70 reversed single #
loop $-1 $-1 $71 $33 #
plane-surface $-1 0 -16.702290648624142 6.3127832410029789 0 0 1 1 0 0 forward_v I I I I #
face $-1 $72 $73 $26 $-1 $74 reversed single #
loop $-1 $-1 $75 $34 #
plane-surface $-1 -117.08234078085707 14.966253143355598 50.404729672391205 0 1 0 -0.84804810408105047 0 0.52991925155115449 forward_v I I I I #
face $-1 $76 $77 $27 $-1 $78 forward single #
loop $-1 $79 $80 $35 #
cone-surface $-1 -41.483059686983879 16.911439723518686 6.098001082521975 0.84804810408105047 0 -0.52991925155115449 0.26495962577557725 0 0.42402405204052523 1 I I 0 1 0.5 forward I I I I #
face $-1 $81 $82 $28 $-1 $83 forward single #
loop $-1 $84 $85 $36 #
cone-surface $-1 -41.483059686983879 19.829219593763323 6.098001082521975 0.84804810408105047 0 -0.52991925155115449 0.26495962577557725 0 0.42402405204052523 1 I I 0 1 0.5 forward I I I I #
face $-1 $86 $87 $29 $-1 $88 reversed single #
loop $-1 $-1 $89 $37 #
plane-surface $-1 15.796100558760365 2.6507919889256222 121.60570320050311 0 -1 0 -0.52991927123019833 0 -0.84804809178421925 forward_v I I I I #
face $-1 $90 $91 $30 $-1 $92 forward single #
loop $-1 $93 $94 $38 #
cone-surface $-1 37.821813515783937 -3.2657801968580316 4.8374595056187104 -0.52991927123019833 0 -0.84804809178421925 0.21201202294605481 0 -0.13247981780754958 1 I I 0 1 0.25 forward I I I I #
face $-1 $95 $96 $31 $-1 $97 forward single #
loop $-1 $98 $99 $39 #
cone-surface $-1 37.821813515783937 0.28416311461215926 4.8374595056187104 -0.52991927123019833 0 -0.84804809178421925 0.21201202294605481 0 -0.13247981780754958 1 I I 0 1 0.25 forward I I I I #
face $-1 $100 $101 $24 $-1 $102 reversed single #
loop $-1 $-1 $103 $40 #
plane-surface $-1 0 0 -8.5981891550589449 0 0 1 1 0 0 forward_v I I I I #
coedge $-1 $104 $105 $106 $107 forward $41 $-1 #
face $-1 $108 $109 $25 $-1 $110 reversed single #
loop $-1 $-1 $111 $43 #
plane-surface $-1 0 -16.702290648624142 3.3127832410029789 0 0 1 1 0 0 forward_v I I I I #
coedge $-1 $112 $113 $114 $115 reversed $44 $-1 #
face $-1 $116 $117 $26 $-1 $118 forward single #
loop $-1 $-1 $119 $46 #
plane-surface $-1 -43.426618243964967 18.370329658641008 4.3795275979119523 -0.84804810408105047 0 0.52991925155115449 0.52991925155115449 0 0.84804810408105047 forward_v I I I I #
coedge $-1 $120 $121 $122 $123 reversed $47 $-1 #
face $-1 $-1 $124 $27 $-1 $125 forward single #
loop $-1 $126 $127 $49 #
cone-surface $-1 -40.64554521669173 16.911439723518686 5.5746639756707115 0.84804810408105047 0 -0.52991925155115449 0.13247981288778862 0 0.21201202602026262 1 I I -0.70710678118654746 0.70710678118654746 0.25 forward I I I I #
loop $-1 $-1 $128 $35 #
coedge $-1 $80 $80 $129 $130 reversed $50 $-1 #
face $-1 $-1 $131 $28 $-1 $132 forward single #
loop $-1 $133 $134 $52 #
cone-surface $-1 -40.64554521669173 19.829219593763323 5.5746639756707115 0.84804810408105047 0 -0.52991925155115449 0.13247981288778862 0 0.21201202602026262 1 I I -0.70710678118654746 0.70710678118654746 0.25 forward I I I I #
loop $-1 $-1 $135 $36 #
coedge $-1 $85 $85 $136 $137 reversed $53 $-1 #
face $-1 $138 $139 $29 $-1 $140 reversed single #
loop $-1 $-1 $141 $55 #
plane-surface $-1 -30.229103224907533 -1.4908085411229344 47.949981731630615 0.52991927123019833 0 0.84804809178421925 0.84804809178421925 0 -0.52991927123019833 forward_v I I I I #
coedge $-1 $142 $143 $144 $145 reversed $56 $-1 #
face $-1 $-1 $146 $30 $-1 $147 forward single #
loop $-1 $148 $149 $58 #
cone-surface $-1 37.490613971265063 -3.2657801968580316 4.3074294482535738 -0.52991927123019833 0 -0.84804809178421925 0.10600601147302741 0 -0.066239908903774791 1 I I -0.70710678118654746 0.70710678118654746 0.125 forward I I I I #
loop $-1 $-1 $150 $38 #
coedge $-1 $94 $94 $151 $152 reversed $59 $-1 #
face $-1 $-1 $153 $31 $-1 $154 forward single #
loop $-1 $155 $156 $61 #
cone-surface $-1 37.490613971265063 0.28416311461215926 4.3074294482535738 -0.52991927123019833 0 -0.84804809178421925 0.10600601147302741 0 -0.066239908903774791 1 I I -0.70710678118654746 0.70710678118654746 0.125 forward I I I I #
loop $-1 $-1 $157 $39 #
coedge $-1 $99 $99 $158 $159 reversed $62 $-1 #
face $-1 $160 $161 $24 $-1 $162 reversed single #
loop $-1 $-1 $163 $64 #
plane-surface $-1 0 -21.774406173926412 0 0 1 0 0 0 1 forward_v I I I I #
coedge $-1 $164 $165 $166 $167 forward $65 $-1 #
coedge $-1 $168 $67 $169 $170 forward $41 $-1 #
coedge $-1 $67 $168 $171 $172 forward $41 $-1 #
coedge $-1 $173 $174 $67 $107 reversed $175 $-1 #
edge $-1 $176 -21.774406173926412 $177 21.774406173926412 $106 $178 forward 7 unknown #
face $-1 $179 $180 $25 $-1 $181 reversed single #
loop $-1 $-1 $182 $68 #
plane-surface $-1 0 -11.630175123321873 4.8127832410029789 0 -1 0 0 0 -1 forward_v I I I I #
coedge $-1 $183 $184 $185 $186 reversed $69 $-1 #
coedge $-1 $187 $71 $188 $189 forward $44 $-1 #
coedge $-1 $71 $187 $190 $191 reversed $44 $-1 #
coedge $-1 $192 $193 $71 $115 forward $194 $-1 #
edge $-1 $195 3.2790297990098018 $196 13.423260849614341 $114 $197 forward 7 unknown #
face $-1 $198 $199 $26 $-1 $200 reversed single #
loop $-1 $-1 $122 $72 #
plane-surface $-1 0 0 8.5981891550589449 0 0 1 1 0 0 forward_v I I I I #
coedge $-1 $201 $202 $203 $204 reversed $73 $-1 #
coedge $-1 $121 $75 $205 $206 reversed $47 $-1 #
coedge $-1 $75 $120 $201 $207 reversed $47 $-1 #
coedge $-1 $203 $208 $75 $123 forward $117 $-1 #
edge $-1 $209 15.114552146463566 $210 17.750664371881975 $122 $211 forward 7 unknown #
loop $-1 $-1 $129 $76 #
plane-surface $-1 -43.426618243964967 18.370329658641008 4.3795275979119523 -0.84804810408105047 0 0.52991925155115449 0.52991925155115449 0 0.84804810408105047 forward_v I I I I #
loop $-1 $-1 $212 $49 #
coedge $-1 $127 $127 $128 $213 reversed $77 $-1 #
coedge $-1 $128 $128 $127 $213 forward $79 $-1 #
coedge $-1 $129 $129 $80 $130 forward $124 $-1 #
edge $-1 $214 0 $214 6.2831853071796004 $129 $215 forward 7 unknown #
loop $-1 $-1 $136 $81 #
plane-surface $-1 -43.426618243964967 18.370329658641008 4.3795275979119523 -0.84804810408105047 0 0.52991925155115449 0.52991925155115449 0 0.84804810408105047 forward_v I I I I #
loop $-1 $-1 $216 $52 #
coedge $-1 $134 $134 $135 $217 reversed $82 $-1 #
coedge $-1 $135 $135 $134 $217 forward $84 $-1 #
coedge $-1 $136 $136 $85 $137 forward $131 $-1 #
edge $-1 $218 0 $218 6.2831853071796004 $136 $219 forward 7 unknown #
face $-1 $220 $221 $29 $-1 $222 reversed single #
loop $-1 $-1 $223 $86 #
plane-surface $-1 15.796100558760365 -5.6324090711714909 121.60570320050311 0 1 0 0.52991927123019833 0 0.84804809178421925 forward_v I I I I #
coedge $-1 $224 $225 $226 $227 reversed $87 $-1 #
coedge $-1 $143 $89 $228 $229 reversed $56 $-1 #
coedge $-1 $89 $142 $224 $230 reversed $56 $-1 #
coedge $-1 $226 $231 $89 $145 forward $232 $-1 #
edge $-1 $233 -35.528567964584781 $234 -24.848877779452916 $144 $235 forward 7 unknown #
loop $-1 $-1 $151 $90 #
plane-surface $-1 -30.229103224907533 -1.4908085411229344 47.949981731630615 0.52991927123019833 0 0.84804809178421925 0.84804809178421925 0 -0.52991927123019833 forward_v I I I I #
loop $-1 $-1 $236 $58 #
coedge $-1 $149 $149 $150 $237 reversed $91 $-1 #
coedge $-1 $150 $150 $149 $237 forward $93 $-1 #
coedge $-1 $151 $151 $94 $152 forward $146 $-1 #
edge $-1 $238 0 $238 6.2831853071796004 $151 $239 forward 7 unknown #
loop $-1 $-1 $158 $95 #
plane-surface $-1 -30.229103224907533 -1.4908085411229344 47.949981731630615 0.52991927123019833 0 0.84804809178421925 0.84804809178421925 0 -0.52991927123019833 forward_v I I I I #
loop $-1 $-1 $240 $61 #
coedge $-1 $156 $156 $157 $241 reversed $96 $-1 #
coedge $-1 $157 $157 $156 $241 forward $98 $-1 #
coedge $-1 $158 $158 $99 $159 forward $153 $-1 #
edge $-1 $242 0 $242 6.2831853071796004 $158 $243 forward 7 unknown #
face $-1 $244 $245 $24 $-1 $246 reversed single #
loop $-1 $-1 $247 $100 #
plane-surface $-1 -43.426618243964967 0 0 1 0 0 0 0 -1 forward_v I I I I #
coedge $-1 $248 $171 $249 $250 forward $101 $-1 #
coedge $-1 $251 $103 $248 $252 forward $65 $-1 #
coedge $-1 $103 $251 $253 $254 forward $65 $-1 #
coedge $-1 $174 $173 $103 $167 reversed $175 $-1 #
edge $-1 $255 -21.774406173926412 $256 21.774406173926412 $166 $257 forward 7 unknown #
coedge $-1 $105 $104 $258 $259 forward $41 $-1 #
coedge $-1 $260 $261 $104 $170 reversed $245 $-1 #
edge $-1 $177 -43.426618243964967 $262 43.426618243964967 $169 $263 forward 7 unknown #
coedge $-1 $163 $264 $105 $172 reversed $101 $-1 #
edge $-1 $265 -43.426618243964967 $176 43.426618243964967 $171 $266 forward 7 unknown #
coedge $-1 $166 $106 $264 $267 forward $175 $-1 #
coedge $-1 $106 $166 $260 $268 reversed $175 $-1 #
loop $-1 $-1 $173 $244 #
vertex $-1 $107 $269 #
vertex $-1 $107 $270 #
straight-curve $-1 43.426618243964967 0 8.5981891550589449 0 1 0 I I #
face $-1 $271 $272 $25 $-1 $273 reversed single #
loop $-1 $-1 $274 $108 #
plane-surface $-1 -43.426618243964967 0 0 1 0 0 0 0 -1 forward_v I I I I #
coedge $-1 $275 $188 $193 $276 reversed $109 $-1 #
coedge $-1 $277 $111 $278 $279 reversed $69 $-1 #
coedge $-1 $111 $277 $275 $280 forward $69 $-1 #
coedge $-1 $193 $192 $111 $186 forward $194 $-1 #
edge $-1 $281 -13.423260849614341 $282 -3.2790297990098018 $185 $283 forward 7 unknown #
coedge $-1 $113 $112 $274 $284 reversed $44 $-1 #
coedge $-1 $182 $285 $112 $189 reversed $109 $-1 #
edge $-1 $195 -43.426618243964967 $286 43.426618243964967 $188 $287 forward 7 unknown #
coedge $-1 $288 $289 $113 $191 forward $272 $-1 #
edge $-1 $196 -43.426618243964967 $290 43.426618243964967 $190 $291 forward 7 unknown #
coedge $-1 $185 $114 $289 $292 forward $194 $-1 #
coedge $-1 $114 $185 $182 $276 forward $194 $-1 #
loop $-1 $-1 $114 $271 #
vertex $-1 $115 $293 #
vertex $-1 $292 $294 #
straight-curve $-1 43.426618243964967 -8.3511453243120712 6.3127832410029789 0 -1 0 I I #
face $-1 $-1 $295 $26 $-1 $296 reversed single #
loop $-1 $-1 $297 $116 #
plane-surface $-1 0 21.774406173926412 0 0 -1 0 0 0 -1 forward_v I I I I #
coedge $-1 $298 $119 $121 $207 forward $73 $-1 #
coedge $-1 $119 $298 $297 $299 reversed $73 $-1 #
coedge $-1 $300 $122 $119 $204 forward $117 $-1 #
edge $-1 $210 5.7810883140350935 $301 12.589241344605915 $203 $302 forward 7 unknown #
coedge $-1 $303 $304 $120 $206 forward $295 $-1 #
edge $-1 $305 -20.82283723828365 $209 -16.60417568113666 $205 $306 forward 7 unknown #
edge $-1 $210 -4.9745545527966897 $305 0 $121 $307 forward 7 unknown #
coedge $-1 $122 $300 $303 $308 forward $117 $-1 #
vertex $-1 $206 $309 #
vertex $-1 $123 $310 #
straight-curve $-1 -58.541170390428533 14.966253143355598 8.5981891550589431 1 0 0 I I #
coedge $-1 $212 $212 $-1 $311 reversed $126 $-1 #
edge $-1 $312 0 $312 6.2831853071796004 $127 $313 forward 7 unknown #
vertex $-1 $130 $314 #
ellipse-curve $-1 -42.108562131255759 16.911439723518686 6.4888583764854486 -0.84804810408105047 0 0.52991925155115449 0.26495962577557725 0 0.42402405204052523 1 I I #
coedge $-1 $216 $216 $-1 $315 reversed $133 $-1 #
edge $-1 $316 0 $316 6.2831853071796004 $134 $317 forward 7 unknown #
vertex $-1 $137 $318 #
ellipse-curve $-1 -42.108562131255759 19.829219593763323 6.4888583764854486 -0.84804810408105047 0 0.52991925155115449 0.26495962577557725 0 0.42402405204052523 1 I I #
face $-1 $-1 $232 $29 $-1 $319 forward single #
loop $-1 $-1 $320 $138 #
plane-surface $-1 43.426618243964967 0 0 -1 0 0 0 0 1 forward_v I I I I #
coedge $-1 $321 $322 $323 $324 reversed $139 $-1 #
coedge $-1 $325 $141 $143 $230 forward $87 $-1 #
coedge $-1 $141 $325 $321 $326 forward $87 $-1 #
coedge $-1 $323 $144 $141 $227 forward $232 $-1 #
edge $-1 $234 -3.3961962594870894 $327 4.8870048006100237 $226 $328 forward 7 unknown #
coedge $-1 $329 $330 $142 $229 forward $221 $-1 #
edge $-1 $331 -58.87807365228884 $233 -52.204662445192611 $228 $332 forward 7 unknown #
edge $-1 $234 74.259976402098317 $331 86.853236487929934 $143 $333 forward 7 unknown #
coedge $-1 $144 $323 $329 $334 forward $232 $-1 #
loop $-1 $-1 $323 $220 #
vertex $-1 $229 $335 #
vertex $-1 $145 $336 #
straight-curve $-1 7.8980502793801826 2.6507919889256222 8.5981891550589467 -1 0 0 I I #
coedge $-1 $236 $236 $-1 $337 reversed $148 $-1 #
edge $-1 $338 0 $338 6.2831853071796004 $149 $339 forward 7 unknown #
vertex $-1 $152 $340 #
ellipse-curve $-1 38.086773151399044 -3.2657801968580316 5.2614835515108318 0.52991927123019833 0 0.84804809178421925 0.21201202294605481 0 -0.13247981780754958 1 I I #
coedge $-1 $240 $240 $-1 $341 reversed $155 $-1 #
edge $-1 $342 0 $342 6.2831853071796004 $156 $343 forward 7 unknown #
vertex $-1 $159 $344 #
ellipse-curve $-1 38.086773151399044 0.28416311461215926 5.2614835515108318 0.52991927123019833 0 0.84804809178421925 0.21201202294605481 0 -0.13247981780754958 1 I I #
face $-1 $-1 $175 $24 $-1 $345 reversed single #
loop $-1 $-1 $260 $160 #
plane-surface $-1 0 21.774406173926412 0 0 -1 0 0 0 -1 forward_v I I I I #
coedge $-1 $346 $258 $261 $347 forward $161 $-1 #
coedge $-1 $264 $163 $164 $252 reversed $101 $-1 #
coedge $-1 $258 $346 $163 $250 reversed $161 $-1 #
edge $-1 $265 -8.5981891550589449 $348 8.5981891550589449 $249 $349 forward 7 unknown #
coedge $-1 $165 $164 $346 $350 forward $65 $-1 #
edge $-1 $256 -43.426618243964967 $348 43.426618243964967 $248 $351 forward 7 unknown #
coedge $-1 $261 $260 $165 $254 reversed $245 $-1 #
edge $-1 $352 -43.426618243964967 $255 43.426618243964967 $253 $353 forward 7 unknown #
vertex $-1 $167 $354 #
vertex $-1 $267 $355 #
straight-curve $-1 43.426618243964967 0 -8.5981891550589449 0 -1 0 I I #
coedge $-1 $247 $249 $168 $259 reversed $161 $-1 #
edge $-1 $262 -21.774406173926412 $265 21.774406173926412 $258 $356 forward 7 unknown #
coedge $-1 $253 $169 $174 $268 forward $245 $-1 #
coedge $-1 $169 $253 $247 $347 reversed $245 $-1 #
vertex $-1 $170 $357 #
straight-curve $-1 0 21.774406173926412 8.5981891550589449 -1 0 0 I I #
coedge $-1 $171 $248 $173 $267 reversed $101 $-1 #
vertex $-1 $259 $358 #
straight-curve $-1 0 -21.774406173926412 8.5981891550589449 1 0 0 I I #
edge $-1 $176 -8.5981891550589449 $256 8.5981891550589449 $173 $359 forward 7 unknown #
edge $-1 $177 -8.5981891550589449 $255 8.5981891550589449 $174 $360 forward 7 unknown #
point $-1 43.426618243964967 -21.774406173926412 8.5981891550589449 #
point $-1 43.426618243964967 21.774406173926412 8.5981891550589449 #
face $-1 $-1 $194 $25 $-1 $361 reversed single #
loop $-1 $-1 $190 $179 #
plane-surface $-1 0 -21.774406173926412 0 0 1 0 0 0 1 forward_v I I I I #
coedge $-1 $362 $363 $187 $284 forward $180 $-1 #
coedge $-1 $285 $182 $184 $280 reversed $109 $-1 #
edge $-1 $282 0.90639162050148947 $195 3.9063916205014895 $193 $364 forward 7 unknown #
coedge $-1 $184 $183 $365 $366 reversed $69 $-1 #
coedge $-1 $289 $288 $183 $279 forward $272 $-1 #
edge $-1 $367 -43.426618243964967 $281 43.426618243964967 $278 $368 forward 7 unknown #
edge $-1 $369 -43.426618243964967 $282 43.426618243964967 $275 $370 forward 7 unknown #
vertex $-1 $279 $371 #
vertex $-1 $186 $372 #
straight-curve $-1 43.426618243964967 -8.3511453243120712 3.3127832410029789 0 1 0 I I #
edge $-1 $290 -13.423260849614341 $286 -3.2790297990098018 $274 $373 forward 7 unknown #
coedge $-1 $188 $275 $362 $374 reversed $109 $-1 #
vertex $-1 $284 $375 #
straight-curve $-1 0 -11.630175123321873 6.3127832410029789 -1 0 0 I I #
coedge $-1 $278 $190 $363 $376 forward $272 $-1 #
coedge $-1 $190 $278 $192 $292 reversed $272 $-1 #
vertex $-1 $376 $377 #
straight-curve $-1 0 -21.774406173926412 6.3127832410029789 -1 0 0 I I #
edge $-1 $196 -6.3127832410029789 $281 -3.3127832410029789 $192 $378 forward 7 unknown #
point $-1 43.426618243964967 -11.630175123321873 6.3127832410029789 #
point $-1 43.426618243964967 -21.774406173926412 6.3127832410029789 #
loop $-1 $-1 $205 $198 #
plane-surface $-1 -43.426618243964967 0 0 1 0 0 0 0 -1 forward_v I I I I #
coedge $-1 $379 $380 $202 $299 forward $199 $-1 #
coedge $-1 $202 $201 $304 $381 reversed $73 $-1 #
edge $-1 $301 4.6747209277331896 $382 9.6492754805298802 $297 $383 forward 7 unknown #
coedge $-1 $208 $203 $380 $384 forward $117 $-1 #
vertex $-1 $384 $385 #
straight-curve $-1 -40.790506018546559 9.1851648293205042 8.5981891550589467 0 1 0 I I #
coedge $-1 $386 $205 $208 $308 reversed $295 $-1 #
coedge $-1 $205 $386 $298 $381 forward $295 $-1 #
vertex $-1 $206 $387 #
straight-curve $-1 -43.426618243964967 14.966253143355598 25.202364836195603 0 0 1 I I #
straight-curve $-1 -43.426618243964967 14.966253143355598 4.3795275979119523 -0.52991925155115449 0 -0.84804810408105047 I I #
edge $-1 $388 -21.774406173926412 $209 -14.966253143355598 $303 $389 forward 7 unknown #
point $-1 -43.426618243964967 14.966253143355598 8.5981891550589449 #
point $-1 -40.790506018546559 14.966253143355598 8.5981891550589449 #
edge $-1 $390 1 $390 0 $212 $-1 forward 7 unknown #
vertex $-1 $213 $391 #
ellipse-curve $-1 -40.857557242711991 16.911439723518686 5.7071437885584997 -0.84804810408105047 0 0.52991925155115449 0.26495962577557725 0 0.42402405204052523 1 I I #
point $-1 -41.843602505480185 16.911439723518686 6.9128824285259762 #
edge $-1 $392 1 $392 0 $216 $-1 forward 7 unknown #
vertex $-1 $217 $393 #
ellipse-curve $-1 -40.857557242711991 19.829219593763323 5.7071437885584997 -0.84804810408105047 0 0.52991925155115449 0.26495962577557725 0 0.42402405204052523 1 I I #
point $-1 -41.843602505480185 19.829219593763323 6.9128824285259762 #
plane-surface $-1 0 0 8.5981891550589449 0 0 1 1 0 0 forward_v I I I I #
coedge $-1 $330 $329 $322 $394 forward $221 $-1 #
coedge $-1 $322 $223 $225 $326 reversed $139 $-1 #
coedge $-1 $223 $321 $320 $394 reversed $139 $-1 #
coedge $-1 $231 $226 $223 $324 forward $232 $-1 #
edge $-1 $327 24.848877779452916 $395 35.528567964584781 $323 $396 forward 7 unknown #
coedge $-1 $225 $224 $330 $397 reversed $87 $-1 #
edge $-1 $398 -86.853236487929934 $327 -74.259976402098317 $321 $399 forward 7 unknown #
vertex $-1 $227 $400 #
straight-curve $-1 32.746928058833106 -0.74540427056146719 8.5981891550589431 0 -1 0 I I #
coedge $-1 $320 $228 $231 $334 reversed $221 $-1 #
coedge $-1 $228 $320 $325 $397 forward $221 $-1 #
vertex $-1 $229 $401 #
straight-curve $-1 43.426618243964967 2.6507919889256222 60.802851600251557 0 0 1 I I #
straight-curve $-1 -30.229103224907533 2.6507919889256222 47.949981731630615 0.84804809178421925 0 -0.52991927123019833 I I #
edge $-1 $395 -5.6324090711714909 $233 2.6507919889256222 $329 $402 forward 7 unknown #
point $-1 43.426618243964967 2.6507919889256222 8.5981891550589449 #
point $-1 32.746928058833099 2.6507919889256222 8.5981891550589467 #
edge $-1 $403 1 $403 0 $236 $-1 forward 7 unknown #
vertex $-1 $237 $404 #
ellipse-curve $-1 37.556853880168838 -3.2657801968580316 4.4134354597266015 0.52991927123019833 0 0.84804809178421925 0.21201202294605481 0 -0.13247981780754958 1 I I #
point $-1 38.298785174345092 -3.2657801968580316 5.1290037337032706 #
edge $-1 $405 1 $405 0 $240 $-1 forward 7 unknown #
vertex $-1 $241 $406 #
ellipse-curve $-1 37.556853880168838 0.28416311461215926 4.4134354597266015 0.52991927123019833 0 0.84804809178421925 0.21201202294605481 0 -0.13247981780754958 1 I I #
point $-1 38.298785174345092 0.28416311461215926 5.1290037337032706 #
plane-surface $-1 43.426618243964967 0 0 -1 0 0 0 0 1 forward_v I I I I #
coedge $-1 $249 $247 $251 $350 reversed $161 $-1 #
edge $-1 $262 -8.5981891550589449 $352 8.5981891550589449 $261 $407 forward 7 unknown #
vertex $-1 $350 $408 #
straight-curve $-1 -43.426618243964967 -21.774406173926412 0 0 0 -1 I I #
edge $-1 $348 -21.774406173926412 $352 21.774406173926412 $346 $409 forward 7 unknown #
straight-curve $-1 0 -21.774406173926412 -8.5981891550589449 -1 0 0 I I #
vertex $-1 $254 $410 #
straight-curve $-1 0 21.774406173926412 -8.5981891550589449 1 0 0 I I #
point $-1 43.426618243964967 21.774406173926412 -8.5981891550589449 #
point $-1 43.426618243964967 -21.774406173926412 -8.5981891550589449 #
straight-curve $-1 -43.426618243964967 0 8.5981891550589449 0 -1 0 I I #
point $-1 -43.426618243964967 21.774406173926412 8.5981891550589449 #
point $-1 -43.426618243964967 -21.774406173926412 8.5981891550589449 #
straight-curve $-1 43.426618243964967 -21.774406173926412 0 0 0 -1 I I #
straight-curve $-1 43.426618243964967 21.774406173926412 0 0 0 -1 I I #
plane-surface $-1 43.426618243964967 0 0 -1 0 0 0 0 1 forward_v I I I I #
coedge $-1 $365 $274 $285 $374 forward $180 $-1 #
coedge $-1 $274 $365 $288 $376 reversed $180 $-1 #
straight-curve $-1 43.426618243964967 -11.630175123321873 2.4063916205014895 0 0 1 I I #
coedge $-1 $363 $362 $277 $366 forward $180 $-1 #
edge $-1 $369 3.2790297990098018 $367 13.423260849614341 $365 $411 forward 7 unknown #
vertex $-1 $279 $412 #
straight-curve $-1 0 -21.774406173926412 3.3127832410029789 1 0 0 I I #
vertex $-1 $366 $413 #
straight-curve $-1 0 -11.630175123321873 3.3127832410029789 1 0 0 I I #
point $-1 43.426618243964967 -21.774406173926412 3.3127832410029789 #
point $-1 43.426618243964967 -11.630175123321873 3.3127832410029789 #
straight-curve $-1 -43.426618243964967 -8.3511453243120712 6.3127832410029789 0 1 0 I I #
edge $-1 $286 -3.9063916205014895 $369 -0.90639162050148947 $362 $414 forward 7 unknown #
point $-1 -43.426618243964967 -11.630175123321873 6.3127832410029789 #
edge $-1 $290 -6.3127832410029789 $367 -3.3127832410029789 $363 $415 forward 7 unknown #
point $-1 -43.426618243964967 -21.774406173926412 6.3127832410029789 #
straight-curve $-1 43.426618243964967 -21.774406173926412 0 0 0 -1 I I #
coedge $-1 $380 $297 $386 $416 reversed $199 $-1 #
coedge $-1 $297 $379 $300 $384 reversed $199 $-1 #
edge $-1 $382 -12.589241344605915 $305 -5.7810883140350935 $304 $417 forward 7 unknown #
vertex $-1 $299 $418 #
straight-curve $-1 -38.313281403311663 21.774406173926412 12.562577374931083 -0.52991925155115449 0 -0.84804810408105047 I I #
edge $-1 $301 40.790506018546559 $388 43.426618243964967 $380 $419 forward 7 unknown #
point $-1 -40.790506018546559 21.774406173926419 8.5981891550589449 #
coedge $-1 $304 $303 $379 $416 forward $295 $-1 #
point $-1 -43.426618243964967 14.966253143355598 4.3795275979119523 #
vertex $-1 $384 $420 #
straight-curve $-1 -43.426618243964967 0 8.5981891550589449 0 -1 0 I I #
vertex $-1 $311 $421 #
point $-1 -40.592597616936416 16.911439723518686 6.1311678405990255 #
vertex $-1 $315 $422 #
point $-1 -40.592597616936416 19.829219593763323 6.1311678405990255 #
edge $-1 $395 52.204662445192611 $398 58.87807365228884 $320 $423 forward 7 unknown #
vertex $-1 $334 $424 #
straight-curve $-1 7.8980502793801826 -5.6324090711714909 8.5981891550589467 1 0 0 I I #
edge $-1 $398 -4.8870048006100237 $331 3.3961962594870894 $330 $425 forward 7 unknown #
vertex $-1 $397 $426 #
straight-curve $-1 -30.229103224907533 -5.6324090711714909 47.949981731630615 -0.84804809178421925 0 0.52991927123019833 I I #
point $-1 32.746928058833099 -5.6324090711714909 8.5981891550589467 #
point $-1 43.426618243964967 2.6507919889256222 1.924777947962717 #
straight-curve $-1 43.426618243964967 0 8.5981891550589449 0 1 0 I I #
vertex $-1 $337 $427 #
point $-1 37.768865903114893 -3.2657801968580316 4.2809556419190518 #
vertex $-1 $341 $428 #
point $-1 37.768865903114893 0.28416311461215926 4.2809556419190518 #
straight-curve $-1 -43.426618243964967 21.774406173926412 0 0 0 -1 I I #
point $-1 -43.426618243964967 -21.774406173926412 -8.5981891550589449 #
straight-curve $-1 -43.426618243964967 0 -8.5981891550589449 0 1 0 I I #
point $-1 -43.426618243964967 21.774406173926412 -8.5981891550589449 #
straight-curve $-1 -43.426618243964967 -8.3511453243120712 3.3127832410029789 0 -1 0 I I #
point $-1 -43.426618243964967 -21.774406173926412 3.3127832410029789 #
point $-1 -43.426618243964967 -11.630175123321873 3.3127832410029789 #
straight-curve $-1 -43.426618243964967 -11.630175123321873 2.4063916205014895 0 0 -1 I I #
straight-curve $-1 -43.426618243964967 -21.774406173926412 0 0 0 -1 I I #
edge $-1 $388 -8.5981891550589449 $382 -4.3795275979119523 $379 $429 forward 7 unknown #
straight-curve $-1 -43.426618243964967 9.1851648293205042 4.3795275979119559 0 -1 0 I I #
point $-1 -43.426618243964967 21.774406173926419 4.3795275979119523 #
straight-curve $-1 0 21.774406173926412 8.5981891550589449 -1 0 0 I I #
point $-1 -43.426618243964967 21.774406173926412 8.5981891550589449 #
point $-1 -40.433533190671469 16.911439723518686 5.4421841627829233 #
point $-1 -40.433533190671469 19.829219593763323 5.4421841627829233 #
straight-curve $-1 43.426618243964967 -5.6324090711714909 60.802851600251557 0 0 -1 I I #
point $-1 43.426618243964967 -5.6324090711714909 8.5981891550589449 #
straight-curve $-1 43.426618243964974 -0.74540427056146719 1.9247779479627205 0 1 0 I I #
point $-1 43.426618243964967 -5.6324090711714909 1.924777947962717 #
point $-1 37.424374062361288 -3.2657801968580316 4.2014234367805461 #
point $-1 37.424374062361288 0.28416311461215926 4.2014234367805461 #
straight-curve $-1 -43.426618243964967 21.774406173926412 0 0 0 -1 I I #
End-of-ACIS-data 