500 0 15 0           
7 Unknown 11 ACIS 5.0 NT 24 Fri Mar 26 15:36:51 1999 
-1 9.9999999999999995e-007 1e-010 
body $-1 $15 $-1 $16 #
body $-1 $17 $-1 $18 #
body $-1 $19 $-1 $20 #
body $-1 $21 $-1 $22 #
body $-1 $23 $-1 $24 #
body $-1 $25 $-1 $26 #
body $-1 $27 $-1 $28 #
body $-1 $29 $-1 $30 #
body $-1 $31 $-1 $32 #
body $-1 $33 $-1 $34 #
body $-1 $35 $-1 $36 #
body $-1 $37 $-1 $38 #
body $-1 $39 $-1 $40 #
body $-1 $41 $-1 $42 #
body $-1 $43 $-1 $44 #
lump $-1 $-1 $45 $0 #
transform $-1 1 0 0 0 1 0 0 0 1 53.890804773094885 28.124957584864763 10.608122525447664 1 rotate no_reflect no_shear #
lump $-1 $-1 $46 $1 #
transform $-1 1 0 0 0 1 0 0 0 1 53.890804773094885 28.124957584864763 10.608122525447664 1 rotate no_reflect no_shear #
lump $-1 $-1 $47 $2 #
transform $-1 1 0 0 0 1 0 0 0 1 53.890804773094885 28.124957584864763 10.608122525447664 1 rotate no_reflect no_shear #
lump $-1 $-1 $48 $3 #
transform $-1 1 0 0 0 1 0 0 0 1 53.890804773094885 28.124957584864763 10.608122525447664 1 rotate no_reflect no_shear #
lump $-1 $-1 $49 $4 #
transform $-1 1 0 0 0 1 0 0 0 1 53.890804773094885 28.124957584864763 10.608122525447664 1 rotate no_reflect no_shear #
lump $-1 $-1 $50 $5 #
transform $-1 1 0 0 0 1 0 0 0 1 53.890804773094885 28.124957584864763 10.608122525447664 1 rotate no_reflect no_shear #
lump $-1 $-1 $51 $6 #
transform $-1 1 0 0 0 1 0 0 0 1 53.890804773094885 28.124957584864763 10.608122525447664 1 rotate no_reflect no_shear #
lump $-1 $-1 $52 $7 #
transform $-1 1 0 0 0 1 0 0 0 1 53.890804773094885 28.124957584864763 10.608122525447664 1 rotate no_reflect no_shear #
lump $-1 $-1 $53 $8 #
transform $-1 1 0 0 0 1 0 0 0 1 53.890804773094885 28.124957584864763 10.608122525447664 1 rotate no_reflect no_shear #
lump $-1 $-1 $54 $9 #
transform $-1 1 0 0 0 1 0 0 0 1 53.890804773094885 28.124957584864763 10.608122525447664 1 rotate no_reflect no_shear #
lump $-1 $-1 $55 $10 #
transform $-1 1 0 0 0 1 0 0 0 1 53.890804773094885 28.124957584864763 10.608122525447664 1 rotate no_reflect no_shear #
lump $-1 $-1 $56 $11 #
transform $-1 1 0 0 0 1 0 0 0 1 53.890804773094885 28.124957584864763 10.608122525447664 1 rotate no_reflect no_shear #
lump $-1 $-1 $57 $12 #
transform $-1 1 0 0 0 1 0 0 0 1 53.890804773094885 28.124957584864763 10.608122525447664 1 rotate no_reflect no_shear #
lump $-1 $-1 $58 $13 #
transform $-1 1 0 0 0 1 0 0 0 1 53.890804773094885 28.124957584864763 10.608122525447664 1 rotate no_reflect no_shear #
lump $-1 $-1 $59 $14 #
transform $-1 1 0 0 0 1 0 0 0 1 53.890804773094885 28.124957584864763 10.608122525447664 1 rotate no_reflect no_shear #
shell $-1 $-1 $-1 $60 $-1 $15 #
shell $-1 $-1 $-1 $61 $-1 $17 #
shell $-1 $-1 $-1 $62 $-1 $19 #
shell $-1 $-1 $-1 $63 $-1 $21 #
shell $-1 $-1 $-1 $64 $-1 $23 #
shell $-1 $-1 $-1 $65 $-1 $25 #
shell $-1 $-1 $-1 $66 $-1 $27 #
shell $-1 $-1 $-1 $67 $-1 $29 #
shell $-1 $-1 $-1 $68 $-1 $31 #
shell $-1 $-1 $-1 $69 $-1 $33 #
shell $-1 $-1 $-1 $70 $-1 $35 #
shell $-1 $-1 $-1 $71 $-1 $37 #
shell $-1 $-1 $-1 $72 $-1 $39 #
shell $-1 $-1 $-1 $73 $-1 $41 #
shell $-1 $-1 $-1 $74 $-1 $43 #
face $-1 $75 $76 $45 $-1 $77 forward single #
face $-1 $78 $79 $46 $-1 $80 reversed single #
face $-1 $81 $82 $47 $-1 $83 reversed single #
face $-1 $84 $85 $48 $-1 $86 reversed single #
face $-1 $87 $88 $49 $-1 $89 forward single #
face $-1 $90 $91 $50 $-1 $92 forward single #
face $-1 $93 $94 $51 $-1 $95 reversed single #
face $-1 $96 $97 $52 $-1 $98 forward single #
face $-1 $99 $100 $53 $-1 $101 forward single #
face $-1 $102 $103 $54 $-1 $104 reversed single #
face $-1 $105 $106 $55 $-1 $107 forward single #
face $-1 $108 $109 $56 $-1 $110 forward single #
face $-1 $111 $112 $57 $-1 $113 reversed single #
face $-1 $114 $115 $58 $-1 $116 forward single #
face $-1 $117 $118 $59 $-1 $119 forward single #
face $-1 $120 $121 $45 $-1 $122 reversed single #
loop $-1 $-1 $123 $60 #
plane-surface $-1 0 0 10.608122525447664 0 0 1 1 0 0 forward_v I I I I #
face $-1 $124 $125 $46 $-1 $126 reversed single #
loop $-1 $-1 $127 $61 #
plane-surface $-1 -37.702602019195503 -21.459380848510573 0 1 0 0 0 0 -1 forward_v I I I I #
face $-1 $128 $129 $47 $-1 $130 reversed single #
loop $-1 $-1 $131 $62 #
plane-surface $-1 -36.202602019195503 14.793804112156383 0 0 1 0 0 0 1 forward_v I I I I #
face $-1 $132 $133 $48 $-1 $134 reversed single #
loop $-1 $-1 $135 $63 #
plane-surface $-1 -111.00635675582956 -7.1782457663469081 97.730894359825896 0 1 0 -0.52991927123019833 0 0.84804809178421925 forward_v I I I I #
face $-1 $136 $137 $49 $-1 $138 forward single #
loop $-1 $139 $140 $64 #
cone-surface $-1 -50.036888006116413 -5.1273184045335078 7.7822069558177178 0.52991927123019833 0 -0.84804809178421925 0.42402404589210962 0 0.26495963561509916 1 I I 0 1 0.5 forward I I I I #
face $-1 $141 $142 $50 $-1 $143 forward single #
loop $-1 $144 $145 $65 #
cone-surface $-1 -50.036888006116413 -2.0509273618134038 7.7822069558177178 0.52991927123019833 0 -0.84804809178421925 0.42402404589210962 0 0.26495963561509916 1 I I 0 1 0.5 forward I I I I #
face $-1 $146 $147 $51 $-1 $148 reversed single #
loop $-1 $-1 $149 $66 #
plane-surface $-1 -53.890804773094885 -3.5891228831734558 6.3269060547478659 -0.52991927123019833 0 0.84804809178421925 0.84804809178421925 0 0.52991927123019833 forward_v I I I I #
face $-1 $150 $151 $52 $-1 $152 forward single #
loop $-1 $153 $154 $67 #
cone-surface $-1 -50.036888006116413 2.0509273618133967 7.7822069558177178 0.52991927123019833 0 -0.84804809178421925 0.42402404589210962 0 0.26495963561509916 1 I I 0 1 0.5 forward I I I I #
face $-1 $155 $156 $53 $-1 $157 forward single #
loop $-1 $158 $159 $68 #
cone-surface $-1 -50.036888006116413 5.1273184045335007 7.7822069558177178 0.52991927123019833 0 -0.84804809178421925 0.42402404589210962 0 0.26495963561509916 1 I I 0 1 0.5 forward I I I I #
face $-1 $160 $161 $54 $-1 $162 reversed single #
loop $-1 $-1 $163 $69 #
plane-surface $-1 19.602368450751527 -3.5527136788005009e-015 154.84644634256057 0 -1 0 -0.52991927123019833 0 -0.84804809178421925 forward_v I I I I #
face $-1 $164 $165 $55 $-1 $166 forward single #
loop $-1 $167 $168 $70 #
cone-surface $-1 50.036888006116413 -5.1273184045335078 7.7822069558177249 -0.52991927123019833 0 -0.84804809178421925 0.42402404589210962 0 -0.26495963561509916 1 I I 0 1 0.5 forward I I I I #
face $-1 $169 $170 $56 $-1 $171 forward single #
loop $-1 $172 $173 $71 #
cone-surface $-1 50.036888006116413 -2.0509273618134038 7.7822069558177249 -0.52991927123019833 0 -0.84804809178421925 0.42402404589210962 0 -0.26495963561509916 1 I I 0 1 0.5 forward I I I I #
face $-1 $174 $175 $57 $-1 $176 reversed single #
loop $-1 $-1 $177 $72 #
plane-surface $-1 19.602368450751527 7.178245766346901 154.84644634256057 0 -1 0 -0.52991927123019833 0 -0.84804809178421925 forward_v I I I I #
face $-1 $178 $179 $58 $-1 $180 forward single #
loop $-1 $181 $182 $73 #
cone-surface $-1 50.036888006116413 2.0509273618133967 7.7822069558177249 -0.52991927123019833 0 -0.84804809178421925 0.42402404589210962 0 -0.26495963561509916 1 I I 0 1 0.5 forward I I I I #
face $-1 $183 $184 $59 $-1 $185 forward single #
loop $-1 $186 $187 $74 #
cone-surface $-1 50.036888006116413 5.1273184045335007 7.7822069558177249 -0.52991927123019833 0 -0.84804809178421925 0.42402404589210962 0 -0.26495963561509916 1 I I 0 1 0.5 forward I I I I #
face $-1 $188 $189 $45 $-1 $190 reversed single #
loop $-1 $-1 $191 $75 #
plane-surface $-1 0 0 -10.608122525447664 0 0 1 1 0 0 forward_v I I I I #
coedge $-1 $192 $193 $194 $195 forward $76 $-1 #
face $-1 $196 $197 $46 $-1 $198 reversed single #
loop $-1 $-1 $199 $78 #
plane-surface $-1 -36.202602019195503 -14.793804112156383 0 0 -1 0 0 0 -1 forward_v I I I I #
coedge $-1 $200 $201 $202 $203 forward $79 $-1 #
face $-1 $204 $205 $47 $-1 $206 reversed single #
loop $-1 $-1 $207 $81 #
plane-surface $-1 -37.702602019195503 21.459380848510573 0 1 0 0 0 0 -1 forward_v I I I I #
coedge $-1 $208 $209 $210 $211 forward $82 $-1 #
face $-1 $212 $213 $48 $-1 $214 reversed single #
loop $-1 $-1 $215 $84 #
plane-surface $-1 -53.890804773094885 -3.5891228831734558 6.3269060547478659 -0.52991927123019833 0 0.84804809178421925 0.84804809178421925 0 0.52991927123019833 forward_v I I I I #
coedge $-1 $216 $217 $218 $219 reversed $85 $-1 #
face $-1 $-1 $220 $49 $-1 $221 forward single #
loop $-1 $222 $223 $87 #
cone-surface $-1 -49.47618063061654 -5.1273184045335078 6.8848875985916163 0.52991927123019833 0 -0.84804809178421925 0.21201202294605481 0 0.13247981780754958 1 I I -0.70710678118654746 0.70710678118654746 0.25 forward I I I I #
loop $-1 $-1 $224 $64 #
coedge $-1 $140 $140 $225 $226 reversed $88 $-1 #
face $-1 $-1 $227 $50 $-1 $228 forward single #
loop $-1 $229 $230 $90 #
cone-surface $-1 -49.47618063061654 -2.0509273618134038 6.8848875985916163 0.52991927123019833 0 -0.84804809178421925 0.21201202294605481 0 0.13247981780754958 1 I I -0.70710678118654746 0.70710678118654746 0.25 forward I I I I #
loop $-1 $-1 $231 $65 #
coedge $-1 $145 $145 $232 $233 reversed $91 $-1 #
face $-1 $234 $235 $51 $-1 $236 reversed single #
loop $-1 $-1 $237 $93 #
plane-surface $-1 -111.00635675582956 7.178245766346901 97.730894359825896 0 -1 0 0.52991927123019833 0 -0.84804809178421925 forward_v I I I I #
coedge $-1 $238 $239 $240 $241 reversed $94 $-1 #
face $-1 $-1 $242 $52 $-1 $243 forward single #
loop $-1 $244 $245 $96 #
cone-surface $-1 -49.47618063061654 2.0509273618133967 6.8848875985916163 0.52991927123019833 0 -0.84804809178421925 0.21201202294605481 0 0.13247981780754958 1 I I -0.70710678118654746 0.70710678118654746 0.25 forward I I I I #
loop $-1 $-1 $246 $67 #
coedge $-1 $154 $154 $247 $248 reversed $97 $-1 #
face $-1 $-1 $249 $53 $-1 $250 forward single #
loop $-1 $251 $252 $99 #
cone-surface $-1 -49.47618063061654 5.1273184045335007 6.8848875985916163 0.52991927123019833 0 -0.84804809178421925 0.21201202294605481 0 0.13247981780754958 1 I I -0.70710678118654746 0.70710678118654746 0.25 forward I I I I #
loop $-1 $-1 $253 $68 #
coedge $-1 $159 $159 $254 $255 reversed $100 $-1 #
face $-1 $256 $257 $54 $-1 $258 reversed single #
loop $-1 $-1 $259 $102 #
plane-surface $-1 -37.513183531983145 -3.5891228831734558 63.442458037482538 0.52991927123019833 0 0.84804809178421925 0.84804809178421925 0 -0.52991927123019833 forward_v I I I I #
coedge $-1 $260 $261 $262 $263 reversed $103 $-1 #
face $-1 $-1 $264 $55 $-1 $265 forward single #
loop $-1 $266 $267 $105 #
cone-surface $-1 49.47618063061654 -5.1273184045335078 6.8848875985916234 -0.52991927123019833 0 -0.84804809178421925 0.21201202294605481 0 -0.13247981780754958 1 I I -0.70710678118654746 0.70710678118654746 0.25 forward I I I I #
loop $-1 $-1 $268 $70 #
coedge $-1 $168 $168 $269 $270 reversed $106 $-1 #
face $-1 $-1 $271 $56 $-1 $272 forward single #
loop $-1 $273 $274 $108 #
cone-surface $-1 49.47618063061654 -2.0509273618134038 6.8848875985916234 -0.52991927123019833 0 -0.84804809178421925 0.21201202294605481 0 -0.13247981780754958 1 I I -0.70710678118654746 0.70710678118654746 0.25 forward I I I I #
loop $-1 $-1 $275 $71 #
coedge $-1 $173 $173 $276 $277 reversed $109 $-1 #
face $-1 $278 $279 $57 $-1 $280 forward single #
loop $-1 $-1 $281 $111 #
plane-surface $-1 -37.513183531983145 -3.5891228831734558 63.442458037482538 0.52991927123019833 0 0.84804809178421925 0.84804809178421925 0 -0.52991927123019833 forward_v I I I I #
coedge $-1 $282 $283 $284 $285 reversed $112 $-1 #
face $-1 $-1 $286 $58 $-1 $287 forward single #
loop $-1 $288 $289 $114 #
cone-surface $-1 49.47618063061654 2.0509273618133967 6.8848875985916234 -0.52991927123019833 0 -0.84804809178421925 0.21201202294605481 0 -0.13247981780754958 1 I I -0.70710678118654746 0.70710678118654746 0.25 forward I I I I #
loop $-1 $-1 $290 $73 #
coedge $-1 $182 $182 $291 $292 reversed $115 $-1 #
face $-1 $-1 $293 $59 $-1 $294 forward single #
loop $-1 $295 $296 $117 #
cone-surface $-1 49.47618063061654 5.1273184045335007 6.8848875985916234 -0.52991927123019833 0 -0.84804809178421925 0.21201202294605481 0 -0.13247981780754958 1 I I -0.70710678118654746 0.70710678118654746 0.25 forward I I I I #
loop $-1 $-1 $297 $74 #
coedge $-1 $187 $187 $298 $299 reversed $118 $-1 #
face $-1 $300 $301 $45 $-1 $302 reversed single #
loop $-1 $-1 $303 $120 #
plane-surface $-1 0 -28.124957584864763 0 0 1 0 0 0 1 forward_v I I I I #
coedge $-1 $304 $305 $306 $307 forward $121 $-1 #
coedge $-1 $308 $123 $309 $310 forward $76 $-1 #
coedge $-1 $123 $308 $311 $312 forward $76 $-1 #
coedge $-1 $313 $314 $123 $195 reversed $315 $-1 #
edge $-1 $316 -28.124957584864763 $317 28.124957584864763 $194 $318 forward 7 unknown #
face $-1 $319 $320 $46 $-1 $321 forward single #
loop $-1 $-1 $322 $124 #
plane-surface $-1 -34.702602019195503 -21.459380848510573 0 -1 0 0 0 0 1 forward_v I I I I #
coedge $-1 $323 $324 $325 $326 forward $125 $-1 #
coedge $-1 $327 $127 $328 $329 reversed $79 $-1 #
coedge $-1 $127 $327 $330 $331 reversed $79 $-1 #
coedge $-1 $324 $323 $127 $203 reversed $125 $-1 #
edge $-1 $332 -10.608122525447664 $333 10.608122525447664 $202 $334 forward 7 unknown #
face $-1 $335 $336 $47 $-1 $337 reversed single #
loop $-1 $-1 $338 $128 #
plane-surface $-1 -34.702602019195503 21.459380848510573 0 -1 0 0 0 0 1 forward_v I I I I #
coedge $-1 $339 $340 $341 $342 reversed $129 $-1 #
coedge $-1 $343 $131 $344 $345 reversed $82 $-1 #
coedge $-1 $131 $343 $346 $347 reversed $82 $-1 #
coedge $-1 $340 $339 $131 $211 reversed $129 $-1 #
edge $-1 $348 -10.608122525447664 $349 10.608122525447664 $210 $350 forward 7 unknown #
face $-1 $351 $352 $48 $-1 $353 reversed single #
loop $-1 $-1 $354 $132 #
plane-surface $-1 -111.00635675582956 -3.5527136788005009e-015 97.730894359825896 0 -1 0 0.52991927123019833 0 -0.84804809178421925 forward_v I I I I #
coedge $-1 $355 $356 $357 $358 reversed $133 $-1 #
coedge $-1 $217 $135 $359 $360 reversed $85 $-1 #
coedge $-1 $135 $216 $355 $361 reversed $85 $-1 #
coedge $-1 $357 $362 $135 $219 forward $363 $-1 #
edge $-1 $364 1.6123736048198936 $365 8.4637520233921748 $218 $366 forward 7 unknown #
loop $-1 $-1 $225 $136 #
plane-surface $-1 -53.890804773094885 -3.5891228831734558 6.3269060547478659 -0.52991927123019833 0 0.84804809178421925 0.84804809178421925 0 0.52991927123019833 forward_v I I I I #
loop $-1 $-1 $367 $87 #
coedge $-1 $223 $223 $224 $368 reversed $137 $-1 #
coedge $-1 $224 $224 $223 $368 forward $139 $-1 #
coedge $-1 $225 $225 $140 $226 forward $220 $-1 #
edge $-1 $369 0 $369 6.2831853071796004 $225 $370 forward 7 unknown #
loop $-1 $-1 $232 $141 #
plane-surface $-1 -53.890804773094885 -3.5891228831734558 6.3269060547478659 -0.52991927123019833 0 0.84804809178421925 0.84804809178421925 0 0.52991927123019833 forward_v I I I I #
loop $-1 $-1 $371 $90 #
coedge $-1 $230 $230 $231 $372 reversed $142 $-1 #
coedge $-1 $231 $231 $230 $372 forward $144 $-1 #
coedge $-1 $232 $232 $145 $233 forward $227 $-1 #
edge $-1 $373 0 $373 6.2831853071796004 $232 $374 forward 7 unknown #
face $-1 $375 $376 $51 $-1 $377 forward single #
loop $-1 $-1 $378 $146 #
plane-surface $-1 -53.890804773094885 0 0 1 0 0 0 0 -1 forward_v I I I I #
coedge $-1 $379 $380 $381 $382 reversed $147 $-1 #
coedge $-1 $383 $149 $384 $385 reversed $94 $-1 #
coedge $-1 $149 $383 $386 $387 reversed $94 $-1 #
coedge $-1 $388 $389 $149 $241 forward $376 $-1 #
edge $-1 $390 0 $391 8.0789975060937635 $240 $392 forward 7 unknown #
loop $-1 $-1 $247 $150 #
plane-surface $-1 -53.890804773094885 -3.5891228831734558 6.3269060547478659 -0.52991927123019833 0 0.84804809178421925 0.84804809178421925 0 0.52991927123019833 forward_v I I I I #
loop $-1 $-1 $393 $96 #
coedge $-1 $245 $245 $246 $394 reversed $151 $-1 #
coedge $-1 $246 $246 $245 $394 forward $153 $-1 #
coedge $-1 $247 $247 $154 $248 forward $242 $-1 #
edge $-1 $395 0 $395 6.2831853071796004 $247 $396 forward 7 unknown #
loop $-1 $-1 $254 $155 #
plane-surface $-1 -53.890804773094885 -3.5891228831734558 6.3269060547478659 -0.52991927123019833 0 0.84804809178421925 0.84804809178421925 0 0.52991927123019833 forward_v I I I I #
loop $-1 $-1 $397 $99 #
coedge $-1 $252 $252 $253 $398 reversed $156 $-1 #
coedge $-1 $253 $253 $252 $398 forward $158 $-1 #
coedge $-1 $254 $254 $159 $255 forward $249 $-1 #
edge $-1 $399 0 $399 6.2831853071796004 $254 $400 forward 7 unknown #
face $-1 $401 $402 $54 $-1 $403 forward single #
loop $-1 $-1 $404 $160 #
plane-surface $-1 19.602368450751527 -7.1782457663469081 154.84644634256057 0 1 0 0.52991927123019833 0 0.84804809178421925 forward_v I I I I #
coedge $-1 $405 $406 $407 $408 reversed $161 $-1 #
coedge $-1 $261 $163 $409 $410 reversed $103 $-1 #
coedge $-1 $163 $260 $405 $411 reversed $103 $-1 #
coedge $-1 $407 $412 $163 $263 forward $402 $-1 #
edge $-1 $413 -44.089620547719122 $414 -37.23824212914684 $262 $415 forward 7 unknown #
loop $-1 $-1 $269 $164 #
plane-surface $-1 -37.513183531983145 -3.5891228831734558 63.442458037482538 0.52991927123019833 0 0.84804809178421925 0.84804809178421925 0 -0.52991927123019833 forward_v I I I I #
loop $-1 $-1 $416 $105 #
coedge $-1 $267 $267 $268 $417 reversed $165 $-1 #
coedge $-1 $268 $268 $267 $417 forward $167 $-1 #
coedge $-1 $269 $269 $168 $270 forward $264 $-1 #
edge $-1 $418 0 $418 6.2831853071796004 $269 $419 forward 7 unknown #
loop $-1 $-1 $276 $169 #
plane-surface $-1 -37.513183531983145 -3.5891228831734558 63.442458037482538 0.52991927123019833 0 0.84804809178421925 0.84804809178421925 0 -0.52991927123019833 forward_v I I I I #
loop $-1 $-1 $420 $108 #
coedge $-1 $274 $274 $275 $421 reversed $170 $-1 #
coedge $-1 $275 $275 $274 $421 forward $172 $-1 #
coedge $-1 $276 $276 $173 $277 forward $271 $-1 #
edge $-1 $422 0 $422 6.2831853071796004 $276 $423 forward 7 unknown #
face $-1 $424 $425 $57 $-1 $426 forward single #
loop $-1 $-1 $427 $174 #
plane-surface $-1 0 0 10.608122525447664 0 0 1 1 0 0 forward_v I I I I #
coedge $-1 $428 $429 $430 $431 reversed $175 $-1 #
coedge $-1 $283 $177 $432 $433 reversed $112 $-1 #
coedge $-1 $177 $282 $427 $434 reversed $112 $-1 #
coedge $-1 $435 $436 $177 $285 forward $437 $-1 #
edge $-1 $438 -71.096317116532418 $439 -66.815100645832615 $284 $440 forward 7 unknown #
loop $-1 $-1 $291 $178 #
plane-surface $-1 -37.513183531983145 -3.5891228831734558 63.442458037482538 0.52991927123019833 0 0.84804809178421925 0.84804809178421925 0 -0.52991927123019833 forward_v I I I I #
loop $-1 $-1 $441 $114 #
coedge $-1 $289 $289 $290 $442 reversed $179 $-1 #
coedge $-1 $290 $290 $289 $442 forward $181 $-1 #
coedge $-1 $291 $291 $182 $292 forward $286 $-1 #
edge $-1 $443 0 $443 6.2831853071796004 $291 $444 forward 7 unknown #
loop $-1 $-1 $298 $183 #
plane-surface $-1 -37.513183531983145 -3.5891228831734558 63.442458037482538 0.52991927123019833 0 0.84804809178421925 0.84804809178421925 0 -0.52991927123019833 forward_v I I I I #
loop $-1 $-1 $445 $117 #
coedge $-1 $296 $296 $297 $446 reversed $184 $-1 #
coedge $-1 $297 $297 $296 $446 forward $186 $-1 #
coedge $-1 $298 $298 $187 $299 forward $293 $-1 #
edge $-1 $447 0 $447 6.2831853071796004 $298 $448 forward 7 unknown #
face $-1 $449 $450 $45 $-1 $451 reversed single #
loop $-1 $-1 $452 $188 #
plane-surface $-1 -53.890804773094885 0 0 1 0 0 0 0 -1 forward_v I I I I #
coedge $-1 $453 $311 $454 $455 forward $189 $-1 #
coedge $-1 $456 $191 $453 $457 forward $121 $-1 #
coedge $-1 $191 $456 $458 $459 forward $121 $-1 #
coedge $-1 $314 $313 $191 $307 reversed $315 $-1 #
edge $-1 $460 -28.124957584864763 $461 28.124957584864763 $306 $462 forward 7 unknown #
coedge $-1 $193 $192 $463 $464 forward $76 $-1 #
coedge $-1 $465 $466 $192 $310 reversed $450 $-1 #
edge $-1 $317 -53.890804773094885 $467 53.890804773094885 $309 $468 forward 7 unknown #
coedge $-1 $303 $469 $193 $312 reversed $189 $-1 #
edge $-1 $470 -53.890804773094885 $316 53.890804773094885 $311 $471 forward 7 unknown #
coedge $-1 $306 $194 $469 $472 forward $315 $-1 #
coedge $-1 $194 $306 $465 $473 reversed $315 $-1 #
loop $-1 $-1 $313 $449 #
vertex $-1 $195 $474 #
vertex $-1 $195 $475 #
straight-curve $-1 53.890804773094885 0 10.608122525447664 0 1 0 I I #
face $-1 $476 $477 $46 $-1 $478 reversed single #
loop $-1 $-1 $479 $196 #
plane-surface $-1 0 0 10.608122525447664 0 0 1 1 0 0 forward_v I I I I #
coedge $-1 $480 $481 $482 $483 reversed $197 $-1 #
coedge $-1 $202 $199 $484 $485 reversed $125 $-1 #
coedge $-1 $199 $202 $486 $487 reversed $125 $-1 #
coedge $-1 $481 $480 $199 $326 reversed $197 $-1 #
edge $-1 $488 -10.608122525447664 $489 10.608122525447664 $325 $490 forward 7 unknown #
coedge $-1 $201 $200 $491 $492 reversed $79 $-1 #
coedge $-1 $484 $493 $200 $329 forward $477 $-1 #
edge $-1 $494 -17.395267160609478 $333 -4.0641136879010968 $328 $495 forward 7 unknown #
coedge $-1 $496 $486 $201 $331 forward $320 $-1 #
edge $-1 $332 4.0641136879010968 $497 17.395267160609478 $330 $498 forward 7 unknown #
vertex $-1 $331 $499 #
vertex $-1 $329 $500 #
straight-curve $-1 -37.702602019195503 -14.793804112156383 0 0 0 -1 I I #
face $-1 $501 $502 $47 $-1 $503 forward single #
loop $-1 $-1 $504 $204 #
plane-surface $-1 0 0 -10.608122525447664 0 0 1 1 0 0 forward_v I I I I #
coedge $-1 $505 $506 $343 $507 forward $205 $-1 #
coedge $-1 $210 $207 $508 $509 reversed $129 $-1 #
coedge $-1 $207 $210 $510 $511 reversed $129 $-1 #
coedge $-1 $512 $513 $207 $342 forward $514 $-1 #
edge $-1 $515 -10.608122525447664 $516 10.608122525447664 $341 $517 forward 7 unknown #
coedge $-1 $209 $208 $338 $507 reversed $82 $-1 #
coedge $-1 $508 $504 $208 $345 forward $336 $-1 #
edge $-1 $518 16.601301009597751 $349 19.601301009597751 $344 $519 forward 7 unknown #
coedge $-1 $520 $510 $209 $347 forward $502 $-1 #
edge $-1 $348 -19.601301009597751 $521 -16.601301009597751 $346 $522 forward 7 unknown #
vertex $-1 $347 $523 #
vertex $-1 $345 $524 #
straight-curve $-1 -37.702602019195503 14.793804112156383 0 0 0 -1 I I #
face $-1 $-1 $363 $48 $-1 $525 forward single #
loop $-1 $-1 $526 $212 #
plane-surface $-1 -53.890804773094885 0 0 1 0 0 0 0 -1 forward_v I I I I #
coedge $-1 $527 $528 $529 $530 reversed $213 $-1 #
coedge $-1 $531 $215 $217 $361 forward $133 $-1 #
coedge $-1 $215 $531 $527 $532 forward $133 $-1 #
coedge $-1 $529 $218 $215 $358 forward $363 $-1 #
edge $-1 $365 -5.3836843247601802 $533 1.7945614415867244 $357 $534 forward 7 unknown #
coedge $-1 $535 $536 $216 $360 forward $352 $-1 #
edge $-1 $537 -42.538541125165082 $364 -38.257324654465286 $359 $538 forward 7 unknown #
edge $-1 $365 -8.0789975060937635 $537 0 $217 $539 forward 7 unknown #
coedge $-1 $218 $529 $535 $540 forward $363 $-1 #
loop $-1 $-1 $529 $351 #
vertex $-1 $360 $541 #
vertex $-1 $219 $542 #
straight-curve $-1 -55.503178377914779 -7.1782457663469081 10.608122525447662 1 0 0 I I #
coedge $-1 $367 $367 $-1 $543 reversed $222 $-1 #
edge $-1 $544 0 $544 6.2831853071796004 $223 $545 forward 7 unknown #
vertex $-1 $226 $546 #
ellipse-curve $-1 -50.465115563808737 -5.1273184045335078 8.4675142900977676 -0.52991927123019833 0 0.84804809178421925 0.42402404589210962 0 0.26495963561509916 1 I I #
coedge $-1 $371 $371 $-1 $547 reversed $229 $-1 #
edge $-1 $548 0 $548 6.2831853071796004 $230 $549 forward 7 unknown #
vertex $-1 $233 $550 #
ellipse-curve $-1 -50.465115563808737 -2.0509273618134038 8.4675142900977676 -0.52991927123019833 0 0.84804809178421925 0.42402404589210962 0 0.26495963561509916 1 I I #
face $-1 $-1 $551 $51 $-1 $552 forward single #
loop $-1 $-1 $388 $234 #
plane-surface $-1 -111.00635675582956 -3.5527136788005009e-015 97.730894359825896 0 -1 0 0.52991927123019833 0 -0.84804809178421925 forward_v I I I I #
coedge $-1 $384 $553 $380 $554 forward $235 $-1 #
coedge $-1 $380 $237 $383 $555 reversed $147 $-1 #
coedge $-1 $237 $379 $378 $554 reversed $147 $-1 #
coedge $-1 $556 $386 $237 $382 forward $551 $-1 #
edge $-1 $557 -8.4637520233921748 $558 -1.6123736048198936 $381 $559 forward 7 unknown #
coedge $-1 $239 $238 $379 $555 forward $94 $-1 #
coedge $-1 $560 $378 $238 $385 forward $235 $-1 #
edge $-1 $561 -8.972807207933629 $390 -1.7945614415867244 $384 $562 forward 7 unknown #
coedge $-1 $381 $563 $239 $387 forward $551 $-1 #
edge $-1 $391 1.7945614415867244 $557 8.972807207933629 $386 $564 forward 7 unknown #
coedge $-1 $389 $240 $563 $565 reversed $376 $-1 #
coedge $-1 $240 $388 $560 $566 reversed $376 $-1 #
vertex $-1 $385 $567 #
vertex $-1 $387 $568 #
straight-curve $-1 -53.890804773094885 -3.5527136788005009e-015 6.3269060547478659 0.84804809178421925 0 0.52991927123019833 I I #
coedge $-1 $393 $393 $-1 $569 reversed $244 $-1 #
edge $-1 $570 0 $570 6.2831853071796004 $245 $571 forward 7 unknown #
vertex $-1 $248 $572 #
ellipse-curve $-1 -50.465115563808737 2.0509273618133967 8.4675142900977676 -0.52991927123019833 0 0.84804809178421925 0.42402404589210962 0 0.26495963561509916 1 I I #
coedge $-1 $397 $397 $-1 $573 reversed $251 $-1 #
edge $-1 $574 0 $574 6.2831853071796004 $252 $575 forward 7 unknown #
vertex $-1 $255 $576 #
ellipse-curve $-1 -50.465115563808737 5.1273184045335007 8.4675142900977676 -0.52991927123019833 0 0.84804809178421925 0.42402404589210962 0 0.26495963561509916 1 I I #
face $-1 $-1 $577 $54 $-1 $578 reversed single #
loop $-1 $-1 $262 $256 #
plane-surface $-1 0 0 10.608122525447664 0 0 1 1 0 0 forward_v I I I I #
coedge $-1 $579 $580 $581 $582 reversed $257 $-1 #
coedge $-1 $583 $259 $261 $411 forward $161 $-1 #
coedge $-1 $259 $583 $579 $584 forward $161 $-1 #
coedge $-1 $581 $262 $259 $408 forward $402 $-1 #
edge $-1 $414 -1.7945614415867244 $585 5.3836843247601802 $407 $586 forward 7 unknown #
coedge $-1 $587 $588 $260 $410 forward $577 $-1 #
edge $-1 $589 -71.096317116532418 $413 -66.815100645832615 $409 $590 forward 7 unknown #
edge $-1 $414 99.702612040096028 $589 107.78160954618978 $261 $591 forward 7 unknown #
coedge $-1 $262 $581 $587 $592 forward $402 $-1 #
vertex $-1 $263 $593 #
vertex $-1 $263 $594 #
straight-curve $-1 9.8011842253757635 -3.5527136788005009e-015 10.608122525447669 -1 0 0 I I #
coedge $-1 $416 $416 $-1 $595 reversed $266 $-1 #
edge $-1 $596 0 $596 6.2831853071796004 $267 $597 forward 7 unknown #
vertex $-1 $270 $598 #
ellipse-curve $-1 50.465115563808737 -5.1273184045335078 8.4675142900977658 0.52991927123019833 0 0.84804809178421925 0.42402404589210962 0 -0.26495963561509916 1 I I #
coedge $-1 $420 $420 $-1 $599 reversed $273 $-1 #
edge $-1 $600 0 $600 6.2831853071796004 $274 $601 forward 7 unknown #
vertex $-1 $277 $602 #
ellipse-curve $-1 50.465115563808737 -2.0509273618134038 8.4675142900977658 0.52991927123019833 0 0.84804809178421925 0.42402404589210962 0 -0.26495963561509916 1 I I #
face $-1 $-1 $437 $57 $-1 $603 reversed single #
loop $-1 $-1 $604 $278 #
plane-surface $-1 19.602368450751527 -3.5527136788005009e-015 154.84644634256057 0 -1 0 -0.52991927123019833 0 -0.84804809178421925 forward_v I I I I #
coedge $-1 $605 $606 $283 $434 forward $279 $-1 #
coedge $-1 $432 $281 $605 $607 reversed $175 $-1 #
coedge $-1 $281 $432 $436 $608 reversed $175 $-1 #
coedge $-1 $609 $604 $281 $431 forward $425 $-1 #
edge $-1 $610 99.702612040096028 $611 107.78160954618978 $430 $612 forward 7 unknown #
coedge $-1 $429 $428 $282 $433 forward $175 $-1 #
edge $-1 $613 99.702612040096028 $438 107.78160954618978 $282 $614 forward 7 unknown #
edge $-1 $439 -44.089620547719122 $613 -37.23824212914684 $427 $615 forward 7 unknown #
coedge $-1 $616 $284 $606 $617 reversed $437 $-1 #
coedge $-1 $284 $616 $429 $608 forward $437 $-1 #
loop $-1 $-1 $284 $424 #
vertex $-1 $285 $618 #
vertex $-1 $285 $619 #
straight-curve $-1 53.890804773094885 7.178245766346901 77.423223171280284 0 0 1 I I #
coedge $-1 $441 $441 $-1 $620 reversed $288 $-1 #
edge $-1 $621 0 $621 6.2831853071796004 $289 $622 forward 7 unknown #
vertex $-1 $292 $623 #
ellipse-curve $-1 50.465115563808737 2.0509273618133967 8.4675142900977658 0.52991927123019833 0 0.84804809178421925 0.42402404589210962 0 -0.26495963561509916 1 I I #
coedge $-1 $445 $445 $-1 $624 reversed $295 $-1 #
edge $-1 $625 0 $625 6.2831853071796004 $296 $626 forward 7 unknown #
vertex $-1 $299 $627 #
ellipse-curve $-1 50.465115563808737 5.1273184045335007 8.4675142900977658 0.52991927123019833 0 0.84804809178421925 0.42402404589210962 0 -0.26495963561509916 1 I I #
face $-1 $-1 $315 $45 $-1 $628 reversed single #
loop $-1 $-1 $465 $300 #
plane-surface $-1 0 28.124957584864763 0 0 -1 0 0 0 -1 forward_v I I I I #
coedge $-1 $629 $463 $466 $630 forward $301 $-1 #
coedge $-1 $469 $303 $304 $457 reversed $189 $-1 #
coedge $-1 $463 $629 $303 $455 reversed $301 $-1 #
edge $-1 $470 -10.608122525447664 $631 10.608122525447664 $454 $632 forward 7 unknown #
coedge $-1 $305 $304 $629 $633 forward $121 $-1 #
edge $-1 $461 -53.890804773094885 $631 53.890804773094885 $453 $634 forward 7 unknown #
coedge $-1 $466 $465 $305 $459 reversed $450 $-1 #
edge $-1 $635 -53.890804773094885 $460 53.890804773094885 $458 $636 forward 7 unknown #
vertex $-1 $307 $637 #
vertex $-1 $472 $638 #
straight-curve $-1 53.890804773094885 0 -10.608122525447664 0 -1 0 I I #
coedge $-1 $452 $454 $308 $464 reversed $301 $-1 #
edge $-1 $467 -28.124957584864763 $470 28.124957584864763 $463 $639 forward 7 unknown #
coedge $-1 $458 $309 $314 $473 forward $450 $-1 #
coedge $-1 $309 $458 $452 $630 reversed $450 $-1 #
vertex $-1 $310 $640 #
straight-curve $-1 0 28.124957584864763 10.608122525447664 -1 0 0 I I #
coedge $-1 $311 $453 $313 $472 reversed $189 $-1 #
vertex $-1 $464 $641 #
straight-curve $-1 0 -28.124957584864763 10.608122525447664 1 0 0 I I #
edge $-1 $316 -10.608122525447664 $461 10.608122525447664 $313 $642 forward 7 unknown #
edge $-1 $317 -10.608122525447664 $460 10.608122525447664 $314 $643 forward 7 unknown #
point $-1 53.890804773094885 -28.124957584864763 10.608122525447664 #
point $-1 53.890804773094885 28.124957584864763 10.608122525447664 #
face $-1 $-1 $644 $46 $-1 $645 reversed single #
loop $-1 $-1 $646 $319 #
plane-surface $-1 0 0 -10.608122525447664 0 0 1 1 0 0 forward_v I I I I #
coedge $-1 $486 $496 $481 $647 forward $320 $-1 #
coedge $-1 $325 $322 $646 $648 reversed $197 $-1 #
coedge $-1 $322 $325 $479 $647 reversed $197 $-1 #
coedge $-1 $649 $650 $322 $483 forward $644 $-1 #
edge $-1 $651 -10.608122525447664 $652 10.608122525447664 $482 $653 forward 7 unknown #
coedge $-1 $646 $328 $323 $485 forward $477 $-1 #
edge $-1 $333 -19.601301009597751 $489 -16.601301009597751 $484 $654 forward 7 unknown #
coedge $-1 $330 $479 $324 $487 forward $320 $-1 #
edge $-1 $488 16.601301009597751 $332 19.601301009597751 $486 $655 forward 7 unknown #
vertex $-1 $487 $656 #
vertex $-1 $485 $657 #
straight-curve $-1 -34.702602019195503 -14.793804112156383 0 0 0 -1 I I #
coedge $-1 $650 $649 $327 $492 forward $644 $-1 #
edge $-1 $497 -10.608122525447664 $494 10.608122525447664 $491 $658 forward 7 unknown #
coedge $-1 $328 $646 $650 $659 forward $477 $-1 #
vertex $-1 $329 $660 #
straight-curve $-1 -37.702602019195503 -10.729690424255287 -10.608122525447664 0 1 0 I I #
coedge $-1 $479 $330 $649 $661 forward $320 $-1 #
vertex $-1 $661 $662 #
straight-curve $-1 -37.702602019195503 -10.729690424255287 10.608122525447664 0 -1 0 I I #
point $-1 -37.702602019195503 -14.793804112156383 10.608122525447664 #
point $-1 -37.702602019195503 -14.793804112156383 -10.608122525447664 #
face $-1 $-1 $514 $47 $-1 $663 reversed single #
loop $-1 $-1 $520 $335 #
plane-surface $-1 0 0 10.608122525447664 0 0 1 1 0 0 forward_v I I I I #
coedge $-1 $344 $664 $505 $665 forward $336 $-1 #
coedge $-1 $666 $338 $504 $665 reversed $205 $-1 #
coedge $-1 $338 $666 $520 $667 reversed $205 $-1 #
edge $-1 $521 -10.608122525447664 $518 10.608122525447664 $338 $668 forward 7 unknown #
coedge $-1 $664 $344 $339 $509 forward $336 $-1 #
edge $-1 $349 4.0641136879010968 $515 17.395267160609478 $508 $669 forward 7 unknown #
coedge $-1 $346 $670 $340 $511 forward $502 $-1 #
edge $-1 $516 -17.395267160609478 $348 -4.0641136879010968 $510 $671 forward 7 unknown #
coedge $-1 $672 $341 $670 $673 reversed $514 $-1 #
coedge $-1 $341 $672 $664 $674 reversed $514 $-1 #
loop $-1 $-1 $672 $501 #
vertex $-1 $674 $675 #
vertex $-1 $342 $676 #
straight-curve $-1 -37.702602019195503 28.124957584864763 0 0 0 1 I I #
vertex $-1 $345 $677 #
straight-curve $-1 -18.101301009597751 14.793804112156383 -10.608122525447664 -1 0 0 I I #
coedge $-1 $670 $346 $506 $667 forward $502 $-1 #
vertex $-1 $347 $678 #
straight-curve $-1 -18.101301009597751 14.793804112156383 10.608122525447664 1 0 0 I I #
point $-1 -37.702602019195503 14.793804112156383 10.608122525447664 #
point $-1 -37.702602019195503 14.793804112156383 -10.608122525447664 #
plane-surface $-1 0 0 10.608122525447664 0 0 1 1 0 0 forward_v I I I I #
coedge $-1 $536 $535 $528 $679 forward $352 $-1 #
coedge $-1 $528 $354 $356 $532 reversed $213 $-1 #
coedge $-1 $354 $527 $526 $679 reversed $213 $-1 #
coedge $-1 $362 $357 $354 $530 forward $363 $-1 #
edge $-1 $533 -8.4637520233921748 $680 -1.6123736048198936 $529 $681 forward 7 unknown #
coedge $-1 $356 $355 $536 $682 reversed $133 $-1 #
edge $-1 $683 0 $533 8.0789975060937635 $527 $684 forward 7 unknown #
vertex $-1 $358 $685 #
straight-curve $-1 -47.039426354522597 -1.7945614415867279 10.608122525447664 0 1 0 I I #
coedge $-1 $526 $359 $362 $540 reversed $352 $-1 #
coedge $-1 $359 $526 $531 $682 forward $352 $-1 #
vertex $-1 $360 $686 #
straight-curve $-1 -53.890804773094885 -7.1782457663469081 48.865447179912948 0 0 1 I I #
straight-curve $-1 -53.890804773094885 -7.1782457663469081 6.3269060547478659 -0.84804809178421925 0 -0.52991927123019833 I I #
edge $-1 $680 3.5527136788005009e-015 $364 7.1782457663469081 $535 $687 forward 7 unknown #
point $-1 -53.890804773094885 -7.1782457663469081 10.608122525447664 #
point $-1 -47.039426354522604 -7.1782457663469081 10.608122525447664 #
edge $-1 $688 1 $688 0 $367 $-1 forward 7 unknown #
vertex $-1 $368 $689 #
ellipse-curve $-1 -49.608660448424089 -5.1273184045335078 7.0968996215376707 -0.52991927123019833 0 0.84804809178421925 0.42402404589210962 0 0.26495963561509916 1 I I #
point $-1 -50.041091517916627 -5.1273184045335078 8.7324739257128652 #
edge $-1 $690 1 $690 0 $371 $-1 forward 7 unknown #
vertex $-1 $372 $691 #
ellipse-curve $-1 -49.608660448424089 -2.0509273618134038 7.0968996215376707 -0.52991927123019833 0 0.84804809178421925 0.42402404589210962 0 0.26495963561509916 1 I I #
point $-1 -50.041091517916627 -2.0509273618134038 8.7324739257128652 #
loop $-1 $-1 $381 $375 #
plane-surface $-1 0 0 10.608122525447664 0 0 1 1 0 0 forward_v I I I I #
coedge $-1 $378 $560 $556 $692 reversed $235 $-1 #
edge $-1 $558 38.257324654465286 $561 42.538541125165082 $378 $693 forward 7 unknown #
edge $-1 $561 0 $557 8.0789975060937635 $379 $694 forward 7 unknown #
coedge $-1 $563 $381 $553 $692 forward $551 $-1 #
vertex $-1 $382 $695 #
vertex $-1 $692 $696 #
straight-curve $-1 -55.503178377914779 7.178245766346901 10.608122525447662 -1 0 0 I I #
coedge $-1 $553 $384 $389 $566 forward $235 $-1 #
vertex $-1 $554 $697 #
straight-curve $-1 -53.890804773094885 -1.7945614415867279 6.3269060547478642 0 -1 0 I I #
coedge $-1 $386 $556 $388 $565 forward $551 $-1 #
straight-curve $-1 -47.039426354522597 -1.7945614415867279 10.608122525447664 0 1 0 I I #
edge $-1 $698 1.6123736048198936 $391 8.4637520233921748 $563 $699 forward 7 unknown #
edge $-1 $390 -42.538541125165082 $698 -38.257324654465286 $560 $700 forward 7 unknown #
point $-1 -53.890804773094885 -3.5527136788005009e-015 6.3269060547478659 #
point $-1 -47.039426354522604 -3.5527136788005009e-015 10.608122525447664 #
edge $-1 $701 1 $701 0 $393 $-1 forward 7 unknown #
vertex $-1 $394 $702 #
ellipse-curve $-1 -49.608660448424089 2.0509273618133967 7.0968996215376707 -0.52991927123019833 0 0.84804809178421925 0.42402404589210962 0 0.26495963561509916 1 I I #
point $-1 -50.041091517916627 2.0509273618133967 8.7324739257128652 #
edge $-1 $703 1 $703 0 $397 $-1 forward 7 unknown #
vertex $-1 $398 $704 #
ellipse-curve $-1 -49.608660448424089 5.1273184045335007 7.0968996215376707 -0.52991927123019833 0 0.84804809178421925 0.42402404589210962 0 0.26495963561509916 1 I I #
point $-1 -50.041091517916627 5.1273184045335007 8.7324739257128652 #
loop $-1 $-1 $409 $401 #
plane-surface $-1 53.890804773094885 0 0 -1 0 0 0 0 1 forward_v I I I I #
coedge $-1 $580 $404 $406 $584 reversed $257 $-1 #
coedge $-1 $404 $579 $705 $706 reversed $257 $-1 #
coedge $-1 $412 $407 $404 $582 forward $402 $-1 #
edge $-1 $585 37.23824212914684 $707 44.089620547719122 $581 $708 forward 7 unknown #
coedge $-1 $406 $405 $588 $709 reversed $161 $-1 #
edge $-1 $710 -107.78160954618978 $585 -99.702612040096028 $579 $711 forward 7 unknown #
vertex $-1 $408 $712 #
straight-curve $-1 47.039426354522597 -1.7945614415867279 10.608122525447662 0 -1 0 I I #
coedge $-1 $705 $409 $412 $592 reversed $577 $-1 #
coedge $-1 $409 $705 $583 $709 forward $577 $-1 #
vertex $-1 $410 $713 #
straight-curve $-1 53.890804773094885 -3.5527136788005009e-015 77.423223171280284 0 0 1 I I #
straight-curve $-1 -37.513183531983145 -3.5527136788005009e-015 63.442458037482538 0.84804809178421925 0 -0.52991927123019833 I I #
edge $-1 $707 -7.1782457663469081 $413 -3.5527136788005009e-015 $587 $714 forward 7 unknown #
point $-1 53.890804773094885 -3.5527136788005009e-015 10.608122525447664 #
point $-1 47.039426354522604 -3.5527136788005009e-015 10.608122525447662 #
edge $-1 $715 1 $715 0 $416 $-1 forward 7 unknown #
vertex $-1 $417 $716 #
ellipse-curve $-1 49.608660448424089 -5.1273184045335078 7.0968996215376778 0.52991927123019833 0 0.84804809178421925 0.42402404589210962 0 -0.26495963561509916 1 I I #
point $-1 50.889139609700848 -5.1273184045335078 8.2025546544826735 #
edge $-1 $717 1 $717 0 $420 $-1 forward 7 unknown #
vertex $-1 $421 $718 #
ellipse-curve $-1 49.608660448424089 -2.0509273618134038 7.0968996215376778 0.52991927123019833 0 0.84804809178421925 0.42402404589210962 0 -0.26495963561509916 1 I I #
point $-1 50.889139609700848 -2.0509273618134038 8.2025546544826735 #
plane-surface $-1 53.890804773094885 0 0 -1 0 0 0 0 1 forward_v I I I I #
coedge $-1 $430 $609 $719 $720 reversed $425 $-1 #
coedge $-1 $719 $427 $428 $607 forward $279 $-1 #
coedge $-1 $427 $719 $435 $617 forward $279 $-1 #
edge $-1 $613 -8.972807207933629 $610 -1.7945614415867244 $605 $721 forward 7 unknown #
edge $-1 $611 1.7945614415867244 $438 8.972807207933629 $436 $722 forward 7 unknown #
coedge $-1 $604 $430 $616 $723 reversed $425 $-1 #
vertex $-1 $607 $724 #
vertex $-1 $608 $725 #
straight-curve $-1 -37.513183531983145 -3.5527136788005009e-015 63.442458037482538 0.84804809178421925 0 -0.52991927123019833 I I #
vertex $-1 $434 $726 #
straight-curve $-1 -37.513183531983145 7.178245766346901 63.442458037482538 0.84804809178421925 0 -0.52991927123019833 I I #
straight-curve $-1 9.8011842253757635 7.178245766346901 10.608122525447669 -1 0 0 I I #
coedge $-1 $436 $435 $609 $723 forward $437 $-1 #
edge $-1 $727 -3.5527136788005009e-015 $439 7.178245766346901 $435 $728 forward 7 unknown #
point $-1 53.890804773094885 7.178245766346901 6.3269060547478588 #
point $-1 53.890804773094885 7.178245766346901 10.608122525447664 #
edge $-1 $729 1 $729 0 $441 $-1 forward 7 unknown #
vertex $-1 $442 $730 #
ellipse-curve $-1 49.608660448424089 2.0509273618133967 7.0968996215376778 0.52991927123019833 0 0.84804809178421925 0.42402404589210962 0 -0.26495963561509916 1 I I #
point $-1 50.889139609700848 2.0509273618133967 8.2025546544826735 #
edge $-1 $731 1 $731 0 $445 $-1 forward 7 unknown #
vertex $-1 $446 $732 #
ellipse-curve $-1 49.608660448424089 5.1273184045335007 7.0968996215376778 0.52991927123019833 0 0.84804809178421925 0.42402404589210962 0 -0.26495963561509916 1 I I #
point $-1 50.889139609700848 5.1273184045335007 8.2025546544826735 #
plane-surface $-1 53.890804773094885 0 0 -1 0 0 0 0 1 forward_v I I I I #
coedge $-1 $454 $452 $456 $633 reversed $301 $-1 #
edge $-1 $467 -10.608122525447664 $635 10.608122525447664 $466 $733 forward 7 unknown #
vertex $-1 $633 $734 #
straight-curve $-1 -53.890804773094885 -28.124957584864763 0 0 0 -1 I I #
edge $-1 $631 -28.124957584864763 $635 28.124957584864763 $629 $735 forward 7 unknown #
straight-curve $-1 0 -28.124957584864763 -10.608122525447664 -1 0 0 I I #
vertex $-1 $459 $736 #
straight-curve $-1 0 28.124957584864763 -10.608122525447664 1 0 0 I I #
point $-1 53.890804773094885 28.124957584864763 -10.608122525447664 #
point $-1 53.890804773094885 -28.124957584864763 -10.608122525447664 #
straight-curve $-1 -53.890804773094885 0 10.608122525447664 0 -1 0 I I #
point $-1 -53.890804773094885 28.124957584864763 10.608122525447664 #
point $-1 -53.890804773094885 -28.124957584864763 10.608122525447664 #
straight-curve $-1 53.890804773094885 -28.124957584864763 0 0 0 -1 I I #
straight-curve $-1 53.890804773094885 28.124957584864763 0 0 0 -1 I I #
loop $-1 $-1 $482 $476 #
plane-surface $-1 0 -28.124957584864763 0 0 1 0 0 0 1 forward_v I I I I #
coedge $-1 $493 $484 $480 $648 forward $477 $-1 #
edge $-1 $652 -17.395267160609478 $488 -4.0641136879010968 $479 $737 forward 7 unknown #
edge $-1 $489 4.0641136879010968 $651 17.395267160609478 $646 $738 forward 7 unknown #
coedge $-1 $491 $482 $496 $661 reversed $644 $-1 #
coedge $-1 $482 $491 $493 $659 reversed $644 $-1 #
vertex $-1 $659 $739 #
vertex $-1 $483 $740 #
straight-curve $-1 -34.702602019195503 -28.124957584864763 0 0 0 1 I I #
straight-curve $-1 -18.101301009597751 -14.793804112156383 -10.608122525447664 1 0 0 I I #
straight-curve $-1 -18.101301009597751 -14.793804112156383 10.608122525447664 -1 0 0 I I #
point $-1 -34.702602019195503 -14.793804112156383 10.608122525447664 #
point $-1 -34.702602019195503 -14.793804112156383 -10.608122525447664 #
straight-curve $-1 -37.702602019195503 -28.124957584864763 0 0 0 -1 I I #
edge $-1 $651 34.702602019195503 $494 37.702602019195503 $650 $741 forward 7 unknown #
point $-1 -37.702602019195503 -28.124957584864763 -10.608122525447664 #
edge $-1 $497 -37.702602019195503 $652 -34.702602019195503 $649 $742 forward 7 unknown #
point $-1 -37.702602019195503 -28.124957584864763 10.608122525447664 #
plane-surface $-1 0 28.124957584864763 0 0 -1 0 0 0 -1 forward_v I I I I #
coedge $-1 $504 $508 $513 $674 forward $336 $-1 #
edge $-1 $743 -17.395267160609478 $518 -4.0641136879010968 $504 $744 forward 7 unknown #
coedge $-1 $506 $505 $672 $745 reversed $205 $-1 #
edge $-1 $521 4.0641136879010968 $746 17.395267160609478 $520 $747 forward 7 unknown #
straight-curve $-1 -34.702602019195503 14.793804112156383 0 0 0 -1 I I #
straight-curve $-1 -37.702602019195503 10.729690424255287 -10.608122525447664 0 1 0 I I #
coedge $-1 $510 $520 $512 $673 forward $502 $-1 #
straight-curve $-1 -37.702602019195503 10.729690424255287 10.608122525447664 0 -1 0 I I #
coedge $-1 $513 $512 $666 $745 forward $514 $-1 #
edge $-1 $746 34.702602019195503 $516 37.702602019195503 $512 $748 forward 7 unknown #
edge $-1 $515 -37.702602019195503 $743 -34.702602019195503 $513 $749 forward 7 unknown #
point $-1 -37.702602019195503 28.124957584864763 -10.608122525447664 #
point $-1 -37.702602019195503 28.124957584864763 10.608122525447664 #
point $-1 -34.702602019195503 14.793804112156383 -10.608122525447664 #
point $-1 -34.702602019195503 14.793804112156383 10.608122525447664 #
edge $-1 $680 38.257324654465286 $683 42.538541125165082 $526 $750 forward 7 unknown #
vertex $-1 $540 $751 #
straight-curve $-1 -55.503178377914779 -3.5527136788005009e-015 10.608122525447662 -1 0 0 I I #
edge $-1 $683 -1.7945614415867244 $537 5.3836843247601802 $536 $752 forward 7 unknown #
vertex $-1 $682 $753 #
straight-curve $-1 -53.890804773094885 -3.5527136788005009e-015 6.3269060547478659 0.84804809178421925 0 0.52991927123019833 I I #
point $-1 -47.039426354522604 -3.5527136788005009e-015 10.608122525447664 #
point $-1 -53.890804773094885 -7.1782457663469081 6.3269060547478659 #
straight-curve $-1 -53.890804773094885 0 10.608122525447664 0 -1 0 I I #
vertex $-1 $543 $754 #
point $-1 -49.184636402531979 -5.1273184045335078 7.3618592571527701 #
vertex $-1 $547 $755 #
point $-1 -49.184636402531979 -2.0509273618134038 7.3618592571527701 #
edge $-1 $558 -7.178245766346901 $698 3.5527136788005009e-015 $553 $756 forward 7 unknown #
straight-curve $-1 -53.890804773094885 7.178245766346901 48.865447179912948 0 0 -1 I I #
straight-curve $-1 -53.890804773094885 7.178245766346901 6.3269060547478659 0.84804809178421925 0 0.52991927123019833 I I #
point $-1 -47.039426354522604 7.178245766346901 10.608122525447664 #
point $-1 -53.890804773094885 7.178245766346901 10.608122525447664 #
point $-1 -53.890804773094885 7.178245766346901 6.3269060547478659 #
vertex $-1 $566 $757 #
straight-curve $-1 -55.503178377914779 -3.5527136788005009e-015 10.608122525447662 1 0 0 I I #
straight-curve $-1 -53.890804773094885 -3.5527136788005009e-015 48.865447179912948 0 0 1 I I #
vertex $-1 $569 $758 #
point $-1 -49.184636402531979 2.0509273618133967 7.3618592571527701 #
vertex $-1 $573 $759 #
point $-1 -49.184636402531979 5.1273184045335007 7.3618592571527701 #
coedge $-1 $588 $587 $580 $706 forward $577 $-1 #
edge $-1 $707 66.815100645832615 $710 71.096317116532418 $705 $760 forward 7 unknown #
vertex $-1 $592 $761 #
straight-curve $-1 9.8011842253757635 -7.1782457663469081 10.608122525447669 1 0 0 I I #
edge $-1 $710 -5.3836843247601802 $589 1.7945614415867244 $588 $762 forward 7 unknown #
vertex $-1 $709 $763 #
straight-curve $-1 -37.513183531983145 -7.1782457663469081 63.442458037482538 -0.84804809178421925 0 0.52991927123019833 I I #
point $-1 47.039426354522604 -7.1782457663469081 10.608122525447662 #
point $-1 53.890804773094885 -3.5527136788005009e-015 6.3269060547478588 #
straight-curve $-1 53.890804773094885 0 10.608122525447664 0 1 0 I I #
vertex $-1 $595 $764 #
point $-1 50.0326844943162 -5.1273184045335078 6.8319399859225793 #
vertex $-1 $599 $765 #
point $-1 50.0326844943162 -2.0509273618134038 6.8319399859225793 #
coedge $-1 $606 $605 $604 $720 forward $279 $-1 #
edge $-1 $610 37.23824212914684 $727 44.089620547719122 $719 $766 forward 7 unknown #
straight-curve $-1 47.039426354522597 -1.7945614415867279 10.608122525447662 0 -1 0 I I #
straight-curve $-1 53.890804773094899 -1.7945614415867279 6.3269060547478588 0 1 0 I I #
edge $-1 $727 66.815100645832615 $611 71.096317116532418 $616 $767 forward 7 unknown #
point $-1 47.039426354522604 -3.5527136788005009e-015 10.608122525447662 #
point $-1 53.890804773094885 -3.5527136788005009e-015 6.3269060547478588 #
point $-1 47.039426354522604 7.178245766346901 10.608122525447662 #
vertex $-1 $617 $768 #
straight-curve $-1 53.890804773094885 0 10.608122525447664 0 1 0 I I #
vertex $-1 $620 $769 #
point $-1 50.0326844943162 2.0509273618133967 6.8319399859225793 #
vertex $-1 $624 $770 #
point $-1 50.0326844943162 5.1273184045335007 6.8319399859225793 #
straight-curve $-1 -53.890804773094885 28.124957584864763 0 0 0 -1 I I #
point $-1 -53.890804773094885 -28.124957584864763 -10.608122525447664 #
straight-curve $-1 -53.890804773094885 0 -10.608122525447664 0 1 0 I I #
point $-1 -53.890804773094885 28.124957584864763 -10.608122525447664 #
straight-curve $-1 -34.702602019195503 -10.729690424255287 10.608122525447664 0 1 0 I I #
straight-curve $-1 -34.702602019195503 -10.729690424255287 -10.608122525447664 0 -1 0 I I #
point $-1 -34.702602019195503 -28.124957584864763 -10.608122525447664 #
point $-1 -34.702602019195503 -28.124957584864763 10.608122525447664 #
straight-curve $-1 0 -28.124957584864763 -10.608122525447664 -1 0 0 I I #
straight-curve $-1 0 -28.124957584864763 10.608122525447664 1 0 0 I I #
vertex $-1 $745 $771 #
straight-curve $-1 -34.702602019195503 10.729690424255287 -10.608122525447664 0 -1 0 I I #
edge $-1 $746 -10.608122525447664 $743 10.608122525447664 $672 $772 forward 7 unknown #
vertex $-1 $673 $773 #
straight-curve $-1 -34.702602019195503 10.729690424255287 10.608122525447664 0 1 0 I I #
straight-curve $-1 0 28.124957584864763 10.608122525447664 -1 0 0 I I #
straight-curve $-1 0 28.124957584864763 -10.608122525447664 1 0 0 I I #
straight-curve $-1 -53.890804773094885 -3.5527136788005009e-015 48.865447179912948 0 0 -1 I I #
point $-1 -53.890804773094885 -3.5527136788005009e-015 10.608122525447664 #
straight-curve $-1 -53.890804773094885 -1.7945614415867279 6.3269060547478642 0 -1 0 I I #
point $-1 -53.890804773094885 -3.5527136788005009e-015 6.3269060547478659 #
point $-1 -49.34370081280899 -5.1273184045335078 6.6728755756455618 #
point $-1 -49.34370081280899 -2.0509273618134038 6.6728755756455618 #
straight-curve $-1 -53.890804773094885 0 10.608122525447664 0 -1 0 I I #
point $-1 -53.890804773094885 -3.5527136788005009e-015 10.608122525447664 #
point $-1 -49.34370081280899 2.0509273618133967 6.6728755756455618 #
point $-1 -49.34370081280899 5.1273184045335007 6.6728755756455618 #
straight-curve $-1 53.890804773094885 -7.1782457663469081 77.423223171280284 0 0 -1 I I #
point $-1 53.890804773094885 -7.1782457663469081 10.608122525447664 #
straight-curve $-1 53.890804773094899 -1.7945614415867279 6.3269060547478588 0 1 0 I I #
point $-1 53.890804773094885 -7.1782457663469081 6.3269060547478588 #
point $-1 49.34370081280899 -5.1273184045335078 6.6728755756455689 #
point $-1 49.34370081280899 -2.0509273618134038 6.6728755756455689 #
straight-curve $-1 9.8011842253757635 -3.5527136788005009e-015 10.608122525447669 1 0 0 I I #
straight-curve $-1 53.890804773094885 -3.5527136788005009e-015 77.423223171280284 0 0 -1 I I #
point $-1 53.890804773094885 -3.5527136788005009e-015 10.608122525447664 #
point $-1 49.34370081280899 2.0509273618133967 6.6728755756455689 #
point $-1 49.34370081280899 5.1273184045335007 6.6728755756455689 #
point $-1 -34.702602019195503 28.124957584864763 -10.608122525447664 #
straight-curve $-1 -34.702602019195503 28.124957584864763 0 0 0 -1 I I #
point $-1 -34.702602019195503 28.124957584864763 10.608122525447664 #
End-of-ACIS-data 