500 0 14 0           
7 Unknown 11 ACIS 5.0 NT 24 Fri Mar 26 00:55:10 1999 
-1 9.9999999999999995e-007 1e-010 
body $-1 $14 $-1 $15 #
body $-1 $16 $-1 $17 #
body $-1 $18 $-1 $19 #
body $-1 $20 $-1 $21 #
body $-1 $22 $-1 $23 #
body $-1 $24 $-1 $25 #
body $-1 $26 $-1 $27 #
body $-1 $28 $-1 $29 #
body $-1 $30 $-1 $31 #
body $-1 $32 $-1 $33 #
body $-1 $34 $-1 $35 #
body $-1 $36 $-1 $37 #
body $-1 $38 $-1 $39 #
body $-1 $40 $-1 $41 #
lump $-1 $-1 $42 $0 #
transform $-1 1 0 0 0 1 0 0 0 1 65.963927121799372 28.593561670802625 8.1546670265048196 1 rotate no_reflect no_shear #
lump $-1 $-1 $43 $1 #
transform $-1 1 0 0 0 1 0 0 0 1 65.963927121799372 28.593561670802625 8.1546670265048196 1 rotate no_reflect no_shear #
lump $-1 $-1 $44 $2 #
transform $-1 1 0 0 0 1 0 0 0 1 65.963927121799372 28.593561670802625 8.1546670265048196 1 rotate no_reflect no_shear #
lump $-1 $-1 $45 $3 #
transform $-1 1 0 0 0 1 0 0 0 1 65.963927121799372 28.593561670802625 8.1546670265048196 1 rotate no_reflect no_shear #
lump $-1 $-1 $46 $4 #
transform $-1 1 0 0 0 1 0 0 0 1 65.963927121799372 28.593561670802625 8.1546670265048196 1 rotate no_reflect no_shear #
lump $-1 $-1 $47 $5 #
transform $-1 1 0 0 0 1 0 0 0 1 65.963927121799372 28.593561670802625 8.1546670265048196 1 rotate no_reflect no_shear #
lump $-1 $-1 $48 $6 #
transform $-1 1 0 0 0 1 0 0 0 1 65.963927121799372 28.593561670802625 8.1546670265048196 1 rotate no_reflect no_shear #
lump $-1 $-1 $49 $7 #
transform $-1 1 0 0 0 1 0 0 0 1 65.963927121799372 28.593561670802625 8.1546670265048196 1 rotate no_reflect no_shear #
lump $-1 $-1 $50 $8 #
transform $-1 1 0 0 0 1 0 0 0 1 65.963927121799372 28.593561670802625 8.1546670265048196 1 rotate no_reflect no_shear #
lump $-1 $-1 $51 $9 #
transform $-1 1 0 0 0 1 0 0 0 1 65.963927121799372 28.593561670802625 8.1546670265048196 1 rotate no_reflect no_shear #
lump $-1 $-1 $52 $10 #
transform $-1 1 0 0 0 1 0 0 0 1 65.963927121799372 28.593561670802625 8.1546670265048196 1 rotate no_reflect no_shear #
lump $-1 $-1 $53 $11 #
transform $-1 1 0 0 0 1 0 0 0 1 65.963927121799372 28.593561670802625 8.1546670265048196 1 rotate no_reflect no_shear #
lump $-1 $-1 $54 $12 #
transform $-1 1 0 0 0 1 0 0 0 1 65.963927121799372 28.593561670802625 8.1546670265048196 1 rotate no_reflect no_shear #
lump $-1 $-1 $55 $13 #
transform $-1 1 0 0 0 1 0 0 0 1 65.963927121799372 28.593561670802625 8.1546670265048196 1 rotate no_reflect no_shear #
shell $-1 $-1 $-1 $56 $-1 $14 #
shell $-1 $-1 $-1 $57 $-1 $16 #
shell $-1 $-1 $-1 $58 $-1 $18 #
shell $-1 $-1 $-1 $59 $-1 $20 #
shell $-1 $-1 $-1 $60 $-1 $22 #
shell $-1 $-1 $-1 $61 $-1 $24 #
shell $-1 $-1 $-1 $62 $-1 $26 #
shell $-1 $-1 $-1 $63 $-1 $28 #
shell $-1 $-1 $-1 $64 $-1 $30 #
shell $-1 $-1 $-1 $65 $-1 $32 #
shell $-1 $-1 $-1 $66 $-1 $34 #
shell $-1 $-1 $-1 $67 $-1 $36 #
shell $-1 $-1 $-1 $68 $-1 $38 #
shell $-1 $-1 $-1 $69 $-1 $40 #
face $-1 $70 $71 $42 $-1 $72 forward single #
face $-1 $73 $74 $43 $-1 $75 reversed single #
face $-1 $76 $77 $44 $-1 $78 reversed single #
face $-1 $79 $80 $45 $-1 $81 forward single #
face $-1 $82 $83 $46 $-1 $84 forward single #
face $-1 $85 $86 $47 $-1 $87 reversed single #
face $-1 $88 $89 $48 $-1 $90 forward single #
face $-1 $91 $92 $49 $-1 $93 forward single #
face $-1 $94 $95 $50 $-1 $96 reversed single #
face $-1 $97 $98 $51 $-1 $99 forward single #
face $-1 $100 $101 $52 $-1 $102 forward single #
face $-1 $103 $104 $53 $-1 $105 reversed single #
face $-1 $106 $107 $54 $-1 $108 forward single #
face $-1 $109 $110 $55 $-1 $111 forward single #
face $-1 $112 $113 $42 $-1 $114 reversed single #
loop $-1 $-1 $115 $56 #
plane-surface $-1 0 0 8.1546670265048196 0 0 1 1 0 0 forward_v I I I I #
face $-1 $116 $117 $43 $-1 $118 reversed single #
loop $-1 $-1 $119 $57 #
plane-surface $-1 -53.297676315171564 -24.512447848332631 0 1 0 0 0 0 -1 forward_v I I I I #
face $-1 $120 $121 $44 $-1 $122 reversed single #
loop $-1 $-1 $123 $58 #
plane-surface $-1 27.172979455119247 -14.102169621270736 187.18719046567512 0 -1 0 -0.54463904215088732 0 -0.83867056331134215 forward_v I I I I #
face $-1 $124 $125 $45 $-1 $126 forward single #
loop $-1 $127 $128 $59 #
cone-surface $-1 62.787887389827311 -18.623001338836378 5.6392588793472438 -0.54463904215088732 0 -0.83867056331134215 0.41933528165567108 0 -0.27231952107544366 1 I I 0 1 0.5 forward I I I I #
face $-1 $129 $130 $46 $-1 $131 forward single #
loop $-1 $132 $133 $60 #
cone-surface $-1 62.787887389827311 -15.910502308296993 5.6392588793472438 -0.54463904215088732 0 -0.83867056331134215 0.41933528165567108 0 -0.27231952107544366 1 I I 0 1 0.5 forward I I I I #
face $-1 $134 $135 $47 $-1 $136 reversed single #
loop $-1 $-1 $137 $61 #
plane-surface $-1 27.172979455119247 22.264397266210722 187.18719046567512 0 1 0 0.54463904215088732 0 0.83867056331134215 forward_v I I I I #
face $-1 $138 $139 $48 $-1 $140 forward single #
loop $-1 $141 $142 $62 #
cone-surface $-1 62.787887389827311 24.072729953236983 5.6392588793472438 -0.54463904215088732 0 -0.83867056331134215 0.41933528165567108 0 -0.27231952107544366 1 I I 0 1 0.5 forward I I I I #
face $-1 $143 $144 $49 $-1 $145 forward single #
loop $-1 $146 $147 $63 #
cone-surface $-1 62.787887389827311 26.785228983776367 5.6392588793472438 -0.54463904215088732 0 -0.83867056331134215 0.41933528165567108 0 -0.27231952107544366 1 I I 0 1 0.5 forward I I I I #
face $-1 $148 $149 $50 $-1 $150 reversed single #
loop $-1 $-1 $151 $64 #
plane-surface $-1 -137.81698729005487 -20.431334025862636 115.33413029741963 0 1 0 -0.54463904215088732 0 0.83867056331134215 forward_v I I I I #
face $-1 $152 $153 $51 $-1 $154 forward single #
loop $-1 $155 $156 $65 #
cone-surface $-1 -62.787887389827311 -18.623001338836378 5.6392588793472438 0.54463904215088732 0 -0.83867056331134215 0.41933528165567108 0 0.27231952107544366 1 I I 0 1 0.5 forward I I I I #
face $-1 $157 $158 $52 $-1 $159 forward single #
loop $-1 $160 $161 $66 #
cone-surface $-1 -62.787887389827311 -15.910502308296993 5.6392588793472438 0.54463904215088732 0 -0.83867056331134215 0.41933528165567108 0 0.27231952107544366 1 I I 0 1 0.5 forward I I I I #
face $-1 $162 $163 $53 $-1 $164 reversed single #
loop $-1 $-1 $165 $67 #
plane-surface $-1 -137.81698729005487 22.264397266210722 115.33413029741963 0 1 0 -0.54463904215088732 0 0.83867056331134215 forward_v I I I I #
face $-1 $166 $167 $54 $-1 $168 forward single #
loop $-1 $169 $170 $68 #
cone-surface $-1 -62.787887389827311 24.072729953236983 5.6392588793472438 0.54463904215088732 0 -0.83867056331134215 0.41933528165567108 0 0.27231952107544366 1 I I 0 1 0.5 forward I I I I #
face $-1 $171 $172 $55 $-1 $173 forward single #
loop $-1 $174 $175 $69 #
cone-surface $-1 -62.787887389827311 26.785228983776367 5.6392588793472438 0.54463904215088732 0 -0.83867056331134215 0.41933528165567108 0 0.27231952107544366 1 I I 0 1 0.5 forward I I I I #
face $-1 $176 $177 $42 $-1 $178 reversed single #
loop $-1 $-1 $179 $70 #
plane-surface $-1 0 0 -8.1546670265048196 0 0 1 1 0 0 forward_v I I I I #
coedge $-1 $180 $181 $182 $183 forward $71 $-1 #
face $-1 $184 $185 $43 $-1 $186 reversed single #
loop $-1 $-1 $187 $73 #
plane-surface $-1 -51.476134691980647 -20.431334025862636 0 0 -1 0 0 0 -1 forward_v I I I I #
coedge $-1 $188 $189 $190 $191 forward $74 $-1 #
face $-1 $192 $193 $44 $-1 $194 reversed single #
loop $-1 $-1 $195 $76 #
plane-surface $-1 -44.680080713136249 -17.266751823566686 76.543182630739508 0.54463904215088732 0 0.83867056331134215 0.83867056331134215 0 -0.54463904215088732 forward_v I I I I #
coedge $-1 $196 $197 $198 $199 reversed $77 $-1 #
face $-1 $-1 $200 $45 $-1 $201 forward single #
loop $-1 $202 $203 $79 #
cone-surface $-1 62.143153242484232 -18.623001338836378 4.646455373372218 -0.54463904215088732 0 -0.83867056331134215 0.20966764082783554 0 -0.13615976053772183 1 I I -0.70710678118654746 0.70710678118654746 0.25 forward I I I I #
loop $-1 $-1 $204 $59 #
coedge $-1 $128 $128 $205 $206 reversed $80 $-1 #
face $-1 $-1 $207 $46 $-1 $208 forward single #
loop $-1 $209 $210 $82 #
cone-surface $-1 62.143153242484232 -15.910502308296993 4.646455373372218 -0.54463904215088732 0 -0.83867056331134215 0.20966764082783554 0 -0.13615976053772183 1 I I -0.70710678118654746 0.70710678118654746 0.25 forward I I I I #
loop $-1 $-1 $211 $60 #
coedge $-1 $133 $133 $212 $213 reversed $83 $-1 #
face $-1 $214 $215 $47 $-1 $216 reversed single #
loop $-1 $-1 $217 $85 #
plane-surface $-1 -44.680080713136249 25.428979468506672 76.543182630739508 0.54463904215088732 0 0.83867056331134215 0.83867056331134215 0 -0.54463904215088732 forward_v I I I I #
coedge $-1 $218 $219 $220 $221 reversed $86 $-1 #
face $-1 $-1 $222 $48 $-1 $223 forward single #
loop $-1 $224 $225 $88 #
cone-surface $-1 62.143153242484232 24.072729953236983 4.646455373372218 -0.54463904215088732 0 -0.83867056331134215 0.20966764082783554 0 -0.13615976053772183 1 I I -0.70710678118654746 0.70710678118654746 0.25 forward I I I I #
loop $-1 $-1 $226 $62 #
coedge $-1 $142 $142 $227 $228 reversed $89 $-1 #
face $-1 $-1 $229 $49 $-1 $230 forward single #
loop $-1 $231 $232 $91 #
cone-surface $-1 62.143153242484232 26.785228983776367 4.646455373372218 -0.54463904215088732 0 -0.83867056331134215 0.20966764082783554 0 -0.13615976053772183 1 I I -0.70710678118654746 0.70710678118654746 0.25 forward I I I I #
loop $-1 $-1 $233 $63 #
coedge $-1 $147 $147 $234 $235 reversed $92 $-1 #
face $-1 $236 $237 $50 $-1 $238 reversed single #
loop $-1 $-1 $239 $94 #
plane-surface $-1 -65.963927121799372 -17.266751823566686 4.6901224624840268 -0.54463904215088732 0 0.83867056331134215 0.83867056331134215 0 0.54463904215088732 forward_v I I I I #
coedge $-1 $240 $241 $242 $243 reversed $95 $-1 #
face $-1 $-1 $244 $51 $-1 $245 forward single #
loop $-1 $246 $247 $97 #
cone-surface $-1 -62.143153242484232 -18.623001338836378 4.646455373372218 0.54463904215088732 0 -0.83867056331134215 0.20966764082783554 0 0.13615976053772183 1 I I -0.70710678118654746 0.70710678118654746 0.25 forward I I I I #
loop $-1 $-1 $248 $65 #
coedge $-1 $156 $156 $249 $250 reversed $98 $-1 #
face $-1 $-1 $251 $52 $-1 $252 forward single #
loop $-1 $253 $254 $100 #
cone-surface $-1 -62.143153242484232 -15.910502308296993 4.646455373372218 0.54463904215088732 0 -0.83867056331134215 0.20966764082783554 0 0.13615976053772183 1 I I -0.70710678118654746 0.70710678118654746 0.25 forward I I I I #
loop $-1 $-1 $255 $66 #
coedge $-1 $161 $161 $256 $257 reversed $101 $-1 #
face $-1 $258 $259 $53 $-1 $260 forward single #
loop $-1 $-1 $261 $103 #
plane-surface $-1 -65.963927121799372 25.428979468506672 4.6901224624840268 -0.54463904215088732 0 0.83867056331134215 0.83867056331134215 0 0.54463904215088732 forward_v I I I I #
coedge $-1 $262 $263 $264 $265 reversed $104 $-1 #
face $-1 $-1 $266 $54 $-1 $267 forward single #
loop $-1 $268 $269 $106 #
cone-surface $-1 -62.143153242484232 24.072729953236983 4.646455373372218 0.54463904215088732 0 -0.83867056331134215 0.20966764082783554 0 0.13615976053772183 1 I I -0.70710678118654746 0.70710678118654746 0.25 forward I I I I #
loop $-1 $-1 $270 $68 #
coedge $-1 $170 $170 $271 $272 reversed $107 $-1 #
face $-1 $-1 $273 $55 $-1 $274 forward single #
loop $-1 $275 $276 $109 #
cone-surface $-1 -62.143153242484232 26.785228983776367 4.646455373372218 0.54463904215088732 0 -0.83867056331134215 0.20966764082783554 0 0.13615976053772183 1 I I -0.70710678118654746 0.70710678118654746 0.25 forward I I I I #
loop $-1 $-1 $277 $69 #
coedge $-1 $175 $175 $278 $279 reversed $110 $-1 #
face $-1 $280 $281 $42 $-1 $282 reversed single #
loop $-1 $-1 $283 $112 #
plane-surface $-1 0 -28.593561670802625 0 0 1 0 0 0 1 forward_v I I I I #
coedge $-1 $284 $285 $286 $287 forward $113 $-1 #
coedge $-1 $288 $115 $289 $290 forward $71 $-1 #
coedge $-1 $115 $288 $291 $292 forward $71 $-1 #
coedge $-1 $293 $294 $115 $183 reversed $295 $-1 #
edge $-1 $296 -28.593561670802625 $297 28.593561670802625 $182 $298 forward 7 unknown #
face $-1 $299 $300 $43 $-1 $301 forward single #
loop $-1 $-1 $302 $116 #
plane-surface $-1 -49.65459306878973 -24.512447848332631 0 -1 0 0 0 0 1 forward_v I I I I #
coedge $-1 $303 $304 $305 $306 forward $117 $-1 #
coedge $-1 $307 $119 $308 $309 reversed $74 $-1 #
coedge $-1 $119 $307 $310 $311 reversed $74 $-1 #
coedge $-1 $304 $303 $119 $191 reversed $117 $-1 #
edge $-1 $312 -8.1546670265048196 $313 8.1546670265048196 $190 $314 forward 7 unknown #
face $-1 $315 $316 $44 $-1 $317 reversed single #
loop $-1 $-1 $318 $120 #
plane-surface $-1 27.172979455119247 -20.431334025862636 187.18719046567512 0 1 0 0.54463904215088732 0 0.83867056331134215 forward_v I I I I #
coedge $-1 $319 $320 $321 $322 reversed $121 $-1 #
coedge $-1 $197 $123 $323 $324 reversed $77 $-1 #
coedge $-1 $123 $196 $319 $325 reversed $77 $-1 #
coedge $-1 $321 $326 $123 $199 forward $327 $-1 #
edge $-1 $328 -52.377437394239749 $329 -47.04250670390627 $198 $330 forward 7 unknown #
loop $-1 $-1 $205 $124 #
plane-surface $-1 -44.680080713136249 -17.266751823566686 76.543182630739508 0.54463904215088732 0 0.83867056331134215 0.83867056331134215 0 -0.54463904215088732 forward_v I I I I #
loop $-1 $-1 $331 $79 #
coedge $-1 $203 $203 $204 $332 reversed $125 $-1 #
coedge $-1 $204 $204 $203 $332 forward $127 $-1 #
coedge $-1 $205 $205 $128 $206 forward $200 $-1 #
edge $-1 $333 0 $333 6.2831853071796004 $205 $334 forward 7 unknown #
loop $-1 $-1 $212 $129 #
plane-surface $-1 -44.680080713136249 -17.266751823566686 76.543182630739508 0.54463904215088732 0 0.83867056331134215 0.83867056331134215 0 -0.54463904215088732 forward_v I I I I #
loop $-1 $-1 $335 $82 #
coedge $-1 $210 $210 $211 $336 reversed $130 $-1 #
coedge $-1 $211 $211 $210 $336 forward $132 $-1 #
coedge $-1 $212 $212 $133 $213 forward $207 $-1 #
edge $-1 $337 0 $337 6.2831853071796004 $212 $338 forward 7 unknown #
face $-1 $339 $340 $47 $-1 $341 reversed single #
loop $-1 $-1 $220 $134 #
plane-surface $-1 65.963927121799372 0 0 -1 0 0 0 0 1 forward_v I I I I #
coedge $-1 $342 $343 $344 $345 reversed $135 $-1 #
coedge $-1 $219 $137 $346 $347 reversed $86 $-1 #
coedge $-1 $137 $218 $342 $348 reversed $86 $-1 #
coedge $-1 $344 $349 $137 $221 forward $215 $-1 #
edge $-1 $350 85.438928206332733 $351 88.903472770353559 $220 $352 forward 7 unknown #
loop $-1 $-1 $227 $138 #
plane-surface $-1 -44.680080713136249 25.428979468506672 76.543182630739508 0.54463904215088732 0 0.83867056331134215 0.83867056331134215 0 -0.54463904215088732 forward_v I I I I #
loop $-1 $-1 $353 $88 #
coedge $-1 $225 $225 $226 $354 reversed $139 $-1 #
coedge $-1 $226 $226 $225 $354 forward $141 $-1 #
coedge $-1 $227 $227 $142 $228 forward $222 $-1 #
edge $-1 $355 0 $355 6.2831853071796004 $227 $356 forward 7 unknown #
loop $-1 $-1 $234 $143 #
plane-surface $-1 -44.680080713136249 25.428979468506672 76.543182630739508 0.54463904215088732 0 0.83867056331134215 0.83867056331134215 0 -0.54463904215088732 forward_v I I I I #
loop $-1 $-1 $357 $91 #
coedge $-1 $232 $232 $233 $358 reversed $144 $-1 #
coedge $-1 $233 $233 $232 $358 forward $146 $-1 #
coedge $-1 $234 $234 $147 $235 forward $229 $-1 #
edge $-1 $359 0 $359 6.2831853071796004 $234 $360 forward 7 unknown #
face $-1 $361 $362 $50 $-1 $363 reversed single #
loop $-1 $-1 $364 $148 #
plane-surface $-1 -137.81698729005487 -14.102169621270736 115.33413029741963 0 -1 0 0.54463904215088732 0 -0.83867056331134215 forward_v I I I I #
coedge $-1 $365 $366 $367 $368 reversed $149 $-1 #
coedge $-1 $241 $151 $369 $370 reversed $95 $-1 #
coedge $-1 $151 $240 $365 $371 reversed $95 $-1 #
coedge $-1 $367 $372 $151 $243 forward $373 $-1 #
edge $-1 $374 2.9445665232280618 $375 8.2794972135614842 $242 $376 forward 7 unknown #
loop $-1 $-1 $249 $152 #
plane-surface $-1 -65.963927121799372 -17.266751823566686 4.6901224624840268 -0.54463904215088732 0 0.83867056331134215 0.83867056331134215 0 0.54463904215088732 forward_v I I I I #
loop $-1 $-1 $377 $97 #
coedge $-1 $247 $247 $248 $378 reversed $153 $-1 #
coedge $-1 $248 $248 $247 $378 forward $155 $-1 #
coedge $-1 $249 $249 $156 $250 forward $244 $-1 #
edge $-1 $379 0 $379 6.2831853071796004 $249 $380 forward 7 unknown #
loop $-1 $-1 $256 $157 #
plane-surface $-1 -65.963927121799372 -17.266751823566686 4.6901224624840268 -0.54463904215088732 0 0.83867056331134215 0.83867056331134215 0 0.54463904215088732 forward_v I I I I #
loop $-1 $-1 $381 $100 #
coedge $-1 $254 $254 $255 $382 reversed $158 $-1 #
coedge $-1 $255 $255 $254 $382 forward $160 $-1 #
coedge $-1 $256 $256 $161 $257 forward $251 $-1 #
edge $-1 $383 0 $383 6.2831853071796004 $256 $384 forward 7 unknown #
face $-1 $385 $386 $53 $-1 $387 reversed single #
loop $-1 $-1 $264 $162 #
plane-surface $-1 0 0 8.1546670265048196 0 0 1 1 0 0 forward_v I I I I #
coedge $-1 $388 $389 $390 $391 reversed $163 $-1 #
coedge $-1 $263 $165 $392 $393 reversed $104 $-1 #
coedge $-1 $165 $262 $388 $394 reversed $104 $-1 #
coedge $-1 $390 $395 $165 $265 forward $259 $-1 #
edge $-1 $396 2.9445665232280618 $397 8.2794972135614842 $264 $398 forward 7 unknown #
loop $-1 $-1 $271 $166 #
plane-surface $-1 -65.963927121799372 25.428979468506672 4.6901224624840268 -0.54463904215088732 0 0.83867056331134215 0.83867056331134215 0 0.54463904215088732 forward_v I I I I #
loop $-1 $-1 $399 $106 #
coedge $-1 $269 $269 $270 $400 reversed $167 $-1 #
coedge $-1 $270 $270 $269 $400 forward $169 $-1 #
coedge $-1 $271 $271 $170 $272 forward $266 $-1 #
edge $-1 $401 0 $401 6.2831853071796004 $271 $402 forward 7 unknown #
loop $-1 $-1 $278 $171 #
plane-surface $-1 -65.963927121799372 25.428979468506672 4.6901224624840268 -0.54463904215088732 0 0.83867056331134215 0.83867056331134215 0 0.54463904215088732 forward_v I I I I #
loop $-1 $-1 $403 $109 #
coedge $-1 $276 $276 $277 $404 reversed $172 $-1 #
coedge $-1 $277 $277 $276 $404 forward $174 $-1 #
coedge $-1 $278 $278 $175 $279 forward $273 $-1 #
edge $-1 $405 0 $405 6.2831853071796004 $278 $406 forward 7 unknown #
face $-1 $407 $408 $42 $-1 $409 reversed single #
loop $-1 $-1 $410 $176 #
plane-surface $-1 -65.963927121799372 0 0 1 0 0 0 0 -1 forward_v I I I I #
coedge $-1 $411 $291 $412 $413 forward $177 $-1 #
coedge $-1 $414 $179 $411 $415 forward $113 $-1 #
coedge $-1 $179 $414 $416 $417 forward $113 $-1 #
coedge $-1 $294 $293 $179 $287 reversed $295 $-1 #
edge $-1 $418 -28.593561670802625 $419 28.593561670802625 $286 $420 forward 7 unknown #
coedge $-1 $181 $180 $421 $422 forward $71 $-1 #
coedge $-1 $423 $424 $180 $290 reversed $408 $-1 #
edge $-1 $297 -65.963927121799372 $425 65.963927121799372 $289 $426 forward 7 unknown #
coedge $-1 $283 $427 $181 $292 reversed $177 $-1 #
edge $-1 $428 -65.963927121799372 $296 65.963927121799372 $291 $429 forward 7 unknown #
coedge $-1 $286 $182 $427 $430 forward $295 $-1 #
coedge $-1 $182 $286 $423 $431 reversed $295 $-1 #
loop $-1 $-1 $293 $407 #
vertex $-1 $183 $432 #
vertex $-1 $183 $433 #
straight-curve $-1 65.963927121799372 0 8.1546670265048196 0 1 0 I I #
face $-1 $434 $435 $43 $-1 $436 reversed single #
loop $-1 $-1 $437 $184 #
plane-surface $-1 0 0 8.1546670265048196 0 0 1 1 0 0 forward_v I I I I #
coedge $-1 $438 $439 $440 $441 reversed $185 $-1 #
coedge $-1 $190 $187 $442 $443 reversed $117 $-1 #
coedge $-1 $187 $190 $444 $445 reversed $117 $-1 #
coedge $-1 $439 $438 $187 $306 reversed $185 $-1 #
edge $-1 $446 -8.1546670265048196 $447 8.1546670265048196 $305 $448 forward 7 unknown #
coedge $-1 $189 $188 $449 $450 reversed $74 $-1 #
coedge $-1 $442 $451 $188 $309 forward $435 $-1 #
edge $-1 $452 -16.337337746636308 $313 -8.1751101016963208 $308 $453 forward 7 unknown #
coedge $-1 $454 $444 $189 $311 forward $300 $-1 #
edge $-1 $312 8.1751101016963208 $455 16.337337746636308 $310 $456 forward 7 unknown #
vertex $-1 $311 $457 #
vertex $-1 $309 $458 #
straight-curve $-1 -53.297676315171564 -20.431334025862636 0 0 0 -1 I I #
face $-1 $-1 $327 $44 $-1 $459 forward single #
loop $-1 $-1 $460 $192 #
plane-surface $-1 65.963927121799372 0 0 -1 0 0 0 0 1 forward_v I I I I #
coedge $-1 $461 $462 $463 $464 reversed $193 $-1 #
coedge $-1 $465 $195 $197 $325 forward $121 $-1 #
coedge $-1 $195 $465 $461 $466 forward $121 $-1 #
coedge $-1 $463 $198 $195 $322 forward $327 $-1 #
edge $-1 $329 5.4687937094873931 $467 11.797958114079293 $321 $468 forward 7 unknown #
coedge $-1 $469 $470 $196 $324 forward $316 $-1 #
edge $-1 $471 -88.903472770353559 $328 -85.438928206332733 $323 $472 forward 7 unknown #
edge $-1 $329 125.56667868347245 $471 131.92785424359877 $197 $473 forward 7 unknown #
coedge $-1 $198 $463 $469 $474 forward $327 $-1 #
loop $-1 $-1 $463 $315 #
vertex $-1 $324 $475 #
vertex $-1 $199 $476 #
straight-curve $-1 13.586489727559623 -14.102169621270736 8.1546670265048249 -1 0 0 I I #
coedge $-1 $331 $331 $-1 $477 reversed $202 $-1 #
edge $-1 $478 0 $478 6.2831853071796004 $203 $479 forward 7 unknown #
vertex $-1 $206 $480 #
ellipse-curve $-1 63.296461776632647 -18.623001338836378 6.4223947444943992 0.54463904215088732 0 0.83867056331134215 0.41933528165567108 0 -0.27231952107544366 1 I I #
coedge $-1 $335 $335 $-1 $481 reversed $209 $-1 #
edge $-1 $482 0 $482 6.2831853071796004 $210 $483 forward 7 unknown #
vertex $-1 $213 $484 #
ellipse-curve $-1 63.296461776632647 -15.910502308296993 6.4223947444943992 0.54463904215088732 0 0.83867056331134215 0.41933528165567108 0 -0.27231952107544366 1 I I #
face $-1 $-1 $485 $47 $-1 $486 forward single #
loop $-1 $-1 $487 $214 #
plane-surface $-1 0 28.593561670802625 0 0 -1 0 0 0 -1 forward_v I I I I #
coedge $-1 $488 $217 $219 $348 forward $135 $-1 #
coedge $-1 $217 $488 $487 $489 reversed $135 $-1 #
coedge $-1 $490 $220 $217 $345 forward $215 $-1 #
edge $-1 $351 9.5499075319573858 $491 15.879071936549289 $344 $492 forward 7 unknown #
coedge $-1 $493 $494 $218 $347 forward $485 $-1 #
edge $-1 $495 47.04250670390627 $350 52.377437394239749 $346 $496 forward 7 unknown #
edge $-1 $351 -131.92785424359877 $495 -125.56667868347245 $219 $497 forward 7 unknown #
coedge $-1 $220 $490 $493 $498 reversed $215 $-1 #
vertex $-1 $498 $499 #
vertex $-1 $221 $500 #
straight-curve $-1 65.963927121799372 22.264397266210722 93.593595232837558 0 0 -1 I I #
coedge $-1 $353 $353 $-1 $501 reversed $224 $-1 #
edge $-1 $502 0 $502 6.2831853071796004 $225 $503 forward 7 unknown #
vertex $-1 $228 $504 #
ellipse-curve $-1 63.296461776632647 24.072729953236983 6.4223947444943992 0.54463904215088732 0 0.83867056331134215 0.41933528165567108 0 -0.27231952107544366 1 I I #
coedge $-1 $357 $357 $-1 $505 reversed $231 $-1 #
edge $-1 $506 0 $506 6.2831853071796004 $232 $507 forward 7 unknown #
vertex $-1 $235 $508 #
ellipse-curve $-1 63.296461776632647 26.785228983776367 6.4223947444943992 0.54463904215088732 0 0.83867056331134215 0.41933528165567108 0 -0.27231952107544366 1 I I #
face $-1 $-1 $373 $50 $-1 $509 forward single #
loop $-1 $-1 $510 $236 #
plane-surface $-1 -65.963927121799372 0 0 1 0 0 0 0 -1 forward_v I I I I #
coedge $-1 $511 $512 $513 $514 reversed $237 $-1 #
coedge $-1 $515 $239 $241 $371 forward $149 $-1 #
coedge $-1 $239 $515 $511 $516 forward $149 $-1 #
coedge $-1 $513 $242 $239 $368 forward $373 $-1 #
edge $-1 $375 -11.797958114079293 $517 -5.4687937094873931 $367 $518 forward 7 unknown #
coedge $-1 $519 $520 $240 $370 forward $362 $-1 #
edge $-1 $521 -52.97694268622579 $374 -49.512398122204999 $369 $522 forward 7 unknown #
edge $-1 $375 -6.361175560126247 $521 0 $241 $523 forward 7 unknown #
coedge $-1 $242 $513 $519 $524 forward $373 $-1 #
loop $-1 $-1 $513 $361 #
vertex $-1 $370 $525 #
vertex $-1 $243 $526 #
straight-curve $-1 -68.908493645027434 -20.431334025862636 8.1546670265048178 1 0 0 I I #
coedge $-1 $377 $377 $-1 $527 reversed $246 $-1 #
edge $-1 $528 0 $528 6.2831853071796004 $247 $529 forward 7 unknown #
vertex $-1 $250 $530 #
ellipse-curve $-1 -63.296461776632661 -18.623001338836378 6.4223947444944223 -0.54463904215088732 0 0.83867056331134215 0.41933528165567108 0 0.27231952107544366 1 I I #
coedge $-1 $381 $381 $-1 $531 reversed $253 $-1 #
edge $-1 $532 0 $532 6.2831853071796004 $254 $533 forward 7 unknown #
vertex $-1 $257 $534 #
ellipse-curve $-1 -63.296461776632661 -15.910502308296993 6.4223947444944223 -0.54463904215088732 0 0.83867056331134215 0.41933528165567108 0 0.27231952107544366 1 I I #
face $-1 $-1 $535 $53 $-1 $536 reversed single #
loop $-1 $-1 $537 $258 #
plane-surface $-1 0 28.593561670802625 0 0 -1 0 0 0 -1 forward_v I I I I #
coedge $-1 $538 $261 $263 $394 forward $163 $-1 #
coedge $-1 $261 $538 $537 $539 reversed $163 $-1 #
coedge $-1 $540 $264 $261 $391 forward $259 $-1 #
edge $-1 $397 9.5499075319573858 $541 15.879071936549286 $390 $542 forward 7 unknown #
coedge $-1 $543 $544 $262 $393 forward $535 $-1 #
edge $-1 $545 -52.97694268622579 $396 -49.512398122204999 $392 $546 forward 7 unknown #
edge $-1 $397 -6.361175560126247 $545 0 $263 $547 forward 7 unknown #
coedge $-1 $264 $540 $543 $548 forward $259 $-1 #
vertex $-1 $393 $549 #
vertex $-1 $265 $550 #
straight-curve $-1 -68.908493645027434 22.264397266210722 8.1546670265048178 1 0 0 I I #
coedge $-1 $399 $399 $-1 $551 reversed $268 $-1 #
edge $-1 $552 0 $552 6.2831853071796004 $269 $553 forward 7 unknown #
vertex $-1 $272 $554 #
ellipse-curve $-1 -63.296461776632661 24.072729953236983 6.4223947444944223 -0.54463904215088732 0 0.83867056331134215 0.41933528165567108 0 0.27231952107544366 1 I I #
coedge $-1 $403 $403 $-1 $555 reversed $275 $-1 #
edge $-1 $556 0 $556 6.2831853071796004 $276 $557 forward 7 unknown #
vertex $-1 $279 $558 #
ellipse-curve $-1 -63.296461776632661 26.785228983776367 6.4223947444944223 -0.54463904215088732 0 0.83867056331134215 0.41933528165567108 0 0.27231952107544366 1 I I #
face $-1 $-1 $295 $42 $-1 $559 reversed single #
loop $-1 $-1 $423 $280 #
plane-surface $-1 0 28.593561670802625 0 0 -1 0 0 0 -1 forward_v I I I I #
coedge $-1 $560 $421 $424 $561 forward $281 $-1 #
coedge $-1 $427 $283 $284 $415 reversed $177 $-1 #
coedge $-1 $421 $560 $283 $413 reversed $281 $-1 #
edge $-1 $428 -8.1546670265048196 $562 8.1546670265048196 $412 $563 forward 7 unknown #
coedge $-1 $285 $284 $560 $564 forward $113 $-1 #
edge $-1 $419 -65.963927121799372 $562 65.963927121799372 $411 $565 forward 7 unknown #
coedge $-1 $424 $423 $285 $417 reversed $408 $-1 #
edge $-1 $566 -65.963927121799372 $418 65.963927121799372 $416 $567 forward 7 unknown #
vertex $-1 $287 $568 #
vertex $-1 $430 $569 #
straight-curve $-1 65.963927121799372 0 -8.1546670265048196 0 -1 0 I I #
coedge $-1 $410 $412 $288 $422 reversed $281 $-1 #
edge $-1 $425 -28.593561670802625 $428 28.593561670802625 $421 $570 forward 7 unknown #
coedge $-1 $416 $289 $294 $431 forward $408 $-1 #
coedge $-1 $289 $416 $410 $561 reversed $408 $-1 #
vertex $-1 $290 $571 #
straight-curve $-1 0 28.593561670802625 8.1546670265048196 -1 0 0 I I #
coedge $-1 $291 $411 $293 $430 reversed $177 $-1 #
vertex $-1 $422 $572 #
straight-curve $-1 0 -28.593561670802625 8.1546670265048196 1 0 0 I I #
edge $-1 $296 -8.1546670265048196 $419 8.1546670265048196 $293 $573 forward 7 unknown #
edge $-1 $297 -8.1546670265048196 $418 8.1546670265048196 $294 $574 forward 7 unknown #
point $-1 65.963927121799372 -28.593561670802625 8.1546670265048196 #
point $-1 65.963927121799372 28.593561670802625 8.1546670265048196 #
face $-1 $-1 $575 $43 $-1 $576 reversed single #
loop $-1 $-1 $577 $299 #
plane-surface $-1 0 0 -8.1546670265048196 0 0 1 1 0 0 forward_v I I I I #
coedge $-1 $444 $454 $439 $578 forward $300 $-1 #
coedge $-1 $305 $302 $577 $579 reversed $185 $-1 #
coedge $-1 $302 $305 $437 $578 reversed $185 $-1 #
coedge $-1 $580 $581 $302 $441 forward $575 $-1 #
edge $-1 $582 -8.1546670265048196 $583 8.1546670265048196 $440 $584 forward 7 unknown #
coedge $-1 $577 $308 $303 $443 forward $435 $-1 #
edge $-1 $313 -27.559608969181241 $447 -23.916525722799406 $442 $585 forward 7 unknown #
coedge $-1 $310 $437 $304 $445 forward $300 $-1 #
edge $-1 $446 23.916525722799406 $312 27.559608969181241 $444 $586 forward 7 unknown #
vertex $-1 $445 $587 #
vertex $-1 $443 $588 #
straight-curve $-1 -49.65459306878973 -20.431334025862636 0 0 0 -1 I I #
coedge $-1 $581 $580 $307 $450 forward $575 $-1 #
edge $-1 $455 -8.1546670265048196 $452 8.1546670265048196 $449 $589 forward 7 unknown #
coedge $-1 $308 $577 $581 $590 forward $435 $-1 #
vertex $-1 $309 $591 #
straight-curve $-1 -53.297676315171564 -12.256223924166315 -8.1546670265048196 0 1 0 I I #
coedge $-1 $437 $310 $580 $592 forward $300 $-1 #
vertex $-1 $592 $593 #
straight-curve $-1 -53.297676315171564 -12.256223924166315 8.1546670265048196 0 -1 0 I I #
point $-1 -53.297676315171564 -20.431334025862636 8.1546670265048196 #
point $-1 -53.297676315171564 -20.431334025862636 -8.1546670265048196 #
plane-surface $-1 0 0 8.1546670265048196 0 0 1 1 0 0 forward_v I I I I #
coedge $-1 $470 $469 $462 $594 forward $316 $-1 #
coedge $-1 $462 $318 $320 $466 reversed $193 $-1 #
coedge $-1 $318 $461 $460 $594 reversed $193 $-1 #
coedge $-1 $326 $321 $318 $464 forward $327 $-1 #
edge $-1 $467 47.04250670390627 $595 52.377437394239749 $463 $596 forward 7 unknown #
coedge $-1 $320 $319 $470 $597 reversed $121 $-1 #
edge $-1 $598 -131.92785424359877 $467 -125.56667868347245 $461 $599 forward 7 unknown #
vertex $-1 $322 $600 #
straight-curve $-1 60.628996431465922 -8.6333759117833431 8.1546670265048178 0 -1 0 I I #
coedge $-1 $460 $323 $326 $474 reversed $316 $-1 #
coedge $-1 $323 $460 $465 $597 forward $316 $-1 #
vertex $-1 $324 $601 #
straight-curve $-1 65.963927121799372 -14.102169621270736 93.593595232837558 0 0 1 I I #
straight-curve $-1 -44.680080713136249 -14.102169621270736 76.543182630739508 0.83867056331134215 0 -0.54463904215088732 I I #
edge $-1 $595 -20.431334025862636 $328 -14.102169621270736 $469 $602 forward 7 unknown #
point $-1 65.963927121799372 -14.102169621270736 8.1546670265048196 #
point $-1 60.628996431465893 -14.102169621270736 8.1546670265048249 #
edge $-1 $603 1 $603 0 $331 $-1 forward 7 unknown #
vertex $-1 $332 $604 #
ellipse-curve $-1 62.279313003021954 -18.623001338836378 4.8561230142000538 0.54463904215088732 0 0.83867056331134215 0.41933528165567108 0 -0.27231952107544366 1 I I #
point $-1 63.715797058288345 -18.623001338836378 6.1500752234189893 #
edge $-1 $605 1 $605 0 $335 $-1 forward 7 unknown #
vertex $-1 $336 $606 #
ellipse-curve $-1 62.279313003021954 -15.910502308296993 4.8561230142000538 0.54463904215088732 0 0.83867056331134215 0.41933528165567108 0 -0.27231952107544366 1 I I #
point $-1 63.715797058288345 -15.910502308296993 6.1500752234189893 #
loop $-1 $-1 $346 $339 #
plane-surface $-1 0 0 8.1546670265048196 0 0 1 1 0 0 forward_v I I I I #
coedge $-1 $607 $608 $343 $489 forward $340 $-1 #
coedge $-1 $343 $342 $494 $609 reversed $135 $-1 #
edge $-1 $491 -92.347717177764451 $610 -85.986541617638153 $487 $611 forward 7 unknown #
coedge $-1 $349 $344 $608 $612 reversed $215 $-1 #
vertex $-1 $489 $613 #
straight-curve $-1 65.963927121799372 12.714489734253336 4.6901224624840125 0 1 0 I I #
coedge $-1 $614 $346 $349 $498 forward $485 $-1 #
coedge $-1 $346 $614 $488 $609 forward $485 $-1 #
vertex $-1 $347 $615 #
straight-curve $-1 13.586489727559623 22.264397266210722 8.1546670265048249 1 0 0 I I #
straight-curve $-1 -44.680080713136249 22.264397266210722 76.543182630739508 -0.83867056331134215 0 0.54463904215088732 I I #
edge $-1 $350 22.264397266210722 $616 28.593561670802625 $349 $617 forward 7 unknown #
point $-1 65.963927121799372 22.264397266210722 8.1546670265048196 #
point $-1 65.963927121799372 22.264397266210722 4.6901224624839983 #
edge $-1 $618 1 $618 0 $353 $-1 forward 7 unknown #
vertex $-1 $354 $619 #
ellipse-curve $-1 62.279313003021954 24.072729953236983 4.8561230142000538 0.54463904215088732 0 0.83867056331134215 0.41933528165567108 0 -0.27231952107544366 1 I I #
point $-1 63.715797058288345 24.072729953236983 6.1500752234189893 #
edge $-1 $620 1 $620 0 $357 $-1 forward 7 unknown #
vertex $-1 $358 $621 #
ellipse-curve $-1 62.279313003021954 26.785228983776367 4.8561230142000538 0.54463904215088732 0 0.83867056331134215 0.41933528165567108 0 -0.27231952107544366 1 I I #
point $-1 63.715797058288345 26.785228983776367 6.1500752234189893 #
plane-surface $-1 0 0 8.1546670265048196 0 0 1 1 0 0 forward_v I I I I #
coedge $-1 $520 $519 $512 $622 forward $362 $-1 #
coedge $-1 $512 $364 $366 $516 reversed $237 $-1 #
coedge $-1 $364 $511 $510 $622 reversed $237 $-1 #
coedge $-1 $372 $367 $364 $514 forward $373 $-1 #
edge $-1 $517 -8.2794972135614842 $623 -2.9445665232280618 $513 $624 forward 7 unknown #
coedge $-1 $366 $365 $520 $625 reversed $149 $-1 #
edge $-1 $626 0 $517 6.361175560126247 $511 $627 forward 7 unknown #
vertex $-1 $368 $628 #
straight-curve $-1 -60.62899643146595 -8.6333759117833431 8.1546670265048196 0 1 0 I I #
coedge $-1 $510 $369 $372 $524 reversed $362 $-1 #
coedge $-1 $369 $510 $515 $625 forward $362 $-1 #
vertex $-1 $370 $629 #
straight-curve $-1 -65.963927121799372 -20.431334025862636 57.667065148709817 0 0 1 I I #
straight-curve $-1 -65.963927121799372 -20.431334025862636 4.6901224624840268 -0.83867056331134215 0 -0.54463904215088732 I I #
edge $-1 $623 14.102169621270736 $374 20.431334025862636 $519 $630 forward 7 unknown #
point $-1 -65.963927121799372 -20.431334025862636 8.1546670265048196 #
point $-1 -60.62899643146595 -20.431334025862636 8.1546670265048196 #
edge $-1 $631 1 $631 0 $377 $-1 forward 7 unknown #
vertex $-1 $378 $632 #
ellipse-curve $-1 -62.279313003021954 -18.623001338836378 4.8561230142000538 -0.54463904215088732 0 0.83867056331134215 0.41933528165567108 0 0.27231952107544366 1 I I #
point $-1 -62.877126494977006 -18.623001338836378 6.6947142655698766 #
edge $-1 $633 1 $633 0 $381 $-1 forward 7 unknown #
vertex $-1 $382 $634 #
ellipse-curve $-1 -62.279313003021954 -15.910502308296993 4.8561230142000538 -0.54463904215088732 0 0.83867056331134215 0.41933528165567108 0 0.27231952107544366 1 I I #
point $-1 -62.877126494977006 -15.910502308296993 6.6947142655698766 #
loop $-1 $-1 $392 $385 #
plane-surface $-1 -65.963927121799372 0 0 1 0 0 0 0 -1 forward_v I I I I #
coedge $-1 $635 $636 $389 $539 forward $386 $-1 #
coedge $-1 $389 $388 $544 $637 reversed $163 $-1 #
edge $-1 $541 20.022614495838823 $638 26.383790055965068 $537 $639 forward 7 unknown #
coedge $-1 $395 $390 $636 $640 forward $259 $-1 #
vertex $-1 $640 $641 #
straight-curve $-1 -60.62899643146595 12.714489734253336 8.1546670265048196 0 1 0 I I #
coedge $-1 $642 $392 $395 $548 reversed $535 $-1 #
coedge $-1 $392 $642 $538 $637 forward $535 $-1 #
vertex $-1 $393 $643 #
straight-curve $-1 -65.963927121799372 22.264397266210722 57.667065148709817 0 0 1 I I #
straight-curve $-1 -65.963927121799372 22.264397266210722 4.6901224624840268 -0.83867056331134215 0 -0.54463904215088732 I I #
edge $-1 $644 -28.593561670802625 $396 -22.264397266210722 $543 $645 forward 7 unknown #
point $-1 -65.963927121799372 22.264397266210722 8.1546670265048196 #
point $-1 -60.62899643146595 22.264397266210722 8.1546670265048196 #
edge $-1 $646 1 $646 0 $399 $-1 forward 7 unknown #
vertex $-1 $400 $647 #
ellipse-curve $-1 -62.279313003021954 24.072729953236983 4.8561230142000538 -0.54463904215088732 0 0.83867056331134215 0.41933528165567108 0 0.27231952107544366 1 I I #
point $-1 -62.877126494977006 24.072729953236983 6.6947142655698766 #
edge $-1 $648 1 $648 0 $403 $-1 forward 7 unknown #
vertex $-1 $404 $649 #
ellipse-curve $-1 -62.279313003021954 26.785228983776367 4.8561230142000538 -0.54463904215088732 0 0.83867056331134215 0.41933528165567108 0 0.27231952107544366 1 I I #
point $-1 -62.877126494977006 26.785228983776367 6.6947142655698766 #
plane-surface $-1 65.963927121799372 0 0 -1 0 0 0 0 1 forward_v I I I I #
coedge $-1 $412 $410 $414 $564 reversed $281 $-1 #
edge $-1 $425 -8.1546670265048196 $566 8.1546670265048196 $424 $650 forward 7 unknown #
vertex $-1 $564 $651 #
straight-curve $-1 -65.963927121799372 -28.593561670802625 0 0 0 -1 I I #
edge $-1 $562 -28.593561670802625 $566 28.593561670802625 $560 $652 forward 7 unknown #
straight-curve $-1 0 -28.593561670802625 -8.1546670265048196 -1 0 0 I I #
vertex $-1 $417 $653 #
straight-curve $-1 0 28.593561670802625 -8.1546670265048196 1 0 0 I I #
point $-1 65.963927121799372 28.593561670802625 -8.1546670265048196 #
point $-1 65.963927121799372 -28.593561670802625 -8.1546670265048196 #
straight-curve $-1 -65.963927121799372 0 8.1546670265048196 0 -1 0 I I #
point $-1 -65.963927121799372 28.593561670802625 8.1546670265048196 #
point $-1 -65.963927121799372 -28.593561670802625 8.1546670265048196 #
straight-curve $-1 65.963927121799372 -28.593561670802625 0 0 0 -1 I I #
straight-curve $-1 65.963927121799372 28.593561670802625 0 0 0 -1 I I #
loop $-1 $-1 $440 $434 #
plane-surface $-1 0 -28.593561670802625 0 0 1 0 0 0 1 forward_v I I I I #
coedge $-1 $451 $442 $438 $579 forward $435 $-1 #
edge $-1 $583 -16.337337746636308 $446 -8.1751101016963208 $437 $654 forward 7 unknown #
edge $-1 $447 8.1751101016963208 $582 16.337337746636308 $577 $655 forward 7 unknown #
coedge $-1 $449 $440 $454 $592 reversed $575 $-1 #
coedge $-1 $440 $449 $451 $590 reversed $575 $-1 #
vertex $-1 $590 $656 #
vertex $-1 $441 $657 #
straight-curve $-1 -49.65459306878973 -28.593561670802625 0 0 0 1 I I #
straight-curve $-1 -25.738067345990324 -20.431334025862636 -8.1546670265048196 1 0 0 I I #
straight-curve $-1 -25.738067345990324 -20.431334025862636 8.1546670265048196 -1 0 0 I I #
point $-1 -49.65459306878973 -20.431334025862636 8.1546670265048196 #
point $-1 -49.65459306878973 -20.431334025862636 -8.1546670265048196 #
straight-curve $-1 -53.297676315171564 -28.593561670802625 0 0 0 -1 I I #
edge $-1 $582 49.65459306878973 $452 53.297676315171564 $581 $658 forward 7 unknown #
point $-1 -53.297676315171564 -28.593561670802625 -8.1546670265048196 #
edge $-1 $455 -53.297676315171564 $583 -49.65459306878973 $580 $659 forward 7 unknown #
point $-1 -53.297676315171564 -28.593561670802625 8.1546670265048196 #
edge $-1 $595 85.438928206332733 $598 88.903472770353559 $460 $660 forward 7 unknown #
vertex $-1 $474 $661 #
straight-curve $-1 13.586489727559623 -20.431334025862636 8.1546670265048249 1 0 0 I I #
edge $-1 $598 -11.797958114079293 $471 -5.4687937094873931 $470 $662 forward 7 unknown #
vertex $-1 $597 $663 #
straight-curve $-1 -44.680080713136249 -20.431334025862636 76.543182630739508 -0.83867056331134215 0 0.54463904215088732 I I #
point $-1 60.628996431465893 -20.431334025862636 8.1546670265048249 #
point $-1 65.963927121799372 -14.102169621270736 4.6901224624839983 #
straight-curve $-1 65.963927121799372 0 8.1546670265048196 0 1 0 I I #
vertex $-1 $477 $664 #
point $-1 62.698648284677624 -18.623001338836378 4.5838034931246101 #
vertex $-1 $481 $665 #
point $-1 62.698648284677624 -15.910502308296993 4.5838034931246101 #
coedge $-1 $608 $487 $614 $666 reversed $340 $-1 #
coedge $-1 $487 $607 $490 $612 forward $340 $-1 #
edge $-1 $610 -15.879071936549286 $495 -9.5499075319573858 $494 $667 forward 7 unknown #
vertex $-1 $489 $668 #
straight-curve $-1 -11.485384864192856 28.593561670802625 54.986294691002684 -0.83867056331134215 0 0.54463904215088732 I I #
edge $-1 $616 -8.1546670265048196 $491 -4.6901224624840063 $490 $669 forward 7 unknown #
point $-1 65.963927121799372 28.593561670802625 4.6901224624840063 #
coedge $-1 $494 $493 $607 $666 forward $485 $-1 #
point $-1 60.628996431465893 22.264397266210722 8.1546670265048249 #
vertex $-1 $498 $670 #
straight-curve $-1 65.963927121799372 0 8.1546670265048196 0 1 0 I I #
vertex $-1 $501 $671 #
point $-1 62.698648284677624 24.072729953236983 4.5838034931246101 #
vertex $-1 $505 $672 #
point $-1 62.698648284677624 26.785228983776367 4.5838034931246101 #
edge $-1 $623 49.512398122204999 $626 52.97694268622579 $510 $673 forward 7 unknown #
vertex $-1 $524 $674 #
straight-curve $-1 -68.908493645027434 -14.102169621270736 8.1546670265048178 -1 0 0 I I #
edge $-1 $626 5.4687937094873931 $521 11.797958114079293 $520 $675 forward 7 unknown #
vertex $-1 $625 $676 #
straight-curve $-1 -65.963927121799372 -14.102169621270736 4.6901224624840268 0.83867056331134215 0 0.54463904215088732 I I #
point $-1 -60.62899643146595 -14.102169621270736 8.1546670265048196 #
point $-1 -65.963927121799372 -20.431334025862636 4.6901224624840268 #
straight-curve $-1 -65.963927121799372 0 8.1546670265048196 0 -1 0 I I #
vertex $-1 $527 $677 #
point $-1 -61.859977721366285 -18.623001338836378 5.1284425352754974 #
vertex $-1 $531 $678 #
point $-1 -61.859977721366285 -15.910502308296993 5.1284425352754974 #
coedge $-1 $636 $537 $642 $679 reversed $386 $-1 #
coedge $-1 $537 $635 $540 $640 reversed $386 $-1 #
edge $-1 $638 -15.879071936549286 $545 -9.5499075319573858 $544 $680 forward 7 unknown #
vertex $-1 $539 $681 #
straight-curve $-1 -43.836619053274958 28.593561670802625 19.059764606874946 -0.83867056331134215 0 -0.54463904215088732 I I #
edge $-1 $541 60.62899643146595 $644 65.963927121799372 $636 $682 forward 7 unknown #
point $-1 -60.62899643146595 28.593561670802622 8.1546670265048196 #
coedge $-1 $544 $543 $635 $679 forward $535 $-1 #
point $-1 -65.963927121799372 22.264397266210722 4.6901224624840268 #
vertex $-1 $640 $683 #
straight-curve $-1 -65.963927121799372 0 8.1546670265048196 0 -1 0 I I #
vertex $-1 $551 $684 #
point $-1 -61.859977721366285 24.072729953236983 5.1284425352754974 #
vertex $-1 $555 $685 #
point $-1 -61.859977721366285 26.785228983776367 5.1284425352754974 #
straight-curve $-1 -65.963927121799372 28.593561670802625 0 0 0 -1 I I #
point $-1 -65.963927121799372 -28.593561670802625 -8.1546670265048196 #
straight-curve $-1 -65.963927121799372 0 -8.1546670265048196 0 1 0 I I #
point $-1 -65.963927121799372 28.593561670802625 -8.1546670265048196 #
straight-curve $-1 -49.65459306878973 -12.256223924166315 8.1546670265048196 0 1 0 I I #
straight-curve $-1 -49.65459306878973 -12.256223924166315 -8.1546670265048196 0 -1 0 I I #
point $-1 -49.65459306878973 -28.593561670802625 -8.1546670265048196 #
point $-1 -49.65459306878973 -28.593561670802625 8.1546670265048196 #
straight-curve $-1 0 -28.593561670802625 -8.1546670265048196 -1 0 0 I I #
straight-curve $-1 0 -28.593561670802625 8.1546670265048196 1 0 0 I I #
straight-curve $-1 65.963927121799372 -20.431334025862636 93.593595232837558 0 0 -1 I I #
point $-1 65.963927121799372 -20.431334025862636 8.1546670265048196 #
straight-curve $-1 65.963927121799372 -8.6333759117833431 4.6901224624840125 0 1 0 I I #
point $-1 65.963927121799372 -20.431334025862636 4.6901224624839983 #
point $-1 62.006993481946509 -18.623001338836378 4.4367877325443823 #
point $-1 62.006993481946509 -15.910502308296993 4.4367877325443823 #
edge $-1 $616 -65.963927121799372 $610 -60.628996431465893 $607 $686 forward 7 unknown #
straight-curve $-1 60.628996431465922 12.714489734253336 8.1546670265048178 0 -1 0 I I #
point $-1 60.628996431465893 28.593561670802622 8.1546670265048249 #
straight-curve $-1 65.963927121799372 28.593561670802625 0 0 0 -1 I I #
point $-1 65.963927121799372 28.593561670802625 8.1546670265048196 #
point $-1 62.006993481946509 24.072729953236983 4.4367877325443823 #
point $-1 62.006993481946509 26.785228983776367 4.4367877325443823 #
straight-curve $-1 -65.963927121799372 -14.102169621270736 57.667065148709817 0 0 -1 I I #
point $-1 -65.963927121799372 -14.102169621270736 8.1546670265048196 #
straight-curve $-1 -65.963927121799372 -8.6333759117833431 4.6901224624840232 0 -1 0 I I #
point $-1 -65.963927121799372 -14.102169621270736 4.6901224624840268 #
point $-1 -62.006993481946509 -18.623001338836378 4.4367877325443823 #
point $-1 -62.006993481946509 -15.910502308296993 4.4367877325443823 #
edge $-1 $644 -8.1546670265048196 $638 -4.6901224624840268 $635 $687 forward 7 unknown #
straight-curve $-1 -65.963927121799372 12.714489734253336 4.6901224624840232 0 -1 0 I I #
point $-1 -65.963927121799372 28.593561670802622 4.6901224624840268 #
straight-curve $-1 0 28.593561670802625 8.1546670265048196 -1 0 0 I I #
point $-1 -65.963927121799372 28.593561670802625 8.1546670265048196 #
point $-1 -62.006993481946509 24.072729953236983 4.4367877325443823 #
point $-1 -62.006993481946509 26.785228983776367 4.4367877325443823 #
straight-curve $-1 0 28.593561670802625 8.1546670265048196 -1 0 0 I I #
straight-curve $-1 -65.963927121799372 28.593561670802625 0 0 0 -1 I I #
End-of-ACIS-data 