500 0 3 0           
7 Unknown 11 ACIS 5.0 NT 24 Fri Mar 26 17:38:20 1999 
-1 9.9999999999999995e-007 1e-010 
body $-1 $3 $-1 $4 #
body $-1 $5 $-1 $6 #
body $-1 $7 $-1 $8 #
lump $-1 $-1 $9 $0 #
transform $-1 1 0 0 0 1 0 0 0 1 66.662190618610197 45.430668431199756 13.636548853670524 1 rotate no_reflect no_shear #
lump $-1 $-1 $10 $1 #
transform $-1 1 0 0 0 1 0 0 0 1 66.662190618610197 45.430668431199756 13.636548853670524 1 rotate no_reflect no_shear #
lump $-1 $-1 $11 $2 #
transform $-1 1 0 0 0 1 0 0 0 1 66.662190618610197 45.430668431199756 13.636548853670524 1 rotate no_reflect no_shear #
shell $-1 $-1 $-1 $12 $-1 $3 #
shell $-1 $-1 $-1 $13 $-1 $5 #
shell $-1 $-1 $-1 $14 $-1 $7 #
face $-1 $15 $16 $9 $-1 $17 forward single #
face $-1 $18 $19 $10 $-1 $20 forward single #
face $-1 $21 $22 $11 $-1 $23 reversed single #
face $-1 $24 $25 $9 $-1 $26 reversed single #
loop $-1 $-1 $27 $12 #
plane-surface $-1 0 0 13.636548853670524 0 0 1 1 0 0 forward_v I I I I #
face $-1 $28 $29 $10 $-1 $30 forward single #
loop $-1 $-1 $31 $13 #
plane-surface $-1 -53.165370494644506 58.72190078955493 162.34503988333816 -1 0 0 0 0.62932039886446345 0.77714595512881146 forward_v I I I I #
face $-1 $32 $33 $11 $-1 $34 reversed single #
loop $-1 $35 $36 $14 #
cone-surface $-1 -59.913780556627351 35.714397996424339 4.8100663287463714 0 -0.62932039886446345 -0.77714595512881146 2.5 0 0 1 I I 0 1 2.5 forward I I I I #
face $-1 $37 $38 $9 $-1 $39 reversed single #
loop $-1 $-1 $40 $15 #
plane-surface $-1 0 0 -13.636548853670524 0 0 1 1 0 0 forward_v I I I I #
coedge $-1 $41 $42 $43 $44 forward $16 $-1 #
face $-1 $45 $46 $10 $-1 $47 reversed single #
loop $-1 $-1 $48 $18 #
plane-surface $-1 -59.913780556627351 -25.18185198901039 58.732536284780721 0 0.62932039886446345 0.77714595512881146 1 0 0 forward_v I I I I #
coedge $-1 $49 $50 $51 $52 reversed $19 $-1 #
face $-1 $53 $54 $11 $-1 $55 forward single #
loop $-1 $56 $57 $21 #
cone-surface $-1 -59.913780556627351 32.673284520756859 1.0546040221579194 0 -0.62932039886446345 -0.77714595512881146 1.25 0 0 1 I I -0.70710678118654746 0.70710678118654746 1.25 forward I I I I #
loop $-1 $-1 $58 $14 #
coedge $-1 $36 $36 $59 $60 reversed $22 $-1 #
face $-1 $61 $62 $9 $-1 $63 reversed single #
loop $-1 $-1 $64 $24 #
plane-surface $-1 0 -45.430668431199756 0 0 1 0 0 0 1 forward_v I I I I #
coedge $-1 $65 $66 $67 $68 forward $25 $-1 #
coedge $-1 $69 $27 $70 $71 forward $16 $-1 #
coedge $-1 $27 $69 $72 $73 forward $16 $-1 #
coedge $-1 $74 $75 $27 $44 reversed $76 $-1 #
edge $-1 $77 -45.430668431199756 $78 45.430668431199756 $43 $79 forward 7 unknown #
face $-1 $80 $81 $10 $-1 $82 forward single #
loop $-1 $-1 $83 $28 #
plane-surface $-1 0 45.430668431199756 0 0 -1 0 0 0 -1 forward_v I I I I #
coedge $-1 $84 $85 $83 $86 reversed $29 $-1 #
coedge $-1 $50 $31 $85 $87 forward $19 $-1 #
coedge $-1 $31 $49 $88 $89 reversed $19 $-1 #
coedge $-1 $90 $83 $31 $52 forward $46 $-1 #
edge $-1 $91 -79.620876412491981 $92 -67.535971087998561 $51 $93 forward 7 unknown #
face $-1 $94 $95 $11 $-1 $96 forward single #
loop $-1 $-1 $97 $32 #
plane-surface $-1 -53.165370494644506 58.72190078955493 162.34503988333816 -1 0 0 0 0.62932039886446345 0.77714595512881146 forward_v I I I I #
loop $-1 $-1 $98 $21 #
coedge $-1 $57 $57 $58 $99 forward $33 $-1 #
coedge $-1 $58 $58 $57 $99 reversed $35 $-1 #
coedge $-1 $59 $59 $36 $60 forward $95 $-1 #
edge $-1 $100 -1.1178975946969833e-015 $100 6.2831853071795996 $59 $101 forward 7 unknown #
face $-1 $102 $103 $9 $-1 $104 reversed single #
loop $-1 $-1 $105 $37 #
plane-surface $-1 -66.662190618610197 0 0 1 0 0 0 0 -1 forward_v I I I I #
coedge $-1 $106 $72 $107 $108 forward $38 $-1 #
coedge $-1 $109 $40 $106 $110 forward $25 $-1 #
coedge $-1 $40 $109 $111 $112 forward $25 $-1 #
coedge $-1 $75 $74 $40 $68 reversed $76 $-1 #
edge $-1 $113 -45.430668431199756 $114 45.430668431199756 $67 $115 forward 7 unknown #
coedge $-1 $42 $41 $116 $117 forward $16 $-1 #
coedge $-1 $118 $119 $41 $71 reversed $103 $-1 #
edge $-1 $78 -66.662190618610197 $120 66.662190618610197 $70 $121 forward 7 unknown #
coedge $-1 $64 $122 $42 $73 reversed $38 $-1 #
edge $-1 $123 -66.662190618610197 $77 66.662190618610197 $72 $124 forward 7 unknown #
coedge $-1 $67 $43 $122 $125 forward $76 $-1 #
coedge $-1 $43 $67 $118 $126 reversed $76 $-1 #
loop $-1 $-1 $74 $102 #
vertex $-1 $44 $127 #
vertex $-1 $44 $128 #
straight-curve $-1 66.662190618610197 0 13.636548853670524 0 1 0 I I #
face $-1 $129 $130 $10 $-1 $131 reversed single #
loop $-1 $-1 $88 $45 #
plane-surface $-1 0 0 13.636548853670524 0 0 1 1 0 0 forward_v I I I I #
coedge $-1 $51 $132 $48 $86 forward $46 $-1 #
coedge $-1 $133 $48 $134 $135 reversed $29 $-1 #
coedge $-1 $48 $133 $49 $87 reversed $29 $-1 #
edge $-1 $136 -36.705300340296517 $91 -23.20848021633083 $83 $137 forward 7 unknown #
edge $-1 $91 -90.861336862399497 $138 -71.658232455964779 $49 $139 forward 7 unknown #
coedge $-1 $140 $141 $50 $89 forward $81 $-1 #
edge $-1 $92 -16.069718036422291 $138 -1.1461031210452894 $88 $142 forward 7 unknown #
coedge $-1 $143 $51 $141 $144 reversed $46 $-1 #
vertex $-1 $86 $145 #
vertex $-1 $89 $146 #
straight-curve $-1 -53.165370494644506 45.430668431199756 81.17251994166908 0 0 1 I I #
face $-1 $147 $148 $11 $-1 $149 reversed single #
loop $-1 $150 $59 $53 #
plane-surface $-1 -59.913780556627351 -25.18185198901039 58.732536284780721 0 0.62932039886446345 0.77714595512881146 1 0 0 forward_v I I I I #
coedge $-1 $151 $152 $153 $154 reversed $54 $-1 #
coedge $-1 $98 $98 $-1 $155 forward $56 $-1 #
edge $-1 $156 0 $156 6.2831853071796004 $57 $157 forward 7 unknown #
vertex $-1 $60 $158 #
ellipse-curve $-1 -59.913780556627351 37.968860973511241 7.5940961914238141 0 -0.62932039886446345 -0.77714595512881146 2.5 0 0 1 I I #
face $-1 $-1 $76 $9 $-1 $159 reversed single #
loop $-1 $-1 $118 $61 #
plane-surface $-1 0 45.430668431199756 0 0 -1 0 0 0 -1 forward_v I I I I #
coedge $-1 $160 $116 $119 $161 forward $62 $-1 #
coedge $-1 $122 $64 $65 $110 reversed $38 $-1 #
coedge $-1 $116 $160 $64 $108 reversed $62 $-1 #
edge $-1 $123 -13.636548853670524 $162 13.636548853670524 $107 $163 forward 7 unknown #
coedge $-1 $66 $65 $160 $164 forward $25 $-1 #
edge $-1 $114 -66.662190618610197 $162 66.662190618610197 $106 $165 forward 7 unknown #
coedge $-1 $119 $118 $66 $112 reversed $103 $-1 #
edge $-1 $166 -66.662190618610197 $113 66.662190618610197 $111 $167 forward 7 unknown #
vertex $-1 $68 $168 #
vertex $-1 $125 $169 #
straight-curve $-1 66.662190618610197 0 -13.636548853670524 0 -1 0 I I #
coedge $-1 $105 $107 $69 $117 reversed $62 $-1 #
edge $-1 $120 -45.430668431199756 $123 45.430668431199756 $116 $170 forward 7 unknown #
coedge $-1 $111 $70 $75 $126 forward $103 $-1 #
coedge $-1 $70 $111 $105 $161 reversed $103 $-1 #
vertex $-1 $71 $171 #
straight-curve $-1 0 45.430668431199756 13.636548853670524 -1 0 0 I I #
coedge $-1 $72 $106 $74 $125 reversed $38 $-1 #
vertex $-1 $117 $172 #
straight-curve $-1 0 -45.430668431199756 13.636548853670524 1 0 0 I I #
edge $-1 $77 -13.636548853670524 $114 13.636548853670524 $74 $173 forward 7 unknown #
edge $-1 $78 -13.636548853670524 $113 13.636548853670524 $75 $174 forward 7 unknown #
point $-1 66.662190618610197 -45.430668431199756 13.636548853670524 #
point $-1 66.662190618610197 45.430668431199756 13.636548853670524 #
face $-1 $175 $176 $10 $-1 $177 reversed single #
loop $-1 $-1 $178 $80 #
plane-surface $-1 0 0 -13.636548853670524 0 0 1 1 0 0 forward_v I I I I #
coedge $-1 $83 $179 $180 $181 reversed $46 $-1 #
coedge $-1 $85 $84 $140 $182 reversed $29 $-1 #
coedge $-1 $180 $183 $84 $135 forward $184 $-1 #
edge $-1 $185 43.392453667478975 $136 62.595558073913693 $134 $186 forward 7 unknown #
vertex $-1 $181 $187 #
straight-curve $-1 -29.956890278313676 45.430668431199749 1.5516435291770989 1 0 0 I I #
vertex $-1 $182 $188 #
straight-curve $-1 -53.165370494644506 -25.18185198901039 58.732536284780721 0 -0.77714595512881146 0.62932039886446345 I I #
coedge $-1 $189 $88 $133 $182 forward $81 $-1 #
coedge $-1 $88 $190 $90 $144 forward $81 $-1 #
straight-curve $-1 -53.165370494644506 29.360950394777465 13.636548853670519 0 -1 0 I I #
coedge $-1 $179 $90 $191 $192 forward $46 $-1 #
edge $-1 $193 -66.662190618610197 $92 53.165370494644506 $90 $194 forward 7 unknown #
point $-1 -53.165370494644506 45.430668431199756 1.5516435291770918 #
point $-1 -53.165370494644506 45.430668431199756 13.636548853670524 #
face $-1 $195 $196 $11 $-1 $197 forward single #
loop $-1 $-1 $198 $94 #
plane-surface $-1 0 45.430668431199756 0 0 -1 0 0 0 -1 forward_v I I I I #
loop $-1 $-1 $199 $53 #
coedge $-1 $152 $97 $200 $201 forward $54 $-1 #
coedge $-1 $97 $151 $202 $203 reversed $54 $-1 #
coedge $-1 $204 $198 $97 $154 forward $148 $-1 #
edge $-1 $205 -79.620876412491981 $206 -67.535971087998561 $153 $207 forward 7 unknown #
edge $-1 $208 1 $208 0 $98 $-1 forward 7 unknown #
vertex $-1 $99 $209 #
ellipse-curve $-1 -59.913780556627351 33.459935019337436 2.0260364660689336 0 0.62932039886446345 0.77714595512881146 2.5 0 0 1 I I #
point $-1 -57.413780556627351 37.968860973511241 7.5940961914238096 #
plane-surface $-1 66.662190618610197 0 0 -1 0 0 0 0 1 forward_v I I I I #
coedge $-1 $107 $105 $109 $164 reversed $62 $-1 #
edge $-1 $120 -13.636548853670524 $166 13.636548853670524 $119 $210 forward 7 unknown #
vertex $-1 $164 $211 #
straight-curve $-1 -66.662190618610197 -45.430668431199756 0 0 0 -1 I I #
edge $-1 $162 -45.430668431199756 $166 45.430668431199756 $160 $212 forward 7 unknown #
straight-curve $-1 0 -45.430668431199756 -13.636548853670524 -1 0 0 I I #
vertex $-1 $112 $213 #
straight-curve $-1 0 45.430668431199756 -13.636548853670524 1 0 0 I I #
point $-1 66.662190618610197 45.430668431199756 -13.636548853670524 #
point $-1 66.662190618610197 -45.430668431199756 -13.636548853670524 #
straight-curve $-1 -66.662190618610197 0 13.636548853670524 0 -1 0 I I #
point $-1 -66.662190618610197 45.430668431199756 13.636548853670524 #
point $-1 -66.662190618610197 -45.430668431199756 13.636548853670524 #
straight-curve $-1 66.662190618610197 -45.430668431199756 0 0 0 -1 I I #
straight-curve $-1 66.662190618610197 45.430668431199756 0 0 0 -1 I I #
face $-1 $214 $184 $10 $-1 $215 reversed single #
loop $-1 $-1 $216 $129 #
plane-surface $-1 0 -45.430668431199756 0 0 1 0 0 0 1 forward_v I I I I #
coedge $-1 $217 $218 $219 $220 forward $130 $-1 #
coedge $-1 $132 $143 $218 $221 reversed $46 $-1 #
coedge $-1 $222 $134 $132 $181 forward $184 $-1 #
edge $-1 $136 -1.5516435291770958 $223 13.636548853670524 $132 $224 forward 7 unknown #
edge $-1 $138 23.20848021633083 $185 36.705300340296517 $140 $225 forward 7 unknown #
coedge $-1 $134 $226 $189 $227 reversed $184 $-1 #
loop $-1 $-1 $134 $175 #
vertex $-1 $227 $228 #
straight-curve $-1 -66.662190618610197 -3.2152163349728866 40.944305103396147 0 0.77714595512881146 -0.62932039886446345 I I #
point $-1 -66.662190618610197 45.430668431199756 1.5516435291770958 #
point $-1 -53.165370494644506 30.507053515822754 13.636548853670526 #
coedge $-1 $229 $140 $183 $227 forward $81 $-1 #
coedge $-1 $141 $229 $230 $231 forward $81 $-1 #
coedge $-1 $230 $219 $143 $192 reversed $232 $-1 #
edge $-1 $193 -13.636548853670524 $233 13.636548853670524 $191 $234 forward 7 unknown #
vertex $-1 $231 $235 #
straight-curve $-1 0 45.430668431199756 13.636548853670524 -1 0 0 I I #
face $-1 $236 $237 $11 $-1 $238 reversed single #
loop $-1 $-1 $202 $147 #
plane-surface $-1 0 0 13.636548853670524 0 0 1 1 0 0 forward_v I I I I #
coedge $-1 $153 $239 $199 $240 forward $148 $-1 #
coedge $-1 $241 $200 $198 $240 reversed $150 $-1 #
coedge $-1 $199 $242 $151 $201 reversed $150 $-1 #
edge $-1 $205 -90.861336862399497 $243 -71.658232455964779 $151 $244 forward 7 unknown #
coedge $-1 $245 $246 $152 $203 forward $196 $-1 #
edge $-1 $206 -16.069718036422291 $243 -1.1461031210452894 $202 $247 forward 7 unknown #
coedge $-1 $248 $153 $246 $249 reversed $148 $-1 #
vertex $-1 $240 $250 #
vertex $-1 $203 $251 #
straight-curve $-1 -53.165370494644506 45.430668431199756 81.17251994166908 0 0 1 I I #
vertex $-1 $155 $252 #
point $-1 -57.413780556627351 33.459935019337436 2.0260364660689336 #
straight-curve $-1 -66.662190618610197 45.430668431199756 0 0 0 -1 I I #
point $-1 -66.662190618610197 -45.430668431199756 -13.636548853670524 #
straight-curve $-1 -66.662190618610197 0 -13.636548853670524 0 1 0 I I #
point $-1 -66.662190618610197 45.430668431199756 -13.636548853670524 #
face $-1 $-1 $232 $10 $-1 $253 reversed single #
plane-surface $-1 -66.662190618610197 0 0 1 0 0 0 0 -1 forward_v I I I I #
coedge $-1 $254 $255 $226 $256 forward $176 $-1 #
coedge $-1 $257 $178 $254 $258 forward $130 $-1 #
coedge $-1 $178 $257 $179 $221 forward $130 $-1 #
coedge $-1 $191 $259 $178 $220 reversed $232 $-1 #
edge $-1 $233 -45.430668431199756 $260 45.430668431199756 $219 $261 forward 7 unknown #
edge $-1 $223 -66.662190618610197 $233 66.662190618610197 $179 $262 forward 7 unknown #
coedge $-1 $226 $180 $257 $263 reversed $184 $-1 #
vertex $-1 $221 $264 #
straight-curve $-1 -66.662190618610197 45.430668431199756 0 0 0 -1 I I #
straight-curve $-1 -29.956890278313676 30.507053515822761 13.636548853670522 -1 0 0 I I #
coedge $-1 $183 $222 $216 $256 reversed $184 $-1 #
edge $-1 $185 -30.507053515822754 $265 45.430668431199756 $183 $266 forward 7 unknown #
point $-1 -66.662190618610197 30.507053515822754 13.636548853670526 #
coedge $-1 $190 $189 $255 $267 forward $81 $-1 #
coedge $-1 $259 $191 $190 $231 reversed $232 $-1 #
edge $-1 $268 -45.430668431199756 $193 45.430668431199756 $230 $269 forward 7 unknown #
loop $-1 $-1 $259 $214 #
vertex $-1 $220 $270 #
straight-curve $-1 66.662190618610197 45.430668431199756 0 0 0 -1 I I #
point $-1 66.662190618610197 45.430668431199756 13.636548853670524 #
face $-1 $271 $272 $11 $-1 $273 reversed single #
loop $-1 $-1 $274 $195 #
plane-surface $-1 0 0 -13.636548853670524 0 0 1 1 0 0 forward_v I I I I #
coedge $-1 $198 $275 $276 $277 reversed $148 $-1 #
edge $-1 $278 -36.705300340296517 $205 -23.20848021633083 $198 $279 forward 7 unknown #
coedge $-1 $242 $199 $280 $281 reversed $150 $-1 #
coedge $-1 $200 $241 $245 $282 reversed $150 $-1 #
vertex $-1 $282 $283 #
straight-curve $-1 -53.165370494644506 -25.18185198901039 58.732536284780721 0 -0.77714595512881146 0.62932039886446345 I I #
coedge $-1 $284 $202 $242 $282 forward $196 $-1 #
coedge $-1 $202 $285 $204 $249 forward $196 $-1 #
straight-curve $-1 -53.165370494644506 29.360950394777465 13.636548853670519 0 -1 0 I I #
coedge $-1 $275 $204 $286 $287 forward $148 $-1 #
edge $-1 $288 -66.662190618610197 $206 53.165370494644506 $204 $289 forward 7 unknown #
point $-1 -53.165370494644506 45.430668431199756 1.5516435291770918 #
point $-1 -53.165370494644506 45.430668431199756 13.636548853670524 #
point $-1 -59.913780556627351 31.886634022176281 0.08317157824690502 #
plane-surface $-1 66.662190618610197 0 0 -1 0 0 0 0 1 forward_v I I I I #
coedge $-1 $290 $216 $217 $258 reversed $176 $-1 #
coedge $-1 $216 $290 $229 $267 reversed $176 $-1 #
edge $-1 $265 -13.636548853670524 $291 13.636548853670524 $226 $292 forward 7 unknown #
coedge $-1 $218 $217 $222 $263 forward $130 $-1 #
edge $-1 $260 -66.662190618610197 $291 66.662190618610197 $254 $293 forward 7 unknown #
coedge $-1 $219 $230 $290 $294 forward $232 $-1 #
vertex $-1 $294 $295 #
straight-curve $-1 66.662190618610197 0 -13.636548853670524 0 -1 0 I I #
straight-curve $-1 0 45.430668431199756 -13.636548853670524 1 0 0 I I #
edge $-1 $291 -45.430668431199756 $223 45.430668431199756 $222 $296 forward 7 unknown #
point $-1 -66.662190618610197 45.430668431199756 -13.636548853670524 #
vertex $-1 $227 $297 #
straight-curve $-1 -66.662190618610197 0 13.636548853670524 0 -1 0 I I #
edge $-1 $265 -66.662190618610197 $268 66.662190618610197 $255 $298 forward 7 unknown #
vertex $-1 $231 $299 #
straight-curve $-1 66.662190618610197 0 13.636548853670524 0 1 0 I I #
point $-1 66.662190618610197 45.430668431199756 -13.636548853670524 #
face $-1 $300 $301 $11 $-1 $302 reversed single #
loop $-1 $-1 $303 $236 #
plane-surface $-1 0 -45.430668431199756 0 0 1 0 0 0 1 forward_v I I I I #
coedge $-1 $304 $305 $306 $307 forward $237 $-1 #
coedge $-1 $239 $248 $305 $308 reversed $148 $-1 #
coedge $-1 $309 $280 $239 $277 forward $301 $-1 #
edge $-1 $278 -1.5516435291770958 $310 13.636548853670524 $239 $311 forward 7 unknown #
vertex $-1 $277 $312 #
straight-curve $-1 -29.956890278313676 45.430668431199749 1.5516435291770989 1 0 0 I I #
coedge $-1 $276 $313 $241 $281 forward $301 $-1 #
edge $-1 $314 43.392453667478975 $278 62.595558073913693 $280 $315 forward 7 unknown #
edge $-1 $243 23.20848021633083 $314 36.705300340296517 $245 $316 forward 7 unknown #
point $-1 -53.165370494644506 30.507053515822754 13.636548853670526 #
coedge $-1 $317 $245 $313 $318 forward $196 $-1 #
coedge $-1 $246 $317 $319 $320 forward $196 $-1 #
coedge $-1 $319 $306 $248 $287 reversed $321 $-1 #
edge $-1 $288 -13.636548853670524 $322 13.636548853670524 $286 $323 forward 7 unknown #
vertex $-1 $320 $324 #
straight-curve $-1 0 45.430668431199756 13.636548853670524 -1 0 0 I I #
coedge $-1 $255 $254 $259 $294 reversed $176 $-1 #
vertex $-1 $263 $325 #
straight-curve $-1 -66.662190618610197 -45.430668431199756 0 0 0 -1 I I #
straight-curve $-1 0 -45.430668431199756 -13.636548853670524 -1 0 0 I I #
edge $-1 $268 -13.636548853670524 $260 13.636548853670524 $259 $326 forward 7 unknown #
point $-1 66.662190618610197 -45.430668431199756 -13.636548853670524 #
straight-curve $-1 -66.662190618610197 0 -13.636548853670524 0 1 0 I I #
point $-1 -66.662190618610197 -45.430668431199756 13.636548853670524 #
straight-curve $-1 0 -45.430668431199756 13.636548853670524 1 0 0 I I #
point $-1 66.662190618610197 -45.430668431199756 13.636548853670524 #
face $-1 $-1 $321 $11 $-1 $327 reversed single #
loop $-1 $-1 $280 $271 #
plane-surface $-1 -66.662190618610197 0 0 1 0 0 0 0 -1 forward_v I I I I #
coedge $-1 $328 $329 $330 $331 forward $272 $-1 #
coedge $-1 $332 $274 $328 $333 forward $237 $-1 #
coedge $-1 $274 $332 $275 $308 forward $237 $-1 #
coedge $-1 $286 $334 $274 $307 reversed $321 $-1 #
edge $-1 $322 -45.430668431199756 $335 45.430668431199756 $306 $336 forward 7 unknown #
edge $-1 $310 -66.662190618610197 $322 66.662190618610197 $275 $337 forward 7 unknown #
coedge $-1 $330 $276 $332 $338 reversed $301 $-1 #
vertex $-1 $308 $339 #
straight-curve $-1 -66.662190618610197 45.430668431199756 0 0 0 -1 I I #
point $-1 -66.662190618610197 45.430668431199756 1.5516435291770958 #
coedge $-1 $280 $330 $284 $318 reversed $301 $-1 #
vertex $-1 $318 $340 #
straight-curve $-1 -66.662190618610197 -3.2152163349728866 40.944305103396147 0 0.77714595512881146 -0.62932039886446345 I I #
straight-curve $-1 -29.956890278313676 30.507053515822761 13.636548853670522 -1 0 0 I I #
coedge $-1 $285 $284 $329 $341 forward $196 $-1 #
edge $-1 $314 -30.507053515822754 $342 45.430668431199756 $313 $343 forward 7 unknown #
coedge $-1 $334 $286 $285 $320 reversed $321 $-1 #
edge $-1 $344 -45.430668431199756 $288 45.430668431199756 $319 $345 forward 7 unknown #
loop $-1 $-1 $334 $300 #
vertex $-1 $307 $346 #
straight-curve $-1 66.662190618610197 45.430668431199756 0 0 0 -1 I I #
point $-1 66.662190618610197 45.430668431199756 13.636548853670524 #
point $-1 -66.662190618610197 -45.430668431199756 -13.636548853670524 #
straight-curve $-1 66.662190618610197 -45.430668431199756 0 0 0 -1 I I #
plane-surface $-1 66.662190618610197 0 0 -1 0 0 0 0 1 forward_v I I I I #
coedge $-1 $347 $303 $304 $333 reversed $272 $-1 #
coedge $-1 $303 $347 $317 $341 reversed $272 $-1 #
coedge $-1 $313 $309 $303 $331 reversed $301 $-1 #
edge $-1 $342 -13.636548853670524 $348 13.636548853670524 $330 $349 forward 7 unknown #
coedge $-1 $305 $304 $309 $338 forward $237 $-1 #
edge $-1 $335 -66.662190618610197 $348 66.662190618610197 $328 $350 forward 7 unknown #
coedge $-1 $306 $319 $347 $351 forward $321 $-1 #
vertex $-1 $351 $352 #
straight-curve $-1 66.662190618610197 0 -13.636548853670524 0 -1 0 I I #
straight-curve $-1 0 45.430668431199756 -13.636548853670524 1 0 0 I I #
edge $-1 $348 -45.430668431199756 $310 45.430668431199756 $309 $353 forward 7 unknown #
point $-1 -66.662190618610197 45.430668431199756 -13.636548853670524 #
point $-1 -66.662190618610197 30.507053515822754 13.636548853670526 #
edge $-1 $342 -66.662190618610197 $344 66.662190618610197 $329 $354 forward 7 unknown #
vertex $-1 $318 $355 #
straight-curve $-1 -66.662190618610197 0 13.636548853670524 0 -1 0 I I #
vertex $-1 $320 $356 #
straight-curve $-1 66.662190618610197 0 13.636548853670524 0 1 0 I I #
point $-1 66.662190618610197 45.430668431199756 -13.636548853670524 #
coedge $-1 $329 $328 $334 $351 reversed $272 $-1 #
vertex $-1 $338 $357 #
straight-curve $-1 -66.662190618610197 -45.430668431199756 0 0 0 -1 I I #
straight-curve $-1 0 -45.430668431199756 -13.636548853670524 -1 0 0 I I #
edge $-1 $344 -13.636548853670524 $335 13.636548853670524 $334 $358 forward 7 unknown #
point $-1 66.662190618610197 -45.430668431199756 -13.636548853670524 #
straight-curve $-1 -66.662190618610197 0 -13.636548853670524 0 1 0 I I #
straight-curve $-1 0 -45.430668431199756 13.636548853670524 1 0 0 I I #
point $-1 -66.662190618610197 -45.430668431199756 13.636548853670524 #
point $-1 66.662190618610197 -45.430668431199756 13.636548853670524 #
point $-1 -66.662190618610197 -45.430668431199756 -13.636548853670524 #
straight-curve $-1 66.662190618610197 -45.430668431199756 0 0 0 -1 I I #
End-of-ACIS-data 