500 0 8 0           
7 Unknown 11 ACIS 5.0 NT 24 Fri Mar 26 19:28:03 1999 
-1 9.9999999999999995e-007 1e-010 
body $-1 $8 $-1 $9 #
body $-1 $10 $-1 $11 #
body $-1 $12 $-1 $13 #
body $-1 $14 $-1 $15 #
body $-1 $16 $-1 $17 #
body $-1 $18 $-1 $19 #
body $-1 $20 $-1 $21 #
body $-1 $22 $-1 $23 #
lump $-1 $-1 $24 $0 #
transform $-1 1 0 0 0 1 0 0 0 1 45.540940580462049 18.227216996872695 8.3059080962188983 1 rotate no_reflect no_shear #
lump $-1 $-1 $25 $1 #
transform $-1 1 0 0 0 1 0 0 0 1 45.540940580462049 18.227216996872695 8.3059080962188983 1 rotate no_reflect no_shear #
lump $-1 $-1 $26 $2 #
transform $-1 1 0 0 0 1 0 0 0 1 45.540940580462049 18.227216996872695 8.3059080962188983 1 rotate no_reflect no_shear #
lump $-1 $-1 $27 $3 #
transform $-1 1 0 0 0 1 0 0 0 1 45.540940580462049 18.227216996872695 8.3059080962188983 1 rotate no_reflect no_shear #
lump $-1 $-1 $28 $4 #
transform $-1 1 0 0 0 1 0 0 0 1 45.540940580462049 18.227216996872695 8.3059080962188983 1 rotate no_reflect no_shear #
lump $-1 $-1 $29 $5 #
transform $-1 1 0 0 0 1 0 0 0 1 45.540940580462049 18.227216996872695 8.3059080962188983 1 rotate no_reflect no_shear #
lump $-1 $-1 $30 $6 #
transform $-1 1 0 0 0 1 0 0 0 1 45.540940580462049 18.227216996872695 8.3059080962188983 1 rotate no_reflect no_shear #
lump $-1 $-1 $31 $7 #
transform $-1 1 0 0 0 1 0 0 0 1 45.540940580462049 18.227216996872695 8.3059080962188983 1 rotate no_reflect no_shear #
shell $-1 $-1 $-1 $32 $-1 $8 #
shell $-1 $-1 $-1 $33 $-1 $10 #
shell $-1 $-1 $-1 $34 $-1 $12 #
shell $-1 $-1 $-1 $35 $-1 $14 #
shell $-1 $-1 $-1 $36 $-1 $16 #
shell $-1 $-1 $-1 $37 $-1 $18 #
shell $-1 $-1 $-1 $38 $-1 $20 #
shell $-1 $-1 $-1 $39 $-1 $22 #
face $-1 $40 $41 $24 $-1 $42 forward single #
face $-1 $43 $44 $25 $-1 $45 forward single #
face $-1 $46 $47 $26 $-1 $48 reversed single #
face $-1 $49 $50 $27 $-1 $51 forward single #
face $-1 $52 $53 $28 $-1 $54 forward single #
face $-1 $55 $56 $29 $-1 $57 reversed single #
face $-1 $58 $59 $30 $-1 $60 forward single #
face $-1 $61 $62 $31 $-1 $63 forward single #
face $-1 $64 $65 $24 $-1 $66 reversed single #
loop $-1 $-1 $67 $32 #
plane-surface $-1 0 0 8.3059080962188983 0 0 1 1 0 0 forward_v I I I I #
face $-1 $68 $69 $25 $-1 $70 reversed single #
loop $-1 $-1 $71 $33 #
plane-surface $-1 -45.540940580462049 0 0 1 0 0 0 0 -1 forward_v I I I I #
face $-1 $72 $73 $26 $-1 $74 reversed single #
loop $-1 $-1 $75 $34 #
plane-surface $-1 -13.971689253072931 55.274883902519974 93.434997147662614 1 0 0 0 -0.69465837861970381 -0.71933979245794832 forward_v I I I I #
face $-1 $76 $77 $27 $-1 $78 forward single #
loop $-1 $79 $80 $35 #
cone-surface $-1 -8.498772075381865 14.415896517866932 4.5657648866554457 0 -0.69465837861970381 -0.71933979245794832 1.5 0 0 1 I I 0 1 1.5 forward I I I I #
face $-1 $81 $82 $28 $-1 $83 forward single #
loop $-1 $84 $85 $36 #
cone-surface $-1 -0.28939630884526224 14.415896517866932 4.5657648866554457 0 -0.69465837861970381 -0.71933979245794832 1.5 0 0 1 I I 0 1 1.5 forward I I I I #
face $-1 $86 $87 $29 $-1 $88 reversed single #
loop $-1 $-1 $89 $37 #
plane-surface $-1 26.385730458543307 55.274883902519974 93.434997147662614 1 0 0 0 -0.69465837861970381 -0.71933979245794832 forward_v I I I I #
face $-1 $90 $91 $30 $-1 $92 forward single #
loop $-1 $93 $94 $38 #
cone-surface $-1 31.858647636234366 14.415896517866932 4.5657648866554457 0 -0.69465837861970381 -0.71933979245794832 1.5 0 0 1 I I 0 1 1.5 forward I I I I #
face $-1 $95 $96 $31 $-1 $97 forward single #
loop $-1 $98 $99 $39 #
cone-surface $-1 40.068023402770976 14.415896517866932 4.5657648866554457 0 -0.69465837861970381 -0.71933979245794832 1.5 0 0 1 I I 0 1 1.5 forward I I I I #
face $-1 $100 $101 $24 $-1 $102 reversed single #
loop $-1 $-1 $103 $40 #
plane-surface $-1 0 0 -8.3059080962188983 0 0 1 1 0 0 forward_v I I I I #
coedge $-1 $104 $105 $106 $107 forward $41 $-1 #
face $-1 $108 $109 $25 $-1 $110 forward single #
loop $-1 $-1 $111 $43 #
plane-surface $-1 0 18.227216996872695 0 0 -1 0 0 0 -1 forward_v I I I I #
coedge $-1 $112 $113 $114 $115 forward $44 $-1 #
face $-1 $116 $117 $26 $-1 $118 reversed single #
loop $-1 $-1 $119 $46 #
plane-surface $-1 -4.3940841921135601 -7.9959079863601019 27.916175656683961 0 0.69465837861970381 0.71933979245794832 1 0 0 forward_v I I I I #
coedge $-1 $120 $121 $122 $123 reversed $47 $-1 #
face $-1 $-1 $124 $27 $-1 $125 forward single #
loop $-1 $126 $127 $49 #
cone-surface $-1 -8.498772075381865 13.041631716827968 3.1426720583130869 0 -0.69465837861970381 -0.71933979245794832 0.75 0 0 1 I I -0.70710678118654724 0.70710678118654768 0.75 forward I I I I #
loop $-1 $-1 $128 $35 #
coedge $-1 $80 $80 $129 $130 reversed $50 $-1 #
face $-1 $-1 $131 $28 $-1 $132 forward single #
loop $-1 $133 $134 $52 #
cone-surface $-1 -0.28939630884526224 13.041631716827968 3.1426720583130869 0 -0.69465837861970381 -0.71933979245794832 0.75 0 0 1 I I -0.70710678118654724 0.70710678118654768 0.75 forward I I I I #
loop $-1 $-1 $135 $36 #
coedge $-1 $85 $85 $136 $137 reversed $53 $-1 #
face $-1 $138 $139 $29 $-1 $140 forward single #
loop $-1 $-1 $141 $55 #
plane-surface $-1 35.963335519502678 -7.9959079863601019 27.916175656683961 0 0.69465837861970381 0.71933979245794832 1 0 0 forward_v I I I I #
coedge $-1 $142 $143 $144 $145 reversed $56 $-1 #
face $-1 $-1 $146 $30 $-1 $147 forward single #
loop $-1 $148 $149 $58 #
cone-surface $-1 31.858647636234366 13.041631716827968 3.1426720583130869 0 -0.69465837861970381 -0.71933979245794832 0.75 0 0 1 I I -0.70710678118654724 0.70710678118654768 0.75 forward I I I I #
loop $-1 $-1 $150 $38 #
coedge $-1 $94 $94 $151 $152 reversed $59 $-1 #
face $-1 $-1 $153 $31 $-1 $154 forward single #
loop $-1 $155 $156 $61 #
cone-surface $-1 40.068023402770976 13.041631716827968 3.1426720583130869 0 -0.69465837861970381 -0.71933979245794832 0.75 0 0 1 I I -0.70710678118654724 0.70710678118654768 0.75 forward I I I I #
loop $-1 $-1 $157 $39 #
coedge $-1 $99 $99 $158 $159 reversed $62 $-1 #
face $-1 $160 $161 $24 $-1 $162 reversed single #
loop $-1 $-1 $163 $64 #
plane-surface $-1 0 -18.227216996872695 0 0 1 0 0 0 1 forward_v I I I I #
coedge $-1 $164 $165 $166 $167 forward $65 $-1 #
coedge $-1 $168 $67 $169 $170 forward $41 $-1 #
coedge $-1 $67 $168 $171 $172 forward $41 $-1 #
coedge $-1 $173 $174 $67 $107 reversed $175 $-1 #
edge $-1 $176 -18.227216996872695 $177 18.227216996872695 $106 $178 forward 7 unknown #
face $-1 $179 $180 $25 $-1 $181 reversed single #
loop $-1 $-1 $114 $68 #
plane-surface $-1 -50.724461449307867 0 1.1076430434962763 0 0 1 1 0 0 forward_v I I I I #
coedge $-1 $182 $183 $113 $184 forward $69 $-1 #
coedge $-1 $185 $71 $186 $187 reversed $44 $-1 #
coedge $-1 $71 $185 $111 $184 reversed $44 $-1 #
coedge $-1 $188 $189 $71 $115 reversed $109 $-1 #
edge $-1 $190 -18.227216996872695 $191 18.227216996872695 $114 $192 forward 7 unknown #
face $-1 $193 $194 $26 $-1 $195 forward single #
loop $-1 $-1 $196 $72 #
plane-surface $-1 5.183520868845811 55.274883902519974 93.434997147662614 -1 0 0 0 0.69465837861970381 0.71933979245794832 forward_v I I I I #
coedge $-1 $197 $198 $199 $200 reversed $73 $-1 #
coedge $-1 $121 $75 $201 $202 reversed $47 $-1 #
coedge $-1 $75 $120 $197 $203 reversed $47 $-1 #
coedge $-1 $199 $204 $75 $123 forward $194 $-1 #
edge $-1 $205 9.4102249543872922 $206 15.32632387825047 $122 $207 forward 7 unknown #
loop $-1 $-1 $129 $76 #
plane-surface $-1 -4.3940841921135601 -7.9959079863601019 27.916175656683961 0 0.69465837861970381 0.71933979245794832 1 0 0 forward_v I I I I #
loop $-1 $-1 $208 $49 #
coedge $-1 $127 $127 $128 $209 reversed $77 $-1 #
coedge $-1 $128 $128 $127 $209 forward $79 $-1 #
coedge $-1 $129 $129 $80 $130 forward $124 $-1 #
edge $-1 $210 1.4614332759211276e-016 $210 6.2831853071796004 $129 $211 forward 7 unknown #
loop $-1 $-1 $136 $81 #
plane-surface $-1 -4.3940841921135601 -7.9959079863601019 27.916175656683961 0 0.69465837861970381 0.71933979245794832 1 0 0 forward_v I I I I #
loop $-1 $-1 $212 $52 #
coedge $-1 $134 $134 $135 $213 reversed $82 $-1 #
coedge $-1 $135 $135 $134 $213 forward $84 $-1 #
coedge $-1 $136 $136 $85 $137 forward $131 $-1 #
edge $-1 $214 1.4614332759211276e-016 $214 6.2831853071796004 $136 $215 forward 7 unknown #
face $-1 $216 $217 $29 $-1 $218 reversed single #
loop $-1 $-1 $144 $86 #
plane-surface $-1 0 0 8.3059080962188983 0 0 1 1 0 0 forward_v I I I I #
coedge $-1 $219 $220 $221 $222 reversed $87 $-1 #
coedge $-1 $143 $89 $223 $224 reversed $56 $-1 #
coedge $-1 $89 $142 $219 $225 reversed $56 $-1 #
coedge $-1 $221 $226 $89 $145 forward $139 $-1 #
edge $-1 $227 9.4102249543872922 $228 15.32632387825047 $144 $229 forward 7 unknown #
loop $-1 $-1 $151 $90 #
plane-surface $-1 35.963335519502678 -7.9959079863601019 27.916175656683961 0 0.69465837861970381 0.71933979245794832 1 0 0 forward_v I I I I #
loop $-1 $-1 $230 $58 #
coedge $-1 $149 $149 $150 $231 reversed $91 $-1 #
coedge $-1 $150 $150 $149 $231 forward $93 $-1 #
coedge $-1 $151 $151 $94 $152 forward $146 $-1 #
edge $-1 $232 1.4614332759211276e-016 $232 6.2831853071796004 $151 $233 forward 7 unknown #
loop $-1 $-1 $158 $95 #
plane-surface $-1 35.963335519502678 -7.9959079863601019 27.916175656683961 0 0.69465837861970381 0.71933979245794832 1 0 0 forward_v I I I I #
loop $-1 $-1 $234 $61 #
coedge $-1 $156 $156 $157 $235 reversed $96 $-1 #
coedge $-1 $157 $157 $156 $235 forward $98 $-1 #
coedge $-1 $158 $158 $99 $159 forward $153 $-1 #
edge $-1 $236 1.4614332759211276e-016 $236 6.2831853071796004 $158 $237 forward 7 unknown #
face $-1 $238 $239 $24 $-1 $240 reversed single #
loop $-1 $-1 $241 $100 #
plane-surface $-1 -45.540940580462049 0 0 1 0 0 0 0 -1 forward_v I I I I #
coedge $-1 $242 $171 $243 $244 forward $101 $-1 #
coedge $-1 $245 $103 $242 $246 forward $65 $-1 #
coedge $-1 $103 $245 $247 $248 forward $65 $-1 #
coedge $-1 $174 $173 $103 $167 reversed $175 $-1 #
edge $-1 $249 -18.227216996872695 $250 18.227216996872695 $166 $251 forward 7 unknown #
coedge $-1 $105 $104 $252 $253 forward $41 $-1 #
coedge $-1 $254 $255 $104 $170 reversed $239 $-1 #
edge $-1 $177 -45.540940580462049 $256 45.540940580462049 $169 $257 forward 7 unknown #
coedge $-1 $163 $258 $105 $172 reversed $101 $-1 #
edge $-1 $259 -45.540940580462049 $176 45.540940580462049 $171 $260 forward 7 unknown #
coedge $-1 $166 $106 $258 $261 forward $175 $-1 #
coedge $-1 $106 $166 $254 $262 reversed $175 $-1 #
loop $-1 $-1 $173 $238 #
vertex $-1 $107 $263 #
vertex $-1 $107 $264 #
straight-curve $-1 45.540940580462049 0 8.3059080962188983 0 1 0 I I #
face $-1 $265 $266 $25 $-1 $267 reversed single #
loop $-1 $-1 $268 $108 #
plane-surface $-1 -50.724461449307867 0 -1.8923569565037237 0 0 1 1 0 0 forward_v I I I I #
coedge $-1 $269 $111 $270 $271 reversed $69 $-1 #
coedge $-1 $111 $269 $188 $272 reversed $69 $-1 #
edge $-1 $190 -1.1076430434962763 $273 1.8923569565037237 $111 $274 forward 7 unknown #
coedge $-1 $113 $112 $268 $275 forward $44 $-1 #
coedge $-1 $276 $277 $112 $187 forward $278 $-1 #
edge $-1 $279 -1.8923569565037237 $191 1.1076430434962763 $186 $280 forward 7 unknown #
coedge $-1 $281 $114 $183 $272 forward $109 $-1 #
coedge $-1 $114 $281 $276 $282 forward $109 $-1 #
vertex $-1 $184 $283 #
vertex $-1 $282 $284 #
straight-curve $-1 -45.540940580462049 0 1.1076430434962763 0 -1 0 I I #
face $-1 $-1 $285 $26 $-1 $286 reversed single #
loop $-1 $-1 $122 $116 #
plane-surface $-1 0 0 8.3059080962188983 0 0 1 1 0 0 forward_v I I I I #
coedge $-1 $287 $288 $289 $290 reversed $117 $-1 #
coedge $-1 $291 $119 $121 $203 forward $73 $-1 #
coedge $-1 $119 $291 $287 $292 forward $73 $-1 #
coedge $-1 $289 $122 $119 $200 forward $194 $-1 #
edge $-1 $206 -11.774647157016151 $293 7.380562964902591 $199 $294 forward 7 unknown #
coedge $-1 $295 $296 $120 $202 forward $285 $-1 #
edge $-1 $297 -44.124700928741547 $205 -38.411590477612407 $201 $298 forward 7 unknown #
edge $-1 $206 28.230088578836323 $297 36.454433993745404 $121 $299 forward 7 unknown #
coedge $-1 $122 $289 $295 $300 forward $194 $-1 #
vertex $-1 $202 $301 #
vertex $-1 $123 $302 #
straight-curve $-1 -13.971689253072931 27.637441951259987 8.3059080962189 0 -1 0 I I #
coedge $-1 $208 $208 $-1 $303 reversed $126 $-1 #
edge $-1 $304 0 $304 6.2831853071796004 $127 $305 forward 7 unknown #
vertex $-1 $130 $306 #
ellipse-curve $-1 -8.498772075381865 15.269167534941106 5.4493528706543328 0 0.69465837861970381 0.71933979245794832 1.5 0 0 1 I I #
coedge $-1 $212 $212 $-1 $307 reversed $133 $-1 #
edge $-1 $308 0 $308 6.2831853071796004 $134 $309 forward 7 unknown #
vertex $-1 $137 $310 #
ellipse-curve $-1 -0.28939630884526224 15.269167534941106 5.4493528706543328 0 0.69465837861970381 0.71933979245794832 1.5 0 0 1 I I #
face $-1 $-1 $311 $29 $-1 $312 reversed single #
loop $-1 $-1 $313 $138 #
plane-surface $-1 45.540940580462049 0 0 -1 0 0 0 0 1 forward_v I I I I #
coedge $-1 $314 $141 $143 $225 forward $87 $-1 #
coedge $-1 $141 $314 $313 $315 reversed $87 $-1 #
coedge $-1 $316 $144 $141 $222 forward $139 $-1 #
edge $-1 $228 8.404062698791968 $317 27.55927282071071 $221 $318 forward 7 unknown #
coedge $-1 $319 $320 $142 $224 forward $311 $-1 #
edge $-1 $321 -44.124700928741547 $227 -38.411590477612407 $223 $322 forward 7 unknown #
edge $-1 $228 28.230088578836323 $321 36.454433993745404 $143 $323 forward 7 unknown #
coedge $-1 $144 $316 $319 $324 forward $139 $-1 #
vertex $-1 $224 $325 #
vertex $-1 $145 $326 #
straight-curve $-1 26.385730458543307 27.637441951259987 8.3059080962189 0 -1 0 I I #
coedge $-1 $230 $230 $-1 $327 reversed $148 $-1 #
edge $-1 $328 0 $328 6.2831853071796004 $149 $329 forward 7 unknown #
vertex $-1 $152 $330 #
ellipse-curve $-1 31.858647636234366 15.269167534941106 5.4493528706543328 0 0.69465837861970381 0.71933979245794832 1.5 0 0 1 I I #
coedge $-1 $234 $234 $-1 $331 reversed $155 $-1 #
edge $-1 $332 0 $332 6.2831853071796004 $156 $333 forward 7 unknown #
vertex $-1 $159 $334 #
ellipse-curve $-1 40.068023402770976 15.269167534941106 5.4493528706543328 0 0.69465837861970381 0.71933979245794832 1.5 0 0 1 I I #
face $-1 $-1 $175 $24 $-1 $335 reversed single #
loop $-1 $-1 $254 $160 #
plane-surface $-1 0 18.227216996872695 0 0 -1 0 0 0 -1 forward_v I I I I #
coedge $-1 $336 $252 $255 $337 forward $161 $-1 #
coedge $-1 $258 $163 $164 $246 reversed $101 $-1 #
coedge $-1 $252 $336 $163 $244 reversed $161 $-1 #
edge $-1 $259 -8.3059080962188983 $338 8.3059080962188983 $243 $339 forward 7 unknown #
coedge $-1 $165 $164 $336 $340 forward $65 $-1 #
edge $-1 $250 -45.540940580462049 $338 45.540940580462049 $242 $341 forward 7 unknown #
coedge $-1 $255 $254 $165 $248 reversed $239 $-1 #
edge $-1 $342 -45.540940580462049 $249 45.540940580462049 $247 $343 forward 7 unknown #
vertex $-1 $167 $344 #
vertex $-1 $261 $345 #
straight-curve $-1 45.540940580462049 0 -8.3059080962188983 0 -1 0 I I #
coedge $-1 $241 $243 $168 $253 reversed $161 $-1 #
edge $-1 $256 -18.227216996872695 $259 18.227216996872695 $252 $346 forward 7 unknown #
coedge $-1 $247 $169 $174 $262 forward $239 $-1 #
coedge $-1 $169 $247 $241 $337 reversed $239 $-1 #
vertex $-1 $170 $347 #
straight-curve $-1 0 18.227216996872695 8.3059080962188983 -1 0 0 I I #
coedge $-1 $171 $242 $173 $261 reversed $101 $-1 #
vertex $-1 $253 $348 #
straight-curve $-1 0 -18.227216996872695 8.3059080962188983 1 0 0 I I #
edge $-1 $176 -8.3059080962188983 $250 8.3059080962188983 $173 $349 forward 7 unknown #
edge $-1 $177 -8.3059080962188983 $249 8.3059080962188983 $174 $350 forward 7 unknown #
point $-1 45.540940580462049 -18.227216996872695 8.3059080962188983 #
point $-1 45.540940580462049 18.227216996872695 8.3059080962188983 #
face $-1 $-1 $278 $25 $-1 $351 reversed single #
loop $-1 $-1 $352 $179 #
plane-surface $-1 -55.907982318153685 0 -0.39235695650372371 1 0 0 0 0 -1 forward_v I I I I #
coedge $-1 $353 $270 $185 $275 reversed $180 $-1 #
coedge $-1 $183 $182 $352 $354 reversed $69 $-1 #
coedge $-1 $268 $355 $182 $271 forward $180 $-1 #
edge $-1 $356 -5.1835208688458181 $273 5.1835208688458181 $182 $357 forward 7 unknown #
edge $-1 $190 -5.1835208688458181 $358 5.1835208688458181 $183 $359 forward 7 unknown #
vertex $-1 $184 $360 #
straight-curve $-1 -45.540940580462049 18.227216996872695 0 0 0 -1 I I #
edge $-1 $279 -18.227216996872695 $273 18.227216996872695 $268 $361 forward 7 unknown #
coedge $-1 $362 $186 $189 $282 reversed $278 $-1 #
coedge $-1 $186 $362 $353 $363 reversed $278 $-1 #
loop $-1 $-1 $186 $265 #
vertex $-1 $187 $364 #
straight-curve $-1 -45.540940580462049 -18.227216996872695 0 0 0 1 I I #
coedge $-1 $189 $188 $365 $366 forward $109 $-1 #
edge $-1 $367 -5.1835208688458181 $191 5.1835208688458181 $276 $368 forward 7 unknown #
point $-1 -45.540940580462049 18.227216996872695 1.1076430434962763 #
point $-1 -45.540940580462049 -18.227216996872695 1.1076430434962763 #
loop $-1 $-1 $201 $193 #
plane-surface $-1 0 18.227216996872695 0 0 -1 0 0 0 -1 forward_v I I I I #
coedge $-1 $288 $196 $198 $292 reversed $117 $-1 #
coedge $-1 $196 $287 $369 $370 reversed $117 $-1 #
coedge $-1 $204 $199 $196 $290 forward $194 $-1 #
edge $-1 $293 -15.32632387825047 $371 -9.4102249543872922 $289 $372 forward 7 unknown #
coedge $-1 $198 $197 $296 $373 reversed $73 $-1 #
edge $-1 $374 -36.454433993745404 $293 -28.230088578836323 $287 $375 forward 7 unknown #
vertex $-1 $200 $376 #
straight-curve $-1 -2.19704209605678 12.311118073009521 8.3059080962189 1 0 0 I I #
coedge $-1 $369 $201 $204 $300 reversed $285 $-1 #
coedge $-1 $201 $369 $291 $373 forward $285 $-1 #
vertex $-1 $202 $377 #
straight-curve $-1 -13.971689253072931 18.227216996872695 46.717498573831307 0 0 1 I I #
straight-curve $-1 -13.971689253072931 -7.9959079863601019 27.916175656683961 0 0.71933979245794832 -0.69465837861970381 I I #
edge $-1 $371 -5.183520868845811 $205 13.971689253072931 $295 $378 forward 7 unknown #
point $-1 -13.971689253072931 18.227216996872695 8.3059080962188983 #
point $-1 -13.971689253072931 12.311118073009517 8.3059080962189 #
edge $-1 $379 1 $379 0 $208 $-1 forward 7 unknown #
vertex $-1 $209 $380 #
ellipse-curve $-1 -8.498772075381865 13.562625500792747 3.6821769026565487 0 0.69465837861970381 0.71933979245794832 1.5 0 0 1 I I #
point $-1 -6.998772075381865 15.269167534941115 5.4493528706543417 #
edge $-1 $381 1 $381 0 $212 $-1 forward 7 unknown #
vertex $-1 $213 $382 #
ellipse-curve $-1 -0.28939630884526224 13.562625500792747 3.6821769026565487 0 0.69465837861970381 0.71933979245794832 1.5 0 0 1 I I #
point $-1 1.2106036911547378 15.269167534941115 5.4493528706543417 #
loop $-1 $-1 $223 $216 #
plane-surface $-1 0 18.227216996872695 0 0 -1 0 0 0 -1 forward_v I I I I #
coedge $-1 $383 $384 $220 $315 forward $217 $-1 #
coedge $-1 $220 $219 $320 $385 reversed $87 $-1 #
edge $-1 $317 15.658098523658296 $386 23.882443938567377 $313 $387 forward 7 unknown #
coedge $-1 $226 $221 $384 $388 forward $139 $-1 #
vertex $-1 $388 $389 #
straight-curve $-1 17.981667759751339 12.311118073009521 8.3059080962189 1 0 0 I I #
coedge $-1 $390 $223 $226 $324 reversed $311 $-1 #
coedge $-1 $223 $390 $314 $385 forward $311 $-1 #
vertex $-1 $224 $391 #
straight-curve $-1 26.385730458543307 18.227216996872695 46.717498573831307 0 0 1 I I #
straight-curve $-1 26.385730458543307 -7.9959079863601019 27.916175656683961 0 0.71933979245794832 -0.69465837861970381 I I #
edge $-1 $392 -45.540940580462049 $227 -26.385730458543307 $319 $393 forward 7 unknown #
point $-1 26.385730458543307 18.227216996872695 8.3059080962188983 #
point $-1 26.385730458543307 12.311118073009517 8.3059080962189 #
edge $-1 $394 1 $394 0 $230 $-1 forward 7 unknown #
vertex $-1 $231 $395 #
ellipse-curve $-1 31.858647636234366 13.562625500792747 3.6821769026565487 0 0.69465837861970381 0.71933979245794832 1.5 0 0 1 I I #
point $-1 33.358647636234366 15.269167534941115 5.4493528706543417 #
edge $-1 $396 1 $396 0 $234 $-1 forward 7 unknown #
vertex $-1 $235 $397 #
ellipse-curve $-1 40.068023402770976 13.562625500792747 3.6821769026565487 0 0.69465837861970381 0.71933979245794832 1.5 0 0 1 I I #
point $-1 41.568023402770976 15.269167534941115 5.4493528706543417 #
plane-surface $-1 45.540940580462049 0 0 -1 0 0 0 0 1 forward_v I I I I #
coedge $-1 $243 $241 $245 $340 reversed $161 $-1 #
edge $-1 $256 -8.3059080962188983 $342 8.3059080962188983 $255 $398 forward 7 unknown #
vertex $-1 $340 $399 #
straight-curve $-1 -45.540940580462049 -18.227216996872695 0 0 0 -1 I I #
edge $-1 $338 -18.227216996872695 $342 18.227216996872695 $336 $400 forward 7 unknown #
straight-curve $-1 0 -18.227216996872695 -8.3059080962188983 -1 0 0 I I #
vertex $-1 $248 $401 #
straight-curve $-1 0 18.227216996872695 -8.3059080962188983 1 0 0 I I #
point $-1 45.540940580462049 18.227216996872695 -8.3059080962188983 #
point $-1 45.540940580462049 -18.227216996872695 -8.3059080962188983 #
straight-curve $-1 -45.540940580462049 0 8.3059080962188983 0 -1 0 I I #
point $-1 -45.540940580462049 18.227216996872695 8.3059080962188983 #
point $-1 -45.540940580462049 -18.227216996872695 8.3059080962188983 #
straight-curve $-1 45.540940580462049 -18.227216996872695 0 0 0 -1 I I #
straight-curve $-1 45.540940580462049 18.227216996872695 0 0 0 -1 I I #
plane-surface $-1 0 -18.227216996872695 0 0 1 0 0 0 1 forward_v I I I I #
coedge $-1 $402 $365 $269 $354 forward $266 $-1 #
coedge $-1 $355 $268 $277 $363 forward $180 $-1 #
edge $-1 $358 -1.5 $356 1.5 $269 $403 forward 7 unknown #
coedge $-1 $270 $353 $402 $404 forward $180 $-1 #
vertex $-1 $271 $405 #
straight-curve $-1 -50.724461449307867 18.227216996872695 -1.8923569565037237 1 0 0 I I #
vertex $-1 $272 $406 #
straight-curve $-1 -50.724461449307867 18.227216996872695 1.1076430434962763 -1 0 0 I I #
point $-1 -45.540940580462049 18.227216996872695 -1.8923569565037237 #
straight-curve $-1 -45.540940580462049 0 -1.8923569565037237 0 1 0 I I #
coedge $-1 $277 $276 $407 $408 forward $278 $-1 #
edge $-1 $279 -5.1835208688458181 $409 5.1835208688458181 $277 $410 forward 7 unknown #
point $-1 -45.540940580462049 -18.227216996872695 -1.8923569565037237 #
coedge $-1 $352 $407 $281 $366 reversed $266 $-1 #
edge $-1 $358 -18.227216996872695 $367 18.227216996872695 $365 $411 forward 7 unknown #
vertex $-1 $366 $412 #
straight-curve $-1 -50.724461449307867 -18.227216996872695 1.1076430434962763 1 0 0 I I #
coedge $-1 $296 $295 $288 $370 forward $285 $-1 #
edge $-1 $371 38.411590477612407 $374 44.124700928741547 $369 $413 forward 7 unknown #
vertex $-1 $300 $414 #
straight-curve $-1 5.183520868845811 27.637441951259987 8.3059080962189 0 1 0 I I #
edge $-1 $374 -7.380562964902591 $297 11.774647157016151 $296 $415 forward 7 unknown #
vertex $-1 $373 $416 #
straight-curve $-1 5.183520868845811 -7.9959079863601019 27.916175656683961 0 -0.71933979245794832 0.69465837861970381 I I #
point $-1 5.183520868845811 12.311118073009517 8.3059080962189 #
point $-1 -13.971689253072931 18.227216996872695 2.5927976450897638 #
straight-curve $-1 0 18.227216996872695 8.3059080962188983 -1 0 0 I I #
vertex $-1 $303 $417 #
point $-1 -6.998772075381865 13.562625500792747 3.6821769026565487 #
vertex $-1 $307 $418 #
point $-1 1.2106036911547378 13.562625500792747 3.6821769026565487 #
coedge $-1 $384 $313 $390 $419 reversed $217 $-1 #
coedge $-1 $313 $383 $316 $388 reversed $217 $-1 #
edge $-1 $386 -27.55927282071071 $321 -8.404062698791968 $320 $420 forward 7 unknown #
vertex $-1 $315 $421 #
straight-curve $-1 45.540940580462049 1.047624730715051 19.182937428930952 0 0.71933979245794832 -0.69465837861970381 I I #
edge $-1 $317 12.311118073009517 $392 18.227216996872695 $384 $422 forward 7 unknown #
point $-1 45.540940580462049 12.311118073009517 8.3059080962189 #
coedge $-1 $320 $319 $383 $419 forward $311 $-1 #
point $-1 26.385730458543307 18.227216996872695 2.5927976450897638 #
vertex $-1 $388 $423 #
straight-curve $-1 0 18.227216996872695 8.3059080962188983 -1 0 0 I I #
vertex $-1 $327 $424 #
point $-1 33.358647636234366 13.562625500792747 3.6821769026565487 #
vertex $-1 $331 $425 #
point $-1 41.568023402770976 13.562625500792747 3.6821769026565487 #
straight-curve $-1 -45.540940580462049 18.227216996872695 0 0 0 -1 I I #
point $-1 -45.540940580462049 -18.227216996872695 -8.3059080962188983 #
straight-curve $-1 -45.540940580462049 0 -8.3059080962188983 0 1 0 I I #
point $-1 -45.540940580462049 18.227216996872695 -8.3059080962188983 #
coedge $-1 $407 $352 $355 $404 reversed $266 $-1 #
straight-curve $-1 -55.907982318153685 18.227216996872695 -0.39235695650372371 0 0 -1 I I #
edge $-1 $409 -18.227216996872695 $356 18.227216996872695 $402 $426 forward 7 unknown #
point $-1 -55.907982318153685 18.227216996872695 -1.8923569565037237 #
point $-1 -55.907982318153685 18.227216996872695 1.1076430434962763 #
coedge $-1 $365 $402 $362 $408 reversed $266 $-1 #
edge $-1 $367 -1.5 $409 1.5 $407 $427 forward 7 unknown #
vertex $-1 $404 $428 #
straight-curve $-1 -50.724461449307867 -18.227216996872695 -1.8923569565037237 -1 0 0 I I #
straight-curve $-1 -55.907982318153685 0 1.1076430434962763 0 -1 0 I I #
point $-1 -55.907982318153685 -18.227216996872695 1.1076430434962763 #
straight-curve $-1 5.183520868845811 18.227216996872695 46.717498573831307 0 0 -1 I I #
point $-1 5.183520868845811 18.227216996872695 8.3059080962188983 #
straight-curve $-1 -2.19704209605678 18.227216996872691 2.5927976450897656 -1 0 0 I I #
point $-1 5.183520868845811 18.227216996872695 2.5927976450897638 #
point $-1 -8.498772075381865 12.52063793286319 2.6031672139696251 #
point $-1 -0.28939630884526224 12.52063793286319 2.6031672139696251 #
edge $-1 $392 -8.3059080962188983 $386 -2.5927976450897638 $383 $429 forward 7 unknown #
straight-curve $-1 17.981667759751339 18.227216996872691 2.5927976450897656 -1 0 0 I I #
point $-1 45.540940580462049 18.227216996872695 2.5927976450897638 #
straight-curve $-1 45.540940580462049 0 8.3059080962188983 0 1 0 I I #
point $-1 45.540940580462049 18.227216996872695 8.3059080962188983 #
point $-1 31.858647636234366 12.52063793286319 2.6031672139696251 #
point $-1 40.068023402770976 12.52063793286319 2.6031672139696251 #
straight-curve $-1 -55.907982318153685 0 -1.8923569565037237 0 1 0 I I #
straight-curve $-1 -55.907982318153685 -18.227216996872695 -0.39235695650372371 0 0 -1 I I #
point $-1 -55.907982318153685 -18.227216996872695 -1.8923569565037237 #
straight-curve $-1 45.540940580462049 18.227216996872695 0 0 0 -1 I I #
End-of-ACIS-data 