500 0 11 0           
7 Unknown 11 ACIS 5.0 NT 24 Fri Mar 26 16:39:57 1999 
-1 9.9999999999999995e-007 1e-010 
body $-1 $11 $-1 $12 #
body $-1 $13 $-1 $14 #
body $-1 $15 $-1 $16 #
body $-1 $17 $-1 $18 #
body $-1 $19 $-1 $20 #
body $-1 $21 $-1 $22 #
body $-1 $23 $-1 $24 #
body $-1 $25 $-1 $26 #
body $-1 $27 $-1 $28 #
body $-1 $29 $-1 $30 #
body $-1 $31 $-1 $32 #
lump $-1 $-1 $33 $0 #
transform $-1 1 0 0 0 1 0 0 0 1 71.502426221503342 40.546918610400645 15.625666516703824 1 rotate no_reflect no_shear #
lump $-1 $-1 $34 $1 #
transform $-1 1 0 0 0 1 0 0 0 1 71.502426221503342 40.546918610400645 15.625666516703824 1 rotate no_reflect no_shear #
lump $-1 $-1 $35 $2 #
transform $-1 1 0 0 0 1 0 0 0 1 71.502426221503342 40.546918610400645 15.625666516703824 1 rotate no_reflect no_shear #
lump $-1 $-1 $36 $3 #
transform $-1 1 0 0 0 1 0 0 0 1 71.502426221503342 40.546918610400645 15.625666516703824 1 rotate no_reflect no_shear #
lump $-1 $-1 $37 $4 #
transform $-1 1 0 0 0 1 0 0 0 1 71.502426221503342 40.546918610400645 15.625666516703824 1 rotate no_reflect no_shear #
lump $-1 $-1 $38 $5 #
transform $-1 1 0 0 0 1 0 0 0 1 71.502426221503342 40.546918610400645 15.625666516703824 1 rotate no_reflect no_shear #
lump $-1 $-1 $39 $6 #
transform $-1 1 0 0 0 1 0 0 0 1 71.502426221503342 40.546918610400645 15.625666516703824 1 rotate no_reflect no_shear #
lump $-1 $-1 $40 $7 #
transform $-1 1 0 0 0 1 0 0 0 1 71.502426221503342 40.546918610400645 15.625666516703824 1 rotate no_reflect no_shear #
lump $-1 $-1 $41 $8 #
transform $-1 1 0 0 0 1 0 0 0 1 71.502426221503342 40.546918610400645 15.625666516703824 1 rotate no_reflect no_shear #
lump $-1 $-1 $42 $9 #
transform $-1 1 0 0 0 1 0 0 0 1 71.502426221503342 40.546918610400645 15.625666516703824 1 rotate no_reflect no_shear #
lump $-1 $-1 $43 $10 #
transform $-1 1 0 0 0 1 0 0 0 1 71.502426221503342 40.546918610400645 15.625666516703824 1 rotate no_reflect no_shear #
shell $-1 $-1 $-1 $44 $-1 $11 #
shell $-1 $-1 $-1 $45 $-1 $13 #
shell $-1 $-1 $-1 $46 $-1 $15 #
shell $-1 $-1 $-1 $47 $-1 $17 #
shell $-1 $-1 $-1 $48 $-1 $19 #
shell $-1 $-1 $-1 $49 $-1 $21 #
shell $-1 $-1 $-1 $50 $-1 $23 #
shell $-1 $-1 $-1 $51 $-1 $25 #
shell $-1 $-1 $-1 $52 $-1 $27 #
shell $-1 $-1 $-1 $53 $-1 $29 #
shell $-1 $-1 $-1 $54 $-1 $31 #
face $-1 $55 $56 $33 $-1 $57 forward single #
face $-1 $58 $59 $34 $-1 $60 reversed single #
face $-1 $61 $62 $35 $-1 $63 forward single #
face $-1 $64 $65 $36 $-1 $66 reversed single #
face $-1 $67 $68 $37 $-1 $69 forward single #
face $-1 $70 $71 $38 $-1 $72 reversed single #
face $-1 $73 $74 $39 $-1 $75 forward single #
face $-1 $76 $77 $40 $-1 $78 reversed single #
face $-1 $79 $80 $41 $-1 $81 forward single #
face $-1 $82 $83 $42 $-1 $84 reversed single #
face $-1 $85 $86 $43 $-1 $87 forward single #
face $-1 $88 $89 $33 $-1 $90 reversed single #
loop $-1 $-1 $91 $44 #
plane-surface $-1 0 0 15.625666516703824 0 0 1 1 0 0 forward_v I I I I #
face $-1 $92 $93 $34 $-1 $94 reversed single #
loop $-1 $-1 $95 $45 #
plane-surface $-1 54.00880458113572 -40.546918610400638 9.1138917239782558 0 -0.54463904215088732 0.83867056331134215 1 0 0 forward_v I I I I #
face $-1 $96 $97 $35 $-1 $98 forward single #
loop $-1 $99 $100 $46 #
cone-surface $-1 54.00880458113572 -34.880450457034136 11.364491665049473 0 0.54463904215088732 -0.83867056331134215 1.5 0 0 1 I I 0 1 1.5 forward I I I I #
face $-1 $101 $102 $36 $-1 $103 reversed single #
loop $-1 $-1 $104 $47 #
plane-surface $-1 -64.503495885908805 105.95218441701789 160.76843735647029 1 0 0 0 -0.79863551827123203 -0.60181501223851219 forward_v I I I I #
face $-1 $105 $106 $37 $-1 $107 forward single #
loop $-1 $108 $109 $48 #
cone-surface $-1 -55.62908399228823 36.551951440816246 11.387029805964687 0 -0.79863551827123203 -0.60181501223851219 1.5 0 0 1 I I 0 1 1.5 forward I I I I #
face $-1 $110 $111 $38 $-1 $112 reversed single #
loop $-1 $-1 $113 $49 #
plane-surface $-1 -28.752282775157138 105.95218441701789 160.76843735647029 1 0 0 0 -0.79863551827123203 -0.60181501223851219 forward_v I I I I #
face $-1 $114 $115 $39 $-1 $116 forward single #
loop $-1 $117 $118 $50 #
cone-surface $-1 -19.877870881536566 36.551951440816246 11.387029805964687 0 -0.79863551827123203 -0.60181501223851219 1.5 0 0 1 I I 0 1 1.5 forward I I I I #
face $-1 $119 $120 $40 $-1 $121 reversed single #
loop $-1 $-1 $122 $51 #
plane-surface $-1 6.9989303355945403 105.95218441701789 160.76843735647029 1 0 0 0 -0.79863551827123203 -0.60181501223851219 forward_v I I I I #
face $-1 $123 $124 $41 $-1 $125 forward single #
loop $-1 $126 $127 $52 #
cone-surface $-1 15.873342229215112 36.551951440816246 11.387029805964687 0 -0.79863551827123203 -0.60181501223851219 1.5 0 0 1 I I 0 1 1.5 forward I I I I #
face $-1 $128 $129 $42 $-1 $130 reversed single #
loop $-1 $-1 $131 $53 #
plane-surface $-1 42.750143446346215 105.95218441701789 160.76843735647029 1 0 0 0 -0.79863551827123203 -0.60181501223851219 forward_v I I I I #
face $-1 $132 $133 $43 $-1 $134 forward single #
loop $-1 $135 $136 $54 #
cone-surface $-1 51.62455533996679 36.551951440816246 11.387029805964687 0 -0.79863551827123203 -0.60181501223851219 1.5 0 0 1 I I 0 1 1.5 forward I I I I #
face $-1 $137 $138 $33 $-1 $139 reversed single #
loop $-1 $-1 $140 $55 #
plane-surface $-1 0 0 -15.625666516703824 0 0 1 1 0 0 forward_v I I I I #
coedge $-1 $141 $142 $143 $144 forward $56 $-1 #
face $-1 $145 $146 $34 $-1 $147 reversed single #
loop $-1 $-1 $148 $58 #
plane-surface $-1 36.515182940768099 -118.43294446788877 129.04785187861003 1 0 0 0 0.54463904215088732 -0.83867056331134215 forward_v I I I I #
coedge $-1 $149 $150 $151 $152 reversed $59 $-1 #
face $-1 $-1 $153 $35 $-1 $154 forward single #
loop $-1 $155 $156 $61 #
cone-surface $-1 54.00880458113572 -33.819129856447617 9.7302012872744008 0 0.54463904215088732 -0.83867056331134215 0.75 0 0 1 I I -0.70710678118654757 0.70710678118654757 0.75 forward I I I I #
loop $-1 $-1 $157 $46 #
coedge $-1 $100 $100 $158 $159 reversed $62 $-1 #
face $-1 $160 $161 $36 $-1 $162 reversed single #
loop $-1 $-1 $163 $64 #
plane-surface $-1 -55.62908399228823 -8.2565700291038127 74.705970333315591 0 0.79863551827123203 0.60181501223851219 1 0 0 forward_v I I I I #
coedge $-1 $164 $165 $166 $167 reversed $65 $-1 #
face $-1 $-1 $168 $37 $-1 $169 forward single #
loop $-1 $170 $171 $67 #
cone-surface $-1 -55.62908399228823 34.09965147402098 9.53908928645955 0 -0.79863551827123203 -0.60181501223851219 0.75 0 0 1 I I -0.70710678118654757 0.70710678118654757 0.75 forward I I I I #
loop $-1 $-1 $172 $48 #
coedge $-1 $109 $109 $173 $174 reversed $68 $-1 #
face $-1 $175 $176 $38 $-1 $177 reversed single #
loop $-1 $-1 $178 $70 #
plane-surface $-1 -19.877870881536566 -8.2565700291038127 74.705970333315591 0 0.79863551827123203 0.60181501223851219 1 0 0 forward_v I I I I #
coedge $-1 $179 $180 $181 $182 reversed $71 $-1 #
face $-1 $-1 $183 $39 $-1 $184 forward single #
loop $-1 $185 $186 $73 #
cone-surface $-1 -19.877870881536566 34.09965147402098 9.53908928645955 0 -0.79863551827123203 -0.60181501223851219 0.75 0 0 1 I I -0.70710678118654757 0.70710678118654757 0.75 forward I I I I #
loop $-1 $-1 $187 $50 #
coedge $-1 $118 $118 $188 $189 reversed $74 $-1 #
face $-1 $190 $191 $40 $-1 $192 reversed single #
loop $-1 $-1 $193 $76 #
plane-surface $-1 15.873342229215112 -8.2565700291038127 74.705970333315591 0 0.79863551827123203 0.60181501223851219 1 0 0 forward_v I I I I #
coedge $-1 $194 $195 $196 $197 reversed $77 $-1 #
face $-1 $-1 $198 $41 $-1 $199 forward single #
loop $-1 $200 $201 $79 #
cone-surface $-1 15.873342229215112 34.09965147402098 9.53908928645955 0 -0.79863551827123203 -0.60181501223851219 0.75 0 0 1 I I -0.70710678118654757 0.70710678118654757 0.75 forward I I I I #
loop $-1 $-1 $202 $52 #
coedge $-1 $127 $127 $203 $204 reversed $80 $-1 #
face $-1 $205 $206 $42 $-1 $207 reversed single #
loop $-1 $-1 $208 $82 #
plane-surface $-1 51.62455533996679 -8.2565700291038127 74.705970333315591 0 0.79863551827123203 0.60181501223851219 1 0 0 forward_v I I I I #
coedge $-1 $209 $210 $211 $212 reversed $83 $-1 #
face $-1 $-1 $213 $43 $-1 $214 forward single #
loop $-1 $215 $216 $85 #
cone-surface $-1 51.62455533996679 34.09965147402098 9.53908928645955 0 -0.79863551827123203 -0.60181501223851219 0.75 0 0 1 I I -0.70710678118654757 0.70710678118654757 0.75 forward I I I I #
loop $-1 $-1 $217 $54 #
coedge $-1 $136 $136 $218 $219 reversed $86 $-1 #
face $-1 $220 $221 $33 $-1 $222 reversed single #
loop $-1 $-1 $223 $88 #
plane-surface $-1 0 -40.546918610400645 0 0 1 0 0 0 1 forward_v I I I I #
coedge $-1 $224 $225 $226 $227 forward $89 $-1 #
coedge $-1 $228 $91 $229 $230 forward $56 $-1 #
coedge $-1 $91 $228 $231 $232 forward $56 $-1 #
coedge $-1 $233 $234 $91 $144 reversed $235 $-1 #
edge $-1 $236 -40.546918610400645 $237 40.546918610400645 $143 $238 forward 7 unknown #
face $-1 $239 $240 $34 $-1 $241 forward single #
loop $-1 $-1 $242 $92 #
plane-surface $-1 0 -40.546918610400645 0 0 1 0 0 0 1 forward_v I I I I #
coedge $-1 $243 $244 $245 $246 reversed $93 $-1 #
coedge $-1 $247 $95 $248 $249 reversed $59 $-1 #
coedge $-1 $95 $247 $243 $250 forward $59 $-1 #
coedge $-1 $245 $251 $95 $152 forward $240 $-1 #
edge $-1 $252 -44.498023930935481 $253 -9.510780650200239 $151 $254 forward 7 unknown #
loop $-1 $-1 $158 $96 #
plane-surface $-1 54.00880458113572 -40.546918610400638 9.1138917239782558 0 -0.54463904215088732 0.83867056331134215 1 0 0 forward_v I I I I #
loop $-1 $-1 $255 $61 #
coedge $-1 $156 $156 $157 $256 reversed $97 $-1 #
coedge $-1 $157 $157 $156 $256 forward $99 $-1 #
coedge $-1 $158 $158 $100 $159 forward $153 $-1 #
edge $-1 $257 1.2899643833721733e-015 $257 6.2831853071796013 $158 $258 forward 7 unknown #
face $-1 $259 $260 $36 $-1 $261 forward single #
loop $-1 $-1 $262 $101 #
plane-surface $-1 -46.754672098667655 105.95218441701789 160.76843735647029 -1 0 0 0 0.79863551827123203 0.60181501223851219 forward_v I I I I #
coedge $-1 $263 $264 $265 $266 reversed $102 $-1 #
coedge $-1 $165 $104 $267 $268 reversed $65 $-1 #
coedge $-1 $104 $164 $263 $269 reversed $65 $-1 #
coedge $-1 $265 $270 $104 $167 forward $260 $-1 #
edge $-1 $271 12.429173598108299 $272 16.712461281093411 $166 $273 forward 7 unknown #
loop $-1 $-1 $173 $105 #
plane-surface $-1 -55.62908399228823 -8.2565700291038127 74.705970333315591 0 0.79863551827123203 0.60181501223851219 1 0 0 forward_v I I I I #
loop $-1 $-1 $274 $67 #
coedge $-1 $171 $171 $172 $275 reversed $106 $-1 #
coedge $-1 $172 $172 $171 $275 forward $108 $-1 #
coedge $-1 $173 $173 $109 $174 forward $168 $-1 #
edge $-1 $276 9.7266491933578603e-016 $276 6.2831853071796013 $173 $277 forward 7 unknown #
face $-1 $278 $279 $38 $-1 $280 forward single #
loop $-1 $-1 $281 $110 #
plane-surface $-1 -11.003458987915995 105.95218441701789 160.76843735647029 -1 0 0 0 0.79863551827123203 0.60181501223851219 forward_v I I I I #
coedge $-1 $282 $283 $284 $285 reversed $111 $-1 #
coedge $-1 $180 $113 $286 $287 reversed $71 $-1 #
coedge $-1 $113 $179 $282 $288 reversed $71 $-1 #
coedge $-1 $284 $289 $113 $182 forward $279 $-1 #
edge $-1 $290 12.429173598108299 $291 16.712461281093411 $181 $292 forward 7 unknown #
loop $-1 $-1 $188 $114 #
plane-surface $-1 -19.877870881536566 -8.2565700291038127 74.705970333315591 0 0.79863551827123203 0.60181501223851219 1 0 0 forward_v I I I I #
loop $-1 $-1 $293 $73 #
coedge $-1 $186 $186 $187 $294 reversed $115 $-1 #
coedge $-1 $187 $187 $186 $294 forward $117 $-1 #
coedge $-1 $188 $188 $118 $189 forward $183 $-1 #
edge $-1 $295 9.7266491933578603e-016 $295 6.2831853071796013 $188 $296 forward 7 unknown #
face $-1 $297 $298 $40 $-1 $299 forward single #
loop $-1 $-1 $300 $119 #
plane-surface $-1 24.747754122835683 105.95218441701789 160.76843735647029 -1 0 0 0 0.79863551827123203 0.60181501223851219 forward_v I I I I #
coedge $-1 $301 $302 $303 $304 reversed $120 $-1 #
coedge $-1 $195 $122 $305 $306 reversed $77 $-1 #
coedge $-1 $122 $194 $301 $307 reversed $77 $-1 #
coedge $-1 $303 $308 $122 $197 forward $298 $-1 #
edge $-1 $309 12.429173598108299 $310 16.712461281093411 $196 $311 forward 7 unknown #
loop $-1 $-1 $203 $123 #
plane-surface $-1 15.873342229215112 -8.2565700291038127 74.705970333315591 0 0.79863551827123203 0.60181501223851219 1 0 0 forward_v I I I I #
loop $-1 $-1 $312 $79 #
coedge $-1 $201 $201 $202 $313 reversed $124 $-1 #
coedge $-1 $202 $202 $201 $313 forward $126 $-1 #
coedge $-1 $203 $203 $127 $204 forward $198 $-1 #
edge $-1 $314 9.7266491933578603e-016 $314 6.2831853071796013 $203 $315 forward 7 unknown #
face $-1 $316 $317 $42 $-1 $318 forward single #
loop $-1 $-1 $319 $128 #
plane-surface $-1 60.498967233587365 105.95218441701789 160.76843735647029 -1 0 0 0 0.79863551827123203 0.60181501223851219 forward_v I I I I #
coedge $-1 $320 $321 $322 $323 reversed $129 $-1 #
coedge $-1 $210 $131 $324 $325 reversed $83 $-1 #
coedge $-1 $131 $209 $320 $326 reversed $83 $-1 #
coedge $-1 $322 $327 $131 $212 forward $317 $-1 #
edge $-1 $328 12.429173598108299 $329 16.712461281093411 $211 $330 forward 7 unknown #
loop $-1 $-1 $218 $132 #
plane-surface $-1 51.62455533996679 -8.2565700291038127 74.705970333315591 0 0.79863551827123203 0.60181501223851219 1 0 0 forward_v I I I I #
loop $-1 $-1 $331 $85 #
coedge $-1 $216 $216 $217 $332 reversed $133 $-1 #
coedge $-1 $217 $217 $216 $332 forward $135 $-1 #
coedge $-1 $218 $218 $136 $219 forward $213 $-1 #
edge $-1 $333 9.7266491933578603e-016 $333 6.2831853071796013 $218 $334 forward 7 unknown #
face $-1 $335 $336 $33 $-1 $337 reversed single #
loop $-1 $-1 $338 $137 #
plane-surface $-1 -71.502426221503342 0 0 1 0 0 0 0 -1 forward_v I I I I #
coedge $-1 $339 $231 $340 $341 forward $138 $-1 #
coedge $-1 $342 $140 $339 $343 forward $89 $-1 #
coedge $-1 $140 $342 $344 $345 forward $89 $-1 #
coedge $-1 $234 $233 $140 $227 reversed $235 $-1 #
edge $-1 $346 -40.546918610400645 $347 40.546918610400645 $226 $348 forward 7 unknown #
coedge $-1 $142 $141 $349 $350 forward $56 $-1 #
coedge $-1 $351 $352 $141 $230 reversed $336 $-1 #
edge $-1 $237 -71.502426221503342 $353 71.502426221503342 $229 $354 forward 7 unknown #
coedge $-1 $223 $355 $142 $232 reversed $138 $-1 #
edge $-1 $356 -71.502426221503342 $236 71.502426221503342 $231 $357 forward 7 unknown #
coedge $-1 $226 $143 $355 $358 forward $235 $-1 #
coedge $-1 $143 $226 $351 $359 reversed $235 $-1 #
loop $-1 $-1 $233 $335 #
vertex $-1 $144 $360 #
vertex $-1 $144 $361 #
straight-curve $-1 71.502426221503342 0 15.625666516703824 0 1 0 I I #
face $-1 $-1 $362 $34 $-1 $363 reversed single #
loop $-1 $-1 $245 $145 #
plane-surface $-1 0 0 15.625666516703824 0 0 1 1 0 0 forward_v I I I I #
coedge $-1 $364 $365 $244 $366 forward $146 $-1 #
coedge $-1 $244 $148 $150 $250 reversed $93 $-1 #
coedge $-1 $148 $243 $242 $366 reversed $93 $-1 #
coedge $-1 $367 $151 $148 $246 forward $240 $-1 #
edge $-1 $253 -28.696807292330064 $368 -18.669553623543742 $245 $369 forward 7 unknown #
coedge $-1 $150 $149 $364 $370 reversed $59 $-1 #
coedge $-1 $371 $372 $149 $249 forward $362 $-1 #
edge $-1 $373 -14.520862906354722 $252 -2.564733637675626 $248 $374 forward 7 unknown #
edge $-1 $375 -8.8615326271544428e-015 $253 11.956129268679089 $243 $376 forward 7 unknown #
coedge $-1 $151 $367 $371 $377 forward $240 $-1 #
vertex $-1 $249 $378 #
vertex $-1 $152 $379 #
straight-curve $-1 27.00440229056786 -30.519664941614323 15.625666516703824 -1 0 0 I I #
coedge $-1 $255 $255 $-1 $380 reversed $155 $-1 #
edge $-1 $381 0 $381 6.2831853071796004 $156 $382 forward 7 unknown #
vertex $-1 $159 $383 #
ellipse-curve $-1 54.00880458113572 -35.533291776007488 12.369779120341034 0 -0.54463904215088732 0.83867056331134215 1.5 0 0 1 I I #
face $-1 $-1 $384 $36 $-1 $385 reversed single #
loop $-1 $-1 $166 $160 #
plane-surface $-1 0 0 15.625666516703824 0 0 1 1 0 0 forward_v I I I I #
coedge $-1 $386 $387 $388 $389 reversed $161 $-1 #
coedge $-1 $390 $163 $165 $269 forward $102 $-1 #
coedge $-1 $163 $390 $386 $391 forward $102 $-1 #
coedge $-1 $388 $166 $163 $266 forward $260 $-1 #
edge $-1 $272 -36.68895388976469 $392 -18.94013010252354 $265 $393 forward 7 unknown #
coedge $-1 $394 $395 $164 $268 forward $384 $-1 #
edge $-1 $396 -70.442667062357145 $271 -64.758552161531327 $267 $397 forward 7 unknown #
edge $-1 $272 73.976554341710298 $396 81.093837220801319 $165 $398 forward 7 unknown #
coedge $-1 $166 $388 $394 $399 forward $260 $-1 #
vertex $-1 $268 $400 #
vertex $-1 $167 $401 #
straight-curve $-1 -64.503495885908805 52.976092208508945 15.625666516703831 0 -1 0 I I #
coedge $-1 $274 $274 $-1 $402 reversed $170 $-1 #
edge $-1 $403 0 $403 6.2831853071796004 $171 $404 forward 7 unknown #
vertex $-1 $174 $405 #
ellipse-curve $-1 -55.62908399228823 38.405274768908072 12.78360906629093 0 0.79863551827123203 0.60181501223851219 1.5 0 0 1 I I #
face $-1 $-1 $406 $38 $-1 $407 reversed single #
loop $-1 $-1 $181 $175 #
plane-surface $-1 0 0 15.625666516703824 0 0 1 1 0 0 forward_v I I I I #
coedge $-1 $408 $409 $410 $411 reversed $176 $-1 #
coedge $-1 $412 $178 $180 $288 forward $111 $-1 #
coedge $-1 $178 $412 $408 $413 forward $111 $-1 #
coedge $-1 $410 $181 $178 $285 forward $279 $-1 #
edge $-1 $291 -18.813347334388855 $414 -1.0645235471477115 $284 $415 forward 7 unknown #
coedge $-1 $416 $417 $179 $287 forward $406 $-1 #
edge $-1 $418 -70.442667062357145 $290 -64.758552161531327 $286 $419 forward 7 unknown #
edge $-1 $291 73.976554341710298 $418 81.093837220801319 $180 $420 forward 7 unknown #
coedge $-1 $181 $410 $416 $421 forward $279 $-1 #
vertex $-1 $182 $422 #
vertex $-1 $182 $423 #
straight-curve $-1 -28.752282775157138 52.976092208508945 15.625666516703831 0 -1 0 I I #
coedge $-1 $293 $293 $-1 $424 reversed $185 $-1 #
edge $-1 $425 0 $425 6.2831853071796004 $186 $426 forward 7 unknown #
vertex $-1 $189 $427 #
ellipse-curve $-1 -19.877870881536566 38.405274768908072 12.78360906629093 0 0.79863551827123203 0.60181501223851219 1.5 0 0 1 I I #
face $-1 $-1 $428 $40 $-1 $429 reversed single #
loop $-1 $-1 $196 $190 #
plane-surface $-1 0 0 15.625666516703824 0 0 1 1 0 0 forward_v I I I I #
coedge $-1 $430 $431 $432 $433 reversed $191 $-1 #
coedge $-1 $434 $193 $195 $307 forward $120 $-1 #
coedge $-1 $193 $434 $430 $435 forward $120 $-1 #
coedge $-1 $432 $196 $193 $304 forward $298 $-1 #
edge $-1 $310 -0.93774077901301567 $436 16.811083008228128 $303 $437 forward 7 unknown #
coedge $-1 $438 $439 $194 $306 forward $428 $-1 #
edge $-1 $440 -70.442667062357145 $309 -64.758552161531327 $305 $441 forward 7 unknown #
edge $-1 $310 73.976554341710298 $440 81.093837220801319 $195 $442 forward 7 unknown #
coedge $-1 $196 $432 $438 $443 forward $298 $-1 #
vertex $-1 $197 $444 #
vertex $-1 $197 $445 #
straight-curve $-1 6.9989303355945403 52.976092208508945 15.625666516703831 0 -1 0 I I #
coedge $-1 $312 $312 $-1 $446 reversed $200 $-1 #
edge $-1 $447 0 $447 6.2831853071796004 $201 $448 forward 7 unknown #
vertex $-1 $204 $449 #
ellipse-curve $-1 15.873342229215112 38.405274768908072 12.78360906629093 0 0.79863551827123203 0.60181501223851219 1.5 0 0 1 I I #
face $-1 $-1 $450 $42 $-1 $451 reversed single #
loop $-1 $-1 $211 $205 #
plane-surface $-1 0 0 15.625666516703824 0 0 1 1 0 0 forward_v I I I I #
coedge $-1 $452 $453 $454 $455 reversed $206 $-1 #
coedge $-1 $456 $208 $210 $326 forward $129 $-1 #
coedge $-1 $208 $456 $452 $457 forward $129 $-1 #
coedge $-1 $454 $211 $208 $323 forward $317 $-1 #
edge $-1 $329 16.93786577636282 $458 34.68668956360397 $322 $459 forward 7 unknown #
coedge $-1 $460 $461 $209 $325 forward $450 $-1 #
edge $-1 $462 -70.442667062357145 $328 -64.758552161531327 $324 $463 forward 7 unknown #
edge $-1 $329 73.976554341710298 $462 81.093837220801319 $210 $464 forward 7 unknown #
coedge $-1 $211 $454 $460 $465 forward $317 $-1 #
vertex $-1 $212 $466 #
vertex $-1 $212 $467 #
straight-curve $-1 42.750143446346215 52.976092208508945 15.625666516703831 0 -1 0 I I #
coedge $-1 $331 $331 $-1 $468 reversed $215 $-1 #
edge $-1 $469 0 $469 6.2831853071796004 $216 $470 forward 7 unknown #
vertex $-1 $219 $471 #
ellipse-curve $-1 51.62455533996679 38.405274768908072 12.78360906629093 0 0.79863551827123203 0.60181501223851219 1.5 0 0 1 I I #
face $-1 $-1 $235 $33 $-1 $472 reversed single #
loop $-1 $-1 $351 $220 #
plane-surface $-1 0 40.546918610400645 0 0 -1 0 0 0 -1 forward_v I I I I #
coedge $-1 $473 $349 $352 $474 forward $221 $-1 #
coedge $-1 $355 $223 $224 $343 reversed $138 $-1 #
coedge $-1 $349 $473 $223 $341 reversed $221 $-1 #
edge $-1 $356 -15.625666516703824 $475 15.625666516703824 $340 $476 forward 7 unknown #
coedge $-1 $225 $224 $473 $477 forward $89 $-1 #
edge $-1 $347 -71.502426221503342 $475 71.502426221503342 $339 $478 forward 7 unknown #
coedge $-1 $352 $351 $225 $345 reversed $336 $-1 #
edge $-1 $479 -71.502426221503342 $346 71.502426221503342 $344 $480 forward 7 unknown #
vertex $-1 $227 $481 #
vertex $-1 $358 $482 #
straight-curve $-1 71.502426221503342 0 -15.625666516703824 0 -1 0 I I #
coedge $-1 $338 $340 $228 $350 reversed $221 $-1 #
edge $-1 $353 -40.546918610400645 $356 40.546918610400645 $349 $483 forward 7 unknown #
coedge $-1 $344 $229 $234 $359 forward $336 $-1 #
coedge $-1 $229 $344 $338 $474 reversed $336 $-1 #
vertex $-1 $230 $484 #
straight-curve $-1 0 40.546918610400645 15.625666516703824 -1 0 0 I I #
coedge $-1 $231 $339 $233 $358 reversed $138 $-1 #
vertex $-1 $350 $485 #
straight-curve $-1 0 -40.546918610400645 15.625666516703824 1 0 0 I I #
edge $-1 $236 -15.625666516703824 $347 15.625666516703824 $233 $486 forward 7 unknown #
edge $-1 $237 -15.625666516703824 $346 15.625666516703824 $234 $487 forward 7 unknown #
point $-1 71.502426221503342 -40.546918610400645 15.625666516703824 #
point $-1 71.502426221503342 40.546918610400645 15.625666516703824 #
loop $-1 $-1 $248 $239 #
plane-surface $-1 71.502426221503342 0 0 -1 0 0 0 0 1 forward_v I I I I #
coedge $-1 $488 $242 $247 $370 forward $146 $-1 #
coedge $-1 $242 $488 $367 $489 reversed $146 $-1 #
edge $-1 $368 48.898259422601193 $375 55.410034215326768 $242 $490 forward 7 unknown #
coedge $-1 $251 $245 $365 $489 forward $240 $-1 #
vertex $-1 $489 $491 #
straight-curve $-1 36.515182940768099 -59.216472233944387 15.625666516703824 0 -1 0 I I #
edge $-1 $375 9.510780650200239 $373 44.498023930935481 $364 $492 forward 7 unknown #
coedge $-1 $372 $248 $251 $377 reversed $362 $-1 #
coedge $-1 $248 $371 $488 $493 forward $362 $-1 #
vertex $-1 $370 $494 #
straight-curve $-1 71.502426221503342 -28.368698336961359 17.022520588499638 0 0.83867056331134215 0.54463904215088732 I I #
vertex $-1 $370 $495 #
straight-curve $-1 36.515182940768099 -40.546918610400638 9.1138917239782558 0 0.83867056331134215 0.54463904215088732 I I #
edge $-1 $496 -40.546918610400645 $252 -30.519664941614323 $371 $497 forward 7 unknown #
point $-1 71.502426221503342 -30.519664941614323 15.625666516703824 #
point $-1 36.515182940768099 -30.519664941614323 15.625666516703824 #
edge $-1 $498 1 $498 0 $255 $-1 forward 7 unknown #
vertex $-1 $256 $499 #
ellipse-curve $-1 54.00880458113572 -34.227609138060785 10.359204209757907 0 -0.54463904215088732 0.83867056331134215 1.5 0 0 1 I I #
point $-1 55.50880458113572 -35.533291776007488 12.369779120341038 #
loop $-1 $-1 $267 $259 #
plane-surface $-1 0 40.546918610400645 0 0 -1 0 0 0 -1 forward_v I I I I #
coedge $-1 $387 $262 $264 $391 reversed $161 $-1 #
coedge $-1 $262 $386 $500 $501 reversed $161 $-1 #
coedge $-1 $270 $265 $262 $389 forward $260 $-1 #
edge $-1 $392 -16.712461281093411 $502 -12.429173598108299 $388 $503 forward 7 unknown #
coedge $-1 $264 $263 $395 $504 reversed $102 $-1 #
edge $-1 $505 -81.093837220801319 $392 -73.976554341710298 $386 $506 forward 7 unknown #
vertex $-1 $266 $507 #
straight-curve $-1 -27.814541996144115 36.263630927415527 15.625666516703831 1 0 0 I I #
coedge $-1 $500 $267 $270 $399 reversed $384 $-1 #
coedge $-1 $267 $500 $390 $504 forward $384 $-1 #
vertex $-1 $268 $508 #
straight-curve $-1 -64.503495885908805 40.546918610400645 80.384218678235143 0 0 1 I I #
straight-curve $-1 -64.503495885908805 -8.2565700291038127 74.705970333315591 0 0.60181501223851219 -0.79863551827123203 I I #
edge $-1 $502 46.754672098667655 $271 64.503495885908805 $394 $509 forward 7 unknown #
point $-1 -64.503495885908805 40.546918610400645 15.625666516703824 #
point $-1 -64.503495885908805 36.263630927415534 15.625666516703831 #
edge $-1 $510 1 $510 0 $274 $-1 forward 7 unknown #
vertex $-1 $275 $511 #
ellipse-curve $-1 -55.62908399228823 34.698628112724407 9.9904505456384349 0 0.79863551827123203 0.60181501223851219 1.5 0 0 1 I I #
point $-1 -54.12908399228823 38.405274768908086 12.783609066290939 #
loop $-1 $-1 $286 $278 #
plane-surface $-1 0 40.546918610400645 0 0 -1 0 0 0 -1 forward_v I I I I #
coedge $-1 $409 $281 $283 $413 reversed $176 $-1 #
coedge $-1 $281 $408 $512 $513 reversed $176 $-1 #
coedge $-1 $289 $284 $281 $411 forward $279 $-1 #
edge $-1 $414 -16.712461281093411 $514 -12.429173598108299 $410 $515 forward 7 unknown #
coedge $-1 $283 $282 $417 $516 reversed $111 $-1 #
edge $-1 $517 -81.093837220801319 $414 -73.976554341710298 $408 $518 forward 7 unknown #
vertex $-1 $285 $519 #
straight-curve $-1 -9.9389354407682831 36.263630927415527 15.625666516703831 1 0 0 I I #
coedge $-1 $512 $286 $289 $421 reversed $406 $-1 #
coedge $-1 $286 $512 $412 $516 forward $406 $-1 #
vertex $-1 $287 $520 #
straight-curve $-1 -28.752282775157138 40.546918610400645 80.384218678235143 0 0 1 I I #
straight-curve $-1 -28.752282775157138 -8.2565700291038127 74.705970333315591 0 0.60181501223851219 -0.79863551827123203 I I #
edge $-1 $514 11.003458987915995 $290 28.752282775157138 $416 $521 forward 7 unknown #
point $-1 -28.752282775157138 40.546918610400645 15.625666516703824 #
point $-1 -28.752282775157138 36.263630927415534 15.625666516703831 #
edge $-1 $522 1 $522 0 $293 $-1 forward 7 unknown #
vertex $-1 $294 $523 #
ellipse-curve $-1 -19.877870881536566 34.698628112724407 9.9904505456384349 0 0.79863551827123203 0.60181501223851219 1.5 0 0 1 I I #
point $-1 -18.377870881536566 38.405274768908086 12.783609066290939 #
loop $-1 $-1 $305 $297 #
plane-surface $-1 0 40.546918610400645 0 0 -1 0 0 0 -1 forward_v I I I I #
coedge $-1 $431 $300 $302 $435 reversed $191 $-1 #
coedge $-1 $300 $430 $524 $525 reversed $191 $-1 #
coedge $-1 $308 $303 $300 $433 forward $298 $-1 #
edge $-1 $436 -16.712461281093411 $526 -12.429173598108299 $432 $527 forward 7 unknown #
coedge $-1 $302 $301 $439 $528 reversed $120 $-1 #
edge $-1 $529 -81.093837220801319 $436 -73.976554341710298 $430 $530 forward 7 unknown #
vertex $-1 $304 $531 #
straight-curve $-1 7.9366711146075559 36.263630927415527 15.625666516703831 1 0 0 I I #
coedge $-1 $524 $305 $308 $443 reversed $428 $-1 #
coedge $-1 $305 $524 $434 $528 forward $428 $-1 #
vertex $-1 $306 $532 #
straight-curve $-1 6.9989303355945403 40.546918610400645 80.384218678235143 0 0 1 I I #
straight-curve $-1 6.9989303355945403 -8.2565700291038127 74.705970333315591 0 0.60181501223851219 -0.79863551827123203 I I #
edge $-1 $526 -24.747754122835683 $309 -6.9989303355945403 $438 $533 forward 7 unknown #
point $-1 6.9989303355945403 40.546918610400645 15.625666516703824 #
point $-1 6.9989303355945403 36.263630927415534 15.625666516703831 #
edge $-1 $534 1 $534 0 $312 $-1 forward 7 unknown #
vertex $-1 $313 $535 #
ellipse-curve $-1 15.873342229215112 34.698628112724407 9.9904505456384349 0 0.79863551827123203 0.60181501223851219 1.5 0 0 1 I I #
point $-1 17.373342229215112 38.405274768908086 12.783609066290939 #
loop $-1 $-1 $324 $316 #
plane-surface $-1 0 40.546918610400645 0 0 -1 0 0 0 -1 forward_v I I I I #
coedge $-1 $453 $319 $321 $457 reversed $206 $-1 #
coedge $-1 $319 $452 $536 $537 reversed $206 $-1 #
coedge $-1 $327 $322 $319 $455 forward $317 $-1 #
edge $-1 $458 -16.712461281093411 $538 -12.429173598108299 $454 $539 forward 7 unknown #
coedge $-1 $321 $320 $461 $540 reversed $129 $-1 #
edge $-1 $541 -81.093837220801319 $458 -73.976554341710298 $452 $542 forward 7 unknown #
vertex $-1 $323 $543 #
straight-curve $-1 25.812277669983395 36.263630927415527 15.625666516703831 1 0 0 I I #
coedge $-1 $536 $324 $327 $465 reversed $450 $-1 #
coedge $-1 $324 $536 $456 $540 forward $450 $-1 #
vertex $-1 $325 $544 #
straight-curve $-1 42.750143446346215 40.546918610400645 80.384218678235143 0 0 1 I I #
straight-curve $-1 42.750143446346215 -8.2565700291038127 74.705970333315591 0 0.60181501223851219 -0.79863551827123203 I I #
edge $-1 $538 -60.498967233587365 $328 -42.750143446346215 $460 $545 forward 7 unknown #
point $-1 42.750143446346215 40.546918610400645 15.625666516703824 #
point $-1 42.750143446346215 36.263630927415534 15.625666516703831 #
edge $-1 $546 1 $546 0 $331 $-1 forward 7 unknown #
vertex $-1 $332 $547 #
ellipse-curve $-1 51.62455533996679 34.698628112724407 9.9904505456384349 0 0.79863551827123203 0.60181501223851219 1.5 0 0 1 I I #
point $-1 53.12455533996679 38.405274768908086 12.783609066290939 #
plane-surface $-1 71.502426221503342 0 0 -1 0 0 0 0 1 forward_v I I I I #
coedge $-1 $340 $338 $342 $477 reversed $221 $-1 #
edge $-1 $353 -15.625666516703824 $479 15.625666516703824 $352 $548 forward 7 unknown #
vertex $-1 $477 $549 #
straight-curve $-1 -71.502426221503342 -40.546918610400645 0 0 0 -1 I I #
edge $-1 $475 -40.546918610400645 $479 40.546918610400645 $473 $550 forward 7 unknown #
straight-curve $-1 0 -40.546918610400645 -15.625666516703824 -1 0 0 I I #
vertex $-1 $345 $551 #
straight-curve $-1 0 40.546918610400645 -15.625666516703824 1 0 0 I I #
point $-1 71.502426221503342 40.546918610400645 -15.625666516703824 #
point $-1 71.502426221503342 -40.546918610400645 -15.625666516703824 #
straight-curve $-1 -71.502426221503342 0 15.625666516703824 0 -1 0 I I #
point $-1 -71.502426221503342 40.546918610400645 15.625666516703824 #
point $-1 -71.502426221503342 -40.546918610400645 15.625666516703824 #
straight-curve $-1 71.502426221503342 -40.546918610400645 0 0 0 -1 I I #
straight-curve $-1 71.502426221503342 40.546918610400645 0 0 0 -1 I I #
coedge $-1 $365 $364 $372 $493 reversed $146 $-1 #
edge $-1 $368 36.515182940768099 $496 71.502426221503342 $365 $552 forward 7 unknown #
straight-curve $-1 36.515182940768099 -40.546918610400645 64.523925939305016 0 0 -1 I I #
point $-1 36.515182940768099 -40.546918610400645 15.625666516703824 #
straight-curve $-1 27.00440229056786 -40.546918610400645 9.1138917239782486 1 0 0 I I #
edge $-1 $496 -15.625666516703824 $373 -9.1138917239782504 $372 $553 forward 7 unknown #
point $-1 71.502426221503342 -40.546918610400645 9.1138917239782504 #
point $-1 36.515182940768099 -40.546918610400645 9.1138917239782504 #
vertex $-1 $377 $554 #
straight-curve $-1 71.502426221503342 0 15.625666516703824 0 1 0 I I #
vertex $-1 $380 $555 #
point $-1 55.50880458113572 -34.227609138060785 10.359204209757907 #
coedge $-1 $395 $394 $387 $501 forward $384 $-1 #
edge $-1 $502 64.758552161531327 $505 70.442667062357145 $500 $556 forward 7 unknown #
vertex $-1 $399 $557 #
straight-curve $-1 -46.754672098667655 52.976092208508945 15.625666516703831 0 1 0 I I #
edge $-1 $505 18.94013010252354 $396 36.68895388976469 $395 $558 forward 7 unknown #
vertex $-1 $504 $559 #
straight-curve $-1 -46.754672098667655 -8.2565700291038127 74.705970333315591 0 -0.60181501223851219 0.79863551827123203 I I #
point $-1 -46.754672098667655 36.263630927415534 15.625666516703831 #
point $-1 -64.503495885908805 40.546918610400645 9.941551615877998 #
straight-curve $-1 0 40.546918610400645 15.625666516703824 -1 0 0 I I #
vertex $-1 $402 $560 #
point $-1 -54.12908399228823 34.698628112724407 9.9904505456384349 #
coedge $-1 $417 $416 $409 $513 forward $406 $-1 #
edge $-1 $514 64.758552161531327 $517 70.442667062357145 $512 $561 forward 7 unknown #
vertex $-1 $421 $562 #
straight-curve $-1 -11.003458987915995 52.976092208508945 15.625666516703831 0 1 0 I I #
edge $-1 $517 1.0645235471477115 $418 18.813347334388855 $417 $563 forward 7 unknown #
vertex $-1 $516 $564 #
straight-curve $-1 -11.003458987915995 -8.2565700291038127 74.705970333315591 0 -0.60181501223851219 0.79863551827123203 I I #
point $-1 -11.003458987915995 36.263630927415534 15.625666516703831 #
point $-1 -28.752282775157138 40.546918610400645 9.941551615877998 #
straight-curve $-1 0 40.546918610400645 15.625666516703824 -1 0 0 I I #
vertex $-1 $424 $565 #
point $-1 -18.377870881536566 34.698628112724407 9.9904505456384349 #
coedge $-1 $439 $438 $431 $525 forward $428 $-1 #
edge $-1 $526 64.758552161531327 $529 70.442667062357145 $524 $566 forward 7 unknown #
vertex $-1 $443 $567 #
straight-curve $-1 24.747754122835683 52.976092208508945 15.625666516703831 0 1 0 I I #
edge $-1 $529 -16.811083008228128 $440 0.93774077901301567 $439 $568 forward 7 unknown #
vertex $-1 $528 $569 #
straight-curve $-1 24.747754122835683 -8.2565700291038127 74.705970333315591 0 -0.60181501223851219 0.79863551827123203 I I #
point $-1 24.747754122835683 36.263630927415534 15.625666516703831 #
point $-1 6.9989303355945403 40.546918610400645 9.941551615877998 #
straight-curve $-1 0 40.546918610400645 15.625666516703824 -1 0 0 I I #
vertex $-1 $446 $570 #
point $-1 17.373342229215112 34.698628112724407 9.9904505456384349 #
coedge $-1 $461 $460 $453 $537 forward $450 $-1 #
edge $-1 $538 64.758552161531327 $541 70.442667062357145 $536 $571 forward 7 unknown #
vertex $-1 $465 $572 #
straight-curve $-1 60.498967233587365 52.976092208508945 15.625666516703831 0 1 0 I I #
edge $-1 $541 -34.68668956360397 $462 -16.93786577636282 $461 $573 forward 7 unknown #
vertex $-1 $540 $574 #
straight-curve $-1 60.498967233587365 -8.2565700291038127 74.705970333315591 0 -0.60181501223851219 0.79863551827123203 I I #
point $-1 60.498967233587365 36.263630927415534 15.625666516703831 #
point $-1 42.750143446346215 40.546918610400645 9.941551615877998 #
straight-curve $-1 0 40.546918610400645 15.625666516703824 -1 0 0 I I #
vertex $-1 $468 $575 #
point $-1 53.12455533996679 34.698628112724407 9.9904505456384349 #
straight-curve $-1 -71.502426221503342 40.546918610400645 0 0 0 -1 I I #
point $-1 -71.502426221503342 -40.546918610400645 -15.625666516703824 #
straight-curve $-1 -71.502426221503342 0 -15.625666516703824 0 1 0 I I #
point $-1 -71.502426221503342 40.546918610400645 -15.625666516703824 #
straight-curve $-1 0 -40.546918610400645 15.625666516703824 1 0 0 I I #
straight-curve $-1 71.502426221503342 -40.546918610400645 0 0 0 -1 I I #
point $-1 71.502426221503342 -40.546918610400645 15.625666516703824 #
point $-1 54.00880458113572 -33.410650574834449 9.1011983647908945 #
straight-curve $-1 -46.754672098667655 40.546918610400645 80.384218678235143 0 0 -1 I I #
point $-1 -46.754672098667655 40.546918610400645 15.625666516703824 #
straight-curve $-1 -27.814541996144115 40.546918610400645 9.9415516158780157 -1 0 0 I I #
point $-1 -46.754672098667655 40.546918610400645 9.941551615877998 #
point $-1 -55.62908399228823 33.500674835317554 9.0877280272806651 #
straight-curve $-1 -11.003458987915995 40.546918610400645 80.384218678235143 0 0 -1 I I #
point $-1 -11.003458987915995 40.546918610400645 15.625666516703824 #
straight-curve $-1 -9.9389354407682831 40.546918610400645 9.9415516158780157 -1 0 0 I I #
point $-1 -11.003458987915995 40.546918610400645 9.941551615877998 #
point $-1 -19.877870881536566 33.500674835317554 9.0877280272806651 #
straight-curve $-1 24.747754122835683 40.546918610400645 80.384218678235143 0 0 -1 I I #
point $-1 24.747754122835683 40.546918610400645 15.625666516703824 #
straight-curve $-1 7.9366711146075559 40.546918610400645 9.9415516158780157 -1 0 0 I I #
point $-1 24.747754122835683 40.546918610400645 9.941551615877998 #
point $-1 15.873342229215112 33.500674835317554 9.0877280272806651 #
straight-curve $-1 60.498967233587365 40.546918610400645 80.384218678235143 0 0 -1 I I #
point $-1 60.498967233587365 40.546918610400645 15.625666516703824 #
straight-curve $-1 25.812277669983395 40.546918610400645 9.9415516158780157 -1 0 0 I I #
point $-1 60.498967233587365 40.546918610400645 9.941551615877998 #
point $-1 51.62455533996679 33.500674835317554 9.0877280272806651 #
End-of-ACIS-data 