500 0 8 0           
7 Unknown 11 ACIS 5.0 NT 24 Fri Mar 26 17:13:20 1999 
-1 9.9999999999999995e-007 1e-010 
body $-1 $8 $-1 $9 #
body $-1 $10 $-1 $11 #
body $-1 $12 $-1 $13 #
body $-1 $14 $-1 $15 #
body $-1 $16 $-1 $17 #
body $-1 $18 $-1 $19 #
body $-1 $20 $-1 $21 #
body $-1 $22 $-1 $23 #
lump $-1 $-1 $24 $0 #
transform $-1 1 0 0 0 1 0 0 0 1 58.48078859828486 29.026046244372264 11.617416567921046 1 rotate no_reflect no_shear #
lump $-1 $-1 $25 $1 #
transform $-1 1 0 0 0 1 0 0 0 1 58.48078859828486 29.026046244372264 11.617416567921046 1 rotate no_reflect no_shear #
lump $-1 $-1 $26 $2 #
transform $-1 1 0 0 0 1 0 0 0 1 58.48078859828486 29.026046244372264 11.617416567921046 1 rotate no_reflect no_shear #
lump $-1 $-1 $27 $3 #
transform $-1 1 0 0 0 1 0 0 0 1 58.48078859828486 29.026046244372264 11.617416567921046 1 rotate no_reflect no_shear #
lump $-1 $-1 $28 $4 #
transform $-1 1 0 0 0 1 0 0 0 1 58.48078859828486 29.026046244372264 11.617416567921046 1 rotate no_reflect no_shear #
lump $-1 $-1 $29 $5 #
transform $-1 1 0 0 0 1 0 0 0 1 58.48078859828486 29.026046244372264 11.617416567921046 1 rotate no_reflect no_shear #
lump $-1 $-1 $30 $6 #
transform $-1 1 0 0 0 1 0 0 0 1 58.48078859828486 29.026046244372264 11.617416567921046 1 rotate no_reflect no_shear #
lump $-1 $-1 $31 $7 #
transform $-1 1 0 0 0 1 0 0 0 1 58.48078859828486 29.026046244372264 11.617416567921046 1 rotate no_reflect no_shear #
shell $-1 $-1 $-1 $32 $-1 $8 #
shell $-1 $-1 $-1 $33 $-1 $10 #
shell $-1 $-1 $-1 $34 $-1 $12 #
shell $-1 $-1 $-1 $35 $-1 $14 #
shell $-1 $-1 $-1 $36 $-1 $16 #
shell $-1 $-1 $-1 $37 $-1 $18 #
shell $-1 $-1 $-1 $38 $-1 $20 #
shell $-1 $-1 $-1 $39 $-1 $22 #
face $-1 $40 $41 $24 $-1 $42 forward single #
face $-1 $43 $44 $25 $-1 $45 forward single #
face $-1 $46 $47 $26 $-1 $48 forward single #
face $-1 $49 $50 $27 $-1 $51 reversed single #
face $-1 $52 $53 $28 $-1 $54 forward single #
face $-1 $55 $56 $29 $-1 $57 reversed single #
face $-1 $58 $59 $30 $-1 $60 forward single #
face $-1 $61 $62 $31 $-1 $63 forward single #
face $-1 $64 $65 $24 $-1 $66 reversed single #
loop $-1 $-1 $67 $32 #
plane-surface $-1 0 0 11.617416567921046 0 0 1 1 0 0 forward_v I I I I #
face $-1 $68 $69 $25 $-1 $70 reversed single #
loop $-1 $-1 $71 $33 #
plane-surface $-1 -53.333713230186646 0 7.1404269487603473 0 0 1 1 0 0 forward_v I I I I #
face $-1 $72 $73 $26 $-1 $74 reversed single #
loop $-1 $-1 $75 $34 #
plane-surface $-1 53.333713230186646 0 7.1404269487603473 0 0 1 1 0 0 forward_v I I I I #
face $-1 $76 $77 $27 $-1 $78 reversed single #
loop $-1 $-1 $79 $35 #
plane-surface $-1 -25.415227216033109 93.529271773542192 117.14178531004775 -1 0 0 0 0.82903758062907751 0.55919289150049634 forward_v I I I I #
face $-1 $80 $81 $28 $-1 $82 forward single #
loop $-1 $83 $84 $36 #
cone-surface $-1 -36.800932539060767 23.958400468316718 6.0171638157820304 0 -0.82903758062907751 -0.55919289150049634 1.5 0 0 1 I I 0 1 1.5 forward I I I I #
face $-1 $85 $86 $29 $-1 $87 reversed single #
loop $-1 $-1 $88 $37 #
plane-surface $-1 35.753288237997154 -29.026046244372267 5.7084763336068036 0 -0.83867057594974714 0.54463902268945019 1 0 0 forward_v I I I I #
face $-1 $89 $90 $30 $-1 $91 forward single #
loop $-1 $92 $93 $38 #
cone-surface $-1 30.424709827672316 -26.309928313428042 8.1450681576661381 0 0.83867057594974714 -0.54463902268945019 1 0 0 1 I I 0 1 1 forward I I I I #
face $-1 $94 $95 $31 $-1 $96 forward single #
loop $-1 $97 $98 $39 #
cone-surface $-1 41.081866648321991 -26.309928313428042 8.1450681576661381 0 0.83867057594974714 -0.54463902268945019 1 0 0 1 I I 0 1 1 forward I I I I #
face $-1 $99 $100 $24 $-1 $101 reversed single #
loop $-1 $-1 $102 $40 #
plane-surface $-1 0 0 -11.617416567921046 0 0 1 1 0 0 forward_v I I I I #
coedge $-1 $103 $104 $105 $106 forward $41 $-1 #
face $-1 $107 $108 $25 $-1 $109 reversed single #
loop $-1 $-1 $110 $43 #
plane-surface $-1 -53.333713230186646 0 0.34781740079525658 0 0 1 1 0 0 forward_v I I I I #
coedge $-1 $111 $112 $113 $114 forward $44 $-1 #
face $-1 $115 $116 $26 $-1 $117 reversed single #
loop $-1 $-1 $118 $46 #
plane-surface $-1 53.333713230186646 0 0.34781740079525658 0 0 1 1 0 0 forward_v I I I I #
coedge $-1 $119 $120 $121 $122 reversed $47 $-1 #
face $-1 $123 $124 $27 $-1 $125 forward single #
loop $-1 $-1 $126 $49 #
plane-surface $-1 -36.800932539060767 -3.4362712120630476 51.737702763039408 0 0.82903758062907751 0.55919289150049634 1 0 0 forward_v I I I I #
coedge $-1 $127 $128 $129 $130 reversed $50 $-1 #
face $-1 $-1 $131 $28 $-1 $132 forward single #
loop $-1 $133 $134 $52 #
cone-surface $-1 -36.800932539060767 20.969398288045017 4.0010564511205491 0 -0.82903758062907751 -0.55919289150049634 0.75 0 0 1 I I -0.70710678118654757 0.70710678118654757 0.75 forward I I I I #
loop $-1 $-1 $135 $36 #
coedge $-1 $84 $84 $136 $137 reversed $53 $-1 #
face $-1 $138 $139 $29 $-1 $140 forward single #
loop $-1 $-1 $141 $55 #
plane-surface $-1 23.319938613905876 -127.1182795558102 69.410315430163223 1 0 0 0 0.83867057594974714 -0.54463902268945019 forward_v I I I I #
coedge $-1 $142 $143 $144 $145 reversed $56 $-1 #
face $-1 $-1 $146 $30 $-1 $147 forward single #
loop $-1 $148 $149 $58 #
cone-surface $-1 30.424709827672316 -25.093130360733596 7.3548703532236264 0 0.83867057594974714 -0.54463902268945019 0.5 0 0 1 I I -0.70710678118654746 0.70710678118654746 0.5 forward I I I I #
loop $-1 $-1 $150 $38 #
coedge $-1 $93 $93 $151 $152 reversed $59 $-1 #
face $-1 $-1 $153 $31 $-1 $154 forward single #
loop $-1 $155 $156 $61 #
cone-surface $-1 41.081866648321991 -25.093130360733596 7.3548703532236264 0 0.83867057594974714 -0.54463902268945019 0.5 0 0 1 I I -0.70710678118654746 0.70710678118654746 0.5 forward I I I I #
loop $-1 $-1 $157 $39 #
coedge $-1 $98 $98 $158 $159 reversed $62 $-1 #
face $-1 $160 $161 $24 $-1 $162 reversed single #
loop $-1 $-1 $163 $64 #
plane-surface $-1 0 -29.026046244372264 0 0 1 0 0 0 1 forward_v I I I I #
coedge $-1 $164 $165 $166 $167 forward $65 $-1 #
coedge $-1 $168 $67 $169 $170 forward $41 $-1 #
coedge $-1 $67 $168 $171 $172 forward $41 $-1 #
coedge $-1 $173 $174 $67 $106 reversed $175 $-1 #
edge $-1 $176 -29.026046244372264 $177 29.026046244372264 $105 $178 forward 7 unknown #
face $-1 $179 $180 $25 $-1 $181 reversed single #
loop $-1 $-1 $182 $68 #
plane-surface $-1 -48.186637862088432 0 3.744122174777802 -1 0 0 0 0 1 forward_v I I I I #
coedge $-1 $183 $184 $185 $186 forward $69 $-1 #
coedge $-1 $187 $71 $188 $189 reversed $44 $-1 #
coedge $-1 $71 $187 $190 $191 reversed $44 $-1 #
coedge $-1 $182 $192 $71 $114 reversed $108 $-1 #
edge $-1 $193 -29.026046244372264 $194 29.026046244372264 $113 $195 forward 7 unknown #
face $-1 $196 $197 $26 $-1 $198 reversed single #
loop $-1 $-1 $199 $72 #
plane-surface $-1 48.186637862088432 0 3.744122174777802 1 0 0 0 0 -1 forward_v I I I I #
coedge $-1 $200 $201 $202 $203 reversed $73 $-1 #
coedge $-1 $204 $75 $205 $206 reversed $47 $-1 #
coedge $-1 $75 $204 $207 $208 reversed $47 $-1 #
coedge $-1 $209 $210 $75 $122 forward $211 $-1 #
edge $-1 $212 -29.026046244372264 $213 29.026046244372264 $121 $214 forward 7 unknown #
face $-1 $215 $216 $27 $-1 $217 reversed single #
loop $-1 $-1 $218 $76 #
plane-surface $-1 0 0 11.617416567921046 0 0 1 1 0 0 forward_v I I I I #
coedge $-1 $219 $220 $221 $222 reversed $77 $-1 #
coedge $-1 $128 $79 $223 $224 reversed $50 $-1 #
coedge $-1 $79 $127 $219 $225 reversed $50 $-1 #
coedge $-1 $221 $226 $79 $130 forward $216 $-1 #
edge $-1 $227 46.953476087102828 $228 54.960556199308705 $129 $229 forward 7 unknown #
loop $-1 $-1 $136 $80 #
plane-surface $-1 -36.800932539060767 -3.4362712120630476 51.737702763039408 0 0.82903758062907751 0.55919289150049634 1 0 0 forward_v I I I I #
loop $-1 $-1 $230 $52 #
coedge $-1 $134 $134 $135 $231 reversed $81 $-1 #
coedge $-1 $135 $135 $134 $231 forward $83 $-1 #
coedge $-1 $136 $136 $84 $137 forward $131 $-1 #
edge $-1 $232 -1.0203815446624646e-016 $232 6.2831853071796004 $136 $233 forward 7 unknown #
face $-1 $234 $235 $29 $-1 $236 reversed single #
loop $-1 $-1 $237 $85 #
plane-surface $-1 0 0 11.617416567921046 0 0 1 1 0 0 forward_v I I I I #
coedge $-1 $238 $239 $240 $241 reversed $86 $-1 #
coedge $-1 $242 $88 $243 $244 forward $56 $-1 #
coedge $-1 $88 $242 $238 $245 forward $56 $-1 #
coedge $-1 $240 $237 $88 $145 forward $139 $-1 #
edge $-1 $246 -30.309993743089855 $247 -5.443294494907299 $144 $248 forward 7 unknown #
loop $-1 $-1 $151 $89 #
plane-surface $-1 35.753288237997154 -29.026046244372267 5.7084763336068036 0 -0.83867057594974714 0.54463902268945019 1 0 0 forward_v I I I I #
loop $-1 $-1 $249 $58 #
coedge $-1 $149 $149 $150 $250 reversed $90 $-1 #
coedge $-1 $150 $150 $149 $250 forward $92 $-1 #
coedge $-1 $151 $151 $93 $152 forward $146 $-1 #
edge $-1 $251 2.3801147982426114e-015 $251 6.2831853071796031 $151 $252 forward 7 unknown #
loop $-1 $-1 $158 $94 #
plane-surface $-1 35.753288237997154 -29.026046244372267 5.7084763336068036 0 -0.83867057594974714 0.54463902268945019 1 0 0 forward_v I I I I #
loop $-1 $-1 $253 $61 #
coedge $-1 $156 $156 $157 $254 reversed $95 $-1 #
coedge $-1 $157 $157 $156 $254 forward $97 $-1 #
coedge $-1 $158 $158 $98 $159 forward $153 $-1 #
edge $-1 $255 2.3801147982426114e-015 $255 6.2831853071796031 $158 $256 forward 7 unknown #
face $-1 $257 $258 $24 $-1 $259 reversed single #
loop $-1 $-1 $260 $99 #
plane-surface $-1 -58.48078859828486 0 0 1 0 0 0 0 -1 forward_v I I I I #
coedge $-1 $261 $171 $262 $263 forward $100 $-1 #
coedge $-1 $264 $102 $261 $265 forward $65 $-1 #
coedge $-1 $102 $264 $266 $267 forward $65 $-1 #
coedge $-1 $174 $173 $102 $167 reversed $175 $-1 #
edge $-1 $268 -29.026046244372264 $269 29.026046244372264 $166 $270 forward 7 unknown #
coedge $-1 $104 $103 $271 $272 forward $41 $-1 #
coedge $-1 $273 $274 $103 $170 reversed $258 $-1 #
edge $-1 $177 -58.48078859828486 $275 58.48078859828486 $169 $276 forward 7 unknown #
coedge $-1 $163 $277 $104 $172 reversed $100 $-1 #
edge $-1 $278 -58.48078859828486 $176 58.48078859828486 $171 $279 forward 7 unknown #
coedge $-1 $166 $105 $277 $280 forward $175 $-1 #
coedge $-1 $105 $166 $273 $281 reversed $175 $-1 #
loop $-1 $-1 $173 $257 #
vertex $-1 $106 $282 #
vertex $-1 $106 $283 #
straight-curve $-1 58.48078859828486 0 11.617416567921046 0 1 0 I I #
face $-1 $284 $285 $25 $-1 $286 reversed single #
loop $-1 $-1 $287 $107 #
plane-surface $-1 0 -29.026046244372264 0 0 1 0 0 0 1 forward_v I I I I #
coedge $-1 $185 $113 $288 $289 reversed $108 $-1 #
coedge $-1 $290 $110 $287 $291 reversed $69 $-1 #
coedge $-1 $110 $290 $292 $293 reversed $69 $-1 #
coedge $-1 $192 $182 $110 $186 reversed $108 $-1 #
edge $-1 $294 -29.026046244372264 $295 29.026046244372264 $185 $296 forward 7 unknown #
coedge $-1 $112 $111 $297 $298 reversed $44 $-1 #
coedge $-1 $299 $300 $111 $189 forward $301 $-1 #
edge $-1 $302 -31.813931983191537 $194 -21.519781246995109 $188 $303 forward 7 unknown #
coedge $-1 $304 $288 $112 $191 forward $180 $-1 #
edge $-1 $193 21.519781246995109 $305 31.813931983191537 $190 $306 forward 7 unknown #
coedge $-1 $113 $185 $299 $307 reversed $108 $-1 #
vertex $-1 $191 $308 #
vertex $-1 $189 $309 #
straight-curve $-1 -48.186637862088432 0 7.1404269487603473 0 1 0 I I #
face $-1 $310 $311 $26 $-1 $312 reversed single #
loop $-1 $-1 $207 $115 #
plane-surface $-1 0 -29.026046244372264 0 0 1 0 0 0 1 forward_v I I I I #
coedge $-1 $313 $314 $315 $316 reversed $116 $-1 #
coedge $-1 $317 $118 $318 $319 reversed $73 $-1 #
coedge $-1 $118 $317 $320 $321 reversed $73 $-1 #
coedge $-1 $210 $209 $118 $203 forward $211 $-1 #
edge $-1 $322 -29.026046244372264 $323 29.026046244372264 $202 $324 forward 7 unknown #
coedge $-1 $120 $119 $314 $325 forward $47 $-1 #
coedge $-1 $326 $315 $119 $206 forward $311 $-1 #
edge $-1 $327 21.519781246995109 $212 31.813931983191537 $205 $328 forward 7 unknown #
coedge $-1 $329 $330 $120 $208 forward $197 $-1 #
edge $-1 $213 -31.813931983191537 $331 -21.519781246995109 $207 $332 forward 7 unknown #
coedge $-1 $202 $121 $330 $333 forward $211 $-1 #
coedge $-1 $121 $202 $326 $334 reversed $211 $-1 #
loop $-1 $-1 $121 $310 #
vertex $-1 $334 $335 #
vertex $-1 $333 $336 #
straight-curve $-1 58.48078859828486 0 7.1404269487603473 0 -1 0 I I #
face $-1 $-1 $337 $27 $-1 $338 forward single #
loop $-1 $-1 $339 $123 #
plane-surface $-1 0 29.026046244372264 0 0 -1 0 0 0 -1 forward_v I I I I #
coedge $-1 $340 $341 $342 $343 forward $124 $-1 #
coedge $-1 $344 $126 $128 $225 forward $77 $-1 #
coedge $-1 $126 $344 $345 $346 forward $77 $-1 #
coedge $-1 $339 $129 $126 $222 forward $216 $-1 #
edge $-1 $228 7.0147609465027259 $347 29.786171592558041 $221 $348 forward 7 unknown #
coedge $-1 $341 $340 $127 $224 forward $124 $-1 #
edge $-1 $349 -23.139433204910155 $227 -17.738589642398832 $223 $350 forward 7 unknown #
edge $-1 $228 -58.052092488744563 $349 -48.393808836355653 $128 $351 forward 7 unknown #
coedge $-1 $129 $339 $341 $352 reversed $216 $-1 #
vertex $-1 $352 $353 #
vertex $-1 $130 $354 #
straight-curve $-1 -25.415227216033109 29.026046244372267 58.570892655023876 0 0 -1 I I #
coedge $-1 $230 $230 $-1 $355 reversed $133 $-1 #
edge $-1 $356 0 $356 6.2831853071796004 $134 $357 forward 7 unknown #
vertex $-1 $137 $358 #
ellipse-curve $-1 -36.800932539060767 26.325624463116597 7.6138765118181304 0 0.82903758062907751 0.55919289150049634 1.5 0 0 1 I I #
face $-1 $-1 $359 $29 $-1 $360 forward single #
loop $-1 $-1 $361 $138 #
plane-surface $-1 0 -29.026046244372264 0 0 1 0 0 0 1 forward_v I I I I #
coedge $-1 $144 $362 $363 $364 forward $139 $-1 #
coedge $-1 $239 $141 $143 $245 reversed $86 $-1 #
coedge $-1 $141 $238 $365 $366 reversed $86 $-1 #
coedge $-1 $362 $144 $141 $241 forward $139 $-1 #
edge $-1 $247 -38.370404065982129 $367 -34.533093533532835 $240 $368 forward 7 unknown #
coedge $-1 $143 $142 $369 $370 reversed $56 $-1 #
coedge $-1 $363 $371 $142 $244 reversed $359 $-1 #
edge $-1 $246 -7.0456033677140768 $372 -6.4042811466935879e-015 $243 $373 forward 7 unknown #
edge $-1 $374 6.4042811466935879e-015 $247 7.0456033677140768 $238 $375 forward 7 unknown #
vertex $-1 $145 $376 #
vertex $-1 $145 $377 #
straight-curve $-1 17.876644118998577 -25.188735711922973 11.617416567921046 -1 0 0 I I #
coedge $-1 $249 $249 $-1 $378 reversed $148 $-1 #
edge $-1 $379 0 $379 6.2831853071796004 $149 $380 forward 7 unknown #
vertex $-1 $152 $381 #
ellipse-curve $-1 30.424709827672316 -27.10739097814762 8.6629464507639273 0 -0.83867057594974714 0.54463902268945019 1 0 0 1 I I #
coedge $-1 $253 $253 $-1 $382 reversed $155 $-1 #
edge $-1 $383 0 $383 6.2831853071796004 $156 $384 forward 7 unknown #
vertex $-1 $159 $385 #
ellipse-curve $-1 41.081866648321991 -27.10739097814762 8.6629464507639273 0 -0.83867057594974714 0.54463902268945019 1 0 0 1 I I #
face $-1 $-1 $175 $24 $-1 $386 reversed single #
loop $-1 $-1 $273 $160 #
plane-surface $-1 0 29.026046244372264 0 0 -1 0 0 0 -1 forward_v I I I I #
coedge $-1 $387 $271 $274 $388 forward $161 $-1 #
coedge $-1 $277 $163 $164 $265 reversed $100 $-1 #
coedge $-1 $271 $387 $163 $263 reversed $161 $-1 #
edge $-1 $278 -11.617416567921046 $389 11.617416567921046 $262 $390 forward 7 unknown #
coedge $-1 $165 $164 $387 $391 forward $65 $-1 #
edge $-1 $269 -58.48078859828486 $389 58.48078859828486 $261 $392 forward 7 unknown #
coedge $-1 $274 $273 $165 $267 reversed $258 $-1 #
edge $-1 $393 -58.48078859828486 $268 58.48078859828486 $266 $394 forward 7 unknown #
vertex $-1 $167 $395 #
vertex $-1 $280 $396 #
straight-curve $-1 58.48078859828486 0 -11.617416567921046 0 -1 0 I I #
coedge $-1 $260 $262 $168 $272 reversed $161 $-1 #
edge $-1 $275 -29.026046244372264 $278 29.026046244372264 $271 $397 forward 7 unknown #
coedge $-1 $266 $169 $174 $281 forward $258 $-1 #
coedge $-1 $169 $266 $260 $388 reversed $258 $-1 #
vertex $-1 $170 $398 #
straight-curve $-1 0 29.026046244372264 11.617416567921046 -1 0 0 I I #
coedge $-1 $171 $261 $173 $280 reversed $100 $-1 #
vertex $-1 $272 $399 #
straight-curve $-1 0 -29.026046244372264 11.617416567921046 1 0 0 I I #
edge $-1 $176 -11.617416567921046 $269 11.617416567921046 $173 $400 forward 7 unknown #
edge $-1 $177 -11.617416567921046 $268 11.617416567921046 $174 $401 forward 7 unknown #
point $-1 58.48078859828486 -29.026046244372264 11.617416567921046 #
point $-1 58.48078859828486 29.026046244372264 11.617416567921046 #
face $-1 $-1 $301 $25 $-1 $402 reversed single #
loop $-1 $-1 $403 $179 #
plane-surface $-1 -58.48078859828486 0 0 1 0 0 0 0 -1 forward_v I I I I #
coedge $-1 $288 $304 $183 $291 forward $180 $-1 #
coedge $-1 $190 $287 $182 $289 forward $180 $-1 #
edge $-1 $295 -1.5242436865936444 $193 5.2683658613714464 $288 $404 forward 7 unknown #
coedge $-1 $184 $183 $403 $405 reversed $69 $-1 #
edge $-1 $406 -31.813931983191537 $295 -21.519781246995109 $287 $407 forward 7 unknown #
coedge $-1 $300 $299 $184 $293 forward $301 $-1 #
edge $-1 $294 21.519781246995109 $408 31.813931983191537 $292 $409 forward 7 unknown #
vertex $-1 $293 $410 #
vertex $-1 $291 $411 #
straight-curve $-1 -48.186637862088432 0 0.34781740079525658 0 -1 0 I I #
coedge $-1 $412 $413 $187 $298 forward $285 $-1 #
edge $-1 $305 -29.026046244372264 $302 29.026046244372264 $297 $414 forward 7 unknown #
coedge $-1 $292 $188 $192 $307 forward $301 $-1 #
coedge $-1 $188 $292 $412 $415 reversed $301 $-1 #
loop $-1 $-1 $292 $284 #
vertex $-1 $415 $416 #
straight-curve $-1 -26.666856615093323 29.026046244372264 7.1404269487603473 1 0 0 I I #
coedge $-1 $287 $190 $413 $417 forward $180 $-1 #
vertex $-1 $417 $418 #
straight-curve $-1 -26.666856615093323 -29.026046244372264 7.1404269487603473 -1 0 0 I I #
edge $-1 $194 -5.2683658613714464 $294 1.5242436865936444 $299 $419 forward 7 unknown #
point $-1 -48.186637862088432 -29.026046244372264 7.1404269487603473 #
point $-1 -48.186637862088432 29.026046244372264 7.1404269487603473 #
face $-1 $-1 $211 $26 $-1 $420 reversed single #
loop $-1 $-1 $205 $196 #
plane-surface $-1 0 29.026046244372264 0 0 -1 0 0 0 -1 forward_v I I I I #
coedge $-1 $421 $199 $317 $422 reversed $116 $-1 #
coedge $-1 $199 $421 $204 $325 reversed $116 $-1 #
coedge $-1 $205 $320 $199 $316 forward $311 $-1 #
edge $-1 $423 -1.5242436865936444 $327 5.2683658613714464 $315 $424 forward 7 unknown #
coedge $-1 $201 $200 $313 $422 forward $73 $-1 #
coedge $-1 $330 $329 $200 $319 forward $197 $-1 #
edge $-1 $425 21.519781246995109 $322 31.813931983191537 $318 $426 forward 7 unknown #
coedge $-1 $315 $326 $201 $321 forward $311 $-1 #
edge $-1 $323 -31.813931983191537 $423 -21.519781246995109 $320 $427 forward 7 unknown #
vertex $-1 $203 $428 #
vertex $-1 $203 $429 #
straight-curve $-1 58.48078859828486 0 0.34781740079525658 0 1 0 I I #
edge $-1 $327 -29.026046244372264 $331 29.026046244372264 $314 $430 forward 7 unknown #
coedge $-1 $320 $205 $210 $334 forward $311 $-1 #
vertex $-1 $206 $431 #
straight-curve $-1 26.666856615093323 29.026046244372264 7.1404269487603473 1 0 0 I I #
coedge $-1 $318 $207 $421 $432 forward $197 $-1 #
coedge $-1 $207 $318 $209 $333 reversed $197 $-1 #
vertex $-1 $208 $433 #
straight-curve $-1 26.666856615093323 -29.026046244372264 7.1404269487603473 -1 0 0 I I #
edge $-1 $213 -7.1404269487603473 $322 -0.34781740079525658 $209 $434 forward 7 unknown #
edge $-1 $212 -7.1404269487603473 $323 -0.34781740079525658 $210 $435 forward 7 unknown #
point $-1 58.48078859828486 29.026046244372264 7.1404269487603473 #
point $-1 58.48078859828486 -29.026046244372264 7.1404269487603473 #
loop $-1 $-1 $345 $215 #
plane-surface $-1 -48.186637862088432 0 3.744122174777802 -1 0 0 0 0 1 forward_v I I I I #
coedge $-1 $226 $221 $436 $437 forward $216 $-1 #
coedge $-1 $223 $218 $344 $438 forward $124 $-1 #
coedge $-1 $218 $223 $226 $352 forward $124 $-1 #
coedge $-1 $436 $345 $218 $343 reversed $337 $-1 #
edge $-1 $439 17.738589642398832 $440 23.139433204910155 $218 $441 forward 7 unknown #
coedge $-1 $220 $219 $340 $438 reversed $77 $-1 #
coedge $-1 $342 $436 $220 $346 reversed $337 $-1 #
edge $-1 $440 48.393808836355653 $347 58.052092488744563 $345 $442 forward 7 unknown #
vertex $-1 $437 $443 #
straight-curve $-1 -18.400466269530384 29.026046244372267 3.6103364557151743 -1 0 0 I I #
vertex $-1 $224 $444 #
straight-curve $-1 -25.415227216033109 46.764635886771096 11.617416567921047 0 1 0 I I #
straight-curve $-1 -25.415227216033109 -3.4362712120630476 51.737702763039408 0 -0.55919289150049634 0.82903758062907751 I I #
edge $-1 $227 25.415227216033109 $439 48.186637862088425 $226 $445 forward 7 unknown #
point $-1 -25.415227216033109 29.026046244372264 11.617416567921046 #
point $-1 -25.415227216033109 29.026046244372267 3.6103364557151707 #
edge $-1 $446 1 $446 0 $230 $-1 forward 7 unknown #
vertex $-1 $231 $447 #
ellipse-curve $-1 -36.800932539060767 21.591176473516825 4.4204511197459215 0 0.82903758062907751 0.55919289150049634 1.5 0 0 1 I I #
point $-1 -35.300932539060767 26.325624463116611 7.6138765118181402 #
loop $-1 $-1 $243 $234 #
plane-surface $-1 48.186637862088432 0 3.744122174777802 1 0 0 0 0 -1 forward_v I I I I #
coedge $-1 $448 $369 $371 $449 forward $235 $-1 #
coedge $-1 $237 $240 $448 $450 forward $139 $-1 #
coedge $-1 $371 $243 $237 $364 reversed $359 $-1 #
edge $-1 $451 34.533093533532835 $246 38.370404065982129 $237 $452 forward 7 unknown #
coedge $-1 $369 $448 $239 $366 forward $235 $-1 #
edge $-1 $367 23.087741147160564 $374 28.996681381474801 $365 $453 forward 7 unknown #
vertex $-1 $450 $454 #
straight-curve $-1 23.319938613905876 -63.559139777905102 11.617416567921047 0 -1 0 I I #
coedge $-1 $361 $365 $242 $370 forward $235 $-1 #
edge $-1 $374 5.443294494907299 $372 30.309993743089855 $369 $455 forward 7 unknown #
coedge $-1 $243 $363 $361 $449 reversed $359 $-1 #
vertex $-1 $449 $456 #
straight-curve $-1 48.186637862088432 -29.026046244372267 5.7084763336068036 0 -0.54463902268945019 -0.83867057594974714 I I #
vertex $-1 $370 $457 #
straight-curve $-1 23.319938613905876 -29.026046244372267 5.7084763336068036 0 0.54463902268945019 0.83867057594974714 I I #
point $-1 48.186637862088432 -25.188735711922973 11.617416567921046 #
point $-1 23.319938613905876 -25.188735711922973 11.617416567921046 #
edge $-1 $458 1 $458 0 $249 $-1 forward 7 unknown #
vertex $-1 $250 $459 #
ellipse-curve $-1 30.424709827672316 -25.512465648708471 7.6271898645683516 0 -0.83867057594974714 0.54463902268945019 1 0 0 1 I I #
point $-1 31.424709827672316 -27.107390978147613 8.6629464507639256 #
edge $-1 $460 1 $460 0 $253 $-1 forward 7 unknown #
vertex $-1 $254 $461 #
ellipse-curve $-1 41.081866648321991 -25.512465648708471 7.6271898645683516 0 -0.83867057594974714 0.54463902268945019 1 0 0 1 I I #
point $-1 42.081866648321991 -27.107390978147613 8.6629464507639256 #
plane-surface $-1 58.48078859828486 0 0 -1 0 0 0 0 1 forward_v I I I I #
coedge $-1 $262 $260 $264 $391 reversed $161 $-1 #
edge $-1 $275 -11.617416567921046 $393 11.617416567921046 $274 $462 forward 7 unknown #
vertex $-1 $391 $463 #
straight-curve $-1 -58.48078859828486 -29.026046244372264 0 0 0 -1 I I #
edge $-1 $389 -29.026046244372264 $393 29.026046244372264 $387 $464 forward 7 unknown #
straight-curve $-1 0 -29.026046244372264 -11.617416567921046 -1 0 0 I I #
vertex $-1 $267 $465 #
straight-curve $-1 0 29.026046244372264 -11.617416567921046 1 0 0 I I #
point $-1 58.48078859828486 29.026046244372264 -11.617416567921046 #
point $-1 58.48078859828486 -29.026046244372264 -11.617416567921046 #
straight-curve $-1 -58.48078859828486 0 11.617416567921046 0 -1 0 I I #
point $-1 -58.48078859828486 29.026046244372264 11.617416567921046 #
point $-1 -58.48078859828486 -29.026046244372264 11.617416567921046 #
straight-curve $-1 58.48078859828486 -29.026046244372264 0 0 0 -1 I I #
straight-curve $-1 58.48078859828486 29.026046244372264 0 0 0 -1 I I #
plane-surface $-1 0 29.026046244372264 0 0 -1 0 0 0 -1 forward_v I I I I #
coedge $-1 $413 $412 $290 $405 forward $285 $-1 #
straight-curve $-1 -48.186637862088432 -29.026046244372264 1.872061087388901 0 0 1 I I #
edge $-1 $408 -29.026046244372264 $406 29.026046244372264 $403 $466 forward 7 unknown #
vertex $-1 $291 $467 #
straight-curve $-1 -26.666856615093323 -29.026046244372264 0.34781740079525658 1 0 0 I I #
vertex $-1 $293 $468 #
straight-curve $-1 -26.666856615093323 29.026046244372264 0.34781740079525658 -1 0 0 I I #
point $-1 -48.186637862088432 29.026046244372264 0.34781740079525658 #
point $-1 -48.186637862088432 -29.026046244372264 0.34781740079525658 #
coedge $-1 $403 $297 $300 $415 forward $285 $-1 #
coedge $-1 $297 $403 $304 $417 reversed $285 $-1 #
straight-curve $-1 -58.48078859828486 0 7.1404269487603473 0 1 0 I I #
edge $-1 $302 -7.1404269487603473 $408 -0.34781740079525658 $300 $469 forward 7 unknown #
point $-1 -58.48078859828486 29.026046244372264 7.1404269487603473 #
edge $-1 $305 -7.1404269487603473 $406 -0.34781740079525658 $413 $470 forward 7 unknown #
point $-1 -58.48078859828486 -29.026046244372264 7.1404269487603473 #
straight-curve $-1 -48.186637862088432 29.026046244372264 1.872061087388901 0 0 -1 I I #
plane-surface $-1 58.48078859828486 0 0 -1 0 0 0 0 1 forward_v I I I I #
coedge $-1 $314 $313 $329 $432 reversed $116 $-1 #
edge $-1 $425 -29.026046244372264 $423 29.026046244372264 $313 $471 forward 7 unknown #
vertex $-1 $321 $472 #
straight-curve $-1 48.186637862088432 29.026046244372264 1.872061087388901 0 0 1 I I #
vertex $-1 $319 $473 #
straight-curve $-1 26.666856615093323 -29.026046244372264 0.34781740079525658 1 0 0 I I #
straight-curve $-1 26.666856615093323 29.026046244372264 0.34781740079525658 -1 0 0 I I #
point $-1 58.48078859828486 -29.026046244372264 0.34781740079525658 #
point $-1 58.48078859828486 29.026046244372264 0.34781740079525658 #
straight-curve $-1 48.186637862088432 0 7.1404269487603473 0 -1 0 I I #
point $-1 48.186637862088432 29.026046244372264 7.1404269487603473 #
edge $-1 $331 -5.2683658613714464 $425 1.5242436865936444 $329 $474 forward 7 unknown #
point $-1 48.186637862088432 -29.026046244372264 7.1404269487603473 #
straight-curve $-1 58.48078859828486 -29.026046244372264 0 0 0 -1 I I #
straight-curve $-1 58.48078859828486 29.026046244372264 0 0 0 -1 I I #
coedge $-1 $345 $342 $339 $437 reversed $337 $-1 #
edge $-1 $347 -54.960556199308705 $439 -46.953476087102828 $339 $475 forward 7 unknown #
edge $-1 $440 -29.786171592558041 $349 -7.0147609465027259 $340 $476 forward 7 unknown #
vertex $-1 $437 $477 #
vertex $-1 $343 $478 #
straight-curve $-1 -48.186637862088425 46.764635886771096 11.617416567921047 0 -1 0 I I #
straight-curve $-1 -48.186637862088425 -3.4362712120630476 51.737702763039408 0 0.55919289150049634 -0.82903758062907751 I I #
point $-1 -48.186637862088425 29.026046244372267 3.6103364557151707 #
point $-1 -25.415227216033109 23.625202681860941 11.617416567921047 #
straight-curve $-1 0 29.026046244372264 11.617416567921046 -1 0 0 I I #
vertex $-1 $355 $479 #
point $-1 -35.300932539060767 21.591176473516825 4.4204511197459215 #
coedge $-1 $365 $361 $362 $450 reversed $235 $-1 #
edge $-1 $372 -28.996681381474801 $451 -23.087741147160564 $361 $480 forward 7 unknown #
edge $-1 $367 23.319938613905876 $451 48.186637862088432 $448 $481 forward 7 unknown #
vertex $-1 $449 $482 #
straight-curve $-1 48.186637862088432 -63.559139777905102 11.617416567921047 0 1 0 I I #
straight-curve $-1 23.319938613905876 -29.026046244372267 34.705157715081612 0 0 -1 I I #
point $-1 23.319938613905876 -29.026046244372264 11.617416567921046 #
straight-curve $-1 17.876644118998577 -29.026046244372264 5.7084763336068134 1 0 0 I I #
point $-1 48.186637862088432 -29.026046244372264 5.708476333606809 #
point $-1 23.319938613905876 -29.026046244372264 5.708476333606809 #
vertex $-1 $378 $483 #
point $-1 31.424709827672316 -25.512465648708471 7.6271898645683516 #
vertex $-1 $382 $484 #
point $-1 42.081866648321991 -25.512465648708471 7.6271898645683516 #
straight-curve $-1 -58.48078859828486 29.026046244372264 0 0 0 -1 I I #
point $-1 -58.48078859828486 -29.026046244372264 -11.617416567921046 #
straight-curve $-1 -58.48078859828486 0 -11.617416567921046 0 1 0 I I #
point $-1 -58.48078859828486 29.026046244372264 -11.617416567921046 #
straight-curve $-1 -58.48078859828486 0 0.34781740079525658 0 -1 0 I I #
point $-1 -58.48078859828486 -29.026046244372264 0.34781740079525658 #
point $-1 -58.48078859828486 29.026046244372264 0.34781740079525658 #
straight-curve $-1 -58.48078859828486 29.026046244372264 0 0 0 -1 I I #
straight-curve $-1 -58.48078859828486 -29.026046244372264 0 0 0 -1 I I #
straight-curve $-1 48.186637862088432 0 0.34781740079525658 0 1 0 I I #
point $-1 48.186637862088432 29.026046244372264 0.34781740079525658 #
point $-1 48.186637862088432 -29.026046244372264 0.34781740079525658 #
straight-curve $-1 48.186637862088432 -29.026046244372264 1.872061087388901 0 0 -1 I I #
straight-curve $-1 -48.186637862088425 29.026046244372267 58.570892655023876 0 0 1 I I #
straight-curve $-1 -18.400466269530384 23.625202681860941 11.617416567921051 1 0 0 I I #
point $-1 -48.186637862088425 29.026046244372264 11.617416567921046 #
point $-1 -48.186637862088425 23.625202681860941 11.617416567921047 #
point $-1 -36.800932539060767 20.34762010257321 3.5816617824951766 #
straight-curve $-1 48.186637862088432 -29.026046244372267 34.705157715081612 0 0 1 I I #
straight-curve $-1 0 -29.026046244372264 11.617416567921046 1 0 0 I I #
point $-1 48.186637862088432 -29.026046244372264 11.617416567921046 #
point $-1 30.424709827672316 -24.673795072758722 7.0825508418789012 #
point $-1 41.081866648321991 -24.673795072758722 7.0825508418789012 #
End-of-ACIS-data 