500 0 10 0           
7 Unknown 11 ACIS 5.0 NT 24 Thu Mar 25 22:16:50 1999 
-1 9.9999999999999995e-007 1e-010 
body $-1 $10 $-1 $11 #
body $-1 $12 $-1 $13 #
body $-1 $14 $-1 $15 #
body $-1 $16 $-1 $17 #
body $-1 $18 $-1 $19 #
body $-1 $20 $-1 $21 #
body $-1 $22 $-1 $23 #
body $-1 $24 $-1 $25 #
body $-1 $26 $-1 $27 #
body $-1 $28 $-1 $29 #
lump $-1 $-1 $30 $0 #
transform $-1 1 0 0 0 1 0 0 0 1 69.46745200964385 27.849946083702704 12.233424755594292 1 rotate no_reflect no_shear #
lump $-1 $-1 $31 $1 #
transform $-1 1 0 0 0 1 0 0 0 1 69.46745200964385 27.849946083702704 12.233424755594292 1 rotate no_reflect no_shear #
lump $-1 $-1 $32 $2 #
transform $-1 1 0 0 0 1 0 0 0 1 69.46745200964385 27.849946083702704 12.233424755594292 1 rotate no_reflect no_shear #
lump $-1 $-1 $33 $3 #
transform $-1 1 0 0 0 1 0 0 0 1 69.46745200964385 27.849946083702704 12.233424755594292 1 rotate no_reflect no_shear #
lump $-1 $-1 $34 $4 #
transform $-1 1 0 0 0 1 0 0 0 1 69.46745200964385 27.849946083702704 12.233424755594292 1 rotate no_reflect no_shear #
lump $-1 $-1 $35 $5 #
transform $-1 1 0 0 0 1 0 0 0 1 69.46745200964385 27.849946083702704 12.233424755594292 1 rotate no_reflect no_shear #
lump $-1 $-1 $36 $6 #
transform $-1 1 0 0 0 1 0 0 0 1 69.46745200964385 27.849946083702704 12.233424755594292 1 rotate no_reflect no_shear #
lump $-1 $-1 $37 $7 #
transform $-1 1 0 0 0 1 0 0 0 1 69.46745200964385 27.849946083702704 12.233424755594292 1 rotate no_reflect no_shear #
lump $-1 $-1 $38 $8 #
transform $-1 1 0 0 0 1 0 0 0 1 69.46745200964385 27.849946083702704 12.233424755594292 1 rotate no_reflect no_shear #
lump $-1 $-1 $39 $9 #
transform $-1 1 0 0 0 1 0 0 0 1 69.46745200964385 27.849946083702704 12.233424755594292 1 rotate no_reflect no_shear #
shell $-1 $-1 $-1 $40 $-1 $10 #
shell $-1 $-1 $-1 $41 $-1 $12 #
shell $-1 $-1 $-1 $42 $-1 $14 #
shell $-1 $-1 $-1 $43 $-1 $16 #
shell $-1 $-1 $-1 $44 $-1 $18 #
shell $-1 $-1 $-1 $45 $-1 $20 #
shell $-1 $-1 $-1 $46 $-1 $22 #
shell $-1 $-1 $-1 $47 $-1 $24 #
shell $-1 $-1 $-1 $48 $-1 $26 #
shell $-1 $-1 $-1 $49 $-1 $28 #
face $-1 $50 $51 $30 $-1 $52 forward single #
face $-1 $53 $54 $31 $-1 $55 forward single #
face $-1 $56 $57 $32 $-1 $58 reversed single #
face $-1 $59 $60 $33 $-1 $61 forward single #
face $-1 $62 $63 $34 $-1 $64 reversed single #
face $-1 $65 $66 $35 $-1 $67 forward single #
face $-1 $68 $69 $36 $-1 $70 forward single #
face $-1 $71 $72 $37 $-1 $73 reversed single #
face $-1 $74 $75 $38 $-1 $76 forward single #
face $-1 $77 $78 $39 $-1 $79 forward single #
face $-1 $80 $81 $30 $-1 $82 reversed single #
loop $-1 $-1 $83 $40 #
plane-surface $-1 0 0 12.233424755594292 0 0 1 1 0 0 forward_v I I I I #
face $-1 $84 $85 $31 $-1 $86 reversed single #
loop $-1 $-1 $87 $41 #
plane-surface $-1 -69.46745200964385 0 0 1 0 0 0 0 -1 forward_v I I I I #
face $-1 $88 $89 $32 $-1 $90 reversed single #
loop $-1 $-1 $91 $42 #
plane-surface $-1 -39.26319453610288 107.51107114129128 129.35261380430813 1 0 0 0 -0.80901700255871778 -0.5877852410284794 forward_v I I I I #
face $-1 $92 $93 $33 $-1 $94 forward single #
loop $-1 $95 $96 $43 #
cone-surface $-1 -29.168779153788755 23.443978359993917 6.7644305172535315 0 -0.80901700255871778 -0.5877852410284794 1 0 0 1 I I 0 1 1 forward I I I I #
face $-1 $97 $98 $34 $-1 $99 reversed single #
loop $-1 $-1 $100 $44 #
plane-surface $-1 -26.409434207426994 -144.37056205708154 83.843826921851331 -1 0 0 0 -0.83867057594974714 0.54463902268945019 forward_v I I I I #
face $-1 $101 $102 $35 $-1 $103 forward single #
loop $-1 $104 $105 $45 #
cone-surface $-1 -46.931121028044451 -25.930770562144733 9.8135082713502211 0 0.83867057594974714 -0.54463902268945019 0.5 0 0 1 I I 0 1 0.5 forward I I I I #
face $-1 $106 $107 $36 $-1 $108 forward single #
loop $-1 $109 $110 $46 #
cone-surface $-1 -34.618108935673973 -25.930770562144733 9.8135082713502211 0 0.83867057594974714 -0.54463902268945019 0.5 0 0 1 I I 0 1 0.5 forward I I I I #
face $-1 $111 $112 $37 $-1 $113 reversed single #
loop $-1 $-1 $114 $47 #
plane-surface $-1 55.102271235211632 -27.84994608370269 8.1744565793339063 0 -0.83867057594974714 0.54463902268945019 1 0 0 forward_v I I I I #
face $-1 $115 $116 $38 $-1 $117 forward single #
loop $-1 $118 $119 $48 #
cone-surface $-1 48.945765189026403 -25.930770562144733 9.8135082713502211 0 0.83867057594974714 -0.54463902268945019 0.5 0 0 1 I I 0 1 0.5 forward I I I I #
face $-1 $120 $121 $39 $-1 $122 forward single #
loop $-1 $123 $124 $49 #
cone-surface $-1 61.258777281396888 -25.930770562144733 9.8135082713502211 0 0.83867057594974714 -0.54463902268945019 0.5 0 0 1 I I 0 1 0.5 forward I I I I #
face $-1 $125 $126 $30 $-1 $127 reversed single #
loop $-1 $-1 $128 $50 #
plane-surface $-1 0 0 -12.233424755594292 0 0 1 1 0 0 forward_v I I I I #
coedge $-1 $129 $130 $131 $132 forward $51 $-1 #
face $-1 $133 $134 $31 $-1 $135 forward single #
loop $-1 $-1 $136 $53 #
plane-surface $-1 0 27.849946083702704 0 0 -1 0 0 0 -1 forward_v I I I I #
coedge $-1 $137 $138 $139 $140 forward $54 $-1 #
face $-1 $141 $142 $32 $-1 $143 reversed single #
loop $-1 $-1 $144 $56 #
plane-surface $-1 -29.168779153788755 -4.8896284591760093 47.68872775806247 0 0.80901700255871778 0.5877852410284794 1 0 0 forward_v I I I I #
coedge $-1 $145 $146 $147 $148 reversed $57 $-1 #
face $-1 $-1 $149 $33 $-1 $150 forward single #
loop $-1 $151 $152 $59 #
cone-surface $-1 -29.168779153788755 22.123397046252748 5.804972059223509 0 -0.80901700255871778 -0.5877852410284794 0.5 0 0 1 I I -0.70710678118654746 0.70710678118654746 0.5 forward I I I I #
loop $-1 $-1 $153 $43 #
coedge $-1 $96 $96 $154 $155 reversed $60 $-1 #
face $-1 $156 $157 $34 $-1 $158 reversed single #
loop $-1 $-1 $159 $62 #
plane-surface $-1 -40.774614981859216 -27.84994608370269 8.1744565793339063 0 -0.83867057594974714 0.54463902268945019 1 0 0 forward_v I I I I #
coedge $-1 $160 $161 $162 $163 reversed $63 $-1 #
face $-1 $-1 $164 $35 $-1 $165 forward single #
loop $-1 $166 $167 $65 #
cone-surface $-1 -46.931121028044451 -25.119889731299438 9.2869161195639691 0 0.83867057594974714 -0.54463902268945019 0.25 0 0 1 I I -0.70710678118654746 0.70710678118654746 0.25 forward I I I I #
loop $-1 $-1 $168 $45 #
coedge $-1 $105 $105 $169 $170 reversed $66 $-1 #
face $-1 $-1 $171 $36 $-1 $172 forward single #
loop $-1 $173 $174 $68 #
cone-surface $-1 -34.618108935673973 -25.119889731299438 9.2869161195639691 0 0.83867057594974714 -0.54463902268945019 0.25 0 0 1 I I -0.70710678118654746 0.70710678118654746 0.25 forward I I I I #
loop $-1 $-1 $175 $46 #
coedge $-1 $110 $110 $176 $177 reversed $69 $-1 #
face $-1 $178 $179 $37 $-1 $180 reversed single #
loop $-1 $-1 $181 $71 #
plane-surface $-1 40.737090460779413 -144.37056205708154 83.843826921851331 1 0 0 0 0.83867057594974714 -0.54463902268945019 forward_v I I I I #
coedge $-1 $182 $183 $184 $185 reversed $72 $-1 #
face $-1 $-1 $186 $38 $-1 $187 forward single #
loop $-1 $188 $189 $74 #
cone-surface $-1 48.945765189026403 -25.119889731299438 9.2869161195639691 0 0.83867057594974714 -0.54463902268945019 0.25 0 0 1 I I -0.70710678118654746 0.70710678118654746 0.25 forward I I I I #
loop $-1 $-1 $190 $48 #
coedge $-1 $119 $119 $191 $192 reversed $75 $-1 #
face $-1 $-1 $193 $39 $-1 $194 forward single #
loop $-1 $195 $196 $77 #
cone-surface $-1 61.258777281396888 -25.119889731299438 9.2869161195639691 0 0.83867057594974714 -0.54463902268945019 0.25 0 0 1 I I -0.70710678118654746 0.70710678118654746 0.25 forward I I I I #
loop $-1 $-1 $197 $49 #
coedge $-1 $124 $124 $198 $199 reversed $78 $-1 #
face $-1 $200 $201 $30 $-1 $202 reversed single #
loop $-1 $-1 $203 $80 #
plane-surface $-1 0 -27.849946083702704 0 0 1 0 0 0 1 forward_v I I I I #
coedge $-1 $204 $205 $206 $207 forward $81 $-1 #
coedge $-1 $208 $83 $209 $210 forward $51 $-1 #
coedge $-1 $83 $208 $211 $212 forward $51 $-1 #
coedge $-1 $213 $214 $83 $132 reversed $215 $-1 #
edge $-1 $216 -27.849946083702704 $217 27.849946083702704 $131 $218 forward 7 unknown #
face $-1 $219 $220 $31 $-1 $221 reversed single #
loop $-1 $-1 $139 $84 #
plane-surface $-1 -76.631280136320058 0 -3.3534725242661003 0 0 1 1 0 0 forward_v I I I I #
coedge $-1 $222 $223 $138 $224 forward $85 $-1 #
coedge $-1 $225 $87 $226 $227 reversed $54 $-1 #
coedge $-1 $87 $225 $136 $224 reversed $54 $-1 #
coedge $-1 $228 $229 $87 $140 reversed $134 $-1 #
edge $-1 $230 -27.849946083702704 $231 27.849946083702704 $139 $232 forward 7 unknown #
face $-1 $233 $234 $32 $-1 $235 forward single #
loop $-1 $-1 $236 $88 #
plane-surface $-1 -19.07436377147463 107.51107114129128 129.35261380430813 -1 0 0 0 0.80901700255871778 0.5877852410284794 forward_v I I I I #
coedge $-1 $237 $238 $239 $240 reversed $89 $-1 #
coedge $-1 $146 $91 $241 $242 reversed $57 $-1 #
coedge $-1 $91 $145 $237 $243 reversed $57 $-1 #
coedge $-1 $239 $244 $91 $148 forward $234 $-1 #
edge $-1 $245 25.905589486942937 $246 32.8853793094369 $147 $247 forward 7 unknown #
loop $-1 $-1 $154 $92 #
plane-surface $-1 -29.168779153788755 -4.8896284591760093 47.68872775806247 0 0.80901700255871778 0.5877852410284794 1 0 0 forward_v I I I I #
loop $-1 $-1 $248 $59 #
coedge $-1 $152 $152 $153 $249 reversed $93 $-1 #
coedge $-1 $153 $153 $152 $249 forward $95 $-1 #
coedge $-1 $154 $154 $96 $155 forward $149 $-1 #
edge $-1 $250 5.8370811778218611e-016 $250 6.2831853071796013 $154 $251 forward 7 unknown #
face $-1 $252 $253 $34 $-1 $254 reversed single #
loop $-1 $-1 $255 $97 #
plane-surface $-1 -55.139795756291434 -144.37056205708154 83.843826921851331 1 0 0 0 0.83867057594974714 -0.54463902268945019 forward_v I I I I #
coedge $-1 $256 $257 $258 $259 reversed $98 $-1 #
coedge $-1 $161 $100 $260 $261 reversed $63 $-1 #
coedge $-1 $100 $160 $256 $262 reversed $63 $-1 #
coedge $-1 $258 $263 $100 $163 forward $264 $-1 #
edge $-1 $265 44.335334944838067 $266 46.971259614238306 $162 $267 forward 7 unknown #
loop $-1 $-1 $169 $101 #
plane-surface $-1 -40.774614981859216 -27.84994608370269 8.1744565793339063 0 -0.83867057594974714 0.54463902268945019 1 0 0 forward_v I I I I #
loop $-1 $-1 $268 $65 #
coedge $-1 $167 $167 $168 $269 reversed $102 $-1 #
coedge $-1 $168 $168 $167 $269 forward $104 $-1 #
coedge $-1 $169 $169 $105 $170 forward $164 $-1 #
edge $-1 $270 -1.4721264960684953e-015 $270 6.2831853071795987 $169 $271 forward 7 unknown #
loop $-1 $-1 $176 $106 #
plane-surface $-1 -40.774614981859216 -27.84994608370269 8.1744565793339063 0 -0.83867057594974714 0.54463902268945019 1 0 0 forward_v I I I I #
loop $-1 $-1 $272 $68 #
coedge $-1 $174 $174 $175 $273 reversed $107 $-1 #
coedge $-1 $175 $175 $174 $273 forward $109 $-1 #
coedge $-1 $176 $176 $110 $177 forward $171 $-1 #
edge $-1 $274 -1.4721264960684953e-015 $274 6.2831853071795987 $176 $275 forward 7 unknown #
face $-1 $276 $277 $37 $-1 $278 forward single #
loop $-1 $-1 $279 $111 #
plane-surface $-1 0 -27.849946083702704 0 0 1 0 0 0 1 forward_v I I I I #
coedge $-1 $280 $281 $282 $283 reversed $112 $-1 #
coedge $-1 $284 $114 $285 $286 reversed $72 $-1 #
coedge $-1 $114 $284 $280 $287 forward $72 $-1 #
coedge $-1 $282 $288 $114 $185 forward $277 $-1 #
edge $-1 $289 -41.916316392038034 $290 -13.185954843173597 $184 $291 forward 7 unknown #
loop $-1 $-1 $191 $115 #
plane-surface $-1 55.102271235211632 -27.84994608370269 8.1744565793339063 0 -0.83867057594974714 0.54463902268945019 1 0 0 forward_v I I I I #
loop $-1 $-1 $292 $74 #
coedge $-1 $189 $189 $190 $293 reversed $116 $-1 #
coedge $-1 $190 $190 $189 $293 forward $118 $-1 #
coedge $-1 $191 $191 $119 $192 forward $186 $-1 #
edge $-1 $294 -1.4721264960684953e-015 $294 6.2831853071795987 $191 $295 forward 7 unknown #
loop $-1 $-1 $198 $120 #
plane-surface $-1 55.102271235211632 -27.84994608370269 8.1744565793339063 0 -0.83867057594974714 0.54463902268945019 1 0 0 forward_v I I I I #
loop $-1 $-1 $296 $77 #
coedge $-1 $196 $196 $197 $297 reversed $121 $-1 #
coedge $-1 $197 $197 $196 $297 forward $123 $-1 #
coedge $-1 $198 $198 $124 $199 forward $193 $-1 #
edge $-1 $298 -1.4721264960684953e-015 $298 6.2831853071795987 $198 $299 forward 7 unknown #
face $-1 $300 $301 $30 $-1 $302 reversed single #
loop $-1 $-1 $303 $125 #
plane-surface $-1 -69.46745200964385 0 0 1 0 0 0 0 -1 forward_v I I I I #
coedge $-1 $304 $211 $305 $306 forward $126 $-1 #
coedge $-1 $307 $128 $304 $308 forward $81 $-1 #
coedge $-1 $128 $307 $309 $310 forward $81 $-1 #
coedge $-1 $214 $213 $128 $207 reversed $215 $-1 #
edge $-1 $311 -27.849946083702704 $312 27.849946083702704 $206 $313 forward 7 unknown #
coedge $-1 $130 $129 $314 $315 forward $51 $-1 #
coedge $-1 $316 $317 $129 $210 reversed $301 $-1 #
edge $-1 $217 -69.46745200964385 $318 69.46745200964385 $209 $319 forward 7 unknown #
coedge $-1 $203 $320 $130 $212 reversed $126 $-1 #
edge $-1 $321 -69.46745200964385 $216 69.46745200964385 $211 $322 forward 7 unknown #
coedge $-1 $206 $131 $320 $323 forward $215 $-1 #
coedge $-1 $131 $206 $316 $324 reversed $215 $-1 #
loop $-1 $-1 $213 $300 #
vertex $-1 $132 $325 #
vertex $-1 $132 $326 #
straight-curve $-1 69.46745200964385 0 12.233424755594292 0 1 0 I I #
face $-1 $327 $328 $31 $-1 $329 reversed single #
loop $-1 $-1 $330 $133 #
plane-surface $-1 -76.631280136320058 0 -8.8267979309851601 0 0 1 1 0 0 forward_v I I I I #
coedge $-1 $331 $136 $332 $333 reversed $85 $-1 #
coedge $-1 $136 $331 $228 $334 reversed $85 $-1 #
edge $-1 $230 3.3534725242661003 $335 8.8267979309851601 $136 $336 forward 7 unknown #
coedge $-1 $138 $137 $330 $337 forward $54 $-1 #
coedge $-1 $338 $339 $137 $227 forward $340 $-1 #
edge $-1 $341 -8.8267979309851601 $231 -3.3534725242661003 $226 $342 forward 7 unknown #
coedge $-1 $343 $139 $223 $334 forward $134 $-1 #
coedge $-1 $139 $343 $338 $344 forward $134 $-1 #
vertex $-1 $224 $345 #
vertex $-1 $344 $346 #
straight-curve $-1 -69.46745200964385 0 -3.3534725242661003 0 -1 0 I I #
face $-1 $-1 $347 $32 $-1 $348 reversed single #
loop $-1 $-1 $147 $141 #
plane-surface $-1 0 0 12.233424755594292 0 0 1 1 0 0 forward_v I I I I #
coedge $-1 $349 $350 $351 $352 reversed $142 $-1 #
coedge $-1 $353 $144 $146 $243 forward $89 $-1 #
coedge $-1 $144 $353 $349 $354 forward $89 $-1 #
coedge $-1 $351 $147 $144 $240 forward $234 $-1 #
edge $-1 $246 -24.678804959208502 $355 -4.4899741945802525 $239 $356 forward 7 unknown #
coedge $-1 $357 $358 $145 $242 forward $347 $-1 #
edge $-1 $359 -62.049738948209743 $245 -52.442882146559775 $241 $360 forward 7 unknown #
edge $-1 $246 43.825164230581002 $359 55.699892167405437 $146 $361 forward 7 unknown #
coedge $-1 $147 $351 $357 $362 forward $234 $-1 #
vertex $-1 $242 $363 #
vertex $-1 $148 $364 #
straight-curve $-1 -39.26319453610288 53.755535570645641 12.233424755594292 0 -1 0 I I #
coedge $-1 $248 $248 $-1 $365 reversed $151 $-1 #
edge $-1 $366 0 $366 6.2831853071796004 $152 $367 forward 7 unknown #
vertex $-1 $155 $368 #
ellipse-curve $-1 -29.168779153788755 24.360051172455719 7.4299963547693109 0 0.80901700255871778 0.5877852410284794 1 0 0 1 I I #
face $-1 $-1 $264 $34 $-1 $369 forward single #
loop $-1 $-1 $370 $156 #
plane-surface $-1 0 -27.849946083702704 0 0 1 0 0 0 1 forward_v I I I I #
coedge $-1 $371 $372 $373 $374 reversed $157 $-1 #
coedge $-1 $375 $159 $161 $262 forward $98 $-1 #
coedge $-1 $159 $375 $371 $376 forward $98 $-1 #
coedge $-1 $373 $162 $159 $259 forward $264 $-1 #
edge $-1 $266 6.022126716497386 $377 34.752488265361826 $258 $378 forward 7 unknown #
coedge $-1 $379 $380 $160 $261 forward $253 $-1 #
edge $-1 $381 -33.747456881591781 $265 -29.688488705331373 $260 $382 forward 7 unknown #
edge $-1 $266 -4.8397646139711448 $381 2.5617124586774352e-014 $161 $383 forward 7 unknown #
coedge $-1 $162 $373 $379 $384 forward $264 $-1 #
loop $-1 $-1 $373 $252 #
vertex $-1 $261 $385 #
vertex $-1 $163 $386 #
straight-curve $-1 -26.409434207426994 -72.185281028540771 12.233424755594292 0 1 0 I I #
coedge $-1 $268 $268 $-1 $387 reversed $166 $-1 #
edge $-1 $388 0 $388 6.2831853071796004 $167 $389 forward 7 unknown #
vertex $-1 $170 $390 #
ellipse-curve $-1 -46.931121028044451 -26.531983749002578 10.203940667464099 0 -0.83867057594974714 0.54463902268945019 0.5 0 0 1 I I #
coedge $-1 $272 $272 $-1 $391 reversed $173 $-1 #
edge $-1 $392 0 $392 6.2831853071796004 $174 $393 forward 7 unknown #
vertex $-1 $177 $394 #
ellipse-curve $-1 -34.618108935673973 -26.531983749002578 10.203940667464099 0 -0.83867057594974714 0.54463902268945019 0.5 0 0 1 I I #
face $-1 $-1 $395 $37 $-1 $396 reversed single #
loop $-1 $-1 $282 $178 #
plane-surface $-1 0 0 12.233424755594292 0 0 1 1 0 0 forward_v I I I I #
coedge $-1 $397 $398 $281 $399 forward $179 $-1 #
coedge $-1 $281 $181 $183 $287 reversed $112 $-1 #
coedge $-1 $181 $280 $279 $399 reversed $112 $-1 #
coedge $-1 $400 $184 $181 $283 forward $277 $-1 #
edge $-1 $290 -46.971259614238306 $401 -44.335334944838067 $282 $402 forward 7 unknown #
coedge $-1 $183 $182 $397 $403 reversed $72 $-1 #
coedge $-1 $404 $405 $182 $286 forward $395 $-1 #
edge $-1 $406 -4.1562456047577996 $289 0.6835190092133715 $285 $407 forward 7 unknown #
edge $-1 $408 -2.5617124586774352e-014 $290 4.8397646139711448 $280 $409 forward 7 unknown #
coedge $-1 $184 $400 $404 $410 forward $277 $-1 #
vertex $-1 $286 $411 #
vertex $-1 $185 $412 #
straight-curve $-1 27.551135617605816 -25.214021414302461 12.233424755594292 -1 0 0 I I #
coedge $-1 $292 $292 $-1 $413 reversed $188 $-1 #
edge $-1 $414 0 $414 6.2831853071796004 $189 $415 forward 7 unknown #
vertex $-1 $192 $416 #
ellipse-curve $-1 48.945765189026403 -26.531983749002578 10.203940667464099 0 -0.83867057594974714 0.54463902268945019 0.5 0 0 1 I I #
coedge $-1 $296 $296 $-1 $417 reversed $195 $-1 #
edge $-1 $418 0 $418 6.2831853071796004 $196 $419 forward 7 unknown #
vertex $-1 $199 $420 #
ellipse-curve $-1 61.258777281396888 -26.531983749002578 10.203940667464099 0 -0.83867057594974714 0.54463902268945019 0.5 0 0 1 I I #
face $-1 $-1 $215 $30 $-1 $421 reversed single #
loop $-1 $-1 $316 $200 #
plane-surface $-1 0 27.849946083702704 0 0 -1 0 0 0 -1 forward_v I I I I #
coedge $-1 $422 $314 $317 $423 forward $201 $-1 #
coedge $-1 $320 $203 $204 $308 reversed $126 $-1 #
coedge $-1 $314 $422 $203 $306 reversed $201 $-1 #
edge $-1 $321 -12.233424755594292 $424 12.233424755594292 $305 $425 forward 7 unknown #
coedge $-1 $205 $204 $422 $426 forward $81 $-1 #
edge $-1 $312 -69.46745200964385 $424 69.46745200964385 $304 $427 forward 7 unknown #
coedge $-1 $317 $316 $205 $310 reversed $301 $-1 #
edge $-1 $428 -69.46745200964385 $311 69.46745200964385 $309 $429 forward 7 unknown #
vertex $-1 $207 $430 #
vertex $-1 $323 $431 #
straight-curve $-1 69.46745200964385 0 -12.233424755594292 0 -1 0 I I #
coedge $-1 $303 $305 $208 $315 reversed $201 $-1 #
edge $-1 $318 -27.849946083702704 $321 27.849946083702704 $314 $432 forward 7 unknown #
coedge $-1 $309 $209 $214 $324 forward $301 $-1 #
coedge $-1 $209 $309 $303 $423 reversed $301 $-1 #
vertex $-1 $210 $433 #
straight-curve $-1 0 27.849946083702704 12.233424755594292 -1 0 0 I I #
coedge $-1 $211 $304 $213 $323 reversed $126 $-1 #
vertex $-1 $315 $434 #
straight-curve $-1 0 -27.849946083702704 12.233424755594292 1 0 0 I I #
edge $-1 $216 -12.233424755594292 $312 12.233424755594292 $213 $435 forward 7 unknown #
edge $-1 $217 -12.233424755594292 $311 12.233424755594292 $214 $436 forward 7 unknown #
point $-1 69.46745200964385 -27.849946083702704 12.233424755594292 #
point $-1 69.46745200964385 27.849946083702704 12.233424755594292 #
face $-1 $-1 $340 $31 $-1 $437 reversed single #
loop $-1 $-1 $438 $219 #
plane-surface $-1 -83.795108262996266 0 -6.0901352276256304 1 0 0 0 0 -1 forward_v I I I I #
coedge $-1 $439 $332 $225 $337 reversed $220 $-1 #
coedge $-1 $223 $222 $438 $440 reversed $85 $-1 #
coedge $-1 $330 $441 $222 $333 forward $220 $-1 #
edge $-1 $442 -7.1638281266762078 $335 7.1638281266762078 $222 $443 forward 7 unknown #
edge $-1 $230 -7.1638281266762078 $444 7.1638281266762078 $223 $445 forward 7 unknown #
vertex $-1 $224 $446 #
straight-curve $-1 -69.46745200964385 27.849946083702704 0 0 0 -1 I I #
edge $-1 $341 -27.849946083702704 $335 27.849946083702704 $330 $447 forward 7 unknown #
coedge $-1 $448 $226 $229 $344 reversed $340 $-1 #
coedge $-1 $226 $448 $439 $449 reversed $340 $-1 #
loop $-1 $-1 $226 $327 #
vertex $-1 $227 $450 #
straight-curve $-1 -69.46745200964385 -27.849946083702704 0 0 0 1 I I #
coedge $-1 $229 $228 $451 $452 forward $134 $-1 #
edge $-1 $453 -7.1638281266762078 $231 7.1638281266762078 $338 $454 forward 7 unknown #
point $-1 -69.46745200964385 27.849946083702704 -3.3534725242661003 #
point $-1 -69.46745200964385 -27.849946083702704 -3.3534725242661003 #
loop $-1 $-1 $241 $233 #
plane-surface $-1 0 27.849946083702704 0 0 -1 0 0 0 -1 forward_v I I I I #
coedge $-1 $350 $236 $238 $354 reversed $142 $-1 #
coedge $-1 $236 $349 $455 $456 reversed $142 $-1 #
coedge $-1 $244 $239 $236 $352 forward $234 $-1 #
edge $-1 $355 -32.8853793094369 $457 -25.905589486942937 $351 $458 forward 7 unknown #
coedge $-1 $238 $237 $358 $459 reversed $89 $-1 #
edge $-1 $460 -55.699892167405437 $355 -43.825164230581002 $349 $461 forward 7 unknown #
vertex $-1 $240 $462 #
straight-curve $-1 -14.584389576894377 20.870156261208738 12.233424755594296 1 0 0 I I #
coedge $-1 $455 $241 $244 $362 reversed $347 $-1 #
coedge $-1 $241 $455 $353 $459 forward $347 $-1 #
vertex $-1 $242 $463 #
straight-curve $-1 -39.26319453610288 27.849946083702704 64.676306902154067 0 0 1 I I #
straight-curve $-1 -39.26319453610288 -4.8896284591760093 47.68872775806247 0 0.5877852410284794 -0.80901700255871778 I I #
edge $-1 $457 19.07436377147463 $245 39.26319453610288 $357 $464 forward 7 unknown #
point $-1 -39.26319453610288 27.849946083702704 12.233424755594292 #
point $-1 -39.26319453610288 20.870156261208738 12.233424755594292 #
edge $-1 $465 1 $465 0 $248 $-1 forward 7 unknown #
vertex $-1 $249 $466 #
ellipse-curve $-1 -29.168779153788755 22.527905547532107 6.0988646797377486 0 0.80901700255871778 0.5877852410284794 1 0 0 1 I I #
point $-1 -28.168779153788755 24.360051172455726 7.4299963547693153 #
plane-surface $-1 0 0 12.233424755594292 0 0 1 1 0 0 forward_v I I I I #
coedge $-1 $380 $379 $372 $467 forward $253 $-1 #
coedge $-1 $372 $255 $257 $376 reversed $157 $-1 #
coedge $-1 $255 $371 $370 $467 reversed $157 $-1 #
coedge $-1 $263 $258 $255 $374 forward $264 $-1 #
edge $-1 $377 -46.971259614238306 $468 -44.335334944838067 $373 $469 forward 7 unknown #
coedge $-1 $257 $256 $380 $470 reversed $98 $-1 #
edge $-1 $471 -2.5617124586774352e-014 $377 4.8397646139711448 $371 $472 forward 7 unknown #
vertex $-1 $259 $473 #
straight-curve $-1 -20.387307490929608 -25.214021414302461 12.233424755594292 -1 0 0 I I #
coedge $-1 $370 $260 $263 $384 reversed $253 $-1 #
coedge $-1 $260 $370 $375 $470 forward $253 $-1 #
vertex $-1 $261 $474 #
straight-curve $-1 -26.409434207426994 -27.849946083702704 41.921913460925666 0 0 1 I I #
straight-curve $-1 -26.409434207426994 -27.84994608370269 8.1744565793339063 0 -0.54463902268945019 -0.83867057594974714 I I #
edge $-1 $468 -55.139795756291434 $265 -26.409434207426994 $379 $475 forward 7 unknown #
point $-1 -26.409434207426994 -27.849946083702704 12.233424755594292 #
point $-1 -26.409434207426994 -25.214021414302461 12.233424755594292 #
edge $-1 $476 1 $476 0 $268 $-1 forward 7 unknown #
vertex $-1 $269 $477 #
ellipse-curve $-1 -46.931121028044451 -25.329557375286875 9.4230758752363322 0 -0.83867057594974714 0.54463902268945019 0.5 0 0 1 I I #
point $-1 -46.431121028044451 -26.531983749002595 10.20394066746411 #
edge $-1 $478 1 $478 0 $272 $-1 forward 7 unknown #
vertex $-1 $273 $479 #
ellipse-curve $-1 -34.618108935673973 -25.329557375286875 9.4230758752363322 0 -0.83867057594974714 0.54463902268945019 0.5 0 0 1 I I #
point $-1 -34.118108935673973 -26.531983749002595 10.20394066746411 #
loop $-1 $-1 $285 $276 #
plane-surface $-1 69.46745200964385 0 0 -1 0 0 0 0 1 forward_v I I I I #
coedge $-1 $480 $279 $284 $403 forward $179 $-1 #
coedge $-1 $279 $480 $400 $481 reversed $179 $-1 #
edge $-1 $401 29.688488705331373 $408 33.747456881591781 $279 $482 forward 7 unknown #
coedge $-1 $288 $282 $398 $481 forward $277 $-1 #
vertex $-1 $481 $483 #
straight-curve $-1 40.737090460779413 -72.185281028540771 12.233424755594292 0 -1 0 I I #
edge $-1 $408 13.185954843173597 $406 41.916316392038034 $397 $484 forward 7 unknown #
coedge $-1 $405 $285 $288 $410 reversed $395 $-1 #
coedge $-1 $285 $404 $480 $485 forward $395 $-1 #
vertex $-1 $403 $486 #
straight-curve $-1 69.46745200964385 -25.586292539470094 11.660177474464714 0 0.54463902268945019 0.83867057594974714 I I #
vertex $-1 $403 $487 #
straight-curve $-1 40.737090460779413 -27.84994608370269 8.1744565793339063 0 0.54463902268945019 0.83867057594974714 I I #
edge $-1 $488 -27.849946083702704 $289 -25.214021414302461 $404 $489 forward 7 unknown #
point $-1 69.46745200964385 -25.214021414302461 12.233424755594292 #
point $-1 40.737090460779413 -25.214021414302461 12.233424755594292 #
edge $-1 $490 1 $490 0 $292 $-1 forward 7 unknown #
vertex $-1 $293 $491 #
ellipse-curve $-1 48.945765189026403 -25.329557375286875 9.4230758752363322 0 -0.83867057594974714 0.54463902268945019 0.5 0 0 1 I I #
point $-1 49.445765189026403 -26.531983749002595 10.20394066746411 #
edge $-1 $492 1 $492 0 $296 $-1 forward 7 unknown #
vertex $-1 $297 $493 #
ellipse-curve $-1 61.258777281396888 -25.329557375286875 9.4230758752363322 0 -0.83867057594974714 0.54463902268945019 0.5 0 0 1 I I #
point $-1 61.758777281396888 -26.531983749002595 10.20394066746411 #
plane-surface $-1 69.46745200964385 0 0 -1 0 0 0 0 1 forward_v I I I I #
coedge $-1 $305 $303 $307 $426 reversed $201 $-1 #
edge $-1 $318 -12.233424755594292 $428 12.233424755594292 $317 $494 forward 7 unknown #
vertex $-1 $426 $495 #
straight-curve $-1 -69.46745200964385 -27.849946083702704 0 0 0 -1 I I #
edge $-1 $424 -27.849946083702704 $428 27.849946083702704 $422 $496 forward 7 unknown #
straight-curve $-1 0 -27.849946083702704 -12.233424755594292 -1 0 0 I I #
vertex $-1 $310 $497 #
straight-curve $-1 0 27.849946083702704 -12.233424755594292 1 0 0 I I #
point $-1 69.46745200964385 27.849946083702704 -12.233424755594292 #
point $-1 69.46745200964385 -27.849946083702704 -12.233424755594292 #
straight-curve $-1 -69.46745200964385 0 12.233424755594292 0 -1 0 I I #
point $-1 -69.46745200964385 27.849946083702704 12.233424755594292 #
point $-1 -69.46745200964385 -27.849946083702704 12.233424755594292 #
straight-curve $-1 69.46745200964385 -27.849946083702704 0 0 0 -1 I I #
straight-curve $-1 69.46745200964385 27.849946083702704 0 0 0 -1 I I #
plane-surface $-1 0 -27.849946083702704 0 0 1 0 0 0 1 forward_v I I I I #
coedge $-1 $498 $451 $331 $440 forward $328 $-1 #
coedge $-1 $441 $330 $339 $449 forward $220 $-1 #
edge $-1 $444 -2.7366627033595301 $442 2.7366627033595297 $331 $499 forward 7 unknown #
coedge $-1 $332 $439 $498 $500 forward $220 $-1 #
vertex $-1 $333 $501 #
straight-curve $-1 -76.631280136320058 27.849946083702704 -8.8267979309851601 1 0 0 I I #
vertex $-1 $334 $502 #
straight-curve $-1 -76.631280136320058 27.849946083702704 -3.3534725242661003 -1 0 0 I I #
point $-1 -69.46745200964385 27.849946083702704 -8.8267979309851601 #
straight-curve $-1 -69.46745200964385 0 -8.8267979309851601 0 1 0 I I #
coedge $-1 $339 $338 $503 $504 forward $340 $-1 #
edge $-1 $341 -7.1638281266762078 $505 7.1638281266762078 $339 $506 forward 7 unknown #
point $-1 -69.46745200964385 -27.849946083702704 -8.8267979309851601 #
coedge $-1 $438 $503 $343 $452 reversed $328 $-1 #
edge $-1 $444 -27.849946083702704 $453 27.849946083702704 $451 $507 forward 7 unknown #
vertex $-1 $452 $508 #
straight-curve $-1 -76.631280136320058 -27.849946083702704 -3.3534725242661003 1 0 0 I I #
coedge $-1 $358 $357 $350 $456 forward $347 $-1 #
edge $-1 $457 52.442882146559775 $460 62.049738948209743 $455 $509 forward 7 unknown #
vertex $-1 $362 $510 #
straight-curve $-1 -19.07436377147463 53.755535570645641 12.233424755594292 0 1 0 I I #
edge $-1 $460 4.4899741945802525 $359 24.678804959208502 $358 $511 forward 7 unknown #
vertex $-1 $459 $512 #
straight-curve $-1 -19.07436377147463 -4.8896284591760093 47.68872775806247 0 -0.5877852410284794 0.80901700255871778 I I #
point $-1 -19.07436377147463 20.870156261208738 12.233424755594292 #
point $-1 -39.26319453610288 27.849946083702704 2.6265679539443241 #
straight-curve $-1 0 27.849946083702704 12.233424755594292 -1 0 0 I I #
vertex $-1 $365 $513 #
point $-1 -28.168779153788755 22.527905547532107 6.0988646797377486 #
edge $-1 $468 29.688488705331373 $471 33.747456881591781 $370 $514 forward 7 unknown #
vertex $-1 $384 $515 #
straight-curve $-1 -55.139795756291434 -72.185281028540771 12.233424755594292 0 -1 0 I I #
edge $-1 $471 -34.752488265361826 $381 -6.022126716497386 $380 $516 forward 7 unknown #
vertex $-1 $470 $517 #
straight-curve $-1 -55.139795756291434 -27.84994608370269 8.1744565793339063 0 0.54463902268945019 0.83867057594974714 I I #
point $-1 -55.139795756291434 -25.214021414302461 12.233424755594292 #
point $-1 -26.409434207426994 -27.849946083702704 8.174456579333885 #
straight-curve $-1 0 -27.849946083702704 12.233424755594292 1 0 0 I I #
vertex $-1 $387 $518 #
point $-1 -46.431121028044451 -25.329557375286875 9.4230758752363322 #
vertex $-1 $391 $519 #
point $-1 -34.118108935673973 -25.329557375286875 9.4230758752363322 #
coedge $-1 $398 $397 $405 $485 reversed $179 $-1 #
edge $-1 $401 40.737090460779413 $488 69.46745200964385 $398 $520 forward 7 unknown #
straight-curve $-1 40.737090460779413 -27.849946083702704 41.921913460925666 0 0 -1 I I #
point $-1 40.737090460779413 -27.849946083702704 12.233424755594292 #
straight-curve $-1 27.551135617605816 -27.849946083702704 8.1744565793338833 1 0 0 I I #
edge $-1 $488 -12.233424755594292 $406 -8.174456579333885 $405 $521 forward 7 unknown #
point $-1 69.46745200964385 -27.849946083702704 8.174456579333885 #
point $-1 40.737090460779413 -27.849946083702704 8.174456579333885 #
vertex $-1 $410 $522 #
straight-curve $-1 69.46745200964385 0 12.233424755594292 0 1 0 I I #
vertex $-1 $413 $523 #
point $-1 49.445765189026403 -25.329557375286875 9.4230758752363322 #
vertex $-1 $417 $524 #
point $-1 61.758777281396888 -25.329557375286875 9.4230758752363322 #
straight-curve $-1 -69.46745200964385 27.849946083702704 0 0 0 -1 I I #
point $-1 -69.46745200964385 -27.849946083702704 -12.233424755594292 #
straight-curve $-1 -69.46745200964385 0 -12.233424755594292 0 1 0 I I #
point $-1 -69.46745200964385 27.849946083702704 -12.233424755594292 #
coedge $-1 $503 $438 $441 $500 reversed $328 $-1 #
straight-curve $-1 -83.795108262996266 27.849946083702704 -6.0901352276256304 0 0 -1 I I #
edge $-1 $505 -27.849946083702704 $442 27.849946083702704 $498 $525 forward 7 unknown #
point $-1 -83.795108262996266 27.849946083702704 -8.8267979309851601 #
point $-1 -83.795108262996266 27.849946083702704 -3.3534725242661003 #
coedge $-1 $451 $498 $448 $504 reversed $328 $-1 #
edge $-1 $453 -2.7366627033595301 $505 2.7366627033595297 $503 $526 forward 7 unknown #
vertex $-1 $500 $527 #
straight-curve $-1 -76.631280136320058 -27.849946083702704 -8.8267979309851601 -1 0 0 I I #
straight-curve $-1 -83.795108262996266 0 -3.3534725242661003 0 -1 0 I I #
point $-1 -83.795108262996266 -27.849946083702704 -3.3534725242661003 #
straight-curve $-1 -19.07436377147463 27.849946083702704 64.676306902154067 0 0 -1 I I #
point $-1 -19.07436377147463 27.849946083702704 12.233424755594292 #
straight-curve $-1 -14.584389576894377 27.849946083702704 2.6265679539443241 -1 0 0 I I #
point $-1 -19.07436377147463 27.849946083702704 2.6265679539443241 #
point $-1 -29.168779153788755 21.718888544973389 5.5110794387092694 #
straight-curve $-1 -55.139795756291434 -27.849946083702704 41.921913460925666 0 0 -1 I I #
point $-1 -55.139795756291434 -27.849946083702704 12.233424755594292 #
straight-curve $-1 -20.387307490929608 -27.849946083702704 8.1744565793338833 1 0 0 I I #
point $-1 -55.139795756291434 -27.849946083702704 8.174456579333885 #
point $-1 -46.931121028044451 -24.910222087312 9.1507563638916061 #
point $-1 -34.618108935673973 -24.910222087312 9.1507563638916061 #
straight-curve $-1 0 -27.849946083702704 12.233424755594292 1 0 0 I I #
straight-curve $-1 69.46745200964385 -27.849946083702704 0 0 0 -1 I I #
point $-1 69.46745200964385 -27.849946083702704 12.233424755594292 #
point $-1 48.945765189026403 -24.910222087312 9.1507563638916061 #
point $-1 61.258777281396888 -24.910222087312 9.1507563638916061 #
straight-curve $-1 -83.795108262996266 0 -8.8267979309851601 0 1 0 I I #
straight-curve $-1 -83.795108262996266 -27.849946083702704 -6.0901352276256304 0 0 -1 I I #
point $-1 -83.795108262996266 -27.849946083702704 -8.8267979309851601 #
End-of-ACIS-data 