500 0 9 0           
7 Unknown 11 ACIS 5.0 NT 24 Fri Mar 26 03:18:31 1999 
-1 9.9999999999999995e-007 1e-010 
body $-1 $9 $-1 $10 #
body $-1 $11 $-1 $12 #
body $-1 $13 $-1 $14 #
body $-1 $15 $-1 $16 #
body $-1 $17 $-1 $18 #
body $-1 $19 $-1 $20 #
body $-1 $21 $-1 $22 #
body $-1 $23 $-1 $24 #
body $-1 $25 $-1 $26 #
lump $-1 $-1 $27 $0 #
transform $-1 1 0 0 0 1 0 0 0 1 69.978942228461563 44.863022117088036 21.10849893440259 1 rotate no_reflect no_shear #
lump $-1 $-1 $28 $1 #
transform $-1 1 0 0 0 1 0 0 0 1 69.978942228461563 44.863022117088036 21.10849893440259 1 rotate no_reflect no_shear #
lump $-1 $-1 $29 $2 #
transform $-1 1 0 0 0 1 0 0 0 1 69.978942228461563 44.863022117088036 21.10849893440259 1 rotate no_reflect no_shear #
lump $-1 $-1 $30 $3 #
transform $-1 1 0 0 0 1 0 0 0 1 69.978942228461563 44.863022117088036 21.10849893440259 1 rotate no_reflect no_shear #
lump $-1 $-1 $31 $4 #
transform $-1 1 0 0 0 1 0 0 0 1 69.978942228461563 44.863022117088036 21.10849893440259 1 rotate no_reflect no_shear #
lump $-1 $-1 $32 $5 #
transform $-1 1 0 0 0 1 0 0 0 1 69.978942228461563 44.863022117088036 21.10849893440259 1 rotate no_reflect no_shear #
lump $-1 $-1 $33 $6 #
transform $-1 1 0 0 0 1 0 0 0 1 69.978942228461563 44.863022117088036 21.10849893440259 1 rotate no_reflect no_shear #
lump $-1 $-1 $34 $7 #
transform $-1 1 0 0 0 1 0 0 0 1 69.978942228461563 44.863022117088036 21.10849893440259 1 rotate no_reflect no_shear #
lump $-1 $-1 $35 $8 #
transform $-1 1 0 0 0 1 0 0 0 1 69.978942228461563 44.863022117088036 21.10849893440259 1 rotate no_reflect no_shear #
shell $-1 $-1 $-1 $36 $-1 $9 #
shell $-1 $-1 $-1 $37 $-1 $11 #
shell $-1 $-1 $-1 $38 $-1 $13 #
shell $-1 $-1 $-1 $39 $-1 $15 #
shell $-1 $-1 $-1 $40 $-1 $17 #
shell $-1 $-1 $-1 $41 $-1 $19 #
shell $-1 $-1 $-1 $42 $-1 $21 #
shell $-1 $-1 $-1 $43 $-1 $23 #
shell $-1 $-1 $-1 $44 $-1 $25 #
face $-1 $45 $46 $27 $-1 $47 forward single #
face $-1 $48 $49 $28 $-1 $50 reversed single #
face $-1 $51 $52 $29 $-1 $53 reversed single #
face $-1 $54 $55 $30 $-1 $56 reversed single #
face $-1 $57 $58 $31 $-1 $59 forward single #
face $-1 $60 $61 $32 $-1 $62 reversed single #
face $-1 $63 $64 $33 $-1 $65 forward single #
face $-1 $66 $67 $34 $-1 $68 forward single #
face $-1 $69 $70 $35 $-1 $71 forward single #
face $-1 $72 $73 $27 $-1 $74 reversed single #
loop $-1 $-1 $75 $36 #
plane-surface $-1 0 0 21.10849893440259 0 0 1 1 0 0 forward_v I I I I #
face $-1 $76 $77 $28 $-1 $78 reversed single #
loop $-1 $-1 $79 $37 #
plane-surface $-1 0 -34.088101965662382 16.52347038996102 0 0 1 1 0 0 forward_v I I I I #
face $-1 $80 $81 $29 $-1 $82 reversed single #
loop $-1 $-1 $83 $38 #
plane-surface $-1 0 34.088101965662389 16.52347038996102 0 0 1 1 0 0 forward_v I I I I #
face $-1 $84 $85 $30 $-1 $86 reversed single #
loop $-1 $-1 $87 $39 #
plane-surface $-1 63.071275230634569 6.1570860674614103 214.40457055524826 0 -1 0 -0.68199836817093118 0 -0.7313536940579346 forward_v I I I I #
face $-1 $88 $89 $31 $-1 $90 forward single #
loop $-1 $91 $92 $40 #
cone-surface $-1 66.115344174676537 0.34680084230461716 17.30376701472715 -0.68199836817093118 0 -0.7313536940579346 1.0970305410869019 0 -1.0229975522563968 1 I I 0 1 1.5 forward I I I I #
face $-1 $93 $94 $32 $-1 $95 reversed single #
loop $-1 $-1 $96 $41 #
plane-surface $-1 -175.60649961586498 14.230595357600052 103.83070046283675 0 1 0 -0.75470958851134928 0 0.65605901945558964 forward_v I I I I #
face $-1 $97 $98 $33 $-1 $99 forward single #
loop $-1 $100 $101 $42 #
cone-surface $-1 -65.314314552843157 16.047112648927389 15.94204200099098 0.75470958851134928 0 -0.65605901945558964 0.32802950972779482 0 0.37735479425567464 1 I I 0 1 0.5 forward I I I I #
face $-1 $102 $103 $34 $-1 $104 forward single #
loop $-1 $105 $106 $43 #
cone-surface $-1 -65.314314552843157 18.77188858591839 15.94204200099098 0.75470958851134928 0 -0.65605901945558964 0.32802950972779482 0 0.37735479425567464 1 I I 0 1 0.5 forward I I I I #
face $-1 $107 $108 $35 $-1 $109 forward single #
loop $-1 $110 $111 $44 #
cone-surface $-1 -65.314314552843157 21.496664522909398 15.94204200099098 0.75470958851134928 0 -0.65605901945558964 0.32802950972779482 0 0.37735479425567464 1 I I 0 1 0.5 forward I I I I #
face $-1 $112 $113 $27 $-1 $114 reversed single #
loop $-1 $-1 $115 $45 #
plane-surface $-1 0 0 -21.10849893440259 0 0 1 1 0 0 forward_v I I I I #
coedge $-1 $116 $117 $118 $119 forward $46 $-1 #
face $-1 $120 $121 $28 $-1 $122 reversed single #
loop $-1 $-1 $123 $48 #
plane-surface $-1 0 -23.313181814236728 18.815984662181805 0 -1 0 0 0 -1 forward_v I I I I #
coedge $-1 $124 $125 $126 $127 reversed $49 $-1 #
face $-1 $128 $129 $29 $-1 $130 forward single #
loop $-1 $-1 $131 $51 #
plane-surface $-1 0 23.313181814236735 18.815984662181805 0 1 0 0 0 1 forward_v I I I I #
coedge $-1 $132 $133 $134 $135 reversed $52 $-1 #
face $-1 $136 $137 $30 $-1 $138 reversed single #
loop $-1 $-1 $139 $54 #
plane-surface $-1 -32.379773581642738 0.34680084230461716 112.04585474514394 0.68199836817093118 0 0.7313536940579346 0.7313536940579346 0 -0.68199836817093118 forward_v I I I I #
coedge $-1 $140 $141 $142 $143 reversed $55 $-1 #
face $-1 $-1 $144 $31 $-1 $145 forward single #
loop $-1 $146 $147 $57 #
cone-surface $-1 64.160418861720245 0.34680084230461716 15.207366325276226 -0.68199836817093118 0 -0.7313536940579346 0.54851527054345095 0 -0.51149877612819838 1 I I -0.70710678118654757 0.70710678118654757 0.75 forward I I I I #
loop $-1 $-1 $148 $40 #
coedge $-1 $92 $92 $149 $150 reversed $58 $-1 #
face $-1 $151 $152 $32 $-1 $153 forward single #
loop $-1 $-1 $154 $60 #
plane-surface $-1 -69.978942228461563 18.77188858591839 12.010068020949049 -0.75470958851134928 0 0.65605901945558964 0.65605901945558964 0 0.75470958851134928 forward_v I I I I #
coedge $-1 $155 $156 $157 $158 reversed $61 $-1 #
face $-1 $-1 $159 $33 $-1 $160 forward single #
loop $-1 $161 $162 $63 #
cone-surface $-1 -64.415582043192813 16.047112648927389 15.160785769442256 0.75470958851134928 0 -0.65605901945558964 0.16401475486389741 0 0.18867739712783732 1 I I -0.70710678118654746 0.70710678118654746 0.25 forward I I I I #
loop $-1 $-1 $163 $42 #
coedge $-1 $101 $101 $164 $165 reversed $64 $-1 #
face $-1 $-1 $166 $34 $-1 $167 forward single #
loop $-1 $168 $169 $66 #
cone-surface $-1 -64.415582043192813 18.77188858591839 15.160785769442256 0.75470958851134928 0 -0.65605901945558964 0.16401475486389741 0 0.18867739712783732 1 I I -0.70710678118654746 0.70710678118654746 0.25 forward I I I I #
loop $-1 $-1 $170 $43 #
coedge $-1 $106 $106 $171 $172 reversed $67 $-1 #
face $-1 $-1 $173 $35 $-1 $174 forward single #
loop $-1 $175 $176 $69 #
cone-surface $-1 -64.415582043192813 21.496664522909398 15.160785769442256 0.75470958851134928 0 -0.65605901945558964 0.16401475486389741 0 0.18867739712783732 1 I I -0.70710678118654746 0.70710678118654746 0.25 forward I I I I #
loop $-1 $-1 $177 $44 #
coedge $-1 $111 $111 $178 $179 reversed $70 $-1 #
face $-1 $180 $181 $27 $-1 $182 reversed single #
loop $-1 $-1 $183 $72 #
plane-surface $-1 0 -44.863022117088036 0 0 1 0 0 0 1 forward_v I I I I #
coedge $-1 $184 $185 $186 $187 forward $73 $-1 #
coedge $-1 $188 $75 $189 $190 forward $46 $-1 #
coedge $-1 $75 $188 $191 $192 forward $46 $-1 #
coedge $-1 $193 $194 $75 $119 reversed $195 $-1 #
edge $-1 $196 -44.863022117088036 $197 44.863022117088036 $118 $198 forward 7 unknown #
face $-1 $199 $200 $28 $-1 $201 reversed single #
loop $-1 $-1 $202 $76 #
plane-surface $-1 -69.978942228461563 0 0 1 0 0 0 0 -1 forward_v I I I I #
coedge $-1 $203 $204 $205 $206 reversed $77 $-1 #
coedge $-1 $207 $79 $208 $209 reversed $49 $-1 #
coedge $-1 $79 $207 $203 $210 forward $49 $-1 #
coedge $-1 $205 $211 $79 $127 forward $212 $-1 #
edge $-1 $213 -27.818971134256845 $214 -6.269130831405537 $126 $215 forward 7 unknown #
face $-1 $216 $217 $29 $-1 $218 reversed single #
loop $-1 $-1 $219 $80 #
plane-surface $-1 0 0 21.10849893440259 0 0 1 1 0 0 forward_v I I I I #
coedge $-1 $220 $221 $222 $223 reversed $81 $-1 #
coedge $-1 $224 $83 $220 $225 forward $52 $-1 #
coedge $-1 $83 $224 $226 $227 reversed $52 $-1 #
coedge $-1 $228 $229 $83 $135 forward $217 $-1 #
edge $-1 $230 6.2691308314055405 $231 27.818971134256849 $134 $232 forward 7 unknown #
face $-1 $233 $234 $30 $-1 $235 forward single #
loop $-1 $-1 $236 $84 #
plane-surface $-1 63.071275230634569 -5.463484382852176 214.40457055524826 0 1 0 0.68199836817093118 0 0.7313536940579346 forward_v I I I I #
coedge $-1 $237 $238 $239 $240 reversed $85 $-1 #
coedge $-1 $141 $87 $241 $242 reversed $55 $-1 #
coedge $-1 $87 $140 $237 $243 reversed $55 $-1 #
coedge $-1 $239 $244 $87 $143 forward $234 $-1 #
edge $-1 $245 -38.443304613144278 $246 -33.602961579230467 $142 $247 forward 7 unknown #
loop $-1 $-1 $149 $88 #
plane-surface $-1 -32.379773581642738 0.34680084230461716 112.04585474514394 0.68199836817093118 0 0.7313536940579346 0.7313536940579346 0 -0.68199836817093118 forward_v I I I I #
loop $-1 $-1 $248 $57 #
coedge $-1 $147 $147 $148 $249 reversed $89 $-1 #
coedge $-1 $148 $148 $147 $249 forward $91 $-1 #
coedge $-1 $149 $149 $92 $150 forward $144 $-1 #
edge $-1 $250 0 $250 6.2831853071796004 $149 $251 forward 7 unknown #
face $-1 $252 $253 $32 $-1 $254 forward single #
loop $-1 $-1 $157 $93 #
plane-surface $-1 0 0 21.10849893440259 0 0 1 1 0 0 forward_v I I I I #
coedge $-1 $255 $256 $257 $258 reversed $94 $-1 #
coedge $-1 $156 $96 $259 $260 reversed $61 $-1 #
coedge $-1 $96 $155 $255 $261 reversed $61 $-1 #
coedge $-1 $257 $262 $96 $158 forward $152 $-1 #
edge $-1 $263 17.824307579470926 $264 25.733452705662721 $157 $265 forward 7 unknown #
loop $-1 $-1 $164 $97 #
plane-surface $-1 -69.978942228461563 18.77188858591839 12.010068020949049 -0.75470958851134928 0 0.65605901945558964 0.65605901945558964 0 0.75470958851134928 forward_v I I I I #
loop $-1 $-1 $266 $63 #
coedge $-1 $162 $162 $163 $267 reversed $98 $-1 #
coedge $-1 $163 $163 $162 $267 forward $100 $-1 #
coedge $-1 $164 $164 $101 $165 forward $159 $-1 #
edge $-1 $268 0 $268 6.2831853071796004 $164 $269 forward 7 unknown #
loop $-1 $-1 $171 $102 #
plane-surface $-1 -69.978942228461563 18.77188858591839 12.010068020949049 -0.75470958851134928 0 0.65605901945558964 0.65605901945558964 0 0.75470958851134928 forward_v I I I I #
loop $-1 $-1 $270 $66 #
coedge $-1 $169 $169 $170 $271 reversed $103 $-1 #
coedge $-1 $170 $170 $169 $271 forward $105 $-1 #
coedge $-1 $171 $171 $106 $172 forward $166 $-1 #
edge $-1 $272 0 $272 6.2831853071796004 $171 $273 forward 7 unknown #
loop $-1 $-1 $178 $107 #
plane-surface $-1 -69.978942228461563 18.77188858591839 12.010068020949049 -0.75470958851134928 0 0.65605901945558964 0.65605901945558964 0 0.75470958851134928 forward_v I I I I #
loop $-1 $-1 $274 $69 #
coedge $-1 $176 $176 $177 $275 reversed $108 $-1 #
coedge $-1 $177 $177 $176 $275 forward $110 $-1 #
coedge $-1 $178 $178 $111 $179 forward $173 $-1 #
edge $-1 $276 0 $276 6.2831853071796004 $178 $277 forward 7 unknown #
face $-1 $278 $279 $27 $-1 $280 reversed single #
loop $-1 $-1 $281 $112 #
plane-surface $-1 -69.978942228461563 0 0 1 0 0 0 0 -1 forward_v I I I I #
coedge $-1 $282 $191 $283 $284 forward $113 $-1 #
coedge $-1 $285 $115 $282 $286 forward $73 $-1 #
coedge $-1 $115 $285 $287 $288 forward $73 $-1 #
coedge $-1 $194 $193 $115 $187 reversed $195 $-1 #
edge $-1 $289 -44.863022117088036 $290 44.863022117088036 $186 $291 forward 7 unknown #
coedge $-1 $117 $116 $292 $293 forward $46 $-1 #
coedge $-1 $294 $295 $116 $190 reversed $279 $-1 #
edge $-1 $197 -69.978942228461563 $296 69.978942228461563 $189 $297 forward 7 unknown #
coedge $-1 $183 $298 $117 $192 reversed $113 $-1 #
edge $-1 $299 -69.978942228461563 $196 69.978942228461563 $191 $300 forward 7 unknown #
coedge $-1 $186 $118 $298 $301 forward $195 $-1 #
coedge $-1 $118 $186 $294 $302 reversed $195 $-1 #
loop $-1 $-1 $193 $278 #
vertex $-1 $119 $303 #
vertex $-1 $119 $304 #
straight-curve $-1 69.978942228461563 0 21.10849893440259 0 1 0 I I #
face $-1 $305 $306 $28 $-1 $307 forward single #
loop $-1 $-1 $208 $120 #
plane-surface $-1 0 -44.863022117088036 0 0 1 0 0 0 1 forward_v I I I I #
coedge $-1 $308 $309 $310 $311 forward $121 $-1 #
coedge $-1 $310 $123 $125 $210 reversed $77 $-1 #
coedge $-1 $123 $310 $312 $313 reversed $77 $-1 #
coedge $-1 $314 $126 $123 $206 forward $212 $-1 #
edge $-1 $214 7.1154780588701172 $315 11.700506603311688 $205 $316 forward 7 unknown #
coedge $-1 $125 $124 $308 $317 reversed $49 $-1 #
coedge $-1 $318 $319 $124 $209 forward $200 $-1 #
edge $-1 $320 -69.978942228461563 $213 69.978942228461563 $208 $321 forward 7 unknown #
edge $-1 $322 -69.978942228461563 $214 69.978942228461563 $203 $323 forward 7 unknown #
coedge $-1 $126 $314 $318 $324 forward $212 $-1 #
loop $-1 $-1 $205 $305 #
vertex $-1 $209 $325 #
vertex $-1 $127 $326 #
straight-curve $-1 69.978942228461563 -17.044050982831191 16.52347038996102 0 1 0 I I #
face $-1 $327 $328 $29 $-1 $329 reversed single #
loop $-1 $-1 $229 $128 #
plane-surface $-1 69.978942228461563 0 0 -1 0 0 0 0 1 forward_v I I I I #
coedge $-1 $330 $331 $221 $332 forward $129 $-1 #
coedge $-1 $333 $131 $132 $225 reversed $81 $-1 #
coedge $-1 $131 $333 $219 $332 reversed $81 $-1 #
coedge $-1 $334 $335 $131 $223 forward $328 $-1 #
edge $-1 $336 7.1154780588701172 $337 11.700506603311688 $222 $338 forward 7 unknown #
coedge $-1 $133 $132 $335 $339 reversed $52 $-1 #
edge $-1 $230 -69.978942228461563 $336 69.978942228461563 $220 $340 forward 7 unknown #
coedge $-1 $341 $342 $133 $227 forward $343 $-1 #
edge $-1 $231 -69.978942228461563 $344 69.978942228461563 $226 $345 forward 7 unknown #
coedge $-1 $346 $134 $342 $347 reversed $217 $-1 #
coedge $-1 $134 $346 $333 $348 forward $217 $-1 #
vertex $-1 $135 $349 #
vertex $-1 $227 $350 #
straight-curve $-1 69.978942228461563 17.044050982831195 16.52347038996102 0 1 0 I I #
face $-1 $-1 $351 $30 $-1 $352 reversed single #
loop $-1 $-1 $142 $136 #
plane-surface $-1 0 0 21.10849893440259 0 0 1 1 0 0 forward_v I I I I #
coedge $-1 $353 $354 $355 $356 reversed $137 $-1 #
coedge $-1 $357 $139 $141 $243 forward $85 $-1 #
coedge $-1 $139 $357 $353 $358 forward $85 $-1 #
coedge $-1 $355 $142 $139 $240 forward $234 $-1 #
edge $-1 $246 -5.9836856463091017 $359 5.6368848040044846 $239 $360 forward 7 unknown #
coedge $-1 $361 $362 $140 $242 forward $351 $-1 #
edge $-1 $363 -90.607479344757465 $245 -86.093786343221538 $241 $364 forward 7 unknown #
edge $-1 $246 133.33955043709057 $363 139.9578844569231 $141 $365 forward 7 unknown #
coedge $-1 $142 $355 $361 $366 forward $234 $-1 #
vertex $-1 $242 $367 #
vertex $-1 $143 $368 #
straight-curve $-1 31.535637615317285 6.1570860674614103 21.10849893440259 -1 0 0 I I #
coedge $-1 $248 $248 $-1 $369 reversed $146 $-1 #
edge $-1 $370 0 $370 6.2831853071796004 $147 $371 forward 7 unknown #
vertex $-1 $150 $372 #
ellipse-curve $-1 67.558770711504636 0.34680084230461716 18.851652433634641 0.68199836817093118 0 0.7313536940579346 1.0970305410869019 0 -1.0229975522563968 1 I I #
face $-1 $-1 $373 $32 $-1 $374 reversed single #
loop $-1 $-1 $375 $151 #
plane-surface $-1 0 23.313181814236735 18.815984662181805 0 1 0 0 0 1 forward_v I I I I #
coedge $-1 $376 $154 $156 $261 forward $94 $-1 #
coedge $-1 $154 $376 $375 $377 forward $94 $-1 #
coedge $-1 $378 $157 $154 $258 forward $152 $-1 #
edge $-1 $264 4.8446510646408569 $379 13.927237521277533 $257 $380 forward 7 unknown #
coedge $-1 $381 $382 $155 $260 forward $373 $-1 #
edge $-1 $383 -39.905282210469323 $263 -30.806851297015783 $259 $384 forward 7 unknown #
edge $-1 $264 -12.055539047012809 $383 0 $156 $385 forward 7 unknown #
coedge $-1 $157 $378 $381 $386 forward $152 $-1 #
vertex $-1 $260 $387 #
vertex $-1 $158 $388 #
straight-curve $-1 -87.803249807932488 14.230595357600052 21.10849893440259 1 0 0 I I #
coedge $-1 $266 $266 $-1 $389 reversed $161 $-1 #
edge $-1 $390 0 $390 6.2831853071796004 $162 $391 forward 7 unknown #
vertex $-1 $165 $392 #
ellipse-curve $-1 -66.024369665365668 16.047112648927389 16.559283477675812 -0.75470958851134928 0 0.65605901945558964 0.32802950972779482 0 0.37735479425567464 1 I I #
coedge $-1 $270 $270 $-1 $393 reversed $168 $-1 #
edge $-1 $394 0 $394 6.2831853071796004 $169 $395 forward 7 unknown #
vertex $-1 $172 $396 #
ellipse-curve $-1 -66.024369665365668 18.77188858591839 16.559283477675812 -0.75470958851134928 0 0.65605901945558964 0.32802950972779482 0 0.37735479425567464 1 I I #
coedge $-1 $274 $274 $-1 $397 reversed $175 $-1 #
edge $-1 $398 0 $398 6.2831853071796004 $176 $399 forward 7 unknown #
vertex $-1 $179 $400 #
ellipse-curve $-1 -66.024369665365668 21.496664522909398 16.559283477675812 -0.75470958851134928 0 0.65605901945558964 0.32802950972779482 0 0.37735479425567464 1 I I #
face $-1 $-1 $195 $27 $-1 $401 reversed single #
loop $-1 $-1 $294 $180 #
plane-surface $-1 0 44.863022117088036 0 0 -1 0 0 0 -1 forward_v I I I I #
coedge $-1 $402 $292 $295 $403 forward $181 $-1 #
coedge $-1 $298 $183 $184 $286 reversed $113 $-1 #
coedge $-1 $292 $402 $183 $284 reversed $181 $-1 #
edge $-1 $299 -21.10849893440259 $404 21.10849893440259 $283 $405 forward 7 unknown #
coedge $-1 $185 $184 $402 $406 forward $73 $-1 #
edge $-1 $290 -69.978942228461563 $404 69.978942228461563 $282 $407 forward 7 unknown #
coedge $-1 $295 $294 $185 $288 reversed $279 $-1 #
edge $-1 $408 -69.978942228461563 $289 69.978942228461563 $287 $409 forward 7 unknown #
vertex $-1 $187 $410 #
vertex $-1 $301 $411 #
straight-curve $-1 69.978942228461563 0 -21.10849893440259 0 -1 0 I I #
coedge $-1 $281 $283 $188 $293 reversed $181 $-1 #
edge $-1 $296 -44.863022117088036 $299 44.863022117088036 $292 $412 forward 7 unknown #
coedge $-1 $287 $189 $194 $302 forward $279 $-1 #
coedge $-1 $189 $287 $281 $403 reversed $279 $-1 #
vertex $-1 $190 $413 #
straight-curve $-1 0 44.863022117088036 21.10849893440259 -1 0 0 I I #
coedge $-1 $191 $282 $193 $301 reversed $113 $-1 #
vertex $-1 $293 $414 #
straight-curve $-1 0 -44.863022117088036 21.10849893440259 1 0 0 I I #
edge $-1 $196 -21.10849893440259 $290 21.10849893440259 $193 $415 forward 7 unknown #
edge $-1 $197 -21.10849893440259 $289 21.10849893440259 $194 $416 forward 7 unknown #
point $-1 69.978942228461563 -44.863022117088036 21.10849893440259 #
point $-1 69.978942228461563 44.863022117088036 21.10849893440259 #
face $-1 $-1 $212 $28 $-1 $417 reversed single #
loop $-1 $-1 $312 $199 #
plane-surface $-1 0 0 21.10849893440259 0 0 1 1 0 0 forward_v I I I I #
coedge $-1 $418 $202 $207 $317 forward $121 $-1 #
coedge $-1 $202 $418 $419 $420 reversed $121 $-1 #
coedge $-1 $204 $203 $202 $311 reversed $77 $-1 #
edge $-1 $421 -11.700506603311688 $322 -7.1154780588701172 $202 $422 forward 7 unknown #
coedge $-1 $419 $423 $204 $313 forward $306 $-1 #
edge $-1 $315 -69.978942228461563 $421 69.978942228461563 $312 $424 forward 7 unknown #
coedge $-1 $211 $205 $423 $425 reversed $212 $-1 #
vertex $-1 $206 $426 #
straight-curve $-1 69.978942228461563 -23.313181814236728 9.4079923310909024 0 0 1 I I #
edge $-1 $322 6.269130831405537 $320 27.818971134256845 $308 $427 forward 7 unknown #
coedge $-1 $428 $208 $211 $324 reversed $200 $-1 #
coedge $-1 $208 $428 $418 $429 forward $200 $-1 #
vertex $-1 $209 $430 #
straight-curve $-1 0 -44.863022117088036 16.52347038996102 1 0 0 I I #
vertex $-1 $317 $431 #
straight-curve $-1 0 -23.313181814236728 16.52347038996102 1 0 0 I I #
edge $-1 $432 -21.10849893440259 $213 -16.52347038996102 $211 $433 forward 7 unknown #
point $-1 69.978942228461563 -44.863022117088036 16.52347038996102 #
point $-1 69.978942228461563 -23.313181814236728 16.52347038996102 #
face $-1 $-1 $343 $29 $-1 $434 reversed single #
loop $-1 $-1 $222 $216 #
plane-surface $-1 -69.978942228461563 0 0 1 0 0 0 0 -1 forward_v I I I I #
coedge $-1 $435 $219 $346 $436 forward $129 $-1 #
coedge $-1 $219 $435 $334 $437 forward $129 $-1 #
edge $-1 $337 -69.978942228461563 $438 69.978942228461563 $219 $439 forward 7 unknown #
coedge $-1 $221 $220 $229 $348 reversed $81 $-1 #
coedge $-1 $440 $222 $331 $437 reversed $328 $-1 #
coedge $-1 $222 $440 $224 $339 forward $328 $-1 #
vertex $-1 $339 $441 #
vertex $-1 $223 $442 #
straight-curve $-1 -69.978942228461563 23.313181814236735 9.4079923310909024 0 0 1 I I #
edge $-1 $344 -27.818971134256849 $336 -6.2691308314055405 $335 $443 forward 7 unknown #
straight-curve $-1 0 23.313181814236735 16.52347038996102 -1 0 0 I I #
coedge $-1 $444 $226 $440 $445 reversed $343 $-1 #
coedge $-1 $226 $444 $228 $347 forward $343 $-1 #
loop $-1 $-1 $226 $327 #
vertex $-1 $227 $446 #
straight-curve $-1 0 44.863022117088036 16.52347038996102 -1 0 0 I I #
coedge $-1 $229 $228 $330 $436 reversed $217 $-1 #
edge $-1 $447 -21.10849893440259 $231 -16.52347038996102 $228 $448 forward 7 unknown #
edge $-1 $438 -11.700506603311688 $230 -7.1154780588701172 $229 $449 forward 7 unknown #
point $-1 69.978942228461563 23.313181814236735 16.52347038996102 #
point $-1 69.978942228461563 44.863022117088043 16.52347038996102 #
loop $-1 $-1 $241 $233 #
plane-surface $-1 69.978942228461563 0 0 -1 0 0 0 0 1 forward_v I I I I #
coedge $-1 $354 $236 $238 $358 reversed $137 $-1 #
coedge $-1 $236 $353 $450 $451 reversed $137 $-1 #
coedge $-1 $244 $239 $236 $356 forward $234 $-1 #
edge $-1 $359 33.602961579230467 $452 38.443304613144278 $355 $453 forward 7 unknown #
coedge $-1 $238 $237 $362 $454 reversed $85 $-1 #
edge $-1 $455 -139.9578844569231 $359 -133.33955043709057 $353 $456 forward 7 unknown #
vertex $-1 $240 $457 #
straight-curve $-1 65.138599194547766 0.17340042115230858 21.108498934402583 0 -1 0 I I #
coedge $-1 $450 $241 $244 $366 reversed $351 $-1 #
coedge $-1 $241 $450 $357 $454 forward $351 $-1 #
vertex $-1 $242 $458 #
straight-curve $-1 69.978942228461563 6.1570860674614103 107.20228527762413 0 0 1 I I #
straight-curve $-1 -32.379773581642738 6.1570860674614103 112.04585474514394 0.7313536940579346 0 -0.68199836817093118 I I #
edge $-1 $452 -5.463484382852176 $245 6.1570860674614103 $361 $459 forward 7 unknown #
point $-1 69.978942228461563 6.1570860674614103 21.10849893440259 #
point $-1 65.138599194547751 6.1570860674614103 21.10849893440259 #
edge $-1 $460 1 $460 0 $248 $-1 forward 7 unknown #
vertex $-1 $249 $461 #
ellipse-curve $-1 64.671917637848438 0.34680084230461716 15.755881595819677 0.68199836817093118 0 0.7313536940579346 1.0970305410869019 0 -1.0229975522563968 1 I I #
point $-1 68.65580125259153 0.34680084230461716 17.828654881378231 #
loop $-1 $-1 $259 $252 #
plane-surface $-1 -69.978942228461563 0 0 1 0 0 0 0 -1 forward_v I I I I #
coedge $-1 $462 $463 $256 $377 reversed $253 $-1 #
coedge $-1 $256 $255 $382 $464 reversed $94 $-1 #
edge $-1 $465 0 $379 12.055539047012809 $375 $466 forward 7 unknown #
coedge $-1 $262 $257 $463 $467 forward $152 $-1 #
vertex $-1 $467 $468 #
straight-curve $-1 -62.06979710226976 9.385944292959195 21.10849893440259 0 1 0 I I #
coedge $-1 $469 $259 $262 $386 reversed $373 $-1 #
coedge $-1 $259 $469 $376 $464 forward $373 $-1 #
vertex $-1 $260 $470 #
straight-curve $-1 -69.978942228461563 14.230595357600052 51.915350231418373 0 0 1 I I #
straight-curve $-1 -69.978942228461563 14.230595357600052 12.010068020949049 -0.65605901945558964 0 -0.75470958851134928 I I #
edge $-1 $471 -23.313181814236735 $263 -14.230595357600052 $381 $472 forward 7 unknown #
point $-1 -69.978942228461563 14.230595357600052 21.10849893440259 #
point $-1 -62.069797102269767 14.230595357600052 21.10849893440259 #
edge $-1 $473 1 $473 0 $266 $-1 forward 7 unknown #
vertex $-1 $267 $474 #
ellipse-curve $-1 -64.604259440320646 16.047112648927389 15.324800524306154 -0.75470958851134928 0 0.65605901945558964 0.32802950972779482 0 0.37735479425567464 1 I I #
point $-1 -65.69634015563787 16.047112648927389 16.936638271931486 #
edge $-1 $475 1 $475 0 $270 $-1 forward 7 unknown #
vertex $-1 $271 $476 #
ellipse-curve $-1 -64.604259440320646 18.77188858591839 15.324800524306154 -0.75470958851134928 0 0.65605901945558964 0.32802950972779482 0 0.37735479425567464 1 I I #
point $-1 -65.69634015563787 18.77188858591839 16.936638271931486 #
edge $-1 $477 1 $477 0 $274 $-1 forward 7 unknown #
vertex $-1 $275 $478 #
ellipse-curve $-1 -64.604259440320646 21.496664522909398 15.324800524306154 -0.75470958851134928 0 0.65605901945558964 0.32802950972779482 0 0.37735479425567464 1 I I #
point $-1 -65.69634015563787 21.496664522909398 16.936638271931486 #
plane-surface $-1 69.978942228461563 0 0 -1 0 0 0 0 1 forward_v I I I I #
coedge $-1 $283 $281 $285 $406 reversed $181 $-1 #
edge $-1 $296 -21.10849893440259 $408 21.10849893440259 $295 $479 forward 7 unknown #
vertex $-1 $406 $480 #
straight-curve $-1 -69.978942228461563 -44.863022117088036 0 0 0 -1 I I #
edge $-1 $404 -44.863022117088036 $408 44.863022117088036 $402 $481 forward 7 unknown #
straight-curve $-1 0 -44.863022117088036 -21.10849893440259 -1 0 0 I I #
vertex $-1 $288 $482 #
straight-curve $-1 0 44.863022117088036 -21.10849893440259 1 0 0 I I #
point $-1 69.978942228461563 44.863022117088036 -21.10849893440259 #
point $-1 69.978942228461563 -44.863022117088036 -21.10849893440259 #
straight-curve $-1 -69.978942228461563 0 21.10849893440259 0 -1 0 I I #
point $-1 -69.978942228461563 44.863022117088036 21.10849893440259 #
point $-1 -69.978942228461563 -44.863022117088036 21.10849893440259 #
straight-curve $-1 69.978942228461563 -44.863022117088036 0 0 0 -1 I I #
straight-curve $-1 69.978942228461563 44.863022117088036 0 0 0 -1 I I #
plane-surface $-1 69.978942228461563 0 0 -1 0 0 0 0 1 forward_v I I I I #
coedge $-1 $309 $308 $319 $429 reversed $121 $-1 #
coedge $-1 $483 $312 $309 $420 forward $306 $-1 #
edge $-1 $421 23.313181814236728 $484 44.863022117088036 $309 $485 forward 7 unknown #
vertex $-1 $420 $486 #
straight-curve $-1 -69.978942228461563 -23.313181814236728 9.4079923310909024 0 0 -1 I I #
coedge $-1 $312 $483 $314 $425 forward $306 $-1 #
straight-curve $-1 0 -23.313181814236728 21.10849893440259 -1 0 0 I I #
edge $-1 $432 -44.863022117088036 $315 -23.313181814236728 $314 $487 forward 7 unknown #
point $-1 69.978942228461563 -23.313181814236728 21.10849893440259 #
straight-curve $-1 -69.978942228461563 -17.044050982831191 16.52347038996102 0 -1 0 I I #
coedge $-1 $319 $318 $483 $488 reversed $200 $-1 #
edge $-1 $484 -21.10849893440259 $320 -16.52347038996102 $418 $489 forward 7 unknown #
point $-1 -69.978942228461563 -44.863022117088036 16.52347038996102 #
point $-1 -69.978942228461563 -23.313181814236728 16.52347038996102 #
vertex $-1 $425 $490 #
straight-curve $-1 69.978942228461563 -44.863022117088036 0 0 0 -1 I I #
plane-surface $-1 0 44.863022117088036 0 0 -1 0 0 0 -1 forward_v I I I I #
coedge $-1 $331 $330 $444 $491 forward $129 $-1 #
edge $-1 $438 23.313181814236735 $447 44.863022117088036 $346 $492 forward 7 unknown #
edge $-1 $493 -44.863022117088036 $337 -23.313181814236735 $334 $494 forward 7 unknown #
vertex $-1 $436 $495 #
straight-curve $-1 0 23.313181814236735 21.10849893440259 1 0 0 I I #
coedge $-1 $335 $334 $341 $445 forward $328 $-1 #
point $-1 -69.978942228461563 23.313181814236735 16.52347038996102 #
point $-1 -69.978942228461563 23.313181814236735 21.10849893440259 #
straight-curve $-1 -69.978942228461563 17.044050982831195 16.52347038996102 0 -1 0 I I #
coedge $-1 $342 $341 $435 $491 reversed $343 $-1 #
edge $-1 $493 -21.10849893440259 $344 -16.52347038996102 $341 $496 forward 7 unknown #
point $-1 -69.978942228461563 44.863022117088043 16.52347038996102 #
vertex $-1 $436 $497 #
straight-curve $-1 69.978942228461563 44.863022117088036 0 0 0 -1 I I #
straight-curve $-1 69.978942228461563 23.313181814236735 9.4079923310909024 0 0 -1 I I #
coedge $-1 $362 $361 $354 $451 forward $351 $-1 #
edge $-1 $452 86.093786343221538 $455 90.607479344757465 $450 $498 forward 7 unknown #
vertex $-1 $366 $499 #
straight-curve $-1 31.535637615317285 -5.463484382852176 21.10849893440259 1 0 0 I I #
edge $-1 $455 -5.6368848040044846 $363 5.9836856463091017 $362 $500 forward 7 unknown #
vertex $-1 $454 $501 #
straight-curve $-1 -32.379773581642738 -5.463484382852176 112.04585474514394 -0.7313536940579346 0 0.68199836817093118 I I #
point $-1 65.138599194547751 -5.463484382852176 21.10849893440259 #
point $-1 69.978942228461563 6.1570860674614103 16.594805932866663 #
straight-curve $-1 69.978942228461563 0 21.10849893440259 0 1 0 I I #
vertex $-1 $369 $502 #
point $-1 65.768948178935347 0.34680084230461716 14.73288404356328 #
coedge $-1 $463 $375 $469 $503 reversed $253 $-1 #
coedge $-1 $375 $462 $378 $467 reversed $253 $-1 #
edge $-1 $465 -13.927237521277533 $383 -4.8446510646408569 $382 $504 forward 7 unknown #
vertex $-1 $503 $505 #
straight-curve $-1 -69.978942228461563 23.313181814236728 12.010068020949049 0.65605901945558964 0 0.75470958851134928 I I #
edge $-1 $379 62.069797102269767 $471 69.978942228461563 $378 $506 forward 7 unknown #
point $-1 -62.069797102269767 23.313181814236728 21.10849893440259 #
coedge $-1 $382 $381 $462 $503 forward $373 $-1 #
point $-1 -69.978942228461563 14.230595357600052 12.010068020949049 #
vertex $-1 $386 $507 #
straight-curve $-1 -69.978942228461563 0 21.10849893440259 0 -1 0 I I #
vertex $-1 $389 $508 #
point $-1 -64.276229930592862 16.047112648927389 15.702155318561829 #
vertex $-1 $393 $509 #
point $-1 -64.276229930592862 18.77188858591839 15.702155318561829 #
vertex $-1 $397 $510 #
point $-1 -64.276229930592862 21.496664522909398 15.702155318561829 #
straight-curve $-1 -69.978942228461563 44.863022117088036 0 0 0 -1 I I #
point $-1 -69.978942228461563 -44.863022117088036 -21.10849893440259 #
straight-curve $-1 -69.978942228461563 0 -21.10849893440259 0 1 0 I I #
point $-1 -69.978942228461563 44.863022117088036 -21.10849893440259 #
coedge $-1 $423 $419 $428 $488 forward $306 $-1 #
vertex $-1 $420 $511 #
straight-curve $-1 -69.978942228461563 0 21.10849893440259 0 -1 0 I I #
point $-1 -69.978942228461563 -23.313181814236728 21.10849893440259 #
straight-curve $-1 69.978942228461563 0 21.10849893440259 0 1 0 I I #
edge $-1 $484 -69.978942228461563 $432 69.978942228461563 $428 $512 forward 7 unknown #
straight-curve $-1 -69.978942228461563 -44.863022117088036 0 0 0 -1 I I #
point $-1 69.978942228461563 -44.863022117088036 21.10849893440259 #
edge $-1 $447 -69.978942228461563 $493 69.978942228461563 $444 $513 forward 7 unknown #
straight-curve $-1 69.978942228461563 0 21.10849893440259 0 1 0 I I #
vertex $-1 $491 $514 #
straight-curve $-1 -69.978942228461563 0 21.10849893440259 0 -1 0 I I #
point $-1 69.978942228461563 23.313181814236735 21.10849893440259 #
straight-curve $-1 -69.978942228461563 44.863022117088036 0 0 0 -1 I I #
point $-1 69.978942228461563 44.863022117088036 21.10849893440259 #
straight-curve $-1 69.978942228461563 -5.463484382852176 107.20228527762413 0 0 -1 I I #
point $-1 69.978942228461563 -5.463484382852176 21.10849893440259 #
straight-curve $-1 69.978942228461563 0.17340042115230858 16.594805932866656 0 1 0 I I #
point $-1 69.978942228461563 -5.463484382852176 16.594805932866663 #
point $-1 63.648920085592046 0.34680084230461716 14.658851054732775 #
edge $-1 $471 30.806851297015783 $465 39.905282210469323 $469 $515 forward 7 unknown #
straight-curve $-1 -69.978942228461563 9.385944292959195 12.010068020949049 0 -1 0 I I #
point $-1 -69.978942228461563 23.313181814236728 12.010068020949049 #
straight-curve $-1 0 23.313181814236735 21.10849893440259 -1 0 0 I I #
point $-1 -69.978942228461563 23.313181814236735 21.10849893440259 #
point $-1 -64.22690464606498 16.047112648927389 14.996771014578359 #
point $-1 -64.22690464606498 18.77188858591839 14.996771014578359 #
point $-1 -64.22690464606498 21.496664522909398 14.996771014578359 #
point $-1 -69.978942228461563 -44.863022117088036 21.10849893440259 #
straight-curve $-1 0 -44.863022117088036 21.10849893440259 1 0 0 I I #
straight-curve $-1 0 44.863022117088036 21.10849893440259 -1 0 0 I I #
point $-1 -69.978942228461563 44.863022117088036 21.10849893440259 #
straight-curve $-1 -69.978942228461563 23.313181814236728 51.915350231418373 0 0 -1 I I #
End-of-ACIS-data 