500 0 11 0           
7 Unknown 11 ACIS 5.0 NT 24 Fri Mar 26 02:28:51 1999 
-1 9.9999999999999995e-007 1e-010 
body $-1 $11 $-1 $12 #
body $-1 $13 $-1 $14 #
body $-1 $15 $-1 $16 #
body $-1 $17 $-1 $18 #
body $-1 $19 $-1 $20 #
body $-1 $21 $-1 $22 #
body $-1 $23 $-1 $24 #
body $-1 $25 $-1 $26 #
body $-1 $27 $-1 $28 #
body $-1 $29 $-1 $30 #
body $-1 $31 $-1 $32 #
lump $-1 $-1 $33 $0 #
transform $-1 1 0 0 0 1 0 0 0 1 45.611743522446361 28.318479772258428 9.3494972952130535 1 rotate no_reflect no_shear #
lump $-1 $-1 $34 $1 #
transform $-1 1 0 0 0 1 0 0 0 1 45.611743522446361 28.318479772258428 9.3494972952130535 1 rotate no_reflect no_shear #
lump $-1 $-1 $35 $2 #
transform $-1 1 0 0 0 1 0 0 0 1 45.611743522446361 28.318479772258428 9.3494972952130535 1 rotate no_reflect no_shear #
lump $-1 $-1 $36 $3 #
transform $-1 1 0 0 0 1 0 0 0 1 45.611743522446361 28.318479772258428 9.3494972952130535 1 rotate no_reflect no_shear #
lump $-1 $-1 $37 $4 #
transform $-1 1 0 0 0 1 0 0 0 1 45.611743522446361 28.318479772258428 9.3494972952130535 1 rotate no_reflect no_shear #
lump $-1 $-1 $38 $5 #
transform $-1 1 0 0 0 1 0 0 0 1 45.611743522446361 28.318479772258428 9.3494972952130535 1 rotate no_reflect no_shear #
lump $-1 $-1 $39 $6 #
transform $-1 1 0 0 0 1 0 0 0 1 45.611743522446361 28.318479772258428 9.3494972952130535 1 rotate no_reflect no_shear #
lump $-1 $-1 $40 $7 #
transform $-1 1 0 0 0 1 0 0 0 1 45.611743522446361 28.318479772258428 9.3494972952130535 1 rotate no_reflect no_shear #
lump $-1 $-1 $41 $8 #
transform $-1 1 0 0 0 1 0 0 0 1 45.611743522446361 28.318479772258428 9.3494972952130535 1 rotate no_reflect no_shear #
lump $-1 $-1 $42 $9 #
transform $-1 1 0 0 0 1 0 0 0 1 45.611743522446361 28.318479772258428 9.3494972952130535 1 rotate no_reflect no_shear #
lump $-1 $-1 $43 $10 #
transform $-1 1 0 0 0 1 0 0 0 1 45.611743522446361 28.318479772258428 9.3494972952130535 1 rotate no_reflect no_shear #
shell $-1 $-1 $-1 $44 $-1 $11 #
shell $-1 $-1 $-1 $45 $-1 $13 #
shell $-1 $-1 $-1 $46 $-1 $15 #
shell $-1 $-1 $-1 $47 $-1 $17 #
shell $-1 $-1 $-1 $48 $-1 $19 #
shell $-1 $-1 $-1 $49 $-1 $21 #
shell $-1 $-1 $-1 $50 $-1 $23 #
shell $-1 $-1 $-1 $51 $-1 $25 #
shell $-1 $-1 $-1 $52 $-1 $27 #
shell $-1 $-1 $-1 $53 $-1 $29 #
shell $-1 $-1 $-1 $54 $-1 $31 #
face $-1 $55 $56 $33 $-1 $57 forward single #
face $-1 $58 $59 $34 $-1 $60 forward single #
face $-1 $61 $62 $35 $-1 $63 reversed single #
face $-1 $64 $65 $36 $-1 $66 forward single #
face $-1 $67 $68 $37 $-1 $69 forward single #
face $-1 $70 $71 $38 $-1 $72 reversed single #
face $-1 $73 $74 $39 $-1 $75 forward single #
face $-1 $76 $77 $40 $-1 $78 forward single #
face $-1 $79 $80 $41 $-1 $81 reversed single #
face $-1 $82 $83 $42 $-1 $84 forward single #
face $-1 $85 $86 $43 $-1 $87 forward single #
face $-1 $88 $89 $33 $-1 $90 reversed single #
loop $-1 $-1 $91 $44 #
plane-surface $-1 0 0 9.3494972952130535 0 0 1 1 0 0 forward_v I I I I #
face $-1 $92 $93 $34 $-1 $94 reversed single #
loop $-1 $-1 $95 $45 #
plane-surface $-1 -45.611743522446361 0 0 1 0 0 0 0 -1 forward_v I I I I #
face $-1 $96 $97 $35 $-1 $98 reversed single #
loop $-1 $-1 $99 $46 #
plane-surface $-1 -23.860959959957867 43.569379919060395 110.43438806785061 1 0 0 0 -0.64278761758704617 -0.76604443648966558 forward_v I I I I #
face $-1 $100 $101 $36 $-1 $102 forward single #
loop $-1 $103 $104 $47 #
cone-surface $-1 -20.684912762688796 24.214260710527636 5.5513958710882507 0 -0.64278761758704617 -0.76604443648966558 1 0 0 1 I I 0 1 1 forward I I I I #
face $-1 $105 $106 $37 $-1 $107 forward single #
loop $-1 $108 $109 $48 #
cone-surface $-1 -15.92084196678519 24.214260710527636 5.5513958710882507 0 -0.64278761758704617 -0.76604443648966558 1 0 0 1 I I 0 1 1 forward I I I I #
face $-1 $110 $111 $38 $-1 $112 reversed single #
loop $-1 $-1 $113 $49 #
plane-surface $-1 15.681713769899115 43.569379919060395 110.43438806785061 1 0 0 0 -0.64278761758704617 -0.76604443648966558 forward_v I I I I #
face $-1 $114 $115 $39 $-1 $116 forward single #
loop $-1 $117 $118 $50 #
cone-surface $-1 18.85776096716819 24.214260710527636 5.5513958710882507 0 -0.64278761758704617 -0.76604443648966558 1 0 0 1 I I 0 1 1 forward I I I I #
face $-1 $119 $120 $40 $-1 $121 forward single #
loop $-1 $122 $123 $51 #
cone-surface $-1 23.621831763071796 24.214260710527636 5.5513958710882507 0 -0.64278761758704617 -0.76604443648966558 1 0 0 1 I I 0 1 1 forward I I I I #
face $-1 $124 $125 $41 $-1 $126 reversed single #
loop $-1 $-1 $127 $52 #
plane-surface $-1 -14.347775546660863 -84.481267094977426 73.586645757609816 -1 0 0 0 -0.61566148304635926 0.78801074757464917 forward_v I I I I #
face $-1 $128 $129 $42 $-1 $130 forward single #
loop $-1 $131 $132 $53 #
cone-surface $-1 -28.009081539951403 -21.606160231908927 3.1987709882552924 0 0.61566148304635926 -0.78801074757464917 2 0 0 1 I I 0 1 2 forward I I I I #
face $-1 $133 $134 $43 $-1 $135 forward single #
loop $-1 $136 $137 $54 #
cone-surface $-1 -19.812297943977079 -21.606160231908927 3.1987709882552924 0 0.61566148304635926 -0.78801074757464917 2 0 0 1 I I 0 1 2 forward I I I I #
face $-1 $138 $139 $33 $-1 $140 reversed single #
loop $-1 $-1 $141 $55 #
plane-surface $-1 0 0 -9.3494972952130535 0 0 1 1 0 0 forward_v I I I I #
coedge $-1 $142 $143 $144 $145 forward $56 $-1 #
face $-1 $146 $147 $34 $-1 $148 forward single #
loop $-1 $-1 $149 $58 #
plane-surface $-1 0 28.318479772258428 0 0 -1 0 0 0 -1 forward_v I I I I #
coedge $-1 $150 $151 $152 $153 forward $59 $-1 #
face $-1 $154 $155 $35 $-1 $156 reversed single #
loop $-1 $-1 $157 $61 #
plane-surface $-1 -18.302877364736997 -15.067947986508969 40.553143339923452 0 0.64278761758704617 0.76604443648966558 1 0 0 forward_v I I I I #
coedge $-1 $158 $159 $160 $161 reversed $62 $-1 #
face $-1 $-1 $162 $36 $-1 $163 forward single #
loop $-1 $164 $165 $64 #
cone-surface $-1 -20.684912762688796 22.888333470916869 3.9712173528603696 0 -0.64278761758704617 -0.76604443648966558 0.5 0 0 1 I I -0.70710678118654746 0.70710678118654746 0.5 forward I I I I #
loop $-1 $-1 $166 $47 #
coedge $-1 $104 $104 $167 $168 reversed $65 $-1 #
face $-1 $-1 $169 $37 $-1 $170 forward single #
loop $-1 $171 $172 $67 #
cone-surface $-1 -15.92084196678519 22.888333470916869 3.9712173528603696 0 -0.64278761758704617 -0.76604443648966558 0.5 0 0 1 I I -0.70710678118654746 0.70710678118654746 0.5 forward I I I I #
loop $-1 $-1 $173 $48 #
coedge $-1 $109 $109 $174 $175 reversed $68 $-1 #
face $-1 $176 $177 $38 $-1 $178 reversed single #
loop $-1 $-1 $179 $70 #
plane-surface $-1 21.239796365119986 -15.067947986508969 40.553143339923452 0 0.64278761758704617 0.76604443648966558 1 0 0 forward_v I I I I #
coedge $-1 $180 $181 $182 $183 reversed $71 $-1 #
face $-1 $-1 $184 $39 $-1 $185 forward single #
loop $-1 $186 $187 $73 #
cone-surface $-1 18.85776096716819 22.888333470916869 3.9712173528603696 0 -0.64278761758704617 -0.76604443648966558 0.5 0 0 1 I I -0.70710678118654746 0.70710678118654746 0.5 forward I I I I #
loop $-1 $-1 $188 $50 #
coedge $-1 $118 $118 $189 $190 reversed $74 $-1 #
face $-1 $-1 $191 $40 $-1 $192 forward single #
loop $-1 $193 $194 $76 #
cone-surface $-1 23.621831763071796 22.888333470916869 3.9712173528603696 0 -0.64278761758704617 -0.76604443648966558 0.5 0 0 1 I I -0.70710678118654746 0.70710678118654746 0.5 forward I I I I #
loop $-1 $-1 $195 $51 #
coedge $-1 $123 $123 $196 $197 reversed $77 $-1 #
face $-1 $198 $199 $41 $-1 $200 reversed single #
loop $-1 $-1 $201 $79 #
plane-surface $-1 -23.910689741964241 -28.318479772258435 1.7015575349975762 0 -0.61566148304635926 0.78801074757464917 1 0 0 forward_v I I I I #
coedge $-1 $202 $203 $204 $205 reversed $80 $-1 #
face $-1 $-1 $206 $42 $-1 $207 forward single #
loop $-1 $208 $209 $82 #
cone-surface $-1 -28.009081539951403 -19.172637359470244 0.084003813830614504 0 0.61566148304635926 -0.78801074757464917 1 0 0 1 I I -0.70710678118654746 0.70710678118654746 1 forward I I I I #
loop $-1 $-1 $210 $53 #
coedge $-1 $132 $132 $211 $212 reversed $83 $-1 #
face $-1 $-1 $213 $43 $-1 $214 forward single #
loop $-1 $215 $216 $85 #
cone-surface $-1 -19.812297943977079 -19.172637359470244 0.084003813830614504 0 0.61566148304635926 -0.78801074757464917 1 0 0 1 I I -0.70710678118654746 0.70710678118654746 1 forward I I I I #
loop $-1 $-1 $217 $54 #
coedge $-1 $137 $137 $218 $219 reversed $86 $-1 #
face $-1 $220 $221 $33 $-1 $222 reversed single #
loop $-1 $-1 $223 $88 #
plane-surface $-1 0 -28.318479772258428 0 0 1 0 0 0 1 forward_v I I I I #
coedge $-1 $224 $225 $226 $227 forward $89 $-1 #
coedge $-1 $228 $91 $229 $230 forward $56 $-1 #
coedge $-1 $91 $228 $231 $232 forward $56 $-1 #
coedge $-1 $233 $234 $91 $145 reversed $235 $-1 #
edge $-1 $236 -28.318479772258428 $237 28.318479772258428 $144 $238 forward 7 unknown #
face $-1 $239 $240 $34 $-1 $241 reversed single #
loop $-1 $-1 $152 $92 #
plane-surface $-1 -51.680813315035735 0 2.3077796660586878 0 0 1 1 0 0 forward_v I I I I #
coedge $-1 $242 $243 $151 $244 forward $93 $-1 #
coedge $-1 $245 $95 $246 $247 reversed $59 $-1 #
coedge $-1 $95 $245 $149 $244 reversed $59 $-1 #
coedge $-1 $248 $249 $95 $153 reversed $147 $-1 #
edge $-1 $250 -28.318479772258428 $251 28.318479772258428 $152 $252 forward 7 unknown #
face $-1 $253 $254 $35 $-1 $255 forward single #
loop $-1 $-1 $256 $96 #
plane-surface $-1 -12.744794769516126 43.569379919060395 110.43438806785061 -1 0 0 0 0.64278761758704617 0.76604443648966558 forward_v I I I I #
coedge $-1 $257 $258 $259 $260 reversed $97 $-1 #
coedge $-1 $159 $99 $261 $262 reversed $62 $-1 #
coedge $-1 $99 $158 $257 $263 reversed $62 $-1 #
coedge $-1 $259 $264 $99 $161 forward $254 $-1 #
edge $-1 $265 -6.5337898127282301 $266 -0.33441855090115524 $160 $267 forward 7 unknown #
loop $-1 $-1 $167 $100 #
plane-surface $-1 -18.302877364736997 -15.067947986508969 40.553143339923452 0 0.64278761758704617 0.76604443648966558 1 0 0 forward_v I I I I #
loop $-1 $-1 $268 $64 #
coedge $-1 $165 $165 $166 $269 reversed $101 $-1 #
coedge $-1 $166 $166 $165 $269 forward $103 $-1 #
coedge $-1 $167 $167 $104 $168 forward $162 $-1 #
edge $-1 $270 2.2836403615650844e-015 $270 6.2831853071796031 $167 $271 forward 7 unknown #
loop $-1 $-1 $174 $105 #
plane-surface $-1 -18.302877364736997 -15.067947986508969 40.553143339923452 0 0.64278761758704617 0.76604443648966558 1 0 0 forward_v I I I I #
loop $-1 $-1 $272 $67 #
coedge $-1 $172 $172 $173 $273 reversed $106 $-1 #
coedge $-1 $173 $173 $172 $273 forward $108 $-1 #
coedge $-1 $174 $174 $109 $175 forward $169 $-1 #
edge $-1 $274 2.2836403615650844e-015 $274 6.2831853071796031 $174 $275 forward 7 unknown #
face $-1 $276 $277 $38 $-1 $278 forward single #
loop $-1 $-1 $279 $110 #
plane-surface $-1 26.797878960340856 43.569379919060395 110.43438806785061 -1 0 0 0 0.64278761758704617 0.76604443648966558 forward_v I I I I #
coedge $-1 $280 $281 $282 $283 reversed $111 $-1 #
coedge $-1 $181 $113 $284 $285 reversed $71 $-1 #
coedge $-1 $113 $180 $280 $286 reversed $71 $-1 #
coedge $-1 $282 $287 $113 $183 forward $277 $-1 #
edge $-1 $288 -6.5337898127282301 $289 -0.33441855090115524 $182 $290 forward 7 unknown #
loop $-1 $-1 $189 $114 #
plane-surface $-1 21.239796365119986 -15.067947986508969 40.553143339923452 0 0.64278761758704617 0.76604443648966558 1 0 0 forward_v I I I I #
loop $-1 $-1 $291 $73 #
coedge $-1 $187 $187 $188 $292 reversed $115 $-1 #
coedge $-1 $188 $188 $187 $292 forward $117 $-1 #
coedge $-1 $189 $189 $118 $190 forward $184 $-1 #
edge $-1 $293 2.2836403615650844e-015 $293 6.2831853071796031 $189 $294 forward 7 unknown #
loop $-1 $-1 $196 $119 #
plane-surface $-1 21.239796365119986 -15.067947986508969 40.553143339923452 0 0.64278761758704617 0.76604443648966558 1 0 0 forward_v I I I I #
loop $-1 $-1 $295 $76 #
coedge $-1 $194 $194 $195 $296 reversed $120 $-1 #
coedge $-1 $195 $195 $194 $296 forward $122 $-1 #
coedge $-1 $196 $196 $123 $197 forward $191 $-1 #
edge $-1 $297 2.2836403615650844e-015 $297 6.2831853071796031 $196 $298 forward 7 unknown #
face $-1 $299 $300 $41 $-1 $301 reversed single #
loop $-1 $-1 $302 $124 #
plane-surface $-1 -33.473603937267619 -84.481267094977426 73.586645757609816 1 0 0 0 0.61566148304635926 -0.78801074757464917 forward_v I I I I #
coedge $-1 $303 $304 $305 $306 reversed $125 $-1 #
coedge $-1 $203 $127 $307 $308 reversed $80 $-1 #
coedge $-1 $127 $202 $303 $309 reversed $80 $-1 #
coedge $-1 $305 $310 $127 $205 forward $311 $-1 #
edge $-1 $312 13.922153775230285 $313 23.711070077144644 $204 $314 forward 7 unknown #
loop $-1 $-1 $211 $128 #
plane-surface $-1 -23.910689741964241 -28.318479772258435 1.7015575349975762 0 -0.61566148304635926 0.78801074757464917 1 0 0 forward_v I I I I #
loop $-1 $-1 $315 $82 #
coedge $-1 $209 $209 $210 $316 reversed $129 $-1 #
coedge $-1 $210 $210 $209 $316 forward $131 $-1 #
coedge $-1 $211 $211 $132 $212 forward $206 $-1 #
edge $-1 $317 -3.0615379481043077e-016 $317 6.2831853071796004 $211 $318 forward 7 unknown #
loop $-1 $-1 $218 $133 #
plane-surface $-1 -23.910689741964241 -28.318479772258435 1.7015575349975762 0 -0.61566148304635926 0.78801074757464917 1 0 0 forward_v I I I I #
loop $-1 $-1 $319 $85 #
coedge $-1 $216 $216 $217 $320 reversed $134 $-1 #
coedge $-1 $217 $217 $216 $320 forward $136 $-1 #
coedge $-1 $218 $218 $137 $219 forward $213 $-1 #
edge $-1 $321 -3.0615379481043077e-016 $321 6.2831853071796004 $218 $322 forward 7 unknown #
face $-1 $323 $324 $33 $-1 $325 reversed single #
loop $-1 $-1 $326 $138 #
plane-surface $-1 -45.611743522446361 0 0 1 0 0 0 0 -1 forward_v I I I I #
coedge $-1 $327 $231 $328 $329 forward $139 $-1 #
coedge $-1 $330 $141 $327 $331 forward $89 $-1 #
coedge $-1 $141 $330 $332 $333 forward $89 $-1 #
coedge $-1 $234 $233 $141 $227 reversed $235 $-1 #
edge $-1 $334 -28.318479772258428 $335 28.318479772258428 $226 $336 forward 7 unknown #
coedge $-1 $143 $142 $337 $338 forward $56 $-1 #
coedge $-1 $339 $340 $142 $230 reversed $324 $-1 #
edge $-1 $237 -45.611743522446361 $341 45.611743522446361 $229 $342 forward 7 unknown #
coedge $-1 $223 $343 $143 $232 reversed $139 $-1 #
edge $-1 $344 -45.611743522446361 $236 45.611743522446361 $231 $345 forward 7 unknown #
coedge $-1 $226 $144 $343 $346 forward $235 $-1 #
coedge $-1 $144 $226 $339 $347 reversed $235 $-1 #
loop $-1 $-1 $233 $323 #
vertex $-1 $145 $348 #
vertex $-1 $145 $349 #
straight-curve $-1 45.611743522446361 0 9.3494972952130535 0 1 0 I I #
face $-1 $350 $351 $34 $-1 $352 reversed single #
loop $-1 $-1 $353 $146 #
plane-surface $-1 -51.680813315035735 0 -3.2960979235444285 0 0 1 1 0 0 forward_v I I I I #
coedge $-1 $354 $149 $355 $356 reversed $93 $-1 #
coedge $-1 $149 $354 $248 $357 reversed $93 $-1 #
edge $-1 $250 -2.3077796660586878 $358 3.2960979235444285 $149 $359 forward 7 unknown #
coedge $-1 $151 $150 $353 $360 forward $59 $-1 #
coedge $-1 $361 $362 $150 $247 forward $363 $-1 #
edge $-1 $364 -3.2960979235444285 $251 2.3077796660586878 $246 $365 forward 7 unknown #
coedge $-1 $366 $152 $243 $357 forward $147 $-1 #
coedge $-1 $152 $366 $361 $367 forward $147 $-1 #
vertex $-1 $244 $368 #
vertex $-1 $367 $369 #
straight-curve $-1 -45.611743522446361 0 2.3077796660586878 0 -1 0 I I #
face $-1 $-1 $370 $35 $-1 $371 reversed single #
loop $-1 $-1 $160 $154 #
plane-surface $-1 0 0 9.3494972952130535 0 0 1 1 0 0 forward_v I I I I #
coedge $-1 $372 $373 $374 $375 reversed $155 $-1 #
coedge $-1 $376 $157 $159 $263 forward $97 $-1 #
coedge $-1 $157 $376 $372 $377 forward $97 $-1 #
coedge $-1 $374 $160 $157 $260 forward $254 $-1 #
edge $-1 $266 -14.709521277589369 $378 -3.5933560871476278 $259 $379 forward 7 unknown #
coedge $-1 $380 $381 $158 $262 forward $370 $-1 #
edge $-1 $382 -51.069586986995752 $265 -45.867696738712247 $261 $383 forward 7 unknown #
edge $-1 $266 48.544255040016857 $382 56.636959544516849 $159 $384 forward 7 unknown #
coedge $-1 $160 $374 $380 $385 forward $254 $-1 #
vertex $-1 $262 $386 #
vertex $-1 $161 $387 #
straight-curve $-1 -23.860959959957867 21.784689959530198 9.3494972952130553 0 -1 0 I I #
coedge $-1 $268 $268 $-1 $388 reversed $164 $-1 #
edge $-1 $389 0 $389 6.2831853071796004 $165 $390 forward 7 unknown #
vertex $-1 $168 $391 #
ellipse-curve $-1 -20.684912762688796 25.218794141344883 6.748552171071303 0 0.64278761758704617 0.76604443648966558 1 0 0 1 I I #
coedge $-1 $272 $272 $-1 $392 reversed $171 $-1 #
edge $-1 $393 0 $393 6.2831853071796004 $172 $394 forward 7 unknown #
vertex $-1 $175 $395 #
ellipse-curve $-1 -15.92084196678519 25.218794141344883 6.748552171071303 0 0.64278761758704617 0.76604443648966558 1 0 0 1 I I #
face $-1 $-1 $396 $38 $-1 $397 reversed single #
loop $-1 $-1 $182 $176 #
plane-surface $-1 0 0 9.3494972952130535 0 0 1 1 0 0 forward_v I I I I #
coedge $-1 $398 $399 $400 $401 reversed $177 $-1 #
coedge $-1 $402 $179 $181 $286 forward $111 $-1 #
coedge $-1 $179 $402 $398 $403 forward $111 $-1 #
coedge $-1 $400 $182 $179 $283 forward $277 $-1 #
edge $-1 $289 5.0618155873391224 $404 16.177980777780864 $282 $405 forward 7 unknown #
coedge $-1 $406 $407 $180 $285 forward $396 $-1 #
edge $-1 $408 -51.069586986995752 $288 -45.867696738712247 $284 $409 forward 7 unknown #
edge $-1 $289 48.544255040016857 $408 56.636959544516849 $181 $410 forward 7 unknown #
coedge $-1 $182 $400 $406 $411 forward $277 $-1 #
vertex $-1 $183 $412 #
vertex $-1 $183 $413 #
straight-curve $-1 15.681713769899115 21.784689959530198 9.3494972952130553 0 -1 0 I I #
coedge $-1 $291 $291 $-1 $414 reversed $186 $-1 #
edge $-1 $415 0 $415 6.2831853071796004 $187 $416 forward 7 unknown #
vertex $-1 $190 $417 #
ellipse-curve $-1 18.85776096716819 25.218794141344883 6.748552171071303 0 0.64278761758704617 0.76604443648966558 1 0 0 1 I I #
coedge $-1 $295 $295 $-1 $418 reversed $193 $-1 #
edge $-1 $419 0 $419 6.2831853071796004 $194 $420 forward 7 unknown #
vertex $-1 $197 $421 #
ellipse-curve $-1 23.621831763071796 25.218794141344883 6.748552171071303 0 0.64278761758704617 0.76604443648966558 1 0 0 1 I I #
face $-1 $-1 $311 $41 $-1 $422 forward single #
loop $-1 $-1 $423 $198 #
plane-surface $-1 0 -28.318479772258428 0 0 1 0 0 0 1 forward_v I I I I #
coedge $-1 $424 $425 $426 $427 reversed $199 $-1 #
coedge $-1 $428 $201 $203 $309 forward $125 $-1 #
coedge $-1 $201 $428 $424 $429 forward $125 $-1 #
coedge $-1 $426 $204 $201 $306 forward $311 $-1 #
edge $-1 $313 2.3924306756787423 $430 21.518259066285498 $305 $431 forward 7 unknown #
coedge $-1 $432 $433 $202 $308 forward $300 $-1 #
edge $-1 $434 -35.091765343807324 $312 -27.443825583591853 $307 $435 forward 7 unknown #
edge $-1 $313 -12.422313188040686 $434 -9.0167608931652224e-015 $203 $436 forward 7 unknown #
coedge $-1 $204 $426 $432 $437 forward $311 $-1 #
loop $-1 $-1 $426 $299 #
vertex $-1 $308 $438 #
vertex $-1 $205 $439 #
straight-curve $-1 -14.347775546660863 -42.240633547488713 9.3494972952130553 0 1 0 I I #
coedge $-1 $315 $315 $-1 $440 reversed $208 $-1 #
edge $-1 $441 0 $441 6.2831853071796004 $209 $442 forward 7 unknown #
vertex $-1 $212 $443 #
ellipse-curve $-1 -28.009081539951403 -23.42402162130125 5.5255274151053175 0 -0.61566148304635926 0.78801074757464917 2 0 0 1 I I #
coedge $-1 $319 $319 $-1 $444 reversed $215 $-1 #
edge $-1 $445 0 $445 6.2831853071796004 $216 $446 forward 7 unknown #
vertex $-1 $219 $447 #
ellipse-curve $-1 -19.812297943977079 -23.42402162130125 5.5255274151053175 0 -0.61566148304635926 0.78801074757464917 2 0 0 1 I I #
face $-1 $-1 $235 $33 $-1 $448 reversed single #
loop $-1 $-1 $339 $220 #
plane-surface $-1 0 28.318479772258428 0 0 -1 0 0 0 -1 forward_v I I I I #
coedge $-1 $449 $337 $340 $450 forward $221 $-1 #
coedge $-1 $343 $223 $224 $331 reversed $139 $-1 #
coedge $-1 $337 $449 $223 $329 reversed $221 $-1 #
edge $-1 $344 -9.3494972952130535 $451 9.3494972952130535 $328 $452 forward 7 unknown #
coedge $-1 $225 $224 $449 $453 forward $89 $-1 #
edge $-1 $335 -45.611743522446361 $451 45.611743522446361 $327 $454 forward 7 unknown #
coedge $-1 $340 $339 $225 $333 reversed $324 $-1 #
edge $-1 $455 -45.611743522446361 $334 45.611743522446361 $332 $456 forward 7 unknown #
vertex $-1 $227 $457 #
vertex $-1 $346 $458 #
straight-curve $-1 45.611743522446361 0 -9.3494972952130535 0 -1 0 I I #
coedge $-1 $326 $328 $228 $338 reversed $221 $-1 #
edge $-1 $341 -28.318479772258428 $344 28.318479772258428 $337 $459 forward 7 unknown #
coedge $-1 $332 $229 $234 $347 forward $324 $-1 #
coedge $-1 $229 $332 $326 $450 reversed $324 $-1 #
vertex $-1 $230 $460 #
straight-curve $-1 0 28.318479772258428 9.3494972952130535 -1 0 0 I I #
coedge $-1 $231 $327 $233 $346 reversed $139 $-1 #
vertex $-1 $338 $461 #
straight-curve $-1 0 -28.318479772258428 9.3494972952130535 1 0 0 I I #
edge $-1 $236 -9.3494972952130535 $335 9.3494972952130535 $233 $462 forward 7 unknown #
edge $-1 $237 -9.3494972952130535 $334 9.3494972952130535 $234 $463 forward 7 unknown #
point $-1 45.611743522446361 -28.318479772258428 9.3494972952130535 #
point $-1 45.611743522446361 28.318479772258428 9.3494972952130535 #
face $-1 $-1 $363 $34 $-1 $464 reversed single #
loop $-1 $-1 $465 $239 #
plane-surface $-1 -57.749883107625109 0 -0.49415912874287038 1 0 0 0 0 -1 forward_v I I I I #
coedge $-1 $466 $355 $245 $360 reversed $240 $-1 #
coedge $-1 $243 $242 $465 $467 reversed $93 $-1 #
coedge $-1 $353 $468 $242 $356 forward $240 $-1 #
edge $-1 $469 -6.0690697925893744 $358 6.0690697925893744 $242 $470 forward 7 unknown #
edge $-1 $250 -6.0690697925893744 $471 6.0690697925893744 $243 $472 forward 7 unknown #
vertex $-1 $244 $473 #
straight-curve $-1 -45.611743522446361 28.318479772258428 0 0 0 -1 I I #
edge $-1 $364 -28.318479772258428 $358 28.318479772258428 $353 $474 forward 7 unknown #
coedge $-1 $475 $246 $249 $367 reversed $363 $-1 #
coedge $-1 $246 $475 $466 $476 reversed $363 $-1 #
loop $-1 $-1 $246 $350 #
vertex $-1 $247 $477 #
straight-curve $-1 -45.611743522446361 -28.318479772258428 0 0 0 1 I I #
coedge $-1 $249 $248 $478 $479 forward $147 $-1 #
edge $-1 $480 -6.0690697925893744 $251 6.0690697925893744 $361 $481 forward 7 unknown #
point $-1 -45.611743522446361 28.318479772258428 2.3077796660586878 #
point $-1 -45.611743522446361 -28.318479772258428 2.3077796660586878 #
loop $-1 $-1 $261 $253 #
plane-surface $-1 0 28.318479772258428 0 0 -1 0 0 0 -1 forward_v I I I I #
coedge $-1 $373 $256 $258 $377 reversed $155 $-1 #
coedge $-1 $256 $372 $482 $483 reversed $155 $-1 #
coedge $-1 $264 $259 $256 $375 forward $254 $-1 #
edge $-1 $378 0.33441855090115524 $484 6.5337898127282301 $374 $485 forward 7 unknown #
coedge $-1 $258 $257 $381 $486 reversed $97 $-1 #
edge $-1 $487 -56.636959544516849 $378 -48.544255040016857 $372 $488 forward 7 unknown #
vertex $-1 $260 $489 #
straight-curve $-1 -9.1514386823684983 22.119108510431357 9.3494972952130553 1 0 0 I I #
coedge $-1 $482 $261 $264 $385 reversed $370 $-1 #
coedge $-1 $261 $482 $376 $486 forward $370 $-1 #
vertex $-1 $262 $490 #
straight-curve $-1 -23.860959959957867 28.318479772258428 55.217194033925303 0 0 1 I I #
straight-curve $-1 -23.860959959957867 -15.067947986508969 40.553143339923452 0 0.76604443648966558 -0.64278761758704617 I I #
edge $-1 $484 12.744794769516126 $265 23.860959959957867 $380 $491 forward 7 unknown #
point $-1 -23.860959959957867 28.318479772258428 9.3494972952130535 #
point $-1 -23.860959959957867 22.119108510431353 9.3494972952130588 #
edge $-1 $492 1 $492 0 $268 $-1 forward 7 unknown #
vertex $-1 $269 $493 #
ellipse-curve $-1 -20.684912762688796 23.209727279710393 4.354239571105202 0 0.64278761758704617 0.76604443648966558 1 0 0 1 I I #
point $-1 -19.684912762688796 25.218794141344883 6.7485521710712995 #
edge $-1 $494 1 $494 0 $272 $-1 forward 7 unknown #
vertex $-1 $273 $495 #
ellipse-curve $-1 -15.92084196678519 23.209727279710393 4.354239571105202 0 0.64278761758704617 0.76604443648966558 1 0 0 1 I I #
point $-1 -14.92084196678519 25.218794141344883 6.7485521710712995 #
loop $-1 $-1 $284 $276 #
plane-surface $-1 0 28.318479772258428 0 0 -1 0 0 0 -1 forward_v I I I I #
coedge $-1 $399 $279 $281 $403 reversed $177 $-1 #
coedge $-1 $279 $398 $496 $497 reversed $177 $-1 #
coedge $-1 $287 $282 $279 $401 forward $277 $-1 #
edge $-1 $404 0.33441855090115524 $498 6.5337898127282301 $400 $499 forward 7 unknown #
coedge $-1 $281 $280 $407 $500 reversed $111 $-1 #
edge $-1 $501 -56.636959544516849 $404 -48.544255040016857 $398 $502 forward 7 unknown #
vertex $-1 $283 $503 #
straight-curve $-1 10.619898182559993 22.119108510431357 9.3494972952130553 1 0 0 I I #
coedge $-1 $496 $284 $287 $411 reversed $396 $-1 #
coedge $-1 $284 $496 $402 $500 forward $396 $-1 #
vertex $-1 $285 $504 #
straight-curve $-1 15.681713769899115 28.318479772258428 55.217194033925303 0 0 1 I I #
straight-curve $-1 15.681713769899115 -15.067947986508969 40.553143339923452 0 0.76604443648966558 -0.64278761758704617 I I #
edge $-1 $498 -26.797878960340856 $288 -15.681713769899115 $406 $505 forward 7 unknown #
point $-1 15.681713769899115 28.318479772258428 9.3494972952130535 #
point $-1 15.681713769899115 22.119108510431353 9.3494972952130588 #
edge $-1 $506 1 $506 0 $291 $-1 forward 7 unknown #
vertex $-1 $292 $507 #
ellipse-curve $-1 18.85776096716819 23.209727279710393 4.354239571105202 0 0.64278761758704617 0.76604443648966558 1 0 0 1 I I #
point $-1 19.85776096716819 25.218794141344883 6.7485521710712995 #
edge $-1 $508 1 $508 0 $295 $-1 forward 7 unknown #
vertex $-1 $296 $509 #
ellipse-curve $-1 23.621831763071796 23.209727279710393 4.354239571105202 0 0.64278761758704617 0.76604443648966558 1 0 0 1 I I #
point $-1 24.621831763071796 25.218794141344883 6.7485521710712995 #
plane-surface $-1 0 0 9.3494972952130535 0 0 1 1 0 0 forward_v I I I I #
coedge $-1 $433 $432 $425 $510 forward $300 $-1 #
coedge $-1 $425 $302 $304 $429 reversed $199 $-1 #
coedge $-1 $302 $424 $423 $510 reversed $199 $-1 #
coedge $-1 $310 $305 $302 $427 forward $311 $-1 #
edge $-1 $430 -23.711070077144644 $511 -13.922153775230285 $426 $512 forward 7 unknown #
coedge $-1 $304 $303 $433 $513 reversed $125 $-1 #
edge $-1 $514 9.0167608931652224e-015 $430 12.422313188040686 $424 $515 forward 7 unknown #
vertex $-1 $306 $516 #
straight-curve $-1 -11.95534487098212 -18.529563470344069 9.3494972952130535 -1 0 0 I I #
coedge $-1 $423 $307 $310 $437 reversed $300 $-1 #
coedge $-1 $307 $423 $428 $513 forward $300 $-1 #
vertex $-1 $308 $517 #
straight-curve $-1 -14.347775546660863 -28.318479772258428 36.793322878804908 0 0 1 I I #
straight-curve $-1 -14.347775546660863 -28.318479772258435 1.7015575349975762 0 -0.78801074757464917 -0.61566148304635926 I I #
edge $-1 $511 -33.473603937267619 $312 -14.347775546660863 $432 $518 forward 7 unknown #
point $-1 -14.347775546660863 -28.318479772258428 9.3494972952130535 #
point $-1 -14.347775546660863 -18.529563470344069 9.3494972952130535 #
edge $-1 $519 1 $519 0 $315 $-1 forward 7 unknown #
vertex $-1 $316 $520 #
ellipse-curve $-1 -28.009081539951403 -19.788298842516603 0.87201456140526368 0 -0.61566148304635926 0.78801074757464917 2 0 0 1 I I #
point $-1 -26.009081539951403 -23.424021621301254 5.5255274151053211 #
edge $-1 $521 1 $521 0 $319 $-1 forward 7 unknown #
vertex $-1 $320 $522 #
ellipse-curve $-1 -19.812297943977079 -19.788298842516603 0.87201456140526368 0 -0.61566148304635926 0.78801074757464917 2 0 0 1 I I #
point $-1 -17.812297943977079 -23.424021621301254 5.5255274151053211 #
plane-surface $-1 45.611743522446361 0 0 -1 0 0 0 0 1 forward_v I I I I #
coedge $-1 $328 $326 $330 $453 reversed $221 $-1 #
edge $-1 $341 -9.3494972952130535 $455 9.3494972952130535 $340 $523 forward 7 unknown #
vertex $-1 $453 $524 #
straight-curve $-1 -45.611743522446361 -28.318479772258428 0 0 0 -1 I I #
edge $-1 $451 -28.318479772258428 $455 28.318479772258428 $449 $525 forward 7 unknown #
straight-curve $-1 0 -28.318479772258428 -9.3494972952130535 -1 0 0 I I #
vertex $-1 $333 $526 #
straight-curve $-1 0 28.318479772258428 -9.3494972952130535 1 0 0 I I #
point $-1 45.611743522446361 28.318479772258428 -9.3494972952130535 #
point $-1 45.611743522446361 -28.318479772258428 -9.3494972952130535 #
straight-curve $-1 -45.611743522446361 0 9.3494972952130535 0 -1 0 I I #
point $-1 -45.611743522446361 28.318479772258428 9.3494972952130535 #
point $-1 -45.611743522446361 -28.318479772258428 9.3494972952130535 #
straight-curve $-1 45.611743522446361 -28.318479772258428 0 0 0 -1 I I #
straight-curve $-1 45.611743522446361 28.318479772258428 0 0 0 -1 I I #
plane-surface $-1 0 -28.318479772258428 0 0 1 0 0 0 1 forward_v I I I I #
coedge $-1 $527 $478 $354 $467 forward $351 $-1 #
coedge $-1 $468 $353 $362 $476 forward $240 $-1 #
edge $-1 $471 -2.8019387948015582 $469 2.8019387948015582 $354 $528 forward 7 unknown #
coedge $-1 $355 $466 $527 $529 forward $240 $-1 #
vertex $-1 $356 $530 #
straight-curve $-1 -51.680813315035735 28.318479772258428 -3.2960979235444285 1 0 0 I I #
vertex $-1 $357 $531 #
straight-curve $-1 -51.680813315035735 28.318479772258428 2.3077796660586878 -1 0 0 I I #
point $-1 -45.611743522446361 28.318479772258428 -3.2960979235444285 #
straight-curve $-1 -45.611743522446361 0 -3.2960979235444285 0 1 0 I I #
coedge $-1 $362 $361 $532 $533 forward $363 $-1 #
edge $-1 $364 -6.0690697925893744 $534 6.0690697925893744 $362 $535 forward 7 unknown #
point $-1 -45.611743522446361 -28.318479772258428 -3.2960979235444285 #
coedge $-1 $465 $532 $366 $479 reversed $351 $-1 #
edge $-1 $471 -28.318479772258428 $480 28.318479772258428 $478 $536 forward 7 unknown #
vertex $-1 $479 $537 #
straight-curve $-1 -51.680813315035735 -28.318479772258428 2.3077796660586878 1 0 0 I I #
coedge $-1 $381 $380 $373 $483 forward $370 $-1 #
edge $-1 $484 45.867696738712247 $487 51.069586986995752 $482 $538 forward 7 unknown #
vertex $-1 $385 $539 #
straight-curve $-1 -12.744794769516126 21.784689959530198 9.3494972952130553 0 1 0 I I #
edge $-1 $487 3.5933560871476278 $382 14.709521277589369 $381 $540 forward 7 unknown #
vertex $-1 $486 $541 #
straight-curve $-1 -12.744794769516126 -15.067947986508969 40.553143339923452 0 -0.76604443648966558 0.64278761758704617 I I #
point $-1 -12.744794769516126 22.119108510431353 9.3494972952130588 #
point $-1 -23.860959959957867 28.318479772258428 4.1476070469295507 #
straight-curve $-1 0 28.318479772258428 9.3494972952130535 -1 0 0 I I #
vertex $-1 $388 $542 #
point $-1 -19.684912762688796 23.209727279710393 4.354239571105202 #
vertex $-1 $392 $543 #
point $-1 -14.92084196678519 23.209727279710393 4.354239571105202 #
coedge $-1 $407 $406 $399 $497 forward $396 $-1 #
edge $-1 $498 45.867696738712247 $501 51.069586986995752 $496 $544 forward 7 unknown #
vertex $-1 $411 $545 #
straight-curve $-1 26.797878960340856 21.784689959530198 9.3494972952130553 0 1 0 I I #
edge $-1 $501 -16.177980777780864 $408 -5.0618155873391224 $407 $546 forward 7 unknown #
vertex $-1 $500 $547 #
straight-curve $-1 26.797878960340856 -15.067947986508969 40.553143339923452 0 -0.76604443648966558 0.64278761758704617 I I #
point $-1 26.797878960340856 22.119108510431353 9.3494972952130588 #
point $-1 15.681713769899115 28.318479772258428 4.1476070469295507 #
straight-curve $-1 0 28.318479772258428 9.3494972952130535 -1 0 0 I I #
vertex $-1 $414 $548 #
point $-1 19.85776096716819 23.209727279710393 4.354239571105202 #
vertex $-1 $418 $549 #
point $-1 24.621831763071796 23.209727279710393 4.354239571105202 #
edge $-1 $511 27.443825583591853 $514 35.091765343807324 $423 $550 forward 7 unknown #
vertex $-1 $437 $551 #
straight-curve $-1 -33.473603937267619 -42.240633547488713 9.3494972952130553 0 -1 0 I I #
edge $-1 $514 -21.518259066285498 $434 -2.3924306756787423 $433 $552 forward 7 unknown #
vertex $-1 $513 $553 #
straight-curve $-1 -33.473603937267619 -28.318479772258435 1.7015575349975762 0 0.78801074757464917 0.61566148304635926 I I #
point $-1 -33.473603937267619 -18.529563470344069 9.3494972952130535 #
point $-1 -14.347775546660863 -28.318479772258428 1.7015575349975818 #
straight-curve $-1 0 -28.318479772258428 9.3494972952130535 1 0 0 I I #
vertex $-1 $440 $554 #
point $-1 -26.009081539951403 -19.788298842516603 0.87201456140526368 #
vertex $-1 $444 $555 #
point $-1 -17.812297943977079 -19.788298842516603 0.87201456140526368 #
straight-curve $-1 -45.611743522446361 28.318479772258428 0 0 0 -1 I I #
point $-1 -45.611743522446361 -28.318479772258428 -9.3494972952130535 #
straight-curve $-1 -45.611743522446361 0 -9.3494972952130535 0 1 0 I I #
point $-1 -45.611743522446361 28.318479772258428 -9.3494972952130535 #
coedge $-1 $532 $465 $468 $529 reversed $351 $-1 #
straight-curve $-1 -57.749883107625109 28.318479772258428 -0.49415912874287038 0 0 -1 I I #
edge $-1 $534 -28.318479772258428 $469 28.318479772258428 $527 $556 forward 7 unknown #
point $-1 -57.749883107625109 28.318479772258428 -3.2960979235444285 #
point $-1 -57.749883107625109 28.318479772258428 2.3077796660586878 #
coedge $-1 $478 $527 $475 $533 reversed $351 $-1 #
edge $-1 $480 -2.8019387948015582 $534 2.8019387948015582 $532 $557 forward 7 unknown #
vertex $-1 $529 $558 #
straight-curve $-1 -51.680813315035735 -28.318479772258428 -3.2960979235444285 -1 0 0 I I #
straight-curve $-1 -57.749883107625109 0 2.3077796660586878 0 -1 0 I I #
point $-1 -57.749883107625109 -28.318479772258428 2.3077796660586878 #
straight-curve $-1 -12.744794769516126 28.318479772258428 55.217194033925303 0 0 -1 I I #
point $-1 -12.744794769516126 28.318479772258428 9.3494972952130535 #
straight-curve $-1 -9.1514386823684983 28.318479772258428 4.1476070469295543 -1 0 0 I I #
point $-1 -12.744794769516126 28.318479772258428 4.1476070469295507 #
point $-1 -20.684912762688796 22.566939662123346 3.5881951346155367 #
point $-1 -15.92084196678519 22.566939662123346 3.5881951346155367 #
straight-curve $-1 26.797878960340856 28.318479772258428 55.217194033925303 0 0 -1 I I #
point $-1 26.797878960340856 28.318479772258428 9.3494972952130535 #
straight-curve $-1 10.619898182559993 28.318479772258428 4.1476070469295543 -1 0 0 I I #
point $-1 26.797878960340856 28.318479772258428 4.1476070469295507 #
point $-1 18.85776096716819 22.566939662123346 3.5881951346155367 #
point $-1 23.621831763071796 22.566939662123346 3.5881951346155367 #
straight-curve $-1 -33.473603937267619 -28.318479772258428 36.793322878804908 0 0 -1 I I #
point $-1 -33.473603937267619 -28.318479772258428 9.3494972952130535 #
straight-curve $-1 -11.95534487098212 -28.318479772258428 1.7015575349975811 1 0 0 I I #
point $-1 -33.473603937267619 -28.318479772258428 1.7015575349975818 #
point $-1 -28.009081539951403 -18.556975876423884 -0.70400693374403467 #
point $-1 -19.812297943977079 -18.556975876423884 -0.70400693374403467 #
straight-curve $-1 -57.749883107625109 0 -3.2960979235444285 0 1 0 I I #
straight-curve $-1 -57.749883107625109 -28.318479772258428 -0.49415912874287038 0 0 -1 I I #
point $-1 -57.749883107625109 -28.318479772258428 -3.2960979235444285 #
End-of-ACIS-data 