500 0 9 0           
7 Unknown 11 ACIS 5.0 NT 24 Fri Mar 26 15:17:59 1999 
-1 9.9999999999999995e-007 1e-010 
body $-1 $9 $-1 $10 #
body $-1 $11 $-1 $12 #
body $-1 $13 $-1 $14 #
body $-1 $15 $-1 $16 #
body $-1 $17 $-1 $18 #
body $-1 $19 $-1 $20 #
body $-1 $21 $-1 $22 #
body $-1 $23 $-1 $24 #
body $-1 $25 $-1 $26 #
lump $-1 $-1 $27 $0 #
transform $-1 1 0 0 0 1 0 0 0 1 50.121158482619705 22.286454877648879 9.7914305373892407 1 rotate no_reflect no_shear #
lump $-1 $-1 $28 $1 #
transform $-1 1 0 0 0 1 0 0 0 1 50.121158482619705 22.286454877648879 9.7914305373892407 1 rotate no_reflect no_shear #
lump $-1 $-1 $29 $2 #
transform $-1 1 0 0 0 1 0 0 0 1 50.121158482619705 22.286454877648879 9.7914305373892407 1 rotate no_reflect no_shear #
lump $-1 $-1 $30 $3 #
transform $-1 1 0 0 0 1 0 0 0 1 50.121158482619705 22.286454877648879 9.7914305373892407 1 rotate no_reflect no_shear #
lump $-1 $-1 $31 $4 #
transform $-1 1 0 0 0 1 0 0 0 1 50.121158482619705 22.286454877648879 9.7914305373892407 1 rotate no_reflect no_shear #
lump $-1 $-1 $32 $5 #
transform $-1 1 0 0 0 1 0 0 0 1 50.121158482619705 22.286454877648879 9.7914305373892407 1 rotate no_reflect no_shear #
lump $-1 $-1 $33 $6 #
transform $-1 1 0 0 0 1 0 0 0 1 50.121158482619705 22.286454877648879 9.7914305373892407 1 rotate no_reflect no_shear #
lump $-1 $-1 $34 $7 #
transform $-1 1 0 0 0 1 0 0 0 1 50.121158482619705 22.286454877648879 9.7914305373892407 1 rotate no_reflect no_shear #
lump $-1 $-1 $35 $8 #
transform $-1 1 0 0 0 1 0 0 0 1 50.121158482619705 22.286454877648879 9.7914305373892407 1 rotate no_reflect no_shear #
shell $-1 $-1 $-1 $36 $-1 $9 #
shell $-1 $-1 $-1 $37 $-1 $11 #
shell $-1 $-1 $-1 $38 $-1 $13 #
shell $-1 $-1 $-1 $39 $-1 $15 #
shell $-1 $-1 $-1 $40 $-1 $17 #
shell $-1 $-1 $-1 $41 $-1 $19 #
shell $-1 $-1 $-1 $42 $-1 $21 #
shell $-1 $-1 $-1 $43 $-1 $23 #
shell $-1 $-1 $-1 $44 $-1 $25 #
face $-1 $45 $46 $27 $-1 $47 forward single #
face $-1 $48 $49 $28 $-1 $50 forward single #
face $-1 $51 $52 $29 $-1 $53 reversed single #
face $-1 $54 $55 $30 $-1 $56 forward single #
face $-1 $57 $58 $31 $-1 $59 forward single #
face $-1 $60 $61 $32 $-1 $62 reversed single #
face $-1 $63 $64 $33 $-1 $65 forward single #
face $-1 $66 $67 $34 $-1 $68 forward single #
face $-1 $69 $70 $35 $-1 $71 forward single #
face $-1 $72 $73 $27 $-1 $74 reversed single #
loop $-1 $-1 $75 $36 #
plane-surface $-1 0 0 9.7914305373892407 0 0 1 1 0 0 forward_v I I I I #
face $-1 $76 $77 $28 $-1 $78 reversed single #
loop $-1 $-1 $79 $37 #
plane-surface $-1 -50.121158482619705 0 0 1 0 0 0 0 -1 forward_v I I I I #
face $-1 $80 $81 $29 $-1 $82 reversed single #
loop $-1 $-1 $83 $38 #
plane-surface $-1 -20.062717022292102 47.016279685823562 112.93404632917081 1 0 0 0 -0.6018150307709319 -0.79863550430605224 forward_v I I I I #
face $-1 $84 $85 $30 $-1 $86 forward single #
loop $-1 $87 $88 $39 #
cone-surface $-1 -13.615092714501806 18.77560140098241 6.5551895449617854 0 -0.6018150307709319 -0.79863550430605224 1 0 0 1 I I 0 1 1 forward I I I I #
face $-1 $89 $90 $31 $-1 $91 forward single #
loop $-1 $92 $93 $40 #
cone-surface $-1 -3.9436562528163677 18.77560140098241 6.5551895449617854 0 -0.6018150307709319 -0.79863550430605224 1 0 0 1 I I 0 1 1 forward I I I I #
face $-1 $94 $95 $32 $-1 $96 reversed single #
loop $-1 $-1 $97 $41 #
plane-surface $-1 14.252600189062449 -100.18936750380807 65.34412889219044 -1 0 0 0 -0.77714596973225614 0.62932038083071107 forward_v I I I I #
face $-1 $98 $99 $33 $-1 $100 forward single #
loop $-1 $101 $102 $42 #
cone-surface $-1 3.4971186627914363 -18.72008629912126 5.607025776864365 0 0.77714596973225614 -0.62932038083071107 1 0 0 1 I I 0 1 1 forward I I I I #
face $-1 $103 $104 $34 $-1 $105 forward single #
loop $-1 $106 $107 $43 #
cone-surface $-1 7.5304242351430659 -18.72008629912126 5.607025776864365 0 0.77714596973225614 -0.62932038083071107 1 0 0 1 I I 0 1 1 forward I I I I #
face $-1 $108 $109 $35 $-1 $110 forward single #
loop $-1 $111 $112 $44 #
cone-surface $-1 11.563729807494695 -18.72008629912126 5.607025776864365 0 0.77714596973225614 -0.62932038083071107 1 0 0 1 I I 0 1 1 forward I I I I #
face $-1 $113 $114 $27 $-1 $115 reversed single #
loop $-1 $-1 $116 $45 #
plane-surface $-1 0 0 -9.7914305373892407 0 0 1 1 0 0 forward_v I I I I #
coedge $-1 $117 $118 $119 $120 forward $46 $-1 #
face $-1 $121 $122 $28 $-1 $123 forward single #
loop $-1 $-1 $124 $48 #
plane-surface $-1 0 22.286454877648879 0 0 -1 0 0 0 -1 forward_v I I I I #
coedge $-1 $125 $126 $127 $128 forward $49 $-1 #
face $-1 $129 $130 $29 $-1 $131 reversed single #
loop $-1 $-1 $132 $51 #
plane-surface $-1 -8.7793744836590975 -13.3110533831615 32.876972966829697 0 0.6018150307709319 0.79863550430605224 1 0 0 forward_v I I I I #
coedge $-1 $133 $134 $135 $136 reversed $52 $-1 #
face $-1 $-1 $137 $30 $-1 $138 forward single #
loop $-1 $139 $140 $54 #
cone-surface $-1 -13.615092714501806 17.444820075729275 4.7891831136283205 0 -0.6018150307709319 -0.79863550430605224 0.5 0 0 1 I I -0.70710678118654746 0.70710678118654746 0.5 forward I I I I #
loop $-1 $-1 $141 $39 #
coedge $-1 $88 $88 $142 $143 reversed $55 $-1 #
face $-1 $-1 $144 $31 $-1 $145 forward single #
loop $-1 $146 $147 $57 #
cone-surface $-1 -3.9436562528163677 17.444820075729275 4.7891831136283205 0 -0.6018150307709319 -0.79863550430605224 0.5 0 0 1 I I -0.70710678118654746 0.70710678118654746 0.5 forward I I I I #
loop $-1 $-1 $148 $40 #
coedge $-1 $93 $93 $149 $150 reversed $58 $-1 #
face $-1 $151 $152 $32 $-1 $153 reversed single #
loop $-1 $-1 $154 $60 #
plane-surface $-1 7.5304242351430659 -22.286454877648893 2.2595958042731255 0 -0.77714596973225614 0.62932038083071107 1 0 0 forward_v I I I I #
coedge $-1 $155 $156 $157 $158 reversed $61 $-1 #
face $-1 $-1 $159 $33 $-1 $160 forward single #
loop $-1 $161 $162 $63 #
cone-surface $-1 3.4971186627914363 -17.814724407505018 4.8738781924821897 0 0.77714596973225614 -0.62932038083071107 0.5 0 0 1 I I -0.70710678118654746 0.70710678118654746 0.5 forward I I I I #
loop $-1 $-1 $163 $42 #
coedge $-1 $102 $102 $164 $165 reversed $64 $-1 #
face $-1 $-1 $166 $34 $-1 $167 forward single #
loop $-1 $168 $169 $66 #
cone-surface $-1 7.5304242351430659 -17.814724407505018 4.8738781924821897 0 0.77714596973225614 -0.62932038083071107 0.5 0 0 1 I I -0.70710678118654746 0.70710678118654746 0.5 forward I I I I #
loop $-1 $-1 $170 $43 #
coedge $-1 $107 $107 $171 $172 reversed $67 $-1 #
face $-1 $-1 $173 $35 $-1 $174 forward single #
loop $-1 $175 $176 $69 #
cone-surface $-1 11.563729807494695 -17.814724407505018 4.8738781924821897 0 0.77714596973225614 -0.62932038083071107 0.5 0 0 1 I I -0.70710678118654746 0.70710678118654746 0.5 forward I I I I #
loop $-1 $-1 $177 $44 #
coedge $-1 $112 $112 $178 $179 reversed $70 $-1 #
face $-1 $180 $181 $27 $-1 $182 reversed single #
loop $-1 $-1 $183 $72 #
plane-surface $-1 0 -22.286454877648879 0 0 1 0 0 0 1 forward_v I I I I #
coedge $-1 $184 $185 $186 $187 forward $73 $-1 #
coedge $-1 $188 $75 $189 $190 forward $46 $-1 #
coedge $-1 $75 $188 $191 $192 forward $46 $-1 #
coedge $-1 $193 $194 $75 $120 reversed $195 $-1 #
edge $-1 $196 -22.286454877648879 $197 22.286454877648879 $119 $198 forward 7 unknown #
face $-1 $199 $200 $28 $-1 $201 reversed single #
loop $-1 $-1 $127 $76 #
plane-surface $-1 -55.103160975716207 0 6.3974360811427058 0 0 1 1 0 0 forward_v I I I I #
coedge $-1 $202 $203 $126 $204 forward $77 $-1 #
coedge $-1 $205 $79 $206 $207 reversed $49 $-1 #
coedge $-1 $79 $205 $124 $204 reversed $49 $-1 #
coedge $-1 $208 $209 $79 $128 reversed $122 $-1 #
edge $-1 $210 -22.286454877648879 $211 22.286454877648879 $127 $212 forward 7 unknown #
face $-1 $213 $214 $29 $-1 $215 forward single #
loop $-1 $-1 $216 $80 #
plane-surface $-1 2.5039680549739067 47.016279685823562 112.93404632917081 -1 0 0 0 0.6018150307709319 0.79863550430605224 forward_v I I I I #
coedge $-1 $217 $218 $219 $220 reversed $81 $-1 #
coedge $-1 $134 $83 $221 $222 reversed $52 $-1 #
coedge $-1 $83 $133 $217 $223 reversed $52 $-1 #
coedge $-1 $219 $224 $83 $136 forward $214 $-1 #
edge $-1 $225 1.2216849652629023 $226 6.1836442988605036 $135 $227 forward 7 unknown #
loop $-1 $-1 $142 $84 #
plane-surface $-1 -8.7793744836590975 -13.3110533831615 32.876972966829697 0 0.6018150307709319 0.79863550430605224 1 0 0 forward_v I I I I #
loop $-1 $-1 $228 $54 #
coedge $-1 $140 $140 $141 $229 reversed $85 $-1 #
coedge $-1 $141 $141 $140 $229 forward $87 $-1 #
coedge $-1 $142 $142 $88 $143 forward $137 $-1 #
edge $-1 $230 0 $230 6.2831853071796004 $142 $231 forward 7 unknown #
loop $-1 $-1 $149 $89 #
plane-surface $-1 -8.7793744836590975 -13.3110533831615 32.876972966829697 0 0.6018150307709319 0.79863550430605224 1 0 0 forward_v I I I I #
loop $-1 $-1 $232 $57 #
coedge $-1 $147 $147 $148 $233 reversed $90 $-1 #
coedge $-1 $148 $148 $147 $233 forward $92 $-1 #
coedge $-1 $149 $149 $93 $150 forward $144 $-1 #
edge $-1 $234 0 $234 6.2831853071796004 $149 $235 forward 7 unknown #
face $-1 $236 $237 $32 $-1 $238 reversed single #
loop $-1 $-1 $239 $94 #
plane-surface $-1 0.80824828122368331 -100.18936750380807 65.34412889219044 1 0 0 0 0.77714596973225614 -0.62932038083071107 forward_v I I I I #
coedge $-1 $240 $241 $242 $243 reversed $95 $-1 #
coedge $-1 $156 $97 $244 $245 reversed $61 $-1 #
coedge $-1 $97 $155 $240 $246 reversed $61 $-1 #
coedge $-1 $242 $247 $97 $158 forward $248 $-1 #
edge $-1 $249 27.808228874255157 $250 33.907388217810151 $157 $251 forward 7 unknown #
loop $-1 $-1 $164 $98 #
plane-surface $-1 7.5304242351430659 -22.286454877648893 2.2595958042731255 0 -0.77714596973225614 0.62932038083071107 1 0 0 forward_v I I I I #
loop $-1 $-1 $252 $63 #
coedge $-1 $162 $162 $163 $253 reversed $99 $-1 #
coedge $-1 $163 $163 $162 $253 forward $101 $-1 #
coedge $-1 $164 $164 $102 $165 forward $159 $-1 #
edge $-1 $254 3.3012457501171635e-016 $254 6.2831853071796004 $164 $255 forward 7 unknown #
loop $-1 $-1 $171 $103 #
plane-surface $-1 7.5304242351430659 -22.286454877648893 2.2595958042731255 0 -0.77714596973225614 0.62932038083071107 1 0 0 forward_v I I I I #
loop $-1 $-1 $256 $66 #
coedge $-1 $169 $169 $170 $257 reversed $104 $-1 #
coedge $-1 $170 $170 $169 $257 forward $106 $-1 #
coedge $-1 $171 $171 $107 $172 forward $166 $-1 #
edge $-1 $258 3.3012457501171635e-016 $258 6.2831853071796004 $171 $259 forward 7 unknown #
loop $-1 $-1 $178 $108 #
plane-surface $-1 7.5304242351430659 -22.286454877648893 2.2595958042731255 0 -0.77714596973225614 0.62932038083071107 1 0 0 forward_v I I I I #
loop $-1 $-1 $260 $69 #
coedge $-1 $176 $176 $177 $261 reversed $109 $-1 #
coedge $-1 $177 $177 $176 $261 forward $111 $-1 #
coedge $-1 $178 $178 $112 $179 forward $173 $-1 #
edge $-1 $262 3.3012457501171635e-016 $262 6.2831853071796004 $178 $263 forward 7 unknown #
face $-1 $264 $265 $27 $-1 $266 reversed single #
loop $-1 $-1 $267 $113 #
plane-surface $-1 -50.121158482619705 0 0 1 0 0 0 0 -1 forward_v I I I I #
coedge $-1 $268 $191 $267 $269 forward $114 $-1 #
coedge $-1 $270 $116 $268 $271 forward $73 $-1 #
coedge $-1 $116 $270 $272 $273 forward $73 $-1 #
coedge $-1 $194 $193 $116 $187 reversed $195 $-1 #
edge $-1 $274 -22.286454877648879 $275 22.286454877648879 $186 $276 forward 7 unknown #
coedge $-1 $118 $117 $277 $278 forward $46 $-1 #
coedge $-1 $279 $280 $117 $190 reversed $265 $-1 #
edge $-1 $197 -50.121158482619705 $281 50.121158482619705 $189 $282 forward 7 unknown #
coedge $-1 $183 $283 $118 $192 reversed $114 $-1 #
edge $-1 $284 -50.121158482619705 $196 50.121158482619705 $191 $285 forward 7 unknown #
coedge $-1 $186 $119 $283 $286 forward $195 $-1 #
coedge $-1 $119 $186 $279 $287 reversed $195 $-1 #
loop $-1 $-1 $193 $264 #
vertex $-1 $120 $288 #
vertex $-1 $120 $289 #
straight-curve $-1 50.121158482619705 0 9.7914305373892407 0 1 0 I I #
face $-1 $290 $291 $28 $-1 $292 reversed single #
loop $-1 $-1 $293 $121 #
plane-surface $-1 -55.103160975716207 0 1.9350394996110278 0 0 1 1 0 0 forward_v I I I I #
coedge $-1 $294 $124 $295 $296 reversed $77 $-1 #
coedge $-1 $124 $294 $208 $297 reversed $77 $-1 #
edge $-1 $210 -6.3974360811427058 $298 -1.9350394996110278 $124 $299 forward 7 unknown #
coedge $-1 $126 $125 $293 $300 forward $49 $-1 #
coedge $-1 $301 $302 $125 $207 forward $303 $-1 #
edge $-1 $304 1.9350394996110278 $211 6.3974360811427058 $206 $305 forward 7 unknown #
coedge $-1 $306 $127 $203 $297 forward $122 $-1 #
coedge $-1 $127 $306 $301 $307 forward $122 $-1 #
vertex $-1 $204 $308 #
vertex $-1 $307 $309 #
straight-curve $-1 -50.121158482619705 0 6.3974360811427058 0 -1 0 I I #
face $-1 $-1 $310 $29 $-1 $311 reversed single #
loop $-1 $-1 $135 $129 #
plane-surface $-1 0 0 9.7914305373892407 0 0 1 1 0 0 forward_v I I I I #
coedge $-1 $312 $313 $314 $315 reversed $130 $-1 #
coedge $-1 $316 $132 $134 $223 forward $81 $-1 #
coedge $-1 $132 $316 $312 $317 forward $81 $-1 #
coedge $-1 $314 $135 $132 $220 forward $214 $-1 #
edge $-1 $226 -15.673029780462553 $318 6.8936552968034555 $219 $319 forward 7 unknown #
coedge $-1 $320 $321 $133 $222 forward $310 $-1 #
edge $-1 $322 -50.4146972536902 $225 -46.675592627196167 $221 $323 forward 7 unknown #
edge $-1 $226 38.359863494714673 $322 44.572909755297758 $134 $324 forward 7 unknown #
coedge $-1 $135 $314 $320 $325 forward $214 $-1 #
vertex $-1 $222 $326 #
vertex $-1 $136 $327 #
straight-curve $-1 -20.062717022292102 23.508139842911781 9.791430537389239 0 -1 0 I I #
coedge $-1 $228 $228 $-1 $328 reversed $139 $-1 #
edge $-1 $329 0 $329 6.2831853071796004 $140 $330 forward 7 unknown #
vertex $-1 $143 $331 #
ellipse-curve $-1 -13.615092714501806 19.805475210850076 7.9218782241422243 0 0.6018150307709319 0.79863550430605224 1 0 0 1 I I #
coedge $-1 $232 $232 $-1 $332 reversed $146 $-1 #
edge $-1 $333 0 $333 6.2831853071796004 $147 $334 forward 7 unknown #
vertex $-1 $150 $335 #
ellipse-curve $-1 -3.9436562528163677 19.805475210850076 7.9218782241422243 0 0.6018150307709319 0.79863550430605224 1 0 0 1 I I #
face $-1 $-1 $248 $32 $-1 $336 forward single #
loop $-1 $-1 $337 $151 #
plane-surface $-1 0 -22.286454877648879 0 0 1 0 0 0 1 forward_v I I I I #
coedge $-1 $338 $339 $340 $341 reversed $152 $-1 #
coedge $-1 $342 $154 $156 $246 forward $95 $-1 #
coedge $-1 $154 $342 $338 $343 forward $95 $-1 #
coedge $-1 $340 $157 $154 $243 forward $248 $-1 #
edge $-1 $250 -10.487388071490916 $344 2.9569638363478497 $242 $345 forward 7 unknown #
coedge $-1 $346 $347 $155 $245 forward $237 $-1 #
edge $-1 $348 -30.412468641822077 $249 -22.880633908705981 $244 $349 forward 7 unknown #
edge $-1 $250 -9.6916602883638419 $348 -2.2748066086763162e-014 $156 $350 forward 7 unknown #
coedge $-1 $157 $340 $346 $351 forward $248 $-1 #
loop $-1 $-1 $340 $236 #
vertex $-1 $245 $352 #
vertex $-1 $158 $353 #
straight-curve $-1 14.252600189062449 -50.094683751904036 9.791430537389239 0 1 0 I I #
coedge $-1 $252 $252 $-1 $354 reversed $161 $-1 #
edge $-1 $355 0 $355 6.2831853071796004 $162 $356 forward 7 unknown #
vertex $-1 $165 $357 #
ellipse-curve $-1 3.4971186627914363 -19.236875205871382 6.0255131708311902 0 -0.77714596973225614 0.62932038083071107 1 0 0 1 I I #
coedge $-1 $256 $256 $-1 $358 reversed $168 $-1 #
edge $-1 $359 0 $359 6.2831853071796004 $169 $360 forward 7 unknown #
vertex $-1 $172 $361 #
ellipse-curve $-1 7.5304242351430659 -19.236875205871382 6.0255131708311902 0 -0.77714596973225614 0.62932038083071107 1 0 0 1 I I #
coedge $-1 $260 $260 $-1 $362 reversed $175 $-1 #
edge $-1 $363 0 $363 6.2831853071796004 $176 $364 forward 7 unknown #
vertex $-1 $179 $365 #
ellipse-curve $-1 11.563729807494695 -19.236875205871382 6.0255131708311902 0 -0.77714596973225614 0.62932038083071107 1 0 0 1 I I #
face $-1 $-1 $195 $27 $-1 $366 reversed single #
loop $-1 $-1 $279 $180 #
plane-surface $-1 0 22.286454877648879 0 0 -1 0 0 0 -1 forward_v I I I I #
coedge $-1 $277 $367 $183 $269 reversed $181 $-1 #
coedge $-1 $283 $183 $184 $271 reversed $114 $-1 #
edge $-1 $284 -9.7914305373892407 $368 9.7914305373892407 $267 $369 forward 7 unknown #
coedge $-1 $185 $184 $367 $370 forward $73 $-1 #
edge $-1 $275 -50.121158482619705 $368 50.121158482619705 $268 $371 forward 7 unknown #
coedge $-1 $280 $279 $185 $273 reversed $265 $-1 #
edge $-1 $372 -50.121158482619705 $274 50.121158482619705 $272 $373 forward 7 unknown #
vertex $-1 $187 $374 #
vertex $-1 $286 $375 #
straight-curve $-1 50.121158482619705 0 -9.7914305373892407 0 -1 0 I I #
coedge $-1 $376 $267 $188 $278 reversed $181 $-1 #
edge $-1 $281 -22.286454877648879 $284 22.286454877648879 $277 $377 forward 7 unknown #
coedge $-1 $272 $189 $194 $287 forward $265 $-1 #
coedge $-1 $189 $272 $376 $378 reversed $265 $-1 #
vertex $-1 $190 $379 #
straight-curve $-1 0 22.286454877648879 9.7914305373892407 -1 0 0 I I #
coedge $-1 $191 $268 $193 $286 reversed $114 $-1 #
vertex $-1 $278 $380 #
straight-curve $-1 0 -22.286454877648879 9.7914305373892407 1 0 0 I I #
edge $-1 $196 -9.7914305373892407 $275 9.7914305373892407 $193 $381 forward 7 unknown #
edge $-1 $197 -9.7914305373892407 $274 9.7914305373892407 $194 $382 forward 7 unknown #
point $-1 50.121158482619705 -22.286454877648879 9.7914305373892407 #
point $-1 50.121158482619705 22.286454877648879 9.7914305373892407 #
face $-1 $-1 $303 $28 $-1 $383 reversed single #
loop $-1 $-1 $384 $199 #
plane-surface $-1 -60.085163468812709 0 4.1662377903768668 1 0 0 0 0 -1 forward_v I I I I #
coedge $-1 $385 $295 $205 $300 reversed $200 $-1 #
coedge $-1 $203 $202 $384 $386 reversed $77 $-1 #
coedge $-1 $293 $387 $202 $296 forward $200 $-1 #
edge $-1 $388 -4.9820024930965019 $298 4.9820024930965019 $202 $389 forward 7 unknown #
edge $-1 $210 -4.9820024930965019 $390 4.9820024930965019 $203 $391 forward 7 unknown #
vertex $-1 $204 $392 #
straight-curve $-1 -50.121158482619705 22.286454877648879 0 0 0 -1 I I #
edge $-1 $304 -22.286454877648879 $298 22.286454877648879 $293 $393 forward 7 unknown #
coedge $-1 $394 $206 $209 $307 reversed $303 $-1 #
coedge $-1 $206 $394 $385 $395 reversed $303 $-1 #
loop $-1 $-1 $206 $290 #
vertex $-1 $207 $396 #
straight-curve $-1 -50.121158482619705 -22.286454877648879 0 0 0 1 I I #
coedge $-1 $209 $208 $397 $398 forward $122 $-1 #
edge $-1 $399 -4.9820024930965019 $211 4.9820024930965019 $301 $400 forward 7 unknown #
point $-1 -50.121158482619705 22.286454877648879 6.3974360811427058 #
point $-1 -50.121158482619705 -22.286454877648879 6.3974360811427058 #
loop $-1 $-1 $221 $213 #
plane-surface $-1 0 22.286454877648879 0 0 -1 0 0 0 -1 forward_v I I I I #
coedge $-1 $313 $216 $218 $317 reversed $130 $-1 #
coedge $-1 $216 $312 $401 $402 reversed $130 $-1 #
coedge $-1 $224 $219 $216 $315 forward $214 $-1 #
edge $-1 $318 -6.1836442988605036 $403 -1.2216849652629023 $314 $404 forward 7 unknown #
coedge $-1 $218 $217 $321 $405 reversed $81 $-1 #
edge $-1 $406 -44.572909755297758 $318 -38.359863494714673 $312 $407 forward 7 unknown #
vertex $-1 $220 $408 #
straight-curve $-1 -4.3896872418295487 17.324495544051278 9.7914305373892425 1 0 0 I I #
coedge $-1 $401 $221 $224 $325 reversed $310 $-1 #
coedge $-1 $221 $401 $316 $405 forward $310 $-1 #
vertex $-1 $222 $409 #
straight-curve $-1 -20.062717022292102 22.286454877648879 56.467023164585406 0 0 1 I I #
straight-curve $-1 -20.062717022292102 -13.3110533831615 32.876972966829697 0 0.79863550430605224 -0.6018150307709319 I I #
edge $-1 $403 -2.5039680549739067 $225 20.062717022292102 $320 $410 forward 7 unknown #
point $-1 -20.062717022292102 22.286454877648879 9.7914305373892407 #
point $-1 -20.062717022292102 17.324495544051278 9.791430537389239 #
edge $-1 $411 1 $411 0 $228 $-1 forward 7 unknown #
vertex $-1 $229 $412 #
ellipse-curve $-1 -13.615092714501806 17.74572759111474 5.1885008657813465 0 0.6018150307709319 0.79863550430605224 1 0 0 1 I I #
point $-1 -12.615092714501806 19.805475210850076 7.9218782241422243 #
edge $-1 $413 1 $413 0 $232 $-1 forward 7 unknown #
vertex $-1 $233 $414 #
ellipse-curve $-1 -3.9436562528163677 17.74572759111474 5.1885008657813465 0 0.6018150307709319 0.79863550430605224 1 0 0 1 I I #
point $-1 -2.9436562528163677 19.805475210850076 7.9218782241422243 #
plane-surface $-1 0 0 9.7914305373892407 0 0 1 1 0 0 forward_v I I I I #
coedge $-1 $347 $346 $339 $415 forward $237 $-1 #
coedge $-1 $339 $239 $241 $343 reversed $152 $-1 #
coedge $-1 $239 $338 $337 $415 reversed $152 $-1 #
coedge $-1 $247 $242 $239 $341 forward $248 $-1 #
edge $-1 $344 -33.907388217810151 $416 -27.808228874255157 $340 $417 forward 7 unknown #
coedge $-1 $241 $240 $347 $418 reversed $95 $-1 #
edge $-1 $419 2.2748066086763162e-014 $344 9.6916602883638419 $338 $420 forward 7 unknown #
vertex $-1 $243 $421 #
straight-curve $-1 3.765212117571533 -16.187295534093884 9.7914305373892407 -1 0 0 I I #
coedge $-1 $337 $244 $247 $351 reversed $237 $-1 #
coedge $-1 $244 $337 $342 $418 forward $237 $-1 #
vertex $-1 $245 $422 #
straight-curve $-1 14.252600189062449 -22.286454877648879 32.67206444609522 0 0 1 I I #
straight-curve $-1 14.252600189062449 -22.286454877648893 2.2595958042731255 0 -0.62932038083071107 -0.77714596973225614 I I #
edge $-1 $416 0.80824828122368331 $249 14.252600189062449 $346 $423 forward 7 unknown #
point $-1 14.252600189062449 -22.286454877648879 9.7914305373892407 #
point $-1 14.252600189062449 -16.187295534093881 9.7914305373892407 #
edge $-1 $424 1 $424 0 $252 $-1 forward 7 unknown #
vertex $-1 $253 $425 #
ellipse-curve $-1 3.4971186627914363 -18.203297392371145 5.1885383828975451 0 -0.77714596973225614 0.62932038083071107 1 0 0 1 I I #
point $-1 4.4971186627914363 -19.236875205871375 6.0255131708311849 #
edge $-1 $426 1 $426 0 $256 $-1 forward 7 unknown #
vertex $-1 $257 $427 #
ellipse-curve $-1 7.5304242351430659 -18.203297392371145 5.1885383828975451 0 -0.77714596973225614 0.62932038083071107 1 0 0 1 I I #
point $-1 8.5304242351430659 -19.236875205871375 6.0255131708311849 #
edge $-1 $428 1 $428 0 $260 $-1 forward 7 unknown #
vertex $-1 $261 $429 #
ellipse-curve $-1 11.563729807494695 -18.203297392371145 5.1885383828975451 0 -0.77714596973225614 0.62932038083071107 1 0 0 1 I I #
point $-1 12.563729807494695 -19.236875205871375 6.0255131708311849 #
plane-surface $-1 50.121158482619705 0 0 -1 0 0 0 0 1 forward_v I I I I #
coedge $-1 $267 $376 $270 $370 reversed $181 $-1 #
vertex $-1 $370 $430 #
straight-curve $-1 -50.121158482619705 -22.286454877648879 0 0 0 -1 I I #
edge $-1 $368 -22.286454877648879 $372 22.286454877648879 $367 $431 forward 7 unknown #
straight-curve $-1 0 -22.286454877648879 -9.7914305373892407 -1 0 0 I I #
vertex $-1 $273 $432 #
straight-curve $-1 0 22.286454877648879 -9.7914305373892407 1 0 0 I I #
point $-1 50.121158482619705 22.286454877648879 -9.7914305373892407 #
point $-1 50.121158482619705 -22.286454877648879 -9.7914305373892407 #
coedge $-1 $367 $277 $280 $378 forward $181 $-1 #
straight-curve $-1 -50.121158482619705 0 9.7914305373892407 0 -1 0 I I #
edge $-1 $281 -9.7914305373892407 $372 9.7914305373892407 $280 $433 forward 7 unknown #
point $-1 -50.121158482619705 22.286454877648879 9.7914305373892407 #
point $-1 -50.121158482619705 -22.286454877648879 9.7914305373892407 #
straight-curve $-1 50.121158482619705 -22.286454877648879 0 0 0 -1 I I #
straight-curve $-1 50.121158482619705 22.286454877648879 0 0 0 -1 I I #
plane-surface $-1 0 -22.286454877648879 0 0 1 0 0 0 1 forward_v I I I I #
coedge $-1 $434 $397 $294 $386 forward $291 $-1 #
coedge $-1 $387 $293 $302 $395 forward $200 $-1 #
edge $-1 $390 -2.231198290765839 $388 2.231198290765839 $294 $435 forward 7 unknown #
coedge $-1 $295 $385 $434 $436 forward $200 $-1 #
vertex $-1 $296 $437 #
straight-curve $-1 -55.103160975716207 22.286454877648879 1.9350394996110278 1 0 0 I I #
vertex $-1 $297 $438 #
straight-curve $-1 -55.103160975716207 22.286454877648879 6.3974360811427058 -1 0 0 I I #
point $-1 -50.121158482619705 22.286454877648879 1.9350394996110278 #
straight-curve $-1 -50.121158482619705 0 1.9350394996110278 0 1 0 I I #
coedge $-1 $302 $301 $439 $440 forward $303 $-1 #
edge $-1 $304 -4.9820024930965019 $441 4.9820024930965019 $302 $442 forward 7 unknown #
point $-1 -50.121158482619705 -22.286454877648879 1.9350394996110278 #
coedge $-1 $384 $439 $306 $398 reversed $291 $-1 #
edge $-1 $390 -22.286454877648879 $399 22.286454877648879 $397 $443 forward 7 unknown #
vertex $-1 $398 $444 #
straight-curve $-1 -55.103160975716207 -22.286454877648879 6.3974360811427058 1 0 0 I I #
coedge $-1 $321 $320 $313 $402 forward $310 $-1 #
edge $-1 $403 46.675592627196167 $406 50.4146972536902 $401 $445 forward 7 unknown #
vertex $-1 $325 $446 #
straight-curve $-1 2.5039680549739067 23.508139842911781 9.791430537389239 0 1 0 I I #
edge $-1 $406 -6.8936552968034555 $322 15.673029780462553 $321 $447 forward 7 unknown #
vertex $-1 $405 $448 #
straight-curve $-1 2.5039680549739067 -13.3110533831615 32.876972966829697 0 -0.79863550430605224 0.6018150307709319 I I #
point $-1 2.5039680549739067 17.324495544051278 9.791430537389239 #
point $-1 -20.062717022292102 22.286454877648879 6.0523259108952061 #
straight-curve $-1 0 22.286454877648879 9.7914305373892407 -1 0 0 I I #
vertex $-1 $328 $449 #
point $-1 -12.615092714501806 17.74572759111474 5.1885008657813465 #
vertex $-1 $332 $450 #
point $-1 -2.9436562528163677 17.74572759111474 5.1885008657813465 #
edge $-1 $416 22.880633908705981 $419 30.412468641822077 $337 $451 forward 7 unknown #
vertex $-1 $351 $452 #
straight-curve $-1 0.80824828122368331 -50.094683751904036 9.791430537389239 0 -1 0 I I #
edge $-1 $419 -2.9569638363478497 $348 10.487388071490916 $347 $453 forward 7 unknown #
vertex $-1 $418 $454 #
straight-curve $-1 0.80824828122368331 -22.286454877648893 2.2595958042731255 0 0.62932038083071107 0.77714596973225614 I I #
point $-1 0.80824828122368331 -16.187295534093881 9.7914305373892407 #
point $-1 14.252600189062449 -22.286454877648879 2.2595958042731432 #
straight-curve $-1 0 -22.286454877648879 9.7914305373892407 1 0 0 I I #
vertex $-1 $354 $455 #
point $-1 4.4971186627914363 -18.203297392371145 5.1885383828975451 #
vertex $-1 $358 $456 #
point $-1 8.5304242351430659 -18.203297392371145 5.1885383828975451 #
vertex $-1 $362 $457 #
point $-1 12.563729807494695 -18.203297392371145 5.1885383828975451 #
point $-1 -50.121158482619705 -22.286454877648879 -9.7914305373892407 #
straight-curve $-1 -50.121158482619705 0 -9.7914305373892407 0 1 0 I I #
point $-1 -50.121158482619705 22.286454877648879 -9.7914305373892407 #
straight-curve $-1 -50.121158482619705 22.286454877648879 0 0 0 -1 I I #
coedge $-1 $439 $384 $387 $436 reversed $291 $-1 #
straight-curve $-1 -60.085163468812709 22.286454877648879 4.1662377903768668 0 0 -1 I I #
edge $-1 $441 -22.286454877648879 $388 22.286454877648879 $434 $458 forward 7 unknown #
point $-1 -60.085163468812709 22.286454877648879 1.9350394996110278 #
point $-1 -60.085163468812709 22.286454877648879 6.3974360811427058 #
coedge $-1 $397 $434 $394 $440 reversed $291 $-1 #
edge $-1 $399 -2.231198290765839 $441 2.231198290765839 $439 $459 forward 7 unknown #
vertex $-1 $436 $460 #
straight-curve $-1 -55.103160975716207 -22.286454877648879 1.9350394996110278 -1 0 0 I I #
straight-curve $-1 -60.085163468812709 0 6.3974360811427058 0 -1 0 I I #
point $-1 -60.085163468812709 -22.286454877648879 6.3974360811427058 #
straight-curve $-1 2.5039680549739067 22.286454877648879 56.467023164585406 0 0 -1 I I #
point $-1 2.5039680549739067 22.286454877648879 9.7914305373892407 #
straight-curve $-1 -4.3896872418295487 22.286454877648879 6.0523259108952043 -1 0 0 I I #
point $-1 2.5039680549739067 22.286454877648879 6.0523259108952061 #
point $-1 -13.615092714501806 17.143912560343811 4.3898653614752945 #
point $-1 -3.9436562528163677 17.143912560343811 4.3898653614752945 #
straight-curve $-1 0.80824828122368331 -22.286454877648879 32.67206444609522 0 0 -1 I I #
point $-1 0.80824828122368331 -22.286454877648879 9.7914305373892407 #
straight-curve $-1 3.765212117571533 -22.286454877648879 2.2595958042731437 1 0 0 I I #
point $-1 0.80824828122368331 -22.286454877648879 2.2595958042731432 #
point $-1 3.4971186627914363 -17.426151422638892 4.5592180020668343 #
point $-1 7.5304242351430659 -17.426151422638892 4.5592180020668343 #
point $-1 11.563729807494695 -17.426151422638892 4.5592180020668343 #
straight-curve $-1 -60.085163468812709 0 1.9350394996110278 0 1 0 I I #
straight-curve $-1 -60.085163468812709 -22.286454877648879 4.1662377903768668 0 0 -1 I I #
point $-1 -60.085163468812709 -22.286454877648879 1.9350394996110278 #
End-of-ACIS-data 