500 0 6 0           
7 Unknown 11 ACIS 5.0 NT 24 Fri Mar 26 20:30:26 1999 
-1 9.9999999999999995e-007 1e-010 
body $-1 $6 $-1 $7 #
body $-1 $8 $-1 $9 #
body $-1 $10 $-1 $11 #
body $-1 $12 $-1 $13 #
body $-1 $14 $-1 $15 #
body $-1 $16 $-1 $17 #
lump $-1 $-1 $18 $0 #
transform $-1 1 0 0 0 1 0 0 0 1 73.874324777977847 41.893981458688991 20.021454269554312 1 rotate no_reflect no_shear #
lump $-1 $-1 $19 $1 #
transform $-1 1 0 0 0 1 0 0 0 1 73.874324777977847 41.893981458688991 20.021454269554312 1 rotate no_reflect no_shear #
lump $-1 $-1 $20 $2 #
transform $-1 1 0 0 0 1 0 0 0 1 73.874324777977847 41.893981458688991 20.021454269554312 1 rotate no_reflect no_shear #
lump $-1 $-1 $21 $3 #
transform $-1 1 0 0 0 1 0 0 0 1 73.874324777977847 41.893981458688991 20.021454269554312 1 rotate no_reflect no_shear #
lump $-1 $-1 $22 $4 #
transform $-1 1 0 0 0 1 0 0 0 1 73.874324777977847 41.893981458688991 20.021454269554312 1 rotate no_reflect no_shear #
lump $-1 $-1 $23 $5 #
transform $-1 1 0 0 0 1 0 0 0 1 73.874324777977847 41.893981458688991 20.021454269554312 1 rotate no_reflect no_shear #
shell $-1 $-1 $-1 $24 $-1 $6 #
shell $-1 $-1 $-1 $25 $-1 $8 #
shell $-1 $-1 $-1 $26 $-1 $10 #
shell $-1 $-1 $-1 $27 $-1 $12 #
shell $-1 $-1 $-1 $28 $-1 $14 #
shell $-1 $-1 $-1 $29 $-1 $16 #
face $-1 $30 $31 $18 $-1 $32 forward single #
face $-1 $33 $34 $19 $-1 $35 reversed single #
face $-1 $36 $37 $20 $-1 $38 reversed single #
face $-1 $39 $40 $21 $-1 $41 forward single #
face $-1 $42 $43 $22 $-1 $44 reversed single #
face $-1 $45 $46 $23 $-1 $47 forward single #
face $-1 $48 $49 $18 $-1 $50 reversed single #
loop $-1 $-1 $51 $24 #
plane-surface $-1 0 0 20.021454269554312 0 0 1 1 0 0 forward_v I I I I #
face $-1 $52 $53 $19 $-1 $54 reversed single #
loop $-1 $-1 $55 $25 #
plane-surface $-1 -67.353106655704792 -34.209548482517967 0 1 0 0 0 0 -1 forward_v I I I I #
face $-1 $56 $57 $20 $-1 $58 reversed single #
loop $-1 $-1 $59 $26 #
plane-surface $-1 -73.874324777977861 -21.039289141364169 8.957730565025642 -0.54463904215088732 0 0.83867056331134215 0.83867056331134215 0 0.54463904215088732 forward_v I I I I #
face $-1 $60 $61 $21 $-1 $62 forward single #
loop $-1 $63 $64 $27 #
cone-surface $-1 -63.993991541017181 -21.039289141364169 12.39227613462327 0.54463904215088732 0 -0.83867056331134215 2.0966764082783556 0 1.3615976053772183 1 I I 0 1 2.5 forward I I I I #
face $-1 $65 $66 $22 $-1 $67 reversed single #
loop $-1 $-1 $68 $28 #
plane-surface $-1 30.431564599637241 -15.553462776381391 213.3398566898519 0 -1 0 -0.54463904215088732 0 -0.83867056331134215 forward_v I I I I #
face $-1 $69 $70 $23 $-1 $71 forward single #
loop $-1 $72 $73 $29 #
cone-surface $-1 63.993991541017166 -21.039289141364169 12.392276134623259 -0.54463904215088732 0 -0.83867056331134215 2.0966764082783556 0 -1.3615976053772183 1 I I 0 1 2.5 forward I I I I #
face $-1 $74 $75 $18 $-1 $76 reversed single #
loop $-1 $-1 $77 $30 #
plane-surface $-1 0 0 -20.021454269554312 0 0 1 1 0 0 forward_v I I I I #
coedge $-1 $78 $79 $80 $81 forward $31 $-1 #
face $-1 $82 $83 $19 $-1 $84 reversed single #
loop $-1 $-1 $85 $33 #
plane-surface $-1 -63.738344202222436 -26.525115506346943 0 0 -1 0 0 0 -1 forward_v I I I I #
coedge $-1 $86 $87 $88 $89 forward $34 $-1 #
face $-1 $90 $91 $20 $-1 $92 forward single #
loop $-1 $-1 $93 $36 #
plane-surface $-1 -154.34400775122069 -15.553462776381391 132.87017371660909 0 -1 0 0.54463904215088732 0 -0.83867056331134215 forward_v I I I I #
coedge $-1 $94 $95 $96 $97 reversed $37 $-1 #
face $-1 $-1 $98 $21 $-1 $99 forward single #
loop $-1 $100 $101 $39 #
cone-surface $-1 -61.95117959365713 -21.039289141364169 9.2466216478173955 0.54463904215088732 0 -0.83867056331134215 1.0483382041391778 0 0.68079880268860915 1 I I -0.70710678118654746 0.70710678118654746 1.25 forward I I I I #
loop $-1 $-1 $102 $27 #
coedge $-1 $64 $64 $103 $104 reversed $40 $-1 #
face $-1 $105 $106 $22 $-1 $107 reversed single #
loop $-1 $-1 $108 $42 #
plane-surface $-1 -50.038118373605585 -21.039289141364169 89.427413538268453 0.54463904215088732 0 0.83867056331134215 0.83867056331134215 0 -0.54463904215088732 forward_v I I I I #
coedge $-1 $109 $110 $111 $112 reversed $43 $-1 #
face $-1 $-1 $113 $23 $-1 $114 forward single #
loop $-1 $115 $116 $45 #
cone-surface $-1 61.951179593657116 -21.039289141364169 9.2466216478173848 -0.54463904215088732 0 -0.83867056331134215 1.0483382041391778 0 -0.68079880268860915 1 I I -0.70710678118654746 0.70710678118654746 1.25 forward I I I I #
loop $-1 $-1 $117 $29 #
coedge $-1 $73 $73 $118 $119 reversed $46 $-1 #
face $-1 $120 $121 $18 $-1 $122 reversed single #
loop $-1 $-1 $123 $48 #
plane-surface $-1 0 -41.893981458688991 0 0 1 0 0 0 1 forward_v I I I I #
coedge $-1 $124 $125 $126 $127 forward $49 $-1 #
coedge $-1 $128 $51 $129 $130 forward $31 $-1 #
coedge $-1 $51 $128 $131 $132 forward $31 $-1 #
coedge $-1 $133 $134 $51 $81 reversed $135 $-1 #
edge $-1 $136 -41.893981458688991 $137 41.893981458688991 $80 $138 forward 7 unknown #
face $-1 $139 $140 $19 $-1 $141 forward single #
loop $-1 $-1 $142 $52 #
plane-surface $-1 -60.123581748740079 -34.209548482517967 0 -1 0 0 0 0 1 forward_v I I I I #
coedge $-1 $143 $144 $145 $146 forward $53 $-1 #
coedge $-1 $147 $55 $148 $149 reversed $34 $-1 #
coedge $-1 $55 $147 $150 $151 reversed $34 $-1 #
coedge $-1 $144 $143 $55 $89 reversed $53 $-1 #
edge $-1 $152 -20.021454269554312 $153 20.021454269554312 $88 $154 forward 7 unknown #
face $-1 $155 $156 $20 $-1 $157 forward single #
loop $-1 $-1 $158 $56 #
plane-surface $-1 -63.738344202222436 -26.525115506346943 0 0 -1 0 0 0 -1 forward_v I I I I #
coedge $-1 $159 $160 $161 $162 reversed $57 $-1 #
coedge $-1 $163 $59 $158 $164 reversed $37 $-1 #
coedge $-1 $59 $163 $159 $165 forward $37 $-1 #
coedge $-1 $161 $166 $59 $97 forward $156 $-1 #
edge $-1 $167 -16.00547093566486 $168 -5.0338182056993066 $96 $169 forward 7 unknown #
loop $-1 $-1 $103 $60 #
plane-surface $-1 -73.874324777977861 -21.039289141364169 8.957730565025642 -0.54463904215088732 0 0.83867056331134215 0.83867056331134215 0 0.54463904215088732 forward_v I I I I #
loop $-1 $-1 $170 $39 #
coedge $-1 $101 $101 $102 $171 reversed $61 $-1 #
coedge $-1 $102 $102 $101 $171 forward $63 $-1 #
coedge $-1 $103 $103 $64 $104 forward $98 $-1 #
edge $-1 $172 0 $172 6.2831853071796004 $103 $173 forward 7 unknown #
face $-1 $174 $175 $22 $-1 $176 forward single #
loop $-1 $-1 $177 $65 #
plane-surface $-1 30.431564599637241 -26.525115506346946 213.3398566898519 0 1 0 0.54463904215088732 0 0.83867056331134215 forward_v I I I I #
coedge $-1 $178 $179 $180 $181 reversed $66 $-1 #
coedge $-1 $110 $68 $182 $183 reversed $43 $-1 #
coedge $-1 $68 $109 $178 $184 reversed $43 $-1 #
coedge $-1 $180 $185 $68 $112 forward $175 $-1 #
edge $-1 $186 -58.658542478159227 $187 -41.621902293580781 $111 $188 forward 7 unknown #
loop $-1 $-1 $118 $69 #
plane-surface $-1 -50.038118373605585 -21.039289141364169 89.427413538268453 0.54463904215088732 0 0.83867056331134215 0.83867056331134215 0 -0.54463904215088732 forward_v I I I I #
loop $-1 $-1 $189 $45 #
coedge $-1 $116 $116 $117 $190 reversed $70 $-1 #
coedge $-1 $117 $117 $116 $190 forward $72 $-1 #
coedge $-1 $118 $118 $73 $119 forward $113 $-1 #
edge $-1 $191 0 $191 6.2831853071796004 $118 $192 forward 7 unknown #
face $-1 $193 $194 $18 $-1 $195 reversed single #
loop $-1 $-1 $196 $74 #
plane-surface $-1 -73.874324777977847 0 0 1 0 0 0 0 -1 forward_v I I I I #
coedge $-1 $197 $131 $198 $199 forward $75 $-1 #
coedge $-1 $200 $77 $197 $201 forward $49 $-1 #
coedge $-1 $77 $200 $202 $203 forward $49 $-1 #
coedge $-1 $134 $133 $77 $127 reversed $135 $-1 #
edge $-1 $204 -41.893981458688991 $205 41.893981458688991 $126 $206 forward 7 unknown #
coedge $-1 $79 $78 $207 $208 forward $31 $-1 #
coedge $-1 $209 $210 $78 $130 reversed $194 $-1 #
edge $-1 $137 -73.874324777977847 $211 73.874324777977847 $129 $212 forward 7 unknown #
coedge $-1 $123 $213 $79 $132 reversed $75 $-1 #
edge $-1 $214 -73.874324777977847 $136 73.874324777977847 $131 $215 forward 7 unknown #
coedge $-1 $126 $80 $213 $216 forward $135 $-1 #
coedge $-1 $80 $126 $209 $217 reversed $135 $-1 #
loop $-1 $-1 $133 $193 #
vertex $-1 $81 $218 #
vertex $-1 $81 $219 #
straight-curve $-1 73.874324777977847 0 20.021454269554312 0 1 0 I I #
face $-1 $220 $221 $19 $-1 $222 reversed single #
loop $-1 $-1 $223 $82 #
plane-surface $-1 0 0 20.021454269554312 0 0 1 1 0 0 forward_v I I I I #
coedge $-1 $224 $225 $226 $227 reversed $83 $-1 #
coedge $-1 $88 $85 $228 $229 reversed $53 $-1 #
coedge $-1 $85 $88 $230 $231 reversed $53 $-1 #
coedge $-1 $225 $224 $85 $146 reversed $83 $-1 #
edge $-1 $232 -20.021454269554312 $233 20.021454269554312 $145 $234 forward 7 unknown #
coedge $-1 $87 $86 $235 $236 reversed $34 $-1 #
coedge $-1 $228 $237 $86 $149 forward $221 $-1 #
edge $-1 $238 -24.789207217430008 $153 -9.4203412650879592 $148 $239 forward 7 unknown #
coedge $-1 $240 $230 $87 $151 forward $140 $-1 #
edge $-1 $152 9.4203412650879592 $241 24.789207217430008 $150 $242 forward 7 unknown #
vertex $-1 $151 $243 #
vertex $-1 $149 $244 #
straight-curve $-1 -67.353106655704792 -26.525115506346943 0 0 0 -1 I I #
face $-1 $-1 $245 $20 $-1 $246 reversed single #
loop $-1 $-1 $166 $90 #
plane-surface $-1 0 0 20.021454269554312 0 0 1 1 0 0 forward_v I I I I #
coedge $-1 $247 $248 $94 $164 forward $91 $-1 #
coedge $-1 $160 $93 $95 $165 reversed $57 $-1 #
coedge $-1 $93 $159 $249 $250 reversed $57 $-1 #
coedge $-1 $251 $96 $93 $162 forward $156 $-1 #
edge $-1 $168 -20.334319282210906 $252 -3.2976790976324963 $161 $253 forward 7 unknown #
coedge $-1 $95 $94 $254 $255 reversed $37 $-1 #
edge $-1 $256 -1.8110093722001506 $167 18.502855129389431 $158 $257 forward 7 unknown #
edge $-1 $258 1.6755591966779756e-014 $168 20.313864501589595 $159 $259 forward 7 unknown #
coedge $-1 $96 $251 $247 $260 forward $156 $-1 #
vertex $-1 $97 $261 #
vertex $-1 $97 $262 #
straight-curve $-1 -56.837684593399437 -10.519644570682084 20.021454269554312 0 1 0 I I #
coedge $-1 $170 $170 $-1 $263 reversed $100 $-1 #
edge $-1 $264 0 $264 6.2831853071796004 $101 $265 forward 7 unknown #
vertex $-1 $104 $266 #
ellipse-curve $-1 -65.356004685688632 -21.039289141364169 14.489592417289987 -0.54463904215088732 0 0.83867056331134215 2.0966764082783556 0 1.3615976053772183 1 I I #
face $-1 $-1 $267 $22 $-1 $268 reversed single #
loop $-1 $-1 $111 $105 #
plane-surface $-1 0 0 20.021454269554312 0 0 1 1 0 0 forward_v I I I I #
coedge $-1 $269 $270 $271 $272 reversed $106 $-1 #
coedge $-1 $273 $108 $110 $184 forward $66 $-1 #
coedge $-1 $108 $273 $269 $274 forward $66 $-1 #
coedge $-1 $271 $111 $108 $181 forward $175 $-1 #
edge $-1 $187 5.0338182056993066 $275 16.00547093566486 $180 $276 forward 7 unknown #
coedge $-1 $277 $278 $109 $183 forward $267 $-1 #
edge $-1 $279 -97.712197779900308 $186 -86.648474075371638 $182 $280 forward 7 unknown #
edge $-1 $187 127.43478505436606 $279 147.74864955595567 $110 $281 forward 7 unknown #
coedge $-1 $111 $271 $277 $282 forward $175 $-1 #
vertex $-1 $183 $283 #
vertex $-1 $112 $284 #
straight-curve $-1 15.215782299818621 -15.553462776381391 20.021454269554312 -1 0 0 I I #
coedge $-1 $189 $189 $-1 $285 reversed $115 $-1 #
edge $-1 $286 0 $286 6.2831853071796004 $116 $287 forward 7 unknown #
vertex $-1 $119 $288 #
ellipse-curve $-1 65.356004685688617 -21.039289141364169 14.48959241728998 0.54463904215088732 0 0.83867056331134215 2.0966764082783556 0 -1.3615976053772183 1 I I #
face $-1 $-1 $135 $18 $-1 $289 reversed single #
loop $-1 $-1 $209 $120 #
plane-surface $-1 0 41.893981458688991 0 0 -1 0 0 0 -1 forward_v I I I I #
coedge $-1 $290 $207 $210 $291 forward $121 $-1 #
coedge $-1 $213 $123 $124 $201 reversed $75 $-1 #
coedge $-1 $207 $290 $123 $199 reversed $121 $-1 #
edge $-1 $214 -20.021454269554312 $292 20.021454269554312 $198 $293 forward 7 unknown #
coedge $-1 $125 $124 $290 $294 forward $49 $-1 #
edge $-1 $205 -73.874324777977847 $292 73.874324777977847 $197 $295 forward 7 unknown #
coedge $-1 $210 $209 $125 $203 reversed $194 $-1 #
edge $-1 $296 -73.874324777977847 $204 73.874324777977847 $202 $297 forward 7 unknown #
vertex $-1 $127 $298 #
vertex $-1 $216 $299 #
straight-curve $-1 73.874324777977847 0 -20.021454269554312 0 -1 0 I I #
coedge $-1 $196 $198 $128 $208 reversed $121 $-1 #
edge $-1 $211 -41.893981458688991 $214 41.893981458688991 $207 $300 forward 7 unknown #
coedge $-1 $202 $129 $134 $217 forward $194 $-1 #
coedge $-1 $129 $202 $196 $291 reversed $194 $-1 #
vertex $-1 $130 $301 #
straight-curve $-1 0 41.893981458688991 20.021454269554312 -1 0 0 I I #
coedge $-1 $131 $197 $133 $216 reversed $75 $-1 #
vertex $-1 $208 $302 #
straight-curve $-1 0 -41.893981458688991 20.021454269554312 1 0 0 I I #
edge $-1 $136 -20.021454269554312 $205 20.021454269554312 $133 $303 forward 7 unknown #
edge $-1 $137 -20.021454269554312 $204 20.021454269554312 $134 $304 forward 7 unknown #
point $-1 73.874324777977847 -41.893981458688991 20.021454269554312 #
point $-1 73.874324777977847 41.893981458688991 20.021454269554312 #
face $-1 $-1 $305 $19 $-1 $306 reversed single #
loop $-1 $-1 $307 $139 #
plane-surface $-1 0 0 -20.021454269554312 0 0 1 1 0 0 forward_v I I I I #
coedge $-1 $230 $240 $225 $308 forward $140 $-1 #
coedge $-1 $145 $142 $307 $309 reversed $83 $-1 #
coedge $-1 $142 $145 $223 $308 reversed $83 $-1 #
coedge $-1 $310 $311 $142 $227 forward $305 $-1 #
edge $-1 $312 -20.021454269554312 $313 20.021454269554312 $226 $314 forward 7 unknown #
coedge $-1 $307 $148 $143 $229 forward $221 $-1 #
edge $-1 $153 -35.483934554593574 $233 -28.254409647628862 $228 $315 forward 7 unknown #
coedge $-1 $150 $223 $144 $231 forward $140 $-1 #
edge $-1 $232 28.254409647628862 $152 35.483934554593574 $230 $316 forward 7 unknown #
vertex $-1 $231 $317 #
vertex $-1 $229 $318 #
straight-curve $-1 -60.123581748740079 -26.525115506346943 0 0 0 -1 I I #
coedge $-1 $311 $310 $147 $236 forward $305 $-1 #
edge $-1 $241 -20.021454269554312 $238 20.021454269554312 $235 $319 forward 7 unknown #
coedge $-1 $148 $307 $311 $320 forward $221 $-1 #
vertex $-1 $149 $321 #
straight-curve $-1 -67.353106655704792 -17.104774241258983 -20.021454269554312 0 1 0 I I #
coedge $-1 $223 $150 $310 $322 forward $140 $-1 #
vertex $-1 $322 $323 #
straight-curve $-1 -67.353106655704792 -17.104774241258983 20.021454269554312 0 -1 0 I I #
point $-1 -67.353106655704792 -26.525115506346943 20.021454269554312 #
point $-1 -67.353106655704792 -26.525115506346943 -20.021454269554312 #
loop $-1 $-1 $324 $155 #
plane-surface $-1 -73.874324777977847 0 0 1 0 0 0 0 -1 forward_v I I I I #
coedge $-1 $248 $158 $166 $260 reversed $91 $-1 #
coedge $-1 $158 $247 $324 $325 reversed $91 $-1 #
coedge $-1 $254 $326 $160 $250 forward $245 $-1 #
edge $-1 $252 46.413632588750232 $258 57.477356293278895 $249 $327 forward 7 unknown #
coedge $-1 $166 $161 $326 $328 forward $156 $-1 #
vertex $-1 $328 $329 #
straight-curve $-1 -77.172003875610343 -15.553462776381391 20.021454269554312 -1 0 0 I I #
coedge $-1 $324 $249 $163 $255 forward $245 $-1 #
edge $-1 $258 5.0338182056993066 $256 16.00547093566486 $254 $330 forward 7 unknown #
vertex $-1 $325 $331 #
straight-curve $-1 -72.355484527632626 -26.525115506346943 9.9440769748270199 0.83867056331134215 0 0.54463904215088732 I I #
vertex $-1 $255 $332 #
straight-curve $-1 -73.874324777977861 -15.553462776381391 8.957730565025642 0.83867056331134215 0 0.54463904215088732 I I #
edge $-1 $333 3.2976790976324963 $167 20.334319282210906 $166 $334 forward 7 unknown #
point $-1 -56.837684593399437 -26.525115506346946 20.021454269554312 #
point $-1 -56.837684593399437 -15.553462776381391 20.021454269554312 #
edge $-1 $335 1 $335 0 $170 $-1 forward 7 unknown #
vertex $-1 $171 $336 #
ellipse-curve $-1 -62.631978396345737 -21.039289141364169 10.294959851956573 -0.54463904215088732 0 0.83867056331134215 2.0966764082783556 0 1.3615976053772183 1 I I #
point $-1 -63.259328277410262 -21.039289141364169 15.851190022667186 #
loop $-1 $-1 $182 $174 #
plane-surface $-1 73.874324777977847 0 0 -1 0 0 0 0 1 forward_v I I I I #
coedge $-1 $270 $177 $179 $274 reversed $106 $-1 #
coedge $-1 $177 $269 $337 $338 reversed $106 $-1 #
coedge $-1 $185 $180 $177 $272 forward $175 $-1 #
edge $-1 $275 41.621902293580781 $339 58.658542478159227 $271 $340 forward 7 unknown #
coedge $-1 $179 $178 $278 $341 reversed $66 $-1 #
edge $-1 $342 -147.74864955595567 $275 -127.43478505436606 $269 $343 forward 7 unknown #
vertex $-1 $181 $344 #
straight-curve $-1 56.837684593399409 -10.519644570682084 20.021454269554305 0 -1 0 I I #
coedge $-1 $337 $182 $185 $282 reversed $267 $-1 #
coedge $-1 $182 $337 $273 $341 forward $267 $-1 #
vertex $-1 $183 $345 #
straight-curve $-1 73.874324777977847 -15.553462776381391 106.66992834492595 0 0 1 I I #
straight-curve $-1 -50.038118373605585 -15.553462776381391 89.427413538268453 0.83867056331134215 0 -0.54463904215088732 I I #
edge $-1 $339 -26.525115506346946 $186 -15.553462776381391 $277 $346 forward 7 unknown #
point $-1 73.874324777977847 -15.553462776381391 20.021454269554312 #
point $-1 56.837684593399402 -15.553462776381391 20.021454269554312 #
edge $-1 $347 1 $347 0 $189 $-1 forward 7 unknown #
vertex $-1 $190 $348 #
ellipse-curve $-1 62.631978396345723 -21.039289141364169 10.294959851956563 0.54463904215088732 0 0.83867056331134215 2.0966764082783556 0 -1.3615976053772183 1 I I #
point $-1 67.452681093966959 -21.039289141364169 13.127994811912739 #
plane-surface $-1 73.874324777977847 0 0 -1 0 0 0 0 1 forward_v I I I I #
coedge $-1 $198 $196 $200 $294 reversed $121 $-1 #
edge $-1 $211 -20.021454269554312 $296 20.021454269554312 $210 $349 forward 7 unknown #
vertex $-1 $294 $350 #
straight-curve $-1 -73.874324777977847 -41.893981458688991 0 0 0 -1 I I #
edge $-1 $292 -41.893981458688991 $296 41.893981458688991 $290 $351 forward 7 unknown #
straight-curve $-1 0 -41.893981458688991 -20.021454269554312 -1 0 0 I I #
vertex $-1 $203 $352 #
straight-curve $-1 0 41.893981458688991 -20.021454269554312 1 0 0 I I #
point $-1 73.874324777977847 41.893981458688991 -20.021454269554312 #
point $-1 73.874324777977847 -41.893981458688991 -20.021454269554312 #
straight-curve $-1 -73.874324777977847 0 20.021454269554312 0 -1 0 I I #
point $-1 -73.874324777977847 41.893981458688991 20.021454269554312 #
point $-1 -73.874324777977847 -41.893981458688991 20.021454269554312 #
straight-curve $-1 73.874324777977847 -41.893981458688991 0 0 0 -1 I I #
straight-curve $-1 73.874324777977847 41.893981458688991 0 0 0 -1 I I #
loop $-1 $-1 $226 $220 #
plane-surface $-1 0 -41.893981458688991 0 0 1 0 0 0 1 forward_v I I I I #
coedge $-1 $237 $228 $224 $309 forward $221 $-1 #
edge $-1 $313 -24.789207217430008 $232 -9.4203412650879592 $223 $353 forward 7 unknown #
edge $-1 $233 9.4203412650879592 $312 24.789207217430008 $307 $354 forward 7 unknown #
coedge $-1 $235 $226 $240 $322 reversed $305 $-1 #
coedge $-1 $226 $235 $237 $320 reversed $305 $-1 #
vertex $-1 $320 $355 #
vertex $-1 $227 $356 #
straight-curve $-1 -60.123581748740079 -41.893981458688991 0 0 0 1 I I #
straight-curve $-1 -31.869172101111218 -26.525115506346943 -20.021454269554312 1 0 0 I I #
straight-curve $-1 -31.869172101111218 -26.525115506346943 20.021454269554312 -1 0 0 I I #
point $-1 -60.123581748740079 -26.525115506346943 20.021454269554312 #
point $-1 -60.123581748740079 -26.525115506346943 -20.021454269554312 #
straight-curve $-1 -67.353106655704792 -41.893981458688991 0 0 0 -1 I I #
edge $-1 $312 60.123581748740079 $238 67.353106655704792 $311 $357 forward 7 unknown #
point $-1 -67.353106655704792 -41.893981458688991 -20.021454269554312 #
edge $-1 $241 -67.353106655704792 $313 -60.123581748740079 $310 $358 forward 7 unknown #
point $-1 -67.353106655704792 -41.893981458688991 20.021454269554312 #
coedge $-1 $326 $254 $248 $325 forward $245 $-1 #
edge $-1 $256 -57.477356293278895 $333 -46.413632588750232 $324 $359 forward 7 unknown #
coedge $-1 $249 $324 $251 $328 reversed $245 $-1 #
straight-curve $-1 -73.874324777977847 -15.553462776381391 66.435086858304544 0 0 -1 I I #
edge $-1 $252 15.553462776381391 $333 26.525115506346946 $326 $360 forward 7 unknown #
point $-1 -73.874324777977847 -15.553462776381391 20.021454269554312 #
straight-curve $-1 -73.874324777977847 -10.519644570682084 8.957730565025642 0 -1 0 I I #
point $-1 -73.874324777977847 -26.525115506346946 8.9577305650256509 #
point $-1 -73.874324777977847 -15.553462776381391 8.9577305650256509 #
vertex $-1 $325 $361 #
straight-curve $-1 -77.172003875610343 -26.525115506346946 20.021454269554312 1 0 0 I I #
vertex $-1 $263 $362 #
point $-1 -60.535301988067381 -21.039289141364169 11.656557457333792 #
coedge $-1 $278 $277 $270 $338 forward $267 $-1 #
edge $-1 $339 86.648474075371638 $342 97.712197779900308 $337 $363 forward 7 unknown #
vertex $-1 $282 $364 #
straight-curve $-1 15.215782299818621 -26.525115506346946 20.021454269554312 1 0 0 I I #
edge $-1 $342 -16.00547093566486 $279 -5.0338182056993066 $278 $365 forward 7 unknown #
vertex $-1 $341 $366 #
straight-curve $-1 -50.038118373605585 -26.525115506346946 89.427413538268453 -0.83867056331134215 0 0.54463904215088732 I I #
point $-1 56.837684593399402 -26.525115506346946 20.021454269554312 #
point $-1 73.874324777977833 -15.553462776381391 8.957730565025642 #
straight-curve $-1 73.874324777977847 0 20.021454269554312 0 1 0 I I #
vertex $-1 $285 $367 #
point $-1 64.728654804624085 -21.039289141364169 8.9333622465793443 #
straight-curve $-1 -73.874324777977847 41.893981458688991 0 0 0 -1 I I #
point $-1 -73.874324777977847 -41.893981458688991 -20.021454269554312 #
straight-curve $-1 -73.874324777977847 0 -20.021454269554312 0 1 0 I I #
point $-1 -73.874324777977847 41.893981458688991 -20.021454269554312 #
straight-curve $-1 -60.123581748740079 -17.104774241258983 20.021454269554312 0 1 0 I I #
straight-curve $-1 -60.123581748740079 -17.104774241258983 -20.021454269554312 0 -1 0 I I #
point $-1 -60.123581748740079 -41.893981458688991 -20.021454269554312 #
point $-1 -60.123581748740079 -41.893981458688991 20.021454269554312 #
straight-curve $-1 0 -41.893981458688991 -20.021454269554312 -1 0 0 I I #
straight-curve $-1 0 -41.893981458688991 20.021454269554312 1 0 0 I I #
straight-curve $-1 -73.874324777977847 -26.525115506346946 66.435086858304544 0 0 1 I I #
straight-curve $-1 -73.874324777977847 0 20.021454269554312 0 -1 0 I I #
point $-1 -73.874324777977847 -26.525115506346946 20.021454269554312 #
point $-1 -61.270380790968524 -21.039289141364169 8.1982834436782177 #
straight-curve $-1 73.874324777977847 -26.525115506346946 106.66992834492595 0 0 -1 I I #
point $-1 73.874324777977847 -26.525115506346946 20.021454269554312 #
straight-curve $-1 73.874324777977847 -10.519644570682084 8.9577305650256278 0 1 0 I I #
point $-1 73.874324777977833 -26.525115506346946 8.957730565025642 #
point $-1 61.27038079096851 -21.039289141364169 8.198283443678207 #
End-of-ACIS-data 