500 0 14 0           
7 Unknown 11 ACIS 5.0 NT 24 Thu Mar 25 18:31:52 1999 
-1 9.9999999999999995e-007 1e-010 
body $-1 $14 $-1 $15 #
body $-1 $16 $-1 $17 #
body $-1 $18 $-1 $19 #
body $-1 $20 $-1 $21 #
body $-1 $22 $-1 $23 #
body $-1 $24 $-1 $25 #
body $-1 $26 $-1 $27 #
body $-1 $28 $-1 $29 #
body $-1 $30 $-1 $31 #
body $-1 $32 $-1 $33 #
body $-1 $34 $-1 $35 #
body $-1 $36 $-1 $37 #
body $-1 $38 $-1 $39 #
body $-1 $40 $-1 $41 #
lump $-1 $-1 $42 $0 #
transform $-1 1 0 0 0 1 0 0 0 1 75.018158513138218 45.760458543571318 19.223945311919817 1 rotate no_reflect no_shear #
lump $-1 $-1 $43 $1 #
transform $-1 1 0 0 0 1 0 0 0 1 75.018158513138218 45.760458543571318 19.223945311919817 1 rotate no_reflect no_shear #
lump $-1 $-1 $44 $2 #
transform $-1 1 0 0 0 1 0 0 0 1 75.018158513138218 45.760458543571318 19.223945311919817 1 rotate no_reflect no_shear #
lump $-1 $-1 $45 $3 #
transform $-1 1 0 0 0 1 0 0 0 1 75.018158513138218 45.760458543571318 19.223945311919817 1 rotate no_reflect no_shear #
lump $-1 $-1 $46 $4 #
transform $-1 1 0 0 0 1 0 0 0 1 75.018158513138218 45.760458543571318 19.223945311919817 1 rotate no_reflect no_shear #
lump $-1 $-1 $47 $5 #
transform $-1 1 0 0 0 1 0 0 0 1 75.018158513138218 45.760458543571318 19.223945311919817 1 rotate no_reflect no_shear #
lump $-1 $-1 $48 $6 #
transform $-1 1 0 0 0 1 0 0 0 1 75.018158513138218 45.760458543571318 19.223945311919817 1 rotate no_reflect no_shear #
lump $-1 $-1 $49 $7 #
transform $-1 1 0 0 0 1 0 0 0 1 75.018158513138218 45.760458543571318 19.223945311919817 1 rotate no_reflect no_shear #
lump $-1 $-1 $50 $8 #
transform $-1 1 0 0 0 1 0 0 0 1 75.018158513138218 45.760458543571318 19.223945311919817 1 rotate no_reflect no_shear #
lump $-1 $-1 $51 $9 #
transform $-1 1 0 0 0 1 0 0 0 1 75.018158513138218 45.760458543571318 19.223945311919817 1 rotate no_reflect no_shear #
lump $-1 $-1 $52 $10 #
transform $-1 1 0 0 0 1 0 0 0 1 75.018158513138218 45.760458543571318 19.223945311919817 1 rotate no_reflect no_shear #
lump $-1 $-1 $53 $11 #
transform $-1 1 0 0 0 1 0 0 0 1 75.018158513138218 45.760458543571318 19.223945311919817 1 rotate no_reflect no_shear #
lump $-1 $-1 $54 $12 #
transform $-1 1 0 0 0 1 0 0 0 1 75.018158513138218 45.760458543571318 19.223945311919817 1 rotate no_reflect no_shear #
lump $-1 $-1 $55 $13 #
transform $-1 1 0 0 0 1 0 0 0 1 75.018158513138218 45.760458543571318 19.223945311919817 1 rotate no_reflect no_shear #
shell $-1 $-1 $-1 $56 $-1 $14 #
shell $-1 $-1 $-1 $57 $-1 $16 #
shell $-1 $-1 $-1 $58 $-1 $18 #
shell $-1 $-1 $-1 $59 $-1 $20 #
shell $-1 $-1 $-1 $60 $-1 $22 #
shell $-1 $-1 $-1 $61 $-1 $24 #
shell $-1 $-1 $-1 $62 $-1 $26 #
shell $-1 $-1 $-1 $63 $-1 $28 #
shell $-1 $-1 $-1 $64 $-1 $30 #
shell $-1 $-1 $-1 $65 $-1 $32 #
shell $-1 $-1 $-1 $66 $-1 $34 #
shell $-1 $-1 $-1 $67 $-1 $36 #
shell $-1 $-1 $-1 $68 $-1 $38 #
shell $-1 $-1 $-1 $69 $-1 $40 #
face $-1 $70 $71 $42 $-1 $72 forward single #
face $-1 $73 $74 $43 $-1 $75 reversed single #
face $-1 $76 $77 $44 $-1 $78 reversed single #
face $-1 $79 $80 $45 $-1 $81 forward single #
face $-1 $82 $83 $46 $-1 $84 forward single #
face $-1 $85 $86 $47 $-1 $87 reversed single #
face $-1 $88 $89 $48 $-1 $90 forward single #
face $-1 $91 $92 $49 $-1 $93 forward single #
face $-1 $94 $95 $50 $-1 $96 reversed single #
face $-1 $97 $98 $51 $-1 $99 forward single #
face $-1 $100 $101 $52 $-1 $102 forward single #
face $-1 $103 $104 $53 $-1 $105 reversed single #
face $-1 $106 $107 $54 $-1 $108 forward single #
face $-1 $109 $110 $55 $-1 $111 forward single #
face $-1 $112 $113 $42 $-1 $114 reversed single #
loop $-1 $-1 $115 $56 #
plane-surface $-1 0 0 19.223945311919817 0 0 1 1 0 0 forward_v I I I I #
face $-1 $116 $117 $43 $-1 $118 reversed single #
loop $-1 $-1 $119 $57 #
plane-surface $-1 -65.925238834147876 -16.770066110509287 0 0 1 0 0 0 1 forward_v I I I I #
face $-1 $120 $121 $44 $-1 $122 reversed single #
loop $-1 $-1 $123 $58 #
plane-surface $-1 -7.6635228281113257 47.653455226105649 177.3750972881042 1 0 0 0 -0.52991927123019833 -0.84804809178421925 forward_v I I I I #
face $-1 $124 $125 $45 $-1 $126 forward single #
loop $-1 $127 $128 $59 #
cone-surface $-1 -2.8759678260822739 30.711533440705082 8.8667793398392547 0 -0.52991927123019833 -0.84804809178421925 2 0 0 1 I I 0 1 2 forward I I I I #
face $-1 $129 $130 $46 $-1 $131 forward single #
loop $-1 $132 $133 $60 #
cone-surface $-1 4.3053646769613039 30.711533440705082 8.8667793398392547 0 -0.52991927123019833 -0.84804809178421925 2 0 0 1 I I 0 1 2 forward I I I I #
face $-1 $134 $135 $47 $-1 $136 reversed single #
loop $-1 $-1 $137 $61 #
plane-surface $-1 0.7146984254395079 -31.853680550521759 50.137084935638299 0 0.52991927123019833 0.84804809178421925 1 0 0 forward_v I I I I #
face $-1 $138 $139 $48 $-1 $140 forward single #
loop $-1 $141 $142 $62 #
cone-surface $-1 13.880474681019408 30.711533440705082 8.8667793398392547 0 -0.52991927123019833 -0.84804809178421925 2 0 0 1 I I 0 1 2 forward I I I I #
face $-1 $143 $144 $49 $-1 $145 forward single #
loop $-1 $146 $147 $63 #
cone-surface $-1 21.061807184062985 30.711533440705082 8.8667793398392547 0 -0.52991927123019833 -0.84804809178421925 2 0 0 1 I I 0 1 2 forward I I I I #
face $-1 $148 $149 $50 $-1 $150 reversed single #
loop $-1 $-1 $151 $64 #
plane-surface $-1 9.0929196789903415 -125.26759432019871 128.87639960296619 -1 0 0 0 -0.52991927123019833 0.84804809178421925 forward_v I I I I #
face $-1 $152 $153 $51 $-1 $154 forward single #
loop $-1 $155 $156 $65 #
cone-surface $-1 -2.8759678260822739 -30.711533440705104 8.8667793398392476 0 0.52991927123019833 -0.84804809178421925 2 0 0 1 I I 0 1 2 forward I I I I #
face $-1 $157 $158 $52 $-1 $159 forward single #
loop $-1 $160 $161 $66 #
cone-surface $-1 4.3053646769613039 -30.711533440705104 8.8667793398392476 0 0.52991927123019833 -0.84804809178421925 2 0 0 1 I I 0 1 2 forward I I I I #
face $-1 $162 $163 $53 $-1 $164 reversed single #
loop $-1 $-1 $165 $67 #
plane-surface $-1 25.849362186092023 -125.26759432019871 128.87639960296619 -1 0 0 0 -0.52991927123019833 0.84804809178421925 forward_v I I I I #
face $-1 $166 $167 $54 $-1 $168 forward single #
loop $-1 $169 $170 $68 #
cone-surface $-1 13.880474681019408 -30.711533440705104 8.8667793398392476 0 0.52991927123019833 -0.84804809178421925 2 0 0 1 I I 0 1 2 forward I I I I #
face $-1 $171 $172 $55 $-1 $173 forward single #
loop $-1 $174 $175 $69 #
cone-surface $-1 21.061807184062985 -30.711533440705104 8.8667793398392476 0 0.52991927123019833 -0.84804809178421925 2 0 0 1 I I 0 1 2 forward I I I I #
face $-1 $176 $177 $42 $-1 $178 reversed single #
loop $-1 $-1 $179 $70 #
plane-surface $-1 0 0 -19.223945311919817 0 0 1 1 0 0 forward_v I I I I #
coedge $-1 $180 $181 $182 $183 forward $71 $-1 #
face $-1 $184 $185 $43 $-1 $186 reversed single #
loop $-1 $-1 $187 $73 #
plane-surface $-1 -65.925238834147876 -7.3125679197316806 0 0 -1 0 0 0 -1 forward_v I I I I #
coedge $-1 $188 $189 $190 $191 reversed $74 $-1 #
face $-1 $192 $193 $44 $-1 $194 reversed single #
loop $-1 $-1 $195 $76 #
plane-surface $-1 0.7146984254395079 -31.853680550521759 50.137084935638299 0 0.52991927123019833 0.84804809178421925 1 0 0 forward_v I I I I #
coedge $-1 $196 $197 $198 $199 reversed $77 $-1 #
face $-1 $-1 $200 $45 $-1 $201 forward single #
loop $-1 $202 $203 $79 #
cone-surface $-1 -2.8759678260822739 29.204076697337996 6.4543443066842308 0 -0.52991927123019833 -0.84804809178421925 1 0 0 1 I I -0.70710678118654779 0.70710678118654713 1 forward I I I I #
loop $-1 $-1 $204 $59 #
coedge $-1 $128 $128 $205 $206 reversed $80 $-1 #
face $-1 $-1 $207 $46 $-1 $208 forward single #
loop $-1 $209 $210 $82 #
cone-surface $-1 4.3053646769613039 29.204076697337996 6.4543443066842308 0 -0.52991927123019833 -0.84804809178421925 1 0 0 1 I I -0.70710678118654779 0.70710678118654713 1 forward I I I I #
loop $-1 $-1 $211 $60 #
coedge $-1 $133 $133 $212 $213 reversed $83 $-1 #
face $-1 $214 $215 $47 $-1 $216 reversed single #
loop $-1 $-1 $217 $85 #
plane-surface $-1 25.849362186092023 47.653455226105649 177.3750972881042 -1 0 0 0 0.52991927123019833 0.84804809178421925 forward_v I I I I #
coedge $-1 $218 $219 $220 $221 reversed $86 $-1 #
face $-1 $-1 $222 $48 $-1 $223 forward single #
loop $-1 $224 $225 $88 #
cone-surface $-1 13.880474681019408 29.204076697337996 6.4543443066842308 0 -0.52991927123019833 -0.84804809178421925 1 0 0 1 I I -0.70710678118654779 0.70710678118654713 1 forward I I I I #
loop $-1 $-1 $226 $62 #
coedge $-1 $142 $142 $227 $228 reversed $89 $-1 #
face $-1 $-1 $229 $49 $-1 $230 forward single #
loop $-1 $231 $232 $91 #
cone-surface $-1 21.061807184062985 29.204076697337996 6.4543443066842308 0 -0.52991927123019833 -0.84804809178421925 1 0 0 1 I I -0.70710678118654779 0.70710678118654713 1 forward I I I I #
loop $-1 $-1 $233 $63 #
coedge $-1 $147 $147 $234 $235 reversed $92 $-1 #
face $-1 $236 $237 $50 $-1 $238 reversed single #
loop $-1 $-1 $239 $94 #
plane-surface $-1 0.7146984254395079 -45.760458543571303 1.638387250500287 0 -0.52991927123019833 0.84804809178421925 1 0 0 forward_v I I I I #
coedge $-1 $240 $241 $242 $243 reversed $95 $-1 #
face $-1 $-1 $244 $51 $-1 $245 forward single #
loop $-1 $246 $247 $97 #
cone-surface $-1 -2.8759678260822739 -29.204076697338017 6.4543443066842237 0 0.52991927123019833 -0.84804809178421925 1 0 0 1 I I -0.70710678118654779 0.70710678118654713 1 forward I I I I #
loop $-1 $-1 $248 $65 #
coedge $-1 $156 $156 $249 $250 reversed $98 $-1 #
face $-1 $-1 $251 $52 $-1 $252 forward single #
loop $-1 $253 $254 $100 #
cone-surface $-1 4.3053646769613039 -29.204076697338017 6.4543443066842237 0 0.52991927123019833 -0.84804809178421925 1 0 0 1 I I -0.70710678118654779 0.70710678118654713 1 forward I I I I #
loop $-1 $-1 $255 $66 #
coedge $-1 $161 $161 $256 $257 reversed $101 $-1 #
face $-1 $258 $259 $53 $-1 $260 reversed single #
loop $-1 $-1 $261 $103 #
plane-surface $-1 0.7146984254395079 -45.760458543571303 1.638387250500287 0 -0.52991927123019833 0.84804809178421925 1 0 0 forward_v I I I I #
coedge $-1 $262 $263 $264 $265 reversed $104 $-1 #
face $-1 $-1 $266 $54 $-1 $267 forward single #
loop $-1 $268 $269 $106 #
cone-surface $-1 13.880474681019408 -29.204076697338017 6.4543443066842237 0 0.52991927123019833 -0.84804809178421925 1 0 0 1 I I -0.70710678118654779 0.70710678118654713 1 forward I I I I #
loop $-1 $-1 $270 $68 #
coedge $-1 $170 $170 $271 $272 reversed $107 $-1 #
face $-1 $-1 $273 $55 $-1 $274 forward single #
loop $-1 $275 $276 $109 #
cone-surface $-1 21.061807184062985 -29.204076697338017 6.4543443066842237 0 0.52991927123019833 -0.84804809178421925 1 0 0 1 I I -0.70710678118654779 0.70710678118654713 1 forward I I I I #
loop $-1 $-1 $277 $69 #
coedge $-1 $175 $175 $278 $279 reversed $110 $-1 #
face $-1 $280 $281 $42 $-1 $282 reversed single #
loop $-1 $-1 $283 $112 #
plane-surface $-1 0 -45.760458543571318 0 0 1 0 0 0 1 forward_v I I I I #
coedge $-1 $284 $285 $286 $287 forward $113 $-1 #
coedge $-1 $288 $115 $289 $290 forward $71 $-1 #
coedge $-1 $115 $288 $291 $292 forward $71 $-1 #
coedge $-1 $293 $294 $115 $183 reversed $295 $-1 #
edge $-1 $296 -45.760458543571318 $297 45.760458543571318 $182 $298 forward 7 unknown #
face $-1 $299 $300 $43 $-1 $301 reversed single #
loop $-1 $-1 $302 $116 #
plane-surface $-1 -56.832319155157535 -12.041317015120484 0 -1 0 0 0 0 1 forward_v I I I I #
coedge $-1 $303 $304 $305 $306 forward $117 $-1 #
coedge $-1 $307 $119 $308 $309 reversed $74 $-1 #
coedge $-1 $119 $307 $310 $311 reversed $74 $-1 #
coedge $-1 $312 $313 $119 $191 forward $314 $-1 #
edge $-1 $315 -19.223945311919817 $316 19.223945311919817 $190 $317 forward 7 unknown #
face $-1 $318 $319 $44 $-1 $320 reversed single #
loop $-1 $-1 $321 $120 #
plane-surface $-1 9.0929196789903415 47.653455226105649 177.3750972881042 -1 0 0 0 0.52991927123019833 0.84804809178421925 forward_v I I I I #
coedge $-1 $322 $323 $324 $325 reversed $121 $-1 #
coedge $-1 $197 $123 $326 $327 reversed $77 $-1 #
coedge $-1 $123 $196 $322 $328 reversed $77 $-1 #
coedge $-1 $324 $329 $123 $199 forward $330 $-1 #
edge $-1 $331 -21.933730930518493 $332 6.209044330940209 $198 $333 forward 7 unknown #
loop $-1 $-1 $205 $124 #
plane-surface $-1 0.7146984254395079 -31.853680550521759 50.137084935638299 0 0.52991927123019833 0.84804809178421925 1 0 0 forward_v I I I I #
loop $-1 $-1 $334 $79 #
coedge $-1 $203 $203 $204 $335 reversed $125 $-1 #
coedge $-1 $204 $204 $203 $335 forward $127 $-1 #
coedge $-1 $205 $205 $128 $206 forward $200 $-1 #
edge $-1 $336 -7.5243083115657809e-016 $336 6.2831853071795996 $205 $337 forward 7 unknown #
loop $-1 $-1 $212 $129 #
plane-surface $-1 0.7146984254395079 -31.853680550521759 50.137084935638299 0 0.52991927123019833 0.84804809178421925 1 0 0 forward_v I I I I #
loop $-1 $-1 $338 $82 #
coedge $-1 $210 $210 $211 $339 reversed $130 $-1 #
coedge $-1 $211 $211 $210 $339 forward $132 $-1 #
coedge $-1 $212 $212 $133 $213 forward $207 $-1 #
edge $-1 $340 -7.5243083115657809e-016 $340 6.2831853071795996 $212 $341 forward 7 unknown #
face $-1 $342 $343 $47 $-1 $344 forward single #
loop $-1 $-1 $345 $134 #
plane-surface $-1 0 45.760458543571318 0 0 -1 0 0 0 -1 forward_v I I I I #
coedge $-1 $346 $347 $348 $349 reversed $135 $-1 #
coedge $-1 $350 $137 $351 $352 reversed $86 $-1 #
coedge $-1 $137 $350 $353 $354 reversed $86 $-1 #
coedge $-1 $355 $356 $137 $221 forward $343 $-1 #
edge $-1 $357 -91.520917087142664 $358 -58.335564117066689 $220 $359 forward 7 unknown #
loop $-1 $-1 $227 $138 #
plane-surface $-1 0.7146984254395079 -31.853680550521759 50.137084935638299 0 0.52991927123019833 0.84804809178421925 1 0 0 forward_v I I I I #
loop $-1 $-1 $360 $88 #
coedge $-1 $225 $225 $226 $361 reversed $139 $-1 #
coedge $-1 $226 $226 $225 $361 forward $141 $-1 #
coedge $-1 $227 $227 $142 $228 forward $222 $-1 #
edge $-1 $362 -7.5243083115657809e-016 $362 6.2831853071795996 $227 $363 forward 7 unknown #
loop $-1 $-1 $234 $143 #
plane-surface $-1 0.7146984254395079 -31.853680550521759 50.137084935638299 0 0.52991927123019833 0.84804809178421925 1 0 0 forward_v I I I I #
loop $-1 $-1 $364 $91 #
coedge $-1 $232 $232 $233 $365 reversed $144 $-1 #
coedge $-1 $233 $233 $232 $365 forward $146 $-1 #
coedge $-1 $234 $234 $147 $235 forward $229 $-1 #
edge $-1 $366 -7.5243083115657809e-016 $366 6.2831853071795996 $234 $367 forward 7 unknown #
face $-1 $368 $369 $50 $-1 $370 forward single #
loop $-1 $-1 $371 $148 #
plane-surface $-1 -7.6635228281113257 -125.26759432019871 128.87639960296619 1 0 0 0 0.52991927123019833 -0.84804809178421925 forward_v I I I I #
coedge $-1 $372 $373 $374 $375 reversed $149 $-1 #
coedge $-1 $241 $151 $376 $377 reversed $95 $-1 #
coedge $-1 $151 $240 $372 $378 reversed $95 $-1 #
coedge $-1 $374 $379 $151 $243 forward $369 $-1 #
edge $-1 $380 16.873338616528038 $381 45.016113877986712 $242 $382 forward 7 unknown #
loop $-1 $-1 $249 $152 #
plane-surface $-1 0.7146984254395079 -45.760458543571303 1.638387250500287 0 -0.52991927123019833 0.84804809178421925 1 0 0 forward_v I I I I #
loop $-1 $-1 $383 $97 #
coedge $-1 $247 $247 $248 $384 reversed $153 $-1 #
coedge $-1 $248 $248 $247 $384 forward $155 $-1 #
coedge $-1 $249 $249 $156 $250 forward $244 $-1 #
edge $-1 $385 3.7621541557828905e-016 $385 6.2831853071796004 $249 $386 forward 7 unknown #
loop $-1 $-1 $256 $157 #
plane-surface $-1 0.7146984254395079 -45.760458543571303 1.638387250500287 0 -0.52991927123019833 0.84804809178421925 1 0 0 forward_v I I I I #
loop $-1 $-1 $387 $100 #
coedge $-1 $254 $254 $255 $388 reversed $158 $-1 #
coedge $-1 $255 $255 $254 $388 forward $160 $-1 #
coedge $-1 $256 $256 $161 $257 forward $251 $-1 #
edge $-1 $389 3.7621541557828905e-016 $389 6.2831853071796004 $256 $390 forward 7 unknown #
face $-1 $391 $392 $53 $-1 $393 forward single #
loop $-1 $-1 $394 $162 #
plane-surface $-1 0 -45.760458543571318 0 0 1 0 0 0 1 forward_v I I I I #
coedge $-1 $395 $396 $397 $398 reversed $163 $-1 #
coedge $-1 $263 $165 $399 $400 reversed $104 $-1 #
coedge $-1 $165 $262 $401 $402 reversed $104 $-1 #
coedge $-1 $403 $394 $165 $265 forward $259 $-1 #
edge $-1 $404 -62.799812550982814 $405 -45.214254489563274 $264 $406 forward 7 unknown #
loop $-1 $-1 $271 $166 #
plane-surface $-1 0.7146984254395079 -45.760458543571303 1.638387250500287 0 -0.52991927123019833 0.84804809178421925 1 0 0 forward_v I I I I #
loop $-1 $-1 $407 $106 #
coedge $-1 $269 $269 $270 $408 reversed $167 $-1 #
coedge $-1 $270 $270 $269 $408 forward $169 $-1 #
coedge $-1 $271 $271 $170 $272 forward $266 $-1 #
edge $-1 $409 3.7621541557828905e-016 $409 6.2831853071796004 $271 $410 forward 7 unknown #
loop $-1 $-1 $278 $171 #
plane-surface $-1 0.7146984254395079 -45.760458543571303 1.638387250500287 0 -0.52991927123019833 0.84804809178421925 1 0 0 forward_v I I I I #
loop $-1 $-1 $411 $109 #
coedge $-1 $276 $276 $277 $412 reversed $172 $-1 #
coedge $-1 $277 $277 $276 $412 forward $174 $-1 #
coedge $-1 $278 $278 $175 $279 forward $273 $-1 #
edge $-1 $413 3.7621541557828905e-016 $413 6.2831853071796004 $278 $414 forward 7 unknown #
face $-1 $415 $416 $42 $-1 $417 reversed single #
loop $-1 $-1 $418 $176 #
plane-surface $-1 -75.018158513138218 0 0 1 0 0 0 0 -1 forward_v I I I I #
coedge $-1 $419 $291 $420 $421 forward $177 $-1 #
coedge $-1 $422 $179 $419 $423 forward $113 $-1 #
coedge $-1 $179 $422 $424 $425 forward $113 $-1 #
coedge $-1 $294 $293 $179 $287 reversed $295 $-1 #
edge $-1 $426 -45.760458543571318 $427 45.760458543571318 $286 $428 forward 7 unknown #
coedge $-1 $181 $180 $429 $430 forward $71 $-1 #
coedge $-1 $431 $432 $180 $290 reversed $416 $-1 #
edge $-1 $297 -75.018158513138218 $433 75.018158513138218 $289 $434 forward 7 unknown #
coedge $-1 $283 $435 $181 $292 reversed $177 $-1 #
edge $-1 $436 -75.018158513138218 $296 75.018158513138218 $291 $437 forward 7 unknown #
coedge $-1 $286 $182 $435 $438 forward $295 $-1 #
coedge $-1 $182 $286 $431 $439 reversed $295 $-1 #
loop $-1 $-1 $293 $415 #
vertex $-1 $183 $440 #
vertex $-1 $183 $441 #
straight-curve $-1 75.018158513138218 0 19.223945311919817 0 1 0 I I #
face $-1 $442 $443 $43 $-1 $444 forward single #
loop $-1 $-1 $445 $184 #
plane-surface $-1 0 0 -19.223945311919817 0 0 1 1 0 0 forward_v I I I I #
coedge $-1 $446 $447 $307 $448 forward $185 $-1 #
coedge $-1 $449 $187 $445 $450 reversed $117 $-1 #
coedge $-1 $187 $449 $451 $452 reversed $117 $-1 #
coedge $-1 $447 $446 $187 $306 reversed $185 $-1 #
edge $-1 $453 -19.223945311919817 $454 19.223945311919817 $305 $455 forward 7 unknown #
coedge $-1 $189 $188 $302 $448 reversed $74 $-1 #
coedge $-1 $456 $457 $188 $309 forward $300 $-1 #
edge $-1 $458 23.869699738083597 $315 42.05553909606428 $308 $459 forward 7 unknown #
coedge $-1 $460 $461 $189 $311 forward $443 $-1 #
edge $-1 $316 -42.05553909606428 $462 -23.869699738083597 $310 $463 forward 7 unknown #
coedge $-1 $464 $190 $461 $465 reversed $314 $-1 #
coedge $-1 $190 $464 $456 $466 reversed $314 $-1 #
loop $-1 $-1 $464 $442 #
vertex $-1 $466 $467 #
vertex $-1 $191 $468 #
straight-curve $-1 -75.018158513138218 -16.770066110509287 0 0 0 1 I I #
face $-1 $-1 $330 $44 $-1 $469 forward single #
loop $-1 $-1 $470 $192 #
plane-surface $-1 0 45.760458543571318 0 0 -1 0 0 0 -1 forward_v I I I I #
coedge $-1 $471 $472 $473 $474 reversed $193 $-1 #
coedge $-1 $475 $195 $197 $328 forward $121 $-1 #
coedge $-1 $195 $475 $471 $476 forward $121 $-1 #
coedge $-1 $473 $198 $195 $325 forward $330 $-1 #
edge $-1 $332 -8.0208720408310796 $477 8.7355704662705875 $324 $478 forward 7 unknown #
coedge $-1 $479 $480 $196 $327 forward $319 $-1 #
edge $-1 $481 -87.049161393551856 $331 -69.46360333213228 $326 $482 forward 7 unknown #
edge $-1 $332 58.335564117066689 $481 91.520917087142664 $197 $483 forward 7 unknown #
coedge $-1 $198 $473 $479 $484 forward $330 $-1 #
loop $-1 $-1 $473 $318 #
vertex $-1 $327 $485 #
vertex $-1 $199 $486 #
straight-curve $-1 -7.6635228281113257 23.826727613052824 19.22394531191982 0 -1 0 I I #
coedge $-1 $334 $334 $-1 $487 reversed $202 $-1 #
edge $-1 $488 0 $488 6.2831853071796004 $203 $489 forward 7 unknown #
vertex $-1 $206 $490 #
ellipse-curve $-1 -2.8759678260822739 31.689070912841959 10.431166281210045 0 0.52991927123019833 0.84804809178421925 2 0 0 1 I I #
coedge $-1 $338 $338 $-1 $491 reversed $209 $-1 #
edge $-1 $492 0 $492 6.2831853071796004 $210 $493 forward 7 unknown #
vertex $-1 $213 $494 #
ellipse-curve $-1 4.3053646769613039 31.689070912841959 10.431166281210045 0 0.52991927123019833 0.84804809178421925 2 0 0 1 I I #
face $-1 $-1 $495 $47 $-1 $496 forward single #
loop $-1 $-1 $355 $214 #
plane-surface $-1 9.0929196789903415 47.653455226105649 177.3750972881042 -1 0 0 0 0.52991927123019833 0.84804809178421925 forward_v I I I I #
coedge $-1 $351 $497 $347 $498 forward $215 $-1 #
coedge $-1 $347 $217 $350 $499 reversed $135 $-1 #
coedge $-1 $217 $346 $345 $498 reversed $135 $-1 #
coedge $-1 $500 $353 $217 $349 forward $495 $-1 #
edge $-1 $501 -6.209044330940209 $502 21.933730930518493 $348 $503 forward 7 unknown #
coedge $-1 $219 $218 $346 $499 forward $86 $-1 #
coedge $-1 $504 $345 $218 $352 forward $215 $-1 #
edge $-1 $505 -25.492012973372269 $357 -8.7355704662705875 $351 $506 forward 7 unknown #
coedge $-1 $348 $507 $219 $354 forward $495 $-1 #
edge $-1 $358 8.7355704662705875 $501 25.492012973372269 $353 $508 forward 7 unknown #
coedge $-1 $356 $220 $507 $509 reversed $343 $-1 #
coedge $-1 $220 $355 $504 $510 reversed $343 $-1 #
vertex $-1 $352 $511 #
vertex $-1 $354 $512 #
straight-curve $-1 9.0929196789903415 -31.853680550521759 50.137084935638299 0 -0.84804809178421925 0.52991927123019833 I I #
coedge $-1 $360 $360 $-1 $513 reversed $224 $-1 #
edge $-1 $514 0 $514 6.2831853071796004 $225 $515 forward 7 unknown #
vertex $-1 $228 $516 #
ellipse-curve $-1 13.880474681019408 31.689070912841959 10.431166281210045 0 0.52991927123019833 0.84804809178421925 2 0 0 1 I I #
coedge $-1 $364 $364 $-1 $517 reversed $231 $-1 #
edge $-1 $518 0 $518 6.2831853071796004 $232 $519 forward 7 unknown #
vertex $-1 $235 $520 #
ellipse-curve $-1 21.061807184062985 31.689070912841959 10.431166281210045 0 0.52991927123019833 0.84804809178421925 2 0 0 1 I I #
face $-1 $-1 $521 $50 $-1 $522 reversed single #
loop $-1 $-1 $242 $236 #
plane-surface $-1 0 0 19.223945311919817 0 0 1 1 0 0 forward_v I I I I #
coedge $-1 $523 $524 $525 $526 reversed $237 $-1 #
coedge $-1 $527 $239 $241 $378 forward $149 $-1 #
coedge $-1 $239 $527 $523 $528 forward $149 $-1 #
coedge $-1 $525 $242 $239 $375 forward $369 $-1 #
edge $-1 $381 -8.7355704662705875 $529 8.0208720408310796 $374 $530 forward 7 unknown #
coedge $-1 $531 $532 $240 $377 forward $521 $-1 #
edge $-1 $533 -62.799812550982814 $380 -45.214254489563274 $376 $534 forward 7 unknown #
edge $-1 $381 -33.185352970075925 $533 1.675811683274863e-014 $241 $535 forward 7 unknown #
coedge $-1 $242 $525 $531 $536 forward $369 $-1 #
vertex $-1 $377 $537 #
vertex $-1 $243 $538 #
straight-curve $-1 9.0929196789903415 -62.633797160099355 19.22394531191982 0 1 0 I I #
coedge $-1 $383 $383 $-1 $539 reversed $246 $-1 #
edge $-1 $540 0 $540 6.2831853071796004 $247 $541 forward 7 unknown #
vertex $-1 $250 $542 #
ellipse-curve $-1 -2.8759678260822739 -31.689070912841984 10.431166281210045 0 -0.52991927123019833 0.84804809178421925 2 0 0 1 I I #
coedge $-1 $387 $387 $-1 $543 reversed $253 $-1 #
edge $-1 $544 0 $544 6.2831853071796004 $254 $545 forward 7 unknown #
vertex $-1 $257 $546 #
ellipse-curve $-1 4.3053646769613039 -31.689070912841984 10.431166281210045 0 -0.52991927123019833 0.84804809178421925 2 0 0 1 I I #
face $-1 $-1 $547 $53 $-1 $548 forward single #
loop $-1 $-1 $549 $258 #
plane-surface $-1 9.0929196789903415 -125.26759432019871 128.87639960296619 -1 0 0 0 -0.52991927123019833 0.84804809178421925 forward_v I I I I #
coedge $-1 $264 $550 $396 $551 forward $259 $-1 #
coedge $-1 $399 $261 $552 $553 reversed $163 $-1 #
coedge $-1 $261 $399 $394 $551 reversed $163 $-1 #
coedge $-1 $554 $549 $261 $398 forward $392 $-1 #
edge $-1 $555 -33.185352970075925 $556 1.675811683274863e-014 $397 $557 forward 7 unknown #
coedge $-1 $396 $395 $262 $400 forward $163 $-1 #
edge $-1 $558 -33.185352970075925 $404 1.675811683274863e-014 $262 $559 forward 7 unknown #
coedge $-1 $552 $560 $263 $402 forward $547 $-1 #
edge $-1 $405 16.873338616528038 $558 45.016113877986712 $401 $561 forward 7 unknown #
coedge $-1 $550 $264 $560 $562 reversed $259 $-1 #
vertex $-1 $265 $563 #
vertex $-1 $265 $564 #
straight-curve $-1 25.849362186092023 -45.760458543571318 64.438199801483094 0 0 1 I I #
coedge $-1 $407 $407 $-1 $565 reversed $268 $-1 #
edge $-1 $566 0 $566 6.2831853071796004 $269 $567 forward 7 unknown #
vertex $-1 $272 $568 #
ellipse-curve $-1 13.880474681019408 -31.689070912841984 10.431166281210045 0 -0.52991927123019833 0.84804809178421925 2 0 0 1 I I #
coedge $-1 $411 $411 $-1 $569 reversed $275 $-1 #
edge $-1 $570 0 $570 6.2831853071796004 $276 $571 forward 7 unknown #
vertex $-1 $279 $572 #
ellipse-curve $-1 21.061807184062985 -31.689070912841984 10.431166281210045 0 -0.52991927123019833 0.84804809178421925 2 0 0 1 I I #
face $-1 $-1 $295 $42 $-1 $573 reversed single #
loop $-1 $-1 $431 $280 #
plane-surface $-1 0 45.760458543571318 0 0 -1 0 0 0 -1 forward_v I I I I #
coedge $-1 $574 $429 $432 $575 forward $281 $-1 #
coedge $-1 $435 $283 $284 $423 reversed $177 $-1 #
coedge $-1 $429 $574 $283 $421 reversed $281 $-1 #
edge $-1 $436 -19.223945311919817 $576 19.223945311919817 $420 $577 forward 7 unknown #
coedge $-1 $285 $284 $574 $578 forward $113 $-1 #
edge $-1 $427 -75.018158513138218 $576 75.018158513138218 $419 $579 forward 7 unknown #
coedge $-1 $432 $431 $285 $425 reversed $416 $-1 #
edge $-1 $580 -75.018158513138218 $426 75.018158513138218 $424 $581 forward 7 unknown #
vertex $-1 $287 $582 #
vertex $-1 $438 $583 #
straight-curve $-1 75.018158513138218 0 -19.223945311919817 0 -1 0 I I #
coedge $-1 $418 $420 $288 $430 reversed $281 $-1 #
edge $-1 $433 -45.760458543571318 $436 45.760458543571318 $429 $584 forward 7 unknown #
coedge $-1 $424 $289 $294 $439 forward $416 $-1 #
coedge $-1 $289 $424 $418 $575 reversed $416 $-1 #
vertex $-1 $290 $585 #
straight-curve $-1 0 45.760458543571318 19.223945311919817 -1 0 0 I I #
coedge $-1 $291 $419 $293 $438 reversed $177 $-1 #
vertex $-1 $430 $586 #
straight-curve $-1 0 -45.760458543571318 19.223945311919817 1 0 0 I I #
edge $-1 $296 -19.223945311919817 $427 19.223945311919817 $293 $587 forward 7 unknown #
edge $-1 $297 -19.223945311919817 $426 19.223945311919817 $294 $588 forward 7 unknown #
point $-1 75.018158513138218 -45.760458543571318 19.223945311919817 #
point $-1 75.018158513138218 45.760458543571318 19.223945311919817 #
face $-1 $-1 $314 $43 $-1 $589 reversed single #
loop $-1 $-1 $451 $299 #
plane-surface $-1 0 0 19.223945311919817 0 0 1 1 0 0 forward_v I I I I #
coedge $-1 $457 $456 $303 $450 forward $300 $-1 #
coedge $-1 $305 $302 $457 $590 reversed $185 $-1 #
coedge $-1 $302 $305 $460 $591 reversed $185 $-1 #
edge $-1 $462 -19.223945311919817 $458 19.223945311919817 $302 $592 forward 7 unknown #
coedge $-1 $304 $303 $464 $593 reversed $117 $-1 #
edge $-1 $594 -42.05553909606428 $454 -23.869699738083597 $445 $595 forward 7 unknown #
coedge $-1 $461 $460 $304 $452 forward $443 $-1 #
edge $-1 $453 23.869699738083597 $596 42.05553909606428 $451 $597 forward 7 unknown #
vertex $-1 $452 $598 #
vertex $-1 $450 $599 #
straight-curve $-1 -56.832319155157535 -7.3125679197316806 0 0 0 -1 I I #
coedge $-1 $445 $308 $313 $466 forward $300 $-1 #
coedge $-1 $308 $445 $446 $590 forward $300 $-1 #
vertex $-1 $309 $600 #
straight-curve $-1 -32.962619417073938 -16.770066110509287 -19.223945311919817 -1 0 0 I I #
coedge $-1 $451 $310 $447 $591 forward $443 $-1 #
coedge $-1 $310 $451 $312 $465 forward $443 $-1 #
vertex $-1 $311 $601 #
straight-curve $-1 -32.962619417073938 -16.770066110509287 19.223945311919817 1 0 0 I I #
coedge $-1 $313 $312 $449 $593 forward $314 $-1 #
edge $-1 $596 7.3125679197316806 $316 16.770066110509287 $312 $602 forward 7 unknown #
edge $-1 $315 -16.770066110509287 $594 -7.3125679197316806 $313 $603 forward 7 unknown #
point $-1 -75.018158513138218 -16.770066110509287 -19.223945311919817 #
point $-1 -75.018158513138218 -16.770066110509287 19.223945311919817 #
plane-surface $-1 0 0 19.223945311919817 0 0 1 1 0 0 forward_v I I I I #
coedge $-1 $480 $479 $472 $604 forward $319 $-1 #
coedge $-1 $472 $321 $323 $476 reversed $193 $-1 #
coedge $-1 $321 $471 $470 $604 reversed $193 $-1 #
coedge $-1 $329 $324 $321 $474 forward $330 $-1 #
edge $-1 $477 -6.209044330940209 $605 21.933730930518493 $473 $606 forward 7 unknown #
coedge $-1 $323 $322 $480 $607 reversed $121 $-1 #
edge $-1 $608 -91.520917087142664 $477 -58.335564117066689 $471 $609 forward 7 unknown #
vertex $-1 $325 $610 #
straight-curve $-1 0.35734921271975395 17.617683282112615 19.223945311919817 1 0 0 I I #
coedge $-1 $470 $326 $329 $484 reversed $319 $-1 #
coedge $-1 $326 $470 $475 $607 forward $319 $-1 #
vertex $-1 $327 $611 #
straight-curve $-1 -7.6635228281113257 45.760458543571318 88.6875486440521 0 0 1 I I #
straight-curve $-1 -7.6635228281113257 -31.853680550521759 50.137084935638299 0 0.84804809178421925 -0.52991927123019833 I I #
edge $-1 $605 -9.0929196789903415 $331 7.6635228281113257 $479 $612 forward 7 unknown #
point $-1 -7.6635228281113257 45.760458543571318 19.223945311919817 #
point $-1 -7.6635228281113257 17.617683282112615 19.223945311919817 #
edge $-1 $613 1 $613 0 $334 $-1 forward 7 unknown #
vertex $-1 $335 $614 #
ellipse-curve $-1 -2.8759678260822739 29.733995968568195 7.3023923984684496 0 0.52991927123019833 0.84804809178421925 2 0 0 1 I I #
point $-1 -0.87596782608227386 31.689070912841967 10.431166281210059 #
edge $-1 $615 1 $615 0 $338 $-1 forward 7 unknown #
vertex $-1 $339 $616 #
ellipse-curve $-1 4.3053646769613039 29.733995968568195 7.3023923984684496 0 0.52991927123019833 0.84804809178421925 2 0 0 1 I I #
point $-1 6.3053646769613039 31.689070912841967 10.431166281210059 #
loop $-1 $-1 $348 $342 #
plane-surface $-1 0 0 19.223945311919817 0 0 1 1 0 0 forward_v I I I I #
coedge $-1 $345 $504 $500 $617 reversed $215 $-1 #
edge $-1 $502 69.46360333213228 $505 87.049161393551856 $345 $618 forward 7 unknown #
edge $-1 $505 -91.520917087142664 $501 -58.335564117066689 $346 $619 forward 7 unknown #
coedge $-1 $507 $348 $497 $617 forward $495 $-1 #
vertex $-1 $349 $620 #
vertex $-1 $617 $621 #
straight-curve $-1 25.849362186092023 23.826727613052824 19.22394531191982 0 1 0 I I #
coedge $-1 $497 $351 $356 $510 forward $215 $-1 #
vertex $-1 $498 $622 #
straight-curve $-1 0.35734921271975395 45.760458543571325 1.638387250500255 -1 0 0 I I #
coedge $-1 $353 $500 $355 $509 forward $495 $-1 #
straight-curve $-1 0.35734921271975395 17.617683282112615 19.223945311919817 1 0 0 I I #
edge $-1 $623 -21.933730930518493 $358 6.209044330940209 $507 $624 forward 7 unknown #
edge $-1 $357 -87.049161393551856 $623 -69.46360333213228 $504 $625 forward 7 unknown #
point $-1 9.0929196789903415 45.760458543571318 1.6383872505002515 #
point $-1 9.0929196789903415 17.617683282112615 19.223945311919817 #
edge $-1 $626 1 $626 0 $360 $-1 forward 7 unknown #
vertex $-1 $361 $627 #
ellipse-curve $-1 13.880474681019408 29.733995968568195 7.3023923984684496 0 0.52991927123019833 0.84804809178421925 2 0 0 1 I I #
point $-1 15.880474681019408 31.689070912841967 10.431166281210059 #
edge $-1 $628 1 $628 0 $364 $-1 forward 7 unknown #
vertex $-1 $365 $629 #
ellipse-curve $-1 21.061807184062985 29.733995968568195 7.3023923984684496 0 0.52991927123019833 0.84804809178421925 2 0 0 1 I I #
point $-1 23.061807184062985 31.689070912841967 10.431166281210059 #
loop $-1 $-1 $376 $368 #
plane-surface $-1 0 -45.760458543571318 0 0 1 0 0 0 1 forward_v I I I I #
coedge $-1 $524 $371 $373 $528 reversed $237 $-1 #
coedge $-1 $371 $523 $630 $631 reversed $237 $-1 #
coedge $-1 $379 $374 $371 $526 forward $369 $-1 #
edge $-1 $529 -45.016113877986712 $632 -16.873338616528038 $525 $633 forward 7 unknown #
coedge $-1 $373 $372 $532 $634 reversed $149 $-1 #
edge $-1 $635 -1.675811683274863e-014 $529 33.185352970075925 $523 $636 forward 7 unknown #
vertex $-1 $375 $637 #
straight-curve $-1 0.35734921271975395 -17.617683282112647 19.223945311919817 -1 0 0 I I #
coedge $-1 $630 $376 $379 $536 reversed $521 $-1 #
coedge $-1 $376 $630 $527 $634 forward $521 $-1 #
vertex $-1 $377 $638 #
straight-curve $-1 9.0929196789903415 -45.760458543571318 64.438199801483094 0 0 1 I I #
straight-curve $-1 9.0929196789903415 -45.760458543571303 1.638387250500287 0 -0.84804809178421925 -0.52991927123019833 I I #
edge $-1 $632 -7.6635228281113257 $380 9.0929196789903415 $531 $639 forward 7 unknown #
point $-1 9.0929196789903415 -45.760458543571318 19.223945311919817 #
point $-1 9.0929196789903415 -17.617683282112647 19.223945311919817 #
edge $-1 $640 1 $640 0 $383 $-1 forward 7 unknown #
vertex $-1 $384 $641 #
ellipse-curve $-1 -2.8759678260822739 -29.733995968568216 7.3023923984684425 0 -0.52991927123019833 0.84804809178421925 2 0 0 1 I I #
point $-1 -0.87596782608227386 -31.689070912841988 10.431166281210052 #
edge $-1 $642 1 $642 0 $387 $-1 forward 7 unknown #
vertex $-1 $388 $643 #
ellipse-curve $-1 4.3053646769613039 -29.733995968568216 7.3023923984684425 0 -0.52991927123019833 0.84804809178421925 2 0 0 1 I I #
point $-1 6.3053646769613039 -31.689070912841988 10.431166281210052 #
loop $-1 $-1 $552 $391 #
plane-surface $-1 0 0 19.223945311919817 0 0 1 1 0 0 forward_v I I I I #
coedge $-1 $397 $554 $644 $645 reversed $392 $-1 #
coedge $-1 $394 $403 $554 $646 forward $259 $-1 #
edge $-1 $556 8.7355704662705875 $404 25.492012973372269 $394 $647 forward 7 unknown #
coedge $-1 $644 $401 $395 $553 forward $547 $-1 #
edge $-1 $558 -25.492012973372269 $555 -8.7355704662705875 $552 $648 forward 7 unknown #
coedge $-1 $549 $397 $550 $646 reversed $392 $-1 #
vertex $-1 $553 $649 #
vertex $-1 $551 $650 #
straight-curve $-1 9.0929196789903415 -45.760458543571303 1.638387250500287 0 -0.84804809178421925 -0.52991927123019833 I I #
vertex $-1 $402 $651 #
straight-curve $-1 25.849362186092023 -45.760458543571303 1.638387250500287 0 -0.84804809178421925 -0.52991927123019833 I I #
coedge $-1 $401 $644 $403 $562 forward $547 $-1 #
straight-curve $-1 25.849362186092023 -62.633797160099355 19.22394531191982 0 1 0 I I #
edge $-1 $652 9.0929196789903415 $405 25.849362186092023 $403 $653 forward 7 unknown #
point $-1 25.849362186092023 -45.760458543571318 1.6383872505002781 #
point $-1 25.849362186092023 -45.760458543571318 19.223945311919817 #
edge $-1 $654 1 $654 0 $407 $-1 forward 7 unknown #
vertex $-1 $408 $655 #
ellipse-curve $-1 13.880474681019408 -29.733995968568216 7.3023923984684425 0 -0.52991927123019833 0.84804809178421925 2 0 0 1 I I #
point $-1 15.880474681019408 -31.689070912841988 10.431166281210052 #
edge $-1 $656 1 $656 0 $411 $-1 forward 7 unknown #
vertex $-1 $412 $657 #
ellipse-curve $-1 21.061807184062985 -29.733995968568216 7.3023923984684425 0 -0.52991927123019833 0.84804809178421925 2 0 0 1 I I #
point $-1 23.061807184062985 -31.689070912841988 10.431166281210052 #
plane-surface $-1 75.018158513138218 0 0 -1 0 0 0 0 1 forward_v I I I I #
coedge $-1 $420 $418 $422 $578 reversed $281 $-1 #
edge $-1 $433 -19.223945311919817 $580 19.223945311919817 $432 $658 forward 7 unknown #
vertex $-1 $578 $659 #
straight-curve $-1 -75.018158513138218 -45.760458543571318 0 0 0 -1 I I #
edge $-1 $576 -45.760458543571318 $580 45.760458543571318 $574 $660 forward 7 unknown #
straight-curve $-1 0 -45.760458543571318 -19.223945311919817 -1 0 0 I I #
vertex $-1 $425 $661 #
straight-curve $-1 0 45.760458543571318 -19.223945311919817 1 0 0 I I #
point $-1 75.018158513138218 45.760458543571318 -19.223945311919817 #
point $-1 75.018158513138218 -45.760458543571318 -19.223945311919817 #
straight-curve $-1 -75.018158513138218 0 19.223945311919817 0 -1 0 I I #
point $-1 -75.018158513138218 45.760458543571318 19.223945311919817 #
point $-1 -75.018158513138218 -45.760458543571318 19.223945311919817 #
straight-curve $-1 75.018158513138218 -45.760458543571318 0 0 0 -1 I I #
straight-curve $-1 75.018158513138218 45.760458543571318 0 0 0 -1 I I #
plane-surface $-1 -75.018158513138218 0 0 1 0 0 0 0 -1 forward_v I I I I #
edge $-1 $454 1.2919094121714387 $458 10.749407602949045 $457 $662 forward 7 unknown #
edge $-1 $462 -10.749407602949045 $453 -1.2919094121714387 $460 $663 forward 7 unknown #
straight-curve $-1 -56.832319155157535 -16.770066110509287 0 0 0 -1 I I #
edge $-1 $596 -19.223945311919817 $594 19.223945311919817 $464 $664 forward 7 unknown #
vertex $-1 $593 $665 #
straight-curve $-1 -32.962619417073938 -7.3125679197316806 -19.223945311919817 1 0 0 I I #
vertex $-1 $465 $666 #
straight-curve $-1 -32.962619417073938 -7.3125679197316806 19.223945311919817 -1 0 0 I I #
point $-1 -56.832319155157535 -7.3125679197316806 19.223945311919817 #
point $-1 -56.832319155157535 -7.3125679197316806 -19.223945311919817 #
point $-1 -56.832319155157535 -16.770066110509287 -19.223945311919817 #
point $-1 -56.832319155157535 -16.770066110509287 19.223945311919817 #
straight-curve $-1 -75.018158513138218 0 19.223945311919817 0 -1 0 I I #
straight-curve $-1 -75.018158513138218 0 -19.223945311919817 0 1 0 I I #
edge $-1 $605 69.46360333213228 $608 87.049161393551856 $470 $667 forward 7 unknown #
vertex $-1 $484 $668 #
straight-curve $-1 9.0929196789903415 23.826727613052824 19.22394531191982 0 1 0 I I #
edge $-1 $608 -8.7355704662705875 $481 8.0208720408310796 $480 $669 forward 7 unknown #
vertex $-1 $607 $670 #
straight-curve $-1 9.0929196789903415 -31.853680550521759 50.137084935638299 0 -0.84804809178421925 0.52991927123019833 I I #
point $-1 9.0929196789903415 17.617683282112615 19.223945311919817 #
point $-1 -7.6635228281113257 45.760458543571318 1.6383872505002515 #
straight-curve $-1 0 45.760458543571318 19.223945311919817 -1 0 0 I I #
vertex $-1 $487 $671 #
point $-1 -0.87596782608227386 29.733995968568195 7.3023923984684496 #
vertex $-1 $491 $672 #
point $-1 6.3053646769613039 29.733995968568195 7.3023923984684496 #
edge $-1 $502 -25.849362186092023 $623 -9.0929196789903415 $497 $673 forward 7 unknown #
straight-curve $-1 25.849362186092023 45.760458543571318 88.6875486440521 0 0 -1 I I #
straight-curve $-1 25.849362186092023 -31.853680550521759 50.137084935638299 0 -0.84804809178421925 0.52991927123019833 I I #
point $-1 25.849362186092023 17.617683282112615 19.223945311919817 #
point $-1 25.849362186092023 45.760458543571318 19.223945311919817 #
point $-1 25.849362186092023 45.760458543571318 1.6383872505002515 #
vertex $-1 $510 $674 #
straight-curve $-1 9.0929196789903415 23.826727613052824 19.22394531191982 0 -1 0 I I #
straight-curve $-1 9.0929196789903415 45.760458543571318 88.6875486440521 0 0 1 I I #
vertex $-1 $513 $675 #
point $-1 15.880474681019408 29.733995968568195 7.3023923984684496 #
vertex $-1 $517 $676 #
point $-1 23.061807184062985 29.733995968568195 7.3023923984684496 #
coedge $-1 $532 $531 $524 $631 forward $521 $-1 #
edge $-1 $632 45.214254489563274 $635 62.799812550982814 $630 $677 forward 7 unknown #
vertex $-1 $536 $678 #
straight-curve $-1 -7.6635228281113257 -62.633797160099355 19.22394531191982 0 -1 0 I I #
edge $-1 $635 -8.0208720408310796 $533 8.7355704662705875 $532 $679 forward 7 unknown #
vertex $-1 $634 $680 #
straight-curve $-1 -7.6635228281113257 -45.760458543571303 1.638387250500287 0 0.84804809178421925 0.52991927123019833 I I #
point $-1 -7.6635228281113257 -17.617683282112647 19.223945311919817 #
point $-1 9.0929196789903415 -45.760458543571318 1.6383872505002781 #
straight-curve $-1 0 -45.760458543571318 19.223945311919817 1 0 0 I I #
vertex $-1 $539 $681 #
point $-1 -0.87596782608227386 -29.733995968568216 7.3023923984684425 #
vertex $-1 $543 $682 #
point $-1 6.3053646769613039 -29.733995968568216 7.3023923984684425 #
coedge $-1 $560 $552 $549 $645 forward $547 $-1 #
edge $-1 $555 -45.016113877986712 $652 -16.873338616528038 $644 $683 forward 7 unknown #
edge $-1 $652 45.214254489563274 $556 62.799812550982814 $550 $684 forward 7 unknown #
straight-curve $-1 0.35734921271975395 -45.760458543571318 1.6383872505002799 1 0 0 I I #
straight-curve $-1 0.35734921271975395 -17.617683282112647 19.223945311919817 -1 0 0 I I #
point $-1 9.0929196789903415 -17.617683282112647 19.223945311919817 #
point $-1 9.0929196789903415 -45.760458543571318 1.6383872505002781 #
point $-1 25.849362186092023 -17.617683282112647 19.223945311919817 #
vertex $-1 $562 $685 #
straight-curve $-1 0 -45.760458543571318 19.223945311919817 1 0 0 I I #
vertex $-1 $565 $686 #
point $-1 15.880474681019408 -29.733995968568216 7.3023923984684425 #
vertex $-1 $569 $687 #
point $-1 23.061807184062985 -29.733995968568216 7.3023923984684425 #
straight-curve $-1 -75.018158513138218 45.760458543571318 0 0 0 -1 I I #
point $-1 -75.018158513138218 -45.760458543571318 -19.223945311919817 #
straight-curve $-1 -75.018158513138218 0 -19.223945311919817 0 1 0 I I #
point $-1 -75.018158513138218 45.760458543571318 -19.223945311919817 #
straight-curve $-1 -56.832319155157535 -6.0206585075602419 -19.223945311919817 0 -1 0 I I #
straight-curve $-1 -56.832319155157535 -6.0206585075602419 19.223945311919817 0 1 0 I I #
straight-curve $-1 -75.018158513138218 -7.3125679197316806 0 0 0 -1 I I #
point $-1 -75.018158513138218 -7.3125679197316806 -19.223945311919817 #
point $-1 -75.018158513138218 -7.3125679197316806 19.223945311919817 #
straight-curve $-1 9.0929196789903415 45.760458543571318 88.6875486440521 0 0 -1 I I #
point $-1 9.0929196789903415 45.760458543571318 19.223945311919817 #
straight-curve $-1 0.35734921271975395 45.760458543571325 1.638387250500255 -1 0 0 I I #
point $-1 9.0929196789903415 45.760458543571318 1.6383872505002515 #
point $-1 -2.8759678260822739 28.674157426107797 5.606296214900012 #
point $-1 4.3053646769613039 28.674157426107797 5.606296214900012 #
straight-curve $-1 0 45.760458543571318 19.223945311919817 -1 0 0 I I #
point $-1 9.0929196789903415 45.760458543571318 19.223945311919817 #
point $-1 13.880474681019408 28.674157426107797 5.606296214900012 #
point $-1 21.061807184062985 28.674157426107797 5.606296214900012 #
straight-curve $-1 -7.6635228281113257 -45.760458543571318 64.438199801483094 0 0 -1 I I #
point $-1 -7.6635228281113257 -45.760458543571318 19.223945311919817 #
straight-curve $-1 0.35734921271975395 -45.760458543571318 1.6383872505002799 1 0 0 I I #
point $-1 -7.6635228281113257 -45.760458543571318 1.6383872505002781 #
point $-1 -2.8759678260822739 -28.674157426107818 5.6062962149000048 #
point $-1 4.3053646769613039 -28.674157426107818 5.6062962149000048 #
straight-curve $-1 9.0929196789903415 -62.633797160099355 19.22394531191982 0 -1 0 I I #
straight-curve $-1 9.0929196789903415 -45.760458543571318 64.438199801483094 0 0 -1 I I #
point $-1 9.0929196789903415 -45.760458543571318 19.223945311919817 #
point $-1 13.880474681019408 -28.674157426107818 5.6062962149000048 #
point $-1 21.061807184062985 -28.674157426107818 5.6062962149000048 #
End-of-ACIS-data 