500 0 12 0           
7 Unknown 11 ACIS 5.0 NT 24 Thu Mar 25 15:53:00 1999 
-1 9.9999999999999995e-007 1e-010 
body $-1 $12 $-1 $13 #
body $-1 $14 $-1 $15 #
body $-1 $16 $-1 $17 #
body $-1 $18 $-1 $19 #
body $-1 $20 $-1 $21 #
body $-1 $22 $-1 $23 #
body $-1 $24 $-1 $25 #
body $-1 $26 $-1 $27 #
body $-1 $28 $-1 $29 #
body $-1 $30 $-1 $31 #
body $-1 $32 $-1 $33 #
body $-1 $34 $-1 $35 #
lump $-1 $-1 $36 $0 #
transform $-1 1 0 0 0 1 0 0 0 1 65.955381939146093 42.097556825155891 11.430077022808447 1 rotate no_reflect no_shear #
lump $-1 $-1 $37 $1 #
transform $-1 1 0 0 0 1 0 0 0 1 65.955381939146093 42.097556825155891 11.430077022808447 1 rotate no_reflect no_shear #
lump $-1 $-1 $38 $2 #
transform $-1 1 0 0 0 1 0 0 0 1 65.955381939146093 42.097556825155891 11.430077022808447 1 rotate no_reflect no_shear #
lump $-1 $-1 $39 $3 #
transform $-1 1 0 0 0 1 0 0 0 1 65.955381939146093 42.097556825155891 11.430077022808447 1 rotate no_reflect no_shear #
lump $-1 $-1 $40 $4 #
transform $-1 1 0 0 0 1 0 0 0 1 65.955381939146093 42.097556825155891 11.430077022808447 1 rotate no_reflect no_shear #
lump $-1 $-1 $41 $5 #
transform $-1 1 0 0 0 1 0 0 0 1 65.955381939146093 42.097556825155891 11.430077022808447 1 rotate no_reflect no_shear #
lump $-1 $-1 $42 $6 #
transform $-1 1 0 0 0 1 0 0 0 1 65.955381939146093 42.097556825155891 11.430077022808447 1 rotate no_reflect no_shear #
lump $-1 $-1 $43 $7 #
transform $-1 1 0 0 0 1 0 0 0 1 65.955381939146093 42.097556825155891 11.430077022808447 1 rotate no_reflect no_shear #
lump $-1 $-1 $44 $8 #
transform $-1 1 0 0 0 1 0 0 0 1 65.955381939146093 42.097556825155891 11.430077022808447 1 rotate no_reflect no_shear #
lump $-1 $-1 $45 $9 #
transform $-1 1 0 0 0 1 0 0 0 1 65.955381939146093 42.097556825155891 11.430077022808447 1 rotate no_reflect no_shear #
lump $-1 $-1 $46 $10 #
transform $-1 1 0 0 0 1 0 0 0 1 65.955381939146093 42.097556825155891 11.430077022808447 1 rotate no_reflect no_shear #
lump $-1 $-1 $47 $11 #
transform $-1 1 0 0 0 1 0 0 0 1 65.955381939146093 42.097556825155891 11.430077022808447 1 rotate no_reflect no_shear #
shell $-1 $-1 $-1 $48 $-1 $12 #
shell $-1 $-1 $-1 $49 $-1 $14 #
shell $-1 $-1 $-1 $50 $-1 $16 #
shell $-1 $-1 $-1 $51 $-1 $18 #
shell $-1 $-1 $-1 $52 $-1 $20 #
shell $-1 $-1 $-1 $53 $-1 $22 #
shell $-1 $-1 $-1 $54 $-1 $24 #
shell $-1 $-1 $-1 $55 $-1 $26 #
shell $-1 $-1 $-1 $56 $-1 $28 #
shell $-1 $-1 $-1 $57 $-1 $30 #
shell $-1 $-1 $-1 $58 $-1 $32 #
shell $-1 $-1 $-1 $59 $-1 $34 #
face $-1 $60 $61 $36 $-1 $62 forward single #
face $-1 $63 $64 $37 $-1 $65 forward single #
face $-1 $66 $67 $38 $-1 $68 reversed single #
face $-1 $69 $70 $39 $-1 $71 forward single #
face $-1 $72 $73 $40 $-1 $74 forward single #
face $-1 $75 $76 $41 $-1 $77 reversed single #
face $-1 $78 $79 $42 $-1 $80 forward single #
face $-1 $81 $82 $43 $-1 $83 forward single #
face $-1 $84 $85 $44 $-1 $86 reversed single #
face $-1 $87 $88 $45 $-1 $89 forward single #
face $-1 $90 $91 $46 $-1 $92 forward single #
face $-1 $93 $94 $47 $-1 $95 forward single #
face $-1 $96 $97 $36 $-1 $98 reversed single #
loop $-1 $-1 $99 $48 #
plane-surface $-1 0 0 11.430077022808447 0 0 1 1 0 0 forward_v I I I I #
face $-1 $100 $101 $37 $-1 $102 reversed single #
loop $-1 $-1 $103 $49 #
plane-surface $-1 0 -38.095979892141997 -6.2789204507752325 0 0 1 1 0 0 forward_v I I I I #
face $-1 $104 $105 $38 $-1 $106 reversed single #
loop $-1 $-1 $107 $50 #
plane-surface $-1 -147.16775845823358 -17.07903974718176 108.11544304881131 0 1 0 -0.61566148304635926 0 0.78801074757464917 forward_v I I I I #
face $-1 $108 $109 $39 $-1 $110 forward single #
loop $-1 $111 $112 $51 #
cone-surface $-1 -59.781758965449868 -11.674824816068408 5.845602734104852 0.61566148304635926 0 -0.78801074757464917 1.1820161213619738 0 0.92349222456953894 1 I I 0 1 1.5 forward I I I I #
face $-1 $113 $114 $40 $-1 $115 forward single #
loop $-1 $116 $117 $52 #
cone-surface $-1 -59.781758965449868 -3.568502419398385 5.845602734104852 0.61566148304635926 0 -0.78801074757464917 1.1820161213619738 0 0.92349222456953894 1 I I 0 1 1.5 forward I I I I #
face $-1 $118 $119 $41 $-1 $120 reversed single #
loop $-1 $-1 $121 $53 #
plane-surface $-1 -147.16775845823358 6.1674413543128086 108.11544304881131 0 1 0 -0.61566148304635926 0 0.78801074757464917 forward_v I I I I #
face $-1 $122 $123 $42 $-1 $124 forward single #
loop $-1 $125 $126 $54 #
cone-surface $-1 -59.781758965449868 11.571656285426158 5.845602734104852 0.61566148304635926 0 -0.78801074757464917 1.1820161213619738 0 0.92349222456953894 1 I I 0 1 1.5 forward I I I I #
face $-1 $127 $128 $43 $-1 $129 forward single #
loop $-1 $130 $131 $55 #
cone-surface $-1 -59.781758965449868 19.677978682096182 5.845602734104852 0.61566148304635926 0 -0.78801074757464917 1.1820161213619738 0 0.92349222456953894 1 I I 0 1 1.5 forward I I I I #
face $-1 $132 $133 $44 $-1 $134 reversed single #
loop $-1 $-1 $135 $56 #
plane-surface $-1 33.561317564065774 -9.8747217898023507 190.33706589794144 0 -1 0 -0.57357644374324357 0 -0.81915203911291934 forward_v I I I I #
face $-1 $136 $137 $45 $-1 $138 forward single #
loop $-1 $139 $140 $57 #
cone-surface $-1 62.234691039355027 -17.823965888955296 8.616056416512798 -0.57357644374324357 0 -0.81915203911291934 0.20478800977822983 0 -0.14339411093581089 1 I I 0 1 0.25 forward I I I I #
face $-1 $141 $142 $46 $-1 $143 forward single #
loop $-1 $144 $145 $58 #
cone-surface $-1 62.234691039355027 -14.842999351772942 8.616056416512798 -0.57357644374324357 0 -0.81915203911291934 0.20478800977822983 0 -0.14339411093581089 1 I I 0 1 0.25 forward I I I I #
face $-1 $146 $147 $47 $-1 $148 forward single #
loop $-1 $149 $150 $59 #
cone-surface $-1 62.234691039355027 -11.862032814590588 8.616056416512798 -0.57357644374324357 0 -0.81915203911291934 0.20478800977822983 0 -0.14339411093581089 1 I I 0 1 0.25 forward I I I I #
face $-1 $151 $152 $36 $-1 $153 reversed single #
loop $-1 $-1 $154 $60 #
plane-surface $-1 0 0 -11.430077022808447 0 0 1 1 0 0 forward_v I I I I #
coedge $-1 $155 $156 $157 $158 forward $61 $-1 #
face $-1 $159 $160 $37 $-1 $161 reversed single #
loop $-1 $-1 $162 $63 #
plane-surface $-1 0 -34.094402959128104 -8.8544987367918395 0 -1 0 0 0 -1 forward_v I I I I #
coedge $-1 $163 $164 $165 $166 reversed $64 $-1 #
face $-1 $167 $168 $38 $-1 $169 reversed single #
loop $-1 $-1 $170 $66 #
plane-surface $-1 -65.955381939146093 -7.6216636177333967 4.1683433919352666 -0.61566148304635926 0 0.78801074757464917 0.78801074757464917 0 0.61566148304635926 forward_v I I I I #
coedge $-1 $171 $172 $173 $174 reversed $67 $-1 #
face $-1 $-1 $175 $39 $-1 $176 forward single #
loop $-1 $177 $178 $69 #
cone-surface $-1 -57.793687383640872 -11.674824816068408 3.3009872001568663 0.61566148304635926 0 -0.78801074757464917 0.59100806068098688 0 0.46174611228476947 1 I I -0.70710678118654757 0.70710678118654757 0.75 forward I I I I #
loop $-1 $-1 $179 $51 #
coedge $-1 $112 $112 $180 $181 reversed $70 $-1 #
face $-1 $-1 $182 $40 $-1 $183 forward single #
loop $-1 $184 $185 $72 #
cone-surface $-1 -57.793687383640872 -3.568502419398385 3.3009872001568663 0.61566148304635926 0 -0.78801074757464917 0.59100806068098688 0 0.46174611228476947 1 I I -0.70710678118654757 0.70710678118654757 0.75 forward I I I I #
loop $-1 $-1 $186 $52 #
coedge $-1 $117 $117 $187 $188 reversed $73 $-1 #
face $-1 $189 $190 $41 $-1 $191 reversed single #
loop $-1 $-1 $192 $75 #
plane-surface $-1 -65.955381939146093 15.62481748376117 4.1683433919352666 -0.61566148304635926 0 0.78801074757464917 0.78801074757464917 0 0.61566148304635926 forward_v I I I I #
coedge $-1 $193 $194 $195 $196 reversed $76 $-1 #
face $-1 $-1 $197 $42 $-1 $198 forward single #
loop $-1 $199 $200 $78 #
cone-surface $-1 -57.793687383640872 11.571656285426158 3.3009872001568663 0.61566148304635926 0 -0.78801074757464917 0.59100806068098688 0 0.46174611228476947 1 I I -0.70710678118654757 0.70710678118654757 0.75 forward I I I I #
loop $-1 $-1 $201 $54 #
coedge $-1 $126 $126 $202 $203 reversed $79 $-1 #
face $-1 $-1 $204 $43 $-1 $205 forward single #
loop $-1 $206 $207 $81 #
cone-surface $-1 -57.793687383640872 19.677978682096182 3.3009872001568663 0.61566148304635926 0 -0.78801074757464917 0.59100806068098688 0 0.46174611228476947 1 I I -0.70710678118654757 0.70710678118654757 0.75 forward I I I I #
loop $-1 $-1 $208 $55 #
coedge $-1 $131 $131 $209 $210 reversed $82 $-1 #
face $-1 $211 $212 $44 $-1 $213 reversed single #
loop $-1 $-1 $214 $84 #
plane-surface $-1 -42.099589272699774 -14.842999351772942 82.282094686095576 0.57357644374324357 0 0.81915203911291934 0.81915203911291934 0 -0.57357644374324357 forward_v I I I I #
coedge $-1 $215 $216 $217 $218 reversed $85 $-1 #
face $-1 $-1 $219 $45 $-1 $220 forward single #
loop $-1 $221 $222 $87 #
cone-surface $-1 61.876205762015502 -17.823965888955296 8.1040863920672237 -0.57357644374324357 0 -0.81915203911291934 0.10239400488911492 0 -0.071697055467905446 1 I I -0.70710678118654746 0.70710678118654746 0.125 forward I I I I #
loop $-1 $-1 $223 $57 #
coedge $-1 $140 $140 $224 $225 reversed $88 $-1 #
face $-1 $-1 $226 $46 $-1 $227 forward single #
loop $-1 $228 $229 $90 #
cone-surface $-1 61.876205762015502 -14.842999351772942 8.1040863920672237 -0.57357644374324357 0 -0.81915203911291934 0.10239400488911492 0 -0.071697055467905446 1 I I -0.70710678118654746 0.70710678118654746 0.125 forward I I I I #
loop $-1 $-1 $230 $58 #
coedge $-1 $145 $145 $231 $232 reversed $91 $-1 #
face $-1 $-1 $233 $47 $-1 $234 forward single #
loop $-1 $235 $236 $93 #
cone-surface $-1 61.876205762015502 -11.862032814590588 8.1040863920672237 -0.57357644374324357 0 -0.81915203911291934 0.10239400488911492 0 -0.071697055467905446 1 I I -0.70710678118654746 0.70710678118654746 0.125 forward I I I I #
loop $-1 $-1 $237 $59 #
coedge $-1 $150 $150 $238 $239 reversed $94 $-1 #
face $-1 $240 $241 $36 $-1 $242 reversed single #
loop $-1 $-1 $243 $96 #
plane-surface $-1 0 -42.097556825155891 0 0 1 0 0 0 1 forward_v I I I I #
coedge $-1 $244 $245 $246 $247 forward $97 $-1 #
coedge $-1 $248 $99 $249 $250 forward $61 $-1 #
coedge $-1 $99 $248 $251 $252 forward $61 $-1 #
coedge $-1 $253 $254 $99 $158 reversed $255 $-1 #
edge $-1 $256 -42.097556825155891 $257 42.097556825155891 $157 $258 forward 7 unknown #
face $-1 $259 $260 $37 $-1 $261 reversed single #
loop $-1 $-1 $262 $100 #
plane-surface $-1 0 0 -11.430077022808447 0 0 1 1 0 0 forward_v I I I I #
coedge $-1 $263 $264 $265 $266 reversed $101 $-1 #
coedge $-1 $267 $103 $264 $268 forward $64 $-1 #
coedge $-1 $103 $267 $269 $270 reversed $64 $-1 #
coedge $-1 $271 $265 $103 $166 forward $260 $-1 #
edge $-1 $272 15.046413013057105 $273 23.049566879084892 $165 $274 forward 7 unknown #
face $-1 $275 $276 $38 $-1 $277 forward single #
loop $-1 $-1 $278 $104 #
plane-surface $-1 -147.16775845823358 1.8357125117149646 108.11544304881131 0 -1 0 0.61566148304635926 0 -0.78801074757464917 forward_v I I I I #
coedge $-1 $279 $280 $281 $282 reversed $105 $-1 #
coedge $-1 $172 $107 $283 $284 reversed $67 $-1 #
coedge $-1 $107 $171 $279 $285 reversed $67 $-1 #
coedge $-1 $281 $286 $107 $174 forward $276 $-1 #
edge $-1 $287 7.6284972899706958 $288 16.923092298314685 $173 $289 forward 7 unknown #
loop $-1 $-1 $180 $108 #
plane-surface $-1 -65.955381939146093 -7.6216636177333967 4.1683433919352666 -0.61566148304635926 0 0.78801074757464917 0.78801074757464917 0 0.61566148304635926 forward_v I I I I #
loop $-1 $-1 $290 $69 #
coedge $-1 $178 $178 $179 $291 reversed $109 $-1 #
coedge $-1 $179 $179 $178 $291 forward $111 $-1 #
coedge $-1 $180 $180 $112 $181 forward $175 $-1 #
edge $-1 $292 0 $292 6.2831853071796004 $180 $293 forward 7 unknown #
loop $-1 $-1 $187 $113 #
plane-surface $-1 -65.955381939146093 -7.6216636177333967 4.1683433919352666 -0.61566148304635926 0 0.78801074757464917 0.78801074757464917 0 0.61566148304635926 forward_v I I I I #
loop $-1 $-1 $294 $72 #
coedge $-1 $185 $185 $186 $295 reversed $114 $-1 #
coedge $-1 $186 $186 $185 $295 forward $116 $-1 #
coedge $-1 $187 $187 $117 $188 forward $182 $-1 #
edge $-1 $296 0 $296 6.2831853071796004 $187 $297 forward 7 unknown #
face $-1 $298 $299 $41 $-1 $300 forward single #
loop $-1 $-1 $301 $118 #
plane-surface $-1 -147.16775845823358 25.082193613209533 108.11544304881131 0 -1 0 0.61566148304635926 0 -0.78801074757464917 forward_v I I I I #
coedge $-1 $302 $303 $304 $305 reversed $119 $-1 #
coedge $-1 $194 $121 $306 $307 reversed $76 $-1 #
coedge $-1 $121 $193 $302 $308 reversed $76 $-1 #
coedge $-1 $304 $309 $121 $196 forward $299 $-1 #
edge $-1 $310 7.6284972899706958 $311 16.923092298314685 $195 $312 forward 7 unknown #
loop $-1 $-1 $202 $122 #
plane-surface $-1 -65.955381939146093 15.62481748376117 4.1683433919352666 -0.61566148304635926 0 0.78801074757464917 0.78801074757464917 0 0.61566148304635926 forward_v I I I I #
loop $-1 $-1 $313 $78 #
coedge $-1 $200 $200 $201 $314 reversed $123 $-1 #
coedge $-1 $201 $201 $200 $314 forward $125 $-1 #
coedge $-1 $202 $202 $126 $203 forward $197 $-1 #
edge $-1 $315 0 $315 6.2831853071796004 $202 $316 forward 7 unknown #
loop $-1 $-1 $209 $127 #
plane-surface $-1 -65.955381939146093 15.62481748376117 4.1683433919352666 -0.61566148304635926 0 0.78801074757464917 0.78801074757464917 0 0.61566148304635926 forward_v I I I I #
loop $-1 $-1 $317 $81 #
coedge $-1 $207 $207 $208 $318 reversed $128 $-1 #
coedge $-1 $208 $208 $207 $318 forward $130 $-1 #
coedge $-1 $209 $209 $131 $210 forward $204 $-1 #
edge $-1 $319 0 $319 6.2831853071796004 $209 $320 forward 7 unknown #
face $-1 $321 $322 $44 $-1 $323 reversed single #
loop $-1 $-1 $324 $132 #
plane-surface $-1 33.561317564065774 -19.811276913743534 190.33706589794144 0 1 0 0.57357644374324357 0 0.81915203911291934 forward_v I I I I #
coedge $-1 $325 $326 $327 $328 reversed $133 $-1 #
coedge $-1 $216 $135 $329 $330 reversed $85 $-1 #
coedge $-1 $135 $215 $325 $331 reversed $85 $-1 #
coedge $-1 $327 $332 $135 $218 forward $333 $-1 #
edge $-1 $334 -49.174723157113206 $335 -42.306917801274295 $217 $336 forward 7 unknown #
loop $-1 $-1 $224 $136 #
plane-surface $-1 -42.099589272699774 -14.842999351772942 82.282094686095576 0.57357644374324357 0 0.81915203911291934 0.81915203911291934 0 -0.57357644374324357 forward_v I I I I #
loop $-1 $-1 $337 $87 #
coedge $-1 $222 $222 $223 $338 reversed $137 $-1 #
coedge $-1 $223 $223 $222 $338 forward $139 $-1 #
coedge $-1 $224 $224 $140 $225 forward $219 $-1 #
edge $-1 $339 0 $339 6.2831853071796004 $224 $340 forward 7 unknown #
loop $-1 $-1 $231 $141 #
plane-surface $-1 -42.099589272699774 -14.842999351772942 82.282094686095576 0.57357644374324357 0 0.81915203911291934 0.81915203911291934 0 -0.57357644374324357 forward_v I I I I #
loop $-1 $-1 $341 $90 #
coedge $-1 $229 $229 $230 $342 reversed $142 $-1 #
coedge $-1 $230 $230 $229 $342 forward $144 $-1 #
coedge $-1 $231 $231 $145 $232 forward $226 $-1 #
edge $-1 $343 0 $343 6.2831853071796004 $231 $344 forward 7 unknown #
loop $-1 $-1 $238 $146 #
plane-surface $-1 -42.099589272699774 -14.842999351772942 82.282094686095576 0.57357644374324357 0 0.81915203911291934 0.81915203911291934 0 -0.57357644374324357 forward_v I I I I #
loop $-1 $-1 $345 $93 #
coedge $-1 $236 $236 $237 $346 reversed $147 $-1 #
coedge $-1 $237 $237 $236 $346 forward $149 $-1 #
coedge $-1 $238 $238 $150 $239 forward $233 $-1 #
edge $-1 $347 0 $347 6.2831853071796004 $238 $348 forward 7 unknown #
face $-1 $349 $350 $36 $-1 $351 reversed single #
loop $-1 $-1 $352 $151 #
plane-surface $-1 -65.955381939146093 0 0 1 0 0 0 0 -1 forward_v I I I I #
coedge $-1 $353 $251 $354 $355 forward $152 $-1 #
coedge $-1 $356 $154 $353 $357 forward $97 $-1 #
coedge $-1 $154 $356 $358 $359 forward $97 $-1 #
coedge $-1 $254 $253 $154 $247 reversed $255 $-1 #
edge $-1 $360 -42.097556825155891 $361 42.097556825155891 $246 $362 forward 7 unknown #
coedge $-1 $156 $155 $363 $364 forward $61 $-1 #
coedge $-1 $365 $366 $155 $250 reversed $350 $-1 #
edge $-1 $257 -65.955381939146093 $367 65.955381939146093 $249 $368 forward 7 unknown #
coedge $-1 $243 $369 $156 $252 reversed $152 $-1 #
edge $-1 $370 -65.955381939146093 $256 65.955381939146093 $251 $371 forward 7 unknown #
coedge $-1 $246 $157 $369 $372 forward $255 $-1 #
coedge $-1 $157 $246 $365 $373 reversed $255 $-1 #
loop $-1 $-1 $253 $349 #
vertex $-1 $158 $374 #
vertex $-1 $158 $375 #
straight-curve $-1 65.955381939146093 0 11.430077022808447 0 1 0 I I #
face $-1 $376 $377 $37 $-1 $378 reversed single #
loop $-1 $-1 $265 $159 #
plane-surface $-1 65.955381939146093 0 0 -1 0 0 0 0 1 forward_v I I I I #
coedge $-1 $379 $380 $263 $381 forward $160 $-1 #
coedge $-1 $382 $162 $262 $381 reversed $101 $-1 #
coedge $-1 $162 $382 $163 $268 reversed $101 $-1 #
coedge $-1 $165 $383 $162 $266 forward $260 $-1 #
edge $-1 $384 -7.0028276544125276 $272 -1.8516710823793128 $265 $385 forward 7 unknown #
coedge $-1 $164 $163 $386 $387 reversed $64 $-1 #
edge $-1 $272 -65.955381939146093 $388 65.955381939146093 $264 $389 forward 7 unknown #
coedge $-1 $390 $391 $164 $270 forward $377 $-1 #
edge $-1 $273 -65.955381939146093 $392 65.955381939146093 $269 $393 forward 7 unknown #
coedge $-1 $383 $165 $391 $394 forward $260 $-1 #
vertex $-1 $166 $395 #
vertex $-1 $394 $396 #
straight-curve $-1 65.955381939146093 -19.047989946070999 -6.2789204507752325 0 -1 0 I I #
face $-1 $-1 $397 $38 $-1 $398 reversed single #
loop $-1 $-1 $173 $167 #
plane-surface $-1 0 0 11.430077022808447 0 0 1 1 0 0 forward_v I I I I #
coedge $-1 $399 $400 $401 $402 reversed $168 $-1 #
coedge $-1 $403 $170 $172 $285 forward $105 $-1 #
coedge $-1 $170 $403 $399 $404 forward $105 $-1 #
coedge $-1 $401 $173 $170 $282 forward $276 $-1 #
edge $-1 $288 -13.268207938315062 $405 5.646544320581663 $281 $406 forward 7 unknown #
coedge $-1 $407 $408 $171 $284 forward $397 $-1 #
edge $-1 $409 -49.889378132470391 $287 -42.62764450159721 $283 $410 forward 7 unknown #
edge $-1 $288 -11.795010457599755 $409 0 $172 $411 forward 7 unknown #
coedge $-1 $173 $401 $407 $412 forward $276 $-1 #
vertex $-1 $284 $413 #
vertex $-1 $174 $414 #
straight-curve $-1 -73.583879229116789 -17.07903974718176 11.430077022808447 1 0 0 I I #
coedge $-1 $290 $290 $-1 $415 reversed $177 $-1 #
edge $-1 $416 0 $416 6.2831853071796004 $178 $417 forward 7 unknown #
vertex $-1 $181 $418 #
ellipse-curve $-1 -61.308084434974099 -11.674824816068408 7.7992102073718588 -0.61566148304635926 0 0.78801074757464917 1.1820161213619738 0 0.92349222456953894 1 I I #
coedge $-1 $294 $294 $-1 $419 reversed $184 $-1 #
edge $-1 $420 0 $420 6.2831853071796004 $185 $421 forward 7 unknown #
vertex $-1 $188 $422 #
ellipse-curve $-1 -61.308084434974099 -3.568502419398385 7.7992102073718588 -0.61566148304635926 0 0.78801074757464917 1.1820161213619738 0 0.92349222456953894 1 I I #
face $-1 $-1 $423 $41 $-1 $424 reversed single #
loop $-1 $-1 $195 $189 #
plane-surface $-1 0 0 11.430077022808447 0 0 1 1 0 0 forward_v I I I I #
coedge $-1 $425 $426 $427 $428 reversed $190 $-1 #
coedge $-1 $429 $192 $194 $308 forward $119 $-1 #
coedge $-1 $192 $429 $425 $430 forward $119 $-1 #
coedge $-1 $427 $195 $192 $305 forward $299 $-1 #
edge $-1 $311 -1.6449673875677764 $431 17.269784871328948 $304 $432 forward 7 unknown #
coedge $-1 $433 $434 $193 $307 forward $423 $-1 #
edge $-1 $435 -49.889378132470391 $310 -42.62764450159721 $306 $436 forward 7 unknown #
edge $-1 $311 -11.795010457599755 $435 0 $194 $437 forward 7 unknown #
coedge $-1 $195 $427 $433 $438 forward $299 $-1 #
vertex $-1 $196 $439 #
vertex $-1 $196 $440 #
straight-curve $-1 -73.583879229116789 6.1674413543128086 11.430077022808447 1 0 0 I I #
coedge $-1 $313 $313 $-1 $441 reversed $199 $-1 #
edge $-1 $442 0 $442 6.2831853071796004 $200 $443 forward 7 unknown #
vertex $-1 $203 $444 #
ellipse-curve $-1 -61.308084434974099 11.571656285426158 7.7992102073718588 -0.61566148304635926 0 0.78801074757464917 1.1820161213619738 0 0.92349222456953894 1 I I #
coedge $-1 $317 $317 $-1 $445 reversed $206 $-1 #
edge $-1 $446 0 $446 6.2831853071796004 $207 $447 forward 7 unknown #
vertex $-1 $210 $448 #
ellipse-curve $-1 -61.308084434974099 19.677978682096182 7.7992102073718588 -0.61566148304635926 0 0.78801074757464917 1.1820161213619738 0 0.92349222456953894 1 I I #
face $-1 $-1 $333 $44 $-1 $449 forward single #
loop $-1 $-1 $450 $211 #
plane-surface $-1 65.955381939146093 0 0 -1 0 0 0 0 1 forward_v I I I I #
coedge $-1 $451 $452 $453 $454 reversed $212 $-1 #
coedge $-1 $455 $214 $216 $331 forward $133 $-1 #
coedge $-1 $214 $455 $451 $456 forward $133 $-1 #
coedge $-1 $453 $217 $214 $328 forward $333 $-1 #
edge $-1 $335 2.4532221139158796 $457 12.389777237857063 $327 $458 forward 7 unknown #
coedge $-1 $459 $460 $215 $330 forward $322 $-1 #
edge $-1 $461 -88.547345099640694 $334 -83.738455926162274 $329 $462 forward 7 unknown #
edge $-1 $335 123.52672156634698 $461 131.91076387829219 $216 $463 forward 7 unknown #
coedge $-1 $217 $453 $459 $464 forward $333 $-1 #
loop $-1 $-1 $453 $321 #
vertex $-1 $330 $465 #
vertex $-1 $218 $466 #
straight-curve $-1 16.780658782032887 -9.8747217898023507 11.430077022808447 -1 0 0 I I #
coedge $-1 $337 $337 $-1 $467 reversed $221 $-1 #
edge $-1 $468 0 $468 6.2831853071796004 $222 $469 forward 7 unknown #
vertex $-1 $225 $470 #
ellipse-curve $-1 62.521479261226631 -17.823965888955296 9.0256324360692339 0.57357644374324357 0 0.81915203911291934 0.20478800977822983 0 -0.14339411093581089 1 I I #
coedge $-1 $341 $341 $-1 $471 reversed $228 $-1 #
edge $-1 $472 0 $472 6.2831853071796004 $229 $473 forward 7 unknown #
vertex $-1 $232 $474 #
ellipse-curve $-1 62.521479261226631 -14.842999351772942 9.0256324360692339 0.57357644374324357 0 0.81915203911291934 0.20478800977822983 0 -0.14339411093581089 1 I I #
coedge $-1 $345 $345 $-1 $475 reversed $235 $-1 #
edge $-1 $476 0 $476 6.2831853071796004 $236 $477 forward 7 unknown #
vertex $-1 $239 $478 #
ellipse-curve $-1 62.521479261226631 -11.862032814590588 9.0256324360692339 0.57357644374324357 0 0.81915203911291934 0.20478800977822983 0 -0.14339411093581089 1 I I #
face $-1 $-1 $255 $36 $-1 $479 reversed single #
loop $-1 $-1 $365 $240 #
plane-surface $-1 0 42.097556825155891 0 0 -1 0 0 0 -1 forward_v I I I I #
coedge $-1 $480 $363 $366 $481 forward $241 $-1 #
coedge $-1 $369 $243 $244 $357 reversed $152 $-1 #
coedge $-1 $363 $480 $243 $355 reversed $241 $-1 #
edge $-1 $370 -11.430077022808447 $482 11.430077022808447 $354 $483 forward 7 unknown #
coedge $-1 $245 $244 $480 $484 forward $97 $-1 #
edge $-1 $361 -65.955381939146093 $482 65.955381939146093 $353 $485 forward 7 unknown #
coedge $-1 $366 $365 $245 $359 reversed $350 $-1 #
edge $-1 $486 -65.955381939146093 $360 65.955381939146093 $358 $487 forward 7 unknown #
vertex $-1 $247 $488 #
vertex $-1 $372 $489 #
straight-curve $-1 65.955381939146093 0 -11.430077022808447 0 -1 0 I I #
coedge $-1 $352 $354 $248 $364 reversed $241 $-1 #
edge $-1 $367 -42.097556825155891 $370 42.097556825155891 $363 $490 forward 7 unknown #
coedge $-1 $358 $249 $254 $373 forward $350 $-1 #
coedge $-1 $249 $358 $352 $481 reversed $350 $-1 #
vertex $-1 $250 $491 #
straight-curve $-1 0 42.097556825155891 11.430077022808447 -1 0 0 I I #
coedge $-1 $251 $353 $253 $372 reversed $152 $-1 #
vertex $-1 $364 $492 #
straight-curve $-1 0 -42.097556825155891 11.430077022808447 1 0 0 I I #
edge $-1 $256 -11.430077022808447 $361 11.430077022808447 $253 $493 forward 7 unknown #
edge $-1 $257 -11.430077022808447 $360 11.430077022808447 $254 $494 forward 7 unknown #
point $-1 65.955381939146093 -42.097556825155891 11.430077022808447 #
point $-1 65.955381939146093 42.097556825155891 11.430077022808447 #
face $-1 $-1 $495 $37 $-1 $496 reversed single #
loop $-1 $-1 $269 $259 #
plane-surface $-1 0 -42.097556825155891 0 0 1 0 0 0 1 forward_v I I I I #
coedge $-1 $497 $262 $383 $498 forward $160 $-1 #
coedge $-1 $262 $497 $499 $500 forward $160 $-1 #
edge $-1 $501 -65.955381939146093 $384 65.955381939146093 $262 $502 forward 7 unknown #
coedge $-1 $264 $263 $503 $504 reversed $101 $-1 #
coedge $-1 $265 $271 $379 $498 reversed $260 $-1 #
vertex $-1 $498 $505 #
straight-curve $-1 65.955381939146093 -34.094402959128104 -4.4272493683959198 0 0 1 I I #
coedge $-1 $503 $506 $267 $387 forward $495 $-1 #
edge $-1 $392 -23.049566879084892 $388 -15.046413013057105 $386 $507 forward 7 unknown #
vertex $-1 $387 $508 #
straight-curve $-1 0 -34.094402959128104 -6.2789204507752325 -1 0 0 I I #
coedge $-1 $509 $269 $506 $510 forward $377 $-1 #
coedge $-1 $269 $509 $271 $394 reversed $377 $-1 #
vertex $-1 $510 $511 #
straight-curve $-1 0 -42.097556825155891 -6.2789204507752325 -1 0 0 I I #
edge $-1 $273 6.2789204507752325 $512 11.430077022808447 $271 $513 forward 7 unknown #
point $-1 65.955381939146093 -34.094402959128104 -6.2789204507752325 #
point $-1 65.955381939146093 -42.097556825155891 -6.2789204507752325 #
loop $-1 $-1 $283 $275 #
plane-surface $-1 -65.955381939146093 0 0 1 0 0 0 0 -1 forward_v I I I I #
coedge $-1 $400 $278 $280 $404 reversed $168 $-1 #
coedge $-1 $278 $399 $514 $515 reversed $168 $-1 #
coedge $-1 $286 $281 $278 $402 forward $276 $-1 #
edge $-1 $405 -16.923092298314685 $516 -7.6284972899706958 $401 $517 forward 7 unknown #
coedge $-1 $280 $279 $408 $518 reversed $105 $-1 #
edge $-1 $519 0 $405 11.795010457599755 $399 $520 forward 7 unknown #
vertex $-1 $282 $521 #
straight-curve $-1 -56.660786930802104 -3.8108318088666984 11.430077022808446 0 1 0 I I #
coedge $-1 $514 $283 $286 $412 reversed $397 $-1 #
coedge $-1 $283 $514 $403 $518 forward $397 $-1 #
vertex $-1 $284 $522 #
straight-curve $-1 -65.955381939146093 -17.07903974718176 54.057721524405657 0 0 1 I I #
straight-curve $-1 -65.955381939146093 -17.07903974718176 4.1683433919352666 -0.78801074757464917 0 -0.61566148304635926 I I #
edge $-1 $516 -1.8357125117149646 $287 17.07903974718176 $407 $523 forward 7 unknown #
point $-1 -65.955381939146093 -17.07903974718176 11.430077022808447 #
point $-1 -56.660786930802104 -17.07903974718176 11.430077022808447 #
edge $-1 $524 1 $524 0 $290 $-1 forward 7 unknown #
vertex $-1 $291 $525 #
ellipse-curve $-1 -58.255433495925644 -11.674824816068408 3.8919952608378532 -0.61566148304635926 0 0.78801074757464917 1.1820161213619738 0 0.92349222456953894 1 I I #
point $-1 -60.126068313612116 -11.674824816068408 8.7227024319413893 #
edge $-1 $526 1 $526 0 $294 $-1 forward 7 unknown #
vertex $-1 $295 $527 #
ellipse-curve $-1 -58.255433495925644 -3.568502419398385 3.8919952608378532 -0.61566148304635926 0 0.78801074757464917 1.1820161213619738 0 0.92349222456953894 1 I I #
point $-1 -60.126068313612116 -3.568502419398385 8.7227024319413893 #
loop $-1 $-1 $306 $298 #
plane-surface $-1 -65.955381939146093 0 0 1 0 0 0 0 -1 forward_v I I I I #
coedge $-1 $426 $301 $303 $430 reversed $190 $-1 #
coedge $-1 $301 $425 $528 $529 reversed $190 $-1 #
coedge $-1 $309 $304 $301 $428 forward $299 $-1 #
edge $-1 $431 -16.923092298314685 $530 -7.6284972899706958 $427 $531 forward 7 unknown #
coedge $-1 $303 $302 $434 $532 reversed $119 $-1 #
edge $-1 $533 0 $431 11.795010457599755 $425 $534 forward 7 unknown #
vertex $-1 $305 $535 #
straight-curve $-1 -56.660786930802104 7.812408741880585 11.430077022808446 0 1 0 I I #
coedge $-1 $528 $306 $309 $438 reversed $423 $-1 #
coedge $-1 $306 $528 $429 $532 forward $423 $-1 #
vertex $-1 $307 $536 #
straight-curve $-1 -65.955381939146093 6.1674413543128086 54.057721524405657 0 0 1 I I #
straight-curve $-1 -65.955381939146093 6.1674413543128086 4.1683433919352666 -0.78801074757464917 0 -0.61566148304635926 I I #
edge $-1 $530 -25.082193613209533 $310 -6.1674413543128086 $433 $537 forward 7 unknown #
point $-1 -65.955381939146093 6.1674413543128086 11.430077022808447 #
point $-1 -56.660786930802104 6.1674413543128086 11.430077022808447 #
edge $-1 $538 1 $538 0 $313 $-1 forward 7 unknown #
vertex $-1 $314 $539 #
ellipse-curve $-1 -58.255433495925644 11.571656285426158 3.8919952608378532 -0.61566148304635926 0 0.78801074757464917 1.1820161213619738 0 0.92349222456953894 1 I I #
point $-1 -60.126068313612116 11.571656285426158 8.7227024319413893 #
edge $-1 $540 1 $540 0 $317 $-1 forward 7 unknown #
vertex $-1 $318 $541 #
ellipse-curve $-1 -58.255433495925644 19.677978682096182 3.8919952608378532 -0.61566148304635926 0 0.78801074757464917 1.1820161213619738 0 0.92349222456953894 1 I I #
point $-1 -60.126068313612116 19.677978682096182 8.7227024319413893 #
plane-surface $-1 0 0 11.430077022808447 0 0 1 1 0 0 forward_v I I I I #
coedge $-1 $460 $459 $452 $542 forward $322 $-1 #
coedge $-1 $452 $324 $326 $456 reversed $212 $-1 #
coedge $-1 $324 $451 $450 $542 reversed $212 $-1 #
coedge $-1 $332 $327 $324 $454 forward $333 $-1 #
edge $-1 $457 42.306917801274295 $543 49.174723157113206 $453 $544 forward 7 unknown #
coedge $-1 $326 $325 $460 $545 reversed $133 $-1 #
edge $-1 $546 -131.91076387829219 $457 -123.52672156634698 $451 $547 forward 7 unknown #
vertex $-1 $328 $548 #
straight-curve $-1 59.087576583307168 -7.4214996758864711 11.430077022808455 0 -1 0 I I #
coedge $-1 $450 $329 $332 $464 reversed $322 $-1 #
coedge $-1 $329 $450 $455 $545 forward $322 $-1 #
vertex $-1 $330 $549 #
straight-curve $-1 65.955381939146093 -9.8747217898023507 95.168532948970721 0 0 1 I I #
straight-curve $-1 -42.099589272699774 -9.8747217898023507 82.282094686095576 0.81915203911291934 0 -0.57357644374324357 I I #
edge $-1 $543 -19.811276913743534 $334 -9.8747217898023507 $459 $550 forward 7 unknown #
point $-1 65.955381939146093 -9.8747217898023507 11.430077022808447 #
point $-1 59.087576583307182 -9.8747217898023507 11.430077022808447 #
edge $-1 $551 1 $551 0 $337 $-1 forward 7 unknown #
vertex $-1 $338 $552 #
ellipse-curve $-1 61.94790281748341 -17.823965888955296 8.2064803969563389 0.57357644374324357 0 0.81915203911291934 0.20478800977822983 0 -0.14339411093581089 1 I I #
point $-1 62.726267271004879 -17.823965888955296 8.8822383251334465 #
edge $-1 $553 1 $553 0 $341 $-1 forward 7 unknown #
vertex $-1 $342 $554 #
ellipse-curve $-1 61.94790281748341 -14.842999351772942 8.2064803969563389 0.57357644374324357 0 0.81915203911291934 0.20478800977822983 0 -0.14339411093581089 1 I I #
point $-1 62.726267271004879 -14.842999351772942 8.8822383251334465 #
edge $-1 $555 1 $555 0 $345 $-1 forward 7 unknown #
vertex $-1 $346 $556 #
ellipse-curve $-1 61.94790281748341 -11.862032814590588 8.2064803969563389 0.57357644374324357 0 0.81915203911291934 0.20478800977822983 0 -0.14339411093581089 1 I I #
point $-1 62.726267271004879 -11.862032814590588 8.8822383251334465 #
plane-surface $-1 65.955381939146093 0 0 -1 0 0 0 0 1 forward_v I I I I #
coedge $-1 $354 $352 $356 $484 reversed $241 $-1 #
edge $-1 $367 -11.430077022808447 $486 11.430077022808447 $366 $557 forward 7 unknown #
vertex $-1 $484 $558 #
straight-curve $-1 -65.955381939146093 -42.097556825155891 0 0 0 -1 I I #
edge $-1 $482 -42.097556825155891 $486 42.097556825155891 $480 $559 forward 7 unknown #
straight-curve $-1 0 -42.097556825155891 -11.430077022808447 -1 0 0 I I #
vertex $-1 $359 $560 #
straight-curve $-1 0 42.097556825155891 -11.430077022808447 1 0 0 I I #
point $-1 65.955381939146093 42.097556825155891 -11.430077022808447 #
point $-1 65.955381939146093 -42.097556825155891 -11.430077022808447 #
straight-curve $-1 -65.955381939146093 0 11.430077022808447 0 -1 0 I I #
point $-1 -65.955381939146093 42.097556825155891 11.430077022808447 #
point $-1 -65.955381939146093 -42.097556825155891 11.430077022808447 #
straight-curve $-1 65.955381939146093 -42.097556825155891 0 0 0 -1 I I #
straight-curve $-1 65.955381939146093 42.097556825155891 0 0 0 -1 I I #
loop $-1 $-1 $503 $376 #
plane-surface $-1 -65.955381939146093 0 0 1 0 0 0 0 -1 forward_v I I I I #
coedge $-1 $380 $379 $509 $561 forward $160 $-1 #
edge $-1 $384 34.094402959128104 $512 42.097556825155891 $383 $562 forward 7 unknown #
coedge $-1 $506 $503 $380 $500 reversed $495 $-1 #
edge $-1 $563 -42.097556825155891 $501 -34.094402959128104 $499 $564 forward 7 unknown #
vertex $-1 $504 $565 #
straight-curve $-1 0 -34.094402959128104 -11.430077022808447 1 0 0 I I #
coedge $-1 $499 $386 $382 $504 forward $495 $-1 #
edge $-1 $388 1.8516710823793128 $501 7.0028276544125276 $503 $566 forward 7 unknown #
point $-1 65.955381939146093 -34.094402959128104 -11.430077022808447 #
coedge $-1 $386 $499 $390 $510 reversed $495 $-1 #
straight-curve $-1 -65.955381939146093 -19.047989946070999 -6.2789204507752325 0 1 0 I I #
point $-1 -65.955381939146093 -34.094402959128104 -6.2789204507752325 #
coedge $-1 $391 $390 $497 $561 reversed $377 $-1 #
edge $-1 $392 6.2789204507752325 $563 11.430077022808447 $506 $567 forward 7 unknown #
point $-1 -65.955381939146093 -42.097556825155891 -6.2789204507752325 #
vertex $-1 $394 $568 #
straight-curve $-1 65.955381939146093 -42.097556825155891 0 0 0 -1 I I #
coedge $-1 $408 $407 $400 $515 forward $397 $-1 #
edge $-1 $516 42.62764450159721 $519 49.889378132470391 $514 $569 forward 7 unknown #
vertex $-1 $412 $570 #
straight-curve $-1 -73.583879229116789 1.8357125117149646 11.430077022808447 -1 0 0 I I #
edge $-1 $519 -5.646544320581663 $409 13.268207938315062 $408 $571 forward 7 unknown #
vertex $-1 $518 $572 #
straight-curve $-1 -65.955381939146093 1.8357125117149646 4.1683433919352666 0.78801074757464917 0 0.61566148304635926 I I #
point $-1 -56.660786930802104 1.8357125117149646 11.430077022808447 #
point $-1 -65.955381939146093 -17.07903974718176 4.1683433919352666 #
straight-curve $-1 -65.955381939146093 0 11.430077022808447 0 -1 0 I I #
vertex $-1 $415 $573 #
point $-1 -57.073417374563668 -11.674824816068408 4.8154874854073917 #
vertex $-1 $419 $574 #
point $-1 -57.073417374563668 -3.568502419398385 4.8154874854073917 #
coedge $-1 $434 $433 $426 $529 forward $423 $-1 #
edge $-1 $530 42.62764450159721 $533 49.889378132470391 $528 $575 forward 7 unknown #
vertex $-1 $438 $576 #
straight-curve $-1 -73.583879229116789 25.082193613209533 11.430077022808447 -1 0 0 I I #
edge $-1 $533 -17.269784871328948 $435 1.6449673875677764 $434 $577 forward 7 unknown #
vertex $-1 $532 $578 #
straight-curve $-1 -65.955381939146093 25.082193613209533 4.1683433919352666 0.78801074757464917 0 0.61566148304635926 I I #
point $-1 -56.660786930802104 25.082193613209533 11.430077022808447 #
point $-1 -65.955381939146093 6.1674413543128086 4.1683433919352666 #
straight-curve $-1 -65.955381939146093 0 11.430077022808447 0 -1 0 I I #
vertex $-1 $441 $579 #
point $-1 -57.073417374563668 11.571656285426158 4.8154874854073917 #
vertex $-1 $445 $580 #
point $-1 -57.073417374563668 19.677978682096182 4.8154874854073917 #
edge $-1 $543 83.738455926162274 $546 88.547345099640694 $450 $581 forward 7 unknown #
vertex $-1 $464 $582 #
straight-curve $-1 16.780658782032887 -19.811276913743534 11.430077022808447 1 0 0 I I #
edge $-1 $546 -12.389777237857063 $461 -2.4532221139158796 $460 $583 forward 7 unknown #
vertex $-1 $545 $584 #
straight-curve $-1 -42.099589272699774 -19.811276913743534 82.282094686095576 -0.81915203911291934 0 0.57357644374324357 I I #
point $-1 59.087576583307182 -19.811276913743534 11.430077022808447 #
point $-1 65.955381939146093 -9.8747217898023507 6.6211878493300276 #
straight-curve $-1 65.955381939146093 0 11.430077022808447 0 1 0 I I #
vertex $-1 $467 $585 #
point $-1 62.152690827261637 -17.823965888955296 8.0630862860205283 #
vertex $-1 $471 $586 #
point $-1 62.152690827261637 -14.842999351772942 8.0630862860205283 #
vertex $-1 $475 $587 #
point $-1 62.152690827261637 -11.862032814590588 8.0630862860205283 #
straight-curve $-1 -65.955381939146093 42.097556825155891 0 0 0 -1 I I #
point $-1 -65.955381939146093 -42.097556825155891 -11.430077022808447 #
straight-curve $-1 -65.955381939146093 0 -11.430077022808447 0 1 0 I I #
point $-1 -65.955381939146093 42.097556825155891 -11.430077022808447 #
edge $-1 $512 -65.955381939146093 $563 65.955381939146093 $509 $588 forward 7 unknown #
straight-curve $-1 65.955381939146093 0 -11.430077022808447 0 -1 0 I I #
vertex $-1 $500 $589 #
straight-curve $-1 -65.955381939146093 0 -11.430077022808447 0 1 0 I I #
point $-1 -65.955381939146093 -34.094402959128104 -11.430077022808447 #
straight-curve $-1 -65.955381939146093 -34.094402959128104 -4.4272493683959198 0 0 -1 I I #
straight-curve $-1 -65.955381939146093 -42.097556825155891 0 0 0 -1 I I #
point $-1 65.955381939146093 -42.097556825155891 -11.430077022808447 #
straight-curve $-1 -65.955381939146093 1.8357125117149646 54.057721524405657 0 0 -1 I I #
point $-1 -65.955381939146093 1.8357125117149646 11.430077022808447 #
straight-curve $-1 -65.955381939146093 -3.8108318088666984 4.168343391935271 0 -1 0 I I #
point $-1 -65.955381939146093 1.8357125117149646 4.1683433919352666 #
point $-1 -57.331941271356101 -11.674824816068408 2.7099791394758794 #
point $-1 -57.331941271356101 -3.568502419398385 2.7099791394758794 #
straight-curve $-1 -65.955381939146093 25.082193613209533 54.057721524405657 0 0 -1 I I #
point $-1 -65.955381939146093 25.082193613209533 11.430077022808447 #
straight-curve $-1 -65.955381939146093 7.812408741880585 4.168343391935271 0 -1 0 I I #
point $-1 -65.955381939146093 25.082193613209533 4.1683433919352666 #
point $-1 -57.331941271356101 11.571656285426158 2.7099791394758794 #
point $-1 -57.331941271356101 19.677978682096182 2.7099791394758794 #
straight-curve $-1 65.955381939146093 -19.811276913743534 95.168532948970721 0 0 -1 I I #
point $-1 65.955381939146093 -19.811276913743534 11.430077022808447 #
straight-curve $-1 65.955381939146093 -7.4214996758864711 6.6211878493300276 0 1 0 I I #
point $-1 65.955381939146093 -19.811276913743534 6.6211878493300276 #
point $-1 61.804508706547594 -17.823965888955296 8.0016923871781085 #
point $-1 61.804508706547594 -14.842999351772942 8.0016923871781085 #
point $-1 61.804508706547594 -11.862032814590588 8.0016923871781085 #
straight-curve $-1 0 -42.097556825155891 -11.430077022808447 -1 0 0 I I #
point $-1 -65.955381939146093 -42.097556825155891 -11.430077022808447 #
End-of-ACIS-data 