500 0 4 0           
7 Unknown 11 ACIS 5.0 NT 24 Fri Mar 26 18:56:02 1999 
-1 9.9999999999999995e-007 1e-010 
body $-1 $4 $-1 $5 #
body $-1 $6 $-1 $7 #
body $-1 $8 $-1 $9 #
body $-1 $10 $-1 $11 #
lump $-1 $-1 $12 $0 #
transform $-1 1 0 0 0 1 0 0 0 1 78.975798821985535 43.489111716799776 9.7406213507725834 1 rotate no_reflect no_shear #
lump $-1 $-1 $13 $1 #
transform $-1 1 0 0 0 1 0 0 0 1 78.975798821985535 43.489111716799776 9.7406213507725834 1 rotate no_reflect no_shear #
lump $-1 $-1 $14 $2 #
transform $-1 1 0 0 0 1 0 0 0 1 78.975798821985535 43.489111716799776 9.7406213507725834 1 rotate no_reflect no_shear #
lump $-1 $-1 $15 $3 #
transform $-1 1 0 0 0 1 0 0 0 1 78.975798821985535 43.489111716799776 9.7406213507725834 1 rotate no_reflect no_shear #
shell $-1 $-1 $-1 $16 $-1 $4 #
shell $-1 $-1 $-1 $17 $-1 $6 #
shell $-1 $-1 $-1 $18 $-1 $8 #
shell $-1 $-1 $-1 $19 $-1 $10 #
face $-1 $20 $21 $12 $-1 $22 forward single #
face $-1 $23 $24 $13 $-1 $25 forward single #
face $-1 $26 $27 $14 $-1 $28 reversed single #
face $-1 $29 $30 $15 $-1 $31 forward single #
face $-1 $32 $33 $12 $-1 $34 reversed single #
loop $-1 $-1 $35 $16 #
plane-surface $-1 0 0 9.7406213507725834 0 0 1 1 0 0 forward_v I I I I #
face $-1 $36 $37 $13 $-1 $38 reversed single #
loop $-1 $-1 $39 $17 #
plane-surface $-1 -74.057809132394397 0 -4.351070485152384 0 0 1 1 0 0 forward_v I I I I #
face $-1 $40 $41 $14 $-1 $42 reversed single #
loop $-1 $-1 $43 $18 #
plane-surface $-1 -2.8662380471799196 -159.00759863578767 113.29427946207991 1 0 0 0 0.73135370988377701 -0.68199835119979291 forward_v I I I I #
face $-1 $44 $45 $15 $-1 $46 forward single #
loop $-1 $47 $48 $19 #
cone-surface $-1 10.145579115090285 -40.608175400725472 6.7822487702802485 0 0.73135370988377701 -0.68199835119979291 1 0 0 1 I I 0 1 1 forward I I I I #
face $-1 $49 $50 $12 $-1 $51 reversed single #
loop $-1 $-1 $52 $20 #
plane-surface $-1 0 0 -9.7406213507725834 0 0 1 1 0 0 forward_v I I I I #
coedge $-1 $53 $54 $55 $56 forward $21 $-1 #
face $-1 $57 $58 $13 $-1 $59 reversed single #
loop $-1 $-1 $60 $23 #
plane-surface $-1 -69.139819442803258 0 -7.0458459179624837 -1 0 0 0 0 1 forward_v I I I I #
coedge $-1 $61 $62 $63 $64 forward $24 $-1 #
face $-1 $65 $66 $14 $-1 $67 reversed single #
loop $-1 $-1 $68 $26 #
plane-surface $-1 10.145579115090285 -43.489111716799783 5.5715502995185489 0 -0.73135370988377701 0.68199835119979291 1 0 0 forward_v I I I I #
coedge $-1 $69 $70 $71 $72 reversed $27 $-1 #
face $-1 $-1 $73 $15 $-1 $74 forward single #
loop $-1 $75 $76 $29 #
cone-surface $-1 10.145579115090285 -39.30542300771905 5.5674125398150274 0 0.73135370988377701 -0.68199835119979291 0.5 0 0 1 I I -0.70710678118654746 0.70710678118654746 0.5 forward I I I I #
loop $-1 $-1 $77 $19 #
coedge $-1 $48 $48 $78 $79 reversed $30 $-1 #
face $-1 $80 $81 $12 $-1 $82 reversed single #
loop $-1 $-1 $83 $32 #
plane-surface $-1 0 -43.489111716799776 0 0 1 0 0 0 1 forward_v I I I I #
coedge $-1 $84 $85 $86 $87 forward $33 $-1 #
coedge $-1 $88 $35 $89 $90 forward $21 $-1 #
coedge $-1 $35 $88 $91 $92 forward $21 $-1 #
coedge $-1 $93 $94 $35 $56 reversed $95 $-1 #
edge $-1 $96 -43.489111716799776 $97 43.489111716799776 $55 $98 forward 7 unknown #
face $-1 $99 $100 $13 $-1 $101 reversed single #
loop $-1 $-1 $102 $36 #
plane-surface $-1 0 0 -9.7406213507725834 0 0 1 1 0 0 forward_v I I I I #
coedge $-1 $103 $63 $104 $105 reversed $37 $-1 #
coedge $-1 $106 $39 $107 $108 reversed $24 $-1 #
coedge $-1 $39 $106 $109 $110 reversed $24 $-1 #
coedge $-1 $60 $111 $39 $64 reversed $37 $-1 #
edge $-1 $112 -43.489111716799776 $113 43.489111716799776 $63 $114 forward 7 unknown #
face $-1 $115 $116 $14 $-1 $117 forward single #
loop $-1 $-1 $118 $40 #
plane-surface $-1 23.15739627736049 -159.00759863578767 113.29427946207991 -1 0 0 0 -0.73135370988377701 0.68199835119979291 forward_v I I I I #
coedge $-1 $119 $120 $121 $122 reversed $41 $-1 #
coedge $-1 $70 $43 $123 $124 reversed $27 $-1 #
coedge $-1 $43 $69 $119 $125 reversed $27 $-1 #
coedge $-1 $121 $126 $43 $72 forward $127 $-1 #
edge $-1 $128 46.906518380267372 $129 51.075589431521401 $71 $130 forward 7 unknown #
loop $-1 $-1 $78 $44 #
plane-surface $-1 10.145579115090285 -43.489111716799783 5.5715502995185489 0 -0.73135370988377701 0.68199835119979291 1 0 0 forward_v I I I I #
loop $-1 $-1 $131 $29 #
coedge $-1 $76 $76 $77 $132 reversed $45 $-1 #
coedge $-1 $77 $77 $76 $132 forward $47 $-1 #
coedge $-1 $78 $78 $48 $79 forward $73 $-1 #
edge $-1 $133 2.5982903291455877e-015 $133 6.2831853071796031 $78 $134 forward 7 unknown #
face $-1 $135 $136 $12 $-1 $137 reversed single #
loop $-1 $-1 $138 $49 #
plane-surface $-1 -78.975798821985535 0 0 1 0 0 0 0 -1 forward_v I I I I #
coedge $-1 $139 $91 $140 $141 forward $50 $-1 #
coedge $-1 $142 $52 $139 $143 forward $33 $-1 #
coedge $-1 $52 $142 $144 $145 forward $33 $-1 #
coedge $-1 $94 $93 $52 $87 reversed $95 $-1 #
edge $-1 $146 -43.489111716799776 $147 43.489111716799776 $86 $148 forward 7 unknown #
coedge $-1 $54 $53 $149 $150 forward $21 $-1 #
coedge $-1 $151 $152 $53 $90 reversed $136 $-1 #
edge $-1 $97 -78.975798821985535 $153 78.975798821985535 $89 $154 forward 7 unknown #
coedge $-1 $83 $155 $54 $92 reversed $50 $-1 #
edge $-1 $156 -78.975798821985535 $96 78.975798821985535 $91 $157 forward 7 unknown #
coedge $-1 $86 $55 $155 $158 forward $95 $-1 #
coedge $-1 $55 $86 $151 $159 reversed $95 $-1 #
loop $-1 $-1 $93 $135 #
vertex $-1 $56 $160 #
vertex $-1 $56 $161 #
straight-curve $-1 78.975798821985535 0 9.7406213507725834 0 1 0 I I #
face $-1 $162 $163 $13 $-1 $164 reversed single #
loop $-1 $-1 $104 $57 #
plane-surface $-1 0 -43.489111716799776 0 0 1 0 0 0 1 forward_v I I I I #
coedge $-1 $165 $166 $103 $167 forward $58 $-1 #
coedge $-1 $111 $60 $102 $167 reversed $37 $-1 #
coedge $-1 $109 $168 $60 $105 forward $100 $-1 #
edge $-1 $169 -6.2176983917913411 $112 -0.82814752617114218 $104 $170 forward 7 unknown #
coedge $-1 $62 $61 $171 $172 reversed $24 $-1 #
coedge $-1 $173 $174 $61 $108 forward $175 $-1 #
edge $-1 $176 -41.946894255788337 $113 -32.11091487660606 $107 $177 forward 7 unknown #
coedge $-1 $178 $104 $62 $110 forward $100 $-1 #
edge $-1 $112 32.11091487660606 $179 41.946894255788337 $109 $180 forward 7 unknown #
coedge $-1 $63 $103 $173 $181 reversed $37 $-1 #
vertex $-1 $110 $182 #
vertex $-1 $108 $183 #
straight-curve $-1 -69.139819442803258 0 -4.351070485152384 0 1 0 I I #
face $-1 $-1 $127 $14 $-1 $184 reversed single #
loop $-1 $-1 $185 $65 #
plane-surface $-1 0 0 9.7406213507725834 0 0 1 1 0 0 forward_v I I I I #
coedge $-1 $186 $187 $188 $189 reversed $66 $-1 #
coedge $-1 $190 $68 $70 $125 forward $41 $-1 #
coedge $-1 $68 $190 $186 $191 forward $41 $-1 #
coedge $-1 $188 $71 $68 $122 forward $127 $-1 #
edge $-1 $129 -7.9390276047250623 $192 18.084606719815348 $121 $193 forward 7 unknown #
coedge $-1 $194 $195 $69 $124 forward $116 $-1 #
edge $-1 $196 -39.902409157113617 $128 -36.01468760109406 $123 $197 forward 7 unknown #
edge $-1 $129 1.0692042983031357e-014 $196 5.7004852712329317 $70 $198 forward 7 unknown #
coedge $-1 $71 $188 $194 $199 reversed $127 $-1 #
loop $-1 $-1 $188 $115 #
vertex $-1 $199 $200 #
vertex $-1 $72 $201 #
straight-curve $-1 -2.8662380471799196 -43.489111716799776 56.647139731039957 0 0 -1 I I #
coedge $-1 $131 $131 $-1 $202 reversed $75 $-1 #
edge $-1 $203 0 $203 6.2831853071796004 $76 $204 forward 7 unknown #
vertex $-1 $79 $205 #
ellipse-curve $-1 10.145579115090285 -41.545250938789998 7.6560858251455697 0 -0.73135370988377701 0.68199835119979291 1 0 0 1 I I #
face $-1 $-1 $95 $12 $-1 $206 reversed single #
loop $-1 $-1 $151 $80 #
plane-surface $-1 0 43.489111716799776 0 0 -1 0 0 0 -1 forward_v I I I I #
coedge $-1 $207 $149 $152 $208 forward $81 $-1 #
coedge $-1 $155 $83 $84 $143 reversed $50 $-1 #
coedge $-1 $149 $207 $83 $141 reversed $81 $-1 #
edge $-1 $156 -9.7406213507725834 $209 9.7406213507725834 $140 $210 forward 7 unknown #
coedge $-1 $85 $84 $207 $211 forward $33 $-1 #
edge $-1 $147 -78.975798821985535 $209 78.975798821985535 $139 $212 forward 7 unknown #
coedge $-1 $152 $151 $85 $145 reversed $136 $-1 #
edge $-1 $213 -78.975798821985535 $146 78.975798821985535 $144 $214 forward 7 unknown #
vertex $-1 $87 $215 #
vertex $-1 $158 $216 #
straight-curve $-1 78.975798821985535 0 -9.7406213507725834 0 -1 0 I I #
coedge $-1 $138 $140 $88 $150 reversed $81 $-1 #
edge $-1 $153 -43.489111716799776 $156 43.489111716799776 $149 $217 forward 7 unknown #
coedge $-1 $144 $89 $94 $159 forward $136 $-1 #
coedge $-1 $89 $144 $138 $208 reversed $136 $-1 #
vertex $-1 $90 $218 #
straight-curve $-1 0 43.489111716799776 9.7406213507725834 -1 0 0 I I #
coedge $-1 $91 $139 $93 $158 reversed $50 $-1 #
vertex $-1 $150 $219 #
straight-curve $-1 0 -43.489111716799776 9.7406213507725834 1 0 0 I I #
edge $-1 $96 -9.7406213507725834 $147 9.7406213507725834 $93 $220 forward 7 unknown #
edge $-1 $97 -9.7406213507725834 $146 9.7406213507725834 $94 $221 forward 7 unknown #
point $-1 78.975798821985535 -43.489111716799776 9.7406213507725834 #
point $-1 78.975798821985535 43.489111716799776 9.7406213507725834 #
face $-1 $-1 $175 $13 $-1 $222 reversed single #
loop $-1 $-1 $171 $99 #
plane-surface $-1 -78.975798821985535 0 0 1 0 0 0 0 -1 forward_v I I I I #
coedge $-1 $223 $102 $168 $224 forward $58 $-1 #
coedge $-1 $102 $223 $225 $226 forward $58 $-1 #
edge $-1 $227 -43.489111716799776 $169 43.489111716799776 $102 $228 forward 7 unknown #
coedge $-1 $104 $178 $165 $224 reversed $100 $-1 #
vertex $-1 $224 $229 #
straight-curve $-1 -69.139819442803258 -43.489111716799776 -3.5229229589812419 0 0 1 I I #
coedge $-1 $230 $231 $106 $172 forward $163 $-1 #
edge $-1 $179 -43.489111716799776 $176 43.489111716799776 $171 $232 forward 7 unknown #
coedge $-1 $225 $107 $111 $181 forward $175 $-1 #
coedge $-1 $107 $225 $230 $233 reversed $175 $-1 #
loop $-1 $-1 $173 $162 #
vertex $-1 $233 $234 #
straight-curve $-1 -37.028904566197198 43.489111716799776 -4.351070485152384 1 0 0 I I #
coedge $-1 $168 $109 $231 $235 forward $100 $-1 #
vertex $-1 $235 $236 #
straight-curve $-1 -37.028904566197198 -43.489111716799776 -4.351070485152384 -1 0 0 I I #
edge $-1 $113 0.82814752617114218 $227 6.2176983917913411 $173 $237 forward 7 unknown #
point $-1 -69.139819442803258 -43.489111716799776 -4.351070485152384 #
point $-1 -69.139819442803258 43.489111716799776 -4.351070485152384 #
plane-surface $-1 0 -43.489111716799776 0 0 1 0 0 0 1 forward_v I I I I #
coedge $-1 $195 $194 $187 $238 forward $116 $-1 #
coedge $-1 $187 $118 $120 $191 reversed $66 $-1 #
coedge $-1 $118 $186 $185 $238 reversed $66 $-1 #
coedge $-1 $126 $121 $118 $189 forward $127 $-1 #
edge $-1 $192 -51.075589431521401 $239 -46.906518380267372 $188 $240 forward 7 unknown #
coedge $-1 $120 $119 $195 $241 reversed $41 $-1 #
edge $-1 $242 -5.7004852712329317 $192 -1.0692042983031357e-014 $186 $243 forward 7 unknown #
vertex $-1 $122 $244 #
straight-curve $-1 5.0727895575451427 -43.489111716799776 5.5715502995185595 1 0 0 I I #
coedge $-1 $185 $123 $126 $199 forward $116 $-1 #
coedge $-1 $123 $185 $190 $241 forward $116 $-1 #
vertex $-1 $124 $245 #
straight-curve $-1 -2.8662380471799196 -79.503799317893836 9.7406213507725852 0 -1 0 I I #
straight-curve $-1 -2.8662380471799196 -43.489111716799783 5.5715502995185489 0 0.68199835119979291 0.73135370988377701 I I #
edge $-1 $128 -2.8662380471799196 $239 23.15739627736049 $126 $246 forward 7 unknown #
point $-1 -2.8662380471799196 -43.489111716799776 9.7406213507725834 #
point $-1 -2.8662380471799196 -43.489111716799776 5.5715502995185568 #
edge $-1 $247 1 $247 0 $131 $-1 forward 7 unknown #
vertex $-1 $132 $248 #
ellipse-curve $-1 10.145579115090285 -39.671099862660938 5.9084117154149238 0 -0.73135370988377701 0.68199835119979291 1 0 0 1 I I #
point $-1 11.145579115090285 -41.545250938789998 7.6560858251455732 #
plane-surface $-1 78.975798821985535 0 0 -1 0 0 0 0 1 forward_v I I I I #
coedge $-1 $140 $138 $142 $211 reversed $81 $-1 #
edge $-1 $153 -9.7406213507725834 $213 9.7406213507725834 $152 $249 forward 7 unknown #
vertex $-1 $211 $250 #
straight-curve $-1 -78.975798821985535 -43.489111716799776 0 0 0 -1 I I #
edge $-1 $209 -43.489111716799776 $213 43.489111716799776 $207 $251 forward 7 unknown #
straight-curve $-1 0 -43.489111716799776 -9.7406213507725834 -1 0 0 I I #
vertex $-1 $145 $252 #
straight-curve $-1 0 43.489111716799776 -9.7406213507725834 1 0 0 I I #
point $-1 78.975798821985535 43.489111716799776 -9.7406213507725834 #
point $-1 78.975798821985535 -43.489111716799776 -9.7406213507725834 #
straight-curve $-1 -78.975798821985535 0 9.7406213507725834 0 -1 0 I I #
point $-1 -78.975798821985535 43.489111716799776 9.7406213507725834 #
point $-1 -78.975798821985535 -43.489111716799776 9.7406213507725834 #
straight-curve $-1 78.975798821985535 -43.489111716799776 0 0 0 -1 I I #
straight-curve $-1 78.975798821985535 43.489111716799776 0 0 0 -1 I I #
plane-surface $-1 0 43.489111716799776 0 0 -1 0 0 0 -1 forward_v I I I I #
coedge $-1 $166 $165 $253 $254 forward $58 $-1 #
edge $-1 $169 69.139819442803258 $255 78.975798821985535 $168 $256 forward 7 unknown #
coedge $-1 $174 $173 $166 $226 reversed $175 $-1 #
edge $-1 $257 -78.975798821985535 $227 -69.139819442803258 $225 $258 forward 7 unknown #
vertex $-1 $181 $259 #
straight-curve $-1 -69.139819442803258 0 -9.7406213507725834 0 -1 0 I I #
point $-1 -69.139819442803258 -43.489111716799776 -9.7406213507725834 #
coedge $-1 $253 $171 $174 $233 forward $163 $-1 #
coedge $-1 $171 $253 $178 $235 reversed $163 $-1 #
straight-curve $-1 -78.975798821985535 0 -4.351070485152384 0 1 0 I I #
edge $-1 $176 4.351070485152384 $257 9.7406213507725834 $174 $260 forward 7 unknown #
point $-1 -78.975798821985535 43.489111716799776 -4.351070485152384 #
edge $-1 $179 4.351070485152384 $255 9.7406213507725834 $231 $261 forward 7 unknown #
point $-1 -78.975798821985535 -43.489111716799776 -4.351070485152384 #
straight-curve $-1 -69.139819442803258 43.489111716799776 -3.5229229589812419 0 0 -1 I I #
edge $-1 $239 36.01468760109406 $242 39.902409157113617 $185 $262 forward 7 unknown #
vertex $-1 $189 $263 #
straight-curve $-1 23.15739627736049 -43.489111716799776 56.647139731039957 0 0 1 I I #
edge $-1 $242 -18.084606719815348 $196 7.9390276047250623 $195 $264 forward 7 unknown #
vertex $-1 $241 $265 #
straight-curve $-1 23.15739627736049 -43.489111716799783 5.5715502995185489 0 -0.68199835119979291 -0.73135370988377701 I I #
point $-1 23.15739627736049 -43.489111716799776 5.5715502995185568 #
point $-1 -2.8662380471799196 -39.60139016078022 9.7406213507725834 #
straight-curve $-1 0 -43.489111716799776 9.7406213507725834 1 0 0 I I #
vertex $-1 $202 $266 #
point $-1 11.145579115090285 -39.671099862660938 5.9084117154149238 #
straight-curve $-1 -78.975798821985535 43.489111716799776 0 0 0 -1 I I #
point $-1 -78.975798821985535 -43.489111716799776 -9.7406213507725834 #
straight-curve $-1 -78.975798821985535 0 -9.7406213507725834 0 1 0 I I #
point $-1 -78.975798821985535 43.489111716799776 -9.7406213507725834 #
coedge $-1 $231 $230 $223 $254 reversed $163 $-1 #
edge $-1 $255 -43.489111716799776 $257 43.489111716799776 $253 $267 forward 7 unknown #
vertex $-1 $254 $268 #
straight-curve $-1 0 -43.489111716799776 -9.7406213507725834 -1 0 0 I I #
vertex $-1 $226 $269 #
straight-curve $-1 0 43.489111716799776 -9.7406213507725834 1 0 0 I I #
point $-1 -69.139819442803258 43.489111716799776 -9.7406213507725834 #
straight-curve $-1 -78.975798821985535 43.489111716799776 0 0 0 -1 I I #
straight-curve $-1 -78.975798821985535 -43.489111716799776 0 0 0 -1 I I #
straight-curve $-1 23.15739627736049 -79.503799317893836 9.7406213507725852 0 1 0 I I #
point $-1 23.15739627736049 -43.489111716799776 9.7406213507725834 #
straight-curve $-1 5.0727895575451427 -39.60139016078022 9.7406213507725834 -1 0 0 I I #
point $-1 23.15739627736049 -39.60139016078022 9.7406213507725834 #
point $-1 10.145579115090285 -38.939746152777161 5.2264133642151309 #
straight-curve $-1 -78.975798821985535 0 -9.7406213507725834 0 1 0 I I #
point $-1 -78.975798821985535 -43.489111716799776 -9.7406213507725834 #
point $-1 -78.975798821985535 43.489111716799776 -9.7406213507725834 #
End-of-ACIS-data 