500 0 9 0           
7 Unknown 11 ACIS 5.0 NT 24 Thu Mar 25 23:09:39 1999 
-1 9.9999999999999995e-007 1e-010 
body $-1 $9 $-1 $10 #
body $-1 $11 $-1 $12 #
body $-1 $13 $-1 $14 #
body $-1 $15 $-1 $16 #
body $-1 $17 $-1 $18 #
body $-1 $19 $-1 $20 #
body $-1 $21 $-1 $22 #
body $-1 $23 $-1 $24 #
body $-1 $25 $-1 $26 #
lump $-1 $-1 $27 $0 #
transform $-1 1 0 0 0 1 0 0 0 1 75.056001464888453 37.094161605351424 17.812827645010042 1 rotate no_reflect no_shear #
lump $-1 $-1 $28 $1 #
transform $-1 1 0 0 0 1 0 0 0 1 75.056001464888453 37.094161605351424 17.812827645010042 1 rotate no_reflect no_shear #
lump $-1 $-1 $29 $2 #
transform $-1 1 0 0 0 1 0 0 0 1 75.056001464888453 37.094161605351424 17.812827645010042 1 rotate no_reflect no_shear #
lump $-1 $-1 $30 $3 #
transform $-1 1 0 0 0 1 0 0 0 1 75.056001464888453 37.094161605351424 17.812827645010042 1 rotate no_reflect no_shear #
lump $-1 $-1 $31 $4 #
transform $-1 1 0 0 0 1 0 0 0 1 75.056001464888453 37.094161605351424 17.812827645010042 1 rotate no_reflect no_shear #
lump $-1 $-1 $32 $5 #
transform $-1 1 0 0 0 1 0 0 0 1 75.056001464888453 37.094161605351424 17.812827645010042 1 rotate no_reflect no_shear #
lump $-1 $-1 $33 $6 #
transform $-1 1 0 0 0 1 0 0 0 1 75.056001464888453 37.094161605351424 17.812827645010042 1 rotate no_reflect no_shear #
lump $-1 $-1 $34 $7 #
transform $-1 1 0 0 0 1 0 0 0 1 75.056001464888453 37.094161605351424 17.812827645010042 1 rotate no_reflect no_shear #
lump $-1 $-1 $35 $8 #
transform $-1 1 0 0 0 1 0 0 0 1 75.056001464888453 37.094161605351424 17.812827645010042 1 rotate no_reflect no_shear #
shell $-1 $-1 $-1 $36 $-1 $9 #
shell $-1 $-1 $-1 $37 $-1 $11 #
shell $-1 $-1 $-1 $38 $-1 $13 #
shell $-1 $-1 $-1 $39 $-1 $15 #
shell $-1 $-1 $-1 $40 $-1 $17 #
shell $-1 $-1 $-1 $41 $-1 $19 #
shell $-1 $-1 $-1 $42 $-1 $21 #
shell $-1 $-1 $-1 $43 $-1 $23 #
shell $-1 $-1 $-1 $44 $-1 $25 #
face $-1 $45 $46 $27 $-1 $47 forward single #
face $-1 $48 $49 $28 $-1 $50 forward single #
face $-1 $51 $52 $29 $-1 $53 forward single #
face $-1 $54 $55 $30 $-1 $56 reversed single #
face $-1 $57 $58 $31 $-1 $59 forward single #
face $-1 $60 $61 $32 $-1 $62 forward single #
face $-1 $63 $64 $33 $-1 $65 forward single #
face $-1 $66 $67 $34 $-1 $68 reversed single #
face $-1 $69 $70 $35 $-1 $71 forward single #
face $-1 $72 $73 $27 $-1 $74 reversed single #
loop $-1 $-1 $75 $36 #
plane-surface $-1 0 0 17.812827645010042 0 0 1 1 0 0 forward_v I I I I #
face $-1 $76 $77 $28 $-1 $78 reversed single #
loop $-1 $-1 $79 $37 #
plane-surface $-1 0 -25.602841041445913 -9.6423135015433878 0 0 1 1 0 0 forward_v I I I I #
face $-1 $80 $81 $29 $-1 $82 reversed single #
loop $-1 $-1 $83 $38 #
plane-surface $-1 0 25.602841041445913 -9.6423135015433878 0 0 1 1 0 0 forward_v I I I I #
face $-1 $84 $85 $30 $-1 $86 reversed single #
loop $-1 $-1 $87 $39 #
plane-surface $-1 104.60112184311228 -2.7756460725711474 220.14410566861005 0 -1 0 -0.79863551827123203 0 -0.60181501223851219 forward_v I I I I #
face $-1 $88 $89 $31 $-1 $90 forward single #
loop $-1 $91 $92 $40 #
cone-surface $-1 71.452549827984853 -8.8546128966158832 13.391893473751415 -0.79863551827123203 0 -0.60181501223851219 0.3009075061192561 0 -0.39931775913561601 1 I I 0 1 0.5 forward I I I I #
face $-1 $93 $94 $32 $-1 $95 forward single #
loop $-1 $96 $97 $41 #
cone-surface $-1 71.452549827984853 -6.5750003375991071 13.391893473751415 -0.79863551827123203 0 -0.60181501223851219 0.3009075061192561 0 -0.39931775913561601 1 I I 0 1 0.5 forward I I I I #
face $-1 $98 $99 $33 $-1 $100 forward single #
loop $-1 $101 $102 $42 #
cone-surface $-1 71.452549827984853 -4.2953877785823309 13.391893473751415 -0.79863551827123203 0 -0.60181501223851219 0.3009075061192561 0 -0.39931775913561601 1 I I 0 1 0.5 forward I I I I #
face $-1 $103 $104 $34 $-1 $105 reversed single #
loop $-1 $-1 $106 $43 #
plane-surface $-1 -156.81285895591336 -5.1479466817780626 139.26118842061899 0 1 0 -0.54463904215088732 0 0.83867056331134215 forward_v I I I I #
face $-1 $107 $108 $35 $-1 $109 forward single #
loop $-1 $110 $111 $44 #
cone-surface $-1 -71.134487450411115 -1.8151051272041414 14.822475625299379 0.54463904215088732 0 -0.83867056331134215 1.2580058449670133 0 0.81695856322633098 1 I I 0 1 1.5 forward I I I I #
face $-1 $112 $113 $27 $-1 $114 reversed single #
loop $-1 $-1 $115 $45 #
plane-surface $-1 0 0 -17.812827645010042 0 0 1 1 0 0 forward_v I I I I #
coedge $-1 $116 $117 $118 $119 forward $46 $-1 #
face $-1 $120 $121 $28 $-1 $122 reversed single #
loop $-1 $-1 $123 $48 #
plane-surface $-1 0 -14.111520477540402 -13.727570573276715 0 -1 0 0 0 -1 forward_v I I I I #
coedge $-1 $124 $125 $126 $127 reversed $49 $-1 #
face $-1 $128 $129 $29 $-1 $130 reversed single #
loop $-1 $-1 $131 $51 #
plane-surface $-1 0 14.111520477540402 -13.727570573276715 0 1 0 0 0 1 forward_v I I I I #
coedge $-1 $132 $133 $134 $135 reversed $52 $-1 #
face $-1 $136 $137 $30 $-1 $138 reversed single #
loop $-1 $-1 $139 $54 #
plane-surface $-1 -15.283655415442794 -6.5750003375991071 129.80444878827879 0.79863551827123203 0 0.60181501223851219 0.60181501223851219 0 -0.79863551827123203 forward_v I I I I #
coedge $-1 $140 $141 $142 $143 reversed $55 $-1 #
face $-1 $-1 $144 $31 $-1 $145 forward single #
loop $-1 $146 $147 $57 #
cone-surface $-1 70.623399106342077 -8.8546128966158832 12.767083607076348 -0.79863551827123203 0 -0.60181501223851219 0.15045375305962805 0 -0.19965887956780801 1 I I -0.70710678118654746 0.70710678118654746 0.25 forward I I I I #
loop $-1 $-1 $148 $40 #
coedge $-1 $92 $92 $149 $150 reversed $58 $-1 #
face $-1 $-1 $151 $32 $-1 $152 forward single #
loop $-1 $153 $154 $60 #
cone-surface $-1 70.623399106342077 -6.5750003375991071 12.767083607076348 -0.79863551827123203 0 -0.60181501223851219 0.15045375305962805 0 -0.19965887956780801 1 I I -0.70710678118654746 0.70710678118654746 0.25 forward I I I I #
loop $-1 $-1 $155 $41 #
coedge $-1 $97 $97 $156 $157 reversed $61 $-1 #
face $-1 $-1 $158 $33 $-1 $159 forward single #
loop $-1 $160 $161 $63 #
cone-surface $-1 70.623399106342077 -4.2953877785823309 12.767083607076348 -0.79863551827123203 0 -0.60181501223851219 0.15045375305962805 0 -0.19965887956780801 1 I I -0.70710678118654746 0.70710678118654746 0.25 forward I I I I #
loop $-1 $-1 $162 $42 #
coedge $-1 $102 $102 $163 $164 reversed $64 $-1 #
face $-1 $165 $166 $34 $-1 $167 reversed single #
loop $-1 $-1 $168 $66 #
plane-surface $-1 -75.056001464888467 -1.8151051272041414 13.366670363709147 -0.54463904215088732 0 0.83867056331134215 0.83867056331134215 0 0.54463904215088732 forward_v I I I I #
coedge $-1 $169 $170 $171 $172 reversed $67 $-1 #
face $-1 $-1 $173 $35 $-1 $174 forward single #
loop $-1 $175 $176 $69 #
cone-surface $-1 -70.227735001096349 -1.8151051272041414 13.426199323755664 0.54463904215088732 0 -0.83867056331134215 0.62900292248350664 0 0.40847928161316549 1 I I -0.70710678118654757 0.70710678118654757 0.75 forward I I I I #
loop $-1 $-1 $177 $44 #
coedge $-1 $111 $111 $178 $179 reversed $70 $-1 #
face $-1 $180 $181 $27 $-1 $182 reversed single #
loop $-1 $-1 $183 $72 #
plane-surface $-1 0 -37.094161605351424 0 0 1 0 0 0 1 forward_v I I I I #
coedge $-1 $184 $185 $186 $187 forward $73 $-1 #
coedge $-1 $188 $75 $189 $190 forward $46 $-1 #
coedge $-1 $75 $188 $191 $192 forward $46 $-1 #
coedge $-1 $193 $194 $75 $119 reversed $195 $-1 #
edge $-1 $196 -37.094161605351424 $197 37.094161605351424 $118 $198 forward 7 unknown #
face $-1 $199 $200 $28 $-1 $201 reversed single #
loop $-1 $-1 $202 $76 #
plane-surface $-1 0 0 -17.812827645010042 0 0 1 1 0 0 forward_v I I I I #
coedge $-1 $203 $204 $205 $206 reversed $77 $-1 #
coedge $-1 $207 $79 $204 $208 forward $49 $-1 #
coedge $-1 $79 $207 $209 $210 reversed $49 $-1 #
coedge $-1 $211 $205 $79 $127 forward $200 $-1 #
edge $-1 $212 1.3100999568174458 $213 24.292741084628467 $126 $214 forward 7 unknown #
face $-1 $215 $216 $29 $-1 $217 reversed single #
loop $-1 $-1 $134 $80 #
plane-surface $-1 75.056001464888453 0 0 -1 0 0 0 0 1 forward_v I I I I #
coedge $-1 $218 $219 $220 $221 reversed $81 $-1 #
coedge $-1 $222 $83 $223 $224 reversed $52 $-1 #
coedge $-1 $83 $222 $219 $225 forward $52 $-1 #
coedge $-1 $226 $227 $83 $135 forward $129 $-1 #
edge $-1 $228 -24.292741084628467 $229 -1.3100999568174458 $134 $230 forward 7 unknown #
face $-1 $231 $232 $30 $-1 $233 forward single #
loop $-1 $-1 $234 $84 #
plane-surface $-1 104.60112184311228 -10.374354602627067 220.14410566861005 0 1 0 0.79863551827123203 0 0.60181501223851219 forward_v I I I I #
coedge $-1 $235 $236 $237 $238 reversed $85 $-1 #
coedge $-1 $141 $87 $239 $240 reversed $55 $-1 #
coedge $-1 $87 $140 $235 $241 reversed $55 $-1 #
coedge $-1 $237 $242 $87 $143 forward $232 $-1 #
edge $-1 $243 -22.755440543332313 $244 -16.80752095367508 $142 $245 forward 7 unknown #
loop $-1 $-1 $149 $88 #
plane-surface $-1 -15.283655415442794 -6.5750003375991071 129.80444878827879 0.79863551827123203 0 0.60181501223851219 0.60181501223851219 0 -0.79863551827123203 forward_v I I I I #
loop $-1 $-1 $246 $57 #
coedge $-1 $147 $147 $148 $247 reversed $89 $-1 #
coedge $-1 $148 $148 $147 $247 forward $91 $-1 #
coedge $-1 $149 $149 $92 $150 forward $144 $-1 #
edge $-1 $248 0 $248 6.2831853071796004 $149 $249 forward 7 unknown #
loop $-1 $-1 $156 $93 #
plane-surface $-1 -15.283655415442794 -6.5750003375991071 129.80444878827879 0.79863551827123203 0 0.60181501223851219 0.60181501223851219 0 -0.79863551827123203 forward_v I I I I #
loop $-1 $-1 $250 $60 #
coedge $-1 $154 $154 $155 $251 reversed $94 $-1 #
coedge $-1 $155 $155 $154 $251 forward $96 $-1 #
coedge $-1 $156 $156 $97 $157 forward $151 $-1 #
edge $-1 $252 0 $252 6.2831853071796004 $156 $253 forward 7 unknown #
loop $-1 $-1 $163 $98 #
plane-surface $-1 -15.283655415442794 -6.5750003375991071 129.80444878827879 0.79863551827123203 0 0.60181501223851219 0.60181501223851219 0 -0.79863551827123203 forward_v I I I I #
loop $-1 $-1 $254 $63 #
coedge $-1 $161 $161 $162 $255 reversed $99 $-1 #
coedge $-1 $162 $162 $161 $255 forward $101 $-1 #
coedge $-1 $163 $163 $102 $164 forward $158 $-1 #
edge $-1 $256 0 $256 6.2831853071796004 $163 $257 forward 7 unknown #
face $-1 $258 $259 $34 $-1 $260 reversed single #
loop $-1 $-1 $261 $103 #
plane-surface $-1 -156.81285895591336 1.5177364273697798 139.26118842061899 0 -1 0 0.54463904215088732 0 -0.83867056331134215 forward_v I I I I #
coedge $-1 $262 $263 $264 $265 reversed $104 $-1 #
coedge $-1 $170 $106 $266 $267 reversed $67 $-1 #
coedge $-1 $106 $169 $262 $268 reversed $67 $-1 #
coedge $-1 $264 $269 $106 $172 forward $270 $-1 #
edge $-1 $271 3.3504280130682247 $272 10.196909706619664 $171 $273 forward 7 unknown #
loop $-1 $-1 $178 $107 #
plane-surface $-1 -75.056001464888467 -1.8151051272041414 13.366670363709147 -0.54463904215088732 0 0.83867056331134215 0.83867056331134215 0 0.54463904215088732 forward_v I I I I #
loop $-1 $-1 $274 $69 #
coedge $-1 $176 $176 $177 $275 reversed $108 $-1 #
coedge $-1 $177 $177 $176 $275 forward $110 $-1 #
coedge $-1 $178 $178 $111 $179 forward $173 $-1 #
edge $-1 $276 0 $276 6.2831853071796004 $178 $277 forward 7 unknown #
face $-1 $278 $279 $27 $-1 $280 reversed single #
loop $-1 $-1 $281 $112 #
plane-surface $-1 -75.056001464888453 0 0 1 0 0 0 0 -1 forward_v I I I I #
coedge $-1 $282 $191 $283 $284 forward $113 $-1 #
coedge $-1 $285 $115 $282 $286 forward $73 $-1 #
coedge $-1 $115 $285 $287 $288 forward $73 $-1 #
coedge $-1 $194 $193 $115 $187 reversed $195 $-1 #
edge $-1 $289 -37.094161605351424 $290 37.094161605351424 $186 $291 forward 7 unknown #
coedge $-1 $117 $116 $292 $293 forward $46 $-1 #
coedge $-1 $294 $295 $116 $190 reversed $279 $-1 #
edge $-1 $197 -75.056001464888453 $296 75.056001464888453 $189 $297 forward 7 unknown #
coedge $-1 $183 $298 $117 $192 reversed $113 $-1 #
edge $-1 $299 -75.056001464888453 $196 75.056001464888453 $191 $300 forward 7 unknown #
coedge $-1 $186 $118 $298 $301 forward $195 $-1 #
coedge $-1 $118 $186 $294 $302 reversed $195 $-1 #
loop $-1 $-1 $193 $278 #
vertex $-1 $119 $303 #
vertex $-1 $119 $304 #
straight-curve $-1 75.056001464888453 0 17.812827645010042 0 1 0 I I #
face $-1 $305 $306 $28 $-1 $307 reversed single #
loop $-1 $-1 $205 $120 #
plane-surface $-1 75.056001464888453 0 0 -1 0 0 0 0 1 forward_v I I I I #
coedge $-1 $308 $309 $203 $310 forward $121 $-1 #
coedge $-1 $311 $123 $202 $310 reversed $77 $-1 #
coedge $-1 $123 $311 $124 $208 reversed $77 $-1 #
coedge $-1 $126 $312 $123 $206 forward $200 $-1 #
edge $-1 $313 -10.949042358371685 $212 -2.7785282149050303 $205 $314 forward 7 unknown #
coedge $-1 $125 $124 $315 $316 reversed $49 $-1 #
edge $-1 $212 -75.056001464888453 $317 75.056001464888453 $204 $318 forward 7 unknown #
coedge $-1 $319 $320 $125 $210 forward $306 $-1 #
edge $-1 $213 -75.056001464888453 $321 75.056001464888453 $209 $322 forward 7 unknown #
coedge $-1 $312 $126 $320 $323 forward $200 $-1 #
vertex $-1 $127 $324 #
vertex $-1 $323 $325 #
straight-curve $-1 75.056001464888453 -12.801420520722957 -9.6423135015433878 0 -1 0 I I #
face $-1 $326 $327 $29 $-1 $328 reversed single #
loop $-1 $-1 $329 $128 #
plane-surface $-1 0 0 -17.812827645010042 0 0 1 1 0 0 forward_v I I I I #
coedge $-1 $330 $131 $329 $331 reversed $81 $-1 #
coedge $-1 $131 $330 $133 $225 reversed $81 $-1 #
coedge $-1 $332 $333 $131 $221 forward $327 $-1 #
edge $-1 $334 -10.949042358371685 $335 -2.7785282149050303 $220 $336 forward 7 unknown #
coedge $-1 $133 $132 $332 $337 reversed $52 $-1 #
coedge $-1 $338 $339 $132 $224 forward $340 $-1 #
edge $-1 $341 -75.056001464888453 $228 75.056001464888453 $223 $342 forward 7 unknown #
edge $-1 $335 -75.056001464888453 $229 75.056001464888453 $219 $343 forward 7 unknown #
coedge $-1 $344 $134 $330 $345 forward $129 $-1 #
coedge $-1 $134 $344 $338 $346 reversed $129 $-1 #
vertex $-1 $346 $347 #
vertex $-1 $135 $348 #
straight-curve $-1 75.056001464888453 12.801420520722957 -9.6423135015433878 0 -1 0 I I #
face $-1 $-1 $349 $30 $-1 $350 reversed single #
loop $-1 $-1 $142 $136 #
plane-surface $-1 0 0 17.812827645010042 0 0 1 1 0 0 forward_v I I I I #
coedge $-1 $351 $352 $353 $354 reversed $137 $-1 #
coedge $-1 $355 $139 $141 $241 forward $85 $-1 #
coedge $-1 $139 $355 $351 $356 forward $85 $-1 #
coedge $-1 $353 $142 $139 $238 forward $232 $-1 #
edge $-1 $244 -0.51185409622840616 $357 7.0868544338275132 $237 $358 forward 7 unknown #
coedge $-1 $359 $360 $140 $240 forward $349 $-1 #
edge $-1 $361 -100.1523813045813 $243 -92.25922518929498 $239 $362 forward 7 unknown #
edge $-1 $244 140.2287008042062 $361 150.11200292977688 $141 $363 forward 7 unknown #
coedge $-1 $142 $353 $359 $364 forward $232 $-1 #
vertex $-1 $240 $365 #
vertex $-1 $143 $366 #
straight-curve $-1 52.300560921556141 -2.7756460725711474 17.812827645010046 -1 0 0 I I #
coedge $-1 $246 $246 $-1 $367 reversed $146 $-1 #
edge $-1 $368 0 $368 6.2831853071796004 $147 $369 forward 7 unknown #
vertex $-1 $150 $370 #
ellipse-curve $-1 72.082041670059866 -8.8546128966158832 13.866249587366879 0.79863551827123203 0 0.60181501223851219 0.3009075061192561 0 -0.39931775913561601 1 I I #
coedge $-1 $250 $250 $-1 $371 reversed $153 $-1 #
edge $-1 $372 0 $372 6.2831853071796004 $154 $373 forward 7 unknown #
vertex $-1 $157 $374 #
ellipse-curve $-1 72.082041670059866 -6.5750003375991071 13.866249587366879 0.79863551827123203 0 0.60181501223851219 0.3009075061192561 0 -0.39931775913561601 1 I I #
coedge $-1 $254 $254 $-1 $375 reversed $160 $-1 #
edge $-1 $376 0 $376 6.2831853071796004 $161 $377 forward 7 unknown #
vertex $-1 $164 $378 #
ellipse-curve $-1 72.082041670059866 -4.2953877785823309 13.866249587366879 0.79863551827123203 0 0.60181501223851219 0.3009075061192561 0 -0.39931775913561601 1 I I #
face $-1 $-1 $270 $34 $-1 $379 forward single #
loop $-1 $-1 $380 $165 #
plane-surface $-1 -75.056001464888453 0 0 1 0 0 0 0 -1 forward_v I I I I #
coedge $-1 $381 $382 $383 $384 reversed $166 $-1 #
coedge $-1 $385 $168 $170 $268 forward $104 $-1 #
coedge $-1 $168 $385 $381 $386 forward $104 $-1 #
coedge $-1 $383 $171 $168 $265 forward $270 $-1 #
edge $-1 $272 -4.2403941181759919 $387 2.4252889909718505 $264 $388 forward 7 unknown #
coedge $-1 $389 $390 $169 $267 forward $259 $-1 #
edge $-1 $391 -56.263923846600342 $271 -51.817766565299451 $266 $392 forward 7 unknown #
edge $-1 $272 -8.1634935015715016 $391 -1.6755591966779756e-014 $170 $393 forward 7 unknown #
coedge $-1 $171 $383 $389 $394 forward $270 $-1 #
loop $-1 $-1 $383 $258 #
vertex $-1 $267 $395 #
vertex $-1 $172 $396 #
straight-curve $-1 -78.406429477956678 -5.1479466817780626 17.812827645010046 1 0 0 I I #
coedge $-1 $274 $274 $-1 $397 reversed $175 $-1 #
edge $-1 $398 0 $398 6.2831853071796004 $176 $399 forward 7 unknown #
vertex $-1 $179 $400 #
ellipse-curve $-1 -71.632760618112727 -1.8151051272041414 15.589749004359605 -0.54463904215088732 0 0.83867056331134215 1.2580058449670133 0 0.81695856322633098 1 I I #
face $-1 $-1 $195 $27 $-1 $401 reversed single #
loop $-1 $-1 $294 $180 #
plane-surface $-1 0 37.094161605351424 0 0 -1 0 0 0 -1 forward_v I I I I #
coedge $-1 $402 $292 $295 $403 forward $181 $-1 #
coedge $-1 $298 $183 $184 $286 reversed $113 $-1 #
coedge $-1 $292 $402 $183 $284 reversed $181 $-1 #
edge $-1 $299 -17.812827645010042 $404 17.812827645010042 $283 $405 forward 7 unknown #
coedge $-1 $185 $184 $402 $406 forward $73 $-1 #
edge $-1 $290 -75.056001464888453 $404 75.056001464888453 $282 $407 forward 7 unknown #
coedge $-1 $295 $294 $185 $288 reversed $279 $-1 #
edge $-1 $408 -75.056001464888453 $289 75.056001464888453 $287 $409 forward 7 unknown #
vertex $-1 $187 $410 #
vertex $-1 $301 $411 #
straight-curve $-1 75.056001464888453 0 -17.812827645010042 0 -1 0 I I #
coedge $-1 $281 $283 $188 $293 reversed $181 $-1 #
edge $-1 $296 -37.094161605351424 $299 37.094161605351424 $292 $412 forward 7 unknown #
coedge $-1 $287 $189 $194 $302 forward $279 $-1 #
coedge $-1 $189 $287 $281 $403 reversed $279 $-1 #
vertex $-1 $190 $413 #
straight-curve $-1 0 37.094161605351424 17.812827645010042 -1 0 0 I I #
coedge $-1 $191 $282 $193 $301 reversed $113 $-1 #
vertex $-1 $293 $414 #
straight-curve $-1 0 -37.094161605351424 17.812827645010042 1 0 0 I I #
edge $-1 $196 -17.812827645010042 $290 17.812827645010042 $193 $415 forward 7 unknown #
edge $-1 $197 -17.812827645010042 $289 17.812827645010042 $194 $416 forward 7 unknown #
point $-1 75.056001464888453 -37.094161605351424 17.812827645010042 #
point $-1 75.056001464888453 37.094161605351424 17.812827645010042 #
face $-1 $-1 $417 $28 $-1 $418 reversed single #
loop $-1 $-1 $209 $199 #
plane-surface $-1 0 -37.094161605351424 0 0 1 0 0 0 1 forward_v I I I I #
coedge $-1 $419 $202 $312 $420 forward $121 $-1 #
coedge $-1 $202 $419 $421 $422 forward $121 $-1 #
edge $-1 $423 -75.056001464888453 $313 75.056001464888453 $202 $424 forward 7 unknown #
coedge $-1 $204 $203 $425 $426 reversed $77 $-1 #
coedge $-1 $205 $211 $308 $420 reversed $200 $-1 #
vertex $-1 $420 $427 #
straight-curve $-1 75.056001464888453 -14.111520477540402 -6.8637852866383575 0 0 1 I I #
coedge $-1 $425 $428 $207 $316 forward $417 $-1 #
edge $-1 $321 -24.292741084628467 $317 -1.3100999568174458 $315 $429 forward 7 unknown #
vertex $-1 $316 $430 #
straight-curve $-1 0 -14.111520477540402 -9.6423135015433878 -1 0 0 I I #
coedge $-1 $431 $209 $428 $432 forward $306 $-1 #
coedge $-1 $209 $431 $211 $323 reversed $306 $-1 #
vertex $-1 $432 $433 #
straight-curve $-1 0 -37.094161605351424 -9.6423135015433878 -1 0 0 I I #
edge $-1 $213 9.6423135015433878 $434 17.812827645010042 $211 $435 forward 7 unknown #
point $-1 75.056001464888453 -14.111520477540402 -9.6423135015433878 #
point $-1 75.056001464888453 -37.094161605351424 -9.6423135015433878 #
face $-1 $-1 $340 $29 $-1 $436 reversed single #
loop $-1 $-1 $332 $215 #
plane-surface $-1 -75.056001464888453 0 0 1 0 0 0 0 -1 forward_v I I I I #
coedge $-1 $437 $438 $218 $331 forward $216 $-1 #
coedge $-1 $219 $218 $226 $345 reversed $81 $-1 #
edge $-1 $439 -75.056001464888453 $334 75.056001464888453 $329 $440 forward 7 unknown #
coedge $-1 $441 $220 $222 $337 forward $327 $-1 #
coedge $-1 $220 $441 $437 $442 reversed $327 $-1 #
vertex $-1 $442 $443 #
vertex $-1 $337 $444 #
straight-curve $-1 -75.056001464888453 14.111520477540402 -6.8637852866383575 0 0 1 I I #
edge $-1 $335 1.3100999568174458 $341 24.292741084628467 $332 $445 forward 7 unknown #
coedge $-1 $446 $223 $227 $346 forward $340 $-1 #
coedge $-1 $223 $446 $441 $447 reversed $340 $-1 #
loop $-1 $-1 $223 $326 #
vertex $-1 $447 $448 #
straight-curve $-1 0 37.094161605351424 -9.6423135015433878 1 0 0 I I #
straight-curve $-1 0 14.111520477540402 -9.6423135015433878 1 0 0 I I #
coedge $-1 $227 $226 $438 $449 reversed $129 $-1 #
edge $-1 $229 2.7785282149050303 $439 10.949042358371685 $226 $450 forward 7 unknown #
edge $-1 $228 9.6423135015433878 $451 17.812827645010042 $227 $452 forward 7 unknown #
point $-1 75.056001464888453 37.094161605351424 -9.6423135015433878 #
point $-1 75.056001464888453 14.111520477540402 -9.6423135015433878 #
loop $-1 $-1 $239 $231 #
plane-surface $-1 75.056001464888453 0 0 -1 0 0 0 0 1 forward_v I I I I #
coedge $-1 $352 $234 $236 $356 reversed $137 $-1 #
coedge $-1 $234 $351 $453 $454 reversed $137 $-1 #
coedge $-1 $242 $237 $234 $354 forward $232 $-1 #
edge $-1 $357 16.80752095367508 $455 22.755440543332313 $353 $456 forward 7 unknown #
coedge $-1 $236 $235 $360 $457 reversed $85 $-1 #
edge $-1 $458 -150.11200292977688 $357 -140.2287008042062 $351 $459 forward 7 unknown #
vertex $-1 $238 $460 #
straight-curve $-1 69.108081875231221 -3.2875001687995535 17.81282764501006 0 -1 0 I I #
coedge $-1 $453 $239 $242 $364 reversed $349 $-1 #
coedge $-1 $239 $453 $355 $457 forward $349 $-1 #
vertex $-1 $240 $461 #
straight-curve $-1 75.056001464888453 -2.7756460725711474 110.07205283430503 0 0 1 I I #
straight-curve $-1 -15.283655415442794 -2.7756460725711474 129.80444878827879 0.60181501223851219 0 -0.79863551827123203 I I #
edge $-1 $455 -10.374354602627067 $243 -2.7756460725711474 $359 $462 forward 7 unknown #
point $-1 75.056001464888453 -2.7756460725711474 17.812827645010042 #
point $-1 69.108081875231221 -2.7756460725711474 17.812827645010046 #
edge $-1 $463 1 $463 0 $246 $-1 forward 7 unknown #
vertex $-1 $247 $464 #
ellipse-curve $-1 70.823057985909884 -8.8546128966158832 12.917537360135976 0.79863551827123203 0 0.60181501223851219 0.3009075061192561 0 -0.39931775913561601 1 I I #
point $-1 72.382949176179096 -8.8546128966158832 13.466931828231239 #
edge $-1 $465 1 $465 0 $250 $-1 forward 7 unknown #
vertex $-1 $251 $466 #
ellipse-curve $-1 70.823057985909884 -6.5750003375991071 12.917537360135976 0.79863551827123203 0 0.60181501223851219 0.3009075061192561 0 -0.39931775913561601 1 I I #
point $-1 72.382949176179096 -6.5750003375991071 13.466931828231239 #
edge $-1 $467 1 $467 0 $254 $-1 forward 7 unknown #
vertex $-1 $255 $468 #
ellipse-curve $-1 70.823057985909884 -4.2953877785823309 12.917537360135976 0.79863551827123203 0 0.60181501223851219 0.3009075061192561 0 -0.39931775913561601 1 I I #
point $-1 72.382949176179096 -4.2953877785823309 13.466931828231239 #
plane-surface $-1 0 0 17.812827645010042 0 0 1 1 0 0 forward_v I I I I #
coedge $-1 $390 $389 $382 $469 forward $259 $-1 #
coedge $-1 $382 $261 $263 $386 reversed $166 $-1 #
coedge $-1 $261 $381 $380 $469 reversed $166 $-1 #
coedge $-1 $269 $264 $261 $384 forward $270 $-1 #
edge $-1 $387 -10.196909706619664 $470 -3.3504280130682247 $383 $471 forward 7 unknown #
coedge $-1 $263 $262 $390 $472 reversed $104 $-1 #
edge $-1 $473 1.6755591966779756e-014 $387 8.1634935015715016 $381 $474 forward 7 unknown #
vertex $-1 $265 $475 #
straight-curve $-1 -68.209519771337014 -0.90755256360207071 17.812827645010042 0 1 0 I I #
coedge $-1 $380 $266 $269 $394 reversed $259 $-1 #
coedge $-1 $266 $380 $385 $472 forward $259 $-1 #
vertex $-1 $267 $476 #
straight-curve $-1 -75.056001464888453 -5.1479466817780626 69.630594210309496 0 0 1 I I #
straight-curve $-1 -75.056001464888467 -5.1479466817780626 13.366670363709147 -0.83867056331134215 0 -0.54463904215088732 I I #
edge $-1 $470 -1.5177364273697798 $271 5.1479466817780626 $389 $477 forward 7 unknown #
point $-1 -75.056001464888453 -5.1479466817780626 17.812827645010042 #
point $-1 -68.209519771337014 -5.1479466817780626 17.812827645010042 #
edge $-1 $478 1 $478 0 $274 $-1 forward 7 unknown #
vertex $-1 $275 $479 #
ellipse-curve $-1 -70.636214282709517 -1.8151051272041414 14.055202246239171 -0.54463904215088732 0 0.83867056331134215 1.2580058449670133 0 0.81695856322633098 1 I I #
point $-1 -70.374754773145696 -1.8151051272041414 16.406707567585915 #
plane-surface $-1 75.056001464888453 0 0 -1 0 0 0 0 1 forward_v I I I I #
coedge $-1 $283 $281 $285 $406 reversed $181 $-1 #
edge $-1 $296 -17.812827645010042 $408 17.812827645010042 $295 $480 forward 7 unknown #
vertex $-1 $406 $481 #
straight-curve $-1 -75.056001464888453 -37.094161605351424 0 0 0 -1 I I #
edge $-1 $404 -37.094161605351424 $408 37.094161605351424 $402 $482 forward 7 unknown #
straight-curve $-1 0 -37.094161605351424 -17.812827645010042 -1 0 0 I I #
vertex $-1 $288 $483 #
straight-curve $-1 0 37.094161605351424 -17.812827645010042 1 0 0 I I #
point $-1 75.056001464888453 37.094161605351424 -17.812827645010042 #
point $-1 75.056001464888453 -37.094161605351424 -17.812827645010042 #
straight-curve $-1 -75.056001464888453 0 17.812827645010042 0 -1 0 I I #
point $-1 -75.056001464888453 37.094161605351424 17.812827645010042 #
point $-1 -75.056001464888453 -37.094161605351424 17.812827645010042 #
straight-curve $-1 75.056001464888453 -37.094161605351424 0 0 0 -1 I I #
straight-curve $-1 75.056001464888453 37.094161605351424 0 0 0 -1 I I #
loop $-1 $-1 $425 $305 #
plane-surface $-1 -75.056001464888453 0 0 1 0 0 0 0 -1 forward_v I I I I #
coedge $-1 $309 $308 $431 $484 forward $121 $-1 #
edge $-1 $313 14.111520477540402 $434 37.094161605351424 $312 $485 forward 7 unknown #
coedge $-1 $428 $425 $309 $422 reversed $417 $-1 #
edge $-1 $486 -37.094161605351424 $423 -14.111520477540402 $421 $487 forward 7 unknown #
vertex $-1 $426 $488 #
straight-curve $-1 0 -14.111520477540402 -17.812827645010042 1 0 0 I I #
coedge $-1 $421 $315 $311 $426 forward $417 $-1 #
edge $-1 $317 2.7785282149050303 $423 10.949042358371685 $425 $489 forward 7 unknown #
point $-1 75.056001464888453 -14.111520477540402 -17.812827645010042 #
coedge $-1 $315 $421 $319 $432 reversed $417 $-1 #
straight-curve $-1 -75.056001464888453 -12.801420520722957 -9.6423135015433878 0 1 0 I I #
point $-1 -75.056001464888453 -14.111520477540402 -9.6423135015433878 #
coedge $-1 $320 $319 $419 $484 reversed $306 $-1 #
edge $-1 $321 9.6423135015433878 $486 17.812827645010042 $428 $490 forward 7 unknown #
point $-1 -75.056001464888453 -37.094161605351424 -9.6423135015433878 #
vertex $-1 $323 $491 #
straight-curve $-1 75.056001464888453 -37.094161605351424 0 0 0 -1 I I #
plane-surface $-1 0 37.094161605351424 0 0 -1 0 0 0 -1 forward_v I I I I #
coedge $-1 $492 $329 $333 $442 forward $216 $-1 #
coedge $-1 $329 $492 $344 $449 forward $216 $-1 #
vertex $-1 $331 $493 #
straight-curve $-1 0 14.111520477540402 -17.812827645010042 -1 0 0 I I #
coedge $-1 $333 $332 $339 $447 forward $327 $-1 #
edge $-1 $334 14.111520477540402 $494 37.094161605351424 $333 $495 forward 7 unknown #
point $-1 -75.056001464888453 14.111520477540402 -17.812827645010042 #
point $-1 -75.056001464888453 14.111520477540402 -9.6423135015433878 #
straight-curve $-1 -75.056001464888453 12.801420520722957 -9.6423135015433878 0 1 0 I I #
coedge $-1 $339 $338 $492 $496 reversed $340 $-1 #
edge $-1 $341 9.6423135015433878 $494 17.812827645010042 $339 $497 forward 7 unknown #
point $-1 -75.056001464888453 37.094161605351424 -9.6423135015433878 #
edge $-1 $451 -37.094161605351424 $439 -14.111520477540402 $344 $498 forward 7 unknown #
straight-curve $-1 75.056001464888453 14.111520477540402 -6.8637852866383575 0 0 -1 I I #
vertex $-1 $449 $499 #
straight-curve $-1 75.056001464888453 37.094161605351424 0 0 0 -1 I I #
coedge $-1 $360 $359 $352 $454 forward $349 $-1 #
edge $-1 $455 92.25922518929498 $458 100.1523813045813 $453 $500 forward 7 unknown #
vertex $-1 $364 $501 #
straight-curve $-1 52.300560921556141 -10.374354602627067 17.812827645010046 1 0 0 I I #
edge $-1 $458 -7.0868544338275132 $361 0.51185409622840616 $360 $502 forward 7 unknown #
vertex $-1 $457 $503 #
straight-curve $-1 -15.283655415442794 -10.374354602627067 129.80444878827879 -0.60181501223851219 0 0.79863551827123203 I I #
point $-1 69.108081875231221 -10.374354602627067 17.812827645010046 #
point $-1 75.056001464888453 -2.7756460725711474 9.919671529723729 #
straight-curve $-1 75.056001464888453 0 17.812827645010042 0 1 0 I I #
vertex $-1 $367 $504 #
point $-1 71.123965492029143 -8.8546128966158832 12.518219601000359 #
vertex $-1 $371 $505 #
point $-1 71.123965492029143 -6.5750003375991071 12.518219601000359 #
vertex $-1 $375 $506 #
point $-1 71.123965492029143 -4.2953877785823309 12.518219601000359 #
edge $-1 $470 51.817766565299451 $473 56.263923846600342 $380 $507 forward 7 unknown #
vertex $-1 $394 $508 #
straight-curve $-1 -78.406429477956678 1.5177364273697798 17.812827645010046 -1 0 0 I I #
edge $-1 $473 -2.4252889909718505 $391 4.2403941181759919 $390 $509 forward 7 unknown #
vertex $-1 $472 $510 #
straight-curve $-1 -75.056001464888467 1.5177364273697798 13.366670363709147 0.83867056331134215 0 0.54463904215088732 I I #
point $-1 -68.209519771337014 1.5177364273697798 17.812827645010042 #
point $-1 -75.056001464888453 -5.1479466817780626 13.366670363709156 #
straight-curve $-1 -75.056001464888453 0 17.812827645010042 0 -1 0 I I #
vertex $-1 $397 $511 #
point $-1 -69.378208437742501 -1.8151051272041414 14.872160809465502 #
straight-curve $-1 -75.056001464888453 37.094161605351424 0 0 0 -1 I I #
point $-1 -75.056001464888453 -37.094161605351424 -17.812827645010042 #
straight-curve $-1 -75.056001464888453 0 -17.812827645010042 0 1 0 I I #
point $-1 -75.056001464888453 37.094161605351424 -17.812827645010042 #
edge $-1 $434 -75.056001464888453 $486 75.056001464888453 $431 $512 forward 7 unknown #
straight-curve $-1 75.056001464888453 0 -17.812827645010042 0 -1 0 I I #
vertex $-1 $422 $513 #
straight-curve $-1 -75.056001464888453 0 -17.812827645010042 0 1 0 I I #
point $-1 -75.056001464888453 -14.111520477540402 -17.812827645010042 #
straight-curve $-1 -75.056001464888453 -14.111520477540402 -6.8637852866383575 0 0 -1 I I #
straight-curve $-1 -75.056001464888453 -37.094161605351424 0 0 0 -1 I I #
point $-1 75.056001464888453 -37.094161605351424 -17.812827645010042 #
coedge $-1 $438 $437 $446 $496 forward $216 $-1 #
point $-1 75.056001464888453 14.111520477540402 -17.812827645010042 #
vertex $-1 $496 $514 #
straight-curve $-1 -75.056001464888453 0 -17.812827645010042 0 1 0 I I #
edge $-1 $494 -75.056001464888453 $451 75.056001464888453 $446 $515 forward 7 unknown #
straight-curve $-1 -75.056001464888453 37.094161605351424 0 0 0 -1 I I #
straight-curve $-1 75.056001464888453 0 -17.812827645010042 0 -1 0 I I #
point $-1 75.056001464888453 37.094161605351424 -17.812827645010042 #
straight-curve $-1 75.056001464888453 -10.374354602627067 110.07205283430503 0 0 -1 I I #
point $-1 75.056001464888453 -10.374354602627067 17.812827645010042 #
straight-curve $-1 75.056001464888453 -3.2875001687995535 9.919671529723729 0 1 0 I I #
point $-1 75.056001464888453 -10.374354602627067 9.919671529723729 #
point $-1 70.423740226774271 -8.8546128966158832 12.61662985401672 #
point $-1 70.423740226774271 -6.5750003375991071 12.61662985401672 #
point $-1 70.423740226774271 -4.2953877785823309 12.61662985401672 #
straight-curve $-1 -75.056001464888453 1.5177364273697798 69.630594210309496 0 0 -1 I I #
point $-1 -75.056001464888453 1.5177364273697798 17.812827645010042 #
straight-curve $-1 -75.056001464888453 -0.90755256360207071 13.366670363709147 0 -1 0 I I #
point $-1 -75.056001464888453 1.5177364273697798 13.366670363709156 #
point $-1 -69.819255719483181 -1.8151051272041414 12.797196401272158 #
straight-curve $-1 0 -37.094161605351424 -17.812827645010042 -1 0 0 I I #
point $-1 -75.056001464888453 -37.094161605351424 -17.812827645010042 #
point $-1 -75.056001464888453 37.094161605351424 -17.812827645010042 #
straight-curve $-1 0 37.094161605351424 -17.812827645010042 1 0 0 I I #
End-of-ACIS-data 