500 0 8 0           
7 Unknown 11 ACIS 5.0 NT 24 Thu Mar 25 21:24:38 1999 
-1 9.9999999999999995e-007 1e-010 
body $-1 $8 $-1 $9 #
body $-1 $10 $-1 $11 #
body $-1 $12 $-1 $13 #
body $-1 $14 $-1 $15 #
body $-1 $16 $-1 $17 #
body $-1 $18 $-1 $19 #
body $-1 $20 $-1 $21 #
body $-1 $22 $-1 $23 #
lump $-1 $-1 $24 $0 #
transform $-1 1 0 0 0 1 0 0 0 1 46.024353770561845 21.993143447354271 6.4752480477205996 1 rotate no_reflect no_shear #
lump $-1 $-1 $25 $1 #
transform $-1 1 0 0 0 1 0 0 0 1 46.024353770561845 21.993143447354271 6.4752480477205996 1 rotate no_reflect no_shear #
lump $-1 $-1 $26 $2 #
transform $-1 1 0 0 0 1 0 0 0 1 46.024353770561845 21.993143447354271 6.4752480477205996 1 rotate no_reflect no_shear #
lump $-1 $-1 $27 $3 #
transform $-1 1 0 0 0 1 0 0 0 1 46.024353770561845 21.993143447354271 6.4752480477205996 1 rotate no_reflect no_shear #
lump $-1 $-1 $28 $4 #
transform $-1 1 0 0 0 1 0 0 0 1 46.024353770561845 21.993143447354271 6.4752480477205996 1 rotate no_reflect no_shear #
lump $-1 $-1 $29 $5 #
transform $-1 1 0 0 0 1 0 0 0 1 46.024353770561845 21.993143447354271 6.4752480477205996 1 rotate no_reflect no_shear #
lump $-1 $-1 $30 $6 #
transform $-1 1 0 0 0 1 0 0 0 1 46.024353770561845 21.993143447354271 6.4752480477205996 1 rotate no_reflect no_shear #
lump $-1 $-1 $31 $7 #
transform $-1 1 0 0 0 1 0 0 0 1 46.024353770561845 21.993143447354271 6.4752480477205996 1 rotate no_reflect no_shear #
shell $-1 $-1 $-1 $32 $-1 $8 #
shell $-1 $-1 $-1 $33 $-1 $10 #
shell $-1 $-1 $-1 $34 $-1 $12 #
shell $-1 $-1 $-1 $35 $-1 $14 #
shell $-1 $-1 $-1 $36 $-1 $16 #
shell $-1 $-1 $-1 $37 $-1 $18 #
shell $-1 $-1 $-1 $38 $-1 $20 #
shell $-1 $-1 $-1 $39 $-1 $22 #
face $-1 $40 $41 $24 $-1 $42 forward single #
face $-1 $43 $44 $25 $-1 $45 forward single #
face $-1 $46 $47 $26 $-1 $48 reversed single #
face $-1 $49 $50 $27 $-1 $51 forward single #
face $-1 $52 $53 $28 $-1 $54 forward single #
face $-1 $55 $56 $29 $-1 $57 reversed single #
face $-1 $58 $59 $30 $-1 $60 forward single #
face $-1 $61 $62 $31 $-1 $63 forward single #
face $-1 $64 $65 $24 $-1 $66 reversed single #
loop $-1 $-1 $67 $32 #
plane-surface $-1 0 0 6.4752480477205996 0 0 1 1 0 0 forward_v I I I I #
face $-1 $68 $69 $25 $-1 $70 reversed single #
loop $-1 $-1 $71 $33 #
plane-surface $-1 -42.148554103742825 0 1.3829335537341656 0 0 1 1 0 0 forward_v I I I I #
face $-1 $72 $73 $26 $-1 $74 reversed single #
loop $-1 $-1 $75 $34 #
plane-surface $-1 7.6980369711848837 55.978408122738898 96.69939718970501 1 0 0 0 -0.70710678939079041 -0.70710677298230451 forward_v I I I I #
face $-1 $76 $77 $27 $-1 $78 forward single #
loop $-1 $79 $80 $35 #
cone-surface $-1 14.295489583682034 16.349221439876356 0.83132603274289618 0 -0.70710678939079041 -0.70710677298230451 2 0 0 1 I I 0 1 2 forward I I I I #
face $-1 $81 $82 $28 $-1 $83 forward single #
loop $-1 $84 $85 $36 #
cone-surface $-1 24.191668502427746 16.349221439876356 0.83132603274289618 0 -0.70710678939079041 -0.70710677298230451 2 0 0 1 I I 0 1 2 forward I I I I #
face $-1 $86 $87 $29 $-1 $88 reversed single #
loop $-1 $-1 $89 $37 #
plane-surface $-1 40.287020603994137 -21.993143447354257 1.5900423820132161 0 -0.83867057594974714 0.54463902268945019 1 0 0 forward_v I I I I #
face $-1 $90 $91 $30 $-1 $92 forward single #
loop $-1 $93 $94 $38 #
cone-surface $-1 37.828163532607974 -19.900105350879091 3.7035297948173964 0 0.83867057594974714 -0.54463902268945019 1 0 0 1 I I 0 1 1 forward I I I I #
face $-1 $95 $96 $31 $-1 $97 forward single #
loop $-1 $98 $99 $39 #
cone-surface $-1 42.745877675380299 -19.900105350879091 3.7035297948173964 0 0.83867057594974714 -0.54463902268945019 1 0 0 1 I I 0 1 1 forward I I I I #
face $-1 $100 $101 $24 $-1 $102 reversed single #
loop $-1 $-1 $103 $40 #
plane-surface $-1 0 0 -6.4752480477205996 0 0 1 1 0 0 forward_v I I I I #
coedge $-1 $104 $105 $106 $107 forward $41 $-1 #
face $-1 $108 $109 $25 $-1 $110 reversed single #
loop $-1 $-1 $111 $43 #
plane-surface $-1 -42.148554103742825 0 -1.6170664462658344 0 0 1 1 0 0 forward_v I I I I #
coedge $-1 $112 $113 $114 $115 forward $44 $-1 #
face $-1 $116 $117 $26 $-1 $118 reversed single #
loop $-1 $-1 $119 $46 #
plane-surface $-1 19.243579043054893 -9.1098579342369135 31.611132643109116 0 0.70710678939079041 0.70710677298230451 1 0 0 forward_v I I I I #
coedge $-1 $120 $121 $122 $123 reversed $47 $-1 #
face $-1 $-1 $124 $27 $-1 $125 forward single #
loop $-1 $126 $127 $49 #
cone-surface $-1 14.295489583682034 12.981751327749379 -2.5361440012415901 0 -0.70710678939079041 -0.70710677298230451 1 0 0 1 I I -0.70710678118654768 0.70710678118654735 1 forward I I I I #
loop $-1 $-1 $128 $35 #
coedge $-1 $80 $80 $129 $130 reversed $50 $-1 #
face $-1 $-1 $131 $28 $-1 $132 forward single #
loop $-1 $133 $134 $52 #
cone-surface $-1 24.191668502427746 12.981751327749379 -2.5361440012415901 0 -0.70710678939079041 -0.70710677298230451 1 0 0 1 I I -0.70710678118654768 0.70710678118654735 1 forward I I I I #
loop $-1 $-1 $135 $36 #
coedge $-1 $85 $85 $136 $137 reversed $53 $-1 #
face $-1 $138 $139 $29 $-1 $140 reversed single #
loop $-1 $-1 $141 $55 #
plane-surface $-1 34.549687437426428 -99.191686016298291 51.723360497037845 1 0 0 0 0.83867057594974714 -0.54463902268945019 forward_v I I I I #
coedge $-1 $142 $143 $144 $145 reversed $56 $-1 #
face $-1 $-1 $146 $30 $-1 $147 forward single #
loop $-1 $148 $149 $58 #
cone-surface $-1 37.828163532607974 -18.973976742212884 3.1020948634231562 0 0.83867057594974714 -0.54463902268945019 0.5 0 0 1 I I -0.70710678118654746 0.70710678118654746 0.5 forward I I I I #
loop $-1 $-1 $150 $38 #
coedge $-1 $94 $94 $151 $152 reversed $59 $-1 #
face $-1 $-1 $153 $31 $-1 $154 forward single #
loop $-1 $155 $156 $61 #
cone-surface $-1 42.745877675380299 -18.973976742212884 3.1020948634231562 0 0.83867057594974714 -0.54463902268945019 0.5 0 0 1 I I -0.70710678118654746 0.70710678118654746 0.5 forward I I I I #
loop $-1 $-1 $157 $39 #
coedge $-1 $99 $99 $158 $159 reversed $62 $-1 #
face $-1 $160 $161 $24 $-1 $162 reversed single #
loop $-1 $-1 $163 $64 #
plane-surface $-1 0 -21.993143447354271 0 0 1 0 0 0 1 forward_v I I I I #
coedge $-1 $164 $165 $166 $167 forward $65 $-1 #
coedge $-1 $168 $67 $169 $170 forward $41 $-1 #
coedge $-1 $67 $168 $171 $172 forward $41 $-1 #
coedge $-1 $173 $174 $67 $107 reversed $175 $-1 #
edge $-1 $176 -21.993143447354271 $177 21.993143447354271 $106 $178 forward 7 unknown #
face $-1 $179 $180 $25 $-1 $181 reversed single #
loop $-1 $-1 $182 $68 #
plane-surface $-1 -38.272754436923805 0 -0.1170664462658344 -1 0 0 0 0 1 forward_v I I I I #
coedge $-1 $183 $184 $185 $186 forward $69 $-1 #
coedge $-1 $187 $71 $188 $189 reversed $44 $-1 #
coedge $-1 $71 $187 $190 $191 reversed $44 $-1 #
coedge $-1 $182 $192 $71 $115 reversed $109 $-1 #
edge $-1 $193 -21.993143447354271 $194 21.993143447354271 $114 $195 forward 7 unknown #
face $-1 $196 $197 $26 $-1 $198 forward single #
loop $-1 $-1 $199 $72 #
plane-surface $-1 30.789121114924903 55.978408122738898 96.69939718970501 -1 0 0 0 0.70710678939079041 0.70710677298230451 forward_v I I I I #
coedge $-1 $200 $201 $202 $203 reversed $73 $-1 #
coedge $-1 $121 $75 $204 $205 reversed $47 $-1 #
coedge $-1 $75 $120 $200 $206 reversed $47 $-1 #
coedge $-1 $202 $207 $75 $123 forward $197 $-1 #
edge $-1 $208 5.9960606140151782 $209 11.963177983498635 $122 $210 forward 7 unknown #
loop $-1 $-1 $129 $76 #
plane-surface $-1 19.243579043054893 -9.1098579342369135 31.611132643109116 0 0.70710678939079041 0.70710677298230451 1 0 0 forward_v I I I I #
loop $-1 $-1 $211 $49 #
coedge $-1 $127 $127 $128 $212 reversed $77 $-1 #
coedge $-1 $128 $128 $127 $212 forward $79 $-1 #
coedge $-1 $129 $129 $80 $130 forward $124 $-1 #
edge $-1 $213 0 $213 6.2831853071796004 $129 $214 forward 7 unknown #
loop $-1 $-1 $136 $81 #
plane-surface $-1 19.243579043054893 -9.1098579342369135 31.611132643109116 0 0.70710678939079041 0.70710677298230451 1 0 0 forward_v I I I I #
loop $-1 $-1 $215 $52 #
coedge $-1 $134 $134 $135 $216 reversed $82 $-1 #
coedge $-1 $135 $135 $134 $216 forward $84 $-1 #
coedge $-1 $136 $136 $85 $137 forward $131 $-1 #
edge $-1 $217 0 $217 6.2831853071796004 $136 $218 forward 7 unknown #
face $-1 $219 $220 $29 $-1 $221 forward single #
loop $-1 $-1 $222 $86 #
plane-surface $-1 0 -21.993143447354271 0 0 1 0 0 0 1 forward_v I I I I #
coedge $-1 $223 $224 $225 $226 reversed $87 $-1 #
coedge $-1 $227 $89 $228 $229 reversed $56 $-1 #
coedge $-1 $89 $227 $223 $230 forward $56 $-1 #
coedge $-1 $225 $231 $89 $145 forward $220 $-1 #
edge $-1 $232 -25.880843468564777 $233 -14.40617713542936 $144 $234 forward 7 unknown #
loop $-1 $-1 $151 $90 #
plane-surface $-1 40.287020603994137 -21.993143447354257 1.5900423820132161 0 -0.83867057594974714 0.54463902268945019 1 0 0 forward_v I I I I #
loop $-1 $-1 $235 $58 #
coedge $-1 $149 $149 $150 $236 reversed $91 $-1 #
coedge $-1 $150 $150 $149 $236 forward $93 $-1 #
coedge $-1 $151 $151 $94 $152 forward $146 $-1 #
edge $-1 $237 -2.9089495570898117e-016 $237 6.2831853071796004 $151 $238 forward 7 unknown #
loop $-1 $-1 $158 $95 #
plane-surface $-1 40.287020603994137 -21.993143447354257 1.5900423820132161 0 -0.83867057594974714 0.54463902268945019 1 0 0 forward_v I I I I #
loop $-1 $-1 $239 $61 #
coedge $-1 $156 $156 $157 $240 reversed $96 $-1 #
coedge $-1 $157 $157 $156 $240 forward $98 $-1 #
coedge $-1 $158 $158 $99 $159 forward $153 $-1 #
edge $-1 $241 -2.9089495570898117e-016 $241 6.2831853071796004 $158 $242 forward 7 unknown #
face $-1 $243 $244 $24 $-1 $245 reversed single #
loop $-1 $-1 $246 $100 #
plane-surface $-1 -46.024353770561845 0 0 1 0 0 0 0 -1 forward_v I I I I #
coedge $-1 $247 $171 $248 $249 forward $101 $-1 #
coedge $-1 $250 $103 $247 $251 forward $65 $-1 #
coedge $-1 $103 $250 $252 $253 forward $65 $-1 #
coedge $-1 $174 $173 $103 $167 reversed $175 $-1 #
edge $-1 $254 -21.993143447354271 $255 21.993143447354271 $166 $256 forward 7 unknown #
coedge $-1 $105 $104 $257 $258 forward $41 $-1 #
coedge $-1 $259 $260 $104 $170 reversed $244 $-1 #
edge $-1 $177 -46.024353770561845 $261 46.024353770561845 $169 $262 forward 7 unknown #
coedge $-1 $163 $263 $105 $172 reversed $101 $-1 #
edge $-1 $264 -46.024353770561845 $176 46.024353770561845 $171 $265 forward 7 unknown #
coedge $-1 $166 $106 $263 $266 forward $175 $-1 #
coedge $-1 $106 $166 $259 $267 reversed $175 $-1 #
loop $-1 $-1 $173 $243 #
vertex $-1 $107 $268 #
vertex $-1 $107 $269 #
straight-curve $-1 46.024353770561845 0 6.4752480477205996 0 1 0 I I #
face $-1 $270 $271 $25 $-1 $272 reversed single #
loop $-1 $-1 $273 $108 #
plane-surface $-1 0 -21.993143447354271 0 0 1 0 0 0 1 forward_v I I I I #
coedge $-1 $185 $114 $274 $275 reversed $109 $-1 #
coedge $-1 $276 $111 $273 $277 reversed $69 $-1 #
coedge $-1 $111 $276 $278 $279 reversed $69 $-1 #
coedge $-1 $192 $182 $111 $186 reversed $109 $-1 #
edge $-1 $280 -21.993143447354271 $281 21.993143447354271 $185 $282 forward 7 unknown #
coedge $-1 $113 $112 $283 $284 reversed $44 $-1 #
coedge $-1 $285 $286 $112 $189 forward $287 $-1 #
edge $-1 $288 -24.950076718690433 $194 -17.198477385052392 $188 $289 forward 7 unknown #
coedge $-1 $290 $274 $113 $191 forward $180 $-1 #
edge $-1 $193 17.198477385052392 $291 24.950076718690433 $190 $292 forward 7 unknown #
coedge $-1 $114 $185 $285 $293 reversed $109 $-1 #
vertex $-1 $191 $294 #
vertex $-1 $189 $295 #
straight-curve $-1 -38.272754436923805 0 1.3829335537341656 0 1 0 I I #
face $-1 $-1 $296 $26 $-1 $297 reversed single #
loop $-1 $-1 $122 $116 #
plane-surface $-1 0 0 6.4752480477205996 0 0 1 1 0 0 forward_v I I I I #
coedge $-1 $298 $299 $300 $301 reversed $117 $-1 #
coedge $-1 $302 $119 $121 $206 forward $73 $-1 #
coedge $-1 $119 $302 $298 $303 forward $73 $-1 #
coedge $-1 $300 $122 $119 $203 forward $197 $-1 #
edge $-1 $209 -1.923752550342563 $304 21.167331593397456 $202 $305 forward 7 unknown #
coedge $-1 $306 $307 $120 $205 forward $296 $-1 #
edge $-1 $308 -47.841568055082945 $208 -41.874450547131907 $204 $309 forward 7 unknown #
edge $-1 $209 35.547508484601614 $308 43.986286894708549 $121 $310 forward 7 unknown #
coedge $-1 $122 $300 $306 $311 forward $197 $-1 #
vertex $-1 $205 $312 #
vertex $-1 $123 $313 #
straight-curve $-1 7.6980369711848837 27.989204061369449 6.4752480477205978 0 -1 0 I I #
coedge $-1 $211 $211 $-1 $314 reversed $126 $-1 #
edge $-1 $315 0 $315 6.2831853071796004 $127 $316 forward 7 unknown #
vertex $-1 $130 $317 #
ellipse-curve $-1 14.295489583682034 19.009584762612544 3.4916892937450781 0 0.70710678939079041 0.70710677298230451 2 0 0 1 I I #
coedge $-1 $215 $215 $-1 $318 reversed $133 $-1 #
edge $-1 $319 0 $319 6.2831853071796004 $134 $320 forward 7 unknown #
vertex $-1 $137 $321 #
ellipse-curve $-1 24.191668502427746 19.009584762612544 3.4916892937450781 0 0.70710678939079041 0.70710677298230451 2 0 0 1 I I #
face $-1 $-1 $322 $29 $-1 $323 reversed single #
loop $-1 $-1 $225 $138 #
plane-surface $-1 0 0 6.4752480477205996 0 0 1 1 0 0 forward_v I I I I #
coedge $-1 $324 $325 $224 $326 forward $139 $-1 #
coedge $-1 $224 $141 $143 $230 reversed $87 $-1 #
coedge $-1 $141 $223 $222 $326 reversed $87 $-1 #
coedge $-1 $327 $144 $141 $226 forward $220 $-1 #
edge $-1 $233 -30.775189112362586 $328 -27.602699560794875 $225 $329 forward 7 unknown #
coedge $-1 $143 $142 $324 $330 reversed $56 $-1 #
coedge $-1 $331 $332 $142 $229 forward $322 $-1 #
edge $-1 $333 -5.322401196364213 $232 0.50253866178591455 $228 $334 forward 7 unknown #
edge $-1 $335 -2.617579141687138e-014 $233 5.8249398581501017 $223 $336 forward 7 unknown #
coedge $-1 $144 $327 $331 $337 forward $220 $-1 #
vertex $-1 $229 $338 #
vertex $-1 $145 $339 #
straight-curve $-1 20.143510301997068 -18.820653895786563 6.4752480477205996 -1 0 0 I I #
coedge $-1 $235 $235 $-1 $340 reversed $148 $-1 #
edge $-1 $341 0 $341 6.2831853071796004 $149 $342 forward 7 unknown #
vertex $-1 $152 $343 #
ellipse-curve $-1 37.828163532607974 -20.406898671570413 4.0326452148669025 0 -0.83867057594974714 0.54463902268945019 1 0 0 1 I I #
coedge $-1 $239 $239 $-1 $344 reversed $155 $-1 #
edge $-1 $345 0 $345 6.2831853071796004 $156 $346 forward 7 unknown #
vertex $-1 $159 $347 #
ellipse-curve $-1 42.745877675380299 -20.406898671570413 4.0326452148669025 0 -0.83867057594974714 0.54463902268945019 1 0 0 1 I I #
face $-1 $-1 $175 $24 $-1 $348 reversed single #
loop $-1 $-1 $259 $160 #
plane-surface $-1 0 21.993143447354271 0 0 -1 0 0 0 -1 forward_v I I I I #
coedge $-1 $349 $257 $260 $350 forward $161 $-1 #
coedge $-1 $263 $163 $164 $251 reversed $101 $-1 #
coedge $-1 $257 $349 $163 $249 reversed $161 $-1 #
edge $-1 $264 -6.4752480477205996 $351 6.4752480477205996 $248 $352 forward 7 unknown #
coedge $-1 $165 $164 $349 $353 forward $65 $-1 #
edge $-1 $255 -46.024353770561845 $351 46.024353770561845 $247 $354 forward 7 unknown #
coedge $-1 $260 $259 $165 $253 reversed $244 $-1 #
edge $-1 $355 -46.024353770561845 $254 46.024353770561845 $252 $356 forward 7 unknown #
vertex $-1 $167 $357 #
vertex $-1 $266 $358 #
straight-curve $-1 46.024353770561845 0 -6.4752480477205996 0 -1 0 I I #
coedge $-1 $246 $248 $168 $258 reversed $161 $-1 #
edge $-1 $261 -21.993143447354271 $264 21.993143447354271 $257 $359 forward 7 unknown #
coedge $-1 $252 $169 $174 $267 forward $244 $-1 #
coedge $-1 $169 $252 $246 $350 reversed $244 $-1 #
vertex $-1 $170 $360 #
straight-curve $-1 0 21.993143447354271 6.4752480477205996 -1 0 0 I I #
coedge $-1 $171 $247 $173 $266 reversed $101 $-1 #
vertex $-1 $258 $361 #
straight-curve $-1 0 -21.993143447354271 6.4752480477205996 1 0 0 I I #
edge $-1 $176 -6.4752480477205996 $255 6.4752480477205996 $173 $362 forward 7 unknown #
edge $-1 $177 -6.4752480477205996 $254 6.4752480477205996 $174 $363 forward 7 unknown #
point $-1 46.024353770561845 -21.993143447354271 6.4752480477205996 #
point $-1 46.024353770561845 21.993143447354271 6.4752480477205996 #
face $-1 $-1 $287 $25 $-1 $364 reversed single #
loop $-1 $-1 $365 $179 #
plane-surface $-1 -46.024353770561845 0 0 1 0 0 0 0 -1 forward_v I I I I #
coedge $-1 $274 $290 $183 $277 forward $180 $-1 #
coedge $-1 $190 $273 $182 $275 forward $180 $-1 #
edge $-1 $281 -1.5585332231329172 $193 1.4414667768670828 $274 $366 forward 7 unknown #
coedge $-1 $184 $183 $365 $367 reversed $69 $-1 #
edge $-1 $368 -24.950076718690433 $281 -17.198477385052392 $273 $369 forward 7 unknown #
coedge $-1 $286 $285 $184 $279 forward $287 $-1 #
edge $-1 $280 17.198477385052392 $370 24.950076718690433 $278 $371 forward 7 unknown #
vertex $-1 $279 $372 #
vertex $-1 $277 $373 #
straight-curve $-1 -38.272754436923805 0 -1.6170664462658344 0 -1 0 I I #
coedge $-1 $374 $375 $187 $284 forward $271 $-1 #
edge $-1 $291 -21.993143447354271 $288 21.993143447354271 $283 $376 forward 7 unknown #
coedge $-1 $278 $188 $192 $293 forward $287 $-1 #
coedge $-1 $188 $278 $374 $377 reversed $287 $-1 #
loop $-1 $-1 $278 $270 #
vertex $-1 $377 $378 #
straight-curve $-1 -21.074277051871412 21.993143447354271 1.3829335537341656 1 0 0 I I #
coedge $-1 $273 $190 $375 $379 forward $180 $-1 #
vertex $-1 $379 $380 #
straight-curve $-1 -21.074277051871412 -21.993143447354271 1.3829335537341656 -1 0 0 I I #
edge $-1 $194 -1.4414667768670828 $280 1.5585332231329172 $285 $381 forward 7 unknown #
point $-1 -38.272754436923805 -21.993143447354271 1.3829335537341656 #
point $-1 -38.272754436923805 21.993143447354271 1.3829335537341656 #
loop $-1 $-1 $204 $196 #
plane-surface $-1 0 21.993143447354271 0 0 -1 0 0 0 -1 forward_v I I I I #
coedge $-1 $299 $199 $201 $303 reversed $117 $-1 #
coedge $-1 $199 $298 $382 $383 reversed $117 $-1 #
coedge $-1 $207 $202 $199 $301 forward $197 $-1 #
edge $-1 $304 -11.963177983498635 $384 -5.9960606140151782 $300 $385 forward 7 unknown #
coedge $-1 $201 $200 $307 $386 reversed $73 $-1 #
edge $-1 $387 -43.986286894708549 $304 -35.547508484601614 $298 $388 forward 7 unknown #
vertex $-1 $203 $389 #
straight-curve $-1 9.6217895215274467 16.026026077870814 6.4752480477205978 1 0 0 I I #
coedge $-1 $382 $204 $207 $311 reversed $296 $-1 #
coedge $-1 $204 $382 $302 $386 forward $296 $-1 #
vertex $-1 $205 $390 #
straight-curve $-1 7.6980369711848837 21.993143447354271 48.349698594852505 0 0 1 I I #
straight-curve $-1 7.6980369711848837 -9.1098579342369135 31.611132643109116 0 0.70710677298230451 -0.70710678939079041 I I #
edge $-1 $384 -30.789121114924903 $208 -7.6980369711848837 $306 $391 forward 7 unknown #
point $-1 7.6980369711848837 21.993143447354271 6.4752480477205996 #
point $-1 7.6980369711848837 16.026026077870814 6.4752480477205978 #
edge $-1 $392 1 $392 0 $211 $-1 forward 7 unknown #
vertex $-1 $212 $393 #
ellipse-curve $-1 14.295489583682034 13.688858117140169 -1.8290372282592859 0 0.70710678939079041 0.70710677298230451 2 0 0 1 I I #
point $-1 16.295489583682034 19.009584762612544 3.4916892937450781 #
edge $-1 $394 1 $394 0 $215 $-1 forward 7 unknown #
vertex $-1 $216 $395 #
ellipse-curve $-1 24.191668502427746 13.688858117140169 -1.8290372282592859 0 0.70710678939079041 0.70710677298230451 2 0 0 1 I I #
point $-1 26.191668502427746 19.009584762612544 3.4916892937450781 #
loop $-1 $-1 $228 $219 #
plane-surface $-1 46.024353770561845 0 0 -1 0 0 0 0 1 forward_v I I I I #
coedge $-1 $396 $222 $227 $330 forward $139 $-1 #
coedge $-1 $222 $396 $327 $397 reversed $139 $-1 #
edge $-1 $328 19.386432200798325 $335 24.271637866505728 $222 $398 forward 7 unknown #
coedge $-1 $231 $225 $325 $397 forward $220 $-1 #
vertex $-1 $397 $399 #
straight-curve $-1 34.549687437426428 -49.595843008149146 6.4752480477205978 0 -1 0 I I #
edge $-1 $335 14.40617713542936 $333 25.880843468564777 $324 $400 forward 7 unknown #
coedge $-1 $332 $228 $231 $337 reversed $322 $-1 #
coedge $-1 $228 $331 $396 $401 forward $322 $-1 #
vertex $-1 $330 $402 #
straight-curve $-1 46.024353770561845 -19.094356061405307 6.0537836588035931 0 0.54463902268945019 0.83867057594974714 I I #
vertex $-1 $330 $403 #
straight-curve $-1 34.549687437426428 -21.993143447354257 1.5900423820132161 0 0.54463902268945019 0.83867057594974714 I I #
edge $-1 $404 -21.993143447354271 $232 -18.82065389578656 $331 $405 forward 7 unknown #
point $-1 46.024353770561845 -18.82065389578656 6.4752480477205996 #
point $-1 34.549687437426428 -18.82065389578656 6.4752480477205996 #
edge $-1 $406 1 $406 0 $235 $-1 forward 7 unknown #
vertex $-1 $236 $407 #
ellipse-curve $-1 37.828163532607974 -19.393312030187758 3.3744143747678814 0 -0.83867057594974714 0.54463902268945019 1 0 0 1 I I #
point $-1 38.828163532607974 -20.406898671570428 4.0326452148669114 #
edge $-1 $408 1 $408 0 $239 $-1 forward 7 unknown #
vertex $-1 $240 $409 #
ellipse-curve $-1 42.745877675380299 -19.393312030187758 3.3744143747678814 0 -0.83867057594974714 0.54463902268945019 1 0 0 1 I I #
point $-1 43.745877675380299 -20.406898671570428 4.0326452148669114 #
plane-surface $-1 46.024353770561845 0 0 -1 0 0 0 0 1 forward_v I I I I #
coedge $-1 $248 $246 $250 $353 reversed $161 $-1 #
edge $-1 $261 -6.4752480477205996 $355 6.4752480477205996 $260 $410 forward 7 unknown #
vertex $-1 $353 $411 #
straight-curve $-1 -46.024353770561845 -21.993143447354271 0 0 0 -1 I I #
edge $-1 $351 -21.993143447354271 $355 21.993143447354271 $349 $412 forward 7 unknown #
straight-curve $-1 0 -21.993143447354271 -6.4752480477205996 -1 0 0 I I #
vertex $-1 $253 $413 #
straight-curve $-1 0 21.993143447354271 -6.4752480477205996 1 0 0 I I #
point $-1 46.024353770561845 21.993143447354271 -6.4752480477205996 #
point $-1 46.024353770561845 -21.993143447354271 -6.4752480477205996 #
straight-curve $-1 -46.024353770561845 0 6.4752480477205996 0 -1 0 I I #
point $-1 -46.024353770561845 21.993143447354271 6.4752480477205996 #
point $-1 -46.024353770561845 -21.993143447354271 6.4752480477205996 #
straight-curve $-1 46.024353770561845 -21.993143447354271 0 0 0 -1 I I #
straight-curve $-1 46.024353770561845 21.993143447354271 0 0 0 -1 I I #
plane-surface $-1 0 21.993143447354271 0 0 -1 0 0 0 -1 forward_v I I I I #
coedge $-1 $375 $374 $276 $367 forward $271 $-1 #
straight-curve $-1 -38.272754436923805 -21.993143447354271 -0.0585332231329172 0 0 1 I I #
edge $-1 $370 -21.993143447354271 $368 21.993143447354271 $365 $414 forward 7 unknown #
vertex $-1 $277 $415 #
straight-curve $-1 -21.074277051871412 -21.993143447354271 -1.6170664462658344 1 0 0 I I #
vertex $-1 $279 $416 #
straight-curve $-1 -21.074277051871412 21.993143447354271 -1.6170664462658344 -1 0 0 I I #
point $-1 -38.272754436923805 21.993143447354271 -1.6170664462658344 #
point $-1 -38.272754436923805 -21.993143447354271 -1.6170664462658344 #
coedge $-1 $365 $283 $286 $377 forward $271 $-1 #
coedge $-1 $283 $365 $290 $379 reversed $271 $-1 #
straight-curve $-1 -46.024353770561845 0 1.3829335537341656 0 1 0 I I #
edge $-1 $288 -1.3829335537341656 $370 1.6170664462658344 $286 $417 forward 7 unknown #
point $-1 -46.024353770561845 21.993143447354271 1.3829335537341656 #
edge $-1 $291 -1.3829335537341656 $368 1.6170664462658344 $375 $418 forward 7 unknown #
point $-1 -46.024353770561845 -21.993143447354271 1.3829335537341656 #
straight-curve $-1 -38.272754436923805 21.993143447354271 -0.0585332231329172 0 0 -1 I I #
coedge $-1 $307 $306 $299 $383 forward $296 $-1 #
edge $-1 $384 41.874450547131907 $387 47.841568055082945 $382 $419 forward 7 unknown #
vertex $-1 $311 $420 #
straight-curve $-1 30.789121114924903 27.989204061369449 6.4752480477205978 0 1 0 I I #
edge $-1 $387 -21.167331593397456 $308 1.923752550342563 $307 $421 forward 7 unknown #
vertex $-1 $386 $422 #
straight-curve $-1 30.789121114924903 -9.1098579342369135 31.611132643109116 0 -0.70710677298230451 0.70710678939079041 I I #
point $-1 30.789121114924903 16.026026077870814 6.4752480477205978 #
point $-1 7.6980369711848837 21.993143447354271 0.50813053976956368 #
straight-curve $-1 0 21.993143447354271 6.4752480477205996 -1 0 0 I I #
vertex $-1 $314 $423 #
point $-1 16.295489583682034 13.688858117140169 -1.8290372282592859 #
vertex $-1 $318 $424 #
point $-1 26.191668502427746 13.688858117140169 -1.8290372282592859 #
coedge $-1 $325 $324 $332 $401 reversed $139 $-1 #
edge $-1 $328 34.549687437426428 $404 46.024353770561845 $325 $425 forward 7 unknown #
straight-curve $-1 34.549687437426428 -21.993143447354271 25.861680248518923 0 0 -1 I I #
point $-1 34.549687437426428 -21.993143447354271 6.4752480477205996 #
straight-curve $-1 20.143510301997068 -21.993143447354271 1.5900423820131948 1 0 0 I I #
edge $-1 $404 -6.4752480477205996 $333 -1.5900423820131941 $332 $426 forward 7 unknown #
point $-1 46.024353770561845 -21.993143447354271 1.5900423820131941 #
point $-1 34.549687437426428 -21.993143447354271 1.5900423820131941 #
vertex $-1 $337 $427 #
straight-curve $-1 46.024353770561845 0 6.4752480477205996 0 1 0 I I #
vertex $-1 $340 $428 #
point $-1 38.828163532607974 -19.393312030187758 3.3744143747678814 #
vertex $-1 $344 $429 #
point $-1 43.745877675380299 -19.393312030187758 3.3744143747678814 #
straight-curve $-1 -46.024353770561845 21.993143447354271 0 0 0 -1 I I #
point $-1 -46.024353770561845 -21.993143447354271 -6.4752480477205996 #
straight-curve $-1 -46.024353770561845 0 -6.4752480477205996 0 1 0 I I #
point $-1 -46.024353770561845 21.993143447354271 -6.4752480477205996 #
straight-curve $-1 -46.024353770561845 0 -1.6170664462658344 0 -1 0 I I #
point $-1 -46.024353770561845 -21.993143447354271 -1.6170664462658344 #
point $-1 -46.024353770561845 21.993143447354271 -1.6170664462658344 #
straight-curve $-1 -46.024353770561845 21.993143447354271 0 0 0 -1 I I #
straight-curve $-1 -46.024353770561845 -21.993143447354271 0 0 0 -1 I I #
straight-curve $-1 30.789121114924903 21.993143447354271 48.349698594852505 0 0 -1 I I #
point $-1 30.789121114924903 21.993143447354271 6.4752480477205996 #
straight-curve $-1 9.6217895215274467 21.993143447354271 0.50813053976956368 -1 0 0 I I #
point $-1 30.789121114924903 21.993143447354271 0.50813053976956368 #
point $-1 14.295489583682034 12.274644538358588 -3.2432507742238945 #
point $-1 24.191668502427746 12.274644538358588 -3.2432507742238945 #
straight-curve $-1 0 -21.993143447354271 6.4752480477205996 1 0 0 I I #
straight-curve $-1 46.024353770561845 -21.993143447354271 0 0 0 -1 I I #
point $-1 46.024353770561845 -21.993143447354271 6.4752480477205996 #
point $-1 37.828163532607974 -18.554641454238009 2.829775352078431 #
point $-1 42.745877675380299 -18.554641454238009 2.829775352078431 #
End-of-ACIS-data 