500 0 10 0           
7 Unknown 11 ACIS 5.0 NT 24 Fri Mar 26 16:33:56 1999 
-1 9.9999999999999995e-007 1e-010 
body $-1 $10 $-1 $11 #
body $-1 $12 $-1 $13 #
body $-1 $14 $-1 $15 #
body $-1 $16 $-1 $17 #
body $-1 $18 $-1 $19 #
body $-1 $20 $-1 $21 #
body $-1 $22 $-1 $23 #
body $-1 $24 $-1 $25 #
body $-1 $26 $-1 $27 #
body $-1 $28 $-1 $29 #
lump $-1 $-1 $30 $0 #
transform $-1 1 0 0 0 1 0 0 0 1 44.200567644276255 18.165034455743672 4.2724724279601709 1 rotate no_reflect no_shear #
lump $-1 $-1 $31 $1 #
transform $-1 1 0 0 0 1 0 0 0 1 44.200567644276255 18.165034455743672 4.2724724279601709 1 rotate no_reflect no_shear #
lump $-1 $-1 $32 $2 #
transform $-1 1 0 0 0 1 0 0 0 1 44.200567644276255 18.165034455743672 4.2724724279601709 1 rotate no_reflect no_shear #
lump $-1 $-1 $33 $3 #
transform $-1 1 0 0 0 1 0 0 0 1 44.200567644276255 18.165034455743672 4.2724724279601709 1 rotate no_reflect no_shear #
lump $-1 $-1 $34 $4 #
transform $-1 1 0 0 0 1 0 0 0 1 44.200567644276255 18.165034455743672 4.2724724279601709 1 rotate no_reflect no_shear #
lump $-1 $-1 $35 $5 #
transform $-1 1 0 0 0 1 0 0 0 1 44.200567644276255 18.165034455743672 4.2724724279601709 1 rotate no_reflect no_shear #
lump $-1 $-1 $36 $6 #
transform $-1 1 0 0 0 1 0 0 0 1 44.200567644276255 18.165034455743672 4.2724724279601709 1 rotate no_reflect no_shear #
lump $-1 $-1 $37 $7 #
transform $-1 1 0 0 0 1 0 0 0 1 44.200567644276255 18.165034455743672 4.2724724279601709 1 rotate no_reflect no_shear #
lump $-1 $-1 $38 $8 #
transform $-1 1 0 0 0 1 0 0 0 1 44.200567644276255 18.165034455743672 4.2724724279601709 1 rotate no_reflect no_shear #
lump $-1 $-1 $39 $9 #
transform $-1 1 0 0 0 1 0 0 0 1 44.200567644276255 18.165034455743672 4.2724724279601709 1 rotate no_reflect no_shear #
shell $-1 $-1 $-1 $40 $-1 $10 #
shell $-1 $-1 $-1 $41 $-1 $12 #
shell $-1 $-1 $-1 $42 $-1 $14 #
shell $-1 $-1 $-1 $43 $-1 $16 #
shell $-1 $-1 $-1 $44 $-1 $18 #
shell $-1 $-1 $-1 $45 $-1 $20 #
shell $-1 $-1 $-1 $46 $-1 $22 #
shell $-1 $-1 $-1 $47 $-1 $24 #
shell $-1 $-1 $-1 $48 $-1 $26 #
shell $-1 $-1 $-1 $49 $-1 $28 #
face $-1 $50 $51 $30 $-1 $52 forward single #
face $-1 $53 $54 $31 $-1 $55 forward single #
face $-1 $56 $57 $32 $-1 $58 reversed single #
face $-1 $59 $60 $33 $-1 $61 forward single #
face $-1 $62 $63 $34 $-1 $64 reversed single #
face $-1 $65 $66 $35 $-1 $67 forward single #
face $-1 $68 $69 $36 $-1 $70 forward single #
face $-1 $71 $72 $37 $-1 $73 reversed single #
face $-1 $74 $75 $38 $-1 $76 forward single #
face $-1 $77 $78 $39 $-1 $79 forward single #
face $-1 $80 $81 $30 $-1 $82 reversed single #
loop $-1 $-1 $83 $40 #
plane-surface $-1 0 0 4.2724724279601709 0 0 1 1 0 0 forward_v I I I I #
face $-1 $84 $85 $31 $-1 $86 forward single #
loop $-1 $-1 $87 $41 #
plane-surface $-1 -44.200567644276255 0 0 1 0 0 0 0 -1 forward_v I I I I #
face $-1 $88 $89 $32 $-1 $90 reversed single #
loop $-1 $-1 $91 $42 #
plane-surface $-1 -24.360097262135085 -70.125918728099776 72.02224044884359 -1 0 0 0 -0.5877852598018023 0.80901698891910034 forward_v I I I I #
face $-1 $92 $93 $33 $-1 $94 forward single #
loop $-1 $95 $96 $43 #
cone-surface $-1 -31.552022337873435 -15.260778470879785 1.9603205818628915 0 0.5877852598018023 -0.80901698891910034 1 0 0 1 I I 0 1 1 forward I I I I #
face $-1 $97 $98 $34 $-1 $99 reversed single #
loop $-1 $-1 $100 $44 #
plane-surface $-1 -32.717020509980124 40.73427577010488 92.981539216616625 1 0 0 0 -0.5877852598018023 -0.80901698891910034 forward_v I I I I #
face $-1 $101 $102 $35 $-1 $103 forward single #
loop $-1 $104 $105 $45 #
cone-surface $-1 -28.130805643236322 14.852356272081554 1.574816174898247 0 -0.5877852598018023 -0.80901698891910034 1.5 0 0 1 I I 0 1 1.5 forward I I I I #
face $-1 $106 $107 $36 $-1 $108 forward single #
loop $-1 $109 $110 $46 #
cone-surface $-1 -21.251483343120618 14.852356272081554 1.574816174898247 0 -0.5877852598018023 -0.80901698891910034 1.5 0 0 1 I I 0 1 1.5 forward I I I I #
face $-1 $111 $112 $37 $-1 $113 reversed single #
loop $-1 $-1 $114 $47 #
plane-surface $-1 22.121888707041279 40.73427577010488 92.981539216616625 1 0 0 0 -0.5877852598018023 -0.80901698891910034 forward_v I I I I #
face $-1 $115 $116 $38 $-1 $117 forward single #
loop $-1 $118 $119 $48 #
cone-surface $-1 26.708103573785074 14.852356272081554 1.574816174898247 0 -0.5877852598018023 -0.80901698891910034 1.5 0 0 1 I I 0 1 1.5 forward I I I I #
face $-1 $120 $121 $39 $-1 $122 forward single #
loop $-1 $123 $124 $49 #
cone-surface $-1 33.587425873900791 14.852356272081554 1.574816174898247 0 -0.5877852598018023 -0.80901698891910034 1.5 0 0 1 I I 0 1 1.5 forward I I I I #
face $-1 $125 $126 $30 $-1 $127 reversed single #
loop $-1 $-1 $128 $50 #
plane-surface $-1 0 0 -4.2724724279601709 0 0 1 1 0 0 forward_v I I I I #
coedge $-1 $129 $130 $131 $132 forward $51 $-1 #
face $-1 $133 $134 $31 $-1 $135 reversed single #
loop $-1 $-1 $136 $53 #
plane-surface $-1 0 0 4.2724724279601709 0 0 1 1 0 0 forward_v I I I I #
coedge $-1 $137 $138 $139 $140 forward $54 $-1 #
face $-1 $141 $142 $32 $-1 $143 reversed single #
loop $-1 $-1 $144 $56 #
plane-surface $-1 -31.552022337873439 -18.165034455743665 0.50422016066880815 0 -0.5877852598018023 0.80901698891910034 1 0 0 forward_v I I I I #
coedge $-1 $145 $146 $147 $148 reversed $57 $-1 #
face $-1 $-1 $149 $33 $-1 $150 forward single #
loop $-1 $151 $152 $59 #
cone-surface $-1 -31.552022337873435 -14.655906951732874 1.1277863749517429 0 0.5877852598018023 -0.80901698891910034 0.5 0 0 1 I I -0.70710678118654746 0.70710678118654746 0.5 forward I I I I #
loop $-1 $-1 $153 $43 #
coedge $-1 $96 $96 $154 $155 reversed $60 $-1 #
face $-1 $156 $157 $34 $-1 $158 reversed single #
loop $-1 $-1 $159 $62 #
plane-surface $-1 -24.69114449317847 -11.226608502251231 21.463518928441843 0 0.5877852598018023 0.80901698891910034 1 0 0 forward_v I I I I #
coedge $-1 $160 $161 $162 $163 reversed $63 $-1 #
face $-1 $-1 $164 $35 $-1 $165 forward single #
loop $-1 $166 $167 $65 #
cone-surface $-1 -28.130805643236322 13.963938054873417 0.3520134267841506 0 -0.5877852598018023 -0.80901698891910034 0.75 0 0 1 I I -0.70710678118654757 0.70710678118654757 0.75 forward I I I I #
loop $-1 $-1 $168 $45 #
coedge $-1 $105 $105 $169 $170 reversed $66 $-1 #
face $-1 $-1 $171 $36 $-1 $172 forward single #
loop $-1 $173 $174 $68 #
cone-surface $-1 -21.251483343120618 13.963938054873417 0.3520134267841506 0 -0.5877852598018023 -0.80901698891910034 0.75 0 0 1 I I -0.70710678118654757 0.70710678118654757 0.75 forward I I I I #
loop $-1 $-1 $175 $46 #
coedge $-1 $110 $110 $176 $177 reversed $69 $-1 #
face $-1 $178 $179 $37 $-1 $180 reversed single #
loop $-1 $-1 $181 $71 #
plane-surface $-1 30.147764723842933 -11.226608502251231 21.463518928441843 0 0.5877852598018023 0.80901698891910034 1 0 0 forward_v I I I I #
coedge $-1 $182 $183 $184 $185 reversed $72 $-1 #
face $-1 $-1 $186 $38 $-1 $187 forward single #
loop $-1 $188 $189 $74 #
cone-surface $-1 26.708103573785074 13.963938054873417 0.3520134267841506 0 -0.5877852598018023 -0.80901698891910034 0.75 0 0 1 I I -0.70710678118654757 0.70710678118654757 0.75 forward I I I I #
loop $-1 $-1 $190 $48 #
coedge $-1 $119 $119 $191 $192 reversed $75 $-1 #
face $-1 $-1 $193 $39 $-1 $194 forward single #
loop $-1 $195 $196 $77 #
cone-surface $-1 33.587425873900791 13.963938054873417 0.3520134267841506 0 -0.5877852598018023 -0.80901698891910034 0.75 0 0 1 I I -0.70710678118654757 0.70710678118654757 0.75 forward I I I I #
loop $-1 $-1 $197 $49 #
coedge $-1 $124 $124 $198 $199 reversed $78 $-1 #
face $-1 $200 $201 $30 $-1 $202 reversed single #
loop $-1 $-1 $203 $80 #
plane-surface $-1 0 -18.165034455743672 0 0 1 0 0 0 1 forward_v I I I I #
coedge $-1 $204 $205 $206 $207 forward $81 $-1 #
coedge $-1 $208 $83 $209 $210 forward $51 $-1 #
coedge $-1 $83 $208 $211 $212 forward $51 $-1 #
coedge $-1 $213 $214 $83 $132 reversed $215 $-1 #
edge $-1 $216 -18.165034455743672 $217 18.165034455743672 $131 $218 forward 7 unknown #
face $-1 $219 $220 $31 $-1 $221 reversed single #
loop $-1 $-1 $222 $84 #
plane-surface $-1 -49.657187874940725 -16.665034455743672 0 1 0 0 0 0 -1 forward_v I I I I #
coedge $-1 $223 $224 $137 $225 forward $85 $-1 #
coedge $-1 $226 $87 $136 $225 reversed $54 $-1 #
coedge $-1 $87 $226 $227 $228 reversed $54 $-1 #
coedge $-1 $229 $230 $87 $140 reversed $220 $-1 #
edge $-1 $231 -4.2724724279601709 $232 4.2724724279601709 $139 $233 forward 7 unknown #
face $-1 $234 $235 $32 $-1 $236 forward single #
loop $-1 $-1 $237 $88 #
plane-surface $-1 -38.743947413611792 -70.125918728099776 72.02224044884359 1 0 0 0 0.5877852598018023 -0.80901698891910034 forward_v I I I I #
coedge $-1 $238 $239 $240 $241 reversed $89 $-1 #
coedge $-1 $146 $91 $242 $243 reversed $57 $-1 #
coedge $-1 $91 $145 $238 $244 reversed $57 $-1 #
coedge $-1 $240 $245 $91 $148 forward $235 $-1 #
edge $-1 $246 16.897924908306216 $247 22.084479099541973 $147 $248 forward 7 unknown #
loop $-1 $-1 $154 $92 #
plane-surface $-1 -31.552022337873439 -18.165034455743665 0.50422016066880815 0 -0.5877852598018023 0.80901698891910034 1 0 0 forward_v I I I I #
loop $-1 $-1 $249 $59 #
coedge $-1 $152 $152 $153 $250 reversed $93 $-1 #
coedge $-1 $153 $153 $152 $250 forward $95 $-1 #
coedge $-1 $154 $154 $96 $155 forward $149 $-1 #
edge $-1 $251 -1.0470020818066083e-015 $251 6.2831853071795996 $154 $252 forward 7 unknown #
face $-1 $253 $254 $34 $-1 $255 reversed single #
loop $-1 $-1 $256 $97 #
plane-surface $-1 -16.665268476376816 40.73427577010488 92.981539216616625 -1 0 0 0 0.5877852598018023 0.80901698891910034 forward_v I I I I #
coedge $-1 $257 $258 $259 $260 reversed $98 $-1 #
coedge $-1 $161 $100 $261 $262 reversed $63 $-1 #
coedge $-1 $100 $160 $257 $263 reversed $63 $-1 #
coedge $-1 $259 $264 $100 $163 forward $265 $-1 #
edge $-1 $266 2.2021034293087673 $267 7.9323012519194265 $162 $268 forward 7 unknown #
loop $-1 $-1 $169 $101 #
plane-surface $-1 -24.69114449317847 -11.226608502251231 21.463518928441843 0 0.5877852598018023 0.80901698891910034 1 0 0 forward_v I I I I #
loop $-1 $-1 $269 $65 #
coedge $-1 $167 $167 $168 $270 reversed $102 $-1 #
coedge $-1 $168 $168 $167 $270 forward $104 $-1 #
coedge $-1 $169 $169 $105 $170 forward $164 $-1 #
edge $-1 $271 -1.0479639869596157e-015 $271 6.2831853071795996 $169 $272 forward 7 unknown #
loop $-1 $-1 $176 $106 #
plane-surface $-1 -24.69114449317847 -11.226608502251231 21.463518928441843 0 0.5877852598018023 0.80901698891910034 1 0 0 forward_v I I I I #
loop $-1 $-1 $273 $68 #
coedge $-1 $174 $174 $175 $274 reversed $107 $-1 #
coedge $-1 $175 $175 $174 $274 forward $109 $-1 #
coedge $-1 $176 $176 $110 $177 forward $171 $-1 #
edge $-1 $275 -1.0479639869596157e-015 $275 6.2831853071795996 $176 $276 forward 7 unknown #
face $-1 $277 $278 $37 $-1 $279 forward single #
loop $-1 $-1 $280 $111 #
plane-surface $-1 38.173640740644586 40.73427577010488 92.981539216616625 -1 0 0 0 0.5877852598018023 0.80901698891910034 forward_v I I I I #
coedge $-1 $281 $282 $283 $284 reversed $112 $-1 #
coedge $-1 $183 $114 $285 $286 reversed $72 $-1 #
coedge $-1 $114 $182 $281 $287 reversed $72 $-1 #
coedge $-1 $283 $288 $114 $185 forward $278 $-1 #
edge $-1 $289 2.2021034293087673 $290 7.9323012519194265 $184 $291 forward 7 unknown #
loop $-1 $-1 $191 $115 #
plane-surface $-1 30.147764723842933 -11.226608502251231 21.463518928441843 0 0.5877852598018023 0.80901698891910034 1 0 0 forward_v I I I I #
loop $-1 $-1 $292 $74 #
coedge $-1 $189 $189 $190 $293 reversed $116 $-1 #
coedge $-1 $190 $190 $189 $293 forward $118 $-1 #
coedge $-1 $191 $191 $119 $192 forward $186 $-1 #
edge $-1 $294 -1.0479639869596157e-015 $294 6.2831853071795996 $191 $295 forward 7 unknown #
loop $-1 $-1 $198 $120 #
plane-surface $-1 30.147764723842933 -11.226608502251231 21.463518928441843 0 0.5877852598018023 0.80901698891910034 1 0 0 forward_v I I I I #
loop $-1 $-1 $296 $77 #
coedge $-1 $196 $196 $197 $297 reversed $121 $-1 #
coedge $-1 $197 $197 $196 $297 forward $123 $-1 #
coedge $-1 $198 $198 $124 $199 forward $193 $-1 #
edge $-1 $298 -1.0479639869596157e-015 $298 6.2831853071795996 $198 $299 forward 7 unknown #
face $-1 $300 $301 $30 $-1 $302 reversed single #
loop $-1 $-1 $303 $125 #
plane-surface $-1 -44.200567644276255 0 0 1 0 0 0 0 -1 forward_v I I I I #
coedge $-1 $304 $211 $305 $306 forward $126 $-1 #
coedge $-1 $307 $128 $304 $308 forward $81 $-1 #
coedge $-1 $128 $307 $309 $310 forward $81 $-1 #
coedge $-1 $214 $213 $128 $207 reversed $215 $-1 #
edge $-1 $311 -18.165034455743672 $312 18.165034455743672 $206 $313 forward 7 unknown #
coedge $-1 $130 $129 $314 $315 forward $51 $-1 #
coedge $-1 $316 $317 $129 $210 reversed $301 $-1 #
edge $-1 $217 -44.200567644276255 $318 44.200567644276255 $209 $319 forward 7 unknown #
coedge $-1 $203 $320 $130 $212 reversed $126 $-1 #
edge $-1 $321 -44.200567644276255 $216 44.200567644276255 $211 $322 forward 7 unknown #
coedge $-1 $206 $131 $320 $323 forward $215 $-1 #
coedge $-1 $131 $206 $316 $324 reversed $215 $-1 #
loop $-1 $-1 $213 $300 #
vertex $-1 $132 $325 #
vertex $-1 $132 $326 #
straight-curve $-1 44.200567644276255 0 4.2724724279601709 0 1 0 I I #
face $-1 $327 $328 $31 $-1 $329 reversed single #
loop $-1 $-1 $139 $133 #
plane-surface $-1 -46.92887775960849 -15.165034455743672 0 0 -1 0 0 0 -1 forward_v I I I I #
coedge $-1 $330 $331 $332 $333 forward $134 $-1 #
coedge $-1 $334 $136 $230 $335 forward $85 $-1 #
coedge $-1 $136 $334 $336 $337 forward $85 $-1 #
edge $-1 $338 -18.165034455743672 $232 -15.165034455743672 $136 $339 forward 7 unknown #
coedge $-1 $138 $137 $340 $341 reversed $54 $-1 #
coedge $-1 $342 $343 $138 $228 forward $328 $-1 #
edge $-1 $231 15.165034455743672 $344 18.165034455743672 $227 $345 forward 7 unknown #
coedge $-1 $332 $139 $343 $346 reversed $220 $-1 #
coedge $-1 $139 $332 $223 $335 reversed $220 $-1 #
vertex $-1 $228 $347 #
vertex $-1 $335 $348 #
straight-curve $-1 -44.200567644276255 -15.165034455743672 0 0 0 1 I I #
face $-1 $-1 $349 $32 $-1 $350 reversed single #
loop $-1 $-1 $147 $141 #
plane-surface $-1 0 0 4.2724724279601709 0 0 1 1 0 0 forward_v I I I I #
coedge $-1 $351 $352 $353 $354 reversed $142 $-1 #
coedge $-1 $355 $144 $146 $244 forward $89 $-1 #
coedge $-1 $144 $355 $351 $356 forward $89 $-1 #
coedge $-1 $353 $147 $144 $241 forward $235 $-1 #
edge $-1 $247 8.5840860931983656 $357 22.967936244675073 $240 $358 forward 7 unknown #
coedge $-1 $359 $360 $145 $243 forward $349 $-1 #
edge $-1 $361 -35.506900063752994 $246 -31.738647796461624 $242 $362 forward 7 unknown #
edge $-1 $247 -6.4109335925878685 $361 8.7502459990790685e-015 $146 $363 forward 7 unknown #
coedge $-1 $147 $353 $359 $364 forward $235 $-1 #
vertex $-1 $148 $365 #
vertex $-1 $148 $366 #
straight-curve $-1 -24.360097262135085 -35.062959364049888 4.2724724279601745 0 1 0 I I #
coedge $-1 $249 $249 $-1 $367 reversed $151 $-1 #
edge $-1 $368 0 $368 6.2831853071796004 $152 $369 forward 7 unknown #
vertex $-1 $155 $370 #
ellipse-curve $-1 -31.552022337873435 -15.571757360125794 2.3883462943144869 0 -0.5877852598018023 0.80901698891910034 1 0 0 1 I I #
face $-1 $-1 $265 $34 $-1 $371 forward single #
loop $-1 $-1 $372 $156 #
plane-surface $-1 0 18.165034455743672 0 0 -1 0 0 0 -1 forward_v I I I I #
coedge $-1 $373 $374 $375 $376 reversed $157 $-1 #
coedge $-1 $377 $159 $161 $263 forward $98 $-1 #
coedge $-1 $159 $377 $373 $378 forward $98 $-1 #
coedge $-1 $375 $162 $159 $260 forward $265 $-1 #
edge $-1 $267 -20.371448263390889 $379 -4.3196962297875814 $259 $380 forward 7 unknown #
coedge $-1 $381 $382 $160 $262 forward $254 $-1 #
edge $-1 $383 -46.381529673622438 $266 -42.218297180348145 $261 $384 forward 7 unknown #
edge $-1 $267 29.247154830453539 $383 36.330068911487338 $161 $385 forward 7 unknown #
coedge $-1 $162 $375 $381 $386 forward $265 $-1 #
loop $-1 $-1 $375 $253 #
vertex $-1 $262 $387 #
vertex $-1 $163 $388 #
straight-curve $-1 -32.717020509980124 20.36713788505244 4.2724724279601674 0 -1 0 I I #
coedge $-1 $269 $269 $-1 $389 reversed $166 $-1 #
edge $-1 $390 0 $390 6.2831853071796004 $167 $391 forward 7 unknown #
vertex $-1 $170 $392 #
ellipse-curve $-1 -28.130805643236322 15.299935544438345 2.1908561813230252 0 0.5877852598018023 0.80901698891910034 1.5 0 0 1 I I #
coedge $-1 $273 $273 $-1 $393 reversed $173 $-1 #
edge $-1 $394 0 $394 6.2831853071796004 $174 $395 forward 7 unknown #
vertex $-1 $177 $396 #
ellipse-curve $-1 -21.251483343120618 15.299935544438345 2.1908561813230252 0 0.5877852598018023 0.80901698891910034 1.5 0 0 1 I I #
face $-1 $-1 $397 $37 $-1 $398 reversed single #
loop $-1 $-1 $184 $178 #
plane-surface $-1 0 0 4.2724724279601709 0 0 1 1 0 0 forward_v I I I I #
coedge $-1 $399 $400 $401 $402 reversed $179 $-1 #
coedge $-1 $403 $181 $183 $287 forward $112 $-1 #
coedge $-1 $181 $403 $399 $404 forward $112 $-1 #
coedge $-1 $401 $184 $181 $284 forward $278 $-1 #
edge $-1 $290 7.0480063451198127 $405 23.09975837872312 $283 $406 forward 7 unknown #
coedge $-1 $407 $408 $182 $286 forward $397 $-1 #
edge $-1 $409 -46.381529673622438 $289 -42.218297180348145 $285 $410 forward 7 unknown #
edge $-1 $290 29.247154830453539 $409 36.330068911487338 $183 $411 forward 7 unknown #
coedge $-1 $184 $401 $407 $412 forward $278 $-1 #
vertex $-1 $286 $413 #
vertex $-1 $185 $414 #
straight-curve $-1 22.121888707041279 20.36713788505244 4.2724724279601674 0 -1 0 I I #
coedge $-1 $292 $292 $-1 $415 reversed $188 $-1 #
edge $-1 $416 0 $416 6.2831853071796004 $189 $417 forward 7 unknown #
vertex $-1 $192 $418 #
ellipse-curve $-1 26.708103573785074 15.299935544438345 2.1908561813230252 0 0.5877852598018023 0.80901698891910034 1.5 0 0 1 I I #
coedge $-1 $296 $296 $-1 $419 reversed $195 $-1 #
edge $-1 $420 0 $420 6.2831853071796004 $196 $421 forward 7 unknown #
vertex $-1 $199 $422 #
ellipse-curve $-1 33.587425873900791 15.299935544438345 2.1908561813230252 0 0.5877852598018023 0.80901698891910034 1.5 0 0 1 I I #
face $-1 $-1 $215 $30 $-1 $423 reversed single #
loop $-1 $-1 $316 $200 #
plane-surface $-1 0 18.165034455743672 0 0 -1 0 0 0 -1 forward_v I I I I #
coedge $-1 $424 $314 $317 $425 forward $201 $-1 #
coedge $-1 $320 $203 $204 $308 reversed $126 $-1 #
coedge $-1 $314 $424 $203 $306 reversed $201 $-1 #
edge $-1 $321 -4.2724724279601709 $426 4.2724724279601709 $305 $427 forward 7 unknown #
coedge $-1 $205 $204 $424 $428 forward $81 $-1 #
edge $-1 $312 -44.200567644276255 $426 44.200567644276255 $304 $429 forward 7 unknown #
coedge $-1 $317 $316 $205 $310 reversed $301 $-1 #
edge $-1 $430 -44.200567644276255 $311 44.200567644276255 $309 $431 forward 7 unknown #
vertex $-1 $207 $432 #
vertex $-1 $323 $433 #
straight-curve $-1 44.200567644276255 0 -4.2724724279601709 0 -1 0 I I #
coedge $-1 $303 $305 $208 $315 reversed $201 $-1 #
edge $-1 $318 -18.165034455743672 $321 18.165034455743672 $314 $434 forward 7 unknown #
coedge $-1 $309 $209 $214 $324 forward $301 $-1 #
coedge $-1 $209 $309 $303 $425 reversed $301 $-1 #
vertex $-1 $210 $435 #
straight-curve $-1 0 18.165034455743672 4.2724724279601709 -1 0 0 I I #
coedge $-1 $211 $304 $213 $323 reversed $126 $-1 #
vertex $-1 $315 $436 #
straight-curve $-1 0 -18.165034455743672 4.2724724279601709 1 0 0 I I #
edge $-1 $216 -4.2724724279601709 $312 4.2724724279601709 $213 $437 forward 7 unknown #
edge $-1 $217 -4.2724724279601709 $311 4.2724724279601709 $214 $438 forward 7 unknown #
point $-1 44.200567644276255 -18.165034455743672 4.2724724279601709 #
point $-1 44.200567644276255 18.165034455743672 4.2724724279601709 #
face $-1 $-1 $439 $31 $-1 $440 reversed single #
loop $-1 $-1 $227 $219 #
plane-surface $-1 0 0 -4.2724724279601709 0 0 1 1 0 0 forward_v I I I I #
coedge $-1 $441 $222 $442 $443 reversed $134 $-1 #
coedge $-1 $222 $441 $334 $444 reversed $134 $-1 #
coedge $-1 $230 $229 $222 $333 reversed $220 $-1 #
edge $-1 $445 -4.2724724279601709 $446 4.2724724279601709 $332 $447 forward 7 unknown #
coedge $-1 $224 $223 $331 $444 forward $85 $-1 #
edge $-1 $232 -2.7283101153322349 $445 2.7283101153322349 $230 $448 forward 7 unknown #
coedge $-1 $449 $340 $224 $337 reversed $439 $-1 #
edge $-1 $450 -49.657187874940725 $338 -44.200567644276255 $336 $451 forward 7 unknown #
vertex $-1 $341 $452 #
straight-curve $-1 -44.200567644276255 0 4.2724724279601709 0 1 0 I I #
coedge $-1 $336 $453 $226 $341 forward $439 $-1 #
edge $-1 $344 -4.2724724279601709 $338 4.2724724279601709 $340 $454 forward 7 unknown #
coedge $-1 $442 $227 $453 $455 forward $328 $-1 #
coedge $-1 $227 $442 $229 $346 forward $328 $-1 #
vertex $-1 $455 $456 #
straight-curve $-1 -44.200567644276255 0 -4.2724724279601709 0 -1 0 I I #
edge $-1 $446 -2.7283101153322349 $231 2.7283101153322349 $229 $457 forward 7 unknown #
point $-1 -44.200567644276255 -15.165034455743672 -4.2724724279601709 #
point $-1 -44.200567644276255 -15.165034455743672 4.2724724279601709 #
loop $-1 $-1 $242 $234 #
plane-surface $-1 0 -18.165034455743672 0 0 1 0 0 0 1 forward_v I I I I #
coedge $-1 $352 $237 $239 $356 reversed $142 $-1 #
coedge $-1 $237 $351 $458 $459 reversed $142 $-1 #
coedge $-1 $245 $240 $237 $354 forward $235 $-1 #
edge $-1 $357 -22.084479099541973 $460 -16.897924908306216 $353 $461 forward 7 unknown #
coedge $-1 $239 $238 $360 $462 reversed $89 $-1 #
edge $-1 $463 -8.7502459990790685e-015 $357 6.4109335925878685 $351 $464 forward 7 unknown #
vertex $-1 $241 $465 #
straight-curve $-1 -15.776011168936719 -12.978480264507917 4.2724724279601709 -1 0 0 I I #
coedge $-1 $458 $242 $245 $364 reversed $349 $-1 #
coedge $-1 $242 $458 $355 $462 forward $349 $-1 #
vertex $-1 $243 $466 #
straight-curve $-1 -24.360097262135085 -18.165034455743672 36.011120224421795 0 0 1 I I #
straight-curve $-1 -24.360097262135085 -18.165034455743665 0.50422016066880815 0 -0.80901698891910034 -0.5877852598018023 I I #
edge $-1 $460 -38.743947413611792 $246 -24.360097262135085 $359 $467 forward 7 unknown #
point $-1 -24.360097262135085 -18.165034455743672 4.2724724279601709 #
point $-1 -24.360097262135085 -12.978480264507917 4.2724724279601709 #
edge $-1 $468 1 $468 0 $249 $-1 forward 7 unknown #
vertex $-1 $250 $469 #
ellipse-curve $-1 -31.552022337873435 -14.949799581633775 1.532294869411293 0 -0.5877852598018023 0.80901698891910034 1 0 0 1 I I #
point $-1 -30.552022337873435 -15.571757360125797 2.38834629431449 #
plane-surface $-1 0 0 4.2724724279601709 0 0 1 1 0 0 forward_v I I I I #
coedge $-1 $382 $381 $374 $470 forward $254 $-1 #
coedge $-1 $374 $256 $258 $378 reversed $157 $-1 #
coedge $-1 $256 $373 $372 $470 reversed $157 $-1 #
coedge $-1 $264 $259 $256 $376 forward $265 $-1 #
edge $-1 $379 -7.9323012519194265 $471 -2.2021034293087673 $375 $472 forward 7 unknown #
coedge $-1 $258 $257 $382 $473 reversed $98 $-1 #
edge $-1 $474 -36.330068911487338 $379 -29.247154830453539 $373 $475 forward 7 unknown #
vertex $-1 $260 $476 #
straight-curve $-1 -12.345572246589235 12.434836633133015 4.2724724279601709 1 0 0 I I #
coedge $-1 $372 $261 $264 $386 reversed $254 $-1 #
coedge $-1 $261 $372 $377 $473 forward $254 $-1 #
vertex $-1 $262 $477 #
straight-curve $-1 -32.717020509980124 18.165034455743672 46.490769608308312 0 0 1 I I #
straight-curve $-1 -32.717020509980124 -11.226608502251231 21.463518928441843 0 0.80901698891910034 -0.5877852598018023 I I #
edge $-1 $471 16.665268476376816 $266 32.717020509980124 $381 $478 forward 7 unknown #
point $-1 -32.717020509980124 18.165034455743672 4.2724724279601709 #
point $-1 -32.717020509980124 12.434836633133013 4.2724724279601709 #
edge $-1 $479 1 $479 0 $269 $-1 forward 7 unknown #
vertex $-1 $270 $480 #
ellipse-curve $-1 -28.130805643236322 14.404776999724769 0.95877616847347591 0 0.5877852598018023 0.80901698891910034 1.5 0 0 1 I I #
point $-1 -26.630805643236322 15.299935544438338 2.1908561813230181 #
edge $-1 $481 1 $481 0 $273 $-1 forward 7 unknown #
vertex $-1 $274 $482 #
ellipse-curve $-1 -21.251483343120618 14.404776999724769 0.95877616847347591 0 0.5877852598018023 0.80901698891910034 1.5 0 0 1 I I #
point $-1 -19.751483343120618 15.299935544438338 2.1908561813230181 #
loop $-1 $-1 $285 $277 #
plane-surface $-1 0 18.165034455743672 0 0 -1 0 0 0 -1 forward_v I I I I #
coedge $-1 $400 $280 $282 $404 reversed $179 $-1 #
coedge $-1 $280 $399 $483 $484 reversed $179 $-1 #
coedge $-1 $288 $283 $280 $402 forward $278 $-1 #
edge $-1 $405 -7.9323012519194265 $485 -2.2021034293087673 $401 $486 forward 7 unknown #
coedge $-1 $282 $281 $408 $487 reversed $112 $-1 #
edge $-1 $488 -36.330068911487338 $405 -29.247154830453539 $399 $489 forward 7 unknown #
vertex $-1 $284 $490 #
straight-curve $-1 15.073882361921466 12.434836633133015 4.2724724279601709 1 0 0 I I #
coedge $-1 $483 $285 $288 $412 reversed $397 $-1 #
coedge $-1 $285 $483 $403 $487 forward $397 $-1 #
vertex $-1 $286 $491 #
straight-curve $-1 22.121888707041279 18.165034455743672 46.490769608308312 0 0 1 I I #
straight-curve $-1 22.121888707041279 -11.226608502251231 21.463518928441843 0 0.80901698891910034 -0.5877852598018023 I I #
edge $-1 $485 -38.173640740644586 $289 -22.121888707041279 $407 $492 forward 7 unknown #
point $-1 22.121888707041279 18.165034455743672 4.2724724279601709 #
point $-1 22.121888707041279 12.434836633133013 4.2724724279601709 #
edge $-1 $493 1 $493 0 $292 $-1 forward 7 unknown #
vertex $-1 $293 $494 #
ellipse-curve $-1 26.708103573785074 14.404776999724769 0.95877616847347591 0 0.5877852598018023 0.80901698891910034 1.5 0 0 1 I I #
point $-1 28.208103573785074 15.299935544438338 2.1908561813230181 #
edge $-1 $495 1 $495 0 $296 $-1 forward 7 unknown #
vertex $-1 $297 $496 #
ellipse-curve $-1 33.587425873900791 14.404776999724769 0.95877616847347591 0 0.5877852598018023 0.80901698891910034 1.5 0 0 1 I I #
point $-1 35.087425873900791 15.299935544438338 2.1908561813230181 #
plane-surface $-1 44.200567644276255 0 0 -1 0 0 0 0 1 forward_v I I I I #
coedge $-1 $305 $303 $307 $428 reversed $201 $-1 #
edge $-1 $318 -4.2724724279601709 $430 4.2724724279601709 $317 $497 forward 7 unknown #
vertex $-1 $428 $498 #
straight-curve $-1 -44.200567644276255 -18.165034455743672 0 0 0 -1 I I #
edge $-1 $426 -18.165034455743672 $430 18.165034455743672 $424 $499 forward 7 unknown #
straight-curve $-1 0 -18.165034455743672 -4.2724724279601709 -1 0 0 I I #
vertex $-1 $310 $500 #
straight-curve $-1 0 18.165034455743672 -4.2724724279601709 1 0 0 I I #
point $-1 44.200567644276255 18.165034455743672 -4.2724724279601709 #
point $-1 44.200567644276255 -18.165034455743672 -4.2724724279601709 #
straight-curve $-1 -44.200567644276255 0 4.2724724279601709 0 -1 0 I I #
point $-1 -44.200567644276255 18.165034455743672 4.2724724279601709 #
point $-1 -44.200567644276255 -18.165034455743672 4.2724724279601709 #
straight-curve $-1 44.200567644276255 -18.165034455743672 0 0 0 -1 I I #
straight-curve $-1 44.200567644276255 18.165034455743672 0 0 0 -1 I I #
loop $-1 $-1 $340 $327 #
plane-surface $-1 0 -18.165034455743672 0 0 1 0 0 0 1 forward_v I I I I #
coedge $-1 $331 $330 $449 $501 reversed $134 $-1 #
coedge $-1 $343 $342 $330 $443 forward $328 $-1 #
edge $-1 $502 -1.5 $446 1.5 $330 $503 forward 7 unknown #
edge $-1 $445 -1.5 $450 1.5 $331 $504 forward 7 unknown #
vertex $-1 $335 $505 #
vertex $-1 $346 $506 #
straight-curve $-1 -49.657187874940725 -15.165034455743672 0 0 0 -1 I I #
straight-curve $-1 -46.92887775960849 -15.165034455743672 4.2724724279601709 -1 0 0 I I #
coedge $-1 $453 $336 $441 $501 forward $439 $-1 #
vertex $-1 $444 $507 #
straight-curve $-1 0 -18.165034455743672 4.2724724279601709 1 0 0 I I #
point $-1 -44.200567644276255 -18.165034455743672 4.2724724279601709 #
coedge $-1 $340 $449 $342 $455 reversed $439 $-1 #
straight-curve $-1 -44.200567644276255 -18.165034455743672 0 0 0 1 I I #
edge $-1 $344 -2.7283101153322349 $502 2.7283101153322349 $453 $508 forward 7 unknown #
point $-1 -44.200567644276255 -18.165034455743672 -4.2724724279601709 #
straight-curve $-1 -46.92887775960849 -15.165034455743672 -4.2724724279601709 1 0 0 I I #
coedge $-1 $360 $359 $352 $459 forward $349 $-1 #
edge $-1 $460 31.738647796461624 $463 35.506900063752994 $458 $509 forward 7 unknown #
vertex $-1 $364 $510 #
straight-curve $-1 -38.743947413611792 -35.062959364049888 4.2724724279601745 0 -1 0 I I #
edge $-1 $463 -22.967936244675073 $361 -8.5840860931983656 $360 $511 forward 7 unknown #
vertex $-1 $462 $512 #
straight-curve $-1 -38.743947413611792 -18.165034455743665 0.50422016066880815 0 0.80901698891910034 0.5877852598018023 I I #
point $-1 -38.743947413611792 -12.978480264507917 4.2724724279601709 #
point $-1 -24.360097262135085 -18.165034455743672 0.50422016066880304 #
straight-curve $-1 0 -18.165034455743672 4.2724724279601709 1 0 0 I I #
vertex $-1 $367 $513 #
point $-1 -30.552022337873435 -14.949799581633775 1.532294869411293 #
edge $-1 $471 42.218297180348145 $474 46.381529673622438 $372 $514 forward 7 unknown #
vertex $-1 $386 $515 #
straight-curve $-1 -16.665268476376816 20.36713788505244 4.2724724279601674 0 1 0 I I #
edge $-1 $474 4.3196962297875814 $383 20.371448263390889 $382 $516 forward 7 unknown #
vertex $-1 $473 $517 #
straight-curve $-1 -16.665268476376816 -11.226608502251231 21.463518928441843 0 -0.80901698891910034 0.5877852598018023 I I #
point $-1 -16.665268476376816 12.434836633133013 4.2724724279601709 #
point $-1 -32.717020509980124 18.165034455743672 0.10923993468587767 #
straight-curve $-1 0 18.165034455743672 4.2724724279601709 -1 0 0 I I #
vertex $-1 $389 $518 #
point $-1 -26.630805643236322 14.404776999724769 0.95877616847347591 #
vertex $-1 $393 $519 #
point $-1 -19.751483343120618 14.404776999724769 0.95877616847347591 #
coedge $-1 $408 $407 $400 $484 forward $397 $-1 #
edge $-1 $485 42.218297180348145 $488 46.381529673622438 $483 $520 forward 7 unknown #
vertex $-1 $412 $521 #
straight-curve $-1 38.173640740644586 20.36713788505244 4.2724724279601674 0 1 0 I I #
edge $-1 $488 -23.09975837872312 $409 -7.0480063451198127 $408 $522 forward 7 unknown #
vertex $-1 $487 $523 #
straight-curve $-1 38.173640740644586 -11.226608502251231 21.463518928441843 0 -0.80901698891910034 0.5877852598018023 I I #
point $-1 38.173640740644586 12.434836633133013 4.2724724279601709 #
point $-1 22.121888707041279 18.165034455743672 0.10923993468587767 #
straight-curve $-1 0 18.165034455743672 4.2724724279601709 -1 0 0 I I #
vertex $-1 $415 $524 #
point $-1 28.208103573785074 14.404776999724769 0.95877616847347591 #
vertex $-1 $419 $525 #
point $-1 35.087425873900791 14.404776999724769 0.95877616847347591 #
straight-curve $-1 -44.200567644276255 18.165034455743672 0 0 0 -1 I I #
point $-1 -44.200567644276255 -18.165034455743672 -4.2724724279601709 #
straight-curve $-1 -44.200567644276255 0 -4.2724724279601709 0 1 0 I I #
point $-1 -44.200567644276255 18.165034455743672 -4.2724724279601709 #
edge $-1 $450 -4.2724724279601709 $502 4.2724724279601709 $441 $526 forward 7 unknown #
vertex $-1 $443 $527 #
straight-curve $-1 -49.657187874940725 -16.665034455743672 -4.2724724279601709 0 1 0 I I #
straight-curve $-1 -49.657187874940725 -16.665034455743672 4.2724724279601709 0 -1 0 I I #
point $-1 -49.657187874940725 -15.165034455743672 4.2724724279601709 #
point $-1 -49.657187874940725 -15.165034455743672 -4.2724724279601709 #
point $-1 -49.657187874940725 -18.165034455743672 4.2724724279601709 #
straight-curve $-1 -46.92887775960849 -18.165034455743672 -4.2724724279601709 -1 0 0 I I #
straight-curve $-1 -38.743947413611792 -18.165034455743672 36.011120224421795 0 0 -1 I I #
point $-1 -38.743947413611792 -18.165034455743672 4.2724724279601709 #
straight-curve $-1 -15.776011168936719 -18.165034455743672 0.50422016066880304 1 0 0 I I #
point $-1 -38.743947413611792 -18.165034455743672 0.50422016066880304 #
point $-1 -31.552022337873435 -14.362014321831973 0.72327788049219277 #
straight-curve $-1 -16.665268476376816 18.165034455743672 46.490769608308312 0 0 -1 I I #
point $-1 -16.665268476376816 18.165034455743672 4.2724724279601709 #
straight-curve $-1 -12.345572246589235 18.165034455743672 0.10923993468587767 -1 0 0 I I #
point $-1 -16.665268476376816 18.165034455743672 0.10923993468587767 #
point $-1 -28.130805643236322 13.523099110022065 -0.25474931490517472 #
point $-1 -21.251483343120618 13.523099110022065 -0.25474931490517472 #
straight-curve $-1 38.173640740644586 18.165034455743672 46.490769608308312 0 0 -1 I I #
point $-1 38.173640740644586 18.165034455743672 4.2724724279601709 #
straight-curve $-1 15.073882361921466 18.165034455743672 0.10923993468587767 -1 0 0 I I #
point $-1 38.173640740644586 18.165034455743672 0.10923993468587767 #
point $-1 26.708103573785074 13.523099110022065 -0.25474931490517472 #
point $-1 33.587425873900791 13.523099110022065 -0.25474931490517472 #
straight-curve $-1 -49.657187874940725 -18.165034455743672 0 0 0 -1 I I #
point $-1 -49.657187874940725 -18.165034455743672 -4.2724724279601709 #
End-of-ACIS-data 