500 0 3 0           
7 Unknown 11 ACIS 5.0 NT 24 Thu Mar 25 16:22:34 1999 
-1 9.9999999999999995e-007 1e-010 
body $-1 $3 $-1 $4 #
body $-1 $5 $-1 $6 #
body $-1 $7 $-1 $8 #
lump $-1 $-1 $9 $0 #
transform $-1 1 0 0 0 1 0 0 0 1 59.960325937681205 38.347379691459309 13.408416962217707 1 rotate no_reflect no_shear #
lump $-1 $-1 $10 $1 #
transform $-1 1 0 0 0 1 0 0 0 1 59.960325937681205 38.347379691459309 13.408416962217707 1 rotate no_reflect no_shear #
lump $-1 $-1 $11 $2 #
transform $-1 1 0 0 0 1 0 0 0 1 59.960325937681205 38.347379691459309 13.408416962217707 1 rotate no_reflect no_shear #
shell $-1 $-1 $-1 $12 $-1 $3 #
shell $-1 $-1 $-1 $13 $-1 $5 #
shell $-1 $-1 $-1 $14 $-1 $7 #
face $-1 $15 $16 $9 $-1 $17 forward single #
face $-1 $18 $19 $10 $-1 $20 reversed single #
face $-1 $21 $22 $11 $-1 $23 reversed single #
face $-1 $24 $25 $9 $-1 $26 reversed single #
loop $-1 $-1 $27 $12 #
plane-surface $-1 0 0 13.408416962217707 0 0 1 1 0 0 forward_v I I I I #
face $-1 $28 $29 $10 $-1 $30 reversed single #
loop $-1 $-1 $31 $13 #
plane-surface $-1 -51.489011107945032 -34.487349868631469 0 0 -1 0 0 0 -1 forward_v I I I I #
face $-1 $32 $33 $11 $-1 $34 reversed single #
loop $-1 $-1 $35 $14 #
plane-surface $-1 52.296671095458009 -15.773755058323687 0 0 1 0 0 0 1 forward_v I I I I #
face $-1 $36 $37 $9 $-1 $38 reversed single #
loop $-1 $-1 $39 $15 #
plane-surface $-1 0 0 -13.408416962217707 0 0 1 1 0 0 forward_v I I I I #
coedge $-1 $40 $41 $42 $43 forward $16 $-1 #
face $-1 $44 $45 $10 $-1 $46 forward single #
loop $-1 $-1 $47 $18 #
plane-surface $-1 -43.017696278208859 -36.417364780045389 0 -1 0 0 0 0 1 forward_v I I I I #
coedge $-1 $48 $49 $50 $51 forward $19 $-1 #
face $-1 $52 $53 $11 $-1 $54 reversed single #
loop $-1 $-1 $55 $21 #
plane-surface $-1 44.633016253234821 -13.652150412673791 0 1 0 0 0 0 -1 forward_v I I I I #
coedge $-1 $56 $57 $58 $59 forward $22 $-1 #
face $-1 $60 $61 $9 $-1 $62 reversed single #
loop $-1 $-1 $63 $24 #
plane-surface $-1 0 -38.347379691459309 0 0 1 0 0 0 1 forward_v I I I I #
coedge $-1 $64 $65 $66 $67 forward $25 $-1 #
coedge $-1 $68 $27 $69 $70 forward $16 $-1 #
coedge $-1 $27 $68 $71 $72 forward $16 $-1 #
coedge $-1 $73 $74 $27 $43 reversed $75 $-1 #
edge $-1 $76 -38.347379691459309 $77 38.347379691459309 $42 $78 forward 7 unknown #
face $-1 $79 $80 $10 $-1 $81 reversed single #
loop $-1 $-1 $82 $28 #
plane-surface $-1 0 0 13.408416962217707 0 0 1 1 0 0 forward_v I I I I #
coedge $-1 $83 $84 $85 $86 reversed $29 $-1 #
coedge $-1 $87 $31 $88 $89 reversed $19 $-1 #
coedge $-1 $31 $87 $90 $91 reversed $19 $-1 #
coedge $-1 $84 $83 $31 $51 reversed $29 $-1 #
edge $-1 $92 -13.408416962217707 $93 13.408416962217707 $50 $94 forward 7 unknown #
face $-1 $95 $96 $11 $-1 $97 reversed single #
loop $-1 $-1 $98 $32 #
plane-surface $-1 52.296671095458009 -11.530545767023895 0 0 -1 0 0 0 -1 forward_v I I I I #
coedge $-1 $99 $100 $101 $102 forward $33 $-1 #
coedge $-1 $103 $35 $104 $105 reversed $22 $-1 #
coedge $-1 $35 $103 $106 $107 reversed $22 $-1 #
coedge $-1 $100 $99 $35 $59 reversed $33 $-1 #
edge $-1 $108 -13.408416962217707 $109 13.408416962217707 $58 $110 forward 7 unknown #
face $-1 $111 $112 $9 $-1 $113 reversed single #
loop $-1 $-1 $114 $36 #
plane-surface $-1 -59.960325937681205 0 0 1 0 0 0 0 -1 forward_v I I I I #
coedge $-1 $115 $71 $116 $117 forward $37 $-1 #
coedge $-1 $118 $39 $115 $119 forward $25 $-1 #
coedge $-1 $39 $118 $120 $121 forward $25 $-1 #
coedge $-1 $74 $73 $39 $67 reversed $75 $-1 #
edge $-1 $122 -38.347379691459309 $123 38.347379691459309 $66 $124 forward 7 unknown #
coedge $-1 $41 $40 $125 $126 forward $16 $-1 #
coedge $-1 $127 $128 $40 $70 reversed $112 $-1 #
edge $-1 $77 -59.960325937681205 $129 59.960325937681205 $69 $130 forward 7 unknown #
coedge $-1 $63 $131 $41 $72 reversed $37 $-1 #
edge $-1 $132 -59.960325937681205 $76 59.960325937681205 $71 $133 forward 7 unknown #
coedge $-1 $66 $42 $131 $134 forward $75 $-1 #
coedge $-1 $42 $66 $127 $135 reversed $75 $-1 #
loop $-1 $-1 $73 $111 #
vertex $-1 $43 $136 #
vertex $-1 $43 $137 #
straight-curve $-1 59.960325937681205 0 13.408416962217707 0 1 0 I I #
face $-1 $138 $139 $10 $-1 $140 reversed single #
loop $-1 $-1 $141 $44 #
plane-surface $-1 -59.960325937681205 0 0 1 0 0 0 0 -1 forward_v I I I I #
coedge $-1 $90 $142 $84 $143 forward $45 $-1 #
coedge $-1 $50 $47 $144 $145 reversed $29 $-1 #
coedge $-1 $47 $50 $82 $143 reversed $29 $-1 #
coedge $-1 $146 $147 $47 $86 forward $148 $-1 #
edge $-1 $149 -13.408416962217707 $150 13.408416962217707 $85 $151 forward 7 unknown #
coedge $-1 $49 $48 $141 $152 reversed $19 $-1 #
coedge $-1 $144 $153 $48 $89 forward $139 $-1 #
edge $-1 $154 -34.215820383708689 $93 -17.273190724236343 $88 $155 forward 7 unknown #
coedge $-1 $156 $82 $49 $91 forward $45 $-1 #
edge $-1 $92 17.273190724236343 $157 34.215820383708689 $90 $158 forward 7 unknown #
vertex $-1 $91 $159 #
vertex $-1 $89 $160 #
straight-curve $-1 -43.017696278208859 -34.487349868631469 0 0 0 -1 I I #
face $-1 $161 $162 $11 $-1 $163 forward single #
loop $-1 $-1 $104 $52 #
plane-surface $-1 0 0 -13.408416962217707 0 0 1 1 0 0 forward_v I I I I #
coedge $-1 $164 $165 $166 $167 reversed $53 $-1 #
coedge $-1 $58 $55 $168 $169 reversed $33 $-1 #
coedge $-1 $55 $58 $170 $171 reversed $33 $-1 #
coedge $-1 $165 $164 $55 $102 reversed $53 $-1 #
edge $-1 $172 -13.408416962217707 $173 13.408416962217707 $101 $174 forward 7 unknown #
coedge $-1 $57 $56 $175 $176 reversed $22 $-1 #
coedge $-1 $168 $177 $56 $105 forward $96 $-1 #
edge $-1 $178 -33.811990389952193 $109 -18.484680705505816 $104 $179 forward 7 unknown #
coedge $-1 $180 $170 $57 $107 forward $162 $-1 #
edge $-1 $108 18.484680705505816 $181 33.811990389952193 $106 $182 forward 7 unknown #
vertex $-1 $107 $183 #
vertex $-1 $105 $184 #
straight-curve $-1 44.633016253234821 -15.773755058323687 0 0 0 -1 I I #
face $-1 $-1 $75 $9 $-1 $185 reversed single #
loop $-1 $-1 $127 $60 #
plane-surface $-1 0 38.347379691459309 0 0 -1 0 0 0 -1 forward_v I I I I #
coedge $-1 $186 $125 $128 $187 forward $61 $-1 #
coedge $-1 $131 $63 $64 $119 reversed $37 $-1 #
coedge $-1 $125 $186 $63 $117 reversed $61 $-1 #
edge $-1 $132 -13.408416962217707 $188 13.408416962217707 $116 $189 forward 7 unknown #
coedge $-1 $65 $64 $186 $190 forward $25 $-1 #
edge $-1 $123 -59.960325937681205 $188 59.960325937681205 $115 $191 forward 7 unknown #
coedge $-1 $128 $127 $65 $121 reversed $112 $-1 #
edge $-1 $192 -59.960325937681205 $122 59.960325937681205 $120 $193 forward 7 unknown #
vertex $-1 $67 $194 #
vertex $-1 $134 $195 #
straight-curve $-1 59.960325937681205 0 -13.408416962217707 0 -1 0 I I #
coedge $-1 $114 $116 $68 $126 reversed $61 $-1 #
edge $-1 $129 -38.347379691459309 $132 38.347379691459309 $125 $196 forward 7 unknown #
coedge $-1 $120 $69 $74 $135 forward $112 $-1 #
coedge $-1 $69 $120 $114 $187 reversed $112 $-1 #
vertex $-1 $70 $197 #
straight-curve $-1 0 38.347379691459309 13.408416962217707 -1 0 0 I I #
coedge $-1 $71 $115 $73 $134 reversed $37 $-1 #
vertex $-1 $126 $198 #
straight-curve $-1 0 -38.347379691459309 13.408416962217707 1 0 0 I I #
edge $-1 $76 -13.408416962217707 $123 13.408416962217707 $73 $199 forward 7 unknown #
edge $-1 $77 -13.408416962217707 $122 13.408416962217707 $74 $200 forward 7 unknown #
point $-1 59.960325937681205 -38.347379691459309 13.408416962217707 #
point $-1 59.960325937681205 38.347379691459309 13.408416962217707 #
face $-1 $-1 $148 $10 $-1 $201 reversed single #
loop $-1 $-1 $144 $79 #
plane-surface $-1 0 0 -13.408416962217707 0 0 1 1 0 0 forward_v I I I I #
coedge $-1 $202 $203 $87 $152 forward $80 $-1 #
coedge $-1 $82 $156 $146 $204 forward $45 $-1 #
edge $-1 $150 -20.138697301436615 $92 -16.278667478608774 $82 $205 forward 7 unknown #
coedge $-1 $206 $88 $83 $145 forward $139 $-1 #
edge $-1 $93 16.278667478608774 $149 20.138697301436615 $144 $207 forward 7 unknown #
coedge $-1 $208 $85 $142 $204 reversed $148 $-1 #
coedge $-1 $85 $208 $206 $209 reversed $148 $-1 #
loop $-1 $-1 $85 $138 #
vertex $-1 $209 $210 #
vertex $-1 $86 $211 #
straight-curve $-1 -43.017696278208859 -38.347379691459309 0 0 0 1 I I #
edge $-1 $157 -13.408416962217707 $154 13.408416962217707 $141 $212 forward 7 unknown #
coedge $-1 $88 $206 $202 $213 forward $139 $-1 #
vertex $-1 $89 $214 #
straight-curve $-1 -25.744505553972516 -34.487349868631469 -13.408416962217707 1 0 0 I I #
coedge $-1 $142 $90 $203 $215 forward $45 $-1 #
vertex $-1 $215 $216 #
straight-curve $-1 -25.744505553972516 -34.487349868631469 13.408416962217707 -1 0 0 I I #
point $-1 -43.017696278208859 -34.487349868631469 13.408416962217707 #
point $-1 -43.017696278208859 -34.487349868631469 -13.408416962217707 #
face $-1 $-1 $217 $11 $-1 $218 reversed single #
loop $-1 $-1 $106 $95 #
plane-surface $-1 0 0 13.408416962217707 0 0 1 1 0 0 forward_v I I I I #
coedge $-1 $101 $98 $219 $220 reversed $53 $-1 #
coedge $-1 $98 $101 $221 $222 reversed $53 $-1 #
coedge $-1 $223 $224 $98 $167 forward $217 $-1 #
edge $-1 $225 -13.408416962217707 $226 13.408416962217707 $166 $227 forward 7 unknown #
coedge $-1 $219 $104 $99 $169 forward $96 $-1 #
edge $-1 $109 -8.9476798519867913 $173 -4.7044705606869996 $168 $228 forward 7 unknown #
coedge $-1 $106 $221 $100 $171 forward $162 $-1 #
edge $-1 $172 4.7044705606869996 $108 8.9476798519867913 $170 $229 forward 7 unknown #
vertex $-1 $171 $230 #
vertex $-1 $169 $231 #
straight-curve $-1 44.633016253234821 -11.530545767023895 0 0 0 -1 I I #
coedge $-1 $224 $223 $103 $176 forward $217 $-1 #
edge $-1 $181 -13.408416962217707 $178 13.408416962217707 $175 $232 forward 7 unknown #
coedge $-1 $104 $219 $224 $233 forward $96 $-1 #
vertex $-1 $176 $234 #
straight-curve $-1 26.148335547729005 -15.773755058323687 -13.408416962217707 -1 0 0 I I #
coedge $-1 $221 $106 $223 $235 forward $162 $-1 #
vertex $-1 $235 $236 #
straight-curve $-1 26.148335547729005 -15.773755058323687 13.408416962217707 1 0 0 I I #
point $-1 44.633016253234821 -15.773755058323687 13.408416962217707 #
point $-1 44.633016253234821 -15.773755058323687 -13.408416962217707 #
plane-surface $-1 59.960325937681205 0 0 -1 0 0 0 0 1 forward_v I I I I #
coedge $-1 $116 $114 $118 $190 reversed $61 $-1 #
edge $-1 $129 -13.408416962217707 $192 13.408416962217707 $128 $237 forward 7 unknown #
vertex $-1 $190 $238 #
straight-curve $-1 -59.960325937681205 -38.347379691459309 0 0 0 -1 I I #
edge $-1 $188 -38.347379691459309 $192 38.347379691459309 $186 $239 forward 7 unknown #
straight-curve $-1 0 -38.347379691459309 -13.408416962217707 -1 0 0 I I #
vertex $-1 $121 $240 #
straight-curve $-1 0 38.347379691459309 -13.408416962217707 1 0 0 I I #
point $-1 59.960325937681205 38.347379691459309 -13.408416962217707 #
point $-1 59.960325937681205 -38.347379691459309 -13.408416962217707 #
straight-curve $-1 -59.960325937681205 0 13.408416962217707 0 -1 0 I I #
point $-1 -59.960325937681205 38.347379691459309 13.408416962217707 #
point $-1 -59.960325937681205 -38.347379691459309 13.408416962217707 #
straight-curve $-1 59.960325937681205 -38.347379691459309 0 0 0 -1 I I #
straight-curve $-1 59.960325937681205 38.347379691459309 0 0 0 -1 I I #
plane-surface $-1 0 -38.347379691459309 0 0 1 0 0 0 1 forward_v I I I I #
coedge $-1 $241 $141 $153 $213 reversed $80 $-1 #
coedge $-1 $141 $241 $156 $215 reversed $80 $-1 #
edge $-1 $242 -59.960325937681205 $150 -43.017696278208859 $146 $243 forward 7 unknown #
straight-curve $-1 -43.017696278208859 -18.208682390022695 13.408416962217707 0 1 0 I I #
coedge $-1 $153 $144 $147 $209 forward $139 $-1 #
straight-curve $-1 -43.017696278208859 -18.208682390022695 -13.408416962217707 0 -1 0 I I #
coedge $-1 $147 $146 $241 $244 forward $148 $-1 #
edge $-1 $149 43.017696278208859 $245 59.960325937681205 $147 $246 forward 7 unknown #
point $-1 -43.017696278208859 -38.347379691459309 -13.408416962217707 #
point $-1 -43.017696278208859 -38.347379691459309 13.408416962217707 #
straight-curve $-1 -59.960325937681205 -34.487349868631469 0 0 0 -1 I I #
edge $-1 $245 -38.347379691459309 $154 -34.487349868631469 $202 $247 forward 7 unknown #
point $-1 -59.960325937681205 -34.487349868631469 -13.408416962217707 #
edge $-1 $157 34.487349868631469 $242 38.347379691459309 $203 $248 forward 7 unknown #
point $-1 -59.960325937681205 -34.487349868631469 13.408416962217707 #
loop $-1 $-1 $175 $161 #
plane-surface $-1 59.960325937681205 0 0 -1 0 0 0 0 1 forward_v I I I I #
coedge $-1 $177 $168 $164 $220 forward $96 $-1 #
edge $-1 $173 18.484680705505816 $225 33.811990389952193 $219 $249 forward 7 unknown #
coedge $-1 $170 $180 $165 $222 forward $162 $-1 #
edge $-1 $226 -33.811990389952193 $172 -18.484680705505816 $221 $250 forward 7 unknown #
coedge $-1 $175 $166 $180 $235 reversed $217 $-1 #
coedge $-1 $166 $175 $177 $233 reversed $217 $-1 #
vertex $-1 $233 $251 #
vertex $-1 $167 $252 #
straight-curve $-1 59.960325937681205 -11.530545767023895 0 0 0 1 I I #
straight-curve $-1 44.633016253234821 -6.8260752063368955 -13.408416962217707 0 1 0 I I #
straight-curve $-1 44.633016253234821 -6.8260752063368955 13.408416962217707 0 -1 0 I I #
point $-1 44.633016253234821 -11.530545767023895 13.408416962217707 #
point $-1 44.633016253234821 -11.530545767023895 -13.408416962217707 #
straight-curve $-1 59.960325937681205 -15.773755058323687 0 0 0 -1 I I #
edge $-1 $225 11.530545767023895 $178 15.773755058323687 $224 $253 forward 7 unknown #
point $-1 59.960325937681198 -15.773755058323687 -13.408416962217707 #
edge $-1 $181 -15.773755058323687 $226 -11.530545767023895 $223 $254 forward 7 unknown #
point $-1 59.960325937681198 -15.773755058323687 13.408416962217707 #
straight-curve $-1 -59.960325937681205 38.347379691459309 0 0 0 -1 I I #
point $-1 -59.960325937681205 -38.347379691459309 -13.408416962217707 #
straight-curve $-1 -59.960325937681205 0 -13.408416962217707 0 1 0 I I #
point $-1 -59.960325937681205 38.347379691459309 -13.408416962217707 #
coedge $-1 $203 $202 $208 $244 reversed $80 $-1 #
vertex $-1 $215 $255 #
straight-curve $-1 0 -38.347379691459309 13.408416962217707 1 0 0 I I #
edge $-1 $242 -13.408416962217707 $245 13.408416962217707 $241 $256 forward 7 unknown #
vertex $-1 $213 $257 #
straight-curve $-1 0 -38.347379691459309 -13.408416962217707 -1 0 0 I I #
straight-curve $-1 -59.960325937681205 0 -13.408416962217707 0 1 0 I I #
straight-curve $-1 -59.960325937681205 0 13.408416962217707 0 -1 0 I I #
straight-curve $-1 26.148335547729005 -11.530545767023895 -13.408416962217707 1 0 0 I I #
straight-curve $-1 26.148335547729005 -11.530545767023895 13.408416962217707 -1 0 0 I I #
point $-1 59.960325937681198 -11.530545767023895 -13.408416962217707 #
point $-1 59.960325937681198 -11.530545767023895 13.408416962217707 #
straight-curve $-1 59.960325937681205 0 -13.408416962217707 0 -1 0 I I #
straight-curve $-1 59.960325937681205 0 13.408416962217707 0 1 0 I I #
point $-1 -59.960325937681205 -38.347379691459309 13.408416962217707 #
straight-curve $-1 -59.960325937681205 -38.347379691459309 0 0 0 -1 I I #
point $-1 -59.960325937681205 -38.347379691459309 -13.408416962217707 #
End-of-ACIS-data 