500 0 7 0           
7 Unknown 11 ACIS 5.0 NT 24 Thu Mar 25 18:43:43 1999 
-1 9.9999999999999995e-007 1e-010 
body $-1 $7 $-1 $8 #
body $-1 $9 $-1 $10 #
body $-1 $11 $-1 $12 #
body $-1 $13 $-1 $14 #
body $-1 $15 $-1 $16 #
body $-1 $17 $-1 $18 #
body $-1 $19 $-1 $20 #
lump $-1 $-1 $21 $0 #
transform $-1 1 0 0 0 1 0 0 0 1 72.251960814233826 32.460351583679241 15.223584915525754 1 rotate no_reflect no_shear #
lump $-1 $-1 $22 $1 #
transform $-1 1 0 0 0 1 0 0 0 1 72.251960814233826 32.460351583679241 15.223584915525754 1 rotate no_reflect no_shear #
lump $-1 $-1 $23 $2 #
transform $-1 1 0 0 0 1 0 0 0 1 72.251960814233826 32.460351583679241 15.223584915525754 1 rotate no_reflect no_shear #
lump $-1 $-1 $24 $3 #
transform $-1 1 0 0 0 1 0 0 0 1 72.251960814233826 32.460351583679241 15.223584915525754 1 rotate no_reflect no_shear #
lump $-1 $-1 $25 $4 #
transform $-1 1 0 0 0 1 0 0 0 1 72.251960814233826 32.460351583679241 15.223584915525754 1 rotate no_reflect no_shear #
lump $-1 $-1 $26 $5 #
transform $-1 1 0 0 0 1 0 0 0 1 72.251960814233826 32.460351583679241 15.223584915525754 1 rotate no_reflect no_shear #
lump $-1 $-1 $27 $6 #
transform $-1 1 0 0 0 1 0 0 0 1 72.251960814233826 32.460351583679241 15.223584915525754 1 rotate no_reflect no_shear #
shell $-1 $-1 $-1 $28 $-1 $7 #
shell $-1 $-1 $-1 $29 $-1 $9 #
shell $-1 $-1 $-1 $30 $-1 $11 #
shell $-1 $-1 $-1 $31 $-1 $13 #
shell $-1 $-1 $-1 $32 $-1 $15 #
shell $-1 $-1 $-1 $33 $-1 $17 #
shell $-1 $-1 $-1 $34 $-1 $19 #
face $-1 $35 $36 $21 $-1 $37 forward single #
face $-1 $38 $39 $22 $-1 $40 forward single #
face $-1 $41 $42 $23 $-1 $43 reversed single #
face $-1 $44 $45 $24 $-1 $46 forward single #
face $-1 $47 $48 $25 $-1 $49 reversed single #
face $-1 $50 $51 $26 $-1 $52 forward single #
face $-1 $53 $54 $27 $-1 $55 forward single #
face $-1 $56 $57 $21 $-1 $58 reversed single #
loop $-1 $-1 $59 $28 #
plane-surface $-1 0 0 15.223584915525754 0 0 1 1 0 0 forward_v I I I I #
face $-1 $60 $61 $22 $-1 $62 reversed single #
loop $-1 $-1 $63 $29 #
plane-surface $-1 -72.251960814233826 0 0 1 0 0 0 0 -1 forward_v I I I I #
face $-1 $64 $65 $23 $-1 $66 reversed single #
loop $-1 $-1 $67 $30 #
plane-surface $-1 -17.544247510965658 -119.42498362503582 125.38642409433152 -1 0 0 0 -0.6018150307709319 0.79863550430605224 forward_v I I I I #
face $-1 $68 $69 $24 $-1 $70 forward single #
loop $-1 $71 $72 $31 #
cone-surface $-1 -36.153897579733766 -27.390626109821696 10.490966011796619 0 0.6018150307709319 -0.79863550430605224 2 0 0 1 I I 0 1 2 forward I I I I #
face $-1 $73 $74 $25 $-1 $75 reversed single #
loop $-1 $-1 $76 $32 #
plane-surface $-1 35.959102112367447 91.31006558920005 150.02423340111093 1 0 0 0 -0.71933980857756763 -0.69465836192734942 forward_v I I I I #
face $-1 $77 $78 $26 $-1 $79 forward single #
loop $-1 $80 $81 $33 #
cone-surface $-1 46.328490312900698 24.50371545949379 7.1258285620270918 0 -0.71933980857756763 -0.69465836192734942 2.5 0 0 1 I I 0 1 2.5 forward I I I I #
face $-1 $82 $83 $27 $-1 $84 forward single #
loop $-1 $85 $86 $34 #
cone-surface $-1 61.882572613700574 24.50371545949379 7.1258285620270918 0 -0.71933980857756763 -0.69465836192734942 2.5 0 0 1 I I 0 1 2.5 forward I I I I #
face $-1 $87 $88 $21 $-1 $89 reversed single #
loop $-1 $-1 $90 $35 #
plane-surface $-1 0 0 -15.223584915525754 0 0 1 1 0 0 forward_v I I I I #
coedge $-1 $91 $92 $93 $94 forward $36 $-1 #
face $-1 $95 $96 $22 $-1 $97 forward single #
loop $-1 $-1 $98 $38 #
plane-surface $-1 0 32.460351583679241 0 0 -1 0 0 0 -1 forward_v I I I I #
coedge $-1 $99 $100 $101 $102 forward $39 $-1 #
face $-1 $103 $104 $23 $-1 $105 reversed single #
loop $-1 $-1 $106 $41 #
plane-surface $-1 -36.153897579733766 -32.460351583679227 9.9804617703779996 0 -0.6018150307709319 0.79863550430605224 1 0 0 forward_v I I I I #
coedge $-1 $107 $108 $109 $110 reversed $42 $-1 #
face $-1 $-1 $111 $24 $-1 $112 forward single #
loop $-1 $113 $114 $44 #
cone-surface $-1 -36.153897579733766 -25.198015245584365 7.5812731763353067 0 0.6018150307709319 -0.79863550430605224 1 0 0 1 I I -0.70710678118654746 0.70710678118654746 1 forward I I I I #
loop $-1 $-1 $115 $31 #
coedge $-1 $72 $72 $116 $117 reversed $45 $-1 #
face $-1 $118 $119 $25 $-1 $120 reversed single #
loop $-1 $-1 $121 $47 #
plane-surface $-1 54.105531463300636 -12.637357733729701 49.64337591060152 0 0.71933980857756763 0.69465836192734942 1 0 0 forward_v I I I I #
coedge $-1 $122 $123 $124 $125 reversed $48 $-1 #
face $-1 $-1 $126 $26 $-1 $127 forward single #
loop $-1 $128 $129 $50 #
cone-surface $-1 46.328490312900698 21.577356730181073 4.2998768531457277 0 -0.71933980857756763 -0.69465836192734942 1.25 0 0 1 I I -0.70710678118654746 0.70710678118654746 1.25 forward I I I I #
loop $-1 $-1 $130 $33 #
coedge $-1 $81 $81 $131 $132 reversed $51 $-1 #
face $-1 $-1 $133 $27 $-1 $134 forward single #
loop $-1 $135 $136 $53 #
cone-surface $-1 61.882572613700574 21.577356730181073 4.2998768531457277 0 -0.71933980857756763 -0.69465836192734942 1.25 0 0 1 I I -0.70710678118654746 0.70710678118654746 1.25 forward I I I I #
loop $-1 $-1 $137 $34 #
coedge $-1 $86 $86 $138 $139 reversed $54 $-1 #
face $-1 $140 $141 $21 $-1 $142 reversed single #
loop $-1 $-1 $143 $56 #
plane-surface $-1 0 -32.460351583679241 0 0 1 0 0 0 1 forward_v I I I I #
coedge $-1 $144 $145 $146 $147 forward $57 $-1 #
coedge $-1 $148 $59 $149 $150 forward $36 $-1 #
coedge $-1 $59 $148 $151 $152 forward $36 $-1 #
coedge $-1 $153 $154 $59 $94 reversed $155 $-1 #
edge $-1 $156 -32.460351583679241 $157 32.460351583679241 $93 $158 forward 7 unknown #
face $-1 $159 $160 $22 $-1 $161 reversed single #
loop $-1 $-1 $101 $60 #
plane-surface $-1 -80.996167397099811 0 -8.5207845500272317 0 0 1 1 0 0 forward_v I I I I #
coedge $-1 $162 $163 $100 $164 forward $61 $-1 #
coedge $-1 $165 $63 $166 $167 reversed $39 $-1 #
coedge $-1 $63 $165 $98 $164 reversed $39 $-1 #
coedge $-1 $168 $169 $63 $102 reversed $96 $-1 #
edge $-1 $170 -32.460351583679241 $171 32.460351583679241 $101 $172 forward 7 unknown #
face $-1 $173 $174 $23 $-1 $175 reversed single #
loop $-1 $-1 $176 $64 #
plane-surface $-1 -54.76354764850187 -119.42498362503582 125.38642409433152 1 0 0 0 0.6018150307709319 -0.79863550430605224 forward_v I I I I #
coedge $-1 $177 $178 $179 $180 reversed $65 $-1 #
coedge $-1 $108 $67 $181 $182 reversed $42 $-1 #
coedge $-1 $67 $107 $177 $183 reversed $42 $-1 #
coedge $-1 $179 $184 $67 $110 forward $185 $-1 #
edge $-1 $186 27.25214022883867 $187 34.209999509620978 $109 $188 forward 7 unknown #
loop $-1 $-1 $116 $68 #
plane-surface $-1 -36.153897579733766 -32.460351583679227 9.9804617703779996 0 -0.6018150307709319 0.79863550430605224 1 0 0 forward_v I I I I #
loop $-1 $-1 $189 $44 #
coedge $-1 $114 $114 $115 $190 reversed $69 $-1 #
coedge $-1 $115 $115 $114 $190 forward $71 $-1 #
coedge $-1 $116 $116 $72 $117 forward $111 $-1 #
edge $-1 $191 -6.9924678859621399e-016 $191 6.2831853071795996 $116 $192 forward 7 unknown #
face $-1 $193 $194 $25 $-1 $195 reversed single #
loop $-1 $-1 $196 $73 #
plane-surface $-1 72.251960814233826 0 0 -1 0 0 0 0 1 forward_v I I I I #
coedge $-1 $197 $198 $199 $200 reversed $74 $-1 #
coedge $-1 $123 $76 $201 $202 reversed $48 $-1 #
coedge $-1 $76 $122 $197 $203 reversed $48 $-1 #
coedge $-1 $199 $204 $76 $125 forward $205 $-1 #
edge $-1 $206 13.194681210920784 $207 25.053585522110183 $124 $208 forward 7 unknown #
loop $-1 $-1 $131 $77 #
plane-surface $-1 54.105531463300636 -12.637357733729701 49.64337591060152 0 0.71933980857756763 0.69465836192734942 1 0 0 forward_v I I I I #
loop $-1 $-1 $209 $50 #
coedge $-1 $129 $129 $130 $210 reversed $78 $-1 #
coedge $-1 $130 $130 $129 $210 forward $80 $-1 #
coedge $-1 $131 $131 $81 $132 forward $126 $-1 #
edge $-1 $211 -5.8127056602930381e-016 $211 6.2831853071795996 $131 $212 forward 7 unknown #
loop $-1 $-1 $138 $82 #
plane-surface $-1 54.105531463300636 -12.637357733729701 49.64337591060152 0 0.71933980857756763 0.69465836192734942 1 0 0 forward_v I I I I #
loop $-1 $-1 $213 $53 #
coedge $-1 $136 $136 $137 $214 reversed $83 $-1 #
coedge $-1 $137 $137 $136 $214 forward $85 $-1 #
coedge $-1 $138 $138 $86 $139 forward $133 $-1 #
edge $-1 $215 -5.8127056602930381e-016 $215 6.2831853071795996 $138 $216 forward 7 unknown #
face $-1 $217 $218 $21 $-1 $219 reversed single #
loop $-1 $-1 $220 $87 #
plane-surface $-1 -72.251960814233826 0 0 1 0 0 0 0 -1 forward_v I I I I #
coedge $-1 $221 $151 $222 $223 forward $88 $-1 #
coedge $-1 $224 $90 $221 $225 forward $57 $-1 #
coedge $-1 $90 $224 $226 $227 forward $57 $-1 #
coedge $-1 $154 $153 $90 $147 reversed $155 $-1 #
edge $-1 $228 -32.460351583679241 $229 32.460351583679241 $146 $230 forward 7 unknown #
coedge $-1 $92 $91 $231 $232 forward $36 $-1 #
coedge $-1 $233 $234 $91 $150 reversed $218 $-1 #
edge $-1 $157 -72.251960814233826 $235 72.251960814233826 $149 $236 forward 7 unknown #
coedge $-1 $143 $237 $92 $152 reversed $88 $-1 #
edge $-1 $238 -72.251960814233826 $156 72.251960814233826 $151 $239 forward 7 unknown #
coedge $-1 $146 $93 $237 $240 forward $155 $-1 #
coedge $-1 $93 $146 $233 $241 reversed $155 $-1 #
loop $-1 $-1 $153 $217 #
vertex $-1 $94 $242 #
vertex $-1 $94 $243 #
straight-curve $-1 72.251960814233826 0 15.223584915525754 0 1 0 I I #
face $-1 $244 $245 $22 $-1 $246 reversed single #
loop $-1 $-1 $247 $95 #
plane-surface $-1 -89.740373979965796 0 -11.872184732776493 1 0 0 0 0 -1 forward_v I I I I #
coedge $-1 $248 $98 $249 $250 reversed $61 $-1 #
coedge $-1 $98 $248 $168 $251 reversed $61 $-1 #
edge $-1 $170 8.5207845500272317 $252 15.223584915525754 $98 $253 forward 7 unknown #
coedge $-1 $100 $99 $254 $255 reversed $39 $-1 #
coedge $-1 $256 $257 $99 $167 forward $258 $-1 #
edge $-1 $259 -15.223584915525754 $171 -8.5207845500272317 $166 $260 forward 7 unknown #
coedge $-1 $261 $101 $163 $251 forward $96 $-1 #
coedge $-1 $101 $261 $256 $262 forward $96 $-1 #
vertex $-1 $164 $263 #
vertex $-1 $262 $264 #
straight-curve $-1 -72.251960814233826 0 -8.5207845500272317 0 -1 0 I I #
face $-1 $-1 $185 $23 $-1 $265 forward single #
loop $-1 $-1 $266 $103 #
plane-surface $-1 0 -32.460351583679241 0 0 1 0 0 0 1 forward_v I I I I #
coedge $-1 $267 $268 $269 $270 reversed $104 $-1 #
coedge $-1 $271 $106 $108 $183 forward $65 $-1 #
coedge $-1 $106 $271 $267 $272 forward $65 $-1 #
coedge $-1 $269 $109 $106 $180 forward $185 $-1 #
edge $-1 $187 -0.53270127890122509 $273 36.686598858634987 $179 $274 forward 7 unknown #
coedge $-1 $275 $276 $107 $182 forward $174 $-1 #
edge $-1 $277 -52.712750276787773 $186 -47.469627131640003 $181 $278 forward 7 unknown #
edge $-1 $187 -8.7121837725309952 $277 1.7763522597878294e-014 $108 $279 forward 7 unknown #
coedge $-1 $109 $269 $275 $280 forward $185 $-1 #
loop $-1 $-1 $269 $173 #
vertex $-1 $182 $281 #
vertex $-1 $110 $282 #
straight-curve $-1 -17.544247510965658 -59.712491812517911 15.223584915525755 0 1 0 I I #
coedge $-1 $189 $189 $-1 $283 reversed $113 $-1 #
edge $-1 $284 0 $284 6.2831853071796004 $114 $285 forward 7 unknown #
vertex $-1 $117 $286 #
ellipse-curve $-1 -36.153897579733766 -28.981421943288087 12.60202334295187 0 -0.6018150307709319 0.79863550430605224 2 0 0 1 I I #
face $-1 $-1 $205 $25 $-1 $287 forward single #
loop $-1 $-1 $288 $118 #
plane-surface $-1 0 32.460351583679241 0 0 -1 0 0 0 -1 forward_v I I I I #
coedge $-1 $289 $290 $198 $291 forward $119 $-1 #
coedge $-1 $292 $121 $123 $203 forward $74 $-1 #
coedge $-1 $121 $292 $196 $291 reversed $74 $-1 #
coedge $-1 $293 $124 $121 $200 forward $205 $-1 #
edge $-1 $207 8.9063363807171285 $294 45.199195082583508 $199 $295 forward 7 unknown #
coedge $-1 $296 $288 $122 $202 forward $194 $-1 #
edge $-1 $297 -72.068786979082688 $206 -59.788531785029711 $201 $298 forward 7 unknown #
edge $-1 $207 47.849139703720738 $297 64.920703167358496 $123 $299 forward 7 unknown #
coedge $-1 $124 $293 $296 $300 forward $205 $-1 #
loop $-1 $-1 $199 $193 #
vertex $-1 $202 $301 #
vertex $-1 $125 $302 #
straight-curve $-1 35.959102112367447 45.655032794600025 15.223584915525748 0 -1 0 I I #
coedge $-1 $209 $209 $-1 $303 reversed $128 $-1 #
edge $-1 $304 0 $304 6.2831853071796004 $129 $305 forward 7 unknown #
vertex $-1 $132 $306 #
ellipse-curve $-1 46.328490312900698 26.530899428084538 9.0834573184992617 0 0.71933980857756763 0.69465836192734942 2.5 0 0 1 I I #
coedge $-1 $213 $213 $-1 $307 reversed $135 $-1 #
edge $-1 $308 0 $308 6.2831853071796004 $136 $309 forward 7 unknown #
vertex $-1 $139 $310 #
ellipse-curve $-1 61.882572613700574 26.530899428084538 9.0834573184992617 0 0.71933980857756763 0.69465836192734942 2.5 0 0 1 I I #
face $-1 $-1 $155 $21 $-1 $311 reversed single #
loop $-1 $-1 $233 $140 #
plane-surface $-1 0 32.460351583679241 0 0 -1 0 0 0 -1 forward_v I I I I #
coedge $-1 $312 $231 $234 $313 forward $141 $-1 #
coedge $-1 $237 $143 $144 $225 reversed $88 $-1 #
coedge $-1 $231 $312 $143 $223 reversed $141 $-1 #
edge $-1 $238 -15.223584915525754 $314 15.223584915525754 $222 $315 forward 7 unknown #
coedge $-1 $145 $144 $312 $316 forward $57 $-1 #
edge $-1 $229 -72.251960814233826 $314 72.251960814233826 $221 $317 forward 7 unknown #
coedge $-1 $234 $233 $145 $227 reversed $218 $-1 #
edge $-1 $318 -72.251960814233826 $228 72.251960814233826 $226 $319 forward 7 unknown #
vertex $-1 $147 $320 #
vertex $-1 $240 $321 #
straight-curve $-1 72.251960814233826 0 -15.223584915525754 0 -1 0 I I #
coedge $-1 $220 $222 $148 $232 reversed $141 $-1 #
edge $-1 $235 -32.460351583679241 $238 32.460351583679241 $231 $322 forward 7 unknown #
coedge $-1 $226 $149 $154 $241 forward $218 $-1 #
coedge $-1 $149 $226 $220 $313 reversed $218 $-1 #
vertex $-1 $150 $323 #
straight-curve $-1 0 32.460351583679241 15.223584915525754 -1 0 0 I I #
coedge $-1 $151 $221 $153 $240 reversed $88 $-1 #
vertex $-1 $232 $324 #
straight-curve $-1 0 -32.460351583679241 15.223584915525754 1 0 0 I I #
edge $-1 $156 -15.223584915525754 $229 15.223584915525754 $153 $325 forward 7 unknown #
edge $-1 $157 -15.223584915525754 $228 15.223584915525754 $154 $326 forward 7 unknown #
point $-1 72.251960814233826 -32.460351583679241 15.223584915525754 #
point $-1 72.251960814233826 32.460351583679241 15.223584915525754 #
face $-1 $-1 $258 $22 $-1 $327 reversed single #
loop $-1 $-1 $254 $159 #
plane-surface $-1 0 0 -15.223584915525754 0 0 1 1 0 0 forward_v I I I I #
coedge $-1 $328 $329 $248 $330 forward $160 $-1 #
coedge $-1 $163 $162 $247 $330 reversed $61 $-1 #
coedge $-1 $254 $331 $162 $250 forward $245 $-1 #
edge $-1 $332 -89.740373979965796 $252 -72.251960814233826 $162 $333 forward 7 unknown #
edge $-1 $170 -8.744206582865985 $334 8.744206582865985 $163 $335 forward 7 unknown #
vertex $-1 $164 $336 #
straight-curve $-1 -72.251960814233826 32.460351583679241 0 0 0 -1 I I #
coedge $-1 $337 $249 $165 $255 forward $245 $-1 #
edge $-1 $252 -32.460351583679241 $259 32.460351583679241 $254 $338 forward 7 unknown #
coedge $-1 $339 $166 $169 $262 reversed $258 $-1 #
coedge $-1 $166 $339 $337 $340 reversed $258 $-1 #
loop $-1 $-1 $166 $244 #
vertex $-1 $340 $341 #
straight-curve $-1 -72.251960814233826 -32.460351583679241 0 0 0 1 I I #
coedge $-1 $169 $168 $329 $342 forward $96 $-1 #
edge $-1 $343 -8.744206582865985 $171 8.744206582865985 $256 $344 forward 7 unknown #
point $-1 -72.251960814233826 32.460351583679241 -8.5207845500272317 #
point $-1 -72.251960814233826 -32.460351583679241 -8.5207845500272317 #
plane-surface $-1 0 0 15.223584915525754 0 0 1 1 0 0 forward_v I I I I #
coedge $-1 $276 $275 $268 $345 forward $174 $-1 #
coedge $-1 $268 $176 $178 $272 reversed $104 $-1 #
coedge $-1 $176 $267 $266 $345 reversed $104 $-1 #
coedge $-1 $184 $179 $176 $270 forward $185 $-1 #
edge $-1 $273 -34.209999509620978 $346 -27.25214022883867 $269 $347 forward 7 unknown #
coedge $-1 $178 $177 $276 $348 reversed $65 $-1 #
edge $-1 $349 -1.7763522597878294e-014 $273 8.7121837725309952 $267 $350 forward 7 unknown #
vertex $-1 $180 $351 #
straight-curve $-1 -18.076948789866883 -25.502492302896933 15.223584915525754 -1 0 0 I I #
coedge $-1 $266 $181 $184 $280 reversed $174 $-1 #
coedge $-1 $181 $266 $271 $348 forward $174 $-1 #
vertex $-1 $182 $352 #
straight-curve $-1 -17.544247510965658 -32.460351583679241 62.693212047165758 0 0 1 I I #
straight-curve $-1 -17.544247510965658 -32.460351583679227 9.9804617703779996 0 -0.79863550430605224 -0.6018150307709319 I I #
edge $-1 $346 -54.76354764850187 $186 -17.544247510965658 $275 $353 forward 7 unknown #
point $-1 -17.544247510965658 -32.460351583679241 15.223584915525754 #
point $-1 -17.544247510965658 -25.502492302896933 15.223584915525754 #
edge $-1 $354 1 $354 0 $189 $-1 forward 7 unknown #
vertex $-1 $190 $355 #
ellipse-curve $-1 -36.153897579733766 -25.799830276355298 8.3799086806413587 0 -0.6018150307709319 0.79863550430605224 2 0 0 1 I I #
point $-1 -34.153897579733766 -28.981421943288094 12.602023342951878 #
plane-surface $-1 0 0 15.223584915525754 0 0 1 1 0 0 forward_v I I I I #
coedge $-1 $201 $356 $292 $357 forward $194 $-1 #
coedge $-1 $290 $196 $356 $358 reversed $119 $-1 #
coedge $-1 $196 $289 $293 $359 reversed $119 $-1 #
edge $-1 $294 25.604588330181272 $360 42.676151793819031 $196 $361 forward 7 unknown #
coedge $-1 $198 $197 $288 $357 reversed $74 $-1 #
coedge $-1 $204 $199 $290 $359 forward $205 $-1 #
vertex $-1 $359 $362 #
straight-curve $-1 27.052765731650318 20.601447272489828 15.223584915525759 1 0 0 I I #
coedge $-1 $356 $201 $204 $300 reversed $194 $-1 #
vertex $-1 $202 $363 #
straight-curve $-1 35.959102112367447 32.460351583679241 75.012116700555467 0 0 1 I I #
straight-curve $-1 35.959102112367447 -12.637357733729701 49.64337591060152 0 0.69465836192734942 -0.71933980857756763 I I #
edge $-1 $364 -72.251960814233826 $206 -35.959102112367447 $296 $365 forward 7 unknown #
point $-1 35.959102112367447 32.460351583679241 15.223584915525754 #
point $-1 35.959102112367447 20.601447272489843 15.223584915525755 #
edge $-1 $366 1 $366 0 $209 $-1 forward 7 unknown #
vertex $-1 $210 $367 #
ellipse-curve $-1 46.328490312900698 22.476531490903032 5.1681998055549148 0 0.71933980857756763 0.69465836192734942 2.5 0 0 1 I I #
point $-1 48.828490312900698 26.530899428084545 9.0834573184992706 #
edge $-1 $368 1 $368 0 $213 $-1 forward 7 unknown #
vertex $-1 $214 $369 #
ellipse-curve $-1 61.882572613700574 22.476531490903032 5.1681998055549148 0 0.71933980857756763 0.69465836192734942 2.5 0 0 1 I I #
point $-1 64.382572613700574 26.530899428084545 9.0834573184992706 #
plane-surface $-1 72.251960814233826 0 0 -1 0 0 0 0 1 forward_v I I I I #
coedge $-1 $222 $220 $224 $316 reversed $141 $-1 #
edge $-1 $235 -15.223584915525754 $318 15.223584915525754 $234 $370 forward 7 unknown #
vertex $-1 $316 $371 #
straight-curve $-1 -72.251960814233826 -32.460351583679241 0 0 0 -1 I I #
edge $-1 $314 -32.460351583679241 $318 32.460351583679241 $312 $372 forward 7 unknown #
straight-curve $-1 0 -32.460351583679241 -15.223584915525754 -1 0 0 I I #
vertex $-1 $227 $373 #
straight-curve $-1 0 32.460351583679241 -15.223584915525754 1 0 0 I I #
point $-1 72.251960814233826 32.460351583679241 -15.223584915525754 #
point $-1 72.251960814233826 -32.460351583679241 -15.223584915525754 #
straight-curve $-1 -72.251960814233826 0 15.223584915525754 0 -1 0 I I #
point $-1 -72.251960814233826 32.460351583679241 15.223584915525754 #
point $-1 -72.251960814233826 -32.460351583679241 15.223584915525754 #
straight-curve $-1 72.251960814233826 -32.460351583679241 0 0 0 -1 I I #
straight-curve $-1 72.251960814233826 32.460351583679241 0 0 0 -1 I I #
plane-surface $-1 0 -32.460351583679241 0 0 1 0 0 0 1 forward_v I I I I #
coedge $-1 $374 $247 $331 $375 reversed $160 $-1 #
coedge $-1 $247 $374 $261 $342 reversed $160 $-1 #
edge $-1 $334 -3.351400182749261 $332 3.351400182749261 $248 $376 forward 7 unknown #
coedge $-1 $249 $337 $328 $375 forward $245 $-1 #
vertex $-1 $250 $377 #
straight-curve $-1 0 32.460351583679241 -15.223584915525754 1 0 0 I I #
vertex $-1 $251 $378 #
straight-curve $-1 -80.996167397099811 32.460351583679241 -8.5207845500272317 -1 0 0 I I #
point $-1 -72.251960814233826 32.460351583679241 -15.223584915525754 #
coedge $-1 $331 $254 $257 $340 forward $245 $-1 #
straight-curve $-1 -72.251960814233826 0 -15.223584915525754 0 -1 0 I I #
coedge $-1 $257 $256 $374 $379 forward $258 $-1 #
edge $-1 $259 -8.744206582865985 $380 8.744206582865985 $257 $381 forward 7 unknown #
point $-1 -72.251960814233826 -32.460351583679241 -15.223584915525754 #
edge $-1 $334 -32.460351583679241 $343 32.460351583679241 $329 $382 forward 7 unknown #
vertex $-1 $342 $383 #
straight-curve $-1 -80.996167397099811 -32.460351583679241 -8.5207845500272317 1 0 0 I I #
edge $-1 $346 47.469627131640003 $349 52.712750276787773 $266 $384 forward 7 unknown #
vertex $-1 $280 $385 #
straight-curve $-1 -54.76354764850187 -59.712491812517911 15.223584915525755 0 -1 0 I I #
edge $-1 $349 -36.686598858634987 $277 0.53270127890122509 $276 $386 forward 7 unknown #
vertex $-1 $348 $387 #
straight-curve $-1 -54.76354764850187 -32.460351583679227 9.9804617703779996 0 0.79863550430605224 0.6018150307709319 I I #
point $-1 -54.76354764850187 -25.502492302896933 15.223584915525754 #
point $-1 -17.544247510965658 -32.460351583679241 9.980461770377989 #
straight-curve $-1 0 -32.460351583679241 15.223584915525754 1 0 0 I I #
vertex $-1 $283 $388 #
point $-1 -34.153897579733766 -25.799830276355298 8.3799086806413587 #
coedge $-1 $288 $296 $289 $358 forward $194 $-1 #
edge $-1 $360 -45.199195082583508 $297 -8.9063363807171285 $288 $389 forward 7 unknown #
edge $-1 $364 -15.223584915525754 $360 -2.9433297214727716 $289 $390 forward 7 unknown #
edge $-1 $294 20.601447272489843 $364 32.460351583679241 $290 $391 forward 7 unknown #
vertex $-1 $291 $392 #
straight-curve $-1 72.251960814233826 2.8150058852219928 33.641984583665774 0 0.69465836192734942 -0.71933980857756763 I I #
point $-1 72.251960814233826 20.601447272489843 15.223584915525755 #
point $-1 35.959102112367447 32.460351583679241 2.9433297214727716 #
vertex $-1 $359 $393 #
straight-curve $-1 0 32.460351583679241 15.223584915525754 -1 0 0 I I #
vertex $-1 $303 $394 #
point $-1 48.828490312900698 22.476531490903032 5.1681998055549148 #
vertex $-1 $307 $395 #
point $-1 64.382572613700574 22.476531490903032 5.1681998055549148 #
straight-curve $-1 -72.251960814233826 32.460351583679241 0 0 0 -1 I I #
point $-1 -72.251960814233826 -32.460351583679241 -15.223584915525754 #
straight-curve $-1 -72.251960814233826 0 -15.223584915525754 0 1 0 I I #
point $-1 -72.251960814233826 32.460351583679241 -15.223584915525754 #
coedge $-1 $329 $328 $339 $379 reversed $160 $-1 #
edge $-1 $380 -32.460351583679241 $332 32.460351583679241 $328 $396 forward 7 unknown #
straight-curve $-1 -89.740373979965796 32.460351583679241 -11.872184732776493 0 0 -1 I I #
point $-1 -89.740373979965796 32.460351583679241 -15.223584915525754 #
point $-1 -89.740373979965796 32.460351583679241 -8.5207845500272317 #
edge $-1 $343 -3.351400182749261 $380 3.351400182749261 $374 $397 forward 7 unknown #
vertex $-1 $375 $398 #
straight-curve $-1 -80.996167397099811 -32.460351583679241 -15.223584915525754 -1 0 0 I I #
straight-curve $-1 -89.740373979965796 0 -8.5207845500272317 0 -1 0 I I #
point $-1 -89.740373979965796 -32.460351583679241 -8.5207845500272317 #
straight-curve $-1 -54.76354764850187 -32.460351583679241 62.693212047165758 0 0 -1 I I #
point $-1 -54.76354764850187 -32.460351583679241 15.223584915525754 #
straight-curve $-1 -18.076948789866883 -32.460351583679241 9.9804617703779872 1 0 0 I I #
point $-1 -54.76354764850187 -32.460351583679241 9.980461770377989 #
point $-1 -36.153897579733766 -24.596200214813432 6.7826376720292547 #
straight-curve $-1 27.052765731650318 32.460351583679241 2.9433297214727752 -1 0 0 I I #
straight-curve $-1 72.251960814233826 32.460351583679241 0 0 0 -1 I I #
straight-curve $-1 72.251960814233826 0 15.223584915525754 0 1 0 I I #
point $-1 72.251960814233826 32.460351583679241 2.9433297214727716 #
point $-1 72.251960814233826 32.460351583679241 15.223584915525754 #
point $-1 46.328490312900698 20.678181969459114 3.431553900736541 #
point $-1 61.882572613700574 20.678181969459114 3.431553900736541 #
straight-curve $-1 -89.740373979965796 0 -15.223584915525754 0 1 0 I I #
straight-curve $-1 -89.740373979965796 -32.460351583679241 -11.872184732776493 0 0 -1 I I #
point $-1 -89.740373979965796 -32.460351583679241 -15.223584915525754 #
End-of-ACIS-data 