500 0 16 0           
7 Unknown 11 ACIS 5.0 NT 24 Thu Mar 25 20:46:15 1999 
-1 9.9999999999999995e-007 1e-010 
body $-1 $16 $-1 $17 #
body $-1 $18 $-1 $19 #
body $-1 $20 $-1 $21 #
body $-1 $22 $-1 $23 #
body $-1 $24 $-1 $25 #
body $-1 $26 $-1 $27 #
body $-1 $28 $-1 $29 #
body $-1 $30 $-1 $31 #
body $-1 $32 $-1 $33 #
body $-1 $34 $-1 $35 #
body $-1 $36 $-1 $37 #
body $-1 $38 $-1 $39 #
body $-1 $40 $-1 $41 #
body $-1 $42 $-1 $43 #
body $-1 $44 $-1 $45 #
body $-1 $46 $-1 $47 #
lump $-1 $-1 $48 $0 #
transform $-1 1 0 0 0 1 0 0 0 1 54.246040223395489 26.121106493020449 6.6811424151739365 1 rotate no_reflect no_shear #
lump $-1 $-1 $49 $1 #
transform $-1 1 0 0 0 1 0 0 0 1 54.246040223395489 26.121106493020449 6.6811424151739365 1 rotate no_reflect no_shear #
lump $-1 $-1 $50 $2 #
transform $-1 1 0 0 0 1 0 0 0 1 54.246040223395489 26.121106493020449 6.6811424151739365 1 rotate no_reflect no_shear #
lump $-1 $-1 $51 $3 #
transform $-1 1 0 0 0 1 0 0 0 1 54.246040223395489 26.121106493020449 6.6811424151739365 1 rotate no_reflect no_shear #
lump $-1 $-1 $52 $4 #
transform $-1 1 0 0 0 1 0 0 0 1 54.246040223395489 26.121106493020449 6.6811424151739365 1 rotate no_reflect no_shear #
lump $-1 $-1 $53 $5 #
transform $-1 1 0 0 0 1 0 0 0 1 54.246040223395489 26.121106493020449 6.6811424151739365 1 rotate no_reflect no_shear #
lump $-1 $-1 $54 $6 #
transform $-1 1 0 0 0 1 0 0 0 1 54.246040223395489 26.121106493020449 6.6811424151739365 1 rotate no_reflect no_shear #
lump $-1 $-1 $55 $7 #
transform $-1 1 0 0 0 1 0 0 0 1 54.246040223395489 26.121106493020449 6.6811424151739365 1 rotate no_reflect no_shear #
lump $-1 $-1 $56 $8 #
transform $-1 1 0 0 0 1 0 0 0 1 54.246040223395489 26.121106493020449 6.6811424151739365 1 rotate no_reflect no_shear #
lump $-1 $-1 $57 $9 #
transform $-1 1 0 0 0 1 0 0 0 1 54.246040223395489 26.121106493020449 6.6811424151739365 1 rotate no_reflect no_shear #
lump $-1 $-1 $58 $10 #
transform $-1 1 0 0 0 1 0 0 0 1 54.246040223395489 26.121106493020449 6.6811424151739365 1 rotate no_reflect no_shear #
lump $-1 $-1 $59 $11 #
transform $-1 1 0 0 0 1 0 0 0 1 54.246040223395489 26.121106493020449 6.6811424151739365 1 rotate no_reflect no_shear #
lump $-1 $-1 $60 $12 #
transform $-1 1 0 0 0 1 0 0 0 1 54.246040223395489 26.121106493020449 6.6811424151739365 1 rotate no_reflect no_shear #
lump $-1 $-1 $61 $13 #
transform $-1 1 0 0 0 1 0 0 0 1 54.246040223395489 26.121106493020449 6.6811424151739365 1 rotate no_reflect no_shear #
lump $-1 $-1 $62 $14 #
transform $-1 1 0 0 0 1 0 0 0 1 54.246040223395489 26.121106493020449 6.6811424151739365 1 rotate no_reflect no_shear #
lump $-1 $-1 $63 $15 #
transform $-1 1 0 0 0 1 0 0 0 1 54.246040223395489 26.121106493020449 6.6811424151739365 1 rotate no_reflect no_shear #
shell $-1 $-1 $-1 $64 $-1 $16 #
shell $-1 $-1 $-1 $65 $-1 $18 #
shell $-1 $-1 $-1 $66 $-1 $20 #
shell $-1 $-1 $-1 $67 $-1 $22 #
shell $-1 $-1 $-1 $68 $-1 $24 #
shell $-1 $-1 $-1 $69 $-1 $26 #
shell $-1 $-1 $-1 $70 $-1 $28 #
shell $-1 $-1 $-1 $71 $-1 $30 #
shell $-1 $-1 $-1 $72 $-1 $32 #
shell $-1 $-1 $-1 $73 $-1 $34 #
shell $-1 $-1 $-1 $74 $-1 $36 #
shell $-1 $-1 $-1 $75 $-1 $38 #
shell $-1 $-1 $-1 $76 $-1 $40 #
shell $-1 $-1 $-1 $77 $-1 $42 #
shell $-1 $-1 $-1 $78 $-1 $44 #
shell $-1 $-1 $-1 $79 $-1 $46 #
face $-1 $80 $81 $48 $-1 $82 forward single #
face $-1 $83 $84 $49 $-1 $85 forward single #
face $-1 $86 $87 $50 $-1 $88 reversed single #
face $-1 $89 $90 $51 $-1 $91 forward single #
face $-1 $92 $93 $52 $-1 $94 forward single #
face $-1 $95 $96 $53 $-1 $97 forward single #
face $-1 $98 $99 $54 $-1 $100 reversed single #
face $-1 $101 $102 $55 $-1 $103 forward single #
face $-1 $104 $105 $56 $-1 $106 forward single #
face $-1 $107 $108 $57 $-1 $109 forward single #
face $-1 $110 $111 $58 $-1 $112 reversed single #
face $-1 $113 $114 $59 $-1 $115 forward single #
face $-1 $116 $117 $60 $-1 $118 forward single #
face $-1 $119 $120 $61 $-1 $121 reversed single #
face $-1 $122 $123 $62 $-1 $124 forward single #
face $-1 $125 $126 $63 $-1 $127 forward single #
face $-1 $128 $129 $48 $-1 $130 reversed single #
loop $-1 $-1 $131 $64 #
plane-surface $-1 0 0 6.6811424151739365 0 0 1 1 0 0 forward_v I I I I #
face $-1 $132 $133 $49 $-1 $134 reversed single #
loop $-1 $-1 $135 $65 #
plane-surface $-1 0 -22.214451857373316 -3.5046075573598321 0 0 1 1 0 0 forward_v I I I I #
face $-1 $136 $137 $50 $-1 $138 reversed single #
loop $-1 $-1 $139 $66 #
plane-surface $-1 -129.6109729196418 -4.7151492324652491 81.197710873258231 0 1 0 -0.69465837861970381 0 0.71933979245794832 forward_v I I I I #
face $-1 $140 $141 $51 $-1 $142 forward single #
loop $-1 $143 $144 $67 #
cone-surface $-1 -51.995781555017373 -2.990788458842772 4.4784405152826743 0.69465837861970381 0 -0.71933979245794832 0.35966989622897416 0 0.3473291893098519 1 I I 0 1 0.5 forward I I I I #
face $-1 $145 $146 $52 $-1 $147 forward single #
loop $-1 $148 $149 $68 #
cone-surface $-1 -51.995781555017373 -0.40424729840905727 4.4784405152826743 0.69465837861970381 0 -0.71933979245794832 0.35966989622897416 0 0.3473291893098519 1 I I 0 1 0.5 forward I I I I #
face $-1 $150 $151 $53 $-1 $152 forward single #
loop $-1 $153 $154 $69 #
cone-surface $-1 -51.995781555017373 2.1822938620246575 4.4784405152826743 0.69465837861970381 0 -0.71933979245794832 0.35966989622897416 0 0.3473291893098519 1 I I 0 1 0.5 forward I I I I #
face $-1 $155 $156 $54 $-1 $157 reversed single #
loop $-1 $-1 $158 $70 #
plane-surface $-1 -129.6109729196418 17.499302624908069 81.197710873258231 0 1 0 -0.69465837861970381 0 0.71933979245794832 forward_v I I I I #
face $-1 $159 $160 $55 $-1 $161 forward single #
loop $-1 $162 $163 $71 #
cone-surface $-1 -51.995781555017373 19.223663398530547 4.4784405152826743 0.69465837861970381 0 -0.71933979245794832 0.35966989622897416 0 0.3473291893098519 1 I I 0 1 0.5 forward I I I I #
face $-1 $164 $165 $56 $-1 $166 forward single #
loop $-1 $167 $168 $72 #
cone-surface $-1 -51.995781555017373 21.810204558964259 4.4784405152826743 0.69465837861970381 0 -0.71933979245794832 0.35966989622897416 0 0.3473291893098519 1 I I 0 1 0.5 forward I I I I #
face $-1 $169 $170 $57 $-1 $171 forward single #
loop $-1 $172 $173 $73 #
cone-surface $-1 -51.995781555017373 24.39674571939797 4.4784405152826743 0.69465837861970381 0 -0.71933979245794832 0.35966989622897416 0 0.3473291893098519 1 I I 0 1 0.5 forward I I I I #
face $-1 $174 $175 $58 $-1 $176 reversed single #
loop $-1 $-1 $177 $74 #
plane-surface $-1 17.127729925490904 -11.751203582047847 149.00013917819501 0 -1 0 -0.51503808176128008 0 -0.85716729658548041 forward_v I I I I #
face $-1 $178 $179 $59 $-1 $180 forward single #
loop $-1 $181 $182 $75 #
cone-surface $-1 48.300999567183048 -16.434484753246657 2.5870247731983094 -0.51503808176128008 0 -0.85716729658548041 0.4285836482927402 0 -0.25751904088064004 1 I I 0 1 0.5 forward I I I I #
face $-1 $183 $184 $60 $-1 $185 forward single #
loop $-1 $186 $187 $76 #
cone-surface $-1 48.300999567183048 -13.624516050527372 2.5870247731983094 -0.51503808176128008 0 -0.85716729658548041 0.4285836482927402 0 -0.25751904088064004 1 I I 0 1 0.5 forward I I I I #
face $-1 $188 $189 $61 $-1 $190 reversed single #
loop $-1 $-1 $191 $77 #
plane-surface $-1 17.127729925490904 19.564512853342116 149.00013917819501 0 1 0 0.51503808176128008 0 0.85716729658548041 forward_v I I I I #
face $-1 $192 $193 $62 $-1 $194 forward single #
loop $-1 $195 $196 $78 #
cone-surface $-1 48.300999567183048 21.437825321821641 2.5870247731983094 -0.51503808176128008 0 -0.85716729658548041 0.4285836482927402 0 -0.25751904088064004 1 I I 0 1 0.5 forward I I I I #
face $-1 $197 $198 $63 $-1 $199 forward single #
loop $-1 $200 $201 $79 #
cone-surface $-1 48.300999567183048 24.247794024540923 2.5870247731983094 -0.51503808176128008 0 -0.85716729658548041 0.4285836482927402 0 -0.25751904088064004 1 I I 0 1 0.5 forward I I I I #
face $-1 $202 $203 $48 $-1 $204 reversed single #
loop $-1 $-1 $205 $80 #
plane-surface $-1 0 0 -6.6811424151739365 0 0 1 1 0 0 forward_v I I I I #
coedge $-1 $206 $207 $208 $209 forward $81 $-1 #
face $-1 $210 $211 $49 $-1 $212 reversed single #
loop $-1 $-1 $213 $83 #
plane-surface $-1 0 -18.307797221726183 -5.0928749862668843 0 -1 0 0 0 -1 forward_v I I I I #
coedge $-1 $214 $215 $216 $217 reversed $84 $-1 #
face $-1 $218 $219 $50 $-1 $220 reversed single #
loop $-1 $-1 $221 $86 #
plane-surface $-1 -54.246040223395511 -0.40424729840906082 3.1550402413325855 -0.69465837861970381 0 0.71933979245794832 0.71933979245794832 0 0.69465837861970381 forward_v I I I I #
coedge $-1 $222 $223 $224 $225 reversed $87 $-1 #
face $-1 $-1 $226 $51 $-1 $227 forward single #
loop $-1 $228 $229 $89 #
cone-surface $-1 -51.397551095802918 -2.990788458842772 3.8589547541976001 0.69465837861970381 0 -0.71933979245794832 0.17983494811448708 0 0.17366459465492595 1 I I -0.70710678118654746 0.70710678118654746 0.25 forward I I I I #
loop $-1 $-1 $230 $67 #
coedge $-1 $144 $144 $231 $232 reversed $90 $-1 #
face $-1 $-1 $233 $52 $-1 $234 forward single #
loop $-1 $235 $236 $92 #
cone-surface $-1 -51.397551095802918 -0.40424729840905727 3.8589547541976001 0.69465837861970381 0 -0.71933979245794832 0.17983494811448708 0 0.17366459465492595 1 I I -0.70710678118654746 0.70710678118654746 0.25 forward I I I I #
loop $-1 $-1 $237 $68 #
coedge $-1 $149 $149 $238 $239 reversed $93 $-1 #
face $-1 $-1 $240 $53 $-1 $241 forward single #
loop $-1 $242 $243 $95 #
cone-surface $-1 -51.397551095802918 2.1822938620246575 3.8589547541976001 0.69465837861970381 0 -0.71933979245794832 0.17983494811448708 0 0.17366459465492595 1 I I -0.70710678118654746 0.70710678118654746 0.25 forward I I I I #
loop $-1 $-1 $244 $69 #
coedge $-1 $154 $154 $245 $246 reversed $96 $-1 #
face $-1 $247 $248 $54 $-1 $249 forward single #
loop $-1 $-1 $250 $98 #
plane-surface $-1 -54.246040223395511 21.810204558964259 3.1550402413325855 -0.69465837861970381 0 0.71933979245794832 0.71933979245794832 0 0.69465837861970381 forward_v I I I I #
coedge $-1 $251 $252 $253 $254 reversed $99 $-1 #
face $-1 $-1 $255 $55 $-1 $256 forward single #
loop $-1 $257 $258 $101 #
cone-surface $-1 -51.397551095802918 19.223663398530547 3.8589547541976001 0.69465837861970381 0 -0.71933979245794832 0.17983494811448708 0 0.17366459465492595 1 I I -0.70710678118654746 0.70710678118654746 0.25 forward I I I I #
loop $-1 $-1 $259 $71 #
coedge $-1 $163 $163 $260 $261 reversed $102 $-1 #
face $-1 $-1 $262 $56 $-1 $263 forward single #
loop $-1 $264 $265 $104 #
cone-surface $-1 -51.397551095802918 21.810204558964259 3.8589547541976001 0.69465837861970381 0 -0.71933979245794832 0.17983494811448708 0 0.17366459465492595 1 I I -0.70710678118654746 0.70710678118654746 0.25 forward I I I I #
loop $-1 $-1 $266 $72 #
coedge $-1 $168 $168 $267 $268 reversed $105 $-1 #
face $-1 $-1 $269 $57 $-1 $270 forward single #
loop $-1 $271 $272 $107 #
cone-surface $-1 -51.397551095802918 24.39674571939797 3.8589547541976001 0.69465837861970381 0 -0.71933979245794832 0.17983494811448708 0 0.17366459465492595 1 I I -0.70710678118654746 0.70710678118654746 0.25 forward I I I I #
loop $-1 $-1 $273 $73 #
coedge $-1 $173 $173 $274 $275 reversed $108 $-1 #
face $-1 $276 $277 $58 $-1 $278 reversed single #
loop $-1 $-1 $279 $110 #
plane-surface $-1 -38.749823074114801 -15.029500401887015 56.00427588068473 0.51503808176128008 0 0.85716729658548041 0.85716729658548041 0 -0.51503808176128008 forward_v I I I I #
coedge $-1 $280 $281 $282 $283 reversed $111 $-1 #
face $-1 $-1 $284 $59 $-1 $285 forward single #
loop $-1 $286 $287 $113 #
cone-surface $-1 47.681392266438117 -16.434484753246657 1.555825074123768 -0.51503808176128008 0 -0.85716729658548041 0.2142918241463701 0 -0.12875952044032002 1 I I -0.70710678118654746 0.70710678118654746 0.25 forward I I I I #
loop $-1 $-1 $288 $75 #
coedge $-1 $182 $182 $289 $290 reversed $114 $-1 #
face $-1 $-1 $291 $60 $-1 $292 forward single #
loop $-1 $293 $294 $116 #
cone-surface $-1 47.681392266438117 -13.624516050527372 1.555825074123768 -0.51503808176128008 0 -0.85716729658548041 0.2142918241463701 0 -0.12875952044032002 1 I I -0.70710678118654746 0.70710678118654746 0.25 forward I I I I #
loop $-1 $-1 $295 $76 #
coedge $-1 $187 $187 $296 $297 reversed $117 $-1 #
face $-1 $298 $299 $61 $-1 $300 reversed single #
loop $-1 $-1 $301 $119 #
plane-surface $-1 -38.749823074114801 22.842809673181286 56.00427588068473 0.51503808176128008 0 0.85716729658548041 0.85716729658548041 0 -0.51503808176128008 forward_v I I I I #
coedge $-1 $302 $303 $304 $305 reversed $120 $-1 #
face $-1 $-1 $306 $62 $-1 $307 forward single #
loop $-1 $308 $309 $122 #
cone-surface $-1 47.681392266438117 21.437825321821641 1.555825074123768 -0.51503808176128008 0 -0.85716729658548041 0.2142918241463701 0 -0.12875952044032002 1 I I -0.70710678118654746 0.70710678118654746 0.25 forward I I I I #
loop $-1 $-1 $310 $78 #
coedge $-1 $196 $196 $311 $312 reversed $123 $-1 #
face $-1 $-1 $313 $63 $-1 $314 forward single #
loop $-1 $315 $316 $125 #
cone-surface $-1 47.681392266438117 24.247794024540923 1.555825074123768 -0.51503808176128008 0 -0.85716729658548041 0.2142918241463701 0 -0.12875952044032002 1 I I -0.70710678118654746 0.70710678118654746 0.25 forward I I I I #
loop $-1 $-1 $317 $79 #
coedge $-1 $201 $201 $318 $319 reversed $126 $-1 #
face $-1 $320 $321 $48 $-1 $322 reversed single #
loop $-1 $-1 $323 $128 #
plane-surface $-1 0 -26.121106493020449 0 0 1 0 0 0 1 forward_v I I I I #
coedge $-1 $324 $325 $326 $327 forward $129 $-1 #
coedge $-1 $328 $131 $329 $330 forward $81 $-1 #
coedge $-1 $131 $328 $331 $332 forward $81 $-1 #
coedge $-1 $333 $334 $131 $209 reversed $335 $-1 #
edge $-1 $336 -26.121106493020449 $337 26.121106493020449 $208 $338 forward 7 unknown #
face $-1 $339 $340 $49 $-1 $341 reversed single #
loop $-1 $-1 $342 $132 #
plane-surface $-1 0 0 -6.6811424151739365 0 0 1 1 0 0 forward_v I I I I #
coedge $-1 $343 $344 $345 $346 reversed $133 $-1 #
coedge $-1 $347 $135 $344 $348 forward $84 $-1 #
coedge $-1 $135 $347 $349 $350 reversed $84 $-1 #
coedge $-1 $351 $345 $135 $217 forward $340 $-1 #
edge $-1 $352 7.2005712930395251 $353 15.013880564333791 $216 $354 forward 7 unknown #
face $-1 $355 $356 $50 $-1 $357 forward single #
loop $-1 $-1 $358 $136 #
plane-surface $-1 -129.6109729196418 3.9066546356471274 81.197710873258231 0 -1 0 0.69465837861970381 0 -0.71933979245794832 forward_v I I I I #
coedge $-1 $359 $360 $361 $362 reversed $137 $-1 #
coedge $-1 $223 $139 $363 $364 reversed $87 $-1 #
coedge $-1 $139 $222 $359 $365 reversed $87 $-1 #
coedge $-1 $361 $366 $139 $225 forward $356 $-1 #
edge $-1 $367 10.559446236425408 $368 14.210831844062554 $224 $369 forward 7 unknown #
loop $-1 $-1 $231 $140 #
plane-surface $-1 -54.246040223395511 -0.40424729840906082 3.1550402413325855 -0.69465837861970381 0 0.71933979245794832 0.71933979245794832 0 0.69465837861970381 forward_v I I I I #
loop $-1 $-1 $370 $89 #
coedge $-1 $229 $229 $230 $371 reversed $141 $-1 #
coedge $-1 $230 $230 $229 $371 forward $143 $-1 #
coedge $-1 $231 $231 $144 $232 forward $226 $-1 #
edge $-1 $372 0 $372 6.2831853071796004 $231 $373 forward 7 unknown #
loop $-1 $-1 $238 $145 #
plane-surface $-1 -54.246040223395511 -0.40424729840906082 3.1550402413325855 -0.69465837861970381 0 0.71933979245794832 0.71933979245794832 0 0.69465837861970381 forward_v I I I I #
loop $-1 $-1 $374 $92 #
coedge $-1 $236 $236 $237 $375 reversed $146 $-1 #
coedge $-1 $237 $237 $236 $375 forward $148 $-1 #
coedge $-1 $238 $238 $149 $239 forward $233 $-1 #
edge $-1 $376 0 $376 6.2831853071796004 $238 $377 forward 7 unknown #
loop $-1 $-1 $245 $150 #
plane-surface $-1 -54.246040223395511 -0.40424729840906082 3.1550402413325855 -0.69465837861970381 0 0.71933979245794832 0.71933979245794832 0 0.69465837861970381 forward_v I I I I #
loop $-1 $-1 $378 $95 #
coedge $-1 $243 $243 $244 $379 reversed $151 $-1 #
coedge $-1 $244 $244 $243 $379 forward $153 $-1 #
coedge $-1 $245 $245 $154 $246 forward $240 $-1 #
edge $-1 $380 0 $380 6.2831853071796004 $245 $381 forward 7 unknown #
face $-1 $382 $383 $54 $-1 $384 reversed single #
loop $-1 $-1 $253 $155 #
plane-surface $-1 0 0 6.6811424151739365 0 0 1 1 0 0 forward_v I I I I #
coedge $-1 $385 $386 $387 $388 reversed $156 $-1 #
coedge $-1 $252 $158 $389 $390 reversed $99 $-1 #
coedge $-1 $158 $251 $385 $391 reversed $99 $-1 #
coedge $-1 $387 $392 $158 $254 forward $248 $-1 #
edge $-1 $393 10.559446236425408 $394 14.210831844062554 $253 $395 forward 7 unknown #
loop $-1 $-1 $260 $159 #
plane-surface $-1 -54.246040223395511 21.810204558964259 3.1550402413325855 -0.69465837861970381 0 0.71933979245794832 0.71933979245794832 0 0.69465837861970381 forward_v I I I I #
loop $-1 $-1 $396 $101 #
coedge $-1 $258 $258 $259 $397 reversed $160 $-1 #
coedge $-1 $259 $259 $258 $397 forward $162 $-1 #
coedge $-1 $260 $260 $163 $261 forward $255 $-1 #
edge $-1 $398 0 $398 6.2831853071796004 $260 $399 forward 7 unknown #
loop $-1 $-1 $267 $164 #
plane-surface $-1 -54.246040223395511 21.810204558964259 3.1550402413325855 -0.69465837861970381 0 0.71933979245794832 0.71933979245794832 0 0.69465837861970381 forward_v I I I I #
loop $-1 $-1 $400 $104 #
coedge $-1 $265 $265 $266 $401 reversed $165 $-1 #
coedge $-1 $266 $266 $265 $401 forward $167 $-1 #
coedge $-1 $267 $267 $168 $268 forward $262 $-1 #
edge $-1 $402 0 $402 6.2831853071796004 $267 $403 forward 7 unknown #
loop $-1 $-1 $274 $169 #
plane-surface $-1 -54.246040223395511 21.810204558964259 3.1550402413325855 -0.69465837861970381 0 0.71933979245794832 0.71933979245794832 0 0.69465837861970381 forward_v I I I I #
loop $-1 $-1 $404 $107 #
coedge $-1 $272 $272 $273 $405 reversed $170 $-1 #
coedge $-1 $273 $273 $272 $405 forward $172 $-1 #
coedge $-1 $274 $274 $173 $275 forward $269 $-1 #
edge $-1 $406 0 $406 6.2831853071796004 $274 $407 forward 7 unknown #
face $-1 $408 $409 $58 $-1 $410 forward single #
loop $-1 $-1 $411 $174 #
plane-surface $-1 17.127729925490904 -18.307797221726183 149.00013917819501 0 1 0 0.51503808176128008 0 0.85716729658548041 forward_v I I I I #
coedge $-1 $412 $413 $414 $415 reversed $175 $-1 #
coedge $-1 $281 $177 $416 $417 reversed $111 $-1 #
coedge $-1 $177 $280 $412 $418 reversed $111 $-1 #
coedge $-1 $414 $419 $177 $283 forward $409 $-1 #
edge $-1 $420 -45.682175260650041 $421 -34.773789508834398 $282 $422 forward 7 unknown #
loop $-1 $-1 $289 $178 #
plane-surface $-1 -38.749823074114801 -15.029500401887015 56.00427588068473 0.51503808176128008 0 0.85716729658548041 0.85716729658548041 0 -0.51503808176128008 forward_v I I I I #
loop $-1 $-1 $423 $113 #
coedge $-1 $287 $287 $288 $424 reversed $179 $-1 #
coedge $-1 $288 $288 $287 $424 forward $181 $-1 #
coedge $-1 $289 $289 $182 $290 forward $284 $-1 #
edge $-1 $425 0 $425 6.2831853071796004 $289 $426 forward 7 unknown #
loop $-1 $-1 $296 $183 #
plane-surface $-1 -38.749823074114801 -15.029500401887015 56.00427588068473 0.51503808176128008 0 0.85716729658548041 0.85716729658548041 0 -0.51503808176128008 forward_v I I I I #
loop $-1 $-1 $427 $116 #
coedge $-1 $294 $294 $295 $428 reversed $184 $-1 #
coedge $-1 $295 $295 $294 $428 forward $186 $-1 #
coedge $-1 $296 $296 $187 $297 forward $291 $-1 #
edge $-1 $429 0 $429 6.2831853071796004 $296 $430 forward 7 unknown #
face $-1 $431 $432 $61 $-1 $433 forward single #
loop $-1 $-1 $304 $188 #
plane-surface $-1 54.246040223395489 0 0 -1 0 0 0 0 1 forward_v I I I I #
coedge $-1 $434 $435 $436 $437 reversed $189 $-1 #
coedge $-1 $303 $191 $438 $439 reversed $120 $-1 #
coedge $-1 $191 $302 $434 $440 reversed $120 $-1 #
coedge $-1 $436 $441 $191 $305 forward $299 $-1 #
edge $-1 $442 67.818927173923569 $443 74.373346708018488 $304 $444 forward 7 unknown #
loop $-1 $-1 $311 $192 #
plane-surface $-1 -38.749823074114801 22.842809673181286 56.00427588068473 0.51503808176128008 0 0.85716729658548041 0.85716729658548041 0 -0.51503808176128008 forward_v I I I I #
loop $-1 $-1 $445 $122 #
coedge $-1 $309 $309 $310 $446 reversed $193 $-1 #
coedge $-1 $310 $310 $309 $446 forward $195 $-1 #
coedge $-1 $311 $311 $196 $312 forward $306 $-1 #
edge $-1 $447 0 $447 6.2831853071796004 $311 $448 forward 7 unknown #
loop $-1 $-1 $318 $197 #
plane-surface $-1 -38.749823074114801 22.842809673181286 56.00427588068473 0.51503808176128008 0 0.85716729658548041 0.85716729658548041 0 -0.51503808176128008 forward_v I I I I #
loop $-1 $-1 $449 $125 #
coedge $-1 $316 $316 $317 $450 reversed $198 $-1 #
coedge $-1 $317 $317 $316 $450 forward $200 $-1 #
coedge $-1 $318 $318 $201 $319 forward $313 $-1 #
edge $-1 $451 0 $451 6.2831853071796004 $318 $452 forward 7 unknown #
face $-1 $453 $454 $48 $-1 $455 reversed single #
loop $-1 $-1 $456 $202 #
plane-surface $-1 -54.246040223395489 0 0 1 0 0 0 0 -1 forward_v I I I I #
coedge $-1 $457 $331 $458 $459 forward $203 $-1 #
coedge $-1 $460 $205 $457 $461 forward $129 $-1 #
coedge $-1 $205 $460 $462 $463 forward $129 $-1 #
coedge $-1 $334 $333 $205 $327 reversed $335 $-1 #
edge $-1 $464 -26.121106493020449 $465 26.121106493020449 $326 $466 forward 7 unknown #
coedge $-1 $207 $206 $467 $468 forward $81 $-1 #
coedge $-1 $469 $470 $206 $330 reversed $454 $-1 #
edge $-1 $337 -54.246040223395489 $471 54.246040223395489 $329 $472 forward 7 unknown #
coedge $-1 $323 $473 $207 $332 reversed $203 $-1 #
edge $-1 $474 -54.246040223395489 $336 54.246040223395489 $331 $475 forward 7 unknown #
coedge $-1 $326 $208 $473 $476 forward $335 $-1 #
coedge $-1 $208 $326 $469 $477 reversed $335 $-1 #
loop $-1 $-1 $333 $453 #
vertex $-1 $209 $478 #
vertex $-1 $209 $479 #
straight-curve $-1 54.246040223395489 0 6.6811424151739365 0 1 0 I I #
face $-1 $480 $481 $49 $-1 $482 reversed single #
loop $-1 $-1 $345 $210 #
plane-surface $-1 54.246040223395489 0 0 -1 0 0 0 0 1 forward_v I I I I #
coedge $-1 $483 $484 $343 $485 forward $211 $-1 #
coedge $-1 $486 $213 $342 $485 reversed $133 $-1 #
coedge $-1 $213 $486 $214 $348 reversed $133 $-1 #
coedge $-1 $216 $487 $213 $346 forward $340 $-1 #
edge $-1 $488 -4.1347049220404948 $352 -0.95817006422638995 $345 $489 forward 7 unknown #
coedge $-1 $215 $214 $490 $491 reversed $84 $-1 #
edge $-1 $352 -54.246040223395489 $492 54.246040223395489 $344 $493 forward 7 unknown #
coedge $-1 $494 $495 $215 $350 forward $481 $-1 #
edge $-1 $353 -54.246040223395489 $496 54.246040223395489 $349 $497 forward 7 unknown #
coedge $-1 $487 $216 $495 $498 forward $340 $-1 #
vertex $-1 $217 $499 #
vertex $-1 $498 $500 #
straight-curve $-1 54.246040223395489 -11.107225928686658 -3.5046075573598321 0 -1 0 I I #
face $-1 $-1 $501 $50 $-1 $502 reversed single #
loop $-1 $-1 $224 $218 #
plane-surface $-1 0 0 6.6811424151739365 0 0 1 1 0 0 forward_v I I I I #
coedge $-1 $503 $504 $505 $506 reversed $219 $-1 #
coedge $-1 $507 $221 $223 $365 forward $137 $-1 #
coedge $-1 $221 $507 $503 $508 forward $137 $-1 #
coedge $-1 $505 $224 $221 $362 forward $356 $-1 #
edge $-1 $368 -4.5130255832607187 $509 4.1087782848516579 $361 $510 forward 7 unknown #
coedge $-1 $511 $512 $222 $364 forward $501 $-1 #
edge $-1 $513 -37.443815195296509 $367 -33.917713021455178 $363 $514 forward 7 unknown #
edge $-1 $368 -5.0760233841097051 $513 -2.9524203284164893e-014 $223 $515 forward 7 unknown #
coedge $-1 $224 $505 $511 $516 forward $356 $-1 #
vertex $-1 $364 $517 #
vertex $-1 $225 $518 #
straight-curve $-1 -64.805486459820898 -4.7151492324652491 6.6811424151739374 1 0 0 I I #
coedge $-1 $370 $370 $-1 $519 reversed $228 $-1 #
edge $-1 $520 0 $520 6.2831853071796004 $229 $521 forward 7 unknown #
vertex $-1 $232 $522 #
ellipse-curve $-1 -52.420347419576913 -2.990788458842772 4.9180913282532721 -0.69465837861970381 0 0.71933979245794832 0.35966989622897416 0 0.3473291893098519 1 I I #
coedge $-1 $374 $374 $-1 $523 reversed $235 $-1 #
edge $-1 $524 0 $524 6.2831853071796004 $236 $525 forward 7 unknown #
vertex $-1 $239 $526 #
ellipse-curve $-1 -52.420347419576913 -0.40424729840905727 4.9180913282532721 -0.69465837861970381 0 0.71933979245794832 0.35966989622897416 0 0.3473291893098519 1 I I #
coedge $-1 $378 $378 $-1 $527 reversed $242 $-1 #
edge $-1 $528 0 $528 6.2831853071796004 $243 $529 forward 7 unknown #
vertex $-1 $246 $530 #
ellipse-curve $-1 -52.420347419576913 2.1822938620246575 4.9180913282532721 -0.69465837861970381 0 0.71933979245794832 0.35966989622897416 0 0.3473291893098519 1 I I #
face $-1 $-1 $531 $54 $-1 $532 reversed single #
loop $-1 $-1 $533 $247 #
plane-surface $-1 0 26.121106493020449 0 0 -1 0 0 0 -1 forward_v I I I I #
coedge $-1 $534 $250 $252 $391 forward $156 $-1 #
coedge $-1 $250 $534 $533 $535 reversed $156 $-1 #
coedge $-1 $536 $253 $250 $388 forward $248 $-1 #
edge $-1 $394 6.5942003454259392 $537 15.216004213538319 $387 $538 forward 7 unknown #
coedge $-1 $539 $540 $251 $390 forward $531 $-1 #
edge $-1 $541 -37.443815195296509 $393 -33.917713021455178 $389 $542 forward 7 unknown #
edge $-1 $394 -5.0760233841097051 $541 -2.9524203284164893e-014 $252 $543 forward 7 unknown #
coedge $-1 $253 $536 $539 $544 forward $248 $-1 #
vertex $-1 $390 $545 #
vertex $-1 $254 $546 #
straight-curve $-1 -64.805486459820898 17.499302624908069 6.6811424151739374 1 0 0 I I #
coedge $-1 $396 $396 $-1 $547 reversed $257 $-1 #
edge $-1 $548 0 $548 6.2831853071796004 $258 $549 forward 7 unknown #
vertex $-1 $261 $550 #
ellipse-curve $-1 -52.420347419576913 19.223663398530547 4.9180913282532721 -0.69465837861970381 0 0.71933979245794832 0.35966989622897416 0 0.3473291893098519 1 I I #
coedge $-1 $400 $400 $-1 $551 reversed $264 $-1 #
edge $-1 $552 0 $552 6.2831853071796004 $265 $553 forward 7 unknown #
vertex $-1 $268 $554 #
ellipse-curve $-1 -52.420347419576913 21.810204558964259 4.9180913282532721 -0.69465837861970381 0 0.71933979245794832 0.35966989622897416 0 0.3473291893098519 1 I I #
coedge $-1 $404 $404 $-1 $555 reversed $271 $-1 #
edge $-1 $556 0 $556 6.2831853071796004 $272 $557 forward 7 unknown #
vertex $-1 $275 $558 #
ellipse-curve $-1 -52.420347419576913 24.39674571939797 4.9180913282532721 -0.69465837861970381 0 0.71933979245794832 0.35966989622897416 0 0.3473291893098519 1 I I #
face $-1 $-1 $559 $58 $-1 $560 reversed single #
loop $-1 $-1 $282 $276 #
plane-surface $-1 0 0 6.6811424151739365 0 0 1 1 0 0 forward_v I I I I #
coedge $-1 $561 $562 $563 $564 reversed $277 $-1 #
coedge $-1 $565 $279 $281 $418 forward $175 $-1 #
coedge $-1 $279 $565 $561 $566 forward $175 $-1 #
coedge $-1 $563 $282 $279 $415 forward $409 $-1 #
edge $-1 $421 4.2364533811043392 $567 10.793047020782677 $414 $568 forward 7 unknown #
coedge $-1 $569 $570 $280 $417 forward $559 $-1 #
edge $-1 $571 -74.373346708018488 $420 -67.818927173923569 $416 $572 forward 7 unknown #
edge $-1 $421 95.765993257896696 $571 108.49208044679096 $281 $573 forward 7 unknown #
coedge $-1 $282 $563 $569 $574 forward $409 $-1 #
vertex $-1 $417 $575 #
vertex $-1 $283 $576 #
straight-curve $-1 8.5638649627454519 -11.751203582047847 6.6811424151739374 -1 0 0 I I #
coedge $-1 $423 $423 $-1 $577 reversed $286 $-1 #
edge $-1 $578 0 $578 6.2831853071796004 $287 $579 forward 7 unknown #
vertex $-1 $290 $580 #
ellipse-curve $-1 48.791847347487661 -16.434484753246657 3.4039326481264753 0.51503808176128008 0 0.85716729658548041 0.4285836482927402 0 -0.25751904088064004 1 I I #
coedge $-1 $427 $427 $-1 $581 reversed $293 $-1 #
edge $-1 $582 0 $582 6.2831853071796004 $294 $583 forward 7 unknown #
vertex $-1 $297 $584 #
ellipse-curve $-1 48.791847347487661 -13.624516050527372 3.4039326481264753 0.51503808176128008 0 0.85716729658548041 0.4285836482927402 0 -0.25751904088064004 1 I I #
face $-1 $-1 $585 $61 $-1 $586 reversed single #
loop $-1 $-1 $438 $298 #
plane-surface $-1 0 0 6.6811424151739365 0 0 1 1 0 0 forward_v I I I I #
coedge $-1 $587 $301 $303 $440 forward $189 $-1 #
coedge $-1 $301 $587 $588 $589 reversed $189 $-1 #
coedge $-1 $590 $304 $301 $437 forward $299 $-1 #
edge $-1 $443 8.1431080167514729 $591 14.699701656429806 $436 $592 forward 7 unknown #
coedge $-1 $593 $594 $302 $439 forward $432 $-1 #
edge $-1 $595 34.773789508834398 $442 45.682175260650041 $438 $596 forward 7 unknown #
edge $-1 $443 -108.49208044679096 $595 -95.765993257896696 $303 $597 forward 7 unknown #
coedge $-1 $304 $590 $593 $598 reversed $299 $-1 #
vertex $-1 $598 $599 #
vertex $-1 $305 $600 #
straight-curve $-1 54.246040223395489 19.564512853342116 74.500069589097507 0 0 -1 I I #
coedge $-1 $445 $445 $-1 $601 reversed $308 $-1 #
edge $-1 $602 0 $602 6.2831853071796004 $309 $603 forward 7 unknown #
vertex $-1 $312 $604 #
ellipse-curve $-1 48.791847347487661 21.437825321821641 3.4039326481264753 0.51503808176128008 0 0.85716729658548041 0.4285836482927402 0 -0.25751904088064004 1 I I #
coedge $-1 $449 $449 $-1 $605 reversed $315 $-1 #
edge $-1 $606 0 $606 6.2831853071796004 $316 $607 forward 7 unknown #
vertex $-1 $319 $608 #
ellipse-curve $-1 48.791847347487661 24.247794024540923 3.4039326481264753 0.51503808176128008 0 0.85716729658548041 0.4285836482927402 0 -0.25751904088064004 1 I I #
face $-1 $-1 $335 $48 $-1 $609 reversed single #
loop $-1 $-1 $469 $320 #
plane-surface $-1 0 26.121106493020449 0 0 -1 0 0 0 -1 forward_v I I I I #
coedge $-1 $610 $467 $470 $611 forward $321 $-1 #
coedge $-1 $473 $323 $324 $461 reversed $203 $-1 #
coedge $-1 $467 $610 $323 $459 reversed $321 $-1 #
edge $-1 $474 -6.6811424151739365 $612 6.6811424151739365 $458 $613 forward 7 unknown #
coedge $-1 $325 $324 $610 $614 forward $129 $-1 #
edge $-1 $465 -54.246040223395489 $612 54.246040223395489 $457 $615 forward 7 unknown #
coedge $-1 $470 $469 $325 $463 reversed $454 $-1 #
edge $-1 $616 -54.246040223395489 $464 54.246040223395489 $462 $617 forward 7 unknown #
vertex $-1 $327 $618 #
vertex $-1 $476 $619 #
straight-curve $-1 54.246040223395489 0 -6.6811424151739365 0 -1 0 I I #
coedge $-1 $456 $458 $328 $468 reversed $321 $-1 #
edge $-1 $471 -26.121106493020449 $474 26.121106493020449 $467 $620 forward 7 unknown #
coedge $-1 $462 $329 $334 $477 forward $454 $-1 #
coedge $-1 $329 $462 $456 $611 reversed $454 $-1 #
vertex $-1 $330 $621 #
straight-curve $-1 0 26.121106493020449 6.6811424151739365 -1 0 0 I I #
coedge $-1 $331 $457 $333 $476 reversed $203 $-1 #
vertex $-1 $468 $622 #
straight-curve $-1 0 -26.121106493020449 6.6811424151739365 1 0 0 I I #
edge $-1 $336 -6.6811424151739365 $465 6.6811424151739365 $333 $623 forward 7 unknown #
edge $-1 $337 -6.6811424151739365 $464 6.6811424151739365 $334 $624 forward 7 unknown #
point $-1 54.246040223395489 -26.121106493020449 6.6811424151739365 #
point $-1 54.246040223395489 26.121106493020449 6.6811424151739365 #
face $-1 $-1 $625 $49 $-1 $626 reversed single #
loop $-1 $-1 $349 $339 #
plane-surface $-1 0 -26.121106493020449 0 0 1 0 0 0 1 forward_v I I I I #
coedge $-1 $627 $342 $487 $628 forward $211 $-1 #
coedge $-1 $342 $627 $629 $630 forward $211 $-1 #
edge $-1 $631 -54.246040223395489 $488 54.246040223395489 $342 $632 forward 7 unknown #
coedge $-1 $344 $343 $633 $634 reversed $133 $-1 #
coedge $-1 $345 $351 $483 $628 reversed $340 $-1 #
vertex $-1 $628 $635 #
straight-curve $-1 54.246040223395489 -18.307797221726183 -2.5464374931334421 0 0 1 I I #
coedge $-1 $633 $636 $347 $491 forward $625 $-1 #
edge $-1 $496 -15.013880564333791 $492 -7.2005712930395251 $490 $637 forward 7 unknown #
vertex $-1 $491 $638 #
straight-curve $-1 0 -18.307797221726183 -3.5046075573598321 -1 0 0 I I #
coedge $-1 $639 $349 $636 $640 forward $481 $-1 #
coedge $-1 $349 $639 $351 $498 reversed $481 $-1 #
vertex $-1 $640 $641 #
straight-curve $-1 0 -26.121106493020449 -3.5046075573598321 -1 0 0 I I #
edge $-1 $353 3.5046075573598321 $642 6.6811424151739365 $351 $643 forward 7 unknown #
point $-1 54.246040223395489 -18.307797221726183 -3.5046075573598321 #
point $-1 54.246040223395489 -26.121106493020449 -3.5046075573598321 #
loop $-1 $-1 $363 $355 #
plane-surface $-1 -54.246040223395489 0 0 1 0 0 0 0 -1 forward_v I I I I #
coedge $-1 $504 $358 $360 $508 reversed $219 $-1 #
coedge $-1 $358 $503 $644 $645 reversed $219 $-1 #
coedge $-1 $366 $361 $358 $506 forward $356 $-1 #
edge $-1 $509 -14.210831844062554 $646 -10.559446236425408 $505 $647 forward 7 unknown #
coedge $-1 $360 $359 $512 $648 reversed $137 $-1 #
edge $-1 $649 2.9524203284164893e-014 $509 5.0760233841097051 $503 $650 forward 7 unknown #
vertex $-1 $362 $651 #
straight-curve $-1 -50.594654615758344 -0.20212364920453041 6.6811424151739374 0 1 0 I I #
coedge $-1 $644 $363 $366 $516 reversed $501 $-1 #
coedge $-1 $363 $644 $507 $648 forward $501 $-1 #
vertex $-1 $364 $652 #
straight-curve $-1 -54.246040223395489 -4.7151492324652491 40.598855436629115 0 0 1 I I #
straight-curve $-1 -54.246040223395511 -4.7151492324652491 3.1550402413325855 -0.71933979245794832 0 -0.69465837861970381 I I #
edge $-1 $646 -3.9066546356471274 $367 4.7151492324652491 $511 $653 forward 7 unknown #
point $-1 -54.246040223395489 -4.7151492324652491 6.6811424151739365 #
point $-1 -50.594654615758344 -4.7151492324652491 6.6811424151739365 #
edge $-1 $654 1 $654 0 $370 $-1 forward 7 unknown #
vertex $-1 $371 $655 #
ellipse-curve $-1 -51.571215690457841 -2.990788458842772 4.0387897023120871 -0.69465837861970381 0 0.71933979245794832 0.35966989622897416 0 0.3473291893098519 1 I I #
point $-1 -52.060677523347934 -2.990788458842772 5.265420517563113 #
edge $-1 $656 1 $656 0 $374 $-1 forward 7 unknown #
vertex $-1 $375 $657 #
ellipse-curve $-1 -51.571215690457841 -0.40424729840905727 4.0387897023120871 -0.69465837861970381 0 0.71933979245794832 0.35966989622897416 0 0.3473291893098519 1 I I #
point $-1 -52.060677523347934 -0.40424729840905727 5.265420517563113 #
edge $-1 $658 1 $658 0 $378 $-1 forward 7 unknown #
vertex $-1 $379 $659 #
ellipse-curve $-1 -51.571215690457841 2.1822938620246575 4.0387897023120871 -0.69465837861970381 0 0.71933979245794832 0.35966989622897416 0 0.3473291893098519 1 I I #
point $-1 -52.060677523347934 2.1822938620246575 5.265420517563113 #
loop $-1 $-1 $389 $382 #
plane-surface $-1 -54.246040223395489 0 0 1 0 0 0 0 -1 forward_v I I I I #
coedge $-1 $660 $661 $386 $535 forward $383 $-1 #
coedge $-1 $386 $385 $540 $662 reversed $156 $-1 #
edge $-1 $537 13.338806704609709 $663 18.414830088719384 $533 $664 forward 7 unknown #
coedge $-1 $392 $387 $661 $665 forward $248 $-1 #
vertex $-1 $665 $666 #
straight-curve $-1 -50.594654615758344 10.905102279482129 6.6811424151739374 0 1 0 I I #
coedge $-1 $667 $389 $392 $544 reversed $531 $-1 #
coedge $-1 $389 $667 $534 $662 forward $531 $-1 #
vertex $-1 $390 $668 #
straight-curve $-1 -54.246040223395489 17.499302624908069 40.598855436629115 0 0 1 I I #
straight-curve $-1 -54.246040223395511 17.499302624908069 3.1550402413325855 -0.71933979245794832 0 -0.69465837861970381 I I #
edge $-1 $669 -26.121106493020449 $393 -17.499302624908069 $539 $670 forward 7 unknown #
point $-1 -54.246040223395489 17.499302624908069 6.6811424151739365 #
point $-1 -50.594654615758344 17.499302624908069 6.6811424151739365 #
edge $-1 $671 1 $671 0 $396 $-1 forward 7 unknown #
vertex $-1 $397 $672 #
ellipse-curve $-1 -51.571215690457841 19.223663398530547 4.0387897023120871 -0.69465837861970381 0 0.71933979245794832 0.35966989622897416 0 0.3473291893098519 1 I I #
point $-1 -52.060677523347934 19.223663398530547 5.265420517563113 #
edge $-1 $673 1 $673 0 $400 $-1 forward 7 unknown #
vertex $-1 $401 $674 #
ellipse-curve $-1 -51.571215690457841 21.810204558964259 4.0387897023120871 -0.69465837861970381 0 0.71933979245794832 0.35966989622897416 0 0.3473291893098519 1 I I #
point $-1 -52.060677523347934 21.810204558964259 5.265420517563113 #
edge $-1 $675 1 $675 0 $404 $-1 forward 7 unknown #
vertex $-1 $405 $676 #
ellipse-curve $-1 -51.571215690457841 24.39674571939797 4.0387897023120871 -0.69465837861970381 0 0.71933979245794832 0.35966989622897416 0 0.3473291893098519 1 I I #
point $-1 -52.060677523347934 24.39674571939797 5.265420517563113 #
loop $-1 $-1 $416 $408 #
plane-surface $-1 54.246040223395489 0 0 -1 0 0 0 0 1 forward_v I I I I #
coedge $-1 $562 $411 $413 $566 reversed $277 $-1 #
coedge $-1 $411 $561 $677 $678 reversed $277 $-1 #
coedge $-1 $419 $414 $411 $564 forward $409 $-1 #
edge $-1 $567 34.773789508834398 $679 45.682175260650041 $563 $680 forward 7 unknown #
coedge $-1 $413 $412 $570 $681 reversed $175 $-1 #
edge $-1 $682 -108.49208044679096 $567 -95.765993257896696 $561 $683 forward 7 unknown #
vertex $-1 $415 $684 #
straight-curve $-1 43.337654471579846 -7.5147502009435074 6.6811424151739374 0 -1 0 I I #
coedge $-1 $677 $416 $419 $574 reversed $559 $-1 #
coedge $-1 $416 $677 $565 $681 forward $559 $-1 #
vertex $-1 $417 $685 #
straight-curve $-1 54.246040223395489 -11.751203582047847 74.500069589097507 0 0 1 I I #
straight-curve $-1 -38.749823074114801 -11.751203582047847 56.00427588068473 0.85716729658548041 0 -0.51503808176128008 I I #
edge $-1 $679 -18.307797221726183 $420 -11.751203582047847 $569 $686 forward 7 unknown #
point $-1 54.246040223395489 -11.751203582047847 6.6811424151739365 #
point $-1 43.337654471579853 -11.751203582047847 6.6811424151739374 #
edge $-1 $687 1 $687 0 $423 $-1 forward 7 unknown #
vertex $-1 $424 $688 #
ellipse-curve $-1 47.810151786878436 -16.434484753246657 1.7701168982701381 0.51503808176128008 0 0.85716729658548041 0.4285836482927402 0 -0.25751904088064004 1 I I #
point $-1 49.220430995780404 -16.434484753246657 3.1464136072458406 #
edge $-1 $689 1 $689 0 $427 $-1 forward 7 unknown #
vertex $-1 $428 $690 #
ellipse-curve $-1 47.810151786878436 -13.624516050527372 1.7701168982701381 0.51503808176128008 0 0.85716729658548041 0.4285836482927402 0 -0.25751904088064004 1 I I #
point $-1 49.220430995780404 -13.624516050527372 3.1464136072458406 #
loop $-1 $-1 $588 $431 #
plane-surface $-1 0 26.121106493020449 0 0 -1 0 0 0 -1 forward_v I I I I #
coedge $-1 $435 $434 $594 $691 reversed $189 $-1 #
coedge $-1 $692 $693 $435 $589 forward $585 $-1 #
edge $-1 $591 -77.462372492979966 $694 -64.736285304085669 $588 $695 forward 7 unknown #
coedge $-1 $441 $436 $693 $696 reversed $299 $-1 #
vertex $-1 $437 $697 #
straight-curve $-1 54.246040223395489 11.421404836590643 0.12672288107901863 0 1 0 I I #
coedge $-1 $698 $438 $441 $598 forward $432 $-1 #
coedge $-1 $438 $698 $587 $691 forward $432 $-1 #
vertex $-1 $439 $699 #
straight-curve $-1 8.5638649627454519 19.564512853342116 6.6811424151739374 1 0 0 I I #
straight-curve $-1 -38.749823074114801 19.564512853342116 56.00427588068473 -0.85716729658548041 0 0.51503808176128008 I I #
edge $-1 $442 19.564512853342116 $700 26.121106493020449 $441 $701 forward 7 unknown #
point $-1 54.246040223395489 19.564512853342116 6.6811424151739365 #
point $-1 54.246040223395482 19.564512853342116 0.12672288107902574 #
edge $-1 $702 1 $702 0 $445 $-1 forward 7 unknown #
vertex $-1 $446 $703 #
ellipse-curve $-1 47.810151786878436 21.437825321821641 1.7701168982701381 0.51503808176128008 0 0.85716729658548041 0.4285836482927402 0 -0.25751904088064004 1 I I #
point $-1 49.220430995780404 21.437825321821641 3.1464136072458406 #
edge $-1 $704 1 $704 0 $449 $-1 forward 7 unknown #
vertex $-1 $450 $705 #
ellipse-curve $-1 47.810151786878436 24.247794024540923 1.7701168982701381 0.51503808176128008 0 0.85716729658548041 0.4285836482927402 0 -0.25751904088064004 1 I I #
point $-1 49.220430995780404 24.247794024540923 3.1464136072458406 #
plane-surface $-1 54.246040223395489 0 0 -1 0 0 0 0 1 forward_v I I I I #
coedge $-1 $458 $456 $460 $614 reversed $321 $-1 #
edge $-1 $471 -6.6811424151739365 $616 6.6811424151739365 $470 $706 forward 7 unknown #
vertex $-1 $614 $707 #
straight-curve $-1 -54.246040223395489 -26.121106493020449 0 0 0 -1 I I #
edge $-1 $612 -26.121106493020449 $616 26.121106493020449 $610 $708 forward 7 unknown #
straight-curve $-1 0 -26.121106493020449 -6.6811424151739365 -1 0 0 I I #
vertex $-1 $463 $709 #
straight-curve $-1 0 26.121106493020449 -6.6811424151739365 1 0 0 I I #
point $-1 54.246040223395489 26.121106493020449 -6.6811424151739365 #
point $-1 54.246040223395489 -26.121106493020449 -6.6811424151739365 #
straight-curve $-1 -54.246040223395489 0 6.6811424151739365 0 -1 0 I I #
point $-1 -54.246040223395489 26.121106493020449 6.6811424151739365 #
point $-1 -54.246040223395489 -26.121106493020449 6.6811424151739365 #
straight-curve $-1 54.246040223395489 -26.121106493020449 0 0 0 -1 I I #
straight-curve $-1 54.246040223395489 26.121106493020449 0 0 0 -1 I I #
loop $-1 $-1 $633 $480 #
plane-surface $-1 -54.246040223395489 0 0 1 0 0 0 0 -1 forward_v I I I I #
coedge $-1 $484 $483 $639 $710 forward $211 $-1 #
edge $-1 $488 18.307797221726183 $642 26.121106493020449 $487 $711 forward 7 unknown #
coedge $-1 $636 $633 $484 $630 reversed $625 $-1 #
edge $-1 $712 -26.121106493020449 $631 -18.307797221726183 $629 $713 forward 7 unknown #
vertex $-1 $634 $714 #
straight-curve $-1 0 -18.307797221726183 -6.6811424151739365 1 0 0 I I #
coedge $-1 $629 $490 $486 $634 forward $625 $-1 #
edge $-1 $492 0.95817006422638995 $631 4.1347049220404948 $633 $715 forward 7 unknown #
point $-1 54.246040223395489 -18.307797221726183 -6.6811424151739365 #
coedge $-1 $490 $629 $494 $640 reversed $625 $-1 #
straight-curve $-1 -54.246040223395489 -11.107225928686658 -3.5046075573598321 0 1 0 I I #
point $-1 -54.246040223395489 -18.307797221726183 -3.5046075573598321 #
coedge $-1 $495 $494 $627 $710 reversed $481 $-1 #
edge $-1 $496 3.5046075573598321 $712 6.6811424151739365 $636 $716 forward 7 unknown #
point $-1 -54.246040223395489 -26.121106493020449 -3.5046075573598321 #
vertex $-1 $498 $717 #
straight-curve $-1 54.246040223395489 -26.121106493020449 0 0 0 -1 I I #
coedge $-1 $512 $511 $504 $645 forward $501 $-1 #
edge $-1 $646 33.917713021455178 $649 37.443815195296509 $644 $718 forward 7 unknown #
vertex $-1 $516 $719 #
straight-curve $-1 -64.805486459820898 3.9066546356471274 6.6811424151739374 -1 0 0 I I #
edge $-1 $649 -4.1087782848516579 $513 4.5130255832607187 $512 $720 forward 7 unknown #
vertex $-1 $648 $721 #
straight-curve $-1 -54.246040223395511 3.9066546356471274 3.1550402413325855 0.71933979245794832 0 0.69465837861970381 I I #
point $-1 -50.594654615758344 3.9066546356471274 6.6811424151739365 #
point $-1 -54.246040223395489 -4.7151492324652491 3.155040241332606 #
straight-curve $-1 -54.246040223395489 0 6.6811424151739365 0 -1 0 I I #
vertex $-1 $519 $722 #
point $-1 -51.211545794228869 -2.990788458842772 4.3861188916219387 #
vertex $-1 $523 $723 #
point $-1 -51.211545794228869 -0.40424729840905727 4.3861188916219387 #
vertex $-1 $527 $724 #
point $-1 -51.211545794228869 2.1822938620246575 4.3861188916219387 #
coedge $-1 $661 $533 $667 $725 reversed $383 $-1 #
coedge $-1 $533 $660 $536 $665 reversed $383 $-1 #
edge $-1 $663 -15.216004213538319 $541 -6.5942003454259392 $540 $726 forward 7 unknown #
vertex $-1 $535 $727 #
straight-curve $-1 -40.999520169227708 26.121106493020449 15.947056253319753 -0.71933979245794832 0 -0.69465837861970381 I I #
edge $-1 $537 50.594654615758344 $669 54.246040223395489 $661 $728 forward 7 unknown #
point $-1 -50.594654615758344 26.121106493020449 6.6811424151739365 #
coedge $-1 $540 $539 $660 $725 forward $531 $-1 #
point $-1 -54.246040223395489 17.499302624908069 3.155040241332606 #
vertex $-1 $665 $729 #
straight-curve $-1 -54.246040223395489 0 6.6811424151739365 0 -1 0 I I #
vertex $-1 $547 $730 #
point $-1 -51.211545794228869 19.223663398530547 4.3861188916219387 #
vertex $-1 $551 $731 #
point $-1 -51.211545794228869 21.810204558964259 4.3861188916219387 #
vertex $-1 $555 $732 #
point $-1 -51.211545794228869 24.39674571939797 4.3861188916219387 #
coedge $-1 $570 $569 $562 $678 forward $559 $-1 #
edge $-1 $679 67.818927173923569 $682 74.373346708018488 $677 $733 forward 7 unknown #
vertex $-1 $574 $734 #
straight-curve $-1 8.5638649627454519 -18.307797221726183 6.6811424151739374 1 0 0 I I #
edge $-1 $682 -10.793047020782677 $571 -4.2364533811043392 $570 $735 forward 7 unknown #
vertex $-1 $681 $736 #
straight-curve $-1 -38.749823074114801 -18.307797221726183 56.00427588068473 -0.85716729658548041 0 0.51503808176128008 I I #
point $-1 43.337654471579853 -18.307797221726183 6.6811424151739374 #
point $-1 54.246040223395482 -11.751203582047847 0.12672288107902574 #
straight-curve $-1 54.246040223395489 0 6.6811424151739365 0 1 0 I I #
vertex $-1 $577 $737 #
point $-1 48.238735435171179 -16.434484753246657 1.512597857389498 #
vertex $-1 $581 $738 #
point $-1 48.238735435171179 -13.624516050527372 1.512597857389498 #
edge $-1 $694 -14.699701656429813 $595 -8.1431080167514729 $594 $739 forward 7 unknown #
coedge $-1 $693 $588 $698 $740 reversed $585 $-1 #
coedge $-1 $588 $692 $590 $696 forward $585 $-1 #
vertex $-1 $589 $741 #
straight-curve $-1 -12.152172193509628 26.121106493020449 40.022794618541162 -0.85716729658548041 0 0.51503808176128008 I I #
edge $-1 $700 -6.6811424151739365 $591 -0.12672288107901927 $590 $742 forward 7 unknown #
point $-1 54.246040223395489 26.121106493020449 0.12672288107901927 #
coedge $-1 $594 $593 $692 $740 forward $432 $-1 #
point $-1 43.337654471579853 19.564512853342116 6.6811424151739374 #
vertex $-1 $598 $743 #
straight-curve $-1 54.246040223395489 0 6.6811424151739365 0 1 0 I I #
vertex $-1 $601 $744 #
point $-1 48.238735435171179 21.437825321821641 1.512597857389498 #
vertex $-1 $605 $745 #
point $-1 48.238735435171179 24.247794024540923 1.512597857389498 #
straight-curve $-1 -54.246040223395489 26.121106493020449 0 0 0 -1 I I #
point $-1 -54.246040223395489 -26.121106493020449 -6.6811424151739365 #
straight-curve $-1 -54.246040223395489 0 -6.6811424151739365 0 1 0 I I #
point $-1 -54.246040223395489 26.121106493020449 -6.6811424151739365 #
edge $-1 $642 -54.246040223395489 $712 54.246040223395489 $639 $746 forward 7 unknown #
straight-curve $-1 54.246040223395489 0 -6.6811424151739365 0 -1 0 I I #
vertex $-1 $630 $747 #
straight-curve $-1 -54.246040223395489 0 -6.6811424151739365 0 1 0 I I #
point $-1 -54.246040223395489 -18.307797221726183 -6.6811424151739365 #
straight-curve $-1 -54.246040223395489 -18.307797221726183 -2.5464374931334421 0 0 -1 I I #
straight-curve $-1 -54.246040223395489 -26.121106493020449 0 0 0 -1 I I #
point $-1 54.246040223395489 -26.121106493020449 -6.6811424151739365 #
straight-curve $-1 -54.246040223395489 3.9066546356471274 40.598855436629115 0 0 -1 I I #
point $-1 -54.246040223395489 3.9066546356471274 6.6811424151739365 #
straight-curve $-1 -54.246040223395489 -0.20212364920453041 3.1550402413326011 0 -1 0 I I #
point $-1 -54.246040223395489 3.9066546356471274 3.155040241332606 #
point $-1 -51.223886501147994 -2.990788458842772 3.6791198060831132 #
point $-1 -51.223886501147994 -0.40424729840905727 3.6791198060831132 #
point $-1 -51.223886501147994 2.1822938620246575 3.6791198060831132 #
edge $-1 $669 -6.6811424151739365 $663 -3.155040241332606 $660 $748 forward 7 unknown #
straight-curve $-1 -54.246040223395489 10.905102279482129 3.1550402413326011 0 -1 0 I I #
point $-1 -54.246040223395489 26.121106493020449 3.155040241332606 #
straight-curve $-1 0 26.121106493020449 6.6811424151739365 -1 0 0 I I #
point $-1 -54.246040223395489 26.121106493020449 6.6811424151739365 #
point $-1 -51.223886501147994 19.223663398530547 3.6791198060831132 #
point $-1 -51.223886501147994 21.810204558964259 3.6791198060831132 #
point $-1 -51.223886501147994 24.39674571939797 3.6791198060831132 #
straight-curve $-1 54.246040223395489 -18.307797221726183 74.500069589097507 0 0 -1 I I #
point $-1 54.246040223395489 -18.307797221726183 6.6811424151739365 #
straight-curve $-1 54.246040223395489 -7.5147502009435074 0.12672288107901863 0 1 0 I I #
point $-1 54.246040223395482 -18.307797221726183 0.12672288107902574 #
point $-1 47.552632745997798 -16.434484753246657 1.341533249977398 #
point $-1 47.552632745997798 -13.624516050527372 1.341533249977398 #
straight-curve $-1 43.337654471579846 11.421404836590643 6.6811424151739374 0 -1 0 I I #
edge $-1 $700 -54.246040223395489 $694 -43.337654471579853 $692 $749 forward 7 unknown #
point $-1 43.337654471579853 26.121106493020456 6.6811424151739374 #
straight-curve $-1 54.246040223395489 26.121106493020449 0 0 0 -1 I I #
point $-1 54.246040223395489 26.121106493020449 6.6811424151739365 #
point $-1 47.552632745997798 21.437825321821641 1.341533249977398 #
point $-1 47.552632745997798 24.247794024540923 1.341533249977398 #
straight-curve $-1 0 -26.121106493020449 -6.6811424151739365 -1 0 0 I I #
point $-1 -54.246040223395489 -26.121106493020449 -6.6811424151739365 #
straight-curve $-1 -54.246040223395489 26.121106493020449 0 0 0 -1 I I #
straight-curve $-1 0 26.121106493020449 6.6811424151739365 -1 0 0 I I #
End-of-ACIS-data 