500 0 11 0           
7 Unknown 11 ACIS 5.0 NT 24 Thu Mar 25 17:58:58 1999 
-1 9.9999999999999995e-007 1e-010 
body $-1 $11 $-1 $12 #
body $-1 $13 $-1 $14 #
body $-1 $15 $-1 $16 #
body $-1 $17 $-1 $18 #
body $-1 $19 $-1 $20 #
body $-1 $21 $-1 $22 #
body $-1 $23 $-1 $24 #
body $-1 $25 $-1 $26 #
body $-1 $27 $-1 $28 #
body $-1 $29 $-1 $30 #
body $-1 $31 $-1 $32 #
lump $-1 $-1 $33 $0 #
transform $-1 1 0 0 0 1 0 0 0 1 72.018799401837214 39.895518027966801 15.397281122271524 1 rotate no_reflect no_shear #
lump $-1 $-1 $34 $1 #
transform $-1 1 0 0 0 1 0 0 0 1 72.018799401837214 39.895518027966801 15.397281122271524 1 rotate no_reflect no_shear #
lump $-1 $-1 $35 $2 #
transform $-1 1 0 0 0 1 0 0 0 1 72.018799401837214 39.895518027966801 15.397281122271524 1 rotate no_reflect no_shear #
lump $-1 $-1 $36 $3 #
transform $-1 1 0 0 0 1 0 0 0 1 72.018799401837214 39.895518027966801 15.397281122271524 1 rotate no_reflect no_shear #
lump $-1 $-1 $37 $4 #
transform $-1 1 0 0 0 1 0 0 0 1 72.018799401837214 39.895518027966801 15.397281122271524 1 rotate no_reflect no_shear #
lump $-1 $-1 $38 $5 #
transform $-1 1 0 0 0 1 0 0 0 1 72.018799401837214 39.895518027966801 15.397281122271524 1 rotate no_reflect no_shear #
lump $-1 $-1 $39 $6 #
transform $-1 1 0 0 0 1 0 0 0 1 72.018799401837214 39.895518027966801 15.397281122271524 1 rotate no_reflect no_shear #
lump $-1 $-1 $40 $7 #
transform $-1 1 0 0 0 1 0 0 0 1 72.018799401837214 39.895518027966801 15.397281122271524 1 rotate no_reflect no_shear #
lump $-1 $-1 $41 $8 #
transform $-1 1 0 0 0 1 0 0 0 1 72.018799401837214 39.895518027966801 15.397281122271524 1 rotate no_reflect no_shear #
lump $-1 $-1 $42 $9 #
transform $-1 1 0 0 0 1 0 0 0 1 72.018799401837214 39.895518027966801 15.397281122271524 1 rotate no_reflect no_shear #
lump $-1 $-1 $43 $10 #
transform $-1 1 0 0 0 1 0 0 0 1 72.018799401837214 39.895518027966801 15.397281122271524 1 rotate no_reflect no_shear #
shell $-1 $-1 $-1 $44 $-1 $11 #
shell $-1 $-1 $-1 $45 $-1 $13 #
shell $-1 $-1 $-1 $46 $-1 $15 #
shell $-1 $-1 $-1 $47 $-1 $17 #
shell $-1 $-1 $-1 $48 $-1 $19 #
shell $-1 $-1 $-1 $49 $-1 $21 #
shell $-1 $-1 $-1 $50 $-1 $23 #
shell $-1 $-1 $-1 $51 $-1 $25 #
shell $-1 $-1 $-1 $52 $-1 $27 #
shell $-1 $-1 $-1 $53 $-1 $29 #
shell $-1 $-1 $-1 $54 $-1 $31 #
face $-1 $55 $56 $33 $-1 $57 forward single #
face $-1 $58 $59 $34 $-1 $60 reversed single #
face $-1 $61 $62 $35 $-1 $63 reversed single #
face $-1 $64 $65 $36 $-1 $66 forward single #
face $-1 $67 $68 $37 $-1 $69 forward single #
face $-1 $70 $71 $38 $-1 $72 reversed single #
face $-1 $73 $74 $39 $-1 $75 forward single #
face $-1 $76 $77 $40 $-1 $78 forward single #
face $-1 $79 $80 $41 $-1 $81 reversed single #
face $-1 $82 $83 $42 $-1 $84 forward single #
face $-1 $85 $86 $43 $-1 $87 forward single #
face $-1 $88 $89 $33 $-1 $90 reversed single #
loop $-1 $-1 $91 $44 #
plane-surface $-1 0 0 15.397281122271524 0 0 1 1 0 0 forward_v I I I I #
face $-1 $92 $93 $34 $-1 $94 reversed single #
loop $-1 $-1 $95 $45 #
plane-surface $-1 -66.011632428340306 -16.460162790203661 0 0 1 0 0 0 1 forward_v I I I I #
face $-1 $96 $97 $35 $-1 $98 reversed single #
loop $-1 $-1 $99 $46 #
plane-surface $-1 -42.119399193741721 85.324700051165877 169.77853340928658 1 0 0 0 -0.70710678939079041 -0.70710677298230451 forward_v I I I I #
face $-1 $100 $101 $36 $-1 $102 forward single #
loop $-1 $103 $104 $47 #
cone-surface $-1 -35.787181930984701 37.493505582692109 12.995268642479697 0 -0.70710678939079041 -0.70710677298230451 1 0 0 1 I I 0 1 1 forward I I I I #
face $-1 $105 $106 $37 $-1 $107 forward single #
loop $-1 $108 $109 $48 #
cone-surface $-1 -26.288856036849168 37.493505582692109 12.995268642479697 0 -0.70710678939079041 -0.70710677298230451 1 0 0 1 I I 0 1 1 forward I I I I #
face $-1 $110 $111 $38 $-1 $112 reversed single #
loop $-1 $-1 $113 $49 #
plane-surface $-1 31.970972721085971 85.324700051165877 169.77853340928658 1 0 0 0 -0.70710678939079041 -0.70710677298230451 forward_v I I I I #
face $-1 $114 $115 $39 $-1 $116 forward single #
loop $-1 $117 $118 $50 #
cone-surface $-1 38.303189983842998 37.493505582692109 12.995268642479697 0 -0.70710678939079041 -0.70710677298230451 1 0 0 1 I I 0 1 1 forward I I I I #
face $-1 $119 $120 $40 $-1 $121 forward single #
loop $-1 $122 $123 $51 #
cone-surface $-1 47.801515877978531 37.493505582692109 12.995268642479697 0 -0.70710678939079041 -0.70710677298230451 1 0 0 1 I I 0 1 1 forward I I I I #
face $-1 $124 $125 $41 $-1 $126 reversed single #
loop $-1 $-1 $127 $52 #
plane-surface $-1 7.2351923614553755 -136.27548501309334 110.78793932752765 -1 0 0 0 -0.66913061440640931 0.74314481823134659 forward_v I I I I #
face $-1 $128 $129 $42 $-1 $130 forward single #
loop $-1 $131 $132 $53 #
cone-surface $-1 -10.379402299447229 -32.850429277930175 8.9328386559970383 0 0.66913061440640931 -0.74314481823134659 1 0 0 1 I I 0 1 1 forward I I I I #
face $-1 $133 $134 $43 $-1 $135 forward single #
loop $-1 $136 $137 $54 #
cone-surface $-1 0.18935449709432817 -32.850429277930175 8.9328386559970383 0 0.66913061440640931 -0.74314481823134659 1 0 0 1 I I 0 1 1 forward I I I I #
face $-1 $138 $139 $33 $-1 $140 reversed single #
loop $-1 $-1 $141 $55 #
plane-surface $-1 0 0 -15.397281122271524 0 0 1 1 0 0 forward_v I I I I #
coedge $-1 $142 $143 $144 $145 forward $56 $-1 #
face $-1 $146 $147 $34 $-1 $148 reversed single #
loop $-1 $-1 $149 $58 #
plane-surface $-1 -66.011632428340306 -11.774205369398706 0 0 -1 0 0 0 -1 forward_v I I I I #
coedge $-1 $150 $151 $152 $153 reversed $59 $-1 #
face $-1 $154 $155 $35 $-1 $156 reversed single #
loop $-1 $-1 $157 $61 #
plane-surface $-1 -31.038018983916935 -16.525263990459095 67.928571731100519 0 0.70710678939079041 0.70710677298230451 1 0 0 forward_v I I I I #
coedge $-1 $158 $159 $160 $161 reversed $62 $-1 #
face $-1 $-1 $162 $36 $-1 $163 forward single #
loop $-1 $164 $165 $64 #
cone-surface $-1 -35.787181930984701 36.682686057017492 12.184449135620232 0 -0.70710678939079041 -0.70710677298230451 0.5 0 0 1 I I -0.70710678118654746 0.70710678118654746 0.5 forward I I I I #
loop $-1 $-1 $166 $47 #
coedge $-1 $104 $104 $167 $168 reversed $65 $-1 #
face $-1 $-1 $169 $37 $-1 $170 forward single #
loop $-1 $171 $172 $67 #
cone-surface $-1 -26.288856036849168 36.682686057017492 12.184449135620232 0 -0.70710678939079041 -0.70710677298230451 0.5 0 0 1 I I -0.70710678118654746 0.70710678118654746 0.5 forward I I I I #
loop $-1 $-1 $173 $48 #
coedge $-1 $109 $109 $174 $175 reversed $68 $-1 #
face $-1 $176 $177 $38 $-1 $178 reversed single #
loop $-1 $-1 $179 $70 #
plane-surface $-1 43.052352930910757 -16.525263990459095 67.928571731100519 0 0.70710678939079041 0.70710677298230451 1 0 0 forward_v I I I I #
coedge $-1 $180 $181 $182 $183 reversed $71 $-1 #
face $-1 $-1 $184 $39 $-1 $185 forward single #
loop $-1 $186 $187 $73 #
cone-surface $-1 38.303189983842998 36.682686057017492 12.184449135620232 0 -0.70710678939079041 -0.70710677298230451 0.5 0 0 1 I I -0.70710678118654746 0.70710678118654746 0.5 forward I I I I #
loop $-1 $-1 $188 $50 #
coedge $-1 $118 $118 $189 $190 reversed $74 $-1 #
face $-1 $-1 $191 $40 $-1 $192 forward single #
loop $-1 $193 $194 $76 #
cone-surface $-1 47.801515877978531 36.682686057017492 12.184449135620232 0 -0.70710678939079041 -0.70710677298230451 0.5 0 0 1 I I -0.70710678118654746 0.70710678118654746 0.5 forward I I I I #
loop $-1 $-1 $195 $51 #
coedge $-1 $123 $123 $196 $197 reversed $77 $-1 #
face $-1 $198 $199 $41 $-1 $200 reversed single #
loop $-1 $-1 $201 $79 #
plane-surface $-1 -5.0950239011764467 -39.895518027966787 3.7471441460914008 0 -0.66913061440640931 0.74314481823134659 1 0 0 forward_v I I I I #
coedge $-1 $202 $203 $204 $205 reversed $80 $-1 #
face $-1 $-1 $206 $42 $-1 $207 forward single #
loop $-1 $208 $209 $82 #
cone-surface $-1 -10.379402299447229 -31.940169042413778 7.9218922686969417 0 0.66913061440640931 -0.74314481823134659 0.5 0 0 1 I I -0.70710678118654746 0.70710678118654746 0.5 forward I I I I #
loop $-1 $-1 $210 $53 #
coedge $-1 $132 $132 $211 $212 reversed $83 $-1 #
face $-1 $-1 $213 $43 $-1 $214 forward single #
loop $-1 $215 $216 $85 #
cone-surface $-1 0.18935449709432817 -31.940169042413778 7.9218922686969417 0 0.66913061440640931 -0.74314481823134659 0.5 0 0 1 I I -0.70710678118654746 0.70710678118654746 0.5 forward I I I I #
loop $-1 $-1 $217 $54 #
coedge $-1 $137 $137 $218 $219 reversed $86 $-1 #
face $-1 $220 $221 $33 $-1 $222 reversed single #
loop $-1 $-1 $223 $88 #
plane-surface $-1 0 -39.895518027966801 0 0 1 0 0 0 1 forward_v I I I I #
coedge $-1 $224 $225 $226 $227 forward $89 $-1 #
coedge $-1 $228 $91 $229 $230 forward $56 $-1 #
coedge $-1 $91 $228 $231 $232 forward $56 $-1 #
coedge $-1 $233 $234 $91 $145 reversed $235 $-1 #
edge $-1 $236 -39.895518027966801 $237 39.895518027966801 $144 $238 forward 7 unknown #
face $-1 $239 $240 $34 $-1 $241 reversed single #
loop $-1 $-1 $242 $92 #
plane-surface $-1 -60.004465454843398 -14.117184079801184 0 -1 0 0 0 0 1 forward_v I I I I #
coedge $-1 $243 $244 $245 $246 forward $93 $-1 #
coedge $-1 $247 $95 $248 $249 reversed $59 $-1 #
coedge $-1 $95 $247 $250 $251 reversed $59 $-1 #
coedge $-1 $252 $253 $95 $153 forward $254 $-1 #
edge $-1 $255 -15.397281122271524 $256 15.397281122271524 $152 $257 forward 7 unknown #
face $-1 $258 $259 $35 $-1 $260 reversed single #
loop $-1 $-1 $261 $96 #
plane-surface $-1 -19.956638774092148 85.324700051165877 169.77853340928658 -1 0 0 0 0.70710678939079041 0.70710677298230451 forward_v I I I I #
coedge $-1 $262 $263 $264 $265 reversed $97 $-1 #
coedge $-1 $159 $99 $266 $267 reversed $62 $-1 #
coedge $-1 $99 $158 $262 $268 reversed $62 $-1 #
coedge $-1 $264 $269 $99 $161 forward $270 $-1 #
edge $-1 $271 2.7668319976161371 $272 6.6563246262070521 $160 $273 forward 7 unknown #
loop $-1 $-1 $167 $100 #
plane-surface $-1 -31.038018983916935 -16.525263990459095 67.928571731100519 0 0.70710678939079041 0.70710677298230451 1 0 0 forward_v I I I I #
loop $-1 $-1 $274 $64 #
coedge $-1 $165 $165 $166 $275 reversed $101 $-1 #
coedge $-1 $166 $166 $165 $275 forward $103 $-1 #
coedge $-1 $167 $167 $104 $168 forward $162 $-1 #
edge $-1 $276 2.5121481962199749e-015 $276 6.2831853071796031 $167 $277 forward 7 unknown #
loop $-1 $-1 $174 $105 #
plane-surface $-1 -31.038018983916935 -16.525263990459095 67.928571731100519 0 0.70710678939079041 0.70710677298230451 1 0 0 forward_v I I I I #
loop $-1 $-1 $278 $67 #
coedge $-1 $172 $172 $173 $279 reversed $106 $-1 #
coedge $-1 $173 $173 $172 $279 forward $108 $-1 #
coedge $-1 $174 $174 $109 $175 forward $169 $-1 #
edge $-1 $280 2.5121481962199749e-015 $280 6.2831853071796031 $174 $281 forward 7 unknown #
face $-1 $282 $283 $38 $-1 $284 forward single #
loop $-1 $-1 $285 $110 #
plane-surface $-1 54.133733140735544 85.324700051165877 169.77853340928658 -1 0 0 0 0.70710678939079041 0.70710677298230451 forward_v I I I I #
coedge $-1 $286 $287 $288 $289 reversed $111 $-1 #
coedge $-1 $181 $113 $290 $291 reversed $71 $-1 #
coedge $-1 $113 $180 $286 $292 reversed $71 $-1 #
coedge $-1 $288 $293 $113 $183 forward $283 $-1 #
edge $-1 $294 2.7668319976161371 $295 6.6563246262070521 $182 $296 forward 7 unknown #
loop $-1 $-1 $189 $114 #
plane-surface $-1 43.052352930910757 -16.525263990459095 67.928571731100519 0 0.70710678939079041 0.70710677298230451 1 0 0 forward_v I I I I #
loop $-1 $-1 $297 $73 #
coedge $-1 $187 $187 $188 $298 reversed $115 $-1 #
coedge $-1 $188 $188 $187 $298 forward $117 $-1 #
coedge $-1 $189 $189 $118 $190 forward $184 $-1 #
edge $-1 $299 2.5121481962199749e-015 $299 6.2831853071796031 $189 $300 forward 7 unknown #
loop $-1 $-1 $196 $119 #
plane-surface $-1 43.052352930910757 -16.525263990459095 67.928571731100519 0 0.70710678939079041 0.70710677298230451 1 0 0 forward_v I I I I #
loop $-1 $-1 $301 $76 #
coedge $-1 $194 $194 $195 $302 reversed $120 $-1 #
coedge $-1 $195 $195 $194 $302 forward $122 $-1 #
coedge $-1 $196 $196 $123 $197 forward $191 $-1 #
edge $-1 $303 2.5121481962199749e-015 $303 6.2831853071796031 $196 $304 forward 7 unknown #
face $-1 $305 $306 $41 $-1 $307 forward single #
loop $-1 $-1 $308 $124 #
plane-surface $-1 -17.425240163808269 -136.27548501309334 110.78793932752765 1 0 0 0 0.66913061440640931 -0.74314481823134659 forward_v I I I I #
coedge $-1 $309 $310 $311 $312 reversed $125 $-1 #
coedge $-1 $203 $127 $313 $314 reversed $80 $-1 #
coedge $-1 $127 $202 $309 $315 reversed $80 $-1 #
coedge $-1 $311 $316 $127 $205 forward $306 $-1 #
edge $-1 $317 28.242224478579871 $318 41.181012122026765 $204 $319 forward 7 unknown #
loop $-1 $-1 $211 $128 #
plane-surface $-1 -5.0950239011764467 -39.895518027966787 3.7471441460914008 0 -0.66913061440640931 0.74314481823134659 1 0 0 forward_v I I I I #
loop $-1 $-1 $320 $82 #
coedge $-1 $209 $209 $210 $321 reversed $129 $-1 #
coedge $-1 $210 $210 $209 $321 forward $131 $-1 #
coedge $-1 $211 $211 $132 $212 forward $206 $-1 #
edge $-1 $322 6.6271219464415083e-016 $322 6.2831853071796013 $211 $323 forward 7 unknown #
loop $-1 $-1 $218 $133 #
plane-surface $-1 -5.0950239011764467 -39.895518027966787 3.7471441460914008 0 -0.66913061440640931 0.74314481823134659 1 0 0 forward_v I I I I #
loop $-1 $-1 $324 $85 #
coedge $-1 $216 $216 $217 $325 reversed $134 $-1 #
coedge $-1 $217 $217 $216 $325 forward $136 $-1 #
coedge $-1 $218 $218 $137 $219 forward $213 $-1 #
edge $-1 $326 6.6271219464415083e-016 $326 6.2831853071796013 $218 $327 forward 7 unknown #
face $-1 $328 $329 $33 $-1 $330 reversed single #
loop $-1 $-1 $331 $138 #
plane-surface $-1 -72.018799401837214 0 0 1 0 0 0 0 -1 forward_v I I I I #
coedge $-1 $332 $231 $333 $334 forward $139 $-1 #
coedge $-1 $335 $141 $332 $336 forward $89 $-1 #
coedge $-1 $141 $335 $337 $338 forward $89 $-1 #
coedge $-1 $234 $233 $141 $227 reversed $235 $-1 #
edge $-1 $339 -39.895518027966801 $340 39.895518027966801 $226 $341 forward 7 unknown #
coedge $-1 $143 $142 $342 $343 forward $56 $-1 #
coedge $-1 $344 $345 $142 $230 reversed $329 $-1 #
edge $-1 $237 -72.018799401837214 $346 72.018799401837214 $229 $347 forward 7 unknown #
coedge $-1 $223 $348 $143 $232 reversed $139 $-1 #
edge $-1 $349 -72.018799401837214 $236 72.018799401837214 $231 $350 forward 7 unknown #
coedge $-1 $226 $144 $348 $351 forward $235 $-1 #
coedge $-1 $144 $226 $344 $352 reversed $235 $-1 #
loop $-1 $-1 $233 $328 #
vertex $-1 $145 $353 #
vertex $-1 $145 $354 #
straight-curve $-1 72.018799401837214 0 15.397281122271524 0 1 0 I I #
face $-1 $355 $356 $34 $-1 $357 forward single #
loop $-1 $-1 $358 $146 #
plane-surface $-1 0 0 -15.397281122271524 0 0 1 1 0 0 forward_v I I I I #
coedge $-1 $359 $360 $247 $361 forward $147 $-1 #
coedge $-1 $362 $149 $358 $363 reversed $93 $-1 #
coedge $-1 $149 $362 $364 $365 reversed $93 $-1 #
coedge $-1 $360 $359 $149 $246 reversed $147 $-1 #
edge $-1 $366 -15.397281122271524 $367 15.397281122271524 $245 $368 forward 7 unknown #
coedge $-1 $151 $150 $242 $361 reversed $59 $-1 #
coedge $-1 $369 $370 $150 $249 forward $240 $-1 #
edge $-1 $371 26.998649240673245 $255 39.012983187667061 $248 $372 forward 7 unknown #
coedge $-1 $373 $374 $151 $251 forward $356 $-1 #
edge $-1 $256 -39.012983187667061 $375 -26.998649240673245 $250 $376 forward 7 unknown #
coedge $-1 $377 $152 $374 $378 reversed $254 $-1 #
coedge $-1 $152 $377 $369 $379 reversed $254 $-1 #
loop $-1 $-1 $377 $355 #
vertex $-1 $379 $380 #
vertex $-1 $153 $381 #
straight-curve $-1 -72.018799401837214 -16.460162790203661 0 0 0 1 I I #
face $-1 $-1 $270 $35 $-1 $382 forward single #
loop $-1 $-1 $383 $154 #
plane-surface $-1 0 39.895518027966801 0 0 -1 0 0 0 -1 forward_v I I I I #
coedge $-1 $384 $385 $386 $387 reversed $155 $-1 #
coedge $-1 $388 $157 $159 $268 forward $97 $-1 #
coedge $-1 $157 $388 $384 $389 forward $97 $-1 #
coedge $-1 $386 $160 $157 $265 forward $270 $-1 #
edge $-1 $272 -26.600389701783254 $390 -4.4376292821336811 $264 $391 forward 7 unknown #
coedge $-1 $392 $393 $158 $267 forward $259 $-1 #
edge $-1 $394 -73.381478301218749 $271 -69.491985582371768 $266 $395 forward 7 unknown #
edge $-1 $272 74.290462766009455 $394 79.791036055933603 $159 $396 forward 7 unknown #
coedge $-1 $160 $386 $392 $397 forward $270 $-1 #
loop $-1 $-1 $386 $258 #
vertex $-1 $267 $398 #
vertex $-1 $161 $399 #
straight-curve $-1 -42.119399193741721 42.662350025582938 15.397281122271522 0 -1 0 I I #
coedge $-1 $274 $274 $-1 $400 reversed $164 $-1 #
edge $-1 $401 0 $401 6.2831853071796004 $165 $402 forward 7 unknown #
vertex $-1 $168 $403 #
ellipse-curve $-1 -35.787181930984701 37.950771713671344 13.452534762848028 0 0.70710678939079041 0.70710677298230451 1 0 0 1 I I #
coedge $-1 $278 $278 $-1 $404 reversed $171 $-1 #
edge $-1 $405 0 $405 6.2831853071796004 $172 $406 forward 7 unknown #
vertex $-1 $175 $407 #
ellipse-curve $-1 -26.288856036849168 37.950771713671344 13.452534762848028 0 0.70710678939079041 0.70710677298230451 1 0 0 1 I I #
face $-1 $-1 $408 $38 $-1 $409 reversed single #
loop $-1 $-1 $182 $176 #
plane-surface $-1 0 0 15.397281122271524 0 0 1 1 0 0 forward_v I I I I #
coedge $-1 $410 $411 $412 $413 reversed $177 $-1 #
coedge $-1 $414 $179 $181 $292 forward $111 $-1 #
coedge $-1 $179 $414 $410 $415 forward $111 $-1 #
coedge $-1 $412 $182 $179 $289 forward $283 $-1 #
edge $-1 $295 10.444796255630592 $416 32.607556675280165 $288 $417 forward 7 unknown #
coedge $-1 $418 $419 $180 $291 forward $408 $-1 #
edge $-1 $420 -73.381478301218749 $294 -69.491985582371768 $290 $421 forward 7 unknown #
edge $-1 $295 74.290462766009455 $420 79.791036055933603 $181 $422 forward 7 unknown #
coedge $-1 $182 $412 $418 $423 forward $283 $-1 #
vertex $-1 $291 $424 #
vertex $-1 $183 $425 #
straight-curve $-1 31.970972721085971 42.662350025582938 15.397281122271522 0 -1 0 I I #
coedge $-1 $297 $297 $-1 $426 reversed $186 $-1 #
edge $-1 $427 0 $427 6.2831853071796004 $187 $428 forward 7 unknown #
vertex $-1 $190 $429 #
ellipse-curve $-1 38.303189983842998 37.950771713671344 13.452534762848028 0 0.70710678939079041 0.70710677298230451 1 0 0 1 I I #
coedge $-1 $301 $301 $-1 $430 reversed $193 $-1 #
edge $-1 $431 0 $431 6.2831853071796004 $194 $432 forward 7 unknown #
vertex $-1 $197 $433 #
ellipse-curve $-1 47.801515877978531 37.950771713671344 13.452534762848028 0 0.70710678939079041 0.70710677298230451 1 0 0 1 I I #
face $-1 $-1 $434 $41 $-1 $435 reversed single #
loop $-1 $-1 $204 $198 #
plane-surface $-1 0 0 15.397281122271524 0 0 1 1 0 0 forward_v I I I I #
coedge $-1 $436 $437 $438 $439 reversed $199 $-1 #
coedge $-1 $440 $201 $203 $315 forward $125 $-1 #
coedge $-1 $201 $440 $436 $441 forward $125 $-1 #
coedge $-1 $438 $204 $201 $312 forward $306 $-1 #
edge $-1 $318 -9.7827043120435988 $442 14.877728213220045 $311 $443 forward 7 unknown #
coedge $-1 $444 $445 $202 $314 forward $434 $-1 #
edge $-1 $446 -51.64682551767244 $317 -39.996688541492304 $313 $447 forward 7 unknown #
edge $-1 $318 -17.41085630421356 $446 1.9178179933549516e-014 $203 $448 forward 7 unknown #
coedge $-1 $204 $438 $444 $449 forward $306 $-1 #
vertex $-1 $314 $450 #
vertex $-1 $205 $451 #
straight-curve $-1 7.2351923614553755 -68.137742506546672 15.397281122271522 0 1 0 I I #
coedge $-1 $320 $320 $-1 $452 reversed $208 $-1 #
edge $-1 $453 0 $453 6.2831853071796004 $209 $454 forward 7 unknown #
vertex $-1 $212 $455 #
ellipse-curve $-1 -10.379402299447229 -33.426124206243358 9.5722126341814544 0 -0.66913061440640931 0.74314481823134659 1 0 0 1 I I #
coedge $-1 $324 $324 $-1 $456 reversed $215 $-1 #
edge $-1 $457 0 $457 6.2831853071796004 $216 $458 forward 7 unknown #
vertex $-1 $219 $459 #
ellipse-curve $-1 0.18935449709432817 -33.426124206243358 9.5722126341814544 0 -0.66913061440640931 0.74314481823134659 1 0 0 1 I I #
face $-1 $-1 $235 $33 $-1 $460 reversed single #
loop $-1 $-1 $344 $220 #
plane-surface $-1 0 39.895518027966801 0 0 -1 0 0 0 -1 forward_v I I I I #
coedge $-1 $461 $342 $345 $462 forward $221 $-1 #
coedge $-1 $348 $223 $224 $336 reversed $139 $-1 #
coedge $-1 $342 $461 $223 $334 reversed $221 $-1 #
edge $-1 $349 -15.397281122271524 $463 15.397281122271524 $333 $464 forward 7 unknown #
coedge $-1 $225 $224 $461 $465 forward $89 $-1 #
edge $-1 $340 -72.018799401837214 $463 72.018799401837214 $332 $466 forward 7 unknown #
coedge $-1 $345 $344 $225 $338 reversed $329 $-1 #
edge $-1 $467 -72.018799401837214 $339 72.018799401837214 $337 $468 forward 7 unknown #
vertex $-1 $227 $469 #
vertex $-1 $351 $470 #
straight-curve $-1 72.018799401837214 0 -15.397281122271524 0 -1 0 I I #
coedge $-1 $331 $333 $228 $343 reversed $221 $-1 #
edge $-1 $346 -39.895518027966801 $349 39.895518027966801 $342 $471 forward 7 unknown #
coedge $-1 $337 $229 $234 $352 forward $329 $-1 #
coedge $-1 $229 $337 $331 $462 reversed $329 $-1 #
vertex $-1 $230 $472 #
straight-curve $-1 0 39.895518027966801 15.397281122271524 -1 0 0 I I #
coedge $-1 $231 $332 $233 $351 reversed $139 $-1 #
vertex $-1 $343 $473 #
straight-curve $-1 0 -39.895518027966801 15.397281122271524 1 0 0 I I #
edge $-1 $236 -15.397281122271524 $340 15.397281122271524 $233 $474 forward 7 unknown #
edge $-1 $237 -15.397281122271524 $339 15.397281122271524 $234 $475 forward 7 unknown #
point $-1 72.018799401837214 -39.895518027966801 15.397281122271524 #
point $-1 72.018799401837214 39.895518027966801 15.397281122271524 #
face $-1 $-1 $254 $34 $-1 $476 reversed single #
loop $-1 $-1 $364 $239 #
plane-surface $-1 0 0 15.397281122271524 0 0 1 1 0 0 forward_v I I I I #
coedge $-1 $370 $369 $243 $363 forward $240 $-1 #
coedge $-1 $245 $242 $370 $477 reversed $147 $-1 #
coedge $-1 $242 $245 $373 $478 reversed $147 $-1 #
edge $-1 $375 -15.397281122271524 $371 15.397281122271524 $242 $479 forward 7 unknown #
coedge $-1 $244 $243 $377 $480 reversed $93 $-1 #
edge $-1 $481 -39.012983187667061 $367 -26.998649240673245 $358 $482 forward 7 unknown #
coedge $-1 $374 $373 $244 $365 forward $356 $-1 #
edge $-1 $366 26.998649240673245 $483 39.012983187667061 $364 $484 forward 7 unknown #
vertex $-1 $365 $485 #
vertex $-1 $363 $486 #
straight-curve $-1 -60.004465454843398 -11.774205369398706 0 0 0 -1 I I #
coedge $-1 $358 $248 $253 $379 forward $240 $-1 #
coedge $-1 $248 $358 $359 $477 forward $240 $-1 #
vertex $-1 $249 $487 #
straight-curve $-1 -33.005816214170153 -16.460162790203661 -15.397281122271524 -1 0 0 I I #
coedge $-1 $364 $250 $360 $478 forward $356 $-1 #
coedge $-1 $250 $364 $252 $378 forward $356 $-1 #
vertex $-1 $251 $488 #
straight-curve $-1 -33.005816214170153 -16.460162790203661 15.397281122271524 1 0 0 I I #
coedge $-1 $253 $252 $362 $480 forward $254 $-1 #
edge $-1 $483 11.774205369398706 $256 16.460162790203661 $252 $489 forward 7 unknown #
edge $-1 $255 -16.460162790203661 $481 -11.774205369398706 $253 $490 forward 7 unknown #
point $-1 -72.018799401837214 -16.460162790203661 -15.397281122271524 #
point $-1 -72.018799401837214 -16.460162790203661 15.397281122271524 #
plane-surface $-1 0 0 15.397281122271524 0 0 1 1 0 0 forward_v I I I I #
coedge $-1 $393 $392 $385 $491 forward $259 $-1 #
coedge $-1 $385 $261 $263 $389 reversed $155 $-1 #
coedge $-1 $261 $384 $383 $491 reversed $155 $-1 #
coedge $-1 $269 $264 $261 $387 forward $270 $-1 #
edge $-1 $390 -6.6563246262070521 $492 -2.7668319976161371 $386 $493 forward 7 unknown #
coedge $-1 $263 $262 $393 $494 reversed $97 $-1 #
edge $-1 $495 -79.791036055933603 $390 -74.290462766009455 $384 $496 forward 7 unknown #
vertex $-1 $265 $497 #
straight-curve $-1 -15.519009491958467 36.006025399375901 15.397281122271515 1 0 0 I I #
coedge $-1 $383 $266 $269 $397 reversed $259 $-1 #
coedge $-1 $266 $383 $388 $494 forward $259 $-1 #
vertex $-1 $267 $498 #
straight-curve $-1 -42.119399193741721 39.895518027966801 84.88926670464329 0 0 1 I I #
straight-curve $-1 -42.119399193741721 -16.525263990459095 67.928571731100519 0 0.70710677298230451 -0.70710678939079041 I I #
edge $-1 $492 19.956638774092148 $271 42.119399193741721 $392 $499 forward 7 unknown #
point $-1 -42.119399193741721 39.895518027966801 15.397281122271524 #
point $-1 -42.119399193741721 36.006025399375886 15.397281122271529 #
edge $-1 $500 1 $500 0 $274 $-1 forward 7 unknown #
vertex $-1 $275 $501 #
ellipse-curve $-1 -35.787181930984701 37.036239451712888 12.538002522111384 0 0.70710678939079041 0.70710677298230451 1 0 0 1 I I #
point $-1 -34.787181930984701 37.95077171367133 13.452534762848011 #
edge $-1 $502 1 $502 0 $278 $-1 forward 7 unknown #
vertex $-1 $279 $503 #
ellipse-curve $-1 -26.288856036849168 37.036239451712888 12.538002522111384 0 0.70710678939079041 0.70710677298230451 1 0 0 1 I I #
point $-1 -25.288856036849168 37.95077171367133 13.452534762848011 #
loop $-1 $-1 $290 $282 #
plane-surface $-1 0 39.895518027966801 0 0 -1 0 0 0 -1 forward_v I I I I #
coedge $-1 $411 $285 $287 $415 reversed $177 $-1 #
coedge $-1 $285 $410 $504 $505 reversed $177 $-1 #
coedge $-1 $293 $288 $285 $413 forward $283 $-1 #
edge $-1 $416 -6.6563246262070521 $506 -2.7668319976161371 $412 $507 forward 7 unknown #
coedge $-1 $287 $286 $419 $508 reversed $111 $-1 #
edge $-1 $509 -79.791036055933603 $416 -74.290462766009455 $410 $510 forward 7 unknown #
vertex $-1 $289 $511 #
straight-curve $-1 21.526176465455379 36.006025399375901 15.397281122271515 1 0 0 I I #
coedge $-1 $504 $290 $293 $423 reversed $408 $-1 #
coedge $-1 $290 $504 $414 $508 forward $408 $-1 #
vertex $-1 $291 $512 #
straight-curve $-1 31.970972721085971 39.895518027966801 84.88926670464329 0 0 1 I I #
straight-curve $-1 31.970972721085971 -16.525263990459095 67.928571731100519 0 0.70710677298230451 -0.70710678939079041 I I #
edge $-1 $506 -54.133733140735544 $294 -31.970972721085971 $418 $513 forward 7 unknown #
point $-1 31.970972721085971 39.895518027966801 15.397281122271524 #
point $-1 31.970972721085971 36.006025399375886 15.397281122271529 #
edge $-1 $514 1 $514 0 $297 $-1 forward 7 unknown #
vertex $-1 $298 $515 #
ellipse-curve $-1 38.303189983842998 37.036239451712888 12.538002522111384 0 0.70710678939079041 0.70710677298230451 1 0 0 1 I I #
point $-1 39.303189983842998 37.95077171367133 13.452534762848011 #
edge $-1 $516 1 $516 0 $301 $-1 forward 7 unknown #
vertex $-1 $302 $517 #
ellipse-curve $-1 47.801515877978531 37.036239451712888 12.538002522111384 0 0.70710678939079041 0.70710677298230451 1 0 0 1 I I #
point $-1 48.801515877978531 37.95077171367133 13.452534762848011 #
loop $-1 $-1 $313 $305 #
plane-surface $-1 0 -39.895518027966801 0 0 1 0 0 0 1 forward_v I I I I #
coedge $-1 $437 $308 $310 $441 reversed $199 $-1 #
coedge $-1 $308 $436 $518 $519 reversed $199 $-1 #
coedge $-1 $316 $311 $308 $439 forward $306 $-1 #
edge $-1 $442 -41.181012122026765 $520 -28.242224478579871 $438 $521 forward 7 unknown #
coedge $-1 $310 $309 $445 $522 reversed $125 $-1 #
edge $-1 $523 -1.9178179933549516e-014 $442 17.41085630421356 $436 $524 forward 7 unknown #
vertex $-1 $312 $525 #
straight-curve $-1 -2.5475119505882233 -26.956730384519904 15.397281122271524 -1 0 0 I I #
coedge $-1 $518 $313 $316 $449 reversed $434 $-1 #
coedge $-1 $313 $518 $440 $522 forward $434 $-1 #
vertex $-1 $314 $526 #
straight-curve $-1 7.2351923614553755 -39.895518027966801 55.393969663763826 0 0 1 I I #
straight-curve $-1 7.2351923614553755 -39.895518027966787 3.7471441460914008 0 -0.74314481823134659 -0.66913061440640931 I I #
edge $-1 $520 -17.425240163808269 $317 7.2351923614553755 $444 $527 forward 7 unknown #
point $-1 7.2351923614553755 -39.895518027966801 15.397281122271524 #
point $-1 7.2351923614553755 -26.956730384519908 15.397281122271526 #
edge $-1 $528 1 $528 0 $320 $-1 forward 7 unknown #
vertex $-1 $321 $529 #
ellipse-curve $-1 -10.379402299447229 -32.274734349616985 8.2934646778126151 0 -0.66913061440640931 0.74314481823134659 1 0 0 1 I I #
point $-1 -9.3794022994472286 -33.426124206243365 9.5722126341814633 #
edge $-1 $530 1 $530 0 $324 $-1 forward 7 unknown #
vertex $-1 $325 $531 #
ellipse-curve $-1 0.18935449709432817 -32.274734349616985 8.2934646778126151 0 -0.66913061440640931 0.74314481823134659 1 0 0 1 I I #
point $-1 1.1893544970943282 -33.426124206243365 9.5722126341814633 #
plane-surface $-1 72.018799401837214 0 0 -1 0 0 0 0 1 forward_v I I I I #
coedge $-1 $333 $331 $335 $465 reversed $221 $-1 #
edge $-1 $346 -15.397281122271524 $467 15.397281122271524 $345 $532 forward 7 unknown #
vertex $-1 $465 $533 #
straight-curve $-1 -72.018799401837214 -39.895518027966801 0 0 0 -1 I I #
edge $-1 $463 -39.895518027966801 $467 39.895518027966801 $461 $534 forward 7 unknown #
straight-curve $-1 0 -39.895518027966801 -15.397281122271524 -1 0 0 I I #
vertex $-1 $338 $535 #
straight-curve $-1 0 39.895518027966801 -15.397281122271524 1 0 0 I I #
point $-1 72.018799401837214 39.895518027966801 -15.397281122271524 #
point $-1 72.018799401837214 -39.895518027966801 -15.397281122271524 #
straight-curve $-1 -72.018799401837214 0 15.397281122271524 0 -1 0 I I #
point $-1 -72.018799401837214 39.895518027966801 15.397281122271524 #
point $-1 -72.018799401837214 -39.895518027966801 15.397281122271524 #
straight-curve $-1 72.018799401837214 -39.895518027966801 0 0 0 -1 I I #
straight-curve $-1 72.018799401837214 39.895518027966801 0 0 0 -1 I I #
plane-surface $-1 -72.018799401837214 0 0 1 0 0 0 0 -1 forward_v I I I I #
edge $-1 $367 4.7156133294981135 $371 9.401570750303069 $370 $536 forward 7 unknown #
edge $-1 $375 -9.401570750303069 $366 -4.7156133294981135 $373 $537 forward 7 unknown #
straight-curve $-1 -60.004465454843398 -16.460162790203661 0 0 0 -1 I I #
edge $-1 $483 -15.397281122271524 $481 15.397281122271524 $377 $538 forward 7 unknown #
vertex $-1 $480 $539 #
straight-curve $-1 -33.005816214170153 -11.774205369398706 -15.397281122271524 1 0 0 I I #
vertex $-1 $378 $540 #
straight-curve $-1 -33.005816214170153 -11.774205369398706 15.397281122271524 -1 0 0 I I #
point $-1 -60.004465454843398 -11.774205369398706 15.397281122271524 #
point $-1 -60.004465454843398 -11.774205369398706 -15.397281122271524 #
point $-1 -60.004465454843398 -16.460162790203661 -15.397281122271524 #
point $-1 -60.004465454843398 -16.460162790203661 15.397281122271524 #
straight-curve $-1 -72.018799401837214 0 15.397281122271524 0 -1 0 I I #
straight-curve $-1 -72.018799401837214 0 -15.397281122271524 0 1 0 I I #
edge $-1 $492 69.491985582371768 $495 73.381478301218749 $383 $541 forward 7 unknown #
vertex $-1 $397 $542 #
straight-curve $-1 -19.956638774092148 42.662350025582938 15.397281122271522 0 1 0 I I #
edge $-1 $495 4.4376292821336811 $394 26.600389701783254 $393 $543 forward 7 unknown #
vertex $-1 $494 $544 #
straight-curve $-1 -19.956638774092148 -16.525263990459095 67.928571731100519 0 -0.70710677298230451 0.70710678939079041 I I #
point $-1 -19.956638774092148 36.006025399375886 15.397281122271529 #
point $-1 -42.119399193741721 39.895518027966801 11.507788403424534 #
straight-curve $-1 0 39.895518027966801 15.397281122271524 -1 0 0 I I #
vertex $-1 $400 $545 #
point $-1 -34.787181930984701 37.036239451712888 12.538002522111384 #
vertex $-1 $404 $546 #
point $-1 -25.288856036849168 37.036239451712888 12.538002522111384 #
coedge $-1 $419 $418 $411 $505 forward $408 $-1 #
edge $-1 $506 69.491985582371768 $509 73.381478301218749 $504 $547 forward 7 unknown #
vertex $-1 $423 $548 #
straight-curve $-1 54.133733140735544 42.662350025582938 15.397281122271522 0 1 0 I I #
edge $-1 $509 -32.607556675280165 $420 -10.444796255630592 $419 $549 forward 7 unknown #
vertex $-1 $508 $550 #
straight-curve $-1 54.133733140735544 -16.525263990459095 67.928571731100519 0 -0.70710677298230451 0.70710678939079041 I I #
point $-1 54.133733140735544 36.006025399375886 15.397281122271529 #
point $-1 31.970972721085971 39.895518027966801 11.507788403424534 #
straight-curve $-1 0 39.895518027966801 15.397281122271524 -1 0 0 I I #
vertex $-1 $426 $551 #
point $-1 39.303189983842998 37.036239451712888 12.538002522111384 #
vertex $-1 $430 $552 #
point $-1 48.801515877978531 37.036239451712888 12.538002522111384 #
coedge $-1 $445 $444 $437 $519 forward $434 $-1 #
edge $-1 $520 39.996688541492304 $523 51.64682551767244 $518 $553 forward 7 unknown #
vertex $-1 $449 $554 #
straight-curve $-1 -17.425240163808269 -68.137742506546672 15.397281122271522 0 -1 0 I I #
edge $-1 $523 -14.877728213220045 $446 9.7827043120435988 $445 $555 forward 7 unknown #
vertex $-1 $522 $556 #
straight-curve $-1 -17.425240163808269 -39.895518027966787 3.7471441460914008 0 0.74314481823134659 0.66913061440640931 I I #
point $-1 -17.425240163808269 -26.956730384519908 15.397281122271526 #
point $-1 7.2351923614553755 -39.895518027966801 3.7471441460913879 #
straight-curve $-1 0 -39.895518027966801 15.397281122271524 1 0 0 I I #
vertex $-1 $452 $557 #
point $-1 -9.3794022994472286 -32.274734349616985 8.2934646778126151 #
vertex $-1 $456 $558 #
point $-1 1.1893544970943282 -32.274734349616985 8.2934646778126151 #
straight-curve $-1 -72.018799401837214 39.895518027966801 0 0 0 -1 I I #
point $-1 -72.018799401837214 -39.895518027966801 -15.397281122271524 #
straight-curve $-1 -72.018799401837214 0 -15.397281122271524 0 1 0 I I #
point $-1 -72.018799401837214 39.895518027966801 -15.397281122271524 #
straight-curve $-1 -60.004465454843398 -7.0585920399005921 -15.397281122271524 0 -1 0 I I #
straight-curve $-1 -60.004465454843398 -7.0585920399005921 15.397281122271524 0 1 0 I I #
straight-curve $-1 -72.018799401837214 -11.774205369398706 0 0 0 -1 I I #
point $-1 -72.018799401837214 -11.774205369398706 -15.397281122271524 #
point $-1 -72.018799401837214 -11.774205369398706 15.397281122271524 #
straight-curve $-1 -19.956638774092148 39.895518027966801 84.88926670464329 0 0 -1 I I #
point $-1 -19.956638774092148 39.895518027966801 15.397281122271524 #
straight-curve $-1 -15.519009491958467 39.895518027966801 11.507788403424531 -1 0 0 I I #
point $-1 -19.956638774092148 39.895518027966801 11.507788403424534 #
point $-1 -35.787181930984701 36.329132662322095 11.83089574912908 #
point $-1 -26.288856036849168 36.329132662322095 11.83089574912908 #
straight-curve $-1 54.133733140735544 39.895518027966801 84.88926670464329 0 0 -1 I I #
point $-1 54.133733140735544 39.895518027966801 15.397281122271524 #
straight-curve $-1 21.526176465455379 39.895518027966801 11.507788403424531 -1 0 0 I I #
point $-1 54.133733140735544 39.895518027966801 11.507788403424534 #
point $-1 38.303189983842998 36.329132662322095 11.83089574912908 #
point $-1 47.801515877978531 36.329132662322095 11.83089574912908 #
straight-curve $-1 -17.425240163808269 -39.895518027966801 55.393969663763826 0 0 -1 I I #
point $-1 -17.425240163808269 -39.895518027966801 15.397281122271524 #
straight-curve $-1 -2.5475119505882233 -39.895518027966801 3.7471441460913857 1 0 0 I I #
point $-1 -17.425240163808269 -39.895518027966801 3.7471441460913879 #
point $-1 -10.379402299447229 -31.605603735210572 7.5503198595812684 #
point $-1 0.18935449709432817 -31.605603735210572 7.5503198595812684 #
End-of-ACIS-data 