500 0 12 0           
7 Unknown 11 ACIS 5.0 NT 24 Fri Mar 26 19:58:59 1999 
-1 9.9999999999999995e-007 1e-010 
body $-1 $12 $-1 $13 #
body $-1 $14 $-1 $15 #
body $-1 $16 $-1 $17 #
body $-1 $18 $-1 $19 #
body $-1 $20 $-1 $21 #
body $-1 $22 $-1 $23 #
body $-1 $24 $-1 $25 #
body $-1 $26 $-1 $27 #
body $-1 $28 $-1 $29 #
body $-1 $30 $-1 $31 #
body $-1 $32 $-1 $33 #
body $-1 $34 $-1 $35 #
lump $-1 $-1 $36 $0 #
transform $-1 1 0 0 0 1 0 0 0 1 57.282021546067689 38.483162367759057 13.551376964030514 1 rotate no_reflect no_shear #
lump $-1 $-1 $37 $1 #
transform $-1 1 0 0 0 1 0 0 0 1 57.282021546067689 38.483162367759057 13.551376964030514 1 rotate no_reflect no_shear #
lump $-1 $-1 $38 $2 #
transform $-1 1 0 0 0 1 0 0 0 1 57.282021546067689 38.483162367759057 13.551376964030514 1 rotate no_reflect no_shear #
lump $-1 $-1 $39 $3 #
transform $-1 1 0 0 0 1 0 0 0 1 57.282021546067689 38.483162367759057 13.551376964030514 1 rotate no_reflect no_shear #
lump $-1 $-1 $40 $4 #
transform $-1 1 0 0 0 1 0 0 0 1 57.282021546067689 38.483162367759057 13.551376964030514 1 rotate no_reflect no_shear #
lump $-1 $-1 $41 $5 #
transform $-1 1 0 0 0 1 0 0 0 1 57.282021546067689 38.483162367759057 13.551376964030514 1 rotate no_reflect no_shear #
lump $-1 $-1 $42 $6 #
transform $-1 1 0 0 0 1 0 0 0 1 57.282021546067689 38.483162367759057 13.551376964030514 1 rotate no_reflect no_shear #
lump $-1 $-1 $43 $7 #
transform $-1 1 0 0 0 1 0 0 0 1 57.282021546067689 38.483162367759057 13.551376964030514 1 rotate no_reflect no_shear #
lump $-1 $-1 $44 $8 #
transform $-1 1 0 0 0 1 0 0 0 1 57.282021546067689 38.483162367759057 13.551376964030514 1 rotate no_reflect no_shear #
lump $-1 $-1 $45 $9 #
transform $-1 1 0 0 0 1 0 0 0 1 57.282021546067689 38.483162367759057 13.551376964030514 1 rotate no_reflect no_shear #
lump $-1 $-1 $46 $10 #
transform $-1 1 0 0 0 1 0 0 0 1 57.282021546067689 38.483162367759057 13.551376964030514 1 rotate no_reflect no_shear #
lump $-1 $-1 $47 $11 #
transform $-1 1 0 0 0 1 0 0 0 1 57.282021546067689 38.483162367759057 13.551376964030514 1 rotate no_reflect no_shear #
shell $-1 $-1 $-1 $48 $-1 $12 #
shell $-1 $-1 $-1 $49 $-1 $14 #
shell $-1 $-1 $-1 $50 $-1 $16 #
shell $-1 $-1 $-1 $51 $-1 $18 #
shell $-1 $-1 $-1 $52 $-1 $20 #
shell $-1 $-1 $-1 $53 $-1 $22 #
shell $-1 $-1 $-1 $54 $-1 $24 #
shell $-1 $-1 $-1 $55 $-1 $26 #
shell $-1 $-1 $-1 $56 $-1 $28 #
shell $-1 $-1 $-1 $57 $-1 $30 #
shell $-1 $-1 $-1 $58 $-1 $32 #
shell $-1 $-1 $-1 $59 $-1 $34 #
face $-1 $60 $61 $36 $-1 $62 forward single #
face $-1 $63 $64 $37 $-1 $65 forward single #
face $-1 $66 $67 $38 $-1 $68 forward single #
face $-1 $69 $70 $39 $-1 $71 reversed single #
face $-1 $72 $73 $40 $-1 $74 forward single #
face $-1 $75 $76 $41 $-1 $77 forward single #
face $-1 $78 $79 $42 $-1 $80 reversed single #
face $-1 $81 $82 $43 $-1 $83 forward single #
face $-1 $84 $85 $44 $-1 $86 forward single #
face $-1 $87 $88 $45 $-1 $89 reversed single #
face $-1 $90 $91 $46 $-1 $92 forward single #
face $-1 $93 $94 $47 $-1 $95 forward single #
face $-1 $96 $97 $36 $-1 $98 reversed single #
loop $-1 $-1 $99 $48 #
plane-surface $-1 0 0 13.551376964030514 0 0 1 1 0 0 forward_v I I I I #
face $-1 $100 $101 $37 $-1 $102 reversed single #
loop $-1 $-1 $103 $49 #
plane-surface $-1 0 -32.495490157634222 0.49262301997498881 0 0 1 1 0 0 forward_v I I I I #
face $-1 $104 $105 $38 $-1 $106 reversed single #
loop $-1 $-1 $107 $50 #
plane-surface $-1 0 32.495490157634215 0.49262301997498881 0 0 1 1 0 0 forward_v I I I I #
face $-1 $108 $109 $39 $-1 $110 reversed single #
loop $-1 $-1 $111 $51 #
plane-surface $-1 -151.12739257884675 -14.013711789772177 69.070788543533112 0 -1 0 0.81915205242281985 0 -0.57357642473473569 forward_v I I I I #
face $-1 $112 $113 $40 $-1 $114 forward single #
loop $-1 $115 $116 $52 #
cone-surface $-1 -52.484073076373534 -22.938073331013037 7.5943833041084154 0.81915205242281985 0 -0.57357642473473569 0.57357642473473569 0 0.81915205242281985 1 I I 0 1 1 forward I I I I #
face $-1 $117 $118 $41 $-1 $119 forward single #
loop $-1 $120 $121 $53 #
cone-surface $-1 -52.484073076373534 -17.583456406268521 7.5943833041084154 0.81915205242281985 0 -0.57357642473473569 0.57357642473473569 0 0.81915205242281985 1 I I 0 1 1 forward I I I I #
face $-1 $122 $123 $42 $-1 $124 reversed single #
loop $-1 $-1 $125 $54 #
plane-surface $-1 99.215374099069805 -11.918083537751313 160.81525547742621 0 1 0 0.86602541151947299 0 0.49999998660252726 forward_v I I I I #
face $-1 $126 $127 $43 $-1 $128 forward single #
loop $-1 $129 $130 $55 #
cone-surface $-1 54.183523020904424 -10.083304674042591 8.6846199397269803 -0.86602541151947299 0 -0.49999998660252726 0.12499999665063181 0 -0.21650635287986825 1 I I 0 1 0.25 forward I I I I #
face $-1 $131 $132 $44 $-1 $133 forward single #
loop $-1 $134 $135 $56 #
cone-surface $-1 54.183523020904424 -7.3311363784795098 8.6846199397269803 -0.86602541151947299 0 -0.49999998660252726 0.12499999665063181 0 -0.21650635287986825 1 I I 0 1 0.25 forward I I I I #
face $-1 $136 $137 $45 $-1 $138 reversed single #
loop $-1 $-1 $139 $57 #
plane-surface $-1 99.215374099069805 5.4963575147707875 160.81525547742621 0 1 0 0.86602541151947299 0 0.49999998660252726 forward_v I I I I #
face $-1 $140 $141 $46 $-1 $142 forward single #
loop $-1 $143 $144 $58 #
cone-surface $-1 54.183523020904424 7.3311363784795134 8.6846199397269803 -0.86602541151947299 0 -0.49999998660252726 0.12499999665063181 0 -0.21650635287986825 1 I I 0 1 0.25 forward I I I I #
face $-1 $145 $146 $47 $-1 $147 forward single #
loop $-1 $148 $149 $59 #
cone-surface $-1 54.183523020904424 10.083304674042594 8.6846199397269803 -0.86602541151947299 0 -0.49999998660252726 0.12499999665063181 0 -0.21650635287986825 1 I I 0 1 0.25 forward I I I I #
face $-1 $150 $151 $36 $-1 $152 reversed single #
loop $-1 $-1 $153 $60 #
plane-surface $-1 0 0 -13.551376964030514 0 0 1 1 0 0 forward_v I I I I #
coedge $-1 $154 $155 $156 $157 forward $61 $-1 #
face $-1 $158 $159 $37 $-1 $160 reversed single #
loop $-1 $-1 $161 $63 #
plane-surface $-1 0 -32.495490157634222 -2.5073769800250112 0 0 1 1 0 0 forward_v I I I I #
coedge $-1 $162 $163 $164 $165 reversed $64 $-1 #
face $-1 $166 $167 $38 $-1 $168 reversed single #
loop $-1 $-1 $169 $66 #
plane-surface $-1 0 32.495490157634215 -2.5073769800250112 0 0 1 1 0 0 forward_v I I I I #
coedge $-1 $170 $171 $172 $173 reversed $67 $-1 #
face $-1 $174 $175 $39 $-1 $176 reversed single #
loop $-1 $-1 $177 $69 #
plane-surface $-1 -57.282021546067682 -20.260764868640781 3.3595543035899027 -0.81915205242281985 0 0.57357642473473569 0.57357642473473569 0 0.81915205242281985 forward_v I I I I #
coedge $-1 $178 $179 $180 $181 reversed $70 $-1 #
face $-1 $-1 $182 $40 $-1 $183 forward single #
loop $-1 $184 $185 $72 #
cone-surface $-1 -50.844744000241256 -22.938073331013037 6.4465127620392515 0.81915205242281985 0 -0.57357642473473569 0.28678821236736785 0 0.40957602621140993 1 I I -0.70710678118654746 0.70710678118654746 0.5 forward I I I I #
loop $-1 $-1 $186 $52 #
coedge $-1 $116 $116 $187 $188 reversed $73 $-1 #
face $-1 $-1 $189 $41 $-1 $190 forward single #
loop $-1 $191 $192 $75 #
cone-surface $-1 -50.844744000241256 -17.583456406268521 6.4465127620392515 0.81915205242281985 0 -0.57357642473473569 0.28678821236736785 0 0.40957602621140993 1 I I -0.70710678118654746 0.70710678118654746 0.5 forward I I I I #
loop $-1 $-1 $193 $53 #
coedge $-1 $121 $121 $194 $195 reversed $76 $-1 #
face $-1 $196 $197 $42 $-1 $198 reversed single #
loop $-1 $-1 $199 $78 #
plane-surface $-1 1.534868630415076e-006 -8.7072205262610538 103.53323546622715 0.86602541151947299 0 0.49999998660252726 0.49999998660252726 0 -0.86602541151947299 forward_v I I I I #
coedge $-1 $200 $201 $202 $203 reversed $79 $-1 #
face $-1 $-1 $204 $43 $-1 $205 forward single #
loop $-1 $206 $207 $81 #
cone-surface $-1 53.642257138704757 -10.083304674042591 8.3721199481004014 -0.86602541151947299 0 -0.49999998660252726 0.062499998325315907 0 -0.10825317643993412 1 I I -0.70710678118654746 0.70710678118654746 0.125 forward I I I I #
loop $-1 $-1 $208 $55 #
coedge $-1 $130 $130 $209 $210 reversed $82 $-1 #
face $-1 $-1 $211 $44 $-1 $212 forward single #
loop $-1 $213 $214 $84 #
cone-surface $-1 53.642257138704757 -7.3311363784795098 8.3721199481004014 -0.86602541151947299 0 -0.49999998660252726 0.062499998325315907 0 -0.10825317643993412 1 I I -0.70710678118654746 0.70710678118654746 0.125 forward I I I I #
loop $-1 $-1 $215 $56 #
coedge $-1 $135 $135 $216 $217 reversed $85 $-1 #
face $-1 $218 $219 $45 $-1 $220 reversed single #
loop $-1 $-1 $221 $87 #
plane-surface $-1 1.534868630415076e-006 8.7072205262610467 103.53323546622715 0.86602541151947299 0 0.49999998660252726 0.49999998660252726 0 -0.86602541151947299 forward_v I I I I #
coedge $-1 $222 $223 $224 $225 reversed $88 $-1 #
face $-1 $-1 $226 $46 $-1 $227 forward single #
loop $-1 $228 $229 $90 #
cone-surface $-1 53.642257138704757 7.3311363784795134 8.3721199481004014 -0.86602541151947299 0 -0.49999998660252726 0.062499998325315907 0 -0.10825317643993412 1 I I -0.70710678118654746 0.70710678118654746 0.125 forward I I I I #
loop $-1 $-1 $230 $58 #
coedge $-1 $144 $144 $231 $232 reversed $91 $-1 #
face $-1 $-1 $233 $47 $-1 $234 forward single #
loop $-1 $235 $236 $93 #
cone-surface $-1 53.642257138704757 10.083304674042594 8.3721199481004014 -0.86602541151947299 0 -0.49999998660252726 0.062499998325315907 0 -0.10825317643993412 1 I I -0.70710678118654746 0.70710678118654746 0.125 forward I I I I #
loop $-1 $-1 $237 $59 #
coedge $-1 $149 $149 $238 $239 reversed $94 $-1 #
face $-1 $240 $241 $36 $-1 $242 reversed single #
loop $-1 $-1 $243 $96 #
plane-surface $-1 0 -38.483162367759057 0 0 1 0 0 0 1 forward_v I I I I #
coedge $-1 $244 $245 $246 $247 forward $97 $-1 #
coedge $-1 $248 $99 $249 $250 forward $61 $-1 #
coedge $-1 $99 $248 $251 $252 forward $61 $-1 #
coedge $-1 $253 $254 $99 $157 reversed $255 $-1 #
edge $-1 $256 -38.483162367759057 $257 38.483162367759057 $156 $258 forward 7 unknown #
face $-1 $259 $260 $37 $-1 $261 reversed single #
loop $-1 $-1 $262 $100 #
plane-surface $-1 0 -26.507817947509384 -1.0073769800250112 0 -1 0 0 0 -1 forward_v I I I I #
coedge $-1 $263 $264 $265 $266 reversed $101 $-1 #
coedge $-1 $267 $103 $268 $269 forward $64 $-1 #
coedge $-1 $103 $267 $270 $271 reversed $64 $-1 #
coedge $-1 $272 $273 $103 $165 forward $274 $-1 #
edge $-1 $275 10.260072868692273 $276 22.235417288941946 $164 $277 forward 7 unknown #
face $-1 $278 $279 $38 $-1 $280 reversed single #
loop $-1 $-1 $281 $104 #
plane-surface $-1 0 26.50781794750938 -1.0073769800250112 0 1 0 0 0 1 forward_v I I I I #
coedge $-1 $282 $283 $284 $285 reversed $105 $-1 #
coedge $-1 $286 $107 $287 $288 reversed $67 $-1 #
coedge $-1 $107 $286 $289 $290 forward $67 $-1 #
coedge $-1 $291 $292 $107 $173 forward $279 $-1 #
edge $-1 $293 -22.235417288941942 $294 -10.260072868692273 $172 $295 forward 7 unknown #
face $-1 $296 $297 $39 $-1 $298 reversed single #
loop $-1 $-1 $299 $108 #
plane-surface $-1 -151.12739257884675 -26.507817947509384 69.070788543533112 0 1 0 -0.81915205242281985 0 0.57357642473473569 forward_v I I I I #
coedge $-1 $300 $301 $302 $303 reversed $109 $-1 #
coedge $-1 $179 $111 $304 $305 reversed $70 $-1 #
coedge $-1 $111 $178 $300 $306 reversed $70 $-1 #
coedge $-1 $302 $307 $111 $181 forward $297 $-1 #
edge $-1 $308 20.984017307736043 $309 31.175839968176664 $180 $310 forward 7 unknown #
loop $-1 $-1 $187 $112 #
plane-surface $-1 -57.282021546067682 -20.260764868640781 3.3595543035899027 -0.81915205242281985 0 0.57357642473473569 0.57357642473473569 0 0.81915205242281985 forward_v I I I I #
loop $-1 $-1 $311 $72 #
coedge $-1 $185 $185 $186 $312 reversed $113 $-1 #
coedge $-1 $186 $186 $185 $312 forward $115 $-1 #
coedge $-1 $187 $187 $116 $188 forward $182 $-1 #
edge $-1 $313 0 $313 6.2831853071796004 $187 $314 forward 7 unknown #
loop $-1 $-1 $194 $117 #
plane-surface $-1 -57.282021546067682 -20.260764868640781 3.3595543035899027 -0.81915205242281985 0 0.57357642473473569 0.57357642473473569 0 0.81915205242281985 forward_v I I I I #
loop $-1 $-1 $315 $75 #
coedge $-1 $192 $192 $193 $316 reversed $118 $-1 #
coedge $-1 $193 $193 $192 $316 forward $120 $-1 #
coedge $-1 $194 $194 $121 $195 forward $189 $-1 #
edge $-1 $317 0 $317 6.2831853071796004 $194 $318 forward 7 unknown #
face $-1 $319 $320 $42 $-1 $321 forward single #
loop $-1 $-1 $322 $122 #
plane-surface $-1 99.215374099069805 -5.4963575147707946 160.81525547742621 0 -1 0 -0.86602541151947299 0 -0.49999998660252726 forward_v I I I I #
coedge $-1 $323 $324 $325 $326 reversed $123 $-1 #
coedge $-1 $201 $125 $327 $328 reversed $79 $-1 #
coedge $-1 $125 $200 $323 $329 reversed $79 $-1 #
coedge $-1 $325 $330 $125 $203 forward $331 $-1 #
edge $-1 $332 66.856250774682593 $333 76.089764836687152 $202 $334 forward 7 unknown #
loop $-1 $-1 $209 $126 #
plane-surface $-1 1.534868630415076e-006 -8.7072205262610538 103.53323546622715 0.86602541151947299 0 0.49999998660252726 0.49999998660252726 0 -0.86602541151947299 forward_v I I I I #
loop $-1 $-1 $335 $81 #
coedge $-1 $207 $207 $208 $336 reversed $127 $-1 #
coedge $-1 $208 $208 $207 $336 forward $129 $-1 #
coedge $-1 $209 $209 $130 $210 forward $204 $-1 #
edge $-1 $337 0 $337 6.2831853071796004 $209 $338 forward 7 unknown #
loop $-1 $-1 $216 $131 #
plane-surface $-1 1.534868630415076e-006 -8.7072205262610538 103.53323546622715 0.86602541151947299 0 0.49999998660252726 0.49999998660252726 0 -0.86602541151947299 forward_v I I I I #
loop $-1 $-1 $339 $84 #
coedge $-1 $214 $214 $215 $340 reversed $132 $-1 #
coedge $-1 $215 $215 $214 $340 forward $134 $-1 #
coedge $-1 $216 $216 $135 $217 forward $211 $-1 #
edge $-1 $341 0 $341 6.2831853071796004 $216 $342 forward 7 unknown #
face $-1 $343 $344 $45 $-1 $345 reversed single #
loop $-1 $-1 $346 $136 #
plane-surface $-1 99.215374099069805 11.918083537751306 160.81525547742621 0 -1 0 -0.86602541151947299 0 -0.49999998660252726 forward_v I I I I #
coedge $-1 $347 $348 $349 $350 reversed $137 $-1 #
coedge $-1 $223 $139 $351 $352 reversed $88 $-1 #
coedge $-1 $139 $222 $347 $353 reversed $88 $-1 #
coedge $-1 $349 $354 $139 $225 forward $344 $-1 #
edge $-1 $355 66.856250774682593 $356 76.089764836687152 $224 $357 forward 7 unknown #
loop $-1 $-1 $231 $140 #
plane-surface $-1 1.534868630415076e-006 8.7072205262610467 103.53323546622715 0.86602541151947299 0 0.49999998660252726 0.49999998660252726 0 -0.86602541151947299 forward_v I I I I #
loop $-1 $-1 $358 $90 #
coedge $-1 $229 $229 $230 $359 reversed $141 $-1 #
coedge $-1 $230 $230 $229 $359 forward $143 $-1 #
coedge $-1 $231 $231 $144 $232 forward $226 $-1 #
edge $-1 $360 0 $360 6.2831853071796004 $231 $361 forward 7 unknown #
loop $-1 $-1 $238 $145 #
plane-surface $-1 1.534868630415076e-006 8.7072205262610467 103.53323546622715 0.86602541151947299 0 0.49999998660252726 0.49999998660252726 0 -0.86602541151947299 forward_v I I I I #
loop $-1 $-1 $362 $93 #
coedge $-1 $236 $236 $237 $363 reversed $146 $-1 #
coedge $-1 $237 $237 $236 $363 forward $148 $-1 #
coedge $-1 $238 $238 $149 $239 forward $233 $-1 #
edge $-1 $364 0 $364 6.2831853071796004 $238 $365 forward 7 unknown #
face $-1 $366 $367 $36 $-1 $368 reversed single #
loop $-1 $-1 $369 $150 #
plane-surface $-1 -57.282021546067689 0 0 1 0 0 0 0 -1 forward_v I I I I #
coedge $-1 $370 $251 $371 $372 forward $151 $-1 #
coedge $-1 $373 $153 $370 $374 forward $97 $-1 #
coedge $-1 $153 $373 $375 $376 forward $97 $-1 #
coedge $-1 $254 $253 $153 $247 reversed $255 $-1 #
edge $-1 $377 -38.483162367759057 $378 38.483162367759057 $246 $379 forward 7 unknown #
coedge $-1 $155 $154 $380 $381 forward $61 $-1 #
coedge $-1 $382 $383 $154 $250 reversed $367 $-1 #
edge $-1 $257 -57.282021546067689 $384 57.282021546067689 $249 $385 forward 7 unknown #
coedge $-1 $243 $386 $155 $252 reversed $151 $-1 #
edge $-1 $387 -57.282021546067689 $256 57.282021546067689 $251 $388 forward 7 unknown #
coedge $-1 $246 $156 $386 $389 forward $255 $-1 #
coedge $-1 $156 $246 $382 $390 reversed $255 $-1 #
loop $-1 $-1 $253 $366 #
vertex $-1 $157 $391 #
vertex $-1 $157 $392 #
straight-curve $-1 57.282021546067689 0 13.551376964030514 0 1 0 I I #
face $-1 $393 $394 $37 $-1 $395 reversed single #
loop $-1 $-1 $396 $158 #
plane-surface $-1 -57.282021546067689 0 0 1 0 0 0 0 -1 forward_v I I I I #
coedge $-1 $397 $268 $273 $398 reversed $159 $-1 #
coedge $-1 $399 $161 $400 $401 reversed $101 $-1 #
coedge $-1 $161 $399 $397 $402 forward $101 $-1 #
coedge $-1 $273 $272 $161 $266 forward $274 $-1 #
edge $-1 $403 -22.235417288941946 $404 -10.260072868692273 $265 $405 forward 7 unknown #
coedge $-1 $163 $162 $396 $406 reversed $64 $-1 #
coedge $-1 $262 $407 $162 $269 reversed $159 $-1 #
edge $-1 $275 -57.282021546067689 $408 57.282021546067689 $268 $409 forward 7 unknown #
coedge $-1 $410 $411 $163 $271 forward $394 $-1 #
edge $-1 $276 -57.282021546067689 $412 57.282021546067689 $270 $413 forward 7 unknown #
coedge $-1 $265 $164 $411 $414 forward $274 $-1 #
coedge $-1 $164 $265 $262 $398 forward $274 $-1 #
loop $-1 $-1 $164 $393 #
vertex $-1 $165 $415 #
vertex $-1 $414 $416 #
straight-curve $-1 57.282021546067689 -16.247745078817111 0.49262301997498881 0 -1 0 I I #
face $-1 $417 $418 $38 $-1 $419 reversed single #
loop $-1 $-1 $172 $166 #
plane-surface $-1 57.282021546067689 0 0 -1 0 0 0 0 1 forward_v I I I I #
coedge $-1 $420 $289 $421 $422 reversed $167 $-1 #
coedge $-1 $423 $169 $420 $424 forward $105 $-1 #
coedge $-1 $169 $423 $425 $426 reversed $105 $-1 #
coedge $-1 $292 $291 $169 $285 forward $279 $-1 #
edge $-1 $427 10.260072868692273 $428 22.235417288941942 $284 $429 forward 7 unknown #
coedge $-1 $171 $170 $430 $431 reversed $67 $-1 #
coedge $-1 $432 $433 $170 $288 forward $434 $-1 #
edge $-1 $435 -57.282021546067689 $293 57.282021546067689 $287 $436 forward 7 unknown #
coedge $-1 $281 $437 $171 $290 reversed $167 $-1 #
edge $-1 $438 -57.282021546067689 $294 57.282021546067689 $289 $439 forward 7 unknown #
coedge $-1 $284 $172 $437 $440 forward $279 $-1 #
coedge $-1 $172 $284 $432 $441 reversed $279 $-1 #
vertex $-1 $441 $442 #
vertex $-1 $173 $443 #
straight-curve $-1 57.282021546067689 16.247745078817108 0.49262301997498881 0 -1 0 I I #
face $-1 $-1 $444 $39 $-1 $445 forward single #
loop $-1 $-1 $180 $174 #
plane-surface $-1 -57.282021546067689 0 0 1 0 0 0 0 -1 forward_v I I I I #
coedge $-1 $446 $447 $448 $449 reversed $175 $-1 #
coedge $-1 $450 $177 $179 $306 forward $109 $-1 #
coedge $-1 $177 $450 $446 $451 forward $109 $-1 #
coedge $-1 $448 $180 $177 $303 forward $297 $-1 #
edge $-1 $309 3.8833293554517869 $452 16.377435513188992 $302 $453 forward 7 unknown #
coedge $-1 $454 $455 $178 $305 forward $444 $-1 #
edge $-1 $456 -25.418065582902273 $308 -18.281674743355687 $304 $457 forward 7 unknown #
edge $-1 $309 -1.2442367137257826e-014 $456 12.441917993486175 $179 $458 forward 7 unknown #
coedge $-1 $180 $448 $454 $459 reversed $297 $-1 #
vertex $-1 $459 $460 #
vertex $-1 $181 $461 #
straight-curve $-1 -57.282021546067689 -14.013711789772177 34.535394271766556 0 0 -1 I I #
coedge $-1 $311 $311 $-1 $462 reversed $184 $-1 #
edge $-1 $463 0 $463 6.2831853071796004 $185 $464 forward 7 unknown #
vertex $-1 $188 $465 #
ellipse-curve $-1 -53.713826126294393 -22.938073331013037 8.4554656338102063 -0.81915205242281985 0 0.57357642473473569 0.57357642473473569 0 0.81915205242281985 1 I I #
coedge $-1 $315 $315 $-1 $466 reversed $191 $-1 #
edge $-1 $467 0 $467 6.2831853071796004 $192 $468 forward 7 unknown #
vertex $-1 $195 $469 #
ellipse-curve $-1 -53.713826126294393 -17.583456406268521 8.4554656338102063 -0.81915205242281985 0 0.57357642473473569 0.57357642473473569 0 0.81915205242281985 1 I I #
face $-1 $-1 $331 $42 $-1 $470 reversed single #
loop $-1 $-1 $471 $196 #
plane-surface $-1 0 0 13.551376964030514 0 0 1 1 0 0 forward_v I I I I #
coedge $-1 $472 $473 $474 $475 reversed $197 $-1 #
coedge $-1 $476 $199 $201 $329 forward $123 $-1 #
coedge $-1 $199 $476 $472 $477 forward $123 $-1 #
coedge $-1 $474 $202 $199 $326 forward $331 $-1 #
edge $-1 $333 -7.5644732746207861 $478 -1.1427472516402677 $325 $479 forward 7 unknown #
coedge $-1 $480 $481 $200 $328 forward $320 $-1 #
edge $-1 $482 2.3433628577257224 $332 7.6743344965327864 $327 $483 forward 7 unknown #
edge $-1 $333 -114.56404309213541 $482 -103.90209952883507 $201 $484 forward 7 unknown #
coedge $-1 $202 $474 $480 $485 reversed $331 $-1 #
loop $-1 $-1 $474 $319 #
vertex $-1 $485 $486 #
vertex $-1 $203 $487 #
straight-curve $-1 57.282021546067689 -11.918083537751313 80.407627738713103 0 0 -1 I I #
coedge $-1 $335 $335 $-1 $488 reversed $206 $-1 #
edge $-1 $489 0 $489 6.2831853071796004 $207 $490 forward 7 unknown #
vertex $-1 $210 $491 #
ellipse-curve $-1 54.616535726664146 -10.083304674042591 8.9346199330282374 0.86602541151947299 0 0.49999998660252726 0.12499999665063181 0 -0.21650635287986825 1 I I #
coedge $-1 $339 $339 $-1 $492 reversed $213 $-1 #
edge $-1 $493 0 $493 6.2831853071796004 $214 $494 forward 7 unknown #
vertex $-1 $217 $495 #
ellipse-curve $-1 54.616535726664146 -7.3311363784795098 8.9346199330282374 0.86602541151947299 0 0.49999998660252726 0.12499999665063181 0 -0.21650635287986825 1 I I #
face $-1 $-1 $496 $45 $-1 $497 forward single #
loop $-1 $-1 $224 $218 #
plane-surface $-1 57.282021546067689 0 0 -1 0 0 0 0 1 forward_v I I I I #
coedge $-1 $498 $499 $500 $501 reversed $219 $-1 #
coedge $-1 $502 $221 $223 $353 forward $137 $-1 #
coedge $-1 $221 $502 $498 $503 forward $137 $-1 #
coedge $-1 $500 $224 $221 $350 forward $344 $-1 #
edge $-1 $356 1.1427472516402641 $504 7.5644732746207826 $349 $505 forward 7 unknown #
coedge $-1 $506 $507 $222 $352 forward $496 $-1 #
edge $-1 $508 2.3433628577257224 $355 7.6743344965327864 $351 $509 forward 7 unknown #
edge $-1 $356 -114.56404309213541 $508 -103.90209952883507 $223 $510 forward 7 unknown #
coedge $-1 $224 $500 $506 $511 reversed $344 $-1 #
vertex $-1 $511 $512 #
vertex $-1 $225 $513 #
straight-curve $-1 57.282021546067689 5.4963575147707875 80.407627738713103 0 0 -1 I I #
coedge $-1 $358 $358 $-1 $514 reversed $228 $-1 #
edge $-1 $515 0 $515 6.2831853071796004 $229 $516 forward 7 unknown #
vertex $-1 $232 $517 #
ellipse-curve $-1 54.616535726664146 7.3311363784795134 8.9346199330282374 0.86602541151947299 0 0.49999998660252726 0.12499999665063181 0 -0.21650635287986825 1 I I #
coedge $-1 $362 $362 $-1 $518 reversed $235 $-1 #
edge $-1 $519 0 $519 6.2831853071796004 $236 $520 forward 7 unknown #
vertex $-1 $239 $521 #
ellipse-curve $-1 54.616535726664146 10.083304674042594 8.9346199330282374 0.86602541151947299 0 0.49999998660252726 0.12499999665063181 0 -0.21650635287986825 1 I I #
face $-1 $-1 $255 $36 $-1 $522 reversed single #
loop $-1 $-1 $382 $240 #
plane-surface $-1 0 38.483162367759057 0 0 -1 0 0 0 -1 forward_v I I I I #
coedge $-1 $523 $380 $383 $524 forward $241 $-1 #
coedge $-1 $386 $243 $244 $374 reversed $151 $-1 #
coedge $-1 $380 $523 $243 $372 reversed $241 $-1 #
edge $-1 $387 -13.551376964030514 $525 13.551376964030514 $371 $526 forward 7 unknown #
coedge $-1 $245 $244 $523 $527 forward $97 $-1 #
edge $-1 $378 -57.282021546067689 $525 57.282021546067689 $370 $528 forward 7 unknown #
coedge $-1 $383 $382 $245 $376 reversed $367 $-1 #
edge $-1 $529 -57.282021546067689 $377 57.282021546067689 $375 $530 forward 7 unknown #
vertex $-1 $247 $531 #
vertex $-1 $389 $532 #
straight-curve $-1 57.282021546067689 0 -13.551376964030514 0 -1 0 I I #
coedge $-1 $369 $371 $248 $381 reversed $241 $-1 #
edge $-1 $384 -38.483162367759057 $387 38.483162367759057 $380 $533 forward 7 unknown #
coedge $-1 $375 $249 $254 $390 forward $367 $-1 #
coedge $-1 $249 $375 $369 $524 reversed $367 $-1 #
vertex $-1 $250 $534 #
straight-curve $-1 0 38.483162367759057 13.551376964030514 -1 0 0 I I #
coedge $-1 $251 $370 $253 $389 reversed $151 $-1 #
vertex $-1 $381 $535 #
straight-curve $-1 0 -38.483162367759057 13.551376964030514 1 0 0 I I #
edge $-1 $256 -13.551376964030514 $378 13.551376964030514 $253 $536 forward 7 unknown #
edge $-1 $257 -13.551376964030514 $377 13.551376964030514 $254 $537 forward 7 unknown #
point $-1 57.282021546067689 -38.483162367759057 13.551376964030514 #
point $-1 57.282021546067689 38.483162367759057 13.551376964030514 #
face $-1 $-1 $274 $37 $-1 $538 reversed single #
loop $-1 $-1 $270 $259 #
plane-surface $-1 0 -38.483162367759057 0 0 1 0 0 0 1 forward_v I I I I #
coedge $-1 $539 $540 $267 $406 forward $260 $-1 #
coedge $-1 $407 $262 $264 $402 reversed $159 $-1 #
edge $-1 $404 -2.0036884900125056 $275 0.9963115099874944 $273 $541 forward 7 unknown #
coedge $-1 $264 $263 $542 $543 reversed $101 $-1 #
coedge $-1 $411 $410 $263 $401 forward $394 $-1 #
edge $-1 $544 -57.282021546067689 $403 57.282021546067689 $400 $545 forward 7 unknown #
edge $-1 $546 -57.282021546067689 $404 57.282021546067689 $397 $547 forward 7 unknown #
vertex $-1 $401 $548 #
vertex $-1 $266 $549 #
straight-curve $-1 57.282021546067689 -16.247745078817111 -2.5073769800250112 0 1 0 I I #
edge $-1 $412 -22.235417288941946 $408 -10.260072868692273 $396 $550 forward 7 unknown #
coedge $-1 $268 $397 $539 $551 reversed $159 $-1 #
vertex $-1 $406 $552 #
straight-curve $-1 0 -26.507817947509384 0.49262301997498881 -1 0 0 I I #
coedge $-1 $400 $270 $540 $553 forward $394 $-1 #
coedge $-1 $270 $400 $272 $414 reversed $394 $-1 #
vertex $-1 $553 $554 #
straight-curve $-1 0 -38.483162367759057 0.49262301997498881 -1 0 0 I I #
edge $-1 $276 -0.49262301997498881 $403 2.5073769800250112 $272 $555 forward 7 unknown #
point $-1 57.282021546067689 -26.507817947509384 0.49262301997498881 #
point $-1 57.282021546067689 -38.483162367759057 0.49262301997498881 #
face $-1 $-1 $434 $38 $-1 $556 reversed single #
loop $-1 $-1 $430 $278 #
plane-surface $-1 -57.282021546067689 0 0 1 0 0 0 0 -1 forward_v I I I I #
coedge $-1 $437 $281 $282 $424 reversed $167 $-1 #
coedge $-1 $430 $557 $281 $422 forward $418 $-1 #
edge $-1 $558 -2.0036884900125056 $438 0.9963115099874944 $421 $559 forward 7 unknown #
coedge $-1 $283 $282 $557 $560 reversed $105 $-1 #
edge $-1 $427 -57.282021546067689 $558 57.282021546067689 $420 $561 forward 7 unknown #
coedge $-1 $433 $432 $283 $426 forward $434 $-1 #
edge $-1 $428 -57.282021546067689 $562 57.282021546067689 $425 $563 forward 7 unknown #
vertex $-1 $285 $564 #
vertex $-1 $426 $565 #
straight-curve $-1 57.282021546067689 16.247745078817108 -2.5073769800250112 0 1 0 I I #
coedge $-1 $566 $421 $286 $431 forward $418 $-1 #
edge $-1 $438 10.260072868692273 $435 22.235417288941942 $430 $567 forward 7 unknown #
coedge $-1 $425 $287 $292 $441 forward $434 $-1 #
coedge $-1 $287 $425 $566 $568 reversed $434 $-1 #
loop $-1 $-1 $287 $417 #
vertex $-1 $568 $569 #
straight-curve $-1 0 38.483162367759057 0.49262301997498881 1 0 0 I I #
coedge $-1 $289 $420 $291 $440 reversed $167 $-1 #
vertex $-1 $431 $570 #
straight-curve $-1 0 26.50781794750938 0.49262301997498881 1 0 0 I I #
edge $-1 $294 -0.9963115099874944 $427 2.0036884900125056 $291 $571 forward 7 unknown #
edge $-1 $293 -0.49262301997498881 $428 2.5073769800250112 $292 $572 forward 7 unknown #
point $-1 57.282021546067689 38.48316236775905 0.49262301997498881 #
point $-1 57.282021546067689 26.50781794750938 0.49262301997498881 #
loop $-1 $-1 $304 $296 #
plane-surface $-1 0 0 13.551376964030514 0 0 1 1 0 0 forward_v I I I I #
coedge $-1 $447 $299 $301 $451 reversed $175 $-1 #
coedge $-1 $299 $446 $573 $574 reversed $175 $-1 #
coedge $-1 $307 $302 $299 $449 forward $297 $-1 #
edge $-1 $452 -31.175839968176664 $575 -20.984017307736043 $448 $576 forward 7 unknown #
coedge $-1 $301 $300 $455 $577 reversed $109 $-1 #
edge $-1 $578 -12.441917993486175 $452 1.2442367137257826e-014 $446 $579 forward 7 unknown #
vertex $-1 $303 $580 #
straight-curve $-1 -57.282021546067689 -10.13038243432039 3.3595543035898841 0 -1 0 I I #
coedge $-1 $573 $304 $307 $459 forward $444 $-1 #
coedge $-1 $304 $573 $450 $577 forward $444 $-1 #
vertex $-1 $305 $581 #
straight-curve $-1 -75.563696289423376 -14.013711789772177 13.551376964030514 -1 0 0 I I #
straight-curve $-1 -57.282021546067682 -14.013711789772177 3.3595543035899027 0.57357642473473569 0 0.81915205242281985 I I #
edge $-1 $308 14.013711789772177 $575 26.507817947509384 $307 $582 forward 7 unknown #
point $-1 -57.282021546067689 -14.013711789772177 13.551376964030514 #
point $-1 -57.282021546067689 -14.013711789772177 3.3595543035898925 #
edge $-1 $583 1 $583 0 $311 $-1 forward 7 unknown #
vertex $-1 $312 $584 #
ellipse-curve $-1 -51.254320026452667 -22.938073331013037 6.7333009744066192 -0.81915205242281985 0 0.57357642473473569 0.57357642473473569 0 0.81915205242281985 1 I I #
point $-1 -53.140249701559668 -22.938073331013037 9.2746176862330305 #
edge $-1 $585 1 $585 0 $315 $-1 forward 7 unknown #
vertex $-1 $316 $586 #
ellipse-curve $-1 -51.254320026452667 -17.583456406268521 6.7333009744066192 -0.81915205242281985 0 0.57357642473473569 0.57357642473473569 0 0.81915205242281985 1 I I #
point $-1 -53.140249701559668 -17.583456406268521 9.2746176862330305 #
plane-surface $-1 57.282021546067689 0 0 -1 0 0 0 0 1 forward_v I I I I #
coedge $-1 $481 $480 $473 $587 forward $320 $-1 #
coedge $-1 $473 $322 $324 $477 reversed $197 $-1 #
coedge $-1 $322 $472 $471 $587 reversed $197 $-1 #
coedge $-1 $330 $325 $322 $475 forward $331 $-1 #
edge $-1 $478 -76.089764836687152 $588 -66.856250774682593 $474 $589 forward 7 unknown #
coedge $-1 $324 $323 $481 $590 reversed $123 $-1 #
edge $-1 $591 103.90209952883507 $478 114.56404309213541 $472 $592 forward 7 unknown #
vertex $-1 $326 $593 #
straight-curve $-1 57.282021546067689 -4.3536102631305269 4.3178629020259578 0 1 0 I I #
coedge $-1 $471 $327 $330 $485 forward $320 $-1 #
coedge $-1 $327 $471 $476 $590 forward $320 $-1 #
vertex $-1 $328 $594 #
straight-curve $-1 49.607687049534903 -11.918083537751313 13.55137696403051 1 0 0 I I #
straight-curve $-1 1.534868630415076e-006 -11.918083537751313 103.53323546622715 -0.49999998660252726 0 0.86602541151947299 I I #
edge $-1 $332 -11.918083537751313 $588 -5.4963575147707946 $330 $595 forward 7 unknown #
point $-1 57.282021546067689 -11.918083537751313 13.551376964030514 #
point $-1 57.282021546067689 -11.918083537751313 4.3178629020259507 #
edge $-1 $596 1 $596 0 $335 $-1 forward 7 unknown #
vertex $-1 $336 $597 #
ellipse-curve $-1 53.750510315144687 -10.083304674042591 8.4346199464257179 0.86602541151947299 0 0.49999998660252726 0.12499999665063181 0 -0.21650635287986825 1 I I #
point $-1 54.741535723314797 -10.083304674042591 8.7181135801483762 #
edge $-1 $598 1 $598 0 $339 $-1 forward 7 unknown #
vertex $-1 $340 $599 #
ellipse-curve $-1 53.750510315144687 -7.3311363784795098 8.4346199464257179 0.86602541151947299 0 0.49999998660252726 0.12499999665063181 0 -0.21650635287986825 1 I I #
point $-1 54.741535723314797 -7.3311363784795098 8.7181135801483762 #
loop $-1 $-1 $351 $343 #
plane-surface $-1 0 0 13.551376964030514 0 0 1 1 0 0 forward_v I I I I #
coedge $-1 $499 $346 $348 $503 reversed $219 $-1 #
coedge $-1 $346 $498 $600 $601 reversed $219 $-1 #
coedge $-1 $354 $349 $346 $501 forward $344 $-1 #
edge $-1 $504 -76.089764836687152 $602 -66.856250774682593 $500 $603 forward 7 unknown #
coedge $-1 $348 $347 $507 $604 reversed $137 $-1 #
edge $-1 $605 103.90209952883507 $504 114.56404309213541 $498 $606 forward 7 unknown #
vertex $-1 $350 $607 #
straight-curve $-1 57.282021546067689 4.3536102631305234 4.3178629020259578 0 1 0 I I #
coedge $-1 $600 $351 $354 $511 forward $496 $-1 #
coedge $-1 $351 $600 $502 $604 forward $496 $-1 #
vertex $-1 $352 $608 #
straight-curve $-1 49.607687049534903 5.4963575147707875 13.55137696403051 1 0 0 I I #
straight-curve $-1 1.534868630415076e-006 5.4963575147707875 103.53323546622715 -0.49999998660252726 0 0.86602541151947299 I I #
edge $-1 $355 5.4963575147707875 $602 11.918083537751306 $354 $609 forward 7 unknown #
point $-1 57.282021546067689 5.4963575147707875 13.551376964030514 #
point $-1 57.282021546067689 5.4963575147707875 4.3178629020259507 #
edge $-1 $610 1 $610 0 $358 $-1 forward 7 unknown #
vertex $-1 $359 $611 #
ellipse-curve $-1 53.750510315144687 7.3311363784795134 8.4346199464257179 0.86602541151947299 0 0.49999998660252726 0.12499999665063181 0 -0.21650635287986825 1 I I #
point $-1 54.741535723314797 7.3311363784795134 8.7181135801483762 #
edge $-1 $612 1 $612 0 $362 $-1 forward 7 unknown #
vertex $-1 $363 $613 #
ellipse-curve $-1 53.750510315144687 10.083304674042594 8.4346199464257179 0.86602541151947299 0 0.49999998660252726 0.12499999665063181 0 -0.21650635287986825 1 I I #
point $-1 54.741535723314797 10.083304674042594 8.7181135801483762 #
plane-surface $-1 57.282021546067689 0 0 -1 0 0 0 0 1 forward_v I I I I #
coedge $-1 $371 $369 $373 $527 reversed $241 $-1 #
edge $-1 $384 -13.551376964030514 $529 13.551376964030514 $383 $614 forward 7 unknown #
vertex $-1 $527 $615 #
straight-curve $-1 -57.282021546067689 -38.483162367759057 0 0 0 -1 I I #
edge $-1 $525 -38.483162367759057 $529 38.483162367759057 $523 $616 forward 7 unknown #
straight-curve $-1 0 -38.483162367759057 -13.551376964030514 -1 0 0 I I #
vertex $-1 $376 $617 #
straight-curve $-1 0 38.483162367759057 -13.551376964030514 1 0 0 I I #
point $-1 57.282021546067689 38.483162367759057 -13.551376964030514 #
point $-1 57.282021546067689 -38.483162367759057 -13.551376964030514 #
straight-curve $-1 -57.282021546067689 0 13.551376964030514 0 -1 0 I I #
point $-1 -57.282021546067689 38.483162367759057 13.551376964030514 #
point $-1 -57.282021546067689 -38.483162367759057 13.551376964030514 #
straight-curve $-1 57.282021546067689 -38.483162367759057 0 0 0 -1 I I #
straight-curve $-1 57.282021546067689 38.483162367759057 0 0 0 -1 I I #
plane-surface $-1 57.282021546067689 0 0 -1 0 0 0 0 1 forward_v I I I I #
coedge $-1 $542 $396 $407 $551 forward $260 $-1 #
coedge $-1 $396 $542 $410 $553 reversed $260 $-1 #
straight-curve $-1 57.282021546067689 -26.507817947509384 -0.5036884900125056 0 0 1 I I #
coedge $-1 $540 $539 $399 $543 forward $260 $-1 #
edge $-1 $546 10.260072868692273 $544 22.235417288941946 $542 $618 forward 7 unknown #
vertex $-1 $401 $619 #
straight-curve $-1 0 -38.483162367759057 -2.5073769800250112 1 0 0 I I #
vertex $-1 $543 $620 #
straight-curve $-1 0 -26.507817947509384 -2.5073769800250112 1 0 0 I I #
point $-1 57.282021546067689 -38.483162367759057 -2.5073769800250112 #
point $-1 57.282021546067689 -26.507817947509384 -2.5073769800250112 #
straight-curve $-1 -57.282021546067689 -16.247745078817111 0.49262301997498881 0 1 0 I I #
edge $-1 $408 -0.9963115099874944 $546 2.0036884900125056 $539 $621 forward 7 unknown #
point $-1 -57.282021546067689 -26.507817947509384 0.49262301997498881 #
edge $-1 $412 -0.49262301997498881 $544 2.5073769800250112 $540 $622 forward 7 unknown #
point $-1 -57.282021546067689 -38.483162367759057 0.49262301997498881 #
straight-curve $-1 57.282021546067689 -38.483162367759057 0 0 0 -1 I I #
plane-surface $-1 0 38.483162367759057 0 0 -1 0 0 0 -1 forward_v I I I I #
coedge $-1 $421 $566 $423 $560 forward $418 $-1 #
vertex $-1 $560 $623 #
straight-curve $-1 -57.282021546067689 26.50781794750938 -0.5036884900125056 0 0 1 I I #
edge $-1 $562 -22.235417288941942 $558 -10.260072868692273 $557 $624 forward 7 unknown #
straight-curve $-1 0 26.50781794750938 -2.5073769800250112 -1 0 0 I I #
vertex $-1 $426 $625 #
straight-curve $-1 0 38.483162367759057 -2.5073769800250112 -1 0 0 I I #
point $-1 57.282021546067689 26.50781794750938 -2.5073769800250112 #
point $-1 57.282021546067689 38.48316236775905 -2.5073769800250112 #
coedge $-1 $557 $430 $433 $568 forward $418 $-1 #
straight-curve $-1 -57.282021546067689 16.247745078817108 0.49262301997498881 0 1 0 I I #
edge $-1 $435 -0.49262301997498881 $562 2.5073769800250112 $433 $626 forward 7 unknown #
point $-1 -57.282021546067689 38.48316236775905 0.49262301997498881 #
point $-1 -57.282021546067689 26.50781794750938 0.49262301997498881 #
straight-curve $-1 57.282021546067689 26.50781794750938 -0.5036884900125056 0 0 -1 I I #
straight-curve $-1 57.282021546067689 38.483162367759057 0 0 0 -1 I I #
coedge $-1 $455 $454 $447 $574 forward $444 $-1 #
edge $-1 $575 18.281674743355687 $578 25.418065582902273 $573 $627 forward 7 unknown #
vertex $-1 $574 $628 #
straight-curve $-1 -57.282021546067689 -26.507817947509384 34.535394271766556 0 0 1 I I #
edge $-1 $578 -16.377435513188992 $456 -3.8833293554517869 $455 $629 forward 7 unknown #
vertex $-1 $577 $630 #
straight-curve $-1 -57.282021546067682 -26.507817947509384 3.3595543035899027 -0.57357642473473569 0 -0.81915205242281985 I I #
point $-1 -57.282021546067689 -26.507817947509384 3.3595543035898925 #
point $-1 -50.145630706521104 -14.013711789772177 13.551376964030514 #
straight-curve $-1 -57.282021546067689 0 13.551376964030514 0 -1 0 I I #
vertex $-1 $462 $631 #
point $-1 -50.680743601717928 -22.938073331013037 7.552453026829439 #
vertex $-1 $466 $632 #
point $-1 -50.680743601717928 -17.583456406268521 7.552453026829439 #
edge $-1 $588 -7.6743344965327864 $591 -2.3433628577257224 $471 $633 forward 7 unknown #
vertex $-1 $475 $634 #
straight-curve $-1 57.282021546067689 -5.4963575147707946 80.407627738713103 0 0 1 I I #
edge $-1 $591 1.1427472516402677 $482 7.5644732746207861 $481 $635 forward 7 unknown #
vertex $-1 $590 $636 #
straight-curve $-1 1.534868630415076e-006 -5.4963575147707946 103.53323546622715 0.49999998660252726 0 -0.86602541151947299 I I #
point $-1 57.282021546067689 -5.4963575147707946 4.3178629020259507 #
point $-1 51.951049907260625 -11.918083537751313 13.55137696403051 #
straight-curve $-1 57.282021546067689 0 13.551376964030514 0 1 0 I I #
vertex $-1 $488 $637 #
point $-1 53.875510311795324 -10.083304674042591 8.2181135935458496 #
vertex $-1 $492 $638 #
point $-1 53.875510311795324 -7.3311363784795098 8.2181135935458496 #
coedge $-1 $507 $506 $499 $601 forward $496 $-1 #
edge $-1 $602 -7.6743344965327864 $605 -2.3433628577257224 $600 $639 forward 7 unknown #
vertex $-1 $601 $640 #
straight-curve $-1 57.282021546067689 11.918083537751306 80.407627738713103 0 0 1 I I #
edge $-1 $605 -7.5644732746207826 $508 -1.1427472516402641 $507 $641 forward 7 unknown #
vertex $-1 $604 $642 #
straight-curve $-1 1.534868630415076e-006 11.918083537751306 103.53323546622715 0.49999998660252726 0 -0.86602541151947299 I I #
point $-1 57.282021546067689 11.918083537751306 4.3178629020259507 #
point $-1 51.951049907260625 5.4963575147707875 13.55137696403051 #
straight-curve $-1 57.282021546067689 0 13.551376964030514 0 1 0 I I #
vertex $-1 $514 $643 #
point $-1 53.875510311795324 7.3311363784795134 8.2181135935458496 #
vertex $-1 $518 $644 #
point $-1 53.875510311795324 10.083304674042594 8.2181135935458496 #
straight-curve $-1 -57.282021546067689 38.483162367759057 0 0 0 -1 I I #
point $-1 -57.282021546067689 -38.483162367759057 -13.551376964030514 #
straight-curve $-1 -57.282021546067689 0 -13.551376964030514 0 1 0 I I #
point $-1 -57.282021546067689 38.483162367759057 -13.551376964030514 #
straight-curve $-1 -57.282021546067689 -16.247745078817111 -2.5073769800250112 0 -1 0 I I #
point $-1 -57.282021546067689 -38.483162367759057 -2.5073769800250112 #
point $-1 -57.282021546067689 -26.507817947509384 -2.5073769800250112 #
straight-curve $-1 -57.282021546067689 -26.507817947509384 -0.5036884900125056 0 0 -1 I I #
straight-curve $-1 -57.282021546067689 -38.483162367759057 0 0 0 -1 I I #
point $-1 -57.282021546067689 26.50781794750938 -2.5073769800250112 #
straight-curve $-1 -57.282021546067689 16.247745078817108 -2.5073769800250112 0 -1 0 I I #
point $-1 -57.282021546067689 38.48316236775905 -2.5073769800250112 #
straight-curve $-1 -57.282021546067689 38.483162367759057 0 0 0 -1 I I #
straight-curve $-1 -75.563696289423376 -26.507817947509384 13.551376964030514 1 0 0 I I #
point $-1 -57.282021546067689 -26.507817947509384 13.551376964030514 #
straight-curve $-1 -50.145630706521104 -10.13038243432039 13.551376964030514 0 1 0 I I #
point $-1 -50.145630706521104 -26.507817947509384 13.551376964030514 #
point $-1 -50.435167974029845 -22.938073331013037 6.1597245496718838 #
point $-1 -50.435167974029845 -17.583456406268521 6.1597245496718838 #
straight-curve $-1 49.607687049534903 -5.4963575147707946 13.55137696403051 -1 0 0 I I #
point $-1 57.282021546067689 -5.4963575147707946 13.551376964030514 #
straight-curve $-1 51.951049907260632 -4.3536102631305269 13.55137696403051 0 -1 0 I I #
point $-1 51.951049907260625 -5.4963575147707946 13.55137696403051 #
point $-1 53.534003962264826 -10.083304674042591 8.3096199497750849 #
point $-1 53.534003962264826 -7.3311363784795098 8.3096199497750849 #
straight-curve $-1 49.607687049534903 11.918083537751306 13.55137696403051 -1 0 0 I I #
point $-1 57.282021546067689 11.918083537751306 13.551376964030514 #
straight-curve $-1 51.951049907260632 4.3536102631305234 13.55137696403051 0 -1 0 I I #
point $-1 51.951049907260625 11.918083537751306 13.55137696403051 #
point $-1 53.534003962264826 7.3311363784795134 8.3096199497750849 #
point $-1 53.534003962264826 10.083304674042594 8.3096199497750849 #
End-of-ACIS-data 