500 0 8 0           
7 Unknown 11 ACIS 5.0 NT 24 Thu Mar 25 15:16:25 1999 
-1 9.9999999999999995e-007 1e-010 
body $-1 $8 $-1 $9 #
body $-1 $10 $-1 $11 #
body $-1 $12 $-1 $13 #
body $-1 $14 $-1 $15 #
body $-1 $16 $-1 $17 #
body $-1 $18 $-1 $19 #
body $-1 $20 $-1 $21 #
body $-1 $22 $-1 $23 #
lump $-1 $-1 $24 $0 #
transform $-1 1 0 0 0 1 0 0 0 1 42.137516403698847 18.682118695833474 8.2916975064395952 1 rotate no_reflect no_shear #
lump $-1 $-1 $25 $1 #
transform $-1 1 0 0 0 1 0 0 0 1 42.137516403698847 18.682118695833474 8.2916975064395952 1 rotate no_reflect no_shear #
lump $-1 $-1 $26 $2 #
transform $-1 1 0 0 0 1 0 0 0 1 42.137516403698847 18.682118695833474 8.2916975064395952 1 rotate no_reflect no_shear #
lump $-1 $-1 $27 $3 #
transform $-1 1 0 0 0 1 0 0 0 1 42.137516403698847 18.682118695833474 8.2916975064395952 1 rotate no_reflect no_shear #
lump $-1 $-1 $28 $4 #
transform $-1 1 0 0 0 1 0 0 0 1 42.137516403698847 18.682118695833474 8.2916975064395952 1 rotate no_reflect no_shear #
lump $-1 $-1 $29 $5 #
transform $-1 1 0 0 0 1 0 0 0 1 42.137516403698847 18.682118695833474 8.2916975064395952 1 rotate no_reflect no_shear #
lump $-1 $-1 $30 $6 #
transform $-1 1 0 0 0 1 0 0 0 1 42.137516403698847 18.682118695833474 8.2916975064395952 1 rotate no_reflect no_shear #
lump $-1 $-1 $31 $7 #
transform $-1 1 0 0 0 1 0 0 0 1 42.137516403698847 18.682118695833474 8.2916975064395952 1 rotate no_reflect no_shear #
shell $-1 $-1 $-1 $32 $-1 $8 #
shell $-1 $-1 $-1 $33 $-1 $10 #
shell $-1 $-1 $-1 $34 $-1 $12 #
shell $-1 $-1 $-1 $35 $-1 $14 #
shell $-1 $-1 $-1 $36 $-1 $16 #
shell $-1 $-1 $-1 $37 $-1 $18 #
shell $-1 $-1 $-1 $38 $-1 $20 #
shell $-1 $-1 $-1 $39 $-1 $22 #
face $-1 $40 $41 $24 $-1 $42 forward single #
face $-1 $43 $44 $25 $-1 $45 reversed single #
face $-1 $46 $47 $26 $-1 $48 reversed single #
face $-1 $49 $50 $27 $-1 $51 forward single #
face $-1 $52 $53 $28 $-1 $54 forward single #
face $-1 $55 $56 $29 $-1 $57 reversed single #
face $-1 $58 $59 $30 $-1 $60 forward single #
face $-1 $61 $62 $31 $-1 $63 forward single #
face $-1 $64 $65 $24 $-1 $66 reversed single #
loop $-1 $-1 $67 $32 #
plane-surface $-1 0 0 8.2916975064395952 0 0 1 1 0 0 forward_v I I I I #
face $-1 $68 $69 $25 $-1 $70 reversed single #
loop $-1 $-1 $71 $33 #
plane-surface $-1 0 -13.643415035823422 5.2916975064395952 0 0 1 1 0 0 forward_v I I I I #
face $-1 $72 $73 $26 $-1 $74 reversed single #
loop $-1 $-1 $75 $34 #
plane-surface $-1 -42.137516403698847 -5.3432554562835008 5.1497436471250424 -0.69465837861970381 0 0.71933979245794832 0.71933979245794832 0 0.69465837861970381 forward_v I I I I #
face $-1 $76 $77 $27 $-1 $78 forward single #
loop $-1 $79 $80 $35 #
cone-surface $-1 -39.832234082033253 -6.741022278939159 6.0181255710517805 0.69465837861970381 0 -0.71933979245794832 0.35966989622897416 0 0.3473291893098519 1 I I 0 1 0.5 forward I I I I #
face $-1 $81 $82 $28 $-1 $83 forward single #
loop $-1 $84 $85 $36 #
cone-surface $-1 -39.832234082033253 -3.9454886336278427 6.0181255710517805 0.69465837861970381 0 -0.71933979245794832 0.35966989622897416 0 0.3473291893098519 1 I I 0 1 0.5 forward I I I I #
face $-1 $86 $87 $29 $-1 $88 reversed single #
loop $-1 $-1 $89 $37 #
plane-surface $-1 52.524991615579829 -1.8549019653524894 123.15141577296328 0 -1 0 -0.7660444514056185 0 -0.64278759981090561 forward_v I I I I #
face $-1 $90 $91 $30 $-1 $92 forward single #
loop $-1 $93 $94 $38 #
cone-surface $-1 39.886444192324788 -6.6761944013959749 5.8302861940944748 -0.7660444514056185 0 -0.64278759981090561 0.3213937999054528 0 -0.38302222570280925 1 I I 0 1 0.5 forward I I I I #
face $-1 $95 $96 $31 $-1 $97 forward single #
loop $-1 $98 $99 $39 #
cone-surface $-1 39.886444192324788 -3.7834189397698843 5.8302861940944748 -0.7660444514056185 0 -0.64278759981090561 0.3213937999054528 0 -0.38302222570280925 1 I I 0 1 0.5 forward I I I I #
face $-1 $100 $101 $24 $-1 $102 reversed single #
loop $-1 $-1 $103 $40 #
plane-surface $-1 0 0 -8.2916975064395952 0 0 1 1 0 0 forward_v I I I I #
coedge $-1 $104 $105 $106 $107 forward $41 $-1 #
face $-1 $108 $109 $25 $-1 $110 reversed single #
loop $-1 $-1 $111 $43 #
plane-surface $-1 0 -8.6047113758133698 6.7916975064395952 0 -1 0 0 0 -1 forward_v I I I I #
coedge $-1 $112 $113 $114 $115 reversed $44 $-1 #
face $-1 $116 $117 $26 $-1 $118 forward single #
loop $-1 $-1 $119 $46 #
plane-surface $-1 -100.67987405180807 -2.0817995367536319 65.772128256185283 0 -1 0 0.69465837861970381 0 -0.71933979245794832 forward_v I I I I #
coedge $-1 $120 $121 $122 $123 reversed $47 $-1 #
face $-1 $-1 $124 $27 $-1 $125 forward single #
loop $-1 $126 $127 $49 #
cone-surface $-1 -38.980081361704947 -6.741022278939159 5.1356956172067623 0.69465837861970381 0 -0.71933979245794832 0.17983494811448708 0 0.17366459465492595 1 I I -0.70710678118654746 0.70710678118654746 0.25 forward I I I I #
loop $-1 $-1 $128 $35 #
coedge $-1 $80 $80 $129 $130 reversed $50 $-1 #
face $-1 $-1 $131 $28 $-1 $132 forward single #
loop $-1 $133 $134 $52 #
cone-surface $-1 -38.980081361704947 -3.9454886336278427 5.1356956172067623 0.69465837861970381 0 -0.71933979245794832 0.17983494811448708 0 0.17366459465492595 1 I I -0.70710678118654746 0.70710678118654746 0.25 forward I I I I #
loop $-1 $-1 $135 $36 #
coedge $-1 $85 $85 $136 $137 reversed $53 $-1 #
face $-1 $138 $139 $29 $-1 $140 forward single #
loop $-1 $-1 $141 $55 #
plane-surface $-1 -12.033429658553636 -5.2298066705829296 68.980469710710793 0.7660444514056185 0 0.64278759981090561 0.64278759981090561 0 -0.7660444514056185 forward_v I I I I #
coedge $-1 $142 $143 $144 $145 reversed $56 $-1 #
face $-1 $-1 $146 $30 $-1 $147 forward single #
loop $-1 $148 $149 $58 #
cone-surface $-1 39.067371379247341 -6.6761944013959749 5.1430025167277638 -0.7660444514056185 0 -0.64278759981090561 0.1606968999527264 0 -0.19151111285140462 1 I I -0.70710678118654746 0.70710678118654746 0.25 forward I I I I #
loop $-1 $-1 $150 $38 #
coedge $-1 $94 $94 $151 $152 reversed $59 $-1 #
face $-1 $-1 $153 $31 $-1 $154 forward single #
loop $-1 $155 $156 $61 #
cone-surface $-1 39.067371379247341 -3.7834189397698843 5.1430025167277638 -0.7660444514056185 0 -0.64278759981090561 0.1606968999527264 0 -0.19151111285140462 1 I I -0.70710678118654746 0.70710678118654746 0.25 forward I I I I #
loop $-1 $-1 $157 $39 #
coedge $-1 $99 $99 $158 $159 reversed $62 $-1 #
face $-1 $160 $161 $24 $-1 $162 reversed single #
loop $-1 $-1 $163 $64 #
plane-surface $-1 0 -18.682118695833474 0 0 1 0 0 0 1 forward_v I I I I #
coedge $-1 $164 $165 $166 $167 forward $65 $-1 #
coedge $-1 $168 $67 $169 $170 forward $41 $-1 #
coedge $-1 $67 $168 $171 $172 forward $41 $-1 #
coedge $-1 $173 $174 $67 $107 reversed $175 $-1 #
edge $-1 $176 -18.682118695833474 $177 18.682118695833474 $106 $178 forward 7 unknown #
face $-1 $179 $180 $25 $-1 $181 reversed single #
loop $-1 $-1 $182 $68 #
plane-surface $-1 -42.137516403698847 0 0 1 0 0 0 0 -1 forward_v I I I I #
coedge $-1 $183 $184 $185 $186 reversed $69 $-1 #
coedge $-1 $187 $71 $188 $189 reversed $44 $-1 #
coedge $-1 $71 $187 $183 $190 forward $44 $-1 #
coedge $-1 $185 $191 $71 $115 forward $192 $-1 #
edge $-1 $193 -11.860411177921762 $194 -1.7830038579016589 $114 $195 forward 7 unknown #
face $-1 $196 $197 $26 $-1 $198 reversed single #
loop $-1 $-1 $122 $72 #
plane-surface $-1 0 0 8.2916975064395952 0 0 1 1 0 0 forward_v I I I I #
coedge $-1 $199 $200 $201 $202 reversed $73 $-1 #
coedge $-1 $203 $75 $204 $205 reversed $47 $-1 #
coedge $-1 $75 $203 $199 $206 forward $47 $-1 #
coedge $-1 $201 $207 $75 $123 forward $117 $-1 #
edge $-1 $208 -5.9330836476716193 $209 0.58982819138811848 $122 $210 forward 7 unknown #
loop $-1 $-1 $129 $76 #
plane-surface $-1 -42.137516403698847 -5.3432554562835008 5.1497436471250424 -0.69465837861970381 0 0.71933979245794832 0.71933979245794832 0 0.69465837861970381 forward_v I I I I #
loop $-1 $-1 $211 $49 #
coedge $-1 $127 $127 $128 $212 reversed $77 $-1 #
coedge $-1 $128 $128 $127 $212 forward $79 $-1 #
coedge $-1 $129 $129 $80 $130 forward $124 $-1 #
edge $-1 $213 0 $213 6.2831853071796004 $129 $214 forward 7 unknown #
loop $-1 $-1 $136 $81 #
plane-surface $-1 -42.137516403698847 -5.3432554562835008 5.1497436471250424 -0.69465837861970381 0 0.71933979245794832 0.71933979245794832 0 0.69465837861970381 forward_v I I I I #
loop $-1 $-1 $215 $52 #
coedge $-1 $134 $134 $135 $216 reversed $82 $-1 #
coedge $-1 $135 $135 $134 $216 forward $84 $-1 #
coedge $-1 $136 $136 $85 $137 forward $131 $-1 #
edge $-1 $217 0 $217 6.2831853071796004 $136 $218 forward 7 unknown #
face $-1 $219 $220 $29 $-1 $221 forward single #
loop $-1 $-1 $222 $86 #
plane-surface $-1 0 -8.6047113758133698 6.7916975064395952 0 -1 0 0 0 -1 forward_v I I I I #
coedge $-1 $223 $224 $225 $226 reversed $87 $-1 #
coedge $-1 $143 $89 $227 $228 reversed $56 $-1 #
coedge $-1 $89 $142 $223 $229 reversed $56 $-1 #
coedge $-1 $225 $230 $89 $145 forward $220 $-1 #
edge $-1 $231 -15.875020595908932 $232 -12.627999573612914 $144 $233 forward 7 unknown #
loop $-1 $-1 $151 $90 #
plane-surface $-1 -12.033429658553636 -5.2298066705829296 68.980469710710793 0.7660444514056185 0 0.64278759981090561 0.64278759981090561 0 -0.7660444514056185 forward_v I I I I #
loop $-1 $-1 $234 $58 #
coedge $-1 $149 $149 $150 $235 reversed $91 $-1 #
coedge $-1 $150 $150 $149 $235 forward $93 $-1 #
coedge $-1 $151 $151 $94 $152 forward $146 $-1 #
edge $-1 $236 0 $236 6.2831853071796004 $151 $237 forward 7 unknown #
loop $-1 $-1 $158 $95 #
plane-surface $-1 -12.033429658553636 -5.2298066705829296 68.980469710710793 0.7660444514056185 0 0.64278759981090561 0.64278759981090561 0 -0.7660444514056185 forward_v I I I I #
loop $-1 $-1 $238 $61 #
coedge $-1 $156 $156 $157 $239 reversed $96 $-1 #
coedge $-1 $157 $157 $156 $239 forward $98 $-1 #
coedge $-1 $158 $158 $99 $159 forward $153 $-1 #
edge $-1 $240 0 $240 6.2831853071796004 $158 $241 forward 7 unknown #
face $-1 $242 $243 $24 $-1 $244 reversed single #
loop $-1 $-1 $245 $100 #
plane-surface $-1 -42.137516403698847 0 0 1 0 0 0 0 -1 forward_v I I I I #
coedge $-1 $246 $171 $247 $248 forward $101 $-1 #
coedge $-1 $249 $103 $246 $250 forward $65 $-1 #
coedge $-1 $103 $249 $251 $252 forward $65 $-1 #
coedge $-1 $174 $173 $103 $167 reversed $175 $-1 #
edge $-1 $253 -18.682118695833474 $254 18.682118695833474 $166 $255 forward 7 unknown #
coedge $-1 $105 $104 $256 $257 forward $41 $-1 #
coedge $-1 $258 $259 $104 $170 reversed $243 $-1 #
edge $-1 $177 -42.137516403698847 $260 42.137516403698847 $169 $261 forward 7 unknown #
coedge $-1 $163 $262 $105 $172 reversed $101 $-1 #
edge $-1 $263 -42.137516403698847 $176 42.137516403698847 $171 $264 forward 7 unknown #
coedge $-1 $166 $106 $262 $265 forward $175 $-1 #
coedge $-1 $106 $166 $258 $266 reversed $175 $-1 #
loop $-1 $-1 $173 $242 #
vertex $-1 $107 $267 #
vertex $-1 $107 $268 #
straight-curve $-1 42.137516403698847 0 8.2916975064395952 0 1 0 I I #
face $-1 $269 $270 $25 $-1 $271 forward single #
loop $-1 $-1 $188 $108 #
plane-surface $-1 0 -18.682118695833474 0 0 1 0 0 0 1 forward_v I I I I #
coedge $-1 $272 $273 $274 $275 forward $109 $-1 #
coedge $-1 $274 $111 $113 $190 reversed $69 $-1 #
coedge $-1 $111 $274 $276 $277 reversed $69 $-1 #
coedge $-1 $278 $114 $111 $186 forward $192 $-1 #
edge $-1 $194 1.8958487532197976 $279 4.8958487532197976 $185 $280 forward 7 unknown #
coedge $-1 $113 $112 $272 $281 reversed $44 $-1 #
coedge $-1 $282 $283 $112 $189 forward $180 $-1 #
edge $-1 $284 -42.137516403698847 $193 42.137516403698847 $188 $285 forward 7 unknown #
edge $-1 $286 -42.137516403698847 $194 42.137516403698847 $183 $287 forward 7 unknown #
coedge $-1 $114 $278 $282 $288 forward $192 $-1 #
loop $-1 $-1 $185 $269 #
vertex $-1 $189 $289 #
vertex $-1 $115 $290 #
straight-curve $-1 42.137516403698847 -6.8217075179117108 5.2916975064395952 0 1 0 I I #
face $-1 $-1 $291 $26 $-1 $292 forward single #
loop $-1 $-1 $293 $116 #
plane-surface $-1 -42.137516403698847 0 0 1 0 0 0 0 -1 forward_v I I I I #
coedge $-1 $200 $119 $121 $206 reversed $73 $-1 #
coedge $-1 $119 $199 $293 $294 reversed $73 $-1 #
coedge $-1 $295 $122 $119 $202 forward $117 $-1 #
edge $-1 $209 -11.456009014189597 $296 -8.2024206222051887 $201 $297 forward 7 unknown #
coedge $-1 $121 $120 $298 $299 reversed $47 $-1 #
coedge $-1 $300 $301 $120 $205 forward $291 $-1 #
edge $-1 $302 -15.725894655104966 $208 -11.202874482861944 $204 $303 forward 7 unknown #
edge $-1 $304 0 $209 4.5230201722430223 $199 $305 forward 7 unknown #
coedge $-1 $122 $295 $300 $306 forward $117 $-1 #
vertex $-1 $205 $307 #
vertex $-1 $123 $308 #
straight-curve $-1 -38.883928011714431 -2.6716277281417504 8.2916975064395952 0 1 0 I I #
coedge $-1 $211 $211 $-1 $309 reversed $126 $-1 #
edge $-1 $310 0 $310 6.2831853071796004 $127 $311 forward 7 unknown #
vertex $-1 $130 $312 #
ellipse-curve $-1 -40.510722207706642 -6.741022278939159 6.7207205767823188 -0.69465837861970381 0 0.71933979245794832 0.35966989622897416 0 0.3473291893098519 1 I I #
coedge $-1 $215 $215 $-1 $313 reversed $133 $-1 #
edge $-1 $314 0 $314 6.2831853071796004 $134 $315 forward 7 unknown #
vertex $-1 $137 $316 #
ellipse-curve $-1 -40.510722207706642 -3.9454886336278427 6.7207205767823188 -0.69465837861970381 0 0.71933979245794832 0.35966989622897416 0 0.3473291893098519 1 I I #
face $-1 $-1 $317 $29 $-1 $318 reversed single #
loop $-1 $-1 $225 $138 #
plane-surface $-1 0 0 8.2916975064395952 0 0 1 1 0 0 forward_v I I I I #
coedge $-1 $319 $320 $224 $321 reversed $139 $-1 #
coedge $-1 $322 $141 $143 $229 forward $87 $-1 #
coedge $-1 $141 $322 $222 $321 forward $87 $-1 #
coedge $-1 $323 $144 $141 $226 forward $220 $-1 #
edge $-1 $232 -0.76000136993897538 $324 5.989808040521905 $225 $325 forward 7 unknown #
coedge $-1 $326 $327 $142 $228 forward $317 $-1 #
edge $-1 $328 -57.153659449904296 $231 -53.284010380042041 $227 $329 forward 7 unknown #
edge $-1 $232 79.22356475908559 $328 84.275032807397693 $143 $330 forward 7 unknown #
coedge $-1 $144 $323 $326 $331 forward $220 $-1 #
vertex $-1 $228 $332 #
vertex $-1 $145 $333 #
straight-curve $-1 26.262495807789914 -1.8549019653524894 8.291697506439597 -1 0 0 I I #
coedge $-1 $234 $234 $-1 $334 reversed $148 $-1 #
edge $-1 $335 0 $335 6.2831853071796004 $149 $336 forward 7 unknown #
vertex $-1 $152 $337 #
ellipse-curve $-1 40.514005892550841 -6.6761944013959749 6.3568729715084675 0.7660444514056185 0 0.64278759981090561 0.3213937999054528 0 -0.38302222570280925 1 I I #
coedge $-1 $238 $238 $-1 $338 reversed $155 $-1 #
edge $-1 $339 0 $339 6.2831853071796004 $156 $340 forward 7 unknown #
vertex $-1 $159 $341 #
ellipse-curve $-1 40.514005892550841 -3.7834189397698843 6.3568729715084675 0.7660444514056185 0 0.64278759981090561 0.3213937999054528 0 -0.38302222570280925 1 I I #
face $-1 $-1 $175 $24 $-1 $342 reversed single #
loop $-1 $-1 $258 $160 #
plane-surface $-1 0 18.682118695833474 0 0 -1 0 0 0 -1 forward_v I I I I #
coedge $-1 $343 $256 $259 $344 forward $161 $-1 #
coedge $-1 $262 $163 $164 $250 reversed $101 $-1 #
coedge $-1 $256 $343 $163 $248 reversed $161 $-1 #
edge $-1 $263 -8.2916975064395952 $345 8.2916975064395952 $247 $346 forward 7 unknown #
coedge $-1 $165 $164 $343 $347 forward $65 $-1 #
edge $-1 $254 -42.137516403698847 $345 42.137516403698847 $246 $348 forward 7 unknown #
coedge $-1 $259 $258 $165 $252 reversed $243 $-1 #
edge $-1 $349 -42.137516403698847 $253 42.137516403698847 $251 $350 forward 7 unknown #
vertex $-1 $167 $351 #
vertex $-1 $265 $352 #
straight-curve $-1 42.137516403698847 0 -8.2916975064395952 0 -1 0 I I #
coedge $-1 $245 $247 $168 $257 reversed $161 $-1 #
edge $-1 $260 -18.682118695833474 $263 18.682118695833474 $256 $353 forward 7 unknown #
coedge $-1 $251 $169 $174 $266 forward $243 $-1 #
coedge $-1 $169 $251 $245 $344 reversed $243 $-1 #
vertex $-1 $170 $354 #
straight-curve $-1 0 18.682118695833474 8.2916975064395952 -1 0 0 I I #
coedge $-1 $171 $246 $173 $265 reversed $101 $-1 #
vertex $-1 $257 $355 #
straight-curve $-1 0 -18.682118695833474 8.2916975064395952 1 0 0 I I #
edge $-1 $176 -8.2916975064395952 $254 8.2916975064395952 $173 $356 forward 7 unknown #
edge $-1 $177 -8.2916975064395952 $253 8.2916975064395952 $174 $357 forward 7 unknown #
point $-1 42.137516403698847 -18.682118695833474 8.2916975064395952 #
point $-1 42.137516403698847 18.682118695833474 8.2916975064395952 #
face $-1 $-1 $192 $25 $-1 $358 reversed single #
loop $-1 $-1 $276 $179 #
plane-surface $-1 0 0 8.2916975064395952 0 0 1 1 0 0 forward_v I I I I #
coedge $-1 $359 $182 $187 $281 forward $109 $-1 #
coedge $-1 $182 $359 $360 $361 reversed $109 $-1 #
coedge $-1 $184 $183 $182 $275 reversed $69 $-1 #
edge $-1 $362 -4.8958487532197976 $286 -1.8958487532197976 $182 $363 forward 7 unknown #
coedge $-1 $360 $364 $184 $277 forward $270 $-1 #
edge $-1 $279 -42.137516403698847 $362 42.137516403698847 $276 $365 forward 7 unknown #
coedge $-1 $191 $185 $364 $366 reversed $192 $-1 #
vertex $-1 $186 $367 #
straight-curve $-1 42.137516403698847 -8.6047113758133698 3.3958487532197976 0 0 1 I I #
edge $-1 $286 1.7830038579016589 $284 11.860411177921762 $272 $368 forward 7 unknown #
coedge $-1 $369 $188 $191 $288 reversed $180 $-1 #
coedge $-1 $188 $369 $359 $370 forward $180 $-1 #
vertex $-1 $189 $371 #
straight-curve $-1 0 -18.682118695833474 5.2916975064395952 1 0 0 I I #
vertex $-1 $281 $372 #
straight-curve $-1 0 -8.6047113758133698 5.2916975064395952 1 0 0 I I #
edge $-1 $373 -8.2916975064395952 $193 -5.2916975064395952 $191 $374 forward 7 unknown #
point $-1 42.137516403698847 -18.682118695833474 5.2916975064395952 #
point $-1 42.137516403698847 -8.6047113758133698 5.2916975064395952 #
loop $-1 $-1 $204 $196 #
plane-surface $-1 0 -8.6047113758133698 6.7916975064395952 0 -1 0 0 0 -1 forward_v I I I I #
coedge $-1 $298 $375 $200 $294 forward $197 $-1 #
edge $-1 $296 24.594366621653045 $304 27.736320480967599 $293 $376 forward 7 unknown #
coedge $-1 $207 $201 $375 $377 forward $117 $-1 #
vertex $-1 $377 $378 #
straight-curve $-1 -50.339937025904035 -2.0817995367536319 8.291697506439597 -1 0 0 I I #
coedge $-1 $379 $293 $203 $299 forward $197 $-1 #
edge $-1 $304 -0.58982819138811848 $302 5.9330836476716193 $298 $380 forward 7 unknown #
coedge $-1 $301 $204 $207 $306 reversed $291 $-1 #
coedge $-1 $204 $300 $379 $381 reversed $291 $-1 #
vertex $-1 $381 $382 #
straight-curve $-1 -30.82525460628008 -8.6047113758133698 16.073868130584525 0.71933979245794832 0 0.69465837861970381 I I #
vertex $-1 $299 $383 #
straight-curve $-1 -42.137516403698847 -2.0817995367536319 5.1497436471250424 0.71933979245794832 0 0.69465837861970381 I I #
edge $-1 $384 -42.137516403698847 $208 -38.883928011714438 $207 $385 forward 7 unknown #
point $-1 -38.883928011714438 -8.6047113758133698 8.2916975064395952 #
point $-1 -38.883928011714438 -2.0817995367536319 8.2916975064395952 #
edge $-1 $386 1 $386 0 $211 $-1 forward 7 unknown #
vertex $-1 $212 $387 #
ellipse-curve $-1 -39.15374595635987 -6.741022278939159 5.3155305653212492 -0.69465837861970381 0 0.71933979245794832 0.35966989622897416 0 0.3473291893098519 1 I I #
point $-1 -40.151052311477663 -6.741022278939159 7.0680497660921624 #
edge $-1 $388 1 $388 0 $215 $-1 forward 7 unknown #
vertex $-1 $216 $389 #
ellipse-curve $-1 -39.15374595635987 -3.9454886336278427 5.3155305653212492 -0.69465837861970381 0 0.71933979245794832 0.35966989622897416 0 0.3473291893098519 1 I I #
point $-1 -40.151052311477663 -3.9454886336278427 7.0680497660921624 #
loop $-1 $-1 $227 $219 #
plane-surface $-1 42.137516403698847 0 0 -1 0 0 0 0 1 forward_v I I I I #
coedge $-1 $320 $222 $390 $391 reversed $139 $-1 #
coedge $-1 $222 $319 $323 $392 reversed $139 $-1 #
edge $-1 $393 -84.275032807397693 $324 -79.22356475908559 $222 $394 forward 7 unknown #
coedge $-1 $224 $223 $327 $395 reversed $87 $-1 #
coedge $-1 $230 $225 $320 $392 forward $220 $-1 #
vertex $-1 $392 $396 #
straight-curve $-1 38.890495381402822 -2.6149033352914648 8.291697506439597 0 -1 0 I I #
coedge $-1 $390 $227 $230 $331 reversed $317 $-1 #
coedge $-1 $227 $390 $322 $395 forward $317 $-1 #
vertex $-1 $228 $397 #
straight-curve $-1 42.137516403698847 -1.8549019653524894 61.575707886481638 0 0 1 I I #
straight-curve $-1 -12.033429658553636 -1.8549019653524894 68.980469710710793 0.64278759981090561 0 -0.7660444514056185 I I #
edge $-1 $398 -8.6047113758133698 $231 -1.8549019653524894 $326 $399 forward 7 unknown #
point $-1 42.137516403698847 -1.8549019653524894 8.2916975064395952 #
point $-1 38.890495381402829 -1.8549019653524894 8.291697506439597 #
edge $-1 $400 1 $400 0 $234 $-1 forward 7 unknown #
vertex $-1 $235 $401 #
ellipse-curve $-1 39.258882492098742 -6.6761944013959749 5.3036994166804901 0.7660444514056185 0 0.64278759981090561 0.3213937999054528 0 -0.38302222570280925 1 I I #
point $-1 40.835399692456285 -6.6761944013959749 5.9738507458056507 #
edge $-1 $402 1 $402 0 $238 $-1 forward 7 unknown #
vertex $-1 $239 $403 #
ellipse-curve $-1 39.258882492098742 -3.7834189397698843 5.3036994166804901 0.7660444514056185 0 0.64278759981090561 0.3213937999054528 0 -0.38302222570280925 1 I I #
point $-1 40.835399692456285 -3.7834189397698843 5.9738507458056507 #
plane-surface $-1 42.137516403698847 0 0 -1 0 0 0 0 1 forward_v I I I I #
coedge $-1 $247 $245 $249 $347 reversed $161 $-1 #
edge $-1 $260 -8.2916975064395952 $349 8.2916975064395952 $259 $404 forward 7 unknown #
vertex $-1 $347 $405 #
straight-curve $-1 -42.137516403698847 -18.682118695833474 0 0 0 -1 I I #
edge $-1 $345 -18.682118695833474 $349 18.682118695833474 $343 $406 forward 7 unknown #
straight-curve $-1 0 -18.682118695833474 -8.2916975064395952 -1 0 0 I I #
vertex $-1 $252 $407 #
straight-curve $-1 0 18.682118695833474 -8.2916975064395952 1 0 0 I I #
point $-1 42.137516403698847 18.682118695833474 -8.2916975064395952 #
point $-1 42.137516403698847 -18.682118695833474 -8.2916975064395952 #
straight-curve $-1 -42.137516403698847 0 8.2916975064395952 0 -1 0 I I #
point $-1 -42.137516403698847 18.682118695833474 8.2916975064395952 #
point $-1 -42.137516403698847 -18.682118695833474 8.2916975064395952 #
straight-curve $-1 42.137516403698847 -18.682118695833474 0 0 0 -1 I I #
straight-curve $-1 42.137516403698847 18.682118695833474 0 0 0 -1 I I #
plane-surface $-1 42.137516403698847 0 0 -1 0 0 0 0 1 forward_v I I I I #
coedge $-1 $273 $272 $283 $370 reversed $109 $-1 #
coedge $-1 $408 $276 $273 $361 forward $270 $-1 #
edge $-1 $362 8.6047113758133698 $409 18.682118695833474 $273 $410 forward 7 unknown #
vertex $-1 $361 $411 #
straight-curve $-1 -42.137516403698847 -8.6047113758133698 3.3958487532197976 0 0 -1 I I #
coedge $-1 $276 $408 $278 $366 forward $270 $-1 #
straight-curve $-1 0 -8.6047113758133698 8.2916975064395952 -1 0 0 I I #
edge $-1 $373 -18.682118695833474 $279 -8.6047113758133698 $278 $412 forward 7 unknown #
point $-1 42.137516403698847 -8.6047113758133698 8.2916975064395952 #
straight-curve $-1 -42.137516403698847 -6.8217075179117108 5.2916975064395952 0 -1 0 I I #
coedge $-1 $283 $282 $408 $413 reversed $180 $-1 #
edge $-1 $409 -8.2916975064395952 $284 -5.2916975064395952 $359 $414 forward 7 unknown #
point $-1 -42.137516403698847 -18.682118695833474 5.2916975064395952 #
point $-1 -42.137516403698847 -8.6047113758133698 5.2916975064395952 #
vertex $-1 $366 $415 #
straight-curve $-1 42.137516403698847 -18.682118695833474 0 0 0 -1 I I #
coedge $-1 $293 $379 $295 $377 reversed $197 $-1 #
straight-curve $-1 -42.137516403698847 -2.0817995367536319 32.886064128092642 0 0 -1 I I #
edge $-1 $296 2.0817995367536319 $384 8.6047113758133698 $375 $416 forward 7 unknown #
point $-1 -42.137516403698847 -2.0817995367536319 8.2916975064395952 #
coedge $-1 $375 $298 $301 $381 forward $197 $-1 #
straight-curve $-1 -42.137516403698847 -2.6716277281417504 5.1497436471250442 0 -1 0 I I #
edge $-1 $302 -27.736320480967599 $384 -24.594366621653045 $379 $417 forward 7 unknown #
point $-1 -42.137516403698847 -8.6047113758133698 5.1497436471250424 #
point $-1 -42.137516403698847 -2.0817995367536319 5.1497436471250424 #
vertex $-1 $381 $418 #
straight-curve $-1 0 -8.6047113758133698 8.2916975064395952 1 0 0 I I #
vertex $-1 $309 $419 #
point $-1 -38.794076060130898 -6.741022278939159 5.6628597546311017 #
vertex $-1 $313 $420 #
point $-1 -38.794076060130898 -3.9454886336278427 5.6628597546311017 #
coedge $-1 $327 $326 $319 $391 forward $317 $-1 #
edge $-1 $398 53.284010380042041 $393 57.153659449904296 $390 $421 forward 7 unknown #
edge $-1 $324 38.890495381402829 $398 42.137516403698847 $323 $422 forward 7 unknown #
vertex $-1 $391 $423 #
straight-curve $-1 -12.033429658553636 -8.6047113758133698 68.980469710710793 -0.64278759981090561 0 0.7660444514056185 I I #
edge $-1 $393 -5.989808040521905 $328 0.76000136993897538 $327 $424 forward 7 unknown #
point $-1 38.890495381402829 -8.6047113758133698 8.2916975064395952 #
point $-1 42.137516403698847 -1.8549019653524894 4.4220484365773416 #
vertex $-1 $331 $425 #
straight-curve $-1 42.137516403698847 0 8.2916975064395952 0 1 0 I I #
vertex $-1 $334 $426 #
point $-1 39.5802762920042 -6.6761944013959749 4.9206771909776812 #
vertex $-1 $338 $427 #
point $-1 39.5802762920042 -3.7834189397698843 4.9206771909776812 #
straight-curve $-1 -42.137516403698847 18.682118695833474 0 0 0 -1 I I #
point $-1 -42.137516403698847 -18.682118695833474 -8.2916975064395952 #
straight-curve $-1 -42.137516403698847 0 -8.2916975064395952 0 1 0 I I #
point $-1 -42.137516403698847 18.682118695833474 -8.2916975064395952 #
coedge $-1 $364 $360 $369 $413 forward $270 $-1 #
vertex $-1 $361 $428 #
straight-curve $-1 -42.137516403698847 0 8.2916975064395952 0 -1 0 I I #
point $-1 -42.137516403698847 -8.6047113758133698 8.2916975064395952 #
straight-curve $-1 42.137516403698847 0 8.2916975064395952 0 1 0 I I #
edge $-1 $409 -42.137516403698847 $373 42.137516403698847 $369 $429 forward 7 unknown #
straight-curve $-1 -42.137516403698847 -18.682118695833474 0 0 0 -1 I I #
point $-1 42.137516403698847 -18.682118695833474 8.2916975064395952 #
straight-curve $-1 -42.137516403698847 0 8.2916975064395952 0 -1 0 I I #
straight-curve $-1 -42.137516403698847 -8.6047113758133698 32.886064128092642 0 0 1 I I #
point $-1 -42.137516403698847 -8.6047113758133698 8.2916975064395952 #
point $-1 -38.806416767050024 -6.741022278939159 4.9558606690922753 #
point $-1 -38.806416767050024 -3.9454886336278427 4.9558606690922753 #
straight-curve $-1 42.137516403698847 -8.6047113758133698 61.575707886481638 0 0 -1 I I #
straight-curve $-1 0 -8.6047113758133698 8.2916975064395952 1 0 0 I I #
point $-1 42.137516403698847 -8.6047113758133698 4.4220484365773416 #
straight-curve $-1 42.137516403698847 -2.6149033352914648 4.4220484365773309 0 1 0 I I #
point $-1 42.137516403698847 -8.6047113758133698 8.2916975064395952 #
point $-1 38.875860266395939 -6.6761944013959749 4.9823056167750375 #
point $-1 38.875860266395939 -3.7834189397698843 4.9823056167750375 #
point $-1 -42.137516403698847 -18.682118695833474 8.2916975064395952 #
straight-curve $-1 0 -18.682118695833474 8.2916975064395952 1 0 0 I I #
End-of-ACIS-data 