500 0 4 0           
7 Unknown 11 ACIS 5.0 NT 24 Fri Mar 26 01:00:10 1999 
-1 9.9999999999999995e-007 1e-010 
body $-1 $4 $-1 $5 #
body $-1 $6 $-1 $7 #
body $-1 $8 $-1 $9 #
body $-1 $10 $-1 $11 #
lump $-1 $-1 $12 $0 #
transform $-1 1 0 0 0 1 0 0 0 1 61.7413861507004 38.764026023862392 18.229632942048561 1 rotate no_reflect no_shear #
lump $-1 $-1 $13 $1 #
transform $-1 1 0 0 0 1 0 0 0 1 61.7413861507004 38.764026023862392 18.229632942048561 1 rotate no_reflect no_shear #
lump $-1 $-1 $14 $2 #
transform $-1 1 0 0 0 1 0 0 0 1 61.7413861507004 38.764026023862392 18.229632942048561 1 rotate no_reflect no_shear #
lump $-1 $-1 $15 $3 #
transform $-1 1 0 0 0 1 0 0 0 1 61.7413861507004 38.764026023862392 18.229632942048561 1 rotate no_reflect no_shear #
shell $-1 $-1 $-1 $16 $-1 $4 #
shell $-1 $-1 $-1 $17 $-1 $6 #
shell $-1 $-1 $-1 $18 $-1 $8 #
shell $-1 $-1 $-1 $19 $-1 $10 #
face $-1 $20 $21 $12 $-1 $22 forward single #
face $-1 $23 $24 $13 $-1 $25 reversed single #
face $-1 $26 $27 $14 $-1 $28 reversed single #
face $-1 $29 $30 $15 $-1 $31 forward single #
face $-1 $32 $33 $12 $-1 $34 reversed single #
loop $-1 $-1 $35 $16 #
plane-surface $-1 0 0 18.229632942048561 0 0 1 1 0 0 forward_v I I I I #
face $-1 $36 $37 $13 $-1 $38 reversed single #
loop $-1 $-1 $39 $17 #
plane-surface $-1 -50.026342059065549 0 10.546004274101156 0 0 1 1 0 0 forward_v I I I I #
face $-1 $40 $41 $14 $-1 $42 reversed single #
loop $-1 $-1 $43 $18 #
plane-surface $-1 39.575339078706385 -109.59083542405656 109.82174190835431 -1 0 0 0 -0.57357644374324357 0.81915203911291934 forward_v I I I I #
face $-1 $44 $45 $15 $-1 $46 forward single #
loop $-1 $47 $48 $19 #
cone-surface $-1 30.671605924793475 -29.955535820180394 10.618634428510486 0 0.57357644374324357 -0.81915203911291934 3 0 0 1 I I 0 1 3 forward I I I I #
face $-1 $49 $50 $12 $-1 $51 reversed single #
loop $-1 $-1 $52 $20 #
plane-surface $-1 0 0 -18.229632942048561 0 0 1 1 0 0 forward_v I I I I #
coedge $-1 $53 $54 $55 $56 forward $21 $-1 #
face $-1 $57 $58 $13 $-1 $59 reversed single #
loop $-1 $-1 $60 $23 #
plane-surface $-1 -38.311297967430697 0 14.387818608074859 -1 0 0 0 0 1 forward_v I I I I #
coedge $-1 $61 $62 $63 $64 forward $24 $-1 #
face $-1 $65 $66 $14 $-1 $67 reversed single #
loop $-1 $-1 $68 $26 #
plane-surface $-1 30.671605924793475 -38.764026023862399 8.6705771823455251 0 -0.57357644374324357 0.81915203911291934 1 0 0 forward_v I I I I #
coedge $-1 $69 $70 $71 $72 reversed $27 $-1 #
face $-1 $-1 $73 $15 $-1 $74 forward single #
loop $-1 $75 $76 $29 #
cone-surface $-1 30.671605924793475 -27.112554034559203 6.5584357361545464 0 0.57357644374324357 -0.81915203911291934 1.5 0 0 1 I I -0.70710678118654757 0.70710678118654757 1.5 forward I I I I #
loop $-1 $-1 $77 $19 #
coedge $-1 $48 $48 $78 $79 reversed $30 $-1 #
face $-1 $80 $81 $12 $-1 $82 reversed single #
loop $-1 $-1 $83 $32 #
plane-surface $-1 0 -38.764026023862392 0 0 1 0 0 0 1 forward_v I I I I #
coedge $-1 $84 $85 $86 $87 forward $33 $-1 #
coedge $-1 $88 $35 $89 $90 forward $21 $-1 #
coedge $-1 $35 $88 $91 $92 forward $21 $-1 #
coedge $-1 $93 $94 $35 $56 reversed $95 $-1 #
edge $-1 $96 -38.764026023862392 $97 38.764026023862392 $55 $98 forward 7 unknown #
face $-1 $99 $100 $13 $-1 $101 reversed single #
loop $-1 $-1 $102 $36 #
plane-surface $-1 0 38.764026023862392 0 0 -1 0 0 0 -1 forward_v I I I I #
coedge $-1 $63 $103 $104 $105 reversed $37 $-1 #
coedge $-1 $106 $39 $107 $108 reversed $24 $-1 #
coedge $-1 $39 $106 $109 $110 reversed $24 $-1 #
coedge $-1 $111 $60 $39 $64 reversed $37 $-1 #
edge $-1 $112 -38.764026023862392 $113 38.764026023862392 $63 $114 forward 7 unknown #
face $-1 $115 $116 $14 $-1 $117 reversed single #
loop $-1 $-1 $118 $40 #
plane-surface $-1 21.767872770880565 -109.59083542405656 109.82174190835431 1 0 0 0 0.57357644374324357 -0.81915203911291934 forward_v I I I I #
coedge $-1 $119 $120 $121 $122 reversed $41 $-1 #
coedge $-1 $70 $43 $123 $124 reversed $27 $-1 #
coedge $-1 $43 $69 $119 $125 reversed $27 $-1 #
coedge $-1 $121 $126 $43 $72 forward $127 $-1 #
edge $-1 $128 16.03139168816589 $129 29.683137855517224 $71 $130 forward 7 unknown #
loop $-1 $-1 $78 $44 #
plane-surface $-1 30.671605924793475 -38.764026023862399 8.6705771823455251 0 -0.57357644374324357 0.81915203911291934 1 0 0 forward_v I I I I #
loop $-1 $-1 $131 $29 #
coedge $-1 $76 $76 $77 $132 reversed $45 $-1 #
coedge $-1 $77 $77 $76 $132 forward $47 $-1 #
coedge $-1 $78 $78 $48 $79 forward $73 $-1 #
edge $-1 $133 2.9081992561647466e-016 $133 6.2831853071796004 $78 $134 forward 7 unknown #
face $-1 $135 $136 $12 $-1 $137 reversed single #
loop $-1 $-1 $138 $49 #
plane-surface $-1 -61.7413861507004 0 0 1 0 0 0 0 -1 forward_v I I I I #
coedge $-1 $139 $91 $140 $141 forward $50 $-1 #
coedge $-1 $142 $52 $139 $143 forward $33 $-1 #
coedge $-1 $52 $142 $144 $145 forward $33 $-1 #
coedge $-1 $94 $93 $52 $87 reversed $95 $-1 #
edge $-1 $146 -38.764026023862392 $147 38.764026023862392 $86 $148 forward 7 unknown #
coedge $-1 $54 $53 $149 $150 forward $21 $-1 #
coedge $-1 $151 $152 $53 $90 reversed $136 $-1 #
edge $-1 $97 -61.7413861507004 $153 61.7413861507004 $89 $154 forward 7 unknown #
coedge $-1 $83 $155 $54 $92 reversed $50 $-1 #
edge $-1 $156 -61.7413861507004 $96 61.7413861507004 $91 $157 forward 7 unknown #
coedge $-1 $86 $55 $155 $158 forward $95 $-1 #
coedge $-1 $55 $86 $151 $159 reversed $95 $-1 #
loop $-1 $-1 $93 $135 #
vertex $-1 $56 $160 #
vertex $-1 $56 $161 #
straight-curve $-1 61.7413861507004 0 18.229632942048561 0 1 0 I I #
face $-1 $162 $163 $13 $-1 $164 forward single #
loop $-1 $-1 $165 $57 #
plane-surface $-1 -61.7413861507004 0 0 1 0 0 0 0 -1 forward_v I I I I #
coedge $-1 $109 $166 $111 $167 forward $58 $-1 #
coedge $-1 $60 $111 $168 $169 reversed $37 $-1 #
coedge $-1 $170 $107 $60 $105 forward $171 $-1 #
edge $-1 $113 3.3520949700637264 $172 11.035723638011131 $104 $173 forward 7 unknown #
coedge $-1 $62 $61 $165 $174 reversed $24 $-1 #
coedge $-1 $104 $175 $61 $108 forward $171 $-1 #
edge $-1 $176 -36.728215121167622 $113 -13.298126937897923 $107 $177 forward 7 unknown #
coedge $-1 $178 $102 $62 $110 forward $58 $-1 #
edge $-1 $112 13.298126937897923 $179 36.728215121167622 $109 $180 forward 7 unknown #
coedge $-1 $103 $63 $102 $167 reversed $37 $-1 #
vertex $-1 $110 $181 #
vertex $-1 $108 $182 #
straight-curve $-1 -38.311297967430697 0 10.546004274101156 0 -1 0 I I #
face $-1 $-1 $127 $14 $-1 $183 forward single #
loop $-1 $-1 $184 $65 #
plane-surface $-1 0 -38.764026023862392 0 0 1 0 0 0 1 forward_v I I I I #
coedge $-1 $185 $186 $187 $188 reversed $66 $-1 #
coedge $-1 $189 $68 $70 $125 forward $41 $-1 #
coedge $-1 $68 $189 $185 $190 forward $41 $-1 #
coedge $-1 $187 $71 $68 $122 forward $127 $-1 #
edge $-1 $129 -24.239536116309647 $191 -6.4320698084838277 $121 $192 forward 7 unknown #
coedge $-1 $193 $194 $69 $124 forward $116 $-1 #
edge $-1 $195 -46.240293771831624 $128 -36.681238012128595 $123 $196 forward 7 unknown #
edge $-1 $129 -16.665704918631668 $195 -8.8770546250341341e-015 $70 $197 forward 7 unknown #
coedge $-1 $71 $187 $193 $198 forward $127 $-1 #
loop $-1 $-1 $187 $115 #
vertex $-1 $124 $199 #
vertex $-1 $72 $200 #
straight-curve $-1 39.575339078706385 -54.795417712028282 18.229632942048561 0 1 0 I I #
coedge $-1 $131 $131 $-1 $201 reversed $75 $-1 #
edge $-1 $202 0 $202 6.2831853071796004 $76 $203 forward 7 unknown #
vertex $-1 $79 $204 #
ellipse-curve $-1 30.671605924793475 -31.938152940186722 13.450105062197048 0 -0.57357644374324357 0.81915203911291934 3 0 0 1 I I #
face $-1 $-1 $95 $12 $-1 $205 reversed single #
loop $-1 $-1 $151 $80 #
plane-surface $-1 0 38.764026023862392 0 0 -1 0 0 0 -1 forward_v I I I I #
coedge $-1 $206 $149 $152 $207 forward $81 $-1 #
coedge $-1 $155 $83 $84 $143 reversed $50 $-1 #
coedge $-1 $149 $206 $83 $141 reversed $81 $-1 #
edge $-1 $156 -18.229632942048561 $208 18.229632942048561 $140 $209 forward 7 unknown #
coedge $-1 $85 $84 $206 $210 forward $33 $-1 #
edge $-1 $147 -61.7413861507004 $208 61.7413861507004 $139 $211 forward 7 unknown #
coedge $-1 $152 $151 $85 $145 reversed $136 $-1 #
edge $-1 $212 -61.7413861507004 $146 61.7413861507004 $144 $213 forward 7 unknown #
vertex $-1 $87 $214 #
vertex $-1 $158 $215 #
straight-curve $-1 61.7413861507004 0 -18.229632942048561 0 -1 0 I I #
coedge $-1 $138 $140 $88 $150 reversed $81 $-1 #
edge $-1 $153 -38.764026023862392 $156 38.764026023862392 $149 $216 forward 7 unknown #
coedge $-1 $144 $89 $94 $159 forward $136 $-1 #
coedge $-1 $89 $144 $138 $207 reversed $136 $-1 #
vertex $-1 $90 $217 #
straight-curve $-1 0 38.764026023862392 18.229632942048561 -1 0 0 I I #
coedge $-1 $91 $139 $93 $158 reversed $50 $-1 #
vertex $-1 $150 $218 #
straight-curve $-1 0 -38.764026023862392 18.229632942048561 1 0 0 I I #
edge $-1 $96 -18.229632942048561 $147 18.229632942048561 $93 $219 forward 7 unknown #
edge $-1 $97 -18.229632942048561 $146 18.229632942048561 $94 $220 forward 7 unknown #
point $-1 61.7413861507004 -38.764026023862392 18.229632942048561 #
point $-1 61.7413861507004 38.764026023862392 18.229632942048561 #
face $-1 $-1 $171 $13 $-1 $221 reversed single #
loop $-1 $-1 $168 $99 #
plane-surface $-1 0 0 18.229632942048561 0 0 1 1 0 0 forward_v I I I I #
coedge $-1 $222 $223 $106 $174 forward $100 $-1 #
coedge $-1 $102 $178 $224 $225 reversed $58 $-1 #
edge $-1 $226 -11.035723638011131 $112 -3.3520949700637264 $102 $227 forward 7 unknown #
coedge $-1 $224 $228 $103 $169 forward $163 $-1 #
edge $-1 $172 -38.764026023862392 $226 38.764026023862392 $168 $229 forward 7 unknown #
coedge $-1 $175 $104 $228 $230 reversed $171 $-1 #
loop $-1 $-1 $104 $162 #
vertex $-1 $105 $231 #
straight-curve $-1 -38.311297967430697 -38.764026023862392 7.1939093040374296 0 0 1 I I #
edge $-1 $179 -38.764026023862392 $176 38.764026023862392 $165 $232 forward 7 unknown #
coedge $-1 $107 $170 $222 $233 forward $171 $-1 #
vertex $-1 $174 $234 #
straight-curve $-1 -25.013171029532774 -38.764026023862392 10.546004274101156 1 0 0 I I #
coedge $-1 $166 $109 $223 $235 reversed $58 $-1 #
vertex $-1 $174 $236 #
straight-curve $-1 -25.013171029532774 38.764026023862392 10.546004274101156 -1 0 0 I I #
point $-1 -38.311297967430697 38.764026023862392 10.546004274101156 #
point $-1 -38.311297967430697 -38.764026023862392 10.546004274101156 #
plane-surface $-1 0 0 18.229632942048561 0 0 1 1 0 0 forward_v I I I I #
coedge $-1 $194 $193 $186 $237 forward $116 $-1 #
coedge $-1 $186 $118 $120 $190 reversed $66 $-1 #
coedge $-1 $118 $185 $184 $237 reversed $66 $-1 #
coedge $-1 $126 $121 $118 $188 forward $127 $-1 #
edge $-1 $191 -29.683137855517224 $238 -16.03139168816589 $187 $239 forward 7 unknown #
coedge $-1 $120 $119 $194 $240 reversed $41 $-1 #
edge $-1 $241 8.8770546250341341e-015 $191 16.665704918631668 $185 $242 forward 7 unknown #
vertex $-1 $122 $243 #
straight-curve $-1 15.335802962396738 -25.112279856511055 18.229632942048561 -1 0 0 I I #
coedge $-1 $184 $123 $126 $198 reversed $116 $-1 #
coedge $-1 $123 $184 $189 $240 forward $116 $-1 #
vertex $-1 $124 $244 #
straight-curve $-1 39.575339078706385 -38.764026023862392 54.910870954177156 0 0 1 I I #
straight-curve $-1 39.575339078706385 -38.764026023862399 8.6705771823455251 0 -0.81915203911291934 -0.57357644374324357 I I #
edge $-1 $238 21.767872770880565 $128 39.575339078706385 $193 $245 forward 7 unknown #
point $-1 39.575339078706385 -38.764026023862392 18.229632942048561 #
point $-1 39.575339078706385 -25.112279856511059 18.229632942048561 #
edge $-1 $246 1 $246 0 $131 $-1 forward 7 unknown #
vertex $-1 $132 $247 #
ellipse-curve $-1 30.671605924793475 -27.97291870017407 7.7871637948239254 0 -0.57357644374324357 0.81915203911291934 3 0 0 1 I I #
point $-1 33.671605924793475 -31.938152940186718 13.450105062197045 #
plane-surface $-1 61.7413861507004 0 0 -1 0 0 0 0 1 forward_v I I I I #
coedge $-1 $140 $138 $142 $210 reversed $81 $-1 #
edge $-1 $153 -18.229632942048561 $212 18.229632942048561 $152 $248 forward 7 unknown #
vertex $-1 $210 $249 #
straight-curve $-1 -61.7413861507004 -38.764026023862392 0 0 0 -1 I I #
edge $-1 $208 -38.764026023862392 $212 38.764026023862392 $206 $250 forward 7 unknown #
straight-curve $-1 0 -38.764026023862392 -18.229632942048561 -1 0 0 I I #
vertex $-1 $145 $251 #
straight-curve $-1 0 38.764026023862392 -18.229632942048561 1 0 0 I I #
point $-1 61.7413861507004 38.764026023862392 -18.229632942048561 #
point $-1 61.7413861507004 -38.764026023862392 -18.229632942048561 #
straight-curve $-1 -61.7413861507004 0 18.229632942048561 0 -1 0 I I #
point $-1 -61.7413861507004 38.764026023862392 18.229632942048561 #
point $-1 -61.7413861507004 -38.764026023862392 18.229632942048561 #
straight-curve $-1 61.7413861507004 -38.764026023862392 0 0 0 -1 I I #
straight-curve $-1 61.7413861507004 38.764026023862392 0 0 0 -1 I I #
plane-surface $-1 0 -38.764026023862392 0 0 1 0 0 0 1 forward_v I I I I #
coedge $-1 $252 $165 $175 $233 reversed $100 $-1 #
coedge $-1 $165 $252 $178 $235 forward $100 $-1 #
coedge $-1 $253 $168 $166 $225 forward $163 $-1 #
edge $-1 $226 38.311297967430697 $254 61.7413861507004 $166 $255 forward 7 unknown #
vertex $-1 $225 $256 #
straight-curve $-1 -38.311297967430697 38.764026023862392 7.1939093040374296 0 0 -1 I I #
coedge $-1 $168 $253 $170 $230 forward $163 $-1 #
straight-curve $-1 -38.311297967430697 0 18.229632942048561 0 1 0 I I #
edge $-1 $257 -61.7413861507004 $172 -38.311297967430697 $170 $258 forward 7 unknown #
point $-1 -38.311297967430697 -38.764026023862392 18.229632942048561 #
straight-curve $-1 -61.7413861507004 0 10.546004274101156 0 -1 0 I I #
edge $-1 $257 -18.229632942048561 $176 -10.546004274101156 $222 $259 forward 7 unknown #
point $-1 -61.7413861507004 -38.764026023862392 10.546004274101156 #
edge $-1 $254 -18.229632942048561 $179 -10.546004274101156 $178 $260 forward 7 unknown #
point $-1 -61.7413861507004 38.764026023862392 10.546004274101156 #
edge $-1 $238 36.681238012128595 $241 46.240293771831624 $184 $261 forward 7 unknown #
vertex $-1 $198 $262 #
straight-curve $-1 21.767872770880565 -54.795417712028282 18.229632942048561 0 -1 0 I I #
edge $-1 $241 6.4320698084838277 $195 24.239536116309647 $194 $263 forward 7 unknown #
vertex $-1 $240 $264 #
straight-curve $-1 21.767872770880565 -38.764026023862399 8.6705771823455251 0 0.81915203911291934 0.57357644374324357 I I #
point $-1 21.767872770880565 -25.112279856511059 18.229632942048561 #
point $-1 39.575339078706385 -38.764026023862392 8.6705771823455304 #
straight-curve $-1 0 -38.764026023862392 18.229632942048561 1 0 0 I I #
vertex $-1 $201 $265 #
point $-1 33.671605924793475 -27.97291870017407 7.7871637948239254 #
straight-curve $-1 -61.7413861507004 38.764026023862392 0 0 0 -1 I I #
point $-1 -61.7413861507004 -38.764026023862392 -18.229632942048561 #
straight-curve $-1 -61.7413861507004 0 -18.229632942048561 0 1 0 I I #
point $-1 -61.7413861507004 38.764026023862392 -18.229632942048561 #
coedge $-1 $223 $222 $253 $266 reversed $100 $-1 #
coedge $-1 $228 $224 $252 $266 forward $163 $-1 #
vertex $-1 $225 $267 #
straight-curve $-1 0 38.764026023862392 18.229632942048561 -1 0 0 I I #
point $-1 -38.311297967430697 38.764026023862392 18.229632942048561 #
vertex $-1 $266 $268 #
straight-curve $-1 0 -38.764026023862392 18.229632942048561 1 0 0 I I #
straight-curve $-1 -61.7413861507004 -38.764026023862392 0 0 0 -1 I I #
straight-curve $-1 -61.7413861507004 38.764026023862392 0 0 0 -1 I I #
straight-curve $-1 21.767872770880565 -38.764026023862392 54.910870954177156 0 0 -1 I I #
point $-1 21.767872770880565 -38.764026023862392 18.229632942048561 #
straight-curve $-1 15.335802962396738 -38.764026023862392 8.6705771823455322 1 0 0 I I #
point $-1 21.767872770880565 -38.764026023862392 8.6705771823455304 #
point $-1 30.671605924793475 -26.252189368944336 5.3297076774851675 #
edge $-1 $254 -38.764026023862392 $257 38.764026023862392 $252 $269 forward 7 unknown #
point $-1 -61.7413861507004 38.764026023862392 18.229632942048561 #
point $-1 -61.7413861507004 -38.764026023862392 18.229632942048561 #
straight-curve $-1 -61.7413861507004 0 18.229632942048561 0 -1 0 I I #
End-of-ACIS-data 