500 0 5 0           
7 Unknown 11 ACIS 5.0 NT 24 Thu Mar 25 19:37:09 1999 
-1 9.9999999999999995e-007 1e-010 
body $-1 $5 $-1 $6 #
body $-1 $7 $-1 $8 #
body $-1 $9 $-1 $10 #
body $-1 $11 $-1 $12 #
body $-1 $13 $-1 $14 #
lump $-1 $-1 $15 $0 #
transform $-1 1 0 0 0 1 0 0 0 1 55.6755272072512 32.236142146937176 14.209402614980695 1 rotate no_reflect no_shear #
lump $-1 $-1 $16 $1 #
transform $-1 1 0 0 0 1 0 0 0 1 55.6755272072512 32.236142146937176 14.209402614980695 1 rotate no_reflect no_shear #
lump $-1 $-1 $17 $2 #
transform $-1 1 0 0 0 1 0 0 0 1 55.6755272072512 32.236142146937176 14.209402614980695 1 rotate no_reflect no_shear #
lump $-1 $-1 $18 $3 #
transform $-1 1 0 0 0 1 0 0 0 1 55.6755272072512 32.236142146937176 14.209402614980695 1 rotate no_reflect no_shear #
lump $-1 $-1 $19 $4 #
transform $-1 1 0 0 0 1 0 0 0 1 55.6755272072512 32.236142146937176 14.209402614980695 1 rotate no_reflect no_shear #
shell $-1 $-1 $-1 $20 $-1 $5 #
shell $-1 $-1 $-1 $21 $-1 $7 #
shell $-1 $-1 $-1 $22 $-1 $9 #
shell $-1 $-1 $-1 $23 $-1 $11 #
shell $-1 $-1 $-1 $24 $-1 $13 #
face $-1 $25 $26 $15 $-1 $27 forward single #
face $-1 $28 $29 $16 $-1 $30 forward single #
face $-1 $31 $32 $17 $-1 $33 forward single #
face $-1 $34 $35 $18 $-1 $36 reversed single #
face $-1 $37 $38 $19 $-1 $39 forward single #
face $-1 $40 $41 $15 $-1 $42 reversed single #
loop $-1 $-1 $43 $20 #
plane-surface $-1 0 0 14.209402614980695 0 0 1 1 0 0 forward_v I I I I #
face $-1 $44 $45 $16 $-1 $46 reversed single #
loop $-1 $-1 $47 $21 #
plane-surface $-1 0 -32.236142146937176 0 0 1 0 0 0 1 forward_v I I I I #
face $-1 $48 $49 $17 $-1 $50 forward single #
loop $-1 $-1 $51 $22 #
plane-surface $-1 0 32.236142146937176 0 0 -1 0 0 0 -1 forward_v I I I I #
face $-1 $52 $53 $18 $-1 $54 reversed single #
loop $-1 $-1 $55 $23 #
plane-surface $-1 -150.10657779089584 12.423251461202568 69.144688713398921 0 1 0 -0.84804810408105047 0 0.52991925155115449 forward_v I I I I #
face $-1 $56 $57 $19 $-1 $58 forward single #
loop $-1 $59 $60 $24 #
cone-surface $-1 -53.979337521412951 17.414488941478702 11.908552331031734 0.84804810408105047 0 -0.52991925155115449 0.26495962577557725 0 0.42402405204052523 1 I I 0 1 0.5 forward I I I I #
face $-1 $61 $62 $15 $-1 $63 reversed single #
loop $-1 $-1 $64 $25 #
plane-surface $-1 0 0 -14.209402614980695 0 0 1 1 0 0 forward_v I I I I #
coedge $-1 $65 $66 $67 $68 forward $26 $-1 #
face $-1 $69 $70 $16 $-1 $71 reversed single #
loop $-1 $-1 $72 $28 #
plane-surface $-1 0 0 -14.209402614980695 0 0 1 1 0 0 forward_v I I I I #
coedge $-1 $73 $74 $75 $76 forward $29 $-1 #
face $-1 $77 $78 $17 $-1 $79 reversed single #
loop $-1 $-1 $80 $31 #
plane-surface $-1 0 0 14.209402614980695 0 0 1 1 0 0 forward_v I I I I #
coedge $-1 $81 $82 $83 $84 forward $32 $-1 #
face $-1 $85 $86 $18 $-1 $87 reversed single #
loop $-1 $-1 $88 $34 #
plane-surface $-1 -55.675527207251207 17.414488941478702 10.137621298633938 -0.84804810408105047 0 0.52991925155115449 0.52991925155115449 0 0.84804810408105047 forward_v I I I I #
coedge $-1 $89 $90 $91 $92 reversed $35 $-1 #
face $-1 $-1 $93 $19 $-1 $94 forward single #
loop $-1 $95 $96 $37 #
cone-surface $-1 -53.343301443352161 17.414488941478702 11.511112892368368 0.84804810408105047 0 -0.52991925155115449 0.13247981288778862 0 0.21201202602026262 1 I I -0.70710678118654746 0.70710678118654746 0.25 forward I I I I #
loop $-1 $-1 $97 $24 #
coedge $-1 $60 $60 $98 $99 reversed $38 $-1 #
face $-1 $100 $101 $15 $-1 $102 reversed single #
loop $-1 $-1 $103 $40 #
plane-surface $-1 0 -32.236142146937176 0 0 1 0 0 0 1 forward_v I I I I #
coedge $-1 $104 $105 $106 $107 forward $41 $-1 #
coedge $-1 $108 $43 $109 $110 forward $26 $-1 #
coedge $-1 $43 $108 $111 $112 forward $26 $-1 #
coedge $-1 $113 $114 $43 $68 reversed $115 $-1 #
edge $-1 $116 -32.236142146937176 $117 32.236142146937176 $67 $118 forward 7 unknown #
face $-1 $119 $120 $16 $-1 $121 forward single #
loop $-1 $-1 $122 $44 #
plane-surface $-1 55.6755272072512 0 0 -1 0 0 0 0 1 forward_v I I I I #
coedge $-1 $123 $124 $125 $126 forward $45 $-1 #
coedge $-1 $125 $47 $122 $127 reversed $29 $-1 #
coedge $-1 $47 $125 $128 $129 reversed $29 $-1 #
coedge $-1 $130 $131 $47 $76 reversed $120 $-1 #
edge $-1 $132 -55.6755272072512 $133 55.6755272072512 $75 $134 forward 7 unknown #
face $-1 $135 $136 $17 $-1 $137 reversed single #
loop $-1 $-1 $138 $48 #
plane-surface $-1 -53.944180427249663 42.066557872119517 0 0 -1 0 0 0 -1 forward_v I I I I #
coedge $-1 $139 $140 $81 $141 forward $49 $-1 #
coedge $-1 $142 $51 $80 $141 reversed $32 $-1 #
coedge $-1 $51 $142 $143 $144 reversed $32 $-1 #
coedge $-1 $145 $146 $51 $84 reversed $136 $-1 #
edge $-1 $147 -14.209402614980695 $148 14.209402614980695 $83 $149 forward 7 unknown #
face $-1 $150 $151 $18 $-1 $152 forward single #
loop $-1 $-1 $153 $52 #
plane-surface $-1 -150.10657779089584 22.405726421754835 69.144688713398921 0 -1 0 0.84804810408105047 0 -0.52991925155115449 forward_v I I I I #
coedge $-1 $154 $155 $156 $157 reversed $53 $-1 #
coedge $-1 $90 $55 $158 $159 reversed $35 $-1 #
coedge $-1 $55 $89 $154 $160 reversed $35 $-1 #
coedge $-1 $156 $161 $55 $92 forward $151 $-1 #
edge $-1 $162 19.377761688196721 $163 21.922092955792152 $91 $164 forward 7 unknown #
loop $-1 $-1 $98 $56 #
plane-surface $-1 -55.675527207251207 17.414488941478702 10.137621298633938 -0.84804810408105047 0 0.52991925155115449 0.52991925155115449 0 0.84804810408105047 forward_v I I I I #
loop $-1 $-1 $165 $37 #
coedge $-1 $96 $96 $97 $166 reversed $57 $-1 #
coedge $-1 $97 $97 $96 $166 forward $59 $-1 #
coedge $-1 $98 $98 $60 $99 forward $93 $-1 #
edge $-1 $167 0 $167 6.2831853071796004 $98 $168 forward 7 unknown #
face $-1 $169 $170 $15 $-1 $171 reversed single #
loop $-1 $-1 $172 $61 #
plane-surface $-1 -55.6755272072512 0 0 1 0 0 0 0 -1 forward_v I I I I #
coedge $-1 $111 $173 $113 $174 reversed $62 $-1 #
coedge $-1 $175 $64 $173 $176 forward $41 $-1 #
coedge $-1 $64 $175 $177 $178 forward $41 $-1 #
coedge $-1 $114 $113 $64 $107 reversed $115 $-1 #
edge $-1 $179 -32.236142146937176 $180 32.236142146937176 $106 $181 forward 7 unknown #
coedge $-1 $66 $65 $182 $183 forward $26 $-1 #
coedge $-1 $184 $185 $65 $110 reversed $170 $-1 #
edge $-1 $117 -55.6755272072512 $186 55.6755272072512 $109 $187 forward 7 unknown #
coedge $-1 $188 $103 $66 $112 reversed $62 $-1 #
edge $-1 $189 -55.6755272072512 $116 55.6755272072512 $111 $190 forward 7 unknown #
coedge $-1 $106 $67 $103 $174 forward $115 $-1 #
coedge $-1 $67 $106 $184 $191 reversed $115 $-1 #
loop $-1 $-1 $113 $169 #
vertex $-1 $68 $192 #
vertex $-1 $68 $193 #
straight-curve $-1 55.6755272072512 0 14.209402614980695 0 1 0 I I #
face $-1 $194 $195 $16 $-1 $196 reversed single #
loop $-1 $-1 $131 $69 #
plane-surface $-1 0 -40.737547029254515 -9.009681462748647 0 0 1 1 0 0 forward_v I I I I #
coedge $-1 $197 $198 $73 $127 forward $70 $-1 #
coedge $-1 $199 $72 $198 $200 forward $45 $-1 #
coedge $-1 $72 $199 $201 $202 forward $45 $-1 #
coedge $-1 $74 $73 $72 $126 reversed $29 $-1 #
edge $-1 $203 -55.6755272072512 $204 55.6755272072512 $72 $205 forward 7 unknown #
edge $-1 $204 -14.209402614980695 $133 -9.009681462748647 $122 $206 forward 7 unknown #
coedge $-1 $201 $207 $74 $129 forward $208 $-1 #
edge $-1 $132 9.009681462748647 $203 14.209402614980695 $128 $209 forward 7 unknown #
coedge $-1 $210 $75 $207 $211 forward $120 $-1 #
coedge $-1 $75 $210 $197 $212 forward $120 $-1 #
vertex $-1 $129 $213 #
vertex $-1 $212 $214 #
straight-curve $-1 0 -32.236142146937176 -9.009681462748647 1 0 0 I I #
face $-1 $215 $216 $17 $-1 $217 reversed single #
loop $-1 $-1 $83 $77 #
plane-surface $-1 -52.212833647248125 37.15135000952835 0 -1 0 0 0 0 1 forward_v I I I I #
coedge $-1 $218 $219 $220 $221 forward $78 $-1 #
coedge $-1 $222 $80 $146 $223 forward $49 $-1 #
coedge $-1 $80 $222 $224 $225 forward $49 $-1 #
edge $-1 $226 -55.6755272072512 $148 -52.212833647248125 $80 $227 forward 7 unknown #
coedge $-1 $82 $81 $228 $229 reversed $32 $-1 #
coedge $-1 $230 $231 $82 $144 forward $216 $-1 #
edge $-1 $147 52.212833647248125 $232 55.6755272072512 $143 $233 forward 7 unknown #
coedge $-1 $220 $83 $231 $234 reversed $136 $-1 #
coedge $-1 $83 $220 $139 $223 reversed $136 $-1 #
vertex $-1 $144 $235 #
vertex $-1 $223 $236 #
straight-curve $-1 -52.212833647248125 32.236142146937176 0 0 0 1 I I #
face $-1 $-1 $237 $18 $-1 $238 reversed single #
loop $-1 $-1 $91 $85 #
plane-surface $-1 0 0 14.209402614980695 0 0 1 1 0 0 forward_v I I I I #
coedge $-1 $239 $240 $241 $242 reversed $86 $-1 #
coedge $-1 $243 $88 $90 $160 forward $53 $-1 #
coedge $-1 $88 $243 $239 $244 forward $53 $-1 #
coedge $-1 $241 $91 $88 $157 forward $151 $-1 #
edge $-1 $163 3.7160069904632174 $245 13.698481951015484 $156 $246 forward 7 unknown #
coedge $-1 $247 $248 $89 $159 forward $237 $-1 #
edge $-1 $249 -24.434723058065511 $162 -20.362941741718764 $158 $250 forward 7 unknown #
edge $-1 $163 -4.8013565465828858 $249 -1.2803919046239758e-014 $90 $251 forward 7 unknown #
coedge $-1 $91 $241 $247 $252 forward $151 $-1 #
vertex $-1 $159 $253 #
vertex $-1 $92 $254 #
straight-curve $-1 -75.05328889544792 12.423251461202568 14.209402614980696 1 0 0 I I #
coedge $-1 $165 $165 $-1 $255 reversed $95 $-1 #
edge $-1 $256 0 $256 6.2831853071796004 $96 $257 forward 7 unknown #
vertex $-1 $99 $258 #
ellipse-curve $-1 -54.403361573453488 17.414488941478702 12.173511956807317 -0.84804810408105047 0 0.52991925155115449 0.26495962577557725 0 0.42402405204052523 1 I I #
face $-1 $-1 $115 $15 $-1 $259 reversed single #
loop $-1 $-1 $109 $100 #
plane-surface $-1 0 32.236142146937176 0 0 -1 0 0 0 -1 forward_v I I I I #
coedge $-1 $260 $182 $185 $261 forward $101 $-1 #
coedge $-1 $103 $188 $104 $176 reversed $62 $-1 #
edge $-1 $116 -14.209402614980695 $180 14.209402614980695 $113 $262 forward 7 unknown #
coedge $-1 $105 $104 $260 $263 forward $41 $-1 #
edge $-1 $180 -55.6755272072512 $264 55.6755272072512 $173 $265 forward 7 unknown #
coedge $-1 $185 $184 $105 $178 reversed $170 $-1 #
edge $-1 $266 -55.6755272072512 $179 55.6755272072512 $177 $267 forward 7 unknown #
vertex $-1 $107 $268 #
vertex $-1 $174 $269 #
straight-curve $-1 55.6755272072512 0 -14.209402614980695 0 -1 0 I I #
coedge $-1 $172 $270 $108 $183 reversed $101 $-1 #
edge $-1 $186 -32.236142146937176 $189 32.236142146937176 $182 $271 forward 7 unknown #
coedge $-1 $177 $109 $114 $191 forward $170 $-1 #
coedge $-1 $109 $177 $172 $261 reversed $170 $-1 #
vertex $-1 $110 $272 #
straight-curve $-1 0 32.236142146937176 14.209402614980695 -1 0 0 I I #
coedge $-1 $173 $111 $270 $273 forward $62 $-1 #
vertex $-1 $183 $274 #
straight-curve $-1 0 -32.236142146937176 14.209402614980695 1 0 0 I I #
edge $-1 $117 -14.209402614980695 $179 14.209402614980695 $114 $275 forward 7 unknown #
point $-1 55.6755272072512 -32.236142146937176 14.209402614980695 #
point $-1 55.6755272072512 32.236142146937176 14.209402614980695 #
face $-1 $-1 $208 $16 $-1 $276 reversed single #
loop $-1 $-1 $277 $119 #
plane-surface $-1 0 -49.238951911571853 -11.609542038864671 0 1 0 0 0 1 forward_v I I I I #
coedge $-1 $278 $122 $131 $212 reversed $70 $-1 #
coedge $-1 $122 $278 $123 $200 reversed $70 $-1 #
coedge $-1 $124 $123 $279 $280 forward $45 $-1 #
edge $-1 $204 32.236142146937176 $281 49.238951911571853 $198 $282 forward 7 unknown #
coedge $-1 $283 $128 $124 $202 reversed $208 $-1 #
edge $-1 $284 -49.238951911571853 $203 -32.236142146937176 $201 $285 forward 7 unknown #
vertex $-1 $129 $286 #
vertex $-1 $200 $287 #
straight-curve $-1 0 -32.236142146937176 -14.209402614980695 1 0 0 I I #
straight-curve $-1 55.6755272072512 -32.236142146937176 0 0 0 1 I I #
coedge $-1 $128 $283 $130 $211 reversed $208 $-1 #
loop $-1 $-1 $128 $194 #
straight-curve $-1 -55.6755272072512 -32.236142146937176 0 0 0 -1 I I #
coedge $-1 $131 $130 $288 $289 forward $120 $-1 #
edge $-1 $132 -8.5014048823173383 $290 8.5014048823173383 $207 $291 forward 7 unknown #
edge $-1 $292 -8.5014048823173383 $133 8.5014048823173383 $197 $293 forward 7 unknown #
point $-1 -55.6755272072512 -32.236142146937176 -9.009681462748647 #
point $-1 55.6755272072512 -32.236142146937176 -9.009681462748647 #
face $-1 $-1 $294 $17 $-1 $295 reversed single #
loop $-1 $-1 $143 $135 #
plane-surface $-1 0 0 -14.209402614980695 0 0 1 1 0 0 forward_v I I I I #
coedge $-1 $296 $138 $297 $298 reversed $78 $-1 #
coedge $-1 $138 $296 $222 $299 reversed $78 $-1 #
coedge $-1 $146 $145 $138 $221 reversed $136 $-1 #
edge $-1 $300 -14.209402614980695 $301 14.209402614980695 $220 $302 forward 7 unknown #
coedge $-1 $140 $139 $219 $299 forward $49 $-1 #
edge $-1 $148 -4.915207862591167 $300 4.915207862591167 $146 $303 forward 7 unknown #
coedge $-1 $304 $228 $140 $225 reversed $294 $-1 #
edge $-1 $305 -42.066557872119517 $226 -32.236142146937176 $224 $306 forward 7 unknown #
vertex $-1 $229 $307 #
straight-curve $-1 0 32.236142146937176 14.209402614980695 1 0 0 I I #
coedge $-1 $224 $308 $142 $229 forward $294 $-1 #
edge $-1 $232 -14.209402614980695 $226 14.209402614980695 $228 $309 forward 7 unknown #
coedge $-1 $297 $143 $308 $310 forward $216 $-1 #
coedge $-1 $143 $297 $145 $234 forward $216 $-1 #
vertex $-1 $310 $311 #
straight-curve $-1 0 32.236142146937176 -14.209402614980695 -1 0 0 I I #
edge $-1 $301 -4.915207862591167 $147 4.915207862591167 $145 $312 forward 7 unknown #
point $-1 -52.212833647248125 32.236142146937183 -14.209402614980695 #
point $-1 -52.212833647248125 32.236142146937183 14.209402614980695 #
loop $-1 $-1 $158 $150 #
plane-surface $-1 -55.6755272072512 0 0 1 0 0 0 0 -1 forward_v I I I I #
coedge $-1 $240 $153 $155 $244 reversed $86 $-1 #
coedge $-1 $153 $239 $313 $314 reversed $86 $-1 #
coedge $-1 $161 $156 $153 $242 forward $151 $-1 #
edge $-1 $245 -21.922092955792152 $315 -19.377761688196721 $241 $316 forward 7 unknown #
coedge $-1 $155 $154 $248 $317 reversed $53 $-1 #
edge $-1 $318 1.2803919046239758e-014 $245 4.8013565465828858 $239 $319 forward 7 unknown #
vertex $-1 $157 $320 #
straight-curve $-1 -53.131195939655775 8.7072444707393508 14.209402614980695 0 1 0 I I #
coedge $-1 $313 $158 $161 $252 reversed $237 $-1 #
coedge $-1 $158 $313 $243 $317 forward $237 $-1 #
vertex $-1 $159 $321 #
straight-curve $-1 -55.6755272072512 12.423251461202568 34.57234435669946 0 0 1 I I #
straight-curve $-1 -55.675527207251207 12.423251461202568 10.137621298633938 -0.52991925155115449 0 -0.84804810408105047 I I #
edge $-1 $315 -22.405726421754835 $162 -12.423251461202568 $247 $322 forward 7 unknown #
point $-1 -55.6755272072512 12.423251461202568 14.209402614980695 #
point $-1 -53.131195939655768 12.423251461202568 14.209402614980695 #
edge $-1 $323 1 $323 0 $165 $-1 forward 7 unknown #
vertex $-1 $166 $324 #
ellipse-curve $-1 -53.555313469372422 17.414488941478702 11.643592705256157 -0.84804810408105047 0 0.52991925155115449 0.26495962577557725 0 0.42402405204052523 1 I I #
point $-1 -54.138401947677899 17.414488941478702 12.597536008847836 #
plane-surface $-1 55.6755272072512 0 0 -1 0 0 0 0 1 forward_v I I I I #
coedge $-1 $270 $172 $175 $263 reversed $101 $-1 #
edge $-1 $186 -14.209402614980695 $266 14.209402614980695 $185 $325 forward 7 unknown #
straight-curve $-1 55.6755272072512 -32.236142146937176 0 0 0 -1 I I #
edge $-1 $264 -32.236142146937176 $266 32.236142146937176 $260 $326 forward 7 unknown #
vertex $-1 $263 $327 #
straight-curve $-1 0 -32.236142146937176 -14.209402614980695 -1 0 0 I I #
vertex $-1 $178 $328 #
straight-curve $-1 0 32.236142146937176 -14.209402614980695 1 0 0 I I #
point $-1 55.6755272072512 32.236142146937176 -14.209402614980695 #
point $-1 55.6755272072512 -32.236142146937176 -14.209402614980695 #
coedge $-1 $182 $260 $188 $273 reversed $101 $-1 #
straight-curve $-1 -55.6755272072512 0 14.209402614980695 0 -1 0 I I #
point $-1 -55.6755272072512 32.236142146937176 14.209402614980695 #
edge $-1 $189 -14.209402614980695 $264 14.209402614980695 $270 $329 forward 7 unknown #
point $-1 -55.6755272072512 -32.236142146937176 14.209402614980695 #
straight-curve $-1 55.6755272072512 32.236142146937176 0 0 0 -1 I I #
plane-surface $-1 -55.6755272072512 0 0 1 0 0 0 0 -1 forward_v I I I I #
coedge $-1 $279 $288 $283 $330 forward $195 $-1 #
coedge $-1 $198 $197 $331 $332 forward $70 $-1 #
coedge $-1 $331 $277 $199 $280 reversed $195 $-1 #
edge $-1 $281 -55.6755272072512 $284 55.6755272072512 $279 $333 forward 7 unknown #
vertex $-1 $332 $334 #
straight-curve $-1 55.6755272072512 0 -14.209402614980695 0 -1 0 I I #
coedge $-1 $207 $201 $277 $330 reversed $208 $-1 #
vertex $-1 $202 $335 #
straight-curve $-1 -55.6755272072512 0 -14.209402614980695 0 1 0 I I #
point $-1 -55.6755272072512 -32.236142146937176 -14.209402614980695 #
point $-1 55.6755272072512 -32.236142146937176 -14.209402614980695 #
coedge $-1 $277 $331 $210 $289 reversed $195 $-1 #
edge $-1 $290 -55.6755272072512 $292 55.6755272072512 $288 $336 forward 7 unknown #
vertex $-1 $211 $337 #
straight-curve $-1 -55.6755272072512 -40.737547029254515 -9.009681462748647 0 -1 0 I I #
vertex $-1 $212 $338 #
straight-curve $-1 55.6755272072512 -40.737547029254515 -9.009681462748647 0 1 0 I I #
loop $-1 $-1 $228 $215 #
plane-surface $-1 -55.6755272072512 0 0 1 0 0 0 0 -1 forward_v I I I I #
coedge $-1 $219 $218 $304 $339 reversed $78 $-1 #
coedge $-1 $231 $230 $218 $298 forward $216 $-1 #
edge $-1 $340 -1.7313467800015374 $301 1.7313467800015374 $218 $341 forward 7 unknown #
edge $-1 $300 -1.7313467800015374 $305 1.7313467800015374 $219 $342 forward 7 unknown #
vertex $-1 $223 $343 #
vertex $-1 $234 $344 #
straight-curve $-1 -52.212833647248125 42.066557872119517 0 0 0 -1 I I #
straight-curve $-1 -52.212833647248125 37.15135000952835 14.209402614980695 0 1 0 I I #
coedge $-1 $308 $224 $296 $339 forward $294 $-1 #
vertex $-1 $299 $345 #
straight-curve $-1 -55.6755272072512 0 14.209402614980695 0 -1 0 I I #
point $-1 -55.6755272072512 32.236142146937176 14.209402614980695 #
coedge $-1 $228 $304 $230 $310 reversed $294 $-1 #
straight-curve $-1 -55.6755272072512 32.236142146937176 0 0 0 1 I I #
edge $-1 $232 -4.9152078625911741 $340 4.915207862591167 $308 $346 forward 7 unknown #
point $-1 -55.6755272072512 32.236142146937176 -14.209402614980695 #
straight-curve $-1 -52.212833647248125 37.15135000952835 -14.209402614980695 0 -1 0 I I #
coedge $-1 $248 $247 $240 $314 forward $237 $-1 #
edge $-1 $315 20.362941741718764 $318 24.434723058065511 $313 $347 forward 7 unknown #
vertex $-1 $252 $348 #
straight-curve $-1 -75.05328889544792 22.405726421754835 14.209402614980696 -1 0 0 I I #
edge $-1 $318 -13.698481951015484 $249 -3.7160069904632174 $248 $349 forward 7 unknown #
vertex $-1 $317 $350 #
straight-curve $-1 -55.675527207251207 22.405726421754835 10.137621298633938 0.52991925155115449 0 0.84804810408105047 I I #
point $-1 -53.131195939655768 22.405726421754835 14.209402614980695 #
point $-1 -55.6755272072512 12.423251461202568 10.137621298633949 #
straight-curve $-1 -55.6755272072512 0 14.209402614980695 0 -1 0 I I #
vertex $-1 $255 $351 #
point $-1 -53.290353843596847 17.414488941478702 12.067616757296681 #
straight-curve $-1 -55.6755272072512 32.236142146937176 0 0 0 -1 I I #
straight-curve $-1 -55.6755272072512 0 -14.209402614980695 0 1 0 I I #
point $-1 -55.6755272072512 -32.236142146937176 -14.209402614980695 #
point $-1 -55.6755272072512 32.236142146937176 -14.209402614980695 #
straight-curve $-1 -55.6755272072512 -32.236142146937176 0 0 0 -1 I I #
edge $-1 $290 -2.5998605761160238 $284 2.5998605761160238 $283 $352 forward 7 unknown #
coedge $-1 $288 $279 $278 $332 reversed $195 $-1 #
edge $-1 $292 -2.5998605761160238 $281 2.5998605761160238 $278 $353 forward 7 unknown #
straight-curve $-1 0 -49.238951911571853 -14.209402614980695 -1 0 0 I I #
point $-1 55.6755272072512 -49.238951911571853 -14.209402614980695 #
point $-1 -55.6755272072512 -49.238951911571853 -14.209402614980695 #
straight-curve $-1 0 -49.238951911571853 -9.009681462748647 1 0 0 I I #
point $-1 -55.6755272072512 -49.238951911571853 -9.009681462748647 #
point $-1 55.6755272072512 -49.238951911571853 -9.009681462748647 #
edge $-1 $305 -14.209402614980695 $340 14.209402614980695 $296 $354 forward 7 unknown #
vertex $-1 $298 $355 #
straight-curve $-1 -53.944180427249663 42.066557872119517 -14.209402614980695 1 0 0 I I #
straight-curve $-1 -53.944180427249663 42.066557872119517 14.209402614980695 -1 0 0 I I #
point $-1 -52.212833647248125 42.066557872119517 14.209402614980695 #
point $-1 -52.212833647248125 42.066557872119517 -14.209402614980695 #
point $-1 -55.6755272072512 42.066557872119517 14.209402614980695 #
straight-curve $-1 -55.6755272072512 37.15135000952835 -14.209402614980695 0 1 0 I I #
straight-curve $-1 -55.6755272072512 22.405726421754835 34.57234435669946 0 0 -1 I I #
point $-1 -55.6755272072512 22.405726421754835 14.209402614980695 #
straight-curve $-1 -55.6755272072512 8.7072444707393508 10.137621298633954 0 -1 0 I I #
point $-1 -55.6755272072512 22.405726421754835 10.137621298633949 #
point $-1 -53.131289417331899 17.414488941478702 11.378633079480579 #
straight-curve $-1 -55.6755272072512 -49.238951911571853 -11.609542038864671 0 0 -1 I I #
straight-curve $-1 55.6755272072512 -49.238951911571853 -11.609542038864671 0 0 -1 I I #
straight-curve $-1 -55.6755272072512 42.066557872119517 0 0 0 -1 I I #
point $-1 -55.6755272072512 42.066557872119517 -14.209402614980695 #
End-of-ACIS-data 