500 0 10 0           
7 Unknown 11 ACIS 5.0 NT 24 Fri Mar 26 19:53:24 1999 
-1 9.9999999999999995e-007 1e-010 
body $-1 $10 $-1 $11 #
body $-1 $12 $-1 $13 #
body $-1 $14 $-1 $15 #
body $-1 $16 $-1 $17 #
body $-1 $18 $-1 $19 #
body $-1 $20 $-1 $21 #
body $-1 $22 $-1 $23 #
body $-1 $24 $-1 $25 #
body $-1 $26 $-1 $27 #
body $-1 $28 $-1 $29 #
lump $-1 $-1 $30 $0 #
transform $-1 1 0 0 0 1 0 0 0 1 52.198858607745599 29.015473210287126 6.2244198214590982 1 rotate no_reflect no_shear #
lump $-1 $-1 $31 $1 #
transform $-1 1 0 0 0 1 0 0 0 1 52.198858607745599 29.015473210287126 6.2244198214590982 1 rotate no_reflect no_shear #
lump $-1 $-1 $32 $2 #
transform $-1 1 0 0 0 1 0 0 0 1 52.198858607745599 29.015473210287126 6.2244198214590982 1 rotate no_reflect no_shear #
lump $-1 $-1 $33 $3 #
transform $-1 1 0 0 0 1 0 0 0 1 52.198858607745599 29.015473210287126 6.2244198214590982 1 rotate no_reflect no_shear #
lump $-1 $-1 $34 $4 #
transform $-1 1 0 0 0 1 0 0 0 1 52.198858607745599 29.015473210287126 6.2244198214590982 1 rotate no_reflect no_shear #
lump $-1 $-1 $35 $5 #
transform $-1 1 0 0 0 1 0 0 0 1 52.198858607745599 29.015473210287126 6.2244198214590982 1 rotate no_reflect no_shear #
lump $-1 $-1 $36 $6 #
transform $-1 1 0 0 0 1 0 0 0 1 52.198858607745599 29.015473210287126 6.2244198214590982 1 rotate no_reflect no_shear #
lump $-1 $-1 $37 $7 #
transform $-1 1 0 0 0 1 0 0 0 1 52.198858607745599 29.015473210287126 6.2244198214590982 1 rotate no_reflect no_shear #
lump $-1 $-1 $38 $8 #
transform $-1 1 0 0 0 1 0 0 0 1 52.198858607745599 29.015473210287126 6.2244198214590982 1 rotate no_reflect no_shear #
lump $-1 $-1 $39 $9 #
transform $-1 1 0 0 0 1 0 0 0 1 52.198858607745599 29.015473210287126 6.2244198214590982 1 rotate no_reflect no_shear #
shell $-1 $-1 $-1 $40 $-1 $10 #
shell $-1 $-1 $-1 $41 $-1 $12 #
shell $-1 $-1 $-1 $42 $-1 $14 #
shell $-1 $-1 $-1 $43 $-1 $16 #
shell $-1 $-1 $-1 $44 $-1 $18 #
shell $-1 $-1 $-1 $45 $-1 $20 #
shell $-1 $-1 $-1 $46 $-1 $22 #
shell $-1 $-1 $-1 $47 $-1 $24 #
shell $-1 $-1 $-1 $48 $-1 $26 #
shell $-1 $-1 $-1 $49 $-1 $28 #
face $-1 $50 $51 $30 $-1 $52 forward single #
face $-1 $53 $54 $31 $-1 $55 reversed single #
face $-1 $56 $57 $32 $-1 $58 reversed single #
face $-1 $59 $60 $33 $-1 $61 forward single #
face $-1 $62 $63 $34 $-1 $64 forward single #
face $-1 $65 $66 $35 $-1 $67 reversed single #
face $-1 $68 $69 $36 $-1 $70 forward single #
face $-1 $71 $72 $37 $-1 $73 forward single #
face $-1 $74 $75 $38 $-1 $76 reversed single #
face $-1 $77 $78 $39 $-1 $79 forward single #
face $-1 $80 $81 $30 $-1 $82 reversed single #
loop $-1 $-1 $83 $40 #
plane-surface $-1 0 0 6.2244198214590982 0 0 1 1 0 0 forward_v I I I I #
face $-1 $84 $85 $31 $-1 $86 reversed single #
loop $-1 $-1 $87 $41 #
plane-surface $-1 0 -25.119488276414163 3.2244198214590982 0 0 1 1 0 0 forward_v I I I I #
face $-1 $88 $89 $32 $-1 $90 reversed single #
loop $-1 $-1 $91 $42 #
plane-surface $-1 92.894144059077973 3.8959849338729597 145.05559916629051 0 -1 0 -0.87461971476443456 0 -0.48480960649040278 forward_v I I I I #
face $-1 $92 $93 $33 $-1 $94 forward single #
loop $-1 $95 $96 $43 #
cone-surface $-1 50.905102908968821 -3.1541171653605744 4.4369457632247684 -0.87461971476443456 0 -0.48480960649040278 0.12120240162260069 0 -0.21865492869110864 1 I I 0 1 0.25 forward I I I I #
face $-1 $97 $98 $34 $-1 $99 forward single #
loop $-1 $100 $101 $44 #
cone-surface $-1 50.905102908968821 1.0759440941795475 4.4369457632247684 -0.87461971476443456 0 -0.48480960649040278 0.12120240162260069 0 -0.21865492869110864 1 I I 0 1 0.25 forward I I I I #
face $-1 $102 $103 $35 $-1 $104 reversed single #
loop $-1 $-1 $105 $45 #
plane-surface $-1 1.5858424060069751 24.080401740823646 94.442582964551875 0.87461971476443456 0 0.48480960649040278 0.48480960649040278 0 -0.87461971476443456 forward_v I I I I #
face $-1 $106 $107 $36 $-1 $108 forward single #
loop $-1 $109 $110 $46 #
cone-surface $-1 50.905102908968821 21.965371111053585 4.4369457632247684 -0.87461971476443456 0 -0.48480960649040278 0.12120240162260069 0 -0.21865492869110864 1 I I 0 1 0.25 forward I I I I #
face $-1 $111 $112 $37 $-1 $113 forward single #
loop $-1 $114 $115 $47 #
cone-surface $-1 50.905102908968821 26.195432370593707 4.4369457632247684 -0.87461971476443456 0 -0.48480960649040278 0.12120240162260069 0 -0.21865492869110864 1 I I 0 1 0.25 forward I I I I #
face $-1 $116 $117 $38 $-1 $118 reversed single #
loop $-1 $-1 $119 $48 #
plane-surface $-1 -143.50716026081662 -8.7238743041620399 53.565938043907423 0 1 0 -0.87461971476443456 0 0.48480960649040278 forward_v I I I I #
face $-1 $120 $121 $39 $-1 $122 forward single #
loop $-1 $123 $124 $49 #
cone-surface $-1 -50.85483831313006 -3.8423707977102346 4.346266028568742 0.87461971476443456 0 -0.48480960649040278 0.24240480324520139 0 0.43730985738221728 1 I I 0 1 0.5 forward I I I I #
face $-1 $125 $126 $30 $-1 $127 reversed single #
loop $-1 $-1 $128 $50 #
plane-surface $-1 0 0 -6.2244198214590982 0 0 1 1 0 0 forward_v I I I I #
coedge $-1 $129 $130 $131 $132 forward $51 $-1 #
face $-1 $133 $134 $31 $-1 $135 reversed single #
loop $-1 $-1 $136 $53 #
plane-surface $-1 0 -21.2235033425412 4.7244198214590982 0 -1 0 0 0 -1 forward_v I I I I #
coedge $-1 $137 $138 $139 $140 reversed $54 $-1 #
face $-1 $141 $142 $32 $-1 $143 reversed single #
loop $-1 $-1 $144 $56 #
plane-surface $-1 1.5858424060069751 -1.0390865355905134 94.442582964551875 0.87461971476443456 0 0.48480960649040278 0.48480960649040278 0 -0.87461971476443456 forward_v I I I I #
coedge $-1 $145 $146 $147 $148 reversed $57 $-1 #
face $-1 $-1 $149 $33 $-1 $150 forward single #
loop $-1 $151 $152 $59 #
cone-surface $-1 50.358465587241049 -3.1541171653605744 4.1339397591682667 -0.87461971476443456 0 -0.48480960649040278 0.060601200811300347 0 -0.10932746434555432 1 I I -0.70710678118654746 0.70710678118654746 0.125 forward I I I I #
loop $-1 $-1 $153 $43 #
coedge $-1 $96 $96 $154 $155 reversed $60 $-1 #
face $-1 $-1 $156 $34 $-1 $157 forward single #
loop $-1 $158 $159 $62 #
cone-surface $-1 50.358465587241049 1.0759440941795475 4.1339397591682667 -0.87461971476443456 0 -0.48480960649040278 0.060601200811300347 0 -0.10932746434555432 1 I I -0.70710678118654746 0.70710678118654746 0.125 forward I I I I #
loop $-1 $-1 $160 $44 #
coedge $-1 $101 $101 $161 $162 reversed $63 $-1 #
face $-1 $163 $164 $35 $-1 $165 reversed single #
loop $-1 $-1 $166 $65 #
plane-surface $-1 92.894144059077973 19.145330271360173 145.05559916629051 0 1 0 0.87461971476443456 0 0.48480960649040278 forward_v I I I I #
coedge $-1 $167 $168 $169 $170 reversed $66 $-1 #
face $-1 $-1 $171 $36 $-1 $172 forward single #
loop $-1 $173 $174 $68 #
cone-surface $-1 50.358465587241049 21.965371111053585 4.1339397591682667 -0.87461971476443456 0 -0.48480960649040278 0.060601200811300347 0 -0.10932746434555432 1 I I -0.70710678118654746 0.70710678118654746 0.125 forward I I I I #
loop $-1 $-1 $175 $46 #
coedge $-1 $110 $110 $176 $177 reversed $69 $-1 #
face $-1 $-1 $178 $37 $-1 $179 forward single #
loop $-1 $180 $181 $71 #
cone-surface $-1 50.358465587241049 26.195432370593707 4.1339397591682667 -0.87461971476443456 0 -0.48480960649040278 0.060601200811300347 0 -0.10932746434555432 1 I I -0.70710678118654746 0.70710678118654746 0.125 forward I I I I #
loop $-1 $-1 $182 $47 #
coedge $-1 $115 $115 $183 $184 reversed $72 $-1 #
face $-1 $185 $186 $38 $-1 $187 reversed single #
loop $-1 $-1 $188 $74 #
plane-surface $-1 -52.198858607745606 -3.842370797710231 2.9529218421687844 -0.87461971476443456 0 0.48480960649040278 0.48480960649040278 0 0.87461971476443456 forward_v I I I I #
coedge $-1 $189 $190 $191 $192 reversed $75 $-1 #
face $-1 $-1 $193 $39 $-1 $194 forward single #
loop $-1 $195 $196 $77 #
cone-surface $-1 -50.198873527056733 -3.8423707977102346 3.9826588237009402 0.87461971476443456 0 -0.48480960649040278 0.12120240162260069 0 0.21865492869110864 1 I I -0.70710678118654746 0.70710678118654746 0.25 forward I I I I #
loop $-1 $-1 $197 $49 #
coedge $-1 $124 $124 $198 $199 reversed $78 $-1 #
face $-1 $200 $201 $30 $-1 $202 reversed single #
loop $-1 $-1 $203 $80 #
plane-surface $-1 0 -29.015473210287126 0 0 1 0 0 0 1 forward_v I I I I #
coedge $-1 $204 $205 $206 $207 forward $81 $-1 #
coedge $-1 $208 $83 $209 $210 forward $51 $-1 #
coedge $-1 $83 $208 $211 $212 forward $51 $-1 #
coedge $-1 $213 $214 $83 $132 reversed $215 $-1 #
edge $-1 $216 -29.015473210287126 $217 29.015473210287126 $131 $218 forward 7 unknown #
face $-1 $219 $220 $31 $-1 $221 reversed single #
loop $-1 $-1 $222 $84 #
plane-surface $-1 -52.198858607745599 0 0 1 0 0 0 0 -1 forward_v I I I I #
coedge $-1 $223 $224 $225 $226 reversed $85 $-1 #
coedge $-1 $227 $87 $228 $229 reversed $54 $-1 #
coedge $-1 $87 $227 $223 $230 forward $54 $-1 #
coedge $-1 $225 $231 $87 $140 forward $232 $-1 #
edge $-1 $233 -16.455729072080047 $234 -8.6637592043341183 $139 $235 forward 7 unknown #
face $-1 $236 $237 $32 $-1 $238 reversed single #
loop $-1 $-1 $239 $88 #
plane-surface $-1 92.894144059077973 -5.9741580050539866 145.05559916629051 0 1 0 0.87461971476443456 0 0.48480960649040278 forward_v I I I I #
coedge $-1 $240 $241 $242 $243 reversed $89 $-1 #
coedge $-1 $146 $91 $244 $245 reversed $57 $-1 #
coedge $-1 $91 $145 $240 $246 reversed $57 $-1 #
coedge $-1 $242 $247 $91 $148 forward $248 $-1 #
edge $-1 $249 -5.7517865782066124 $250 -4.0388948954175135 $147 $251 forward 7 unknown #
loop $-1 $-1 $154 $92 #
plane-surface $-1 1.5858424060069751 -1.0390865355905134 94.442582964551875 0.87461971476443456 0 0.48480960649040278 0.48480960649040278 0 -0.87461971476443456 forward_v I I I I #
loop $-1 $-1 $252 $59 #
coedge $-1 $152 $152 $153 $253 reversed $93 $-1 #
coedge $-1 $153 $153 $152 $253 forward $95 $-1 #
coedge $-1 $154 $154 $96 $155 forward $149 $-1 #
edge $-1 $254 0 $254 6.2831853071796004 $154 $255 forward 7 unknown #
loop $-1 $-1 $161 $97 #
plane-surface $-1 1.5858424060069751 -1.0390865355905134 94.442582964551875 0.87461971476443456 0 0.48480960649040278 0.48480960649040278 0 -0.87461971476443456 forward_v I I I I #
loop $-1 $-1 $256 $62 #
coedge $-1 $159 $159 $160 $257 reversed $98 $-1 #
coedge $-1 $160 $160 $159 $257 forward $100 $-1 #
coedge $-1 $161 $161 $101 $162 forward $156 $-1 #
edge $-1 $258 0 $258 6.2831853071796004 $161 $259 forward 7 unknown #
face $-1 $260 $261 $35 $-1 $262 reversed single #
loop $-1 $-1 $263 $102 #
plane-surface $-1 52.198858607745599 0 0 -1 0 0 0 0 1 forward_v I I I I #
coedge $-1 $264 $265 $266 $267 reversed $103 $-1 #
coedge $-1 $268 $105 $269 $270 reversed $66 $-1 #
coedge $-1 $105 $268 $264 $271 forward $66 $-1 #
coedge $-1 $266 $272 $105 $170 forward $273 $-1 #
edge $-1 $274 -16.975272339875296 $275 -7.1051294009483499 $169 $276 forward 7 unknown #
loop $-1 $-1 $176 $106 #
plane-surface $-1 1.5858424060069751 24.080401740823646 94.442582964551875 0.87461971476443456 0 0.48480960649040278 0.48480960649040278 0 -0.87461971476443456 forward_v I I I I #
loop $-1 $-1 $277 $68 #
coedge $-1 $174 $174 $175 $278 reversed $107 $-1 #
coedge $-1 $175 $175 $174 $278 forward $109 $-1 #
coedge $-1 $176 $176 $110 $177 forward $171 $-1 #
edge $-1 $279 0 $279 6.2831853071796004 $176 $280 forward 7 unknown #
loop $-1 $-1 $183 $111 #
plane-surface $-1 1.5858424060069751 24.080401740823646 94.442582964551875 0.87461971476443456 0 0.48480960649040278 0.48480960649040278 0 -0.87461971476443456 forward_v I I I I #
loop $-1 $-1 $281 $71 #
coedge $-1 $181 $181 $182 $282 reversed $112 $-1 #
coedge $-1 $182 $182 $181 $282 forward $114 $-1 #
coedge $-1 $183 $183 $115 $184 forward $178 $-1 #
edge $-1 $283 0 $283 6.2831853071796004 $183 $284 forward 7 unknown #
face $-1 $285 $286 $38 $-1 $287 reversed single #
loop $-1 $-1 $288 $116 #
plane-surface $-1 -143.50716026081662 1.0391327087415778 53.565938043907423 0 -1 0 0.87461971476443456 0 -0.48480960649040278 forward_v I I I I #
coedge $-1 $289 $290 $291 $292 reversed $117 $-1 #
coedge $-1 $190 $119 $293 $294 reversed $75 $-1 #
coedge $-1 $119 $189 $289 $295 reversed $75 $-1 #
coedge $-1 $291 $296 $119 $192 forward $297 $-1 #
edge $-1 $298 19.55472152266271 $299 21.368142397129347 $191 $300 forward 7 unknown #
loop $-1 $-1 $198 $120 #
plane-surface $-1 -52.198858607745606 -3.842370797710231 2.9529218421687844 -0.87461971476443456 0 0.48480960649040278 0.48480960649040278 0 0.87461971476443456 forward_v I I I I #
loop $-1 $-1 $301 $77 #
coedge $-1 $196 $196 $197 $302 reversed $121 $-1 #
coedge $-1 $197 $197 $196 $302 forward $123 $-1 #
coedge $-1 $198 $198 $124 $199 forward $193 $-1 #
edge $-1 $303 0 $303 6.2831853071796004 $198 $304 forward 7 unknown #
face $-1 $305 $306 $30 $-1 $307 reversed single #
loop $-1 $-1 $308 $125 #
plane-surface $-1 -52.198858607745599 0 0 1 0 0 0 0 -1 forward_v I I I I #
coedge $-1 $309 $211 $310 $311 forward $126 $-1 #
coedge $-1 $312 $128 $309 $313 forward $81 $-1 #
coedge $-1 $128 $312 $314 $315 forward $81 $-1 #
coedge $-1 $214 $213 $128 $207 reversed $215 $-1 #
edge $-1 $316 -29.015473210287126 $317 29.015473210287126 $206 $318 forward 7 unknown #
coedge $-1 $130 $129 $319 $320 forward $51 $-1 #
coedge $-1 $321 $322 $129 $210 reversed $306 $-1 #
edge $-1 $217 -52.198858607745599 $323 52.198858607745599 $209 $324 forward 7 unknown #
coedge $-1 $203 $325 $130 $212 reversed $126 $-1 #
edge $-1 $326 -52.198858607745599 $216 52.198858607745599 $211 $327 forward 7 unknown #
coedge $-1 $206 $131 $325 $328 forward $215 $-1 #
coedge $-1 $131 $206 $321 $329 reversed $215 $-1 #
loop $-1 $-1 $213 $305 #
vertex $-1 $132 $330 #
vertex $-1 $132 $331 #
straight-curve $-1 52.198858607745599 0 6.2244198214590982 0 1 0 I I #
face $-1 $332 $333 $31 $-1 $334 forward single #
loop $-1 $-1 $228 $133 #
plane-surface $-1 0 -29.015473210287126 0 0 1 0 0 0 1 forward_v I I I I #
coedge $-1 $335 $336 $337 $338 forward $134 $-1 #
coedge $-1 $337 $136 $138 $230 reversed $85 $-1 #
coedge $-1 $136 $337 $339 $340 reversed $85 $-1 #
coedge $-1 $341 $139 $136 $226 forward $232 $-1 #
edge $-1 $234 0.86220991072954911 $342 3.8622099107295491 $225 $343 forward 7 unknown #
coedge $-1 $138 $137 $335 $344 reversed $54 $-1 #
coedge $-1 $345 $346 $137 $229 forward $220 $-1 #
edge $-1 $347 -52.198858607745599 $233 52.198858607745599 $228 $348 forward 7 unknown #
edge $-1 $349 -52.198858607745599 $234 52.198858607745599 $223 $350 forward 7 unknown #
coedge $-1 $139 $341 $345 $351 forward $232 $-1 #
loop $-1 $-1 $225 $332 #
vertex $-1 $229 $352 #
vertex $-1 $140 $353 #
straight-curve $-1 52.198858607745599 -12.559744138207082 3.2244198214590982 0 1 0 I I #
face $-1 $-1 $248 $32 $-1 $354 forward single #
loop $-1 $-1 $355 $141 #
plane-surface $-1 52.198858607745599 0 0 -1 0 0 0 0 1 forward_v I I I I #
coedge $-1 $356 $357 $358 $359 reversed $142 $-1 #
coedge $-1 $360 $144 $146 $246 forward $89 $-1 #
coedge $-1 $144 $360 $356 $361 forward $89 $-1 #
coedge $-1 $358 $147 $144 $243 forward $248 $-1 #
edge $-1 $250 -4.4155282016682165 $362 5.4546147372587299 $242 $363 forward 7 unknown #
coedge $-1 $364 $365 $145 $245 forward $237 $-1 #
edge $-1 $366 -69.393518271664362 $249 -66.303379761686159 $244 $367 forward 7 unknown #
edge $-1 $250 100.86459481061777 $366 104.39771721549118 $146 $368 forward 7 unknown #
coedge $-1 $147 $358 $364 $369 forward $248 $-1 #
loop $-1 $-1 $358 $236 #
vertex $-1 $245 $370 #
vertex $-1 $148 $371 #
straight-curve $-1 46.447072029538987 3.8959849338729597 6.2244198214590938 -1 0 0 I I #
coedge $-1 $252 $252 $-1 $372 reversed $151 $-1 #
edge $-1 $373 0 $373 6.2831853071796004 $152 $374 forward 7 unknown #
vertex $-1 $155 $375 #
ellipse-curve $-1 51.342412766351053 -3.1541171653605744 4.679350566469977 0.87461971476443456 0 0.48480960649040278 0.12120240162260069 0 -0.21865492869110864 1 I I #
coedge $-1 $256 $256 $-1 $376 reversed $158 $-1 #
edge $-1 $377 0 $377 6.2831853071796004 $159 $378 forward 7 unknown #
vertex $-1 $162 $379 #
ellipse-curve $-1 51.342412766351053 1.0759440941795475 4.679350566469977 0.87461971476443456 0 0.48480960649040278 0.12120240162260069 0 -0.21865492869110864 1 I I #
face $-1 $-1 $273 $35 $-1 $380 forward single #
loop $-1 $-1 $269 $163 #
plane-surface $-1 0 29.015473210287126 0 0 -1 0 0 0 -1 forward_v I I I I #
coedge $-1 $381 $382 $265 $383 forward $164 $-1 #
coedge $-1 $265 $166 $168 $271 reversed $103 $-1 #
coedge $-1 $166 $264 $263 $383 reversed $103 $-1 #
coedge $-1 $384 $169 $166 $267 forward $273 $-1 #
edge $-1 $275 4.0388948954175135 $385 5.7517865782066124 $266 $386 forward 7 unknown #
coedge $-1 $168 $167 $381 $387 reversed $66 $-1 #
coedge $-1 $388 $389 $167 $270 forward $261 $-1 #
edge $-1 $390 -63.481460544860795 $274 -59.948338139987392 $269 $391 forward 7 unknown #
edge $-1 $392 -104.39771721549118 $275 -100.86459481061777 $264 $393 forward 7 unknown #
coedge $-1 $169 $384 $388 $394 forward $273 $-1 #
loop $-1 $-1 $266 $260 #
vertex $-1 $270 $395 #
vertex $-1 $170 $396 #
straight-curve $-1 50.4859669249565 12.040200870411823 6.2244198214591009 0 -1 0 I I #
coedge $-1 $277 $277 $-1 $397 reversed $173 $-1 #
edge $-1 $398 0 $398 6.2831853071796004 $174 $399 forward 7 unknown #
vertex $-1 $177 $400 #
ellipse-curve $-1 51.342412766351053 21.965371111053585 4.679350566469977 0.87461971476443456 0 0.48480960649040278 0.12120240162260069 0 -0.21865492869110864 1 I I #
coedge $-1 $281 $281 $-1 $401 reversed $180 $-1 #
edge $-1 $402 0 $402 6.2831853071796004 $181 $403 forward 7 unknown #
vertex $-1 $184 $404 #
ellipse-curve $-1 51.342412766351053 26.195432370593707 4.679350566469977 0.87461971476443456 0 0.48480960649040278 0.12120240162260069 0 -0.21865492869110864 1 I I #
face $-1 $-1 $297 $38 $-1 $405 forward single #
loop $-1 $-1 $406 $185 #
plane-surface $-1 -52.198858607745599 0 0 1 0 0 0 0 -1 forward_v I I I I #
coedge $-1 $407 $408 $409 $410 reversed $186 $-1 #
coedge $-1 $411 $188 $190 $295 forward $117 $-1 #
coedge $-1 $188 $411 $407 $412 forward $117 $-1 #
coedge $-1 $409 $191 $188 $292 forward $297 $-1 #
edge $-1 $299 -6.8026889053069244 $413 2.9603181075966933 $291 $414 forward 7 unknown #
coedge $-1 $415 $416 $189 $294 forward $286 $-1 #
edge $-1 $417 -23.830047179784913 $298 -20.558549200494614 $293 $418 forward 7 unknown #
edge $-1 $299 -3.7404804900509738 $417 -1.4708645604606407e-014 $190 $419 forward 7 unknown #
coedge $-1 $191 $409 $415 $420 forward $297 $-1 #
loop $-1 $-1 $409 $285 #
vertex $-1 $294 $421 #
vertex $-1 $192 $422 #
straight-curve $-1 -71.753580130408309 -8.7238743041620399 6.2244198214590973 1 0 0 I I #
coedge $-1 $301 $301 $-1 $423 reversed $195 $-1 #
edge $-1 $424 0 $424 6.2831853071796004 $196 $425 forward 7 unknown #
vertex $-1 $199 $426 #
ellipse-curve $-1 -51.292148170512284 -3.8423707977102346 4.5886708318139471 -0.87461971476443456 0 0.48480960649040278 0.24240480324520139 0 0.43730985738221728 1 I I #
face $-1 $-1 $215 $30 $-1 $427 reversed single #
loop $-1 $-1 $321 $200 #
plane-surface $-1 0 29.015473210287126 0 0 -1 0 0 0 -1 forward_v I I I I #
coedge $-1 $428 $319 $322 $429 forward $201 $-1 #
coedge $-1 $325 $203 $204 $313 reversed $126 $-1 #
coedge $-1 $319 $428 $203 $311 reversed $201 $-1 #
edge $-1 $326 -6.2244198214590982 $430 6.2244198214590982 $310 $431 forward 7 unknown #
coedge $-1 $205 $204 $428 $432 forward $81 $-1 #
edge $-1 $317 -52.198858607745599 $430 52.198858607745599 $309 $433 forward 7 unknown #
coedge $-1 $322 $321 $205 $315 reversed $306 $-1 #
edge $-1 $434 -52.198858607745599 $316 52.198858607745599 $314 $435 forward 7 unknown #
vertex $-1 $207 $436 #
vertex $-1 $328 $437 #
straight-curve $-1 52.198858607745599 0 -6.2244198214590982 0 -1 0 I I #
coedge $-1 $308 $310 $208 $320 reversed $201 $-1 #
edge $-1 $323 -29.015473210287126 $326 29.015473210287126 $319 $438 forward 7 unknown #
coedge $-1 $314 $209 $214 $329 forward $306 $-1 #
coedge $-1 $209 $314 $308 $429 reversed $306 $-1 #
vertex $-1 $210 $439 #
straight-curve $-1 0 29.015473210287126 6.2244198214590982 -1 0 0 I I #
coedge $-1 $211 $309 $213 $328 reversed $126 $-1 #
vertex $-1 $320 $440 #
straight-curve $-1 0 -29.015473210287126 6.2244198214590982 1 0 0 I I #
edge $-1 $216 -6.2244198214590982 $317 6.2244198214590982 $213 $441 forward 7 unknown #
edge $-1 $217 -6.2244198214590982 $316 6.2244198214590982 $214 $442 forward 7 unknown #
point $-1 52.198858607745599 -29.015473210287126 6.2244198214590982 #
point $-1 52.198858607745599 29.015473210287126 6.2244198214590982 #
face $-1 $-1 $232 $31 $-1 $443 reversed single #
loop $-1 $-1 $339 $219 #
plane-surface $-1 0 0 6.2244198214590982 0 0 1 1 0 0 forward_v I I I I #
coedge $-1 $444 $222 $227 $344 forward $134 $-1 #
coedge $-1 $222 $444 $445 $446 reversed $134 $-1 #
coedge $-1 $224 $223 $222 $338 reversed $85 $-1 #
edge $-1 $447 -3.8622099107295491 $349 -0.86220991072954911 $222 $448 forward 7 unknown #
coedge $-1 $445 $449 $224 $340 forward $333 $-1 #
edge $-1 $342 -52.198858607745599 $447 52.198858607745599 $339 $450 forward 7 unknown #
coedge $-1 $231 $225 $449 $451 reversed $232 $-1 #
vertex $-1 $226 $452 #
straight-curve $-1 52.198858607745599 -21.2235033425412 2.3622099107295491 0 0 1 I I #
edge $-1 $349 8.6637592043341183 $347 16.455729072080047 $335 $453 forward 7 unknown #
coedge $-1 $454 $228 $231 $351 reversed $220 $-1 #
coedge $-1 $228 $454 $444 $455 forward $220 $-1 #
vertex $-1 $229 $456 #
straight-curve $-1 0 -29.015473210287126 3.2244198214590982 1 0 0 I I #
vertex $-1 $344 $457 #
straight-curve $-1 0 -21.2235033425412 3.2244198214590982 1 0 0 I I #
edge $-1 $458 -6.2244198214590982 $233 -3.2244198214590982 $231 $459 forward 7 unknown #
point $-1 52.198858607745599 -29.015473210287126 3.2244198214590982 #
point $-1 52.198858607745599 -21.2235033425412 3.2244198214590982 #
plane-surface $-1 0 0 6.2244198214590982 0 0 1 1 0 0 forward_v I I I I #
coedge $-1 $365 $364 $357 $460 forward $237 $-1 #
coedge $-1 $357 $239 $241 $361 reversed $142 $-1 #
coedge $-1 $239 $356 $355 $460 reversed $142 $-1 #
coedge $-1 $247 $242 $239 $359 forward $248 $-1 #
edge $-1 $362 4.0388948954175135 $461 5.7517865782066124 $358 $462 forward 7 unknown #
coedge $-1 $241 $240 $365 $463 reversed $89 $-1 #
edge $-1 $464 -104.39771721549118 $362 -100.86459481061777 $356 $465 forward 7 unknown #
vertex $-1 $243 $466 #
straight-curve $-1 50.4859669249565 -0.51954326779525672 6.2244198214591009 0 -1 0 I I #
coedge $-1 $355 $244 $247 $369 reversed $237 $-1 #
coedge $-1 $244 $355 $360 $463 forward $237 $-1 #
vertex $-1 $245 $467 #
straight-curve $-1 52.198858607745599 3.8959849338729597 72.527799583145253 0 0 1 I I #
straight-curve $-1 1.5858424060069751 3.8959849338729597 94.442582964551875 0.48480960649040278 0 -0.87461971476443456 I I #
edge $-1 $461 -5.9741580050539866 $249 3.8959849338729597 $364 $468 forward 7 unknown #
point $-1 52.198858607745599 3.8959849338729597 6.2244198214590982 #
point $-1 50.4859669249565 3.8959849338729597 6.2244198214590938 #
edge $-1 $469 1 $469 0 $252 $-1 forward 7 unknown #
vertex $-1 $253 $470 #
ellipse-curve $-1 50.467793051586604 -3.1541171653605744 4.1945409599795669 0.87461971476443456 0 0.48480960649040278 0.12120240162260069 0 -0.21865492869110864 1 I I #
point $-1 51.463615167973636 -3.1541171653605744 4.4606956377788611 #
edge $-1 $471 1 $471 0 $256 $-1 forward 7 unknown #
vertex $-1 $257 $472 #
ellipse-curve $-1 50.467793051586604 1.0759440941795475 4.1945409599795669 0.87461971476443456 0 0.48480960649040278 0.12120240162260069 0 -0.21865492869110864 1 I I #
point $-1 51.463615167973636 1.0759440941795475 4.4606956377788611 #
plane-surface $-1 0 0 6.2244198214590982 0 0 1 1 0 0 forward_v I I I I #
coedge $-1 $473 $263 $268 $387 forward $164 $-1 #
coedge $-1 $263 $473 $384 $474 reversed $164 $-1 #
edge $-1 $385 66.303379761686159 $392 69.393518271664362 $263 $475 forward 7 unknown #
coedge $-1 $272 $266 $382 $474 forward $273 $-1 #
vertex $-1 $474 $476 #
straight-curve $-1 46.447072029538987 19.145330271360173 6.2244198214590938 1 0 0 I I #
edge $-1 $392 7.1051294009483499 $390 16.975272339875296 $381 $477 forward 7 unknown #
coedge $-1 $389 $269 $272 $394 reversed $261 $-1 #
coedge $-1 $269 $388 $473 $478 forward $261 $-1 #
vertex $-1 $270 $479 #
straight-curve $-1 21.422436701555608 29.015473210287126 58.656418226056736 -0.48480960649040278 0 0.87461971476443456 I I #
vertex $-1 $387 $480 #
straight-curve $-1 1.5858424060069751 19.145330271360173 94.442582964551875 -0.48480960649040278 0 0.87461971476443456 I I #
edge $-1 $481 -52.198858607745599 $274 -50.4859669249565 $388 $482 forward 7 unknown #
point $-1 50.4859669249565 29.015473210287119 6.2244198214590938 #
point $-1 50.4859669249565 19.145330271360173 6.2244198214590938 #
edge $-1 $483 1 $483 0 $277 $-1 forward 7 unknown #
vertex $-1 $278 $484 #
ellipse-curve $-1 50.467793051586604 21.965371111053585 4.1945409599795669 0.87461971476443456 0 0.48480960649040278 0.12120240162260069 0 -0.21865492869110864 1 I I #
point $-1 51.463615167973636 21.965371111053585 4.4606956377788611 #
edge $-1 $485 1 $485 0 $281 $-1 forward 7 unknown #
vertex $-1 $282 $486 #
ellipse-curve $-1 50.467793051586604 26.195432370593707 4.1945409599795669 0.87461971476443456 0 0.48480960649040278 0.12120240162260069 0 -0.21865492869110864 1 I I #
point $-1 51.463615167973636 26.195432370593707 4.4606956377788611 #
plane-surface $-1 0 0 6.2244198214590982 0 0 1 1 0 0 forward_v I I I I #
coedge $-1 $416 $415 $408 $487 forward $286 $-1 #
coedge $-1 $408 $288 $290 $412 reversed $186 $-1 #
coedge $-1 $288 $407 $406 $487 reversed $186 $-1 #
coedge $-1 $296 $291 $288 $410 forward $297 $-1 #
edge $-1 $413 -21.368142397129347 $488 -19.55472152266271 $409 $489 forward 7 unknown #
coedge $-1 $290 $289 $416 $490 reversed $117 $-1 #
edge $-1 $491 1.4708645604606407e-014 $413 3.7404804900509738 $407 $492 forward 7 unknown #
vertex $-1 $292 $493 #
straight-curve $-1 -50.385437733278962 -1.9211853988551155 6.2244198214591009 0 1 0 I I #
coedge $-1 $406 $293 $296 $420 reversed $286 $-1 #
coedge $-1 $293 $406 $411 $490 forward $286 $-1 #
vertex $-1 $294 $494 #
straight-curve $-1 -52.198858607745599 -8.7238743041620399 26.782969021953711 0 0 1 I I #
straight-curve $-1 -52.198858607745606 -8.7238743041620399 2.9529218421687844 -0.48480960649040278 0 -0.87461971476443456 I I #
edge $-1 $488 -1.0391327087415778 $298 8.7238743041620399 $415 $495 forward 7 unknown #
point $-1 -52.198858607745599 -8.7238743041620399 6.2244198214590982 #
point $-1 -50.385437733278962 -8.7238743041620399 6.2244198214590982 #
edge $-1 $496 1 $496 0 $301 $-1 forward 7 unknown #
vertex $-1 $302 $497 #
ellipse-curve $-1 -50.417528455747842 -3.8423707977102346 4.1038612253235405 -0.87461971476443456 0 0.48480960649040278 0.24240480324520139 0 0.43730985738221728 1 I I #
point $-1 -51.049743367267077 -3.8423707977102346 5.0259806891961611 #
plane-surface $-1 52.198858607745599 0 0 -1 0 0 0 0 1 forward_v I I I I #
coedge $-1 $310 $308 $312 $432 reversed $201 $-1 #
edge $-1 $323 -6.2244198214590982 $434 6.2244198214590982 $322 $498 forward 7 unknown #
vertex $-1 $432 $499 #
straight-curve $-1 -52.198858607745599 -29.015473210287126 0 0 0 -1 I I #
edge $-1 $430 -29.015473210287126 $434 29.015473210287126 $428 $500 forward 7 unknown #
straight-curve $-1 0 -29.015473210287126 -6.2244198214590982 -1 0 0 I I #
vertex $-1 $315 $501 #
straight-curve $-1 0 29.015473210287126 -6.2244198214590982 1 0 0 I I #
point $-1 52.198858607745599 29.015473210287126 -6.2244198214590982 #
point $-1 52.198858607745599 -29.015473210287126 -6.2244198214590982 #
straight-curve $-1 -52.198858607745599 0 6.2244198214590982 0 -1 0 I I #
point $-1 -52.198858607745599 29.015473210287126 6.2244198214590982 #
point $-1 -52.198858607745599 -29.015473210287126 6.2244198214590982 #
straight-curve $-1 52.198858607745599 -29.015473210287126 0 0 0 -1 I I #
straight-curve $-1 52.198858607745599 29.015473210287126 0 0 0 -1 I I #
plane-surface $-1 52.198858607745599 0 0 -1 0 0 0 0 1 forward_v I I I I #
coedge $-1 $336 $335 $346 $455 reversed $134 $-1 #
coedge $-1 $502 $339 $336 $446 forward $333 $-1 #
edge $-1 $447 21.2235033425412 $503 29.015473210287126 $336 $504 forward 7 unknown #
vertex $-1 $446 $505 #
straight-curve $-1 -52.198858607745599 -21.2235033425412 2.3622099107295491 0 0 -1 I I #
coedge $-1 $339 $502 $341 $451 forward $333 $-1 #
straight-curve $-1 0 -21.2235033425412 6.2244198214590982 -1 0 0 I I #
edge $-1 $458 -29.015473210287126 $342 -21.2235033425412 $341 $506 forward 7 unknown #
point $-1 52.198858607745599 -21.2235033425412 6.2244198214590982 #
straight-curve $-1 -52.198858607745599 -12.559744138207082 3.2244198214590982 0 -1 0 I I #
coedge $-1 $346 $345 $502 $507 reversed $220 $-1 #
edge $-1 $503 -6.2244198214590982 $347 -3.2244198214590982 $444 $508 forward 7 unknown #
point $-1 -52.198858607745599 -29.015473210287126 3.2244198214590982 #
point $-1 -52.198858607745599 -21.2235033425412 3.2244198214590982 #
vertex $-1 $451 $509 #
straight-curve $-1 52.198858607745599 -29.015473210287126 0 0 0 -1 I I #
edge $-1 $461 66.303379761686159 $464 69.393518271664362 $355 $510 forward 7 unknown #
vertex $-1 $369 $511 #
straight-curve $-1 46.447072029538987 -5.9741580050539866 6.2244198214590938 1 0 0 I I #
edge $-1 $464 -5.4546147372587299 $366 4.4155282016682165 $365 $512 forward 7 unknown #
vertex $-1 $463 $513 #
straight-curve $-1 1.5858424060069751 -5.9741580050539866 94.442582964551875 -0.48480960649040278 0 0.87461971476443456 I I #
point $-1 50.4859669249565 -5.9741580050539866 6.2244198214590938 #
point $-1 52.198858607745599 3.8959849338729597 3.1342813114808905 #
straight-curve $-1 52.198858607745599 0 6.2244198214590982 0 1 0 I I #
vertex $-1 $372 $514 #
point $-1 50.588995453209208 -3.1541171653605744 3.9758860312884585 #
vertex $-1 $376 $515 #
point $-1 50.588995453209208 1.0759440941795475 3.9758860312884585 #
coedge $-1 $382 $381 $389 $478 reversed $164 $-1 #
edge $-1 $385 19.145330271360173 $481 29.015473210287126 $382 $516 forward 7 unknown #
straight-curve $-1 52.198858607745599 19.145330271360173 72.527799583145253 0 0 -1 I I #
point $-1 52.198858607745599 19.145330271360173 6.2244198214590982 #
straight-curve $-1 52.198858607745599 12.040200870411823 3.1342813114808834 0 1 0 I I #
edge $-1 $481 -6.2244198214590982 $390 -3.1342813114808905 $473 $517 forward 7 unknown #
point $-1 52.198858607745599 29.015473210287119 3.1342813114808905 #
point $-1 52.198858607745599 19.145330271360173 3.1342813114808905 #
vertex $-1 $474 $518 #
straight-curve $-1 0 29.015473210287126 6.2244198214590982 -1 0 0 I I #
vertex $-1 $397 $519 #
point $-1 50.588995453209208 21.965371111053585 3.9758860312884585 #
vertex $-1 $401 $520 #
point $-1 50.588995453209208 26.195432370593707 3.9758860312884585 #
edge $-1 $488 20.558549200494614 $491 23.830047179784913 $406 $521 forward 7 unknown #
vertex $-1 $420 $522 #
straight-curve $-1 -71.753580130408309 1.0391327087415778 6.2244198214590973 -1 0 0 I I #
edge $-1 $491 -2.9603181075966933 $417 6.8026889053069244 $416 $523 forward 7 unknown #
vertex $-1 $490 $524 #
straight-curve $-1 -52.198858607745606 1.0391327087415778 2.9529218421687844 0.48480960649040278 0 0.87461971476443456 I I #
point $-1 -50.385437733278962 1.0391327087415778 6.2244198214590982 #
point $-1 -52.198858607745599 -8.7238743041620399 2.9529218421687973 #
straight-curve $-1 -52.198858607745599 0 6.2244198214590982 0 -1 0 I I #
vertex $-1 $423 $525 #
point $-1 -50.175123652502641 -3.8423707977102346 4.5411710827057581 #
straight-curve $-1 -52.198858607745599 29.015473210287126 0 0 0 -1 I I #
point $-1 -52.198858607745599 -29.015473210287126 -6.2244198214590982 #
straight-curve $-1 -52.198858607745599 0 -6.2244198214590982 0 1 0 I I #
point $-1 -52.198858607745599 29.015473210287126 -6.2244198214590982 #
coedge $-1 $449 $445 $454 $507 forward $333 $-1 #
vertex $-1 $446 $526 #
straight-curve $-1 -52.198858607745599 0 6.2244198214590982 0 -1 0 I I #
point $-1 -52.198858607745599 -21.2235033425412 6.2244198214590982 #
straight-curve $-1 52.198858607745599 0 6.2244198214590982 0 1 0 I I #
edge $-1 $503 -52.198858607745599 $458 52.198858607745599 $454 $527 forward 7 unknown #
straight-curve $-1 -52.198858607745599 -29.015473210287126 0 0 0 -1 I I #
point $-1 52.198858607745599 -29.015473210287126 6.2244198214590982 #
straight-curve $-1 52.198858607745599 -5.9741580050539866 72.527799583145253 0 0 -1 I I #
point $-1 52.198858607745599 -5.9741580050539866 6.2244198214590982 #
straight-curve $-1 52.198858607745599 -0.51954326779525672 3.1342813114808834 0 1 0 I I #
point $-1 52.198858607745599 -5.9741580050539866 3.1342813114808905 #
point $-1 50.249138122895495 -3.1541171653605744 4.0733385583569666 #
point $-1 50.249138122895495 1.0759440941795475 4.0733385583569666 #
straight-curve $-1 52.198858607745599 0 6.2244198214590982 0 1 0 I I #
straight-curve $-1 52.198858607745599 29.015473210287126 0 0 0 -1 I I #
point $-1 52.198858607745599 29.015473210287126 6.2244198214590982 #
point $-1 50.249138122895495 21.965371111053585 4.0733385583569666 #
point $-1 50.249138122895495 26.195432370593707 4.0733385583569666 #
straight-curve $-1 -52.198858607745599 1.0391327087415778 26.782969021953711 0 0 -1 I I #
point $-1 -52.198858607745599 1.0391327087415778 6.2244198214590982 #
straight-curve $-1 -52.198858607745599 -1.9211853988551155 2.9529218421688048 0 -1 0 I I #
point $-1 -52.198858607745599 1.0391327087415778 2.9529218421687973 #
point $-1 -49.980218598365624 -3.8423707977102346 3.8614564220783394 #
point $-1 -52.198858607745599 -29.015473210287126 6.2244198214590982 #
straight-curve $-1 0 -29.015473210287126 6.2244198214590982 1 0 0 I I #
End-of-ACIS-data 