500 0 6 0           
7 Unknown 11 ACIS 5.0 NT 24 Fri Mar 26 16:43:43 1999 
-1 9.9999999999999995e-007 1e-010 
body $-1 $6 $-1 $7 #
body $-1 $8 $-1 $9 #
body $-1 $10 $-1 $11 #
body $-1 $12 $-1 $13 #
body $-1 $14 $-1 $15 #
body $-1 $16 $-1 $17 #
lump $-1 $-1 $18 $0 #
transform $-1 1 0 0 0 1 0 0 0 1 64.174321726126891 34.047036462029943 12.940928706097775 1 rotate no_reflect no_shear #
lump $-1 $-1 $19 $1 #
transform $-1 1 0 0 0 1 0 0 0 1 64.174321726126891 34.047036462029943 12.940928706097775 1 rotate no_reflect no_shear #
lump $-1 $-1 $20 $2 #
transform $-1 1 0 0 0 1 0 0 0 1 64.174321726126891 34.047036462029943 12.940928706097775 1 rotate no_reflect no_shear #
lump $-1 $-1 $21 $3 #
transform $-1 1 0 0 0 1 0 0 0 1 64.174321726126891 34.047036462029943 12.940928706097775 1 rotate no_reflect no_shear #
lump $-1 $-1 $22 $4 #
transform $-1 1 0 0 0 1 0 0 0 1 64.174321726126891 34.047036462029943 12.940928706097775 1 rotate no_reflect no_shear #
lump $-1 $-1 $23 $5 #
transform $-1 1 0 0 0 1 0 0 0 1 64.174321726126891 34.047036462029943 12.940928706097775 1 rotate no_reflect no_shear #
shell $-1 $-1 $-1 $24 $-1 $6 #
shell $-1 $-1 $-1 $25 $-1 $8 #
shell $-1 $-1 $-1 $26 $-1 $10 #
shell $-1 $-1 $-1 $27 $-1 $12 #
shell $-1 $-1 $-1 $28 $-1 $14 #
shell $-1 $-1 $-1 $29 $-1 $16 #
face $-1 $30 $31 $18 $-1 $32 forward single #
face $-1 $33 $34 $19 $-1 $35 reversed single #
face $-1 $36 $37 $20 $-1 $38 reversed single #
face $-1 $39 $40 $21 $-1 $41 forward single #
face $-1 $42 $43 $22 $-1 $44 forward single #
face $-1 $45 $46 $23 $-1 $47 forward single #
face $-1 $48 $49 $18 $-1 $50 reversed single #
loop $-1 $-1 $51 $24 #
plane-surface $-1 0 0 12.940928706097775 0 0 1 1 0 0 forward_v I I I I #
face $-1 $52 $53 $19 $-1 $54 reversed single #
loop $-1 $-1 $55 $25 #
plane-surface $-1 0 -29.239702810382539 9.5919346803411347 0 0 1 1 0 0 forward_v I I I I #
face $-1 $56 $57 $20 $-1 $58 reversed single #
loop $-1 $-1 $59 $26 #
plane-surface $-1 -64.174321726126919 -16.604799086210853 2.1094173190557086 -0.52991927123019833 0 0.84804809178421925 0.84804809178421925 0 0.52991927123019833 forward_v I I I I #
face $-1 $60 $61 $21 $-1 $62 forward single #
loop $-1 $63 $64 $27 #
cone-surface $-1 -54.63358195299616 -21.301341129725422 6.1269302017399667 0.52991927123019833 0 -0.84804809178421925 1.2720721376763289 0 0.79487890684529749 1 I I 0 1 1.5 forward I I I I #
face $-1 $65 $66 $22 $-1 $67 forward single #
loop $-1 $68 $69 $28 #
cone-surface $-1 -54.63358195299616 -16.604799086210853 6.1269302017399667 0.52991927123019833 0 -0.84804809178421925 1.2720721376763289 0 0.79487890684529749 1 I I 0 1 1.5 forward I I I I #
face $-1 $70 $71 $23 $-1 $72 forward single #
loop $-1 $73 $74 $29 #
cone-surface $-1 -54.63358195299616 -11.908257042696285 6.1269302017399667 0.52991927123019833 0 -0.84804809178421925 1.2720721376763289 0 0.79487890684529749 1 I I 0 1 1.5 forward I I I I #
face $-1 $75 $76 $18 $-1 $77 reversed single #
loop $-1 $-1 $78 $30 #
plane-surface $-1 0 0 -12.940928706097775 0 0 1 1 0 0 forward_v I I I I #
coedge $-1 $79 $80 $81 $82 forward $31 $-1 #
face $-1 $83 $84 $19 $-1 $85 reversed single #
loop $-1 $-1 $86 $33 #
plane-surface $-1 0 -24.432369158735135 11.266431693219456 0 -1 0 0 0 -1 forward_v I I I I #
coedge $-1 $87 $88 $89 $90 reversed $34 $-1 #
face $-1 $91 $92 $20 $-1 $93 forward single #
loop $-1 $-1 $94 $36 #
plane-surface $-1 -132.18874132772982 -8.777229013686572 110.95523948183265 0 -1 0 0.52991927123019833 0 -0.84804809178421925 forward_v I I I I #
coedge $-1 $95 $96 $97 $98 reversed $37 $-1 #
face $-1 $-1 $99 $21 $-1 $100 forward single #
loop $-1 $101 $102 $39 #
cone-surface $-1 -53.362423404513024 -21.301341129725422 4.0926513220650342 0.52991927123019833 0 -0.84804809178421925 0.63603606883816444 0 0.39743945342264875 1 I I -0.70710678118654757 0.70710678118654757 0.75 forward I I I I #
loop $-1 $-1 $103 $27 #
coedge $-1 $64 $64 $104 $105 reversed $40 $-1 #
face $-1 $-1 $106 $22 $-1 $107 forward single #
loop $-1 $108 $109 $42 #
cone-surface $-1 -53.362423404513024 -16.604799086210853 4.0926513220650342 0.52991927123019833 0 -0.84804809178421925 0.63603606883816444 0 0.39743945342264875 1 I I -0.70710678118654757 0.70710678118654757 0.75 forward I I I I #
loop $-1 $-1 $110 $28 #
coedge $-1 $69 $69 $111 $112 reversed $43 $-1 #
face $-1 $-1 $113 $23 $-1 $114 forward single #
loop $-1 $115 $116 $45 #
cone-surface $-1 -53.362423404513024 -11.908257042696285 4.0926513220650342 0.52991927123019833 0 -0.84804809178421925 0.63603606883816444 0 0.39743945342264875 1 I I -0.70710678118654757 0.70710678118654757 0.75 forward I I I I #
loop $-1 $-1 $117 $29 #
coedge $-1 $74 $74 $118 $119 reversed $46 $-1 #
face $-1 $120 $121 $18 $-1 $122 reversed single #
loop $-1 $-1 $123 $48 #
plane-surface $-1 0 -34.047036462029943 0 0 1 0 0 0 1 forward_v I I I I #
coedge $-1 $124 $125 $126 $127 forward $49 $-1 #
coedge $-1 $128 $51 $129 $130 forward $31 $-1 #
coedge $-1 $51 $128 $131 $132 forward $31 $-1 #
coedge $-1 $133 $134 $51 $82 reversed $135 $-1 #
edge $-1 $136 -34.047036462029943 $137 34.047036462029943 $81 $138 forward 7 unknown #
face $-1 $139 $140 $19 $-1 $141 reversed single #
loop $-1 $-1 $142 $52 #
plane-surface $-1 -64.174321726126891 0 0 1 0 0 0 0 -1 forward_v I I I I #
coedge $-1 $143 $144 $145 $146 reversed $53 $-1 #
coedge $-1 $147 $55 $148 $149 reversed $34 $-1 #
coedge $-1 $55 $147 $143 $150 forward $34 $-1 #
coedge $-1 $145 $151 $55 $90 forward $152 $-1 #
edge $-1 $153 -19.427185056838674 $154 -9.8125177535438652 $89 $155 forward 7 unknown #
face $-1 $156 $157 $20 $-1 $158 reversed single #
loop $-1 $-1 $97 $56 #
plane-surface $-1 0 0 12.940928706097775 0 0 1 1 0 0 forward_v I I I I #
coedge $-1 $159 $160 $161 $162 reversed $57 $-1 #
coedge $-1 $163 $59 $164 $165 reversed $37 $-1 #
coedge $-1 $59 $163 $159 $166 forward $37 $-1 #
coedge $-1 $161 $167 $59 $98 forward $92 $-1 #
edge $-1 $168 -16.129969615629708 $169 -0.47482947058114533 $97 $170 forward 7 unknown #
loop $-1 $-1 $104 $60 #
plane-surface $-1 -64.174321726126919 -16.604799086210853 2.1094173190557086 -0.52991927123019833 0 0.84804809178421925 0.84804809178421925 0 0.52991927123019833 forward_v I I I I #
loop $-1 $-1 $171 $39 #
coedge $-1 $102 $102 $103 $172 reversed $61 $-1 #
coedge $-1 $103 $103 $102 $172 forward $63 $-1 #
coedge $-1 $104 $104 $64 $105 forward $99 $-1 #
edge $-1 $173 0 $173 6.2831853071796004 $104 $174 forward 7 unknown #
loop $-1 $-1 $111 $65 #
plane-surface $-1 -64.174321726126919 -16.604799086210853 2.1094173190557086 -0.52991927123019833 0 0.84804809178421925 0.84804809178421925 0 0.52991927123019833 forward_v I I I I #
loop $-1 $-1 $175 $42 #
coedge $-1 $109 $109 $110 $176 reversed $66 $-1 #
coedge $-1 $110 $110 $109 $176 forward $68 $-1 #
coedge $-1 $111 $111 $69 $112 forward $106 $-1 #
edge $-1 $177 0 $177 6.2831853071796004 $111 $178 forward 7 unknown #
loop $-1 $-1 $118 $70 #
plane-surface $-1 -64.174321726126919 -16.604799086210853 2.1094173190557086 -0.52991927123019833 0 0.84804809178421925 0.84804809178421925 0 0.52991927123019833 forward_v I I I I #
loop $-1 $-1 $179 $45 #
coedge $-1 $116 $116 $117 $180 reversed $71 $-1 #
coedge $-1 $117 $117 $116 $180 forward $73 $-1 #
coedge $-1 $118 $118 $74 $119 forward $113 $-1 #
edge $-1 $181 0 $181 6.2831853071796004 $118 $182 forward 7 unknown #
face $-1 $183 $184 $18 $-1 $185 reversed single #
loop $-1 $-1 $186 $75 #
plane-surface $-1 -64.174321726126891 0 0 1 0 0 0 0 -1 forward_v I I I I #
coedge $-1 $187 $131 $188 $189 forward $76 $-1 #
coedge $-1 $190 $78 $187 $191 forward $49 $-1 #
coedge $-1 $78 $190 $192 $193 forward $49 $-1 #
coedge $-1 $134 $133 $78 $127 reversed $135 $-1 #
edge $-1 $194 -34.047036462029943 $195 34.047036462029943 $126 $196 forward 7 unknown #
coedge $-1 $80 $79 $197 $198 forward $31 $-1 #
coedge $-1 $199 $200 $79 $130 reversed $184 $-1 #
edge $-1 $137 -64.174321726126891 $201 64.174321726126891 $129 $202 forward 7 unknown #
coedge $-1 $123 $203 $80 $132 reversed $76 $-1 #
edge $-1 $204 -64.174321726126891 $136 64.174321726126891 $131 $205 forward 7 unknown #
coedge $-1 $126 $81 $203 $206 forward $135 $-1 #
coedge $-1 $81 $126 $199 $207 reversed $135 $-1 #
loop $-1 $-1 $133 $183 #
vertex $-1 $82 $208 #
vertex $-1 $82 $209 #
straight-curve $-1 64.174321726126891 0 12.940928706097775 0 1 0 I I #
face $-1 $210 $211 $19 $-1 $212 forward single #
loop $-1 $-1 $148 $83 #
plane-surface $-1 0 -34.047036462029943 0 0 1 0 0 0 1 forward_v I I I I #
coedge $-1 $213 $214 $215 $216 forward $84 $-1 #
coedge $-1 $215 $86 $88 $150 reversed $53 $-1 #
coedge $-1 $86 $215 $217 $218 reversed $53 $-1 #
coedge $-1 $219 $89 $86 $146 forward $152 $-1 #
edge $-1 $154 3.9587188337314068 $220 7.3077128594880492 $145 $221 forward 7 unknown #
coedge $-1 $88 $87 $213 $222 reversed $34 $-1 #
coedge $-1 $223 $224 $87 $149 forward $140 $-1 #
edge $-1 $225 -64.174321726126891 $153 64.174321726126891 $148 $226 forward 7 unknown #
edge $-1 $227 -64.174321726126891 $154 64.174321726126891 $143 $228 forward 7 unknown #
coedge $-1 $89 $219 $223 $229 forward $152 $-1 #
loop $-1 $-1 $145 $210 #
vertex $-1 $149 $230 #
vertex $-1 $90 $231 #
straight-curve $-1 64.174321726126891 -14.61985140519127 9.5919346803411347 0 1 0 I I #
face $-1 $-1 $232 $20 $-1 $233 forward single #
loop $-1 $-1 $234 $91 #
plane-surface $-1 -64.174321726126891 0 0 1 0 0 0 0 -1 forward_v I I I I #
coedge $-1 $160 $94 $96 $166 reversed $57 $-1 #
coedge $-1 $94 $159 $234 $235 reversed $57 $-1 #
coedge $-1 $236 $97 $94 $162 forward $92 $-1 #
edge $-1 $169 -19.254090293878434 $237 -1.9200489377380165 $161 $238 forward 7 unknown #
coedge $-1 $96 $95 $239 $240 reversed $37 $-1 #
coedge $-1 $241 $242 $95 $165 forward $232 $-1 #
edge $-1 $243 -29.637694732594866 $168 -9.1977674170683272 $164 $244 forward 7 unknown #
edge $-1 $245 3.3516233665497261e-014 $169 20.439927315526571 $159 $246 forward 7 unknown #
coedge $-1 $97 $236 $241 $247 forward $92 $-1 #
vertex $-1 $165 $248 #
vertex $-1 $98 $249 #
straight-curve $-1 -46.840280369986473 -8.3023995431054267 12.940928706097775 0 1 0 I I #
coedge $-1 $171 $171 $-1 $250 reversed $101 $-1 #
edge $-1 $251 0 $251 6.2831853071796004 $102 $252 forward 7 unknown #
vertex $-1 $105 $253 #
ellipse-curve $-1 -55.507301048056668 -21.301341129725422 7.5251730125767597 -0.52991927123019833 0 0.84804809178421925 1.2720721376763289 0 0.79487890684529749 1 I I #
coedge $-1 $175 $175 $-1 $254 reversed $108 $-1 #
edge $-1 $255 0 $255 6.2831853071796004 $109 $256 forward 7 unknown #
vertex $-1 $112 $257 #
ellipse-curve $-1 -55.507301048056668 -16.604799086210853 7.5251730125767597 -0.52991927123019833 0 0.84804809178421925 1.2720721376763289 0 0.79487890684529749 1 I I #
coedge $-1 $179 $179 $-1 $258 reversed $115 $-1 #
edge $-1 $259 0 $259 6.2831853071796004 $116 $260 forward 7 unknown #
vertex $-1 $119 $261 #
ellipse-curve $-1 -55.507301048056668 -11.908257042696285 7.5251730125767597 -0.52991927123019833 0 0.84804809178421925 1.2720721376763289 0 0.79487890684529749 1 I I #
face $-1 $-1 $135 $18 $-1 $262 reversed single #
loop $-1 $-1 $199 $120 #
plane-surface $-1 0 34.047036462029943 0 0 -1 0 0 0 -1 forward_v I I I I #
coedge $-1 $263 $197 $200 $264 forward $121 $-1 #
coedge $-1 $203 $123 $124 $191 reversed $76 $-1 #
coedge $-1 $197 $263 $123 $189 reversed $121 $-1 #
edge $-1 $204 -12.940928706097775 $265 12.940928706097775 $188 $266 forward 7 unknown #
coedge $-1 $125 $124 $263 $267 forward $49 $-1 #
edge $-1 $195 -64.174321726126891 $265 64.174321726126891 $187 $268 forward 7 unknown #
coedge $-1 $200 $199 $125 $193 reversed $184 $-1 #
edge $-1 $269 -64.174321726126891 $194 64.174321726126891 $192 $270 forward 7 unknown #
vertex $-1 $127 $271 #
vertex $-1 $206 $272 #
straight-curve $-1 64.174321726126891 0 -12.940928706097775 0 -1 0 I I #
coedge $-1 $186 $188 $128 $198 reversed $121 $-1 #
edge $-1 $201 -34.047036462029943 $204 34.047036462029943 $197 $273 forward 7 unknown #
coedge $-1 $192 $129 $134 $207 forward $184 $-1 #
coedge $-1 $129 $192 $186 $264 reversed $184 $-1 #
vertex $-1 $130 $274 #
straight-curve $-1 0 34.047036462029943 12.940928706097775 -1 0 0 I I #
coedge $-1 $131 $187 $133 $206 reversed $76 $-1 #
vertex $-1 $198 $275 #
straight-curve $-1 0 -34.047036462029943 12.940928706097775 1 0 0 I I #
edge $-1 $136 -12.940928706097775 $195 12.940928706097775 $133 $276 forward 7 unknown #
edge $-1 $137 -12.940928706097775 $194 12.940928706097775 $134 $277 forward 7 unknown #
point $-1 64.174321726126891 -34.047036462029943 12.940928706097775 #
point $-1 64.174321726126891 34.047036462029943 12.940928706097775 #
face $-1 $-1 $152 $19 $-1 $278 reversed single #
loop $-1 $-1 $217 $139 #
plane-surface $-1 0 0 12.940928706097775 0 0 1 1 0 0 forward_v I I I I #
coedge $-1 $279 $142 $147 $222 forward $84 $-1 #
coedge $-1 $142 $279 $280 $281 reversed $84 $-1 #
coedge $-1 $144 $143 $142 $216 reversed $53 $-1 #
edge $-1 $282 -7.3077128594880492 $227 -3.9587188337314068 $142 $283 forward 7 unknown #
coedge $-1 $280 $284 $144 $218 forward $211 $-1 #
edge $-1 $220 -64.174321726126891 $282 64.174321726126891 $217 $285 forward 7 unknown #
coedge $-1 $151 $145 $284 $286 reversed $152 $-1 #
vertex $-1 $146 $287 #
straight-curve $-1 64.174321726126891 -24.432369158735135 5.633215846609728 0 0 1 I I #
edge $-1 $227 9.8125177535438652 $225 19.427185056838674 $213 $288 forward 7 unknown #
coedge $-1 $289 $148 $151 $229 reversed $140 $-1 #
coedge $-1 $148 $289 $279 $290 forward $140 $-1 #
vertex $-1 $149 $291 #
straight-curve $-1 0 -34.047036462029943 9.5919346803411347 1 0 0 I I #
vertex $-1 $222 $292 #
straight-curve $-1 0 -24.432369158735135 9.5919346803411347 1 0 0 I I #
edge $-1 $293 -12.940928706097775 $153 -9.5919346803411347 $151 $294 forward 7 unknown #
point $-1 64.174321726126891 -34.047036462029943 9.5919346803411347 #
point $-1 64.174321726126891 -24.432369158735135 9.5919346803411347 #
loop $-1 $-1 $164 $156 #
plane-surface $-1 0 -24.432369158735135 11.266431693219456 0 -1 0 0 0 -1 forward_v I I I I #
coedge $-1 $239 $295 $160 $235 forward $157 $-1 #
edge $-1 $237 42.536691034818546 $245 53.368202421860602 $234 $296 forward 7 unknown #
coedge $-1 $167 $161 $295 $297 forward $92 $-1 #
vertex $-1 $297 $298 #
straight-curve $-1 -66.094370663864908 -8.777229013686572 12.940928706097772 -1 0 0 I I #
coedge $-1 $299 $234 $163 $240 forward $157 $-1 #
edge $-1 $245 0.47482947058114533 $243 16.129969615629708 $239 $300 forward 7 unknown #
coedge $-1 $242 $164 $167 $247 reversed $232 $-1 #
coedge $-1 $164 $241 $299 $301 reversed $232 $-1 #
vertex $-1 $301 $302 #
straight-curve $-1 -39.040131263266609 -24.432369158735135 17.815002912695483 0.84804809178421925 0 0.52991927123019833 I I #
vertex $-1 $240 $303 #
straight-curve $-1 -64.174321726126919 -8.777229013686572 2.1094173190557086 0.84804809178421925 0 0.52991927123019833 I I #
edge $-1 $304 -64.174321726126891 $168 -46.840280369986473 $167 $305 forward 7 unknown #
point $-1 -46.840280369986473 -24.432369158735135 12.940928706097775 #
point $-1 -46.840280369986473 -8.777229013686572 12.940928706097775 #
edge $-1 $306 1 $306 0 $171 $-1 forward 7 unknown #
vertex $-1 $172 $307 #
ellipse-curve $-1 -53.759862857935673 -21.301341129725422 4.7286873909031986 -0.52991927123019833 0 0.84804809178421925 1.2720721376763289 0 0.79487890684529749 1 I I #
point $-1 -54.235228910380322 -21.301341129725422 8.3200519194220313 #
edge $-1 $308 1 $308 0 $175 $-1 forward 7 unknown #
vertex $-1 $176 $309 #
ellipse-curve $-1 -53.759862857935673 -16.604799086210853 4.7286873909031986 -0.52991927123019833 0 0.84804809178421925 1.2720721376763289 0 0.79487890684529749 1 I I #
point $-1 -54.235228910380322 -16.604799086210853 8.3200519194220313 #
edge $-1 $310 1 $310 0 $179 $-1 forward 7 unknown #
vertex $-1 $180 $311 #
ellipse-curve $-1 -53.759862857935673 -11.908257042696285 4.7286873909031986 -0.52991927123019833 0 0.84804809178421925 1.2720721376763289 0 0.79487890684529749 1 I I #
point $-1 -54.235228910380322 -11.908257042696285 8.3200519194220313 #
plane-surface $-1 64.174321726126891 0 0 -1 0 0 0 0 1 forward_v I I I I #
coedge $-1 $188 $186 $190 $267 reversed $121 $-1 #
edge $-1 $201 -12.940928706097775 $269 12.940928706097775 $200 $312 forward 7 unknown #
vertex $-1 $267 $313 #
straight-curve $-1 -64.174321726126891 -34.047036462029943 0 0 0 -1 I I #
edge $-1 $265 -34.047036462029943 $269 34.047036462029943 $263 $314 forward 7 unknown #
straight-curve $-1 0 -34.047036462029943 -12.940928706097775 -1 0 0 I I #
vertex $-1 $193 $315 #
straight-curve $-1 0 34.047036462029943 -12.940928706097775 1 0 0 I I #
point $-1 64.174321726126891 34.047036462029943 -12.940928706097775 #
point $-1 64.174321726126891 -34.047036462029943 -12.940928706097775 #
straight-curve $-1 -64.174321726126891 0 12.940928706097775 0 -1 0 I I #
point $-1 -64.174321726126891 34.047036462029943 12.940928706097775 #
point $-1 -64.174321726126891 -34.047036462029943 12.940928706097775 #
straight-curve $-1 64.174321726126891 -34.047036462029943 0 0 0 -1 I I #
straight-curve $-1 64.174321726126891 34.047036462029943 0 0 0 -1 I I #
plane-surface $-1 64.174321726126891 0 0 -1 0 0 0 0 1 forward_v I I I I #
coedge $-1 $214 $213 $224 $290 reversed $84 $-1 #
coedge $-1 $316 $217 $214 $281 forward $211 $-1 #
edge $-1 $282 24.432369158735135 $317 34.047036462029943 $214 $318 forward 7 unknown #
vertex $-1 $281 $319 #
straight-curve $-1 -64.174321726126891 -24.432369158735135 5.633215846609728 0 0 -1 I I #
coedge $-1 $217 $316 $219 $286 forward $211 $-1 #
straight-curve $-1 0 -24.432369158735135 12.940928706097775 -1 0 0 I I #
edge $-1 $293 -34.047036462029943 $220 -24.432369158735135 $219 $320 forward 7 unknown #
point $-1 64.174321726126891 -24.432369158735135 12.940928706097777 #
straight-curve $-1 -64.174321726126891 -14.61985140519127 9.5919346803411347 0 -1 0 I I #
coedge $-1 $224 $223 $316 $321 reversed $140 $-1 #
edge $-1 $317 -12.940928706097775 $225 -9.5919346803411347 $279 $322 forward 7 unknown #
point $-1 -64.174321726126891 -34.047036462029943 9.5919346803411347 #
point $-1 -64.174321726126891 -24.432369158735135 9.5919346803411347 #
vertex $-1 $286 $323 #
straight-curve $-1 64.174321726126891 -34.047036462029943 0 0 0 -1 I I #
coedge $-1 $234 $299 $236 $297 reversed $157 $-1 #
straight-curve $-1 -64.174321726126891 -8.777229013686572 55.477619740916325 0 0 -1 I I #
edge $-1 $237 8.777229013686572 $304 24.432369158735135 $295 $324 forward 7 unknown #
point $-1 -64.174321726126891 -8.777229013686572 12.940928706097775 #
coedge $-1 $295 $239 $242 $301 forward $157 $-1 #
straight-curve $-1 -64.174321726126891 -8.3023995431054267 2.1094173190557264 0 -1 0 I I #
edge $-1 $243 -53.368202421860602 $304 -42.536691034818546 $299 $325 forward 7 unknown #
point $-1 -64.174321726126891 -24.432369158735135 2.1094173190557264 #
point $-1 -64.174321726126891 -8.777229013686572 2.1094173190557264 #
vertex $-1 $301 $326 #
straight-curve $-1 0 -24.432369158735135 12.940928706097775 1 0 0 I I #
vertex $-1 $250 $327 #
point $-1 -52.487790720259341 -21.301341129725422 5.5235662977484967 #
vertex $-1 $254 $328 #
point $-1 -52.487790720259341 -16.604799086210853 5.5235662977484967 #
vertex $-1 $258 $329 #
point $-1 -52.487790720259341 -11.908257042696285 5.5235662977484967 #
straight-curve $-1 -64.174321726126891 34.047036462029943 0 0 0 -1 I I #
point $-1 -64.174321726126891 -34.047036462029943 -12.940928706097775 #
straight-curve $-1 -64.174321726126891 0 -12.940928706097775 0 1 0 I I #
point $-1 -64.174321726126891 34.047036462029943 -12.940928706097775 #
coedge $-1 $284 $280 $289 $321 forward $211 $-1 #
vertex $-1 $281 $330 #
straight-curve $-1 -64.174321726126891 0 12.940928706097775 0 -1 0 I I #
point $-1 -64.174321726126891 -24.432369158735135 12.940928706097777 #
straight-curve $-1 64.174321726126891 0 12.940928706097775 0 1 0 I I #
edge $-1 $317 -64.174321726126891 $293 64.174321726126891 $289 $331 forward 7 unknown #
straight-curve $-1 -64.174321726126891 -34.047036462029943 0 0 0 -1 I I #
point $-1 64.174321726126891 -34.047036462029943 12.940928706097775 #
straight-curve $-1 -64.174321726126891 0 12.940928706097775 0 -1 0 I I #
straight-curve $-1 -64.174321726126891 -24.432369158735135 55.477619740916325 0 0 1 I I #
point $-1 -64.174321726126891 -24.432369158735135 12.940928706097777 #
point $-1 -52.964983951090375 -21.301341129725422 3.4566152532268699 #
point $-1 -52.964983951090375 -16.604799086210853 3.4566152532268699 #
point $-1 -52.964983951090375 -11.908257042696285 3.4566152532268699 #
point $-1 -64.174321726126891 -34.047036462029943 12.940928706097775 #
straight-curve $-1 0 -34.047036462029943 12.940928706097775 1 0 0 I I #
End-of-ACIS-data 