500 0 11 0           
7 Unknown 11 ACIS 5.0 NT 24 Thu Mar 25 19:55:03 1999 
-1 9.9999999999999995e-007 1e-010 
body $-1 $11 $-1 $12 #
body $-1 $13 $-1 $14 #
body $-1 $15 $-1 $16 #
body $-1 $17 $-1 $18 #
body $-1 $19 $-1 $20 #
body $-1 $21 $-1 $22 #
body $-1 $23 $-1 $24 #
body $-1 $25 $-1 $26 #
body $-1 $27 $-1 $28 #
body $-1 $29 $-1 $30 #
body $-1 $31 $-1 $32 #
lump $-1 $-1 $33 $0 #
transform $-1 1 0 0 0 1 0 0 0 1 70.976287118137151 32.695619698089466 6.6819122076557553 1 rotate no_reflect no_shear #
lump $-1 $-1 $34 $1 #
transform $-1 1 0 0 0 1 0 0 0 1 70.976287118137151 32.695619698089466 6.6819122076557553 1 rotate no_reflect no_shear #
lump $-1 $-1 $35 $2 #
transform $-1 1 0 0 0 1 0 0 0 1 70.976287118137151 32.695619698089466 6.6819122076557553 1 rotate no_reflect no_shear #
lump $-1 $-1 $36 $3 #
transform $-1 1 0 0 0 1 0 0 0 1 70.976287118137151 32.695619698089466 6.6819122076557553 1 rotate no_reflect no_shear #
lump $-1 $-1 $37 $4 #
transform $-1 1 0 0 0 1 0 0 0 1 70.976287118137151 32.695619698089466 6.6819122076557553 1 rotate no_reflect no_shear #
lump $-1 $-1 $38 $5 #
transform $-1 1 0 0 0 1 0 0 0 1 70.976287118137151 32.695619698089466 6.6819122076557553 1 rotate no_reflect no_shear #
lump $-1 $-1 $39 $6 #
transform $-1 1 0 0 0 1 0 0 0 1 70.976287118137151 32.695619698089466 6.6819122076557553 1 rotate no_reflect no_shear #
lump $-1 $-1 $40 $7 #
transform $-1 1 0 0 0 1 0 0 0 1 70.976287118137151 32.695619698089466 6.6819122076557553 1 rotate no_reflect no_shear #
lump $-1 $-1 $41 $8 #
transform $-1 1 0 0 0 1 0 0 0 1 70.976287118137151 32.695619698089466 6.6819122076557553 1 rotate no_reflect no_shear #
lump $-1 $-1 $42 $9 #
transform $-1 1 0 0 0 1 0 0 0 1 70.976287118137151 32.695619698089466 6.6819122076557553 1 rotate no_reflect no_shear #
lump $-1 $-1 $43 $10 #
transform $-1 1 0 0 0 1 0 0 0 1 70.976287118137151 32.695619698089466 6.6819122076557553 1 rotate no_reflect no_shear #
shell $-1 $-1 $-1 $44 $-1 $11 #
shell $-1 $-1 $-1 $45 $-1 $13 #
shell $-1 $-1 $-1 $46 $-1 $15 #
shell $-1 $-1 $-1 $47 $-1 $17 #
shell $-1 $-1 $-1 $48 $-1 $19 #
shell $-1 $-1 $-1 $49 $-1 $21 #
shell $-1 $-1 $-1 $50 $-1 $23 #
shell $-1 $-1 $-1 $51 $-1 $25 #
shell $-1 $-1 $-1 $52 $-1 $27 #
shell $-1 $-1 $-1 $53 $-1 $29 #
shell $-1 $-1 $-1 $54 $-1 $31 #
face $-1 $55 $56 $33 $-1 $57 forward single #
face $-1 $58 $59 $34 $-1 $60 forward single #
face $-1 $61 $62 $35 $-1 $63 forward single #
face $-1 $64 $65 $36 $-1 $66 reversed single #
face $-1 $67 $68 $37 $-1 $69 forward single #
face $-1 $70 $71 $38 $-1 $72 reversed single #
face $-1 $73 $74 $39 $-1 $75 forward single #
face $-1 $76 $77 $40 $-1 $78 forward single #
face $-1 $79 $80 $41 $-1 $81 reversed single #
face $-1 $82 $83 $42 $-1 $84 forward single #
face $-1 $85 $86 $43 $-1 $87 forward single #
face $-1 $88 $89 $33 $-1 $90 reversed single #
loop $-1 $-1 $91 $44 #
plane-surface $-1 0 0 6.6819122076557553 0 0 1 1 0 0 forward_v I I I I #
face $-1 $92 $93 $34 $-1 $94 reversed single #
loop $-1 $-1 $95 $45 #
plane-surface $-1 -66.922346286798074 0 -3.6819122076557553 0 0 1 1 0 0 forward_v I I I I #
face $-1 $96 $97 $35 $-1 $98 reversed single #
loop $-1 $-1 $99 $46 #
plane-surface $-1 66.922346286798074 0 -3.6819122076557553 0 0 1 1 0 0 forward_v I I I I #
face $-1 $100 $101 $36 $-1 $102 reversed single #
loop $-1 $-1 $103 $47 #
plane-surface $-1 17.159369422194011 63.230626827107876 154.0896738467741 -1 0 0 0 0.5877852598018023 0.80901698891910034 forward_v I I I I #
face $-1 $104 $105 $37 $-1 $106 forward single #
loop $-1 $107 $108 $48 #
cone-surface $-1 -1.3358412491823373 27.547617433279694 2.2215680141175036 0 -0.5877852598018023 -0.80901698891910034 2 0 0 1 I I 0 1 2 forward I I I I #
face $-1 $109 $110 $38 $-1 $111 reversed single #
loop $-1 $-1 $112 $49 #
plane-surface $-1 -15.807949442673191 -123.94097670177251 109.92238953373803 1 0 0 0 0.64278761758704617 -0.76604443648966558 forward_v I I I I #
face $-1 $113 $114 $39 $-1 $115 forward single #
loop $-1 $116 $117 $50 #
cone-surface $-1 -11.291392459052283 -28.386003331316221 2.7019877983191249 0 0.64278761758704617 -0.76604443648966558 1 0 0 1 I I 0 1 1 forward I I I I #
face $-1 $118 $119 $40 $-1 $120 forward single #
loop $-1 $121 $122 $51 #
cone-surface $-1 -4.5165569836209158 -28.386003331316221 2.7019877983191249 0 0.64278761758704617 -0.76604443648966558 1 0 0 1 I I 0 1 1 forward I I I I #
face $-1 $123 $124 $41 $-1 $125 reversed single #
loop $-1 $-1 $126 $52 #
plane-surface $-1 15.807949442673177 -123.94097670177251 109.92238953373803 -1 0 0 0 -0.64278761758704617 0.76604443648966558 forward_v I I I I #
face $-1 $127 $128 $42 $-1 $129 forward single #
loop $-1 $130 $131 $53 #
cone-surface $-1 4.5165569836208874 -28.386003331316221 2.7019877983191249 0 0.64278761758704617 -0.76604443648966558 1 0 0 1 I I 0 1 1 forward I I I I #
face $-1 $132 $133 $43 $-1 $134 forward single #
loop $-1 $135 $136 $54 #
cone-surface $-1 11.291392459052261 -28.386003331316221 2.7019877983191249 0 0.64278761758704617 -0.76604443648966558 1 0 0 1 I I 0 1 1 forward I I I I #
face $-1 $137 $138 $33 $-1 $139 reversed single #
loop $-1 $-1 $140 $55 #
plane-surface $-1 0 0 -6.6819122076557553 0 0 1 1 0 0 forward_v I I I I #
coedge $-1 $141 $142 $143 $144 forward $56 $-1 #
face $-1 $145 $146 $34 $-1 $147 reversed single #
loop $-1 $-1 $148 $58 #
plane-surface $-1 -62.868405455459005 0 -5.1819122076557553 -1 0 0 0 0 1 forward_v I I I I #
coedge $-1 $149 $150 $151 $152 forward $59 $-1 #
face $-1 $153 $154 $35 $-1 $155 reversed single #
loop $-1 $-1 $156 $61 #
plane-surface $-1 62.868405455458998 0 -5.1819122076557553 1 0 0 0 0 -1 forward_v I I I I #
coedge $-1 $157 $158 $159 $160 reversed $62 $-1 #
face $-1 $161 $162 $36 $-1 $163 reversed single #
loop $-1 $-1 $164 $64 #
plane-surface $-1 -1.3358412491823231 -20.207003899895234 39.247629668828409 0 0.5877852598018023 0.80901698891910034 1 0 0 forward_v I I I I #
coedge $-1 $165 $166 $167 $168 reversed $65 $-1 #
face $-1 $-1 $169 $37 $-1 $170 forward single #
loop $-1 $171 $172 $67 #
cone-surface $-1 -1.3358412491823373 25.851709774753672 -0.11264858030373315 0 -0.5877852598018023 -0.80901698891910034 1 0 0 1 I I -0.70710678118654757 0.70710678118654746 1 forward I I I I #
loop $-1 $-1 $173 $48 #
coedge $-1 $108 $108 $174 $175 reversed $68 $-1 #
face $-1 $176 $177 $38 $-1 $178 reversed single #
loop $-1 $-1 $179 $70 #
plane-surface $-1 -7.9039747213365956 -32.695619698089445 1.1804097946538548 0 -0.64278761758704617 0.76604443648966558 1 0 0 forward_v I I I I #
coedge $-1 $180 $181 $182 $183 reversed $71 $-1 #
face $-1 $-1 $184 $39 $-1 $185 forward single #
loop $-1 $186 $187 $73 #
cone-surface $-1 -11.291392459052283 -27.033210719767666 1.0897923772385996 0 0.64278761758704617 -0.76604443648966558 0.5 0 0 1 I I -0.70710678118654746 0.70710678118654746 0.5 forward I I I I #
loop $-1 $-1 $188 $50 #
coedge $-1 $117 $117 $189 $190 reversed $74 $-1 #
face $-1 $-1 $191 $40 $-1 $192 forward single #
loop $-1 $193 $194 $76 #
cone-surface $-1 -4.5165569836209158 -27.033210719767666 1.0897923772385996 0 0.64278761758704617 -0.76604443648966558 0.5 0 0 1 I I -0.70710678118654746 0.70710678118654746 0.5 forward I I I I #
loop $-1 $-1 $195 $51 #
coedge $-1 $122 $122 $196 $197 reversed $77 $-1 #
face $-1 $198 $199 $41 $-1 $200 forward single #
loop $-1 $-1 $201 $79 #
plane-surface $-1 -7.9039747213365956 -32.695619698089445 1.1804097946538548 0 -0.64278761758704617 0.76604443648966558 1 0 0 forward_v I I I I #
coedge $-1 $202 $203 $204 $205 reversed $80 $-1 #
face $-1 $-1 $206 $42 $-1 $207 forward single #
loop $-1 $208 $209 $82 #
cone-surface $-1 4.5165569836208874 -27.033210719767666 1.0897923772385996 0 0.64278761758704617 -0.76604443648966558 0.5 0 0 1 I I -0.70710678118654746 0.70710678118654746 0.5 forward I I I I #
loop $-1 $-1 $210 $53 #
coedge $-1 $131 $131 $211 $212 reversed $83 $-1 #
face $-1 $-1 $213 $43 $-1 $214 forward single #
loop $-1 $215 $216 $85 #
cone-surface $-1 11.291392459052261 -27.033210719767666 1.0897923772385996 0 0.64278761758704617 -0.76604443648966558 0.5 0 0 1 I I -0.70710678118654746 0.70710678118654746 0.5 forward I I I I #
loop $-1 $-1 $217 $54 #
coedge $-1 $136 $136 $218 $219 reversed $86 $-1 #
face $-1 $220 $221 $33 $-1 $222 reversed single #
loop $-1 $-1 $223 $88 #
plane-surface $-1 0 -32.695619698089466 0 0 1 0 0 0 1 forward_v I I I I #
coedge $-1 $224 $225 $226 $227 forward $89 $-1 #
coedge $-1 $228 $91 $229 $230 forward $56 $-1 #
coedge $-1 $91 $228 $231 $232 forward $56 $-1 #
coedge $-1 $233 $234 $91 $144 reversed $235 $-1 #
edge $-1 $236 -32.695619698089466 $237 32.695619698089466 $143 $238 forward 7 unknown #
face $-1 $239 $240 $34 $-1 $241 reversed single #
loop $-1 $-1 $242 $92 #
plane-surface $-1 0 0 -6.6819122076557553 0 0 1 1 0 0 forward_v I I I I #
coedge $-1 $243 $151 $244 $245 reversed $93 $-1 #
coedge $-1 $246 $95 $247 $248 reversed $59 $-1 #
coedge $-1 $95 $246 $249 $250 reversed $59 $-1 #
coedge $-1 $148 $251 $95 $152 reversed $93 $-1 #
edge $-1 $252 -32.695619698089466 $253 32.695619698089466 $151 $254 forward 7 unknown #
face $-1 $255 $256 $35 $-1 $257 reversed single #
loop $-1 $-1 $258 $96 #
plane-surface $-1 0 -32.695619698089466 0 0 1 0 0 0 1 forward_v I I I I #
coedge $-1 $259 $260 $261 $262 reversed $97 $-1 #
coedge $-1 $263 $99 $264 $265 reversed $62 $-1 #
coedge $-1 $99 $263 $258 $266 reversed $62 $-1 #
coedge $-1 $267 $268 $99 $160 forward $269 $-1 #
edge $-1 $270 -32.695619698089466 $271 32.695619698089466 $159 $272 forward 7 unknown #
face $-1 $273 $274 $36 $-1 $275 reversed single #
loop $-1 $-1 $276 $100 #
plane-surface $-1 -19.831051920558657 63.230626827107876 154.0896738467741 1 0 0 0 -0.5877852598018023 -0.80901698891910034 forward_v I I I I #
coedge $-1 $277 $278 $279 $280 reversed $101 $-1 #
coedge $-1 $166 $103 $281 $282 reversed $65 $-1 #
coedge $-1 $103 $165 $277 $283 reversed $65 $-1 #
coedge $-1 $279 $284 $103 $168 forward $274 $-1 #
edge $-1 $285 70.362924715731296 $286 76.233213891803501 $167 $287 forward 7 unknown #
loop $-1 $-1 $174 $104 #
plane-surface $-1 -1.3358412491823231 -20.207003899895234 39.247629668828409 0 0.5877852598018023 0.80901698891910034 1 0 0 forward_v I I I I #
loop $-1 $-1 $288 $67 #
coedge $-1 $172 $172 $173 $289 reversed $105 $-1 #
coedge $-1 $173 $173 $172 $289 forward $107 $-1 #
coedge $-1 $174 $174 $108 $175 forward $169 $-1 #
edge $-1 $290 1.4327742882689055e-015 $290 6.2831853071796022 $174 $291 forward 7 unknown #
face $-1 $292 $293 $38 $-1 $294 forward single #
loop $-1 $-1 $295 $109 #
plane-surface $-1 0 -123.94097670177251 109.92238953373803 -1 0 0 0 -0.64278761758704617 0.76604443648966558 forward_v I I I I #
coedge $-1 $296 $297 $298 $299 reversed $110 $-1 #
coedge $-1 $181 $112 $300 $301 reversed $71 $-1 #
coedge $-1 $112 $180 $296 $302 reversed $71 $-1 #
coedge $-1 $298 $303 $112 $183 forward $304 $-1 #
edge $-1 $305 48.279282559213257 $306 53.78078497221518 $182 $307 forward 7 unknown #
loop $-1 $-1 $189 $113 #
plane-surface $-1 -7.9039747213365956 -32.695619698089445 1.1804097946538548 0 -0.64278761758704617 0.76604443648966558 1 0 0 forward_v I I I I #
loop $-1 $-1 $308 $73 #
coedge $-1 $187 $187 $188 $309 reversed $114 $-1 #
coedge $-1 $188 $188 $187 $309 forward $116 $-1 #
coedge $-1 $189 $189 $117 $190 forward $184 $-1 #
edge $-1 $310 7.980834232229934e-016 $310 6.2831853071796013 $189 $311 forward 7 unknown #
loop $-1 $-1 $196 $118 #
plane-surface $-1 -7.9039747213365956 -32.695619698089445 1.1804097946538548 0 -0.64278761758704617 0.76604443648966558 1 0 0 forward_v I I I I #
loop $-1 $-1 $312 $76 #
coedge $-1 $194 $194 $195 $313 reversed $119 $-1 #
coedge $-1 $195 $195 $194 $313 forward $121 $-1 #
coedge $-1 $196 $196 $122 $197 forward $191 $-1 #
edge $-1 $314 7.980834232229934e-016 $314 6.2831853071796013 $196 $315 forward 7 unknown #
face $-1 $316 $317 $41 $-1 $318 forward single #
loop $-1 $-1 $319 $123 #
plane-surface $-1 0 0 6.6819122076557553 0 0 1 1 0 0 forward_v I I I I #
coedge $-1 $320 $321 $322 $323 reversed $124 $-1 #
coedge $-1 $203 $126 $324 $325 reversed $80 $-1 #
coedge $-1 $126 $202 $319 $326 reversed $80 $-1 #
coedge $-1 $327 $328 $126 $205 forward $329 $-1 #
edge $-1 $330 -53.78078497221518 $331 -48.279282559213257 $204 $332 forward 7 unknown #
loop $-1 $-1 $211 $127 #
plane-surface $-1 -7.9039747213365956 -32.695619698089445 1.1804097946538548 0 -0.64278761758704617 0.76604443648966558 1 0 0 forward_v I I I I #
loop $-1 $-1 $333 $82 #
coedge $-1 $209 $209 $210 $334 reversed $128 $-1 #
coedge $-1 $210 $210 $209 $334 forward $130 $-1 #
coedge $-1 $211 $211 $131 $212 forward $206 $-1 #
edge $-1 $335 7.980834232229934e-016 $335 6.2831853071796013 $211 $336 forward 7 unknown #
loop $-1 $-1 $218 $132 #
plane-surface $-1 -7.9039747213365956 -32.695619698089445 1.1804097946538548 0 -0.64278761758704617 0.76604443648966558 1 0 0 forward_v I I I I #
loop $-1 $-1 $337 $85 #
coedge $-1 $216 $216 $217 $338 reversed $133 $-1 #
coedge $-1 $217 $217 $216 $338 forward $135 $-1 #
coedge $-1 $218 $218 $136 $219 forward $213 $-1 #
edge $-1 $339 7.980834232229934e-016 $339 6.2831853071796013 $218 $340 forward 7 unknown #
face $-1 $341 $342 $33 $-1 $343 reversed single #
loop $-1 $-1 $344 $137 #
plane-surface $-1 -70.976287118137151 0 0 1 0 0 0 0 -1 forward_v I I I I #
coedge $-1 $345 $231 $346 $347 forward $138 $-1 #
coedge $-1 $348 $140 $345 $349 forward $89 $-1 #
coedge $-1 $140 $348 $350 $351 forward $89 $-1 #
coedge $-1 $234 $233 $140 $227 reversed $235 $-1 #
edge $-1 $352 -32.695619698089466 $353 32.695619698089466 $226 $354 forward 7 unknown #
coedge $-1 $142 $141 $355 $356 forward $56 $-1 #
coedge $-1 $357 $358 $141 $230 reversed $342 $-1 #
edge $-1 $237 -70.976287118137151 $359 70.976287118137151 $229 $360 forward 7 unknown #
coedge $-1 $223 $361 $142 $232 reversed $138 $-1 #
edge $-1 $362 -70.976287118137151 $236 70.976287118137151 $231 $363 forward 7 unknown #
coedge $-1 $226 $143 $361 $364 forward $235 $-1 #
coedge $-1 $143 $226 $357 $365 reversed $235 $-1 #
loop $-1 $-1 $233 $341 #
vertex $-1 $144 $366 #
vertex $-1 $144 $367 #
straight-curve $-1 70.976287118137151 0 6.6819122076557553 0 1 0 I I #
face $-1 $368 $369 $34 $-1 $370 reversed single #
loop $-1 $-1 $244 $145 #
plane-surface $-1 0 -32.695619698089466 0 0 1 0 0 0 1 forward_v I I I I #
coedge $-1 $371 $372 $243 $373 forward $146 $-1 #
coedge $-1 $251 $148 $242 $373 reversed $93 $-1 #
coedge $-1 $249 $374 $148 $245 forward $240 $-1 #
edge $-1 $375 -4.0909561038278781 $252 -1.0909561038278777 $244 $376 forward 7 unknown #
coedge $-1 $150 $149 $377 $378 reversed $59 $-1 #
coedge $-1 $379 $380 $149 $248 forward $381 $-1 #
edge $-1 $382 -37.515113974738114 $253 -29.407232312059968 $247 $383 forward 7 unknown #
coedge $-1 $384 $244 $150 $250 forward $240 $-1 #
edge $-1 $252 29.407232312059968 $385 37.515113974738114 $249 $386 forward 7 unknown #
coedge $-1 $151 $243 $379 $387 reversed $93 $-1 #
vertex $-1 $250 $388 #
vertex $-1 $248 $389 #
straight-curve $-1 -62.868405455459005 0 -3.6819122076557553 0 1 0 I I #
face $-1 $390 $391 $35 $-1 $392 reversed single #
loop $-1 $-1 $393 $153 #
plane-surface $-1 0 0 -6.6819122076557553 0 0 1 1 0 0 forward_v I I I I #
coedge $-1 $394 $395 $158 $266 forward $154 $-1 #
coedge $-1 $396 $156 $393 $397 reversed $97 $-1 #
coedge $-1 $156 $396 $263 $398 reversed $97 $-1 #
coedge $-1 $264 $399 $156 $262 forward $391 $-1 #
edge $-1 $400 -4.0909561038278781 $401 -1.0909561038278777 $261 $402 forward 7 unknown #
coedge $-1 $158 $157 $260 $398 forward $62 $-1 #
coedge $-1 $403 $261 $157 $265 forward $391 $-1 #
edge $-1 $401 29.407232312059961 $270 37.515113974738114 $264 $404 forward 7 unknown #
edge $-1 $271 -37.515113974738114 $405 -29.407232312059961 $258 $406 forward 7 unknown #
coedge $-1 $407 $159 $395 $408 forward $269 $-1 #
coedge $-1 $159 $407 $403 $409 reversed $269 $-1 #
loop $-1 $-1 $159 $390 #
vertex $-1 $409 $410 #
vertex $-1 $408 $411 #
straight-curve $-1 70.976287118137151 0 -3.6819122076557553 0 -1 0 I I #
face $-1 $-1 $412 $36 $-1 $413 forward single #
loop $-1 $-1 $167 $161 #
plane-surface $-1 0 32.695619698089466 0 0 -1 0 0 0 -1 forward_v I I I I #
coedge $-1 $414 $415 $416 $417 reversed $162 $-1 #
coedge $-1 $418 $164 $166 $283 forward $101 $-1 #
coedge $-1 $164 $418 $414 $419 forward $101 $-1 #
coedge $-1 $416 $167 $164 $280 forward $274 $-1 #
edge $-1 $286 -17.827290046785173 $420 19.163131295967496 $279 $421 forward 7 unknown #
coedge $-1 $422 $423 $165 $282 forward $412 $-1 #
edge $-1 $424 -6.9994534476355632 $285 1.0803062845355278 $281 $425 forward 7 unknown #
edge $-1 $286 -65.391239396178889 $424 -55.404107057998729 $166 $426 forward 7 unknown #
coedge $-1 $167 $416 $422 $427 reversed $274 $-1 #
vertex $-1 $427 $428 #
vertex $-1 $168 $429 #
straight-curve $-1 17.159369422194011 32.695619698089466 77.044836923387052 0 0 -1 I I #
coedge $-1 $288 $288 $-1 $430 reversed $171 $-1 #
edge $-1 $431 0 $431 6.2831853071796004 $172 $432 forward 7 unknown #
vertex $-1 $175 $433 #
ellipse-curve $-1 -1.3358412491823373 28.655739832003924 3.7467676196196544 0 0.5877852598018023 0.80901698891910034 2 0 0 1 I I #
face $-1 $-1 $304 $38 $-1 $434 reversed single #
loop $-1 $-1 $435 $176 #
plane-surface $-1 0 0 6.6819122076557553 0 0 1 1 0 0 forward_v I I I I #
coedge $-1 $436 $437 $438 $439 reversed $177 $-1 #
coedge $-1 $440 $179 $181 $302 forward $110 $-1 #
coedge $-1 $179 $440 $436 $441 forward $110 $-1 #
coedge $-1 $438 $182 $179 $299 forward $304 $-1 #
edge $-1 $306 -11.855962082004893 $442 3.9519873606682978 $298 $443 forward 7 unknown #
coedge $-1 $444 $445 $180 $301 forward $293 $-1 #
edge $-1 $446 -35.831303780833274 $305 -29.274868652796791 $300 $447 forward 7 unknown #
edge $-1 $306 -2.7890148618938379e-014 $446 8.5588182822406154 $181 $448 forward 7 unknown #
coedge $-1 $182 $438 $444 $449 reversed $304 $-1 #
loop $-1 $-1 $438 $292 #
vertex $-1 $449 $450 #
vertex $-1 $183 $451 #
straight-curve $-1 -15.807949442673191 -32.695619698089466 54.961194766869014 0 0 -1 I I #
coedge $-1 $308 $308 $-1 $452 reversed $186 $-1 #
edge $-1 $453 0 $453 6.2831853071796004 $187 $454 forward 7 unknown #
vertex $-1 $190 $455 #
ellipse-curve $-1 -11.291392459052283 -29.417402134071232 3.9311610011547913 0 -0.64278761758704617 0.76604443648966558 1 0 0 1 I I #
coedge $-1 $312 $312 $-1 $456 reversed $193 $-1 #
edge $-1 $457 0 $457 6.2831853071796004 $194 $458 forward 7 unknown #
vertex $-1 $197 $459 #
ellipse-curve $-1 -4.5165569836209158 -29.417402134071232 3.9311610011547913 0 -0.64278761758704617 0.76604443648966558 1 0 0 1 I I #
face $-1 $-1 $329 $41 $-1 $460 reversed single #
loop $-1 $-1 $461 $198 #
plane-surface $-1 0 -123.94097670177251 109.92238953373803 -1 0 0 0 -0.64278761758704617 0.76604443648966558 forward_v I I I I #
coedge $-1 $462 $463 $203 $326 forward $199 $-1 #
coedge $-1 $324 $201 $462 $464 reversed $124 $-1 #
coedge $-1 $201 $324 $328 $465 reversed $124 $-1 #
coedge $-1 $461 $466 $201 $323 forward $317 $-1 #
edge $-1 $467 -8.5588182822406154 $468 2.7890148618938379e-014 $322 $469 forward 7 unknown #
coedge $-1 $321 $320 $202 $325 forward $124 $-1 #
edge $-1 $470 -8.5588182822406154 $330 2.7890148618938379e-014 $202 $471 forward 7 unknown #
edge $-1 $331 29.274868652796791 $470 35.831303780833274 $319 $472 forward 7 unknown #
coedge $-1 $473 $204 $463 $474 reversed $329 $-1 #
coedge $-1 $204 $473 $321 $465 forward $329 $-1 #
loop $-1 $-1 $204 $316 #
vertex $-1 $205 $475 #
vertex $-1 $326 $476 #
straight-curve $-1 15.807949442673177 -32.695619698089466 54.961194766869014 0 0 1 I I #
coedge $-1 $333 $333 $-1 $477 reversed $208 $-1 #
edge $-1 $478 0 $478 6.2831853071796004 $209 $479 forward 7 unknown #
vertex $-1 $212 $480 #
ellipse-curve $-1 4.5165569836208874 -29.417402134071232 3.9311610011547913 0 -0.64278761758704617 0.76604443648966558 1 0 0 1 I I #
coedge $-1 $337 $337 $-1 $481 reversed $215 $-1 #
edge $-1 $482 0 $482 6.2831853071796004 $216 $483 forward 7 unknown #
vertex $-1 $219 $484 #
ellipse-curve $-1 11.291392459052261 -29.417402134071232 3.9311610011547913 0 -0.64278761758704617 0.76604443648966558 1 0 0 1 I I #
face $-1 $-1 $235 $33 $-1 $485 reversed single #
loop $-1 $-1 $357 $220 #
plane-surface $-1 0 32.695619698089466 0 0 -1 0 0 0 -1 forward_v I I I I #
coedge $-1 $486 $355 $358 $487 forward $221 $-1 #
coedge $-1 $361 $223 $224 $349 reversed $138 $-1 #
coedge $-1 $355 $486 $223 $347 reversed $221 $-1 #
edge $-1 $362 -6.6819122076557553 $488 6.6819122076557553 $346 $489 forward 7 unknown #
coedge $-1 $225 $224 $486 $490 forward $89 $-1 #
edge $-1 $353 -70.976287118137151 $488 70.976287118137151 $345 $491 forward 7 unknown #
coedge $-1 $358 $357 $225 $351 reversed $342 $-1 #
edge $-1 $492 -70.976287118137151 $352 70.976287118137151 $350 $493 forward 7 unknown #
vertex $-1 $227 $494 #
vertex $-1 $364 $495 #
straight-curve $-1 70.976287118137151 0 -6.6819122076557553 0 -1 0 I I #
coedge $-1 $344 $346 $228 $356 reversed $221 $-1 #
edge $-1 $359 -32.695619698089466 $362 32.695619698089466 $355 $496 forward 7 unknown #
coedge $-1 $350 $229 $234 $365 forward $342 $-1 #
coedge $-1 $229 $350 $344 $487 reversed $342 $-1 #
vertex $-1 $230 $497 #
straight-curve $-1 0 32.695619698089466 6.6819122076557553 -1 0 0 I I #
coedge $-1 $231 $345 $233 $364 reversed $138 $-1 #
vertex $-1 $356 $498 #
straight-curve $-1 0 -32.695619698089466 6.6819122076557553 1 0 0 I I #
edge $-1 $236 -6.6819122076557553 $353 6.6819122076557553 $233 $499 forward 7 unknown #
edge $-1 $237 -6.6819122076557553 $352 6.6819122076557553 $234 $500 forward 7 unknown #
point $-1 70.976287118137151 -32.695619698089466 6.6819122076557553 #
point $-1 70.976287118137151 32.695619698089466 6.6819122076557553 #
face $-1 $-1 $381 $34 $-1 $501 reversed single #
loop $-1 $-1 $377 $239 #
plane-surface $-1 -70.976287118137151 0 0 1 0 0 0 0 -1 forward_v I I I I #
coedge $-1 $502 $242 $374 $503 forward $146 $-1 #
coedge $-1 $242 $502 $504 $505 forward $146 $-1 #
edge $-1 $506 -32.695619698089466 $375 32.695619698089466 $242 $507 forward 7 unknown #
coedge $-1 $244 $384 $371 $503 reversed $240 $-1 #
vertex $-1 $503 $508 #
straight-curve $-1 -62.868405455459005 -32.695619698089466 -2.5909561038278777 0 0 1 I I #
coedge $-1 $509 $510 $246 $378 forward $369 $-1 #
edge $-1 $385 -32.695619698089466 $382 32.695619698089466 $377 $511 forward 7 unknown #
coedge $-1 $504 $247 $251 $387 forward $381 $-1 #
coedge $-1 $247 $504 $509 $512 reversed $381 $-1 #
loop $-1 $-1 $379 $368 #
vertex $-1 $512 $513 #
straight-curve $-1 -33.461173143399037 32.695619698089466 -3.6819122076557553 1 0 0 I I #
coedge $-1 $374 $249 $510 $514 forward $240 $-1 #
vertex $-1 $514 $515 #
straight-curve $-1 -33.461173143399037 -32.695619698089466 -3.6819122076557553 -1 0 0 I I #
edge $-1 $253 1.0909561038278777 $506 4.0909561038278781 $379 $516 forward 7 unknown #
point $-1 -62.868405455459005 -32.695619698089466 -3.6819122076557553 #
point $-1 -62.868405455459005 32.695619698089466 -3.6819122076557553 #
face $-1 $-1 $269 $35 $-1 $517 reversed single #
loop $-1 $-1 $264 $255 #
plane-surface $-1 0 32.695619698089466 0 0 -1 0 0 0 -1 forward_v I I I I #
coedge $-1 $518 $519 $259 $397 forward $256 $-1 #
coedge $-1 $520 $258 $396 $521 forward $154 $-1 #
coedge $-1 $258 $520 $267 $408 reversed $154 $-1 #
coedge $-1 $260 $259 $394 $521 reversed $97 $-1 #
edge $-1 $522 -32.695619698089466 $400 32.695619698089466 $393 $523 forward 7 unknown #
edge $-1 $401 -32.695619698089466 $405 32.695619698089466 $260 $524 forward 7 unknown #
coedge $-1 $261 $403 $518 $525 reversed $391 $-1 #
vertex $-1 $525 $526 #
vertex $-1 $265 $527 #
straight-curve $-1 62.868405455458998 32.695619698089466 -2.5909561038278777 0 0 1 I I #
coedge $-1 $399 $264 $268 $409 forward $391 $-1 #
straight-curve $-1 33.461173143399037 32.695619698089466 -3.6819122076557553 1 0 0 I I #
vertex $-1 $266 $528 #
straight-curve $-1 33.461173143399037 -32.695619698089466 -3.6819122076557553 -1 0 0 I I #
coedge $-1 $268 $267 $529 $530 reversed $269 $-1 #
edge $-1 $271 3.6819122076557553 $531 6.6819122076557553 $267 $532 forward 7 unknown #
edge $-1 $270 3.6819122076557553 $533 6.6819122076557553 $268 $534 forward 7 unknown #
point $-1 70.976287118137151 32.695619698089466 -3.6819122076557553 #
point $-1 70.976287118137151 -32.695619698089466 -3.6819122076557553 #
loop $-1 $-1 $281 $273 #
plane-surface $-1 0 0 6.6819122076557553 0 0 1 1 0 0 forward_v I I I I #
coedge $-1 $415 $276 $278 $419 reversed $162 $-1 #
coedge $-1 $276 $414 $535 $536 reversed $162 $-1 #
coedge $-1 $284 $279 $276 $417 forward $274 $-1 #
edge $-1 $420 -76.233213891803501 $537 -70.362924715731296 $416 $538 forward 7 unknown #
coedge $-1 $278 $277 $423 $539 reversed $101 $-1 #
edge $-1 $540 55.404107057998729 $420 65.391239396178889 $414 $541 forward 7 unknown #
vertex $-1 $280 $542 #
straight-curve $-1 -0.66792062459116153 32.695619698089466 0.81162303158354376 -1 0 0 I I #
coedge $-1 $535 $281 $284 $427 forward $412 $-1 #
coedge $-1 $281 $535 $418 $539 forward $412 $-1 #
vertex $-1 $282 $543 #
straight-curve $-1 17.159369422194011 31.615313413553938 6.6819122076557562 0 1 0 I I #
straight-curve $-1 17.159369422194011 -20.207003899895234 39.247629668828409 0 -0.80901698891910034 0.5877852598018023 I I #
edge $-1 $285 -17.159369422194011 $537 19.831051920558657 $284 $544 forward 7 unknown #
point $-1 17.159369422194011 32.695619698089466 6.6819122076557553 #
point $-1 17.159369422194011 32.695619698089473 0.81162303158354376 #
edge $-1 $545 1 $545 0 $288 $-1 forward 7 unknown #
vertex $-1 $289 $546 #
ellipse-curve $-1 -1.3358412491823373 26.439495034555474 0.69636840861536697 0 0.5877852598018023 0.80901698891910034 2 0 0 1 I I #
point $-1 0.66415875081766274 28.655739832003917 3.7467676196196398 #
plane-surface $-1 0 -32.695619698089466 0 0 1 0 0 0 1 forward_v I I I I #
coedge $-1 $445 $444 $437 $547 forward $293 $-1 #
coedge $-1 $437 $295 $297 $441 reversed $177 $-1 #
coedge $-1 $295 $436 $435 $547 reversed $177 $-1 #
coedge $-1 $303 $298 $295 $439 forward $304 $-1 #
edge $-1 $442 -53.78078497221518 $548 -48.279282559213257 $438 $549 forward 7 unknown #
coedge $-1 $297 $296 $445 $550 reversed $110 $-1 #
edge $-1 $551 -8.5588182822406154 $442 2.7890148618938379e-014 $436 $552 forward 7 unknown #
vertex $-1 $299 $553 #
straight-curve $-1 -3.9519873606682978 -32.695619698089466 1.1804097946538392 1 0 0 I I #
coedge $-1 $435 $300 $303 $449 forward $293 $-1 #
coedge $-1 $300 $435 $440 $550 forward $293 $-1 #
vertex $-1 $301 $554 #
straight-curve $-1 -15.807949442673191 -61.970488350886257 6.6819122076557562 0 -1 0 I I #
straight-curve $-1 -15.807949442673191 -32.695619698089445 1.1804097946538548 0 0.76604443648966558 0.64278761758704617 I I #
edge $-1 $305 -15.807949442673191 $548 0 $303 $555 forward 7 unknown #
point $-1 -15.807949442673191 -32.695619698089466 6.6819122076557553 #
point $-1 -15.807949442673191 -32.695619698089466 1.1804097946538368 #
edge $-1 $556 1 $556 0 $308 $-1 forward 7 unknown #
vertex $-1 $309 $557 #
ellipse-curve $-1 -11.291392459052283 -27.35460452856119 1.4728145954834324 0 -0.64278761758704617 0.76604443648966558 1 0 0 1 I I #
point $-1 -10.291392459052283 -29.417402134071253 3.9311610011548179 #
edge $-1 $558 1 $558 0 $312 $-1 forward 7 unknown #
vertex $-1 $313 $559 #
ellipse-curve $-1 -4.5165569836209158 -27.35460452856119 1.4728145954834324 0 -0.64278761758704617 0.76604443648966558 1 0 0 1 I I #
point $-1 -3.5165569836209158 -29.417402134071253 3.9311610011548179 #
plane-surface $-1 0 -32.695619698089466 0 0 1 0 0 0 1 forward_v I I I I #
coedge $-1 $466 $322 $473 $560 reversed $317 $-1 #
coedge $-1 $561 $319 $320 $464 forward $199 $-1 #
coedge $-1 $319 $561 $327 $474 forward $199 $-1 #
edge $-1 $470 -19.759936803341475 $467 -3.9519873606682978 $462 $562 forward 7 unknown #
edge $-1 $468 3.9519873606682978 $330 19.759936803341475 $328 $563 forward 7 unknown #
coedge $-1 $322 $461 $561 $564 reversed $317 $-1 #
vertex $-1 $464 $565 #
vertex $-1 $465 $566 #
straight-curve $-1 0 -32.695619698089445 1.1804097946538548 0 -0.76604443648966558 -0.64278761758704617 I I #
vertex $-1 $326 $567 #
straight-curve $-1 15.807949442673177 -32.695619698089445 1.1804097946538548 0 -0.76604443648966558 -0.64278761758704617 I I #
straight-curve $-1 15.807949442673177 -61.970488350886257 6.6819122076557562 0 1 0 I I #
coedge $-1 $328 $327 $461 $560 forward $329 $-1 #
edge $-1 $568 0 $331 15.807949442673177 $327 $569 forward 7 unknown #
point $-1 15.807949442673177 -32.695619698089466 1.1804097946538368 #
point $-1 15.807949442673177 -32.695619698089466 6.6819122076557553 #
edge $-1 $570 1 $570 0 $333 $-1 forward 7 unknown #
vertex $-1 $334 $571 #
ellipse-curve $-1 4.5165569836208874 -27.35460452856119 1.4728145954834324 0 -0.64278761758704617 0.76604443648966558 1 0 0 1 I I #
point $-1 5.5165569836208874 -29.417402134071253 3.9311610011548179 #
edge $-1 $572 1 $572 0 $337 $-1 forward 7 unknown #
vertex $-1 $338 $573 #
ellipse-curve $-1 11.291392459052261 -27.35460452856119 1.4728145954834324 0 -0.64278761758704617 0.76604443648966558 1 0 0 1 I I #
point $-1 12.291392459052261 -29.417402134071253 3.9311610011548179 #
plane-surface $-1 70.976287118137151 0 0 -1 0 0 0 0 1 forward_v I I I I #
coedge $-1 $346 $344 $348 $490 reversed $221 $-1 #
edge $-1 $359 -6.6819122076557553 $492 6.6819122076557553 $358 $574 forward 7 unknown #
vertex $-1 $490 $575 #
straight-curve $-1 -70.976287118137151 -32.695619698089466 0 0 0 -1 I I #
edge $-1 $488 -32.695619698089466 $492 32.695619698089466 $486 $576 forward 7 unknown #
straight-curve $-1 0 -32.695619698089466 -6.6819122076557553 -1 0 0 I I #
vertex $-1 $351 $577 #
straight-curve $-1 0 32.695619698089466 -6.6819122076557553 1 0 0 I I #
point $-1 70.976287118137151 32.695619698089466 -6.6819122076557553 #
point $-1 70.976287118137151 -32.695619698089466 -6.6819122076557553 #
straight-curve $-1 -70.976287118137151 0 6.6819122076557553 0 -1 0 I I #
point $-1 -70.976287118137151 32.695619698089466 6.6819122076557553 #
point $-1 -70.976287118137151 -32.695619698089466 6.6819122076557553 #
straight-curve $-1 70.976287118137151 -32.695619698089466 0 0 0 -1 I I #
straight-curve $-1 70.976287118137151 32.695619698089466 0 0 0 -1 I I #
plane-surface $-1 0 32.695619698089466 0 0 -1 0 0 0 -1 forward_v I I I I #
coedge $-1 $372 $371 $578 $579 forward $146 $-1 #
edge $-1 $375 62.868405455459005 $580 70.976287118137151 $374 $581 forward 7 unknown #
coedge $-1 $380 $379 $372 $505 reversed $381 $-1 #
edge $-1 $582 -70.976287118137151 $506 -62.868405455459005 $504 $583 forward 7 unknown #
vertex $-1 $387 $584 #
straight-curve $-1 -62.868405455459005 0 -6.6819122076557553 0 -1 0 I I #
point $-1 -62.868405455459005 -32.695619698089466 -6.6819122076557553 #
coedge $-1 $578 $377 $380 $512 forward $369 $-1 #
coedge $-1 $377 $578 $384 $514 reversed $369 $-1 #
straight-curve $-1 -70.976287118137151 0 -3.6819122076557553 0 1 0 I I #
edge $-1 $382 3.6819122076557553 $582 6.6819122076557553 $380 $585 forward 7 unknown #
point $-1 -70.976287118137151 32.695619698089466 -3.6819122076557553 #
edge $-1 $385 3.6819122076557553 $580 6.6819122076557553 $510 $586 forward 7 unknown #
point $-1 -70.976287118137151 -32.695619698089466 -3.6819122076557553 #
straight-curve $-1 -62.868405455459005 32.695619698089466 -2.5909561038278777 0 0 -1 I I #
plane-surface $-1 70.976287118137151 0 0 -1 0 0 0 0 1 forward_v I I I I #
coedge $-1 $529 $393 $399 $525 forward $256 $-1 #
coedge $-1 $393 $529 $520 $587 forward $256 $-1 #
coedge $-1 $395 $394 $519 $587 reversed $154 $-1 #
edge $-1 $405 1.0909561038278777 $522 4.0909561038278781 $394 $588 forward 7 unknown #
vertex $-1 $397 $589 #
straight-curve $-1 62.868405455458998 0 -6.6819122076557553 0 1 0 I I #
straight-curve $-1 62.868405455458998 0 -3.6819122076557553 0 -1 0 I I #
edge $-1 $400 62.868405455458998 $533 70.976287118137151 $399 $590 forward 7 unknown #
point $-1 62.868405455458998 32.695619698089466 -6.6819122076557553 #
point $-1 62.868405455458998 32.695619698089466 -3.6819122076557553 #
point $-1 62.868405455458998 -32.695619698089466 -3.6819122076557553 #
coedge $-1 $519 $518 $407 $530 forward $256 $-1 #
edge $-1 $533 -32.695619698089466 $531 32.695619698089466 $407 $591 forward 7 unknown #
vertex $-1 $408 $592 #
straight-curve $-1 70.976287118137151 -32.695619698089466 0 0 0 -1 I I #
vertex $-1 $530 $593 #
straight-curve $-1 70.976287118137151 32.695619698089466 0 0 0 -1 I I #
coedge $-1 $423 $422 $415 $536 forward $412 $-1 #
edge $-1 $537 -1.0803062845355278 $540 6.9994534476355632 $535 $594 forward 7 unknown #
vertex $-1 $536 $595 #
straight-curve $-1 -19.831051920558657 32.695619698089466 77.044836923387052 0 0 1 I I #
edge $-1 $540 -19.163131295967496 $424 17.827290046785173 $423 $596 forward 7 unknown #
vertex $-1 $539 $597 #
straight-curve $-1 -19.831051920558657 -20.207003899895234 39.247629668828409 0 0.80901698891910034 -0.5877852598018023 I I #
point $-1 -19.831051920558657 32.695619698089473 0.81162303158354376 #
point $-1 17.159369422194011 24.615859965918375 6.6819122076557562 #
straight-curve $-1 0 32.695619698089466 6.6819122076557553 -1 0 0 I I #
vertex $-1 $430 $598 #
point $-1 0.66415875081766274 26.439495034555474 0.69636840861536697 #
edge $-1 $548 29.274868652796791 $551 35.831303780833274 $435 $599 forward 7 unknown #
vertex $-1 $439 $600 #
straight-curve $-1 0 -32.695619698089466 54.961194766869014 0 0 1 I I #
edge $-1 $551 -3.9519873606682978 $446 11.855962082004893 $445 $601 forward 7 unknown #
vertex $-1 $550 $602 #
straight-curve $-1 0 -32.695619698089445 1.1804097946538548 0 -0.76604443648966558 -0.64278761758704617 I I #
point $-1 0 -32.695619698089466 1.1804097946538368 #
point $-1 -15.807949442673191 -26.139184570052983 6.6819122076557544 #
straight-curve $-1 0 -32.695619698089466 6.6819122076557553 1 0 0 I I #
vertex $-1 $452 $603 #
point $-1 -10.291392459052283 -27.35460452856119 1.4728145954834324 #
vertex $-1 $456 $604 #
point $-1 -3.5165569836209158 -27.35460452856119 1.4728145954834324 #
edge $-1 $568 48.279282559213257 $468 53.78078497221518 $473 $605 forward 7 unknown #
coedge $-1 $463 $462 $466 $564 forward $199 $-1 #
straight-curve $-1 -3.9519873606682978 -26.139184570052983 6.6819122076557562 -1 0 0 I I #
straight-curve $-1 -3.9519873606682978 -32.695619698089466 1.1804097946538392 1 0 0 I I #
edge $-1 $467 -35.831303780833274 $568 -29.274868652796791 $561 $606 forward 7 unknown #
point $-1 0 -26.139184570052983 6.6819122076557544 #
point $-1 0 -32.695619698089466 1.1804097946538368 #
point $-1 15.807949442673177 -26.139184570052983 6.6819122076557544 #
vertex $-1 $474 $607 #
straight-curve $-1 0 -32.695619698089466 6.6819122076557553 1 0 0 I I #
vertex $-1 $477 $608 #
point $-1 5.5165569836208874 -27.35460452856119 1.4728145954834324 #
vertex $-1 $481 $609 #
point $-1 12.291392459052261 -27.35460452856119 1.4728145954834324 #
straight-curve $-1 -70.976287118137151 32.695619698089466 0 0 0 -1 I I #
point $-1 -70.976287118137151 -32.695619698089466 -6.6819122076557553 #
straight-curve $-1 -70.976287118137151 0 -6.6819122076557553 0 1 0 I I #
point $-1 -70.976287118137151 32.695619698089466 -6.6819122076557553 #
coedge $-1 $510 $509 $502 $579 reversed $369 $-1 #
edge $-1 $580 -32.695619698089466 $582 32.695619698089466 $578 $610 forward 7 unknown #
vertex $-1 $579 $611 #
straight-curve $-1 0 -32.695619698089466 -6.6819122076557553 -1 0 0 I I #
vertex $-1 $505 $612 #
straight-curve $-1 0 32.695619698089466 -6.6819122076557553 1 0 0 I I #
point $-1 -62.868405455459005 32.695619698089466 -6.6819122076557553 #
straight-curve $-1 -70.976287118137151 32.695619698089466 0 0 0 -1 I I #
straight-curve $-1 -70.976287118137151 -32.695619698089466 0 0 0 -1 I I #
edge $-1 $531 -70.976287118137151 $522 -62.868405455458998 $520 $613 forward 7 unknown #
straight-curve $-1 62.868405455458998 -32.695619698089466 -2.5909561038278777 0 0 -1 I I #
point $-1 62.868405455458998 -32.695619698089466 -6.6819122076557553 #
straight-curve $-1 0 32.695619698089466 -6.6819122076557553 1 0 0 I I #
straight-curve $-1 70.976287118137151 0 -6.6819122076557553 0 -1 0 I I #
point $-1 70.976287118137151 -32.695619698089466 -6.6819122076557553 #
point $-1 70.976287118137151 32.695619698089466 -6.6819122076557553 #
straight-curve $-1 -19.831051920558657 31.615313413553938 6.6819122076557562 0 -1 0 I I #
point $-1 -19.831051920558657 32.695619698089466 6.6819122076557553 #
straight-curve $-1 -0.66792062459116153 24.615859965918375 6.6819122076557562 1 0 0 I I #
point $-1 -19.831051920558657 24.615859965918375 6.6819122076557562 #
point $-1 -1.3358412491823373 25.263924514951871 -0.92166556922283327 #
straight-curve $-1 0 -61.970488350886257 6.6819122076557562 0 1 0 I I #
point $-1 0 -32.695619698089466 6.6819122076557553 #
straight-curve $-1 -3.9519873606682978 -26.139184570052983 6.6819122076557562 -1 0 0 I I #
point $-1 0 -26.139184570052983 6.6819122076557544 #
point $-1 -11.291392459052283 -26.711816910974143 0.70677015899376672 #
point $-1 -4.5165569836209158 -26.711816910974143 0.70677015899376672 #
straight-curve $-1 0 -32.695619698089466 54.961194766869014 0 0 -1 I I #
straight-curve $-1 0 -61.970488350886257 6.6819122076557562 0 -1 0 I I #
point $-1 0 -32.695619698089466 6.6819122076557553 #
point $-1 4.5165569836208874 -26.711816910974143 0.70677015899376672 #
point $-1 11.291392459052261 -26.711816910974143 0.70677015899376672 #
straight-curve $-1 -70.976287118137151 0 -6.6819122076557553 0 1 0 I I #
point $-1 -70.976287118137151 -32.695619698089466 -6.6819122076557553 #
point $-1 -70.976287118137151 32.695619698089466 -6.6819122076557553 #
straight-curve $-1 0 -32.695619698089466 -6.6819122076557553 -1 0 0 I I #
End-of-ACIS-data 