500 0 5 0           
7 Unknown 11 ACIS 5.0 NT 24 Thu Mar 25 21:56:41 1999 
-1 9.9999999999999995e-007 1e-010 
body $-1 $5 $-1 $6 #
body $-1 $7 $-1 $8 #
body $-1 $9 $-1 $10 #
body $-1 $11 $-1 $12 #
body $-1 $13 $-1 $14 #
lump $-1 $-1 $15 $0 #
transform $-1 1 0 0 0 1 0 0 0 1 70.758995330668057 46.737172641427307 13.288008485512892 1 rotate no_reflect no_shear #
lump $-1 $-1 $16 $1 #
transform $-1 1 0 0 0 1 0 0 0 1 70.758995330668057 46.737172641427307 13.288008485512892 1 rotate no_reflect no_shear #
lump $-1 $-1 $17 $2 #
transform $-1 1 0 0 0 1 0 0 0 1 70.758995330668057 46.737172641427307 13.288008485512892 1 rotate no_reflect no_shear #
lump $-1 $-1 $18 $3 #
transform $-1 1 0 0 0 1 0 0 0 1 70.758995330668057 46.737172641427307 13.288008485512892 1 rotate no_reflect no_shear #
lump $-1 $-1 $19 $4 #
transform $-1 1 0 0 0 1 0 0 0 1 70.758995330668057 46.737172641427307 13.288008485512892 1 rotate no_reflect no_shear #
shell $-1 $-1 $-1 $20 $-1 $5 #
shell $-1 $-1 $-1 $21 $-1 $7 #
shell $-1 $-1 $-1 $22 $-1 $9 #
shell $-1 $-1 $-1 $23 $-1 $11 #
shell $-1 $-1 $-1 $24 $-1 $13 #
face $-1 $25 $26 $15 $-1 $27 reversed single #
face $-1 $28 $29 $16 $-1 $30 forward single #
face $-1 $31 $32 $17 $-1 $33 reversed single #
face $-1 $34 $35 $18 $-1 $36 forward single #
face $-1 $37 $38 $19 $-1 $39 forward single #
face $-1 $40 $41 $15 $-1 $42 forward single #
loop $-1 $-1 $43 $20 #
plane-surface $-1 -70.758995330668057 0 0 1 0 0 0 0 -1 forward_v I I I I #
face $-1 $44 $45 $16 $-1 $46 reversed single #
loop $-1 $-1 $47 $21 #
plane-surface $-1 -70.758995330668057 0 0 1 0 0 0 0 -1 forward_v I I I I #
face $-1 $48 $49 $17 $-1 $50 reversed single #
loop $-1 $-1 $51 $22 #
plane-surface $-1 20.897182893192038 45.419213708805032 170.33867300653267 1 0 0 0 -0.54463904215088732 -0.83867056331134215 forward_v I I I I #
face $-1 $52 $53 $18 $-1 $54 forward single #
loop $-1 $55 $56 $23 #
cone-surface $-1 26.940809892534759 35.330697679182563 4.3250741762172389 0 -0.54463904215088732 -0.83867056331134215 3 0 0 1 I I 0 1 3 forward I I I I #
face $-1 $57 $58 $19 $-1 $59 forward single #
loop $-1 $60 $61 $24 #
cone-surface $-1 36.006250391548832 35.330697679182563 4.3250741762172389 0 -0.54463904215088732 -0.83867056331134215 3 0 0 1 I I 0 1 3 forward I I I I #
face $-1 $62 $63 $15 $-1 $64 reversed single #
loop $-1 $-1 $65 $25 #
plane-surface $-1 0 0 13.288008485512892 0 0 1 1 0 0 forward_v I I I I #
coedge $-1 $66 $67 $68 $69 reversed $26 $-1 #
face $-1 $70 $71 $16 $-1 $72 reversed single #
loop $-1 $-1 $73 $28 #
plane-surface $-1 0 0 -13.288008485512892 0 0 1 1 0 0 forward_v I I I I #
coedge $-1 $74 $75 $76 $77 forward $29 $-1 #
face $-1 $78 $79 $17 $-1 $80 reversed single #
loop $-1 $-1 $81 $31 #
plane-surface $-1 31.473530142041795 -31.657009172103287 51.651700059900662 0 0.54463904215088732 0.83867056331134215 1 0 0 forward_v I I I I #
coedge $-1 $82 $83 $84 $85 reversed $32 $-1 #
face $-1 $-1 $86 $18 $-1 $87 forward single #
loop $-1 $88 $89 $34 #
cone-surface $-1 26.940809892534759 32.766903341691688 0.37717717502829906 0 -0.54463904215088732 -0.83867056331134215 1.5 0 0 1 I I -0.70710678118654757 0.70710678118654757 1.5 forward I I I I #
loop $-1 $-1 $90 $23 #
coedge $-1 $56 $56 $91 $92 reversed $35 $-1 #
face $-1 $-1 $93 $19 $-1 $94 forward single #
loop $-1 $95 $96 $37 #
cone-surface $-1 36.006250391548832 32.766903341691688 0.37717717502829906 0 -0.54463904215088732 -0.83867056331134215 1.5 0 0 1 I I -0.70710678118654757 0.70710678118654757 1.5 forward I I I I #
loop $-1 $-1 $97 $24 #
coedge $-1 $61 $61 $98 $99 reversed $38 $-1 #
face $-1 $100 $101 $15 $-1 $102 reversed single #
loop $-1 $-1 $103 $40 #
plane-surface $-1 0 0 -13.288008485512892 0 0 1 1 0 0 forward_v I I I I #
coedge $-1 $104 $105 $106 $107 forward $41 $-1 #
coedge $-1 $108 $43 $109 $110 reversed $26 $-1 #
coedge $-1 $43 $108 $111 $112 forward $26 $-1 #
coedge $-1 $113 $114 $43 $69 forward $63 $-1 #
edge $-1 $115 -46.737172641427307 $116 46.737172641427307 $43 $117 forward 7 unknown #
face $-1 $118 $119 $16 $-1 $120 reversed single #
loop $-1 $-1 $121 $44 #
plane-surface $-1 -79.249520568251924 -24.171443945594156 0 0 1 0 0 0 1 forward_v I I I I #
coedge $-1 $122 $123 $75 $124 forward $45 $-1 #
coedge $-1 $125 $47 $126 $127 reversed $29 $-1 #
coedge $-1 $47 $125 $73 $124 reversed $29 $-1 #
coedge $-1 $128 $129 $47 $77 reversed $130 $-1 #
edge $-1 $131 -13.288008485512892 $132 13.288008485512892 $76 $133 forward 7 unknown #
face $-1 $134 $135 $17 $-1 $136 forward single #
loop $-1 $-1 $137 $48 #
plane-surface $-1 42.049877390891552 45.419213708805032 170.33867300653267 -1 0 0 0 0.54463904215088732 0.83867056331134215 forward_v I I I I #
coedge $-1 $138 $139 $140 $141 reversed $49 $-1 #
coedge $-1 $83 $51 $142 $143 reversed $32 $-1 #
coedge $-1 $51 $82 $138 $144 reversed $32 $-1 #
coedge $-1 $140 $145 $51 $85 forward $135 $-1 #
edge $-1 $146 -24.027565787024791 $147 -4.7082874110643758 $84 $148 forward 7 unknown #
loop $-1 $-1 $91 $52 #
plane-surface $-1 31.473530142041795 -31.657009172103287 51.651700059900662 0 0.54463904215088732 0.83867056331134215 1 0 0 forward_v I I I I #
loop $-1 $-1 $149 $34 #
coedge $-1 $89 $89 $90 $150 reversed $53 $-1 #
coedge $-1 $90 $90 $89 $150 forward $55 $-1 #
coedge $-1 $91 $91 $56 $92 forward $86 $-1 #
edge $-1 $151 1.766728518607491e-015 $151 6.2831853071796022 $91 $152 forward 7 unknown #
loop $-1 $-1 $98 $57 #
plane-surface $-1 31.473530142041795 -31.657009172103287 51.651700059900662 0 0.54463904215088732 0.83867056331134215 1 0 0 forward_v I I I I #
loop $-1 $-1 $153 $37 #
coedge $-1 $96 $96 $97 $154 reversed $58 $-1 #
coedge $-1 $97 $97 $96 $154 forward $60 $-1 #
coedge $-1 $98 $98 $61 $99 forward $93 $-1 #
edge $-1 $155 1.766728518607491e-015 $155 6.2831853071796022 $98 $156 forward 7 unknown #
face $-1 $157 $158 $15 $-1 $159 reversed single #
loop $-1 $-1 $109 $62 #
plane-surface $-1 0 -46.737172641427307 0 0 1 0 0 0 1 forward_v I I I I #
coedge $-1 $114 $113 $160 $161 forward $63 $-1 #
coedge $-1 $162 $65 $163 $164 forward $41 $-1 #
coedge $-1 $65 $162 $165 $166 forward $41 $-1 #
coedge $-1 $167 $168 $65 $107 reversed $169 $-1 #
edge $-1 $170 -46.737172641427307 $171 46.737172641427307 $106 $172 forward 7 unknown #
coedge $-1 $67 $66 $162 $173 reversed $26 $-1 #
coedge $-1 $174 $165 $66 $110 forward $101 $-1 #
edge $-1 $175 -13.288008485512892 $115 13.288008485512892 $66 $176 forward 7 unknown #
coedge $-1 $163 $177 $67 $112 reversed $158 $-1 #
edge $-1 $178 -13.288008485512892 $116 13.288008485512892 $111 $179 forward 7 unknown #
coedge $-1 $103 $68 $177 $180 forward $63 $-1 #
coedge $-1 $68 $103 $174 $181 forward $63 $-1 #
vertex $-1 $69 $182 #
vertex $-1 $180 $183 #
straight-curve $-1 -70.758995330668057 0 -13.288008485512892 0 1 0 I I #
face $-1 $184 $130 $16 $-1 $185 reversed single #
loop $-1 $-1 $186 $70 #
plane-surface $-1 -87.740045805835791 -22.166299807997838 0 1 0 0 0 0 -1 forward_v I I I I #
coedge $-1 $187 $188 $189 $190 forward $71 $-1 #
coedge $-1 $191 $73 $187 $192 forward $45 $-1 #
coedge $-1 $73 $191 $128 $193 forward $45 $-1 #
edge $-1 $131 20.16115567040152 $194 24.171443945594156 $73 $195 forward 7 unknown #
coedge $-1 $75 $74 $196 $197 forward $29 $-1 #
coedge $-1 $198 $199 $74 $127 forward $200 $-1 #
edge $-1 $201 -24.171443945594156 $132 -20.16115567040152 $126 $202 forward 7 unknown #
coedge $-1 $203 $76 $123 $193 reversed $130 $-1 #
coedge $-1 $76 $203 $198 $204 reversed $130 $-1 #
loop $-1 $-1 $76 $118 #
vertex $-1 $124 $205 #
vertex $-1 $204 $206 #
straight-curve $-1 -70.758995330668057 -20.16115567040152 0 0 0 1 I I #
face $-1 $-1 $207 $17 $-1 $208 reversed single #
loop $-1 $-1 $84 $78 #
plane-surface $-1 0 0 13.288008485512892 0 0 1 1 0 0 forward_v I I I I #
coedge $-1 $209 $210 $211 $212 reversed $79 $-1 #
coedge $-1 $213 $81 $83 $144 forward $49 $-1 #
coedge $-1 $81 $213 $209 $214 forward $49 $-1 #
coedge $-1 $211 $84 $81 $141 forward $135 $-1 #
edge $-1 $147 5.1604178221711408 $215 26.313112319870655 $140 $216 forward 7 unknown #
coedge $-1 $217 $218 $82 $143 forward $207 $-1 #
edge $-1 $219 -84.427414323900933 $146 -71.881328017753447 $142 $220 forward 7 unknown #
edge $-1 $147 70.438746775996748 $219 93.474345282854628 $83 $221 forward 7 unknown #
coedge $-1 $84 $211 $217 $222 forward $135 $-1 #
vertex $-1 $143 $223 #
vertex $-1 $85 $224 #
straight-curve $-1 20.897182893192038 22.709606854402516 13.28800848551289 0 -1 0 I I #
coedge $-1 $149 $149 $-1 $225 reversed $88 $-1 #
edge $-1 $226 0 $226 6.2831853071796004 $89 $227 forward 7 unknown #
vertex $-1 $92 $228 #
ellipse-curve $-1 26.940809892534759 37.077533453447096 7.0149653324391421 0 0.54463904215088732 0.83867056331134215 3 0 0 1 I I #
coedge $-1 $153 $153 $-1 $229 reversed $95 $-1 #
edge $-1 $230 0 $230 6.2831853071796004 $96 $231 forward 7 unknown #
vertex $-1 $99 $232 #
ellipse-curve $-1 36.006250391548832 37.077533453447096 7.0149653324391421 0 0.54463904215088732 0.83867056331134215 3 0 0 1 I I #
face $-1 $-1 $169 $15 $-1 $233 reversed single #
loop $-1 $-1 $234 $100 #
plane-surface $-1 0 46.737172641427307 0 0 -1 0 0 0 -1 forward_v I I I I #
coedge $-1 $168 $167 $103 $161 reversed $169 $-1 #
edge $-1 $235 -46.737172641427307 $236 46.737172641427307 $160 $237 forward 7 unknown #
coedge $-1 $105 $104 $108 $173 forward $41 $-1 #
coedge $-1 $234 $111 $104 $164 reversed $158 $-1 #
edge $-1 $171 -70.758995330668057 $178 70.758995330668057 $163 $238 forward 7 unknown #
coedge $-1 $109 $239 $105 $166 reversed $101 $-1 #
edge $-1 $175 -70.758995330668057 $170 70.758995330668057 $165 $240 forward 7 unknown #
coedge $-1 $160 $106 $239 $241 forward $169 $-1 #
coedge $-1 $106 $160 $234 $242 reversed $169 $-1 #
loop $-1 $-1 $167 $157 #
vertex $-1 $107 $243 #
vertex $-1 $107 $244 #
straight-curve $-1 70.758995330668057 0 13.288008485512892 0 1 0 I I #
edge $-1 $178 -46.737172641427307 $175 46.737172641427307 $108 $245 forward 7 unknown #
coedge $-1 $239 $109 $114 $181 reversed $101 $-1 #
vertex $-1 $173 $246 #
straight-curve $-1 -70.758995330668057 -46.737172641427307 0 0 0 -1 I I #
coedge $-1 $111 $234 $113 $180 reversed $158 $-1 #
vertex $-1 $164 $247 #
straight-curve $-1 -70.758995330668057 46.737172641427307 0 0 0 -1 I I #
edge $-1 $116 -70.758995330668057 $235 70.758995330668057 $177 $248 forward 7 unknown #
edge $-1 $236 -70.758995330668057 $115 70.758995330668057 $174 $249 forward 7 unknown #
point $-1 -70.758995330668057 -46.737172641427307 -13.288008485512892 #
point $-1 -70.758995330668057 46.737172641427307 -13.288008485512892 #
face $-1 $-1 $200 $16 $-1 $250 forward single #
plane-surface $-1 -79.249520568251924 -20.16115567040152 0 0 -1 0 0 0 -1 forward_v I I I I #
coedge $-1 $251 $252 $203 $253 forward $119 $-1 #
coedge $-1 $196 $121 $122 $192 reversed $71 $-1 #
coedge $-1 $121 $196 $199 $254 reversed $71 $-1 #
coedge $-1 $252 $251 $121 $190 reversed $119 $-1 #
edge $-1 $255 -13.288008485512892 $256 13.288008485512892 $189 $257 forward 7 unknown #
coedge $-1 $123 $122 $251 $258 forward $45 $-1 #
edge $-1 $194 -8.4905252375838671 $256 8.4905252375838671 $187 $259 forward 7 unknown #
edge $-1 $260 -8.4905252375838671 $131 8.4905252375838671 $128 $261 forward 7 unknown #
vertex $-1 $192 $262 #
straight-curve $-1 -70.758995330668057 0 -13.288008485512892 0 -1 0 I I #
coedge $-1 $188 $187 $125 $197 reversed $71 $-1 #
edge $-1 $201 -13.288008485512892 $194 13.288008485512892 $196 $263 forward 7 unknown #
coedge $-1 $264 $126 $129 $204 forward $200 $-1 #
coedge $-1 $126 $264 $188 $254 forward $200 $-1 #
loop $-1 $-1 $126 $184 #
vertex $-1 $127 $265 #
straight-curve $-1 -70.758995330668057 0 13.288008485512892 0 1 0 I I #
coedge $-1 $129 $128 $186 $253 reversed $130 $-1 #
edge $-1 $132 -8.4905252375838671 $266 8.4905252375838671 $129 $267 forward 7 unknown #
point $-1 -70.758995330668057 -20.16115567040152 -13.288008485512892 #
point $-1 -70.758995330668057 -20.16115567040152 13.288008485512892 #
loop $-1 $-1 $142 $134 #
plane-surface $-1 0 46.737172641427307 0 0 -1 0 0 0 -1 forward_v I I I I #
coedge $-1 $210 $137 $139 $214 reversed $79 $-1 #
coedge $-1 $137 $209 $268 $269 reversed $79 $-1 #
coedge $-1 $145 $140 $137 $212 forward $135 $-1 #
edge $-1 $215 4.7082874110643758 $270 24.027565787024791 $211 $271 forward 7 unknown #
coedge $-1 $139 $138 $218 $272 reversed $49 $-1 #
edge $-1 $273 -93.474345282854628 $215 -70.438746775996748 $209 $274 forward 7 unknown #
vertex $-1 $141 $275 #
straight-curve $-1 15.736765071020898 27.417894265466906 13.288008485512886 1 0 0 I I #
coedge $-1 $268 $142 $145 $222 reversed $207 $-1 #
coedge $-1 $142 $268 $213 $272 forward $207 $-1 #
vertex $-1 $143 $276 #
straight-curve $-1 20.897182893192038 46.737172641427307 85.169336503266337 0 0 1 I I #
straight-curve $-1 20.897182893192038 -31.657009172103287 51.651700059900662 0 0.83867056331134215 -0.54463904215088732 I I #
edge $-1 $270 -42.049877390891552 $146 -20.897182893192038 $217 $277 forward 7 unknown #
point $-1 20.897182893192038 46.737172641427307 13.288008485512892 #
point $-1 20.897182893192038 27.417894265466892 13.28800848551289 #
edge $-1 $278 1 $278 0 $149 $-1 forward 7 unknown #
vertex $-1 $150 $279 #
ellipse-curve $-1 26.940809892534759 33.583861904918017 1.6351830199953123 0 0.54463904215088732 0.83867056331134215 3 0 0 1 I I #
point $-1 29.940809892534759 37.077533453447117 7.0149653324391652 #
edge $-1 $280 1 $280 0 $153 $-1 forward 7 unknown #
vertex $-1 $154 $281 #
ellipse-curve $-1 36.006250391548832 33.583861904918017 1.6351830199953123 0 0.54463904215088732 0.83867056331134215 3 0 0 1 I I #
point $-1 39.006250391548832 37.077533453447117 7.0149653324391652 #
plane-surface $-1 70.758995330668057 0 0 -1 0 0 0 0 1 forward_v I I I I #
coedge $-1 $177 $163 $168 $242 forward $158 $-1 #
vertex $-1 $161 $282 #
vertex $-1 $241 $283 #
straight-curve $-1 70.758995330668057 0 -13.288008485512892 0 -1 0 I I #
straight-curve $-1 0 46.737172641427307 13.288008485512892 -1 0 0 I I #
coedge $-1 $165 $174 $167 $241 reversed $101 $-1 #
straight-curve $-1 0 -46.737172641427307 13.288008485512892 1 0 0 I I #
edge $-1 $170 -13.288008485512892 $236 13.288008485512892 $167 $284 forward 7 unknown #
edge $-1 $171 -13.288008485512892 $235 13.288008485512892 $168 $285 forward 7 unknown #
point $-1 70.758995330668057 -46.737172641427307 13.288008485512892 #
point $-1 70.758995330668057 46.737172641427307 13.288008485512892 #
straight-curve $-1 -70.758995330668057 0 13.288008485512892 0 -1 0 I I #
point $-1 -70.758995330668057 -46.737172641427307 13.288008485512892 #
point $-1 -70.758995330668057 46.737172641427307 13.288008485512892 #
straight-curve $-1 0 46.737172641427307 -13.288008485512892 1 0 0 I I #
straight-curve $-1 0 -46.737172641427307 -13.288008485512892 -1 0 0 I I #
plane-surface $-1 0 0 13.288008485512892 0 0 1 1 0 0 forward_v I I I I #
coedge $-1 $189 $186 $191 $258 reversed $119 $-1 #
coedge $-1 $186 $189 $264 $286 reversed $119 $-1 #
edge $-1 $266 -13.288008485512892 $260 13.288008485512892 $203 $287 forward 7 unknown #
edge $-1 $255 -8.4905252375838671 $201 8.4905252375838671 $188 $288 forward 7 unknown #
vertex $-1 $286 $289 #
vertex $-1 $258 $290 #
straight-curve $-1 -87.740045805835791 -24.171443945594156 0 0 0 -1 I I #
edge $-1 $256 -2.0051441375963179 $260 2.0051441375963179 $251 $291 forward 7 unknown #
straight-curve $-1 -79.249520568251924 -24.171443945594156 -13.288008485512892 -1 0 0 I I #
vertex $-1 $193 $292 #
straight-curve $-1 -79.249520568251924 -20.16115567040152 -13.288008485512892 1 0 0 I I #
point $-1 -70.758995330668057 -24.171443945594156 -13.288008485512892 #
straight-curve $-1 -70.758995330668057 -24.171443945594156 0 0 0 -1 I I #
coedge $-1 $199 $198 $252 $286 forward $200 $-1 #
point $-1 -70.758995330668057 -24.171443945594156 13.288008485512892 #
vertex $-1 $204 $293 #
straight-curve $-1 -79.249520568251924 -20.16115567040152 13.288008485512892 -1 0 0 I I #
coedge $-1 $218 $217 $210 $269 forward $207 $-1 #
edge $-1 $270 71.881328017753447 $273 84.427414323900933 $268 $294 forward 7 unknown #
vertex $-1 $222 $295 #
straight-curve $-1 42.049877390891552 22.709606854402516 13.28800848551289 0 1 0 I I #
edge $-1 $273 -26.313112319870655 $219 -5.1604178221711408 $218 $296 forward 7 unknown #
vertex $-1 $272 $297 #
straight-curve $-1 42.049877390891552 -31.657009172103287 51.651700059900662 0 -0.83867056331134215 0.54463904215088732 I I #
point $-1 42.049877390891552 27.417894265466892 13.28800848551289 #
point $-1 20.897182893192038 46.737172641427307 0.74192217936540317 #
straight-curve $-1 0 46.737172641427307 13.288008485512892 -1 0 0 I I #
vertex $-1 $225 $298 #
point $-1 29.940809892534759 33.583861904918017 1.6351830199953123 #
vertex $-1 $229 $299 #
point $-1 39.006250391548832 33.583861904918017 1.6351830199953123 #
point $-1 70.758995330668057 46.737172641427307 -13.288008485512892 #
point $-1 70.758995330668057 -46.737172641427307 -13.288008485512892 #
straight-curve $-1 70.758995330668057 -46.737172641427307 0 0 0 -1 I I #
straight-curve $-1 70.758995330668057 46.737172641427307 0 0 0 -1 I I #
edge $-1 $266 -2.0051441375963179 $255 2.0051441375963179 $252 $300 forward 7 unknown #
straight-curve $-1 -87.740045805835791 -20.16115567040152 0 0 0 -1 I I #
straight-curve $-1 -79.249520568251924 -24.171443945594156 13.288008485512892 1 0 0 I I #
point $-1 -87.740045805835791 -24.171443945594156 13.288008485512892 #
point $-1 -87.740045805835791 -24.171443945594156 -13.288008485512892 #
straight-curve $-1 -87.740045805835791 -22.166299807997838 -13.288008485512892 0 1 0 I I #
point $-1 -87.740045805835791 -20.16115567040152 -13.288008485512892 #
point $-1 -87.740045805835791 -20.16115567040152 13.288008485512892 #
straight-curve $-1 42.049877390891552 46.737172641427307 85.169336503266337 0 0 -1 I I #
point $-1 42.049877390891552 46.737172641427307 13.288008485512892 #
straight-curve $-1 15.736765071020898 46.737172641427307 0.74192217936539961 -1 0 0 I I #
point $-1 42.049877390891552 46.737172641427307 0.74192217936540317 #
point $-1 26.940809892534759 31.949944778465358 -0.88082866993871423 #
point $-1 36.006250391548832 31.949944778465358 -0.88082866993871423 #
straight-curve $-1 -87.740045805835791 -22.166299807997838 13.288008485512892 0 -1 0 I I #
End-of-ACIS-data 