500 0 11 0           
7 Unknown 11 ACIS 5.0 NT 24 Thu Mar 25 15:50:44 1999 
-1 9.9999999999999995e-007 1e-010 
body $-1 $11 $-1 $12 #
body $-1 $13 $-1 $14 #
body $-1 $15 $-1 $16 #
body $-1 $17 $-1 $18 #
body $-1 $19 $-1 $20 #
body $-1 $21 $-1 $22 #
body $-1 $23 $-1 $24 #
body $-1 $25 $-1 $26 #
body $-1 $27 $-1 $28 #
body $-1 $29 $-1 $30 #
body $-1 $31 $-1 $32 #
lump $-1 $-1 $33 $0 #
transform $-1 1 0 0 0 1 0 0 0 1 42.58552812280648 28.060025175800444 8.1504837676844346 1 rotate no_reflect no_shear #
lump $-1 $-1 $34 $1 #
transform $-1 1 0 0 0 1 0 0 0 1 42.58552812280648 28.060025175800444 8.1504837676844346 1 rotate no_reflect no_shear #
lump $-1 $-1 $35 $2 #
transform $-1 1 0 0 0 1 0 0 0 1 42.58552812280648 28.060025175800444 8.1504837676844346 1 rotate no_reflect no_shear #
lump $-1 $-1 $36 $3 #
transform $-1 1 0 0 0 1 0 0 0 1 42.58552812280648 28.060025175800444 8.1504837676844346 1 rotate no_reflect no_shear #
lump $-1 $-1 $37 $4 #
transform $-1 1 0 0 0 1 0 0 0 1 42.58552812280648 28.060025175800444 8.1504837676844346 1 rotate no_reflect no_shear #
lump $-1 $-1 $38 $5 #
transform $-1 1 0 0 0 1 0 0 0 1 42.58552812280648 28.060025175800444 8.1504837676844346 1 rotate no_reflect no_shear #
lump $-1 $-1 $39 $6 #
transform $-1 1 0 0 0 1 0 0 0 1 42.58552812280648 28.060025175800444 8.1504837676844346 1 rotate no_reflect no_shear #
lump $-1 $-1 $40 $7 #
transform $-1 1 0 0 0 1 0 0 0 1 42.58552812280648 28.060025175800444 8.1504837676844346 1 rotate no_reflect no_shear #
lump $-1 $-1 $41 $8 #
transform $-1 1 0 0 0 1 0 0 0 1 42.58552812280648 28.060025175800444 8.1504837676844346 1 rotate no_reflect no_shear #
lump $-1 $-1 $42 $9 #
transform $-1 1 0 0 0 1 0 0 0 1 42.58552812280648 28.060025175800444 8.1504837676844346 1 rotate no_reflect no_shear #
lump $-1 $-1 $43 $10 #
transform $-1 1 0 0 0 1 0 0 0 1 42.58552812280648 28.060025175800444 8.1504837676844346 1 rotate no_reflect no_shear #
shell $-1 $-1 $-1 $44 $-1 $11 #
shell $-1 $-1 $-1 $45 $-1 $13 #
shell $-1 $-1 $-1 $46 $-1 $15 #
shell $-1 $-1 $-1 $47 $-1 $17 #
shell $-1 $-1 $-1 $48 $-1 $19 #
shell $-1 $-1 $-1 $49 $-1 $21 #
shell $-1 $-1 $-1 $50 $-1 $23 #
shell $-1 $-1 $-1 $51 $-1 $25 #
shell $-1 $-1 $-1 $52 $-1 $27 #
shell $-1 $-1 $-1 $53 $-1 $29 #
shell $-1 $-1 $-1 $54 $-1 $31 #
face $-1 $55 $56 $33 $-1 $57 forward single #
face $-1 $58 $59 $34 $-1 $60 forward single #
face $-1 $61 $62 $35 $-1 $63 forward single #
face $-1 $64 $65 $36 $-1 $66 reversed single #
face $-1 $67 $68 $37 $-1 $69 forward single #
face $-1 $70 $71 $38 $-1 $72 reversed single #
face $-1 $73 $74 $39 $-1 $75 forward single #
face $-1 $76 $77 $40 $-1 $78 forward single #
face $-1 $79 $80 $41 $-1 $81 reversed single #
face $-1 $82 $83 $42 $-1 $84 forward single #
face $-1 $85 $86 $43 $-1 $87 forward single #
face $-1 $88 $89 $33 $-1 $90 reversed single #
loop $-1 $-1 $91 $44 #
plane-surface $-1 0 0 8.1504837676844346 0 0 1 1 0 0 forward_v I I I I #
face $-1 $92 $93 $34 $-1 $94 forward single #
loop $-1 $-1 $95 $45 #
plane-surface $-1 0 -28.060025175800444 0 0 1 0 0 0 1 forward_v I I I I #
face $-1 $96 $97 $35 $-1 $98 reversed single #
loop $-1 $-1 $99 $46 #
plane-surface $-1 0 28.060025175800444 0 0 -1 0 0 0 -1 forward_v I I I I #
face $-1 $100 $101 $36 $-1 $102 reversed single #
loop $-1 $-1 $103 $47 #
plane-surface $-1 -96.18541121100327 -16.62951784130124 68.034594488959257 0 1 0 -0.62932039886446345 0 0.77714595512881146 forward_v I I I I #
face $-1 $104 $105 $37 $-1 $106 forward single #
loop $-1 $107 $108 $48 #
cone-surface $-1 -37.223351694353859 -13.403034902763295 3.1840414738041054 0.62932039886446345 0 -0.77714595512881146 1.1657189326932171 0 0.94398059829669512 1 I I 0 1 1.5 forward I I I I #
face $-1 $109 $110 $38 $-1 $111 reversed single #
loop $-1 $-1 $112 $49 #
plane-surface $-1 61.428070927414424 -6.6591185344097985 119.13468175601982 0 -1 0 -0.80901700255871778 0 -0.5877852410284794 forward_v I I I I #
face $-1 $113 $114 $39 $-1 $115 forward single #
loop $-1 $116 $117 $50 #
cone-surface $-1 39.010592289412891 -12.220266203904664 3.668627969698397 -0.80901700255871778 0 -0.5877852410284794 0.2938926205142397 0 -0.40450850127935889 1 I I 0 1 0.5 forward I I I I #
face $-1 $118 $119 $40 $-1 $120 forward single #
loop $-1 $121 $122 $51 #
cone-surface $-1 39.010592289412891 -8.8835776022077475 3.668627969698397 -0.80901700255871778 0 -0.5877852410284794 0.2938926205142397 0 -0.40450850127935889 1 I I 0 1 0.5 forward I I I I #
face $-1 $123 $124 $41 $-1 $125 reversed single #
loop $-1 $-1 $126 $52 #
plane-surface $-1 61.428070927414424 14.444725271702612 119.13468175601982 0 -1 0 -0.80901700255871778 0 -0.5877852410284794 forward_v I I I I #
face $-1 $127 $128 $42 $-1 $129 forward single #
loop $-1 $130 $131 $53 #
cone-surface $-1 39.010592289412891 8.8835776022077475 3.668627969698397 -0.80901700255871778 0 -0.5877852410284794 0.2938926205142397 0 -0.40450850127935889 1 I I 0 1 0.5 forward I I I I #
face $-1 $132 $133 $43 $-1 $134 forward single #
loop $-1 $135 $136 $54 #
cone-surface $-1 39.010592289412891 12.220266203904661 3.668627969698397 -0.80901700255871778 0 -0.5877852410284794 0.2938926205142397 0 -0.40450850127935889 1 I I 0 1 0.5 forward I I I I #
face $-1 $137 $138 $33 $-1 $139 reversed single #
loop $-1 $-1 $140 $55 #
plane-surface $-1 0 0 -8.1504837676844346 0 0 1 1 0 0 forward_v I I I I #
coedge $-1 $141 $142 $143 $144 forward $56 $-1 #
face $-1 $145 $146 $34 $-1 $147 reversed single #
loop $-1 $-1 $148 $58 #
plane-surface $-1 0 0 8.1504837676844346 0 0 1 1 0 0 forward_v I I I I #
coedge $-1 $149 $150 $151 $152 forward $59 $-1 #
face $-1 $153 $154 $35 $-1 $155 reversed single #
loop $-1 $-1 $156 $61 #
plane-surface $-1 42.58552812280648 0 0 -1 0 0 0 0 1 forward_v I I I I #
coedge $-1 $157 $158 $159 $160 forward $62 $-1 #
face $-1 $161 $162 $36 $-1 $163 reversed single #
loop $-1 $-1 $164 $64 #
plane-surface $-1 -42.585528122806473 -13.403034902763295 1.8442526336326495 -0.62932039886446345 0 0.77714595512881146 0.77714595512881146 0 0.62932039886446345 forward_v I I I I #
coedge $-1 $165 $166 $167 $168 reversed $65 $-1 #
face $-1 $-1 $169 $37 $-1 $170 forward single #
loop $-1 $171 $172 $67 #
cone-surface $-1 -35.282958334642089 -13.403034902763295 0.78785528060305055 0.62932039886446345 0 -0.77714595512881146 0.58285946634660857 0 0.47199029914834756 1 I I -0.70710678118654757 0.70710678118654757 0.75 forward I I I I #
loop $-1 $-1 $173 $48 #
coedge $-1 $108 $108 $174 $175 reversed $68 $-1 #
face $-1 $176 $177 $38 $-1 $178 reversed single #
loop $-1 $-1 $179 $70 #
plane-surface $-1 -7.476761701171327 -10.551921903056204 69.072391932042024 0.80901700255871778 0 0.5877852410284794 0.5877852410284794 0 -0.80901700255871778 forward_v I I I I #
coedge $-1 $180 $181 $182 $183 reversed $71 $-1 #
face $-1 $-1 $184 $39 $-1 $185 forward single #
loop $-1 $186 $187 $73 #
cone-surface $-1 38.133369181029153 -12.220266203904664 3.0312880935693229 -0.80901700255871778 0 -0.5877852410284794 0.14694631025711985 0 -0.20225425063967944 1 I I -0.70710678118654746 0.70710678118654746 0.25 forward I I I I #
loop $-1 $-1 $188 $50 #
coedge $-1 $117 $117 $189 $190 reversed $74 $-1 #
face $-1 $-1 $191 $40 $-1 $192 forward single #
loop $-1 $193 $194 $76 #
cone-surface $-1 38.133369181029153 -8.8835776022077475 3.0312880935693229 -0.80901700255871778 0 -0.5877852410284794 0.14694631025711985 0 -0.20225425063967944 1 I I -0.70710678118654746 0.70710678118654746 0.25 forward I I I I #
loop $-1 $-1 $195 $51 #
coedge $-1 $122 $122 $196 $197 reversed $77 $-1 #
face $-1 $198 $199 $41 $-1 $200 reversed single #
loop $-1 $-1 $201 $79 #
plane-surface $-1 -7.476761701171327 10.551921903056208 69.072391932042024 0.80901700255871778 0 0.5877852410284794 0.5877852410284794 0 -0.80901700255871778 forward_v I I I I #
coedge $-1 $202 $203 $204 $205 reversed $80 $-1 #
face $-1 $-1 $206 $42 $-1 $207 forward single #
loop $-1 $208 $209 $82 #
cone-surface $-1 38.133369181029153 8.8835776022077475 3.0312880935693229 -0.80901700255871778 0 -0.5877852410284794 0.14694631025711985 0 -0.20225425063967944 1 I I -0.70710678118654746 0.70710678118654746 0.25 forward I I I I #
loop $-1 $-1 $210 $53 #
coedge $-1 $131 $131 $211 $212 reversed $83 $-1 #
face $-1 $-1 $213 $43 $-1 $214 forward single #
loop $-1 $215 $216 $85 #
cone-surface $-1 38.133369181029153 12.220266203904661 3.0312880935693229 -0.80901700255871778 0 -0.5877852410284794 0.14694631025711985 0 -0.20225425063967944 1 I I -0.70710678118654746 0.70710678118654746 0.25 forward I I I I #
loop $-1 $-1 $217 $54 #
coedge $-1 $136 $136 $218 $219 reversed $86 $-1 #
face $-1 $220 $221 $33 $-1 $222 reversed single #
loop $-1 $-1 $223 $88 #
plane-surface $-1 0 -28.060025175800444 0 0 1 0 0 0 1 forward_v I I I I #
coedge $-1 $224 $225 $226 $227 forward $89 $-1 #
coedge $-1 $228 $91 $229 $230 forward $56 $-1 #
coedge $-1 $91 $228 $231 $232 forward $56 $-1 #
coedge $-1 $233 $234 $91 $144 reversed $235 $-1 #
edge $-1 $236 -28.060025175800444 $237 28.060025175800444 $143 $238 forward 7 unknown #
face $-1 $239 $240 $34 $-1 $241 reversed single #
loop $-1 $-1 $242 $92 #
plane-surface $-1 -42.58552812280648 0 0 1 0 0 0 0 -1 forward_v I I I I #
coedge $-1 $243 $244 $245 $246 forward $93 $-1 #
coedge $-1 $245 $95 $242 $247 reversed $59 $-1 #
coedge $-1 $95 $245 $248 $249 reversed $59 $-1 #
coedge $-1 $250 $251 $95 $152 reversed $240 $-1 #
edge $-1 $252 -42.58552812280648 $253 42.58552812280648 $151 $254 forward 7 unknown #
face $-1 $255 $256 $35 $-1 $257 reversed single #
loop $-1 $-1 $258 $96 #
plane-surface $-1 0 31.9769287330593 5.0182921816547115 0 0 1 1 0 0 forward_v I I I I #
coedge $-1 $259 $260 $157 $261 forward $97 $-1 #
coedge $-1 $262 $99 $156 $261 reversed $62 $-1 #
coedge $-1 $99 $262 $263 $264 reversed $62 $-1 #
coedge $-1 $265 $258 $99 $160 reversed $154 $-1 #
edge $-1 $266 -42.58552812280648 $267 42.58552812280648 $159 $268 forward 7 unknown #
face $-1 $269 $270 $36 $-1 $271 reversed single #
loop $-1 $-1 $272 $100 #
plane-surface $-1 -96.18541121100327 -10.17655196422535 68.034594488959257 0 -1 0 0.62932039886446345 0 -0.77714595512881146 forward_v I I I I #
coedge $-1 $273 $274 $275 $276 reversed $101 $-1 #
coedge $-1 $166 $103 $277 $278 reversed $65 $-1 #
coedge $-1 $103 $165 $273 $279 reversed $65 $-1 #
coedge $-1 $275 $280 $103 $168 forward $281 $-1 #
edge $-1 $282 5.5071774826951554 $283 13.294724218473576 $167 $284 forward 7 unknown #
loop $-1 $-1 $174 $104 #
plane-surface $-1 -42.585528122806473 -13.403034902763295 1.8442526336326495 -0.62932039886446345 0 0.77714595512881146 0.77714595512881146 0 0.62932039886446345 forward_v I I I I #
loop $-1 $-1 $285 $67 #
coedge $-1 $172 $172 $173 $286 reversed $105 $-1 #
coedge $-1 $173 $173 $172 $286 forward $107 $-1 #
coedge $-1 $174 $174 $108 $175 forward $169 $-1 #
edge $-1 $287 0 $287 6.2831853071796004 $174 $288 forward 7 unknown #
face $-1 $289 $290 $38 $-1 $291 forward single #
loop $-1 $-1 $292 $109 #
plane-surface $-1 61.428070927414424 -14.444725271702609 119.13468175601982 0 1 0 0.80901700255871778 0 0.5877852410284794 forward_v I I I I #
coedge $-1 $293 $294 $295 $296 reversed $110 $-1 #
coedge $-1 $181 $112 $297 $298 reversed $71 $-1 #
coedge $-1 $112 $180 $293 $299 reversed $71 $-1 #
coedge $-1 $295 $300 $112 $183 forward $290 $-1 #
edge $-1 $301 -11.871492659099268 $302 -6.0715587078002002 $182 $303 forward 7 unknown #
loop $-1 $-1 $189 $113 #
plane-surface $-1 -7.476761701171327 -10.551921903056204 69.072391932042024 0.80901700255871778 0 0.5877852410284794 0.5877852410284794 0 -0.80901700255871778 forward_v I I I I #
loop $-1 $-1 $304 $73 #
coedge $-1 $187 $187 $188 $305 reversed $114 $-1 #
coedge $-1 $188 $188 $187 $305 forward $116 $-1 #
coedge $-1 $189 $189 $117 $190 forward $184 $-1 #
edge $-1 $306 0 $306 6.2831853071796004 $189 $307 forward 7 unknown #
loop $-1 $-1 $196 $118 #
plane-surface $-1 -7.476761701171327 -10.551921903056204 69.072391932042024 0.80901700255871778 0 0.5877852410284794 0.5877852410284794 0 -0.80901700255871778 forward_v I I I I #
loop $-1 $-1 $308 $76 #
coedge $-1 $194 $194 $195 $309 reversed $119 $-1 #
coedge $-1 $195 $195 $194 $309 forward $121 $-1 #
coedge $-1 $196 $196 $122 $197 forward $191 $-1 #
edge $-1 $310 0 $310 6.2831853071796004 $196 $311 forward 7 unknown #
face $-1 $312 $313 $41 $-1 $314 reversed single #
loop $-1 $-1 $315 $123 #
plane-surface $-1 61.428070927414424 6.6591185344098021 119.13468175601982 0 1 0 0.80901700255871778 0 0.5877852410284794 forward_v I I I I #
coedge $-1 $316 $317 $318 $319 reversed $124 $-1 #
coedge $-1 $203 $126 $320 $321 reversed $80 $-1 #
coedge $-1 $126 $202 $316 $322 reversed $80 $-1 #
coedge $-1 $318 $323 $126 $205 forward $324 $-1 #
edge $-1 $325 -11.871492659099268 $326 -6.0715587078002002 $204 $327 forward 7 unknown #
loop $-1 $-1 $211 $127 #
plane-surface $-1 -7.476761701171327 10.551921903056208 69.072391932042024 0.80901700255871778 0 0.5877852410284794 0.5877852410284794 0 -0.80901700255871778 forward_v I I I I #
loop $-1 $-1 $328 $82 #
coedge $-1 $209 $209 $210 $329 reversed $128 $-1 #
coedge $-1 $210 $210 $209 $329 forward $130 $-1 #
coedge $-1 $211 $211 $131 $212 forward $206 $-1 #
edge $-1 $330 0 $330 6.2831853071796004 $211 $331 forward 7 unknown #
loop $-1 $-1 $218 $132 #
plane-surface $-1 -7.476761701171327 10.551921903056208 69.072391932042024 0.80901700255871778 0 0.5877852410284794 0.5877852410284794 0 -0.80901700255871778 forward_v I I I I #
loop $-1 $-1 $332 $85 #
coedge $-1 $216 $216 $217 $333 reversed $133 $-1 #
coedge $-1 $217 $217 $216 $333 forward $135 $-1 #
coedge $-1 $218 $218 $136 $219 forward $213 $-1 #
edge $-1 $334 0 $334 6.2831853071796004 $218 $335 forward 7 unknown #
face $-1 $336 $337 $33 $-1 $338 reversed single #
loop $-1 $-1 $339 $137 #
plane-surface $-1 -42.58552812280648 0 0 1 0 0 0 0 -1 forward_v I I I I #
coedge $-1 $340 $231 $341 $342 forward $138 $-1 #
coedge $-1 $343 $140 $340 $344 forward $89 $-1 #
coedge $-1 $140 $343 $345 $346 forward $89 $-1 #
coedge $-1 $234 $233 $140 $227 reversed $235 $-1 #
edge $-1 $347 -28.060025175800444 $348 28.060025175800444 $226 $349 forward 7 unknown #
coedge $-1 $142 $141 $350 $351 forward $56 $-1 #
coedge $-1 $352 $353 $141 $230 reversed $337 $-1 #
edge $-1 $237 -42.58552812280648 $354 42.58552812280648 $229 $355 forward 7 unknown #
coedge $-1 $223 $356 $142 $232 reversed $138 $-1 #
edge $-1 $357 -42.58552812280648 $236 42.58552812280648 $231 $358 forward 7 unknown #
coedge $-1 $226 $143 $356 $359 forward $235 $-1 #
coedge $-1 $143 $226 $352 $360 reversed $235 $-1 #
loop $-1 $-1 $233 $336 #
vertex $-1 $144 $361 #
vertex $-1 $144 $362 #
straight-curve $-1 42.58552812280648 0 8.1504837676844346 0 1 0 I I #
face $-1 $363 $364 $34 $-1 $365 reversed single #
loop $-1 $-1 $250 $145 #
plane-surface $-1 0 -31.976928733059296 5.0182921816547115 0 0 1 1 0 0 forward_v I I I I #
coedge $-1 $366 $367 $149 $247 forward $146 $-1 #
coedge $-1 $368 $148 $367 $369 forward $93 $-1 #
coedge $-1 $148 $368 $370 $371 forward $93 $-1 #
coedge $-1 $150 $149 $148 $246 reversed $59 $-1 #
edge $-1 $372 -42.58552812280648 $373 42.58552812280648 $148 $374 forward 7 unknown #
edge $-1 $373 -8.1504837676844346 $253 -5.0182921816547115 $242 $375 forward 7 unknown #
coedge $-1 $370 $376 $150 $249 forward $377 $-1 #
edge $-1 $252 5.0182921816547115 $372 8.1504837676844346 $248 $378 forward 7 unknown #
coedge $-1 $379 $151 $376 $380 forward $240 $-1 #
coedge $-1 $151 $379 $366 $381 forward $240 $-1 #
vertex $-1 $249 $382 #
vertex $-1 $247 $383 #
straight-curve $-1 0 -28.060025175800444 5.0182921816547115 -1 0 0 I I #
face $-1 $384 $385 $35 $-1 $386 forward single #
loop $-1 $-1 $387 $153 #
plane-surface $-1 0 35.893832290318151 6.584387974669573 0 -1 0 0 0 -1 forward_v I I I I #
coedge $-1 $159 $388 $259 $389 forward $154 $-1 #
coedge $-1 $390 $156 $258 $389 reversed $97 $-1 #
coedge $-1 $156 $390 $391 $392 reversed $97 $-1 #
edge $-1 $393 -8.1504837676844346 $267 -5.0182921816547115 $156 $394 forward 7 unknown #
coedge $-1 $158 $157 $395 $396 reversed $62 $-1 #
coedge $-1 $397 $398 $158 $264 forward $399 $-1 #
edge $-1 $266 5.0182921816547115 $400 8.1504837676844346 $263 $401 forward 7 unknown #
coedge $-1 $388 $159 $398 $402 forward $154 $-1 #
vertex $-1 $264 $403 #
vertex $-1 $261 $404 #
straight-curve $-1 0 28.060025175800444 5.0182921816547115 1 0 0 I I #
face $-1 $-1 $281 $36 $-1 $405 forward single #
loop $-1 $-1 $406 $161 #
plane-surface $-1 -42.58552812280648 0 0 1 0 0 0 0 -1 forward_v I I I I #
coedge $-1 $407 $408 $409 $410 reversed $162 $-1 #
coedge $-1 $411 $164 $166 $279 forward $101 $-1 #
coedge $-1 $164 $411 $407 $412 forward $101 $-1 #
coedge $-1 $409 $167 $164 $276 forward $281 $-1 #
edge $-1 $283 -9.9280003899195925 $413 -3.4750345128437026 $275 $414 forward 7 unknown #
coedge $-1 $415 $416 $165 $278 forward $270 $-1 #
edge $-1 $417 -32.173044610846986 $282 -25.866813476795194 $277 $418 forward 7 unknown #
edge $-1 $283 -10.02070033869974 $417 9.1551213131864128e-015 $166 $419 forward 7 unknown #
coedge $-1 $167 $409 $415 $420 forward $281 $-1 #
loop $-1 $-1 $409 $269 #
vertex $-1 $278 $421 #
vertex $-1 $168 $422 #
straight-curve $-1 -48.092705605501635 -16.62951784130124 8.1504837676844346 1 0 0 I I #
coedge $-1 $285 $285 $-1 $423 reversed $171 $-1 #
edge $-1 $424 0 $424 6.2831853071796004 $172 $425 forward 7 unknown #
vertex $-1 $175 $426 #
ellipse-curve $-1 -38.69175475491727 -13.403034902763295 4.9973682006585367 -0.62932039886446345 0 0.77714595512881146 1.1657189326932171 0 0.94398059829669512 1 I I #
face $-1 $-1 $427 $38 $-1 $428 reversed single #
loop $-1 $-1 $182 $176 #
plane-surface $-1 0 0 8.1504837676844346 0 0 1 1 0 0 forward_v I I I I #
coedge $-1 $429 $430 $431 $432 reversed $177 $-1 #
coedge $-1 $433 $179 $181 $299 forward $110 $-1 #
coedge $-1 $179 $433 $429 $434 forward $110 $-1 #
coedge $-1 $431 $182 $179 $296 forward $290 $-1 #
edge $-1 $302 1.3831575828816964 $435 9.1687643201745068 $295 $436 forward 7 unknown #
coedge $-1 $437 $438 $180 $298 forward $427 $-1 #
edge $-1 $439 -59.399781574553664 $301 -51.416857110325473 $297 $440 forward 7 unknown #
edge $-1 $302 75.303619048396854 $439 85.171056245612988 $181 $441 forward 7 unknown #
coedge $-1 $182 $431 $437 $442 forward $290 $-1 #
vertex $-1 $298 $443 #
vertex $-1 $183 $444 #
straight-curve $-1 30.714035463707212 -6.6591185344097985 8.1504837676844346 -1 0 0 I I #
coedge $-1 $304 $304 $-1 $445 reversed $186 $-1 #
edge $-1 $446 0 $446 6.2831853071796004 $187 $447 forward 7 unknown #
vertex $-1 $190 $448 #
ellipse-curve $-1 39.685561147156946 -12.220266203904664 4.1590215355703499 0.80901700255871778 0 0.5877852410284794 0.2938926205142397 0 -0.40450850127935889 1 I I #
coedge $-1 $308 $308 $-1 $449 reversed $193 $-1 #
edge $-1 $450 0 $450 6.2831853071796004 $194 $451 forward 7 unknown #
vertex $-1 $197 $452 #
ellipse-curve $-1 39.685561147156946 -8.8835776022077475 4.1590215355703499 0.80901700255871778 0 0.5877852410284794 0.2938926205142397 0 -0.40450850127935889 1 I I #
face $-1 $-1 $324 $41 $-1 $453 forward single #
loop $-1 $-1 $454 $198 #
plane-surface $-1 42.58552812280648 0 0 -1 0 0 0 0 1 forward_v I I I I #
coedge $-1 $455 $456 $457 $458 reversed $199 $-1 #
coedge $-1 $459 $201 $203 $322 forward $124 $-1 #
coedge $-1 $201 $459 $455 $460 forward $124 $-1 #
coedge $-1 $457 $204 $201 $319 forward $324 $-1 #
edge $-1 $326 -9.1687643201745086 $461 -1.3831575828816982 $318 $462 forward 7 unknown #
coedge $-1 $463 $464 $202 $321 forward $313 $-1 #
edge $-1 $465 -59.399781574553664 $325 -51.416857110325473 $320 $466 forward 7 unknown #
edge $-1 $326 75.303619048396854 $465 85.171056245612988 $203 $467 forward 7 unknown #
coedge $-1 $204 $457 $463 $468 forward $324 $-1 #
loop $-1 $-1 $457 $312 #
vertex $-1 $321 $469 #
vertex $-1 $205 $470 #
straight-curve $-1 30.714035463707212 14.444725271702612 8.1504837676844346 -1 0 0 I I #
coedge $-1 $328 $328 $-1 $471 reversed $208 $-1 #
edge $-1 $472 0 $472 6.2831853071796004 $209 $473 forward 7 unknown #
vertex $-1 $212 $474 #
ellipse-curve $-1 39.685561147156946 8.8835776022077475 4.1590215355703499 0.80901700255871778 0 0.5877852410284794 0.2938926205142397 0 -0.40450850127935889 1 I I #
coedge $-1 $332 $332 $-1 $475 reversed $215 $-1 #
edge $-1 $476 0 $476 6.2831853071796004 $216 $477 forward 7 unknown #
vertex $-1 $219 $478 #
ellipse-curve $-1 39.685561147156946 12.220266203904661 4.1590215355703499 0.80901700255871778 0 0.5877852410284794 0.2938926205142397 0 -0.40450850127935889 1 I I #
face $-1 $-1 $235 $33 $-1 $479 reversed single #
loop $-1 $-1 $352 $220 #
plane-surface $-1 0 28.060025175800444 0 0 -1 0 0 0 -1 forward_v I I I I #
coedge $-1 $480 $350 $353 $481 forward $221 $-1 #
coedge $-1 $356 $223 $224 $344 reversed $138 $-1 #
coedge $-1 $350 $480 $223 $342 reversed $221 $-1 #
edge $-1 $357 -8.1504837676844346 $482 8.1504837676844346 $341 $483 forward 7 unknown #
coedge $-1 $225 $224 $480 $484 forward $89 $-1 #
edge $-1 $348 -42.58552812280648 $482 42.58552812280648 $340 $485 forward 7 unknown #
coedge $-1 $353 $352 $225 $346 reversed $337 $-1 #
edge $-1 $486 -42.58552812280648 $347 42.58552812280648 $345 $487 forward 7 unknown #
vertex $-1 $227 $488 #
vertex $-1 $359 $489 #
straight-curve $-1 42.58552812280648 0 -8.1504837676844346 0 -1 0 I I #
coedge $-1 $339 $341 $228 $351 reversed $221 $-1 #
edge $-1 $354 -28.060025175800444 $357 28.060025175800444 $350 $490 forward 7 unknown #
coedge $-1 $345 $229 $234 $360 forward $337 $-1 #
coedge $-1 $229 $345 $339 $481 reversed $337 $-1 #
vertex $-1 $230 $491 #
straight-curve $-1 0 28.060025175800444 8.1504837676844346 -1 0 0 I I #
coedge $-1 $231 $340 $233 $359 reversed $138 $-1 #
vertex $-1 $351 $492 #
straight-curve $-1 0 -28.060025175800444 8.1504837676844346 1 0 0 I I #
edge $-1 $236 -8.1504837676844346 $348 8.1504837676844346 $233 $493 forward 7 unknown #
edge $-1 $237 -8.1504837676844346 $347 8.1504837676844346 $234 $494 forward 7 unknown #
point $-1 42.58552812280648 -28.060025175800444 8.1504837676844346 #
point $-1 42.58552812280648 28.060025175800444 8.1504837676844346 #
face $-1 $-1 $377 $34 $-1 $495 reversed single #
loop $-1 $-1 $496 $239 #
plane-surface $-1 0 -35.893832290318144 6.584387974669573 0 1 0 0 0 1 forward_v I I I I #
coedge $-1 $497 $242 $251 $381 reversed $146 $-1 #
coedge $-1 $242 $497 $243 $369 reversed $146 $-1 #
coedge $-1 $244 $243 $498 $499 forward $93 $-1 #
edge $-1 $373 28.060025175800444 $500 35.893832290318144 $367 $501 forward 7 unknown #
coedge $-1 $502 $248 $244 $371 reversed $377 $-1 #
edge $-1 $503 -35.893832290318144 $372 -28.060025175800444 $370 $504 forward 7 unknown #
vertex $-1 $249 $505 #
vertex $-1 $369 $506 #
straight-curve $-1 0 -28.060025175800444 8.1504837676844346 -1 0 0 I I #
straight-curve $-1 -42.58552812280648 -28.060025175800444 0 0 0 -1 I I #
coedge $-1 $248 $502 $250 $380 reversed $377 $-1 #
loop $-1 $-1 $248 $363 #
straight-curve $-1 42.58552812280648 -28.060025175800444 0 0 0 1 I I #
coedge $-1 $251 $250 $507 $508 forward $240 $-1 #
edge $-1 $252 -3.9169035572588484 $509 3.9169035572588484 $376 $510 forward 7 unknown #
edge $-1 $511 -3.9169035572588484 $253 3.9169035572588484 $366 $512 forward 7 unknown #
point $-1 42.58552812280648 -28.060025175800448 5.0182921816547115 #
point $-1 -42.58552812280648 -28.060025175800448 5.0182921816547115 #
face $-1 $-1 $399 $35 $-1 $513 reversed single #
loop $-1 $-1 $395 $255 #
plane-surface $-1 0 0 8.1504837676844346 0 0 1 1 0 0 forward_v I I I I #
coedge $-1 $514 $515 $390 $516 forward $256 $-1 #
coedge $-1 $258 $265 $514 $517 forward $154 $-1 #
edge $-1 $518 -3.916903557258852 $267 3.916903557258852 $259 $519 forward 7 unknown #
coedge $-1 $260 $259 $387 $516 reversed $97 $-1 #
coedge $-1 $520 $395 $260 $392 forward $385 $-1 #
edge $-1 $393 28.060025175800444 $521 35.893832290318151 $260 $522 forward 7 unknown #
vertex $-1 $392 $523 #
straight-curve $-1 42.58552812280648 28.060025175800444 0 0 0 -1 I I #
coedge $-1 $391 $524 $262 $396 forward $385 $-1 #
edge $-1 $400 -42.58552812280648 $393 42.58552812280648 $395 $525 forward 7 unknown #
coedge $-1 $526 $263 $524 $527 reversed $399 $-1 #
coedge $-1 $263 $526 $265 $402 reversed $399 $-1 #
loop $-1 $-1 $263 $384 #
vertex $-1 $264 $528 #
straight-curve $-1 -42.58552812280648 28.060025175800444 0 0 0 1 I I #
edge $-1 $266 -3.916903557258852 $529 3.916903557258852 $398 $530 forward 7 unknown #
point $-1 -42.58552812280648 28.060025175800448 5.0182921816547115 #
point $-1 42.58552812280648 28.060025175800448 5.0182921816547115 #
plane-surface $-1 0 0 8.1504837676844346 0 0 1 1 0 0 forward_v I I I I #
coedge $-1 $416 $415 $408 $531 forward $270 $-1 #
coedge $-1 $408 $272 $274 $412 reversed $162 $-1 #
coedge $-1 $272 $407 $406 $531 reversed $162 $-1 #
coedge $-1 $280 $275 $272 $410 forward $281 $-1 #
edge $-1 $413 -13.294724218473576 $532 -5.5071774826951554 $409 $533 forward 7 unknown #
coedge $-1 $274 $273 $416 $534 reversed $101 $-1 #
edge $-1 $535 -9.1551213131864128e-015 $413 10.02070033869974 $407 $536 forward 7 unknown #
vertex $-1 $276 $537 #
straight-curve $-1 -34.797981387028059 -6.7015174513816476 8.1504837676844346 0 1 0 I I #
coedge $-1 $406 $277 $280 $420 reversed $270 $-1 #
coedge $-1 $277 $406 $411 $534 forward $270 $-1 #
vertex $-1 $278 $538 #
straight-curve $-1 -42.58552812280648 -16.62951784130124 34.017297244479629 0 0 1 I I #
straight-curve $-1 -42.585528122806473 -16.62951784130124 1.8442526336326495 -0.77714595512881146 0 -0.62932039886446345 I I #
edge $-1 $532 10.17655196422535 $282 16.62951784130124 $415 $539 forward 7 unknown #
point $-1 -42.58552812280648 -16.62951784130124 8.1504837676844346 #
point $-1 -34.797981387028059 -16.62951784130124 8.1504837676844346 #
edge $-1 $540 1 $540 0 $285 $-1 forward 7 unknown #
vertex $-1 $286 $541 #
ellipse-curve $-1 -35.754948633790434 -13.403034902763295 1.370714746949659 -0.62932039886446345 0 0.77714595512881146 1.1657189326932171 0 0.94398059829669512 1 I I #
point $-1 -37.526035822224067 -13.403034902763295 5.9413487989552465 #
loop $-1 $-1 $297 $289 #
plane-surface $-1 42.58552812280648 0 0 -1 0 0 0 0 1 forward_v I I I I #
coedge $-1 $430 $292 $294 $434 reversed $177 $-1 #
coedge $-1 $292 $429 $542 $543 reversed $177 $-1 #
coedge $-1 $300 $295 $292 $432 forward $290 $-1 #
edge $-1 $435 6.0715587078002002 $544 11.871492659099268 $431 $545 forward 7 unknown #
coedge $-1 $294 $293 $438 $546 reversed $110 $-1 #
edge $-1 $547 -85.171056245612988 $435 -75.303619048396854 $429 $548 forward 7 unknown #
vertex $-1 $296 $549 #
straight-curve $-1 36.785594171507405 -5.2759609515281021 8.1504837676844417 0 -1 0 I I #
coedge $-1 $542 $297 $300 $442 reversed $427 $-1 #
coedge $-1 $297 $542 $433 $546 forward $427 $-1 #
vertex $-1 $298 $550 #
straight-curve $-1 42.58552812280648 -6.6591185344097985 59.567340878009908 0 0 1 I I #
straight-curve $-1 -7.476761701171327 -6.6591185344097985 69.072391932042024 0.5877852410284794 0 -0.80901700255871778 I I #
edge $-1 $544 -14.444725271702609 $301 -6.6591185344097985 $437 $551 forward 7 unknown #
point $-1 42.58552812280648 -6.6591185344097985 8.1504837676844346 #
point $-1 36.785594171507412 -6.6591185344097985 8.1504837676844346 #
edge $-1 $552 1 $552 0 $304 $-1 forward 7 unknown #
vertex $-1 $305 $553 #
ellipse-curve $-1 38.335623431668829 -12.220266203904664 3.1782344038264427 0.80901700255871778 0 0.5877852410284794 0.2938926205142397 0 -0.40450850127935889 1 I I #
point $-1 39.979453767671188 -12.220266203904664 3.7545130342909916 #
edge $-1 $554 1 $554 0 $308 $-1 forward 7 unknown #
vertex $-1 $309 $555 #
ellipse-curve $-1 38.335623431668829 -8.8835776022077475 3.1782344038264427 0.80901700255871778 0 0.5877852410284794 0.2938926205142397 0 -0.40450850127935889 1 I I #
point $-1 39.979453767671188 -8.8835776022077475 3.7545130342909916 #
plane-surface $-1 0 0 8.1504837676844346 0 0 1 1 0 0 forward_v I I I I #
coedge $-1 $464 $463 $456 $556 forward $313 $-1 #
coedge $-1 $456 $315 $317 $460 reversed $199 $-1 #
coedge $-1 $315 $455 $454 $556 reversed $199 $-1 #
coedge $-1 $323 $318 $315 $458 forward $324 $-1 #
edge $-1 $461 6.0715587078002002 $557 11.871492659099268 $457 $558 forward 7 unknown #
coedge $-1 $317 $316 $464 $559 reversed $124 $-1 #
edge $-1 $560 -85.171056245612988 $461 -75.303619048396854 $455 $561 forward 7 unknown #
vertex $-1 $319 $562 #
straight-curve $-1 36.785594171507405 5.2759609515281038 8.1504837676844417 0 -1 0 I I #
coedge $-1 $454 $320 $323 $468 reversed $313 $-1 #
coedge $-1 $320 $454 $459 $559 forward $313 $-1 #
vertex $-1 $321 $563 #
straight-curve $-1 42.58552812280648 14.444725271702612 59.567340878009908 0 0 1 I I #
straight-curve $-1 -7.476761701171327 14.444725271702612 69.072391932042024 0.5877852410284794 0 -0.80901700255871778 I I #
edge $-1 $557 6.6591185344098021 $325 14.444725271702612 $463 $564 forward 7 unknown #
point $-1 42.58552812280648 14.444725271702612 8.1504837676844346 #
point $-1 36.785594171507412 14.444725271702612 8.1504837676844346 #
edge $-1 $565 1 $565 0 $328 $-1 forward 7 unknown #
vertex $-1 $329 $566 #
ellipse-curve $-1 38.335623431668829 8.8835776022077475 3.1782344038264427 0.80901700255871778 0 0.5877852410284794 0.2938926205142397 0 -0.40450850127935889 1 I I #
point $-1 39.979453767671188 8.8835776022077475 3.7545130342909916 #
edge $-1 $567 1 $567 0 $332 $-1 forward 7 unknown #
vertex $-1 $333 $568 #
ellipse-curve $-1 38.335623431668829 12.220266203904661 3.1782344038264427 0.80901700255871778 0 0.5877852410284794 0.2938926205142397 0 -0.40450850127935889 1 I I #
point $-1 39.979453767671188 12.220266203904661 3.7545130342909916 #
plane-surface $-1 42.58552812280648 0 0 -1 0 0 0 0 1 forward_v I I I I #
coedge $-1 $341 $339 $343 $484 reversed $221 $-1 #
edge $-1 $354 -8.1504837676844346 $486 8.1504837676844346 $353 $569 forward 7 unknown #
vertex $-1 $484 $570 #
straight-curve $-1 -42.58552812280648 -28.060025175800444 0 0 0 -1 I I #
edge $-1 $482 -28.060025175800444 $486 28.060025175800444 $480 $571 forward 7 unknown #
straight-curve $-1 0 -28.060025175800444 -8.1504837676844346 -1 0 0 I I #
vertex $-1 $346 $572 #
straight-curve $-1 0 28.060025175800444 -8.1504837676844346 1 0 0 I I #
point $-1 42.58552812280648 28.060025175800444 -8.1504837676844346 #
point $-1 42.58552812280648 -28.060025175800444 -8.1504837676844346 #
straight-curve $-1 -42.58552812280648 0 8.1504837676844346 0 -1 0 I I #
point $-1 -42.58552812280648 28.060025175800444 8.1504837676844346 #
point $-1 -42.58552812280648 -28.060025175800444 8.1504837676844346 #
straight-curve $-1 42.58552812280648 -28.060025175800444 0 0 0 -1 I I #
straight-curve $-1 42.58552812280648 28.060025175800444 0 0 0 -1 I I #
plane-surface $-1 42.58552812280648 0 0 -1 0 0 0 0 1 forward_v I I I I #
coedge $-1 $507 $498 $497 $573 forward $364 $-1 #
coedge $-1 $367 $366 $496 $573 reversed $146 $-1 #
coedge $-1 $496 $574 $368 $499 reversed $364 $-1 #
edge $-1 $500 -42.58552812280648 $503 42.58552812280648 $498 $575 forward 7 unknown #
vertex $-1 $369 $576 #
straight-curve $-1 -42.58552812280648 0 8.1504837676844346 0 -1 0 I I #
coedge $-1 $376 $370 $574 $577 forward $377 $-1 #
vertex $-1 $371 $578 #
straight-curve $-1 42.58552812280648 0 8.1504837676844346 0 1 0 I I #
point $-1 42.58552812280648 -28.060025175800444 8.1504837676844346 #
point $-1 -42.58552812280648 -28.060025175800444 8.1504837676844346 #
coedge $-1 $574 $496 $379 $508 reversed $364 $-1 #
edge $-1 $509 -42.58552812280648 $511 42.58552812280648 $507 $579 forward 7 unknown #
vertex $-1 $577 $580 #
straight-curve $-1 42.58552812280648 -31.976928733059296 5.0182921816547115 0 -1 0 I I #
vertex $-1 $381 $581 #
straight-curve $-1 -42.58552812280648 -31.976928733059296 5.0182921816547115 0 1 0 I I #
plane-surface $-1 -42.58552812280648 0 0 1 0 0 0 0 -1 forward_v I I I I #
coedge $-1 $582 $387 $388 $517 reversed $256 $-1 #
coedge $-1 $387 $582 $520 $583 reversed $256 $-1 #
edge $-1 $521 -1.5660957930148616 $518 1.5660957930148616 $390 $584 forward 7 unknown #
edge $-1 $529 -42.58552812280648 $518 42.58552812280648 $514 $585 forward 7 unknown #
vertex $-1 $389 $586 #
straight-curve $-1 42.58552812280648 31.9769287330593 5.0182921816547115 0 -1 0 I I #
coedge $-1 $524 $391 $515 $583 forward $385 $-1 #
vertex $-1 $392 $587 #
straight-curve $-1 42.58552812280648 0 8.1504837676844346 0 1 0 I I #
point $-1 42.58552812280648 28.060025175800444 8.1504837676844346 #
coedge $-1 $395 $520 $397 $527 forward $385 $-1 #
straight-curve $-1 0 28.060025175800444 8.1504837676844346 1 0 0 I I #
coedge $-1 $398 $397 $582 $588 forward $399 $-1 #
edge $-1 $589 -35.893832290318151 $400 -28.060025175800444 $397 $590 forward 7 unknown #
point $-1 -42.58552812280648 28.060025175800444 8.1504837676844346 #
vertex $-1 $517 $591 #
straight-curve $-1 -42.58552812280648 31.9769287330593 5.0182921816547115 0 1 0 I I #
edge $-1 $532 25.866813476795194 $535 32.173044610846986 $406 $592 forward 7 unknown #
vertex $-1 $420 $593 #
straight-curve $-1 -48.092705605501635 -10.17655196422535 8.1504837676844346 -1 0 0 I I #
edge $-1 $535 3.4750345128437026 $417 9.9280003899195925 $416 $594 forward 7 unknown #
vertex $-1 $534 $595 #
straight-curve $-1 -42.585528122806473 -10.17655196422535 1.8442526336326495 0.77714595512881146 0 0.62932039886446345 I I #
point $-1 -34.797981387028059 -10.17655196422535 8.1504837676844346 #
point $-1 -42.58552812280648 -16.62951784130124 1.8442526336326437 #
straight-curve $-1 -42.58552812280648 0 8.1504837676844346 0 -1 0 I I #
vertex $-1 $423 $596 #
point $-1 -34.589229701097217 -13.403034902763295 2.3146953452463541 #
coedge $-1 $438 $437 $430 $543 forward $427 $-1 #
edge $-1 $544 51.416857110325473 $547 59.399781574553664 $542 $597 forward 7 unknown #
vertex $-1 $442 $598 #
straight-curve $-1 30.714035463707212 -14.444725271702609 8.1504837676844346 1 0 0 I I #
edge $-1 $547 -9.1687643201745068 $439 -1.3831575828816964 $438 $599 forward 7 unknown #
vertex $-1 $546 $600 #
straight-curve $-1 -7.476761701171327 -14.444725271702609 69.072391932042024 -0.5877852410284794 0 0.80901700255871778 I I #
point $-1 36.785594171507412 -14.444725271702609 8.1504837676844346 #
point $-1 42.58552812280648 -6.6591185344097985 0.16755930345624392 #
straight-curve $-1 42.58552812280648 0 8.1504837676844346 0 1 0 I I #
vertex $-1 $445 $601 #
point $-1 38.629516052183071 -12.220266203904664 2.773725902547084 #
vertex $-1 $449 $602 #
point $-1 38.629516052183071 -8.8835776022077475 2.773725902547084 #
edge $-1 $557 51.416857110325473 $560 59.399781574553664 $454 $603 forward 7 unknown #
vertex $-1 $468 $604 #
straight-curve $-1 30.714035463707212 6.6591185344098021 8.1504837676844346 1 0 0 I I #
edge $-1 $560 1.3831575828816982 $465 9.1687643201745086 $464 $605 forward 7 unknown #
vertex $-1 $559 $606 #
straight-curve $-1 -7.476761701171327 6.6591185344098021 69.072391932042024 -0.5877852410284794 0 0.80901700255871778 I I #
point $-1 36.785594171507412 6.6591185344098021 8.1504837676844346 #
point $-1 42.58552812280648 14.444725271702612 0.16755930345624392 #
straight-curve $-1 42.58552812280648 0 8.1504837676844346 0 1 0 I I #
vertex $-1 $471 $607 #
point $-1 38.629516052183071 8.8835776022077475 2.773725902547084 #
vertex $-1 $475 $608 #
point $-1 38.629516052183071 12.220266203904661 2.773725902547084 #
straight-curve $-1 -42.58552812280648 28.060025175800444 0 0 0 -1 I I #
point $-1 -42.58552812280648 -28.060025175800444 -8.1504837676844346 #
straight-curve $-1 -42.58552812280648 0 -8.1504837676844346 0 1 0 I I #
point $-1 -42.58552812280648 28.060025175800444 -8.1504837676844346 #
edge $-1 $500 -1.5660957930148616 $511 1.5660957930148616 $497 $609 forward 7 unknown #
coedge $-1 $498 $507 $502 $577 reversed $364 $-1 #
straight-curve $-1 0 -35.893832290318144 8.1504837676844346 1 0 0 I I #
point $-1 -42.58552812280648 -35.893832290318144 8.1504837676844346 #
edge $-1 $503 -1.5660957930148616 $509 1.5660957930148616 $502 $610 forward 7 unknown #
point $-1 42.58552812280648 -35.893832290318144 8.1504837676844346 #
straight-curve $-1 0 -35.893832290318144 5.0182921816547115 -1 0 0 I I #
point $-1 42.58552812280648 -35.893832290318144 5.0182921816547115 #
point $-1 -42.58552812280648 -35.893832290318144 5.0182921816547115 #
coedge $-1 $515 $514 $526 $588 reversed $256 $-1 #
edge $-1 $521 -42.58552812280648 $589 42.58552812280648 $515 $611 forward 7 unknown #
straight-curve $-1 42.58552812280648 35.893832290318151 6.584387974669573 0 0 -1 I I #
straight-curve $-1 0 35.893832290318151 5.0182921816547115 1 0 0 I I #
point $-1 42.58552812280648 35.893832290318151 5.0182921816547115 #
point $-1 42.58552812280648 35.893832290318151 8.1504837676844346 #
edge $-1 $589 -1.5660957930148616 $529 1.5660957930148616 $582 $612 forward 7 unknown #
vertex $-1 $583 $613 #
straight-curve $-1 -42.58552812280648 0 8.1504837676844346 0 -1 0 I I #
point $-1 -42.58552812280648 35.893832290318151 5.0182921816547115 #
straight-curve $-1 -42.58552812280648 -10.17655196422535 34.017297244479629 0 0 -1 I I #
point $-1 -42.58552812280648 -10.17655196422535 8.1504837676844346 #
straight-curve $-1 -42.58552812280648 -6.7015174513816476 1.8442526336326464 0 -1 0 I I #
point $-1 -42.58552812280648 -10.17655196422535 1.8442526336326437 #
point $-1 -34.810968035493744 -13.403034902763295 0.20499581425644198 #
straight-curve $-1 42.58552812280648 -14.444725271702609 59.567340878009908 0 0 -1 I I #
point $-1 42.58552812280648 -14.444725271702609 8.1504837676844346 #
straight-curve $-1 42.58552812280648 -5.2759609515281021 0.16755930345624392 0 1 0 I I #
point $-1 42.58552812280648 -14.444725271702609 0.16755930345624392 #
point $-1 37.931114930389477 -12.220266203904664 2.8843417833122031 #
point $-1 37.931114930389477 -8.8835776022077475 2.8843417833122031 #
straight-curve $-1 42.58552812280648 6.6591185344098021 59.567340878009908 0 0 -1 I I #
point $-1 42.58552812280648 6.6591185344098021 8.1504837676844346 #
straight-curve $-1 42.58552812280648 5.2759609515281038 0.16755930345624392 0 1 0 I I #
point $-1 42.58552812280648 6.6591185344098021 0.16755930345624392 #
point $-1 37.931114930389477 8.8835776022077475 2.8843417833122031 #
point $-1 37.931114930389477 12.220266203904661 2.8843417833122031 #
straight-curve $-1 -42.58552812280648 -35.893832290318144 6.584387974669573 0 0 -1 I I #
straight-curve $-1 42.58552812280648 -35.893832290318144 6.584387974669573 0 0 -1 I I #
straight-curve $-1 0 35.893832290318151 8.1504837676844346 -1 0 0 I I #
straight-curve $-1 -42.58552812280648 35.893832290318151 6.584387974669573 0 0 -1 I I #
point $-1 -42.58552812280648 35.893832290318151 8.1504837676844346 #
End-of-ACIS-data 