500 0 9 0           
7 Unknown 11 ACIS 5.0 NT 24 Fri Mar 26 01:40:45 1999 
-1 9.9999999999999995e-007 1e-010 
body $-1 $9 $-1 $10 #
body $-1 $11 $-1 $12 #
body $-1 $13 $-1 $14 #
body $-1 $15 $-1 $16 #
body $-1 $17 $-1 $18 #
body $-1 $19 $-1 $20 #
body $-1 $21 $-1 $22 #
body $-1 $23 $-1 $24 #
body $-1 $25 $-1 $26 #
lump $-1 $-1 $27 $0 #
transform $-1 1 0 0 0 1 0 0 0 1 68.643452253791921 46.801020693863897 11.190281589105366 1 rotate no_reflect no_shear #
lump $-1 $-1 $28 $1 #
transform $-1 1 0 0 0 1 0 0 0 1 68.643452253791921 46.801020693863897 11.190281589105366 1 rotate no_reflect no_shear #
lump $-1 $-1 $29 $2 #
transform $-1 1 0 0 0 1 0 0 0 1 68.643452253791921 46.801020693863897 11.190281589105366 1 rotate no_reflect no_shear #
lump $-1 $-1 $30 $3 #
transform $-1 1 0 0 0 1 0 0 0 1 68.643452253791921 46.801020693863897 11.190281589105366 1 rotate no_reflect no_shear #
lump $-1 $-1 $31 $4 #
transform $-1 1 0 0 0 1 0 0 0 1 68.643452253791921 46.801020693863897 11.190281589105366 1 rotate no_reflect no_shear #
lump $-1 $-1 $32 $5 #
transform $-1 1 0 0 0 1 0 0 0 1 68.643452253791921 46.801020693863897 11.190281589105366 1 rotate no_reflect no_shear #
lump $-1 $-1 $33 $6 #
transform $-1 1 0 0 0 1 0 0 0 1 68.643452253791921 46.801020693863897 11.190281589105366 1 rotate no_reflect no_shear #
lump $-1 $-1 $34 $7 #
transform $-1 1 0 0 0 1 0 0 0 1 68.643452253791921 46.801020693863897 11.190281589105366 1 rotate no_reflect no_shear #
lump $-1 $-1 $35 $8 #
transform $-1 1 0 0 0 1 0 0 0 1 68.643452253791921 46.801020693863897 11.190281589105366 1 rotate no_reflect no_shear #
shell $-1 $-1 $-1 $36 $-1 $9 #
shell $-1 $-1 $-1 $37 $-1 $11 #
shell $-1 $-1 $-1 $38 $-1 $13 #
shell $-1 $-1 $-1 $39 $-1 $15 #
shell $-1 $-1 $-1 $40 $-1 $17 #
shell $-1 $-1 $-1 $41 $-1 $19 #
shell $-1 $-1 $-1 $42 $-1 $21 #
shell $-1 $-1 $-1 $43 $-1 $23 #
shell $-1 $-1 $-1 $44 $-1 $25 #
face $-1 $45 $46 $27 $-1 $47 forward single #
face $-1 $48 $49 $28 $-1 $50 reversed single #
face $-1 $51 $52 $29 $-1 $53 reversed single #
face $-1 $54 $55 $30 $-1 $56 forward single #
face $-1 $57 $58 $31 $-1 $59 forward single #
face $-1 $60 $61 $32 $-1 $62 forward single #
face $-1 $63 $64 $33 $-1 $65 reversed single #
face $-1 $66 $67 $34 $-1 $68 forward single #
face $-1 $69 $70 $35 $-1 $71 forward single #
face $-1 $72 $73 $27 $-1 $74 reversed single #
loop $-1 $-1 $75 $36 #
plane-surface $-1 0 0 11.190281589105366 0 0 1 1 0 0 forward_v I I I I #
face $-1 $76 $77 $28 $-1 $78 reversed single #
loop $-1 $-1 $79 $37 #
plane-surface $-1 -54.526752670394139 -41.633454729243027 0 1 0 0 0 0 -1 forward_v I I I I #
face $-1 $80 $81 $29 $-1 $82 reversed single #
loop $-1 $-1 $83 $38 #
plane-surface $-1 99.015675973038341 4.0840568312442933 192.48277712303073 0 -1 0 -0.80901700255871778 0 -0.5877852410284794 forward_v I I I I #
face $-1 $84 $85 $30 $-1 $86 forward single #
loop $-1 $87 $88 $39 #
cone-surface $-1 62.904143466013579 -8.0865784263043068 4.5487599737634472 -0.80901700255871778 0 -0.5877852410284794 0.8816778615427191 0 -1.2135255038380768 1 I I 0 1 1.5 forward I I I I #
face $-1 $89 $90 $31 $-1 $91 forward single #
loop $-1 $92 $93 $40 #
cone-surface $-1 62.904143466013579 -3.5225902047235849 4.5487599737634472 -0.80901700255871778 0 -0.5877852410284794 0.8816778615427191 0 -1.2135255038380768 1 I I 0 1 1.5 forward I I I I #
face $-1 $94 $95 $32 $-1 $96 forward single #
loop $-1 $97 $98 $41 #
cone-surface $-1 62.904143466013579 1.0413980168571371 4.5487599737634472 -0.80901700255871778 0 -0.5877852410284794 0.8816778615427191 0 -1.2135255038380768 1 I I 0 1 1.5 forward I I I I #
face $-1 $99 $100 $33 $-1 $101 reversed single #
loop $-1 $-1 $102 $42 #
plane-surface $-1 -173.81132370247951 26.864177584743366 90.117484358452245 0 1 0 -0.7660444514056185 0 0.64278759981090561 forward_v I I I I #
face $-1 $103 $104 $34 $-1 $105 forward single #
loop $-1 $106 $107 $43 #
cone-surface $-1 -63.010474376041266 32.560418473063514 5.084833487184258 0.7660444514056185 0 -0.64278759981090561 0.96418139971635841 0 1.1490666771084277 1 I I 0 1 1.5 forward I I I I #
face $-1 $108 $109 $35 $-1 $110 forward single #
loop $-1 $111 $112 $44 #
cone-surface $-1 -63.010474376041266 41.104779805543735 5.084833487184258 0.7660444514056185 0 -0.64278759981090561 0.96418139971635841 0 1.1490666771084277 1 I I 0 1 1.5 forward I I I I #
face $-1 $113 $114 $27 $-1 $115 reversed single #
loop $-1 $-1 $116 $45 #
plane-surface $-1 0 0 -11.190281589105366 0 0 1 1 0 0 forward_v I I I I #
coedge $-1 $117 $118 $119 $120 forward $46 $-1 #
face $-1 $121 $122 $28 $-1 $123 reversed single #
loop $-1 $-1 $124 $48 #
plane-surface $-1 -52.966356063784403 -36.465888764622157 0 0 -1 0 0 0 -1 forward_v I I I I #
coedge $-1 $125 $126 $127 $128 forward $49 $-1 #
face $-1 $129 $130 $29 $-1 $131 reversed single #
loop $-1 $-1 $132 $51 #
plane-surface $-1 -12.051764002252057 -3.5225902047235778 111.78756086698672 0.80901700255871778 0 0.5877852410284794 0.5877852410284794 0 -0.80901700255871778 forward_v I I I I #
coedge $-1 $133 $134 $135 $136 reversed $52 $-1 #
face $-1 $-1 $137 $30 $-1 $138 forward single #
loop $-1 $139 $140 $54 #
cone-surface $-1 60.361580325811687 -8.0865784263043068 2.701479776354704 -0.80901700255871778 0 -0.5877852410284794 0.44083893077135955 0 -0.60676275191903839 1 I I -0.70710678118654757 0.70710678118654757 0.75 forward I I I I #
loop $-1 $-1 $141 $39 #
coedge $-1 $88 $88 $142 $143 reversed $55 $-1 #
face $-1 $-1 $144 $31 $-1 $145 forward single #
loop $-1 $146 $147 $57 #
cone-surface $-1 60.361580325811687 -3.5225902047235849 2.701479776354704 -0.80901700255871778 0 -0.5877852410284794 0.44083893077135955 0 -0.60676275191903839 1 I I -0.70710678118654757 0.70710678118654757 0.75 forward I I I I #
loop $-1 $-1 $148 $40 #
coedge $-1 $93 $93 $149 $150 reversed $58 $-1 #
face $-1 $-1 $151 $32 $-1 $152 forward single #
loop $-1 $153 $154 $60 #
cone-surface $-1 60.361580325811687 1.0413980168571371 2.701479776354704 -0.80901700255871778 0 -0.5877852410284794 0.44083893077135955 0 -0.60676275191903839 1 I I -0.70710678118654757 0.70710678118654757 0.75 forward I I I I #
loop $-1 $-1 $155 $41 #
coedge $-1 $98 $98 $156 $157 reversed $61 $-1 #
face $-1 $158 $159 $33 $-1 $160 forward single #
loop $-1 $-1 $161 $63 #
plane-surface $-1 -68.643452253791921 36.832599139303632 1.8711645245534356 -0.7660444514056185 0 0.64278759981090561 0.64278759981090561 0 0.7660444514056185 forward_v I I I I #
coedge $-1 $162 $163 $164 $165 reversed $64 $-1 #
face $-1 $-1 $166 $34 $-1 $167 forward single #
loop $-1 $168 $169 $66 #
cone-surface $-1 -60.712796903253974 32.560418473063514 3.156853217680931 0.7660444514056185 0 -0.64278759981090561 0.48209069985817921 0 0.57453333855421385 1 I I -0.70710678118654757 0.70710678118654757 0.75 forward I I I I #
loop $-1 $-1 $170 $43 #
coedge $-1 $107 $107 $171 $172 reversed $67 $-1 #
face $-1 $-1 $173 $35 $-1 $174 forward single #
loop $-1 $175 $176 $69 #
cone-surface $-1 -60.712796903253974 41.104779805543735 3.156853217680931 0.7660444514056185 0 -0.64278759981090561 0.48209069985817921 0 0.57453333855421385 1 I I -0.70710678118654757 0.70710678118654757 0.75 forward I I I I #
loop $-1 $-1 $177 $44 #
coedge $-1 $112 $112 $178 $179 reversed $70 $-1 #
face $-1 $180 $181 $27 $-1 $182 reversed single #
loop $-1 $-1 $183 $72 #
plane-surface $-1 0 -46.801020693863897 0 0 1 0 0 0 1 forward_v I I I I #
coedge $-1 $184 $185 $186 $187 forward $73 $-1 #
coedge $-1 $188 $75 $189 $190 forward $46 $-1 #
coedge $-1 $75 $188 $191 $192 forward $46 $-1 #
coedge $-1 $193 $194 $75 $120 reversed $195 $-1 #
edge $-1 $196 -46.801020693863897 $197 46.801020693863897 $119 $198 forward 7 unknown #
face $-1 $199 $200 $28 $-1 $201 forward single #
loop $-1 $-1 $202 $76 #
plane-surface $-1 -51.405959457174667 -41.633454729243027 0 -1 0 0 0 0 1 forward_v I I I I #
coedge $-1 $203 $204 $205 $206 forward $77 $-1 #
coedge $-1 $207 $79 $208 $209 reversed $49 $-1 #
coedge $-1 $79 $207 $210 $211 reversed $49 $-1 #
coedge $-1 $204 $203 $79 $128 reversed $77 $-1 #
edge $-1 $212 -11.190281589105366 $213 11.190281589105366 $127 $214 forward 7 unknown #
face $-1 $215 $216 $29 $-1 $217 reversed single #
loop $-1 $-1 $218 $80 #
plane-surface $-1 99.015675973038341 -11.129237240691449 192.48277712303073 0 1 0 0.80901700255871778 0 0.5877852410284794 forward_v I I I I #
coedge $-1 $219 $220 $221 $222 reversed $81 $-1 #
coedge $-1 $134 $83 $223 $224 reversed $52 $-1 #
coedge $-1 $83 $133 $219 $225 reversed $52 $-1 #
coedge $-1 $221 $226 $83 $136 forward $227 $-1 #
edge $-1 $228 -19.13561426727275 $229 -11.528597468281795 $135 $230 forward 7 unknown #
loop $-1 $-1 $142 $84 #
plane-surface $-1 -12.051764002252057 -3.5225902047235778 111.78756086698672 0.80901700255871778 0 0.5877852410284794 0.5877852410284794 0 -0.80901700255871778 forward_v I I I I #
loop $-1 $-1 $231 $54 #
coedge $-1 $140 $140 $141 $232 reversed $85 $-1 #
coedge $-1 $141 $141 $140 $232 forward $87 $-1 #
coedge $-1 $142 $142 $88 $143 forward $137 $-1 #
edge $-1 $233 0 $233 6.2831853071796004 $142 $234 forward 7 unknown #
loop $-1 $-1 $149 $89 #
plane-surface $-1 -12.051764002252057 -3.5225902047235778 111.78756086698672 0.80901700255871778 0 0.5877852410284794 0.5877852410284794 0 -0.80901700255871778 forward_v I I I I #
loop $-1 $-1 $235 $57 #
coedge $-1 $147 $147 $148 $236 reversed $90 $-1 #
coedge $-1 $148 $148 $147 $236 forward $92 $-1 #
coedge $-1 $149 $149 $93 $150 forward $144 $-1 #
edge $-1 $237 0 $237 6.2831853071796004 $149 $238 forward 7 unknown #
loop $-1 $-1 $156 $94 #
plane-surface $-1 -12.051764002252057 -3.5225902047235778 111.78756086698672 0.80901700255871778 0 0.5877852410284794 0.5877852410284794 0 -0.80901700255871778 forward_v I I I I #
loop $-1 $-1 $239 $60 #
coedge $-1 $154 $154 $155 $240 reversed $95 $-1 #
coedge $-1 $155 $155 $154 $240 forward $97 $-1 #
coedge $-1 $156 $156 $98 $157 forward $151 $-1 #
edge $-1 $241 0 $241 6.2831853071796004 $156 $242 forward 7 unknown #
face $-1 $243 $244 $33 $-1 $245 reversed single #
loop $-1 $-1 $164 $99 #
plane-surface $-1 0 0 11.190281589105366 0 0 1 1 0 0 forward_v I I I I #
coedge $-1 $246 $247 $248 $249 reversed $100 $-1 #
coedge $-1 $163 $102 $250 $251 reversed $64 $-1 #
coedge $-1 $102 $162 $246 $252 reversed $64 $-1 #
coedge $-1 $248 $253 $102 $165 forward $159 $-1 #
edge $-1 $254 18.262209597447836 $255 26.081877084482983 $164 $256 forward 7 unknown #
loop $-1 $-1 $171 $103 #
plane-surface $-1 -68.643452253791921 36.832599139303632 1.8711645245534356 -0.7660444514056185 0 0.64278759981090561 0.64278759981090561 0 0.7660444514056185 forward_v I I I I #
loop $-1 $-1 $257 $66 #
coedge $-1 $169 $169 $170 $258 reversed $104 $-1 #
coedge $-1 $170 $170 $169 $258 forward $106 $-1 #
coedge $-1 $171 $171 $107 $172 forward $166 $-1 #
edge $-1 $259 0 $259 6.2831853071796004 $171 $260 forward 7 unknown #
loop $-1 $-1 $178 $108 #
plane-surface $-1 -68.643452253791921 36.832599139303632 1.8711645245534356 -0.7660444514056185 0 0.64278759981090561 0.64278759981090561 0 0.7660444514056185 forward_v I I I I #
loop $-1 $-1 $261 $69 #
coedge $-1 $176 $176 $177 $262 reversed $109 $-1 #
coedge $-1 $177 $177 $176 $262 forward $111 $-1 #
coedge $-1 $178 $178 $112 $179 forward $173 $-1 #
edge $-1 $263 0 $263 6.2831853071796004 $178 $264 forward 7 unknown #
face $-1 $265 $266 $27 $-1 $267 reversed single #
loop $-1 $-1 $268 $113 #
plane-surface $-1 -68.643452253791921 0 0 1 0 0 0 0 -1 forward_v I I I I #
coedge $-1 $269 $191 $270 $271 forward $114 $-1 #
coedge $-1 $272 $116 $269 $273 forward $73 $-1 #
coedge $-1 $116 $272 $274 $275 forward $73 $-1 #
coedge $-1 $194 $193 $116 $187 reversed $195 $-1 #
edge $-1 $276 -46.801020693863897 $277 46.801020693863897 $186 $278 forward 7 unknown #
coedge $-1 $118 $117 $279 $280 forward $46 $-1 #
coedge $-1 $281 $282 $117 $190 reversed $266 $-1 #
edge $-1 $197 -68.643452253791921 $283 68.643452253791921 $189 $284 forward 7 unknown #
coedge $-1 $183 $285 $118 $192 reversed $114 $-1 #
edge $-1 $286 -68.643452253791921 $196 68.643452253791921 $191 $287 forward 7 unknown #
coedge $-1 $186 $119 $285 $288 forward $195 $-1 #
coedge $-1 $119 $186 $281 $289 reversed $195 $-1 #
loop $-1 $-1 $193 $265 #
vertex $-1 $120 $290 #
vertex $-1 $120 $291 #
straight-curve $-1 68.643452253791921 0 11.190281589105366 0 1 0 I I #
face $-1 $292 $293 $28 $-1 $294 reversed single #
loop $-1 $-1 $295 $121 #
plane-surface $-1 0 0 11.190281589105366 0 0 1 1 0 0 forward_v I I I I #
coedge $-1 $296 $297 $298 $299 reversed $122 $-1 #
coedge $-1 $127 $124 $300 $301 reversed $77 $-1 #
coedge $-1 $124 $127 $302 $303 reversed $77 $-1 #
coedge $-1 $297 $296 $124 $206 reversed $122 $-1 #
edge $-1 $304 -11.190281589105366 $305 11.190281589105366 $205 $306 forward 7 unknown #
coedge $-1 $126 $125 $307 $308 reversed $49 $-1 #
coedge $-1 $300 $309 $125 $209 forward $293 $-1 #
edge $-1 $310 -25.984293329242384 $213 -15.649161400000644 $208 $311 forward 7 unknown #
coedge $-1 $312 $302 $126 $211 forward $200 $-1 #
edge $-1 $212 15.649161400000644 $313 25.984293329242384 $210 $314 forward 7 unknown #
vertex $-1 $211 $315 #
vertex $-1 $209 $316 #
straight-curve $-1 -54.526752670394139 -36.465888764622157 0 0 0 -1 I I #
face $-1 $-1 $227 $29 $-1 $317 forward single #
loop $-1 $-1 $318 $129 #
plane-surface $-1 68.643452253791921 0 0 -1 0 0 0 0 1 forward_v I I I I #
coedge $-1 $319 $320 $321 $322 reversed $130 $-1 #
coedge $-1 $323 $132 $134 $225 forward $81 $-1 #
coedge $-1 $132 $323 $319 $324 forward $81 $-1 #
coedge $-1 $321 $135 $132 $222 forward $227 $-1 #
edge $-1 $229 -5.8453519336060822 $325 9.3679421383296599 $221 $326 forward 7 unknown #
coedge $-1 $327 $328 $133 $224 forward $216 $-1 #
edge $-1 $329 -95.521267669818997 $228 -85.051106972409997 $223 $330 forward 7 unknown #
edge $-1 $229 124.34507428115528 $329 137.28690450758378 $134 $331 forward 7 unknown #
coedge $-1 $135 $321 $327 $332 forward $227 $-1 #
loop $-1 $-1 $321 $215 #
vertex $-1 $224 $333 #
vertex $-1 $136 $334 #
straight-curve $-1 49.507837986519171 4.0840568312442933 11.190281589105368 -1 0 0 I I #
coedge $-1 $231 $231 $-1 $335 reversed $139 $-1 #
edge $-1 $336 0 $336 6.2831853071796004 $140 $337 forward 7 unknown #
vertex $-1 $143 $338 #
ellipse-curve $-1 64.83994385429645 -8.0865784263043068 5.9552012404008456 0.80901700255871778 0 0.5877852410284794 0.8816778615427191 0 -1.2135255038380768 1 I I #
coedge $-1 $235 $235 $-1 $339 reversed $146 $-1 #
edge $-1 $340 0 $340 6.2831853071796004 $147 $341 forward 7 unknown #
vertex $-1 $150 $342 #
ellipse-curve $-1 64.83994385429645 -3.5225902047235849 5.9552012404008456 0.80901700255871778 0 0.5877852410284794 0.8816778615427191 0 -1.2135255038380768 1 I I #
coedge $-1 $239 $239 $-1 $343 reversed $153 $-1 #
edge $-1 $344 0 $344 6.2831853071796004 $154 $345 forward 7 unknown #
vertex $-1 $157 $346 #
ellipse-curve $-1 64.83994385429645 1.0413980168571371 5.9552012404008456 0.80901700255871778 0 0.5877852410284794 0.8816778615427191 0 -1.2135255038380768 1 I I #
face $-1 $-1 $347 $33 $-1 $348 reversed single #
loop $-1 $-1 $349 $158 #
plane-surface $-1 0 46.801020693863897 0 0 -1 0 0 0 -1 forward_v I I I I #
coedge $-1 $350 $161 $163 $252 forward $100 $-1 #
coedge $-1 $161 $350 $349 $351 reversed $100 $-1 #
coedge $-1 $352 $164 $161 $249 forward $159 $-1 #
edge $-1 $255 8.4478780150915505 $353 28.384721124212081 $248 $354 forward 7 unknown #
coedge $-1 $355 $356 $162 $251 forward $347 $-1 #
edge $-1 $357 -43.187577654672687 $254 -33.868460590120755 $250 $358 forward 7 unknown #
edge $-1 $255 -12.165243214610124 $357 0 $163 $359 forward 7 unknown #
coedge $-1 $164 $352 $355 $360 forward $159 $-1 #
vertex $-1 $251 $361 #
vertex $-1 $165 $362 #
straight-curve $-1 -86.905661851239756 26.864177584743366 11.190281589105368 1 0 0 I I #
coedge $-1 $257 $257 $-1 $363 reversed $168 $-1 #
edge $-1 $364 0 $364 6.2831853071796004 $169 $365 forward 7 unknown #
vertex $-1 $172 $366 #
ellipse-curve $-1 -64.73361851027434 32.560418473063514 6.5307230568294052 -0.7660444514056185 0 0.64278759981090561 0.96418139971635841 0 1.1490666771084277 1 I I #
coedge $-1 $261 $261 $-1 $367 reversed $175 $-1 #
edge $-1 $368 0 $368 6.2831853071796004 $176 $369 forward 7 unknown #
vertex $-1 $179 $370 #
ellipse-curve $-1 -64.73361851027434 41.104779805543735 6.5307230568294052 -0.7660444514056185 0 0.64278759981090561 0.96418139971635841 0 1.1490666771084277 1 I I #
face $-1 $-1 $195 $27 $-1 $371 reversed single #
loop $-1 $-1 $281 $180 #
plane-surface $-1 0 46.801020693863897 0 0 -1 0 0 0 -1 forward_v I I I I #
coedge $-1 $372 $279 $282 $373 forward $181 $-1 #
coedge $-1 $285 $183 $184 $273 reversed $114 $-1 #
coedge $-1 $279 $372 $183 $271 reversed $181 $-1 #
edge $-1 $286 -11.190281589105366 $374 11.190281589105366 $270 $375 forward 7 unknown #
coedge $-1 $185 $184 $372 $376 forward $73 $-1 #
edge $-1 $277 -68.643452253791921 $374 68.643452253791921 $269 $377 forward 7 unknown #
coedge $-1 $282 $281 $185 $275 reversed $266 $-1 #
edge $-1 $378 -68.643452253791921 $276 68.643452253791921 $274 $379 forward 7 unknown #
vertex $-1 $187 $380 #
vertex $-1 $288 $381 #
straight-curve $-1 68.643452253791921 0 -11.190281589105366 0 -1 0 I I #
coedge $-1 $268 $270 $188 $280 reversed $181 $-1 #
edge $-1 $283 -46.801020693863897 $286 46.801020693863897 $279 $382 forward 7 unknown #
coedge $-1 $274 $189 $194 $289 forward $266 $-1 #
coedge $-1 $189 $274 $268 $373 reversed $266 $-1 #
vertex $-1 $190 $383 #
straight-curve $-1 0 46.801020693863897 11.190281589105366 -1 0 0 I I #
coedge $-1 $191 $269 $193 $288 reversed $114 $-1 #
vertex $-1 $280 $384 #
straight-curve $-1 0 -46.801020693863897 11.190281589105366 1 0 0 I I #
edge $-1 $196 -11.190281589105366 $277 11.190281589105366 $193 $385 forward 7 unknown #
edge $-1 $197 -11.190281589105366 $276 11.190281589105366 $194 $386 forward 7 unknown #
point $-1 68.643452253791921 -46.801020693863897 11.190281589105366 #
point $-1 68.643452253791921 46.801020693863897 11.190281589105366 #
face $-1 $-1 $387 $28 $-1 $388 reversed single #
loop $-1 $-1 $389 $199 #
plane-surface $-1 0 0 -11.190281589105366 0 0 1 1 0 0 forward_v I I I I #
coedge $-1 $302 $312 $297 $390 forward $200 $-1 #
coedge $-1 $205 $202 $389 $391 reversed $122 $-1 #
coedge $-1 $202 $205 $295 $390 reversed $122 $-1 #
coedge $-1 $392 $393 $202 $299 forward $387 $-1 #
edge $-1 $394 -11.190281589105366 $395 11.190281589105366 $298 $396 forward 7 unknown #
coedge $-1 $389 $208 $203 $301 forward $293 $-1 #
edge $-1 $213 -28.043574638501937 $305 -24.922781425282466 $300 $397 forward 7 unknown #
coedge $-1 $210 $295 $204 $303 forward $200 $-1 #
edge $-1 $304 24.922781425282466 $212 28.043574638501937 $302 $398 forward 7 unknown #
vertex $-1 $303 $399 #
vertex $-1 $301 $400 #
straight-curve $-1 -51.405959457174667 -36.465888764622157 0 0 0 -1 I I #
coedge $-1 $393 $392 $207 $308 forward $387 $-1 #
edge $-1 $313 -11.190281589105366 $310 11.190281589105366 $307 $401 forward 7 unknown #
coedge $-1 $208 $389 $393 $402 forward $293 $-1 #
vertex $-1 $209 $403 #
straight-curve $-1 -54.526752670394139 -20.816727364621514 -11.190281589105366 0 1 0 I I #
coedge $-1 $295 $210 $392 $404 forward $200 $-1 #
vertex $-1 $404 $405 #
straight-curve $-1 -54.526752670394139 -20.816727364621514 11.190281589105366 0 -1 0 I I #
point $-1 -54.526752670394139 -36.465888764622157 11.190281589105366 #
point $-1 -54.526752670394139 -36.465888764622157 -11.190281589105366 #
plane-surface $-1 0 0 11.190281589105366 0 0 1 1 0 0 forward_v I I I I #
coedge $-1 $328 $327 $320 $406 forward $216 $-1 #
coedge $-1 $320 $218 $220 $324 reversed $130 $-1 #
coedge $-1 $218 $319 $318 $406 reversed $130 $-1 #
coedge $-1 $226 $221 $218 $322 forward $227 $-1 #
edge $-1 $325 11.528597468281795 $407 19.13561426727275 $321 $408 forward 7 unknown #
coedge $-1 $220 $219 $328 $409 reversed $81 $-1 #
edge $-1 $410 -137.28690450758378 $325 -124.34507428115528 $319 $411 forward 7 unknown #
vertex $-1 $222 $412 #
straight-curve $-1 61.036435454800966 -1.7612951023617889 11.190281589105368 0 -1 0 I I #
coedge $-1 $318 $223 $226 $332 reversed $216 $-1 #
coedge $-1 $223 $318 $323 $409 forward $216 $-1 #
vertex $-1 $224 $413 #
straight-curve $-1 68.643452253791921 4.0840568312442933 96.241388561515365 0 0 1 I I #
straight-curve $-1 -12.051764002252057 4.0840568312442933 111.78756086698672 0.5877852410284794 0 -0.80901700255871778 I I #
edge $-1 $407 -11.129237240691449 $228 4.0840568312442933 $327 $414 forward 7 unknown #
point $-1 68.643452253791921 4.0840568312442933 11.190281589105366 #
point $-1 61.036435454800966 4.0840568312442933 11.190281589105368 #
edge $-1 $415 1 $415 0 $231 $-1 forward 7 unknown #
vertex $-1 $232 $416 #
ellipse-curve $-1 60.968343077730722 -8.0865784263043068 3.1423187071260634 0.80901700255871778 0 0.5877852410284794 0.8816778615427191 0 -1.2135255038380768 1 I I #
point $-1 65.721621715839163 -8.0865784263043068 4.7416757365627547 #
edge $-1 $417 1 $417 0 $235 $-1 forward 7 unknown #
vertex $-1 $236 $418 #
ellipse-curve $-1 60.968343077730722 -3.5225902047235849 3.1423187071260634 0.80901700255871778 0 0.5877852410284794 0.8816778615427191 0 -1.2135255038380768 1 I I #
point $-1 65.721621715839163 -3.5225902047235849 4.7416757365627547 #
edge $-1 $419 1 $419 0 $239 $-1 forward 7 unknown #
vertex $-1 $240 $420 #
ellipse-curve $-1 60.968343077730722 1.0413980168571371 3.1423187071260634 0.80901700255871778 0 0.5877852410284794 0.8816778615427191 0 -1.2135255038380768 1 I I #
point $-1 65.721621715839163 1.0413980168571371 4.7416757365627547 #
loop $-1 $-1 $250 $243 #
plane-surface $-1 -68.643452253791921 0 0 1 0 0 0 0 -1 forward_v I I I I #
coedge $-1 $421 $422 $247 $351 forward $244 $-1 #
coedge $-1 $247 $246 $356 $423 reversed $100 $-1 #
edge $-1 $353 9.1796391430139916 $424 21.344882357624112 $349 $425 forward 7 unknown #
coedge $-1 $253 $248 $422 $426 forward $159 $-1 #
vertex $-1 $426 $427 #
straight-curve $-1 -60.823784766756781 18.416299569651816 11.190281589105366 0 1 0 I I #
coedge $-1 $428 $250 $253 $360 reversed $347 $-1 #
coedge $-1 $250 $428 $350 $423 forward $347 $-1 #
vertex $-1 $251 $429 #
straight-curve $-1 -68.643452253791921 26.864177584743366 45.058742179226122 0 0 1 I I #
straight-curve $-1 -68.643452253791921 26.864177584743366 1.8711645245534356 -0.64278759981090561 0 -0.7660444514056185 I I #
edge $-1 $430 -46.801020693863897 $254 -26.864177584743366 $355 $431 forward 7 unknown #
point $-1 -68.643452253791921 26.864177584743366 11.190281589105366 #
point $-1 -60.823784766756773 26.864177584743366 11.190281589105366 #
edge $-1 $432 1 $432 0 $257 $-1 forward 7 unknown #
vertex $-1 $258 $433 #
ellipse-curve $-1 -61.287330241808185 32.560418473063514 3.6389439175391103 -0.7660444514056185 0 0.64278759981090561 0.96418139971635841 0 1.1490666771084277 1 I I #
point $-1 -63.769437110557988 32.560418473063514 7.6797897339378336 #
edge $-1 $434 1 $434 0 $261 $-1 forward 7 unknown #
vertex $-1 $262 $435 #
ellipse-curve $-1 -61.287330241808185 41.104779805543735 3.6389439175391103 -0.7660444514056185 0 0.64278759981090561 0.96418139971635841 0 1.1490666771084277 1 I I #
point $-1 -63.769437110557988 41.104779805543735 7.6797897339378336 #
plane-surface $-1 68.643452253791921 0 0 -1 0 0 0 0 1 forward_v I I I I #
coedge $-1 $270 $268 $272 $376 reversed $181 $-1 #
edge $-1 $283 -11.190281589105366 $378 11.190281589105366 $282 $436 forward 7 unknown #
vertex $-1 $376 $437 #
straight-curve $-1 -68.643452253791921 -46.801020693863897 0 0 0 -1 I I #
edge $-1 $374 -46.801020693863897 $378 46.801020693863897 $372 $438 forward 7 unknown #
straight-curve $-1 0 -46.801020693863897 -11.190281589105366 -1 0 0 I I #
vertex $-1 $275 $439 #
straight-curve $-1 0 46.801020693863897 -11.190281589105366 1 0 0 I I #
point $-1 68.643452253791921 46.801020693863897 -11.190281589105366 #
point $-1 68.643452253791921 -46.801020693863897 -11.190281589105366 #
straight-curve $-1 -68.643452253791921 0 11.190281589105366 0 -1 0 I I #
point $-1 -68.643452253791921 46.801020693863897 11.190281589105366 #
point $-1 -68.643452253791921 -46.801020693863897 11.190281589105366 #
straight-curve $-1 68.643452253791921 -46.801020693863897 0 0 0 -1 I I #
straight-curve $-1 68.643452253791921 46.801020693863897 0 0 0 -1 I I #
loop $-1 $-1 $298 $292 #
plane-surface $-1 0 -46.801020693863897 0 0 1 0 0 0 1 forward_v I I I I #
coedge $-1 $309 $300 $296 $391 forward $293 $-1 #
edge $-1 $395 -25.984293329242384 $304 -15.649161400000644 $295 $440 forward 7 unknown #
edge $-1 $305 15.649161400000644 $394 25.984293329242384 $389 $441 forward 7 unknown #
coedge $-1 $307 $298 $312 $404 reversed $387 $-1 #
coedge $-1 $298 $307 $309 $402 reversed $387 $-1 #
vertex $-1 $402 $442 #
vertex $-1 $299 $443 #
straight-curve $-1 -51.405959457174667 -46.801020693863897 0 0 0 1 I I #
straight-curve $-1 -26.483178031892201 -36.465888764622157 -11.190281589105366 1 0 0 I I #
straight-curve $-1 -26.483178031892201 -36.465888764622157 11.190281589105366 -1 0 0 I I #
point $-1 -51.405959457174667 -36.465888764622157 11.190281589105366 #
point $-1 -51.405959457174667 -36.465888764622157 -11.190281589105366 #
straight-curve $-1 -54.526752670394139 -46.801020693863897 0 0 0 -1 I I #
edge $-1 $394 51.405959457174667 $310 54.526752670394139 $393 $444 forward 7 unknown #
point $-1 -54.526752670394139 -46.801020693863897 -11.190281589105366 #
edge $-1 $313 -54.526752670394139 $395 -51.405959457174667 $392 $445 forward 7 unknown #
point $-1 -54.526752670394139 -46.801020693863897 11.190281589105366 #
edge $-1 $407 85.051106972409997 $410 95.521267669818997 $318 $446 forward 7 unknown #
vertex $-1 $332 $447 #
straight-curve $-1 49.507837986519171 -11.129237240691449 11.190281589105368 1 0 0 I I #
edge $-1 $410 -9.3679421383296599 $329 5.8453519336060822 $328 $448 forward 7 unknown #
vertex $-1 $409 $449 #
straight-curve $-1 -12.051764002252057 -11.129237240691449 111.78756086698672 -0.5877852410284794 0 0.80901700255871778 I I #
point $-1 61.036435454800966 -11.129237240691449 11.190281589105368 #
point $-1 68.643452253791907 4.0840568312442933 0.72012089169636795 #
straight-curve $-1 68.643452253791921 0 11.190281589105366 0 1 0 I I #
vertex $-1 $335 $450 #
point $-1 61.850020939273442 -8.0865784263043068 1.9287932032879869 #
vertex $-1 $339 $451 #
point $-1 61.850020939273442 -3.5225902047235849 1.9287932032879869 #
vertex $-1 $343 $452 #
point $-1 61.850020939273442 1.0413980168571371 1.9287932032879869 #
coedge $-1 $422 $349 $428 $453 reversed $244 $-1 #
coedge $-1 $349 $421 $352 $426 reversed $244 $-1 #
edge $-1 $424 -28.384721124212081 $357 -8.4478780150915505 $356 $454 forward 7 unknown #
vertex $-1 $351 $455 #
straight-curve $-1 -54.923226554888572 46.801020693863897 18.222293220517059 -0.64278759981090572 0 -0.76604445140561861 I I #
edge $-1 $353 60.823784766756773 $430 68.643452253791921 $422 $456 forward 7 unknown #
point $-1 -60.823784766756773 46.801020693863897 11.190281589105366 #
coedge $-1 $356 $355 $421 $453 forward $347 $-1 #
point $-1 -68.643452253791921 26.864177584743366 1.8711645245534356 #
vertex $-1 $426 $457 #
straight-curve $-1 -68.643452253791921 0 11.190281589105366 0 -1 0 I I #
vertex $-1 $363 $458 #
point $-1 -60.323148842091832 32.560418473063514 4.7880105946475382 #
vertex $-1 $367 $459 #
point $-1 -60.323148842091832 41.104779805543735 4.7880105946475382 #
straight-curve $-1 -68.643452253791921 46.801020693863897 0 0 0 -1 I I #
point $-1 -68.643452253791921 -46.801020693863897 -11.190281589105366 #
straight-curve $-1 -68.643452253791921 0 -11.190281589105366 0 1 0 I I #
point $-1 -68.643452253791921 46.801020693863897 -11.190281589105366 #
straight-curve $-1 -51.405959457174667 -20.816727364621514 11.190281589105366 0 1 0 I I #
straight-curve $-1 -51.405959457174667 -20.816727364621514 -11.190281589105366 0 -1 0 I I #
point $-1 -51.405959457174667 -46.801020693863897 -11.190281589105366 #
point $-1 -51.405959457174667 -46.801020693863897 11.190281589105366 #
straight-curve $-1 0 -46.801020693863897 -11.190281589105366 -1 0 0 I I #
straight-curve $-1 0 -46.801020693863897 11.190281589105366 1 0 0 I I #
straight-curve $-1 68.643452253791921 -11.129237240691449 96.241388561515365 0 0 -1 I I #
point $-1 68.643452253791921 -11.129237240691449 11.190281589105366 #
straight-curve $-1 68.643452253791921 -1.7612951023617889 0.72012089169635374 0 1 0 I I #
point $-1 68.643452253791907 -11.129237240691449 0.72012089169636795 #
point $-1 59.754817573892652 -8.0865784263043068 2.2606408455833447 #
point $-1 59.754817573892652 -3.5225902047235849 2.2606408455833447 #
point $-1 59.754817573892652 1.0413980168571371 2.2606408455833447 #
edge $-1 $430 -11.190281589105366 $424 -1.8711645245534356 $421 $460 forward 7 unknown #
straight-curve $-1 -68.643452253791921 18.416299569651816 1.8711645245534334 0 -1 0 I I #
point $-1 -68.643452253791921 46.801020693863897 1.8711645245534356 #
straight-curve $-1 0 46.801020693863897 11.190281589105366 -1 0 0 I I #
point $-1 -68.643452253791921 46.801020693863897 11.190281589105366 #
point $-1 -60.138263564699763 32.560418473063514 2.6747625178227517 #
point $-1 -60.138263564699763 41.104779805543735 2.6747625178227517 #
straight-curve $-1 -68.643452253791921 46.801020693863897 0 0 0 -1 I I #
End-of-ACIS-data 