500 0 5 0           
7 Unknown 11 ACIS 5.0 NT 24 Fri Mar 26 19:44:47 1999 
-1 9.9999999999999995e-007 1e-010 
body $-1 $5 $-1 $6 #
body $-1 $7 $-1 $8 #
body $-1 $9 $-1 $10 #
body $-1 $11 $-1 $12 #
body $-1 $13 $-1 $14 #
lump $-1 $-1 $15 $0 #
transform $-1 1 0 0 0 1 0 0 0 1 56.266365550706503 30.828274200623611 7.1984072004269946 1 rotate no_reflect no_shear #
lump $-1 $-1 $16 $1 #
transform $-1 1 0 0 0 1 0 0 0 1 56.266365550706503 30.828274200623611 7.1984072004269946 1 rotate no_reflect no_shear #
lump $-1 $-1 $17 $2 #
transform $-1 1 0 0 0 1 0 0 0 1 56.266365550706503 30.828274200623611 7.1984072004269946 1 rotate no_reflect no_shear #
lump $-1 $-1 $18 $3 #
transform $-1 1 0 0 0 1 0 0 0 1 56.266365550706503 30.828274200623611 7.1984072004269946 1 rotate no_reflect no_shear #
lump $-1 $-1 $19 $4 #
transform $-1 1 0 0 0 1 0 0 0 1 56.266365550706503 30.828274200623611 7.1984072004269946 1 rotate no_reflect no_shear #
shell $-1 $-1 $-1 $20 $-1 $5 #
shell $-1 $-1 $-1 $21 $-1 $7 #
shell $-1 $-1 $-1 $22 $-1 $9 #
shell $-1 $-1 $-1 $23 $-1 $11 #
shell $-1 $-1 $-1 $24 $-1 $13 #
face $-1 $25 $26 $15 $-1 $27 forward single #
face $-1 $28 $29 $16 $-1 $30 forward single #
face $-1 $31 $32 $17 $-1 $33 reversed single #
face $-1 $34 $35 $18 $-1 $36 forward single #
face $-1 $37 $38 $19 $-1 $39 forward single #
face $-1 $40 $41 $15 $-1 $42 reversed single #
loop $-1 $-1 $43 $20 #
plane-surface $-1 0 0 7.1984072004269946 0 0 1 1 0 0 forward_v I I I I #
face $-1 $44 $45 $16 $-1 $46 forward single #
loop $-1 $-1 $47 $21 #
plane-surface $-1 0 -30.828274200623611 0 0 1 0 0 0 1 forward_v I I I I #
face $-1 $48 $49 $17 $-1 $50 reversed single #
loop $-1 $-1 $51 $22 #
plane-surface $-1 -40.645309994360879 93.588451476223128 115.53806495406043 -1 0 0 0 0.84804810408105047 0.52991925155115449 forward_v I I I I #
face $-1 $52 $53 $18 $-1 $54 forward single #
loop $-1 $55 $56 $23 #
cone-surface $-1 -51.803206820322039 29.285321050219604 5.1427866434044676 0 -0.84804810408105047 -0.52991925155115449 0.25 0 0 1 I I 0 1 0.25 forward I I I I #
face $-1 $57 $58 $19 $-1 $59 forward single #
loop $-1 $60 $61 $24 #
cone-surface $-1 -45.108468724745343 29.285321050219604 5.1427866434044676 0 -0.84804810408105047 -0.52991925155115449 0.25 0 0 1 I I 0 1 0.25 forward I I I I #
face $-1 $62 $63 $15 $-1 $64 reversed single #
loop $-1 $-1 $65 $25 #
plane-surface $-1 0 0 -7.1984072004269946 0 0 1 1 0 0 forward_v I I I I #
coedge $-1 $66 $67 $68 $69 forward $26 $-1 #
face $-1 $70 $71 $16 $-1 $72 reversed single #
loop $-1 $-1 $73 $28 #
plane-surface $-1 0 0 7.1984072004269946 0 0 1 1 0 0 forward_v I I I I #
coedge $-1 $74 $75 $76 $77 forward $29 $-1 #
face $-1 $78 $79 $17 $-1 $80 reversed single #
loop $-1 $-1 $81 $31 #
plane-surface $-1 -48.455837772533691 -1.8447177813928306 55.904804313792326 0 0.84804810408105047 0.52991925155115449 1 0 0 forward_v I I I I #
coedge $-1 $82 $83 $84 $85 reversed $32 $-1 #
face $-1 $-1 $86 $18 $-1 $87 forward single #
loop $-1 $88 $89 $34 #
cone-surface $-1 -51.803206820322039 28.755290985168948 4.8115871111849957 0 -0.84804810408105047 -0.52991925155115449 0.125 0 0 1 I I -0.70710678118654746 0.70710678118654746 0.125 forward I I I I #
loop $-1 $-1 $90 $23 #
coedge $-1 $56 $56 $91 $92 reversed $35 $-1 #
face $-1 $-1 $93 $19 $-1 $94 forward single #
loop $-1 $95 $96 $37 #
cone-surface $-1 -45.108468724745343 28.755290985168948 4.8115871111849957 0 -0.84804810408105047 -0.52991925155115449 0.125 0 0 1 I I -0.70710678118654746 0.70710678118654746 0.125 forward I I I I #
loop $-1 $-1 $97 $24 #
coedge $-1 $61 $61 $98 $99 reversed $38 $-1 #
face $-1 $100 $101 $15 $-1 $102 reversed single #
loop $-1 $-1 $103 $40 #
plane-surface $-1 0 -30.828274200623611 0 0 1 0 0 0 1 forward_v I I I I #
coedge $-1 $104 $105 $106 $107 forward $41 $-1 #
coedge $-1 $108 $43 $109 $110 forward $26 $-1 #
coedge $-1 $43 $108 $111 $112 forward $26 $-1 #
coedge $-1 $113 $114 $43 $69 reversed $115 $-1 #
edge $-1 $116 -30.828274200623611 $117 30.828274200623611 $68 $118 forward 7 unknown #
face $-1 $119 $120 $16 $-1 $121 reversed single #
loop $-1 $-1 $122 $44 #
plane-surface $-1 -56.266365550706503 0 0 1 0 0 0 0 -1 forward_v I I I I #
coedge $-1 $123 $124 $125 $126 forward $45 $-1 #
coedge $-1 $125 $47 $122 $127 reversed $29 $-1 #
coedge $-1 $47 $125 $128 $129 reversed $29 $-1 #
coedge $-1 $130 $131 $47 $77 reversed $120 $-1 #
edge $-1 $132 -56.266365550706503 $133 56.266365550706503 $76 $134 forward 7 unknown #
face $-1 $135 $136 $17 $-1 $137 forward single #
loop $-1 $-1 $84 $48 #
plane-surface $-1 0 30.828274200623611 0 0 -1 0 0 0 -1 forward_v I I I I #
coedge $-1 $138 $139 $140 $141 reversed $49 $-1 #
coedge $-1 $83 $51 $142 $143 reversed $32 $-1 #
coedge $-1 $51 $82 $138 $144 reversed $32 $-1 #
coedge $-1 $140 $145 $51 $85 forward $79 $-1 #
edge $-1 $146 50.570625276603224 $147 54.151947139097089 $84 $148 forward 7 unknown #
loop $-1 $-1 $91 $52 #
plane-surface $-1 -48.455837772533691 -1.8447177813928306 55.904804313792326 0 0.84804810408105047 0.52991925155115449 1 0 0 forward_v I I I I #
loop $-1 $-1 $149 $34 #
coedge $-1 $89 $89 $90 $150 reversed $53 $-1 #
coedge $-1 $90 $90 $89 $150 forward $55 $-1 #
coedge $-1 $91 $91 $56 $92 forward $86 $-1 #
edge $-1 $151 -3.0097225905657658e-015 $151 6.2831853071795978 $91 $152 forward 7 unknown #
loop $-1 $-1 $98 $57 #
plane-surface $-1 -48.455837772533691 -1.8447177813928306 55.904804313792326 0 0.84804810408105047 0.52991925155115449 1 0 0 forward_v I I I I #
loop $-1 $-1 $153 $37 #
coedge $-1 $96 $96 $97 $154 reversed $58 $-1 #
coedge $-1 $97 $97 $96 $154 forward $60 $-1 #
coedge $-1 $98 $98 $61 $99 forward $93 $-1 #
edge $-1 $155 -3.0097225905657658e-015 $155 6.2831853071795978 $98 $156 forward 7 unknown #
face $-1 $157 $158 $15 $-1 $159 reversed single #
loop $-1 $-1 $160 $62 #
plane-surface $-1 -56.266365550706503 0 0 1 0 0 0 0 -1 forward_v I I I I #
coedge $-1 $161 $111 $162 $163 forward $63 $-1 #
coedge $-1 $164 $65 $161 $165 forward $41 $-1 #
coedge $-1 $65 $164 $166 $167 forward $41 $-1 #
coedge $-1 $114 $113 $65 $107 reversed $115 $-1 #
edge $-1 $168 -30.828274200623611 $169 30.828274200623611 $106 $170 forward 7 unknown #
coedge $-1 $67 $66 $171 $172 forward $26 $-1 #
coedge $-1 $173 $174 $66 $110 reversed $158 $-1 #
edge $-1 $117 -56.266365550706503 $175 56.266365550706503 $109 $176 forward 7 unknown #
coedge $-1 $103 $177 $67 $112 reversed $63 $-1 #
edge $-1 $178 -56.266365550706503 $116 56.266365550706503 $111 $179 forward 7 unknown #
coedge $-1 $106 $68 $177 $180 forward $115 $-1 #
coedge $-1 $68 $106 $173 $181 reversed $115 $-1 #
loop $-1 $-1 $113 $157 #
vertex $-1 $69 $182 #
vertex $-1 $69 $183 #
straight-curve $-1 56.266365550706503 0 7.1984072004269946 0 1 0 I I #
face $-1 $184 $185 $16 $-1 $186 reversed single #
loop $-1 $-1 $130 $70 #
plane-surface $-1 0 -34.02621498495931 3.4772566463587955 0 0 1 1 0 0 forward_v I I I I #
coedge $-1 $187 $188 $74 $127 forward $71 $-1 #
coedge $-1 $189 $73 $188 $190 forward $45 $-1 #
coedge $-1 $73 $189 $191 $192 forward $45 $-1 #
coedge $-1 $75 $74 $73 $126 reversed $29 $-1 #
edge $-1 $193 -56.266365550706503 $194 56.266365550706503 $73 $195 forward 7 unknown #
edge $-1 $194 -7.1984072004269946 $133 -3.4772566463587955 $122 $196 forward 7 unknown #
coedge $-1 $191 $197 $75 $129 forward $198 $-1 #
edge $-1 $132 3.4772566463587955 $193 7.1984072004269946 $128 $199 forward 7 unknown #
coedge $-1 $200 $76 $197 $201 forward $120 $-1 #
coedge $-1 $76 $200 $187 $202 forward $120 $-1 #
vertex $-1 $129 $203 #
vertex $-1 $127 $204 #
straight-curve $-1 0 -30.828274200623611 3.4772566463587955 -1 0 0 I I #
face $-1 $-1 $205 $17 $-1 $206 reversed single #
loop $-1 $-1 $142 $78 #
plane-surface $-1 0 0 7.1984072004269946 0 0 1 1 0 0 forward_v I I I I #
coedge $-1 $207 $81 $83 $144 forward $49 $-1 #
coedge $-1 $81 $207 $208 $209 reversed $49 $-1 #
coedge $-1 $210 $84 $81 $141 forward $79 $-1 #
edge $-1 $147 16.417391108094034 $211 32.038446664439661 $140 $212 forward 7 unknown #
coedge $-1 $213 $214 $82 $143 forward $136 $-1 #
edge $-1 $215 -18.203809734214914 $146 -15.965951537487953 $142 $216 forward 7 unknown #
edge $-1 $147 -61.656548401247186 $215 -57.433531044968078 $83 $217 forward 7 unknown #
coedge $-1 $84 $210 $213 $218 reversed $79 $-1 #
vertex $-1 $218 $219 #
vertex $-1 $85 $220 #
straight-curve $-1 -40.645309994360879 30.828274200623611 57.769032477030215 0 0 -1 I I #
coedge $-1 $149 $149 $-1 $221 reversed $88 $-1 #
edge $-1 $222 0 $222 6.2831853071796004 $89 $223 forward 7 unknown #
vertex $-1 $92 $224 #
ellipse-curve $-1 -51.803206820322039 29.709345102260137 5.4077462691800484 0 0.84804810408105047 0.52991925155115449 0.25 0 0 1 I I #
coedge $-1 $153 $153 $-1 $225 reversed $95 $-1 #
edge $-1 $226 0 $226 6.2831853071796004 $96 $227 forward 7 unknown #
vertex $-1 $99 $228 #
ellipse-curve $-1 -45.108468724745343 29.709345102260137 5.4077462691800484 0 0.84804810408105047 0.52991925155115449 0.25 0 0 1 I I #
face $-1 $-1 $115 $15 $-1 $229 reversed single #
loop $-1 $-1 $173 $100 #
plane-surface $-1 0 30.828274200623611 0 0 -1 0 0 0 -1 forward_v I I I I #
coedge $-1 $230 $171 $174 $231 forward $101 $-1 #
coedge $-1 $177 $103 $104 $165 reversed $63 $-1 #
coedge $-1 $171 $230 $103 $163 reversed $101 $-1 #
edge $-1 $178 -7.1984072004269946 $232 7.1984072004269946 $162 $233 forward 7 unknown #
coedge $-1 $105 $104 $230 $234 forward $41 $-1 #
edge $-1 $169 -56.266365550706503 $232 56.266365550706503 $161 $235 forward 7 unknown #
coedge $-1 $174 $173 $105 $167 reversed $158 $-1 #
edge $-1 $236 -56.266365550706503 $168 56.266365550706503 $166 $237 forward 7 unknown #
vertex $-1 $107 $238 #
vertex $-1 $180 $239 #
straight-curve $-1 56.266365550706503 0 -7.1984072004269946 0 -1 0 I I #
coedge $-1 $160 $162 $108 $172 reversed $101 $-1 #
edge $-1 $175 -30.828274200623611 $178 30.828274200623611 $171 $240 forward 7 unknown #
coedge $-1 $166 $109 $114 $181 forward $158 $-1 #
coedge $-1 $109 $166 $160 $231 reversed $158 $-1 #
vertex $-1 $110 $241 #
straight-curve $-1 0 30.828274200623611 7.1984072004269946 -1 0 0 I I #
coedge $-1 $111 $161 $113 $180 reversed $63 $-1 #
vertex $-1 $172 $242 #
straight-curve $-1 0 -30.828274200623611 7.1984072004269946 1 0 0 I I #
edge $-1 $116 -7.1984072004269946 $169 7.1984072004269946 $113 $243 forward 7 unknown #
edge $-1 $117 -7.1984072004269946 $168 7.1984072004269946 $114 $244 forward 7 unknown #
point $-1 56.266365550706503 -30.828274200623611 7.1984072004269946 #
point $-1 56.266365550706503 30.828274200623611 7.1984072004269946 #
face $-1 $-1 $198 $16 $-1 $245 reversed single #
loop $-1 $-1 $246 $119 #
plane-surface $-1 0 -37.22415576929501 5.337831923392895 0 1 0 0 0 1 forward_v I I I I #
coedge $-1 $247 $122 $131 $202 reversed $71 $-1 #
coedge $-1 $122 $247 $123 $190 reversed $71 $-1 #
coedge $-1 $124 $123 $248 $249 forward $45 $-1 #
edge $-1 $194 30.828274200623611 $250 37.22415576929501 $188 $251 forward 7 unknown #
coedge $-1 $252 $128 $124 $192 reversed $198 $-1 #
edge $-1 $253 -37.22415576929501 $193 -30.828274200623611 $191 $254 forward 7 unknown #
vertex $-1 $129 $255 #
vertex $-1 $190 $256 #
straight-curve $-1 0 -30.828274200623611 7.1984072004269946 -1 0 0 I I #
straight-curve $-1 -56.266365550706503 -30.828274200623611 0 0 0 -1 I I #
coedge $-1 $128 $252 $130 $201 reversed $198 $-1 #
loop $-1 $-1 $128 $184 #
straight-curve $-1 56.266365550706503 -30.828274200623611 0 0 0 1 I I #
coedge $-1 $131 $130 $257 $258 forward $120 $-1 #
edge $-1 $132 -3.197940784335696 $259 3.1979407843356995 $197 $260 forward 7 unknown #
edge $-1 $261 -3.1979407843356995 $133 3.197940784335696 $187 $262 forward 7 unknown #
point $-1 56.266365550706503 -30.828274200623614 3.4772566463587955 #
point $-1 -56.266365550706503 -30.828274200623614 3.4772566463587955 #
loop $-1 $-1 $208 $135 #
plane-surface $-1 -56.266365550706503 0 0 1 0 0 0 0 -1 forward_v I I I I #
coedge $-1 $139 $138 $214 $263 reversed $49 $-1 #
coedge $-1 $264 $265 $139 $209 forward $205 $-1 #
edge $-1 $211 -37.462791014560935 $266 -33.23977365828182 $208 $267 forward 7 unknown #
coedge $-1 $145 $140 $265 $268 reversed $79 $-1 #
vertex $-1 $141 $269 #
straight-curve $-1 -24.227918886266846 30.828274200623611 3.6170853379331227 -1 0 0 I I #
coedge $-1 $270 $142 $145 $218 forward $136 $-1 #
coedge $-1 $142 $270 $207 $263 forward $136 $-1 #
vertex $-1 $143 $271 #
straight-curve $-1 -40.645309994360879 46.794225738111564 7.1984072004269919 0 1 0 I I #
straight-curve $-1 -40.645309994360879 -1.8447177813928306 55.904804313792326 0 -0.52991925155115449 0.84804810408105047 I I #
edge $-1 $146 40.645309994360879 $272 56.266365550706503 $145 $273 forward 7 unknown #
point $-1 -40.645309994360879 30.828274200623611 7.1984072004269946 #
point $-1 -40.645309994360879 30.828274200623611 3.6170853379331263 #
edge $-1 $274 1 $274 0 $149 $-1 forward 7 unknown #
vertex $-1 $150 $275 #
ellipse-curve $-1 -51.803206820322039 28.861296998179078 4.8778270176288903 0 0.84804810408105047 0.52991925155115449 0.25 0 0 1 I I #
point $-1 -51.553206820322039 29.70934510226013 5.4077462691800449 #
edge $-1 $276 1 $276 0 $153 $-1 forward 7 unknown #
vertex $-1 $154 $277 #
ellipse-curve $-1 -45.108468724745343 28.861296998179078 4.8778270176288903 0 0.84804810408105047 0.52991925155115449 0.25 0 0 1 I I #
point $-1 -44.858468724745343 29.70934510226013 5.4077462691800449 #
plane-surface $-1 56.266365550706503 0 0 -1 0 0 0 0 1 forward_v I I I I #
coedge $-1 $162 $160 $164 $234 reversed $101 $-1 #
edge $-1 $175 -7.1984072004269946 $236 7.1984072004269946 $174 $278 forward 7 unknown #
vertex $-1 $234 $279 #
straight-curve $-1 -56.266365550706503 -30.828274200623611 0 0 0 -1 I I #
edge $-1 $232 -30.828274200623611 $236 30.828274200623611 $230 $280 forward 7 unknown #
straight-curve $-1 0 -30.828274200623611 -7.1984072004269946 -1 0 0 I I #
vertex $-1 $167 $281 #
straight-curve $-1 0 30.828274200623611 -7.1984072004269946 1 0 0 I I #
point $-1 56.266365550706503 30.828274200623611 -7.1984072004269946 #
point $-1 56.266365550706503 -30.828274200623611 -7.1984072004269946 #
straight-curve $-1 -56.266365550706503 0 7.1984072004269946 0 -1 0 I I #
point $-1 -56.266365550706503 30.828274200623611 7.1984072004269946 #
point $-1 -56.266365550706503 -30.828274200623611 7.1984072004269946 #
straight-curve $-1 56.266365550706503 -30.828274200623611 0 0 0 -1 I I #
straight-curve $-1 56.266365550706503 30.828274200623611 0 0 0 -1 I I #
plane-surface $-1 56.266365550706503 0 0 -1 0 0 0 0 1 forward_v I I I I #
coedge $-1 $257 $248 $247 $282 forward $185 $-1 #
coedge $-1 $188 $187 $246 $282 reversed $71 $-1 #
coedge $-1 $246 $283 $189 $249 reversed $185 $-1 #
edge $-1 $250 -56.266365550706503 $253 56.266365550706503 $248 $284 forward 7 unknown #
vertex $-1 $190 $285 #
straight-curve $-1 -56.266365550706503 0 7.1984072004269946 0 -1 0 I I #
coedge $-1 $197 $191 $283 $286 forward $198 $-1 #
vertex $-1 $192 $287 #
straight-curve $-1 56.266365550706503 0 7.1984072004269946 0 1 0 I I #
point $-1 56.266365550706503 -30.828274200623611 7.1984072004269946 #
point $-1 -56.266365550706503 -30.828274200623611 7.1984072004269946 #
coedge $-1 $283 $246 $200 $258 reversed $185 $-1 #
edge $-1 $259 -56.266365550706503 $261 56.266365550706503 $257 $288 forward 7 unknown #
vertex $-1 $286 $289 #
straight-curve $-1 56.266365550706503 -34.02621498495931 3.4772566463587955 0 -1 0 I I #
vertex $-1 $202 $290 #
straight-curve $-1 -56.266365550706503 -34.02621498495931 3.4772566463587955 0 1 0 I I #
edge $-1 $266 -32.038446664439661 $215 -16.417391108094034 $214 $291 forward 7 unknown #
coedge $-1 $265 $208 $270 $292 reversed $205 $-1 #
coedge $-1 $208 $264 $210 $268 forward $205 $-1 #
vertex $-1 $209 $293 #
straight-curve $-1 -56.266365550706503 10.976020025170165 35.387334231416133 0 -0.52991925155115449 0.84804810408105047 I I #
edge $-1 $272 -7.1984072004269946 $211 -3.6170853379331231 $210 $294 forward 7 unknown #
point $-1 -56.266365550706503 30.828274200623611 3.6170853379331231 #
coedge $-1 $214 $213 $264 $292 forward $136 $-1 #
point $-1 -40.645309994360879 28.590416003896649 7.1984072004269919 #
vertex $-1 $218 $295 #
straight-curve $-1 0 30.828274200623611 7.1984072004269946 -1 0 0 I I #
vertex $-1 $221 $296 #
point $-1 -51.553206820322039 28.861296998179078 4.8778270176288903 #
vertex $-1 $225 $297 #
point $-1 -44.858468724745343 28.861296998179078 4.8778270176288903 #
straight-curve $-1 -56.266365550706503 30.828274200623611 0 0 0 -1 I I #
point $-1 -56.266365550706503 -30.828274200623611 -7.1984072004269946 #
straight-curve $-1 -56.266365550706503 0 -7.1984072004269946 0 1 0 I I #
point $-1 -56.266365550706503 30.828274200623611 -7.1984072004269946 #
edge $-1 $250 -1.8605752770340995 $261 1.8605752770340995 $247 $298 forward 7 unknown #
coedge $-1 $248 $257 $252 $286 reversed $185 $-1 #
straight-curve $-1 0 -37.22415576929501 7.1984072004269946 1 0 0 I I #
point $-1 -56.266365550706503 -37.22415576929501 7.1984072004269946 #
edge $-1 $253 -1.8605752770340995 $259 1.8605752770340995 $252 $299 forward 7 unknown #
point $-1 56.266365550706503 -37.22415576929501 7.1984072004269946 #
straight-curve $-1 0 -37.22415576929501 3.4772566463587955 -1 0 0 I I #
point $-1 56.266365550706503 -37.22415576929501 3.4772566463587955 #
point $-1 -56.266365550706503 -37.22415576929501 3.4772566463587955 #
straight-curve $-1 -24.227918886266846 28.590416003896642 7.1984072004269954 1 0 0 I I #
edge $-1 $272 -30.828274200623611 $266 -28.590416003896649 $264 $300 forward 7 unknown #
point $-1 -56.266365550706503 28.590416003896649 7.1984072004269919 #
straight-curve $-1 -56.266365550706503 30.828274200623611 0 0 0 -1 I I #
point $-1 -56.266365550706503 30.828274200623611 7.1984072004269946 #
point $-1 -51.803206820322039 28.649284972158817 4.7453472047411012 #
point $-1 -45.108468724745343 28.649284972158817 4.7453472047411012 #
straight-curve $-1 -56.266365550706503 -37.22415576929501 5.337831923392895 0 0 -1 I I #
straight-curve $-1 56.266365550706503 -37.22415576929501 5.337831923392895 0 0 -1 I I #
straight-curve $-1 -56.266365550706503 0 7.1984072004269946 0 -1 0 I I #
End-of-ACIS-data 