500 0 5 0           
7 Unknown 11 ACIS 5.0 NT 24 Fri Mar 26 18:52:07 1999 
-1 9.9999999999999995e-007 1e-010 
body $-1 $5 $-1 $6 #
body $-1 $7 $-1 $8 #
body $-1 $9 $-1 $10 #
body $-1 $11 $-1 $12 #
body $-1 $13 $-1 $14 #
lump $-1 $-1 $15 $0 #
transform $-1 1 0 0 0 1 0 0 0 1 70.848109378337966 31.487808370517161 6.4627508662446687 1 rotate no_reflect no_shear #
lump $-1 $-1 $16 $1 #
transform $-1 1 0 0 0 1 0 0 0 1 70.848109378337966 31.487808370517161 6.4627508662446687 1 rotate no_reflect no_shear #
lump $-1 $-1 $17 $2 #
transform $-1 1 0 0 0 1 0 0 0 1 70.848109378337966 31.487808370517161 6.4627508662446687 1 rotate no_reflect no_shear #
lump $-1 $-1 $18 $3 #
transform $-1 1 0 0 0 1 0 0 0 1 70.848109378337966 31.487808370517161 6.4627508662446687 1 rotate no_reflect no_shear #
lump $-1 $-1 $19 $4 #
transform $-1 1 0 0 0 1 0 0 0 1 70.848109378337966 31.487808370517161 6.4627508662446687 1 rotate no_reflect no_shear #
shell $-1 $-1 $-1 $20 $-1 $5 #
shell $-1 $-1 $-1 $21 $-1 $7 #
shell $-1 $-1 $-1 $22 $-1 $9 #
shell $-1 $-1 $-1 $23 $-1 $11 #
shell $-1 $-1 $-1 $24 $-1 $13 #
face $-1 $25 $26 $15 $-1 $27 forward single #
face $-1 $28 $29 $16 $-1 $30 forward single #
face $-1 $31 $32 $17 $-1 $33 reversed single #
face $-1 $34 $35 $18 $-1 $36 forward single #
face $-1 $37 $38 $19 $-1 $39 forward single #
face $-1 $40 $41 $15 $-1 $42 reversed single #
loop $-1 $-1 $43 $20 #
plane-surface $-1 0 0 6.4627508662446687 0 0 1 1 0 0 forward_v I I I I #
face $-1 $44 $45 $16 $-1 $46 reversed single #
loop $-1 $-1 $47 $21 #
plane-surface $-1 0 -31.487808370517161 0 0 1 0 0 0 1 forward_v I I I I #
face $-1 $48 $49 $17 $-1 $50 reversed single #
loop $-1 $-1 $51 $22 #
plane-surface $-1 29.184954634627957 -9.5574113393733988 196.62161605555801 0 -1 0 -0.54463904215088732 0 -0.83867056331134215 forward_v I I I I #
face $-1 $52 $53 $18 $-1 $54 forward single #
loop $-1 $55 $56 $23 #
cone-surface $-1 65.597894600940322 -18.848147433902628 2.3894425637620857 -0.54463904215088732 0 -0.83867056331134215 0.83867056331134215 0 -0.54463904215088732 1 I I 0 1 1 forward I I I I #
face $-1 $57 $58 $19 $-1 $59 forward single #
loop $-1 $60 $61 $24 #
cone-surface $-1 65.597894600940322 -13.273705777185093 2.3894425637620857 -0.54463904215088732 0 -0.83867056331134215 0.83867056331134215 0 -0.54463904215088732 1 I I 0 1 1 forward I I I I #
face $-1 $62 $63 $15 $-1 $64 reversed single #
loop $-1 $-1 $65 $25 #
plane-surface $-1 0 0 -6.4627508662446687 0 0 1 1 0 0 forward_v I I I I #
coedge $-1 $66 $67 $68 $69 forward $26 $-1 #
face $-1 $70 $71 $16 $-1 $72 forward single #
loop $-1 $-1 $73 $28 #
plane-surface $-1 -70.848109378337966 0 0 1 0 0 0 0 -1 forward_v I I I I #
coedge $-1 $74 $75 $76 $77 forward $29 $-1 #
face $-1 $78 $79 $17 $-1 $80 reversed single #
loop $-1 $-1 $81 $31 #
plane-surface $-1 -47.988338225410615 -16.060926605543859 77.78516845180944 0.54463904215088732 0 0.83867056331134215 0.83867056331134215 0 -0.54463904215088732 forward_v I I I I #
coedge $-1 $82 $83 $84 $85 reversed $32 $-1 #
face $-1 $-1 $86 $18 $-1 $87 forward single #
loop $-1 $88 $89 $34 #
cone-surface $-1 64.580139139960039 -18.848147433902628 0.82223661686072802 -0.54463904215088732 0 -0.83867056331134215 0.41933528165567108 0 -0.27231952107544366 1 I I -0.70710678118654768 0.70710678118654735 0.5 forward I I I I #
loop $-1 $-1 $90 $23 #
coedge $-1 $56 $56 $91 $92 reversed $35 $-1 #
face $-1 $-1 $93 $19 $-1 $94 forward single #
loop $-1 $95 $96 $37 #
cone-surface $-1 64.580139139960039 -13.273705777185093 0.82223661686072802 -0.54463904215088732 0 -0.83867056331134215 0.41933528165567108 0 -0.27231952107544366 1 I I -0.70710678118654768 0.70710678118654735 0.5 forward I I I I #
loop $-1 $-1 $97 $24 #
coedge $-1 $61 $61 $98 $99 reversed $38 $-1 #
face $-1 $100 $101 $15 $-1 $102 reversed single #
loop $-1 $-1 $103 $40 #
plane-surface $-1 0 -31.487808370517161 0 0 1 0 0 0 1 forward_v I I I I #
coedge $-1 $104 $105 $106 $107 forward $41 $-1 #
coedge $-1 $108 $43 $109 $110 forward $26 $-1 #
coedge $-1 $43 $108 $111 $112 forward $26 $-1 #
coedge $-1 $113 $114 $43 $69 reversed $115 $-1 #
edge $-1 $116 -31.487808370517161 $117 31.487808370517161 $68 $118 forward 7 unknown #
face $-1 $119 $120 $16 $-1 $121 reversed single #
loop $-1 $-1 $122 $44 #
plane-surface $-1 0 -34.014878669715415 2.486379041985419 0 0 1 1 0 0 forward_v I I I I #
coedge $-1 $123 $124 $75 $125 forward $45 $-1 #
coedge $-1 $126 $47 $127 $128 reversed $29 $-1 #
coedge $-1 $47 $126 $73 $125 reversed $29 $-1 #
coedge $-1 $129 $122 $47 $77 reversed $71 $-1 #
edge $-1 $130 -70.848109378337966 $131 70.848109378337966 $76 $132 forward 7 unknown #
face $-1 $133 $134 $17 $-1 $135 reversed single #
loop $-1 $-1 $136 $48 #
plane-surface $-1 29.184954634627957 -22.564441871714319 196.62161605555801 0 1 0 0.54463904215088732 0 0.83867056331134215 forward_v I I I I #
coedge $-1 $137 $138 $139 $140 reversed $49 $-1 #
coedge $-1 $83 $51 $141 $142 reversed $32 $-1 #
coedge $-1 $51 $82 $137 $143 reversed $32 $-1 #
coedge $-1 $139 $144 $51 $85 forward $145 $-1 #
edge $-1 $146 -56.255632061023988 $147 -47.246074386038345 $84 $148 forward 7 unknown #
loop $-1 $-1 $91 $52 #
plane-surface $-1 -47.988338225410615 -16.060926605543859 77.78516845180944 0.54463904215088732 0 0.83867056331134215 0.83867056331134215 0 -0.54463904215088732 forward_v I I I I #
loop $-1 $-1 $149 $34 #
coedge $-1 $89 $89 $90 $150 reversed $53 $-1 #
coedge $-1 $90 $90 $89 $150 forward $55 $-1 #
coedge $-1 $91 $91 $56 $92 forward $86 $-1 #
edge $-1 $151 0 $151 6.2831853071796004 $91 $152 forward 7 unknown #
loop $-1 $-1 $98 $57 #
plane-surface $-1 -47.988338225410615 -16.060926605543859 77.78516845180944 0.54463904215088732 0 0.83867056331134215 0.83867056331134215 0 -0.54463904215088732 forward_v I I I I #
loop $-1 $-1 $153 $37 #
coedge $-1 $96 $96 $97 $154 reversed $58 $-1 #
coedge $-1 $97 $97 $96 $154 forward $60 $-1 #
coedge $-1 $98 $98 $61 $99 forward $93 $-1 #
edge $-1 $155 0 $155 6.2831853071796004 $98 $156 forward 7 unknown #
face $-1 $157 $158 $15 $-1 $159 reversed single #
loop $-1 $-1 $160 $62 #
plane-surface $-1 -70.848109378337966 0 0 1 0 0 0 0 -1 forward_v I I I I #
coedge $-1 $161 $111 $162 $163 forward $63 $-1 #
coedge $-1 $164 $65 $161 $165 forward $41 $-1 #
coedge $-1 $65 $164 $166 $167 forward $41 $-1 #
coedge $-1 $114 $113 $65 $107 reversed $115 $-1 #
edge $-1 $168 -31.487808370517161 $169 31.487808370517161 $106 $170 forward 7 unknown #
coedge $-1 $67 $66 $171 $172 forward $26 $-1 #
coedge $-1 $173 $174 $66 $110 reversed $158 $-1 #
edge $-1 $117 -70.848109378337966 $175 70.848109378337966 $109 $176 forward 7 unknown #
coedge $-1 $103 $177 $67 $112 reversed $63 $-1 #
edge $-1 $178 -70.848109378337966 $116 70.848109378337966 $111 $179 forward 7 unknown #
coedge $-1 $106 $68 $177 $180 forward $115 $-1 #
coedge $-1 $68 $106 $173 $181 reversed $115 $-1 #
loop $-1 $-1 $113 $157 #
vertex $-1 $69 $182 #
vertex $-1 $69 $183 #
straight-curve $-1 70.848109378337966 0 6.4627508662446687 0 1 0 I I #
face $-1 $184 $185 $16 $-1 $186 reversed single #
loop $-1 $-1 $187 $70 #
plane-surface $-1 0 -34.014878669715415 -0.5150023793223486 0 0 1 1 0 0 forward_v I I I I #
coedge $-1 $76 $188 $189 $190 forward $71 $-1 #
coedge $-1 $191 $73 $192 $193 reversed $45 $-1 #
coedge $-1 $73 $191 $129 $194 reversed $45 $-1 #
edge $-1 $130 -2.486379041985419 $195 0.5150023793223486 $73 $196 forward 7 unknown #
coedge $-1 $75 $74 $197 $198 forward $29 $-1 #
coedge $-1 $189 $199 $74 $128 forward $200 $-1 #
edge $-1 $201 -0.5150023793223486 $131 2.486379041985419 $127 $202 forward 7 unknown #
coedge $-1 $188 $76 $124 $194 forward $71 $-1 #
vertex $-1 $125 $203 #
vertex $-1 $190 $204 #
straight-curve $-1 0 -31.487808370517161 2.486379041985419 1 0 0 I I #
face $-1 $-1 $145 $17 $-1 $205 forward single #
loop $-1 $-1 $206 $78 #
plane-surface $-1 70.848109378337966 0 0 -1 0 0 0 0 1 forward_v I I I I #
coedge $-1 $207 $208 $209 $210 reversed $79 $-1 #
coedge $-1 $211 $81 $83 $143 forward $49 $-1 #
coedge $-1 $81 $211 $207 $212 forward $49 $-1 #
coedge $-1 $209 $84 $81 $140 forward $145 $-1 #
edge $-1 $147 1.5269480366014694 $213 14.533978568942389 $139 $214 forward 7 unknown #
coedge $-1 $215 $216 $82 $142 forward $134 $-1 #
edge $-1 $217 -97.698932436008135 $146 -91.848057161534342 $141 $218 forward 7 unknown #
edge $-1 $147 130.95355284097599 $217 141.69621875667593 $83 $219 forward 7 unknown #
coedge $-1 $84 $209 $215 $220 forward $145 $-1 #
loop $-1 $-1 $209 $133 #
vertex $-1 $142 $221 #
vertex $-1 $85 $222 #
straight-curve $-1 14.592477317313978 -9.5574113393733988 6.4627508662446616 -1 0 0 I I #
coedge $-1 $149 $149 $-1 $223 reversed $88 $-1 #
edge $-1 $224 0 $224 6.2831853071796004 $89 $225 forward 7 unknown #
vertex $-1 $92 $226 #
ellipse-curve $-1 66.343330540845159 -18.848147433902628 3.5373132290077578 0.54463904215088732 0 0.83867056331134215 0.83867056331134215 0 -0.54463904215088732 1 I I #
coedge $-1 $153 $153 $-1 $227 reversed $95 $-1 #
edge $-1 $228 0 $228 6.2831853071796004 $96 $229 forward 7 unknown #
vertex $-1 $99 $230 #
ellipse-curve $-1 66.343330540845159 -13.273705777185093 3.5373132290077578 0.54463904215088732 0 0.83867056331134215 0.83867056331134215 0 -0.54463904215088732 1 I I #
face $-1 $-1 $115 $15 $-1 $231 reversed single #
loop $-1 $-1 $173 $100 #
plane-surface $-1 0 31.487808370517161 0 0 -1 0 0 0 -1 forward_v I I I I #
coedge $-1 $232 $171 $174 $233 forward $101 $-1 #
coedge $-1 $177 $103 $104 $165 reversed $63 $-1 #
coedge $-1 $171 $232 $103 $163 reversed $101 $-1 #
edge $-1 $178 -6.4627508662446687 $234 6.4627508662446687 $162 $235 forward 7 unknown #
coedge $-1 $105 $104 $232 $236 forward $41 $-1 #
edge $-1 $169 -70.848109378337966 $234 70.848109378337966 $161 $237 forward 7 unknown #
coedge $-1 $174 $173 $105 $167 reversed $158 $-1 #
edge $-1 $238 -70.848109378337966 $168 70.848109378337966 $166 $239 forward 7 unknown #
vertex $-1 $107 $240 #
vertex $-1 $180 $241 #
straight-curve $-1 70.848109378337966 0 -6.4627508662446687 0 -1 0 I I #
coedge $-1 $160 $162 $108 $172 reversed $101 $-1 #
edge $-1 $175 -31.487808370517161 $178 31.487808370517161 $171 $242 forward 7 unknown #
coedge $-1 $166 $109 $114 $181 forward $158 $-1 #
coedge $-1 $109 $166 $160 $233 reversed $158 $-1 #
vertex $-1 $110 $243 #
straight-curve $-1 0 31.487808370517161 6.4627508662446687 -1 0 0 I I #
coedge $-1 $111 $161 $113 $180 reversed $63 $-1 #
vertex $-1 $172 $244 #
straight-curve $-1 0 -31.487808370517161 6.4627508662446687 1 0 0 I I #
edge $-1 $116 -6.4627508662446687 $169 6.4627508662446687 $113 $245 forward 7 unknown #
edge $-1 $117 -6.4627508662446687 $168 6.4627508662446687 $114 $246 forward 7 unknown #
point $-1 70.848109378337966 -31.487808370517161 6.4627508662446687 #
point $-1 70.848109378337966 31.487808370517161 6.4627508662446687 #
face $-1 $-1 $200 $16 $-1 $247 reversed single #
loop $-1 $-1 $248 $119 #
plane-surface $-1 0 -36.541948968913665 0.98568833133153522 0 1 0 0 0 1 forward_v I I I I #
coedge $-1 $249 $197 $199 $250 forward $120 $-1 #
coedge $-1 $122 $129 $251 $252 forward $71 $-1 #
coedge $-1 $253 $127 $122 $190 reversed $200 $-1 #
edge $-1 $254 -2.5270702991982503 $131 2.5270702991982503 $189 $255 forward 7 unknown #
coedge $-1 $124 $123 $248 $256 reversed $45 $-1 #
coedge $-1 $197 $249 $123 $193 forward $120 $-1 #
edge $-1 $257 -2.5270702991982503 $195 2.5270702991982503 $123 $258 forward 7 unknown #
edge $-1 $130 -2.5270702991982503 $259 2.5270702991982503 $124 $260 forward 7 unknown #
vertex $-1 $125 $261 #
straight-curve $-1 -70.848109378337966 -31.487808370517161 0 0 0 -1 I I #
coedge $-1 $187 $192 $126 $198 reversed $120 $-1 #
edge $-1 $201 -70.848109378337966 $195 70.848109378337966 $197 $262 forward 7 unknown #
coedge $-1 $127 $253 $187 $250 reversed $200 $-1 #
loop $-1 $-1 $127 $184 #
vertex $-1 $128 $263 #
straight-curve $-1 70.848109378337966 -31.487808370517161 0 0 0 1 I I #
point $-1 -70.848109378337966 -31.487808370517165 2.486379041985419 #
point $-1 70.848109378337966 -31.487808370517165 2.486379041985419 #
plane-surface $-1 0 0 6.4627508662446687 0 0 1 1 0 0 forward_v I I I I #
coedge $-1 $216 $215 $208 $264 forward $134 $-1 #
coedge $-1 $208 $136 $138 $212 reversed $79 $-1 #
coedge $-1 $136 $207 $206 $264 reversed $79 $-1 #
coedge $-1 $144 $139 $136 $210 forward $145 $-1 #
edge $-1 $213 47.246074386038345 $265 56.255632061023988 $209 $266 forward 7 unknown #
coedge $-1 $138 $137 $216 $267 reversed $49 $-1 #
edge $-1 $268 -141.69621875667593 $213 -130.95355284097599 $207 $269 forward 7 unknown #
vertex $-1 $140 $270 #
straight-curve $-1 61.838551703352337 -8.0304633027719294 6.4627508662446616 0 -1 0 I I #
coedge $-1 $206 $141 $144 $220 reversed $134 $-1 #
coedge $-1 $141 $206 $211 $267 forward $134 $-1 #
vertex $-1 $142 $271 #
straight-curve $-1 70.848109378337966 -9.5574113393733988 98.310808027779004 0 0 1 I I #
straight-curve $-1 -47.988338225410615 -9.5574113393733988 77.78516845180944 0.83867056331134215 0 -0.54463904215088732 I I #
edge $-1 $265 -22.564441871714319 $146 -9.5574113393733988 $215 $272 forward 7 unknown #
point $-1 70.848109378337966 -9.5574113393733988 6.4627508662446687 #
point $-1 61.838551703352323 -9.5574113393733988 6.4627508662446758 #
edge $-1 $273 1 $273 0 $149 $-1 forward 7 unknown #
vertex $-1 $150 $274 #
ellipse-curve $-1 64.852458661035485 -18.848147433902628 1.241571898516399 0.54463904215088732 0 0.83867056331134215 0.83867056331134215 0 -0.54463904215088732 1 I I #
point $-1 67.182001104156512 -18.848147433902628 2.9926741868568856 #
edge $-1 $275 1 $275 0 $153 $-1 forward 7 unknown #
vertex $-1 $154 $276 #
ellipse-curve $-1 64.852458661035485 -13.273705777185093 1.241571898516399 0.54463904215088732 0 0.83867056331134215 0.83867056331134215 0 -0.54463904215088732 1 I I #
point $-1 67.182001104156512 -13.273705777185093 2.9926741868568856 #
plane-surface $-1 70.848109378337966 0 0 -1 0 0 0 0 1 forward_v I I I I #
coedge $-1 $162 $160 $164 $236 reversed $101 $-1 #
edge $-1 $175 -6.4627508662446687 $238 6.4627508662446687 $174 $277 forward 7 unknown #
vertex $-1 $236 $278 #
straight-curve $-1 -70.848109378337966 -31.487808370517161 0 0 0 -1 I I #
edge $-1 $234 -31.487808370517161 $238 31.487808370517161 $232 $279 forward 7 unknown #
straight-curve $-1 0 -31.487808370517161 -6.4627508662446687 -1 0 0 I I #
vertex $-1 $167 $280 #
straight-curve $-1 0 31.487808370517161 -6.4627508662446687 1 0 0 I I #
point $-1 70.848109378337966 31.487808370517161 -6.4627508662446687 #
point $-1 70.848109378337966 -31.487808370517161 -6.4627508662446687 #
straight-curve $-1 -70.848109378337966 0 6.4627508662446687 0 -1 0 I I #
point $-1 -70.848109378337966 31.487808370517161 6.4627508662446687 #
point $-1 -70.848109378337966 -31.487808370517161 6.4627508662446687 #
straight-curve $-1 70.848109378337966 -31.487808370517161 0 0 0 -1 I I #
straight-curve $-1 70.848109378337966 31.487808370517161 0 0 0 -1 I I #
plane-surface $-1 70.848109378337966 0 0 -1 0 0 0 0 1 forward_v I I I I #
coedge $-1 $281 $251 $191 $256 forward $185 $-1 #
coedge $-1 $192 $187 $281 $282 forward $120 $-1 #
edge $-1 $201 -2.5270702991982503 $283 2.5270702991982503 $199 $284 forward 7 unknown #
coedge $-1 $248 $285 $188 $252 reversed $185 $-1 #
edge $-1 $259 -70.848109378337966 $254 70.848109378337966 $251 $286 forward 7 unknown #
coedge $-1 $199 $189 $285 $287 forward $200 $-1 #
vertex $-1 $190 $288 #
straight-curve $-1 70.848109378337966 -34.014878669715415 2.486379041985419 0 1 0 I I #
edge $-1 $259 -1.5006907106538838 $257 1.5006907106538838 $191 $289 forward 7 unknown #
vertex $-1 $193 $290 #
straight-curve $-1 -70.848109378337966 -34.014878669715415 -0.5150023793223486 0 1 0 I I #
vertex $-1 $194 $291 #
straight-curve $-1 -70.848109378337966 -34.014878669715415 2.486379041985419 0 -1 0 I I #
point $-1 -70.848109378337966 -31.487808370517165 -0.5150023793223486 #
straight-curve $-1 0 -31.487808370517161 -0.5150023793223486 -1 0 0 I I #
point $-1 70.848109378337966 -31.487808370517165 -0.5150023793223486 #
edge $-1 $265 91.848057161534342 $268 97.698932436008135 $206 $292 forward 7 unknown #
vertex $-1 $220 $293 #
straight-curve $-1 14.592477317313978 -22.564441871714319 6.4627508662446616 1 0 0 I I #
edge $-1 $268 -14.533978568942389 $217 -1.5269480366014694 $216 $294 forward 7 unknown #
vertex $-1 $267 $295 #
straight-curve $-1 -47.988338225410615 -22.564441871714319 77.78516845180944 -0.83867056331134215 0 0.54463904215088732 I I #
point $-1 61.838551703352323 -22.564441871714319 6.4627508662446758 #
point $-1 70.848109378337952 -9.5574113393733988 0.61187559177086825 #
straight-curve $-1 70.848109378337966 0 6.4627508662446687 0 1 0 I I #
vertex $-1 $223 $296 #
point $-1 65.691129224346824 -18.848147433902628 0.69693285636551161 #
vertex $-1 $227 $297 #
point $-1 65.691129224346824 -13.273705777185093 0.69693285636551161 #
straight-curve $-1 -70.848109378337966 31.487808370517161 0 0 0 -1 I I #
point $-1 -70.848109378337966 -31.487808370517161 -6.4627508662446687 #
straight-curve $-1 -70.848109378337966 0 -6.4627508662446687 0 1 0 I I #
point $-1 -70.848109378337966 31.487808370517161 -6.4627508662446687 #
coedge $-1 $285 $248 $249 $282 reversed $185 $-1 #
edge $-1 $283 -70.848109378337966 $257 70.848109378337966 $281 $298 forward 7 unknown #
vertex $-1 $287 $299 #
straight-curve $-1 70.848109378337966 -34.014878669715415 -0.5150023793223486 0 -1 0 I I #
coedge $-1 $251 $281 $253 $287 reversed $185 $-1 #
straight-curve $-1 0 -36.541948968913665 2.486379041985419 1 0 0 I I #
edge $-1 $254 -1.5006907106538838 $283 1.5006907106538838 $253 $300 forward 7 unknown #
point $-1 70.848109378337966 -36.541948968913665 2.486379041985419 #
straight-curve $-1 -70.848109378337966 -36.541948968913665 0.98568833133153522 0 0 -1 I I #
point $-1 -70.848109378337966 -36.541948968913665 -0.5150023793223486 #
point $-1 -70.848109378337966 -36.541948968913665 2.486379041985419 #
straight-curve $-1 70.848109378337966 -22.564441871714319 98.310808027779004 0 0 -1 I I #
point $-1 70.848109378337966 -22.564441871714319 6.4627508662446687 #
straight-curve $-1 70.848109378337981 -8.0304633027719294 0.61187559177086115 0 1 0 I I #
point $-1 70.848109378337952 -22.564441871714319 0.61187559177086825 #
point $-1 64.307819618884594 -18.848147433902628 0.40290133520505711 #
point $-1 64.307819618884594 -13.273705777185093 0.40290133520505711 #
straight-curve $-1 0 -36.541948968913665 -0.5150023793223486 -1 0 0 I I #
point $-1 70.848109378337966 -36.541948968913665 -0.5150023793223486 #
straight-curve $-1 70.848109378337966 -36.541948968913665 0.98568833133153522 0 0 -1 I I #
End-of-ACIS-data 