500 0 9 0           
7 Unknown 11 ACIS 5.0 NT 24 Thu Mar 25 23:01:17 1999 
-1 9.9999999999999995e-007 1e-010 
body $-1 $9 $-1 $10 #
body $-1 $11 $-1 $12 #
body $-1 $13 $-1 $14 #
body $-1 $15 $-1 $16 #
body $-1 $17 $-1 $18 #
body $-1 $19 $-1 $20 #
body $-1 $21 $-1 $22 #
body $-1 $23 $-1 $24 #
body $-1 $25 $-1 $26 #
lump $-1 $-1 $27 $0 #
transform $-1 1 0 0 0 1 0 0 0 1 73.902401806695764 35.9847657956429 12.29107024704231 1 rotate no_reflect no_shear #
lump $-1 $-1 $28 $1 #
transform $-1 1 0 0 0 1 0 0 0 1 73.902401806695764 35.9847657956429 12.29107024704231 1 rotate no_reflect no_shear #
lump $-1 $-1 $29 $2 #
transform $-1 1 0 0 0 1 0 0 0 1 73.902401806695764 35.9847657956429 12.29107024704231 1 rotate no_reflect no_shear #
lump $-1 $-1 $30 $3 #
transform $-1 1 0 0 0 1 0 0 0 1 73.902401806695764 35.9847657956429 12.29107024704231 1 rotate no_reflect no_shear #
lump $-1 $-1 $31 $4 #
transform $-1 1 0 0 0 1 0 0 0 1 73.902401806695764 35.9847657956429 12.29107024704231 1 rotate no_reflect no_shear #
lump $-1 $-1 $32 $5 #
transform $-1 1 0 0 0 1 0 0 0 1 73.902401806695764 35.9847657956429 12.29107024704231 1 rotate no_reflect no_shear #
lump $-1 $-1 $33 $6 #
transform $-1 1 0 0 0 1 0 0 0 1 73.902401806695764 35.9847657956429 12.29107024704231 1 rotate no_reflect no_shear #
lump $-1 $-1 $34 $7 #
transform $-1 1 0 0 0 1 0 0 0 1 73.902401806695764 35.9847657956429 12.29107024704231 1 rotate no_reflect no_shear #
lump $-1 $-1 $35 $8 #
transform $-1 1 0 0 0 1 0 0 0 1 73.902401806695764 35.9847657956429 12.29107024704231 1 rotate no_reflect no_shear #
shell $-1 $-1 $-1 $36 $-1 $9 #
shell $-1 $-1 $-1 $37 $-1 $11 #
shell $-1 $-1 $-1 $38 $-1 $13 #
shell $-1 $-1 $-1 $39 $-1 $15 #
shell $-1 $-1 $-1 $40 $-1 $17 #
shell $-1 $-1 $-1 $41 $-1 $19 #
shell $-1 $-1 $-1 $42 $-1 $21 #
shell $-1 $-1 $-1 $43 $-1 $23 #
shell $-1 $-1 $-1 $44 $-1 $25 #
face $-1 $45 $46 $27 $-1 $47 forward single #
face $-1 $48 $49 $28 $-1 $50 forward single #
face $-1 $51 $52 $29 $-1 $53 forward single #
face $-1 $54 $55 $30 $-1 $56 reversed single #
face $-1 $57 $58 $31 $-1 $59 forward single #
face $-1 $60 $61 $32 $-1 $62 forward single #
face $-1 $63 $64 $33 $-1 $65 reversed single #
face $-1 $66 $67 $34 $-1 $68 forward single #
face $-1 $69 $70 $35 $-1 $71 forward single #
face $-1 $72 $73 $27 $-1 $74 reversed single #
loop $-1 $-1 $75 $36 #
plane-surface $-1 0 0 12.29107024704231 0 0 1 1 0 0 forward_v I I I I #
face $-1 $76 $77 $28 $-1 $78 reversed single #
loop $-1 $-1 $79 $37 #
plane-surface $-1 0 -35.9847657956429 0 0 1 0 0 0 1 forward_v I I I I #
face $-1 $80 $81 $29 $-1 $82 reversed single #
loop $-1 $-1 $83 $38 #
plane-surface $-1 0 35.9847657956429 0 0 -1 0 0 0 -1 forward_v I I I I #
face $-1 $84 $85 $30 $-1 $86 reversed single #
loop $-1 $-1 $87 $39 #
plane-surface $-1 -188.76830924191063 -15.6859249421396 94.124970745094828 0 1 0 -0.77714596973225614 0 0.62932038083071107 forward_v I I I I #
face $-1 $88 $89 $31 $-1 $90 forward single #
loop $-1 $91 $92 $40 #
cone-surface $-1 -68.888076874957406 -12.050521532752317 6.3057330008151578 0.77714596973225614 0 -0.62932038083071107 0.62932038083071107 0 0.77714596973225614 1 I I 0 1 1 forward I I I I #
face $-1 $93 $94 $32 $-1 $95 forward single #
loop $-1 $96 $97 $41 #
cone-surface $-1 -68.888076874957406 -6.5974164186713935 6.3057330008151578 0.77714596973225614 0 -0.62932038083071107 0.62932038083071107 0 0.77714596973225614 1 I I 0 1 1 forward I I I I #
face $-1 $98 $99 $33 $-1 $100 reversed single #
loop $-1 $-1 $101 $42 #
plane-surface $-1 128.00271785405309 -11.614955827766067 208.61191475282794 0 -1 0 -0.86602541151947299 0 -0.49999998660252726 forward_v I I I I #
face $-1 $102 $103 $34 $-1 $104 forward single #
loop $-1 $105 $106 $43 #
cone-surface $-1 69.986171604703841 -19.805838551552878 8.1686099684766766 -0.86602541151947299 0 -0.49999998660252726 0.74999997990379086 0 -1.2990381172792094 1 I I 0 1 1.5 forward I I I I #
face $-1 $107 $108 $35 $-1 $109 forward single #
loop $-1 $110 $111 $44 #
cone-surface $-1 69.986171604703841 -14.891308917280789 8.1686099684766766 -0.86602541151947299 0 -0.49999998660252726 0.74999997990379086 0 -1.2990381172792094 1 I I 0 1 1.5 forward I I I I #
face $-1 $112 $113 $27 $-1 $114 reversed single #
loop $-1 $-1 $115 $45 #
plane-surface $-1 0 0 -12.29107024704231 0 0 1 1 0 0 forward_v I I I I #
coedge $-1 $116 $117 $118 $119 forward $46 $-1 #
face $-1 $120 $121 $28 $-1 $122 forward single #
loop $-1 $-1 $123 $48 #
plane-surface $-1 -73.902401806695764 0 0 1 0 0 0 0 -1 forward_v I I I I #
coedge $-1 $124 $125 $126 $127 forward $49 $-1 #
face $-1 $128 $129 $29 $-1 $130 forward single #
loop $-1 $-1 $131 $51 #
plane-surface $-1 73.902401806695764 0 0 -1 0 0 0 0 1 forward_v I I I I #
coedge $-1 $132 $133 $134 $135 forward $52 $-1 #
face $-1 $136 $137 $30 $-1 $138 reversed single #
loop $-1 $-1 $139 $54 #
plane-surface $-1 -73.902401806695792 -9.3239689757118533 1.1083954465068189 -0.77714596973225614 0 0.62932038083071107 0.62932038083071107 0 0.77714596973225614 forward_v I I I I #
coedge $-1 $140 $141 $142 $143 reversed $55 $-1 #
face $-1 $-1 $144 $31 $-1 $145 forward single #
loop $-1 $146 $147 $57 #
cone-surface $-1 -68.012954587559079 -12.050521532752317 5.5970729644404038 0.77714596973225614 0 -0.62932038083071107 0.31466019041535553 0 0.38857298486612807 1 I I -0.70710678118654746 0.70710678118654746 0.5 forward I I I I #
loop $-1 $-1 $148 $40 #
coedge $-1 $92 $92 $149 $150 reversed $58 $-1 #
face $-1 $-1 $151 $32 $-1 $152 forward single #
loop $-1 $153 $154 $60 #
cone-surface $-1 -68.012954587559079 -6.5974164186713935 5.5970729644404038 0.77714596973225614 0 -0.62932038083071107 0.31466019041535553 0 0.38857298486612807 1 I I -0.70710678118654746 0.70710678118654746 0.5 forward I I I I #
loop $-1 $-1 $155 $41 #
coedge $-1 $97 $97 $156 $157 reversed $61 $-1 #
face $-1 $158 $159 $33 $-1 $160 reversed single #
loop $-1 $-1 $161 $63 #
plane-surface $-1 1.980210811325378e-006 -17.348573734416835 134.70951492634299 0.86602541151947299 0 0.49999998660252726 0.49999998660252726 0 -0.86602541151947299 forward_v I I I I #
coedge $-1 $162 $163 $164 $165 reversed $64 $-1 #
face $-1 $-1 $166 $34 $-1 $167 forward single #
loop $-1 $168 $169 $66 #
cone-surface $-1 67.032462525177834 -19.805838551552878 6.4632852972299339 -0.86602541151947299 0 -0.49999998660252726 0.37499998995189543 0 -0.64951905863960469 1 I I -0.70710678118654757 0.70710678118654757 0.75 forward I I I I #
loop $-1 $-1 $170 $43 #
coedge $-1 $106 $106 $171 $172 reversed $67 $-1 #
face $-1 $-1 $173 $35 $-1 $174 forward single #
loop $-1 $175 $176 $69 #
cone-surface $-1 67.032462525177834 -14.891308917280789 6.4632852972299339 -0.86602541151947299 0 -0.49999998660252726 0.37499998995189543 0 -0.64951905863960469 1 I I -0.70710678118654757 0.70710678118654757 0.75 forward I I I I #
loop $-1 $-1 $177 $44 #
coedge $-1 $111 $111 $178 $179 reversed $70 $-1 #
face $-1 $180 $181 $27 $-1 $182 reversed single #
loop $-1 $-1 $183 $72 #
plane-surface $-1 0 -35.9847657956429 0 0 1 0 0 0 1 forward_v I I I I #
coedge $-1 $184 $185 $186 $187 forward $73 $-1 #
coedge $-1 $188 $75 $189 $190 forward $46 $-1 #
coedge $-1 $75 $188 $191 $192 forward $46 $-1 #
coedge $-1 $193 $194 $75 $119 reversed $195 $-1 #
edge $-1 $196 -35.9847657956429 $197 35.9847657956429 $118 $198 forward 7 unknown #
face $-1 $199 $200 $28 $-1 $201 reversed single #
loop $-1 $-1 $202 $76 #
plane-surface $-1 0 -42.436052872930546 8.8942329991535427 0 0 1 1 0 0 forward_v I I I I #
coedge $-1 $203 $204 $125 $205 forward $77 $-1 #
coedge $-1 $206 $79 $207 $208 reversed $49 $-1 #
coedge $-1 $79 $206 $123 $205 reversed $49 $-1 #
coedge $-1 $209 $202 $79 $127 reversed $121 $-1 #
edge $-1 $210 -73.902401806695764 $211 73.902401806695764 $126 $212 forward 7 unknown #
face $-1 $213 $214 $29 $-1 $215 reversed single #
loop $-1 $-1 $216 $80 #
plane-surface $-1 0 42.436052872930546 8.8942329991535427 0 0 1 1 0 0 forward_v I I I I #
coedge $-1 $217 $218 $133 $219 forward $81 $-1 #
coedge $-1 $220 $83 $221 $222 reversed $52 $-1 #
coedge $-1 $83 $220 $131 $219 reversed $52 $-1 #
coedge $-1 $216 $223 $83 $135 reversed $129 $-1 #
edge $-1 $224 -73.902401806695764 $225 73.902401806695764 $134 $226 forward 7 unknown #
face $-1 $227 $228 $30 $-1 $229 reversed single #
loop $-1 $-1 $230 $84 #
plane-surface $-1 -188.76830924191063 -2.9620130092841066 94.124970745094828 0 -1 0 0.77714596973225614 0 -0.62932038083071107 forward_v I I I I #
coedge $-1 $231 $232 $233 $234 reversed $85 $-1 #
coedge $-1 $141 $87 $235 $236 reversed $55 $-1 #
coedge $-1 $87 $140 $231 $237 reversed $55 $-1 #
coedge $-1 $233 $238 $87 $143 forward $239 $-1 #
edge $-1 $240 20.481752814259551 $241 29.537304072671844 $142 $242 forward 7 unknown #
loop $-1 $-1 $149 $88 #
plane-surface $-1 -73.902401806695792 -9.3239689757118533 1.1083954465068189 -0.77714596973225614 0 0.62932038083071107 0.62932038083071107 0 0.77714596973225614 forward_v I I I I #
loop $-1 $-1 $243 $57 #
coedge $-1 $147 $147 $148 $244 reversed $89 $-1 #
coedge $-1 $148 $148 $147 $244 forward $91 $-1 #
coedge $-1 $149 $149 $92 $150 forward $144 $-1 #
edge $-1 $245 0 $245 6.2831853071796004 $149 $246 forward 7 unknown #
loop $-1 $-1 $156 $93 #
plane-surface $-1 -73.902401806695792 -9.3239689757118533 1.1083954465068189 -0.77714596973225614 0 0.62932038083071107 0.62932038083071107 0 0.77714596973225614 forward_v I I I I #
loop $-1 $-1 $247 $60 #
coedge $-1 $154 $154 $155 $248 reversed $94 $-1 #
coedge $-1 $155 $155 $154 $248 forward $96 $-1 #
coedge $-1 $156 $156 $97 $157 forward $151 $-1 #
edge $-1 $249 0 $249 6.2831853071796004 $156 $250 forward 7 unknown #
face $-1 $251 $252 $33 $-1 $253 forward single #
loop $-1 $-1 $254 $98 #
plane-surface $-1 128.00271785405309 -23.082191641067602 208.61191475282794 0 1 0 0.86602541151947299 0 0.49999998660252726 forward_v I I I I #
coedge $-1 $255 $256 $257 $258 reversed $99 $-1 #
coedge $-1 $163 $101 $259 $260 reversed $64 $-1 #
coedge $-1 $101 $162 $255 $261 reversed $64 $-1 #
coedge $-1 $257 $262 $101 $165 forward $252 $-1 #
edge $-1 $263 -9.9010428796692196 $264 -6.6769625174581506 $164 $265 forward 7 unknown #
loop $-1 $-1 $171 $102 #
plane-surface $-1 1.980210811325378e-006 -17.348573734416835 134.70951492634299 0.86602541151947299 0 0.49999998660252726 0.49999998660252726 0 -0.86602541151947299 forward_v I I I I #
loop $-1 $-1 $266 $66 #
coedge $-1 $169 $169 $170 $267 reversed $103 $-1 #
coedge $-1 $170 $170 $169 $267 forward $105 $-1 #
coedge $-1 $171 $171 $106 $172 forward $166 $-1 #
edge $-1 $268 0 $268 6.2831853071796004 $171 $269 forward 7 unknown #
loop $-1 $-1 $178 $107 #
plane-surface $-1 1.980210811325378e-006 -17.348573734416835 134.70951492634299 0.86602541151947299 0 0.49999998660252726 0.49999998660252726 0 -0.86602541151947299 forward_v I I I I #
loop $-1 $-1 $270 $69 #
coedge $-1 $176 $176 $177 $271 reversed $108 $-1 #
coedge $-1 $177 $177 $176 $271 forward $110 $-1 #
coedge $-1 $178 $178 $111 $179 forward $173 $-1 #
edge $-1 $272 0 $272 6.2831853071796004 $178 $273 forward 7 unknown #
face $-1 $274 $275 $27 $-1 $276 reversed single #
loop $-1 $-1 $277 $112 #
plane-surface $-1 -73.902401806695764 0 0 1 0 0 0 0 -1 forward_v I I I I #
coedge $-1 $278 $191 $279 $280 forward $113 $-1 #
coedge $-1 $281 $115 $278 $282 forward $73 $-1 #
coedge $-1 $115 $281 $283 $284 forward $73 $-1 #
coedge $-1 $194 $193 $115 $187 reversed $195 $-1 #
edge $-1 $285 -35.9847657956429 $286 35.9847657956429 $186 $287 forward 7 unknown #
coedge $-1 $117 $116 $288 $289 forward $46 $-1 #
coedge $-1 $290 $291 $116 $190 reversed $275 $-1 #
edge $-1 $197 -73.902401806695764 $292 73.902401806695764 $189 $293 forward 7 unknown #
coedge $-1 $183 $294 $117 $192 reversed $113 $-1 #
edge $-1 $295 -73.902401806695764 $196 73.902401806695764 $191 $296 forward 7 unknown #
coedge $-1 $186 $118 $294 $297 forward $195 $-1 #
coedge $-1 $118 $186 $290 $298 reversed $195 $-1 #
loop $-1 $-1 $193 $274 #
vertex $-1 $119 $299 #
vertex $-1 $119 $300 #
straight-curve $-1 73.902401806695764 0 12.29107024704231 0 1 0 I I #
face $-1 $301 $302 $28 $-1 $303 reversed single #
loop $-1 $-1 $304 $120 #
plane-surface $-1 0 -42.436052872930546 1.8568853962371694 0 0 1 1 0 0 forward_v I I I I #
coedge $-1 $126 $305 $306 $307 forward $121 $-1 #
coedge $-1 $308 $123 $309 $310 reversed $77 $-1 #
coedge $-1 $123 $308 $209 $311 reversed $77 $-1 #
edge $-1 $210 -8.8942329991535427 $312 -1.8568853962371694 $123 $313 forward 7 unknown #
coedge $-1 $125 $124 $314 $315 forward $49 $-1 #
coedge $-1 $306 $316 $124 $208 forward $317 $-1 #
edge $-1 $318 1.8568853962371694 $211 8.8942329991535427 $207 $319 forward 7 unknown #
coedge $-1 $305 $126 $204 $311 forward $121 $-1 #
vertex $-1 $205 $320 #
vertex $-1 $307 $321 #
straight-curve $-1 0 -35.9847657956429 8.8942329991535427 1 0 0 I I #
face $-1 $322 $323 $29 $-1 $324 reversed single #
loop $-1 $-1 $325 $128 #
plane-surface $-1 0 42.436052872930546 1.8568853962371694 0 0 1 1 0 0 forward_v I I I I #
coedge $-1 $326 $134 $218 $327 forward $129 $-1 #
coedge $-1 $328 $131 $325 $329 reversed $81 $-1 #
coedge $-1 $131 $328 $216 $327 reversed $81 $-1 #
edge $-1 $224 -8.8942329991535427 $330 -1.8568853962371694 $131 $331 forward 7 unknown #
coedge $-1 $133 $132 $332 $333 forward $52 $-1 #
coedge $-1 $334 $335 $132 $222 forward $336 $-1 #
edge $-1 $337 1.8568853962371694 $225 8.8942329991535427 $221 $338 forward 7 unknown #
coedge $-1 $134 $326 $334 $339 forward $129 $-1 #
vertex $-1 $219 $340 #
vertex $-1 $339 $341 #
straight-curve $-1 0 35.9847657956429 8.8942329991535427 -1 0 0 I I #
face $-1 $-1 $239 $30 $-1 $342 forward single #
loop $-1 $-1 $343 $136 #
plane-surface $-1 -73.902401806695764 0 0 1 0 0 0 0 -1 forward_v I I I I #
coedge $-1 $344 $345 $346 $347 reversed $137 $-1 #
coedge $-1 $348 $139 $141 $237 forward $85 $-1 #
coedge $-1 $139 $348 $344 $349 forward $85 $-1 #
coedge $-1 $346 $142 $139 $234 forward $239 $-1 #
edge $-1 $241 -11.023940454283673 $350 1.6999714785718201 $233 $351 forward 7 unknown #
coedge $-1 $352 $353 $140 $236 forward $228 $-1 #
edge $-1 $354 -45.95408992604056 $240 -34.771415125505101 $235 $355 forward 7 unknown #
edge $-1 $241 -14.389413618638685 $354 -4.5151010033889764e-014 $141 $356 forward 7 unknown #
coedge $-1 $142 $346 $352 $357 forward $239 $-1 #
loop $-1 $-1 $346 $227 #
vertex $-1 $236 $358 #
vertex $-1 $143 $359 #
straight-curve $-1 -94.384154620955314 -15.6859249421396 12.291070247042313 1 0 0 I I #
coedge $-1 $243 $243 $-1 $360 reversed $146 $-1 #
edge $-1 $361 0 $361 6.2831853071796004 $147 $362 forward 7 unknown #
vertex $-1 $150 $363 #
ellipse-curve $-1 -69.374626177489631 -12.050521532752317 6.6997328467745767 -0.77714596973225614 0 0.62932038083071107 0.62932038083071107 0 0.77714596973225614 1 I I #
coedge $-1 $247 $247 $-1 $364 reversed $153 $-1 #
edge $-1 $365 0 $365 6.2831853071796004 $154 $366 forward 7 unknown #
vertex $-1 $157 $367 #
ellipse-curve $-1 -69.374626177489631 -6.5974164186713935 6.6997328467745767 -0.77714596973225614 0 0.62932038083071107 0.62932038083071107 0 0.77714596973225614 1 I I #
face $-1 $-1 $368 $33 $-1 $369 reversed single #
loop $-1 $-1 $164 $158 #
plane-surface $-1 0 0 12.29107024704231 0 0 1 1 0 0 forward_v I I I I #
coedge $-1 $370 $371 $372 $373 reversed $159 $-1 #
coedge $-1 $374 $161 $163 $261 forward $99 $-1 #
coedge $-1 $161 $374 $370 $375 forward $99 $-1 #
coedge $-1 $372 $164 $161 $258 forward $252 $-1 #
edge $-1 $264 2.9406689605576499 $376 14.407904773859185 $257 $377 forward 7 unknown #
coedge $-1 $378 $379 $162 $260 forward $368 $-1 #
edge $-1 $380 -97.599158323913286 $263 -92.014887129371658 $259 $381 forward 7 unknown #
edge $-1 $264 141.35664271619129 $380 147.80480361339156 $163 $382 forward 7 unknown #
coedge $-1 $164 $372 $378 $383 forward $252 $-1 #
vertex $-1 $260 $384 #
vertex $-1 $165 $385 #
straight-curve $-1 64.001358927026544 -11.614955827766067 12.291070247042313 -1 0 0 I I #
coedge $-1 $266 $266 $-1 $386 reversed $168 $-1 #
edge $-1 $387 0 $387 6.2831853071796004 $169 $388 forward 7 unknown #
vertex $-1 $172 $389 #
ellipse-curve $-1 72.290361625590222 -19.805838551552878 9.4989346497715097 0.86602541151947299 0 0.49999998660252726 0.74999997990379086 0 -1.2990381172792094 1 I I #
coedge $-1 $270 $270 $-1 $390 reversed $175 $-1 #
edge $-1 $391 0 $391 6.2831853071796004 $176 $392 forward 7 unknown #
vertex $-1 $179 $393 #
ellipse-curve $-1 72.290361625590222 -14.891308917280789 9.4989346497715097 0.86602541151947299 0 0.49999998660252726 0.74999997990379086 0 -1.2990381172792094 1 I I #
face $-1 $-1 $195 $27 $-1 $394 reversed single #
loop $-1 $-1 $291 $180 #
plane-surface $-1 0 35.9847657956429 0 0 -1 0 0 0 -1 forward_v I I I I #
coedge $-1 $395 $288 $291 $396 forward $181 $-1 #
coedge $-1 $294 $183 $184 $282 reversed $113 $-1 #
coedge $-1 $288 $395 $183 $280 reversed $181 $-1 #
edge $-1 $295 -12.29107024704231 $397 12.29107024704231 $279 $398 forward 7 unknown #
coedge $-1 $185 $184 $395 $399 forward $73 $-1 #
edge $-1 $286 -73.902401806695764 $397 73.902401806695764 $278 $400 forward 7 unknown #
coedge $-1 $291 $290 $185 $284 reversed $275 $-1 #
edge $-1 $401 -73.902401806695764 $285 73.902401806695764 $283 $402 forward 7 unknown #
vertex $-1 $187 $403 #
vertex $-1 $297 $404 #
straight-curve $-1 73.902401806695764 0 -12.29107024704231 0 -1 0 I I #
coedge $-1 $277 $279 $188 $289 reversed $181 $-1 #
edge $-1 $292 -35.9847657956429 $295 35.9847657956429 $288 $405 forward 7 unknown #
coedge $-1 $283 $189 $194 $298 forward $275 $-1 #
coedge $-1 $189 $283 $277 $396 reversed $275 $-1 #
vertex $-1 $190 $406 #
straight-curve $-1 0 35.9847657956429 12.29107024704231 -1 0 0 I I #
coedge $-1 $191 $278 $193 $297 reversed $113 $-1 #
vertex $-1 $289 $407 #
straight-curve $-1 0 -35.9847657956429 12.29107024704231 1 0 0 I I #
edge $-1 $196 -12.29107024704231 $286 12.29107024704231 $193 $408 forward 7 unknown #
edge $-1 $197 -12.29107024704231 $285 12.29107024704231 $194 $409 forward 7 unknown #
point $-1 73.902401806695764 -35.9847657956429 12.29107024704231 #
point $-1 73.902401806695764 35.9847657956429 12.29107024704231 #
face $-1 $-1 $317 $28 $-1 $410 reversed single #
loop $-1 $-1 $411 $199 #
plane-surface $-1 0 -48.887339950218191 5.3755591976953561 0 1 0 0 0 1 forward_v I I I I #
coedge $-1 $412 $314 $316 $413 forward $200 $-1 #
coedge $-1 $202 $209 $414 $415 forward $121 $-1 #
coedge $-1 $416 $207 $202 $307 reversed $317 $-1 #
edge $-1 $417 -6.4512870772876454 $211 6.4512870772876454 $306 $418 forward 7 unknown #
coedge $-1 $204 $203 $411 $419 reversed $77 $-1 #
coedge $-1 $314 $412 $203 $310 forward $200 $-1 #
edge $-1 $420 -6.4512870772876454 $312 6.4512870772876454 $203 $421 forward 7 unknown #
edge $-1 $210 -6.4512870772876454 $422 6.4512870772876454 $204 $423 forward 7 unknown #
vertex $-1 $205 $424 #
straight-curve $-1 -73.902401806695764 -35.9847657956429 0 0 0 -1 I I #
coedge $-1 $304 $309 $206 $315 reversed $200 $-1 #
edge $-1 $318 -73.902401806695764 $312 73.902401806695764 $314 $425 forward 7 unknown #
coedge $-1 $207 $416 $304 $413 reversed $317 $-1 #
loop $-1 $-1 $207 $301 #
vertex $-1 $208 $426 #
straight-curve $-1 73.902401806695764 -35.9847657956429 0 0 0 1 I I #
point $-1 -73.902401806695764 -35.9847657956429 8.8942329991535427 #
point $-1 73.902401806695764 -35.9847657956429 8.8942329991535427 #
face $-1 $-1 $336 $29 $-1 $427 reversed single #
loop $-1 $-1 $428 $213 #
plane-surface $-1 0 48.887339950218191 5.3755591976953561 0 -1 0 0 0 -1 forward_v I I I I #
coedge $-1 $332 $429 $217 $329 forward $214 $-1 #
coedge $-1 $223 $216 $430 $431 forward $129 $-1 #
edge $-1 $224 -6.4512870772876454 $432 6.4512870772876454 $218 $433 forward 7 unknown #
coedge $-1 $218 $217 $428 $434 reversed $81 $-1 #
edge $-1 $435 -6.4512870772876454 $330 6.4512870772876454 $217 $436 forward 7 unknown #
vertex $-1 $219 $437 #
straight-curve $-1 73.902401806695764 35.9847657956429 0 0 0 -1 I I #
coedge $-1 $438 $325 $220 $333 reversed $214 $-1 #
edge $-1 $337 -73.902401806695764 $330 73.902401806695764 $332 $439 forward 7 unknown #
coedge $-1 $440 $221 $223 $339 reversed $336 $-1 #
coedge $-1 $221 $440 $438 $441 reversed $336 $-1 #
loop $-1 $-1 $221 $322 #
vertex $-1 $222 $442 #
straight-curve $-1 -73.902401806695764 35.9847657956429 0 0 0 1 I I #
edge $-1 $443 -6.4512870772876454 $225 6.4512870772876454 $334 $444 forward 7 unknown #
point $-1 73.902401806695764 35.9847657956429 8.8942329991535427 #
point $-1 -73.902401806695764 35.9847657956429 8.8942329991535427 #
plane-surface $-1 0 0 12.29107024704231 0 0 1 1 0 0 forward_v I I I I #
coedge $-1 $353 $352 $345 $445 forward $228 $-1 #
coedge $-1 $345 $230 $232 $349 reversed $137 $-1 #
coedge $-1 $230 $344 $343 $445 reversed $137 $-1 #
coedge $-1 $238 $233 $230 $347 forward $239 $-1 #
edge $-1 $350 -29.537304072671844 $446 -20.481752814259551 $346 $447 forward 7 unknown #
coedge $-1 $232 $231 $353 $448 reversed $85 $-1 #
edge $-1 $449 4.5151010033889764e-014 $350 14.389413618638685 $344 $450 forward 7 unknown #
vertex $-1 $234 $451 #
straight-curve $-1 -64.846850548283484 -4.6619844878559267 12.29107024704231 0 1 0 I I #
coedge $-1 $343 $235 $238 $357 reversed $228 $-1 #
coedge $-1 $235 $343 $348 $448 forward $228 $-1 #
vertex $-1 $236 $452 #
straight-curve $-1 -73.902401806695764 -15.6859249421396 47.062485372547414 0 0 1 I I #
straight-curve $-1 -73.902401806695792 -15.6859249421396 1.1083954465068189 -0.62932038083071107 0 -0.77714596973225614 I I #
edge $-1 $446 2.9620130092841066 $240 15.6859249421396 $352 $453 forward 7 unknown #
point $-1 -73.902401806695764 -15.6859249421396 12.29107024704231 #
point $-1 -64.84685054828347 -15.6859249421396 12.29107024704231 #
edge $-1 $454 1 $454 0 $243 $-1 forward 7 unknown #
vertex $-1 $244 $455 #
ellipse-curve $-1 -68.401527572425209 -12.050521532752317 5.9117331548557592 -0.77714596973225614 0 0.62932038083071107 0.62932038083071107 0 0.77714596973225614 1 I I #
point $-1 -68.745305796658883 -12.050521532752317 7.4768788165068134 #
edge $-1 $456 1 $456 0 $247 $-1 forward 7 unknown #
vertex $-1 $248 $457 #
ellipse-curve $-1 -68.401527572425209 -6.5974164186713935 5.9117331548557592 -0.77714596973225614 0 0.62932038083071107 0.62932038083071107 0 0.77714596973225614 1 I I #
point $-1 -68.745305796658883 -6.5974164186713935 7.4768788165068134 #
loop $-1 $-1 $259 $251 #
plane-surface $-1 73.902401806695764 0 0 -1 0 0 0 0 1 forward_v I I I I #
coedge $-1 $371 $254 $256 $375 reversed $159 $-1 #
coedge $-1 $254 $370 $458 $459 reversed $159 $-1 #
coedge $-1 $262 $257 $254 $373 forward $252 $-1 #
edge $-1 $376 6.6769625174581506 $460 9.9010428796692196 $372 $461 forward 7 unknown #
coedge $-1 $256 $255 $379 $462 reversed $99 $-1 #
edge $-1 $463 -147.80480361339156 $376 -141.35664271619129 $370 $464 forward 7 unknown #
vertex $-1 $258 $465 #
straight-curve $-1 70.678321444484681 -8.6742868672084175 12.291070247042313 0 -1 0 I I #
coedge $-1 $458 $259 $262 $383 reversed $368 $-1 #
coedge $-1 $259 $458 $374 $462 forward $368 $-1 #
vertex $-1 $260 $466 #
straight-curve $-1 73.902401806695764 -11.614955827766067 104.30595737641397 0 0 1 I I #
straight-curve $-1 1.980210811325378e-006 -11.614955827766067 134.70951492634299 0.49999998660252726 0 -0.86602541151947299 I I #
edge $-1 $460 -23.082191641067602 $263 -11.614955827766067 $378 $467 forward 7 unknown #
point $-1 73.902401806695764 -11.614955827766067 12.29107024704231 #
point $-1 70.678321444484695 -11.614955827766067 12.291070247042313 #
edge $-1 $468 1 $468 0 $266 $-1 forward 7 unknown #
vertex $-1 $267 $469 #
ellipse-curve $-1 67.681981583817432 -19.805838551552878 6.8382852871818294 0.86602541151947299 0 0.49999998660252726 0.74999997990379086 0 -1.2990381172792094 1 I I #
point $-1 73.040361605494041 -19.805838551552878 8.1998965324923141 #
edge $-1 $470 1 $470 0 $270 $-1 forward 7 unknown #
vertex $-1 $271 $471 #
ellipse-curve $-1 67.681981583817432 -14.891308917280789 6.8382852871818294 0.86602541151947299 0 0.49999998660252726 0.74999997990379086 0 -1.2990381172792094 1 I I #
point $-1 73.040361605494041 -14.891308917280789 8.1998965324923141 #
plane-surface $-1 73.902401806695764 0 0 -1 0 0 0 0 1 forward_v I I I I #
coedge $-1 $279 $277 $281 $399 reversed $181 $-1 #
edge $-1 $292 -12.29107024704231 $401 12.29107024704231 $291 $472 forward 7 unknown #
vertex $-1 $399 $473 #
straight-curve $-1 -73.902401806695764 -35.9847657956429 0 0 0 -1 I I #
edge $-1 $397 -35.9847657956429 $401 35.9847657956429 $395 $474 forward 7 unknown #
straight-curve $-1 0 -35.9847657956429 -12.29107024704231 -1 0 0 I I #
vertex $-1 $284 $475 #
straight-curve $-1 0 35.9847657956429 -12.29107024704231 1 0 0 I I #
point $-1 73.902401806695764 35.9847657956429 -12.29107024704231 #
point $-1 73.902401806695764 -35.9847657956429 -12.29107024704231 #
straight-curve $-1 -73.902401806695764 0 12.29107024704231 0 -1 0 I I #
point $-1 -73.902401806695764 35.9847657956429 12.29107024704231 #
point $-1 -73.902401806695764 -35.9847657956429 12.29107024704231 #
straight-curve $-1 73.902401806695764 -35.9847657956429 0 0 0 -1 I I #
straight-curve $-1 73.902401806695764 35.9847657956429 0 0 0 -1 I I #
plane-surface $-1 73.902401806695764 0 0 -1 0 0 0 0 1 forward_v I I I I #
coedge $-1 $476 $414 $308 $419 forward $302 $-1 #
coedge $-1 $309 $304 $476 $477 forward $200 $-1 #
edge $-1 $318 -6.4512870772876454 $478 6.4512870772876454 $316 $479 forward 7 unknown #
coedge $-1 $411 $480 $305 $415 reversed $302 $-1 #
edge $-1 $422 -73.902401806695764 $417 73.902401806695764 $414 $481 forward 7 unknown #
coedge $-1 $316 $306 $480 $482 forward $317 $-1 #
vertex $-1 $307 $483 #
straight-curve $-1 73.902401806695764 -42.436052872930546 8.8942329991535427 0 1 0 I I #
edge $-1 $422 -3.5186738014581866 $420 3.5186738014581866 $308 $484 forward 7 unknown #
vertex $-1 $310 $485 #
straight-curve $-1 -73.902401806695764 -42.436052872930546 1.8568853962371694 0 1 0 I I #
vertex $-1 $311 $486 #
straight-curve $-1 -73.902401806695764 -42.436052872930546 8.8942329991535427 0 -1 0 I I #
point $-1 -73.902401806695764 -35.9847657956429 1.8568853962371694 #
straight-curve $-1 0 -35.9847657956429 1.8568853962371694 -1 0 0 I I #
point $-1 73.902401806695764 -35.9847657956429 1.8568853962371694 #
plane-surface $-1 -73.902401806695764 0 0 1 0 0 0 0 -1 forward_v I I I I #
coedge $-1 $487 $430 $328 $434 forward $323 $-1 #
coedge $-1 $325 $438 $487 $488 forward $214 $-1 #
coedge $-1 $428 $489 $326 $431 reversed $323 $-1 #
edge $-1 $432 -73.902401806695764 $443 73.902401806695764 $430 $490 forward 7 unknown #
vertex $-1 $327 $491 #
straight-curve $-1 73.902401806695764 42.436052872930546 8.8942329991535427 0 1 0 I I #
edge $-1 $432 -3.5186738014581866 $435 3.5186738014581866 $328 $492 forward 7 unknown #
vertex $-1 $329 $493 #
straight-curve $-1 73.902401806695764 42.436052872930546 1.8568853962371694 0 -1 0 I I #
point $-1 73.902401806695764 35.9847657956429 1.8568853962371694 #
coedge $-1 $429 $332 $335 $441 forward $214 $-1 #
straight-curve $-1 0 35.9847657956429 1.8568853962371694 1 0 0 I I #
coedge $-1 $335 $334 $489 $494 forward $336 $-1 #
edge $-1 $337 -6.4512870772876454 $495 6.4512870772876454 $335 $496 forward 7 unknown #
point $-1 -73.902401806695764 35.9847657956429 1.8568853962371694 #
vertex $-1 $431 $497 #
straight-curve $-1 -73.902401806695764 42.436052872930546 8.8942329991535427 0 -1 0 I I #
edge $-1 $446 34.771415125505101 $449 45.95408992604056 $343 $498 forward 7 unknown #
vertex $-1 $357 $499 #
straight-curve $-1 -94.384154620955314 -2.9620130092841066 12.291070247042313 -1 0 0 I I #
edge $-1 $449 -1.6999714785718201 $354 11.023940454283673 $353 $500 forward 7 unknown #
vertex $-1 $448 $501 #
straight-curve $-1 -73.902401806695792 -2.9620130092841066 1.1083954465068189 0.62932038083071107 0 0.77714596973225614 I I #
point $-1 -64.84685054828347 -2.9620130092841066 12.29107024704231 #
point $-1 -73.902401806695764 -15.6859249421396 1.108395446506854 #
straight-curve $-1 -73.902401806695764 0 12.29107024704231 0 -1 0 I I #
vertex $-1 $360 $502 #
point $-1 -67.772207191594489 -12.050521532752317 6.6888791245880155 #
vertex $-1 $364 $503 #
point $-1 -67.772207191594489 -6.5974164186713935 6.6888791245880155 #
coedge $-1 $379 $378 $371 $459 forward $368 $-1 #
edge $-1 $460 92.014887129371658 $463 97.599158323913286 $458 $504 forward 7 unknown #
vertex $-1 $383 $505 #
straight-curve $-1 64.001358927026544 -23.082191641067602 12.291070247042313 1 0 0 I I #
edge $-1 $463 -14.407904773859185 $380 -2.9406689605576499 $379 $506 forward 7 unknown #
vertex $-1 $462 $507 #
straight-curve $-1 1.980210811325378e-006 -23.082191641067602 134.70951492634299 -0.49999998660252726 0 0.86602541151947299 I I #
point $-1 70.678321444484695 -23.082191641067602 12.291070247042313 #
point $-1 73.902401806695764 -11.614955827766067 6.7067990525006849 #
straight-curve $-1 73.902401806695764 0 12.29107024704231 0 1 0 I I #
vertex $-1 $386 $508 #
point $-1 68.431981563721223 -19.805838551552878 5.5392471699026196 #
vertex $-1 $390 $509 #
point $-1 68.431981563721223 -14.891308917280789 5.5392471699026196 #
straight-curve $-1 -73.902401806695764 35.9847657956429 0 0 0 -1 I I #
point $-1 -73.902401806695764 -35.9847657956429 -12.29107024704231 #
straight-curve $-1 -73.902401806695764 0 -12.29107024704231 0 1 0 I I #
point $-1 -73.902401806695764 35.9847657956429 -12.29107024704231 #
coedge $-1 $480 $411 $412 $477 reversed $302 $-1 #
edge $-1 $478 -73.902401806695764 $420 73.902401806695764 $476 $510 forward 7 unknown #
vertex $-1 $482 $511 #
straight-curve $-1 73.902401806695764 -42.436052872930546 1.8568853962371694 0 -1 0 I I #
coedge $-1 $414 $476 $416 $482 reversed $302 $-1 #
straight-curve $-1 0 -48.887339950218191 8.8942329991535427 1 0 0 I I #
edge $-1 $417 -3.5186738014581866 $478 3.5186738014581866 $416 $512 forward 7 unknown #
point $-1 73.902401806695764 -48.887339950218191 8.8942329991535427 #
straight-curve $-1 -73.902401806695764 -48.887339950218191 5.3755591976953561 0 0 -1 I I #
point $-1 -73.902401806695764 -48.887339950218191 1.8568853962371694 #
point $-1 -73.902401806695764 -48.887339950218191 8.8942329991535427 #
coedge $-1 $489 $428 $429 $488 reversed $323 $-1 #
edge $-1 $495 -73.902401806695764 $435 73.902401806695764 $487 $513 forward 7 unknown #
coedge $-1 $430 $487 $440 $494 reversed $323 $-1 #
straight-curve $-1 0 48.887339950218191 8.8942329991535427 -1 0 0 I I #
point $-1 73.902401806695764 48.887339950218191 8.8942329991535427 #
straight-curve $-1 73.902401806695764 48.887339950218191 5.3755591976953561 0 0 -1 I I #
point $-1 73.902401806695764 48.887339950218191 1.8568853962371694 #
edge $-1 $443 -3.5186738014581866 $495 3.5186738014581866 $489 $514 forward 7 unknown #
vertex $-1 $488 $515 #
straight-curve $-1 -73.902401806695764 42.436052872930546 1.8568853962371694 0 1 0 I I #
point $-1 -73.902401806695764 48.887339950218191 8.8942329991535427 #
straight-curve $-1 -73.902401806695764 -2.9620130092841066 47.062485372547414 0 0 -1 I I #
point $-1 -73.902401806695764 -2.9620130092841066 12.29107024704231 #
straight-curve $-1 -73.902401806695764 -4.6619844878559267 1.1083954465068533 0 -1 0 I I #
point $-1 -73.902401806695764 -2.9620130092841066 1.108395446506854 #
point $-1 -67.624381602692949 -12.050521532752317 5.2824127740250484 #
point $-1 -67.624381602692949 -6.5974164186713935 5.2824127740250484 #
straight-curve $-1 73.902401806695764 -23.082191641067602 104.30595737641397 0 0 -1 I I #
point $-1 73.902401806695764 -23.082191641067602 12.29107024704231 #
straight-curve $-1 73.902401806695764 -8.6742868672084175 6.7067990525006778 0 1 0 I I #
point $-1 73.902401806695764 -23.082191641067602 6.7067990525006849 #
point $-1 66.382943466538237 -19.805838551552878 6.0882853072780385 #
point $-1 66.382943466538237 -14.891308917280789 6.0882853072780385 #
straight-curve $-1 0 -48.887339950218191 1.8568853962371694 -1 0 0 I I #
point $-1 73.902401806695764 -48.887339950218191 1.8568853962371694 #
straight-curve $-1 73.902401806695764 -48.887339950218191 5.3755591976953561 0 0 -1 I I #
straight-curve $-1 0 48.887339950218191 1.8568853962371694 1 0 0 I I #
straight-curve $-1 -73.902401806695764 48.887339950218191 5.3755591976953561 0 0 -1 I I #
point $-1 -73.902401806695764 48.887339950218191 1.8568853962371694 #
End-of-ACIS-data 