500 0 8 0           
7 Unknown 11 ACIS 5.0 NT 24 Fri Mar 26 02:00:59 1999 
-1 9.9999999999999995e-007 1e-010 
body $-1 $8 $-1 $9 #
body $-1 $10 $-1 $11 #
body $-1 $12 $-1 $13 #
body $-1 $14 $-1 $15 #
body $-1 $16 $-1 $17 #
body $-1 $18 $-1 $19 #
body $-1 $20 $-1 $21 #
body $-1 $22 $-1 $23 #
lump $-1 $-1 $24 $0 #
transform $-1 1 0 0 0 1 0 0 0 1 63.736075930051577 42.722836137810994 11.060842793294841 1 rotate no_reflect no_shear #
lump $-1 $-1 $25 $1 #
transform $-1 1 0 0 0 1 0 0 0 1 63.736075930051577 42.722836137810994 11.060842793294841 1 rotate no_reflect no_shear #
lump $-1 $-1 $26 $2 #
transform $-1 1 0 0 0 1 0 0 0 1 63.736075930051577 42.722836137810994 11.060842793294841 1 rotate no_reflect no_shear #
lump $-1 $-1 $27 $3 #
transform $-1 1 0 0 0 1 0 0 0 1 63.736075930051577 42.722836137810994 11.060842793294841 1 rotate no_reflect no_shear #
lump $-1 $-1 $28 $4 #
transform $-1 1 0 0 0 1 0 0 0 1 63.736075930051577 42.722836137810994 11.060842793294841 1 rotate no_reflect no_shear #
lump $-1 $-1 $29 $5 #
transform $-1 1 0 0 0 1 0 0 0 1 63.736075930051577 42.722836137810994 11.060842793294841 1 rotate no_reflect no_shear #
lump $-1 $-1 $30 $6 #
transform $-1 1 0 0 0 1 0 0 0 1 63.736075930051577 42.722836137810994 11.060842793294841 1 rotate no_reflect no_shear #
lump $-1 $-1 $31 $7 #
transform $-1 1 0 0 0 1 0 0 0 1 63.736075930051577 42.722836137810994 11.060842793294841 1 rotate no_reflect no_shear #
shell $-1 $-1 $-1 $32 $-1 $8 #
shell $-1 $-1 $-1 $33 $-1 $10 #
shell $-1 $-1 $-1 $34 $-1 $12 #
shell $-1 $-1 $-1 $35 $-1 $14 #
shell $-1 $-1 $-1 $36 $-1 $16 #
shell $-1 $-1 $-1 $37 $-1 $18 #
shell $-1 $-1 $-1 $38 $-1 $20 #
shell $-1 $-1 $-1 $39 $-1 $22 #
face $-1 $40 $41 $24 $-1 $42 forward single #
face $-1 $43 $44 $25 $-1 $45 reversed single #
face $-1 $46 $47 $26 $-1 $48 reversed single #
face $-1 $49 $50 $27 $-1 $51 forward single #
face $-1 $52 $53 $28 $-1 $54 reversed single #
face $-1 $55 $56 $29 $-1 $57 forward single #
face $-1 $58 $59 $30 $-1 $60 forward single #
face $-1 $61 $62 $31 $-1 $63 forward single #
face $-1 $64 $65 $24 $-1 $66 reversed single #
loop $-1 $-1 $67 $32 #
plane-surface $-1 0 0 11.060842793294841 0 0 1 1 0 0 forward_v I I I I #
face $-1 $68 $69 $25 $-1 $70 reversed single #
loop $-1 $-1 $71 $33 #
plane-surface $-1 0 -37.592653398445407 6.6649282646543995 0 0 1 1 0 0 forward_v I I I I #
face $-1 $72 $73 $26 $-1 $74 reversed single #
loop $-1 $-1 $75 $34 #
plane-surface $-1 -171.83859263814381 -2.4797310942990869 71.840764898209613 0 1 0 -0.84804810408105047 0 0.52991925155115449 forward_v I I I I #
face $-1 $76 $77 $27 $-1 $78 forward single #
loop $-1 $79 $80 $35 #
cone-surface $-1 -60.795211532403052 2.2363588841850444 7.1598919333982218 0.84804810408105047 0 -0.52991925155115449 0.52991925155115449 0 0.84804810408105047 1 I I 0 1 1 forward I I I I #
face $-1 $81 $82 $28 $-1 $83 reversed single #
loop $-1 $-1 $84 $36 #
plane-surface $-1 20.124128702203258 -4.1364304296809919 180.70449979836107 0 -1 0 -0.51503808176128008 0 -0.85716729658548041 forward_v I I I I #
face $-1 $85 $86 $29 $-1 $87 forward single #
loop $-1 $88 $89 $37 #
cone-surface $-1 58.958900615600648 -14.45067879812607 7.7775985627252471 -0.51503808176128008 0 -0.85716729658548041 0.85716729658548041 0 -0.51503808176128008 1 I I 0 1 1 forward I I I I #
face $-1 $90 $91 $30 $-1 $92 forward single #
loop $-1 $93 $94 $38 #
cone-surface $-1 58.958900615600648 -10.582835659959166 7.7775985627252471 -0.51503808176128008 0 -0.85716729658548041 0.85716729658548041 0 -0.51503808176128008 1 I I 0 1 1 forward I I I I #
face $-1 $95 $96 $31 $-1 $97 forward single #
loop $-1 $98 $99 $39 #
cone-surface $-1 58.958900615600648 -6.7149925217922615 7.7775985627252471 -0.51503808176128008 0 -0.85716729658548041 0.85716729658548041 0 -0.51503808176128008 1 I I 0 1 1 forward I I I I #
face $-1 $100 $101 $24 $-1 $102 reversed single #
loop $-1 $-1 $103 $40 #
plane-surface $-1 0 0 -11.060842793294841 0 0 1 1 0 0 forward_v I I I I #
coedge $-1 $104 $105 $106 $107 forward $41 $-1 #
face $-1 $108 $109 $25 $-1 $110 reversed single #
loop $-1 $-1 $111 $43 #
plane-surface $-1 0 -32.46247065907982 8.8628855289746209 0 -1 0 0 0 -1 forward_v I I I I #
coedge $-1 $112 $113 $114 $115 reversed $44 $-1 #
face $-1 $116 $117 $26 $-1 $118 reversed single #
loop $-1 $-1 $119 $46 #
plane-surface $-1 -63.736075930051584 2.2363588841850444 4.2908175908886506 -0.84804810408105047 0 0.52991925155115449 0.52991925155115449 0 0.84804810408105047 forward_v I I I I #
coedge $-1 $120 $121 $122 $123 reversed $47 $-1 #
face $-1 $-1 $124 $27 $-1 $125 forward single #
loop $-1 $126 $127 $49 #
cone-surface $-1 -59.545513642646355 2.2363588841850444 6.3789940489291208 0.84804810408105047 0 -0.52991925155115449 0.26495962577557725 0 0.42402405204052523 1 I I -0.70710678118654746 0.70710678118654746 0.5 forward I I I I #
loop $-1 $-1 $128 $35 #
coedge $-1 $80 $80 $129 $130 reversed $50 $-1 #
face $-1 $131 $132 $28 $-1 $133 reversed single #
loop $-1 $-1 $134 $52 #
plane-surface $-1 -45.528883869806855 -10.582835659959166 71.439539998502639 0.51503808176128008 0 0.85716729658548041 0.85716729658548041 0 -0.51503808176128008 forward_v I I I I #
coedge $-1 $135 $136 $137 $138 reversed $53 $-1 #
face $-1 $-1 $139 $29 $-1 $140 forward single #
loop $-1 $141 $142 $55 #
cone-surface $-1 58.313173605014505 -14.45067879812607 6.7029283672640698 -0.51503808176128008 0 -0.85716729658548041 0.4285836482927402 0 -0.25751904088064004 1 I I -0.70710678118654746 0.70710678118654746 0.5 forward I I I I #
loop $-1 $-1 $143 $37 #
coedge $-1 $89 $89 $144 $145 reversed $56 $-1 #
face $-1 $-1 $146 $30 $-1 $147 forward single #
loop $-1 $148 $149 $58 #
cone-surface $-1 58.313173605014505 -10.582835659959166 6.7029283672640698 -0.51503808176128008 0 -0.85716729658548041 0.4285836482927402 0 -0.25751904088064004 1 I I -0.70710678118654746 0.70710678118654746 0.5 forward I I I I #
loop $-1 $-1 $150 $38 #
coedge $-1 $94 $94 $151 $152 reversed $59 $-1 #
face $-1 $-1 $153 $31 $-1 $154 forward single #
loop $-1 $155 $156 $61 #
cone-surface $-1 58.313173605014505 -6.7149925217922615 6.7029283672640698 -0.51503808176128008 0 -0.85716729658548041 0.4285836482927402 0 -0.25751904088064004 1 I I -0.70710678118654746 0.70710678118654746 0.5 forward I I I I #
loop $-1 $-1 $157 $39 #
coedge $-1 $99 $99 $158 $159 reversed $62 $-1 #
face $-1 $160 $161 $24 $-1 $162 reversed single #
loop $-1 $-1 $163 $64 #
plane-surface $-1 0 -42.722836137810994 0 0 1 0 0 0 1 forward_v I I I I #
coedge $-1 $164 $165 $166 $167 forward $65 $-1 #
coedge $-1 $168 $67 $169 $170 forward $41 $-1 #
coedge $-1 $67 $168 $171 $172 forward $41 $-1 #
coedge $-1 $173 $174 $67 $107 reversed $175 $-1 #
edge $-1 $176 -42.722836137810994 $177 42.722836137810994 $106 $178 forward 7 unknown #
face $-1 $179 $180 $25 $-1 $181 reversed single #
loop $-1 $-1 $182 $68 #
plane-surface $-1 -63.736075930051577 0 0 1 0 0 0 0 -1 forward_v I I I I #
coedge $-1 $183 $184 $185 $186 reversed $69 $-1 #
coedge $-1 $187 $71 $188 $189 reversed $44 $-1 #
coedge $-1 $71 $187 $183 $190 forward $44 $-1 #
coedge $-1 $185 $191 $71 $115 forward $192 $-1 #
edge $-1 $193 -23.92650943858829 $194 -13.666143959857116 $114 $195 forward 7 unknown #
face $-1 $196 $197 $26 $-1 $198 forward single #
loop $-1 $-1 $199 $72 #
plane-surface $-1 -171.83859263814381 6.9524488626691756 71.840764898209613 0 -1 0 0.84804810408105047 0 -0.52991925155115449 forward_v I I I I #
coedge $-1 $200 $201 $202 $203 reversed $73 $-1 #
coedge $-1 $121 $75 $204 $205 reversed $47 $-1 #
coedge $-1 $75 $120 $200 $206 reversed $47 $-1 #
coedge $-1 $202 $207 $75 $123 forward $197 $-1 #
edge $-1 $208 22.183220389020327 $209 26.413601508885037 $122 $210 forward 7 unknown #
loop $-1 $-1 $129 $76 #
plane-surface $-1 -63.736075930051584 2.2363588841850444 4.2908175908886506 -0.84804810408105047 0 0.52991925155115449 0.52991925155115449 0 0.84804810408105047 forward_v I I I I #
loop $-1 $-1 $211 $49 #
coedge $-1 $127 $127 $128 $212 reversed $77 $-1 #
coedge $-1 $128 $128 $127 $212 forward $79 $-1 #
coedge $-1 $129 $129 $80 $130 forward $124 $-1 #
edge $-1 $213 0 $213 6.2831853071796004 $129 $214 forward 7 unknown #
face $-1 $215 $216 $28 $-1 $217 reversed single #
loop $-1 $-1 $218 $81 #
plane-surface $-1 20.124128702203258 -17.02924089023734 180.70449979836107 0 1 0 0.51503808176128008 0 0.85716729658548041 forward_v I I I I #
coedge $-1 $219 $220 $221 $222 reversed $82 $-1 #
coedge $-1 $136 $84 $223 $224 reversed $53 $-1 #
coedge $-1 $84 $135 $219 $225 reversed $53 $-1 #
coedge $-1 $221 $226 $84 $138 forward $227 $-1 #
edge $-1 $228 -53.674011578949944 $229 -44.896076889459039 $137 $230 forward 7 unknown #
loop $-1 $-1 $144 $85 #
plane-surface $-1 -45.528883869806855 -10.582835659959166 71.439539998502639 0.51503808176128008 0 0.85716729658548041 0.85716729658548041 0 -0.51503808176128008 forward_v I I I I #
loop $-1 $-1 $231 $55 #
coedge $-1 $142 $142 $143 $232 reversed $86 $-1 #
coedge $-1 $143 $143 $142 $232 forward $88 $-1 #
coedge $-1 $144 $144 $89 $145 forward $139 $-1 #
edge $-1 $233 0 $233 6.2831853071796004 $144 $234 forward 7 unknown #
loop $-1 $-1 $151 $90 #
plane-surface $-1 -45.528883869806855 -10.582835659959166 71.439539998502639 0.51503808176128008 0 0.85716729658548041 0.85716729658548041 0 -0.51503808176128008 forward_v I I I I #
loop $-1 $-1 $235 $58 #
coedge $-1 $149 $149 $150 $236 reversed $91 $-1 #
coedge $-1 $150 $150 $149 $236 forward $93 $-1 #
coedge $-1 $151 $151 $94 $152 forward $146 $-1 #
edge $-1 $237 0 $237 6.2831853071796004 $151 $238 forward 7 unknown #
loop $-1 $-1 $158 $95 #
plane-surface $-1 -45.528883869806855 -10.582835659959166 71.439539998502639 0.51503808176128008 0 0.85716729658548041 0.85716729658548041 0 -0.51503808176128008 forward_v I I I I #
loop $-1 $-1 $239 $61 #
coedge $-1 $156 $156 $157 $240 reversed $96 $-1 #
coedge $-1 $157 $157 $156 $240 forward $98 $-1 #
coedge $-1 $158 $158 $99 $159 forward $153 $-1 #
edge $-1 $241 0 $241 6.2831853071796004 $158 $242 forward 7 unknown #
face $-1 $243 $244 $24 $-1 $245 reversed single #
loop $-1 $-1 $246 $100 #
plane-surface $-1 -63.736075930051577 0 0 1 0 0 0 0 -1 forward_v I I I I #
coedge $-1 $247 $171 $248 $249 forward $101 $-1 #
coedge $-1 $250 $103 $247 $251 forward $65 $-1 #
coedge $-1 $103 $250 $252 $253 forward $65 $-1 #
coedge $-1 $174 $173 $103 $167 reversed $175 $-1 #
edge $-1 $254 -42.722836137810994 $255 42.722836137810994 $166 $256 forward 7 unknown #
coedge $-1 $105 $104 $257 $258 forward $41 $-1 #
coedge $-1 $259 $260 $104 $170 reversed $244 $-1 #
edge $-1 $177 -63.736075930051577 $261 63.736075930051577 $169 $262 forward 7 unknown #
coedge $-1 $163 $263 $105 $172 reversed $101 $-1 #
edge $-1 $264 -63.736075930051577 $176 63.736075930051577 $171 $265 forward 7 unknown #
coedge $-1 $166 $106 $263 $266 forward $175 $-1 #
coedge $-1 $106 $166 $259 $267 reversed $175 $-1 #
loop $-1 $-1 $173 $243 #
vertex $-1 $107 $268 #
vertex $-1 $107 $269 #
straight-curve $-1 63.736075930051577 0 11.060842793294841 0 1 0 I I #
face $-1 $270 $271 $25 $-1 $272 forward single #
loop $-1 $-1 $188 $108 #
plane-surface $-1 0 -42.722836137810994 0 0 1 0 0 0 1 forward_v I I I I #
coedge $-1 $273 $274 $275 $276 forward $109 $-1 #
coedge $-1 $275 $111 $113 $190 reversed $69 $-1 #
coedge $-1 $111 $275 $277 $278 reversed $69 $-1 #
coedge $-1 $279 $114 $111 $186 forward $192 $-1 #
edge $-1 $194 2.233485500167089 $280 6.6294000288075319 $185 $281 forward 7 unknown #
coedge $-1 $113 $112 $273 $282 reversed $44 $-1 #
coedge $-1 $283 $284 $112 $189 forward $180 $-1 #
edge $-1 $285 -63.736075930051577 $193 63.736075930051577 $188 $286 forward 7 unknown #
edge $-1 $287 -63.736075930051577 $194 63.736075930051577 $183 $288 forward 7 unknown #
coedge $-1 $114 $279 $283 $289 forward $192 $-1 #
loop $-1 $-1 $185 $270 #
vertex $-1 $189 $290 #
vertex $-1 $115 $291 #
straight-curve $-1 63.736075930051577 -18.796326699222703 6.6649282646543995 0 1 0 I I #
face $-1 $-1 $292 $26 $-1 $293 reversed single #
loop $-1 $-1 $122 $116 #
plane-surface $-1 0 0 11.060842793294841 0 0 1 1 0 0 forward_v I I I I #
coedge $-1 $294 $295 $296 $297 reversed $117 $-1 #
coedge $-1 $298 $119 $121 $206 forward $73 $-1 #
coedge $-1 $119 $298 $294 $299 forward $73 $-1 #
coedge $-1 $296 $122 $119 $203 forward $197 $-1 #
edge $-1 $209 -3.5979105363916091 $300 5.8342694205766534 $202 $301 forward 7 unknown #
coedge $-1 $302 $303 $120 $205 forward $292 $-1 #
edge $-1 $304 -31.629564858216145 $208 -24.859539655809968 $204 $305 forward 7 unknown #
edge $-1 $209 -7.9830674342963448 $304 -1.3557137071152151e-014 $121 $306 forward 7 unknown #
coedge $-1 $122 $296 $302 $307 forward $197 $-1 #
vertex $-1 $205 $308 #
vertex $-1 $123 $309 #
straight-curve $-1 -85.919296319071904 -2.4797310942990869 11.060842793294839 1 0 0 I I #
coedge $-1 $211 $211 $-1 $310 reversed $126 $-1 #
edge $-1 $311 0 $311 6.2831853071796004 $127 $312 forward 7 unknown #
vertex $-1 $130 $313 #
ellipse-curve $-1 -61.620885370119225 2.2363588841850444 7.6758301920917482 -0.84804810408105047 0 0.52991925155115449 0.52991925155115449 0 0.84804810408105047 1 I I #
face $-1 $-1 $227 $28 $-1 $314 forward single #
loop $-1 $-1 $315 $131 #
plane-surface $-1 63.736075930051577 0 0 -1 0 0 0 0 1 forward_v I I I I #
coedge $-1 $316 $317 $318 $319 reversed $132 $-1 #
coedge $-1 $320 $134 $136 $225 forward $82 $-1 #
coedge $-1 $134 $320 $316 $321 forward $82 $-1 #
coedge $-1 $318 $137 $134 $222 forward $227 $-1 #
edge $-1 $229 -1.1549874002985909 $322 11.737823060257757 $221 $323 forward 7 unknown #
coedge $-1 $324 $325 $135 $224 forward $216 $-1 #
edge $-1 $326 -84.565722472688009 $228 -79.291407105885696 $223 $327 forward 7 unknown #
edge $-1 $229 117.23152004358641 $326 127.47215186010314 $136 $328 forward 7 unknown #
coedge $-1 $137 $318 $324 $329 forward $227 $-1 #
loop $-1 $-1 $318 $215 #
vertex $-1 $224 $330 #
vertex $-1 $138 $331 #
straight-curve $-1 10.062064351101629 -4.1364304296809919 11.060842793294839 -1 0 0 I I #
coedge $-1 $231 $231 $-1 $332 reversed $141 $-1 #
edge $-1 $333 0 $333 6.2831853071796004 $142 $334 forward 7 unknown #
vertex $-1 $145 $335 #
ellipse-curve $-1 59.347108585306138 -14.45067879812607 8.4236851098936718 0.51503808176128008 0 0.85716729658548041 0.85716729658548041 0 -0.51503808176128008 1 I I #
coedge $-1 $235 $235 $-1 $336 reversed $148 $-1 #
edge $-1 $337 0 $337 6.2831853071796004 $149 $338 forward 7 unknown #
vertex $-1 $152 $339 #
ellipse-curve $-1 59.347108585306138 -10.582835659959166 8.4236851098936718 0.51503808176128008 0 0.85716729658548041 0.85716729658548041 0 -0.51503808176128008 1 I I #
coedge $-1 $239 $239 $-1 $340 reversed $155 $-1 #
edge $-1 $341 0 $341 6.2831853071796004 $156 $342 forward 7 unknown #
vertex $-1 $159 $343 #
ellipse-curve $-1 59.347108585306138 -6.7149925217922615 8.4236851098936718 0.51503808176128008 0 0.85716729658548041 0.85716729658548041 0 -0.51503808176128008 1 I I #
face $-1 $-1 $175 $24 $-1 $344 reversed single #
loop $-1 $-1 $259 $160 #
plane-surface $-1 0 42.722836137810994 0 0 -1 0 0 0 -1 forward_v I I I I #
coedge $-1 $345 $257 $260 $346 forward $161 $-1 #
coedge $-1 $263 $163 $164 $251 reversed $101 $-1 #
coedge $-1 $257 $345 $163 $249 reversed $161 $-1 #
edge $-1 $264 -11.060842793294841 $347 11.060842793294841 $248 $348 forward 7 unknown #
coedge $-1 $165 $164 $345 $349 forward $65 $-1 #
edge $-1 $255 -63.736075930051577 $347 63.736075930051577 $247 $350 forward 7 unknown #
coedge $-1 $260 $259 $165 $253 reversed $244 $-1 #
edge $-1 $351 -63.736075930051577 $254 63.736075930051577 $252 $352 forward 7 unknown #
vertex $-1 $167 $353 #
vertex $-1 $266 $354 #
straight-curve $-1 63.736075930051577 0 -11.060842793294841 0 -1 0 I I #
coedge $-1 $246 $248 $168 $258 reversed $161 $-1 #
edge $-1 $261 -42.722836137810994 $264 42.722836137810994 $257 $355 forward 7 unknown #
coedge $-1 $252 $169 $174 $267 forward $244 $-1 #
coedge $-1 $169 $252 $246 $346 reversed $244 $-1 #
vertex $-1 $170 $356 #
straight-curve $-1 0 42.722836137810994 11.060842793294841 -1 0 0 I I #
coedge $-1 $171 $247 $173 $266 reversed $101 $-1 #
vertex $-1 $258 $357 #
straight-curve $-1 0 -42.722836137810994 11.060842793294841 1 0 0 I I #
edge $-1 $176 -11.060842793294841 $255 11.060842793294841 $173 $358 forward 7 unknown #
edge $-1 $177 -11.060842793294841 $254 11.060842793294841 $174 $359 forward 7 unknown #
point $-1 63.736075930051577 -42.722836137810994 11.060842793294841 #
point $-1 63.736075930051577 42.722836137810994 11.060842793294841 #
face $-1 $-1 $192 $25 $-1 $360 reversed single #
loop $-1 $-1 $277 $179 #
plane-surface $-1 0 0 11.060842793294841 0 0 1 1 0 0 forward_v I I I I #
coedge $-1 $361 $182 $187 $282 forward $109 $-1 #
coedge $-1 $182 $361 $362 $363 reversed $109 $-1 #
coedge $-1 $184 $183 $182 $276 reversed $69 $-1 #
edge $-1 $364 -6.6294000288075319 $287 -2.233485500167089 $182 $365 forward 7 unknown #
coedge $-1 $362 $366 $184 $278 forward $271 $-1 #
edge $-1 $280 -63.736075930051577 $364 63.736075930051577 $277 $367 forward 7 unknown #
coedge $-1 $191 $185 $366 $368 reversed $192 $-1 #
vertex $-1 $186 $369 #
straight-curve $-1 63.736075930051577 -32.46247065907982 4.4314427644873104 0 0 1 I I #
edge $-1 $287 13.666143959857116 $285 23.92650943858829 $273 $370 forward 7 unknown #
coedge $-1 $371 $188 $191 $289 reversed $180 $-1 #
coedge $-1 $188 $371 $361 $372 forward $180 $-1 #
vertex $-1 $189 $373 #
straight-curve $-1 0 -42.722836137810994 6.6649282646543995 1 0 0 I I #
vertex $-1 $282 $374 #
straight-curve $-1 0 -32.46247065907982 6.6649282646543995 1 0 0 I I #
edge $-1 $375 -11.060842793294841 $193 -6.6649282646543995 $191 $376 forward 7 unknown #
point $-1 63.736075930051577 -42.722836137810994 6.6649282646543995 #
point $-1 63.736075930051577 -32.46247065907982 6.6649282646543995 #
loop $-1 $-1 $204 $196 #
plane-surface $-1 -63.736075930051577 0 0 1 0 0 0 0 -1 forward_v I I I I #
coedge $-1 $295 $199 $201 $299 reversed $117 $-1 #
coedge $-1 $199 $294 $377 $378 reversed $117 $-1 #
coedge $-1 $207 $202 $199 $297 forward $197 $-1 #
edge $-1 $300 -26.413601508885037 $379 -22.183220389020327 $296 $380 forward 7 unknown #
coedge $-1 $201 $200 $303 $381 reversed $73 $-1 #
edge $-1 $382 1.3557137071152151e-014 $300 7.9830674342963448 $294 $383 forward 7 unknown #
vertex $-1 $203 $384 #
straight-curve $-1 -59.505694810186867 1.1181794420925222 11.060842793294841 0 1 0 I I #
coedge $-1 $377 $204 $207 $307 reversed $292 $-1 #
coedge $-1 $204 $377 $298 $381 forward $292 $-1 #
vertex $-1 $205 $385 #
straight-curve $-1 -63.736075930051577 -2.4797310942990869 35.920382449104807 0 0 1 I I #
straight-curve $-1 -63.736075930051584 -2.4797310942990869 4.2908175908886506 -0.52991925155115449 0 -0.84804810408105047 I I #
edge $-1 $379 -6.9524488626691756 $208 2.4797310942990869 $302 $386 forward 7 unknown #
point $-1 -63.736075930051577 -2.4797310942990869 11.060842793294841 #
point $-1 -59.505694810186867 -2.4797310942990869 11.060842793294841 #
edge $-1 $387 1 $387 0 $211 $-1 forward 7 unknown #
vertex $-1 $212 $388 #
ellipse-curve $-1 -59.969537694686878 2.2363588841850444 6.6439536747046981 -0.84804810408105047 0 0.52991925155115449 0.52991925155115449 0 0.84804810408105047 1 I I #
point $-1 -61.090966118568062 2.2363588841850444 8.5238782961727964 #
plane-surface $-1 0 0 11.060842793294841 0 0 1 1 0 0 forward_v I I I I #
coedge $-1 $325 $324 $317 $389 forward $216 $-1 #
coedge $-1 $317 $218 $220 $321 reversed $132 $-1 #
coedge $-1 $218 $316 $315 $389 reversed $132 $-1 #
coedge $-1 $226 $221 $218 $319 forward $227 $-1 #
edge $-1 $322 44.896076889459039 $390 53.674011578949944 $318 $391 forward 7 unknown #
coedge $-1 $220 $219 $325 $392 reversed $82 $-1 #
edge $-1 $393 -127.47215186010314 $322 -117.23152004358641 $316 $394 forward 7 unknown #
vertex $-1 $222 $395 #
straight-curve $-1 54.958141240560664 -5.2914178299795829 11.060842793294839 0 -1 0 I I #
coedge $-1 $315 $223 $226 $329 reversed $216 $-1 #
coedge $-1 $223 $315 $320 $392 forward $216 $-1 #
vertex $-1 $224 $396 #
straight-curve $-1 63.736075930051577 -4.1364304296809919 90.352249899180535 0 0 1 I I #
straight-curve $-1 -45.528883869806855 -4.1364304296809919 71.439539998502639 0.85716729658548041 0 -0.51503808176128008 I I #
edge $-1 $390 -17.02924089023734 $228 -4.1364304296809919 $324 $397 forward 7 unknown #
point $-1 63.736075930051577 -4.1364304296809919 11.060842793294841 #
point $-1 54.958141240560671 -4.1364304296809919 11.060842793294832 #
edge $-1 $398 1 $398 0 $231 $-1 forward 7 unknown #
vertex $-1 $232 $399 #
ellipse-curve $-1 58.570692645895143 -14.45067879812607 7.1315120155568099 0.51503808176128008 0 0.85716729658548041 0.85716729658548041 0 -0.51503808176128008 1 I I #
point $-1 60.204275881891625 -14.45067879812607 7.9086470281324051 #
edge $-1 $400 1 $400 0 $235 $-1 forward 7 unknown #
vertex $-1 $236 $401 #
ellipse-curve $-1 58.570692645895143 -10.582835659959166 7.1315120155568099 0.51503808176128008 0 0.85716729658548041 0.85716729658548041 0 -0.51503808176128008 1 I I #
point $-1 60.204275881891625 -10.582835659959166 7.9086470281324051 #
edge $-1 $402 1 $402 0 $239 $-1 forward 7 unknown #
vertex $-1 $240 $403 #
ellipse-curve $-1 58.570692645895143 -6.7149925217922615 7.1315120155568099 0.51503808176128008 0 0.85716729658548041 0.85716729658548041 0 -0.51503808176128008 1 I I #
point $-1 60.204275881891625 -6.7149925217922615 7.9086470281324051 #
plane-surface $-1 63.736075930051577 0 0 -1 0 0 0 0 1 forward_v I I I I #
coedge $-1 $248 $246 $250 $349 reversed $161 $-1 #
edge $-1 $261 -11.060842793294841 $351 11.060842793294841 $260 $404 forward 7 unknown #
vertex $-1 $349 $405 #
straight-curve $-1 -63.736075930051577 -42.722836137810994 0 0 0 -1 I I #
edge $-1 $347 -42.722836137810994 $351 42.722836137810994 $345 $406 forward 7 unknown #
straight-curve $-1 0 -42.722836137810994 -11.060842793294841 -1 0 0 I I #
vertex $-1 $253 $407 #
straight-curve $-1 0 42.722836137810994 -11.060842793294841 1 0 0 I I #
point $-1 63.736075930051577 42.722836137810994 -11.060842793294841 #
point $-1 63.736075930051577 -42.722836137810994 -11.060842793294841 #
straight-curve $-1 -63.736075930051577 0 11.060842793294841 0 -1 0 I I #
point $-1 -63.736075930051577 42.722836137810994 11.060842793294841 #
point $-1 -63.736075930051577 -42.722836137810994 11.060842793294841 #
straight-curve $-1 63.736075930051577 -42.722836137810994 0 0 0 -1 I I #
straight-curve $-1 63.736075930051577 42.722836137810994 0 0 0 -1 I I #
plane-surface $-1 63.736075930051577 0 0 -1 0 0 0 0 1 forward_v I I I I #
coedge $-1 $274 $273 $284 $372 reversed $109 $-1 #
coedge $-1 $408 $277 $274 $363 forward $271 $-1 #
edge $-1 $364 32.46247065907982 $409 42.722836137810994 $274 $410 forward 7 unknown #
vertex $-1 $363 $411 #
straight-curve $-1 -63.736075930051577 -32.46247065907982 4.4314427644873104 0 0 -1 I I #
coedge $-1 $277 $408 $279 $368 forward $271 $-1 #
straight-curve $-1 0 -32.46247065907982 11.060842793294841 -1 0 0 I I #
edge $-1 $375 -42.722836137810994 $280 -32.46247065907982 $279 $412 forward 7 unknown #
point $-1 63.736075930051577 -32.46247065907982 11.060842793294842 #
straight-curve $-1 -63.736075930051577 -18.796326699222703 6.6649282646543995 0 -1 0 I I #
coedge $-1 $284 $283 $408 $413 reversed $180 $-1 #
edge $-1 $409 -11.060842793294841 $285 -6.6649282646543995 $361 $414 forward 7 unknown #
point $-1 -63.736075930051577 -42.722836137810994 6.6649282646543995 #
point $-1 -63.736075930051577 -32.46247065907982 6.6649282646543995 #
vertex $-1 $368 $415 #
straight-curve $-1 63.736075930051577 -42.722836137810994 0 0 0 -1 I I #
coedge $-1 $303 $302 $295 $378 forward $292 $-1 #
edge $-1 $379 24.859539655809968 $382 31.629564858216145 $377 $416 forward 7 unknown #
vertex $-1 $307 $417 #
straight-curve $-1 -85.919296319071904 6.9524488626691756 11.060842793294839 -1 0 0 I I #
edge $-1 $382 -5.8342694205766534 $304 3.5979105363916091 $303 $418 forward 7 unknown #
vertex $-1 $381 $419 #
straight-curve $-1 -63.736075930051584 6.9524488626691756 4.2908175908886506 0.52991925155115449 0 0.84804810408105047 I I #
point $-1 -59.505694810186867 6.9524488626691756 11.060842793294841 #
point $-1 -63.736075930051577 -2.4797310942990869 4.2908175908886621 #
straight-curve $-1 -63.736075930051577 0 11.060842793294841 0 -1 0 I I #
vertex $-1 $310 $420 #
point $-1 -59.439618443135728 2.2363588841850444 7.4920017787857489 #
edge $-1 $390 79.291407105885696 $393 84.565722472688009 $315 $421 forward 7 unknown #
vertex $-1 $329 $422 #
straight-curve $-1 10.062064351101629 -17.02924089023734 11.060842793294839 1 0 0 I I #
edge $-1 $393 -11.737823060257757 $326 1.1549874002985909 $325 $423 forward 7 unknown #
vertex $-1 $392 $424 #
straight-curve $-1 -45.528883869806855 -17.02924089023734 71.439539998502639 -0.85716729658548041 0 0.51503808176128008 I I #
point $-1 54.958141240560671 -17.02924089023734 11.060842793294832 #
point $-1 63.736075930051577 -4.1364304296809919 5.7865274264925262 #
straight-curve $-1 63.736075930051577 0 11.060842793294841 0 1 0 I I #
vertex $-1 $332 $425 #
point $-1 59.427859942480623 -14.45067879812607 6.6164739337955298 #
vertex $-1 $336 $426 #
point $-1 59.427859942480623 -10.582835659959166 6.6164739337955298 #
vertex $-1 $340 $427 #
point $-1 59.427859942480623 -6.7149925217922615 6.6164739337955298 #
straight-curve $-1 -63.736075930051577 42.722836137810994 0 0 0 -1 I I #
point $-1 -63.736075930051577 -42.722836137810994 -11.060842793294841 #
straight-curve $-1 -63.736075930051577 0 -11.060842793294841 0 1 0 I I #
point $-1 -63.736075930051577 42.722836137810994 -11.060842793294841 #
coedge $-1 $366 $362 $371 $413 forward $271 $-1 #
vertex $-1 $363 $428 #
straight-curve $-1 -63.736075930051577 0 11.060842793294841 0 -1 0 I I #
point $-1 -63.736075930051577 -32.46247065907982 11.060842793294842 #
straight-curve $-1 63.736075930051577 0 11.060842793294841 0 1 0 I I #
edge $-1 $409 -63.736075930051577 $375 63.736075930051577 $371 $429 forward 7 unknown #
straight-curve $-1 -63.736075930051577 -42.722836137810994 0 0 0 -1 I I #
point $-1 63.736075930051577 -42.722836137810994 11.060842793294841 #
straight-curve $-1 -63.736075930051577 6.9524488626691756 35.920382449104807 0 0 -1 I I #
point $-1 -63.736075930051577 6.9524488626691756 11.060842793294841 #
straight-curve $-1 -63.736075930051577 1.1181794420925222 4.2908175908886648 0 -1 0 I I #
point $-1 -63.736075930051577 6.9524488626691756 4.2908175908886621 #
point $-1 -59.121489590605833 2.2363588841850444 6.1140344231535435 #
straight-curve $-1 63.736075930051577 -17.02924089023734 90.352249899180535 0 0 -1 I I #
point $-1 63.736075930051577 -17.02924089023734 11.060842793294841 #
straight-curve $-1 63.736075930051577 -5.2914178299795829 5.7865274264925262 0 1 0 I I #
point $-1 63.736075930051577 -17.02924089023734 5.7865274264925262 #
point $-1 58.055654564133867 -14.45067879812607 6.2743447189713297 #
point $-1 58.055654564133867 -10.582835659959166 6.2743447189713297 #
point $-1 58.055654564133867 -6.7149925217922615 6.2743447189713297 #
point $-1 -63.736075930051577 -42.722836137810994 11.060842793294841 #
straight-curve $-1 0 -42.722836137810994 11.060842793294841 1 0 0 I I #
End-of-ACIS-data 