500 0 16 0           
7 Unknown 11 ACIS 5.0 NT 24 Thu Mar 25 23:36:13 1999 
-1 9.9999999999999995e-007 1e-010 
body $-1 $16 $-1 $17 #
body $-1 $18 $-1 $19 #
body $-1 $20 $-1 $21 #
body $-1 $22 $-1 $23 #
body $-1 $24 $-1 $25 #
body $-1 $26 $-1 $27 #
body $-1 $28 $-1 $29 #
body $-1 $30 $-1 $31 #
body $-1 $32 $-1 $33 #
body $-1 $34 $-1 $35 #
body $-1 $36 $-1 $37 #
body $-1 $38 $-1 $39 #
body $-1 $40 $-1 $41 #
body $-1 $42 $-1 $43 #
body $-1 $44 $-1 $45 #
body $-1 $46 $-1 $47 #
lump $-1 $-1 $48 $0 #
transform $-1 1 0 0 0 1 0 0 0 1 51.233252967925047 24.07745554302727 5.0798015660421107 1 rotate no_reflect no_shear #
lump $-1 $-1 $49 $1 #
transform $-1 1 0 0 0 1 0 0 0 1 51.233252967925047 24.07745554302727 5.0798015660421107 1 rotate no_reflect no_shear #
lump $-1 $-1 $50 $2 #
transform $-1 1 0 0 0 1 0 0 0 1 51.233252967925047 24.07745554302727 5.0798015660421107 1 rotate no_reflect no_shear #
lump $-1 $-1 $51 $3 #
transform $-1 1 0 0 0 1 0 0 0 1 51.233252967925047 24.07745554302727 5.0798015660421107 1 rotate no_reflect no_shear #
lump $-1 $-1 $52 $4 #
transform $-1 1 0 0 0 1 0 0 0 1 51.233252967925047 24.07745554302727 5.0798015660421107 1 rotate no_reflect no_shear #
lump $-1 $-1 $53 $5 #
transform $-1 1 0 0 0 1 0 0 0 1 51.233252967925047 24.07745554302727 5.0798015660421107 1 rotate no_reflect no_shear #
lump $-1 $-1 $54 $6 #
transform $-1 1 0 0 0 1 0 0 0 1 51.233252967925047 24.07745554302727 5.0798015660421107 1 rotate no_reflect no_shear #
lump $-1 $-1 $55 $7 #
transform $-1 1 0 0 0 1 0 0 0 1 51.233252967925047 24.07745554302727 5.0798015660421107 1 rotate no_reflect no_shear #
lump $-1 $-1 $56 $8 #
transform $-1 1 0 0 0 1 0 0 0 1 51.233252967925047 24.07745554302727 5.0798015660421107 1 rotate no_reflect no_shear #
lump $-1 $-1 $57 $9 #
transform $-1 1 0 0 0 1 0 0 0 1 51.233252967925047 24.07745554302727 5.0798015660421107 1 rotate no_reflect no_shear #
lump $-1 $-1 $58 $10 #
transform $-1 1 0 0 0 1 0 0 0 1 51.233252967925047 24.07745554302727 5.0798015660421107 1 rotate no_reflect no_shear #
lump $-1 $-1 $59 $11 #
transform $-1 1 0 0 0 1 0 0 0 1 51.233252967925047 24.07745554302727 5.0798015660421107 1 rotate no_reflect no_shear #
lump $-1 $-1 $60 $12 #
transform $-1 1 0 0 0 1 0 0 0 1 51.233252967925047 24.07745554302727 5.0798015660421107 1 rotate no_reflect no_shear #
lump $-1 $-1 $61 $13 #
transform $-1 1 0 0 0 1 0 0 0 1 51.233252967925047 24.07745554302727 5.0798015660421107 1 rotate no_reflect no_shear #
lump $-1 $-1 $62 $14 #
transform $-1 1 0 0 0 1 0 0 0 1 51.233252967925047 24.07745554302727 5.0798015660421107 1 rotate no_reflect no_shear #
lump $-1 $-1 $63 $15 #
transform $-1 1 0 0 0 1 0 0 0 1 51.233252967925047 24.07745554302727 5.0798015660421107 1 rotate no_reflect no_shear #
shell $-1 $-1 $-1 $64 $-1 $16 #
shell $-1 $-1 $-1 $65 $-1 $18 #
shell $-1 $-1 $-1 $66 $-1 $20 #
shell $-1 $-1 $-1 $67 $-1 $22 #
shell $-1 $-1 $-1 $68 $-1 $24 #
shell $-1 $-1 $-1 $69 $-1 $26 #
shell $-1 $-1 $-1 $70 $-1 $28 #
shell $-1 $-1 $-1 $71 $-1 $30 #
shell $-1 $-1 $-1 $72 $-1 $32 #
shell $-1 $-1 $-1 $73 $-1 $34 #
shell $-1 $-1 $-1 $74 $-1 $36 #
shell $-1 $-1 $-1 $75 $-1 $38 #
shell $-1 $-1 $-1 $76 $-1 $40 #
shell $-1 $-1 $-1 $77 $-1 $42 #
shell $-1 $-1 $-1 $78 $-1 $44 #
shell $-1 $-1 $-1 $79 $-1 $46 #
face $-1 $80 $81 $48 $-1 $82 forward single #
face $-1 $83 $84 $49 $-1 $85 forward single #
face $-1 $86 $87 $50 $-1 $88 reversed single #
face $-1 $89 $90 $51 $-1 $91 forward single #
face $-1 $92 $93 $52 $-1 $94 forward single #
face $-1 $95 $96 $53 $-1 $97 reversed single #
face $-1 $98 $99 $54 $-1 $100 forward single #
face $-1 $101 $102 $55 $-1 $103 forward single #
face $-1 $104 $105 $56 $-1 $106 reversed single #
face $-1 $107 $108 $57 $-1 $109 forward single #
face $-1 $110 $111 $58 $-1 $112 forward single #
face $-1 $113 $114 $59 $-1 $115 reversed single #
face $-1 $116 $117 $60 $-1 $118 forward single #
face $-1 $119 $120 $61 $-1 $121 forward single #
face $-1 $122 $123 $62 $-1 $124 reversed single #
face $-1 $125 $126 $63 $-1 $127 forward single #
face $-1 $128 $129 $48 $-1 $130 reversed single #
loop $-1 $-1 $131 $64 #
plane-surface $-1 0 0 5.0798015660421107 0 0 1 1 0 0 forward_v I I I I #
face $-1 $132 $133 $49 $-1 $134 reversed single #
loop $-1 $-1 $135 $65 #
plane-surface $-1 -48.487792845126364 0 -2.0798015660421107 0 0 1 1 0 0 forward_v I I I I #
face $-1 $136 $137 $50 $-1 $138 reversed single #
loop $-1 $-1 $139 $66 #
plane-surface $-1 -42.749499637368402 37.538751237490452 113.99971061373708 1 0 0 0 -0.52991927123019833 -0.84804809178421925 forward_v I I I I #
face $-1 $140 $141 $51 $-1 $142 forward single #
loop $-1 $143 $144 $67 #
cone-surface $-1 -38.538270913051861 20.150789545133684 1.5236614422944061 0 -0.52991927123019833 -0.84804809178421925 1.5 0 0 1 I I 0 1 1.5 forward I I I I #
face $-1 $145 $146 $52 $-1 $147 forward single #
loop $-1 $148 $149 $68 #
cone-surface $-1 -32.221427826577035 20.150789545133684 1.5236614422944061 0 -0.52991927123019833 -0.84804809178421925 1.5 0 0 1 I I 0 1 1.5 forward I I I I #
face $-1 $150 $151 $53 $-1 $152 reversed single #
loop $-1 $-1 $153 $69 #
plane-surface $-1 -17.332626642292979 37.538751237490452 113.99971061373708 1 0 0 0 -0.52991927123019833 -0.84804809178421925 forward_v I I I I #
face $-1 $154 $155 $54 $-1 $156 forward single #
loop $-1 $157 $158 $70 #
cone-surface $-1 -13.121397917976438 20.150789545133684 1.5236614422944061 0 -0.52991927123019833 -0.84804809178421925 1.5 0 0 1 I I 0 1 1.5 forward I I I I #
face $-1 $159 $160 $55 $-1 $161 forward single #
loop $-1 $162 $163 $71 #
cone-surface $-1 -6.804554831501612 20.150789545133684 1.5236614422944061 0 -0.52991927123019833 -0.84804809178421925 1.5 0 0 1 I I 0 1 1.5 forward I I I I #
face $-1 $164 $165 $56 $-1 $166 reversed single #
loop $-1 $-1 $167 $72 #
plane-surface $-1 8.0842463527824435 37.538751237490452 113.99971061373708 1 0 0 0 -0.52991927123019833 -0.84804809178421925 forward_v I I I I #
face $-1 $168 $169 $57 $-1 $170 forward single #
loop $-1 $171 $172 $73 #
cone-surface $-1 12.295475077098978 20.150789545133684 1.5236614422944061 0 -0.52991927123019833 -0.84804809178421925 1.5 0 0 1 I I 0 1 1.5 forward I I I I #
face $-1 $173 $174 $58 $-1 $175 forward single #
loop $-1 $176 $177 $74 #
cone-surface $-1 18.612318163573811 20.150789545133684 1.5236614422944061 0 -0.52991927123019833 -0.84804809178421925 1.5 0 0 1 I I 0 1 1.5 forward I I I I #
face $-1 $178 $179 $59 $-1 $180 reversed single #
loop $-1 $-1 $181 $75 #
plane-surface $-1 33.501119347857866 37.538751237490452 113.99971061373708 1 0 0 0 -0.52991927123019833 -0.84804809178421925 forward_v I I I I #
face $-1 $182 $183 $60 $-1 $184 forward single #
loop $-1 $185 $186 $76 #
cone-surface $-1 37.7123480721744 20.150789545133684 1.5236614422944061 0 -0.52991927123019833 -0.84804809178421925 1.5 0 0 1 I I 0 1 1.5 forward I I I I #
face $-1 $187 $188 $61 $-1 $189 forward single #
loop $-1 $190 $191 $77 #
cone-surface $-1 44.029191158649233 20.150789545133684 1.5236614422944061 0 -0.52991927123019833 -0.84804809178421925 1.5 0 0 1 I I 0 1 1.5 forward I I I I #
face $-1 $192 $193 $62 $-1 $194 reversed single #
loop $-1 $-1 $195 $78 #
plane-surface $-1 -19.447538126952047 -78.376431694057743 88.687082470332953 -1 0 0 0 -0.52991927123019833 0.84804809178421925 forward_v I I I I #
face $-1 $196 $197 $63 $-1 $198 forward single #
loop $-1 $199 $200 $79 #
cone-surface $-1 -31.38828786922867 -20.808764571699161 2.4161734840693607 0 0.52991927123019833 -0.84804809178421925 1 0 0 1 I I 0 1 1 forward I I I I #
face $-1 $201 $202 $48 $-1 $203 reversed single #
loop $-1 $-1 $204 $80 #
plane-surface $-1 0 0 -5.0798015660421107 0 0 1 1 0 0 forward_v I I I I #
coedge $-1 $205 $206 $207 $208 forward $81 $-1 #
face $-1 $209 $210 $49 $-1 $211 reversed single #
loop $-1 $-1 $212 $83 #
plane-surface $-1 -45.742332722327681 0 -3.5798015660421107 -1 0 0 0 0 1 forward_v I I I I #
coedge $-1 $213 $214 $215 $216 forward $84 $-1 #
face $-1 $217 $218 $50 $-1 $219 reversed single #
loop $-1 $-1 $220 $86 #
plane-surface $-1 -35.379849369814444 -16.760224913540021 27.103185783043031 0 0.52991927123019833 0.84804809178421925 1 0 0 forward_v I I I I #
coedge $-1 $221 $222 $223 $224 reversed $87 $-1 #
face $-1 $-1 $225 $51 $-1 $226 forward single #
loop $-1 $227 $228 $89 #
cone-surface $-1 -38.538270913051861 18.623133541237209 -0.92109916435341432 0 -0.52991927123019833 -0.84804809178421925 0.75 0 0 1 I I -0.70710678118654757 0.70710678118654757 0.75 forward I I I I #
loop $-1 $-1 $229 $67 #
coedge $-1 $144 $144 $230 $231 reversed $90 $-1 #
face $-1 $-1 $232 $52 $-1 $233 forward single #
loop $-1 $234 $235 $92 #
cone-surface $-1 -32.221427826577035 18.623133541237209 -0.92109916435341432 0 -0.52991927123019833 -0.84804809178421925 0.75 0 0 1 I I -0.70710678118654757 0.70710678118654757 0.75 forward I I I I #
loop $-1 $-1 $236 $68 #
coedge $-1 $149 $149 $237 $238 reversed $93 $-1 #
face $-1 $239 $240 $53 $-1 $241 reversed single #
loop $-1 $-1 $242 $95 #
plane-surface $-1 -9.9629763747390214 -16.760224913540021 27.103185783043031 0 0.52991927123019833 0.84804809178421925 1 0 0 forward_v I I I I #
coedge $-1 $243 $244 $245 $246 reversed $96 $-1 #
face $-1 $-1 $247 $54 $-1 $248 forward single #
loop $-1 $249 $250 $98 #
cone-surface $-1 -13.121397917976438 18.623133541237209 -0.92109916435341432 0 -0.52991927123019833 -0.84804809178421925 0.75 0 0 1 I I -0.70710678118654757 0.70710678118654757 0.75 forward I I I I #
loop $-1 $-1 $251 $70 #
coedge $-1 $158 $158 $252 $253 reversed $99 $-1 #
face $-1 $-1 $254 $55 $-1 $255 forward single #
loop $-1 $256 $257 $101 #
cone-surface $-1 -6.804554831501612 18.623133541237209 -0.92109916435341432 0 -0.52991927123019833 -0.84804809178421925 0.75 0 0 1 I I -0.70710678118654757 0.70710678118654757 0.75 forward I I I I #
loop $-1 $-1 $258 $71 #
coedge $-1 $163 $163 $259 $260 reversed $102 $-1 #
face $-1 $261 $262 $56 $-1 $263 reversed single #
loop $-1 $-1 $264 $104 #
plane-surface $-1 15.453896620336401 -16.760224913540021 27.103185783043031 0 0.52991927123019833 0.84804809178421925 1 0 0 forward_v I I I I #
coedge $-1 $265 $266 $267 $268 reversed $105 $-1 #
face $-1 $-1 $269 $57 $-1 $270 forward single #
loop $-1 $271 $272 $107 #
cone-surface $-1 12.295475077098978 18.623133541237209 -0.92109916435341432 0 -0.52991927123019833 -0.84804809178421925 0.75 0 0 1 I I -0.70710678118654757 0.70710678118654757 0.75 forward I I I I #
loop $-1 $-1 $273 $73 #
coedge $-1 $172 $172 $274 $275 reversed $108 $-1 #
face $-1 $-1 $276 $58 $-1 $277 forward single #
loop $-1 $278 $279 $110 #
cone-surface $-1 18.612318163573811 18.623133541237209 -0.92109916435341432 0 -0.52991927123019833 -0.84804809178421925 0.75 0 0 1 I I -0.70710678118654757 0.70710678118654757 0.75 forward I I I I #
loop $-1 $-1 $280 $74 #
coedge $-1 $177 $177 $281 $282 reversed $111 $-1 #
face $-1 $283 $284 $59 $-1 $285 reversed single #
loop $-1 $-1 $286 $113 #
plane-surface $-1 40.870769615411824 -16.760224913540021 27.103185783043031 0 0.52991927123019833 0.84804809178421925 1 0 0 forward_v I I I I #
coedge $-1 $287 $288 $289 $290 reversed $114 $-1 #
face $-1 $-1 $291 $60 $-1 $292 forward single #
loop $-1 $293 $294 $116 #
cone-surface $-1 37.7123480721744 18.623133541237209 -0.92109916435341432 0 -0.52991927123019833 -0.84804809178421925 0.75 0 0 1 I I -0.70710678118654757 0.70710678118654757 0.75 forward I I I I #
loop $-1 $-1 $295 $76 #
coedge $-1 $186 $186 $296 $297 reversed $117 $-1 #
face $-1 $-1 $298 $61 $-1 $299 forward single #
loop $-1 $300 $301 $119 #
cone-surface $-1 44.029191158649233 18.623133541237209 -0.92109916435341432 0 -0.52991927123019833 -0.84804809178421925 0.75 0 0 1 I I -0.70710678118654757 0.70710678118654757 0.75 forward I I I I #
loop $-1 $-1 $302 $77 #
coedge $-1 $191 $191 $303 $304 reversed $120 $-1 #
face $-1 $305 $306 $62 $-1 $307 reversed single #
loop $-1 $-1 $308 $122 #
plane-surface $-1 -31.38828786922867 -24.07745554302727 1.7905576396389051 0 -0.52991927123019833 0.84804809178421925 1 0 0 forward_v I I I I #
coedge $-1 $309 $310 $311 $312 reversed $123 $-1 #
face $-1 $-1 $313 $63 $-1 $314 forward single #
loop $-1 $315 $316 $125 #
cone-surface $-1 -31.38828786922867 -19.907059231365565 0.97314331940610366 0 0.52991927123019833 -0.84804809178421925 0.5 0 0 1 I I -0.70710678118654746 0.70710678118654746 0.5 forward I I I I #
loop $-1 $-1 $317 $79 #
coedge $-1 $200 $200 $318 $319 reversed $126 $-1 #
face $-1 $320 $321 $48 $-1 $322 reversed single #
loop $-1 $-1 $323 $128 #
plane-surface $-1 0 -24.07745554302727 0 0 1 0 0 0 1 forward_v I I I I #
coedge $-1 $324 $325 $326 $327 forward $129 $-1 #
coedge $-1 $328 $131 $329 $330 forward $81 $-1 #
coedge $-1 $131 $328 $331 $332 forward $81 $-1 #
coedge $-1 $333 $334 $131 $208 reversed $335 $-1 #
edge $-1 $336 -24.07745554302727 $337 24.07745554302727 $207 $338 forward 7 unknown #
face $-1 $339 $340 $49 $-1 $341 reversed single #
loop $-1 $-1 $342 $132 #
plane-surface $-1 0 0 -5.0798015660421107 0 0 1 1 0 0 forward_v I I I I #
coedge $-1 $343 $215 $344 $345 reversed $133 $-1 #
coedge $-1 $346 $135 $347 $348 reversed $84 $-1 #
coedge $-1 $135 $346 $349 $350 reversed $84 $-1 #
coedge $-1 $212 $351 $135 $216 reversed $133 $-1 #
edge $-1 $352 -24.07745554302727 $353 24.07745554302727 $215 $354 forward 7 unknown #
face $-1 $355 $356 $50 $-1 $357 reversed single #
loop $-1 $-1 $358 $136 #
plane-surface $-1 -28.010199102260486 37.538751237490452 113.99971061373708 -1 0 0 0 0.52991927123019833 0.84804809178421925 forward_v I I I I #
coedge $-1 $359 $360 $361 $362 reversed $137 $-1 #
coedge $-1 $222 $139 $363 $364 reversed $87 $-1 #
coedge $-1 $139 $221 $359 $365 reversed $87 $-1 #
coedge $-1 $361 $366 $139 $224 forward $367 $-1 #
edge $-1 $368 -5.308079924282044 $369 0.2848189705574562 $223 $370 forward 7 unknown #
loop $-1 $-1 $230 $140 #
plane-surface $-1 -35.379849369814444 -16.760224913540021 27.103185783043031 0 0.52991927123019833 0.84804809178421925 1 0 0 forward_v I I I I #
loop $-1 $-1 $371 $89 #
coedge $-1 $228 $228 $229 $372 reversed $141 $-1 #
coedge $-1 $229 $229 $228 $372 forward $143 $-1 #
coedge $-1 $230 $230 $144 $231 forward $225 $-1 #
edge $-1 $373 -8.7941033535074744e-016 $373 6.2831853071795996 $230 $374 forward 7 unknown #
loop $-1 $-1 $237 $145 #
plane-surface $-1 -35.379849369814444 -16.760224913540021 27.103185783043031 0 0.52991927123019833 0.84804809178421925 1 0 0 forward_v I I I I #
loop $-1 $-1 $375 $92 #
coedge $-1 $235 $235 $236 $376 reversed $146 $-1 #
coedge $-1 $236 $236 $235 $376 forward $148 $-1 #
coedge $-1 $237 $237 $149 $238 forward $232 $-1 #
edge $-1 $377 -8.7941033535074744e-016 $377 6.2831853071795996 $237 $378 forward 7 unknown #
face $-1 $379 $380 $53 $-1 $381 forward single #
loop $-1 $-1 $382 $150 #
plane-surface $-1 -2.5933261071850628 37.538751237490452 113.99971061373708 -1 0 0 0 0.52991927123019833 0.84804809178421925 forward_v I I I I #
coedge $-1 $383 $384 $385 $386 reversed $151 $-1 #
coedge $-1 $244 $153 $387 $388 reversed $96 $-1 #
coedge $-1 $153 $243 $383 $389 reversed $96 $-1 #
coedge $-1 $385 $390 $153 $246 forward $380 $-1 #
edge $-1 $391 -5.308079924282044 $392 0.2848189705574562 $245 $393 forward 7 unknown #
loop $-1 $-1 $252 $154 #
plane-surface $-1 -9.9629763747390214 -16.760224913540021 27.103185783043031 0 0.52991927123019833 0.84804809178421925 1 0 0 forward_v I I I I #
loop $-1 $-1 $394 $98 #
coedge $-1 $250 $250 $251 $395 reversed $155 $-1 #
coedge $-1 $251 $251 $250 $395 forward $157 $-1 #
coedge $-1 $252 $252 $158 $253 forward $247 $-1 #
edge $-1 $396 -8.7941033535074744e-016 $396 6.2831853071795996 $252 $397 forward 7 unknown #
loop $-1 $-1 $259 $159 #
plane-surface $-1 -9.9629763747390214 -16.760224913540021 27.103185783043031 0 0.52991927123019833 0.84804809178421925 1 0 0 forward_v I I I I #
loop $-1 $-1 $398 $101 #
coedge $-1 $257 $257 $258 $399 reversed $160 $-1 #
coedge $-1 $258 $258 $257 $399 forward $162 $-1 #
coedge $-1 $259 $259 $163 $260 forward $254 $-1 #
edge $-1 $400 -8.7941033535074744e-016 $400 6.2831853071795996 $259 $401 forward 7 unknown #
face $-1 $402 $403 $56 $-1 $404 forward single #
loop $-1 $-1 $405 $164 #
plane-surface $-1 22.823546887890359 37.538751237490452 113.99971061373708 -1 0 0 0 0.52991927123019833 0.84804809178421925 forward_v I I I I #
coedge $-1 $406 $407 $408 $409 reversed $165 $-1 #
coedge $-1 $266 $167 $410 $411 reversed $105 $-1 #
coedge $-1 $167 $265 $406 $412 reversed $105 $-1 #
coedge $-1 $408 $413 $167 $268 forward $403 $-1 #
edge $-1 $414 -5.308079924282044 $415 0.2848189705574562 $267 $416 forward 7 unknown #
loop $-1 $-1 $274 $168 #
plane-surface $-1 15.453896620336401 -16.760224913540021 27.103185783043031 0 0.52991927123019833 0.84804809178421925 1 0 0 forward_v I I I I #
loop $-1 $-1 $417 $107 #
coedge $-1 $272 $272 $273 $418 reversed $169 $-1 #
coedge $-1 $273 $273 $272 $418 forward $171 $-1 #
coedge $-1 $274 $274 $172 $275 forward $269 $-1 #
edge $-1 $419 -8.7941033535074744e-016 $419 6.2831853071795996 $274 $420 forward 7 unknown #
loop $-1 $-1 $281 $173 #
plane-surface $-1 15.453896620336401 -16.760224913540021 27.103185783043031 0 0.52991927123019833 0.84804809178421925 1 0 0 forward_v I I I I #
loop $-1 $-1 $421 $110 #
coedge $-1 $279 $279 $280 $422 reversed $174 $-1 #
coedge $-1 $280 $280 $279 $422 forward $176 $-1 #
coedge $-1 $281 $281 $177 $282 forward $276 $-1 #
edge $-1 $423 -8.7941033535074744e-016 $423 6.2831853071795996 $281 $424 forward 7 unknown #
face $-1 $425 $426 $59 $-1 $427 forward single #
loop $-1 $-1 $428 $178 #
plane-surface $-1 48.240419882965782 37.538751237490452 113.99971061373708 -1 0 0 0 0.52991927123019833 0.84804809178421925 forward_v I I I I #
coedge $-1 $429 $430 $431 $432 reversed $179 $-1 #
coedge $-1 $288 $181 $433 $434 reversed $114 $-1 #
coedge $-1 $181 $287 $429 $435 reversed $114 $-1 #
coedge $-1 $431 $436 $181 $290 forward $426 $-1 #
edge $-1 $437 -5.308079924282044 $438 0.2848189705574562 $289 $439 forward 7 unknown #
loop $-1 $-1 $296 $182 #
plane-surface $-1 40.870769615411824 -16.760224913540021 27.103185783043031 0 0.52991927123019833 0.84804809178421925 1 0 0 forward_v I I I I #
loop $-1 $-1 $440 $116 #
coedge $-1 $294 $294 $295 $441 reversed $183 $-1 #
coedge $-1 $295 $295 $294 $441 forward $185 $-1 #
coedge $-1 $296 $296 $186 $297 forward $291 $-1 #
edge $-1 $442 -8.7941033535074744e-016 $442 6.2831853071795996 $296 $443 forward 7 unknown #
loop $-1 $-1 $303 $187 #
plane-surface $-1 40.870769615411824 -16.760224913540021 27.103185783043031 0 0.52991927123019833 0.84804809178421925 1 0 0 forward_v I I I I #
loop $-1 $-1 $444 $119 #
coedge $-1 $301 $301 $302 $445 reversed $188 $-1 #
coedge $-1 $302 $302 $301 $445 forward $190 $-1 #
coedge $-1 $303 $303 $191 $304 forward $298 $-1 #
edge $-1 $446 -8.7941033535074744e-016 $446 6.2831853071795996 $303 $447 forward 7 unknown #
face $-1 $448 $449 $62 $-1 $450 forward single #
loop $-1 $-1 $451 $192 #
plane-surface $-1 -43.329037611505292 -78.376431694057743 88.687082470332953 1 0 0 0 0.52991927123019833 -0.84804809178421925 forward_v I I I I #
coedge $-1 $452 $453 $454 $455 reversed $193 $-1 #
coedge $-1 $310 $195 $456 $457 reversed $123 $-1 #
coedge $-1 $195 $309 $452 $458 reversed $123 $-1 #
coedge $-1 $454 $459 $195 $312 forward $449 $-1 #
edge $-1 $460 15.110760304001602 $461 20.374650837220827 $311 $462 forward 7 unknown #
loop $-1 $-1 $318 $196 #
plane-surface $-1 -31.38828786922867 -24.07745554302727 1.7905576396389051 0 -0.52991927123019833 0.84804809178421925 1 0 0 forward_v I I I I #
loop $-1 $-1 $463 $125 #
coedge $-1 $316 $316 $317 $464 reversed $197 $-1 #
coedge $-1 $317 $317 $316 $464 forward $199 $-1 #
coedge $-1 $318 $318 $200 $319 forward $313 $-1 #
edge $-1 $465 -2.353314304449398e-016 $465 6.2831853071796004 $318 $466 forward 7 unknown #
face $-1 $467 $468 $48 $-1 $469 reversed single #
loop $-1 $-1 $470 $201 #
plane-surface $-1 -51.233252967925047 0 0 1 0 0 0 0 -1 forward_v I I I I #
coedge $-1 $471 $331 $472 $473 forward $202 $-1 #
coedge $-1 $474 $204 $471 $475 forward $129 $-1 #
coedge $-1 $204 $474 $476 $477 forward $129 $-1 #
coedge $-1 $334 $333 $204 $327 reversed $335 $-1 #
edge $-1 $478 -24.07745554302727 $479 24.07745554302727 $326 $480 forward 7 unknown #
coedge $-1 $206 $205 $481 $482 forward $81 $-1 #
coedge $-1 $483 $484 $205 $330 reversed $468 $-1 #
edge $-1 $337 -51.233252967925047 $485 51.233252967925047 $329 $486 forward 7 unknown #
coedge $-1 $323 $487 $206 $332 reversed $202 $-1 #
edge $-1 $488 -51.233252967925047 $336 51.233252967925047 $331 $489 forward 7 unknown #
coedge $-1 $326 $207 $487 $490 forward $335 $-1 #
coedge $-1 $207 $326 $483 $491 reversed $335 $-1 #
loop $-1 $-1 $333 $467 #
vertex $-1 $208 $492 #
vertex $-1 $208 $493 #
straight-curve $-1 51.233252967925047 0 5.0798015660421107 0 1 0 I I #
face $-1 $494 $495 $49 $-1 $496 reversed single #
loop $-1 $-1 $344 $209 #
plane-surface $-1 0 -24.07745554302727 0 0 1 0 0 0 1 forward_v I I I I #
coedge $-1 $497 $498 $343 $499 forward $210 $-1 #
coedge $-1 $351 $212 $342 $499 reversed $133 $-1 #
coedge $-1 $349 $500 $212 $345 forward $340 $-1 #
edge $-1 $501 -3.2899007830210554 $352 -0.28990078302105537 $344 $502 forward 7 unknown #
coedge $-1 $214 $213 $503 $504 reversed $84 $-1 #
coedge $-1 $505 $506 $213 $348 forward $507 $-1 #
edge $-1 $508 -26.989356545361865 $353 -21.498436299764499 $347 $509 forward 7 unknown #
coedge $-1 $510 $344 $214 $350 forward $340 $-1 #
edge $-1 $352 21.498436299764499 $511 26.989356545361865 $349 $512 forward 7 unknown #
coedge $-1 $215 $343 $505 $513 reversed $133 $-1 #
vertex $-1 $350 $514 #
vertex $-1 $348 $515 #
straight-curve $-1 -45.742332722327681 0 -2.0798015660421107 0 1 0 I I #
face $-1 $-1 $367 $50 $-1 $516 forward single #
loop $-1 $-1 $517 $217 #
plane-surface $-1 0 24.07745554302727 0 0 -1 0 0 0 -1 forward_v I I I I #
coedge $-1 $518 $519 $520 $521 reversed $218 $-1 #
coedge $-1 $522 $220 $222 $365 forward $137 $-1 #
coedge $-1 $220 $522 $518 $523 forward $137 $-1 #
coedge $-1 $520 $223 $220 $362 forward $367 $-1 #
edge $-1 $369 -25.05957495246118 $524 -10.320274417353264 $361 $525 forward 7 unknown #
coedge $-1 $526 $527 $221 $364 forward $356 $-1 #
edge $-1 $528 -55.414884912702526 $368 -51.920053740826432 $363 $529 forward 7 unknown #
edge $-1 $369 41.559885463070671 $528 48.15491108605454 $222 $530 forward 7 unknown #
coedge $-1 $223 $520 $526 $531 forward $367 $-1 #
loop $-1 $-1 $520 $355 #
vertex $-1 $364 $532 #
vertex $-1 $224 $533 #
straight-curve $-1 -42.749499637368402 18.769375618745226 5.0798015660421072 0 -1 0 I I #
coedge $-1 $371 $371 $-1 $534 reversed $227 $-1 #
edge $-1 $535 0 $535 6.2831853071796004 $228 $536 forward 7 unknown #
vertex $-1 $231 $537 #
ellipse-curve $-1 -38.538270913051861 21.281006095607516 3.3323859801040712 0 0.52991927123019833 0.84804809178421925 1.5 0 0 1 I I #
coedge $-1 $375 $375 $-1 $538 reversed $234 $-1 #
edge $-1 $539 0 $539 6.2831853071796004 $235 $540 forward 7 unknown #
vertex $-1 $238 $541 #
ellipse-curve $-1 -32.221427826577035 21.281006095607516 3.3323859801040712 0 0.52991927123019833 0.84804809178421925 1.5 0 0 1 I I #
face $-1 $-1 $542 $53 $-1 $543 reversed single #
loop $-1 $-1 $245 $239 #
plane-surface $-1 0 0 5.0798015660421107 0 0 1 1 0 0 forward_v I I I I #
coedge $-1 $544 $545 $546 $547 reversed $240 $-1 #
coedge $-1 $548 $242 $244 $389 forward $151 $-1 #
coedge $-1 $242 $548 $544 $549 forward $151 $-1 #
coedge $-1 $546 $245 $242 $386 forward $380 $-1 #
edge $-1 $392 -12.351138454923468 $550 2.3881620801844479 $385 $551 forward 7 unknown #
coedge $-1 $552 $553 $243 $388 forward $542 $-1 #
edge $-1 $554 -55.414884912702526 $391 -51.920053740826432 $387 $555 forward 7 unknown #
edge $-1 $392 41.559885463070671 $554 48.15491108605454 $244 $556 forward 7 unknown #
coedge $-1 $245 $546 $552 $557 forward $380 $-1 #
vertex $-1 $246 $558 #
vertex $-1 $246 $559 #
straight-curve $-1 -17.332626642292979 18.769375618745226 5.0798015660421072 0 -1 0 I I #
coedge $-1 $394 $394 $-1 $560 reversed $249 $-1 #
edge $-1 $561 0 $561 6.2831853071796004 $250 $562 forward 7 unknown #
vertex $-1 $253 $563 #
ellipse-curve $-1 -13.121397917976438 21.281006095607516 3.3323859801040712 0 0.52991927123019833 0.84804809178421925 1.5 0 0 1 I I #
coedge $-1 $398 $398 $-1 $564 reversed $256 $-1 #
edge $-1 $565 0 $565 6.2831853071796004 $257 $566 forward 7 unknown #
vertex $-1 $260 $567 #
ellipse-curve $-1 -6.804554831501612 21.281006095607516 3.3323859801040712 0 0.52991927123019833 0.84804809178421925 1.5 0 0 1 I I #
face $-1 $-1 $568 $56 $-1 $569 reversed single #
loop $-1 $-1 $267 $261 #
plane-surface $-1 0 0 5.0798015660421107 0 0 1 1 0 0 forward_v I I I I #
coedge $-1 $570 $571 $572 $573 reversed $262 $-1 #
coedge $-1 $574 $264 $266 $412 forward $165 $-1 #
coedge $-1 $264 $574 $570 $575 forward $165 $-1 #
coedge $-1 $572 $267 $264 $409 forward $403 $-1 #
edge $-1 $415 0.35729804261424292 $576 15.096598577722158 $408 $577 forward 7 unknown #
coedge $-1 $578 $579 $265 $411 forward $568 $-1 #
edge $-1 $580 -55.414884912702526 $414 -51.920053740826432 $410 $581 forward 7 unknown #
edge $-1 $415 41.559885463070671 $580 48.15491108605454 $266 $582 forward 7 unknown #
coedge $-1 $267 $572 $578 $583 forward $403 $-1 #
vertex $-1 $268 $584 #
vertex $-1 $268 $585 #
straight-curve $-1 8.0842463527824435 18.769375618745226 5.0798015660421072 0 -1 0 I I #
coedge $-1 $417 $417 $-1 $586 reversed $271 $-1 #
edge $-1 $587 0 $587 6.2831853071796004 $272 $588 forward 7 unknown #
vertex $-1 $275 $589 #
ellipse-curve $-1 12.295475077098978 21.281006095607516 3.3323859801040712 0 0.52991927123019833 0.84804809178421925 1.5 0 0 1 I I #
coedge $-1 $421 $421 $-1 $590 reversed $278 $-1 #
edge $-1 $591 0 $591 6.2831853071796004 $279 $592 forward 7 unknown #
vertex $-1 $282 $593 #
ellipse-curve $-1 18.612318163573811 21.281006095607516 3.3323859801040712 0 0.52991927123019833 0.84804809178421925 1.5 0 0 1 I I #
face $-1 $-1 $594 $59 $-1 $595 reversed single #
loop $-1 $-1 $289 $283 #
plane-surface $-1 0 0 5.0798015660421107 0 0 1 1 0 0 forward_v I I I I #
coedge $-1 $596 $597 $598 $599 reversed $284 $-1 #
coedge $-1 $600 $286 $288 $435 forward $179 $-1 #
coedge $-1 $286 $600 $596 $601 forward $179 $-1 #
coedge $-1 $598 $289 $286 $432 forward $426 $-1 #
edge $-1 $438 13.065734540151954 $602 27.80503507525987 $431 $603 forward 7 unknown #
coedge $-1 $604 $605 $287 $434 forward $594 $-1 #
edge $-1 $606 -55.414884912702526 $437 -51.920053740826432 $433 $607 forward 7 unknown #
edge $-1 $438 41.559885463070671 $606 48.15491108605454 $288 $608 forward 7 unknown #
coedge $-1 $289 $598 $604 $609 forward $426 $-1 #
vertex $-1 $290 $610 #
vertex $-1 $290 $611 #
straight-curve $-1 33.501119347857866 18.769375618745226 5.0798015660421072 0 -1 0 I I #
coedge $-1 $440 $440 $-1 $612 reversed $293 $-1 #
edge $-1 $613 0 $613 6.2831853071796004 $294 $614 forward 7 unknown #
vertex $-1 $297 $615 #
ellipse-curve $-1 37.7123480721744 21.281006095607516 3.3323859801040712 0 0.52991927123019833 0.84804809178421925 1.5 0 0 1 I I #
coedge $-1 $444 $444 $-1 $616 reversed $300 $-1 #
edge $-1 $617 0 $617 6.2831853071796004 $301 $618 forward 7 unknown #
vertex $-1 $304 $619 #
ellipse-curve $-1 44.029191158649233 21.281006095607516 3.3323859801040712 0 0.52991927123019833 0.84804809178421925 1.5 0 0 1 I I #
face $-1 $-1 $620 $62 $-1 $621 reversed single #
loop $-1 $-1 $311 $305 #
plane-surface $-1 0 0 5.0798015660421107 0 0 1 1 0 0 forward_v I I I I #
coedge $-1 $622 $623 $624 $625 reversed $306 $-1 #
coedge $-1 $626 $308 $310 $458 forward $193 $-1 #
coedge $-1 $308 $626 $622 $627 forward $193 $-1 #
coedge $-1 $624 $311 $308 $455 forward $449 $-1 #
edge $-1 $461 3.7533941923377121 $628 27.634893676890957 $454 $629 forward 7 unknown #
coedge $-1 $630 $631 $309 $457 forward $620 $-1 #
edge $-1 $632 -42.552983595527571 $460 -39.263739669124362 $456 $633 forward 7 unknown #
edge $-1 $461 -6.2070660664355231 $632 0 $310 $634 forward 7 unknown #
coedge $-1 $311 $624 $630 $635 forward $449 $-1 #
vertex $-1 $312 $636 #
vertex $-1 $312 $637 #
straight-curve $-1 -19.447538126952047 -39.188215847028872 5.0798015660421143 0 1 0 I I #
coedge $-1 $463 $463 $-1 $638 reversed $315 $-1 #
edge $-1 $639 0 $639 6.2831853071796004 $316 $640 forward 7 unknown #
vertex $-1 $319 $641 #
ellipse-curve $-1 -31.38828786922867 -21.445510276417657 3.4351796028405079 0 -0.52991927123019833 0.84804809178421925 1 0 0 1 I I #
face $-1 $-1 $335 $48 $-1 $642 reversed single #
loop $-1 $-1 $483 $320 #
plane-surface $-1 0 24.07745554302727 0 0 -1 0 0 0 -1 forward_v I I I I #
coedge $-1 $643 $481 $484 $644 forward $321 $-1 #
coedge $-1 $487 $323 $324 $475 reversed $202 $-1 #
coedge $-1 $481 $643 $323 $473 reversed $321 $-1 #
edge $-1 $488 -5.0798015660421107 $645 5.0798015660421107 $472 $646 forward 7 unknown #
coedge $-1 $325 $324 $643 $647 forward $129 $-1 #
edge $-1 $479 -51.233252967925047 $645 51.233252967925047 $471 $648 forward 7 unknown #
coedge $-1 $484 $483 $325 $477 reversed $468 $-1 #
edge $-1 $649 -51.233252967925047 $478 51.233252967925047 $476 $650 forward 7 unknown #
vertex $-1 $327 $651 #
vertex $-1 $490 $652 #
straight-curve $-1 51.233252967925047 0 -5.0798015660421107 0 -1 0 I I #
coedge $-1 $470 $472 $328 $482 reversed $321 $-1 #
edge $-1 $485 -24.07745554302727 $488 24.07745554302727 $481 $653 forward 7 unknown #
coedge $-1 $476 $329 $334 $491 forward $468 $-1 #
coedge $-1 $329 $476 $470 $644 reversed $468 $-1 #
vertex $-1 $330 $654 #
straight-curve $-1 0 24.07745554302727 5.0798015660421107 -1 0 0 I I #
coedge $-1 $331 $471 $333 $490 reversed $202 $-1 #
vertex $-1 $482 $655 #
straight-curve $-1 0 -24.07745554302727 5.0798015660421107 1 0 0 I I #
edge $-1 $336 -5.0798015660421107 $479 5.0798015660421107 $333 $656 forward 7 unknown #
edge $-1 $337 -5.0798015660421107 $478 5.0798015660421107 $334 $657 forward 7 unknown #
point $-1 51.233252967925047 -24.07745554302727 5.0798015660421107 #
point $-1 51.233252967925047 24.07745554302727 5.0798015660421107 #
face $-1 $-1 $507 $49 $-1 $658 reversed single #
loop $-1 $-1 $503 $339 #
plane-surface $-1 -51.233252967925047 0 0 1 0 0 0 0 -1 forward_v I I I I #
coedge $-1 $659 $342 $500 $660 forward $210 $-1 #
coedge $-1 $342 $659 $661 $662 forward $210 $-1 #
edge $-1 $663 -24.07745554302727 $501 24.07745554302727 $342 $664 forward 7 unknown #
coedge $-1 $344 $510 $497 $660 reversed $340 $-1 #
vertex $-1 $660 $665 #
straight-curve $-1 -45.742332722327681 -24.07745554302727 -1.7899007830210554 0 0 1 I I #
coedge $-1 $666 $667 $346 $504 forward $495 $-1 #
edge $-1 $511 -24.07745554302727 $508 24.07745554302727 $503 $668 forward 7 unknown #
coedge $-1 $661 $347 $351 $513 forward $507 $-1 #
coedge $-1 $347 $661 $666 $669 reversed $507 $-1 #
loop $-1 $-1 $505 $494 #
vertex $-1 $669 $670 #
straight-curve $-1 -24.243896422563182 24.07745554302727 -2.0798015660421107 1 0 0 I I #
coedge $-1 $500 $349 $667 $671 forward $340 $-1 #
vertex $-1 $671 $672 #
straight-curve $-1 -24.243896422563182 -24.07745554302727 -2.0798015660421107 -1 0 0 I I #
edge $-1 $353 0.28990078302105537 $663 3.2899007830210554 $505 $673 forward 7 unknown #
point $-1 -45.742332722327681 -24.07745554302727 -2.0798015660421107 #
point $-1 -45.742332722327681 24.07745554302727 -2.0798015660421107 #
plane-surface $-1 0 0 5.0798015660421107 0 0 1 1 0 0 forward_v I I I I #
coedge $-1 $527 $526 $519 $674 forward $356 $-1 #
coedge $-1 $519 $358 $360 $523 reversed $218 $-1 #
coedge $-1 $358 $518 $517 $674 reversed $218 $-1 #
coedge $-1 $366 $361 $358 $521 forward $367 $-1 #
edge $-1 $524 -0.2848189705574562 $675 5.308079924282044 $520 $676 forward 7 unknown #
coedge $-1 $360 $359 $527 $677 reversed $137 $-1 #
edge $-1 $678 -48.15491108605454 $524 -41.559885463070671 $518 $679 forward 7 unknown #
vertex $-1 $362 $680 #
straight-curve $-1 -17.689924684907222 18.48455664818777 5.0798015660421125 1 0 0 I I #
coedge $-1 $517 $363 $366 $531 reversed $356 $-1 #
coedge $-1 $363 $517 $522 $677 forward $356 $-1 #
vertex $-1 $364 $681 #
straight-curve $-1 -42.749499637368402 24.07745554302727 56.99985530686854 0 0 1 I I #
straight-curve $-1 -42.749499637368402 -16.760224913540021 27.103185783043031 0 0.84804809178421925 -0.52991927123019833 I I #
edge $-1 $675 28.010199102260486 $368 42.749499637368402 $526 $682 forward 7 unknown #
point $-1 -42.749499637368402 24.07745554302727 5.0798015660421107 #
point $-1 -42.749499637368402 18.48455664818777 5.0798015660421107 #
edge $-1 $683 1 $683 0 $371 $-1 forward 7 unknown #
vertex $-1 $372 $684 #
ellipse-curve $-1 -38.538270913051861 19.020572994659858 -0.28506309551524989 0 0.52991927123019833 0.84804809178421925 1.5 0 0 1 I I #
point $-1 -37.038270913051861 21.281006095607509 3.3323859801040623 #
edge $-1 $685 1 $685 0 $375 $-1 forward 7 unknown #
vertex $-1 $376 $686 #
ellipse-curve $-1 -32.221427826577035 19.020572994659858 -0.28506309551524989 0 0.52991927123019833 0.84804809178421925 1.5 0 0 1 I I #
point $-1 -30.721427826577035 21.281006095607509 3.3323859801040623 #
loop $-1 $-1 $387 $379 #
plane-surface $-1 0 24.07745554302727 0 0 -1 0 0 0 -1 forward_v I I I I #
coedge $-1 $545 $382 $384 $549 reversed $240 $-1 #
coedge $-1 $382 $544 $687 $688 reversed $240 $-1 #
coedge $-1 $390 $385 $382 $547 forward $380 $-1 #
edge $-1 $550 -0.2848189705574562 $689 5.308079924282044 $546 $690 forward 7 unknown #
coedge $-1 $384 $383 $553 $691 reversed $151 $-1 #
edge $-1 $692 -48.15491108605454 $550 -41.559885463070671 $544 $693 forward 7 unknown #
vertex $-1 $386 $694 #
straight-curve $-1 -4.9814881873695107 18.48455664818777 5.0798015660421125 1 0 0 I I #
coedge $-1 $687 $387 $390 $557 reversed $542 $-1 #
coedge $-1 $387 $687 $548 $691 forward $542 $-1 #
vertex $-1 $388 $695 #
straight-curve $-1 -17.332626642292979 24.07745554302727 56.99985530686854 0 0 1 I I #
straight-curve $-1 -17.332626642292979 -16.760224913540021 27.103185783043031 0 0.84804809178421925 -0.52991927123019833 I I #
edge $-1 $689 2.5933261071850628 $391 17.332626642292979 $552 $696 forward 7 unknown #
point $-1 -17.332626642292979 24.07745554302727 5.0798015660421107 #
point $-1 -17.332626642292979 18.48455664818777 5.0798015660421107 #
edge $-1 $697 1 $697 0 $394 $-1 forward 7 unknown #
vertex $-1 $395 $698 #
ellipse-curve $-1 -13.121397917976438 19.020572994659858 -0.28506309551524989 0 0.52991927123019833 0.84804809178421925 1.5 0 0 1 I I #
point $-1 -11.621397917976438 21.281006095607509 3.3323859801040623 #
edge $-1 $699 1 $699 0 $398 $-1 forward 7 unknown #
vertex $-1 $399 $700 #
ellipse-curve $-1 -6.804554831501612 19.020572994659858 -0.28506309551524989 0 0.52991927123019833 0.84804809178421925 1.5 0 0 1 I I #
point $-1 -5.304554831501612 21.281006095607509 3.3323859801040623 #
loop $-1 $-1 $410 $402 #
plane-surface $-1 0 24.07745554302727 0 0 -1 0 0 0 -1 forward_v I I I I #
coedge $-1 $571 $405 $407 $575 reversed $262 $-1 #
coedge $-1 $405 $570 $701 $702 reversed $262 $-1 #
coedge $-1 $413 $408 $405 $573 forward $403 $-1 #
edge $-1 $576 -0.2848189705574562 $703 5.308079924282044 $572 $704 forward 7 unknown #
coedge $-1 $407 $406 $579 $705 reversed $165 $-1 #
edge $-1 $706 -48.15491108605454 $576 -41.559885463070671 $570 $707 forward 7 unknown #
vertex $-1 $409 $708 #
straight-curve $-1 7.7269483101682006 18.48455664818777 5.0798015660421125 1 0 0 I I #
coedge $-1 $701 $410 $413 $583 reversed $568 $-1 #
coedge $-1 $410 $701 $574 $705 forward $568 $-1 #
vertex $-1 $411 $709 #
straight-curve $-1 8.0842463527824435 24.07745554302727 56.99985530686854 0 0 1 I I #
straight-curve $-1 8.0842463527824435 -16.760224913540021 27.103185783043031 0 0.84804809178421925 -0.52991927123019833 I I #
edge $-1 $703 -22.823546887890359 $414 -8.0842463527824435 $578 $710 forward 7 unknown #
point $-1 8.0842463527824435 24.07745554302727 5.0798015660421107 #
point $-1 8.0842463527824435 18.48455664818777 5.0798015660421107 #
edge $-1 $711 1 $711 0 $417 $-1 forward 7 unknown #
vertex $-1 $418 $712 #
ellipse-curve $-1 12.295475077098978 19.020572994659858 -0.28506309551524989 0 0.52991927123019833 0.84804809178421925 1.5 0 0 1 I I #
point $-1 13.795475077098978 21.281006095607509 3.3323859801040623 #
edge $-1 $713 1 $713 0 $421 $-1 forward 7 unknown #
vertex $-1 $422 $714 #
ellipse-curve $-1 18.612318163573811 19.020572994659858 -0.28506309551524989 0 0.52991927123019833 0.84804809178421925 1.5 0 0 1 I I #
point $-1 20.112318163573811 21.281006095607509 3.3323859801040623 #
loop $-1 $-1 $433 $425 #
plane-surface $-1 0 24.07745554302727 0 0 -1 0 0 0 -1 forward_v I I I I #
coedge $-1 $597 $428 $430 $601 reversed $284 $-1 #
coedge $-1 $428 $596 $715 $716 reversed $284 $-1 #
coedge $-1 $436 $431 $428 $599 forward $426 $-1 #
edge $-1 $602 -0.2848189705574562 $717 5.308079924282044 $598 $718 forward 7 unknown #
coedge $-1 $430 $429 $605 $719 reversed $179 $-1 #
edge $-1 $720 -48.15491108605454 $602 -41.559885463070671 $596 $721 forward 7 unknown #
vertex $-1 $432 $722 #
straight-curve $-1 20.435384807705912 18.48455664818777 5.0798015660421125 1 0 0 I I #
coedge $-1 $715 $433 $436 $609 reversed $594 $-1 #
coedge $-1 $433 $715 $600 $719 forward $594 $-1 #
vertex $-1 $434 $723 #
straight-curve $-1 33.501119347857866 24.07745554302727 56.99985530686854 0 0 1 I I #
straight-curve $-1 33.501119347857866 -16.760224913540021 27.103185783043031 0 0.84804809178421925 -0.52991927123019833 I I #
edge $-1 $717 -48.240419882965782 $437 -33.501119347857866 $604 $724 forward 7 unknown #
point $-1 33.501119347857866 24.07745554302727 5.0798015660421107 #
point $-1 33.501119347857866 18.48455664818777 5.0798015660421107 #
edge $-1 $725 1 $725 0 $440 $-1 forward 7 unknown #
vertex $-1 $441 $726 #
ellipse-curve $-1 37.7123480721744 19.020572994659858 -0.28506309551524989 0 0.52991927123019833 0.84804809178421925 1.5 0 0 1 I I #
point $-1 39.2123480721744 21.281006095607509 3.3323859801040623 #
edge $-1 $727 1 $727 0 $444 $-1 forward 7 unknown #
vertex $-1 $445 $728 #
ellipse-curve $-1 44.029191158649233 19.020572994659858 -0.28506309551524989 0 0.52991927123019833 0.84804809178421925 1.5 0 0 1 I I #
point $-1 45.529191158649233 21.281006095607509 3.3323859801040623 #
loop $-1 $-1 $456 $448 #
plane-surface $-1 0 -24.07745554302727 0 0 1 0 0 0 1 forward_v I I I I #
coedge $-1 $623 $451 $453 $627 reversed $306 $-1 #
coedge $-1 $451 $622 $729 $730 reversed $306 $-1 #
coedge $-1 $459 $454 $451 $625 forward $449 $-1 #
edge $-1 $628 -20.374650837220827 $731 -15.110760304001602 $624 $732 forward 7 unknown #
coedge $-1 $453 $452 $631 $733 reversed $193 $-1 #
edge $-1 $734 0 $628 6.2070660664355231 $622 $735 forward 7 unknown #
vertex $-1 $455 $736 #
straight-curve $-1 -15.694143934614335 -18.813565009808048 5.0798015660421107 -1 0 0 I I #
coedge $-1 $729 $456 $459 $635 reversed $620 $-1 #
coedge $-1 $456 $729 $626 $733 forward $620 $-1 #
vertex $-1 $457 $737 #
straight-curve $-1 -19.447538126952047 -24.07745554302727 44.343541235166477 0 0 1 I I #
straight-curve $-1 -19.447538126952047 -24.07745554302727 1.7905576396389051 0 -0.84804809178421925 -0.52991927123019833 I I #
edge $-1 $731 -43.329037611505292 $460 -19.447538126952047 $630 $738 forward 7 unknown #
point $-1 -19.447538126952047 -24.07745554302727 5.0798015660421107 #
point $-1 -19.447538126952047 -18.813565009808045 5.0798015660421107 #
edge $-1 $739 1 $739 0 $463 $-1 forward 7 unknown #
vertex $-1 $464 $740 #
ellipse-curve $-1 -31.38828786922867 -20.172018866980665 1.3971673652982133 0 -0.52991927123019833 0.84804809178421925 1 0 0 1 I I #
point $-1 -30.38828786922867 -21.445510276417657 3.4351796028405075 #
plane-surface $-1 51.233252967925047 0 0 -1 0 0 0 0 1 forward_v I I I I #
coedge $-1 $472 $470 $474 $647 reversed $321 $-1 #
edge $-1 $485 -5.0798015660421107 $649 5.0798015660421107 $484 $741 forward 7 unknown #
vertex $-1 $647 $742 #
straight-curve $-1 -51.233252967925047 -24.07745554302727 0 0 0 -1 I I #
edge $-1 $645 -24.07745554302727 $649 24.07745554302727 $643 $743 forward 7 unknown #
straight-curve $-1 0 -24.07745554302727 -5.0798015660421107 -1 0 0 I I #
vertex $-1 $477 $744 #
straight-curve $-1 0 24.07745554302727 -5.0798015660421107 1 0 0 I I #
point $-1 51.233252967925047 24.07745554302727 -5.0798015660421107 #
point $-1 51.233252967925047 -24.07745554302727 -5.0798015660421107 #
straight-curve $-1 -51.233252967925047 0 5.0798015660421107 0 -1 0 I I #
point $-1 -51.233252967925047 24.07745554302727 5.0798015660421107 #
point $-1 -51.233252967925047 -24.07745554302727 5.0798015660421107 #
straight-curve $-1 51.233252967925047 -24.07745554302727 0 0 0 -1 I I #
straight-curve $-1 51.233252967925047 24.07745554302727 0 0 0 -1 I I #
plane-surface $-1 0 24.07745554302727 0 0 -1 0 0 0 -1 forward_v I I I I #
coedge $-1 $498 $497 $745 $746 forward $210 $-1 #
edge $-1 $501 45.742332722327681 $747 51.233252967925047 $500 $748 forward 7 unknown #
coedge $-1 $506 $505 $498 $662 reversed $507 $-1 #
edge $-1 $749 -51.233252967925047 $663 -45.742332722327681 $661 $750 forward 7 unknown #
vertex $-1 $513 $751 #
straight-curve $-1 -45.742332722327681 0 -5.0798015660421107 0 -1 0 I I #
point $-1 -45.742332722327681 -24.07745554302727 -5.0798015660421107 #
coedge $-1 $745 $503 $506 $669 forward $495 $-1 #
coedge $-1 $503 $745 $510 $671 reversed $495 $-1 #
straight-curve $-1 -51.233252967925047 0 -2.0798015660421107 0 1 0 I I #
edge $-1 $508 2.0798015660421107 $749 5.0798015660421107 $506 $752 forward 7 unknown #
point $-1 -51.233252967925047 24.07745554302727 -2.0798015660421107 #
edge $-1 $511 2.0798015660421107 $747 5.0798015660421107 $667 $753 forward 7 unknown #
point $-1 -51.233252967925047 -24.07745554302727 -2.0798015660421107 #
straight-curve $-1 -45.742332722327681 24.07745554302727 -1.7899007830210554 0 0 -1 I I #
edge $-1 $675 51.920053740826432 $678 55.414884912702526 $517 $754 forward 7 unknown #
vertex $-1 $531 $755 #
straight-curve $-1 -28.010199102260486 18.769375618745226 5.0798015660421072 0 1 0 I I #
edge $-1 $678 10.320274417353264 $528 25.05957495246118 $527 $756 forward 7 unknown #
vertex $-1 $677 $757 #
straight-curve $-1 -28.010199102260486 -16.760224913540021 27.103185783043031 0 -0.84804809178421925 0.52991927123019833 I I #
point $-1 -28.010199102260486 18.48455664818777 5.0798015660421107 #
point $-1 -42.749499637368402 24.07745554302727 1.5849703941660138 #
straight-curve $-1 0 24.07745554302727 5.0798015660421107 -1 0 0 I I #
vertex $-1 $534 $758 #
point $-1 -37.038270913051861 19.020572994659858 -0.28506309551524989 #
vertex $-1 $538 $759 #
point $-1 -30.721427826577035 19.020572994659858 -0.28506309551524989 #
coedge $-1 $553 $552 $545 $688 forward $542 $-1 #
edge $-1 $689 51.920053740826432 $692 55.414884912702526 $687 $760 forward 7 unknown #
vertex $-1 $557 $761 #
straight-curve $-1 -2.5933261071850628 18.769375618745226 5.0798015660421072 0 1 0 I I #
edge $-1 $692 -2.3881620801844479 $554 12.351138454923468 $553 $762 forward 7 unknown #
vertex $-1 $691 $763 #
straight-curve $-1 -2.5933261071850628 -16.760224913540021 27.103185783043031 0 -0.84804809178421925 0.52991927123019833 I I #
point $-1 -2.5933261071850628 18.48455664818777 5.0798015660421107 #
point $-1 -17.332626642292979 24.07745554302727 1.5849703941660138 #
straight-curve $-1 0 24.07745554302727 5.0798015660421107 -1 0 0 I I #
vertex $-1 $560 $764 #
point $-1 -11.621397917976438 19.020572994659858 -0.28506309551524989 #
vertex $-1 $564 $765 #
point $-1 -5.304554831501612 19.020572994659858 -0.28506309551524989 #
coedge $-1 $579 $578 $571 $702 forward $568 $-1 #
edge $-1 $703 51.920053740826432 $706 55.414884912702526 $701 $766 forward 7 unknown #
vertex $-1 $583 $767 #
straight-curve $-1 22.823546887890359 18.769375618745226 5.0798015660421072 0 1 0 I I #
edge $-1 $706 -15.096598577722158 $580 -0.35729804261424292 $579 $768 forward 7 unknown #
vertex $-1 $705 $769 #
straight-curve $-1 22.823546887890359 -16.760224913540021 27.103185783043031 0 -0.84804809178421925 0.52991927123019833 I I #
point $-1 22.823546887890359 18.48455664818777 5.0798015660421107 #
point $-1 8.0842463527824435 24.07745554302727 1.5849703941660138 #
straight-curve $-1 0 24.07745554302727 5.0798015660421107 -1 0 0 I I #
vertex $-1 $586 $770 #
point $-1 13.795475077098978 19.020572994659858 -0.28506309551524989 #
vertex $-1 $590 $771 #
point $-1 20.112318163573811 19.020572994659858 -0.28506309551524989 #
coedge $-1 $605 $604 $597 $716 forward $594 $-1 #
edge $-1 $717 51.920053740826432 $720 55.414884912702526 $715 $772 forward 7 unknown #
vertex $-1 $609 $773 #
straight-curve $-1 48.240419882965782 18.769375618745226 5.0798015660421072 0 1 0 I I #
edge $-1 $720 -27.80503507525987 $606 -13.065734540151954 $605 $774 forward 7 unknown #
vertex $-1 $719 $775 #
straight-curve $-1 48.240419882965782 -16.760224913540021 27.103185783043031 0 -0.84804809178421925 0.52991927123019833 I I #
point $-1 48.240419882965782 18.48455664818777 5.0798015660421107 #
point $-1 33.501119347857866 24.07745554302727 1.5849703941660138 #
straight-curve $-1 0 24.07745554302727 5.0798015660421107 -1 0 0 I I #
vertex $-1 $612 $776 #
point $-1 39.2123480721744 19.020572994659858 -0.28506309551524989 #
vertex $-1 $616 $777 #
point $-1 45.529191158649233 19.020572994659858 -0.28506309551524989 #
coedge $-1 $631 $630 $623 $730 forward $620 $-1 #
edge $-1 $731 39.263739669124362 $734 42.552983595527571 $729 $778 forward 7 unknown #
vertex $-1 $635 $779 #
straight-curve $-1 -43.329037611505292 -39.188215847028872 5.0798015660421143 0 -1 0 I I #
edge $-1 $734 -27.634893676890957 $632 -3.7533941923377121 $631 $780 forward 7 unknown #
vertex $-1 $733 $781 #
straight-curve $-1 -43.329037611505292 -24.07745554302727 1.7905576396389051 0 0.84804809178421925 0.52991927123019833 I I #
point $-1 -43.329037611505292 -18.813565009808045 5.0798015660421107 #
point $-1 -19.447538126952047 -24.07745554302727 1.7905576396389051 #
straight-curve $-1 0 -24.07745554302727 5.0798015660421107 1 0 0 I I #
vertex $-1 $638 $782 #
point $-1 -30.38828786922867 -20.172018866980665 1.3971673652982133 #
straight-curve $-1 -51.233252967925047 24.07745554302727 0 0 0 -1 I I #
point $-1 -51.233252967925047 -24.07745554302727 -5.0798015660421107 #
straight-curve $-1 -51.233252967925047 0 -5.0798015660421107 0 1 0 I I #
point $-1 -51.233252967925047 24.07745554302727 -5.0798015660421107 #
coedge $-1 $667 $666 $659 $746 reversed $495 $-1 #
edge $-1 $747 -24.07745554302727 $749 24.07745554302727 $745 $783 forward 7 unknown #
vertex $-1 $746 $784 #
straight-curve $-1 0 -24.07745554302727 -5.0798015660421107 -1 0 0 I I #
vertex $-1 $662 $785 #
straight-curve $-1 0 24.07745554302727 -5.0798015660421107 1 0 0 I I #
point $-1 -45.742332722327681 24.07745554302727 -5.0798015660421107 #
straight-curve $-1 -51.233252967925047 24.07745554302727 0 0 0 -1 I I #
straight-curve $-1 -51.233252967925047 -24.07745554302727 0 0 0 -1 I I #
straight-curve $-1 -28.010199102260486 24.07745554302727 56.99985530686854 0 0 -1 I I #
point $-1 -28.010199102260486 24.07745554302727 5.0798015660421107 #
straight-curve $-1 -17.689924684907222 24.077455543027277 1.5849703941660138 -1 0 0 I I #
point $-1 -28.010199102260486 24.07745554302727 1.5849703941660138 #
point $-1 -38.538270913051861 18.22569408781456 -1.5571352331915786 #
point $-1 -32.221427826577035 18.22569408781456 -1.5571352331915786 #
straight-curve $-1 -2.5933261071850628 24.07745554302727 56.99985530686854 0 0 -1 I I #
point $-1 -2.5933261071850628 24.07745554302727 5.0798015660421107 #
straight-curve $-1 -4.9814881873695107 24.077455543027277 1.5849703941660138 -1 0 0 I I #
point $-1 -2.5933261071850628 24.07745554302727 1.5849703941660138 #
point $-1 -13.121397917976438 18.22569408781456 -1.5571352331915786 #
point $-1 -6.804554831501612 18.22569408781456 -1.5571352331915786 #
straight-curve $-1 22.823546887890359 24.07745554302727 56.99985530686854 0 0 -1 I I #
point $-1 22.823546887890359 24.07745554302727 5.0798015660421107 #
straight-curve $-1 7.7269483101682006 24.077455543027277 1.5849703941660138 -1 0 0 I I #
point $-1 22.823546887890359 24.07745554302727 1.5849703941660138 #
point $-1 12.295475077098978 18.22569408781456 -1.5571352331915786 #
point $-1 18.612318163573811 18.22569408781456 -1.5571352331915786 #
straight-curve $-1 48.240419882965782 24.07745554302727 56.99985530686854 0 0 -1 I I #
point $-1 48.240419882965782 24.07745554302727 5.0798015660421107 #
straight-curve $-1 20.435384807705912 24.077455543027277 1.5849703941660138 -1 0 0 I I #
point $-1 48.240419882965782 24.07745554302727 1.5849703941660138 #
point $-1 37.7123480721744 18.22569408781456 -1.5571352331915786 #
point $-1 44.029191158649233 18.22569408781456 -1.5571352331915786 #
straight-curve $-1 -43.329037611505292 -24.07745554302727 44.343541235166477 0 0 -1 I I #
point $-1 -43.329037611505292 -24.07745554302727 5.0798015660421107 #
straight-curve $-1 -15.694143934614335 -24.07745554302727 1.790557639638904 1 0 0 I I #
point $-1 -43.329037611505292 -24.07745554302727 1.7905576396389051 #
point $-1 -31.38828786922867 -19.642099595750466 0.54911927351399403 #
straight-curve $-1 -51.233252967925047 0 -5.0798015660421107 0 1 0 I I #
point $-1 -51.233252967925047 -24.07745554302727 -5.0798015660421107 #
point $-1 -51.233252967925047 24.07745554302727 -5.0798015660421107 #
End-of-ACIS-data 