500 0 15 0           
7 Unknown 11 ACIS 5.0 NT 24 Fri Mar 26 20:35:34 1999 
-1 9.9999999999999995e-007 1e-010 
body $-1 $15 $-1 $16 #
body $-1 $17 $-1 $18 #
body $-1 $19 $-1 $20 #
body $-1 $21 $-1 $22 #
body $-1 $23 $-1 $24 #
body $-1 $25 $-1 $26 #
body $-1 $27 $-1 $28 #
body $-1 $29 $-1 $30 #
body $-1 $31 $-1 $32 #
body $-1 $33 $-1 $34 #
body $-1 $35 $-1 $36 #
body $-1 $37 $-1 $38 #
body $-1 $39 $-1 $40 #
body $-1 $41 $-1 $42 #
body $-1 $43 $-1 $44 #
lump $-1 $-1 $45 $0 #
transform $-1 1 0 0 0 1 0 0 0 1 57.647022919400612 28.970061250928861 13.585877444148025 1 rotate no_reflect no_shear #
lump $-1 $-1 $46 $1 #
transform $-1 1 0 0 0 1 0 0 0 1 57.647022919400612 28.970061250928861 13.585877444148025 1 rotate no_reflect no_shear #
lump $-1 $-1 $47 $2 #
transform $-1 1 0 0 0 1 0 0 0 1 57.647022919400612 28.970061250928861 13.585877444148025 1 rotate no_reflect no_shear #
lump $-1 $-1 $48 $3 #
transform $-1 1 0 0 0 1 0 0 0 1 57.647022919400612 28.970061250928861 13.585877444148025 1 rotate no_reflect no_shear #
lump $-1 $-1 $49 $4 #
transform $-1 1 0 0 0 1 0 0 0 1 57.647022919400612 28.970061250928861 13.585877444148025 1 rotate no_reflect no_shear #
lump $-1 $-1 $50 $5 #
transform $-1 1 0 0 0 1 0 0 0 1 57.647022919400612 28.970061250928861 13.585877444148025 1 rotate no_reflect no_shear #
lump $-1 $-1 $51 $6 #
transform $-1 1 0 0 0 1 0 0 0 1 57.647022919400612 28.970061250928861 13.585877444148025 1 rotate no_reflect no_shear #
lump $-1 $-1 $52 $7 #
transform $-1 1 0 0 0 1 0 0 0 1 57.647022919400612 28.970061250928861 13.585877444148025 1 rotate no_reflect no_shear #
lump $-1 $-1 $53 $8 #
transform $-1 1 0 0 0 1 0 0 0 1 57.647022919400612 28.970061250928861 13.585877444148025 1 rotate no_reflect no_shear #
lump $-1 $-1 $54 $9 #
transform $-1 1 0 0 0 1 0 0 0 1 57.647022919400612 28.970061250928861 13.585877444148025 1 rotate no_reflect no_shear #
lump $-1 $-1 $55 $10 #
transform $-1 1 0 0 0 1 0 0 0 1 57.647022919400612 28.970061250928861 13.585877444148025 1 rotate no_reflect no_shear #
lump $-1 $-1 $56 $11 #
transform $-1 1 0 0 0 1 0 0 0 1 57.647022919400612 28.970061250928861 13.585877444148025 1 rotate no_reflect no_shear #
lump $-1 $-1 $57 $12 #
transform $-1 1 0 0 0 1 0 0 0 1 57.647022919400612 28.970061250928861 13.585877444148025 1 rotate no_reflect no_shear #
lump $-1 $-1 $58 $13 #
transform $-1 1 0 0 0 1 0 0 0 1 57.647022919400612 28.970061250928861 13.585877444148025 1 rotate no_reflect no_shear #
lump $-1 $-1 $59 $14 #
transform $-1 1 0 0 0 1 0 0 0 1 57.647022919400612 28.970061250928861 13.585877444148025 1 rotate no_reflect no_shear #
shell $-1 $-1 $-1 $60 $-1 $15 #
shell $-1 $-1 $-1 $61 $-1 $17 #
shell $-1 $-1 $-1 $62 $-1 $19 #
shell $-1 $-1 $-1 $63 $-1 $21 #
shell $-1 $-1 $-1 $64 $-1 $23 #
shell $-1 $-1 $-1 $65 $-1 $25 #
shell $-1 $-1 $-1 $66 $-1 $27 #
shell $-1 $-1 $-1 $67 $-1 $29 #
shell $-1 $-1 $-1 $68 $-1 $31 #
shell $-1 $-1 $-1 $69 $-1 $33 #
shell $-1 $-1 $-1 $70 $-1 $35 #
shell $-1 $-1 $-1 $71 $-1 $37 #
shell $-1 $-1 $-1 $72 $-1 $39 #
shell $-1 $-1 $-1 $73 $-1 $41 #
shell $-1 $-1 $-1 $74 $-1 $43 #
face $-1 $75 $76 $45 $-1 $77 forward single #
face $-1 $78 $79 $46 $-1 $80 forward single #
face $-1 $81 $82 $47 $-1 $83 forward single #
face $-1 $84 $85 $48 $-1 $86 reversed single #
face $-1 $87 $88 $49 $-1 $89 forward single #
face $-1 $90 $91 $50 $-1 $92 reversed single #
face $-1 $93 $94 $51 $-1 $95 forward single #
face $-1 $96 $97 $52 $-1 $98 reversed single #
face $-1 $99 $100 $53 $-1 $101 forward single #
face $-1 $102 $103 $54 $-1 $104 reversed single #
face $-1 $105 $106 $55 $-1 $107 forward single #
face $-1 $108 $109 $56 $-1 $110 forward single #
face $-1 $111 $112 $57 $-1 $113 reversed single #
face $-1 $114 $115 $58 $-1 $116 forward single #
face $-1 $117 $118 $59 $-1 $119 forward single #
face $-1 $120 $121 $45 $-1 $122 reversed single #
loop $-1 $-1 $123 $60 #
plane-surface $-1 0 0 13.585877444148025 0 0 1 1 0 0 forward_v I I I I #
face $-1 $124 $125 $46 $-1 $126 reversed single #
loop $-1 $-1 $127 $61 #
plane-surface $-1 0 -24.260687057455453 11.876135322239968 0 0 1 1 0 0 forward_v I I I I #
face $-1 $128 $129 $47 $-1 $130 reversed single #
loop $-1 $-1 $131 $62 #
plane-surface $-1 0 24.260687057455453 11.876135322239968 0 0 1 1 0 0 forward_v I I I I #
face $-1 $132 $133 $48 $-1 $134 reversed single #
loop $-1 $-1 $135 $63 #
plane-surface $-1 -137.73699786628805 -8.5228872182245858 86.051558869842921 0 -1 0 0.69465837861970381 0 -0.71933979245794832 forward_v I I I I #
face $-1 $136 $137 $49 $-1 $138 forward single #
loop $-1 $139 $140 $64 #
cone-surface $-1 -51.705682309500773 -13.028833263675601 7.8120469638671217 0.69465837861970381 0 -0.71933979245794832 0.71933979245794832 0 0.69465837861970381 1 I I 0 1 1 forward I I I I #
face $-1 $141 $142 $50 $-1 $143 reversed single #
loop $-1 $-1 $144 $65 #
plane-surface $-1 -137.73699786628805 4.5113213577634443 86.051558869842921 0 -1 0 0.69465837861970381 0 -0.71933979245794832 forward_v I I I I #
face $-1 $145 $146 $51 $-1 $147 forward single #
loop $-1 $148 $149 $66 #
cone-surface $-1 -51.705682309500773 0.0053753123124273827 7.8120469638671217 0.69465837861970381 0 -0.71933979245794832 0.71933979245794832 0 0.69465837861970381 1 I I 0 1 1 forward I I I I #
face $-1 $150 $151 $52 $-1 $152 reversed single #
loop $-1 $-1 $153 $67 #
plane-surface $-1 -137.73699786628805 17.545529933751475 86.051558869842921 0 -1 0 0.69465837861970381 0 -0.71933979245794832 forward_v I I I I #
face $-1 $154 $155 $53 $-1 $156 forward single #
loop $-1 $157 $158 $68 #
cone-surface $-1 -51.705682309500773 13.039583888300459 7.8120469638671217 0.69465837861970381 0 -0.71933979245794832 0.71933979245794832 0 0.69465837861970381 1 I I 0 1 1 forward I I I I #
face $-1 $159 $160 $54 $-1 $161 reversed single #
loop $-1 $-1 $162 $69 #
plane-surface $-1 -30.673339455797546 -15.868590479889914 74.249472278767144 0.64278761758704617 0 0.76604443648966558 0.76604443648966558 0 -0.64278761758704617 forward_v I I I I #
face $-1 $163 $164 $55 $-1 $165 forward single #
loop $-1 $166 $167 $70 #
cone-surface $-1 49.008427697602592 -17.446900073072253 6.1163180654043892 -0.64278761758704617 0 -0.76604443648966558 0.38302221824483279 0 -0.32139380879352308 1 I I 0 1 0.5 forward I I I I #
face $-1 $168 $169 $56 $-1 $170 forward single #
loop $-1 $171 $172 $71 #
cone-surface $-1 49.008427697602592 -14.290280886707571 6.1163180654043892 -0.64278761758704617 0 -0.76604443648966558 0.38302221824483279 0 -0.32139380879352308 1 I I 0 1 0.5 forward I I I I #
face $-1 $173 $174 $57 $-1 $175 reversed single #
loop $-1 $-1 $176 $72 #
plane-surface $-1 43.436245590897187 4.4408920985006262e-015 162.5698346539653 0 1 0 0.64278761758704617 0 0.76604443648966558 forward_v I I I I #
face $-1 $177 $178 $58 $-1 $179 forward single #
loop $-1 $180 $181 $73 #
cone-surface $-1 49.008427697602592 2.1044127909097909 6.1163180654043892 -0.64278761758704617 0 -0.76604443648966558 0.38302221824483279 0 -0.32139380879352308 1 I I 0 1 0.5 forward I I I I #
face $-1 $182 $183 $59 $-1 $184 forward single #
loop $-1 $185 $186 $74 #
cone-surface $-1 49.008427697602592 5.2610319772744738 6.1163180654043892 -0.64278761758704617 0 -0.76604443648966558 0.38302221824483279 0 -0.32139380879352308 1 I I 0 1 0.5 forward I I I I #
face $-1 $187 $188 $45 $-1 $189 reversed single #
loop $-1 $-1 $190 $75 #
plane-surface $-1 0 0 -13.585877444148025 0 0 1 1 0 0 forward_v I I I I #
coedge $-1 $191 $192 $193 $194 forward $76 $-1 #
face $-1 $195 $196 $46 $-1 $197 reversed single #
loop $-1 $-1 $198 $78 #
plane-surface $-1 0 -24.260687057455453 5.7657037830271278 0 0 1 1 0 0 forward_v I I I I #
coedge $-1 $199 $200 $201 $202 reversed $79 $-1 #
face $-1 $203 $204 $47 $-1 $205 reversed single #
loop $-1 $-1 $206 $81 #
plane-surface $-1 0 24.260687057455453 5.7657037830271278 0 0 1 1 0 0 forward_v I I I I #
coedge $-1 $207 $208 $209 $210 reversed $82 $-1 #
face $-1 $211 $212 $48 $-1 $213 reversed single #
loop $-1 $-1 $214 $84 #
plane-surface $-1 -57.647022919400584 -13.028833263675599 3.1159638645224703 -0.69465837861970381 0 0.71933979245794832 0.71933979245794832 0 0.69465837861970381 forward_v I I I I #
coedge $-1 $215 $216 $217 $218 reversed $85 $-1 #
face $-1 $-1 $219 $49 $-1 $220 forward single #
loop $-1 $221 $222 $87 #
cone-surface $-1 -50.837968834452568 -13.028833263675601 6.9135033771700236 0.69465837861970381 0 -0.71933979245794832 0.35966989622897416 0 0.3473291893098519 1 I I -0.70710678118654746 0.70710678118654746 0.5 forward I I I I #
loop $-1 $-1 $223 $64 #
coedge $-1 $140 $140 $224 $225 reversed $88 $-1 #
face $-1 $226 $227 $50 $-1 $228 reversed single #
loop $-1 $-1 $229 $90 #
plane-surface $-1 -57.647022919400584 0.0053753123124309354 3.1159638645224703 -0.69465837861970381 0 0.71933979245794832 0.71933979245794832 0 0.69465837861970381 forward_v I I I I #
coedge $-1 $230 $231 $232 $233 reversed $91 $-1 #
face $-1 $-1 $234 $51 $-1 $235 forward single #
loop $-1 $236 $237 $93 #
cone-surface $-1 -50.837968834452568 0.0053753123124273827 6.9135033771700236 0.69465837861970381 0 -0.71933979245794832 0.35966989622897416 0 0.3473291893098519 1 I I -0.70710678118654746 0.70710678118654746 0.5 forward I I I I #
loop $-1 $-1 $238 $66 #
coedge $-1 $149 $149 $239 $240 reversed $94 $-1 #
face $-1 $241 $242 $52 $-1 $243 reversed single #
loop $-1 $-1 $244 $96 #
plane-surface $-1 -57.647022919400584 13.039583888300459 3.1159638645224703 -0.69465837861970381 0 0.71933979245794832 0.71933979245794832 0 0.69465837861970381 forward_v I I I I #
coedge $-1 $245 $246 $247 $248 reversed $97 $-1 #
face $-1 $-1 $249 $53 $-1 $250 forward single #
loop $-1 $251 $252 $99 #
cone-surface $-1 -50.837968834452568 13.039583888300459 6.9135033771700236 0.69465837861970381 0 -0.71933979245794832 0.35966989622897416 0 0.3473291893098519 1 I I -0.70710678118654746 0.70710678118654746 0.5 forward I I I I #
loop $-1 $-1 $253 $68 #
coedge $-1 $158 $158 $254 $255 reversed $100 $-1 #
face $-1 $256 $257 $54 $-1 $258 forward single #
loop $-1 $-1 $259 $102 #
plane-surface $-1 43.436245590897187 -12.185868095797783 162.5698346539653 0 -1 0 -0.64278761758704617 0 -0.76604443648966558 forward_v I I I I #
coedge $-1 $260 $261 $262 $263 reversed $103 $-1 #
face $-1 $-1 $264 $55 $-1 $265 forward single #
loop $-1 $266 $267 $105 #
cone-surface $-1 48.22128897420744 -17.446900073072253 5.1782426835761441 -0.64278761758704617 0 -0.76604443648966558 0.1915111091224164 0 -0.16069690439676154 1 I I -0.70710678118654746 0.70710678118654746 0.25 forward I I I I #
loop $-1 $-1 $268 $70 #
coedge $-1 $167 $167 $269 $270 reversed $106 $-1 #
face $-1 $-1 $271 $56 $-1 $272 forward single #
loop $-1 $273 $274 $108 #
cone-surface $-1 48.22128897420744 -14.290280886707571 5.1782426835761441 -0.64278761758704617 0 -0.76604443648966558 0.1915111091224164 0 -0.16069690439676154 1 I I -0.70710678118654746 0.70710678118654746 0.25 forward I I I I #
loop $-1 $-1 $275 $71 #
coedge $-1 $172 $172 $276 $277 reversed $109 $-1 #
face $-1 $278 $279 $57 $-1 $280 reversed single #
loop $-1 $-1 $281 $111 #
plane-surface $-1 -30.673339455797546 3.6827223840921341 74.249472278767144 0.64278761758704617 0 0.76604443648966558 0.76604443648966558 0 -0.64278761758704617 forward_v I I I I #
coedge $-1 $282 $283 $284 $285 reversed $112 $-1 #
face $-1 $-1 $286 $58 $-1 $287 forward single #
loop $-1 $288 $289 $114 #
cone-surface $-1 48.22128897420744 2.1044127909097909 5.1782426835761441 -0.64278761758704617 0 -0.76604443648966558 0.1915111091224164 0 -0.16069690439676154 1 I I -0.70710678118654746 0.70710678118654746 0.25 forward I I I I #
loop $-1 $-1 $290 $73 #
coedge $-1 $181 $181 $291 $292 reversed $115 $-1 #
face $-1 $-1 $293 $59 $-1 $294 forward single #
loop $-1 $295 $296 $117 #
cone-surface $-1 48.22128897420744 5.2610319772744738 5.1782426835761441 -0.64278761758704617 0 -0.76604443648966558 0.1915111091224164 0 -0.16069690439676154 1 I I -0.70710678118654746 0.70710678118654746 0.25 forward I I I I #
loop $-1 $-1 $297 $74 #
coedge $-1 $186 $186 $298 $299 reversed $118 $-1 #
face $-1 $300 $301 $45 $-1 $302 reversed single #
loop $-1 $-1 $303 $120 #
plane-surface $-1 0 -28.970061250928861 0 0 1 0 0 0 1 forward_v I I I I #
coedge $-1 $304 $305 $306 $307 forward $121 $-1 #
coedge $-1 $308 $123 $309 $310 forward $76 $-1 #
coedge $-1 $123 $308 $311 $312 forward $76 $-1 #
coedge $-1 $313 $314 $123 $194 reversed $315 $-1 #
edge $-1 $316 -28.970061250928861 $317 28.970061250928861 $193 $318 forward 7 unknown #
face $-1 $319 $320 $46 $-1 $321 reversed single #
loop $-1 $-1 $322 $124 #
plane-surface $-1 0 -19.551312863982044 8.8209195526335478 0 -1 0 0 0 -1 forward_v I I I I #
coedge $-1 $323 $324 $325 $326 reversed $125 $-1 #
coedge $-1 $327 $127 $328 $329 forward $79 $-1 #
coedge $-1 $127 $327 $330 $331 reversed $79 $-1 #
coedge $-1 $332 $333 $127 $202 forward $334 $-1 #
edge $-1 $335 7.420969335254318 $336 16.839717722201136 $201 $337 forward 7 unknown #
face $-1 $338 $339 $47 $-1 $340 reversed single #
loop $-1 $-1 $341 $128 #
plane-surface $-1 0 19.551312863982044 8.8209195526335478 0 1 0 0 0 1 forward_v I I I I #
coedge $-1 $342 $343 $344 $345 reversed $129 $-1 #
coedge $-1 $346 $131 $347 $348 reversed $82 $-1 #
coedge $-1 $131 $346 $349 $350 forward $82 $-1 #
coedge $-1 $351 $352 $131 $210 forward $339 $-1 #
edge $-1 $353 -16.839717722201136 $354 -7.420969335254318 $209 $355 forward 7 unknown #
face $-1 $356 $357 $48 $-1 $358 reversed single #
loop $-1 $-1 $359 $132 #
plane-surface $-1 -137.73699786628805 -17.534779309126613 86.051558869842921 0 1 0 -0.69465837861970381 0 0.71933979245794832 forward_v I I I I #
coedge $-1 $360 $361 $362 $363 reversed $133 $-1 #
coedge $-1 $216 $135 $364 $365 reversed $85 $-1 #
coedge $-1 $135 $215 $360 $366 reversed $85 $-1 #
coedge $-1 $362 $367 $135 $218 forward $357 $-1 #
edge $-1 $368 29.439901990773436 $369 39.909815570399019 $217 $370 forward 7 unknown #
loop $-1 $-1 $224 $136 #
plane-surface $-1 -57.647022919400584 -13.028833263675599 3.1159638645224703 -0.69465837861970381 0 0.71933979245794832 0.71933979245794832 0 0.69465837861970381 forward_v I I I I #
loop $-1 $-1 $371 $87 #
coedge $-1 $222 $222 $223 $372 reversed $137 $-1 #
coedge $-1 $223 $223 $222 $372 forward $139 $-1 #
coedge $-1 $224 $224 $140 $225 forward $219 $-1 #
edge $-1 $373 0 $373 6.2831853071796004 $224 $374 forward 7 unknown #
face $-1 $375 $376 $50 $-1 $377 forward single #
loop $-1 $-1 $378 $141 #
plane-surface $-1 -137.73699786628805 -4.5005707331385825 86.051558869842921 0 1 0 -0.69465837861970381 0 0.71933979245794832 forward_v I I I I #
coedge $-1 $379 $380 $381 $382 reversed $142 $-1 #
coedge $-1 $231 $144 $383 $384 reversed $91 $-1 #
coedge $-1 $144 $230 $379 $385 reversed $91 $-1 #
coedge $-1 $381 $386 $144 $233 forward $387 $-1 #
edge $-1 $388 29.439901990773436 $389 39.909815570399019 $232 $390 forward 7 unknown #
loop $-1 $-1 $239 $145 #
plane-surface $-1 -57.647022919400584 0.0053753123124309354 3.1159638645224703 -0.69465837861970381 0 0.71933979245794832 0.71933979245794832 0 0.69465837861970381 forward_v I I I I #
loop $-1 $-1 $391 $93 #
coedge $-1 $237 $237 $238 $392 reversed $146 $-1 #
coedge $-1 $238 $238 $237 $392 forward $148 $-1 #
coedge $-1 $239 $239 $149 $240 forward $234 $-1 #
edge $-1 $393 0 $393 6.2831853071796004 $239 $394 forward 7 unknown #
face $-1 $395 $396 $52 $-1 $397 forward single #
loop $-1 $-1 $398 $150 #
plane-surface $-1 -137.73699786628805 8.5336378428494459 86.051558869842921 0 1 0 -0.69465837861970381 0 0.71933979245794832 forward_v I I I I #
coedge $-1 $399 $400 $401 $402 reversed $151 $-1 #
coedge $-1 $246 $153 $403 $404 reversed $97 $-1 #
coedge $-1 $153 $245 $399 $405 reversed $97 $-1 #
coedge $-1 $401 $406 $153 $248 forward $407 $-1 #
edge $-1 $408 29.439901990773436 $409 39.909815570399019 $247 $410 forward 7 unknown #
loop $-1 $-1 $254 $154 #
plane-surface $-1 -57.647022919400584 13.039583888300459 3.1159638645224703 -0.69465837861970381 0 0.71933979245794832 0.71933979245794832 0 0.69465837861970381 forward_v I I I I #
loop $-1 $-1 $411 $99 #
coedge $-1 $252 $252 $253 $412 reversed $155 $-1 #
coedge $-1 $253 $253 $252 $412 forward $157 $-1 #
coedge $-1 $254 $254 $158 $255 forward $249 $-1 #
edge $-1 $413 0 $413 6.2831853071796004 $254 $414 forward 7 unknown #
face $-1 $415 $416 $54 $-1 $417 reversed single #
loop $-1 $-1 $418 $159 #
plane-surface $-1 0 -19.551312863982044 8.8209195526335478 0 -1 0 0 0 -1 forward_v I I I I #
coedge $-1 $419 $420 $421 $422 reversed $160 $-1 #
coedge $-1 $423 $162 $418 $424 forward $103 $-1 #
coedge $-1 $162 $423 $419 $425 forward $103 $-1 #
coedge $-1 $421 $426 $162 $263 forward $416 $-1 #
edge $-1 $427 -11.617017624037087 $428 -4.2515728558528263 $262 $429 forward 7 unknown #
loop $-1 $-1 $269 $163 #
plane-surface $-1 -30.673339455797546 -15.868590479889914 74.249472278767144 0.64278761758704617 0 0.76604443648966558 0.76604443648966558 0 -0.64278761758704617 forward_v I I I I #
loop $-1 $-1 $430 $105 #
coedge $-1 $267 $267 $268 $431 reversed $164 $-1 #
coedge $-1 $268 $268 $267 $431 forward $166 $-1 #
coedge $-1 $269 $269 $167 $270 forward $264 $-1 #
edge $-1 $432 0 $432 6.2831853071796004 $269 $433 forward 7 unknown #
loop $-1 $-1 $276 $168 #
plane-surface $-1 -30.673339455797546 -15.868590479889914 74.249472278767144 0.64278761758704617 0 0.76604443648966558 0.76604443648966558 0 -0.64278761758704617 forward_v I I I I #
loop $-1 $-1 $434 $108 #
coedge $-1 $274 $274 $275 $435 reversed $169 $-1 #
coedge $-1 $275 $275 $274 $435 forward $171 $-1 #
coedge $-1 $276 $276 $172 $277 forward $271 $-1 #
edge $-1 $436 0 $436 6.2831853071796004 $276 $437 forward 7 unknown #
face $-1 $438 $439 $57 $-1 $440 reversed single #
loop $-1 $-1 $441 $173 #
plane-surface $-1 43.436245590897187 7.3654447681842639 162.5698346539653 0 -1 0 -0.64278761758704617 0 -0.76604443648966558 forward_v I I I I #
coedge $-1 $442 $443 $444 $445 reversed $174 $-1 #
coedge $-1 $283 $176 $446 $447 reversed $112 $-1 #
coedge $-1 $176 $282 $442 $448 reversed $112 $-1 #
coedge $-1 $444 $449 $176 $285 forward $439 $-1 #
edge $-1 $450 67.699039882834626 $451 81.14503009491024 $284 $452 forward 7 unknown #
loop $-1 $-1 $291 $177 #
plane-surface $-1 -30.673339455797546 3.6827223840921341 74.249472278767144 0.64278761758704617 0 0.76604443648966558 0.76604443648966558 0 -0.64278761758704617 forward_v I I I I #
loop $-1 $-1 $453 $114 #
coedge $-1 $289 $289 $290 $454 reversed $178 $-1 #
coedge $-1 $290 $290 $289 $454 forward $180 $-1 #
coedge $-1 $291 $291 $181 $292 forward $286 $-1 #
edge $-1 $455 0 $455 6.2831853071796004 $291 $456 forward 7 unknown #
loop $-1 $-1 $298 $182 #
plane-surface $-1 -30.673339455797546 3.6827223840921341 74.249472278767144 0.64278761758704617 0 0.76604443648966558 0.76604443648966558 0 -0.64278761758704617 forward_v I I I I #
loop $-1 $-1 $457 $117 #
coedge $-1 $296 $296 $297 $458 reversed $183 $-1 #
coedge $-1 $297 $297 $296 $458 forward $185 $-1 #
coedge $-1 $298 $298 $186 $299 forward $293 $-1 #
edge $-1 $459 0 $459 6.2831853071796004 $298 $460 forward 7 unknown #
face $-1 $461 $462 $45 $-1 $463 reversed single #
loop $-1 $-1 $464 $187 #
plane-surface $-1 -57.647022919400612 0 0 1 0 0 0 0 -1 forward_v I I I I #
coedge $-1 $465 $311 $466 $467 forward $188 $-1 #
coedge $-1 $468 $190 $465 $469 forward $121 $-1 #
coedge $-1 $190 $468 $470 $471 forward $121 $-1 #
coedge $-1 $314 $313 $190 $307 reversed $315 $-1 #
edge $-1 $472 -28.970061250928861 $473 28.970061250928861 $306 $474 forward 7 unknown #
coedge $-1 $192 $191 $475 $476 forward $76 $-1 #
coedge $-1 $477 $478 $191 $310 reversed $462 $-1 #
edge $-1 $317 -57.647022919400612 $479 57.647022919400612 $309 $480 forward 7 unknown #
coedge $-1 $303 $481 $192 $312 reversed $188 $-1 #
edge $-1 $482 -57.647022919400612 $316 57.647022919400612 $311 $483 forward 7 unknown #
coedge $-1 $306 $193 $481 $484 forward $315 $-1 #
coedge $-1 $193 $306 $477 $485 reversed $315 $-1 #
loop $-1 $-1 $313 $461 #
vertex $-1 $194 $486 #
vertex $-1 $194 $487 #
straight-curve $-1 57.647022919400612 0 13.585877444148025 0 1 0 I I #
face $-1 $488 $489 $46 $-1 $490 reversed single #
loop $-1 $-1 $491 $195 #
plane-surface $-1 -57.647022919400612 0 0 1 0 0 0 0 -1 forward_v I I I I #
coedge $-1 $492 $493 $324 $494 reversed $196 $-1 #
coedge $-1 $495 $198 $496 $497 reversed $125 $-1 #
coedge $-1 $198 $495 $322 $494 forward $125 $-1 #
coedge $-1 $333 $332 $198 $326 forward $334 $-1 #
edge $-1 $498 -16.839717722201136 $499 -7.420969335254318 $325 $500 forward 7 unknown #
coedge $-1 $200 $199 $491 $501 reversed $79 $-1 #
coedge $-1 $493 $492 $199 $329 reversed $196 $-1 #
edge $-1 $335 -57.647022919400612 $502 57.647022919400612 $328 $503 forward 7 unknown #
coedge $-1 $504 $505 $200 $331 forward $489 $-1 #
edge $-1 $336 -57.647022919400612 $506 57.647022919400612 $330 $507 forward 7 unknown #
coedge $-1 $325 $201 $505 $508 forward $334 $-1 #
coedge $-1 $201 $325 $493 $509 forward $334 $-1 #
loop $-1 $-1 $201 $488 #
vertex $-1 $202 $510 #
vertex $-1 $508 $511 #
straight-curve $-1 57.647022919400612 -12.130343528727726 11.876135322239968 0 -1 0 I I #
face $-1 $512 $513 $47 $-1 $514 reversed single #
loop $-1 $-1 $209 $203 #
plane-surface $-1 57.647022919400612 0 0 -1 0 0 0 0 1 forward_v I I I I #
coedge $-1 $515 $349 $516 $517 reversed $204 $-1 #
coedge $-1 $518 $206 $515 $519 forward $129 $-1 #
coedge $-1 $206 $518 $520 $521 reversed $129 $-1 #
coedge $-1 $352 $351 $206 $345 forward $339 $-1 #
edge $-1 $522 7.420969335254318 $523 16.839717722201136 $344 $524 forward 7 unknown #
coedge $-1 $208 $207 $525 $526 reversed $82 $-1 #
coedge $-1 $527 $528 $207 $348 forward $529 $-1 #
edge $-1 $530 -57.647022919400612 $353 57.647022919400612 $347 $531 forward 7 unknown #
coedge $-1 $341 $532 $208 $350 reversed $204 $-1 #
edge $-1 $533 -57.647022919400612 $354 57.647022919400612 $349 $534 forward 7 unknown #
coedge $-1 $344 $209 $532 $535 forward $339 $-1 #
coedge $-1 $209 $344 $527 $536 reversed $339 $-1 #
vertex $-1 $536 $537 #
vertex $-1 $210 $538 #
straight-curve $-1 57.647022919400612 12.130343528727726 11.876135322239968 0 -1 0 I I #
face $-1 $-1 $539 $48 $-1 $540 forward single #
loop $-1 $-1 $217 $211 #
plane-surface $-1 -57.647022919400612 0 0 1 0 0 0 0 -1 forward_v I I I I #
coedge $-1 $541 $542 $543 $544 reversed $212 $-1 #
coedge $-1 $545 $214 $216 $366 forward $133 $-1 #
coedge $-1 $214 $545 $541 $546 forward $133 $-1 #
coedge $-1 $543 $217 $214 $363 forward $357 $-1 #
edge $-1 $369 2.0084705863867862 $547 11.020362677288812 $362 $548 forward 7 unknown #
coedge $-1 $549 $550 $215 $365 forward $539 $-1 #
edge $-1 $551 -22.063388662066423 $368 -11.221476013743413 $364 $552 forward 7 unknown #
edge $-1 $369 -3.9571264572537829e-014 $551 15.072032385802967 $216 $553 forward 7 unknown #
coedge $-1 $217 $543 $549 $554 reversed $357 $-1 #
vertex $-1 $554 $555 #
vertex $-1 $218 $556 #
straight-curve $-1 -57.647022919400612 -8.5228872182245858 43.025779434921461 0 0 -1 I I #
coedge $-1 $371 $371 $-1 $557 reversed $221 $-1 #
edge $-1 $558 0 $558 6.2831853071796004 $222 $559 forward 7 unknown #
vertex $-1 $225 $560 #
ellipse-curve $-1 -52.226066595239111 -13.028833263675601 8.3509206543352317 -0.69465837861970381 0 0.71933979245794832 0.71933979245794832 0 0.69465837861970381 1 I I #
face $-1 $-1 $387 $50 $-1 $561 reversed single #
loop $-1 $-1 $562 $226 #
plane-surface $-1 0 0 13.585877444148025 0 0 1 1 0 0 forward_v I I I I #
coedge $-1 $563 $564 $565 $566 reversed $227 $-1 #
coedge $-1 $567 $229 $231 $385 forward $142 $-1 #
coedge $-1 $229 $567 $563 $568 forward $142 $-1 #
coedge $-1 $565 $232 $229 $382 forward $387 $-1 #
edge $-1 $389 -4.5086337016072289 $569 4.5032583892947979 $381 $570 forward 7 unknown #
coedge $-1 $571 $572 $230 $384 forward $376 $-1 #
edge $-1 $573 -22.063388662066423 $388 -11.221476013743413 $383 $574 forward 7 unknown #
edge $-1 $389 -3.9571264572537829e-014 $573 15.072032385802967 $231 $575 forward 7 unknown #
coedge $-1 $232 $565 $571 $576 reversed $387 $-1 #
loop $-1 $-1 $565 $375 #
vertex $-1 $576 $577 #
vertex $-1 $233 $578 #
straight-curve $-1 -57.647022919400612 4.5113213577634443 43.025779434921461 0 0 -1 I I #
coedge $-1 $391 $391 $-1 $579 reversed $236 $-1 #
edge $-1 $580 0 $580 6.2831853071796004 $237 $581 forward 7 unknown #
vertex $-1 $240 $582 #
ellipse-curve $-1 -52.226066595239111 0.0053753123124273827 8.3509206543352317 -0.69465837861970381 0 0.71933979245794832 0.71933979245794832 0 0.69465837861970381 1 I I #
face $-1 $-1 $407 $52 $-1 $583 reversed single #
loop $-1 $-1 $584 $241 #
plane-surface $-1 0 0 13.585877444148025 0 0 1 1 0 0 forward_v I I I I #
coedge $-1 $585 $586 $587 $588 reversed $242 $-1 #
coedge $-1 $589 $244 $246 $405 forward $151 $-1 #
coedge $-1 $244 $589 $585 $590 forward $151 $-1 #
coedge $-1 $587 $247 $244 $402 forward $407 $-1 #
edge $-1 $409 -11.025737989601245 $591 -2.0138458986992163 $401 $592 forward 7 unknown #
coedge $-1 $593 $594 $245 $404 forward $396 $-1 #
edge $-1 $595 -22.063388662066423 $408 -11.221476013743413 $403 $596 forward 7 unknown #
edge $-1 $409 -3.9571264572537829e-014 $595 15.072032385802967 $246 $597 forward 7 unknown #
coedge $-1 $247 $587 $593 $598 reversed $407 $-1 #
loop $-1 $-1 $587 $395 #
vertex $-1 $598 $599 #
vertex $-1 $248 $600 #
straight-curve $-1 -57.647022919400612 17.545529933751475 43.025779434921461 0 0 -1 I I #
coedge $-1 $411 $411 $-1 $601 reversed $251 $-1 #
edge $-1 $602 0 $602 6.2831853071796004 $252 $603 forward 7 unknown #
vertex $-1 $255 $604 #
ellipse-curve $-1 -52.226066595239111 13.039583888300459 8.3509206543352317 -0.69465837861970381 0 0.71933979245794832 0.71933979245794832 0 0.69465837861970381 1 I I #
face $-1 $-1 $605 $54 $-1 $606 forward single #
loop $-1 $-1 $426 $256 #
plane-surface $-1 57.647022919400612 0 0 -1 0 0 0 0 1 forward_v I I I I #
coedge $-1 $607 $608 $260 $424 reversed $257 $-1 #
coedge $-1 $420 $259 $261 $425 reversed $160 $-1 #
coedge $-1 $259 $419 $609 $610 reversed $160 $-1 #
coedge $-1 $611 $262 $259 $422 forward $416 $-1 #
edge $-1 $428 -81.14503009491024 $612 -67.699039882834626 $421 $613 forward 7 unknown #
coedge $-1 $261 $260 $614 $615 reversed $103 $-1 #
edge $-1 $427 -115.29404583880122 $616 -94.375798747249618 $418 $617 forward 7 unknown #
edge $-1 $618 94.375798747249618 $428 115.29404583880122 $419 $619 forward 7 unknown #
coedge $-1 $262 $611 $607 $620 forward $416 $-1 #
vertex $-1 $263 $621 #
vertex $-1 $263 $622 #
straight-curve $-1 57.647022919400605 -7.9342952399449569 0.13988723207241804 0 1 0 I I #
coedge $-1 $430 $430 $-1 $623 reversed $266 $-1 #
edge $-1 $624 0 $624 6.2831853071796004 $267 $625 forward 7 unknown #
vertex $-1 $270 $626 #
ellipse-curve $-1 49.634869516600993 -17.446900073072253 6.8628823381102286 0.64278761758704617 0 0.76604443648966558 0.38302221824483279 0 -0.32139380879352308 1 I I #
coedge $-1 $434 $434 $-1 $627 reversed $273 $-1 #
edge $-1 $628 0 $628 6.2831853071796004 $274 $629 forward 7 unknown #
vertex $-1 $277 $630 #
ellipse-curve $-1 49.634869516600993 -14.290280886707571 6.8628823381102286 0.64278761758704617 0 0.76604443648966558 0.38302221824483279 0 -0.32139380879352308 1 I I #
face $-1 $-1 $631 $57 $-1 $632 forward single #
loop $-1 $-1 $284 $278 #
plane-surface $-1 57.647022919400612 0 0 -1 0 0 0 0 1 forward_v I I I I #
coedge $-1 $633 $634 $635 $636 reversed $279 $-1 #
coedge $-1 $637 $281 $283 $448 forward $174 $-1 #
coedge $-1 $281 $637 $633 $638 forward $174 $-1 #
coedge $-1 $635 $284 $281 $445 forward $439 $-1 #
edge $-1 $451 -1.8413611920460626 $639 5.5240835761381968 $444 $640 forward 7 unknown #
coedge $-1 $641 $642 $282 $447 forward $631 $-1 #
edge $-1 $643 19.904593318352781 $450 35.928900123952019 $446 $644 forward 7 unknown #
edge $-1 $451 -115.29404583880122 $643 -94.375798747249618 $283 $645 forward 7 unknown #
coedge $-1 $284 $635 $641 $646 reversed $439 $-1 #
vertex $-1 $646 $647 #
vertex $-1 $285 $648 #
straight-curve $-1 57.647022919400612 4.4408920985006262e-015 81.284917326982651 0 0 -1 I I #
coedge $-1 $453 $453 $-1 $649 reversed $288 $-1 #
edge $-1 $650 0 $650 6.2831853071796004 $289 $651 forward 7 unknown #
vertex $-1 $292 $652 #
ellipse-curve $-1 49.634869516600993 2.1044127909097909 6.8628823381102286 0.64278761758704617 0 0.76604443648966558 0.38302221824483279 0 -0.32139380879352308 1 I I #
coedge $-1 $457 $457 $-1 $653 reversed $295 $-1 #
edge $-1 $654 0 $654 6.2831853071796004 $296 $655 forward 7 unknown #
vertex $-1 $299 $656 #
ellipse-curve $-1 49.634869516600993 5.2610319772744738 6.8628823381102286 0.64278761758704617 0 0.76604443648966558 0.38302221824483279 0 -0.32139380879352308 1 I I #
face $-1 $-1 $315 $45 $-1 $657 reversed single #
loop $-1 $-1 $477 $300 #
plane-surface $-1 0 28.970061250928861 0 0 -1 0 0 0 -1 forward_v I I I I #
coedge $-1 $658 $475 $478 $659 forward $301 $-1 #
coedge $-1 $481 $303 $304 $469 reversed $188 $-1 #
coedge $-1 $475 $658 $303 $467 reversed $301 $-1 #
edge $-1 $482 -13.585877444148025 $660 13.585877444148025 $466 $661 forward 7 unknown #
coedge $-1 $305 $304 $658 $662 forward $121 $-1 #
edge $-1 $473 -57.647022919400612 $660 57.647022919400612 $465 $663 forward 7 unknown #
coedge $-1 $478 $477 $305 $471 reversed $462 $-1 #
edge $-1 $664 -57.647022919400612 $472 57.647022919400612 $470 $665 forward 7 unknown #
vertex $-1 $307 $666 #
vertex $-1 $484 $667 #
straight-curve $-1 57.647022919400612 0 -13.585877444148025 0 -1 0 I I #
coedge $-1 $464 $466 $308 $476 reversed $301 $-1 #
edge $-1 $479 -28.970061250928861 $482 28.970061250928861 $475 $668 forward 7 unknown #
coedge $-1 $470 $309 $314 $485 forward $462 $-1 #
coedge $-1 $309 $470 $464 $659 reversed $462 $-1 #
vertex $-1 $310 $669 #
straight-curve $-1 0 28.970061250928861 13.585877444148025 -1 0 0 I I #
coedge $-1 $311 $465 $313 $484 reversed $188 $-1 #
vertex $-1 $476 $670 #
straight-curve $-1 0 -28.970061250928861 13.585877444148025 1 0 0 I I #
edge $-1 $316 -13.585877444148025 $473 13.585877444148025 $313 $671 forward 7 unknown #
edge $-1 $317 -13.585877444148025 $472 13.585877444148025 $314 $672 forward 7 unknown #
point $-1 57.647022919400612 -28.970061250928861 13.585877444148025 #
point $-1 57.647022919400612 28.970061250928861 13.585877444148025 #
face $-1 $-1 $334 $46 $-1 $673 reversed single #
loop $-1 $-1 $330 $319 #
plane-surface $-1 0 -28.970061250928861 0 0 1 0 0 0 1 forward_v I I I I #
coedge $-1 $674 $675 $327 $501 forward $320 $-1 #
coedge $-1 $328 $322 $674 $676 reversed $196 $-1 #
coedge $-1 $322 $328 $333 $509 reversed $196 $-1 #
edge $-1 $677 -57.647022919400612 $499 57.647022919400612 $322 $678 forward 7 unknown #
coedge $-1 $324 $323 $679 $680 reversed $125 $-1 #
coedge $-1 $505 $504 $323 $497 forward $489 $-1 #
edge $-1 $681 -57.647022919400612 $498 57.647022919400612 $496 $682 forward 7 unknown #
vertex $-1 $497 $683 #
vertex $-1 $326 $684 #
straight-curve $-1 57.647022919400612 -12.130343528727726 5.7657037830271278 0 1 0 I I #
edge $-1 $506 -16.839717722201136 $502 -7.420969335254318 $491 $685 forward 7 unknown #
vertex $-1 $501 $686 #
straight-curve $-1 0 -19.551312863982044 11.876135322239968 -1 0 0 I I #
coedge $-1 $496 $330 $675 $687 forward $489 $-1 #
coedge $-1 $330 $496 $332 $508 reversed $489 $-1 #
vertex $-1 $687 $688 #
straight-curve $-1 0 -28.970061250928861 11.876135322239968 -1 0 0 I I #
edge $-1 $336 -11.876135322239968 $498 -5.7657037830271278 $332 $689 forward 7 unknown #
edge $-1 $499 1.3552440067103539 $335 7.4656755459231938 $333 $690 forward 7 unknown #
point $-1 57.647022919400612 -19.551312863982044 11.876135322239968 #
point $-1 57.647022919400612 -28.970061250928861 11.876135322239968 #
face $-1 $-1 $529 $47 $-1 $691 reversed single #
loop $-1 $-1 $525 $338 #
plane-surface $-1 -57.647022919400612 0 0 1 0 0 0 0 -1 forward_v I I I I #
coedge $-1 $532 $341 $342 $519 reversed $204 $-1 #
coedge $-1 $525 $692 $341 $517 forward $513 $-1 #
edge $-1 $693 1.3552440067103539 $533 7.4656755459231938 $516 $694 forward 7 unknown #
coedge $-1 $343 $342 $692 $695 reversed $129 $-1 #
edge $-1 $522 -57.647022919400612 $693 57.647022919400612 $515 $696 forward 7 unknown #
coedge $-1 $528 $527 $343 $521 forward $529 $-1 #
edge $-1 $523 -57.647022919400612 $697 57.647022919400612 $520 $698 forward 7 unknown #
vertex $-1 $345 $699 #
vertex $-1 $521 $700 #
straight-curve $-1 57.647022919400612 12.130343528727726 5.7657037830271278 0 1 0 I I #
coedge $-1 $701 $516 $346 $526 forward $513 $-1 #
edge $-1 $533 7.420969335254318 $530 16.839717722201136 $525 $702 forward 7 unknown #
coedge $-1 $520 $347 $352 $536 forward $529 $-1 #
coedge $-1 $347 $520 $701 $703 reversed $529 $-1 #
loop $-1 $-1 $347 $512 #
vertex $-1 $703 $704 #
straight-curve $-1 0 28.970061250928861 11.876135322239968 1 0 0 I I #
coedge $-1 $349 $515 $351 $535 reversed $204 $-1 #
vertex $-1 $526 $705 #
straight-curve $-1 0 19.551312863982044 11.876135322239968 1 0 0 I I #
edge $-1 $354 -7.4656755459231938 $522 -1.3552440067103539 $351 $706 forward 7 unknown #
edge $-1 $353 -11.876135322239968 $523 -5.7657037830271278 $352 $707 forward 7 unknown #
point $-1 57.647022919400612 28.970061250928861 11.876135322239968 #
point $-1 57.647022919400612 19.551312863982044 11.876135322239968 #
loop $-1 $-1 $364 $356 #
plane-surface $-1 0 0 13.585877444148025 0 0 1 1 0 0 forward_v I I I I #
coedge $-1 $542 $359 $361 $546 reversed $212 $-1 #
coedge $-1 $359 $541 $708 $709 reversed $212 $-1 #
coedge $-1 $367 $362 $359 $544 forward $357 $-1 #
edge $-1 $547 -39.909815570399019 $710 -29.439901990773436 $543 $711 forward 7 unknown #
coedge $-1 $361 $360 $550 $712 reversed $133 $-1 #
edge $-1 $713 -15.072032385802967 $547 3.9571264572537829e-014 $541 $714 forward 7 unknown #
vertex $-1 $363 $715 #
straight-curve $-1 -57.647022919400612 -6.5144166318377996 3.1159638645224432 0 -1 0 I I #
coedge $-1 $708 $364 $367 $554 forward $539 $-1 #
coedge $-1 $364 $708 $545 $712 forward $539 $-1 #
vertex $-1 $365 $716 #
straight-curve $-1 -68.868498933144025 -8.5228872182245858 13.585877444148025 -1 0 0 I I #
straight-curve $-1 -57.647022919400584 -8.5228872182245858 3.1159638645224703 0.71933979245794832 0 0.69465837861970381 I I #
edge $-1 $368 8.5228872182245858 $710 17.534779309126613 $367 $717 forward 7 unknown #
point $-1 -57.647022919400612 -8.5228872182245858 13.585877444148025 #
point $-1 -57.647022919400612 -8.5228872182245858 3.1159638645224428 #
edge $-1 $718 1 $718 0 $371 $-1 forward 7 unknown #
vertex $-1 $372 $719 #
ellipse-curve $-1 -51.185298023762421 -13.028833263675601 7.2731732733989976 -0.69465837861970381 0 0.71933979245794832 0.71933979245794832 0 0.69465837861970381 1 I I #
point $-1 -51.506726802781174 -13.028833263675601 9.0455790329549508 #
plane-surface $-1 -57.647022919400612 0 0 1 0 0 0 0 -1 forward_v I I I I #
coedge $-1 $572 $571 $564 $720 forward $376 $-1 #
coedge $-1 $564 $378 $380 $568 reversed $227 $-1 #
coedge $-1 $378 $563 $562 $720 reversed $227 $-1 #
coedge $-1 $386 $381 $378 $566 forward $387 $-1 #
edge $-1 $569 -39.909815570399019 $721 -29.439901990773436 $565 $722 forward 7 unknown #
coedge $-1 $380 $379 $572 $723 reversed $142 $-1 #
edge $-1 $724 -15.072032385802967 $569 3.9571264572537829e-014 $563 $725 forward 7 unknown #
vertex $-1 $382 $726 #
straight-curve $-1 -57.647022919400612 0.0026876561562154677 3.1159638645224432 0 -1 0 I I #
coedge $-1 $562 $383 $386 $576 forward $376 $-1 #
coedge $-1 $383 $562 $567 $723 forward $376 $-1 #
vertex $-1 $384 $727 #
straight-curve $-1 -68.868498933144025 4.5113213577634443 13.585877444148025 -1 0 0 I I #
straight-curve $-1 -57.647022919400584 4.5113213577634443 3.1159638645224703 0.71933979245794832 0 0.69465837861970381 I I #
edge $-1 $388 -4.5113213577634443 $721 4.5005707331385825 $386 $728 forward 7 unknown #
point $-1 -57.647022919400612 4.5113213577634443 13.585877444148025 #
point $-1 -57.647022919400612 4.5113213577634443 3.1159638645224428 #
edge $-1 $729 1 $729 0 $391 $-1 forward 7 unknown #
vertex $-1 $392 $730 #
ellipse-curve $-1 -51.185298023762421 0.0053753123124273827 7.2731732733989976 -0.69465837861970381 0 0.71933979245794832 0.71933979245794832 0 0.69465837861970381 1 I I #
point $-1 -51.506726802781174 0.0053753123124273827 9.0455790329549508 #
plane-surface $-1 -57.647022919400612 0 0 1 0 0 0 0 -1 forward_v I I I I #
coedge $-1 $594 $593 $586 $731 forward $396 $-1 #
coedge $-1 $586 $398 $400 $590 reversed $242 $-1 #
coedge $-1 $398 $585 $584 $731 reversed $242 $-1 #
coedge $-1 $406 $401 $398 $588 forward $407 $-1 #
edge $-1 $591 -39.909815570399019 $732 -29.439901990773436 $587 $733 forward 7 unknown #
coedge $-1 $400 $399 $594 $734 reversed $151 $-1 #
edge $-1 $735 -15.072032385802967 $591 3.9571264572537829e-014 $585 $736 forward 7 unknown #
vertex $-1 $402 $737 #
straight-curve $-1 -57.647022919400612 6.5197919441502297 3.1159638645224432 0 -1 0 I I #
coedge $-1 $584 $403 $406 $598 forward $396 $-1 #
coedge $-1 $403 $584 $589 $734 forward $396 $-1 #
vertex $-1 $404 $738 #
straight-curve $-1 -68.868498933144025 17.545529933751475 13.585877444148025 -1 0 0 I I #
straight-curve $-1 -57.647022919400584 17.545529933751475 3.1159638645224703 0.71933979245794832 0 0.69465837861970381 I I #
edge $-1 $408 -17.545529933751475 $732 -8.5336378428494459 $406 $739 forward 7 unknown #
point $-1 -57.647022919400612 17.545529933751475 13.585877444148025 #
point $-1 -57.647022919400612 17.545529933751475 3.1159638645224428 #
edge $-1 $740 1 $740 0 $411 $-1 forward 7 unknown #
vertex $-1 $412 $741 #
ellipse-curve $-1 -51.185298023762421 13.039583888300459 7.2731732733989976 -0.69465837861970381 0 0.71933979245794832 0.71933979245794832 0 0.69465837861970381 1 I I #
point $-1 -51.506726802781174 13.039583888300459 9.0455790329549508 #
loop $-1 $-1 $742 $415 #
plane-surface $-1 0 0 13.585877444148025 0 0 1 1 0 0 forward_v I I I I #
coedge $-1 $608 $418 $426 $620 reversed $257 $-1 #
coedge $-1 $418 $607 $742 $743 reversed $257 $-1 #
coedge $-1 $614 $744 $420 $610 forward $605 $-1 #
edge $-1 $612 -35.928900123952019 $618 -19.904593318352781 $609 $745 forward 7 unknown #
coedge $-1 $426 $421 $744 $746 reversed $416 $-1 #
vertex $-1 $610 $747 #
straight-curve $-1 57.647022919400612 -12.185868095797783 81.284917326982651 0 0 1 I I #
coedge $-1 $742 $609 $423 $615 forward $605 $-1 #
edge $-1 $618 4.2515728558528263 $616 11.617017624037087 $614 $748 forward 7 unknown #
vertex $-1 $743 $749 #
straight-curve $-1 -30.673339455797546 -19.551312863982044 74.249472278767144 -0.76604443648966558 0 0.64278761758704617 I I #
vertex $-1 $615 $750 #
straight-curve $-1 -30.673339455797546 -12.185868095797783 74.249472278767144 0.76604443648966558 0 -0.64278761758704617 I I #
edge $-1 $751 67.699039882834626 $427 81.14503009491024 $426 $752 forward 7 unknown #
point $-1 57.647022919400612 -19.551312863982044 0.13988723207241094 #
point $-1 57.647022919400612 -12.185868095797783 0.13988723207241094 #
edge $-1 $753 1 $753 0 $430 $-1 forward 7 unknown #
vertex $-1 $431 $754 #
ellipse-curve $-1 48.381985878604198 -17.446900073072253 5.3697537926985603 0.64278761758704617 0 0.76604443648966558 0.38302221824483279 0 -0.32139380879352308 1 I I #
point $-1 50.017891734845819 -17.446900073072253 6.5414885293166929 #
edge $-1 $755 1 $755 0 $434 $-1 forward 7 unknown #
vertex $-1 $435 $756 #
ellipse-curve $-1 48.381985878604198 -14.290280886707571 5.3697537926985603 0.64278761758704617 0 0.76604443648966558 0.38302221824483279 0 -0.32139380879352308 1 I I #
point $-1 50.017891734845819 -14.290280886707571 6.5414885293166929 #
loop $-1 $-1 $446 $438 #
plane-surface $-1 0 0 13.585877444148025 0 0 1 1 0 0 forward_v I I I I #
coedge $-1 $634 $441 $443 $638 reversed $279 $-1 #
coedge $-1 $441 $633 $757 $758 reversed $279 $-1 #
coedge $-1 $449 $444 $441 $636 forward $439 $-1 #
edge $-1 $639 -81.14503009491024 $759 -67.699039882834626 $635 $760 forward 7 unknown #
coedge $-1 $443 $442 $642 $761 reversed $174 $-1 #
edge $-1 $762 94.375798747249618 $639 115.29404583880122 $633 $763 forward 7 unknown #
vertex $-1 $445 $764 #
straight-curve $-1 57.647022919400605 1.8413611920460671 0.13988723207241804 0 1 0 I I #
coedge $-1 $757 $446 $449 $646 forward $631 $-1 #
coedge $-1 $446 $757 $637 $761 forward $631 $-1 #
vertex $-1 $447 $765 #
straight-curve $-1 21.718122795448593 4.4408920985006262e-015 13.585877444148025 1 0 0 I I #
straight-curve $-1 -30.673339455797546 4.4408920985006262e-015 74.249472278767144 -0.76604443648966558 0 0.64278761758704617 I I #
edge $-1 $450 4.4408920985006262e-015 $759 7.3654447681842639 $449 $766 forward 7 unknown #
point $-1 57.647022919400612 4.4408920985006262e-015 13.585877444148025 #
point $-1 57.647022919400612 4.4408920985006262e-015 0.13988723207241094 #
edge $-1 $767 1 $767 0 $453 $-1 forward 7 unknown #
vertex $-1 $454 $768 #
ellipse-curve $-1 48.381985878604198 2.1044127909097909 5.3697537926985603 0.64278761758704617 0 0.76604443648966558 0.38302221824483279 0 -0.32139380879352308 1 I I #
point $-1 50.017891734845819 2.1044127909097909 6.5414885293166929 #
edge $-1 $769 1 $769 0 $457 $-1 forward 7 unknown #
vertex $-1 $458 $770 #
ellipse-curve $-1 48.381985878604198 5.2610319772744738 5.3697537926985603 0.64278761758704617 0 0.76604443648966558 0.38302221824483279 0 -0.32139380879352308 1 I I #
point $-1 50.017891734845819 5.2610319772744738 6.5414885293166929 #
plane-surface $-1 57.647022919400612 0 0 -1 0 0 0 0 1 forward_v I I I I #
coedge $-1 $466 $464 $468 $662 reversed $301 $-1 #
edge $-1 $479 -13.585877444148025 $664 13.585877444148025 $478 $771 forward 7 unknown #
vertex $-1 $662 $772 #
straight-curve $-1 -57.647022919400612 -28.970061250928861 0 0 0 -1 I I #
edge $-1 $660 -28.970061250928861 $664 28.970061250928861 $658 $773 forward 7 unknown #
straight-curve $-1 0 -28.970061250928861 -13.585877444148025 -1 0 0 I I #
vertex $-1 $471 $774 #
straight-curve $-1 0 28.970061250928861 -13.585877444148025 1 0 0 I I #
point $-1 57.647022919400612 28.970061250928861 -13.585877444148025 #
point $-1 57.647022919400612 -28.970061250928861 -13.585877444148025 #
straight-curve $-1 -57.647022919400612 0 13.585877444148025 0 -1 0 I I #
point $-1 -57.647022919400612 28.970061250928861 13.585877444148025 #
point $-1 -57.647022919400612 -28.970061250928861 13.585877444148025 #
straight-curve $-1 57.647022919400612 -28.970061250928861 0 0 0 -1 I I #
straight-curve $-1 57.647022919400612 28.970061250928861 0 0 0 -1 I I #
plane-surface $-1 57.647022919400612 0 0 -1 0 0 0 0 1 forward_v I I I I #
coedge $-1 $679 $491 $492 $676 forward $320 $-1 #
coedge $-1 $491 $679 $504 $687 reversed $320 $-1 #
edge $-1 $502 -7.4656755459231938 $677 -1.3552440067103539 $674 $775 forward 7 unknown #
vertex $-1 $680 $776 #
straight-curve $-1 0 -19.551312863982044 5.7657037830271278 1 0 0 I I #
coedge $-1 $675 $674 $495 $680 forward $320 $-1 #
edge $-1 $677 7.420969335254318 $681 16.839717722201136 $679 $777 forward 7 unknown #
vertex $-1 $497 $778 #
straight-curve $-1 0 -28.970061250928861 5.7657037830271278 1 0 0 I I #
point $-1 57.647022919400612 -28.970061250928861 5.7657037830271278 #
point $-1 57.647022919400612 -19.551312863982044 5.7657037830271278 #
straight-curve $-1 -57.647022919400612 -12.130343528727726 11.876135322239968 0 1 0 I I #
point $-1 -57.647022919400612 -19.551312863982044 11.876135322239968 #
edge $-1 $506 -11.876135322239968 $681 -5.7657037830271278 $675 $779 forward 7 unknown #
point $-1 -57.647022919400612 -28.970061250928861 11.876135322239968 #
straight-curve $-1 57.647022919400612 -28.970061250928861 0 0 0 -1 I I #
straight-curve $-1 57.647022919400612 -19.551312863982044 4.4104597763167739 0 0 1 I I #
plane-surface $-1 0 28.970061250928861 0 0 -1 0 0 0 -1 forward_v I I I I #
coedge $-1 $516 $701 $518 $695 forward $513 $-1 #
vertex $-1 $695 $780 #
straight-curve $-1 -57.647022919400612 19.551312863982044 4.4104597763167739 0 0 1 I I #
edge $-1 $697 -16.839717722201136 $693 -7.420969335254318 $692 $781 forward 7 unknown #
straight-curve $-1 0 19.551312863982044 5.7657037830271278 -1 0 0 I I #
vertex $-1 $521 $782 #
straight-curve $-1 0 28.970061250928861 5.7657037830271278 -1 0 0 I I #
point $-1 57.647022919400612 19.551312863982044 5.7657037830271278 #
point $-1 57.647022919400612 28.970061250928861 5.7657037830271278 #
coedge $-1 $692 $525 $528 $703 forward $513 $-1 #
straight-curve $-1 -57.647022919400612 12.130343528727726 11.876135322239968 0 1 0 I I #
edge $-1 $530 -11.876135322239968 $697 -5.7657037830271278 $528 $783 forward 7 unknown #
point $-1 -57.647022919400612 28.970061250928861 11.876135322239968 #
point $-1 -57.647022919400612 19.551312863982044 11.876135322239968 #
straight-curve $-1 57.647022919400612 19.551312863982044 4.4104597763167739 0 0 -1 I I #
straight-curve $-1 57.647022919400612 28.970061250928861 0 0 0 -1 I I #
coedge $-1 $550 $549 $542 $709 forward $539 $-1 #
edge $-1 $710 11.221476013743413 $713 22.063388662066423 $708 $784 forward 7 unknown #
vertex $-1 $709 $785 #
straight-curve $-1 -57.647022919400612 -17.534779309126613 43.025779434921461 0 0 1 I I #
edge $-1 $713 -11.020362677288812 $551 -2.0084705863867862 $550 $786 forward 7 unknown #
vertex $-1 $712 $787 #
straight-curve $-1 -57.647022919400584 -17.534779309126613 3.1159638645224703 -0.71933979245794832 0 -0.69465837861970381 I I #
point $-1 -57.647022919400612 -17.534779309126613 3.1159638645224428 #
point $-1 -46.805110271077602 -8.5228872182245858 13.585877444148025 #
straight-curve $-1 -57.647022919400612 0 13.585877444148025 0 -1 0 I I #
vertex $-1 $557 $788 #
point $-1 -50.465958231304469 -13.028833263675601 7.9678316520187016 #
edge $-1 $721 11.221476013743413 $724 22.063388662066423 $562 $789 forward 7 unknown #
vertex $-1 $720 $790 #
straight-curve $-1 -57.647022919400612 -4.5005707331385825 43.025779434921461 0 0 1 I I #
edge $-1 $724 -4.5032583892947979 $573 4.5086337016072289 $572 $791 forward 7 unknown #
vertex $-1 $723 $792 #
straight-curve $-1 -57.647022919400584 -4.5005707331385825 3.1159638645224703 -0.71933979245794832 0 -0.69465837861970381 I I #
point $-1 -57.647022919400612 -4.5005707331385825 3.1159638645224428 #
point $-1 -46.805110271077602 4.5113213577634443 13.585877444148025 #
straight-curve $-1 -57.647022919400612 0 13.585877444148025 0 -1 0 I I #
vertex $-1 $579 $793 #
point $-1 -50.465958231304469 0.0053753123124273827 7.9678316520187016 #
edge $-1 $732 11.221476013743413 $735 22.063388662066423 $584 $794 forward 7 unknown #
vertex $-1 $588 $795 #
straight-curve $-1 -57.647022919400612 8.5336378428494459 43.025779434921461 0 0 1 I I #
edge $-1 $735 2.0138458986992163 $595 11.025737989601245 $594 $796 forward 7 unknown #
vertex $-1 $734 $797 #
straight-curve $-1 -57.647022919400584 8.5336378428494459 3.1159638645224703 -0.71933979245794832 0 -0.69465837861970381 I I #
point $-1 -57.647022919400612 8.5336378428494459 3.1159638645224428 #
point $-1 -46.805110271077602 17.545529933751475 13.585877444148025 #
straight-curve $-1 -57.647022919400612 0 13.585877444148025 0 -1 0 I I #
vertex $-1 $601 $798 #
point $-1 -50.465958231304469 13.039583888300459 7.9678316520187016 #
coedge $-1 $744 $614 $608 $743 forward $605 $-1 #
edge $-1 $616 19.904593318352781 $751 35.928900123952019 $742 $799 forward 7 unknown #
coedge $-1 $609 $742 $611 $746 forward $605 $-1 #
straight-curve $-1 21.718122795448593 -12.185868095797783 13.585877444148025 -1 0 0 I I #
edge $-1 $751 -19.551312863982044 $612 -12.185868095797783 $611 $800 forward 7 unknown #
point $-1 57.647022919400612 -12.185868095797783 13.585877444148025 #
straight-curve $-1 41.622716113801374 -7.9342952399449569 13.585877444148032 0 -1 0 I I #
point $-1 41.622716113801374 -19.551312863982044 13.585877444148025 #
point $-1 41.622716113801374 -12.185868095797783 13.585877444148025 #
vertex $-1 $746 $801 #
straight-curve $-1 57.647022919400612 -19.551312863982044 81.284917326982651 0 0 -1 I I #
vertex $-1 $623 $802 #
point $-1 48.765008096849037 -17.446900073072253 5.048359983905037 #
vertex $-1 $627 $803 #
point $-1 48.765008096849037 -14.290280886707571 5.048359983905037 #
coedge $-1 $642 $641 $634 $758 forward $631 $-1 #
edge $-1 $759 -35.928900123952019 $762 -19.904593318352781 $757 $804 forward 7 unknown #
vertex $-1 $758 $805 #
straight-curve $-1 57.647022919400612 7.3654447681842639 81.284917326982651 0 0 1 I I #
edge $-1 $762 -5.5240835761381968 $643 1.8413611920460626 $642 $806 forward 7 unknown #
vertex $-1 $761 $807 #
straight-curve $-1 -30.673339455797546 7.3654447681842639 74.249472278767144 0.76604443648966558 0 -0.64278761758704617 I I #
point $-1 57.647022919400612 7.3654447681842639 0.13988723207241094 #
point $-1 41.622716113801374 4.4408920985006262e-015 13.585877444148025 #
straight-curve $-1 57.647022919400612 0 13.585877444148025 0 1 0 I I #
vertex $-1 $649 $808 #
point $-1 48.765008096849037 2.1044127909097909 5.048359983905037 #
vertex $-1 $653 $809 #
point $-1 48.765008096849037 5.2610319772744738 5.048359983905037 #
straight-curve $-1 -57.647022919400612 28.970061250928861 0 0 0 -1 I I #
point $-1 -57.647022919400612 -28.970061250928861 -13.585877444148025 #
straight-curve $-1 -57.647022919400612 0 -13.585877444148025 0 1 0 I I #
point $-1 -57.647022919400612 28.970061250928861 -13.585877444148025 #
straight-curve $-1 -57.647022919400612 -19.551312863982044 4.4104597763167739 0 0 -1 I I #
point $-1 -57.647022919400612 -19.551312863982044 5.7657037830271278 #
straight-curve $-1 -57.647022919400612 -12.130343528727726 5.7657037830271278 0 -1 0 I I #
point $-1 -57.647022919400612 -28.970061250928861 5.7657037830271278 #
straight-curve $-1 -57.647022919400612 -28.970061250928861 0 0 0 -1 I I #
point $-1 -57.647022919400612 19.551312863982044 5.7657037830271278 #
straight-curve $-1 -57.647022919400612 12.130343528727726 5.7657037830271278 0 -1 0 I I #
point $-1 -57.647022919400612 28.970061250928861 5.7657037830271278 #
straight-curve $-1 -57.647022919400612 28.970061250928861 0 0 0 -1 I I #
straight-curve $-1 -68.868498933144025 -17.534779309126613 13.585877444148025 1 0 0 I I #
point $-1 -57.647022919400612 -17.534779309126613 13.585877444148025 #
straight-curve $-1 -46.805110271077595 -6.5144166318377996 13.585877444148025 0 1 0 I I #
point $-1 -46.805110271077602 -17.534779309126613 13.585877444148025 #
point $-1 -50.490639645142714 -13.028833263675601 6.5538334809410497 #
straight-curve $-1 -68.868498933144025 -4.5005707331385825 13.585877444148025 1 0 0 I I #
point $-1 -57.647022919400612 -4.5005707331385825 13.585877444148025 #
straight-curve $-1 -46.805110271077595 0.0026876561562154677 13.585877444148025 0 1 0 I I #
point $-1 -46.805110271077602 -4.5005707331385825 13.585877444148025 #
point $-1 -50.490639645142714 0.0053753123124273827 6.5538334809410497 #
straight-curve $-1 -68.868498933144025 8.5336378428494459 13.585877444148025 1 0 0 I I #
point $-1 -57.647022919400612 8.5336378428494459 13.585877444148025 #
straight-curve $-1 -46.805110271077595 6.5197919441502297 13.585877444148025 0 1 0 I I #
point $-1 -46.805110271077602 8.5336378428494459 13.585877444148025 #
point $-1 -50.490639645142714 13.039583888300459 6.5538334809410497 #
straight-curve $-1 21.718122795448593 -19.551312863982044 13.585877444148025 1 0 0 I I #
straight-curve $-1 57.647022919400612 0 13.585877444148025 0 1 0 I I #
point $-1 57.647022919400612 -19.551312863982044 13.585877444148025 #
point $-1 48.060592069810681 -17.446900073072253 4.9867315744537279 #
point $-1 48.060592069810681 -14.290280886707571 4.9867315744537279 #
straight-curve $-1 21.718122795448593 7.3654447681842639 13.585877444148025 -1 0 0 I I #
point $-1 57.647022919400612 7.3654447681842639 13.585877444148025 #
straight-curve $-1 41.622716113801374 1.8413611920460671 13.585877444148032 0 -1 0 I I #
point $-1 41.622716113801374 7.3654447681842639 13.585877444148025 #
point $-1 48.060592069810681 2.1044127909097909 4.9867315744537279 #
point $-1 48.060592069810681 5.2610319772744738 4.9867315744537279 #
End-of-ACIS-data 