500 0 7 0           
7 Unknown 11 ACIS 5.0 NT 24 Thu Mar 25 23:26:49 1999 
-1 9.9999999999999995e-007 1e-010 
body $-1 $7 $-1 $8 #
body $-1 $9 $-1 $10 #
body $-1 $11 $-1 $12 #
body $-1 $13 $-1 $14 #
body $-1 $15 $-1 $16 #
body $-1 $17 $-1 $18 #
body $-1 $19 $-1 $20 #
lump $-1 $-1 $21 $0 #
transform $-1 1 0 0 0 1 0 0 0 1 61.20670186468093 30.152617659231929 9.72011734588766 1 rotate no_reflect no_shear #
lump $-1 $-1 $22 $1 #
transform $-1 1 0 0 0 1 0 0 0 1 61.20670186468093 30.152617659231929 9.72011734588766 1 rotate no_reflect no_shear #
lump $-1 $-1 $23 $2 #
transform $-1 1 0 0 0 1 0 0 0 1 61.20670186468093 30.152617659231929 9.72011734588766 1 rotate no_reflect no_shear #
lump $-1 $-1 $24 $3 #
transform $-1 1 0 0 0 1 0 0 0 1 61.20670186468093 30.152617659231929 9.72011734588766 1 rotate no_reflect no_shear #
lump $-1 $-1 $25 $4 #
transform $-1 1 0 0 0 1 0 0 0 1 61.20670186468093 30.152617659231929 9.72011734588766 1 rotate no_reflect no_shear #
lump $-1 $-1 $26 $5 #
transform $-1 1 0 0 0 1 0 0 0 1 61.20670186468093 30.152617659231929 9.72011734588766 1 rotate no_reflect no_shear #
lump $-1 $-1 $27 $6 #
transform $-1 1 0 0 0 1 0 0 0 1 61.20670186468093 30.152617659231929 9.72011734588766 1 rotate no_reflect no_shear #
shell $-1 $-1 $-1 $28 $-1 $7 #
shell $-1 $-1 $-1 $29 $-1 $9 #
shell $-1 $-1 $-1 $30 $-1 $11 #
shell $-1 $-1 $-1 $31 $-1 $13 #
shell $-1 $-1 $-1 $32 $-1 $15 #
shell $-1 $-1 $-1 $33 $-1 $17 #
shell $-1 $-1 $-1 $34 $-1 $19 #
face $-1 $35 $36 $21 $-1 $37 forward single #
face $-1 $38 $39 $22 $-1 $40 reversed single #
face $-1 $41 $42 $23 $-1 $43 forward single #
face $-1 $44 $45 $24 $-1 $46 forward single #
face $-1 $47 $48 $25 $-1 $49 forward single #
face $-1 $50 $51 $26 $-1 $52 reversed single #
face $-1 $53 $54 $27 $-1 $55 forward single #
face $-1 $56 $57 $21 $-1 $58 reversed single #
loop $-1 $-1 $59 $28 #
plane-surface $-1 0 0 9.72011734588766 0 0 1 1 0 0 forward_v I I I I #
face $-1 $60 $61 $22 $-1 $62 reversed single #
loop $-1 $-1 $63 $29 #
plane-surface $-1 24.232502561951186 64.950099007782171 138.59808359472908 1 0 0 0 -0.6560590369687036 -0.75470957328743171 forward_v I I I I #
face $-1 $64 $65 $23 $-1 $66 forward single #
loop $-1 $67 $68 $30 #
cone-surface $-1 28.607585331428275 28.057394502356289 7.8065645334390448 0 -0.6560590369687036 -0.75470957328743171 0.5 0 0 1 I I 0 1 0.5 forward I I I I #
face $-1 $69 $70 $24 $-1 $71 forward single #
loop $-1 $72 $73 $31 #
cone-surface $-1 35.170209485643902 28.057394502356289 7.8065645334390448 0 -0.6560590369687036 -0.75470957328743171 0.5 0 0 1 I I 0 1 0.5 forward I I I I #
face $-1 $74 $75 $25 $-1 $76 forward single #
loop $-1 $77 $78 $32 #
cone-surface $-1 41.732833639859528 28.057394502356289 7.8065645334390448 0 -0.6560590369687036 -0.75470957328743171 0.5 0 0 1 I I 0 1 0.5 forward I I I I #
face $-1 $79 $80 $26 $-1 $81 reversed single #
loop $-1 $-1 $82 $33 #
plane-surface $-1 -29.924336694199553 -108.83843780314967 95.282118684552728 -1 0 0 0 -0.64278761758704617 0.76604443648966558 forward_v I I I I #
face $-1 $83 $84 $27 $-1 $85 forward single #
loop $-1 $86 $87 $34 #
cone-surface $-1 -44.453713479198107 -23.883195576882894 3.9741889700966566 0 0.64278761758704617 -0.76604443648966558 1.5 0 0 1 I I 0 1 1.5 forward I I I I #
face $-1 $88 $89 $21 $-1 $90 reversed single #
loop $-1 $-1 $91 $35 #
plane-surface $-1 0 0 -9.72011734588766 0 0 1 1 0 0 forward_v I I I I #
coedge $-1 $92 $93 $94 $95 forward $36 $-1 #
face $-1 $96 $97 $22 $-1 $98 reversed single #
loop $-1 $-1 $99 $38 #
plane-surface $-1 35.170209485643902 -15.360320754964079 46.211515901480297 0 0.6560590369687036 0.75470957328743171 1 0 0 forward_v I I I I #
coedge $-1 $100 $101 $102 $103 reversed $39 $-1 #
face $-1 $-1 $104 $23 $-1 $105 forward single #
loop $-1 $106 $107 $41 #
cone-surface $-1 28.607585331428275 27.565350224629761 7.2405323534734709 0 -0.6560590369687036 -0.75470957328743171 0.25 0 0 1 I I -0.70710678118654746 0.70710678118654746 0.25 forward I I I I #
loop $-1 $-1 $108 $30 #
coedge $-1 $68 $68 $109 $110 reversed $42 $-1 #
face $-1 $-1 $111 $24 $-1 $112 forward single #
loop $-1 $113 $114 $44 #
cone-surface $-1 35.170209485643902 27.565350224629761 7.2405323534734709 0 -0.6560590369687036 -0.75470957328743171 0.25 0 0 1 I I -0.70710678118654746 0.70710678118654746 0.25 forward I I I I #
loop $-1 $-1 $115 $31 #
coedge $-1 $73 $73 $116 $117 reversed $45 $-1 #
face $-1 $-1 $118 $25 $-1 $119 forward single #
loop $-1 $120 $121 $47 #
cone-surface $-1 41.732833639859528 27.565350224629761 7.2405323534734709 0 -0.6560590369687036 -0.75470957328743171 0.25 0 0 1 I I -0.70710678118654746 0.70710678118654746 0.25 forward I I I I #
loop $-1 $-1 $122 $32 #
coedge $-1 $78 $78 $123 $124 reversed $48 $-1 #
face $-1 $125 $126 $26 $-1 $127 reversed single #
loop $-1 $-1 $128 $50 #
plane-surface $-1 -44.453713479198107 -30.152617659231936 1.5080118059118064 0 -0.64278761758704617 0.76604443648966558 1 0 0 forward_v I I I I #
coedge $-1 $129 $130 $131 $132 reversed $51 $-1 #
face $-1 $-1 $133 $27 $-1 $134 forward single #
loop $-1 $135 $136 $53 #
cone-surface $-1 -44.453713479198107 -22.025085818865968 1.7597800369263332 0 0.64278761758704617 -0.76604443648966558 0.75 0 0 1 I I -0.70710678118654757 0.70710678118654757 0.75 forward I I I I #
loop $-1 $-1 $137 $34 #
coedge $-1 $87 $87 $138 $139 reversed $54 $-1 #
face $-1 $140 $141 $21 $-1 $142 reversed single #
loop $-1 $-1 $143 $56 #
plane-surface $-1 0 -30.152617659231929 0 0 1 0 0 0 1 forward_v I I I I #
coedge $-1 $144 $145 $146 $147 forward $57 $-1 #
coedge $-1 $148 $59 $149 $150 forward $36 $-1 #
coedge $-1 $59 $148 $151 $152 forward $36 $-1 #
coedge $-1 $153 $154 $59 $95 reversed $155 $-1 #
edge $-1 $156 -30.152617659231929 $157 30.152617659231929 $94 $158 forward 7 unknown #
face $-1 $159 $160 $22 $-1 $161 reversed single #
loop $-1 $-1 $162 $60 #
plane-surface $-1 46.107916409336617 64.950099007782171 138.59808359472908 -1 0 0 0 0.6560590369687036 0.75470957328743171 forward_v I I I I #
coedge $-1 $163 $164 $165 $166 reversed $61 $-1 #
coedge $-1 $101 $63 $167 $168 reversed $39 $-1 #
coedge $-1 $63 $100 $163 $169 reversed $39 $-1 #
coedge $-1 $165 $170 $63 $103 forward $171 $-1 #
edge $-1 $172 2.3224318446591568 $173 5.8568191214417453 $102 $174 forward 7 unknown #
loop $-1 $-1 $109 $64 #
plane-surface $-1 35.170209485643902 -15.360320754964079 46.211515901480297 0 0.6560590369687036 0.75470957328743171 1 0 0 forward_v I I I I #
loop $-1 $-1 $175 $41 #
coedge $-1 $107 $107 $108 $176 reversed $65 $-1 #
coedge $-1 $108 $108 $107 $176 forward $67 $-1 #
coedge $-1 $109 $109 $68 $110 forward $104 $-1 #
edge $-1 $177 1.4019084392022037e-015 $177 6.2831853071796022 $109 $178 forward 7 unknown #
loop $-1 $-1 $116 $69 #
plane-surface $-1 35.170209485643902 -15.360320754964079 46.211515901480297 0 0.6560590369687036 0.75470957328743171 1 0 0 forward_v I I I I #
loop $-1 $-1 $179 $44 #
coedge $-1 $114 $114 $115 $180 reversed $70 $-1 #
coedge $-1 $115 $115 $114 $180 forward $72 $-1 #
coedge $-1 $116 $116 $73 $117 forward $111 $-1 #
edge $-1 $181 1.4019084392022037e-015 $181 6.2831853071796022 $116 $182 forward 7 unknown #
loop $-1 $-1 $123 $74 #
plane-surface $-1 35.170209485643902 -15.360320754964079 46.211515901480297 0 0.6560590369687036 0.75470957328743171 1 0 0 forward_v I I I I #
loop $-1 $-1 $183 $47 #
coedge $-1 $121 $121 $122 $184 reversed $75 $-1 #
coedge $-1 $122 $122 $121 $184 forward $77 $-1 #
coedge $-1 $123 $123 $78 $124 forward $118 $-1 #
edge $-1 $185 1.4019084392022037e-015 $185 6.2831853071796022 $123 $186 forward 7 unknown #
face $-1 $187 $188 $26 $-1 $189 reversed single #
loop $-1 $-1 $190 $79 #
plane-surface $-1 -58.983090264196662 -108.83843780314967 95.282118684552728 1 0 0 0 0.64278761758704617 -0.76604443648966558 forward_v I I I I #
coedge $-1 $191 $192 $193 $194 reversed $80 $-1 #
coedge $-1 $130 $82 $195 $196 reversed $51 $-1 #
coedge $-1 $82 $129 $191 $197 reversed $51 $-1 #
coedge $-1 $193 $198 $82 $132 forward $199 $-1 #
edge $-1 $200 24.266601242342908 $201 34.053407317387681 $131 $202 forward 7 unknown #
loop $-1 $-1 $138 $83 #
plane-surface $-1 -44.453713479198107 -30.152617659231936 1.5080118059118064 0 -0.64278761758704617 0.76604443648966558 1 0 0 forward_v I I I I #
loop $-1 $-1 $203 $53 #
coedge $-1 $136 $136 $137 $204 reversed $84 $-1 #
coedge $-1 $137 $137 $136 $204 forward $86 $-1 #
coedge $-1 $138 $138 $87 $139 forward $133 $-1 #
edge $-1 $205 5.8386158202769635e-016 $205 6.2831853071796013 $138 $206 forward 7 unknown #
face $-1 $207 $208 $21 $-1 $209 reversed single #
loop $-1 $-1 $210 $88 #
plane-surface $-1 -61.20670186468093 0 0 1 0 0 0 0 -1 forward_v I I I I #
coedge $-1 $211 $151 $212 $213 forward $89 $-1 #
coedge $-1 $214 $91 $211 $215 forward $57 $-1 #
coedge $-1 $91 $214 $216 $217 forward $57 $-1 #
coedge $-1 $154 $153 $91 $147 reversed $155 $-1 #
edge $-1 $218 -30.152617659231929 $219 30.152617659231929 $146 $220 forward 7 unknown #
coedge $-1 $93 $92 $221 $222 forward $36 $-1 #
coedge $-1 $223 $224 $92 $150 reversed $208 $-1 #
edge $-1 $157 -61.20670186468093 $225 61.20670186468093 $149 $226 forward 7 unknown #
coedge $-1 $143 $227 $93 $152 reversed $89 $-1 #
edge $-1 $228 -61.20670186468093 $156 61.20670186468093 $151 $229 forward 7 unknown #
coedge $-1 $146 $94 $227 $230 forward $155 $-1 #
coedge $-1 $94 $146 $223 $231 reversed $155 $-1 #
loop $-1 $-1 $153 $207 #
vertex $-1 $95 $232 #
vertex $-1 $95 $233 #
straight-curve $-1 61.20670186468093 0 9.72011734588766 0 1 0 I I #
face $-1 $-1 $171 $22 $-1 $234 forward single #
loop $-1 $-1 $235 $96 #
plane-surface $-1 0 30.152617659231929 0 0 -1 0 0 0 -1 forward_v I I I I #
coedge $-1 $236 $237 $238 $239 reversed $97 $-1 #
coedge $-1 $240 $99 $101 $169 forward $61 $-1 #
coedge $-1 $99 $240 $236 $241 forward $61 $-1 #
coedge $-1 $238 $102 $99 $166 forward $171 $-1 #
edge $-1 $173 6.6473978191292353 $242 28.522811666514666 $165 $243 forward 7 unknown #
coedge $-1 $244 $245 $100 $168 forward $160 $-1 #
edge $-1 $246 -62.651320503086687 $172 -59.57892445147688 $167 $247 forward 7 unknown #
edge $-1 $173 55.622126210165163 $246 60.305235318463858 $101 $248 forward 7 unknown #
coedge $-1 $102 $238 $244 $249 forward $171 $-1 #
loop $-1 $-1 $238 $159 #
vertex $-1 $168 $250 #
vertex $-1 $103 $251 #
straight-curve $-1 24.232502561951186 32.475049503891086 9.7201173458876582 0 -1 0 I I #
coedge $-1 $175 $175 $-1 $252 reversed $106 $-1 #
edge $-1 $253 0 $253 6.2831853071796004 $107 $254 forward 7 unknown #
vertex $-1 $110 $255 #
ellipse-curve $-1 28.607585331428275 28.385424020840635 8.1839193200827527 0 0.6560590369687036 0.75470957328743171 0.5 0 0 1 I I #
coedge $-1 $179 $179 $-1 $256 reversed $113 $-1 #
edge $-1 $257 0 $257 6.2831853071796004 $114 $258 forward 7 unknown #
vertex $-1 $117 $259 #
ellipse-curve $-1 35.170209485643902 28.385424020840635 8.1839193200827527 0 0.6560590369687036 0.75470957328743171 0.5 0 0 1 I I #
coedge $-1 $183 $183 $-1 $260 reversed $120 $-1 #
edge $-1 $261 0 $261 6.2831853071796004 $121 $262 forward 7 unknown #
vertex $-1 $124 $263 #
ellipse-curve $-1 41.732833639859528 28.385424020840635 8.1839193200827527 0 0.6560590369687036 0.75470957328743171 0.5 0 0 1 I I #
face $-1 $-1 $199 $26 $-1 $264 forward single #
loop $-1 $-1 $265 $125 #
plane-surface $-1 0 -30.152617659231929 0 0 1 0 0 0 1 forward_v I I I I #
coedge $-1 $266 $267 $268 $269 reversed $126 $-1 #
coedge $-1 $270 $128 $130 $197 forward $80 $-1 #
coedge $-1 $128 $270 $266 $271 forward $80 $-1 #
coedge $-1 $268 $131 $128 $194 forward $199 $-1 #
edge $-1 $201 7.6974799546004995 $272 36.756233524597604 $193 $273 forward 7 unknown #
coedge $-1 $274 $275 $129 $196 forward $188 $-1 #
edge $-1 $276 -46.13304753636455 $200 -37.920941996388706 $195 $277 forward 7 unknown #
edge $-1 $201 -12.775768100205777 $276 -9.2967162063127932e-015 $130 $278 forward 7 unknown #
coedge $-1 $131 $268 $274 $279 forward $199 $-1 #
loop $-1 $-1 $268 $187 #
vertex $-1 $196 $280 #
vertex $-1 $132 $281 #
straight-curve $-1 -29.924336694199553 -54.419218901574837 9.7201173458876582 0 1 0 I I #
coedge $-1 $203 $203 $-1 $282 reversed $135 $-1 #
edge $-1 $283 0 $283 6.2831853071796004 $136 $284 forward 7 unknown #
vertex $-1 $139 $285 #
ellipse-curve $-1 -44.453713479198107 -25.259214621709543 5.6140645758997376 0 -0.64278761758704617 0.76604443648966558 1.5 0 0 1 I I #
face $-1 $-1 $155 $21 $-1 $286 reversed single #
loop $-1 $-1 $223 $140 #
plane-surface $-1 0 30.152617659231929 0 0 -1 0 0 0 -1 forward_v I I I I #
coedge $-1 $287 $221 $224 $288 forward $141 $-1 #
coedge $-1 $227 $143 $144 $215 reversed $89 $-1 #
coedge $-1 $221 $287 $143 $213 reversed $141 $-1 #
edge $-1 $228 -9.72011734588766 $289 9.72011734588766 $212 $290 forward 7 unknown #
coedge $-1 $145 $144 $287 $291 forward $57 $-1 #
edge $-1 $219 -61.20670186468093 $289 61.20670186468093 $211 $292 forward 7 unknown #
coedge $-1 $224 $223 $145 $217 reversed $208 $-1 #
edge $-1 $293 -61.20670186468093 $218 61.20670186468093 $216 $294 forward 7 unknown #
vertex $-1 $147 $295 #
vertex $-1 $230 $296 #
straight-curve $-1 61.20670186468093 0 -9.72011734588766 0 -1 0 I I #
coedge $-1 $210 $212 $148 $222 reversed $141 $-1 #
edge $-1 $225 -30.152617659231929 $228 30.152617659231929 $221 $297 forward 7 unknown #
coedge $-1 $216 $149 $154 $231 forward $208 $-1 #
coedge $-1 $149 $216 $210 $288 reversed $208 $-1 #
vertex $-1 $150 $298 #
straight-curve $-1 0 30.152617659231929 9.72011734588766 -1 0 0 I I #
coedge $-1 $151 $211 $153 $230 reversed $89 $-1 #
vertex $-1 $222 $299 #
straight-curve $-1 0 -30.152617659231929 9.72011734588766 1 0 0 I I #
edge $-1 $156 -9.72011734588766 $219 9.72011734588766 $153 $300 forward 7 unknown #
edge $-1 $157 -9.72011734588766 $218 9.72011734588766 $154 $301 forward 7 unknown #
point $-1 61.20670186468093 -30.152617659231929 9.72011734588766 #
point $-1 61.20670186468093 30.152617659231929 9.72011734588766 #
plane-surface $-1 0 0 9.72011734588766 0 0 1 1 0 0 forward_v I I I I #
coedge $-1 $245 $244 $237 $302 forward $160 $-1 #
coedge $-1 $237 $162 $164 $241 reversed $97 $-1 #
coedge $-1 $162 $236 $235 $302 reversed $97 $-1 #
coedge $-1 $170 $165 $162 $239 forward $171 $-1 #
edge $-1 $242 -5.8568191214417453 $303 -2.3224318446591568 $238 $304 forward 7 unknown #
coedge $-1 $164 $163 $245 $305 reversed $61 $-1 #
edge $-1 $306 -60.305235318463858 $242 -55.622126210165163 $236 $307 forward 7 unknown #
vertex $-1 $166 $308 #
straight-curve $-1 17.585104742821951 26.618230382449333 9.7201173458876617 1 0 0 I I #
coedge $-1 $235 $167 $170 $249 reversed $160 $-1 #
coedge $-1 $167 $235 $240 $305 forward $160 $-1 #
vertex $-1 $168 $309 #
straight-curve $-1 24.232502561951186 30.152617659231929 69.299041797364538 0 0 1 I I #
straight-curve $-1 24.232502561951186 -15.360320754964079 46.211515901480297 0 0.75470957328743171 -0.6560590369687036 I I #
edge $-1 $303 -46.107916409336617 $172 -24.232502561951186 $244 $310 forward 7 unknown #
point $-1 24.232502561951186 30.152617659231929 9.72011734588766 #
point $-1 24.232502561951186 26.61823038244934 9.7201173458876582 #
edge $-1 $311 1 $311 0 $175 $-1 forward 7 unknown #
vertex $-1 $176 $312 #
ellipse-curve $-1 28.607585331428275 27.729364983871935 7.4292097467953289 0 0.6560590369687036 0.75470957328743171 0.5 0 0 1 I I #
point $-1 29.107585331428275 28.385424020840642 8.1839193200827598 #
edge $-1 $313 1 $313 0 $179 $-1 forward 7 unknown #
vertex $-1 $180 $314 #
ellipse-curve $-1 35.170209485643902 27.729364983871935 7.4292097467953289 0 0.6560590369687036 0.75470957328743171 0.5 0 0 1 I I #
point $-1 35.670209485643902 28.385424020840642 8.1839193200827598 #
edge $-1 $315 1 $315 0 $183 $-1 forward 7 unknown #
vertex $-1 $184 $316 #
ellipse-curve $-1 41.732833639859528 27.729364983871935 7.4292097467953289 0 0.6560590369687036 0.75470957328743171 0.5 0 0 1 I I #
point $-1 42.232833639859528 28.385424020840642 8.1839193200827598 #
plane-surface $-1 0 0 9.72011734588766 0 0 1 1 0 0 forward_v I I I I #
coedge $-1 $275 $274 $267 $317 forward $188 $-1 #
coedge $-1 $267 $190 $192 $271 reversed $126 $-1 #
coedge $-1 $190 $266 $265 $317 reversed $126 $-1 #
coedge $-1 $198 $193 $190 $269 forward $199 $-1 #
edge $-1 $272 -34.053407317387681 $318 -24.266601242342908 $268 $319 forward 7 unknown #
coedge $-1 $192 $191 $275 $320 reversed $80 $-1 #
edge $-1 $321 9.2967162063127932e-015 $272 12.775768100205777 $266 $322 forward 7 unknown #
vertex $-1 $194 $323 #
straight-curve $-1 -22.226856739599054 -20.365811584187156 9.72011734588766 -1 0 0 I I #
coedge $-1 $265 $195 $198 $279 reversed $188 $-1 #
coedge $-1 $195 $265 $270 $320 forward $188 $-1 #
vertex $-1 $196 $324 #
straight-curve $-1 -29.924336694199553 -30.152617659231929 47.641059342276364 0 0 1 I I #
straight-curve $-1 -29.924336694199553 -30.152617659231936 1.5080118059118064 0 -0.76604443648966558 -0.64278761758704617 I I #
edge $-1 $318 -58.983090264196662 $200 -29.924336694199553 $274 $325 forward 7 unknown #
point $-1 -29.924336694199553 -30.152617659231929 9.72011734588766 #
point $-1 -29.924336694199553 -20.365811584187156 9.72011734588766 #
edge $-1 $326 1 $326 0 $203 $-1 forward 7 unknown #
vertex $-1 $204 $327 #
ellipse-curve $-1 -44.453713479198107 -22.507176532056253 2.3343133642935823 0 -0.64278761758704617 0.76604443648966558 1.5 0 0 1 I I #
point $-1 -42.953713479198107 -25.259214621709535 5.6140645758997305 #
plane-surface $-1 61.20670186468093 0 0 -1 0 0 0 0 1 forward_v I I I I #
coedge $-1 $212 $210 $214 $291 reversed $141 $-1 #
edge $-1 $225 -9.72011734588766 $293 9.72011734588766 $224 $328 forward 7 unknown #
vertex $-1 $291 $329 #
straight-curve $-1 -61.20670186468093 -30.152617659231929 0 0 0 -1 I I #
edge $-1 $289 -30.152617659231929 $293 30.152617659231929 $287 $330 forward 7 unknown #
straight-curve $-1 0 -30.152617659231929 -9.72011734588766 -1 0 0 I I #
vertex $-1 $217 $331 #
straight-curve $-1 0 30.152617659231929 -9.72011734588766 1 0 0 I I #
point $-1 61.20670186468093 30.152617659231929 -9.72011734588766 #
point $-1 61.20670186468093 -30.152617659231929 -9.72011734588766 #
straight-curve $-1 -61.20670186468093 0 9.72011734588766 0 -1 0 I I #
point $-1 -61.20670186468093 30.152617659231929 9.72011734588766 #
point $-1 -61.20670186468093 -30.152617659231929 9.72011734588766 #
straight-curve $-1 61.20670186468093 -30.152617659231929 0 0 0 -1 I I #
straight-curve $-1 61.20670186468093 30.152617659231929 0 0 0 -1 I I #
edge $-1 $303 59.57892445147688 $306 62.651320503086687 $235 $332 forward 7 unknown #
vertex $-1 $249 $333 #
straight-curve $-1 46.107916409336617 32.475049503891086 9.7201173458876582 0 1 0 I I #
edge $-1 $306 -28.522811666514666 $246 -6.6473978191292353 $245 $334 forward 7 unknown #
vertex $-1 $305 $335 #
straight-curve $-1 46.107916409336617 -15.360320754964079 46.211515901480297 0 -0.75470957328743171 0.6560590369687036 I I #
point $-1 46.107916409336617 26.61823038244934 9.7201173458876582 #
point $-1 24.232502561951186 30.152617659231929 6.6477212942778507 #
straight-curve $-1 0 30.152617659231929 9.72011734588766 -1 0 0 I I #
vertex $-1 $252 $336 #
point $-1 29.107585331428275 27.729364983871935 7.4292097467953289 #
vertex $-1 $256 $337 #
point $-1 35.670209485643902 27.729364983871935 7.4292097467953289 #
vertex $-1 $260 $338 #
point $-1 42.232833639859528 27.729364983871935 7.4292097467953289 #
edge $-1 $318 37.920941996388706 $321 46.13304753636455 $265 $339 forward 7 unknown #
vertex $-1 $279 $340 #
straight-curve $-1 -58.983090264196662 -54.419218901574837 9.7201173458876582 0 -1 0 I I #
edge $-1 $321 -36.756233524597604 $276 -7.6974799546004995 $275 $341 forward 7 unknown #
vertex $-1 $320 $342 #
straight-curve $-1 -58.983090264196662 -30.152617659231936 1.5080118059118064 0 0.76604443648966558 0.64278761758704617 I I #
point $-1 -58.983090264196662 -20.365811584187156 9.72011734588766 #
point $-1 -29.924336694199553 -30.152617659231929 1.5080118059118124 #
straight-curve $-1 0 -30.152617659231929 9.72011734588766 1 0 0 I I #
vertex $-1 $282 $343 #
point $-1 -42.953713479198107 -22.507176532056253 2.3343133642935823 #
straight-curve $-1 -61.20670186468093 30.152617659231929 0 0 0 -1 I I #
point $-1 -61.20670186468093 -30.152617659231929 -9.72011734588766 #
straight-curve $-1 -61.20670186468093 0 -9.72011734588766 0 1 0 I I #
point $-1 -61.20670186468093 30.152617659231929 -9.72011734588766 #
straight-curve $-1 46.107916409336617 30.152617659231929 69.299041797364538 0 0 -1 I I #
point $-1 46.107916409336617 30.152617659231929 9.72011734588766 #
straight-curve $-1 17.585104742821951 30.152617659231929 6.6477212942778543 -1 0 0 I I #
point $-1 46.107916409336617 30.152617659231929 6.6477212942778507 #
point $-1 28.607585331428275 27.401335465387586 7.0518549601516129 #
point $-1 35.170209485643902 27.401335465387586 7.0518549601516129 #
point $-1 41.732833639859528 27.401335465387586 7.0518549601516129 #
straight-curve $-1 -58.983090264196662 -30.152617659231929 47.641059342276364 0 0 -1 I I #
point $-1 -58.983090264196662 -30.152617659231929 9.72011734588766 #
straight-curve $-1 -22.226856739599054 -30.152617659231929 1.5080118059118135 1 0 0 I I #
point $-1 -58.983090264196662 -30.152617659231929 1.5080118059118124 #
point $-1 -44.453713479198107 -21.542995105675683 1.1852467095590842 #
End-of-ACIS-data 