500 0 12 0           
7 Unknown 11 ACIS 5.0 NT 24 Fri Mar 26 14:54:00 1999 
-1 9.9999999999999995e-007 1e-010 
body $-1 $12 $-1 $13 #
body $-1 $14 $-1 $15 #
body $-1 $16 $-1 $17 #
body $-1 $18 $-1 $19 #
body $-1 $20 $-1 $21 #
body $-1 $22 $-1 $23 #
body $-1 $24 $-1 $25 #
body $-1 $26 $-1 $27 #
body $-1 $28 $-1 $29 #
body $-1 $30 $-1 $31 #
body $-1 $32 $-1 $33 #
body $-1 $34 $-1 $35 #
lump $-1 $-1 $36 $0 #
transform $-1 1 0 0 0 1 0 0 0 1 53.514816736350596 33.217337751974888 7.4007340471974086 1 rotate no_reflect no_shear #
lump $-1 $-1 $37 $1 #
transform $-1 1 0 0 0 1 0 0 0 1 53.514816736350596 33.217337751974888 7.4007340471974086 1 rotate no_reflect no_shear #
lump $-1 $-1 $38 $2 #
transform $-1 1 0 0 0 1 0 0 0 1 53.514816736350596 33.217337751974888 7.4007340471974086 1 rotate no_reflect no_shear #
lump $-1 $-1 $39 $3 #
transform $-1 1 0 0 0 1 0 0 0 1 53.514816736350596 33.217337751974888 7.4007340471974086 1 rotate no_reflect no_shear #
lump $-1 $-1 $40 $4 #
transform $-1 1 0 0 0 1 0 0 0 1 53.514816736350596 33.217337751974888 7.4007340471974086 1 rotate no_reflect no_shear #
lump $-1 $-1 $41 $5 #
transform $-1 1 0 0 0 1 0 0 0 1 53.514816736350596 33.217337751974888 7.4007340471974086 1 rotate no_reflect no_shear #
lump $-1 $-1 $42 $6 #
transform $-1 1 0 0 0 1 0 0 0 1 53.514816736350596 33.217337751974888 7.4007340471974086 1 rotate no_reflect no_shear #
lump $-1 $-1 $43 $7 #
transform $-1 1 0 0 0 1 0 0 0 1 53.514816736350596 33.217337751974888 7.4007340471974086 1 rotate no_reflect no_shear #
lump $-1 $-1 $44 $8 #
transform $-1 1 0 0 0 1 0 0 0 1 53.514816736350596 33.217337751974888 7.4007340471974086 1 rotate no_reflect no_shear #
lump $-1 $-1 $45 $9 #
transform $-1 1 0 0 0 1 0 0 0 1 53.514816736350596 33.217337751974888 7.4007340471974086 1 rotate no_reflect no_shear #
lump $-1 $-1 $46 $10 #
transform $-1 1 0 0 0 1 0 0 0 1 53.514816736350596 33.217337751974888 7.4007340471974086 1 rotate no_reflect no_shear #
lump $-1 $-1 $47 $11 #
transform $-1 1 0 0 0 1 0 0 0 1 53.514816736350596 33.217337751974888 7.4007340471974086 1 rotate no_reflect no_shear #
shell $-1 $-1 $-1 $48 $-1 $12 #
shell $-1 $-1 $-1 $49 $-1 $14 #
shell $-1 $-1 $-1 $50 $-1 $16 #
shell $-1 $-1 $-1 $51 $-1 $18 #
shell $-1 $-1 $-1 $52 $-1 $20 #
shell $-1 $-1 $-1 $53 $-1 $22 #
shell $-1 $-1 $-1 $54 $-1 $24 #
shell $-1 $-1 $-1 $55 $-1 $26 #
shell $-1 $-1 $-1 $56 $-1 $28 #
shell $-1 $-1 $-1 $57 $-1 $30 #
shell $-1 $-1 $-1 $58 $-1 $32 #
shell $-1 $-1 $-1 $59 $-1 $34 #
face $-1 $60 $61 $36 $-1 $62 forward single #
face $-1 $63 $64 $37 $-1 $65 forward single #
face $-1 $66 $67 $38 $-1 $68 reversed single #
face $-1 $69 $70 $39 $-1 $71 forward single #
face $-1 $72 $73 $40 $-1 $74 reversed single #
face $-1 $75 $76 $41 $-1 $77 forward single #
face $-1 $78 $79 $42 $-1 $80 reversed single #
face $-1 $81 $82 $43 $-1 $83 forward single #
face $-1 $84 $85 $44 $-1 $86 reversed single #
face $-1 $87 $88 $45 $-1 $89 forward single #
face $-1 $90 $91 $46 $-1 $92 reversed single #
face $-1 $93 $94 $47 $-1 $95 forward single #
face $-1 $96 $97 $36 $-1 $98 reversed single #
loop $-1 $-1 $99 $48 #
plane-surface $-1 0 0 7.4007340471974086 0 0 1 1 0 0 forward_v I I I I #
face $-1 $100 $101 $37 $-1 $102 reversed single #
loop $-1 $-1 $103 $49 #
plane-surface $-1 0 -33.217337751974888 0 0 1 0 0 0 1 forward_v I I I I #
face $-1 $104 $105 $38 $-1 $106 reversed single #
loop $-1 $-1 $107 $50 #
plane-surface $-1 -136.69246503158092 -25.405612567900306 69.459396497565933 0 1 0 -0.77714596973225614 0 0.62932038083071107 forward_v I I I I #
face $-1 $108 $109 $39 $-1 $110 forward single #
loop $-1 $111 $112 $51 #
cone-surface $-1 -50.87362729608563 -20.76405217865015 4.3501493269339928 0.77714596973225614 0 -0.62932038083071107 0.62932038083071107 0 0.77714596973225614 1 I I 0 1 1 forward I I I I #
face $-1 $113 $114 $40 $-1 $115 reversed single #
loop $-1 $-1 $116 $52 #
plane-surface $-1 -136.69246503158092 -10.248373611480492 69.459396497565933 0 1 0 -0.77714596973225614 0 0.62932038083071107 forward_v I I I I #
face $-1 $117 $118 $41 $-1 $119 forward single #
loop $-1 $120 $121 $53 #
cone-surface $-1 -50.87362729608563 -5.6068132222303362 4.3501493269339928 0.77714596973225614 0 -0.62932038083071107 0.62932038083071107 0 0.77714596973225614 1 I I 0 1 1 forward I I I I #
face $-1 $122 $123 $42 $-1 $124 reversed single #
loop $-1 $-1 $125 $54 #
plane-surface $-1 -136.69246503158092 4.9088653449393185 69.459396497565933 0 1 0 -0.77714596973225614 0 0.62932038083071107 forward_v I I I I #
face $-1 $126 $127 $43 $-1 $128 forward single #
loop $-1 $129 $130 $55 #
cone-surface $-1 -50.87362729608563 9.5504257341894743 4.3501493269339928 0.77714596973225614 0 -0.62932038083071107 0.62932038083071107 0 0.77714596973225614 1 I I 0 1 1 forward I I I I #
face $-1 $131 $132 $44 $-1 $133 reversed single #
loop $-1 $-1 $134 $56 #
plane-surface $-1 -136.69246503158092 20.066104301359129 69.459396497565933 0 1 0 -0.77714596973225614 0 0.62932038083071107 forward_v I I I I #
face $-1 $135 $136 $45 $-1 $137 forward single #
loop $-1 $138 $139 $57 #
cone-surface $-1 -50.87362729608563 24.707664690609285 4.3501493269339928 0.77714596973225614 0 -0.62932038083071107 0.62932038083071107 0 0.77714596973225614 1 I I 0 1 1 forward I I I I #
face $-1 $140 $141 $46 $-1 $142 reversed single #
loop $-1 $-1 $143 $58 #
plane-surface $-1 92.690383806901039 -7.2067486153807891 148.49561542621188 0 -1 0 -0.86602541151947299 0 -0.49999998660252726 forward_v I I I I #
face $-1 $144 $145 $47 $-1 $146 forward single #
loop $-1 $147 $148 $59 #
cone-surface $-1 51.224969495599659 -11.822057797295003 4.3752513472594856 -0.86602541151947299 0 -0.49999998660252726 0.24999999330126363 0 -0.43301270575973649 1 I I 0 1 0.5 forward I I I I #
face $-1 $149 $150 $36 $-1 $151 reversed single #
loop $-1 $-1 $152 $60 #
plane-surface $-1 0 0 -7.4007340471974086 0 0 1 1 0 0 forward_v I I I I #
coedge $-1 $153 $154 $155 $156 forward $61 $-1 #
face $-1 $157 $158 $37 $-1 $159 reversed single #
loop $-1 $-1 $160 $63 #
plane-surface $-1 0 0 -7.4007340471974086 0 0 1 1 0 0 forward_v I I I I #
coedge $-1 $161 $162 $163 $164 forward $64 $-1 #
face $-1 $165 $166 $38 $-1 $167 reversed single #
loop $-1 $-1 $168 $66 #
plane-surface $-1 -53.51481673635061 -20.76405217865015 2.1034668003541981 -0.77714596973225614 0 0.62932038083071107 0.62932038083071107 0 0.77714596973225614 forward_v I I I I #
coedge $-1 $169 $170 $171 $172 reversed $67 $-1 #
face $-1 $-1 $173 $39 $-1 $174 forward single #
loop $-1 $175 $176 $69 #
cone-surface $-1 -49.988686031317727 -20.76405217865015 3.6335380396768286 0.77714596973225614 0 -0.62932038083071107 0.31466019041535553 0 0.38857298486612807 1 I I -0.70710678118654724 0.70710678118654791 0.5 forward I I I I #
loop $-1 $-1 $177 $51 #
coedge $-1 $112 $112 $178 $179 reversed $70 $-1 #
face $-1 $180 $181 $40 $-1 $182 reversed single #
loop $-1 $-1 $183 $72 #
plane-surface $-1 -53.51481673635061 -5.6068132222303362 2.1034668003541981 -0.77714596973225614 0 0.62932038083071107 0.62932038083071107 0 0.77714596973225614 forward_v I I I I #
coedge $-1 $184 $185 $186 $187 reversed $73 $-1 #
face $-1 $-1 $188 $41 $-1 $189 forward single #
loop $-1 $190 $191 $75 #
cone-surface $-1 -49.988686031317727 -5.6068132222303362 3.6335380396768286 0.77714596973225614 0 -0.62932038083071107 0.31466019041535553 0 0.38857298486612807 1 I I -0.70710678118654724 0.70710678118654791 0.5 forward I I I I #
loop $-1 $-1 $192 $53 #
coedge $-1 $121 $121 $193 $194 reversed $76 $-1 #
face $-1 $195 $196 $42 $-1 $197 reversed single #
loop $-1 $-1 $198 $78 #
plane-surface $-1 -53.51481673635061 9.5504257341894743 2.1034668003541981 -0.77714596973225614 0 0.62932038083071107 0.62932038083071107 0 0.77714596973225614 forward_v I I I I #
coedge $-1 $199 $200 $201 $202 reversed $79 $-1 #
face $-1 $-1 $203 $43 $-1 $204 forward single #
loop $-1 $205 $206 $81 #
cone-surface $-1 -49.988686031317727 9.5504257341894743 3.6335380396768286 0.77714596973225614 0 -0.62932038083071107 0.31466019041535553 0 0.38857298486612807 1 I I -0.70710678118654724 0.70710678118654791 0.5 forward I I I I #
loop $-1 $-1 $207 $55 #
coedge $-1 $130 $130 $208 $209 reversed $82 $-1 #
face $-1 $210 $211 $44 $-1 $212 reversed single #
loop $-1 $-1 $213 $84 #
plane-surface $-1 -53.51481673635061 24.707664690609285 2.1034668003541981 -0.77714596973225614 0 0.62932038083071107 0.62932038083071107 0 0.77714596973225614 forward_v I I I I #
coedge $-1 $214 $215 $216 $217 reversed $85 $-1 #
face $-1 $-1 $218 $45 $-1 $219 forward single #
loop $-1 $220 $221 $87 #
cone-surface $-1 -49.988686031317727 24.707664690609285 3.6335380396768286 0.77714596973225614 0 -0.62932038083071107 0.31466019041535553 0 0.38857298486612807 1 I I -0.70710678118654724 0.70710678118654791 0.5 forward I I I I #
loop $-1 $-1 $222 $57 #
coedge $-1 $139 $139 $223 $224 reversed $88 $-1 #
face $-1 $225 $226 $46 $-1 $227 reversed single #
loop $-1 $-1 $228 $90 #
plane-surface $-1 1.4339266272145323e-006 -11.822057797295003 94.980800123787887 0.86602541151947299 0 0.49999998660252726 0.49999998660252726 0 -0.86602541151947299 forward_v I I I I #
coedge $-1 $229 $230 $231 $232 reversed $91 $-1 #
face $-1 $-1 $233 $47 $-1 $234 forward single #
loop $-1 $235 $236 $93 #
cone-surface $-1 50.193837093944921 -11.822057797295003 3.7799267988628973 -0.86602541151947299 0 -0.49999998660252726 0.12499999665063181 0 -0.21650635287986825 1 I I -0.70710678118654746 0.70710678118654746 0.25 forward I I I I #
loop $-1 $-1 $237 $59 #
coedge $-1 $148 $148 $238 $239 reversed $94 $-1 #
face $-1 $240 $241 $36 $-1 $242 reversed single #
loop $-1 $-1 $243 $96 #
plane-surface $-1 0 -33.217337751974888 0 0 1 0 0 0 1 forward_v I I I I #
coedge $-1 $244 $245 $246 $247 forward $97 $-1 #
coedge $-1 $248 $99 $249 $250 forward $61 $-1 #
coedge $-1 $99 $248 $251 $252 forward $61 $-1 #
coedge $-1 $253 $254 $99 $156 reversed $255 $-1 #
edge $-1 $256 -33.217337751974888 $257 33.217337751974888 $155 $258 forward 7 unknown #
face $-1 $259 $260 $37 $-1 $261 forward single #
loop $-1 $-1 $262 $100 #
plane-surface $-1 53.514816736350596 0 0 -1 0 0 0 0 1 forward_v I I I I #
coedge $-1 $263 $264 $265 $266 forward $101 $-1 #
coedge $-1 $265 $103 $262 $267 reversed $64 $-1 #
coedge $-1 $103 $265 $268 $269 reversed $64 $-1 #
coedge $-1 $270 $271 $103 $164 reversed $260 $-1 #
edge $-1 $272 -53.514816736350596 $273 53.514816736350596 $163 $274 forward 7 unknown #
face $-1 $275 $276 $38 $-1 $277 forward single #
loop $-1 $-1 $278 $104 #
plane-surface $-1 -136.69246503158092 -16.122491789399994 69.459396497565933 0 -1 0 0.77714596973225614 0 -0.62932038083071107 forward_v I I I I #
coedge $-1 $279 $280 $281 $282 reversed $105 $-1 #
coedge $-1 $170 $107 $283 $284 reversed $67 $-1 #
coedge $-1 $107 $169 $279 $285 reversed $67 $-1 #
coedge $-1 $281 $286 $107 $172 forward $276 $-1 #
edge $-1 $287 14.831415779439865 $288 19.121058100166223 $171 $289 forward 7 unknown #
loop $-1 $-1 $178 $108 #
plane-surface $-1 -53.51481673635061 -20.76405217865015 2.1034668003541981 -0.77714596973225614 0 0.62932038083071107 0.62932038083071107 0 0.77714596973225614 forward_v I I I I #
loop $-1 $-1 $290 $69 #
coedge $-1 $176 $176 $177 $291 reversed $109 $-1 #
coedge $-1 $177 $177 $176 $291 forward $111 $-1 #
coedge $-1 $178 $178 $112 $179 forward $173 $-1 #
edge $-1 $292 0 $292 6.2831853071796004 $178 $293 forward 7 unknown #
face $-1 $294 $295 $40 $-1 $296 forward single #
loop $-1 $-1 $297 $113 #
plane-surface $-1 -136.69246503158092 -0.96525283298018039 69.459396497565933 0 -1 0 0.77714596973225614 0 -0.62932038083071107 forward_v I I I I #
coedge $-1 $298 $299 $300 $301 reversed $114 $-1 #
coedge $-1 $185 $116 $302 $303 reversed $73 $-1 #
coedge $-1 $116 $184 $298 $304 reversed $73 $-1 #
coedge $-1 $300 $305 $116 $187 forward $295 $-1 #
edge $-1 $306 14.831415779439865 $307 19.121058100166223 $186 $308 forward 7 unknown #
loop $-1 $-1 $193 $117 #
plane-surface $-1 -53.51481673635061 -5.6068132222303362 2.1034668003541981 -0.77714596973225614 0 0.62932038083071107 0.62932038083071107 0 0.77714596973225614 forward_v I I I I #
loop $-1 $-1 $309 $75 #
coedge $-1 $191 $191 $192 $310 reversed $118 $-1 #
coedge $-1 $192 $192 $191 $310 forward $120 $-1 #
coedge $-1 $193 $193 $121 $194 forward $188 $-1 #
edge $-1 $311 0 $311 6.2831853071796004 $193 $312 forward 7 unknown #
face $-1 $313 $314 $42 $-1 $315 forward single #
loop $-1 $-1 $316 $122 #
plane-surface $-1 -136.69246503158092 14.19198612343963 69.459396497565933 0 -1 0 0.77714596973225614 0 -0.62932038083071107 forward_v I I I I #
coedge $-1 $317 $318 $319 $320 reversed $123 $-1 #
coedge $-1 $200 $125 $321 $322 reversed $79 $-1 #
coedge $-1 $125 $199 $317 $323 reversed $79 $-1 #
coedge $-1 $319 $324 $125 $202 forward $314 $-1 #
edge $-1 $325 14.831415779439865 $326 19.121058100166223 $201 $327 forward 7 unknown #
loop $-1 $-1 $208 $126 #
plane-surface $-1 -53.51481673635061 9.5504257341894743 2.1034668003541981 -0.77714596973225614 0 0.62932038083071107 0.62932038083071107 0 0.77714596973225614 forward_v I I I I #
loop $-1 $-1 $328 $81 #
coedge $-1 $206 $206 $207 $329 reversed $127 $-1 #
coedge $-1 $207 $207 $206 $329 forward $129 $-1 #
coedge $-1 $208 $208 $130 $209 forward $203 $-1 #
edge $-1 $330 0 $330 6.2831853071796004 $208 $331 forward 7 unknown #
face $-1 $332 $333 $44 $-1 $334 forward single #
loop $-1 $-1 $335 $131 #
plane-surface $-1 -136.69246503158092 29.349225079859441 69.459396497565933 0 -1 0 0.77714596973225614 0 -0.62932038083071107 forward_v I I I I #
coedge $-1 $336 $337 $338 $339 reversed $132 $-1 #
coedge $-1 $215 $134 $340 $341 reversed $85 $-1 #
coedge $-1 $134 $214 $336 $342 reversed $85 $-1 #
coedge $-1 $338 $343 $134 $217 forward $333 $-1 #
edge $-1 $344 14.831415779439865 $345 19.121058100166223 $216 $346 forward 7 unknown #
loop $-1 $-1 $223 $135 #
plane-surface $-1 -53.51481673635061 24.707664690609285 2.1034668003541981 -0.77714596973225614 0 0.62932038083071107 0.62932038083071107 0 0.77714596973225614 forward_v I I I I #
loop $-1 $-1 $347 $87 #
coedge $-1 $221 $221 $222 $348 reversed $136 $-1 #
coedge $-1 $222 $222 $221 $348 forward $138 $-1 #
coedge $-1 $223 $223 $139 $224 forward $218 $-1 #
edge $-1 $349 0 $349 6.2831853071796004 $223 $350 forward 7 unknown #
face $-1 $351 $352 $46 $-1 $353 reversed single #
loop $-1 $-1 $354 $140 #
plane-surface $-1 92.690383806901039 -16.437366979209216 148.49561542621188 0 1 0 0.86602541151947299 0 0.49999998660252726 forward_v I I I I #
coedge $-1 $355 $356 $357 $358 reversed $141 $-1 #
coedge $-1 $230 $143 $359 $360 reversed $91 $-1 #
coedge $-1 $143 $229 $355 $361 reversed $91 $-1 #
coedge $-1 $357 $362 $143 $232 forward $363 $-1 #
edge $-1 $364 -7.1696248329000767 $365 -4.2191824489479757 $231 $366 forward 7 unknown #
loop $-1 $-1 $238 $144 #
plane-surface $-1 1.4339266272145323e-006 -11.822057797295003 94.980800123787887 0.86602541151947299 0 0.49999998660252726 0.49999998660252726 0 -0.86602541151947299 forward_v I I I I #
loop $-1 $-1 $367 $93 #
coedge $-1 $236 $236 $237 $368 reversed $145 $-1 #
coedge $-1 $237 $237 $236 $368 forward $147 $-1 #
coedge $-1 $238 $238 $148 $239 forward $233 $-1 #
edge $-1 $369 0 $369 6.2831853071796004 $238 $370 forward 7 unknown #
face $-1 $371 $372 $36 $-1 $373 reversed single #
loop $-1 $-1 $374 $149 #
plane-surface $-1 -53.514816736350596 0 0 1 0 0 0 0 -1 forward_v I I I I #
coedge $-1 $375 $251 $376 $377 forward $150 $-1 #
coedge $-1 $378 $152 $375 $379 forward $97 $-1 #
coedge $-1 $152 $378 $380 $381 forward $97 $-1 #
coedge $-1 $254 $253 $152 $247 reversed $255 $-1 #
edge $-1 $382 -33.217337751974888 $383 33.217337751974888 $246 $384 forward 7 unknown #
coedge $-1 $154 $153 $385 $386 forward $61 $-1 #
coedge $-1 $387 $388 $153 $250 reversed $372 $-1 #
edge $-1 $257 -53.514816736350596 $389 53.514816736350596 $249 $390 forward 7 unknown #
coedge $-1 $243 $391 $154 $252 reversed $150 $-1 #
edge $-1 $392 -53.514816736350596 $256 53.514816736350596 $251 $393 forward 7 unknown #
coedge $-1 $246 $155 $391 $394 forward $255 $-1 #
coedge $-1 $155 $246 $387 $395 reversed $255 $-1 #
loop $-1 $-1 $253 $371 #
vertex $-1 $156 $396 #
vertex $-1 $156 $397 #
straight-curve $-1 53.514816736350596 0 7.4007340471974086 0 1 0 I I #
face $-1 $398 $399 $37 $-1 $400 reversed single #
loop $-1 $-1 $271 $157 #
plane-surface $-1 0 -36.120197591110148 -4.4007340471974086 0 0 1 1 0 0 forward_v I I I I #
coedge $-1 $401 $402 $161 $267 forward $158 $-1 #
coedge $-1 $403 $160 $402 $404 forward $101 $-1 #
coedge $-1 $160 $403 $405 $406 forward $101 $-1 #
coedge $-1 $162 $161 $160 $266 reversed $64 $-1 #
edge $-1 $407 -53.514816736350596 $408 53.514816736350596 $160 $409 forward 7 unknown #
edge $-1 $408 -7.4007340471974086 $273 -4.4007340471974086 $262 $410 forward 7 unknown #
coedge $-1 $405 $411 $162 $269 forward $412 $-1 #
edge $-1 $272 4.4007340471974086 $407 7.4007340471974086 $268 $413 forward 7 unknown #
coedge $-1 $414 $163 $411 $415 forward $260 $-1 #
coedge $-1 $163 $414 $401 $416 forward $260 $-1 #
vertex $-1 $269 $417 #
vertex $-1 $416 $418 #
straight-curve $-1 0 -33.217337751974888 -4.4007340471974086 1 0 0 I I #
face $-1 $-1 $419 $38 $-1 $420 reversed single #
loop $-1 $-1 $171 $165 #
plane-surface $-1 0 0 7.4007340471974086 0 0 1 1 0 0 forward_v I I I I #
coedge $-1 $421 $422 $423 $424 reversed $166 $-1 #
coedge $-1 $425 $168 $170 $285 forward $105 $-1 #
coedge $-1 $168 $425 $421 $426 forward $105 $-1 #
coedge $-1 $423 $171 $168 $282 forward $276 $-1 #
edge $-1 $288 -15.023586478575231 $427 -5.7404657000749193 $281 $428 forward 7 unknown #
coedge $-1 $429 $430 $169 $284 forward $419 $-1 #
edge $-1 $431 -32.626231448428754 $287 -27.328964201585556 $283 $432 forward 7 unknown #
edge $-1 $288 -6.8163092303859418 $431 -2.2748066086763162e-014 $170 $433 forward 7 unknown #
coedge $-1 $171 $423 $429 $434 forward $276 $-1 #
vertex $-1 $284 $435 #
vertex $-1 $172 $436 #
straight-curve $-1 -68.346232515790462 -25.405612567900306 7.4007340471974103 1 0 0 I I #
coedge $-1 $290 $290 $-1 $437 reversed $175 $-1 #
edge $-1 $438 0 $438 6.2831853071796004 $176 $439 forward 7 unknown #
vertex $-1 $179 $440 #
ellipse-curve $-1 -51.369995575987417 -20.76405217865015 4.7521004237758113 -0.77714596973225614 0 0.62932038083071107 0.62932038083071107 0 0.77714596973225614 1 I I #
face $-1 $-1 $441 $40 $-1 $442 reversed single #
loop $-1 $-1 $186 $180 #
plane-surface $-1 0 0 7.4007340471974086 0 0 1 1 0 0 forward_v I I I I #
coedge $-1 $443 $444 $445 $446 reversed $181 $-1 #
coedge $-1 $447 $183 $185 $304 forward $114 $-1 #
coedge $-1 $183 $447 $443 $448 forward $114 $-1 #
coedge $-1 $445 $186 $183 $301 forward $295 $-1 #
edge $-1 $307 -7.4449670003653239 $449 1.8381537781349877 $300 $450 forward 7 unknown #
coedge $-1 $451 $452 $184 $303 forward $441 $-1 #
edge $-1 $453 -32.626231448428754 $306 -27.328964201585556 $302 $454 forward 7 unknown #
edge $-1 $307 -6.8163092303859418 $453 -2.2748066086763162e-014 $185 $455 forward 7 unknown #
coedge $-1 $186 $445 $451 $456 forward $295 $-1 #
vertex $-1 $187 $457 #
vertex $-1 $187 $458 #
straight-curve $-1 -68.346232515790462 -10.248373611480492 7.4007340471974103 1 0 0 I I #
coedge $-1 $309 $309 $-1 $459 reversed $190 $-1 #
edge $-1 $460 0 $460 6.2831853071796004 $191 $461 forward 7 unknown #
vertex $-1 $194 $462 #
ellipse-curve $-1 -51.369995575987417 -5.6068132222303362 4.7521004237758113 -0.77714596973225614 0 0.62932038083071107 0.62932038083071107 0 0.77714596973225614 1 I I #
face $-1 $-1 $463 $42 $-1 $464 reversed single #
loop $-1 $-1 $201 $195 #
plane-surface $-1 0 0 7.4007340471974086 0 0 1 1 0 0 forward_v I I I I #
coedge $-1 $465 $466 $467 $468 reversed $196 $-1 #
coedge $-1 $469 $198 $200 $323 forward $123 $-1 #
coedge $-1 $198 $469 $465 $470 forward $123 $-1 #
coedge $-1 $467 $201 $198 $320 forward $314 $-1 #
edge $-1 $326 0.13365247784458134 $471 9.4167732563448929 $319 $472 forward 7 unknown #
coedge $-1 $473 $474 $199 $322 forward $463 $-1 #
edge $-1 $475 -32.626231448428754 $325 -27.328964201585556 $321 $476 forward 7 unknown #
edge $-1 $326 -6.8163092303859418 $475 -2.2748066086763162e-014 $200 $477 forward 7 unknown #
coedge $-1 $201 $467 $473 $478 forward $314 $-1 #
vertex $-1 $202 $479 #
vertex $-1 $202 $480 #
straight-curve $-1 -68.346232515790462 4.9088653449393185 7.4007340471974103 1 0 0 I I #
coedge $-1 $328 $328 $-1 $481 reversed $205 $-1 #
edge $-1 $482 0 $482 6.2831853071796004 $206 $483 forward 7 unknown #
vertex $-1 $209 $484 #
ellipse-curve $-1 -51.369995575987417 9.5504257341894743 4.7521004237758113 -0.77714596973225614 0 0.62932038083071107 0.62932038083071107 0 0.77714596973225614 1 I I #
face $-1 $-1 $485 $44 $-1 $486 reversed single #
loop $-1 $-1 $216 $210 #
plane-surface $-1 0 0 7.4007340471974086 0 0 1 1 0 0 forward_v I I I I #
coedge $-1 $487 $488 $489 $490 reversed $211 $-1 #
coedge $-1 $491 $213 $215 $342 forward $132 $-1 #
coedge $-1 $213 $491 $487 $492 forward $132 $-1 #
coedge $-1 $489 $216 $213 $339 forward $333 $-1 #
edge $-1 $345 7.7122719560544866 $493 16.995392734554798 $338 $494 forward 7 unknown #
coedge $-1 $495 $496 $214 $341 forward $485 $-1 #
edge $-1 $497 -32.626231448428754 $344 -27.328964201585556 $340 $498 forward 7 unknown #
edge $-1 $345 -6.8163092303859418 $497 -2.2748066086763162e-014 $215 $499 forward 7 unknown #
coedge $-1 $216 $489 $495 $500 forward $333 $-1 #
vertex $-1 $217 $501 #
vertex $-1 $217 $502 #
straight-curve $-1 -68.346232515790462 20.066104301359129 7.4007340471974103 1 0 0 I I #
coedge $-1 $347 $347 $-1 $503 reversed $220 $-1 #
edge $-1 $504 0 $504 6.2831853071796004 $221 $505 forward 7 unknown #
vertex $-1 $224 $506 #
ellipse-curve $-1 -51.369995575987417 24.707664690609285 4.7521004237758113 -0.77714596973225614 0 0.62932038083071107 0.62932038083071107 0 0.77714596973225614 1 I I #
face $-1 $-1 $363 $46 $-1 $507 forward single #
loop $-1 $-1 $508 $225 #
plane-surface $-1 53.514816736350596 0 0 -1 0 0 0 0 1 forward_v I I I I #
coedge $-1 $509 $510 $511 $512 reversed $226 $-1 #
coedge $-1 $513 $228 $230 $361 forward $141 $-1 #
coedge $-1 $228 $513 $509 $514 forward $141 $-1 #
coedge $-1 $511 $231 $228 $358 forward $363 $-1 #
edge $-1 $365 1.2957197167332879 $515 10.526338080561715 $357 $516 forward 7 unknown #
coedge $-1 $517 $518 $229 $360 forward $352 $-1 #
edge $-1 $519 -71.95738996229241 $364 -66.847073665908539 $359 $520 forward 7 unknown #
edge $-1 $365 101.12874854668303 $519 107.02963347270112 $230 $521 forward 7 unknown #
coedge $-1 $231 $511 $517 $522 forward $363 $-1 #
loop $-1 $-1 $511 $351 #
vertex $-1 $360 $523 #
vertex $-1 $232 $524 #
straight-curve $-1 46.34519190345052 -7.2067486153807891 7.4007340471974032 -1 0 0 I I #
coedge $-1 $367 $367 $-1 $525 reversed $235 $-1 #
edge $-1 $526 0 $526 6.2831853071796004 $236 $527 forward 7 unknown #
vertex $-1 $239 $528 #
ellipse-curve $-1 52.039595544374549 -11.822057797295003 4.8455758990054534 0.86602541151947299 0 0.49999998660252726 0.24999999330126363 0 -0.43301270575973649 1 I I #
face $-1 $-1 $255 $36 $-1 $529 reversed single #
loop $-1 $-1 $387 $240 #
plane-surface $-1 0 33.217337751974888 0 0 -1 0 0 0 -1 forward_v I I I I #
coedge $-1 $530 $385 $388 $531 forward $241 $-1 #
coedge $-1 $391 $243 $244 $379 reversed $150 $-1 #
coedge $-1 $385 $530 $243 $377 reversed $241 $-1 #
edge $-1 $392 -7.4007340471974086 $532 7.4007340471974086 $376 $533 forward 7 unknown #
coedge $-1 $245 $244 $530 $534 forward $97 $-1 #
edge $-1 $383 -53.514816736350596 $532 53.514816736350596 $375 $535 forward 7 unknown #
coedge $-1 $388 $387 $245 $381 reversed $372 $-1 #
edge $-1 $536 -53.514816736350596 $382 53.514816736350596 $380 $537 forward 7 unknown #
vertex $-1 $247 $538 #
vertex $-1 $394 $539 #
straight-curve $-1 53.514816736350596 0 -7.4007340471974086 0 -1 0 I I #
coedge $-1 $374 $376 $248 $386 reversed $241 $-1 #
edge $-1 $389 -33.217337751974888 $392 33.217337751974888 $385 $540 forward 7 unknown #
coedge $-1 $380 $249 $254 $395 forward $372 $-1 #
coedge $-1 $249 $380 $374 $531 reversed $372 $-1 #
vertex $-1 $250 $541 #
straight-curve $-1 0 33.217337751974888 7.4007340471974086 -1 0 0 I I #
coedge $-1 $251 $375 $253 $394 reversed $150 $-1 #
vertex $-1 $386 $542 #
straight-curve $-1 0 -33.217337751974888 7.4007340471974086 1 0 0 I I #
edge $-1 $256 -7.4007340471974086 $383 7.4007340471974086 $253 $543 forward 7 unknown #
edge $-1 $257 -7.4007340471974086 $382 7.4007340471974086 $254 $544 forward 7 unknown #
point $-1 53.514816736350596 -33.217337751974888 7.4007340471974086 #
point $-1 53.514816736350596 33.217337751974888 7.4007340471974086 #
face $-1 $-1 $412 $37 $-1 $545 reversed single #
loop $-1 $-1 $546 $259 #
plane-surface $-1 0 -39.023057430245409 -5.9007340471974086 0 1 0 0 0 1 forward_v I I I I #
coedge $-1 $547 $262 $271 $416 reversed $158 $-1 #
coedge $-1 $262 $547 $263 $404 reversed $158 $-1 #
coedge $-1 $264 $263 $548 $549 forward $101 $-1 #
edge $-1 $408 33.217337751974888 $550 39.023057430245409 $402 $551 forward 7 unknown #
coedge $-1 $552 $268 $264 $406 reversed $412 $-1 #
edge $-1 $553 -39.023057430245409 $407 -33.217337751974888 $405 $554 forward 7 unknown #
vertex $-1 $269 $555 #
vertex $-1 $404 $556 #
straight-curve $-1 0 -33.217337751974888 -7.4007340471974086 1 0 0 I I #
straight-curve $-1 53.514816736350596 -33.217337751974888 0 0 0 1 I I #
coedge $-1 $268 $552 $270 $415 reversed $412 $-1 #
loop $-1 $-1 $268 $398 #
straight-curve $-1 -53.514816736350596 -33.217337751974888 0 0 0 -1 I I #
coedge $-1 $271 $270 $557 $558 forward $260 $-1 #
edge $-1 $272 -2.9028598391352602 $559 2.9028598391352602 $411 $560 forward 7 unknown #
edge $-1 $561 -2.9028598391352602 $273 2.9028598391352602 $401 $562 forward 7 unknown #
point $-1 -53.514816736350596 -33.217337751974888 -4.4007340471974086 #
point $-1 53.514816736350596 -33.217337751974888 -4.4007340471974086 #
loop $-1 $-1 $283 $275 #
plane-surface $-1 -53.514816736350596 0 0 1 0 0 0 0 -1 forward_v I I I I #
coedge $-1 $422 $278 $280 $426 reversed $166 $-1 #
coedge $-1 $278 $421 $563 $564 reversed $166 $-1 #
coedge $-1 $286 $281 $278 $424 forward $276 $-1 #
edge $-1 $427 -19.121058100166223 $565 -14.831415779439865 $423 $566 forward 7 unknown #
coedge $-1 $280 $279 $430 $567 reversed $105 $-1 #
edge $-1 $568 2.2748066086763162e-014 $427 6.8163092303859418 $421 $569 forward 7 unknown #
vertex $-1 $282 $570 #
straight-curve $-1 -49.225174415624238 -10.382026089325075 7.4007340471974086 0 1 0 I I #
coedge $-1 $563 $283 $286 $434 reversed $419 $-1 #
coedge $-1 $283 $563 $425 $567 forward $419 $-1 #
vertex $-1 $284 $571 #
straight-curve $-1 -53.514816736350596 -25.405612567900306 34.729698248782967 0 0 1 I I #
straight-curve $-1 -53.51481673635061 -25.405612567900306 2.1034668003541981 -0.62932038083071107 0 -0.77714596973225614 I I #
edge $-1 $565 16.122491789399994 $287 25.405612567900306 $429 $572 forward 7 unknown #
point $-1 -53.514816736350596 -25.405612567900306 7.4007340471974086 #
point $-1 -49.225174415624238 -25.405612567900306 7.4007340471974086 #
edge $-1 $573 1 $573 0 $290 $-1 forward 7 unknown #
vertex $-1 $291 $574 #
ellipse-curve $-1 -50.377259016183856 -20.76405217865015 3.9481982300921845 -0.77714596973225614 0 0.62932038083071107 0.62932038083071107 0 0.77714596973225614 1 I I #
point $-1 -50.740675195156697 -20.76405217865015 5.5292463935080569 #
loop $-1 $-1 $302 $294 #
plane-surface $-1 -53.514816736350596 0 0 1 0 0 0 0 -1 forward_v I I I I #
coedge $-1 $444 $297 $299 $448 reversed $181 $-1 #
coedge $-1 $297 $443 $575 $576 reversed $181 $-1 #
coedge $-1 $305 $300 $297 $446 forward $295 $-1 #
edge $-1 $449 -19.121058100166223 $577 -14.831415779439865 $445 $578 forward 7 unknown #
coedge $-1 $299 $298 $452 $579 reversed $114 $-1 #
edge $-1 $580 2.2748066086763162e-014 $449 6.8163092303859418 $443 $581 forward 7 unknown #
vertex $-1 $301 $582 #
straight-curve $-1 -49.225174415624238 -2.8034066111151681 7.4007340471974086 0 1 0 I I #
coedge $-1 $575 $302 $305 $456 reversed $441 $-1 #
coedge $-1 $302 $575 $447 $579 forward $441 $-1 #
vertex $-1 $303 $583 #
straight-curve $-1 -53.514816736350596 -10.248373611480492 34.729698248782967 0 0 1 I I #
straight-curve $-1 -53.51481673635061 -10.248373611480492 2.1034668003541981 -0.62932038083071107 0 -0.77714596973225614 I I #
edge $-1 $577 0.96525283298018039 $306 10.248373611480492 $451 $584 forward 7 unknown #
point $-1 -53.514816736350596 -10.248373611480492 7.4007340471974086 #
point $-1 -49.225174415624238 -10.248373611480492 7.4007340471974086 #
edge $-1 $585 1 $585 0 $309 $-1 forward 7 unknown #
vertex $-1 $310 $586 #
ellipse-curve $-1 -50.377259016183856 -5.6068132222303362 3.9481982300921845 -0.77714596973225614 0 0.62932038083071107 0.62932038083071107 0 0.77714596973225614 1 I I #
point $-1 -50.740675195156697 -5.6068132222303362 5.5292463935080569 #
loop $-1 $-1 $321 $313 #
plane-surface $-1 -53.514816736350596 0 0 1 0 0 0 0 -1 forward_v I I I I #
coedge $-1 $466 $316 $318 $470 reversed $196 $-1 #
coedge $-1 $316 $465 $587 $588 reversed $196 $-1 #
coedge $-1 $324 $319 $316 $468 forward $314 $-1 #
edge $-1 $471 -19.121058100166223 $589 -14.831415779439865 $467 $590 forward 7 unknown #
coedge $-1 $318 $317 $474 $591 reversed $123 $-1 #
edge $-1 $592 2.2748066086763162e-014 $471 6.8163092303859418 $465 $593 forward 7 unknown #
vertex $-1 $320 $594 #
straight-curve $-1 -49.225174415624238 4.7752128670947371 7.4007340471974086 0 1 0 I I #
coedge $-1 $587 $321 $324 $478 reversed $463 $-1 #
coedge $-1 $321 $587 $469 $591 forward $463 $-1 #
vertex $-1 $322 $595 #
straight-curve $-1 -53.514816736350596 4.9088653449393185 34.729698248782967 0 0 1 I I #
straight-curve $-1 -53.51481673635061 4.9088653449393185 2.1034668003541981 -0.62932038083071107 0 -0.77714596973225614 I I #
edge $-1 $589 -14.19198612343963 $325 -4.9088653449393185 $473 $596 forward 7 unknown #
point $-1 -53.514816736350596 4.9088653449393185 7.4007340471974086 #
point $-1 -49.225174415624238 4.9088653449393185 7.4007340471974086 #
edge $-1 $597 1 $597 0 $328 $-1 forward 7 unknown #
vertex $-1 $329 $598 #
ellipse-curve $-1 -50.377259016183856 9.5504257341894743 3.9481982300921845 -0.77714596973225614 0 0.62932038083071107 0.62932038083071107 0 0.77714596973225614 1 I I #
point $-1 -50.740675195156697 9.5504257341894743 5.5292463935080569 #
loop $-1 $-1 $340 $332 #
plane-surface $-1 -53.514816736350596 0 0 1 0 0 0 0 -1 forward_v I I I I #
coedge $-1 $488 $335 $337 $492 reversed $211 $-1 #
coedge $-1 $335 $487 $599 $600 reversed $211 $-1 #
coedge $-1 $343 $338 $335 $490 forward $333 $-1 #
edge $-1 $493 -19.121058100166223 $601 -14.831415779439865 $489 $602 forward 7 unknown #
coedge $-1 $337 $336 $496 $603 reversed $132 $-1 #
edge $-1 $604 2.2748066086763162e-014 $493 6.8163092303859418 $487 $605 forward 7 unknown #
vertex $-1 $339 $606 #
straight-curve $-1 -49.225174415624238 12.353832345304642 7.4007340471974086 0 1 0 I I #
coedge $-1 $599 $340 $343 $500 reversed $485 $-1 #
coedge $-1 $340 $599 $491 $603 forward $485 $-1 #
vertex $-1 $341 $607 #
straight-curve $-1 -53.514816736350596 20.066104301359129 34.729698248782967 0 0 1 I I #
straight-curve $-1 -53.51481673635061 20.066104301359129 2.1034668003541981 -0.62932038083071107 0 -0.77714596973225614 I I #
edge $-1 $601 -29.349225079859441 $344 -20.066104301359129 $495 $608 forward 7 unknown #
point $-1 -53.514816736350596 20.066104301359129 7.4007340471974086 #
point $-1 -49.225174415624238 20.066104301359129 7.4007340471974086 #
edge $-1 $609 1 $609 0 $347 $-1 forward 7 unknown #
vertex $-1 $348 $610 #
ellipse-curve $-1 -50.377259016183856 24.707664690609285 3.9481982300921845 -0.77714596973225614 0 0.62932038083071107 0.62932038083071107 0 0.77714596973225614 1 I I #
point $-1 -50.740675195156697 24.707664690609285 5.5292463935080569 #
plane-surface $-1 0 0 7.4007340471974086 0 0 1 1 0 0 forward_v I I I I #
coedge $-1 $518 $517 $510 $611 forward $352 $-1 #
coedge $-1 $510 $354 $356 $514 reversed $226 $-1 #
coedge $-1 $354 $509 $508 $611 reversed $226 $-1 #
coedge $-1 $362 $357 $354 $512 forward $363 $-1 #
edge $-1 $515 4.2191824489479757 $612 7.1696248329000767 $511 $613 forward 7 unknown #
coedge $-1 $356 $355 $518 $614 reversed $141 $-1 #
edge $-1 $615 -107.02963347270112 $515 -101.12874854668303 $509 $616 forward 7 unknown #
vertex $-1 $358 $617 #
straight-curve $-1 50.564374352398488 -5.9110288986475013 7.4007340471974103 0 -1 0 I I #
coedge $-1 $508 $359 $362 $522 reversed $352 $-1 #
coedge $-1 $359 $508 $513 $614 forward $352 $-1 #
vertex $-1 $360 $618 #
straight-curve $-1 53.514816736350596 -7.2067486153807891 74.247807713105942 0 0 1 I I #
straight-curve $-1 1.4339266272145323e-006 -7.2067486153807891 94.980800123787887 0.49999998660252726 0 -0.86602541151947299 I I #
edge $-1 $612 -16.437366979209216 $364 -7.2067486153807891 $517 $619 forward 7 unknown #
point $-1 53.514816736350596 -7.2067486153807891 7.4007340471974086 #
point $-1 50.564374352398495 -7.2067486153807891 7.4007340471974032 #
edge $-1 $620 1 $620 0 $367 $-1 forward 7 unknown #
vertex $-1 $368 $621 #
ellipse-curve $-1 50.41034344682479 -11.822057797295003 3.9049267955135289 0.86602541151947299 0 0.49999998660252726 0.24999999330126363 0 -0.43301270575973649 1 I I #
point $-1 52.289595537675787 -11.822057797295003 4.4125631932457052 #
plane-surface $-1 53.514816736350596 0 0 -1 0 0 0 0 1 forward_v I I I I #
coedge $-1 $376 $374 $378 $534 reversed $241 $-1 #
edge $-1 $389 -7.4007340471974086 $536 7.4007340471974086 $388 $622 forward 7 unknown #
vertex $-1 $534 $623 #
straight-curve $-1 -53.514816736350596 -33.217337751974888 0 0 0 -1 I I #
edge $-1 $532 -33.217337751974888 $536 33.217337751974888 $530 $624 forward 7 unknown #
straight-curve $-1 0 -33.217337751974888 -7.4007340471974086 -1 0 0 I I #
vertex $-1 $381 $625 #
straight-curve $-1 0 33.217337751974888 -7.4007340471974086 1 0 0 I I #
point $-1 53.514816736350596 33.217337751974888 -7.4007340471974086 #
point $-1 53.514816736350596 -33.217337751974888 -7.4007340471974086 #
straight-curve $-1 -53.514816736350596 0 7.4007340471974086 0 -1 0 I I #
point $-1 -53.514816736350596 33.217337751974888 7.4007340471974086 #
point $-1 -53.514816736350596 -33.217337751974888 7.4007340471974086 #
straight-curve $-1 53.514816736350596 -33.217337751974888 0 0 0 -1 I I #
straight-curve $-1 53.514816736350596 33.217337751974888 0 0 0 -1 I I #
plane-surface $-1 -53.514816736350596 0 0 1 0 0 0 0 -1 forward_v I I I I #
coedge $-1 $548 $557 $552 $626 forward $399 $-1 #
coedge $-1 $402 $401 $627 $628 forward $158 $-1 #
coedge $-1 $627 $546 $403 $549 reversed $399 $-1 #
edge $-1 $550 -53.514816736350596 $553 53.514816736350596 $548 $629 forward 7 unknown #
vertex $-1 $628 $630 #
straight-curve $-1 53.514816736350596 0 -7.4007340471974086 0 -1 0 I I #
coedge $-1 $411 $405 $546 $626 reversed $412 $-1 #
vertex $-1 $406 $631 #
straight-curve $-1 -53.514816736350596 0 -7.4007340471974086 0 1 0 I I #
point $-1 -53.514816736350596 -33.217337751974888 -7.4007340471974086 #
point $-1 53.514816736350596 -33.217337751974888 -7.4007340471974086 #
coedge $-1 $546 $627 $414 $558 reversed $399 $-1 #
edge $-1 $559 -53.514816736350596 $561 53.514816736350596 $557 $632 forward 7 unknown #
vertex $-1 $415 $633 #
straight-curve $-1 -53.514816736350596 -36.120197591110148 -4.4007340471974086 0 -1 0 I I #
vertex $-1 $416 $634 #
straight-curve $-1 53.514816736350596 -36.120197591110148 -4.4007340471974086 0 1 0 I I #
coedge $-1 $430 $429 $422 $564 forward $419 $-1 #
edge $-1 $565 27.328964201585556 $568 32.626231448428754 $563 $635 forward 7 unknown #
vertex $-1 $434 $636 #
straight-curve $-1 -68.346232515790462 -16.122491789399994 7.4007340471974103 -1 0 0 I I #
edge $-1 $568 5.7404657000749193 $431 15.023586478575231 $430 $637 forward 7 unknown #
vertex $-1 $567 $638 #
straight-curve $-1 -53.51481673635061 -16.122491789399994 2.1034668003541981 0.62932038083071107 0 0.77714596973225614 I I #
point $-1 -49.225174415624238 -16.122491789399994 7.4007340471974086 #
point $-1 -53.514816736350596 -25.405612567900306 2.1034668003542158 #
straight-curve $-1 -53.514816736350596 0 7.4007340471974086 0 -1 0 I I #
vertex $-1 $437 $639 #
point $-1 -49.747938635353144 -20.76405217865015 4.7253441998244403 #
coedge $-1 $452 $451 $444 $576 forward $441 $-1 #
edge $-1 $577 27.328964201585556 $580 32.626231448428754 $575 $640 forward 7 unknown #
vertex $-1 $456 $641 #
straight-curve $-1 -68.346232515790462 -0.96525283298018039 7.4007340471974103 -1 0 0 I I #
edge $-1 $580 -1.8381537781349877 $453 7.4449670003653239 $452 $642 forward 7 unknown #
vertex $-1 $579 $643 #
straight-curve $-1 -53.51481673635061 -0.96525283298018039 2.1034668003541981 0.62932038083071107 0 0.77714596973225614 I I #
point $-1 -49.225174415624238 -0.96525283298018039 7.4007340471974086 #
point $-1 -53.514816736350596 -10.248373611480492 2.1034668003542158 #
straight-curve $-1 -53.514816736350596 0 7.4007340471974086 0 -1 0 I I #
vertex $-1 $459 $644 #
point $-1 -49.747938635353144 -5.6068132222303362 4.7253441998244403 #
coedge $-1 $474 $473 $466 $588 forward $463 $-1 #
edge $-1 $589 27.328964201585556 $592 32.626231448428754 $587 $645 forward 7 unknown #
vertex $-1 $478 $646 #
straight-curve $-1 -68.346232515790462 14.19198612343963 7.4007340471974103 -1 0 0 I I #
edge $-1 $592 -9.4167732563448929 $475 -0.13365247784458134 $474 $647 forward 7 unknown #
vertex $-1 $591 $648 #
straight-curve $-1 -53.51481673635061 14.19198612343963 2.1034668003541981 0.62932038083071107 0 0.77714596973225614 I I #
point $-1 -49.225174415624238 14.19198612343963 7.4007340471974086 #
point $-1 -53.514816736350596 4.9088653449393185 2.1034668003542158 #
straight-curve $-1 -53.514816736350596 0 7.4007340471974086 0 -1 0 I I #
vertex $-1 $481 $649 #
point $-1 -49.747938635353144 9.5504257341894743 4.7253441998244403 #
coedge $-1 $496 $495 $488 $600 forward $485 $-1 #
edge $-1 $601 27.328964201585556 $604 32.626231448428754 $599 $650 forward 7 unknown #
vertex $-1 $500 $651 #
straight-curve $-1 -68.346232515790462 29.349225079859441 7.4007340471974103 -1 0 0 I I #
edge $-1 $604 -16.995392734554798 $497 -7.7122719560544866 $496 $652 forward 7 unknown #
vertex $-1 $603 $653 #
straight-curve $-1 -53.51481673635061 29.349225079859441 2.1034668003541981 0.62932038083071107 0 0.77714596973225614 I I #
point $-1 -49.225174415624238 29.349225079859441 7.4007340471974086 #
point $-1 -53.514816736350596 20.066104301359129 2.1034668003542158 #
straight-curve $-1 -53.514816736350596 0 7.4007340471974086 0 -1 0 I I #
vertex $-1 $503 $654 #
point $-1 -49.747938635353144 24.707664690609285 4.7253441998244403 #
edge $-1 $612 66.847073665908539 $615 71.95738996229241 $508 $655 forward 7 unknown #
vertex $-1 $522 $656 #
straight-curve $-1 46.34519190345052 -16.437366979209216 7.4007340471974032 1 0 0 I I #
edge $-1 $615 -10.526338080561715 $519 -1.2957197167332879 $518 $657 forward 7 unknown #
vertex $-1 $614 $658 #
straight-curve $-1 1.4339266272145323e-006 -16.437366979209216 94.980800123787887 -0.49999998660252726 0 0.86602541151947299 I I #
point $-1 50.564374352398495 -16.437366979209216 7.4007340471974032 #
point $-1 53.514816736350596 -7.2067486153807891 2.2904177508135319 #
straight-curve $-1 53.514816736350596 0 7.4007340471974086 0 1 0 I I #
vertex $-1 $525 $659 #
point $-1 50.660343440126056 -11.822057797295003 3.4719140897537928 #
straight-curve $-1 -53.514816736350596 33.217337751974888 0 0 0 -1 I I #
point $-1 -53.514816736350596 -33.217337751974888 -7.4007340471974086 #
straight-curve $-1 -53.514816736350596 0 -7.4007340471974086 0 1 0 I I #
point $-1 -53.514816736350596 33.217337751974888 -7.4007340471974086 #
edge $-1 $559 -1.5 $553 1.5 $552 $660 forward 7 unknown #
coedge $-1 $557 $548 $547 $628 reversed $399 $-1 #
edge $-1 $561 -1.5 $550 1.5 $547 $661 forward 7 unknown #
straight-curve $-1 0 -39.023057430245409 -7.4007340471974086 -1 0 0 I I #
point $-1 53.514816736350596 -39.023057430245409 -7.4007340471974086 #
point $-1 -53.514816736350596 -39.023057430245409 -7.4007340471974086 #
straight-curve $-1 0 -39.023057430245409 -4.4007340471974086 1 0 0 I I #
point $-1 -53.514816736350596 -39.023057430245409 -4.4007340471974086 #
point $-1 53.514816736350596 -39.023057430245409 -4.4007340471974086 #
straight-curve $-1 -53.514816736350596 -16.122491789399994 34.729698248782967 0 0 -1 I I #
point $-1 -53.514816736350596 -16.122491789399994 7.4007340471974086 #
straight-curve $-1 -53.514816736350596 -10.382026089325075 2.1034668003542119 0 -1 0 I I #
point $-1 -53.514816736350596 -16.122491789399994 2.1034668003542158 #
point $-1 -49.600113046451597 -20.76405217865015 3.3188778492614728 #
straight-curve $-1 -53.514816736350596 -0.96525283298018039 34.729698248782967 0 0 -1 I I #
point $-1 -53.514816736350596 -0.96525283298018039 7.4007340471974086 #
straight-curve $-1 -53.514816736350596 -2.8034066111151681 2.1034668003542119 0 -1 0 I I #
point $-1 -53.514816736350596 -0.96525283298018039 2.1034668003542158 #
point $-1 -49.600113046451597 -5.6068132222303362 3.3188778492614728 #
straight-curve $-1 -53.514816736350596 14.19198612343963 34.729698248782967 0 0 -1 I I #
point $-1 -53.514816736350596 14.19198612343963 7.4007340471974086 #
straight-curve $-1 -53.514816736350596 4.7752128670947371 2.1034668003542119 0 -1 0 I I #
point $-1 -53.514816736350596 14.19198612343963 2.1034668003542158 #
point $-1 -49.600113046451597 9.5504257341894743 3.3188778492614728 #
straight-curve $-1 -53.514816736350596 29.349225079859441 34.729698248782967 0 0 -1 I I #
point $-1 -53.514816736350596 29.349225079859441 7.4007340471974086 #
straight-curve $-1 -53.514816736350596 12.353832345304642 2.1034668003542119 0 -1 0 I I #
point $-1 -53.514816736350596 29.349225079859441 2.1034668003542158 #
point $-1 -49.600113046451597 24.707664690609285 3.3188778492614728 #
straight-curve $-1 53.514816736350596 -16.437366979209216 74.247807713105942 0 0 -1 I I #
point $-1 53.514816736350596 -16.437366979209216 7.4007340471974086 #
straight-curve $-1 53.514816736350596 -5.9110288986475013 2.2904177508135248 0 1 0 I I #
point $-1 53.514816736350596 -16.437366979209216 2.2904177508135319 #
point $-1 49.977330741065053 -11.822057797295003 3.6549268022122656 #
straight-curve $-1 -53.514816736350596 -39.023057430245409 -5.9007340471974086 0 0 -1 I I #
straight-curve $-1 53.514816736350596 -39.023057430245409 -5.9007340471974086 0 0 -1 I I #
End-of-ACIS-data 