500 0 8 0           
7 Unknown 11 ACIS 5.0 NT 24 Fri Mar 26 16:53:59 1999 
-1 9.9999999999999995e-007 1e-010 
body $-1 $8 $-1 $9 #
body $-1 $10 $-1 $11 #
body $-1 $12 $-1 $13 #
body $-1 $14 $-1 $15 #
body $-1 $16 $-1 $17 #
body $-1 $18 $-1 $19 #
body $-1 $20 $-1 $21 #
body $-1 $22 $-1 $23 #
lump $-1 $-1 $24 $0 #
transform $-1 1 0 0 0 1 0 0 0 1 57.366252632221446 24.655040923605611 6.6619098888949049 1 rotate no_reflect no_shear #
lump $-1 $-1 $25 $1 #
transform $-1 1 0 0 0 1 0 0 0 1 57.366252632221446 24.655040923605611 6.6619098888949049 1 rotate no_reflect no_shear #
lump $-1 $-1 $26 $2 #
transform $-1 1 0 0 0 1 0 0 0 1 57.366252632221446 24.655040923605611 6.6619098888949049 1 rotate no_reflect no_shear #
lump $-1 $-1 $27 $3 #
transform $-1 1 0 0 0 1 0 0 0 1 57.366252632221446 24.655040923605611 6.6619098888949049 1 rotate no_reflect no_shear #
lump $-1 $-1 $28 $4 #
transform $-1 1 0 0 0 1 0 0 0 1 57.366252632221446 24.655040923605611 6.6619098888949049 1 rotate no_reflect no_shear #
lump $-1 $-1 $29 $5 #
transform $-1 1 0 0 0 1 0 0 0 1 57.366252632221446 24.655040923605611 6.6619098888949049 1 rotate no_reflect no_shear #
lump $-1 $-1 $30 $6 #
transform $-1 1 0 0 0 1 0 0 0 1 57.366252632221446 24.655040923605611 6.6619098888949049 1 rotate no_reflect no_shear #
lump $-1 $-1 $31 $7 #
transform $-1 1 0 0 0 1 0 0 0 1 57.366252632221446 24.655040923605611 6.6619098888949049 1 rotate no_reflect no_shear #
shell $-1 $-1 $-1 $32 $-1 $8 #
shell $-1 $-1 $-1 $33 $-1 $10 #
shell $-1 $-1 $-1 $34 $-1 $12 #
shell $-1 $-1 $-1 $35 $-1 $14 #
shell $-1 $-1 $-1 $36 $-1 $16 #
shell $-1 $-1 $-1 $37 $-1 $18 #
shell $-1 $-1 $-1 $38 $-1 $20 #
shell $-1 $-1 $-1 $39 $-1 $22 #
face $-1 $40 $41 $24 $-1 $42 forward single #
face $-1 $43 $44 $25 $-1 $45 reversed single #
face $-1 $46 $47 $26 $-1 $48 reversed single #
face $-1 $49 $50 $27 $-1 $51 forward single #
face $-1 $52 $53 $28 $-1 $54 forward single #
face $-1 $55 $56 $29 $-1 $57 reversed single #
face $-1 $58 $59 $30 $-1 $60 forward single #
face $-1 $61 $62 $31 $-1 $63 forward single #
face $-1 $64 $65 $24 $-1 $66 reversed single #
loop $-1 $-1 $67 $32 #
plane-surface $-1 0 0 6.6619098888949049 0 0 1 1 0 0 forward_v I I I I #
face $-1 $68 $69 $25 $-1 $70 reversed single #
loop $-1 $-1 $71 $33 #
plane-surface $-1 -54.053343621846025 -18.890684667682329 0 0 1 0 0 0 1 forward_v I I I I #
face $-1 $72 $73 $26 $-1 $74 reversed single #
loop $-1 $-1 $75 $34 #
plane-surface $-1 -37.751304462941391 -18.811837471371547 66.544488898995425 0.55919291073839883 0 0.82903756765294845 0.82903756765294845 0 -0.55919291073839883 forward_v I I I I #
face $-1 $76 $77 $27 $-1 $78 forward single #
loop $-1 $79 $80 $35 #
cone-surface $-1 52.930769617114677 -21.316067522329003 2.6467478218565543 -0.55919291073839883 0 -0.82903756765294845 1.2435563514794228 0 -0.83878936610759824 1 I I 0 1 1.5 forward I I I I #
face $-1 $81 $82 $28 $-1 $83 forward single #
loop $-1 $84 $85 $36 #
cone-surface $-1 52.930769617114677 -16.30760742041409 2.6467478218565543 -0.55919291073839883 0 -0.82903756765294845 1.2435563514794228 0 -0.83878936610759824 1 I I 0 1 1.5 forward I I I I #
face $-1 $86 $87 $29 $-1 $88 reversed single #
loop $-1 $-1 $89 $37 #
plane-surface $-1 26.406299112191093 -8.8817841970012523e-016 161.66204599415826 0 1 0 0.55919291073839883 0 0.82903756765294845 forward_v I I I I #
face $-1 $90 $91 $30 $-1 $92 forward single #
loop $-1 $93 $94 $38 #
cone-surface $-1 52.930769617114677 3.3389734012766077 2.6467478218565543 -0.55919291073839883 0 -0.82903756765294845 1.2435563514794228 0 -0.83878936610759824 1 I I 0 1 1.5 forward I I I I #
face $-1 $95 $96 $31 $-1 $97 forward single #
loop $-1 $98 $99 $39 #
cone-surface $-1 52.930769617114677 8.3474335031915246 2.6467478218565543 -0.55919291073839883 0 -0.82903756765294845 1.2435563514794228 0 -0.83878936610759824 1 I I 0 1 1.5 forward I I I I #
face $-1 $100 $101 $24 $-1 $102 reversed single #
loop $-1 $-1 $103 $40 #
plane-surface $-1 0 0 -6.6619098888949049 0 0 1 1 0 0 forward_v I I I I #
coedge $-1 $104 $105 $106 $107 forward $41 $-1 #
face $-1 $108 $109 $25 $-1 $110 reversed single #
loop $-1 $-1 $111 $43 #
plane-surface $-1 -54.053343621846025 -15.7954288148269 0 0 -1 0 0 0 -1 forward_v I I I I #
coedge $-1 $112 $113 $114 $115 reversed $44 $-1 #
face $-1 $116 $117 $26 $-1 $118 reversed single #
loop $-1 $-1 $119 $46 #
plane-surface $-1 26.406299112191093 -12.968634019137482 161.66204599415826 0 -1 0 -0.55919291073839883 0 -0.82903756765294845 forward_v I I I I #
coedge $-1 $120 $121 $122 $123 reversed $47 $-1 #
face $-1 $-1 $124 $27 $-1 $125 forward single #
loop $-1 $126 $127 $49 #
cone-surface $-1 51.244884138804267 -21.316067522329003 0.14731986159447441 -0.55919291073839883 0 -0.82903756765294845 0.62177817573971139 0 -0.41939468305379912 1 I I -0.70710678118654757 0.70710678118654757 0.75 forward I I I I #
loop $-1 $-1 $128 $35 #
coedge $-1 $80 $80 $129 $130 reversed $50 $-1 #
face $-1 $-1 $131 $28 $-1 $132 forward single #
loop $-1 $133 $134 $52 #
cone-surface $-1 51.244884138804267 -16.30760742041409 0.14731986159447441 -0.55919291073839883 0 -0.82903756765294845 0.62177817573971139 0 -0.41939468305379912 1 I I -0.70710678118654757 0.70710678118654757 0.75 forward I I I I #
loop $-1 $-1 $135 $36 #
coedge $-1 $85 $85 $136 $137 reversed $53 $-1 #
face $-1 $138 $139 $29 $-1 $140 reversed single #
loop $-1 $-1 $141 $55 #
plane-surface $-1 -37.751304462941391 5.8432034522340643 66.544488898995425 0.55919291073839883 0 0.82903756765294845 0.82903756765294845 0 -0.55919291073839883 forward_v I I I I #
coedge $-1 $142 $143 $144 $145 reversed $56 $-1 #
face $-1 $-1 $146 $30 $-1 $147 forward single #
loop $-1 $148 $149 $58 #
cone-surface $-1 51.244884138804267 3.3389734012766077 0.14731986159447441 -0.55919291073839883 0 -0.82903756765294845 0.62177817573971139 0 -0.41939468305379912 1 I I -0.70710678118654757 0.70710678118654757 0.75 forward I I I I #
loop $-1 $-1 $150 $38 #
coedge $-1 $94 $94 $151 $152 reversed $59 $-1 #
face $-1 $-1 $153 $31 $-1 $154 forward single #
loop $-1 $155 $156 $61 #
cone-surface $-1 51.244884138804267 8.3474335031915246 0.14731986159447441 -0.55919291073839883 0 -0.82903756765294845 0.62177817573971139 0 -0.41939468305379912 1 I I -0.70710678118654757 0.70710678118654757 0.75 forward I I I I #
loop $-1 $-1 $157 $39 #
coedge $-1 $99 $99 $158 $159 reversed $62 $-1 #
face $-1 $160 $161 $24 $-1 $162 reversed single #
loop $-1 $-1 $163 $64 #
plane-surface $-1 0 -24.655040923605611 0 0 1 0 0 0 1 forward_v I I I I #
coedge $-1 $164 $165 $166 $167 forward $65 $-1 #
coedge $-1 $168 $67 $169 $170 forward $41 $-1 #
coedge $-1 $67 $168 $171 $172 forward $41 $-1 #
coedge $-1 $173 $174 $67 $107 reversed $175 $-1 #
edge $-1 $176 -24.655040923605611 $177 24.655040923605611 $106 $178 forward 7 unknown #
face $-1 $179 $180 $25 $-1 $181 reversed single #
loop $-1 $-1 $182 $68 #
plane-surface $-1 -50.740434611470604 -17.343056741254614 0 -1 0 0 0 0 1 forward_v I I I I #
coedge $-1 $183 $184 $185 $186 forward $69 $-1 #
coedge $-1 $187 $71 $188 $189 reversed $44 $-1 #
coedge $-1 $71 $187 $190 $191 reversed $44 $-1 #
coedge $-1 $192 $193 $71 $115 forward $194 $-1 #
edge $-1 $195 -6.6619098888949049 $196 6.6619098888949049 $114 $197 forward 7 unknown #
face $-1 $198 $199 $26 $-1 $200 forward single #
loop $-1 $-1 $122 $72 #
plane-surface $-1 57.366252632221446 0 0 -1 0 0 0 0 1 forward_v I I I I #
coedge $-1 $201 $202 $203 $204 reversed $73 $-1 #
coedge $-1 $205 $75 $206 $207 reversed $47 $-1 #
coedge $-1 $75 $205 $201 $208 forward $47 $-1 #
coedge $-1 $203 $209 $75 $123 forward $117 $-1 #
edge $-1 $210 -15.249122187919838 $211 -3.5627152834517091 $122 $212 forward 7 unknown #
loop $-1 $-1 $129 $76 #
plane-surface $-1 -37.751304462941391 -18.811837471371547 66.544488898995425 0.55919291073839883 0 0.82903756765294845 0.82903756765294845 0 -0.55919291073839883 forward_v I I I I #
loop $-1 $-1 $213 $49 #
coedge $-1 $127 $127 $128 $214 reversed $77 $-1 #
coedge $-1 $128 $128 $127 $214 forward $79 $-1 #
coedge $-1 $129 $129 $80 $130 forward $124 $-1 #
edge $-1 $215 0 $215 6.2831853071796004 $129 $216 forward 7 unknown #
loop $-1 $-1 $136 $81 #
plane-surface $-1 -37.751304462941391 -18.811837471371547 66.544488898995425 0.55919291073839883 0 0.82903756765294845 0.82903756765294845 0 -0.55919291073839883 forward_v I I I I #
loop $-1 $-1 $217 $52 #
coedge $-1 $134 $134 $135 $218 reversed $82 $-1 #
coedge $-1 $135 $135 $134 $218 forward $84 $-1 #
coedge $-1 $136 $136 $85 $137 forward $131 $-1 #
edge $-1 $219 0 $219 6.2831853071796004 $136 $220 forward 7 unknown #
face $-1 $221 $222 $29 $-1 $223 reversed single #
loop $-1 $-1 $224 $86 #
plane-surface $-1 26.406299112191093 11.686406904468129 161.66204599415826 0 -1 0 -0.55919291073839883 0 -0.82903756765294845 forward_v I I I I #
coedge $-1 $225 $226 $227 $228 reversed $87 $-1 #
coedge $-1 $143 $89 $229 $230 reversed $56 $-1 #
coedge $-1 $89 $142 $225 $231 reversed $56 $-1 #
coedge $-1 $227 $232 $89 $145 forward $222 $-1 #
edge $-1 $233 74.16911310818422 $234 78.44413767321619 $144 $235 forward 7 unknown #
loop $-1 $-1 $151 $90 #
plane-surface $-1 -37.751304462941391 5.8432034522340643 66.544488898995425 0.55919291073839883 0 0.82903756765294845 0.82903756765294845 0 -0.55919291073839883 forward_v I I I I #
loop $-1 $-1 $236 $58 #
coedge $-1 $149 $149 $150 $237 reversed $91 $-1 #
coedge $-1 $150 $150 $149 $237 forward $93 $-1 #
coedge $-1 $151 $151 $94 $152 forward $146 $-1 #
edge $-1 $238 0 $238 6.2831853071796004 $151 $239 forward 7 unknown #
loop $-1 $-1 $158 $95 #
plane-surface $-1 -37.751304462941391 5.8432034522340643 66.544488898995425 0.55919291073839883 0 0.82903756765294845 0.82903756765294845 0 -0.55919291073839883 forward_v I I I I #
loop $-1 $-1 $240 $61 #
coedge $-1 $156 $156 $157 $241 reversed $96 $-1 #
coedge $-1 $157 $157 $156 $241 forward $98 $-1 #
coedge $-1 $158 $158 $99 $159 forward $153 $-1 #
edge $-1 $242 0 $242 6.2831853071796004 $158 $243 forward 7 unknown #
face $-1 $244 $245 $24 $-1 $246 reversed single #
loop $-1 $-1 $247 $100 #
plane-surface $-1 -57.366252632221446 0 0 1 0 0 0 0 -1 forward_v I I I I #
coedge $-1 $248 $171 $249 $250 forward $101 $-1 #
coedge $-1 $251 $103 $248 $252 forward $65 $-1 #
coedge $-1 $103 $251 $253 $254 forward $65 $-1 #
coedge $-1 $174 $173 $103 $167 reversed $175 $-1 #
edge $-1 $255 -24.655040923605611 $256 24.655040923605611 $166 $257 forward 7 unknown #
coedge $-1 $105 $104 $258 $259 forward $41 $-1 #
coedge $-1 $260 $261 $104 $170 reversed $245 $-1 #
edge $-1 $177 -57.366252632221446 $262 57.366252632221446 $169 $263 forward 7 unknown #
coedge $-1 $163 $264 $105 $172 reversed $101 $-1 #
edge $-1 $265 -57.366252632221446 $176 57.366252632221446 $171 $266 forward 7 unknown #
coedge $-1 $166 $106 $264 $267 forward $175 $-1 #
coedge $-1 $106 $166 $260 $268 reversed $175 $-1 #
loop $-1 $-1 $173 $244 #
vertex $-1 $107 $269 #
vertex $-1 $107 $270 #
straight-curve $-1 57.366252632221446 0 6.6619098888949049 0 1 0 I I #
face $-1 $271 $272 $25 $-1 $273 forward single #
loop $-1 $-1 $274 $108 #
plane-surface $-1 0 0 -6.6619098888949049 0 0 1 1 0 0 forward_v I I I I #
coedge $-1 $275 $276 $187 $277 forward $109 $-1 #
coedge $-1 $278 $111 $274 $279 reversed $69 $-1 #
coedge $-1 $111 $278 $280 $281 reversed $69 $-1 #
coedge $-1 $276 $275 $111 $186 reversed $109 $-1 #
edge $-1 $282 -6.6619098888949049 $283 6.6619098888949049 $185 $284 forward 7 unknown #
coedge $-1 $113 $112 $182 $277 reversed $44 $-1 #
coedge $-1 $285 $286 $112 $189 forward $180 $-1 #
edge $-1 $287 23.713762800547592 $195 30.339580821298433 $188 $288 forward 7 unknown #
coedge $-1 $289 $290 $113 $191 forward $272 $-1 #
edge $-1 $196 -30.339580821298433 $291 -23.713762800547592 $190 $292 forward 7 unknown #
coedge $-1 $293 $114 $290 $294 reversed $194 $-1 #
coedge $-1 $114 $293 $285 $295 reversed $194 $-1 #
loop $-1 $-1 $293 $271 #
vertex $-1 $295 $296 #
vertex $-1 $115 $297 #
straight-curve $-1 -57.366252632221446 -18.890684667682329 0 0 0 1 I I #
face $-1 $-1 $298 $26 $-1 $299 reversed single #
loop $-1 $-1 $300 $116 #
plane-surface $-1 0 0 6.6619098888949049 0 0 1 1 0 0 forward_v I I I I #
coedge $-1 $202 $119 $121 $208 reversed $73 $-1 #
coedge $-1 $119 $201 $301 $302 reversed $73 $-1 #
coedge $-1 $303 $122 $119 $204 forward $117 $-1 #
edge $-1 $211 -78.44413767321619 $304 -74.16911310818422 $203 $305 forward 7 unknown #
coedge $-1 $121 $120 $300 $306 reversed $47 $-1 #
coedge $-1 $307 $308 $120 $207 forward $298 $-1 #
edge $-1 $309 72.833286596377533 $210 80.478277230087315 $206 $310 forward 7 unknown #
edge $-1 $311 107.0875146307331 $211 114.73250526444288 $201 $312 forward 7 unknown #
coedge $-1 $122 $303 $307 $313 forward $117 $-1 #
vertex $-1 $207 $314 #
vertex $-1 $123 $315 #
straight-curve $-1 57.366252632221439 -9.4059187356857734 2.3868853238629413 0 1 0 I I #
coedge $-1 $213 $213 $-1 $316 reversed $126 $-1 #
edge $-1 $317 0 $317 6.2831853071796004 $127 $318 forward 7 unknown #
vertex $-1 $130 $319 #
ellipse-curve $-1 54.197260412371286 -21.316067522329003 4.5243976063789164 0.55919291073839883 0 0.82903756765294845 1.2435563514794228 0 -0.83878936610759824 1 I I #
coedge $-1 $217 $217 $-1 $320 reversed $133 $-1 #
edge $-1 $321 0 $321 6.2831853071796004 $134 $322 forward 7 unknown #
vertex $-1 $137 $323 #
ellipse-curve $-1 54.197260412371286 -16.30760742041409 4.5243976063789164 0.55919291073839883 0 0.82903756765294845 1.2435563514794228 0 -0.83878936610759824 1 I I #
face $-1 $-1 $324 $29 $-1 $325 forward single #
loop $-1 $-1 $144 $138 #
plane-surface $-1 57.366252632221446 0 0 -1 0 0 0 0 1 forward_v I I I I #
coedge $-1 $326 $327 $328 $329 reversed $139 $-1 #
coedge $-1 $330 $141 $143 $231 forward $87 $-1 #
coedge $-1 $141 $330 $326 $331 forward $87 $-1 #
coedge $-1 $328 $144 $141 $228 forward $222 $-1 #
edge $-1 $234 -2.9216017261170331 $332 8.7648051783510965 $227 $333 forward 7 unknown #
coedge $-1 $334 $335 $142 $230 forward $324 $-1 #
edge $-1 $336 37.825118636425564 $233 44.1631030761259 $229 $337 forward 7 unknown #
edge $-1 $234 -114.73250526444288 $336 -107.0875146307331 $143 $338 forward 7 unknown #
coedge $-1 $144 $328 $334 $339 reversed $222 $-1 #
vertex $-1 $339 $340 #
vertex $-1 $145 $341 #
straight-curve $-1 57.366252632221446 -8.8817841970012523e-016 80.831022997079131 0 0 -1 I I #
coedge $-1 $236 $236 $-1 $342 reversed $148 $-1 #
edge $-1 $343 0 $343 6.2831853071796004 $149 $344 forward 7 unknown #
vertex $-1 $152 $345 #
ellipse-curve $-1 54.197260412371286 3.3389734012766077 4.5243976063789164 0.55919291073839883 0 0.82903756765294845 1.2435563514794228 0 -0.83878936610759824 1 I I #
coedge $-1 $240 $240 $-1 $346 reversed $155 $-1 #
edge $-1 $347 0 $347 6.2831853071796004 $156 $348 forward 7 unknown #
vertex $-1 $159 $349 #
ellipse-curve $-1 54.197260412371286 8.3474335031915246 4.5243976063789164 0.55919291073839883 0 0.82903756765294845 1.2435563514794228 0 -0.83878936610759824 1 I I #
face $-1 $-1 $175 $24 $-1 $350 reversed single #
loop $-1 $-1 $260 $160 #
plane-surface $-1 0 24.655040923605611 0 0 -1 0 0 0 -1 forward_v I I I I #
coedge $-1 $351 $258 $261 $352 forward $161 $-1 #
coedge $-1 $264 $163 $164 $252 reversed $101 $-1 #
coedge $-1 $258 $351 $163 $250 reversed $161 $-1 #
edge $-1 $265 -6.6619098888949049 $353 6.6619098888949049 $249 $354 forward 7 unknown #
coedge $-1 $165 $164 $351 $355 forward $65 $-1 #
edge $-1 $256 -57.366252632221446 $353 57.366252632221446 $248 $356 forward 7 unknown #
coedge $-1 $261 $260 $165 $254 reversed $245 $-1 #
edge $-1 $357 -57.366252632221446 $255 57.366252632221446 $253 $358 forward 7 unknown #
vertex $-1 $167 $359 #
vertex $-1 $267 $360 #
straight-curve $-1 57.366252632221446 0 -6.6619098888949049 0 -1 0 I I #
coedge $-1 $247 $249 $168 $259 reversed $161 $-1 #
edge $-1 $262 -24.655040923605611 $265 24.655040923605611 $258 $361 forward 7 unknown #
coedge $-1 $253 $169 $174 $268 forward $245 $-1 #
coedge $-1 $169 $253 $247 $352 reversed $245 $-1 #
vertex $-1 $170 $362 #
straight-curve $-1 0 24.655040923605611 6.6619098888949049 -1 0 0 I I #
coedge $-1 $171 $248 $173 $267 reversed $101 $-1 #
vertex $-1 $259 $363 #
straight-curve $-1 0 -24.655040923605611 6.6619098888949049 1 0 0 I I #
edge $-1 $176 -6.6619098888949049 $256 6.6619098888949049 $173 $364 forward 7 unknown #
edge $-1 $177 -6.6619098888949049 $255 6.6619098888949049 $174 $365 forward 7 unknown #
point $-1 57.366252632221446 -24.655040923605611 6.6619098888949049 #
point $-1 57.366252632221446 24.655040923605611 6.6619098888949049 #
face $-1 $-1 $194 $25 $-1 $366 reversed single #
loop $-1 $-1 $280 $179 #
plane-surface $-1 0 0 6.6619098888949049 0 0 1 1 0 0 forward_v I I I I #
coedge $-1 $286 $285 $183 $279 forward $180 $-1 #
coedge $-1 $185 $182 $286 $367 reversed $109 $-1 #
coedge $-1 $182 $185 $289 $368 reversed $109 $-1 #
edge $-1 $291 -6.6619098888949049 $287 6.6619098888949049 $182 $369 forward 7 unknown #
coedge $-1 $184 $183 $293 $370 reversed $69 $-1 #
edge $-1 $371 -30.339580821298433 $283 -23.713762800547592 $274 $372 forward 7 unknown #
coedge $-1 $290 $289 $184 $281 forward $272 $-1 #
edge $-1 $282 23.713762800547592 $373 30.339580821298433 $280 $374 forward 7 unknown #
vertex $-1 $281 $375 #
vertex $-1 $279 $376 #
straight-curve $-1 -50.740434611470604 -15.7954288148269 0 0 0 -1 I I #
coedge $-1 $274 $188 $193 $295 forward $180 $-1 #
coedge $-1 $188 $274 $275 $367 forward $180 $-1 #
vertex $-1 $189 $377 #
straight-curve $-1 -27.026671810923013 -18.890684667682329 -6.6619098888949049 -1 0 0 I I #
coedge $-1 $280 $190 $276 $368 forward $272 $-1 #
coedge $-1 $190 $280 $192 $294 forward $272 $-1 #
vertex $-1 $191 $378 #
straight-curve $-1 -27.026671810923013 -18.890684667682329 6.6619098888949049 1 0 0 I I #
coedge $-1 $193 $192 $278 $370 forward $194 $-1 #
edge $-1 $373 15.7954288148269 $196 18.890684667682329 $192 $379 forward 7 unknown #
edge $-1 $195 -18.890684667682329 $371 -15.7954288148269 $193 $380 forward 7 unknown #
point $-1 -57.366252632221446 -18.890684667682329 -6.6619098888949049 #
point $-1 -57.366252632221446 -18.890684667682329 6.6619098888949049 #
loop $-1 $-1 $206 $198 #
plane-surface $-1 0 -24.655040923605611 0 0 1 0 0 0 1 forward_v I I I I #
coedge $-1 $381 $301 $205 $306 forward $199 $-1 #
coedge $-1 $300 $382 $202 $302 forward $199 $-1 #
edge $-1 $304 -44.1631030761259 $311 -37.825118636425564 $301 $383 forward 7 unknown #
coedge $-1 $209 $203 $382 $384 reversed $117 $-1 #
vertex $-1 $204 $385 #
straight-curve $-1 57.366252632221446 -12.968634019137482 80.831022997079131 0 0 1 I I #
edge $-1 $311 3.5627152834517091 $309 15.249122187919838 $300 $386 forward 7 unknown #
coedge $-1 $308 $206 $209 $313 reversed $298 $-1 #
coedge $-1 $206 $307 $381 $387 reversed $298 $-1 #
vertex $-1 $387 $388 #
straight-curve $-1 -9.3532625715098074 -24.655040923605611 47.389767419367267 0.82903756765294845 0 -0.55919291073839883 I I #
vertex $-1 $306 $389 #
straight-curve $-1 -37.751304462941391 -12.968634019137482 66.544488898995425 0.82903756765294845 0 -0.55919291073839883 I I #
edge $-1 $390 -6.6619098888949049 $210 -2.3868853238629382 $209 $391 forward 7 unknown #
point $-1 57.366252632221446 -24.655040923605611 2.3868853238629382 #
point $-1 57.366252632221446 -12.968634019137482 2.3868853238629413 #
edge $-1 $392 1 $392 0 $213 $-1 forward 7 unknown #
vertex $-1 $214 $393 #
ellipse-curve $-1 51.664278821858069 -21.316067522329003 0.7690980373341858 0.55919291073839883 0 0.82903756765294845 1.2435563514794228 0 -0.83878936610759824 1 I I #
point $-1 55.440816763850712 -21.316067522329003 3.6856082402713244 #
edge $-1 $394 1 $394 0 $217 $-1 forward 7 unknown #
vertex $-1 $218 $395 #
ellipse-curve $-1 51.664278821858069 -16.30760742041409 0.7690980373341858 0.55919291073839883 0 0.82903756765294845 1.2435563514794228 0 -0.83878936610759824 1 I I #
point $-1 55.440816763850712 -16.30760742041409 3.6856082402713244 #
loop $-1 $-1 $229 $221 #
plane-surface $-1 0 0 6.6619098888949049 0 0 1 1 0 0 forward_v I I I I #
coedge $-1 $327 $224 $226 $331 reversed $139 $-1 #
coedge $-1 $224 $326 $396 $397 reversed $139 $-1 #
coedge $-1 $232 $227 $224 $329 forward $222 $-1 #
edge $-1 $332 -78.44413767321619 $398 -74.16911310818422 $328 $399 forward 7 unknown #
coedge $-1 $226 $225 $335 $400 reversed $87 $-1 #
edge $-1 $401 107.0875146307331 $332 114.73250526444288 $326 $402 forward 7 unknown #
vertex $-1 $228 $403 #
straight-curve $-1 57.366252632221439 2.9216017261170322 2.3868853238629413 0 1 0 I I #
coedge $-1 $396 $229 $232 $339 forward $324 $-1 #
coedge $-1 $229 $396 $330 $400 forward $324 $-1 #
vertex $-1 $230 $404 #
straight-curve $-1 13.203149556095546 -8.8817841970012523e-016 6.6619098888949111 1 0 0 I I #
straight-curve $-1 -37.751304462941391 -8.8817841970012523e-016 66.544488898995425 -0.82903756765294845 0 0.55919291073839883 I I #
edge $-1 $233 -8.8817841970012523e-016 $398 11.686406904468129 $232 $405 forward 7 unknown #
point $-1 57.366252632221446 -8.8817841970012523e-016 6.6619098888949049 #
point $-1 57.366252632221446 -8.8817841970012523e-016 2.3868853238629413 #
edge $-1 $406 1 $406 0 $236 $-1 forward 7 unknown #
vertex $-1 $237 $407 #
ellipse-curve $-1 51.664278821858069 3.3389734012766077 0.7690980373341858 0.55919291073839883 0 0.82903756765294845 1.2435563514794228 0 -0.83878936610759824 1 I I #
point $-1 55.440816763850712 3.3389734012766077 3.6856082402713244 #
edge $-1 $408 1 $408 0 $240 $-1 forward 7 unknown #
vertex $-1 $241 $409 #
ellipse-curve $-1 51.664278821858069 8.3474335031915246 0.7690980373341858 0.55919291073839883 0 0.82903756765294845 1.2435563514794228 0 -0.83878936610759824 1 I I #
point $-1 55.440816763850712 8.3474335031915246 3.6856082402713244 #
plane-surface $-1 57.366252632221446 0 0 -1 0 0 0 0 1 forward_v I I I I #
coedge $-1 $249 $247 $251 $355 reversed $161 $-1 #
edge $-1 $262 -6.6619098888949049 $357 6.6619098888949049 $261 $410 forward 7 unknown #
vertex $-1 $355 $411 #
straight-curve $-1 -57.366252632221446 -24.655040923605611 0 0 0 -1 I I #
edge $-1 $353 -24.655040923605611 $357 24.655040923605611 $351 $412 forward 7 unknown #
straight-curve $-1 0 -24.655040923605611 -6.6619098888949049 -1 0 0 I I #
vertex $-1 $254 $413 #
straight-curve $-1 0 24.655040923605611 -6.6619098888949049 1 0 0 I I #
point $-1 57.366252632221446 24.655040923605611 -6.6619098888949049 #
point $-1 57.366252632221446 -24.655040923605611 -6.6619098888949049 #
straight-curve $-1 -57.366252632221446 0 6.6619098888949049 0 -1 0 I I #
point $-1 -57.366252632221446 24.655040923605611 6.6619098888949049 #
point $-1 -57.366252632221446 -24.655040923605611 6.6619098888949049 #
straight-curve $-1 57.366252632221446 -24.655040923605611 0 0 0 -1 I I #
straight-curve $-1 57.366252632221446 24.655040923605611 0 0 0 -1 I I #
plane-surface $-1 -57.366252632221446 0 0 1 0 0 0 0 -1 forward_v I I I I #
edge $-1 $283 7.1239004441995935 $287 10.219156297055022 $286 $414 forward 7 unknown #
edge $-1 $291 -10.219156297055022 $282 -7.1239004441995935 $289 $415 forward 7 unknown #
straight-curve $-1 -50.740434611470604 -18.890684667682329 0 0 0 -1 I I #
edge $-1 $373 -6.6619098888949049 $371 6.6619098888949049 $293 $416 forward 7 unknown #
vertex $-1 $370 $417 #
straight-curve $-1 -27.026671810923013 -15.7954288148269 -6.6619098888949049 1 0 0 I I #
vertex $-1 $294 $418 #
straight-curve $-1 -27.026671810923013 -15.7954288148269 6.6619098888949049 -1 0 0 I I #
point $-1 -50.740434611470604 -15.7954288148269 6.6619098888949049 #
point $-1 -50.740434611470604 -15.7954288148269 -6.6619098888949049 #
point $-1 -50.740434611470604 -18.890684667682329 -6.6619098888949049 #
point $-1 -50.740434611470604 -18.890684667682329 6.6619098888949049 #
straight-curve $-1 -57.366252632221446 0 6.6619098888949049 0 -1 0 I I #
straight-curve $-1 -57.366252632221446 0 -6.6619098888949049 0 1 0 I I #
coedge $-1 $382 $300 $308 $387 forward $199 $-1 #
coedge $-1 $301 $381 $303 $384 forward $199 $-1 #
straight-curve $-1 13.203149556095546 -12.968634019137482 6.6619098888949111 -1 0 0 I I #
edge $-1 $390 -24.655040923605611 $304 -12.968634019137482 $303 $419 forward 7 unknown #
point $-1 57.366252632221446 -12.968634019137482 6.6619098888949049 #
straight-curve $-1 51.028268192521139 -9.4059187356857734 6.6619098888948969 0 -1 0 I I #
edge $-1 $309 51.028268192521111 $390 57.366252632221446 $308 $420 forward 7 unknown #
point $-1 51.028268192521111 -24.655040923605611 6.661909888894904 #
point $-1 51.028268192521111 -12.968634019137482 6.661909888894904 #
vertex $-1 $384 $421 #
straight-curve $-1 57.366252632221446 -24.655040923605611 0 0 0 -1 I I #
vertex $-1 $316 $422 #
point $-1 52.907835173337489 -21.316067522329003 -0.069691328773412442 #
vertex $-1 $320 $423 #
point $-1 52.907835173337489 -16.30760742041409 -0.069691328773412442 #
coedge $-1 $335 $334 $327 $397 forward $324 $-1 #
edge $-1 $398 -44.1631030761259 $401 -37.825118636425564 $396 $424 forward 7 unknown #
vertex $-1 $397 $425 #
straight-curve $-1 57.366252632221446 11.686406904468129 80.831022997079131 0 0 1 I I #
edge $-1 $401 -8.7648051783510965 $336 2.9216017261170331 $335 $426 forward 7 unknown #
vertex $-1 $400 $427 #
straight-curve $-1 -37.751304462941391 11.686406904468129 66.544488898995425 0.82903756765294845 0 -0.55919291073839883 I I #
point $-1 57.366252632221446 11.686406904468129 2.3868853238629413 #
point $-1 51.028268192521111 -8.8817841970012523e-016 6.661909888894904 #
straight-curve $-1 57.366252632221446 0 6.6619098888949049 0 1 0 I I #
vertex $-1 $342 $428 #
point $-1 52.907835173337489 3.3389734012766077 -0.069691328773412442 #
vertex $-1 $346 $429 #
point $-1 52.907835173337489 8.3474335031915246 -0.069691328773412442 #
straight-curve $-1 -57.366252632221446 24.655040923605611 0 0 0 -1 I I #
point $-1 -57.366252632221446 -24.655040923605611 -6.6619098888949049 #
straight-curve $-1 -57.366252632221446 0 -6.6619098888949049 0 1 0 I I #
point $-1 -57.366252632221446 24.655040923605611 -6.6619098888949049 #
straight-curve $-1 -50.740434611470604 -8.671528370627307 -6.6619098888949049 0 -1 0 I I #
straight-curve $-1 -50.740434611470604 -8.671528370627307 6.6619098888949049 0 1 0 I I #
straight-curve $-1 -57.366252632221446 -15.7954288148269 0 0 0 -1 I I #
point $-1 -57.366252632221446 -15.7954288148269 -6.6619098888949049 #
point $-1 -57.366252632221446 -15.7954288148269 6.6619098888949049 #
straight-curve $-1 57.366252632221446 0 6.6619098888949049 0 1 0 I I #
straight-curve $-1 0 -24.655040923605611 6.6619098888949049 1 0 0 I I #
point $-1 57.366252632221446 -24.655040923605611 6.6619098888949049 #
point $-1 50.825489455750464 -21.316067522329003 -0.47445831414523698 #
point $-1 50.825489455750464 -16.30760742041409 -0.47445831414523698 #
straight-curve $-1 13.203149556095546 11.686406904468129 6.6619098888949111 -1 0 0 I I #
point $-1 57.366252632221446 11.686406904468129 6.6619098888949049 #
straight-curve $-1 51.028268192521139 2.9216017261170322 6.6619098888948969 0 -1 0 I I #
point $-1 51.028268192521111 11.686406904468129 6.661909888894904 #
point $-1 50.825489455750464 3.3389734012766077 -0.47445831414523698 #
point $-1 50.825489455750464 8.3474335031915246 -0.47445831414523698 #
End-of-ACIS-data 