500 0 7 0           
7 Unknown 11 ACIS 5.0 NT 24 Fri Mar 26 20:43:43 1999 
-1 9.9999999999999995e-007 1e-010 
body $-1 $7 $-1 $8 #
body $-1 $9 $-1 $10 #
body $-1 $11 $-1 $12 #
body $-1 $13 $-1 $14 #
body $-1 $15 $-1 $16 #
body $-1 $17 $-1 $18 #
body $-1 $19 $-1 $20 #
lump $-1 $-1 $21 $0 #
transform $-1 1 0 0 0 1 0 0 0 1 57.615283669545576 36.647695145291593 16.252956971399975 1 rotate no_reflect no_shear #
lump $-1 $-1 $22 $1 #
transform $-1 1 0 0 0 1 0 0 0 1 57.615283669545576 36.647695145291593 16.252956971399975 1 rotate no_reflect no_shear #
lump $-1 $-1 $23 $2 #
transform $-1 1 0 0 0 1 0 0 0 1 57.615283669545576 36.647695145291593 16.252956971399975 1 rotate no_reflect no_shear #
lump $-1 $-1 $24 $3 #
transform $-1 1 0 0 0 1 0 0 0 1 57.615283669545576 36.647695145291593 16.252956971399975 1 rotate no_reflect no_shear #
lump $-1 $-1 $25 $4 #
transform $-1 1 0 0 0 1 0 0 0 1 57.615283669545576 36.647695145291593 16.252956971399975 1 rotate no_reflect no_shear #
lump $-1 $-1 $26 $5 #
transform $-1 1 0 0 0 1 0 0 0 1 57.615283669545576 36.647695145291593 16.252956971399975 1 rotate no_reflect no_shear #
lump $-1 $-1 $27 $6 #
transform $-1 1 0 0 0 1 0 0 0 1 57.615283669545576 36.647695145291593 16.252956971399975 1 rotate no_reflect no_shear #
shell $-1 $-1 $-1 $28 $-1 $7 #
shell $-1 $-1 $-1 $29 $-1 $9 #
shell $-1 $-1 $-1 $30 $-1 $11 #
shell $-1 $-1 $-1 $31 $-1 $13 #
shell $-1 $-1 $-1 $32 $-1 $15 #
shell $-1 $-1 $-1 $33 $-1 $17 #
shell $-1 $-1 $-1 $34 $-1 $19 #
face $-1 $35 $36 $21 $-1 $37 forward single #
face $-1 $38 $39 $22 $-1 $40 forward single #
face $-1 $41 $42 $23 $-1 $43 reversed single #
face $-1 $44 $45 $24 $-1 $46 forward single #
face $-1 $47 $48 $25 $-1 $49 forward single #
face $-1 $50 $51 $26 $-1 $52 reversed single #
face $-1 $53 $54 $27 $-1 $55 forward single #
face $-1 $56 $57 $21 $-1 $58 reversed single #
loop $-1 $-1 $59 $28 #
plane-surface $-1 0 0 16.252956971399975 0 0 1 1 0 0 forward_v I I I I #
face $-1 $60 $61 $22 $-1 $62 reversed single #
loop $-1 $-1 $63 $29 #
plane-surface $-1 -47.674348816805598 0 14.425101862705723 0 0 1 1 0 0 forward_v I I I I #
face $-1 $64 $65 $23 $-1 $66 reversed single #
loop $-1 $-1 $67 $30 #
plane-surface $-1 29.708858745992941 -97.71059341306507 101.00851763355581 1 0 0 0 0.52991927123019833 -0.84804809178421925 forward_v I I I I #
face $-1 $68 $69 $24 $-1 $70 forward single #
loop $-1 $71 $72 $31 #
cone-surface $-1 32.638130499128735 -25.468655891093618 8.4827862611478864 0 0.52991927123019833 -0.84804809178421925 1 0 0 1 I I 0 1 1 forward I I I I #
face $-1 $73 $74 $25 $-1 $75 forward single #
loop $-1 $76 $77 $32 #
cone-surface $-1 37.032038128832426 -25.468655891093618 8.4827862611478864 0 0.52991927123019833 -0.84804809178421925 1 0 0 1 I I 0 1 1 forward I I I I #
face $-1 $78 $79 $26 $-1 $80 reversed single #
loop $-1 $-1 $81 $33 #
plane-surface $-1 41.508113467472512 45.081308151270491 143.07489191428212 1 0 0 0 -0.5877852598018023 -0.80901698891910034 forward_v I I I I #
face $-1 $82 $83 $27 $-1 $84 forward single #
loop $-1 $85 $86 $34 #
cone-surface $-1 49.561698568509044 28.41140732774257 9.1578300919611326 0 -0.5877852598018023 -0.80901698891910034 2 0 0 1 I I 0 1 2 forward I I I I #
face $-1 $87 $88 $21 $-1 $89 reversed single #
loop $-1 $-1 $90 $35 #
plane-surface $-1 0 0 -16.252956971399975 0 0 1 1 0 0 forward_v I I I I #
coedge $-1 $91 $92 $93 $94 forward $36 $-1 #
face $-1 $95 $96 $22 $-1 $97 reversed single #
loop $-1 $-1 $98 $38 #
plane-surface $-1 -47.674348816805598 0 10.291205137615187 0 0 1 1 0 0 forward_v I I I I #
coedge $-1 $99 $100 $101 $102 forward $39 $-1 #
face $-1 $103 $104 $23 $-1 $105 reversed single #
loop $-1 $-1 $106 $41 #
plane-surface $-1 34.835084313980587 -36.647695145291593 3.2874548864265876 0 -0.52991927123019833 0.84804809178421925 1 0 0 forward_v I I I I #
coedge $-1 $107 $108 $109 $110 reversed $42 $-1 #
face $-1 $-1 $111 $24 $-1 $112 forward single #
loop $-1 $113 $114 $44 #
cone-surface $-1 32.638130499128735 -24.399227147276996 6.771342547490395 0 0.52991927123019833 -0.84804809178421925 0.5 0 0 1 I I -0.70710678118654746 0.70710678118654746 0.5 forward I I I I #
loop $-1 $-1 $115 $31 #
coedge $-1 $72 $72 $116 $117 reversed $45 $-1 #
face $-1 $-1 $118 $25 $-1 $119 forward single #
loop $-1 $120 $121 $47 #
cone-surface $-1 37.032038128832426 -24.399227147276996 6.771342547490395 0 0.52991927123019833 -0.84804809178421925 0.5 0 0 1 I I -0.70710678118654746 0.70710678118654746 0.5 forward I I I I #
loop $-1 $-1 $122 $32 #
coedge $-1 $77 $77 $123 $124 reversed $48 $-1 #
face $-1 $125 $126 $26 $-1 $127 forward single #
loop $-1 $-1 $128 $50 #
plane-surface $-1 49.561698568509044 -22.649520809246269 49.851405294170974 0 0.5877852598018023 0.80901698891910034 1 0 0 forward_v I I I I #
coedge $-1 $129 $130 $131 $132 reversed $51 $-1 #
face $-1 $-1 $133 $27 $-1 $134 forward single #
loop $-1 $135 $136 $53 #
cone-surface $-1 49.561698568509044 26.113794265318361 5.9954370743301624 0 -0.5877852598018023 -0.80901698891910034 1 0 0 1 I I -0.70710678118654724 0.70710678118654791 1 forward I I I I #
loop $-1 $-1 $137 $34 #
coedge $-1 $86 $86 $138 $139 reversed $54 $-1 #
face $-1 $140 $141 $21 $-1 $142 reversed single #
loop $-1 $-1 $143 $56 #
plane-surface $-1 0 -36.647695145291593 0 0 1 0 0 0 1 forward_v I I I I #
coedge $-1 $144 $145 $146 $147 forward $57 $-1 #
coedge $-1 $148 $59 $149 $150 forward $36 $-1 #
coedge $-1 $59 $148 $151 $152 forward $36 $-1 #
coedge $-1 $153 $154 $59 $94 reversed $155 $-1 #
edge $-1 $156 -36.647695145291593 $157 36.647695145291593 $93 $158 forward 7 unknown #
face $-1 $159 $160 $22 $-1 $161 reversed single #
loop $-1 $-1 $162 $60 #
plane-surface $-1 -37.733413964065619 0 12.358153500160455 -1 0 0 0 0 1 forward_v I I I I #
coedge $-1 $163 $164 $165 $166 forward $61 $-1 #
coedge $-1 $167 $63 $168 $169 reversed $39 $-1 #
coedge $-1 $63 $167 $170 $171 reversed $39 $-1 #
coedge $-1 $162 $172 $63 $102 reversed $96 $-1 #
edge $-1 $173 -36.647695145291593 $174 36.647695145291593 $101 $175 forward 7 unknown #
face $-1 $176 $177 $23 $-1 $178 forward single #
loop $-1 $-1 $179 $64 #
plane-surface $-1 39.961309881968234 -97.71059341306507 101.00851763355581 -1 0 0 0 -0.52991927123019833 0.84804809178421925 forward_v I I I I #
coedge $-1 $180 $181 $182 $183 reversed $65 $-1 #
coedge $-1 $108 $67 $184 $185 reversed $42 $-1 #
coedge $-1 $67 $107 $180 $186 reversed $42 $-1 #
coedge $-1 $182 $187 $67 $110 forward $188 $-1 #
edge $-1 $189 34.251301845377931 $190 47.216803930351318 $109 $191 forward 7 unknown #
loop $-1 $-1 $116 $68 #
plane-surface $-1 34.835084313980587 -36.647695145291593 3.2874548864265876 0 -0.52991927123019833 0.84804809178421925 1 0 0 forward_v I I I I #
loop $-1 $-1 $192 $44 #
coedge $-1 $114 $114 $115 $193 reversed $69 $-1 #
coedge $-1 $115 $115 $114 $193 forward $71 $-1 #
coedge $-1 $116 $116 $72 $117 forward $111 $-1 #
edge $-1 $194 -3.7464104991021645e-016 $194 6.2831853071796004 $116 $195 forward 7 unknown #
loop $-1 $-1 $123 $73 #
plane-surface $-1 34.835084313980587 -36.647695145291593 3.2874548864265876 0 -0.52991927123019833 0.84804809178421925 1 0 0 forward_v I I I I #
loop $-1 $-1 $196 $47 #
coedge $-1 $121 $121 $122 $197 reversed $74 $-1 #
coedge $-1 $122 $122 $121 $197 forward $76 $-1 #
coedge $-1 $123 $123 $77 $124 forward $118 $-1 #
edge $-1 $198 -3.7464104991021645e-016 $198 6.2831853071796004 $123 $199 forward 7 unknown #
face $-1 $200 $201 $26 $-1 $202 reversed single #
loop $-1 $-1 $131 $78 #
plane-surface $-1 0 0 16.252956971399975 0 0 1 1 0 0 forward_v I I I I #
coedge $-1 $203 $204 $205 $206 reversed $79 $-1 #
coedge $-1 $130 $81 $207 $208 reversed $51 $-1 #
coedge $-1 $81 $129 $203 $209 reversed $51 $-1 #
coedge $-1 $205 $210 $81 $132 forward $126 $-1 #
edge $-1 $211 -14.107041069656347 $212 -1.0541210398031282 $131 $213 forward 7 unknown #
loop $-1 $-1 $138 $82 #
plane-surface $-1 49.561698568509044 -22.649520809246269 49.851405294170974 0 0.5877852598018023 0.80901698891910034 1 0 0 forward_v I I I I #
loop $-1 $-1 $214 $53 #
coedge $-1 $136 $136 $137 $215 reversed $83 $-1 #
coedge $-1 $137 $137 $136 $215 forward $85 $-1 #
coedge $-1 $138 $138 $86 $139 forward $133 $-1 #
edge $-1 $216 2.5814337612787292e-016 $216 6.2831853071796004 $138 $217 forward 7 unknown #
face $-1 $218 $219 $21 $-1 $220 reversed single #
loop $-1 $-1 $221 $87 #
plane-surface $-1 -57.615283669545576 0 0 1 0 0 0 0 -1 forward_v I I I I #
coedge $-1 $222 $151 $223 $224 forward $88 $-1 #
coedge $-1 $225 $90 $222 $226 forward $57 $-1 #
coedge $-1 $90 $225 $227 $228 forward $57 $-1 #
coedge $-1 $154 $153 $90 $147 reversed $155 $-1 #
edge $-1 $229 -36.647695145291593 $230 36.647695145291593 $146 $231 forward 7 unknown #
coedge $-1 $92 $91 $232 $233 forward $36 $-1 #
coedge $-1 $234 $235 $91 $150 reversed $219 $-1 #
edge $-1 $157 -57.615283669545576 $236 57.615283669545576 $149 $237 forward 7 unknown #
coedge $-1 $143 $238 $92 $152 reversed $88 $-1 #
edge $-1 $239 -57.615283669545576 $156 57.615283669545576 $151 $240 forward 7 unknown #
coedge $-1 $146 $93 $238 $241 forward $155 $-1 #
coedge $-1 $93 $146 $234 $242 reversed $155 $-1 #
loop $-1 $-1 $153 $218 #
vertex $-1 $94 $243 #
vertex $-1 $94 $244 #
straight-curve $-1 57.615283669545576 0 16.252956971399975 0 1 0 I I #
face $-1 $245 $246 $22 $-1 $247 reversed single #
loop $-1 $-1 $248 $95 #
plane-surface $-1 0 -36.647695145291593 0 0 1 0 0 0 1 forward_v I I I I #
coedge $-1 $165 $101 $249 $250 reversed $96 $-1 #
coedge $-1 $251 $98 $248 $252 reversed $61 $-1 #
coedge $-1 $98 $251 $253 $254 reversed $61 $-1 #
coedge $-1 $172 $162 $98 $166 reversed $96 $-1 #
edge $-1 $255 -36.647695145291593 $256 36.647695145291593 $165 $257 forward 7 unknown #
coedge $-1 $100 $99 $258 $259 reversed $39 $-1 #
coedge $-1 $260 $261 $99 $169 forward $262 $-1 #
edge $-1 $263 -33.778109261142774 $174 -13.89623955566282 $168 $264 forward 7 unknown #
coedge $-1 $265 $249 $100 $171 forward $160 $-1 #
edge $-1 $173 13.89623955566282 $266 33.778109261142774 $170 $267 forward 7 unknown #
coedge $-1 $101 $165 $260 $268 reversed $96 $-1 #
vertex $-1 $171 $269 #
vertex $-1 $169 $270 #
straight-curve $-1 -37.733413964065619 0 14.425101862705723 0 1 0 I I #
face $-1 $-1 $188 $23 $-1 $271 reversed single #
loop $-1 $-1 $272 $103 #
plane-surface $-1 0 0 16.252956971399975 0 0 1 1 0 0 forward_v I I I I #
coedge $-1 $273 $274 $275 $276 reversed $104 $-1 #
coedge $-1 $277 $106 $108 $186 forward $65 $-1 #
coedge $-1 $106 $277 $273 $278 forward $65 $-1 #
coedge $-1 $275 $109 $106 $183 forward $188 $-1 #
edge $-1 $190 12.291316589002648 $279 22.54376772497794 $182 $280 forward 7 unknown #
coedge $-1 $281 $282 $107 $185 forward $177 $-1 #
edge $-1 $283 -32.956741853233794 $189 -12.207601561240942 $184 $284 forward 7 unknown #
edge $-1 $190 0 $283 24.466938246790313 $108 $285 forward 7 unknown #
coedge $-1 $109 $275 $281 $286 reversed $188 $-1 #
loop $-1 $-1 $275 $176 #
vertex $-1 $286 $287 #
vertex $-1 $110 $288 #
straight-curve $-1 29.708858745992941 -36.647695145291593 50.504258816777906 0 0 -1 I I #
coedge $-1 $192 $192 $-1 $289 reversed $113 $-1 #
edge $-1 $290 0 $290 6.2831853071796004 $114 $291 forward 7 unknown #
vertex $-1 $117 $292 #
ellipse-curve $-1 32.638130499128735 -26.273124999295156 9.7702059289132883 0 -0.52991927123019833 0.84804809178421925 1 0 0 1 I I #
coedge $-1 $196 $196 $-1 $293 reversed $120 $-1 #
edge $-1 $294 0 $294 6.2831853071796004 $121 $295 forward 7 unknown #
vertex $-1 $124 $296 #
ellipse-curve $-1 37.032038128832426 -26.273124999295156 9.7702059289132883 0 -0.52991927123019833 0.84804809178421925 1 0 0 1 I I #
face $-1 $-1 $297 $26 $-1 $298 reversed single #
loop $-1 $-1 $299 $125 #
plane-surface $-1 57.615283669545576 0 0 -1 0 0 0 0 1 forward_v I I I I #
coedge $-1 $300 $128 $130 $209 forward $79 $-1 #
coedge $-1 $128 $300 $299 $301 reversed $79 $-1 #
coedge $-1 $302 $131 $128 $206 forward $126 $-1 #
edge $-1 $212 16.72726418321799 $303 32.834434385291054 $205 $304 forward 7 unknown #
coedge $-1 $305 $306 $129 $208 forward $297 $-1 #
edge $-1 $307 -64.76799068719501 $211 -55.284488985741085 $207 $308 forward 7 unknown #
edge $-1 $212 57.161093720009575 $307 73.295390290583157 $130 $309 forward 7 unknown #
coedge $-1 $131 $302 $305 $310 forward $126 $-1 #
vertex $-1 $208 $311 #
vertex $-1 $132 $312 #
straight-curve $-1 41.508113467472512 22.540654075635246 16.252956971399975 0 -1 0 I I #
coedge $-1 $214 $214 $-1 $313 reversed $135 $-1 #
edge $-1 $314 0 $314 6.2831853071796004 $136 $315 forward 7 unknown #
vertex $-1 $139 $316 #
ellipse-curve $-1 49.561698568509044 30.121235130364983 11.511206120673014 0 0.5877852598018023 0.80901698891910034 2 0 0 1 I I #
face $-1 $-1 $155 $21 $-1 $317 reversed single #
loop $-1 $-1 $234 $140 #
plane-surface $-1 0 36.647695145291593 0 0 -1 0 0 0 -1 forward_v I I I I #
coedge $-1 $318 $232 $235 $319 forward $141 $-1 #
coedge $-1 $238 $143 $144 $226 reversed $88 $-1 #
coedge $-1 $232 $318 $143 $224 reversed $141 $-1 #
edge $-1 $239 -16.252956971399975 $320 16.252956971399975 $223 $321 forward 7 unknown #
coedge $-1 $145 $144 $318 $322 forward $57 $-1 #
edge $-1 $230 -57.615283669545576 $320 57.615283669545576 $222 $323 forward 7 unknown #
coedge $-1 $235 $234 $145 $228 reversed $219 $-1 #
edge $-1 $324 -57.615283669545576 $229 57.615283669545576 $227 $325 forward 7 unknown #
vertex $-1 $147 $326 #
vertex $-1 $241 $327 #
straight-curve $-1 57.615283669545576 0 -16.252956971399975 0 -1 0 I I #
coedge $-1 $221 $223 $148 $233 reversed $141 $-1 #
edge $-1 $236 -36.647695145291593 $239 36.647695145291593 $232 $328 forward 7 unknown #
coedge $-1 $227 $149 $154 $242 forward $219 $-1 #
coedge $-1 $149 $227 $221 $319 reversed $219 $-1 #
vertex $-1 $150 $329 #
straight-curve $-1 0 36.647695145291593 16.252956971399975 -1 0 0 I I #
coedge $-1 $151 $222 $153 $241 reversed $88 $-1 #
vertex $-1 $233 $330 #
straight-curve $-1 0 -36.647695145291593 16.252956971399975 1 0 0 I I #
edge $-1 $156 -16.252956971399975 $230 16.252956971399975 $153 $331 forward 7 unknown #
edge $-1 $157 -16.252956971399975 $229 16.252956971399975 $154 $332 forward 7 unknown #
point $-1 57.615283669545576 -36.647695145291593 16.252956971399975 #
point $-1 57.615283669545576 36.647695145291593 16.252956971399975 #
face $-1 $-1 $262 $22 $-1 $333 reversed single #
loop $-1 $-1 $334 $159 #
plane-surface $-1 -57.615283669545576 0 0 1 0 0 0 0 -1 forward_v I I I I #
coedge $-1 $249 $265 $163 $252 forward $160 $-1 #
coedge $-1 $170 $248 $162 $250 forward $160 $-1 #
edge $-1 $256 4.112128387534959 $173 8.246025112625496 $249 $335 forward 7 unknown #
coedge $-1 $164 $163 $334 $336 reversed $61 $-1 #
edge $-1 $337 -33.778109261142774 $256 -13.89623955566282 $248 $338 forward 7 unknown #
coedge $-1 $261 $260 $164 $254 forward $262 $-1 #
edge $-1 $255 13.89623955566282 $339 33.778109261142774 $253 $340 forward 7 unknown #
vertex $-1 $254 $341 #
vertex $-1 $252 $342 #
straight-curve $-1 -37.733413964065619 0 10.291205137615187 0 -1 0 I I #
coedge $-1 $343 $344 $167 $259 forward $246 $-1 #
edge $-1 $266 -36.647695145291593 $263 36.647695145291593 $258 $345 forward 7 unknown #
coedge $-1 $253 $168 $172 $268 forward $262 $-1 #
coedge $-1 $168 $253 $343 $346 reversed $262 $-1 #
loop $-1 $-1 $253 $245 #
vertex $-1 $346 $347 #
straight-curve $-1 -23.837174408402799 36.647695145291593 14.425101862705723 1 0 0 I I #
coedge $-1 $248 $170 $344 $348 forward $160 $-1 #
vertex $-1 $348 $349 #
straight-curve $-1 -23.837174408402799 -36.647695145291593 14.425101862705723 -1 0 0 I I #
edge $-1 $174 -8.246025112625496 $255 -4.112128387534959 $260 $350 forward 7 unknown #
point $-1 -37.733413964065619 -36.647695145291593 14.425101862705723 #
point $-1 -37.733413964065619 36.647695145291593 14.425101862705723 #
plane-surface $-1 0 -36.647695145291593 0 0 1 0 0 0 1 forward_v I I I I #
coedge $-1 $282 $281 $274 $351 forward $177 $-1 #
coedge $-1 $274 $179 $181 $278 reversed $104 $-1 #
coedge $-1 $179 $273 $272 $351 reversed $104 $-1 #
coedge $-1 $187 $182 $179 $276 forward $188 $-1 #
edge $-1 $279 -47.216803930351318 $352 -34.251301845377931 $275 $353 forward 7 unknown #
coedge $-1 $181 $180 $282 $354 reversed $65 $-1 #
edge $-1 $355 -24.466938246790313 $279 0 $273 $356 forward 7 unknown #
vertex $-1 $183 $357 #
straight-curve $-1 17.417542156990294 -36.647695145291593 3.2874548864265889 1 0 0 I I #
coedge $-1 $272 $184 $187 $286 forward $177 $-1 #
coedge $-1 $184 $272 $277 $354 forward $177 $-1 #
vertex $-1 $185 $358 #
straight-curve $-1 29.708858745992941 -48.855296706532535 16.252956971399975 0 -1 0 I I #
straight-curve $-1 29.708858745992941 -36.647695145291593 3.2874548864265876 0 0.84804809178421925 0.52991927123019833 I I #
edge $-1 $189 29.708858745992941 $352 39.961309881968234 $187 $359 forward 7 unknown #
point $-1 29.708858745992941 -36.647695145291593 16.252956971399975 #
point $-1 29.708858745992941 -36.647695145291593 3.2874548864265876 #
edge $-1 $360 1 $360 0 $192 $-1 forward 7 unknown #
vertex $-1 $193 $361 #
ellipse-curve $-1 32.638130499128735 -24.664186782892095 7.1953665933825048 0 -0.52991927123019833 0.84804809178421925 1 0 0 1 I I #
point $-1 33.638130499128735 -26.273124999295145 9.7702059289132706 #
edge $-1 $362 1 $362 0 $196 $-1 forward 7 unknown #
vertex $-1 $197 $363 #
ellipse-curve $-1 37.032038128832426 -24.664186782892095 7.1953665933825048 0 -0.52991927123019833 0.84804809178421925 1 0 0 1 I I #
point $-1 38.032038128832426 -26.273124999295145 9.7702059289132706 #
loop $-1 $-1 $207 $200 #
plane-surface $-1 0 36.647695145291593 0 0 -1 0 0 0 -1 forward_v I I I I #
coedge $-1 $364 $365 $204 $301 forward $201 $-1 #
coedge $-1 $204 $203 $306 $366 reversed $79 $-1 #
edge $-1 $303 33.348209551071498 $367 49.482506121645095 $299 $368 forward 7 unknown #
coedge $-1 $210 $205 $365 $369 forward $126 $-1 #
vertex $-1 $369 $370 #
straight-curve $-1 24.780849284254522 23.594775115438384 16.252956971399975 1 0 0 I I #
coedge $-1 $371 $207 $210 $310 reversed $297 $-1 #
coedge $-1 $207 $371 $300 $366 forward $297 $-1 #
vertex $-1 $208 $372 #
straight-curve $-1 41.508113467472512 36.647695145291593 71.53744595714106 0 0 1 I I #
straight-curve $-1 41.508113467472512 -22.649520809246269 49.851405294170974 0 0.80901698891910034 -0.5877852598018023 I I #
edge $-1 $373 -57.615283669545576 $211 -41.508113467472512 $305 $374 forward 7 unknown #
point $-1 41.508113467472512 36.647695145291593 16.252956971399975 #
point $-1 41.508113467472512 23.594775115438374 16.252956971399975 #
edge $-1 $375 1 $375 0 $214 $-1 forward 7 unknown #
vertex $-1 $215 $376 #
ellipse-curve $-1 49.561698568509044 26.701579525120163 6.8044540632492634 0 0.5877852598018023 0.80901698891910034 2 0 0 1 I I #
point $-1 51.561698568509044 30.121235130364976 11.511206120673004 #
plane-surface $-1 57.615283669545576 0 0 -1 0 0 0 0 1 forward_v I I I I #
coedge $-1 $223 $221 $225 $322 reversed $141 $-1 #
edge $-1 $236 -16.252956971399975 $324 16.252956971399975 $235 $377 forward 7 unknown #
vertex $-1 $322 $378 #
straight-curve $-1 -57.615283669545576 -36.647695145291593 0 0 0 -1 I I #
edge $-1 $320 -36.647695145291593 $324 36.647695145291593 $318 $379 forward 7 unknown #
straight-curve $-1 0 -36.647695145291593 -16.252956971399975 -1 0 0 I I #
vertex $-1 $228 $380 #
straight-curve $-1 0 36.647695145291593 -16.252956971399975 1 0 0 I I #
point $-1 57.615283669545576 36.647695145291593 -16.252956971399975 #
point $-1 57.615283669545576 -36.647695145291593 -16.252956971399975 #
straight-curve $-1 -57.615283669545576 0 16.252956971399975 0 -1 0 I I #
point $-1 -57.615283669545576 36.647695145291593 16.252956971399975 #
point $-1 -57.615283669545576 -36.647695145291593 16.252956971399975 #
straight-curve $-1 57.615283669545576 -36.647695145291593 0 0 0 -1 I I #
straight-curve $-1 57.615283669545576 36.647695145291593 0 0 0 -1 I I #
plane-surface $-1 0 36.647695145291593 0 0 -1 0 0 0 -1 forward_v I I I I #
coedge $-1 $344 $343 $251 $336 forward $246 $-1 #
straight-curve $-1 -37.733413964065619 -36.647695145291593 6.1790767500802275 0 0 1 I I #
edge $-1 $339 -36.647695145291593 $337 36.647695145291593 $334 $381 forward 7 unknown #
vertex $-1 $252 $382 #
straight-curve $-1 -23.837174408402799 -36.647695145291593 10.291205137615187 1 0 0 I I #
vertex $-1 $254 $383 #
straight-curve $-1 -23.837174408402799 36.647695145291593 10.291205137615187 -1 0 0 I I #
point $-1 -37.733413964065619 36.647695145291593 10.291205137615187 #
point $-1 -37.733413964065619 -36.647695145291593 10.291205137615187 #
coedge $-1 $334 $258 $261 $346 forward $246 $-1 #
coedge $-1 $258 $334 $265 $348 reversed $246 $-1 #
straight-curve $-1 -57.615283669545576 0 14.425101862705723 0 1 0 I I #
edge $-1 $263 -14.425101862705723 $339 -10.291205137615187 $261 $384 forward 7 unknown #
point $-1 -57.615283669545576 36.647695145291593 14.425101862705723 #
edge $-1 $266 -14.425101862705723 $337 -10.291205137615187 $344 $385 forward 7 unknown #
point $-1 -57.615283669545576 -36.647695145291593 14.425101862705723 #
straight-curve $-1 -37.733413964065619 36.647695145291593 6.1790767500802275 0 0 -1 I I #
edge $-1 $352 12.207601561240942 $355 32.956741853233794 $272 $386 forward 7 unknown #
vertex $-1 $351 $387 #
straight-curve $-1 39.961309881968234 -36.647695145291593 50.504258816777906 0 0 1 I I #
edge $-1 $355 -22.54376772497794 $283 -12.291316589002648 $282 $388 forward 7 unknown #
vertex $-1 $354 $389 #
straight-curve $-1 39.961309881968234 -36.647695145291593 3.2874548864265876 0 -0.84804809178421925 -0.52991927123019833 I I #
point $-1 39.961309881968234 -36.647695145291593 3.2874548864265876 #
point $-1 29.708858745992941 -15.898554853298741 16.252956971399975 #
straight-curve $-1 0 -36.647695145291593 16.252956971399975 1 0 0 I I #
vertex $-1 $289 $390 #
point $-1 33.638130499128735 -24.664186782892095 7.1953665933825048 #
vertex $-1 $293 $391 #
point $-1 38.032038128832426 -24.664186782892095 7.1953665933825048 #
coedge $-1 $365 $299 $371 $392 reversed $201 $-1 #
coedge $-1 $299 $364 $302 $369 reversed $201 $-1 #
edge $-1 $367 -32.834434385291054 $307 -16.72726418321799 $306 $393 forward 7 unknown #
vertex $-1 $301 $394 #
straight-curve $-1 57.615283669545576 -3.3844929614126729 35.854542986301482 0 0.80901698891910034 -0.5877852598018023 I I #
edge $-1 $303 23.594775115438374 $373 36.647695145291593 $365 $395 forward 7 unknown #
point $-1 57.615283669545576 23.594775115438374 16.252956971399975 #
coedge $-1 $306 $305 $364 $392 forward $297 $-1 #
point $-1 41.508113467472512 36.647695145291593 6.7694552699460502 #
vertex $-1 $369 $396 #
straight-curve $-1 0 36.647695145291593 16.252956971399975 -1 0 0 I I #
vertex $-1 $313 $397 #
point $-1 51.561698568509044 26.701579525120163 6.8044540632492634 #
straight-curve $-1 -57.615283669545576 36.647695145291593 0 0 0 -1 I I #
point $-1 -57.615283669545576 -36.647695145291593 -16.252956971399975 #
straight-curve $-1 -57.615283669545576 0 -16.252956971399975 0 1 0 I I #
point $-1 -57.615283669545576 36.647695145291593 -16.252956971399975 #
straight-curve $-1 -57.615283669545576 0 10.291205137615187 0 -1 0 I I #
point $-1 -57.615283669545576 -36.647695145291593 10.291205137615187 #
point $-1 -57.615283669545576 36.647695145291593 10.291205137615187 #
straight-curve $-1 -57.615283669545576 36.647695145291593 0 0 0 -1 I I #
straight-curve $-1 -57.615283669545576 -36.647695145291593 0 0 0 -1 I I #
straight-curve $-1 39.961309881968234 -48.855296706532535 16.252956971399975 0 1 0 I I #
point $-1 39.961309881968234 -36.647695145291593 16.252956971399975 #
straight-curve $-1 17.417542156990294 -15.898554853298739 16.252956971399975 -1 0 0 I I #
point $-1 39.961309881968234 -15.898554853298741 16.252956971399975 #
point $-1 32.638130499128735 -24.134267511661896 6.3473185015982851 #
point $-1 37.032038128832426 -24.134267511661896 6.3473185015982851 #
edge $-1 $373 -16.252956971399975 $367 -6.7694552699460502 $364 $398 forward 7 unknown #
straight-curve $-1 24.780849284254522 36.647695145291593 6.7694552699460466 -1 0 0 I I #
point $-1 57.615283669545576 36.647695145291593 6.7694552699460502 #
straight-curve $-1 57.615283669545576 0 16.252956971399975 0 1 0 I I #
point $-1 57.615283669545576 36.647695145291593 16.252956971399975 #
point $-1 49.561698568509044 25.52600900551656 5.1864200854110614 #
straight-curve $-1 57.615283669545576 36.647695145291593 0 0 0 -1 I I #
End-of-ACIS-data 