500 0 6 0           
7 Unknown 11 ACIS 5.0 NT 24 Thu Mar 25 22:52:37 1999 
-1 9.9999999999999995e-007 1e-010 
body $-1 $6 $-1 $7 #
body $-1 $8 $-1 $9 #
body $-1 $10 $-1 $11 #
body $-1 $12 $-1 $13 #
body $-1 $14 $-1 $15 #
body $-1 $16 $-1 $17 #
lump $-1 $-1 $18 $0 #
transform $-1 1 0 0 0 1 0 0 0 1 49.082308420056762 19.708867855980007 9.7189192965634987 1 rotate no_reflect no_shear #
lump $-1 $-1 $19 $1 #
transform $-1 1 0 0 0 1 0 0 0 1 49.082308420056762 19.708867855980007 9.7189192965634987 1 rotate no_reflect no_shear #
lump $-1 $-1 $20 $2 #
transform $-1 1 0 0 0 1 0 0 0 1 49.082308420056762 19.708867855980007 9.7189192965634987 1 rotate no_reflect no_shear #
lump $-1 $-1 $21 $3 #
transform $-1 1 0 0 0 1 0 0 0 1 49.082308420056762 19.708867855980007 9.7189192965634987 1 rotate no_reflect no_shear #
lump $-1 $-1 $22 $4 #
transform $-1 1 0 0 0 1 0 0 0 1 49.082308420056762 19.708867855980007 9.7189192965634987 1 rotate no_reflect no_shear #
lump $-1 $-1 $23 $5 #
transform $-1 1 0 0 0 1 0 0 0 1 49.082308420056762 19.708867855980007 9.7189192965634987 1 rotate no_reflect no_shear #
shell $-1 $-1 $-1 $24 $-1 $6 #
shell $-1 $-1 $-1 $25 $-1 $8 #
shell $-1 $-1 $-1 $26 $-1 $10 #
shell $-1 $-1 $-1 $27 $-1 $12 #
shell $-1 $-1 $-1 $28 $-1 $14 #
shell $-1 $-1 $-1 $29 $-1 $16 #
face $-1 $30 $31 $18 $-1 $32 forward single #
face $-1 $33 $34 $19 $-1 $35 forward single #
face $-1 $36 $37 $20 $-1 $38 reversed single #
face $-1 $39 $40 $21 $-1 $41 reversed single #
face $-1 $42 $43 $22 $-1 $44 forward single #
face $-1 $45 $46 $23 $-1 $47 forward single #
face $-1 $48 $49 $18 $-1 $50 reversed single #
loop $-1 $-1 $51 $24 #
plane-surface $-1 0 0 9.7189192965634987 0 0 1 1 0 0 forward_v I I I I #
face $-1 $52 $53 $19 $-1 $54 reversed single #
loop $-1 $-1 $55 $25 #
plane-surface $-1 0 -19.708867855980007 0 0 1 0 0 0 1 forward_v I I I I #
face $-1 $56 $57 $20 $-1 $58 reversed single #
loop $-1 $-1 $59 $26 #
plane-surface $-1 0 15.850035416795844 6.7189192965634987 0 0 1 1 0 0 forward_v I I I I #
face $-1 $60 $61 $21 $-1 $62 reversed single #
loop $-1 $-1 $63 $27 #
plane-surface $-1 -103.97526624239948 -3.3090836382398958 87.715782886502311 0 1 0 -0.55919291073839883 0 0.82903756765294845 forward_v I I I I #
face $-1 $64 $65 $22 $-1 $66 forward single #
loop $-1 $67 $68 $28 #
cone-surface $-1 -46.293261426831229 -1.6253945365261409 7.6117547203507403 0.55919291073839883 0 -0.82903756765294845 0.41451878382647422 0 0.27959645536919941 1 I I 0 1 0.5 forward I I I I #
face $-1 $69 $70 $23 $-1 $71 forward single #
loop $-1 $72 $73 $29 #
cone-surface $-1 -46.293261426831229 0.90013911604449603 7.6117547203507403 0.55919291073839883 0 -0.82903756765294845 0.41451878382647422 0 0.27959645536919941 1 I I 0 1 0.5 forward I I I I #
face $-1 $74 $75 $18 $-1 $76 reversed single #
loop $-1 $-1 $77 $30 #
plane-surface $-1 0 0 -9.7189192965634987 0 0 1 1 0 0 forward_v I I I I #
coedge $-1 $78 $79 $80 $81 forward $31 $-1 #
face $-1 $82 $83 $19 $-1 $84 reversed single #
loop $-1 $-1 $85 $33 #
plane-surface $-1 0 0 -9.7189192965634987 0 0 1 1 0 0 forward_v I I I I #
coedge $-1 $86 $87 $88 $89 forward $34 $-1 #
face $-1 $90 $91 $20 $-1 $92 reversed single #
loop $-1 $-1 $93 $36 #
plane-surface $-1 0 11.991202977611684 8.2189192965634987 0 1 0 0 0 1 forward_v I I I I #
coedge $-1 $94 $95 $96 $97 reversed $37 $-1 #
face $-1 $98 $99 $21 $-1 $100 reversed single #
loop $-1 $-1 $101 $39 #
plane-surface $-1 -49.082308420056762 -0.36262771024081886 6.333627711790939 -0.55919291073839883 0 0.82903756765294845 0.82903756765294845 0 0.55919291073839883 forward_v I I I I #
coedge $-1 $102 $103 $104 $105 reversed $40 $-1 #
face $-1 $-1 $106 $22 $-1 $107 forward single #
loop $-1 $108 $109 $42 #
cone-surface $-1 -45.873866743777427 -1.6253945365261409 6.9899765446110287 0.55919291073839883 0 -0.82903756765294845 0.20725939191323711 0 0.13979822768459971 1 I I -0.70710678118654746 0.70710678118654746 0.25 forward I I I I #
loop $-1 $-1 $110 $28 #
coedge $-1 $68 $68 $111 $112 reversed $43 $-1 #
face $-1 $-1 $113 $23 $-1 $114 forward single #
loop $-1 $115 $116 $45 #
cone-surface $-1 -45.873866743777427 0.90013911604449603 6.9899765446110287 0.55919291073839883 0 -0.82903756765294845 0.20725939191323711 0 0.13979822768459971 1 I I -0.70710678118654746 0.70710678118654746 0.25 forward I I I I #
loop $-1 $-1 $117 $29 #
coedge $-1 $73 $73 $118 $119 reversed $46 $-1 #
face $-1 $120 $121 $18 $-1 $122 reversed single #
loop $-1 $-1 $123 $48 #
plane-surface $-1 0 -19.708867855980007 0 0 1 0 0 0 1 forward_v I I I I #
coedge $-1 $124 $125 $126 $127 forward $49 $-1 #
coedge $-1 $128 $51 $129 $130 forward $31 $-1 #
coedge $-1 $51 $128 $131 $132 forward $31 $-1 #
coedge $-1 $133 $134 $51 $81 reversed $135 $-1 #
edge $-1 $136 -19.708867855980007 $137 19.708867855980007 $80 $138 forward 7 unknown #
face $-1 $139 $140 $19 $-1 $141 reversed single #
loop $-1 $-1 $142 $52 #
plane-surface $-1 -40.913650171611366 -32.498101930875521 0 0 1 0 0 0 1 forward_v I I I I #
coedge $-1 $143 $144 $87 $145 forward $53 $-1 #
coedge $-1 $146 $55 $147 $148 reversed $34 $-1 #
coedge $-1 $55 $146 $85 $145 reversed $34 $-1 #
coedge $-1 $149 $150 $55 $89 reversed $140 $-1 #
edge $-1 $151 -9.7189192965634987 $152 9.7189192965634987 $88 $153 forward 7 unknown #
face $-1 $154 $155 $20 $-1 $156 forward single #
loop $-1 $-1 $157 $56 #
plane-surface $-1 -49.082308420056762 0 0 1 0 0 0 0 -1 forward_v I I I I #
coedge $-1 $158 $159 $160 $161 reversed $57 $-1 #
coedge $-1 $162 $59 $158 $163 forward $37 $-1 #
coedge $-1 $59 $162 $164 $165 reversed $37 $-1 #
coedge $-1 $166 $167 $59 $97 forward $168 $-1 #
edge $-1 $169 4.0661852692137614 $170 11.783850147582081 $96 $171 forward 7 unknown #
face $-1 $172 $173 $21 $-1 $174 forward single #
loop $-1 $-1 $175 $60 #
plane-surface $-1 -103.97526624239948 2.5838282177582581 87.715782886502311 0 -1 0 0.55919291073839883 0 -0.82903756765294845 forward_v I I I I #
coedge $-1 $176 $177 $178 $179 reversed $61 $-1 #
coedge $-1 $103 $63 $180 $181 reversed $40 $-1 #
coedge $-1 $63 $102 $176 $182 reversed $40 $-1 #
coedge $-1 $178 $183 $63 $105 forward $173 $-1 #
edge $-1 $184 2.9053247011429804 $185 7.9242257768556286 $104 $186 forward 7 unknown #
loop $-1 $-1 $111 $64 #
plane-surface $-1 -49.082308420056762 -0.36262771024081886 6.333627711790939 -0.55919291073839883 0 0.82903756765294845 0.82903756765294845 0 0.55919291073839883 forward_v I I I I #
loop $-1 $-1 $187 $42 #
coedge $-1 $109 $109 $110 $188 reversed $65 $-1 #
coedge $-1 $110 $110 $109 $188 forward $67 $-1 #
coedge $-1 $111 $111 $68 $112 forward $106 $-1 #
edge $-1 $189 0 $189 6.2831853071796004 $111 $190 forward 7 unknown #
loop $-1 $-1 $118 $69 #
plane-surface $-1 -49.082308420056762 -0.36262771024081886 6.333627711790939 -0.55919291073839883 0 0.82903756765294845 0.82903756765294845 0 0.55919291073839883 forward_v I I I I #
loop $-1 $-1 $191 $45 #
coedge $-1 $116 $116 $117 $192 reversed $70 $-1 #
coedge $-1 $117 $117 $116 $192 forward $72 $-1 #
coedge $-1 $118 $118 $73 $119 forward $113 $-1 #
edge $-1 $193 0 $193 6.2831853071796004 $118 $194 forward 7 unknown #
face $-1 $195 $196 $18 $-1 $197 reversed single #
loop $-1 $-1 $198 $74 #
plane-surface $-1 -49.082308420056762 0 0 1 0 0 0 0 -1 forward_v I I I I #
coedge $-1 $199 $131 $200 $201 forward $75 $-1 #
coedge $-1 $202 $77 $199 $203 forward $49 $-1 #
coedge $-1 $77 $202 $204 $205 forward $49 $-1 #
coedge $-1 $134 $133 $77 $127 reversed $135 $-1 #
edge $-1 $206 -19.708867855980007 $207 19.708867855980007 $126 $208 forward 7 unknown #
coedge $-1 $79 $78 $209 $210 forward $31 $-1 #
coedge $-1 $211 $212 $78 $130 reversed $196 $-1 #
edge $-1 $137 -49.082308420056762 $213 49.082308420056762 $129 $214 forward 7 unknown #
coedge $-1 $123 $215 $79 $132 reversed $75 $-1 #
edge $-1 $216 -49.082308420056762 $136 49.082308420056762 $131 $217 forward 7 unknown #
coedge $-1 $126 $80 $215 $218 forward $135 $-1 #
coedge $-1 $80 $126 $211 $219 reversed $135 $-1 #
loop $-1 $-1 $133 $195 #
vertex $-1 $81 $220 #
vertex $-1 $81 $221 #
straight-curve $-1 49.082308420056762 0 9.7189192965634987 0 1 0 I I #
face $-1 $222 $223 $19 $-1 $224 reversed single #
loop $-1 $-1 $88 $82 #
plane-surface $-1 -42.823591180137058 -26.103484893427762 0 1 0 0 0 0 -1 forward_v I I I I #
coedge $-1 $225 $226 $227 $228 forward $83 $-1 #
coedge $-1 $229 $85 $230 $231 forward $53 $-1 #
coedge $-1 $85 $229 $149 $232 forward $53 $-1 #
edge $-1 $151 -42.823591180137058 $233 -39.003709163085674 $85 $234 forward 7 unknown #
coedge $-1 $87 $86 $235 $236 forward $34 $-1 #
coedge $-1 $237 $238 $86 $148 forward $239 $-1 #
edge $-1 $240 39.003709163085674 $152 42.823591180137058 $147 $241 forward 7 unknown #
coedge $-1 $227 $88 $144 $232 reversed $140 $-1 #
coedge $-1 $88 $227 $237 $242 reversed $140 $-1 #
vertex $-1 $145 $243 #
vertex $-1 $242 $244 #
straight-curve $-1 -42.823591180137058 -19.708867855980007 0 0 0 1 I I #
face $-1 $245 $246 $20 $-1 $247 reversed single #
loop $-1 $-1 $248 $90 #
plane-surface $-1 0 0 9.7189192965634987 0 0 1 1 0 0 forward_v I I I I #
coedge $-1 $160 $249 $162 $250 forward $91 $-1 #
coedge $-1 $251 $93 $94 $163 reversed $57 $-1 #
coedge $-1 $93 $251 $248 $252 reversed $57 $-1 #
coedge $-1 $253 $157 $93 $161 forward $91 $-1 #
edge $-1 $254 2.6094596482817494 $255 5.6094596482817494 $160 $256 forward 7 unknown #
coedge $-1 $95 $94 $157 $250 reversed $37 $-1 #
edge $-1 $169 -49.082308420056762 $254 49.082308420056762 $158 $257 forward 7 unknown #
coedge $-1 $258 $259 $95 $165 forward $246 $-1 #
edge $-1 $170 -49.082308420056762 $260 49.082308420056762 $164 $261 forward 7 unknown #
coedge $-1 $262 $96 $259 $263 reversed $168 $-1 #
coedge $-1 $96 $262 $251 $264 forward $168 $-1 #
loop $-1 $-1 $96 $245 #
vertex $-1 $97 $265 #
vertex $-1 $97 $266 #
straight-curve $-1 49.082308420056762 7.9250177083979221 6.7189192965634987 0 1 0 I I #
face $-1 $-1 $267 $21 $-1 $268 reversed single #
loop $-1 $-1 $104 $98 #
plane-surface $-1 0 0 9.7189192965634987 0 0 1 1 0 0 forward_v I I I I #
coedge $-1 $269 $270 $271 $272 reversed $99 $-1 #
coedge $-1 $273 $101 $103 $182 forward $61 $-1 #
coedge $-1 $101 $273 $269 $274 forward $61 $-1 #
coedge $-1 $271 $104 $101 $179 forward $173 $-1 #
edge $-1 $185 -3.1277697831194864 $275 2.7651420728786675 $178 $276 forward 7 unknown #
coedge $-1 $277 $278 $102 $181 forward $267 $-1 #
edge $-1 $279 -37.524263731460216 $184 -34.138972146687657 $180 $280 forward 7 unknown #
edge $-1 $185 -6.0538885950867547 $279 0 $103 $281 forward 7 unknown #
coedge $-1 $104 $271 $277 $282 forward $173 $-1 #
vertex $-1 $105 $283 #
vertex $-1 $105 $284 #
straight-curve $-1 -51.987633121199742 -3.3090836382398958 9.7189192965634987 1 0 0 I I #
coedge $-1 $187 $187 $-1 $285 reversed $108 $-1 #
edge $-1 $286 0 $286 6.2831853071796004 $109 $287 forward 7 unknown #
vertex $-1 $112 $288 #
ellipse-curve $-1 -46.572857882200431 -1.6253945365261409 8.0262735041772206 -0.55919291073839883 0 0.82903756765294845 0.41451878382647422 0 0.27959645536919941 1 I I #
coedge $-1 $191 $191 $-1 $289 reversed $115 $-1 #
edge $-1 $290 0 $290 6.2831853071796004 $116 $291 forward 7 unknown #
vertex $-1 $119 $292 #
ellipse-curve $-1 -46.572857882200431 0.90013911604449603 8.0262735041772206 -0.55919291073839883 0 0.82903756765294845 0.41451878382647422 0 0.27959645536919941 1 I I #
face $-1 $-1 $135 $18 $-1 $293 reversed single #
loop $-1 $-1 $211 $120 #
plane-surface $-1 0 19.708867855980007 0 0 -1 0 0 0 -1 forward_v I I I I #
coedge $-1 $294 $209 $212 $295 forward $121 $-1 #
coedge $-1 $215 $123 $124 $203 reversed $75 $-1 #
coedge $-1 $209 $294 $123 $201 reversed $121 $-1 #
edge $-1 $216 -9.7189192965634987 $296 9.7189192965634987 $200 $297 forward 7 unknown #
coedge $-1 $125 $124 $294 $298 forward $49 $-1 #
edge $-1 $207 -49.082308420056762 $296 49.082308420056762 $199 $299 forward 7 unknown #
coedge $-1 $212 $211 $125 $205 reversed $196 $-1 #
edge $-1 $300 -49.082308420056762 $206 49.082308420056762 $204 $301 forward 7 unknown #
vertex $-1 $127 $302 #
vertex $-1 $218 $303 #
straight-curve $-1 49.082308420056762 0 -9.7189192965634987 0 -1 0 I I #
coedge $-1 $198 $200 $128 $210 reversed $121 $-1 #
edge $-1 $213 -19.708867855980007 $216 19.708867855980007 $209 $304 forward 7 unknown #
coedge $-1 $204 $129 $134 $219 forward $196 $-1 #
coedge $-1 $129 $204 $198 $295 reversed $196 $-1 #
vertex $-1 $130 $305 #
straight-curve $-1 0 19.708867855980007 9.7189192965634987 -1 0 0 I I #
coedge $-1 $131 $199 $133 $218 reversed $75 $-1 #
vertex $-1 $210 $306 #
straight-curve $-1 0 -19.708867855980007 9.7189192965634987 1 0 0 I I #
edge $-1 $136 -9.7189192965634987 $207 9.7189192965634987 $133 $307 forward 7 unknown #
edge $-1 $137 -9.7189192965634987 $206 9.7189192965634987 $134 $308 forward 7 unknown #
point $-1 49.082308420056762 -19.708867855980007 9.7189192965634987 #
point $-1 49.082308420056762 19.708867855980007 9.7189192965634987 #
face $-1 $-1 $239 $19 $-1 $309 forward single #
loop $-1 $-1 $310 $139 #
plane-surface $-1 -39.003709163085674 -26.103484893427762 0 -1 0 0 0 0 1 forward_v I I I I #
coedge $-1 $311 $142 $229 $312 reversed $83 $-1 #
coedge $-1 $142 $311 $313 $314 reversed $83 $-1 #
coedge $-1 $150 $149 $142 $228 reversed $140 $-1 #
edge $-1 $315 -9.7189192965634987 $316 9.7189192965634987 $227 $317 forward 7 unknown #
coedge $-1 $144 $143 $225 $312 forward $53 $-1 #
coedge $-1 $235 $310 $143 $231 reversed $223 $-1 #
edge $-1 $233 -6.3946170374477589 $318 6.3946170374477589 $230 $319 forward 7 unknown #
edge $-1 $316 -6.3946170374477589 $151 6.3946170374477589 $149 $320 forward 7 unknown #
vertex $-1 $231 $321 #
straight-curve $-1 0 -19.708867855980007 -9.7189192965634987 1 0 0 I I #
coedge $-1 $322 $230 $146 $236 reversed $223 $-1 #
edge $-1 $240 -9.7189192965634987 $233 9.7189192965634987 $235 $323 forward 7 unknown #
coedge $-1 $313 $147 $150 $242 forward $239 $-1 #
coedge $-1 $147 $313 $322 $324 forward $239 $-1 #
loop $-1 $-1 $147 $222 #
vertex $-1 $148 $325 #
straight-curve $-1 0 -19.708867855980007 9.7189192965634987 -1 0 0 I I #
edge $-1 $152 -6.3946170374477589 $315 6.3946170374477589 $150 $326 forward 7 unknown #
point $-1 -42.823591180137058 -19.708867855980003 -9.7189192965634987 #
point $-1 -42.823591180137058 -19.708867855980003 9.7189192965634987 #
face $-1 $-1 $168 $20 $-1 $327 reversed single #
loop $-1 $-1 $164 $154 #
plane-surface $-1 0 19.708867855980007 0 0 -1 0 0 0 -1 forward_v I I I I #
coedge $-1 $328 $329 $159 $252 forward $155 $-1 #
coedge $-1 $157 $253 $258 $330 forward $91 $-1 #
edge $-1 $260 -11.783850147582081 $254 -4.0661852692137614 $157 $331 forward 7 unknown #
coedge $-1 $159 $158 $167 $264 reversed $57 $-1 #
edge $-1 $255 -49.082308420056762 $332 49.082308420056762 $248 $333 forward 7 unknown #
coedge $-1 $249 $160 $329 $334 reversed $91 $-1 #
vertex $-1 $250 $335 #
vertex $-1 $252 $336 #
straight-curve $-1 -49.082308420056762 11.991202977611684 4.1094596482817494 0 0 1 I I #
straight-curve $-1 0 11.991202977611684 6.7189192965634987 -1 0 0 I I #
coedge $-1 $337 $164 $249 $330 reversed $246 $-1 #
coedge $-1 $164 $337 $166 $263 forward $246 $-1 #
vertex $-1 $250 $338 #
straight-curve $-1 0 19.708867855980007 6.7189192965634987 -1 0 0 I I #
coedge $-1 $167 $166 $328 $339 reversed $168 $-1 #
edge $-1 $340 -9.7189192965634987 $170 -6.7189192965634987 $166 $341 forward 7 unknown #
edge $-1 $332 -5.6094596482817494 $169 -2.6094596482817494 $167 $342 forward 7 unknown #
point $-1 49.082308420056762 11.991202977611684 6.7189192965634987 #
point $-1 49.082308420056762 19.708867855980003 6.7189192965634987 #
loop $-1 $-1 $180 $172 #
plane-surface $-1 -49.082308420056762 0 0 1 0 0 0 0 -1 forward_v I I I I #
coedge $-1 $270 $175 $177 $274 reversed $99 $-1 #
coedge $-1 $175 $269 $343 $344 reversed $99 $-1 #
coedge $-1 $183 $178 $175 $272 forward $173 $-1 #
edge $-1 $275 -7.9242257768556286 $345 -2.9053247011429804 $271 $346 forward 7 unknown #
coedge $-1 $177 $176 $278 $347 reversed $61 $-1 #
edge $-1 $348 0 $275 6.0538885950867547 $269 $349 forward 7 unknown #
vertex $-1 $179 $350 #
straight-curve $-1 -44.063407344344114 -0.18131385512040943 9.7189192965634987 0 1 0 I I #
coedge $-1 $343 $180 $183 $282 reversed $267 $-1 #
coedge $-1 $180 $343 $273 $347 forward $267 $-1 #
vertex $-1 $181 $351 #
straight-curve $-1 -49.082308420056762 -3.3090836382398958 43.857891443251155 0 0 1 I I #
straight-curve $-1 -49.082308420056762 -3.3090836382398958 6.333627711790939 -0.82903756765294845 0 -0.55919291073839883 I I #
edge $-1 $345 -2.5838282177582581 $184 3.3090836382398958 $277 $352 forward 7 unknown #
point $-1 -49.082308420056762 -3.3090836382398958 9.7189192965634987 #
point $-1 -44.063407344344114 -3.3090836382398958 9.7189192965634987 #
edge $-1 $353 1 $353 0 $187 $-1 forward 7 unknown #
vertex $-1 $188 $354 #
ellipse-curve $-1 -46.013664971462028 -1.6253945365261409 7.1972359365242662 -0.55919291073839883 0 0.82903756765294845 0.41451878382647422 0 0.27959645536919941 1 I I #
point $-1 -46.158339098373951 -1.6253945365261409 8.3058699595464134 #
edge $-1 $355 1 $355 0 $191 $-1 forward 7 unknown #
vertex $-1 $192 $356 #
ellipse-curve $-1 -46.013664971462028 0.90013911604449603 7.1972359365242662 -0.55919291073839883 0 0.82903756765294845 0.41451878382647422 0 0.27959645536919941 1 I I #
point $-1 -46.158339098373951 0.90013911604449603 8.3058699595464134 #
plane-surface $-1 49.082308420056762 0 0 -1 0 0 0 0 1 forward_v I I I I #
coedge $-1 $200 $198 $202 $298 reversed $121 $-1 #
edge $-1 $213 -9.7189192965634987 $300 9.7189192965634987 $212 $357 forward 7 unknown #
vertex $-1 $298 $358 #
straight-curve $-1 -49.082308420056762 -19.708867855980007 0 0 0 -1 I I #
edge $-1 $296 -19.708867855980007 $300 19.708867855980007 $294 $359 forward 7 unknown #
straight-curve $-1 0 -19.708867855980007 -9.7189192965634987 -1 0 0 I I #
vertex $-1 $205 $360 #
straight-curve $-1 0 19.708867855980007 -9.7189192965634987 1 0 0 I I #
point $-1 49.082308420056762 19.708867855980007 -9.7189192965634987 #
point $-1 49.082308420056762 -19.708867855980007 -9.7189192965634987 #
straight-curve $-1 -49.082308420056762 0 9.7189192965634987 0 -1 0 I I #
point $-1 -49.082308420056762 19.708867855980007 9.7189192965634987 #
point $-1 -49.082308420056762 -19.708867855980007 9.7189192965634987 #
straight-curve $-1 49.082308420056762 -19.708867855980007 0 0 0 -1 I I #
straight-curve $-1 49.082308420056762 19.708867855980007 0 0 0 -1 I I #
plane-surface $-1 0 0 9.7189192965634987 0 0 1 1 0 0 forward_v I I I I #
coedge $-1 $230 $322 $311 $361 forward $223 $-1 #
coedge $-1 $226 $225 $310 $361 reversed $83 $-1 #
edge $-1 $318 -1.909941008525692 $316 1.909941008525692 $225 $362 forward 7 unknown #
coedge $-1 $238 $237 $226 $314 forward $239 $-1 #
edge $-1 $315 -1.909941008525692 $363 1.909941008525692 $226 $364 forward 7 unknown #
vertex $-1 $242 $365 #
vertex $-1 $232 $366 #
straight-curve $-1 -42.823591180137058 -32.498101930875521 0 0 0 -1 I I #
vertex $-1 $361 $367 #
straight-curve $-1 -39.003709163085674 -26.103484893427762 -9.7189192965634987 0 -1 0 I I #
straight-curve $-1 -42.823591180137058 -26.103484893427762 -9.7189192965634987 0 1 0 I I #
point $-1 -39.003709163085674 -19.708867855980003 -9.7189192965634987 #
coedge $-1 $310 $235 $238 $324 reversed $223 $-1 #
straight-curve $-1 -39.003709163085674 -19.708867855980007 0 0 0 -1 I I #
edge $-1 $363 -6.3946170374477589 $240 6.3946170374477589 $322 $368 forward 7 unknown #
point $-1 -39.003709163085674 -19.708867855980003 9.7189192965634987 #
straight-curve $-1 -42.823591180137058 -26.103484893427762 9.7189192965634987 0 -1 0 I I #
plane-surface $-1 49.082308420056762 0 0 -1 0 0 0 0 1 forward_v I I I I #
coedge $-1 $369 $248 $262 $339 forward $155 $-1 #
coedge $-1 $248 $369 $253 $334 forward $155 $-1 #
edge $-1 $370 -9.7189192965634987 $260 -6.7189192965634987 $258 $371 forward 7 unknown #
straight-curve $-1 -49.082308420056762 7.9250177083979221 6.7189192965634987 0 -1 0 I I #
vertex $-1 $339 $372 #
straight-curve $-1 0 11.991202977611684 9.7189192965634987 1 0 0 I I #
edge $-1 $370 -19.708867855980007 $255 -11.991202977611684 $253 $373 forward 7 unknown #
point $-1 -49.082308420056762 11.991202977611684 6.7189192965634987 #
point $-1 -49.082308420056762 11.991202977611684 9.7189192965634987 #
coedge $-1 $259 $258 $369 $374 reversed $246 $-1 #
point $-1 -49.082308420056762 19.708867855980003 6.7189192965634987 #
edge $-1 $332 11.991202977611684 $340 19.708867855980007 $262 $375 forward 7 unknown #
vertex $-1 $339 $376 #
straight-curve $-1 49.082308420056762 19.708867855980007 0 0 0 -1 I I #
straight-curve $-1 49.082308420056762 11.991202977611684 4.1094596482817494 0 0 -1 I I #
coedge $-1 $278 $277 $270 $344 forward $267 $-1 #
edge $-1 $345 34.138972146687657 $348 37.524263731460216 $343 $377 forward 7 unknown #
vertex $-1 $282 $378 #
straight-curve $-1 -51.987633121199742 2.5838282177582581 9.7189192965634987 -1 0 0 I I #
edge $-1 $348 -2.7651420728786675 $279 3.1277697831194864 $278 $379 forward 7 unknown #
vertex $-1 $347 $380 #
straight-curve $-1 -49.082308420056762 2.5838282177582581 6.333627711790939 0.82903756765294845 0 0.55919291073839883 I I #
point $-1 -44.063407344344114 2.5838282177582581 9.7189192965634987 #
point $-1 -49.082308420056762 -3.3090836382398958 6.333627711790939 #
straight-curve $-1 -49.082308420056762 0 9.7189192965634987 0 -1 0 I I #
vertex $-1 $285 $381 #
point $-1 -45.599146187635554 -1.6253945365261409 7.4768323918934652 #
vertex $-1 $289 $382 #
point $-1 -45.599146187635554 0.90013911604449603 7.4768323918934652 #
straight-curve $-1 -49.082308420056762 19.708867855980007 0 0 0 -1 I I #
point $-1 -49.082308420056762 -19.708867855980007 -9.7189192965634987 #
straight-curve $-1 -49.082308420056762 0 -9.7189192965634987 0 1 0 I I #
point $-1 -49.082308420056762 19.708867855980007 -9.7189192965634987 #
edge $-1 $363 -9.7189192965634987 $318 9.7189192965634987 $310 $383 forward 7 unknown #
straight-curve $-1 -40.913650171611366 -32.498101930875521 -9.7189192965634987 -1 0 0 I I #
vertex $-1 $324 $384 #
straight-curve $-1 -40.913650171611366 -32.498101930875521 9.7189192965634987 1 0 0 I I #
point $-1 -42.823591180137058 -32.498101930875521 9.7189192965634987 #
point $-1 -42.823591180137058 -32.498101930875521 -9.7189192965634987 #
point $-1 -39.003709163085674 -32.498101930875521 -9.7189192965634987 #
straight-curve $-1 -39.003709163085674 -26.103484893427762 9.7189192965634987 0 1 0 I I #
coedge $-1 $329 $328 $337 $374 forward $155 $-1 #
vertex $-1 $374 $385 #
straight-curve $-1 -49.082308420056762 19.708867855980007 0 0 0 -1 I I #
point $-1 49.082308420056762 11.991202977611684 9.7189192965634987 #
straight-curve $-1 -49.082308420056762 0 9.7189192965634987 0 -1 0 I I #
edge $-1 $340 -49.082308420056762 $370 49.082308420056762 $337 $386 forward 7 unknown #
straight-curve $-1 49.082308420056762 0 9.7189192965634987 0 1 0 I I #
point $-1 49.082308420056762 19.708867855980007 9.7189192965634987 #
straight-curve $-1 -49.082308420056762 2.5838282177582581 43.857891443251155 0 0 -1 I I #
point $-1 -49.082308420056762 2.5838282177582581 9.7189192965634987 #
straight-curve $-1 -49.082308420056762 -0.18131385512040943 6.3336277117909408 0 -1 0 I I #
point $-1 -49.082308420056762 2.5838282177582581 6.333627711790939 #
point $-1 -45.734068516092826 -1.6253945365261409 6.7827171526977912 #
point $-1 -45.734068516092826 0.90013911604449603 6.7827171526977912 #
straight-curve $-1 -39.003709163085674 -32.498101930875521 0 0 0 -1 I I #
point $-1 -39.003709163085674 -32.498101930875521 9.7189192965634987 #
point $-1 -49.082308420056762 19.708867855980007 9.7189192965634987 #
straight-curve $-1 0 19.708867855980007 9.7189192965634987 -1 0 0 I I #
End-of-ACIS-data 