500 0 10 0           
7 Unknown 11 ACIS 5.0 NT 24 Fri Mar 26 01:50:37 1999 
-1 9.9999999999999995e-007 1e-010 
body $-1 $10 $-1 $11 #
body $-1 $12 $-1 $13 #
body $-1 $14 $-1 $15 #
body $-1 $16 $-1 $17 #
body $-1 $18 $-1 $19 #
body $-1 $20 $-1 $21 #
body $-1 $22 $-1 $23 #
body $-1 $24 $-1 $25 #
body $-1 $26 $-1 $27 #
body $-1 $28 $-1 $29 #
lump $-1 $-1 $30 $0 #
transform $-1 1 0 0 0 1 0 0 0 1 43.559678945280311 29.965342177729696 13.774711236496209 1 rotate no_reflect no_shear #
lump $-1 $-1 $31 $1 #
transform $-1 1 0 0 0 1 0 0 0 1 43.559678945280311 29.965342177729696 13.774711236496209 1 rotate no_reflect no_shear #
lump $-1 $-1 $32 $2 #
transform $-1 1 0 0 0 1 0 0 0 1 43.559678945280311 29.965342177729696 13.774711236496209 1 rotate no_reflect no_shear #
lump $-1 $-1 $33 $3 #
transform $-1 1 0 0 0 1 0 0 0 1 43.559678945280311 29.965342177729696 13.774711236496209 1 rotate no_reflect no_shear #
lump $-1 $-1 $34 $4 #
transform $-1 1 0 0 0 1 0 0 0 1 43.559678945280311 29.965342177729696 13.774711236496209 1 rotate no_reflect no_shear #
lump $-1 $-1 $35 $5 #
transform $-1 1 0 0 0 1 0 0 0 1 43.559678945280311 29.965342177729696 13.774711236496209 1 rotate no_reflect no_shear #
lump $-1 $-1 $36 $6 #
transform $-1 1 0 0 0 1 0 0 0 1 43.559678945280311 29.965342177729696 13.774711236496209 1 rotate no_reflect no_shear #
lump $-1 $-1 $37 $7 #
transform $-1 1 0 0 0 1 0 0 0 1 43.559678945280311 29.965342177729696 13.774711236496209 1 rotate no_reflect no_shear #
lump $-1 $-1 $38 $8 #
transform $-1 1 0 0 0 1 0 0 0 1 43.559678945280311 29.965342177729696 13.774711236496209 1 rotate no_reflect no_shear #
lump $-1 $-1 $39 $9 #
transform $-1 1 0 0 0 1 0 0 0 1 43.559678945280311 29.965342177729696 13.774711236496209 1 rotate no_reflect no_shear #
shell $-1 $-1 $-1 $40 $-1 $10 #
shell $-1 $-1 $-1 $41 $-1 $12 #
shell $-1 $-1 $-1 $42 $-1 $14 #
shell $-1 $-1 $-1 $43 $-1 $16 #
shell $-1 $-1 $-1 $44 $-1 $18 #
shell $-1 $-1 $-1 $45 $-1 $20 #
shell $-1 $-1 $-1 $46 $-1 $22 #
shell $-1 $-1 $-1 $47 $-1 $24 #
shell $-1 $-1 $-1 $48 $-1 $26 #
shell $-1 $-1 $-1 $49 $-1 $28 #
face $-1 $50 $51 $30 $-1 $52 forward single #
face $-1 $53 $54 $31 $-1 $55 reversed single #
face $-1 $56 $57 $32 $-1 $58 reversed single #
face $-1 $59 $60 $33 $-1 $61 forward single #
face $-1 $62 $63 $34 $-1 $64 forward single #
face $-1 $65 $66 $35 $-1 $67 forward single #
face $-1 $68 $69 $36 $-1 $70 reversed single #
face $-1 $71 $72 $37 $-1 $73 forward single #
face $-1 $74 $75 $38 $-1 $76 forward single #
face $-1 $77 $78 $39 $-1 $79 forward single #
face $-1 $80 $81 $30 $-1 $82 reversed single #
loop $-1 $-1 $83 $40 #
plane-surface $-1 0 0 13.774711236496209 0 0 1 1 0 0 forward_v I I I I #
face $-1 $84 $85 $31 $-1 $86 reversed single #
loop $-1 $-1 $87 $41 #
plane-surface $-1 -36.748480030044497 -10.48787442553742 0 0 1 0 0 0 1 forward_v I I I I #
face $-1 $88 $89 $32 $-1 $90 reversed single #
loop $-1 $-1 $91 $42 #
plane-surface $-1 -16.292331710421966 -81.172816589199073 75.531840627478942 -1 0 0 0 -0.5877852598018023 0.80901698891910034 forward_v I I I I #
face $-1 $92 $93 $33 $-1 $94 forward single #
loop $-1 $95 $96 $43 #
cone-surface $-1 -27.208291233931337 -23.061560786936898 8.1739229075568751 0 0.5877852598018023 -0.80901698891910034 1 0 0 1 I I 0 1 1 forward I I I I #
face $-1 $97 $98 $34 $-1 $99 forward single #
loop $-1 $100 $101 $44 #
cone-surface $-1 -23.114806412615323 -23.061560786936898 8.1739229075568751 0 0.5877852598018023 -0.80901698891910034 1 0 0 1 I I 0 1 1 forward I I I I #
face $-1 $102 $103 $35 $-1 $104 forward single #
loop $-1 $105 $106 $45 #
cone-surface $-1 -19.021321591299309 -23.061560786936898 8.1739229075568751 0 0.5877852598018023 -0.80901698891910034 1 0 0 1 I I 0 1 1 forward I I I I #
face $-1 $107 $108 $36 $-1 $109 reversed single #
loop $-1 $-1 $110 $46 #
plane-surface $-1 6.4466505953554183 49.190638812301273 111.72891663496512 1 0 0 0 -0.70710678939079041 -0.70710677298230451 forward_v I I I I #
face $-1 $111 $112 $37 $-1 $113 forward single #
loop $-1 $114 $115 $47 #
cone-surface $-1 9.2672453179593148 26.470574645608448 10.279943645640326 0 -0.70710678939079041 -0.70710677298230451 0.5 0 0 1 I I 0 1 0.5 forward I I I I #
face $-1 $116 $117 $38 $-1 $118 forward single #
loop $-1 $119 $120 $48 #
cone-surface $-1 13.498137401865165 26.470574645608448 10.279943645640326 0 -0.70710678939079041 -0.70710677298230451 0.5 0 0 1 I I 0 1 0.5 forward I I I I #
face $-1 $121 $122 $39 $-1 $123 forward single #
loop $-1 $124 $125 $49 #
cone-surface $-1 17.729029485771008 26.470574645608448 10.279943645640326 0 -0.70710678939079041 -0.70710677298230451 0.5 0 0 1 I I 0 1 0.5 forward I I I I #
face $-1 $126 $127 $30 $-1 $128 reversed single #
loop $-1 $-1 $129 $50 #
plane-surface $-1 0 0 -13.774711236496209 0 0 1 1 0 0 forward_v I I I I #
coedge $-1 $130 $131 $132 $133 forward $51 $-1 #
face $-1 $134 $135 $31 $-1 $136 reversed single #
loop $-1 $-1 $137 $53 #
plane-surface $-1 -36.748480030044497 -2.4159197047372771 0 0 -1 0 0 0 -1 forward_v I I I I #
coedge $-1 $138 $139 $140 $141 reversed $54 $-1 #
face $-1 $142 $143 $32 $-1 $144 reversed single #
loop $-1 $-1 $145 $56 #
plane-surface $-1 -23.114806412615323 -29.965342177729703 5.0508000302921232 0 -0.5877852598018023 0.80901698891910034 1 0 0 forward_v I I I I #
coedge $-1 $146 $147 $148 $149 reversed $57 $-1 #
face $-1 $-1 $150 $33 $-1 $151 forward single #
loop $-1 $152 $153 $59 #
cone-surface $-1 -27.208291233931337 -21.867603479061653 6.5305816872600388 0 0.5877852598018023 -0.80901698891910034 0.5 0 0 1 I I -0.70710678118654746 0.70710678118654746 0.5 forward I I I I #
loop $-1 $-1 $154 $43 #
coedge $-1 $96 $96 $155 $156 reversed $60 $-1 #
face $-1 $-1 $157 $34 $-1 $158 forward single #
loop $-1 $159 $160 $62 #
cone-surface $-1 -23.114806412615323 -21.867603479061653 6.5305816872600388 0 0.5877852598018023 -0.80901698891910034 0.5 0 0 1 I I -0.70710678118654746 0.70710678118654746 0.5 forward I I I I #
loop $-1 $-1 $161 $44 #
coedge $-1 $101 $101 $162 $163 reversed $63 $-1 #
face $-1 $-1 $164 $35 $-1 $165 forward single #
loop $-1 $166 $167 $65 #
cone-surface $-1 -19.021321591299309 -21.867603479061653 6.5305816872600388 0 0.5877852598018023 -0.80901698891910034 0.5 0 0 1 I I -0.70710678118654746 0.70710678118654746 0.5 forward I I I I #
loop $-1 $-1 $168 $45 #
coedge $-1 $106 $106 $169 $170 reversed $66 $-1 #
face $-1 $171 $172 $36 $-1 $173 reversed single #
loop $-1 $-1 $174 $68 #
plane-surface $-1 13.498137401865165 -12.41205063948027 50.126228612680329 0 0.70710678939079041 0.70710677298230451 1 0 0 forward_v I I I I #
coedge $-1 $175 $176 $177 $178 reversed $69 $-1 #
face $-1 $-1 $179 $37 $-1 $180 forward single #
loop $-1 $181 $182 $71 #
cone-surface $-1 9.2672453179593148 25.811968558422798 9.6213375737376978 0 -0.70710678939079041 -0.70710677298230451 0.25 0 0 1 I I -0.70710678118654746 0.70710678118654746 0.25 forward I I I I #
loop $-1 $-1 $183 $47 #
coedge $-1 $115 $115 $184 $185 reversed $72 $-1 #
face $-1 $-1 $186 $38 $-1 $187 forward single #
loop $-1 $188 $189 $74 #
cone-surface $-1 13.498137401865165 25.811968558422798 9.6213375737376978 0 -0.70710678939079041 -0.70710677298230451 0.25 0 0 1 I I -0.70710678118654746 0.70710678118654746 0.25 forward I I I I #
loop $-1 $-1 $190 $48 #
coedge $-1 $120 $120 $191 $192 reversed $75 $-1 #
face $-1 $-1 $193 $39 $-1 $194 forward single #
loop $-1 $195 $196 $77 #
cone-surface $-1 17.729029485771008 25.811968558422798 9.6213375737376978 0 -0.70710678939079041 -0.70710677298230451 0.25 0 0 1 I I -0.70710678118654746 0.70710678118654746 0.25 forward I I I I #
loop $-1 $-1 $197 $49 #
coedge $-1 $125 $125 $198 $199 reversed $78 $-1 #
face $-1 $200 $201 $30 $-1 $202 reversed single #
loop $-1 $-1 $203 $80 #
plane-surface $-1 0 -29.965342177729696 0 0 1 0 0 0 1 forward_v I I I I #
coedge $-1 $204 $205 $206 $207 forward $81 $-1 #
coedge $-1 $208 $83 $209 $210 forward $51 $-1 #
coedge $-1 $83 $208 $211 $212 forward $51 $-1 #
coedge $-1 $213 $214 $83 $133 reversed $215 $-1 #
edge $-1 $216 -29.965342177729696 $217 29.965342177729696 $132 $218 forward 7 unknown #
face $-1 $219 $220 $31 $-1 $221 reversed single #
loop $-1 $-1 $222 $84 #
plane-surface $-1 -29.93728111480868 -6.4518970651373486 0 -1 0 0 0 0 1 forward_v I I I I #
coedge $-1 $223 $224 $225 $226 forward $85 $-1 #
coedge $-1 $227 $87 $228 $229 reversed $54 $-1 #
coedge $-1 $87 $227 $230 $231 reversed $54 $-1 #
coedge $-1 $232 $233 $87 $141 forward $234 $-1 #
edge $-1 $235 -13.774711236496209 $236 13.774711236496209 $140 $237 forward 7 unknown #
face $-1 $238 $239 $32 $-1 $240 reversed single #
loop $-1 $-1 $241 $88 #
plane-surface $-1 -29.93728111480868 -81.172816589199073 75.531840627478942 1 0 0 0 0.5877852598018023 -0.80901698891910034 forward_v I I I I #
coedge $-1 $242 $243 $244 $245 reversed $89 $-1 #
coedge $-1 $147 $91 $246 $247 reversed $57 $-1 #
coedge $-1 $91 $146 $242 $248 reversed $57 $-1 #
coedge $-1 $244 $249 $91 $149 forward $250 $-1 #
edge $-1 $251 10.621066116869841 $252 22.628499542506727 $148 $253 forward 7 unknown #
loop $-1 $-1 $155 $92 #
plane-surface $-1 -23.114806412615323 -29.965342177729703 5.0508000302921232 0 -0.5877852598018023 0.80901698891910034 1 0 0 forward_v I I I I #
loop $-1 $-1 $254 $59 #
coedge $-1 $153 $153 $154 $255 reversed $93 $-1 #
coedge $-1 $154 $154 $153 $255 forward $95 $-1 #
coedge $-1 $155 $155 $96 $156 forward $150 $-1 #
edge $-1 $256 -5.1628675225574583e-016 $256 6.2831853071795996 $155 $257 forward 7 unknown #
loop $-1 $-1 $162 $97 #
plane-surface $-1 -23.114806412615323 -29.965342177729703 5.0508000302921232 0 -0.5877852598018023 0.80901698891910034 1 0 0 forward_v I I I I #
loop $-1 $-1 $258 $62 #
coedge $-1 $160 $160 $161 $259 reversed $98 $-1 #
coedge $-1 $161 $161 $160 $259 forward $100 $-1 #
coedge $-1 $162 $162 $101 $163 forward $157 $-1 #
edge $-1 $260 -5.1628675225574583e-016 $260 6.2831853071795996 $162 $261 forward 7 unknown #
loop $-1 $-1 $169 $102 #
plane-surface $-1 -23.114806412615323 -29.965342177729703 5.0508000302921232 0 -0.5877852598018023 0.80901698891910034 1 0 0 forward_v I I I I #
loop $-1 $-1 $262 $65 #
coedge $-1 $167 $167 $168 $263 reversed $103 $-1 #
coedge $-1 $168 $168 $167 $263 forward $105 $-1 #
coedge $-1 $169 $169 $106 $170 forward $164 $-1 #
edge $-1 $264 -5.1628675225574583e-016 $264 6.2831853071795996 $169 $265 forward 7 unknown #
face $-1 $266 $267 $36 $-1 $268 reversed single #
loop $-1 $-1 $269 $107 #
plane-surface $-1 20.549624208374912 49.190638812301273 111.72891663496512 -1 0 0 0 0.70710678939079041 0.70710677298230451 forward_v I I I I #
coedge $-1 $270 $271 $272 $273 reversed $108 $-1 #
coedge $-1 $176 $110 $274 $275 reversed $69 $-1 #
coedge $-1 $110 $175 $270 $276 reversed $69 $-1 #
coedge $-1 $272 $277 $110 $178 forward $278 $-1 #
edge $-1 $279 -5.3700227715790589 $280 0.65585351298749828 $177 $281 forward 7 unknown #
loop $-1 $-1 $184 $111 #
plane-surface $-1 13.498137401865165 -12.41205063948027 50.126228612680329 0 0.70710678939079041 0.70710677298230451 1 0 0 forward_v I I I I #
loop $-1 $-1 $282 $71 #
coedge $-1 $182 $182 $183 $283 reversed $112 $-1 #
coedge $-1 $183 $183 $182 $283 forward $114 $-1 #
coedge $-1 $184 $184 $115 $185 forward $179 $-1 #
edge $-1 $284 5.0242963924399498e-015 $284 6.2831853071796058 $184 $285 forward 7 unknown #
loop $-1 $-1 $191 $116 #
plane-surface $-1 13.498137401865165 -12.41205063948027 50.126228612680329 0 0.70710678939079041 0.70710677298230451 1 0 0 forward_v I I I I #
loop $-1 $-1 $286 $74 #
coedge $-1 $189 $189 $190 $287 reversed $117 $-1 #
coedge $-1 $190 $190 $189 $287 forward $119 $-1 #
coedge $-1 $191 $191 $120 $192 forward $186 $-1 #
edge $-1 $288 5.0242963924399498e-015 $288 6.2831853071796058 $191 $289 forward 7 unknown #
loop $-1 $-1 $198 $121 #
plane-surface $-1 13.498137401865165 -12.41205063948027 50.126228612680329 0 0.70710678939079041 0.70710677298230451 1 0 0 forward_v I I I I #
loop $-1 $-1 $290 $77 #
coedge $-1 $196 $196 $197 $291 reversed $122 $-1 #
coedge $-1 $197 $197 $196 $291 forward $124 $-1 #
coedge $-1 $198 $198 $125 $199 forward $193 $-1 #
edge $-1 $292 5.0242963924399498e-015 $292 6.2831853071796058 $198 $293 forward 7 unknown #
face $-1 $294 $295 $30 $-1 $296 reversed single #
loop $-1 $-1 $297 $126 #
plane-surface $-1 -43.559678945280311 0 0 1 0 0 0 0 -1 forward_v I I I I #
coedge $-1 $298 $211 $299 $300 forward $127 $-1 #
coedge $-1 $301 $129 $298 $302 forward $81 $-1 #
coedge $-1 $129 $301 $303 $304 forward $81 $-1 #
coedge $-1 $214 $213 $129 $207 reversed $215 $-1 #
edge $-1 $305 -29.965342177729696 $306 29.965342177729696 $206 $307 forward 7 unknown #
coedge $-1 $131 $130 $308 $309 forward $51 $-1 #
coedge $-1 $310 $311 $130 $210 reversed $295 $-1 #
edge $-1 $217 -43.559678945280311 $312 43.559678945280311 $209 $313 forward 7 unknown #
coedge $-1 $203 $314 $131 $212 reversed $127 $-1 #
edge $-1 $315 -43.559678945280311 $216 43.559678945280311 $211 $316 forward 7 unknown #
coedge $-1 $206 $132 $314 $317 forward $215 $-1 #
coedge $-1 $132 $206 $310 $318 reversed $215 $-1 #
loop $-1 $-1 $213 $294 #
vertex $-1 $133 $319 #
vertex $-1 $133 $320 #
straight-curve $-1 43.559678945280311 0 13.774711236496209 0 1 0 I I #
face $-1 $321 $322 $31 $-1 $323 forward single #
loop $-1 $-1 $324 $134 #
plane-surface $-1 0 0 -13.774711236496209 0 0 1 1 0 0 forward_v I I I I #
coedge $-1 $325 $326 $227 $327 forward $135 $-1 #
coedge $-1 $328 $137 $324 $329 reversed $85 $-1 #
coedge $-1 $137 $328 $330 $331 reversed $85 $-1 #
coedge $-1 $326 $325 $137 $226 reversed $135 $-1 #
edge $-1 $332 -13.774711236496209 $333 13.774711236496209 $225 $334 forward 7 unknown #
coedge $-1 $139 $138 $222 $327 reversed $54 $-1 #
coedge $-1 $335 $336 $138 $229 forward $220 $-1 #
edge $-1 $337 11.563041099786432 $235 25.185438930258062 $228 $338 forward 7 unknown #
coedge $-1 $339 $340 $139 $231 forward $322 $-1 #
edge $-1 $236 -25.185438930258062 $341 -11.563041099786432 $230 $342 forward 7 unknown #
coedge $-1 $343 $140 $340 $344 reversed $234 $-1 #
coedge $-1 $140 $343 $335 $345 reversed $234 $-1 #
loop $-1 $-1 $343 $321 #
vertex $-1 $345 $346 #
vertex $-1 $141 $347 #
straight-curve $-1 -43.559678945280311 -10.48787442553742 0 0 0 1 I I #
face $-1 $-1 $250 $32 $-1 $348 forward single #
loop $-1 $-1 $349 $142 #
plane-surface $-1 0 -29.965342177729696 0 0 1 0 0 0 1 forward_v I I I I #
coedge $-1 $350 $351 $352 $353 reversed $143 $-1 #
coedge $-1 $354 $145 $147 $248 forward $89 $-1 #
coedge $-1 $145 $354 $350 $355 forward $89 $-1 #
coedge $-1 $352 $148 $145 $245 forward $250 $-1 #
edge $-1 $252 4.7349285041143041 $356 18.379877908501019 $244 $357 forward 7 unknown #
coedge $-1 $358 $359 $146 $247 forward $239 $-1 #
edge $-1 $360 -32.715120283447341 $251 -23.991209077243262 $246 $361 forward 7 unknown #
edge $-1 $252 -14.84200404948184 $360 -8.8807605448725156e-015 $147 $362 forward 7 unknown #
coedge $-1 $148 $352 $358 $363 forward $250 $-1 #
loop $-1 $-1 $352 $238 #
vertex $-1 $247 $364 #
vertex $-1 $149 $365 #
straight-curve $-1 -16.292331710421966 -40.586408294599536 13.774711236496209 0 1 0 I I #
coedge $-1 $254 $254 $-1 $366 reversed $152 $-1 #
edge $-1 $367 0 $367 6.2831853071796004 $153 $368 forward 7 unknown #
vertex $-1 $156 $369 #
ellipse-curve $-1 -27.208291233931337 -23.961625464911251 9.4127556333941698 0 -0.5877852598018023 0.80901698891910034 1 0 0 1 I I #
coedge $-1 $258 $258 $-1 $370 reversed $159 $-1 #
edge $-1 $371 0 $371 6.2831853071796004 $160 $372 forward 7 unknown #
vertex $-1 $163 $373 #
ellipse-curve $-1 -23.114806412615323 -23.961625464911251 9.4127556333941698 0 -0.5877852598018023 0.80901698891910034 1 0 0 1 I I #
coedge $-1 $262 $262 $-1 $374 reversed $166 $-1 #
edge $-1 $375 0 $375 6.2831853071796004 $167 $376 forward 7 unknown #
vertex $-1 $170 $377 #
ellipse-curve $-1 -19.021321591299309 -23.961625464911251 9.4127556333941698 0 -0.5877852598018023 0.80901698891910034 1 0 0 1 I I #
face $-1 $-1 $278 $36 $-1 $378 forward single #
loop $-1 $-1 $379 $171 #
plane-surface $-1 0 29.965342177729696 0 0 -1 0 0 0 -1 forward_v I I I I #
coedge $-1 $380 $381 $382 $383 reversed $172 $-1 #
coedge $-1 $384 $174 $176 $276 forward $108 $-1 #
coedge $-1 $174 $384 $380 $385 forward $108 $-1 #
coedge $-1 $382 $177 $174 $273 forward $278 $-1 #
edge $-1 $280 -0.3024181055771642 $386 13.800555507442329 $272 $387 forward 7 unknown #
coedge $-1 $388 $389 $175 $275 forward $267 $-1 #
edge $-1 $390 -48.115623505383979 $279 -42.089747080986349 $274 $391 forward 7 unknown #
edge $-1 $280 51.408808289767471 $390 59.930684355459391 $176 $392 forward 7 unknown #
coedge $-1 $177 $382 $388 $393 forward $278 $-1 #
loop $-1 $-1 $382 $266 #
vertex $-1 $275 $394 #
vertex $-1 $178 $395 #
straight-curve $-1 6.4466505953554183 24.595319406150637 13.774711236496209 0 -1 0 I I #
coedge $-1 $282 $282 $-1 $396 reversed $181 $-1 #
edge $-1 $397 0 $397 6.2831853071796004 $182 $398 forward 7 unknown #
vertex $-1 $185 $399 #
ellipse-curve $-1 9.2672453179593148 26.952404035446417 10.761773024297396 0 0.70710678939079041 0.70710677298230451 0.5 0 0 1 I I #
coedge $-1 $286 $286 $-1 $400 reversed $188 $-1 #
edge $-1 $401 0 $401 6.2831853071796004 $189 $402 forward 7 unknown #
vertex $-1 $192 $403 #
ellipse-curve $-1 13.498137401865165 26.952404035446417 10.761773024297396 0 0.70710678939079041 0.70710677298230451 0.5 0 0 1 I I #
coedge $-1 $290 $290 $-1 $404 reversed $195 $-1 #
edge $-1 $405 0 $405 6.2831853071796004 $196 $406 forward 7 unknown #
vertex $-1 $199 $407 #
ellipse-curve $-1 17.729029485771008 26.952404035446417 10.761773024297396 0 0.70710678939079041 0.70710677298230451 0.5 0 0 1 I I #
face $-1 $-1 $215 $30 $-1 $408 reversed single #
loop $-1 $-1 $310 $200 #
plane-surface $-1 0 29.965342177729696 0 0 -1 0 0 0 -1 forward_v I I I I #
coedge $-1 $409 $308 $311 $410 forward $201 $-1 #
coedge $-1 $314 $203 $204 $302 reversed $127 $-1 #
coedge $-1 $308 $409 $203 $300 reversed $201 $-1 #
edge $-1 $315 -13.774711236496209 $411 13.774711236496209 $299 $412 forward 7 unknown #
coedge $-1 $205 $204 $409 $413 forward $81 $-1 #
edge $-1 $306 -43.559678945280311 $411 43.559678945280311 $298 $414 forward 7 unknown #
coedge $-1 $311 $310 $205 $304 reversed $295 $-1 #
edge $-1 $415 -43.559678945280311 $305 43.559678945280311 $303 $416 forward 7 unknown #
vertex $-1 $207 $417 #
vertex $-1 $317 $418 #
straight-curve $-1 43.559678945280311 0 -13.774711236496209 0 -1 0 I I #
coedge $-1 $297 $299 $208 $309 reversed $201 $-1 #
edge $-1 $312 -29.965342177729696 $315 29.965342177729696 $308 $419 forward 7 unknown #
coedge $-1 $303 $209 $214 $318 forward $295 $-1 #
coedge $-1 $209 $303 $297 $410 reversed $295 $-1 #
vertex $-1 $210 $420 #
straight-curve $-1 0 29.965342177729696 13.774711236496209 -1 0 0 I I #
coedge $-1 $211 $298 $213 $317 reversed $127 $-1 #
vertex $-1 $309 $421 #
straight-curve $-1 0 -29.965342177729696 13.774711236496209 1 0 0 I I #
edge $-1 $216 -13.774711236496209 $306 13.774711236496209 $213 $422 forward 7 unknown #
edge $-1 $217 -13.774711236496209 $305 13.774711236496209 $214 $423 forward 7 unknown #
point $-1 43.559678945280311 -29.965342177729696 13.774711236496209 #
point $-1 43.559678945280311 29.965342177729696 13.774711236496209 #
face $-1 $-1 $234 $31 $-1 $424 reversed single #
loop $-1 $-1 $330 $219 #
plane-surface $-1 0 0 13.774711236496209 0 0 1 1 0 0 forward_v I I I I #
coedge $-1 $336 $335 $223 $329 forward $220 $-1 #
coedge $-1 $225 $222 $336 $425 reversed $135 $-1 #
coedge $-1 $222 $225 $339 $426 reversed $135 $-1 #
edge $-1 $341 -13.774711236496209 $337 13.774711236496209 $222 $427 forward 7 unknown #
coedge $-1 $224 $223 $343 $428 reversed $85 $-1 #
edge $-1 $429 -25.185438930258062 $333 -11.563041099786432 $324 $430 forward 7 unknown #
coedge $-1 $340 $339 $224 $331 forward $322 $-1 #
edge $-1 $332 11.563041099786432 $431 25.185438930258062 $330 $432 forward 7 unknown #
vertex $-1 $331 $433 #
vertex $-1 $329 $434 #
straight-curve $-1 -29.93728111480868 -2.4159197047372771 0 0 0 -1 I I #
coedge $-1 $324 $228 $233 $345 forward $220 $-1 #
coedge $-1 $228 $324 $325 $425 forward $220 $-1 #
vertex $-1 $229 $435 #
straight-curve $-1 -18.374240015022249 -10.48787442553742 -13.774711236496209 -1 0 0 I I #
coedge $-1 $330 $230 $326 $426 forward $322 $-1 #
coedge $-1 $230 $330 $232 $344 forward $322 $-1 #
vertex $-1 $231 $436 #
straight-curve $-1 -18.374240015022249 -10.48787442553742 13.774711236496209 1 0 0 I I #
coedge $-1 $233 $232 $328 $428 forward $234 $-1 #
edge $-1 $431 2.4159197047372771 $236 10.48787442553742 $232 $437 forward 7 unknown #
edge $-1 $235 -10.48787442553742 $429 -2.4159197047372771 $233 $438 forward 7 unknown #
point $-1 -43.559678945280311 -10.48787442553742 -13.774711236496209 #
point $-1 -43.559678945280311 -10.48787442553742 13.774711236496209 #
plane-surface $-1 0 0 13.774711236496209 0 0 1 1 0 0 forward_v I I I I #
coedge $-1 $359 $358 $351 $439 forward $239 $-1 #
coedge $-1 $351 $241 $243 $355 reversed $143 $-1 #
coedge $-1 $241 $350 $349 $439 reversed $143 $-1 #
coedge $-1 $249 $244 $241 $353 forward $250 $-1 #
edge $-1 $356 -22.628499542506727 $440 -10.621066116869841 $352 $441 forward 7 unknown #
coedge $-1 $243 $242 $359 $442 reversed $89 $-1 #
edge $-1 $443 8.8807605448725156e-015 $356 14.84200404948184 $350 $444 forward 7 unknown #
vertex $-1 $245 $445 #
straight-curve $-1 -11.557403206307661 -17.957908752092809 13.774711236496209 -1 0 0 I I #
coedge $-1 $349 $246 $249 $363 reversed $239 $-1 #
coedge $-1 $246 $349 $354 $442 forward $239 $-1 #
vertex $-1 $247 $446 #
straight-curve $-1 -16.292331710421966 -29.965342177729696 37.765920313739471 0 0 1 I I #
straight-curve $-1 -16.292331710421966 -29.965342177729703 5.0508000302921232 0 -0.80901698891910034 -0.5877852598018023 I I #
edge $-1 $440 -29.93728111480868 $251 -16.292331710421966 $358 $447 forward 7 unknown #
point $-1 -16.292331710421966 -29.965342177729696 13.774711236496209 #
point $-1 -16.292331710421966 -17.957908752092809 13.774711236496209 #
edge $-1 $448 1 $448 0 $254 $-1 forward 7 unknown #
vertex $-1 $255 $449 #
ellipse-curve $-1 -27.208291233931337 -22.161496108962556 6.9350901817195894 0 -0.5877852598018023 0.80901698891910034 1 0 0 1 I I #
point $-1 -26.208291233931337 -23.961625464911243 9.4127556333941591 #
edge $-1 $450 1 $450 0 $258 $-1 forward 7 unknown #
vertex $-1 $259 $451 #
ellipse-curve $-1 -23.114806412615323 -22.161496108962556 6.9350901817195894 0 -0.5877852598018023 0.80901698891910034 1 0 0 1 I I #
point $-1 -22.114806412615323 -23.961625464911243 9.4127556333941591 #
edge $-1 $452 1 $452 0 $262 $-1 forward 7 unknown #
vertex $-1 $263 $453 #
ellipse-curve $-1 -19.021321591299309 -22.161496108962556 6.9350901817195894 0 -0.5877852598018023 0.80901698891910034 1 0 0 1 I I #
point $-1 -18.021321591299309 -23.961625464911243 9.4127556333941591 #
plane-surface $-1 0 0 13.774711236496209 0 0 1 1 0 0 forward_v I I I I #
coedge $-1 $389 $388 $381 $454 forward $267 $-1 #
coedge $-1 $381 $269 $271 $385 reversed $172 $-1 #
coedge $-1 $269 $380 $379 $454 reversed $172 $-1 #
coedge $-1 $277 $272 $269 $383 forward $278 $-1 #
edge $-1 $386 -0.65585351298749828 $455 5.3700227715790589 $382 $456 forward 7 unknown #
coedge $-1 $271 $270 $389 $457 reversed $108 $-1 #
edge $-1 $458 -59.930684355459391 $386 -51.408808289767471 $380 $459 forward 7 unknown #
vertex $-1 $273 $460 #
straight-curve $-1 6.7490687009325825 23.939465893163142 13.774711236496209 1 0 0 I I #
coedge $-1 $379 $274 $277 $393 reversed $267 $-1 #
coedge $-1 $274 $379 $384 $457 forward $267 $-1 #
vertex $-1 $275 $461 #
straight-curve $-1 6.4466505953554183 29.965342177729696 55.864458317482558 0 0 1 I I #
straight-curve $-1 6.4466505953554183 -12.41205063948027 50.126228612680329 0 0.70710677298230451 -0.70710678939079041 I I #
edge $-1 $455 -20.549624208374912 $279 -6.4466505953554183 $388 $462 forward 7 unknown #
point $-1 6.4466505953554183 29.965342177729696 13.774711236496209 #
point $-1 6.4466505953554183 23.939465893163138 13.774711236496209 #
edge $-1 $463 1 $463 0 $282 $-1 forward 7 unknown #
vertex $-1 $283 $464 #
ellipse-curve $-1 9.2672453179593148 25.988745255770496 9.7981142669832746 0 0.70710678939079041 0.70710677298230451 0.5 0 0 1 I I #
point $-1 9.7672453179593148 26.952404035446403 10.761773024297378 #
edge $-1 $465 1 $465 0 $286 $-1 forward 7 unknown #
vertex $-1 $287 $466 #
ellipse-curve $-1 13.498137401865165 25.988745255770496 9.7981142669832746 0 0.70710678939079041 0.70710677298230451 0.5 0 0 1 I I #
point $-1 13.998137401865165 26.952404035446403 10.761773024297378 #
edge $-1 $467 1 $467 0 $290 $-1 forward 7 unknown #
vertex $-1 $291 $468 #
ellipse-curve $-1 17.729029485771008 25.988745255770496 9.7981142669832746 0 0.70710678939079041 0.70710677298230451 0.5 0 0 1 I I #
point $-1 18.229029485771008 26.952404035446403 10.761773024297378 #
plane-surface $-1 43.559678945280311 0 0 -1 0 0 0 0 1 forward_v I I I I #
coedge $-1 $299 $297 $301 $413 reversed $201 $-1 #
edge $-1 $312 -13.774711236496209 $415 13.774711236496209 $311 $469 forward 7 unknown #
vertex $-1 $413 $470 #
straight-curve $-1 -43.559678945280311 -29.965342177729696 0 0 0 -1 I I #
edge $-1 $411 -29.965342177729696 $415 29.965342177729696 $409 $471 forward 7 unknown #
straight-curve $-1 0 -29.965342177729696 -13.774711236496209 -1 0 0 I I #
vertex $-1 $304 $472 #
straight-curve $-1 0 29.965342177729696 -13.774711236496209 1 0 0 I I #
point $-1 43.559678945280311 29.965342177729696 -13.774711236496209 #
point $-1 43.559678945280311 -29.965342177729696 -13.774711236496209 #
straight-curve $-1 -43.559678945280311 0 13.774711236496209 0 -1 0 I I #
point $-1 -43.559678945280311 29.965342177729696 13.774711236496209 #
point $-1 -43.559678945280311 -29.965342177729696 13.774711236496209 #
straight-curve $-1 43.559678945280311 -29.965342177729696 0 0 0 -1 I I #
straight-curve $-1 43.559678945280311 29.965342177729696 0 0 0 -1 I I #
plane-surface $-1 -43.559678945280311 0 0 1 0 0 0 0 -1 forward_v I I I I #
edge $-1 $333 -0.81002882783139718 $337 7.2619258929687458 $336 $473 forward 7 unknown #
edge $-1 $341 -7.2619258929687458 $332 0.81002882783139718 $339 $474 forward 7 unknown #
straight-curve $-1 -29.93728111480868 -10.48787442553742 0 0 0 -1 I I #
edge $-1 $431 -13.774711236496209 $429 13.774711236496209 $343 $475 forward 7 unknown #
vertex $-1 $428 $476 #
straight-curve $-1 -18.374240015022249 -2.4159197047372771 -13.774711236496209 1 0 0 I I #
vertex $-1 $344 $477 #
straight-curve $-1 -18.374240015022249 -2.4159197047372771 13.774711236496209 -1 0 0 I I #
point $-1 -29.93728111480868 -2.4159197047372771 13.774711236496209 #
point $-1 -29.93728111480868 -2.4159197047372771 -13.774711236496209 #
point $-1 -29.93728111480868 -10.48787442553742 -13.774711236496209 #
point $-1 -29.93728111480868 -10.48787442553742 13.774711236496209 #
straight-curve $-1 -43.559678945280311 0 13.774711236496209 0 -1 0 I I #
straight-curve $-1 -43.559678945280311 0 -13.774711236496209 0 1 0 I I #
edge $-1 $440 23.991209077243262 $443 32.715120283447341 $349 $478 forward 7 unknown #
vertex $-1 $363 $479 #
straight-curve $-1 -29.93728111480868 -40.586408294599536 13.774711236496209 0 -1 0 I I #
edge $-1 $443 -18.379877908501019 $360 -4.7349285041143041 $359 $480 forward 7 unknown #
vertex $-1 $442 $481 #
straight-curve $-1 -29.93728111480868 -29.965342177729703 5.0508000302921232 0 0.80901698891910034 0.5877852598018023 I I #
point $-1 -29.93728111480868 -17.957908752092809 13.774711236496209 #
point $-1 -16.292331710421966 -29.965342177729696 5.0508000302921285 #
straight-curve $-1 0 -29.965342177729696 13.774711236496209 1 0 0 I I #
vertex $-1 $366 $482 #
point $-1 -26.208291233931337 -22.161496108962556 6.9350901817195894 #
vertex $-1 $370 $483 #
point $-1 -22.114806412615323 -22.161496108962556 6.9350901817195894 #
vertex $-1 $374 $484 #
point $-1 -18.021321591299309 -22.161496108962556 6.9350901817195894 #
edge $-1 $455 42.089747080986349 $458 48.115623505383979 $379 $485 forward 7 unknown #
vertex $-1 $393 $486 #
straight-curve $-1 20.549624208374912 24.595319406150637 13.774711236496209 0 1 0 I I #
edge $-1 $458 -13.800555507442329 $390 0.3024181055771642 $389 $487 forward 7 unknown #
vertex $-1 $457 $488 #
straight-curve $-1 20.549624208374912 -12.41205063948027 50.126228612680329 0 -0.70710677298230451 0.70710678939079041 I I #
point $-1 20.549624208374912 23.939465893163138 13.774711236496209 #
point $-1 6.4466505953554183 29.965342177729696 7.7488348120985791 #
straight-curve $-1 0 29.965342177729696 13.774711236496209 -1 0 0 I I #
vertex $-1 $396 $489 #
point $-1 9.7672453179593148 25.988745255770496 9.7981142669832746 #
vertex $-1 $400 $490 #
point $-1 13.998137401865165 25.988745255770496 9.7981142669832746 #
vertex $-1 $404 $491 #
point $-1 18.229029485771008 25.988745255770496 9.7981142669832746 #
straight-curve $-1 -43.559678945280311 29.965342177729696 0 0 0 -1 I I #
point $-1 -43.559678945280311 -29.965342177729696 -13.774711236496209 #
straight-curve $-1 -43.559678945280311 0 -13.774711236496209 0 1 0 I I #
point $-1 -43.559678945280311 29.965342177729696 -13.774711236496209 #
straight-curve $-1 -29.93728111480868 -3.2259485325686743 -13.774711236496209 0 -1 0 I I #
straight-curve $-1 -29.93728111480868 -3.2259485325686743 13.774711236496209 0 1 0 I I #
straight-curve $-1 -43.559678945280311 -2.4159197047372771 0 0 0 -1 I I #
point $-1 -43.559678945280311 -2.4159197047372771 -13.774711236496209 #
point $-1 -43.559678945280311 -2.4159197047372771 13.774711236496209 #
straight-curve $-1 -29.93728111480868 -29.965342177729696 37.765920313739471 0 0 -1 I I #
point $-1 -29.93728111480868 -29.965342177729696 13.774711236496209 #
straight-curve $-1 -11.557403206307661 -29.965342177729696 5.0508000302921277 1 0 0 I I #
point $-1 -29.93728111480868 -29.965342177729696 5.0508000302921285 #
point $-1 -27.208291233931337 -21.573710849160751 6.1260731928004883 #
point $-1 -23.114806412615323 -21.573710849160751 6.1260731928004883 #
point $-1 -19.021321591299309 -21.573710849160751 6.1260731928004883 #
straight-curve $-1 20.549624208374912 29.965342177729696 55.864458317482558 0 0 -1 I I #
point $-1 20.549624208374912 29.965342177729696 13.774711236496209 #
straight-curve $-1 6.7490687009325825 29.965342177729696 7.7488348120985755 -1 0 0 I I #
point $-1 20.549624208374912 29.965342177729696 7.7488348120985791 #
point $-1 9.2672453179593148 25.6351918610751 9.4445608804921211 #
point $-1 13.498137401865165 25.6351918610751 9.4445608804921211 #
point $-1 17.729029485771008 25.6351918610751 9.4445608804921211 #
End-of-ACIS-data 