500 0 11 0           
7 Unknown 11 ACIS 5.0 NT 24 Thu Mar 25 17:39:59 1999 
-1 9.9999999999999995e-007 1e-010 
body $-1 $11 $-1 $12 #
body $-1 $13 $-1 $14 #
body $-1 $15 $-1 $16 #
body $-1 $17 $-1 $18 #
body $-1 $19 $-1 $20 #
body $-1 $21 $-1 $22 #
body $-1 $23 $-1 $24 #
body $-1 $25 $-1 $26 #
body $-1 $27 $-1 $28 #
body $-1 $29 $-1 $30 #
body $-1 $31 $-1 $32 #
lump $-1 $-1 $33 $0 #
transform $-1 1 0 0 0 1 0 0 0 1 46.153752250740077 22.155970237692379 5.4208999601002104 1 rotate no_reflect no_shear #
lump $-1 $-1 $34 $1 #
transform $-1 1 0 0 0 1 0 0 0 1 46.153752250740077 22.155970237692379 5.4208999601002104 1 rotate no_reflect no_shear #
lump $-1 $-1 $35 $2 #
transform $-1 1 0 0 0 1 0 0 0 1 46.153752250740077 22.155970237692379 5.4208999601002104 1 rotate no_reflect no_shear #
lump $-1 $-1 $36 $3 #
transform $-1 1 0 0 0 1 0 0 0 1 46.153752250740077 22.155970237692379 5.4208999601002104 1 rotate no_reflect no_shear #
lump $-1 $-1 $37 $4 #
transform $-1 1 0 0 0 1 0 0 0 1 46.153752250740077 22.155970237692379 5.4208999601002104 1 rotate no_reflect no_shear #
lump $-1 $-1 $38 $5 #
transform $-1 1 0 0 0 1 0 0 0 1 46.153752250740077 22.155970237692379 5.4208999601002104 1 rotate no_reflect no_shear #
lump $-1 $-1 $39 $6 #
transform $-1 1 0 0 0 1 0 0 0 1 46.153752250740077 22.155970237692379 5.4208999601002104 1 rotate no_reflect no_shear #
lump $-1 $-1 $40 $7 #
transform $-1 1 0 0 0 1 0 0 0 1 46.153752250740077 22.155970237692379 5.4208999601002104 1 rotate no_reflect no_shear #
lump $-1 $-1 $41 $8 #
transform $-1 1 0 0 0 1 0 0 0 1 46.153752250740077 22.155970237692379 5.4208999601002104 1 rotate no_reflect no_shear #
lump $-1 $-1 $42 $9 #
transform $-1 1 0 0 0 1 0 0 0 1 46.153752250740077 22.155970237692379 5.4208999601002104 1 rotate no_reflect no_shear #
lump $-1 $-1 $43 $10 #
transform $-1 1 0 0 0 1 0 0 0 1 46.153752250740077 22.155970237692379 5.4208999601002104 1 rotate no_reflect no_shear #
shell $-1 $-1 $-1 $44 $-1 $11 #
shell $-1 $-1 $-1 $45 $-1 $13 #
shell $-1 $-1 $-1 $46 $-1 $15 #
shell $-1 $-1 $-1 $47 $-1 $17 #
shell $-1 $-1 $-1 $48 $-1 $19 #
shell $-1 $-1 $-1 $49 $-1 $21 #
shell $-1 $-1 $-1 $50 $-1 $23 #
shell $-1 $-1 $-1 $51 $-1 $25 #
shell $-1 $-1 $-1 $52 $-1 $27 #
shell $-1 $-1 $-1 $53 $-1 $29 #
shell $-1 $-1 $-1 $54 $-1 $31 #
face $-1 $55 $56 $33 $-1 $57 forward single #
face $-1 $58 $59 $34 $-1 $60 forward single #
face $-1 $61 $62 $35 $-1 $63 forward single #
face $-1 $64 $65 $36 $-1 $66 reversed single #
face $-1 $67 $68 $37 $-1 $69 forward single #
face $-1 $70 $71 $38 $-1 $72 reversed single #
face $-1 $73 $74 $39 $-1 $75 forward single #
face $-1 $76 $77 $40 $-1 $78 reversed single #
face $-1 $79 $80 $41 $-1 $81 forward single #
face $-1 $82 $83 $42 $-1 $84 reversed single #
face $-1 $85 $86 $43 $-1 $87 forward single #
face $-1 $88 $89 $33 $-1 $90 reversed single #
loop $-1 $-1 $91 $44 #
plane-surface $-1 0 0 5.4208999601002104 0 0 1 1 0 0 forward_v I I I I #
face $-1 $92 $93 $34 $-1 $94 reversed single #
loop $-1 $-1 $95 $45 #
plane-surface $-1 0 -20.161197505830852 0.5969258095377572 0 0 1 1 0 0 forward_v I I I I #
face $-1 $96 $97 $35 $-1 $98 reversed single #
loop $-1 $-1 $99 $46 #
plane-surface $-1 0 22.155970237692379 0 0 -1 0 0 0 -1 forward_v I I I I #
face $-1 $100 $101 $36 $-1 $102 reversed single #
loop $-1 $-1 $103 $47 #
plane-surface $-1 -93.695632301353129 -15.148051815079826 80.034311745113783 0 1 0 -0.51503808176128008 0 0.85716729658548041 forward_v I I I I #
face $-1 $104 $105 $37 $-1 $106 forward single #
loop $-1 $107 $108 $48 #
cone-surface $-1 -41.481408296116562 -11.920197224655238 1.6353844433995226 0.51503808176128008 0 -0.85716729658548041 0.85716729658548041 0 0.51503808176128008 1 I I 0 1 1 forward I I I I #
face $-1 $109 $110 $38 $-1 $111 reversed single #
loop $-1 $-1 $112 $49 #
plane-surface $-1 -93.695632301353129 7.2153438524751685 80.034311745113783 0 1 0 -0.51503808176128008 0 0.85716729658548041 forward_v I I I I #
face $-1 $113 $114 $39 $-1 $115 forward single #
loop $-1 $116 $117 $50 #
cone-surface $-1 -41.481408296116562 10.443198442899757 1.6353844433995226 0.51503808176128008 0 -0.85716729658548041 0.85716729658548041 0 0.51503808176128008 1 I I 0 1 1 forward I I I I #
face $-1 $118 $119 $40 $-1 $120 reversed single #
loop $-1 $-1 $121 $51 #
plane-surface $-1 14.572658213267324 -8.6923426342306502 127.57619179572684 0 -1 0 -0.51503808176128008 0 -0.85716729658548041 forward_v I I I I #
face $-1 $122 $123 $41 $-1 $124 forward single #
loop $-1 $125 $126 $52 #
cone-surface $-1 41.481408296116555 -11.920197224655238 1.6353844433995315 -0.51503808176128008 0 -0.85716729658548041 0.85716729658548041 0 -0.51503808176128008 1 I I 0 1 1 forward I I I I #
face $-1 $127 $128 $42 $-1 $129 reversed single #
loop $-1 $-1 $130 $53 #
plane-surface $-1 14.572658213267324 13.671053033324345 127.57619179572684 0 -1 0 -0.51503808176128008 0 -0.85716729658548041 forward_v I I I I #
face $-1 $131 $132 $43 $-1 $133 forward single #
loop $-1 $134 $135 $54 #
cone-surface $-1 41.481408296116555 10.443198442899757 1.6353844433995315 -0.51503808176128008 0 -0.85716729658548041 0.85716729658548041 0 -0.51503808176128008 1 I I 0 1 1 forward I I I I #
face $-1 $136 $137 $33 $-1 $138 reversed single #
loop $-1 $-1 $139 $55 #
plane-surface $-1 0 0 -5.4208999601002104 0 0 1 1 0 0 forward_v I I I I #
coedge $-1 $140 $141 $142 $143 forward $56 $-1 #
face $-1 $144 $145 $34 $-1 $146 reversed single #
loop $-1 $-1 $147 $58 #
plane-surface $-1 0 -20.161197505830852 -2.4030741904622426 0 0 1 1 0 0 forward_v I I I I #
coedge $-1 $148 $149 $150 $151 reversed $59 $-1 #
face $-1 $152 $153 $35 $-1 $154 forward single #
loop $-1 $-1 $155 $61 #
plane-surface $-1 -46.153752250740077 0 0 1 0 0 0 0 -1 forward_v I I I I #
coedge $-1 $156 $157 $158 $159 forward $62 $-1 #
face $-1 $160 $161 $36 $-1 $162 reversed single #
loop $-1 $-1 $163 $64 #
plane-surface $-1 -46.153752250740062 -11.920197224655238 0.9113376570279712 -0.51503808176128008 0 0.85716729658548041 0.85716729658548041 0 0.51503808176128008 forward_v I I I I #
coedge $-1 $164 $165 $166 $167 reversed $65 $-1 #
face $-1 $-1 $168 $37 $-1 $169 forward single #
loop $-1 $170 $171 $67 #
cone-surface $-1 -40.304131240364185 -11.920197224655238 -0.32393357005779411 0.51503808176128008 0 -0.85716729658548041 0.4285836482927402 0 0.25751904088064004 1 I I -0.70710678118654746 0.70710678118654746 0.5 forward I I I I #
loop $-1 $-1 $172 $48 #
coedge $-1 $108 $108 $173 $174 reversed $68 $-1 #
face $-1 $175 $176 $38 $-1 $177 reversed single #
loop $-1 $-1 $178 $70 #
plane-surface $-1 -46.153752250740062 10.443198442899757 0.9113376570279712 -0.51503808176128008 0 0.85716729658548041 0.85716729658548041 0 0.51503808176128008 forward_v I I I I #
coedge $-1 $179 $180 $181 $182 reversed $71 $-1 #
face $-1 $-1 $183 $39 $-1 $184 forward single #
loop $-1 $185 $186 $73 #
cone-surface $-1 -40.304131240364185 10.443198442899757 -0.32393357005779411 0.51503808176128008 0 -0.85716729658548041 0.4285836482927402 0 0.25751904088064004 1 I I -0.70710678118654746 0.70710678118654746 0.5 forward I I I I #
loop $-1 $-1 $187 $50 #
coedge $-1 $117 $117 $188 $189 reversed $74 $-1 #
face $-1 $190 $191 $40 $-1 $192 reversed single #
loop $-1 $-1 $193 $76 #
plane-surface $-1 -32.969221837345742 -11.920197224655238 48.453217707641031 0.51503808176128008 0 0.85716729658548041 0.85716729658548041 0 -0.51503808176128008 forward_v I I I I #
coedge $-1 $194 $195 $196 $197 reversed $77 $-1 #
face $-1 $-1 $198 $41 $-1 $199 forward single #
loop $-1 $200 $201 $79 #
cone-surface $-1 40.304131240364178 -11.920197224655238 -0.32393357005778523 -0.51503808176128008 0 -0.85716729658548041 0.4285836482927402 0 -0.25751904088064004 1 I I -0.70710678118654746 0.70710678118654746 0.5 forward I I I I #
loop $-1 $-1 $202 $52 #
coedge $-1 $126 $126 $203 $204 reversed $80 $-1 #
face $-1 $205 $206 $42 $-1 $207 reversed single #
loop $-1 $-1 $208 $82 #
plane-surface $-1 -32.969221837345742 10.443198442899757 48.453217707641031 0.51503808176128008 0 0.85716729658548041 0.85716729658548041 0 -0.51503808176128008 forward_v I I I I #
coedge $-1 $209 $210 $211 $212 reversed $83 $-1 #
face $-1 $-1 $213 $43 $-1 $214 forward single #
loop $-1 $215 $216 $85 #
cone-surface $-1 40.304131240364178 10.443198442899757 -0.32393357005778523 -0.51503808176128008 0 -0.85716729658548041 0.4285836482927402 0 -0.25751904088064004 1 I I -0.70710678118654746 0.70710678118654746 0.5 forward I I I I #
loop $-1 $-1 $217 $54 #
coedge $-1 $135 $135 $218 $219 reversed $86 $-1 #
face $-1 $220 $221 $33 $-1 $222 reversed single #
loop $-1 $-1 $223 $88 #
plane-surface $-1 0 -22.155970237692379 0 0 1 0 0 0 1 forward_v I I I I #
coedge $-1 $224 $225 $226 $227 forward $89 $-1 #
coedge $-1 $228 $91 $229 $230 forward $56 $-1 #
coedge $-1 $91 $228 $231 $232 forward $56 $-1 #
coedge $-1 $233 $234 $91 $143 reversed $235 $-1 #
edge $-1 $236 -22.155970237692379 $237 22.155970237692379 $142 $238 forward 7 unknown #
face $-1 $239 $240 $34 $-1 $241 reversed single #
loop $-1 $-1 $242 $92 #
plane-surface $-1 0 -18.166424773969325 -0.90307419046224258 0 -1 0 0 0 -1 forward_v I I I I #
coedge $-1 $243 $244 $245 $246 reversed $93 $-1 #
coedge $-1 $247 $95 $248 $249 forward $59 $-1 #
coedge $-1 $95 $247 $250 $251 reversed $59 $-1 #
coedge $-1 $252 $253 $95 $151 forward $254 $-1 #
edge $-1 $255 8.085826021053899 $256 12.075371484776953 $150 $257 forward 7 unknown #
face $-1 $258 $259 $35 $-1 $260 reversed single #
loop $-1 $-1 $261 $96 #
plane-surface $-1 0 24.889242360431645 3.2701469077303824 0 0 1 1 0 0 forward_v I I I I #
coedge $-1 $262 $263 $157 $264 forward $97 $-1 #
coedge $-1 $265 $99 $266 $267 reversed $62 $-1 #
coedge $-1 $99 $265 $155 $264 reversed $62 $-1 #
coedge $-1 $268 $269 $99 $159 reversed $259 $-1 #
edge $-1 $270 -46.153752250740077 $271 46.153752250740077 $158 $272 forward 7 unknown #
face $-1 $273 $274 $36 $-1 $275 reversed single #
loop $-1 $-1 $276 $100 #
plane-surface $-1 -93.695632301353129 -8.6923426342306502 80.034311745113783 0 -1 0 0.51503808176128008 0 -0.85716729658548041 forward_v I I I I #
coedge $-1 $277 $278 $279 $280 reversed $101 $-1 #
coedge $-1 $165 $103 $281 $282 reversed $65 $-1 #
coedge $-1 $103 $164 $277 $283 reversed $65 $-1 #
coedge $-1 $279 $284 $103 $167 forward $285 $-1 #
edge $-1 $286 0.69406389993648787 $287 8.1992357794400803 $166 $288 forward 7 unknown #
loop $-1 $-1 $173 $104 #
plane-surface $-1 -46.153752250740062 -11.920197224655238 0.9113376570279712 -0.51503808176128008 0 0.85716729658548041 0.85716729658548041 0 0.51503808176128008 forward_v I I I I #
loop $-1 $-1 $289 $67 #
coedge $-1 $171 $171 $172 $290 reversed $105 $-1 #
coedge $-1 $172 $172 $171 $290 forward $107 $-1 #
coedge $-1 $173 $173 $108 $174 forward $168 $-1 #
edge $-1 $291 0 $291 6.2831853071796004 $173 $292 forward 7 unknown #
face $-1 $293 $294 $38 $-1 $295 forward single #
loop $-1 $-1 $296 $109 #
plane-surface $-1 -93.695632301353129 13.671053033324345 80.034311745113783 0 -1 0 0.51503808176128008 0 -0.85716729658548041 forward_v I I I I #
coedge $-1 $297 $298 $299 $300 reversed $110 $-1 #
coedge $-1 $180 $112 $301 $302 reversed $71 $-1 #
coedge $-1 $112 $179 $297 $303 reversed $71 $-1 #
coedge $-1 $299 $304 $112 $182 forward $294 $-1 #
edge $-1 $305 0.69406389993648787 $306 8.1992357794400803 $181 $307 forward 7 unknown #
loop $-1 $-1 $188 $113 #
plane-surface $-1 -46.153752250740062 10.443198442899757 0.9113376570279712 -0.51503808176128008 0 0.85716729658548041 0.85716729658548041 0 0.51503808176128008 forward_v I I I I #
loop $-1 $-1 $308 $73 #
coedge $-1 $186 $186 $187 $309 reversed $114 $-1 #
coedge $-1 $187 $187 $186 $309 forward $116 $-1 #
coedge $-1 $188 $188 $117 $189 forward $183 $-1 #
edge $-1 $310 0 $310 6.2831853071796004 $188 $311 forward 7 unknown #
face $-1 $312 $313 $40 $-1 $314 forward single #
loop $-1 $-1 $315 $118 #
plane-surface $-1 14.572658213267324 -15.148051815079826 127.57619179572684 0 1 0 0.51503808176128008 0 0.85716729658548041 forward_v I I I I #
coedge $-1 $316 $317 $318 $319 reversed $119 $-1 #
coedge $-1 $195 $121 $320 $321 reversed $77 $-1 #
coedge $-1 $121 $194 $316 $322 reversed $77 $-1 #
coedge $-1 $318 $323 $121 $197 forward $313 $-1 #
edge $-1 $324 -38.867423144106411 $325 -31.362251264602815 $196 $326 forward 7 unknown #
loop $-1 $-1 $203 $122 #
plane-surface $-1 -32.969221837345742 -11.920197224655238 48.453217707641031 0.51503808176128008 0 0.85716729658548041 0.85716729658548041 0 -0.51503808176128008 forward_v I I I I #
loop $-1 $-1 $327 $79 #
coedge $-1 $201 $201 $202 $328 reversed $123 $-1 #
coedge $-1 $202 $202 $201 $328 forward $125 $-1 #
coedge $-1 $203 $203 $126 $204 forward $198 $-1 #
edge $-1 $329 0 $329 6.2831853071796004 $203 $330 forward 7 unknown #
face $-1 $331 $332 $42 $-1 $333 forward single #
loop $-1 $-1 $334 $127 #
plane-surface $-1 14.572658213267324 7.2153438524751685 127.57619179572684 0 1 0 0.51503808176128008 0 0.85716729658548041 forward_v I I I I #
coedge $-1 $335 $336 $337 $338 reversed $128 $-1 #
coedge $-1 $210 $130 $339 $340 reversed $83 $-1 #
coedge $-1 $130 $209 $335 $341 reversed $83 $-1 #
coedge $-1 $337 $342 $130 $212 forward $332 $-1 #
edge $-1 $343 -38.867423144106411 $344 -31.362251264602815 $211 $345 forward 7 unknown #
loop $-1 $-1 $218 $131 #
plane-surface $-1 -32.969221837345742 10.443198442899757 48.453217707641031 0.51503808176128008 0 0.85716729658548041 0.85716729658548041 0 -0.51503808176128008 forward_v I I I I #
loop $-1 $-1 $346 $85 #
coedge $-1 $216 $216 $217 $347 reversed $132 $-1 #
coedge $-1 $217 $217 $216 $347 forward $134 $-1 #
coedge $-1 $218 $218 $135 $219 forward $213 $-1 #
edge $-1 $348 0 $348 6.2831853071796004 $218 $349 forward 7 unknown #
face $-1 $350 $351 $33 $-1 $352 reversed single #
loop $-1 $-1 $353 $136 #
plane-surface $-1 -46.153752250740077 0 0 1 0 0 0 0 -1 forward_v I I I I #
coedge $-1 $354 $231 $355 $356 forward $137 $-1 #
coedge $-1 $357 $139 $354 $358 forward $89 $-1 #
coedge $-1 $139 $357 $359 $360 forward $89 $-1 #
coedge $-1 $234 $233 $139 $227 reversed $235 $-1 #
edge $-1 $361 -22.155970237692379 $362 22.155970237692379 $226 $363 forward 7 unknown #
coedge $-1 $141 $140 $364 $365 forward $56 $-1 #
coedge $-1 $366 $367 $140 $230 reversed $351 $-1 #
edge $-1 $237 -46.153752250740077 $368 46.153752250740077 $229 $369 forward 7 unknown #
coedge $-1 $223 $370 $141 $232 reversed $137 $-1 #
edge $-1 $371 -46.153752250740077 $236 46.153752250740077 $231 $372 forward 7 unknown #
coedge $-1 $226 $142 $370 $373 forward $235 $-1 #
coedge $-1 $142 $226 $366 $374 reversed $235 $-1 #
loop $-1 $-1 $233 $350 #
vertex $-1 $143 $375 #
vertex $-1 $143 $376 #
straight-curve $-1 46.153752250740077 0 5.4208999601002104 0 1 0 I I #
face $-1 $377 $378 $34 $-1 $379 reversed single #
loop $-1 $-1 $380 $144 #
plane-surface $-1 -46.153752250740077 0 0 1 0 0 0 0 -1 forward_v I I I I #
coedge $-1 $381 $248 $253 $382 reversed $145 $-1 #
coedge $-1 $383 $147 $384 $385 reversed $93 $-1 #
coedge $-1 $147 $383 $381 $386 forward $93 $-1 #
coedge $-1 $253 $252 $147 $246 forward $254 $-1 #
edge $-1 $387 -12.075371484776953 $388 -8.085826021053899 $245 $389 forward 7 unknown #
coedge $-1 $149 $148 $380 $390 reversed $59 $-1 #
coedge $-1 $242 $391 $148 $249 reversed $145 $-1 #
edge $-1 $255 -46.153752250740077 $392 46.153752250740077 $248 $393 forward 7 unknown #
coedge $-1 $394 $395 $149 $251 forward $378 $-1 #
edge $-1 $256 -46.153752250740077 $396 46.153752250740077 $250 $397 forward 7 unknown #
coedge $-1 $245 $150 $395 $398 forward $254 $-1 #
coedge $-1 $150 $245 $242 $382 forward $254 $-1 #
loop $-1 $-1 $150 $377 #
vertex $-1 $151 $399 #
vertex $-1 $398 $400 #
straight-curve $-1 46.153752250740077 -10.080598752915426 0.5969258095377572 0 -1 0 I I #
face $-1 $401 $402 $35 $-1 $403 reversed single #
loop $-1 $-1 $269 $152 #
plane-surface $-1 0 24.889242360431645 0.13460453449574805 0 0 1 1 0 0 forward_v I I I I #
coedge $-1 $404 $405 $406 $407 forward $153 $-1 #
coedge $-1 $408 $155 $409 $410 reversed $97 $-1 #
coedge $-1 $155 $408 $268 $411 reversed $97 $-1 #
edge $-1 $270 0.13460453449574805 $412 3.2701469077303824 $155 $413 forward 7 unknown #
coedge $-1 $157 $156 $405 $414 forward $62 $-1 #
coedge $-1 $415 $406 $156 $267 forward $416 $-1 #
edge $-1 $417 -3.2701469077303824 $271 -0.13460453449574805 $266 $418 forward 7 unknown #
coedge $-1 $419 $158 $263 $411 forward $259 $-1 #
coedge $-1 $158 $419 $415 $420 forward $259 $-1 #
vertex $-1 $264 $421 #
vertex $-1 $267 $422 #
straight-curve $-1 0 22.155970237692379 0.13460453449574805 1 0 0 I I #
face $-1 $-1 $285 $36 $-1 $423 forward single #
loop $-1 $-1 $424 $160 #
plane-surface $-1 -46.153752250740077 0 0 1 0 0 0 0 -1 forward_v I I I I #
coedge $-1 $425 $426 $427 $428 reversed $161 $-1 #
coedge $-1 $429 $163 $165 $283 forward $101 $-1 #
coedge $-1 $163 $429 $425 $430 forward $101 $-1 #
coedge $-1 $427 $166 $163 $280 forward $285 $-1 #
edge $-1 $287 -9.1879532027522082 $431 -2.7322440219030311 $279 $432 forward 7 unknown #
coedge $-1 $433 $434 $164 $282 forward $274 $-1 #
edge $-1 $435 -39.105818215528927 $286 -34.596255912456684 $281 $436 forward 7 unknown #
edge $-1 $287 -8.7557842085207582 $435 1.6583994872760861e-014 $165 $437 forward 7 unknown #
coedge $-1 $166 $427 $433 $438 forward $285 $-1 #
loop $-1 $-1 $427 $273 #
vertex $-1 $282 $439 #
vertex $-1 $167 $440 #
straight-curve $-1 -46.847816150676564 -15.148051815079826 5.4208999601002077 1 0 0 I I #
coedge $-1 $289 $289 $-1 $441 reversed $170 $-1 #
edge $-1 $442 0 $442 6.2831853071796004 $171 $443 forward 7 unknown #
vertex $-1 $174 $444 #
ellipse-curve $-1 -42.401166310988287 -11.920197224655238 3.1661188085640815 -0.51503808176128008 0 0.85716729658548041 0.85716729658548041 0 0.51503808176128008 1 I I #
face $-1 $-1 $445 $38 $-1 $446 reversed single #
loop $-1 $-1 $181 $175 #
plane-surface $-1 0 0 5.4208999601002104 0 0 1 1 0 0 forward_v I I I I #
coedge $-1 $447 $448 $449 $450 reversed $176 $-1 #
coedge $-1 $451 $178 $180 $303 forward $110 $-1 #
coedge $-1 $178 $451 $447 $452 forward $110 $-1 #
coedge $-1 $449 $181 $178 $300 forward $294 $-1 #
edge $-1 $306 1.9937446310252902 $453 8.4494538118744664 $299 $454 forward 7 unknown #
coedge $-1 $455 $456 $179 $302 forward $445 $-1 #
edge $-1 $457 -39.105818215528927 $305 -34.596255912456684 $301 $458 forward 7 unknown #
edge $-1 $306 -8.7557842085207582 $457 1.6583994872760861e-014 $180 $459 forward 7 unknown #
coedge $-1 $181 $449 $455 $460 forward $294 $-1 #
vertex $-1 $182 $461 #
vertex $-1 $182 $462 #
straight-curve $-1 -46.847816150676564 7.2153438524751685 5.4208999601002077 1 0 0 I I #
coedge $-1 $308 $308 $-1 $463 reversed $185 $-1 #
edge $-1 $464 0 $464 6.2831853071796004 $186 $465 forward 7 unknown #
vertex $-1 $189 $466 #
ellipse-curve $-1 -42.401166310988287 10.443198442899757 3.1661188085640815 -0.51503808176128008 0 0.85716729658548041 0.85716729658548041 0 0.51503808176128008 1 I I #
face $-1 $-1 $467 $40 $-1 $468 reversed single #
loop $-1 $-1 $196 $190 #
plane-surface $-1 0 0 5.4208999601002104 0 0 1 1 0 0 forward_v I I I I #
coedge $-1 $469 $470 $471 $472 reversed $191 $-1 #
coedge $-1 $473 $193 $195 $322 forward $119 $-1 #
coedge $-1 $193 $473 $469 $474 forward $119 $-1 #
coedge $-1 $471 $196 $193 $319 forward $313 $-1 #
edge $-1 $325 2.7322440219030311 $475 9.1879532027522082 $318 $476 forward 7 unknown #
coedge $-1 $477 $478 $194 $321 forward $467 $-1 #
edge $-1 $479 -62.876758240835457 $324 -58.367195937763213 $320 $480 forward 7 unknown #
edge $-1 $325 83.551720292959374 $479 92.307504501480153 $195 $481 forward 7 unknown #
coedge $-1 $196 $471 $477 $482 forward $313 $-1 #
vertex $-1 $197 $483 #
vertex $-1 $197 $484 #
straight-curve $-1 7.2863291066336622 -8.6923426342306502 5.4208999601002077 -1 0 0 I I #
coedge $-1 $327 $327 $-1 $485 reversed $200 $-1 #
edge $-1 $486 0 $486 6.2831853071796004 $201 $487 forward 7 unknown #
vertex $-1 $204 $488 #
ellipse-curve $-1 42.401166310988273 -11.920197224655238 3.1661188085640828 0.51503808176128008 0 0.85716729658548041 0.85716729658548041 0 -0.51503808176128008 1 I I #
face $-1 $-1 $489 $42 $-1 $490 reversed single #
loop $-1 $-1 $211 $205 #
plane-surface $-1 0 0 5.4208999601002104 0 0 1 1 0 0 forward_v I I I I #
coedge $-1 $491 $492 $493 $494 reversed $206 $-1 #
coedge $-1 $495 $208 $210 $341 forward $128 $-1 #
coedge $-1 $208 $495 $491 $496 forward $128 $-1 #
coedge $-1 $493 $211 $208 $338 forward $332 $-1 #
edge $-1 $344 -8.4494538118744664 $497 -1.9937446310252902 $337 $498 forward 7 unknown #
coedge $-1 $499 $500 $209 $340 forward $489 $-1 #
edge $-1 $501 -62.876758240835457 $343 -58.367195937763213 $339 $502 forward 7 unknown #
edge $-1 $344 83.551720292959374 $501 92.307504501480153 $210 $503 forward 7 unknown #
coedge $-1 $211 $493 $499 $504 forward $332 $-1 #
vertex $-1 $340 $505 #
vertex $-1 $212 $506 #
straight-curve $-1 7.2863291066336622 13.671053033324345 5.4208999601002077 -1 0 0 I I #
coedge $-1 $346 $346 $-1 $507 reversed $215 $-1 #
edge $-1 $508 0 $508 6.2831853071796004 $216 $509 forward 7 unknown #
vertex $-1 $219 $510 #
ellipse-curve $-1 42.401166310988273 10.443198442899757 3.1661188085640828 0.51503808176128008 0 0.85716729658548041 0.85716729658548041 0 -0.51503808176128008 1 I I #
face $-1 $-1 $235 $33 $-1 $511 reversed single #
loop $-1 $-1 $366 $220 #
plane-surface $-1 0 22.155970237692379 0 0 -1 0 0 0 -1 forward_v I I I I #
coedge $-1 $512 $364 $367 $513 forward $221 $-1 #
coedge $-1 $370 $223 $224 $358 reversed $137 $-1 #
coedge $-1 $364 $512 $223 $356 reversed $221 $-1 #
edge $-1 $371 -5.4208999601002104 $514 5.4208999601002104 $355 $515 forward 7 unknown #
coedge $-1 $225 $224 $512 $516 forward $89 $-1 #
edge $-1 $362 -46.153752250740077 $514 46.153752250740077 $354 $517 forward 7 unknown #
coedge $-1 $367 $366 $225 $360 reversed $351 $-1 #
edge $-1 $518 -46.153752250740077 $361 46.153752250740077 $359 $519 forward 7 unknown #
vertex $-1 $227 $520 #
vertex $-1 $373 $521 #
straight-curve $-1 46.153752250740077 0 -5.4208999601002104 0 -1 0 I I #
coedge $-1 $353 $355 $228 $365 reversed $221 $-1 #
edge $-1 $368 -22.155970237692379 $371 22.155970237692379 $364 $522 forward 7 unknown #
coedge $-1 $359 $229 $234 $374 forward $351 $-1 #
coedge $-1 $229 $359 $353 $513 reversed $351 $-1 #
vertex $-1 $230 $523 #
straight-curve $-1 0 22.155970237692379 5.4208999601002104 -1 0 0 I I #
coedge $-1 $231 $354 $233 $373 reversed $137 $-1 #
vertex $-1 $365 $524 #
straight-curve $-1 0 -22.155970237692379 5.4208999601002104 1 0 0 I I #
edge $-1 $236 -5.4208999601002104 $362 5.4208999601002104 $233 $525 forward 7 unknown #
edge $-1 $237 -5.4208999601002104 $361 5.4208999601002104 $234 $526 forward 7 unknown #
point $-1 46.153752250740077 -22.155970237692379 5.4208999601002104 #
point $-1 46.153752250740077 22.155970237692379 5.4208999601002104 #
face $-1 $-1 $254 $34 $-1 $527 reversed single #
loop $-1 $-1 $250 $239 #
plane-surface $-1 0 -22.155970237692379 0 0 1 0 0 0 1 forward_v I I I I #
coedge $-1 $528 $529 $247 $390 forward $240 $-1 #
coedge $-1 $391 $242 $244 $386 reversed $145 $-1 #
edge $-1 $388 -1.9515370952311213 $255 1.0484629047688785 $253 $530 forward 7 unknown #
coedge $-1 $244 $243 $531 $532 reversed $93 $-1 #
coedge $-1 $395 $394 $243 $385 forward $378 $-1 #
edge $-1 $533 -46.153752250740077 $387 46.153752250740077 $384 $534 forward 7 unknown #
edge $-1 $535 -46.153752250740077 $388 46.153752250740077 $381 $536 forward 7 unknown #
vertex $-1 $385 $537 #
vertex $-1 $246 $538 #
straight-curve $-1 46.153752250740077 -10.080598752915426 -2.4030741904622426 0 1 0 I I #
edge $-1 $396 -12.075371484776953 $392 -8.085826021053899 $380 $539 forward 7 unknown #
coedge $-1 $248 $381 $528 $540 reversed $145 $-1 #
vertex $-1 $390 $541 #
straight-curve $-1 0 -18.166424773969325 0.5969258095377572 -1 0 0 I I #
coedge $-1 $384 $250 $529 $542 forward $378 $-1 #
coedge $-1 $250 $384 $252 $398 reversed $378 $-1 #
vertex $-1 $542 $543 #
straight-curve $-1 0 -22.155970237692379 0.5969258095377572 -1 0 0 I I #
edge $-1 $256 -0.5969258095377572 $387 2.4030741904622426 $252 $544 forward 7 unknown #
point $-1 46.153752250740077 -18.166424773969325 0.5969258095377572 #
point $-1 46.153752250740077 -22.155970237692379 0.5969258095377572 #
face $-1 $-1 $416 $35 $-1 $545 reversed single #
loop $-1 $-1 $546 $258 #
plane-surface $-1 0 27.622514483170914 1.7023757211130652 0 -1 0 0 0 -1 forward_v I I I I #
coedge $-1 $409 $261 $547 $548 forward $153 $-1 #
coedge $-1 $261 $409 $265 $414 reversed $153 $-1 #
coedge $-1 $266 $549 $261 $407 reversed $416 $-1 #
edge $-1 $417 -2.7332721227392689 $550 2.7332721227392689 $406 $551 forward 7 unknown #
coedge $-1 $263 $262 $552 $553 forward $97 $-1 #
coedge $-1 $405 $404 $262 $410 forward $153 $-1 #
edge $-1 $554 -2.7332721227392689 $412 2.7332721227392689 $262 $555 forward 7 unknown #
edge $-1 $270 -2.7332721227392689 $556 2.7332721227392689 $263 $557 forward 7 unknown #
vertex $-1 $410 $558 #
straight-curve $-1 -46.153752250740077 22.155970237692379 0 0 0 1 I I #
edge $-1 $417 -46.153752250740077 $412 46.153752250740077 $405 $559 forward 7 unknown #
coedge $-1 $549 $266 $269 $420 reversed $416 $-1 #
loop $-1 $-1 $266 $401 #
vertex $-1 $267 $560 #
straight-curve $-1 46.153752250740077 22.155970237692379 0 0 0 -1 I I #
coedge $-1 $269 $268 $561 $562 forward $259 $-1 #
edge $-1 $563 -2.7332721227392689 $271 2.7332721227392689 $415 $564 forward 7 unknown #
point $-1 -46.153752250740077 22.155970237692376 0.13460453449574805 #
point $-1 46.153752250740077 22.155970237692376 0.13460453449574805 #
plane-surface $-1 0 0 5.4208999601002104 0 0 1 1 0 0 forward_v I I I I #
coedge $-1 $434 $433 $426 $565 forward $274 $-1 #
coedge $-1 $426 $276 $278 $430 reversed $161 $-1 #
coedge $-1 $276 $425 $424 $565 reversed $161 $-1 #
coedge $-1 $284 $279 $276 $428 forward $285 $-1 #
edge $-1 $431 -8.1992357794400803 $566 -0.69406389993648787 $427 $567 forward 7 unknown #
coedge $-1 $278 $277 $434 $568 reversed $101 $-1 #
edge $-1 $569 -1.6583994872760861e-014 $431 8.7557842085207582 $425 $570 forward 7 unknown #
vertex $-1 $280 $571 #
straight-curve $-1 -38.648580371236491 -5.9600986123276192 5.4208999601002104 0 1 0 I I #
coedge $-1 $424 $281 $284 $438 reversed $274 $-1 #
coedge $-1 $281 $424 $429 $568 forward $274 $-1 #
vertex $-1 $282 $572 #
straight-curve $-1 -46.153752250740077 -15.148051815079826 40.017155872556891 0 0 1 I I #
straight-curve $-1 -46.153752250740062 -15.148051815079826 0.9113376570279712 -0.85716729658548041 0 -0.51503808176128008 I I #
edge $-1 $566 8.6923426342306502 $286 15.148051815079826 $433 $573 forward 7 unknown #
point $-1 -46.153752250740077 -15.148051815079826 5.4208999601002104 #
point $-1 -38.648580371236484 -15.148051815079826 5.4208999601002104 #
edge $-1 $574 1 $574 0 $289 $-1 forward 7 unknown #
vertex $-1 $290 $575 #
ellipse-curve $-1 -40.561650281244823 -11.920197224655238 0.1046500782349461 -0.51503808176128008 0 0.85716729658548041 0.85716729658548041 0 0.51503808176128008 1 I I #
point $-1 -41.543999014402814 -11.920197224655238 3.6811568903253784 #
loop $-1 $-1 $301 $293 #
plane-surface $-1 -46.153752250740077 0 0 1 0 0 0 0 -1 forward_v I I I I #
coedge $-1 $448 $296 $298 $452 reversed $176 $-1 #
coedge $-1 $296 $447 $576 $577 reversed $176 $-1 #
coedge $-1 $304 $299 $296 $450 forward $294 $-1 #
edge $-1 $453 -8.1992357794400803 $578 -0.69406389993648787 $449 $579 forward 7 unknown #
coedge $-1 $298 $297 $456 $580 reversed $110 $-1 #
edge $-1 $581 -1.6583994872760861e-014 $453 8.7557842085207582 $447 $582 forward 7 unknown #
vertex $-1 $300 $583 #
straight-curve $-1 -38.648580371236491 5.2215992214498783 5.4208999601002104 0 1 0 I I #
coedge $-1 $576 $301 $304 $460 reversed $445 $-1 #
coedge $-1 $301 $576 $451 $580 forward $445 $-1 #
vertex $-1 $302 $584 #
straight-curve $-1 -46.153752250740077 7.2153438524751685 40.017155872556891 0 0 1 I I #
straight-curve $-1 -46.153752250740062 7.2153438524751685 0.9113376570279712 -0.85716729658548041 0 -0.51503808176128008 I I #
edge $-1 $578 -13.671053033324345 $305 -7.2153438524751685 $455 $585 forward 7 unknown #
point $-1 -46.153752250740077 7.2153438524751685 5.4208999601002104 #
point $-1 -38.648580371236484 7.2153438524751685 5.4208999601002104 #
edge $-1 $586 1 $586 0 $308 $-1 forward 7 unknown #
vertex $-1 $309 $587 #
ellipse-curve $-1 -40.561650281244823 10.443198442899757 0.1046500782349461 -0.51503808176128008 0 0.85716729658548041 0.85716729658548041 0 0.51503808176128008 1 I I #
point $-1 -41.543999014402814 10.443198442899757 3.6811568903253784 #
loop $-1 $-1 $320 $312 #
plane-surface $-1 46.153752250740077 0 0 -1 0 0 0 0 1 forward_v I I I I #
coedge $-1 $470 $315 $317 $474 reversed $191 $-1 #
coedge $-1 $315 $469 $588 $589 reversed $191 $-1 #
coedge $-1 $323 $318 $315 $472 forward $313 $-1 #
edge $-1 $475 31.362251264602815 $590 38.867423144106411 $471 $591 forward 7 unknown #
coedge $-1 $317 $316 $478 $592 reversed $119 $-1 #
edge $-1 $593 -92.307504501480153 $475 -83.551720292959374 $469 $594 forward 7 unknown #
vertex $-1 $319 $595 #
straight-curve $-1 38.648580371236491 -5.9600986123276192 5.4208999601002112 0 -1 0 I I #
coedge $-1 $588 $320 $323 $482 reversed $467 $-1 #
coedge $-1 $320 $588 $473 $592 forward $467 $-1 #
vertex $-1 $321 $596 #
straight-curve $-1 46.153752250740077 -8.6923426342306502 63.788095897863421 0 0 1 I I #
straight-curve $-1 -32.969221837345742 -8.6923426342306502 48.453217707641031 0.85716729658548041 0 -0.51503808176128008 I I #
edge $-1 $590 -15.148051815079826 $324 -8.6923426342306502 $477 $597 forward 7 unknown #
point $-1 46.153752250740077 -8.6923426342306502 5.4208999601002104 #
point $-1 38.648580371236477 -8.6923426342306502 5.4208999601002077 #
edge $-1 $598 1 $598 0 $327 $-1 forward 7 unknown #
vertex $-1 $328 $599 #
ellipse-curve $-1 40.561650281244816 -11.920197224655238 0.10465007823495498 0.51503808176128008 0 0.85716729658548041 0.85716729658548041 0 -0.51503808176128008 1 I I #
point $-1 43.258333607573775 -11.920197224655238 2.6510807268028276 #
loop $-1 $-1 $339 $331 #
plane-surface $-1 46.153752250740077 0 0 -1 0 0 0 0 1 forward_v I I I I #
coedge $-1 $492 $334 $336 $496 reversed $206 $-1 #
coedge $-1 $334 $491 $600 $601 reversed $206 $-1 #
coedge $-1 $342 $337 $334 $494 forward $332 $-1 #
edge $-1 $497 31.362251264602815 $602 38.867423144106411 $493 $603 forward 7 unknown #
coedge $-1 $336 $335 $500 $604 reversed $128 $-1 #
edge $-1 $605 -92.307504501480153 $497 -83.551720292959374 $491 $606 forward 7 unknown #
vertex $-1 $338 $607 #
straight-curve $-1 38.648580371236491 5.2215992214498783 5.4208999601002112 0 -1 0 I I #
coedge $-1 $600 $339 $342 $504 reversed $489 $-1 #
coedge $-1 $339 $600 $495 $604 forward $489 $-1 #
vertex $-1 $340 $608 #
straight-curve $-1 46.153752250740077 13.671053033324345 63.788095897863421 0 0 1 I I #
straight-curve $-1 -32.969221837345742 13.671053033324345 48.453217707641031 0.85716729658548041 0 -0.51503808176128008 I I #
edge $-1 $602 7.2153438524751685 $343 13.671053033324345 $499 $609 forward 7 unknown #
point $-1 46.153752250740077 13.671053033324345 5.4208999601002104 #
point $-1 38.648580371236477 13.671053033324345 5.4208999601002077 #
edge $-1 $610 1 $610 0 $346 $-1 forward 7 unknown #
vertex $-1 $347 $611 #
ellipse-curve $-1 40.561650281244816 10.443198442899757 0.10465007823495498 0.51503808176128008 0 0.85716729658548041 0.85716729658548041 0 -0.51503808176128008 1 I I #
point $-1 43.258333607573775 10.443198442899757 2.6510807268028276 #
plane-surface $-1 46.153752250740077 0 0 -1 0 0 0 0 1 forward_v I I I I #
coedge $-1 $355 $353 $357 $516 reversed $221 $-1 #
edge $-1 $368 -5.4208999601002104 $518 5.4208999601002104 $367 $612 forward 7 unknown #
vertex $-1 $516 $613 #
straight-curve $-1 -46.153752250740077 -22.155970237692379 0 0 0 -1 I I #
edge $-1 $514 -22.155970237692379 $518 22.155970237692379 $512 $614 forward 7 unknown #
straight-curve $-1 0 -22.155970237692379 -5.4208999601002104 -1 0 0 I I #
vertex $-1 $360 $615 #
straight-curve $-1 0 22.155970237692379 -5.4208999601002104 1 0 0 I I #
point $-1 46.153752250740077 22.155970237692379 -5.4208999601002104 #
point $-1 46.153752250740077 -22.155970237692379 -5.4208999601002104 #
straight-curve $-1 -46.153752250740077 0 5.4208999601002104 0 -1 0 I I #
point $-1 -46.153752250740077 22.155970237692379 5.4208999601002104 #
point $-1 -46.153752250740077 -22.155970237692379 5.4208999601002104 #
straight-curve $-1 46.153752250740077 -22.155970237692379 0 0 0 -1 I I #
straight-curve $-1 46.153752250740077 22.155970237692379 0 0 0 -1 I I #
plane-surface $-1 46.153752250740077 0 0 -1 0 0 0 0 1 forward_v I I I I #
coedge $-1 $531 $380 $391 $540 forward $240 $-1 #
coedge $-1 $380 $531 $394 $542 reversed $240 $-1 #
straight-curve $-1 46.153752250740077 -18.166424773969325 -0.45153709523112129 0 0 1 I I #
coedge $-1 $529 $528 $383 $532 forward $240 $-1 #
edge $-1 $535 8.085826021053899 $533 12.075371484776953 $531 $616 forward 7 unknown #
vertex $-1 $385 $617 #
straight-curve $-1 0 -22.155970237692379 -2.4030741904622426 1 0 0 I I #
vertex $-1 $532 $618 #
straight-curve $-1 0 -18.166424773969325 -2.4030741904622426 1 0 0 I I #
point $-1 46.153752250740077 -22.155970237692379 -2.4030741904622426 #
point $-1 46.153752250740077 -18.166424773969325 -2.4030741904622426 #
straight-curve $-1 -46.153752250740077 -10.080598752915426 0.5969258095377572 0 1 0 I I #
edge $-1 $392 -1.0484629047688785 $535 1.9515370952311213 $528 $619 forward 7 unknown #
point $-1 -46.153752250740077 -18.166424773969325 0.5969258095377572 #
edge $-1 $396 -0.5969258095377572 $533 2.4030741904622426 $529 $620 forward 7 unknown #
point $-1 -46.153752250740077 -22.155970237692379 0.5969258095377572 #
straight-curve $-1 46.153752250740077 -22.155970237692379 0 0 0 -1 I I #
plane-surface $-1 46.153752250740077 0 0 -1 0 0 0 0 1 forward_v I I I I #
coedge $-1 $561 $547 $549 $621 forward $402 $-1 #
coedge $-1 $546 $552 $404 $548 reversed $402 $-1 #
edge $-1 $550 -46.153752250740077 $554 46.153752250740077 $547 $622 forward 7 unknown #
coedge $-1 $406 $415 $546 $621 reversed $416 $-1 #
vertex $-1 $407 $623 #
straight-curve $-1 46.153752250740077 24.889242360431645 3.2701469077303824 0 1 0 I I #
coedge $-1 $547 $561 $408 $553 reversed $402 $-1 #
edge $-1 $554 -1.5677711866173172 $556 1.5677711866173172 $552 $624 forward 7 unknown #
vertex $-1 $548 $625 #
straight-curve $-1 -46.153752250740077 24.889242360431645 3.2701469077303824 0 -1 0 I I #
vertex $-1 $562 $626 #
straight-curve $-1 -46.153752250740077 24.889242360431645 0.13460453449574805 0 1 0 I I #
point $-1 -46.153752250740077 22.155970237692376 3.2701469077303824 #
straight-curve $-1 0 22.155970237692379 3.2701469077303824 -1 0 0 I I #
point $-1 46.153752250740077 22.155970237692376 3.2701469077303824 #
coedge $-1 $552 $546 $419 $562 reversed $402 $-1 #
edge $-1 $556 -46.153752250740077 $563 46.153752250740077 $561 $627 forward 7 unknown #
vertex $-1 $420 $628 #
straight-curve $-1 46.153752250740077 24.889242360431645 0.13460453449574805 0 -1 0 I I #
edge $-1 $566 34.596255912456684 $569 39.105818215528927 $424 $629 forward 7 unknown #
vertex $-1 $438 $630 #
straight-curve $-1 -46.847816150676564 -8.6923426342306502 5.4208999601002077 -1 0 0 I I #
edge $-1 $569 2.7322440219030311 $435 9.1879532027522082 $434 $631 forward 7 unknown #
vertex $-1 $568 $632 #
straight-curve $-1 -46.153752250740062 -8.6923426342306502 0.9113376570279712 0.85716729658548041 0 0.51503808176128008 I I #
point $-1 -38.648580371236484 -8.6923426342306502 5.4208999601002104 #
point $-1 -46.153752250740077 -15.148051815079826 0.91133765702796266 #
straight-curve $-1 -46.153752250740077 0 5.4208999601002104 0 -1 0 I I #
vertex $-1 $441 $633 #
point $-1 -39.704482984659343 -11.920197224655238 0.61968815999622617 #
coedge $-1 $456 $455 $448 $577 forward $445 $-1 #
edge $-1 $578 34.596255912456684 $581 39.105818215528927 $576 $634 forward 7 unknown #
vertex $-1 $460 $635 #
straight-curve $-1 -46.847816150676564 13.671053033324345 5.4208999601002077 -1 0 0 I I #
edge $-1 $581 -8.4494538118744664 $457 -1.9937446310252902 $456 $636 forward 7 unknown #
vertex $-1 $580 $637 #
straight-curve $-1 -46.153752250740062 13.671053033324345 0.9113376570279712 0.85716729658548041 0 0.51503808176128008 I I #
point $-1 -38.648580371236484 13.671053033324345 5.4208999601002104 #
point $-1 -46.153752250740077 7.2153438524751685 0.91133765702796266 #
straight-curve $-1 -46.153752250740077 0 5.4208999601002104 0 -1 0 I I #
vertex $-1 $463 $638 #
point $-1 -39.704482984659343 10.443198442899757 0.61968815999622617 #
coedge $-1 $478 $477 $470 $589 forward $467 $-1 #
edge $-1 $590 58.367195937763213 $593 62.876758240835457 $588 $639 forward 7 unknown #
vertex $-1 $482 $640 #
straight-curve $-1 7.2863291066336622 -15.148051815079826 5.4208999601002077 1 0 0 I I #
edge $-1 $593 -9.1879532027522082 $479 -2.7322440219030311 $478 $641 forward 7 unknown #
vertex $-1 $592 $642 #
straight-curve $-1 -32.969221837345742 -15.148051815079826 48.453217707641031 -0.85716729658548041 0 0.51503808176128008 I I #
point $-1 38.648580371236477 -15.148051815079826 5.4208999601002077 #
point $-1 46.153752250740069 -8.6923426342306502 0.9113376570279641 #
straight-curve $-1 46.153752250740077 0 5.4208999601002104 0 1 0 I I #
vertex $-1 $485 $643 #
point $-1 41.418817577830296 -11.920197224655238 -0.4103880035263251 #
coedge $-1 $500 $499 $492 $601 forward $489 $-1 #
edge $-1 $602 58.367195937763213 $605 62.876758240835457 $600 $644 forward 7 unknown #
vertex $-1 $504 $645 #
straight-curve $-1 7.2863291066336622 7.2153438524751685 5.4208999601002077 1 0 0 I I #
edge $-1 $605 1.9937446310252902 $501 8.4494538118744664 $500 $646 forward 7 unknown #
vertex $-1 $604 $647 #
straight-curve $-1 -32.969221837345742 7.2153438524751685 48.453217707641031 -0.85716729658548041 0 0.51503808176128008 I I #
point $-1 38.648580371236477 7.2153438524751685 5.4208999601002077 #
point $-1 46.153752250740069 13.671053033324345 0.9113376570279641 #
straight-curve $-1 46.153752250740077 0 5.4208999601002104 0 1 0 I I #
vertex $-1 $507 $648 #
point $-1 41.418817577830296 10.443198442899757 -0.4103880035263251 #
straight-curve $-1 -46.153752250740077 22.155970237692379 0 0 0 -1 I I #
point $-1 -46.153752250740077 -22.155970237692379 -5.4208999601002104 #
straight-curve $-1 -46.153752250740077 0 -5.4208999601002104 0 1 0 I I #
point $-1 -46.153752250740077 22.155970237692379 -5.4208999601002104 #
straight-curve $-1 -46.153752250740077 -10.080598752915426 -2.4030741904622426 0 -1 0 I I #
point $-1 -46.153752250740077 -22.155970237692379 -2.4030741904622426 #
point $-1 -46.153752250740077 -18.166424773969325 -2.4030741904622426 #
straight-curve $-1 -46.153752250740077 -18.166424773969325 -0.45153709523112129 0 0 -1 I I #
straight-curve $-1 -46.153752250740077 -22.155970237692379 0 0 0 -1 I I #
edge $-1 $550 -1.5677711866173172 $563 1.5677711866173172 $549 $649 forward 7 unknown #
straight-curve $-1 0 27.622514483170914 3.2701469077303824 -1 0 0 I I #
point $-1 46.153752250740077 27.622514483170914 3.2701469077303824 #
straight-curve $-1 -46.153752250740077 27.622514483170914 1.7023757211130652 0 0 -1 I I #
point $-1 -46.153752250740077 27.622514483170914 3.2701469077303824 #
point $-1 -46.153752250740077 27.622514483170914 0.13460453449574805 #
straight-curve $-1 0 27.622514483170914 0.13460453449574805 1 0 0 I I #
point $-1 46.153752250740077 27.622514483170914 0.13460453449574805 #
straight-curve $-1 -46.153752250740077 -8.6923426342306502 40.017155872556891 0 0 -1 I I #
point $-1 -46.153752250740077 -8.6923426342306502 5.4208999601002104 #
straight-curve $-1 -46.153752250740077 -5.9600986123276192 0.91133765702796399 0 -1 0 I I #
point $-1 -46.153752250740077 -8.6923426342306502 0.91133765702796266 #
point $-1 -40.046612199483548 -11.920197224655238 -0.75251721835053431 #
straight-curve $-1 -46.153752250740077 13.671053033324345 40.017155872556891 0 0 -1 I I #
point $-1 -46.153752250740077 13.671053033324345 5.4208999601002104 #
straight-curve $-1 -46.153752250740077 5.2215992214498783 0.91133765702796399 0 -1 0 I I #
point $-1 -46.153752250740077 13.671053033324345 0.91133765702796266 #
point $-1 -40.046612199483548 10.443198442899757 -0.75251721835053431 #
straight-curve $-1 46.153752250740077 -15.148051815079826 63.788095897863421 0 0 -1 I I #
point $-1 46.153752250740077 -15.148051815079826 5.4208999601002104 #
straight-curve $-1 46.153752250740077 -5.9600986123276192 0.91133765702796055 0 1 0 I I #
point $-1 46.153752250740069 -15.148051815079826 0.9113376570279641 #
point $-1 40.04661219948354 -11.920197224655238 -0.75251721835052543 #
straight-curve $-1 46.153752250740077 7.2153438524751685 63.788095897863421 0 0 -1 I I #
point $-1 46.153752250740077 7.2153438524751685 5.4208999601002104 #
straight-curve $-1 46.153752250740077 5.2215992214498783 0.91133765702796055 0 1 0 I I #
point $-1 46.153752250740069 7.2153438524751685 0.9113376570279641 #
point $-1 40.04661219948354 10.443198442899757 -0.75251721835052543 #
straight-curve $-1 46.153752250740077 27.622514483170914 1.7023757211130652 0 0 -1 I I #
End-of-ACIS-data 