500 0 11 0           
7 Unknown 11 ACIS 5.0 NT 24 Thu Mar 25 15:57:25 1999 
-1 9.9999999999999995e-007 1e-010 
body $-1 $11 $-1 $12 #
body $-1 $13 $-1 $14 #
body $-1 $15 $-1 $16 #
body $-1 $17 $-1 $18 #
body $-1 $19 $-1 $20 #
body $-1 $21 $-1 $22 #
body $-1 $23 $-1 $24 #
body $-1 $25 $-1 $26 #
body $-1 $27 $-1 $28 #
body $-1 $29 $-1 $30 #
body $-1 $31 $-1 $32 #
lump $-1 $-1 $33 $0 #
transform $-1 1 0 0 0 1 0 0 0 1 57.716605121005891 24.250767672489786 5.7609172509738613 1 rotate no_reflect no_shear #
lump $-1 $-1 $34 $1 #
transform $-1 1 0 0 0 1 0 0 0 1 57.716605121005891 24.250767672489786 5.7609172509738613 1 rotate no_reflect no_shear #
lump $-1 $-1 $35 $2 #
transform $-1 1 0 0 0 1 0 0 0 1 57.716605121005891 24.250767672489786 5.7609172509738613 1 rotate no_reflect no_shear #
lump $-1 $-1 $36 $3 #
transform $-1 1 0 0 0 1 0 0 0 1 57.716605121005891 24.250767672489786 5.7609172509738613 1 rotate no_reflect no_shear #
lump $-1 $-1 $37 $4 #
transform $-1 1 0 0 0 1 0 0 0 1 57.716605121005891 24.250767672489786 5.7609172509738613 1 rotate no_reflect no_shear #
lump $-1 $-1 $38 $5 #
transform $-1 1 0 0 0 1 0 0 0 1 57.716605121005891 24.250767672489786 5.7609172509738613 1 rotate no_reflect no_shear #
lump $-1 $-1 $39 $6 #
transform $-1 1 0 0 0 1 0 0 0 1 57.716605121005891 24.250767672489786 5.7609172509738613 1 rotate no_reflect no_shear #
lump $-1 $-1 $40 $7 #
transform $-1 1 0 0 0 1 0 0 0 1 57.716605121005891 24.250767672489786 5.7609172509738613 1 rotate no_reflect no_shear #
lump $-1 $-1 $41 $8 #
transform $-1 1 0 0 0 1 0 0 0 1 57.716605121005891 24.250767672489786 5.7609172509738613 1 rotate no_reflect no_shear #
lump $-1 $-1 $42 $9 #
transform $-1 1 0 0 0 1 0 0 0 1 57.716605121005891 24.250767672489786 5.7609172509738613 1 rotate no_reflect no_shear #
lump $-1 $-1 $43 $10 #
transform $-1 1 0 0 0 1 0 0 0 1 57.716605121005891 24.250767672489786 5.7609172509738613 1 rotate no_reflect no_shear #
shell $-1 $-1 $-1 $44 $-1 $11 #
shell $-1 $-1 $-1 $45 $-1 $13 #
shell $-1 $-1 $-1 $46 $-1 $15 #
shell $-1 $-1 $-1 $47 $-1 $17 #
shell $-1 $-1 $-1 $48 $-1 $19 #
shell $-1 $-1 $-1 $49 $-1 $21 #
shell $-1 $-1 $-1 $50 $-1 $23 #
shell $-1 $-1 $-1 $51 $-1 $25 #
shell $-1 $-1 $-1 $52 $-1 $27 #
shell $-1 $-1 $-1 $53 $-1 $29 #
shell $-1 $-1 $-1 $54 $-1 $31 #
face $-1 $55 $56 $33 $-1 $57 forward single #
face $-1 $58 $59 $34 $-1 $60 reversed single #
face $-1 $61 $62 $35 $-1 $63 reversed single #
face $-1 $64 $65 $36 $-1 $66 forward single #
face $-1 $67 $68 $37 $-1 $69 forward single #
face $-1 $70 $71 $38 $-1 $72 reversed single #
face $-1 $73 $74 $39 $-1 $75 forward single #
face $-1 $76 $77 $40 $-1 $78 forward single #
face $-1 $79 $80 $41 $-1 $81 reversed single #
face $-1 $82 $83 $42 $-1 $84 forward single #
face $-1 $85 $86 $43 $-1 $87 forward single #
face $-1 $88 $89 $33 $-1 $90 reversed single #
loop $-1 $-1 $91 $44 #
plane-surface $-1 0 0 5.7609172509738613 0 0 1 1 0 0 forward_v I I I I #
face $-1 $92 $93 $34 $-1 $94 reversed single #
loop $-1 $-1 $95 $45 #
plane-surface $-1 0 -21.90036723336241 2.7152808015393637 0 0 1 1 0 0 forward_v I I I I #
face $-1 $96 $97 $35 $-1 $98 reversed single #
loop $-1 $-1 $99 $46 #
plane-surface $-1 20.993974093950335 19.95896691670854 159.91092691817317 0 -1 0 -0.52991927123019833 0 -0.84804809178421925 forward_v I I I I #
face $-1 $100 $101 $36 $-1 $102 forward single #
loop $-1 $103 $104 $47 #
cone-surface $-1 53.280992439562816 14.210461435246707 2.497368649757111 -0.52991927123019833 0 -0.84804809178421925 0.42402404589210962 0 -0.26495963561509916 1 I I 0 1 0.5 forward I I I I #
face $-1 $105 $106 $37 $-1 $107 forward single #
loop $-1 $108 $109 $48 #
cone-surface $-1 53.280992439562816 17.659564724123811 2.497368649757111 -0.52991927123019833 0 -0.84804809178421925 0.42402404589210962 0 -0.26495963561509916 1 I I 0 1 0.5 forward I I I I #
face $-1 $110 $111 $38 $-1 $112 reversed single #
loop $-1 $-1 $113 $49 #
plane-surface $-1 -131.91564332289326 -10.899005821690778 90.217810963185812 0 1 0 -0.64278761758704617 0 0.76604443648966558 forward_v I I I I #
face $-1 $114 $115 $39 $-1 $116 forward single #
loop $-1 $117 $118 $50 #
cone-surface $-1 -54.808698444018638 -8.1582922430931539 3.1296737918765416 0.64278761758704617 0 -0.76604443648966558 0.76604443648966558 0 0.64278761758704617 1 I I 0 1 1 forward I I I I #
face $-1 $119 $120 $40 $-1 $121 forward single #
loop $-1 $122 $123 $51 #
cone-surface $-1 -54.808698444018638 -4.0472218751967191 3.1296737918765416 0.64278761758704617 0 -0.76604443648966558 0.76604443648966558 0 0.64278761758704617 1 I I 0 1 1 forward I I I I #
face $-1 $124 $125 $41 $-1 $126 reversed single #
loop $-1 $-1 $127 $52 #
plane-surface $-1 -131.91564332289326 11.001361411671628 90.217810963185812 0 1 0 -0.64278761758704617 0 0.76604443648966558 forward_v I I I I #
face $-1 $128 $129 $42 $-1 $130 forward single #
loop $-1 $131 $132 $53 #
cone-surface $-1 -54.808698444018638 13.742074990269259 3.1296737918765416 0.64278761758704617 0 -0.76604443648966558 0.76604443648966558 0 0.64278761758704617 1 I I 0 1 1 forward I I I I #
face $-1 $133 $134 $43 $-1 $135 forward single #
loop $-1 $136 $137 $54 #
cone-surface $-1 -54.808698444018638 17.85314535816569 3.1296737918765416 0.64278761758704617 0 -0.76604443648966558 0.76604443648966558 0 0.64278761758704617 1 I I 0 1 1 forward I I I I #
face $-1 $138 $139 $33 $-1 $140 reversed single #
loop $-1 $-1 $141 $55 #
plane-surface $-1 0 0 -5.7609172509738613 0 0 1 1 0 0 forward_v I I I I #
coedge $-1 $142 $143 $144 $145 forward $56 $-1 #
face $-1 $146 $147 $34 $-1 $148 reversed single #
loop $-1 $-1 $149 $58 #
plane-surface $-1 0 -19.549966794235033 4.2380990262566129 0 -1 0 0 0 -1 forward_v I I I I #
coedge $-1 $150 $151 $152 $153 reversed $59 $-1 #
face $-1 $154 $155 $35 $-1 $156 reversed single #
loop $-1 $-1 $157 $61 #
plane-surface $-1 -40.176308553258814 15.935013079685255 62.018013243908484 0.52991927123019833 0 0.84804809178421925 0.84804809178421925 0 -0.52991927123019833 forward_v I I I I #
coedge $-1 $158 $159 $160 $161 reversed $62 $-1 #
face $-1 $-1 $162 $36 $-1 $163 forward single #
loop $-1 $164 $165 $64 #
cone-surface $-1 52.644270993363769 14.210461435246707 1.4784013527315523 -0.52991927123019833 0 -0.84804809178421925 0.21201202294605481 0 -0.13247981780754958 1 I I -0.70710678118654746 0.70710678118654746 0.25 forward I I I I #
loop $-1 $-1 $166 $47 #
coedge $-1 $104 $104 $167 $168 reversed $65 $-1 #
face $-1 $-1 $169 $37 $-1 $170 forward single #
loop $-1 $171 $172 $67 #
cone-surface $-1 52.644270993363769 17.659564724123811 1.4784013527315523 -0.52991927123019833 0 -0.84804809178421925 0.21201202294605481 0 -0.13247981780754958 1 I I -0.70710678118654746 0.70710678118654746 0.25 forward I I I I #
loop $-1 $-1 $173 $48 #
coedge $-1 $109 $109 $174 $175 reversed $68 $-1 #
face $-1 $176 $177 $38 $-1 $178 reversed single #
loop $-1 $-1 $179 $70 #
plane-surface $-1 -57.716605121005884 -6.1027570591449383 1.7908424711507962 -0.64278761758704617 0 0.76604443648966558 0.76604443648966558 0 0.64278761758704617 forward_v I I I I #
coedge $-1 $180 $181 $182 $183 reversed $71 $-1 #
face $-1 $-1 $184 $39 $-1 $185 forward single #
loop $-1 $186 $187 $73 #
cone-surface $-1 -53.945073349549787 -8.1582922430931539 2.1004455044459167 0.64278761758704617 0 -0.76604443648966558 0.38302221824483279 0 0.32139380879352308 1 I I -0.70710678118654746 0.70710678118654746 0.5 forward I I I I #
loop $-1 $-1 $188 $50 #
coedge $-1 $118 $118 $189 $190 reversed $74 $-1 #
face $-1 $-1 $191 $40 $-1 $192 forward single #
loop $-1 $193 $194 $76 #
cone-surface $-1 -53.945073349549787 -4.0472218751967191 2.1004455044459167 0.64278761758704617 0 -0.76604443648966558 0.38302221824483279 0 0.32139380879352308 1 I I -0.70710678118654746 0.70710678118654746 0.5 forward I I I I #
loop $-1 $-1 $195 $51 #
coedge $-1 $123 $123 $196 $197 reversed $77 $-1 #
face $-1 $198 $199 $41 $-1 $200 reversed single #
loop $-1 $-1 $201 $79 #
plane-surface $-1 -57.716605121005884 15.797610174217468 1.7908424711507962 -0.64278761758704617 0 0.76604443648966558 0.76604443648966558 0 0.64278761758704617 forward_v I I I I #
coedge $-1 $202 $203 $204 $205 reversed $80 $-1 #
face $-1 $-1 $206 $42 $-1 $207 forward single #
loop $-1 $208 $209 $82 #
cone-surface $-1 -53.945073349549787 13.742074990269259 2.1004455044459167 0.64278761758704617 0 -0.76604443648966558 0.38302221824483279 0 0.32139380879352308 1 I I -0.70710678118654746 0.70710678118654746 0.5 forward I I I I #
loop $-1 $-1 $210 $53 #
coedge $-1 $132 $132 $211 $212 reversed $83 $-1 #
face $-1 $-1 $213 $43 $-1 $214 forward single #
loop $-1 $215 $216 $85 #
cone-surface $-1 -53.945073349549787 17.85314535816569 2.1004455044459167 0.64278761758704617 0 -0.76604443648966558 0.38302221824483279 0 0.32139380879352308 1 I I -0.70710678118654746 0.70710678118654746 0.5 forward I I I I #
loop $-1 $-1 $217 $54 #
coedge $-1 $137 $137 $218 $219 reversed $86 $-1 #
face $-1 $220 $221 $33 $-1 $222 reversed single #
loop $-1 $-1 $223 $88 #
plane-surface $-1 0 -24.250767672489786 0 0 1 0 0 0 1 forward_v I I I I #
coedge $-1 $224 $225 $226 $227 forward $89 $-1 #
coedge $-1 $228 $91 $229 $230 forward $56 $-1 #
coedge $-1 $91 $228 $231 $232 forward $56 $-1 #
coedge $-1 $233 $234 $91 $145 reversed $235 $-1 #
edge $-1 $236 -24.250767672489786 $237 24.250767672489786 $144 $238 forward 7 unknown #
face $-1 $239 $240 $34 $-1 $241 reversed single #
loop $-1 $-1 $242 $92 #
plane-surface $-1 -57.716605121005891 0 0 1 0 0 0 0 -1 forward_v I I I I #
coedge $-1 $243 $244 $245 $246 reversed $93 $-1 #
coedge $-1 $247 $95 $248 $249 reversed $59 $-1 #
coedge $-1 $95 $247 $243 $250 forward $59 $-1 #
coedge $-1 $245 $251 $95 $153 forward $252 $-1 #
edge $-1 $253 -13.300584055808581 $254 -8.599783177553828 $152 $255 forward 7 unknown #
face $-1 $256 $257 $35 $-1 $258 reversed single #
loop $-1 $-1 $259 $96 #
plane-surface $-1 20.993974093950335 11.91105924266197 159.91092691817317 0 1 0 0.52991927123019833 0 0.84804809178421925 forward_v I I I I #
coedge $-1 $260 $261 $262 $263 reversed $97 $-1 #
coedge $-1 $159 $99 $264 $265 reversed $62 $-1 #
coedge $-1 $99 $158 $260 $266 reversed $62 $-1 #
coedge $-1 $262 $267 $99 $161 forward $268 $-1 #
edge $-1 $269 -47.21961807403072 $270 -39.356875967927493 $160 $271 forward 7 unknown #
loop $-1 $-1 $167 $100 #
plane-surface $-1 -40.176308553258814 15.935013079685255 62.018013243908484 0.52991927123019833 0 0.84804809178421925 0.84804809178421925 0 -0.52991927123019833 forward_v I I I I #
loop $-1 $-1 $272 $64 #
coedge $-1 $165 $165 $166 $273 reversed $101 $-1 #
coedge $-1 $166 $166 $165 $273 forward $103 $-1 #
coedge $-1 $167 $167 $104 $168 forward $162 $-1 #
edge $-1 $274 0 $274 6.2831853071796004 $167 $275 forward 7 unknown #
loop $-1 $-1 $174 $105 #
plane-surface $-1 -40.176308553258814 15.935013079685255 62.018013243908484 0.52991927123019833 0 0.84804809178421925 0.84804809178421925 0 -0.52991927123019833 forward_v I I I I #
loop $-1 $-1 $276 $67 #
coedge $-1 $172 $172 $173 $277 reversed $106 $-1 #
coedge $-1 $173 $173 $172 $277 forward $108 $-1 #
coedge $-1 $174 $174 $109 $175 forward $169 $-1 #
edge $-1 $278 0 $278 6.2831853071796004 $174 $279 forward 7 unknown #
face $-1 $280 $281 $38 $-1 $282 forward single #
loop $-1 $-1 $283 $110 #
plane-surface $-1 -131.91564332289326 -1.3065082965990991 90.217810963185812 0 -1 0 0.64278761758704617 0 -0.76604443648966558 forward_v I I I I #
coedge $-1 $284 $285 $286 $287 reversed $111 $-1 #
coedge $-1 $181 $113 $288 $289 reversed $71 $-1 #
coedge $-1 $113 $180 $284 $290 reversed $71 $-1 #
coedge $-1 $286 $291 $113 $183 forward $281 $-1 #
edge $-1 $292 8.2412165404407389 $293 12.972567323064595 $182 $294 forward 7 unknown #
loop $-1 $-1 $189 $114 #
plane-surface $-1 -57.716605121005884 -6.1027570591449383 1.7908424711507962 -0.64278761758704617 0 0.76604443648966558 0.76604443648966558 0 0.64278761758704617 forward_v I I I I #
loop $-1 $-1 $295 $73 #
coedge $-1 $187 $187 $188 $296 reversed $115 $-1 #
coedge $-1 $188 $188 $187 $296 forward $117 $-1 #
coedge $-1 $189 $189 $118 $190 forward $184 $-1 #
edge $-1 $297 0 $297 6.2831853071796004 $189 $298 forward 7 unknown #
loop $-1 $-1 $196 $119 #
plane-surface $-1 -57.716605121005884 -6.1027570591449383 1.7908424711507962 -0.64278761758704617 0 0.76604443648966558 0.76604443648966558 0 0.64278761758704617 forward_v I I I I #
loop $-1 $-1 $299 $76 #
coedge $-1 $194 $194 $195 $300 reversed $120 $-1 #
coedge $-1 $195 $195 $194 $300 forward $122 $-1 #
coedge $-1 $196 $196 $123 $197 forward $191 $-1 #
edge $-1 $301 0 $301 6.2831853071796004 $196 $302 forward 7 unknown #
face $-1 $303 $304 $41 $-1 $305 forward single #
loop $-1 $-1 $306 $124 #
plane-surface $-1 -131.91564332289326 20.593858936763308 90.217810963185812 0 -1 0 0.64278761758704617 0 -0.76604443648966558 forward_v I I I I #
coedge $-1 $307 $308 $309 $310 reversed $125 $-1 #
coedge $-1 $203 $127 $311 $312 reversed $80 $-1 #
coedge $-1 $127 $202 $307 $313 reversed $80 $-1 #
coedge $-1 $309 $314 $127 $205 forward $304 $-1 #
edge $-1 $315 8.2412165404407389 $316 12.972567323064595 $204 $317 forward 7 unknown #
loop $-1 $-1 $211 $128 #
plane-surface $-1 -57.716605121005884 15.797610174217468 1.7908424711507962 -0.64278761758704617 0 0.76604443648966558 0.76604443648966558 0 0.64278761758704617 forward_v I I I I #
loop $-1 $-1 $318 $82 #
coedge $-1 $209 $209 $210 $319 reversed $129 $-1 #
coedge $-1 $210 $210 $209 $319 forward $131 $-1 #
coedge $-1 $211 $211 $132 $212 forward $206 $-1 #
edge $-1 $320 0 $320 6.2831853071796004 $211 $321 forward 7 unknown #
loop $-1 $-1 $218 $133 #
plane-surface $-1 -57.716605121005884 15.797610174217468 1.7908424711507962 -0.64278761758704617 0 0.76604443648966558 0.76604443648966558 0 0.64278761758704617 forward_v I I I I #
loop $-1 $-1 $322 $85 #
coedge $-1 $216 $216 $217 $323 reversed $134 $-1 #
coedge $-1 $217 $217 $216 $323 forward $136 $-1 #
coedge $-1 $218 $218 $137 $219 forward $213 $-1 #
edge $-1 $324 0 $324 6.2831853071796004 $218 $325 forward 7 unknown #
face $-1 $326 $327 $33 $-1 $328 reversed single #
loop $-1 $-1 $329 $138 #
plane-surface $-1 -57.716605121005891 0 0 1 0 0 0 0 -1 forward_v I I I I #
coedge $-1 $330 $231 $331 $332 forward $139 $-1 #
coedge $-1 $333 $141 $330 $334 forward $89 $-1 #
coedge $-1 $141 $333 $335 $336 forward $89 $-1 #
coedge $-1 $234 $233 $141 $227 reversed $235 $-1 #
edge $-1 $337 -24.250767672489786 $338 24.250767672489786 $226 $339 forward 7 unknown #
coedge $-1 $143 $142 $340 $341 forward $56 $-1 #
coedge $-1 $342 $343 $142 $230 reversed $327 $-1 #
edge $-1 $237 -57.716605121005891 $344 57.716605121005891 $229 $345 forward 7 unknown #
coedge $-1 $223 $346 $143 $232 reversed $139 $-1 #
edge $-1 $347 -57.716605121005891 $236 57.716605121005891 $231 $348 forward 7 unknown #
coedge $-1 $226 $144 $346 $349 forward $235 $-1 #
coedge $-1 $144 $226 $342 $350 reversed $235 $-1 #
loop $-1 $-1 $233 $326 #
vertex $-1 $145 $351 #
vertex $-1 $145 $352 #
straight-curve $-1 57.716605121005891 0 5.7609172509738613 0 1 0 I I #
face $-1 $353 $354 $34 $-1 $355 forward single #
loop $-1 $-1 $248 $146 #
plane-surface $-1 0 -24.250767672489786 0 0 1 0 0 0 1 forward_v I I I I #
coedge $-1 $356 $357 $358 $359 forward $147 $-1 #
coedge $-1 $358 $149 $151 $250 reversed $93 $-1 #
coedge $-1 $149 $358 $360 $361 reversed $93 $-1 #
coedge $-1 $362 $152 $149 $246 forward $252 $-1 #
edge $-1 $254 0.59623128841105721 $363 3.6418677378455557 $245 $364 forward 7 unknown #
coedge $-1 $151 $150 $356 $365 reversed $59 $-1 #
coedge $-1 $366 $367 $150 $249 forward $240 $-1 #
edge $-1 $368 -57.716605121005891 $253 57.716605121005891 $248 $369 forward 7 unknown #
edge $-1 $370 -57.716605121005891 $254 57.716605121005891 $243 $371 forward 7 unknown #
coedge $-1 $152 $362 $366 $372 forward $252 $-1 #
loop $-1 $-1 $245 $353 #
vertex $-1 $249 $373 #
vertex $-1 $153 $374 #
straight-curve $-1 57.716605121005891 -10.950183616681205 2.7152808015393637 0 1 0 I I #
face $-1 $-1 $268 $35 $-1 $375 forward single #
loop $-1 $-1 $376 $154 #
plane-surface $-1 57.716605121005891 0 0 -1 0 0 0 0 1 forward_v I I I I #
coedge $-1 $377 $378 $379 $380 reversed $155 $-1 #
coedge $-1 $381 $157 $159 $266 forward $97 $-1 #
coedge $-1 $157 $381 $377 $382 forward $97 $-1 #
coedge $-1 $379 $160 $157 $263 forward $268 $-1 #
edge $-1 $270 -11.991460376865913 $383 -3.9435527028193427 $262 $384 forward 7 unknown #
coedge $-1 $385 $386 $158 $265 forward $257 $-1 #
edge $-1 $387 -79.107732862387266 $269 -74.194546208112726 $264 $388 forward 7 unknown #
edge $-1 $270 106.16163451148844 $387 115.43321024201182 $159 $389 forward 7 unknown #
coedge $-1 $160 $379 $385 $390 forward $268 $-1 #
loop $-1 $-1 $379 $256 #
vertex $-1 $265 $391 #
vertex $-1 $161 $392 #
straight-curve $-1 10.496987046975168 19.95896691670854 5.7609172509738613 -1 0 0 I I #
coedge $-1 $272 $272 $-1 $393 reversed $164 $-1 #
edge $-1 $394 0 $394 6.2831853071796004 $165 $395 forward 7 unknown #
vertex $-1 $168 $396 #
ellipse-curve $-1 53.785234067954292 14.210461435246707 3.3043239238365865 0.52991927123019833 0 0.84804809178421925 0.42402404589210962 0 -0.26495963561509916 1 I I #
coedge $-1 $276 $276 $-1 $397 reversed $171 $-1 #
edge $-1 $398 0 $398 6.2831853071796004 $172 $399 forward 7 unknown #
vertex $-1 $175 $400 #
ellipse-curve $-1 53.785234067954292 17.659564724123811 3.3043239238365865 0.52991927123019833 0 0.84804809178421925 0.42402404589210962 0 -0.26495963561509916 1 I I #
face $-1 $-1 $401 $38 $-1 $402 reversed single #
loop $-1 $-1 $182 $176 #
plane-surface $-1 0 0 5.7609172509738613 0 0 1 1 0 0 forward_v I I I I #
coedge $-1 $403 $404 $405 $406 reversed $177 $-1 #
coedge $-1 $407 $179 $181 $290 forward $111 $-1 #
coedge $-1 $179 $407 $403 $408 forward $111 $-1 #
coedge $-1 $405 $182 $179 $287 forward $281 $-1 #
edge $-1 $293 -7.8476272921183092 $409 1.7448702329733701 $286 $410 forward 7 unknown #
coedge $-1 $411 $412 $180 $289 forward $401 $-1 #
edge $-1 $413 -43.318063010442117 $292 -39.347988230619045 $288 $414 forward 7 unknown #
edge $-1 $293 -6.176339853474909 $413 9.2967162063127932e-015 $181 $415 forward 7 unknown #
coedge $-1 $182 $405 $411 $416 forward $281 $-1 #
vertex $-1 $289 $417 #
vertex $-1 $183 $418 #
straight-curve $-1 -65.95782166144663 -10.899005821690778 5.7609172509738613 1 0 0 I I #
coedge $-1 $295 $295 $-1 $419 reversed $186 $-1 #
edge $-1 $420 0 $420 6.2831853071796004 $187 $421 forward 7 unknown #
vertex $-1 $190 $422 #
ellipse-curve $-1 -55.350929729693959 -8.1582922430931539 3.7758798610623252 -0.64278761758704617 0 0.76604443648966558 0.76604443648966558 0 0.64278761758704617 1 I I #
coedge $-1 $299 $299 $-1 $423 reversed $193 $-1 #
edge $-1 $424 0 $424 6.2831853071796004 $194 $425 forward 7 unknown #
vertex $-1 $197 $426 #
ellipse-curve $-1 -55.350929729693959 -4.0472218751967191 3.7758798610623252 -0.64278761758704617 0 0.76604443648966558 0.76604443648966558 0 0.64278761758704617 1 I I #
face $-1 $-1 $427 $41 $-1 $428 reversed single #
loop $-1 $-1 $204 $198 #
plane-surface $-1 0 0 5.7609172509738613 0 0 1 1 0 0 forward_v I I I I #
coedge $-1 $429 $430 $431 $432 reversed $199 $-1 #
coedge $-1 $433 $201 $203 $313 forward $125 $-1 #
coedge $-1 $201 $433 $429 $434 forward $125 $-1 #
coedge $-1 $431 $204 $201 $310 forward $304 $-1 #
edge $-1 $316 3.1025563245628938 $435 12.695053849654574 $309 $436 forward 7 unknown #
coedge $-1 $437 $438 $202 $312 forward $427 $-1 #
edge $-1 $439 -43.318063010442117 $315 -39.347988230619045 $311 $440 forward 7 unknown #
edge $-1 $316 -6.176339853474909 $439 9.2967162063127932e-015 $203 $441 forward 7 unknown #
coedge $-1 $204 $431 $437 $442 forward $304 $-1 #
vertex $-1 $205 $443 #
vertex $-1 $205 $444 #
straight-curve $-1 -65.95782166144663 11.001361411671628 5.7609172509738613 1 0 0 I I #
coedge $-1 $318 $318 $-1 $445 reversed $208 $-1 #
edge $-1 $446 0 $446 6.2831853071796004 $209 $447 forward 7 unknown #
vertex $-1 $212 $448 #
ellipse-curve $-1 -55.350929729693959 13.742074990269259 3.7758798610623252 -0.64278761758704617 0 0.76604443648966558 0.76604443648966558 0 0.64278761758704617 1 I I #
coedge $-1 $322 $322 $-1 $449 reversed $215 $-1 #
edge $-1 $450 0 $450 6.2831853071796004 $216 $451 forward 7 unknown #
vertex $-1 $219 $452 #
ellipse-curve $-1 -55.350929729693959 17.85314535816569 3.7758798610623252 -0.64278761758704617 0 0.76604443648966558 0.76604443648966558 0 0.64278761758704617 1 I I #
face $-1 $-1 $235 $33 $-1 $453 reversed single #
loop $-1 $-1 $342 $220 #
plane-surface $-1 0 24.250767672489786 0 0 -1 0 0 0 -1 forward_v I I I I #
coedge $-1 $454 $340 $343 $455 forward $221 $-1 #
coedge $-1 $346 $223 $224 $334 reversed $139 $-1 #
coedge $-1 $340 $454 $223 $332 reversed $221 $-1 #
edge $-1 $347 -5.7609172509738613 $456 5.7609172509738613 $331 $457 forward 7 unknown #
coedge $-1 $225 $224 $454 $458 forward $89 $-1 #
edge $-1 $338 -57.716605121005891 $456 57.716605121005891 $330 $459 forward 7 unknown #
coedge $-1 $343 $342 $225 $336 reversed $327 $-1 #
edge $-1 $460 -57.716605121005891 $337 57.716605121005891 $335 $461 forward 7 unknown #
vertex $-1 $227 $462 #
vertex $-1 $349 $463 #
straight-curve $-1 57.716605121005891 0 -5.7609172509738613 0 -1 0 I I #
coedge $-1 $329 $331 $228 $341 reversed $221 $-1 #
edge $-1 $344 -24.250767672489786 $347 24.250767672489786 $340 $464 forward 7 unknown #
coedge $-1 $335 $229 $234 $350 forward $327 $-1 #
coedge $-1 $229 $335 $329 $455 reversed $327 $-1 #
vertex $-1 $230 $465 #
straight-curve $-1 0 24.250767672489786 5.7609172509738613 -1 0 0 I I #
coedge $-1 $231 $330 $233 $349 reversed $139 $-1 #
vertex $-1 $341 $466 #
straight-curve $-1 0 -24.250767672489786 5.7609172509738613 1 0 0 I I #
edge $-1 $236 -5.7609172509738613 $338 5.7609172509738613 $233 $467 forward 7 unknown #
edge $-1 $237 -5.7609172509738613 $337 5.7609172509738613 $234 $468 forward 7 unknown #
point $-1 57.716605121005891 -24.250767672489786 5.7609172509738613 #
point $-1 57.716605121005891 24.250767672489786 5.7609172509738613 #
face $-1 $-1 $252 $34 $-1 $469 reversed single #
loop $-1 $-1 $360 $239 #
plane-surface $-1 0 0 5.7609172509738613 0 0 1 1 0 0 forward_v I I I I #
coedge $-1 $470 $242 $247 $365 forward $147 $-1 #
coedge $-1 $242 $470 $471 $472 reversed $147 $-1 #
coedge $-1 $244 $243 $242 $359 reversed $93 $-1 #
edge $-1 $473 -3.6418677378455557 $370 -0.59623128841105721 $242 $474 forward 7 unknown #
coedge $-1 $471 $475 $244 $361 forward $354 $-1 #
edge $-1 $363 -57.716605121005891 $473 57.716605121005891 $360 $476 forward 7 unknown #
coedge $-1 $251 $245 $475 $477 reversed $252 $-1 #
vertex $-1 $246 $478 #
straight-curve $-1 57.716605121005891 -19.549966794235033 2.1190495131283065 0 0 1 I I #
edge $-1 $370 8.599783177553828 $368 13.300584055808581 $356 $479 forward 7 unknown #
coedge $-1 $480 $248 $251 $372 reversed $240 $-1 #
coedge $-1 $248 $480 $470 $481 forward $240 $-1 #
vertex $-1 $249 $482 #
straight-curve $-1 0 -24.250767672489786 2.7152808015393637 1 0 0 I I #
vertex $-1 $365 $483 #
straight-curve $-1 0 -19.549966794235033 2.7152808015393637 1 0 0 I I #
edge $-1 $484 -5.7609172509738613 $253 -2.7152808015393637 $251 $485 forward 7 unknown #
point $-1 57.716605121005891 -24.250767672489786 2.7152808015393637 #
point $-1 57.716605121005891 -19.549966794235033 2.7152808015393637 #
plane-surface $-1 0 0 5.7609172509738613 0 0 1 1 0 0 forward_v I I I I #
coedge $-1 $386 $385 $378 $486 forward $257 $-1 #
coedge $-1 $378 $259 $261 $382 reversed $155 $-1 #
coedge $-1 $259 $377 $376 $486 reversed $155 $-1 #
coedge $-1 $267 $262 $259 $380 forward $268 $-1 #
edge $-1 $383 39.356875967927493 $487 47.21961807403072 $379 $488 forward 7 unknown #
coedge $-1 $261 $260 $386 $489 reversed $97 $-1 #
edge $-1 $490 -115.43321024201182 $383 -106.16163451148844 $377 $491 forward 7 unknown #
vertex $-1 $263 $492 #
straight-curve $-1 49.853863014902679 7.9675065398426277 5.7609172509738542 0 -1 0 I I #
coedge $-1 $376 $264 $267 $390 reversed $257 $-1 #
coedge $-1 $264 $376 $381 $489 forward $257 $-1 #
vertex $-1 $265 $493 #
straight-curve $-1 57.716605121005891 19.95896691670854 79.955463459086587 0 0 1 I I #
straight-curve $-1 -40.176308553258814 19.95896691670854 62.018013243908484 0.84804809178421925 0 -0.52991927123019833 I I #
edge $-1 $487 11.91105924266197 $269 19.95896691670854 $385 $494 forward 7 unknown #
point $-1 57.716605121005891 19.95896691670854 5.7609172509738613 #
point $-1 49.853863014902664 19.95896691670854 5.7609172509738613 #
edge $-1 $495 1 $495 0 $272 $-1 forward 7 unknown #
vertex $-1 $273 $496 #
ellipse-curve $-1 52.776750811171318 14.210461435246707 1.6904133756776072 0.52991927123019833 0 0.84804809178421925 0.42402404589210962 0 -0.26495963561509916 1 I I #
point $-1 54.209258113846417 14.210461435246707 3.0393642882215159 #
edge $-1 $497 1 $497 0 $276 $-1 forward 7 unknown #
vertex $-1 $277 $498 #
ellipse-curve $-1 52.776750811171318 17.659564724123811 1.6904133756776072 0.52991927123019833 0 0.84804809178421925 0.42402404589210962 0 -0.26495963561509916 1 I I #
point $-1 54.209258113846417 17.659564724123811 3.0393642882215159 #
loop $-1 $-1 $288 $280 #
plane-surface $-1 -57.716605121005891 0 0 1 0 0 0 0 -1 forward_v I I I I #
coedge $-1 $404 $283 $285 $408 reversed $177 $-1 #
coedge $-1 $283 $403 $499 $500 reversed $177 $-1 #
coedge $-1 $291 $286 $283 $406 forward $281 $-1 #
edge $-1 $409 -12.972567323064595 $501 -8.2412165404407389 $405 $502 forward 7 unknown #
coedge $-1 $285 $284 $412 $503 reversed $111 $-1 #
edge $-1 $504 -9.2967162063127932e-015 $409 6.176339853474909 $403 $505 forward 7 unknown #
vertex $-1 $287 $506 #
straight-curve $-1 -52.985254338382028 -3.0513785295724691 5.7609172509738613 0 1 0 I I #
coedge $-1 $499 $288 $291 $416 reversed $401 $-1 #
coedge $-1 $288 $499 $407 $503 forward $401 $-1 #
vertex $-1 $289 $507 #
straight-curve $-1 -57.716605121005891 -10.899005821690778 45.108905481592906 0 0 1 I I #
straight-curve $-1 -57.716605121005884 -10.899005821690778 1.7908424711507962 -0.76604443648966558 0 -0.64278761758704617 I I #
edge $-1 $501 1.3065082965990991 $292 10.899005821690778 $411 $508 forward 7 unknown #
point $-1 -57.716605121005891 -10.899005821690778 5.7609172509738613 #
point $-1 -52.985254338382035 -10.899005821690778 5.7609172509738613 #
edge $-1 $509 1 $509 0 $295 $-1 forward 7 unknown #
vertex $-1 $296 $510 #
ellipse-curve $-1 -54.26646715834331 -8.1582922430931539 2.4834677226907496 -0.64278761758704617 0 0.76604443648966558 0.76604443648966558 0 0.64278761758704617 1 I I #
point $-1 -54.584885293204302 -8.1582922430931539 4.4186674786493798 #
edge $-1 $511 1 $511 0 $299 $-1 forward 7 unknown #
vertex $-1 $300 $512 #
ellipse-curve $-1 -54.26646715834331 -4.0472218751967191 2.4834677226907496 -0.64278761758704617 0 0.76604443648966558 0.76604443648966558 0 0.64278761758704617 1 I I #
point $-1 -54.584885293204302 -4.0472218751967191 4.4186674786493798 #
loop $-1 $-1 $311 $303 #
plane-surface $-1 -57.716605121005891 0 0 1 0 0 0 0 -1 forward_v I I I I #
coedge $-1 $430 $306 $308 $434 reversed $199 $-1 #
coedge $-1 $306 $429 $513 $514 reversed $199 $-1 #
coedge $-1 $314 $309 $306 $432 forward $304 $-1 #
edge $-1 $435 -12.972567323064595 $515 -8.2412165404407389 $431 $516 forward 7 unknown #
coedge $-1 $308 $307 $438 $517 reversed $125 $-1 #
edge $-1 $518 -9.2967162063127932e-015 $435 6.176339853474909 $429 $519 forward 7 unknown #
vertex $-1 $310 $520 #
straight-curve $-1 -52.985254338382028 7.8988050871087339 5.7609172509738613 0 1 0 I I #
coedge $-1 $513 $311 $314 $442 reversed $427 $-1 #
coedge $-1 $311 $513 $433 $517 forward $427 $-1 #
vertex $-1 $312 $521 #
straight-curve $-1 -57.716605121005891 11.001361411671628 45.108905481592906 0 0 1 I I #
straight-curve $-1 -57.716605121005884 11.001361411671628 1.7908424711507962 -0.76604443648966558 0 -0.64278761758704617 I I #
edge $-1 $515 -20.593858936763308 $315 -11.001361411671628 $437 $522 forward 7 unknown #
point $-1 -57.716605121005891 11.001361411671628 5.7609172509738613 #
point $-1 -52.985254338382035 11.001361411671628 5.7609172509738613 #
edge $-1 $523 1 $523 0 $318 $-1 forward 7 unknown #
vertex $-1 $319 $524 #
ellipse-curve $-1 -54.26646715834331 13.742074990269259 2.4834677226907496 -0.64278761758704617 0 0.76604443648966558 0.76604443648966558 0 0.64278761758704617 1 I I #
point $-1 -54.584885293204302 13.742074990269259 4.4186674786493798 #
edge $-1 $525 1 $525 0 $322 $-1 forward 7 unknown #
vertex $-1 $323 $526 #
ellipse-curve $-1 -54.26646715834331 17.85314535816569 2.4834677226907496 -0.64278761758704617 0 0.76604443648966558 0.76604443648966558 0 0.64278761758704617 1 I I #
point $-1 -54.584885293204302 17.85314535816569 4.4186674786493798 #
plane-surface $-1 57.716605121005891 0 0 -1 0 0 0 0 1 forward_v I I I I #
coedge $-1 $331 $329 $333 $458 reversed $221 $-1 #
edge $-1 $344 -5.7609172509738613 $460 5.7609172509738613 $343 $527 forward 7 unknown #
vertex $-1 $458 $528 #
straight-curve $-1 -57.716605121005891 -24.250767672489786 0 0 0 -1 I I #
edge $-1 $456 -24.250767672489786 $460 24.250767672489786 $454 $529 forward 7 unknown #
straight-curve $-1 0 -24.250767672489786 -5.7609172509738613 -1 0 0 I I #
vertex $-1 $336 $530 #
straight-curve $-1 0 24.250767672489786 -5.7609172509738613 1 0 0 I I #
point $-1 57.716605121005891 24.250767672489786 -5.7609172509738613 #
point $-1 57.716605121005891 -24.250767672489786 -5.7609172509738613 #
straight-curve $-1 -57.716605121005891 0 5.7609172509738613 0 -1 0 I I #
point $-1 -57.716605121005891 24.250767672489786 5.7609172509738613 #
point $-1 -57.716605121005891 -24.250767672489786 5.7609172509738613 #
straight-curve $-1 57.716605121005891 -24.250767672489786 0 0 0 -1 I I #
straight-curve $-1 57.716605121005891 24.250767672489786 0 0 0 -1 I I #
plane-surface $-1 57.716605121005891 0 0 -1 0 0 0 0 1 forward_v I I I I #
coedge $-1 $357 $356 $367 $481 reversed $147 $-1 #
coedge $-1 $531 $360 $357 $472 forward $354 $-1 #
edge $-1 $473 19.549966794235033 $532 24.250767672489786 $357 $533 forward 7 unknown #
vertex $-1 $472 $534 #
straight-curve $-1 -57.716605121005891 -19.549966794235033 2.1190495131283065 0 0 -1 I I #
coedge $-1 $360 $531 $362 $477 forward $354 $-1 #
straight-curve $-1 0 -19.549966794235033 5.7609172509738613 -1 0 0 I I #
edge $-1 $484 -24.250767672489786 $363 -19.549966794235033 $362 $535 forward 7 unknown #
point $-1 57.716605121005891 -19.549966794235033 5.7609172509738622 #
straight-curve $-1 -57.716605121005891 -10.950183616681205 2.7152808015393637 0 -1 0 I I #
coedge $-1 $367 $366 $531 $536 reversed $240 $-1 #
edge $-1 $532 -5.7609172509738613 $368 -2.7152808015393637 $470 $537 forward 7 unknown #
point $-1 -57.716605121005891 -24.250767672489786 2.7152808015393637 #
point $-1 -57.716605121005891 -19.549966794235033 2.7152808015393637 #
vertex $-1 $477 $538 #
straight-curve $-1 57.716605121005891 -24.250767672489786 0 0 0 -1 I I #
edge $-1 $487 74.194546208112726 $490 79.107732862387266 $376 $539 forward 7 unknown #
vertex $-1 $390 $540 #
straight-curve $-1 10.496987046975168 11.91105924266197 5.7609172509738613 1 0 0 I I #
edge $-1 $490 3.9435527028193427 $387 11.991460376865913 $386 $541 forward 7 unknown #
vertex $-1 $489 $542 #
straight-curve $-1 -40.176308553258814 11.91105924266197 62.018013243908484 -0.84804809178421925 0 0.52991927123019833 I I #
point $-1 49.853863014902664 11.91105924266197 5.7609172509738613 #
point $-1 57.716605121005891 19.95896691670854 0.84773059669932138 #
straight-curve $-1 57.716605121005891 0 5.7609172509738613 0 1 0 I I #
vertex $-1 $393 $543 #
point $-1 53.200774857063429 14.210461435246707 1.4254537400625078 #
vertex $-1 $397 $544 #
point $-1 53.200774857063429 17.659564724123811 1.4254537400625078 #
coedge $-1 $412 $411 $404 $500 forward $401 $-1 #
edge $-1 $501 39.347988230619045 $504 43.318063010442117 $499 $545 forward 7 unknown #
vertex $-1 $416 $546 #
straight-curve $-1 -65.95782166144663 -1.3065082965990991 5.7609172509738613 -1 0 0 I I #
edge $-1 $504 -1.7448702329733701 $413 7.8476272921183092 $412 $547 forward 7 unknown #
vertex $-1 $503 $548 #
straight-curve $-1 -57.716605121005884 -1.3065082965990991 1.7908424711507962 0.76604443648966558 0 0.64278761758704617 I I #
point $-1 -52.985254338382035 -1.3065082965990991 5.7609172509738613 #
point $-1 -57.716605121005891 -10.899005821690778 1.7908424711507902 #
straight-curve $-1 -57.716605121005891 0 5.7609172509738613 0 -1 0 I I #
vertex $-1 $419 $549 #
point $-1 -53.500422721853646 -8.1582922430931539 3.1262553402777957 #
vertex $-1 $423 $550 #
point $-1 -53.500422721853646 -4.0472218751967191 3.1262553402777957 #
coedge $-1 $438 $437 $430 $514 forward $427 $-1 #
edge $-1 $515 39.347988230619045 $518 43.318063010442117 $513 $551 forward 7 unknown #
vertex $-1 $442 $552 #
straight-curve $-1 -65.95782166144663 20.593858936763308 5.7609172509738613 -1 0 0 I I #
edge $-1 $518 -12.695053849654574 $439 -3.1025563245628938 $438 $553 forward 7 unknown #
vertex $-1 $517 $554 #
straight-curve $-1 -57.716605121005884 20.593858936763308 1.7908424711507962 0.76604443648966558 0 0.64278761758704617 I I #
point $-1 -52.985254338382035 20.593858936763308 5.7609172509738613 #
point $-1 -57.716605121005891 11.001361411671628 1.7908424711507902 #
straight-curve $-1 -57.716605121005891 0 5.7609172509738613 0 -1 0 I I #
vertex $-1 $445 $555 #
point $-1 -53.500422721853646 13.742074990269259 3.1262553402777957 #
vertex $-1 $449 $556 #
point $-1 -53.500422721853646 17.85314535816569 3.1262553402777957 #
straight-curve $-1 -57.716605121005891 24.250767672489786 0 0 0 -1 I I #
point $-1 -57.716605121005891 -24.250767672489786 -5.7609172509738613 #
straight-curve $-1 -57.716605121005891 0 -5.7609172509738613 0 1 0 I I #
point $-1 -57.716605121005891 24.250767672489786 -5.7609172509738613 #
coedge $-1 $475 $471 $480 $536 forward $354 $-1 #
vertex $-1 $472 $557 #
straight-curve $-1 -57.716605121005891 0 5.7609172509738613 0 -1 0 I I #
point $-1 -57.716605121005891 -19.549966794235033 5.7609172509738622 #
straight-curve $-1 57.716605121005891 0 5.7609172509738613 0 1 0 I I #
edge $-1 $532 -57.716605121005891 $484 57.716605121005891 $480 $558 forward 7 unknown #
straight-curve $-1 -57.716605121005891 -24.250767672489786 0 0 0 -1 I I #
point $-1 57.716605121005891 -24.250767672489786 5.7609172509738613 #
straight-curve $-1 57.716605121005891 11.91105924266197 79.955463459086587 0 0 -1 I I #
point $-1 57.716605121005891 11.91105924266197 5.7609172509738613 #
straight-curve $-1 57.716605121005898 7.9675065398426277 0.84773059669931783 0 1 0 I I #
point $-1 57.716605121005891 11.91105924266197 0.84773059669932138 #
point $-1 52.511791175556219 14.210461435246707 1.2663893297854973 #
point $-1 52.511791175556219 17.659564724123811 1.2663893297854973 #
straight-curve $-1 -57.716605121005891 -1.3065082965990991 45.108905481592906 0 0 -1 I I #
point $-1 -57.716605121005891 -1.3065082965990991 5.7609172509738613 #
straight-curve $-1 -57.716605121005891 -3.0513785295724691 1.7908424711507895 0 -1 0 I I #
point $-1 -57.716605121005891 -1.3065082965990991 1.7908424711507902 #
point $-1 -53.623679540756264 -8.1582922430931539 1.7174232862010839 #
point $-1 -53.623679540756264 -4.0472218751967191 1.7174232862010839 #
straight-curve $-1 -57.716605121005891 20.593858936763308 45.108905481592906 0 0 -1 I I #
point $-1 -57.716605121005891 20.593858936763308 5.7609172509738613 #
straight-curve $-1 -57.716605121005891 7.8988050871087339 1.7908424711507895 0 -1 0 I I #
point $-1 -57.716605121005891 20.593858936763308 1.7908424711507902 #
point $-1 -53.623679540756264 13.742074990269259 1.7174232862010839 #
point $-1 -53.623679540756264 17.85314535816569 1.7174232862010839 #
point $-1 -57.716605121005891 -24.250767672489786 5.7609172509738613 #
straight-curve $-1 0 -24.250767672489786 5.7609172509738613 1 0 0 I I #
End-of-ACIS-data 