500 0 10 0           
7 Unknown 11 ACIS 5.0 NT 24 Fri Mar 26 02:31:59 1999 
-1 9.9999999999999995e-007 1e-010 
body $-1 $10 $-1 $11 #
body $-1 $12 $-1 $13 #
body $-1 $14 $-1 $15 #
body $-1 $16 $-1 $17 #
body $-1 $18 $-1 $19 #
body $-1 $20 $-1 $21 #
body $-1 $22 $-1 $23 #
body $-1 $24 $-1 $25 #
body $-1 $26 $-1 $27 #
body $-1 $28 $-1 $29 #
lump $-1 $-1 $30 $0 #
transform $-1 1 0 0 0 1 0 0 0 1 68.711813715018167 35.575511668955187 9.6660902856138193 1 rotate no_reflect no_shear #
lump $-1 $-1 $31 $1 #
transform $-1 1 0 0 0 1 0 0 0 1 68.711813715018167 35.575511668955187 9.6660902856138193 1 rotate no_reflect no_shear #
lump $-1 $-1 $32 $2 #
transform $-1 1 0 0 0 1 0 0 0 1 68.711813715018167 35.575511668955187 9.6660902856138193 1 rotate no_reflect no_shear #
lump $-1 $-1 $33 $3 #
transform $-1 1 0 0 0 1 0 0 0 1 68.711813715018167 35.575511668955187 9.6660902856138193 1 rotate no_reflect no_shear #
lump $-1 $-1 $34 $4 #
transform $-1 1 0 0 0 1 0 0 0 1 68.711813715018167 35.575511668955187 9.6660902856138193 1 rotate no_reflect no_shear #
lump $-1 $-1 $35 $5 #
transform $-1 1 0 0 0 1 0 0 0 1 68.711813715018167 35.575511668955187 9.6660902856138193 1 rotate no_reflect no_shear #
lump $-1 $-1 $36 $6 #
transform $-1 1 0 0 0 1 0 0 0 1 68.711813715018167 35.575511668955187 9.6660902856138193 1 rotate no_reflect no_shear #
lump $-1 $-1 $37 $7 #
transform $-1 1 0 0 0 1 0 0 0 1 68.711813715018167 35.575511668955187 9.6660902856138193 1 rotate no_reflect no_shear #
lump $-1 $-1 $38 $8 #
transform $-1 1 0 0 0 1 0 0 0 1 68.711813715018167 35.575511668955187 9.6660902856138193 1 rotate no_reflect no_shear #
lump $-1 $-1 $39 $9 #
transform $-1 1 0 0 0 1 0 0 0 1 68.711813715018167 35.575511668955187 9.6660902856138193 1 rotate no_reflect no_shear #
shell $-1 $-1 $-1 $40 $-1 $10 #
shell $-1 $-1 $-1 $41 $-1 $12 #
shell $-1 $-1 $-1 $42 $-1 $14 #
shell $-1 $-1 $-1 $43 $-1 $16 #
shell $-1 $-1 $-1 $44 $-1 $18 #
shell $-1 $-1 $-1 $45 $-1 $20 #
shell $-1 $-1 $-1 $46 $-1 $22 #
shell $-1 $-1 $-1 $47 $-1 $24 #
shell $-1 $-1 $-1 $48 $-1 $26 #
shell $-1 $-1 $-1 $49 $-1 $28 #
face $-1 $50 $51 $30 $-1 $52 forward single #
face $-1 $53 $54 $31 $-1 $55 forward single #
face $-1 $56 $57 $32 $-1 $58 reversed single #
face $-1 $59 $60 $33 $-1 $61 forward single #
face $-1 $62 $63 $34 $-1 $64 reversed single #
face $-1 $65 $66 $35 $-1 $67 forward single #
face $-1 $68 $69 $36 $-1 $70 reversed single #
face $-1 $71 $72 $37 $-1 $73 forward single #
face $-1 $74 $75 $38 $-1 $76 reversed single #
face $-1 $77 $78 $39 $-1 $79 forward single #
face $-1 $80 $81 $30 $-1 $82 reversed single #
loop $-1 $-1 $83 $40 #
plane-surface $-1 0 0 9.6660902856138193 0 0 1 1 0 0 forward_v I I I I #
face $-1 $84 $85 $31 $-1 $86 reversed single #
loop $-1 $-1 $87 $41 #
plane-surface $-1 0 -29.775892896947052 8.7385049698066126 0 0 1 1 0 0 forward_v I I I I #
face $-1 $88 $89 $32 $-1 $90 reversed single #
loop $-1 $-1 $91 $42 #
plane-surface $-1 45.026952598641699 -5.0386117892706608 193.8781028682379 0 1 0 0.61566148304635926 0 0.78801074757464917 forward_v I I I I #
face $-1 $92 $93 $33 $-1 $94 forward single #
loop $-1 $95 $96 $43 #
cone-surface $-1 62.642934799339415 0.38050349136873507 4.6701113576131048 -0.61566148304635926 0 -0.78801074757464917 0.78801074757464917 0 -0.61566148304635926 1 I I 0 1 1 forward I I I I #
face $-1 $97 $98 $34 $-1 $99 reversed single #
loop $-1 $-1 $100 $44 #
plane-surface $-1 45.026952598641699 16.637849333286923 193.8781028682379 0 -1 0 -0.61566148304635926 0 -0.78801074757464917 forward_v I I I I #
face $-1 $101 $102 $35 $-1 $103 forward single #
loop $-1 $104 $105 $45 #
cone-surface $-1 62.642934799339415 11.218734052647527 4.6701113576131048 -0.61566148304635926 0 -0.78801074757464917 0.78801074757464917 0 -0.61566148304635926 1 I I 0 1 1 forward I I I I #
face $-1 $106 $107 $36 $-1 $108 reversed single #
loop $-1 $-1 $109 $46 #
plane-surface $-1 -153.31824798420467 -5.0386117892706608 109.27166859905137 0 1 0 -0.61566148304635926 0 0.78801074757464917 forward_v I I I I #
face $-1 $110 $111 $37 $-1 $112 forward single #
loop $-1 $113 $114 $47 #
cone-surface $-1 -62.642934799339407 0.38050349136873507 4.6701113576130924 0.61566148304635926 0 -0.78801074757464917 0.78801074757464917 0 0.61566148304635926 1 I I 0 1 1 forward I I I I #
face $-1 $115 $116 $38 $-1 $117 reversed single #
loop $-1 $-1 $118 $48 #
plane-surface $-1 -68.711813715018167 0.38050349136873507 0.98037321348837736 -0.61566148304635926 0 0.78801074757464917 0.78801074757464917 0 0.61566148304635926 forward_v I I I I #
face $-1 $119 $120 $39 $-1 $121 forward single #
loop $-1 $122 $123 $49 #
cone-surface $-1 -62.642934799339407 11.218734052647527 4.6701113576130924 0.61566148304635926 0 -0.78801074757464917 0.78801074757464917 0 0.61566148304635926 1 I I 0 1 1 forward I I I I #
face $-1 $124 $125 $30 $-1 $126 reversed single #
loop $-1 $-1 $127 $50 #
plane-surface $-1 0 0 -9.6660902856138193 0 0 1 1 0 0 forward_v I I I I #
coedge $-1 $128 $129 $130 $131 forward $51 $-1 #
face $-1 $132 $133 $31 $-1 $134 reversed single #
loop $-1 $-1 $135 $53 #
plane-surface $-1 0 -29.775892896947052 5.7385049698066135 0 0 1 1 0 0 forward_v I I I I #
coedge $-1 $136 $137 $138 $139 reversed $54 $-1 #
face $-1 $140 $141 $32 $-1 $142 reversed single #
loop $-1 $-1 $143 $56 #
plane-surface $-1 -39.579481670544808 0.38050349136873507 85.586807482674914 0.61566148304635926 0 0.78801074757464917 0.78801074757464917 0 -0.61566148304635926 forward_v I I I I #
coedge $-1 $144 $145 $146 $147 reversed $57 $-1 #
face $-1 $-1 $148 $33 $-1 $149 forward single #
loop $-1 $150 $151 $59 #
cone-surface $-1 61.824830472911515 0.38050349136873507 3.6229855918877831 -0.61566148304635926 0 -0.78801074757464917 0.39400537378732459 0 -0.30783074152317963 1 I I -0.70710678118654779 0.70710678118654713 0.5 forward I I I I #
loop $-1 $-1 $152 $43 #
coedge $-1 $96 $96 $153 $154 reversed $60 $-1 #
face $-1 $155 $156 $34 $-1 $157 reversed single #
loop $-1 $-1 $158 $62 #
plane-surface $-1 -39.579481670544808 0.38050349136873507 85.586807482674914 0.61566148304635926 0 0.78801074757464917 0.78801074757464917 0 -0.61566148304635926 forward_v I I I I #
coedge $-1 $159 $160 $161 $162 reversed $63 $-1 #
face $-1 $-1 $163 $35 $-1 $164 forward single #
loop $-1 $165 $166 $65 #
cone-surface $-1 61.824830472911515 11.218734052647527 3.6229855918877831 -0.61566148304635926 0 -0.78801074757464917 0.39400537378732459 0 -0.30783074152317963 1 I I -0.70710678118654779 0.70710678118654713 0.5 forward I I I I #
loop $-1 $-1 $167 $45 #
coedge $-1 $105 $105 $168 $169 reversed $66 $-1 #
face $-1 $170 $171 $36 $-1 $172 reversed single #
loop $-1 $-1 $173 $68 #
plane-surface $-1 -68.711813715018167 0.38050349136873507 0.98037321348837736 -0.61566148304635926 0 0.78801074757464917 0.78801074757464917 0 0.61566148304635926 forward_v I I I I #
coedge $-1 $174 $175 $176 $177 reversed $69 $-1 #
face $-1 $-1 $178 $37 $-1 $179 forward single #
loop $-1 $180 $181 $71 #
cone-surface $-1 -61.824830472911508 0.38050349136873507 3.6229855918877707 0.61566148304635926 0 -0.78801074757464917 0.39400537378732459 0 0.30783074152317963 1 I I -0.70710678118654779 0.70710678118654713 0.5 forward I I I I #
loop $-1 $-1 $182 $47 #
coedge $-1 $114 $114 $183 $184 reversed $72 $-1 #
face $-1 $185 $186 $38 $-1 $187 forward single #
loop $-1 $-1 $188 $74 #
plane-surface $-1 -153.31824798420467 16.637849333286923 109.27166859905137 0 -1 0 0.61566148304635926 0 -0.78801074757464917 forward_v I I I I #
coedge $-1 $189 $190 $191 $192 reversed $75 $-1 #
face $-1 $-1 $193 $39 $-1 $194 forward single #
loop $-1 $195 $196 $77 #
cone-surface $-1 -61.824830472911508 11.218734052647527 3.6229855918877707 0.61566148304635926 0 -0.78801074757464917 0.39400537378732459 0 0.30783074152317963 1 I I -0.70710678118654779 0.70710678118654713 0.5 forward I I I I #
loop $-1 $-1 $197 $49 #
coedge $-1 $123 $123 $198 $199 reversed $78 $-1 #
face $-1 $200 $201 $30 $-1 $202 reversed single #
loop $-1 $-1 $203 $80 #
plane-surface $-1 0 -35.575511668955187 0 0 1 0 0 0 1 forward_v I I I I #
coedge $-1 $204 $205 $206 $207 forward $81 $-1 #
coedge $-1 $208 $83 $209 $210 forward $51 $-1 #
coedge $-1 $83 $208 $211 $212 forward $51 $-1 #
coedge $-1 $213 $214 $83 $131 reversed $215 $-1 #
edge $-1 $216 -35.575511668955187 $217 35.575511668955187 $130 $218 forward 7 unknown #
face $-1 $219 $220 $31 $-1 $221 reversed single #
loop $-1 $-1 $222 $84 #
plane-surface $-1 0 -23.976274124938918 7.2385049698066126 0 -1 0 0 0 -1 forward_v I I I I #
coedge $-1 $223 $224 $225 $226 reversed $85 $-1 #
coedge $-1 $227 $87 $228 $229 forward $54 $-1 #
coedge $-1 $87 $227 $230 $231 reversed $54 $-1 #
coedge $-1 $232 $233 $87 $139 forward $234 $-1 #
edge $-1 $235 9.0883276764653917 $236 20.687565220481659 $138 $237 forward 7 unknown #
face $-1 $238 $239 $32 $-1 $240 forward single #
loop $-1 $-1 $241 $88 #
plane-surface $-1 45.026952598641699 5.7996187720081309 193.8781028682379 0 -1 0 -0.61566148304635926 0 -0.78801074757464917 forward_v I I I I #
coedge $-1 $242 $243 $244 $245 reversed $89 $-1 #
coedge $-1 $145 $91 $246 $247 reversed $57 $-1 #
coedge $-1 $91 $144 $242 $248 reversed $57 $-1 #
coedge $-1 $244 $249 $91 $147 forward $250 $-1 #
edge $-1 $251 87.272961148505132 $252 95.958678220630532 $146 $253 forward 7 unknown #
loop $-1 $-1 $153 $92 #
plane-surface $-1 -39.579481670544808 0.38050349136873507 85.586807482674914 0.61566148304635926 0 0.78801074757464917 0.78801074757464917 0 -0.61566148304635926 forward_v I I I I #
loop $-1 $-1 $254 $59 #
coedge $-1 $151 $151 $152 $255 reversed $93 $-1 #
coedge $-1 $152 $152 $151 $255 forward $95 $-1 #
coedge $-1 $153 $153 $96 $154 forward $148 $-1 #
edge $-1 $256 0 $256 6.2831853071796004 $153 $257 forward 7 unknown #
face $-1 $258 $259 $34 $-1 $260 forward single #
loop $-1 $-1 $261 $97 #
plane-surface $-1 68.711813715018167 0 0 -1 0 0 0 0 1 forward_v I I I I #
coedge $-1 $262 $263 $264 $265 reversed $98 $-1 #
coedge $-1 $160 $100 $266 $267 reversed $63 $-1 #
coedge $-1 $100 $159 $268 $269 reversed $63 $-1 #
coedge $-1 $270 $261 $100 $162 forward $156 $-1 #
edge $-1 $271 -95.958678220630532 $272 -87.272961148505132 $161 $273 forward 7 unknown #
loop $-1 $-1 $168 $101 #
plane-surface $-1 -39.579481670544808 0.38050349136873507 85.586807482674914 0.61566148304635926 0 0.78801074757464917 0.78801074757464917 0 -0.61566148304635926 forward_v I I I I #
loop $-1 $-1 $274 $65 #
coedge $-1 $166 $166 $167 $275 reversed $102 $-1 #
coedge $-1 $167 $167 $166 $275 forward $104 $-1 #
coedge $-1 $168 $168 $105 $169 forward $163 $-1 #
edge $-1 $276 0 $276 6.2831853071796004 $168 $277 forward 7 unknown #
face $-1 $278 $279 $36 $-1 $280 reversed single #
loop $-1 $-1 $281 $106 #
plane-surface $-1 -153.31824798420467 5.7996187720081309 109.27166859905137 0 -1 0 0.61566148304635926 0 -0.78801074757464917 forward_v I I I I #
coedge $-1 $282 $283 $284 $285 reversed $107 $-1 #
coedge $-1 $175 $109 $286 $287 reversed $69 $-1 #
coedge $-1 $109 $174 $282 $288 reversed $69 $-1 #
coedge $-1 $284 $289 $109 $177 forward $290 $-1 #
edge $-1 $291 7.9473102770841706 $292 19.064520938632214 $176 $293 forward 7 unknown #
loop $-1 $-1 $183 $110 #
plane-surface $-1 -68.711813715018167 0.38050349136873507 0.98037321348837736 -0.61566148304635926 0 0.78801074757464917 0.78801074757464917 0 0.61566148304635926 forward_v I I I I #
loop $-1 $-1 $294 $71 #
coedge $-1 $181 $181 $182 $295 reversed $111 $-1 #
coedge $-1 $182 $182 $181 $295 forward $113 $-1 #
coedge $-1 $183 $183 $114 $184 forward $178 $-1 #
edge $-1 $296 0 $296 6.2831853071796004 $183 $297 forward 7 unknown #
face $-1 $298 $299 $38 $-1 $300 forward single #
loop $-1 $-1 $301 $115 #
plane-surface $-1 0 0 9.6660902856138193 0 0 1 1 0 0 forward_v I I I I #
coedge $-1 $302 $303 $304 $305 reversed $116 $-1 #
coedge $-1 $306 $118 $307 $308 reversed $75 $-1 #
coedge $-1 $118 $306 $301 $309 reversed $75 $-1 #
coedge $-1 $310 $311 $118 $192 forward $299 $-1 #
edge $-1 $312 0 $313 14.107942938297164 $191 $314 forward 7 unknown #
loop $-1 $-1 $198 $119 #
plane-surface $-1 -68.711813715018167 0.38050349136873507 0.98037321348837736 -0.61566148304635926 0 0.78801074757464917 0.78801074757464917 0 0.61566148304635926 forward_v I I I I #
loop $-1 $-1 $315 $77 #
coedge $-1 $196 $196 $197 $316 reversed $120 $-1 #
coedge $-1 $197 $197 $196 $316 forward $122 $-1 #
coedge $-1 $198 $198 $123 $199 forward $193 $-1 #
edge $-1 $317 0 $317 6.2831853071796004 $198 $318 forward 7 unknown #
face $-1 $319 $320 $30 $-1 $321 reversed single #
loop $-1 $-1 $322 $124 #
plane-surface $-1 -68.711813715018167 0 0 1 0 0 0 0 -1 forward_v I I I I #
coedge $-1 $323 $211 $324 $325 forward $125 $-1 #
coedge $-1 $326 $127 $323 $327 forward $81 $-1 #
coedge $-1 $127 $326 $328 $329 forward $81 $-1 #
coedge $-1 $214 $213 $127 $207 reversed $215 $-1 #
edge $-1 $330 -35.575511668955187 $331 35.575511668955187 $206 $332 forward 7 unknown #
coedge $-1 $129 $128 $333 $334 forward $51 $-1 #
coedge $-1 $335 $336 $128 $210 reversed $320 $-1 #
edge $-1 $217 -68.711813715018167 $337 68.711813715018167 $209 $338 forward 7 unknown #
coedge $-1 $203 $339 $129 $212 reversed $125 $-1 #
edge $-1 $340 -68.711813715018167 $216 68.711813715018167 $211 $341 forward 7 unknown #
coedge $-1 $206 $130 $339 $342 forward $215 $-1 #
coedge $-1 $130 $206 $335 $343 reversed $215 $-1 #
loop $-1 $-1 $213 $319 #
vertex $-1 $131 $344 #
vertex $-1 $131 $345 #
straight-curve $-1 68.711813715018167 0 9.6660902856138193 0 1 0 I I #
face $-1 $346 $347 $31 $-1 $348 reversed single #
loop $-1 $-1 $349 $132 #
plane-surface $-1 -68.711813715018167 0 0 1 0 0 0 0 -1 forward_v I I I I #
coedge $-1 $350 $228 $233 $351 reversed $133 $-1 #
coedge $-1 $352 $135 $353 $354 reversed $85 $-1 #
coedge $-1 $135 $352 $350 $355 forward $85 $-1 #
coedge $-1 $233 $232 $135 $226 forward $234 $-1 #
edge $-1 $356 -20.687565220481659 $357 -9.0883276764653917 $225 $358 forward 7 unknown #
coedge $-1 $137 $136 $349 $359 reversed $54 $-1 #
coedge $-1 $222 $360 $136 $229 reversed $133 $-1 #
edge $-1 $235 -68.711813715018167 $361 68.711813715018167 $228 $362 forward 7 unknown #
coedge $-1 $363 $364 $137 $231 forward $347 $-1 #
edge $-1 $236 -68.711813715018167 $365 68.711813715018167 $230 $366 forward 7 unknown #
coedge $-1 $225 $138 $364 $367 forward $234 $-1 #
coedge $-1 $138 $225 $222 $351 forward $234 $-1 #
loop $-1 $-1 $138 $346 #
vertex $-1 $139 $368 #
vertex $-1 $367 $369 #
straight-curve $-1 68.711813715018167 -14.887946448473526 8.7385049698066126 0 -1 0 I I #
face $-1 $-1 $250 $32 $-1 $370 reversed single #
loop $-1 $-1 $371 $140 #
plane-surface $-1 0 0 9.6660902856138193 0 0 1 1 0 0 forward_v I I I I #
coedge $-1 $372 $373 $374 $375 reversed $141 $-1 #
coedge $-1 $376 $143 $145 $248 forward $89 $-1 #
coedge $-1 $143 $376 $372 $377 forward $89 $-1 #
coedge $-1 $374 $146 $143 $245 forward $250 $-1 #
edge $-1 $252 -5.2288635349550283 $378 5.6093670263237634 $244 $379 forward 7 unknown #
coedge $-1 $380 $381 $144 $247 forward $239 $-1 #
edge $-1 $382 35.081126754149331 $251 46.198337415697317 $246 $383 forward 7 unknown #
edge $-1 $252 -137.4236274300363 $382 -123.31568449173922 $145 $384 forward 7 unknown #
coedge $-1 $146 $374 $380 $385 reversed $250 $-1 #
loop $-1 $-1 $374 $238 #
vertex $-1 $385 $386 #
vertex $-1 $147 $387 #
straight-curve $-1 68.711813715018167 -5.0386117892706608 96.939051434118952 0 0 -1 I I #
coedge $-1 $254 $254 $-1 $388 reversed $150 $-1 #
edge $-1 $389 0 $389 6.2831853071796004 $151 $390 forward 7 unknown #
vertex $-1 $154 $391 #
ellipse-curve $-1 63.153208384244159 0.38050349136873507 5.323231749551133 0.61566148304635926 0 0.78801074757464917 0.78801074757464917 0 -0.61566148304635926 1 I I #
face $-1 $-1 $392 $34 $-1 $393 forward single #
loop $-1 $-1 $394 $155 #
plane-surface $-1 45.026952598641699 5.7996187720081309 193.8781028682379 0 -1 0 -0.61566148304635926 0 -0.78801074757464917 forward_v I I I I #
coedge $-1 $161 $395 $263 $396 forward $156 $-1 #
coedge $-1 $266 $158 $397 $398 reversed $98 $-1 #
coedge $-1 $158 $266 $261 $396 reversed $98 $-1 #
coedge $-1 $394 $399 $158 $265 forward $259 $-1 #
edge $-1 $400 123.31568449173922 $401 137.4236274300363 $264 $402 forward 7 unknown #
coedge $-1 $263 $262 $159 $267 forward $98 $-1 #
edge $-1 $403 123.31568449173922 $271 137.4236274300363 $159 $404 forward 7 unknown #
coedge $-1 $397 $405 $160 $269 forward $392 $-1 #
edge $-1 $272 -46.198337415697317 $403 -35.081126754149331 $268 $406 forward 7 unknown #
coedge $-1 $395 $161 $405 $407 reversed $156 $-1 #
vertex $-1 $162 $408 #
vertex $-1 $269 $409 #
straight-curve $-1 68.711813715018167 16.637849333286923 96.939051434118952 0 0 1 I I #
coedge $-1 $274 $274 $-1 $410 reversed $165 $-1 #
edge $-1 $411 0 $411 6.2831853071796004 $166 $412 forward 7 unknown #
vertex $-1 $169 $413 #
ellipse-curve $-1 63.153208384244159 11.218734052647527 5.323231749551133 0.61566148304635926 0 0.78801074757464917 0.78801074757464917 0 -0.61566148304635926 1 I I #
face $-1 $-1 $290 $36 $-1 $414 forward single #
loop $-1 $-1 $415 $170 #
plane-surface $-1 -68.711813715018167 0 0 1 0 0 0 0 -1 forward_v I I I I #
coedge $-1 $416 $417 $418 $419 reversed $171 $-1 #
coedge $-1 $420 $173 $175 $288 forward $107 $-1 #
coedge $-1 $173 $420 $416 $421 forward $107 $-1 #
coedge $-1 $418 $176 $173 $285 forward $290 $-1 #
edge $-1 $292 -5.2288635349550283 $422 5.6093670263237634 $284 $423 forward 7 unknown #
coedge $-1 $424 $425 $174 $287 forward $279 $-1 #
edge $-1 $426 -53.655461086037306 $291 -44.969744013911864 $286 $427 forward 7 unknown #
edge $-1 $292 -14.107942938297164 $426 0 $175 $428 forward 7 unknown #
coedge $-1 $176 $418 $424 $429 forward $290 $-1 #
loop $-1 $-1 $418 $278 #
vertex $-1 $287 $430 #
vertex $-1 $177 $431 #
straight-curve $-1 -76.659123992102337 -5.0386117892706608 9.6660902856138193 1 0 0 I I #
coedge $-1 $294 $294 $-1 $432 reversed $180 $-1 #
edge $-1 $433 0 $433 6.2831853071796004 $181 $434 forward 7 unknown #
vertex $-1 $184 $435 #
ellipse-curve $-1 -63.153208384244138 0.38050349136873507 5.3232317495511028 -0.61566148304635926 0 0.78801074757464917 0.78801074757464917 0 0.61566148304635926 1 I I #
face $-1 $-1 $436 $38 $-1 $437 reversed single #
loop $-1 $-1 $310 $185 #
plane-surface $-1 -153.31824798420467 5.7996187720081309 109.27166859905137 0 -1 0 0.61566148304635926 0 -0.78801074757464917 forward_v I I I I #
coedge $-1 $304 $438 $190 $309 forward $186 $-1 #
coedge $-1 $303 $188 $306 $439 reversed $116 $-1 #
coedge $-1 $188 $302 $440 $441 reversed $116 $-1 #
coedge $-1 $442 $301 $188 $305 forward $186 $-1 #
edge $-1 $443 -19.064520938632214 $444 -7.9473102770841706 $304 $445 forward 7 unknown #
coedge $-1 $190 $189 $302 $439 forward $75 $-1 #
coedge $-1 $446 $440 $189 $308 forward $436 $-1 #
edge $-1 $447 -16.447597587602555 $312 -5.6093670263237634 $307 $448 forward 7 unknown #
edge $-1 $313 5.6093670263237634 $443 16.447597587602555 $301 $449 forward 7 unknown #
coedge $-1 $311 $191 $438 $450 reversed $299 $-1 #
coedge $-1 $191 $310 $446 $451 reversed $299 $-1 #
vertex $-1 $308 $452 #
vertex $-1 $309 $453 #
straight-curve $-1 -68.711813715018167 5.7996187720081309 0.98037321348837736 0.78801074757464917 0 0.61566148304635926 I I #
coedge $-1 $315 $315 $-1 $454 reversed $195 $-1 #
edge $-1 $455 0 $455 6.2831853071796004 $196 $456 forward 7 unknown #
vertex $-1 $199 $457 #
ellipse-curve $-1 -63.153208384244138 11.218734052647527 5.3232317495511028 -0.61566148304635926 0 0.78801074757464917 0.78801074757464917 0 0.61566148304635926 1 I I #
face $-1 $-1 $215 $30 $-1 $458 reversed single #
loop $-1 $-1 $335 $200 #
plane-surface $-1 0 35.575511668955187 0 0 -1 0 0 0 -1 forward_v I I I I #
coedge $-1 $459 $333 $336 $460 forward $201 $-1 #
coedge $-1 $339 $203 $204 $327 reversed $125 $-1 #
coedge $-1 $333 $459 $203 $325 reversed $201 $-1 #
edge $-1 $340 -9.6660902856138193 $461 9.6660902856138193 $324 $462 forward 7 unknown #
coedge $-1 $205 $204 $459 $463 forward $81 $-1 #
edge $-1 $331 -68.711813715018167 $461 68.711813715018167 $323 $464 forward 7 unknown #
coedge $-1 $336 $335 $205 $329 reversed $320 $-1 #
edge $-1 $465 -68.711813715018167 $330 68.711813715018167 $328 $466 forward 7 unknown #
vertex $-1 $207 $467 #
vertex $-1 $342 $468 #
straight-curve $-1 68.711813715018167 0 -9.6660902856138193 0 -1 0 I I #
coedge $-1 $322 $324 $208 $334 reversed $201 $-1 #
edge $-1 $337 -35.575511668955187 $340 35.575511668955187 $333 $469 forward 7 unknown #
coedge $-1 $328 $209 $214 $343 forward $320 $-1 #
coedge $-1 $209 $328 $322 $460 reversed $320 $-1 #
vertex $-1 $210 $470 #
straight-curve $-1 0 35.575511668955187 9.6660902856138193 -1 0 0 I I #
coedge $-1 $211 $323 $213 $342 reversed $125 $-1 #
vertex $-1 $334 $471 #
straight-curve $-1 0 -35.575511668955187 9.6660902856138193 1 0 0 I I #
edge $-1 $216 -9.6660902856138193 $331 9.6660902856138193 $213 $472 forward 7 unknown #
edge $-1 $217 -9.6660902856138193 $330 9.6660902856138193 $214 $473 forward 7 unknown #
point $-1 68.711813715018167 -35.575511668955187 9.6660902856138193 #
point $-1 68.711813715018167 35.575511668955187 9.6660902856138193 #
face $-1 $-1 $234 $31 $-1 $474 reversed single #
loop $-1 $-1 $230 $219 #
plane-surface $-1 0 -35.575511668955187 0 0 1 0 0 0 1 forward_v I I I I #
coedge $-1 $475 $476 $227 $359 forward $220 $-1 #
coedge $-1 $360 $222 $224 $355 reversed $133 $-1 #
edge $-1 $357 2.1192524849033072 $235 5.1192524849033063 $233 $477 forward 7 unknown #
coedge $-1 $224 $223 $478 $479 reversed $85 $-1 #
coedge $-1 $364 $363 $223 $354 forward $347 $-1 #
edge $-1 $480 -68.711813715018167 $356 68.711813715018167 $353 $481 forward 7 unknown #
edge $-1 $482 -68.711813715018167 $357 68.711813715018167 $350 $483 forward 7 unknown #
vertex $-1 $354 $484 #
vertex $-1 $226 $485 #
straight-curve $-1 68.711813715018167 -14.887946448473526 5.7385049698066135 0 1 0 I I #
edge $-1 $365 -20.687565220481659 $361 -9.0883276764653917 $349 $486 forward 7 unknown #
coedge $-1 $228 $350 $475 $487 reversed $133 $-1 #
vertex $-1 $359 $488 #
straight-curve $-1 0 -23.976274124938918 8.7385049698066126 -1 0 0 I I #
coedge $-1 $353 $230 $476 $489 forward $347 $-1 #
coedge $-1 $230 $353 $232 $367 reversed $347 $-1 #
vertex $-1 $489 $490 #
straight-curve $-1 0 -35.575511668955187 8.7385049698066126 -1 0 0 I I #
edge $-1 $236 -8.7385049698066126 $356 -5.7385049698066135 $232 $491 forward 7 unknown #
point $-1 68.711813715018167 -23.976274124938918 8.7385049698066126 #
point $-1 68.711813715018167 -35.575511668955187 8.7385049698066126 #
plane-surface $-1 68.711813715018167 0 0 -1 0 0 0 0 1 forward_v I I I I #
coedge $-1 $381 $380 $373 $492 forward $239 $-1 #
coedge $-1 $373 $241 $243 $377 reversed $141 $-1 #
coedge $-1 $241 $372 $371 $492 reversed $141 $-1 #
coedge $-1 $249 $244 $241 $375 forward $250 $-1 #
edge $-1 $378 -95.958678220630532 $493 -87.272961148505132 $374 $494 forward 7 unknown #
coedge $-1 $243 $242 $381 $495 reversed $89 $-1 #
edge $-1 $496 123.31568449173922 $378 137.4236274300363 $372 $497 forward 7 unknown #
vertex $-1 $245 $498 #
straight-curve $-1 68.711813715018167 0.19025174568436753 0.98037321348841999 0 1 0 I I #
coedge $-1 $371 $246 $249 $385 forward $239 $-1 #
coedge $-1 $246 $371 $376 $495 forward $239 $-1 #
vertex $-1 $247 $499 #
straight-curve $-1 22.51347629932085 -5.0386117892706608 9.6660902856138193 1 0 0 I I #
straight-curve $-1 -39.579481670544808 -5.0386117892706608 85.586807482674914 -0.78801074757464917 0 0.61566148304635926 I I #
edge $-1 $251 -5.0386117892706608 $493 5.7996187720081309 $249 $500 forward 7 unknown #
point $-1 68.711813715018167 -5.0386117892706608 9.6660902856138193 #
point $-1 68.711813715018167 -5.0386117892706608 0.98037321348841999 #
edge $-1 $501 1 $501 0 $254 $-1 forward 7 unknown #
vertex $-1 $255 $502 #
ellipse-curve $-1 62.132661214434691 0.38050349136873507 4.0169909656751077 0.61566148304635926 0 0.78801074757464917 0.78801074757464917 0 -0.61566148304635926 1 I I #
point $-1 63.941219131818791 0.38050349136873507 4.7075702665047423 #
loop $-1 $-1 $397 $258 #
plane-surface $-1 0 0 9.6660902856138193 0 0 1 1 0 0 forward_v I I I I #
coedge $-1 $399 $264 $395 $503 reversed $259 $-1 #
coedge $-1 $261 $270 $394 $503 forward $156 $-1 #
edge $-1 $401 5.6093670263237634 $271 16.447597587602555 $261 $504 forward 7 unknown #
coedge $-1 $505 $268 $262 $398 forward $392 $-1 #
edge $-1 $403 -16.447597587602555 $400 -5.6093670263237634 $397 $506 forward 7 unknown #
coedge $-1 $264 $394 $505 $507 reversed $259 $-1 #
vertex $-1 $398 $508 #
vertex $-1 $396 $509 #
straight-curve $-1 -39.579481670544808 5.7996187720081309 85.586807482674914 0.78801074757464917 0 -0.61566148304635926 I I #
vertex $-1 $269 $510 #
straight-curve $-1 -39.579481670544808 16.637849333286923 85.586807482674914 0.78801074757464917 0 -0.61566148304635926 I I #
coedge $-1 $268 $505 $270 $407 forward $392 $-1 #
straight-curve $-1 22.51347629932085 16.637849333286923 9.6660902856138193 -1 0 0 I I #
edge $-1 $511 5.7996187720081309 $272 16.637849333286923 $270 $512 forward 7 unknown #
point $-1 68.711813715018167 16.637849333286923 0.98037321348841999 #
point $-1 68.711813715018167 16.637849333286923 9.6660902856138193 #
edge $-1 $513 1 $513 0 $274 $-1 forward 7 unknown #
vertex $-1 $275 $514 #
ellipse-curve $-1 62.132661214434691 11.218734052647527 4.0169909656751077 0.61566148304635926 0 0.78801074757464917 0.78801074757464917 0 -0.61566148304635926 1 I I #
point $-1 63.941219131818791 11.218734052647527 4.7075702665047423 #
plane-surface $-1 0 0 9.6660902856138193 0 0 1 1 0 0 forward_v I I I I #
coedge $-1 $425 $424 $417 $515 forward $279 $-1 #
coedge $-1 $417 $281 $283 $421 reversed $171 $-1 #
coedge $-1 $281 $416 $415 $515 reversed $171 $-1 #
coedge $-1 $289 $284 $281 $419 forward $290 $-1 #
edge $-1 $422 -19.064520938632214 $516 -7.9473102770841706 $418 $517 forward 7 unknown #
coedge $-1 $283 $282 $425 $518 reversed $107 $-1 #
edge $-1 $519 0 $422 14.107942938297164 $416 $520 forward 7 unknown #
vertex $-1 $285 $521 #
straight-curve $-1 -57.594603053470124 0.19025174568436753 9.6660902856138176 0 1 0 I I #
coedge $-1 $415 $286 $289 $429 reversed $279 $-1 #
coedge $-1 $286 $415 $420 $518 forward $279 $-1 #
vertex $-1 $287 $522 #
straight-curve $-1 -68.711813715018167 -5.0386117892706608 54.635834299525683 0 0 1 I I #
straight-curve $-1 -68.711813715018167 -5.0386117892706608 0.98037321348837736 -0.78801074757464917 0 -0.61566148304635926 I I #
edge $-1 $516 -5.7996187720081309 $291 5.0386117892706608 $424 $523 forward 7 unknown #
point $-1 -68.711813715018167 -5.0386117892706608 9.6660902856138193 #
point $-1 -57.594603053470124 -5.0386117892706608 9.6660902856138193 #
edge $-1 $524 1 $524 0 $294 $-1 forward 7 unknown #
vertex $-1 $295 $525 #
ellipse-curve $-1 -62.132661214434684 0.38050349136873507 4.0169909656750953 -0.61566148304635926 0 0.78801074757464917 0.78801074757464917 0 0.61566148304635926 1 I I #
point $-1 -62.365197636669485 0.38050349136873507 5.9388932325974482 #
loop $-1 $-1 $307 $298 #
plane-surface $-1 -68.711813715018167 0 0 1 0 0 0 0 -1 forward_v I I I I #
coedge $-1 $301 $442 $310 $450 forward $186 $-1 #
edge $-1 $447 0 $443 14.107942938297164 $302 $526 forward 7 unknown #
coedge $-1 $307 $527 $303 $441 forward $436 $-1 #
edge $-1 $444 44.969744013911864 $447 53.655461086037306 $440 $528 forward 7 unknown #
coedge $-1 $438 $304 $527 $529 forward $186 $-1 #
vertex $-1 $305 $530 #
vertex $-1 $529 $531 #
straight-curve $-1 -76.659123992102337 16.637849333286923 9.6660902856138193 -1 0 0 I I #
coedge $-1 $527 $307 $311 $451 forward $436 $-1 #
vertex $-1 $441 $532 #
straight-curve $-1 -68.711813715018167 0.19025174568436753 0.98037321348837869 0 -1 0 I I #
straight-curve $-1 -57.594603053470124 0.19025174568436753 9.6660902856138176 0 1 0 I I #
edge $-1 $533 7.9473102770841706 $313 19.064520938632214 $438 $534 forward 7 unknown #
edge $-1 $312 -53.655461086037306 $533 -44.969744013911864 $446 $535 forward 7 unknown #
point $-1 -68.711813715018167 5.7996187720081309 0.98037321348837736 #
point $-1 -57.594603053470124 5.7996187720081309 9.6660902856138193 #
edge $-1 $536 1 $536 0 $315 $-1 forward 7 unknown #
vertex $-1 $316 $537 #
ellipse-curve $-1 -62.132661214434684 11.218734052647527 4.0169909656750953 -0.61566148304635926 0 0.78801074757464917 0.78801074757464917 0 0.61566148304635926 1 I I #
point $-1 -62.365197636669485 11.218734052647527 5.9388932325974482 #
plane-surface $-1 68.711813715018167 0 0 -1 0 0 0 0 1 forward_v I I I I #
coedge $-1 $324 $322 $326 $463 reversed $201 $-1 #
edge $-1 $337 -9.6660902856138193 $465 9.6660902856138193 $336 $538 forward 7 unknown #
vertex $-1 $463 $539 #
straight-curve $-1 -68.711813715018167 -35.575511668955187 0 0 0 -1 I I #
edge $-1 $461 -35.575511668955187 $465 35.575511668955187 $459 $540 forward 7 unknown #
straight-curve $-1 0 -35.575511668955187 -9.6660902856138193 -1 0 0 I I #
vertex $-1 $329 $541 #
straight-curve $-1 0 35.575511668955187 -9.6660902856138193 1 0 0 I I #
point $-1 68.711813715018167 35.575511668955187 -9.6660902856138193 #
point $-1 68.711813715018167 -35.575511668955187 -9.6660902856138193 #
straight-curve $-1 -68.711813715018167 0 9.6660902856138193 0 -1 0 I I #
point $-1 -68.711813715018167 35.575511668955187 9.6660902856138193 #
point $-1 -68.711813715018167 -35.575511668955187 9.6660902856138193 #
straight-curve $-1 68.711813715018167 -35.575511668955187 0 0 0 -1 I I #
straight-curve $-1 68.711813715018167 35.575511668955187 0 0 0 -1 I I #
plane-surface $-1 68.711813715018167 0 0 -1 0 0 0 0 1 forward_v I I I I #
coedge $-1 $478 $349 $360 $487 forward $220 $-1 #
coedge $-1 $349 $478 $363 $489 reversed $220 $-1 #
straight-curve $-1 68.711813715018167 -23.976274124938918 3.6192524849033063 0 0 1 I I #
coedge $-1 $476 $475 $352 $479 forward $220 $-1 #
edge $-1 $482 9.0883276764653917 $480 20.687565220481659 $478 $542 forward 7 unknown #
vertex $-1 $354 $543 #
straight-curve $-1 0 -35.575511668955187 5.7385049698066135 1 0 0 I I #
vertex $-1 $479 $544 #
straight-curve $-1 0 -23.976274124938918 5.7385049698066135 1 0 0 I I #
point $-1 68.711813715018167 -35.575511668955187 5.7385049698066135 #
point $-1 68.711813715018167 -23.976274124938918 5.7385049698066135 #
straight-curve $-1 -68.711813715018167 -14.887946448473526 8.7385049698066126 0 1 0 I I #
edge $-1 $361 -5.1192524849033063 $482 -2.1192524849033072 $475 $545 forward 7 unknown #
point $-1 -68.711813715018167 -23.976274124938918 8.7385049698066126 #
edge $-1 $365 -8.7385049698066126 $480 -5.7385049698066135 $476 $546 forward 7 unknown #
point $-1 -68.711813715018167 -35.575511668955187 8.7385049698066126 #
straight-curve $-1 68.711813715018167 -35.575511668955187 0 0 0 -1 I I #
edge $-1 $493 -46.198337415697317 $496 -35.081126754149331 $371 $547 forward 7 unknown #
vertex $-1 $492 $548 #
straight-curve $-1 68.711813715018167 5.7996187720081309 96.939051434118952 0 0 1 I I #
edge $-1 $496 -5.6093670263237634 $382 5.2288635349550283 $381 $549 forward 7 unknown #
vertex $-1 $495 $550 #
straight-curve $-1 -39.579481670544808 5.7996187720081309 85.586807482674914 0.78801074757464917 0 -0.61566148304635926 I I #
point $-1 68.711813715018167 5.7996187720081309 0.98037321348841999 #
point $-1 57.59460305347018 -5.0386117892706608 9.6660902856138193 #
straight-curve $-1 68.711813715018167 0 9.6660902856138193 0 1 0 I I #
vertex $-1 $388 $551 #
point $-1 62.920671962009344 0.38050349136873507 3.4013294826287481 #
edge $-1 $511 87.272961148505132 $401 95.958678220630532 $395 $552 forward 7 unknown #
straight-curve $-1 68.711813715018167 0.19025174568436753 0.98037321348841999 0 1 0 I I #
coedge $-1 $405 $397 $399 $507 forward $392 $-1 #
straight-curve $-1 57.594603053470195 0.19025174568436753 9.6660902856138193 0 -1 0 I I #
edge $-1 $400 35.081126754149331 $511 46.198337415697317 $505 $553 forward 7 unknown #
point $-1 57.59460305347018 5.7996187720081309 9.6660902856138193 #
point $-1 68.711813715018167 5.7996187720081309 0.98037321348841999 #
point $-1 57.59460305347018 16.637849333286923 9.6660902856138193 #
vertex $-1 $407 $554 #
straight-curve $-1 68.711813715018167 0 9.6660902856138193 0 1 0 I I #
vertex $-1 $410 $555 #
point $-1 62.920671962009344 11.218734052647527 3.4013294826287481 #
edge $-1 $516 44.969744013911864 $519 53.655461086037306 $415 $556 forward 7 unknown #
vertex $-1 $429 $557 #
straight-curve $-1 -76.659123992102337 5.7996187720081309 9.6660902856138193 -1 0 0 I I #
edge $-1 $519 -5.6093670263237634 $426 5.2288635349550283 $425 $558 forward 7 unknown #
vertex $-1 $518 $559 #
straight-curve $-1 -68.711813715018167 5.7996187720081309 0.98037321348837736 0.78801074757464917 0 0.61566148304635926 I I #
point $-1 -57.594603053470124 5.7996187720081309 9.6660902856138193 #
point $-1 -68.711813715018167 -5.0386117892706608 0.98037321348837736 #
straight-curve $-1 -68.711813715018167 0 9.6660902856138193 0 -1 0 I I #
vertex $-1 $432 $560 #
point $-1 -61.344650466860038 0.38050349136873507 4.632652448721454 #
straight-curve $-1 -68.711813715018167 16.637849333286923 0.98037321348837736 0.78801074757464917 0 0.61566148304635926 I I #
coedge $-1 $440 $446 $442 $529 reversed $436 $-1 #
straight-curve $-1 -68.711813715018167 16.637849333286923 54.635834299525683 0 0 -1 I I #
edge $-1 $444 -16.637849333286923 $533 -5.7996187720081309 $527 $561 forward 7 unknown #
point $-1 -57.594603053470124 16.637849333286923 9.6660902856138193 #
point $-1 -68.711813715018167 16.637849333286923 9.6660902856138193 #
point $-1 -68.711813715018167 16.637849333286923 0.98037321348837736 #
vertex $-1 $451 $562 #
straight-curve $-1 -76.659123992102337 5.7996187720081309 9.6660902856138193 1 0 0 I I #
straight-curve $-1 -68.711813715018167 5.7996187720081309 54.635834299525683 0 0 1 I I #
vertex $-1 $454 $563 #
point $-1 -61.344650466860038 11.218734052647527 4.632652448721454 #
straight-curve $-1 -68.711813715018167 35.575511668955187 0 0 0 -1 I I #
point $-1 -68.711813715018167 -35.575511668955187 -9.6660902856138193 #
straight-curve $-1 -68.711813715018167 0 -9.6660902856138193 0 1 0 I I #
point $-1 -68.711813715018167 35.575511668955187 -9.6660902856138193 #
straight-curve $-1 -68.711813715018167 -14.887946448473526 5.7385049698066135 0 -1 0 I I #
point $-1 -68.711813715018167 -35.575511668955187 5.7385049698066135 #
point $-1 -68.711813715018167 -23.976274124938918 5.7385049698066135 #
straight-curve $-1 -68.711813715018167 -23.976274124938918 3.6192524849033063 0 0 -1 I I #
straight-curve $-1 -68.711813715018167 -35.575511668955187 0 0 0 -1 I I #
straight-curve $-1 22.51347629932085 5.7996187720081309 9.6660902856138193 -1 0 0 I I #
point $-1 68.711813715018167 5.7996187720081309 9.6660902856138193 #
straight-curve $-1 57.594603053470195 0.19025174568436753 9.6660902856138193 0 -1 0 I I #
point $-1 57.59460305347018 5.7996187720081309 9.6660902856138193 #
point $-1 61.516999731388339 0.38050349136873507 3.228980218100459 #
straight-curve $-1 68.711813715018167 5.7996187720081309 96.939051434118952 0 0 -1 I I #
straight-curve $-1 22.51347629932085 5.7996187720081309 9.6660902856138193 1 0 0 I I #
point $-1 68.711813715018167 5.7996187720081309 9.6660902856138193 #
point $-1 61.516999731388339 11.218734052647527 3.228980218100459 #
straight-curve $-1 -68.711813715018167 5.7996187720081309 54.635834299525683 0 0 -1 I I #
point $-1 -68.711813715018167 5.7996187720081309 9.6660902856138193 #
straight-curve $-1 -68.711813715018167 0.19025174568436753 0.98037321348837869 0 -1 0 I I #
point $-1 -68.711813715018167 5.7996187720081309 0.98037321348837736 #
point $-1 -61.516999731388331 0.38050349136873507 3.2289802181004466 #
straight-curve $-1 -68.711813715018167 0 9.6660902856138193 0 -1 0 I I #
point $-1 -68.711813715018167 5.7996187720081309 9.6660902856138193 #
point $-1 -61.516999731388331 11.218734052647527 3.2289802181004466 #
End-of-ACIS-data 