500 0 4 0           
7 Unknown 11 ACIS 5.0 NT 24 Fri Mar 26 18:31:29 1999 
-1 9.9999999999999995e-007 1e-010 
body $-1 $4 $-1 $5 #
body $-1 $6 $-1 $7 #
body $-1 $8 $-1 $9 #
body $-1 $10 $-1 $11 #
lump $-1 $-1 $12 $0 #
transform $-1 1 0 0 0 1 0 0 0 1 66.23371074556718 33.398632138368846 13.398694999496444 1 rotate no_reflect no_shear #
lump $-1 $-1 $13 $1 #
transform $-1 1 0 0 0 1 0 0 0 1 66.23371074556718 33.398632138368846 13.398694999496444 1 rotate no_reflect no_shear #
lump $-1 $-1 $14 $2 #
transform $-1 1 0 0 0 1 0 0 0 1 66.23371074556718 33.398632138368846 13.398694999496444 1 rotate no_reflect no_shear #
lump $-1 $-1 $15 $3 #
transform $-1 1 0 0 0 1 0 0 0 1 66.23371074556718 33.398632138368846 13.398694999496444 1 rotate no_reflect no_shear #
shell $-1 $-1 $-1 $16 $-1 $4 #
shell $-1 $-1 $-1 $17 $-1 $6 #
shell $-1 $-1 $-1 $18 $-1 $8 #
shell $-1 $-1 $-1 $19 $-1 $10 #
face $-1 $20 $21 $12 $-1 $22 forward single #
face $-1 $23 $24 $13 $-1 $25 reversed single #
face $-1 $26 $27 $14 $-1 $28 reversed single #
face $-1 $29 $30 $15 $-1 $31 forward single #
face $-1 $32 $33 $12 $-1 $34 reversed single #
loop $-1 $-1 $35 $16 #
plane-surface $-1 0 0 13.398694999496444 0 0 1 1 0 0 forward_v I I I I #
face $-1 $36 $37 $13 $-1 $38 reversed single #
loop $-1 $-1 $39 $17 #
plane-surface $-1 -59.617616955401694 -28.736186674161175 0 0 1 0 0 0 1 forward_v I I I I #
face $-1 $40 $41 $14 $-1 $42 reversed single #
loop $-1 $-1 $43 $18 #
plane-surface $-1 13.038733038172133 -134.8745653636617 89.221002751663619 -1 0 0 0 -0.7660444514056185 0.64278759981090561 forward_v I I I I #
face $-1 $44 $45 $15 $-1 $46 forward single #
loop $-1 $47 $48 $19 #
cone-surface $-1 0.26462106935656493 -26.767526141996591 6.4546836091343689 0 0.7660444514056185 -0.64278759981090561 2 0 0 1 I I 0 1 2 forward I I I I #
face $-1 $49 $50 $12 $-1 $51 reversed single #
loop $-1 $-1 $52 $20 #
plane-surface $-1 0 0 -13.398694999496444 0 0 1 1 0 0 forward_v I I I I #
coedge $-1 $53 $54 $55 $56 forward $21 $-1 #
face $-1 $57 $58 $13 $-1 $59 reversed single #
loop $-1 $-1 $60 $23 #
plane-surface $-1 -59.617616955401694 -21.477657210491586 0 0 -1 0 0 0 -1 forward_v I I I I #
coedge $-1 $61 $62 $63 $64 reversed $24 $-1 #
face $-1 $65 $66 $14 $-1 $67 reversed single #
loop $-1 $-1 $68 $26 #
plane-surface $-1 0.26462106935656493 -33.398632138368839 4.0725868382377826 0 -0.7660444514056185 0.64278759981090561 1 0 0 forward_v I I I I #
coedge $-1 $69 $70 $71 $72 reversed $27 $-1 #
face $-1 $-1 $73 $15 $-1 $74 forward single #
loop $-1 $75 $76 $29 #
cone-surface $-1 0.26462106935656493 -23.283142550993563 3.5309386995907115 0 0.7660444514056185 -0.64278759981090561 1 0 0 1 I I -0.70710678118654746 0.70710678118654746 1 forward I I I I #
loop $-1 $-1 $77 $19 #
coedge $-1 $48 $48 $78 $79 reversed $30 $-1 #
face $-1 $80 $81 $12 $-1 $82 reversed single #
loop $-1 $-1 $83 $32 #
plane-surface $-1 0 -33.398632138368846 0 0 1 0 0 0 1 forward_v I I I I #
coedge $-1 $84 $85 $86 $87 forward $33 $-1 #
coedge $-1 $88 $35 $89 $90 forward $21 $-1 #
coedge $-1 $35 $88 $91 $92 forward $21 $-1 #
coedge $-1 $93 $94 $35 $56 reversed $95 $-1 #
edge $-1 $96 -33.398632138368846 $97 33.398632138368846 $55 $98 forward 7 unknown #
face $-1 $99 $100 $13 $-1 $101 reversed single #
loop $-1 $-1 $102 $36 #
plane-surface $-1 -53.001523165236208 -25.10692194232638 0 -1 0 0 0 0 1 forward_v I I I I #
coedge $-1 $103 $104 $105 $106 forward $37 $-1 #
coedge $-1 $107 $39 $108 $109 reversed $24 $-1 #
coedge $-1 $39 $107 $110 $111 reversed $24 $-1 #
coedge $-1 $112 $113 $39 $64 forward $114 $-1 #
edge $-1 $115 -13.398694999496444 $116 13.398694999496444 $63 $117 forward 7 unknown #
face $-1 $118 $119 $14 $-1 $120 reversed single #
loop $-1 $-1 $121 $40 #
plane-surface $-1 -12.509490899459003 -134.8745653636617 89.221002751663619 1 0 0 0 0.7660444514056185 -0.64278759981090561 forward_v I I I I #
coedge $-1 $122 $123 $124 $125 reversed $41 $-1 #
coedge $-1 $70 $43 $126 $127 reversed $27 $-1 #
coedge $-1 $43 $69 $122 $128 reversed $27 $-1 #
coedge $-1 $124 $129 $43 $72 forward $130 $-1 #
edge $-1 $131 34.038650543462005 $132 41.864184257011715 $71 $133 forward 7 unknown #
loop $-1 $-1 $78 $44 #
plane-surface $-1 0.26462106935656493 -33.398632138368839 4.0725868382377826 0 -0.7660444514056185 0.64278759981090561 1 0 0 forward_v I I I I #
loop $-1 $-1 $134 $29 #
coedge $-1 $76 $76 $77 $135 reversed $45 $-1 #
coedge $-1 $77 $77 $76 $135 forward $47 $-1 #
coedge $-1 $78 $78 $48 $79 forward $73 $-1 #
edge $-1 $136 -1.8457439957451268e-015 $136 6.2831853071795987 $78 $137 forward 7 unknown #
face $-1 $138 $139 $12 $-1 $140 reversed single #
loop $-1 $-1 $141 $49 #
plane-surface $-1 -66.23371074556718 0 0 1 0 0 0 0 -1 forward_v I I I I #
coedge $-1 $142 $91 $143 $144 forward $50 $-1 #
coedge $-1 $145 $52 $142 $146 forward $33 $-1 #
coedge $-1 $52 $145 $147 $148 forward $33 $-1 #
coedge $-1 $94 $93 $52 $87 reversed $95 $-1 #
edge $-1 $149 -33.398632138368846 $150 33.398632138368846 $86 $151 forward 7 unknown #
coedge $-1 $54 $53 $152 $153 forward $21 $-1 #
coedge $-1 $154 $155 $53 $90 reversed $139 $-1 #
edge $-1 $97 -66.23371074556718 $156 66.23371074556718 $89 $157 forward 7 unknown #
coedge $-1 $83 $158 $54 $92 reversed $50 $-1 #
edge $-1 $159 -66.23371074556718 $96 66.23371074556718 $91 $160 forward 7 unknown #
coedge $-1 $86 $55 $158 $161 forward $95 $-1 #
coedge $-1 $55 $86 $154 $162 reversed $95 $-1 #
loop $-1 $-1 $93 $138 #
vertex $-1 $56 $163 #
vertex $-1 $56 $164 #
straight-curve $-1 66.23371074556718 0 13.398694999496444 0 1 0 I I #
face $-1 $165 $166 $13 $-1 $167 forward single #
loop $-1 $-1 $168 $57 #
plane-surface $-1 0 0 -13.398694999496444 0 0 1 1 0 0 forward_v I I I I #
coedge $-1 $169 $170 $107 $171 forward $58 $-1 #
coedge $-1 $172 $60 $168 $173 reversed $37 $-1 #
coedge $-1 $60 $172 $174 $175 reversed $37 $-1 #
coedge $-1 $170 $169 $60 $106 reversed $58 $-1 #
edge $-1 $176 -13.398694999496444 $177 13.398694999496444 $105 $178 forward 7 unknown #
coedge $-1 $62 $61 $102 $171 reversed $24 $-1 #
coedge $-1 $179 $180 $61 $109 forward $100 $-1 #
edge $-1 $181 23.192714687535361 $115 36.424902267866329 $108 $182 forward 7 unknown #
coedge $-1 $183 $184 $62 $111 forward $166 $-1 #
edge $-1 $116 -36.424902267866329 $185 -23.192714687535361 $110 $186 forward 7 unknown #
coedge $-1 $187 $63 $184 $188 reversed $114 $-1 #
coedge $-1 $63 $187 $179 $189 reversed $114 $-1 #
loop $-1 $-1 $187 $165 #
vertex $-1 $189 $190 #
vertex $-1 $64 $191 #
straight-curve $-1 -66.23371074556718 -28.736186674161175 0 0 0 1 I I #
face $-1 $-1 $130 $14 $-1 $192 forward single #
loop $-1 $-1 $193 $65 #
plane-surface $-1 0 -33.398632138368846 0 0 1 0 0 0 1 forward_v I I I I #
coedge $-1 $194 $195 $196 $197 reversed $66 $-1 #
coedge $-1 $198 $68 $70 $128 forward $41 $-1 #
coedge $-1 $68 $198 $194 $199 forward $41 $-1 #
coedge $-1 $196 $71 $68 $125 forward $130 $-1 #
edge $-1 $132 -12.90642250349385 $200 12.641801434137285 $124 $201 forward 7 unknown #
coedge $-1 $202 $203 $69 $127 forward $119 $-1 #
edge $-1 $204 -40.537914537594034 $131 -31.211806376335367 $126 $205 forward 7 unknown #
edge $-1 $132 -12.17436944311279 $204 1.1371122099518014e-014 $70 $206 forward 7 unknown #
coedge $-1 $71 $196 $202 $207 forward $130 $-1 #
loop $-1 $-1 $196 $118 #
vertex $-1 $127 $208 #
vertex $-1 $72 $209 #
straight-curve $-1 13.038733038172133 -67.437282681830851 13.398694999496442 0 1 0 I I #
coedge $-1 $134 $134 $-1 $210 reversed $75 $-1 #
edge $-1 $211 0 $211 6.2831853071796004 $76 $212 forward 7 unknown #
vertex $-1 $79 $213 #
ellipse-curve $-1 0.26462106935656493 -29.485865281593988 8.7356409188671122 0 -0.7660444514056185 0.64278759981090561 2 0 0 1 I I #
face $-1 $-1 $95 $12 $-1 $214 reversed single #
loop $-1 $-1 $154 $80 #
plane-surface $-1 0 33.398632138368846 0 0 -1 0 0 0 -1 forward_v I I I I #
coedge $-1 $215 $152 $155 $216 forward $81 $-1 #
coedge $-1 $158 $83 $84 $146 reversed $50 $-1 #
coedge $-1 $152 $215 $83 $144 reversed $81 $-1 #
edge $-1 $159 -13.398694999496444 $217 13.398694999496444 $143 $218 forward 7 unknown #
coedge $-1 $85 $84 $215 $219 forward $33 $-1 #
edge $-1 $150 -66.23371074556718 $217 66.23371074556718 $142 $220 forward 7 unknown #
coedge $-1 $155 $154 $85 $148 reversed $139 $-1 #
edge $-1 $221 -66.23371074556718 $149 66.23371074556718 $147 $222 forward 7 unknown #
vertex $-1 $87 $223 #
vertex $-1 $161 $224 #
straight-curve $-1 66.23371074556718 0 -13.398694999496444 0 -1 0 I I #
coedge $-1 $141 $143 $88 $153 reversed $81 $-1 #
edge $-1 $156 -33.398632138368846 $159 33.398632138368846 $152 $225 forward 7 unknown #
coedge $-1 $147 $89 $94 $162 forward $139 $-1 #
coedge $-1 $89 $147 $141 $216 reversed $139 $-1 #
vertex $-1 $90 $226 #
straight-curve $-1 0 33.398632138368846 13.398694999496444 -1 0 0 I I #
coedge $-1 $91 $142 $93 $161 reversed $50 $-1 #
vertex $-1 $153 $227 #
straight-curve $-1 0 -33.398632138368846 13.398694999496444 1 0 0 I I #
edge $-1 $96 -13.398694999496444 $150 13.398694999496444 $93 $228 forward 7 unknown #
edge $-1 $97 -13.398694999496444 $149 13.398694999496444 $94 $229 forward 7 unknown #
point $-1 66.23371074556718 -33.398632138368846 13.398694999496444 #
point $-1 66.23371074556718 33.398632138368846 13.398694999496444 #
face $-1 $-1 $114 $13 $-1 $230 reversed single #
loop $-1 $-1 $174 $99 #
plane-surface $-1 0 0 13.398694999496444 0 0 1 1 0 0 forward_v I I I I #
coedge $-1 $180 $179 $103 $173 forward $100 $-1 #
coedge $-1 $105 $102 $180 $231 reversed $58 $-1 #
coedge $-1 $102 $105 $183 $232 reversed $58 $-1 #
edge $-1 $185 -13.398694999496444 $181 13.398694999496444 $102 $233 forward 7 unknown #
coedge $-1 $104 $103 $187 $234 reversed $37 $-1 #
edge $-1 $235 -36.424902267866329 $177 -23.192714687535361 $168 $236 forward 7 unknown #
coedge $-1 $184 $183 $104 $175 forward $166 $-1 #
edge $-1 $176 23.192714687535361 $237 36.424902267866329 $174 $238 forward 7 unknown #
vertex $-1 $175 $239 #
vertex $-1 $173 $240 #
straight-curve $-1 -53.001523165236208 -21.477657210491586 0 0 0 -1 I I #
coedge $-1 $168 $108 $113 $189 forward $100 $-1 #
coedge $-1 $108 $168 $169 $231 forward $100 $-1 #
vertex $-1 $109 $241 #
straight-curve $-1 -29.808808477700847 -28.736186674161175 -13.398694999496444 -1 0 0 I I #
coedge $-1 $174 $110 $170 $232 forward $166 $-1 #
coedge $-1 $110 $174 $112 $188 forward $166 $-1 #
vertex $-1 $111 $242 #
straight-curve $-1 -29.808808477700847 -28.736186674161175 13.398694999496444 1 0 0 I I #
coedge $-1 $113 $112 $172 $234 forward $114 $-1 #
edge $-1 $237 21.477657210491586 $116 28.736186674161175 $112 $243 forward 7 unknown #
edge $-1 $115 -28.736186674161175 $235 -21.477657210491586 $113 $244 forward 7 unknown #
point $-1 -66.23371074556718 -28.736186674161175 -13.398694999496444 #
point $-1 -66.23371074556718 -28.736186674161175 13.398694999496444 #
plane-surface $-1 0 0 13.398694999496444 0 0 1 1 0 0 forward_v I I I I #
coedge $-1 $203 $202 $195 $245 forward $119 $-1 #
coedge $-1 $195 $121 $123 $199 reversed $66 $-1 #
coedge $-1 $121 $194 $193 $245 reversed $66 $-1 #
coedge $-1 $129 $124 $121 $197 forward $130 $-1 #
edge $-1 $200 -41.864184257011715 $246 -34.038650543462005 $196 $247 forward 7 unknown #
coedge $-1 $123 $122 $203 $248 reversed $41 $-1 #
edge $-1 $249 -1.1371122099518014e-014 $200 12.17436944311279 $194 $250 forward 7 unknown #
vertex $-1 $125 $251 #
straight-curve $-1 0.13231053467828247 -25.573098424819136 13.398694999496444 -1 0 0 I I #
coedge $-1 $193 $126 $129 $207 reversed $119 $-1 #
coedge $-1 $126 $193 $198 $248 forward $119 $-1 #
vertex $-1 $127 $252 #
straight-curve $-1 13.038733038172133 -33.398632138368846 44.610501375831809 0 0 1 I I #
straight-curve $-1 13.038733038172133 -33.398632138368839 4.0725868382377826 0 -0.64278759981090561 -0.7660444514056185 I I #
edge $-1 $246 -12.509490899459003 $131 13.038733038172133 $202 $253 forward 7 unknown #
point $-1 13.038733038172133 -33.398632138368846 13.398694999496444 #
point $-1 13.038733038172133 -25.57309842481914 13.398694999496444 #
edge $-1 $254 1 $254 0 $134 $-1 forward 7 unknown #
vertex $-1 $135 $255 #
ellipse-curve $-1 0.26462106935656493 -24.049187002399183 4.1737262994016167 0 -0.7660444514056185 0.64278759981090561 2 0 0 1 I I #
point $-1 2.2646210693565649 -29.485865281594002 8.7356409188671194 #
plane-surface $-1 66.23371074556718 0 0 -1 0 0 0 0 1 forward_v I I I I #
coedge $-1 $143 $141 $145 $219 reversed $81 $-1 #
edge $-1 $156 -13.398694999496444 $221 13.398694999496444 $155 $256 forward 7 unknown #
vertex $-1 $219 $257 #
straight-curve $-1 -66.23371074556718 -33.398632138368846 0 0 0 -1 I I #
edge $-1 $217 -33.398632138368846 $221 33.398632138368846 $215 $258 forward 7 unknown #
straight-curve $-1 0 -33.398632138368846 -13.398694999496444 -1 0 0 I I #
vertex $-1 $148 $259 #
straight-curve $-1 0 33.398632138368846 -13.398694999496444 1 0 0 I I #
point $-1 66.23371074556718 33.398632138368846 -13.398694999496444 #
point $-1 66.23371074556718 -33.398632138368846 -13.398694999496444 #
straight-curve $-1 -66.23371074556718 0 13.398694999496444 0 -1 0 I I #
point $-1 -66.23371074556718 33.398632138368846 13.398694999496444 #
point $-1 -66.23371074556718 -33.398632138368846 13.398694999496444 #
straight-curve $-1 66.23371074556718 -33.398632138368846 0 0 0 -1 I I #
straight-curve $-1 66.23371074556718 33.398632138368846 0 0 0 -1 I I #
plane-surface $-1 -66.23371074556718 0 0 1 0 0 0 0 -1 forward_v I I I I #
edge $-1 $177 8.9241962393283956 $181 16.182725702997985 $180 $260 forward 7 unknown #
edge $-1 $185 -16.182725702997985 $176 -8.9241962393283956 $183 $261 forward 7 unknown #
straight-curve $-1 -53.001523165236208 -28.736186674161175 0 0 0 -1 I I #
edge $-1 $237 -13.398694999496444 $235 13.398694999496444 $187 $262 forward 7 unknown #
vertex $-1 $234 $263 #
straight-curve $-1 -29.808808477700847 -21.477657210491586 -13.398694999496444 1 0 0 I I #
vertex $-1 $188 $264 #
straight-curve $-1 -29.808808477700847 -21.477657210491586 13.398694999496444 -1 0 0 I I #
point $-1 -53.001523165236208 -21.477657210491586 13.398694999496444 #
point $-1 -53.001523165236208 -21.477657210491586 -13.398694999496444 #
point $-1 -53.001523165236208 -28.736186674161175 -13.398694999496444 #
point $-1 -53.001523165236208 -28.736186674161175 13.398694999496444 #
straight-curve $-1 -66.23371074556718 0 13.398694999496444 0 -1 0 I I #
straight-curve $-1 -66.23371074556718 0 -13.398694999496444 0 1 0 I I #
edge $-1 $246 31.211806376335367 $249 40.537914537594034 $193 $265 forward 7 unknown #
vertex $-1 $207 $266 #
straight-curve $-1 -12.509490899459003 -67.437282681830851 13.398694999496442 0 -1 0 I I #
edge $-1 $249 -12.641801434137285 $204 12.90642250349385 $203 $267 forward 7 unknown #
vertex $-1 $248 $268 #
straight-curve $-1 -12.509490899459003 -33.398632138368839 4.0725868382377826 0 0.64278759981090561 0.7660444514056185 I I #
point $-1 -12.509490899459003 -25.57309842481914 13.398694999496444 #
point $-1 13.038733038172133 -33.398632138368846 4.0725868382377737 #
straight-curve $-1 0 -33.398632138368846 13.398694999496444 1 0 0 I I #
vertex $-1 $210 $269 #
point $-1 2.2646210693565649 -24.049187002399183 4.1737262994016167 #
straight-curve $-1 -66.23371074556718 33.398632138368846 0 0 0 -1 I I #
point $-1 -66.23371074556718 -33.398632138368846 -13.398694999496444 #
straight-curve $-1 -66.23371074556718 0 -13.398694999496444 0 1 0 I I #
point $-1 -66.23371074556718 33.398632138368846 -13.398694999496444 #
straight-curve $-1 -53.001523165236208 -12.55346097116319 -13.398694999496444 0 -1 0 I I #
straight-curve $-1 -53.001523165236208 -12.55346097116319 13.398694999496444 0 1 0 I I #
straight-curve $-1 -66.23371074556718 -21.477657210491586 0 0 0 -1 I I #
point $-1 -66.23371074556718 -21.477657210491586 -13.398694999496444 #
point $-1 -66.23371074556718 -21.477657210491586 13.398694999496444 #
straight-curve $-1 -12.509490899459003 -33.398632138368846 44.610501375831809 0 0 -1 I I #
point $-1 -12.509490899459003 -33.398632138368846 13.398694999496444 #
straight-curve $-1 0.13231053467828247 -33.398632138368846 4.0725868382377701 1 0 0 I I #
point $-1 -12.509490899459003 -33.398632138368846 4.0725868382377737 #
point $-1 0.26462106935656493 -22.517098099587944 2.8881510997798059 #
End-of-ACIS-data 