500 0 9 0           
7 Unknown 11 ACIS 5.0 NT 24 Fri Mar 26 01:07:38 1999 
-1 9.9999999999999995e-007 1e-010 
body $-1 $9 $-1 $10 #
body $-1 $11 $-1 $12 #
body $-1 $13 $-1 $14 #
body $-1 $15 $-1 $16 #
body $-1 $17 $-1 $18 #
body $-1 $19 $-1 $20 #
body $-1 $21 $-1 $22 #
body $-1 $23 $-1 $24 #
body $-1 $25 $-1 $26 #
lump $-1 $-1 $27 $0 #
transform $-1 1 0 0 0 1 0 0 0 1 55.333719901120027 22.598050060878265 4.7519560635538651 1 rotate no_reflect no_shear #
lump $-1 $-1 $28 $1 #
transform $-1 1 0 0 0 1 0 0 0 1 55.333719901120027 22.598050060878265 4.7519560635538651 1 rotate no_reflect no_shear #
lump $-1 $-1 $29 $2 #
transform $-1 1 0 0 0 1 0 0 0 1 55.333719901120027 22.598050060878265 4.7519560635538651 1 rotate no_reflect no_shear #
lump $-1 $-1 $30 $3 #
transform $-1 1 0 0 0 1 0 0 0 1 55.333719901120027 22.598050060878265 4.7519560635538651 1 rotate no_reflect no_shear #
lump $-1 $-1 $31 $4 #
transform $-1 1 0 0 0 1 0 0 0 1 55.333719901120027 22.598050060878265 4.7519560635538651 1 rotate no_reflect no_shear #
lump $-1 $-1 $32 $5 #
transform $-1 1 0 0 0 1 0 0 0 1 55.333719901120027 22.598050060878265 4.7519560635538651 1 rotate no_reflect no_shear #
lump $-1 $-1 $33 $6 #
transform $-1 1 0 0 0 1 0 0 0 1 55.333719901120027 22.598050060878265 4.7519560635538651 1 rotate no_reflect no_shear #
lump $-1 $-1 $34 $7 #
transform $-1 1 0 0 0 1 0 0 0 1 55.333719901120027 22.598050060878265 4.7519560635538651 1 rotate no_reflect no_shear #
lump $-1 $-1 $35 $8 #
transform $-1 1 0 0 0 1 0 0 0 1 55.333719901120027 22.598050060878265 4.7519560635538651 1 rotate no_reflect no_shear #
shell $-1 $-1 $-1 $36 $-1 $9 #
shell $-1 $-1 $-1 $37 $-1 $11 #
shell $-1 $-1 $-1 $38 $-1 $13 #
shell $-1 $-1 $-1 $39 $-1 $15 #
shell $-1 $-1 $-1 $40 $-1 $17 #
shell $-1 $-1 $-1 $41 $-1 $19 #
shell $-1 $-1 $-1 $42 $-1 $21 #
shell $-1 $-1 $-1 $43 $-1 $23 #
shell $-1 $-1 $-1 $44 $-1 $25 #
face $-1 $45 $46 $27 $-1 $47 reversed single #
face $-1 $48 $49 $28 $-1 $50 forward single #
face $-1 $51 $52 $29 $-1 $53 reversed single #
face $-1 $54 $55 $30 $-1 $56 forward single #
face $-1 $57 $58 $31 $-1 $59 forward single #
face $-1 $60 $61 $32 $-1 $62 forward single #
face $-1 $63 $64 $33 $-1 $65 reversed single #
face $-1 $66 $67 $34 $-1 $68 forward single #
face $-1 $69 $70 $35 $-1 $71 forward single #
face $-1 $72 $73 $27 $-1 $74 forward single #
loop $-1 $-1 $75 $36 #
plane-surface $-1 0 -22.598050060878265 0 0 1 0 0 0 1 forward_v I I I I #
face $-1 $76 $77 $28 $-1 $78 reversed single #
loop $-1 $-1 $79 $37 #
plane-surface $-1 0 -22.598050060878265 0 0 1 0 0 0 1 forward_v I I I I #
face $-1 $80 $81 $29 $-1 $82 reversed single #
loop $-1 $-1 $83 $38 #
plane-surface $-1 87.873439121513087 18.036898450981322 154.50773838782234 0 -1 0 -0.83867057594974714 0 -0.54463902268945019 forward_v I I I I #
face $-1 $84 $85 $30 $-1 $86 forward single #
loop $-1 $87 $88 $39 #
cone-surface $-1 53.51162491389541 12.566842304986395 2.6054065672134832 -0.83867057594974714 0 -0.54463902268945019 0.2723195113447251 0 -0.41933528797487357 1 I I 0 1 0.5 forward I I I I #
face $-1 $89 $90 $31 $-1 $91 forward single #
loop $-1 $92 $93 $40 #
cone-surface $-1 53.51162491389541 14.618113359734494 2.6054065672134832 -0.83867057594974714 0 -0.54463902268945019 0.2723195113447251 0 -0.41933528797487357 1 I I 0 1 0.5 forward I I I I #
face $-1 $94 $95 $32 $-1 $96 forward single #
loop $-1 $97 $98 $41 #
cone-surface $-1 53.51162491389541 16.669384414482593 2.6054065672134832 -0.83867057594974714 0 -0.54463902268945019 0.2723195113447251 0 -0.41933528797487357 1 I I 0 1 0.5 forward I I I I #
face $-1 $99 $100 $33 $-1 $101 reversed single #
loop $-1 $-1 $102 $42 #
plane-surface $-1 -120.38240975688001 -13.849686439473921 89.611986084696966 0 1 0 -0.5877852598018023 0 0.80901698891910034 forward_v I I I I #
face $-1 $103 $104 $34 $-1 $105 forward single #
loop $-1 $106 $107 $43 #
cone-surface $-1 -51.824730681700956 -11.62533981173285 2.0115431195688429 0.5877852598018023 0 -0.80901698891910034 0.40450849445955017 0 0.29389262990090115 1 I I 0 1 0.5 forward I I I I #
face $-1 $108 $109 $35 $-1 $110 forward single #
loop $-1 $111 $112 $44 #
cone-surface $-1 -51.824730681700956 -8.2888198701212481 2.0115431195688429 0.5877852598018023 0 -0.80901698891910034 0.40450849445955017 0 0.29389262990090115 1 I I 0 1 0.5 forward I I I I #
face $-1 $113 $114 $27 $-1 $115 reversed single #
loop $-1 $-1 $116 $45 #
plane-surface $-1 0 0 4.7519560635538651 0 0 1 1 0 0 forward_v I I I I #
coedge $-1 $117 $118 $119 $120 reversed $46 $-1 #
face $-1 $121 $122 $28 $-1 $123 reversed single #
loop $-1 $-1 $124 $48 #
plane-surface $-1 0 0 -4.7519560635538651 0 0 1 1 0 0 forward_v I I I I #
coedge $-1 $125 $126 $127 $128 forward $49 $-1 #
face $-1 $129 $130 $29 $-1 $131 reversed single #
loop $-1 $-1 $132 $51 #
plane-surface $-1 -4.9400863563155468 14.618113359734494 94.233932130386762 0.83867057594974714 0 0.54463902268945019 0.54463902268945019 0 -0.83867057594974714 forward_v I I I I #
coedge $-1 $133 $134 $135 $136 reversed $52 $-1 #
face $-1 $-1 $137 $30 $-1 $138 forward single #
loop $-1 $139 $140 $54 #
cone-surface $-1 52.561628990184396 12.566842304986395 1.9884720206986062 -0.83867057594974714 0 -0.54463902268945019 0.13615975567236255 0 -0.20966764398743679 1 I I -0.70710678118654724 0.70710678118654791 0.25 forward I I I I #
loop $-1 $-1 $141 $39 #
coedge $-1 $88 $88 $142 $143 reversed $55 $-1 #
face $-1 $-1 $144 $31 $-1 $145 forward single #
loop $-1 $146 $147 $57 #
cone-surface $-1 52.561628990184396 14.618113359734494 1.9884720206986062 -0.83867057594974714 0 -0.54463902268945019 0.13615975567236255 0 -0.20966764398743679 1 I I -0.70710678118654724 0.70710678118654791 0.25 forward I I I I #
loop $-1 $-1 $148 $40 #
coedge $-1 $93 $93 $149 $150 reversed $58 $-1 #
face $-1 $-1 $151 $32 $-1 $152 forward single #
loop $-1 $153 $154 $60 #
cone-surface $-1 52.561628990184396 16.669384414482593 1.9884720206986062 -0.83867057594974714 0 -0.54463902268945019 0.13615975567236255 0 -0.20966764398743679 1 I I -0.70710678118654724 0.70710678118654791 0.25 forward I I I I #
loop $-1 $-1 $155 $41 #
coedge $-1 $98 $98 $156 $157 reversed $61 $-1 #
face $-1 $158 $159 $33 $-1 $160 reversed single #
loop $-1 $-1 $161 $63 #
plane-surface $-1 -55.33371990112002 -9.9570798409270509 0.080147164502918145 -0.5877852598018023 0 0.80901698891910034 0.80901698891910034 0 0.5877852598018023 forward_v I I I I #
coedge $-1 $162 $163 $164 $165 reversed $64 $-1 #
face $-1 $-1 $166 $34 $-1 $167 forward single #
loop $-1 $168 $169 $66 #
cone-surface $-1 -51.383891736849606 -11.62533981173285 1.4047803778795176 0.5877852598018023 0 -0.80901698891910034 0.20225424722977509 0 0.14694631495045057 1 I I -0.70710678118654746 0.70710678118654746 0.25 forward I I I I #
loop $-1 $-1 $170 $43 #
coedge $-1 $107 $107 $171 $172 reversed $67 $-1 #
face $-1 $-1 $173 $35 $-1 $174 forward single #
loop $-1 $175 $176 $69 #
cone-surface $-1 -51.383891736849606 -8.2888198701212481 1.4047803778795176 0.5877852598018023 0 -0.80901698891910034 0.20225424722977509 0 0.14694631495045057 1 I I -0.70710678118654746 0.70710678118654746 0.25 forward I I I I #
loop $-1 $-1 $177 $44 #
coedge $-1 $112 $112 $178 $179 reversed $70 $-1 #
face $-1 $180 $181 $27 $-1 $182 reversed single #
loop $-1 $-1 $183 $72 #
plane-surface $-1 0 0 -4.7519560635538651 0 0 1 1 0 0 forward_v I I I I #
coedge $-1 $184 $185 $186 $187 forward $73 $-1 #
coedge $-1 $188 $75 $189 $190 reversed $46 $-1 #
coedge $-1 $75 $188 $191 $192 forward $46 $-1 #
coedge $-1 $193 $183 $75 $120 forward $114 $-1 #
edge $-1 $194 -55.333719901120027 $195 55.333719901120027 $75 $196 forward 7 unknown #
face $-1 $197 $198 $28 $-1 $199 reversed single #
loop $-1 $-1 $200 $76 #
plane-surface $-1 -50.015174977834448 -26.439760072325406 0 0 1 0 0 0 1 forward_v I I I I #
coedge $-1 $201 $202 $126 $203 forward $77 $-1 #
coedge $-1 $204 $79 $205 $206 reversed $49 $-1 #
coedge $-1 $79 $204 $124 $203 reversed $49 $-1 #
coedge $-1 $207 $208 $79 $128 reversed $198 $-1 #
edge $-1 $209 -4.7519560635538651 $210 4.7519560635538651 $127 $211 forward 7 unknown #
face $-1 $212 $213 $29 $-1 $214 forward single #
loop $-1 $-1 $215 $80 #
plane-surface $-1 87.873439121513087 11.199328268487665 154.50773838782234 0 1 0 0.83867057594974714 0 0.54463902268945019 forward_v I I I I #
coedge $-1 $216 $217 $218 $219 reversed $81 $-1 #
coedge $-1 $134 $83 $220 $221 reversed $52 $-1 #
coedge $-1 $83 $133 $216 $222 reversed $52 $-1 #
coedge $-1 $218 $223 $83 $136 forward $213 $-1 #
edge $-1 $224 -11.397000340363483 $225 -9.2334669253613981 $135 $226 forward 7 unknown #
loop $-1 $-1 $142 $84 #
plane-surface $-1 -4.9400863563155468 14.618113359734494 94.233932130386762 0.83867057594974714 0 0.54463902268945019 0.54463902268945019 0 -0.83867057594974714 forward_v I I I I #
loop $-1 $-1 $227 $54 #
coedge $-1 $140 $140 $141 $228 reversed $85 $-1 #
coedge $-1 $141 $141 $140 $228 forward $87 $-1 #
coedge $-1 $142 $142 $88 $143 forward $137 $-1 #
edge $-1 $229 0 $229 6.2831853071796004 $142 $230 forward 7 unknown #
loop $-1 $-1 $149 $89 #
plane-surface $-1 -4.9400863563155468 14.618113359734494 94.233932130386762 0.83867057594974714 0 0.54463902268945019 0.54463902268945019 0 -0.83867057594974714 forward_v I I I I #
loop $-1 $-1 $231 $57 #
coedge $-1 $147 $147 $148 $232 reversed $90 $-1 #
coedge $-1 $148 $148 $147 $232 forward $92 $-1 #
coedge $-1 $149 $149 $93 $150 forward $144 $-1 #
edge $-1 $233 0 $233 6.2831853071796004 $149 $234 forward 7 unknown #
loop $-1 $-1 $156 $94 #
plane-surface $-1 -4.9400863563155468 14.618113359734494 94.233932130386762 0.83867057594974714 0 0.54463902268945019 0.54463902268945019 0 -0.83867057594974714 forward_v I I I I #
loop $-1 $-1 $235 $60 #
coedge $-1 $154 $154 $155 $236 reversed $95 $-1 #
coedge $-1 $155 $155 $154 $236 forward $97 $-1 #
coedge $-1 $156 $156 $98 $157 forward $151 $-1 #
edge $-1 $237 0 $237 6.2831853071796004 $156 $238 forward 7 unknown #
face $-1 $239 $240 $33 $-1 $241 reversed single #
loop $-1 $-1 $242 $99 #
plane-surface $-1 -120.38240975688001 -6.0644732423801821 89.611986084696966 0 -1 0 0.5877852598018023 0 -0.80901698891910034 forward_v I I I I #
coedge $-1 $243 $244 $245 $246 reversed $100 $-1 #
coedge $-1 $163 $102 $247 $248 reversed $64 $-1 #
coedge $-1 $102 $162 $243 $249 reversed $64 $-1 #
coedge $-1 $245 $250 $102 $165 forward $251 $-1 #
edge $-1 $252 4.8574849773199773 $253 11.287678156356328 $164 $254 forward 7 unknown #
loop $-1 $-1 $171 $103 #
plane-surface $-1 -55.33371990112002 -9.9570798409270509 0.080147164502918145 -0.5877852598018023 0 0.80901698891910034 0.80901698891910034 0 0.5877852598018023 forward_v I I I I #
loop $-1 $-1 $255 $66 #
coedge $-1 $169 $169 $170 $256 reversed $104 $-1 #
coedge $-1 $170 $170 $169 $256 forward $106 $-1 #
coedge $-1 $171 $171 $107 $172 forward $166 $-1 #
edge $-1 $257 0 $257 6.2831853071796004 $171 $258 forward 7 unknown #
loop $-1 $-1 $178 $108 #
plane-surface $-1 -55.33371990112002 -9.9570798409270509 0.080147164502918145 -0.5877852598018023 0 0.80901698891910034 0.80901698891910034 0 0.5877852598018023 forward_v I I I I #
loop $-1 $-1 $259 $69 #
coedge $-1 $176 $176 $177 $260 reversed $109 $-1 #
coedge $-1 $177 $177 $176 $260 forward $111 $-1 #
coedge $-1 $178 $178 $112 $179 forward $173 $-1 #
edge $-1 $261 0 $261 6.2831853071796004 $178 $262 forward 7 unknown #
face $-1 $263 $264 $27 $-1 $265 reversed single #
loop $-1 $-1 $266 $113 #
plane-surface $-1 -55.333719901120027 0 0 1 0 0 0 0 -1 forward_v I I I I #
coedge $-1 $119 $267 $268 $269 forward $114 $-1 #
coedge $-1 $270 $116 $271 $272 forward $73 $-1 #
coedge $-1 $116 $270 $188 $273 forward $73 $-1 #
coedge $-1 $189 $274 $116 $187 reversed $275 $-1 #
edge $-1 $276 -22.598050060878265 $277 22.598050060878265 $186 $278 forward 7 unknown #
coedge $-1 $118 $117 $185 $273 reversed $46 $-1 #
coedge $-1 $268 $186 $117 $190 forward $275 $-1 #
edge $-1 $276 -4.7519560635538651 $194 4.7519560635538651 $189 $279 forward 7 unknown #
coedge $-1 $280 $281 $118 $192 reversed $181 $-1 #
edge $-1 $282 -4.7519560635538651 $195 4.7519560635538651 $191 $283 forward 7 unknown #
coedge $-1 $267 $119 $281 $284 forward $114 $-1 #
vertex $-1 $190 $285 #
vertex $-1 $284 $286 #
straight-curve $-1 0 -22.598050060878265 -4.7519560635538651 -1 0 0 I I #
face $-1 $287 $288 $28 $-1 $289 reversed single #
loop $-1 $-1 $127 $121 #
plane-surface $-1 -51.515174977834448 -24.518905066601835 0 1 0 0 0 0 -1 forward_v I I I I #
coedge $-1 $290 $291 $292 $293 forward $122 $-1 #
coedge $-1 $294 $124 $295 $296 forward $77 $-1 #
coedge $-1 $124 $294 $207 $297 forward $77 $-1 #
edge $-1 $209 -51.515174977834448 $298 -48.515174977834448 $124 $299 forward 7 unknown #
coedge $-1 $126 $125 $300 $301 forward $49 $-1 #
coedge $-1 $302 $303 $125 $206 forward $304 $-1 #
edge $-1 $305 48.515174977834448 $210 51.515174977834448 $205 $306 forward 7 unknown #
coedge $-1 $292 $127 $202 $297 reversed $198 $-1 #
coedge $-1 $127 $292 $302 $307 reversed $198 $-1 #
vertex $-1 $203 $308 #
vertex $-1 $307 $309 #
straight-curve $-1 -51.515174977834448 -22.598050060878265 0 0 0 1 I I #
face $-1 $-1 $310 $29 $-1 $311 reversed single #
loop $-1 $-1 $135 $129 #
plane-surface $-1 0 0 4.7519560635538651 0 0 1 1 0 0 forward_v I I I I #
coedge $-1 $312 $313 $314 $315 reversed $130 $-1 #
coedge $-1 $316 $132 $134 $222 forward $81 $-1 #
coedge $-1 $132 $316 $312 $317 forward $81 $-1 #
coedge $-1 $314 $135 $132 $219 forward $213 $-1 #
edge $-1 $225 -10.727841771114075 $318 -3.8902715886204184 $218 $319 forward 7 unknown #
coedge $-1 $320 $321 $133 $221 forward $310 $-1 #
edge $-1 $322 -75.833462541353029 $224 -72.501913130357309 $220 $323 forward 7 unknown #
edge $-1 $225 106.69502261421252 $322 110.66743980224004 $134 $324 forward 7 unknown #
coedge $-1 $135 $314 $320 $325 forward $213 $-1 #
vertex $-1 $136 $326 #
vertex $-1 $136 $327 #
straight-curve $-1 43.936719560756544 18.036898450981322 4.7519560635538625 -1 0 0 I I #
coedge $-1 $227 $227 $-1 $328 reversed $139 $-1 #
edge $-1 $329 0 $329 6.2831853071796004 $140 $330 forward 7 unknown #
vertex $-1 $143 $331 #
ellipse-curve $-1 54.251953193618988 12.566842304986395 3.0861813580559998 0.83867057594974714 0 0.54463902268945019 0.2723195113447251 0 -0.41933528797487357 1 I I #
coedge $-1 $231 $231 $-1 $332 reversed $146 $-1 #
edge $-1 $333 0 $333 6.2831853071796004 $147 $334 forward 7 unknown #
vertex $-1 $150 $335 #
ellipse-curve $-1 54.251953193618988 14.618113359734494 3.0861813580559998 0.83867057594974714 0 0.54463902268945019 0.2723195113447251 0 -0.41933528797487357 1 I I #
coedge $-1 $235 $235 $-1 $336 reversed $153 $-1 #
edge $-1 $337 0 $337 6.2831853071796004 $154 $338 forward 7 unknown #
vertex $-1 $157 $339 #
ellipse-curve $-1 54.251953193618988 16.669384414482593 3.0861813580559998 0.83867057594974714 0 0.54463902268945019 0.2723195113447251 0 -0.41933528797487357 1 I I #
face $-1 $-1 $251 $33 $-1 $340 forward single #
loop $-1 $-1 $341 $158 #
plane-surface $-1 -55.333719901120027 0 0 1 0 0 0 0 -1 forward_v I I I I #
coedge $-1 $342 $343 $344 $345 reversed $159 $-1 #
coedge $-1 $346 $161 $163 $249 forward $100 $-1 #
coedge $-1 $161 $346 $342 $347 forward $100 $-1 #
coedge $-1 $344 $164 $161 $246 forward $251 $-1 #
edge $-1 $253 -8.8711465190103951 $348 -1.0859333219166567 $245 $349 forward 7 unknown #
coedge $-1 $350 $351 $162 $248 forward $240 $-1 #
edge $-1 $352 -44.725845877845572 $252 -40.05403697879462 $247 $353 forward 7 unknown #
edge $-1 $253 -7.9481559313451537 $352 8.7828746355274299e-015 $163 $354 forward 7 unknown #
coedge $-1 $164 $344 $350 $355 forward $251 $-1 #
loop $-1 $-1 $344 $239 #
vertex $-1 $248 $356 #
vertex $-1 $165 $357 #
straight-curve $-1 -60.191204878440004 -13.849686439473921 4.7519560635538625 1 0 0 I I #
coedge $-1 $255 $255 $-1 $358 reversed $168 $-1 #
edge $-1 $359 0 $359 6.2831853071796004 $169 $360 forward 7 unknown #
vertex $-1 $172 $361 #
ellipse-curve $-1 -52.118623311601851 -11.62533981173285 2.4160516140283876 -0.5877852598018023 0 0.80901698891910034 0.40450849445955017 0 0.29389262990090115 1 I I #
coedge $-1 $259 $259 $-1 $362 reversed $175 $-1 #
edge $-1 $363 0 $363 6.2831853071796004 $176 $364 forward 7 unknown #
vertex $-1 $179 $365 #
ellipse-curve $-1 -52.118623311601851 -8.2888198701212481 2.4160516140283876 -0.5877852598018023 0 0.80901698891910034 0.40450849445955017 0 0.29389262990090115 1 I I #
face $-1 $-1 $275 $27 $-1 $366 reversed single #
loop $-1 $-1 $367 $180 #
plane-surface $-1 0 22.598050060878265 0 0 -1 0 0 0 -1 forward_v I I I I #
coedge $-1 $281 $280 $368 $369 forward $181 $-1 #
coedge $-1 $183 $193 $370 $371 forward $114 $-1 #
coedge $-1 $274 $189 $183 $269 reversed $275 $-1 #
edge $-1 $372 -22.598050060878265 $194 22.598050060878265 $268 $373 forward 7 unknown #
coedge $-1 $185 $184 $280 $374 forward $73 $-1 #
coedge $-1 $367 $368 $184 $272 reversed $264 $-1 #
edge $-1 $277 -55.333719901120027 $375 55.333719901120027 $271 $376 forward 7 unknown #
edge $-1 $282 -55.333719901120027 $276 55.333719901120027 $188 $377 forward 7 unknown #
coedge $-1 $186 $268 $367 $378 reversed $275 $-1 #
loop $-1 $-1 $189 $263 #
vertex $-1 $187 $379 #
vertex $-1 $187 $380 #
straight-curve $-1 55.333719901120027 0 4.7519560635538651 0 1 0 I I #
straight-curve $-1 55.333719901120027 -22.598050060878265 0 0 0 -1 I I #
coedge $-1 $266 $191 $270 $374 reversed $181 $-1 #
coedge $-1 $191 $266 $193 $284 reversed $181 $-1 #
vertex $-1 $374 $381 #
straight-curve $-1 -55.333719901120027 -22.598050060878265 0 0 0 -1 I I #
edge $-1 $195 -22.598050060878265 $382 22.598050060878265 $281 $383 forward 7 unknown #
point $-1 55.333719901120027 -22.598050060878265 -4.7519560635538651 #
point $-1 -55.333719901120027 -22.598050060878265 -4.7519560635538651 #
face $-1 $-1 $304 $28 $-1 $384 forward single #
loop $-1 $-1 $385 $197 #
plane-surface $-1 -48.515174977834448 -24.518905066601835 0 -1 0 0 0 0 1 forward_v I I I I #
coedge $-1 $386 $200 $294 $387 reversed $122 $-1 #
coedge $-1 $200 $386 $388 $389 reversed $122 $-1 #
coedge $-1 $208 $207 $200 $293 reversed $198 $-1 #
edge $-1 $390 -4.7519560635538651 $391 4.7519560635538651 $292 $392 forward 7 unknown #
coedge $-1 $202 $201 $290 $387 forward $77 $-1 #
coedge $-1 $300 $385 $201 $296 reversed $288 $-1 #
edge $-1 $298 -1.9208550057235705 $393 1.9208550057235705 $295 $394 forward 7 unknown #
edge $-1 $391 -1.9208550057235705 $209 1.9208550057235705 $207 $395 forward 7 unknown #
vertex $-1 $296 $396 #
straight-curve $-1 0 -22.598050060878265 -4.7519560635538651 1 0 0 I I #
coedge $-1 $397 $295 $204 $301 reversed $288 $-1 #
edge $-1 $305 -4.7519560635538651 $298 4.7519560635538651 $300 $398 forward 7 unknown #
coedge $-1 $388 $205 $208 $307 forward $304 $-1 #
coedge $-1 $205 $388 $397 $399 forward $304 $-1 #
loop $-1 $-1 $205 $287 #
vertex $-1 $206 $400 #
straight-curve $-1 0 -22.598050060878265 4.7519560635538651 -1 0 0 I I #
edge $-1 $210 -1.9208550057235705 $390 1.9208550057235705 $208 $401 forward 7 unknown #
point $-1 -51.515174977834448 -22.598050060878265 -4.7519560635538651 #
point $-1 -51.515174977834448 -22.598050060878265 4.7519560635538651 #
loop $-1 $-1 $220 $212 #
plane-surface $-1 55.333719901120027 0 0 -1 0 0 0 0 1 forward_v I I I I #
coedge $-1 $313 $215 $217 $317 reversed $130 $-1 #
coedge $-1 $215 $312 $402 $403 reversed $130 $-1 #
coedge $-1 $223 $218 $215 $315 forward $213 $-1 #
edge $-1 $318 9.2334669253613981 $404 11.397000340363483 $314 $405 forward 7 unknown #
coedge $-1 $217 $216 $321 $406 reversed $81 $-1 #
edge $-1 $407 -110.66743980224004 $318 -106.69502261421252 $312 $408 forward 7 unknown #
vertex $-1 $219 $409 #
straight-curve $-1 53.170186486117942 7.3090566798672469 4.7519560635538625 0 -1 0 I I #
coedge $-1 $402 $220 $223 $325 reversed $310 $-1 #
coedge $-1 $220 $402 $316 $406 forward $310 $-1 #
vertex $-1 $221 $410 #
straight-curve $-1 55.333719901120027 18.036898450981322 77.253869193911171 0 0 1 I I #
straight-curve $-1 -4.9400863563155468 18.036898450981322 94.233932130386762 0.54463902268945019 0 -0.83867057594974714 I I #
edge $-1 $404 11.199328268487665 $224 18.036898450981322 $320 $411 forward 7 unknown #
point $-1 55.333719901120027 18.036898450981322 4.7519560635538651 #
point $-1 53.170186486117942 18.036898450981322 4.7519560635538625 #
edge $-1 $412 1 $412 0 $227 $-1 forward 7 unknown #
vertex $-1 $228 $413 #
ellipse-curve $-1 52.771296634171833 12.566842304986395 2.1246317763709688 0.83867057594974714 0 0.54463902268945019 0.2723195113447251 0 -0.41933528797487357 1 I I #
point $-1 54.524272704963714 12.566842304986395 2.6668460700811241 #
edge $-1 $414 1 $414 0 $231 $-1 forward 7 unknown #
vertex $-1 $232 $415 #
ellipse-curve $-1 52.771296634171833 14.618113359734494 2.1246317763709688 0.83867057594974714 0 0.54463902268945019 0.2723195113447251 0 -0.41933528797487357 1 I I #
point $-1 54.524272704963714 14.618113359734494 2.6668460700811241 #
edge $-1 $416 1 $416 0 $235 $-1 forward 7 unknown #
vertex $-1 $236 $417 #
ellipse-curve $-1 52.771296634171833 16.669384414482593 2.1246317763709688 0.83867057594974714 0 0.54463902268945019 0.2723195113447251 0 -0.41933528797487357 1 I I #
point $-1 54.524272704963714 16.669384414482593 2.6668460700811241 #
plane-surface $-1 0 0 4.7519560635538651 0 0 1 1 0 0 forward_v I I I I #
coedge $-1 $351 $350 $343 $418 forward $240 $-1 #
coedge $-1 $343 $242 $244 $347 reversed $159 $-1 #
coedge $-1 $242 $342 $341 $418 reversed $159 $-1 #
coedge $-1 $250 $245 $242 $345 forward $251 $-1 #
edge $-1 $348 -11.287678156356328 $419 -4.8574849773199773 $344 $420 forward 7 unknown #
coedge $-1 $244 $243 $351 $421 reversed $100 $-1 #
edge $-1 $422 -8.7828746355274299e-015 $348 7.9481559313451537 $342 $423 forward 7 unknown #
vertex $-1 $246 $424 #
straight-curve $-1 -48.903526722083676 -4.9785399204635254 4.7519560635538642 0 1 0 I I #
coedge $-1 $341 $247 $250 $355 reversed $240 $-1 #
coedge $-1 $247 $341 $346 $421 forward $240 $-1 #
vertex $-1 $248 $425 #
straight-curve $-1 -55.333719901120027 -13.849686439473921 44.805993042348483 0 0 1 I I #
straight-curve $-1 -55.33371990112002 -13.849686439473921 0.080147164502918145 -0.80901698891910034 0 -0.5877852598018023 I I #
edge $-1 $419 6.0644732423801821 $252 13.849686439473921 $350 $426 forward 7 unknown #
point $-1 -55.333719901120027 -13.849686439473921 4.7519560635538651 #
point $-1 -48.903526722083676 -13.849686439473921 4.7519560635538651 #
edge $-1 $427 1 $427 0 $255 $-1 forward 7 unknown #
vertex $-1 $256 $428 #
ellipse-curve $-1 -51.530838051800053 -11.62533981173285 1.6070346251092926 -0.5877852598018023 0 0.80901698891910034 0.40450849445955017 0 0.29389262990090115 1 I I #
point $-1 -51.71411481714231 -11.62533981173285 2.7099442439292942 #
edge $-1 $429 1 $429 0 $259 $-1 forward 7 unknown #
vertex $-1 $260 $430 #
ellipse-curve $-1 -51.530838051800053 -8.2888198701212481 1.6070346251092926 -0.5877852598018023 0 0.80901698891910034 0.40450849445955017 0 0.29389262990090115 1 I I #
point $-1 -51.71411481714231 -8.2888198701212481 2.7099442439292942 #
plane-surface $-1 55.333719901120027 0 0 -1 0 0 0 0 1 forward_v I I I I #
coedge $-1 $370 $271 $274 $378 forward $264 $-1 #
coedge $-1 $271 $370 $266 $369 reversed $264 $-1 #
edge $-1 $375 -4.7519560635538651 $382 4.7519560635538651 $368 $431 forward 7 unknown #
coedge $-1 $368 $367 $267 $371 reversed $264 $-1 #
edge $-1 $382 -55.333719901120027 $372 55.333719901120027 $370 $432 forward 7 unknown #
vertex $-1 $269 $433 #
straight-curve $-1 55.333719901120027 0 -4.7519560635538651 0 -1 0 I I #
edge $-1 $375 -22.598050060878265 $282 22.598050060878265 $280 $434 forward 7 unknown #
vertex $-1 $272 $435 #
straight-curve $-1 0 22.598050060878265 4.7519560635538651 -1 0 0 I I #
straight-curve $-1 0 -22.598050060878265 4.7519560635538651 1 0 0 I I #
edge $-1 $277 -4.7519560635538651 $372 4.7519560635538651 $274 $436 forward 7 unknown #
point $-1 55.333719901120027 -22.598050060878265 4.7519560635538651 #
point $-1 55.333719901120027 22.598050060878265 4.7519560635538651 #
point $-1 -55.333719901120027 -22.598050060878265 4.7519560635538651 #
vertex $-1 $371 $437 #
straight-curve $-1 -55.333719901120027 0 -4.7519560635538651 0 1 0 I I #
plane-surface $-1 0 0 4.7519560635538651 0 0 1 1 0 0 forward_v I I I I #
coedge $-1 $295 $397 $386 $438 forward $288 $-1 #
coedge $-1 $291 $290 $385 $438 reversed $122 $-1 #
edge $-1 $393 -1.5 $391 1.5 $290 $439 forward 7 unknown #
coedge $-1 $303 $302 $291 $389 forward $304 $-1 #
edge $-1 $390 -1.5 $440 1.5 $291 $441 forward 7 unknown #
vertex $-1 $307 $442 #
vertex $-1 $297 $443 #
straight-curve $-1 -51.515174977834448 -26.439760072325406 0 0 0 -1 I I #
vertex $-1 $438 $444 #
straight-curve $-1 -48.515174977834448 -24.518905066601835 -4.7519560635538651 0 -1 0 I I #
straight-curve $-1 -51.515174977834448 -24.518905066601835 -4.7519560635538651 0 1 0 I I #
point $-1 -48.515174977834448 -22.598050060878265 -4.7519560635538651 #
coedge $-1 $385 $300 $303 $399 reversed $288 $-1 #
straight-curve $-1 -48.515174977834448 -22.598050060878265 0 0 0 -1 I I #
edge $-1 $440 -1.9208550057235705 $305 1.9208550057235705 $397 $445 forward 7 unknown #
point $-1 -48.515174977834448 -22.598050060878265 4.7519560635538651 #
straight-curve $-1 -51.515174977834448 -24.518905066601835 4.7519560635538651 0 -1 0 I I #
coedge $-1 $321 $320 $313 $403 forward $310 $-1 #
edge $-1 $404 72.501913130357309 $407 75.833462541353029 $402 $446 forward 7 unknown #
vertex $-1 $325 $447 #
straight-curve $-1 43.936719560756544 11.199328268487665 4.7519560635538625 1 0 0 I I #
edge $-1 $407 3.8902715886204184 $322 10.727841771114075 $321 $448 forward 7 unknown #
vertex $-1 $406 $449 #
straight-curve $-1 -4.9400863563155468 11.199328268487665 94.233932130386762 -0.54463902268945019 0 0.83867057594974714 I I #
point $-1 53.170186486117942 11.199328268487665 4.7519560635538625 #
point $-1 55.333719901120027 18.036898450981322 1.4204066525581425 #
straight-curve $-1 55.333719901120027 0 4.7519560635538651 0 1 0 I I #
vertex $-1 $328 $450 #
point $-1 53.043616145516559 12.566842304986395 1.7052964883960953 #
vertex $-1 $332 $451 #
point $-1 53.043616145516559 14.618113359734494 1.7052964883960953 #
vertex $-1 $336 $452 #
point $-1 53.043616145516559 16.669384414482593 1.7052964883960953 #
edge $-1 $419 40.05403697879462 $422 44.725845877845572 $341 $453 forward 7 unknown #
vertex $-1 $355 $454 #
straight-curve $-1 -60.191204878440004 -6.0644732423801821 4.7519560635538625 -1 0 0 I I #
edge $-1 $422 1.0859333219166567 $352 8.8711465190103951 $351 $455 forward 7 unknown #
vertex $-1 $421 $456 #
straight-curve $-1 -55.33371990112002 -6.0644732423801821 0.080147164502918145 0.80901698891910034 0 0.5877852598018023 I I #
point $-1 -48.903526722083676 -6.0644732423801821 4.7519560635538651 #
point $-1 -55.333719901120027 -13.849686439473921 0.080147164502912982 #
straight-curve $-1 -55.333719901120027 0 4.7519560635538651 0 -1 0 I I #
vertex $-1 $358 $457 #
point $-1 -51.126329557340505 -11.62533981173285 1.9009272550101939 #
vertex $-1 $362 $458 #
point $-1 -51.126329557340505 -8.2888198701212481 1.9009272550101939 #
straight-curve $-1 -55.333719901120027 22.598050060878265 0 0 0 -1 I I #
straight-curve $-1 0 22.598050060878265 -4.7519560635538651 1 0 0 I I #
point $-1 55.333719901120027 22.598050060878265 -4.7519560635538651 #
straight-curve $-1 -55.333719901120027 0 4.7519560635538651 0 -1 0 I I #
point $-1 -55.333719901120027 22.598050060878265 4.7519560635538651 #
straight-curve $-1 55.333719901120027 22.598050060878265 0 0 0 -1 I I #
point $-1 -55.333719901120027 22.598050060878265 -4.7519560635538651 #
edge $-1 $440 -4.7519560635538651 $393 4.7519560635538651 $385 $459 forward 7 unknown #
straight-curve $-1 -50.015174977834448 -26.439760072325406 -4.7519560635538651 -1 0 0 I I #
vertex $-1 $399 $460 #
straight-curve $-1 -50.015174977834448 -26.439760072325406 4.7519560635538651 1 0 0 I I #
point $-1 -51.515174977834448 -26.439760072325406 4.7519560635538651 #
point $-1 -51.515174977834448 -26.439760072325406 -4.7519560635538651 #
point $-1 -48.515174977834448 -26.439760072325406 -4.7519560635538651 #
straight-curve $-1 -48.515174977834448 -24.518905066601835 4.7519560635538651 0 1 0 I I #
straight-curve $-1 55.333719901120027 11.199328268487665 77.253869193911171 0 0 -1 I I #
point $-1 55.333719901120027 11.199328268487665 4.7519560635538651 #
straight-curve $-1 55.33371990112002 7.3090566798672469 1.4204066525581354 0 1 0 I I #
point $-1 55.333719901120027 11.199328268487665 1.4204066525581425 #
point $-1 52.351961346196958 12.566842304986395 1.8523122650262436 #
point $-1 52.351961346196958 14.618113359734494 1.8523122650262436 #
point $-1 52.351961346196958 16.669384414482593 1.8523122650262436 #
straight-curve $-1 -55.333719901120027 -6.0644732423801821 44.805993042348483 0 0 -1 I I #
point $-1 -55.333719901120027 -6.0644732423801821 4.7519560635538651 #
straight-curve $-1 -55.333719901120027 -4.9785399204635254 0.080147164502910664 0 -1 0 I I #
point $-1 -55.333719901120027 -6.0644732423801821 0.080147164502912982 #
point $-1 -51.236945421899158 -11.62533981173285 1.2025261306497426 #
point $-1 -51.236945421899158 -8.2888198701212481 1.2025261306497426 #
straight-curve $-1 -48.515174977834448 -26.439760072325406 0 0 0 -1 I I #
point $-1 -48.515174977834448 -26.439760072325406 4.7519560635538651 #
End-of-ACIS-data 