500 0 10 0           
7 Unknown 11 ACIS 5.0 NT 24 Thu Mar 25 18:46:31 1999 
-1 9.9999999999999995e-007 1e-010 
body $-1 $10 $-1 $11 #
body $-1 $12 $-1 $13 #
body $-1 $14 $-1 $15 #
body $-1 $16 $-1 $17 #
body $-1 $18 $-1 $19 #
body $-1 $20 $-1 $21 #
body $-1 $22 $-1 $23 #
body $-1 $24 $-1 $25 #
body $-1 $26 $-1 $27 #
body $-1 $28 $-1 $29 #
lump $-1 $-1 $30 $0 #
transform $-1 1 0 0 0 1 0 0 0 1 45.89983825189978 25.764535813456902 5.8336815731436955 1 rotate no_reflect no_shear #
lump $-1 $-1 $31 $1 #
transform $-1 1 0 0 0 1 0 0 0 1 45.89983825189978 25.764535813456902 5.8336815731436955 1 rotate no_reflect no_shear #
lump $-1 $-1 $32 $2 #
transform $-1 1 0 0 0 1 0 0 0 1 45.89983825189978 25.764535813456902 5.8336815731436955 1 rotate no_reflect no_shear #
lump $-1 $-1 $33 $3 #
transform $-1 1 0 0 0 1 0 0 0 1 45.89983825189978 25.764535813456902 5.8336815731436955 1 rotate no_reflect no_shear #
lump $-1 $-1 $34 $4 #
transform $-1 1 0 0 0 1 0 0 0 1 45.89983825189978 25.764535813456902 5.8336815731436955 1 rotate no_reflect no_shear #
lump $-1 $-1 $35 $5 #
transform $-1 1 0 0 0 1 0 0 0 1 45.89983825189978 25.764535813456902 5.8336815731436955 1 rotate no_reflect no_shear #
lump $-1 $-1 $36 $6 #
transform $-1 1 0 0 0 1 0 0 0 1 45.89983825189978 25.764535813456902 5.8336815731436955 1 rotate no_reflect no_shear #
lump $-1 $-1 $37 $7 #
transform $-1 1 0 0 0 1 0 0 0 1 45.89983825189978 25.764535813456902 5.8336815731436955 1 rotate no_reflect no_shear #
lump $-1 $-1 $38 $8 #
transform $-1 1 0 0 0 1 0 0 0 1 45.89983825189978 25.764535813456902 5.8336815731436955 1 rotate no_reflect no_shear #
lump $-1 $-1 $39 $9 #
transform $-1 1 0 0 0 1 0 0 0 1 45.89983825189978 25.764535813456902 5.8336815731436955 1 rotate no_reflect no_shear #
shell $-1 $-1 $-1 $40 $-1 $10 #
shell $-1 $-1 $-1 $41 $-1 $12 #
shell $-1 $-1 $-1 $42 $-1 $14 #
shell $-1 $-1 $-1 $43 $-1 $16 #
shell $-1 $-1 $-1 $44 $-1 $18 #
shell $-1 $-1 $-1 $45 $-1 $20 #
shell $-1 $-1 $-1 $46 $-1 $22 #
shell $-1 $-1 $-1 $47 $-1 $24 #
shell $-1 $-1 $-1 $48 $-1 $26 #
shell $-1 $-1 $-1 $49 $-1 $28 #
face $-1 $50 $51 $30 $-1 $52 reversed single #
face $-1 $53 $54 $31 $-1 $55 forward single #
face $-1 $56 $57 $32 $-1 $58 forward single #
face $-1 $59 $60 $33 $-1 $61 reversed single #
face $-1 $62 $63 $34 $-1 $64 forward single #
face $-1 $65 $66 $35 $-1 $67 forward single #
face $-1 $68 $69 $36 $-1 $70 forward single #
face $-1 $71 $72 $37 $-1 $73 reversed single #
face $-1 $74 $75 $38 $-1 $76 forward single #
face $-1 $77 $78 $39 $-1 $79 forward single #
face $-1 $80 $81 $30 $-1 $82 forward single #
loop $-1 $-1 $83 $40 #
plane-surface $-1 45.89983825189978 0 0 -1 0 0 0 0 1 forward_v I I I I #
face $-1 $84 $85 $31 $-1 $86 reversed single #
loop $-1 $-1 $87 $41 #
plane-surface $-1 -45.89983825189978 0 0 1 0 0 0 0 -1 forward_v I I I I #
face $-1 $88 $89 $32 $-1 $90 reversed single #
loop $-1 $-1 $91 $42 #
plane-surface $-1 45.89983825189978 0 0 -1 0 0 0 0 1 forward_v I I I I #
face $-1 $92 $93 $33 $-1 $94 reversed single #
loop $-1 $-1 $95 $43 #
plane-surface $-1 -24.26461154868089 45.29867253132096 104.39978991117788 1 0 0 0 -0.64278761758704617 -0.76604443648966558 forward_v I I I I #
face $-1 $96 $97 $34 $-1 $98 forward single #
loop $-1 $99 $100 $44 #
cone-surface $-1 -20.127381367792061 21.933598474210772 2.293365167332166 0 -0.64278761758704617 -0.76604443648966558 1 0 0 1 I I 0 1 1 forward I I I I #
face $-1 $101 $102 $35 $-1 $103 forward single #
loop $-1 $104 $105 $45 #
cone-surface $-1 -13.921536096458823 21.933598474210772 2.293365167332166 0 -0.64278761758704617 -0.76604443648966558 1 0 0 1 I I 0 1 1 forward I I I I #
face $-1 $106 $107 $36 $-1 $108 forward single #
loop $-1 $109 $110 $46 #
cone-surface $-1 -7.7156908251255842 21.933598474210772 2.293365167332166 0 -0.64278761758704617 -0.76604443648966558 1 0 0 1 I I 0 1 1 forward I I I I #
face $-1 $111 $112 $37 $-1 $113 reversed single #
loop $-1 $-1 $114 $47 #
plane-surface $-1 -23.913580773001925 -89.533950251399631 67.064528564672941 -1 0 0 0 -0.69465837861970381 0.71933979245794832 forward_v I I I I #
face $-1 $115 $116 $38 $-1 $117 forward single #
loop $-1 $118 $119 $48 #
cone-surface $-1 -35.028792102432149 -21.431410935567957 1.5203306411727806 0 0.69465837861970381 -0.71933979245794832 1.5 0 0 1 I I 0 1 1.5 forward I I I I #
face $-1 $120 $121 $39 $-1 $122 forward single #
loop $-1 $123 $124 $49 #
cone-surface $-1 -28.359665304774012 -21.431410935567957 1.5203306411727806 0 0.69465837861970381 -0.71933979245794832 1.5 0 0 1 I I 0 1 1.5 forward I I I I #
face $-1 $125 $126 $30 $-1 $127 reversed single #
loop $-1 $-1 $128 $50 #
plane-surface $-1 0 0 5.8336815731436955 0 0 1 1 0 0 forward_v I I I I #
coedge $-1 $129 $130 $131 $132 reversed $51 $-1 #
face $-1 $133 $134 $31 $-1 $135 forward single #
loop $-1 $-1 $136 $53 #
plane-surface $-1 0 25.764535813456902 0 0 -1 0 0 0 -1 forward_v I I I I #
coedge $-1 $137 $138 $139 $140 forward $54 $-1 #
face $-1 $141 $142 $32 $-1 $143 forward single #
loop $-1 $-1 $144 $56 #
plane-surface $-1 0 -25.764535813456902 0 0 1 0 0 0 1 forward_v I I I I #
coedge $-1 $145 $146 $147 $148 forward $57 $-1 #
face $-1 $149 $150 $33 $-1 $151 reversed single #
loop $-1 $-1 $152 $59 #
plane-surface $-1 -13.921536096458823 -13.709022823817897 34.077158453891144 0 0.64278761758704617 0.76604443648966558 1 0 0 forward_v I I I I #
coedge $-1 $153 $154 $155 $156 reversed $60 $-1 #
face $-1 $-1 $157 $34 $-1 $158 forward single #
loop $-1 $159 $160 $62 #
cone-surface $-1 -20.127381367792061 20.688414477313351 0.80941269667017313 0 -0.64278761758704617 -0.76604443648966558 0.5 0 0 1 I I -0.70710678118654746 0.70710678118654746 0.5 forward I I I I #
loop $-1 $-1 $161 $44 #
coedge $-1 $100 $100 $162 $163 reversed $63 $-1 #
face $-1 $-1 $164 $35 $-1 $165 forward single #
loop $-1 $166 $167 $65 #
cone-surface $-1 -13.921536096458823 20.688414477313351 0.80941269667017313 0 -0.64278761758704617 -0.76604443648966558 0.5 0 0 1 I I -0.70710678118654746 0.70710678118654746 0.5 forward I I I I #
loop $-1 $-1 $168 $45 #
coedge $-1 $105 $105 $169 $170 reversed $66 $-1 #
face $-1 $-1 $171 $36 $-1 $172 forward single #
loop $-1 $173 $174 $68 #
cone-surface $-1 -7.7156908251255842 20.688414477313351 0.80941269667017313 0 -0.64278761758704617 -0.76604443648966558 0.5 0 0 1 I I -0.70710678118654746 0.70710678118654746 0.5 forward I I I I #
loop $-1 $-1 $175 $46 #
coedge $-1 $110 $110 $176 $177 reversed $69 $-1 #
face $-1 $178 $179 $37 $-1 $180 reversed single #
loop $-1 $-1 $181 $71 #
plane-surface $-1 -31.694228703603081 -25.764535813456909 1.0293683207229662 0 -0.69465837861970381 0.71933979245794832 1 0 0 forward_v I I I I #
coedge $-1 $182 $183 $184 $185 reversed $72 $-1 #
face $-1 $-1 $186 $38 $-1 $187 forward single #
loop $-1 $188 $189 $74 #
cone-surface $-1 -35.028792102432149 -19.064798222153442 -0.93036850893123102 0 0.69465837861970381 -0.71933979245794832 0.75 0 0 1 I I -0.70710678118654757 0.70710678118654757 0.75 forward I I I I #
loop $-1 $-1 $190 $48 #
coedge $-1 $119 $119 $191 $192 reversed $75 $-1 #
face $-1 $-1 $193 $39 $-1 $194 forward single #
loop $-1 $195 $196 $77 #
cone-surface $-1 -28.359665304774012 -19.064798222153442 -0.93036850893123102 0 0.69465837861970381 -0.71933979245794832 0.75 0 0 1 I I -0.70710678118654757 0.70710678118654757 0.75 forward I I I I #
loop $-1 $-1 $197 $49 #
coedge $-1 $124 $124 $198 $199 reversed $78 $-1 #
face $-1 $200 $201 $30 $-1 $202 reversed single #
loop $-1 $-1 $203 $80 #
plane-surface $-1 0 0 -5.8336815731436955 0 0 1 1 0 0 forward_v I I I I #
coedge $-1 $204 $205 $129 $206 forward $81 $-1 #
coedge $-1 $207 $83 $128 $206 reversed $51 $-1 #
coedge $-1 $83 $207 $203 $208 reversed $51 $-1 #
coedge $-1 $209 $210 $83 $132 forward $211 $-1 #
edge $-1 $212 -5.8336815731436955 $213 5.8336815731436955 $83 $214 forward 7 unknown #
face $-1 $215 $216 $31 $-1 $217 reversed single #
loop $-1 $-1 $139 $84 #
plane-surface $-1 -49.112319060747552 0 4.0619600742627178 0 0 1 1 0 0 forward_v I I I I #
coedge $-1 $218 $219 $138 $220 forward $85 $-1 #
coedge $-1 $221 $87 $222 $223 reversed $54 $-1 #
coedge $-1 $87 $221 $136 $220 reversed $54 $-1 #
coedge $-1 $224 $225 $87 $140 reversed $134 $-1 #
edge $-1 $226 -25.764535813456902 $227 25.764535813456902 $139 $228 forward 7 unknown #
face $-1 $229 $230 $32 $-1 $231 reversed single #
loop $-1 $-1 $232 $88 #
plane-surface $-1 49.112319060747552 0 4.0619600742627178 0 0 1 1 0 0 forward_v I I I I #
coedge $-1 $233 $234 $146 $235 forward $89 $-1 #
coedge $-1 $236 $91 $237 $238 reversed $57 $-1 #
coedge $-1 $91 $236 $144 $235 reversed $57 $-1 #
coedge $-1 $239 $240 $91 $148 reversed $142 $-1 #
edge $-1 $241 -25.764535813456902 $242 25.764535813456902 $147 $243 forward 7 unknown #
face $-1 $244 $245 $33 $-1 $246 reversed single #
loop $-1 $-1 $247 $92 #
plane-surface $-1 -3.5784606442367561 45.29867253132096 104.39978991117788 -1 0 0 0 0.64278761758704617 0.76604443648966558 forward_v I I I I #
coedge $-1 $248 $249 $250 $251 reversed $93 $-1 #
coedge $-1 $154 $95 $252 $253 reversed $60 $-1 #
coedge $-1 $95 $153 $248 $254 reversed $60 $-1 #
coedge $-1 $250 $255 $95 $156 forward $256 $-1 #
edge $-1 $257 -3.1151995477964221 $258 2.6990947544880299 $155 $259 forward 7 unknown #
loop $-1 $-1 $162 $96 #
plane-surface $-1 -13.921536096458823 -13.709022823817897 34.077158453891144 0 0.64278761758704617 0.76604443648966558 1 0 0 forward_v I I I I #
loop $-1 $-1 $260 $62 #
coedge $-1 $160 $160 $161 $261 reversed $97 $-1 #
coedge $-1 $161 $161 $160 $261 forward $99 $-1 #
coedge $-1 $162 $162 $100 $163 forward $157 $-1 #
edge $-1 $262 -1.5244114132513645e-016 $262 6.2831853071796004 $162 $263 forward 7 unknown #
loop $-1 $-1 $169 $101 #
plane-surface $-1 -13.921536096458823 -13.709022823817897 34.077158453891144 0 0.64278761758704617 0.76604443648966558 1 0 0 forward_v I I I I #
loop $-1 $-1 $264 $65 #
coedge $-1 $167 $167 $168 $265 reversed $102 $-1 #
coedge $-1 $168 $168 $167 $265 forward $104 $-1 #
coedge $-1 $169 $169 $105 $170 forward $164 $-1 #
edge $-1 $266 -1.5244114132513645e-016 $266 6.2831853071796004 $169 $267 forward 7 unknown #
loop $-1 $-1 $176 $106 #
plane-surface $-1 -13.921536096458823 -13.709022823817897 34.077158453891144 0 0.64278761758704617 0.76604443648966558 1 0 0 forward_v I I I I #
loop $-1 $-1 $268 $68 #
coedge $-1 $174 $174 $175 $269 reversed $107 $-1 #
coedge $-1 $175 $175 $174 $269 forward $109 $-1 #
coedge $-1 $176 $176 $110 $177 forward $171 $-1 #
edge $-1 $270 -1.5244114132513645e-016 $270 6.2831853071796004 $176 $271 forward 7 unknown #
face $-1 $272 $273 $37 $-1 $274 forward single #
loop $-1 $-1 $275 $111 #
plane-surface $-1 -39.474876634204236 -89.533950251399631 67.064528564672941 1 0 0 0 0.69465837861970381 -0.71933979245794832 forward_v I I I I #
coedge $-1 $276 $277 $278 $279 reversed $112 $-1 #
coedge $-1 $183 $114 $280 $281 reversed $72 $-1 #
coedge $-1 $114 $182 $276 $282 reversed $72 $-1 #
coedge $-1 $278 $283 $114 $185 forward $273 $-1 #
edge $-1 $284 19.002439312242913 $285 23.977451209121323 $184 $286 forward 7 unknown #
loop $-1 $-1 $191 $115 #
plane-surface $-1 -31.694228703603081 -25.764535813456909 1.0293683207229662 0 -0.69465837861970381 0.71933979245794832 1 0 0 forward_v I I I I #
loop $-1 $-1 $287 $74 #
coedge $-1 $189 $189 $190 $288 reversed $116 $-1 #
coedge $-1 $190 $190 $189 $288 forward $118 $-1 #
coedge $-1 $191 $191 $119 $192 forward $186 $-1 #
edge $-1 $289 -3.5286305626575495e-016 $289 6.2831853071796004 $191 $290 forward 7 unknown #
loop $-1 $-1 $198 $120 #
plane-surface $-1 -31.694228703603081 -25.764535813456909 1.0293683207229662 0 -0.69465837861970381 0.71933979245794832 1 0 0 forward_v I I I I #
loop $-1 $-1 $291 $77 #
coedge $-1 $196 $196 $197 $292 reversed $121 $-1 #
coedge $-1 $197 $197 $196 $292 forward $123 $-1 #
coedge $-1 $198 $198 $124 $199 forward $193 $-1 #
edge $-1 $293 -3.5286305626575495e-016 $293 6.2831853071796004 $198 $294 forward 7 unknown #
face $-1 $295 $296 $30 $-1 $297 reversed single #
loop $-1 $-1 $298 $125 #
plane-surface $-1 0 -25.764535813456902 0 0 1 0 0 0 1 forward_v I I I I #
coedge $-1 $299 $300 $130 $208 forward $126 $-1 #
coedge $-1 $301 $128 $210 $302 forward $81 $-1 #
coedge $-1 $128 $301 $303 $304 forward $81 $-1 #
edge $-1 $305 -25.764535813456902 $212 25.764535813456902 $129 $306 forward 7 unknown #
coedge $-1 $130 $129 $307 $308 forward $51 $-1 #
edge $-1 $213 -25.764535813456902 $309 25.764535813456902 $130 $310 forward 7 unknown #
coedge $-1 $311 $131 $300 $312 reversed $211 $-1 #
coedge $-1 $131 $311 $204 $302 reversed $211 $-1 #
loop $-1 $-1 $131 $295 #
vertex $-1 $206 $313 #
vertex $-1 $208 $314 #
straight-curve $-1 45.89983825189978 25.764535813456902 0 0 0 -1 I I #
face $-1 $315 $316 $31 $-1 $317 reversed single #
loop $-1 $-1 $318 $133 #
plane-surface $-1 -49.112319060747552 0 1.0619600742627191 0 0 1 1 0 0 forward_v I I I I #
coedge $-1 $319 $136 $320 $321 reversed $85 $-1 #
coedge $-1 $136 $319 $224 $322 reversed $85 $-1 #
edge $-1 $226 -4.0619600742627178 $323 -1.0619600742627191 $136 $324 forward 7 unknown #
coedge $-1 $138 $137 $318 $325 forward $54 $-1 #
coedge $-1 $326 $327 $137 $223 forward $328 $-1 #
edge $-1 $329 1.0619600742627191 $227 4.0619600742627178 $222 $330 forward 7 unknown #
coedge $-1 $331 $139 $219 $322 forward $134 $-1 #
coedge $-1 $139 $331 $326 $332 forward $134 $-1 #
vertex $-1 $220 $333 #
vertex $-1 $332 $334 #
straight-curve $-1 -45.89983825189978 0 4.0619600742627178 0 -1 0 I I #
face $-1 $335 $336 $32 $-1 $337 reversed single #
loop $-1 $-1 $338 $141 #
plane-surface $-1 49.112319060747552 0 1.0619600742627191 0 0 1 1 0 0 forward_v I I I I #
coedge $-1 $240 $239 $339 $340 forward $142 $-1 #
coedge $-1 $341 $144 $342 $343 reversed $89 $-1 #
coedge $-1 $144 $341 $239 $344 reversed $89 $-1 #
edge $-1 $241 -4.0619600742627178 $345 -1.0619600742627191 $144 $346 forward 7 unknown #
coedge $-1 $146 $145 $347 $348 forward $57 $-1 #
coedge $-1 $349 $350 $145 $238 forward $351 $-1 #
edge $-1 $352 1.0619600742627191 $242 4.0619600742627178 $237 $353 forward 7 unknown #
coedge $-1 $232 $147 $234 $344 forward $142 $-1 #
coedge $-1 $147 $232 $349 $354 forward $142 $-1 #
vertex $-1 $235 $355 #
vertex $-1 $354 $356 #
straight-curve $-1 45.89983825189978 0 4.0619600742627178 0 1 0 I I #
face $-1 $-1 $256 $33 $-1 $357 forward single #
loop $-1 $-1 $358 $149 #
plane-surface $-1 0 25.764535813456902 0 0 -1 0 0 0 -1 forward_v I I I I #
coedge $-1 $359 $360 $361 $362 reversed $150 $-1 #
coedge $-1 $363 $152 $154 $254 forward $93 $-1 #
coedge $-1 $152 $363 $359 $364 forward $93 $-1 #
coedge $-1 $361 $155 $152 $251 forward $256 $-1 #
edge $-1 $258 -17.303843500451478 $365 3.3823074039926553 $250 $366 forward 7 unknown #
coedge $-1 $367 $368 $153 $253 forward $245 $-1 #
edge $-1 $369 -51.244985689233978 $257 -46.366213382445245 $252 $370 forward 7 unknown #
edge $-1 $258 43.939049396704846 $369 51.529071626913804 $154 $371 forward 7 unknown #
coedge $-1 $155 $361 $367 $372 forward $256 $-1 #
loop $-1 $-1 $361 $244 #
vertex $-1 $253 $373 #
vertex $-1 $156 $374 #
straight-curve $-1 -24.26461154868089 22.64933626566048 5.8336815731436928 0 -1 0 I I #
coedge $-1 $260 $260 $-1 $375 reversed $159 $-1 #
edge $-1 $376 0 $376 6.2831853071796004 $160 $377 forward 7 unknown #
vertex $-1 $163 $378 #
ellipse-curve $-1 -20.127381367792061 22.857388662314673 3.39429541974933 0 0.64278761758704617 0.76604443648966558 1 0 0 1 I I #
coedge $-1 $264 $264 $-1 $379 reversed $166 $-1 #
edge $-1 $380 0 $380 6.2831853071796004 $167 $381 forward 7 unknown #
vertex $-1 $170 $382 #
ellipse-curve $-1 -13.921536096458823 22.857388662314673 3.39429541974933 0 0.64278761758704617 0.76604443648966558 1 0 0 1 I I #
coedge $-1 $268 $268 $-1 $383 reversed $173 $-1 #
edge $-1 $384 0 $384 6.2831853071796004 $174 $385 forward 7 unknown #
vertex $-1 $177 $386 #
ellipse-curve $-1 -7.7156908251255842 22.857388662314673 3.39429541974933 0 0.64278761758704617 0.76604443648966558 1 0 0 1 I I #
face $-1 $-1 $387 $37 $-1 $388 reversed single #
loop $-1 $-1 $184 $178 #
plane-surface $-1 0 0 5.8336815731436955 0 0 1 1 0 0 forward_v I I I I #
coedge $-1 $389 $390 $391 $392 reversed $179 $-1 #
coedge $-1 $393 $181 $183 $282 forward $112 $-1 #
coedge $-1 $181 $393 $389 $394 forward $112 $-1 #
coedge $-1 $391 $184 $181 $279 forward $273 $-1 #
edge $-1 $285 8.0664664212003849 $395 23.627762282402696 $278 $396 forward 7 unknown #
coedge $-1 $397 $398 $182 $281 forward $387 $-1 #
edge $-1 $399 -32.502895961613497 $284 -27.698582709192774 $280 $400 forward 7 unknown #
edge $-1 $285 -6.9160804796840836 $399 -9.8928161431344572e-015 $183 $401 forward 7 unknown #
coedge $-1 $184 $391 $397 $402 forward $273 $-1 #
vertex $-1 $281 $403 #
vertex $-1 $185 $404 #
straight-curve $-1 -23.913580773001925 -44.766975125699815 5.8336815731436964 0 1 0 I I #
coedge $-1 $287 $287 $-1 $405 reversed $188 $-1 #
edge $-1 $406 0 $406 6.2831853071796004 $189 $407 forward 7 unknown #
vertex $-1 $192 $408 #
ellipse-curve $-1 -35.028792102432149 -23.277029865017695 3.4315249469333349 0 -0.69465837861970381 0.71933979245794832 1.5 0 0 1 I I #
coedge $-1 $291 $291 $-1 $409 reversed $195 $-1 #
edge $-1 $410 0 $410 6.2831853071796004 $196 $411 forward 7 unknown #
vertex $-1 $199 $412 #
ellipse-curve $-1 -28.359665304774012 -23.277029865017695 3.4315249469333349 0 -0.69465837861970381 0.71933979245794832 1.5 0 0 1 I I #
face $-1 $-1 $211 $30 $-1 $413 reversed single #
loop $-1 $-1 $414 $200 #
plane-surface $-1 -45.89983825189978 0 0 1 0 0 0 0 -1 forward_v I I I I #
coedge $-1 $415 $303 $414 $416 forward $201 $-1 #
coedge $-1 $417 $203 $415 $418 forward $126 $-1 #
coedge $-1 $203 $417 $209 $312 forward $126 $-1 #
coedge $-1 $205 $204 $419 $420 forward $81 $-1 #
edge $-1 $212 -45.89983825189978 $421 45.89983825189978 $210 $422 forward 7 unknown #
coedge $-1 $298 $307 $205 $304 reversed $201 $-1 #
edge $-1 $423 -45.89983825189978 $305 45.89983825189978 $303 $424 forward 7 unknown #
vertex $-1 $206 $425 #
straight-curve $-1 45.89983825189978 0 5.8336815731436955 0 1 0 I I #
coedge $-1 $303 $415 $207 $308 reversed $201 $-1 #
edge $-1 $305 -5.8336815731436955 $309 5.8336815731436955 $207 $426 forward 7 unknown #
vertex $-1 $308 $427 #
straight-curve $-1 45.89983825189978 0 -5.8336815731436955 0 -1 0 I I #
coedge $-1 $210 $209 $428 $429 reversed $211 $-1 #
edge $-1 $430 -45.89983825189978 $213 45.89983825189978 $209 $431 forward 7 unknown #
point $-1 45.89983825189978 25.764535813456902 5.8336815731436955 #
point $-1 45.89983825189978 25.764535813456902 -5.8336815731436955 #
face $-1 $-1 $328 $31 $-1 $432 reversed single #
loop $-1 $-1 $433 $215 #
plane-surface $-1 -52.324799869595324 0 2.5619600742627187 1 0 0 0 0 -1 forward_v I I I I #
coedge $-1 $434 $320 $221 $325 reversed $216 $-1 #
coedge $-1 $219 $218 $433 $435 reversed $85 $-1 #
coedge $-1 $318 $436 $218 $321 forward $216 $-1 #
edge $-1 $437 -3.2124808088477721 $323 3.2124808088477721 $218 $438 forward 7 unknown #
edge $-1 $226 -3.2124808088477721 $439 3.2124808088477721 $219 $440 forward 7 unknown #
vertex $-1 $220 $441 #
straight-curve $-1 -45.89983825189978 25.764535813456902 0 0 0 -1 I I #
edge $-1 $329 -25.764535813456902 $323 25.764535813456902 $318 $442 forward 7 unknown #
coedge $-1 $443 $222 $225 $332 reversed $328 $-1 #
coedge $-1 $222 $443 $434 $444 reversed $328 $-1 #
loop $-1 $-1 $222 $315 #
vertex $-1 $223 $445 #
straight-curve $-1 -45.89983825189978 -25.764535813456902 0 0 0 1 I I #
coedge $-1 $225 $224 $446 $447 forward $134 $-1 #
edge $-1 $448 -3.2124808088477721 $227 3.2124808088477721 $326 $449 forward 7 unknown #
point $-1 -45.89983825189978 25.764535813456902 4.0619600742627178 #
point $-1 -45.89983825189978 -25.764535813456902 4.0619600742627178 #
face $-1 $-1 $351 $32 $-1 $450 reversed single #
loop $-1 $-1 $451 $229 #
plane-surface $-1 52.324799869595324 0 2.5619600742627187 -1 0 0 0 0 1 forward_v I I I I #
coedge $-1 $342 $452 $453 $454 forward $230 $-1 #
coedge $-1 $451 $455 $232 $340 reversed $336 $-1 #
edge $-1 $456 -25.764535813456902 $457 25.764535813456902 $339 $458 forward 7 unknown #
coedge $-1 $234 $233 $451 $459 reversed $89 $-1 #
coedge $-1 $347 $338 $233 $343 forward $230 $-1 #
edge $-1 $460 -3.2124808088477721 $345 3.2124808088477721 $233 $461 forward 7 unknown #
edge $-1 $241 -3.2124808088477721 $456 3.2124808088477721 $234 $462 forward 7 unknown #
vertex $-1 $235 $463 #
straight-curve $-1 45.89983825189978 -25.764535813456902 0 0 0 -1 I I #
coedge $-1 $452 $342 $236 $348 reversed $230 $-1 #
edge $-1 $352 -25.764535813456902 $345 25.764535813456902 $347 $464 forward 7 unknown #
coedge $-1 $465 $237 $240 $354 reversed $351 $-1 #
coedge $-1 $237 $465 $452 $466 reversed $351 $-1 #
loop $-1 $-1 $237 $335 #
vertex $-1 $238 $467 #
straight-curve $-1 45.89983825189978 25.764535813456902 0 0 0 1 I I #
edge $-1 $457 -3.2124808088477721 $242 3.2124808088477721 $349 $468 forward 7 unknown #
point $-1 45.89983825189978 -25.764535813456902 4.0619600742627178 #
point $-1 45.89983825189978 25.764535813456902 4.0619600742627178 #
plane-surface $-1 0 0 5.8336815731436955 0 0 1 1 0 0 forward_v I I I I #
coedge $-1 $368 $367 $360 $469 forward $245 $-1 #
coedge $-1 $360 $247 $249 $364 reversed $150 $-1 #
coedge $-1 $247 $359 $358 $469 reversed $150 $-1 #
coedge $-1 $255 $250 $247 $362 forward $256 $-1 #
edge $-1 $365 -2.6990947544880299 $470 3.1151995477964221 $361 $471 forward 7 unknown #
coedge $-1 $249 $248 $368 $472 reversed $93 $-1 #
edge $-1 $473 -51.529071626913804 $365 -43.939049396704846 $359 $474 forward 7 unknown #
vertex $-1 $251 $475 #
straight-curve $-1 -6.9607680482294114 19.950241511172443 5.8336815731436964 1 0 0 I I #
coedge $-1 $358 $252 $255 $372 reversed $245 $-1 #
coedge $-1 $252 $358 $363 $472 forward $245 $-1 #
vertex $-1 $253 $476 #
straight-curve $-1 -24.26461154868089 25.764535813456902 52.199894955588938 0 0 1 I I #
straight-curve $-1 -24.26461154868089 -13.709022823817897 34.077158453891144 0 0.76604443648966558 -0.64278761758704617 I I #
edge $-1 $470 3.5784606442367561 $257 24.26461154868089 $367 $477 forward 7 unknown #
point $-1 -24.26461154868089 25.764535813456902 5.8336815731436955 #
point $-1 -24.26461154868089 19.95024151117245 5.8336815731436964 #
edge $-1 $478 1 $478 0 $260 $-1 forward 7 unknown #
vertex $-1 $261 $479 #
ellipse-curve $-1 -20.127381367792061 21.009808286106875 1.192434914915006 0 0.64278761758704617 0.76604443648966558 1 0 0 1 I I #
point $-1 -19.127381367792061 22.857388662314669 3.394295419749326 #
edge $-1 $480 1 $480 0 $264 $-1 forward 7 unknown #
vertex $-1 $265 $481 #
ellipse-curve $-1 -13.921536096458823 21.009808286106875 1.192434914915006 0 0.64278761758704617 0.76604443648966558 1 0 0 1 I I #
point $-1 -12.921536096458823 22.857388662314669 3.394295419749326 #
edge $-1 $482 1 $482 0 $268 $-1 forward 7 unknown #
vertex $-1 $269 $483 #
ellipse-curve $-1 -7.7156908251255842 21.009808286106875 1.192434914915006 0 0.64278761758704617 0.76604443648966558 1 0 0 1 I I #
point $-1 -6.7156908251255842 22.857388662314669 3.394295419749326 #
loop $-1 $-1 $280 $272 #
plane-surface $-1 0 -25.764535813456902 0 0 1 0 0 0 1 forward_v I I I I #
coedge $-1 $390 $275 $277 $394 reversed $179 $-1 #
coedge $-1 $275 $389 $484 $485 reversed $179 $-1 #
coedge $-1 $283 $278 $275 $392 forward $273 $-1 #
edge $-1 $395 -23.977451209121323 $486 -19.002439312242913 $391 $487 forward 7 unknown #
coedge $-1 $277 $276 $398 $488 reversed $112 $-1 #
edge $-1 $489 9.8928161431344572e-015 $395 6.9160804796840836 $389 $490 forward 7 unknown #
vertex $-1 $279 $491 #
straight-curve $-1 -15.84711435180154 -20.789523916578496 5.8336815731436955 -1 0 0 I I #
coedge $-1 $484 $280 $283 $402 reversed $387 $-1 #
coedge $-1 $280 $484 $393 $488 forward $387 $-1 #
vertex $-1 $281 $492 #
straight-curve $-1 -23.913580773001925 -25.764535813456902 33.53226428233647 0 0 1 I I #
straight-curve $-1 -23.913580773001925 -25.764535813456909 1.0293683207229662 0 -0.71933979245794832 -0.69465837861970381 I I #
edge $-1 $486 -39.474876634204236 $284 -23.913580773001925 $397 $493 forward 7 unknown #
point $-1 -23.913580773001925 -25.764535813456902 5.8336815731436955 #
point $-1 -23.913580773001925 -20.789523916578492 5.8336815731436955 #
edge $-1 $494 1 $494 0 $287 $-1 forward 7 unknown #
vertex $-1 $288 $495 #
ellipse-curve $-1 -35.028792102432149 -19.585792006118218 -0.39086366458776978 0 -0.69465837861970381 0.71933979245794832 1.5 0 0 1 I I #
point $-1 -33.528792102432149 -23.277029865017692 3.4315249469333304 #
edge $-1 $496 1 $496 0 $291 $-1 forward 7 unknown #
vertex $-1 $292 $497 #
ellipse-curve $-1 -28.359665304774012 -19.585792006118218 -0.39086366458776978 0 -0.69465837861970381 0.71933979245794832 1.5 0 0 1 I I #
point $-1 -26.859665304774012 -23.277029865017692 3.4315249469333304 #
plane-surface $-1 0 25.764535813456902 0 0 -1 0 0 0 -1 forward_v I I I I #
coedge $-1 $419 $498 $298 $416 reversed $296 $-1 #
coedge $-1 $307 $298 $299 $418 reversed $201 $-1 #
edge $-1 $423 -5.8336815731436955 $499 5.8336815731436955 $414 $500 forward 7 unknown #
coedge $-1 $300 $299 $498 $501 forward $126 $-1 #
edge $-1 $309 -45.89983825189978 $499 45.89983825189978 $415 $502 forward 7 unknown #
coedge $-1 $428 $414 $301 $420 reversed $296 $-1 #
edge $-1 $421 -25.764535813456902 $423 25.764535813456902 $419 $503 forward 7 unknown #
vertex $-1 $302 $504 #
straight-curve $-1 0 25.764535813456902 5.8336815731436955 -1 0 0 I I #
vertex $-1 $420 $505 #
straight-curve $-1 0 -25.764535813456902 5.8336815731436955 1 0 0 I I #
point $-1 45.89983825189978 -25.764535813456902 5.8336815731436955 #
straight-curve $-1 45.89983825189978 -25.764535813456902 0 0 0 -1 I I #
point $-1 45.89983825189978 -25.764535813456902 -5.8336815731436955 #
coedge $-1 $498 $419 $311 $429 forward $296 $-1 #
edge $-1 $421 -5.8336815731436955 $430 5.8336815731436955 $311 $506 forward 7 unknown #
vertex $-1 $312 $507 #
straight-curve $-1 0 25.764535813456902 -5.8336815731436955 1 0 0 I I #
plane-surface $-1 0 -25.764535813456902 0 0 1 0 0 0 1 forward_v I I I I #
coedge $-1 $508 $446 $319 $435 forward $316 $-1 #
coedge $-1 $436 $318 $327 $444 forward $216 $-1 #
edge $-1 $439 -1.4999999999999991 $437 1.4999999999999996 $319 $509 forward 7 unknown #
coedge $-1 $320 $434 $508 $510 forward $216 $-1 #
vertex $-1 $321 $511 #
straight-curve $-1 -49.112319060747552 25.764535813456902 1.0619600742627191 1 0 0 I I #
vertex $-1 $322 $512 #
straight-curve $-1 -49.112319060747552 25.764535813456902 4.0619600742627178 -1 0 0 I I #
point $-1 -45.89983825189978 25.764535813456902 1.0619600742627191 #
straight-curve $-1 -45.89983825189978 0 1.0619600742627191 0 1 0 I I #
coedge $-1 $327 $326 $513 $514 forward $328 $-1 #
edge $-1 $329 -3.2124808088477721 $515 3.2124808088477721 $327 $516 forward 7 unknown #
point $-1 -45.89983825189978 -25.764535813456902 1.0619600742627191 #
coedge $-1 $433 $513 $331 $447 reversed $316 $-1 #
edge $-1 $439 -25.764535813456902 $448 25.764535813456902 $446 $517 forward 7 unknown #
vertex $-1 $447 $518 #
straight-curve $-1 -49.112319060747552 -25.764535813456902 4.0619600742627178 1 0 0 I I #
plane-surface $-1 0 25.764535813456902 0 0 -1 0 0 0 -1 forward_v I I I I #
coedge $-1 $453 $339 $341 $459 forward $336 $-1 #
coedge $-1 $338 $347 $350 $466 forward $230 $-1 #
coedge $-1 $455 $451 $338 $454 reversed $336 $-1 #
edge $-1 $519 -25.764535813456902 $460 25.764535813456902 $453 $520 forward 7 unknown #
coedge $-1 $339 $453 $465 $521 reversed $336 $-1 #
vertex $-1 $340 $522 #
vertex $-1 $340 $523 #
straight-curve $-1 52.324799869595324 0 4.0619600742627178 0 1 0 I I #
edge $-1 $456 -1.4999999999999991 $460 1.4999999999999996 $451 $524 forward 7 unknown #
vertex $-1 $459 $525 #
straight-curve $-1 49.112319060747552 -25.764535813456902 1.0619600742627191 -1 0 0 I I #
straight-curve $-1 49.112319060747552 -25.764535813456902 4.0619600742627178 1 0 0 I I #
point $-1 45.89983825189978 -25.764535813456902 1.0619600742627191 #
straight-curve $-1 45.89983825189978 0 1.0619600742627191 0 -1 0 I I #
coedge $-1 $350 $349 $455 $521 forward $351 $-1 #
edge $-1 $352 -3.2124808088477721 $519 3.2124808088477721 $350 $526 forward 7 unknown #
point $-1 45.89983825189978 25.764535813456902 1.0619600742627191 #
straight-curve $-1 49.112319060747552 25.764535813456902 4.0619600742627178 -1 0 0 I I #
edge $-1 $470 46.366213382445245 $473 51.244985689233978 $358 $527 forward 7 unknown #
vertex $-1 $372 $528 #
straight-curve $-1 -3.5784606442367561 22.64933626566048 5.8336815731436928 0 1 0 I I #
edge $-1 $473 -3.3823074039926553 $369 17.303843500451478 $368 $529 forward 7 unknown #
vertex $-1 $472 $530 #
straight-curve $-1 -3.5784606442367561 -13.709022823817897 34.077158453891144 0 -0.76604443648966558 0.64278761758704617 I I #
point $-1 -3.5784606442367561 19.95024151117245 5.8336815731436964 #
point $-1 -24.26461154868089 25.764535813456902 0.9549092663549601 #
straight-curve $-1 0 25.764535813456902 5.8336815731436955 -1 0 0 I I #
vertex $-1 $375 $531 #
point $-1 -19.127381367792061 21.009808286106875 1.192434914915006 #
vertex $-1 $379 $532 #
point $-1 -12.921536096458823 21.009808286106875 1.192434914915006 #
vertex $-1 $383 $533 #
point $-1 -6.7156908251255842 21.009808286106875 1.192434914915006 #
coedge $-1 $398 $397 $390 $485 forward $387 $-1 #
edge $-1 $486 27.698582709192774 $489 32.502895961613497 $484 $534 forward 7 unknown #
vertex $-1 $402 $535 #
straight-curve $-1 -39.474876634204236 -44.766975125699815 5.8336815731436964 0 -1 0 I I #
edge $-1 $489 -23.627762282402696 $399 -8.0664664212003849 $398 $536 forward 7 unknown #
vertex $-1 $488 $537 #
straight-curve $-1 -39.474876634204236 -25.764535813456909 1.0293683207229662 0 0.71933979245794832 0.69465837861970381 I I #
point $-1 -39.474876634204236 -20.789523916578492 5.8336815731436955 #
point $-1 -23.913580773001925 -25.764535813456902 1.0293683207229731 #
straight-curve $-1 0 -25.764535813456902 5.8336815731436955 1 0 0 I I #
vertex $-1 $405 $538 #
point $-1 -33.528792102432149 -19.585792006118218 -0.39086366458776978 #
vertex $-1 $409 $539 #
point $-1 -26.859665304774012 -19.585792006118218 -0.39086366458776978 #
coedge $-1 $414 $428 $417 $501 reversed $296 $-1 #
vertex $-1 $501 $540 #
straight-curve $-1 -45.89983825189978 -25.764535813456902 0 0 0 -1 I I #
edge $-1 $499 -25.764535813456902 $430 25.764535813456902 $498 $541 forward 7 unknown #
straight-curve $-1 0 -25.764535813456902 -5.8336815731436955 -1 0 0 I I #
straight-curve $-1 -45.89983825189978 0 5.8336815731436955 0 -1 0 I I #
point $-1 -45.89983825189978 25.764535813456902 5.8336815731436955 #
point $-1 -45.89983825189978 -25.764535813456902 5.8336815731436955 #
straight-curve $-1 -45.89983825189978 25.764535813456902 0 0 0 -1 I I #
point $-1 -45.89983825189978 25.764535813456902 -5.8336815731436955 #
coedge $-1 $513 $433 $436 $510 reversed $316 $-1 #
straight-curve $-1 -52.324799869595324 25.764535813456902 2.5619600742627187 0 0 -1 I I #
edge $-1 $515 -25.764535813456902 $437 25.764535813456902 $508 $542 forward 7 unknown #
point $-1 -52.324799869595324 25.764535813456902 1.0619600742627191 #
point $-1 -52.324799869595324 25.764535813456902 4.0619600742627178 #
coedge $-1 $446 $508 $443 $514 reversed $316 $-1 #
edge $-1 $448 -1.4999999999999991 $515 1.4999999999999996 $513 $543 forward 7 unknown #
vertex $-1 $510 $544 #
straight-curve $-1 -49.112319060747552 -25.764535813456902 1.0619600742627191 -1 0 0 I I #
straight-curve $-1 -52.324799869595324 0 4.0619600742627178 0 -1 0 I I #
point $-1 -52.324799869595324 -25.764535813456902 4.0619600742627178 #
vertex $-1 $454 $545 #
straight-curve $-1 52.324799869595324 0 1.0619600742627191 0 -1 0 I I #
edge $-1 $457 -1.4999999999999991 $519 1.4999999999999996 $455 $546 forward 7 unknown #
point $-1 52.324799869595324 -25.764535813456902 4.0619600742627178 #
point $-1 52.324799869595324 25.764535813456902 4.0619600742627178 #
straight-curve $-1 52.324799869595324 -25.764535813456902 2.5619600742627187 0 0 -1 I I #
point $-1 52.324799869595324 -25.764535813456902 1.0619600742627191 #
straight-curve $-1 49.112319060747552 25.764535813456902 1.0619600742627191 1 0 0 I I #
straight-curve $-1 -3.5784606442367561 25.764535813456902 52.199894955588938 0 0 -1 I I #
point $-1 -3.5784606442367561 25.764535813456902 5.8336815731436955 #
straight-curve $-1 -6.9607680482294114 25.764535813456902 0.95490926635496365 -1 0 0 I I #
point $-1 -3.5784606442367561 25.764535813456902 0.9549092663549601 #
point $-1 -20.127381367792061 20.367020668519828 0.42639047842534034 #
point $-1 -13.921536096458823 20.367020668519828 0.42639047842534034 #
point $-1 -7.7156908251255842 20.367020668519828 0.42639047842534034 #
straight-curve $-1 -39.474876634204236 -25.764535813456902 33.53226428233647 0 0 -1 I I #
point $-1 -39.474876634204236 -25.764535813456902 5.8336815731436955 #
straight-curve $-1 -15.84711435180154 -25.764535813456902 1.0293683207229716 1 0 0 I I #
point $-1 -39.474876634204236 -25.764535813456902 1.0293683207229731 #
point $-1 -35.028792102432149 -18.543804438188666 -1.4698733532746924 #
point $-1 -28.359665304774012 -18.543804438188666 -1.4698733532746924 #
point $-1 -45.89983825189978 -25.764535813456902 -5.8336815731436955 #
straight-curve $-1 -45.89983825189978 0 -5.8336815731436955 0 1 0 I I #
straight-curve $-1 -52.324799869595324 0 1.0619600742627191 0 1 0 I I #
straight-curve $-1 -52.324799869595324 -25.764535813456902 2.5619600742627187 0 0 -1 I I #
point $-1 -52.324799869595324 -25.764535813456902 1.0619600742627191 #
point $-1 52.324799869595324 25.764535813456902 1.0619600742627191 #
straight-curve $-1 52.324799869595324 25.764535813456902 2.5619600742627187 0 0 -1 I I #
End-of-ACIS-data 