500 0 9 0           
7 Unknown 11 ACIS 5.0 NT 24 Fri Mar 26 18:54:38 1999 
-1 9.9999999999999995e-007 1e-010 
body $-1 $9 $-1 $10 #
body $-1 $11 $-1 $12 #
body $-1 $13 $-1 $14 #
body $-1 $15 $-1 $16 #
body $-1 $17 $-1 $18 #
body $-1 $19 $-1 $20 #
body $-1 $21 $-1 $22 #
body $-1 $23 $-1 $24 #
body $-1 $25 $-1 $26 #
lump $-1 $-1 $27 $0 #
transform $-1 1 0 0 0 1 0 0 0 1 59.658803064058354 28.983141219392245 10.687947944464929 1 rotate no_reflect no_shear #
lump $-1 $-1 $28 $1 #
transform $-1 1 0 0 0 1 0 0 0 1 59.658803064058354 28.983141219392245 10.687947944464929 1 rotate no_reflect no_shear #
lump $-1 $-1 $29 $2 #
transform $-1 1 0 0 0 1 0 0 0 1 59.658803064058354 28.983141219392245 10.687947944464929 1 rotate no_reflect no_shear #
lump $-1 $-1 $30 $3 #
transform $-1 1 0 0 0 1 0 0 0 1 59.658803064058354 28.983141219392245 10.687947944464929 1 rotate no_reflect no_shear #
lump $-1 $-1 $31 $4 #
transform $-1 1 0 0 0 1 0 0 0 1 59.658803064058354 28.983141219392245 10.687947944464929 1 rotate no_reflect no_shear #
lump $-1 $-1 $32 $5 #
transform $-1 1 0 0 0 1 0 0 0 1 59.658803064058354 28.983141219392245 10.687947944464929 1 rotate no_reflect no_shear #
lump $-1 $-1 $33 $6 #
transform $-1 1 0 0 0 1 0 0 0 1 59.658803064058354 28.983141219392245 10.687947944464929 1 rotate no_reflect no_shear #
lump $-1 $-1 $34 $7 #
transform $-1 1 0 0 0 1 0 0 0 1 59.658803064058354 28.983141219392245 10.687947944464929 1 rotate no_reflect no_shear #
lump $-1 $-1 $35 $8 #
transform $-1 1 0 0 0 1 0 0 0 1 59.658803064058354 28.983141219392245 10.687947944464929 1 rotate no_reflect no_shear #
shell $-1 $-1 $-1 $36 $-1 $9 #
shell $-1 $-1 $-1 $37 $-1 $11 #
shell $-1 $-1 $-1 $38 $-1 $13 #
shell $-1 $-1 $-1 $39 $-1 $15 #
shell $-1 $-1 $-1 $40 $-1 $17 #
shell $-1 $-1 $-1 $41 $-1 $19 #
shell $-1 $-1 $-1 $42 $-1 $21 #
shell $-1 $-1 $-1 $43 $-1 $23 #
shell $-1 $-1 $-1 $44 $-1 $25 #
face $-1 $45 $46 $27 $-1 $47 reversed single #
face $-1 $48 $49 $28 $-1 $50 forward single #
face $-1 $51 $52 $29 $-1 $53 forward single #
face $-1 $54 $55 $30 $-1 $56 reversed single #
face $-1 $57 $58 $31 $-1 $59 forward single #
face $-1 $60 $61 $32 $-1 $62 forward single #
face $-1 $63 $64 $33 $-1 $65 reversed single #
face $-1 $66 $67 $34 $-1 $68 forward single #
face $-1 $69 $70 $35 $-1 $71 forward single #
face $-1 $72 $73 $27 $-1 $74 reversed single #
loop $-1 $-1 $75 $36 #
plane-surface $-1 59.658803064058354 0 0 -1 0 0 0 0 1 forward_v I I I I #
face $-1 $76 $77 $28 $-1 $78 reversed single #
loop $-1 $-1 $79 $37 #
plane-surface $-1 -59.658803064058354 0 0 1 0 0 0 0 -1 forward_v I I I I #
face $-1 $80 $81 $29 $-1 $82 reversed single #
loop $-1 $-1 $83 $38 #
plane-surface $-1 59.658803064058354 0 0 -1 0 0 0 0 1 forward_v I I I I #
face $-1 $84 $85 $30 $-1 $86 reversed single #
loop $-1 $-1 $87 $39 #
plane-surface $-1 -10.594571851083906 99.45276187466763 115.02196260177715 1 0 0 0 -0.84804810408105047 -0.52991925155115449 forward_v I I I I #
face $-1 $88 $89 $31 $-1 $90 forward single #
loop $-1 $91 $92 $40 #
cone-surface $-1 -7.5675513222027959 25.766785795462678 6.2238772827443372 0 -0.84804810408105047 -0.52991925155115449 1 0 0 1 I I 0 1 1 forward I I I I #
face $-1 $93 $94 $32 $-1 $95 forward single #
loop $-1 $96 $97 $41 #
cone-surface $-1 -3.0270205288811241 25.766785795462678 6.2238772827443372 0 -0.84804810408105047 -0.52991925155115449 1 0 0 1 I I 0 1 1 forward I I I I #
face $-1 $98 $99 $33 $-1 $100 reversed single #
loop $-1 $-1 $101 $42 #
plane-surface $-1 35.795082028765634 99.45276187466763 115.02196260177715 1 0 0 0 -0.84804810408105047 -0.52991925155115449 forward_v I I I I #
face $-1 $102 $103 $34 $-1 $104 forward single #
loop $-1 $105 $106 $43 #
cone-surface $-1 38.822102557646737 25.766785795462678 6.2238772827443372 0 -0.84804810408105047 -0.52991925155115449 1 0 0 1 I I 0 1 1 forward I I I I #
face $-1 $107 $108 $35 $-1 $109 forward single #
loop $-1 $110 $111 $44 #
cone-surface $-1 43.362633350968416 25.766785795462678 6.2238772827443372 0 -0.84804810408105047 -0.52991925155115449 1 0 0 1 I I 0 1 1 forward I I I I #
face $-1 $112 $113 $27 $-1 $114 forward single #
loop $-1 $-1 $115 $45 #
plane-surface $-1 -59.658803064058354 0 0 1 0 0 0 0 -1 forward_v I I I I #
coedge $-1 $116 $117 $118 $119 reversed $46 $-1 #
face $-1 $120 $121 $28 $-1 $122 reversed single #
loop $-1 $-1 $123 $48 #
plane-surface $-1 0 0 -10.687947944464929 0 0 1 1 0 0 forward_v I I I I #
coedge $-1 $124 $125 $126 $127 forward $49 $-1 #
face $-1 $128 $129 $29 $-1 $130 reversed single #
loop $-1 $-1 $131 $51 #
plane-surface $-1 0 0 -10.687947944464929 0 0 1 1 0 0 forward_v I I I I #
coedge $-1 $132 $133 $134 $135 forward $52 $-1 #
face $-1 $136 $137 $30 $-1 $138 reversed single #
loop $-1 $-1 $139 $54 #
plane-surface $-1 -5.2972859255419564 -1.7343077857712785 51.793266065490094 0 0.84804810408105047 0.52991925155115449 1 0 0 forward_v I I I I #
coedge $-1 $140 $141 $142 $143 reversed $55 $-1 #
face $-1 $-1 $144 $31 $-1 $145 forward single #
loop $-1 $146 $147 $57 #
cone-surface $-1 -7.5675513222027959 24.642404502280598 5.5212858961545255 0 -0.84804810408105047 -0.52991925155115449 0.5 0 0 1 I I -0.70710678118654746 0.70710678118654746 0.5 forward I I I I #
loop $-1 $-1 $148 $40 #
coedge $-1 $92 $92 $149 $150 reversed $58 $-1 #
face $-1 $-1 $151 $32 $-1 $152 forward single #
loop $-1 $153 $154 $60 #
cone-surface $-1 -3.0270205288811241 24.642404502280598 5.5212858961545255 0 -0.84804810408105047 -0.52991925155115449 0.5 0 0 1 I I -0.70710678118654746 0.70710678118654746 0.5 forward I I I I #
loop $-1 $-1 $155 $41 #
coedge $-1 $97 $97 $156 $157 reversed $61 $-1 #
face $-1 $158 $159 $33 $-1 $160 reversed single #
loop $-1 $-1 $161 $63 #
plane-surface $-1 41.092367954307583 -1.7343077857712785 51.793266065490094 0 0.84804810408105047 0.52991925155115449 1 0 0 forward_v I I I I #
coedge $-1 $162 $163 $164 $165 reversed $64 $-1 #
face $-1 $-1 $166 $34 $-1 $167 forward single #
loop $-1 $168 $169 $66 #
cone-surface $-1 38.822102557646737 24.642404502280598 5.5212858961545255 0 -0.84804810408105047 -0.52991925155115449 0.5 0 0 1 I I -0.70710678118654746 0.70710678118654746 0.5 forward I I I I #
loop $-1 $-1 $170 $43 #
coedge $-1 $106 $106 $171 $172 reversed $67 $-1 #
face $-1 $-1 $173 $35 $-1 $174 forward single #
loop $-1 $175 $176 $69 #
cone-surface $-1 43.362633350968416 24.642404502280598 5.5212858961545255 0 -0.84804810408105047 -0.52991925155115449 0.5 0 0 1 I I -0.70710678118654746 0.70710678118654746 0.5 forward I I I I #
loop $-1 $-1 $177 $44 #
coedge $-1 $111 $111 $178 $179 reversed $70 $-1 #
face $-1 $180 $181 $27 $-1 $182 reversed single #
loop $-1 $-1 $183 $72 #
plane-surface $-1 0 0 10.687947944464929 0 0 1 1 0 0 forward_v I I I I #
coedge $-1 $184 $185 $186 $187 reversed $73 $-1 #
coedge $-1 $188 $75 $189 $190 reversed $46 $-1 #
coedge $-1 $75 $188 $191 $192 forward $46 $-1 #
coedge $-1 $193 $194 $75 $119 forward $181 $-1 #
edge $-1 $195 -28.983141219392245 $196 28.983141219392245 $75 $197 forward 7 unknown #
face $-1 $198 $199 $28 $-1 $200 reversed single #
loop $-1 $-1 $201 $76 #
plane-surface $-1 -66.293377656162761 -20.008935969019372 0 0 1 0 0 0 1 forward_v I I I I #
coedge $-1 $202 $203 $125 $204 forward $77 $-1 #
coedge $-1 $205 $79 $206 $207 reversed $49 $-1 #
coedge $-1 $79 $205 $123 $204 reversed $49 $-1 #
coedge $-1 $208 $209 $79 $127 reversed $210 $-1 #
edge $-1 $211 -10.687947944464929 $212 10.687947944464929 $126 $213 forward 7 unknown #
face $-1 $214 $215 $29 $-1 $216 reversed single #
loop $-1 $-1 $134 $80 #
plane-surface $-1 66.293377656162761 -20.008935969019372 0 0 1 0 0 0 1 forward_v I I I I #
coedge $-1 $217 $218 $133 $219 forward $81 $-1 #
coedge $-1 $220 $83 $221 $222 reversed $52 $-1 #
coedge $-1 $83 $220 $131 $219 reversed $52 $-1 #
coedge $-1 $223 $224 $83 $135 reversed $129 $-1 #
edge $-1 $225 -10.687947944464929 $226 10.687947944464929 $134 $227 forward 7 unknown #
face $-1 $228 $229 $30 $-1 $230 reversed single #
loop $-1 $-1 $231 $84 #
plane-surface $-1 -7.1054273576010019e-015 99.45276187466763 115.02196260177715 -1 0 0 0 0.84804810408105047 0.52991925155115449 forward_v I I I I #
coedge $-1 $232 $233 $234 $235 reversed $85 $-1 #
coedge $-1 $141 $87 $236 $237 reversed $55 $-1 #
coedge $-1 $87 $140 $232 $238 reversed $55 $-1 #
coedge $-1 $234 $239 $87 $143 forward $240 $-1 #
edge $-1 $241 20.74323971794157 $242 25.77523608351763 $142 $243 forward 7 unknown #
loop $-1 $-1 $149 $88 #
plane-surface $-1 -5.2972859255419564 -1.7343077857712785 51.793266065490094 0 0.84804810408105047 0.52991925155115449 1 0 0 forward_v I I I I #
loop $-1 $-1 $244 $57 #
coedge $-1 $147 $147 $148 $245 reversed $89 $-1 #
coedge $-1 $148 $148 $147 $245 forward $91 $-1 #
coedge $-1 $149 $149 $92 $150 forward $144 $-1 #
edge $-1 $246 -7.5479277945430101e-016 $246 6.2831853071795996 $149 $247 forward 7 unknown #
loop $-1 $-1 $156 $93 #
plane-surface $-1 -5.2972859255419564 -1.7343077857712785 51.793266065490094 0 0.84804810408105047 0.52991925155115449 1 0 0 forward_v I I I I #
loop $-1 $-1 $248 $60 #
coedge $-1 $154 $154 $155 $249 reversed $94 $-1 #
coedge $-1 $155 $155 $154 $249 forward $96 $-1 #
coedge $-1 $156 $156 $97 $157 forward $151 $-1 #
edge $-1 $250 -7.5479277945430101e-016 $250 6.2831853071795996 $156 $251 forward 7 unknown #
face $-1 $252 $253 $33 $-1 $254 forward single #
loop $-1 $-1 $255 $98 #
plane-surface $-1 46.389653879849533 99.45276187466763 115.02196260177715 -1 0 0 0 0.84804810408105047 0.52991925155115449 forward_v I I I I #
coedge $-1 $256 $257 $258 $259 reversed $99 $-1 #
coedge $-1 $163 $101 $260 $261 reversed $64 $-1 #
coedge $-1 $101 $162 $256 $262 reversed $64 $-1 #
coedge $-1 $258 $263 $101 $165 forward $253 $-1 #
edge $-1 $264 20.74323971794157 $265 25.77523608351763 $164 $266 forward 7 unknown #
loop $-1 $-1 $171 $102 #
plane-surface $-1 41.092367954307583 -1.7343077857712785 51.793266065490094 0 0.84804810408105047 0.52991925155115449 1 0 0 forward_v I I I I #
loop $-1 $-1 $267 $66 #
coedge $-1 $169 $169 $170 $268 reversed $103 $-1 #
coedge $-1 $170 $170 $169 $268 forward $105 $-1 #
coedge $-1 $171 $171 $106 $172 forward $166 $-1 #
edge $-1 $269 -7.5479277945430101e-016 $269 6.2831853071795996 $171 $270 forward 7 unknown #
loop $-1 $-1 $178 $107 #
plane-surface $-1 41.092367954307583 -1.7343077857712785 51.793266065490094 0 0.84804810408105047 0.52991925155115449 1 0 0 forward_v I I I I #
loop $-1 $-1 $271 $69 #
coedge $-1 $176 $176 $177 $272 reversed $108 $-1 #
coedge $-1 $177 $177 $176 $272 forward $110 $-1 #
coedge $-1 $178 $178 $111 $179 forward $173 $-1 #
edge $-1 $273 -7.5479277945430101e-016 $273 6.2831853071795996 $178 $274 forward 7 unknown #
face $-1 $275 $276 $27 $-1 $277 reversed single #
loop $-1 $-1 $118 $112 #
plane-surface $-1 0 0 -10.687947944464929 0 0 1 1 0 0 forward_v I I I I #
coedge $-1 $278 $279 $188 $280 forward $113 $-1 #
coedge $-1 $281 $115 $282 $283 reversed $73 $-1 #
coedge $-1 $115 $281 $284 $285 forward $73 $-1 #
coedge $-1 $194 $193 $115 $187 forward $181 $-1 #
edge $-1 $286 -28.983141219392245 $287 28.983141219392245 $115 $288 forward 7 unknown #
coedge $-1 $117 $116 $183 $280 reversed $46 $-1 #
coedge $-1 $289 $290 $116 $190 forward $291 $-1 #
edge $-1 $292 -10.687947944464929 $195 10.687947944464929 $116 $293 forward 7 unknown #
coedge $-1 $294 $295 $117 $192 reversed $276 $-1 #
edge $-1 $296 -10.687947944464929 $196 10.687947944464929 $117 $297 forward 7 unknown #
coedge $-1 $186 $118 $295 $298 forward $181 $-1 #
coedge $-1 $118 $186 $289 $299 forward $181 $-1 #
vertex $-1 $119 $300 #
vertex $-1 $192 $301 #
straight-curve $-1 59.658803064058354 0 -10.687947944464929 0 -1 0 I I #
face $-1 $302 $210 $28 $-1 $303 reversed single #
loop $-1 $-1 $304 $120 #
plane-surface $-1 -72.927952248267161 -17.385761855912239 0 1 0 0 0 0 -1 forward_v I I I I #
coedge $-1 $305 $306 $307 $308 forward $121 $-1 #
coedge $-1 $309 $123 $305 $310 forward $77 $-1 #
coedge $-1 $123 $309 $208 $311 forward $77 $-1 #
edge $-1 $211 14.762587742805106 $312 20.008935969019372 $123 $313 forward 7 unknown #
coedge $-1 $125 $124 $314 $315 forward $49 $-1 #
coedge $-1 $316 $317 $124 $207 forward $318 $-1 #
edge $-1 $319 -20.008935969019372 $212 -14.762587742805106 $206 $320 forward 7 unknown #
coedge $-1 $321 $126 $203 $311 reversed $210 $-1 #
coedge $-1 $126 $321 $316 $322 reversed $210 $-1 #
loop $-1 $-1 $126 $198 #
vertex $-1 $204 $323 #
vertex $-1 $322 $324 #
straight-curve $-1 -59.658803064058354 -14.762587742805106 0 0 0 1 I I #
face $-1 $325 $326 $29 $-1 $327 reversed single #
loop $-1 $-1 $328 $128 #
plane-surface $-1 66.293377656162761 -14.762587742805106 0 0 -1 0 0 0 -1 forward_v I I I I #
coedge $-1 $329 $131 $330 $331 forward $81 $-1 #
coedge $-1 $131 $329 $223 $332 forward $81 $-1 #
edge $-1 $225 -20.008935969019372 $333 -14.762587742805106 $131 $334 forward 7 unknown #
coedge $-1 $133 $132 $335 $336 forward $52 $-1 #
coedge $-1 $337 $338 $132 $222 forward $339 $-1 #
edge $-1 $340 14.762587742805106 $226 20.008935969019372 $221 $341 forward 7 unknown #
coedge $-1 $342 $134 $218 $332 reversed $129 $-1 #
coedge $-1 $134 $342 $337 $343 reversed $129 $-1 #
vertex $-1 $219 $344 #
vertex $-1 $343 $345 #
straight-curve $-1 59.658803064058354 -20.008935969019372 0 0 0 1 I I #
face $-1 $-1 $240 $30 $-1 $346 forward single #
loop $-1 $-1 $347 $136 #
plane-surface $-1 0 28.983141219392245 0 0 -1 0 0 0 -1 forward_v I I I I #
coedge $-1 $348 $349 $350 $351 reversed $137 $-1 #
coedge $-1 $352 $139 $141 $238 forward $85 $-1 #
coedge $-1 $139 $352 $348 $353 forward $85 $-1 #
coedge $-1 $350 $142 $139 $235 forward $240 $-1 #
edge $-1 $242 -7.9459288883129275 $354 2.6486429627709711 $234 $355 forward 7 unknown #
coedge $-1 $356 $357 $140 $237 forward $229 $-1 #
edge $-1 $358 -54.875911158236377 $241 -46.823033356423643 $236 $359 forward 7 unknown #
edge $-1 $242 48.470502938706645 $358 57.966282438784518 $141 $360 forward 7 unknown #
coedge $-1 $142 $350 $356 $361 forward $240 $-1 #
loop $-1 $-1 $350 $228 #
vertex $-1 $237 $362 #
vertex $-1 $143 $363 #
straight-curve $-1 -10.594571851083906 49.726380937333815 10.687947944464931 0 -1 0 I I #
coedge $-1 $244 $244 $-1 $364 reversed $146 $-1 #
edge $-1 $365 0 $365 6.2831853071796004 $147 $366 forward 7 unknown #
vertex $-1 $150 $367 #
ellipse-curve $-1 -7.5675513222027959 26.467143036604213 6.6615090435585609 0 0.84804810408105047 0.52991925155115449 1 0 0 1 I I #
coedge $-1 $248 $248 $-1 $368 reversed $153 $-1 #
edge $-1 $369 0 $369 6.2831853071796004 $154 $370 forward 7 unknown #
vertex $-1 $157 $371 #
ellipse-curve $-1 -3.0270205288811241 26.467143036604213 6.6615090435585609 0 0.84804810408105047 0.52991925155115449 1 0 0 1 I I #
face $-1 $-1 $372 $33 $-1 $373 reversed single #
loop $-1 $-1 $164 $158 #
plane-surface $-1 0 0 10.687947944464929 0 0 1 1 0 0 forward_v I I I I #
coedge $-1 $374 $375 $376 $377 reversed $159 $-1 #
coedge $-1 $378 $161 $163 $262 forward $99 $-1 #
coedge $-1 $161 $378 $374 $379 forward $99 $-1 #
coedge $-1 $376 $164 $161 $259 forward $253 $-1 #
edge $-1 $265 15.248898051611842 $380 25.843469902695741 $258 $381 forward 7 unknown #
coedge $-1 $382 $383 $162 $261 forward $372 $-1 #
edge $-1 $384 -54.875911158236377 $264 -46.823033356423643 $260 $385 forward 7 unknown #
edge $-1 $265 48.470502938706645 $384 57.966282438784518 $163 $386 forward 7 unknown #
coedge $-1 $164 $376 $382 $387 forward $253 $-1 #
vertex $-1 $261 $388 #
vertex $-1 $165 $389 #
straight-curve $-1 35.795082028765634 49.726380937333815 10.687947944464931 0 -1 0 I I #
coedge $-1 $267 $267 $-1 $390 reversed $168 $-1 #
edge $-1 $391 0 $391 6.2831853071796004 $169 $392 forward 7 unknown #
vertex $-1 $172 $393 #
ellipse-curve $-1 38.822102557646737 26.467143036604213 6.6615090435585609 0 0.84804810408105047 0.52991925155115449 1 0 0 1 I I #
coedge $-1 $271 $271 $-1 $394 reversed $175 $-1 #
edge $-1 $395 0 $395 6.2831853071796004 $176 $396 forward 7 unknown #
vertex $-1 $179 $397 #
ellipse-curve $-1 43.362633350968416 26.467143036604213 6.6615090435585609 0 0.84804810408105047 0.52991925155115449 1 0 0 1 I I #
face $-1 $-1 $291 $27 $-1 $398 reversed single #
loop $-1 $-1 $282 $180 #
plane-surface $-1 0 -28.983141219392245 0 0 1 0 0 0 1 forward_v I I I I #
coedge $-1 $399 $183 $290 $400 forward $113 $-1 #
coedge $-1 $183 $399 $294 $401 forward $113 $-1 #
edge $-1 $296 -28.983141219392245 $292 28.983141219392245 $188 $402 forward 7 unknown #
coedge $-1 $185 $184 $399 $403 reversed $73 $-1 #
coedge $-1 $295 $294 $184 $283 forward $276 $-1 #
edge $-1 $404 -10.687947944464929 $286 10.687947944464929 $184 $405 forward 7 unknown #
coedge $-1 $290 $289 $185 $285 reversed $291 $-1 #
edge $-1 $406 -10.687947944464929 $287 10.687947944464929 $284 $407 forward 7 unknown #
vertex $-1 $187 $408 #
vertex $-1 $299 $409 #
straight-curve $-1 -59.658803064058354 0 -10.687947944464929 0 1 0 I I #
coedge $-1 $284 $189 $194 $299 reversed $291 $-1 #
coedge $-1 $189 $284 $278 $400 reversed $291 $-1 #
loop $-1 $-1 $189 $275 #
vertex $-1 $280 $410 #
straight-curve $-1 59.658803064058354 28.983141219392245 0 0 0 -1 I I #
coedge $-1 $282 $191 $279 $401 reversed $276 $-1 #
coedge $-1 $191 $282 $193 $298 reversed $276 $-1 #
vertex $-1 $280 $411 #
straight-curve $-1 59.658803064058354 -28.983141219392245 0 0 0 -1 I I #
edge $-1 $196 -59.658803064058354 $286 59.658803064058354 $295 $412 forward 7 unknown #
edge $-1 $287 -59.658803064058354 $195 59.658803064058354 $289 $413 forward 7 unknown #
point $-1 59.658803064058354 28.983141219392245 -10.687947944464929 #
point $-1 59.658803064058354 -28.983141219392245 -10.687947944464929 #
face $-1 $-1 $318 $28 $-1 $414 forward single #
plane-surface $-1 -66.293377656162761 -14.762587742805106 0 0 -1 0 0 0 -1 forward_v I I I I #
coedge $-1 $415 $416 $321 $417 forward $199 $-1 #
coedge $-1 $314 $201 $202 $310 reversed $121 $-1 #
coedge $-1 $201 $314 $317 $418 reversed $121 $-1 #
coedge $-1 $416 $415 $201 $308 reversed $199 $-1 #
edge $-1 $419 -10.687947944464929 $420 10.687947944464929 $307 $421 forward 7 unknown #
coedge $-1 $203 $202 $415 $422 forward $77 $-1 #
edge $-1 $312 -6.634574592104407 $420 6.6345745921043999 $305 $423 forward 7 unknown #
edge $-1 $424 -6.6345745921043999 $211 6.634574592104407 $208 $425 forward 7 unknown #
vertex $-1 $310 $426 #
straight-curve $-1 -59.658803064058354 0 -10.687947944464929 0 -1 0 I I #
coedge $-1 $306 $305 $205 $315 reversed $121 $-1 #
edge $-1 $319 -10.687947944464929 $312 10.687947944464929 $314 $427 forward 7 unknown #
coedge $-1 $428 $206 $209 $322 forward $318 $-1 #
coedge $-1 $206 $428 $306 $418 forward $318 $-1 #
loop $-1 $-1 $206 $302 #
vertex $-1 $207 $429 #
straight-curve $-1 -59.658803064058354 0 10.687947944464929 0 1 0 I I #
coedge $-1 $209 $208 $304 $417 reversed $210 $-1 #
edge $-1 $212 -6.634574592104407 $430 6.6345745921043999 $209 $431 forward 7 unknown #
point $-1 -59.658803064058354 -14.762587742805106 -10.687947944464929 #
point $-1 -59.658803064058354 -14.762587742805106 10.687947944464929 #
face $-1 $-1 $339 $29 $-1 $432 forward single #
loop $-1 $-1 $433 $214 #
plane-surface $-1 72.927952248267161 -17.385761855912239 0 -1 0 0 0 0 1 forward_v I I I I #
coedge $-1 $330 $434 $435 $436 forward $215 $-1 #
coedge $-1 $218 $217 $437 $438 forward $81 $-1 #
coedge $-1 $335 $328 $217 $331 reversed $215 $-1 #
edge $-1 $333 -6.634574592104407 $439 6.6345745921043999 $330 $440 forward 7 unknown #
edge $-1 $441 -6.6345745921043999 $225 6.634574592104407 $223 $442 forward 7 unknown #
vertex $-1 $331 $443 #
straight-curve $-1 59.658803064058354 0 -10.687947944464929 0 1 0 I I #
coedge $-1 $434 $330 $220 $336 reversed $215 $-1 #
edge $-1 $340 -10.687947944464929 $333 10.687947944464929 $335 $444 forward 7 unknown #
coedge $-1 $445 $221 $224 $343 forward $339 $-1 #
coedge $-1 $221 $445 $434 $446 forward $339 $-1 #
loop $-1 $-1 $221 $325 #
vertex $-1 $222 $447 #
straight-curve $-1 59.658803064058354 0 10.687947944464929 0 -1 0 I I #
coedge $-1 $224 $223 $433 $448 reversed $129 $-1 #
edge $-1 $226 -6.634574592104407 $449 6.6345745921043999 $224 $450 forward 7 unknown #
point $-1 59.658803064058354 -20.008935969019372 -10.687947944464929 #
point $-1 59.658803064058354 -20.008935969019372 10.687947944464929 #
plane-surface $-1 0 0 10.687947944464929 0 0 1 1 0 0 forward_v I I I I #
coedge $-1 $357 $356 $349 $451 forward $229 $-1 #
coedge $-1 $349 $231 $233 $353 reversed $137 $-1 #
coedge $-1 $231 $348 $347 $451 reversed $137 $-1 #
coedge $-1 $239 $234 $231 $351 forward $240 $-1 #
edge $-1 $354 -25.77523608351763 $452 -20.74323971794157 $350 $453 forward 7 unknown #
coedge $-1 $233 $232 $357 $454 reversed $85 $-1 #
edge $-1 $455 -57.966282438784518 $354 -48.470502938706645 $348 $456 forward 7 unknown #
vertex $-1 $235 $457 #
straight-curve $-1 -2.6486429627709782 23.951144853816185 10.687947944464934 1 0 0 I I #
coedge $-1 $347 $236 $239 $361 reversed $229 $-1 #
coedge $-1 $236 $347 $352 $454 forward $229 $-1 #
vertex $-1 $237 $458 #
straight-curve $-1 -10.594571851083906 28.983141219392245 57.510981300888574 0 0 1 I I #
straight-curve $-1 -10.594571851083906 -1.7343077857712785 51.793266065490094 0 0.52991925155115449 -0.84804810408105047 I I #
edge $-1 $452 7.1054273576010019e-015 $241 10.594571851083906 $356 $459 forward 7 unknown #
point $-1 -10.594571851083906 28.983141219392245 10.687947944464929 #
point $-1 -10.594571851083906 23.951144853816185 10.687947944464931 #
edge $-1 $460 1 $460 0 $244 $-1 forward 7 unknown #
vertex $-1 $245 $461 #
ellipse-curve $-1 -7.5675513222027959 25.066428554321124 5.7862455219301028 0 0.84804810408105047 0.52991925155115449 1 0 0 1 I I #
point $-1 -6.5675513222027959 26.467143036604227 6.6615090435585707 #
edge $-1 $462 1 $462 0 $248 $-1 forward 7 unknown #
vertex $-1 $249 $463 #
ellipse-curve $-1 -3.0270205288811241 25.066428554321124 5.7862455219301028 0 0.84804810408105047 0.52991925155115449 1 0 0 1 I I #
point $-1 -2.0270205288811241 26.467143036604227 6.6615090435585707 #
loop $-1 $-1 $260 $252 #
plane-surface $-1 0 28.983141219392245 0 0 -1 0 0 0 -1 forward_v I I I I #
coedge $-1 $375 $255 $257 $379 reversed $159 $-1 #
coedge $-1 $255 $374 $464 $465 reversed $159 $-1 #
coedge $-1 $263 $258 $255 $377 forward $253 $-1 #
edge $-1 $380 -25.77523608351763 $466 -20.74323971794157 $376 $467 forward 7 unknown #
coedge $-1 $257 $256 $383 $468 reversed $99 $-1 #
edge $-1 $469 -57.966282438784518 $380 -48.470502938706645 $374 $470 forward 7 unknown #
vertex $-1 $259 $471 #
straight-curve $-1 20.546183977153792 23.951144853816185 10.687947944464934 1 0 0 I I #
coedge $-1 $464 $260 $263 $387 reversed $372 $-1 #
coedge $-1 $260 $464 $378 $468 forward $372 $-1 #
vertex $-1 $261 $472 #
straight-curve $-1 35.795082028765634 28.983141219392245 57.510981300888574 0 0 1 I I #
straight-curve $-1 35.795082028765634 -1.7343077857712785 51.793266065490094 0 0.52991925155115449 -0.84804810408105047 I I #
edge $-1 $466 -46.389653879849533 $264 -35.795082028765634 $382 $473 forward 7 unknown #
point $-1 35.795082028765634 28.983141219392245 10.687947944464929 #
point $-1 35.795082028765634 23.951144853816185 10.687947944464931 #
edge $-1 $474 1 $474 0 $267 $-1 forward 7 unknown #
vertex $-1 $268 $475 #
ellipse-curve $-1 38.822102557646737 25.066428554321124 5.7862455219301028 0 0.84804810408105047 0.52991925155115449 1 0 0 1 I I #
point $-1 39.822102557646737 26.467143036604227 6.6615090435585707 #
edge $-1 $476 1 $476 0 $271 $-1 forward 7 unknown #
vertex $-1 $272 $477 #
ellipse-curve $-1 43.362633350968416 25.066428554321124 5.7862455219301028 0 0.84804810408105047 0.52991925155115449 1 0 0 1 I I #
point $-1 44.362633350968416 26.467143036604227 6.6615090435585707 #
plane-surface $-1 0 28.983141219392245 0 0 -1 0 0 0 -1 forward_v I I I I #
coedge $-1 $279 $278 $281 $403 forward $113 $-1 #
edge $-1 $292 -59.658803064058354 $406 59.658803064058354 $290 $478 forward 7 unknown #
edge $-1 $404 -59.658803064058354 $296 59.658803064058354 $294 $479 forward 7 unknown #
straight-curve $-1 59.658803064058354 0 10.687947944464929 0 1 0 I I #
edge $-1 $406 -28.983141219392245 $404 28.983141219392245 $281 $480 forward 7 unknown #
vertex $-1 $403 $481 #
straight-curve $-1 -59.658803064058354 -28.983141219392245 0 0 0 -1 I I #
vertex $-1 $400 $482 #
straight-curve $-1 -59.658803064058354 28.983141219392245 0 0 0 -1 I I #
point $-1 -59.658803064058354 -28.983141219392245 -10.687947944464929 #
point $-1 -59.658803064058354 28.983141219392245 -10.687947944464929 #
point $-1 59.658803064058354 28.983141219392245 10.687947944464929 #
point $-1 59.658803064058354 -28.983141219392245 10.687947944464929 #
straight-curve $-1 0 -28.983141219392245 -10.687947944464929 -1 0 0 I I #
straight-curve $-1 0 28.983141219392245 -10.687947944464929 1 0 0 I I #
plane-surface $-1 0 0 10.687947944464929 0 0 1 1 0 0 forward_v I I I I #
coedge $-1 $307 $304 $309 $422 reversed $199 $-1 #
coedge $-1 $304 $307 $428 $483 reversed $199 $-1 #
edge $-1 $430 -10.687947944464929 $424 10.687947944464929 $321 $484 forward 7 unknown #
edge $-1 $419 -6.6345745921043999 $319 6.634574592104407 $306 $485 forward 7 unknown #
vertex $-1 $483 $486 #
vertex $-1 $422 $487 #
straight-curve $-1 -72.927952248267161 -20.008935969019372 0 0 0 -1 I I #
edge $-1 $420 -2.6231741131071331 $424 2.6231741131071331 $415 $488 forward 7 unknown #
straight-curve $-1 -66.293377656162761 -20.008935969019372 -10.687947944464929 -1 0 0 I I #
vertex $-1 $311 $489 #
straight-curve $-1 -66.293377656162761 -14.762587742805106 -10.687947944464929 1 0 0 I I #
point $-1 -59.658803064058354 -20.008935969019372 -10.687947944464929 #
straight-curve $-1 -59.658803064058354 -20.008935969019372 0 0 0 -1 I I #
coedge $-1 $317 $316 $416 $483 forward $318 $-1 #
point $-1 -59.658803064058354 -20.008935969019372 10.687947944464929 #
vertex $-1 $322 $490 #
straight-curve $-1 -66.293377656162761 -14.762587742805106 10.687947944464929 -1 0 0 I I #
plane-surface $-1 0 0 10.687947944464929 0 0 1 1 0 0 forward_v I I I I #
coedge $-1 $437 $491 $342 $448 forward $326 $-1 #
coedge $-1 $328 $335 $338 $446 reversed $215 $-1 #
coedge $-1 $491 $437 $328 $436 reversed $326 $-1 #
edge $-1 $492 -10.687947944464929 $439 10.687947944464929 $435 $493 forward 7 unknown #
coedge $-1 $435 $433 $329 $438 reversed $326 $-1 #
edge $-1 $439 -2.6231741131071331 $441 2.6231741131071331 $437 $494 forward 7 unknown #
vertex $-1 $438 $495 #
straight-curve $-1 66.293377656162761 -14.762587742805106 -10.687947944464929 1 0 0 I I #
vertex $-1 $448 $496 #
straight-curve $-1 66.293377656162761 -20.008935969019372 -10.687947944464929 -1 0 0 I I #
point $-1 59.658803064058354 -14.762587742805106 -10.687947944464929 #
straight-curve $-1 59.658803064058354 -14.762587742805106 0 0 0 -1 I I #
coedge $-1 $338 $337 $491 $497 forward $339 $-1 #
edge $-1 $492 -6.6345745921043999 $340 6.634574592104407 $434 $498 forward 7 unknown #
point $-1 59.658803064058354 -14.762587742805106 10.687947944464929 #
edge $-1 $449 -10.687947944464929 $441 10.687947944464929 $433 $499 forward 7 unknown #
vertex $-1 $497 $500 #
straight-curve $-1 66.293377656162761 -20.008935969019372 10.687947944464929 1 0 0 I I #
edge $-1 $452 46.823033356423643 $455 54.875911158236377 $347 $501 forward 7 unknown #
vertex $-1 $361 $502 #
straight-curve $-1 -7.1054273576010019e-015 49.726380937333815 10.687947944464931 0 1 0 I I #
edge $-1 $455 -2.6486429627709711 $358 7.9459288883129275 $357 $503 forward 7 unknown #
vertex $-1 $454 $504 #
straight-curve $-1 -7.1054273576010019e-015 -1.7343077857712785 51.793266065490094 0 -0.52991925155115449 0.84804810408105047 I I #
point $-1 -7.1054273576010019e-015 23.951144853816185 10.687947944464931 #
point $-1 -10.594571851083906 28.983141219392245 2.6350701426521965 #
straight-curve $-1 0 28.983141219392245 10.687947944464929 -1 0 0 I I #
vertex $-1 $364 $505 #
point $-1 -6.5675513222027959 25.066428554321124 5.7862455219301028 #
vertex $-1 $368 $506 #
point $-1 -2.0270205288811241 25.066428554321124 5.7862455219301028 #
coedge $-1 $383 $382 $375 $465 forward $372 $-1 #
edge $-1 $466 46.823033356423643 $469 54.875911158236377 $464 $507 forward 7 unknown #
vertex $-1 $387 $508 #
straight-curve $-1 46.389653879849533 49.726380937333815 10.687947944464931 0 1 0 I I #
edge $-1 $469 -25.843469902695741 $384 -15.248898051611842 $383 $509 forward 7 unknown #
vertex $-1 $468 $510 #
straight-curve $-1 46.389653879849533 -1.7343077857712785 51.793266065490094 0 -0.52991925155115449 0.84804810408105047 I I #
point $-1 46.389653879849533 23.951144853816185 10.687947944464931 #
point $-1 35.795082028765634 28.983141219392245 2.6350701426521965 #
straight-curve $-1 0 28.983141219392245 10.687947944464929 -1 0 0 I I #
vertex $-1 $390 $511 #
point $-1 39.822102557646737 25.066428554321124 5.7862455219301028 #
vertex $-1 $394 $512 #
point $-1 44.362633350968416 25.066428554321124 5.7862455219301028 #
straight-curve $-1 0 28.983141219392245 10.687947944464929 -1 0 0 I I #
straight-curve $-1 0 -28.983141219392245 10.687947944464929 1 0 0 I I #
straight-curve $-1 -59.658803064058354 0 10.687947944464929 0 -1 0 I I #
point $-1 -59.658803064058354 -28.983141219392245 10.687947944464929 #
point $-1 -59.658803064058354 28.983141219392245 10.687947944464929 #
edge $-1 $430 -2.6231741131071331 $419 2.6231741131071331 $416 $513 forward 7 unknown #
straight-curve $-1 -72.927952248267161 -14.762587742805106 0 0 0 -1 I I #
straight-curve $-1 -66.293377656162761 -20.008935969019372 10.687947944464929 1 0 0 I I #
point $-1 -72.927952248267161 -20.008935969019372 10.687947944464929 #
point $-1 -72.927952248267161 -20.008935969019372 -10.687947944464929 #
straight-curve $-1 -72.927952248267161 -17.385761855912239 -10.687947944464929 0 1 0 I I #
point $-1 -72.927952248267161 -14.762587742805106 -10.687947944464929 #
point $-1 -72.927952248267161 -14.762587742805106 10.687947944464929 #
coedge $-1 $433 $435 $445 $497 reversed $326 $-1 #
vertex $-1 $497 $514 #
straight-curve $-1 72.927952248267161 -14.762587742805106 0 0 0 -1 I I #
straight-curve $-1 72.927952248267161 -17.385761855912239 -10.687947944464929 0 -1 0 I I #
point $-1 72.927952248267161 -14.762587742805106 -10.687947944464929 #
point $-1 72.927952248267161 -20.008935969019372 -10.687947944464929 #
edge $-1 $449 -2.6231741131071331 $492 2.6231741131071331 $491 $515 forward 7 unknown #
straight-curve $-1 66.293377656162761 -14.762587742805106 10.687947944464929 -1 0 0 I I #
straight-curve $-1 72.927952248267161 -20.008935969019372 0 0 0 -1 I I #
point $-1 72.927952248267161 -20.008935969019372 10.687947944464929 #
straight-curve $-1 -7.1054273576010019e-015 28.983141219392245 57.510981300888574 0 0 -1 I I #
point $-1 -7.1054273576010019e-015 28.983141219392245 10.687947944464929 #
straight-curve $-1 -2.6486429627709782 28.983141219392245 2.6350701426521965 -1 0 0 I I #
point $-1 -7.1054273576010019e-015 28.983141219392245 2.6350701426521965 #
point $-1 -7.5675513222027959 24.218380450240073 5.2563262703789482 #
point $-1 -3.0270205288811241 24.218380450240073 5.2563262703789482 #
straight-curve $-1 46.389653879849533 28.983141219392245 57.510981300888574 0 0 -1 I I #
point $-1 46.389653879849533 28.983141219392245 10.687947944464929 #
straight-curve $-1 20.546183977153792 28.983141219392245 2.6350701426521965 -1 0 0 I I #
point $-1 46.389653879849533 28.983141219392245 2.6350701426521965 #
point $-1 38.822102557646737 24.218380450240073 5.2563262703789482 #
point $-1 43.362633350968416 24.218380450240073 5.2563262703789482 #
straight-curve $-1 -72.927952248267161 -17.385761855912239 10.687947944464929 0 -1 0 I I #
point $-1 72.927952248267161 -14.762587742805106 10.687947944464929 #
straight-curve $-1 72.927952248267161 -17.385761855912239 10.687947944464929 0 1 0 I I #
End-of-ACIS-data 