500 0 5 0           
7 Unknown 11 ACIS 5.0 NT 24 Thu Mar 25 23:38:46 1999 
-1 9.9999999999999995e-007 1e-010 
body $-1 $5 $-1 $6 #
body $-1 $7 $-1 $8 #
body $-1 $9 $-1 $10 #
body $-1 $11 $-1 $12 #
body $-1 $13 $-1 $14 #
lump $-1 $-1 $15 $0 #
transform $-1 1 0 0 0 1 0 0 0 1 49.254432813501388 28.933202558597248 12.956409429694787 1 rotate no_reflect no_shear #
lump $-1 $-1 $16 $1 #
transform $-1 1 0 0 0 1 0 0 0 1 49.254432813501388 28.933202558597248 12.956409429694787 1 rotate no_reflect no_shear #
lump $-1 $-1 $17 $2 #
transform $-1 1 0 0 0 1 0 0 0 1 49.254432813501388 28.933202558597248 12.956409429694787 1 rotate no_reflect no_shear #
lump $-1 $-1 $18 $3 #
transform $-1 1 0 0 0 1 0 0 0 1 49.254432813501388 28.933202558597248 12.956409429694787 1 rotate no_reflect no_shear #
lump $-1 $-1 $19 $4 #
transform $-1 1 0 0 0 1 0 0 0 1 49.254432813501388 28.933202558597248 12.956409429694787 1 rotate no_reflect no_shear #
shell $-1 $-1 $-1 $20 $-1 $5 #
shell $-1 $-1 $-1 $21 $-1 $7 #
shell $-1 $-1 $-1 $22 $-1 $9 #
shell $-1 $-1 $-1 $23 $-1 $11 #
shell $-1 $-1 $-1 $24 $-1 $13 #
face $-1 $25 $26 $15 $-1 $27 forward single #
face $-1 $28 $29 $16 $-1 $30 reversed single #
face $-1 $31 $32 $17 $-1 $33 reversed single #
face $-1 $34 $35 $18 $-1 $36 reversed single #
face $-1 $37 $38 $19 $-1 $39 forward single #
face $-1 $40 $41 $15 $-1 $42 reversed single #
loop $-1 $-1 $43 $20 #
plane-surface $-1 0 0 12.956409429694787 0 0 1 1 0 0 forward_v I I I I #
face $-1 $44 $45 $16 $-1 $46 reversed single #
loop $-1 $-1 $47 $21 #
plane-surface $-1 -43.573359455015193 -21.198897931175882 0 0 -1 0 0 0 -1 forward_v I I I I #
face $-1 $48 $49 $17 $-1 $50 reversed single #
loop $-1 $-1 $51 $22 #
plane-surface $-1 37.892286096529006 -25.066050244886565 0 1 0 0 0 0 -1 forward_v I I I I #
face $-1 $52 $53 $18 $-1 $54 reversed single #
loop $-1 $-1 $55 $23 #
plane-surface $-1 -6.6461621410937788 42.003152923972564 122.09238613540421 1 0 0 0 -0.6018150307709319 -0.79863550430605224 forward_v I I I I #
face $-1 $56 $57 $19 $-1 $58 forward single #
loop $-1 $59 $60 $24 #
cone-surface $-1 -0.67107583376763813 25.15445927395767 9.6015308774040626 0 -0.6018150307709319 -0.79863550430605224 1 0 0 1 I I 0 1 1 forward I I I I #
face $-1 $61 $62 $15 $-1 $63 reversed single #
loop $-1 $-1 $64 $25 #
plane-surface $-1 0 0 -12.956409429694787 0 0 1 1 0 0 forward_v I I I I #
coedge $-1 $65 $66 $67 $68 forward $26 $-1 #
face $-1 $69 $70 $16 $-1 $71 forward single #
loop $-1 $-1 $72 $28 #
plane-surface $-1 -37.892286096528998 -25.066050244886565 0 -1 0 0 0 0 1 forward_v I I I I #
coedge $-1 $73 $74 $75 $76 forward $29 $-1 #
face $-1 $77 $78 $17 $-1 $79 forward single #
loop $-1 $-1 $80 $31 #
plane-surface $-1 43.573359455015201 -21.198897931175882 0 0 -1 0 0 0 -1 forward_v I I I I #
coedge $-1 $81 $82 $83 $84 forward $32 $-1 #
face $-1 $85 $86 $18 $-1 $87 reversed single #
loop $-1 $-1 $88 $34 #
plane-surface $-1 -0.67107583376763813 -17.280963074551707 43.419708556765713 0 0.6018150307709319 0.79863550430605224 1 0 0 forward_v I I I I #
coedge $-1 $89 $90 $91 $92 reversed $35 $-1 #
face $-1 $-1 $93 $19 $-1 $94 forward single #
loop $-1 $95 $96 $37 #
cone-surface $-1 -0.67107583376763813 23.968810013683079 8.0281211975286624 0 -0.6018150307709319 -0.79863550430605224 0.5 0 0 1 I I -0.70710678118654746 0.70710678118654746 0.5 forward I I I I #
loop $-1 $-1 $97 $24 #
coedge $-1 $60 $60 $98 $99 reversed $38 $-1 #
face $-1 $100 $101 $15 $-1 $102 reversed single #
loop $-1 $-1 $103 $40 #
plane-surface $-1 0 -28.933202558597248 0 0 1 0 0 0 1 forward_v I I I I #
coedge $-1 $104 $105 $106 $107 forward $41 $-1 #
coedge $-1 $108 $43 $109 $110 forward $26 $-1 #
coedge $-1 $43 $108 $111 $112 forward $26 $-1 #
coedge $-1 $113 $114 $43 $68 reversed $115 $-1 #
edge $-1 $116 -28.933202558597248 $117 28.933202558597248 $67 $118 forward 7 unknown #
face $-1 $119 $120 $16 $-1 $121 reversed single #
loop $-1 $-1 $122 $44 #
plane-surface $-1 0 0 12.956409429694787 0 0 1 1 0 0 forward_v I I I I #
coedge $-1 $123 $124 $125 $126 reversed $45 $-1 #
coedge $-1 $127 $47 $128 $129 reversed $29 $-1 #
coedge $-1 $47 $127 $130 $131 reversed $29 $-1 #
coedge $-1 $124 $123 $47 $76 reversed $45 $-1 #
edge $-1 $132 -12.956409429694787 $133 12.956409429694787 $75 $134 forward 7 unknown #
face $-1 $135 $136 $17 $-1 $137 reversed single #
loop $-1 $-1 $138 $48 #
plane-surface $-1 0 0 12.956409429694787 0 0 1 1 0 0 forward_v I I I I #
coedge $-1 $139 $140 $141 $142 reversed $49 $-1 #
coedge $-1 $143 $51 $144 $145 reversed $32 $-1 #
coedge $-1 $51 $143 $146 $147 reversed $32 $-1 #
coedge $-1 $140 $139 $51 $84 reversed $49 $-1 #
edge $-1 $148 -12.956409429694787 $149 12.956409429694787 $83 $150 forward 7 unknown #
face $-1 $151 $152 $18 $-1 $153 reversed single #
loop $-1 $-1 $154 $52 #
plane-surface $-1 5.3040104735585025 42.003152923972564 122.09238613540421 -1 0 0 0 0.6018150307709319 0.79863550430605224 forward_v I I I I #
coedge $-1 $155 $156 $157 $158 reversed $53 $-1 #
coedge $-1 $90 $55 $159 $160 reversed $35 $-1 #
coedge $-1 $55 $89 $155 $161 reversed $35 $-1 #
coedge $-1 $157 $162 $55 $92 forward $163 $-1 #
edge $-1 $164 -7.931626096610966 $165 -2.1436230171100874 $91 $166 forward 7 unknown #
loop $-1 $-1 $98 $56 #
plane-surface $-1 -0.67107583376763813 -17.280963074551707 43.419708556765713 0 0.6018150307709319 0.79863550430605224 1 0 0 forward_v I I I I #
loop $-1 $-1 $167 $37 #
coedge $-1 $96 $96 $97 $168 reversed $57 $-1 #
coedge $-1 $97 $97 $96 $168 forward $59 $-1 #
coedge $-1 $98 $98 $60 $99 forward $93 $-1 #
edge $-1 $169 3.5769061952590539e-015 $169 6.283185307179604 $98 $170 forward 7 unknown #
face $-1 $171 $172 $15 $-1 $173 reversed single #
loop $-1 $-1 $174 $61 #
plane-surface $-1 -49.254432813501388 0 0 1 0 0 0 0 -1 forward_v I I I I #
coedge $-1 $175 $111 $176 $177 forward $62 $-1 #
coedge $-1 $178 $64 $175 $179 forward $41 $-1 #
coedge $-1 $64 $178 $180 $181 forward $41 $-1 #
coedge $-1 $114 $113 $64 $107 reversed $115 $-1 #
edge $-1 $182 -28.933202558597248 $183 28.933202558597248 $106 $184 forward 7 unknown #
coedge $-1 $66 $65 $185 $186 forward $26 $-1 #
coedge $-1 $187 $188 $65 $110 reversed $172 $-1 #
edge $-1 $117 -49.254432813501388 $189 49.254432813501388 $109 $190 forward 7 unknown #
coedge $-1 $103 $191 $66 $112 reversed $62 $-1 #
edge $-1 $192 -49.254432813501388 $116 49.254432813501388 $111 $193 forward 7 unknown #
coedge $-1 $106 $67 $191 $194 forward $115 $-1 #
coedge $-1 $67 $106 $187 $195 reversed $115 $-1 #
loop $-1 $-1 $113 $171 #
vertex $-1 $68 $196 #
vertex $-1 $68 $197 #
straight-curve $-1 49.254432813501388 0 12.956409429694787 0 1 0 I I #
face $-1 $198 $199 $16 $-1 $200 reversed single #
loop $-1 $-1 $201 $69 #
plane-surface $-1 -49.254432813501388 0 0 1 0 0 0 0 -1 forward_v I I I I #
coedge $-1 $130 $202 $124 $203 forward $70 $-1 #
coedge $-1 $75 $72 $204 $205 reversed $45 $-1 #
coedge $-1 $72 $75 $122 $203 reversed $45 $-1 #
coedge $-1 $206 $207 $72 $126 forward $208 $-1 #
edge $-1 $209 -12.956409429694787 $210 12.956409429694787 $125 $211 forward 7 unknown #
coedge $-1 $74 $73 $201 $212 reversed $29 $-1 #
coedge $-1 $204 $213 $73 $129 forward $199 $-1 #
edge $-1 $214 -27.467753085993792 $133 -16.105606369021402 $128 $215 forward 7 unknown #
coedge $-1 $216 $122 $74 $131 forward $70 $-1 #
edge $-1 $132 16.105606369021402 $217 27.467753085993792 $130 $218 forward 7 unknown #
vertex $-1 $131 $219 #
vertex $-1 $129 $220 #
straight-curve $-1 -37.892286096528998 -21.198897931175882 0 0 0 -1 I I #
face $-1 $221 $222 $17 $-1 $223 reversed single #
loop $-1 $-1 $224 $77 #
plane-surface $-1 0 -28.933202558597248 0 0 1 0 0 0 1 forward_v I I I I #
coedge $-1 $146 $225 $140 $226 forward $78 $-1 #
coedge $-1 $83 $80 $227 $228 reversed $49 $-1 #
coedge $-1 $80 $83 $138 $226 reversed $49 $-1 #
coedge $-1 $229 $230 $80 $142 forward $231 $-1 #
edge $-1 $232 -12.956409429694787 $233 12.956409429694787 $141 $234 forward 7 unknown #
coedge $-1 $82 $81 $224 $235 reversed $32 $-1 #
coedge $-1 $227 $236 $81 $145 forward $222 $-1 #
edge $-1 $237 -16.400177436153967 $149 -8.6658728087325994 $144 $238 forward 7 unknown #
coedge $-1 $239 $138 $82 $147 forward $78 $-1 #
edge $-1 $148 8.6658728087325994 $240 16.400177436153967 $146 $241 forward 7 unknown #
vertex $-1 $147 $242 #
vertex $-1 $145 $243 #
straight-curve $-1 37.892286096529006 -21.198897931175882 0 0 0 -1 I I #
face $-1 $-1 $163 $18 $-1 $244 forward single #
loop $-1 $-1 $245 $85 #
plane-surface $-1 0 28.933202558597248 0 0 -1 0 0 0 -1 forward_v I I I I #
coedge $-1 $246 $247 $248 $249 reversed $86 $-1 #
coedge $-1 $250 $88 $90 $161 forward $53 $-1 #
coedge $-1 $88 $250 $246 $251 forward $53 $-1 #
coedge $-1 $248 $91 $88 $158 forward $163 $-1 #
edge $-1 $165 -6.3106242242099597 $252 5.6395483904423216 $157 $253 forward 7 unknown #
coedge $-1 $254 $255 $89 $160 forward $152 $-1 #
edge $-1 $256 -52.451356887144016 $164 -48.089783638007319 $159 $257 forward 7 unknown #
edge $-1 $165 50.619040019733475 $256 57.86640511719451 $90 $258 forward 7 unknown #
coedge $-1 $91 $248 $254 $259 forward $163 $-1 #
loop $-1 $-1 $248 $151 #
vertex $-1 $160 $260 #
vertex $-1 $92 $261 #
straight-curve $-1 -6.6461621410937788 21.001576461986282 12.956409429694787 0 -1 0 I I #
coedge $-1 $167 $167 $-1 $262 reversed $95 $-1 #
edge $-1 $263 0 $263 6.2831853071796004 $96 $264 forward 7 unknown #
vertex $-1 $99 $265 #
ellipse-curve $-1 -0.67107583376763813 26.0392010188468 10.775622805126446 0 0.6018150307709319 0.79863550430605224 1 0 0 1 I I #
face $-1 $-1 $115 $15 $-1 $266 reversed single #
loop $-1 $-1 $187 $100 #
plane-surface $-1 0 28.933202558597248 0 0 -1 0 0 0 -1 forward_v I I I I #
coedge $-1 $267 $185 $188 $268 forward $101 $-1 #
coedge $-1 $191 $103 $104 $179 reversed $62 $-1 #
coedge $-1 $185 $267 $103 $177 reversed $101 $-1 #
edge $-1 $192 -12.956409429694787 $269 12.956409429694787 $176 $270 forward 7 unknown #
coedge $-1 $105 $104 $267 $271 forward $41 $-1 #
edge $-1 $183 -49.254432813501388 $269 49.254432813501388 $175 $272 forward 7 unknown #
coedge $-1 $188 $187 $105 $181 reversed $172 $-1 #
edge $-1 $273 -49.254432813501388 $182 49.254432813501388 $180 $274 forward 7 unknown #
vertex $-1 $107 $275 #
vertex $-1 $194 $276 #
straight-curve $-1 49.254432813501388 0 -12.956409429694787 0 -1 0 I I #
coedge $-1 $174 $176 $108 $186 reversed $101 $-1 #
edge $-1 $189 -28.933202558597248 $192 28.933202558597248 $185 $277 forward 7 unknown #
coedge $-1 $180 $109 $114 $195 forward $172 $-1 #
coedge $-1 $109 $180 $174 $268 reversed $172 $-1 #
vertex $-1 $110 $278 #
straight-curve $-1 0 28.933202558597248 12.956409429694787 -1 0 0 I I #
coedge $-1 $111 $175 $113 $194 reversed $62 $-1 #
vertex $-1 $186 $279 #
straight-curve $-1 0 -28.933202558597248 12.956409429694787 1 0 0 I I #
edge $-1 $116 -12.956409429694787 $183 12.956409429694787 $113 $280 forward 7 unknown #
edge $-1 $117 -12.956409429694787 $182 12.956409429694787 $114 $281 forward 7 unknown #
point $-1 49.254432813501388 -28.933202558597248 12.956409429694787 #
point $-1 49.254432813501388 28.933202558597248 12.956409429694787 #
face $-1 $-1 $208 $16 $-1 $282 reversed single #
loop $-1 $-1 $204 $119 #
plane-surface $-1 0 0 -12.956409429694787 0 0 1 1 0 0 forward_v I I I I #
coedge $-1 $283 $284 $127 $212 forward $120 $-1 #
coedge $-1 $122 $216 $206 $285 forward $70 $-1 #
edge $-1 $210 -16.400177436153967 $132 -8.6658728087325994 $122 $286 forward 7 unknown #
coedge $-1 $287 $128 $123 $205 forward $199 $-1 #
edge $-1 $133 8.6658728087325994 $209 16.400177436153967 $204 $288 forward 7 unknown #
coedge $-1 $289 $125 $202 $285 reversed $208 $-1 #
coedge $-1 $125 $289 $287 $290 reversed $208 $-1 #
loop $-1 $-1 $125 $198 #
vertex $-1 $290 $291 #
vertex $-1 $126 $292 #
straight-curve $-1 -37.892286096528998 -28.933202558597248 0 0 0 1 I I #
edge $-1 $217 -12.956409429694787 $214 12.956409429694787 $201 $293 forward 7 unknown #
coedge $-1 $128 $287 $283 $294 forward $199 $-1 #
vertex $-1 $129 $295 #
straight-curve $-1 -21.786679727507597 -21.198897931175882 -12.956409429694787 1 0 0 I I #
coedge $-1 $202 $130 $284 $296 forward $70 $-1 #
vertex $-1 $296 $297 #
straight-curve $-1 -21.786679727507597 -21.198897931175882 12.956409429694787 -1 0 0 I I #
point $-1 -37.892286096528998 -21.198897931175882 12.956409429694787 #
point $-1 -37.892286096528998 -21.198897931175882 -12.956409429694787 #
face $-1 $-1 $231 $17 $-1 $298 reversed single #
loop $-1 $-1 $227 $135 #
plane-surface $-1 0 0 -12.956409429694787 0 0 1 1 0 0 forward_v I I I I #
coedge $-1 $299 $300 $143 $235 forward $136 $-1 #
coedge $-1 $138 $239 $229 $301 forward $78 $-1 #
edge $-1 $233 -27.467753085993795 $148 -16.105606369021405 $138 $302 forward 7 unknown #
coedge $-1 $303 $144 $139 $228 forward $222 $-1 #
edge $-1 $149 16.105606369021405 $232 27.467753085993795 $227 $304 forward 7 unknown #
coedge $-1 $305 $141 $225 $301 reversed $231 $-1 #
coedge $-1 $141 $305 $303 $306 reversed $231 $-1 #
loop $-1 $-1 $141 $221 #
vertex $-1 $306 $307 #
vertex $-1 $142 $308 #
straight-curve $-1 49.254432813501388 -21.198897931175882 0 0 0 1 I I #
edge $-1 $240 -12.956409429694787 $237 12.956409429694787 $224 $309 forward 7 unknown #
coedge $-1 $144 $303 $299 $310 forward $222 $-1 #
vertex $-1 $145 $311 #
straight-curve $-1 37.892286096529006 -12.533025122443282 -12.956409429694787 0 1 0 I I #
coedge $-1 $225 $146 $300 $312 forward $78 $-1 #
vertex $-1 $312 $313 #
straight-curve $-1 37.892286096529006 -12.533025122443282 12.956409429694787 0 -1 0 I I #
point $-1 37.892286096529006 -21.198897931175882 12.956409429694787 #
point $-1 37.892286096529006 -21.198897931175882 -12.956409429694787 #
plane-surface $-1 0 0 12.956409429694787 0 0 1 1 0 0 forward_v I I I I #
coedge $-1 $255 $254 $247 $314 forward $152 $-1 #
coedge $-1 $247 $154 $156 $251 reversed $86 $-1 #
coedge $-1 $154 $246 $245 $314 reversed $86 $-1 #
coedge $-1 $162 $157 $154 $249 forward $163 $-1 #
edge $-1 $252 2.1436230171100874 $315 7.931626096610966 $248 $316 forward 7 unknown #
coedge $-1 $156 $155 $255 $317 reversed $53 $-1 #
edge $-1 $318 -57.86640511719451 $252 -50.619040019733475 $246 $319 forward 7 unknown #
vertex $-1 $158 $320 #
straight-curve $-1 -0.33553791688381907 23.145199479096362 12.956409429694787 1 0 0 I I #
coedge $-1 $245 $159 $162 $259 reversed $152 $-1 #
coedge $-1 $159 $245 $250 $317 forward $152 $-1 #
vertex $-1 $160 $321 #
straight-curve $-1 -6.6461621410937788 28.933202558597248 61.046193067702106 0 0 1 I I #
straight-curve $-1 -6.6461621410937788 -17.280963074551707 43.419708556765713 0 0.79863550430605224 -0.6018150307709319 I I #
edge $-1 $315 -5.3040104735585025 $164 6.6461621410937788 $254 $322 forward 7 unknown #
point $-1 -6.6461621410937788 28.933202558597248 12.956409429694787 #
point $-1 -6.6461621410937788 23.14519947909637 12.956409429694787 #
edge $-1 $323 1 $323 0 $167 $-1 forward 7 unknown #
vertex $-1 $168 $324 #
ellipse-curve $-1 -0.67107583376763813 24.269717529068544 8.4274389496816884 0 0.6018150307709319 0.79863550430605224 1 0 0 1 I I #
point $-1 0.32892416623236187 26.039201018846796 10.775622805126435 #
plane-surface $-1 49.254432813501388 0 0 -1 0 0 0 0 1 forward_v I I I I #
coedge $-1 $176 $174 $178 $271 reversed $101 $-1 #
edge $-1 $189 -12.956409429694787 $273 12.956409429694787 $188 $325 forward 7 unknown #
vertex $-1 $271 $326 #
straight-curve $-1 -49.254432813501388 -28.933202558597248 0 0 0 -1 I I #
edge $-1 $269 -28.933202558597248 $273 28.933202558597248 $267 $327 forward 7 unknown #
straight-curve $-1 0 -28.933202558597248 -12.956409429694787 -1 0 0 I I #
vertex $-1 $181 $328 #
straight-curve $-1 0 28.933202558597248 -12.956409429694787 1 0 0 I I #
point $-1 49.254432813501388 28.933202558597248 -12.956409429694787 #
point $-1 49.254432813501388 -28.933202558597248 -12.956409429694787 #
straight-curve $-1 -49.254432813501388 0 12.956409429694787 0 -1 0 I I #
point $-1 -49.254432813501388 28.933202558597248 12.956409429694787 #
point $-1 -49.254432813501388 -28.933202558597248 12.956409429694787 #
straight-curve $-1 49.254432813501388 -28.933202558597248 0 0 0 -1 I I #
straight-curve $-1 49.254432813501388 28.933202558597248 0 0 0 -1 I I #
plane-surface $-1 0 -28.933202558597248 0 0 1 0 0 0 1 forward_v I I I I #
coedge $-1 $329 $201 $213 $294 reversed $120 $-1 #
coedge $-1 $201 $329 $216 $296 reversed $120 $-1 #
edge $-1 $330 -49.254432813501388 $210 -37.892286096528998 $206 $331 forward 7 unknown #
straight-curve $-1 -37.892286096528998 -12.533025122443282 12.956409429694787 0 1 0 I I #
coedge $-1 $213 $204 $207 $290 forward $199 $-1 #
straight-curve $-1 -37.892286096528998 -12.533025122443282 -12.956409429694787 0 -1 0 I I #
coedge $-1 $207 $206 $329 $332 forward $208 $-1 #
edge $-1 $209 37.892286096528998 $333 49.254432813501388 $207 $334 forward 7 unknown #
point $-1 -37.892286096528998 -28.933202558597248 -12.956409429694787 #
point $-1 -37.892286096528998 -28.933202558597248 12.956409429694787 #
straight-curve $-1 -49.254432813501388 -21.198897931175882 0 0 0 -1 I I #
edge $-1 $333 -28.933202558597248 $214 -21.198897931175882 $283 $335 forward 7 unknown #
point $-1 -49.254432813501388 -21.198897931175882 -12.956409429694787 #
edge $-1 $217 21.198897931175882 $330 28.933202558597248 $284 $336 forward 7 unknown #
point $-1 -49.254432813501388 -21.198897931175882 12.956409429694787 #
plane-surface $-1 49.254432813501388 0 0 -1 0 0 0 0 1 forward_v I I I I #
coedge $-1 $337 $224 $236 $310 reversed $136 $-1 #
coedge $-1 $224 $337 $239 $312 reversed $136 $-1 #
edge $-1 $338 -28.933202558597248 $233 -21.198897931175882 $229 $339 forward 7 unknown #
straight-curve $-1 21.7866797275076 -21.198897931175882 12.956409429694787 -1 0 0 I I #
coedge $-1 $236 $227 $230 $306 forward $222 $-1 #
straight-curve $-1 21.7866797275076 -21.198897931175882 -12.956409429694787 1 0 0 I I #
coedge $-1 $230 $229 $337 $340 forward $231 $-1 #
edge $-1 $232 21.198897931175882 $341 28.933202558597248 $230 $342 forward 7 unknown #
point $-1 49.254432813501396 -21.198897931175882 -12.956409429694787 #
point $-1 49.254432813501396 -21.198897931175882 12.956409429694787 #
straight-curve $-1 37.892286096529006 -28.933202558597248 0 0 0 -1 I I #
edge $-1 $341 -49.254432813501388 $237 -37.892286096529006 $299 $343 forward 7 unknown #
point $-1 37.892286096529006 -28.933202558597248 -12.956409429694787 #
edge $-1 $240 37.892286096529006 $338 49.254432813501388 $300 $344 forward 7 unknown #
point $-1 37.892286096529006 -28.933202558597248 12.956409429694787 #
edge $-1 $315 48.089783638007319 $318 52.451356887144016 $245 $345 forward 7 unknown #
vertex $-1 $259 $346 #
straight-curve $-1 5.3040104735585025 21.001576461986282 12.956409429694787 0 1 0 I I #
edge $-1 $318 -5.6395483904423216 $256 6.3106242242099597 $255 $347 forward 7 unknown #
vertex $-1 $317 $348 #
straight-curve $-1 5.3040104735585025 -17.280963074551707 43.419708556765713 0 -0.79863550430605224 0.6018150307709319 I I #
point $-1 5.3040104735585025 23.14519947909637 12.956409429694787 #
point $-1 -6.6461621410937788 28.933202558597245 8.5948361805580902 #
straight-curve $-1 0 28.933202558597248 12.956409429694787 -1 0 0 I I #
vertex $-1 $262 $349 #
point $-1 0.32892416623236187 24.269717529068544 8.4274389496816884 #
straight-curve $-1 -49.254432813501388 28.933202558597248 0 0 0 -1 I I #
point $-1 -49.254432813501388 -28.933202558597248 -12.956409429694787 #
straight-curve $-1 -49.254432813501388 0 -12.956409429694787 0 1 0 I I #
point $-1 -49.254432813501388 28.933202558597248 -12.956409429694787 #
coedge $-1 $284 $283 $289 $332 reversed $120 $-1 #
vertex $-1 $296 $350 #
straight-curve $-1 0 -28.933202558597248 12.956409429694787 1 0 0 I I #
edge $-1 $330 -12.956409429694787 $333 12.956409429694787 $329 $351 forward 7 unknown #
vertex $-1 $294 $352 #
straight-curve $-1 0 -28.933202558597248 -12.956409429694787 -1 0 0 I I #
straight-curve $-1 -49.254432813501388 0 -12.956409429694787 0 1 0 I I #
straight-curve $-1 -49.254432813501388 0 12.956409429694787 0 -1 0 I I #
coedge $-1 $300 $299 $305 $340 reversed $136 $-1 #
vertex $-1 $301 $353 #
straight-curve $-1 49.254432813501388 0 12.956409429694787 0 1 0 I I #
edge $-1 $338 -12.956409429694787 $341 12.956409429694787 $305 $354 forward 7 unknown #
vertex $-1 $340 $355 #
straight-curve $-1 49.254432813501388 0 -12.956409429694787 0 -1 0 I I #
straight-curve $-1 0 -28.933202558597248 -12.956409429694787 -1 0 0 I I #
straight-curve $-1 0 -28.933202558597248 12.956409429694787 1 0 0 I I #
straight-curve $-1 5.3040104735585025 28.933202558597248 61.046193067702106 0 0 -1 I I #
point $-1 5.3040104735585025 28.933202558597248 12.956409429694787 #
straight-curve $-1 -0.33553791688381907 28.933202558597248 8.5948361805580902 -1 0 0 I I #
point $-1 5.3040104735585025 28.933202558597245 8.5948361805580902 #
point $-1 -0.67107583376763813 23.667902498297614 7.6288034453756364 #
point $-1 -49.254432813501388 -28.933202558597248 12.956409429694787 #
straight-curve $-1 -49.254432813501388 -28.933202558597248 0 0 0 -1 I I #
point $-1 -49.254432813501388 -28.933202558597248 -12.956409429694787 #
point $-1 49.254432813501388 -28.933202558597248 12.956409429694787 #
straight-curve $-1 49.254432813501388 -28.933202558597248 0 0 0 -1 I I #
point $-1 49.254432813501388 -28.933202558597248 -12.956409429694787 #
End-of-ACIS-data 