500 0 7 0           
7 Unknown 11 ACIS 5.0 NT 24 Fri Mar 26 01:24:19 1999 
-1 9.9999999999999995e-007 1e-010 
body $-1 $7 $-1 $8 #
body $-1 $9 $-1 $10 #
body $-1 $11 $-1 $12 #
body $-1 $13 $-1 $14 #
body $-1 $15 $-1 $16 #
body $-1 $17 $-1 $18 #
body $-1 $19 $-1 $20 #
lump $-1 $-1 $21 $0 #
transform $-1 1 0 0 0 1 0 0 0 1 76.523331400494399 44.495490234300959 17.749853570683758 1 rotate no_reflect no_shear #
lump $-1 $-1 $22 $1 #
transform $-1 1 0 0 0 1 0 0 0 1 76.523331400494399 44.495490234300959 17.749853570683758 1 rotate no_reflect no_shear #
lump $-1 $-1 $23 $2 #
transform $-1 1 0 0 0 1 0 0 0 1 76.523331400494399 44.495490234300959 17.749853570683758 1 rotate no_reflect no_shear #
lump $-1 $-1 $24 $3 #
transform $-1 1 0 0 0 1 0 0 0 1 76.523331400494399 44.495490234300959 17.749853570683758 1 rotate no_reflect no_shear #
lump $-1 $-1 $25 $4 #
transform $-1 1 0 0 0 1 0 0 0 1 76.523331400494399 44.495490234300959 17.749853570683758 1 rotate no_reflect no_shear #
lump $-1 $-1 $26 $5 #
transform $-1 1 0 0 0 1 0 0 0 1 76.523331400494399 44.495490234300959 17.749853570683758 1 rotate no_reflect no_shear #
lump $-1 $-1 $27 $6 #
transform $-1 1 0 0 0 1 0 0 0 1 76.523331400494399 44.495490234300959 17.749853570683758 1 rotate no_reflect no_shear #
shell $-1 $-1 $-1 $28 $-1 $7 #
shell $-1 $-1 $-1 $29 $-1 $9 #
shell $-1 $-1 $-1 $30 $-1 $11 #
shell $-1 $-1 $-1 $31 $-1 $13 #
shell $-1 $-1 $-1 $32 $-1 $15 #
shell $-1 $-1 $-1 $33 $-1 $17 #
shell $-1 $-1 $-1 $34 $-1 $19 #
face $-1 $35 $36 $21 $-1 $37 forward single #
face $-1 $38 $39 $22 $-1 $40 forward single #
face $-1 $41 $42 $23 $-1 $43 forward single #
face $-1 $44 $45 $24 $-1 $46 reversed single #
face $-1 $47 $48 $25 $-1 $49 forward single #
face $-1 $50 $51 $26 $-1 $52 reversed single #
face $-1 $53 $54 $27 $-1 $55 forward single #
face $-1 $56 $57 $21 $-1 $58 reversed single #
loop $-1 $-1 $59 $28 #
plane-surface $-1 0 0 17.749853570683758 0 0 1 1 0 0 forward_v I I I I #
face $-1 $60 $61 $22 $-1 $62 forward single #
loop $-1 $-1 $63 $29 #
plane-surface $-1 0 -44.495490234300959 0 0 1 0 0 0 1 forward_v I I I I #
face $-1 $64 $65 $23 $-1 $66 reversed single #
loop $-1 $-1 $67 $30 #
plane-surface $-1 0 38.406007174449186 13.202627404953294 0 0 1 1 0 0 forward_v I I I I #
face $-1 $68 $69 $24 $-1 $70 reversed single #
loop $-1 $-1 $71 $31 #
plane-surface $-1 87.850963311418084 14.839411503248229 226.87951508592704 0 -1 0 -0.74314483375859142 0 -0.66913059716165679 forward_v I I I I #
face $-1 $72 $73 $25 $-1 $74 forward single #
loop $-1 $75 $76 $32 #
cone-surface $-1 72.071324223395195 8.7054823043987 13.077433428660667 -0.74314483375859142 0 -0.66913059716165679 1.0036958957424851 0 -1.1147172506378871 1 I I 0 1 1.5 forward I I I I #
face $-1 $77 $78 $26 $-1 $79 reversed single #
loop $-1 $-1 $80 $33 #
plane-surface $-1 -190.25916818504243 2.5715531055491709 113.14367830137904 0 1 0 -0.74314483375859142 0 0.66913059716165679 forward_v I I I I #
face $-1 $81 $82 $27 $-1 $83 forward single #
loop $-1 $84 $85 $34 #
cone-surface $-1 -72.07132422339518 8.7054823043987 13.07743342866066 0.74314483375859142 0 -0.66913059716165679 1.0036958957424851 0 1.1147172506378871 1 I I 0 1 1.5 forward I I I I #
face $-1 $86 $87 $21 $-1 $88 reversed single #
loop $-1 $-1 $89 $35 #
plane-surface $-1 0 0 -17.749853570683758 0 0 1 1 0 0 forward_v I I I I #
coedge $-1 $90 $91 $92 $93 forward $36 $-1 #
face $-1 $94 $95 $22 $-1 $96 reversed single #
loop $-1 $-1 $97 $38 #
plane-surface $-1 0 0 17.749853570683758 0 0 1 1 0 0 forward_v I I I I #
coedge $-1 $98 $99 $100 $101 forward $39 $-1 #
face $-1 $102 $103 $23 $-1 $104 reversed single #
loop $-1 $-1 $105 $41 #
plane-surface $-1 0 38.406007174449186 7.7309250544947012 0 0 1 1 0 0 forward_v I I I I #
coedge $-1 $106 $107 $108 $109 reversed $42 $-1 #
face $-1 $110 $111 $24 $-1 $112 reversed single #
loop $-1 $-1 $113 $44 #
plane-surface $-1 -25.884873473129929 8.7054823043987 124.47131021230268 0.74314483375859142 0 0.66913059716165679 0.66913059716165679 0 -0.74314483375859142 forward_v I I I I #
coedge $-1 $114 $115 $116 $117 reversed $45 $-1 #
face $-1 $-1 $118 $25 $-1 $119 forward single #
loop $-1 $120 $121 $47 #
cone-surface $-1 70.219846466850001 8.7054823043987 11.410355410230874 -0.74314483375859142 0 -0.66913059716165679 0.50184794787124254 0 -0.55735862531894353 1 I I -0.70710678118654757 0.70710678118654757 0.75 forward I I I I #
loop $-1 $-1 $122 $32 #
coedge $-1 $76 $76 $123 $124 reversed $48 $-1 #
face $-1 $125 $126 $26 $-1 $127 reversed single #
loop $-1 $-1 $128 $50 #
plane-surface $-1 -76.523331400494413 8.7054823043987 10.735473427754684 -0.74314483375859142 0 0.66913059716165679 0.66913059716165679 0 0.74314483375859142 forward_v I I I I #
coedge $-1 $129 $130 $131 $132 reversed $51 $-1 #
face $-1 $-1 $133 $27 $-1 $134 forward single #
loop $-1 $135 $136 $53 #
cone-surface $-1 -70.219846466849987 8.7054823043987 11.410355410230867 0.74314483375859142 0 -0.66913059716165679 0.50184794787124254 0 0.55735862531894353 1 I I -0.70710678118654757 0.70710678118654757 0.75 forward I I I I #
loop $-1 $-1 $137 $34 #
coedge $-1 $85 $85 $138 $139 reversed $54 $-1 #
face $-1 $140 $141 $21 $-1 $142 reversed single #
loop $-1 $-1 $143 $56 #
plane-surface $-1 0 -44.495490234300959 0 0 1 0 0 0 1 forward_v I I I I #
coedge $-1 $144 $145 $146 $147 forward $57 $-1 #
coedge $-1 $148 $59 $149 $150 forward $36 $-1 #
coedge $-1 $59 $148 $151 $152 forward $36 $-1 #
coedge $-1 $153 $154 $59 $93 reversed $155 $-1 #
edge $-1 $156 -44.495490234300959 $157 44.495490234300959 $92 $158 forward 7 unknown #
face $-1 $159 $160 $22 $-1 $161 reversed single #
loop $-1 $-1 $162 $60 #
plane-surface $-1 -76.523331400494399 0 0 1 0 0 0 0 -1 forward_v I I I I #
coedge $-1 $163 $164 $165 $166 forward $61 $-1 #
coedge $-1 $165 $63 $162 $167 reversed $39 $-1 #
coedge $-1 $63 $165 $168 $169 reversed $39 $-1 #
coedge $-1 $170 $171 $63 $101 reversed $160 $-1 #
edge $-1 $172 -76.523331400494399 $173 76.523331400494399 $100 $174 forward 7 unknown #
face $-1 $175 $176 $23 $-1 $177 reversed single #
loop $-1 $-1 $178 $64 #
plane-surface $-1 0 32.316524114597414 10.466776229723997 0 1 0 0 0 1 forward_v I I I I #
coedge $-1 $179 $180 $181 $182 reversed $65 $-1 #
coedge $-1 $183 $67 $184 $185 reversed $42 $-1 #
coedge $-1 $67 $183 $186 $187 forward $42 $-1 #
coedge $-1 $188 $189 $67 $109 forward $176 $-1 #
edge $-1 $190 -25.292486647076366 $191 -13.11352052737282 $108 $192 forward 7 unknown #
face $-1 $193 $194 $24 $-1 $195 forward single #
loop $-1 $-1 $196 $68 #
plane-surface $-1 87.850963311418084 2.5715531055491709 226.87951508592704 0 1 0 0.74314483375859142 0 0.66913059716165679 forward_v I I I I #
coedge $-1 $197 $198 $199 $200 reversed $69 $-1 #
coedge $-1 $115 $71 $201 $202 reversed $45 $-1 #
coedge $-1 $71 $114 $197 $203 reversed $45 $-1 #
coedge $-1 $199 $204 $71 $117 forward $194 $-1 #
edge $-1 $205 -32.597849744785357 $206 -26.282073653039454 $116 $207 forward 7 unknown #
loop $-1 $-1 $123 $72 #
plane-surface $-1 -25.884873473129929 8.7054823043987 124.47131021230268 0.74314483375859142 0 0.66913059716165679 0.66913059716165679 0 -0.74314483375859142 forward_v I I I I #
loop $-1 $-1 $208 $47 #
coedge $-1 $121 $121 $122 $209 reversed $73 $-1 #
coedge $-1 $122 $122 $121 $209 forward $75 $-1 #
coedge $-1 $123 $123 $76 $124 forward $118 $-1 #
edge $-1 $210 0 $210 6.2831853071796004 $123 $211 forward 7 unknown #
face $-1 $212 $213 $26 $-1 $214 reversed single #
loop $-1 $-1 $215 $77 #
plane-surface $-1 -190.25916818504243 14.839411503248229 113.14367830137904 0 -1 0 0.74314483375859142 0 -0.66913059716165679 forward_v I I I I #
coedge $-1 $216 $217 $218 $219 reversed $78 $-1 #
coedge $-1 $130 $80 $220 $221 reversed $51 $-1 #
coedge $-1 $80 $129 $216 $222 reversed $51 $-1 #
coedge $-1 $218 $223 $80 $132 forward $224 $-1 #
edge $-1 $225 18.606252692026814 $226 24.922028783772703 $131 $227 forward 7 unknown #
loop $-1 $-1 $138 $81 #
plane-surface $-1 -76.523331400494413 8.7054823043987 10.735473427754684 -0.74314483375859142 0 0.66913059716165679 0.66913059716165679 0 0.74314483375859142 forward_v I I I I #
loop $-1 $-1 $228 $53 #
coedge $-1 $136 $136 $137 $229 reversed $82 $-1 #
coedge $-1 $137 $137 $136 $229 forward $84 $-1 #
coedge $-1 $138 $138 $85 $139 forward $133 $-1 #
edge $-1 $230 0 $230 6.2831853071796004 $138 $231 forward 7 unknown #
face $-1 $232 $233 $21 $-1 $234 reversed single #
loop $-1 $-1 $235 $86 #
plane-surface $-1 -76.523331400494399 0 0 1 0 0 0 0 -1 forward_v I I I I #
coedge $-1 $236 $151 $237 $238 forward $87 $-1 #
coedge $-1 $239 $89 $236 $240 forward $57 $-1 #
coedge $-1 $89 $239 $241 $242 forward $57 $-1 #
coedge $-1 $154 $153 $89 $147 reversed $155 $-1 #
edge $-1 $243 -44.495490234300959 $244 44.495490234300959 $146 $245 forward 7 unknown #
coedge $-1 $91 $90 $246 $247 forward $36 $-1 #
coedge $-1 $248 $249 $90 $150 reversed $233 $-1 #
edge $-1 $157 -76.523331400494399 $250 76.523331400494399 $149 $251 forward 7 unknown #
coedge $-1 $143 $252 $91 $152 reversed $87 $-1 #
edge $-1 $253 -76.523331400494399 $156 76.523331400494399 $151 $254 forward 7 unknown #
coedge $-1 $146 $92 $252 $255 forward $155 $-1 #
coedge $-1 $92 $146 $248 $256 reversed $155 $-1 #
loop $-1 $-1 $153 $232 #
vertex $-1 $93 $257 #
vertex $-1 $93 $258 #
straight-curve $-1 76.523331400494399 0 17.749853570683758 0 1 0 I I #
face $-1 $259 $260 $22 $-1 $261 reversed single #
loop $-1 $-1 $170 $94 #
plane-surface $-1 0 -53.534167232841547 8.8808313052527801 0 0 1 1 0 0 forward_v I I I I #
coedge $-1 $262 $263 $98 $167 forward $95 $-1 #
coedge $-1 $264 $97 $263 $265 forward $61 $-1 #
coedge $-1 $97 $264 $266 $267 forward $61 $-1 #
coedge $-1 $99 $98 $97 $166 reversed $39 $-1 #
edge $-1 $268 -76.523331400494399 $269 76.523331400494399 $97 $270 forward 7 unknown #
edge $-1 $269 -17.749853570683758 $173 -8.8808313052527801 $162 $271 forward 7 unknown #
coedge $-1 $266 $272 $99 $169 forward $273 $-1 #
edge $-1 $172 8.8808313052527801 $268 17.749853570683758 $168 $274 forward 7 unknown #
coedge $-1 $275 $100 $272 $276 forward $160 $-1 #
coedge $-1 $100 $275 $262 $277 forward $160 $-1 #
vertex $-1 $169 $278 #
vertex $-1 $167 $279 #
straight-curve $-1 0 -44.495490234300959 8.8808313052527801 -1 0 0 I I #
face $-1 $280 $281 $23 $-1 $282 reversed single #
loop $-1 $-1 $108 $102 #
plane-surface $-1 76.523331400494399 0 0 -1 0 0 0 0 1 forward_v I I I I #
coedge $-1 $283 $186 $284 $285 reversed $103 $-1 #
coedge $-1 $286 $105 $283 $287 forward $65 $-1 #
coedge $-1 $105 $286 $288 $289 reversed $65 $-1 #
coedge $-1 $189 $188 $105 $182 forward $176 $-1 #
edge $-1 $290 13.11352052737282 $291 25.292486647076366 $181 $292 forward 7 unknown #
coedge $-1 $107 $106 $293 $294 reversed $42 $-1 #
coedge $-1 $295 $296 $106 $185 forward $297 $-1 #
edge $-1 $298 -76.523331400494399 $190 76.523331400494399 $184 $299 forward 7 unknown #
coedge $-1 $178 $300 $107 $187 reversed $103 $-1 #
edge $-1 $301 -76.523331400494399 $191 76.523331400494399 $186 $302 forward 7 unknown #
coedge $-1 $181 $108 $300 $303 forward $176 $-1 #
coedge $-1 $108 $181 $295 $304 reversed $176 $-1 #
vertex $-1 $304 $305 #
vertex $-1 $109 $306 #
straight-curve $-1 76.523331400494399 19.203003587224593 13.202627404953294 0 -1 0 I I #
face $-1 $-1 $307 $24 $-1 $308 reversed single #
loop $-1 $-1 $116 $110 #
plane-surface $-1 0 0 17.749853570683758 0 0 1 1 0 0 forward_v I I I I #
coedge $-1 $309 $310 $311 $312 reversed $111 $-1 #
coedge $-1 $313 $113 $115 $203 forward $69 $-1 #
coedge $-1 $113 $313 $309 $314 forward $69 $-1 #
coedge $-1 $311 $116 $113 $200 forward $194 $-1 #
edge $-1 $206 -10.486670351048879 $315 1.781188046650179 $199 $316 forward 7 unknown #
coedge $-1 $317 $318 $114 $202 forward $307 $-1 #
edge $-1 $319 -102.70428411520881 $205 -95.689903972279765 $201 $320 forward 7 unknown #
edge $-1 $206 143.60788340794289 $319 153.04666280098871 $115 $321 forward 7 unknown #
coedge $-1 $116 $311 $317 $322 forward $194 $-1 #
vertex $-1 $202 $323 #
vertex $-1 $117 $324 #
straight-curve $-1 43.925481655709042 14.839411503248229 17.749853570683754 -1 0 0 I I #
coedge $-1 $208 $208 $-1 $325 reversed $120 $-1 #
edge $-1 $326 0 $326 6.2831853071796004 $121 $327 forward 7 unknown #
vertex $-1 $124 $328 #
ellipse-curve $-1 73.365443354621462 8.7054823043987 14.242663499219226 0.74314483375859142 0 0.66913059716165679 1.0036958957424851 0 -1.1147172506378871 1 I I #
face $-1 $-1 $224 $26 $-1 $329 forward single #
loop $-1 $-1 $330 $125 #
plane-surface $-1 -76.523331400494399 0 0 1 0 0 0 0 -1 forward_v I I I I #
coedge $-1 $331 $332 $333 $334 reversed $126 $-1 #
coedge $-1 $335 $128 $130 $222 forward $78 $-1 #
coedge $-1 $128 $335 $331 $336 forward $78 $-1 #
coedge $-1 $333 $131 $128 $219 forward $224 $-1 #
edge $-1 $226 -1.781188046650179 $337 10.486670351048879 $218 $338 forward 7 unknown #
coedge $-1 $339 $340 $129 $221 forward $213 $-1 #
edge $-1 $341 -45.836365722934822 $225 -38.821985580005759 $220 $342 forward 7 unknown #
edge $-1 $226 -9.4387793930458415 $341 -2.1389731374768986e-014 $130 $343 forward 7 unknown #
coedge $-1 $131 $333 $339 $344 forward $224 $-1 #
loop $-1 $-1 $333 $212 #
vertex $-1 $221 $345 #
vertex $-1 $132 $346 #
straight-curve $-1 -95.129584092521213 2.5715531055491709 17.749853570683754 1 0 0 I I #
coedge $-1 $228 $228 $-1 $347 reversed $135 $-1 #
edge $-1 $348 0 $348 6.2831853071796004 $136 $349 forward 7 unknown #
vertex $-1 $139 $350 #
ellipse-curve $-1 -73.365443354621448 8.7054823043987 14.24266349921923 -0.74314483375859142 0 0.66913059716165679 1.0036958957424851 0 1.1147172506378871 1 I I #
face $-1 $-1 $155 $21 $-1 $351 reversed single #
loop $-1 $-1 $248 $140 #
plane-surface $-1 0 44.495490234300959 0 0 -1 0 0 0 -1 forward_v I I I I #
coedge $-1 $352 $246 $249 $353 forward $141 $-1 #
coedge $-1 $252 $143 $144 $240 reversed $87 $-1 #
coedge $-1 $246 $352 $143 $238 reversed $141 $-1 #
edge $-1 $253 -17.749853570683758 $354 17.749853570683758 $237 $355 forward 7 unknown #
coedge $-1 $145 $144 $352 $356 forward $57 $-1 #
edge $-1 $244 -76.523331400494399 $354 76.523331400494399 $236 $357 forward 7 unknown #
coedge $-1 $249 $248 $145 $242 reversed $233 $-1 #
edge $-1 $358 -76.523331400494399 $243 76.523331400494399 $241 $359 forward 7 unknown #
vertex $-1 $147 $360 #
vertex $-1 $255 $361 #
straight-curve $-1 76.523331400494399 0 -17.749853570683758 0 -1 0 I I #
coedge $-1 $235 $237 $148 $247 reversed $141 $-1 #
edge $-1 $250 -44.495490234300959 $253 44.495490234300959 $246 $362 forward 7 unknown #
coedge $-1 $241 $149 $154 $256 forward $233 $-1 #
coedge $-1 $149 $241 $235 $353 reversed $233 $-1 #
vertex $-1 $150 $363 #
straight-curve $-1 0 44.495490234300959 17.749853570683758 -1 0 0 I I #
coedge $-1 $151 $236 $153 $255 reversed $87 $-1 #
vertex $-1 $247 $364 #
straight-curve $-1 0 -44.495490234300959 17.749853570683758 1 0 0 I I #
edge $-1 $156 -17.749853570683758 $244 17.749853570683758 $153 $365 forward 7 unknown #
edge $-1 $157 -17.749853570683758 $243 17.749853570683758 $154 $366 forward 7 unknown #
point $-1 76.523331400494399 -44.495490234300959 17.749853570683758 #
point $-1 76.523331400494399 44.495490234300959 17.749853570683758 #
face $-1 $-1 $273 $22 $-1 $367 reversed single #
loop $-1 $-1 $368 $159 #
plane-surface $-1 0 -62.572844231382135 13.315342437968269 0 1 0 0 0 1 forward_v I I I I #
coedge $-1 $369 $162 $171 $277 reversed $95 $-1 #
coedge $-1 $162 $369 $163 $265 reversed $95 $-1 #
coedge $-1 $164 $163 $370 $371 forward $61 $-1 #
edge $-1 $269 44.495490234300959 $372 62.572844231382135 $263 $373 forward 7 unknown #
coedge $-1 $374 $168 $164 $267 reversed $273 $-1 #
edge $-1 $375 -62.572844231382135 $268 -44.495490234300959 $266 $376 forward 7 unknown #
vertex $-1 $169 $377 #
vertex $-1 $265 $378 #
straight-curve $-1 0 -44.495490234300959 17.749853570683758 -1 0 0 I I #
straight-curve $-1 -76.523331400494399 -44.495490234300959 0 0 0 -1 I I #
coedge $-1 $168 $374 $170 $276 reversed $273 $-1 #
loop $-1 $-1 $168 $259 #
straight-curve $-1 76.523331400494399 -44.495490234300959 0 0 0 1 I I #
coedge $-1 $171 $170 $379 $380 forward $160 $-1 #
edge $-1 $172 -9.0386769985405877 $381 9.0386769985405877 $272 $382 forward 7 unknown #
edge $-1 $383 -9.0386769985405877 $173 9.0386769985405877 $262 $384 forward 7 unknown #
point $-1 76.523331400494399 -44.495490234300959 8.8808313052527801 #
point $-1 -76.523331400494399 -44.495490234300959 8.8808313052527801 #
face $-1 $-1 $297 $23 $-1 $385 reversed single #
loop $-1 $-1 $293 $175 #
plane-surface $-1 -76.523331400494399 0 0 1 0 0 0 0 -1 forward_v I I I I #
coedge $-1 $300 $178 $179 $287 reversed $103 $-1 #
coedge $-1 $293 $386 $178 $285 forward $281 $-1 #
edge $-1 $387 2.4975369396327025 $301 7.9692392900912949 $284 $388 forward 7 unknown #
coedge $-1 $180 $179 $386 $389 reversed $65 $-1 #
edge $-1 $290 -76.523331400494399 $387 76.523331400494399 $283 $390 forward 7 unknown #
coedge $-1 $296 $295 $180 $289 forward $297 $-1 #
edge $-1 $291 -76.523331400494399 $391 76.523331400494399 $288 $392 forward 7 unknown #
vertex $-1 $182 $393 #
vertex $-1 $289 $394 #
straight-curve $-1 76.523331400494399 19.203003587224593 7.7309250544947012 0 1 0 I I #
coedge $-1 $395 $284 $183 $294 forward $281 $-1 #
edge $-1 $301 13.11352052737282 $298 25.292486647076366 $293 $396 forward 7 unknown #
coedge $-1 $288 $184 $189 $304 forward $297 $-1 #
coedge $-1 $184 $288 $395 $397 reversed $297 $-1 #
loop $-1 $-1 $184 $280 #
vertex $-1 $397 $398 #
straight-curve $-1 0 44.495490234300959 13.202627404953294 1 0 0 I I #
coedge $-1 $186 $283 $188 $303 reversed $103 $-1 #
vertex $-1 $294 $399 #
straight-curve $-1 0 32.316524114597414 13.202627404953294 1 0 0 I I #
edge $-1 $191 -7.9692392900912949 $290 -2.4975369396327025 $188 $400 forward 7 unknown #
edge $-1 $190 -13.202627404953294 $291 -7.7309250544947012 $189 $401 forward 7 unknown #
point $-1 76.523331400494399 44.495490234300959 13.202627404953294 #
point $-1 76.523331400494399 32.316524114597414 13.202627404953294 #
loop $-1 $-1 $201 $193 #
plane-surface $-1 76.523331400494399 0 0 -1 0 0 0 0 1 forward_v I I I I #
coedge $-1 $310 $196 $198 $314 reversed $111 $-1 #
coedge $-1 $196 $309 $402 $403 reversed $111 $-1 #
coedge $-1 $204 $199 $196 $312 forward $194 $-1 #
edge $-1 $315 26.282073653039454 $404 32.597849744785357 $311 $405 forward 7 unknown #
coedge $-1 $198 $197 $318 $406 reversed $69 $-1 #
edge $-1 $407 -153.04666280098871 $315 -143.60788340794289 $309 $408 forward 7 unknown #
vertex $-1 $200 $409 #
straight-curve $-1 70.207555308748525 4.35274115219935 17.749853570683754 0 -1 0 I I #
coedge $-1 $402 $201 $204 $322 reversed $307 $-1 #
coedge $-1 $201 $402 $313 $406 forward $307 $-1 #
vertex $-1 $202 $410 #
straight-curve $-1 76.523331400494399 14.839411503248229 113.43975754296352 0 0 1 I I #
straight-curve $-1 -25.884873473129929 14.839411503248229 124.47131021230268 0.66913059716165679 0 -0.74314483375859142 I I #
edge $-1 $404 2.5715531055491709 $205 14.839411503248229 $317 $411 forward 7 unknown #
point $-1 76.523331400494399 14.839411503248229 17.749853570683758 #
point $-1 70.207555308748496 14.839411503248229 17.749853570683769 #
edge $-1 $412 1 $412 0 $208 $-1 forward 7 unknown #
vertex $-1 $209 $413 #
ellipse-curve $-1 70.777205092168941 8.7054823043987 11.912203358102117 0.74314483375859142 0 0.66913059716165679 1.0036958957424851 0 -1.1147172506378871 1 I I #
point $-1 74.369139250363929 8.7054823043987 13.127946248581329 #
plane-surface $-1 0 0 17.749853570683758 0 0 1 1 0 0 forward_v I I I I #
coedge $-1 $340 $339 $332 $414 forward $213 $-1 #
coedge $-1 $332 $215 $217 $336 reversed $126 $-1 #
coedge $-1 $215 $331 $330 $414 reversed $126 $-1 #
coedge $-1 $223 $218 $215 $334 forward $224 $-1 #
edge $-1 $337 -24.922028783772703 $415 -18.606252692026814 $333 $416 forward 7 unknown #
coedge $-1 $217 $216 $340 $417 reversed $78 $-1 #
edge $-1 $418 2.1389731374768986e-014 $337 9.4387793930458415 $331 $419 forward 7 unknown #
vertex $-1 $219 $420 #
straight-curve $-1 -70.20755530874851 4.35274115219935 17.749853570683754 0 1 0 I I #
coedge $-1 $330 $220 $223 $344 reversed $213 $-1 #
coedge $-1 $220 $330 $335 $417 forward $213 $-1 #
vertex $-1 $221 $421 #
straight-curve $-1 -76.523331400494399 2.5715531055491709 56.57183915068952 0 0 1 I I #
straight-curve $-1 -76.523331400494413 2.5715531055491709 10.735473427754684 -0.66913059716165679 0 -0.74314483375859142 I I #
edge $-1 $415 -14.839411503248229 $225 -2.5715531055491709 $339 $422 forward 7 unknown #
point $-1 -76.523331400494399 2.5715531055491709 17.749853570683758 #
point $-1 -70.20755530874851 2.5715531055491709 17.749853570683758 #
edge $-1 $423 1 $423 0 $228 $-1 forward 7 unknown #
vertex $-1 $229 $424 #
ellipse-curve $-1 -70.777205092168927 8.7054823043987 11.91220335810211 -0.74314483375859142 0 0.66913059716165679 1.0036958957424851 0 1.1147172506378871 1 I I #
point $-1 -72.361747458878952 8.7054823043987 15.357380749857096 #
plane-surface $-1 76.523331400494399 0 0 -1 0 0 0 0 1 forward_v I I I I #
coedge $-1 $237 $235 $239 $356 reversed $141 $-1 #
edge $-1 $250 -17.749853570683758 $358 17.749853570683758 $249 $425 forward 7 unknown #
vertex $-1 $356 $426 #
straight-curve $-1 -76.523331400494399 -44.495490234300959 0 0 0 -1 I I #
edge $-1 $354 -44.495490234300959 $358 44.495490234300959 $352 $427 forward 7 unknown #
straight-curve $-1 0 -44.495490234300959 -17.749853570683758 -1 0 0 I I #
vertex $-1 $242 $428 #
straight-curve $-1 0 44.495490234300959 -17.749853570683758 1 0 0 I I #
point $-1 76.523331400494399 44.495490234300959 -17.749853570683758 #
point $-1 76.523331400494399 -44.495490234300959 -17.749853570683758 #
straight-curve $-1 -76.523331400494399 0 17.749853570683758 0 -1 0 I I #
point $-1 -76.523331400494399 44.495490234300959 17.749853570683758 #
point $-1 -76.523331400494399 -44.495490234300959 17.749853570683758 #
straight-curve $-1 76.523331400494399 -44.495490234300959 0 0 0 -1 I I #
straight-curve $-1 76.523331400494399 44.495490234300959 0 0 0 -1 I I #
plane-surface $-1 76.523331400494399 0 0 -1 0 0 0 0 1 forward_v I I I I #
coedge $-1 $379 $370 $369 $429 forward $260 $-1 #
coedge $-1 $263 $262 $368 $429 reversed $95 $-1 #
coedge $-1 $368 $430 $264 $371 reversed $260 $-1 #
edge $-1 $372 -76.523331400494399 $375 76.523331400494399 $370 $431 forward 7 unknown #
vertex $-1 $265 $432 #
straight-curve $-1 -76.523331400494399 0 17.749853570683758 0 -1 0 I I #
coedge $-1 $272 $266 $430 $433 forward $273 $-1 #
vertex $-1 $267 $434 #
straight-curve $-1 76.523331400494399 0 17.749853570683758 0 1 0 I I #
point $-1 76.523331400494399 -44.495490234300959 17.749853570683758 #
point $-1 -76.523331400494399 -44.495490234300959 17.749853570683758 #
coedge $-1 $430 $368 $275 $380 reversed $260 $-1 #
edge $-1 $381 -76.523331400494399 $383 76.523331400494399 $379 $435 forward 7 unknown #
vertex $-1 $433 $436 #
straight-curve $-1 76.523331400494399 -53.534167232841547 8.8808313052527801 0 -1 0 I I #
vertex $-1 $277 $437 #
straight-curve $-1 -76.523331400494399 -53.534167232841547 8.8808313052527801 0 1 0 I I #
plane-surface $-1 0 44.495490234300959 0 0 -1 0 0 0 -1 forward_v I I I I #
coedge $-1 $284 $395 $286 $389 forward $281 $-1 #
vertex $-1 $389 $438 #
straight-curve $-1 -76.523331400494399 32.316524114597414 5.2333881148619987 0 0 1 I I #
edge $-1 $391 -25.292486647076366 $387 -13.11352052737282 $386 $439 forward 7 unknown #
straight-curve $-1 0 32.316524114597414 7.7309250544947012 -1 0 0 I I #
vertex $-1 $289 $440 #
straight-curve $-1 0 44.495490234300959 7.7309250544947012 -1 0 0 I I #
point $-1 76.523331400494399 32.316524114597414 7.7309250544947012 #
point $-1 76.523331400494399 44.495490234300959 7.7309250544947012 #
coedge $-1 $386 $293 $296 $397 forward $281 $-1 #
straight-curve $-1 -76.523331400494399 19.203003587224593 13.202627404953294 0 1 0 I I #
edge $-1 $298 -13.202627404953294 $391 -7.7309250544947012 $296 $441 forward 7 unknown #
point $-1 -76.523331400494399 44.495490234300959 13.202627404953294 #
point $-1 -76.523331400494399 32.316524114597414 13.202627404953294 #
straight-curve $-1 76.523331400494399 32.316524114597414 5.2333881148619987 0 0 -1 I I #
straight-curve $-1 76.523331400494399 44.495490234300959 0 0 0 -1 I I #
coedge $-1 $318 $317 $310 $403 forward $307 $-1 #
edge $-1 $404 95.689903972279765 $407 102.70428411520881 $402 $442 forward 7 unknown #
vertex $-1 $322 $443 #
straight-curve $-1 43.925481655709042 2.5715531055491709 17.749853570683754 1 0 0 I I #
edge $-1 $407 -1.781188046650179 $319 10.486670351048879 $318 $444 forward 7 unknown #
vertex $-1 $406 $445 #
straight-curve $-1 -25.884873473129929 2.5715531055491709 124.47131021230268 -0.66913059716165679 0 0.74314483375859142 I I #
point $-1 70.207555308748496 2.5715531055491709 17.749853570683769 #
point $-1 76.523331400494399 14.839411503248229 10.735473427754712 #
straight-curve $-1 76.523331400494399 0 17.749853570683758 0 1 0 I I #
vertex $-1 $325 $446 #
point $-1 71.780900987911423 8.7054823043987 10.797486107464231 #
edge $-1 $415 38.821985580005759 $418 45.836365722934822 $330 $447 forward 7 unknown #
vertex $-1 $344 $448 #
straight-curve $-1 -95.129584092521213 14.839411503248229 17.749853570683754 -1 0 0 I I #
edge $-1 $418 -10.486670351048879 $341 1.781188046650179 $340 $449 forward 7 unknown #
vertex $-1 $417 $450 #
straight-curve $-1 -76.523331400494413 14.839411503248229 10.735473427754684 0.66913059716165679 0 0.74314483375859142 I I #
point $-1 -70.20755530874851 14.839411503248229 17.749853570683758 #
point $-1 -76.523331400494399 2.5715531055491709 10.7354734277547 #
straight-curve $-1 -76.523331400494399 0 17.749853570683758 0 -1 0 I I #
vertex $-1 $347 $451 #
point $-1 -69.773509196426446 8.7054823043987 13.026920608739996 #
straight-curve $-1 -76.523331400494399 44.495490234300959 0 0 0 -1 I I #
point $-1 -76.523331400494399 -44.495490234300959 -17.749853570683758 #
straight-curve $-1 -76.523331400494399 0 -17.749853570683758 0 1 0 I I #
point $-1 -76.523331400494399 44.495490234300959 -17.749853570683758 #
edge $-1 $372 -4.4345111327154889 $383 4.4345111327154889 $369 $452 forward 7 unknown #
coedge $-1 $370 $379 $374 $433 reversed $260 $-1 #
straight-curve $-1 0 -62.572844231382135 17.749853570683758 1 0 0 I I #
point $-1 -76.523331400494399 -62.572844231382135 17.749853570683758 #
edge $-1 $375 -4.4345111327154889 $381 4.4345111327154889 $374 $453 forward 7 unknown #
point $-1 76.523331400494399 -62.572844231382135 17.749853570683758 #
straight-curve $-1 0 -62.572844231382135 8.8808313052527801 -1 0 0 I I #
point $-1 76.523331400494399 -62.572844231382135 8.8808313052527801 #
point $-1 -76.523331400494399 -62.572844231382135 8.8808313052527801 #
point $-1 -76.523331400494399 32.316524114597414 7.7309250544947012 #
straight-curve $-1 -76.523331400494399 19.203003587224593 7.7309250544947012 0 -1 0 I I #
point $-1 -76.523331400494399 44.495490234300959 7.7309250544947012 #
straight-curve $-1 -76.523331400494399 44.495490234300959 0 0 0 -1 I I #
straight-curve $-1 76.523331400494399 2.5715531055491709 113.43975754296352 0 0 -1 I I #
point $-1 76.523331400494399 2.5715531055491709 17.749853570683758 #
straight-curve $-1 76.523331400494399 4.35274115219935 10.735473427754691 0 1 0 I I #
point $-1 76.523331400494399 2.5715531055491709 10.735473427754712 #
point $-1 69.66248784153106 8.7054823043987 10.908507462359632 #
straight-curve $-1 -76.523331400494399 14.839411503248229 56.57183915068952 0 0 -1 I I #
point $-1 -76.523331400494399 14.839411503248229 17.749853570683758 #
straight-curve $-1 -76.523331400494399 4.35274115219935 10.735473427754707 0 -1 0 I I #
point $-1 -76.523331400494399 14.839411503248229 10.7354734277547 #
point $-1 -69.662487841531046 8.7054823043987 10.908507462359625 #
straight-curve $-1 -76.523331400494399 -62.572844231382135 13.315342437968269 0 0 -1 I I #
straight-curve $-1 76.523331400494399 -62.572844231382135 13.315342437968269 0 0 -1 I I #
End-of-ACIS-data 