500 0 11 0           
7 Unknown 11 ACIS 5.0 NT 24 Thu Mar 25 23:11:51 1999 
-1 9.9999999999999995e-007 1e-010 
body $-1 $11 $-1 $12 #
body $-1 $13 $-1 $14 #
body $-1 $15 $-1 $16 #
body $-1 $17 $-1 $18 #
body $-1 $19 $-1 $20 #
body $-1 $21 $-1 $22 #
body $-1 $23 $-1 $24 #
body $-1 $25 $-1 $26 #
body $-1 $27 $-1 $28 #
body $-1 $29 $-1 $30 #
body $-1 $31 $-1 $32 #
lump $-1 $-1 $33 $0 #
transform $-1 1 0 0 0 1 0 0 0 1 69.070711386455883 43.897538912680595 15.477677131442654 1 rotate no_reflect no_shear #
lump $-1 $-1 $34 $1 #
transform $-1 1 0 0 0 1 0 0 0 1 69.070711386455883 43.897538912680595 15.477677131442654 1 rotate no_reflect no_shear #
lump $-1 $-1 $35 $2 #
transform $-1 1 0 0 0 1 0 0 0 1 69.070711386455883 43.897538912680595 15.477677131442654 1 rotate no_reflect no_shear #
lump $-1 $-1 $36 $3 #
transform $-1 1 0 0 0 1 0 0 0 1 69.070711386455883 43.897538912680595 15.477677131442654 1 rotate no_reflect no_shear #
lump $-1 $-1 $37 $4 #
transform $-1 1 0 0 0 1 0 0 0 1 69.070711386455883 43.897538912680595 15.477677131442654 1 rotate no_reflect no_shear #
lump $-1 $-1 $38 $5 #
transform $-1 1 0 0 0 1 0 0 0 1 69.070711386455883 43.897538912680595 15.477677131442654 1 rotate no_reflect no_shear #
lump $-1 $-1 $39 $6 #
transform $-1 1 0 0 0 1 0 0 0 1 69.070711386455883 43.897538912680595 15.477677131442654 1 rotate no_reflect no_shear #
lump $-1 $-1 $40 $7 #
transform $-1 1 0 0 0 1 0 0 0 1 69.070711386455883 43.897538912680595 15.477677131442654 1 rotate no_reflect no_shear #
lump $-1 $-1 $41 $8 #
transform $-1 1 0 0 0 1 0 0 0 1 69.070711386455883 43.897538912680595 15.477677131442654 1 rotate no_reflect no_shear #
lump $-1 $-1 $42 $9 #
transform $-1 1 0 0 0 1 0 0 0 1 69.070711386455883 43.897538912680595 15.477677131442654 1 rotate no_reflect no_shear #
lump $-1 $-1 $43 $10 #
transform $-1 1 0 0 0 1 0 0 0 1 69.070711386455883 43.897538912680595 15.477677131442654 1 rotate no_reflect no_shear #
shell $-1 $-1 $-1 $44 $-1 $11 #
shell $-1 $-1 $-1 $45 $-1 $13 #
shell $-1 $-1 $-1 $46 $-1 $15 #
shell $-1 $-1 $-1 $47 $-1 $17 #
shell $-1 $-1 $-1 $48 $-1 $19 #
shell $-1 $-1 $-1 $49 $-1 $21 #
shell $-1 $-1 $-1 $50 $-1 $23 #
shell $-1 $-1 $-1 $51 $-1 $25 #
shell $-1 $-1 $-1 $52 $-1 $27 #
shell $-1 $-1 $-1 $53 $-1 $29 #
shell $-1 $-1 $-1 $54 $-1 $31 #
face $-1 $55 $56 $33 $-1 $57 forward single #
face $-1 $58 $59 $34 $-1 $60 forward single #
face $-1 $61 $62 $35 $-1 $63 reversed single #
face $-1 $64 $65 $36 $-1 $66 forward single #
face $-1 $67 $68 $37 $-1 $69 forward single #
face $-1 $70 $71 $38 $-1 $72 reversed single #
face $-1 $73 $74 $39 $-1 $75 forward single #
face $-1 $76 $77 $40 $-1 $78 forward single #
face $-1 $79 $80 $41 $-1 $81 reversed single #
face $-1 $82 $83 $42 $-1 $84 forward single #
face $-1 $85 $86 $43 $-1 $87 forward single #
face $-1 $88 $89 $33 $-1 $90 reversed single #
loop $-1 $-1 $91 $44 #
plane-surface $-1 0 0 15.477677131442654 0 0 1 1 0 0 forward_v I I I I #
face $-1 $92 $93 $34 $-1 $94 reversed single #
loop $-1 $-1 $95 $45 #
plane-surface $-1 -63.665663930301356 0 14.020273311868406 0 0 1 1 0 0 forward_v I I I I #
face $-1 $96 $97 $35 $-1 $98 reversed single #
loop $-1 $-1 $99 $46 #
plane-surface $-1 -47.036541749572265 51.214687895677166 165.19458354269193 1 0 0 0 -0.57357644374324357 -0.81915203911291934 forward_v I I I I #
face $-1 $100 $101 $36 $-1 $102 forward single #
loop $-1 $103 $104 $47 #
cone-surface $-1 -41.171736364728972 32.358228887071498 6.1706582346283589 0 -0.57357644374324357 -0.81915203911291934 2.5 0 0 1 I I 0 1 2.5 forward I I I I #
face $-1 $105 $106 $37 $-1 $107 forward single #
loop $-1 $108 $109 $48 #
cone-surface $-1 -32.374528287464017 32.358228887071498 6.1706582346283589 0 -0.57357644374324357 -0.81915203911291934 2.5 0 0 1 I I 0 1 2.5 forward I I I I #
face $-1 $110 $111 $38 $-1 $112 reversed single #
loop $-1 $-1 $113 $49 #
plane-surface $-1 -1.9467626725413112 -159.75268551215603 78.175463123555858 -1 0 0 0 -0.83867057594974714 0.54463902268945019 forward_v I I I I #
face $-1 $114 $115 $39 $-1 $116 forward single #
loop $-1 $117 $118 $50 #
cone-surface $-1 -11.4802773418388 -39.138894687517187 8.7617925464657613 0 0.83867057594974714 -0.54463902268945019 1 0 0 1 I I 0 1 1 forward I I I I #
face $-1 $119 $120 $40 $-1 $121 forward single #
loop $-1 $122 $123 $51 #
cone-surface $-1 -5.7601685402603096 -39.138894687517187 8.7617925464657613 0 0.83867057594974714 -0.54463902268945019 1 0 0 1 I I 0 1 1 forward I I I I #
face $-1 $124 $125 $41 $-1 $126 reversed single #
loop $-1 $-1 $127 $52 #
plane-surface $-1 26.10377812186686 -159.75268551215603 78.175463123555858 -1 0 0 0 -0.83867057594974714 0.54463902268945019 forward_v I I I I #
face $-1 $128 $129 $42 $-1 $130 forward single #
loop $-1 $131 $132 $53 #
cone-surface $-1 16.570263452569364 -39.138894687517187 8.7617925464657613 0 0.83867057594974714 -0.54463902268945019 1 0 0 1 I I 0 1 1 forward I I I I #
face $-1 $133 $134 $43 $-1 $135 forward single #
loop $-1 $136 $137 $54 #
cone-surface $-1 22.290372254147854 -39.138894687517187 8.7617925464657613 0 0.83867057594974714 -0.54463902268945019 1 0 0 1 I I 0 1 1 forward I I I I #
face $-1 $138 $139 $33 $-1 $140 reversed single #
loop $-1 $-1 $141 $55 #
plane-surface $-1 0 0 -15.477677131442654 0 0 1 1 0 0 forward_v I I I I #
coedge $-1 $142 $143 $144 $145 forward $56 $-1 #
face $-1 $146 $147 $34 $-1 $148 reversed single #
loop $-1 $-1 $149 $58 #
plane-surface $-1 -63.665663930301356 0 10.748832646658117 0 0 1 1 0 0 forward_v I I I I #
coedge $-1 $150 $151 $152 $153 forward $59 $-1 #
face $-1 $154 $155 $35 $-1 $156 reversed single #
loop $-1 $-1 $157 $61 #
plane-surface $-1 -36.773132326096487 -28.019978112041493 52.035755392301382 0 0.57357644374324357 0.81915203911291934 1 0 0 forward_v I I I I #
coedge $-1 $158 $159 $160 $161 reversed $62 $-1 #
face $-1 $-1 $162 $36 $-1 $163 forward single #
loop $-1 $164 $165 $64 #
cone-surface $-1 -41.171736364728972 29.955534021255353 2.7392544171095352 0 -0.57357644374324357 -0.81915203911291934 1.25 0 0 1 I I -0.70710678118654746 0.70710678118654746 1.25 forward I I I I #
loop $-1 $-1 $166 $47 #
coedge $-1 $104 $104 $167 $168 reversed $65 $-1 #
face $-1 $-1 $169 $37 $-1 $170 forward single #
loop $-1 $171 $172 $67 #
cone-surface $-1 -32.374528287464017 29.955534021255353 2.7392544171095352 0 -0.57357644374324357 -0.81915203911291934 1.25 0 0 1 I I -0.70710678118654746 0.70710678118654746 1.25 forward I I I I #
loop $-1 $-1 $173 $48 #
coedge $-1 $109 $109 $174 $175 reversed $68 $-1 #
face $-1 $176 $177 $38 $-1 $178 reversed single #
loop $-1 $-1 $179 $70 #
plane-surface $-1 -8.6202229410495548 -43.897538912680602 2.9382536315870311 0 -0.83867057594974714 0.54463902268945019 1 0 0 forward_v I I I I #
coedge $-1 $180 $181 $182 $183 reversed $71 $-1 #
face $-1 $-1 $184 $39 $-1 $185 forward single #
loop $-1 $186 $187 $73 #
cone-surface $-1 -11.4802773418388 -38.032513460938866 8.0433002000719647 0 0.83867057594974714 -0.54463902268945019 0.5 0 0 1 I I -0.70710678118654746 0.70710678118654746 0.5 forward I I I I #
loop $-1 $-1 $188 $50 #
coedge $-1 $118 $118 $189 $190 reversed $74 $-1 #
face $-1 $-1 $191 $40 $-1 $192 forward single #
loop $-1 $193 $194 $76 #
cone-surface $-1 -5.7601685402603096 -38.032513460938866 8.0433002000719647 0 0.83867057594974714 -0.54463902268945019 0.5 0 0 1 I I -0.70710678118654746 0.70710678118654746 0.5 forward I I I I #
loop $-1 $-1 $195 $51 #
coedge $-1 $123 $123 $196 $197 reversed $77 $-1 #
face $-1 $198 $199 $41 $-1 $200 reversed single #
loop $-1 $-1 $201 $79 #
plane-surface $-1 19.430317853358616 -43.897538912680602 2.9382536315870311 0 -0.83867057594974714 0.54463902268945019 1 0 0 forward_v I I I I #
coedge $-1 $202 $203 $204 $205 reversed $80 $-1 #
face $-1 $-1 $206 $42 $-1 $207 forward single #
loop $-1 $208 $209 $82 #
cone-surface $-1 16.570263452569364 -38.032513460938866 8.0433002000719647 0 0.83867057594974714 -0.54463902268945019 0.5 0 0 1 I I -0.70710678118654746 0.70710678118654746 0.5 forward I I I I #
loop $-1 $-1 $210 $53 #
coedge $-1 $132 $132 $211 $212 reversed $83 $-1 #
face $-1 $-1 $213 $43 $-1 $214 forward single #
loop $-1 $215 $216 $85 #
cone-surface $-1 22.290372254147854 -38.032513460938866 8.0433002000719647 0 0.83867057594974714 -0.54463902268945019 0.5 0 0 1 I I -0.70710678118654746 0.70710678118654746 0.5 forward I I I I #
loop $-1 $-1 $217 $54 #
coedge $-1 $137 $137 $218 $219 reversed $86 $-1 #
face $-1 $220 $221 $33 $-1 $222 reversed single #
loop $-1 $-1 $223 $88 #
plane-surface $-1 0 -43.897538912680595 0 0 1 0 0 0 1 forward_v I I I I #
coedge $-1 $224 $225 $226 $227 forward $89 $-1 #
coedge $-1 $228 $91 $229 $230 forward $56 $-1 #
coedge $-1 $91 $228 $231 $232 forward $56 $-1 #
coedge $-1 $233 $234 $91 $145 reversed $235 $-1 #
edge $-1 $236 -43.897538912680595 $237 43.897538912680595 $144 $238 forward 7 unknown #
face $-1 $239 $240 $34 $-1 $241 reversed single #
loop $-1 $-1 $242 $92 #
plane-surface $-1 -58.260616474146829 0 12.384552979263262 -1 0 0 0 0 1 forward_v I I I I #
coedge $-1 $243 $244 $245 $246 forward $93 $-1 #
coedge $-1 $247 $95 $248 $249 reversed $59 $-1 #
coedge $-1 $95 $247 $250 $251 reversed $59 $-1 #
coedge $-1 $242 $252 $95 $153 reversed $147 $-1 #
edge $-1 $253 -43.897538912680595 $254 43.897538912680595 $152 $255 forward 7 unknown #
face $-1 $256 $257 $35 $-1 $258 forward single #
loop $-1 $-1 $259 $96 #
plane-surface $-1 -26.509722902620705 51.214687895677166 165.19458354269193 -1 0 0 0 0.57357644374324357 0.81915203911291934 forward_v I I I I #
coedge $-1 $260 $261 $262 $263 reversed $97 $-1 #
coedge $-1 $159 $99 $264 $265 reversed $62 $-1 #
coedge $-1 $99 $158 $260 $266 reversed $62 $-1 #
coedge $-1 $262 $267 $99 $161 forward $257 $-1 #
edge $-1 $268 -18.290194964842012 $269 1.4169764641019889 $160 $270 forward 7 unknown #
loop $-1 $-1 $167 $100 #
plane-surface $-1 -36.773132326096487 -28.019978112041493 52.035755392301382 0 0.57357644374324357 0.81915203911291934 1 0 0 forward_v I I I I #
loop $-1 $-1 $271 $64 #
coedge $-1 $165 $165 $166 $272 reversed $101 $-1 #
coedge $-1 $166 $166 $165 $272 forward $103 $-1 #
coedge $-1 $167 $167 $104 $168 forward $162 $-1 #
edge $-1 $273 1.1055183969844129e-015 $273 6.2831853071796013 $167 $274 forward 7 unknown #
loop $-1 $-1 $174 $105 #
plane-surface $-1 -36.773132326096487 -28.019978112041493 52.035755392301382 0 0.57357644374324357 0.81915203911291934 1 0 0 forward_v I I I I #
loop $-1 $-1 $275 $67 #
coedge $-1 $172 $172 $173 $276 reversed $106 $-1 #
coedge $-1 $173 $173 $172 $276 forward $108 $-1 #
coedge $-1 $174 $174 $109 $175 forward $169 $-1 #
edge $-1 $277 1.1055183969844129e-015 $277 6.2831853071796013 $174 $278 forward 7 unknown #
face $-1 $279 $280 $38 $-1 $281 reversed single #
loop $-1 $-1 $282 $110 #
plane-surface $-1 -15.293683209557798 -159.75268551215603 78.175463123555858 1 0 0 0 0.83867057594974714 -0.54463902268945019 forward_v I I I I #
coedge $-1 $283 $284 $285 $286 reversed $111 $-1 #
coedge $-1 $181 $113 $287 $288 reversed $71 $-1 #
coedge $-1 $113 $180 $283 $289 reversed $71 $-1 #
coedge $-1 $285 $290 $113 $183 forward $291 $-1 #
edge $-1 $292 35.978803843397422 $293 44.122000416517338 $182 $294 forward 7 unknown #
loop $-1 $-1 $189 $114 #
plane-surface $-1 -8.6202229410495548 -43.897538912680602 2.9382536315870311 0 -0.83867057594974714 0.54463902268945019 1 0 0 forward_v I I I I #
loop $-1 $-1 $295 $73 #
coedge $-1 $187 $187 $188 $296 reversed $115 $-1 #
coedge $-1 $188 $188 $187 $296 forward $117 $-1 #
coedge $-1 $189 $189 $118 $190 forward $184 $-1 #
edge $-1 $297 2.9089495570898117e-016 $297 6.2831853071796004 $189 $298 forward 7 unknown #
loop $-1 $-1 $196 $119 #
plane-surface $-1 -8.6202229410495548 -43.897538912680602 2.9382536315870311 0 -0.83867057594974714 0.54463902268945019 1 0 0 forward_v I I I I #
loop $-1 $-1 $299 $76 #
coedge $-1 $194 $194 $195 $300 reversed $120 $-1 #
coedge $-1 $195 $195 $194 $300 forward $122 $-1 #
coedge $-1 $196 $196 $123 $197 forward $191 $-1 #
edge $-1 $301 2.9089495570898117e-016 $301 6.2831853071796004 $196 $302 forward 7 unknown #
face $-1 $303 $304 $41 $-1 $305 reversed single #
loop $-1 $-1 $306 $124 #
plane-surface $-1 12.756857584850373 -159.75268551215603 78.175463123555858 1 0 0 0 0.83867057594974714 -0.54463902268945019 forward_v I I I I #
coedge $-1 $307 $308 $309 $310 reversed $125 $-1 #
coedge $-1 $203 $127 $311 $312 reversed $80 $-1 #
coedge $-1 $127 $202 $307 $313 reversed $80 $-1 #
coedge $-1 $309 $314 $127 $205 forward $315 $-1 #
edge $-1 $316 35.978803843397422 $317 44.122000416517338 $204 $318 forward 7 unknown #
loop $-1 $-1 $211 $128 #
plane-surface $-1 19.430317853358616 -43.897538912680602 2.9382536315870311 0 -0.83867057594974714 0.54463902268945019 1 0 0 forward_v I I I I #
loop $-1 $-1 $319 $82 #
coedge $-1 $209 $209 $210 $320 reversed $129 $-1 #
coedge $-1 $210 $210 $209 $320 forward $131 $-1 #
coedge $-1 $211 $211 $132 $212 forward $206 $-1 #
edge $-1 $321 2.9089495570898117e-016 $321 6.2831853071796004 $211 $322 forward 7 unknown #
loop $-1 $-1 $218 $133 #
plane-surface $-1 19.430317853358616 -43.897538912680602 2.9382536315870311 0 -0.83867057594974714 0.54463902268945019 1 0 0 forward_v I I I I #
loop $-1 $-1 $323 $85 #
coedge $-1 $216 $216 $217 $324 reversed $134 $-1 #
coedge $-1 $217 $217 $216 $324 forward $136 $-1 #
coedge $-1 $218 $218 $137 $219 forward $213 $-1 #
edge $-1 $325 2.9089495570898117e-016 $325 6.2831853071796004 $218 $326 forward 7 unknown #
face $-1 $327 $328 $33 $-1 $329 reversed single #
loop $-1 $-1 $330 $138 #
plane-surface $-1 -69.070711386455883 0 0 1 0 0 0 0 -1 forward_v I I I I #
coedge $-1 $331 $231 $332 $333 forward $139 $-1 #
coedge $-1 $334 $141 $331 $335 forward $89 $-1 #
coedge $-1 $141 $334 $336 $337 forward $89 $-1 #
coedge $-1 $234 $233 $141 $227 reversed $235 $-1 #
edge $-1 $338 -43.897538912680595 $339 43.897538912680595 $226 $340 forward 7 unknown #
coedge $-1 $143 $142 $341 $342 forward $56 $-1 #
coedge $-1 $343 $344 $142 $230 reversed $328 $-1 #
edge $-1 $237 -69.070711386455883 $345 69.070711386455883 $229 $346 forward 7 unknown #
coedge $-1 $223 $347 $143 $232 reversed $139 $-1 #
edge $-1 $348 -69.070711386455883 $236 69.070711386455883 $231 $349 forward 7 unknown #
coedge $-1 $226 $144 $347 $350 forward $235 $-1 #
coedge $-1 $144 $226 $343 $351 reversed $235 $-1 #
loop $-1 $-1 $233 $327 #
vertex $-1 $145 $352 #
vertex $-1 $145 $353 #
straight-curve $-1 69.070711386455883 0 15.477677131442654 0 1 0 I I #
face $-1 $354 $355 $34 $-1 $356 reversed single #
loop $-1 $-1 $357 $146 #
plane-surface $-1 0 -43.897538912680595 0 0 1 0 0 0 1 forward_v I I I I #
coedge $-1 $245 $152 $358 $359 reversed $147 $-1 #
coedge $-1 $360 $149 $357 $361 reversed $93 $-1 #
coedge $-1 $149 $360 $362 $363 reversed $93 $-1 #
coedge $-1 $252 $242 $149 $246 reversed $147 $-1 #
edge $-1 $364 -43.897538912680595 $365 43.897538912680595 $245 $366 forward 7 unknown #
coedge $-1 $151 $150 $367 $368 reversed $59 $-1 #
coedge $-1 $369 $370 $150 $249 forward $371 $-1 #
edge $-1 $372 -37.237879421305209 $254 -26.427784508996151 $248 $373 forward 7 unknown #
coedge $-1 $374 $358 $151 $251 forward $240 $-1 #
edge $-1 $253 26.427784508996151 $375 37.237879421305209 $250 $376 forward 7 unknown #
coedge $-1 $152 $245 $369 $377 reversed $147 $-1 #
vertex $-1 $251 $378 #
vertex $-1 $249 $379 #
straight-curve $-1 -58.260616474146829 0 14.020273311868406 0 1 0 I I #
face $-1 $-1 $380 $35 $-1 $381 reversed single #
loop $-1 $-1 $160 $154 #
plane-surface $-1 0 0 15.477677131442654 0 0 1 1 0 0 forward_v I I I I #
coedge $-1 $382 $383 $384 $385 reversed $155 $-1 #
coedge $-1 $386 $157 $159 $266 forward $97 $-1 #
coedge $-1 $157 $386 $382 $387 forward $97 $-1 #
coedge $-1 $384 $160 $157 $263 forward $257 $-1 #
edge $-1 $269 -28.649975586524022 $388 -8.1231567395724618 $262 $389 forward 7 unknown #
coedge $-1 $390 $391 $158 $265 forward $380 $-1 #
edge $-1 $392 -80.918724896276572 $268 -67.119614639903318 $264 $393 forward 7 unknown #
edge $-1 $269 63.737063576522374 $392 87.795077825361219 $159 $394 forward 7 unknown #
coedge $-1 $160 $384 $390 $395 forward $257 $-1 #
vertex $-1 $265 $396 #
vertex $-1 $161 $397 #
straight-curve $-1 -47.036541749572265 25.607343947838583 15.477677131442647 0 -1 0 I I #
coedge $-1 $271 $271 $-1 $398 reversed $164 $-1 #
edge $-1 $399 0 $399 6.2831853071796004 $165 $400 forward 7 unknown #
vertex $-1 $168 $401 #
ellipse-curve $-1 -41.171736364728972 34.043953198208584 8.5781220032560288 0 0.57357644374324357 0.81915203911291934 2.5 0 0 1 I I #
coedge $-1 $275 $275 $-1 $402 reversed $171 $-1 #
edge $-1 $403 0 $403 6.2831853071796004 $172 $404 forward 7 unknown #
vertex $-1 $175 $405 #
ellipse-curve $-1 -32.374528287464017 34.043953198208584 8.5781220032560288 0 0.57357644374324357 0.81915203911291934 2.5 0 0 1 I I #
face $-1 $-1 $291 $38 $-1 $406 forward single #
loop $-1 $-1 $407 $176 #
plane-surface $-1 0 -43.897538912680595 0 0 1 0 0 0 1 forward_v I I I I #
coedge $-1 $408 $409 $410 $411 reversed $177 $-1 #
coedge $-1 $412 $179 $181 $289 forward $111 $-1 #
coedge $-1 $179 $412 $408 $413 forward $111 $-1 #
coedge $-1 $410 $182 $179 $286 forward $291 $-1 #
edge $-1 $293 -2.3633487979834662 $414 10.983571739033021 $285 $415 forward 7 unknown #
coedge $-1 $416 $417 $180 $288 forward $280 $-1 #
edge $-1 $418 -36.149477930190884 $292 -23.610054430335275 $287 $419 forward 7 unknown #
edge $-1 $293 -14.951548151853824 $418 -1.3181006846785195e-014 $181 $420 forward 7 unknown #
coedge $-1 $182 $410 $416 $421 forward $291 $-1 #
loop $-1 $-1 $410 $279 #
vertex $-1 $288 $422 #
vertex $-1 $183 $423 #
straight-curve $-1 -1.9467626725413112 -79.876342756078017 15.477677131442654 0 1 0 I I #
coedge $-1 $295 $295 $-1 $424 reversed $186 $-1 #
edge $-1 $425 0 $425 6.2831853071796004 $187 $426 forward 7 unknown #
vertex $-1 $190 $427 #
ellipse-curve $-1 -11.4802773418388 -39.825940626120641 9.2079653815148408 0 -0.83867057594974714 0.54463902268945019 1 0 0 1 I I #
coedge $-1 $299 $299 $-1 $428 reversed $193 $-1 #
edge $-1 $429 0 $429 6.2831853071796004 $194 $430 forward 7 unknown #
vertex $-1 $197 $431 #
ellipse-curve $-1 -5.7601685402603096 -39.825940626120641 9.2079653815148408 0 -0.83867057594974714 0.54463902268945019 1 0 0 1 I I #
face $-1 $-1 $315 $41 $-1 $432 forward single #
loop $-1 $-1 $433 $198 #
plane-surface $-1 0 -43.897538912680595 0 0 1 0 0 0 1 forward_v I I I I #
coedge $-1 $434 $435 $436 $437 reversed $199 $-1 #
coedge $-1 $438 $201 $203 $313 forward $125 $-1 #
coedge $-1 $201 $438 $434 $439 forward $125 $-1 #
coedge $-1 $436 $204 $201 $310 forward $315 $-1 #
edge $-1 $317 -16.388619195187552 $440 -3.0416986581710646 $309 $441 forward 7 unknown #
coedge $-1 $442 $443 $202 $312 forward $304 $-1 #
edge $-1 $444 -36.149477930190884 $316 -23.610054430335275 $311 $445 forward 7 unknown #
edge $-1 $317 -14.951548151853824 $444 -1.3181006846785195e-014 $203 $446 forward 7 unknown #
coedge $-1 $204 $436 $442 $447 forward $315 $-1 #
loop $-1 $-1 $436 $303 #
vertex $-1 $312 $448 #
vertex $-1 $205 $449 #
straight-curve $-1 26.10377812186686 -79.876342756078017 15.477677131442654 0 1 0 I I #
coedge $-1 $319 $319 $-1 $450 reversed $208 $-1 #
edge $-1 $451 0 $451 6.2831853071796004 $209 $452 forward 7 unknown #
vertex $-1 $212 $453 #
ellipse-curve $-1 16.570263452569364 -39.825940626120641 9.2079653815148408 0 -0.83867057594974714 0.54463902268945019 1 0 0 1 I I #
coedge $-1 $323 $323 $-1 $454 reversed $215 $-1 #
edge $-1 $455 0 $455 6.2831853071796004 $216 $456 forward 7 unknown #
vertex $-1 $219 $457 #
ellipse-curve $-1 22.290372254147854 -39.825940626120641 9.2079653815148408 0 -0.83867057594974714 0.54463902268945019 1 0 0 1 I I #
face $-1 $-1 $235 $33 $-1 $458 reversed single #
loop $-1 $-1 $343 $220 #
plane-surface $-1 0 43.897538912680595 0 0 -1 0 0 0 -1 forward_v I I I I #
coedge $-1 $459 $341 $344 $460 forward $221 $-1 #
coedge $-1 $347 $223 $224 $335 reversed $139 $-1 #
coedge $-1 $341 $459 $223 $333 reversed $221 $-1 #
edge $-1 $348 -15.477677131442654 $461 15.477677131442654 $332 $462 forward 7 unknown #
coedge $-1 $225 $224 $459 $463 forward $89 $-1 #
edge $-1 $339 -69.070711386455883 $461 69.070711386455883 $331 $464 forward 7 unknown #
coedge $-1 $344 $343 $225 $337 reversed $328 $-1 #
edge $-1 $465 -69.070711386455883 $338 69.070711386455883 $336 $466 forward 7 unknown #
vertex $-1 $227 $467 #
vertex $-1 $350 $468 #
straight-curve $-1 69.070711386455883 0 -15.477677131442654 0 -1 0 I I #
coedge $-1 $330 $332 $228 $342 reversed $221 $-1 #
edge $-1 $345 -43.897538912680595 $348 43.897538912680595 $341 $469 forward 7 unknown #
coedge $-1 $336 $229 $234 $351 forward $328 $-1 #
coedge $-1 $229 $336 $330 $460 reversed $328 $-1 #
vertex $-1 $230 $470 #
straight-curve $-1 0 43.897538912680595 15.477677131442654 -1 0 0 I I #
coedge $-1 $231 $331 $233 $350 reversed $139 $-1 #
vertex $-1 $342 $471 #
straight-curve $-1 0 -43.897538912680595 15.477677131442654 1 0 0 I I #
edge $-1 $236 -15.477677131442654 $339 15.477677131442654 $233 $472 forward 7 unknown #
edge $-1 $237 -15.477677131442654 $338 15.477677131442654 $234 $473 forward 7 unknown #
point $-1 69.070711386455883 -43.897538912680595 15.477677131442654 #
point $-1 69.070711386455883 43.897538912680595 15.477677131442654 #
face $-1 $-1 $371 $34 $-1 $474 reversed single #
loop $-1 $-1 $475 $239 #
plane-surface $-1 -69.070711386455883 0 0 1 0 0 0 0 -1 forward_v I I I I #
coedge $-1 $358 $374 $243 $361 forward $240 $-1 #
coedge $-1 $250 $357 $242 $359 forward $240 $-1 #
edge $-1 $365 4.5565561570264865 $253 7.8279968222367753 $358 $476 forward 7 unknown #
coedge $-1 $244 $243 $475 $477 reversed $93 $-1 #
edge $-1 $478 -37.237879421305209 $365 -26.427784508996151 $357 $479 forward 7 unknown #
coedge $-1 $370 $369 $244 $363 forward $371 $-1 #
edge $-1 $364 26.427784508996151 $480 37.237879421305209 $362 $481 forward 7 unknown #
vertex $-1 $363 $482 #
vertex $-1 $361 $483 #
straight-curve $-1 -58.260616474146829 0 10.748832646658117 0 -1 0 I I #
coedge $-1 $484 $485 $247 $368 forward $355 $-1 #
edge $-1 $375 -43.897538912680595 $372 43.897538912680595 $367 $486 forward 7 unknown #
coedge $-1 $362 $248 $252 $377 forward $371 $-1 #
coedge $-1 $248 $362 $484 $487 reversed $371 $-1 #
loop $-1 $-1 $362 $354 #
vertex $-1 $487 $488 #
straight-curve $-1 -31.832831965150678 43.897538912680595 14.020273311868406 1 0 0 I I #
coedge $-1 $357 $250 $485 $489 forward $240 $-1 #
vertex $-1 $489 $490 #
straight-curve $-1 -31.832831965150678 -43.897538912680595 14.020273311868406 -1 0 0 I I #
edge $-1 $254 -7.8279968222367753 $364 -4.5565561570264865 $369 $491 forward 7 unknown #
point $-1 -58.260616474146829 -43.897538912680595 14.020273311868406 #
point $-1 -58.260616474146829 43.897538912680595 14.020273311868406 #
loop $-1 $-1 $264 $256 #
plane-surface $-1 0 43.897538912680595 0 0 -1 0 0 0 -1 forward_v I I I I #
coedge $-1 $383 $259 $261 $387 reversed $155 $-1 #
coedge $-1 $259 $382 $492 $493 reversed $155 $-1 #
coedge $-1 $267 $262 $259 $385 forward $257 $-1 #
edge $-1 $388 -1.4169764641019889 $494 18.290194964842012 $384 $495 forward 7 unknown #
coedge $-1 $261 $260 $391 $496 reversed $97 $-1 #
edge $-1 $497 -87.795077825361219 $388 -63.737063576522374 $382 $498 forward 7 unknown #
vertex $-1 $263 $499 #
straight-curve $-1 -18.386566163048244 24.190367483736587 15.477677131442658 1 0 0 I I #
coedge $-1 $492 $264 $267 $395 reversed $380 $-1 #
coedge $-1 $264 $492 $386 $496 forward $380 $-1 #
vertex $-1 $265 $500 #
straight-curve $-1 -47.036541749572265 43.897538912680595 82.597291771345965 0 0 1 I I #
straight-curve $-1 -47.036541749572265 -28.019978112041493 52.035755392301382 0 0.81915203911291934 -0.57357644374324357 I I #
edge $-1 $494 26.509722902620705 $268 47.036541749572265 $390 $501 forward 7 unknown #
point $-1 -47.036541749572265 43.897538912680595 15.477677131442654 #
point $-1 -47.036541749572265 24.190367483736594 15.477677131442654 #
edge $-1 $502 1 $502 0 $271 $-1 forward 7 unknown #
vertex $-1 $272 $503 #
ellipse-curve $-1 -41.171736364728972 30.672504575934408 3.7631944660006846 0 0.57357644374324357 0.81915203911291934 2.5 0 0 1 I I #
point $-1 -38.671736364728972 34.043953198208591 8.5781220032560341 #
edge $-1 $504 1 $504 0 $275 $-1 forward 7 unknown #
vertex $-1 $276 $505 #
ellipse-curve $-1 -32.374528287464017 30.672504575934408 3.7631944660006846 0 0.57357644374324357 0.81915203911291934 2.5 0 0 1 I I #
point $-1 -29.874528287464017 34.043953198208591 8.5781220032560341 #
plane-surface $-1 0 0 15.477677131442654 0 0 1 1 0 0 forward_v I I I I #
coedge $-1 $417 $416 $409 $506 forward $280 $-1 #
coedge $-1 $409 $282 $284 $413 reversed $177 $-1 #
coedge $-1 $282 $408 $407 $506 reversed $177 $-1 #
coedge $-1 $290 $285 $282 $411 forward $291 $-1 #
edge $-1 $414 -44.122000416517338 $507 -35.978803843397422 $410 $508 forward 7 unknown #
coedge $-1 $284 $283 $417 $509 reversed $111 $-1 #
edge $-1 $510 1.3181006846785195e-014 $414 14.951548151853824 $408 $511 forward 7 unknown #
vertex $-1 $286 $512 #
straight-curve $-1 -4.3101114705247774 -35.754342339560679 15.477677131442654 -1 0 0 I I #
coedge $-1 $407 $287 $290 $421 reversed $280 $-1 #
coedge $-1 $287 $407 $412 $509 forward $280 $-1 #
vertex $-1 $288 $513 #
straight-curve $-1 -1.9467626725413112 -43.897538912680595 39.087731561777929 0 0 1 I I #
straight-curve $-1 -1.9467626725413112 -43.897538912680602 2.9382536315870311 0 -0.54463902268945019 -0.83867057594974714 I I #
edge $-1 $507 -15.293683209557798 $292 -1.9467626725413112 $416 $514 forward 7 unknown #
point $-1 -1.9467626725413112 -43.897538912680595 15.477677131442654 #
point $-1 -1.9467626725413112 -35.754342339560679 15.477677131442654 #
edge $-1 $515 1 $515 0 $295 $-1 forward 7 unknown #
vertex $-1 $296 $516 #
ellipse-curve $-1 -11.4802773418388 -38.45184874891374 8.315619711416689 0 -0.83867057594974714 0.54463902268945019 1 0 0 1 I I #
point $-1 -10.4802773418388 -39.825940626120627 9.2079653815148319 #
edge $-1 $517 1 $517 0 $299 $-1 forward 7 unknown #
vertex $-1 $300 $518 #
ellipse-curve $-1 -5.7601685402603096 -38.45184874891374 8.315619711416689 0 -0.83867057594974714 0.54463902268945019 1 0 0 1 I I #
point $-1 -4.7601685402603096 -39.825940626120627 9.2079653815148319 #
plane-surface $-1 0 0 15.477677131442654 0 0 1 1 0 0 forward_v I I I I #
coedge $-1 $443 $442 $435 $519 forward $304 $-1 #
coedge $-1 $435 $306 $308 $439 reversed $199 $-1 #
coedge $-1 $306 $434 $433 $519 reversed $199 $-1 #
coedge $-1 $314 $309 $306 $437 forward $315 $-1 #
edge $-1 $440 -44.122000416517338 $520 -35.978803843397422 $436 $521 forward 7 unknown #
coedge $-1 $308 $307 $443 $522 reversed $125 $-1 #
edge $-1 $523 1.3181006846785195e-014 $440 14.951548151853824 $434 $524 forward 7 unknown #
vertex $-1 $310 $525 #
straight-curve $-1 9.7151589266793081 -35.754342339560679 15.477677131442654 -1 0 0 I I #
coedge $-1 $433 $311 $314 $447 reversed $304 $-1 #
coedge $-1 $311 $433 $438 $522 forward $304 $-1 #
vertex $-1 $312 $526 #
straight-curve $-1 26.10377812186686 -43.897538912680595 39.087731561777929 0 0 1 I I #
straight-curve $-1 26.10377812186686 -43.897538912680602 2.9382536315870311 0 -0.54463902268945019 -0.83867057594974714 I I #
edge $-1 $520 12.756857584850373 $316 26.10377812186686 $442 $527 forward 7 unknown #
point $-1 26.10377812186686 -43.897538912680595 15.477677131442654 #
point $-1 26.10377812186686 -35.754342339560679 15.477677131442654 #
edge $-1 $528 1 $528 0 $319 $-1 forward 7 unknown #
vertex $-1 $320 $529 #
ellipse-curve $-1 16.570263452569364 -38.45184874891374 8.315619711416689 0 -0.83867057594974714 0.54463902268945019 1 0 0 1 I I #
point $-1 17.570263452569364 -39.825940626120627 9.2079653815148319 #
edge $-1 $530 1 $530 0 $323 $-1 forward 7 unknown #
vertex $-1 $324 $531 #
ellipse-curve $-1 22.290372254147854 -38.45184874891374 8.315619711416689 0 -0.83867057594974714 0.54463902268945019 1 0 0 1 I I #
point $-1 23.290372254147854 -39.825940626120627 9.2079653815148319 #
plane-surface $-1 69.070711386455883 0 0 -1 0 0 0 0 1 forward_v I I I I #
coedge $-1 $332 $330 $334 $463 reversed $221 $-1 #
edge $-1 $345 -15.477677131442654 $465 15.477677131442654 $344 $532 forward 7 unknown #
vertex $-1 $463 $533 #
straight-curve $-1 -69.070711386455883 -43.897538912680595 0 0 0 -1 I I #
edge $-1 $461 -43.897538912680595 $465 43.897538912680595 $459 $534 forward 7 unknown #
straight-curve $-1 0 -43.897538912680595 -15.477677131442654 -1 0 0 I I #
vertex $-1 $337 $535 #
straight-curve $-1 0 43.897538912680595 -15.477677131442654 1 0 0 I I #
point $-1 69.070711386455883 43.897538912680595 -15.477677131442654 #
point $-1 69.070711386455883 -43.897538912680595 -15.477677131442654 #
straight-curve $-1 -69.070711386455883 0 15.477677131442654 0 -1 0 I I #
point $-1 -69.070711386455883 43.897538912680595 15.477677131442654 #
point $-1 -69.070711386455883 -43.897538912680595 15.477677131442654 #
straight-curve $-1 69.070711386455883 -43.897538912680595 0 0 0 -1 I I #
straight-curve $-1 69.070711386455883 43.897538912680595 0 0 0 -1 I I #
plane-surface $-1 0 43.897538912680595 0 0 -1 0 0 0 -1 forward_v I I I I #
coedge $-1 $485 $484 $360 $477 forward $355 $-1 #
straight-curve $-1 -58.260616474146829 -43.897538912680595 6.1922764896316309 0 0 1 I I #
edge $-1 $480 -43.897538912680595 $478 43.897538912680595 $475 $536 forward 7 unknown #
vertex $-1 $361 $537 #
straight-curve $-1 -31.832831965150678 -43.897538912680595 10.748832646658117 1 0 0 I I #
vertex $-1 $363 $538 #
straight-curve $-1 -31.832831965150678 43.897538912680595 10.748832646658117 -1 0 0 I I #
point $-1 -58.260616474146829 43.897538912680595 10.748832646658117 #
point $-1 -58.260616474146829 -43.897538912680595 10.748832646658117 #
coedge $-1 $475 $367 $370 $487 forward $355 $-1 #
coedge $-1 $367 $475 $374 $489 reversed $355 $-1 #
straight-curve $-1 -69.070711386455883 0 14.020273311868406 0 1 0 I I #
edge $-1 $372 -14.020273311868406 $480 -10.748832646658117 $370 $539 forward 7 unknown #
point $-1 -69.070711386455883 43.897538912680595 14.020273311868406 #
edge $-1 $375 -14.020273311868406 $478 -10.748832646658117 $485 $540 forward 7 unknown #
point $-1 -69.070711386455883 -43.897538912680595 14.020273311868406 #
straight-curve $-1 -58.260616474146829 43.897538912680595 6.1922764896316309 0 0 -1 I I #
coedge $-1 $391 $390 $383 $493 forward $380 $-1 #
edge $-1 $494 67.119614639903318 $497 80.918724896276572 $492 $541 forward 7 unknown #
vertex $-1 $395 $542 #
straight-curve $-1 -26.509722902620705 25.607343947838583 15.477677131442647 0 1 0 I I #
edge $-1 $497 8.1231567395724618 $392 28.649975586524022 $391 $543 forward 7 unknown #
vertex $-1 $496 $544 #
straight-curve $-1 -26.509722902620705 -28.019978112041493 52.035755392301382 0 -0.81915203911291934 0.57357644374324357 I I #
point $-1 -26.509722902620705 24.190367483736594 15.477677131442654 #
point $-1 -47.036541749572265 43.897538912680595 1.6785668750693929 #
straight-curve $-1 0 43.897538912680595 15.477677131442654 -1 0 0 I I #
vertex $-1 $398 $545 #
point $-1 -38.671736364728972 30.672504575934408 3.7631944660006846 #
vertex $-1 $402 $546 #
point $-1 -29.874528287464017 30.672504575934408 3.7631944660006846 #
edge $-1 $507 23.610054430335275 $510 36.149477930190884 $407 $547 forward 7 unknown #
vertex $-1 $421 $548 #
straight-curve $-1 -15.293683209557798 -79.876342756078017 15.477677131442654 0 -1 0 I I #
edge $-1 $510 -10.983571739033021 $418 2.3633487979834662 $417 $549 forward 7 unknown #
vertex $-1 $509 $550 #
straight-curve $-1 -15.293683209557798 -43.897538912680602 2.9382536315870311 0 0.54463902268945019 0.83867057594974714 I I #
point $-1 -15.293683209557798 -35.754342339560679 15.477677131442654 #
point $-1 -1.9467626725413112 -43.897538912680595 2.9382536315870422 #
straight-curve $-1 0 -43.897538912680595 15.477677131442654 1 0 0 I I #
vertex $-1 $424 $551 #
point $-1 -10.4802773418388 -38.45184874891374 8.315619711416689 #
vertex $-1 $428 $552 #
point $-1 -4.7601685402603096 -38.45184874891374 8.315619711416689 #
edge $-1 $520 23.610054430335275 $523 36.149477930190884 $433 $553 forward 7 unknown #
vertex $-1 $447 $554 #
straight-curve $-1 12.756857584850373 -79.876342756078017 15.477677131442654 0 -1 0 I I #
edge $-1 $523 3.0416986581710646 $444 16.388619195187552 $443 $555 forward 7 unknown #
vertex $-1 $522 $556 #
straight-curve $-1 12.756857584850373 -43.897538912680602 2.9382536315870311 0 0.54463902268945019 0.83867057594974714 I I #
point $-1 12.756857584850373 -35.754342339560679 15.477677131442654 #
point $-1 26.10377812186686 -43.897538912680595 2.9382536315870422 #
straight-curve $-1 0 -43.897538912680595 15.477677131442654 1 0 0 I I #
vertex $-1 $450 $557 #
point $-1 17.570263452569364 -38.45184874891374 8.315619711416689 #
vertex $-1 $454 $558 #
point $-1 23.290372254147854 -38.45184874891374 8.315619711416689 #
straight-curve $-1 -69.070711386455883 43.897538912680595 0 0 0 -1 I I #
point $-1 -69.070711386455883 -43.897538912680595 -15.477677131442654 #
straight-curve $-1 -69.070711386455883 0 -15.477677131442654 0 1 0 I I #
point $-1 -69.070711386455883 43.897538912680595 -15.477677131442654 #
straight-curve $-1 -69.070711386455883 0 10.748832646658117 0 -1 0 I I #
point $-1 -69.070711386455883 -43.897538912680595 10.748832646658117 #
point $-1 -69.070711386455883 43.897538912680595 10.748832646658117 #
straight-curve $-1 -69.070711386455883 43.897538912680595 0 0 0 -1 I I #
straight-curve $-1 -69.070711386455883 -43.897538912680595 0 0 0 -1 I I #
straight-curve $-1 -26.509722902620705 43.897538912680595 82.597291771345965 0 0 -1 I I #
point $-1 -26.509722902620705 43.897538912680595 15.477677131442654 #
straight-curve $-1 -18.386566163048244 43.897538912680602 1.6785668750693929 -1 0 0 I I #
point $-1 -26.509722902620705 43.897538912680595 1.6785668750693929 #
point $-1 -41.171736364728972 29.238563466576299 1.715314368218386 #
point $-1 -32.374528287464017 29.238563466576299 1.715314368218386 #
straight-curve $-1 -15.293683209557798 -43.897538912680595 39.087731561777929 0 0 -1 I I #
point $-1 -15.293683209557798 -43.897538912680595 15.477677131442654 #
straight-curve $-1 -4.3101114705247774 -43.897538912680595 2.9382536315870502 1 0 0 I I #
point $-1 -15.293683209557798 -43.897538912680595 2.9382536315870422 #
point $-1 -11.4802773418388 -37.613178172963991 7.7709806887272395 #
point $-1 -5.7601685402603096 -37.613178172963991 7.7709806887272395 #
straight-curve $-1 12.756857584850373 -43.897538912680595 39.087731561777929 0 0 -1 I I #
point $-1 12.756857584850373 -43.897538912680595 15.477677131442654 #
straight-curve $-1 9.7151589266793081 -43.897538912680595 2.9382536315870502 1 0 0 I I #
point $-1 12.756857584850373 -43.897538912680595 2.9382536315870422 #
point $-1 16.570263452569364 -37.613178172963991 7.7709806887272395 #
point $-1 22.290372254147854 -37.613178172963991 7.7709806887272395 #
End-of-ACIS-data 