500 0 7 0           
7 Unknown 11 ACIS 5.0 NT 24 Thu Mar 25 21:13:50 1999 
-1 9.9999999999999995e-007 1e-010 
body $-1 $7 $-1 $8 #
body $-1 $9 $-1 $10 #
body $-1 $11 $-1 $12 #
body $-1 $13 $-1 $14 #
body $-1 $15 $-1 $16 #
body $-1 $17 $-1 $18 #
body $-1 $19 $-1 $20 #
lump $-1 $-1 $21 $0 #
transform $-1 1 0 0 0 1 0 0 0 1 71.248512222663038 39.151130308699578 12.33953011108933 1 rotate no_reflect no_shear #
lump $-1 $-1 $22 $1 #
transform $-1 1 0 0 0 1 0 0 0 1 71.248512222663038 39.151130308699578 12.33953011108933 1 rotate no_reflect no_shear #
lump $-1 $-1 $23 $2 #
transform $-1 1 0 0 0 1 0 0 0 1 71.248512222663038 39.151130308699578 12.33953011108933 1 rotate no_reflect no_shear #
lump $-1 $-1 $24 $3 #
transform $-1 1 0 0 0 1 0 0 0 1 71.248512222663038 39.151130308699578 12.33953011108933 1 rotate no_reflect no_shear #
lump $-1 $-1 $25 $4 #
transform $-1 1 0 0 0 1 0 0 0 1 71.248512222663038 39.151130308699578 12.33953011108933 1 rotate no_reflect no_shear #
lump $-1 $-1 $26 $5 #
transform $-1 1 0 0 0 1 0 0 0 1 71.248512222663038 39.151130308699578 12.33953011108933 1 rotate no_reflect no_shear #
lump $-1 $-1 $27 $6 #
transform $-1 1 0 0 0 1 0 0 0 1 71.248512222663038 39.151130308699578 12.33953011108933 1 rotate no_reflect no_shear #
shell $-1 $-1 $-1 $28 $-1 $7 #
shell $-1 $-1 $-1 $29 $-1 $9 #
shell $-1 $-1 $-1 $30 $-1 $11 #
shell $-1 $-1 $-1 $31 $-1 $13 #
shell $-1 $-1 $-1 $32 $-1 $15 #
shell $-1 $-1 $-1 $33 $-1 $17 #
shell $-1 $-1 $-1 $34 $-1 $19 #
face $-1 $35 $36 $21 $-1 $37 forward single #
face $-1 $38 $39 $22 $-1 $40 forward single #
face $-1 $41 $42 $23 $-1 $43 reversed single #
face $-1 $44 $45 $24 $-1 $46 forward single #
face $-1 $47 $48 $25 $-1 $49 reversed single #
face $-1 $50 $51 $26 $-1 $52 forward single #
face $-1 $53 $54 $27 $-1 $55 forward single #
face $-1 $56 $57 $21 $-1 $58 reversed single #
loop $-1 $-1 $59 $28 #
plane-surface $-1 0 0 12.33953011108933 0 0 1 1 0 0 forward_v I I I I #
face $-1 $60 $61 $22 $-1 $62 forward single #
loop $-1 $-1 $63 $29 #
plane-surface $-1 0 -39.151130308699578 0 0 1 0 0 0 1 forward_v I I I I #
face $-1 $64 $65 $23 $-1 $66 reversed single #
loop $-1 $-1 $67 $30 #
plane-surface $-1 -195.87921909781477 31.320112634217679 73.290092485559668 0 1 0 -0.87461971476443456 0 0.48480960649040278 forward_v I I I I #
face $-1 $68 $69 $24 $-1 $70 forward single #
loop $-1 $71 $72 $31 #
cone-surface $-1 -66.961477458481909 35.235621471458629 7.1460286532610144 0.87461971476443456 0 -0.48480960649040278 0.72721440973560414 0 1.311929572146652 1 I I 0 1 1.5 forward I I I I #
face $-1 $73 $74 $25 $-1 $75 reversed single #
loop $-1 $-1 $76 $32 #
plane-surface $-1 64.215525143235681 -0.89442632773843478 202.11417002069049 0 -1 0 -0.68199836817093118 0 -0.7313536940579346 forward_v I I I I #
face $-1 $77 $78 $26 $-1 $79 forward single #
loop $-1 $80 $81 $33 #
cone-surface $-1 64.003513383426423 -11.660996563097633 5.4418593556080728 -0.68199836817093118 0 -0.7313536940579346 0.7313536940579346 0 -0.68199836817093118 1 I I 0 1 1 forward I I I I #
face $-1 $82 $83 $27 $-1 $84 forward single #
loop $-1 $85 $86 $34 #
cone-surface $-1 64.003513383426423 -5.2010544218821195 5.4418593556080728 -0.68199836817093118 0 -0.7313536940579346 0.7313536940579346 0 -0.68199836817093118 1 I I 0 1 1 forward I I I I #
face $-1 $87 $88 $21 $-1 $89 reversed single #
loop $-1 $-1 $90 $35 #
plane-surface $-1 0 0 -12.33953011108933 0 0 1 1 0 0 forward_v I I I I #
coedge $-1 $91 $92 $93 $94 forward $36 $-1 #
face $-1 $95 $96 $22 $-1 $97 reversed single #
loop $-1 $-1 $98 $38 #
plane-surface $-1 0 0 12.33953011108933 0 0 1 1 0 0 forward_v I I I I #
coedge $-1 $99 $100 $101 $102 forward $39 $-1 #
face $-1 $103 $104 $23 $-1 $105 reversed single #
loop $-1 $-1 $106 $41 #
plane-surface $-1 -71.24851222266301 35.235621471458629 4.2061661381678306 -0.87461971476443456 0 0.48480960649040278 0.48480960649040278 0 0.87461971476443456 forward_v I I I I #
coedge $-1 $107 $108 $109 $110 reversed $42 $-1 #
face $-1 $-1 $111 $24 $-1 $112 forward single #
loop $-1 $113 $114 $44 #
cone-surface $-1 -64.272676459089823 35.235621471458629 5.6556019770256487 0.87461971476443456 0 -0.48480960649040278 0.36360720486780207 0 0.65596478607332598 1 I I -0.70710678118654757 0.70710678118654757 0.75 forward I I I I #
loop $-1 $-1 $115 $31 #
coedge $-1 $72 $72 $116 $117 reversed $45 $-1 #
face $-1 $118 $119 $25 $-1 $120 reversed single #
loop $-1 $-1 $121 $47 #
plane-surface $-1 -32.967212997689998 -8.4310254924898729 97.898444800337458 0.68199836817093118 0 0.7313536940579346 0.7313536940579346 0 -0.68199836817093118 forward_v I I I I #
coedge $-1 $122 $123 $124 $125 reversed $48 $-1 #
face $-1 $-1 $126 $26 $-1 $127 forward single #
loop $-1 $128 $129 $50 #
cone-surface $-1 62.650027501783683 -11.660996563097633 3.9904234789366217 -0.68199836817093118 0 -0.7313536940579346 0.3656768470289673 0 -0.34099918408546559 1 I I -0.70710678118654746 0.70710678118654746 0.5 forward I I I I #
loop $-1 $-1 $130 $33 #
coedge $-1 $81 $81 $131 $132 reversed $51 $-1 #
face $-1 $-1 $133 $27 $-1 $134 forward single #
loop $-1 $135 $136 $53 #
cone-surface $-1 62.650027501783683 -5.2010544218821195 3.9904234789366217 -0.68199836817093118 0 -0.7313536940579346 0.3656768470289673 0 -0.34099918408546559 1 I I -0.70710678118654746 0.70710678118654746 0.5 forward I I I I #
loop $-1 $-1 $137 $34 #
coedge $-1 $86 $86 $138 $139 reversed $54 $-1 #
face $-1 $140 $141 $21 $-1 $142 reversed single #
loop $-1 $-1 $143 $56 #
plane-surface $-1 0 -39.151130308699578 0 0 1 0 0 0 1 forward_v I I I I #
coedge $-1 $144 $145 $146 $147 forward $57 $-1 #
coedge $-1 $148 $59 $149 $150 forward $36 $-1 #
coedge $-1 $59 $148 $151 $152 forward $36 $-1 #
coedge $-1 $153 $154 $59 $94 reversed $155 $-1 #
edge $-1 $156 -39.151130308699578 $157 39.151130308699578 $93 $158 forward 7 unknown #
face $-1 $159 $160 $22 $-1 $161 reversed single #
loop $-1 $-1 $162 $60 #
plane-surface $-1 -71.248512222663038 0 0 1 0 0 0 0 -1 forward_v I I I I #
coedge $-1 $163 $164 $100 $165 forward $61 $-1 #
coedge $-1 $166 $63 $167 $168 reversed $39 $-1 #
coedge $-1 $63 $166 $98 $165 reversed $39 $-1 #
coedge $-1 $169 $170 $63 $102 reversed $171 $-1 #
edge $-1 $172 -12.33953011108933 $173 12.33953011108933 $101 $174 forward 7 unknown #
face $-1 $175 $176 $23 $-1 $177 reversed single #
loop $-1 $-1 $178 $64 #
plane-surface $-1 0 39.151130308699578 0 0 -1 0 0 0 -1 forward_v I I I I #
coedge $-1 $179 $180 $181 $182 reversed $65 $-1 #
coedge $-1 $108 $67 $183 $184 reversed $42 $-1 #
coedge $-1 $67 $107 $179 $185 reversed $42 $-1 #
coedge $-1 $181 $186 $67 $110 forward $187 $-1 #
edge $-1 $188 26.691097326244346 $189 31.199494427969114 $109 $190 forward 7 unknown #
loop $-1 $-1 $116 $68 #
plane-surface $-1 -71.24851222266301 35.235621471458629 4.2061661381678306 -0.87461971476443456 0 0.48480960649040278 0.48480960649040278 0 0.87461971476443456 forward_v I I I I #
loop $-1 $-1 $191 $44 #
coedge $-1 $114 $114 $115 $192 reversed $69 $-1 #
coedge $-1 $115 $115 $114 $192 forward $71 $-1 #
coedge $-1 $116 $116 $72 $117 forward $111 $-1 #
edge $-1 $193 0 $193 6.2831853071796004 $116 $194 forward 7 unknown #
face $-1 $195 $196 $25 $-1 $197 reversed single #
loop $-1 $-1 $198 $73 #
plane-surface $-1 64.215525143235681 -15.967624657241311 202.11417002069049 0 1 0 0.68199836817093118 0 0.7313536940579346 forward_v I I I I #
coedge $-1 $199 $200 $201 $202 reversed $74 $-1 #
coedge $-1 $123 $76 $203 $204 reversed $48 $-1 #
coedge $-1 $76 $122 $199 $205 reversed $48 $-1 #
coedge $-1 $201 $206 $76 $125 forward $207 $-1 #
edge $-1 $208 -39.140749651045198 $209 -26.675725367686553 $124 $210 forward 7 unknown #
loop $-1 $-1 $131 $77 #
plane-surface $-1 -32.967212997689998 -8.4310254924898729 97.898444800337458 0.68199836817093118 0 0.7313536940579346 0.7313536940579346 0 -0.68199836817093118 forward_v I I I I #
loop $-1 $-1 $211 $50 #
coedge $-1 $129 $129 $130 $212 reversed $78 $-1 #
coedge $-1 $130 $130 $129 $212 forward $80 $-1 #
coedge $-1 $131 $131 $81 $132 forward $126 $-1 #
edge $-1 $213 0 $213 6.2831853071796004 $131 $214 forward 7 unknown #
loop $-1 $-1 $138 $82 #
plane-surface $-1 -32.967212997689998 -8.4310254924898729 97.898444800337458 0.68199836817093118 0 0.7313536940579346 0.7313536940579346 0 -0.68199836817093118 forward_v I I I I #
loop $-1 $-1 $215 $53 #
coedge $-1 $136 $136 $137 $216 reversed $83 $-1 #
coedge $-1 $137 $137 $136 $216 forward $85 $-1 #
coedge $-1 $138 $138 $86 $139 forward $133 $-1 #
edge $-1 $217 0 $217 6.2831853071796004 $138 $218 forward 7 unknown #
face $-1 $219 $220 $21 $-1 $221 reversed single #
loop $-1 $-1 $222 $87 #
plane-surface $-1 -71.248512222663038 0 0 1 0 0 0 0 -1 forward_v I I I I #
coedge $-1 $223 $151 $224 $225 forward $88 $-1 #
coedge $-1 $226 $90 $223 $227 forward $57 $-1 #
coedge $-1 $90 $226 $228 $229 forward $57 $-1 #
coedge $-1 $154 $153 $90 $147 reversed $155 $-1 #
edge $-1 $230 -39.151130308699578 $231 39.151130308699578 $146 $232 forward 7 unknown #
coedge $-1 $92 $91 $233 $234 forward $36 $-1 #
coedge $-1 $235 $236 $91 $150 reversed $220 $-1 #
edge $-1 $157 -71.248512222663038 $237 71.248512222663038 $149 $238 forward 7 unknown #
coedge $-1 $143 $239 $92 $152 reversed $88 $-1 #
edge $-1 $240 -71.248512222663038 $156 71.248512222663038 $151 $241 forward 7 unknown #
coedge $-1 $146 $93 $239 $242 forward $155 $-1 #
coedge $-1 $93 $146 $235 $243 reversed $155 $-1 #
loop $-1 $-1 $153 $219 #
vertex $-1 $94 $244 #
vertex $-1 $94 $245 #
straight-curve $-1 71.248512222663038 0 12.33953011108933 0 1 0 I I #
face $-1 $246 $171 $22 $-1 $247 reversed single #
loop $-1 $-1 $248 $95 #
plane-surface $-1 -69.009606971359617 -54.991679638703459 0 0 1 0 0 0 1 forward_v I I I I #
coedge $-1 $249 $250 $166 $251 forward $96 $-1 #
coedge $-1 $252 $98 $250 $253 forward $61 $-1 #
coedge $-1 $98 $252 $169 $254 forward $61 $-1 #
edge $-1 $172 66.770701720056195 $255 71.248512222663038 $98 $256 forward 7 unknown #
coedge $-1 $100 $99 $162 $251 reversed $39 $-1 #
coedge $-1 $257 $258 $99 $168 forward $259 $-1 #
edge $-1 $260 -71.248512222663038 $173 -66.770701720056195 $167 $261 forward 7 unknown #
coedge $-1 $262 $101 $164 $254 reversed $171 $-1 #
coedge $-1 $101 $262 $257 $263 reversed $171 $-1 #
loop $-1 $-1 $262 $159 #
vertex $-1 $165 $264 #
vertex $-1 $263 $265 #
straight-curve $-1 -66.770701720056195 -39.151130308699578 0 0 0 -1 I I #
face $-1 $-1 $187 $23 $-1 $266 forward single #
loop $-1 $-1 $267 $103 #
plane-surface $-1 -71.248512222663038 0 0 1 0 0 0 0 -1 forward_v I I I I #
coedge $-1 $268 $269 $180 $270 forward $104 $-1 #
coedge $-1 $271 $106 $108 $185 forward $65 $-1 #
coedge $-1 $106 $271 $178 $270 reversed $65 $-1 #
coedge $-1 $272 $109 $106 $182 forward $187 $-1 #
edge $-1 $189 13.702301898488365 $273 21.533319572970264 $181 $274 forward 7 unknown #
coedge $-1 $275 $267 $107 $184 forward $176 $-1 #
edge $-1 $276 -32.438880104612053 $188 -24.305516131690503 $183 $277 forward 7 unknown #
edge $-1 $189 -9.2993147028615724 $276 5.8834582418425628e-014 $108 $278 forward 7 unknown #
coedge $-1 $109 $272 $275 $279 forward $187 $-1 #
loop $-1 $-1 $181 $175 #
vertex $-1 $184 $280 #
vertex $-1 $110 $281 #
straight-curve $-1 -97.939609548907384 31.320112634217679 12.339530111089331 1 0 0 I I #
coedge $-1 $191 $191 $-1 $282 reversed $113 $-1 #
edge $-1 $283 0 $283 6.2831853071796004 $114 $284 forward 7 unknown #
vertex $-1 $117 $285 #
ellipse-curve $-1 -68.994313671800654 35.235621471458629 8.2728481246285668 -0.87461971476443456 0 0.48480960649040278 0.72721440973560414 0 1.311929572146652 1 I I #
face $-1 $-1 $207 $25 $-1 $286 forward single #
loop $-1 $-1 $287 $118 #
plane-surface $-1 71.248512222663038 0 0 -1 0 0 0 0 1 forward_v I I I I #
coedge $-1 $288 $289 $290 $291 reversed $119 $-1 #
coedge $-1 $292 $121 $123 $205 forward $74 $-1 #
coedge $-1 $121 $292 $288 $293 forward $74 $-1 #
coedge $-1 $290 $124 $121 $202 forward $207 $-1 #
edge $-1 $209 -3.3210864185065017 $294 11.752111910996375 $201 $295 forward 7 unknown #
coedge $-1 $296 $297 $122 $204 forward $196 $-1 #
edge $-1 $298 -100.34137835093347 $208 -88.717554899255916 $203 $299 forward 7 unknown #
edge $-1 $209 125.4532542632188 $298 142.49702444532608 $123 $300 forward 7 unknown #
coedge $-1 $124 $290 $296 $301 forward $207 $-1 #
loop $-1 $-1 $290 $195 #
vertex $-1 $204 $302 #
vertex $-1 $125 $303 #
straight-curve $-1 32.10776257161784 -0.89442632773843478 12.339530111089331 -1 0 0 I I #
coedge $-1 $211 $211 $-1 $304 reversed $128 $-1 #
edge $-1 $305 0 $305 6.2831853071796004 $129 $306 forward 7 unknown #
vertex $-1 $132 $307 #
ellipse-curve $-1 65.016000080983702 -11.660996563097633 6.5276183852505669 0.68199836817093118 0 0.7313536940579346 0.7313536940579346 0 -0.68199836817093118 1 I I #
coedge $-1 $215 $215 $-1 $308 reversed $135 $-1 #
edge $-1 $309 0 $309 6.2831853071796004 $136 $310 forward 7 unknown #
vertex $-1 $139 $311 #
ellipse-curve $-1 65.016000080983702 -5.2010544218821195 6.5276183852505669 0.68199836817093118 0 0.7313536940579346 0.7313536940579346 0 -0.68199836817093118 1 I I #
face $-1 $-1 $155 $21 $-1 $312 reversed single #
loop $-1 $-1 $235 $140 #
plane-surface $-1 0 39.151130308699578 0 0 -1 0 0 0 -1 forward_v I I I I #
coedge $-1 $313 $233 $236 $314 forward $141 $-1 #
coedge $-1 $239 $143 $144 $227 reversed $88 $-1 #
coedge $-1 $233 $313 $143 $225 reversed $141 $-1 #
edge $-1 $240 -12.33953011108933 $315 12.33953011108933 $224 $316 forward 7 unknown #
coedge $-1 $145 $144 $313 $317 forward $57 $-1 #
edge $-1 $231 -71.248512222663038 $315 71.248512222663038 $223 $318 forward 7 unknown #
coedge $-1 $236 $235 $145 $229 reversed $220 $-1 #
edge $-1 $319 -71.248512222663038 $230 71.248512222663038 $228 $320 forward 7 unknown #
vertex $-1 $147 $321 #
vertex $-1 $242 $322 #
straight-curve $-1 71.248512222663038 0 -12.33953011108933 0 -1 0 I I #
coedge $-1 $222 $224 $148 $234 reversed $141 $-1 #
edge $-1 $237 -39.151130308699578 $240 39.151130308699578 $233 $323 forward 7 unknown #
coedge $-1 $228 $149 $154 $243 forward $220 $-1 #
coedge $-1 $149 $228 $222 $314 reversed $220 $-1 #
vertex $-1 $150 $324 #
straight-curve $-1 0 39.151130308699578 12.33953011108933 -1 0 0 I I #
coedge $-1 $151 $223 $153 $242 reversed $88 $-1 #
vertex $-1 $234 $325 #
straight-curve $-1 0 -39.151130308699578 12.33953011108933 1 0 0 I I #
edge $-1 $156 -12.33953011108933 $231 12.33953011108933 $153 $326 forward 7 unknown #
edge $-1 $157 -12.33953011108933 $230 12.33953011108933 $154 $327 forward 7 unknown #
point $-1 71.248512222663038 -39.151130308699578 12.33953011108933 #
point $-1 71.248512222663038 39.151130308699578 12.33953011108933 #
face $-1 $-1 $259 $22 $-1 $328 reversed single #
plane-surface $-1 -66.770701720056195 -47.071404973701519 0 -1 0 0 0 0 1 forward_v I I I I #
coedge $-1 $329 $330 $331 $332 forward $160 $-1 #
coedge $-1 $331 $162 $258 $333 reversed $96 $-1 #
coedge $-1 $162 $331 $163 $253 reversed $96 $-1 #
edge $-1 $255 -12.33953011108933 $260 12.33953011108933 $162 $334 forward 7 unknown #
coedge $-1 $164 $163 $330 $335 forward $61 $-1 #
edge $-1 $255 39.151130308699578 $336 54.991679638703459 $250 $337 forward 7 unknown #
edge $-1 $338 -7.9202746650019407 $172 7.9202746650019407 $169 $339 forward 7 unknown #
vertex $-1 $253 $340 #
straight-curve $-1 0 -39.151130308699578 12.33953011108933 -1 0 0 I I #
coedge $-1 $341 $167 $170 $263 forward $259 $-1 #
coedge $-1 $167 $341 $249 $333 forward $259 $-1 #
loop $-1 $-1 $167 $246 #
vertex $-1 $251 $342 #
straight-curve $-1 0 -39.151130308699578 -12.33953011108933 1 0 0 I I #
coedge $-1 $170 $169 $343 $344 forward $171 $-1 #
edge $-1 $173 -7.9202746650019407 $345 7.9202746650019407 $170 $346 forward 7 unknown #
point $-1 -66.770701720056195 -39.151130308699578 12.33953011108933 #
point $-1 -66.770701720056195 -39.151130308699578 -12.33953011108933 #
plane-surface $-1 0 0 12.33953011108933 0 0 1 1 0 0 forward_v I I I I #
coedge $-1 $183 $347 $271 $348 forward $176 $-1 #
coedge $-1 $269 $178 $347 $349 reversed $104 $-1 #
coedge $-1 $178 $268 $272 $350 reversed $104 $-1 #
edge $-1 $273 6.1322689699782931 $351 15.431583672839924 $178 $352 forward 7 unknown #
coedge $-1 $180 $179 $267 $348 reversed $65 $-1 #
coedge $-1 $186 $181 $269 $350 forward $187 $-1 #
vertex $-1 $350 $353 #
straight-curve $-1 -66.740115120938285 17.617810735729314 12.339530111089331 0 1 0 I I #
coedge $-1 $347 $183 $186 $279 reversed $176 $-1 #
vertex $-1 $184 $354 #
straight-curve $-1 -71.248512222663038 31.320112634217679 36.645046242779834 0 0 1 I I #
straight-curve $-1 -71.24851222266301 31.320112634217679 4.2061661381678306 -0.48480960649040278 0 -0.87461971476443456 I I #
edge $-1 $355 -39.151130308699578 $188 -31.320112634217679 $275 $356 forward 7 unknown #
point $-1 -71.248512222663038 31.320112634217679 12.33953011108933 #
point $-1 -66.74011512093827 31.320112634217679 12.33953011108933 #
edge $-1 $357 1 $357 0 $191 $-1 forward 7 unknown #
vertex $-1 $192 $358 #
ellipse-curve $-1 -64.928641245163149 35.235621471458629 6.0192091818934506 -0.87461971476443456 0 0.48480960649040278 0.72721440973560414 0 1.311929572146652 1 I I #
point $-1 -68.267099262065074 35.235621471458629 9.5847776967752303 #
plane-surface $-1 0 0 12.33953011108933 0 0 1 1 0 0 forward_v I I I I #
coedge $-1 $297 $296 $289 $359 forward $196 $-1 #
coedge $-1 $289 $198 $200 $293 reversed $119 $-1 #
coedge $-1 $198 $288 $287 $359 reversed $119 $-1 #
coedge $-1 $206 $201 $198 $291 forward $207 $-1 #
edge $-1 $294 26.675725367686553 $360 39.140749651045198 $290 $361 forward 7 unknown #
coedge $-1 $200 $199 $297 $362 reversed $74 $-1 #
edge $-1 $363 -142.49702444532608 $294 -125.4532542632188 $288 $364 forward 7 unknown #
vertex $-1 $202 $365 #
straight-curve $-1 58.783487939304386 -4.2155127462449364 12.339530111089331 0 -1 0 I I #
coedge $-1 $287 $203 $206 $301 reversed $196 $-1 #
coedge $-1 $203 $287 $292 $362 forward $196 $-1 #
vertex $-1 $204 $366 #
straight-curve $-1 71.248512222663038 -0.89442632773843478 101.05708501034525 0 0 1 I I #
straight-curve $-1 -32.967212997689998 -0.89442632773843478 97.898444800337458 0.7313536940579346 0 -0.68199836817093118 I I #
edge $-1 $360 -15.967624657241311 $208 -0.89442632773843478 $296 $367 forward 7 unknown #
point $-1 71.248512222663038 -0.89442632773843478 12.33953011108933 #
point $-1 58.783487939304393 -0.89442632773843478 12.339530111089331 #
edge $-1 $368 1 $368 0 $211 $-1 forward 7 unknown #
vertex $-1 $212 $369 #
ellipse-curve $-1 62.991026685869151 -11.660996563097633 4.3561003259655893 0.68199836817093118 0 0.7313536940579346 0.7313536940579346 0 -0.68199836817093118 1 I I #
point $-1 65.747353775041617 -11.660996563097633 5.8456200170796251 #
edge $-1 $370 1 $370 0 $215 $-1 forward 7 unknown #
vertex $-1 $216 $371 #
ellipse-curve $-1 62.991026685869151 -5.2010544218821195 4.3561003259655893 0.68199836817093118 0 0.7313536940579346 0.7313536940579346 0 -0.68199836817093118 1 I I #
point $-1 65.747353775041617 -5.2010544218821195 5.8456200170796251 #
plane-surface $-1 71.248512222663038 0 0 -1 0 0 0 0 1 forward_v I I I I #
coedge $-1 $224 $222 $226 $317 reversed $141 $-1 #
edge $-1 $237 -12.33953011108933 $319 12.33953011108933 $236 $372 forward 7 unknown #
vertex $-1 $317 $373 #
straight-curve $-1 -71.248512222663038 -39.151130308699578 0 0 0 -1 I I #
edge $-1 $315 -39.151130308699578 $319 39.151130308699578 $313 $374 forward 7 unknown #
straight-curve $-1 0 -39.151130308699578 -12.33953011108933 -1 0 0 I I #
vertex $-1 $229 $375 #
straight-curve $-1 0 39.151130308699578 -12.33953011108933 1 0 0 I I #
point $-1 71.248512222663038 39.151130308699578 -12.33953011108933 #
point $-1 71.248512222663038 -39.151130308699578 -12.33953011108933 #
straight-curve $-1 -71.248512222663038 0 12.33953011108933 0 -1 0 I I #
point $-1 -71.248512222663038 39.151130308699578 12.33953011108933 #
point $-1 -71.248512222663038 -39.151130308699578 12.33953011108933 #
straight-curve $-1 71.248512222663038 -39.151130308699578 0 0 0 -1 I I #
straight-curve $-1 71.248512222663038 39.151130308699578 0 0 0 -1 I I #
plane-surface $-1 0 0 -12.33953011108933 0 0 1 1 0 0 forward_v I I I I #
coedge $-1 $343 $248 $341 $376 reversed $160 $-1 #
coedge $-1 $248 $343 $252 $335 reversed $160 $-1 #
coedge $-1 $250 $249 $248 $332 reversed $96 $-1 #
edge $-1 $336 -12.33953011108933 $377 12.33953011108933 $331 $378 forward 7 unknown #
edge $-1 $377 -54.991679638703459 $260 -39.151130308699578 $249 $379 forward 7 unknown #
straight-curve $-1 -71.248512222663038 -39.151130308699578 0 0 0 -1 I I #
edge $-1 $336 -2.2389052513034216 $338 2.2389052513034216 $330 $380 forward 7 unknown #
vertex $-1 $253 $381 #
straight-curve $-1 -71.248512222663038 0 12.33953011108933 0 -1 0 I I #
vertex $-1 $254 $382 #
straight-curve $-1 -66.770701720056195 -47.071404973701519 12.33953011108933 0 1 0 I I #
point $-1 -71.248512222663038 -39.151130308699578 12.33953011108933 #
coedge $-1 $258 $257 $329 $376 forward $259 $-1 #
point $-1 -71.248512222663038 -39.151130308699578 -12.33953011108933 #
coedge $-1 $330 $329 $262 $344 reversed $160 $-1 #
edge $-1 $338 -12.33953011108933 $345 12.33953011108933 $262 $383 forward 7 unknown #
vertex $-1 $344 $384 #
straight-curve $-1 -66.770701720056195 -47.071404973701519 -12.33953011108933 0 -1 0 I I #
coedge $-1 $267 $275 $268 $349 forward $176 $-1 #
edge $-1 $351 -21.533319572970264 $276 -13.702301898488365 $267 $385 forward 7 unknown #
edge $-1 $355 -12.33953011108933 $351 -4.2061661381677791 $268 $386 forward 7 unknown #
edge $-1 $273 66.74011512093827 $355 71.248512222663038 $269 $387 forward 7 unknown #
vertex $-1 $348 $388 #
straight-curve $-1 -63.76713221470979 39.151130308699578 17.702933448470539 -0.48480960649040278 0 -0.87461971476443456 I I #
point $-1 -66.74011512093827 39.151130308699578 12.33953011108933 #
point $-1 -71.248512222663038 31.320112634217679 4.2061661381677791 #
vertex $-1 $350 $389 #
straight-curve $-1 -71.248512222663038 0 12.33953011108933 0 -1 0 I I #
vertex $-1 $282 $390 #
point $-1 -64.20142683542754 35.235621471458629 7.3311387540401025 #
edge $-1 $360 88.717554899255916 $363 100.34137835093347 $287 $391 forward 7 unknown #
vertex $-1 $301 $392 #
straight-curve $-1 32.10776257161784 -15.967624657241311 12.339530111089331 1 0 0 I I #
edge $-1 $363 -11.752111910996375 $298 3.3210864185065017 $297 $393 forward 7 unknown #
vertex $-1 $362 $394 #
straight-curve $-1 -32.967212997689998 -15.967624657241311 97.898444800337458 -0.7313536940579346 0 0.68199836817093118 I I #
point $-1 58.783487939304393 -15.967624657241311 12.339530111089331 #
point $-1 71.248512222663038 -0.89442632773843478 0.71570665941177936 #
straight-curve $-1 71.248512222663038 0 12.33953011108933 0 1 0 I I #
vertex $-1 $304 $395 #
point $-1 63.722380379927081 -11.660996563097633 3.6741019577946581 #
vertex $-1 $308 $396 #
point $-1 63.722380379927081 -5.2010544218821195 3.6741019577946581 #
straight-curve $-1 -71.248512222663038 39.151130308699578 0 0 0 -1 I I #
point $-1 -71.248512222663038 -39.151130308699578 -12.33953011108933 #
straight-curve $-1 -71.248512222663038 0 -12.33953011108933 0 1 0 I I #
point $-1 -71.248512222663038 39.151130308699578 -12.33953011108933 #
edge $-1 $345 -2.2389052513034216 $377 2.2389052513034216 $329 $397 forward 7 unknown #
vertex $-1 $333 $398 #
straight-curve $-1 -71.248512222663038 -54.991679638703459 0 0 0 -1 I I #
straight-curve $-1 -71.248512222663038 0 -12.33953011108933 0 1 0 I I #
straight-curve $-1 -69.009606971359617 -54.991679638703459 12.33953011108933 1 0 0 I I #
point $-1 -71.248512222663038 -54.991679638703459 12.33953011108933 #
point $-1 -66.770701720056195 -54.991679638703459 12.33953011108933 #
straight-curve $-1 -66.770701720056195 -54.991679638703459 0 0 0 -1 I I #
point $-1 -66.770701720056195 -54.991679638703459 -12.33953011108933 #
straight-curve $-1 -71.248512222663038 17.617810735729314 4.2061661381677826 0 -1 0 I I #
straight-curve $-1 -71.248512222663038 39.151130308699578 0 0 0 -1 I I #
straight-curve $-1 0 39.151130308699578 12.33953011108933 -1 0 0 I I #
point $-1 -71.248512222663038 39.151130308699578 4.2061661381677791 #
point $-1 -71.248512222663038 39.151130308699578 12.33953011108933 #
point $-1 -63.616711673016496 35.235621471458629 5.2919947721578469 #
straight-curve $-1 71.248512222663038 -15.967624657241311 101.05708501034525 0 0 -1 I I #
point $-1 71.248512222663038 -15.967624657241311 12.33953011108933 #
straight-curve $-1 71.248512222663038 -4.2155127462449364 0.71570665941178646 0 1 0 I I #
point $-1 71.248512222663038 -15.967624657241311 0.71570665941177936 #
point $-1 62.309028317698214 -11.660996563097633 3.6247466319076542 #
point $-1 62.309028317698214 -5.2010544218821195 3.6247466319076542 #
straight-curve $-1 -69.009606971359617 -54.991679638703459 -12.33953011108933 -1 0 0 I I #
point $-1 -71.248512222663038 -54.991679638703459 -12.33953011108933 #
End-of-ACIS-data 