500 0 10 0           
7 Unknown 11 ACIS 5.0 NT 24 Thu Mar 25 22:58:31 1999 
-1 9.9999999999999995e-007 1e-010 
body $-1 $10 $-1 $11 #
body $-1 $12 $-1 $13 #
body $-1 $14 $-1 $15 #
body $-1 $16 $-1 $17 #
body $-1 $18 $-1 $19 #
body $-1 $20 $-1 $21 #
body $-1 $22 $-1 $23 #
body $-1 $24 $-1 $25 #
body $-1 $26 $-1 $27 #
body $-1 $28 $-1 $29 #
lump $-1 $-1 $30 $0 #
transform $-1 1 0 0 0 1 0 0 0 1 55.330057679982907 36.880513620060015 13.850761820035297 1 rotate no_reflect no_shear #
lump $-1 $-1 $31 $1 #
transform $-1 1 0 0 0 1 0 0 0 1 55.330057679982907 36.880513620060015 13.850761820035297 1 rotate no_reflect no_shear #
lump $-1 $-1 $32 $2 #
transform $-1 1 0 0 0 1 0 0 0 1 55.330057679982907 36.880513620060015 13.850761820035297 1 rotate no_reflect no_shear #
lump $-1 $-1 $33 $3 #
transform $-1 1 0 0 0 1 0 0 0 1 55.330057679982907 36.880513620060015 13.850761820035297 1 rotate no_reflect no_shear #
lump $-1 $-1 $34 $4 #
transform $-1 1 0 0 0 1 0 0 0 1 55.330057679982907 36.880513620060015 13.850761820035297 1 rotate no_reflect no_shear #
lump $-1 $-1 $35 $5 #
transform $-1 1 0 0 0 1 0 0 0 1 55.330057679982907 36.880513620060015 13.850761820035297 1 rotate no_reflect no_shear #
lump $-1 $-1 $36 $6 #
transform $-1 1 0 0 0 1 0 0 0 1 55.330057679982907 36.880513620060015 13.850761820035297 1 rotate no_reflect no_shear #
lump $-1 $-1 $37 $7 #
transform $-1 1 0 0 0 1 0 0 0 1 55.330057679982907 36.880513620060015 13.850761820035297 1 rotate no_reflect no_shear #
lump $-1 $-1 $38 $8 #
transform $-1 1 0 0 0 1 0 0 0 1 55.330057679982907 36.880513620060015 13.850761820035297 1 rotate no_reflect no_shear #
lump $-1 $-1 $39 $9 #
transform $-1 1 0 0 0 1 0 0 0 1 55.330057679982907 36.880513620060015 13.850761820035297 1 rotate no_reflect no_shear #
shell $-1 $-1 $-1 $40 $-1 $10 #
shell $-1 $-1 $-1 $41 $-1 $12 #
shell $-1 $-1 $-1 $42 $-1 $14 #
shell $-1 $-1 $-1 $43 $-1 $16 #
shell $-1 $-1 $-1 $44 $-1 $18 #
shell $-1 $-1 $-1 $45 $-1 $20 #
shell $-1 $-1 $-1 $46 $-1 $22 #
shell $-1 $-1 $-1 $47 $-1 $24 #
shell $-1 $-1 $-1 $48 $-1 $26 #
shell $-1 $-1 $-1 $49 $-1 $28 #
face $-1 $50 $51 $30 $-1 $52 forward single #
face $-1 $53 $54 $31 $-1 $55 forward single #
face $-1 $56 $57 $32 $-1 $58 reversed single #
face $-1 $59 $60 $33 $-1 $61 reversed single #
face $-1 $62 $63 $34 $-1 $64 forward single #
face $-1 $65 $66 $35 $-1 $67 reversed single #
face $-1 $68 $69 $36 $-1 $70 forward single #
face $-1 $71 $72 $37 $-1 $73 reversed single #
face $-1 $74 $75 $38 $-1 $76 forward single #
face $-1 $77 $78 $39 $-1 $79 forward single #
face $-1 $80 $81 $30 $-1 $82 reversed single #
loop $-1 $-1 $83 $40 #
plane-surface $-1 0 0 13.850761820035297 0 0 1 1 0 0 forward_v I I I I #
face $-1 $84 $85 $31 $-1 $86 reversed single #
loop $-1 $-1 $87 $41 #
plane-surface $-1 -47.744035968521274 0 2.8360584067456873 0 0 1 1 0 0 forward_v I I I I #
face $-1 $88 $89 $32 $-1 $90 reversed single #
loop $-1 $-1 $91 $42 #
plane-surface $-1 48.035575335179139 -34.024611020698067 0 0 1 0 0 0 1 forward_v I I I I #
face $-1 $92 $93 $33 $-1 $94 reversed single #
loop $-1 $-1 $95 $43 #
plane-surface $-1 -5.4986862545005231 -106.52118155678124 93.000545990114318 -1 0 0 0 -0.62932039886446345 0.77714595512881146 forward_v I I I I #
face $-1 $96 $97 $34 $-1 $98 forward single #
loop $-1 $99 $100 $44 #
cone-surface $-1 -12.426908315722827 -31.686901702988916 9.2350209702754622 0 0.62932039886446345 -0.77714595512881146 1.5 0 0 1 I I 0 1 1.5 forward I I I I #
face $-1 $101 $102 $35 $-1 $103 reversed single #
loop $-1 $-1 $104 $45 #
plane-surface $-1 34.950867369216994 -106.52118155678124 93.000545990114318 -1 0 0 0 -0.62932039886446345 0.77714595512881146 forward_v I I I I #
face $-1 $105 $106 $36 $-1 $107 forward single #
loop $-1 $108 $109 $46 #
cone-surface $-1 28.022645307994686 -31.686901702988916 9.2350209702754622 0 0.62932039886446345 -0.77714595512881146 1.5 0 0 1 I I 0 1 1.5 forward I I I I #
face $-1 $110 $111 $37 $-1 $112 reversed single #
loop $-1 $-1 $113 $47 #
plane-surface $-1 -18.968892696204303 67.507300564172866 138.57996785375505 1 0 0 0 -0.73135370988377701 -0.68199835119979291 forward_v I I I I #
face $-1 $114 $115 $38 $-1 $116 forward single #
loop $-1 $117 $118 $48 #
cone-surface $-1 -13.167706240386984 33.922836792333484 10.787105976852111 0 -0.73135370988377701 -0.68199835119979291 1.5 0 0 1 I I 0 1 1.5 forward I I I I #
face $-1 $119 $120 $39 $-1 $121 forward single #
loop $-1 $122 $123 $49 #
cone-surface $-1 -4.4659265566610102 33.922836792333484 10.787105976852111 0 -0.73135370988377701 -0.68199835119979291 1.5 0 0 1 I I 0 1 1.5 forward I I I I #
face $-1 $124 $125 $30 $-1 $126 reversed single #
loop $-1 $-1 $127 $50 #
plane-surface $-1 0 0 -13.850761820035297 0 0 1 1 0 0 forward_v I I I I #
coedge $-1 $128 $129 $130 $131 forward $51 $-1 #
face $-1 $132 $133 $31 $-1 $134 reversed single #
loop $-1 $-1 $135 $53 #
plane-surface $-1 -47.744035968521274 0 -2.4801283392443612 0 0 1 1 0 0 forward_v I I I I #
coedge $-1 $136 $137 $138 $139 forward $54 $-1 #
face $-1 $140 $141 $32 $-1 $142 reversed single #
loop $-1 $-1 $143 $56 #
plane-surface $-1 40.741092990375378 -30.112184000290316 0 1 0 0 0 0 -1 forward_v I I I I #
coedge $-1 $144 $145 $146 $147 forward $57 $-1 #
face $-1 $148 $149 $33 $-1 $150 reversed single #
loop $-1 $-1 $151 $59 #
plane-surface $-1 -12.42690831572282 -36.880513620060015 7.0014849440292295 0 -0.62932039886446345 0.77714595512881146 1 0 0 forward_v I I I I #
coedge $-1 $152 $153 $154 $155 reversed $60 $-1 #
face $-1 $-1 $156 $34 $-1 $157 forward single #
loop $-1 $158 $159 $62 #
cone-surface $-1 -12.426908315722827 -30.250375669068617 7.4610590921720483 0 0.62932039886446345 -0.77714595512881146 0.75 0 0 1 I I -0.70710678118654757 0.70710678118654757 0.75 forward I I I I #
loop $-1 $-1 $160 $44 #
coedge $-1 $100 $100 $161 $162 reversed $63 $-1 #
face $-1 $163 $164 $35 $-1 $165 reversed single #
loop $-1 $-1 $166 $65 #
plane-surface $-1 28.022645307994701 -36.880513620060015 7.0014849440292295 0 -0.62932039886446345 0.77714595512881146 1 0 0 forward_v I I I I #
coedge $-1 $167 $168 $169 $170 reversed $66 $-1 #
face $-1 $-1 $171 $36 $-1 $172 forward single #
loop $-1 $173 $174 $68 #
cone-surface $-1 28.022645307994686 -30.250375669068617 7.4610590921720483 0 0.62932039886446345 -0.77714595512881146 0.75 0 0 1 I I -0.70710678118654757 0.70710678118654757 0.75 forward I I I I #
loop $-1 $-1 $175 $46 #
coedge $-1 $109 $109 $176 $177 reversed $69 $-1 #
face $-1 $178 $179 $37 $-1 $180 reversed single #
loop $-1 $-1 $181 $71 #
plane-surface $-1 -8.8168163985240042 -13.42438534050487 63.10995163467949 0 0.73135370988377701 0.68199835119979291 1 0 0 forward_v I I I I #
coedge $-1 $182 $183 $184 $185 reversed $72 $-1 #
face $-1 $-1 $186 $38 $-1 $187 forward single #
loop $-1 $188 $189 $74 #
cone-surface $-1 -13.167706240386984 32.60162590394836 9.5550569213970444 0 -0.73135370988377701 -0.68199835119979291 0.75 0 0 1 I I -0.70710678118654757 0.70710678118654757 0.75 forward I I I I #
loop $-1 $-1 $190 $48 #
coedge $-1 $118 $118 $191 $192 reversed $75 $-1 #
face $-1 $-1 $193 $39 $-1 $194 forward single #
loop $-1 $195 $196 $77 #
cone-surface $-1 -4.4659265566610102 32.60162590394836 9.5550569213970444 0 -0.73135370988377701 -0.68199835119979291 0.75 0 0 1 I I -0.70710678118654757 0.70710678118654757 0.75 forward I I I I #
loop $-1 $-1 $197 $49 #
coedge $-1 $123 $123 $198 $199 reversed $78 $-1 #
face $-1 $200 $201 $30 $-1 $202 reversed single #
loop $-1 $-1 $203 $80 #
plane-surface $-1 0 -36.880513620060015 0 0 1 0 0 0 1 forward_v I I I I #
coedge $-1 $204 $205 $206 $207 forward $81 $-1 #
coedge $-1 $208 $83 $209 $210 forward $51 $-1 #
coedge $-1 $83 $208 $211 $212 forward $51 $-1 #
coedge $-1 $213 $214 $83 $131 reversed $215 $-1 #
edge $-1 $216 -36.880513620060015 $217 36.880513620060015 $130 $218 forward 7 unknown #
face $-1 $219 $220 $31 $-1 $221 reversed single #
loop $-1 $-1 $222 $84 #
plane-surface $-1 -40.158014257059641 0 0.17796503375066308 -1 0 0 0 0 1 forward_v I I I I #
coedge $-1 $223 $224 $225 $226 forward $85 $-1 #
coedge $-1 $227 $87 $228 $229 reversed $54 $-1 #
coedge $-1 $87 $227 $230 $231 reversed $54 $-1 #
coedge $-1 $222 $232 $87 $139 reversed $133 $-1 #
edge $-1 $233 -36.880513620060015 $234 36.880513620060015 $138 $235 forward 7 unknown #
face $-1 $236 $237 $32 $-1 $238 reversed single #
loop $-1 $-1 $239 $88 #
plane-surface $-1 48.035575335179139 -26.199756979882569 0 0 -1 0 0 0 -1 forward_v I I I I #
coedge $-1 $240 $241 $242 $243 forward $89 $-1 #
coedge $-1 $244 $91 $245 $246 reversed $57 $-1 #
coedge $-1 $91 $244 $247 $248 reversed $57 $-1 #
coedge $-1 $241 $240 $91 $147 reversed $89 $-1 #
edge $-1 $249 -13.850761820035297 $250 13.850761820035297 $146 $251 forward 7 unknown #
face $-1 $252 $253 $33 $-1 $254 reversed single #
loop $-1 $-1 $255 $92 #
plane-surface $-1 -19.355130376945116 -106.52118155678124 93.000545990114318 1 0 0 0 0.62932039886446345 -0.77714595512881146 forward_v I I I I #
coedge $-1 $256 $257 $258 $259 reversed $93 $-1 #
coedge $-1 $153 $95 $260 $261 reversed $60 $-1 #
coedge $-1 $95 $152 $256 $262 reversed $60 $-1 #
coedge $-1 $258 $263 $95 $155 forward $264 $-1 #
edge $-1 $265 16.380077158330607 $266 24.838229522928923 $154 $267 forward 7 unknown #
loop $-1 $-1 $161 $96 #
plane-surface $-1 -12.42690831572282 -36.880513620060015 7.0014849440292295 0 -0.62932039886446345 0.77714595512881146 1 0 0 forward_v I I I I #
loop $-1 $-1 $268 $62 #
coedge $-1 $159 $159 $160 $269 reversed $97 $-1 #
coedge $-1 $160 $160 $159 $269 forward $99 $-1 #
coedge $-1 $161 $161 $100 $162 forward $156 $-1 #
edge $-1 $270 4.5022562042465652e-017 $270 6.2831853071796004 $161 $271 forward 7 unknown #
face $-1 $272 $273 $35 $-1 $274 reversed single #
loop $-1 $-1 $275 $101 #
plane-surface $-1 21.094423246772404 -106.52118155678124 93.000545990114318 1 0 0 0 0.62932039886446345 -0.77714595512881146 forward_v I I I I #
coedge $-1 $276 $277 $278 $279 reversed $102 $-1 #
coedge $-1 $168 $104 $280 $281 reversed $66 $-1 #
coedge $-1 $104 $167 $276 $282 reversed $66 $-1 #
coedge $-1 $278 $283 $104 $170 forward $284 $-1 #
edge $-1 $285 16.380077158330607 $286 24.838229522928923 $169 $287 forward 7 unknown #
loop $-1 $-1 $176 $105 #
plane-surface $-1 28.022645307994701 -36.880513620060015 7.0014849440292295 0 -0.62932039886446345 0.77714595512881146 1 0 0 forward_v I I I I #
loop $-1 $-1 $288 $68 #
coedge $-1 $174 $174 $175 $289 reversed $106 $-1 #
coedge $-1 $175 $175 $174 $289 forward $108 $-1 #
coedge $-1 $176 $176 $109 $177 forward $171 $-1 #
edge $-1 $290 4.5022562042465652e-017 $290 6.2831853071796004 $176 $291 forward 7 unknown #
face $-1 $292 $293 $37 $-1 $294 forward single #
loop $-1 $-1 $295 $110 #
plane-surface $-1 1.3352598991562949 67.507300564172866 138.57996785375505 -1 0 0 0 0.73135370988377701 0.68199835119979291 forward_v I I I I #
coedge $-1 $296 $297 $298 $299 reversed $111 $-1 #
coedge $-1 $183 $113 $300 $301 reversed $72 $-1 #
coedge $-1 $113 $182 $296 $302 reversed $72 $-1 #
coedge $-1 $298 $303 $113 $185 forward $293 $-1 #
edge $-1 $304 -3.1268633379735817 $305 1.2430991055349168 $184 $306 forward 7 unknown #
loop $-1 $-1 $191 $114 #
plane-surface $-1 -8.8168163985240042 -13.42438534050487 63.10995163467949 0 0.73135370988377701 0.68199835119979291 1 0 0 forward_v I I I I #
loop $-1 $-1 $307 $74 #
coedge $-1 $189 $189 $190 $308 reversed $115 $-1 #
coedge $-1 $190 $190 $189 $308 forward $117 $-1 #
coedge $-1 $191 $191 $118 $192 forward $186 $-1 #
edge $-1 $309 -2.33793943891594e-016 $309 6.2831853071796004 $191 $310 forward 7 unknown #
loop $-1 $-1 $198 $119 #
plane-surface $-1 -8.8168163985240042 -13.42438534050487 63.10995163467949 0 0.73135370988377701 0.68199835119979291 1 0 0 forward_v I I I I #
loop $-1 $-1 $311 $77 #
coedge $-1 $196 $196 $197 $312 reversed $120 $-1 #
coedge $-1 $197 $197 $196 $312 forward $122 $-1 #
coedge $-1 $198 $198 $123 $199 forward $193 $-1 #
edge $-1 $313 -2.33793943891594e-016 $313 6.2831853071796004 $198 $314 forward 7 unknown #
face $-1 $315 $316 $30 $-1 $317 reversed single #
loop $-1 $-1 $318 $124 #
plane-surface $-1 -55.330057679982907 0 0 1 0 0 0 0 -1 forward_v I I I I #
coedge $-1 $319 $211 $320 $321 forward $125 $-1 #
coedge $-1 $322 $127 $319 $323 forward $81 $-1 #
coedge $-1 $127 $322 $324 $325 forward $81 $-1 #
coedge $-1 $214 $213 $127 $207 reversed $215 $-1 #
edge $-1 $326 -36.880513620060015 $327 36.880513620060015 $206 $328 forward 7 unknown #
coedge $-1 $129 $128 $329 $330 forward $51 $-1 #
coedge $-1 $331 $332 $128 $210 reversed $316 $-1 #
edge $-1 $217 -55.330057679982907 $333 55.330057679982907 $209 $334 forward 7 unknown #
coedge $-1 $203 $335 $129 $212 reversed $125 $-1 #
edge $-1 $336 -55.330057679982907 $216 55.330057679982907 $211 $337 forward 7 unknown #
coedge $-1 $206 $130 $335 $338 forward $215 $-1 #
coedge $-1 $130 $206 $331 $339 reversed $215 $-1 #
loop $-1 $-1 $213 $315 #
vertex $-1 $131 $340 #
vertex $-1 $131 $341 #
straight-curve $-1 55.330057679982907 0 13.850761820035297 0 1 0 I I #
face $-1 $342 $343 $31 $-1 $344 reversed single #
loop $-1 $-1 $345 $132 #
plane-surface $-1 0 -36.880513620060015 0 0 1 0 0 0 1 forward_v I I I I #
coedge $-1 $225 $138 $346 $347 reversed $133 $-1 #
coedge $-1 $348 $135 $345 $349 reversed $85 $-1 #
coedge $-1 $135 $348 $350 $351 reversed $85 $-1 #
coedge $-1 $232 $222 $135 $226 reversed $133 $-1 #
edge $-1 $352 -36.880513620060015 $353 36.880513620060015 $225 $354 forward 7 unknown #
coedge $-1 $137 $136 $355 $356 reversed $54 $-1 #
coedge $-1 $357 $358 $136 $229 forward $359 $-1 #
edge $-1 $360 -31.45803969572227 $234 -16.285996272799004 $228 $361 forward 7 unknown #
coedge $-1 $362 $346 $137 $231 forward $220 $-1 #
edge $-1 $233 16.285996272799004 $363 31.45803969572227 $230 $364 forward 7 unknown #
coedge $-1 $138 $225 $357 $365 reversed $133 $-1 #
vertex $-1 $231 $366 #
vertex $-1 $229 $367 #
straight-curve $-1 -40.158014257059641 0 2.8360584067456873 0 1 0 I I #
face $-1 $368 $369 $32 $-1 $370 reversed single #
loop $-1 $-1 $371 $140 #
plane-surface $-1 55.330057679982907 0 0 -1 0 0 0 0 1 forward_v I I I I #
coedge $-1 $372 $373 $374 $375 reversed $141 $-1 #
coedge $-1 $146 $143 $376 $377 reversed $89 $-1 #
coedge $-1 $143 $146 $378 $379 reversed $89 $-1 #
coedge $-1 $373 $372 $143 $243 reversed $141 $-1 #
edge $-1 $380 -13.850761820035297 $381 13.850761820035297 $242 $382 forward 7 unknown #
coedge $-1 $145 $144 $371 $383 reversed $57 $-1 #
coedge $-1 $376 $384 $144 $246 forward $369 $-1 #
edge $-1 $385 -31.312270012393331 $250 -16.723305322785809 $245 $386 forward 7 unknown #
coedge $-1 $387 $378 $145 $248 forward $388 $-1 #
edge $-1 $249 16.723305322785809 $389 31.312270012393331 $247 $390 forward 7 unknown #
vertex $-1 $248 $391 #
vertex $-1 $246 $392 #
straight-curve $-1 40.741092990375378 -34.024611020698067 0 0 0 -1 I I #
face $-1 $-1 $264 $33 $-1 $393 forward single #
loop $-1 $-1 $394 $148 #
plane-surface $-1 0 -36.880513620060015 0 0 1 0 0 0 1 forward_v I I I I #
coedge $-1 $395 $396 $397 $398 reversed $149 $-1 #
coedge $-1 $399 $151 $153 $262 forward $93 $-1 #
coedge $-1 $151 $399 $395 $400 forward $93 $-1 #
coedge $-1 $397 $154 $151 $259 forward $264 $-1 #
edge $-1 $266 -0.71476790336088669 $401 13.141676219083706 $258 $402 forward 7 unknown #
coedge $-1 $403 $404 $152 $261 forward $253 $-1 #
edge $-1 $405 -39.49878805102793 $265 -32.649511175021864 $260 $406 forward 7 unknown #
edge $-1 $266 -10.883608553552058 $405 0 $153 $407 forward 7 unknown #
coedge $-1 $154 $397 $403 $408 forward $264 $-1 #
loop $-1 $-1 $397 $252 #
vertex $-1 $261 $409 #
vertex $-1 $155 $410 #
straight-curve $-1 -5.4986862545005231 -53.260590778390622 13.850761820035295 0 1 0 I I #
coedge $-1 $268 $268 $-1 $411 reversed $158 $-1 #
edge $-1 $412 0 $412 6.2831853071796004 $159 $413 forward 7 unknown #
vertex $-1 $162 $414 #
ellipse-curve $-1 -12.426908315722827 -32.651437437760862 10.426123382032261 0 -0.62932039886446345 0.77714595512881146 1.5 0 0 1 I I #
face $-1 $-1 $284 $35 $-1 $415 forward single #
loop $-1 $-1 $416 $163 #
plane-surface $-1 0 -36.880513620060015 0 0 1 0 0 0 1 forward_v I I I I #
coedge $-1 $417 $418 $419 $420 reversed $164 $-1 #
coedge $-1 $421 $166 $168 $282 forward $102 $-1 #
coedge $-1 $166 $421 $417 $422 forward $102 $-1 #
coedge $-1 $419 $169 $166 $279 forward $284 $-1 #
edge $-1 $286 -20.939544715219643 $423 -7.0831005927750539 $278 $424 forward 7 unknown #
coedge $-1 $425 $426 $167 $281 forward $273 $-1 #
edge $-1 $427 -39.49878805102793 $285 -32.649511175021864 $280 $428 forward 7 unknown #
edge $-1 $286 -10.883608553552058 $427 0 $168 $429 forward 7 unknown #
coedge $-1 $169 $419 $425 $430 forward $284 $-1 #
loop $-1 $-1 $419 $272 #
vertex $-1 $281 $431 #
vertex $-1 $170 $432 #
straight-curve $-1 34.950867369216994 -53.260590778390622 13.850761820035295 0 1 0 I I #
coedge $-1 $288 $288 $-1 $433 reversed $173 $-1 #
edge $-1 $434 0 $434 6.2831853071796004 $174 $435 forward 7 unknown #
vertex $-1 $177 $436 #
ellipse-curve $-1 28.022645307994686 -32.651437437760862 10.426123382032261 0 -0.62932039886446345 0.77714595512881146 1.5 0 0 1 I I #
face $-1 $-1 $437 $37 $-1 $438 reversed single #
loop $-1 $-1 $184 $178 #
plane-surface $-1 0 0 13.850761820035297 0 0 1 1 0 0 forward_v I I I I #
coedge $-1 $439 $440 $441 $442 reversed $179 $-1 #
coedge $-1 $443 $181 $183 $302 forward $111 $-1 #
coedge $-1 $181 $443 $439 $444 forward $111 $-1 #
coedge $-1 $441 $184 $181 $299 forward $293 $-1 #
edge $-1 $305 -14.560484496942301 $445 5.7436680984182971 $298 $446 forward 7 unknown #
coedge $-1 $447 $448 $182 $301 forward $437 $-1 #
edge $-1 $449 -60.125433209098162 $304 -55.43922210684223 $300 $450 forward 7 unknown #
edge $-1 $305 67.353442183908811 $449 73.761027240120029 $183 $451 forward 7 unknown #
coedge $-1 $184 $441 $447 $452 forward $293 $-1 #
vertex $-1 $301 $453 #
vertex $-1 $185 $454 #
straight-curve $-1 -18.968892696204303 33.753650282086433 13.850761820035295 0 -1 0 I I #
coedge $-1 $307 $307 $-1 $455 reversed $188 $-1 #
edge $-1 $456 0 $456 6.2831853071796004 $189 $457 forward 7 unknown #
vertex $-1 $192 $458 #
ellipse-curve $-1 -13.167706240386984 34.695532398305765 11.507656268907326 0 0.73135370988377701 0.68199835119979291 1.5 0 0 1 I I #
coedge $-1 $311 $311 $-1 $459 reversed $195 $-1 #
edge $-1 $460 0 $460 6.2831853071796004 $196 $461 forward 7 unknown #
vertex $-1 $199 $462 #
ellipse-curve $-1 -4.4659265566610102 34.695532398305765 11.507656268907326 0 0.73135370988377701 0.68199835119979291 1.5 0 0 1 I I #
face $-1 $-1 $215 $30 $-1 $463 reversed single #
loop $-1 $-1 $331 $200 #
plane-surface $-1 0 36.880513620060015 0 0 -1 0 0 0 -1 forward_v I I I I #
coedge $-1 $464 $329 $332 $465 forward $201 $-1 #
coedge $-1 $335 $203 $204 $323 reversed $125 $-1 #
coedge $-1 $329 $464 $203 $321 reversed $201 $-1 #
edge $-1 $336 -13.850761820035297 $466 13.850761820035297 $320 $467 forward 7 unknown #
coedge $-1 $205 $204 $464 $468 forward $81 $-1 #
edge $-1 $327 -55.330057679982907 $466 55.330057679982907 $319 $469 forward 7 unknown #
coedge $-1 $332 $331 $205 $325 reversed $316 $-1 #
edge $-1 $470 -55.330057679982907 $326 55.330057679982907 $324 $471 forward 7 unknown #
vertex $-1 $207 $472 #
vertex $-1 $338 $473 #
straight-curve $-1 55.330057679982907 0 -13.850761820035297 0 -1 0 I I #
coedge $-1 $318 $320 $208 $330 reversed $201 $-1 #
edge $-1 $333 -36.880513620060015 $336 36.880513620060015 $329 $474 forward 7 unknown #
coedge $-1 $324 $209 $214 $339 forward $316 $-1 #
coedge $-1 $209 $324 $318 $465 reversed $316 $-1 #
vertex $-1 $210 $475 #
straight-curve $-1 0 36.880513620060015 13.850761820035297 -1 0 0 I I #
coedge $-1 $211 $319 $213 $338 reversed $125 $-1 #
vertex $-1 $330 $476 #
straight-curve $-1 0 -36.880513620060015 13.850761820035297 1 0 0 I I #
edge $-1 $216 -13.850761820035297 $327 13.850761820035297 $213 $477 forward 7 unknown #
edge $-1 $217 -13.850761820035297 $326 13.850761820035297 $214 $478 forward 7 unknown #
point $-1 55.330057679982907 -36.880513620060015 13.850761820035297 #
point $-1 55.330057679982907 36.880513620060015 13.850761820035297 #
face $-1 $-1 $359 $31 $-1 $479 reversed single #
loop $-1 $-1 $480 $219 #
plane-surface $-1 -55.330057679982907 0 0 1 0 0 0 0 -1 forward_v I I I I #
coedge $-1 $346 $362 $223 $349 forward $220 $-1 #
coedge $-1 $230 $345 $222 $347 forward $220 $-1 #
edge $-1 $353 -2.5691108561196927 $233 2.7470758898703558 $346 $481 forward 7 unknown #
coedge $-1 $224 $223 $480 $482 reversed $85 $-1 #
edge $-1 $483 -31.45803969572227 $353 -16.285996272799004 $345 $484 forward 7 unknown #
coedge $-1 $358 $357 $224 $351 forward $359 $-1 #
edge $-1 $352 16.285996272799004 $485 31.45803969572227 $350 $486 forward 7 unknown #
vertex $-1 $351 $487 #
vertex $-1 $349 $488 #
straight-curve $-1 -40.158014257059641 0 -2.4801283392443612 0 -1 0 I I #
coedge $-1 $489 $490 $227 $356 forward $343 $-1 #
edge $-1 $363 -36.880513620060015 $360 36.880513620060015 $355 $491 forward 7 unknown #
coedge $-1 $350 $228 $232 $365 forward $359 $-1 #
coedge $-1 $228 $350 $489 $492 reversed $359 $-1 #
loop $-1 $-1 $350 $342 #
vertex $-1 $492 $493 #
straight-curve $-1 -23.872017984260637 36.880513620060015 2.8360584067456873 1 0 0 I I #
coedge $-1 $345 $230 $490 $494 forward $220 $-1 #
vertex $-1 $494 $495 #
straight-curve $-1 -23.872017984260637 -36.880513620060015 2.8360584067456873 -1 0 0 I I #
edge $-1 $234 -2.7470758898703558 $352 2.5691108561196927 $357 $496 forward 7 unknown #
point $-1 -40.158014257059641 -36.880513620060015 2.8360584067456873 #
point $-1 -40.158014257059641 36.880513620060015 2.8360584067456873 #
face $-1 $-1 $388 $32 $-1 $497 forward single #
loop $-1 $-1 $245 $236 #
plane-surface $-1 0 0 -13.850761820035297 0 0 1 1 0 0 forward_v I I I I #
coedge $-1 $498 $499 $244 $383 forward $237 $-1 #
coedge $-1 $242 $239 $500 $501 reversed $141 $-1 #
coedge $-1 $239 $242 $502 $503 reversed $141 $-1 #
coedge $-1 $499 $498 $239 $375 forward $237 $-1 #
edge $-1 $504 -13.850761820035297 $505 13.850761820035297 $374 $506 forward 7 unknown #
coedge $-1 $500 $245 $240 $377 forward $369 $-1 #
edge $-1 $250 -18.968519020552911 $381 -11.143664979737411 $376 $507 forward 7 unknown #
coedge $-1 $247 $502 $241 $379 forward $388 $-1 #
edge $-1 $380 11.143664979737411 $249 18.968519020552911 $378 $508 forward 7 unknown #
vertex $-1 $379 $509 #
vertex $-1 $377 $510 #
straight-curve $-1 40.741092990375378 -26.199756979882569 0 0 0 -1 I I #
edge $-1 $389 -13.850761820035297 $385 13.850761820035297 $371 $511 forward 7 unknown #
coedge $-1 $245 $500 $498 $512 forward $369 $-1 #
vertex $-1 $383 $513 #
straight-curve $-1 24.01778766758957 -34.024611020698067 -13.850761820035297 -1 0 0 I I #
coedge $-1 $502 $247 $499 $514 forward $388 $-1 #
loop $-1 $-1 $247 $368 #
vertex $-1 $514 $515 #
straight-curve $-1 24.01778766758957 -34.024611020698067 13.850761820035297 1 0 0 I I #
point $-1 40.741092990375378 -34.024611020698067 13.850761820035297 #
point $-1 40.741092990375378 -34.024611020698067 -13.850761820035297 #
plane-surface $-1 0 0 13.850761820035297 0 0 1 1 0 0 forward_v I I I I #
coedge $-1 $404 $403 $396 $516 forward $253 $-1 #
coedge $-1 $396 $255 $257 $400 reversed $149 $-1 #
coedge $-1 $255 $395 $394 $516 reversed $149 $-1 #
coedge $-1 $263 $258 $255 $398 forward $264 $-1 #
edge $-1 $401 -24.838229522928923 $517 -16.380077158330607 $397 $518 forward 7 unknown #
coedge $-1 $257 $256 $404 $519 reversed $93 $-1 #
edge $-1 $520 0 $401 10.883608553552058 $395 $521 forward 7 unknown #
vertex $-1 $259 $522 #
straight-curve $-1 -6.2134541578614098 -28.422361255461698 13.850761820035297 -1 0 0 I I #
coedge $-1 $394 $260 $263 $408 reversed $253 $-1 #
coedge $-1 $260 $394 $399 $519 forward $253 $-1 #
vertex $-1 $261 $523 #
straight-curve $-1 -5.4986862545005231 -36.880513620060015 46.500272995057159 0 0 1 I I #
straight-curve $-1 -5.4986862545005231 -36.880513620060015 7.0014849440292295 0 -0.77714595512881146 -0.62932039886446345 I I #
edge $-1 $517 -19.355130376945116 $265 -5.4986862545005231 $403 $524 forward 7 unknown #
point $-1 -5.4986862545005231 -36.880513620060015 13.850761820035297 #
point $-1 -5.4986862545005231 -28.422361255461698 13.850761820035297 #
edge $-1 $525 1 $525 0 $268 $-1 forward 7 unknown #
vertex $-1 $269 $526 #
ellipse-curve $-1 -12.426908315722827 -30.722365968216966 8.0439185585186568 0 -0.62932039886446345 0.77714595512881146 1.5 0 0 1 I I #
point $-1 -10.926908315722827 -32.651437437760869 10.426123382032269 #
plane-surface $-1 0 0 13.850761820035297 0 0 1 1 0 0 forward_v I I I I #
coedge $-1 $426 $425 $418 $527 forward $273 $-1 #
coedge $-1 $418 $275 $277 $422 reversed $164 $-1 #
coedge $-1 $275 $417 $416 $527 reversed $164 $-1 #
coedge $-1 $283 $278 $275 $420 forward $284 $-1 #
edge $-1 $423 -24.838229522928923 $528 -16.380077158330607 $419 $529 forward 7 unknown #
coedge $-1 $277 $276 $426 $530 reversed $102 $-1 #
edge $-1 $531 0 $423 10.883608553552058 $417 $532 forward 7 unknown #
vertex $-1 $279 $533 #
straight-curve $-1 14.01132265399735 -28.422361255461698 13.850761820035297 -1 0 0 I I #
coedge $-1 $416 $280 $283 $430 reversed $273 $-1 #
coedge $-1 $280 $416 $421 $530 forward $273 $-1 #
vertex $-1 $281 $534 #
straight-curve $-1 34.950867369216994 -36.880513620060015 46.500272995057159 0 0 1 I I #
straight-curve $-1 34.950867369216994 -36.880513620060015 7.0014849440292295 0 -0.77714595512881146 -0.62932039886446345 I I #
edge $-1 $528 21.094423246772404 $285 34.950867369216994 $425 $535 forward 7 unknown #
point $-1 34.950867369216994 -36.880513620060015 13.850761820035297 #
point $-1 34.950867369216994 -28.422361255461698 13.850761820035297 #
edge $-1 $536 1 $536 0 $288 $-1 forward 7 unknown #
vertex $-1 $289 $537 #
ellipse-curve $-1 28.022645307994686 -30.722365968216966 8.0439185585186568 0 -0.62932039886446345 0.77714595512881146 1.5 0 0 1 I I #
point $-1 29.522645307994686 -32.651437437760869 10.426123382032269 #
loop $-1 $-1 $300 $292 #
plane-surface $-1 0 36.880513620060015 0 0 -1 0 0 0 -1 forward_v I I I I #
coedge $-1 $440 $295 $297 $444 reversed $179 $-1 #
coedge $-1 $295 $439 $538 $539 reversed $179 $-1 #
coedge $-1 $303 $298 $295 $442 forward $293 $-1 #
edge $-1 $445 -1.2430991055349168 $540 3.1268633379735817 $441 $541 forward 7 unknown #
coedge $-1 $297 $296 $448 $542 reversed $111 $-1 #
edge $-1 $543 -73.761027240120029 $445 -67.353442183908811 $439 $544 forward 7 unknown #
vertex $-1 $299 $545 #
straight-curve $-1 -4.4084081992620021 32.510551176551523 13.850761820035295 1 0 0 I I #
coedge $-1 $538 $300 $303 $452 reversed $437 $-1 #
coedge $-1 $300 $538 $443 $542 forward $437 $-1 #
vertex $-1 $301 $546 #
straight-curve $-1 -18.968892696204303 36.880513620060015 69.289983926877525 0 0 1 I I #
straight-curve $-1 -18.968892696204303 -13.42438534050487 63.10995163467949 0 0.68199835119979291 -0.73135370988377701 I I #
edge $-1 $540 -1.3352598991562949 $304 18.968892696204303 $447 $547 forward 7 unknown #
point $-1 -18.968892696204303 36.880513620060015 13.850761820035297 #
point $-1 -18.968892696204303 32.510551176551516 13.850761820035295 #
edge $-1 $548 1 $548 0 $307 $-1 forward 7 unknown #
vertex $-1 $308 $549 #
ellipse-curve $-1 -13.167706240386984 33.150141186361196 10.066555684796889 0 0.73135370988377701 0.68199835119979291 1.5 0 0 1 I I #
point $-1 -11.667706240386984 34.695532398305772 11.507656268907333 #
edge $-1 $550 1 $550 0 $311 $-1 forward 7 unknown #
vertex $-1 $312 $551 #
ellipse-curve $-1 -4.4659265566610102 33.150141186361196 10.066555684796889 0 0.73135370988377701 0.68199835119979291 1.5 0 0 1 I I #
point $-1 -2.9659265566610102 34.695532398305772 11.507656268907333 #
plane-surface $-1 55.330057679982907 0 0 -1 0 0 0 0 1 forward_v I I I I #
coedge $-1 $320 $318 $322 $468 reversed $201 $-1 #
edge $-1 $333 -13.850761820035297 $470 13.850761820035297 $332 $552 forward 7 unknown #
vertex $-1 $468 $553 #
straight-curve $-1 -55.330057679982907 -36.880513620060015 0 0 0 -1 I I #
edge $-1 $466 -36.880513620060015 $470 36.880513620060015 $464 $554 forward 7 unknown #
straight-curve $-1 0 -36.880513620060015 -13.850761820035297 -1 0 0 I I #
vertex $-1 $325 $555 #
straight-curve $-1 0 36.880513620060015 -13.850761820035297 1 0 0 I I #
point $-1 55.330057679982907 36.880513620060015 -13.850761820035297 #
point $-1 55.330057679982907 -36.880513620060015 -13.850761820035297 #
straight-curve $-1 -55.330057679982907 0 13.850761820035297 0 -1 0 I I #
point $-1 -55.330057679982907 36.880513620060015 13.850761820035297 #
point $-1 -55.330057679982907 -36.880513620060015 13.850761820035297 #
straight-curve $-1 55.330057679982907 -36.880513620060015 0 0 0 -1 I I #
straight-curve $-1 55.330057679982907 36.880513620060015 0 0 0 -1 I I #
plane-surface $-1 0 36.880513620060015 0 0 -1 0 0 0 -1 forward_v I I I I #
coedge $-1 $490 $489 $348 $482 forward $343 $-1 #
straight-curve $-1 -40.158014257059641 -36.880513620060015 0.088982516875331541 0 0 1 I I #
edge $-1 $485 -36.880513620060015 $483 36.880513620060015 $480 $556 forward 7 unknown #
vertex $-1 $349 $557 #
straight-curve $-1 -23.872017984260637 -36.880513620060015 -2.4801283392443612 1 0 0 I I #
vertex $-1 $351 $558 #
straight-curve $-1 -23.872017984260637 36.880513620060015 -2.4801283392443612 -1 0 0 I I #
point $-1 -40.158014257059641 36.880513620060015 -2.4801283392443612 #
point $-1 -40.158014257059641 -36.880513620060015 -2.4801283392443612 #
coedge $-1 $480 $355 $358 $492 forward $343 $-1 #
coedge $-1 $355 $480 $362 $494 reversed $343 $-1 #
straight-curve $-1 -55.330057679982907 0 2.8360584067456873 0 1 0 I I #
edge $-1 $360 -2.8360584067456873 $485 2.4801283392443612 $358 $559 forward 7 unknown #
point $-1 -55.330057679982907 36.880513620060015 2.8360584067456873 #
edge $-1 $363 -2.8360584067456873 $483 2.4801283392443612 $490 $560 forward 7 unknown #
point $-1 -55.330057679982907 -36.880513620060015 2.8360584067456873 #
straight-curve $-1 -40.158014257059641 36.880513620060015 0.088982516875331541 0 0 -1 I I #
plane-surface $-1 0 0 13.850761820035297 0 0 1 1 0 0 forward_v I I I I #
coedge $-1 $374 $371 $384 $512 reversed $237 $-1 #
coedge $-1 $371 $374 $387 $514 reversed $237 $-1 #
coedge $-1 $384 $376 $372 $501 forward $369 $-1 #
edge $-1 $381 16.723305322785809 $504 31.312270012393331 $500 $561 forward 7 unknown #
coedge $-1 $378 $387 $373 $503 forward $388 $-1 #
edge $-1 $505 -31.312270012393331 $380 -16.723305322785809 $502 $562 forward 7 unknown #
vertex $-1 $512 $563 #
vertex $-1 $375 $564 #
straight-curve $-1 55.330057679982907 -26.199756979882569 0 0 0 1 I I #
straight-curve $-1 40.741092990375378 -15.056092000145158 -13.850761820035297 0 1 0 I I #
straight-curve $-1 40.741092990375378 -15.056092000145158 13.850761820035297 0 -1 0 I I #
point $-1 40.741092990375378 -26.199756979882569 13.850761820035297 #
point $-1 40.741092990375378 -26.199756979882569 -13.850761820035297 #
straight-curve $-1 55.330057679982907 -34.024611020698067 0 0 0 -1 I I #
edge $-1 $504 26.199756979882569 $385 34.024611020698067 $498 $565 forward 7 unknown #
point $-1 55.3300576799829 -34.024611020698067 -13.850761820035297 #
edge $-1 $389 -34.024611020698067 $505 -26.199756979882569 $499 $566 forward 7 unknown #
point $-1 55.3300576799829 -34.024611020698067 13.850761820035297 #
edge $-1 $517 32.649511175021864 $520 39.49878805102793 $394 $567 forward 7 unknown #
vertex $-1 $408 $568 #
straight-curve $-1 -19.355130376945116 -53.260590778390622 13.850761820035295 0 -1 0 I I #
edge $-1 $520 -13.141676219083706 $405 0.71476790336088669 $404 $569 forward 7 unknown #
vertex $-1 $519 $570 #
straight-curve $-1 -19.355130376945116 -36.880513620060015 7.0014849440292295 0 0.77714595512881146 0.62932039886446345 I I #
point $-1 -19.355130376945116 -28.422361255461698 13.850761820035297 #
point $-1 -5.4986862545005231 -36.880513620060015 7.0014849440292295 #
straight-curve $-1 0 -36.880513620060015 13.850761820035297 1 0 0 I I #
vertex $-1 $411 $571 #
point $-1 -10.926908315722827 -30.722365968216966 8.0439185585186568 #
edge $-1 $528 32.649511175021864 $531 39.49878805102793 $416 $572 forward 7 unknown #
vertex $-1 $430 $573 #
straight-curve $-1 21.094423246772404 -53.260590778390622 13.850761820035295 0 -1 0 I I #
edge $-1 $531 7.0831005927750539 $427 20.939544715219643 $426 $574 forward 7 unknown #
vertex $-1 $530 $575 #
straight-curve $-1 21.094423246772404 -36.880513620060015 7.0014849440292295 0 0.77714595512881146 0.62932039886446345 I I #
point $-1 21.094423246772404 -28.422361255461698 13.850761820035297 #
point $-1 34.950867369216994 -36.880513620060015 7.0014849440292295 #
straight-curve $-1 0 -36.880513620060015 13.850761820035297 1 0 0 I I #
vertex $-1 $433 $576 #
point $-1 29.522645307994686 -30.722365968216966 8.0439185585186568 #
coedge $-1 $448 $447 $440 $539 forward $437 $-1 #
edge $-1 $540 55.43922210684223 $543 60.125433209098162 $538 $577 forward 7 unknown #
vertex $-1 $452 $578 #
straight-curve $-1 1.3352598991562949 33.753650282086433 13.850761820035295 0 1 0 I I #
edge $-1 $543 -5.7436680984182971 $449 14.560484496942301 $448 $579 forward 7 unknown #
vertex $-1 $542 $580 #
straight-curve $-1 1.3352598991562949 -13.42438534050487 63.10995163467949 0 -0.68199835119979291 0.73135370988377701 I I #
point $-1 1.3352598991562949 32.510551176551516 13.850761820035295 #
point $-1 -18.968892696204303 36.880513620060007 9.1645507177793633 #
straight-curve $-1 0 36.880513620060015 13.850761820035297 -1 0 0 I I #
vertex $-1 $455 $581 #
point $-1 -11.667706240386984 33.150141186361196 10.066555684796889 #
vertex $-1 $459 $582 #
point $-1 -2.9659265566610102 33.150141186361196 10.066555684796889 #
straight-curve $-1 -55.330057679982907 36.880513620060015 0 0 0 -1 I I #
point $-1 -55.330057679982907 -36.880513620060015 -13.850761820035297 #
straight-curve $-1 -55.330057679982907 0 -13.850761820035297 0 1 0 I I #
point $-1 -55.330057679982907 36.880513620060015 -13.850761820035297 #
straight-curve $-1 -55.330057679982907 0 -2.4801283392443612 0 -1 0 I I #
point $-1 -55.330057679982907 -36.880513620060015 -2.4801283392443612 #
point $-1 -55.330057679982907 36.880513620060015 -2.4801283392443612 #
straight-curve $-1 -55.330057679982907 36.880513620060015 0 0 0 -1 I I #
straight-curve $-1 -55.330057679982907 -36.880513620060015 0 0 0 -1 I I #
straight-curve $-1 24.01778766758957 -26.199756979882569 -13.850761820035297 1 0 0 I I #
straight-curve $-1 24.01778766758957 -26.199756979882569 13.850761820035297 -1 0 0 I I #
point $-1 55.3300576799829 -26.199756979882569 -13.850761820035297 #
point $-1 55.3300576799829 -26.199756979882569 13.850761820035297 #
straight-curve $-1 55.330057679982907 0 -13.850761820035297 0 -1 0 I I #
straight-curve $-1 55.330057679982907 0 13.850761820035297 0 1 0 I I #
straight-curve $-1 -19.355130376945116 -36.880513620060015 46.500272995057159 0 0 -1 I I #
point $-1 -19.355130376945116 -36.880513620060015 13.850761820035297 #
straight-curve $-1 -6.2134541578614098 -36.880513620060015 7.0014849440292304 1 0 0 I I #
point $-1 -19.355130376945116 -36.880513620060015 7.0014849440292295 #
point $-1 -12.426908315722827 -29.778385369920269 6.8781996258254399 #
straight-curve $-1 21.094423246772404 -36.880513620060015 46.500272995057159 0 0 -1 I I #
point $-1 21.094423246772404 -36.880513620060015 13.850761820035297 #
straight-curve $-1 14.01132265399735 -36.880513620060015 7.0014849440292304 1 0 0 I I #
point $-1 21.094423246772404 -36.880513620060015 7.0014849440292295 #
point $-1 28.022645307994686 -29.778385369920269 6.8781996258254399 #
straight-curve $-1 1.3352598991562949 36.880513620060015 69.289983926877525 0 0 -1 I I #
point $-1 1.3352598991562949 36.880513620060015 13.850761820035297 #
straight-curve $-1 -4.4084081992620021 36.880513620060015 9.1645507177793561 -1 0 0 I I #
point $-1 1.3352598991562949 36.880513620060007 9.1645507177793633 #
point $-1 -13.167706240386984 32.053110621535524 9.0435581579972002 #
point $-1 -4.4659265566610102 32.053110621535524 9.0435581579972002 #
End-of-ACIS-data 