500 0 5 0           
7 Unknown 11 ACIS 5.0 NT 24 Thu Mar 25 22:54:04 1999 
-1 9.9999999999999995e-007 1e-010 
body $-1 $5 $-1 $6 #
body $-1 $7 $-1 $8 #
body $-1 $9 $-1 $10 #
body $-1 $11 $-1 $12 #
body $-1 $13 $-1 $14 #
lump $-1 $-1 $15 $0 #
transform $-1 1 0 0 0 1 0 0 0 1 60.405896176030765 38.342544431471559 13.794282380930794 1 rotate no_reflect no_shear #
lump $-1 $-1 $16 $1 #
transform $-1 1 0 0 0 1 0 0 0 1 60.405896176030765 38.342544431471559 13.794282380930794 1 rotate no_reflect no_shear #
lump $-1 $-1 $17 $2 #
transform $-1 1 0 0 0 1 0 0 0 1 60.405896176030765 38.342544431471559 13.794282380930794 1 rotate no_reflect no_shear #
lump $-1 $-1 $18 $3 #
transform $-1 1 0 0 0 1 0 0 0 1 60.405896176030765 38.342544431471559 13.794282380930794 1 rotate no_reflect no_shear #
lump $-1 $-1 $19 $4 #
transform $-1 1 0 0 0 1 0 0 0 1 60.405896176030765 38.342544431471559 13.794282380930794 1 rotate no_reflect no_shear #
shell $-1 $-1 $-1 $20 $-1 $5 #
shell $-1 $-1 $-1 $21 $-1 $7 #
shell $-1 $-1 $-1 $22 $-1 $9 #
shell $-1 $-1 $-1 $23 $-1 $11 #
shell $-1 $-1 $-1 $24 $-1 $13 #
face $-1 $25 $26 $15 $-1 $27 forward single #
face $-1 $28 $29 $16 $-1 $30 reversed single #
face $-1 $31 $32 $17 $-1 $33 reversed single #
face $-1 $34 $35 $18 $-1 $36 forward single #
face $-1 $37 $38 $19 $-1 $39 forward single #
face $-1 $40 $41 $15 $-1 $42 reversed single #
loop $-1 $-1 $43 $20 #
plane-surface $-1 0 0 13.794282380930794 0 0 1 1 0 0 forward_v I I I I #
face $-1 $44 $45 $16 $-1 $46 reversed single #
loop $-1 $-1 $47 $21 #
plane-surface $-1 -54.83311049740724 -16.191116870533875 0 0 1 0 0 0 1 forward_v I I I I #
face $-1 $48 $49 $17 $-1 $50 reversed single #
loop $-1 $-1 $51 $22 #
plane-surface $-1 1.8351786664275664 -31.36431133973046 114.14740907762169 0.87461971476443456 0 0.48480960649040278 0.48480960649040278 0 -0.87461971476443456 forward_v I I I I #
face $-1 $52 $53 $18 $-1 $54 forward single #
loop $-1 $55 $56 $23 #
cone-surface $-1 57.302025352927259 -34.35498266476236 10.234117572132327 -0.87461971476443456 0 -0.48480960649040278 0.72721440973560414 0 -1.311929572146652 1 I I 0 1 1.5 forward I I I I #
face $-1 $57 $58 $19 $-1 $59 forward single #
loop $-1 $60 $61 $24 #
cone-surface $-1 57.302025352927259 -28.373640014698559 10.234117572132327 -0.87461971476443456 0 -0.48480960649040278 0.72721440973560414 0 -1.311929572146652 1 I I 0 1 1.5 forward I I I I #
face $-1 $62 $63 $15 $-1 $64 reversed single #
loop $-1 $-1 $65 $25 #
plane-surface $-1 0 0 -13.794282380930794 0 0 1 1 0 0 forward_v I I I I #
coedge $-1 $66 $67 $68 $69 forward $26 $-1 #
face $-1 $70 $71 $16 $-1 $72 reversed single #
loop $-1 $-1 $73 $28 #
plane-surface $-1 -54.83311049740724 -10.753979669609974 0 0 -1 0 0 0 -1 forward_v I I I I #
coedge $-1 $74 $75 $76 $77 reversed $29 $-1 #
face $-1 $78 $79 $17 $-1 $80 reversed single #
loop $-1 $-1 $81 $31 #
plane-surface $-1 107.49955403356772 -24.38607824798936 172.7181265872249 0 -1 0 -0.87461971476443456 0 -0.48480960649040278 forward_v I I I I #
coedge $-1 $82 $83 $84 $85 reversed $32 $-1 #
face $-1 $-1 $86 $18 $-1 $87 forward single #
loop $-1 $88 $89 $34 #
cone-surface $-1 55.014226295422887 -34.35498266476236 8.9659698936906853 -0.87461971476443456 0 -0.48480960649040278 0.36360720486780207 0 -0.65596478607332598 1 I I -0.70710678118654757 0.70710678118654757 0.75 forward I I I I #
loop $-1 $-1 $90 $23 #
coedge $-1 $56 $56 $91 $92 reversed $35 $-1 #
face $-1 $-1 $93 $19 $-1 $94 forward single #
loop $-1 $95 $96 $37 #
cone-surface $-1 55.014226295422887 -28.373640014698559 8.9659698936906853 -0.87461971476443456 0 -0.48480960649040278 0.36360720486780207 0 -0.65596478607332598 1 I I -0.70710678118654757 0.70710678118654757 0.75 forward I I I I #
loop $-1 $-1 $97 $24 #
coedge $-1 $61 $61 $98 $99 reversed $38 $-1 #
face $-1 $100 $101 $15 $-1 $102 reversed single #
loop $-1 $-1 $103 $40 #
plane-surface $-1 0 -38.342544431471559 0 0 1 0 0 0 1 forward_v I I I I #
coedge $-1 $104 $105 $106 $107 forward $41 $-1 #
coedge $-1 $108 $43 $109 $110 forward $26 $-1 #
coedge $-1 $43 $108 $111 $112 forward $26 $-1 #
coedge $-1 $113 $114 $43 $69 reversed $115 $-1 #
edge $-1 $116 -38.342544431471559 $117 38.342544431471559 $68 $118 forward 7 unknown #
face $-1 $119 $120 $16 $-1 $121 reversed single #
loop $-1 $-1 $122 $44 #
plane-surface $-1 -49.260324818783715 -13.472548270071925 0 -1 0 0 0 0 1 forward_v I I I I #
coedge $-1 $123 $124 $125 $126 forward $45 $-1 #
coedge $-1 $127 $47 $128 $129 reversed $29 $-1 #
coedge $-1 $47 $127 $130 $131 reversed $29 $-1 #
coedge $-1 $132 $133 $47 $77 forward $134 $-1 #
edge $-1 $135 -13.794282380930794 $136 13.794282380930794 $76 $137 forward 7 unknown #
face $-1 $138 $139 $17 $-1 $140 forward single #
loop $-1 $-1 $84 $48 #
plane-surface $-1 60.405896176030765 0 0 -1 0 0 0 0 1 forward_v I I I I #
coedge $-1 $141 $142 $143 $144 reversed $49 $-1 #
coedge $-1 $145 $51 $146 $147 reversed $32 $-1 #
coedge $-1 $51 $145 $141 $148 forward $32 $-1 #
coedge $-1 $143 $149 $51 $85 forward $79 $-1 #
edge $-1 $150 -22.660388761606328 $151 -8.7039225781241303 $84 $152 forward 7 unknown #
loop $-1 $-1 $91 $52 #
plane-surface $-1 1.8351786664275664 -31.36431133973046 114.14740907762169 0.87461971476443456 0 0.48480960649040278 0.48480960649040278 0 -0.87461971476443456 forward_v I I I I #
loop $-1 $-1 $153 $34 #
coedge $-1 $89 $89 $90 $154 reversed $53 $-1 #
coedge $-1 $90 $90 $89 $154 forward $55 $-1 #
coedge $-1 $91 $91 $56 $92 forward $86 $-1 #
edge $-1 $155 0 $155 6.2831853071796004 $91 $156 forward 7 unknown #
loop $-1 $-1 $98 $57 #
plane-surface $-1 1.8351786664275664 -31.36431133973046 114.14740907762169 0.87461971476443456 0 0.48480960649040278 0.48480960649040278 0 -0.87461971476443456 forward_v I I I I #
loop $-1 $-1 $157 $37 #
coedge $-1 $96 $96 $97 $158 reversed $58 $-1 #
coedge $-1 $97 $97 $96 $158 forward $60 $-1 #
coedge $-1 $98 $98 $61 $99 forward $93 $-1 #
edge $-1 $159 0 $159 6.2831853071796004 $98 $160 forward 7 unknown #
face $-1 $161 $162 $15 $-1 $163 reversed single #
loop $-1 $-1 $164 $62 #
plane-surface $-1 -60.405896176030765 0 0 1 0 0 0 0 -1 forward_v I I I I #
coedge $-1 $165 $111 $166 $167 forward $63 $-1 #
coedge $-1 $168 $65 $165 $169 forward $41 $-1 #
coedge $-1 $65 $168 $170 $171 forward $41 $-1 #
coedge $-1 $114 $113 $65 $107 reversed $115 $-1 #
edge $-1 $172 -38.342544431471559 $173 38.342544431471559 $106 $174 forward 7 unknown #
coedge $-1 $67 $66 $175 $176 forward $26 $-1 #
coedge $-1 $177 $178 $66 $110 reversed $162 $-1 #
edge $-1 $117 -60.405896176030765 $179 60.405896176030765 $109 $180 forward 7 unknown #
coedge $-1 $103 $181 $67 $112 reversed $63 $-1 #
edge $-1 $182 -60.405896176030765 $116 60.405896176030765 $111 $183 forward 7 unknown #
coedge $-1 $106 $68 $181 $184 forward $115 $-1 #
coedge $-1 $68 $106 $177 $185 reversed $115 $-1 #
loop $-1 $-1 $113 $161 #
vertex $-1 $69 $186 #
vertex $-1 $69 $187 #
straight-curve $-1 60.405896176030765 0 13.794282380930794 0 1 0 I I #
face $-1 $188 $189 $16 $-1 $190 forward single #
loop $-1 $-1 $191 $70 #
plane-surface $-1 0 0 -13.794282380930794 0 0 1 1 0 0 forward_v I I I I #
coedge $-1 $192 $193 $127 $194 forward $71 $-1 #
coedge $-1 $195 $73 $191 $196 reversed $45 $-1 #
coedge $-1 $73 $195 $197 $198 reversed $45 $-1 #
coedge $-1 $193 $192 $73 $126 reversed $71 $-1 #
edge $-1 $199 -13.794282380930794 $200 13.794282380930794 $125 $201 forward 7 unknown #
coedge $-1 $75 $74 $122 $194 reversed $29 $-1 #
coedge $-1 $202 $203 $74 $129 forward $120 $-1 #
edge $-1 $204 21.843769570080095 $135 32.989340927327149 $128 $205 forward 7 unknown #
coedge $-1 $206 $207 $75 $131 forward $189 $-1 #
edge $-1 $136 -32.989340927327149 $208 -21.843769570080095 $130 $209 forward 7 unknown #
coedge $-1 $210 $76 $207 $211 reversed $134 $-1 #
coedge $-1 $76 $210 $202 $212 reversed $134 $-1 #
loop $-1 $-1 $210 $188 #
vertex $-1 $212 $213 #
vertex $-1 $77 $214 #
straight-curve $-1 -60.405896176030765 -16.191116870533875 0 0 0 1 I I #
face $-1 $-1 $215 $17 $-1 $216 reversed single #
loop $-1 $-1 $217 $78 #
plane-surface $-1 0 0 13.794282380930794 0 0 1 1 0 0 forward_v I I I I #
coedge $-1 $142 $81 $83 $148 reversed $49 $-1 #
coedge $-1 $81 $141 $218 $219 reversed $49 $-1 #
coedge $-1 $220 $84 $81 $144 forward $79 $-1 #
edge $-1 $151 -77.876029583130901 $221 -72.564780912681655 $143 $222 forward 7 unknown #
coedge $-1 $83 $82 $217 $223 reversed $32 $-1 #
coedge $-1 $224 $225 $82 $147 forward $215 $-1 #
edge $-1 $226 65.266223571429407 $150 71.338861291332336 $146 $227 forward 7 unknown #
edge $-1 $228 114.73915463215859 $151 120.81179235206152 $141 $229 forward 7 unknown #
coedge $-1 $84 $220 $224 $230 forward $79 $-1 #
vertex $-1 $147 $231 #
vertex $-1 $85 $232 #
straight-curve $-1 60.405896176030765 -15.68215566986523 8.483033710481557 0 1 0 I I #
coedge $-1 $153 $153 $-1 $233 reversed $88 $-1 #
edge $-1 $234 0 $234 6.2831853071796004 $89 $235 forward 7 unknown #
vertex $-1 $92 $236 #
ellipse-curve $-1 58.933859624358305 -34.35498266476236 11.138658045706165 0.87461971476443456 0 0.48480960649040278 0.72721440973560414 0 -1.311929572146652 1 I I #
coedge $-1 $157 $157 $-1 $237 reversed $95 $-1 #
edge $-1 $238 0 $238 6.2831853071796004 $96 $239 forward 7 unknown #
vertex $-1 $99 $240 #
ellipse-curve $-1 58.933859624358305 -28.373640014698559 11.138658045706165 0.87461971476443456 0 0.48480960649040278 0.72721440973560414 0 -1.311929572146652 1 I I #
face $-1 $-1 $115 $15 $-1 $241 reversed single #
loop $-1 $-1 $177 $100 #
plane-surface $-1 0 38.342544431471559 0 0 -1 0 0 0 -1 forward_v I I I I #
coedge $-1 $242 $175 $178 $243 forward $101 $-1 #
coedge $-1 $181 $103 $104 $169 reversed $63 $-1 #
coedge $-1 $175 $242 $103 $167 reversed $101 $-1 #
edge $-1 $182 -13.794282380930794 $244 13.794282380930794 $166 $245 forward 7 unknown #
coedge $-1 $105 $104 $242 $246 forward $41 $-1 #
edge $-1 $173 -60.405896176030765 $244 60.405896176030765 $165 $247 forward 7 unknown #
coedge $-1 $178 $177 $105 $171 reversed $162 $-1 #
edge $-1 $248 -60.405896176030765 $172 60.405896176030765 $170 $249 forward 7 unknown #
vertex $-1 $107 $250 #
vertex $-1 $184 $251 #
straight-curve $-1 60.405896176030765 0 -13.794282380930794 0 -1 0 I I #
coedge $-1 $164 $166 $108 $176 reversed $101 $-1 #
edge $-1 $179 -38.342544431471559 $182 38.342544431471559 $175 $252 forward 7 unknown #
coedge $-1 $170 $109 $114 $185 forward $162 $-1 #
coedge $-1 $109 $170 $164 $243 reversed $162 $-1 #
vertex $-1 $110 $253 #
straight-curve $-1 0 38.342544431471559 13.794282380930794 -1 0 0 I I #
coedge $-1 $111 $165 $113 $184 reversed $63 $-1 #
vertex $-1 $176 $254 #
straight-curve $-1 0 -38.342544431471559 13.794282380930794 1 0 0 I I #
edge $-1 $116 -13.794282380930794 $173 13.794282380930794 $113 $255 forward 7 unknown #
edge $-1 $117 -13.794282380930794 $172 13.794282380930794 $114 $256 forward 7 unknown #
point $-1 60.405896176030765 -38.342544431471559 13.794282380930794 #
point $-1 60.405896176030765 38.342544431471559 13.794282380930794 #
face $-1 $-1 $134 $16 $-1 $257 reversed single #
loop $-1 $-1 $197 $119 #
plane-surface $-1 0 0 13.794282380930794 0 0 1 1 0 0 forward_v I I I I #
coedge $-1 $203 $202 $123 $196 forward $120 $-1 #
coedge $-1 $125 $122 $203 $258 reversed $71 $-1 #
coedge $-1 $122 $125 $206 $259 reversed $71 $-1 #
edge $-1 $208 -13.794282380930794 $204 13.794282380930794 $122 $260 forward 7 unknown #
coedge $-1 $124 $123 $210 $261 reversed $45 $-1 #
edge $-1 $262 -32.989340927327149 $200 -21.843769570080095 $191 $263 forward 7 unknown #
coedge $-1 $207 $206 $124 $198 forward $189 $-1 #
edge $-1 $199 21.843769570080095 $264 32.989340927327149 $197 $265 forward 7 unknown #
vertex $-1 $198 $266 #
vertex $-1 $196 $267 #
straight-curve $-1 -49.260324818783715 -10.753979669609974 0 0 0 -1 I I #
coedge $-1 $191 $128 $133 $212 forward $120 $-1 #
coedge $-1 $128 $191 $192 $258 forward $120 $-1 #
vertex $-1 $129 $268 #
straight-curve $-1 -27.41655524870362 -16.191116870533875 -13.794282380930794 -1 0 0 I I #
coedge $-1 $197 $130 $193 $259 forward $189 $-1 #
coedge $-1 $130 $197 $132 $211 forward $189 $-1 #
vertex $-1 $131 $269 #
straight-curve $-1 -27.41655524870362 -16.191116870533875 13.794282380930794 1 0 0 I I #
coedge $-1 $133 $132 $195 $261 forward $134 $-1 #
edge $-1 $264 10.753979669609974 $136 16.191116870533875 $132 $270 forward 7 unknown #
edge $-1 $135 -16.191116870533875 $262 -10.753979669609974 $133 $271 forward 7 unknown #
point $-1 -60.405896176030765 -16.191116870533875 -13.794282380930794 #
point $-1 -60.405896176030765 -16.191116870533875 13.794282380930794 #
loop $-1 $-1 $146 $138 #
plane-surface $-1 0 -38.342544431471559 0 0 1 0 0 0 1 forward_v I I I I #
coedge $-1 $272 $218 $145 $223 forward $139 $-1 #
coedge $-1 $217 $273 $142 $219 forward $139 $-1 #
edge $-1 $221 -6.6561191592469058 $228 -3.7120460559019861 $218 $274 forward 7 unknown #
coedge $-1 $149 $143 $273 $275 reversed $79 $-1 #
vertex $-1 $144 $276 #
straight-curve $-1 60.405896176030765 -24.38607824798936 86.359063293612451 0 0 1 I I #
edge $-1 $228 8.7039225781241303 $226 22.660388761606328 $217 $277 forward 7 unknown #
coedge $-1 $225 $146 $149 $230 reversed $215 $-1 #
coedge $-1 $146 $224 $272 $278 reversed $215 $-1 #
vertex $-1 $278 $279 #
straight-curve $-1 25.82013090590651 -38.342544431471559 70.877408224726196 0.48480960649040278 0 -0.87461971476443456 I I #
vertex $-1 $223 $280 #
straight-curve $-1 1.8351786664275664 -24.38607824798936 114.14740907762169 0.48480960649040278 0 -0.87461971476443456 I I #
edge $-1 $281 -13.794282380930794 $150 -8.4830337104815463 $149 $282 forward 7 unknown #
point $-1 60.405896176030765 -38.342544431471559 8.4830337104815463 #
point $-1 60.405896176030765 -24.38607824798936 8.4830337104815499 #
edge $-1 $283 1 $283 0 $153 $-1 forward 7 unknown #
vertex $-1 $154 $284 #
ellipse-curve $-1 55.670191081496213 -34.35498266476236 9.329577098558488 0.87461971476443456 0 0.48480960649040278 0.72721440973560414 0 -1.311929572146652 1 I I #
point $-1 59.661074034093907 -34.35498266476236 9.8267284735595162 #
edge $-1 $285 1 $285 0 $157 $-1 forward 7 unknown #
vertex $-1 $158 $286 #
ellipse-curve $-1 55.670191081496213 -28.373640014698559 9.329577098558488 0.87461971476443456 0 0.48480960649040278 0.72721440973560414 0 -1.311929572146652 1 I I #
point $-1 59.661074034093907 -28.373640014698559 9.8267284735595162 #
plane-surface $-1 60.405896176030765 0 0 -1 0 0 0 0 1 forward_v I I I I #
coedge $-1 $166 $164 $168 $246 reversed $101 $-1 #
edge $-1 $179 -13.794282380930794 $248 13.794282380930794 $178 $287 forward 7 unknown #
vertex $-1 $246 $288 #
straight-curve $-1 -60.405896176030765 -38.342544431471559 0 0 0 -1 I I #
edge $-1 $244 -38.342544431471559 $248 38.342544431471559 $242 $289 forward 7 unknown #
straight-curve $-1 0 -38.342544431471559 -13.794282380930794 -1 0 0 I I #
vertex $-1 $171 $290 #
straight-curve $-1 0 38.342544431471559 -13.794282380930794 1 0 0 I I #
point $-1 60.405896176030765 38.342544431471559 -13.794282380930794 #
point $-1 60.405896176030765 -38.342544431471559 -13.794282380930794 #
straight-curve $-1 -60.405896176030765 0 13.794282380930794 0 -1 0 I I #
point $-1 -60.405896176030765 38.342544431471559 13.794282380930794 #
point $-1 -60.405896176030765 -38.342544431471559 13.794282380930794 #
straight-curve $-1 60.405896176030765 -38.342544431471559 0 0 0 -1 I I #
straight-curve $-1 60.405896176030765 38.342544431471559 0 0 0 -1 I I #
plane-surface $-1 -60.405896176030765 0 0 1 0 0 0 0 -1 forward_v I I I I #
edge $-1 $200 4.0177055345740111 $204 9.4548427354979125 $203 $291 forward 7 unknown #
edge $-1 $208 -9.4548427354979125 $199 -4.0177055345740111 $206 $292 forward 7 unknown #
straight-curve $-1 -49.260324818783715 -16.191116870533875 0 0 0 -1 I I #
edge $-1 $264 -13.794282380930794 $262 13.794282380930794 $210 $293 forward 7 unknown #
vertex $-1 $261 $294 #
straight-curve $-1 -27.41655524870362 -10.753979669609974 -13.794282380930794 1 0 0 I I #
vertex $-1 $211 $295 #
straight-curve $-1 -27.41655524870362 -10.753979669609974 13.794282380930794 -1 0 0 I I #
point $-1 -49.260324818783715 -10.753979669609974 13.794282380930794 #
point $-1 -49.260324818783715 -10.753979669609974 -13.794282380930794 #
point $-1 -49.260324818783715 -16.191116870533875 -13.794282380930794 #
point $-1 -49.260324818783715 -16.191116870533875 13.794282380930794 #
straight-curve $-1 -60.405896176030765 0 13.794282380930794 0 -1 0 I I #
straight-curve $-1 -60.405896176030765 0 -13.794282380930794 0 1 0 I I #
coedge $-1 $273 $217 $225 $278 forward $139 $-1 #
coedge $-1 $218 $272 $220 $275 forward $139 $-1 #
straight-curve $-1 53.74977701678386 -24.38607824798936 13.794282380930795 -1 0 0 I I #
edge $-1 $281 -38.342544431471559 $221 -24.38607824798936 $220 $296 forward 7 unknown #
point $-1 60.405896176030765 -24.38607824798936 13.794282380930794 #
straight-curve $-1 57.461823072685846 -15.68215566986523 13.794282380930802 0 -1 0 I I #
edge $-1 $226 57.461823072685846 $281 60.405896176030765 $225 $297 forward 7 unknown #
point $-1 57.461823072685846 -38.342544431471559 13.794282380930795 #
point $-1 57.461823072685846 -24.38607824798936 13.794282380930795 #
vertex $-1 $275 $298 #
straight-curve $-1 60.405896176030765 -38.342544431471559 0 0 0 -1 I I #
vertex $-1 $233 $299 #
point $-1 56.397405491231815 -34.35498266476236 8.0176475264118352 #
vertex $-1 $237 $300 #
point $-1 56.397405491231815 -28.373640014698559 8.0176475264118352 #
straight-curve $-1 -60.405896176030765 38.342544431471559 0 0 0 -1 I I #
point $-1 -60.405896176030765 -38.342544431471559 -13.794282380930794 #
straight-curve $-1 -60.405896176030765 0 -13.794282380930794 0 1 0 I I #
point $-1 -60.405896176030765 38.342544431471559 -13.794282380930794 #
straight-curve $-1 -49.260324818783715 -6.7362741350359627 -13.794282380930794 0 -1 0 I I #
straight-curve $-1 -49.260324818783715 -6.7362741350359627 13.794282380930794 0 1 0 I I #
straight-curve $-1 -60.405896176030765 -10.753979669609974 0 0 0 -1 I I #
point $-1 -60.405896176030765 -10.753979669609974 -13.794282380930794 #
point $-1 -60.405896176030765 -10.753979669609974 13.794282380930794 #
straight-curve $-1 60.405896176030765 0 13.794282380930794 0 1 0 I I #
straight-curve $-1 0 -38.342544431471559 13.794282380930794 1 0 0 I I #
point $-1 60.405896176030765 -38.342544431471559 13.794282380930794 #
point $-1 54.35826150934956 -34.35498266476236 8.6023626888228826 #
point $-1 54.35826150934956 -28.373640014698559 8.6023626888228826 #
End-of-ACIS-data 