500 0 7 0           
7 Unknown 11 ACIS 5.0 NT 24 Fri Mar 26 18:27:51 1999 
-1 9.9999999999999995e-007 1e-010 
body $-1 $7 $-1 $8 #
body $-1 $9 $-1 $10 #
body $-1 $11 $-1 $12 #
body $-1 $13 $-1 $14 #
body $-1 $15 $-1 $16 #
body $-1 $17 $-1 $18 #
body $-1 $19 $-1 $20 #
lump $-1 $-1 $21 $0 #
transform $-1 1 0 0 0 1 0 0 0 1 45.737479781487473 29.584543488041952 8.7704488353676169 1 rotate no_reflect no_shear #
lump $-1 $-1 $22 $1 #
transform $-1 1 0 0 0 1 0 0 0 1 45.737479781487473 29.584543488041952 8.7704488353676169 1 rotate no_reflect no_shear #
lump $-1 $-1 $23 $2 #
transform $-1 1 0 0 0 1 0 0 0 1 45.737479781487473 29.584543488041952 8.7704488353676169 1 rotate no_reflect no_shear #
lump $-1 $-1 $24 $3 #
transform $-1 1 0 0 0 1 0 0 0 1 45.737479781487473 29.584543488041952 8.7704488353676169 1 rotate no_reflect no_shear #
lump $-1 $-1 $25 $4 #
transform $-1 1 0 0 0 1 0 0 0 1 45.737479781487473 29.584543488041952 8.7704488353676169 1 rotate no_reflect no_shear #
lump $-1 $-1 $26 $5 #
transform $-1 1 0 0 0 1 0 0 0 1 45.737479781487473 29.584543488041952 8.7704488353676169 1 rotate no_reflect no_shear #
lump $-1 $-1 $27 $6 #
transform $-1 1 0 0 0 1 0 0 0 1 45.737479781487473 29.584543488041952 8.7704488353676169 1 rotate no_reflect no_shear #
shell $-1 $-1 $-1 $28 $-1 $7 #
shell $-1 $-1 $-1 $29 $-1 $9 #
shell $-1 $-1 $-1 $30 $-1 $11 #
shell $-1 $-1 $-1 $31 $-1 $13 #
shell $-1 $-1 $-1 $32 $-1 $15 #
shell $-1 $-1 $-1 $33 $-1 $17 #
shell $-1 $-1 $-1 $34 $-1 $19 #
face $-1 $35 $36 $21 $-1 $37 forward single #
face $-1 $38 $39 $22 $-1 $40 forward single #
face $-1 $41 $42 $23 $-1 $43 reversed single #
face $-1 $44 $45 $24 $-1 $46 forward single #
face $-1 $47 $48 $25 $-1 $49 forward single #
face $-1 $50 $51 $26 $-1 $52 reversed single #
face $-1 $53 $54 $27 $-1 $55 forward single #
face $-1 $56 $57 $21 $-1 $58 reversed single #
loop $-1 $-1 $59 $28 #
plane-surface $-1 0 0 8.7704488353676169 0 0 1 1 0 0 forward_v I I I I #
face $-1 $60 $61 $22 $-1 $62 reversed single #
loop $-1 $-1 $63 $29 #
plane-surface $-1 0 -25.071770561690347 -4.2626624339283588 0 0 1 1 0 0 forward_v I I I I #
face $-1 $64 $65 $23 $-1 $66 reversed single #
loop $-1 $-1 $67 $30 #
plane-surface $-1 -106.94617567666234 5.1315322084751109 73.727577845331552 0 1 0 -0.66913061440640931 0 0.74314481823134659 forward_v I I I I #
face $-1 $68 $69 $24 $-1 $70 forward single #
loop $-1 $71 $72 $31 #
cone-surface $-1 -43.565764581556977 8.0072239119039281 6.7112745652524994 0.66913061440640931 0 -0.74314481823134659 0.74314481823134659 0 0.66913061440640931 1 I I 0 1 1 forward I I I I #
face $-1 $73 $74 $25 $-1 $75 forward single #
loop $-1 $76 $77 $32 #
cone-surface $-1 -43.565764581556977 12.320761467047156 6.7112745652524994 0.66913061440640931 0 -0.74314481823134659 0.74314481823134659 0 0.66913061440640931 1 I I 0 1 1 forward I I I I #
face $-1 $78 $79 $26 $-1 $80 reversed single #
loop $-1 $-1 $81 $33 #
plane-surface $-1 79.219640724785819 14.487487356913533 127.13237315986875 0 -1 0 -0.86602541151947299 0 -0.49999998660252726 forward_v I I I I #
face $-1 $82 $83 $27 $-1 $84 forward single #
loop $-1 $85 $86 $34 #
cone-surface $-1 43.093999756110023 7.3491555064686338 5.0458369968685046 -0.86602541151947299 0 -0.49999998660252726 0.74999997990379086 0 -1.2990381172792094 1 I I 0 1 1.5 forward I I I I #
face $-1 $87 $88 $21 $-1 $89 reversed single #
loop $-1 $-1 $90 $35 #
plane-surface $-1 0 0 -8.7704488353676169 0 0 1 1 0 0 forward_v I I I I #
coedge $-1 $91 $92 $93 $94 forward $36 $-1 #
face $-1 $95 $96 $22 $-1 $97 reversed single #
loop $-1 $-1 $98 $38 #
plane-surface $-1 0 -20.558997635338741 -6.5165556346479878 0 -1 0 0 0 -1 forward_v I I I I #
coedge $-1 $99 $100 $101 $102 reversed $39 $-1 #
face $-1 $103 $104 $23 $-1 $105 reversed single #
loop $-1 $-1 $106 $41 #
plane-surface $-1 -45.737479781487465 10.163992689475542 5.7484356481847527 -0.66913061440640931 0 0.74314481823134659 0.74314481823134659 0 0.66913061440640931 forward_v I I I I #
coedge $-1 $107 $108 $109 $110 reversed $42 $-1 #
face $-1 $-1 $111 $24 $-1 $112 forward single #
loop $-1 $113 $114 $44 #
cone-surface $-1 -42.737626870709775 8.0072239119039281 5.7915344796131389 0.66913061440640931 0 -0.74314481823134659 0.3715724091156733 0 0.33456530720320465 1 I I -0.70710678118654746 0.70710678118654746 0.5 forward I I I I #
loop $-1 $-1 $115 $31 #
coedge $-1 $72 $72 $116 $117 reversed $45 $-1 #
face $-1 $-1 $118 $25 $-1 $119 forward single #
loop $-1 $120 $121 $47 #
cone-surface $-1 -42.737626870709775 12.320761467047156 5.7915344796131389 0.66913061440640931 0 -0.74314481823134659 0.3715724091156733 0 0.33456530720320465 1 I I -0.70710678118654746 0.70710678118654746 0.5 forward I I I I #
loop $-1 $-1 $122 $32 #
coedge $-1 $77 $77 $123 $124 reversed $48 $-1 #
face $-1 $125 $126 $26 $-1 $127 reversed single #
loop $-1 $-1 $128 $50 #
plane-surface $-1 1.2255332961785825e-006 7.3491555064686338 81.394894603914551 0.86602541151947299 0 0.49999998660252726 0.49999998660252726 0 -0.86602541151947299 forward_v I I I I #
coedge $-1 $129 $130 $131 $132 reversed $51 $-1 #
face $-1 $-1 $133 $27 $-1 $134 forward single #
loop $-1 $135 $136 $53 #
cone-surface $-1 41.70486904196455 7.3491555064686338 4.2438220337703001 -0.86602541151947299 0 -0.49999998660252726 0.37499998995189543 0 -0.64951905863960469 1 I I -0.70710678118654724 0.70710678118654768 0.75 forward I I I I #
loop $-1 $-1 $137 $34 #
coedge $-1 $86 $86 $138 $139 reversed $54 $-1 #
face $-1 $140 $141 $21 $-1 $142 reversed single #
loop $-1 $-1 $143 $56 #
plane-surface $-1 0 -29.584543488041952 0 0 1 0 0 0 1 forward_v I I I I #
coedge $-1 $144 $145 $146 $147 forward $57 $-1 #
coedge $-1 $148 $59 $149 $150 forward $36 $-1 #
coedge $-1 $59 $148 $151 $152 forward $36 $-1 #
coedge $-1 $153 $154 $59 $94 reversed $155 $-1 #
edge $-1 $156 -29.584543488041952 $157 29.584543488041952 $93 $158 forward 7 unknown #
face $-1 $159 $160 $22 $-1 $161 reversed single #
loop $-1 $-1 $162 $60 #
plane-surface $-1 0 0 -8.7704488353676169 0 0 1 1 0 0 forward_v I I I I #
coedge $-1 $163 $164 $165 $166 reversed $61 $-1 #
coedge $-1 $167 $63 $164 $168 forward $39 $-1 #
coedge $-1 $63 $167 $169 $170 reversed $39 $-1 #
coedge $-1 $171 $165 $63 $102 forward $160 $-1 #
edge $-1 $172 8.0231123544935681 $173 17.04865820719678 $101 $174 forward 7 unknown #
face $-1 $175 $176 $23 $-1 $177 forward single #
loop $-1 $-1 $178 $64 #
plane-surface $-1 -106.94617567666234 15.196453170475973 73.727577845331552 0 -1 0 0.66913061440640931 0 -0.74314481823134659 forward_v I I I I #
coedge $-1 $179 $180 $181 $182 reversed $65 $-1 #
coedge $-1 $108 $67 $183 $184 reversed $42 $-1 #
coedge $-1 $67 $107 $179 $185 reversed $42 $-1 #
coedge $-1 $181 $186 $67 $110 forward $176 $-1 #
edge $-1 $187 7.7356080568436951 $188 11.09189364941669 $109 $189 forward 7 unknown #
loop $-1 $-1 $116 $68 #
plane-surface $-1 -45.737479781487465 10.163992689475542 5.7484356481847527 -0.66913061440640931 0 0.74314481823134659 0.74314481823134659 0 0.66913061440640931 forward_v I I I I #
loop $-1 $-1 $190 $44 #
coedge $-1 $114 $114 $115 $191 reversed $69 $-1 #
coedge $-1 $115 $115 $114 $191 forward $71 $-1 #
coedge $-1 $116 $116 $72 $117 forward $111 $-1 #
edge $-1 $192 0 $192 6.2831853071796004 $116 $193 forward 7 unknown #
loop $-1 $-1 $123 $73 #
plane-surface $-1 -45.737479781487465 10.163992689475542 5.7484356481847527 -0.66913061440640931 0 0.74314481823134659 0.74314481823134659 0 0.66913061440640931 forward_v I I I I #
loop $-1 $-1 $194 $47 #
coedge $-1 $121 $121 $122 $195 reversed $74 $-1 #
coedge $-1 $122 $122 $121 $195 forward $76 $-1 #
coedge $-1 $123 $123 $77 $124 forward $118 $-1 #
edge $-1 $196 0 $196 6.2831853071796004 $123 $197 forward 7 unknown #
face $-1 $198 $199 $26 $-1 $200 reversed single #
loop $-1 $-1 $201 $78 #
plane-surface $-1 79.219640724785819 0.21082365602373443 127.13237315986875 0 1 0 0.86602541151947299 0 0.49999998660252726 forward_v I I I I #
coedge $-1 $202 $203 $204 $205 reversed $79 $-1 #
coedge $-1 $130 $81 $206 $207 reversed $51 $-1 #
coedge $-1 $81 $129 $202 $208 reversed $51 $-1 #
coedge $-1 $204 $209 $81 $132 forward $210 $-1 #
edge $-1 $211 -6.127659419094563 $212 -2.3199226793514427 $131 $213 forward 7 unknown #
loop $-1 $-1 $138 $82 #
plane-surface $-1 1.2255332961785825e-006 7.3491555064686338 81.394894603914551 0.86602541151947299 0 0.49999998660252726 0.49999998660252726 0 -0.86602541151947299 forward_v I I I I #
loop $-1 $-1 $214 $53 #
coedge $-1 $136 $136 $137 $215 reversed $83 $-1 #
coedge $-1 $137 $137 $136 $215 forward $85 $-1 #
coedge $-1 $138 $138 $86 $139 forward $133 $-1 #
edge $-1 $216 0 $216 6.2831853071796004 $138 $217 forward 7 unknown #
face $-1 $218 $219 $21 $-1 $220 reversed single #
loop $-1 $-1 $221 $87 #
plane-surface $-1 -45.737479781487473 0 0 1 0 0 0 0 -1 forward_v I I I I #
coedge $-1 $222 $151 $223 $224 forward $88 $-1 #
coedge $-1 $225 $90 $222 $226 forward $57 $-1 #
coedge $-1 $90 $225 $227 $228 forward $57 $-1 #
coedge $-1 $154 $153 $90 $147 reversed $155 $-1 #
edge $-1 $229 -29.584543488041952 $230 29.584543488041952 $146 $231 forward 7 unknown #
coedge $-1 $92 $91 $232 $233 forward $36 $-1 #
coedge $-1 $234 $235 $91 $150 reversed $219 $-1 #
edge $-1 $157 -45.737479781487473 $236 45.737479781487473 $149 $237 forward 7 unknown #
coedge $-1 $143 $238 $92 $152 reversed $88 $-1 #
edge $-1 $239 -45.737479781487473 $156 45.737479781487473 $151 $240 forward 7 unknown #
coedge $-1 $146 $93 $238 $241 forward $155 $-1 #
coedge $-1 $93 $146 $234 $242 reversed $155 $-1 #
loop $-1 $-1 $153 $218 #
vertex $-1 $94 $243 #
vertex $-1 $94 $244 #
straight-curve $-1 45.737479781487473 0 8.7704488353676169 0 1 0 I I #
face $-1 $245 $246 $22 $-1 $247 reversed single #
loop $-1 $-1 $165 $95 #
plane-surface $-1 45.737479781487473 0 0 -1 0 0 0 0 1 forward_v I I I I #
coedge $-1 $248 $249 $163 $250 forward $96 $-1 #
coedge $-1 $251 $98 $162 $250 reversed $61 $-1 #
coedge $-1 $98 $251 $99 $168 reversed $61 $-1 #
coedge $-1 $101 $252 $98 $166 forward $160 $-1 #
edge $-1 $253 -5.512171018043623 $172 -1.0043846166043648 $165 $254 forward 7 unknown #
coedge $-1 $100 $99 $255 $256 reversed $39 $-1 #
edge $-1 $172 -45.737479781487473 $257 45.737479781487473 $164 $258 forward 7 unknown #
coedge $-1 $259 $260 $100 $170 forward $246 $-1 #
edge $-1 $173 -45.737479781487473 $261 45.737479781487473 $169 $262 forward 7 unknown #
coedge $-1 $252 $101 $260 $263 forward $160 $-1 #
vertex $-1 $102 $264 #
vertex $-1 $263 $265 #
straight-curve $-1 45.737479781487473 -12.535885280845173 -4.2626624339283588 0 -1 0 I I #
face $-1 $-1 $266 $23 $-1 $267 reversed single #
loop $-1 $-1 $109 $103 #
plane-surface $-1 0 0 8.7704488353676169 0 0 1 1 0 0 forward_v I I I I #
coedge $-1 $268 $269 $270 $271 reversed $104 $-1 #
coedge $-1 $272 $106 $108 $185 forward $65 $-1 #
coedge $-1 $106 $272 $268 $273 forward $65 $-1 #
coedge $-1 $270 $109 $106 $182 forward $176 $-1 #
edge $-1 $188 0.04953586373733998 $274 10.114456825738202 $181 $275 forward 7 unknown #
coedge $-1 $276 $277 $107 $184 forward $266 $-1 #
edge $-1 $278 -31.115353274481031 $187 -28.093340087298159 $183 $279 forward 7 unknown #
edge $-1 $188 -4.5163277873090815 $278 9.4405131238556439e-015 $108 $280 forward 7 unknown #
coedge $-1 $109 $270 $276 $281 forward $176 $-1 #
vertex $-1 $184 $282 #
vertex $-1 $110 $283 #
straight-curve $-1 -53.473087838331168 5.1315322084751109 8.7704488353676169 1 0 0 I I #
coedge $-1 $190 $190 $-1 $284 reversed $113 $-1 #
edge $-1 $285 0 $285 6.2831853071796004 $114 $286 forward 7 unknown #
vertex $-1 $117 $287 #
ellipse-curve $-1 -44.059336985200972 8.0072239119039281 7.2594422417761839 -0.66913061440640931 0 0.74314481823134659 0.74314481823134659 0 0.66913061440640931 1 I I #
coedge $-1 $194 $194 $-1 $288 reversed $120 $-1 #
edge $-1 $289 0 $289 6.2831853071796004 $121 $290 forward 7 unknown #
vertex $-1 $124 $291 #
ellipse-curve $-1 -44.059336985200972 12.320761467047156 7.2594422417761839 -0.66913061440640931 0 0.74314481823134659 0.74314481823134659 0 0.66913061440640931 1 I I #
face $-1 $-1 $210 $26 $-1 $292 forward single #
loop $-1 $-1 $293 $125 #
plane-surface $-1 45.737479781487473 0 0 -1 0 0 0 0 1 forward_v I I I I #
coedge $-1 $294 $295 $296 $297 reversed $126 $-1 #
coedge $-1 $298 $128 $130 $208 forward $79 $-1 #
coedge $-1 $128 $298 $294 $299 forward $79 $-1 #
coedge $-1 $296 $131 $128 $205 forward $210 $-1 #
edge $-1 $212 -10.812909603679216 $300 3.4637540972105825 $204 $301 forward 7 unknown #
coedge $-1 $302 $303 $129 $207 forward $199 $-1 #
edge $-1 $304 -61.390931475272318 $211 -54.795737744566757 $206 $305 forward 7 unknown #
edge $-1 $212 83.859485879432469 $304 91.474959562974902 $130 $306 forward 7 unknown #
coedge $-1 $131 $296 $302 $307 forward $210 $-1 #
loop $-1 $-1 $296 $198 #
vertex $-1 $207 $308 #
vertex $-1 $132 $309 #
straight-curve $-1 39.609820362392909 14.487487356913533 8.7704488353676169 -1 0 0 I I #
coedge $-1 $214 $214 $-1 $310 reversed $135 $-1 #
edge $-1 $311 0 $311 6.2831853071796004 $136 $312 forward 7 unknown #
vertex $-1 $139 $313 #
ellipse-curve $-1 43.833611411615919 7.3491555064686338 5.472851970014827 0.86602541151947299 0 0.49999998660252726 0.74999997990379086 0 -1.2990381172792094 1 I I #
face $-1 $-1 $155 $21 $-1 $314 reversed single #
loop $-1 $-1 $234 $140 #
plane-surface $-1 0 29.584543488041952 0 0 -1 0 0 0 -1 forward_v I I I I #
coedge $-1 $315 $232 $235 $316 forward $141 $-1 #
coedge $-1 $238 $143 $144 $226 reversed $88 $-1 #
coedge $-1 $232 $315 $143 $224 reversed $141 $-1 #
edge $-1 $239 -8.7704488353676169 $317 8.7704488353676169 $223 $318 forward 7 unknown #
coedge $-1 $145 $144 $315 $319 forward $57 $-1 #
edge $-1 $230 -45.737479781487473 $317 45.737479781487473 $222 $320 forward 7 unknown #
coedge $-1 $235 $234 $145 $228 reversed $219 $-1 #
edge $-1 $321 -45.737479781487473 $229 45.737479781487473 $227 $322 forward 7 unknown #
vertex $-1 $147 $323 #
vertex $-1 $241 $324 #
straight-curve $-1 45.737479781487473 0 -8.7704488353676169 0 -1 0 I I #
coedge $-1 $221 $223 $148 $233 reversed $141 $-1 #
edge $-1 $236 -29.584543488041952 $239 29.584543488041952 $232 $325 forward 7 unknown #
coedge $-1 $227 $149 $154 $242 forward $219 $-1 #
coedge $-1 $149 $227 $221 $316 reversed $219 $-1 #
vertex $-1 $150 $326 #
straight-curve $-1 0 29.584543488041952 8.7704488353676169 -1 0 0 I I #
coedge $-1 $151 $222 $153 $241 reversed $88 $-1 #
vertex $-1 $233 $327 #
straight-curve $-1 0 -29.584543488041952 8.7704488353676169 1 0 0 I I #
edge $-1 $156 -8.7704488353676169 $230 8.7704488353676169 $153 $328 forward 7 unknown #
edge $-1 $157 -8.7704488353676169 $229 8.7704488353676169 $154 $329 forward 7 unknown #
point $-1 45.737479781487473 -29.584543488041952 8.7704488353676169 #
point $-1 45.737479781487473 29.584543488041952 8.7704488353676169 #
face $-1 $-1 $330 $22 $-1 $331 reversed single #
loop $-1 $-1 $169 $159 #
plane-surface $-1 0 -29.584543488041952 0 0 1 0 0 0 1 forward_v I I I I #
coedge $-1 $332 $162 $252 $333 forward $96 $-1 #
coedge $-1 $162 $332 $334 $335 forward $96 $-1 #
edge $-1 $336 -45.737479781487473 $253 45.737479781487473 $162 $337 forward 7 unknown #
coedge $-1 $164 $163 $338 $339 reversed $61 $-1 #
coedge $-1 $165 $171 $248 $333 reversed $160 $-1 #
vertex $-1 $333 $340 #
straight-curve $-1 45.737479781487473 -20.558997635338741 -3.2582778173239939 0 0 1 I I #
coedge $-1 $338 $341 $167 $256 forward $330 $-1 #
edge $-1 $261 -17.04865820719678 $257 -8.0231123544935681 $255 $342 forward 7 unknown #
vertex $-1 $256 $343 #
straight-curve $-1 0 -20.558997635338741 -4.2626624339283588 -1 0 0 I I #
coedge $-1 $344 $169 $341 $345 forward $246 $-1 #
coedge $-1 $169 $344 $171 $263 reversed $246 $-1 #
vertex $-1 $345 $346 #
straight-curve $-1 0 -29.584543488041952 -4.2626624339283588 -1 0 0 I I #
edge $-1 $173 4.2626624339283588 $347 8.7704488353676169 $171 $348 forward 7 unknown #
point $-1 45.737479781487473 -20.558997635338741 -4.2626624339283588 #
point $-1 45.737479781487473 -29.584543488041952 -4.2626624339283588 #
loop $-1 $-1 $183 $175 #
plane-surface $-1 -45.737479781487473 0 0 1 0 0 0 0 -1 forward_v I I I I #
coedge $-1 $269 $178 $180 $273 reversed $104 $-1 #
coedge $-1 $178 $268 $349 $350 reversed $104 $-1 #
coedge $-1 $186 $181 $178 $271 forward $176 $-1 #
edge $-1 $274 -11.09189364941669 $351 -7.7356080568436951 $270 $352 forward 7 unknown #
coedge $-1 $180 $179 $277 $353 reversed $65 $-1 #
edge $-1 $354 -9.4405131238556439e-015 $274 4.5163277873090815 $268 $355 forward 7 unknown #
vertex $-1 $182 $356 #
straight-curve $-1 -42.381194188914478 5.081996344737771 8.7704488353676151 0 1 0 I I #
coedge $-1 $349 $183 $186 $281 reversed $266 $-1 #
coedge $-1 $183 $349 $272 $353 forward $266 $-1 #
vertex $-1 $184 $357 #
straight-curve $-1 -45.737479781487473 5.1315322084751109 36.863788922665776 0 0 1 I I #
straight-curve $-1 -45.737479781487465 5.1315322084751109 5.7484356481847527 -0.74314481823134659 0 -0.66913061440640931 I I #
edge $-1 $351 -15.196453170475973 $187 -5.1315322084751109 $276 $358 forward 7 unknown #
point $-1 -45.737479781487473 5.1315322084751109 8.7704488353676169 #
point $-1 -42.381194188914478 5.1315322084751109 8.7704488353676169 #
edge $-1 $359 1 $359 0 $190 $-1 forward 7 unknown #
vertex $-1 $191 $360 #
ellipse-curve $-1 -43.072192177912981 8.0072239119039281 6.1631068887288123 -0.66913061440640931 0 0.74314481823134659 0.74314481823134659 0 0.66913061440640931 1 I I #
point $-1 -43.316192166969628 8.0072239119039281 7.9285728561825959 #
edge $-1 $361 1 $361 0 $194 $-1 forward 7 unknown #
vertex $-1 $195 $362 #
ellipse-curve $-1 -43.072192177912981 12.320761467047156 6.1631068887288123 -0.66913061440640931 0 0.74314481823134659 0.74314481823134659 0 0.66913061440640931 1 I I #
point $-1 -43.316192166969628 12.320761467047156 7.9285728561825959 #
plane-surface $-1 0 0 8.7704488353676169 0 0 1 1 0 0 forward_v I I I I #
coedge $-1 $303 $302 $295 $363 forward $199 $-1 #
coedge $-1 $295 $201 $203 $299 reversed $126 $-1 #
coedge $-1 $201 $294 $293 $363 reversed $126 $-1 #
coedge $-1 $209 $204 $201 $297 forward $210 $-1 #
edge $-1 $300 2.3199226793514427 $364 6.127659419094563 $296 $365 forward 7 unknown #
coedge $-1 $203 $202 $303 $366 reversed $79 $-1 #
edge $-1 $367 -91.474959562974902 $300 -83.859485879432469 $294 $368 forward 7 unknown #
vertex $-1 $205 $369 #
straight-curve $-1 41.929743041744352 3.6745777532343169 8.7704488353676169 0 -1 0 I I #
coedge $-1 $293 $206 $209 $307 reversed $199 $-1 #
coedge $-1 $206 $293 $298 $366 forward $199 $-1 #
vertex $-1 $207 $370 #
straight-curve $-1 45.737479781487473 14.487487356913533 63.566186579934374 0 0 1 I I #
straight-curve $-1 1.2255332961785825e-006 14.487487356913533 81.394894603914551 0.49999998660252726 0 -0.86602541151947299 I I #
edge $-1 $364 0.21082365602373443 $211 14.487487356913533 $302 $371 forward 7 unknown #
point $-1 45.737479781487473 14.487487356913533 8.7704488353676169 #
point $-1 41.929743041744352 14.487487356913533 8.7704488353676169 #
edge $-1 $372 1 $372 0 $214 $-1 forward 7 unknown #
vertex $-1 $215 $373 #
ellipse-curve $-1 42.354388100604154 7.3491555064686338 4.6188220237221955 0.86602541151947299 0 0.49999998660252726 0.74999997990379086 0 -1.2990381172792094 1 I I #
point $-1 44.583611391519689 7.3491555064686338 4.1738138527356039 #
plane-surface $-1 45.737479781487473 0 0 -1 0 0 0 0 1 forward_v I I I I #
coedge $-1 $223 $221 $225 $319 reversed $141 $-1 #
edge $-1 $236 -8.7704488353676169 $321 8.7704488353676169 $235 $374 forward 7 unknown #
vertex $-1 $319 $375 #
straight-curve $-1 -45.737479781487473 -29.584543488041952 0 0 0 -1 I I #
edge $-1 $317 -29.584543488041952 $321 29.584543488041952 $315 $376 forward 7 unknown #
straight-curve $-1 0 -29.584543488041952 -8.7704488353676169 -1 0 0 I I #
vertex $-1 $228 $377 #
straight-curve $-1 0 29.584543488041952 -8.7704488353676169 1 0 0 I I #
point $-1 45.737479781487473 29.584543488041952 -8.7704488353676169 #
point $-1 45.737479781487473 -29.584543488041952 -8.7704488353676169 #
straight-curve $-1 -45.737479781487473 0 8.7704488353676169 0 -1 0 I I #
point $-1 -45.737479781487473 29.584543488041952 8.7704488353676169 #
point $-1 -45.737479781487473 -29.584543488041952 8.7704488353676169 #
straight-curve $-1 45.737479781487473 -29.584543488041952 0 0 0 -1 I I #
straight-curve $-1 45.737479781487473 29.584543488041952 0 0 0 -1 I I #
loop $-1 $-1 $338 $245 #
plane-surface $-1 -45.737479781487473 0 0 1 0 0 0 0 -1 forward_v I I I I #
coedge $-1 $249 $248 $344 $378 forward $96 $-1 #
edge $-1 $253 20.558997635338741 $347 29.584543488041952 $252 $379 forward 7 unknown #
coedge $-1 $341 $338 $249 $335 reversed $330 $-1 #
edge $-1 $380 -29.584543488041952 $336 -20.558997635338741 $334 $381 forward 7 unknown #
vertex $-1 $339 $382 #
straight-curve $-1 0 -20.558997635338741 -8.7704488353676169 1 0 0 I I #
coedge $-1 $334 $255 $251 $339 forward $330 $-1 #
edge $-1 $257 1.0043846166043648 $336 5.512171018043623 $338 $383 forward 7 unknown #
point $-1 45.737479781487473 -20.558997635338741 -8.7704488353676169 #
coedge $-1 $255 $334 $259 $345 reversed $330 $-1 #
straight-curve $-1 -45.737479781487473 -12.535885280845173 -4.2626624339283588 0 1 0 I I #
point $-1 -45.737479781487473 -20.558997635338741 -4.2626624339283588 #
coedge $-1 $260 $259 $332 $378 reversed $246 $-1 #
edge $-1 $261 4.2626624339283588 $380 8.7704488353676169 $341 $384 forward 7 unknown #
point $-1 -45.737479781487473 -29.584543488041952 -4.2626624339283588 #
vertex $-1 $263 $385 #
straight-curve $-1 45.737479781487473 -29.584543488041952 0 0 0 -1 I I #
coedge $-1 $277 $276 $269 $350 forward $266 $-1 #
edge $-1 $351 28.093340087298159 $354 31.115353274481031 $349 $386 forward 7 unknown #
vertex $-1 $281 $387 #
straight-curve $-1 -53.473087838331168 15.196453170475973 8.7704488353676169 -1 0 0 I I #
edge $-1 $354 -10.114456825738202 $278 -0.04953586373733998 $277 $388 forward 7 unknown #
vertex $-1 $353 $389 #
straight-curve $-1 -45.737479781487465 15.196453170475973 5.7484356481847527 0.74314481823134659 0 0.66913061440640931 I I #
point $-1 -42.381194188914478 15.196453170475973 8.7704488353676169 #
point $-1 -45.737479781487473 5.1315322084751109 5.7484356481847465 #
straight-curve $-1 -45.737479781487473 0 8.7704488353676169 0 -1 0 I I #
vertex $-1 $284 $390 #
point $-1 -42.329047359681631 8.0072239119039281 6.8322375031352216 #
vertex $-1 $288 $391 #
point $-1 -42.329047359681631 12.320761467047156 6.8322375031352216 #
edge $-1 $364 54.795737744566757 $367 61.390931475272318 $293 $392 forward 7 unknown #
vertex $-1 $307 $393 #
straight-curve $-1 39.609820362392909 0.21082365602373443 8.7704488353676169 1 0 0 I I #
edge $-1 $367 -3.4637540972105825 $304 10.812909603679216 $303 $394 forward 7 unknown #
vertex $-1 $366 $395 #
straight-curve $-1 1.2255332961785825e-006 0.21082365602373443 81.394894603914551 -0.49999998660252726 0 0.86602541151947299 I I #
point $-1 41.929743041744352 0.21082365602373443 8.7704488353676169 #
point $-1 45.737479781487473 14.487487356913533 2.1752551046620567 #
straight-curve $-1 45.737479781487473 0 8.7704488353676169 0 1 0 I I #
vertex $-1 $310 $396 #
point $-1 43.104388080507945 7.3491555064686338 3.3197839064429866 #
straight-curve $-1 -45.737479781487473 29.584543488041952 0 0 0 -1 I I #
point $-1 -45.737479781487473 -29.584543488041952 -8.7704488353676169 #
straight-curve $-1 -45.737479781487473 0 -8.7704488353676169 0 1 0 I I #
point $-1 -45.737479781487473 29.584543488041952 -8.7704488353676169 #
edge $-1 $347 -45.737479781487473 $380 45.737479781487473 $344 $397 forward 7 unknown #
straight-curve $-1 45.737479781487473 0 -8.7704488353676169 0 -1 0 I I #
vertex $-1 $335 $398 #
straight-curve $-1 -45.737479781487473 0 -8.7704488353676169 0 1 0 I I #
point $-1 -45.737479781487473 -20.558997635338741 -8.7704488353676169 #
straight-curve $-1 -45.737479781487473 -20.558997635338741 -3.2582778173239939 0 0 -1 I I #
straight-curve $-1 -45.737479781487473 -29.584543488041952 0 0 0 -1 I I #
point $-1 45.737479781487473 -29.584543488041952 -8.7704488353676169 #
straight-curve $-1 -45.737479781487473 15.196453170475973 36.863788922665776 0 0 -1 I I #
point $-1 -45.737479781487473 15.196453170475973 8.7704488353676169 #
straight-curve $-1 -45.737479781487473 5.081996344737771 5.7484356481847403 0 -1 0 I I #
point $-1 -45.737479781487473 15.196453170475973 5.7484356481847465 #
point $-1 -42.403061563506569 8.0072239119039281 5.4199620704974656 #
point $-1 -42.403061563506569 12.320761467047156 5.4199620704974656 #
straight-curve $-1 45.737479781487473 0.21082365602373443 63.566186579934374 0 0 -1 I I #
point $-1 45.737479781487473 0.21082365602373443 8.7704488353676169 #
straight-curve $-1 45.737479781487473 3.6745777532343169 2.1752551046620567 0 1 0 I I #
point $-1 45.737479781487473 0.21082365602373443 2.1752551046620567 #
point $-1 41.055349983324945 7.3491555064686338 3.8688220438184047 #
straight-curve $-1 0 -29.584543488041952 -8.7704488353676169 -1 0 0 I I #
point $-1 -45.737479781487473 -29.584543488041952 -8.7704488353676169 #
End-of-ACIS-data 