500 0 12 0           
7 Unknown 11 ACIS 5.0 NT 24 Thu Mar 25 21:16:39 1999 
-1 9.9999999999999995e-007 1e-010 
body $-1 $12 $-1 $13 #
body $-1 $14 $-1 $15 #
body $-1 $16 $-1 $17 #
body $-1 $18 $-1 $19 #
body $-1 $20 $-1 $21 #
body $-1 $22 $-1 $23 #
body $-1 $24 $-1 $25 #
body $-1 $26 $-1 $27 #
body $-1 $28 $-1 $29 #
body $-1 $30 $-1 $31 #
body $-1 $32 $-1 $33 #
body $-1 $34 $-1 $35 #
lump $-1 $-1 $36 $0 #
transform $-1 1 0 0 0 1 0 0 0 1 49.273964659566026 33.825906810167062 15.010497774099404 1 rotate no_reflect no_shear #
lump $-1 $-1 $37 $1 #
transform $-1 1 0 0 0 1 0 0 0 1 49.273964659566026 33.825906810167062 15.010497774099404 1 rotate no_reflect no_shear #
lump $-1 $-1 $38 $2 #
transform $-1 1 0 0 0 1 0 0 0 1 49.273964659566026 33.825906810167062 15.010497774099404 1 rotate no_reflect no_shear #
lump $-1 $-1 $39 $3 #
transform $-1 1 0 0 0 1 0 0 0 1 49.273964659566026 33.825906810167062 15.010497774099404 1 rotate no_reflect no_shear #
lump $-1 $-1 $40 $4 #
transform $-1 1 0 0 0 1 0 0 0 1 49.273964659566026 33.825906810167062 15.010497774099404 1 rotate no_reflect no_shear #
lump $-1 $-1 $41 $5 #
transform $-1 1 0 0 0 1 0 0 0 1 49.273964659566026 33.825906810167062 15.010497774099404 1 rotate no_reflect no_shear #
lump $-1 $-1 $42 $6 #
transform $-1 1 0 0 0 1 0 0 0 1 49.273964659566026 33.825906810167062 15.010497774099404 1 rotate no_reflect no_shear #
lump $-1 $-1 $43 $7 #
transform $-1 1 0 0 0 1 0 0 0 1 49.273964659566026 33.825906810167062 15.010497774099404 1 rotate no_reflect no_shear #
lump $-1 $-1 $44 $8 #
transform $-1 1 0 0 0 1 0 0 0 1 49.273964659566026 33.825906810167062 15.010497774099404 1 rotate no_reflect no_shear #
lump $-1 $-1 $45 $9 #
transform $-1 1 0 0 0 1 0 0 0 1 49.273964659566026 33.825906810167062 15.010497774099404 1 rotate no_reflect no_shear #
lump $-1 $-1 $46 $10 #
transform $-1 1 0 0 0 1 0 0 0 1 49.273964659566026 33.825906810167062 15.010497774099404 1 rotate no_reflect no_shear #
lump $-1 $-1 $47 $11 #
transform $-1 1 0 0 0 1 0 0 0 1 49.273964659566026 33.825906810167062 15.010497774099404 1 rotate no_reflect no_shear #
shell $-1 $-1 $-1 $48 $-1 $12 #
shell $-1 $-1 $-1 $49 $-1 $14 #
shell $-1 $-1 $-1 $50 $-1 $16 #
shell $-1 $-1 $-1 $51 $-1 $18 #
shell $-1 $-1 $-1 $52 $-1 $20 #
shell $-1 $-1 $-1 $53 $-1 $22 #
shell $-1 $-1 $-1 $54 $-1 $24 #
shell $-1 $-1 $-1 $55 $-1 $26 #
shell $-1 $-1 $-1 $56 $-1 $28 #
shell $-1 $-1 $-1 $57 $-1 $30 #
shell $-1 $-1 $-1 $58 $-1 $32 #
shell $-1 $-1 $-1 $59 $-1 $34 #
face $-1 $60 $61 $36 $-1 $62 forward single #
face $-1 $63 $64 $37 $-1 $65 reversed single #
face $-1 $66 $67 $38 $-1 $68 forward single #
face $-1 $69 $70 $39 $-1 $71 forward single #
face $-1 $72 $73 $40 $-1 $74 forward single #
face $-1 $75 $76 $41 $-1 $77 reversed single #
face $-1 $78 $79 $42 $-1 $80 forward single #
face $-1 $81 $82 $43 $-1 $83 forward single #
face $-1 $84 $85 $44 $-1 $86 forward single #
face $-1 $87 $88 $45 $-1 $89 reversed single #
face $-1 $90 $91 $46 $-1 $92 forward single #
face $-1 $93 $94 $47 $-1 $95 forward single #
face $-1 $96 $97 $36 $-1 $98 reversed single #
loop $-1 $-1 $99 $48 #
plane-surface $-1 0 0 15.010497774099404 0 0 1 1 0 0 forward_v I I I I #
face $-1 $100 $101 $37 $-1 $102 reversed single #
loop $-1 $-1 $103 $49 #
plane-surface $-1 -101.49641154560558 -30.06865778918057 85.092335487475992 0 1 0 -0.52991927123019833 0 0.84804809178421925 forward_v I I I I #
face $-1 $104 $105 $38 $-1 $106 forward single #
loop $-1 $107 $108 $50 #
cone-surface $-1 -38.055969097742533 -28.220729102918661 7.5885795242783498 0.52991927123019833 0 -0.84804809178421925 0.42402404589210962 0 0.26495963561509916 1 I I 0 1 0.5 forward I I I I #
face $-1 $109 $110 $39 $-1 $111 forward single #
loop $-1 $112 $113 $51 #
cone-surface $-1 -38.055969097742533 -25.448836073525804 7.5885795242783498 0.52991927123019833 0 -0.84804809178421925 0.42402404589210962 0 0.26495963561509916 1 I I 0 1 0.5 forward I I I I #
face $-1 $114 $115 $40 $-1 $116 forward single #
loop $-1 $117 $118 $52 #
cone-surface $-1 -38.055969097742533 -22.676943044132948 7.5885795242783498 0.52991927123019833 0 -0.84804809178421925 0.42402404589210962 0 0.26495963561509916 1 I I 0 1 0.5 forward I I I I #
face $-1 $119 $120 $41 $-1 $121 reversed single #
loop $-1 $-1 $122 $53 #
plane-surface $-1 -101.49641154560558 20.829014357871046 85.092335487475992 0 1 0 -0.52991927123019833 0 0.84804809178421925 forward_v I I I I #
face $-1 $123 $124 $42 $-1 $125 forward single #
loop $-1 $126 $127 $54 #
cone-surface $-1 -38.055969097742533 22.676943044132955 7.5885795242783498 0.52991927123019833 0 -0.84804809178421925 0.42402404589210962 0 0.26495963561509916 1 I I 0 1 0.5 forward I I I I #
face $-1 $128 $129 $43 $-1 $130 forward single #
loop $-1 $131 $132 $55 #
cone-surface $-1 -38.055969097742533 25.448836073525811 7.5885795242783498 0.52991927123019833 0 -0.84804809178421925 0.42402404589210962 0 0.26495963561509916 1 I I 0 1 0.5 forward I I I I #
face $-1 $133 $134 $44 $-1 $135 forward single #
loop $-1 $136 $137 $56 #
cone-surface $-1 -38.055969097742533 28.220729102918668 7.5885795242783498 0.52991927123019833 0 -0.84804809178421925 0.42402404589210962 0 0.26495963561509916 1 I I 0 1 0.5 forward I I I I #
face $-1 $138 $139 $45 $-1 $140 reversed single #
loop $-1 $-1 $141 $57 #
plane-surface $-1 44.410099492530883 18.847225997120095 144.73890409716924 0 -1 0 -0.68199836817093118 0 -0.7313536940579346 forward_v I I I I #
face $-1 $142 $143 $46 $-1 $144 forward single #
loop $-1 $145 $146 $58 #
cone-surface $-1 43.255948784366474 8.2932670014859653 9.2734331106590737 -0.68199836817093118 0 -0.7313536940579346 0.7313536940579346 0 -0.68199836817093118 1 I I 0 1 1 forward I I I I #
face $-1 $147 $148 $47 $-1 $149 forward single #
loop $-1 $150 $151 $59 #
cone-surface $-1 43.255948784366474 14.625642398866447 9.2734331106590737 -0.68199836817093118 0 -0.7313536940579346 0.7313536940579346 0 -0.68199836817093118 1 I I 0 1 1 forward I I I I #
face $-1 $152 $153 $36 $-1 $154 reversed single #
loop $-1 $-1 $155 $60 #
plane-surface $-1 0 0 -15.010497774099404 0 0 1 1 0 0 forward_v I I I I #
coedge $-1 $156 $157 $158 $159 forward $61 $-1 #
face $-1 $160 $161 $37 $-1 $162 reversed single #
loop $-1 $-1 $163 $63 #
plane-surface $-1 -49.273964659566033 -25.448836073525804 1.5189520790999467 -0.52991927123019833 0 0.84804809178421925 0.84804809178421925 0 0.52991927123019833 forward_v I I I I #
coedge $-1 $164 $165 $166 $167 reversed $64 $-1 #
face $-1 $-1 $168 $38 $-1 $169 forward single #
loop $-1 $170 $171 $66 #
cone-surface $-1 -37.500986732833056 -28.220729102918661 6.7004220990109733 0.52991927123019833 0 -0.84804809178421925 0.21201202294605481 0 0.13247981780754958 1 I I -0.70710678118654746 0.70710678118654746 0.25 forward I I I I #
loop $-1 $-1 $172 $50 #
coedge $-1 $108 $108 $173 $174 reversed $67 $-1 #
face $-1 $-1 $175 $39 $-1 $176 forward single #
loop $-1 $177 $178 $69 #
cone-surface $-1 -37.500986732833056 -25.448836073525804 6.7004220990109733 0.52991927123019833 0 -0.84804809178421925 0.21201202294605481 0 0.13247981780754958 1 I I -0.70710678118654746 0.70710678118654746 0.25 forward I I I I #
loop $-1 $-1 $179 $51 #
coedge $-1 $113 $113 $180 $181 reversed $70 $-1 #
face $-1 $-1 $182 $40 $-1 $183 forward single #
loop $-1 $184 $185 $72 #
cone-surface $-1 -37.500986732833056 -22.676943044132948 6.7004220990109733 0.52991927123019833 0 -0.84804809178421925 0.21201202294605481 0 0.13247981780754958 1 I I -0.70710678118654746 0.70710678118654746 0.25 forward I I I I #
loop $-1 $-1 $186 $52 #
coedge $-1 $118 $118 $187 $188 reversed $73 $-1 #
face $-1 $189 $190 $41 $-1 $191 reversed single #
loop $-1 $-1 $192 $75 #
plane-surface $-1 -49.273964659566033 25.448836073525811 1.5189520790999467 -0.52991927123019833 0 0.84804809178421925 0.84804809178421925 0 0.52991927123019833 forward_v I I I I #
coedge $-1 $193 $194 $195 $196 reversed $76 $-1 #
face $-1 $-1 $197 $42 $-1 $198 forward single #
loop $-1 $199 $200 $78 #
cone-surface $-1 -37.500986732833056 22.676943044132955 6.7004220990109733 0.52991927123019833 0 -0.84804809178421925 0.21201202294605481 0 0.13247981780754958 1 I I -0.70710678118654746 0.70710678118654746 0.25 forward I I I I #
loop $-1 $-1 $201 $54 #
coedge $-1 $127 $127 $202 $203 reversed $79 $-1 #
face $-1 $-1 $204 $43 $-1 $205 forward single #
loop $-1 $206 $207 $81 #
cone-surface $-1 -37.500986732833056 25.448836073525811 6.7004220990109733 0.52991927123019833 0 -0.84804809178421925 0.21201202294605481 0 0.13247981780754958 1 I I -0.70710678118654746 0.70710678118654746 0.25 forward I I I I #
loop $-1 $-1 $208 $55 #
coedge $-1 $132 $132 $209 $210 reversed $82 $-1 #
face $-1 $-1 $211 $44 $-1 $212 forward single #
loop $-1 $213 $214 $84 #
cone-surface $-1 -37.500986732833056 28.220729102918668 6.7004220990109733 0.52991927123019833 0 -0.84804809178421925 0.21201202294605481 0 0.13247981780754958 1 I I -0.70710678118654746 0.70710678118654746 0.25 forward I I I I #
loop $-1 $-1 $215 $56 #
coedge $-1 $137 $137 $216 $217 reversed $85 $-1 #
face $-1 $218 $219 $45 $-1 $220 reversed single #
loop $-1 $-1 $221 $87 #
plane-surface $-1 -22.799427489741454 11.459454700176202 72.665511947861759 0.68199836817093118 0 0.7313536940579346 0.7313536940579346 0 -0.68199836817093118 forward_v I I I I #
coedge $-1 $222 $223 $224 $225 reversed $88 $-1 #
face $-1 $-1 $226 $46 $-1 $227 forward single #
loop $-1 $228 $229 $90 #
cone-surface $-1 42.01991389889637 8.2932670014859653 7.9479480044447559 -0.68199836817093118 0 -0.7313536940579346 0.3656768470289673 0 -0.34099918408546559 1 I I -0.70710678118654746 0.70710678118654746 0.5 forward I I I I #
loop $-1 $-1 $230 $58 #
coedge $-1 $146 $146 $231 $232 reversed $91 $-1 #
face $-1 $-1 $233 $47 $-1 $234 forward single #
loop $-1 $235 $236 $93 #
cone-surface $-1 42.01991389889637 14.625642398866447 7.9479480044447559 -0.68199836817093118 0 -0.7313536940579346 0.3656768470289673 0 -0.34099918408546559 1 I I -0.70710678118654746 0.70710678118654746 0.5 forward I I I I #
loop $-1 $-1 $237 $59 #
coedge $-1 $151 $151 $238 $239 reversed $94 $-1 #
face $-1 $240 $241 $36 $-1 $242 reversed single #
loop $-1 $-1 $243 $96 #
plane-surface $-1 0 -33.825906810167062 0 0 1 0 0 0 1 forward_v I I I I #
coedge $-1 $244 $245 $246 $247 forward $97 $-1 #
coedge $-1 $248 $99 $249 $250 forward $61 $-1 #
coedge $-1 $99 $248 $251 $252 forward $61 $-1 #
coedge $-1 $253 $254 $99 $159 reversed $255 $-1 #
edge $-1 $256 -33.825906810167062 $257 33.825906810167062 $158 $258 forward 7 unknown #
face $-1 $259 $260 $37 $-1 $261 reversed single #
loop $-1 $-1 $262 $100 #
plane-surface $-1 -101.49641154560558 -20.829014357871038 85.092335487475992 0 -1 0 0.52991927123019833 0 -0.84804809178421925 forward_v I I I I #
coedge $-1 $263 $264 $265 $266 reversed $101 $-1 #
coedge $-1 $165 $103 $267 $268 reversed $64 $-1 #
coedge $-1 $103 $164 $263 $269 reversed $64 $-1 #
coedge $-1 $265 $270 $103 $167 forward $271 $-1 #
edge $-1 $272 1.474241113236765 $273 23.06522714267987 $166 $274 forward 7 unknown #
loop $-1 $-1 $173 $104 #
plane-surface $-1 -49.273964659566033 -25.448836073525804 1.5189520790999467 -0.52991927123019833 0 0.84804809178421925 0.84804809178421925 0 0.52991927123019833 forward_v I I I I #
loop $-1 $-1 $275 $66 #
coedge $-1 $171 $171 $172 $276 reversed $105 $-1 #
coedge $-1 $172 $172 $171 $276 forward $107 $-1 #
coedge $-1 $173 $173 $108 $174 forward $168 $-1 #
edge $-1 $277 0 $277 6.2831853071796004 $173 $278 forward 7 unknown #
loop $-1 $-1 $180 $109 #
plane-surface $-1 -49.273964659566033 -25.448836073525804 1.5189520790999467 -0.52991927123019833 0 0.84804809178421925 0.84804809178421925 0 0.52991927123019833 forward_v I I I I #
loop $-1 $-1 $279 $69 #
coedge $-1 $178 $178 $179 $280 reversed $110 $-1 #
coedge $-1 $179 $179 $178 $280 forward $112 $-1 #
coedge $-1 $180 $180 $113 $181 forward $175 $-1 #
edge $-1 $281 0 $281 6.2831853071796004 $180 $282 forward 7 unknown #
loop $-1 $-1 $187 $114 #
plane-surface $-1 -49.273964659566033 -25.448836073525804 1.5189520790999467 -0.52991927123019833 0 0.84804809178421925 0.84804809178421925 0 0.52991927123019833 forward_v I I I I #
loop $-1 $-1 $283 $72 #
coedge $-1 $185 $185 $186 $284 reversed $115 $-1 #
coedge $-1 $186 $186 $185 $284 forward $117 $-1 #
coedge $-1 $187 $187 $118 $188 forward $182 $-1 #
edge $-1 $285 0 $285 6.2831853071796004 $187 $286 forward 7 unknown #
face $-1 $287 $288 $41 $-1 $289 forward single #
loop $-1 $-1 $290 $119 #
plane-surface $-1 -101.49641154560558 30.068657789180577 85.092335487475992 0 -1 0 0.52991927123019833 0 -0.84804809178421925 forward_v I I I I #
coedge $-1 $291 $292 $293 $294 reversed $120 $-1 #
coedge $-1 $194 $122 $295 $296 reversed $76 $-1 #
coedge $-1 $122 $193 $291 $297 reversed $76 $-1 #
coedge $-1 $293 $298 $122 $196 forward $288 $-1 #
edge $-1 $299 1.474241113236765 $300 23.06522714267987 $195 $301 forward 7 unknown #
loop $-1 $-1 $202 $123 #
plane-surface $-1 -49.273964659566033 25.448836073525811 1.5189520790999467 -0.52991927123019833 0 0.84804809178421925 0.84804809178421925 0 0.52991927123019833 forward_v I I I I #
loop $-1 $-1 $302 $78 #
coedge $-1 $200 $200 $201 $303 reversed $124 $-1 #
coedge $-1 $201 $201 $200 $303 forward $126 $-1 #
coedge $-1 $202 $202 $127 $203 forward $197 $-1 #
edge $-1 $304 0 $304 6.2831853071796004 $202 $305 forward 7 unknown #
loop $-1 $-1 $209 $128 #
plane-surface $-1 -49.273964659566033 25.448836073525811 1.5189520790999467 -0.52991927123019833 0 0.84804809178421925 0.84804809178421925 0 0.52991927123019833 forward_v I I I I #
loop $-1 $-1 $306 $81 #
coedge $-1 $207 $207 $208 $307 reversed $129 $-1 #
coedge $-1 $208 $208 $207 $307 forward $131 $-1 #
coedge $-1 $209 $209 $132 $210 forward $204 $-1 #
edge $-1 $308 0 $308 6.2831853071796004 $209 $309 forward 7 unknown #
loop $-1 $-1 $216 $133 #
plane-surface $-1 -49.273964659566033 25.448836073525811 1.5189520790999467 -0.52991927123019833 0 0.84804809178421925 0.84804809178421925 0 0.52991927123019833 forward_v I I I I #
loop $-1 $-1 $310 $84 #
coedge $-1 $214 $214 $215 $311 reversed $134 $-1 #
coedge $-1 $215 $215 $214 $311 forward $136 $-1 #
coedge $-1 $216 $216 $137 $217 forward $211 $-1 #
edge $-1 $312 0 $312 6.2831853071796004 $216 $313 forward 7 unknown #
face $-1 $314 $315 $45 $-1 $316 forward single #
loop $-1 $-1 $317 $138 #
plane-surface $-1 44.410099492530883 4.0716834032323099 144.73890409716924 0 1 0 0.68199836817093118 0 0.7313536940579346 forward_v I I I I #
coedge $-1 $318 $319 $320 $321 reversed $139 $-1 #
coedge $-1 $223 $141 $322 $323 reversed $88 $-1 #
coedge $-1 $141 $222 $318 $324 reversed $88 $-1 #
coedge $-1 $320 $325 $141 $225 forward $315 $-1 #
edge $-1 $326 -27.068914913300585 $327 -16.822954565670731 $224 $328 forward 7 unknown #
loop $-1 $-1 $231 $142 #
plane-surface $-1 -22.799427489741454 11.459454700176202 72.665511947861759 0.68199836817093118 0 0.7313536940579346 0.7313536940579346 0 -0.68199836817093118 forward_v I I I I #
loop $-1 $-1 $329 $90 #
coedge $-1 $229 $229 $230 $330 reversed $143 $-1 #
coedge $-1 $230 $230 $229 $330 forward $145 $-1 #
coedge $-1 $231 $231 $146 $232 forward $226 $-1 #
edge $-1 $331 0 $331 6.2831853071796004 $231 $332 forward 7 unknown #
loop $-1 $-1 $238 $147 #
plane-surface $-1 -22.799427489741454 11.459454700176202 72.665511947861759 0.68199836817093118 0 0.7313536940579346 0.7313536940579346 0 -0.68199836817093118 forward_v I I I I #
loop $-1 $-1 $333 $93 #
coedge $-1 $236 $236 $237 $334 reversed $148 $-1 #
coedge $-1 $237 $237 $236 $334 forward $150 $-1 #
coedge $-1 $238 $238 $151 $239 forward $233 $-1 #
edge $-1 $335 0 $335 6.2831853071796004 $238 $336 forward 7 unknown #
face $-1 $337 $338 $36 $-1 $339 reversed single #
loop $-1 $-1 $340 $152 #
plane-surface $-1 -49.273964659566026 0 0 1 0 0 0 0 -1 forward_v I I I I #
coedge $-1 $341 $251 $342 $343 forward $153 $-1 #
coedge $-1 $344 $155 $341 $345 forward $97 $-1 #
coedge $-1 $155 $344 $346 $347 forward $97 $-1 #
coedge $-1 $254 $253 $155 $247 reversed $255 $-1 #
edge $-1 $348 -33.825906810167062 $349 33.825906810167062 $246 $350 forward 7 unknown #
coedge $-1 $157 $156 $351 $352 forward $61 $-1 #
coedge $-1 $353 $354 $156 $250 reversed $338 $-1 #
edge $-1 $257 -49.273964659566026 $355 49.273964659566026 $249 $356 forward 7 unknown #
coedge $-1 $243 $357 $157 $252 reversed $153 $-1 #
edge $-1 $358 -49.273964659566026 $256 49.273964659566026 $251 $359 forward 7 unknown #
coedge $-1 $246 $158 $357 $360 forward $255 $-1 #
coedge $-1 $158 $246 $353 $361 reversed $255 $-1 #
loop $-1 $-1 $253 $337 #
vertex $-1 $159 $362 #
vertex $-1 $159 $363 #
straight-curve $-1 49.273964659566026 0 15.010497774099404 0 1 0 I I #
face $-1 $-1 $271 $37 $-1 $364 forward single #
loop $-1 $-1 $365 $160 #
plane-surface $-1 -49.273964659566026 0 0 1 0 0 0 0 -1 forward_v I I I I #
coedge $-1 $366 $367 $368 $369 reversed $161 $-1 #
coedge $-1 $370 $163 $165 $269 forward $101 $-1 #
coedge $-1 $163 $370 $366 $371 forward $101 $-1 #
coedge $-1 $368 $166 $163 $266 forward $271 $-1 #
edge $-1 $273 -17.344239752417668 $372 -8.1045963211081364 $265 $373 forward 7 unknown #
coedge $-1 $374 $375 $164 $268 forward $260 $-1 #
edge $-1 $376 -41.027215664638042 $272 -27.53566996963859 $267 $377 forward 7 unknown #
edge $-1 $273 -25.459624564472001 $376 -8.3790584163743152e-015 $165 $378 forward 7 unknown #
coedge $-1 $166 $368 $374 $379 forward $271 $-1 #
loop $-1 $-1 $368 $259 #
vertex $-1 $268 $380 #
vertex $-1 $167 $381 #
straight-curve $-1 -50.748205772802791 -30.06865778918057 15.010497774099406 1 0 0 I I #
coedge $-1 $275 $275 $-1 $382 reversed $170 $-1 #
edge $-1 $383 0 $383 6.2831853071796004 $171 $384 forward 7 unknown #
vertex $-1 $174 $385 #
ellipse-curve $-1 -38.478471644844468 -28.220729102918661 8.2647249265996798 -0.52991927123019833 0 0.84804809178421925 0.42402404589210962 0 0.26495963561509916 1 I I #
coedge $-1 $279 $279 $-1 $386 reversed $177 $-1 #
edge $-1 $387 0 $387 6.2831853071796004 $178 $388 forward 7 unknown #
vertex $-1 $181 $389 #
ellipse-curve $-1 -38.478471644844468 -25.448836073525804 8.2647249265996798 -0.52991927123019833 0 0.84804809178421925 0.42402404589210962 0 0.26495963561509916 1 I I #
coedge $-1 $283 $283 $-1 $390 reversed $184 $-1 #
edge $-1 $391 0 $391 6.2831853071796004 $185 $392 forward 7 unknown #
vertex $-1 $188 $393 #
ellipse-curve $-1 -38.478471644844468 -22.676943044132948 8.2647249265996798 -0.52991927123019833 0 0.84804809178421925 0.42402404589210962 0 0.26495963561509916 1 I I #
face $-1 $-1 $394 $41 $-1 $395 reversed single #
loop $-1 $-1 $195 $189 #
plane-surface $-1 0 0 15.010497774099404 0 0 1 1 0 0 forward_v I I I I #
coedge $-1 $396 $397 $398 $399 reversed $190 $-1 #
coedge $-1 $400 $192 $194 $297 forward $120 $-1 #
coedge $-1 $192 $400 $396 $401 forward $120 $-1 #
coedge $-1 $398 $195 $192 $294 forward $288 $-1 #
edge $-1 $300 8.10459632110814 $402 17.344239752417671 $293 $403 forward 7 unknown #
coedge $-1 $404 $405 $193 $296 forward $394 $-1 #
edge $-1 $406 -41.027215664638042 $299 -27.53566996963859 $295 $407 forward 7 unknown #
edge $-1 $300 -25.459624564472001 $406 -8.3790584163743152e-015 $194 $408 forward 7 unknown #
coedge $-1 $195 $398 $404 $409 forward $288 $-1 #
vertex $-1 $196 $410 #
vertex $-1 $196 $411 #
straight-curve $-1 -50.748205772802791 20.829014357871046 15.010497774099406 1 0 0 I I #
coedge $-1 $302 $302 $-1 $412 reversed $199 $-1 #
edge $-1 $413 0 $413 6.2831853071796004 $200 $414 forward 7 unknown #
vertex $-1 $203 $415 #
ellipse-curve $-1 -38.478471644844468 22.676943044132955 8.2647249265996798 -0.52991927123019833 0 0.84804809178421925 0.42402404589210962 0 0.26495963561509916 1 I I #
coedge $-1 $306 $306 $-1 $416 reversed $206 $-1 #
edge $-1 $417 0 $417 6.2831853071796004 $207 $418 forward 7 unknown #
vertex $-1 $210 $419 #
ellipse-curve $-1 -38.478471644844468 25.448836073525811 8.2647249265996798 -0.52991927123019833 0 0.84804809178421925 0.42402404589210962 0 0.26495963561509916 1 I I #
coedge $-1 $310 $310 $-1 $420 reversed $213 $-1 #
edge $-1 $421 0 $421 6.2831853071796004 $214 $422 forward 7 unknown #
vertex $-1 $217 $423 #
ellipse-curve $-1 -38.478471644844468 28.220729102918668 8.2647249265996798 -0.52991927123019833 0 0.84804809178421925 0.42402404589210962 0 0.26495963561509916 1 I I #
face $-1 $-1 $424 $45 $-1 $425 reversed single #
loop $-1 $-1 $224 $218 #
plane-surface $-1 0 0 15.010497774099404 0 0 1 1 0 0 forward_v I I I I #
coedge $-1 $426 $427 $428 $429 reversed $219 $-1 #
coedge $-1 $430 $221 $223 $324 forward $139 $-1 #
coedge $-1 $221 $430 $426 $431 forward $139 $-1 #
coedge $-1 $428 $224 $221 $321 forward $315 $-1 #
edge $-1 $327 -13.117498647031994 $432 1.6580439468557913 $320 $433 forward 7 unknown #
coedge $-1 $434 $435 $222 $323 forward $424 $-1 #
edge $-1 $436 -66.913467082995197 $326 -57.358954274485214 $322 $437 forward 7 unknown #
edge $-1 $327 84.538346225649789 $436 98.547929319132066 $223 $438 forward 7 unknown #
coedge $-1 $224 $428 $434 $439 forward $315 $-1 #
vertex $-1 $323 $440 #
vertex $-1 $225 $441 #
straight-curve $-1 22.205049746265441 18.847225997120095 15.010497774099406 -1 0 0 I I #
coedge $-1 $329 $329 $-1 $442 reversed $228 $-1 #
edge $-1 $443 0 $443 6.2831853071796004 $229 $444 forward 7 unknown #
vertex $-1 $232 $445 #
ellipse-curve $-1 44.150984485751103 8.2932670014859653 10.233241369844411 0.68199836817093118 0 0.7313536940579346 0.7313536940579346 0 -0.68199836817093118 1 I I #
coedge $-1 $333 $333 $-1 $446 reversed $235 $-1 #
edge $-1 $447 0 $447 6.2831853071796004 $236 $448 forward 7 unknown #
vertex $-1 $239 $449 #
ellipse-curve $-1 44.150984485751103 14.625642398866447 10.233241369844411 0.68199836817093118 0 0.7313536940579346 0.7313536940579346 0 -0.68199836817093118 1 I I #
face $-1 $-1 $255 $36 $-1 $450 reversed single #
loop $-1 $-1 $353 $240 #
plane-surface $-1 0 33.825906810167062 0 0 -1 0 0 0 -1 forward_v I I I I #
coedge $-1 $451 $351 $354 $452 forward $241 $-1 #
coedge $-1 $357 $243 $244 $345 reversed $153 $-1 #
coedge $-1 $351 $451 $243 $343 reversed $241 $-1 #
edge $-1 $358 -15.010497774099404 $453 15.010497774099404 $342 $454 forward 7 unknown #
coedge $-1 $245 $244 $451 $455 forward $97 $-1 #
edge $-1 $349 -49.273964659566026 $453 49.273964659566026 $341 $456 forward 7 unknown #
coedge $-1 $354 $353 $245 $347 reversed $338 $-1 #
edge $-1 $457 -49.273964659566026 $348 49.273964659566026 $346 $458 forward 7 unknown #
vertex $-1 $247 $459 #
vertex $-1 $360 $460 #
straight-curve $-1 49.273964659566026 0 -15.010497774099404 0 -1 0 I I #
coedge $-1 $340 $342 $248 $352 reversed $241 $-1 #
edge $-1 $355 -33.825906810167062 $358 33.825906810167062 $351 $461 forward 7 unknown #
coedge $-1 $346 $249 $254 $361 forward $338 $-1 #
coedge $-1 $249 $346 $340 $452 reversed $338 $-1 #
vertex $-1 $250 $462 #
straight-curve $-1 0 33.825906810167062 15.010497774099404 -1 0 0 I I #
coedge $-1 $251 $341 $253 $360 reversed $153 $-1 #
vertex $-1 $352 $463 #
straight-curve $-1 0 -33.825906810167062 15.010497774099404 1 0 0 I I #
edge $-1 $256 -15.010497774099404 $349 15.010497774099404 $253 $464 forward 7 unknown #
edge $-1 $257 -15.010497774099404 $348 15.010497774099404 $254 $465 forward 7 unknown #
point $-1 49.273964659566026 -33.825906810167062 15.010497774099404 #
point $-1 49.273964659566026 33.825906810167062 15.010497774099404 #
plane-surface $-1 0 0 15.010497774099404 0 0 1 1 0 0 forward_v I I I I #
coedge $-1 $375 $374 $367 $466 forward $260 $-1 #
coedge $-1 $367 $262 $264 $371 reversed $161 $-1 #
coedge $-1 $262 $366 $365 $466 reversed $161 $-1 #
coedge $-1 $270 $265 $262 $369 forward $271 $-1 #
edge $-1 $372 -23.06522714267987 $467 -1.474241113236765 $368 $468 forward 7 unknown #
coedge $-1 $264 $263 $375 $469 reversed $101 $-1 #
edge $-1 $470 8.3790584163743152e-015 $372 25.459624564472001 $366 $471 forward 7 unknown #
vertex $-1 $266 $472 #
straight-curve $-1 -27.682978630122921 -12.724418036762902 15.010497774099404 0 1 0 I I #
coedge $-1 $365 $267 $270 $379 reversed $260 $-1 #
coedge $-1 $267 $365 $370 $469 forward $260 $-1 #
vertex $-1 $268 $473 #
straight-curve $-1 -49.273964659566026 -30.06865778918057 42.546167743737996 0 0 1 I I #
straight-curve $-1 -49.273964659566033 -30.06865778918057 1.5189520790999467 -0.84804809178421925 0 -0.52991927123019833 I I #
edge $-1 $467 20.829014357871038 $272 30.06865778918057 $374 $474 forward 7 unknown #
point $-1 -49.273964659566026 -30.06865778918057 15.010497774099404 #
point $-1 -27.682978630122921 -30.06865778918057 15.010497774099404 #
edge $-1 $475 1 $475 0 $275 $-1 forward 7 unknown #
vertex $-1 $276 $476 #
ellipse-curve $-1 -37.633466550640605 -28.220729102918661 6.9124341219570278 -0.52991927123019833 0 0.84804809178421925 0.42402404589210962 0 0.26495963561509916 1 I I #
point $-1 -38.054447598952358 -28.220729102918661 8.5296845622147703 #
edge $-1 $477 1 $477 0 $279 $-1 forward 7 unknown #
vertex $-1 $280 $478 #
ellipse-curve $-1 -37.633466550640605 -25.448836073525804 6.9124341219570278 -0.52991927123019833 0 0.84804809178421925 0.42402404589210962 0 0.26495963561509916 1 I I #
point $-1 -38.054447598952358 -25.448836073525804 8.5296845622147703 #
edge $-1 $479 1 $479 0 $283 $-1 forward 7 unknown #
vertex $-1 $284 $480 #
ellipse-curve $-1 -37.633466550640605 -22.676943044132948 6.9124341219570278 -0.52991927123019833 0 0.84804809178421925 0.42402404589210962 0 0.26495963561509916 1 I I #
point $-1 -38.054447598952358 -22.676943044132948 8.5296845622147703 #
loop $-1 $-1 $295 $287 #
plane-surface $-1 -49.273964659566026 0 0 1 0 0 0 0 -1 forward_v I I I I #
coedge $-1 $397 $290 $292 $401 reversed $190 $-1 #
coedge $-1 $290 $396 $481 $482 reversed $190 $-1 #
coedge $-1 $298 $293 $290 $399 forward $288 $-1 #
edge $-1 $402 -23.06522714267987 $483 -1.474241113236765 $398 $484 forward 7 unknown #
coedge $-1 $292 $291 $405 $485 reversed $120 $-1 #
edge $-1 $486 8.3790584163743152e-015 $402 25.459624564472001 $396 $487 forward 7 unknown #
vertex $-1 $294 $488 #
straight-curve $-1 -27.682978630122921 12.724418036762906 15.010497774099404 0 1 0 I I #
coedge $-1 $481 $295 $298 $409 reversed $394 $-1 #
coedge $-1 $295 $481 $400 $485 forward $394 $-1 #
vertex $-1 $296 $489 #
straight-curve $-1 -49.273964659566026 20.829014357871046 42.546167743737996 0 0 1 I I #
straight-curve $-1 -49.273964659566033 20.829014357871046 1.5189520790999467 -0.84804809178421925 0 -0.52991927123019833 I I #
edge $-1 $483 -30.068657789180577 $299 -20.829014357871046 $404 $490 forward 7 unknown #
point $-1 -49.273964659566026 20.829014357871046 15.010497774099404 #
point $-1 -27.682978630122921 20.829014357871046 15.010497774099404 #
edge $-1 $491 1 $491 0 $302 $-1 forward 7 unknown #
vertex $-1 $303 $492 #
ellipse-curve $-1 -37.633466550640605 22.676943044132955 6.9124341219570278 -0.52991927123019833 0 0.84804809178421925 0.42402404589210962 0 0.26495963561509916 1 I I #
point $-1 -38.054447598952358 22.676943044132955 8.5296845622147703 #
edge $-1 $493 1 $493 0 $306 $-1 forward 7 unknown #
vertex $-1 $307 $494 #
ellipse-curve $-1 -37.633466550640605 25.448836073525811 6.9124341219570278 -0.52991927123019833 0 0.84804809178421925 0.42402404589210962 0 0.26495963561509916 1 I I #
point $-1 -38.054447598952358 25.448836073525811 8.5296845622147703 #
edge $-1 $495 1 $495 0 $310 $-1 forward 7 unknown #
vertex $-1 $311 $496 #
ellipse-curve $-1 -37.633466550640605 28.220729102918668 6.9124341219570278 -0.52991927123019833 0 0.84804809178421925 0.42402404589210962 0 0.26495963561509916 1 I I #
point $-1 -38.054447598952358 28.220729102918668 8.5296845622147703 #
loop $-1 $-1 $322 $314 #
plane-surface $-1 49.273964659566026 0 0 -1 0 0 0 0 1 forward_v I I I I #
coedge $-1 $427 $317 $319 $431 reversed $219 $-1 #
coedge $-1 $317 $426 $497 $498 reversed $219 $-1 #
coedge $-1 $325 $320 $317 $429 forward $315 $-1 #
edge $-1 $432 16.822954565670731 $499 27.068914913300585 $428 $500 forward 7 unknown #
coedge $-1 $319 $318 $435 $501 reversed $139 $-1 #
edge $-1 $502 -98.547929319132066 $432 -84.538346225649789 $426 $503 forward 7 unknown #
vertex $-1 $321 $504 #
straight-curve $-1 39.028004311936172 5.7297273500881012 15.010497774099406 0 -1 0 I I #
coedge $-1 $497 $322 $325 $439 reversed $424 $-1 #
coedge $-1 $322 $497 $430 $501 forward $424 $-1 #
vertex $-1 $323 $505 #
straight-curve $-1 49.273964659566026 18.847225997120095 72.36945204858462 0 0 1 I I #
straight-curve $-1 -22.799427489741454 18.847225997120095 72.665511947861759 0.7313536940579346 0 -0.68199836817093118 I I #
edge $-1 $499 4.0716834032323099 $326 18.847225997120095 $434 $506 forward 7 unknown #
point $-1 49.273964659566026 18.847225997120095 15.010497774099404 #
point $-1 39.028004311936172 18.847225997120095 15.010497774099406 #
edge $-1 $507 1 $507 0 $329 $-1 forward 7 unknown #
vertex $-1 $330 $508 #
ellipse-curve $-1 42.360913082981838 8.2932670014859653 8.3136248514737225 0.68199836817093118 0 0.7313536940579346 0.7313536940579346 0 -0.68199836817093118 1 I I #
point $-1 44.882338179809047 8.2932670014859653 9.5512430016734911 #
edge $-1 $509 1 $509 0 $333 $-1 forward 7 unknown #
vertex $-1 $334 $510 #
ellipse-curve $-1 42.360913082981838 14.625642398866447 8.3136248514737225 0.68199836817093118 0 0.7313536940579346 0.7313536940579346 0 -0.68199836817093118 1 I I #
point $-1 44.882338179809047 14.625642398866447 9.5512430016734911 #
plane-surface $-1 49.273964659566026 0 0 -1 0 0 0 0 1 forward_v I I I I #
coedge $-1 $342 $340 $344 $455 reversed $241 $-1 #
edge $-1 $355 -15.010497774099404 $457 15.010497774099404 $354 $511 forward 7 unknown #
vertex $-1 $455 $512 #
straight-curve $-1 -49.273964659566026 -33.825906810167062 0 0 0 -1 I I #
edge $-1 $453 -33.825906810167062 $457 33.825906810167062 $451 $513 forward 7 unknown #
straight-curve $-1 0 -33.825906810167062 -15.010497774099404 -1 0 0 I I #
vertex $-1 $347 $514 #
straight-curve $-1 0 33.825906810167062 -15.010497774099404 1 0 0 I I #
point $-1 49.273964659566026 33.825906810167062 -15.010497774099404 #
point $-1 49.273964659566026 -33.825906810167062 -15.010497774099404 #
straight-curve $-1 -49.273964659566026 0 15.010497774099404 0 -1 0 I I #
point $-1 -49.273964659566026 33.825906810167062 15.010497774099404 #
point $-1 -49.273964659566026 -33.825906810167062 15.010497774099404 #
straight-curve $-1 49.273964659566026 -33.825906810167062 0 0 0 -1 I I #
straight-curve $-1 49.273964659566026 33.825906810167062 0 0 0 -1 I I #
edge $-1 $467 27.53566996963859 $470 41.027215664638042 $365 $515 forward 7 unknown #
vertex $-1 $379 $516 #
straight-curve $-1 -50.748205772802791 -20.829014357871038 15.010497774099406 -1 0 0 I I #
edge $-1 $470 8.1045963211081364 $376 17.344239752417668 $375 $517 forward 7 unknown #
vertex $-1 $469 $518 #
straight-curve $-1 -49.273964659566033 -20.829014357871038 1.5189520790999467 0.84804809178421925 0 0.52991927123019833 I I #
point $-1 -27.682978630122921 -20.829014357871038 15.010497774099404 #
point $-1 -49.273964659566026 -30.06865778918057 1.5189520790999511 #
straight-curve $-1 -49.273964659566026 0 15.010497774099404 0 -1 0 I I #
vertex $-1 $382 $519 #
point $-1 -37.209442504748495 -28.220729102918661 7.1773937575721272 #
vertex $-1 $386 $520 #
point $-1 -37.209442504748495 -25.448836073525804 7.1773937575721272 #
vertex $-1 $390 $521 #
point $-1 -37.209442504748495 -22.676943044132948 7.1773937575721272 #
coedge $-1 $405 $404 $397 $482 forward $394 $-1 #
edge $-1 $483 27.53566996963859 $486 41.027215664638042 $481 $522 forward 7 unknown #
vertex $-1 $409 $523 #
straight-curve $-1 -50.748205772802791 30.068657789180577 15.010497774099406 -1 0 0 I I #
edge $-1 $486 -17.344239752417671 $406 -8.10459632110814 $405 $524 forward 7 unknown #
vertex $-1 $485 $525 #
straight-curve $-1 -49.273964659566033 30.068657789180577 1.5189520790999467 0.84804809178421925 0 0.52991927123019833 I I #
point $-1 -27.682978630122921 30.068657789180577 15.010497774099404 #
point $-1 -49.273964659566026 20.829014357871046 1.5189520790999511 #
straight-curve $-1 -49.273964659566026 0 15.010497774099404 0 -1 0 I I #
vertex $-1 $412 $526 #
point $-1 -37.209442504748495 22.676943044132955 7.1773937575721272 #
vertex $-1 $416 $527 #
point $-1 -37.209442504748495 25.448836073525811 7.1773937575721272 #
vertex $-1 $420 $528 #
point $-1 -37.209442504748495 28.220729102918668 7.1773937575721272 #
coedge $-1 $435 $434 $427 $498 forward $424 $-1 #
edge $-1 $499 57.358954274485214 $502 66.913467082995197 $497 $529 forward 7 unknown #
vertex $-1 $439 $530 #
straight-curve $-1 22.205049746265441 4.0716834032323099 15.010497774099406 1 0 0 I I #
edge $-1 $502 -1.6580439468557913 $436 13.117498647031994 $435 $531 forward 7 unknown #
vertex $-1 $501 $532 #
straight-curve $-1 -22.799427489741454 4.0716834032323099 72.665511947861759 -0.7313536940579346 0 0.68199836817093118 I I #
point $-1 39.028004311936172 4.0716834032323099 15.010497774099406 #
point $-1 49.273964659566026 18.847225997120095 5.4559849655894226 #
straight-curve $-1 49.273964659566026 0 15.010497774099404 0 1 0 I I #
vertex $-1 $442 $533 #
point $-1 43.092266777039768 8.2932670014859653 7.6316264833027923 #
vertex $-1 $446 $534 #
point $-1 43.092266777039768 14.625642398866447 7.6316264833027923 #
straight-curve $-1 -49.273964659566026 33.825906810167062 0 0 0 -1 I I #
point $-1 -49.273964659566026 -33.825906810167062 -15.010497774099404 #
straight-curve $-1 -49.273964659566026 0 -15.010497774099404 0 1 0 I I #
point $-1 -49.273964659566026 33.825906810167062 -15.010497774099404 #
straight-curve $-1 -49.273964659566026 -20.829014357871038 42.546167743737996 0 0 -1 I I #
point $-1 -49.273964659566026 -20.829014357871038 15.010497774099404 #
straight-curve $-1 -49.273964659566026 -12.724418036762902 1.5189520790999538 0 -1 0 I I #
point $-1 -49.273964659566026 -20.829014357871038 1.5189520790999511 #
point $-1 -37.368506915025506 -28.220729102918661 6.4884100760649188 #
point $-1 -37.368506915025506 -25.448836073525804 6.4884100760649188 #
point $-1 -37.368506915025506 -22.676943044132948 6.4884100760649188 #
straight-curve $-1 -49.273964659566026 30.068657789180577 42.546167743737996 0 0 -1 I I #
point $-1 -49.273964659566026 30.068657789180577 15.010497774099404 #
straight-curve $-1 -49.273964659566026 12.724418036762906 1.5189520790999538 0 -1 0 I I #
point $-1 -49.273964659566026 30.068657789180577 1.5189520790999511 #
point $-1 -37.368506915025506 22.676943044132955 6.4884100760649188 #
point $-1 -37.368506915025506 25.448836073525811 6.4884100760649188 #
point $-1 -37.368506915025506 28.220729102918668 6.4884100760649188 #
straight-curve $-1 49.273964659566026 4.0716834032323099 72.36945204858462 0 0 -1 I I #
point $-1 49.273964659566026 4.0716834032323099 15.010497774099404 #
straight-curve $-1 49.273964659566026 5.7297273500881012 5.4559849655894226 0 1 0 I I #
point $-1 49.273964659566026 4.0716834032323099 5.4559849655894226 #
point $-1 41.678914714810901 8.2932670014859653 7.5822711574157884 #
point $-1 41.678914714810901 14.625642398866447 7.5822711574157884 #
End-of-ACIS-data 