500 0 7 0           
7 Unknown 11 ACIS 5.0 NT 24 Fri Mar 26 00:18:55 1999 
-1 9.9999999999999995e-007 1e-010 
body $-1 $7 $-1 $8 #
body $-1 $9 $-1 $10 #
body $-1 $11 $-1 $12 #
body $-1 $13 $-1 $14 #
body $-1 $15 $-1 $16 #
body $-1 $17 $-1 $18 #
body $-1 $19 $-1 $20 #
lump $-1 $-1 $21 $0 #
transform $-1 1 0 0 0 1 0 0 0 1 44.835352641376993 28.568768708274973 12.344634098631332 1 rotate no_reflect no_shear #
lump $-1 $-1 $22 $1 #
transform $-1 1 0 0 0 1 0 0 0 1 44.835352641376993 28.568768708274973 12.344634098631332 1 rotate no_reflect no_shear #
lump $-1 $-1 $23 $2 #
transform $-1 1 0 0 0 1 0 0 0 1 44.835352641376993 28.568768708274973 12.344634098631332 1 rotate no_reflect no_shear #
lump $-1 $-1 $24 $3 #
transform $-1 1 0 0 0 1 0 0 0 1 44.835352641376993 28.568768708274973 12.344634098631332 1 rotate no_reflect no_shear #
lump $-1 $-1 $25 $4 #
transform $-1 1 0 0 0 1 0 0 0 1 44.835352641376993 28.568768708274973 12.344634098631332 1 rotate no_reflect no_shear #
lump $-1 $-1 $26 $5 #
transform $-1 1 0 0 0 1 0 0 0 1 44.835352641376993 28.568768708274973 12.344634098631332 1 rotate no_reflect no_shear #
lump $-1 $-1 $27 $6 #
transform $-1 1 0 0 0 1 0 0 0 1 44.835352641376993 28.568768708274973 12.344634098631332 1 rotate no_reflect no_shear #
shell $-1 $-1 $-1 $28 $-1 $7 #
shell $-1 $-1 $-1 $29 $-1 $9 #
shell $-1 $-1 $-1 $30 $-1 $11 #
shell $-1 $-1 $-1 $31 $-1 $13 #
shell $-1 $-1 $-1 $32 $-1 $15 #
shell $-1 $-1 $-1 $33 $-1 $17 #
shell $-1 $-1 $-1 $34 $-1 $19 #
face $-1 $35 $36 $21 $-1 $37 forward single #
face $-1 $38 $39 $22 $-1 $40 forward single #
face $-1 $41 $42 $23 $-1 $43 reversed single #
face $-1 $44 $45 $24 $-1 $46 forward single #
face $-1 $47 $48 $25 $-1 $49 forward single #
face $-1 $50 $51 $26 $-1 $52 reversed single #
face $-1 $53 $54 $27 $-1 $55 forward single #
face $-1 $56 $57 $21 $-1 $58 reversed single #
loop $-1 $-1 $59 $28 #
plane-surface $-1 0 0 12.344634098631332 0 0 1 1 0 0 forward_v I I I I #
face $-1 $60 $61 $22 $-1 $62 reversed single #
loop $-1 $-1 $63 $29 #
plane-surface $-1 0 -23.164025161534838 -5.4104360856124849 0 0 1 1 0 0 forward_v I I I I #
face $-1 $64 $65 $23 $-1 $66 reversed single #
loop $-1 $-1 $67 $30 #
plane-surface $-1 75.514323487807502 26.123743693793276 129.58704019179311 0 -1 0 -0.85716730853699208 0 -0.51503806187062418 forward_v I I I I #
face $-1 $68 $69 $24 $-1 $70 forward single #
loop $-1 $71 $72 $31 #
cone-surface $-1 41.854090089412011 19.888985315434724 8.6989605825702689 -0.85716730853699208 0 -0.51503806187062418 0.51503806187062418 0 -0.85716730853699208 1 I I 0 1 1 forward I I I I #
face $-1 $73 $74 $25 $-1 $75 forward single #
loop $-1 $76 $77 $32 #
cone-surface $-1 41.854090089412011 23.629840342449853 8.6989605825702689 -0.85716730853699208 0 -0.51503806187062418 0.51503806187062418 0 -0.85716730853699208 1 I I 0 1 1 forward I I I I #
face $-1 $78 $79 $26 $-1 $80 reversed single #
loop $-1 $-1 $81 $33 #
plane-surface $-1 -122.49246208511539 -17.759281614794705 51.220628013042543 0 1 0 -0.86602541151947299 0 0.49999998660252726 forward_v I I I I #
face $-1 $82 $83 $27 $-1 $84 forward single #
loop $-1 $85 $86 $34 #
cone-surface $-1 -41.600514051809618 -12.694947776175649 8.4905466553796902 0.86602541151947299 0 -0.49999998660252726 0.49999998660252726 0 0.86602541151947299 1 I I 0 1 1 forward I I I I #
face $-1 $87 $88 $21 $-1 $89 reversed single #
loop $-1 $-1 $90 $35 #
plane-surface $-1 0 0 -12.344634098631332 0 0 1 1 0 0 forward_v I I I I #
coedge $-1 $91 $92 $93 $94 forward $36 $-1 #
face $-1 $95 $96 $22 $-1 $97 reversed single #
loop $-1 $-1 $98 $38 #
plane-surface $-1 0 -17.759281614794702 -8.8775350921219083 0 -1 0 0 0 -1 forward_v I I I I #
coedge $-1 $99 $100 $101 $102 reversed $39 $-1 #
face $-1 $103 $104 $23 $-1 $105 reversed single #
loop $-1 $-1 $106 $41 #
plane-surface $-1 -1.3484736140245701 21.759412828942288 83.403213936391552 0.85716730853699208 0 0.51503806187062418 0.51503806187062418 0 -0.85716730853699208 forward_v I I I I #
coedge $-1 $107 $108 $109 $110 reversed $42 $-1 #
face $-1 $-1 $111 $24 $-1 $112 forward single #
loop $-1 $113 $114 $44 #
cone-surface $-1 40.188006612222559 19.888985315434724 7.6978766676098189 -0.85716730853699208 0 -0.51503806187062418 0.25751903093531209 0 -0.42858365426849604 1 I I -0.70710678118654746 0.70710678118654746 0.5 forward I I I I #
loop $-1 $-1 $115 $31 #
coedge $-1 $72 $72 $116 $117 reversed $45 $-1 #
face $-1 $-1 $118 $25 $-1 $119 forward single #
loop $-1 $120 $121 $47 #
cone-surface $-1 40.188006612222559 23.629840342449853 7.6978766676098189 -0.85716730853699208 0 -0.51503806187062418 0.25751903093531209 0 -0.42858365426849604 1 I I -0.70710678118654746 0.70710678118654746 0.5 forward I I I I #
loop $-1 $-1 $122 $32 #
coedge $-1 $77 $77 $123 $124 reversed $48 $-1 #
face $-1 $125 $126 $26 $-1 $127 reversed single #
loop $-1 $-1 $128 $50 #
plane-surface $-1 -44.835352641376986 -12.694947776175651 6.3852765730263812 -0.86602541151947299 0 0.49999998660252726 0.49999998660252726 0 0.86602541151947299 forward_v I I I I #
coedge $-1 $129 $130 $131 $132 reversed $51 $-1 #
face $-1 $-1 $133 $27 $-1 $134 forward single #
loop $-1 $135 $136 $53 #
cone-surface $-1 -39.652981030824009 -12.694947776175649 7.366137981629258 0.86602541151947299 0 -0.49999998660252726 0.24999999330126363 0 0.43301270575973649 1 I I -0.70710678118654746 0.70710678118654746 0.5 forward I I I I #
loop $-1 $-1 $137 $34 #
coedge $-1 $86 $86 $138 $139 reversed $54 $-1 #
face $-1 $140 $141 $21 $-1 $142 reversed single #
loop $-1 $-1 $143 $56 #
plane-surface $-1 0 -28.568768708274973 0 0 1 0 0 0 1 forward_v I I I I #
coedge $-1 $144 $145 $146 $147 forward $57 $-1 #
coedge $-1 $148 $59 $149 $150 forward $36 $-1 #
coedge $-1 $59 $148 $151 $152 forward $36 $-1 #
coedge $-1 $153 $154 $59 $94 reversed $155 $-1 #
edge $-1 $156 -28.568768708274973 $157 28.568768708274973 $93 $158 forward 7 unknown #
face $-1 $159 $160 $22 $-1 $161 reversed single #
loop $-1 $-1 $162 $60 #
plane-surface $-1 0 0 -12.344634098631332 0 0 1 1 0 0 forward_v I I I I #
coedge $-1 $163 $164 $165 $166 reversed $61 $-1 #
coedge $-1 $167 $63 $164 $168 forward $39 $-1 #
coedge $-1 $63 $167 $169 $170 reversed $39 $-1 #
coedge $-1 $171 $165 $63 $102 forward $160 $-1 #
edge $-1 $172 6.1772690340272831 $173 16.986756127507554 $101 $174 forward 7 unknown #
face $-1 $175 $176 $23 $-1 $177 reversed single #
loop $-1 $-1 $178 $64 #
plane-surface $-1 75.514323487807502 17.3950819640913 129.58704019179311 0 1 0 0.85716730853699208 0 0.51503806187062418 forward_v I I I I #
coedge $-1 $179 $180 $181 $182 reversed $65 $-1 #
coedge $-1 $108 $67 $183 $184 reversed $42 $-1 #
coedge $-1 $67 $107 $179 $185 reversed $42 $-1 #
coedge $-1 $181 $186 $67 $110 forward $187 $-1 #
edge $-1 $188 -7.0781908974732417 $189 -3.5906654393851767 $109 $190 forward 7 unknown #
loop $-1 $-1 $116 $68 #
plane-surface $-1 -1.3484736140245701 21.759412828942288 83.403213936391552 0.85716730853699208 0 0.51503806187062418 0.51503806187062418 0 -0.85716730853699208 forward_v I I I I #
loop $-1 $-1 $191 $44 #
coedge $-1 $114 $114 $115 $192 reversed $69 $-1 #
coedge $-1 $115 $115 $114 $192 forward $71 $-1 #
coedge $-1 $116 $116 $72 $117 forward $111 $-1 #
edge $-1 $193 0 $193 6.2831853071796004 $116 $194 forward 7 unknown #
loop $-1 $-1 $123 $73 #
plane-surface $-1 -1.3484736140245701 21.759412828942288 83.403213936391552 0.85716730853699208 0 0.51503806187062418 0.51503806187062418 0 -0.85716730853699208 forward_v I I I I #
loop $-1 $-1 $195 $47 #
coedge $-1 $121 $121 $122 $196 reversed $74 $-1 #
coedge $-1 $122 $122 $121 $196 forward $76 $-1 #
coedge $-1 $123 $123 $77 $124 forward $118 $-1 #
edge $-1 $197 0 $197 6.2831853071796004 $123 $198 forward 7 unknown #
face $-1 $199 $200 $26 $-1 $201 forward single #
loop $-1 $-1 $202 $78 #
plane-surface $-1 -122.49246208511539 -7.6306139375565962 51.220628013042543 0 -1 0 0.86602541151947299 0 -0.49999998660252726 forward_v I I I I #
coedge $-1 $203 $204 $205 $206 reversed $79 $-1 #
coedge $-1 $130 $81 $207 $208 reversed $51 $-1 #
coedge $-1 $81 $129 $203 $209 reversed $51 $-1 #
coedge $-1 $205 $210 $81 $132 forward $200 $-1 #
edge $-1 $211 16.410878401180703 $212 19.85151494986372 $131 $213 forward 7 unknown #
loop $-1 $-1 $138 $82 #
plane-surface $-1 -44.835352641376986 -12.694947776175651 6.3852765730263812 -0.86602541151947299 0 0.49999998660252726 0.49999998660252726 0 0.86602541151947299 forward_v I I I I #
loop $-1 $-1 $214 $53 #
coedge $-1 $136 $136 $137 $215 reversed $83 $-1 #
coedge $-1 $137 $137 $136 $215 forward $85 $-1 #
coedge $-1 $138 $138 $86 $139 forward $133 $-1 #
edge $-1 $216 0 $216 6.2831853071796004 $138 $217 forward 7 unknown #
face $-1 $218 $219 $21 $-1 $220 reversed single #
loop $-1 $-1 $221 $87 #
plane-surface $-1 -44.835352641376993 0 0 1 0 0 0 0 -1 forward_v I I I I #
coedge $-1 $222 $151 $223 $224 forward $88 $-1 #
coedge $-1 $225 $90 $222 $226 forward $57 $-1 #
coedge $-1 $90 $225 $227 $228 forward $57 $-1 #
coedge $-1 $154 $153 $90 $147 reversed $155 $-1 #
edge $-1 $229 -28.568768708274973 $230 28.568768708274973 $146 $231 forward 7 unknown #
coedge $-1 $92 $91 $232 $233 forward $36 $-1 #
coedge $-1 $234 $235 $91 $150 reversed $219 $-1 #
edge $-1 $157 -44.835352641376993 $236 44.835352641376993 $149 $237 forward 7 unknown #
coedge $-1 $143 $238 $92 $152 reversed $88 $-1 #
edge $-1 $239 -44.835352641376993 $156 44.835352641376993 $151 $240 forward 7 unknown #
coedge $-1 $146 $93 $238 $241 forward $155 $-1 #
coedge $-1 $93 $146 $234 $242 reversed $155 $-1 #
loop $-1 $-1 $153 $218 #
vertex $-1 $94 $243 #
vertex $-1 $94 $244 #
straight-curve $-1 44.835352641376993 0 12.344634098631332 0 1 0 I I #
face $-1 $245 $246 $22 $-1 $247 reversed single #
loop $-1 $-1 $165 $95 #
plane-surface $-1 44.835352641376993 0 0 -1 0 0 0 0 1 forward_v I I I I #
coedge $-1 $248 $249 $163 $250 forward $96 $-1 #
coedge $-1 $251 $98 $162 $250 reversed $61 $-1 #
coedge $-1 $98 $251 $99 $168 reversed $61 $-1 #
coedge $-1 $101 $252 $98 $166 forward $160 $-1 #
edge $-1 $253 -7.9058665525703775 $172 -0.97166853955153076 $165 $254 forward 7 unknown #
coedge $-1 $100 $99 $255 $256 reversed $39 $-1 #
edge $-1 $172 -44.835352641376993 $257 44.835352641376993 $164 $258 forward 7 unknown #
coedge $-1 $259 $260 $100 $170 forward $246 $-1 #
edge $-1 $173 -44.835352641376993 $261 44.835352641376993 $169 $262 forward 7 unknown #
coedge $-1 $252 $101 $260 $263 forward $160 $-1 #
vertex $-1 $102 $264 #
vertex $-1 $263 $265 #
straight-curve $-1 44.835352641376993 -11.582012580767419 -5.4104360856124849 0 -1 0 I I #
face $-1 $-1 $187 $23 $-1 $266 forward single #
loop $-1 $-1 $267 $103 #
plane-surface $-1 44.835352641376993 0 0 -1 0 0 0 0 1 forward_v I I I I #
coedge $-1 $268 $269 $270 $271 reversed $104 $-1 #
coedge $-1 $272 $106 $108 $185 forward $65 $-1 #
coedge $-1 $106 $272 $268 $273 forward $65 $-1 #
coedge $-1 $270 $109 $106 $182 forward $187 $-1 #
edge $-1 $189 -15.244037279322132 $274 -6.5153755496201562 $181 $275 forward 7 unknown #
coedge $-1 $276 $277 $107 $184 forward $176 $-1 #
edge $-1 $278 -58.253103261337088 $188 -52.448885997265222 $183 $279 forward 7 unknown #
edge $-1 $189 82.899311639687454 $278 89.670705282754014 $108 $280 forward 7 unknown #
coedge $-1 $109 $270 $276 $281 forward $187 $-1 #
loop $-1 $-1 $270 $175 #
vertex $-1 $184 $282 #
vertex $-1 $110 $283 #
straight-curve $-1 37.757161743903751 26.123743693793276 12.344634098631332 -1 0 0 I I #
coedge $-1 $191 $191 $-1 $284 reversed $113 $-1 #
edge $-1 $285 0 $285 6.2831853071796004 $114 $286 forward 7 unknown #
vertex $-1 $117 $287 #
ellipse-curve $-1 43.091589912332964 19.888985315434724 9.4425254665954057 0.85716730853699208 0 0.51503806187062418 0.51503806187062418 0 -0.85716730853699208 1 I I #
coedge $-1 $195 $195 $-1 $288 reversed $120 $-1 #
edge $-1 $289 0 $289 6.2831853071796004 $121 $290 forward 7 unknown #
vertex $-1 $124 $291 #
ellipse-curve $-1 43.091589912332964 23.629840342449853 9.4425254665954057 0.85716730853699208 0 0.51503806187062418 0.51503806187062418 0 -0.85716730853699208 1 I I #
face $-1 $-1 $292 $26 $-1 $293 reversed single #
loop $-1 $-1 $131 $125 #
plane-surface $-1 0 0 12.344634098631332 0 0 1 1 0 0 forward_v I I I I #
coedge $-1 $294 $295 $296 $297 reversed $126 $-1 #
coedge $-1 $298 $128 $130 $209 forward $79 $-1 #
coedge $-1 $128 $298 $294 $299 forward $79 $-1 #
coedge $-1 $296 $131 $128 $206 forward $200 $-1 #
edge $-1 $212 -11.411807726706879 $300 -1.2831400494687708 $205 $301 forward 7 unknown #
coedge $-1 $302 $303 $129 $208 forward $292 $-1 #
edge $-1 $304 -19.225037433494904 $211 -13.26567990788994 $207 $305 forward 7 unknown #
edge $-1 $212 -6.8812732817493654 $304 1.4321304723534956e-014 $130 $306 forward 7 unknown #
coedge $-1 $131 $296 $302 $307 forward $200 $-1 #
vertex $-1 $208 $308 #
vertex $-1 $132 $309 #
straight-curve $-1 -61.246231042557696 -17.759281614794705 12.344634098631332 1 0 0 I I #
coedge $-1 $214 $214 $-1 $310 reversed $135 $-1 #
edge $-1 $311 0 $311 6.2831853071796004 $136 $312 forward 7 unknown #
vertex $-1 $139 $313 #
ellipse-curve $-1 -43.115034367035477 -12.694947776175649 9.3649553358288546 -0.86602541151947299 0 0.49999998660252726 0.49999998660252726 0 0.86602541151947299 1 I I #
face $-1 $-1 $155 $21 $-1 $314 reversed single #
loop $-1 $-1 $234 $140 #
plane-surface $-1 0 28.568768708274973 0 0 -1 0 0 0 -1 forward_v I I I I #
coedge $-1 $315 $232 $235 $316 forward $141 $-1 #
coedge $-1 $238 $143 $144 $226 reversed $88 $-1 #
coedge $-1 $232 $315 $143 $224 reversed $141 $-1 #
edge $-1 $239 -12.344634098631332 $317 12.344634098631332 $223 $318 forward 7 unknown #
coedge $-1 $145 $144 $315 $319 forward $57 $-1 #
edge $-1 $230 -44.835352641376993 $317 44.835352641376993 $222 $320 forward 7 unknown #
coedge $-1 $235 $234 $145 $228 reversed $219 $-1 #
edge $-1 $321 -44.835352641376993 $229 44.835352641376993 $227 $322 forward 7 unknown #
vertex $-1 $147 $323 #
vertex $-1 $241 $324 #
straight-curve $-1 44.835352641376993 0 -12.344634098631332 0 -1 0 I I #
coedge $-1 $221 $223 $148 $233 reversed $141 $-1 #
edge $-1 $236 -28.568768708274973 $239 28.568768708274973 $232 $325 forward 7 unknown #
coedge $-1 $227 $149 $154 $242 forward $219 $-1 #
coedge $-1 $149 $227 $221 $316 reversed $219 $-1 #
vertex $-1 $150 $326 #
straight-curve $-1 0 28.568768708274973 12.344634098631332 -1 0 0 I I #
coedge $-1 $151 $222 $153 $241 reversed $88 $-1 #
vertex $-1 $233 $327 #
straight-curve $-1 0 -28.568768708274973 12.344634098631332 1 0 0 I I #
edge $-1 $156 -12.344634098631332 $230 12.344634098631332 $153 $328 forward 7 unknown #
edge $-1 $157 -12.344634098631332 $229 12.344634098631332 $154 $329 forward 7 unknown #
point $-1 44.835352641376993 -28.568768708274973 12.344634098631332 #
point $-1 44.835352641376993 28.568768708274973 12.344634098631332 #
face $-1 $-1 $330 $22 $-1 $331 reversed single #
loop $-1 $-1 $169 $159 #
plane-surface $-1 0 -28.568768708274973 0 0 1 0 0 0 1 forward_v I I I I #
coedge $-1 $332 $162 $252 $333 forward $96 $-1 #
coedge $-1 $162 $332 $334 $335 forward $96 $-1 #
edge $-1 $336 -44.835352641376993 $253 44.835352641376993 $162 $337 forward 7 unknown #
coedge $-1 $164 $163 $338 $339 reversed $61 $-1 #
coedge $-1 $165 $171 $248 $333 reversed $160 $-1 #
vertex $-1 $333 $340 #
straight-curve $-1 44.835352641376993 -17.759281614794702 -4.4387675460609541 0 0 1 I I #
coedge $-1 $338 $341 $167 $256 forward $330 $-1 #
edge $-1 $261 -16.986756127507554 $257 -6.1772690340272831 $255 $342 forward 7 unknown #
vertex $-1 $256 $343 #
straight-curve $-1 0 -17.759281614794702 -5.4104360856124849 -1 0 0 I I #
coedge $-1 $344 $169 $341 $345 forward $246 $-1 #
coedge $-1 $169 $344 $171 $263 reversed $246 $-1 #
vertex $-1 $345 $346 #
straight-curve $-1 0 -28.568768708274973 -5.4104360856124849 -1 0 0 I I #
edge $-1 $173 5.4104360856124849 $347 12.344634098631332 $171 $348 forward 7 unknown #
point $-1 44.835352641376993 -17.759281614794702 -5.4104360856124849 #
point $-1 44.835352641376993 -28.568768708274973 -5.4104360856124849 #
plane-surface $-1 0 0 12.344634098631332 0 0 1 1 0 0 forward_v I I I I #
coedge $-1 $277 $276 $269 $349 forward $176 $-1 #
coedge $-1 $269 $178 $180 $273 reversed $104 $-1 #
coedge $-1 $178 $268 $267 $349 reversed $104 $-1 #
coedge $-1 $186 $181 $178 $271 forward $187 $-1 #
edge $-1 $274 3.5906654393851767 $350 7.0781908974732417 $270 $351 forward 7 unknown #
coedge $-1 $180 $179 $277 $352 reversed $65 $-1 #
edge $-1 $353 -89.670705282754014 $274 -82.899311639687454 $268 $354 forward 7 unknown #
vertex $-1 $182 $355 #
straight-curve $-1 41.347827183288921 10.879706414471144 12.344634098631332 0 -1 0 I I #
coedge $-1 $267 $183 $186 $281 reversed $176 $-1 #
coedge $-1 $183 $267 $272 $352 forward $176 $-1 #
vertex $-1 $184 $356 #
straight-curve $-1 44.835352641376993 26.123743693793276 64.793520095896554 0 0 1 I I #
straight-curve $-1 -1.3484736140245701 26.123743693793276 83.403213936391552 0.51503806187062418 0 -0.85716730853699208 I I #
edge $-1 $350 17.3950819640913 $188 26.123743693793276 $276 $357 forward 7 unknown #
point $-1 44.835352641376993 26.123743693793276 12.344634098631332 #
point $-1 41.347827183288928 26.123743693793276 12.344634098631332 #
edge $-1 $358 1 $358 0 $191 $-1 forward 7 unknown #
vertex $-1 $192 $359 #
ellipse-curve $-1 40.616590266491052 19.888985315434724 7.9553956985451313 0.85716730853699208 0 0.51503806187062418 0.51503806187062418 0 -0.85716730853699208 1 I I #
point $-1 43.60662797420359 19.888985315434724 8.5853581580584173 #
edge $-1 $360 1 $360 0 $195 $-1 forward 7 unknown #
vertex $-1 $196 $361 #
ellipse-curve $-1 40.616590266491052 23.629840342449853 7.9553956985451313 0.85716730853699208 0 0.51503806187062418 0.51503806187062418 0 -0.85716730853699208 1 I I #
point $-1 43.60662797420359 23.629840342449853 8.5853581580584173 #
loop $-1 $-1 $207 $199 #
plane-surface $-1 -44.835352641376993 0 0 1 0 0 0 0 -1 forward_v I I I I #
coedge $-1 $295 $202 $204 $299 reversed $126 $-1 #
coedge $-1 $202 $294 $362 $363 reversed $126 $-1 #
coedge $-1 $210 $205 $202 $297 forward $200 $-1 #
edge $-1 $300 -19.85151494986372 $364 -16.410878401180703 $296 $365 forward 7 unknown #
coedge $-1 $204 $203 $303 $366 reversed $79 $-1 #
edge $-1 $367 -1.4321304723534956e-014 $300 6.8812732817493654 $294 $368 forward 7 unknown #
vertex $-1 $206 $369 #
straight-curve $-1 -41.394716092693976 -6.3474738880878254 12.344634098631332 0 1 0 I I #
coedge $-1 $362 $207 $210 $307 reversed $292 $-1 #
coedge $-1 $207 $362 $298 $366 forward $292 $-1 #
vertex $-1 $208 $370 #
straight-curve $-1 -44.835352641376993 -17.759281614794705 25.610314006521271 0 0 1 I I #
straight-curve $-1 -44.835352641376986 -17.759281614794705 6.3852765730263812 -0.49999998660252726 0 -0.86602541151947299 I I #
edge $-1 $364 7.6306139375565962 $211 17.759281614794705 $302 $371 forward 7 unknown #
point $-1 -44.835352641376993 -17.759281614794705 12.344634098631332 #
point $-1 -41.394716092693976 -17.759281614794705 12.344634098631332 #
edge $-1 $372 1 $372 0 $214 $-1 forward 7 unknown #
vertex $-1 $215 $373 #
ellipse-curve $-1 -40.085993736583745 -12.694947776175649 7.6161379749305214 -0.86602541151947299 0 0.49999998660252726 0.49999998660252726 0 0.86602541151947299 1 I I #
point $-1 -42.615034380432959 -12.694947776175649 10.230980747348333 #
plane-surface $-1 44.835352641376993 0 0 -1 0 0 0 0 1 forward_v I I I I #
coedge $-1 $223 $221 $225 $319 reversed $141 $-1 #
edge $-1 $236 -12.344634098631332 $321 12.344634098631332 $235 $374 forward 7 unknown #
vertex $-1 $319 $375 #
straight-curve $-1 -44.835352641376993 -28.568768708274973 0 0 0 -1 I I #
edge $-1 $317 -28.568768708274973 $321 28.568768708274973 $315 $376 forward 7 unknown #
straight-curve $-1 0 -28.568768708274973 -12.344634098631332 -1 0 0 I I #
vertex $-1 $228 $377 #
straight-curve $-1 0 28.568768708274973 -12.344634098631332 1 0 0 I I #
point $-1 44.835352641376993 28.568768708274973 -12.344634098631332 #
point $-1 44.835352641376993 -28.568768708274973 -12.344634098631332 #
straight-curve $-1 -44.835352641376993 0 12.344634098631332 0 -1 0 I I #
point $-1 -44.835352641376993 28.568768708274973 12.344634098631332 #
point $-1 -44.835352641376993 -28.568768708274973 12.344634098631332 #
straight-curve $-1 44.835352641376993 -28.568768708274973 0 0 0 -1 I I #
straight-curve $-1 44.835352641376993 28.568768708274973 0 0 0 -1 I I #
loop $-1 $-1 $338 $245 #
plane-surface $-1 -44.835352641376993 0 0 1 0 0 0 0 -1 forward_v I I I I #
coedge $-1 $249 $248 $344 $378 forward $96 $-1 #
edge $-1 $253 17.759281614794702 $347 28.568768708274973 $252 $379 forward 7 unknown #
coedge $-1 $341 $338 $249 $335 reversed $330 $-1 #
edge $-1 $380 -28.568768708274973 $336 -17.759281614794702 $334 $381 forward 7 unknown #
vertex $-1 $339 $382 #
straight-curve $-1 0 -17.759281614794702 -12.344634098631332 1 0 0 I I #
coedge $-1 $334 $255 $251 $339 forward $330 $-1 #
edge $-1 $257 0.97166853955153076 $336 7.9058665525703775 $338 $383 forward 7 unknown #
point $-1 44.835352641376993 -17.759281614794702 -12.344634098631332 #
coedge $-1 $255 $334 $259 $345 reversed $330 $-1 #
straight-curve $-1 -44.835352641376993 -11.582012580767419 -5.4104360856124849 0 1 0 I I #
point $-1 -44.835352641376993 -17.759281614794702 -5.4104360856124849 #
coedge $-1 $260 $259 $332 $378 reversed $246 $-1 #
edge $-1 $261 5.4104360856124849 $380 12.344634098631332 $341 $384 forward 7 unknown #
point $-1 -44.835352641376993 -28.568768708274973 -5.4104360856124849 #
vertex $-1 $263 $385 #
straight-curve $-1 44.835352641376993 -28.568768708274973 0 0 0 -1 I I #
edge $-1 $350 52.448885997265222 $353 58.253103261337088 $267 $386 forward 7 unknown #
vertex $-1 $281 $387 #
straight-curve $-1 37.757161743903751 17.3950819640913 12.344634098631332 1 0 0 I I #
edge $-1 $353 6.5153755496201562 $278 15.244037279322132 $277 $388 forward 7 unknown #
vertex $-1 $352 $389 #
straight-curve $-1 -1.3484736140245701 17.3950819640913 83.403213936391552 -0.51503806187062418 0 0.85716730853699208 I I #
point $-1 41.347827183288928 17.3950819640913 12.344634098631332 #
point $-1 44.835352641376993 26.123743693793276 6.5404168345594655 #
straight-curve $-1 44.835352641376993 0 12.344634098631332 0 1 0 I I #
vertex $-1 $284 $390 #
point $-1 41.131628328361678 19.888985315434724 7.0982283900081384 #
vertex $-1 $288 $391 #
point $-1 41.131628328361678 23.629840342449853 7.0982283900081384 #
coedge $-1 $303 $302 $295 $363 forward $292 $-1 #
edge $-1 $364 13.26567990788994 $367 19.225037433494904 $362 $392 forward 7 unknown #
vertex $-1 $307 $393 #
straight-curve $-1 -61.246231042557696 -7.6306139375565962 12.344634098631332 -1 0 0 I I #
edge $-1 $367 1.2831400494687708 $304 11.411807726706879 $303 $394 forward 7 unknown #
vertex $-1 $366 $395 #
straight-curve $-1 -44.835352641376986 -7.6306139375565962 6.3852765730263812 0.49999998660252726 0 0.86602541151947299 I I #
point $-1 -41.394716092693976 -7.6306139375565962 12.344634098631332 #
point $-1 -44.835352641376993 -17.759281614794705 6.3852765730263688 #
straight-curve $-1 -44.835352641376993 0 12.344634098631332 0 -1 0 I I #
vertex $-1 $310 $396 #
point $-1 -39.58599374998122 -12.694947776175649 8.4821633864499937 #
straight-curve $-1 -44.835352641376993 28.568768708274973 0 0 0 -1 I I #
point $-1 -44.835352641376993 -28.568768708274973 -12.344634098631332 #
straight-curve $-1 -44.835352641376993 0 -12.344634098631332 0 1 0 I I #
point $-1 -44.835352641376993 28.568768708274973 -12.344634098631332 #
edge $-1 $347 -44.835352641376993 $380 44.835352641376993 $344 $397 forward 7 unknown #
straight-curve $-1 44.835352641376993 0 -12.344634098631332 0 -1 0 I I #
vertex $-1 $335 $398 #
straight-curve $-1 -44.835352641376993 0 -12.344634098631332 0 1 0 I I #
point $-1 -44.835352641376993 -17.759281614794702 -12.344634098631332 #
straight-curve $-1 -44.835352641376993 -17.759281614794702 -4.4387675460609541 0 0 -1 I I #
straight-curve $-1 -44.835352641376993 -28.568768708274973 0 0 0 -1 I I #
point $-1 44.835352641376993 -28.568768708274973 -12.344634098631332 #
straight-curve $-1 44.835352641376993 17.3950819640913 64.793520095896554 0 0 -1 I I #
point $-1 44.835352641376993 17.3950819640913 12.344634098631332 #
straight-curve $-1 44.835352641376993 10.879706414471144 6.5404168345594655 0 1 0 I I #
point $-1 44.835352641376993 17.3950819640913 6.5404168345594655 #
point $-1 39.759422957954065 19.888985315434724 7.4403576366745066 #
point $-1 39.759422957954065 23.629840342449853 7.4403576366745066 #
straight-curve $-1 -44.835352641376993 -7.6306139375565962 25.610314006521271 0 0 -1 I I #
point $-1 -44.835352641376993 -7.6306139375565962 12.344634098631332 #
straight-curve $-1 -44.835352641376993 -6.3474738880878254 6.3852765730263625 0 -1 0 I I #
point $-1 -44.835352641376993 -7.6306139375565962 6.3852765730263688 #
point $-1 -39.219968325064272 -12.694947776175649 7.1161379883279947 #
straight-curve $-1 0 -28.568768708274973 -12.344634098631332 -1 0 0 I I #
point $-1 -44.835352641376993 -28.568768708274973 -12.344634098631332 #
End-of-ACIS-data 