500 0 8 0           
7 Unknown 11 ACIS 5.0 NT 24 Thu Mar 25 18:10:10 1999 
-1 9.9999999999999995e-007 1e-010 
body $-1 $8 $-1 $9 #
body $-1 $10 $-1 $11 #
body $-1 $12 $-1 $13 #
body $-1 $14 $-1 $15 #
body $-1 $16 $-1 $17 #
body $-1 $18 $-1 $19 #
body $-1 $20 $-1 $21 #
body $-1 $22 $-1 $23 #
lump $-1 $-1 $24 $0 #
transform $-1 1 0 0 0 1 0 0 0 1 52.264778588213751 27.25338561332428 12.612145250549803 1 rotate no_reflect no_shear #
lump $-1 $-1 $25 $1 #
transform $-1 1 0 0 0 1 0 0 0 1 52.264778588213751 27.25338561332428 12.612145250549803 1 rotate no_reflect no_shear #
lump $-1 $-1 $26 $2 #
transform $-1 1 0 0 0 1 0 0 0 1 52.264778588213751 27.25338561332428 12.612145250549803 1 rotate no_reflect no_shear #
lump $-1 $-1 $27 $3 #
transform $-1 1 0 0 0 1 0 0 0 1 52.264778588213751 27.25338561332428 12.612145250549803 1 rotate no_reflect no_shear #
lump $-1 $-1 $28 $4 #
transform $-1 1 0 0 0 1 0 0 0 1 52.264778588213751 27.25338561332428 12.612145250549803 1 rotate no_reflect no_shear #
lump $-1 $-1 $29 $5 #
transform $-1 1 0 0 0 1 0 0 0 1 52.264778588213751 27.25338561332428 12.612145250549803 1 rotate no_reflect no_shear #
lump $-1 $-1 $30 $6 #
transform $-1 1 0 0 0 1 0 0 0 1 52.264778588213751 27.25338561332428 12.612145250549803 1 rotate no_reflect no_shear #
lump $-1 $-1 $31 $7 #
transform $-1 1 0 0 0 1 0 0 0 1 52.264778588213751 27.25338561332428 12.612145250549803 1 rotate no_reflect no_shear #
shell $-1 $-1 $-1 $32 $-1 $8 #
shell $-1 $-1 $-1 $33 $-1 $10 #
shell $-1 $-1 $-1 $34 $-1 $12 #
shell $-1 $-1 $-1 $35 $-1 $14 #
shell $-1 $-1 $-1 $36 $-1 $16 #
shell $-1 $-1 $-1 $37 $-1 $18 #
shell $-1 $-1 $-1 $38 $-1 $20 #
shell $-1 $-1 $-1 $39 $-1 $22 #
face $-1 $40 $41 $24 $-1 $42 forward single #
face $-1 $43 $44 $25 $-1 $45 reversed single #
face $-1 $46 $47 $26 $-1 $48 reversed single #
face $-1 $49 $50 $27 $-1 $51 reversed single #
face $-1 $52 $53 $28 $-1 $54 forward single #
face $-1 $55 $56 $29 $-1 $57 reversed single #
face $-1 $58 $59 $30 $-1 $60 forward single #
face $-1 $61 $62 $31 $-1 $63 forward single #
face $-1 $64 $65 $24 $-1 $66 reversed single #
loop $-1 $-1 $67 $32 #
plane-surface $-1 0 0 12.612145250549803 0 0 1 1 0 0 forward_v I I I I #
face $-1 $68 $69 $25 $-1 $70 reversed single #
loop $-1 $-1 $71 $33 #
plane-surface $-1 0 -21.067976503616713 5.9458410892786393 0 0 1 1 0 0 forward_v I I I I #
face $-1 $72 $73 $26 $-1 $74 reversed single #
loop $-1 $-1 $75 $34 #
plane-surface $-1 0 21.067976503616709 5.9458410892786393 0 0 1 1 0 0 forward_v I I I I #
face $-1 $76 $77 $27 $-1 $78 reversed single #
loop $-1 $-1 $79 $35 #
plane-surface $-1 -14.925524578518889 10.988783533862577 81.894220420936364 0.7660444514056185 0 0.64278759981090561 0.64278759981090561 0 -0.7660444514056185 forward_v I I I I #
face $-1 $80 $81 $28 $-1 $82 forward single #
loop $-1 $83 $84 $36 #
cone-surface $-1 46.809995955461751 10.988783533862577 6.4382675717119273 -0.7660444514056185 0 -0.64278759981090561 0.96418139971635841 0 -1.1490666771084277 1 I I 0 1 1.5 forward I I I I #
face $-1 $85 $86 $29 $-1 $87 reversed single #
loop $-1 $-1 $88 $37 #
plane-surface $-1 -129.94537897894912 -5.478012373904745 75.70822001170805 0 1 0 -0.74314483375859142 0 0.66913059716165679 forward_v I I I I #
face $-1 $89 $90 $30 $-1 $91 forward single #
loop $-1 $92 $93 $38 #
cone-surface $-1 -48.456833188283859 -3.0954610495737853 8.5354006954045634 0.74314483375859142 0 -0.66913059716165679 0.3345652985808284 0 0.37157241687929571 1 I I 0 1 0.5 forward I I I I #
face $-1 $94 $95 $31 $-1 $96 forward single #
loop $-1 $97 $98 $39 #
cone-surface $-1 -48.456833188283859 0.47836593692265694 8.5354006954045634 0.74314483375859142 0 -0.66913059716165679 0.3345652985808284 0 0.37157241687929571 1 I I 0 1 0.5 forward I I I I #
face $-1 $99 $100 $24 $-1 $101 reversed single #
loop $-1 $-1 $102 $40 #
plane-surface $-1 0 0 -12.612145250549803 0 0 1 1 0 0 forward_v I I I I #
coedge $-1 $103 $104 $105 $106 forward $41 $-1 #
face $-1 $107 $108 $25 $-1 $109 reversed single #
loop $-1 $-1 $110 $43 #
plane-surface $-1 0 -14.882567393909145 9.2789931699142212 0 -1 0 0 0 -1 forward_v I I I I #
coedge $-1 $111 $112 $113 $114 reversed $44 $-1 #
face $-1 $115 $116 $26 $-1 $117 forward single #
loop $-1 $-1 $118 $46 #
plane-surface $-1 0 14.882567393909142 9.2789931699142212 0 1 0 0 0 1 forward_v I I I I #
coedge $-1 $119 $120 $121 $122 reversed $47 $-1 #
face $-1 $123 $124 $27 $-1 $125 forward single #
loop $-1 $-1 $126 $49 #
plane-surface $-1 65.148762704369744 7.0949996738160088 149.08452358766903 0 1 0 0.7660444514056185 0 0.64278759981090561 forward_v I I I I #
coedge $-1 $127 $128 $129 $130 reversed $50 $-1 #
face $-1 $-1 $131 $28 $-1 $132 forward single #
loop $-1 $133 $134 $52 #
cone-surface $-1 45.308550467204178 10.988783533862577 5.1784052492669144 -0.7660444514056185 0 -0.64278759981090561 0.48209069985817921 0 -0.57453333855421385 1 I I -0.70710678118654757 0.70710678118654757 0.75 forward I I I I #
loop $-1 $-1 $135 $36 #
coedge $-1 $84 $84 $136 $137 reversed $53 $-1 #
face $-1 $138 $139 $29 $-1 $140 reversed single #
loop $-1 $-1 $141 $55 #
plane-surface $-1 -52.26477858821373 -1.3085475563255606 5.7642949972015742 -0.74314483375859142 0 0.66913059716165679 0.66913059716165679 0 0.74314483375859142 forward_v I I I I #
coedge $-1 $142 $143 $144 $145 reversed $56 $-1 #
face $-1 $-1 $146 $30 $-1 $147 forward single #
loop $-1 $148 $149 $58 #
cone-surface $-1 -47.546017534615686 -3.0954610495737853 7.7152986176430307 0.74314483375859142 0 -0.66913059716165679 0.1672826492904142 0 0.18578620843964785 1 I I -0.70710678118654879 0.70710678118654635 0.25 forward I I I I #
loop $-1 $-1 $150 $38 #
coedge $-1 $93 $93 $151 $152 reversed $59 $-1 #
face $-1 $-1 $153 $31 $-1 $154 forward single #
loop $-1 $155 $156 $61 #
cone-surface $-1 -47.546017534615686 0.47836593692265694 7.7152986176430307 0.74314483375859142 0 -0.66913059716165679 0.1672826492904142 0 0.18578620843964785 1 I I -0.70710678118654879 0.70710678118654635 0.25 forward I I I I #
loop $-1 $-1 $157 $39 #
coedge $-1 $98 $98 $158 $159 reversed $62 $-1 #
face $-1 $160 $161 $24 $-1 $162 reversed single #
loop $-1 $-1 $163 $64 #
plane-surface $-1 0 -27.25338561332428 0 0 1 0 0 0 1 forward_v I I I I #
coedge $-1 $164 $165 $166 $167 forward $65 $-1 #
coedge $-1 $168 $67 $169 $170 forward $41 $-1 #
coedge $-1 $67 $168 $171 $172 forward $41 $-1 #
coedge $-1 $173 $174 $67 $106 reversed $175 $-1 #
edge $-1 $176 -27.25338561332428 $177 27.25338561332428 $105 $178 forward 7 unknown #
face $-1 $179 $180 $25 $-1 $181 reversed single #
loop $-1 $-1 $182 $68 #
plane-surface $-1 -52.264778588213751 0 0 1 0 0 0 0 -1 forward_v I I I I #
coedge $-1 $183 $184 $185 $186 reversed $69 $-1 #
coedge $-1 $187 $71 $188 $189 reversed $44 $-1 #
coedge $-1 $71 $187 $183 $190 forward $44 $-1 #
coedge $-1 $185 $191 $71 $114 forward $192 $-1 #
edge $-1 $193 -16.719397361515924 $194 -4.3485791421007889 $113 $195 forward 7 unknown #
face $-1 $196 $197 $26 $-1 $198 reversed single #
loop $-1 $-1 $199 $72 #
plane-surface $-1 0 0 12.612145250549803 0 0 1 1 0 0 forward_v I I I I #
coedge $-1 $200 $201 $199 $202 reversed $73 $-1 #
coedge $-1 $203 $75 $204 $205 forward $47 $-1 #
coedge $-1 $75 $203 $206 $207 reversed $47 $-1 #
coedge $-1 $208 $209 $75 $122 forward $197 $-1 #
edge $-1 $210 4.3485791421007871 $211 16.719397361515924 $121 $212 forward 7 unknown #
face $-1 $213 $214 $27 $-1 $215 reversed single #
loop $-1 $-1 $129 $76 #
plane-surface $-1 0 0 12.612145250549803 0 0 1 1 0 0 forward_v I I I I #
coedge $-1 $216 $217 $218 $219 reversed $77 $-1 #
coedge $-1 $220 $79 $221 $222 reversed $50 $-1 #
coedge $-1 $79 $220 $216 $223 forward $50 $-1 #
coedge $-1 $218 $224 $79 $130 forward $124 $-1 #
edge $-1 $225 -9.3881756269778531 $226 -1.6006079068847203 $129 $227 forward 7 unknown #
loop $-1 $-1 $136 $80 #
plane-surface $-1 -14.925524578518889 10.988783533862577 81.894220420936364 0.7660444514056185 0 0.64278759981090561 0.64278759981090561 0 -0.7660444514056185 forward_v I I I I #
loop $-1 $-1 $228 $52 #
coedge $-1 $134 $134 $135 $229 reversed $81 $-1 #
coedge $-1 $135 $135 $134 $229 forward $83 $-1 #
coedge $-1 $136 $136 $84 $137 forward $131 $-1 #
edge $-1 $230 0 $230 6.2831853071796004 $136 $231 forward 7 unknown #
face $-1 $232 $233 $29 $-1 $234 reversed single #
loop $-1 $-1 $235 $85 #
plane-surface $-1 -129.94537897894912 2.8609172612536238 75.70822001170805 0 -1 0 0.74314483375859142 0 -0.66913059716165679 forward_v I I I I #
coedge $-1 $236 $237 $238 $239 reversed $86 $-1 #
coedge $-1 $143 $88 $240 $241 reversed $56 $-1 #
coedge $-1 $88 $142 $236 $242 reversed $56 $-1 #
coedge $-1 $238 $243 $88 $145 forward $244 $-1 #
edge $-1 $245 12.70791090126081 $246 18.873742810663551 $144 $247 forward 7 unknown #
loop $-1 $-1 $151 $89 #
plane-surface $-1 -52.26477858821373 -1.3085475563255606 5.7642949972015742 -0.74314483375859142 0 0.66913059716165679 0.66913059716165679 0 0.74314483375859142 forward_v I I I I #
loop $-1 $-1 $248 $58 #
coedge $-1 $149 $149 $150 $249 reversed $90 $-1 #
coedge $-1 $150 $150 $149 $249 forward $92 $-1 #
coedge $-1 $151 $151 $93 $152 forward $146 $-1 #
edge $-1 $250 0 $250 6.2831853071796004 $151 $251 forward 7 unknown #
loop $-1 $-1 $158 $94 #
plane-surface $-1 -52.26477858821373 -1.3085475563255606 5.7642949972015742 -0.74314483375859142 0 0.66913059716165679 0.66913059716165679 0 0.74314483375859142 forward_v I I I I #
loop $-1 $-1 $252 $61 #
coedge $-1 $156 $156 $157 $253 reversed $95 $-1 #
coedge $-1 $157 $157 $156 $253 forward $97 $-1 #
coedge $-1 $158 $158 $98 $159 forward $153 $-1 #
edge $-1 $254 0 $254 6.2831853071796004 $158 $255 forward 7 unknown #
face $-1 $256 $257 $24 $-1 $258 reversed single #
loop $-1 $-1 $259 $99 #
plane-surface $-1 -52.264778588213751 0 0 1 0 0 0 0 -1 forward_v I I I I #
coedge $-1 $260 $171 $261 $262 forward $100 $-1 #
coedge $-1 $263 $102 $260 $264 forward $65 $-1 #
coedge $-1 $102 $263 $265 $266 forward $65 $-1 #
coedge $-1 $174 $173 $102 $167 reversed $175 $-1 #
edge $-1 $267 -27.25338561332428 $268 27.25338561332428 $166 $269 forward 7 unknown #
coedge $-1 $104 $103 $270 $271 forward $41 $-1 #
coedge $-1 $272 $273 $103 $170 reversed $257 $-1 #
edge $-1 $177 -52.264778588213751 $274 52.264778588213751 $169 $275 forward 7 unknown #
coedge $-1 $163 $276 $104 $172 reversed $100 $-1 #
edge $-1 $277 -52.264778588213751 $176 52.264778588213751 $171 $278 forward 7 unknown #
coedge $-1 $166 $105 $276 $279 forward $175 $-1 #
coedge $-1 $105 $166 $272 $280 reversed $175 $-1 #
loop $-1 $-1 $173 $256 #
vertex $-1 $106 $281 #
vertex $-1 $106 $282 #
straight-curve $-1 52.264778588213751 0 12.612145250549803 0 1 0 I I #
face $-1 $283 $284 $25 $-1 $285 forward single #
loop $-1 $-1 $188 $107 #
plane-surface $-1 0 -27.25338561332428 0 0 1 0 0 0 1 forward_v I I I I #
coedge $-1 $286 $287 $288 $289 forward $108 $-1 #
coedge $-1 $288 $110 $112 $190 reversed $69 $-1 #
coedge $-1 $110 $288 $290 $291 reversed $69 $-1 #
coedge $-1 $292 $113 $110 $186 forward $192 $-1 #
edge $-1 $194 1.3063445043215287 $293 7.9726486655926925 $185 $294 forward 7 unknown #
coedge $-1 $112 $111 $286 $295 reversed $44 $-1 #
coedge $-1 $296 $297 $111 $189 forward $180 $-1 #
edge $-1 $298 -52.264778588213751 $193 52.264778588213751 $188 $299 forward 7 unknown #
edge $-1 $300 -52.264778588213751 $194 52.264778588213751 $183 $301 forward 7 unknown #
coedge $-1 $113 $292 $296 $302 forward $192 $-1 #
loop $-1 $-1 $185 $283 #
vertex $-1 $189 $303 #
vertex $-1 $114 $304 #
straight-curve $-1 52.264778588213751 -10.533988251808356 5.9458410892786393 0 1 0 I I #
face $-1 $305 $306 $26 $-1 $307 reversed single #
loop $-1 $-1 $209 $115 #
plane-surface $-1 52.264778588213751 0 0 -1 0 0 0 0 1 forward_v I I I I #
coedge $-1 $308 $309 $118 $202 forward $116 $-1 #
coedge $-1 $204 $118 $310 $311 reversed $73 $-1 #
coedge $-1 $118 $204 $209 $312 reversed $73 $-1 #
edge $-1 $313 -52.264778588213751 $314 52.264778588213751 $199 $315 forward 7 unknown #
coedge $-1 $120 $119 $316 $317 reversed $47 $-1 #
coedge $-1 $201 $200 $119 $205 reversed $73 $-1 #
edge $-1 $210 -52.264778588213751 $318 52.264778588213751 $204 $319 forward 7 unknown #
coedge $-1 $320 $321 $120 $207 forward $322 $-1 #
edge $-1 $211 -52.264778588213751 $323 52.264778588213751 $206 $324 forward 7 unknown #
coedge $-1 $325 $121 $321 $326 reversed $197 $-1 #
coedge $-1 $121 $325 $201 $312 forward $197 $-1 #
vertex $-1 $122 $327 #
vertex $-1 $207 $328 #
straight-curve $-1 52.264778588213751 10.533988251808355 5.9458410892786393 0 1 0 I I #
face $-1 $-1 $329 $27 $-1 $330 forward single #
loop $-1 $-1 $331 $123 #
plane-surface $-1 52.264778588213751 0 0 -1 0 0 0 0 1 forward_v I I I I #
coedge $-1 $217 $126 $128 $223 reversed $77 $-1 #
coedge $-1 $126 $216 $331 $332 reversed $77 $-1 #
coedge $-1 $333 $129 $126 $219 forward $124 $-1 #
edge $-1 $226 10.63465626993159 $334 19.690397236028879 $218 $335 forward 7 unknown #
coedge $-1 $128 $127 $336 $337 reversed $50 $-1 #
coedge $-1 $338 $339 $127 $222 forward $329 $-1 #
edge $-1 $340 -71.919340154953261 $225 -57.831107947671612 $221 $341 forward 7 unknown #
edge $-1 $342 -104.52955717642749 $226 -90.441324969145825 $216 $343 forward 7 unknown #
coedge $-1 $129 $333 $338 $344 forward $124 $-1 #
vertex $-1 $222 $345 #
vertex $-1 $130 $346 #
straight-curve $-1 43.209037622116469 5.4943917669312885 12.612145250549801 0 -1 0 I I #
coedge $-1 $228 $228 $-1 $347 reversed $133 $-1 #
edge $-1 $348 0 $348 6.2831853071796004 $134 $349 forward 7 unknown #
vertex $-1 $137 $350 #
ellipse-curve $-1 47.736908105165114 10.988783533862577 7.2160391942987623 0.7660444514056185 0 0.64278759981090561 0.96418139971635841 0 -1.1490666771084277 1 I I #
face $-1 $-1 $244 $29 $-1 $351 forward single #
loop $-1 $-1 $352 $138 #
plane-surface $-1 -52.264778588213751 0 0 1 0 0 0 0 -1 forward_v I I I I #
coedge $-1 $353 $354 $355 $356 reversed $139 $-1 #
coedge $-1 $357 $141 $143 $242 forward $86 $-1 #
coedge $-1 $141 $357 $353 $358 forward $86 $-1 #
coedge $-1 $355 $144 $141 $239 forward $244 $-1 #
edge $-1 $246 -4.8237385957419647 $359 3.5151910394164041 $238 $360 forward 7 unknown #
coedge $-1 $361 $362 $142 $241 forward $233 $-1 #
edge $-1 $363 -32.089815008652472 $245 -25.241964755304224 $240 $364 forward 7 unknown #
edge $-1 $246 -9.2146913256652354 $363 3.208459706215348e-014 $143 $365 forward 7 unknown #
coedge $-1 $144 $355 $361 $366 forward $244 $-1 #
loop $-1 $-1 $355 $232 #
vertex $-1 $241 $367 #
vertex $-1 $145 $368 #
straight-curve $-1 -64.972689489474561 -5.478012373904745 12.612145250549801 1 0 0 I I #
coedge $-1 $248 $248 $-1 $369 reversed $148 $-1 #
edge $-1 $370 0 $370 6.2831853071796004 $149 $371 forward 7 unknown #
vertex $-1 $152 $372 #
ellipse-curve $-1 -49.181862633512381 -3.0954610495737853 9.1882201238756771 -0.74314483375859142 0 0.66913059716165679 0.3345652985808284 0 0.37157241687929571 1 I I #
coedge $-1 $252 $252 $-1 $373 reversed $155 $-1 #
edge $-1 $374 0 $374 6.2831853071796004 $156 $375 forward 7 unknown #
vertex $-1 $159 $376 #
ellipse-curve $-1 -49.181862633512381 0.47836593692265694 9.1882201238756771 -0.74314483375859142 0 0.66913059716165679 0.3345652985808284 0 0.37157241687929571 1 I I #
face $-1 $-1 $175 $24 $-1 $377 reversed single #
loop $-1 $-1 $272 $160 #
plane-surface $-1 0 27.25338561332428 0 0 -1 0 0 0 -1 forward_v I I I I #
coedge $-1 $378 $270 $273 $379 forward $161 $-1 #
coedge $-1 $276 $163 $164 $264 reversed $100 $-1 #
coedge $-1 $270 $378 $163 $262 reversed $161 $-1 #
edge $-1 $277 -12.612145250549803 $380 12.612145250549803 $261 $381 forward 7 unknown #
coedge $-1 $165 $164 $378 $382 forward $65 $-1 #
edge $-1 $268 -52.264778588213751 $380 52.264778588213751 $260 $383 forward 7 unknown #
coedge $-1 $273 $272 $165 $266 reversed $257 $-1 #
edge $-1 $384 -52.264778588213751 $267 52.264778588213751 $265 $385 forward 7 unknown #
vertex $-1 $167 $386 #
vertex $-1 $279 $387 #
straight-curve $-1 52.264778588213751 0 -12.612145250549803 0 -1 0 I I #
coedge $-1 $259 $261 $168 $271 reversed $161 $-1 #
edge $-1 $274 -27.25338561332428 $277 27.25338561332428 $270 $388 forward 7 unknown #
coedge $-1 $265 $169 $174 $280 forward $257 $-1 #
coedge $-1 $169 $265 $259 $379 reversed $257 $-1 #
vertex $-1 $170 $389 #
straight-curve $-1 0 27.25338561332428 12.612145250549803 -1 0 0 I I #
coedge $-1 $171 $260 $173 $279 reversed $100 $-1 #
vertex $-1 $271 $390 #
straight-curve $-1 0 -27.25338561332428 12.612145250549803 1 0 0 I I #
edge $-1 $176 -12.612145250549803 $268 12.612145250549803 $173 $391 forward 7 unknown #
edge $-1 $177 -12.612145250549803 $267 12.612145250549803 $174 $392 forward 7 unknown #
point $-1 52.264778588213751 -27.25338561332428 12.612145250549803 #
point $-1 52.264778588213751 27.25338561332428 12.612145250549803 #
face $-1 $-1 $192 $25 $-1 $393 reversed single #
loop $-1 $-1 $290 $179 #
plane-surface $-1 0 0 12.612145250549803 0 0 1 1 0 0 forward_v I I I I #
coedge $-1 $394 $182 $187 $295 forward $108 $-1 #
coedge $-1 $182 $394 $395 $396 reversed $108 $-1 #
coedge $-1 $184 $183 $182 $289 reversed $69 $-1 #
edge $-1 $397 -7.9726486655926925 $300 -1.3063445043215287 $182 $398 forward 7 unknown #
coedge $-1 $395 $399 $184 $291 forward $284 $-1 #
edge $-1 $293 -52.264778588213751 $397 52.264778588213751 $290 $400 forward 7 unknown #
coedge $-1 $191 $185 $399 $401 reversed $192 $-1 #
vertex $-1 $186 $402 #
straight-curve $-1 52.264778588213751 -14.882567393909145 4.6394965849571106 0 0 1 I I #
edge $-1 $300 4.3485791421007889 $298 16.719397361515924 $286 $403 forward 7 unknown #
coedge $-1 $404 $188 $191 $302 reversed $180 $-1 #
coedge $-1 $188 $404 $394 $405 forward $180 $-1 #
vertex $-1 $189 $406 #
straight-curve $-1 0 -27.25338561332428 5.9458410892786393 1 0 0 I I #
vertex $-1 $295 $407 #
straight-curve $-1 0 -14.882567393909145 5.9458410892786393 1 0 0 I I #
edge $-1 $408 -12.612145250549803 $193 -5.9458410892786393 $191 $409 forward 7 unknown #
point $-1 52.264778588213751 -27.25338561332428 5.9458410892786393 #
point $-1 52.264778588213751 -14.882567393909145 5.9458410892786393 #
face $-1 $-1 $322 $26 $-1 $410 reversed single #
loop $-1 $-1 $310 $196 #
plane-surface $-1 -52.264778588213751 0 0 1 0 0 0 0 -1 forward_v I I I I #
coedge $-1 $411 $199 $325 $412 forward $116 $-1 #
coedge $-1 $199 $411 $413 $414 forward $116 $-1 #
coedge $-1 $413 $316 $200 $311 forward $306 $-1 #
edge $-1 $318 1.3063445043215287 $313 7.9726486655926925 $310 $415 forward 7 unknown #
edge $-1 $314 -7.9726486655926925 $210 -1.3063445043215287 $209 $416 forward 7 unknown #
vertex $-1 $311 $417 #
vertex $-1 $412 $418 #
straight-curve $-1 0 14.882567393909142 12.612145250549803 1 0 0 I I #
coedge $-1 $310 $419 $203 $317 forward $306 $-1 #
edge $-1 $323 -16.719397361515924 $318 -4.3485791421007871 $316 $420 forward 7 unknown #
vertex $-1 $317 $421 #
straight-curve $-1 0 14.882567393909142 5.9458410892786393 -1 0 0 I I #
coedge $-1 $422 $206 $419 $423 reversed $322 $-1 #
coedge $-1 $206 $422 $208 $326 forward $322 $-1 #
loop $-1 $-1 $206 $305 #
vertex $-1 $207 $424 #
straight-curve $-1 0 27.25338561332428 5.9458410892786393 -1 0 0 I I #
coedge $-1 $209 $208 $308 $412 reversed $197 $-1 #
edge $-1 $425 -12.612145250549803 $211 -5.9458410892786393 $208 $426 forward 7 unknown #
point $-1 52.264778588213751 14.882567393909142 5.9458410892786393 #
point $-1 52.264778588213751 27.253385613324276 5.9458410892786393 #
loop $-1 $-1 $221 $213 #
plane-surface $-1 0 14.882567393909142 9.2789931699142212 0 1 0 0 0 1 forward_v I I I I #
coedge $-1 $336 $427 $217 $332 forward $214 $-1 #
edge $-1 $334 61.930116543284711 $342 72.722328655786754 $331 $428 forward 7 unknown #
coedge $-1 $224 $218 $427 $429 forward $124 $-1 #
vertex $-1 $429 $430 #
straight-curve $-1 32.574381352184872 7.0949996738160088 12.612145250549801 1 0 0 I I #
coedge $-1 $431 $331 $220 $337 forward $214 $-1 #
edge $-1 $342 1.6006079068847203 $340 9.3881756269778567 $336 $432 forward 7 unknown #
coedge $-1 $339 $221 $224 $344 reversed $329 $-1 #
coedge $-1 $221 $338 $431 $433 reversed $329 $-1 #
vertex $-1 $433 $434 #
straight-curve $-1 6.0359185500272563 14.882567393909142 56.913344612502989 -0.64278759981090572 0 0.76604445140561861 I I #
vertex $-1 $337 $435 #
straight-curve $-1 -14.925524578518889 7.0949996738160088 81.894220420936364 -0.64278759981090561 0 0.7660444514056185 I I #
edge $-1 $436 -52.264778588213751 $225 -43.209037622116476 $224 $437 forward 7 unknown #
point $-1 43.209037622116476 14.882567393909142 12.612145250549803 #
point $-1 43.209037622116462 7.0949996738160088 12.612145250549801 #
edge $-1 $438 1 $438 0 $228 $-1 forward 7 unknown #
vertex $-1 $229 $439 #
ellipse-curve $-1 45.883083805758389 10.988783533862577 5.6604959491250932 0.7660444514056185 0 0.64278759981090561 0.96418139971635841 0 -1.1490666771084277 1 I I #
point $-1 48.701089504881466 10.988783533862577 6.066972517190333 #
plane-surface $-1 0 0 12.612145250549803 0 0 1 1 0 0 forward_v I I I I #
coedge $-1 $362 $361 $354 $440 forward $233 $-1 #
coedge $-1 $354 $235 $237 $358 reversed $139 $-1 #
coedge $-1 $235 $353 $352 $440 reversed $139 $-1 #
coedge $-1 $243 $238 $235 $356 forward $244 $-1 #
edge $-1 $359 -18.873742810663551 $441 -12.70791090126081 $355 $442 forward 7 unknown #
coedge $-1 $237 $236 $362 $443 reversed $86 $-1 #
edge $-1 $444 -3.208459706215348e-014 $359 9.2146913256652354 $353 $445 forward 7 unknown #
vertex $-1 $239 $446 #
straight-curve $-1 -46.098946678811004 -0.65427377816278032 12.612145250549801 0 1 0 I I #
coedge $-1 $352 $240 $243 $366 reversed $233 $-1 #
coedge $-1 $240 $352 $357 $443 forward $233 $-1 #
vertex $-1 $241 $447 #
straight-curve $-1 -52.264778588213751 -5.478012373904745 37.854110005854025 0 0 1 I I #
straight-curve $-1 -52.26477858821373 -5.478012373904745 5.7642949972015742 -0.66913059716165679 0 -0.74314483375859142 I I #
edge $-1 $441 -2.8609172612536238 $245 5.478012373904745 $361 $448 forward 7 unknown #
point $-1 -52.264778588213751 -5.478012373904745 12.612145250549803 #
point $-1 -46.098946678811011 -5.478012373904745 12.612145250549801 #
edge $-1 $449 1 $449 0 $248 $-1 forward 7 unknown #
vertex $-1 $249 $450 #
ellipse-curve $-1 -47.73180374305533 -3.0954610495737853 7.8825812669334443 -0.74314483375859142 0 0.66913059716165679 0.3345652985808284 0 0.37157241687929571 1 I I #
point $-1 -48.847297334931554 -3.0954610495737853 9.5597925407549784 #
edge $-1 $451 1 $451 0 $252 $-1 forward 7 unknown #
vertex $-1 $253 $452 #
ellipse-curve $-1 -47.73180374305533 0.47836593692265694 7.8825812669334443 -0.74314483375859142 0 0.66913059716165679 0.3345652985808284 0 0.37157241687929571 1 I I #
point $-1 -48.847297334931554 0.47836593692265694 9.5597925407549784 #
plane-surface $-1 52.264778588213751 0 0 -1 0 0 0 0 1 forward_v I I I I #
coedge $-1 $261 $259 $263 $382 reversed $161 $-1 #
edge $-1 $274 -12.612145250549803 $384 12.612145250549803 $273 $453 forward 7 unknown #
vertex $-1 $382 $454 #
straight-curve $-1 -52.264778588213751 -27.25338561332428 0 0 0 -1 I I #
edge $-1 $380 -27.25338561332428 $384 27.25338561332428 $378 $455 forward 7 unknown #
straight-curve $-1 0 -27.25338561332428 -12.612145250549803 -1 0 0 I I #
vertex $-1 $266 $456 #
straight-curve $-1 0 27.25338561332428 -12.612145250549803 1 0 0 I I #
point $-1 52.264778588213751 27.25338561332428 -12.612145250549803 #
point $-1 52.264778588213751 -27.25338561332428 -12.612145250549803 #
straight-curve $-1 -52.264778588213751 0 12.612145250549803 0 -1 0 I I #
point $-1 -52.264778588213751 27.25338561332428 12.612145250549803 #
point $-1 -52.264778588213751 -27.25338561332428 12.612145250549803 #
straight-curve $-1 52.264778588213751 -27.25338561332428 0 0 0 -1 I I #
straight-curve $-1 52.264778588213751 27.25338561332428 0 0 0 -1 I I #
plane-surface $-1 52.264778588213751 0 0 -1 0 0 0 0 1 forward_v I I I I #
coedge $-1 $287 $286 $297 $405 reversed $108 $-1 #
coedge $-1 $457 $290 $287 $396 forward $284 $-1 #
edge $-1 $397 14.882567393909145 $458 27.25338561332428 $287 $459 forward 7 unknown #
vertex $-1 $396 $460 #
straight-curve $-1 -52.264778588213751 -14.882567393909145 4.6394965849571106 0 0 -1 I I #
coedge $-1 $290 $457 $292 $401 forward $284 $-1 #
straight-curve $-1 0 -14.882567393909145 12.612145250549803 -1 0 0 I I #
edge $-1 $408 -27.25338561332428 $293 -14.882567393909145 $292 $461 forward 7 unknown #
point $-1 52.264778588213751 -14.882567393909145 12.612145250549803 #
straight-curve $-1 -52.264778588213751 -10.533988251808356 5.9458410892786393 0 -1 0 I I #
coedge $-1 $297 $296 $457 $462 reversed $180 $-1 #
edge $-1 $458 -12.612145250549803 $298 -5.9458410892786393 $394 $463 forward 7 unknown #
point $-1 -52.264778588213751 -27.25338561332428 5.9458410892786393 #
point $-1 -52.264778588213751 -14.882567393909145 5.9458410892786393 #
vertex $-1 $401 $464 #
straight-curve $-1 52.264778588213751 -27.25338561332428 0 0 0 -1 I I #
plane-surface $-1 0 27.25338561332428 0 0 -1 0 0 0 -1 forward_v I I I I #
coedge $-1 $309 $308 $422 $465 forward $116 $-1 #
edge $-1 $314 14.882567393909142 $425 27.25338561332428 $325 $466 forward 7 unknown #
coedge $-1 $419 $310 $309 $414 reversed $306 $-1 #
edge $-1 $467 -27.25338561332428 $313 -14.882567393909142 $413 $468 forward 7 unknown #
straight-curve $-1 -52.264778588213751 14.882567393909142 4.6394965849571106 0 0 1 I I #
straight-curve $-1 52.264778588213751 14.882567393909142 4.6394965849571106 0 0 -1 I I #
point $-1 -52.264778588213751 14.882567393909142 12.612145250549803 #
point $-1 52.264778588213751 14.882567393909142 12.612145250549803 #
coedge $-1 $316 $413 $320 $423 forward $306 $-1 #
straight-curve $-1 -52.264778588213751 10.533988251808355 5.9458410892786393 0 -1 0 I I #
point $-1 -52.264778588213751 14.882567393909142 5.9458410892786393 #
coedge $-1 $321 $320 $411 $465 reversed $322 $-1 #
edge $-1 $467 -12.612145250549803 $323 -5.9458410892786393 $320 $469 forward 7 unknown #
point $-1 -52.264778588213751 27.253385613324276 5.9458410892786393 #
vertex $-1 $412 $470 #
straight-curve $-1 52.264778588213751 27.25338561332428 0 0 0 -1 I I #
coedge $-1 $331 $431 $333 $429 reversed $214 $-1 #
straight-curve $-1 52.264778588213751 7.0949996738160088 74.542261793834513 0 0 -1 I I #
edge $-1 $334 7.0949996738160088 $436 14.882567393909142 $427 $471 forward 7 unknown #
point $-1 52.264778588213751 7.0949996738160088 12.612145250549803 #
coedge $-1 $427 $336 $339 $433 forward $214 $-1 #
straight-curve $-1 52.264778588213744 5.4943917669312885 1.8199331380477588 0 1 0 I I #
edge $-1 $340 -72.722328655786754 $436 -61.930116543284711 $431 $472 forward 7 unknown #
point $-1 52.264778588213744 14.882567393909145 1.8199331380477588 #
point $-1 52.264778588213744 7.0949996738160088 1.8199331380477588 #
vertex $-1 $344 $473 #
straight-curve $-1 0 14.882567393909142 12.612145250549803 -1 0 0 I I #
vertex $-1 $347 $474 #
point $-1 46.847265205474748 10.988783533862577 4.5114292720166658 #
edge $-1 $441 25.241964755304224 $444 32.089815008652472 $352 $475 forward 7 unknown #
vertex $-1 $366 $476 #
straight-curve $-1 -64.972689489474561 2.8609172612536238 12.612145250549801 -1 0 0 I I #
edge $-1 $444 -3.5151910394164041 $363 4.8237385957419647 $362 $477 forward 7 unknown #
vertex $-1 $443 $478 #
straight-curve $-1 -52.26477858821373 2.8609172612536238 5.7642949972015742 0.66913059716165679 0 0.74314483375859142 I I #
point $-1 -46.098946678811011 2.8609172612536238 12.612145250549801 #
point $-1 -52.264778588213751 -5.478012373904745 5.7642949972015503 #
straight-curve $-1 -52.264778588213751 0 12.612145250549803 0 -1 0 I I #
vertex $-1 $369 $479 #
point $-1 -47.397238444474503 -3.0954610495737853 8.2541536838127403 #
vertex $-1 $373 $480 #
point $-1 -47.397238444474503 0.47836593692265694 8.2541536838127403 #
straight-curve $-1 -52.264778588213751 27.25338561332428 0 0 0 -1 I I #
point $-1 -52.264778588213751 -27.25338561332428 -12.612145250549803 #
straight-curve $-1 -52.264778588213751 0 -12.612145250549803 0 1 0 I I #
point $-1 -52.264778588213751 27.25338561332428 -12.612145250549803 #
coedge $-1 $399 $395 $404 $462 forward $284 $-1 #
vertex $-1 $396 $481 #
straight-curve $-1 -52.264778588213751 0 12.612145250549803 0 -1 0 I I #
point $-1 -52.264778588213751 -14.882567393909145 12.612145250549803 #
straight-curve $-1 52.264778588213751 0 12.612145250549803 0 1 0 I I #
edge $-1 $458 -52.264778588213751 $408 52.264778588213751 $404 $482 forward 7 unknown #
straight-curve $-1 -52.264778588213751 -27.25338561332428 0 0 0 -1 I I #
point $-1 52.264778588213751 -27.25338561332428 12.612145250549803 #
edge $-1 $425 -52.264778588213751 $467 52.264778588213751 $422 $483 forward 7 unknown #
straight-curve $-1 52.264778588213751 0 12.612145250549803 0 1 0 I I #
vertex $-1 $465 $484 #
straight-curve $-1 -52.264778588213751 0 12.612145250549803 0 -1 0 I I #
straight-curve $-1 -52.264778588213751 27.25338561332428 0 0 0 -1 I I #
point $-1 52.264778588213751 27.25338561332428 12.612145250549803 #
straight-curve $-1 52.264778588213751 0 12.612145250549803 0 1 0 I I #
straight-curve $-1 52.264778588213751 14.882567393909145 74.542261793834513 0 0 1 I I #
point $-1 52.264778588213751 14.882567393909142 12.612145250549803 #
point $-1 44.734017128649967 10.988783533862577 4.6963145494087355 #
straight-curve $-1 -52.264778588213751 2.8609172612536238 37.854110005854025 0 0 -1 I I #
point $-1 -52.264778588213751 2.8609172612536238 12.612145250549803 #
straight-curve $-1 -52.264778588213751 -0.65427377816278032 5.7642949972015565 0 -1 0 I I #
point $-1 -52.264778588213751 2.8609172612536238 5.7642949972015503 #
point $-1 -47.360231326176041 -3.0954610495737853 7.5480159683526171 #
point $-1 -47.360231326176041 0.47836593692265694 7.5480159683526171 #
point $-1 -52.264778588213751 -27.25338561332428 12.612145250549803 #
straight-curve $-1 0 -27.25338561332428 12.612145250549803 1 0 0 I I #
straight-curve $-1 0 27.25338561332428 12.612145250549803 -1 0 0 I I #
point $-1 -52.264778588213751 27.25338561332428 12.612145250549803 #
End-of-ACIS-data 