500 0 10 0           
7 Unknown 11 ACIS 5.0 NT 24 Fri Mar 26 00:32:46 1999 
-1 9.9999999999999995e-007 1e-010 
body $-1 $10 $-1 $11 #
body $-1 $12 $-1 $13 #
body $-1 $14 $-1 $15 #
body $-1 $16 $-1 $17 #
body $-1 $18 $-1 $19 #
body $-1 $20 $-1 $21 #
body $-1 $22 $-1 $23 #
body $-1 $24 $-1 $25 #
body $-1 $26 $-1 $27 #
body $-1 $28 $-1 $29 #
lump $-1 $-1 $30 $0 #
transform $-1 1 0 0 0 1 0 0 0 1 70.726035340433981 40.068445602043099 11.174091282903827 1 rotate no_reflect no_shear #
lump $-1 $-1 $31 $1 #
transform $-1 1 0 0 0 1 0 0 0 1 70.726035340433981 40.068445602043099 11.174091282903827 1 rotate no_reflect no_shear #
lump $-1 $-1 $32 $2 #
transform $-1 1 0 0 0 1 0 0 0 1 70.726035340433981 40.068445602043099 11.174091282903827 1 rotate no_reflect no_shear #
lump $-1 $-1 $33 $3 #
transform $-1 1 0 0 0 1 0 0 0 1 70.726035340433981 40.068445602043099 11.174091282903827 1 rotate no_reflect no_shear #
lump $-1 $-1 $34 $4 #
transform $-1 1 0 0 0 1 0 0 0 1 70.726035340433981 40.068445602043099 11.174091282903827 1 rotate no_reflect no_shear #
lump $-1 $-1 $35 $5 #
transform $-1 1 0 0 0 1 0 0 0 1 70.726035340433981 40.068445602043099 11.174091282903827 1 rotate no_reflect no_shear #
lump $-1 $-1 $36 $6 #
transform $-1 1 0 0 0 1 0 0 0 1 70.726035340433981 40.068445602043099 11.174091282903827 1 rotate no_reflect no_shear #
lump $-1 $-1 $37 $7 #
transform $-1 1 0 0 0 1 0 0 0 1 70.726035340433981 40.068445602043099 11.174091282903827 1 rotate no_reflect no_shear #
lump $-1 $-1 $38 $8 #
transform $-1 1 0 0 0 1 0 0 0 1 70.726035340433981 40.068445602043099 11.174091282903827 1 rotate no_reflect no_shear #
lump $-1 $-1 $39 $9 #
transform $-1 1 0 0 0 1 0 0 0 1 70.726035340433981 40.068445602043099 11.174091282903827 1 rotate no_reflect no_shear #
shell $-1 $-1 $-1 $40 $-1 $10 #
shell $-1 $-1 $-1 $41 $-1 $12 #
shell $-1 $-1 $-1 $42 $-1 $14 #
shell $-1 $-1 $-1 $43 $-1 $16 #
shell $-1 $-1 $-1 $44 $-1 $18 #
shell $-1 $-1 $-1 $45 $-1 $20 #
shell $-1 $-1 $-1 $46 $-1 $22 #
shell $-1 $-1 $-1 $47 $-1 $24 #
shell $-1 $-1 $-1 $48 $-1 $26 #
shell $-1 $-1 $-1 $49 $-1 $28 #
face $-1 $50 $51 $30 $-1 $52 forward single #
face $-1 $53 $54 $31 $-1 $55 reversed single #
face $-1 $56 $57 $32 $-1 $58 reversed single #
face $-1 $59 $60 $33 $-1 $61 forward single #
face $-1 $62 $63 $34 $-1 $64 reversed single #
face $-1 $65 $66 $35 $-1 $67 forward single #
face $-1 $68 $69 $36 $-1 $70 reversed single #
face $-1 $71 $72 $37 $-1 $73 forward single #
face $-1 $74 $75 $38 $-1 $76 forward single #
face $-1 $77 $78 $39 $-1 $79 forward single #
face $-1 $80 $81 $30 $-1 $82 reversed single #
loop $-1 $-1 $83 $40 #
plane-surface $-1 0 0 11.174091282903827 0 0 1 1 0 0 forward_v I I I I #
face $-1 $84 $85 $31 $-1 $86 reversed single #
loop $-1 $-1 $87 $41 #
plane-surface $-1 -63.516112109643331 -20.836813841449775 0 0 1 0 0 0 1 forward_v I I I I #
face $-1 $88 $89 $32 $-1 $90 reversed single #
loop $-1 $-1 $91 $42 #
plane-surface $-1 -24.527478222250171 104.80950922005358 155.86509327530791 1 0 0 0 -0.79863551827123203 -0.60181501223851219 forward_v I I I I #
face $-1 $92 $93 $33 $-1 $94 forward single #
loop $-1 $95 $96 $43 #
cone-surface $-1 -10.614295865666534 37.346147806861183 8.1639226080820713 0 -0.79863551827123203 -0.60181501223851219 1 0 0 1 I I 0 1 1 forward I I I I #
face $-1 $97 $98 $34 $-1 $99 reversed single #
loop $-1 $-1 $100 $44 #
plane-surface $-1 11.120959970664213 104.80950922005358 155.86509327530791 1 0 0 0 -0.79863551827123203 -0.60181501223851219 forward_v I I I I #
face $-1 $101 $102 $35 $-1 $103 forward single #
loop $-1 $104 $105 $45 #
cone-surface $-1 25.034142327247849 37.346147806861183 8.1639226080820713 0 -0.79863551827123203 -0.60181501223851219 1 0 0 1 I I 0 1 1 forward I I I I #
face $-1 $106 $107 $36 $-1 $108 reversed single #
loop $-1 $-1 $109 $46 #
plane-surface $-1 55.210363592662802 -40.068445602043084 1.8539947634675258 0 -0.5877852598018023 0.80901698891910034 1 0 0 forward_v I I I I #
face $-1 $110 $111 $37 $-1 $112 forward single #
loop $-1 $113 $114 $47 #
cone-surface $-1 45.9009605440001 -32.591638346115772 5.0512226840950074 0 0.5877852598018023 -0.80901698891910034 2.5 0 0 1 I I 0 1 2.5 forward I I I I #
face $-1 $115 $116 $38 $-1 $117 forward single #
loop $-1 $118 $119 $48 #
cone-surface $-1 55.210363592662802 -32.591638346115772 5.0512226840950074 0 0.5877852598018023 -0.80901698891910034 2.5 0 0 1 I I 0 1 2.5 forward I I I I #
face $-1 $120 $121 $39 $-1 $122 forward single #
loop $-1 $123 $124 $49 #
cone-surface $-1 64.519766641325504 -32.591638346115772 5.0512226840950074 0 0.5877852598018023 -0.80901698891910034 2.5 0 0 1 I I 0 1 2.5 forward I I I I #
face $-1 $125 $126 $30 $-1 $127 reversed single #
loop $-1 $-1 $128 $50 #
plane-surface $-1 0 0 -11.174091282903827 0 0 1 1 0 0 forward_v I I I I #
coedge $-1 $129 $130 $131 $132 forward $51 $-1 #
face $-1 $133 $134 $31 $-1 $135 reversed single #
loop $-1 $-1 $136 $53 #
plane-surface $-1 -63.516112109643331 -17.720263036235444 0 0 -1 0 0 0 -1 forward_v I I I I #
coedge $-1 $137 $138 $139 $140 reversed $54 $-1 #
face $-1 $141 $142 $32 $-1 $143 reversed single #
loop $-1 $-1 $144 $56 #
plane-surface $-1 -10.614295865666534 -8.1591385587003487 70.737113627338474 0 0.79863551827123203 0.60181501223851219 1 0 0 forward_v I I I I #
coedge $-1 $145 $146 $147 $148 reversed $57 $-1 #
face $-1 $-1 $149 $33 $-1 $150 forward single #
loop $-1 $151 $152 $59 #
cone-surface $-1 -10.614295865666534 35.896346608976515 7.0714190746341039 0 -0.79863551827123203 -0.60181501223851219 0.5 0 0 1 I I -0.70710678118654746 0.70710678118654746 0.5 forward I I I I #
loop $-1 $-1 $153 $43 #
coedge $-1 $96 $96 $154 $155 reversed $60 $-1 #
face $-1 $156 $157 $34 $-1 $158 reversed single #
loop $-1 $-1 $159 $62 #
plane-surface $-1 25.034142327247849 -8.1591385587003487 70.737113627338474 0 0.79863551827123203 0.60181501223851219 1 0 0 forward_v I I I I #
coedge $-1 $160 $161 $162 $163 reversed $63 $-1 #
face $-1 $-1 $164 $35 $-1 $165 forward single #
loop $-1 $166 $167 $65 #
cone-surface $-1 25.034142327247849 35.896346608976515 7.0714190746341039 0 -0.79863551827123203 -0.60181501223851219 0.5 0 0 1 I I -0.70710678118654746 0.70710678118654746 0.5 forward I I I I #
loop $-1 $-1 $168 $45 #
coedge $-1 $105 $105 $169 $170 reversed $66 $-1 #
face $-1 $171 $172 $36 $-1 $173 reversed single #
loop $-1 $-1 $174 $68 #
plane-surface $-1 39.694691844891622 -123.21188771669996 116.29112306207509 1 0 0 0 0.5877852598018023 -0.80901698891910034 forward_v I I I I #
coedge $-1 $175 $176 $177 $178 reversed $69 $-1 #
face $-1 $-1 $179 $37 $-1 $180 forward single #
loop $-1 $181 $182 $71 #
cone-surface $-1 45.9009605440001 -30.79410556343764 2.5771311088554487 0 0.5877852598018023 -0.80901698891910034 1.25 0 0 1 I I -0.70710678118654746 0.70710678118654746 1.25 forward I I I I #
loop $-1 $-1 $183 $47 #
coedge $-1 $114 $114 $184 $185 reversed $72 $-1 #
face $-1 $-1 $186 $38 $-1 $187 forward single #
loop $-1 $188 $189 $74 #
cone-surface $-1 55.210363592662802 -30.79410556343764 2.5771311088554487 0 0.5877852598018023 -0.80901698891910034 1.25 0 0 1 I I -0.70710678118654746 0.70710678118654746 1.25 forward I I I I #
loop $-1 $-1 $190 $48 #
coedge $-1 $119 $119 $191 $192 reversed $75 $-1 #
face $-1 $-1 $193 $39 $-1 $194 forward single #
loop $-1 $195 $196 $77 #
cone-surface $-1 64.519766641325504 -30.79410556343764 2.5771311088554487 0 0.5877852598018023 -0.80901698891910034 1.25 0 0 1 I I -0.70710678118654746 0.70710678118654746 1.25 forward I I I I #
loop $-1 $-1 $197 $49 #
coedge $-1 $124 $124 $198 $199 reversed $78 $-1 #
face $-1 $200 $201 $30 $-1 $202 reversed single #
loop $-1 $-1 $203 $80 #
plane-surface $-1 0 -40.068445602043099 0 0 1 0 0 0 1 forward_v I I I I #
coedge $-1 $204 $205 $206 $207 forward $81 $-1 #
coedge $-1 $208 $83 $209 $210 forward $51 $-1 #
coedge $-1 $83 $208 $211 $212 forward $51 $-1 #
coedge $-1 $213 $214 $83 $132 reversed $215 $-1 #
edge $-1 $216 -40.068445602043099 $217 40.068445602043099 $131 $218 forward 7 unknown #
face $-1 $219 $220 $31 $-1 $221 reversed single #
loop $-1 $-1 $222 $84 #
plane-surface $-1 -56.30618887885268 -19.27853843884261 0 -1 0 0 0 0 1 forward_v I I I I #
coedge $-1 $223 $224 $225 $226 forward $85 $-1 #
coedge $-1 $227 $87 $228 $229 reversed $54 $-1 #
coedge $-1 $87 $227 $230 $231 reversed $54 $-1 #
coedge $-1 $232 $233 $87 $140 forward $234 $-1 #
edge $-1 $235 -11.174091282903827 $236 11.174091282903827 $139 $237 forward 7 unknown #
face $-1 $238 $239 $32 $-1 $240 reversed single #
loop $-1 $-1 $241 $88 #
plane-surface $-1 3.2988864909171021 104.80950922005358 155.86509327530791 -1 0 0 0 0.79863551827123203 0.60181501223851219 forward_v I I I I #
coedge $-1 $242 $243 $244 $245 reversed $89 $-1 #
coedge $-1 $146 $91 $246 $247 reversed $57 $-1 #
coedge $-1 $91 $145 $242 $248 reversed $57 $-1 #
coedge $-1 $244 $249 $91 $148 forward $250 $-1 #
edge $-1 $251 12.336309007983694 $252 15.679937720849423 $147 $253 forward 7 unknown #
loop $-1 $-1 $154 $92 #
plane-surface $-1 -10.614295865666534 -8.1591385587003487 70.737113627338474 0 0.79863551827123203 0.60181501223851219 1 0 0 forward_v I I I I #
loop $-1 $-1 $254 $59 #
coedge $-1 $152 $152 $153 $255 reversed $93 $-1 #
coedge $-1 $153 $153 $152 $255 forward $95 $-1 #
coedge $-1 $154 $154 $96 $155 forward $149 $-1 #
edge $-1 $256 -2.8776590440727458e-015 $256 6.2831853071795978 $154 $257 forward 7 unknown #
face $-1 $258 $259 $34 $-1 $260 forward single #
loop $-1 $-1 $261 $97 #
plane-surface $-1 38.947324683831482 104.80950922005358 155.86509327530791 -1 0 0 0 0.79863551827123203 0.60181501223851219 forward_v I I I I #
coedge $-1 $262 $263 $264 $265 reversed $98 $-1 #
coedge $-1 $161 $100 $266 $267 reversed $63 $-1 #
coedge $-1 $100 $160 $262 $268 reversed $63 $-1 #
coedge $-1 $264 $269 $100 $163 forward $259 $-1 #
edge $-1 $270 12.336309007983694 $271 15.679937720849423 $162 $272 forward 7 unknown #
loop $-1 $-1 $169 $101 #
plane-surface $-1 25.034142327247849 -8.1591385587003487 70.737113627338474 0 0.79863551827123203 0.60181501223851219 1 0 0 forward_v I I I I #
loop $-1 $-1 $273 $65 #
coedge $-1 $167 $167 $168 $274 reversed $102 $-1 #
coedge $-1 $168 $168 $167 $274 forward $104 $-1 #
coedge $-1 $169 $169 $105 $170 forward $164 $-1 #
edge $-1 $275 -2.8776590440727458e-015 $275 6.2831853071795978 $169 $276 forward 7 unknown #
face $-1 $277 $278 $36 $-1 $279 forward single #
loop $-1 $-1 $280 $106 #
plane-surface $-1 0 -40.068445602043099 0 0 1 0 0 0 1 forward_v I I I I #
coedge $-1 $281 $282 $283 $284 reversed $107 $-1 #
coedge $-1 $285 $109 $286 $287 reversed $69 $-1 #
coedge $-1 $109 $285 $281 $288 forward $69 $-1 #
coedge $-1 $283 $289 $109 $178 forward $278 $-1 #
edge $-1 $290 -43.12085354410258 $291 -12.089510048560221 $177 $292 forward 7 unknown #
loop $-1 $-1 $184 $110 #
plane-surface $-1 55.210363592662802 -40.068445602043084 1.8539947634675258 0 -0.5877852598018023 0.80901698891910034 1 0 0 forward_v I I I I #
loop $-1 $-1 $293 $71 #
coedge $-1 $182 $182 $183 $294 reversed $111 $-1 #
coedge $-1 $183 $183 $182 $294 forward $113 $-1 #
coedge $-1 $184 $184 $114 $185 forward $179 $-1 #
edge $-1 $295 6.2185267507411323e-016 $295 6.2831853071796013 $184 $296 forward 7 unknown #
loop $-1 $-1 $191 $115 #
plane-surface $-1 55.210363592662802 -40.068445602043084 1.8539947634675258 0 -0.5877852598018023 0.80901698891910034 1 0 0 forward_v I I I I #
loop $-1 $-1 $297 $74 #
coedge $-1 $189 $189 $190 $298 reversed $116 $-1 #
coedge $-1 $190 $190 $189 $298 forward $118 $-1 #
coedge $-1 $191 $191 $119 $192 forward $186 $-1 #
edge $-1 $299 6.2185267507411323e-016 $299 6.2831853071796013 $191 $300 forward 7 unknown #
loop $-1 $-1 $198 $120 #
plane-surface $-1 55.210363592662802 -40.068445602043084 1.8539947634675258 0 -0.5877852598018023 0.80901698891910034 1 0 0 forward_v I I I I #
loop $-1 $-1 $301 $77 #
coedge $-1 $196 $196 $197 $302 reversed $121 $-1 #
coedge $-1 $197 $197 $196 $302 forward $123 $-1 #
coedge $-1 $198 $198 $124 $199 forward $193 $-1 #
edge $-1 $303 6.2185267507411323e-016 $303 6.2831853071796013 $198 $304 forward 7 unknown #
face $-1 $305 $306 $30 $-1 $307 reversed single #
loop $-1 $-1 $308 $125 #
plane-surface $-1 -70.726035340433981 0 0 1 0 0 0 0 -1 forward_v I I I I #
coedge $-1 $309 $211 $310 $311 forward $126 $-1 #
coedge $-1 $312 $128 $309 $313 forward $81 $-1 #
coedge $-1 $128 $312 $314 $315 forward $81 $-1 #
coedge $-1 $214 $213 $128 $207 reversed $215 $-1 #
edge $-1 $316 -40.068445602043099 $317 40.068445602043099 $206 $318 forward 7 unknown #
coedge $-1 $130 $129 $319 $320 forward $51 $-1 #
coedge $-1 $321 $322 $129 $210 reversed $306 $-1 #
edge $-1 $217 -70.726035340433981 $323 70.726035340433981 $209 $324 forward 7 unknown #
coedge $-1 $203 $325 $130 $212 reversed $126 $-1 #
edge $-1 $326 -70.726035340433981 $216 70.726035340433981 $211 $327 forward 7 unknown #
coedge $-1 $206 $131 $325 $328 forward $215 $-1 #
coedge $-1 $131 $206 $321 $329 reversed $215 $-1 #
loop $-1 $-1 $213 $305 #
vertex $-1 $132 $330 #
vertex $-1 $132 $331 #
straight-curve $-1 70.726035340433981 0 11.174091282903827 0 1 0 I I #
face $-1 $332 $333 $31 $-1 $334 forward single #
loop $-1 $-1 $335 $133 #
plane-surface $-1 0 0 -11.174091282903827 0 0 1 1 0 0 forward_v I I I I #
coedge $-1 $336 $337 $227 $338 forward $134 $-1 #
coedge $-1 $339 $136 $335 $340 reversed $85 $-1 #
coedge $-1 $136 $339 $341 $342 reversed $85 $-1 #
coedge $-1 $337 $336 $136 $226 reversed $134 $-1 #
edge $-1 $343 -11.174091282903827 $344 11.174091282903827 $225 $345 forward 7 unknown #
coedge $-1 $138 $137 $222 $338 reversed $54 $-1 #
coedge $-1 $346 $347 $137 $229 forward $220 $-1 #
edge $-1 $348 24.548132824031015 $235 38.967979285612316 $228 $349 forward 7 unknown #
coedge $-1 $350 $351 $138 $231 forward $333 $-1 #
edge $-1 $236 -38.967979285612316 $352 -24.548132824031015 $230 $353 forward 7 unknown #
coedge $-1 $354 $139 $351 $355 reversed $234 $-1 #
coedge $-1 $139 $354 $346 $356 reversed $234 $-1 #
loop $-1 $-1 $354 $332 #
vertex $-1 $356 $357 #
vertex $-1 $140 $358 #
straight-curve $-1 -70.726035340433981 -20.836813841449775 0 0 0 1 I I #
face $-1 $-1 $250 $32 $-1 $359 forward single #
loop $-1 $-1 $360 $141 #
plane-surface $-1 0 40.068445602043099 0 0 -1 0 0 0 -1 forward_v I I I I #
coedge $-1 $361 $362 $363 $364 reversed $142 $-1 #
coedge $-1 $365 $144 $146 $248 forward $89 $-1 #
coedge $-1 $144 $365 $361 $366 forward $89 $-1 #
coedge $-1 $363 $147 $144 $245 forward $250 $-1 #
edge $-1 $252 -19.220330289416903 $367 8.6060344237503692 $244 $368 forward 7 unknown #
coedge $-1 $369 $370 $145 $247 forward $239 $-1 #
edge $-1 $371 -71.195600649736193 $251 -66.758455354750126 $246 $372 forward 7 unknown #
edge $-1 $252 74.580983417025905 $371 80.136891204086197 $146 $373 forward 7 unknown #
coedge $-1 $147 $363 $369 $374 forward $250 $-1 #
loop $-1 $-1 $363 $238 #
vertex $-1 $247 $375 #
vertex $-1 $148 $376 #
straight-curve $-1 -24.527478222250171 52.404754610026792 11.174091282903831 0 -1 0 I I #
coedge $-1 $254 $254 $-1 $377 reversed $151 $-1 #
edge $-1 $378 0 $378 6.2831853071796004 $152 $379 forward 7 unknown #
vertex $-1 $155 $380 #
ellipse-curve $-1 -10.614295865666534 38.396631245610244 8.9555186354107903 0 0.79863551827123203 0.60181501223851219 1 0 0 1 I I #
face $-1 $-1 $381 $34 $-1 $382 reversed single #
loop $-1 $-1 $162 $156 #
plane-surface $-1 0 0 11.174091282903827 0 0 1 1 0 0 forward_v I I I I #
coedge $-1 $383 $384 $385 $386 reversed $157 $-1 #
coedge $-1 $387 $159 $161 $268 forward $98 $-1 #
coedge $-1 $159 $387 $383 $388 forward $98 $-1 #
coedge $-1 $385 $162 $159 $265 forward $259 $-1 #
edge $-1 $271 -1.3961111929597116 $389 26.430253520207557 $264 $390 forward 7 unknown #
coedge $-1 $391 $392 $160 $267 forward $381 $-1 #
edge $-1 $393 -71.195600649736193 $270 -66.758455354750126 $266 $394 forward 7 unknown #
edge $-1 $271 74.580983417025905 $393 80.136891204086197 $161 $395 forward 7 unknown #
coedge $-1 $162 $385 $391 $396 forward $259 $-1 #
vertex $-1 $267 $397 #
vertex $-1 $163 $398 #
straight-curve $-1 11.120959970664213 52.404754610026792 11.174091282903831 0 -1 0 I I #
coedge $-1 $273 $273 $-1 $399 reversed $166 $-1 #
edge $-1 $400 0 $400 6.2831853071796004 $167 $401 forward 7 unknown #
vertex $-1 $170 $402 #
ellipse-curve $-1 25.034142327247849 38.396631245610244 8.9555186354107903 0 0.79863551827123203 0.60181501223851219 1 0 0 1 I I #
face $-1 $-1 $403 $36 $-1 $404 reversed single #
loop $-1 $-1 $283 $171 #
plane-surface $-1 0 0 11.174091282903827 0 0 1 1 0 0 forward_v I I I I #
coedge $-1 $405 $406 $282 $407 forward $172 $-1 #
coedge $-1 $282 $174 $176 $288 reversed $107 $-1 #
coedge $-1 $174 $281 $280 $407 reversed $107 $-1 #
coedge $-1 $408 $177 $174 $284 forward $278 $-1 #
edge $-1 $291 -34.365510352309826 $409 -21.537498256306883 $283 $410 forward 7 unknown #
coedge $-1 $176 $175 $405 $411 reversed $69 $-1 #
coedge $-1 $412 $413 $175 $287 forward $403 $-1 #
edge $-1 $414 -15.66315120895888 $290 0.19314386482196627 $286 $415 forward 7 unknown #
edge $-1 $416 -1.7500491998158137e-014 $291 15.856295073780826 $281 $417 forward 7 unknown #
coedge $-1 $177 $408 $412 $418 forward $278 $-1 #
vertex $-1 $287 $419 #
vertex $-1 $178 $420 #
straight-curve $-1 27.605181796331401 -27.240433506040155 11.174091282903827 -1 0 0 I I #
coedge $-1 $293 $293 $-1 $421 reversed $181 $-1 #
edge $-1 $422 0 $422 6.2831853071796004 $182 $423 forward 7 unknown #
vertex $-1 $185 $424 #
ellipse-curve $-1 45.9009605440001 -33.654439554041637 6.5140430231856667 0 -0.5877852598018023 0.80901698891910034 2.5 0 0 1 I I #
coedge $-1 $297 $297 $-1 $425 reversed $188 $-1 #
edge $-1 $426 0 $426 6.2831853071796004 $189 $427 forward 7 unknown #
vertex $-1 $192 $428 #
ellipse-curve $-1 55.210363592662802 -33.654439554041637 6.5140430231856667 0 -0.5877852598018023 0.80901698891910034 2.5 0 0 1 I I #
coedge $-1 $301 $301 $-1 $429 reversed $195 $-1 #
edge $-1 $430 0 $430 6.2831853071796004 $196 $431 forward 7 unknown #
vertex $-1 $199 $432 #
ellipse-curve $-1 64.519766641325504 -33.654439554041637 6.5140430231856667 0 -0.5877852598018023 0.80901698891910034 2.5 0 0 1 I I #
face $-1 $-1 $215 $30 $-1 $433 reversed single #
loop $-1 $-1 $321 $200 #
plane-surface $-1 0 40.068445602043099 0 0 -1 0 0 0 -1 forward_v I I I I #
coedge $-1 $434 $319 $322 $435 forward $201 $-1 #
coedge $-1 $325 $203 $204 $313 reversed $126 $-1 #
coedge $-1 $319 $434 $203 $311 reversed $201 $-1 #
edge $-1 $326 -11.174091282903827 $436 11.174091282903827 $310 $437 forward 7 unknown #
coedge $-1 $205 $204 $434 $438 forward $81 $-1 #
edge $-1 $317 -70.726035340433981 $436 70.726035340433981 $309 $439 forward 7 unknown #
coedge $-1 $322 $321 $205 $315 reversed $306 $-1 #
edge $-1 $440 -70.726035340433981 $316 70.726035340433981 $314 $441 forward 7 unknown #
vertex $-1 $207 $442 #
vertex $-1 $328 $443 #
straight-curve $-1 70.726035340433981 0 -11.174091282903827 0 -1 0 I I #
coedge $-1 $308 $310 $208 $320 reversed $201 $-1 #
edge $-1 $323 -40.068445602043099 $326 40.068445602043099 $319 $444 forward 7 unknown #
coedge $-1 $314 $209 $214 $329 forward $306 $-1 #
coedge $-1 $209 $314 $308 $435 reversed $306 $-1 #
vertex $-1 $210 $445 #
straight-curve $-1 0 40.068445602043099 11.174091282903827 -1 0 0 I I #
coedge $-1 $211 $309 $213 $328 reversed $126 $-1 #
vertex $-1 $320 $446 #
straight-curve $-1 0 -40.068445602043099 11.174091282903827 1 0 0 I I #
edge $-1 $216 -11.174091282903827 $317 11.174091282903827 $213 $447 forward 7 unknown #
edge $-1 $217 -11.174091282903827 $316 11.174091282903827 $214 $448 forward 7 unknown #
point $-1 70.726035340433981 -40.068445602043099 11.174091282903827 #
point $-1 70.726035340433981 40.068445602043099 11.174091282903827 #
face $-1 $-1 $234 $31 $-1 $449 reversed single #
loop $-1 $-1 $341 $219 #
plane-surface $-1 0 0 11.174091282903827 0 0 1 1 0 0 forward_v I I I I #
coedge $-1 $347 $346 $223 $340 forward $220 $-1 #
coedge $-1 $225 $222 $347 $450 reversed $134 $-1 #
coedge $-1 $222 $225 $350 $451 reversed $134 $-1 #
edge $-1 $352 -11.174091282903827 $348 11.174091282903827 $222 $452 forward 7 unknown #
coedge $-1 $224 $223 $354 $453 reversed $85 $-1 #
edge $-1 $454 -38.967979285612316 $344 -24.548132824031015 $335 $455 forward 7 unknown #
coedge $-1 $351 $350 $224 $342 forward $333 $-1 #
edge $-1 $343 24.548132824031015 $456 38.967979285612316 $341 $457 forward 7 unknown #
vertex $-1 $342 $458 #
vertex $-1 $340 $459 #
straight-curve $-1 -56.30618887885268 -17.720263036235444 0 0 0 -1 I I #
coedge $-1 $335 $228 $233 $356 forward $220 $-1 #
coedge $-1 $228 $335 $336 $450 forward $220 $-1 #
vertex $-1 $229 $460 #
straight-curve $-1 -31.758056054821665 -20.836813841449775 -11.174091282903827 -1 0 0 I I #
coedge $-1 $341 $230 $337 $451 forward $333 $-1 #
coedge $-1 $230 $341 $232 $355 forward $333 $-1 #
vertex $-1 $231 $461 #
straight-curve $-1 -31.758056054821665 -20.836813841449775 11.174091282903827 1 0 0 I I #
coedge $-1 $233 $232 $339 $453 forward $234 $-1 #
edge $-1 $456 17.720263036235444 $236 20.836813841449775 $232 $462 forward 7 unknown #
edge $-1 $235 -20.836813841449775 $454 -17.720263036235444 $233 $463 forward 7 unknown #
point $-1 -70.726035340433981 -20.836813841449775 -11.174091282903827 #
point $-1 -70.726035340433981 -20.836813841449775 11.174091282903827 #
plane-surface $-1 0 0 11.174091282903827 0 0 1 1 0 0 forward_v I I I I #
coedge $-1 $370 $369 $362 $464 forward $239 $-1 #
coedge $-1 $362 $241 $243 $366 reversed $142 $-1 #
coedge $-1 $241 $361 $360 $464 reversed $142 $-1 #
coedge $-1 $249 $244 $241 $364 forward $250 $-1 #
edge $-1 $367 -15.679937720849423 $465 -12.336309007983694 $363 $466 forward 7 unknown #
coedge $-1 $243 $242 $370 $467 reversed $89 $-1 #
edge $-1 $468 -80.136891204086197 $367 -74.580983417025905 $361 $469 forward 7 unknown #
vertex $-1 $245 $470 #
straight-curve $-1 -5.3071479328332671 36.724816889177369 11.174091282903838 1 0 0 I I #
coedge $-1 $360 $246 $249 $374 reversed $239 $-1 #
coedge $-1 $246 $360 $365 $467 forward $239 $-1 #
vertex $-1 $247 $471 #
straight-curve $-1 -24.527478222250171 40.068445602043099 77.932546637653957 0 0 1 I I #
straight-curve $-1 -24.527478222250171 -8.1591385587003487 70.737113627338474 0 0.60181501223851219 -0.79863551827123203 I I #
edge $-1 $465 -3.2988864909171021 $251 24.527478222250171 $369 $472 forward 7 unknown #
point $-1 -24.527478222250171 40.068445602043099 11.174091282903827 #
point $-1 -24.527478222250171 36.724816889177369 11.174091282903831 #
edge $-1 $473 1 $473 0 $254 $-1 forward 7 unknown #
vertex $-1 $255 $474 #
ellipse-curve $-1 -10.614295865666534 36.295664368112128 7.3723265807533602 0 0.79863551827123203 0.60181501223851219 1 0 0 1 I I #
point $-1 -9.6142958656665343 38.39663124561023 8.9555186354107832 #
loop $-1 $-1 $266 $258 #
plane-surface $-1 0 40.068445602043099 0 0 -1 0 0 0 -1 forward_v I I I I #
coedge $-1 $384 $261 $263 $388 reversed $157 $-1 #
coedge $-1 $261 $383 $475 $476 reversed $157 $-1 #
coedge $-1 $269 $264 $261 $386 forward $259 $-1 #
edge $-1 $389 -15.679937720849423 $477 -12.336309007983694 $385 $478 forward 7 unknown #
coedge $-1 $263 $262 $392 $479 reversed $98 $-1 #
edge $-1 $480 -80.136891204086197 $389 -74.580983417025905 $383 $481 forward 7 unknown #
vertex $-1 $265 $482 #
straight-curve $-1 12.517071163623925 36.724816889177369 11.174091282903838 1 0 0 I I #
coedge $-1 $475 $266 $269 $396 reversed $381 $-1 #
coedge $-1 $266 $475 $387 $479 forward $381 $-1 #
vertex $-1 $267 $483 #
straight-curve $-1 11.120959970664213 40.068445602043099 77.932546637653957 0 0 1 I I #
straight-curve $-1 11.120959970664213 -8.1591385587003487 70.737113627338474 0 0.60181501223851219 -0.79863551827123203 I I #
edge $-1 $477 -38.947324683831482 $270 -11.120959970664213 $391 $484 forward 7 unknown #
point $-1 11.120959970664213 40.068445602043099 11.174091282903827 #
point $-1 11.120959970664213 36.724816889177369 11.174091282903831 #
edge $-1 $485 1 $485 0 $273 $-1 forward 7 unknown #
vertex $-1 $274 $486 #
ellipse-curve $-1 25.034142327247849 36.295664368112128 7.3723265807533602 0 0.79863551827123203 0.60181501223851219 1 0 0 1 I I #
point $-1 26.034142327247849 38.39663124561023 8.9555186354107832 #
loop $-1 $-1 $286 $277 #
plane-surface $-1 70.726035340433981 0 0 -1 0 0 0 0 1 forward_v I I I I #
coedge $-1 $487 $280 $285 $411 forward $172 $-1 #
coedge $-1 $280 $487 $408 $488 reversed $172 $-1 #
edge $-1 $409 46.971470248133713 $416 56.291566767570025 $280 $489 forward 7 unknown #
coedge $-1 $289 $283 $406 $488 forward $278 $-1 #
vertex $-1 $488 $490 #
straight-curve $-1 39.694691844891622 -61.605943858349981 11.174091282903824 0 -1 0 I I #
edge $-1 $416 12.089510048560221 $414 43.12085354410258 $405 $491 forward 7 unknown #
coedge $-1 $413 $286 $289 $418 reversed $403 $-1 #
coedge $-1 $286 $412 $487 $492 forward $403 $-1 #
vertex $-1 $411 $493 #
straight-curve $-1 70.726035340433981 -27.39669017398662 11.060564166140324 0 0.80901698891910034 0.5877852598018023 I I #
vertex $-1 $411 $494 #
straight-curve $-1 39.694691844891622 -40.068445602043084 1.8539947634675258 0 0.80901698891910034 0.5877852598018023 I I #
edge $-1 $495 -40.068445602043099 $290 -27.240433506040155 $412 $496 forward 7 unknown #
point $-1 70.726035340433981 -27.240433506040155 11.174091282903827 #
point $-1 39.694691844891622 -27.240433506040155 11.174091282903827 #
edge $-1 $497 1 $497 0 $293 $-1 forward 7 unknown #
vertex $-1 $294 $498 #
ellipse-curve $-1 45.9009605440001 -31.528837138189893 3.5884023450043241 0 -0.5877852598018023 0.80901698891910034 2.5 0 0 1 I I #
point $-1 48.4009605440001 -33.654439554041652 6.514043023185689 #
edge $-1 $499 1 $499 0 $297 $-1 forward 7 unknown #
vertex $-1 $298 $500 #
ellipse-curve $-1 55.210363592662802 -31.528837138189893 3.5884023450043241 0 -0.5877852598018023 0.80901698891910034 2.5 0 0 1 I I #
point $-1 57.710363592662802 -33.654439554041652 6.514043023185689 #
edge $-1 $501 1 $501 0 $301 $-1 forward 7 unknown #
vertex $-1 $302 $502 #
ellipse-curve $-1 64.519766641325504 -31.528837138189893 3.5884023450043241 0 -0.5877852598018023 0.80901698891910034 2.5 0 0 1 I I #
point $-1 67.019766641325504 -33.654439554041652 6.514043023185689 #
plane-surface $-1 70.726035340433981 0 0 -1 0 0 0 0 1 forward_v I I I I #
coedge $-1 $310 $308 $312 $438 reversed $201 $-1 #
edge $-1 $323 -11.174091282903827 $440 11.174091282903827 $322 $503 forward 7 unknown #
vertex $-1 $438 $504 #
straight-curve $-1 -70.726035340433981 -40.068445602043099 0 0 0 -1 I I #
edge $-1 $436 -40.068445602043099 $440 40.068445602043099 $434 $505 forward 7 unknown #
straight-curve $-1 0 -40.068445602043099 -11.174091282903827 -1 0 0 I I #
vertex $-1 $315 $506 #
straight-curve $-1 0 40.068445602043099 -11.174091282903827 1 0 0 I I #
point $-1 70.726035340433981 40.068445602043099 -11.174091282903827 #
point $-1 70.726035340433981 -40.068445602043099 -11.174091282903827 #
straight-curve $-1 -70.726035340433981 0 11.174091282903827 0 -1 0 I I #
point $-1 -70.726035340433981 40.068445602043099 11.174091282903827 #
point $-1 -70.726035340433981 -40.068445602043099 11.174091282903827 #
straight-curve $-1 70.726035340433981 -40.068445602043099 0 0 0 -1 I I #
straight-curve $-1 70.726035340433981 40.068445602043099 0 0 0 -1 I I #
plane-surface $-1 -70.726035340433981 0 0 1 0 0 0 0 -1 forward_v I I I I #
edge $-1 $344 8.0809938168141393 $348 11.19754462202847 $347 $507 forward 7 unknown #
edge $-1 $352 -11.19754462202847 $343 -8.0809938168141393 $350 $508 forward 7 unknown #
straight-curve $-1 -56.30618887885268 -20.836813841449775 0 0 0 -1 I I #
edge $-1 $456 -11.174091282903827 $454 11.174091282903827 $354 $509 forward 7 unknown #
vertex $-1 $453 $510 #
straight-curve $-1 -31.758056054821665 -17.720263036235444 -11.174091282903827 1 0 0 I I #
vertex $-1 $355 $511 #
straight-curve $-1 -31.758056054821665 -17.720263036235444 11.174091282903827 -1 0 0 I I #
point $-1 -56.30618887885268 -17.720263036235444 11.174091282903827 #
point $-1 -56.30618887885268 -17.720263036235444 -11.174091282903827 #
point $-1 -56.30618887885268 -20.836813841449775 -11.174091282903827 #
point $-1 -56.30618887885268 -20.836813841449775 11.174091282903827 #
straight-curve $-1 -70.726035340433981 0 11.174091282903827 0 -1 0 I I #
straight-curve $-1 -70.726035340433981 0 -11.174091282903827 0 1 0 I I #
edge $-1 $465 66.758455354750126 $468 71.195600649736193 $360 $512 forward 7 unknown #
vertex $-1 $374 $513 #
straight-curve $-1 3.2988864909171021 52.404754610026792 11.174091282903831 0 1 0 I I #
edge $-1 $468 -8.6060344237503692 $371 19.220330289416903 $370 $514 forward 7 unknown #
vertex $-1 $467 $515 #
straight-curve $-1 3.2988864909171021 -8.1591385587003487 70.737113627338474 0 -0.60181501223851219 0.79863551827123203 I I #
point $-1 3.2988864909171021 36.724816889177369 11.174091282903831 #
point $-1 -24.527478222250171 40.068445602043099 6.736945987917764 #
straight-curve $-1 0 40.068445602043099 11.174091282903827 -1 0 0 I I #
vertex $-1 $377 $516 #
point $-1 -9.6142958656665343 36.295664368112128 7.3723265807533602 #
coedge $-1 $392 $391 $384 $476 forward $381 $-1 #
edge $-1 $477 66.758455354750126 $480 71.195600649736193 $475 $517 forward 7 unknown #
vertex $-1 $396 $518 #
straight-curve $-1 38.947324683831482 52.404754610026792 11.174091282903831 0 1 0 I I #
edge $-1 $480 -26.430253520207557 $393 1.3961111929597116 $392 $519 forward 7 unknown #
vertex $-1 $479 $520 #
straight-curve $-1 38.947324683831482 -8.1591385587003487 70.737113627338474 0 -0.60181501223851219 0.79863551827123203 I I #
point $-1 38.947324683831482 36.724816889177369 11.174091282903831 #
point $-1 11.120959970664213 40.068445602043099 6.736945987917764 #
straight-curve $-1 0 40.068445602043099 11.174091282903827 -1 0 0 I I #
vertex $-1 $399 $521 #
point $-1 26.034142327247849 36.295664368112128 7.3723265807533602 #
coedge $-1 $406 $405 $413 $492 reversed $172 $-1 #
edge $-1 $409 39.694691844891622 $495 70.726035340433981 $406 $522 forward 7 unknown #
straight-curve $-1 39.694691844891622 -40.068445602043099 58.145561531037544 0 0 -1 I I #
point $-1 39.694691844891622 -40.068445602043099 11.174091282903827 #
straight-curve $-1 27.605181796331401 -40.068445602043099 1.8539947634675162 1 0 0 I I #
edge $-1 $495 -11.174091282903827 $414 -1.8539947634675156 $413 $523 forward 7 unknown #
point $-1 70.726035340433981 -40.068445602043099 1.8539947634675156 #
point $-1 39.694691844891622 -40.068445602043099 1.8539947634675156 #
vertex $-1 $418 $524 #
straight-curve $-1 70.726035340433981 0 11.174091282903827 0 1 0 I I #
vertex $-1 $421 $525 #
point $-1 48.4009605440001 -31.528837138189893 3.5884023450043241 #
vertex $-1 $425 $526 #
point $-1 57.710363592662802 -31.528837138189893 3.5884023450043241 #
vertex $-1 $429 $527 #
point $-1 67.019766641325504 -31.528837138189893 3.5884023450043241 #
straight-curve $-1 -70.726035340433981 40.068445602043099 0 0 0 -1 I I #
point $-1 -70.726035340433981 -40.068445602043099 -11.174091282903827 #
straight-curve $-1 -70.726035340433981 0 -11.174091282903827 0 1 0 I I #
point $-1 -70.726035340433981 40.068445602043099 -11.174091282903827 #
straight-curve $-1 -56.30618887885268 -9.6392692194213048 -11.174091282903827 0 -1 0 I I #
straight-curve $-1 -56.30618887885268 -9.6392692194213048 11.174091282903827 0 1 0 I I #
straight-curve $-1 -70.726035340433981 -17.720263036235444 0 0 0 -1 I I #
point $-1 -70.726035340433981 -17.720263036235444 -11.174091282903827 #
point $-1 -70.726035340433981 -17.720263036235444 11.174091282903827 #
straight-curve $-1 3.2988864909171021 40.068445602043099 77.932546637653957 0 0 -1 I I #
point $-1 3.2988864909171021 40.068445602043099 11.174091282903827 #
straight-curve $-1 -5.3071479328332671 40.068445602043099 6.7369459879177711 -1 0 0 I I #
point $-1 3.2988864909171021 40.068445602043099 6.736945987917764 #
point $-1 -10.614295865666534 35.497028849840902 6.7705115685148476 #
straight-curve $-1 38.947324683831482 40.068445602043099 77.932546637653957 0 0 -1 I I #
point $-1 38.947324683831482 40.068445602043099 11.174091282903827 #
straight-curve $-1 12.517071163623925 40.068445602043099 6.7369459879177711 -1 0 0 I I #
point $-1 38.947324683831482 40.068445602043099 6.736945987917764 #
point $-1 25.034142327247849 35.497028849840902 6.7705115685148476 #
straight-curve $-1 0 -40.068445602043099 11.174091282903827 1 0 0 I I #
straight-curve $-1 70.726035340433981 -40.068445602043099 0 0 0 -1 I I #
point $-1 70.726035340433981 -40.068445602043099 11.174091282903827 #
point $-1 45.9009605440001 -30.059373988685387 1.5658598727065733 #
point $-1 55.210363592662802 -30.059373988685387 1.5658598727065733 #
point $-1 64.519766641325504 -30.059373988685387 1.5658598727065733 #
End-of-ACIS-data 