500 0 7 0           
7 Unknown 11 ACIS 5.0 NT 24 Thu Mar 25 15:53:42 1999 
-1 9.9999999999999995e-007 1e-010 
body $-1 $7 $-1 $8 #
body $-1 $9 $-1 $10 #
body $-1 $11 $-1 $12 #
body $-1 $13 $-1 $14 #
body $-1 $15 $-1 $16 #
body $-1 $17 $-1 $18 #
body $-1 $19 $-1 $20 #
lump $-1 $-1 $21 $0 #
transform $-1 1 0 0 0 1 0 0 0 1 73.617969298379464 39.216335157420986 8.9950905415858848 1 rotate no_reflect no_shear #
lump $-1 $-1 $22 $1 #
transform $-1 1 0 0 0 1 0 0 0 1 73.617969298379464 39.216335157420986 8.9950905415858848 1 rotate no_reflect no_shear #
lump $-1 $-1 $23 $2 #
transform $-1 1 0 0 0 1 0 0 0 1 73.617969298379464 39.216335157420986 8.9950905415858848 1 rotate no_reflect no_shear #
lump $-1 $-1 $24 $3 #
transform $-1 1 0 0 0 1 0 0 0 1 73.617969298379464 39.216335157420986 8.9950905415858848 1 rotate no_reflect no_shear #
lump $-1 $-1 $25 $4 #
transform $-1 1 0 0 0 1 0 0 0 1 73.617969298379464 39.216335157420986 8.9950905415858848 1 rotate no_reflect no_shear #
lump $-1 $-1 $26 $5 #
transform $-1 1 0 0 0 1 0 0 0 1 73.617969298379464 39.216335157420986 8.9950905415858848 1 rotate no_reflect no_shear #
lump $-1 $-1 $27 $6 #
transform $-1 1 0 0 0 1 0 0 0 1 73.617969298379464 39.216335157420986 8.9950905415858848 1 rotate no_reflect no_shear #
shell $-1 $-1 $-1 $28 $-1 $7 #
shell $-1 $-1 $-1 $29 $-1 $9 #
shell $-1 $-1 $-1 $30 $-1 $11 #
shell $-1 $-1 $-1 $31 $-1 $13 #
shell $-1 $-1 $-1 $32 $-1 $15 #
shell $-1 $-1 $-1 $33 $-1 $17 #
shell $-1 $-1 $-1 $34 $-1 $19 #
face $-1 $35 $36 $21 $-1 $37 forward single #
face $-1 $38 $39 $22 $-1 $40 forward single #
face $-1 $41 $42 $23 $-1 $43 forward single #
face $-1 $44 $45 $24 $-1 $46 reversed single #
face $-1 $47 $48 $25 $-1 $49 forward single #
face $-1 $50 $51 $26 $-1 $52 forward single #
face $-1 $53 $54 $27 $-1 $55 forward single #
face $-1 $56 $57 $21 $-1 $58 reversed single #
loop $-1 $-1 $59 $28 #
plane-surface $-1 0 0 8.9950905415858848 0 0 1 1 0 0 forward_v I I I I #
face $-1 $60 $61 $22 $-1 $62 reversed single #
loop $-1 $-1 $63 $29 #
plane-surface $-1 0 -39.216335157420986 0 0 1 0 0 0 1 forward_v I I I I #
face $-1 $64 $65 $23 $-1 $66 reversed single #
loop $-1 $-1 $67 $30 #
plane-surface $-1 0 39.216335157420986 0 0 -1 0 0 0 -1 forward_v I I I I #
face $-1 $68 $69 $24 $-1 $70 reversed single #
loop $-1 $-1 $71 $31 #
plane-surface $-1 -149.45008467957581 14.154896503993442 130.05094460440955 0 1 0 -0.51503808176128008 0 0.85716729658548041 forward_v I I I I #
face $-1 $72 $73 $25 $-1 $74 forward single #
loop $-1 $75 $76 $32 #
cone-surface $-1 -68.34603393199221 16.387126676481479 4.7783990198551436 0.51503808176128008 0 -0.85716729658548041 0.85716729658548041 0 0.51503808176128008 1 I I 0 1 1 forward I I I I #
face $-1 $77 $78 $26 $-1 $79 forward single #
loop $-1 $80 $81 $33 #
cone-surface $-1 -68.34603393199221 19.735471935213539 4.7783990198551436 0.51503808176128008 0 -0.85716729658548041 0.85716729658548041 0 0.51503808176128008 1 I I 0 1 1 forward I I I I #
face $-1 $82 $83 $27 $-1 $84 forward single #
loop $-1 $85 $86 $34 #
cone-surface $-1 -68.34603393199221 23.083817193945592 4.7783990198551436 0.51503808176128008 0 -0.85716729658548041 0.85716729658548041 0 0.51503808176128008 1 I I 0 1 1 forward I I I I #
face $-1 $87 $88 $21 $-1 $89 reversed single #
loop $-1 $-1 $90 $35 #
plane-surface $-1 0 0 -8.9950905415858848 0 0 1 1 0 0 forward_v I I I I #
coedge $-1 $91 $92 $93 $94 forward $36 $-1 #
face $-1 $95 $96 $22 $-1 $97 reversed single #
loop $-1 $-1 $98 $38 #
plane-surface $-1 0 0 -8.9950905415858848 0 0 1 1 0 0 forward_v I I I I #
coedge $-1 $99 $100 $101 $102 forward $39 $-1 #
face $-1 $103 $104 $23 $-1 $105 reversed single #
loop $-1 $-1 $106 $41 #
plane-surface $-1 0 0 -8.9950905415858848 0 0 1 1 0 0 forward_v I I I I #
coedge $-1 $107 $108 $109 $110 forward $42 $-1 #
face $-1 $111 $112 $24 $-1 $113 reversed single #
loop $-1 $-1 $114 $44 #
plane-surface $-1 -73.617969298379478 19.735471935213532 3.8451131571999042 -0.51503808176128008 0 0.85716729658548041 0.85716729658548041 0 0.51503808176128008 forward_v I I I I #
coedge $-1 $115 $116 $117 $118 reversed $45 $-1 #
face $-1 $-1 $119 $25 $-1 $120 forward single #
loop $-1 $121 $122 $47 #
cone-surface $-1 -67.102080294836853 16.387126676481479 2.7081125420246579 0.51503808176128008 0 -0.85716729658548041 0.4285836482927402 0 0.25751904088064004 1 I I -0.70710678118654746 0.70710678118654746 0.5 forward I I I I #
loop $-1 $-1 $123 $32 #
coedge $-1 $76 $76 $124 $125 reversed $48 $-1 #
face $-1 $-1 $126 $26 $-1 $127 forward single #
loop $-1 $128 $129 $50 #
cone-surface $-1 -67.102080294836853 19.735471935213539 2.7081125420246579 0.51503808176128008 0 -0.85716729658548041 0.4285836482927402 0 0.25751904088064004 1 I I -0.70710678118654746 0.70710678118654746 0.5 forward I I I I #
loop $-1 $-1 $130 $33 #
coedge $-1 $81 $81 $131 $132 reversed $51 $-1 #
face $-1 $-1 $133 $27 $-1 $134 forward single #
loop $-1 $135 $136 $53 #
cone-surface $-1 -67.102080294836853 23.083817193945592 2.7081125420246579 0.51503808176128008 0 -0.85716729658548041 0.4285836482927402 0 0.25751904088064004 1 I I -0.70710678118654746 0.70710678118654746 0.5 forward I I I I #
loop $-1 $-1 $137 $34 #
coedge $-1 $86 $86 $138 $139 reversed $54 $-1 #
face $-1 $140 $141 $21 $-1 $142 reversed single #
loop $-1 $-1 $143 $56 #
plane-surface $-1 0 -39.216335157420986 0 0 1 0 0 0 1 forward_v I I I I #
coedge $-1 $144 $145 $146 $147 forward $57 $-1 #
coedge $-1 $148 $59 $149 $150 forward $36 $-1 #
coedge $-1 $59 $148 $151 $152 forward $36 $-1 #
coedge $-1 $153 $154 $59 $94 reversed $155 $-1 #
edge $-1 $156 -39.216335157420986 $157 39.216335157420986 $93 $158 forward 7 unknown #
face $-1 $159 $160 $22 $-1 $161 reversed single #
loop $-1 $-1 $162 $60 #
plane-surface $-1 -57.361004657128248 -45.309091806592932 0 0 1 0 0 0 1 forward_v I I I I #
coedge $-1 $163 $164 $100 $165 forward $61 $-1 #
coedge $-1 $166 $63 $167 $168 reversed $39 $-1 #
coedge $-1 $63 $166 $98 $165 reversed $39 $-1 #
coedge $-1 $169 $170 $63 $102 reversed $160 $-1 #
edge $-1 $171 -8.9950905415858848 $172 8.9950905415858848 $101 $173 forward 7 unknown #
face $-1 $174 $175 $23 $-1 $176 reversed single #
loop $-1 $-1 $177 $64 #
plane-surface $-1 -59.094221099048802 42.262713482006959 0 1 0 0 0 0 -1 forward_v I I I I #
coedge $-1 $178 $179 $108 $180 forward $65 $-1 #
coedge $-1 $181 $67 $182 $183 reversed $42 $-1 #
coedge $-1 $67 $181 $106 $180 reversed $42 $-1 #
coedge $-1 $184 $185 $67 $110 reversed $186 $-1 #
edge $-1 $187 -8.9950905415858848 $188 8.9950905415858848 $109 $189 forward 7 unknown #
face $-1 $190 $191 $24 $-1 $192 reversed single #
loop $-1 $-1 $193 $68 #
plane-surface $-1 -149.45008467957581 25.316047366433622 130.05094460440955 0 -1 0 0.51503808176128008 0 -0.85716729658548041 forward_v I I I I #
coedge $-1 $194 $195 $196 $197 reversed $69 $-1 #
coedge $-1 $116 $71 $198 $199 reversed $45 $-1 #
coedge $-1 $71 $115 $194 $200 reversed $45 $-1 #
coedge $-1 $196 $201 $71 $118 forward $202 $-1 #
edge $-1 $203 1.1070730414084409 $204 9.6780745816334957 $117 $205 forward 7 unknown #
loop $-1 $-1 $124 $72 #
plane-surface $-1 -73.617969298379478 19.735471935213532 3.8451131571999042 -0.51503808176128008 0 0.85716729658548041 0.85716729658548041 0 0.51503808176128008 forward_v I I I I #
loop $-1 $-1 $206 $47 #
coedge $-1 $122 $122 $123 $207 reversed $73 $-1 #
coedge $-1 $123 $123 $122 $207 forward $75 $-1 #
coedge $-1 $124 $124 $76 $125 forward $119 $-1 #
edge $-1 $208 0 $208 6.2831853071796004 $124 $209 forward 7 unknown #
loop $-1 $-1 $131 $77 #
plane-surface $-1 -73.617969298379478 19.735471935213532 3.8451131571999042 -0.51503808176128008 0 0.85716729658548041 0.85716729658548041 0 0.51503808176128008 forward_v I I I I #
loop $-1 $-1 $210 $50 #
coedge $-1 $129 $129 $130 $211 reversed $78 $-1 #
coedge $-1 $130 $130 $129 $211 forward $80 $-1 #
coedge $-1 $131 $131 $81 $132 forward $126 $-1 #
edge $-1 $212 0 $212 6.2831853071796004 $131 $213 forward 7 unknown #
loop $-1 $-1 $138 $82 #
plane-surface $-1 -73.617969298379478 19.735471935213532 3.8451131571999042 -0.51503808176128008 0 0.85716729658548041 0.85716729658548041 0 0.51503808176128008 forward_v I I I I #
loop $-1 $-1 $214 $53 #
coedge $-1 $136 $136 $137 $215 reversed $83 $-1 #
coedge $-1 $137 $137 $136 $215 forward $85 $-1 #
coedge $-1 $138 $138 $86 $139 forward $133 $-1 #
edge $-1 $216 0 $216 6.2831853071796004 $138 $217 forward 7 unknown #
face $-1 $218 $219 $21 $-1 $220 reversed single #
loop $-1 $-1 $221 $87 #
plane-surface $-1 -73.617969298379464 0 0 1 0 0 0 0 -1 forward_v I I I I #
coedge $-1 $222 $151 $223 $224 forward $88 $-1 #
coedge $-1 $225 $90 $222 $226 forward $57 $-1 #
coedge $-1 $90 $225 $227 $228 forward $57 $-1 #
coedge $-1 $154 $153 $90 $147 reversed $155 $-1 #
edge $-1 $229 -39.216335157420986 $230 39.216335157420986 $146 $231 forward 7 unknown #
coedge $-1 $92 $91 $232 $233 forward $36 $-1 #
coedge $-1 $234 $235 $91 $150 reversed $219 $-1 #
edge $-1 $157 -73.617969298379464 $236 73.617969298379464 $149 $237 forward 7 unknown #
coedge $-1 $143 $238 $92 $152 reversed $88 $-1 #
edge $-1 $239 -73.617969298379464 $156 73.617969298379464 $151 $240 forward 7 unknown #
coedge $-1 $146 $93 $238 $241 forward $155 $-1 #
coedge $-1 $93 $146 $234 $242 reversed $155 $-1 #
loop $-1 $-1 $153 $218 #
vertex $-1 $94 $243 #
vertex $-1 $94 $244 #
straight-curve $-1 73.617969298379464 0 8.9950905415858848 0 1 0 I I #
face $-1 $245 $246 $22 $-1 $247 reversed single #
loop $-1 $-1 $101 $95 #
plane-surface $-1 -59.094221099048802 -42.262713482006959 0 1 0 0 0 0 -1 forward_v I I I I #
coedge $-1 $248 $249 $250 $251 forward $96 $-1 #
coedge $-1 $252 $98 $253 $254 forward $61 $-1 #
coedge $-1 $98 $252 $169 $255 forward $61 $-1 #
edge $-1 $171 -59.094221099048802 $256 -55.627788215207694 $98 $257 forward 7 unknown #
coedge $-1 $100 $99 $258 $259 forward $39 $-1 #
coedge $-1 $260 $261 $99 $168 forward $262 $-1 #
edge $-1 $263 55.627788215207694 $172 59.094221099048802 $167 $264 forward 7 unknown #
coedge $-1 $250 $101 $164 $255 reversed $160 $-1 #
coedge $-1 $101 $250 $260 $265 reversed $160 $-1 #
vertex $-1 $165 $266 #
vertex $-1 $265 $267 #
straight-curve $-1 -59.094221099048802 -39.216335157420986 0 0 0 1 I I #
face $-1 $268 $186 $23 $-1 $269 reversed single #
loop $-1 $-1 $270 $103 #
plane-surface $-1 -57.361004657128248 45.309091806592932 0 0 -1 0 0 0 -1 forward_v I I I I #
coedge $-1 $271 $272 $273 $274 forward $104 $-1 #
coedge $-1 $275 $106 $271 $276 forward $65 $-1 #
coedge $-1 $106 $275 $184 $277 forward $65 $-1 #
edge $-1 $187 55.627788215207694 $278 59.094221099048802 $106 $279 forward 7 unknown #
coedge $-1 $108 $107 $280 $281 forward $42 $-1 #
coedge $-1 $282 $283 $107 $183 forward $284 $-1 #
edge $-1 $285 -59.094221099048802 $188 -55.627788215207694 $182 $286 forward 7 unknown #
coedge $-1 $287 $109 $179 $277 reversed $186 $-1 #
coedge $-1 $109 $287 $282 $288 reversed $186 $-1 #
loop $-1 $-1 $109 $174 #
vertex $-1 $180 $289 #
vertex $-1 $288 $290 #
straight-curve $-1 -55.627788215207694 39.216335157420986 0 0 0 1 I I #
face $-1 $-1 $202 $24 $-1 $291 forward single #
loop $-1 $-1 $292 $111 #
plane-surface $-1 -73.617969298379464 0 0 1 0 0 0 0 -1 forward_v I I I I #
coedge $-1 $293 $294 $295 $296 reversed $112 $-1 #
coedge $-1 $297 $114 $116 $200 forward $69 $-1 #
coedge $-1 $114 $297 $293 $298 forward $69 $-1 #
coedge $-1 $295 $117 $114 $197 forward $202 $-1 #
edge $-1 $204 4.2871605363866756 $299 15.448311398826856 $196 $300 forward 7 unknown #
coedge $-1 $301 $302 $115 $199 forward $191 $-1 #
edge $-1 $303 -61.180359145004864 $203 -56.030381760618894 $198 $304 forward 7 unknown #
edge $-1 $204 -9.9992166924328423 $303 -1.6526814159067847e-014 $116 $305 forward 7 unknown #
coedge $-1 $117 $295 $301 $306 forward $202 $-1 #
loop $-1 $-1 $295 $190 #
vertex $-1 $199 $307 #
vertex $-1 $118 $308 #
straight-curve $-1 -74.725042339787905 14.154896503993442 8.9950905415858813 1 0 0 I I #
coedge $-1 $206 $206 $-1 $309 reversed $121 $-1 #
edge $-1 $310 0 $310 6.2831853071796004 $122 $311 forward 7 unknown #
vertex $-1 $125 $312 #
ellipse-curve $-1 -69.332468528266929 16.387126676481479 6.4201018493929025 -0.51503808176128008 0 0.85716729658548041 0.85716729658548041 0 0.51503808176128008 1 I I #
coedge $-1 $210 $210 $-1 $313 reversed $128 $-1 #
edge $-1 $314 0 $314 6.2831853071796004 $129 $315 forward 7 unknown #
vertex $-1 $132 $316 #
ellipse-curve $-1 -69.332468528266929 19.735471935213539 6.4201018493929025 -0.51503808176128008 0 0.85716729658548041 0.85716729658548041 0 0.51503808176128008 1 I I #
coedge $-1 $214 $214 $-1 $317 reversed $135 $-1 #
edge $-1 $318 0 $318 6.2831853071796004 $136 $319 forward 7 unknown #
vertex $-1 $139 $320 #
ellipse-curve $-1 -69.332468528266929 23.083817193945592 6.4201018493929025 -0.51503808176128008 0 0.85716729658548041 0.85716729658548041 0 0.51503808176128008 1 I I #
face $-1 $-1 $155 $21 $-1 $321 reversed single #
loop $-1 $-1 $234 $140 #
plane-surface $-1 0 39.216335157420986 0 0 -1 0 0 0 -1 forward_v I I I I #
coedge $-1 $322 $232 $235 $323 forward $141 $-1 #
coedge $-1 $238 $143 $144 $226 reversed $88 $-1 #
coedge $-1 $232 $322 $143 $224 reversed $141 $-1 #
edge $-1 $239 -8.9950905415858848 $324 8.9950905415858848 $223 $325 forward 7 unknown #
coedge $-1 $145 $144 $322 $326 forward $57 $-1 #
edge $-1 $230 -73.617969298379464 $324 73.617969298379464 $222 $327 forward 7 unknown #
coedge $-1 $235 $234 $145 $228 reversed $219 $-1 #
edge $-1 $328 -73.617969298379464 $229 73.617969298379464 $227 $329 forward 7 unknown #
vertex $-1 $147 $330 #
vertex $-1 $241 $331 #
straight-curve $-1 73.617969298379464 0 -8.9950905415858848 0 -1 0 I I #
coedge $-1 $221 $223 $148 $233 reversed $141 $-1 #
edge $-1 $236 -39.216335157420986 $239 39.216335157420986 $232 $332 forward 7 unknown #
coedge $-1 $227 $149 $154 $242 forward $219 $-1 #
coedge $-1 $149 $227 $221 $323 reversed $219 $-1 #
vertex $-1 $150 $333 #
straight-curve $-1 0 39.216335157420986 8.9950905415858848 -1 0 0 I I #
coedge $-1 $151 $222 $153 $241 reversed $88 $-1 #
vertex $-1 $233 $334 #
straight-curve $-1 0 -39.216335157420986 8.9950905415858848 1 0 0 I I #
edge $-1 $156 -8.9950905415858848 $230 8.9950905415858848 $153 $335 forward 7 unknown #
edge $-1 $157 -8.9950905415858848 $229 8.9950905415858848 $154 $336 forward 7 unknown #
point $-1 73.617969298379464 -39.216335157420986 8.9950905415858848 #
point $-1 73.617969298379464 39.216335157420986 8.9950905415858848 #
face $-1 $-1 $262 $22 $-1 $337 forward single #
loop $-1 $-1 $338 $159 #
plane-surface $-1 -55.627788215207694 -42.262713482006959 0 -1 0 0 0 0 1 forward_v I I I I #
coedge $-1 $339 $162 $252 $340 reversed $96 $-1 #
coedge $-1 $162 $339 $341 $342 reversed $96 $-1 #
coedge $-1 $170 $169 $162 $251 reversed $160 $-1 #
edge $-1 $343 -8.9950905415858848 $344 8.9950905415858848 $250 $345 forward 7 unknown #
coedge $-1 $164 $163 $248 $340 forward $61 $-1 #
coedge $-1 $258 $338 $163 $254 reversed $246 $-1 #
edge $-1 $256 -3.046378324585973 $346 3.046378324585973 $253 $347 forward 7 unknown #
edge $-1 $344 -3.046378324585973 $171 3.046378324585973 $169 $348 forward 7 unknown #
vertex $-1 $254 $349 #
straight-curve $-1 0 -39.216335157420986 -8.9950905415858848 1 0 0 I I #
coedge $-1 $350 $253 $166 $259 reversed $246 $-1 #
edge $-1 $263 -8.9950905415858848 $256 8.9950905415858848 $258 $351 forward 7 unknown #
coedge $-1 $341 $167 $170 $265 forward $262 $-1 #
coedge $-1 $167 $341 $350 $352 forward $262 $-1 #
loop $-1 $-1 $167 $245 #
vertex $-1 $168 $353 #
straight-curve $-1 0 -39.216335157420986 8.9950905415858848 -1 0 0 I I #
edge $-1 $172 -3.046378324585973 $343 3.046378324585973 $170 $354 forward 7 unknown #
point $-1 -59.094221099048802 -39.216335157420986 -8.9950905415858848 #
point $-1 -59.094221099048802 -39.216335157420986 8.9950905415858848 #
face $-1 $-1 $284 $23 $-1 $355 forward single #
plane-surface $-1 -55.627788215207694 42.262713482006959 0 -1 0 0 0 0 1 forward_v I I I I #
coedge $-1 $356 $357 $287 $358 forward $175 $-1 #
coedge $-1 $280 $177 $178 $276 reversed $104 $-1 #
coedge $-1 $177 $280 $283 $359 reversed $104 $-1 #
coedge $-1 $357 $356 $177 $274 reversed $175 $-1 #
edge $-1 $360 -8.9950905415858848 $361 8.9950905415858848 $273 $362 forward 7 unknown #
coedge $-1 $179 $178 $356 $363 forward $65 $-1 #
edge $-1 $278 -3.046378324585973 $361 3.046378324585973 $271 $364 forward 7 unknown #
edge $-1 $365 -3.046378324585973 $187 3.046378324585973 $184 $366 forward 7 unknown #
vertex $-1 $276 $367 #
straight-curve $-1 0 39.216335157420986 -8.9950905415858848 -1 0 0 I I #
coedge $-1 $272 $271 $181 $281 reversed $104 $-1 #
edge $-1 $285 -8.9950905415858848 $278 8.9950905415858848 $280 $368 forward 7 unknown #
coedge $-1 $369 $182 $185 $288 forward $284 $-1 #
coedge $-1 $182 $369 $272 $359 forward $284 $-1 #
loop $-1 $-1 $182 $268 #
vertex $-1 $183 $370 #
straight-curve $-1 0 39.216335157420986 8.9950905415858848 1 0 0 I I #
coedge $-1 $185 $184 $270 $358 reversed $186 $-1 #
edge $-1 $188 -3.046378324585973 $371 3.046378324585973 $185 $372 forward 7 unknown #
point $-1 -55.627788215207694 39.216335157420986 -8.9950905415858848 #
point $-1 -55.627788215207694 39.216335157420986 8.9950905415858848 #
plane-surface $-1 0 0 8.9950905415858848 0 0 1 1 0 0 forward_v I I I I #
coedge $-1 $302 $301 $294 $373 forward $191 $-1 #
coedge $-1 $294 $193 $195 $298 reversed $112 $-1 #
coedge $-1 $193 $293 $292 $373 reversed $112 $-1 #
coedge $-1 $201 $196 $193 $296 forward $202 $-1 #
edge $-1 $299 -9.6780745816334957 $374 -1.1070730414084409 $295 $375 forward 7 unknown #
coedge $-1 $195 $194 $302 $376 reversed $69 $-1 #
edge $-1 $377 1.6526814159067847e-014 $299 9.9992166924328423 $293 $378 forward 7 unknown #
vertex $-1 $197 $379 #
straight-curve $-1 -65.046967758154409 9.867735967606766 8.9950905415858848 0 1 0 I I #
coedge $-1 $292 $198 $201 $306 reversed $191 $-1 #
coedge $-1 $198 $292 $297 $376 forward $191 $-1 #
vertex $-1 $199 $380 #
straight-curve $-1 -73.617969298379464 14.154896503993442 65.025472302204776 0 0 1 I I #
straight-curve $-1 -73.617969298379478 14.154896503993442 3.8451131571999042 -0.85716729658548041 0 -0.51503808176128008 I I #
edge $-1 $374 -25.316047366433622 $203 -14.154896503993442 $301 $381 forward 7 unknown #
point $-1 -73.617969298379464 14.154896503993442 8.9950905415858848 #
point $-1 -65.046967758154409 14.154896503993442 8.9950905415858848 #
edge $-1 $382 1 $382 0 $206 $-1 forward 7 unknown #
vertex $-1 $207 $383 #
ellipse-curve $-1 -67.35959933571749 16.387126676481479 3.136696190317398 -0.51503808176128008 0 0.85716729658548041 0.85716729658548041 0 0.51503808176128008 1 I I #
point $-1 -68.475301231681442 16.387126676481479 6.9351399311541684 #
edge $-1 $384 1 $384 0 $210 $-1 forward 7 unknown #
vertex $-1 $211 $385 #
ellipse-curve $-1 -67.35959933571749 19.735471935213539 3.136696190317398 -0.51503808176128008 0 0.85716729658548041 0.85716729658548041 0 0.51503808176128008 1 I I #
point $-1 -68.475301231681442 19.735471935213539 6.9351399311541684 #
edge $-1 $386 1 $386 0 $214 $-1 forward 7 unknown #
vertex $-1 $215 $387 #
ellipse-curve $-1 -67.35959933571749 23.083817193945592 3.136696190317398 -0.51503808176128008 0 0.85716729658548041 0.85716729658548041 0 0.51503808176128008 1 I I #
point $-1 -68.475301231681442 23.083817193945592 6.9351399311541684 #
plane-surface $-1 73.617969298379464 0 0 -1 0 0 0 0 1 forward_v I I I I #
coedge $-1 $223 $221 $225 $326 reversed $141 $-1 #
edge $-1 $236 -8.9950905415858848 $328 8.9950905415858848 $235 $388 forward 7 unknown #
vertex $-1 $326 $389 #
straight-curve $-1 -73.617969298379464 -39.216335157420986 0 0 0 -1 I I #
edge $-1 $324 -39.216335157420986 $328 39.216335157420986 $322 $390 forward 7 unknown #
straight-curve $-1 0 -39.216335157420986 -8.9950905415858848 -1 0 0 I I #
vertex $-1 $228 $391 #
straight-curve $-1 0 39.216335157420986 -8.9950905415858848 1 0 0 I I #
point $-1 73.617969298379464 39.216335157420986 -8.9950905415858848 #
point $-1 73.617969298379464 -39.216335157420986 -8.9950905415858848 #
straight-curve $-1 -73.617969298379464 0 8.9950905415858848 0 -1 0 I I #
point $-1 -73.617969298379464 39.216335157420986 8.9950905415858848 #
point $-1 -73.617969298379464 -39.216335157420986 8.9950905415858848 #
straight-curve $-1 73.617969298379464 -39.216335157420986 0 0 0 -1 I I #
straight-curve $-1 73.617969298379464 39.216335157420986 0 0 0 -1 I I #
plane-surface $-1 0 0 8.9950905415858848 0 0 1 1 0 0 forward_v I I I I #
coedge $-1 $253 $350 $339 $392 forward $246 $-1 #
coedge $-1 $249 $248 $338 $392 reversed $96 $-1 #
edge $-1 $346 -1.733216441920554 $344 1.733216441920554 $248 $393 forward 7 unknown #
coedge $-1 $261 $260 $249 $342 forward $262 $-1 #
edge $-1 $343 -1.733216441920554 $394 1.733216441920554 $249 $395 forward 7 unknown #
vertex $-1 $265 $396 #
vertex $-1 $255 $397 #
straight-curve $-1 -59.094221099048802 -45.309091806592932 0 0 0 -1 I I #
vertex $-1 $392 $398 #
straight-curve $-1 -55.627788215207694 -42.262713482006959 -8.9950905415858848 0 -1 0 I I #
straight-curve $-1 -59.094221099048802 -42.262713482006959 -8.9950905415858848 0 1 0 I I #
point $-1 -55.627788215207694 -39.216335157420986 -8.9950905415858848 #
coedge $-1 $338 $258 $261 $352 reversed $246 $-1 #
straight-curve $-1 -55.627788215207694 -39.216335157420986 0 0 0 -1 I I #
edge $-1 $394 -3.046378324585973 $263 3.046378324585973 $350 $399 forward 7 unknown #
point $-1 -55.627788215207694 -39.216335157420986 8.9950905415858848 #
straight-curve $-1 -59.094221099048802 -42.262713482006959 8.9950905415858848 0 -1 0 I I #
plane-surface $-1 0 0 8.9950905415858848 0 0 1 1 0 0 forward_v I I I I #
coedge $-1 $273 $270 $275 $363 reversed $175 $-1 #
coedge $-1 $270 $273 $369 $400 reversed $175 $-1 #
edge $-1 $371 -8.9950905415858848 $365 8.9950905415858848 $287 $401 forward 7 unknown #
edge $-1 $360 -3.046378324585973 $285 3.046378324585973 $272 $402 forward 7 unknown #
vertex $-1 $400 $403 #
vertex $-1 $363 $404 #
straight-curve $-1 -59.094221099048802 45.309091806592932 0 0 0 -1 I I #
edge $-1 $361 -1.733216441920554 $365 1.733216441920554 $356 $405 forward 7 unknown #
straight-curve $-1 -59.094221099048802 42.262713482006959 -8.9950905415858848 0 1 0 I I #
vertex $-1 $277 $406 #
straight-curve $-1 -55.627788215207694 42.262713482006959 -8.9950905415858848 0 -1 0 I I #
point $-1 -59.094221099048802 39.216335157420986 -8.9950905415858848 #
straight-curve $-1 -59.094221099048802 39.216335157420986 0 0 0 -1 I I #
coedge $-1 $283 $282 $357 $400 forward $284 $-1 #
point $-1 -59.094221099048802 39.216335157420986 8.9950905415858848 #
vertex $-1 $288 $407 #
straight-curve $-1 -55.627788215207694 42.262713482006959 8.9950905415858848 0 1 0 I I #
edge $-1 $374 56.030381760618894 $377 61.180359145004864 $292 $408 forward 7 unknown #
vertex $-1 $306 $409 #
straight-curve $-1 -74.725042339787905 25.316047366433622 8.9950905415858813 -1 0 0 I I #
edge $-1 $377 -15.448311398826856 $303 -4.2871605363866756 $302 $410 forward 7 unknown #
vertex $-1 $376 $411 #
straight-curve $-1 -73.617969298379478 25.316047366433622 3.8451131571999042 0.85716729658548041 0 0.51503808176128008 I I #
point $-1 -65.046967758154409 25.316047366433622 8.9950905415858848 #
point $-1 -73.617969298379464 14.154896503993442 3.8451131571999126 #
straight-curve $-1 -73.617969298379464 0 8.9950905415858848 0 -1 0 I I #
vertex $-1 $309 $412 #
point $-1 -66.502432039132017 16.387126676481479 3.6517342720786781 #
vertex $-1 $313 $413 #
point $-1 -66.502432039132017 19.735471935213539 3.6517342720786781 #
vertex $-1 $317 $414 #
point $-1 -66.502432039132017 23.083817193945592 3.6517342720786781 #
straight-curve $-1 -73.617969298379464 39.216335157420986 0 0 0 -1 I I #
point $-1 -73.617969298379464 -39.216335157420986 -8.9950905415858848 #
straight-curve $-1 -73.617969298379464 0 -8.9950905415858848 0 1 0 I I #
point $-1 -73.617969298379464 39.216335157420986 -8.9950905415858848 #
edge $-1 $394 -8.9950905415858848 $346 8.9950905415858848 $338 $415 forward 7 unknown #
straight-curve $-1 -57.361004657128248 -45.309091806592932 -8.9950905415858848 -1 0 0 I I #
vertex $-1 $352 $416 #
straight-curve $-1 -57.361004657128248 -45.309091806592932 8.9950905415858848 1 0 0 I I #
point $-1 -59.094221099048802 -45.309091806592932 8.9950905415858848 #
point $-1 -59.094221099048802 -45.309091806592932 -8.9950905415858848 #
point $-1 -55.627788215207694 -45.309091806592932 -8.9950905415858848 #
straight-curve $-1 -55.627788215207694 -42.262713482006959 8.9950905415858848 0 1 0 I I #
edge $-1 $371 -1.733216441920554 $360 1.733216441920554 $357 $417 forward 7 unknown #
straight-curve $-1 -55.627788215207694 45.309091806592932 0 0 0 -1 I I #
straight-curve $-1 -59.094221099048802 42.262713482006959 8.9950905415858848 0 -1 0 I I #
point $-1 -59.094221099048802 45.309091806592932 8.9950905415858848 #
point $-1 -59.094221099048802 45.309091806592932 -8.9950905415858848 #
straight-curve $-1 -57.361004657128248 45.309091806592932 -8.9950905415858848 1 0 0 I I #
point $-1 -55.627788215207694 45.309091806592932 -8.9950905415858848 #
point $-1 -55.627788215207694 45.309091806592932 8.9950905415858848 #
straight-curve $-1 -73.617969298379464 25.316047366433622 65.025472302204776 0 0 -1 I I #
point $-1 -73.617969298379464 25.316047366433622 8.9950905415858848 #
straight-curve $-1 -73.617969298379464 9.867735967606766 3.8451131571999162 0 -1 0 I I #
point $-1 -73.617969298379464 25.316047366433622 3.8451131571999126 #
point $-1 -66.844561253956215 16.387126676481479 2.2795288937319178 #
point $-1 -66.844561253956215 19.735471935213539 2.2795288937319178 #
point $-1 -66.844561253956215 23.083817193945592 2.2795288937319178 #
straight-curve $-1 -55.627788215207694 -45.309091806592932 0 0 0 -1 I I #
point $-1 -55.627788215207694 -45.309091806592932 8.9950905415858848 #
straight-curve $-1 -57.361004657128248 45.309091806592932 8.9950905415858848 -1 0 0 I I #
End-of-ACIS-data 