500 0 5 0           
7 Unknown 11 ACIS 5.0 NT 24 Thu Mar 25 23:49:59 1999 
-1 9.9999999999999995e-007 1e-010 
body $-1 $5 $-1 $6 #
body $-1 $7 $-1 $8 #
body $-1 $9 $-1 $10 #
body $-1 $11 $-1 $12 #
body $-1 $13 $-1 $14 #
lump $-1 $-1 $15 $0 #
transform $-1 1 0 0 0 1 0 0 0 1 74.424878688924835 47.245840605501158 19.086212246439384 1 rotate no_reflect no_shear #
lump $-1 $-1 $16 $1 #
transform $-1 1 0 0 0 1 0 0 0 1 74.424878688924835 47.245840605501158 19.086212246439384 1 rotate no_reflect no_shear #
lump $-1 $-1 $17 $2 #
transform $-1 1 0 0 0 1 0 0 0 1 74.424878688924835 47.245840605501158 19.086212246439384 1 rotate no_reflect no_shear #
lump $-1 $-1 $18 $3 #
transform $-1 1 0 0 0 1 0 0 0 1 74.424878688924835 47.245840605501158 19.086212246439384 1 rotate no_reflect no_shear #
lump $-1 $-1 $19 $4 #
transform $-1 1 0 0 0 1 0 0 0 1 74.424878688924835 47.245840605501158 19.086212246439384 1 rotate no_reflect no_shear #
shell $-1 $-1 $-1 $20 $-1 $5 #
shell $-1 $-1 $-1 $21 $-1 $7 #
shell $-1 $-1 $-1 $22 $-1 $9 #
shell $-1 $-1 $-1 $23 $-1 $11 #
shell $-1 $-1 $-1 $24 $-1 $13 #
face $-1 $25 $26 $15 $-1 $27 forward single #
face $-1 $28 $29 $16 $-1 $30 reversed single #
face $-1 $31 $32 $17 $-1 $33 reversed single #
face $-1 $34 $35 $18 $-1 $36 forward single #
face $-1 $37 $38 $19 $-1 $39 forward single #
face $-1 $40 $41 $15 $-1 $42 reversed single #
loop $-1 $-1 $43 $20 #
plane-surface $-1 0 0 19.086212246439384 0 0 1 1 0 0 forward_v I I I I #
face $-1 $44 $45 $16 $-1 $46 reversed single #
loop $-1 $-1 $47 $21 #
plane-surface $-1 -70.301658051427637 -32.164698195690164 0 0 -1 0 0 0 -1 forward_v I I I I #
face $-1 $48 $49 $17 $-1 $50 reversed single #
loop $-1 $-1 $51 $22 #
plane-surface $-1 -197.82692142268252 -14.831161507321973 83.383004393529859 0 -1 0 0.82903758062907751 0 -0.55919289150049634 forward_v I I I I #
face $-1 $52 $53 $18 $-1 $54 forward single #
loop $-1 $55 $56 $23 #
cone-surface $-1 -66.297162229566069 -27.212259141870685 8.442776329151128 0.82903758062907751 0 -0.55919289150049634 1.1183857830009927 0 1.658075161258155 1 I I 0 1 2 forward I I I I #
face $-1 $57 $58 $19 $-1 $59 forward single #
loop $-1 $60 $61 $24 #
cone-surface $-1 -66.297162229566069 -19.783600561141458 8.442776329151128 0.82903758062907751 0 -0.55919289150049634 1.1183857830009927 0 1.658075161258155 1 I I 0 1 2 forward I I I I #
face $-1 $62 $63 $15 $-1 $64 reversed single #
loop $-1 $-1 $65 $25 #
plane-surface $-1 0 0 -19.086212246439384 0 0 1 1 0 0 forward_v I I I I #
coedge $-1 $66 $67 $68 $69 forward $26 $-1 #
face $-1 $70 $71 $16 $-1 $72 forward single #
loop $-1 $-1 $73 $28 #
plane-surface $-1 -66.178437413930439 -39.705269400595661 0 -1 0 0 0 0 1 forward_v I I I I #
coedge $-1 $74 $75 $76 $77 forward $29 $-1 #
face $-1 $78 $79 $17 $-1 $80 forward single #
loop $-1 $-1 $81 $31 #
plane-surface $-1 -74.424878688924849 -23.497929851506072 0.14727816626276535 -0.82903758062907751 0 0.55919289150049634 0.55919289150049634 0 0.82903758062907751 forward_v I I I I #
coedge $-1 $82 $83 $84 $85 reversed $32 $-1 #
face $-1 $-1 $86 $18 $-1 $87 forward single #
loop $-1 $88 $89 $34 #
cone-surface $-1 -63.727644159143757 -27.212259141870685 6.7096145604506852 0.82903758062907751 0 -0.55919289150049634 0.55919289150049634 0 0.82903758062907751 1 I I -0.70710678118654746 0.70710678118654746 1 forward I I I I #
loop $-1 $-1 $90 $23 #
coedge $-1 $56 $56 $91 $92 reversed $35 $-1 #
face $-1 $-1 $93 $19 $-1 $94 forward single #
loop $-1 $95 $96 $37 #
cone-surface $-1 -63.727644159143757 -19.783600561141458 6.7096145604506852 0.82903758062907751 0 -0.55919289150049634 0.55919289150049634 0 0.82903758062907751 1 I I -0.70710678118654746 0.70710678118654746 1 forward I I I I #
loop $-1 $-1 $97 $24 #
coedge $-1 $61 $61 $98 $99 reversed $38 $-1 #
face $-1 $100 $101 $15 $-1 $102 reversed single #
loop $-1 $-1 $103 $40 #
plane-surface $-1 0 -47.245840605501158 0 0 1 0 0 0 1 forward_v I I I I #
coedge $-1 $104 $105 $106 $107 forward $41 $-1 #
coedge $-1 $108 $43 $109 $110 forward $26 $-1 #
coedge $-1 $43 $108 $111 $112 forward $26 $-1 #
coedge $-1 $113 $114 $43 $69 reversed $115 $-1 #
edge $-1 $116 -47.245840605501158 $117 47.245840605501158 $68 $118 forward 7 unknown #
face $-1 $119 $120 $16 $-1 $121 reversed single #
loop $-1 $-1 $122 $44 #
plane-surface $-1 0 0 19.086212246439384 0 0 1 1 0 0 forward_v I I I I #
coedge $-1 $123 $124 $125 $126 reversed $45 $-1 #
coedge $-1 $127 $47 $128 $129 reversed $29 $-1 #
coedge $-1 $47 $127 $130 $131 reversed $29 $-1 #
coedge $-1 $124 $123 $47 $77 reversed $45 $-1 #
edge $-1 $132 -19.086212246439384 $133 19.086212246439384 $76 $134 forward 7 unknown #
face $-1 $135 $136 $17 $-1 $137 forward single #
loop $-1 $-1 $138 $48 #
plane-surface $-1 0 0 19.086212246439384 0 0 1 1 0 0 forward_v I I I I #
coedge $-1 $139 $140 $141 $142 reversed $49 $-1 #
coedge $-1 $83 $51 $143 $144 reversed $32 $-1 #
coedge $-1 $51 $82 $139 $145 reversed $32 $-1 #
coedge $-1 $141 $146 $51 $85 forward $147 $-1 #
edge $-1 $148 22.605289950325545 $149 41.544224030502143 $84 $150 forward 7 unknown #
loop $-1 $-1 $91 $52 #
plane-surface $-1 -74.424878688924849 -23.497929851506072 0.14727816626276535 -0.82903758062907751 0 0.55919289150049634 0.55919289150049634 0 0.82903758062907751 forward_v I I I I #
loop $-1 $-1 $151 $34 #
coedge $-1 $89 $89 $90 $152 reversed $53 $-1 #
coedge $-1 $90 $90 $89 $152 forward $55 $-1 #
coedge $-1 $91 $91 $56 $92 forward $86 $-1 #
edge $-1 $153 0 $153 6.2831853071796004 $91 $154 forward 7 unknown #
loop $-1 $-1 $98 $57 #
plane-surface $-1 -74.424878688924849 -23.497929851506072 0.14727816626276535 -0.82903758062907751 0 0.55919289150049634 0.55919289150049634 0 0.82903758062907751 forward_v I I I I #
loop $-1 $-1 $155 $37 #
coedge $-1 $96 $96 $97 $156 reversed $58 $-1 #
coedge $-1 $97 $97 $96 $156 forward $60 $-1 #
coedge $-1 $98 $98 $61 $99 forward $93 $-1 #
edge $-1 $157 0 $157 6.2831853071796004 $98 $158 forward 7 unknown #
face $-1 $159 $160 $15 $-1 $161 reversed single #
loop $-1 $-1 $162 $62 #
plane-surface $-1 -74.424878688924835 0 0 1 0 0 0 0 -1 forward_v I I I I #
coedge $-1 $163 $111 $164 $165 forward $63 $-1 #
coedge $-1 $166 $65 $163 $167 forward $41 $-1 #
coedge $-1 $65 $166 $168 $169 forward $41 $-1 #
coedge $-1 $114 $113 $65 $107 reversed $115 $-1 #
edge $-1 $170 -47.245840605501158 $171 47.245840605501158 $106 $172 forward 7 unknown #
coedge $-1 $67 $66 $173 $174 forward $26 $-1 #
coedge $-1 $175 $176 $66 $110 reversed $160 $-1 #
edge $-1 $117 -74.424878688924835 $177 74.424878688924835 $109 $178 forward 7 unknown #
coedge $-1 $103 $179 $67 $112 reversed $63 $-1 #
edge $-1 $180 -74.424878688924835 $116 74.424878688924835 $111 $181 forward 7 unknown #
coedge $-1 $106 $68 $179 $182 forward $115 $-1 #
coedge $-1 $68 $106 $175 $183 reversed $115 $-1 #
loop $-1 $-1 $113 $159 #
vertex $-1 $69 $184 #
vertex $-1 $69 $185 #
straight-curve $-1 74.424878688924835 0 19.086212246439384 0 1 0 I I #
face $-1 $186 $187 $16 $-1 $188 reversed single #
loop $-1 $-1 $189 $70 #
plane-surface $-1 -74.424878688924835 0 0 1 0 0 0 0 -1 forward_v I I I I #
coedge $-1 $130 $190 $124 $191 forward $71 $-1 #
coedge $-1 $76 $73 $192 $193 reversed $45 $-1 #
coedge $-1 $73 $76 $122 $191 reversed $45 $-1 #
coedge $-1 $194 $195 $73 $126 forward $196 $-1 #
edge $-1 $197 -19.086212246439384 $198 19.086212246439384 $125 $199 forward 7 unknown #
coedge $-1 $75 $74 $189 $200 reversed $29 $-1 #
coedge $-1 $192 $201 $74 $129 forward $187 $-1 #
edge $-1 $202 -39.274049663211017 $133 -31.02760838821662 $128 $203 forward 7 unknown #
coedge $-1 $204 $122 $75 $131 forward $71 $-1 #
edge $-1 $132 31.02760838821662 $205 39.274049663211017 $130 $206 forward 7 unknown #
vertex $-1 $131 $207 #
vertex $-1 $129 $208 #
straight-curve $-1 -66.178437413930439 -32.164698195690164 0 0 0 -1 I I #
face $-1 $-1 $147 $17 $-1 $209 reversed single #
loop $-1 $-1 $210 $78 #
plane-surface $-1 -70.301658051427637 -32.164698195690164 0 0 -1 0 0 0 -1 forward_v I I I I #
coedge $-1 $211 $212 $213 $214 forward $79 $-1 #
coedge $-1 $215 $81 $83 $145 forward $49 $-1 #
coedge $-1 $81 $215 $210 $216 reversed $49 $-1 #
coedge $-1 $217 $84 $81 $142 forward $147 $-1 #
edge $-1 $149 3.0821965815689367 $218 20.415733269937128 $141 $219 forward 7 unknown #
coedge $-1 $212 $211 $82 $144 forward $79 $-1 #
edge $-1 $220 -37.26305396154747 $148 -24.488582022416423 $143 $221 forward 7 unknown #
edge $-1 $149 2.5411514119214718e-014 $220 22.844481990557856 $83 $222 forward 7 unknown #
coedge $-1 $84 $217 $212 $223 reversed $147 $-1 #
loop $-1 $-1 $141 $135 #
vertex $-1 $223 $224 #
vertex $-1 $85 $225 #
straight-curve $-1 -74.424878688924835 -14.831161507321973 41.69150219676493 0 0 -1 I I #
coedge $-1 $151 $151 $-1 $226 reversed $88 $-1 #
edge $-1 $227 0 $227 6.2831853071796004 $89 $228 forward 7 unknown #
vertex $-1 $92 $229 #
ellipse-curve $-1 -68.037642719359312 -27.212259141870685 9.6167452063510819 -0.82903758062907751 0 0.55919289150049634 1.1183857830009927 0 1.658075161258155 1 I I #
coedge $-1 $155 $155 $-1 $230 reversed $95 $-1 #
edge $-1 $231 0 $231 6.2831853071796004 $96 $232 forward 7 unknown #
vertex $-1 $99 $233 #
ellipse-curve $-1 -68.037642719359312 -19.783600561141458 9.6167452063510819 -0.82903758062907751 0 0.55919289150049634 1.1183857830009927 0 1.658075161258155 1 I I #
face $-1 $-1 $115 $15 $-1 $234 reversed single #
loop $-1 $-1 $175 $100 #
plane-surface $-1 0 47.245840605501158 0 0 -1 0 0 0 -1 forward_v I I I I #
coedge $-1 $235 $173 $176 $236 forward $101 $-1 #
coedge $-1 $179 $103 $104 $167 reversed $63 $-1 #
coedge $-1 $173 $235 $103 $165 reversed $101 $-1 #
edge $-1 $180 -19.086212246439384 $237 19.086212246439384 $164 $238 forward 7 unknown #
coedge $-1 $105 $104 $235 $239 forward $41 $-1 #
edge $-1 $171 -74.424878688924835 $237 74.424878688924835 $163 $240 forward 7 unknown #
coedge $-1 $176 $175 $105 $169 reversed $160 $-1 #
edge $-1 $241 -74.424878688924835 $170 74.424878688924835 $168 $242 forward 7 unknown #
vertex $-1 $107 $243 #
vertex $-1 $182 $244 #
straight-curve $-1 74.424878688924835 0 -19.086212246439384 0 -1 0 I I #
coedge $-1 $162 $164 $108 $174 reversed $101 $-1 #
edge $-1 $177 -47.245840605501158 $180 47.245840605501158 $173 $245 forward 7 unknown #
coedge $-1 $168 $109 $114 $183 forward $160 $-1 #
coedge $-1 $109 $168 $162 $236 reversed $160 $-1 #
vertex $-1 $110 $246 #
straight-curve $-1 0 47.245840605501158 19.086212246439384 -1 0 0 I I #
coedge $-1 $111 $163 $113 $182 reversed $63 $-1 #
vertex $-1 $174 $247 #
straight-curve $-1 0 -47.245840605501158 19.086212246439384 1 0 0 I I #
edge $-1 $116 -19.086212246439384 $171 19.086212246439384 $113 $248 forward 7 unknown #
edge $-1 $117 -19.086212246439384 $170 19.086212246439384 $114 $249 forward 7 unknown #
point $-1 74.424878688924835 -47.245840605501158 19.086212246439384 #
point $-1 74.424878688924835 47.245840605501158 19.086212246439384 #
face $-1 $-1 $196 $16 $-1 $250 reversed single #
loop $-1 $-1 $192 $119 #
plane-surface $-1 0 0 -19.086212246439384 0 0 1 1 0 0 forward_v I I I I #
coedge $-1 $251 $252 $127 $200 forward $120 $-1 #
coedge $-1 $122 $204 $194 $253 forward $71 $-1 #
edge $-1 $198 -27.393205905203327 $132 -12.312063495392334 $122 $254 forward 7 unknown #
coedge $-1 $255 $128 $123 $193 forward $187 $-1 #
edge $-1 $133 12.312063495392334 $197 27.393205905203327 $192 $256 forward 7 unknown #
coedge $-1 $257 $125 $190 $253 reversed $196 $-1 #
coedge $-1 $125 $257 $255 $258 reversed $196 $-1 #
loop $-1 $-1 $125 $186 #
vertex $-1 $258 $259 #
vertex $-1 $126 $260 #
straight-curve $-1 -66.178437413930439 -47.245840605501158 0 0 0 1 I I #
edge $-1 $205 -19.086212246439384 $202 19.086212246439384 $189 $261 forward 7 unknown #
coedge $-1 $128 $255 $251 $262 forward $187 $-1 #
vertex $-1 $129 $263 #
straight-curve $-1 -35.150829025713819 -32.164698195690164 -19.086212246439384 1 0 0 I I #
coedge $-1 $190 $130 $252 $264 forward $71 $-1 #
vertex $-1 $264 $265 #
straight-curve $-1 -35.150829025713819 -32.164698195690164 19.086212246439384 -1 0 0 I I #
point $-1 -66.178437413930439 -32.164698195690164 19.086212246439384 #
point $-1 -66.178437413930439 -32.164698195690164 -19.086212246439384 #
plane-surface $-1 -74.424878688924835 0 0 1 0 0 0 0 -1 forward_v I I I I #
coedge $-1 $213 $266 $140 $216 forward $136 $-1 #
coedge $-1 $143 $138 $215 $267 forward $79 $-1 #
coedge $-1 $138 $143 $146 $223 forward $79 $-1 #
coedge $-1 $266 $210 $138 $214 reversed $136 $-1 #
edge $-1 $268 -39.274049663211017 $269 -26.49957772407997 $138 $270 forward 7 unknown #
coedge $-1 $140 $139 $211 $267 reversed $49 $-1 #
edge $-1 $218 -1.091788267969283 $269 21.75269372258855 $210 $271 forward 7 unknown #
coedge $-1 $146 $141 $266 $272 forward $147 $-1 #
vertex $-1 $272 $273 #
straight-curve $-1 -74.424878688924835 -11.748964925753036 0.14727816626279883 0 -1 0 I I #
vertex $-1 $144 $274 #
straight-curve $-1 -98.913460711341259 -14.831161507321973 19.086212246439381 -1 0 0 I I #
straight-curve $-1 -74.424878688924849 -14.831161507321973 0.14727816626276535 0.55919289150049634 0 0.82903758062907751 I I #
edge $-1 $148 14.831161507321973 $268 32.164698195690164 $146 $275 forward 7 unknown #
point $-1 -74.424878688924835 -14.831161507321973 19.086212246439384 #
point $-1 -74.424878688924835 -14.831161507321973 0.14727816626278642 #
edge $-1 $276 1 $276 0 $151 $-1 forward 7 unknown #
vertex $-1 $152 $277 #
ellipse-curve $-1 -64.556681739772841 -27.212259141870685 7.2688074519511812 -0.82903758062907751 0 0.55919289150049634 1.1183857830009927 0 1.658075161258155 1 I I #
point $-1 -66.919256936358309 -27.212259141870685 11.274820367609228 #
edge $-1 $278 1 $278 0 $155 $-1 forward 7 unknown #
vertex $-1 $156 $279 #
ellipse-curve $-1 -64.556681739772841 -19.783600561141458 7.2688074519511812 -0.82903758062907751 0 0.55919289150049634 1.1183857830009927 0 1.658075161258155 1 I I #
point $-1 -66.919256936358309 -19.783600561141458 11.274820367609228 #
plane-surface $-1 74.424878688924835 0 0 -1 0 0 0 0 1 forward_v I I I I #
coedge $-1 $164 $162 $166 $239 reversed $101 $-1 #
edge $-1 $177 -19.086212246439384 $241 19.086212246439384 $176 $280 forward 7 unknown #
vertex $-1 $239 $281 #
straight-curve $-1 -74.424878688924835 -47.245840605501158 0 0 0 -1 I I #
edge $-1 $237 -47.245840605501158 $241 47.245840605501158 $235 $282 forward 7 unknown #
straight-curve $-1 0 -47.245840605501158 -19.086212246439384 -1 0 0 I I #
vertex $-1 $169 $283 #
straight-curve $-1 0 47.245840605501158 -19.086212246439384 1 0 0 I I #
point $-1 74.424878688924835 47.245840605501158 -19.086212246439384 #
point $-1 74.424878688924835 -47.245840605501158 -19.086212246439384 #
straight-curve $-1 -74.424878688924835 0 19.086212246439384 0 -1 0 I I #
point $-1 -74.424878688924835 47.245840605501158 19.086212246439384 #
point $-1 -74.424878688924835 -47.245840605501158 19.086212246439384 #
straight-curve $-1 74.424878688924835 -47.245840605501158 0 0 0 -1 I I #
straight-curve $-1 74.424878688924835 47.245840605501158 0 0 0 -1 I I #
plane-surface $-1 0 -47.245840605501158 0 0 1 0 0 0 1 forward_v I I I I #
coedge $-1 $284 $189 $201 $262 reversed $120 $-1 #
coedge $-1 $189 $284 $204 $264 reversed $120 $-1 #
edge $-1 $285 -74.424878688924835 $198 -66.178437413930439 $194 $286 forward 7 unknown #
straight-curve $-1 -66.178437413930439 -19.852634700297831 19.086212246439384 0 1 0 I I #
coedge $-1 $201 $192 $195 $258 forward $187 $-1 #
straight-curve $-1 -66.178437413930439 -19.852634700297831 -19.086212246439384 0 -1 0 I I #
coedge $-1 $195 $194 $284 $287 forward $196 $-1 #
edge $-1 $197 66.178437413930439 $288 74.424878688924835 $195 $289 forward 7 unknown #
point $-1 -66.178437413930439 -47.245840605501158 -19.086212246439384 #
point $-1 -66.178437413930439 -47.245840605501158 19.086212246439384 #
straight-curve $-1 -74.424878688924835 -32.164698195690164 0 0 0 -1 I I #
edge $-1 $288 -47.245840605501158 $202 -32.164698195690164 $251 $290 forward 7 unknown #
point $-1 -74.424878688924835 -32.164698195690164 -19.086212246439384 #
edge $-1 $205 32.164698195690164 $285 47.245840605501158 $252 $291 forward 7 unknown #
point $-1 -74.424878688924835 -32.164698195690164 19.086212246439384 #
coedge $-1 $210 $213 $217 $272 reversed $136 $-1 #
edge $-1 $269 -20.415733269937135 $220 -3.0821965815689367 $211 $292 forward 7 unknown #
vertex $-1 $272 $293 #
vertex $-1 $214 $294 #
straight-curve $-1 -35.150829025713819 -32.164698195690164 19.086212246439384 1 0 0 I I #
straight-curve $-1 -73.814358450452772 -32.164698195690164 1.0524116704992514 0.55919289150049634 0 0.82903758062907751 I I #
edge $-1 $218 0.14727816626278642 $268 19.086212246439384 $217 $295 forward 7 unknown #
point $-1 -74.424878688924835 -32.164698195690164 0.14727816626278642 #
point $-1 -61.650406749793788 -14.831161507321973 19.086212246439384 #
straight-curve $-1 -74.424878688924835 0 19.086212246439384 0 -1 0 I I #
vertex $-1 $226 $296 #
point $-1 -63.438295956771839 -27.212259141870685 8.9268826132093366 #
vertex $-1 $230 $297 #
point $-1 -63.438295956771839 -19.783600561141458 8.9268826132093366 #
straight-curve $-1 -74.424878688924835 47.245840605501158 0 0 0 -1 I I #
point $-1 -74.424878688924835 -47.245840605501158 -19.086212246439384 #
straight-curve $-1 -74.424878688924835 0 -19.086212246439384 0 1 0 I I #
point $-1 -74.424878688924835 47.245840605501158 -19.086212246439384 #
coedge $-1 $252 $251 $257 $287 reversed $120 $-1 #
vertex $-1 $264 $298 #
straight-curve $-1 0 -47.245840605501158 19.086212246439384 1 0 0 I I #
edge $-1 $285 -19.086212246439384 $288 19.086212246439384 $284 $299 forward 7 unknown #
vertex $-1 $262 $300 #
straight-curve $-1 0 -47.245840605501158 -19.086212246439384 -1 0 0 I I #
straight-curve $-1 -74.424878688924835 0 -19.086212246439384 0 1 0 I I #
straight-curve $-1 -74.424878688924835 0 19.086212246439384 0 -1 0 I I #
straight-curve $-1 -61.650406749793788 -11.748964925753036 19.086212246439384 0 1 0 I I #
point $-1 -74.424878688924835 -32.164698195690164 19.086212246439384 #
point $-1 -61.650406749793788 -32.164698195690171 19.086212246439384 #
straight-curve $-1 -74.424878688924835 -32.164698195690164 0 0 0 1 I I #
point $-1 -62.898606578514681 -27.212259141870685 6.1504216689501892 #
point $-1 -62.898606578514681 -19.783600561141458 6.1504216689501892 #
point $-1 -74.424878688924835 -47.245840605501158 19.086212246439384 #
straight-curve $-1 -74.424878688924835 -47.245840605501158 0 0 0 -1 I I #
point $-1 -74.424878688924835 -47.245840605501158 -19.086212246439384 #
End-of-ACIS-data 