500 0 2 0           
7 Unknown 11 ACIS 5.0 NT 24 Thu Mar 25 22:02:50 1999 
-1 9.9999999999999995e-007 1e-010 
body $-1 $2 $-1 $3 #
body $-1 $4 $-1 $5 #
lump $-1 $-1 $6 $0 #
transform $-1 1 0 0 0 1 0 0 0 1 57.710501419110692 28.069914469350824 11.090301819259093 1 rotate no_reflect no_shear #
lump $-1 $-1 $7 $1 #
transform $-1 1 0 0 0 1 0 0 0 1 20.507023042012847 -3.8082377750090384 11.090301819259093 1 rotate no_reflect no_shear #
shell $-1 $-1 $-1 $8 $-1 $2 #
shell $-1 $-1 $-1 $9 $-1 $4 #
face $-1 $10 $11 $6 $-1 $12 forward single #
face $-1 $13 $14 $7 $-1 $15 forward single #
face $-1 $16 $17 $6 $-1 $18 reversed single #
loop $-1 $-1 $19 $8 #
plane-surface $-1 0 0 11.090301819259093 0 0 1 1 0 0 forward_v I I I I #
face $-1 $20 $21 $7 $-1 $22 reversed single #
loop $-1 $-1 $23 $9 #
plane-surface $-1 0 0 11.090301819259093 0 0 1 1 0 0 forward_v I I I I #
face $-1 $24 $25 $6 $-1 $26 reversed single #
loop $-1 $-1 $27 $10 #
plane-surface $-1 0 0 -11.090301819259093 0 0 1 1 0 0 forward_v I I I I #
coedge $-1 $28 $29 $30 $31 forward $11 $-1 #
face $-1 $32 $33 $7 $-1 $34 reversed single #
loop $-1 $-1 $35 $13 #
plane-surface $-1 0 0 -11.090301819259093 0 0 1 1 0 0 forward_v I I I I #
coedge $-1 $36 $37 $38 $39 forward $14 $-1 #
face $-1 $40 $41 $6 $-1 $42 reversed single #
loop $-1 $-1 $43 $16 #
plane-surface $-1 0 -28.069914469350824 0 0 1 0 0 0 1 forward_v I I I I #
coedge $-1 $44 $45 $46 $47 forward $17 $-1 #
coedge $-1 $48 $19 $49 $50 forward $11 $-1 #
coedge $-1 $19 $48 $51 $52 forward $11 $-1 #
coedge $-1 $53 $54 $19 $31 reversed $55 $-1 #
edge $-1 $56 -28.069914469350824 $57 28.069914469350824 $30 $58 forward 7 unknown #
face $-1 $59 $60 $7 $-1 $61 reversed single #
loop $-1 $-1 $62 $20 #
plane-surface $-1 0 -3.8082377750090384 0 0 1 0 0 0 1 forward_v I I I I #
coedge $-1 $63 $64 $65 $66 forward $21 $-1 #
coedge $-1 $67 $23 $68 $69 forward $14 $-1 #
coedge $-1 $23 $67 $70 $71 forward $14 $-1 #
coedge $-1 $72 $73 $23 $39 reversed $74 $-1 #
edge $-1 $75 -3.8082377750090384 $76 3.8082377750090384 $38 $77 forward 7 unknown #
face $-1 $78 $79 $6 $-1 $80 reversed single #
loop $-1 $-1 $81 $24 #
plane-surface $-1 -57.710501419110692 0 0 1 0 0 0 0 -1 forward_v I I I I #
coedge $-1 $82 $51 $83 $84 forward $25 $-1 #
coedge $-1 $85 $27 $82 $86 forward $17 $-1 #
coedge $-1 $27 $85 $87 $88 forward $17 $-1 #
coedge $-1 $54 $53 $27 $47 reversed $55 $-1 #
edge $-1 $89 -28.069914469350824 $90 28.069914469350824 $46 $91 forward 7 unknown #
coedge $-1 $29 $28 $92 $93 forward $11 $-1 #
coedge $-1 $94 $95 $28 $50 reversed $79 $-1 #
edge $-1 $57 -57.710501419110692 $96 57.710501419110692 $49 $97 forward 7 unknown #
coedge $-1 $43 $98 $29 $52 reversed $25 $-1 #
edge $-1 $99 -57.710501419110692 $56 57.710501419110692 $51 $100 forward 7 unknown #
coedge $-1 $46 $30 $98 $101 forward $55 $-1 #
coedge $-1 $30 $46 $94 $102 reversed $55 $-1 #
loop $-1 $-1 $53 $78 #
vertex $-1 $31 $103 #
vertex $-1 $31 $104 #
straight-curve $-1 57.710501419110692 0 11.090301819259093 0 1 0 I I #
face $-1 $105 $106 $7 $-1 $107 reversed single #
loop $-1 $-1 $108 $32 #
plane-surface $-1 -1.6735805965053387 0 0 1 0 0 0 0 -1 forward_v I I I I #
coedge $-1 $109 $70 $110 $111 forward $33 $-1 #
coedge $-1 $112 $35 $109 $113 forward $21 $-1 #
coedge $-1 $35 $112 $114 $115 forward $21 $-1 #
coedge $-1 $73 $72 $35 $66 reversed $74 $-1 #
edge $-1 $116 -3.8082377750090384 $117 3.8082377750090384 $65 $118 forward 7 unknown #
coedge $-1 $37 $36 $119 $120 forward $14 $-1 #
coedge $-1 $121 $122 $36 $69 reversed $106 $-1 #
edge $-1 $76 -1.6735805965053387 $123 1.6735805965053387 $68 $124 forward 7 unknown #
coedge $-1 $62 $125 $37 $71 reversed $33 $-1 #
edge $-1 $126 -1.6735805965053387 $75 1.6735805965053387 $70 $127 forward 7 unknown #
coedge $-1 $65 $38 $125 $128 forward $74 $-1 #
coedge $-1 $38 $65 $121 $129 reversed $74 $-1 #
loop $-1 $-1 $72 $105 #
vertex $-1 $39 $130 #
vertex $-1 $39 $131 #
straight-curve $-1 1.6735805965053387 0 11.090301819259093 0 1 0 I I #
face $-1 $-1 $55 $6 $-1 $132 reversed single #
loop $-1 $-1 $94 $40 #
plane-surface $-1 0 28.069914469350824 0 0 -1 0 0 0 -1 forward_v I I I I #
coedge $-1 $133 $92 $95 $134 forward $41 $-1 #
coedge $-1 $98 $43 $44 $86 reversed $25 $-1 #
coedge $-1 $92 $133 $43 $84 reversed $41 $-1 #
edge $-1 $99 -11.090301819259093 $135 11.090301819259093 $83 $136 forward 7 unknown #
coedge $-1 $45 $44 $133 $137 forward $17 $-1 #
edge $-1 $90 -57.710501419110692 $135 57.710501419110692 $82 $138 forward 7 unknown #
coedge $-1 $95 $94 $45 $88 reversed $79 $-1 #
edge $-1 $139 -57.710501419110692 $89 57.710501419110692 $87 $140 forward 7 unknown #
vertex $-1 $47 $141 #
vertex $-1 $101 $142 #
straight-curve $-1 57.710501419110692 0 -11.090301819259093 0 -1 0 I I #
coedge $-1 $81 $83 $48 $93 reversed $41 $-1 #
edge $-1 $96 -28.069914469350824 $99 28.069914469350824 $92 $143 forward 7 unknown #
coedge $-1 $87 $49 $54 $102 forward $79 $-1 #
coedge $-1 $49 $87 $81 $134 reversed $79 $-1 #
vertex $-1 $50 $144 #
straight-curve $-1 0 28.069914469350824 11.090301819259093 -1 0 0 I I #
coedge $-1 $51 $82 $53 $101 reversed $25 $-1 #
vertex $-1 $93 $145 #
straight-curve $-1 0 -28.069914469350824 11.090301819259093 1 0 0 I I #
edge $-1 $56 -11.090301819259093 $90 11.090301819259093 $53 $146 forward 7 unknown #
edge $-1 $57 -11.090301819259093 $89 11.090301819259093 $54 $147 forward 7 unknown #
point $-1 57.710501419110692 -28.069914469350824 11.090301819259093 #
point $-1 57.710501419110692 28.069914469350824 11.090301819259093 #
face $-1 $-1 $74 $7 $-1 $148 reversed single #
loop $-1 $-1 $121 $59 #
plane-surface $-1 0 3.8082377750090384 0 0 -1 0 0 0 -1 forward_v I I I I #
coedge $-1 $149 $119 $122 $150 forward $60 $-1 #
coedge $-1 $125 $62 $63 $113 reversed $33 $-1 #
coedge $-1 $119 $149 $62 $111 reversed $60 $-1 #
edge $-1 $126 -11.090301819259093 $151 11.090301819259093 $110 $152 forward 7 unknown #
coedge $-1 $64 $63 $149 $153 forward $21 $-1 #
edge $-1 $117 -1.6735805965053387 $151 1.6735805965053387 $109 $154 forward 7 unknown #
coedge $-1 $122 $121 $64 $115 reversed $106 $-1 #
edge $-1 $155 -1.6735805965053387 $116 1.6735805965053387 $114 $156 forward 7 unknown #
vertex $-1 $66 $157 #
vertex $-1 $128 $158 #
straight-curve $-1 1.6735805965053387 0 -11.090301819259093 0 -1 0 I I #
coedge $-1 $108 $110 $67 $120 reversed $60 $-1 #
edge $-1 $123 -3.8082377750090384 $126 3.8082377750090384 $119 $159 forward 7 unknown #
coedge $-1 $114 $68 $73 $129 forward $106 $-1 #
coedge $-1 $68 $114 $108 $150 reversed $106 $-1 #
vertex $-1 $69 $160 #
straight-curve $-1 0 3.8082377750090384 11.090301819259093 -1 0 0 I I #
coedge $-1 $70 $109 $72 $128 reversed $33 $-1 #
vertex $-1 $120 $161 #
straight-curve $-1 0 -3.8082377750090384 11.090301819259093 1 0 0 I I #
edge $-1 $75 -11.090301819259093 $117 11.090301819259093 $72 $162 forward 7 unknown #
edge $-1 $76 -11.090301819259093 $116 11.090301819259093 $73 $163 forward 7 unknown #
point $-1 1.6735805965053387 -3.8082377750090384 11.090301819259093 #
point $-1 1.6735805965053387 3.8082377750090384 11.090301819259093 #
plane-surface $-1 57.710501419110692 0 0 -1 0 0 0 0 1 forward_v I I I I #
coedge $-1 $83 $81 $85 $137 reversed $41 $-1 #
edge $-1 $96 -11.090301819259093 $139 11.090301819259093 $95 $164 forward 7 unknown #
vertex $-1 $137 $165 #
straight-curve $-1 -57.710501419110692 -28.069914469350824 0 0 0 -1 I I #
edge $-1 $135 -28.069914469350824 $139 28.069914469350824 $133 $166 forward 7 unknown #
straight-curve $-1 0 -28.069914469350824 -11.090301819259093 -1 0 0 I I #
vertex $-1 $88 $167 #
straight-curve $-1 0 28.069914469350824 -11.090301819259093 1 0 0 I I #
point $-1 57.710501419110692 28.069914469350824 -11.090301819259093 #
point $-1 57.710501419110692 -28.069914469350824 -11.090301819259093 #
straight-curve $-1 -57.710501419110692 0 11.090301819259093 0 -1 0 I I #
point $-1 -57.710501419110692 28.069914469350824 11.090301819259093 #
point $-1 -57.710501419110692 -28.069914469350824 11.090301819259093 #
straight-curve $-1 57.710501419110692 -28.069914469350824 0 0 0 -1 I I #
straight-curve $-1 57.710501419110692 28.069914469350824 0 0 0 -1 I I #
plane-surface $-1 1.6735805965053387 0 0 -1 0 0 0 0 1 forward_v I I I I #
coedge $-1 $110 $108 $112 $153 reversed $60 $-1 #
edge $-1 $123 -11.090301819259093 $155 11.090301819259093 $122 $168 forward 7 unknown #
vertex $-1 $153 $169 #
straight-curve $-1 -1.6735805965053387 -3.8082377750090384 0 0 0 -1 I I #
edge $-1 $151 -3.8082377750090384 $155 3.8082377750090384 $149 $170 forward 7 unknown #
straight-curve $-1 0 -3.8082377750090384 -11.090301819259093 -1 0 0 I I #
vertex $-1 $115 $171 #
straight-curve $-1 0 3.8082377750090384 -11.090301819259093 1 0 0 I I #
point $-1 1.6735805965053387 3.8082377750090384 -11.090301819259093 #
point $-1 1.6735805965053387 -3.8082377750090384 -11.090301819259093 #
straight-curve $-1 -1.6735805965053387 0 11.090301819259093 0 -1 0 I I #
point $-1 -1.6735805965053387 3.8082377750090384 11.090301819259093 #
point $-1 -1.6735805965053387 -3.8082377750090384 11.090301819259093 #
straight-curve $-1 1.6735805965053387 -3.8082377750090384 0 0 0 -1 I I #
straight-curve $-1 1.6735805965053387 3.8082377750090384 0 0 0 -1 I I #
straight-curve $-1 -57.710501419110692 28.069914469350824 0 0 0 -1 I I #
point $-1 -57.710501419110692 -28.069914469350824 -11.090301819259093 #
straight-curve $-1 -57.710501419110692 0 -11.090301819259093 0 1 0 I I #
point $-1 -57.710501419110692 28.069914469350824 -11.090301819259093 #
straight-curve $-1 -1.6735805965053387 3.8082377750090384 0 0 0 -1 I I #
point $-1 -1.6735805965053387 -3.8082377750090384 -11.090301819259093 #
straight-curve $-1 -1.6735805965053387 0 -11.090301819259093 0 1 0 I I #
point $-1 -1.6735805965053387 3.8082377750090384 -11.090301819259093 #
End-of-ACIS-data 