500 0 10 0           
7 Unknown 11 ACIS 5.0 NT 24 Fri Mar 26 18:47:07 1999 
-1 9.9999999999999995e-007 1e-010 
body $-1 $10 $-1 $11 #
body $-1 $12 $-1 $13 #
body $-1 $14 $-1 $15 #
body $-1 $16 $-1 $17 #
body $-1 $18 $-1 $19 #
body $-1 $20 $-1 $21 #
body $-1 $22 $-1 $23 #
body $-1 $24 $-1 $25 #
body $-1 $26 $-1 $27 #
body $-1 $28 $-1 $29 #
lump $-1 $-1 $30 $0 #
transform $-1 1 0 0 0 1 0 0 0 1 50.973235267189551 29.227900961869896 7.5247550805456171 1 rotate no_reflect no_shear #
lump $-1 $-1 $31 $1 #
transform $-1 1 0 0 0 1 0 0 0 1 50.973235267189551 29.227900961869896 7.5247550805456171 1 rotate no_reflect no_shear #
lump $-1 $-1 $32 $2 #
transform $-1 1 0 0 0 1 0 0 0 1 50.973235267189551 29.227900961869896 7.5247550805456171 1 rotate no_reflect no_shear #
lump $-1 $-1 $33 $3 #
transform $-1 1 0 0 0 1 0 0 0 1 50.973235267189551 29.227900961869896 7.5247550805456171 1 rotate no_reflect no_shear #
lump $-1 $-1 $34 $4 #
transform $-1 1 0 0 0 1 0 0 0 1 50.973235267189551 29.227900961869896 7.5247550805456171 1 rotate no_reflect no_shear #
lump $-1 $-1 $35 $5 #
transform $-1 1 0 0 0 1 0 0 0 1 50.973235267189551 29.227900961869896 7.5247550805456171 1 rotate no_reflect no_shear #
lump $-1 $-1 $36 $6 #
transform $-1 1 0 0 0 1 0 0 0 1 50.973235267189551 29.227900961869896 7.5247550805456171 1 rotate no_reflect no_shear #
lump $-1 $-1 $37 $7 #
transform $-1 1 0 0 0 1 0 0 0 1 50.973235267189551 29.227900961869896 7.5247550805456171 1 rotate no_reflect no_shear #
lump $-1 $-1 $38 $8 #
transform $-1 1 0 0 0 1 0 0 0 1 50.973235267189551 29.227900961869896 7.5247550805456171 1 rotate no_reflect no_shear #
lump $-1 $-1 $39 $9 #
transform $-1 1 0 0 0 1 0 0 0 1 50.973235267189551 29.227900961869896 7.5247550805456171 1 rotate no_reflect no_shear #
shell $-1 $-1 $-1 $40 $-1 $10 #
shell $-1 $-1 $-1 $41 $-1 $12 #
shell $-1 $-1 $-1 $42 $-1 $14 #
shell $-1 $-1 $-1 $43 $-1 $16 #
shell $-1 $-1 $-1 $44 $-1 $18 #
shell $-1 $-1 $-1 $45 $-1 $20 #
shell $-1 $-1 $-1 $46 $-1 $22 #
shell $-1 $-1 $-1 $47 $-1 $24 #
shell $-1 $-1 $-1 $48 $-1 $26 #
shell $-1 $-1 $-1 $49 $-1 $28 #
face $-1 $50 $51 $30 $-1 $52 forward single #
face $-1 $53 $54 $31 $-1 $55 reversed single #
face $-1 $56 $57 $32 $-1 $58 reversed single #
face $-1 $59 $60 $33 $-1 $61 forward single #
face $-1 $62 $63 $34 $-1 $64 reversed single #
face $-1 $65 $66 $35 $-1 $67 forward single #
face $-1 $68 $69 $36 $-1 $70 reversed single #
face $-1 $71 $72 $37 $-1 $73 forward single #
face $-1 $74 $75 $38 $-1 $76 reversed single #
face $-1 $77 $78 $39 $-1 $79 forward single #
face $-1 $80 $81 $30 $-1 $82 reversed single #
loop $-1 $-1 $83 $40 #
plane-surface $-1 0 0 7.5247550805456171 0 0 1 1 0 0 forward_v I I I I #
face $-1 $84 $85 $31 $-1 $86 reversed single #
loop $-1 $-1 $87 $41 #
plane-surface $-1 -47.126509372136496 0 4.0019654480926654 0 0 1 1 0 0 forward_v I I I I #
face $-1 $88 $89 $32 $-1 $90 reversed single #
loop $-1 $-1 $91 $42 #
plane-surface $-1 -9.2473589853675584 79.208691664948532 110.62550170963704 1 0 0 0 -0.81915205242281985 -0.57357642473473569 forward_v I I I I #
face $-1 $92 $93 $33 $-1 $94 forward single #
loop $-1 $95 $96 $43 #
cone-surface $-1 -2.7003165451572499 27.615532482598162 5.5655642452537792 0 -0.81915205242281985 -0.57357642473473569 0.5 0 0 1 I I 0 1 0.5 forward I I I I #
face $-1 $97 $98 $34 $-1 $99 reversed single #
loop $-1 $-1 $100 $44 #
plane-surface $-1 37.879150386768941 79.208691664948532 110.62550170963704 1 0 0 0 -0.81915205242281985 -0.57357642473473569 forward_v I I I I #
face $-1 $101 $102 $35 $-1 $103 forward single #
loop $-1 $104 $105 $45 #
cone-surface $-1 44.426192826979246 27.615532482598162 5.5655642452537792 0 -0.81915205242281985 -0.57357642473473569 0.5 0 0 1 I I 0 1 0.5 forward I I I I #
face $-1 $106 $107 $36 $-1 $108 reversed single #
loop $-1 $-1 $109 $46 #
plane-surface $-1 3.8467258950530585 -112.73756153736907 62.74131158778377 -1 0 0 0 -0.81915205242281985 0.57357642473473569 forward_v I I I I #
face $-1 $110 $111 $37 $-1 $112 forward single #
loop $-1 $113 $114 $47 #
cone-surface $-1 -2.7003165451572499 -27.615532482598162 5.5655642452537739 0 0.81915205242281985 -0.57357642473473569 0.5 0 0 1 I I 0 1 0.5 forward I I I I #
face $-1 $115 $116 $38 $-1 $117 reversed single #
loop $-1 $-1 $118 $48 #
plane-surface $-1 44.426192826979246 -29.227900961869906 4.2672195043495265 0 -0.81915205242281985 0.57357642473473569 1 0 0 forward_v I I I I #
face $-1 $119 $120 $39 $-1 $121 forward single #
loop $-1 $122 $123 $49 #
cone-surface $-1 44.426192826979246 -27.615532482598162 5.5655642452537739 0 0.81915205242281985 -0.57357642473473569 0.5 0 0 1 I I 0 1 0.5 forward I I I I #
face $-1 $124 $125 $30 $-1 $126 reversed single #
loop $-1 $-1 $127 $50 #
plane-surface $-1 0 0 -7.5247550805456171 0 0 1 1 0 0 forward_v I I I I #
coedge $-1 $128 $129 $130 $131 forward $51 $-1 #
face $-1 $132 $133 $31 $-1 $134 reversed single #
loop $-1 $-1 $135 $53 #
plane-surface $-1 -43.279783477083441 0 5.7633602643191413 -1 0 0 0 0 1 forward_v I I I I #
coedge $-1 $136 $137 $138 $139 forward $54 $-1 #
face $-1 $140 $141 $32 $-1 $142 reversed single #
loop $-1 $-1 $143 $56 #
plane-surface $-1 -2.7003165451572499 -4.3009689105506368 52.151409626202792 0 0.81915205242281985 0.57357642473473569 1 0 0 forward_v I I I I #
coedge $-1 $144 $145 $146 $147 reversed $57 $-1 #
face $-1 $-1 $148 $33 $-1 $149 forward single #
loop $-1 $150 $151 $59 #
cone-surface $-1 -2.7003165451572499 26.938851439018311 5.0917470918763001 0 -0.81915205242281985 -0.57357642473473569 0.25 0 0 1 I I -0.70710678118654746 0.70710678118654746 0.25 forward I I I I #
loop $-1 $-1 $152 $43 #
coedge $-1 $96 $96 $153 $154 reversed $60 $-1 #
face $-1 $155 $156 $34 $-1 $157 forward single #
loop $-1 $-1 $158 $62 #
plane-surface $-1 44.426192826979246 -4.3009689105506368 52.151409626202792 0 0.81915205242281985 0.57357642473473569 1 0 0 forward_v I I I I #
coedge $-1 $159 $160 $161 $162 reversed $63 $-1 #
face $-1 $-1 $163 $35 $-1 $164 forward single #
loop $-1 $165 $166 $65 #
cone-surface $-1 44.426192826979246 26.938851439018311 5.0917470918763001 0 -0.81915205242281985 -0.57357642473473569 0.25 0 0 1 I I -0.70710678118654746 0.70710678118654746 0.25 forward I I I I #
loop $-1 $-1 $167 $45 #
coedge $-1 $105 $105 $168 $169 reversed $66 $-1 #
face $-1 $170 $171 $36 $-1 $172 reversed single #
loop $-1 $-1 $173 $68 #
plane-surface $-1 -2.7003165451572499 -29.227900961869906 4.2672195043495265 0 -0.81915205242281985 0.57357642473473569 1 0 0 forward_v I I I I #
coedge $-1 $174 $175 $176 $177 reversed $69 $-1 #
face $-1 $-1 $178 $37 $-1 $179 forward single #
loop $-1 $180 $181 $71 #
cone-surface $-1 -2.7003165451572499 -26.938851439018315 5.0917470918762948 0 0.81915205242281985 -0.57357642473473569 0.25 0 0 1 I I -0.70710678118654746 0.70710678118654746 0.25 forward I I I I #
loop $-1 $-1 $182 $47 #
coedge $-1 $114 $114 $183 $184 reversed $72 $-1 #
face $-1 $185 $186 $38 $-1 $187 reversed single #
loop $-1 $-1 $188 $74 #
plane-surface $-1 37.879150386768941 -112.73756153736907 62.74131158778377 1 0 0 0 0.81915205242281985 -0.57357642473473569 forward_v I I I I #
coedge $-1 $189 $190 $191 $192 reversed $75 $-1 #
face $-1 $-1 $193 $39 $-1 $194 forward single #
loop $-1 $195 $196 $77 #
cone-surface $-1 44.426192826979246 -26.938851439018315 5.0917470918762948 0 0.81915205242281985 -0.57357642473473569 0.25 0 0 1 I I -0.70710678118654746 0.70710678118654746 0.25 forward I I I I #
loop $-1 $-1 $197 $49 #
coedge $-1 $123 $123 $198 $199 reversed $78 $-1 #
face $-1 $200 $201 $30 $-1 $202 reversed single #
loop $-1 $-1 $203 $80 #
plane-surface $-1 0 -29.227900961869896 0 0 1 0 0 0 1 forward_v I I I I #
coedge $-1 $204 $205 $206 $207 forward $81 $-1 #
coedge $-1 $208 $83 $209 $210 forward $51 $-1 #
coedge $-1 $83 $208 $211 $212 forward $51 $-1 #
coedge $-1 $213 $214 $83 $131 reversed $215 $-1 #
edge $-1 $216 -29.227900961869896 $217 29.227900961869896 $130 $218 forward 7 unknown #
face $-1 $219 $220 $31 $-1 $221 reversed single #
loop $-1 $-1 $222 $84 #
plane-surface $-1 0 29.227900961869896 0 0 -1 0 0 0 -1 forward_v I I I I #
coedge $-1 $138 $223 $224 $225 reversed $85 $-1 #
coedge $-1 $226 $87 $227 $228 reversed $54 $-1 #
coedge $-1 $87 $226 $229 $230 reversed $54 $-1 #
coedge $-1 $231 $135 $87 $139 reversed $85 $-1 #
edge $-1 $232 -29.227900961869896 $233 29.227900961869896 $138 $234 forward 7 unknown #
face $-1 $235 $236 $32 $-1 $237 forward single #
loop $-1 $-1 $238 $88 #
plane-surface $-1 3.8467258950530585 79.208691664948532 110.62550170963704 -1 0 0 0 0.81915205242281985 0.57357642473473569 forward_v I I I I #
coedge $-1 $239 $240 $241 $242 reversed $89 $-1 #
coedge $-1 $145 $91 $243 $244 reversed $57 $-1 #
coedge $-1 $91 $144 $239 $245 reversed $57 $-1 #
coedge $-1 $241 $246 $91 $147 forward $236 $-1 #
edge $-1 $247 10.37644487060437 $248 12.657395768199528 $146 $249 forward 7 unknown #
loop $-1 $-1 $153 $92 #
plane-surface $-1 -2.7003165451572499 -4.3009689105506368 52.151409626202792 0 0.81915205242281985 0.57357642473473569 1 0 0 forward_v I I I I #
loop $-1 $-1 $250 $59 #
coedge $-1 $151 $151 $152 $251 reversed $93 $-1 #
coedge $-1 $152 $152 $151 $251 forward $95 $-1 #
coedge $-1 $153 $153 $96 $154 forward $148 $-1 #
edge $-1 $252 -1.7509589716403656e-015 $252 6.2831853071795987 $153 $253 forward 7 unknown #
face $-1 $254 $255 $34 $-1 $256 reversed single #
loop $-1 $-1 $161 $97 #
plane-surface $-1 0 0 7.5247550805456171 0 0 1 1 0 0 forward_v I I I I #
coedge $-1 $257 $258 $259 $260 reversed $98 $-1 #
coedge $-1 $160 $100 $261 $262 reversed $63 $-1 #
coedge $-1 $100 $159 $257 $263 reversed $63 $-1 #
coedge $-1 $259 $264 $100 $162 forward $156 $-1 #
edge $-1 $265 10.37644487060437 $266 12.657395768199528 $161 $267 forward 7 unknown #
loop $-1 $-1 $168 $101 #
plane-surface $-1 44.426192826979246 -4.3009689105506368 52.151409626202792 0 0.81915205242281985 0.57357642473473569 1 0 0 forward_v I I I I #
loop $-1 $-1 $268 $65 #
coedge $-1 $166 $166 $167 $269 reversed $102 $-1 #
coedge $-1 $167 $167 $166 $269 forward $104 $-1 #
coedge $-1 $168 $168 $105 $169 forward $163 $-1 #
edge $-1 $270 -1.7509589716403656e-015 $270 6.2831853071795987 $168 $271 forward 7 unknown #
face $-1 $272 $273 $36 $-1 $274 reversed single #
loop $-1 $-1 $275 $106 #
plane-surface $-1 -9.2473589853675584 -112.73756153736907 62.74131158778377 1 0 0 0 0.81915205242281985 -0.57357642473473569 forward_v I I I I #
coedge $-1 $276 $277 $278 $279 reversed $107 $-1 #
coedge $-1 $175 $109 $280 $281 reversed $69 $-1 #
coedge $-1 $109 $174 $276 $282 reversed $69 $-1 #
coedge $-1 $278 $283 $109 $177 forward $284 $-1 #
edge $-1 $285 27.140879806814642 $286 29.421830704409807 $176 $287 forward 7 unknown #
loop $-1 $-1 $183 $110 #
plane-surface $-1 -2.7003165451572499 -29.227900961869906 4.2672195043495265 0 -0.81915205242281985 0.57357642473473569 1 0 0 forward_v I I I I #
loop $-1 $-1 $288 $71 #
coedge $-1 $181 $181 $182 $289 reversed $111 $-1 #
coedge $-1 $182 $182 $181 $289 forward $113 $-1 #
coedge $-1 $183 $183 $114 $184 forward $178 $-1 #
edge $-1 $290 -3.4898395666699014e-015 $290 6.2831853071795969 $183 $291 forward 7 unknown #
face $-1 $292 $293 $38 $-1 $294 forward single #
loop $-1 $-1 $295 $115 #
plane-surface $-1 0 -29.227900961869896 0 0 1 0 0 0 1 forward_v I I I I #
coedge $-1 $296 $297 $298 $299 reversed $116 $-1 #
coedge $-1 $300 $118 $301 $302 reversed $75 $-1 #
coedge $-1 $118 $300 $296 $303 forward $75 $-1 #
coedge $-1 $298 $304 $118 $192 forward $293 $-1 #
edge $-1 $305 -28.760138853699928 $306 -15.666053973279318 $191 $307 forward 7 unknown #
loop $-1 $-1 $198 $119 #
plane-surface $-1 44.426192826979246 -29.227900961869906 4.2672195043495265 0 -0.81915205242281985 0.57357642473473569 1 0 0 forward_v I I I I #
loop $-1 $-1 $308 $77 #
coedge $-1 $196 $196 $197 $309 reversed $120 $-1 #
coedge $-1 $197 $197 $196 $309 forward $122 $-1 #
coedge $-1 $198 $198 $123 $199 forward $193 $-1 #
edge $-1 $310 -3.4898395666699014e-015 $310 6.2831853071795969 $198 $311 forward 7 unknown #
face $-1 $312 $313 $30 $-1 $314 reversed single #
loop $-1 $-1 $315 $124 #
plane-surface $-1 -50.973235267189551 0 0 1 0 0 0 0 -1 forward_v I I I I #
coedge $-1 $316 $211 $317 $318 forward $125 $-1 #
coedge $-1 $319 $127 $316 $320 forward $81 $-1 #
coedge $-1 $127 $319 $321 $322 forward $81 $-1 #
coedge $-1 $214 $213 $127 $207 reversed $215 $-1 #
edge $-1 $323 -29.227900961869896 $324 29.227900961869896 $206 $325 forward 7 unknown #
coedge $-1 $129 $128 $326 $327 forward $51 $-1 #
coedge $-1 $328 $329 $128 $210 reversed $313 $-1 #
edge $-1 $217 -50.973235267189551 $330 50.973235267189551 $209 $331 forward 7 unknown #
coedge $-1 $203 $332 $129 $212 reversed $125 $-1 #
edge $-1 $333 -50.973235267189551 $216 50.973235267189551 $211 $334 forward 7 unknown #
coedge $-1 $206 $130 $332 $335 forward $215 $-1 #
coedge $-1 $130 $206 $328 $336 reversed $215 $-1 #
loop $-1 $-1 $213 $312 #
vertex $-1 $131 $337 #
vertex $-1 $131 $338 #
straight-curve $-1 50.973235267189551 0 7.5247550805456171 0 1 0 I I #
face $-1 $339 $340 $31 $-1 $341 forward single #
loop $-1 $-1 $342 $132 #
plane-surface $-1 -50.973235267189551 0 0 1 0 0 0 0 -1 forward_v I I I I #
coedge $-1 $229 $343 $231 $344 forward $133 $-1 #
coedge $-1 $135 $231 $345 $346 reversed $85 $-1 #
coedge $-1 $347 $227 $135 $225 forward $348 $-1 #
edge $-1 $233 1.1202853159330948 $349 4.6430749483860465 $224 $350 forward 7 unknown #
coedge $-1 $137 $136 $342 $351 reversed $54 $-1 #
coedge $-1 $224 $352 $136 $228 forward $348 $-1 #
edge $-1 $353 -27.409980581121303 $233 -19.716528791015193 $227 $354 forward 7 unknown #
coedge $-1 $355 $222 $137 $230 forward $133 $-1 #
edge $-1 $232 19.716528791015193 $356 27.409980581121303 $229 $357 forward 7 unknown #
coedge $-1 $223 $138 $222 $344 reversed $85 $-1 #
vertex $-1 $230 $358 #
vertex $-1 $228 $359 #
straight-curve $-1 -43.279783477083441 0 4.0019654480926654 0 -1 0 I I #
face $-1 $-1 $360 $32 $-1 $361 reversed single #
loop $-1 $-1 $146 $140 #
plane-surface $-1 0 0 7.5247550805456171 0 0 1 1 0 0 forward_v I I I I #
coedge $-1 $362 $363 $364 $365 reversed $141 $-1 #
coedge $-1 $366 $143 $145 $245 forward $89 $-1 #
coedge $-1 $143 $366 $362 $367 forward $89 $-1 #
coedge $-1 $364 $146 $143 $242 forward $236 $-1 #
edge $-1 $248 -7.8972007127889334 $368 5.1968841676316835 $241 $369 forward 7 unknown #
coedge $-1 $370 $371 $144 $244 forward $360 $-1 #
edge $-1 $372 -51.045531350468963 $247 -47.7879957742729 $243 $373 forward 7 unknown #
edge $-1 $248 54.479085309820285 $372 58.455801923739756 $145 $374 forward 7 unknown #
coedge $-1 $146 $364 $370 $375 forward $236 $-1 #
vertex $-1 $244 $376 #
vertex $-1 $147 $377 #
straight-curve $-1 -9.2473589853675584 39.604345832474266 7.5247550805456171 0 -1 0 I I #
coedge $-1 $250 $250 $-1 $378 reversed $150 $-1 #
edge $-1 $379 0 $379 6.2831853071796004 $151 $380 forward 7 unknown #
vertex $-1 $154 $381 #
ellipse-curve $-1 -2.7003165451572499 28.087425513072318 5.8959872924475825 0 0.81915205242281985 0.57357642473473569 0.5 0 0 1 I I #
face $-1 $-1 $382 $34 $-1 $383 reversed single #
loop $-1 $-1 $384 $155 #
plane-surface $-1 50.973235267189551 0 0 -1 0 0 0 0 1 forward_v I I I I #
coedge $-1 $385 $158 $160 $263 forward $98 $-1 #
coedge $-1 $158 $385 $384 $386 reversed $98 $-1 #
coedge $-1 $387 $161 $158 $260 forward $156 $-1 #
edge $-1 $266 15.666053973279318 $388 28.760138853699928 $259 $389 forward 7 unknown #
coedge $-1 $390 $391 $159 $262 forward $382 $-1 #
edge $-1 $392 -51.045531350468963 $265 -47.7879957742729 $261 $393 forward 7 unknown #
edge $-1 $266 54.479085309820285 $392 58.455801923739756 $160 $394 forward 7 unknown #
coedge $-1 $161 $387 $390 $395 forward $156 $-1 #
vertex $-1 $262 $396 #
vertex $-1 $162 $397 #
straight-curve $-1 37.879150386768941 39.604345832474266 7.5247550805456171 0 -1 0 I I #
coedge $-1 $268 $268 $-1 $398 reversed $165 $-1 #
edge $-1 $399 0 $399 6.2831853071796004 $166 $400 forward 7 unknown #
vertex $-1 $169 $401 #
ellipse-curve $-1 44.426192826979246 28.087425513072318 5.8959872924475825 0 0.81915205242281985 0.57357642473473569 0.5 0 0 1 I I #
face $-1 $-1 $284 $36 $-1 $402 forward single #
loop $-1 $-1 $403 $170 #
plane-surface $-1 0 -29.227900961869896 0 0 1 0 0 0 1 forward_v I I I I #
coedge $-1 $404 $405 $406 $407 reversed $171 $-1 #
coedge $-1 $408 $173 $175 $282 forward $107 $-1 #
coedge $-1 $173 $408 $404 $409 forward $107 $-1 #
coedge $-1 $406 $176 $173 $279 forward $284 $-1 #
edge $-1 $286 -5.1968841676316835 $410 7.8972007127889334 $278 $411 forward 7 unknown #
coedge $-1 $412 $413 $174 $281 forward $273 $-1 #
edge $-1 $414 -27.103436289542344 $285 -23.845900713346268 $280 $415 forward 7 unknown #
edge $-1 $286 -3.9767166139195078 $414 -1.8481662412032989e-014 $175 $416 forward 7 unknown #
coedge $-1 $176 $406 $412 $417 forward $284 $-1 #
loop $-1 $-1 $406 $272 #
vertex $-1 $281 $418 #
vertex $-1 $177 $419 #
straight-curve $-1 3.8467258950530585 -56.368780768684537 7.5247550805456171 0 1 0 I I #
coedge $-1 $288 $288 $-1 $420 reversed $180 $-1 #
edge $-1 $421 0 $421 6.2831853071796004 $181 $422 forward 7 unknown #
vertex $-1 $184 $423 #
ellipse-curve $-1 -2.7003165451572499 -28.087425513072315 5.8959872924475754 0 -0.81915205242281985 0.57357642473473569 0.5 0 0 1 I I #
face $-1 $-1 $424 $38 $-1 $425 reversed single #
loop $-1 $-1 $298 $185 #
plane-surface $-1 0 0 7.5247550805456171 0 0 1 1 0 0 forward_v I I I I #
coedge $-1 $426 $427 $297 $428 forward $186 $-1 #
coedge $-1 $297 $188 $190 $303 reversed $116 $-1 #
coedge $-1 $188 $296 $295 $428 reversed $116 $-1 #
coedge $-1 $429 $191 $188 $299 forward $293 $-1 #
edge $-1 $306 -29.421830704409807 $430 -27.140879806814642 $298 $431 forward 7 unknown #
coedge $-1 $190 $189 $426 $432 reversed $75 $-1 #
coedge $-1 $433 $434 $189 $302 forward $424 $-1 #
edge $-1 $435 -6.6344666605418219 $305 -2.6577500466223318 $301 $436 forward 7 unknown #
edge $-1 $437 1.8481662412032989e-014 $306 3.9767166139195078 $296 $438 forward 7 unknown #
coedge $-1 $191 $429 $433 $439 forward $293 $-1 #
vertex $-1 $302 $440 #
vertex $-1 $192 $441 #
straight-curve $-1 22.213096413489623 -26.946950064274731 7.5247550805456171 -1 0 0 I I #
coedge $-1 $308 $308 $-1 $442 reversed $195 $-1 #
edge $-1 $443 0 $443 6.2831853071796004 $196 $444 forward 7 unknown #
vertex $-1 $199 $445 #
ellipse-curve $-1 44.426192826979246 -28.087425513072315 5.8959872924475754 0 -0.81915205242281985 0.57357642473473569 0.5 0 0 1 I I #
face $-1 $-1 $215 $30 $-1 $446 reversed single #
loop $-1 $-1 $328 $200 #
plane-surface $-1 0 29.227900961869896 0 0 -1 0 0 0 -1 forward_v I I I I #
coedge $-1 $447 $326 $329 $448 forward $201 $-1 #
coedge $-1 $332 $203 $204 $320 reversed $125 $-1 #
coedge $-1 $326 $447 $203 $318 reversed $201 $-1 #
edge $-1 $333 -7.5247550805456171 $449 7.5247550805456171 $317 $450 forward 7 unknown #
coedge $-1 $205 $204 $447 $451 forward $81 $-1 #
edge $-1 $324 -50.973235267189551 $449 50.973235267189551 $316 $452 forward 7 unknown #
coedge $-1 $329 $328 $205 $322 reversed $313 $-1 #
edge $-1 $453 -50.973235267189551 $323 50.973235267189551 $321 $454 forward 7 unknown #
vertex $-1 $207 $455 #
vertex $-1 $335 $456 #
straight-curve $-1 50.973235267189551 0 -7.5247550805456171 0 -1 0 I I #
coedge $-1 $315 $317 $208 $327 reversed $201 $-1 #
edge $-1 $330 -29.227900961869896 $333 29.227900961869896 $326 $457 forward 7 unknown #
coedge $-1 $321 $209 $214 $336 forward $313 $-1 #
coedge $-1 $209 $321 $315 $448 reversed $313 $-1 #
vertex $-1 $210 $458 #
straight-curve $-1 0 29.227900961869896 7.5247550805456171 -1 0 0 I I #
coedge $-1 $211 $316 $213 $335 reversed $125 $-1 #
vertex $-1 $327 $459 #
straight-curve $-1 0 -29.227900961869896 7.5247550805456171 1 0 0 I I #
edge $-1 $216 -7.5247550805456171 $324 7.5247550805456171 $213 $460 forward 7 unknown #
edge $-1 $217 -7.5247550805456171 $323 7.5247550805456171 $214 $461 forward 7 unknown #
point $-1 50.973235267189551 -29.227900961869896 7.5247550805456171 #
point $-1 50.973235267189551 29.227900961869896 7.5247550805456171 #
face $-1 $-1 $348 $31 $-1 $462 reversed single #
loop $-1 $-1 $345 $219 #
plane-surface $-1 0 0 7.5247550805456171 0 0 1 1 0 0 forward_v I I I I #
coedge $-1 $463 $464 $226 $351 forward $220 $-1 #
coedge $-1 $222 $355 $465 $466 reversed $133 $-1 #
edge $-1 $467 -4.6430749483860465 $232 -1.1202853159330948 $222 $468 forward 7 unknown #
coedge $-1 $465 $469 $223 $346 forward $340 $-1 #
edge $-1 $349 -29.227900961869896 $467 29.227900961869896 $345 $470 forward 7 unknown #
coedge $-1 $352 $224 $469 $471 reversed $348 $-1 #
loop $-1 $-1 $224 $339 #
vertex $-1 $225 $472 #
straight-curve $-1 -43.279783477083441 -29.227900961869896 2.8816801321595706 0 0 1 I I #
edge $-1 $356 -29.227900961869896 $353 29.227900961869896 $342 $473 forward 7 unknown #
coedge $-1 $227 $347 $463 $474 forward $348 $-1 #
vertex $-1 $351 $475 #
straight-curve $-1 -23.563254686068248 -29.227900961869896 4.0019654480926654 1 0 0 I I #
coedge $-1 $343 $229 $464 $476 reversed $133 $-1 #
vertex $-1 $351 $477 #
straight-curve $-1 -23.563254686068248 29.227900961869896 4.0019654480926654 -1 0 0 I I #
point $-1 -43.279783477083441 29.227900961869896 4.0019654480926654 #
point $-1 -43.279783477083441 -29.227900961869896 4.0019654480926654 #
loop $-1 $-1 $243 $235 #
plane-surface $-1 0 29.227900961869896 0 0 -1 0 0 0 -1 forward_v I I I I #
coedge $-1 $363 $238 $240 $367 reversed $141 $-1 #
coedge $-1 $238 $362 $478 $479 reversed $141 $-1 #
coedge $-1 $246 $241 $238 $365 forward $236 $-1 #
edge $-1 $368 -12.657395768199528 $480 -10.37644487060437 $364 $481 forward 7 unknown #
coedge $-1 $240 $239 $371 $482 reversed $89 $-1 #
edge $-1 $483 -58.455801923739756 $368 -54.479085309820285 $362 $484 forward 7 unknown #
vertex $-1 $242 $485 #
straight-curve $-1 -1.350158272578625 26.946950064274741 7.5247550805456171 1 0 0 I I #
coedge $-1 $478 $243 $246 $375 reversed $360 $-1 #
coedge $-1 $243 $478 $366 $482 forward $360 $-1 #
vertex $-1 $244 $486 #
straight-curve $-1 -9.2473589853675584 29.227900961869896 55.312750854818518 0 0 1 I I #
straight-curve $-1 -9.2473589853675584 -4.3009689105506368 52.151409626202792 0 0.57357642473473569 -0.81915205242281985 I I #
edge $-1 $480 -3.8467258950530585 $247 9.2473589853675584 $370 $487 forward 7 unknown #
point $-1 -9.2473589853675584 29.227900961869896 7.5247550805456171 #
point $-1 -9.2473589853675584 26.946950064274738 7.5247550805456171 #
edge $-1 $488 1 $488 0 $250 $-1 forward 7 unknown #
vertex $-1 $251 $489 #
ellipse-curve $-1 -2.7003165451572499 27.143639452124017 5.235141198059984 0 0.81915205242281985 0.57357642473473569 0.5 0 0 1 I I #
point $-1 -2.2003165451572499 28.087425513072304 5.8959872924475736 #
loop $-1 $-1 $261 $254 #
plane-surface $-1 0 29.227900961869896 0 0 -1 0 0 0 -1 forward_v I I I I #
coedge $-1 $490 $491 $258 $386 forward $255 $-1 #
coedge $-1 $258 $257 $391 $492 reversed $98 $-1 #
edge $-1 $388 31.885651008492232 $493 35.86236762241171 $384 $494 forward 7 unknown #
coedge $-1 $264 $259 $491 $495 forward $156 $-1 #
vertex $-1 $495 $496 #
straight-curve $-1 22.213096413489623 26.946950064274741 7.5247550805456171 1 0 0 I I #
coedge $-1 $497 $261 $264 $395 reversed $382 $-1 #
coedge $-1 $261 $497 $385 $492 forward $382 $-1 #
vertex $-1 $262 $498 #
straight-curve $-1 37.879150386768941 29.227900961869896 55.312750854818518 0 0 1 I I #
straight-curve $-1 37.879150386768941 -4.3009689105506368 52.151409626202792 0 0.57357642473473569 -0.81915205242281985 I I #
edge $-1 $499 -50.973235267189551 $265 -37.879150386768941 $390 $500 forward 7 unknown #
point $-1 37.879150386768941 29.227900961869896 7.5247550805456171 #
point $-1 37.879150386768941 26.946950064274738 7.5247550805456171 #
edge $-1 $501 1 $501 0 $268 $-1 forward 7 unknown #
vertex $-1 $269 $502 #
ellipse-curve $-1 44.426192826979246 27.143639452124017 5.235141198059984 0 0.81915205242281985 0.57357642473473569 0.5 0 0 1 I I #
point $-1 44.926192826979246 28.087425513072304 5.8959872924475736 #
plane-surface $-1 0 0 7.5247550805456171 0 0 1 1 0 0 forward_v I I I I #
coedge $-1 $413 $412 $405 $503 forward $273 $-1 #
coedge $-1 $405 $275 $277 $409 reversed $171 $-1 #
coedge $-1 $275 $404 $403 $503 reversed $171 $-1 #
coedge $-1 $283 $278 $275 $407 forward $284 $-1 #
edge $-1 $410 -29.421830704409807 $504 -27.140879806814642 $406 $505 forward 7 unknown #
coedge $-1 $277 $276 $413 $506 reversed $107 $-1 #
edge $-1 $507 1.8481662412032989e-014 $410 3.9767166139195078 $404 $508 forward 7 unknown #
vertex $-1 $279 $509 #
straight-curve $-1 -1.350158272578625 -26.946950064274731 7.5247550805456171 -1 0 0 I I #
coedge $-1 $403 $280 $283 $417 reversed $273 $-1 #
coedge $-1 $280 $403 $408 $506 forward $273 $-1 #
vertex $-1 $281 $510 #
straight-curve $-1 3.8467258950530585 -29.227900961869892 31.370655793891885 0 0 1 I I #
straight-curve $-1 3.8467258950530585 -29.227900961869906 4.2672195043495265 0 -0.57357642473473569 -0.81915205242281985 I I #
edge $-1 $504 -9.2473589853675584 $285 3.8467258950530585 $412 $511 forward 7 unknown #
point $-1 3.8467258950530585 -29.227900961869896 7.5247550805456171 #
point $-1 3.8467258950530585 -26.946950064274731 7.5247550805456171 #
edge $-1 $512 1 $512 0 $288 $-1 forward 7 unknown #
vertex $-1 $289 $513 #
ellipse-curve $-1 -2.7003165451572499 -27.14363945212402 5.2351411980599787 0 -0.81915205242281985 0.57357642473473569 0.5 0 0 1 I I #
point $-1 -2.2003165451572499 -28.087425513072308 5.8959872924475683 #
loop $-1 $-1 $301 $292 #
plane-surface $-1 50.973235267189551 0 0 -1 0 0 0 0 1 forward_v I I I I #
coedge $-1 $514 $295 $300 $432 forward $186 $-1 #
coedge $-1 $295 $514 $429 $515 reversed $186 $-1 #
edge $-1 $430 23.845900713346268 $437 27.103436289542344 $295 $516 forward 7 unknown #
coedge $-1 $304 $298 $427 $515 forward $293 $-1 #
vertex $-1 $515 $517 #
straight-curve $-1 37.879150386768941 -56.368780768684537 7.5247550805456171 0 -1 0 I I #
edge $-1 $437 15.666053973279318 $435 28.760138853699928 $426 $518 forward 7 unknown #
coedge $-1 $434 $301 $304 $439 reversed $424 $-1 #
coedge $-1 $301 $433 $514 $519 forward $424 $-1 #
vertex $-1 $432 $520 #
straight-curve $-1 50.973235267189551 -25.422527294694518 9.7018564860631464 0 0.57357642473473569 0.81915205242281985 I I #
vertex $-1 $432 $521 #
straight-curve $-1 37.879150386768941 -29.227900961869906 4.2672195043495265 0 0.57357642473473569 0.81915205242281985 I I #
edge $-1 $522 -29.227900961869896 $305 -26.946950064274731 $433 $523 forward 7 unknown #
point $-1 50.973235267189551 -26.946950064274731 7.5247550805456171 #
point $-1 37.879150386768941 -26.946950064274731 7.5247550805456171 #
edge $-1 $524 1 $524 0 $308 $-1 forward 7 unknown #
vertex $-1 $309 $525 #
ellipse-curve $-1 44.426192826979246 -27.14363945212402 5.2351411980599787 0 -0.81915205242281985 0.57357642473473569 0.5 0 0 1 I I #
point $-1 44.926192826979246 -28.087425513072308 5.8959872924475683 #
plane-surface $-1 50.973235267189551 0 0 -1 0 0 0 0 1 forward_v I I I I #
coedge $-1 $317 $315 $319 $451 reversed $201 $-1 #
edge $-1 $330 -7.5247550805456171 $453 7.5247550805456171 $329 $526 forward 7 unknown #
vertex $-1 $451 $527 #
straight-curve $-1 -50.973235267189551 -29.227900961869896 0 0 0 -1 I I #
edge $-1 $449 -29.227900961869896 $453 29.227900961869896 $447 $528 forward 7 unknown #
straight-curve $-1 0 -29.227900961869896 -7.5247550805456171 -1 0 0 I I #
vertex $-1 $322 $529 #
straight-curve $-1 0 29.227900961869896 -7.5247550805456171 1 0 0 I I #
point $-1 50.973235267189551 29.227900961869896 -7.5247550805456171 #
point $-1 50.973235267189551 -29.227900961869896 -7.5247550805456171 #
straight-curve $-1 -50.973235267189551 0 7.5247550805456171 0 -1 0 I I #
point $-1 -50.973235267189551 29.227900961869896 7.5247550805456171 #
point $-1 -50.973235267189551 -29.227900961869896 7.5247550805456171 #
straight-curve $-1 50.973235267189551 -29.227900961869896 0 0 0 -1 I I #
straight-curve $-1 50.973235267189551 29.227900961869896 0 0 0 -1 I I #
plane-surface $-1 0 -29.227900961869896 0 0 1 0 0 0 1 forward_v I I I I #
coedge $-1 $530 $342 $352 $474 reversed $220 $-1 #
coedge $-1 $342 $530 $355 $476 forward $220 $-1 #
coedge $-1 $531 $345 $343 $466 forward $340 $-1 #
edge $-1 $467 43.279783477083441 $532 50.973235267189551 $343 $533 forward 7 unknown #
vertex $-1 $466 $534 #
straight-curve $-1 -43.279783477083441 29.227900961869896 2.8816801321595706 0 0 -1 I I #
coedge $-1 $345 $531 $347 $471 forward $340 $-1 #
straight-curve $-1 -43.279783477083441 0 7.5247550805456171 0 1 0 I I #
edge $-1 $535 -50.973235267189551 $349 -43.279783477083441 $347 $536 forward 7 unknown #
point $-1 -43.279783477083441 -29.227900961869896 7.5247550805456171 #
straight-curve $-1 -50.973235267189551 0 4.0019654480926654 0 -1 0 I I #
edge $-1 $535 -7.5247550805456171 $353 -4.0019654480926654 $463 $537 forward 7 unknown #
point $-1 -50.973235267189551 -29.227900961869896 4.0019654480926654 #
edge $-1 $532 -7.5247550805456171 $356 -4.0019654480926654 $355 $538 forward 7 unknown #
point $-1 -50.973235267189551 29.227900961869896 4.0019654480926654 #
coedge $-1 $371 $370 $363 $479 forward $360 $-1 #
edge $-1 $480 47.7879957742729 $483 51.045531350468963 $478 $539 forward 7 unknown #
vertex $-1 $375 $540 #
straight-curve $-1 3.8467258950530585 39.604345832474266 7.5247550805456171 0 1 0 I I #
edge $-1 $483 -5.1968841676316835 $372 7.8972007127889334 $371 $541 forward 7 unknown #
vertex $-1 $482 $542 #
straight-curve $-1 3.8467258950530585 -4.3009689105506368 52.151409626202792 0 -0.57357642473473569 0.81915205242281985 I I #
point $-1 3.8467258950530585 26.946950064274738 7.5247550805456171 #
point $-1 -9.2473589853675584 29.227900961869892 4.2672195043495549 #
straight-curve $-1 0 29.227900961869896 7.5247550805456171 -1 0 0 I I #
vertex $-1 $378 $543 #
point $-1 -2.2003165451572499 27.143639452124017 5.235141198059984 #
coedge $-1 $491 $384 $497 $544 reversed $255 $-1 #
coedge $-1 $384 $490 $387 $495 reversed $255 $-1 #
edge $-1 $493 -28.760138853699928 $392 -15.666053973279318 $391 $545 forward 7 unknown #
vertex $-1 $386 $546 #
straight-curve $-1 50.973235267189551 8.6580923584842484 33.643951546989783 0 0.57357642473473569 -0.81915205242281985 I I #
edge $-1 $388 26.946950064274738 $499 29.227900961869896 $491 $547 forward 7 unknown #
point $-1 50.973235267189551 26.946950064274738 7.5247550805456171 #
coedge $-1 $391 $390 $490 $544 forward $382 $-1 #
point $-1 37.879150386768941 29.227900961869892 4.2672195043495549 #
vertex $-1 $495 $548 #
straight-curve $-1 0 29.227900961869896 7.5247550805456171 -1 0 0 I I #
vertex $-1 $398 $549 #
point $-1 44.926192826979246 27.143639452124017 5.235141198059984 #
edge $-1 $504 23.845900713346268 $507 27.103436289542344 $403 $550 forward 7 unknown #
vertex $-1 $417 $551 #
straight-curve $-1 -9.2473589853675584 -56.368780768684537 7.5247550805456171 0 -1 0 I I #
edge $-1 $507 -7.8972007127889334 $414 5.1968841676316835 $413 $552 forward 7 unknown #
vertex $-1 $506 $553 #
straight-curve $-1 -9.2473589853675584 -29.227900961869906 4.2672195043495265 0 0.57357642473473569 0.81915205242281985 I I #
point $-1 -9.2473589853675584 -26.946950064274731 7.5247550805456171 #
point $-1 3.8467258950530585 -29.227900961869896 4.2672195043495416 #
straight-curve $-1 0 -29.227900961869896 7.5247550805456171 1 0 0 I I #
vertex $-1 $420 $554 #
point $-1 -2.2003165451572499 -27.14363945212402 5.2351411980599787 #
coedge $-1 $427 $426 $434 $519 reversed $186 $-1 #
edge $-1 $430 37.879150386768941 $522 50.973235267189551 $427 $555 forward 7 unknown #
straight-curve $-1 37.879150386768941 -29.227900961869892 31.370655793891885 0 0 -1 I I #
point $-1 37.879150386768941 -29.227900961869896 7.5247550805456171 #
straight-curve $-1 22.213096413489623 -29.227900961869896 4.2672195043495398 1 0 0 I I #
edge $-1 $522 -7.5247550805456171 $435 -4.2672195043495416 $434 $556 forward 7 unknown #
point $-1 50.973235267189551 -29.227900961869896 4.2672195043495416 #
point $-1 37.879150386768941 -29.227900961869896 4.2672195043495416 #
vertex $-1 $439 $557 #
straight-curve $-1 50.973235267189551 0 7.5247550805456171 0 1 0 I I #
vertex $-1 $442 $558 #
point $-1 44.926192826979246 -27.14363945212402 5.2351411980599787 #
straight-curve $-1 -50.973235267189551 29.227900961869896 0 0 0 -1 I I #
point $-1 -50.973235267189551 -29.227900961869896 -7.5247550805456171 #
straight-curve $-1 -50.973235267189551 0 -7.5247550805456171 0 1 0 I I #
point $-1 -50.973235267189551 29.227900961869896 -7.5247550805456171 #
coedge $-1 $464 $463 $531 $559 reversed $220 $-1 #
coedge $-1 $469 $465 $530 $559 forward $340 $-1 #
vertex $-1 $466 $560 #
straight-curve $-1 0 29.227900961869896 7.5247550805456171 -1 0 0 I I #
point $-1 -43.279783477083441 29.227900961869896 7.5247550805456171 #
vertex $-1 $559 $561 #
straight-curve $-1 0 -29.227900961869896 7.5247550805456171 1 0 0 I I #
straight-curve $-1 -50.973235267189551 -29.227900961869896 0 0 0 -1 I I #
straight-curve $-1 -50.973235267189551 29.227900961869896 0 0 0 -1 I I #
straight-curve $-1 3.8467258950530585 29.227900961869896 55.312750854818518 0 0 -1 I I #
point $-1 3.8467258950530585 29.227900961869896 7.5247550805456171 #
straight-curve $-1 -1.350158272578625 29.227900961869899 4.2672195043495513 -1 0 0 I I #
point $-1 3.8467258950530585 29.227900961869892 4.2672195043495549 #
point $-1 -2.7003165451572499 26.734063425912606 4.9483529856926163 #
edge $-1 $499 -7.5247550805456171 $493 -4.2672195043495549 $490 $562 forward 7 unknown #
straight-curve $-1 22.213096413489623 29.227900961869899 4.2672195043495513 -1 0 0 I I #
point $-1 50.973235267189551 29.227900961869892 4.2672195043495549 #
straight-curve $-1 50.973235267189551 0 7.5247550805456171 0 1 0 I I #
point $-1 50.973235267189551 29.227900961869896 7.5247550805456171 #
point $-1 44.426192826979246 26.734063425912606 4.9483529856926163 #
straight-curve $-1 -9.2473589853675584 -29.227900961869892 31.370655793891885 0 0 -1 I I #
point $-1 -9.2473589853675584 -29.227900961869896 7.5247550805456171 #
straight-curve $-1 -1.350158272578625 -29.227900961869896 4.2672195043495398 1 0 0 I I #
point $-1 -9.2473589853675584 -29.227900961869896 4.2672195043495416 #
point $-1 -2.7003165451572499 -26.734063425912609 4.948352985692611 #
straight-curve $-1 0 -29.227900961869896 7.5247550805456171 1 0 0 I I #
straight-curve $-1 50.973235267189551 -29.227900961869896 0 0 0 -1 I I #
point $-1 50.973235267189551 -29.227900961869896 7.5247550805456171 #
point $-1 44.426192826979246 -26.734063425912609 4.948352985692611 #
edge $-1 $532 -29.227900961869896 $535 29.227900961869896 $530 $563 forward 7 unknown #
point $-1 -50.973235267189551 29.227900961869896 7.5247550805456171 #
point $-1 -50.973235267189551 -29.227900961869896 7.5247550805456171 #
straight-curve $-1 50.973235267189551 29.227900961869896 0 0 0 -1 I I #
straight-curve $-1 -50.973235267189551 0 7.5247550805456171 0 -1 0 I I #
End-of-ACIS-data 