500 0 7 0           
7 Unknown 11 ACIS 5.0 NT 24 Fri Mar 26 18:36:21 1999 
-1 9.9999999999999995e-007 1e-010 
body $-1 $7 $-1 $8 #
body $-1 $9 $-1 $10 #
body $-1 $11 $-1 $12 #
body $-1 $13 $-1 $14 #
body $-1 $15 $-1 $16 #
body $-1 $17 $-1 $18 #
body $-1 $19 $-1 $20 #
lump $-1 $-1 $21 $0 #
transform $-1 1 0 0 0 1 0 0 0 1 64.875026703695795 35.763529079852859 11.075375682390787 1 rotate no_reflect no_shear #
lump $-1 $-1 $22 $1 #
transform $-1 1 0 0 0 1 0 0 0 1 64.875026703695795 35.763529079852859 11.075375682390787 1 rotate no_reflect no_shear #
lump $-1 $-1 $23 $2 #
transform $-1 1 0 0 0 1 0 0 0 1 64.875026703695795 35.763529079852859 11.075375682390787 1 rotate no_reflect no_shear #
lump $-1 $-1 $24 $3 #
transform $-1 1 0 0 0 1 0 0 0 1 64.875026703695795 35.763529079852859 11.075375682390787 1 rotate no_reflect no_shear #
lump $-1 $-1 $25 $4 #
transform $-1 1 0 0 0 1 0 0 0 1 64.875026703695795 35.763529079852859 11.075375682390787 1 rotate no_reflect no_shear #
lump $-1 $-1 $26 $5 #
transform $-1 1 0 0 0 1 0 0 0 1 64.875026703695795 35.763529079852859 11.075375682390787 1 rotate no_reflect no_shear #
lump $-1 $-1 $27 $6 #
transform $-1 1 0 0 0 1 0 0 0 1 64.875026703695795 35.763529079852859 11.075375682390787 1 rotate no_reflect no_shear #
shell $-1 $-1 $-1 $28 $-1 $7 #
shell $-1 $-1 $-1 $29 $-1 $9 #
shell $-1 $-1 $-1 $30 $-1 $11 #
shell $-1 $-1 $-1 $31 $-1 $13 #
shell $-1 $-1 $-1 $32 $-1 $15 #
shell $-1 $-1 $-1 $33 $-1 $17 #
shell $-1 $-1 $-1 $34 $-1 $19 #
face $-1 $35 $36 $21 $-1 $37 reversed single #
face $-1 $38 $39 $22 $-1 $40 forward single #
face $-1 $41 $42 $23 $-1 $43 forward single #
face $-1 $44 $45 $24 $-1 $46 reversed single #
face $-1 $47 $48 $25 $-1 $49 forward single #
face $-1 $50 $51 $26 $-1 $52 reversed single #
face $-1 $53 $54 $27 $-1 $55 forward single #
face $-1 $56 $57 $21 $-1 $58 forward single #
loop $-1 $-1 $59 $28 #
plane-surface $-1 64.875026703695795 0 0 -1 0 0 0 0 1 forward_v I I I I #
face $-1 $60 $61 $22 $-1 $62 reversed single #
loop $-1 $-1 $63 $29 #
plane-surface $-1 -64.875026703695795 0 0 1 0 0 0 0 -1 forward_v I I I I #
face $-1 $64 $65 $23 $-1 $66 reversed single #
loop $-1 $-1 $67 $30 #
plane-surface $-1 64.875026703695795 0 0 -1 0 0 0 0 1 forward_v I I I I #
face $-1 $68 $69 $24 $-1 $70 reversed single #
loop $-1 $-1 $71 $31 #
plane-surface $-1 10.957076772287841 74.443231633921172 146.08287557515027 1 0 0 0 -0.69465837861970381 -0.71933979245794832 forward_v I I I I #
face $-1 $72 $73 $25 $-1 $74 forward single #
loop $-1 $75 $76 $32 #
cone-surface $-1 17.279955780691878 29.441853102892793 4.8188777576901147 0 -0.69465837861970381 -0.71933979245794832 2.5 0 0 1 I I 0 1 2.5 forward I I I I #
face $-1 $77 $78 $26 $-1 $79 reversed single #
loop $-1 $-1 $80 $33 #
plane-surface $-1 52.892367277852713 -139.38653022858506 85.277880939578608 -1 0 0 0 -0.79863551827123203 0.60181501223851219 forward_v I I I I #
face $-1 $81 $82 $27 $-1 $83 forward single #
loop $-1 $84 $85 $34 #
cone-surface $-1 46.304444436611107 -33.633547314084495 8.6312824932096692 0 0.79863551827123203 -0.60181501223851219 0.5 0 0 1 I I 0 1 0.5 forward I I I I #
face $-1 $86 $87 $21 $-1 $88 reversed single #
loop $-1 $-1 $89 $35 #
plane-surface $-1 0 0 11.075375682390787 0 0 1 1 0 0 forward_v I I I I #
coedge $-1 $90 $91 $92 $93 reversed $36 $-1 #
face $-1 $94 $95 $22 $-1 $96 reversed single #
loop $-1 $-1 $97 $38 #
plane-surface $-1 0 35.763529079852859 0 0 -1 0 0 0 -1 forward_v I I I I #
coedge $-1 $98 $99 $100 $101 forward $39 $-1 #
face $-1 $102 $103 $23 $-1 $104 reversed single #
loop $-1 $-1 $105 $41 #
plane-surface $-1 0 0 -11.075375682390787 0 0 1 1 0 0 forward_v I I I I #
coedge $-1 $106 $107 $108 $109 forward $42 $-1 #
face $-1 $110 $111 $24 $-1 $112 reversed single #
loop $-1 $-1 $113 $44 #
plane-surface $-1 17.279955780691864 -15.688730091877446 52.748499085669494 0 0.69465837861970381 0.71933979245794832 1 0 0 forward_v I I I I #
coedge $-1 $114 $115 $116 $117 reversed $45 $-1 #
face $-1 $-1 $118 $25 $-1 $119 forward single #
loop $-1 $120 $121 $47 #
cone-surface $-1 17.279955780691878 26.401092951173972 1.6700785151068853 0 -0.69465837861970381 -0.71933979245794832 1.25 0 0 1 I I -0.70710678118654746 0.70710678118654746 1.25 forward I I I I #
loop $-1 $-1 $122 $32 #
coedge $-1 $76 $76 $123 $124 reversed $48 $-1 #
face $-1 $125 $126 $26 $-1 $127 reversed single #
loop $-1 $-1 $128 $50 #
plane-surface $-1 46.304444436611107 -35.763529079852844 7.1923509602616349 0 -0.79863551827123203 0.60181501223851219 1 0 0 forward_v I I I I #
coedge $-1 $129 $130 $131 $132 reversed $51 $-1 #
face $-1 $-1 $133 $27 $-1 $134 forward single #
loop $-1 $135 $136 $53 #
cone-surface $-1 46.304444436611107 -32.766941130156383 7.9782479120335008 0 0.79863551827123203 -0.60181501223851219 0.25 0 0 1 I I -0.70710678118654746 0.70710678118654746 0.25 forward I I I I #
loop $-1 $-1 $137 $34 #
coedge $-1 $85 $85 $138 $139 reversed $54 $-1 #
face $-1 $140 $141 $21 $-1 $142 reversed single #
loop $-1 $-1 $92 $56 #
plane-surface $-1 0 0 -11.075375682390787 0 0 1 1 0 0 forward_v I I I I #
coedge $-1 $143 $144 $145 $146 forward $57 $-1 #
coedge $-1 $145 $59 $147 $148 reversed $36 $-1 #
coedge $-1 $59 $145 $149 $150 forward $36 $-1 #
coedge $-1 $151 $152 $59 $93 forward $87 $-1 #
edge $-1 $153 -35.763529079852859 $154 35.763529079852859 $59 $155 forward 7 unknown #
face $-1 $156 $157 $22 $-1 $158 reversed single #
loop $-1 $-1 $100 $60 #
plane-surface $-1 -69.138023879444162 0 7.4452807773417877 0 0 1 1 0 0 forward_v I I I I #
coedge $-1 $159 $160 $98 $161 forward $61 $-1 #
coedge $-1 $162 $63 $97 $161 reversed $39 $-1 #
coedge $-1 $63 $162 $163 $164 reversed $39 $-1 #
coedge $-1 $165 $166 $63 $101 reversed $95 $-1 #
edge $-1 $167 -35.763529079852859 $168 35.763529079852859 $100 $169 forward 7 unknown #
face $-1 $170 $171 $23 $-1 $172 reversed single #
loop $-1 $-1 $108 $64 #
plane-surface $-1 70.866356416617322 -16.612777715071285 0 0 1 0 0 0 1 forward_v I I I I #
coedge $-1 $173 $174 $107 $175 forward $65 $-1 #
coedge $-1 $176 $67 $177 $178 reversed $42 $-1 #
coedge $-1 $67 $176 $105 $175 reversed $42 $-1 #
coedge $-1 $179 $180 $67 $109 reversed $103 $-1 #
edge $-1 $181 -11.075375682390787 $182 11.075375682390787 $108 $183 forward 7 unknown #
face $-1 $184 $185 $24 $-1 $186 reversed single #
loop $-1 $-1 $187 $68 #
plane-surface $-1 23.602834789095887 74.443231633921172 146.08287557515027 -1 0 0 0 0.69465837861970381 0.71933979245794832 forward_v I I I I #
coedge $-1 $188 $189 $190 $191 reversed $69 $-1 #
coedge $-1 $115 $71 $192 $193 reversed $45 $-1 #
coedge $-1 $71 $114 $188 $194 reversed $45 $-1 #
coedge $-1 $190 $195 $71 $117 forward $196 $-1 #
edge $-1 $197 1.4580867371077275 $198 9.7565643341394335 $116 $199 forward 7 unknown #
loop $-1 $-1 $123 $72 #
plane-surface $-1 17.279955780691864 -15.688730091877446 52.748499085669494 0 0.69465837861970381 0.71933979245794832 1 0 0 forward_v I I I I #
loop $-1 $-1 $200 $47 #
coedge $-1 $121 $121 $122 $201 reversed $73 $-1 #
coedge $-1 $122 $122 $121 $201 forward $75 $-1 #
coedge $-1 $123 $123 $76 $124 forward $118 $-1 #
edge $-1 $202 8.4687133503781203e-016 $202 6.2831853071796013 $123 $203 forward 7 unknown #
face $-1 $204 $205 $26 $-1 $206 forward single #
loop $-1 $-1 $207 $77 #
plane-surface $-1 39.7165215953695 -139.38653022858506 85.277880939578608 1 0 0 0 0.79863551827123203 -0.60181501223851219 forward_v I I I I #
coedge $-1 $208 $209 $210 $211 reversed $78 $-1 #
coedge $-1 $130 $80 $212 $213 reversed $51 $-1 #
coedge $-1 $80 $129 $208 $214 reversed $51 $-1 #
coedge $-1 $210 $215 $80 $132 forward $205 $-1 #
edge $-1 $216 33.929736034439671 $217 36.855804957255806 $131 $218 forward 7 unknown #
loop $-1 $-1 $138 $81 #
plane-surface $-1 46.304444436611107 -35.763529079852844 7.1923509602616349 0 -0.79863551827123203 0.60181501223851219 1 0 0 forward_v I I I I #
loop $-1 $-1 $219 $53 #
coedge $-1 $136 $136 $137 $220 reversed $82 $-1 #
coedge $-1 $137 $137 $136 $220 forward $84 $-1 #
coedge $-1 $138 $138 $85 $139 forward $133 $-1 #
edge $-1 $221 -4.0335713934611979e-017 $221 6.2831853071796004 $138 $222 forward 7 unknown #
face $-1 $223 $224 $21 $-1 $225 reversed single #
loop $-1 $-1 $226 $86 #
plane-surface $-1 0 -35.763529079852859 0 0 1 0 0 0 1 forward_v I I I I #
coedge $-1 $227 $89 $228 $229 forward $57 $-1 #
coedge $-1 $89 $227 $230 $231 forward $57 $-1 #
coedge $-1 $91 $90 $89 $146 reversed $36 $-1 #
edge $-1 $232 -35.763529079852859 $233 35.763529079852859 $145 $234 forward 7 unknown #
coedge $-1 $235 $228 $90 $148 forward $236 $-1 #
edge $-1 $233 -11.075375682390787 $153 11.075375682390787 $90 $237 forward 7 unknown #
coedge $-1 $230 $238 $91 $150 reversed $141 $-1 #
edge $-1 $232 -11.075375682390787 $154 11.075375682390787 $91 $239 forward 7 unknown #
coedge $-1 $240 $92 $238 $241 forward $87 $-1 #
coedge $-1 $92 $240 $235 $242 forward $87 $-1 #
vertex $-1 $93 $243 #
vertex $-1 $150 $244 #
straight-curve $-1 64.875026703695795 0 -11.075375682390787 0 -1 0 I I #
face $-1 $245 $246 $22 $-1 $247 forward single #
loop $-1 $-1 $248 $94 #
plane-surface $-1 -73.40102105519253 0 9.2603282298662872 1 0 0 0 0 -1 forward_v I I I I #
coedge $-1 $249 $97 $166 $250 reversed $61 $-1 #
coedge $-1 $97 $249 $251 $252 reversed $61 $-1 #
edge $-1 $253 -11.075375682390787 $168 -7.4452807773417877 $97 $254 forward 7 unknown #
coedge $-1 $99 $98 $255 $256 reversed $39 $-1 #
coedge $-1 $257 $258 $99 $164 forward $259 $-1 #
edge $-1 $167 7.4452807773417877 $260 11.075375682390787 $163 $261 forward 7 unknown #
coedge $-1 $262 $100 $258 $263 forward $95 $-1 #
coedge $-1 $100 $262 $159 $250 forward $95 $-1 #
vertex $-1 $164 $264 #
vertex $-1 $161 $265 #
straight-curve $-1 -64.875026703695795 0 7.4452807773417877 0 1 0 I I #
face $-1 $266 $267 $23 $-1 $268 reversed single #
loop $-1 $-1 $269 $102 #
plane-surface $-1 70.866356416617322 -13.612777715071285 0 0 -1 0 0 0 -1 forward_v I I I I #
coedge $-1 $270 $105 $271 $272 forward $65 $-1 #
coedge $-1 $105 $270 $179 $273 forward $65 $-1 #
edge $-1 $181 -16.612777715071285 $274 -13.612777715071285 $105 $275 forward 7 unknown #
coedge $-1 $107 $106 $276 $277 forward $42 $-1 #
coedge $-1 $278 $279 $106 $178 forward $280 $-1 #
edge $-1 $281 13.612777715071285 $182 16.612777715071285 $177 $282 forward 7 unknown #
coedge $-1 $283 $108 $174 $273 reversed $103 $-1 #
coedge $-1 $108 $283 $278 $284 reversed $103 $-1 #
vertex $-1 $175 $285 #
vertex $-1 $284 $286 #
straight-curve $-1 64.875026703695795 -16.612777715071285 0 0 0 1 I I #
face $-1 $-1 $196 $24 $-1 $287 forward single #
loop $-1 $-1 $288 $110 #
plane-surface $-1 0 35.763529079852859 0 0 -1 0 0 0 -1 forward_v I I I I #
coedge $-1 $289 $290 $291 $292 reversed $111 $-1 #
coedge $-1 $293 $113 $115 $194 forward $69 $-1 #
coedge $-1 $113 $293 $289 $294 forward $69 $-1 #
coedge $-1 $291 $116 $113 $191 forward $196 $-1 #
edge $-1 $198 2.3170988819419094 $295 14.962856898749955 $190 $296 forward 7 unknown #
coedge $-1 $297 $298 $114 $193 forward $185 $-1 #
edge $-1 $299 -69.979808950564063 $197 -61.966062105184349 $192 $300 forward 7 unknown #
edge $-1 $198 59.99081661705975 $299 71.527058159705689 $115 $301 forward 7 unknown #
coedge $-1 $116 $291 $297 $302 forward $196 $-1 #
loop $-1 $-1 $291 $184 #
vertex $-1 $193 $303 #
vertex $-1 $117 $304 #
straight-curve $-1 10.957076772287841 37.221615816960586 11.075375682390785 0 -1 0 I I #
coedge $-1 $200 $200 $-1 $305 reversed $120 $-1 #
edge $-1 $306 0 $306 6.2831853071796004 $121 $307 forward 7 unknown #
vertex $-1 $124 $308 #
ellipse-curve $-1 17.279955780691878 31.614290281337002 7.0685022597009262 0 0.69465837861970381 0.71933979245794832 2.5 0 0 1 I I #
face $-1 $-1 $309 $26 $-1 $310 reversed single #
loop $-1 $-1 $131 $125 #
plane-surface $-1 0 0 11.075375682390787 0 0 1 1 0 0 forward_v I I I I #
coedge $-1 $311 $312 $313 $314 reversed $126 $-1 #
coedge $-1 $315 $128 $130 $214 forward $78 $-1 #
coedge $-1 $128 $315 $311 $316 forward $78 $-1 #
coedge $-1 $313 $131 $128 $211 forward $205 $-1 #
edge $-1 $217 -29.74014505954716 $317 -16.564299377063946 $210 $318 forward 7 unknown #
coedge $-1 $319 $320 $129 $213 forward $309 $-1 #
edge $-1 $321 -35.446589509527691 $216 -31.563564787398519 $212 $322 forward 7 unknown #
edge $-1 $217 -4.862073666012936 $321 2.3448253187574213e-014 $130 $323 forward 7 unknown #
coedge $-1 $131 $313 $319 $324 forward $205 $-1 #
vertex $-1 $132 $325 #
vertex $-1 $132 $326 #
straight-curve $-1 52.892367277852713 -69.693265114292529 11.075375682390785 0 1 0 I I #
coedge $-1 $219 $219 $-1 $327 reversed $135 $-1 #
edge $-1 $328 0 $328 6.2831853071796004 $136 $329 forward 7 unknown #
vertex $-1 $139 $330 #
ellipse-curve $-1 46.304444436611107 -34.300494618444787 9.1338633213262028 0 -0.79863551827123203 0.60181501223851219 0.5 0 0 1 I I #
face $-1 $-1 $236 $21 $-1 $331 reversed single #
loop $-1 $-1 $332 $140 #
plane-surface $-1 -64.875026703695795 0 0 1 0 0 0 0 -1 forward_v I I I I #
coedge $-1 $238 $230 $333 $334 forward $141 $-1 #
coedge $-1 $144 $143 $335 $336 forward $57 $-1 #
coedge $-1 $147 $337 $143 $229 reversed $236 $-1 #
edge $-1 $233 -64.875026703695795 $338 64.875026703695795 $228 $339 forward 7 unknown #
coedge $-1 $226 $149 $144 $231 reversed $141 $-1 #
edge $-1 $340 -64.875026703695795 $232 64.875026703695795 $230 $341 forward 7 unknown #
vertex $-1 $146 $342 #
vertex $-1 $146 $343 #
straight-curve $-1 64.875026703695795 0 11.075375682390787 0 1 0 I I #
coedge $-1 $337 $147 $152 $242 reversed $236 $-1 #
loop $-1 $-1 $147 $223 #
straight-curve $-1 64.875026703695795 35.763529079852859 0 0 0 -1 I I #
coedge $-1 $149 $226 $151 $241 reversed $141 $-1 #
straight-curve $-1 64.875026703695795 -35.763529079852859 0 0 0 -1 I I #
coedge $-1 $152 $151 $344 $345 forward $87 $-1 #
edge $-1 $154 -64.875026703695795 $346 64.875026703695795 $238 $347 forward 7 unknown #
edge $-1 $348 -64.875026703695795 $153 64.875026703695795 $235 $349 forward 7 unknown #
point $-1 64.875026703695795 35.763529079852859 -11.075375682390787 #
point $-1 64.875026703695795 -35.763529079852859 -11.075375682390787 #
face $-1 $-1 $259 $22 $-1 $350 reversed single #
loop $-1 $-1 $255 $156 #
plane-surface $-1 0 0 11.075375682390787 0 0 1 1 0 0 forward_v I I I I #
coedge $-1 $351 $352 $249 $353 forward $157 $-1 #
coedge $-1 $160 $159 $248 $353 reversed $61 $-1 #
edge $-1 $354 -4.2629971757483673 $168 4.2629971757483673 $159 $355 forward 7 unknown #
coedge $-1 $356 $255 $160 $252 forward $246 $-1 #
edge $-1 $253 64.875026703695795 $357 73.40102105519253 $160 $358 forward 7 unknown #
vertex $-1 $252 $359 #
straight-curve $-1 -64.875026703695795 35.763529079852859 0 0 0 -1 I I #
coedge $-1 $251 $360 $162 $256 forward $246 $-1 #
edge $-1 $260 -35.763529079852859 $253 35.763529079852859 $255 $361 forward 7 unknown #
coedge $-1 $362 $163 $360 $363 reversed $259 $-1 #
coedge $-1 $163 $362 $165 $263 reversed $259 $-1 #
loop $-1 $-1 $163 $245 #
vertex $-1 $164 $364 #
straight-curve $-1 -64.875026703695795 -35.763529079852859 0 0 0 1 I I #
coedge $-1 $166 $165 $351 $365 forward $95 $-1 #
edge $-1 $167 -4.2629971757483673 $366 4.2629971757483673 $258 $367 forward 7 unknown #
point $-1 -64.875026703695795 -35.763529079852859 7.4452807773417877 #
point $-1 -64.875026703695795 35.763529079852859 7.4452807773417877 #
face $-1 $-1 $280 $23 $-1 $368 forward single #
loop $-1 $-1 $369 $170 #
plane-surface $-1 76.857686129538848 -15.112777715071285 0 -1 0 0 0 0 1 forward_v I I I I #
coedge $-1 $271 $370 $371 $372 forward $171 $-1 #
coedge $-1 $174 $173 $373 $374 forward $65 $-1 #
coedge $-1 $276 $269 $173 $272 reversed $171 $-1 #
edge $-1 $274 -5.9913297129215266 $375 5.9913297129215266 $271 $376 forward 7 unknown #
edge $-1 $377 -5.9913297129215266 $181 5.9913297129215266 $179 $378 forward 7 unknown #
vertex $-1 $272 $379 #
straight-curve $-1 64.875026703695795 0 -11.075375682390787 0 1 0 I I #
coedge $-1 $370 $271 $176 $277 reversed $171 $-1 #
edge $-1 $281 -11.075375682390787 $274 11.075375682390787 $276 $380 forward 7 unknown #
coedge $-1 $381 $177 $180 $284 forward $280 $-1 #
coedge $-1 $177 $381 $370 $382 forward $280 $-1 #
loop $-1 $-1 $177 $266 #
vertex $-1 $178 $383 #
straight-curve $-1 64.875026703695795 0 11.075375682390787 0 -1 0 I I #
coedge $-1 $180 $179 $369 $384 reversed $103 $-1 #
edge $-1 $182 -5.9913297129215266 $385 5.9913297129215266 $180 $386 forward 7 unknown #
point $-1 64.875026703695795 -16.612777715071285 -11.075375682390787 #
point $-1 64.875026703695795 -16.612777715071285 11.075375682390787 #
plane-surface $-1 0 0 11.075375682390787 0 0 1 1 0 0 forward_v I I I I #
coedge $-1 $298 $297 $290 $387 forward $185 $-1 #
coedge $-1 $290 $187 $189 $294 reversed $111 $-1 #
coedge $-1 $187 $289 $288 $387 reversed $111 $-1 #
coedge $-1 $195 $190 $187 $292 forward $196 $-1 #
edge $-1 $295 -9.7565643341394335 $388 -1.4580867371077275 $291 $389 forward 7 unknown #
coedge $-1 $189 $188 $298 $390 reversed $69 $-1 #
edge $-1 $391 -71.527058159705689 $295 -59.99081661705975 $289 $392 forward 7 unknown #
vertex $-1 $191 $393 #
straight-curve $-1 8.6399778903459321 27.465051482821153 11.075375682390785 1 0 0 I I #
coedge $-1 $288 $192 $195 $302 reversed $185 $-1 #
coedge $-1 $192 $288 $293 $390 forward $185 $-1 #
vertex $-1 $193 $394 #
straight-curve $-1 10.957076772287841 35.763529079852859 73.041437787575134 0 0 1 I I #
straight-curve $-1 10.957076772287841 -15.688730091877446 52.748499085669494 0 0.71933979245794832 -0.69465837861970381 I I #
edge $-1 $388 -23.602834789095887 $197 -10.957076772287841 $297 $395 forward 7 unknown #
point $-1 10.957076772287841 35.763529079852859 11.075375682390787 #
point $-1 10.957076772287841 27.465051482821153 11.075375682390785 #
edge $-1 $396 1 $396 0 $200 $-1 forward 7 unknown #
vertex $-1 $201 $397 #
ellipse-curve $-1 17.279955780691878 27.269415924448602 2.5692532556793206 0 0.69465837861970381 0.71933979245794832 2.5 0 0 1 I I #
point $-1 19.779955780691878 31.614290281336988 7.0685022597009084 #
loop $-1 $-1 $212 $204 #
plane-surface $-1 0 -35.763529079852859 0 0 1 0 0 0 1 forward_v I I I I #
coedge $-1 $312 $207 $209 $316 reversed $126 $-1 #
coedge $-1 $207 $311 $398 $399 reversed $126 $-1 #
coedge $-1 $215 $210 $207 $314 forward $205 $-1 #
edge $-1 $317 -36.855804957255806 $400 -33.929736034439671 $313 $401 forward 7 unknown #
coedge $-1 $209 $208 $320 $402 reversed $78 $-1 #
edge $-1 $403 -2.3448253187574213e-014 $317 4.862073666012936 $311 $404 forward 7 unknown #
vertex $-1 $211 $405 #
straight-curve $-1 23.152222218305553 -32.837460157036716 11.075375682390787 -1 0 0 I I #
coedge $-1 $398 $212 $215 $324 reversed $309 $-1 #
coedge $-1 $212 $398 $315 $402 forward $309 $-1 #
vertex $-1 $213 $406 #
straight-curve $-1 52.892367277852713 -35.763529079852859 42.638940469789304 0 0 1 I I #
straight-curve $-1 52.892367277852713 -35.763529079852844 7.1923509602616349 0 -0.60181501223851219 -0.79863551827123203 I I #
edge $-1 $400 39.7165215953695 $216 52.892367277852713 $319 $407 forward 7 unknown #
point $-1 52.892367277852713 -35.763529079852859 11.075375682390787 #
point $-1 52.892367277852713 -32.837460157036723 11.075375682390787 #
edge $-1 $408 1 $408 0 $219 $-1 forward 7 unknown #
vertex $-1 $220 $409 #
ellipse-curve $-1 46.304444436611107 -32.966600009724189 8.1287016650931285 0 -0.79863551827123203 0.60181501223851219 0.5 0 0 1 I I #
point $-1 46.804444436611107 -34.300494618444795 9.1338633213262082 #
plane-surface $-1 0 35.763529079852859 0 0 -1 0 0 0 -1 forward_v I I I I #
coedge $-1 $344 $335 $337 $410 forward $224 $-1 #
coedge $-1 $335 $344 $226 $334 reversed $224 $-1 #
edge $-1 $340 -11.075375682390787 $346 11.075375682390787 $333 $411 forward 7 unknown #
coedge $-1 $332 $333 $227 $336 reversed $224 $-1 #
edge $-1 $338 -35.763529079852859 $340 35.763529079852859 $335 $412 forward 7 unknown #
coedge $-1 $228 $235 $332 $410 reversed $236 $-1 #
vertex $-1 $229 $413 #
straight-curve $-1 0 35.763529079852859 11.075375682390787 -1 0 0 I I #
vertex $-1 $336 $414 #
straight-curve $-1 0 -35.763529079852859 11.075375682390787 1 0 0 I I #
point $-1 64.875026703695795 -35.763529079852859 11.075375682390787 #
point $-1 64.875026703695795 35.763529079852859 11.075375682390787 #
coedge $-1 $333 $332 $240 $345 reversed $224 $-1 #
edge $-1 $346 -35.763529079852859 $348 35.763529079852859 $344 $415 forward 7 unknown #
vertex $-1 $345 $416 #
straight-curve $-1 0 -35.763529079852859 -11.075375682390787 -1 0 0 I I #
vertex $-1 $242 $417 #
straight-curve $-1 0 35.763529079852859 -11.075375682390787 1 0 0 I I #
plane-surface $-1 0 -35.763529079852859 0 0 1 0 0 0 1 forward_v I I I I #
coedge $-1 $418 $248 $262 $365 reversed $157 $-1 #
coedge $-1 $248 $418 $356 $419 reversed $157 $-1 #
edge $-1 $357 -1.8150474525244995 $354 1.8150474525244995 $249 $420 forward 7 unknown #
vertex $-1 $250 $421 #
straight-curve $-1 -69.138023879444162 35.763529079852859 7.4452807773417877 1 0 0 I I #
coedge $-1 $360 $251 $352 $419 forward $246 $-1 #
vertex $-1 $252 $422 #
straight-curve $-1 0 35.763529079852859 11.075375682390787 -1 0 0 I I #
point $-1 -64.875026703695795 35.763529079852859 11.075375682390787 #
coedge $-1 $255 $356 $257 $363 forward $246 $-1 #
straight-curve $-1 -64.875026703695795 0 11.075375682390787 0 1 0 I I #
coedge $-1 $258 $257 $418 $423 forward $259 $-1 #
edge $-1 $424 -73.40102105519253 $260 -64.875026703695795 $257 $425 forward 7 unknown #
point $-1 -64.875026703695795 -35.763529079852859 11.075375682390787 #
edge $-1 $366 -35.763529079852859 $354 35.763529079852859 $351 $426 forward 7 unknown #
vertex $-1 $365 $427 #
straight-curve $-1 -69.138023879444162 -35.763529079852859 7.4452807773417877 -1 0 0 I I #
plane-surface $-1 0 0 11.075375682390787 0 0 1 1 0 0 forward_v I I I I #
coedge $-1 $373 $428 $283 $384 forward $267 $-1 #
coedge $-1 $269 $276 $279 $382 reversed $171 $-1 #
coedge $-1 $428 $373 $269 $372 reversed $267 $-1 #
edge $-1 $429 -11.075375682390787 $375 11.075375682390787 $371 $430 forward 7 unknown #
coedge $-1 $371 $369 $270 $374 reversed $267 $-1 #
edge $-1 $375 -1.5 $377 1.5 $373 $431 forward 7 unknown #
vertex $-1 $374 $432 #
straight-curve $-1 70.866356416617322 -13.612777715071285 -11.075375682390787 1 0 0 I I #
vertex $-1 $384 $433 #
straight-curve $-1 70.866356416617322 -16.612777715071285 -11.075375682390787 -1 0 0 I I #
point $-1 64.875026703695795 -13.612777715071285 -11.075375682390787 #
straight-curve $-1 64.875026703695795 -13.612777715071285 0 0 0 -1 I I #
coedge $-1 $279 $278 $428 $434 forward $280 $-1 #
edge $-1 $429 -5.9913297129215266 $281 5.9913297129215266 $370 $435 forward 7 unknown #
point $-1 64.875026703695795 -13.612777715071285 11.075375682390787 #
edge $-1 $385 -11.075375682390787 $377 11.075375682390787 $369 $436 forward 7 unknown #
vertex $-1 $434 $437 #
straight-curve $-1 70.866356416617322 -16.612777715071285 11.075375682390787 1 0 0 I I #
edge $-1 $388 61.966062105184349 $391 69.979808950564063 $288 $438 forward 7 unknown #
vertex $-1 $302 $439 #
straight-curve $-1 23.602834789095887 37.221615816960586 11.075375682390785 0 1 0 I I #
edge $-1 $391 -14.962856898749955 $299 -2.3170988819419094 $298 $440 forward 7 unknown #
vertex $-1 $390 $441 #
straight-curve $-1 23.602834789095887 -15.688730091877446 52.748499085669494 0 -0.71933979245794832 0.69465837861970381 I I #
point $-1 23.602834789095887 27.465051482821153 11.075375682390785 #
point $-1 10.957076772287841 35.763529079852852 3.0616288370110709 #
straight-curve $-1 0 35.763529079852859 11.075375682390787 -1 0 0 I I #
vertex $-1 $305 $442 #
point $-1 19.779955780691878 27.269415924448602 2.5692532556793206 #
coedge $-1 $320 $319 $312 $399 forward $309 $-1 #
edge $-1 $400 31.563564787398519 $403 35.446589509527691 $398 $443 forward 7 unknown #
vertex $-1 $324 $444 #
straight-curve $-1 39.7165215953695 -69.693265114292529 11.075375682390785 0 -1 0 I I #
edge $-1 $403 16.564299377063946 $321 29.74014505954716 $320 $445 forward 7 unknown #
vertex $-1 $402 $446 #
straight-curve $-1 39.7165215953695 -35.763529079852844 7.1923509602616349 0 0.60181501223851219 0.79863551827123203 I I #
point $-1 39.7165215953695 -32.837460157036723 11.075375682390787 #
point $-1 52.892367277852713 -35.763529079852859 7.1923509602616162 #
straight-curve $-1 0 -35.763529079852859 11.075375682390787 1 0 0 I I #
vertex $-1 $327 $447 #
point $-1 46.804444436611107 -32.966600009724189 8.1287016650931285 #
edge $-1 $338 -11.075375682390787 $348 11.075375682390787 $337 $448 forward 7 unknown #
straight-curve $-1 -64.875026703695795 -35.763529079852859 0 0 0 -1 I I #
straight-curve $-1 -64.875026703695795 0 11.075375682390787 0 -1 0 I I #
point $-1 -64.875026703695795 35.763529079852859 11.075375682390787 #
point $-1 -64.875026703695795 -35.763529079852859 11.075375682390787 #
straight-curve $-1 -64.875026703695795 0 -11.075375682390787 0 1 0 I I #
point $-1 -64.875026703695795 -35.763529079852859 -11.075375682390787 #
point $-1 -64.875026703695795 35.763529079852859 -11.075375682390787 #
coedge $-1 $352 $351 $362 $423 reversed $157 $-1 #
edge $-1 $357 -35.763529079852859 $424 35.763529079852859 $352 $449 forward 7 unknown #
straight-curve $-1 -73.40102105519253 35.763529079852859 9.2603282298662872 0 0 -1 I I #
point $-1 -73.40102105519253 35.763529079852859 7.4452807773417877 #
point $-1 -73.40102105519253 35.763529079852859 11.075375682390787 #
edge $-1 $424 -1.8150474525244995 $366 1.8150474525244995 $418 $450 forward 7 unknown #
vertex $-1 $419 $451 #
straight-curve $-1 0 -35.763529079852859 11.075375682390787 1 0 0 I I #
straight-curve $-1 -73.40102105519253 0 7.4452807773417877 0 1 0 I I #
point $-1 -73.40102105519253 -35.763529079852859 7.4452807773417877 #
coedge $-1 $369 $371 $381 $434 reversed $267 $-1 #
vertex $-1 $434 $452 #
straight-curve $-1 76.857686129538848 -13.612777715071285 0 0 0 -1 I I #
straight-curve $-1 76.857686129538848 -15.112777715071285 -11.075375682390787 0 -1 0 I I #
point $-1 76.857686129538848 -13.612777715071285 -11.075375682390787 #
point $-1 76.857686129538848 -16.612777715071285 -11.075375682390787 #
edge $-1 $385 -1.5 $429 1.5 $428 $453 forward 7 unknown #
straight-curve $-1 70.866356416617322 -13.612777715071285 11.075375682390787 -1 0 0 I I #
straight-curve $-1 76.857686129538848 -16.612777715071285 0 0 0 -1 I I #
point $-1 76.857686129538848 -16.612777715071285 11.075375682390787 #
straight-curve $-1 23.602834789095887 35.763529079852859 73.041437787575134 0 0 -1 I I #
point $-1 23.602834789095887 35.763529079852859 11.075375682390787 #
straight-curve $-1 8.6399778903459321 35.763529079852852 3.0616288370110745 -1 0 0 I I #
point $-1 23.602834789095887 35.763529079852852 3.0616288370110709 #
point $-1 17.279955780691878 25.532769977899342 0.77090377453444991 #
straight-curve $-1 39.7165215953695 -35.763529079852859 42.638940469789304 0 0 -1 I I #
point $-1 39.7165215953695 -35.763529079852859 11.075375682390787 #
straight-curve $-1 23.152222218305553 -35.763529079852859 7.1923509602616171 1 0 0 I I #
point $-1 39.7165215953695 -35.763529079852859 7.1923509602616162 #
point $-1 46.304444436611107 -32.567282250588576 7.8277941589738731 #
straight-curve $-1 -64.875026703695795 35.763529079852859 0 0 0 -1 I I #
straight-curve $-1 -73.40102105519253 0 11.075375682390787 0 -1 0 I I #
straight-curve $-1 -73.40102105519253 -35.763529079852859 9.2603282298662872 0 0 -1 I I #
point $-1 -73.40102105519253 -35.763529079852859 11.075375682390787 #
point $-1 76.857686129538848 -13.612777715071285 11.075375682390787 #
straight-curve $-1 76.857686129538848 -15.112777715071285 11.075375682390787 0 1 0 I I #
End-of-ACIS-data 