500 0 5 0           
7 Unknown 11 ACIS 5.0 NT 24 Fri Mar 26 16:43:37 1999 
-1 9.9999999999999995e-007 1e-010 
body $-1 $5 $-1 $6 #
body $-1 $7 $-1 $8 #
body $-1 $9 $-1 $10 #
body $-1 $11 $-1 $12 #
body $-1 $13 $-1 $14 #
lump $-1 $-1 $15 $0 #
transform $-1 1 0 0 0 1 0 0 0 1 75.123142185735645 36.11422346684607 13.262418708494893 1 rotate no_reflect no_shear #
lump $-1 $-1 $16 $1 #
transform $-1 1 0 0 0 1 0 0 0 1 75.123142185735645 36.11422346684607 13.262418708494893 1 rotate no_reflect no_shear #
lump $-1 $-1 $17 $2 #
transform $-1 1 0 0 0 1 0 0 0 1 75.123142185735645 36.11422346684607 13.262418708494893 1 rotate no_reflect no_shear #
lump $-1 $-1 $18 $3 #
transform $-1 1 0 0 0 1 0 0 0 1 75.123142185735645 36.11422346684607 13.262418708494893 1 rotate no_reflect no_shear #
lump $-1 $-1 $19 $4 #
transform $-1 1 0 0 0 1 0 0 0 1 75.123142185735645 36.11422346684607 13.262418708494893 1 rotate no_reflect no_shear #
shell $-1 $-1 $-1 $20 $-1 $5 #
shell $-1 $-1 $-1 $21 $-1 $7 #
shell $-1 $-1 $-1 $22 $-1 $9 #
shell $-1 $-1 $-1 $23 $-1 $11 #
shell $-1 $-1 $-1 $24 $-1 $13 #
face $-1 $25 $26 $15 $-1 $27 forward single #
face $-1 $28 $29 $16 $-1 $30 forward single #
face $-1 $31 $32 $17 $-1 $33 reversed single #
face $-1 $34 $35 $18 $-1 $36 forward single #
face $-1 $37 $38 $19 $-1 $39 forward single #
face $-1 $40 $41 $15 $-1 $42 reversed single #
loop $-1 $-1 $43 $20 #
plane-surface $-1 0 0 13.262418708494893 0 0 1 1 0 0 forward_v I I I I #
face $-1 $44 $45 $16 $-1 $46 reversed single #
loop $-1 $-1 $47 $21 #
plane-surface $-1 -68.146390300899 0 -5.8845684108726939 0 0 1 1 0 0 forward_v I I I I #
face $-1 $48 $49 $17 $-1 $50 reversed single #
loop $-1 $-1 $51 $22 #
plane-surface $-1 -32.521971526781002 85.757402750911922 167.06070853895065 1 0 0 0 -0.68199836817093118 -0.7313536940579346 forward_v I I I I #
face $-1 $52 $53 $18 $-1 $54 forward single #
loop $-1 $55 $56 $23 #
cone-surface $-1 -25.974874424614924 32.67346022638322 9.9734266900139854 0 -0.68199836817093118 -0.7313536940579346 1 0 0 1 I I 0 1 1 forward I I I I #
face $-1 $57 $58 $19 $-1 $59 forward single #
loop $-1 $60 $61 $24 #
cone-surface $-1 -16.154228771365808 32.67346022638322 9.9734266900139854 0 -0.68199836817093118 -0.7313536940579346 1 0 0 1 I I 0 1 1 forward I I I I #
face $-1 $62 $63 $15 $-1 $64 reversed single #
loop $-1 $-1 $65 $25 #
plane-surface $-1 0 0 -13.262418708494893 0 0 1 1 0 0 forward_v I I I I #
coedge $-1 $66 $67 $68 $69 forward $26 $-1 #
face $-1 $70 $71 $16 $-1 $72 reversed single #
loop $-1 $-1 $73 $28 #
plane-surface $-1 -61.169638416062355 0 -9.5734935596837936 -1 0 0 0 0 1 forward_v I I I I #
coedge $-1 $74 $75 $76 $77 forward $29 $-1 #
face $-1 $78 $79 $17 $-1 $80 reversed single #
loop $-1 $-1 $81 $31 #
plane-surface $-1 -21.064551597990366 -16.710318014177176 57.177533445396193 0 0.68199836817093118 0.7313536940579346 1 0 0 forward_v I I I I #
coedge $-1 $82 $83 $84 $85 reversed $32 $-1 #
face $-1 $-1 $86 $18 $-1 $87 forward single #
loop $-1 $88 $89 $34 #
cone-surface $-1 -25.974874424614924 31.757371595239832 8.9910419282028382 0 -0.68199836817093118 -0.7313536940579346 0.5 0 0 1 I I -0.70710678118654746 0.70710678118654746 0.5 forward I I I I #
loop $-1 $-1 $90 $23 #
coedge $-1 $56 $56 $91 $92 reversed $35 $-1 #
face $-1 $-1 $93 $19 $-1 $94 forward single #
loop $-1 $95 $96 $37 #
cone-surface $-1 -16.154228771365808 31.757371595239832 8.9910419282028382 0 -0.68199836817093118 -0.7313536940579346 0.5 0 0 1 I I -0.70710678118654746 0.70710678118654746 0.5 forward I I I I #
loop $-1 $-1 $97 $24 #
coedge $-1 $61 $61 $98 $99 reversed $38 $-1 #
face $-1 $100 $101 $15 $-1 $102 reversed single #
loop $-1 $-1 $103 $40 #
plane-surface $-1 0 -36.11422346684607 0 0 1 0 0 0 1 forward_v I I I I #
coedge $-1 $104 $105 $106 $107 forward $41 $-1 #
coedge $-1 $108 $43 $109 $110 forward $26 $-1 #
coedge $-1 $43 $108 $111 $112 forward $26 $-1 #
coedge $-1 $113 $114 $43 $69 reversed $115 $-1 #
edge $-1 $116 -36.11422346684607 $117 36.11422346684607 $68 $118 forward 7 unknown #
face $-1 $119 $120 $16 $-1 $121 reversed single #
loop $-1 $-1 $122 $44 #
plane-surface $-1 0 0 -13.262418708494893 0 0 1 1 0 0 forward_v I I I I #
coedge $-1 $123 $76 $124 $125 reversed $45 $-1 #
coedge $-1 $126 $47 $127 $128 reversed $29 $-1 #
coedge $-1 $47 $126 $129 $130 reversed $29 $-1 #
coedge $-1 $73 $131 $47 $77 reversed $45 $-1 #
edge $-1 $132 -36.11422346684607 $133 36.11422346684607 $76 $134 forward 7 unknown #
face $-1 $135 $136 $17 $-1 $137 reversed single #
loop $-1 $-1 $138 $48 #
plane-surface $-1 -9.607131669199731 85.757402750911922 167.06070853895065 -1 0 0 0 0.68199836817093118 0.7313536940579346 forward_v I I I I #
coedge $-1 $139 $140 $141 $142 reversed $49 $-1 #
coedge $-1 $83 $51 $143 $144 reversed $32 $-1 #
coedge $-1 $51 $82 $139 $145 reversed $32 $-1 #
coedge $-1 $141 $146 $51 $85 forward $147 $-1 #
edge $-1 $148 6.7644779086098907 $149 12.495825495419723 $84 $150 forward 7 unknown #
loop $-1 $-1 $91 $52 #
plane-surface $-1 -21.064551597990366 -16.710318014177176 57.177533445396193 0 0.68199836817093118 0.7313536940579346 1 0 0 forward_v I I I I #
loop $-1 $-1 $151 $34 #
coedge $-1 $89 $89 $90 $152 reversed $53 $-1 #
coedge $-1 $90 $90 $89 $152 forward $55 $-1 #
coedge $-1 $91 $91 $56 $92 forward $86 $-1 #
edge $-1 $153 8.6078178295941704e-016 $153 6.2831853071796013 $91 $154 forward 7 unknown #
loop $-1 $-1 $98 $57 #
plane-surface $-1 -21.064551597990366 -16.710318014177176 57.177533445396193 0 0.68199836817093118 0.7313536940579346 1 0 0 forward_v I I I I #
loop $-1 $-1 $155 $37 #
coedge $-1 $96 $96 $97 $156 reversed $58 $-1 #
coedge $-1 $97 $97 $96 $156 forward $60 $-1 #
coedge $-1 $98 $98 $61 $99 forward $93 $-1 #
edge $-1 $157 8.6078178295941704e-016 $157 6.2831853071796013 $98 $158 forward 7 unknown #
face $-1 $159 $160 $15 $-1 $161 reversed single #
loop $-1 $-1 $162 $62 #
plane-surface $-1 -75.123142185735645 0 0 1 0 0 0 0 -1 forward_v I I I I #
coedge $-1 $163 $111 $164 $165 forward $63 $-1 #
coedge $-1 $166 $65 $163 $167 forward $41 $-1 #
coedge $-1 $65 $166 $168 $169 forward $41 $-1 #
coedge $-1 $114 $113 $65 $107 reversed $115 $-1 #
edge $-1 $170 -36.11422346684607 $171 36.11422346684607 $106 $172 forward 7 unknown #
coedge $-1 $67 $66 $173 $174 forward $26 $-1 #
coedge $-1 $175 $176 $66 $110 reversed $160 $-1 #
edge $-1 $117 -75.123142185735645 $177 75.123142185735645 $109 $178 forward 7 unknown #
coedge $-1 $103 $179 $67 $112 reversed $63 $-1 #
edge $-1 $180 -75.123142185735645 $116 75.123142185735645 $111 $181 forward 7 unknown #
coedge $-1 $106 $68 $179 $182 forward $115 $-1 #
coedge $-1 $68 $106 $175 $183 reversed $115 $-1 #
loop $-1 $-1 $113 $159 #
vertex $-1 $69 $184 #
vertex $-1 $69 $185 #
straight-curve $-1 75.123142185735645 0 13.262418708494893 0 1 0 I I #
face $-1 $186 $187 $16 $-1 $188 reversed single #
loop $-1 $-1 $124 $70 #
plane-surface $-1 0 -36.11422346684607 0 0 1 0 0 0 1 forward_v I I I I #
coedge $-1 $189 $190 $123 $191 forward $71 $-1 #
coedge $-1 $131 $73 $122 $191 reversed $45 $-1 #
coedge $-1 $129 $192 $73 $125 forward $120 $-1 #
edge $-1 $193 -8.4756719286529965 $132 -1.0978216310307971 $124 $194 forward 7 unknown #
coedge $-1 $75 $74 $195 $196 reversed $29 $-1 #
coedge $-1 $197 $198 $74 $128 forward $199 $-1 #
edge $-1 $200 -41.049947035286145 $133 -27.096443265612855 $127 $201 forward 7 unknown #
coedge $-1 $202 $124 $75 $130 forward $120 $-1 #
edge $-1 $132 27.096443265612855 $203 41.049947035286145 $129 $204 forward 7 unknown #
coedge $-1 $76 $123 $197 $205 reversed $45 $-1 #
vertex $-1 $130 $206 #
vertex $-1 $128 $207 #
straight-curve $-1 -61.169638416062355 0 -5.8845684108726939 0 1 0 I I #
face $-1 $-1 $147 $17 $-1 $208 forward single #
loop $-1 $-1 $209 $78 #
plane-surface $-1 0 36.11422346684607 0 0 -1 0 0 0 -1 forward_v I I I I #
coedge $-1 $210 $211 $212 $213 reversed $79 $-1 #
coedge $-1 $214 $81 $83 $145 forward $49 $-1 #
coedge $-1 $81 $214 $210 $215 forward $49 $-1 #
coedge $-1 $212 $84 $81 $142 forward $147 $-1 #
edge $-1 $149 -21.989695727785818 $216 0.92514412979545213 $141 $217 forward 7 unknown #
coedge $-1 $218 $219 $82 $144 forward $136 $-1 #
edge $-1 $220 -75.612503768377877 $148 -70.267935560980433 $143 $221 forward 7 unknown #
edge $-1 $149 64.391817908125446 $220 72.22844693369214 $83 $222 forward 7 unknown #
coedge $-1 $84 $212 $218 $223 forward $147 $-1 #
loop $-1 $-1 $212 $135 #
vertex $-1 $144 $224 #
vertex $-1 $85 $225 #
straight-curve $-1 -32.521971526781002 42.878701375455961 13.262418708494891 0 -1 0 I I #
coedge $-1 $151 $151 $-1 $226 reversed $88 $-1 #
edge $-1 $227 0 $227 6.2831853071796004 $89 $228 forward 7 unknown #
vertex $-1 $92 $229 #
ellipse-curve $-1 -25.974874424614924 33.248549673441147 10.590134604796177 0 0.68199836817093118 0.7313536940579346 1 0 0 1 I I #
coedge $-1 $155 $155 $-1 $230 reversed $95 $-1 #
edge $-1 $231 0 $231 6.2831853071796004 $96 $232 forward 7 unknown #
vertex $-1 $99 $233 #
ellipse-curve $-1 -16.154228771365808 33.248549673441147 10.590134604796177 0 0.68199836817093118 0.7313536940579346 1 0 0 1 I I #
face $-1 $-1 $115 $15 $-1 $234 reversed single #
loop $-1 $-1 $175 $100 #
plane-surface $-1 0 36.11422346684607 0 0 -1 0 0 0 -1 forward_v I I I I #
coedge $-1 $235 $173 $176 $236 forward $101 $-1 #
coedge $-1 $179 $103 $104 $167 reversed $63 $-1 #
coedge $-1 $173 $235 $103 $165 reversed $101 $-1 #
edge $-1 $180 -13.262418708494893 $237 13.262418708494893 $164 $238 forward 7 unknown #
coedge $-1 $105 $104 $235 $239 forward $41 $-1 #
edge $-1 $171 -75.123142185735645 $237 75.123142185735645 $163 $240 forward 7 unknown #
coedge $-1 $176 $175 $105 $169 reversed $160 $-1 #
edge $-1 $241 -75.123142185735645 $170 75.123142185735645 $168 $242 forward 7 unknown #
vertex $-1 $107 $243 #
vertex $-1 $182 $244 #
straight-curve $-1 75.123142185735645 0 -13.262418708494893 0 -1 0 I I #
coedge $-1 $162 $164 $108 $174 reversed $101 $-1 #
edge $-1 $177 -36.11422346684607 $180 36.11422346684607 $173 $245 forward 7 unknown #
coedge $-1 $168 $109 $114 $183 forward $160 $-1 #
coedge $-1 $109 $168 $162 $236 reversed $160 $-1 #
vertex $-1 $110 $246 #
straight-curve $-1 0 36.11422346684607 13.262418708494893 -1 0 0 I I #
coedge $-1 $111 $163 $113 $182 reversed $63 $-1 #
vertex $-1 $174 $247 #
straight-curve $-1 0 -36.11422346684607 13.262418708494893 1 0 0 I I #
edge $-1 $116 -13.262418708494893 $171 13.262418708494893 $113 $248 forward 7 unknown #
edge $-1 $117 -13.262418708494893 $170 13.262418708494893 $114 $249 forward 7 unknown #
point $-1 75.123142185735645 -36.11422346684607 13.262418708494893 #
point $-1 75.123142185735645 36.11422346684607 13.262418708494893 #
face $-1 $-1 $199 $16 $-1 $250 reversed single #
loop $-1 $-1 $195 $119 #
plane-surface $-1 -75.123142185735645 0 0 1 0 0 0 0 -1 forward_v I I I I #
coedge $-1 $251 $122 $192 $252 forward $71 $-1 #
coedge $-1 $122 $251 $253 $254 forward $71 $-1 #
edge $-1 $255 -36.11422346684607 $193 36.11422346684607 $122 $256 forward 7 unknown #
coedge $-1 $124 $202 $189 $252 reversed $120 $-1 #
vertex $-1 $252 $257 #
straight-curve $-1 -61.169638416062355 -36.11422346684607 -4.7867467798418968 0 0 1 I I #
coedge $-1 $258 $259 $126 $196 forward $187 $-1 #
edge $-1 $203 -36.11422346684607 $200 36.11422346684607 $195 $260 forward 7 unknown #
coedge $-1 $253 $127 $131 $205 forward $199 $-1 #
coedge $-1 $127 $253 $258 $261 reversed $199 $-1 #
loop $-1 $-1 $197 $186 #
vertex $-1 $261 $262 #
straight-curve $-1 -34.0731951504495 36.11422346684607 -5.8845684108726939 1 0 0 I I #
coedge $-1 $192 $129 $259 $263 forward $120 $-1 #
vertex $-1 $263 $264 #
straight-curve $-1 -34.0731951504495 -36.11422346684607 -5.8845684108726939 -1 0 0 I I #
edge $-1 $133 1.0978216310307971 $255 8.4756719286529965 $197 $265 forward 7 unknown #
point $-1 -61.169638416062355 -36.11422346684607 -5.8845684108726939 #
point $-1 -61.169638416062355 36.11422346684607 -5.8845684108726939 #
plane-surface $-1 0 0 13.262418708494893 0 0 1 1 0 0 forward_v I I I I #
coedge $-1 $219 $218 $211 $266 forward $136 $-1 #
coedge $-1 $211 $138 $140 $215 reversed $79 $-1 #
coedge $-1 $138 $210 $209 $266 reversed $79 $-1 #
coedge $-1 $146 $141 $138 $213 forward $147 $-1 #
edge $-1 $216 -12.495825495419723 $267 -6.7644779086098907 $212 $268 forward 7 unknown #
coedge $-1 $140 $139 $219 $269 reversed $49 $-1 #
edge $-1 $270 -72.22844693369214 $216 -64.391817908125446 $210 $271 forward 7 unknown #
vertex $-1 $142 $272 #
straight-curve $-1 -10.532275798995183 30.382875880036238 13.262418708494891 1 0 0 I I #
coedge $-1 $209 $143 $146 $223 reversed $136 $-1 #
coedge $-1 $143 $209 $214 $269 forward $136 $-1 #
vertex $-1 $144 $273 #
straight-curve $-1 -32.521971526781002 36.11422346684607 83.530354269475325 0 0 1 I I #
straight-curve $-1 -32.521971526781002 -16.710318014177176 57.177533445396193 0 0.7313536940579346 -0.68199836817093118 I I #
edge $-1 $267 9.607131669199731 $148 32.521971526781002 $218 $274 forward 7 unknown #
point $-1 -32.521971526781002 36.11422346684607 13.262418708494893 #
point $-1 -32.521971526781002 30.382875880036238 13.262418708494899 #
edge $-1 $275 1 $275 0 $151 $-1 forward 7 unknown #
vertex $-1 $152 $276 #
ellipse-curve $-1 -25.974874424614924 32.0983707793253 9.3567187752318048 0 0.68199836817093118 0.7313536940579346 1 0 0 1 I I #
point $-1 -24.974874424614924 33.24854967344114 10.590134604796168 #
edge $-1 $277 1 $277 0 $155 $-1 forward 7 unknown #
vertex $-1 $156 $278 #
ellipse-curve $-1 -16.154228771365808 32.0983707793253 9.3567187752318048 0 0.68199836817093118 0.7313536940579346 1 0 0 1 I I #
point $-1 -15.154228771365808 33.24854967344114 10.590134604796168 #
plane-surface $-1 75.123142185735645 0 0 -1 0 0 0 0 1 forward_v I I I I #
coedge $-1 $164 $162 $166 $239 reversed $101 $-1 #
edge $-1 $177 -13.262418708494893 $241 13.262418708494893 $176 $279 forward 7 unknown #
vertex $-1 $239 $280 #
straight-curve $-1 -75.123142185735645 -36.11422346684607 0 0 0 -1 I I #
edge $-1 $237 -36.11422346684607 $241 36.11422346684607 $235 $281 forward 7 unknown #
straight-curve $-1 0 -36.11422346684607 -13.262418708494893 -1 0 0 I I #
vertex $-1 $169 $282 #
straight-curve $-1 0 36.11422346684607 -13.262418708494893 1 0 0 I I #
point $-1 75.123142185735645 36.11422346684607 -13.262418708494893 #
point $-1 75.123142185735645 -36.11422346684607 -13.262418708494893 #
straight-curve $-1 -75.123142185735645 0 13.262418708494893 0 -1 0 I I #
point $-1 -75.123142185735645 36.11422346684607 13.262418708494893 #
point $-1 -75.123142185735645 -36.11422346684607 13.262418708494893 #
straight-curve $-1 75.123142185735645 -36.11422346684607 0 0 0 -1 I I #
straight-curve $-1 75.123142185735645 36.11422346684607 0 0 0 -1 I I #
plane-surface $-1 0 36.11422346684607 0 0 -1 0 0 0 -1 forward_v I I I I #
coedge $-1 $190 $189 $283 $284 forward $71 $-1 #
edge $-1 $193 61.169638416062355 $285 75.123142185735645 $192 $286 forward 7 unknown #
coedge $-1 $198 $197 $190 $254 reversed $199 $-1 #
edge $-1 $287 -75.123142185735645 $255 -61.169638416062355 $253 $288 forward 7 unknown #
vertex $-1 $205 $289 #
straight-curve $-1 -61.169638416062355 0 -13.262418708494893 0 -1 0 I I #
point $-1 -61.169638416062355 -36.11422346684607 -13.262418708494893 #
coedge $-1 $283 $195 $198 $261 forward $187 $-1 #
coedge $-1 $195 $283 $202 $263 reversed $187 $-1 #
straight-curve $-1 -75.123142185735645 0 -5.8845684108726939 0 1 0 I I #
edge $-1 $200 5.8845684108726939 $287 13.262418708494893 $198 $290 forward 7 unknown #
point $-1 -75.123142185735645 36.11422346684607 -5.8845684108726939 #
edge $-1 $203 5.8845684108726939 $285 13.262418708494893 $259 $291 forward 7 unknown #
point $-1 -75.123142185735645 -36.11422346684607 -5.8845684108726939 #
straight-curve $-1 -61.169638416062355 36.11422346684607 -4.7867467798418968 0 0 -1 I I #
edge $-1 $267 70.267935560980433 $270 75.612503768377877 $209 $292 forward 7 unknown #
vertex $-1 $223 $293 #
straight-curve $-1 -9.607131669199731 42.878701375455961 13.262418708494891 0 1 0 I I #
edge $-1 $270 -0.92514412979545213 $220 21.989695727785818 $219 $294 forward 7 unknown #
vertex $-1 $269 $295 #
straight-curve $-1 -9.607131669199731 -16.710318014177176 57.177533445396193 0 -0.7313536940579346 0.68199836817093118 I I #
point $-1 -9.607131669199731 30.382875880036238 13.262418708494899 #
point $-1 -32.521971526781002 36.11422346684607 7.9178505010974547 #
straight-curve $-1 0 36.11422346684607 13.262418708494893 -1 0 0 I I #
vertex $-1 $226 $296 #
point $-1 -24.974874424614924 32.0983707793253 9.3567187752318048 #
vertex $-1 $230 $297 #
point $-1 -15.154228771365808 32.0983707793253 9.3567187752318048 #
straight-curve $-1 -75.123142185735645 36.11422346684607 0 0 0 -1 I I #
point $-1 -75.123142185735645 -36.11422346684607 -13.262418708494893 #
straight-curve $-1 -75.123142185735645 0 -13.262418708494893 0 1 0 I I #
point $-1 -75.123142185735645 36.11422346684607 -13.262418708494893 #
coedge $-1 $259 $258 $251 $284 reversed $187 $-1 #
edge $-1 $285 -36.11422346684607 $287 36.11422346684607 $283 $298 forward 7 unknown #
vertex $-1 $284 $299 #
straight-curve $-1 0 -36.11422346684607 -13.262418708494893 -1 0 0 I I #
vertex $-1 $254 $300 #
straight-curve $-1 0 36.11422346684607 -13.262418708494893 1 0 0 I I #
point $-1 -61.169638416062355 36.11422346684607 -13.262418708494893 #
straight-curve $-1 -75.123142185735645 36.11422346684607 0 0 0 -1 I I #
straight-curve $-1 -75.123142185735645 -36.11422346684607 0 0 0 -1 I I #
straight-curve $-1 -9.607131669199731 36.11422346684607 83.530354269475325 0 0 -1 I I #
point $-1 -9.607131669199731 36.11422346684607 13.262418708494893 #
straight-curve $-1 -10.532275798995183 36.11422346684607 7.9178505010974582 -1 0 0 I I #
point $-1 -9.607131669199731 36.11422346684607 7.9178505010974547 #
point $-1 -25.974874424614924 31.416372411154367 8.6253650811738716 #
point $-1 -16.154228771365808 31.416372411154367 8.6253650811738716 #
straight-curve $-1 -75.123142185735645 0 -13.262418708494893 0 1 0 I I #
point $-1 -75.123142185735645 -36.11422346684607 -13.262418708494893 #
point $-1 -75.123142185735645 36.11422346684607 -13.262418708494893 #
End-of-ACIS-data 