500 0 7 0           
7 Unknown 11 ACIS 5.0 NT 24 Fri Mar 26 02:39:35 1999 
-1 9.9999999999999995e-007 1e-010 
body $-1 $7 $-1 $8 #
body $-1 $9 $-1 $10 #
body $-1 $11 $-1 $12 #
body $-1 $13 $-1 $14 #
body $-1 $15 $-1 $16 #
body $-1 $17 $-1 $18 #
body $-1 $19 $-1 $20 #
lump $-1 $-1 $21 $0 #
transform $-1 1 0 0 0 1 0 0 0 1 58.024231696523941 24.037370705128797 11.565109916699623 1 rotate no_reflect no_shear #
lump $-1 $-1 $22 $1 #
transform $-1 1 0 0 0 1 0 0 0 1 58.024231696523941 24.037370705128797 11.565109916699623 1 rotate no_reflect no_shear #
lump $-1 $-1 $23 $2 #
transform $-1 1 0 0 0 1 0 0 0 1 58.024231696523941 24.037370705128797 11.565109916699623 1 rotate no_reflect no_shear #
lump $-1 $-1 $24 $3 #
transform $-1 1 0 0 0 1 0 0 0 1 58.024231696523941 24.037370705128797 11.565109916699623 1 rotate no_reflect no_shear #
lump $-1 $-1 $25 $4 #
transform $-1 1 0 0 0 1 0 0 0 1 58.024231696523941 24.037370705128797 11.565109916699623 1 rotate no_reflect no_shear #
lump $-1 $-1 $26 $5 #
transform $-1 1 0 0 0 1 0 0 0 1 58.024231696523941 24.037370705128797 11.565109916699623 1 rotate no_reflect no_shear #
lump $-1 $-1 $27 $6 #
transform $-1 1 0 0 0 1 0 0 0 1 58.024231696523941 24.037370705128797 11.565109916699623 1 rotate no_reflect no_shear #
shell $-1 $-1 $-1 $28 $-1 $7 #
shell $-1 $-1 $-1 $29 $-1 $9 #
shell $-1 $-1 $-1 $30 $-1 $11 #
shell $-1 $-1 $-1 $31 $-1 $13 #
shell $-1 $-1 $-1 $32 $-1 $15 #
shell $-1 $-1 $-1 $33 $-1 $17 #
shell $-1 $-1 $-1 $34 $-1 $19 #
face $-1 $35 $36 $21 $-1 $37 forward single #
face $-1 $38 $39 $22 $-1 $40 reversed single #
face $-1 $41 $42 $23 $-1 $43 forward single #
face $-1 $44 $45 $24 $-1 $46 forward single #
face $-1 $47 $48 $25 $-1 $49 forward single #
face $-1 $50 $51 $26 $-1 $52 reversed single #
face $-1 $53 $54 $27 $-1 $55 forward single #
face $-1 $56 $57 $21 $-1 $58 reversed single #
loop $-1 $-1 $59 $28 #
plane-surface $-1 0 0 11.565109916699623 0 0 1 1 0 0 forward_v I I I I #
face $-1 $60 $61 $22 $-1 $62 reversed single #
loop $-1 $-1 $63 $29 #
plane-surface $-1 20.903728433832431 -95.483939782943793 94.699705370678871 -1 0 0 0 -0.61566148304635926 0.78801074757464917 forward_v I I I I #
face $-1 $64 $65 $23 $-1 $66 forward single #
loop $-1 $67 $68 $30 #
cone-surface $-1 -0.32704522852606033 -17.57417419949364 5.9454333071644356 0 0.61566148304635926 -0.78801074757464917 2.5 0 0 1 I I 0 1 2.5 forward I I I I #
face $-1 $69 $70 $24 $-1 $71 forward single #
loop $-1 $72 $73 $31 #
cone-surface $-1 7.6344948948583777 -17.57417419949364 5.9454333071644356 0 0.61566148304635926 -0.78801074757464917 2.5 0 0 1 I I 0 1 2.5 forward I I I I #
face $-1 $74 $75 $25 $-1 $76 forward single #
loop $-1 $77 $78 $32 #
cone-surface $-1 15.596035018242816 -17.57417419949364 5.9454333071644356 0 0.61566148304635926 -0.78801074757464917 2.5 0 0 1 I I 0 1 2.5 forward I I I I #
face $-1 $79 $80 $26 $-1 $81 reversed single #
loop $-1 $-1 $82 $33 #
plane-surface $-1 -32.946331234478805 55.482884922371156 125.60192621900113 -1 0 0 0 0.6018150307709319 0.79863550430605224 forward_v I I I I #
face $-1 $83 $84 $27 $-1 $85 forward single #
loop $-1 $86 $87 $34 #
cone-surface $-1 -45.485281465501373 17.580335419388248 5.8790734281205967 0 -0.6018150307709319 -0.79863550430605224 1.5 0 0 1 I I 0 1 1.5 forward I I I I #
face $-1 $88 $89 $21 $-1 $90 reversed single #
loop $-1 $-1 $91 $35 #
plane-surface $-1 0 0 -11.565109916699623 0 0 1 1 0 0 forward_v I I I I #
coedge $-1 $92 $93 $94 $95 forward $36 $-1 #
face $-1 $96 $97 $22 $-1 $98 reversed single #
loop $-1 $-1 $99 $38 #
plane-surface $-1 7.6344948948583777 -24.037370705128808 3.2522689774339 0 -0.61566148304635926 0.78801074757464917 1 0 0 forward_v I I I I #
coedge $-1 $100 $101 $102 $103 reversed $39 $-1 #
face $-1 $-1 $104 $23 $-1 $105 forward single #
loop $-1 $106 $107 $41 #
cone-surface $-1 -0.32704522852606033 -15.661376332594603 3.4971637327937977 0 0.61566148304635926 -0.78801074757464917 1.25 0 0 1 I I -0.70710678118654746 0.70710678118654746 1.25 forward I I I I #
loop $-1 $-1 $108 $30 #
coedge $-1 $68 $68 $109 $110 reversed $42 $-1 #
face $-1 $-1 $111 $24 $-1 $112 forward single #
loop $-1 $113 $114 $44 #
cone-surface $-1 7.6344948948583777 -15.661376332594603 3.4971637327937977 0 0.61566148304635926 -0.78801074757464917 1.25 0 0 1 I I -0.70710678118654746 0.70710678118654746 1.25 forward I I I I #
loop $-1 $-1 $115 $31 #
coedge $-1 $73 $73 $116 $117 reversed $45 $-1 #
face $-1 $-1 $118 $25 $-1 $119 forward single #
loop $-1 $120 $121 $47 #
cone-surface $-1 15.596035018242816 -15.661376332594603 3.4971637327937977 0 0.61566148304635926 -0.78801074757464917 1.25 0 0 1 I I -0.70710678118654746 0.70710678118654746 1.25 forward I I I I #
loop $-1 $-1 $122 $32 #
coedge $-1 $78 $78 $123 $124 reversed $48 $-1 #
face $-1 $125 $126 $26 $-1 $127 reversed single #
loop $-1 $-1 $128 $50 #
plane-surface $-1 -45.485281465501373 -14.356824645435324 32.921503133151887 0 0.6018150307709319 0.79863550430605224 1 0 0 forward_v I I I I #
coedge $-1 $129 $130 $131 $132 reversed $51 $-1 #
face $-1 $-1 $133 $27 $-1 $134 forward single #
loop $-1 $135 $136 $53 #
cone-surface $-1 -45.485281465501373 15.698591303924719 3.3819146936452817 0 -0.6018150307709319 -0.79863550430605224 0.75 0 0 1 I I -0.70710678118654757 0.70710678118654757 0.75 forward I I I I #
loop $-1 $-1 $137 $34 #
coedge $-1 $87 $87 $138 $139 reversed $54 $-1 #
face $-1 $140 $141 $21 $-1 $142 reversed single #
loop $-1 $-1 $143 $56 #
plane-surface $-1 0 -24.037370705128797 0 0 1 0 0 0 1 forward_v I I I I #
coedge $-1 $144 $145 $146 $147 forward $57 $-1 #
coedge $-1 $148 $59 $149 $150 forward $36 $-1 #
coedge $-1 $59 $148 $151 $152 forward $36 $-1 #
coedge $-1 $153 $154 $59 $95 reversed $155 $-1 #
edge $-1 $156 -24.037370705128797 $157 24.037370705128797 $94 $158 forward 7 unknown #
face $-1 $159 $160 $22 $-1 $161 reversed single #
loop $-1 $-1 $162 $60 #
plane-surface $-1 -5.634738644115675 -95.483939782943793 94.699705370678871 1 0 0 0 0.61566148304635926 -0.78801074757464917 forward_v I I I I #
coedge $-1 $163 $164 $165 $166 reversed $61 $-1 #
coedge $-1 $101 $63 $167 $168 reversed $39 $-1 #
coedge $-1 $63 $100 $163 $169 reversed $39 $-1 #
coedge $-1 $165 $170 $63 $103 forward $171 $-1 #
edge $-1 $172 23.704599186343099 $173 34.344550171431223 $102 $174 forward 7 unknown #
loop $-1 $-1 $109 $64 #
plane-surface $-1 7.6344948948583777 -24.037370705128808 3.2522689774339 0 -0.61566148304635926 0.78801074757464917 1 0 0 forward_v I I I I #
loop $-1 $-1 $175 $41 #
coedge $-1 $107 $107 $108 $176 reversed $65 $-1 #
coedge $-1 $108 $108 $107 $176 forward $67 $-1 #
coedge $-1 $109 $109 $68 $110 forward $104 $-1 #
edge $-1 $177 -1.9253075861753604e-016 $177 6.2831853071796004 $109 $178 forward 7 unknown #
loop $-1 $-1 $116 $69 #
plane-surface $-1 7.6344948948583777 -24.037370705128808 3.2522689774339 0 -0.61566148304635926 0.78801074757464917 1 0 0 forward_v I I I I #
loop $-1 $-1 $179 $44 #
coedge $-1 $114 $114 $115 $180 reversed $70 $-1 #
coedge $-1 $115 $115 $114 $180 forward $72 $-1 #
coedge $-1 $116 $116 $73 $117 forward $111 $-1 #
edge $-1 $181 -1.9253075861753604e-016 $181 6.2831853071796004 $116 $182 forward 7 unknown #
loop $-1 $-1 $123 $74 #
plane-surface $-1 7.6344948948583777 -24.037370705128808 3.2522689774339 0 -0.61566148304635926 0.78801074757464917 1 0 0 forward_v I I I I #
loop $-1 $-1 $183 $47 #
coedge $-1 $121 $121 $122 $184 reversed $75 $-1 #
coedge $-1 $122 $122 $121 $184 forward $77 $-1 #
coedge $-1 $123 $123 $78 $124 forward $118 $-1 #
edge $-1 $185 -1.9253075861753604e-016 $185 6.2831853071796004 $123 $186 forward 7 unknown #
face $-1 $187 $188 $26 $-1 $189 forward single #
loop $-1 $-1 $131 $79 #
plane-surface $-1 0 24.037370705128797 0 0 -1 0 0 0 -1 forward_v I I I I #
coedge $-1 $190 $191 $192 $193 reversed $80 $-1 #
coedge $-1 $130 $82 $194 $195 reversed $51 $-1 #
coedge $-1 $82 $129 $190 $196 reversed $51 $-1 #
coedge $-1 $192 $197 $82 $132 forward $126 $-1 #
edge $-1 $198 51.235853192800946 $199 58.811561957467433 $131 $200 forward 7 unknown #
loop $-1 $-1 $138 $83 #
plane-surface $-1 -45.485281465501373 -14.356824645435324 32.921503133151887 0 0.6018150307709319 0.79863550430605224 1 0 0 forward_v I I I I #
loop $-1 $-1 $201 $53 #
coedge $-1 $136 $136 $137 $202 reversed $84 $-1 #
coedge $-1 $137 $137 $136 $202 forward $86 $-1 #
coedge $-1 $138 $138 $87 $139 forward $133 $-1 #
edge $-1 $203 1.2886751334495574e-015 $203 6.2831853071796013 $138 $204 forward 7 unknown #
face $-1 $205 $206 $21 $-1 $207 reversed single #
loop $-1 $-1 $208 $88 #
plane-surface $-1 -58.024231696523941 0 0 1 0 0 0 0 -1 forward_v I I I I #
coedge $-1 $209 $151 $210 $211 forward $89 $-1 #
coedge $-1 $212 $91 $209 $213 forward $57 $-1 #
coedge $-1 $91 $212 $214 $215 forward $57 $-1 #
coedge $-1 $154 $153 $91 $147 reversed $155 $-1 #
edge $-1 $216 -24.037370705128797 $217 24.037370705128797 $146 $218 forward 7 unknown #
coedge $-1 $93 $92 $219 $220 forward $36 $-1 #
coedge $-1 $221 $222 $92 $150 reversed $206 $-1 #
edge $-1 $157 -58.024231696523941 $223 58.024231696523941 $149 $224 forward 7 unknown #
coedge $-1 $143 $225 $93 $152 reversed $89 $-1 #
edge $-1 $226 -58.024231696523941 $156 58.024231696523941 $151 $227 forward 7 unknown #
coedge $-1 $146 $94 $225 $228 forward $155 $-1 #
coedge $-1 $94 $146 $221 $229 reversed $155 $-1 #
loop $-1 $-1 $153 $205 #
vertex $-1 $95 $230 #
vertex $-1 $95 $231 #
straight-curve $-1 58.024231696523941 0 11.565109916699623 0 1 0 I I #
face $-1 $-1 $171 $22 $-1 $232 forward single #
loop $-1 $-1 $233 $96 #
plane-surface $-1 0 -24.037370705128797 0 0 1 0 0 0 1 forward_v I I I I #
coedge $-1 $234 $235 $236 $237 reversed $97 $-1 #
coedge $-1 $238 $99 $101 $169 forward $61 $-1 #
coedge $-1 $99 $238 $234 $239 forward $61 $-1 #
coedge $-1 $236 $102 $99 $166 forward $171 $-1 #
edge $-1 $173 -17.086480986403242 $240 9.4519860915448639 $165 $241 forward 7 unknown #
coedge $-1 $242 $243 $100 $168 forward $160 $-1 #
edge $-1 $244 -44.097583707905528 $172 -35.784742768639816 $167 $245 forward 7 unknown #
edge $-1 $173 -13.502291710913749 $244 -1.3593493495133127e-014 $101 $246 forward 7 unknown #
coedge $-1 $102 $236 $242 $247 forward $171 $-1 #
loop $-1 $-1 $236 $159 #
vertex $-1 $168 $248 #
vertex $-1 $103 $249 #
straight-curve $-1 20.903728433832431 -47.741969891471896 11.565109916699626 0 1 0 I I #
coedge $-1 $175 $175 $-1 $250 reversed $106 $-1 #
edge $-1 $251 0 $251 6.2831853071796004 $107 $252 forward 7 unknown #
vertex $-1 $110 $253 #
ellipse-curve $-1 -0.32704522852606033 -18.717395212584734 7.4086894470667675 0 -0.61566148304635926 0.78801074757464917 2.5 0 0 1 I I #
coedge $-1 $179 $179 $-1 $254 reversed $113 $-1 #
edge $-1 $255 0 $255 6.2831853071796004 $114 $256 forward 7 unknown #
vertex $-1 $117 $257 #
ellipse-curve $-1 7.6344948948583777 -18.717395212584734 7.4086894470667675 0 -0.61566148304635926 0.78801074757464917 2.5 0 0 1 I I #
coedge $-1 $183 $183 $-1 $258 reversed $120 $-1 #
edge $-1 $259 0 $259 6.2831853071796004 $121 $260 forward 7 unknown #
vertex $-1 $124 $261 #
ellipse-curve $-1 15.596035018242816 -18.717395212584734 7.4086894470667675 0 -0.61566148304635926 0.78801074757464917 2.5 0 0 1 I I #
face $-1 $-1 $262 $26 $-1 $263 reversed single #
loop $-1 $-1 $194 $125 #
plane-surface $-1 0 0 11.565109916699623 0 0 1 1 0 0 forward_v I I I I #
coedge $-1 $264 $128 $130 $196 forward $80 $-1 #
coedge $-1 $128 $264 $265 $266 reversed $80 $-1 #
coedge $-1 $267 $131 $128 $193 forward $126 $-1 #
edge $-1 $199 10.203690501728119 $268 35.281590963773255 $192 $269 forward 7 unknown #
coedge $-1 $270 $271 $129 $195 forward $188 $-1 #
edge $-1 $272 -13.75737664276723 $198 -3.7040717560567806 $194 $273 forward 7 unknown #
edge $-1 $199 -48.074741410257587 $272 -35.486639788797703 $130 $274 forward 7 unknown #
coedge $-1 $131 $267 $270 $275 reversed $126 $-1 #
vertex $-1 $275 $276 #
vertex $-1 $132 $277 #
straight-curve $-1 -32.946331234478805 24.037370705128797 62.800963109500564 0 0 -1 I I #
coedge $-1 $201 $201 $-1 $278 reversed $135 $-1 #
edge $-1 $279 0 $279 6.2831853071796004 $136 $280 forward 7 unknown #
vertex $-1 $139 $281 #
ellipse-curve $-1 -45.485281465501373 19.010718261773576 7.7772555343663674 0 0.6018150307709319 0.79863550430605224 1.5 0 0 1 I I #
face $-1 $-1 $155 $21 $-1 $282 reversed single #
loop $-1 $-1 $221 $140 #
plane-surface $-1 0 24.037370705128797 0 0 -1 0 0 0 -1 forward_v I I I I #
coedge $-1 $283 $219 $222 $284 forward $141 $-1 #
coedge $-1 $225 $143 $144 $213 reversed $89 $-1 #
coedge $-1 $219 $283 $143 $211 reversed $141 $-1 #
edge $-1 $226 -11.565109916699623 $285 11.565109916699623 $210 $286 forward 7 unknown #
coedge $-1 $145 $144 $283 $287 forward $57 $-1 #
edge $-1 $217 -58.024231696523941 $285 58.024231696523941 $209 $288 forward 7 unknown #
coedge $-1 $222 $221 $145 $215 reversed $206 $-1 #
edge $-1 $289 -58.024231696523941 $216 58.024231696523941 $214 $290 forward 7 unknown #
vertex $-1 $147 $291 #
vertex $-1 $228 $292 #
straight-curve $-1 58.024231696523941 0 -11.565109916699623 0 -1 0 I I #
coedge $-1 $208 $210 $148 $220 reversed $141 $-1 #
edge $-1 $223 -24.037370705128797 $226 24.037370705128797 $219 $293 forward 7 unknown #
coedge $-1 $214 $149 $154 $229 forward $206 $-1 #
coedge $-1 $149 $214 $208 $284 reversed $206 $-1 #
vertex $-1 $150 $294 #
straight-curve $-1 0 24.037370705128797 11.565109916699623 -1 0 0 I I #
coedge $-1 $151 $209 $153 $228 reversed $89 $-1 #
vertex $-1 $220 $295 #
straight-curve $-1 0 -24.037370705128797 11.565109916699623 1 0 0 I I #
edge $-1 $156 -11.565109916699623 $217 11.565109916699623 $153 $296 forward 7 unknown #
edge $-1 $157 -11.565109916699623 $216 11.565109916699623 $154 $297 forward 7 unknown #
point $-1 58.024231696523941 -24.037370705128797 11.565109916699623 #
point $-1 58.024231696523941 24.037370705128797 11.565109916699623 #
plane-surface $-1 0 0 11.565109916699623 0 0 1 1 0 0 forward_v I I I I #
coedge $-1 $243 $242 $235 $298 forward $160 $-1 #
coedge $-1 $235 $162 $164 $239 reversed $97 $-1 #
coedge $-1 $162 $234 $233 $298 reversed $97 $-1 #
coedge $-1 $170 $165 $162 $237 forward $171 $-1 #
edge $-1 $240 -34.344550171431223 $299 -23.704599186343099 $236 $300 forward 7 unknown #
coedge $-1 $164 $163 $243 $301 reversed $61 $-1 #
edge $-1 $302 1.3593493495133127e-014 $240 13.502291710913749 $234 $303 forward 7 unknown #
vertex $-1 $166 $304 #
straight-curve $-1 3.8172474474291889 -13.397419720040673 11.565109916699623 -1 0 0 I I #
coedge $-1 $233 $167 $170 $247 reversed $160 $-1 #
coedge $-1 $167 $233 $238 $301 forward $160 $-1 #
vertex $-1 $168 $305 #
straight-curve $-1 20.903728433832431 -24.037370705128801 47.349852685339435 0 0 1 I I #
straight-curve $-1 20.903728433832431 -24.037370705128808 3.2522689774339 0 -0.78801074757464917 -0.61566148304635926 I I #
edge $-1 $299 -5.634738644115675 $172 20.903728433832431 $242 $306 forward 7 unknown #
point $-1 20.903728433832431 -24.037370705128797 11.565109916699623 #
point $-1 20.903728433832431 -13.397419720040675 11.565109916699623 #
edge $-1 $307 1 $307 0 $175 $-1 forward 7 unknown #
vertex $-1 $176 $308 #
ellipse-curve $-1 -0.32704522852606033 -16.430953186402551 4.4821771672621091 0 -0.61566148304635926 0.78801074757464917 2.5 0 0 1 I I #
point $-1 2.1729547714739397 -18.71739521258473 7.4086894470667621 #
edge $-1 $309 1 $309 0 $179 $-1 forward 7 unknown #
vertex $-1 $180 $310 #
ellipse-curve $-1 7.6344948948583777 -16.430953186402551 4.4821771672621091 0 -0.61566148304635926 0.78801074757464917 2.5 0 0 1 I I #
point $-1 10.134494894858378 -18.71739521258473 7.4086894470667621 #
edge $-1 $311 1 $311 0 $183 $-1 forward 7 unknown #
vertex $-1 $184 $312 #
ellipse-curve $-1 15.596035018242816 -16.430953186402551 4.4821771672621091 0 -0.61566148304635926 0.78801074757464917 2.5 0 0 1 I I #
point $-1 18.096035018242816 -18.71739521258473 7.4086894470667621 #
loop $-1 $-1 $265 $187 #
plane-surface $-1 -58.024231696523941 0 0 1 0 0 0 0 -1 forward_v I I I I #
coedge $-1 $191 $190 $271 $313 reversed $80 $-1 #
coedge $-1 $314 $315 $191 $266 forward $262 $-1 #
edge $-1 $268 -32.435478754235618 $316 -19.847377132775737 $265 $317 forward 7 unknown #
coedge $-1 $197 $192 $315 $318 reversed $126 $-1 #
vertex $-1 $193 $319 #
straight-curve $-1 -22.742640732750687 24.037370705128794 3.9894011520331283 -1 0 0 I I #
coedge $-1 $320 $194 $197 $275 forward $188 $-1 #
coedge $-1 $194 $320 $264 $313 forward $188 $-1 #
vertex $-1 $195 $321 #
straight-curve $-1 -32.946331234478805 27.741442461185578 11.565109916699626 0 1 0 I I #
straight-curve $-1 -32.946331234478805 -14.356824645435324 32.921503133151887 0 -0.79863550430605224 0.6018150307709319 I I #
edge $-1 $198 32.946331234478805 $322 58.024231696523941 $197 $323 forward 7 unknown #
point $-1 -32.946331234478805 24.037370705128797 11.565109916699623 #
point $-1 -32.946331234478805 24.037370705128794 3.9894011520331283 #
edge $-1 $324 1 $324 0 $201 $-1 forward 7 unknown #
vertex $-1 $202 $325 #
ellipse-curve $-1 -45.485281465501373 16.149952577002917 3.9808913218748208 0 0.6018150307709319 0.79863550430605224 1.5 0 0 1 I I #
point $-1 -43.985281465501373 19.010718261773583 7.7772555343663736 #
plane-surface $-1 58.024231696523941 0 0 -1 0 0 0 0 1 forward_v I I I I #
coedge $-1 $210 $208 $212 $287 reversed $141 $-1 #
edge $-1 $223 -11.565109916699623 $289 11.565109916699623 $222 $326 forward 7 unknown #
vertex $-1 $287 $327 #
straight-curve $-1 -58.024231696523941 -24.037370705128797 0 0 0 -1 I I #
edge $-1 $285 -24.037370705128797 $289 24.037370705128797 $283 $328 forward 7 unknown #
straight-curve $-1 0 -24.037370705128797 -11.565109916699623 -1 0 0 I I #
vertex $-1 $215 $329 #
straight-curve $-1 0 24.037370705128797 -11.565109916699623 1 0 0 I I #
point $-1 58.024231696523941 24.037370705128797 -11.565109916699623 #
point $-1 58.024231696523941 -24.037370705128797 -11.565109916699623 #
straight-curve $-1 -58.024231696523941 0 11.565109916699623 0 -1 0 I I #
point $-1 -58.024231696523941 24.037370705128797 11.565109916699623 #
point $-1 -58.024231696523941 -24.037370705128797 11.565109916699623 #
straight-curve $-1 58.024231696523941 -24.037370705128797 0 0 0 -1 I I #
straight-curve $-1 58.024231696523941 24.037370705128797 0 0 0 -1 I I #
edge $-1 $299 35.784742768639816 $302 44.097583707905528 $233 $330 forward 7 unknown #
vertex $-1 $247 $331 #
straight-curve $-1 -5.634738644115675 -47.741969891471896 11.565109916699626 0 -1 0 I I #
edge $-1 $302 -9.4519860915448639 $244 17.086480986403242 $243 $332 forward 7 unknown #
vertex $-1 $301 $333 #
straight-curve $-1 -5.634738644115675 -24.037370705128808 3.2522689774339 0 0.78801074757464917 0.61566148304635926 I I #
point $-1 -5.634738644115675 -13.397419720040675 11.565109916699623 #
point $-1 20.903728433832431 -24.037370705128797 3.2522689774339084 #
straight-curve $-1 0 -24.037370705128797 11.565109916699623 1 0 0 I I #
vertex $-1 $250 $334 #
point $-1 2.1729547714739397 -16.430953186402551 4.4821771672621091 #
vertex $-1 $254 $335 #
point $-1 10.134494894858378 -16.430953186402551 4.4821771672621091 #
vertex $-1 $258 $336 #
point $-1 18.096035018242816 -16.430953186402551 4.4821771672621091 #
edge $-1 $316 -35.281590963773255 $272 -10.203690501728119 $271 $337 forward 7 unknown #
coedge $-1 $315 $265 $320 $338 reversed $262 $-1 #
coedge $-1 $265 $314 $267 $318 forward $262 $-1 #
vertex $-1 $266 $339 #
straight-curve $-1 -58.024231696523941 -1.8667542271684114 23.509559796583343 0 -0.79863550430605224 0.6018150307709319 I I #
edge $-1 $322 -11.565109916699623 $268 -3.9894011520331274 $267 $340 forward 7 unknown #
point $-1 -58.024231696523941 24.037370705128797 3.9894011520331274 #
coedge $-1 $271 $270 $314 $338 forward $188 $-1 #
point $-1 -32.946331234478805 13.984065818418348 11.565109916699623 #
vertex $-1 $275 $341 #
straight-curve $-1 0 24.037370705128797 11.565109916699623 -1 0 0 I I #
vertex $-1 $278 $342 #
point $-1 -43.985281465501373 16.149952577002917 3.9808913218748208 #
straight-curve $-1 -58.024231696523941 24.037370705128797 0 0 0 -1 I I #
point $-1 -58.024231696523941 -24.037370705128797 -11.565109916699623 #
straight-curve $-1 -58.024231696523941 0 -11.565109916699623 0 1 0 I I #
point $-1 -58.024231696523941 24.037370705128797 -11.565109916699623 #
straight-curve $-1 -5.634738644115675 -24.037370705128801 47.349852685339435 0 0 -1 I I #
point $-1 -5.634738644115675 -24.037370705128797 11.565109916699623 #
straight-curve $-1 3.8172474474291889 -24.037370705128797 3.2522689774339075 1 0 0 I I #
point $-1 -5.634738644115675 -24.037370705128797 3.2522689774339084 #
point $-1 -0.32704522852606033 -14.891799478786654 2.5121502983254862 #
point $-1 7.6344948948583777 -14.891799478786654 2.5121502983254862 #
point $-1 15.596035018242816 -14.891799478786654 2.5121502983254862 #
straight-curve $-1 -22.742640732750687 13.984065818418355 11.565109916699621 1 0 0 I I #
edge $-1 $322 -24.037370705128797 $316 -13.984065818418348 $314 $343 forward 7 unknown #
point $-1 -58.024231696523941 13.984065818418348 11.565109916699623 #
straight-curve $-1 -58.024231696523941 24.037370705128797 0 0 0 -1 I I #
point $-1 -58.024231696523941 24.037370705128797 11.565109916699623 #
point $-1 -45.485281465501373 15.24723003084652 2.7829380654157427 #
straight-curve $-1 -58.024231696523941 0 11.565109916699623 0 -1 0 I I #
End-of-ACIS-data 