500 0 15 0           
7 Unknown 11 ACIS 5.0 NT 24 Thu Mar 25 22:21:23 1999 
-1 9.9999999999999995e-007 1e-010 
body $-1 $15 $-1 $16 #
body $-1 $17 $-1 $18 #
body $-1 $19 $-1 $20 #
body $-1 $21 $-1 $22 #
body $-1 $23 $-1 $24 #
body $-1 $25 $-1 $26 #
body $-1 $27 $-1 $28 #
body $-1 $29 $-1 $30 #
body $-1 $31 $-1 $32 #
body $-1 $33 $-1 $34 #
body $-1 $35 $-1 $36 #
body $-1 $37 $-1 $38 #
body $-1 $39 $-1 $40 #
body $-1 $41 $-1 $42 #
body $-1 $43 $-1 $44 #
lump $-1 $-1 $45 $0 #
transform $-1 1 0 0 0 1 0 0 0 1 52.50038148136845 30.172778525427599 9.364454740812052 1 rotate no_reflect no_shear #
lump $-1 $-1 $46 $1 #
transform $-1 1 0 0 0 1 0 0 0 1 52.50038148136845 30.172778525427599 9.364454740812052 1 rotate no_reflect no_shear #
lump $-1 $-1 $47 $2 #
transform $-1 1 0 0 0 1 0 0 0 1 52.50038148136845 30.172778525427599 9.364454740812052 1 rotate no_reflect no_shear #
lump $-1 $-1 $48 $3 #
transform $-1 1 0 0 0 1 0 0 0 1 52.50038148136845 30.172778525427599 9.364454740812052 1 rotate no_reflect no_shear #
lump $-1 $-1 $49 $4 #
transform $-1 1 0 0 0 1 0 0 0 1 52.50038148136845 30.172778525427599 9.364454740812052 1 rotate no_reflect no_shear #
lump $-1 $-1 $50 $5 #
transform $-1 1 0 0 0 1 0 0 0 1 52.50038148136845 30.172778525427599 9.364454740812052 1 rotate no_reflect no_shear #
lump $-1 $-1 $51 $6 #
transform $-1 1 0 0 0 1 0 0 0 1 52.50038148136845 30.172778525427599 9.364454740812052 1 rotate no_reflect no_shear #
lump $-1 $-1 $52 $7 #
transform $-1 1 0 0 0 1 0 0 0 1 52.50038148136845 30.172778525427599 9.364454740812052 1 rotate no_reflect no_shear #
lump $-1 $-1 $53 $8 #
transform $-1 1 0 0 0 1 0 0 0 1 52.50038148136845 30.172778525427599 9.364454740812052 1 rotate no_reflect no_shear #
lump $-1 $-1 $54 $9 #
transform $-1 1 0 0 0 1 0 0 0 1 52.50038148136845 30.172778525427599 9.364454740812052 1 rotate no_reflect no_shear #
lump $-1 $-1 $55 $10 #
transform $-1 1 0 0 0 1 0 0 0 1 52.50038148136845 30.172778525427599 9.364454740812052 1 rotate no_reflect no_shear #
lump $-1 $-1 $56 $11 #
transform $-1 1 0 0 0 1 0 0 0 1 52.50038148136845 30.172778525427599 9.364454740812052 1 rotate no_reflect no_shear #
lump $-1 $-1 $57 $12 #
transform $-1 1 0 0 0 1 0 0 0 1 52.50038148136845 30.172778525427599 9.364454740812052 1 rotate no_reflect no_shear #
lump $-1 $-1 $58 $13 #
transform $-1 1 0 0 0 1 0 0 0 1 52.50038148136845 30.172778525427599 9.364454740812052 1 rotate no_reflect no_shear #
lump $-1 $-1 $59 $14 #
transform $-1 1 0 0 0 1 0 0 0 1 52.50038148136845 30.172778525427599 9.364454740812052 1 rotate no_reflect no_shear #
shell $-1 $-1 $-1 $60 $-1 $15 #
shell $-1 $-1 $-1 $61 $-1 $17 #
shell $-1 $-1 $-1 $62 $-1 $19 #
shell $-1 $-1 $-1 $63 $-1 $21 #
shell $-1 $-1 $-1 $64 $-1 $23 #
shell $-1 $-1 $-1 $65 $-1 $25 #
shell $-1 $-1 $-1 $66 $-1 $27 #
shell $-1 $-1 $-1 $67 $-1 $29 #
shell $-1 $-1 $-1 $68 $-1 $31 #
shell $-1 $-1 $-1 $69 $-1 $33 #
shell $-1 $-1 $-1 $70 $-1 $35 #
shell $-1 $-1 $-1 $71 $-1 $37 #
shell $-1 $-1 $-1 $72 $-1 $39 #
shell $-1 $-1 $-1 $73 $-1 $41 #
shell $-1 $-1 $-1 $74 $-1 $43 #
face $-1 $75 $76 $45 $-1 $77 forward single #
face $-1 $78 $79 $46 $-1 $80 reversed single #
face $-1 $81 $82 $47 $-1 $83 reversed single #
face $-1 $84 $85 $48 $-1 $86 reversed single #
face $-1 $87 $88 $49 $-1 $89 forward single #
face $-1 $90 $91 $50 $-1 $92 forward single #
face $-1 $93 $94 $51 $-1 $95 reversed single #
face $-1 $96 $97 $52 $-1 $98 forward single #
face $-1 $99 $100 $53 $-1 $101 forward single #
face $-1 $102 $103 $54 $-1 $104 reversed single #
face $-1 $105 $106 $55 $-1 $107 forward single #
face $-1 $108 $109 $56 $-1 $110 forward single #
face $-1 $111 $112 $57 $-1 $113 reversed single #
face $-1 $114 $115 $58 $-1 $116 forward single #
face $-1 $117 $118 $59 $-1 $119 forward single #
face $-1 $120 $121 $45 $-1 $122 reversed single #
loop $-1 $-1 $123 $60 #
plane-surface $-1 0 0 9.364454740812052 0 0 1 1 0 0 forward_v I I I I #
face $-1 $124 $125 $46 $-1 $126 reversed single #
loop $-1 $-1 $127 $61 #
plane-surface $-1 -45.009869392977549 -28.641262777555113 0 -1 0 0 0 0 1 forward_v I I I I #
face $-1 $128 $129 $47 $-1 $130 reversed single #
loop $-1 $-1 $131 $62 #
plane-surface $-1 45.009869392977542 -28.641262777555113 0 1 0 0 0 0 -1 forward_v I I I I #
face $-1 $132 $133 $48 $-1 $134 reversed single #
loop $-1 $-1 $135 $63 #
plane-surface $-1 -45.009869392977549 49.354594982143098 120.53226675431071 1 0 0 0 -0.62932039886446345 -0.77714595512881146 forward_v I I I I #
face $-1 $136 $137 $49 $-1 $138 forward single #
loop $-1 $139 $140 $64 #
cone-surface $-1 -41.084454775643714 23.319070639410445 3.1082797885519509 0 -0.62932039886446345 -0.77714595512881146 1.5 0 0 1 I I 0 1 1.5 forward I I I I #
face $-1 $141 $142 $50 $-1 $143 forward single #
loop $-1 $144 $145 $65 #
cone-surface $-1 -35.196332849642964 23.319070639410445 3.1082797885519509 0 -0.62932039886446345 -0.77714595512881146 1.5 0 0 1 I I 0 1 1.5 forward I I I I #
face $-1 $146 $147 $51 $-1 $148 reversed single #
loop $-1 $-1 $149 $66 #
plane-surface $-1 31.270918232309128 49.354594982143098 120.53226675431071 1 0 0 0 -0.62932039886446345 -0.77714595512881146 forward_v I I I I #
face $-1 $150 $151 $52 $-1 $152 forward single #
loop $-1 $153 $154 $67 #
cone-surface $-1 35.196332849642957 23.319070639410445 3.1082797885519509 0 -0.62932039886446345 -0.77714595512881146 1.5 0 0 1 I I 0 1 1.5 forward I I I I #
face $-1 $155 $156 $53 $-1 $157 forward single #
loop $-1 $158 $159 $68 #
cone-surface $-1 41.084454775643721 23.319070639410445 3.1082797885519509 0 -0.62932039886446345 -0.77714595512881146 1.5 0 0 1 I I 0 1 1.5 forward I I I I #
face $-1 $160 $161 $54 $-1 $162 reversed single #
loop $-1 $-1 $163 $69 #
plane-surface $-1 -38.140393812643339 -30.172778525427589 0.95465849943818171 0 -0.62932039886446345 0.77714595512881146 1 0 0 forward_v I I I I #
face $-1 $164 $165 $55 $-1 $166 forward single #
loop $-1 $167 $168 $70 #
cone-surface $-1 -41.084454775643714 -23.319070639410441 3.1082797885519473 0 0.62932039886446345 -0.77714595512881146 1.5 0 0 1 I I 0 1 1.5 forward I I I I #
face $-1 $169 $170 $56 $-1 $171 forward single #
loop $-1 $172 $173 $71 #
cone-surface $-1 -35.196332849642964 -23.319070639410441 3.1082797885519473 0 0.62932039886446345 -0.77714595512881146 1.5 0 0 1 I I 0 1 1.5 forward I I I I #
face $-1 $174 $175 $57 $-1 $176 reversed single #
loop $-1 $-1 $177 $72 #
plane-surface $-1 31.270918232309128 -96.251900554210152 82.555576721368283 1 0 0 0 0.62932039886446345 -0.77714595512881146 forward_v I I I I #
face $-1 $178 $179 $58 $-1 $180 forward single #
loop $-1 $181 $182 $73 #
cone-surface $-1 35.196332849642957 -23.319070639410441 3.1082797885519473 0 0.62932039886446345 -0.77714595512881146 1.5 0 0 1 I I 0 1 1.5 forward I I I I #
face $-1 $183 $184 $59 $-1 $185 forward single #
loop $-1 $186 $187 $74 #
cone-surface $-1 41.084454775643721 -23.319070639410441 3.1082797885519473 0 0.62932039886446345 -0.77714595512881146 1.5 0 0 1 I I 0 1 1.5 forward I I I I #
face $-1 $188 $189 $45 $-1 $190 reversed single #
loop $-1 $-1 $191 $75 #
plane-surface $-1 0 0 -9.364454740812052 0 0 1 1 0 0 forward_v I I I I #
coedge $-1 $192 $193 $194 $195 forward $76 $-1 #
face $-1 $196 $197 $46 $-1 $198 forward single #
loop $-1 $-1 $199 $78 #
plane-surface $-1 -48.755125437173 -27.10974702968263 0 0 -1 0 0 0 -1 forward_v I I I I #
coedge $-1 $200 $201 $202 $203 reversed $79 $-1 #
face $-1 $204 $205 $47 $-1 $206 forward single #
loop $-1 $-1 $207 $81 #
plane-surface $-1 48.755125437172993 -27.10974702968263 0 0 -1 0 0 0 -1 forward_v I I I I #
coedge $-1 $208 $209 $210 $211 forward $82 $-1 #
face $-1 $212 $213 $48 $-1 $214 reversed single #
loop $-1 $-1 $215 $84 #
plane-surface $-1 -38.140393812643339 -16.724527046639466 38.931348532380611 0 0.62932039886446345 0.77714595512881146 1 0 0 forward_v I I I I #
coedge $-1 $216 $217 $218 $219 reversed $85 $-1 #
face $-1 $-1 $220 $49 $-1 $221 forward single #
loop $-1 $222 $223 $87 #
cone-surface $-1 -41.084454775643714 21.185989080238624 0.47414349063216754 0 -0.62932039886446345 -0.77714595512881146 0.75 0 0 1 I I -0.70710678118654757 0.70710678118654757 0.75 forward I I I I #
loop $-1 $-1 $224 $64 #
coedge $-1 $140 $140 $225 $226 reversed $88 $-1 #
face $-1 $-1 $227 $50 $-1 $228 forward single #
loop $-1 $229 $230 $90 #
cone-surface $-1 -35.196332849642964 21.185989080238624 0.47414349063216754 0 -0.62932039886446345 -0.77714595512881146 0.75 0 0 1 I I -0.70710678118654757 0.70710678118654757 0.75 forward I I I I #
loop $-1 $-1 $231 $65 #
coedge $-1 $145 $145 $232 $233 reversed $91 $-1 #
face $-1 $234 $235 $51 $-1 $236 reversed single #
loop $-1 $-1 $237 $93 #
plane-surface $-1 38.140393812643339 -16.724527046639466 38.931348532380611 0 0.62932039886446345 0.77714595512881146 1 0 0 forward_v I I I I #
coedge $-1 $238 $239 $240 $241 reversed $94 $-1 #
face $-1 $-1 $242 $52 $-1 $243 forward single #
loop $-1 $244 $245 $96 #
cone-surface $-1 35.196332849642957 21.185989080238624 0.47414349063216754 0 -0.62932039886446345 -0.77714595512881146 0.75 0 0 1 I I -0.70710678118654757 0.70710678118654757 0.75 forward I I I I #
loop $-1 $-1 $246 $67 #
coedge $-1 $154 $154 $247 $248 reversed $97 $-1 #
face $-1 $-1 $249 $53 $-1 $250 forward single #
loop $-1 $251 $252 $99 #
cone-surface $-1 41.084454775643721 21.185989080238624 0.47414349063216754 0 -0.62932039886446345 -0.77714595512881146 0.75 0 0 1 I I -0.70710678118654757 0.70710678118654757 0.75 forward I I I I #
loop $-1 $-1 $253 $68 #
coedge $-1 $159 $159 $254 $255 reversed $100 $-1 #
face $-1 $256 $257 $54 $-1 $258 forward single #
loop $-1 $-1 $259 $102 #
plane-surface $-1 -31.270918232309128 -96.251900554210152 82.555576721368283 -1 0 0 0 -0.62932039886446345 0.77714595512881146 forward_v I I I I #
coedge $-1 $260 $261 $262 $263 reversed $103 $-1 #
face $-1 $-1 $264 $55 $-1 $265 forward single #
loop $-1 $266 $267 $105 #
cone-surface $-1 -41.084454775643714 -21.18598908023862 0.47414349063216399 0 0.62932039886446345 -0.77714595512881146 0.75 0 0 1 I I -0.70710678118654757 0.70710678118654757 0.75 forward I I I I #
loop $-1 $-1 $268 $70 #
coedge $-1 $168 $168 $269 $270 reversed $106 $-1 #
face $-1 $-1 $271 $56 $-1 $272 forward single #
loop $-1 $273 $274 $108 #
cone-surface $-1 -35.196332849642964 -21.18598908023862 0.47414349063216399 0 0.62932039886446345 -0.77714595512881146 0.75 0 0 1 I I -0.70710678118654757 0.70710678118654757 0.75 forward I I I I #
loop $-1 $-1 $275 $71 #
coedge $-1 $173 $173 $276 $277 reversed $109 $-1 #
face $-1 $278 $279 $57 $-1 $280 reversed single #
loop $-1 $-1 $281 $111 #
plane-surface $-1 38.140393812643339 -30.172778525427589 0.95465849943818171 0 -0.62932039886446345 0.77714595512881146 1 0 0 forward_v I I I I #
coedge $-1 $282 $283 $284 $285 reversed $112 $-1 #
face $-1 $-1 $286 $58 $-1 $287 forward single #
loop $-1 $288 $289 $114 #
cone-surface $-1 35.196332849642957 -21.18598908023862 0.47414349063216399 0 0.62932039886446345 -0.77714595512881146 0.75 0 0 1 I I -0.70710678118654757 0.70710678118654757 0.75 forward I I I I #
loop $-1 $-1 $290 $73 #
coedge $-1 $182 $182 $291 $292 reversed $115 $-1 #
face $-1 $-1 $293 $59 $-1 $294 forward single #
loop $-1 $295 $296 $117 #
cone-surface $-1 41.084454775643721 -21.18598908023862 0.47414349063216399 0 0.62932039886446345 -0.77714595512881146 0.75 0 0 1 I I -0.70710678118654757 0.70710678118654757 0.75 forward I I I I #
loop $-1 $-1 $297 $74 #
coedge $-1 $187 $187 $298 $299 reversed $118 $-1 #
face $-1 $300 $301 $45 $-1 $302 reversed single #
loop $-1 $-1 $303 $120 #
plane-surface $-1 0 -30.172778525427599 0 0 1 0 0 0 1 forward_v I I I I #
coedge $-1 $304 $305 $306 $307 forward $121 $-1 #
coedge $-1 $308 $123 $309 $310 forward $76 $-1 #
coedge $-1 $123 $308 $311 $312 forward $76 $-1 #
coedge $-1 $313 $314 $123 $195 reversed $315 $-1 #
edge $-1 $316 -30.172778525427599 $317 30.172778525427599 $194 $318 forward 7 unknown #
face $-1 $319 $320 $46 $-1 $321 reversed single #
loop $-1 $-1 $322 $124 #
plane-surface $-1 0 0 9.364454740812052 0 0 1 1 0 0 forward_v I I I I #
coedge $-1 $323 $324 $325 $326 forward $125 $-1 #
coedge $-1 $325 $127 $327 $328 reversed $79 $-1 #
coedge $-1 $127 $325 $322 $329 reversed $79 $-1 #
coedge $-1 $330 $331 $127 $203 forward $332 $-1 #
edge $-1 $333 -9.364454740812052 $334 9.364454740812052 $202 $335 forward 7 unknown #
face $-1 $336 $337 $47 $-1 $338 reversed single #
loop $-1 $-1 $339 $128 #
plane-surface $-1 0 0 9.364454740812052 0 0 1 1 0 0 forward_v I I I I #
coedge $-1 $340 $341 $342 $343 reversed $129 $-1 #
coedge $-1 $344 $131 $345 $346 reversed $82 $-1 #
coedge $-1 $131 $344 $347 $348 reversed $82 $-1 #
coedge $-1 $341 $340 $131 $211 reversed $129 $-1 #
edge $-1 $349 -9.364454740812052 $350 9.364454740812052 $210 $351 forward 7 unknown #
face $-1 $352 $353 $48 $-1 $354 reversed single #
loop $-1 $-1 $355 $132 #
plane-surface $-1 -31.270918232309128 49.354594982143098 120.53226675431071 -1 0 0 0 0.62932039886446345 0.77714595512881146 forward_v I I I I #
coedge $-1 $356 $357 $358 $359 reversed $133 $-1 #
coedge $-1 $217 $135 $360 $361 reversed $85 $-1 #
coedge $-1 $135 $216 $356 $362 reversed $85 $-1 #
coedge $-1 $358 $363 $135 $219 forward $364 $-1 #
edge $-1 $365 -5.4954810343560503 $366 4.8897522176313402 $218 $367 forward 7 unknown #
loop $-1 $-1 $225 $136 #
plane-surface $-1 -38.140393812643339 -16.724527046639466 38.931348532380611 0 0.62932039886446345 0.77714595512881146 1 0 0 forward_v I I I I #
loop $-1 $-1 $368 $87 #
coedge $-1 $223 $223 $224 $369 reversed $137 $-1 #
coedge $-1 $224 $224 $223 $369 forward $139 $-1 #
coedge $-1 $225 $225 $140 $226 forward $220 $-1 #
edge $-1 $370 2.1232387842878022e-015 $370 6.2831853071796022 $225 $371 forward 7 unknown #
loop $-1 $-1 $232 $141 #
plane-surface $-1 -38.140393812643339 -16.724527046639466 38.931348532380611 0 0.62932039886446345 0.77714595512881146 1 0 0 forward_v I I I I #
loop $-1 $-1 $372 $90 #
coedge $-1 $230 $230 $231 $373 reversed $142 $-1 #
coedge $-1 $231 $231 $230 $373 forward $144 $-1 #
coedge $-1 $232 $232 $145 $233 forward $227 $-1 #
edge $-1 $374 2.1232387842878022e-015 $374 6.2831853071796022 $232 $375 forward 7 unknown #
face $-1 $376 $377 $51 $-1 $378 forward single #
loop $-1 $-1 $379 $146 #
plane-surface $-1 45.009869392977549 49.354594982143098 120.53226675431071 -1 0 0 0 0.62932039886446345 0.77714595512881146 forward_v I I I I #
coedge $-1 $380 $381 $382 $383 reversed $147 $-1 #
coedge $-1 $239 $149 $384 $385 reversed $94 $-1 #
coedge $-1 $149 $238 $380 $386 reversed $94 $-1 #
coedge $-1 $382 $387 $149 $241 forward $377 $-1 #
edge $-1 $388 -5.4954810343560503 $389 4.8897522176313402 $240 $390 forward 7 unknown #
loop $-1 $-1 $247 $150 #
plane-surface $-1 38.140393812643339 -16.724527046639466 38.931348532380611 0 0.62932039886446345 0.77714595512881146 1 0 0 forward_v I I I I #
loop $-1 $-1 $391 $96 #
coedge $-1 $245 $245 $246 $392 reversed $151 $-1 #
coedge $-1 $246 $246 $245 $392 forward $153 $-1 #
coedge $-1 $247 $247 $154 $248 forward $242 $-1 #
edge $-1 $393 2.1232387842878022e-015 $393 6.2831853071796022 $247 $394 forward 7 unknown #
loop $-1 $-1 $254 $155 #
plane-surface $-1 38.140393812643339 -16.724527046639466 38.931348532380611 0 0.62932039886446345 0.77714595512881146 1 0 0 forward_v I I I I #
loop $-1 $-1 $395 $99 #
coedge $-1 $252 $252 $253 $396 reversed $156 $-1 #
coedge $-1 $253 $253 $252 $396 forward $158 $-1 #
coedge $-1 $254 $254 $159 $255 forward $249 $-1 #
edge $-1 $397 2.1232387842878022e-015 $397 6.2831853071796022 $254 $398 forward 7 unknown #
face $-1 $399 $400 $54 $-1 $401 forward single #
loop $-1 $-1 $402 $160 #
plane-surface $-1 0 0 9.364454740812052 0 0 1 1 0 0 forward_v I I I I #
coedge $-1 $403 $404 $405 $406 reversed $161 $-1 #
coedge $-1 $407 $163 $408 $409 reversed $103 $-1 #
coedge $-1 $163 $407 $403 $410 forward $103 $-1 #
coedge $-1 $405 $411 $163 $263 forward $412 $-1 #
edge $-1 $413 -25.93967248665588 $414 -12.200721325987459 $262 $415 forward 7 unknown #
loop $-1 $-1 $269 $164 #
plane-surface $-1 -38.140393812643339 -30.172778525427589 0.95465849943818171 0 -0.62932039886446345 0.77714595512881146 1 0 0 forward_v I I I I #
loop $-1 $-1 $416 $105 #
coedge $-1 $267 $267 $268 $417 reversed $165 $-1 #
coedge $-1 $268 $268 $267 $417 forward $167 $-1 #
coedge $-1 $269 $269 $168 $270 forward $264 $-1 #
edge $-1 $418 -1.4229962831989453e-015 $418 6.2831853071795987 $269 $419 forward 7 unknown #
loop $-1 $-1 $276 $169 #
plane-surface $-1 -38.140393812643339 -30.172778525427589 0.95465849943818171 0 -0.62932039886446345 0.77714595512881146 1 0 0 forward_v I I I I #
loop $-1 $-1 $420 $108 #
coedge $-1 $274 $274 $275 $421 reversed $170 $-1 #
coedge $-1 $275 $275 $274 $421 forward $172 $-1 #
coedge $-1 $276 $276 $173 $277 forward $271 $-1 #
edge $-1 $422 -1.4229962831989453e-015 $422 6.2831853071795987 $276 $423 forward 7 unknown #
face $-1 $424 $425 $57 $-1 $426 forward single #
loop $-1 $-1 $284 $174 #
plane-surface $-1 0 -30.172778525427599 0 0 1 0 0 0 1 forward_v I I I I #
coedge $-1 $427 $428 $429 $430 reversed $175 $-1 #
coedge $-1 $283 $177 $431 $432 reversed $112 $-1 #
coedge $-1 $177 $282 $427 $433 reversed $112 $-1 #
coedge $-1 $429 $434 $177 $285 forward $279 $-1 #
edge $-1 $435 31.913333619872091 $436 40.323129861245967 $284 $437 forward 7 unknown #
loop $-1 $-1 $291 $178 #
plane-surface $-1 38.140393812643339 -30.172778525427589 0.95465849943818171 0 -0.62932039886446345 0.77714595512881146 1 0 0 forward_v I I I I #
loop $-1 $-1 $438 $114 #
coedge $-1 $289 $289 $290 $439 reversed $179 $-1 #
coedge $-1 $290 $290 $289 $439 forward $181 $-1 #
coedge $-1 $291 $291 $182 $292 forward $286 $-1 #
edge $-1 $440 -1.4229962831989453e-015 $440 6.2831853071795987 $291 $441 forward 7 unknown #
loop $-1 $-1 $298 $183 #
plane-surface $-1 38.140393812643339 -30.172778525427589 0.95465849943818171 0 -0.62932039886446345 0.77714595512881146 1 0 0 forward_v I I I I #
loop $-1 $-1 $442 $117 #
coedge $-1 $296 $296 $297 $443 reversed $184 $-1 #
coedge $-1 $297 $297 $296 $443 forward $186 $-1 #
coedge $-1 $298 $298 $187 $299 forward $293 $-1 #
edge $-1 $444 -1.4229962831989453e-015 $444 6.2831853071795987 $298 $445 forward 7 unknown #
face $-1 $446 $447 $45 $-1 $448 reversed single #
loop $-1 $-1 $449 $188 #
plane-surface $-1 -52.50038148136845 0 0 1 0 0 0 0 -1 forward_v I I I I #
coedge $-1 $450 $311 $451 $452 forward $189 $-1 #
coedge $-1 $453 $191 $450 $454 forward $121 $-1 #
coedge $-1 $191 $453 $455 $456 forward $121 $-1 #
coedge $-1 $314 $313 $191 $307 reversed $315 $-1 #
edge $-1 $457 -30.172778525427599 $458 30.172778525427599 $306 $459 forward 7 unknown #
coedge $-1 $193 $192 $460 $461 forward $76 $-1 #
coedge $-1 $462 $463 $192 $310 reversed $447 $-1 #
edge $-1 $317 -52.50038148136845 $464 52.50038148136845 $309 $465 forward 7 unknown #
coedge $-1 $303 $466 $193 $312 reversed $189 $-1 #
edge $-1 $467 -52.50038148136845 $316 52.50038148136845 $311 $468 forward 7 unknown #
coedge $-1 $306 $194 $466 $469 forward $315 $-1 #
coedge $-1 $194 $306 $462 $470 reversed $315 $-1 #
loop $-1 $-1 $313 $446 #
vertex $-1 $195 $471 #
vertex $-1 $195 $472 #
straight-curve $-1 52.50038148136845 0 9.364454740812052 0 1 0 I I #
face $-1 $473 $474 $46 $-1 $475 reversed single #
loop $-1 $-1 $476 $196 #
plane-surface $-1 -52.50038148136845 0 0 1 0 0 0 0 -1 forward_v I I I I #
coedge $-1 $477 $478 $201 $329 forward $197 $-1 #
coedge $-1 $479 $199 $480 $481 reversed $125 $-1 #
coedge $-1 $199 $479 $477 $482 reversed $125 $-1 #
coedge $-1 $201 $200 $199 $326 reversed $79 $-1 #
edge $-1 $483 -9.364454740812052 $484 9.364454740812052 $325 $485 forward 7 unknown #
coedge $-1 $486 $480 $200 $328 forward $474 $-1 #
edge $-1 $484 12.789115640905074 $333 15.852147136650039 $327 $487 forward 7 unknown #
edge $-1 $334 -15.852147136650039 $483 -12.789115640905074 $322 $488 forward 7 unknown #
coedge $-1 $489 $202 $478 $490 reversed $332 $-1 #
coedge $-1 $202 $489 $486 $491 reversed $332 $-1 #
loop $-1 $-1 $202 $473 #
vertex $-1 $491 $492 #
vertex $-1 $203 $493 #
straight-curve $-1 -45.009869392977549 -30.172778525427599 0 0 0 1 I I #
face $-1 $494 $495 $47 $-1 $496 reversed single #
loop $-1 $-1 $497 $204 #
plane-surface $-1 0 -30.172778525427599 0 0 1 0 0 0 1 forward_v I I I I #
coedge $-1 $347 $498 $341 $499 forward $205 $-1 #
coedge $-1 $210 $207 $500 $501 reversed $129 $-1 #
coedge $-1 $207 $210 $339 $499 reversed $129 $-1 #
coedge $-1 $502 $503 $207 $343 forward $504 $-1 #
edge $-1 $505 -9.364454740812052 $506 9.364454740812052 $342 $507 forward 7 unknown #
coedge $-1 $209 $208 $497 $508 reversed $82 $-1 #
coedge $-1 $500 $509 $208 $346 forward $495 $-1 #
edge $-1 $510 -15.852147136650039 $350 -12.789115640905074 $345 $511 forward 7 unknown #
coedge $-1 $512 $339 $209 $348 forward $205 $-1 #
edge $-1 $349 12.789115640905074 $513 15.852147136650039 $347 $514 forward 7 unknown #
vertex $-1 $348 $515 #
vertex $-1 $346 $516 #
straight-curve $-1 45.009869392977542 -27.10974702968263 0 0 0 -1 I I #
face $-1 $-1 $364 $48 $-1 $517 forward single #
loop $-1 $-1 $518 $212 #
plane-surface $-1 0 30.172778525427599 0 0 -1 0 0 0 -1 forward_v I I I I #
coedge $-1 $519 $520 $521 $522 reversed $213 $-1 #
coedge $-1 $523 $215 $217 $362 forward $133 $-1 #
coedge $-1 $215 $523 $519 $524 forward $133 $-1 #
coedge $-1 $521 $218 $215 $359 forward $364 $-1 #
edge $-1 $366 -25.93967248665588 $525 -12.200721325987459 $358 $526 forward 7 unknown #
coedge $-1 $527 $528 $216 $361 forward $353 $-1 #
edge $-1 $529 -59.311474877717188 $365 -50.901678636343306 $360 $530 forward 7 unknown #
edge $-1 $366 46.982258711013714 $529 60.34555705085522 $217 $531 forward 7 unknown #
coedge $-1 $218 $521 $527 $532 forward $364 $-1 #
loop $-1 $-1 $521 $352 #
vertex $-1 $361 $533 #
vertex $-1 $219 $534 #
straight-curve $-1 -45.009869392977549 24.677297491071549 9.3644547408120502 0 -1 0 I I #
coedge $-1 $368 $368 $-1 $535 reversed $222 $-1 #
edge $-1 $536 0 $536 6.2831853071796004 $223 $537 forward 7 unknown #
vertex $-1 $226 $538 #
ellipse-curve $-1 -41.084454775643714 24.980161899433902 5.1595566201251089 0 0.62932039886446345 0.77714595512881146 1.5 0 0 1 I I #
coedge $-1 $372 $372 $-1 $539 reversed $229 $-1 #
edge $-1 $540 0 $540 6.2831853071796004 $230 $541 forward 7 unknown #
vertex $-1 $233 $542 #
ellipse-curve $-1 -35.196332849642964 24.980161899433902 5.1595566201251089 0 0.62932039886446345 0.77714595512881146 1.5 0 0 1 I I #
face $-1 $-1 $543 $51 $-1 $544 reversed single #
loop $-1 $-1 $240 $234 #
plane-surface $-1 0 0 9.364454740812052 0 0 1 1 0 0 forward_v I I I I #
coedge $-1 $545 $546 $547 $548 reversed $235 $-1 #
coedge $-1 $549 $237 $239 $386 forward $147 $-1 #
coedge $-1 $237 $549 $545 $550 forward $147 $-1 #
coedge $-1 $547 $240 $237 $383 forward $377 $-1 #
edge $-1 $389 12.200721325987459 $551 25.93967248665588 $382 $552 forward 7 unknown #
coedge $-1 $553 $554 $238 $385 forward $543 $-1 #
edge $-1 $555 -59.311474877717188 $388 -50.901678636343306 $384 $556 forward 7 unknown #
edge $-1 $389 46.982258711013714 $555 60.34555705085522 $239 $557 forward 7 unknown #
coedge $-1 $240 $547 $553 $558 forward $377 $-1 #
vertex $-1 $241 $559 #
vertex $-1 $241 $560 #
straight-curve $-1 31.270918232309128 24.677297491071549 9.3644547408120502 0 -1 0 I I #
coedge $-1 $391 $391 $-1 $561 reversed $244 $-1 #
edge $-1 $562 0 $562 6.2831853071796004 $245 $563 forward 7 unknown #
vertex $-1 $248 $564 #
ellipse-curve $-1 35.196332849642957 24.980161899433902 5.1595566201251089 0 0.62932039886446345 0.77714595512881146 1.5 0 0 1 I I #
coedge $-1 $395 $395 $-1 $565 reversed $251 $-1 #
edge $-1 $566 0 $566 6.2831853071796004 $252 $567 forward 7 unknown #
vertex $-1 $255 $568 #
ellipse-curve $-1 41.084454775643721 24.980161899433902 5.1595566201251089 0 0.62932039886446345 0.77714595512881146 1.5 0 0 1 I I #
face $-1 $-1 $412 $54 $-1 $569 reversed single #
loop $-1 $-1 $408 $256 #
plane-surface $-1 -45.009869392977549 -28.641262777555113 0 -1 0 0 0 0 1 forward_v I I I I #
coedge $-1 $570 $571 $404 $572 forward $257 $-1 #
coedge $-1 $404 $259 $261 $410 reversed $161 $-1 #
coedge $-1 $259 $403 $402 $572 reversed $161 $-1 #
coedge $-1 $573 $262 $259 $406 forward $412 $-1 #
edge $-1 $414 -40.323129861245967 $574 -31.913333619872091 $405 $575 forward 7 unknown #
coedge $-1 $261 $260 $570 $576 reversed $103 $-1 #
coedge $-1 $577 $578 $260 $409 forward $400 $-1 #
edge $-1 $579 -13.068585739326799 $413 0.29471260051470594 $408 $580 forward 7 unknown #
edge $-1 $581 -13.363298339841492 $414 1.3732681969779619e-014 $403 $582 forward 7 unknown #
coedge $-1 $262 $573 $577 $583 forward $412 $-1 #
loop $-1 $-1 $405 $399 #
vertex $-1 $409 $584 #
vertex $-1 $263 $585 #
straight-curve $-1 -19.070196906321669 -30.172778525427599 0.95465849943817349 1 0 0 I I #
coedge $-1 $416 $416 $-1 $586 reversed $266 $-1 #
edge $-1 $587 0 $587 6.2831853071796004 $267 $588 forward 7 unknown #
vertex $-1 $270 $589 #
ellipse-curve $-1 -41.084454775643714 -24.980161899433906 5.1595566201251124 0 -0.62932039886446345 0.77714595512881146 1.5 0 0 1 I I #
coedge $-1 $420 $420 $-1 $590 reversed $273 $-1 #
edge $-1 $591 0 $591 6.2831853071796004 $274 $592 forward 7 unknown #
vertex $-1 $277 $593 #
ellipse-curve $-1 -35.196332849642964 -24.980161899433906 5.1595566201251124 0 -0.62932039886446345 0.77714595512881146 1.5 0 0 1 I I #
face $-1 $-1 $594 $57 $-1 $595 forward single #
loop $-1 $-1 $431 $278 #
plane-surface $-1 0 0 9.364454740812052 0 0 1 1 0 0 forward_v I I I I #
coedge $-1 $596 $281 $283 $433 forward $175 $-1 #
coedge $-1 $281 $596 $597 $598 reversed $175 $-1 #
coedge $-1 $599 $284 $281 $430 forward $279 $-1 #
edge $-1 $436 12.200721325987459 $600 25.93967248665588 $429 $601 forward 7 unknown #
coedge $-1 $602 $603 $282 $432 forward $425 $-1 #
edge $-1 $604 -28.338405003664864 $435 -17.953171751677477 $431 $605 forward 7 unknown #
edge $-1 $436 -1.3732681969779619e-014 $604 13.363298339841492 $283 $606 forward 7 unknown #
coedge $-1 $284 $599 $602 $607 reversed $279 $-1 #
vertex $-1 $607 $608 #
vertex $-1 $285 $609 #
straight-curve $-1 31.270918232309128 -30.172778525427596 41.277788360684141 0 0 -1 I I #
coedge $-1 $438 $438 $-1 $610 reversed $288 $-1 #
edge $-1 $611 0 $611 6.2831853071796004 $289 $612 forward 7 unknown #
vertex $-1 $292 $613 #
ellipse-curve $-1 35.196332849642957 -24.980161899433906 5.1595566201251124 0 -0.62932039886446345 0.77714595512881146 1.5 0 0 1 I I #
coedge $-1 $442 $442 $-1 $614 reversed $295 $-1 #
edge $-1 $615 0 $615 6.2831853071796004 $296 $616 forward 7 unknown #
vertex $-1 $299 $617 #
ellipse-curve $-1 41.084454775643721 -24.980161899433906 5.1595566201251124 0 -0.62932039886446345 0.77714595512881146 1.5 0 0 1 I I #
face $-1 $-1 $315 $45 $-1 $618 reversed single #
loop $-1 $-1 $462 $300 #
plane-surface $-1 0 30.172778525427599 0 0 -1 0 0 0 -1 forward_v I I I I #
coedge $-1 $619 $460 $463 $620 forward $301 $-1 #
coedge $-1 $466 $303 $304 $454 reversed $189 $-1 #
coedge $-1 $460 $619 $303 $452 reversed $301 $-1 #
edge $-1 $467 -9.364454740812052 $621 9.364454740812052 $451 $622 forward 7 unknown #
coedge $-1 $305 $304 $619 $623 forward $121 $-1 #
edge $-1 $458 -52.50038148136845 $621 52.50038148136845 $450 $624 forward 7 unknown #
coedge $-1 $463 $462 $305 $456 reversed $447 $-1 #
edge $-1 $625 -52.50038148136845 $457 52.50038148136845 $455 $626 forward 7 unknown #
vertex $-1 $307 $627 #
vertex $-1 $469 $628 #
straight-curve $-1 52.50038148136845 0 -9.364454740812052 0 -1 0 I I #
coedge $-1 $449 $451 $308 $461 reversed $301 $-1 #
edge $-1 $464 -30.172778525427599 $467 30.172778525427599 $460 $629 forward 7 unknown #
coedge $-1 $455 $309 $314 $470 forward $447 $-1 #
coedge $-1 $309 $455 $449 $620 reversed $447 $-1 #
vertex $-1 $310 $630 #
straight-curve $-1 0 30.172778525427599 9.364454740812052 -1 0 0 I I #
coedge $-1 $311 $450 $313 $469 reversed $189 $-1 #
vertex $-1 $461 $631 #
straight-curve $-1 0 -30.172778525427599 9.364454740812052 1 0 0 I I #
edge $-1 $316 -9.364454740812052 $458 9.364454740812052 $313 $632 forward 7 unknown #
edge $-1 $317 -9.364454740812052 $457 9.364454740812052 $314 $633 forward 7 unknown #
point $-1 52.50038148136845 -30.172778525427599 9.364454740812052 #
point $-1 52.50038148136845 30.172778525427599 9.364454740812052 #
face $-1 $-1 $332 $46 $-1 $634 reversed single #
loop $-1 $-1 $327 $319 #
plane-surface $-1 0 0 -9.364454740812052 0 0 1 1 0 0 forward_v I I I I #
coedge $-1 $635 $636 $479 $637 forward $320 $-1 #
coedge $-1 $638 $322 $324 $482 forward $197 $-1 #
coedge $-1 $322 $638 $330 $490 forward $197 $-1 #
coedge $-1 $324 $323 $476 $637 reversed $125 $-1 #
coedge $-1 $327 $639 $323 $481 forward $474 $-1 #
edge $-1 $640 -28.12281876278195 $484 -20.632306674391049 $480 $641 forward 7 unknown #
edge $-1 $483 20.632306674391049 $642 28.12281876278195 $477 $643 forward 7 unknown #
vertex $-1 $482 $644 #
vertex $-1 $481 $645 #
straight-curve $-1 -45.009869392977549 -27.10974702968263 0 0 0 -1 I I #
coedge $-1 $639 $327 $331 $491 forward $474 $-1 #
straight-curve $-1 -45.009869392977549 -14.320631388777556 -9.364454740812052 0 -1 0 I I #
straight-curve $-1 -45.009869392977549 -14.320631388777556 9.364454740812052 0 1 0 I I #
coedge $-1 $331 $330 $646 $647 forward $332 $-1 #
edge $-1 $648 -52.50038148136845 $334 -45.009869392977549 $330 $649 forward 7 unknown #
edge $-1 $333 45.009869392977549 $650 52.50038148136845 $331 $651 forward 7 unknown #
point $-1 -45.009869392977549 -30.172778525427596 -9.364454740812052 #
point $-1 -45.009869392977549 -30.172778525427596 9.364454740812052 #
face $-1 $-1 $504 $47 $-1 $652 reversed single #
loop $-1 $-1 $500 $336 #
plane-surface $-1 0 0 -9.364454740812052 0 0 1 1 0 0 forward_v I I I I #
coedge $-1 $653 $654 $344 $508 forward $337 $-1 #
coedge $-1 $339 $512 $502 $655 forward $205 $-1 #
edge $-1 $506 -28.122818762781947 $349 -20.632306674391046 $339 $656 forward 7 unknown #
coedge $-1 $657 $345 $340 $501 forward $495 $-1 #
edge $-1 $350 20.632306674391046 $505 28.122818762781947 $500 $658 forward 7 unknown #
coedge $-1 $659 $342 $498 $655 reversed $504 $-1 #
coedge $-1 $342 $659 $657 $660 reversed $504 $-1 #
loop $-1 $-1 $342 $494 #
vertex $-1 $660 $661 #
vertex $-1 $343 $662 #
straight-curve $-1 52.50038148136845 -27.10974702968263 0 0 0 1 I I #
edge $-1 $513 -9.364454740812052 $510 9.364454740812052 $497 $663 forward 7 unknown #
coedge $-1 $345 $657 $653 $664 forward $495 $-1 #
vertex $-1 $346 $665 #
straight-curve $-1 45.009869392977542 -14.320631388777556 -9.364454740812052 0 1 0 I I #
coedge $-1 $498 $347 $654 $666 forward $205 $-1 #
vertex $-1 $666 $667 #
straight-curve $-1 45.009869392977542 -14.320631388777556 9.364454740812052 0 -1 0 I I #
point $-1 45.009869392977542 -27.10974702968263 9.364454740812052 #
point $-1 45.009869392977542 -27.10974702968263 -9.364454740812052 #
plane-surface $-1 0 0 9.364454740812052 0 0 1 1 0 0 forward_v I I I I #
coedge $-1 $528 $527 $520 $668 forward $353 $-1 #
coedge $-1 $520 $355 $357 $524 reversed $213 $-1 #
coedge $-1 $355 $519 $518 $668 reversed $213 $-1 #
coedge $-1 $363 $358 $355 $522 forward $364 $-1 #
edge $-1 $525 -4.8897522176313402 $669 5.4954810343560503 $521 $670 forward 7 unknown #
coedge $-1 $357 $356 $528 $671 reversed $133 $-1 #
edge $-1 $672 -60.34555705085522 $525 -46.982258711013714 $519 $673 forward 7 unknown #
vertex $-1 $359 $674 #
straight-curve $-1 -19.070196906321669 19.787545273440209 9.3644547408120502 1 0 0 I I #
coedge $-1 $518 $360 $363 $532 reversed $353 $-1 #
coedge $-1 $360 $518 $523 $671 forward $353 $-1 #
vertex $-1 $361 $675 #
straight-curve $-1 -45.009869392977549 30.172778525427599 60.266133377155356 0 0 1 I I #
straight-curve $-1 -45.009869392977549 -16.724527046639466 38.931348532380611 0 0.77714595512881146 -0.62932039886446345 I I #
edge $-1 $669 31.270918232309128 $365 45.009869392977549 $527 $676 forward 7 unknown #
point $-1 -45.009869392977549 30.172778525427599 9.364454740812052 #
point $-1 -45.009869392977549 19.787545273440209 9.3644547408120467 #
edge $-1 $677 1 $677 0 $368 $-1 forward 7 unknown #
vertex $-1 $369 $678 #
ellipse-curve $-1 -41.084454775643714 21.657979379386973 1.057002956978776 0 0.62932039886446345 0.77714595512881146 1.5 0 0 1 I I #
point $-1 -39.584454775643714 24.98016189943392 5.1595566201251257 #
edge $-1 $679 1 $679 0 $372 $-1 forward 7 unknown #
vertex $-1 $373 $680 #
ellipse-curve $-1 -35.196332849642964 21.657979379386973 1.057002956978776 0 0.62932039886446345 0.77714595512881146 1.5 0 0 1 I I #
point $-1 -33.696332849642964 24.98016189943392 5.1595566201251257 #
loop $-1 $-1 $384 $376 #
plane-surface $-1 0 30.172778525427599 0 0 -1 0 0 0 -1 forward_v I I I I #
coedge $-1 $546 $379 $381 $550 reversed $235 $-1 #
coedge $-1 $379 $545 $681 $682 reversed $235 $-1 #
coedge $-1 $387 $382 $379 $548 forward $377 $-1 #
edge $-1 $551 -4.8897522176313402 $683 5.4954810343560503 $547 $684 forward 7 unknown #
coedge $-1 $381 $380 $554 $685 reversed $147 $-1 #
edge $-1 $686 -60.34555705085522 $551 -46.982258711013714 $545 $687 forward 7 unknown #
vertex $-1 $383 $688 #
straight-curve $-1 19.070196906321669 19.787545273440209 9.3644547408120502 1 0 0 I I #
coedge $-1 $681 $384 $387 $558 reversed $543 $-1 #
coedge $-1 $384 $681 $549 $685 forward $543 $-1 #
vertex $-1 $385 $689 #
straight-curve $-1 31.270918232309128 30.172778525427599 60.266133377155356 0 0 1 I I #
straight-curve $-1 31.270918232309128 -16.724527046639466 38.931348532380611 0 0.77714595512881146 -0.62932039886446345 I I #
edge $-1 $683 -45.009869392977549 $388 -31.270918232309128 $553 $690 forward 7 unknown #
point $-1 31.270918232309128 30.172778525427599 9.364454740812052 #
point $-1 31.270918232309128 19.787545273440209 9.3644547408120467 #
edge $-1 $691 1 $691 0 $391 $-1 forward 7 unknown #
vertex $-1 $392 $692 #
ellipse-curve $-1 35.196332849642957 21.657979379386973 1.057002956978776 0 0.62932039886446345 0.77714595512881146 1.5 0 0 1 I I #
point $-1 36.696332849642957 24.98016189943392 5.1595566201251257 #
edge $-1 $693 1 $693 0 $395 $-1 forward 7 unknown #
vertex $-1 $396 $694 #
ellipse-curve $-1 41.084454775643721 21.657979379386973 1.057002956978776 0 0.62932039886446345 0.77714595512881146 1.5 0 0 1 I I #
point $-1 42.584454775643721 24.98016189943392 5.1595566201251257 #
plane-surface $-1 0 -30.172778525427599 0 0 1 0 0 0 1 forward_v I I I I #
coedge $-1 $695 $402 $407 $576 forward $257 $-1 #
coedge $-1 $402 $695 $573 $696 forward $257 $-1 #
edge $-1 $574 17.953171751677477 $581 28.338405003664864 $402 $697 forward 7 unknown #
coedge $-1 $411 $405 $571 $696 reversed $412 $-1 #
vertex $-1 $406 $698 #
straight-curve $-1 -31.270918232309128 -30.172778525427596 41.277788360684141 0 0 1 I I #
edge $-1 $581 12.200721325987459 $579 25.93967248665588 $570 $699 forward 7 unknown #
coedge $-1 $578 $408 $411 $583 reversed $400 $-1 #
coedge $-1 $408 $577 $695 $700 reversed $400 $-1 #
vertex $-1 $576 $701 #
straight-curve $-1 -45.009869392977549 -29.943743820012102 1.140127150744471 0 -0.77714595512881146 -0.62932039886446345 I I #
vertex $-1 $576 $702 #
straight-curve $-1 -31.270918232309128 -30.172778525427589 0.95465849943818171 0 -0.77714595512881146 -0.62932039886446345 I I #
edge $-1 $703 -9.364454740812052 $413 -0.95465849943817305 $411 $704 forward 7 unknown #
point $-1 -45.009869392977549 -30.172778525427599 0.95465849943817305 #
point $-1 -31.270918232309128 -30.172778525427599 0.95465849943817305 #
edge $-1 $705 1 $705 0 $416 $-1 forward 7 unknown #
vertex $-1 $417 $706 #
ellipse-curve $-1 -41.084454775643714 -21.657979379386969 1.0570029569787724 0 -0.62932039886446345 0.77714595512881146 1.5 0 0 1 I I #
point $-1 -39.584454775643714 -24.980161899433917 5.1595566201251222 #
edge $-1 $707 1 $707 0 $420 $-1 forward 7 unknown #
vertex $-1 $421 $708 #
ellipse-curve $-1 -35.196332849642964 -21.657979379386969 1.0570029569787724 0 -0.62932039886446345 0.77714595512881146 1.5 0 0 1 I I #
point $-1 -33.696332849642964 -24.980161899433917 5.1595566201251222 #
loop $-1 $-1 $597 $424 #
plane-surface $-1 45.009869392977542 -28.641262777555113 0 1 0 0 0 0 -1 forward_v I I I I #
coedge $-1 $428 $427 $603 $709 reversed $175 $-1 #
coedge $-1 $710 $711 $428 $598 forward $594 $-1 #
edge $-1 $600 -0.29471260051470594 $712 13.068585739326799 $597 $713 forward 7 unknown #
coedge $-1 $434 $429 $711 $714 forward $279 $-1 #
vertex $-1 $714 $715 #
straight-curve $-1 19.070196906321669 -30.172778525427599 0.95465849943817349 1 0 0 I I #
coedge $-1 $716 $431 $434 $607 forward $425 $-1 #
coedge $-1 $431 $716 $596 $709 forward $425 $-1 #
vertex $-1 $432 $717 #
straight-curve $-1 31.270918232309128 -48.125950277105076 9.3644547408120502 0 -1 0 I I #
straight-curve $-1 31.270918232309128 -30.172778525427589 0.95465849943818171 0 0.77714595512881146 0.62932039886446345 I I #
edge $-1 $435 31.270918232309128 $718 45.009869392977542 $434 $719 forward 7 unknown #
point $-1 31.270918232309128 -30.172778525427599 9.364454740812052 #
point $-1 31.270918232309128 -30.172778525427599 0.95465849943817305 #
edge $-1 $720 1 $720 0 $438 $-1 forward 7 unknown #
vertex $-1 $439 $721 #
ellipse-curve $-1 35.196332849642957 -21.657979379386969 1.0570029569787724 0 -0.62932039886446345 0.77714595512881146 1.5 0 0 1 I I #
point $-1 36.696332849642957 -24.980161899433917 5.1595566201251222 #
edge $-1 $722 1 $722 0 $442 $-1 forward 7 unknown #
vertex $-1 $443 $723 #
ellipse-curve $-1 41.084454775643721 -21.657979379386969 1.0570029569787724 0 -0.62932039886446345 0.77714595512881146 1.5 0 0 1 I I #
point $-1 42.584454775643721 -24.980161899433917 5.1595566201251222 #
plane-surface $-1 52.50038148136845 0 0 -1 0 0 0 0 1 forward_v I I I I #
coedge $-1 $451 $449 $453 $623 reversed $301 $-1 #
edge $-1 $464 -9.364454740812052 $625 9.364454740812052 $463 $724 forward 7 unknown #
vertex $-1 $623 $725 #
straight-curve $-1 -52.50038148136845 -30.172778525427599 0 0 0 -1 I I #
edge $-1 $621 -30.172778525427599 $625 30.172778525427599 $619 $726 forward 7 unknown #
straight-curve $-1 0 -30.172778525427599 -9.364454740812052 -1 0 0 I I #
vertex $-1 $456 $727 #
straight-curve $-1 0 30.172778525427599 -9.364454740812052 1 0 0 I I #
point $-1 52.50038148136845 30.172778525427599 -9.364454740812052 #
point $-1 52.50038148136845 -30.172778525427599 -9.364454740812052 #
straight-curve $-1 -52.50038148136845 0 9.364454740812052 0 -1 0 I I #
point $-1 -52.50038148136845 30.172778525427599 9.364454740812052 #
point $-1 -52.50038148136845 -30.172778525427599 9.364454740812052 #
straight-curve $-1 52.50038148136845 -30.172778525427599 0 0 0 -1 I I #
straight-curve $-1 52.50038148136845 30.172778525427599 0 0 0 -1 I I #
plane-surface $-1 0 -30.172778525427599 0 0 1 0 0 0 1 forward_v I I I I #
coedge $-1 $646 $476 $639 $728 reversed $320 $-1 #
coedge $-1 $476 $646 $638 $729 reversed $320 $-1 #
edge $-1 $642 -9.364454740812052 $640 9.364454740812052 $476 $730 forward 7 unknown #
coedge $-1 $478 $477 $636 $729 forward $197 $-1 #
coedge $-1 $480 $486 $635 $728 forward $474 $-1 #
vertex $-1 $481 $731 #
straight-curve $-1 -24.3775627185865 -27.10974702968263 -9.364454740812052 1 0 0 I I #
vertex $-1 $729 $732 #
straight-curve $-1 -24.3775627185865 -27.10974702968263 9.364454740812052 -1 0 0 I I #
point $-1 -45.009869392977549 -27.10974702968263 9.364454740812052 #
point $-1 -45.009869392977549 -27.10974702968263 -9.364454740812052 #
coedge $-1 $636 $635 $489 $647 reversed $320 $-1 #
edge $-1 $648 -9.364454740812052 $650 9.364454740812052 $646 $733 forward 7 unknown #
vertex $-1 $729 $734 #
straight-curve $-1 0 -30.172778525427599 9.364454740812052 1 0 0 I I #
vertex $-1 $728 $735 #
straight-curve $-1 0 -30.172778525427599 -9.364454740812052 -1 0 0 I I #
plane-surface $-1 52.50038148136845 0 0 -1 0 0 0 0 1 forward_v I I I I #
coedge $-1 $736 $497 $509 $664 reversed $337 $-1 #
coedge $-1 $497 $736 $512 $666 reversed $337 $-1 #
edge $-1 $737 -30.172778525427599 $506 -27.10974702968263 $502 $738 forward 7 unknown #
straight-curve $-1 24.377562718586496 -27.10974702968263 9.364454740812052 -1 0 0 I I #
coedge $-1 $509 $500 $503 $660 forward $495 $-1 #
straight-curve $-1 24.377562718586496 -27.10974702968263 -9.364454740812052 1 0 0 I I #
coedge $-1 $503 $502 $736 $739 forward $504 $-1 #
edge $-1 $505 27.10974702968263 $740 30.172778525427599 $503 $741 forward 7 unknown #
point $-1 52.500381481368443 -27.10974702968263 -9.364454740812052 #
point $-1 52.500381481368443 -27.10974702968263 9.364454740812052 #
straight-curve $-1 45.009869392977542 -30.172778525427599 0 0 0 -1 I I #
edge $-1 $740 -52.50038148136845 $510 -45.009869392977542 $653 $742 forward 7 unknown #
point $-1 45.009869392977542 -30.172778525427596 -9.364454740812052 #
edge $-1 $513 45.009869392977542 $737 52.50038148136845 $654 $743 forward 7 unknown #
point $-1 45.009869392977542 -30.172778525427596 9.364454740812052 #
edge $-1 $669 50.901678636343306 $672 59.311474877717188 $518 $744 forward 7 unknown #
vertex $-1 $532 $745 #
straight-curve $-1 -31.270918232309128 24.677297491071549 9.3644547408120502 0 1 0 I I #
edge $-1 $672 12.200721325987459 $529 25.93967248665588 $528 $746 forward 7 unknown #
vertex $-1 $671 $747 #
straight-curve $-1 -31.270918232309128 -16.724527046639466 38.931348532380611 0 -0.77714595512881146 0.62932039886446345 I I #
point $-1 -31.270918232309128 19.787545273440209 9.3644547408120467 #
point $-1 -45.009869392977549 30.172778525427603 0.9546584994381675 #
straight-curve $-1 0 30.172778525427599 9.364454740812052 -1 0 0 I I #
vertex $-1 $535 $748 #
point $-1 -39.584454775643714 21.657979379386973 1.057002956978776 #
vertex $-1 $539 $749 #
point $-1 -33.696332849642964 21.657979379386973 1.057002956978776 #
coedge $-1 $554 $553 $546 $682 forward $543 $-1 #
edge $-1 $683 50.901678636343306 $686 59.311474877717188 $681 $750 forward 7 unknown #
vertex $-1 $558 $751 #
straight-curve $-1 45.009869392977549 24.677297491071549 9.3644547408120502 0 1 0 I I #
edge $-1 $686 -25.93967248665588 $555 -12.200721325987459 $554 $752 forward 7 unknown #
vertex $-1 $685 $753 #
straight-curve $-1 45.009869392977549 -16.724527046639466 38.931348532380611 0 -0.77714595512881146 0.62932039886446345 I I #
point $-1 45.009869392977549 19.787545273440209 9.3644547408120467 #
point $-1 31.270918232309128 30.172778525427603 0.9546584994381675 #
straight-curve $-1 0 30.172778525427599 9.364454740812052 -1 0 0 I I #
vertex $-1 $561 $754 #
point $-1 36.696332849642957 21.657979379386973 1.057002956978776 #
vertex $-1 $565 $755 #
point $-1 42.584454775643721 21.657979379386973 1.057002956978776 #
coedge $-1 $571 $570 $578 $700 forward $257 $-1 #
edge $-1 $703 -45.009869392977549 $574 -31.270918232309128 $573 $756 forward 7 unknown #
straight-curve $-1 -31.270918232309128 -48.125950277105076 9.3644547408120502 0 1 0 I I #
point $-1 -31.270918232309128 -30.172778525427599 9.364454740812052 #
straight-curve $-1 -19.070196906321669 -19.787545273440212 9.364454740812052 -1 0 0 I I #
edge $-1 $579 -28.338405003664864 $703 -17.95317175167748 $695 $757 forward 7 unknown #
point $-1 -45.009869392977549 -19.787545273440212 9.364454740812052 #
point $-1 -31.270918232309128 -19.787545273440212 9.364454740812052 #
vertex $-1 $696 $758 #
straight-curve $-1 -45.009869392977549 -30.172778525427599 0 0 0 -1 I I #
vertex $-1 $586 $759 #
point $-1 -39.584454775643714 -21.657979379386969 1.0570029569787724 #
vertex $-1 $590 $760 #
point $-1 -33.696332849642964 -21.657979379386969 1.0570029569787724 #
edge $-1 $712 -25.93967248665588 $604 -12.200721325987459 $603 $761 forward 7 unknown #
coedge $-1 $711 $597 $716 $762 reversed $594 $-1 #
coedge $-1 $597 $710 $599 $714 reversed $594 $-1 #
vertex $-1 $762 $763 #
straight-curve $-1 45.009869392977542 -29.943743820012102 1.140127150744471 0 0.77714595512881146 0.62932039886446345 I I #
edge $-1 $600 0.95465849943817305 $718 9.364454740812052 $599 $764 forward 7 unknown #
point $-1 45.009869392977549 -30.172778525427599 0.95465849943817305 #
coedge $-1 $603 $602 $710 $762 forward $425 $-1 #
point $-1 31.270918232309128 -19.787545273440212 9.364454740812052 #
vertex $-1 $714 $765 #
straight-curve $-1 0 -30.172778525427599 9.364454740812052 1 0 0 I I #
vertex $-1 $610 $766 #
point $-1 36.696332849642957 -21.657979379386969 1.0570029569787724 #
vertex $-1 $614 $767 #
point $-1 42.584454775643721 -21.657979379386969 1.0570029569787724 #
straight-curve $-1 -52.50038148136845 30.172778525427599 0 0 0 -1 I I #
point $-1 -52.50038148136845 -30.172778525427599 -9.364454740812052 #
straight-curve $-1 -52.50038148136845 0 -9.364454740812052 0 1 0 I I #
point $-1 -52.50038148136845 30.172778525427599 -9.364454740812052 #
edge $-1 $650 -30.172778525427599 $640 -27.10974702968263 $635 $768 forward 7 unknown #
edge $-1 $642 27.10974702968263 $648 30.172778525427599 $636 $769 forward 7 unknown #
straight-curve $-1 -52.50038148136845 -27.10974702968263 0 0 0 -1 I I #
point $-1 -52.50038148136845 -27.10974702968263 -9.364454740812052 #
point $-1 -52.50038148136845 -27.10974702968263 9.364454740812052 #
straight-curve $-1 -52.50038148136845 -30.172778525427599 0 0 0 -1 I I #
point $-1 -52.50038148136845 -30.172778525427599 9.364454740812052 #
point $-1 -52.50038148136845 -30.172778525427599 -9.364454740812052 #
coedge $-1 $654 $653 $659 $739 reversed $337 $-1 #
vertex $-1 $655 $770 #
straight-curve $-1 52.50038148136845 0 9.364454740812052 0 1 0 I I #
edge $-1 $737 -9.364454740812052 $740 9.364454740812052 $659 $771 forward 7 unknown #
vertex $-1 $739 $772 #
straight-curve $-1 52.50038148136845 0 -9.364454740812052 0 -1 0 I I #
straight-curve $-1 0 -30.172778525427599 -9.364454740812052 -1 0 0 I I #
straight-curve $-1 0 -30.172778525427599 9.364454740812052 1 0 0 I I #
straight-curve $-1 -31.270918232309128 30.172778525427599 60.266133377155356 0 0 -1 I I #
point $-1 -31.270918232309128 30.172778525427599 9.364454740812052 #
straight-curve $-1 -19.070196906321669 30.172778525427596 0.9546584994381675 -1 0 0 I I #
point $-1 -31.270918232309128 30.172778525427603 0.9546584994381675 #
point $-1 -41.084454775643714 20.713998781090275 -0.10871597571444103 #
point $-1 -35.196332849642964 20.713998781090275 -0.10871597571444103 #
straight-curve $-1 45.009869392977549 30.172778525427599 60.266133377155356 0 0 -1 I I #
point $-1 45.009869392977549 30.172778525427599 9.364454740812052 #
straight-curve $-1 19.070196906321669 30.172778525427596 0.9546584994381675 -1 0 0 I I #
point $-1 45.009869392977549 30.172778525427603 0.9546584994381675 #
point $-1 35.196332849642957 20.713998781090275 -0.10871597571444103 #
point $-1 41.084454775643721 20.713998781090275 -0.10871597571444103 #
straight-curve $-1 0 -30.172778525427599 9.364454740812052 1 0 0 I I #
straight-curve $-1 -45.009869392977549 -48.125950277105076 9.3644547408120502 0 -1 0 I I #
point $-1 -45.009869392977549 -30.172778525427596 9.364454740812052 #
point $-1 -41.084454775643714 -20.713998781090272 -0.10871597571444458 #
point $-1 -35.196332849642964 -20.713998781090272 -0.10871597571444458 #
straight-curve $-1 19.070196906321669 -19.787545273440212 9.364454740812052 -1 0 0 I I #
edge $-1 $718 -15.852147136650039 $712 -5.4669138846626559 $716 $773 forward 7 unknown #
point $-1 45.009869392977549 -19.787545273440212 9.364454740812052 #
straight-curve $-1 45.009869392977542 -30.172778525427599 0 0 0 1 I I #
point $-1 45.009869392977542 -30.172778525427596 9.364454740812052 #
point $-1 35.196332849642957 -20.713998781090272 -0.10871597571444458 #
point $-1 41.084454775643721 -20.713998781090272 -0.10871597571444458 #
straight-curve $-1 -52.50038148136845 0 -9.364454740812052 0 1 0 I I #
straight-curve $-1 -52.50038148136845 0 9.364454740812052 0 -1 0 I I #
point $-1 52.50038148136845 -30.172778525427599 9.364454740812052 #
straight-curve $-1 52.50038148136845 -30.172778525427599 0 0 0 -1 I I #
point $-1 52.50038148136845 -30.172778525427599 -9.364454740812052 #
straight-curve $-1 45.009869392977542 -14.320631388777556 9.364454740812052 0 1 0 I I #
End-of-ACIS-data 