500 0 7 0           
7 Unknown 11 ACIS 5.0 NT 24 Thu Mar 25 23:05:34 1999 
-1 9.9999999999999995e-007 1e-010 
body $-1 $7 $-1 $8 #
body $-1 $9 $-1 $10 #
body $-1 $11 $-1 $12 #
body $-1 $13 $-1 $14 #
body $-1 $15 $-1 $16 #
body $-1 $17 $-1 $18 #
body $-1 $19 $-1 $20 #
lump $-1 $-1 $21 $0 #
transform $-1 1 0 0 0 1 0 0 0 1 42.314523758659625 18.306161517552148 6.2780183972041606 1 rotate no_reflect no_shear #
lump $-1 $-1 $22 $1 #
transform $-1 1 0 0 0 1 0 0 0 1 42.314523758659625 18.306161517552148 6.2780183972041606 1 rotate no_reflect no_shear #
lump $-1 $-1 $23 $2 #
transform $-1 1 0 0 0 1 0 0 0 1 42.314523758659625 18.306161517552148 6.2780183972041606 1 rotate no_reflect no_shear #
lump $-1 $-1 $24 $3 #
transform $-1 1 0 0 0 1 0 0 0 1 42.314523758659625 18.306161517552148 6.2780183972041606 1 rotate no_reflect no_shear #
lump $-1 $-1 $25 $4 #
transform $-1 1 0 0 0 1 0 0 0 1 42.314523758659625 18.306161517552148 6.2780183972041606 1 rotate no_reflect no_shear #
lump $-1 $-1 $26 $5 #
transform $-1 1 0 0 0 1 0 0 0 1 42.314523758659625 18.306161517552148 6.2780183972041606 1 rotate no_reflect no_shear #
lump $-1 $-1 $27 $6 #
transform $-1 1 0 0 0 1 0 0 0 1 42.314523758659625 18.306161517552148 6.2780183972041606 1 rotate no_reflect no_shear #
shell $-1 $-1 $-1 $28 $-1 $7 #
shell $-1 $-1 $-1 $29 $-1 $9 #
shell $-1 $-1 $-1 $30 $-1 $11 #
shell $-1 $-1 $-1 $31 $-1 $13 #
shell $-1 $-1 $-1 $32 $-1 $15 #
shell $-1 $-1 $-1 $33 $-1 $17 #
shell $-1 $-1 $-1 $34 $-1 $19 #
face $-1 $35 $36 $21 $-1 $37 forward single #
face $-1 $38 $39 $22 $-1 $40 forward single #
face $-1 $41 $42 $23 $-1 $43 reversed single #
face $-1 $44 $45 $24 $-1 $46 forward single #
face $-1 $47 $48 $25 $-1 $49 forward single #
face $-1 $50 $51 $26 $-1 $52 reversed single #
face $-1 $53 $54 $27 $-1 $55 forward single #
face $-1 $56 $57 $21 $-1 $58 reversed single #
loop $-1 $-1 $59 $28 #
plane-surface $-1 0 0 6.2780183972041606 0 0 1 1 0 0 forward_v I I I I #
face $-1 $60 $61 $22 $-1 $62 reversed single #
loop $-1 $-1 $63 $29 #
plane-surface $-1 0 -18.306161517552148 0 0 1 0 0 0 1 forward_v I I I I #
face $-1 $64 $65 $23 $-1 $66 reversed single #
loop $-1 $-1 $67 $30 #
plane-surface $-1 -108.08364695902389 -11.741849234114696 53.821110576783951 0 1 0 -0.77714596973225614 0 0.62932038083071107 forward_v I I I I #
face $-1 $68 $69 $24 $-1 $70 forward single #
loop $-1 $71 $72 $31 #
cone-surface $-1 -39.433998677945027 -9.4259944619177567 2.9616021315052401 0.77714596973225614 0 -0.62932038083071107 0.31466019041535553 0 0.38857298486612807 1 I I 0 1 0.5 forward I I I I #
face $-1 $73 $74 $25 $-1 $75 forward single #
loop $-1 $76 $77 $32 #
cone-surface $-1 -39.433998677945027 -5.9522123036223498 2.9616021315052401 0.77714596973225614 0 -0.62932038083071107 0.31466019041535553 0 0.38857298486612807 1 I I 0 1 0.5 forward I I I I #
face $-1 $78 $79 $26 $-1 $80 reversed single #
loop $-1 $-1 $81 $33 #
plane-surface $-1 36.050772186202458 3.12231224870908 120.5215276951872 0 -1 0 -0.66913061440640931 0 -0.74314481823134659 forward_v I I I I #
face $-1 $82 $83 $27 $-1 $84 forward single #
loop $-1 $85 $86 $34 #
cone-surface $-1 37.850305571635332 -0.87735243374266503 1.9358714705129758 -0.66913061440640931 0 -0.74314481823134659 1.1147172273470198 0 -1.003695921609614 1 I I 0 1 1.5 forward I I I I #
face $-1 $87 $88 $21 $-1 $89 reversed single #
loop $-1 $-1 $90 $35 #
plane-surface $-1 0 0 -6.2780183972041606 0 0 1 1 0 0 forward_v I I I I #
coedge $-1 $91 $92 $93 $94 forward $36 $-1 #
face $-1 $95 $96 $22 $-1 $97 reversed single #
loop $-1 $-1 $98 $38 #
plane-surface $-1 0 0 -6.2780183972041606 0 0 1 1 0 0 forward_v I I I I #
coedge $-1 $99 $100 $101 $102 forward $39 $-1 #
face $-1 $103 $104 $23 $-1 $105 reversed single #
loop $-1 $-1 $106 $41 #
plane-surface $-1 -42.314523758659647 -7.689103382770055 0.56232616384425427 -0.77714596973225614 0 0.62932038083071107 0.62932038083071107 0 0.77714596973225614 forward_v I I I I #
coedge $-1 $107 $108 $109 $110 reversed $42 $-1 #
face $-1 $-1 $111 $24 $-1 $112 forward single #
loop $-1 $113 $114 $44 #
cone-surface $-1 -38.673425197191023 -9.4259944619177567 2.3457018872785955 0.77714596973225614 0 -0.62932038083071107 0.15733009520767777 0 0.19428649243306403 1 I I -0.70710678118654746 0.70710678118654746 0.25 forward I I I I #
loop $-1 $-1 $115 $31 #
coedge $-1 $72 $72 $116 $117 reversed $45 $-1 #
face $-1 $-1 $118 $25 $-1 $119 forward single #
loop $-1 $120 $121 $47 #
cone-surface $-1 -38.673425197191023 -5.9522123036223498 2.3457018872785955 0.77714596973225614 0 -0.62932038083071107 0.15733009520767777 0 0.19428649243306403 1 I I -0.70710678118654746 0.70710678118654746 0.25 forward I I I I #
loop $-1 $-1 $122 $32 #
coedge $-1 $77 $77 $123 $124 reversed $48 $-1 #
face $-1 $125 $126 $26 $-1 $127 reversed single #
loop $-1 $-1 $128 $50 #
plane-surface $-1 -20.577114375690577 -0.87735243374266503 57.629889560836993 0.66913061440640931 0 0.74314481823134659 0.74314481823134659 0 -0.66913061440640931 forward_v I I I I #
coedge $-1 $129 $130 $131 $132 reversed $51 $-1 #
face $-1 $-1 $133 $27 $-1 $134 forward single #
loop $-1 $135 $136 $53 #
cone-surface $-1 35.814043724872384 -0.87735243374266503 -0.32562637072162559 -0.66913061440640931 0 -0.74314481823134659 0.55735861367350992 0 -0.50184796080480698 1 I I -0.70710678118654757 0.70710678118654757 0.75 forward I I I I #
loop $-1 $-1 $137 $34 #
coedge $-1 $86 $86 $138 $139 reversed $54 $-1 #
face $-1 $140 $141 $21 $-1 $142 reversed single #
loop $-1 $-1 $143 $56 #
plane-surface $-1 0 -18.306161517552148 0 0 1 0 0 0 1 forward_v I I I I #
coedge $-1 $144 $145 $146 $147 forward $57 $-1 #
coedge $-1 $148 $59 $149 $150 forward $36 $-1 #
coedge $-1 $59 $148 $151 $152 forward $36 $-1 #
coedge $-1 $153 $154 $59 $94 reversed $155 $-1 #
edge $-1 $156 -18.306161517552148 $157 18.306161517552148 $93 $158 forward 7 unknown #
face $-1 $159 $160 $22 $-1 $161 forward single #
loop $-1 $-1 $162 $60 #
plane-surface $-1 42.314523758659625 0 0 -1 0 0 0 0 1 forward_v I I I I #
coedge $-1 $163 $164 $165 $166 forward $61 $-1 #
coedge $-1 $165 $63 $162 $167 reversed $39 $-1 #
coedge $-1 $63 $165 $168 $169 reversed $39 $-1 #
coedge $-1 $170 $171 $63 $102 reversed $160 $-1 #
edge $-1 $172 -42.314523758659625 $173 42.314523758659625 $101 $174 forward 7 unknown #
face $-1 $175 $176 $23 $-1 $177 forward single #
loop $-1 $-1 $178 $64 #
plane-surface $-1 -108.08364695902389 -3.6363575314254142 53.821110576783951 0 -1 0 0.77714596973225614 0 -0.62932038083071107 forward_v I I I I #
coedge $-1 $179 $180 $181 $182 reversed $65 $-1 #
coedge $-1 $108 $67 $183 $184 reversed $42 $-1 #
coedge $-1 $67 $107 $179 $185 reversed $42 $-1 #
coedge $-1 $181 $186 $67 $110 forward $176 $-1 #
edge $-1 $187 11.727299720852322 $188 16.355775905639618 $109 $189 forward 7 unknown #
loop $-1 $-1 $116 $68 #
plane-surface $-1 -42.314523758659647 -7.689103382770055 0.56232616384425427 -0.77714596973225614 0 0.62932038083071107 0.62932038083071107 0 0.77714596973225614 forward_v I I I I #
loop $-1 $-1 $190 $44 #
coedge $-1 $114 $114 $115 $191 reversed $69 $-1 #
coedge $-1 $115 $115 $114 $191 forward $71 $-1 #
coedge $-1 $116 $116 $72 $117 forward $111 $-1 #
edge $-1 $192 0 $192 6.2831853071796004 $116 $193 forward 7 unknown #
loop $-1 $-1 $123 $73 #
plane-surface $-1 -42.314523758659647 -7.689103382770055 0.56232616384425427 -0.77714596973225614 0 0.62932038083071107 0.62932038083071107 0 0.77714596973225614 forward_v I I I I #
loop $-1 $-1 $194 $47 #
coedge $-1 $121 $121 $122 $195 reversed $74 $-1 #
coedge $-1 $122 $122 $121 $195 forward $76 $-1 #
coedge $-1 $123 $123 $77 $124 forward $118 $-1 #
edge $-1 $196 0 $196 6.2831853071796004 $123 $197 forward 7 unknown #
face $-1 $198 $199 $26 $-1 $200 reversed single #
loop $-1 $-1 $201 $78 #
plane-surface $-1 36.050772186202458 -4.87701711619441 120.5215276951872 0 1 0 0.66913061440640931 0 0.74314481823134659 forward_v I I I I #
coedge $-1 $202 $203 $204 $205 reversed $79 $-1 #
coedge $-1 $130 $81 $206 $207 reversed $51 $-1 #
coedge $-1 $81 $129 $202 $208 reversed $51 $-1 #
coedge $-1 $204 $209 $81 $132 forward $210 $-1 #
edge $-1 $211 -24.289137665558396 $212 -18.429529063426113 $131 $213 forward 7 unknown #
loop $-1 $-1 $138 $82 #
plane-surface $-1 -20.577114375690577 -0.87735243374266503 57.629889560836993 0.66913061440640931 0 0.74314481823134659 0.74314481823134659 0 -0.66913061440640931 forward_v I I I I #
loop $-1 $-1 $214 $53 #
coedge $-1 $136 $136 $137 $215 reversed $83 $-1 #
coedge $-1 $137 $137 $136 $215 forward $85 $-1 #
coedge $-1 $138 $138 $86 $139 forward $133 $-1 #
edge $-1 $216 0 $216 6.2831853071796004 $138 $217 forward 7 unknown #
face $-1 $218 $219 $21 $-1 $220 reversed single #
loop $-1 $-1 $221 $87 #
plane-surface $-1 -42.314523758659625 0 0 1 0 0 0 0 -1 forward_v I I I I #
coedge $-1 $151 $222 $153 $223 reversed $88 $-1 #
coedge $-1 $224 $90 $222 $225 forward $57 $-1 #
coedge $-1 $90 $224 $226 $227 forward $57 $-1 #
coedge $-1 $154 $153 $90 $147 reversed $155 $-1 #
edge $-1 $228 -18.306161517552148 $229 18.306161517552148 $146 $230 forward 7 unknown #
coedge $-1 $92 $91 $231 $232 forward $36 $-1 #
coedge $-1 $233 $234 $91 $150 reversed $219 $-1 #
edge $-1 $157 -42.314523758659625 $235 42.314523758659625 $149 $236 forward 7 unknown #
coedge $-1 $237 $143 $92 $152 reversed $88 $-1 #
edge $-1 $238 -42.314523758659625 $156 42.314523758659625 $151 $239 forward 7 unknown #
coedge $-1 $146 $93 $143 $223 forward $155 $-1 #
coedge $-1 $93 $146 $233 $240 reversed $155 $-1 #
loop $-1 $-1 $153 $218 #
vertex $-1 $94 $241 #
vertex $-1 $94 $242 #
straight-curve $-1 42.314523758659625 0 6.2780183972041606 0 1 0 I I #
face $-1 $243 $244 $22 $-1 $245 reversed single #
loop $-1 $-1 $171 $95 #
plane-surface $-1 0 -21.588317659270874 -3.2780183972041606 0 0 1 1 0 0 forward_v I I I I #
coedge $-1 $246 $247 $99 $167 forward $96 $-1 #
coedge $-1 $248 $98 $247 $249 forward $61 $-1 #
coedge $-1 $98 $248 $250 $251 forward $61 $-1 #
coedge $-1 $100 $99 $98 $166 reversed $39 $-1 #
edge $-1 $252 -42.314523758659625 $253 42.314523758659625 $98 $254 forward 7 unknown #
edge $-1 $253 -6.2780183972041606 $173 -3.2780183972041606 $162 $255 forward 7 unknown #
coedge $-1 $250 $256 $100 $169 forward $257 $-1 #
edge $-1 $172 3.2780183972041606 $252 6.2780183972041606 $168 $258 forward 7 unknown #
coedge $-1 $259 $101 $256 $260 forward $160 $-1 #
coedge $-1 $101 $259 $246 $261 forward $160 $-1 #
vertex $-1 $169 $262 #
vertex $-1 $261 $263 #
straight-curve $-1 0 -18.306161517552148 -3.2780183972041606 1 0 0 I I #
face $-1 $-1 $264 $23 $-1 $265 reversed single #
loop $-1 $-1 $109 $103 #
plane-surface $-1 0 0 6.2780183972041606 0 0 1 1 0 0 forward_v I I I I #
coedge $-1 $266 $267 $268 $269 reversed $104 $-1 #
coedge $-1 $270 $106 $108 $185 forward $65 $-1 #
coedge $-1 $106 $270 $266 $271 forward $65 $-1 #
coedge $-1 $268 $109 $106 $182 forward $176 $-1 #
edge $-1 $188 -7.8972975427296683 $272 0.20819415995961332 $181 $273 forward 7 unknown #
coedge $-1 $274 $275 $107 $184 forward $264 $-1 #
edge $-1 $276 -26.348229124547697 $187 -20.632536891187815 $183 $277 forward 7 unknown #
edge $-1 $188 -7.3547215786618407 $276 -3.3863257525417323e-014 $108 $278 forward 7 unknown #
coedge $-1 $109 $268 $274 $279 forward $176 $-1 #
vertex $-1 $184 $280 #
vertex $-1 $110 $281 #
straight-curve $-1 -54.041823479511947 -11.741849234114696 6.2780183972041606 1 0 0 I I #
coedge $-1 $190 $190 $-1 $282 reversed $113 $-1 #
edge $-1 $283 0 $283 6.2831853071796004 $114 $284 forward 7 unknown #
vertex $-1 $117 $285 #
ellipse-curve $-1 -40.000285666265981 -9.4259944619177567 3.4201722805242172 -0.77714596973225614 0 0.62932038083071107 0.31466019041535553 0 0.38857298486612807 1 I I #
coedge $-1 $194 $194 $-1 $286 reversed $120 $-1 #
edge $-1 $287 0 $287 6.2831853071796004 $121 $288 forward 7 unknown #
vertex $-1 $124 $289 #
ellipse-curve $-1 -40.000285666265981 -5.9522123036223498 3.4201722805242172 -0.77714596973225614 0 0.62932038083071107 0.31466019041535553 0 0.38857298486612807 1 I I #
face $-1 $-1 $210 $26 $-1 $290 forward single #
loop $-1 $-1 $291 $125 #
plane-surface $-1 42.314523758659625 0 0 -1 0 0 0 0 1 forward_v I I I I #
coedge $-1 $292 $293 $294 $295 reversed $126 $-1 #
coedge $-1 $296 $128 $130 $208 forward $79 $-1 #
coedge $-1 $128 $296 $292 $297 forward $79 $-1 #
coedge $-1 $294 $131 $128 $205 forward $210 $-1 #
edge $-1 $212 -3.5609884655804125 $298 4.4383408993230775 $204 $299 forward 7 unknown #
coedge $-1 $300 $301 $129 $207 forward $199 $-1 #
edge $-1 $302 -59.258760848649636 $211 -53.982745450389444 $206 $303 forward 7 unknown #
edge $-1 $212 76.744166322725306 $302 84.629047517319236 $130 $304 forward 7 unknown #
coedge $-1 $131 $294 $300 $305 forward $210 $-1 #
loop $-1 $-1 $294 $198 #
vertex $-1 $207 $306 #
vertex $-1 $132 $307 #
straight-curve $-1 18.025386093101229 3.12231224870908 6.278018397204157 -1 0 0 I I #
coedge $-1 $214 $214 $-1 $308 reversed $135 $-1 #
edge $-1 $309 0 $309 6.2831853071796004 $136 $310 forward 7 unknown #
vertex $-1 $139 $311 #
ellipse-curve $-1 39.384719457593469 -0.87735243374266503 3.6400106980740659 0.66913061440640931 0 0.74314481823134659 1.1147172273470198 0 -1.003695921609614 1 I I #
face $-1 $-1 $155 $21 $-1 $312 reversed single #
loop $-1 $-1 $233 $140 #
plane-surface $-1 0 18.306161517552148 0 0 -1 0 0 0 -1 forward_v I I I I #
coedge $-1 $313 $231 $234 $314 forward $141 $-1 #
coedge $-1 $143 $237 $144 $225 reversed $88 $-1 #
edge $-1 $156 -6.2780183972041606 $229 6.2780183972041606 $153 $315 forward 7 unknown #
coedge $-1 $145 $144 $313 $316 forward $57 $-1 #
edge $-1 $229 -42.314523758659625 $317 42.314523758659625 $222 $318 forward 7 unknown #
coedge $-1 $234 $233 $145 $227 reversed $219 $-1 #
edge $-1 $319 -42.314523758659625 $228 42.314523758659625 $226 $320 forward 7 unknown #
vertex $-1 $147 $321 #
vertex $-1 $223 $322 #
straight-curve $-1 42.314523758659625 0 -6.2780183972041606 0 -1 0 I I #
coedge $-1 $221 $323 $148 $232 reversed $141 $-1 #
edge $-1 $235 -18.306161517552148 $238 18.306161517552148 $231 $324 forward 7 unknown #
coedge $-1 $226 $149 $154 $240 forward $219 $-1 #
coedge $-1 $149 $226 $221 $314 reversed $219 $-1 #
vertex $-1 $150 $325 #
straight-curve $-1 0 18.306161517552148 6.2780183972041606 -1 0 0 I I #
coedge $-1 $222 $151 $323 $326 forward $88 $-1 #
vertex $-1 $232 $327 #
straight-curve $-1 0 -18.306161517552148 6.2780183972041606 1 0 0 I I #
edge $-1 $157 -6.2780183972041606 $228 6.2780183972041606 $154 $328 forward 7 unknown #
point $-1 42.314523758659625 -18.306161517552148 6.2780183972041606 #
point $-1 42.314523758659625 18.306161517552148 6.2780183972041606 #
face $-1 $-1 $257 $22 $-1 $329 reversed single #
loop $-1 $-1 $330 $159 #
plane-surface $-1 0 -24.8704738009896 -4.7780183972041606 0 1 0 0 0 1 forward_v I I I I #
coedge $-1 $331 $162 $171 $261 reversed $96 $-1 #
coedge $-1 $162 $331 $163 $249 reversed $96 $-1 #
coedge $-1 $164 $163 $332 $333 forward $61 $-1 #
edge $-1 $253 18.306161517552148 $334 24.8704738009896 $247 $335 forward 7 unknown #
coedge $-1 $336 $168 $164 $251 reversed $257 $-1 #
edge $-1 $337 -24.8704738009896 $252 -18.306161517552148 $250 $338 forward 7 unknown #
vertex $-1 $169 $339 #
vertex $-1 $249 $340 #
straight-curve $-1 0 -18.306161517552148 -6.2780183972041606 1 0 0 I I #
straight-curve $-1 42.314523758659625 -18.306161517552148 0 0 0 1 I I #
coedge $-1 $168 $336 $170 $260 reversed $257 $-1 #
loop $-1 $-1 $168 $243 #
straight-curve $-1 -42.314523758659625 -18.306161517552148 0 0 0 -1 I I #
coedge $-1 $171 $170 $341 $342 forward $160 $-1 #
edge $-1 $172 -3.2821561417187262 $343 3.2821561417187262 $256 $344 forward 7 unknown #
edge $-1 $345 -3.2821561417187262 $173 3.2821561417187262 $246 $346 forward 7 unknown #
point $-1 -42.314523758659625 -18.306161517552148 -3.2780183972041606 #
point $-1 42.314523758659625 -18.306161517552148 -3.2780183972041606 #
loop $-1 $-1 $183 $175 #
plane-surface $-1 -42.314523758659625 0 0 1 0 0 0 0 -1 forward_v I I I I #
coedge $-1 $267 $178 $180 $271 reversed $104 $-1 #
coedge $-1 $178 $266 $347 $348 reversed $104 $-1 #
coedge $-1 $186 $181 $178 $269 forward $176 $-1 #
edge $-1 $272 -16.355775905639618 $349 -11.727299720852322 $268 $350 forward 7 unknown #
coedge $-1 $180 $179 $275 $351 reversed $65 $-1 #
edge $-1 $352 3.3863257525417323e-014 $272 7.3547215786618407 $266 $353 forward 7 unknown #
vertex $-1 $182 $354 #
straight-curve $-1 -37.68604757387233 -3.8445516913850275 6.2780183972041606 0 1 0 I I #
coedge $-1 $347 $183 $186 $279 reversed $264 $-1 #
coedge $-1 $183 $347 $270 $351 forward $264 $-1 #
vertex $-1 $184 $355 #
straight-curve $-1 -42.314523758659625 -11.741849234114696 26.910555288391976 0 0 1 I I #
straight-curve $-1 -42.314523758659647 -11.741849234114696 0.56232616384425427 -0.62932038083071107 0 -0.77714596973225614 I I #
edge $-1 $349 3.6363575314254142 $187 11.741849234114696 $274 $356 forward 7 unknown #
point $-1 -42.314523758659625 -11.741849234114696 6.2780183972041606 #
point $-1 -37.68604757387233 -11.741849234114696 6.2780183972041606 #
edge $-1 $357 1 $357 0 $190 $-1 forward 7 unknown #
vertex $-1 $191 $358 #
ellipse-curve $-1 -38.867711689624088 -9.4259944619177567 2.5030319824862732 -0.77714596973225614 0 0.62932038083071107 0.31466019041535553 0 0.38857298486612807 1 I I #
point $-1 -39.685625475850607 -9.4259944619177567 3.8087452653903346 #
edge $-1 $359 1 $359 0 $194 $-1 forward 7 unknown #
vertex $-1 $195 $360 #
ellipse-curve $-1 -38.867711689624088 -5.9522123036223498 2.5030319824862732 -0.77714596973225614 0 0.62932038083071107 0.31466019041535553 0 0.38857298486612807 1 I I #
point $-1 -39.685625475850607 -5.9522123036223498 3.8087452653903346 #
plane-surface $-1 0 0 6.2780183972041606 0 0 1 1 0 0 forward_v I I I I #
coedge $-1 $301 $300 $293 $361 forward $199 $-1 #
coedge $-1 $293 $201 $203 $297 reversed $126 $-1 #
coedge $-1 $201 $292 $291 $361 reversed $126 $-1 #
coedge $-1 $209 $204 $201 $295 forward $210 $-1 #
edge $-1 $298 18.429529063426113 $362 24.289137665558396 $294 $363 forward 7 unknown #
coedge $-1 $203 $202 $301 $364 reversed $79 $-1 #
edge $-1 $365 -84.629047517319236 $298 -76.744166322725306 $292 $366 forward 7 unknown #
vertex $-1 $205 $367 #
straight-curve $-1 36.454915156527342 -0.43867621687133251 6.278018397204157 0 -1 0 I I #
coedge $-1 $291 $206 $209 $305 reversed $199 $-1 #
coedge $-1 $206 $291 $296 $364 forward $199 $-1 #
vertex $-1 $207 $368 #
straight-curve $-1 42.314523758659625 3.12231224870908 60.260763847593601 0 0 1 I I #
straight-curve $-1 -20.577114375690577 3.12231224870908 57.629889560836993 0.74314481823134659 0 -0.66913061440640931 I I #
edge $-1 $362 -4.87701711619441 $211 3.12231224870908 $300 $369 forward 7 unknown #
point $-1 42.314523758659625 3.12231224870908 6.2780183972041606 #
point $-1 36.454915156527342 3.12231224870908 6.2780183972041499 #
edge $-1 $370 1 $370 0 $214 $-1 forward 7 unknown #
vertex $-1 $215 $371 #
ellipse-curve $-1 36.315891685677194 -0.87735243374266503 0.23173224295188433 0.66913061440640931 0 0.74314481823134659 1.1147172273470198 0 -1.003695921609614 1 I I #
point $-1 40.499436684940491 -0.87735243374266503 2.6363147764644532 #
plane-surface $-1 42.314523758659625 0 0 -1 0 0 0 0 1 forward_v I I I I #
coedge $-1 $323 $221 $224 $316 reversed $141 $-1 #
edge $-1 $235 -6.2780183972041606 $319 6.2780183972041606 $234 $372 forward 7 unknown #
straight-curve $-1 42.314523758659625 -18.306161517552148 0 0 0 -1 I I #
edge $-1 $317 -18.306161517552148 $319 18.306161517552148 $313 $373 forward 7 unknown #
vertex $-1 $316 $374 #
straight-curve $-1 0 -18.306161517552148 -6.2780183972041606 -1 0 0 I I #
vertex $-1 $227 $375 #
straight-curve $-1 0 18.306161517552148 -6.2780183972041606 1 0 0 I I #
point $-1 42.314523758659625 18.306161517552148 -6.2780183972041606 #
point $-1 42.314523758659625 -18.306161517552148 -6.2780183972041606 #
coedge $-1 $231 $313 $237 $326 reversed $141 $-1 #
straight-curve $-1 -42.314523758659625 0 6.2780183972041606 0 -1 0 I I #
point $-1 -42.314523758659625 18.306161517552148 6.2780183972041606 #
edge $-1 $238 -6.2780183972041606 $317 6.2780183972041606 $323 $376 forward 7 unknown #
point $-1 -42.314523758659625 -18.306161517552148 6.2780183972041606 #
straight-curve $-1 42.314523758659625 18.306161517552148 0 0 0 -1 I I #
plane-surface $-1 -42.314523758659625 0 0 1 0 0 0 0 -1 forward_v I I I I #
coedge $-1 $332 $341 $336 $377 forward $244 $-1 #
coedge $-1 $247 $246 $378 $379 forward $96 $-1 #
coedge $-1 $378 $330 $248 $333 reversed $244 $-1 #
edge $-1 $334 -42.314523758659625 $337 42.314523758659625 $332 $380 forward 7 unknown #
vertex $-1 $379 $381 #
straight-curve $-1 42.314523758659625 0 -6.2780183972041606 0 -1 0 I I #
coedge $-1 $256 $250 $330 $377 reversed $257 $-1 #
vertex $-1 $251 $382 #
straight-curve $-1 -42.314523758659625 0 -6.2780183972041606 0 1 0 I I #
point $-1 -42.314523758659625 -18.306161517552148 -6.2780183972041606 #
point $-1 42.314523758659625 -18.306161517552148 -6.2780183972041606 #
coedge $-1 $330 $378 $259 $342 reversed $244 $-1 #
edge $-1 $343 -42.314523758659625 $345 42.314523758659625 $341 $383 forward 7 unknown #
vertex $-1 $260 $384 #
straight-curve $-1 -42.314523758659625 -21.588317659270874 -3.2780183972041606 0 -1 0 I I #
vertex $-1 $261 $385 #
straight-curve $-1 42.314523758659625 -21.588317659270874 -3.2780183972041606 0 1 0 I I #
coedge $-1 $275 $274 $267 $348 forward $264 $-1 #
edge $-1 $349 20.632536891187815 $352 26.348229124547697 $347 $386 forward 7 unknown #
vertex $-1 $279 $387 #
straight-curve $-1 -54.041823479511947 -3.6363575314254142 6.2780183972041606 -1 0 0 I I #
edge $-1 $352 -0.20819415995961332 $276 7.8972975427296683 $275 $388 forward 7 unknown #
vertex $-1 $351 $389 #
straight-curve $-1 -42.314523758659647 -3.6363575314254142 0.56232616384425427 0.62932038083071107 0 0.77714596973225614 I I #
point $-1 -37.68604757387233 -3.6363575314254142 6.2780183972041606 #
point $-1 -42.314523758659625 -11.741849234114696 0.56232616384428058 #
straight-curve $-1 -42.314523758659625 0 6.2780183972041606 0 -1 0 I I #
vertex $-1 $282 $390 #
point $-1 -38.553051499208728 -9.4259944619177567 2.8916049673524014 #
vertex $-1 $286 $391 #
point $-1 -38.553051499208728 -5.9522123036223498 2.8916049673524014 #
edge $-1 $362 53.982745450389444 $365 59.258760848649636 $291 $392 forward 7 unknown #
vertex $-1 $305 $393 #
straight-curve $-1 18.025386093101229 -4.87701711619441 6.278018397204157 1 0 0 I I #
edge $-1 $365 -4.4383408993230775 $302 3.5609884655804125 $301 $394 forward 7 unknown #
vertex $-1 $364 $395 #
straight-curve $-1 -20.577114375690577 -4.87701711619441 57.629889560836993 -0.74314481823134659 0 0.66913061440640931 I I #
point $-1 36.454915156527342 -4.87701711619441 6.2780183972041499 #
point $-1 42.314523758659618 3.12231224870908 1.0020029989439649 #
straight-curve $-1 42.314523758659625 0 6.2780183972041606 0 1 0 I I #
vertex $-1 $308 $396 #
point $-1 37.430608913024209 -0.87735243374266503 -0.77196367865772964 #
straight-curve $-1 -42.314523758659625 18.306161517552148 0 0 0 -1 I I #
straight-curve $-1 -42.314523758659625 0 -6.2780183972041606 0 1 0 I I #
point $-1 -42.314523758659625 -18.306161517552148 -6.2780183972041606 #
point $-1 -42.314523758659625 18.306161517552148 -6.2780183972041606 #
straight-curve $-1 -42.314523758659625 -18.306161517552148 0 0 0 -1 I I #
edge $-1 $343 -1.5 $337 1.5 $336 $397 forward 7 unknown #
coedge $-1 $341 $332 $331 $379 reversed $244 $-1 #
edge $-1 $345 -1.5 $334 1.5 $331 $398 forward 7 unknown #
straight-curve $-1 0 -24.8704738009896 -6.2780183972041606 -1 0 0 I I #
point $-1 42.314523758659625 -24.8704738009896 -6.2780183972041606 #
point $-1 -42.314523758659625 -24.8704738009896 -6.2780183972041606 #
straight-curve $-1 0 -24.8704738009896 -3.2780183972041606 1 0 0 I I #
point $-1 -42.314523758659625 -24.8704738009896 -3.2780183972041606 #
point $-1 42.314523758659625 -24.8704738009896 -3.2780183972041606 #
straight-curve $-1 -42.314523758659625 -3.6363575314254142 26.910555288391976 0 0 -1 I I #
point $-1 -42.314523758659625 -3.6363575314254142 6.2780183972041606 #
straight-curve $-1 -42.314523758659625 -3.8445516913850275 0.56232616384427525 0 -1 0 I I #
point $-1 -42.314523758659625 -3.6363575314254142 0.56232616384428058 #
point $-1 -38.479138704757958 -9.4259944619177567 2.1883717920709178 #
point $-1 -38.479138704757958 -5.9522123036223498 2.1883717920709178 #
straight-curve $-1 42.314523758659625 -4.87701711619441 60.260763847593601 0 0 -1 I I #
point $-1 42.314523758659625 -4.87701711619441 6.2780183972041606 #
straight-curve $-1 42.314523758659618 -0.43867621687133251 1.0020029989439649 0 1 0 I I #
point $-1 42.314523758659618 -4.87701711619441 1.0020029989439649 #
point $-1 35.312195764067575 -0.87735243374266503 -0.88298498439513551 #
straight-curve $-1 -42.314523758659625 -24.8704738009896 -4.7780183972041606 0 0 -1 I I #
straight-curve $-1 42.314523758659625 -24.8704738009896 -4.7780183972041606 0 0 -1 I I #
End-of-ACIS-data 