500 0 9 0           
7 Unknown 11 ACIS 5.0 NT 24 Fri Mar 26 15:12:31 1999 
-1 9.9999999999999995e-007 1e-010 
body $-1 $9 $-1 $10 #
body $-1 $11 $-1 $12 #
body $-1 $13 $-1 $14 #
body $-1 $15 $-1 $16 #
body $-1 $17 $-1 $18 #
body $-1 $19 $-1 $20 #
body $-1 $21 $-1 $22 #
body $-1 $23 $-1 $24 #
body $-1 $25 $-1 $26 #
lump $-1 $-1 $27 $0 #
transform $-1 1 0 0 0 1 0 0 0 1 77.636646626178788 45.366035125322583 20.947680533757843 1 rotate no_reflect no_shear #
lump $-1 $-1 $28 $1 #
transform $-1 1 0 0 0 1 0 0 0 1 77.636646626178788 45.366035125322583 20.947680533757843 1 rotate no_reflect no_shear #
lump $-1 $-1 $29 $2 #
transform $-1 1 0 0 0 1 0 0 0 1 77.636646626178788 45.366035125322583 20.947680533757843 1 rotate no_reflect no_shear #
lump $-1 $-1 $30 $3 #
transform $-1 1 0 0 0 1 0 0 0 1 77.636646626178788 45.366035125322583 20.947680533757843 1 rotate no_reflect no_shear #
lump $-1 $-1 $31 $4 #
transform $-1 1 0 0 0 1 0 0 0 1 77.636646626178788 45.366035125322583 20.947680533757843 1 rotate no_reflect no_shear #
lump $-1 $-1 $32 $5 #
transform $-1 1 0 0 0 1 0 0 0 1 77.636646626178788 45.366035125322583 20.947680533757843 1 rotate no_reflect no_shear #
lump $-1 $-1 $33 $6 #
transform $-1 1 0 0 0 1 0 0 0 1 77.636646626178788 45.366035125322583 20.947680533757843 1 rotate no_reflect no_shear #
lump $-1 $-1 $34 $7 #
transform $-1 1 0 0 0 1 0 0 0 1 77.636646626178788 45.366035125322583 20.947680533757843 1 rotate no_reflect no_shear #
lump $-1 $-1 $35 $8 #
transform $-1 1 0 0 0 1 0 0 0 1 77.636646626178788 45.366035125322583 20.947680533757843 1 rotate no_reflect no_shear #
shell $-1 $-1 $-1 $36 $-1 $9 #
shell $-1 $-1 $-1 $37 $-1 $11 #
shell $-1 $-1 $-1 $38 $-1 $13 #
shell $-1 $-1 $-1 $39 $-1 $15 #
shell $-1 $-1 $-1 $40 $-1 $17 #
shell $-1 $-1 $-1 $41 $-1 $19 #
shell $-1 $-1 $-1 $42 $-1 $21 #
shell $-1 $-1 $-1 $43 $-1 $23 #
shell $-1 $-1 $-1 $44 $-1 $25 #
face $-1 $45 $46 $27 $-1 $47 forward single #
face $-1 $48 $49 $28 $-1 $50 reversed single #
face $-1 $51 $52 $29 $-1 $53 reversed single #
face $-1 $54 $55 $30 $-1 $56 forward single #
face $-1 $57 $58 $31 $-1 $59 reversed single #
face $-1 $60 $61 $32 $-1 $62 forward single #
face $-1 $63 $64 $33 $-1 $65 reversed single #
face $-1 $66 $67 $34 $-1 $68 forward single #
face $-1 $69 $70 $35 $-1 $71 forward single #
face $-1 $72 $73 $27 $-1 $74 reversed single #
loop $-1 $-1 $75 $36 #
plane-surface $-1 0 0 20.947680533757843 0 0 1 1 0 0 forward_v I I I I #
face $-1 $76 $77 $28 $-1 $78 reversed single #
loop $-1 $-1 $79 $37 #
plane-surface $-1 -47.485718649445452 -33.819846479668506 0 1 0 0 0 0 -1 forward_v I I I I #
face $-1 $80 $81 $29 $-1 $82 reversed single #
loop $-1 $-1 $83 $38 #
plane-surface $-1 -198.30666068430318 -1.2031100895202478 104.6268912021123 0 1 0 -0.77714596973225614 0 0.62932038083071107 forward_v I I I I #
face $-1 $84 $85 $30 $-1 $86 forward single #
loop $-1 $87 $88 $39 #
cone-surface $-1 -70.98463938567933 5.1715392780669163 13.144798537331271 0.77714596973225614 0 -0.62932038083071107 0.9439805712460666 0 1.1657189545983841 1 I I 0 1 1.5 forward I I I I #
face $-1 $89 $90 $31 $-1 $91 reversed single #
loop $-1 $-1 $92 $40 #
plane-surface $-1 -198.30666068430318 32.616736390148262 104.6268912021123 0 1 0 -0.77714596973225614 0 0.62932038083071107 forward_v I I I I #
face $-1 $93 $94 $32 $-1 $95 forward single #
loop $-1 $96 $97 $41 #
cone-surface $-1 -70.98463938567933 38.991385757735429 13.144798537331271 0.77714596973225614 0 -0.62932038083071107 0.9439805712460666 0 1.1657189545983841 1 I I 0 1 1.5 forward I I I I #
face $-1 $98 $99 $33 $-1 $100 reversed single #
loop $-1 $-1 $101 $42 #
plane-surface $-1 62.318852970858586 15.671952610147002 231.90677639239692 0 -1 0 -0.6560590369687036 0 -0.75470957328743171 forward_v I I I I #
face $-1 $102 $103 $34 $-1 $104 forward single #
loop $-1 $105 $106 $43 #
cone-surface $-1 71.994499620393711 10.063793439316626 15.765977428484193 -0.6560590369687036 0 -0.75470957328743171 0.75470957328743171 0 -0.6560590369687036 1 I I 0 1 1 forward I I I I #
face $-1 $107 $108 $35 $-1 $109 forward single #
loop $-1 $110 $111 $44 #
cone-surface $-1 71.994499620393711 13.428688941814848 15.765977428484193 -0.6560590369687036 0 -0.75470957328743171 0.75470957328743171 0 -0.6560590369687036 1 I I 0 1 1 forward I I I I #
face $-1 $112 $113 $27 $-1 $114 reversed single #
loop $-1 $-1 $115 $45 #
plane-surface $-1 0 0 -20.947680533757843 0 0 1 1 0 0 forward_v I I I I #
coedge $-1 $116 $117 $118 $119 forward $46 $-1 #
face $-1 $120 $121 $28 $-1 $122 reversed single #
loop $-1 $-1 $123 $48 #
plane-surface $-1 -41.613502104054277 -22.273657834014429 0 0 -1 0 0 0 -1 forward_v I I I I #
coedge $-1 $124 $125 $126 $127 forward $49 $-1 #
face $-1 $128 $129 $29 $-1 $130 reversed single #
loop $-1 $-1 $131 $51 #
plane-surface $-1 -77.636646626178774 5.1715392780669163 6.9102431596999594 -0.77714596973225614 0 0.62932038083071107 0.62932038083071107 0 0.77714596973225614 forward_v I I I I #
coedge $-1 $132 $133 $134 $135 reversed $52 $-1 #
face $-1 $-1 $136 $30 $-1 $137 forward single #
loop $-1 $138 $139 $54 #
cone-surface $-1 -69.433418841309887 5.1715392780669163 11.888644942310602 0.77714596973225614 0 -0.62932038083071107 0.4719902856230333 0 0.58285947729919207 1 I I -0.70710678118654757 0.70710678118654757 0.75 forward I I I I #
loop $-1 $-1 $140 $39 #
coedge $-1 $88 $88 $141 $142 reversed $55 $-1 #
face $-1 $143 $144 $31 $-1 $145 forward single #
loop $-1 $-1 $146 $57 #
plane-surface $-1 -77.636646626178774 38.991385757735429 6.9102431596999594 -0.77714596973225614 0 0.62932038083071107 0.62932038083071107 0 0.77714596973225614 forward_v I I I I #
coedge $-1 $147 $148 $149 $150 reversed $58 $-1 #
face $-1 $-1 $151 $32 $-1 $152 forward single #
loop $-1 $153 $154 $60 #
cone-surface $-1 -69.433418841309887 38.991385757735429 11.888644942310602 0.77714596973225614 0 -0.62932038083071107 0.4719902856230333 0 0.58285947729919207 1 I I -0.70710678118654757 0.70710678118654757 0.75 forward I I I I #
loop $-1 $-1 $155 $41 #
coedge $-1 $97 $97 $156 $157 reversed $61 $-1 #
face $-1 $158 $159 $33 $-1 $160 reversed single #
loop $-1 $-1 $161 $63 #
plane-surface $-1 -39.549594267242227 11.74624119056574 114.72053549897589 0.6560590369687036 0 0.75470957328743171 0.75470957328743171 0 -0.6560590369687036 forward_v I I I I #
coedge $-1 $162 $163 $164 $165 reversed $64 $-1 #
face $-1 $-1 $166 $34 $-1 $167 forward single #
loop $-1 $168 $169 $66 #
cone-surface $-1 70.680779790941386 10.063793439316626 14.25471567300821 -0.6560590369687036 0 -0.75470957328743171 0.37735478664371586 0 -0.3280295184843518 1 I I -0.70710678118654746 0.70710678118654746 0.5 forward I I I I #
loop $-1 $-1 $170 $43 #
coedge $-1 $106 $106 $171 $172 reversed $67 $-1 #
face $-1 $-1 $173 $35 $-1 $174 forward single #
loop $-1 $175 $176 $69 #
cone-surface $-1 70.680779790941386 13.428688941814848 14.25471567300821 -0.6560590369687036 0 -0.75470957328743171 0.37735478664371586 0 -0.3280295184843518 1 I I -0.70710678118654746 0.70710678118654746 0.5 forward I I I I #
loop $-1 $-1 $177 $44 #
coedge $-1 $111 $111 $178 $179 reversed $70 $-1 #
face $-1 $180 $181 $27 $-1 $182 reversed single #
loop $-1 $-1 $183 $72 #
plane-surface $-1 0 -45.366035125322583 0 0 1 0 0 0 1 forward_v I I I I #
coedge $-1 $184 $185 $186 $187 forward $73 $-1 #
coedge $-1 $188 $75 $189 $190 forward $46 $-1 #
coedge $-1 $75 $188 $191 $192 forward $46 $-1 #
coedge $-1 $193 $194 $75 $119 reversed $195 $-1 #
edge $-1 $196 -45.366035125322583 $197 45.366035125322583 $118 $198 forward 7 unknown #
face $-1 $199 $200 $28 $-1 $201 forward single #
loop $-1 $-1 $202 $76 #
plane-surface $-1 -35.741285558663101 -33.819846479668506 0 -1 0 0 0 0 1 forward_v I I I I #
coedge $-1 $203 $204 $205 $206 forward $77 $-1 #
coedge $-1 $207 $79 $208 $209 reversed $49 $-1 #
coedge $-1 $79 $207 $210 $211 reversed $49 $-1 #
coedge $-1 $204 $203 $79 $127 reversed $77 $-1 #
edge $-1 $212 -20.947680533757843 $213 20.947680533757843 $126 $214 forward 7 unknown #
face $-1 $215 $216 $29 $-1 $217 reversed single #
loop $-1 $-1 $218 $80 #
plane-surface $-1 -198.30666068430318 11.54618864565408 104.6268912021123 0 -1 0 0.77714596973225614 0 -0.62932038083071107 forward_v I I I I #
coedge $-1 $219 $220 $221 $222 reversed $81 $-1 #
coedge $-1 $133 $83 $223 $224 reversed $52 $-1 #
coedge $-1 $83 $132 $219 $225 reversed $52 $-1 #
coedge $-1 $221 $226 $83 $135 forward $227 $-1 #
edge $-1 $228 21.516683715972803 $229 32.883976062831266 $134 $230 forward 7 unknown #
loop $-1 $-1 $141 $84 #
plane-surface $-1 -77.636646626178774 5.1715392780669163 6.9102431596999594 -0.77714596973225614 0 0.62932038083071107 0.62932038083071107 0 0.77714596973225614 forward_v I I I I #
loop $-1 $-1 $231 $54 #
coedge $-1 $139 $139 $140 $232 reversed $85 $-1 #
coedge $-1 $140 $140 $139 $232 forward $87 $-1 #
coedge $-1 $141 $141 $88 $142 forward $136 $-1 #
edge $-1 $233 0 $233 6.2831853071796004 $141 $234 forward 7 unknown #
face $-1 $235 $236 $31 $-1 $237 reversed single #
loop $-1 $-1 $149 $89 #
plane-surface $-1 0 0 20.947680533757843 0 0 1 1 0 0 forward_v I I I I #
coedge $-1 $238 $239 $240 $241 reversed $90 $-1 #
coedge $-1 $148 $92 $242 $243 reversed $58 $-1 #
coedge $-1 $92 $147 $238 $244 reversed $58 $-1 #
coedge $-1 $240 $245 $92 $150 forward $144 $-1 #
edge $-1 $246 21.516683715972803 $247 32.883976062831266 $149 $248 forward 7 unknown #
loop $-1 $-1 $156 $93 #
plane-surface $-1 -77.636646626178774 38.991385757735429 6.9102431596999594 -0.77714596973225614 0 0.62932038083071107 0.62932038083071107 0 0.77714596973225614 forward_v I I I I #
loop $-1 $-1 $249 $60 #
coedge $-1 $154 $154 $155 $250 reversed $94 $-1 #
coedge $-1 $155 $155 $154 $250 forward $96 $-1 #
coedge $-1 $156 $156 $97 $157 forward $151 $-1 #
edge $-1 $251 0 $251 6.2831853071796004 $156 $252 forward 7 unknown #
face $-1 $253 $254 $33 $-1 $255 reversed single #
loop $-1 $-1 $256 $98 #
plane-surface $-1 62.318852970858586 7.8205297709844785 231.90677639239692 0 1 0 0.6560590369687036 0 0.75470957328743171 forward_v I I I I #
coedge $-1 $257 $258 $259 $260 reversed $99 $-1 #
coedge $-1 $163 $101 $261 $262 reversed $64 $-1 #
coedge $-1 $101 $162 $257 $263 reversed $64 $-1 #
coedge $-1 $259 $264 $101 $165 forward $265 $-1 #
edge $-1 $266 -46.477220140749495 $267 -37.164306751115262 $164 $268 forward 7 unknown #
loop $-1 $-1 $171 $102 #
plane-surface $-1 -39.549594267242227 11.74624119056574 114.72053549897589 0.6560590369687036 0 0.75470957328743171 0.75470957328743171 0 -0.6560590369687036 forward_v I I I I #
loop $-1 $-1 $269 $66 #
coedge $-1 $169 $169 $170 $270 reversed $103 $-1 #
coedge $-1 $170 $170 $169 $270 forward $105 $-1 #
coedge $-1 $171 $171 $106 $172 forward $166 $-1 #
edge $-1 $271 0 $271 6.2831853071796004 $171 $272 forward 7 unknown #
loop $-1 $-1 $178 $107 #
plane-surface $-1 -39.549594267242227 11.74624119056574 114.72053549897589 0.6560590369687036 0 0.75470957328743171 0.75470957328743171 0 -0.6560590369687036 forward_v I I I I #
loop $-1 $-1 $273 $69 #
coedge $-1 $176 $176 $177 $274 reversed $108 $-1 #
coedge $-1 $177 $177 $176 $274 forward $110 $-1 #
coedge $-1 $178 $178 $111 $179 forward $173 $-1 #
edge $-1 $275 0 $275 6.2831853071796004 $178 $276 forward 7 unknown #
face $-1 $277 $278 $27 $-1 $279 reversed single #
loop $-1 $-1 $280 $112 #
plane-surface $-1 -77.636646626178788 0 0 1 0 0 0 0 -1 forward_v I I I I #
coedge $-1 $281 $191 $282 $283 forward $113 $-1 #
coedge $-1 $284 $115 $281 $285 forward $73 $-1 #
coedge $-1 $115 $284 $286 $287 forward $73 $-1 #
coedge $-1 $194 $193 $115 $187 reversed $195 $-1 #
edge $-1 $288 -45.366035125322583 $289 45.366035125322583 $186 $290 forward 7 unknown #
coedge $-1 $117 $116 $291 $292 forward $46 $-1 #
coedge $-1 $293 $294 $116 $190 reversed $278 $-1 #
edge $-1 $197 -77.636646626178788 $295 77.636646626178788 $189 $296 forward 7 unknown #
coedge $-1 $183 $297 $117 $192 reversed $113 $-1 #
edge $-1 $298 -77.636646626178788 $196 77.636646626178788 $191 $299 forward 7 unknown #
coedge $-1 $186 $118 $297 $300 forward $195 $-1 #
coedge $-1 $118 $186 $293 $301 reversed $195 $-1 #
loop $-1 $-1 $193 $277 #
vertex $-1 $119 $302 #
vertex $-1 $119 $303 #
straight-curve $-1 77.636646626178788 0 20.947680533757843 0 1 0 I I #
face $-1 $304 $305 $28 $-1 $306 reversed single #
loop $-1 $-1 $307 $120 #
plane-surface $-1 0 0 20.947680533757843 0 0 1 1 0 0 forward_v I I I I #
coedge $-1 $308 $309 $310 $311 reversed $121 $-1 #
coedge $-1 $126 $123 $312 $313 reversed $77 $-1 #
coedge $-1 $123 $126 $314 $315 reversed $77 $-1 #
coedge $-1 $309 $308 $123 $206 reversed $121 $-1 #
edge $-1 $316 -20.947680533757843 $317 20.947680533757843 $205 $318 forward 7 unknown #
coedge $-1 $125 $124 $319 $320 reversed $49 $-1 #
coedge $-1 $312 $321 $124 $209 forward $305 $-1 #
edge $-1 $322 -28.45611188548833 $213 -5.3637345941801762 $208 $323 forward 7 unknown #
coedge $-1 $324 $314 $125 $211 forward $200 $-1 #
edge $-1 $212 5.3637345941801762 $325 28.45611188548833 $210 $326 forward 7 unknown #
vertex $-1 $211 $327 #
vertex $-1 $209 $328 #
straight-curve $-1 -47.485718649445452 -22.273657834014429 0 0 0 -1 I I #
face $-1 $-1 $227 $29 $-1 $329 forward single #
loop $-1 $-1 $330 $128 #
plane-surface $-1 -77.636646626178788 0 0 1 0 0 0 0 -1 forward_v I I I I #
coedge $-1 $331 $332 $333 $334 reversed $129 $-1 #
coedge $-1 $335 $131 $133 $225 forward $81 $-1 #
coedge $-1 $131 $335 $331 $336 forward $81 $-1 #
coedge $-1 $333 $134 $131 $222 forward $227 $-1 #
edge $-1 $229 -3.7888797285537059 $337 8.9604190066206222 $221 $338 forward 7 unknown #
coedge $-1 $339 $340 $132 $224 forward $216 $-1 #
edge $-1 $341 -45.403202441356214 $228 -31.365765067298309 $223 $342 forward 7 unknown #
edge $-1 $229 -18.062806629357016 $341 2.2748066086763162e-014 $133 $343 forward 7 unknown #
coedge $-1 $134 $333 $339 $344 forward $227 $-1 #
loop $-1 $-1 $333 $215 #
vertex $-1 $224 $345 #
vertex $-1 $135 $346 #
straight-curve $-1 -99.153330342151591 -1.2031100895202478 20.94768053375784 1 0 0 I I #
coedge $-1 $231 $231 $-1 $347 reversed $138 $-1 #
edge $-1 $348 0 $348 6.2831853071796004 $139 $349 forward 7 unknown #
vertex $-1 $142 $350 #
ellipse-curve $-1 -71.953000452749563 5.1715392780669163 13.928961846728891 -0.77714596973225614 0 0.62932038083071107 0.9439805712460666 0 1.1657189545983841 1 I I #
face $-1 $-1 $351 $31 $-1 $352 reversed single #
loop $-1 $-1 $353 $143 #
plane-surface $-1 0 45.366035125322583 0 0 -1 0 0 0 -1 forward_v I I I I #
coedge $-1 $354 $146 $148 $244 forward $90 $-1 #
coedge $-1 $146 $354 $353 $355 reversed $90 $-1 #
coedge $-1 $356 $149 $146 $241 forward $144 $-1 #
edge $-1 $247 13.121043511280547 $357 25.870342246454882 $240 $358 forward 7 unknown #
coedge $-1 $359 $360 $147 $243 forward $351 $-1 #
edge $-1 $361 -45.403202441356214 $246 -31.365765067298309 $242 $362 forward 7 unknown #
edge $-1 $247 -18.062806629357016 $361 2.2748066086763162e-014 $148 $363 forward 7 unknown #
coedge $-1 $149 $356 $359 $364 forward $144 $-1 #
vertex $-1 $243 $365 #
vertex $-1 $150 $366 #
straight-curve $-1 -99.153330342151591 32.616736390148262 20.94768053375784 1 0 0 I I #
coedge $-1 $249 $249 $-1 $367 reversed $153 $-1 #
edge $-1 $368 0 $368 6.2831853071796004 $154 $369 forward 7 unknown #
vertex $-1 $157 $370 #
ellipse-curve $-1 -71.953000452749563 38.991385757735429 13.928961846728891 -0.77714596973225614 0 0.62932038083071107 0.9439805712460666 0 1.1657189545983841 1 I I #
face $-1 $-1 $265 $33 $-1 $371 forward single #
loop $-1 $-1 $372 $158 #
plane-surface $-1 77.636646626178788 0 0 -1 0 0 0 0 1 forward_v I I I I #
coedge $-1 $373 $374 $375 $376 reversed $159 $-1 #
coedge $-1 $377 $161 $163 $263 forward $99 $-1 #
coedge $-1 $161 $377 $373 $378 forward $99 $-1 #
coedge $-1 $375 $164 $161 $260 forward $265 $-1 #
edge $-1 $267 -9.7988320148641321 $379 -1.9474091757016083 $259 $380 forward 7 unknown #
coedge $-1 $381 $382 $162 $262 forward $254 $-1 #
edge $-1 $383 -103.10129993532337 $266 -95.005707662440614 $261 $384 forward 7 unknown #
edge $-1 $267 142.93356189176515 $383 155.27329325235758 $163 $385 forward 7 unknown #
coedge $-1 $164 $375 $381 $386 forward $265 $-1 #
loop $-1 $-1 $375 $253 #
vertex $-1 $262 $387 #
vertex $-1 $165 $388 #
straight-curve $-1 31.159426485429293 15.671952610147002 20.947680533757847 -1 0 0 I I #
coedge $-1 $269 $269 $-1 $389 reversed $168 $-1 #
edge $-1 $390 0 $390 6.2831853071796004 $169 $391 forward 7 unknown #
vertex $-1 $172 $392 #
ellipse-curve $-1 72.980189931361693 10.063793439316626 16.899884397316463 0.6560590369687036 0 0.75470957328743171 0.75470957328743171 0 -0.6560590369687036 1 I I #
coedge $-1 $273 $273 $-1 $393 reversed $175 $-1 #
edge $-1 $394 0 $394 6.2831853071796004 $176 $395 forward 7 unknown #
vertex $-1 $179 $396 #
ellipse-curve $-1 72.980189931361693 13.428688941814848 16.899884397316463 0.6560590369687036 0 0.75470957328743171 0.75470957328743171 0 -0.6560590369687036 1 I I #
face $-1 $-1 $195 $27 $-1 $397 reversed single #
loop $-1 $-1 $293 $180 #
plane-surface $-1 0 45.366035125322583 0 0 -1 0 0 0 -1 forward_v I I I I #
coedge $-1 $398 $291 $294 $399 forward $181 $-1 #
coedge $-1 $297 $183 $184 $285 reversed $113 $-1 #
coedge $-1 $291 $398 $183 $283 reversed $181 $-1 #
edge $-1 $298 -20.947680533757843 $400 20.947680533757843 $282 $401 forward 7 unknown #
coedge $-1 $185 $184 $398 $402 forward $73 $-1 #
edge $-1 $289 -77.636646626178788 $400 77.636646626178788 $281 $403 forward 7 unknown #
coedge $-1 $294 $293 $185 $287 reversed $278 $-1 #
edge $-1 $404 -77.636646626178788 $288 77.636646626178788 $286 $405 forward 7 unknown #
vertex $-1 $187 $406 #
vertex $-1 $300 $407 #
straight-curve $-1 77.636646626178788 0 -20.947680533757843 0 -1 0 I I #
coedge $-1 $280 $282 $188 $292 reversed $181 $-1 #
edge $-1 $295 -45.366035125322583 $298 45.366035125322583 $291 $408 forward 7 unknown #
coedge $-1 $286 $189 $194 $301 forward $278 $-1 #
coedge $-1 $189 $286 $280 $399 reversed $278 $-1 #
vertex $-1 $190 $409 #
straight-curve $-1 0 45.366035125322583 20.947680533757843 -1 0 0 I I #
coedge $-1 $191 $281 $193 $300 reversed $113 $-1 #
vertex $-1 $292 $410 #
straight-curve $-1 0 -45.366035125322583 20.947680533757843 1 0 0 I I #
edge $-1 $196 -20.947680533757843 $289 20.947680533757843 $193 $411 forward 7 unknown #
edge $-1 $197 -20.947680533757843 $288 20.947680533757843 $194 $412 forward 7 unknown #
point $-1 77.636646626178788 -45.366035125322583 20.947680533757843 #
point $-1 77.636646626178788 45.366035125322583 20.947680533757843 #
face $-1 $-1 $413 $28 $-1 $414 reversed single #
loop $-1 $-1 $415 $199 #
plane-surface $-1 0 0 -20.947680533757843 0 0 1 1 0 0 forward_v I I I I #
coedge $-1 $314 $324 $309 $416 forward $200 $-1 #
coedge $-1 $205 $202 $415 $417 reversed $121 $-1 #
coedge $-1 $202 $205 $307 $416 reversed $121 $-1 #
coedge $-1 $418 $419 $202 $311 forward $413 $-1 #
edge $-1 $420 -20.947680533757843 $421 20.947680533757843 $310 $422 forward 7 unknown #
coedge $-1 $415 $208 $203 $313 forward $305 $-1 #
edge $-1 $213 -26.678967597418314 $317 -14.934534506635963 $312 $423 forward 7 unknown #
coedge $-1 $210 $307 $204 $315 forward $200 $-1 #
edge $-1 $316 14.934534506635963 $212 26.678967597418314 $314 $424 forward 7 unknown #
vertex $-1 $315 $425 #
vertex $-1 $313 $426 #
straight-curve $-1 -35.741285558663101 -22.273657834014429 0 0 0 -1 I I #
coedge $-1 $419 $418 $207 $320 forward $413 $-1 #
edge $-1 $325 -20.947680533757843 $322 20.947680533757843 $319 $427 forward 7 unknown #
coedge $-1 $208 $415 $419 $428 forward $305 $-1 #
vertex $-1 $209 $429 #
straight-curve $-1 -47.485718649445452 -16.909923239834253 -20.947680533757843 0 1 0 I I #
coedge $-1 $307 $210 $418 $430 forward $200 $-1 #
vertex $-1 $430 $431 #
straight-curve $-1 -47.485718649445452 -16.909923239834253 20.947680533757843 0 -1 0 I I #
point $-1 -47.485718649445452 -22.273657834014429 20.947680533757843 #
point $-1 -47.485718649445452 -22.273657834014429 -20.947680533757843 #
plane-surface $-1 0 0 20.947680533757843 0 0 1 1 0 0 forward_v I I I I #
coedge $-1 $340 $339 $332 $432 forward $216 $-1 #
coedge $-1 $332 $218 $220 $336 reversed $129 $-1 #
coedge $-1 $218 $331 $330 $432 reversed $129 $-1 #
coedge $-1 $226 $221 $218 $334 forward $227 $-1 #
edge $-1 $337 -32.883976062831266 $433 -21.516683715972803 $333 $434 forward 7 unknown #
coedge $-1 $220 $219 $340 $435 reversed $81 $-1 #
edge $-1 $436 -2.2748066086763162e-014 $337 18.062806629357016 $331 $437 forward 7 unknown #
vertex $-1 $222 $438 #
straight-curve $-1 -66.269354279320325 2.5857696390334581 20.947680533757843 0 1 0 I I #
coedge $-1 $330 $223 $226 $344 reversed $216 $-1 #
coedge $-1 $223 $330 $335 $435 forward $216 $-1 #
vertex $-1 $224 $439 #
straight-curve $-1 -77.636646626178788 -1.2031100895202478 52.313445601056152 0 0 1 I I #
straight-curve $-1 -77.636646626178774 -1.2031100895202478 6.9102431596999594 -0.62932038083071107 0 -0.77714596973225614 I I #
edge $-1 $433 -11.54618864565408 $228 1.2031100895202478 $339 $440 forward 7 unknown #
point $-1 -77.636646626178788 -1.2031100895202478 20.947680533757843 #
point $-1 -66.269354279320325 -1.2031100895202478 20.947680533757843 #
edge $-1 $441 1 $441 0 $231 $-1 forward 7 unknown #
vertex $-1 $232 $442 #
ellipse-curve $-1 -70.016278318609082 5.1715392780669163 12.360635227933635 -0.77714596973225614 0 0.62932038083071107 0.9439805712460666 0 1.1657189545983841 1 I I #
point $-1 -71.009019881503505 5.1715392780669163 15.094680801327289 #
loop $-1 $-1 $242 $235 #
plane-surface $-1 -77.636646626178788 0 0 1 0 0 0 0 -1 forward_v I I I I #
coedge $-1 $443 $444 $239 $355 forward $236 $-1 #
coedge $-1 $239 $238 $360 $445 reversed $90 $-1 #
edge $-1 $357 3.6812215705307101 $446 21.744028199887751 $353 $447 forward 7 unknown #
coedge $-1 $245 $240 $444 $448 forward $144 $-1 #
vertex $-1 $448 $449 #
straight-curve $-1 -66.269354279320325 19.495692878867715 20.947680533757843 0 1 0 I I #
coedge $-1 $450 $242 $245 $364 reversed $351 $-1 #
coedge $-1 $242 $450 $354 $445 forward $351 $-1 #
vertex $-1 $243 $451 #
straight-curve $-1 -77.636646626178788 32.616736390148262 52.313445601056152 0 0 1 I I #
straight-curve $-1 -77.636646626178774 32.616736390148262 6.9102431596999594 -0.62932038083071107 0 -0.77714596973225614 I I #
edge $-1 $452 -45.366035125322583 $246 -32.616736390148262 $359 $453 forward 7 unknown #
point $-1 -77.636646626178788 32.616736390148262 20.947680533757843 #
point $-1 -66.269354279320325 32.616736390148262 20.947680533757843 #
edge $-1 $454 1 $454 0 $249 $-1 forward 7 unknown #
vertex $-1 $250 $455 #
ellipse-curve $-1 -70.016278318609082 38.991385757735429 12.360635227933635 -0.77714596973225614 0 0.62932038083071107 0.9439805712460666 0 1.1657189545983841 1 I I #
point $-1 -71.009019881503505 38.991385757735429 15.094680801327289 #
plane-surface $-1 0 0 20.947680533757843 0 0 1 1 0 0 forward_v I I I I #
coedge $-1 $382 $381 $374 $456 forward $254 $-1 #
coedge $-1 $374 $256 $258 $378 reversed $159 $-1 #
coedge $-1 $256 $373 $372 $456 reversed $159 $-1 #
coedge $-1 $264 $259 $256 $376 forward $265 $-1 #
edge $-1 $379 37.164306751115262 $457 46.477220140749495 $375 $458 forward 7 unknown #
coedge $-1 $258 $257 $382 $459 reversed $99 $-1 #
edge $-1 $460 -155.27329325235758 $379 -142.93356189176515 $373 $461 forward 7 unknown #
vertex $-1 $260 $462 #
straight-curve $-1 68.323733236544555 5.8731205952828702 20.947680533757854 0 -1 0 I I #
coedge $-1 $372 $261 $264 $386 reversed $254 $-1 #
coedge $-1 $261 $372 $377 $459 forward $254 $-1 #
vertex $-1 $262 $463 #
straight-curve $-1 77.636646626178788 15.671952610147002 115.95338819619846 0 0 1 I I #
straight-curve $-1 -39.549594267242227 15.671952610147002 114.72053549897589 0.75470957328743171 0 -0.6560590369687036 I I #
edge $-1 $457 7.8205297709844785 $266 15.671952610147002 $381 $464 forward 7 unknown #
point $-1 77.636646626178788 15.671952610147002 20.947680533757843 #
point $-1 68.323733236544555 15.671952610147002 20.947680533757847 #
edge $-1 $465 1 $465 0 $269 $-1 forward 7 unknown #
vertex $-1 $270 $466 #
ellipse-curve $-1 71.008809309425743 10.063793439316626 14.632070459651926 0.6560590369687036 0 0.75470957328743171 0.75470957328743171 0 -0.6560590369687036 1 I I #
point $-1 73.734899504649121 10.063793439316626 16.243825360347756 #
edge $-1 $467 1 $467 0 $273 $-1 forward 7 unknown #
vertex $-1 $274 $468 #
ellipse-curve $-1 71.008809309425743 13.428688941814848 14.632070459651926 0.6560590369687036 0 0.75470957328743171 0.75470957328743171 0 -0.6560590369687036 1 I I #
point $-1 73.734899504649121 13.428688941814848 16.243825360347756 #
plane-surface $-1 77.636646626178788 0 0 -1 0 0 0 0 1 forward_v I I I I #
coedge $-1 $282 $280 $284 $402 reversed $181 $-1 #
edge $-1 $295 -20.947680533757843 $404 20.947680533757843 $294 $469 forward 7 unknown #
vertex $-1 $402 $470 #
straight-curve $-1 -77.636646626178788 -45.366035125322583 0 0 0 -1 I I #
edge $-1 $400 -45.366035125322583 $404 45.366035125322583 $398 $471 forward 7 unknown #
straight-curve $-1 0 -45.366035125322583 -20.947680533757843 -1 0 0 I I #
vertex $-1 $287 $472 #
straight-curve $-1 0 45.366035125322583 -20.947680533757843 1 0 0 I I #
point $-1 77.636646626178788 45.366035125322583 -20.947680533757843 #
point $-1 77.636646626178788 -45.366035125322583 -20.947680533757843 #
straight-curve $-1 -77.636646626178788 0 20.947680533757843 0 -1 0 I I #
point $-1 -77.636646626178788 45.366035125322583 20.947680533757843 #
point $-1 -77.636646626178788 -45.366035125322583 20.947680533757843 #
straight-curve $-1 77.636646626178788 -45.366035125322583 0 0 0 -1 I I #
straight-curve $-1 77.636646626178788 45.366035125322583 0 0 0 -1 I I #
loop $-1 $-1 $310 $304 #
plane-surface $-1 0 -45.366035125322583 0 0 1 0 0 0 1 forward_v I I I I #
coedge $-1 $321 $312 $308 $417 forward $305 $-1 #
edge $-1 $421 -28.45611188548833 $316 -5.3637345941801762 $307 $473 forward 7 unknown #
edge $-1 $317 5.3637345941801762 $420 28.45611188548833 $415 $474 forward 7 unknown #
coedge $-1 $319 $310 $324 $430 reversed $413 $-1 #
coedge $-1 $310 $319 $321 $428 reversed $413 $-1 #
vertex $-1 $428 $475 #
vertex $-1 $311 $476 #
straight-curve $-1 -35.741285558663101 -45.366035125322583 0 0 0 1 I I #
straight-curve $-1 -20.806751052027138 -22.273657834014429 -20.947680533757843 1 0 0 I I #
straight-curve $-1 -20.806751052027138 -22.273657834014429 20.947680533757843 -1 0 0 I I #
point $-1 -35.741285558663101 -22.273657834014429 20.947680533757843 #
point $-1 -35.741285558663101 -22.273657834014429 -20.947680533757843 #
straight-curve $-1 -47.485718649445452 -45.366035125322583 0 0 0 -1 I I #
edge $-1 $420 35.741285558663101 $322 47.485718649445452 $419 $477 forward 7 unknown #
point $-1 -47.485718649445452 -45.366035125322583 -20.947680533757843 #
edge $-1 $325 -47.485718649445452 $421 -35.741285558663101 $418 $478 forward 7 unknown #
point $-1 -47.485718649445452 -45.366035125322583 20.947680533757843 #
edge $-1 $433 31.365765067298309 $436 45.403202441356214 $330 $479 forward 7 unknown #
vertex $-1 $344 $480 #
straight-curve $-1 -99.153330342151591 11.54618864565408 20.94768053375784 -1 0 0 I I #
edge $-1 $436 -8.9604190066206222 $341 3.7888797285537059 $340 $481 forward 7 unknown #
vertex $-1 $435 $482 #
straight-curve $-1 -77.636646626178774 11.54618864565408 6.9102431596999594 0.62932038083071107 0 0.77714596973225614 I I #
point $-1 -66.269354279320325 11.54618864565408 20.947680533757843 #
point $-1 -77.636646626178788 -1.2031100895202478 6.9102431596999416 #
straight-curve $-1 -77.636646626178788 0 20.947680533757843 0 -1 0 I I #
vertex $-1 $347 $483 #
point $-1 -69.07229774736301 5.1715392780669163 13.526354182532019 #
coedge $-1 $444 $353 $450 $484 reversed $236 $-1 #
coedge $-1 $353 $443 $356 $448 reversed $236 $-1 #
edge $-1 $446 -25.870342246454882 $361 -13.121043511280547 $360 $485 forward 7 unknown #
vertex $-1 $355 $486 #
straight-curve $-1 -63.952686518631708 45.366035125322583 23.808527040987229 -0.62932038083071107 0 -0.77714596973225614 I I #
edge $-1 $357 66.269354279320325 $452 77.636646626178788 $444 $487 forward 7 unknown #
point $-1 -66.269354279320325 45.366035125322597 20.947680533757843 #
coedge $-1 $360 $359 $443 $484 forward $351 $-1 #
point $-1 -77.636646626178788 32.616736390148262 6.9102431596999416 #
vertex $-1 $448 $488 #
straight-curve $-1 -77.636646626178788 0 20.947680533757843 0 -1 0 I I #
vertex $-1 $367 $489 #
point $-1 -69.07229774736301 38.991385757735429 13.526354182532019 #
edge $-1 $457 95.005707662440614 $460 103.10129993532337 $372 $490 forward 7 unknown #
vertex $-1 $386 $491 #
straight-curve $-1 31.159426485429293 7.8205297709844785 20.947680533757847 1 0 0 I I #
edge $-1 $460 1.9474091757016083 $383 9.7988320148641321 $382 $492 forward 7 unknown #
vertex $-1 $459 $493 #
straight-curve $-1 -39.549594267242227 7.8205297709844785 114.72053549897589 -0.75470957328743171 0 0.6560590369687036 I I #
point $-1 68.323733236544555 7.8205297709844785 20.947680533757847 #
point $-1 77.636646626178788 15.671952610147002 12.852088260875092 #
straight-curve $-1 77.636646626178788 0 20.947680533757843 0 1 0 I I #
vertex $-1 $389 $494 #
point $-1 71.763518882713171 10.063793439316626 13.976011422683221 #
vertex $-1 $393 $495 #
point $-1 71.763518882713171 13.428688941814848 13.976011422683221 #
straight-curve $-1 -77.636646626178788 45.366035125322583 0 0 0 -1 I I #
point $-1 -77.636646626178788 -45.366035125322583 -20.947680533757843 #
straight-curve $-1 -77.636646626178788 0 -20.947680533757843 0 1 0 I I #
point $-1 -77.636646626178788 45.366035125322583 -20.947680533757843 #
straight-curve $-1 -35.741285558663101 -16.909923239834253 20.947680533757843 0 1 0 I I #
straight-curve $-1 -35.741285558663101 -16.909923239834253 -20.947680533757843 0 -1 0 I I #
point $-1 -35.741285558663101 -45.366035125322583 -20.947680533757843 #
point $-1 -35.741285558663101 -45.366035125322583 20.947680533757843 #
straight-curve $-1 0 -45.366035125322583 -20.947680533757843 -1 0 0 I I #
straight-curve $-1 0 -45.366035125322583 20.947680533757843 1 0 0 I I #
straight-curve $-1 -77.636646626178788 11.54618864565408 52.313445601056152 0 0 -1 I I #
point $-1 -77.636646626178788 11.54618864565408 20.947680533757843 #
straight-curve $-1 -77.636646626178788 2.5857696390334581 6.9102431596999576 0 -1 0 I I #
point $-1 -77.636646626178788 11.54618864565408 6.9102431596999416 #
point $-1 -68.850559364010692 5.1715392780669163 11.41665465668757 #
edge $-1 $452 -20.947680533757843 $446 -6.9102431596999416 $443 $496 forward 7 unknown #
straight-curve $-1 -77.636646626178788 19.495692878867715 6.9102431596999576 0 -1 0 I I #
point $-1 -77.636646626178788 45.366035125322597 6.9102431596999416 #
straight-curve $-1 0 45.366035125322583 20.947680533757843 -1 0 0 I I #
point $-1 -77.636646626178788 45.366035125322583 20.947680533757843 #
point $-1 -68.850559364010692 38.991385757735429 11.41665465668757 #
straight-curve $-1 77.636646626178788 7.8205297709844785 115.95338819619846 0 0 -1 I I #
point $-1 77.636646626178788 7.8205297709844785 20.947680533757843 #
straight-curve $-1 77.636646626178788 5.8731205952828702 12.852088260875092 0 1 0 I I #
point $-1 77.636646626178788 7.8205297709844785 12.852088260875092 #
point $-1 70.35275027245703 10.063793439316626 13.877360886364494 #
point $-1 70.35275027245703 13.428688941814848 13.877360886364494 #
straight-curve $-1 -77.636646626178788 45.366035125322583 0 0 0 -1 I I #
End-of-ACIS-data 