500 0 10 0           
7 Unknown 11 ACIS 5.0 NT 24 Thu Mar 25 15:41:51 1999 
-1 9.9999999999999995e-007 1e-010 
body $-1 $10 $-1 $11 #
body $-1 $12 $-1 $13 #
body $-1 $14 $-1 $15 #
body $-1 $16 $-1 $17 #
body $-1 $18 $-1 $19 #
body $-1 $20 $-1 $21 #
body $-1 $22 $-1 $23 #
body $-1 $24 $-1 $25 #
body $-1 $26 $-1 $27 #
body $-1 $28 $-1 $29 #
lump $-1 $-1 $30 $0 #
transform $-1 1 0 0 0 1 0 0 0 1 70.357371745963917 35.785914631481624 13.237195296819149 1 rotate no_reflect no_shear #
lump $-1 $-1 $31 $1 #
transform $-1 1 0 0 0 1 0 0 0 1 70.357371745963917 35.785914631481624 13.237195296819149 1 rotate no_reflect no_shear #
lump $-1 $-1 $32 $2 #
transform $-1 1 0 0 0 1 0 0 0 1 70.357371745963917 35.785914631481624 13.237195296819149 1 rotate no_reflect no_shear #
lump $-1 $-1 $33 $3 #
transform $-1 1 0 0 0 1 0 0 0 1 70.357371745963917 35.785914631481624 13.237195296819149 1 rotate no_reflect no_shear #
lump $-1 $-1 $34 $4 #
transform $-1 1 0 0 0 1 0 0 0 1 70.357371745963917 35.785914631481624 13.237195296819149 1 rotate no_reflect no_shear #
lump $-1 $-1 $35 $5 #
transform $-1 1 0 0 0 1 0 0 0 1 70.357371745963917 35.785914631481624 13.237195296819149 1 rotate no_reflect no_shear #
lump $-1 $-1 $36 $6 #
transform $-1 1 0 0 0 1 0 0 0 1 70.357371745963917 35.785914631481624 13.237195296819149 1 rotate no_reflect no_shear #
lump $-1 $-1 $37 $7 #
transform $-1 1 0 0 0 1 0 0 0 1 70.357371745963917 35.785914631481624 13.237195296819149 1 rotate no_reflect no_shear #
lump $-1 $-1 $38 $8 #
transform $-1 1 0 0 0 1 0 0 0 1 70.357371745963917 35.785914631481624 13.237195296819149 1 rotate no_reflect no_shear #
lump $-1 $-1 $39 $9 #
transform $-1 1 0 0 0 1 0 0 0 1 70.357371745963917 35.785914631481624 13.237195296819149 1 rotate no_reflect no_shear #
shell $-1 $-1 $-1 $40 $-1 $10 #
shell $-1 $-1 $-1 $41 $-1 $12 #
shell $-1 $-1 $-1 $42 $-1 $14 #
shell $-1 $-1 $-1 $43 $-1 $16 #
shell $-1 $-1 $-1 $44 $-1 $18 #
shell $-1 $-1 $-1 $45 $-1 $20 #
shell $-1 $-1 $-1 $46 $-1 $22 #
shell $-1 $-1 $-1 $47 $-1 $24 #
shell $-1 $-1 $-1 $48 $-1 $26 #
shell $-1 $-1 $-1 $49 $-1 $28 #
face $-1 $50 $51 $30 $-1 $52 forward single #
face $-1 $53 $54 $31 $-1 $55 reversed single #
face $-1 $56 $57 $32 $-1 $58 forward single #
face $-1 $59 $60 $33 $-1 $61 forward single #
face $-1 $62 $63 $34 $-1 $64 reversed single #
face $-1 $65 $66 $35 $-1 $67 forward single #
face $-1 $68 $69 $36 $-1 $70 forward single #
face $-1 $71 $72 $37 $-1 $73 reversed single #
face $-1 $74 $75 $38 $-1 $76 forward single #
face $-1 $77 $78 $39 $-1 $79 forward single #
face $-1 $80 $81 $30 $-1 $82 reversed single #
loop $-1 $-1 $83 $40 #
plane-surface $-1 0 0 13.237195296819149 0 0 1 1 0 0 forward_v I I I I #
face $-1 $84 $85 $31 $-1 $86 reversed single #
loop $-1 $-1 $87 $41 #
plane-surface $-1 108.32849795935124 -5.8376845275276565 200.77910925880329 0 -1 0 -0.82903758062907751 0 -0.55919289150049634 forward_v I I I I #
face $-1 $88 $89 $32 $-1 $90 forward single #
loop $-1 $91 $92 $42 #
cone-surface $-1 64.660399512762879 -17.992108187628318 7.2681864717410249 -0.82903758062907751 0 -0.55919289150049634 1.1183857830009927 0 -1.658075161258155 1 I I 0 1 2 forward I I I I #
face $-1 $93 $94 $33 $-1 $95 forward single #
loop $-1 $96 $97 $43 #
cone-surface $-1 64.660399512762879 -10.699453991567921 7.2681864717410249 -0.82903758062907751 0 -0.55919289150049634 1.1183857830009927 0 -1.658075161258155 1 I I 0 1 2 forward I I I I #
face $-1 $98 $99 $34 $-1 $100 reversed single #
loop $-1 $-1 $101 $44 #
plane-surface $-1 108.32849795935124 29.948230103953968 200.77910925880329 0 -1 0 -0.82903758062907751 0 -0.55919289150049634 forward_v I I I I #
face $-1 $102 $103 $35 $-1 $104 forward single #
loop $-1 $105 $106 $45 #
cone-surface $-1 64.660399512762879 17.793806443853306 7.2681864717410249 -0.82903758062907751 0 -0.55919289150049634 1.1183857830009927 0 -1.658075161258155 1 I I 0 1 2 forward I I I I #
face $-1 $107 $108 $36 $-1 $109 forward single #
loop $-1 $110 $111 $46 #
cone-surface $-1 64.660399512762879 25.086460639913703 7.2681864717410249 -0.82903758062907751 0 -0.55919289150049634 1.1183857830009927 0 -1.658075161258155 1 I I 0 1 2 forward I I I I #
face $-1 $112 $113 $37 $-1 $114 reversed single #
loop $-1 $-1 $115 $47 #
plane-surface $-1 -189.69024318054466 -19.966371388676016 83.840506566269468 0 -1 0 0.84804810408105047 0 -0.52991925155115449 forward_v I I I I #
face $-1 $116 $117 $38 $-1 $118 forward single #
loop $-1 $119 $120 $48 #
cone-surface $-1 -68.359082389354072 -31.266045133537165 10.780377860621087 0.84804810408105047 0 -0.52991925155115449 0.52991925155115449 0 0.84804810408105047 1 I I 0 1 1 forward I I I I #
face $-1 $121 $122 $39 $-1 $123 forward single #
loop $-1 $124 $125 $49 #
cone-surface $-1 -68.359082389354072 -24.486240886620479 10.780377860621087 0.84804810408105047 0 -0.52991925155115449 0.52991925155115449 0 0.84804810408105047 1 I I 0 1 1 forward I I I I #
face $-1 $126 $127 $30 $-1 $128 reversed single #
loop $-1 $-1 $129 $50 #
plane-surface $-1 0 0 -13.237195296819149 0 0 1 1 0 0 forward_v I I I I #
coedge $-1 $130 $131 $132 $133 forward $51 $-1 #
face $-1 $134 $135 $31 $-1 $136 reversed single #
loop $-1 $-1 $137 $53 #
plane-surface $-1 -8.3293125440378475 -14.34578108959812 122.09242496880151 0.82903758062907751 0 0.55919289150049634 0.55919289150049634 0 -0.82903758062907751 forward_v I I I I #
coedge $-1 $138 $139 $140 $141 reversed $54 $-1 #
face $-1 $-1 $142 $32 $-1 $143 forward single #
loop $-1 $144 $145 $56 #
cone-surface $-1 60.765843229042872 -17.992108187628318 4.6412751708657574 -0.82903758062907751 0 -0.55919289150049634 0.55919289150049634 0 -0.82903758062907751 1 I I -0.70710678118654746 0.70710678118654746 1 forward I I I I #
loop $-1 $-1 $146 $42 #
coedge $-1 $92 $92 $147 $148 reversed $57 $-1 #
face $-1 $-1 $149 $33 $-1 $150 forward single #
loop $-1 $151 $152 $59 #
cone-surface $-1 60.765843229042872 -10.699453991567921 4.6412751708657574 -0.82903758062907751 0 -0.55919289150049634 0.55919289150049634 0 -0.82903758062907751 1 I I -0.70710678118654746 0.70710678118654746 1 forward I I I I #
loop $-1 $-1 $153 $43 #
coedge $-1 $97 $97 $154 $155 reversed $60 $-1 #
face $-1 $156 $157 $34 $-1 $158 reversed single #
loop $-1 $-1 $159 $62 #
plane-surface $-1 -8.3293125440378475 21.440133541883505 122.09242496880151 0.82903758062907751 0 0.55919289150049634 0.55919289150049634 0 -0.82903758062907751 forward_v I I I I #
coedge $-1 $160 $161 $162 $163 reversed $63 $-1 #
face $-1 $-1 $164 $35 $-1 $165 forward single #
loop $-1 $166 $167 $65 #
cone-surface $-1 60.765843229042872 17.793806443853306 4.6412751708657574 -0.82903758062907751 0 -0.55919289150049634 0.55919289150049634 0 -0.82903758062907751 1 I I -0.70710678118654746 0.70710678118654746 1 forward I I I I #
loop $-1 $-1 $168 $45 #
coedge $-1 $106 $106 $169 $170 reversed $66 $-1 #
face $-1 $-1 $171 $36 $-1 $172 forward single #
loop $-1 $173 $174 $68 #
cone-surface $-1 60.765843229042872 25.086460639913703 4.6412751708657574 -0.82903758062907751 0 -0.55919289150049634 0.55919289150049634 0 -0.82903758062907751 1 I I -0.70710678118654746 0.70710678118654746 1 forward I I I I #
loop $-1 $-1 $175 $46 #
coedge $-1 $111 $111 $176 $177 reversed $69 $-1 #
face $-1 $178 $179 $37 $-1 $180 reversed single #
loop $-1 $-1 $181 $71 #
plane-surface $-1 -70.357371745963917 -27.87614301007882 9.2730550128143818 -0.84804810408105047 0 0.52991925155115449 0.52991925155115449 0 0.84804810408105047 forward_v I I I I #
coedge $-1 $182 $183 $184 $185 reversed $72 $-1 #
face $-1 $-1 $186 $38 $-1 $187 forward single #
loop $-1 $188 $189 $74 #
cone-surface $-1 -67.175303824561354 -31.266045133537165 10.040670940649829 0.84804810408105047 0 -0.52991925155115449 0.26495962577557725 0 0.42402405204052523 1 I I -0.70710678118654746 0.70710678118654746 0.5 forward I I I I #
loop $-1 $-1 $190 $48 #
coedge $-1 $120 $120 $191 $192 reversed $75 $-1 #
face $-1 $-1 $193 $39 $-1 $194 forward single #
loop $-1 $195 $196 $77 #
cone-surface $-1 -67.175303824561354 -24.486240886620479 10.040670940649829 0.84804810408105047 0 -0.52991925155115449 0.26495962577557725 0 0.42402405204052523 1 I I -0.70710678118654746 0.70710678118654746 0.5 forward I I I I #
loop $-1 $-1 $197 $49 #
coedge $-1 $125 $125 $198 $199 reversed $78 $-1 #
face $-1 $200 $201 $30 $-1 $202 reversed single #
loop $-1 $-1 $203 $80 #
plane-surface $-1 0 -35.785914631481624 0 0 1 0 0 0 1 forward_v I I I I #
coedge $-1 $204 $205 $206 $207 forward $81 $-1 #
coedge $-1 $208 $83 $209 $210 forward $51 $-1 #
coedge $-1 $83 $208 $211 $212 forward $51 $-1 #
coedge $-1 $213 $214 $83 $133 reversed $215 $-1 #
edge $-1 $216 -35.785914631481624 $217 35.785914631481624 $132 $218 forward 7 unknown #
face $-1 $219 $220 $31 $-1 $221 forward single #
loop $-1 $-1 $222 $84 #
plane-surface $-1 108.32849795935124 -22.853877651668583 200.77910925880329 0 1 0 0.82903758062907751 0 0.55919289150049634 forward_v I I I I #
coedge $-1 $223 $224 $225 $226 reversed $85 $-1 #
coedge $-1 $139 $87 $227 $228 reversed $54 $-1 #
coedge $-1 $87 $138 $223 $229 reversed $54 $-1 #
coedge $-1 $225 $230 $87 $141 forward $220 $-1 #
edge $-1 $231 -16.193122766288297 $232 -10.930215706068083 $140 $233 forward 7 unknown #
loop $-1 $-1 $147 $88 #
plane-surface $-1 -8.3293125440378475 -14.34578108959812 122.09242496880151 0.82903758062907751 0 0.55919289150049634 0.55919289150049634 0 -0.82903758062907751 forward_v I I I I #
loop $-1 $-1 $234 $56 #
coedge $-1 $145 $145 $146 $235 reversed $89 $-1 #
coedge $-1 $146 $146 $145 $235 forward $91 $-1 #
coedge $-1 $147 $147 $92 $148 forward $142 $-1 #
edge $-1 $236 0 $236 6.2831853071796004 $147 $237 forward 7 unknown #
loop $-1 $-1 $154 $93 #
plane-surface $-1 -8.3293125440378475 -14.34578108959812 122.09242496880151 0.82903758062907751 0 0.55919289150049634 0.55919289150049634 0 -0.82903758062907751 forward_v I I I I #
loop $-1 $-1 $238 $59 #
coedge $-1 $152 $152 $153 $239 reversed $94 $-1 #
coedge $-1 $153 $153 $152 $239 forward $96 $-1 #
coedge $-1 $154 $154 $97 $155 forward $149 $-1 #
edge $-1 $240 0 $240 6.2831853071796004 $154 $241 forward 7 unknown #
face $-1 $242 $243 $34 $-1 $244 reversed single #
loop $-1 $-1 $245 $98 #
plane-surface $-1 108.32849795935124 12.932036979813041 200.77910925880329 0 1 0 0.82903758062907751 0 0.55919289150049634 forward_v I I I I #
coedge $-1 $246 $247 $248 $249 reversed $99 $-1 #
coedge $-1 $161 $101 $250 $251 reversed $63 $-1 #
coedge $-1 $101 $160 $246 $252 reversed $63 $-1 #
coedge $-1 $248 $253 $101 $163 forward $254 $-1 #
edge $-1 $255 -16.193122766288297 $256 -10.930215706068083 $162 $257 forward 7 unknown #
loop $-1 $-1 $169 $102 #
plane-surface $-1 -8.3293125440378475 21.440133541883505 122.09242496880151 0.82903758062907751 0 0.55919289150049634 0.55919289150049634 0 -0.82903758062907751 forward_v I I I I #
loop $-1 $-1 $258 $65 #
coedge $-1 $167 $167 $168 $259 reversed $103 $-1 #
coedge $-1 $168 $168 $167 $259 forward $105 $-1 #
coedge $-1 $169 $169 $106 $170 forward $164 $-1 #
edge $-1 $260 0 $260 6.2831853071796004 $169 $261 forward 7 unknown #
loop $-1 $-1 $176 $107 #
plane-surface $-1 -8.3293125440378475 21.440133541883505 122.09242496880151 0.82903758062907751 0 0.55919289150049634 0.55919289150049634 0 -0.82903758062907751 forward_v I I I I #
loop $-1 $-1 $262 $68 #
coedge $-1 $174 $174 $175 $263 reversed $108 $-1 #
coedge $-1 $175 $175 $174 $263 forward $110 $-1 #
coedge $-1 $176 $176 $111 $177 forward $171 $-1 #
edge $-1 $264 0 $264 6.2831853071796004 $176 $265 forward 7 unknown #
face $-1 $266 $267 $37 $-1 $268 reversed single #
loop $-1 $-1 $184 $112 #
plane-surface $-1 -70.357371745963917 0 0 1 0 0 0 0 -1 forward_v I I I I #
coedge $-1 $269 $270 $271 $272 reversed $113 $-1 #
coedge $-1 $183 $115 $273 $274 reversed $72 $-1 #
coedge $-1 $115 $182 $269 $275 reversed $72 $-1 #
coedge $-1 $271 $276 $115 $185 forward $179 $-1 #
edge $-1 $277 28.683057986315585 $278 32.647198270320352 $184 $279 forward 7 unknown #
loop $-1 $-1 $191 $116 #
plane-surface $-1 -70.357371745963917 -27.87614301007882 9.2730550128143818 -0.84804810408105047 0 0.52991925155115449 0.52991925155115449 0 0.84804810408105047 forward_v I I I I #
loop $-1 $-1 $280 $74 #
coedge $-1 $189 $189 $190 $281 reversed $117 $-1 #
coedge $-1 $190 $190 $189 $281 forward $119 $-1 #
coedge $-1 $191 $191 $120 $192 forward $186 $-1 #
edge $-1 $282 0 $282 6.2831853071796004 $191 $283 forward 7 unknown #
loop $-1 $-1 $198 $121 #
plane-surface $-1 -70.357371745963917 -27.87614301007882 9.2730550128143818 -0.84804810408105047 0 0.52991925155115449 0.52991925155115449 0 0.84804810408105047 forward_v I I I I #
loop $-1 $-1 $284 $77 #
coedge $-1 $196 $196 $197 $285 reversed $122 $-1 #
coedge $-1 $197 $197 $196 $285 forward $124 $-1 #
coedge $-1 $198 $198 $125 $199 forward $193 $-1 #
edge $-1 $286 0 $286 6.2831853071796004 $198 $287 forward 7 unknown #
face $-1 $288 $289 $30 $-1 $290 reversed single #
loop $-1 $-1 $291 $126 #
plane-surface $-1 -70.357371745963917 0 0 1 0 0 0 0 -1 forward_v I I I I #
coedge $-1 $292 $211 $293 $294 forward $127 $-1 #
coedge $-1 $295 $129 $292 $296 forward $81 $-1 #
coedge $-1 $129 $295 $297 $298 forward $81 $-1 #
coedge $-1 $214 $213 $129 $207 reversed $215 $-1 #
edge $-1 $299 -35.785914631481624 $300 35.785914631481624 $206 $301 forward 7 unknown #
coedge $-1 $131 $130 $302 $303 forward $51 $-1 #
coedge $-1 $304 $305 $130 $210 reversed $289 $-1 #
edge $-1 $217 -70.357371745963917 $306 70.357371745963917 $209 $307 forward 7 unknown #
coedge $-1 $203 $308 $131 $212 reversed $127 $-1 #
edge $-1 $309 -70.357371745963917 $216 70.357371745963917 $211 $310 forward 7 unknown #
coedge $-1 $206 $132 $308 $311 forward $215 $-1 #
coedge $-1 $132 $206 $304 $312 reversed $215 $-1 #
loop $-1 $-1 $213 $288 #
vertex $-1 $133 $313 #
vertex $-1 $133 $314 #
straight-curve $-1 70.357371745963917 0 13.237195296819149 0 1 0 I I #
face $-1 $-1 $315 $31 $-1 $316 reversed single #
loop $-1 $-1 $140 $134 #
plane-surface $-1 0 0 13.237195296819149 0 0 1 1 0 0 forward_v I I I I #
coedge $-1 $317 $318 $319 $320 reversed $135 $-1 #
coedge $-1 $321 $137 $139 $229 forward $85 $-1 #
coedge $-1 $137 $321 $317 $322 forward $85 $-1 #
coedge $-1 $319 $140 $137 $226 forward $220 $-1 #
edge $-1 $232 -1.3352060172714033 $323 15.680987106869523 $225 $324 forward 7 unknown #
coedge $-1 $325 $326 $138 $228 forward $315 $-1 #
edge $-1 $327 -94.954940163989193 $231 -87.152359332582492 $227 $328 forward 7 unknown #
edge $-1 $232 131.30313054009267 $327 140.71474349192781 $139 $329 forward 7 unknown #
coedge $-1 $140 $319 $325 $330 forward $220 $-1 #
vertex $-1 $228 $331 #
vertex $-1 $141 $332 #
straight-curve $-1 54.164248979675619 -5.8376845275276565 13.237195296819152 -1 0 0 I I #
coedge $-1 $234 $234 $-1 $333 reversed $144 $-1 #
edge $-1 $334 0 $334 6.2831853071796004 $145 $335 forward 7 unknown #
vertex $-1 $148 $336 #
ellipse-curve $-1 67.72591821585381 -17.992108187628318 9.3359048811158019 0.82903758062907751 0 0.55919289150049634 1.1183857830009927 0 -1.658075161258155 1 I I #
coedge $-1 $238 $238 $-1 $337 reversed $151 $-1 #
edge $-1 $338 0 $338 6.2831853071796004 $152 $339 forward 7 unknown #
vertex $-1 $155 $340 #
ellipse-curve $-1 67.72591821585381 -10.699453991567921 9.3359048811158019 0.82903758062907751 0 0.55919289150049634 1.1183857830009927 0 -1.658075161258155 1 I I #
face $-1 $-1 $254 $34 $-1 $341 forward single #
loop $-1 $-1 $342 $156 #
plane-surface $-1 70.357371745963917 0 0 -1 0 0 0 0 1 forward_v I I I I #
coedge $-1 $343 $344 $345 $346 reversed $157 $-1 #
coedge $-1 $347 $159 $161 $252 forward $99 $-1 #
coedge $-1 $159 $347 $343 $348 forward $99 $-1 #
coedge $-1 $345 $162 $159 $249 forward $254 $-1 #
edge $-1 $256 -19.228163333012215 $349 -2.2119702088712891 $248 $350 forward 7 unknown #
coedge $-1 $351 $352 $160 $251 forward $243 $-1 #
edge $-1 $353 -94.954940163989193 $255 -87.152359332582492 $250 $354 forward 7 unknown #
edge $-1 $256 131.30313054009267 $353 140.71474349192781 $161 $355 forward 7 unknown #
coedge $-1 $162 $345 $351 $356 forward $254 $-1 #
loop $-1 $-1 $345 $242 #
vertex $-1 $251 $357 #
vertex $-1 $163 $358 #
straight-curve $-1 54.164248979675619 29.948230103953968 13.237195296819152 -1 0 0 I I #
coedge $-1 $258 $258 $-1 $359 reversed $166 $-1 #
edge $-1 $360 0 $360 6.2831853071796004 $167 $361 forward 7 unknown #
vertex $-1 $170 $362 #
ellipse-curve $-1 67.72591821585381 17.793806443853306 9.3359048811158019 0.82903758062907751 0 0.55919289150049634 1.1183857830009927 0 -1.658075161258155 1 I I #
coedge $-1 $262 $262 $-1 $363 reversed $173 $-1 #
edge $-1 $364 0 $364 6.2831853071796004 $174 $365 forward 7 unknown #
vertex $-1 $177 $366 #
ellipse-curve $-1 67.72591821585381 25.086460639913703 9.3359048811158019 0.82903758062907751 0 0.55919289150049634 1.1183857830009927 0 -1.658075161258155 1 I I #
face $-1 $-1 $367 $37 $-1 $368 forward single #
loop $-1 $-1 $369 $178 #
plane-surface $-1 0 -35.785914631481624 0 0 1 0 0 0 1 forward_v I I I I #
coedge $-1 $370 $181 $183 $275 forward $113 $-1 #
coedge $-1 $181 $370 $369 $371 reversed $113 $-1 #
coedge $-1 $372 $184 $181 $272 forward $179 $-1 #
edge $-1 $278 6.0282998836366062 $373 21.847843126442214 $271 $374 forward 7 unknown #
coedge $-1 $375 $376 $182 $274 forward $367 $-1 #
edge $-1 $377 -26.964819532023697 $277 -24.487749844308411 $273 $378 forward 7 unknown #
edge $-1 $278 0 $377 4.6744285671156955 $183 $379 forward 7 unknown #
coedge $-1 $184 $372 $375 $380 reversed $179 $-1 #
vertex $-1 $380 $381 #
vertex $-1 $185 $382 #
straight-curve $-1 -70.357371745963917 -19.966371388676016 41.920253283134734 0 0 -1 I I #
coedge $-1 $280 $280 $-1 $383 reversed $188 $-1 #
edge $-1 $384 0 $384 6.2831853071796004 $189 $385 forward 7 unknown #
vertex $-1 $192 $386 #
ellipse-curve $-1 -69.118836902106267 -31.266045133537165 11.255125154816771 -0.84804810408105047 0 0.52991925155115449 0.52991925155115449 0 0.84804810408105047 1 I I #
coedge $-1 $284 $284 $-1 $387 reversed $195 $-1 #
edge $-1 $388 0 $388 6.2831853071796004 $196 $389 forward 7 unknown #
vertex $-1 $199 $390 #
ellipse-curve $-1 -69.118836902106267 -24.486240886620479 11.255125154816771 -0.84804810408105047 0 0.52991925155115449 0.52991925155115449 0 0.84804810408105047 1 I I #
face $-1 $-1 $215 $30 $-1 $391 reversed single #
loop $-1 $-1 $304 $200 #
plane-surface $-1 0 35.785914631481624 0 0 -1 0 0 0 -1 forward_v I I I I #
coedge $-1 $392 $302 $305 $393 forward $201 $-1 #
coedge $-1 $308 $203 $204 $296 reversed $127 $-1 #
coedge $-1 $302 $392 $203 $294 reversed $201 $-1 #
edge $-1 $309 -13.237195296819149 $394 13.237195296819149 $293 $395 forward 7 unknown #
coedge $-1 $205 $204 $392 $396 forward $81 $-1 #
edge $-1 $300 -70.357371745963917 $394 70.357371745963917 $292 $397 forward 7 unknown #
coedge $-1 $305 $304 $205 $298 reversed $289 $-1 #
edge $-1 $398 -70.357371745963917 $299 70.357371745963917 $297 $399 forward 7 unknown #
vertex $-1 $207 $400 #
vertex $-1 $311 $401 #
straight-curve $-1 70.357371745963917 0 -13.237195296819149 0 -1 0 I I #
coedge $-1 $291 $293 $208 $303 reversed $201 $-1 #
edge $-1 $306 -35.785914631481624 $309 35.785914631481624 $302 $402 forward 7 unknown #
coedge $-1 $297 $209 $214 $312 forward $289 $-1 #
coedge $-1 $209 $297 $291 $393 reversed $289 $-1 #
vertex $-1 $210 $403 #
straight-curve $-1 0 35.785914631481624 13.237195296819149 -1 0 0 I I #
coedge $-1 $211 $292 $213 $311 reversed $127 $-1 #
vertex $-1 $303 $404 #
straight-curve $-1 0 -35.785914631481624 13.237195296819149 1 0 0 I I #
edge $-1 $216 -13.237195296819149 $300 13.237195296819149 $213 $405 forward 7 unknown #
edge $-1 $217 -13.237195296819149 $299 13.237195296819149 $214 $406 forward 7 unknown #
point $-1 70.357371745963917 -35.785914631481624 13.237195296819149 #
point $-1 70.357371745963917 35.785914631481624 13.237195296819149 #
loop $-1 $-1 $227 $219 #
plane-surface $-1 70.357371745963917 0 0 -1 0 0 0 0 1 forward_v I I I I #
coedge $-1 $318 $222 $224 $322 reversed $135 $-1 #
coedge $-1 $222 $317 $407 $408 reversed $135 $-1 #
coedge $-1 $230 $225 $222 $320 forward $220 $-1 #
edge $-1 $323 10.930215706068083 $409 16.193122766288297 $319 $410 forward 7 unknown #
coedge $-1 $224 $223 $326 $411 reversed $85 $-1 #
edge $-1 $412 -140.71474349192781 $323 -131.30313054009267 $317 $413 forward 7 unknown #
vertex $-1 $226 $414 #
straight-curve $-1 65.094464685743702 -7.1728905447990599 13.237195296819152 0 -1 0 I I #
coedge $-1 $407 $227 $230 $330 reversed $315 $-1 #
coedge $-1 $227 $407 $321 $411 forward $315 $-1 #
vertex $-1 $228 $415 #
straight-curve $-1 70.357371745963917 -5.8376845275276565 100.38955462940164 0 0 1 I I #
straight-curve $-1 -8.3293125440378475 -5.8376845275276565 122.09242496880151 0.55919289150049634 0 -0.82903758062907751 I I #
edge $-1 $409 -22.853877651668583 $231 -5.8376845275276565 $325 $416 forward 7 unknown #
point $-1 70.357371745963917 -5.8376845275276565 13.237195296819149 #
point $-1 65.094464685743702 -5.8376845275276565 13.237195296819152 #
edge $-1 $417 1 $417 0 $234 $-1 forward 7 unknown #
vertex $-1 $235 $418 #
ellipse-curve $-1 61.594880809671949 -17.992108187628318 5.2004680623662534 0.82903758062907751 0 0.55919289150049634 1.1183857830009927 0 -1.658075161258155 1 I I #
point $-1 68.844303998854784 -17.992108187628318 7.6778297198576411 #
edge $-1 $419 1 $419 0 $238 $-1 forward 7 unknown #
vertex $-1 $239 $420 #
ellipse-curve $-1 61.594880809671949 -10.699453991567921 5.2004680623662534 0.82903758062907751 0 0.55919289150049634 1.1183857830009927 0 -1.658075161258155 1 I I #
point $-1 68.844303998854784 -10.699453991567921 7.6778297198576411 #
plane-surface $-1 0 0 13.237195296819149 0 0 1 1 0 0 forward_v I I I I #
coedge $-1 $352 $351 $344 $421 forward $243 $-1 #
coedge $-1 $344 $245 $247 $348 reversed $157 $-1 #
coedge $-1 $245 $343 $342 $421 reversed $157 $-1 #
coedge $-1 $253 $248 $245 $346 forward $254 $-1 #
edge $-1 $349 10.930215706068083 $422 16.193122766288297 $345 $423 forward 7 unknown #
coedge $-1 $247 $246 $352 $424 reversed $99 $-1 #
edge $-1 $425 -140.71474349192781 $349 -131.30313054009267 $343 $426 forward 7 unknown #
vertex $-1 $249 $427 #
straight-curve $-1 65.094464685743702 10.720066770941752 13.237195296819152 0 -1 0 I I #
coedge $-1 $342 $250 $253 $356 reversed $243 $-1 #
coedge $-1 $250 $342 $347 $424 forward $243 $-1 #
vertex $-1 $251 $428 #
straight-curve $-1 70.357371745963917 29.948230103953968 100.38955462940164 0 0 1 I I #
straight-curve $-1 -8.3293125440378475 29.948230103953968 122.09242496880151 0.55919289150049634 0 -0.82903758062907751 I I #
edge $-1 $422 12.932036979813041 $255 29.948230103953968 $351 $429 forward 7 unknown #
point $-1 70.357371745963917 29.948230103953968 13.237195296819149 #
point $-1 65.094464685743702 29.948230103953968 13.237195296819152 #
edge $-1 $430 1 $430 0 $258 $-1 forward 7 unknown #
vertex $-1 $259 $431 #
ellipse-curve $-1 61.594880809671949 17.793806443853306 5.2004680623662534 0.82903758062907751 0 0.55919289150049634 1.1183857830009927 0 -1.658075161258155 1 I I #
point $-1 68.844303998854784 17.793806443853306 7.6778297198576411 #
edge $-1 $432 1 $432 0 $262 $-1 forward 7 unknown #
vertex $-1 $263 $433 #
ellipse-curve $-1 61.594880809671949 25.086460639913703 5.2004680623662534 0.82903758062907751 0 0.55919289150049634 1.1183857830009927 0 -1.658075161258155 1 I I #
point $-1 68.844303998854784 25.086460639913703 7.6778297198576411 #
loop $-1 $-1 $273 $266 #
plane-surface $-1 0 0 13.237195296819149 0 0 1 1 0 0 forward_v I I I I #
coedge $-1 $434 $435 $270 $371 forward $267 $-1 #
coedge $-1 $270 $269 $376 $436 reversed $113 $-1 #
edge $-1 $373 -14.70986452703551 $437 -10.035435959919816 $369 $438 forward 7 unknown #
coedge $-1 $276 $271 $435 $439 reversed $179 $-1 #
vertex $-1 $371 $440 #
straight-curve $-1 -70.357371745963917 -13.93807150503941 9.27305501281438 0 -1 0 I I #
coedge $-1 $441 $273 $276 $380 forward $367 $-1 #
coedge $-1 $273 $441 $370 $436 forward $367 $-1 #
vertex $-1 $274 $442 #
straight-curve $-1 -94.845121590272328 -19.966371388676016 13.237195296819145 -1 0 0 I I #
straight-curve $-1 -70.357371745963917 -19.966371388676016 9.2730550128143818 0.52991925155115449 0 0.84804810408105047 I I #
edge $-1 $277 19.966371388676016 $443 35.785914631481624 $276 $444 forward 7 unknown #
point $-1 -70.357371745963917 -19.966371388676016 13.237195296819149 #
point $-1 -70.357371745963917 -19.966371388676016 9.2730550128143818 #
edge $-1 $445 1 $445 0 $280 $-1 forward 7 unknown #
vertex $-1 $281 $446 #
ellipse-curve $-1 -67.599327876601876 -31.266045133537165 10.305630566425405 -0.84804810408105047 0 0.52991925155115449 0.52991925155115449 0 0.84804810408105047 1 I I #
point $-1 -68.588917650555118 -31.266045133537165 12.10317325889782 #
edge $-1 $447 1 $447 0 $284 $-1 forward 7 unknown #
vertex $-1 $285 $448 #
ellipse-curve $-1 -67.599327876601876 -24.486240886620479 10.305630566425405 -0.84804810408105047 0 0.52991925155115449 0.52991925155115449 0 0.84804810408105047 1 I I #
point $-1 -68.588917650555118 -24.486240886620479 12.10317325889782 #
plane-surface $-1 70.357371745963917 0 0 -1 0 0 0 0 1 forward_v I I I I #
coedge $-1 $293 $291 $295 $396 reversed $201 $-1 #
edge $-1 $306 -13.237195296819149 $398 13.237195296819149 $305 $449 forward 7 unknown #
vertex $-1 $396 $450 #
straight-curve $-1 -70.357371745963917 -35.785914631481624 0 0 0 -1 I I #
edge $-1 $394 -35.785914631481624 $398 35.785914631481624 $392 $451 forward 7 unknown #
straight-curve $-1 0 -35.785914631481624 -13.237195296819149 -1 0 0 I I #
vertex $-1 $298 $452 #
straight-curve $-1 0 35.785914631481624 -13.237195296819149 1 0 0 I I #
point $-1 70.357371745963917 35.785914631481624 -13.237195296819149 #
point $-1 70.357371745963917 -35.785914631481624 -13.237195296819149 #
straight-curve $-1 -70.357371745963917 0 13.237195296819149 0 -1 0 I I #
point $-1 -70.357371745963917 35.785914631481624 13.237195296819149 #
point $-1 -70.357371745963917 -35.785914631481624 13.237195296819149 #
straight-curve $-1 70.357371745963917 -35.785914631481624 0 0 0 -1 I I #
straight-curve $-1 70.357371745963917 35.785914631481624 0 0 0 -1 I I #
coedge $-1 $326 $325 $318 $408 forward $315 $-1 #
edge $-1 $409 87.152359332582492 $412 94.954940163989193 $407 $453 forward 7 unknown #
vertex $-1 $330 $454 #
straight-curve $-1 54.164248979675619 -22.853877651668583 13.237195296819152 1 0 0 I I #
edge $-1 $412 -15.680987106869523 $327 1.3352060172714033 $326 $455 forward 7 unknown #
vertex $-1 $411 $456 #
straight-curve $-1 -8.3293125440378475 -22.853877651668583 122.09242496880151 -0.55919289150049634 0 0.82903758062907751 I I #
point $-1 65.094464685743702 -22.853877651668583 13.237195296819152 #
point $-1 70.357371745963917 -5.8376845275276565 5.4346144654124515 #
straight-curve $-1 70.357371745963917 0 13.237195296819149 0 1 0 I I #
vertex $-1 $333 $457 #
point $-1 62.713266592672944 -17.992108187628318 3.5423929011080988 #
vertex $-1 $337 $458 #
point $-1 62.713266592672944 -10.699453991567921 3.5423929011080988 #
edge $-1 $422 87.152359332582492 $425 94.954940163989193 $342 $459 forward 7 unknown #
vertex $-1 $356 $460 #
straight-curve $-1 54.164248979675619 12.932036979813041 13.237195296819152 1 0 0 I I #
edge $-1 $425 2.2119702088712891 $353 19.228163333012215 $352 $461 forward 7 unknown #
vertex $-1 $424 $462 #
straight-curve $-1 -8.3293125440378475 12.932036979813041 122.09242496880151 -0.55919289150049634 0 0.82903758062907751 I I #
point $-1 65.094464685743702 12.932036979813041 13.237195296819152 #
point $-1 70.357371745963917 29.948230103953968 5.4346144654124515 #
straight-curve $-1 70.357371745963917 0 13.237195296819149 0 1 0 I I #
vertex $-1 $359 $463 #
point $-1 62.713266592672944 17.793806443853306 3.5423929011080988 #
vertex $-1 $363 $464 #
point $-1 62.713266592672944 25.086460639913703 3.5423929011080988 #
coedge $-1 $435 $369 $441 $465 reversed $267 $-1 #
coedge $-1 $369 $434 $372 $439 forward $267 $-1 #
edge $-1 $437 -21.847843126442214 $377 -6.0282998836366062 $376 $466 forward 7 unknown #
vertex $-1 $371 $467 #
straight-curve $-1 -62.562331345378382 -35.785914631481624 21.747727736255946 0.52991925155115449 0 0.84804810408105047 I I #
edge $-1 $443 -13.237195296819149 $373 -9.2730550128143818 $372 $468 forward 7 unknown #
point $-1 -70.357371745963917 -35.785914631481624 9.2730550128143818 #
coedge $-1 $376 $375 $434 $465 forward $367 $-1 #
point $-1 -67.880302058248631 -19.966371388676016 13.237195296819149 #
vertex $-1 $380 $469 #
straight-curve $-1 -70.357371745963917 0 13.237195296819149 0 -1 0 I I #
vertex $-1 $383 $470 #
point $-1 -67.069408625050727 -31.266045133537165 11.153678670506457 #
vertex $-1 $387 $471 #
point $-1 -67.069408625050727 -24.486240886620479 11.153678670506457 #
straight-curve $-1 -70.357371745963917 35.785914631481624 0 0 0 -1 I I #
point $-1 -70.357371745963917 -35.785914631481624 -13.237195296819149 #
straight-curve $-1 -70.357371745963917 0 -13.237195296819149 0 1 0 I I #
point $-1 -70.357371745963917 35.785914631481624 -13.237195296819149 #
straight-curve $-1 70.357371745963917 -22.853877651668583 100.38955462940164 0 0 -1 I I #
point $-1 70.357371745963917 -22.853877651668583 13.237195296819149 #
straight-curve $-1 70.357371745963917 -7.1728905447990599 5.4346144654124515 0 1 0 I I #
point $-1 70.357371745963917 -22.853877651668583 5.4346144654124515 #
point $-1 59.936805648413795 -17.992108187628318 4.0820822793652614 #
point $-1 59.936805648413795 -10.699453991567921 4.0820822793652614 #
straight-curve $-1 70.357371745963917 12.932036979813041 100.38955462940164 0 0 -1 I I #
point $-1 70.357371745963917 12.932036979813041 13.237195296819149 #
straight-curve $-1 70.357371745963917 10.720066770941752 5.4346144654124515 0 1 0 I I #
point $-1 70.357371745963917 12.932036979813041 5.4346144654124515 #
point $-1 59.936805648413795 17.793806443853306 4.0820822793652614 #
point $-1 59.936805648413795 25.086460639913703 4.0820822793652614 #
edge $-1 $443 -70.357371745963917 $437 -67.880302058248631 $434 $472 forward 7 unknown #
straight-curve $-1 -67.880302058248631 -13.93807150503941 13.237195296819149 0 1 0 I I #
point $-1 -67.880302058248631 -35.785914631481624 13.237195296819149 #
straight-curve $-1 -70.357371745963917 -35.785914631481624 0 0 0 -1 I I #
point $-1 -70.357371745963917 -35.785914631481624 13.237195296819149 #
point $-1 -66.751279772520832 -31.266045133537165 9.7757113148742523 #
point $-1 -66.751279772520832 -24.486240886620479 9.7757113148742523 #
straight-curve $-1 0 -35.785914631481624 13.237195296819149 1 0 0 I I #
End-of-ACIS-data 