500 0 13 0           
7 Unknown 11 ACIS 5.0 NT 24 Thu Mar 25 15:39:11 1999 
-1 9.9999999999999995e-007 1e-010 
body $-1 $13 $-1 $14 #
body $-1 $15 $-1 $16 #
body $-1 $17 $-1 $18 #
body $-1 $19 $-1 $20 #
body $-1 $21 $-1 $22 #
body $-1 $23 $-1 $24 #
body $-1 $25 $-1 $26 #
body $-1 $27 $-1 $28 #
body $-1 $29 $-1 $30 #
body $-1 $31 $-1 $32 #
body $-1 $33 $-1 $34 #
body $-1 $35 $-1 $36 #
body $-1 $37 $-1 $38 #
lump $-1 $-1 $39 $0 #
transform $-1 1 0 0 0 1 0 0 0 1 62.592242194891199 30.691344832334284 14.308515333344676 1 rotate no_reflect no_shear #
lump $-1 $-1 $40 $1 #
transform $-1 1 0 0 0 1 0 0 0 1 62.592242194891199 30.691344832334284 14.308515333344676 1 rotate no_reflect no_shear #
lump $-1 $-1 $41 $2 #
transform $-1 1 0 0 0 1 0 0 0 1 62.592242194891199 30.691344832334284 14.308515333344676 1 rotate no_reflect no_shear #
lump $-1 $-1 $42 $3 #
transform $-1 1 0 0 0 1 0 0 0 1 62.592242194891199 30.691344832334284 14.308515333344676 1 rotate no_reflect no_shear #
lump $-1 $-1 $43 $4 #
transform $-1 1 0 0 0 1 0 0 0 1 62.592242194891199 30.691344832334284 14.308515333344676 1 rotate no_reflect no_shear #
lump $-1 $-1 $44 $5 #
transform $-1 1 0 0 0 1 0 0 0 1 62.592242194891199 30.691344832334284 14.308515333344676 1 rotate no_reflect no_shear #
lump $-1 $-1 $45 $6 #
transform $-1 1 0 0 0 1 0 0 0 1 62.592242194891199 30.691344832334284 14.308515333344676 1 rotate no_reflect no_shear #
lump $-1 $-1 $46 $7 #
transform $-1 1 0 0 0 1 0 0 0 1 62.592242194891199 30.691344832334284 14.308515333344676 1 rotate no_reflect no_shear #
lump $-1 $-1 $47 $8 #
transform $-1 1 0 0 0 1 0 0 0 1 62.592242194891199 30.691344832334284 14.308515333344676 1 rotate no_reflect no_shear #
lump $-1 $-1 $48 $9 #
transform $-1 1 0 0 0 1 0 0 0 1 62.592242194891199 30.691344832334284 14.308515333344676 1 rotate no_reflect no_shear #
lump $-1 $-1 $49 $10 #
transform $-1 1 0 0 0 1 0 0 0 1 62.592242194891199 30.691344832334284 14.308515333344676 1 rotate no_reflect no_shear #
lump $-1 $-1 $50 $11 #
transform $-1 1 0 0 0 1 0 0 0 1 62.592242194891199 30.691344832334284 14.308515333344676 1 rotate no_reflect no_shear #
lump $-1 $-1 $51 $12 #
transform $-1 1 0 0 0 1 0 0 0 1 62.592242194891199 30.691344832334284 14.308515333344676 1 rotate no_reflect no_shear #
shell $-1 $-1 $-1 $52 $-1 $13 #
shell $-1 $-1 $-1 $53 $-1 $15 #
shell $-1 $-1 $-1 $54 $-1 $17 #
shell $-1 $-1 $-1 $55 $-1 $19 #
shell $-1 $-1 $-1 $56 $-1 $21 #
shell $-1 $-1 $-1 $57 $-1 $23 #
shell $-1 $-1 $-1 $58 $-1 $25 #
shell $-1 $-1 $-1 $59 $-1 $27 #
shell $-1 $-1 $-1 $60 $-1 $29 #
shell $-1 $-1 $-1 $61 $-1 $31 #
shell $-1 $-1 $-1 $62 $-1 $33 #
shell $-1 $-1 $-1 $63 $-1 $35 #
shell $-1 $-1 $-1 $64 $-1 $37 #
face $-1 $65 $66 $39 $-1 $67 forward single #
face $-1 $68 $69 $40 $-1 $70 reversed single #
face $-1 $71 $72 $41 $-1 $73 forward single #
face $-1 $74 $75 $42 $-1 $76 forward single #
face $-1 $77 $78 $43 $-1 $79 reversed single #
face $-1 $80 $81 $44 $-1 $82 forward single #
face $-1 $83 $84 $45 $-1 $85 forward single #
face $-1 $86 $87 $46 $-1 $88 reversed single #
face $-1 $89 $90 $47 $-1 $91 forward single #
face $-1 $92 $93 $48 $-1 $94 forward single #
face $-1 $95 $96 $49 $-1 $97 reversed single #
face $-1 $98 $99 $50 $-1 $100 forward single #
face $-1 $101 $102 $51 $-1 $103 forward single #
face $-1 $104 $105 $39 $-1 $106 reversed single #
loop $-1 $-1 $107 $52 #
plane-surface $-1 0 0 14.308515333344676 0 0 1 1 0 0 forward_v I I I I #
face $-1 $108 $109 $40 $-1 $110 reversed single #
loop $-1 $-1 $111 $53 #
plane-surface $-1 -45.476653643414863 64.136513397714239 140.35334031212355 -1 0 0 0 0.64278761758704617 0.76604443648966558 forward_v I I I I #
face $-1 $112 $113 $41 $-1 $114 forward single #
loop $-1 $115 $116 $54 #
cone-surface $-1 -57.702074037326533 24.25126312104711 8.5895101193534451 0 -0.64278761758704617 -0.76604443648966558 2 0 0 1 I I 0 1 2 forward I I I I #
face $-1 $117 $118 $42 $-1 $119 forward single #
loop $-1 $120 $121 $55 #
cone-surface $-1 -50.36682180097953 24.25126312104711 8.5895101193534451 0 -0.64278761758704617 -0.76604443648966558 2 0 0 1 I I 0 1 2 forward I I I I #
face $-1 $122 $123 $43 $-1 $124 reversed single #
loop $-1 $-1 $125 $56 #
plane-surface $-1 54.034447919153038 -16.330523082056757 44.456462510503357 0 0.64278761758704617 0.76604443648966558 1 0 0 forward_v I I I I #
face $-1 $126 $127 $44 $-1 $128 forward single #
loop $-1 $129 $130 $57 #
cone-surface $-1 50.366821800979537 24.25126312104711 8.5895101193534451 0 -0.64278761758704617 -0.76604443648966558 2 0 0 1 I I 0 1 2 forward I I I I #
face $-1 $131 $132 $45 $-1 $133 forward single #
loop $-1 $134 $135 $58 #
cone-surface $-1 57.70207403732654 24.25126312104711 8.5895101193534451 0 -0.64278761758704617 -0.76604443648966558 2 0 0 1 I I 0 1 2 forward I I I I #
face $-1 $136 $137 $46 $-1 $138 reversed single #
loop $-1 $-1 $139 $59 #
plane-surface $-1 -45.476653643414863 -111.15838131210528 100.89730746148625 -1 0 0 0 -0.64278761758704617 0.76604443648966558 forward_v I I I I #
face $-1 $140 $141 $47 $-1 $142 forward single #
loop $-1 $143 $144 $60 #
cone-surface $-1 -57.702074037326533 -24.251263121047113 8.5895101193534451 0 0.64278761758704617 -0.76604443648966558 2 0 0 1 I I 0 1 2 forward I I I I #
face $-1 $145 $146 $48 $-1 $147 forward single #
loop $-1 $148 $149 $61 #
cone-surface $-1 -50.36682180097953 -24.251263121047113 8.5895101193534451 0 0.64278761758704617 -0.76604443648966558 2 0 0 1 I I 0 1 2 forward I I I I #
face $-1 $150 $151 $49 $-1 $152 reversed single #
loop $-1 $-1 $153 $62 #
plane-surface $-1 54.034447919153038 -30.691344832334281 5.0004296598660574 0 -0.64278761758704617 0.76604443648966558 1 0 0 forward_v I I I I #
face $-1 $154 $155 $50 $-1 $156 forward single #
loop $-1 $157 $158 $63 #
cone-surface $-1 50.366821800979537 -24.251263121047113 8.5895101193534451 0 0.64278761758704617 -0.76604443648966558 2 0 0 1 I I 0 1 2 forward I I I I #
face $-1 $159 $160 $51 $-1 $161 forward single #
loop $-1 $162 $163 $64 #
cone-surface $-1 57.70207403732654 -24.251263121047113 8.5895101193534451 0 0.64278761758704617 -0.76604443648966558 2 0 0 1 I I 0 1 2 forward I I I I #
face $-1 $164 $165 $39 $-1 $166 reversed single #
loop $-1 $-1 $167 $65 #
plane-surface $-1 0 0 -14.308515333344676 0 0 1 1 0 0 forward_v I I I I #
coedge $-1 $168 $169 $170 $171 forward $66 $-1 #
face $-1 $172 $173 $40 $-1 $174 reversed single #
loop $-1 $-1 $175 $68 #
plane-surface $-1 -54.034447919153031 -16.330523082056757 44.456462510503357 0 0.64278761758704617 0.76604443648966558 1 0 0 forward_v I I I I #
coedge $-1 $176 $177 $178 $179 reversed $69 $-1 #
face $-1 $-1 $180 $41 $-1 $181 forward single #
loop $-1 $182 $183 $71 #
cone-surface $-1 -57.702074037326533 22.714865946773681 6.7585033056118569 0 -0.64278761758704617 -0.76604443648966558 1 0 0 1 I I -0.70710678118654746 0.70710678118654746 1 forward I I I I #
loop $-1 $-1 $184 $54 #
coedge $-1 $116 $116 $185 $186 reversed $72 $-1 #
face $-1 $-1 $187 $42 $-1 $188 forward single #
loop $-1 $189 $190 $74 #
cone-surface $-1 -50.36682180097953 22.714865946773681 6.7585033056118569 0 -0.64278761758704617 -0.76604443648966558 1 0 0 1 I I -0.70710678118654746 0.70710678118654746 1 forward I I I I #
loop $-1 $-1 $191 $55 #
coedge $-1 $121 $121 $192 $193 reversed $75 $-1 #
face $-1 $194 $195 $43 $-1 $196 forward single #
loop $-1 $-1 $197 $77 #
plane-surface $-1 45.47665364341487 64.136513397714239 140.35334031212355 1 0 0 0 -0.64278761758704617 -0.76604443648966558 forward_v I I I I #
coedge $-1 $198 $199 $200 $201 reversed $78 $-1 #
face $-1 $-1 $202 $44 $-1 $203 forward single #
loop $-1 $204 $205 $80 #
cone-surface $-1 50.366821800979537 22.714865946773681 6.7585033056118569 0 -0.64278761758704617 -0.76604443648966558 1 0 0 1 I I -0.70710678118654746 0.70710678118654746 1 forward I I I I #
loop $-1 $-1 $206 $57 #
coedge $-1 $130 $130 $207 $208 reversed $81 $-1 #
face $-1 $-1 $209 $45 $-1 $210 forward single #
loop $-1 $211 $212 $83 #
cone-surface $-1 57.70207403732654 22.714865946773681 6.7585033056118569 0 -0.64278761758704617 -0.76604443648966558 1 0 0 1 I I -0.70710678118654746 0.70710678118654746 1 forward I I I I #
loop $-1 $-1 $213 $58 #
coedge $-1 $135 $135 $214 $215 reversed $84 $-1 #
face $-1 $216 $217 $46 $-1 $218 reversed single #
loop $-1 $-1 $219 $86 #
plane-surface $-1 -54.034447919153031 -30.691344832334281 5.0004296598660574 0 -0.64278761758704617 0.76604443648966558 1 0 0 forward_v I I I I #
coedge $-1 $220 $221 $222 $223 reversed $87 $-1 #
face $-1 $-1 $224 $47 $-1 $225 forward single #
loop $-1 $226 $227 $89 #
cone-surface $-1 -57.702074037326533 -22.714865946773685 6.7585033056118569 0 0.64278761758704617 -0.76604443648966558 1 0 0 1 I I -0.70710678118654746 0.70710678118654746 1 forward I I I I #
loop $-1 $-1 $228 $60 #
coedge $-1 $144 $144 $229 $230 reversed $90 $-1 #
face $-1 $-1 $231 $48 $-1 $232 forward single #
loop $-1 $233 $234 $92 #
cone-surface $-1 -50.36682180097953 -22.714865946773685 6.7585033056118569 0 0.64278761758704617 -0.76604443648966558 1 0 0 1 I I -0.70710678118654746 0.70710678118654746 1 forward I I I I #
loop $-1 $-1 $235 $61 #
coedge $-1 $149 $149 $236 $237 reversed $93 $-1 #
face $-1 $238 $239 $49 $-1 $240 reversed single #
loop $-1 $-1 $241 $95 #
plane-surface $-1 45.47665364341487 -111.15838131210528 100.89730746148625 1 0 0 0 0.64278761758704617 -0.76604443648966558 forward_v I I I I #
coedge $-1 $242 $243 $244 $245 reversed $96 $-1 #
face $-1 $-1 $246 $50 $-1 $247 forward single #
loop $-1 $248 $249 $98 #
cone-surface $-1 50.366821800979537 -22.714865946773685 6.7585033056118569 0 0.64278761758704617 -0.76604443648966558 1 0 0 1 I I -0.70710678118654746 0.70710678118654746 1 forward I I I I #
loop $-1 $-1 $250 $63 #
coedge $-1 $158 $158 $251 $252 reversed $99 $-1 #
face $-1 $-1 $253 $51 $-1 $254 forward single #
loop $-1 $255 $256 $101 #
cone-surface $-1 57.70207403732654 -22.714865946773685 6.7585033056118569 0 0.64278761758704617 -0.76604443648966558 1 0 0 1 I I -0.70710678118654746 0.70710678118654746 1 forward I I I I #
loop $-1 $-1 $257 $64 #
coedge $-1 $163 $163 $258 $259 reversed $102 $-1 #
face $-1 $260 $261 $39 $-1 $262 reversed single #
loop $-1 $-1 $263 $104 #
plane-surface $-1 0 -30.691344832334284 0 0 1 0 0 0 1 forward_v I I I I #
coedge $-1 $264 $265 $266 $267 forward $105 $-1 #
coedge $-1 $268 $107 $269 $270 forward $66 $-1 #
coedge $-1 $107 $268 $271 $272 forward $66 $-1 #
coedge $-1 $273 $274 $107 $171 reversed $275 $-1 #
edge $-1 $276 -30.691344832334284 $277 30.691344832334284 $170 $278 forward 7 unknown #
face $-1 $279 $280 $40 $-1 $281 forward single #
loop $-1 $-1 $178 $108 #
plane-surface $-1 0 30.691344832334284 0 0 -1 0 0 0 -1 forward_v I I I I #
coedge $-1 $282 $283 $284 $285 reversed $109 $-1 #
coedge $-1 $177 $111 $286 $287 reversed $69 $-1 #
coedge $-1 $111 $176 $282 $288 reversed $69 $-1 #
coedge $-1 $284 $289 $111 $179 forward $173 $-1 #
edge $-1 $290 55.868154822717102 $291 65.176240496195717 $178 $292 forward 7 unknown #
loop $-1 $-1 $185 $112 #
plane-surface $-1 -54.034447919153031 -16.330523082056757 44.456462510503357 0 0.64278761758704617 0.76604443648966558 1 0 0 forward_v I I I I #
loop $-1 $-1 $293 $71 #
coedge $-1 $183 $183 $184 $294 reversed $113 $-1 #
coedge $-1 $184 $184 $183 $294 forward $115 $-1 #
coedge $-1 $185 $185 $116 $186 forward $180 $-1 #
edge $-1 $295 0 $295 6.2831853071796004 $185 $296 forward 7 unknown #
loop $-1 $-1 $192 $117 #
plane-surface $-1 -54.034447919153031 -16.330523082056757 44.456462510503357 0 0.64278761758704617 0.76604443648966558 1 0 0 forward_v I I I I #
loop $-1 $-1 $297 $74 #
coedge $-1 $190 $190 $191 $298 reversed $118 $-1 #
coedge $-1 $191 $191 $190 $298 forward $120 $-1 #
coedge $-1 $192 $192 $121 $193 forward $187 $-1 #
edge $-1 $299 0 $299 6.2831853071796004 $192 $300 forward 7 unknown #
face $-1 $301 $302 $43 $-1 $303 reversed single #
loop $-1 $-1 $304 $122 #
plane-surface $-1 0 0 14.308515333344676 0 0 1 1 0 0 forward_v I I I I #
coedge $-1 $305 $306 $307 $308 reversed $123 $-1 #
coedge $-1 $309 $125 $310 $311 reversed $78 $-1 #
coedge $-1 $125 $309 $305 $312 forward $78 $-1 #
coedge $-1 $307 $313 $125 $201 forward $314 $-1 #
edge $-1 $315 -35.575018235314687 $316 -18.459429683838351 $200 $317 forward 7 unknown #
loop $-1 $-1 $207 $126 #
plane-surface $-1 54.034447919153038 -16.330523082056757 44.456462510503357 0 0.64278761758704617 0.76604443648966558 1 0 0 forward_v I I I I #
loop $-1 $-1 $318 $80 #
coedge $-1 $205 $205 $206 $319 reversed $127 $-1 #
coedge $-1 $206 $206 $205 $319 forward $129 $-1 #
coedge $-1 $207 $207 $130 $208 forward $202 $-1 #
edge $-1 $320 0 $320 6.2831853071796004 $207 $321 forward 7 unknown #
loop $-1 $-1 $214 $131 #
plane-surface $-1 54.034447919153038 -16.330523082056757 44.456462510503357 0 0.64278761758704617 0.76604443648966558 1 0 0 forward_v I I I I #
loop $-1 $-1 $322 $83 #
coedge $-1 $212 $212 $213 $323 reversed $132 $-1 #
coedge $-1 $213 $213 $212 $323 forward $134 $-1 #
coedge $-1 $214 $214 $135 $215 forward $209 $-1 #
edge $-1 $324 0 $324 6.2831853071796004 $214 $325 forward 7 unknown #
face $-1 $326 $327 $46 $-1 $328 reversed single #
loop $-1 $-1 $329 $136 #
plane-surface $-1 -62.592242194891199 0 0 1 0 0 0 0 -1 forward_v I I I I #
coedge $-1 $330 $331 $332 $333 reversed $137 $-1 #
coedge $-1 $221 $139 $334 $335 reversed $87 $-1 #
coedge $-1 $139 $220 $330 $336 reversed $87 $-1 #
coedge $-1 $332 $337 $139 $223 forward $338 $-1 #
edge $-1 $339 24.887845823718354 $340 35.980790132919928 $222 $341 forward 7 unknown #
loop $-1 $-1 $229 $140 #
plane-surface $-1 -54.034447919153031 -30.691344832334281 5.0004296598660574 0 -0.64278761758704617 0.76604443648966558 1 0 0 forward_v I I I I #
loop $-1 $-1 $342 $89 #
coedge $-1 $227 $227 $228 $343 reversed $141 $-1 #
coedge $-1 $228 $228 $227 $343 forward $143 $-1 #
coedge $-1 $229 $229 $144 $230 forward $224 $-1 #
edge $-1 $344 0 $344 6.2831853071796004 $229 $345 forward 7 unknown #
loop $-1 $-1 $236 $145 #
plane-surface $-1 -54.034447919153031 -30.691344832334281 5.0004296598660574 0 -0.64278761758704617 0.76604443648966558 1 0 0 forward_v I I I I #
loop $-1 $-1 $346 $92 #
coedge $-1 $234 $234 $235 $347 reversed $146 $-1 #
coedge $-1 $235 $235 $234 $347 forward $148 $-1 #
coedge $-1 $236 $236 $149 $237 forward $231 $-1 #
edge $-1 $348 0 $348 6.2831853071796004 $236 $349 forward 7 unknown #
face $-1 $350 $351 $49 $-1 $352 reversed single #
loop $-1 $-1 $353 $150 #
plane-surface $-1 0 -30.691344832334284 0 0 1 0 0 0 1 forward_v I I I I #
coedge $-1 $354 $355 $356 $357 reversed $151 $-1 #
coedge $-1 $358 $153 $359 $360 reversed $96 $-1 #
coedge $-1 $153 $358 $354 $361 forward $96 $-1 #
coedge $-1 $356 $362 $153 $245 forward $363 $-1 #
edge $-1 $364 -35.575018235314687 $365 -18.459429683838351 $244 $366 forward 7 unknown #
loop $-1 $-1 $251 $154 #
plane-surface $-1 54.034447919153038 -30.691344832334281 5.0004296598660574 0 -0.64278761758704617 0.76604443648966558 1 0 0 forward_v I I I I #
loop $-1 $-1 $367 $98 #
coedge $-1 $249 $249 $250 $368 reversed $155 $-1 #
coedge $-1 $250 $250 $249 $368 forward $157 $-1 #
coedge $-1 $251 $251 $158 $252 forward $246 $-1 #
edge $-1 $369 0 $369 6.2831853071796004 $251 $370 forward 7 unknown #
loop $-1 $-1 $258 $159 #
plane-surface $-1 54.034447919153038 -30.691344832334281 5.0004296598660574 0 -0.64278761758704617 0.76604443648966558 1 0 0 forward_v I I I I #
loop $-1 $-1 $371 $101 #
coedge $-1 $256 $256 $257 $372 reversed $160 $-1 #
coedge $-1 $257 $257 $256 $372 forward $162 $-1 #
coedge $-1 $258 $258 $163 $259 forward $253 $-1 #
edge $-1 $373 0 $373 6.2831853071796004 $258 $374 forward 7 unknown #
face $-1 $375 $376 $39 $-1 $377 reversed single #
loop $-1 $-1 $378 $164 #
plane-surface $-1 -62.592242194891199 0 0 1 0 0 0 0 -1 forward_v I I I I #
coedge $-1 $379 $271 $380 $381 forward $165 $-1 #
coedge $-1 $382 $167 $379 $383 forward $105 $-1 #
coedge $-1 $167 $382 $384 $385 forward $105 $-1 #
coedge $-1 $274 $273 $167 $267 reversed $275 $-1 #
edge $-1 $386 -30.691344832334284 $387 30.691344832334284 $266 $388 forward 7 unknown #
coedge $-1 $169 $168 $389 $390 forward $66 $-1 #
coedge $-1 $391 $392 $168 $270 reversed $376 $-1 #
edge $-1 $277 -62.592242194891199 $393 62.592242194891199 $269 $394 forward 7 unknown #
coedge $-1 $263 $395 $169 $272 reversed $165 $-1 #
edge $-1 $396 -62.592242194891199 $276 62.592242194891199 $271 $397 forward 7 unknown #
coedge $-1 $266 $170 $395 $398 forward $275 $-1 #
coedge $-1 $170 $266 $391 $399 reversed $275 $-1 #
loop $-1 $-1 $273 $375 #
vertex $-1 $171 $400 #
vertex $-1 $171 $401 #
straight-curve $-1 62.592242194891199 0 14.308515333344676 0 1 0 I I #
face $-1 $-1 $402 $40 $-1 $403 reversed single #
loop $-1 $-1 $286 $172 #
plane-surface $-1 0 0 14.308515333344676 0 0 1 1 0 0 forward_v I I I I #
coedge $-1 $404 $175 $177 $288 forward $109 $-1 #
coedge $-1 $175 $404 $405 $406 reversed $109 $-1 #
coedge $-1 $407 $178 $175 $285 forward $173 $-1 #
edge $-1 $291 18.459429683838348 $408 35.575018235314687 $284 $409 forward 7 unknown #
coedge $-1 $410 $411 $176 $287 forward $280 $-1 #
edge $-1 $412 -12.469856175724402 $290 -1.3769118665228355 $286 $413 forward 7 unknown #
edge $-1 $291 -61.382689664668547 $412 -46.901879177963551 $177 $414 forward 7 unknown #
coedge $-1 $178 $407 $410 $415 reversed $173 $-1 #
vertex $-1 $415 $416 #
vertex $-1 $179 $417 #
straight-curve $-1 -45.476653643414863 30.691344832334284 70.176670156061775 0 0 -1 I I #
coedge $-1 $293 $293 $-1 $418 reversed $182 $-1 #
edge $-1 $419 0 $419 6.2831853071796004 $183 $420 forward 7 unknown #
vertex $-1 $186 $421 #
ellipse-curve $-1 -57.702074037326533 25.144872677733492 9.6544724966053668 0 0.64278761758704617 0.76604443648966558 2 0 0 1 I I #
coedge $-1 $297 $297 $-1 $422 reversed $189 $-1 #
edge $-1 $423 0 $423 6.2831853071796004 $190 $424 forward 7 unknown #
vertex $-1 $193 $425 #
ellipse-curve $-1 -50.36682180097953 25.144872677733492 9.6544724966053668 0 0.64278761758704617 0.76604443648966558 2 0 0 1 I I #
face $-1 $-1 $314 $43 $-1 $426 reversed single #
loop $-1 $-1 $310 $194 #
plane-surface $-1 62.592242194891199 0 0 -1 0 0 0 0 1 forward_v I I I I #
coedge $-1 $427 $428 $306 $429 forward $195 $-1 #
coedge $-1 $306 $197 $199 $312 reversed $123 $-1 #
coedge $-1 $197 $305 $304 $429 reversed $123 $-1 #
coedge $-1 $430 $200 $197 $308 forward $314 $-1 #
edge $-1 $316 -65.176240496195717 $431 -55.868154822717102 $307 $432 forward 7 unknown #
coedge $-1 $199 $198 $427 $433 reversed $78 $-1 #
coedge $-1 $434 $435 $198 $311 forward $302 $-1 #
edge $-1 $436 26.358894190238594 $315 40.839704676943583 $310 $437 forward 7 unknown #
edge $-1 $438 46.901879177963551 $316 61.382689664668547 $305 $439 forward 7 unknown #
coedge $-1 $200 $430 $434 $440 forward $314 $-1 #
loop $-1 $-1 $307 $301 #
vertex $-1 $311 $441 #
vertex $-1 $201 $442 #
straight-curve $-1 27.017223959576519 30.691344832334284 5.0004296598660645 -1 0 0 I I #
coedge $-1 $318 $318 $-1 $443 reversed $204 $-1 #
edge $-1 $444 0 $444 6.2831853071796004 $205 $445 forward 7 unknown #
vertex $-1 $208 $446 #
ellipse-curve $-1 50.366821800979537 25.144872677733492 9.6544724966053668 0 0.64278761758704617 0.76604443648966558 2 0 0 1 I I #
coedge $-1 $322 $322 $-1 $447 reversed $211 $-1 #
edge $-1 $448 0 $448 6.2831853071796004 $212 $449 forward 7 unknown #
vertex $-1 $215 $450 #
ellipse-curve $-1 57.70207403732654 25.144872677733492 9.6544724966053668 0 0.64278761758704617 0.76604443648966558 2 0 0 1 I I #
face $-1 $-1 $338 $46 $-1 $451 forward single #
loop $-1 $-1 $452 $216 #
plane-surface $-1 0 -30.691344832334284 0 0 1 0 0 0 1 forward_v I I I I #
coedge $-1 $453 $454 $331 $455 forward $217 $-1 #
coedge $-1 $456 $219 $221 $336 forward $137 $-1 #
coedge $-1 $219 $456 $329 $455 reversed $137 $-1 #
coedge $-1 $457 $222 $219 $333 forward $338 $-1 #
edge $-1 $340 18.459429683838348 $458 35.575018235314687 $332 $459 forward 7 unknown #
coedge $-1 $460 $452 $220 $335 forward $327 $-1 #
edge $-1 $461 -45.448224070877068 $339 -36.140138397398445 $334 $462 forward 7 unknown #
edge $-1 $340 -14.480810486704998 $461 4.4342668192596698e-015 $221 $463 forward 7 unknown #
coedge $-1 $222 $457 $460 $464 forward $338 $-1 #
loop $-1 $-1 $332 $326 #
vertex $-1 $335 $465 #
vertex $-1 $223 $466 #
straight-curve $-1 -45.476653643414863 -55.579190656052639 14.30851533334468 0 1 0 I I #
coedge $-1 $342 $342 $-1 $467 reversed $226 $-1 #
edge $-1 $468 0 $468 6.2831853071796004 $227 $469 forward 7 unknown #
vertex $-1 $230 $470 #
ellipse-curve $-1 -57.702074037326533 -25.144872677733495 9.6544724966053668 0 -0.64278761758704617 0.76604443648966558 2 0 0 1 I I #
coedge $-1 $346 $346 $-1 $471 reversed $233 $-1 #
edge $-1 $472 0 $472 6.2831853071796004 $234 $473 forward 7 unknown #
vertex $-1 $237 $474 #
ellipse-curve $-1 -50.36682180097953 -25.144872677733495 9.6544724966053668 0 -0.64278761758704617 0.76604443648966558 2 0 0 1 I I #
face $-1 $-1 $363 $49 $-1 $475 forward single #
loop $-1 $-1 $359 $238 #
plane-surface $-1 62.592242194891199 0 0 -1 0 0 0 0 1 forward_v I I I I #
coedge $-1 $476 $477 $355 $478 forward $239 $-1 #
coedge $-1 $355 $241 $243 $361 reversed $151 $-1 #
coedge $-1 $241 $354 $353 $478 reversed $151 $-1 #
coedge $-1 $479 $244 $241 $357 forward $363 $-1 #
edge $-1 $365 -35.980790132919928 $480 -24.887845823718354 $356 $481 forward 7 unknown #
coedge $-1 $243 $242 $476 $482 reversed $96 $-1 #
coedge $-1 $483 $484 $242 $360 forward $351 $-1 #
edge $-1 $485 -10.148359844609313 $364 4.3324506420956892 $359 $486 forward 7 unknown #
edge $-1 $487 -4.4342668192596698e-015 $365 14.480810486704998 $354 $488 forward 7 unknown #
coedge $-1 $244 $479 $483 $489 forward $363 $-1 #
loop $-1 $-1 $356 $350 #
vertex $-1 $360 $490 #
vertex $-1 $245 $491 #
straight-curve $-1 27.017223959576519 -19.59840052313271 14.308515333344676 -1 0 0 I I #
coedge $-1 $367 $367 $-1 $492 reversed $248 $-1 #
edge $-1 $493 0 $493 6.2831853071796004 $249 $494 forward 7 unknown #
vertex $-1 $252 $495 #
ellipse-curve $-1 50.366821800979537 -25.144872677733495 9.6544724966053668 0 -0.64278761758704617 0.76604443648966558 2 0 0 1 I I #
coedge $-1 $371 $371 $-1 $496 reversed $255 $-1 #
edge $-1 $497 0 $497 6.2831853071796004 $256 $498 forward 7 unknown #
vertex $-1 $259 $499 #
ellipse-curve $-1 57.70207403732654 -25.144872677733495 9.6544724966053668 0 -0.64278761758704617 0.76604443648966558 2 0 0 1 I I #
face $-1 $-1 $275 $39 $-1 $500 reversed single #
loop $-1 $-1 $391 $260 #
plane-surface $-1 0 30.691344832334284 0 0 -1 0 0 0 -1 forward_v I I I I #
coedge $-1 $501 $389 $392 $502 forward $261 $-1 #
coedge $-1 $395 $263 $264 $383 reversed $165 $-1 #
coedge $-1 $389 $501 $263 $381 reversed $261 $-1 #
edge $-1 $396 -14.308515333344676 $503 14.308515333344676 $380 $504 forward 7 unknown #
coedge $-1 $265 $264 $501 $505 forward $105 $-1 #
edge $-1 $387 -62.592242194891199 $503 62.592242194891199 $379 $506 forward 7 unknown #
coedge $-1 $392 $391 $265 $385 reversed $376 $-1 #
edge $-1 $507 -62.592242194891199 $386 62.592242194891199 $384 $508 forward 7 unknown #
vertex $-1 $267 $509 #
vertex $-1 $398 $510 #
straight-curve $-1 62.592242194891199 0 -14.308515333344676 0 -1 0 I I #
coedge $-1 $378 $380 $268 $390 reversed $261 $-1 #
edge $-1 $393 -30.691344832334284 $396 30.691344832334284 $389 $511 forward 7 unknown #
coedge $-1 $384 $269 $274 $399 forward $376 $-1 #
coedge $-1 $269 $384 $378 $502 reversed $376 $-1 #
vertex $-1 $270 $512 #
straight-curve $-1 0 30.691344832334284 14.308515333344676 -1 0 0 I I #
coedge $-1 $271 $379 $273 $398 reversed $165 $-1 #
vertex $-1 $390 $513 #
straight-curve $-1 0 -30.691344832334284 14.308515333344676 1 0 0 I I #
edge $-1 $276 -14.308515333344676 $387 14.308515333344676 $273 $514 forward 7 unknown #
edge $-1 $277 -14.308515333344676 $386 14.308515333344676 $274 $515 forward 7 unknown #
point $-1 62.592242194891199 -30.691344832334284 14.308515333344676 #
point $-1 62.592242194891199 30.691344832334284 14.308515333344676 #
loop $-1 $-1 $405 $279 #
plane-surface $-1 -62.592242194891199 0 0 1 0 0 0 0 -1 forward_v I I I I #
coedge $-1 $283 $282 $411 $516 reversed $109 $-1 #
coedge $-1 $517 $518 $283 $406 forward $402 $-1 #
edge $-1 $408 -40.839704676943583 $519 -26.358894190238594 $405 $520 forward 7 unknown #
coedge $-1 $289 $284 $518 $521 reversed $173 $-1 #
vertex $-1 $285 $522 #
straight-curve $-1 -27.017223959576516 30.691344832334284 5.0004296598660645 -1 0 0 I I #
coedge $-1 $523 $286 $289 $415 forward $280 $-1 #
coedge $-1 $286 $523 $404 $516 forward $280 $-1 #
vertex $-1 $287 $524 #
straight-curve $-1 -45.476653643414863 32.06825669885712 14.308515333344673 0 1 0 I I #
straight-curve $-1 -45.476653643414863 -16.330523082056757 44.456462510503357 0 -0.76604443648966558 0.64278761758704617 I I #
edge $-1 $290 45.476653643414863 $525 62.592242194891199 $289 $526 forward 7 unknown #
point $-1 -45.476653643414863 30.691344832334284 14.308515333344676 #
point $-1 -45.476653643414863 30.691344832334281 5.0004296598660574 #
edge $-1 $527 1 $527 0 $293 $-1 forward 7 unknown #
vertex $-1 $294 $528 #
ellipse-curve $-1 -57.702074037326533 23.357653564360728 7.5245477421015226 0 0.64278761758704617 0.76604443648966558 2 0 0 1 I I #
point $-1 -55.702074037326533 25.144872677733492 9.6544724966053668 #
edge $-1 $529 1 $529 0 $297 $-1 forward 7 unknown #
vertex $-1 $298 $530 #
ellipse-curve $-1 -50.36682180097953 23.357653564360728 7.5245477421015226 0 0.64278761758704617 0.76604443648966558 2 0 0 1 I I #
point $-1 -48.36682180097953 25.144872677733492 9.6544724966053668 #
plane-surface $-1 0 30.691344832334284 0 0 -1 0 0 0 -1 forward_v I I I I #
coedge $-1 $531 $304 $309 $433 forward $195 $-1 #
coedge $-1 $304 $531 $430 $532 forward $195 $-1 #
edge $-1 $431 1.3769118665228355 $438 12.469856175724402 $304 $533 forward 7 unknown #
coedge $-1 $313 $307 $428 $532 reversed $314 $-1 #
vertex $-1 $308 $534 #
straight-curve $-1 45.47665364341487 30.691344832334284 70.176670156061775 0 0 1 I I #
edge $-1 $438 18.459429683838351 $436 35.575018235314687 $427 $535 forward 7 unknown #
coedge $-1 $435 $310 $313 $440 reversed $302 $-1 #
coedge $-1 $310 $434 $531 $536 reversed $302 $-1 #
vertex $-1 $536 $537 #
straight-curve $-1 62.592242194891199 -0.59368372331932573 31.251686132117172 0 0.76604443648966558 -0.64278761758704617 I I #
vertex $-1 $433 $538 #
straight-curve $-1 45.47665364341487 -16.330523082056757 44.456462510503357 0 0.76604443648966558 -0.64278761758704617 I I #
edge $-1 $539 -14.308515333344676 $315 -5.0004296598660574 $434 $540 forward 7 unknown #
point $-1 62.592242194891206 30.691344832334281 5.0004296598660574 #
point $-1 45.47665364341487 30.691344832334281 5.0004296598660574 #
edge $-1 $541 1 $541 0 $318 $-1 forward 7 unknown #
vertex $-1 $319 $542 #
ellipse-curve $-1 50.366821800979537 23.357653564360728 7.5245477421015226 0 0.64278761758704617 0.76604443648966558 2 0 0 1 I I #
point $-1 52.366821800979537 25.144872677733492 9.6544724966053668 #
edge $-1 $543 1 $543 0 $322 $-1 forward 7 unknown #
vertex $-1 $323 $544 #
ellipse-curve $-1 57.70207403732654 23.357653564360728 7.5245477421015226 0 0.64278761758704617 0.76604443648966558 2 0 0 1 I I #
point $-1 59.70207403732654 25.144872677733492 9.6544724966053668 #
plane-surface $-1 0 0 14.308515333344676 0 0 1 1 0 0 forward_v I I I I #
coedge $-1 $334 $545 $456 $546 forward $327 $-1 #
coedge $-1 $454 $329 $545 $547 reversed $217 $-1 #
coedge $-1 $329 $453 $457 $548 reversed $217 $-1 #
edge $-1 $458 -4.3324506420956892 $549 10.148359844609313 $329 $550 forward 7 unknown #
coedge $-1 $331 $330 $452 $546 reversed $137 $-1 #
coedge $-1 $337 $332 $454 $548 forward $338 $-1 #
vertex $-1 $548 $551 #
straight-curve $-1 -27.017223959576516 -19.59840052313271 14.308515333344676 -1 0 0 I I #
coedge $-1 $545 $334 $337 $464 reversed $327 $-1 #
vertex $-1 $335 $552 #
straight-curve $-1 -45.476653643414863 -30.691344832334281 50.448653730743125 0 0 1 I I #
straight-curve $-1 -45.476653643414863 -30.691344832334281 5.0004296598660574 0 -0.76604443648966558 -0.64278761758704617 I I #
edge $-1 $553 -62.592242194891199 $339 -45.476653643414863 $460 $554 forward 7 unknown #
point $-1 -45.476653643414863 -30.691344832334284 14.308515333344676 #
point $-1 -45.476653643414863 -19.59840052313271 14.308515333344676 #
edge $-1 $555 1 $555 0 $342 $-1 forward 7 unknown #
vertex $-1 $343 $556 #
ellipse-curve $-1 -57.702074037326533 -23.357653564360731 7.5245477421015226 0 -0.64278761758704617 0.76604443648966558 2 0 0 1 I I #
point $-1 -55.702074037326533 -25.144872677733495 9.6544724966053668 #
edge $-1 $557 1 $557 0 $346 $-1 forward 7 unknown #
vertex $-1 $347 $558 #
ellipse-curve $-1 -50.36682180097953 -23.357653564360731 7.5245477421015226 0 -0.64278761758704617 0.76604443648966558 2 0 0 1 I I #
point $-1 -48.36682180097953 -25.144872677733495 9.6544724966053668 #
plane-surface $-1 0 0 14.308515333344676 0 0 1 1 0 0 forward_v I I I I #
coedge $-1 $559 $353 $358 $482 forward $239 $-1 #
coedge $-1 $353 $559 $479 $560 reversed $239 $-1 #
edge $-1 $480 36.140138397398445 $487 45.448224070877068 $353 $561 forward 7 unknown #
coedge $-1 $362 $356 $477 $560 forward $363 $-1 #
vertex $-1 $560 $562 #
straight-curve $-1 45.47665364341487 -55.579190656052639 14.30851533334468 0 -1 0 I I #
edge $-1 $487 18.459429683838351 $485 35.575018235314687 $476 $563 forward 7 unknown #
coedge $-1 $484 $359 $362 $489 reversed $351 $-1 #
coedge $-1 $359 $483 $559 $564 forward $351 $-1 #
vertex $-1 $360 $565 #
straight-curve $-1 62.592242194891199 -22.917250233876192 11.52366970679852 0 0.76604443648966558 0.64278761758704617 I I #
vertex $-1 $482 $566 #
straight-curve $-1 45.47665364341487 -30.691344832334281 5.0004296598660574 0 0.76604443648966558 0.64278761758704617 I I #
edge $-1 $567 -30.691344832334284 $364 -19.59840052313271 $483 $568 forward 7 unknown #
point $-1 62.592242194891206 -19.59840052313271 14.308515333344676 #
point $-1 45.47665364341487 -19.59840052313271 14.308515333344676 #
edge $-1 $569 1 $569 0 $367 $-1 forward 7 unknown #
vertex $-1 $368 $570 #
ellipse-curve $-1 50.366821800979537 -23.357653564360731 7.5245477421015226 0 -0.64278761758704617 0.76604443648966558 2 0 0 1 I I #
point $-1 52.366821800979537 -25.144872677733495 9.6544724966053668 #
edge $-1 $571 1 $571 0 $371 $-1 forward 7 unknown #
vertex $-1 $372 $572 #
ellipse-curve $-1 57.70207403732654 -23.357653564360731 7.5245477421015226 0 -0.64278761758704617 0.76604443648966558 2 0 0 1 I I #
point $-1 59.70207403732654 -25.144872677733495 9.6544724966053668 #
plane-surface $-1 62.592242194891199 0 0 -1 0 0 0 0 1 forward_v I I I I #
coedge $-1 $380 $378 $382 $505 reversed $261 $-1 #
edge $-1 $393 -14.308515333344676 $507 14.308515333344676 $392 $573 forward 7 unknown #
vertex $-1 $505 $574 #
straight-curve $-1 -62.592242194891199 -30.691344832334284 0 0 0 -1 I I #
edge $-1 $503 -30.691344832334284 $507 30.691344832334284 $501 $575 forward 7 unknown #
straight-curve $-1 0 -30.691344832334284 -14.308515333344676 -1 0 0 I I #
vertex $-1 $385 $576 #
straight-curve $-1 0 30.691344832334284 -14.308515333344676 1 0 0 I I #
point $-1 62.592242194891199 30.691344832334284 -14.308515333344676 #
point $-1 62.592242194891199 -30.691344832334284 -14.308515333344676 #
straight-curve $-1 -62.592242194891199 0 14.308515333344676 0 -1 0 I I #
point $-1 -62.592242194891199 30.691344832334284 14.308515333344676 #
point $-1 -62.592242194891199 -30.691344832334284 14.308515333344676 #
straight-curve $-1 62.592242194891199 -30.691344832334284 0 0 0 -1 I I #
straight-curve $-1 62.592242194891199 30.691344832334284 0 0 0 -1 I I #
edge $-1 $519 -35.575018235314687 $412 -18.459429683838348 $411 $577 forward 7 unknown #
coedge $-1 $518 $405 $523 $578 reversed $402 $-1 #
coedge $-1 $405 $517 $407 $521 forward $402 $-1 #
vertex $-1 $406 $579 #
straight-curve $-1 -62.592242194891199 -0.59368372331932573 31.251686132117172 0 -0.76604443648966558 0.64278761758704617 I I #
edge $-1 $525 -14.308515333344676 $408 -5.0004296598660609 $407 $580 forward 7 unknown #
point $-1 -62.592242194891199 30.691344832334284 5.0004296598660609 #
coedge $-1 $411 $410 $517 $578 forward $280 $-1 #
point $-1 -45.476653643414863 19.598400523132717 14.308515333344676 #
vertex $-1 $415 $581 #
straight-curve $-1 0 30.691344832334284 14.308515333344676 -1 0 0 I I #
vertex $-1 $418 $582 #
point $-1 -55.702074037326533 23.357653564360728 7.5245477421015226 #
vertex $-1 $422 $583 #
point $-1 -48.36682180097953 23.357653564360728 7.5245477421015226 #
coedge $-1 $428 $427 $435 $536 forward $195 $-1 #
edge $-1 $539 -62.592242194891199 $431 -45.47665364341487 $430 $584 forward 7 unknown #
straight-curve $-1 45.47665364341487 32.06825669885712 14.308515333344673 0 -1 0 I I #
point $-1 45.47665364341487 30.691344832334284 14.308515333344676 #
straight-curve $-1 27.017223959576519 19.59840052313271 14.308515333344676 1 0 0 I I #
edge $-1 $436 19.598400523132717 $539 30.691344832334284 $435 $585 forward 7 unknown #
point $-1 62.592242194891206 19.598400523132717 14.308515333344676 #
point $-1 45.47665364341487 19.598400523132717 14.308515333344676 #
vertex $-1 $536 $586 #
straight-curve $-1 62.592242194891199 30.691344832334284 0 0 0 -1 I I #
vertex $-1 $443 $587 #
point $-1 52.366821800979537 23.357653564360728 7.5245477421015226 #
vertex $-1 $447 $588 #
point $-1 59.70207403732654 23.357653564360728 7.5245477421015226 #
coedge $-1 $452 $460 $453 $547 forward $327 $-1 #
edge $-1 $549 -35.575018235314687 $461 -18.459429683838348 $452 $589 forward 7 unknown #
edge $-1 $553 -14.308515333344676 $549 -5.0004296598660547 $453 $590 forward 7 unknown #
edge $-1 $458 19.59840052313271 $553 30.691344832334284 $454 $591 forward 7 unknown #
vertex $-1 $546 $592 #
straight-curve $-1 -62.592242194891199 -22.917250233876192 11.52366970679852 0 -0.76604443648966558 -0.64278761758704617 I I #
point $-1 -62.592242194891199 -19.59840052313271 14.308515333344676 #
point $-1 -45.476653643414863 -30.691344832334284 5.0004296598660547 #
vertex $-1 $548 $593 #
straight-curve $-1 0 -30.691344832334284 14.308515333344676 1 0 0 I I #
vertex $-1 $467 $594 #
point $-1 -55.702074037326533 -23.357653564360731 7.5245477421015226 #
vertex $-1 $471 $595 #
point $-1 -48.36682180097953 -23.357653564360731 7.5245477421015226 #
coedge $-1 $477 $476 $484 $564 reversed $239 $-1 #
edge $-1 $480 45.47665364341487 $567 62.592242194891199 $477 $596 forward 7 unknown #
straight-curve $-1 45.47665364341487 -30.691344832334281 50.448653730743125 0 0 -1 I I #
point $-1 45.47665364341487 -30.691344832334284 14.308515333344676 #
straight-curve $-1 27.017223959576519 -30.691344832334284 5.0004296598660538 1 0 0 I I #
edge $-1 $567 -14.308515333344676 $485 -5.0004296598660547 $484 $597 forward 7 unknown #
point $-1 62.592242194891206 -30.691344832334284 5.0004296598660547 #
point $-1 45.47665364341487 -30.691344832334284 5.0004296598660547 #
vertex $-1 $489 $598 #
straight-curve $-1 62.592242194891199 0 14.308515333344676 0 1 0 I I #
vertex $-1 $492 $599 #
point $-1 52.366821800979537 -23.357653564360731 7.5245477421015226 #
vertex $-1 $496 $600 #
point $-1 59.70207403732654 -23.357653564360731 7.5245477421015226 #
straight-curve $-1 -62.592242194891199 30.691344832334284 0 0 0 -1 I I #
point $-1 -62.592242194891199 -30.691344832334284 -14.308515333344676 #
straight-curve $-1 -62.592242194891199 0 -14.308515333344676 0 1 0 I I #
point $-1 -62.592242194891199 30.691344832334284 -14.308515333344676 #
straight-curve $-1 -27.017223959576516 19.59840052313271 14.308515333344676 1 0 0 I I #
edge $-1 $525 -30.691344832334284 $519 -19.598400523132717 $517 $601 forward 7 unknown #
point $-1 -62.592242194891199 19.598400523132717 14.308515333344676 #
straight-curve $-1 -62.592242194891199 30.691344832334284 0 0 0 -1 I I #
point $-1 -62.592242194891199 30.691344832334284 14.308515333344676 #
point $-1 -57.702074037326533 22.072078329186635 5.9924588691221912 #
point $-1 -50.36682180097953 22.072078329186635 5.9924588691221912 #
straight-curve $-1 0 30.691344832334284 14.308515333344676 -1 0 0 I I #
straight-curve $-1 62.592242194891199 0 14.308515333344676 0 1 0 I I #
point $-1 62.592242194891199 30.691344832334284 14.308515333344676 #
point $-1 50.366821800979537 22.072078329186635 5.9924588691221912 #
point $-1 57.70207403732654 22.072078329186635 5.9924588691221912 #
straight-curve $-1 -27.017223959576516 -30.691344832334284 5.0004296598660538 1 0 0 I I #
straight-curve $-1 -62.592242194891199 -30.691344832334284 0 0 0 -1 I I #
straight-curve $-1 -62.592242194891199 0 14.308515333344676 0 -1 0 I I #
point $-1 -62.592242194891199 -30.691344832334284 5.0004296598660547 #
point $-1 -62.592242194891199 -30.691344832334284 14.308515333344676 #
point $-1 -57.702074037326533 -22.072078329186638 5.9924588691221912 #
point $-1 -50.36682180097953 -22.072078329186638 5.9924588691221912 #
straight-curve $-1 0 -30.691344832334284 14.308515333344676 1 0 0 I I #
straight-curve $-1 62.592242194891199 -30.691344832334284 0 0 0 -1 I I #
point $-1 62.592242194891199 -30.691344832334284 14.308515333344676 #
point $-1 50.366821800979537 -22.072078329186638 5.9924588691221912 #
point $-1 57.70207403732654 -22.072078329186638 5.9924588691221912 #
straight-curve $-1 -62.592242194891199 0 14.308515333344676 0 -1 0 I I #
End-of-ACIS-data 