500 0 14 0           
7 Unknown 11 ACIS 5.0 NT 24 Fri Mar 26 16:10:09 1999 
-1 9.9999999999999995e-007 1e-010 
body $-1 $14 $-1 $15 #
body $-1 $16 $-1 $17 #
body $-1 $18 $-1 $19 #
body $-1 $20 $-1 $21 #
body $-1 $22 $-1 $23 #
body $-1 $24 $-1 $25 #
body $-1 $26 $-1 $27 #
body $-1 $28 $-1 $29 #
body $-1 $30 $-1 $31 #
body $-1 $32 $-1 $33 #
body $-1 $34 $-1 $35 #
body $-1 $36 $-1 $37 #
body $-1 $38 $-1 $39 #
body $-1 $40 $-1 $41 #
lump $-1 $-1 $42 $0 #
transform $-1 1 0 0 0 1 0 0 0 1 50.67903683584094 27.427803446630833 12.492721192650732 1 rotate no_reflect no_shear #
lump $-1 $-1 $43 $1 #
transform $-1 1 0 0 0 1 0 0 0 1 50.67903683584094 27.427803446630833 12.492721192650732 1 rotate no_reflect no_shear #
lump $-1 $-1 $44 $2 #
transform $-1 1 0 0 0 1 0 0 0 1 50.67903683584094 27.427803446630833 12.492721192650732 1 rotate no_reflect no_shear #
lump $-1 $-1 $45 $3 #
transform $-1 1 0 0 0 1 0 0 0 1 50.67903683584094 27.427803446630833 12.492721192650732 1 rotate no_reflect no_shear #
lump $-1 $-1 $46 $4 #
transform $-1 1 0 0 0 1 0 0 0 1 50.67903683584094 27.427803446630833 12.492721192650732 1 rotate no_reflect no_shear #
lump $-1 $-1 $47 $5 #
transform $-1 1 0 0 0 1 0 0 0 1 50.67903683584094 27.427803446630833 12.492721192650732 1 rotate no_reflect no_shear #
lump $-1 $-1 $48 $6 #
transform $-1 1 0 0 0 1 0 0 0 1 50.67903683584094 27.427803446630833 12.492721192650732 1 rotate no_reflect no_shear #
lump $-1 $-1 $49 $7 #
transform $-1 1 0 0 0 1 0 0 0 1 50.67903683584094 27.427803446630833 12.492721192650732 1 rotate no_reflect no_shear #
lump $-1 $-1 $50 $8 #
transform $-1 1 0 0 0 1 0 0 0 1 50.67903683584094 27.427803446630833 12.492721192650732 1 rotate no_reflect no_shear #
lump $-1 $-1 $51 $9 #
transform $-1 1 0 0 0 1 0 0 0 1 50.67903683584094 27.427803446630833 12.492721192650732 1 rotate no_reflect no_shear #
lump $-1 $-1 $52 $10 #
transform $-1 1 0 0 0 1 0 0 0 1 50.67903683584094 27.427803446630833 12.492721192650732 1 rotate no_reflect no_shear #
lump $-1 $-1 $53 $11 #
transform $-1 1 0 0 0 1 0 0 0 1 50.67903683584094 27.427803446630833 12.492721192650732 1 rotate no_reflect no_shear #
lump $-1 $-1 $54 $12 #
transform $-1 1 0 0 0 1 0 0 0 1 50.67903683584094 27.427803446630833 12.492721192650732 1 rotate no_reflect no_shear #
lump $-1 $-1 $55 $13 #
transform $-1 1 0 0 0 1 0 0 0 1 50.67903683584094 27.427803446630833 12.492721192650732 1 rotate no_reflect no_shear #
shell $-1 $-1 $-1 $56 $-1 $14 #
shell $-1 $-1 $-1 $57 $-1 $16 #
shell $-1 $-1 $-1 $58 $-1 $18 #
shell $-1 $-1 $-1 $59 $-1 $20 #
shell $-1 $-1 $-1 $60 $-1 $22 #
shell $-1 $-1 $-1 $61 $-1 $24 #
shell $-1 $-1 $-1 $62 $-1 $26 #
shell $-1 $-1 $-1 $63 $-1 $28 #
shell $-1 $-1 $-1 $64 $-1 $30 #
shell $-1 $-1 $-1 $65 $-1 $32 #
shell $-1 $-1 $-1 $66 $-1 $34 #
shell $-1 $-1 $-1 $67 $-1 $36 #
shell $-1 $-1 $-1 $68 $-1 $38 #
shell $-1 $-1 $-1 $69 $-1 $40 #
face $-1 $70 $71 $42 $-1 $72 forward single #
face $-1 $73 $74 $43 $-1 $75 forward single #
face $-1 $76 $77 $44 $-1 $78 forward single #
face $-1 $79 $80 $45 $-1 $81 reversed single #
face $-1 $82 $83 $46 $-1 $84 forward single #
face $-1 $85 $86 $47 $-1 $87 forward single #
face $-1 $88 $89 $48 $-1 $90 forward single #
face $-1 $91 $92 $49 $-1 $93 reversed single #
face $-1 $94 $95 $50 $-1 $96 forward single #
face $-1 $97 $98 $51 $-1 $99 forward single #
face $-1 $100 $101 $52 $-1 $102 forward single #
face $-1 $103 $104 $53 $-1 $105 reversed single #
face $-1 $106 $107 $54 $-1 $108 forward single #
face $-1 $109 $110 $55 $-1 $111 forward single #
face $-1 $112 $113 $42 $-1 $114 reversed single #
loop $-1 $-1 $115 $56 #
plane-surface $-1 0 0 12.492721192650732 0 0 1 1 0 0 forward_v I I I I #
face $-1 $116 $117 $43 $-1 $118 reversed single #
loop $-1 $-1 $119 $57 #
plane-surface $-1 -50.67903683584094 0 0 1 0 0 0 0 -1 forward_v I I I I #
face $-1 $120 $121 $44 $-1 $122 reversed single #
loop $-1 $-1 $123 $58 #
plane-surface $-1 50.67903683584094 0 0 -1 0 0 0 0 1 forward_v I I I I #
face $-1 $124 $125 $45 $-1 $126 reversed single #
loop $-1 $-1 $127 $59 #
plane-surface $-1 -20.170973289370572 -113.38432565720808 55.112601640044957 -1 0 0 0 -0.84804810408105047 0.52991925155115449 forward_v I I I I #
face $-1 $128 $129 $46 $-1 $130 forward single #
loop $-1 $131 $132 $60 #
cone-surface $-1 -32.87174703784774 -21.588495330403724 5.4635042546723165 0 0.84804810408105047 -0.52991925155115449 1.5 0 0 1 I I 0 1 1.5 forward I I I I #
face $-1 $133 $134 $47 $-1 $135 forward single #
loop $-1 $136 $137 $61 #
cone-surface $-1 -28.108956882168801 -21.588495330403724 5.4635042546723165 0 0.84804810408105047 -0.52991925155115449 1.5 0 0 1 I I 0 1 1.5 forward I I I I #
face $-1 $138 $139 $48 $-1 $140 forward single #
loop $-1 $141 $142 $62 #
cone-surface $-1 -23.346166726489862 -21.588495330403724 5.4635042546723165 0 0.84804810408105047 -0.52991925155115449 1.5 0 0 1 I I 0 1 1.5 forward I I I I #
face $-1 $143 $144 $49 $-1 $145 reversed single #
loop $-1 $-1 $146 $63 #
plane-surface $-1 36.04694047496703 -113.38432565720808 55.112601640044957 -1 0 0 0 -0.84804810408105047 0.52991925155115449 forward_v I I I I #
face $-1 $147 $148 $50 $-1 $149 forward single #
loop $-1 $150 $151 $64 #
cone-surface $-1 23.346166726489862 -21.588495330403724 5.4635042546723165 0 0.84804810408105047 -0.52991925155115449 1.5 0 0 1 I I 0 1 1.5 forward I I I I #
face $-1 $152 $153 $51 $-1 $154 forward single #
loop $-1 $155 $156 $65 #
cone-surface $-1 28.108956882168805 -21.588495330403724 5.4635042546723165 0 0.84804810408105047 -0.52991925155115449 1.5 0 0 1 I I 0 1 1.5 forward I I I I #
face $-1 $157 $158 $52 $-1 $159 forward single #
loop $-1 $160 $161 $66 #
cone-surface $-1 32.871747037847747 -21.588495330403724 5.4635042546723165 0 0.84804810408105047 -0.52991925155115449 1.5 0 0 1 I I 0 1 1.5 forward I I I I #
face $-1 $162 $163 $53 $-1 $164 reversed single #
loop $-1 $-1 $165 $67 #
plane-surface $-1 -36.04694047496703 77.184892274101287 107.05370010758485 1 0 0 0 -0.80901700255871778 -0.5877852410284794 forward_v I I I I #
face $-1 $166 $167 $54 $-1 $168 forward single #
loop $-1 $169 $170 $68 #
cone-surface $-1 -31.394779407255292 23.521358644458758 7.4366832008045174 0 -0.80901700255871778 -0.5877852410284794 1 0 0 1 I I 0 1 1 forward I I I I #
face $-1 $171 $172 $55 $-1 $173 forward single #
loop $-1 $174 $175 $69 #
cone-surface $-1 -24.416537805687682 23.521358644458758 7.4366832008045174 0 -0.80901700255871778 -0.5877852410284794 1 0 0 1 I I 0 1 1 forward I I I I #
face $-1 $176 $177 $42 $-1 $178 reversed single #
loop $-1 $-1 $179 $70 #
plane-surface $-1 0 0 -12.492721192650732 0 0 1 1 0 0 forward_v I I I I #
coedge $-1 $180 $181 $182 $183 forward $71 $-1 #
face $-1 $184 $185 $43 $-1 $186 forward single #
loop $-1 $-1 $187 $73 #
plane-surface $-1 0 27.427803446630833 0 0 -1 0 0 0 -1 forward_v I I I I #
coedge $-1 $188 $189 $190 $191 forward $74 $-1 #
face $-1 $192 $193 $44 $-1 $194 forward single #
loop $-1 $-1 $195 $76 #
plane-surface $-1 0 27.427803446630833 0 0 -1 0 0 0 -1 forward_v I I I I #
coedge $-1 $196 $197 $198 $199 forward $77 $-1 #
face $-1 $200 $201 $45 $-1 $202 reversed single #
loop $-1 $-1 $203 $79 #
plane-surface $-1 -28.108956882168801 -27.427803446630818 1.4010071012805199 0 -0.84804810408105047 0.52991925155115449 1 0 0 forward_v I I I I #
coedge $-1 $204 $205 $206 $207 reversed $80 $-1 #
face $-1 $-1 $208 $46 $-1 $209 forward single #
loop $-1 $210 $211 $82 #
cone-surface $-1 -32.87174703784774 -18.578587118716968 3.582704923715637 0 0.84804810408105047 -0.52991925155115449 0.75 0 0 1 I I -0.70710678118654768 0.70710678118654735 0.75 forward I I I I #
loop $-1 $-1 $212 $60 #
coedge $-1 $132 $132 $213 $214 reversed $83 $-1 #
face $-1 $-1 $215 $47 $-1 $216 forward single #
loop $-1 $217 $218 $85 #
cone-surface $-1 -28.108956882168801 -18.578587118716968 3.582704923715637 0 0.84804810408105047 -0.52991925155115449 0.75 0 0 1 I I -0.70710678118654768 0.70710678118654735 0.75 forward I I I I #
loop $-1 $-1 $219 $61 #
coedge $-1 $137 $137 $220 $221 reversed $86 $-1 #
face $-1 $-1 $222 $48 $-1 $223 forward single #
loop $-1 $224 $225 $88 #
cone-surface $-1 -23.346166726489862 -18.578587118716968 3.582704923715637 0 0.84804810408105047 -0.52991925155115449 0.75 0 0 1 I I -0.70710678118654768 0.70710678118654735 0.75 forward I I I I #
loop $-1 $-1 $226 $62 #
coedge $-1 $142 $142 $227 $228 reversed $89 $-1 #
face $-1 $229 $230 $49 $-1 $231 reversed single #
loop $-1 $-1 $232 $91 #
plane-surface $-1 28.108956882168805 -27.427803446630818 1.4010071012805199 0 -0.84804810408105047 0.52991925155115449 1 0 0 forward_v I I I I #
coedge $-1 $233 $234 $235 $236 reversed $92 $-1 #
face $-1 $-1 $237 $50 $-1 $238 forward single #
loop $-1 $239 $240 $94 #
cone-surface $-1 23.346166726489862 -18.578587118716968 3.582704923715637 0 0.84804810408105047 -0.52991925155115449 0.75 0 0 1 I I -0.70710678118654768 0.70710678118654735 0.75 forward I I I I #
loop $-1 $-1 $241 $64 #
coedge $-1 $151 $151 $242 $243 reversed $95 $-1 #
face $-1 $-1 $244 $51 $-1 $245 forward single #
loop $-1 $246 $247 $97 #
cone-surface $-1 28.108956882168805 -18.578587118716968 3.582704923715637 0 0.84804810408105047 -0.52991925155115449 0.75 0 0 1 I I -0.70710678118654768 0.70710678118654735 0.75 forward I I I I #
loop $-1 $-1 $248 $65 #
coedge $-1 $156 $156 $249 $250 reversed $98 $-1 #
face $-1 $-1 $251 $52 $-1 $252 forward single #
loop $-1 $253 $254 $100 #
cone-surface $-1 32.871747037847747 -18.578587118716968 3.582704923715637 0 0.84804810408105047 -0.52991925155115449 0.75 0 0 1 I I -0.70710678118654768 0.70710678118654735 0.75 forward I I I I #
loop $-1 $-1 $255 $66 #
coedge $-1 $161 $161 $256 $257 reversed $101 $-1 #
face $-1 $258 $259 $53 $-1 $260 reversed single #
loop $-1 $-1 $261 $103 #
plane-surface $-1 -27.905658606471484 -4.8155126728884738 47.476920344292942 0 0.80901700255871778 0.5877852410284794 1 0 0 forward_v I I I I #
coedge $-1 $262 $263 $264 $265 reversed $104 $-1 #
face $-1 $-1 $266 $54 $-1 $267 forward single #
loop $-1 $268 $269 $106 #
cone-surface $-1 -31.394779407255292 22.623309526929894 6.7842123437859048 0 -0.80901700255871778 -0.5877852410284794 0.5 0 0 1 I I -0.70710678118654746 0.70710678118654746 0.5 forward I I I I #
loop $-1 $-1 $270 $68 #
coedge $-1 $170 $170 $271 $272 reversed $107 $-1 #
face $-1 $-1 $273 $55 $-1 $274 forward single #
loop $-1 $275 $276 $109 #
cone-surface $-1 -24.416537805687682 22.623309526929894 6.7842123437859048 0 -0.80901700255871778 -0.5877852410284794 0.5 0 0 1 I I -0.70710678118654746 0.70710678118654746 0.5 forward I I I I #
loop $-1 $-1 $277 $69 #
coedge $-1 $175 $175 $278 $279 reversed $110 $-1 #
face $-1 $280 $281 $42 $-1 $282 reversed single #
loop $-1 $-1 $283 $112 #
plane-surface $-1 0 -27.427803446630833 0 0 1 0 0 0 1 forward_v I I I I #
coedge $-1 $284 $285 $286 $287 forward $113 $-1 #
coedge $-1 $288 $115 $289 $290 forward $71 $-1 #
coedge $-1 $115 $288 $291 $292 forward $71 $-1 #
coedge $-1 $293 $294 $115 $183 reversed $295 $-1 #
edge $-1 $296 -27.427803446630833 $297 27.427803446630833 $182 $298 forward 7 unknown #
face $-1 $299 $300 $43 $-1 $301 reversed single #
loop $-1 $-1 $190 $116 #
plane-surface $-1 -57.995085016277898 0 -6.5000123621101649 0 0 1 1 0 0 forward_v I I I I #
coedge $-1 $302 $303 $189 $304 forward $117 $-1 #
coedge $-1 $305 $119 $306 $307 reversed $74 $-1 #
coedge $-1 $119 $305 $187 $304 reversed $74 $-1 #
coedge $-1 $308 $309 $119 $191 reversed $185 $-1 #
edge $-1 $310 -27.427803446630833 $311 27.427803446630833 $190 $312 forward 7 unknown #
face $-1 $313 $314 $44 $-1 $315 reversed single #
loop $-1 $-1 $316 $120 #
plane-surface $-1 57.995085016277905 0 -6.5000123621101649 0 0 1 1 0 0 forward_v I I I I #
coedge $-1 $317 $318 $196 $319 forward $121 $-1 #
coedge $-1 $320 $123 $195 $319 reversed $77 $-1 #
coedge $-1 $123 $320 $321 $322 reversed $77 $-1 #
coedge $-1 $323 $324 $123 $199 reversed $193 $-1 #
edge $-1 $325 -27.427803446630833 $326 27.427803446630833 $198 $327 forward 7 unknown #
face $-1 $328 $329 $45 $-1 $330 forward single #
loop $-1 $-1 $331 $124 #
plane-surface $-1 -36.04694047496703 -113.38432565720808 55.112601640044957 1 0 0 0 0.84804810408105047 -0.52991925155115449 forward_v I I I I #
coedge $-1 $332 $333 $334 $335 reversed $125 $-1 #
coedge $-1 $205 $127 $336 $337 reversed $80 $-1 #
coedge $-1 $127 $204 $332 $338 reversed $80 $-1 #
coedge $-1 $334 $339 $127 $207 forward $329 $-1 #
edge $-1 $340 29.264359381973208 $341 36.195231347175501 $206 $342 forward 7 unknown #
loop $-1 $-1 $213 $128 #
plane-surface $-1 -28.108956882168801 -27.427803446630818 1.4010071012805199 0 -0.84804810408105047 0.52991925155115449 1 0 0 forward_v I I I I #
loop $-1 $-1 $343 $82 #
coedge $-1 $211 $211 $212 $344 reversed $129 $-1 #
coedge $-1 $212 $212 $211 $344 forward $131 $-1 #
coedge $-1 $213 $213 $132 $214 forward $208 $-1 #
edge $-1 $345 2.5186005224175165e-016 $345 6.2831853071796004 $213 $346 forward 7 unknown #
loop $-1 $-1 $220 $133 #
plane-surface $-1 -28.108956882168801 -27.427803446630818 1.4010071012805199 0 -0.84804810408105047 0.52991925155115449 1 0 0 forward_v I I I I #
loop $-1 $-1 $347 $85 #
coedge $-1 $218 $218 $219 $348 reversed $134 $-1 #
coedge $-1 $219 $219 $218 $348 forward $136 $-1 #
coedge $-1 $220 $220 $137 $221 forward $215 $-1 #
edge $-1 $349 2.5186005224175165e-016 $349 6.2831853071796004 $220 $350 forward 7 unknown #
loop $-1 $-1 $227 $138 #
plane-surface $-1 -28.108956882168801 -27.427803446630818 1.4010071012805199 0 -0.84804810408105047 0.52991925155115449 1 0 0 forward_v I I I I #
loop $-1 $-1 $351 $88 #
coedge $-1 $225 $225 $226 $352 reversed $139 $-1 #
coedge $-1 $226 $226 $225 $352 forward $141 $-1 #
coedge $-1 $227 $227 $142 $228 forward $222 $-1 #
edge $-1 $353 2.5186005224175165e-016 $353 6.2831853071796004 $227 $354 forward 7 unknown #
face $-1 $355 $356 $49 $-1 $357 reversed single #
loop $-1 $-1 $358 $143 #
plane-surface $-1 20.170973289370576 -113.38432565720808 55.112601640044957 1 0 0 0 0.84804810408105047 -0.52991925155115449 forward_v I I I I #
coedge $-1 $359 $360 $361 $362 reversed $144 $-1 #
coedge $-1 $234 $146 $363 $364 reversed $92 $-1 #
coedge $-1 $146 $233 $359 $365 reversed $92 $-1 #
coedge $-1 $361 $366 $146 $236 forward $367 $-1 #
edge $-1 $368 29.264359381973208 $369 36.195231347175501 $235 $370 forward 7 unknown #
loop $-1 $-1 $242 $147 #
plane-surface $-1 28.108956882168805 -27.427803446630818 1.4010071012805199 0 -0.84804810408105047 0.52991925155115449 1 0 0 forward_v I I I I #
loop $-1 $-1 $371 $94 #
coedge $-1 $240 $240 $241 $372 reversed $148 $-1 #
coedge $-1 $241 $241 $240 $372 forward $150 $-1 #
coedge $-1 $242 $242 $151 $243 forward $237 $-1 #
edge $-1 $373 2.5186005224175165e-016 $373 6.2831853071796004 $242 $374 forward 7 unknown #
loop $-1 $-1 $249 $152 #
plane-surface $-1 28.108956882168805 -27.427803446630818 1.4010071012805199 0 -0.84804810408105047 0.52991925155115449 1 0 0 forward_v I I I I #
loop $-1 $-1 $375 $97 #
coedge $-1 $247 $247 $248 $376 reversed $153 $-1 #
coedge $-1 $248 $248 $247 $376 forward $155 $-1 #
coedge $-1 $249 $249 $156 $250 forward $244 $-1 #
edge $-1 $377 2.5186005224175165e-016 $377 6.2831853071796004 $249 $378 forward 7 unknown #
loop $-1 $-1 $256 $157 #
plane-surface $-1 28.108956882168805 -27.427803446630818 1.4010071012805199 0 -0.84804810408105047 0.52991925155115449 1 0 0 forward_v I I I I #
loop $-1 $-1 $379 $100 #
coedge $-1 $254 $254 $255 $380 reversed $158 $-1 #
coedge $-1 $255 $255 $254 $380 forward $160 $-1 #
coedge $-1 $256 $256 $161 $257 forward $251 $-1 #
edge $-1 $381 2.5186005224175165e-016 $381 6.2831853071796004 $256 $382 forward 7 unknown #
face $-1 $383 $384 $53 $-1 $385 reversed single #
loop $-1 $-1 $386 $162 #
plane-surface $-1 -19.764376737975937 77.184892274101287 107.05370010758485 -1 0 0 0 0.80901700255871778 0.5877852410284794 forward_v I I I I #
coedge $-1 $387 $388 $389 $390 reversed $163 $-1 #
coedge $-1 $263 $165 $391 $392 reversed $104 $-1 #
coedge $-1 $165 $262 $387 $393 reversed $104 $-1 #
coedge $-1 $389 $394 $165 $265 forward $395 $-1 #
edge $-1 $396 11.164642690419811 $397 17.990451062264949 $264 $398 forward 7 unknown #
loop $-1 $-1 $271 $166 #
plane-surface $-1 -27.905658606471484 -4.8155126728884738 47.476920344292942 0 0.80901700255871778 0.5877852410284794 1 0 0 forward_v I I I I #
loop $-1 $-1 $399 $106 #
coedge $-1 $269 $269 $270 $400 reversed $167 $-1 #
coedge $-1 $270 $270 $269 $400 forward $169 $-1 #
coedge $-1 $271 $271 $170 $272 forward $266 $-1 #
edge $-1 $401 1.3484332506094829e-016 $401 6.2831853071796004 $271 $402 forward 7 unknown #
loop $-1 $-1 $278 $171 #
plane-surface $-1 -27.905658606471484 -4.8155126728884738 47.476920344292942 0 0.80901700255871778 0.5877852410284794 1 0 0 forward_v I I I I #
loop $-1 $-1 $403 $109 #
coedge $-1 $276 $276 $277 $404 reversed $172 $-1 #
coedge $-1 $277 $277 $276 $404 forward $174 $-1 #
coedge $-1 $278 $278 $175 $279 forward $273 $-1 #
edge $-1 $405 1.3484332506094829e-016 $405 6.2831853071796004 $278 $406 forward 7 unknown #
face $-1 $407 $408 $42 $-1 $409 reversed single #
loop $-1 $-1 $410 $176 #
plane-surface $-1 -50.67903683584094 0 0 1 0 0 0 0 -1 forward_v I I I I #
coedge $-1 $411 $291 $410 $412 forward $177 $-1 #
coedge $-1 $413 $179 $411 $414 forward $113 $-1 #
coedge $-1 $179 $413 $415 $416 forward $113 $-1 #
coedge $-1 $294 $293 $179 $287 reversed $295 $-1 #
edge $-1 $417 -27.427803446630833 $418 27.427803446630833 $286 $419 forward 7 unknown #
coedge $-1 $181 $180 $420 $421 forward $71 $-1 #
coedge $-1 $422 $423 $180 $290 reversed $408 $-1 #
edge $-1 $297 -50.67903683584094 $424 50.67903683584094 $289 $425 forward 7 unknown #
coedge $-1 $283 $426 $181 $292 reversed $177 $-1 #
edge $-1 $427 -50.67903683584094 $296 50.67903683584094 $291 $428 forward 7 unknown #
coedge $-1 $286 $182 $426 $429 forward $295 $-1 #
coedge $-1 $182 $286 $422 $430 reversed $295 $-1 #
loop $-1 $-1 $294 $407 #
vertex $-1 $183 $431 #
vertex $-1 $183 $432 #
straight-curve $-1 50.67903683584094 0 12.492721192650732 0 1 0 I I #
face $-1 $433 $434 $43 $-1 $435 reversed single #
loop $-1 $-1 $436 $184 #
plane-surface $-1 -65.311133196714849 0 -9.4963667773804481 1 0 0 0 0 -1 forward_v I I I I #
coedge $-1 $437 $187 $438 $439 reversed $117 $-1 #
coedge $-1 $187 $437 $308 $440 reversed $117 $-1 #
edge $-1 $310 6.5000123621101649 $441 12.492721192650732 $187 $442 forward 7 unknown #
coedge $-1 $189 $188 $443 $444 reversed $74 $-1 #
coedge $-1 $445 $446 $188 $307 forward $447 $-1 #
edge $-1 $448 -12.492721192650732 $311 -6.5000123621101649 $306 $449 forward 7 unknown #
coedge $-1 $450 $190 $303 $440 forward $185 $-1 #
coedge $-1 $190 $450 $445 $451 forward $185 $-1 #
vertex $-1 $304 $452 #
vertex $-1 $451 $453 #
straight-curve $-1 -50.67903683584094 0 -6.5000123621101649 0 -1 0 I I #
face $-1 $454 $455 $44 $-1 $456 reversed single #
loop $-1 $-1 $457 $192 #
plane-surface $-1 65.311133196714863 0 -9.4963667773804481 -1 0 0 0 0 1 forward_v I I I I #
coedge $-1 $324 $323 $458 $459 forward $193 $-1 #
coedge $-1 $460 $195 $324 $461 reversed $121 $-1 #
coedge $-1 $195 $460 $462 $463 reversed $121 $-1 #
edge $-1 $464 -12.492721192650732 $326 -6.5000123621101649 $195 $465 forward 7 unknown #
coedge $-1 $197 $196 $466 $467 reversed $77 $-1 #
coedge $-1 $468 $469 $197 $322 forward $470 $-1 #
edge $-1 $325 6.5000123621101649 $471 12.492721192650732 $321 $472 forward 7 unknown #
coedge $-1 $316 $198 $469 $473 forward $193 $-1 #
coedge $-1 $198 $316 $317 $461 forward $193 $-1 #
vertex $-1 $322 $474 #
vertex $-1 $461 $475 #
straight-curve $-1 50.67903683584094 0 -6.5000123621101649 0 1 0 I I #
face $-1 $-1 $476 $45 $-1 $477 reversed single #
loop $-1 $-1 $206 $200 #
plane-surface $-1 0 0 12.492721192650732 0 0 1 1 0 0 forward_v I I I I #
coedge $-1 $478 $479 $480 $481 reversed $201 $-1 #
coedge $-1 $482 $203 $205 $338 forward $125 $-1 #
coedge $-1 $203 $482 $478 $483 forward $125 $-1 #
coedge $-1 $480 $206 $203 $335 forward $329 $-1 #
edge $-1 $341 6.1164948482861714 $484 21.992462033882632 $334 $485 forward 7 unknown #
coedge $-1 $486 $487 $204 $337 forward $476 $-1 #
edge $-1 $488 -26.15529371874198 $340 -15.063579627371746 $336 $489 forward 7 unknown #
edge $-1 $341 -13.079109590592452 $488 2.6737665129848107e-014 $205 $490 forward 7 unknown #
coedge $-1 $206 $480 $486 $491 forward $329 $-1 #
vertex $-1 $337 $492 #
vertex $-1 $207 $493 #
straight-curve $-1 -20.170973289370572 -56.69216282860404 12.492721192650734 0 1 0 I I #
coedge $-1 $343 $343 $-1 $494 reversed $210 $-1 #
edge $-1 $495 0 $495 6.2831853071796004 $211 $496 forward 7 unknown #
vertex $-1 $214 $497 #
ellipse-curve $-1 -32.87174703784774 -23.962367464029683 6.9468641469656225 0 -0.84804810408105047 0.52991925155115449 1.5 0 0 1 I I #
coedge $-1 $347 $347 $-1 $498 reversed $217 $-1 #
edge $-1 $499 0 $499 6.2831853071796004 $218 $500 forward 7 unknown #
vertex $-1 $221 $501 #
ellipse-curve $-1 -28.108956882168801 -23.962367464029683 6.9468641469656225 0 -0.84804810408105047 0.52991925155115449 1.5 0 0 1 I I #
coedge $-1 $351 $351 $-1 $502 reversed $224 $-1 #
edge $-1 $503 0 $503 6.2831853071796004 $225 $504 forward 7 unknown #
vertex $-1 $228 $505 #
ellipse-curve $-1 -23.346166726489862 -23.962367464029683 6.9468641469656225 0 -0.84804810408105047 0.52991925155115449 1.5 0 0 1 I I #
face $-1 $-1 $367 $49 $-1 $506 forward single #
loop $-1 $-1 $507 $229 #
plane-surface $-1 0 -27.427803446630833 0 0 1 0 0 0 1 forward_v I I I I #
coedge $-1 $508 $509 $510 $511 reversed $230 $-1 #
coedge $-1 $512 $232 $234 $365 forward $144 $-1 #
coedge $-1 $232 $512 $508 $513 forward $144 $-1 #
coedge $-1 $510 $235 $232 $362 forward $367 $-1 #
edge $-1 $369 -21.992462033882628 $514 -6.1164948482861732 $361 $515 forward 7 unknown #
coedge $-1 $516 $517 $233 $364 forward $356 $-1 #
edge $-1 $518 -26.15529371874198 $368 -15.063579627371746 $363 $519 forward 7 unknown #
edge $-1 $369 -13.079109590592452 $518 2.6737665129848107e-014 $234 $520 forward 7 unknown #
coedge $-1 $235 $510 $516 $521 forward $367 $-1 #
loop $-1 $-1 $510 $355 #
vertex $-1 $364 $522 #
vertex $-1 $236 $523 #
straight-curve $-1 36.04694047496703 -56.69216282860404 12.492721192650734 0 1 0 I I #
coedge $-1 $371 $371 $-1 $524 reversed $239 $-1 #
edge $-1 $525 0 $525 6.2831853071796004 $240 $526 forward 7 unknown #
vertex $-1 $243 $527 #
ellipse-curve $-1 23.346166726489862 -23.962367464029683 6.9468641469656225 0 -0.84804810408105047 0.52991925155115449 1.5 0 0 1 I I #
coedge $-1 $375 $375 $-1 $528 reversed $246 $-1 #
edge $-1 $529 0 $529 6.2831853071796004 $247 $530 forward 7 unknown #
vertex $-1 $250 $531 #
ellipse-curve $-1 28.108956882168805 -23.962367464029683 6.9468641469656225 0 -0.84804810408105047 0.52991925155115449 1.5 0 0 1 I I #
coedge $-1 $379 $379 $-1 $532 reversed $253 $-1 #
edge $-1 $533 0 $533 6.2831853071796004 $254 $534 forward 7 unknown #
vertex $-1 $257 $535 #
ellipse-curve $-1 32.871747037847747 -23.962367464029683 6.9468641469656225 0 -0.84804810408105047 0.52991925155115449 1.5 0 0 1 I I #
face $-1 $-1 $395 $53 $-1 $536 forward single #
loop $-1 $-1 $537 $258 #
plane-surface $-1 0 27.427803446630833 0 0 -1 0 0 0 -1 forward_v I I I I #
coedge $-1 $538 $539 $540 $541 reversed $259 $-1 #
coedge $-1 $542 $261 $263 $393 forward $163 $-1 #
coedge $-1 $261 $542 $538 $543 forward $163 $-1 #
coedge $-1 $540 $264 $261 $390 forward $395 $-1 #
edge $-1 $397 -22.094111171731289 $544 -5.811547434740195 $389 $545 forward 7 unknown #
coedge $-1 $546 $547 $262 $392 forward $384 $-1 #
edge $-1 $548 -50.429048371825345 $396 -41.034128861141689 $391 $549 forward 7 unknown #
edge $-1 $397 43.242847852388721 $548 54.855606893261637 $263 $550 forward 7 unknown #
coedge $-1 $264 $540 $546 $551 forward $395 $-1 #
loop $-1 $-1 $540 $383 #
vertex $-1 $392 $552 #
vertex $-1 $265 $553 #
straight-curve $-1 -36.04694047496703 38.592446137050644 12.492721192650734 0 -1 0 I I #
coedge $-1 $399 $399 $-1 $554 reversed $268 $-1 #
edge $-1 $555 0 $555 6.2831853071796004 $269 $556 forward 7 unknown #
vertex $-1 $272 $557 #
ellipse-curve $-1 -31.394779407255292 24.014899260708269 7.7952614373088966 0 0.80901700255871778 0.5877852410284794 1 0 0 1 I I #
coedge $-1 $403 $403 $-1 $558 reversed $275 $-1 #
edge $-1 $559 0 $559 6.2831853071796004 $276 $560 forward 7 unknown #
vertex $-1 $279 $561 #
ellipse-curve $-1 -24.416537805687682 24.014899260708269 7.7952614373088966 0 0.80901700255871778 0.5877852410284794 1 0 0 1 I I #
face $-1 $-1 $295 $42 $-1 $562 reversed single #
loop $-1 $-1 $422 $280 #
plane-surface $-1 0 27.427803446630833 0 0 -1 0 0 0 -1 forward_v I I I I #
coedge $-1 $420 $563 $283 $412 reversed $281 $-1 #
coedge $-1 $426 $283 $284 $414 reversed $177 $-1 #
edge $-1 $427 -12.492721192650732 $564 12.492721192650732 $410 $565 forward 7 unknown #
coedge $-1 $285 $284 $563 $566 forward $113 $-1 #
edge $-1 $418 -50.67903683584094 $564 50.67903683584094 $411 $567 forward 7 unknown #
coedge $-1 $423 $422 $285 $416 reversed $408 $-1 #
edge $-1 $568 -50.67903683584094 $417 50.67903683584094 $415 $569 forward 7 unknown #
vertex $-1 $287 $570 #
vertex $-1 $429 $571 #
straight-curve $-1 50.67903683584094 0 -12.492721192650732 0 -1 0 I I #
coedge $-1 $572 $410 $288 $421 reversed $281 $-1 #
edge $-1 $424 -27.427803446630833 $427 27.427803446630833 $420 $573 forward 7 unknown #
coedge $-1 $415 $289 $294 $430 forward $408 $-1 #
coedge $-1 $289 $415 $572 $574 reversed $408 $-1 #
vertex $-1 $290 $575 #
straight-curve $-1 0 27.427803446630833 12.492721192650732 -1 0 0 I I #
coedge $-1 $291 $411 $293 $429 reversed $177 $-1 #
vertex $-1 $421 $576 #
straight-curve $-1 0 -27.427803446630833 12.492721192650732 1 0 0 I I #
edge $-1 $296 -12.492721192650732 $418 12.492721192650732 $293 $577 forward 7 unknown #
edge $-1 $297 -12.492721192650732 $417 12.492721192650732 $294 $578 forward 7 unknown #
point $-1 50.67903683584094 -27.427803446630833 12.492721192650732 #
point $-1 50.67903683584094 27.427803446630833 12.492721192650732 #
face $-1 $-1 $447 $43 $-1 $579 reversed single #
loop $-1 $-1 $443 $299 #
plane-surface $-1 0 0 -12.492721192650732 0 0 1 1 0 0 forward_v I I I I #
coedge $-1 $580 $581 $437 $582 forward $300 $-1 #
coedge $-1 $303 $302 $436 $582 reversed $117 $-1 #
coedge $-1 $443 $583 $302 $439 forward $434 $-1 #
edge $-1 $584 -65.311133196714849 $441 -50.67903683584094 $302 $585 forward 7 unknown #
edge $-1 $310 -7.316048180436951 $586 7.316048180436951 $303 $587 forward 7 unknown #
vertex $-1 $304 $588 #
straight-curve $-1 -50.67903683584094 27.427803446630833 0 0 0 -1 I I #
coedge $-1 $589 $438 $305 $444 forward $434 $-1 #
edge $-1 $441 -27.427803446630833 $448 27.427803446630833 $443 $590 forward 7 unknown #
coedge $-1 $591 $306 $309 $451 reversed $447 $-1 #
coedge $-1 $306 $591 $589 $592 reversed $447 $-1 #
loop $-1 $-1 $306 $433 #
vertex $-1 $592 $593 #
straight-curve $-1 -50.67903683584094 -27.427803446630833 0 0 0 1 I I #
coedge $-1 $309 $308 $581 $594 forward $185 $-1 #
edge $-1 $595 -7.316048180436951 $311 7.316048180436951 $445 $596 forward 7 unknown #
point $-1 -50.679036835840947 27.427803446630833 -6.5000123621101649 #
point $-1 -50.679036835840947 -27.427803446630833 -6.5000123621101649 #
face $-1 $-1 $470 $44 $-1 $597 reversed single #
loop $-1 $-1 $466 $313 #
plane-surface $-1 0 0 -12.492721192650732 0 0 1 1 0 0 forward_v I I I I #
coedge $-1 $598 $458 $599 $600 forward $314 $-1 #
coedge $-1 $457 $601 $316 $459 reversed $314 $-1 #
edge $-1 $602 -27.427803446630833 $603 27.427803446630833 $458 $604 forward 7 unknown #
coedge $-1 $318 $317 $601 $605 forward $121 $-1 #
edge $-1 $603 -7.3160481804369581 $326 7.3160481804369581 $317 $606 forward 7 unknown #
coedge $-1 $607 $466 $318 $463 forward $455 $-1 #
edge $-1 $464 -7.3160481804369653 $608 7.3160481804369581 $318 $609 forward 7 unknown #
vertex $-1 $463 $610 #
straight-curve $-1 50.67903683584094 27.427803446630833 0 0 0 1 I I #
coedge $-1 $462 $611 $320 $467 forward $455 $-1 #
edge $-1 $471 -27.427803446630833 $464 27.427803446630833 $466 $612 forward 7 unknown #
coedge $-1 $599 $321 $611 $613 reversed $470 $-1 #
coedge $-1 $321 $599 $323 $473 reversed $470 $-1 #
loop $-1 $-1 $321 $454 #
vertex $-1 $322 $614 #
straight-curve $-1 50.67903683584094 -27.427803446630833 0 0 0 -1 I I #
edge $-1 $325 -7.3160481804369581 $602 7.3160481804369581 $469 $615 forward 7 unknown #
point $-1 50.679036835840947 -27.427803446630833 -6.5000123621101649 #
point $-1 50.679036835840947 27.427803446630833 -6.5000123621101649 #
loop $-1 $-1 $336 $328 #
plane-surface $-1 0 -27.427803446630833 0 0 1 0 0 0 1 forward_v I I I I #
coedge $-1 $479 $331 $333 $483 reversed $201 $-1 #
coedge $-1 $331 $478 $616 $617 reversed $201 $-1 #
coedge $-1 $339 $334 $331 $481 forward $329 $-1 #
edge $-1 $484 -36.195231347175501 $618 -29.264359381973208 $480 $619 forward 7 unknown #
coedge $-1 $333 $332 $487 $620 reversed $125 $-1 #
edge $-1 $621 -2.6737665129848107e-014 $484 13.079109590592452 $478 $622 forward 7 unknown #
vertex $-1 $335 $623 #
straight-curve $-1 -14.054478441084401 -20.49693148142854 12.492721192650732 -1 0 0 I I #
coedge $-1 $616 $336 $339 $491 reversed $476 $-1 #
coedge $-1 $336 $616 $482 $620 forward $476 $-1 #
vertex $-1 $337 $624 #
straight-curve $-1 -20.170973289370572 -27.427803446630833 27.556300820022479 0 0 1 I I #
straight-curve $-1 -20.170973289370572 -27.427803446630818 1.4010071012805199 0 -0.52991925155115449 -0.84804810408105047 I I #
edge $-1 $618 -36.04694047496703 $340 -20.170973289370572 $486 $625 forward 7 unknown #
point $-1 -20.170973289370572 -27.427803446630833 12.492721192650732 #
point $-1 -20.170973289370572 -20.49693148142854 12.492721192650732 #
edge $-1 $626 1 $626 0 $343 $-1 forward 7 unknown #
vertex $-1 $344 $627 #
ellipse-curve $-1 -32.87174703784774 -19.214623196777755 3.9801443623790025 0 -0.84804810408105047 0.52991925155115449 1.5 0 0 1 I I #
point $-1 -31.37174703784774 -23.962367464029693 6.9468641469656296 #
edge $-1 $628 1 $628 0 $347 $-1 forward 7 unknown #
vertex $-1 $348 $629 #
ellipse-curve $-1 -28.108956882168801 -19.214623196777755 3.9801443623790025 0 -0.84804810408105047 0.52991925155115449 1.5 0 0 1 I I #
point $-1 -26.608956882168801 -23.962367464029693 6.9468641469656296 #
edge $-1 $630 1 $630 0 $351 $-1 forward 7 unknown #
vertex $-1 $352 $631 #
ellipse-curve $-1 -23.346166726489862 -19.214623196777755 3.9801443623790025 0 -0.84804810408105047 0.52991925155115449 1.5 0 0 1 I I #
point $-1 -21.846166726489862 -23.962367464029693 6.9468641469656296 #
plane-surface $-1 0 0 12.492721192650732 0 0 1 1 0 0 forward_v I I I I #
coedge $-1 $517 $516 $509 $632 forward $356 $-1 #
coedge $-1 $509 $358 $360 $513 reversed $230 $-1 #
coedge $-1 $358 $508 $507 $632 reversed $230 $-1 #
coedge $-1 $366 $361 $358 $511 forward $367 $-1 #
edge $-1 $514 -36.195231347175501 $633 -29.264359381973208 $510 $634 forward 7 unknown #
coedge $-1 $360 $359 $517 $635 reversed $144 $-1 #
edge $-1 $636 -2.6737665129848107e-014 $514 13.079109590592452 $508 $637 forward 7 unknown #
vertex $-1 $362 $638 #
straight-curve $-1 14.054478441084402 -20.49693148142854 12.492721192650732 -1 0 0 I I #
coedge $-1 $507 $363 $366 $521 reversed $356 $-1 #
coedge $-1 $363 $507 $512 $635 forward $356 $-1 #
vertex $-1 $364 $639 #
straight-curve $-1 36.04694047496703 -27.427803446630833 27.556300820022479 0 0 1 I I #
straight-curve $-1 36.04694047496703 -27.427803446630818 1.4010071012805199 0 -0.52991925155115449 -0.84804810408105047 I I #
edge $-1 $633 20.170973289370576 $368 36.04694047496703 $516 $640 forward 7 unknown #
point $-1 36.04694047496703 -27.427803446630833 12.492721192650732 #
point $-1 36.04694047496703 -20.49693148142854 12.492721192650732 #
edge $-1 $641 1 $641 0 $371 $-1 forward 7 unknown #
vertex $-1 $372 $642 #
ellipse-curve $-1 23.346166726489862 -19.214623196777755 3.9801443623790025 0 -0.84804810408105047 0.52991925155115449 1.5 0 0 1 I I #
point $-1 24.846166726489862 -23.962367464029693 6.9468641469656296 #
edge $-1 $643 1 $643 0 $375 $-1 forward 7 unknown #
vertex $-1 $376 $644 #
ellipse-curve $-1 28.108956882168805 -19.214623196777755 3.9801443623790025 0 -0.84804810408105047 0.52991925155115449 1.5 0 0 1 I I #
point $-1 29.608956882168805 -23.962367464029693 6.9468641469656296 #
edge $-1 $645 1 $645 0 $379 $-1 forward 7 unknown #
vertex $-1 $380 $646 #
ellipse-curve $-1 32.871747037847747 -19.214623196777755 3.9801443623790025 0 -0.84804810408105047 0.52991925155115449 1.5 0 0 1 I I #
point $-1 34.371747037847747 -23.962367464029693 6.9468641469656296 #
plane-surface $-1 0 0 12.492721192650732 0 0 1 1 0 0 forward_v I I I I #
coedge $-1 $547 $546 $539 $647 forward $384 $-1 #
coedge $-1 $539 $386 $388 $543 reversed $259 $-1 #
coedge $-1 $386 $538 $537 $647 reversed $259 $-1 #
coedge $-1 $394 $389 $386 $541 forward $395 $-1 #
edge $-1 $544 -17.990451062264949 $648 -11.164642690419811 $540 $649 forward 7 unknown #
coedge $-1 $388 $387 $547 $650 reversed $163 $-1 #
edge $-1 $651 -54.855606893261637 $544 -43.242847852388721 $538 $652 forward 7 unknown #
vertex $-1 $390 $653 #
straight-curve $-1 -13.952829303235742 20.601995074785691 12.492721192650734 1 0 0 I I #
coedge $-1 $537 $391 $394 $551 reversed $384 $-1 #
coedge $-1 $391 $537 $542 $650 forward $384 $-1 #
vertex $-1 $392 $654 #
straight-curve $-1 -36.04694047496703 27.427803446630833 53.526850053792423 0 0 1 I I #
straight-curve $-1 -36.04694047496703 -4.8155126728884738 47.476920344292942 0 0.5877852410284794 -0.80901700255871778 I I #
edge $-1 $648 19.764376737975937 $396 36.04694047496703 $546 $655 forward 7 unknown #
point $-1 -36.04694047496703 27.427803446630833 12.492721192650732 #
point $-1 -36.04694047496703 20.601995074785695 12.492721192650734 #
edge $-1 $656 1 $656 0 $399 $-1 forward 7 unknown #
vertex $-1 $400 $657 #
ellipse-curve $-1 -31.394779407255292 23.027818028209253 7.0781049643001444 0 0.80901700255871778 0.5877852410284794 1 0 0 1 I I #
point $-1 -30.394779407255292 24.014899260708262 7.7952614373088913 #
edge $-1 $658 1 $658 0 $403 $-1 forward 7 unknown #
vertex $-1 $404 $659 #
ellipse-curve $-1 -24.416537805687682 23.027818028209253 7.0781049643001444 0 0.80901700255871778 0.5877852410284794 1 0 0 1 I I #
point $-1 -23.416537805687682 24.014899260708262 7.7952614373088913 #
plane-surface $-1 50.67903683584094 0 0 -1 0 0 0 0 1 forward_v I I I I #
coedge $-1 $410 $572 $413 $566 reversed $281 $-1 #
vertex $-1 $566 $660 #
straight-curve $-1 -50.67903683584094 -27.427803446630833 0 0 0 -1 I I #
edge $-1 $564 -27.427803446630833 $568 27.427803446630833 $563 $661 forward 7 unknown #
straight-curve $-1 0 -27.427803446630833 -12.492721192650732 -1 0 0 I I #
vertex $-1 $416 $662 #
straight-curve $-1 0 27.427803446630833 -12.492721192650732 1 0 0 I I #
point $-1 50.67903683584094 27.427803446630833 -12.492721192650732 #
point $-1 50.67903683584094 -27.427803446630833 -12.492721192650732 #
coedge $-1 $563 $420 $423 $574 forward $281 $-1 #
straight-curve $-1 -50.67903683584094 0 12.492721192650732 0 -1 0 I I #
edge $-1 $424 -12.492721192650732 $568 12.492721192650732 $423 $663 forward 7 unknown #
point $-1 -50.67903683584094 27.427803446630833 12.492721192650732 #
point $-1 -50.67903683584094 -27.427803446630833 12.492721192650732 #
straight-curve $-1 50.67903683584094 -27.427803446630833 0 0 0 -1 I I #
straight-curve $-1 50.67903683584094 27.427803446630833 0 0 0 -1 I I #
plane-surface $-1 0 -27.427803446630833 0 0 1 0 0 0 1 forward_v I I I I #
coedge $-1 $664 $436 $583 $665 reversed $300 $-1 #
coedge $-1 $436 $664 $450 $594 reversed $300 $-1 #
edge $-1 $586 -2.9963544152702832 $584 2.9963544152702823 $437 $666 forward 7 unknown #
coedge $-1 $438 $589 $580 $665 forward $434 $-1 #
vertex $-1 $439 $667 #
straight-curve $-1 0 27.427803446630833 -12.492721192650732 1 0 0 I I #
vertex $-1 $440 $668 #
straight-curve $-1 -57.995085016277898 27.427803446630833 -6.5000123621101649 -1 0 0 I I #
point $-1 -50.67903683584094 27.427803446630833 -12.492721192650732 #
coedge $-1 $583 $443 $446 $592 forward $434 $-1 #
straight-curve $-1 -50.67903683584094 0 -12.492721192650732 0 -1 0 I I #
coedge $-1 $446 $445 $664 $669 forward $447 $-1 #
edge $-1 $448 -7.3160481804369581 $670 7.316048180436951 $446 $671 forward 7 unknown #
point $-1 -50.67903683584094 -27.427803446630833 -12.492721192650732 #
edge $-1 $586 -27.427803446630833 $595 27.427803446630833 $581 $672 forward 7 unknown #
vertex $-1 $594 $673 #
straight-curve $-1 -57.995085016277898 -27.427803446630833 -6.5000123621101649 1 0 0 I I #
plane-surface $-1 0 -27.427803446630833 0 0 1 0 0 0 1 forward_v I I I I #
coedge $-1 $601 $457 $607 $674 reversed $314 $-1 #
coedge $-1 $469 $468 $457 $600 reversed $470 $-1 #
edge $-1 $602 -2.9963544152702832 $675 2.9963544152702823 $457 $676 forward 7 unknown #
coedge $-1 $458 $598 $460 $605 reversed $314 $-1 #
vertex $-1 $459 $677 #
vertex $-1 $459 $678 #
straight-curve $-1 65.311133196714863 0 -6.5000123621101649 0 1 0 I I #
edge $-1 $603 -2.9963544152702832 $608 2.9963544152702823 $601 $679 forward 7 unknown #
straight-curve $-1 57.995085016277905 27.427803446630833 -6.5000123621101649 -1 0 0 I I #
coedge $-1 $611 $462 $598 $674 forward $455 $-1 #
vertex $-1 $674 $680 #
straight-curve $-1 57.995085016277905 27.427803446630833 -12.49272119265073 1 0 0 I I #
point $-1 50.67903683584094 27.427803446630833 -12.492721192650732 #
coedge $-1 $466 $607 $468 $613 forward $455 $-1 #
straight-curve $-1 50.67903683584094 0 -12.492721192650732 0 1 0 I I #
edge $-1 $675 -7.3160481804369581 $471 7.3160481804369653 $468 $681 forward 7 unknown #
point $-1 50.67903683584094 -27.427803446630833 -12.492721192650732 #
straight-curve $-1 57.995085016277905 -27.427803446630833 -6.5000123621101649 1 0 0 I I #
coedge $-1 $487 $486 $479 $617 forward $476 $-1 #
edge $-1 $618 15.063579627371746 $621 26.15529371874198 $616 $682 forward 7 unknown #
vertex $-1 $491 $683 #
straight-curve $-1 -36.04694047496703 -56.69216282860404 12.492721192650734 0 -1 0 I I #
edge $-1 $621 -21.992462033882632 $488 -6.1164948482861714 $487 $684 forward 7 unknown #
vertex $-1 $620 $685 #
straight-curve $-1 -36.04694047496703 -27.427803446630818 1.4010071012805199 0 0.52991925155115449 0.84804810408105047 I I #
point $-1 -36.04694047496703 -20.49693148142854 12.492721192650732 #
point $-1 -20.170973289370572 -27.427803446630833 1.4010071012804972 #
straight-curve $-1 0 -27.427803446630833 12.492721192650732 1 0 0 I I #
vertex $-1 $494 $686 #
point $-1 -31.37174703784774 -19.214623196777755 3.9801443623790025 #
vertex $-1 $498 $687 #
point $-1 -26.608956882168801 -19.214623196777755 3.9801443623790025 #
vertex $-1 $502 $688 #
point $-1 -21.846166726489862 -19.214623196777755 3.9801443623790025 #
edge $-1 $633 15.063579627371746 $636 26.15529371874198 $507 $689 forward 7 unknown #
vertex $-1 $521 $690 #
straight-curve $-1 20.170973289370576 -56.69216282860404 12.492721192650734 0 -1 0 I I #
edge $-1 $636 6.1164948482861732 $518 21.992462033882628 $517 $691 forward 7 unknown #
vertex $-1 $635 $692 #
straight-curve $-1 20.170973289370576 -27.427803446630818 1.4010071012805199 0 0.52991925155115449 0.84804810408105047 I I #
point $-1 20.170973289370576 -20.49693148142854 12.492721192650732 #
point $-1 36.04694047496703 -27.427803446630833 1.4010071012804972 #
straight-curve $-1 0 -27.427803446630833 12.492721192650732 1 0 0 I I #
vertex $-1 $524 $693 #
point $-1 24.846166726489862 -19.214623196777755 3.9801443623790025 #
vertex $-1 $528 $694 #
point $-1 29.608956882168805 -19.214623196777755 3.9801443623790025 #
vertex $-1 $532 $695 #
point $-1 34.371747037847747 -19.214623196777755 3.9801443623790025 #
edge $-1 $648 41.034128861141689 $651 50.429048371825345 $537 $696 forward 7 unknown #
vertex $-1 $551 $697 #
straight-curve $-1 -19.764376737975937 38.592446137050644 12.492721192650734 0 1 0 I I #
edge $-1 $651 5.811547434740195 $548 22.094111171731289 $547 $698 forward 7 unknown #
vertex $-1 $650 $699 #
straight-curve $-1 -19.764376737975937 -4.8155126728884738 47.476920344292942 0 -0.5877852410284794 0.80901700255871778 I I #
point $-1 -19.764376737975937 20.601995074785695 12.492721192650734 #
point $-1 -36.04694047496703 27.427803446630833 3.0978016819670771 #
straight-curve $-1 0 27.427803446630833 12.492721192650732 -1 0 0 I I #
vertex $-1 $554 $700 #
point $-1 -30.394779407255292 23.027818028209253 7.0781049643001444 #
vertex $-1 $558 $701 #
point $-1 -23.416537805687682 23.027818028209253 7.0781049643001444 #
point $-1 -50.67903683584094 -27.427803446630833 -12.492721192650732 #
straight-curve $-1 -50.67903683584094 0 -12.492721192650732 0 1 0 I I #
point $-1 -50.67903683584094 27.427803446630833 -12.492721192650732 #
straight-curve $-1 -50.67903683584094 27.427803446630833 0 0 0 -1 I I #
coedge $-1 $581 $580 $591 $669 reversed $300 $-1 #
edge $-1 $670 -27.427803446630833 $584 27.427803446630833 $580 $702 forward 7 unknown #
straight-curve $-1 -65.311133196714849 27.427803446630833 -9.4963667773804481 0 0 -1 I I #
point $-1 -65.311133196714849 27.427803446630833 -12.49272119265073 #
point $-1 -65.311133196714849 27.427803446630833 -6.5000123621101649 #
edge $-1 $595 -2.9963544152702832 $670 2.9963544152702823 $664 $703 forward 7 unknown #
vertex $-1 $665 $704 #
straight-curve $-1 -57.995085016277898 -27.427803446630833 -12.49272119265073 -1 0 0 I I #
straight-curve $-1 -65.311133196714849 0 -6.5000123621101649 0 -1 0 I I #
point $-1 -65.311133196714849 -27.427803446630833 -6.5000123621101649 #
edge $-1 $608 -27.427803446630833 $675 27.427803446630833 $598 $705 forward 7 unknown #
vertex $-1 $600 $706 #
straight-curve $-1 65.311133196714863 -27.427803446630833 -9.4963667773804481 0 0 -1 I I #
point $-1 65.311133196714863 -27.427803446630833 -6.5000123621101649 #
point $-1 65.311133196714863 27.427803446630833 -6.5000123621101649 #
straight-curve $-1 65.311133196714863 27.427803446630833 -9.4963667773804481 0 0 -1 I I #
point $-1 65.311133196714863 27.427803446630833 -12.49272119265073 #
straight-curve $-1 57.995085016277905 -27.427803446630833 -12.49272119265073 -1 0 0 I I #
straight-curve $-1 -36.04694047496703 -27.427803446630833 27.556300820022479 0 0 -1 I I #
point $-1 -36.04694047496703 -27.427803446630833 12.492721192650732 #
straight-curve $-1 -14.054478441084401 -27.427803446630833 1.4010071012804961 1 0 0 I I #
point $-1 -36.04694047496703 -27.427803446630833 1.4010071012804972 #
point $-1 -32.87174703784774 -17.942551040656181 3.1852654850522715 #
point $-1 -28.108956882168801 -17.942551040656181 3.1852654850522715 #
point $-1 -23.346166726489862 -17.942551040656181 3.1852654850522715 #
straight-curve $-1 20.170973289370576 -27.427803446630833 27.556300820022479 0 0 -1 I I #
point $-1 20.170973289370576 -27.427803446630833 12.492721192650732 #
straight-curve $-1 14.054478441084402 -27.427803446630833 1.4010071012804961 1 0 0 I I #
point $-1 20.170973289370576 -27.427803446630833 1.4010071012804972 #
point $-1 23.346166726489862 -17.942551040656181 3.1852654850522715 #
point $-1 28.108956882168805 -17.942551040656181 3.1852654850522715 #
point $-1 32.871747037847747 -17.942551040656181 3.1852654850522715 #
straight-curve $-1 -19.764376737975937 27.427803446630833 53.526850053792423 0 0 -1 I I #
point $-1 -19.764376737975937 27.427803446630833 12.492721192650732 #
straight-curve $-1 -13.952829303235742 27.427803446630833 3.0978016819670771 -1 0 0 I I #
point $-1 -19.764376737975937 27.427803446630833 3.0978016819670771 #
point $-1 -31.394779407255292 22.218801025650535 6.4903197232716652 #
point $-1 -24.416537805687682 22.218801025650535 6.4903197232716652 #
straight-curve $-1 -65.311133196714849 0 -12.49272119265073 0 1 0 I I #
straight-curve $-1 -65.311133196714849 -27.427803446630833 -9.4963667773804481 0 0 -1 I I #
point $-1 -65.311133196714849 -27.427803446630833 -12.49272119265073 #
straight-curve $-1 65.311133196714863 0 -12.49272119265073 0 -1 0 I I #
point $-1 65.311133196714863 -27.427803446630833 -12.49272119265073 #
End-of-ACIS-data 