500 0 7 0           
7 Unknown 11 ACIS 5.0 NT 24 Fri Mar 26 20:35:46 1999 
-1 9.9999999999999995e-007 1e-010 
body $-1 $7 $-1 $8 #
body $-1 $9 $-1 $10 #
body $-1 $11 $-1 $12 #
body $-1 $13 $-1 $14 #
body $-1 $15 $-1 $16 #
body $-1 $17 $-1 $18 #
body $-1 $19 $-1 $20 #
lump $-1 $-1 $21 $0 #
transform $-1 1 0 0 0 1 0 0 0 1 60.69643238624225 39.412206883521854 10.940204136166308 1 rotate no_reflect no_shear #
lump $-1 $-1 $22 $1 #
transform $-1 1 0 0 0 1 0 0 0 1 60.69643238624225 39.412206883521854 10.940204136166308 1 rotate no_reflect no_shear #
lump $-1 $-1 $23 $2 #
transform $-1 1 0 0 0 1 0 0 0 1 60.69643238624225 39.412206883521854 10.940204136166308 1 rotate no_reflect no_shear #
lump $-1 $-1 $24 $3 #
transform $-1 1 0 0 0 1 0 0 0 1 60.69643238624225 39.412206883521854 10.940204136166308 1 rotate no_reflect no_shear #
lump $-1 $-1 $25 $4 #
transform $-1 1 0 0 0 1 0 0 0 1 60.69643238624225 39.412206883521854 10.940204136166308 1 rotate no_reflect no_shear #
lump $-1 $-1 $26 $5 #
transform $-1 1 0 0 0 1 0 0 0 1 60.69643238624225 39.412206883521854 10.940204136166308 1 rotate no_reflect no_shear #
lump $-1 $-1 $27 $6 #
transform $-1 1 0 0 0 1 0 0 0 1 60.69643238624225 39.412206883521854 10.940204136166308 1 rotate no_reflect no_shear #
shell $-1 $-1 $-1 $28 $-1 $7 #
shell $-1 $-1 $-1 $29 $-1 $9 #
shell $-1 $-1 $-1 $30 $-1 $11 #
shell $-1 $-1 $-1 $31 $-1 $13 #
shell $-1 $-1 $-1 $32 $-1 $15 #
shell $-1 $-1 $-1 $33 $-1 $17 #
shell $-1 $-1 $-1 $34 $-1 $19 #
face $-1 $35 $36 $21 $-1 $37 forward single #
face $-1 $38 $39 $22 $-1 $40 forward single #
face $-1 $41 $42 $23 $-1 $43 forward single #
face $-1 $44 $45 $24 $-1 $46 reversed single #
face $-1 $47 $48 $25 $-1 $49 forward single #
face $-1 $50 $51 $26 $-1 $52 reversed single #
face $-1 $53 $54 $27 $-1 $55 forward single #
face $-1 $56 $57 $21 $-1 $58 reversed single #
loop $-1 $-1 $59 $28 #
plane-surface $-1 0 0 10.940204136166308 0 0 1 1 0 0 forward_v I I I I #
face $-1 $60 $61 $22 $-1 $62 reversed single #
loop $-1 $-1 $63 $29 #
plane-surface $-1 0 -32.533780987787736 -7.940204136166308 0 0 1 1 0 0 forward_v I I I I #
face $-1 $64 $65 $23 $-1 $66 reversed single #
loop $-1 $-1 $67 $30 #
plane-surface $-1 0 32.533780987787743 -7.940204136166308 0 0 1 1 0 0 forward_v I I I I #
face $-1 $68 $69 $24 $-1 $70 reversed single #
loop $-1 $-1 $71 $31 #
plane-surface $-1 -121.39286558566329 -1.0658141036401503e-014 112.08543390222874 0 -1 0 0.50000000669873634 0 -0.8660253999169214 forward_v I I I I #
face $-1 $72 $73 $25 $-1 $74 forward single #
loop $-1 $75 $76 $32 #
cone-surface $-1 -56.196507243283442 -4.7687533448118131 7.1301795796163923 0.50000000669873634 0 -0.8660253999169214 1.2990380998753821 0 0.75000001004810457 1 I I 0 1 1.5 forward I I I I #
face $-1 $77 $78 $26 $-1 $79 reversed single #
loop $-1 $-1 $80 $33 #
plane-surface $-1 -121.39286558566329 25.655355092053615 112.08543390222874 0 -1 0 0.50000000669873634 0 -0.8660253999169214 forward_v I I I I #
face $-1 $81 $82 $27 $-1 $83 forward single #
loop $-1 $84 $85 $34 #
cone-surface $-1 -56.196507243283442 20.886601747241805 7.1301795796163923 0.50000000669873634 0 -0.8660253999169214 1.2990380998753821 0 0.75000001004810457 1 I I 0 1 1.5 forward I I I I #
face $-1 $86 $87 $21 $-1 $88 reversed single #
loop $-1 $-1 $89 $35 #
plane-surface $-1 0 0 -10.940204136166308 0 0 1 1 0 0 forward_v I I I I #
coedge $-1 $90 $91 $92 $93 forward $36 $-1 #
face $-1 $94 $95 $22 $-1 $96 reversed single #
loop $-1 $-1 $97 $38 #
plane-surface $-1 0 -25.655355092053622 -9.440204136166308 0 -1 0 0 0 -1 forward_v I I I I #
coedge $-1 $98 $99 $100 $101 reversed $39 $-1 #
face $-1 $102 $103 $23 $-1 $104 reversed single #
loop $-1 $-1 $105 $41 #
plane-surface $-1 0 25.655355092053625 -9.440204136166308 0 1 0 0 0 1 forward_v I I I I #
coedge $-1 $106 $107 $108 $109 reversed $42 $-1 #
face $-1 $110 $111 $24 $-1 $112 reversed single #
loop $-1 $-1 $113 $44 #
plane-surface $-1 -60.696432386242243 -4.7687533448118202 6.9561296405770889 -0.50000000669873634 0 0.8660253999169214 0.8660253999169214 0 0.50000000669873634 forward_v I I I I #
coedge $-1 $114 $115 $116 $117 reversed $45 $-1 #
face $-1 $-1 $118 $25 $-1 $119 forward single #
loop $-1 $120 $121 $47 #
cone-surface $-1 -54.77189175741659 -4.7687533448118131 4.6626732209233861 0.50000000669873634 0 -0.8660253999169214 0.64951904993769105 0 0.37500000502405229 1 I I -0.70710678118654757 0.70710678118654757 0.75 forward I I I I #
loop $-1 $-1 $122 $32 #
coedge $-1 $76 $76 $123 $124 reversed $48 $-1 #
face $-1 $125 $126 $26 $-1 $127 reversed single #
loop $-1 $-1 $128 $50 #
plane-surface $-1 -60.696432386242243 20.886601747241805 6.9561296405770889 -0.50000000669873634 0 0.8660253999169214 0.8660253999169214 0 0.50000000669873634 forward_v I I I I #
coedge $-1 $129 $130 $131 $132 reversed $51 $-1 #
face $-1 $-1 $133 $27 $-1 $134 forward single #
loop $-1 $135 $136 $53 #
cone-surface $-1 -54.77189175741659 20.886601747241805 4.6626732209233861 0.50000000669873634 0 -0.8660253999169214 0.64951904993769105 0 0.37500000502405229 1 I I -0.70710678118654757 0.70710678118654757 0.75 forward I I I I #
loop $-1 $-1 $137 $34 #
coedge $-1 $85 $85 $138 $139 reversed $54 $-1 #
face $-1 $140 $141 $21 $-1 $142 reversed single #
loop $-1 $-1 $143 $56 #
plane-surface $-1 0 -39.412206883521854 0 0 1 0 0 0 1 forward_v I I I I #
coedge $-1 $144 $145 $146 $147 forward $57 $-1 #
coedge $-1 $148 $59 $149 $150 forward $36 $-1 #
coedge $-1 $59 $148 $151 $152 forward $36 $-1 #
coedge $-1 $153 $154 $59 $93 reversed $155 $-1 #
edge $-1 $156 -39.412206883521854 $157 39.412206883521854 $92 $158 forward 7 unknown #
face $-1 $159 $160 $22 $-1 $161 reversed single #
loop $-1 $-1 $162 $60 #
plane-surface $-1 0 0 -10.940204136166308 0 0 1 1 0 0 forward_v I I I I #
coedge $-1 $163 $164 $165 $166 reversed $61 $-1 #
coedge $-1 $167 $63 $164 $168 forward $39 $-1 #
coedge $-1 $63 $167 $169 $170 reversed $39 $-1 #
coedge $-1 $171 $165 $63 $101 forward $160 $-1 #
edge $-1 $172 9.3884645981597536 $173 23.145316389627986 $100 $174 forward 7 unknown #
face $-1 $175 $176 $23 $-1 $177 reversed single #
loop $-1 $-1 $108 $64 #
plane-surface $-1 60.69643238624225 0 0 -1 0 0 0 0 1 forward_v I I I I #
coedge $-1 $178 $179 $180 $181 reversed $65 $-1 #
coedge $-1 $182 $67 $183 $184 reversed $42 $-1 #
coedge $-1 $67 $182 $179 $185 forward $42 $-1 #
coedge $-1 $186 $187 $67 $109 forward $103 $-1 #
edge $-1 $188 -23.14531638962799 $189 -9.3884645981597536 $108 $190 forward 7 unknown #
face $-1 $191 $192 $24 $-1 $193 reversed single #
loop $-1 $-1 $194 $68 #
plane-surface $-1 -121.39286558566329 -9.5375066896236298 112.08543390222874 0 1 0 -0.50000000669873634 0 0.8660253999169214 forward_v I I I I #
coedge $-1 $195 $196 $197 $198 reversed $69 $-1 #
coedge $-1 $115 $71 $199 $200 reversed $45 $-1 #
coedge $-1 $71 $114 $195 $201 reversed $45 $-1 #
coedge $-1 $197 $202 $71 $117 forward $192 $-1 #
edge $-1 $203 45.102512814948064 $204 49.08658731053729 $116 $205 forward 7 unknown #
loop $-1 $-1 $123 $72 #
plane-surface $-1 -60.696432386242243 -4.7687533448118202 6.9561296405770889 -0.50000000669873634 0 0.8660253999169214 0.8660253999169214 0 0.50000000669873634 forward_v I I I I #
loop $-1 $-1 $206 $47 #
coedge $-1 $121 $121 $122 $207 reversed $73 $-1 #
coedge $-1 $122 $122 $121 $207 forward $75 $-1 #
coedge $-1 $123 $123 $76 $124 forward $118 $-1 #
edge $-1 $208 0 $208 6.2831853071796004 $123 $209 forward 7 unknown #
face $-1 $210 $211 $26 $-1 $212 forward single #
loop $-1 $-1 $213 $77 #
plane-surface $-1 -121.39286558566329 16.117848402429996 112.08543390222874 0 1 0 -0.50000000669873634 0 0.8660253999169214 forward_v I I I I #
coedge $-1 $214 $215 $216 $217 reversed $78 $-1 #
coedge $-1 $130 $80 $218 $219 reversed $51 $-1 #
coedge $-1 $80 $129 $214 $220 reversed $51 $-1 #
coedge $-1 $216 $221 $80 $132 forward $222 $-1 #
edge $-1 $223 45.102512814948064 $224 49.08658731053729 $131 $225 forward 7 unknown #
loop $-1 $-1 $138 $81 #
plane-surface $-1 -60.696432386242243 20.886601747241805 6.9561296405770889 -0.50000000669873634 0 0.8660253999169214 0.8660253999169214 0 0.50000000669873634 forward_v I I I I #
loop $-1 $-1 $226 $53 #
coedge $-1 $136 $136 $137 $227 reversed $82 $-1 #
coedge $-1 $137 $137 $136 $227 forward $84 $-1 #
coedge $-1 $138 $138 $85 $139 forward $133 $-1 #
edge $-1 $228 0 $228 6.2831853071796004 $138 $229 forward 7 unknown #
face $-1 $230 $231 $21 $-1 $232 reversed single #
loop $-1 $-1 $233 $86 #
plane-surface $-1 -60.69643238624225 0 0 1 0 0 0 0 -1 forward_v I I I I #
coedge $-1 $234 $151 $235 $236 forward $87 $-1 #
coedge $-1 $237 $89 $234 $238 forward $57 $-1 #
coedge $-1 $89 $237 $239 $240 forward $57 $-1 #
coedge $-1 $154 $153 $89 $147 reversed $155 $-1 #
edge $-1 $241 -39.412206883521854 $242 39.412206883521854 $146 $243 forward 7 unknown #
coedge $-1 $91 $90 $244 $245 forward $36 $-1 #
coedge $-1 $246 $247 $90 $150 reversed $231 $-1 #
edge $-1 $157 -60.69643238624225 $248 60.69643238624225 $149 $249 forward 7 unknown #
coedge $-1 $143 $250 $91 $152 reversed $87 $-1 #
edge $-1 $251 -60.69643238624225 $156 60.69643238624225 $151 $252 forward 7 unknown #
coedge $-1 $146 $92 $250 $253 forward $155 $-1 #
coedge $-1 $92 $146 $246 $254 reversed $155 $-1 #
loop $-1 $-1 $153 $230 #
vertex $-1 $93 $255 #
vertex $-1 $93 $256 #
straight-curve $-1 60.69643238624225 0 10.940204136166308 0 1 0 I I #
face $-1 $257 $258 $22 $-1 $259 reversed single #
loop $-1 $-1 $165 $94 #
plane-surface $-1 60.69643238624225 0 0 -1 0 0 0 0 1 forward_v I I I I #
coedge $-1 $260 $261 $163 $262 forward $95 $-1 #
coedge $-1 $263 $97 $162 $262 reversed $61 $-1 #
coedge $-1 $97 $263 $98 $168 reversed $61 $-1 #
coedge $-1 $100 $264 $97 $166 forward $160 $-1 #
edge $-1 $265 -6.220102068083154 $172 -3.220102068083154 $165 $266 forward 7 unknown #
coedge $-1 $99 $98 $267 $268 reversed $39 $-1 #
edge $-1 $172 -60.69643238624225 $269 60.69643238624225 $164 $270 forward 7 unknown #
coedge $-1 $271 $272 $99 $170 forward $258 $-1 #
edge $-1 $173 -60.69643238624225 $273 60.69643238624225 $169 $274 forward 7 unknown #
coedge $-1 $264 $100 $272 $275 forward $160 $-1 #
vertex $-1 $101 $276 #
vertex $-1 $275 $277 #
straight-curve $-1 60.69643238624225 -16.266890493893868 -7.940204136166308 0 -1 0 I I #
face $-1 $278 $279 $23 $-1 $280 reversed single #
loop $-1 $-1 $281 $102 #
plane-surface $-1 0 0 -10.940204136166308 0 0 1 1 0 0 forward_v I I I I #
coedge $-1 $282 $105 $281 $283 reversed $65 $-1 #
coedge $-1 $105 $282 $107 $185 reversed $65 $-1 #
coedge $-1 $284 $285 $105 $181 forward $279 $-1 #
edge $-1 $286 -6.220102068083154 $287 -3.220102068083154 $180 $288 forward 7 unknown #
coedge $-1 $107 $106 $284 $289 reversed $42 $-1 #
coedge $-1 $290 $291 $106 $184 forward $292 $-1 #
edge $-1 $293 -60.69643238624225 $188 60.69643238624225 $183 $294 forward 7 unknown #
edge $-1 $287 -60.69643238624225 $189 60.69643238624225 $179 $295 forward 7 unknown #
coedge $-1 $296 $108 $282 $297 forward $103 $-1 #
coedge $-1 $108 $296 $290 $298 reversed $103 $-1 #
vertex $-1 $298 $299 #
vertex $-1 $109 $300 #
straight-curve $-1 60.69643238624225 16.266890493893872 -7.940204136166308 0 -1 0 I I #
face $-1 $-1 $301 $24 $-1 $302 forward single #
loop $-1 $-1 $116 $110 #
plane-surface $-1 -60.69643238624225 0 0 1 0 0 0 0 -1 forward_v I I I I #
coedge $-1 $303 $304 $305 $306 reversed $111 $-1 #
coedge $-1 $307 $113 $115 $201 forward $69 $-1 #
coedge $-1 $113 $307 $303 $308 forward $69 $-1 #
coedge $-1 $305 $116 $113 $198 forward $192 $-1 #
edge $-1 $204 -2.3843766724058995 $309 7.1531300172177197 $197 $310 forward 7 unknown #
coedge $-1 $311 $312 $114 $200 forward $301 $-1 #
edge $-1 $313 -6.900619730821461 $203 -4.0658939326476684e-007 $199 $314 forward 7 unknown #
edge $-1 $204 -8.3739266479457192e-015 $313 7.9681488844253803 $115 $315 forward 7 unknown #
coedge $-1 $116 $305 $311 $316 reversed $192 $-1 #
vertex $-1 $316 $317 #
vertex $-1 $117 $318 #
straight-curve $-1 -60.69643238624225 -1.0658141036401503e-014 56.042716951114372 0 0 -1 I I #
coedge $-1 $206 $206 $-1 $319 reversed $120 $-1 #
edge $-1 $320 0 $320 6.2831853071796004 $121 $321 forward 7 unknown #
vertex $-1 $124 $322 #
ellipse-curve $-1 -57.246122724126231 -4.7687533448118131 8.9481668883716896 -0.50000000669873634 0 0.8660253999169214 1.2990380998753821 0 0.75000001004810457 1 I I #
face $-1 $-1 $222 $26 $-1 $323 reversed single #
loop $-1 $-1 $324 $125 #
plane-surface $-1 0 0 10.940204136166308 0 0 1 1 0 0 forward_v I I I I #
coedge $-1 $325 $326 $327 $328 reversed $126 $-1 #
coedge $-1 $329 $128 $130 $220 forward $78 $-1 #
coedge $-1 $128 $329 $325 $330 forward $78 $-1 #
coedge $-1 $327 $131 $128 $217 forward $222 $-1 #
edge $-1 $224 -15.212054218432712 $331 -5.674547528809093 $216 $332 forward 7 unknown #
coedge $-1 $333 $334 $129 $219 forward $211 $-1 #
edge $-1 $335 -6.900619730821461 $223 -4.0658939326476684e-007 $218 $336 forward 7 unknown #
edge $-1 $224 -8.3739266479457192e-015 $335 7.9681488844253803 $130 $337 forward 7 unknown #
coedge $-1 $131 $327 $333 $338 reversed $222 $-1 #
loop $-1 $-1 $327 $210 #
vertex $-1 $338 $339 #
vertex $-1 $132 $340 #
straight-curve $-1 -60.69643238624225 25.655355092053615 56.042716951114372 0 0 -1 I I #
coedge $-1 $226 $226 $-1 $341 reversed $135 $-1 #
edge $-1 $342 0 $342 6.2831853071796004 $136 $343 forward 7 unknown #
vertex $-1 $139 $344 #
ellipse-curve $-1 -57.246122724126231 20.886601747241805 8.9481668883716896 -0.50000000669873634 0 0.8660253999169214 1.2990380998753821 0 0.75000001004810457 1 I I #
face $-1 $-1 $155 $21 $-1 $345 reversed single #
loop $-1 $-1 $246 $140 #
plane-surface $-1 0 39.412206883521854 0 0 -1 0 0 0 -1 forward_v I I I I #
coedge $-1 $346 $244 $247 $347 forward $141 $-1 #
coedge $-1 $250 $143 $144 $238 reversed $87 $-1 #
coedge $-1 $244 $346 $143 $236 reversed $141 $-1 #
edge $-1 $251 -10.940204136166308 $348 10.940204136166308 $235 $349 forward 7 unknown #
coedge $-1 $145 $144 $346 $350 forward $57 $-1 #
edge $-1 $242 -60.69643238624225 $348 60.69643238624225 $234 $351 forward 7 unknown #
coedge $-1 $247 $246 $145 $240 reversed $231 $-1 #
edge $-1 $352 -60.69643238624225 $241 60.69643238624225 $239 $353 forward 7 unknown #
vertex $-1 $147 $354 #
vertex $-1 $253 $355 #
straight-curve $-1 60.69643238624225 0 -10.940204136166308 0 -1 0 I I #
coedge $-1 $233 $235 $148 $245 reversed $141 $-1 #
edge $-1 $248 -39.412206883521854 $251 39.412206883521854 $244 $356 forward 7 unknown #
coedge $-1 $239 $149 $154 $254 forward $231 $-1 #
coedge $-1 $149 $239 $233 $347 reversed $231 $-1 #
vertex $-1 $150 $357 #
straight-curve $-1 0 39.412206883521854 10.940204136166308 -1 0 0 I I #
coedge $-1 $151 $234 $153 $253 reversed $87 $-1 #
vertex $-1 $245 $358 #
straight-curve $-1 0 -39.412206883521854 10.940204136166308 1 0 0 I I #
edge $-1 $156 -10.940204136166308 $242 10.940204136166308 $153 $359 forward 7 unknown #
edge $-1 $157 -10.940204136166308 $241 10.940204136166308 $154 $360 forward 7 unknown #
point $-1 60.69643238624225 -39.412206883521854 10.940204136166308 #
point $-1 60.69643238624225 39.412206883521854 10.940204136166308 #
face $-1 $-1 $361 $22 $-1 $362 reversed single #
loop $-1 $-1 $169 $159 #
plane-surface $-1 0 -39.412206883521854 0 0 1 0 0 0 1 forward_v I I I I #
coedge $-1 $363 $162 $264 $364 forward $95 $-1 #
coedge $-1 $162 $363 $365 $366 forward $95 $-1 #
edge $-1 $367 -60.69643238624225 $265 60.69643238624225 $162 $368 forward 7 unknown #
coedge $-1 $164 $163 $369 $370 reversed $61 $-1 #
coedge $-1 $165 $171 $260 $364 reversed $160 $-1 #
vertex $-1 $364 $371 #
straight-curve $-1 60.69643238624225 -25.655355092053622 -4.720102068083154 0 0 1 I I #
coedge $-1 $369 $372 $167 $268 forward $361 $-1 #
edge $-1 $273 -23.145316389627986 $269 -9.3884645981597536 $267 $373 forward 7 unknown #
vertex $-1 $268 $374 #
straight-curve $-1 0 -25.655355092053622 -7.940204136166308 -1 0 0 I I #
coedge $-1 $375 $169 $372 $376 forward $258 $-1 #
coedge $-1 $169 $375 $171 $275 reversed $258 $-1 #
vertex $-1 $376 $377 #
straight-curve $-1 0 -39.412206883521854 -7.940204136166308 -1 0 0 I I #
edge $-1 $173 7.940204136166308 $378 10.940204136166308 $171 $379 forward 7 unknown #
point $-1 60.69643238624225 -25.655355092053622 -7.940204136166308 #
point $-1 60.69643238624225 -39.412206883521854 -7.940204136166308 #
face $-1 $-1 $292 $23 $-1 $380 reversed single #
loop $-1 $-1 $284 $175 #
plane-surface $-1 -60.69643238624225 0 0 1 0 0 0 0 -1 forward_v I I I I #
coedge $-1 $381 $382 $178 $283 forward $176 $-1 #
coedge $-1 $179 $178 $186 $297 reversed $65 $-1 #
edge $-1 $383 -60.69643238624225 $286 60.69643238624225 $281 $384 forward 7 unknown #
coedge $-1 $385 $180 $182 $289 forward $279 $-1 #
coedge $-1 $180 $385 $381 $386 reversed $279 $-1 #
vertex $-1 $386 $387 #
vertex $-1 $289 $388 #
straight-curve $-1 -60.69643238624225 25.655355092053625 -4.720102068083154 0 0 1 I I #
edge $-1 $287 9.3884645981597536 $293 23.14531638962799 $284 $389 forward 7 unknown #
coedge $-1 $390 $183 $187 $298 forward $292 $-1 #
coedge $-1 $183 $390 $385 $391 reversed $292 $-1 #
loop $-1 $-1 $183 $278 #
vertex $-1 $391 $392 #
straight-curve $-1 0 39.412206883521854 -7.940204136166308 1 0 0 I I #
straight-curve $-1 0 25.655355092053625 -7.940204136166308 1 0 0 I I #
coedge $-1 $187 $186 $382 $393 reversed $103 $-1 #
edge $-1 $189 3.220102068083154 $383 6.220102068083154 $186 $394 forward 7 unknown #
edge $-1 $188 7.940204136166308 $395 10.940204136166308 $187 $396 forward 7 unknown #
point $-1 60.69643238624225 39.412206883521861 -7.940204136166308 #
point $-1 60.69643238624225 25.655355092053625 -7.940204136166308 #
loop $-1 $-1 $199 $191 #
plane-surface $-1 0 0 10.940204136166308 0 0 1 1 0 0 forward_v I I I I #
coedge $-1 $304 $194 $196 $308 reversed $111 $-1 #
coedge $-1 $194 $303 $397 $398 reversed $111 $-1 #
coedge $-1 $202 $197 $194 $306 forward $192 $-1 #
edge $-1 $309 -49.08658731053729 $399 -45.102512814948064 $305 $400 forward 7 unknown #
coedge $-1 $196 $195 $312 $401 reversed $69 $-1 #
edge $-1 $402 -7.9681488844253803 $309 8.3739266479457192e-015 $303 $403 forward 7 unknown #
vertex $-1 $198 $404 #
straight-curve $-1 -60.69643238624225 -2.3843766724059101 6.9561296405770863 0 -1 0 I I #
coedge $-1 $397 $199 $202 $316 forward $301 $-1 #
coedge $-1 $199 $397 $307 $401 forward $301 $-1 #
vertex $-1 $200 $405 #
straight-curve $-1 -60.696432792831644 -1.0658141036401503e-014 10.940204136166308 -1 0 0 I I #
straight-curve $-1 -60.696432386242243 -1.0658141036401503e-014 6.9561296405770889 0.8660253999169214 0 0.50000000669873634 I I #
edge $-1 $203 1.0658141036401503e-014 $399 9.5375066896236298 $202 $406 forward 7 unknown #
point $-1 -60.69643238624225 -1.0658141036401503e-014 10.940204136166308 #
point $-1 -60.69643238624225 -1.0658141036401503e-014 6.9561296405770845 #
edge $-1 $407 1 $407 0 $206 $-1 forward 7 unknown #
vertex $-1 $207 $408 #
ellipse-curve $-1 -55.146891762440646 -4.7687533448118131 5.3121922708610771 -0.50000000669873634 0 0.8660253999169214 1.2990380998753821 0 0.75000001004810457 1 I I #
point $-1 -55.947084624250856 -4.7687533448118131 9.6981668984198137 #
plane-surface $-1 -60.69643238624225 0 0 1 0 0 0 0 -1 forward_v I I I I #
coedge $-1 $334 $333 $326 $409 forward $211 $-1 #
coedge $-1 $326 $213 $215 $330 reversed $126 $-1 #
coedge $-1 $213 $325 $324 $409 reversed $126 $-1 #
coedge $-1 $221 $216 $213 $328 forward $222 $-1 #
edge $-1 $331 -49.08658731053729 $410 -45.102512814948064 $327 $411 forward 7 unknown #
coedge $-1 $215 $214 $334 $412 reversed $78 $-1 #
edge $-1 $413 -7.9681488844253803 $331 8.3739266479457192e-015 $325 $414 forward 7 unknown #
vertex $-1 $217 $415 #
straight-curve $-1 -60.69643238624225 10.443300873620903 6.9561296405770863 0 -1 0 I I #
coedge $-1 $324 $218 $221 $338 forward $211 $-1 #
coedge $-1 $218 $324 $329 $412 forward $211 $-1 #
vertex $-1 $219 $416 #
straight-curve $-1 -60.696432792831644 25.655355092053615 10.940204136166308 -1 0 0 I I #
straight-curve $-1 -60.696432386242243 25.655355092053615 6.9561296405770889 0.8660253999169214 0 0.50000000669873634 I I #
edge $-1 $223 -25.655355092053615 $410 -16.117848402429996 $221 $417 forward 7 unknown #
point $-1 -60.69643238624225 25.655355092053615 10.940204136166308 #
point $-1 -60.69643238624225 25.655355092053615 6.9561296405770845 #
edge $-1 $418 1 $418 0 $226 $-1 forward 7 unknown #
vertex $-1 $227 $419 #
ellipse-curve $-1 -55.146891762440646 20.886601747241805 5.3121922708610771 -0.50000000669873634 0 0.8660253999169214 1.2990380998753821 0 0.75000001004810457 1 I I #
point $-1 -55.947084624250856 20.886601747241805 9.6981668984198137 #
plane-surface $-1 60.69643238624225 0 0 -1 0 0 0 0 1 forward_v I I I I #
coedge $-1 $235 $233 $237 $350 reversed $141 $-1 #
edge $-1 $248 -10.940204136166308 $352 10.940204136166308 $247 $420 forward 7 unknown #
vertex $-1 $350 $421 #
straight-curve $-1 -60.69643238624225 -39.412206883521854 0 0 0 -1 I I #
edge $-1 $348 -39.412206883521854 $352 39.412206883521854 $346 $422 forward 7 unknown #
straight-curve $-1 0 -39.412206883521854 -10.940204136166308 -1 0 0 I I #
vertex $-1 $240 $423 #
straight-curve $-1 0 39.412206883521854 -10.940204136166308 1 0 0 I I #
point $-1 60.69643238624225 39.412206883521854 -10.940204136166308 #
point $-1 60.69643238624225 -39.412206883521854 -10.940204136166308 #
straight-curve $-1 -60.69643238624225 0 10.940204136166308 0 -1 0 I I #
point $-1 -60.69643238624225 39.412206883521854 10.940204136166308 #
point $-1 -60.69643238624225 -39.412206883521854 10.940204136166308 #
straight-curve $-1 60.69643238624225 -39.412206883521854 0 0 0 -1 I I #
straight-curve $-1 60.69643238624225 39.412206883521854 0 0 0 -1 I I #
loop $-1 $-1 $369 $257 #
plane-surface $-1 -60.69643238624225 0 0 1 0 0 0 0 -1 forward_v I I I I #
coedge $-1 $261 $260 $375 $424 forward $95 $-1 #
edge $-1 $265 25.655355092053622 $378 39.412206883521854 $264 $425 forward 7 unknown #
coedge $-1 $372 $369 $261 $366 reversed $361 $-1 #
edge $-1 $426 -39.412206883521854 $367 -25.655355092053622 $365 $427 forward 7 unknown #
vertex $-1 $370 $428 #
straight-curve $-1 0 -25.655355092053622 -10.940204136166308 1 0 0 I I #
coedge $-1 $365 $267 $263 $370 forward $361 $-1 #
edge $-1 $269 3.220102068083154 $367 6.220102068083154 $369 $429 forward 7 unknown #
point $-1 60.69643238624225 -25.655355092053622 -10.940204136166308 #
coedge $-1 $267 $365 $271 $376 reversed $361 $-1 #
straight-curve $-1 -60.69643238624225 -16.266890493893868 -7.940204136166308 0 1 0 I I #
point $-1 -60.69643238624225 -25.655355092053622 -7.940204136166308 #
coedge $-1 $272 $271 $363 $424 reversed $258 $-1 #
edge $-1 $273 7.940204136166308 $426 10.940204136166308 $372 $430 forward 7 unknown #
point $-1 -60.69643238624225 -39.412206883521854 -7.940204136166308 #
vertex $-1 $275 $431 #
straight-curve $-1 60.69643238624225 -39.412206883521854 0 0 0 -1 I I #
plane-surface $-1 0 39.412206883521854 0 0 -1 0 0 0 -1 forward_v I I I I #
coedge $-1 $432 $281 $285 $386 forward $176 $-1 #
coedge $-1 $281 $432 $296 $393 forward $176 $-1 #
vertex $-1 $283 $433 #
straight-curve $-1 0 25.655355092053625 -10.940204136166308 -1 0 0 I I #
coedge $-1 $285 $284 $291 $391 forward $279 $-1 #
edge $-1 $286 25.655355092053625 $434 39.412206883521854 $285 $435 forward 7 unknown #
point $-1 -60.69643238624225 25.655355092053625 -10.940204136166308 #
point $-1 -60.69643238624225 25.655355092053625 -7.940204136166308 #
straight-curve $-1 -60.69643238624225 16.266890493893872 -7.940204136166308 0 1 0 I I #
coedge $-1 $291 $290 $432 $436 reversed $292 $-1 #
edge $-1 $293 7.940204136166308 $434 10.940204136166308 $291 $437 forward 7 unknown #
point $-1 -60.69643238624225 39.412206883521861 -7.940204136166308 #
edge $-1 $395 -39.412206883521854 $383 -25.655355092053625 $296 $438 forward 7 unknown #
straight-curve $-1 60.69643238624225 25.655355092053625 -4.720102068083154 0 0 -1 I I #
vertex $-1 $393 $439 #
straight-curve $-1 60.69643238624225 39.412206883521854 0 0 0 -1 I I #
coedge $-1 $312 $311 $304 $398 forward $301 $-1 #
edge $-1 $399 4.0658939326476684e-007 $402 6.900619730821461 $397 $440 forward 7 unknown #
vertex $-1 $398 $441 #
straight-curve $-1 -60.69643238624225 -9.5375066896236298 56.042716951114372 0 0 1 I I #
edge $-1 $402 -7.1531300172177197 $313 2.3843766724058995 $312 $442 forward 7 unknown #
vertex $-1 $401 $443 #
straight-curve $-1 -60.696432386242243 -9.5375066896236298 6.9561296405770889 -0.8660253999169214 0 -0.50000000669873634 I I #
point $-1 -60.69643238624225 -9.5375066896236298 6.9561296405770845 #
point $-1 -53.795813062010183 -1.0658141036401503e-014 10.940204136166308 #
straight-curve $-1 -60.69643238624225 0 10.940204136166308 0 -1 0 I I #
vertex $-1 $319 $444 #
point $-1 -53.847853662565257 -4.7687533448118131 6.0621922809091817 #
edge $-1 $410 4.0658939326476684e-007 $413 6.900619730821461 $324 $445 forward 7 unknown #
vertex $-1 $409 $446 #
straight-curve $-1 -60.69643238624225 16.117848402429996 56.042716951114372 0 0 1 I I #
edge $-1 $413 5.674547528809093 $335 15.212054218432712 $334 $447 forward 7 unknown #
vertex $-1 $412 $448 #
straight-curve $-1 -60.696432386242243 16.117848402429996 6.9561296405770889 -0.8660253999169214 0 -0.50000000669873634 I I #
point $-1 -60.69643238624225 16.117848402429996 6.9561296405770845 #
point $-1 -53.795813062010183 25.655355092053615 10.940204136166308 #
straight-curve $-1 -60.69643238624225 0 10.940204136166308 0 -1 0 I I #
vertex $-1 $341 $449 #
point $-1 -53.847853662565257 20.886601747241805 6.0621922809091817 #
straight-curve $-1 -60.69643238624225 39.412206883521854 0 0 0 -1 I I #
point $-1 -60.69643238624225 -39.412206883521854 -10.940204136166308 #
straight-curve $-1 -60.69643238624225 0 -10.940204136166308 0 1 0 I I #
point $-1 -60.69643238624225 39.412206883521854 -10.940204136166308 #
edge $-1 $378 -60.69643238624225 $426 60.69643238624225 $375 $450 forward 7 unknown #
straight-curve $-1 60.69643238624225 0 -10.940204136166308 0 -1 0 I I #
vertex $-1 $366 $451 #
straight-curve $-1 -60.69643238624225 0 -10.940204136166308 0 1 0 I I #
point $-1 -60.69643238624225 -25.655355092053622 -10.940204136166308 #
straight-curve $-1 -60.69643238624225 -25.655355092053622 -4.720102068083154 0 0 -1 I I #
straight-curve $-1 -60.69643238624225 -39.412206883521854 0 0 0 -1 I I #
point $-1 60.69643238624225 -39.412206883521854 -10.940204136166308 #
coedge $-1 $382 $381 $390 $436 forward $176 $-1 #
point $-1 60.69643238624225 25.655355092053625 -10.940204136166308 #
vertex $-1 $436 $452 #
straight-curve $-1 -60.69643238624225 0 -10.940204136166308 0 1 0 I I #
edge $-1 $434 -60.69643238624225 $395 60.69643238624225 $390 $453 forward 7 unknown #
straight-curve $-1 -60.69643238624225 39.412206883521854 0 0 0 -1 I I #
straight-curve $-1 60.69643238624225 0 -10.940204136166308 0 -1 0 I I #
point $-1 60.69643238624225 39.412206883521854 -10.940204136166308 #
straight-curve $-1 -60.696432792831644 -9.5375066896236298 10.940204136166308 1 0 0 I I #
point $-1 -60.69643238624225 -9.5375066896236298 10.940204136166308 #
straight-curve $-1 -53.795813062010183 -2.3843766724059101 10.940204136166308 0 1 0 I I #
point $-1 -53.795813062010183 -9.5375066896236298 10.940204136166308 #
point $-1 -54.396891752392534 -4.7687533448118131 4.013154170985695 #
straight-curve $-1 -60.696432792831644 16.117848402429996 10.940204136166308 1 0 0 I I #
point $-1 -60.69643238624225 16.117848402429996 10.940204136166308 #
straight-curve $-1 -53.795813062010183 10.443300873620903 10.940204136166308 0 1 0 I I #
point $-1 -53.795813062010183 16.117848402429996 10.940204136166308 #
point $-1 -54.396891752392534 20.886601747241805 4.013154170985695 #
straight-curve $-1 0 -39.412206883521854 -10.940204136166308 -1 0 0 I I #
point $-1 -60.69643238624225 -39.412206883521854 -10.940204136166308 #
point $-1 -60.69643238624225 39.412206883521854 -10.940204136166308 #
straight-curve $-1 0 39.412206883521854 -10.940204136166308 1 0 0 I I #
End-of-ACIS-data 