500 0 6 0           
7 Unknown 11 ACIS 5.0 NT 24 Thu Mar 25 23:06:12 1999 
-1 9.9999999999999995e-007 1e-010 
body $-1 $6 $-1 $7 #
body $-1 $8 $-1 $9 #
body $-1 $10 $-1 $11 #
body $-1 $12 $-1 $13 #
body $-1 $14 $-1 $15 #
body $-1 $16 $-1 $17 #
lump $-1 $-1 $18 $0 #
transform $-1 1 0 0 0 1 0 0 0 1 57.741019928586688 30.778235058891198 9.603932748180581 1 rotate no_reflect no_shear #
lump $-1 $-1 $19 $1 #
transform $-1 1 0 0 0 1 0 0 0 1 57.741019928586688 30.778235058891198 9.603932748180581 1 rotate no_reflect no_shear #
lump $-1 $-1 $20 $2 #
transform $-1 1 0 0 0 1 0 0 0 1 57.741019928586688 30.778235058891198 9.603932748180581 1 rotate no_reflect no_shear #
lump $-1 $-1 $21 $3 #
transform $-1 1 0 0 0 1 0 0 0 1 57.741019928586688 30.778235058891198 9.603932748180581 1 rotate no_reflect no_shear #
lump $-1 $-1 $22 $4 #
transform $-1 1 0 0 0 1 0 0 0 1 57.741019928586688 30.778235058891198 9.603932748180581 1 rotate no_reflect no_shear #
lump $-1 $-1 $23 $5 #
transform $-1 1 0 0 0 1 0 0 0 1 57.741019928586688 30.778235058891198 9.603932748180581 1 rotate no_reflect no_shear #
shell $-1 $-1 $-1 $24 $-1 $6 #
shell $-1 $-1 $-1 $25 $-1 $8 #
shell $-1 $-1 $-1 $26 $-1 $10 #
shell $-1 $-1 $-1 $27 $-1 $12 #
shell $-1 $-1 $-1 $28 $-1 $14 #
shell $-1 $-1 $-1 $29 $-1 $16 #
face $-1 $30 $31 $18 $-1 $32 forward single #
face $-1 $33 $34 $19 $-1 $35 forward single #
face $-1 $36 $37 $20 $-1 $38 forward single #
face $-1 $39 $40 $21 $-1 $41 reversed single #
face $-1 $42 $43 $22 $-1 $44 forward single #
face $-1 $45 $46 $23 $-1 $47 forward single #
face $-1 $48 $49 $18 $-1 $50 reversed single #
loop $-1 $-1 $51 $24 #
plane-surface $-1 0 0 9.603932748180581 0 0 1 1 0 0 forward_v I I I I #
face $-1 $52 $53 $19 $-1 $54 reversed single #
loop $-1 $-1 $55 $25 #
plane-surface $-1 -57.741019928586688 0 0 1 0 0 0 0 -1 forward_v I I I I #
face $-1 $56 $57 $20 $-1 $58 reversed single #
loop $-1 $-1 $59 $26 #
plane-surface $-1 57.741019928586688 0 0 -1 0 0 0 0 1 forward_v I I I I #
face $-1 $60 $61 $21 $-1 $62 reversed single #
loop $-1 $-1 $63 $27 #
plane-surface $-1 36.172393371292259 -128.71256001517938 62.963479541562052 -1 0 0 0 -0.84804810408105047 0.52991925155115449 forward_v I I I I #
face $-1 $64 $65 $22 $-1 $66 forward single #
loop $-1 $67 $68 $28 #
cone-surface $-1 17.482868538241654 -26.726177362976625 4.6835693255116517 0 0.84804810408105047 -0.52991925155115449 1.5 0 0 1 I I 0 1 1.5 forward I I I I #
face $-1 $69 $70 $23 $-1 $71 forward single #
loop $-1 $72 $73 $29 #
cone-surface $-1 28.696583438072018 -26.726177362976625 4.6835693255116517 0 0.84804810408105047 -0.52991925155115449 1.5 0 0 1 I I 0 1 1.5 forward I I I I #
face $-1 $74 $75 $18 $-1 $76 reversed single #
loop $-1 $-1 $77 $30 #
plane-surface $-1 0 0 -9.603932748180581 0 0 1 1 0 0 forward_v I I I I #
coedge $-1 $78 $79 $80 $81 forward $31 $-1 #
face $-1 $82 $83 $19 $-1 $84 forward single #
loop $-1 $-1 $85 $33 #
plane-surface $-1 0 30.778235058891198 0 0 -1 0 0 0 -1 forward_v I I I I #
coedge $-1 $86 $87 $88 $89 forward $34 $-1 #
face $-1 $90 $91 $20 $-1 $92 forward single #
loop $-1 $-1 $93 $36 #
plane-surface $-1 0 30.778235058891198 0 0 -1 0 0 0 -1 forward_v I I I I #
coedge $-1 $94 $95 $96 $97 forward $37 $-1 #
face $-1 $98 $99 $21 $-1 $100 reversed single #
loop $-1 $-1 $101 $39 #
plane-surface $-1 23.089725988156836 -30.778235058891198 1.7673234128481425 0 -0.84804810408105047 0.52991925155115449 1 0 0 forward_v I I I I #
coedge $-1 $102 $103 $104 $105 reversed $40 $-1 #
face $-1 $-1 $106 $22 $-1 $107 forward single #
loop $-1 $108 $109 $42 #
cone-surface $-1 17.482868538241654 -24.486512005793792 3.28407113184557 0 0.84804810408105047 -0.52991925155115449 0.75 0 0 1 I I -0.70710678118654757 0.70710678118654757 0.75 forward I I I I #
loop $-1 $-1 $110 $28 #
coedge $-1 $68 $68 $111 $112 reversed $43 $-1 #
face $-1 $-1 $113 $23 $-1 $114 forward single #
loop $-1 $115 $116 $45 #
cone-surface $-1 28.696583438072018 -24.486512005793792 3.28407113184557 0 0.84804810408105047 -0.52991925155115449 0.75 0 0 1 I I -0.70710678118654757 0.70710678118654757 0.75 forward I I I I #
loop $-1 $-1 $117 $29 #
coedge $-1 $73 $73 $118 $119 reversed $46 $-1 #
face $-1 $120 $121 $18 $-1 $122 reversed single #
loop $-1 $-1 $123 $48 #
plane-surface $-1 0 -30.778235058891198 0 0 1 0 0 0 1 forward_v I I I I #
coedge $-1 $124 $125 $126 $127 forward $49 $-1 #
coedge $-1 $128 $51 $129 $130 forward $31 $-1 #
coedge $-1 $51 $128 $131 $132 forward $31 $-1 #
coedge $-1 $133 $134 $51 $81 reversed $135 $-1 #
edge $-1 $136 -30.778235058891198 $137 30.778235058891198 $80 $138 forward 7 unknown #
face $-1 $139 $140 $19 $-1 $141 reversed single #
loop $-1 $-1 $88 $52 #
plane-surface $-1 -62.001634827537679 0 -6.603932748180581 0 0 1 1 0 0 forward_v I I I I #
coedge $-1 $142 $143 $87 $144 forward $53 $-1 #
coedge $-1 $145 $55 $146 $147 reversed $34 $-1 #
coedge $-1 $55 $145 $85 $144 reversed $34 $-1 #
coedge $-1 $148 $149 $55 $89 reversed $83 $-1 #
edge $-1 $150 -30.778235058891198 $151 30.778235058891198 $88 $152 forward 7 unknown #
face $-1 $153 $154 $20 $-1 $155 reversed single #
loop $-1 $-1 $156 $56 #
plane-surface $-1 62.001634827537679 0 -6.603932748180581 0 0 1 1 0 0 forward_v I I I I #
coedge $-1 $157 $158 $94 $159 forward $57 $-1 #
coedge $-1 $160 $59 $93 $159 reversed $37 $-1 #
coedge $-1 $59 $160 $161 $162 reversed $37 $-1 #
coedge $-1 $163 $164 $59 $97 reversed $91 $-1 #
edge $-1 $165 -30.778235058891198 $166 30.778235058891198 $96 $167 forward 7 unknown #
face $-1 $168 $169 $21 $-1 $170 forward single #
loop $-1 $-1 $171 $60 #
plane-surface $-1 10.007058605021413 -128.71256001517938 62.963479541562052 1 0 0 0 0.84804810408105047 -0.52991925155115449 forward_v I I I I #
coedge $-1 $172 $173 $174 $175 reversed $61 $-1 #
coedge $-1 $103 $63 $176 $177 reversed $40 $-1 #
coedge $-1 $63 $102 $172 $178 reversed $40 $-1 #
coedge $-1 $174 $179 $63 $105 forward $169 $-1 #
edge $-1 $180 33.578044948698491 $181 38.474901782283567 $104 $182 forward 7 unknown #
loop $-1 $-1 $111 $64 #
plane-surface $-1 23.089725988156836 -30.778235058891198 1.7673234128481425 0 -0.84804810408105047 0.52991925155115449 1 0 0 forward_v I I I I #
loop $-1 $-1 $183 $42 #
coedge $-1 $109 $109 $110 $184 reversed $65 $-1 #
coedge $-1 $110 $110 $109 $184 forward $67 $-1 #
coedge $-1 $111 $111 $68 $112 forward $106 $-1 #
edge $-1 $185 5.0267026812223208e-016 $185 6.2831853071796013 $111 $186 forward 7 unknown #
loop $-1 $-1 $118 $69 #
plane-surface $-1 23.089725988156836 -30.778235058891198 1.7673234128481425 0 -0.84804810408105047 0.52991925155115449 1 0 0 forward_v I I I I #
loop $-1 $-1 $187 $45 #
coedge $-1 $116 $116 $117 $188 reversed $70 $-1 #
coedge $-1 $117 $117 $116 $188 forward $72 $-1 #
coedge $-1 $118 $118 $73 $119 forward $113 $-1 #
edge $-1 $189 5.0267026812223208e-016 $189 6.2831853071796013 $118 $190 forward 7 unknown #
face $-1 $191 $192 $18 $-1 $193 reversed single #
loop $-1 $-1 $194 $74 #
plane-surface $-1 -57.741019928586688 0 0 1 0 0 0 0 -1 forward_v I I I I #
coedge $-1 $195 $131 $196 $197 forward $75 $-1 #
coedge $-1 $198 $77 $195 $199 forward $49 $-1 #
coedge $-1 $77 $198 $200 $201 forward $49 $-1 #
coedge $-1 $134 $133 $77 $127 reversed $135 $-1 #
edge $-1 $202 -30.778235058891198 $203 30.778235058891198 $126 $204 forward 7 unknown #
coedge $-1 $79 $78 $205 $206 forward $31 $-1 #
coedge $-1 $207 $208 $78 $130 reversed $192 $-1 #
edge $-1 $137 -57.741019928586688 $209 57.741019928586688 $129 $210 forward 7 unknown #
coedge $-1 $123 $211 $79 $132 reversed $75 $-1 #
edge $-1 $212 -57.741019928586688 $136 57.741019928586688 $131 $213 forward 7 unknown #
coedge $-1 $126 $80 $211 $214 forward $135 $-1 #
coedge $-1 $80 $126 $207 $215 reversed $135 $-1 #
loop $-1 $-1 $133 $191 #
vertex $-1 $81 $216 #
vertex $-1 $81 $217 #
straight-curve $-1 57.741019928586688 0 9.603932748180581 0 1 0 I I #
face $-1 $218 $219 $19 $-1 $220 reversed single #
loop $-1 $-1 $221 $82 #
plane-surface $-1 -66.262249726488662 0 -8.103932748180581 1 0 0 0 0 -1 forward_v I I I I #
coedge $-1 $222 $85 $223 $224 reversed $53 $-1 #
coedge $-1 $85 $222 $148 $225 reversed $53 $-1 #
edge $-1 $150 6.603932748180581 $226 9.603932748180581 $85 $227 forward 7 unknown #
coedge $-1 $87 $86 $228 $229 reversed $34 $-1 #
coedge $-1 $230 $231 $86 $147 forward $232 $-1 #
edge $-1 $233 -9.603932748180581 $151 -6.603932748180581 $146 $234 forward 7 unknown #
coedge $-1 $235 $88 $143 $225 forward $83 $-1 #
coedge $-1 $88 $235 $230 $236 forward $83 $-1 #
vertex $-1 $144 $237 #
vertex $-1 $236 $238 #
straight-curve $-1 -57.741019928586688 0 -6.603932748180581 0 -1 0 I I #
face $-1 $239 $240 $20 $-1 $241 reversed single #
loop $-1 $-1 $242 $90 #
plane-surface $-1 66.262249726488676 0 -8.103932748180581 -1 0 0 0 0 1 forward_v I I I I #
coedge $-1 $164 $163 $243 $244 forward $91 $-1 #
coedge $-1 $245 $93 $164 $246 reversed $57 $-1 #
coedge $-1 $93 $245 $247 $248 reversed $57 $-1 #
edge $-1 $249 -9.603932748180581 $166 -6.603932748180581 $93 $250 forward 7 unknown #
coedge $-1 $95 $94 $251 $252 reversed $37 $-1 #
coedge $-1 $253 $254 $95 $162 forward $255 $-1 #
edge $-1 $165 6.603932748180581 $256 9.603932748180581 $161 $257 forward 7 unknown #
coedge $-1 $156 $96 $254 $258 forward $91 $-1 #
coedge $-1 $96 $156 $157 $246 forward $91 $-1 #
vertex $-1 $162 $259 #
vertex $-1 $246 $260 #
straight-curve $-1 57.741019928586688 0 -6.603932748180581 0 1 0 I I #
face $-1 $-1 $261 $21 $-1 $262 reversed single #
loop $-1 $-1 $104 $98 #
plane-surface $-1 0 0 9.603932748180581 0 0 1 1 0 0 forward_v I I I I #
coedge $-1 $263 $264 $265 $266 reversed $99 $-1 #
coedge $-1 $267 $101 $103 $178 forward $61 $-1 #
coedge $-1 $101 $267 $263 $268 forward $61 $-1 #
coedge $-1 $265 $104 $101 $175 forward $169 $-1 #
edge $-1 $181 -24.627530377213841 $269 1.5378043890570048 $174 $270 forward 7 unknown #
coedge $-1 $271 $272 $102 $177 forward $261 $-1 #
edge $-1 $273 -29.714416357932883 $180 -21.877807022600443 $176 $274 forward 7 unknown #
edge $-1 $181 -9.2407603974590931 $273 0 $103 $275 forward 7 unknown #
coedge $-1 $104 $265 $271 $276 forward $169 $-1 #
vertex $-1 $177 $277 #
vertex $-1 $105 $278 #
straight-curve $-1 36.172393371292259 -64.356280007589689 9.6039327481805827 0 1 0 I I #
coedge $-1 $183 $183 $-1 $279 reversed $108 $-1 #
edge $-1 $280 0 $280 6.2831853071796004 $109 $281 forward 7 unknown #
vertex $-1 $112 $282 #
ellipse-curve $-1 17.482868538241654 -28.32980664209866 5.6856280805143626 0 -0.84804810408105047 0.52991925155115449 1.5 0 0 1 I I #
coedge $-1 $187 $187 $-1 $283 reversed $115 $-1 #
edge $-1 $284 0 $284 6.2831853071796004 $116 $285 forward 7 unknown #
vertex $-1 $119 $286 #
ellipse-curve $-1 28.696583438072018 -28.32980664209866 5.6856280805143626 0 -0.84804810408105047 0.52991925155115449 1.5 0 0 1 I I #
face $-1 $-1 $135 $18 $-1 $287 reversed single #
loop $-1 $-1 $207 $120 #
plane-surface $-1 0 30.778235058891198 0 0 -1 0 0 0 -1 forward_v I I I I #
coedge $-1 $288 $205 $208 $289 forward $121 $-1 #
coedge $-1 $211 $123 $124 $199 reversed $75 $-1 #
coedge $-1 $205 $288 $123 $197 reversed $121 $-1 #
edge $-1 $212 -9.603932748180581 $290 9.603932748180581 $196 $291 forward 7 unknown #
coedge $-1 $125 $124 $288 $292 forward $49 $-1 #
edge $-1 $203 -57.741019928586688 $290 57.741019928586688 $195 $293 forward 7 unknown #
coedge $-1 $208 $207 $125 $201 reversed $192 $-1 #
edge $-1 $294 -57.741019928586688 $202 57.741019928586688 $200 $295 forward 7 unknown #
vertex $-1 $127 $296 #
vertex $-1 $214 $297 #
straight-curve $-1 57.741019928586688 0 -9.603932748180581 0 -1 0 I I #
coedge $-1 $194 $196 $128 $206 reversed $121 $-1 #
edge $-1 $209 -30.778235058891198 $212 30.778235058891198 $205 $298 forward 7 unknown #
coedge $-1 $200 $129 $134 $215 forward $192 $-1 #
coedge $-1 $129 $200 $194 $289 reversed $192 $-1 #
vertex $-1 $130 $299 #
straight-curve $-1 0 30.778235058891198 9.603932748180581 -1 0 0 I I #
coedge $-1 $131 $195 $133 $214 reversed $75 $-1 #
vertex $-1 $206 $300 #
straight-curve $-1 0 -30.778235058891198 9.603932748180581 1 0 0 I I #
edge $-1 $136 -9.603932748180581 $203 9.603932748180581 $133 $301 forward 7 unknown #
edge $-1 $137 -9.603932748180581 $202 9.603932748180581 $134 $302 forward 7 unknown #
point $-1 57.741019928586688 -30.778235058891198 9.603932748180581 #
point $-1 57.741019928586688 30.778235058891198 9.603932748180581 #
face $-1 $-1 $232 $19 $-1 $303 reversed single #
loop $-1 $-1 $228 $139 #
plane-surface $-1 0 0 -9.603932748180581 0 0 1 1 0 0 forward_v I I I I #
coedge $-1 $304 $305 $222 $306 forward $140 $-1 #
coedge $-1 $143 $142 $221 $306 reversed $53 $-1 #
coedge $-1 $228 $307 $142 $224 forward $219 $-1 #
edge $-1 $308 -66.262249726488662 $226 -57.741019928586688 $142 $309 forward 7 unknown #
edge $-1 $150 -4.2606148989509904 $310 4.2606148989509833 $143 $311 forward 7 unknown #
vertex $-1 $144 $312 #
straight-curve $-1 -57.741019928586688 30.778235058891198 0 0 0 -1 I I #
coedge $-1 $313 $223 $145 $229 forward $219 $-1 #
edge $-1 $226 -30.778235058891198 $233 30.778235058891198 $228 $314 forward 7 unknown #
coedge $-1 $315 $146 $149 $236 reversed $232 $-1 #
coedge $-1 $146 $315 $313 $316 reversed $232 $-1 #
loop $-1 $-1 $146 $218 #
vertex $-1 $316 $317 #
straight-curve $-1 -57.741019928586688 -30.778235058891198 0 0 0 1 I I #
coedge $-1 $149 $148 $305 $318 forward $83 $-1 #
edge $-1 $319 -4.2606148989509833 $151 4.2606148989509904 $230 $320 forward 7 unknown #
point $-1 -57.741019928586688 30.778235058891198 -6.603932748180581 #
point $-1 -57.741019928586688 -30.778235058891198 -6.603932748180581 #
face $-1 $-1 $255 $20 $-1 $321 reversed single #
loop $-1 $-1 $251 $153 #
plane-surface $-1 0 0 -9.603932748180581 0 0 1 1 0 0 forward_v I I I I #
coedge $-1 $322 $243 $323 $324 forward $154 $-1 #
coedge $-1 $242 $325 $156 $244 reversed $154 $-1 #
edge $-1 $326 -30.778235058891198 $327 30.778235058891198 $243 $328 forward 7 unknown #
coedge $-1 $158 $157 $325 $329 forward $57 $-1 #
edge $-1 $327 -4.2606148989509975 $166 4.2606148989509904 $157 $330 forward 7 unknown #
coedge $-1 $331 $251 $158 $248 forward $240 $-1 #
edge $-1 $249 -4.2606148989509904 $332 4.2606148989509975 $158 $333 forward 7 unknown #
vertex $-1 $248 $334 #
straight-curve $-1 57.741019928586688 30.778235058891198 0 0 0 1 I I #
coedge $-1 $247 $335 $160 $252 forward $240 $-1 #
edge $-1 $256 -30.778235058891198 $249 30.778235058891198 $251 $336 forward 7 unknown #
coedge $-1 $323 $161 $335 $337 reversed $255 $-1 #
coedge $-1 $161 $323 $163 $258 reversed $255 $-1 #
loop $-1 $-1 $161 $239 #
vertex $-1 $162 $338 #
straight-curve $-1 57.741019928586688 -30.778235058891198 0 0 0 -1 I I #
edge $-1 $165 -4.2606148989509904 $326 4.2606148989509975 $254 $339 forward 7 unknown #
point $-1 57.741019928586688 -30.778235058891198 -6.603932748180581 #
point $-1 57.741019928586688 30.778235058891198 -6.603932748180581 #
loop $-1 $-1 $176 $168 #
plane-surface $-1 0 -30.778235058891198 0 0 1 0 0 0 1 forward_v I I I I #
coedge $-1 $264 $171 $173 $268 reversed $99 $-1 #
coedge $-1 $171 $263 $340 $341 reversed $99 $-1 #
coedge $-1 $179 $174 $171 $266 forward $169 $-1 #
edge $-1 $269 -38.474901782283567 $342 -33.578044948698491 $265 $343 forward 7 unknown #
coedge $-1 $173 $172 $272 $344 reversed $61 $-1 #
edge $-1 $345 0 $269 9.2407603974590931 $263 $346 forward 7 unknown #
vertex $-1 $175 $347 #
straight-curve $-1 11.544862994078418 -25.881378225306126 9.603932748180581 -1 0 0 I I #
coedge $-1 $340 $176 $179 $276 reversed $261 $-1 #
coedge $-1 $176 $340 $267 $344 forward $261 $-1 #
vertex $-1 $177 $348 #
straight-curve $-1 36.172393371292259 -30.778235058891198 31.481739770781026 0 0 1 I I #
straight-curve $-1 36.172393371292259 -30.778235058891198 1.7673234128481425 0 -0.52991925155115449 -0.84804810408105047 I I #
edge $-1 $342 10.007058605021413 $180 36.172393371292259 $271 $349 forward 7 unknown #
point $-1 36.172393371292259 -30.778235058891198 9.603932748180581 #
point $-1 36.172393371292259 -25.881378225306126 9.603932748180581 #
edge $-1 $350 1 $350 0 $183 $-1 forward 7 unknown #
vertex $-1 $184 $351 #
ellipse-curve $-1 17.482868538241654 -25.122548083854578 3.6815105705089359 0 -0.84804810408105047 0.52991925155115449 1.5 0 0 1 I I #
point $-1 18.982868538241654 -28.329806642098667 5.685628080514368 #
edge $-1 $352 1 $352 0 $187 $-1 forward 7 unknown #
vertex $-1 $188 $353 #
ellipse-curve $-1 28.696583438072018 -25.122548083854578 3.6815105705089359 0 -0.84804810408105047 0.52991925155115449 1.5 0 0 1 I I #
point $-1 30.196583438072018 -28.329806642098667 5.685628080514368 #
plane-surface $-1 57.741019928586688 0 0 -1 0 0 0 0 1 forward_v I I I I #
coedge $-1 $196 $194 $198 $292 reversed $121 $-1 #
edge $-1 $209 -9.603932748180581 $294 9.603932748180581 $208 $354 forward 7 unknown #
vertex $-1 $292 $355 #
straight-curve $-1 -57.741019928586688 -30.778235058891198 0 0 0 -1 I I #
edge $-1 $290 -30.778235058891198 $294 30.778235058891198 $288 $356 forward 7 unknown #
straight-curve $-1 0 -30.778235058891198 -9.603932748180581 -1 0 0 I I #
vertex $-1 $201 $357 #
straight-curve $-1 0 30.778235058891198 -9.603932748180581 1 0 0 I I #
point $-1 57.741019928586688 30.778235058891198 -9.603932748180581 #
point $-1 57.741019928586688 -30.778235058891198 -9.603932748180581 #
straight-curve $-1 -57.741019928586688 0 9.603932748180581 0 -1 0 I I #
point $-1 -57.741019928586688 30.778235058891198 9.603932748180581 #
point $-1 -57.741019928586688 -30.778235058891198 9.603932748180581 #
straight-curve $-1 57.741019928586688 -30.778235058891198 0 0 0 -1 I I #
straight-curve $-1 57.741019928586688 30.778235058891198 0 0 0 -1 I I #
plane-surface $-1 0 -30.778235058891198 0 0 1 0 0 0 1 forward_v I I I I #
coedge $-1 $358 $221 $307 $359 reversed $140 $-1 #
coedge $-1 $221 $358 $235 $318 reversed $140 $-1 #
edge $-1 $310 -1.5 $308 1.5 $222 $360 forward 7 unknown #
coedge $-1 $223 $313 $304 $359 forward $219 $-1 #
vertex $-1 $224 $361 #
straight-curve $-1 0 30.778235058891198 -9.603932748180581 1 0 0 I I #
vertex $-1 $225 $362 #
straight-curve $-1 -62.001634827537679 30.778235058891198 -6.603932748180581 -1 0 0 I I #
point $-1 -57.741019928586688 30.778235058891198 -9.603932748180581 #
coedge $-1 $307 $228 $231 $316 forward $219 $-1 #
straight-curve $-1 -57.741019928586688 0 -9.603932748180581 0 -1 0 I I #
coedge $-1 $231 $230 $358 $363 forward $232 $-1 #
edge $-1 $233 -4.2606148989509904 $364 4.2606148989509833 $231 $365 forward 7 unknown #
point $-1 -57.741019928586688 -30.778235058891198 -9.603932748180581 #
edge $-1 $310 -30.778235058891198 $319 30.778235058891198 $305 $366 forward 7 unknown #
vertex $-1 $318 $367 #
straight-curve $-1 -62.001634827537679 -30.778235058891198 -6.603932748180581 1 0 0 I I #
plane-surface $-1 0 -30.778235058891198 0 0 1 0 0 0 1 forward_v I I I I #
coedge $-1 $325 $242 $331 $368 reversed $154 $-1 #
coedge $-1 $254 $253 $242 $324 reversed $255 $-1 #
edge $-1 $326 -1.5 $369 1.5 $242 $370 forward 7 unknown #
coedge $-1 $243 $322 $245 $329 reversed $154 $-1 #
vertex $-1 $244 $371 #
vertex $-1 $244 $372 #
straight-curve $-1 66.262249726488676 0 -6.603932748180581 0 1 0 I I #
edge $-1 $327 -1.5 $332 1.5 $325 $373 forward 7 unknown #
straight-curve $-1 62.001634827537679 30.778235058891198 -6.603932748180581 -1 0 0 I I #
coedge $-1 $335 $247 $322 $368 forward $240 $-1 #
vertex $-1 $368 $374 #
straight-curve $-1 62.001634827537679 30.778235058891198 -9.603932748180581 1 0 0 I I #
point $-1 57.741019928586688 30.778235058891198 -9.603932748180581 #
coedge $-1 $251 $331 $253 $337 forward $240 $-1 #
straight-curve $-1 57.741019928586688 0 -9.603932748180581 0 1 0 I I #
edge $-1 $369 -4.2606148989509975 $256 4.2606148989509904 $253 $375 forward 7 unknown #
point $-1 57.741019928586688 -30.778235058891198 -9.603932748180581 #
straight-curve $-1 62.001634827537679 -30.778235058891198 -6.603932748180581 1 0 0 I I #
coedge $-1 $272 $271 $264 $341 forward $261 $-1 #
edge $-1 $342 21.877807022600443 $345 29.714416357932883 $340 $376 forward 7 unknown #
vertex $-1 $276 $377 #
straight-curve $-1 10.007058605021413 -64.356280007589689 9.6039327481805827 0 -1 0 I I #
edge $-1 $345 -1.5378043890570048 $273 24.627530377213841 $272 $378 forward 7 unknown #
vertex $-1 $344 $379 #
straight-curve $-1 10.007058605021413 -30.778235058891198 1.7673234128481425 0 0.52991925155115449 0.84804810408105047 I I #
point $-1 10.007058605021413 -25.881378225306126 9.603932748180581 #
point $-1 36.172393371292259 -30.778235058891198 1.7673234128481425 #
straight-curve $-1 0 -30.778235058891198 9.603932748180581 1 0 0 I I #
vertex $-1 $279 $380 #
point $-1 18.982868538241654 -25.122548083854578 3.6815105705089359 #
vertex $-1 $283 $381 #
point $-1 30.196583438072018 -25.122548083854578 3.6815105705089359 #
straight-curve $-1 -57.741019928586688 30.778235058891198 0 0 0 -1 I I #
point $-1 -57.741019928586688 -30.778235058891198 -9.603932748180581 #
straight-curve $-1 -57.741019928586688 0 -9.603932748180581 0 1 0 I I #
point $-1 -57.741019928586688 30.778235058891198 -9.603932748180581 #
coedge $-1 $305 $304 $315 $363 reversed $140 $-1 #
edge $-1 $364 -30.778235058891198 $308 30.778235058891198 $304 $382 forward 7 unknown #
straight-curve $-1 -66.262249726488662 30.778235058891198 -8.103932748180581 0 0 -1 I I #
point $-1 -66.262249726488662 30.778235058891198 -9.603932748180581 #
point $-1 -66.262249726488662 30.778235058891198 -6.603932748180581 #
edge $-1 $319 -1.5 $364 1.5 $358 $383 forward 7 unknown #
vertex $-1 $359 $384 #
straight-curve $-1 -62.001634827537679 -30.778235058891198 -9.603932748180581 -1 0 0 I I #
straight-curve $-1 -66.262249726488662 0 -6.603932748180581 0 -1 0 I I #
point $-1 -66.262249726488662 -30.778235058891198 -6.603932748180581 #
edge $-1 $332 -30.778235058891198 $369 30.778235058891198 $322 $385 forward 7 unknown #
vertex $-1 $324 $386 #
straight-curve $-1 66.262249726488676 -30.778235058891198 -8.103932748180581 0 0 -1 I I #
point $-1 66.262249726488676 -30.778235058891198 -6.603932748180581 #
point $-1 66.262249726488676 30.778235058891198 -6.603932748180581 #
straight-curve $-1 66.262249726488676 30.778235058891198 -8.103932748180581 0 0 -1 I I #
point $-1 66.262249726488676 30.778235058891198 -9.603932748180581 #
straight-curve $-1 62.001634827537679 -30.778235058891198 -9.603932748180581 -1 0 0 I I #
straight-curve $-1 10.007058605021413 -30.778235058891198 31.481739770781026 0 0 -1 I I #
point $-1 10.007058605021413 -30.778235058891198 9.603932748180581 #
straight-curve $-1 11.544862994078418 -30.778235058891198 1.767323412848143 1 0 0 I I #
point $-1 10.007058605021413 -30.778235058891198 1.7673234128481425 #
point $-1 17.482868538241654 -23.850475927733005 2.886631693182204 #
point $-1 28.696583438072018 -23.850475927733005 2.886631693182204 #
straight-curve $-1 -66.262249726488662 0 -9.603932748180581 0 1 0 I I #
straight-curve $-1 -66.262249726488662 -30.778235058891198 -8.103932748180581 0 0 -1 I I #
point $-1 -66.262249726488662 -30.778235058891198 -9.603932748180581 #
straight-curve $-1 66.262249726488676 0 -9.603932748180581 0 -1 0 I I #
point $-1 66.262249726488676 -30.778235058891198 -9.603932748180581 #
End-of-ACIS-data 