500 0 6 0           
7 Unknown 11 ACIS 5.0 NT 24 Thu Mar 25 18:26:25 1999 
-1 9.9999999999999995e-007 1e-010 
body $-1 $6 $-1 $7 #
body $-1 $8 $-1 $9 #
body $-1 $10 $-1 $11 #
body $-1 $12 $-1 $13 #
body $-1 $14 $-1 $15 #
body $-1 $16 $-1 $17 #
lump $-1 $-1 $18 $0 #
transform $-1 1 0 0 0 1 0 0 0 1 64.253669850764481 27.772794319387263 11.402890441494327 1 rotate no_reflect no_shear #
lump $-1 $-1 $19 $1 #
transform $-1 1 0 0 0 1 0 0 0 1 64.253669850764481 27.772794319387263 11.402890441494327 1 rotate no_reflect no_shear #
lump $-1 $-1 $20 $2 #
transform $-1 1 0 0 0 1 0 0 0 1 64.253669850764481 27.772794319387263 11.402890441494327 1 rotate no_reflect no_shear #
lump $-1 $-1 $21 $3 #
transform $-1 1 0 0 0 1 0 0 0 1 64.253669850764481 27.772794319387263 11.402890441494327 1 rotate no_reflect no_shear #
lump $-1 $-1 $22 $4 #
transform $-1 1 0 0 0 1 0 0 0 1 64.253669850764481 27.772794319387263 11.402890441494327 1 rotate no_reflect no_shear #
lump $-1 $-1 $23 $5 #
transform $-1 1 0 0 0 1 0 0 0 1 64.253669850764481 27.772794319387263 11.402890441494327 1 rotate no_reflect no_shear #
shell $-1 $-1 $-1 $24 $-1 $6 #
shell $-1 $-1 $-1 $25 $-1 $8 #
shell $-1 $-1 $-1 $26 $-1 $10 #
shell $-1 $-1 $-1 $27 $-1 $12 #
shell $-1 $-1 $-1 $28 $-1 $14 #
shell $-1 $-1 $-1 $29 $-1 $16 #
face $-1 $30 $31 $18 $-1 $32 forward single #
face $-1 $33 $34 $19 $-1 $35 forward single #
face $-1 $36 $37 $20 $-1 $38 reversed single #
face $-1 $39 $40 $21 $-1 $41 forward single #
face $-1 $42 $43 $22 $-1 $44 reversed single #
face $-1 $45 $46 $23 $-1 $47 forward single #
face $-1 $48 $49 $18 $-1 $50 reversed single #
loop $-1 $-1 $51 $24 #
plane-surface $-1 0 0 11.402890441494327 0 0 1 1 0 0 forward_v I I I I #
face $-1 $52 $53 $19 $-1 $54 reversed single #
loop $-1 $-1 $55 $25 #
plane-surface $-1 0 -27.772794319387263 0 0 1 0 0 0 1 forward_v I I I I #
face $-1 $56 $57 $20 $-1 $58 reversed single #
loop $-1 $-1 $59 $26 #
plane-surface $-1 -174.40596034997301 18.517625826222645 66.652898694672814 0 1 0 -0.85716730853699208 0 0.51503806187062418 forward_v I I I I #
face $-1 $60 $61 $21 $-1 $62 forward single #
loop $-1 $63 $64 $27 #
cone-surface $-1 -59.995806942470004 23.145210072804954 5.3505872874338154 0.85716730853699208 0 -0.51503806187062418 0.77255709280593621 0 1.2857509628054882 1 I I 0 1 1.5 forward I I I I #
face $-1 $65 $66 $22 $-1 $67 reversed single #
loop $-1 $-1 $68 $28 #
plane-surface $-1 108.21978917394762 18.517625826222645 176.80518919388135 0 1 0 0.85716730853699208 0 0.51503806187062418 forward_v I I I I #
face $-1 $69 $70 $23 $-1 $71 forward single #
loop $-1 $72 $73 $29 #
cone-surface $-1 59.995806942469997 23.145210072804954 5.3505872874338332 -0.85716730853699208 0 -0.51503806187062418 0.77255709280593621 0 -1.2857509628054882 1 I I 0 1 1.5 forward I I I I #
face $-1 $74 $75 $18 $-1 $76 reversed single #
loop $-1 $-1 $77 $30 #
plane-surface $-1 0 0 -11.402890441494327 0 0 1 1 0 0 forward_v I I I I #
coedge $-1 $78 $79 $80 $81 forward $31 $-1 #
face $-1 $82 $83 $19 $-1 $84 reversed single #
loop $-1 $-1 $85 $33 #
plane-surface $-1 0 0 -11.402890441494327 0 0 1 1 0 0 forward_v I I I I #
coedge $-1 $86 $87 $88 $89 forward $34 $-1 #
face $-1 $90 $91 $20 $-1 $92 reversed single #
loop $-1 $-1 $93 $36 #
plane-surface $-1 -64.253669850764481 23.145210072804954 0.46672751864741713 -0.85716730853699208 0 0.51503806187062418 0.51503806187062418 0 0.85716730853699208 forward_v I I I I #
coedge $-1 $94 $95 $96 $97 reversed $37 $-1 #
face $-1 $-1 $98 $21 $-1 $99 forward single #
loop $-1 $100 $101 $39 #
cone-surface $-1 -58.38062325136368 23.145210072804954 4.3800870483937953 0.85716730853699208 0 -0.51503806187062418 0.3862785464029681 0 0.64287548140274409 1 I I -0.70710678118654757 0.70710678118654757 0.75 forward I I I I #
loop $-1 $-1 $102 $27 #
coedge $-1 $64 $64 $103 $104 reversed $40 $-1 #
face $-1 $105 $106 $22 $-1 $107 reversed single #
loop $-1 $-1 $108 $42 #
plane-surface $-1 -1.9325013252609153 23.145210072804954 110.61901801785595 0.85716730853699208 0 0.51503806187062418 0.51503806187062418 0 -0.85716730853699208 forward_v I I I I #
coedge $-1 $109 $110 $111 $112 reversed $43 $-1 #
face $-1 $-1 $113 $23 $-1 $114 forward single #
loop $-1 $115 $116 $45 #
cone-surface $-1 58.380623251363673 23.145210072804954 4.380087048393813 -0.85716730853699208 0 -0.51503806187062418 0.3862785464029681 0 -0.64287548140274409 1 I I -0.70710678118654757 0.70710678118654757 0.75 forward I I I I #
loop $-1 $-1 $117 $29 #
coedge $-1 $73 $73 $118 $119 reversed $46 $-1 #
face $-1 $120 $121 $18 $-1 $122 reversed single #
loop $-1 $-1 $123 $48 #
plane-surface $-1 0 -27.772794319387263 0 0 1 0 0 0 1 forward_v I I I I #
coedge $-1 $124 $125 $126 $127 forward $49 $-1 #
coedge $-1 $128 $51 $129 $130 forward $31 $-1 #
coedge $-1 $51 $128 $131 $132 forward $31 $-1 #
coedge $-1 $133 $134 $51 $81 reversed $135 $-1 #
edge $-1 $136 -27.772794319387263 $137 27.772794319387263 $80 $138 forward 7 unknown #
face $-1 $139 $140 $19 $-1 $141 reversed single #
loop $-1 $-1 $142 $52 #
plane-surface $-1 -43.083659301350586 -38.811879416317026 0 0 1 0 0 0 1 forward_v I I I I #
coedge $-1 $143 $144 $87 $145 forward $53 $-1 #
coedge $-1 $146 $55 $147 $148 reversed $34 $-1 #
coedge $-1 $55 $146 $85 $145 reversed $34 $-1 #
coedge $-1 $149 $150 $55 $89 reversed $140 $-1 #
edge $-1 $151 -11.402890441494327 $152 11.402890441494327 $88 $153 forward 7 unknown #
face $-1 $154 $155 $20 $-1 $156 forward single #
loop $-1 $-1 $157 $56 #
plane-surface $-1 -64.253669850764481 0 0 1 0 0 0 0 -1 forward_v I I I I #
coedge $-1 $158 $159 $160 $161 reversed $57 $-1 #
coedge $-1 $95 $59 $162 $163 reversed $37 $-1 #
coedge $-1 $59 $94 $158 $164 reversed $37 $-1 #
coedge $-1 $160 $165 $59 $97 forward $155 $-1 #
edge $-1 $166 22.949310324222026 $167 29.520419721403819 $96 $168 forward 7 unknown #
loop $-1 $-1 $103 $60 #
plane-surface $-1 -64.253669850764481 23.145210072804954 0.46672751864741713 -0.85716730853699208 0 0.51503806187062418 0.51503806187062418 0 0.85716730853699208 forward_v I I I I #
loop $-1 $-1 $169 $39 #
coedge $-1 $101 $101 $102 $170 reversed $61 $-1 #
coedge $-1 $102 $102 $101 $170 forward $63 $-1 #
coedge $-1 $103 $103 $64 $104 forward $98 $-1 #
edge $-1 $171 0 $171 6.2831853071796004 $103 $172 forward 7 unknown #
face $-1 $173 $174 $22 $-1 $175 forward single #
loop $-1 $-1 $176 $65 #
plane-surface $-1 0 27.772794319387263 0 0 -1 0 0 0 -1 forward_v I I I I #
coedge $-1 $177 $178 $179 $180 reversed $66 $-1 #
coedge $-1 $110 $68 $181 $182 reversed $43 $-1 #
coedge $-1 $68 $109 $177 $183 reversed $43 $-1 #
coedge $-1 $179 $184 $68 $112 forward $185 $-1 #
edge $-1 $186 76.999704155446352 $187 87.935867078293242 $111 $188 forward 7 unknown #
loop $-1 $-1 $118 $69 #
plane-surface $-1 -1.9325013252609153 23.145210072804954 110.61901801785595 0.85716730853699208 0 0.51503806187062418 0.51503806187062418 0 -0.85716730853699208 forward_v I I I I #
loop $-1 $-1 $189 $45 #
coedge $-1 $116 $116 $117 $190 reversed $70 $-1 #
coedge $-1 $117 $117 $116 $190 forward $72 $-1 #
coedge $-1 $118 $118 $73 $119 forward $113 $-1 #
edge $-1 $191 0 $191 6.2831853071796004 $118 $192 forward 7 unknown #
face $-1 $193 $194 $18 $-1 $195 reversed single #
loop $-1 $-1 $196 $74 #
plane-surface $-1 -64.253669850764481 0 0 1 0 0 0 0 -1 forward_v I I I I #
coedge $-1 $197 $131 $198 $199 forward $75 $-1 #
coedge $-1 $200 $77 $197 $201 forward $49 $-1 #
coedge $-1 $77 $200 $202 $203 forward $49 $-1 #
coedge $-1 $134 $133 $77 $127 reversed $135 $-1 #
edge $-1 $204 -27.772794319387263 $205 27.772794319387263 $126 $206 forward 7 unknown #
coedge $-1 $79 $78 $207 $208 forward $31 $-1 #
coedge $-1 $209 $210 $78 $130 reversed $194 $-1 #
edge $-1 $137 -64.253669850764481 $211 64.253669850764481 $129 $212 forward 7 unknown #
coedge $-1 $123 $213 $79 $132 reversed $75 $-1 #
edge $-1 $214 -64.253669850764481 $136 64.253669850764481 $131 $215 forward 7 unknown #
coedge $-1 $126 $80 $213 $216 forward $135 $-1 #
coedge $-1 $80 $126 $209 $217 reversed $135 $-1 #
loop $-1 $-1 $133 $193 #
vertex $-1 $81 $218 #
vertex $-1 $81 $219 #
straight-curve $-1 64.253669850764481 0 11.402890441494327 0 1 0 I I #
face $-1 $220 $221 $19 $-1 $222 reversed single #
loop $-1 $-1 $88 $82 #
plane-surface $-1 -44.719429634925348 -33.292336867852143 0 1 0 0 0 0 -1 forward_v I I I I #
coedge $-1 $223 $224 $225 $226 forward $83 $-1 #
coedge $-1 $227 $85 $228 $229 forward $53 $-1 #
coedge $-1 $85 $227 $149 $230 forward $53 $-1 #
edge $-1 $151 -44.719429634925348 $231 -41.447888967775825 $85 $232 forward 7 unknown #
coedge $-1 $87 $86 $233 $234 forward $34 $-1 #
coedge $-1 $235 $236 $86 $148 forward $237 $-1 #
edge $-1 $238 41.447888967775825 $152 44.719429634925348 $147 $239 forward 7 unknown #
coedge $-1 $225 $88 $144 $230 reversed $140 $-1 #
coedge $-1 $88 $225 $235 $240 reversed $140 $-1 #
vertex $-1 $145 $241 #
vertex $-1 $240 $242 #
straight-curve $-1 -44.719429634925348 -27.772794319387263 0 0 0 1 I I #
face $-1 $-1 $243 $20 $-1 $244 reversed single #
loop $-1 $-1 $160 $90 #
plane-surface $-1 0 0 11.402890441494327 0 0 1 1 0 0 forward_v I I I I #
coedge $-1 $162 $245 $246 $247 forward $91 $-1 #
coedge $-1 $246 $93 $95 $164 forward $57 $-1 #
coedge $-1 $93 $246 $248 $249 reversed $57 $-1 #
coedge $-1 $250 $96 $93 $161 forward $155 $-1 #
edge $-1 $167 6.9450207898201679 $251 16.200189282984788 $160 $252 forward 7 unknown #
coedge $-1 $253 $157 $94 $163 forward $91 $-1 #
edge $-1 $254 -32.85972182868899 $166 -21.923558905842079 $162 $255 forward 7 unknown #
edge $-1 $167 -12.758492786563091 $254 0 $95 $256 forward 7 unknown #
coedge $-1 $96 $250 $253 $257 forward $155 $-1 #
vertex $-1 $163 $258 #
vertex $-1 $97 $259 #
straight-curve $-1 -87.202980174986507 18.517625826222645 11.402890441494328 1 0 0 I I #
coedge $-1 $169 $169 $-1 $260 reversed $100 $-1 #
edge $-1 $261 0 $261 6.2831853071796004 $101 $262 forward 7 unknown #
vertex $-1 $104 $263 #
ellipse-curve $-1 -60.968115152173588 23.145210072804954 5.9348089800708692 -0.85716730853699208 0 0.51503806187062418 0.77255709280593621 0 1.2857509628054882 1 I I #
face $-1 $-1 $185 $22 $-1 $264 reversed single #
loop $-1 $-1 $265 $105 #
plane-surface $-1 0 0 11.402890441494327 0 0 1 1 0 0 forward_v I I I I #
coedge $-1 $266 $267 $178 $268 forward $106 $-1 #
coedge $-1 $269 $108 $110 $183 forward $66 $-1 #
coedge $-1 $108 $269 $176 $268 reversed $66 $-1 #
coedge $-1 $270 $111 $108 $180 forward $185 $-1 #
edge $-1 $187 6.9450207898201679 $271 16.200189282984788 $179 $272 forward 7 unknown #
coedge $-1 $273 $265 $109 $182 forward $174 $-1 #
edge $-1 $274 3.5726658666088866 $186 10.143775263790673 $181 $275 forward 7 unknown #
edge $-1 $187 -128.50733970152899 $274 -115.74884691496591 $110 $276 forward 7 unknown #
coedge $-1 $111 $270 $273 $277 reversed $185 $-1 #
loop $-1 $-1 $179 $173 #
vertex $-1 $277 $278 #
vertex $-1 $112 $279 #
straight-curve $-1 64.253669850764481 18.517625826222645 88.402594596940673 0 0 -1 I I #
coedge $-1 $189 $189 $-1 $280 reversed $115 $-1 #
edge $-1 $281 0 $281 6.2831853071796004 $116 $282 forward 7 unknown #
vertex $-1 $119 $283 #
ellipse-curve $-1 60.968115152173574 23.145210072804954 5.9348089800708834 0.85716730853699208 0 0.51503806187062418 0.77255709280593621 0 -1.2857509628054882 1 I I #
face $-1 $-1 $135 $18 $-1 $284 reversed single #
loop $-1 $-1 $209 $120 #
plane-surface $-1 0 27.772794319387263 0 0 -1 0 0 0 -1 forward_v I I I I #
coedge $-1 $285 $207 $210 $286 forward $121 $-1 #
coedge $-1 $213 $123 $124 $201 reversed $75 $-1 #
coedge $-1 $207 $285 $123 $199 reversed $121 $-1 #
edge $-1 $214 -11.402890441494327 $287 11.402890441494327 $198 $288 forward 7 unknown #
coedge $-1 $125 $124 $285 $289 forward $49 $-1 #
edge $-1 $205 -64.253669850764481 $287 64.253669850764481 $197 $290 forward 7 unknown #
coedge $-1 $210 $209 $125 $203 reversed $194 $-1 #
edge $-1 $291 -64.253669850764481 $204 64.253669850764481 $202 $292 forward 7 unknown #
vertex $-1 $127 $293 #
vertex $-1 $216 $294 #
straight-curve $-1 64.253669850764481 0 -11.402890441494327 0 -1 0 I I #
coedge $-1 $196 $198 $128 $208 reversed $121 $-1 #
edge $-1 $211 -27.772794319387263 $214 27.772794319387263 $207 $295 forward 7 unknown #
coedge $-1 $202 $129 $134 $217 forward $194 $-1 #
coedge $-1 $129 $202 $196 $286 reversed $194 $-1 #
vertex $-1 $130 $296 #
straight-curve $-1 0 27.772794319387263 11.402890441494327 -1 0 0 I I #
coedge $-1 $131 $197 $133 $216 reversed $75 $-1 #
vertex $-1 $208 $297 #
straight-curve $-1 0 -27.772794319387263 11.402890441494327 1 0 0 I I #
edge $-1 $136 -11.402890441494327 $205 11.402890441494327 $133 $298 forward 7 unknown #
edge $-1 $137 -11.402890441494327 $204 11.402890441494327 $134 $299 forward 7 unknown #
point $-1 64.253669850764481 -27.772794319387263 11.402890441494327 #
point $-1 64.253669850764481 27.772794319387263 11.402890441494327 #
face $-1 $-1 $237 $19 $-1 $300 forward single #
loop $-1 $-1 $301 $139 #
plane-surface $-1 -41.447888967775825 -33.292336867852143 0 -1 0 0 0 0 1 forward_v I I I I #
coedge $-1 $302 $142 $227 $303 reversed $83 $-1 #
coedge $-1 $142 $302 $304 $305 reversed $83 $-1 #
coedge $-1 $150 $149 $142 $226 reversed $140 $-1 #
edge $-1 $306 -11.402890441494327 $307 11.402890441494327 $225 $308 forward 7 unknown #
coedge $-1 $144 $143 $223 $303 forward $53 $-1 #
coedge $-1 $233 $301 $143 $229 reversed $221 $-1 #
edge $-1 $231 -5.5195425484648837 $309 5.5195425484648837 $228 $310 forward 7 unknown #
edge $-1 $307 -5.5195425484648837 $151 5.5195425484648837 $149 $311 forward 7 unknown #
vertex $-1 $229 $312 #
straight-curve $-1 0 -27.772794319387263 -11.402890441494327 1 0 0 I I #
coedge $-1 $313 $228 $146 $234 reversed $221 $-1 #
edge $-1 $238 -11.402890441494327 $231 11.402890441494327 $233 $314 forward 7 unknown #
coedge $-1 $304 $147 $150 $240 forward $237 $-1 #
coedge $-1 $147 $304 $313 $315 forward $237 $-1 #
loop $-1 $-1 $147 $220 #
vertex $-1 $148 $316 #
straight-curve $-1 0 -27.772794319387263 11.402890441494327 -1 0 0 I I #
edge $-1 $152 -5.5195425484648837 $306 5.5195425484648837 $150 $317 forward 7 unknown #
point $-1 -44.719429634925348 -27.772794319387259 -11.402890441494327 #
point $-1 -44.719429634925348 -27.772794319387259 11.402890441494327 #
loop $-1 $-1 $248 $154 #
plane-surface $-1 0 27.772794319387263 0 0 -1 0 0 0 -1 forward_v I I I I #
coedge $-1 $157 $253 $318 $319 forward $91 $-1 #
coedge $-1 $159 $158 $157 $247 reversed $57 $-1 #
edge $-1 $320 -16.200189282984788 $254 -6.9450207898201679 $157 $321 forward 7 unknown #
coedge $-1 $318 $322 $159 $249 forward $243 $-1 #
edge $-1 $251 3.5880182219536882 $320 16.346511008516778 $248 $323 forward 7 unknown #
coedge $-1 $165 $160 $322 $324 forward $155 $-1 #
vertex $-1 $324 $325 #
straight-curve $-1 -57.682560453582695 11.572605036402477 11.402890441494327 0 1 0 I I #
coedge $-1 $245 $162 $165 $257 reversed $91 $-1 #
vertex $-1 $163 $326 #
straight-curve $-1 -64.253669850764481 18.517625826222645 33.326449347336407 0 0 1 I I #
straight-curve $-1 -64.253669850764481 18.517625826222645 0.46672751864741713 -0.51503806187062418 0 -0.85716730853699208 I I #
edge $-1 $327 -27.772794319387263 $166 -18.517625826222645 $253 $328 forward 7 unknown #
point $-1 -64.253669850764481 18.517625826222645 11.402890441494327 #
point $-1 -57.682560453582688 18.517625826222645 11.402890441494327 #
edge $-1 $329 1 $329 0 $169 $-1 forward 7 unknown #
vertex $-1 $170 $330 #
ellipse-curve $-1 -59.023498732766427 23.145210072804954 4.7663655947967634 -0.85716730853699208 0 0.51503806187062418 0.77255709280593621 0 1.2857509628054882 1 I I #
point $-1 -60.195558059367649 23.145210072804954 7.2205599428763563 #
plane-surface $-1 64.253669850764481 0 0 -1 0 0 0 0 1 forward_v I I I I #
coedge $-1 $181 $331 $269 $332 forward $174 $-1 #
coedge $-1 $267 $176 $331 $333 reversed $106 $-1 #
coedge $-1 $176 $266 $270 $334 forward $106 $-1 #
edge $-1 $271 -80.600180859281267 $335 -67.841688072718171 $176 $336 forward 7 unknown #
coedge $-1 $178 $177 $265 $332 reversed $66 $-1 #
coedge $-1 $184 $179 $267 $334 reversed $185 $-1 #
vertex $-1 $180 $337 #
straight-curve $-1 64.253669850764481 11.572605036402477 0.46672751864741002 0 1 0 I I #
coedge $-1 $331 $181 $184 $277 forward $174 $-1 #
vertex $-1 $182 $338 #
straight-curve $-1 54.109894586973809 18.517625826222645 11.402890441494321 1 0 0 I I #
straight-curve $-1 -1.9325013252609153 18.517625826222645 110.61901801785595 -0.51503806187062418 0 0.85716730853699208 I I #
edge $-1 $186 18.517625826222645 $339 27.772794319387263 $184 $340 forward 7 unknown #
point $-1 64.253669850764481 18.517625826222645 11.402890441494327 #
point $-1 64.253669850764481 18.517625826222645 0.46672751864743134 #
edge $-1 $341 1 $341 0 $189 $-1 forward 7 unknown #
vertex $-1 $190 $342 #
ellipse-curve $-1 59.02349873276642 23.145210072804954 4.7663655947967811 0.85716730853699208 0 0.51503806187062418 0.77255709280593621 0 -1.2857509628054882 1 I I #
point $-1 61.740672244979514 23.145210072804954 4.6490580172653981 #
plane-surface $-1 64.253669850764481 0 0 -1 0 0 0 0 1 forward_v I I I I #
coedge $-1 $198 $196 $200 $289 reversed $121 $-1 #
edge $-1 $211 -11.402890441494327 $291 11.402890441494327 $210 $343 forward 7 unknown #
vertex $-1 $289 $344 #
straight-curve $-1 -64.253669850764481 -27.772794319387263 0 0 0 -1 I I #
edge $-1 $287 -27.772794319387263 $291 27.772794319387263 $285 $345 forward 7 unknown #
straight-curve $-1 0 -27.772794319387263 -11.402890441494327 -1 0 0 I I #
vertex $-1 $203 $346 #
straight-curve $-1 0 27.772794319387263 -11.402890441494327 1 0 0 I I #
point $-1 64.253669850764481 27.772794319387263 -11.402890441494327 #
point $-1 64.253669850764481 -27.772794319387263 -11.402890441494327 #
straight-curve $-1 -64.253669850764481 0 11.402890441494327 0 -1 0 I I #
point $-1 -64.253669850764481 27.772794319387263 11.402890441494327 #
point $-1 -64.253669850764481 -27.772794319387263 11.402890441494327 #
straight-curve $-1 64.253669850764481 -27.772794319387263 0 0 0 -1 I I #
straight-curve $-1 64.253669850764481 27.772794319387263 0 0 0 -1 I I #
plane-surface $-1 0 0 11.402890441494327 0 0 1 1 0 0 forward_v I I I I #
coedge $-1 $228 $313 $302 $347 forward $221 $-1 #
coedge $-1 $224 $223 $301 $347 reversed $83 $-1 #
edge $-1 $309 -1.6357703335747615 $307 1.6357703335747615 $223 $348 forward 7 unknown #
coedge $-1 $236 $235 $224 $305 forward $237 $-1 #
edge $-1 $306 -1.6357703335747615 $349 1.6357703335747615 $224 $350 forward 7 unknown #
vertex $-1 $240 $351 #
vertex $-1 $230 $352 #
straight-curve $-1 -44.719429634925348 -38.811879416317026 0 0 0 -1 I I #
vertex $-1 $347 $353 #
straight-curve $-1 -41.447888967775825 -33.292336867852143 -11.402890441494327 0 -1 0 I I #
straight-curve $-1 -44.719429634925348 -33.292336867852143 -11.402890441494327 0 1 0 I I #
point $-1 -41.447888967775825 -27.772794319387259 -11.402890441494327 #
coedge $-1 $301 $233 $236 $315 reversed $221 $-1 #
straight-curve $-1 -41.447888967775825 -27.772794319387263 0 0 0 -1 I I #
edge $-1 $349 -5.5195425484648837 $238 5.5195425484648837 $313 $354 forward 7 unknown #
point $-1 -41.447888967775825 -27.772794319387259 11.402890441494327 #
straight-curve $-1 -44.719429634925348 -33.292336867852143 11.402890441494327 0 -1 0 I I #
coedge $-1 $322 $248 $245 $319 reversed $243 $-1 #
edge $-1 $327 -11.402890441494327 $320 -0.46672751864741713 $318 $355 forward 7 unknown #
vertex $-1 $249 $356 #
straight-curve $-1 -64.253669850764481 11.572605036402477 0.46672751864741618 0 -1 0 I I #
coedge $-1 $248 $318 $250 $324 reversed $243 $-1 #
straight-curve $-1 -55.834594502591173 27.772794319387263 14.47842236378805 -0.51503806187062429 0 -0.85716730853699219 I I #
edge $-1 $251 57.682560453582688 $327 64.253669850764481 $322 $357 forward 7 unknown #
point $-1 -57.682560453582688 27.772794319387263 11.402890441494327 #
point $-1 -64.253669850764481 18.517625826222645 0.46672751864741713 #
vertex $-1 $324 $358 #
straight-curve $-1 -64.253669850764481 0 11.402890441494327 0 -1 0 I I #
vertex $-1 $260 $359 #
point $-1 -58.250941639960487 23.145210072804954 6.0521165576022513 #
coedge $-1 $265 $273 $266 $333 forward $174 $-1 #
edge $-1 $335 -16.200189282984788 $274 -6.9450207898201679 $265 $360 forward 7 unknown #
edge $-1 $339 -64.253669850764481 $335 -57.682560453582695 $266 $361 forward 7 unknown #
edge $-1 $339 -11.402890441494327 $271 -0.46672751864740164 $270 $362 forward 7 unknown #
vertex $-1 $332 $363 #
straight-curve $-1 22.741508914578478 27.772794319387263 69.554567613392308 -0.51503806187062429 0 0.85716730853699219 I I #
point $-1 64.253669850764481 27.772794319387263 0.46672751864740164 #
point $-1 57.682560453582695 18.517625826222645 11.402890441494321 #
vertex $-1 $277 $364 #
straight-curve $-1 64.253669850764481 0 11.402890441494327 0 1 0 I I #
vertex $-1 $280 $365 #
point $-1 59.796055825572353 23.145210072804954 3.4806146319912932 #
straight-curve $-1 -64.253669850764481 27.772794319387263 0 0 0 -1 I I #
point $-1 -64.253669850764481 -27.772794319387263 -11.402890441494327 #
straight-curve $-1 -64.253669850764481 0 -11.402890441494327 0 1 0 I I #
point $-1 -64.253669850764481 27.772794319387263 -11.402890441494327 #
edge $-1 $349 -11.402890441494327 $309 11.402890441494327 $301 $366 forward 7 unknown #
straight-curve $-1 -43.083659301350586 -38.811879416317026 -11.402890441494327 -1 0 0 I I #
vertex $-1 $315 $367 #
straight-curve $-1 -43.083659301350586 -38.811879416317026 11.402890441494327 1 0 0 I I #
point $-1 -44.719429634925348 -38.811879416317026 11.402890441494327 #
point $-1 -44.719429634925348 -38.811879416317026 -11.402890441494327 #
point $-1 -41.447888967775825 -38.811879416317026 -11.402890441494327 #
straight-curve $-1 -41.447888967775825 -33.292336867852143 11.402890441494327 0 1 0 I I #
straight-curve $-1 -64.253669850764481 27.772794319387263 0 0 0 -1 I I #
point $-1 -64.253669850764481 27.772794319387263 0.46672751864741713 #
straight-curve $-1 0 27.772794319387263 11.402890441494327 -1 0 0 I I #
point $-1 -64.253669850764481 27.772794319387263 11.402890441494327 #
point $-1 -57.737747769960933 23.145210072804954 3.9938085019908272 #
straight-curve $-1 57.682560453582681 11.572605036402477 11.402890441494328 0 -1 0 I I #
straight-curve $-1 0 27.772794319387263 11.402890441494327 -1 0 0 I I #
straight-curve $-1 64.253669850764481 27.772794319387263 0 0 0 -1 I I #
point $-1 57.682560453582695 27.772794319387263 11.402890441494321 #
point $-1 64.253669850764481 27.772794319387263 11.402890441494327 #
point $-1 57.737747769960926 23.145210072804954 3.9938085019908449 #
straight-curve $-1 -41.447888967775825 -38.811879416317026 0 0 0 -1 I I #
point $-1 -41.447888967775825 -38.811879416317026 11.402890441494327 #
End-of-ACIS-data 