500 0 8 0           
7 Unknown 11 ACIS 5.0 NT 24 Fri Mar 26 03:13:17 1999 
-1 9.9999999999999995e-007 1e-010 
body $-1 $8 $-1 $9 #
body $-1 $10 $-1 $11 #
body $-1 $12 $-1 $13 #
body $-1 $14 $-1 $15 #
body $-1 $16 $-1 $17 #
body $-1 $18 $-1 $19 #
body $-1 $20 $-1 $21 #
body $-1 $22 $-1 $23 #
lump $-1 $-1 $24 $0 #
transform $-1 1 0 0 0 1 0 0 0 1 43.048188726462598 20.929220866867816 7.5065942965720787 1 rotate no_reflect no_shear #
lump $-1 $-1 $25 $1 #
transform $-1 1 0 0 0 1 0 0 0 1 43.048188726462598 20.929220866867816 7.5065942965720787 1 rotate no_reflect no_shear #
lump $-1 $-1 $26 $2 #
transform $-1 1 0 0 0 1 0 0 0 1 43.048188726462598 20.929220866867816 7.5065942965720787 1 rotate no_reflect no_shear #
lump $-1 $-1 $27 $3 #
transform $-1 1 0 0 0 1 0 0 0 1 43.048188726462598 20.929220866867816 7.5065942965720787 1 rotate no_reflect no_shear #
lump $-1 $-1 $28 $4 #
transform $-1 1 0 0 0 1 0 0 0 1 43.048188726462598 20.929220866867816 7.5065942965720787 1 rotate no_reflect no_shear #
lump $-1 $-1 $29 $5 #
transform $-1 1 0 0 0 1 0 0 0 1 43.048188726462598 20.929220866867816 7.5065942965720787 1 rotate no_reflect no_shear #
lump $-1 $-1 $30 $6 #
transform $-1 1 0 0 0 1 0 0 0 1 43.048188726462598 20.929220866867816 7.5065942965720787 1 rotate no_reflect no_shear #
lump $-1 $-1 $31 $7 #
transform $-1 1 0 0 0 1 0 0 0 1 43.048188726462598 20.929220866867816 7.5065942965720787 1 rotate no_reflect no_shear #
shell $-1 $-1 $-1 $32 $-1 $8 #
shell $-1 $-1 $-1 $33 $-1 $10 #
shell $-1 $-1 $-1 $34 $-1 $12 #
shell $-1 $-1 $-1 $35 $-1 $14 #
shell $-1 $-1 $-1 $36 $-1 $16 #
shell $-1 $-1 $-1 $37 $-1 $18 #
shell $-1 $-1 $-1 $38 $-1 $20 #
shell $-1 $-1 $-1 $39 $-1 $22 #
face $-1 $40 $41 $24 $-1 $42 forward single #
face $-1 $43 $44 $25 $-1 $45 reversed single #
face $-1 $46 $47 $26 $-1 $48 reversed single #
face $-1 $49 $50 $27 $-1 $51 forward single #
face $-1 $52 $53 $28 $-1 $54 forward single #
face $-1 $55 $56 $29 $-1 $57 reversed single #
face $-1 $58 $59 $30 $-1 $60 forward single #
face $-1 $61 $62 $31 $-1 $63 forward single #
face $-1 $64 $65 $24 $-1 $66 reversed single #
loop $-1 $-1 $67 $32 #
plane-surface $-1 0 0 7.5065942965720787 0 0 1 1 0 0 forward_v I I I I #
face $-1 $68 $69 $25 $-1 $70 reversed single #
loop $-1 $-1 $71 $33 #
plane-surface $-1 -41.055952757918647 -15.383376399732635 0 0 -1 0 0 0 -1 forward_v I I I I #
face $-1 $72 $73 $26 $-1 $74 reversed single #
loop $-1 $-1 $75 $34 #
plane-surface $-1 36.675833897073062 17.713726984992196 125.29010251649066 0 -1 0 -0.66913061440640931 0 -0.74314481823134659 forward_v I I I I #
face $-1 $76 $77 $27 $-1 $78 forward single #
loop $-1 $79 $80 $35 #
cone-surface $-1 40.013307925253258 12.447097676761409 4.5805597194690177 -0.66913061440640931 0 -0.74314481823134659 0.74314481823134659 0 -0.66913061440640931 1 I I 0 1 1 forward I I I I #
face $-1 $81 $82 $28 $-1 $83 forward single #
loop $-1 $84 $85 $36 #
cone-surface $-1 40.013307925253258 15.607075261699876 4.5805597194690177 -0.66913061440640931 0 -0.74314481823134659 0.74314481823134659 0 -0.66913061440640931 1 I I 0 1 1 forward I I I I #
face $-1 $86 $87 $29 $-1 $88 reversed single #
loop $-1 $-1 $89 $37 #
plane-surface $-1 -100.65791066970456 10.340445953469096 67.680380573248698 0 1 0 -0.66913061440640931 0 0.74314481823134659 forward_v I I I I #
face $-1 $90 $91 $30 $-1 $92 forward single #
loop $-1 $93 $94 $38 #
cone-surface $-1 -40.013307925253258 12.447097676761409 4.5805597194690195 0.66913061440640931 0 -0.74314481823134659 0.74314481823134659 0 0.66913061440640931 1 I I 0 1 1 forward I I I I #
face $-1 $95 $96 $31 $-1 $97 forward single #
loop $-1 $98 $99 $39 #
cone-surface $-1 -40.013307925253258 15.607075261699876 4.5805597194690195 0.66913061440640931 0 -0.74314481823134659 0.74314481823134659 0 0.66913061440640931 1 I I 0 1 1 forward I I I I #
face $-1 $100 $101 $24 $-1 $102 reversed single #
loop $-1 $-1 $103 $40 #
plane-surface $-1 0 0 -7.5065942965720787 0 0 1 1 0 0 forward_v I I I I #
coedge $-1 $104 $105 $106 $107 forward $41 $-1 #
face $-1 $108 $109 $25 $-1 $110 forward single #
loop $-1 $-1 $111 $43 #
plane-surface $-1 -39.063716789374695 -18.156298633300224 0 -1 0 0 0 0 1 forward_v I I I I #
coedge $-1 $112 $113 $114 $115 forward $44 $-1 #
face $-1 $116 $117 $26 $-1 $118 reversed single #
loop $-1 $-1 $119 $46 #
plane-surface $-1 -20.933888046168903 14.027086469230646 61.308025743859162 0.66913061440640931 0 0.74314481823134659 0.74314481823134659 0 -0.66913061440640931 forward_v I I I I #
coedge $-1 $120 $121 $122 $123 reversed $47 $-1 #
face $-1 $-1 $124 $27 $-1 $125 forward single #
loop $-1 $126 $127 $49 #
cone-surface $-1 38.758629313242878 12.447097676761409 3.1870979812277334 -0.66913061440640931 0 -0.74314481823134659 0.3715724091156733 0 -0.33456530720320465 1 I I -0.70710678118654746 0.70710678118654746 0.5 forward I I I I #
loop $-1 $-1 $128 $35 #
coedge $-1 $80 $80 $129 $130 reversed $50 $-1 #
face $-1 $-1 $131 $28 $-1 $132 forward single #
loop $-1 $133 $134 $52 #
cone-surface $-1 38.758629313242878 15.607075261699876 3.1870979812277334 -0.66913061440640931 0 -0.74314481823134659 0.3715724091156733 0 -0.33456530720320465 1 I I -0.70710678118654746 0.70710678118654746 0.5 forward I I I I #
loop $-1 $-1 $135 $36 #
coedge $-1 $85 $85 $136 $137 reversed $53 $-1 #
face $-1 $138 $139 $29 $-1 $140 reversed single #
loop $-1 $-1 $141 $55 #
plane-surface $-1 -43.048188726462598 14.027086469230646 3.6983038006171967 -0.66913061440640931 0 0.74314481823134659 0.74314481823134659 0 0.66913061440640931 forward_v I I I I #
coedge $-1 $142 $143 $144 $145 reversed $56 $-1 #
face $-1 $-1 $146 $30 $-1 $147 forward single #
loop $-1 $148 $149 $58 #
cone-surface $-1 -38.758629313242878 12.447097676761409 3.1870979812277351 0.66913061440640931 0 -0.74314481823134659 0.3715724091156733 0 0.33456530720320465 1 I I -0.70710678118654746 0.70710678118654746 0.5 forward I I I I #
loop $-1 $-1 $150 $38 #
coedge $-1 $94 $94 $151 $152 reversed $59 $-1 #
face $-1 $-1 $153 $31 $-1 $154 forward single #
loop $-1 $155 $156 $61 #
cone-surface $-1 -38.758629313242878 15.607075261699876 3.1870979812277351 0.66913061440640931 0 -0.74314481823134659 0.3715724091156733 0 0.33456530720320465 1 I I -0.70710678118654746 0.70710678118654746 0.5 forward I I I I #
loop $-1 $-1 $157 $39 #
coedge $-1 $99 $99 $158 $159 reversed $62 $-1 #
face $-1 $160 $161 $24 $-1 $162 reversed single #
loop $-1 $-1 $163 $64 #
plane-surface $-1 0 -20.929220866867816 0 0 1 0 0 0 1 forward_v I I I I #
coedge $-1 $164 $165 $166 $167 forward $65 $-1 #
coedge $-1 $168 $67 $169 $170 forward $41 $-1 #
coedge $-1 $67 $168 $171 $172 forward $41 $-1 #
coedge $-1 $173 $174 $67 $107 reversed $175 $-1 #
edge $-1 $176 -20.929220866867816 $177 20.929220866867816 $106 $178 forward 7 unknown #
face $-1 $179 $180 $25 $-1 $181 reversed single #
loop $-1 $-1 $182 $68 #
plane-surface $-1 0 0 7.5065942965720787 0 0 1 1 0 0 forward_v I I I I #
coedge $-1 $183 $184 $185 $186 reversed $69 $-1 #
coedge $-1 $187 $71 $188 $189 reversed $44 $-1 #
coedge $-1 $71 $187 $190 $191 reversed $44 $-1 #
coedge $-1 $184 $183 $71 $115 reversed $69 $-1 #
edge $-1 $192 -7.5065942965720787 $193 7.5065942965720787 $114 $194 forward 7 unknown #
face $-1 $195 $196 $26 $-1 $197 reversed single #
loop $-1 $-1 $198 $72 #
plane-surface $-1 36.675833897073062 10.340445953469096 125.29010251649066 0 1 0 0.66913061440640931 0 0.74314481823134659 forward_v I I I I #
coedge $-1 $199 $200 $201 $202 reversed $73 $-1 #
coedge $-1 $121 $75 $203 $204 reversed $47 $-1 #
coedge $-1 $75 $120 $199 $205 reversed $47 $-1 #
coedge $-1 $201 $206 $75 $123 forward $207 $-1 #
edge $-1 $208 -24.710271777926067 $209 -20.480736785121763 $122 $210 forward 7 unknown #
loop $-1 $-1 $129 $76 #
plane-surface $-1 -20.933888046168903 14.027086469230646 61.308025743859162 0.66913061440640931 0 0.74314481823134659 0.74314481823134659 0 -0.66913061440640931 forward_v I I I I #
loop $-1 $-1 $211 $49 #
coedge $-1 $127 $127 $128 $212 reversed $77 $-1 #
coedge $-1 $128 $128 $127 $212 forward $79 $-1 #
coedge $-1 $129 $129 $80 $130 forward $124 $-1 #
edge $-1 $213 0 $213 6.2831853071796004 $129 $214 forward 7 unknown #
loop $-1 $-1 $136 $81 #
plane-surface $-1 -20.933888046168903 14.027086469230646 61.308025743859162 0.66913061440640931 0 0.74314481823134659 0.74314481823134659 0 -0.66913061440640931 forward_v I I I I #
loop $-1 $-1 $215 $52 #
coedge $-1 $134 $134 $135 $216 reversed $82 $-1 #
coedge $-1 $135 $135 $134 $216 forward $84 $-1 #
coedge $-1 $136 $136 $85 $137 forward $131 $-1 #
edge $-1 $217 0 $217 6.2831853071796004 $136 $218 forward 7 unknown #
face $-1 $219 $220 $29 $-1 $221 reversed single #
loop $-1 $-1 $222 $86 #
plane-surface $-1 -100.65791066970456 17.713726984992196 67.680380573248698 0 -1 0 0.66913061440640931 0 -0.74314481823134659 forward_v I I I I #
coedge $-1 $223 $224 $225 $226 reversed $87 $-1 #
coedge $-1 $143 $89 $227 $228 reversed $56 $-1 #
coedge $-1 $89 $142 $223 $229 reversed $56 $-1 #
coedge $-1 $225 $230 $89 $145 forward $231 $-1 #
edge $-1 $232 7.2807666083896834 $233 11.510301601193994 $144 $234 forward 7 unknown #
loop $-1 $-1 $151 $90 #
plane-surface $-1 -43.048188726462598 14.027086469230646 3.6983038006171967 -0.66913061440640931 0 0.74314481823134659 0.74314481823134659 0 0.66913061440640931 forward_v I I I I #
loop $-1 $-1 $235 $58 #
coedge $-1 $149 $149 $150 $236 reversed $91 $-1 #
coedge $-1 $150 $150 $149 $236 forward $93 $-1 #
coedge $-1 $151 $151 $94 $152 forward $146 $-1 #
edge $-1 $237 0 $237 6.2831853071796004 $151 $238 forward 7 unknown #
loop $-1 $-1 $158 $95 #
plane-surface $-1 -43.048188726462598 14.027086469230646 3.6983038006171967 -0.66913061440640931 0 0.74314481823134659 0.74314481823134659 0 0.66913061440640931 forward_v I I I I #
loop $-1 $-1 $239 $61 #
coedge $-1 $156 $156 $157 $240 reversed $96 $-1 #
coedge $-1 $157 $157 $156 $240 forward $98 $-1 #
coedge $-1 $158 $158 $99 $159 forward $153 $-1 #
edge $-1 $241 0 $241 6.2831853071796004 $158 $242 forward 7 unknown #
face $-1 $243 $244 $24 $-1 $245 reversed single #
loop $-1 $-1 $246 $100 #
plane-surface $-1 -43.048188726462598 0 0 1 0 0 0 0 -1 forward_v I I I I #
coedge $-1 $247 $171 $248 $249 forward $101 $-1 #
coedge $-1 $250 $103 $247 $251 forward $65 $-1 #
coedge $-1 $103 $250 $252 $253 forward $65 $-1 #
coedge $-1 $174 $173 $103 $167 reversed $175 $-1 #
edge $-1 $254 -20.929220866867816 $255 20.929220866867816 $166 $256 forward 7 unknown #
coedge $-1 $105 $104 $257 $258 forward $41 $-1 #
coedge $-1 $259 $260 $104 $170 reversed $244 $-1 #
edge $-1 $177 -43.048188726462598 $261 43.048188726462598 $169 $262 forward 7 unknown #
coedge $-1 $163 $263 $105 $172 reversed $101 $-1 #
edge $-1 $264 -43.048188726462598 $176 43.048188726462598 $171 $265 forward 7 unknown #
coedge $-1 $166 $106 $263 $266 forward $175 $-1 #
coedge $-1 $106 $166 $259 $267 reversed $175 $-1 #
loop $-1 $-1 $173 $243 #
vertex $-1 $107 $268 #
vertex $-1 $107 $269 #
straight-curve $-1 43.048188726462598 0 7.5065942965720787 0 1 0 I I #
face $-1 $270 $271 $25 $-1 $272 reversed single #
loop $-1 $-1 $273 $108 #
plane-surface $-1 -43.048188726462598 0 0 1 0 0 0 0 -1 forward_v I I I I #
coedge $-1 $190 $274 $184 $275 forward $109 $-1 #
coedge $-1 $114 $111 $276 $277 reversed $69 $-1 #
coedge $-1 $111 $114 $182 $275 reversed $69 $-1 #
coedge $-1 $278 $279 $111 $186 forward $280 $-1 #
edge $-1 $281 -7.5065942965720787 $282 7.5065942965720787 $185 $283 forward 7 unknown #
coedge $-1 $113 $112 $273 $284 reversed $44 $-1 #
coedge $-1 $276 $285 $112 $189 forward $271 $-1 #
edge $-1 $286 -22.520212347503275 $193 -18.535740410415372 $188 $287 forward 7 unknown #
coedge $-1 $288 $182 $113 $191 forward $109 $-1 #
edge $-1 $192 18.535740410415372 $289 22.520212347503275 $190 $290 forward 7 unknown #
vertex $-1 $191 $291 #
vertex $-1 $189 $292 #
straight-curve $-1 -39.063716789374695 -15.383376399732635 0 0 0 -1 I I #
face $-1 $-1 $207 $26 $-1 $293 forward single #
loop $-1 $-1 $294 $116 #
plane-surface $-1 43.048188726462598 0 0 -1 0 0 0 0 1 forward_v I I I I #
coedge $-1 $295 $296 $297 $298 reversed $117 $-1 #
coedge $-1 $299 $119 $121 $205 forward $73 $-1 #
coedge $-1 $119 $299 $295 $300 forward $73 $-1 #
coedge $-1 $297 $122 $119 $202 forward $207 $-1 #
edge $-1 $209 -10.700183750376873 $301 -3.3269027188537734 $201 $302 forward 7 unknown #
coedge $-1 $303 $304 $120 $204 forward $196 $-1 #
edge $-1 $305 -58.946747457628135 $208 -55.138456961673256 $203 $306 forward 7 unknown #
edge $-1 $209 80.404976680098144 $305 86.096377452925196 $121 $307 forward 7 unknown #
coedge $-1 $122 $297 $303 $308 forward $207 $-1 #
loop $-1 $-1 $297 $195 #
vertex $-1 $204 $309 #
vertex $-1 $123 $310 #
straight-curve $-1 18.337916948536531 17.713726984992196 7.5065942965720751 -1 0 0 I I #
coedge $-1 $211 $211 $-1 $311 reversed $126 $-1 #
edge $-1 $312 0 $312 6.2831853071796004 $127 $313 forward 7 unknown #
vertex $-1 $130 $314 #
ellipse-curve $-1 40.933421230060446 12.447097676761409 5.6024490485946421 0.66913061440640931 0 0.74314481823134659 0.74314481823134659 0 -0.66913061440640931 1 I I #
coedge $-1 $215 $215 $-1 $315 reversed $133 $-1 #
edge $-1 $316 0 $316 6.2831853071796004 $134 $317 forward 7 unknown #
vertex $-1 $137 $318 #
ellipse-curve $-1 40.933421230060446 15.607075261699876 5.6024490485946421 0.66913061440640931 0 0.74314481823134659 0.74314481823134659 0 -0.66913061440640931 1 I I #
face $-1 $-1 $231 $29 $-1 $319 forward single #
loop $-1 $-1 $320 $138 #
plane-surface $-1 -43.048188726462598 0 0 1 0 0 0 0 -1 forward_v I I I I #
coedge $-1 $321 $322 $323 $324 reversed $139 $-1 #
coedge $-1 $325 $141 $143 $229 forward $87 $-1 #
coedge $-1 $141 $325 $321 $326 forward $87 $-1 #
coedge $-1 $323 $144 $141 $226 forward $231 $-1 #
edge $-1 $233 3.3269027188537734 $327 10.700183750376873 $225 $328 forward 7 unknown #
coedge $-1 $329 $330 $142 $228 forward $220 $-1 #
edge $-1 $331 -30.141886486007152 $232 -26.33359599005227 $227 $332 forward 7 unknown #
edge $-1 $233 -5.691400772827059 $331 0 $143 $333 forward 7 unknown #
coedge $-1 $144 $323 $329 $334 forward $231 $-1 #
loop $-1 $-1 $323 $219 #
vertex $-1 $228 $335 #
vertex $-1 $145 $336 #
straight-curve $-1 -50.328955334852282 10.340445953469096 7.5065942965720787 1 0 0 I I #
coedge $-1 $235 $235 $-1 $337 reversed $148 $-1 #
edge $-1 $338 0 $338 6.2831853071796004 $149 $339 forward 7 unknown #
vertex $-1 $152 $340 #
ellipse-curve $-1 -40.933421230060446 12.447097676761409 5.6024490485946385 -0.66913061440640931 0 0.74314481823134659 0.74314481823134659 0 0.66913061440640931 1 I I #
coedge $-1 $239 $239 $-1 $341 reversed $155 $-1 #
edge $-1 $342 0 $342 6.2831853071796004 $156 $343 forward 7 unknown #
vertex $-1 $159 $344 #
ellipse-curve $-1 -40.933421230060446 15.607075261699876 5.6024490485946385 -0.66913061440640931 0 0.74314481823134659 0.74314481823134659 0 0.66913061440640931 1 I I #
face $-1 $-1 $175 $24 $-1 $345 reversed single #
loop $-1 $-1 $259 $160 #
plane-surface $-1 0 20.929220866867816 0 0 -1 0 0 0 -1 forward_v I I I I #
coedge $-1 $346 $257 $260 $347 forward $161 $-1 #
coedge $-1 $263 $163 $164 $251 reversed $101 $-1 #
coedge $-1 $257 $346 $163 $249 reversed $161 $-1 #
edge $-1 $264 -7.5065942965720787 $348 7.5065942965720787 $248 $349 forward 7 unknown #
coedge $-1 $165 $164 $346 $350 forward $65 $-1 #
edge $-1 $255 -43.048188726462598 $348 43.048188726462598 $247 $351 forward 7 unknown #
coedge $-1 $260 $259 $165 $253 reversed $244 $-1 #
edge $-1 $352 -43.048188726462598 $254 43.048188726462598 $252 $353 forward 7 unknown #
vertex $-1 $167 $354 #
vertex $-1 $266 $355 #
straight-curve $-1 43.048188726462598 0 -7.5065942965720787 0 -1 0 I I #
coedge $-1 $246 $248 $168 $258 reversed $161 $-1 #
edge $-1 $261 -20.929220866867816 $264 20.929220866867816 $257 $356 forward 7 unknown #
coedge $-1 $252 $169 $174 $267 forward $244 $-1 #
coedge $-1 $169 $252 $246 $347 reversed $244 $-1 #
vertex $-1 $170 $357 #
straight-curve $-1 0 20.929220866867816 7.5065942965720787 -1 0 0 I I #
coedge $-1 $171 $247 $173 $266 reversed $101 $-1 #
vertex $-1 $258 $358 #
straight-curve $-1 0 -20.929220866867816 7.5065942965720787 1 0 0 I I #
edge $-1 $176 -7.5065942965720787 $255 7.5065942965720787 $173 $359 forward 7 unknown #
edge $-1 $177 -7.5065942965720787 $254 7.5065942965720787 $174 $360 forward 7 unknown #
point $-1 43.048188726462598 -20.929220866867816 7.5065942965720787 #
point $-1 43.048188726462598 20.929220866867816 7.5065942965720787 #
face $-1 $-1 $280 $25 $-1 $361 reversed single #
loop $-1 $-1 $276 $179 #
plane-surface $-1 0 0 -7.5065942965720787 0 0 1 1 0 0 forward_v I I I I #
coedge $-1 $362 $363 $187 $284 forward $180 $-1 #
coedge $-1 $182 $288 $278 $364 forward $109 $-1 #
edge $-1 $282 -11.851071550217704 $192 -6.3052270830825226 $182 $365 forward 7 unknown #
coedge $-1 $366 $188 $183 $277 forward $271 $-1 #
edge $-1 $193 6.3052270830825226 $281 11.851071550217704 $276 $367 forward 7 unknown #
coedge $-1 $368 $185 $274 $364 reversed $280 $-1 #
coedge $-1 $185 $368 $366 $369 reversed $280 $-1 #
loop $-1 $-1 $185 $270 #
vertex $-1 $369 $370 #
vertex $-1 $186 $371 #
straight-curve $-1 -39.063716789374695 -20.929220866867816 0 0 0 1 I I #
edge $-1 $289 -7.5065942965720787 $286 7.5065942965720787 $273 $372 forward 7 unknown #
coedge $-1 $188 $366 $362 $373 forward $271 $-1 #
vertex $-1 $189 $374 #
straight-curve $-1 -20.527976378959323 -15.383376399732635 -7.5065942965720787 1 0 0 I I #
coedge $-1 $274 $190 $363 $375 forward $109 $-1 #
vertex $-1 $375 $376 #
straight-curve $-1 -20.527976378959323 -15.383376399732635 7.5065942965720787 -1 0 0 I I #
point $-1 -39.063716789374695 -15.383376399732635 7.5065942965720787 #
point $-1 -39.063716789374695 -15.383376399732635 -7.5065942965720787 #
plane-surface $-1 0 0 7.5065942965720787 0 0 1 1 0 0 forward_v I I I I #
coedge $-1 $304 $303 $296 $377 forward $196 $-1 #
coedge $-1 $296 $198 $200 $300 reversed $117 $-1 #
coedge $-1 $198 $295 $294 $377 reversed $117 $-1 #
coedge $-1 $206 $201 $198 $298 forward $207 $-1 #
edge $-1 $301 20.480736785121763 $378 24.710271777926067 $297 $379 forward 7 unknown #
coedge $-1 $200 $199 $304 $380 reversed $73 $-1 #
edge $-1 $381 -86.096377452925196 $301 -80.404976680098144 $295 $382 forward 7 unknown #
vertex $-1 $202 $383 #
straight-curve $-1 38.818653733658294 7.013543234615323 7.5065942965720751 0 -1 0 I I #
coedge $-1 $294 $203 $206 $308 reversed $196 $-1 #
coedge $-1 $203 $294 $299 $380 forward $196 $-1 #
vertex $-1 $204 $384 #
straight-curve $-1 43.048188726462598 17.713726984992196 62.645051258245331 0 0 1 I I #
straight-curve $-1 -20.933888046168903 17.713726984992196 61.308025743859162 0.74314481823134659 0 -0.66913061440640931 I I #
edge $-1 $378 10.340445953469096 $208 17.713726984992196 $303 $385 forward 7 unknown #
point $-1 43.048188726462598 17.713726984992196 7.5065942965720787 #
point $-1 38.818653733658294 17.713726984992196 7.5065942965720751 #
edge $-1 $386 1 $386 0 $211 $-1 forward 7 unknown #
vertex $-1 $212 $387 #
ellipse-curve $-1 39.093194620446084 12.447097676761409 3.5586703903434067 0.66913061440640931 0 0.74314481823134659 0.74314481823134659 0 -0.66913061440640931 1 I I #
point $-1 41.676566048291782 12.447097676761409 4.9333184341882195 #
edge $-1 $388 1 $388 0 $215 $-1 forward 7 unknown #
vertex $-1 $216 $389 #
ellipse-curve $-1 39.093194620446084 15.607075261699876 3.5586703903434067 0.66913061440640931 0 0.74314481823134659 0.74314481823134659 0 -0.66913061440640931 1 I I #
point $-1 41.676566048291782 15.607075261699876 4.9333184341882195 #
plane-surface $-1 0 0 7.5065942965720787 0 0 1 1 0 0 forward_v I I I I #
coedge $-1 $330 $329 $322 $390 forward $220 $-1 #
coedge $-1 $322 $222 $224 $326 reversed $139 $-1 #
coedge $-1 $222 $321 $320 $390 reversed $139 $-1 #
coedge $-1 $230 $225 $222 $324 forward $231 $-1 #
edge $-1 $327 -11.510301601193994 $391 -7.2807666083896834 $323 $392 forward 7 unknown #
coedge $-1 $224 $223 $330 $393 reversed $87 $-1 #
edge $-1 $394 0 $327 5.691400772827059 $321 $395 forward 7 unknown #
vertex $-1 $226 $396 #
straight-curve $-1 -38.818653733658287 7.013543234615323 7.5065942965720787 0 1 0 I I #
coedge $-1 $320 $227 $230 $334 reversed $220 $-1 #
coedge $-1 $227 $320 $325 $393 forward $220 $-1 #
vertex $-1 $228 $397 #
straight-curve $-1 -43.048188726462598 10.340445953469096 33.840190286624349 0 0 1 I I #
straight-curve $-1 -43.048188726462598 10.340445953469096 3.6983038006171967 -0.74314481823134659 0 -0.66913061440640931 I I #
edge $-1 $391 -17.713726984992196 $232 -10.340445953469096 $329 $398 forward 7 unknown #
point $-1 -43.048188726462598 10.340445953469096 7.5065942965720787 #
point $-1 -38.818653733658287 10.340445953469096 7.5065942965720787 #
edge $-1 $399 1 $399 0 $235 $-1 forward 7 unknown #
vertex $-1 $236 $400 #
ellipse-curve $-1 -39.093194620446084 12.447097676761409 3.5586703903434085 -0.66913061440640931 0 0.74314481823134659 0.74314481823134659 0 0.66913061440640931 1 I I #
point $-1 -40.190276411829089 12.447097676761409 6.2715796630010399 #
edge $-1 $401 1 $401 0 $239 $-1 forward 7 unknown #
vertex $-1 $240 $402 #
ellipse-curve $-1 -39.093194620446084 15.607075261699876 3.5586703903434085 -0.66913061440640931 0 0.74314481823134659 0.74314481823134659 0 0.66913061440640931 1 I I #
point $-1 -40.190276411829089 15.607075261699876 6.2715796630010399 #
plane-surface $-1 43.048188726462598 0 0 -1 0 0 0 0 1 forward_v I I I I #
coedge $-1 $248 $246 $250 $350 reversed $161 $-1 #
edge $-1 $261 -7.5065942965720787 $352 7.5065942965720787 $260 $403 forward 7 unknown #
vertex $-1 $350 $404 #
straight-curve $-1 -43.048188726462598 -20.929220866867816 0 0 0 -1 I I #
edge $-1 $348 -20.929220866867816 $352 20.929220866867816 $346 $405 forward 7 unknown #
straight-curve $-1 0 -20.929220866867816 -7.5065942965720787 -1 0 0 I I #
vertex $-1 $253 $406 #
straight-curve $-1 0 20.929220866867816 -7.5065942965720787 1 0 0 I I #
point $-1 43.048188726462598 20.929220866867816 -7.5065942965720787 #
point $-1 43.048188726462598 -20.929220866867816 -7.5065942965720787 #
straight-curve $-1 -43.048188726462598 0 7.5065942965720787 0 -1 0 I I #
point $-1 -43.048188726462598 20.929220866867816 7.5065942965720787 #
point $-1 -43.048188726462598 -20.929220866867816 7.5065942965720787 #
straight-curve $-1 43.048188726462598 -20.929220866867816 0 0 0 -1 I I #
straight-curve $-1 43.048188726462598 20.929220866867816 0 0 0 -1 I I #
plane-surface $-1 0 -20.929220866867816 0 0 1 0 0 0 1 forward_v I I I I #
coedge $-1 $407 $273 $285 $373 reversed $180 $-1 #
coedge $-1 $273 $407 $288 $375 reversed $180 $-1 #
edge $-1 $408 -43.048188726462598 $282 -39.063716789374695 $278 $409 forward 7 unknown #
straight-curve $-1 -39.063716789374695 -9.0781493166501122 7.5065942965720787 0 1 0 I I #
coedge $-1 $285 $276 $279 $369 forward $271 $-1 #
straight-curve $-1 -39.063716789374695 -9.0781493166501122 -7.5065942965720787 0 -1 0 I I #
coedge $-1 $279 $278 $407 $410 forward $280 $-1 #
edge $-1 $281 39.063716789374695 $411 43.048188726462598 $279 $412 forward 7 unknown #
point $-1 -39.063716789374695 -20.929220866867816 -7.5065942965720787 #
point $-1 -39.063716789374695 -20.929220866867816 7.5065942965720787 #
straight-curve $-1 -43.048188726462598 -15.383376399732635 0 0 0 -1 I I #
edge $-1 $411 -20.929220866867816 $286 -15.383376399732635 $362 $413 forward 7 unknown #
point $-1 -43.048188726462598 -15.383376399732635 -7.5065942965720787 #
edge $-1 $289 15.383376399732635 $408 20.929220866867816 $363 $414 forward 7 unknown #
point $-1 -43.048188726462598 -15.383376399732635 7.5065942965720787 #
edge $-1 $378 55.138456961673256 $381 58.946747457628135 $294 $415 forward 7 unknown #
vertex $-1 $308 $416 #
straight-curve $-1 18.337916948536531 10.340445953469096 7.5065942965720751 1 0 0 I I #
edge $-1 $381 3.3269027188537734 $305 10.700183750376873 $304 $417 forward 7 unknown #
vertex $-1 $380 $418 #
straight-curve $-1 -20.933888046168903 10.340445953469096 61.308025743859162 -0.74314481823134659 0 0.66913061440640931 I I #
point $-1 38.818653733658294 10.340445953469096 7.5065942965720751 #
point $-1 43.048188726462598 17.713726984992196 3.6983038006171967 #
straight-curve $-1 43.048188726462598 0 7.5065942965720787 0 1 0 I I #
vertex $-1 $311 $419 #
point $-1 39.836339438677427 12.447097676761409 2.8895397759369974 #
vertex $-1 $315 $420 #
point $-1 39.836339438677427 15.607075261699876 2.8895397759369974 #
edge $-1 $391 26.33359599005227 $394 30.141886486007152 $320 $421 forward 7 unknown #
vertex $-1 $334 $422 #
straight-curve $-1 -50.328955334852282 17.713726984992196 7.5065942965720787 -1 0 0 I I #
edge $-1 $394 -10.700183750376873 $331 -3.3269027188537734 $330 $423 forward 7 unknown #
vertex $-1 $393 $424 #
straight-curve $-1 -43.048188726462598 17.713726984992196 3.6983038006171967 0.74314481823134659 0 0.66913061440640931 I I #
point $-1 -38.818653733658287 17.713726984992196 7.5065942965720787 #
point $-1 -43.048188726462598 10.340445953469096 3.6983038006171967 #
straight-curve $-1 -43.048188726462598 0 7.5065942965720787 0 -1 0 I I #
vertex $-1 $337 $425 #
point $-1 -38.350049802214734 12.447097676761409 4.2278010047498178 #
vertex $-1 $341 $426 #
point $-1 -38.350049802214734 15.607075261699876 4.2278010047498178 #
straight-curve $-1 -43.048188726462598 20.929220866867816 0 0 0 -1 I I #
point $-1 -43.048188726462598 -20.929220866867816 -7.5065942965720787 #
straight-curve $-1 -43.048188726462598 0 -7.5065942965720787 0 1 0 I I #
point $-1 -43.048188726462598 20.929220866867816 -7.5065942965720787 #
coedge $-1 $363 $362 $368 $410 reversed $180 $-1 #
vertex $-1 $375 $427 #
straight-curve $-1 0 -20.929220866867816 7.5065942965720787 1 0 0 I I #
edge $-1 $408 -7.5065942965720787 $411 7.5065942965720787 $407 $428 forward 7 unknown #
vertex $-1 $373 $429 #
straight-curve $-1 0 -20.929220866867816 -7.5065942965720787 -1 0 0 I I #
straight-curve $-1 -43.048188726462598 0 -7.5065942965720787 0 1 0 I I #
straight-curve $-1 -43.048188726462598 0 7.5065942965720787 0 -1 0 I I #
straight-curve $-1 43.048188726462598 10.340445953469096 62.645051258245331 0 0 -1 I I #
point $-1 43.048188726462598 10.340445953469096 7.5065942965720787 #
straight-curve $-1 43.048188726462598 7.013543234615323 3.6983038006172002 0 1 0 I I #
point $-1 43.048188726462598 10.340445953469096 3.6983038006171967 #
point $-1 38.424064006039671 12.447097676761409 2.81552557211206 #
point $-1 38.424064006039671 15.607075261699876 2.81552557211206 #
straight-curve $-1 -43.048188726462598 17.713726984992196 33.840190286624349 0 0 -1 I I #
point $-1 -43.048188726462598 17.713726984992196 7.5065942965720787 #
straight-curve $-1 -43.048188726462598 7.013543234615323 3.6983038006171967 0 -1 0 I I #
point $-1 -43.048188726462598 17.713726984992196 3.6983038006171967 #
point $-1 -38.424064006039671 12.447097676761409 2.8155255721120618 #
point $-1 -38.424064006039671 15.607075261699876 2.8155255721120618 #
point $-1 -43.048188726462598 -20.929220866867816 7.5065942965720787 #
straight-curve $-1 -43.048188726462598 -20.929220866867816 0 0 0 -1 I I #
point $-1 -43.048188726462598 -20.929220866867816 -7.5065942965720787 #
End-of-ACIS-data 