500 0 9 0           
7 Unknown 11 ACIS 5.0 NT 24 Thu Mar 25 23:24:00 1999 
-1 9.9999999999999995e-007 1e-010 
body $-1 $9 $-1 $10 #
body $-1 $11 $-1 $12 #
body $-1 $13 $-1 $14 #
body $-1 $15 $-1 $16 #
body $-1 $17 $-1 $18 #
body $-1 $19 $-1 $20 #
body $-1 $21 $-1 $22 #
body $-1 $23 $-1 $24 #
body $-1 $25 $-1 $26 #
lump $-1 $-1 $27 $0 #
transform $-1 1 0 0 0 1 0 0 0 1 42.011780144657735 22.924736172505714 9.2919097279056011 1 rotate no_reflect no_shear #
lump $-1 $-1 $28 $1 #
transform $-1 1 0 0 0 1 0 0 0 1 42.011780144657735 22.924736172505714 9.2919097279056011 1 rotate no_reflect no_shear #
lump $-1 $-1 $29 $2 #
transform $-1 1 0 0 0 1 0 0 0 1 42.011780144657735 22.924736172505714 9.2919097279056011 1 rotate no_reflect no_shear #
lump $-1 $-1 $30 $3 #
transform $-1 1 0 0 0 1 0 0 0 1 42.011780144657735 22.924736172505714 9.2919097279056011 1 rotate no_reflect no_shear #
lump $-1 $-1 $31 $4 #
transform $-1 1 0 0 0 1 0 0 0 1 42.011780144657735 22.924736172505714 9.2919097279056011 1 rotate no_reflect no_shear #
lump $-1 $-1 $32 $5 #
transform $-1 1 0 0 0 1 0 0 0 1 42.011780144657735 22.924736172505714 9.2919097279056011 1 rotate no_reflect no_shear #
lump $-1 $-1 $33 $6 #
transform $-1 1 0 0 0 1 0 0 0 1 42.011780144657735 22.924736172505714 9.2919097279056011 1 rotate no_reflect no_shear #
lump $-1 $-1 $34 $7 #
transform $-1 1 0 0 0 1 0 0 0 1 42.011780144657735 22.924736172505714 9.2919097279056011 1 rotate no_reflect no_shear #
lump $-1 $-1 $35 $8 #
transform $-1 1 0 0 0 1 0 0 0 1 42.011780144657735 22.924736172505714 9.2919097279056011 1 rotate no_reflect no_shear #
shell $-1 $-1 $-1 $36 $-1 $9 #
shell $-1 $-1 $-1 $37 $-1 $11 #
shell $-1 $-1 $-1 $38 $-1 $13 #
shell $-1 $-1 $-1 $39 $-1 $15 #
shell $-1 $-1 $-1 $40 $-1 $17 #
shell $-1 $-1 $-1 $41 $-1 $19 #
shell $-1 $-1 $-1 $42 $-1 $21 #
shell $-1 $-1 $-1 $43 $-1 $23 #
shell $-1 $-1 $-1 $44 $-1 $25 #
face $-1 $45 $46 $27 $-1 $47 forward single #
face $-1 $48 $49 $28 $-1 $50 forward single #
face $-1 $51 $52 $29 $-1 $53 forward single #
face $-1 $54 $55 $30 $-1 $56 reversed single #
face $-1 $57 $58 $31 $-1 $59 forward single #
face $-1 $60 $61 $32 $-1 $62 reversed single #
face $-1 $63 $64 $33 $-1 $65 forward single #
face $-1 $66 $67 $34 $-1 $68 reversed single #
face $-1 $69 $70 $35 $-1 $71 forward single #
face $-1 $72 $73 $27 $-1 $74 reversed single #
loop $-1 $-1 $75 $36 #
plane-surface $-1 0 0 9.2919097279056011 0 0 1 1 0 0 forward_v I I I I #
face $-1 $76 $77 $28 $-1 $78 reversed single #
loop $-1 $-1 $79 $37 #
plane-surface $-1 0 -22.924736172505714 0 0 1 0 0 0 1 forward_v I I I I #
face $-1 $80 $81 $29 $-1 $82 reversed single #
loop $-1 $-1 $83 $38 #
plane-surface $-1 0 22.924736172505714 0 0 -1 0 0 0 -1 forward_v I I I I #
face $-1 $84 $85 $30 $-1 $86 reversed single #
loop $-1 $-1 $87 $39 #
plane-surface $-1 -104.45345488766606 -12.337055917092837 56.618679707157042 0 1 0 -0.74314483375859142 0 0.66913059716165679 forward_v I I I I #
face $-1 $88 $89 $31 $-1 $90 forward single #
loop $-1 $91 $92 $40 #
cone-surface $-1 -36.654648026974499 -9.101497238520766 3.6264452137556904 0.74314483375859142 0 -0.66913059716165679 0.66913059716165679 0 0.74314483375859142 1 I I 0 1 1 forward I I I I #
face $-1 $93 $94 $32 $-1 $95 reversed single #
loop $-1 $-1 $96 $41 #
plane-surface $-1 -104.45345488766606 5.8659385599486971 56.618679707157042 0 1 0 -0.74314483375859142 0 0.66913059716165679 forward_v I I I I #
face $-1 $97 $98 $33 $-1 $99 forward single #
loop $-1 $100 $101 $42 #
cone-surface $-1 -36.654648026974499 9.1014972385207678 3.6264452137556904 0.74314483375859142 0 -0.66913059716165679 0.66913059716165679 0 0.74314483375859142 1 I I 0 1 1 forward I I I I #
face $-1 $102 $103 $34 $-1 $104 reversed single #
loop $-1 $-1 $105 $43 #
plane-surface $-1 35.792843227307443 5.4222408296296312 122.15052773364651 0 -1 0 -0.66913061440640931 0 -0.74314481823134659 forward_v I I I I #
face $-1 $106 $107 $35 $-1 $108 forward single #
loop $-1 $109 $110 $44 #
cone-surface $-1 38.180021710705155 1.0346476967293334 5.7140213477585124 -0.66913061440640931 0 -0.74314481823134659 0.74314481823134659 0 -0.66913061440640931 1 I I 0 1 1 forward I I I I #
face $-1 $111 $112 $27 $-1 $113 reversed single #
loop $-1 $-1 $114 $45 #
plane-surface $-1 0 0 -9.2919097279056011 0 0 1 1 0 0 forward_v I I I I #
coedge $-1 $115 $116 $117 $118 forward $46 $-1 #
face $-1 $119 $120 $28 $-1 $121 forward single #
loop $-1 $-1 $122 $48 #
plane-surface $-1 -42.011780144657735 0 0 1 0 0 0 0 -1 forward_v I I I I #
coedge $-1 $123 $124 $125 $126 forward $49 $-1 #
face $-1 $127 $128 $29 $-1 $129 forward single #
loop $-1 $-1 $130 $51 #
plane-surface $-1 42.011780144657735 0 0 -1 0 0 0 0 1 forward_v I I I I #
coedge $-1 $131 $132 $133 $134 forward $52 $-1 #
face $-1 $135 $136 $30 $-1 $137 reversed single #
loop $-1 $-1 $138 $54 #
plane-surface $-1 -42.011780144657727 -9.101497238520766 0.39594463511890865 -0.74314483375859142 0 0.66913059716165679 0.66913059716165679 0 0.74314483375859142 forward_v I I I I #
coedge $-1 $139 $140 $141 $142 reversed $55 $-1 #
face $-1 $-1 $143 $31 $-1 $144 forward single #
loop $-1 $145 $146 $57 #
cone-surface $-1 -34.930924866472949 -9.101497238520766 2.0743979474182961 0.74314483375859142 0 -0.66913059716165679 0.3345652985808284 0 0.37157241687929571 1 I I -0.70710678118654746 0.70710678118654746 0.5 forward I I I I #
loop $-1 $-1 $147 $40 #
coedge $-1 $92 $92 $148 $149 reversed $58 $-1 #
face $-1 $150 $151 $32 $-1 $152 reversed single #
loop $-1 $-1 $153 $60 #
plane-surface $-1 -42.011780144657727 9.1014972385207678 0.39594463511890865 -0.74314483375859142 0 0.66913059716165679 0.66913059716165679 0 0.74314483375859142 forward_v I I I I #
coedge $-1 $154 $155 $156 $157 reversed $61 $-1 #
face $-1 $-1 $158 $33 $-1 $159 forward single #
loop $-1 $160 $161 $63 #
cone-surface $-1 -34.930924866472949 9.1014972385207678 2.0743979474182961 0.74314483375859142 0 -0.66913059716165679 0.3345652985808284 0 0.37157241687929571 1 I I -0.70710678118654746 0.70710678118654746 0.5 forward I I I I #
loop $-1 $-1 $162 $42 #
coedge $-1 $101 $101 $163 $164 reversed $64 $-1 #
face $-1 $165 $166 $34 $-1 $167 reversed single #
loop $-1 $-1 $168 $66 #
plane-surface $-1 -20.429893293696189 1.0346476967293334 59.708854295292575 0.66913061440640931 0 0.74314481823134659 0.74314481823134659 0 -0.66913061440640931 forward_v I I I I #
coedge $-1 $169 $170 $171 $172 reversed $67 $-1 #
face $-1 $-1 $173 $35 $-1 $174 forward single #
loop $-1 $175 $176 $69 #
cone-surface $-1 37.237690500429849 1.0346476967293334 4.6674565353040727 -0.66913061440640931 0 -0.74314481823134659 0.3715724091156733 0 -0.33456530720320465 1 I I -0.70710678118654746 0.70710678118654746 0.5 forward I I I I #
loop $-1 $-1 $177 $44 #
coedge $-1 $110 $110 $178 $179 reversed $70 $-1 #
face $-1 $180 $181 $27 $-1 $182 reversed single #
loop $-1 $-1 $183 $72 #
plane-surface $-1 0 -22.924736172505714 0 0 1 0 0 0 1 forward_v I I I I #
coedge $-1 $184 $185 $186 $187 forward $73 $-1 #
coedge $-1 $188 $75 $189 $190 forward $46 $-1 #
coedge $-1 $75 $188 $191 $192 forward $46 $-1 #
coedge $-1 $193 $194 $75 $118 reversed $195 $-1 #
edge $-1 $196 -22.924736172505714 $197 22.924736172505714 $117 $198 forward 7 unknown #
face $-1 $199 $200 $28 $-1 $201 reversed single #
loop $-1 $-1 $202 $76 #
plane-surface $-1 0 -26.435757723359494 -2.8614434131753477 0 0 1 1 0 0 forward_v I I I I #
coedge $-1 $203 $204 $124 $205 forward $77 $-1 #
coedge $-1 $206 $79 $207 $208 reversed $49 $-1 #
coedge $-1 $79 $206 $122 $205 reversed $49 $-1 #
coedge $-1 $209 $202 $79 $126 reversed $120 $-1 #
edge $-1 $210 -42.011780144657735 $211 42.011780144657735 $125 $212 forward 7 unknown #
face $-1 $213 $214 $29 $-1 $215 reversed single #
loop $-1 $-1 $216 $80 #
plane-surface $-1 0 26.43575772335949 -2.8614434131753477 0 0 1 1 0 0 forward_v I I I I #
coedge $-1 $217 $218 $132 $219 forward $81 $-1 #
coedge $-1 $220 $83 $221 $222 reversed $52 $-1 #
coedge $-1 $83 $220 $130 $219 reversed $52 $-1 #
coedge $-1 $216 $223 $83 $134 reversed $128 $-1 #
edge $-1 $224 -42.011780144657735 $225 42.011780144657735 $133 $226 forward 7 unknown #
face $-1 $227 $228 $30 $-1 $229 reversed single #
loop $-1 $-1 $230 $84 #
plane-surface $-1 -104.45345488766606 -5.8659385599486953 56.618679707157042 0 -1 0 0.74314483375859142 0 -0.66913059716165679 forward_v I I I I #
coedge $-1 $231 $232 $233 $234 reversed $85 $-1 #
coedge $-1 $140 $87 $235 $236 reversed $55 $-1 #
coedge $-1 $87 $139 $231 $237 reversed $55 $-1 #
coedge $-1 $233 $238 $87 $142 forward $239 $-1 #
edge $-1 $240 10.214947299175293 $241 18.224910047297271 $141 $242 forward 7 unknown #
loop $-1 $-1 $148 $88 #
plane-surface $-1 -42.011780144657727 -9.101497238520766 0.39594463511890865 -0.74314483375859142 0 0.66913059716165679 0.66913059716165679 0 0.74314483375859142 forward_v I I I I #
loop $-1 $-1 $243 $57 #
coedge $-1 $146 $146 $147 $244 reversed $89 $-1 #
coedge $-1 $147 $147 $146 $244 forward $91 $-1 #
coedge $-1 $148 $148 $92 $149 forward $143 $-1 #
edge $-1 $245 0 $245 6.2831853071796004 $148 $246 forward 7 unknown #
face $-1 $247 $248 $32 $-1 $249 forward single #
loop $-1 $-1 $250 $93 #
plane-surface $-1 -104.45345488766606 12.337055917092838 56.618679707157042 0 -1 0 0.74314483375859142 0 -0.66913059716165679 forward_v I I I I #
coedge $-1 $251 $252 $253 $254 reversed $94 $-1 #
coedge $-1 $155 $96 $255 $256 reversed $61 $-1 #
coedge $-1 $96 $154 $251 $257 reversed $61 $-1 #
coedge $-1 $253 $258 $96 $157 forward $248 $-1 #
edge $-1 $259 10.214947299175293 $260 18.224910047297271 $156 $261 forward 7 unknown #
loop $-1 $-1 $163 $97 #
plane-surface $-1 -42.011780144657727 9.1014972385207678 0.39594463511890865 -0.74314483375859142 0 0.66913059716165679 0.66913059716165679 0 0.74314483375859142 forward_v I I I I #
loop $-1 $-1 $262 $63 #
coedge $-1 $161 $161 $162 $263 reversed $98 $-1 #
coedge $-1 $162 $162 $161 $263 forward $100 $-1 #
coedge $-1 $163 $163 $101 $164 forward $158 $-1 #
edge $-1 $264 0 $264 6.2831853071796004 $163 $265 forward 7 unknown #
face $-1 $266 $267 $34 $-1 $268 forward single #
loop $-1 $-1 $269 $102 #
plane-surface $-1 35.792843227307443 -3.3529454361709643 122.15052773364651 0 1 0 0.66913061440640931 0 0.74314481823134659 forward_v I I I I #
coedge $-1 $270 $271 $272 $273 reversed $103 $-1 #
coedge $-1 $170 $105 $274 $275 reversed $67 $-1 #
coedge $-1 $105 $169 $270 $276 reversed $67 $-1 #
coedge $-1 $272 $277 $105 $172 forward $267 $-1 #
edge $-1 $278 -24.115358531004013 $279 -17.66737346924306 $171 $280 forward 7 unknown #
loop $-1 $-1 $178 $106 #
plane-surface $-1 -20.429893293696189 1.0346476967293334 59.708854295292575 0.66913061440640931 0 0.74314481823134659 0.74314481823134659 0 -0.66913061440640931 forward_v I I I I #
loop $-1 $-1 $281 $69 #
coedge $-1 $176 $176 $177 $282 reversed $107 $-1 #
coedge $-1 $177 $177 $176 $282 forward $109 $-1 #
coedge $-1 $178 $178 $110 $179 forward $173 $-1 #
edge $-1 $283 0 $283 6.2831853071796004 $178 $284 forward 7 unknown #
face $-1 $285 $286 $27 $-1 $287 reversed single #
loop $-1 $-1 $288 $111 #
plane-surface $-1 -42.011780144657735 0 0 1 0 0 0 0 -1 forward_v I I I I #
coedge $-1 $289 $191 $290 $291 forward $112 $-1 #
coedge $-1 $292 $114 $289 $293 forward $73 $-1 #
coedge $-1 $114 $292 $294 $295 forward $73 $-1 #
coedge $-1 $194 $193 $114 $187 reversed $195 $-1 #
edge $-1 $296 -22.924736172505714 $297 22.924736172505714 $186 $298 forward 7 unknown #
coedge $-1 $116 $115 $299 $300 forward $46 $-1 #
coedge $-1 $301 $302 $115 $190 reversed $286 $-1 #
edge $-1 $197 -42.011780144657735 $303 42.011780144657735 $189 $304 forward 7 unknown #
coedge $-1 $183 $305 $116 $192 reversed $112 $-1 #
edge $-1 $306 -42.011780144657735 $196 42.011780144657735 $191 $307 forward 7 unknown #
coedge $-1 $186 $117 $305 $308 forward $195 $-1 #
coedge $-1 $117 $186 $301 $309 reversed $195 $-1 #
loop $-1 $-1 $193 $285 #
vertex $-1 $118 $310 #
vertex $-1 $118 $311 #
straight-curve $-1 42.011780144657735 0 9.2919097279056011 0 1 0 I I #
face $-1 $312 $313 $28 $-1 $314 reversed single #
loop $-1 $-1 $315 $119 #
plane-surface $-1 0 -26.435757723359494 -5.8614434131753477 0 0 1 1 0 0 forward_v I I I I #
coedge $-1 $125 $316 $317 $318 forward $120 $-1 #
coedge $-1 $319 $122 $320 $321 reversed $77 $-1 #
coedge $-1 $122 $319 $209 $322 reversed $77 $-1 #
edge $-1 $210 2.8614434131753477 $323 5.8614434131753477 $122 $324 forward 7 unknown #
coedge $-1 $124 $123 $325 $326 forward $49 $-1 #
coedge $-1 $317 $327 $123 $208 forward $328 $-1 #
edge $-1 $329 -5.8614434131753477 $211 -2.8614434131753477 $207 $330 forward 7 unknown #
coedge $-1 $316 $125 $204 $322 forward $120 $-1 #
vertex $-1 $205 $331 #
vertex $-1 $318 $332 #
straight-curve $-1 0 -22.924736172505714 -2.8614434131753477 1 0 0 I I #
face $-1 $333 $334 $29 $-1 $335 reversed single #
loop $-1 $-1 $336 $127 #
plane-surface $-1 0 26.43575772335949 -5.8614434131753477 0 0 1 1 0 0 forward_v I I I I #
coedge $-1 $337 $133 $218 $338 forward $128 $-1 #
coedge $-1 $339 $130 $336 $340 reversed $81 $-1 #
coedge $-1 $130 $339 $216 $338 reversed $81 $-1 #
edge $-1 $224 2.8614434131753477 $341 5.8614434131753477 $130 $342 forward 7 unknown #
coedge $-1 $132 $131 $343 $344 forward $52 $-1 #
coedge $-1 $345 $346 $131 $222 forward $347 $-1 #
edge $-1 $348 -5.8614434131753477 $225 -2.8614434131753477 $221 $349 forward 7 unknown #
coedge $-1 $133 $337 $345 $350 forward $128 $-1 #
vertex $-1 $219 $351 #
vertex $-1 $350 $352 #
straight-curve $-1 0 22.924736172505714 -2.8614434131753477 -1 0 0 I I #
face $-1 $-1 $239 $30 $-1 $353 forward single #
loop $-1 $-1 $354 $135 #
plane-surface $-1 -42.011780144657735 0 0 1 0 0 0 0 -1 forward_v I I I I #
coedge $-1 $355 $356 $357 $358 reversed $136 $-1 #
coedge $-1 $359 $138 $140 $237 forward $85 $-1 #
coedge $-1 $138 $359 $355 $360 forward $85 $-1 #
coedge $-1 $357 $141 $138 $234 forward $239 $-1 #
edge $-1 $241 -7.7863072978324537 $361 -1.3151899406883123 $233 $362 forward 7 unknown #
coedge $-1 $363 $364 $139 $236 forward $228 $-1 #
edge $-1 $365 -27.91339521845962 $240 -19.01743012567292 $235 $366 forward 7 unknown #
edge $-1 $241 -11.970701656894679 $365 1.0612360036877491e-014 $140 $367 forward 7 unknown #
coedge $-1 $141 $357 $363 $368 forward $239 $-1 #
loop $-1 $-1 $357 $227 #
vertex $-1 $236 $369 #
vertex $-1 $142 $370 #
straight-curve $-1 -52.226727443833028 -12.337055917092837 9.2919097279056011 1 0 0 I I #
coedge $-1 $243 $243 $-1 $371 reversed $145 $-1 #
edge $-1 $372 0 $372 6.2831853071796004 $146 $373 forward 7 unknown #
vertex $-1 $149 $374 #
ellipse-curve $-1 -38.006798770596745 -9.101497238520766 4.8439271815122504 -0.74314483375859142 0 0.66913059716165679 0.66913059716165679 0 0.74314483375859142 1 I I #
face $-1 $-1 $375 $32 $-1 $376 reversed single #
loop $-1 $-1 $156 $150 #
plane-surface $-1 0 0 9.2919097279056011 0 0 1 1 0 0 forward_v I I I I #
coedge $-1 $377 $378 $379 $380 reversed $151 $-1 #
coedge $-1 $381 $153 $155 $257 forward $94 $-1 #
coedge $-1 $153 $381 $377 $382 forward $94 $-1 #
coedge $-1 $379 $156 $153 $254 forward $248 $-1 #
edge $-1 $260 1.3151899406883132 $383 7.7863072978324546 $253 $384 forward 7 unknown #
coedge $-1 $385 $386 $154 $256 forward $375 $-1 #
edge $-1 $387 -27.91339521845962 $259 -19.01743012567292 $255 $388 forward 7 unknown #
edge $-1 $260 -11.970701656894679 $387 1.0612360036877491e-014 $155 $389 forward 7 unknown #
coedge $-1 $156 $379 $385 $390 forward $248 $-1 #
vertex $-1 $157 $391 #
vertex $-1 $157 $392 #
straight-curve $-1 -52.226727443833028 5.8659385599486971 9.2919097279056011 1 0 0 I I #
coedge $-1 $262 $262 $-1 $393 reversed $160 $-1 #
edge $-1 $394 0 $394 6.2831853071796004 $161 $395 forward 7 unknown #
vertex $-1 $164 $396 #
ellipse-curve $-1 -38.006798770596745 9.1014972385207678 4.8439271815122504 -0.74314483375859142 0 0.66913059716165679 0.66913059716165679 0 0.74314483375859142 1 I I #
face $-1 $-1 $397 $34 $-1 $398 reversed single #
loop $-1 $-1 $171 $165 #
plane-surface $-1 0 0 9.2919097279056011 0 0 1 1 0 0 forward_v I I I I #
coedge $-1 $399 $400 $401 $402 reversed $166 $-1 #
coedge $-1 $403 $168 $170 $276 forward $103 $-1 #
coedge $-1 $168 $403 $399 $404 forward $103 $-1 #
coedge $-1 $401 $171 $168 $273 forward $267 $-1 #
edge $-1 $279 -4.9049169812649644 $405 3.870269284535631 $272 $406 forward 7 unknown #
coedge $-1 $407 $408 $169 $275 forward $397 $-1 #
edge $-1 $409 -57.589146092534307 $278 -51.783354138917659 $274 $410 forward 7 unknown #
edge $-1 $279 75.346940465595381 $409 84.023560289315441 $170 $411 forward 7 unknown #
coedge $-1 $171 $401 $407 $412 forward $267 $-1 #
vertex $-1 $275 $413 #
vertex $-1 $172 $414 #
straight-curve $-1 17.896421613653722 5.4222408296296312 9.2919097279056047 -1 0 0 I I #
coedge $-1 $281 $281 $-1 $415 reversed $175 $-1 #
edge $-1 $416 0 $416 6.2831853071796004 $176 $417 forward 7 unknown #
vertex $-1 $179 $418 #
ellipse-curve $-1 38.787787613777262 1.0346476967293334 6.3890137510972798 0.66913061440640931 0 0.74314481823134659 0.74314481823134659 0 -0.66913061440640931 1 I I #
face $-1 $-1 $195 $27 $-1 $419 reversed single #
loop $-1 $-1 $301 $180 #
plane-surface $-1 0 22.924736172505714 0 0 -1 0 0 0 -1 forward_v I I I I #
coedge $-1 $420 $299 $302 $421 forward $181 $-1 #
coedge $-1 $305 $183 $184 $293 reversed $112 $-1 #
coedge $-1 $299 $420 $183 $291 reversed $181 $-1 #
edge $-1 $306 -9.2919097279056011 $422 9.2919097279056011 $290 $423 forward 7 unknown #
coedge $-1 $185 $184 $420 $424 forward $73 $-1 #
edge $-1 $297 -42.011780144657735 $422 42.011780144657735 $289 $425 forward 7 unknown #
coedge $-1 $302 $301 $185 $295 reversed $286 $-1 #
edge $-1 $426 -42.011780144657735 $296 42.011780144657735 $294 $427 forward 7 unknown #
vertex $-1 $187 $428 #
vertex $-1 $308 $429 #
straight-curve $-1 42.011780144657735 0 -9.2919097279056011 0 -1 0 I I #
coedge $-1 $288 $290 $188 $300 reversed $181 $-1 #
edge $-1 $303 -22.924736172505714 $306 22.924736172505714 $299 $430 forward 7 unknown #
coedge $-1 $294 $189 $194 $309 forward $286 $-1 #
coedge $-1 $189 $294 $288 $421 reversed $286 $-1 #
vertex $-1 $190 $431 #
straight-curve $-1 0 22.924736172505714 9.2919097279056011 -1 0 0 I I #
coedge $-1 $191 $289 $193 $308 reversed $112 $-1 #
vertex $-1 $300 $432 #
straight-curve $-1 0 -22.924736172505714 9.2919097279056011 1 0 0 I I #
edge $-1 $196 -9.2919097279056011 $297 9.2919097279056011 $193 $433 forward 7 unknown #
edge $-1 $197 -9.2919097279056011 $296 9.2919097279056011 $194 $434 forward 7 unknown #
point $-1 42.011780144657735 -22.924736172505714 9.2919097279056011 #
point $-1 42.011780144657735 22.924736172505714 9.2919097279056011 #
face $-1 $-1 $328 $28 $-1 $435 reversed single #
loop $-1 $-1 $436 $199 #
plane-surface $-1 0 -29.946779274213274 -4.3614434131753477 0 1 0 0 0 1 forward_v I I I I #
coedge $-1 $437 $325 $327 $438 forward $200 $-1 #
coedge $-1 $202 $209 $439 $440 forward $120 $-1 #
coedge $-1 $441 $207 $202 $318 reversed $328 $-1 #
edge $-1 $442 -3.5110215508537799 $211 3.5110215508537799 $317 $443 forward 7 unknown #
coedge $-1 $204 $203 $436 $444 reversed $77 $-1 #
coedge $-1 $325 $437 $203 $321 forward $200 $-1 #
edge $-1 $445 -3.5110215508537799 $323 3.5110215508537799 $203 $446 forward 7 unknown #
edge $-1 $210 -3.5110215508537799 $447 3.5110215508537799 $204 $448 forward 7 unknown #
vertex $-1 $205 $449 #
straight-curve $-1 -42.011780144657735 -22.924736172505714 0 0 0 -1 I I #
coedge $-1 $315 $320 $206 $326 reversed $200 $-1 #
edge $-1 $329 -42.011780144657735 $323 42.011780144657735 $325 $450 forward 7 unknown #
coedge $-1 $207 $441 $315 $438 reversed $328 $-1 #
loop $-1 $-1 $207 $312 #
vertex $-1 $208 $451 #
straight-curve $-1 42.011780144657735 -22.924736172505714 0 0 0 1 I I #
point $-1 -42.011780144657735 -22.924736172505714 -2.8614434131753477 #
point $-1 42.011780144657735 -22.924736172505714 -2.8614434131753477 #
face $-1 $-1 $347 $29 $-1 $452 reversed single #
loop $-1 $-1 $453 $213 #
plane-surface $-1 0 29.94677927421327 -4.3614434131753477 0 -1 0 0 0 -1 forward_v I I I I #
coedge $-1 $343 $454 $217 $340 forward $214 $-1 #
coedge $-1 $223 $216 $455 $456 forward $128 $-1 #
edge $-1 $224 -3.5110215508537799 $457 3.5110215508537799 $218 $458 forward 7 unknown #
coedge $-1 $218 $217 $453 $459 reversed $81 $-1 #
edge $-1 $460 -3.5110215508537799 $341 3.5110215508537799 $217 $461 forward 7 unknown #
vertex $-1 $219 $462 #
straight-curve $-1 42.011780144657735 22.924736172505714 0 0 0 -1 I I #
coedge $-1 $463 $336 $220 $344 reversed $214 $-1 #
edge $-1 $348 -42.011780144657735 $341 42.011780144657735 $343 $464 forward 7 unknown #
coedge $-1 $465 $221 $223 $350 reversed $347 $-1 #
coedge $-1 $221 $465 $463 $466 reversed $347 $-1 #
loop $-1 $-1 $221 $333 #
vertex $-1 $222 $467 #
straight-curve $-1 -42.011780144657735 22.924736172505714 0 0 0 1 I I #
edge $-1 $468 -3.5110215508537799 $225 3.5110215508537799 $345 $469 forward 7 unknown #
point $-1 42.011780144657735 22.92473617250571 -2.8614434131753477 #
point $-1 -42.011780144657735 22.92473617250571 -2.8614434131753477 #
plane-surface $-1 0 0 9.2919097279056011 0 0 1 1 0 0 forward_v I I I I #
coedge $-1 $364 $363 $356 $470 forward $228 $-1 #
coedge $-1 $356 $230 $232 $360 reversed $136 $-1 #
coedge $-1 $230 $355 $354 $470 reversed $136 $-1 #
coedge $-1 $238 $233 $230 $358 forward $239 $-1 #
edge $-1 $361 -18.224910047297271 $471 -10.214947299175293 $357 $472 forward 7 unknown #
coedge $-1 $232 $231 $364 $473 reversed $85 $-1 #
edge $-1 $474 -1.0612360036877491e-014 $361 11.970701656894679 $355 $475 forward 7 unknown #
vertex $-1 $234 $476 #
straight-curve $-1 -34.001817396535749 -4.550748619260383 9.2919097279056011 0 1 0 I I #
coedge $-1 $354 $235 $238 $368 reversed $228 $-1 #
coedge $-1 $235 $354 $359 $473 forward $228 $-1 #
vertex $-1 $236 $477 #
straight-curve $-1 -42.011780144657735 -12.337055917092837 28.309339853578521 0 0 1 I I #
straight-curve $-1 -42.011780144657727 -12.337055917092837 0.39594463511890865 -0.66913059716165679 0 -0.74314483375859142 I I #
edge $-1 $471 5.8659385599486953 $240 12.337055917092837 $363 $478 forward 7 unknown #
point $-1 -42.011780144657735 -12.337055917092837 9.2919097279056011 #
point $-1 -34.001817396535756 -12.337055917092837 9.2919097279056011 #
edge $-1 $479 1 $479 0 $243 $-1 forward 7 unknown #
vertex $-1 $244 $480 #
ellipse-curve $-1 -35.302497283352245 -9.101497238520766 2.4089632459991246 -0.74314483375859142 0 0.66913059716165679 0.66913059716165679 0 0.74314483375859142 1 I I #
point $-1 -37.337668173435091 -9.101497238520766 5.5870720152708477 #
loop $-1 $-1 $255 $247 #
plane-surface $-1 -42.011780144657735 0 0 1 0 0 0 0 -1 forward_v I I I I #
coedge $-1 $378 $250 $252 $382 reversed $151 $-1 #
coedge $-1 $250 $377 $481 $482 reversed $151 $-1 #
coedge $-1 $258 $253 $250 $380 forward $248 $-1 #
edge $-1 $383 -18.224910047297271 $483 -10.214947299175293 $379 $484 forward 7 unknown #
coedge $-1 $252 $251 $386 $485 reversed $94 $-1 #
edge $-1 $486 -1.0612360036877491e-014 $383 11.970701656894679 $377 $487 forward 7 unknown #
vertex $-1 $254 $488 #
straight-curve $-1 -34.001817396535749 4.5507486192603839 9.2919097279056011 0 1 0 I I #
coedge $-1 $481 $255 $258 $390 reversed $375 $-1 #
coedge $-1 $255 $481 $381 $485 forward $375 $-1 #
vertex $-1 $256 $489 #
straight-curve $-1 -42.011780144657735 5.8659385599486971 28.309339853578521 0 0 1 I I #
straight-curve $-1 -42.011780144657727 5.8659385599486971 0.39594463511890865 -0.66913059716165679 0 -0.74314483375859142 I I #
edge $-1 $483 -12.337055917092838 $259 -5.8659385599486971 $385 $490 forward 7 unknown #
point $-1 -42.011780144657735 5.8659385599486971 9.2919097279056011 #
point $-1 -34.001817396535756 5.8659385599486971 9.2919097279056011 #
edge $-1 $491 1 $491 0 $262 $-1 forward 7 unknown #
vertex $-1 $263 $492 #
ellipse-curve $-1 -35.302497283352245 9.1014972385207678 2.4089632459991246 -0.74314483375859142 0 0.66913059716165679 0.66913059716165679 0 0.74314483375859142 1 I I #
point $-1 -37.337668173435091 9.1014972385207678 5.5870720152708477 #
loop $-1 $-1 $274 $266 #
plane-surface $-1 42.011780144657735 0 0 -1 0 0 0 0 1 forward_v I I I I #
coedge $-1 $400 $269 $271 $404 reversed $166 $-1 #
coedge $-1 $269 $399 $493 $494 reversed $166 $-1 #
coedge $-1 $277 $272 $269 $402 forward $267 $-1 #
edge $-1 $405 17.66737346924306 $495 24.115358531004013 $401 $496 forward 7 unknown #
coedge $-1 $271 $270 $408 $497 reversed $103 $-1 #
edge $-1 $498 -84.023560289315441 $405 -75.346940465595381 $399 $499 forward 7 unknown #
vertex $-1 $273 $500 #
straight-curve $-1 35.563795082896789 0.51732384836466672 9.2919097279055904 0 -1 0 I I #
coedge $-1 $493 $274 $277 $412 reversed $397 $-1 #
coedge $-1 $274 $493 $403 $497 forward $397 $-1 #
vertex $-1 $275 $501 #
straight-curve $-1 42.011780144657735 5.4222408296296312 61.075263866823256 0 0 1 I I #
straight-curve $-1 -20.429893293696189 5.4222408296296312 59.708854295292575 0.74314481823134659 0 -0.66913061440640931 I I #
edge $-1 $495 -3.3529454361709643 $278 5.4222408296296312 $407 $502 forward 7 unknown #
point $-1 42.011780144657735 5.4222408296296312 9.2919097279056011 #
point $-1 35.563795082896782 5.4222408296296312 9.2919097279055904 #
edge $-1 $503 1 $503 0 $281 $-1 forward 7 unknown #
vertex $-1 $282 $504 #
ellipse-curve $-1 37.572255807633056 1.0346476967293334 5.039028944419746 0.66913061440640931 0 0.74314481823134659 0.74314481823134659 0 -0.66913061440640931 1 I I #
point $-1 39.530932432008605 1.0346476967293334 5.7198831366908687 #
plane-surface $-1 42.011780144657735 0 0 -1 0 0 0 0 1 forward_v I I I I #
coedge $-1 $290 $288 $292 $424 reversed $181 $-1 #
edge $-1 $303 -9.2919097279056011 $426 9.2919097279056011 $302 $505 forward 7 unknown #
vertex $-1 $424 $506 #
straight-curve $-1 -42.011780144657735 -22.924736172505714 0 0 0 -1 I I #
edge $-1 $422 -22.924736172505714 $426 22.924736172505714 $420 $507 forward 7 unknown #
straight-curve $-1 0 -22.924736172505714 -9.2919097279056011 -1 0 0 I I #
vertex $-1 $295 $508 #
straight-curve $-1 0 22.924736172505714 -9.2919097279056011 1 0 0 I I #
point $-1 42.011780144657735 22.924736172505714 -9.2919097279056011 #
point $-1 42.011780144657735 -22.924736172505714 -9.2919097279056011 #
straight-curve $-1 -42.011780144657735 0 9.2919097279056011 0 -1 0 I I #
point $-1 -42.011780144657735 22.924736172505714 9.2919097279056011 #
point $-1 -42.011780144657735 -22.924736172505714 9.2919097279056011 #
straight-curve $-1 42.011780144657735 -22.924736172505714 0 0 0 -1 I I #
straight-curve $-1 42.011780144657735 22.924736172505714 0 0 0 -1 I I #
plane-surface $-1 42.011780144657735 0 0 -1 0 0 0 0 1 forward_v I I I I #
coedge $-1 $509 $439 $319 $444 forward $313 $-1 #
coedge $-1 $320 $315 $509 $510 forward $200 $-1 #
edge $-1 $329 -3.5110215508537799 $511 3.5110215508537799 $327 $512 forward 7 unknown #
coedge $-1 $436 $513 $316 $440 reversed $313 $-1 #
edge $-1 $447 -42.011780144657735 $442 42.011780144657735 $439 $514 forward 7 unknown #
coedge $-1 $327 $317 $513 $515 forward $328 $-1 #
vertex $-1 $318 $516 #
straight-curve $-1 42.011780144657735 -26.435757723359494 -2.8614434131753477 0 1 0 I I #
edge $-1 $447 -1.5 $445 1.5 $319 $517 forward 7 unknown #
vertex $-1 $321 $518 #
straight-curve $-1 -42.011780144657735 -26.435757723359494 -5.8614434131753477 0 1 0 I I #
vertex $-1 $322 $519 #
straight-curve $-1 -42.011780144657735 -26.435757723359494 -2.8614434131753477 0 -1 0 I I #
point $-1 -42.011780144657735 -22.924736172505714 -5.8614434131753477 #
straight-curve $-1 0 -22.924736172505714 -5.8614434131753477 -1 0 0 I I #
point $-1 42.011780144657735 -22.924736172505714 -5.8614434131753477 #
plane-surface $-1 -42.011780144657735 0 0 1 0 0 0 0 -1 forward_v I I I I #
coedge $-1 $520 $455 $339 $459 forward $334 $-1 #
coedge $-1 $336 $463 $520 $521 forward $214 $-1 #
coedge $-1 $453 $522 $337 $456 reversed $334 $-1 #
edge $-1 $457 -42.011780144657735 $468 42.011780144657735 $455 $523 forward 7 unknown #
vertex $-1 $338 $524 #
straight-curve $-1 42.011780144657735 26.43575772335949 -2.8614434131753477 0 1 0 I I #
edge $-1 $457 -1.5 $460 1.5 $339 $525 forward 7 unknown #
vertex $-1 $340 $526 #
straight-curve $-1 42.011780144657735 26.43575772335949 -5.8614434131753477 0 -1 0 I I #
point $-1 42.011780144657735 22.92473617250571 -5.8614434131753477 #
coedge $-1 $454 $343 $346 $466 forward $214 $-1 #
straight-curve $-1 0 22.924736172505714 -5.8614434131753477 1 0 0 I I #
coedge $-1 $346 $345 $522 $527 forward $347 $-1 #
edge $-1 $348 -3.5110215508537799 $528 3.5110215508537799 $346 $529 forward 7 unknown #
point $-1 -42.011780144657735 22.92473617250571 -5.8614434131753477 #
vertex $-1 $456 $530 #
straight-curve $-1 -42.011780144657735 26.43575772335949 -2.8614434131753477 0 -1 0 I I #
edge $-1 $471 19.01743012567292 $474 27.91339521845962 $354 $531 forward 7 unknown #
vertex $-1 $368 $532 #
straight-curve $-1 -52.226727443833028 -5.8659385599486953 9.2919097279056011 -1 0 0 I I #
edge $-1 $474 1.3151899406883123 $365 7.7863072978324537 $364 $533 forward 7 unknown #
vertex $-1 $473 $534 #
straight-curve $-1 -42.011780144657727 -5.8659385599486953 0.39594463511890865 0.66913059716165679 0 0.74314483375859142 I I #
point $-1 -34.001817396535756 -5.8659385599486953 9.2919097279056011 #
point $-1 -42.011780144657735 -12.337055917092837 0.39594463511890077 #
straight-curve $-1 -42.011780144657735 0 9.2919097279056011 0 -1 0 I I #
vertex $-1 $371 $535 #
point $-1 -34.633366686190591 -9.101497238520766 3.1521080797577161 #
coedge $-1 $386 $385 $378 $482 forward $375 $-1 #
edge $-1 $483 19.01743012567292 $486 27.91339521845962 $481 $536 forward 7 unknown #
vertex $-1 $390 $537 #
straight-curve $-1 -52.226727443833028 12.337055917092838 9.2919097279056011 -1 0 0 I I #
edge $-1 $486 -7.7863072978324546 $387 -1.3151899406883132 $386 $538 forward 7 unknown #
vertex $-1 $485 $539 #
straight-curve $-1 -42.011780144657727 12.337055917092838 0.39594463511890865 0.66913059716165679 0 0.74314483375859142 I I #
point $-1 -34.001817396535756 12.337055917092838 9.2919097279056011 #
point $-1 -42.011780144657735 5.8659385599486971 0.39594463511890077 #
straight-curve $-1 -42.011780144657735 0 9.2919097279056011 0 -1 0 I I #
vertex $-1 $393 $540 #
point $-1 -34.633366686190591 9.1014972385207678 3.1521080797577161 #
coedge $-1 $408 $407 $400 $494 forward $397 $-1 #
edge $-1 $495 51.783354138917659 $498 57.589146092534307 $493 $541 forward 7 unknown #
vertex $-1 $412 $542 #
straight-curve $-1 17.896421613653722 -3.3529454361709643 9.2919097279056047 1 0 0 I I #
edge $-1 $498 -3.870269284535631 $409 4.9049169812649644 $408 $543 forward 7 unknown #
vertex $-1 $497 $544 #
straight-curve $-1 -20.429893293696189 -3.3529454361709643 59.708854295292575 -0.74314481823134659 0 0.66913061440640931 I I #
point $-1 35.563795082896782 -3.3529454361709643 9.2919097279055904 #
point $-1 42.011780144657735 5.4222408296296312 3.4861177742889495 #
straight-curve $-1 42.011780144657735 0 9.2919097279056011 0 1 0 I I #
vertex $-1 $415 $545 #
point $-1 38.315400625864399 1.0346476967293334 4.3698983300133367 #
straight-curve $-1 -42.011780144657735 22.924736172505714 0 0 0 -1 I I #
point $-1 -42.011780144657735 -22.924736172505714 -9.2919097279056011 #
straight-curve $-1 -42.011780144657735 0 -9.2919097279056011 0 1 0 I I #
point $-1 -42.011780144657735 22.924736172505714 -9.2919097279056011 #
coedge $-1 $513 $436 $437 $510 reversed $313 $-1 #
edge $-1 $511 -42.011780144657735 $445 42.011780144657735 $509 $546 forward 7 unknown #
vertex $-1 $515 $547 #
straight-curve $-1 42.011780144657735 -26.435757723359494 -5.8614434131753477 0 -1 0 I I #
coedge $-1 $439 $509 $441 $515 reversed $313 $-1 #
straight-curve $-1 0 -29.946779274213274 -2.8614434131753477 1 0 0 I I #
edge $-1 $442 -1.5 $511 1.5 $441 $548 forward 7 unknown #
point $-1 42.011780144657735 -29.946779274213274 -2.8614434131753477 #
straight-curve $-1 -42.011780144657735 -29.946779274213274 -4.3614434131753477 0 0 -1 I I #
point $-1 -42.011780144657735 -29.946779274213274 -5.8614434131753477 #
point $-1 -42.011780144657735 -29.946779274213274 -2.8614434131753477 #
coedge $-1 $522 $453 $454 $521 reversed $334 $-1 #
edge $-1 $528 -42.011780144657735 $460 42.011780144657735 $520 $549 forward 7 unknown #
coedge $-1 $455 $520 $465 $527 reversed $334 $-1 #
straight-curve $-1 0 29.94677927421327 -2.8614434131753477 -1 0 0 I I #
point $-1 42.011780144657735 29.94677927421327 -2.8614434131753477 #
straight-curve $-1 42.011780144657735 29.94677927421327 -4.3614434131753477 0 0 -1 I I #
point $-1 42.011780144657735 29.94677927421327 -5.8614434131753477 #
edge $-1 $468 -1.5 $528 1.5 $522 $550 forward 7 unknown #
vertex $-1 $521 $551 #
straight-curve $-1 -42.011780144657735 26.43575772335949 -5.8614434131753477 0 1 0 I I #
point $-1 -42.011780144657735 29.94677927421327 -2.8614434131753477 #
straight-curve $-1 -42.011780144657735 -5.8659385599486953 28.309339853578521 0 0 -1 I I #
point $-1 -42.011780144657735 -5.8659385599486953 9.2919097279056011 #
straight-curve $-1 -42.011780144657735 -4.550748619260383 0.39594463511890499 0 -1 0 I I #
point $-1 -42.011780144657735 -5.8659385599486953 0.39594463511890077 #
point $-1 -34.559352449593653 -9.101497238520766 1.7398326488374676 #
straight-curve $-1 -42.011780144657735 12.337055917092838 28.309339853578521 0 0 -1 I I #
point $-1 -42.011780144657735 12.337055917092838 9.2919097279056011 #
straight-curve $-1 -42.011780144657735 4.5507486192603839 0.39594463511890499 0 -1 0 I I #
point $-1 -42.011780144657735 12.337055917092838 0.39594463511890077 #
point $-1 -34.559352449593653 9.1014972385207678 1.7398326488374676 #
straight-curve $-1 42.011780144657735 -3.3529454361709643 61.075263866823256 0 0 -1 I I #
point $-1 42.011780144657735 -3.3529454361709643 9.2919097279056011 #
straight-curve $-1 42.011780144657735 0.51732384836466672 3.4861177742889566 0 1 0 I I #
point $-1 42.011780144657735 -3.3529454361709643 3.4861177742889495 #
point $-1 36.903125193226643 1.0346476967293334 4.2958841261883993 #
straight-curve $-1 0 -29.946779274213274 -5.8614434131753477 -1 0 0 I I #
point $-1 42.011780144657735 -29.946779274213274 -5.8614434131753477 #
straight-curve $-1 42.011780144657735 -29.946779274213274 -4.3614434131753477 0 0 -1 I I #
straight-curve $-1 0 29.94677927421327 -5.8614434131753477 1 0 0 I I #
straight-curve $-1 -42.011780144657735 29.94677927421327 -4.3614434131753477 0 0 -1 I I #
point $-1 -42.011780144657735 29.94677927421327 -5.8614434131753477 #
End-of-ACIS-data 