500 0 8 0           
7 Unknown 11 ACIS 5.0 NT 24 Fri Mar 26 16:40:34 1999 
-1 9.9999999999999995e-007 1e-010 
body $-1 $8 $-1 $9 #
body $-1 $10 $-1 $11 #
body $-1 $12 $-1 $13 #
body $-1 $14 $-1 $15 #
body $-1 $16 $-1 $17 #
body $-1 $18 $-1 $19 #
body $-1 $20 $-1 $21 #
body $-1 $22 $-1 $23 #
lump $-1 $-1 $24 $0 #
transform $-1 1 0 0 0 1 0 0 0 1 64.009521774956511 28.624272059341344 6.0322637364229195 1 rotate no_reflect no_shear #
lump $-1 $-1 $25 $1 #
transform $-1 1 0 0 0 1 0 0 0 1 64.009521774956511 28.624272059341344 6.0322637364229195 1 rotate no_reflect no_shear #
lump $-1 $-1 $26 $2 #
transform $-1 1 0 0 0 1 0 0 0 1 64.009521774956511 28.624272059341344 6.0322637364229195 1 rotate no_reflect no_shear #
lump $-1 $-1 $27 $3 #
transform $-1 1 0 0 0 1 0 0 0 1 64.009521774956511 28.624272059341344 6.0322637364229195 1 rotate no_reflect no_shear #
lump $-1 $-1 $28 $4 #
transform $-1 1 0 0 0 1 0 0 0 1 64.009521774956511 28.624272059341344 6.0322637364229195 1 rotate no_reflect no_shear #
lump $-1 $-1 $29 $5 #
transform $-1 1 0 0 0 1 0 0 0 1 64.009521774956511 28.624272059341344 6.0322637364229195 1 rotate no_reflect no_shear #
lump $-1 $-1 $30 $6 #
transform $-1 1 0 0 0 1 0 0 0 1 64.009521774956511 28.624272059341344 6.0322637364229195 1 rotate no_reflect no_shear #
lump $-1 $-1 $31 $7 #
transform $-1 1 0 0 0 1 0 0 0 1 64.009521774956511 28.624272059341344 6.0322637364229195 1 rotate no_reflect no_shear #
shell $-1 $-1 $-1 $32 $-1 $8 #
shell $-1 $-1 $-1 $33 $-1 $10 #
shell $-1 $-1 $-1 $34 $-1 $12 #
shell $-1 $-1 $-1 $35 $-1 $14 #
shell $-1 $-1 $-1 $36 $-1 $16 #
shell $-1 $-1 $-1 $37 $-1 $18 #
shell $-1 $-1 $-1 $38 $-1 $20 #
shell $-1 $-1 $-1 $39 $-1 $22 #
face $-1 $40 $41 $24 $-1 $42 forward single #
face $-1 $43 $44 $25 $-1 $45 reversed single #
face $-1 $46 $47 $26 $-1 $48 reversed single #
face $-1 $49 $50 $27 $-1 $51 forward single #
face $-1 $52 $53 $28 $-1 $54 reversed single #
face $-1 $55 $56 $29 $-1 $57 forward single #
face $-1 $58 $59 $30 $-1 $60 forward single #
face $-1 $61 $62 $31 $-1 $63 forward single #
face $-1 $64 $65 $24 $-1 $66 reversed single #
loop $-1 $-1 $67 $32 #
plane-surface $-1 0 0 6.0322637364229195 0 0 1 1 0 0 forward_v I I I I #
face $-1 $68 $69 $25 $-1 $70 reversed single #
loop $-1 $-1 $71 $33 #
plane-surface $-1 -60.5981382840923 -24.274449677584457 0 0 1 0 0 0 1 forward_v I I I I #
face $-1 $72 $73 $26 $-1 $74 reversed single #
loop $-1 $-1 $75 $34 #
plane-surface $-1 1.0250178198779203 -126.69255004500644 83.580174179429292 -1 0 0 0 -0.7660444514056185 0.64278759981090561 forward_v I I I I #
face $-1 $76 $77 $27 $-1 $78 forward single #
loop $-1 $79 $80 $35 #
cone-surface $-1 -15.615382230979172 -24.599685870815204 1.9537548071912161 0 0.7660444514056185 -0.64278759981090561 1.5 0 0 1 I I 0 1 1.5 forward I I I I #
face $-1 $81 $82 $28 $-1 $83 reversed single #
loop $-1 $-1 $84 $36 #
plane-surface $-1 -0.80778020245361404 71.741774412527832 136.22066537813521 1 0 0 0 -0.66913061440640931 -0.74314481823134659 forward_v I I I I #
face $-1 $85 $86 $29 $-1 $87 forward single #
loop $-1 $88 $89 $37 #
cone-surface $-1 5.8707201453672297 26.251590286734878 3.7770947950815077 0 -0.66913061440640931 -0.74314481823134659 0.5 0 0 1 I I 0 1 0.5 forward I I I I #
face $-1 $90 $91 $30 $-1 $92 forward single #
loop $-1 $93 $94 $38 #
cone-surface $-1 15.888470667098488 26.251590286734878 3.7770947950815077 0 -0.66913061440640931 -0.74314481823134659 0.5 0 0 1 I I 0 1 0.5 forward I I I I #
face $-1 $95 $96 $31 $-1 $97 forward single #
loop $-1 $98 $99 $39 #
cone-surface $-1 25.906221188829747 26.251590286734878 3.7770947950815077 0 -0.66913061440640931 -0.74314481823134659 0.5 0 0 1 I I 0 1 0.5 forward I I I I #
face $-1 $100 $101 $24 $-1 $102 reversed single #
loop $-1 $-1 $103 $40 #
plane-surface $-1 0 0 -6.0322637364229195 0 0 1 1 0 0 forward_v I I I I #
coedge $-1 $104 $105 $106 $107 forward $41 $-1 #
face $-1 $108 $109 $25 $-1 $110 reversed single #
loop $-1 $-1 $111 $43 #
plane-surface $-1 -60.5981382840923 -21.274449677584457 0 0 -1 0 0 0 -1 forward_v I I I I #
coedge $-1 $112 $113 $114 $115 reversed $44 $-1 #
face $-1 $116 $117 $26 $-1 $118 reversed single #
loop $-1 $-1 $119 $46 #
plane-surface $-1 -15.615382230979165 -28.624272059341337 1.2911204458929006 0 -0.7660444514056185 0.64278759981090561 1 0 0 forward_v I I I I #
coedge $-1 $120 $121 $122 $123 reversed $47 $-1 #
face $-1 $-1 $124 $27 $-1 $125 forward single #
loop $-1 $126 $127 $49 #
cone-surface $-1 -15.615382230979172 -21.989712084877816 -0.23627317663365499 0 0.7660444514056185 -0.64278759981090561 0.75 0 0 1 I I -0.70710678118654757 0.70710678118654757 0.75 forward I I I I #
loop $-1 $-1 $128 $35 #
coedge $-1 $80 $80 $129 $130 reversed $50 $-1 #
face $-1 $131 $132 $28 $-1 $133 reversed single #
loop $-1 $-1 $134 $52 #
plane-surface $-1 15.888470667098488 -13.919686853746342 41.083976529084254 0 0.66913061440640931 0.74314481823134659 1 0 0 forward_v I I I I #
coedge $-1 $135 $136 $137 $138 reversed $53 $-1 #
face $-1 $-1 $139 $29 $-1 $140 forward single #
loop $-1 $141 $142 $55 #
cone-surface $-1 5.8707201453672297 25.519170294091246 2.9636600028548763 0 -0.66913061440640931 -0.74314481823134659 0.25 0 0 1 I I -0.70710678118654746 0.70710678118654746 0.25 forward I I I I #
loop $-1 $-1 $143 $37 #
coedge $-1 $89 $89 $144 $145 reversed $56 $-1 #
face $-1 $-1 $146 $30 $-1 $147 forward single #
loop $-1 $148 $149 $58 #
cone-surface $-1 15.888470667098488 25.519170294091246 2.9636600028548763 0 -0.66913061440640931 -0.74314481823134659 0.25 0 0 1 I I -0.70710678118654746 0.70710678118654746 0.25 forward I I I I #
loop $-1 $-1 $150 $38 #
coedge $-1 $94 $94 $151 $152 reversed $59 $-1 #
face $-1 $-1 $153 $31 $-1 $154 forward single #
loop $-1 $155 $156 $61 #
cone-surface $-1 25.906221188829747 25.519170294091246 2.9636600028548763 0 -0.66913061440640931 -0.74314481823134659 0.25 0 0 1 I I -0.70710678118654746 0.70710678118654746 0.25 forward I I I I #
loop $-1 $-1 $157 $39 #
coedge $-1 $99 $99 $158 $159 reversed $62 $-1 #
face $-1 $160 $161 $24 $-1 $162 reversed single #
loop $-1 $-1 $163 $64 #
plane-surface $-1 0 -28.624272059341344 0 0 1 0 0 0 1 forward_v I I I I #
coedge $-1 $164 $165 $166 $167 forward $65 $-1 #
coedge $-1 $168 $67 $169 $170 forward $41 $-1 #
coedge $-1 $67 $168 $171 $172 forward $41 $-1 #
coedge $-1 $173 $174 $67 $107 reversed $175 $-1 #
edge $-1 $176 -28.624272059341344 $177 28.624272059341344 $106 $178 forward 7 unknown #
face $-1 $179 $180 $25 $-1 $181 reversed single #
loop $-1 $-1 $182 $68 #
plane-surface $-1 -57.18675479322809 -22.774449677584457 0 -1 0 0 0 0 1 forward_v I I I I #
coedge $-1 $183 $184 $185 $186 forward $69 $-1 #
coedge $-1 $187 $71 $188 $189 reversed $44 $-1 #
coedge $-1 $71 $187 $190 $191 reversed $44 $-1 #
coedge $-1 $192 $193 $71 $115 forward $194 $-1 #
edge $-1 $195 -6.0322637364229195 $196 6.0322637364229195 $114 $197 forward 7 unknown #
face $-1 $198 $199 $26 $-1 $200 reversed single #
loop $-1 $-1 $201 $72 #
plane-surface $-1 -32.255782281836247 -126.69255004500644 83.580174179429292 1 0 0 0 0.7660444514056185 -0.64278759981090561 forward_v I I I I #
coedge $-1 $202 $203 $204 $205 reversed $73 $-1 #
coedge $-1 $121 $75 $206 $207 reversed $47 $-1 #
coedge $-1 $75 $120 $202 $208 reversed $47 $-1 #
coedge $-1 $204 $209 $75 $123 forward $210 $-1 #
edge $-1 $211 34.722002963161877 $212 38.70029444544781 $122 $213 forward 7 unknown #
loop $-1 $-1 $129 $76 #
plane-surface $-1 -15.615382230979165 -28.624272059341337 1.2911204458929006 0 -0.7660444514056185 0.64278759981090561 1 0 0 forward_v I I I I #
loop $-1 $-1 $214 $49 #
coedge $-1 $127 $127 $128 $215 reversed $77 $-1 #
coedge $-1 $128 $128 $127 $215 forward $79 $-1 #
coedge $-1 $129 $129 $80 $130 forward $124 $-1 #
edge $-1 $216 -3.8845328182521177e-016 $216 6.2831853071796004 $129 $217 forward 7 unknown #
face $-1 $218 $219 $28 $-1 $220 reversed single #
loop $-1 $-1 $221 $81 #
plane-surface $-1 32.584721536650591 71.741774412527832 136.22066537813521 -1 0 0 0 0.66913061440640931 0.74314481823134659 forward_v I I I I #
coedge $-1 $222 $223 $224 $225 reversed $82 $-1 #
coedge $-1 $136 $84 $226 $227 reversed $53 $-1 #
coedge $-1 $84 $135 $222 $228 reversed $53 $-1 #
coedge $-1 $224 $229 $84 $138 forward $230 $-1 #
edge $-1 $231 7.2466151469225721 $232 10.861704014051462 $137 $233 forward 7 unknown #
loop $-1 $-1 $144 $85 #
plane-surface $-1 15.888470667098488 -13.919686853746342 41.083976529084254 0 0.66913061440640931 0.74314481823134659 1 0 0 forward_v I I I I #
loop $-1 $-1 $234 $55 #
coedge $-1 $142 $142 $143 $235 reversed $86 $-1 #
coedge $-1 $143 $143 $142 $235 forward $88 $-1 #
coedge $-1 $144 $144 $89 $145 forward $139 $-1 #
edge $-1 $236 -7.9952184057953626e-016 $236 6.2831853071795996 $144 $237 forward 7 unknown #
loop $-1 $-1 $151 $90 #
plane-surface $-1 15.888470667098488 -13.919686853746342 41.083976529084254 0 0.66913061440640931 0.74314481823134659 1 0 0 forward_v I I I I #
loop $-1 $-1 $238 $58 #
coedge $-1 $149 $149 $150 $239 reversed $91 $-1 #
coedge $-1 $150 $150 $149 $239 forward $93 $-1 #
coedge $-1 $151 $151 $94 $152 forward $146 $-1 #
edge $-1 $240 -7.9952184057953626e-016 $240 6.2831853071795996 $151 $241 forward 7 unknown #
loop $-1 $-1 $158 $95 #
plane-surface $-1 15.888470667098488 -13.919686853746342 41.083976529084254 0 0.66913061440640931 0.74314481823134659 1 0 0 forward_v I I I I #
loop $-1 $-1 $242 $61 #
coedge $-1 $156 $156 $157 $243 reversed $96 $-1 #
coedge $-1 $157 $157 $156 $243 forward $98 $-1 #
coedge $-1 $158 $158 $99 $159 forward $153 $-1 #
edge $-1 $244 -7.9952184057953626e-016 $244 6.2831853071795996 $158 $245 forward 7 unknown #
face $-1 $246 $247 $24 $-1 $248 reversed single #
loop $-1 $-1 $249 $100 #
plane-surface $-1 -64.009521774956511 0 0 1 0 0 0 0 -1 forward_v I I I I #
coedge $-1 $250 $171 $251 $252 forward $101 $-1 #
coedge $-1 $253 $103 $250 $254 forward $65 $-1 #
coedge $-1 $103 $253 $255 $256 forward $65 $-1 #
coedge $-1 $174 $173 $103 $167 reversed $175 $-1 #
edge $-1 $257 -28.624272059341344 $258 28.624272059341344 $166 $259 forward 7 unknown #
coedge $-1 $105 $104 $260 $261 forward $41 $-1 #
coedge $-1 $262 $263 $104 $170 reversed $247 $-1 #
edge $-1 $177 -64.009521774956511 $264 64.009521774956511 $169 $265 forward 7 unknown #
coedge $-1 $163 $266 $105 $172 reversed $101 $-1 #
edge $-1 $267 -64.009521774956511 $176 64.009521774956511 $171 $268 forward 7 unknown #
coedge $-1 $166 $106 $266 $269 forward $175 $-1 #
coedge $-1 $106 $166 $262 $270 reversed $175 $-1 #
loop $-1 $-1 $173 $246 #
vertex $-1 $107 $271 #
vertex $-1 $107 $272 #
straight-curve $-1 64.009521774956511 0 6.0322637364229195 0 1 0 I I #
face $-1 $273 $274 $25 $-1 $275 forward single #
loop $-1 $-1 $276 $108 #
plane-surface $-1 0 0 -6.0322637364229195 0 0 1 1 0 0 forward_v I I I I #
coedge $-1 $277 $278 $187 $279 forward $109 $-1 #
coedge $-1 $280 $111 $276 $281 reversed $69 $-1 #
coedge $-1 $111 $280 $282 $283 reversed $69 $-1 #
coedge $-1 $278 $277 $111 $186 reversed $109 $-1 #
edge $-1 $284 -6.0322637364229195 $285 6.0322637364229195 $185 $286 forward 7 unknown #
coedge $-1 $113 $112 $182 $279 reversed $44 $-1 #
coedge $-1 $287 $288 $112 $189 forward $180 $-1 #
edge $-1 $289 26.88768565118194 $195 33.710452632910361 $188 $290 forward 7 unknown #
coedge $-1 $291 $292 $113 $191 forward $274 $-1 #
edge $-1 $196 -33.710452632910361 $293 -26.88768565118194 $190 $294 forward 7 unknown #
coedge $-1 $295 $114 $292 $296 reversed $194 $-1 #
coedge $-1 $114 $295 $287 $297 reversed $194 $-1 #
loop $-1 $-1 $295 $273 #
vertex $-1 $297 $298 #
vertex $-1 $115 $299 #
straight-curve $-1 -64.009521774956511 -24.274449677584457 0 0 0 1 I I #
face $-1 $-1 $210 $26 $-1 $300 forward single #
loop $-1 $-1 $301 $116 #
plane-surface $-1 0 -28.624272059341344 0 0 1 0 0 0 1 forward_v I I I I #
coedge $-1 $302 $303 $304 $305 reversed $117 $-1 #
coedge $-1 $306 $119 $121 $208 forward $73 $-1 #
coedge $-1 $119 $306 $302 $307 forward $73 $-1 #
coedge $-1 $304 $122 $119 $205 forward $210 $-1 #
edge $-1 $212 -8.8327089353675028 $308 24.448091166346664 $204 $309 forward 7 unknown #
coedge $-1 $310 $311 $120 $207 forward $199 $-1 #
edge $-1 $312 -40.498966643821753 $211 -35.757823353291727 $206 $313 forward 7 unknown #
edge $-1 $212 -6.1891229442762414 $312 1.1030930024383267e-014 $121 $314 forward 7 unknown #
coedge $-1 $122 $304 $310 $315 forward $210 $-1 #
loop $-1 $-1 $304 $198 #
vertex $-1 $207 $316 #
vertex $-1 $123 $317 #
straight-curve $-1 1.0250178198779203 -63.346275022503221 6.0322637364229195 0 1 0 I I #
coedge $-1 $214 $214 $-1 $318 reversed $126 $-1 #
edge $-1 $319 0 $319 6.2831853071796004 $127 $320 forward 7 unknown #
vertex $-1 $130 $321 #
ellipse-curve $-1 -15.615382230979172 -26.635126318198374 3.6616920911579056 0 -0.7660444514056185 0.64278759981090561 1.5 0 0 1 I I #
face $-1 $-1 $230 $28 $-1 $322 forward single #
loop $-1 $-1 $323 $131 #
plane-surface $-1 0 28.624272059341344 0 0 -1 0 0 0 -1 forward_v I I I I #
coedge $-1 $324 $325 $326 $327 reversed $132 $-1 #
coedge $-1 $328 $134 $136 $228 forward $82 $-1 #
coedge $-1 $134 $328 $324 $329 forward $82 $-1 #
coedge $-1 $326 $137 $134 $225 forward $230 $-1 #
edge $-1 $232 -8.7520155360028582 $330 24.640486203101347 $224 $331 forward 7 unknown #
coedge $-1 $332 $333 $135 $227 forward $219 $-1 #
edge $-1 $334 -65.333109659989944 $231 -62.078068952644685 $226 $335 forward 7 unknown #
edge $-1 $232 52.383962171206235 $334 57.248544118682709 $136 $336 forward 7 unknown #
coedge $-1 $137 $326 $332 $337 forward $230 $-1 #
loop $-1 $-1 $326 $218 #
vertex $-1 $227 $338 #
vertex $-1 $138 $339 #
straight-curve $-1 -0.80778020245361404 35.870887206263916 6.0322637364229195 0 -1 0 I I #
coedge $-1 $234 $234 $-1 $340 reversed $141 $-1 #
edge $-1 $341 0 $341 6.2831853071796004 $142 $342 forward 7 unknown #
vertex $-1 $145 $343 #
ellipse-curve $-1 5.8707201453672297 26.816727625776895 4.40474338275029 0 0.66913061440640931 0.74314481823134659 0.5 0 0 1 I I #
coedge $-1 $238 $238 $-1 $344 reversed $148 $-1 #
edge $-1 $345 0 $345 6.2831853071796004 $149 $346 forward 7 unknown #
vertex $-1 $152 $347 #
ellipse-curve $-1 15.888470667098488 26.816727625776895 4.40474338275029 0 0.66913061440640931 0.74314481823134659 0.5 0 0 1 I I #
coedge $-1 $242 $242 $-1 $348 reversed $155 $-1 #
edge $-1 $349 0 $349 6.2831853071796004 $156 $350 forward 7 unknown #
vertex $-1 $159 $351 #
ellipse-curve $-1 25.906221188829747 26.816727625776895 4.40474338275029 0 0.66913061440640931 0.74314481823134659 0.5 0 0 1 I I #
face $-1 $-1 $175 $24 $-1 $352 reversed single #
loop $-1 $-1 $262 $160 #
plane-surface $-1 0 28.624272059341344 0 0 -1 0 0 0 -1 forward_v I I I I #
coedge $-1 $353 $260 $263 $354 forward $161 $-1 #
coedge $-1 $266 $163 $164 $254 reversed $101 $-1 #
coedge $-1 $260 $353 $163 $252 reversed $161 $-1 #
edge $-1 $267 -6.0322637364229195 $355 6.0322637364229195 $251 $356 forward 7 unknown #
coedge $-1 $165 $164 $353 $357 forward $65 $-1 #
edge $-1 $258 -64.009521774956511 $355 64.009521774956511 $250 $358 forward 7 unknown #
coedge $-1 $263 $262 $165 $256 reversed $247 $-1 #
edge $-1 $359 -64.009521774956511 $257 64.009521774956511 $255 $360 forward 7 unknown #
vertex $-1 $167 $361 #
vertex $-1 $269 $362 #
straight-curve $-1 64.009521774956511 0 -6.0322637364229195 0 -1 0 I I #
coedge $-1 $249 $251 $168 $261 reversed $161 $-1 #
edge $-1 $264 -28.624272059341344 $267 28.624272059341344 $260 $363 forward 7 unknown #
coedge $-1 $255 $169 $174 $270 forward $247 $-1 #
coedge $-1 $169 $255 $249 $354 reversed $247 $-1 #
vertex $-1 $170 $364 #
straight-curve $-1 0 28.624272059341344 6.0322637364229195 -1 0 0 I I #
coedge $-1 $171 $250 $173 $269 reversed $101 $-1 #
vertex $-1 $261 $365 #
straight-curve $-1 0 -28.624272059341344 6.0322637364229195 1 0 0 I I #
edge $-1 $176 -6.0322637364229195 $258 6.0322637364229195 $173 $366 forward 7 unknown #
edge $-1 $177 -6.0322637364229195 $257 6.0322637364229195 $174 $367 forward 7 unknown #
point $-1 64.009521774956511 -28.624272059341344 6.0322637364229195 #
point $-1 64.009521774956511 28.624272059341344 6.0322637364229195 #
face $-1 $-1 $194 $25 $-1 $368 reversed single #
loop $-1 $-1 $282 $179 #
plane-surface $-1 0 0 6.0322637364229195 0 0 1 1 0 0 forward_v I I I I #
coedge $-1 $288 $287 $183 $281 forward $180 $-1 #
coedge $-1 $185 $182 $288 $369 reversed $109 $-1 #
coedge $-1 $182 $185 $291 $370 reversed $109 $-1 #
edge $-1 $293 -6.0322637364229195 $289 6.0322637364229195 $182 $371 forward 7 unknown #
coedge $-1 $184 $183 $295 $372 reversed $69 $-1 #
edge $-1 $373 -33.710452632910361 $285 -26.88768565118194 $276 $374 forward 7 unknown #
coedge $-1 $292 $291 $184 $283 forward $274 $-1 #
edge $-1 $284 26.88768565118194 $375 33.710452632910361 $282 $376 forward 7 unknown #
vertex $-1 $283 $377 #
vertex $-1 $281 $378 #
straight-curve $-1 -57.18675479322809 -21.274449677584457 0 0 0 -1 I I #
coedge $-1 $276 $188 $193 $297 forward $180 $-1 #
coedge $-1 $188 $276 $277 $369 forward $180 $-1 #
vertex $-1 $189 $379 #
straight-curve $-1 -30.29906914204615 -24.274449677584457 -6.0322637364229195 -1 0 0 I I #
coedge $-1 $282 $190 $278 $370 forward $274 $-1 #
coedge $-1 $190 $282 $192 $296 forward $274 $-1 #
vertex $-1 $191 $380 #
straight-curve $-1 -30.29906914204615 -24.274449677584457 6.0322637364229195 1 0 0 I I #
coedge $-1 $193 $192 $280 $372 forward $194 $-1 #
edge $-1 $375 21.274449677584457 $196 24.274449677584457 $192 $381 forward 7 unknown #
edge $-1 $195 -24.274449677584457 $373 -21.274449677584457 $193 $382 forward 7 unknown #
point $-1 -64.009521774956511 -24.274449677584457 -6.0322637364229195 #
point $-1 -64.009521774956511 -24.274449677584457 6.0322637364229195 #
plane-surface $-1 0 0 6.0322637364229195 0 0 1 1 0 0 forward_v I I I I #
coedge $-1 $311 $310 $303 $383 forward $199 $-1 #
coedge $-1 $303 $201 $203 $307 reversed $117 $-1 #
coedge $-1 $201 $302 $301 $383 reversed $117 $-1 #
coedge $-1 $209 $204 $201 $305 forward $210 $-1 #
edge $-1 $308 -38.70029444544781 $384 -34.722002963161877 $304 $385 forward 7 unknown #
coedge $-1 $203 $202 $311 $386 reversed $73 $-1 #
edge $-1 $387 -1.1030930024383267e-014 $308 6.1891229442762414 $302 $388 forward 7 unknown #
vertex $-1 $205 $389 #
straight-curve $-1 -7.8076911154895825 -24.645980577055404 6.0322637364229195 -1 0 0 I I #
coedge $-1 $301 $206 $209 $315 reversed $199 $-1 #
coedge $-1 $206 $301 $306 $386 forward $199 $-1 #
vertex $-1 $207 $390 #
straight-curve $-1 1.0250178198779203 -28.624272059341344 41.790087089714646 0 0 1 I I #
straight-curve $-1 1.0250178198779203 -28.624272059341337 1.2911204458929006 0 -0.64278759981090561 -0.7660444514056185 I I #
edge $-1 $384 -32.255782281836247 $211 1.0250178198779203 $310 $391 forward 7 unknown #
point $-1 1.0250178198779203 -28.624272059341344 6.0322637364229195 #
point $-1 1.0250178198779203 -24.645980577055408 6.0322637364229195 #
edge $-1 $392 1 $392 0 $214 $-1 forward 7 unknown #
vertex $-1 $215 $393 #
ellipse-curve $-1 -15.615382230979172 -22.56424542343203 0.24581752322452421 0 -0.7660444514056185 0.64278759981090561 1.5 0 0 1 I I #
point $-1 -14.115382230979172 -26.635126318198378 3.6616920911579078 #
plane-surface $-1 0 0 6.0322637364229195 0 0 1 1 0 0 forward_v I I I I #
coedge $-1 $333 $332 $325 $394 forward $219 $-1 #
coedge $-1 $325 $221 $223 $329 reversed $132 $-1 #
coedge $-1 $221 $324 $323 $394 reversed $132 $-1 #
coedge $-1 $229 $224 $221 $327 forward $230 $-1 #
edge $-1 $330 -10.861704014051462 $395 -7.2466151469225721 $326 $396 forward 7 unknown #
coedge $-1 $223 $222 $333 $397 reversed $82 $-1 #
edge $-1 $398 -57.248544118682709 $330 -52.383962171206235 $324 $399 forward 7 unknown #
vertex $-1 $225 $400 #
straight-curve $-1 7.9442353335492442 25.009183192212458 6.0322637364229195 1 0 0 I I #
coedge $-1 $323 $226 $229 $337 reversed $219 $-1 #
coedge $-1 $226 $323 $328 $397 forward $219 $-1 #
vertex $-1 $227 $401 #
straight-curve $-1 -0.80778020245361404 28.624272059341344 68.110332689067604 0 0 1 I I #
straight-curve $-1 -0.80778020245361404 -13.919686853746342 41.083976529084254 0 0.74314481823134659 -0.66913061440640931 I I #
edge $-1 $395 -32.584721536650591 $231 0.80778020245361404 $332 $402 forward 7 unknown #
point $-1 -0.80778020245361404 28.624272059341344 6.0322637364229195 #
point $-1 -0.80778020245361404 25.009183192212454 6.0322637364229195 #
edge $-1 $403 1 $403 0 $234 $-1 forward 7 unknown #
vertex $-1 $235 $404 #
ellipse-curve $-1 5.8707201453672297 25.68645294769285 3.149446207412713 0 0.66913061440640931 0.74314481823134659 0.5 0 0 1 I I #
point $-1 6.3707201453672297 26.816727625776906 4.4047433827503024 #
edge $-1 $405 1 $405 0 $238 $-1 forward 7 unknown #
vertex $-1 $239 $406 #
ellipse-curve $-1 15.888470667098488 25.68645294769285 3.149446207412713 0 0.66913061440640931 0.74314481823134659 0.5 0 0 1 I I #
point $-1 16.388470667098488 26.816727625776906 4.4047433827503024 #
edge $-1 $407 1 $407 0 $242 $-1 forward 7 unknown #
vertex $-1 $243 $408 #
ellipse-curve $-1 25.906221188829747 25.68645294769285 3.149446207412713 0 0.66913061440640931 0.74314481823134659 0.5 0 0 1 I I #
point $-1 26.406221188829747 26.816727625776906 4.4047433827503024 #
plane-surface $-1 64.009521774956511 0 0 -1 0 0 0 0 1 forward_v I I I I #
coedge $-1 $251 $249 $253 $357 reversed $161 $-1 #
edge $-1 $264 -6.0322637364229195 $359 6.0322637364229195 $263 $409 forward 7 unknown #
vertex $-1 $357 $410 #
straight-curve $-1 -64.009521774956511 -28.624272059341344 0 0 0 -1 I I #
edge $-1 $355 -28.624272059341344 $359 28.624272059341344 $353 $411 forward 7 unknown #
straight-curve $-1 0 -28.624272059341344 -6.0322637364229195 -1 0 0 I I #
vertex $-1 $256 $412 #
straight-curve $-1 0 28.624272059341344 -6.0322637364229195 1 0 0 I I #
point $-1 64.009521774956511 28.624272059341344 -6.0322637364229195 #
point $-1 64.009521774956511 -28.624272059341344 -6.0322637364229195 #
straight-curve $-1 -64.009521774956511 0 6.0322637364229195 0 -1 0 I I #
point $-1 -64.009521774956511 28.624272059341344 6.0322637364229195 #
point $-1 -64.009521774956511 -28.624272059341344 6.0322637364229195 #
straight-curve $-1 64.009521774956511 -28.624272059341344 0 0 0 -1 I I #
straight-curve $-1 64.009521774956511 28.624272059341344 0 0 0 -1 I I #
plane-surface $-1 -64.009521774956511 0 0 1 0 0 0 0 -1 forward_v I I I I #
edge $-1 $285 9.8872248387922284 $289 12.887224838792228 $288 $413 forward 7 unknown #
edge $-1 $293 -12.887224838792228 $284 -9.8872248387922284 $291 $414 forward 7 unknown #
straight-curve $-1 -57.18675479322809 -24.274449677584457 0 0 0 -1 I I #
edge $-1 $375 -6.0322637364229195 $373 6.0322637364229195 $295 $415 forward 7 unknown #
vertex $-1 $372 $416 #
straight-curve $-1 -30.29906914204615 -21.274449677584457 -6.0322637364229195 1 0 0 I I #
vertex $-1 $296 $417 #
straight-curve $-1 -30.29906914204615 -21.274449677584457 6.0322637364229195 -1 0 0 I I #
point $-1 -57.18675479322809 -21.274449677584457 6.0322637364229195 #
point $-1 -57.18675479322809 -21.274449677584457 -6.0322637364229195 #
point $-1 -57.18675479322809 -24.274449677584457 -6.0322637364229195 #
point $-1 -57.18675479322809 -24.274449677584457 6.0322637364229195 #
straight-curve $-1 -64.009521774956511 0 6.0322637364229195 0 -1 0 I I #
straight-curve $-1 -64.009521774956511 0 -6.0322637364229195 0 1 0 I I #
edge $-1 $384 35.757823353291727 $387 40.498966643821753 $301 $418 forward 7 unknown #
vertex $-1 $315 $419 #
straight-curve $-1 -32.255782281836247 -63.346275022503221 6.0322637364229195 0 -1 0 I I #
edge $-1 $387 -24.448091166346664 $312 8.8327089353675028 $311 $420 forward 7 unknown #
vertex $-1 $386 $421 #
straight-curve $-1 -32.255782281836247 -28.624272059341337 1.2911204458929006 0 0.64278759981090561 0.7660444514056185 I I #
point $-1 -32.255782281836247 -24.645980577055408 6.0322637364229195 #
point $-1 1.0250178198779203 -28.624272059341344 1.2911204458928922 #
straight-curve $-1 0 -28.624272059341344 6.0322637364229195 1 0 0 I I #
vertex $-1 $318 $422 #
point $-1 -14.115382230979172 -22.56424542343203 0.24581752322452421 #
edge $-1 $395 62.078068952644685 $398 65.333109659989944 $323 $423 forward 7 unknown #
vertex $-1 $337 $424 #
straight-curve $-1 32.584721536650591 35.870887206263916 6.0322637364229195 0 1 0 I I #
edge $-1 $398 -24.640486203101347 $334 8.7520155360028582 $333 $425 forward 7 unknown #
vertex $-1 $397 $426 #
straight-curve $-1 32.584721536650591 -13.919686853746342 41.083976529084254 0 -0.74314481823134659 0.66913061440640931 I I #
point $-1 32.584721536650591 25.009183192212454 6.0322637364229195 #
point $-1 -0.80778020245361404 28.624272059341344 2.7772230290776605 #
straight-curve $-1 0 28.624272059341344 6.0322637364229195 -1 0 0 I I #
vertex $-1 $340 $427 #
point $-1 6.3707201453672297 25.68645294769285 3.149446207412713 #
vertex $-1 $344 $428 #
point $-1 16.388470667098488 25.68645294769285 3.149446207412713 #
vertex $-1 $348 $429 #
point $-1 26.406221188829747 25.68645294769285 3.149446207412713 #
straight-curve $-1 -64.009521774956511 28.624272059341344 0 0 0 -1 I I #
point $-1 -64.009521774956511 -28.624272059341344 -6.0322637364229195 #
straight-curve $-1 -64.009521774956511 0 -6.0322637364229195 0 1 0 I I #
point $-1 -64.009521774956511 28.624272059341344 -6.0322637364229195 #
straight-curve $-1 -57.18675479322809 -11.387224838792228 -6.0322637364229195 0 -1 0 I I #
straight-curve $-1 -57.18675479322809 -11.387224838792228 6.0322637364229195 0 1 0 I I #
straight-curve $-1 -64.009521774956511 -21.274449677584457 0 0 0 -1 I I #
point $-1 -64.009521774956511 -21.274449677584457 -6.0322637364229195 #
point $-1 -64.009521774956511 -21.274449677584457 6.0322637364229195 #
straight-curve $-1 -32.255782281836247 -28.624272059341344 41.790087089714646 0 0 -1 I I #
point $-1 -32.255782281836247 -28.624272059341344 6.0322637364229195 #
straight-curve $-1 -7.8076911154895825 -28.624272059341344 1.2911204458928929 1 0 0 I I #
point $-1 -32.255782281836247 -28.624272059341344 1.2911204458928922 #
point $-1 -15.615382230979172 -21.415178746323601 -0.7183638764918342 #
straight-curve $-1 32.584721536650591 28.624272059341344 68.110332689067604 0 0 -1 I I #
point $-1 32.584721536650591 28.624272059341344 6.0322637364229195 #
straight-curve $-1 7.9442353335492442 28.624272059341344 2.7772230290776712 -1 0 0 I I #
point $-1 32.584721536650591 28.624272059341344 2.7772230290776605 #
point $-1 5.8707201453672297 25.351887640489643 2.7778737982970396 #
point $-1 15.888470667098488 25.351887640489643 2.7778737982970396 #
point $-1 25.906221188829747 25.351887640489643 2.7778737982970396 #
End-of-ACIS-data 