500 0 7 0           
7 Unknown 11 ACIS 5.0 NT 24 Fri Mar 26 00:46:43 1999 
-1 9.9999999999999995e-007 1e-010 
body $-1 $7 $-1 $8 #
body $-1 $9 $-1 $10 #
body $-1 $11 $-1 $12 #
body $-1 $13 $-1 $14 #
body $-1 $15 $-1 $16 #
body $-1 $17 $-1 $18 #
body $-1 $19 $-1 $20 #
lump $-1 $-1 $21 $0 #
transform $-1 1 0 0 0 1 0 0 0 1 72.958769493697929 41.59854447898681 11.268308993667011 1 rotate no_reflect no_shear #
lump $-1 $-1 $22 $1 #
transform $-1 1 0 0 0 1 0 0 0 1 72.958769493697929 41.59854447898681 11.268308993667011 1 rotate no_reflect no_shear #
lump $-1 $-1 $23 $2 #
transform $-1 1 0 0 0 1 0 0 0 1 72.958769493697929 41.59854447898681 11.268308993667011 1 rotate no_reflect no_shear #
lump $-1 $-1 $24 $3 #
transform $-1 1 0 0 0 1 0 0 0 1 72.958769493697929 41.59854447898681 11.268308993667011 1 rotate no_reflect no_shear #
lump $-1 $-1 $25 $4 #
transform $-1 1 0 0 0 1 0 0 0 1 72.958769493697929 41.59854447898681 11.268308993667011 1 rotate no_reflect no_shear #
lump $-1 $-1 $26 $5 #
transform $-1 1 0 0 0 1 0 0 0 1 72.958769493697929 41.59854447898681 11.268308993667011 1 rotate no_reflect no_shear #
lump $-1 $-1 $27 $6 #
transform $-1 1 0 0 0 1 0 0 0 1 72.958769493697929 41.59854447898681 11.268308993667011 1 rotate no_reflect no_shear #
shell $-1 $-1 $-1 $28 $-1 $7 #
shell $-1 $-1 $-1 $29 $-1 $9 #
shell $-1 $-1 $-1 $30 $-1 $11 #
shell $-1 $-1 $-1 $31 $-1 $13 #
shell $-1 $-1 $-1 $32 $-1 $15 #
shell $-1 $-1 $-1 $33 $-1 $17 #
shell $-1 $-1 $-1 $34 $-1 $19 #
face $-1 $35 $36 $21 $-1 $37 reversed single #
face $-1 $38 $39 $22 $-1 $40 forward single #
face $-1 $41 $42 $23 $-1 $43 reversed single #
face $-1 $44 $45 $24 $-1 $46 forward single #
face $-1 $47 $48 $25 $-1 $49 reversed single #
face $-1 $50 $51 $26 $-1 $52 forward single #
face $-1 $53 $54 $27 $-1 $55 forward single #
face $-1 $56 $57 $21 $-1 $58 forward single #
loop $-1 $-1 $59 $28 #
plane-surface $-1 0 -41.59854447898681 0 0 1 0 0 0 1 forward_v I I I I #
face $-1 $60 $61 $22 $-1 $62 reversed single #
loop $-1 $-1 $63 $29 #
plane-surface $-1 0 -41.59854447898681 0 0 1 0 0 0 1 forward_v I I I I #
face $-1 $64 $65 $23 $-1 $66 reversed single #
loop $-1 $-1 $67 $30 #
plane-surface $-1 19.549244908406521 32.299688997604804 202.722505019138 0 1 0 0.50000000669873634 0 0.8660253999169214 forward_v I I I I #
face $-1 $68 $69 $24 $-1 $70 forward single #
loop $-1 $71 $72 $31 #
cone-surface $-1 65.663309353592467 36.9491167382958 6.5050706723695626 -0.50000000669873634 0 -0.8660253999169214 0.8660253999169214 0 -0.50000000669873634 1 I I 0 1 1 forward I I I I #
face $-1 $73 $74 $25 $-1 $75 reversed single #
loop $-1 $-1 $76 $32 #
plane-surface $-1 -156.65363258585455 30.258900826784902 120.64170575703861 0 1 0 -0.57357644374324357 0 0.81915203911291934 forward_v I I I I #
face $-1 $77 $78 $26 $-1 $79 forward single #
loop $-1 $80 $81 $33 #
cone-surface $-1 -65.17201395058153 33.498799013128291 5.4264039962009303 0.57357644374324357 0 -0.81915203911291934 0.81915203911291934 0 0.57357644374324357 1 I I 0 1 1 forward I I I I #
face $-1 $82 $83 $27 $-1 $84 forward single #
loop $-1 $85 $86 $34 #
cone-surface $-1 -65.17201395058153 38.358646292643385 5.4264039962009303 0.57357644374324357 0 -0.81915203911291934 0.81915203911291934 0 0.57357644374324357 1 I I 0 1 1 forward I I I I #
face $-1 $87 $88 $21 $-1 $89 reversed single #
loop $-1 $-1 $90 $35 #
plane-surface $-1 0 0 11.268308993667011 0 0 1 1 0 0 forward_v I I I I #
coedge $-1 $91 $92 $93 $94 reversed $36 $-1 #
face $-1 $95 $96 $22 $-1 $97 reversed single #
loop $-1 $-1 $98 $38 #
plane-surface $-1 0 0 -11.268308993667011 0 0 1 1 0 0 forward_v I I I I #
coedge $-1 $99 $100 $101 $102 forward $39 $-1 #
face $-1 $103 $104 $23 $-1 $105 reversed single #
loop $-1 $-1 $106 $41 #
plane-surface $-1 -53.409525562754524 36.9491167382958 76.35420996268553 0.50000000669873634 0 0.8660253999169214 0.8660253999169214 0 -0.50000000669873634 forward_v I I I I #
coedge $-1 $107 $108 $109 $110 reversed $42 $-1 #
face $-1 $-1 $111 $24 $-1 $112 forward single #
loop $-1 $113 $114 $44 #
cone-surface $-1 64.935954077878932 36.9491167382958 5.2452544021849281 -0.50000000669873634 0 -0.8660253999169214 0.4330126999584607 0 -0.25000000334936817 1 I I -0.70710678118654746 0.70710678118654746 0.5 forward I I I I #
loop $-1 $-1 $115 $31 #
coedge $-1 $72 $72 $116 $117 reversed $45 $-1 #
face $-1 $118 $119 $25 $-1 $120 reversed single #
loop $-1 $-1 $121 $47 #
plane-surface $-1 -72.958769493697943 35.928722652885853 1.1130561531743837 -0.57357644374324357 0 0.81915203911291934 0.81915203911291934 0 0.57357644374324357 forward_v I I I I #
coedge $-1 $122 $123 $124 $125 reversed $48 $-1 #
face $-1 $-1 $126 $26 $-1 $127 forward single #
loop $-1 $128 $129 $50 #
cone-surface $-1 -64.350072097369889 33.498799013128291 4.2525493994247014 0.57357644374324357 0 -0.81915203911291934 0.40957601955645967 0 0.28678822187162178 1 I I -0.70710678118654746 0.70710678118654746 0.5 forward I I I I #
loop $-1 $-1 $130 $33 #
coedge $-1 $81 $81 $131 $132 reversed $51 $-1 #
face $-1 $-1 $133 $27 $-1 $134 forward single #
loop $-1 $135 $136 $53 #
cone-surface $-1 -64.350072097369889 38.358646292643385 4.2525493994247014 0.57357644374324357 0 -0.81915203911291934 0.40957601955645967 0 0.28678822187162178 1 I I -0.70710678118654746 0.70710678118654746 0.5 forward I I I I #
loop $-1 $-1 $137 $34 #
coedge $-1 $86 $86 $138 $139 reversed $54 $-1 #
face $-1 $140 $141 $21 $-1 $142 reversed single #
loop $-1 $-1 $143 $56 #
plane-surface $-1 0 0 -11.268308993667011 0 0 1 1 0 0 forward_v I I I I #
coedge $-1 $144 $145 $146 $147 forward $57 $-1 #
coedge $-1 $148 $59 $149 $150 reversed $36 $-1 #
coedge $-1 $59 $148 $151 $152 forward $36 $-1 #
coedge $-1 $153 $143 $59 $94 forward $88 $-1 #
edge $-1 $154 -72.958769493697929 $155 72.958769493697929 $59 $156 forward 7 unknown #
face $-1 $157 $158 $22 $-1 $159 reversed single #
loop $-1 $-1 $160 $60 #
plane-surface $-1 -53.990130209566402 -52.690278689002952 0 0 1 0 0 0 1 forward_v I I I I #
coedge $-1 $161 $162 $100 $163 forward $61 $-1 #
coedge $-1 $164 $63 $165 $166 reversed $39 $-1 #
coedge $-1 $63 $164 $98 $163 reversed $39 $-1 #
coedge $-1 $167 $168 $63 $102 reversed $158 $-1 #
edge $-1 $169 -11.268308993667011 $170 11.268308993667011 $101 $171 forward 7 unknown #
face $-1 $172 $173 $23 $-1 $174 forward single #
loop $-1 $-1 $175 $64 #
plane-surface $-1 0 41.59854447898681 0 0 -1 0 0 0 -1 forward_v I I I I #
coedge $-1 $176 $177 $178 $179 reversed $65 $-1 #
coedge $-1 $108 $67 $180 $181 reversed $42 $-1 #
coedge $-1 $67 $107 $176 $182 reversed $42 $-1 #
coedge $-1 $178 $183 $67 $110 forward $184 $-1 #
edge $-1 $185 90.092943515901993 $186 97.9658130180445 $109 $187 forward 7 unknown #
loop $-1 $-1 $116 $68 #
plane-surface $-1 -53.409525562754524 36.9491167382958 76.35420996268553 0.50000000669873634 0 0.8660253999169214 0.8660253999169214 0 -0.50000000669873634 forward_v I I I I #
loop $-1 $-1 $188 $44 #
coedge $-1 $114 $114 $115 $189 reversed $69 $-1 #
coedge $-1 $115 $115 $114 $189 forward $71 $-1 #
coedge $-1 $116 $116 $72 $117 forward $111 $-1 #
edge $-1 $190 0 $190 6.2831853071796004 $116 $191 forward 7 unknown #
face $-1 $192 $193 $25 $-1 $194 reversed single #
loop $-1 $-1 $195 $73 #
plane-surface $-1 0 41.59854447898681 0 0 -1 0 0 0 -1 forward_v I I I I #
coedge $-1 $196 $197 $198 $199 reversed $74 $-1 #
coedge $-1 $123 $76 $200 $201 reversed $48 $-1 #
coedge $-1 $76 $122 $196 $202 reversed $48 $-1 #
coedge $-1 $198 $203 $76 $125 forward $204 $-1 #
edge $-1 $205 5.3680467992293472 $206 19.871250622782085 $124 $207 forward 7 unknown #
loop $-1 $-1 $131 $77 #
plane-surface $-1 -72.958769493697943 35.928722652885853 1.1130561531743837 -0.57357644374324357 0 0.81915203911291934 0.81915203911291934 0 0.57357644374324357 forward_v I I I I #
loop $-1 $-1 $208 $50 #
coedge $-1 $129 $129 $130 $209 reversed $78 $-1 #
coedge $-1 $130 $130 $129 $209 forward $80 $-1 #
coedge $-1 $131 $131 $81 $132 forward $126 $-1 #
edge $-1 $210 0 $210 6.2831853071796004 $131 $211 forward 7 unknown #
loop $-1 $-1 $138 $82 #
plane-surface $-1 -72.958769493697943 35.928722652885853 1.1130561531743837 -0.57357644374324357 0 0.81915203911291934 0.81915203911291934 0 0.57357644374324357 forward_v I I I I #
loop $-1 $-1 $212 $53 #
coedge $-1 $136 $136 $137 $213 reversed $83 $-1 #
coedge $-1 $137 $137 $136 $213 forward $85 $-1 #
coedge $-1 $138 $138 $86 $139 forward $133 $-1 #
edge $-1 $214 0 $214 6.2831853071796004 $138 $215 forward 7 unknown #
face $-1 $216 $217 $21 $-1 $218 reversed single #
loop $-1 $-1 $219 $87 #
plane-surface $-1 -72.958769493697929 0 0 1 0 0 0 0 -1 forward_v I I I I #
coedge $-1 $93 $220 $221 $222 forward $88 $-1 #
coedge $-1 $223 $90 $224 $225 forward $57 $-1 #
coedge $-1 $90 $223 $148 $226 forward $57 $-1 #
coedge $-1 $149 $227 $90 $147 reversed $228 $-1 #
edge $-1 $229 -41.59854447898681 $230 41.59854447898681 $146 $231 forward 7 unknown #
coedge $-1 $92 $91 $145 $226 reversed $36 $-1 #
coedge $-1 $221 $146 $91 $150 forward $228 $-1 #
edge $-1 $229 -11.268308993667011 $154 11.268308993667011 $149 $232 forward 7 unknown #
coedge $-1 $233 $234 $92 $152 reversed $141 $-1 #
edge $-1 $235 -11.268308993667011 $155 11.268308993667011 $151 $236 forward 7 unknown #
coedge $-1 $220 $93 $234 $237 forward $88 $-1 #
vertex $-1 $150 $238 #
vertex $-1 $237 $239 #
straight-curve $-1 0 -41.59854447898681 -11.268308993667011 -1 0 0 I I #
face $-1 $240 $241 $22 $-1 $242 reversed single #
loop $-1 $-1 $101 $95 #
plane-surface $-1 -56.403667396683112 -47.144411583994881 0 1 0 0 0 0 -1 forward_v I I I I #
coedge $-1 $243 $244 $245 $246 forward $96 $-1 #
coedge $-1 $247 $98 $248 $249 forward $61 $-1 #
coedge $-1 $98 $247 $167 $250 forward $61 $-1 #
edge $-1 $169 -56.403667396683112 $251 -51.576593022449693 $98 $252 forward 7 unknown #
coedge $-1 $100 $99 $253 $254 forward $39 $-1 #
coedge $-1 $255 $256 $99 $166 forward $257 $-1 #
edge $-1 $258 51.576593022449693 $170 56.403667396683112 $165 $259 forward 7 unknown #
coedge $-1 $245 $101 $162 $250 reversed $158 $-1 #
coedge $-1 $101 $245 $255 $260 reversed $158 $-1 #
vertex $-1 $163 $261 #
vertex $-1 $260 $262 #
straight-curve $-1 -56.403667396683112 -41.59854447898681 0 0 0 1 I I #
face $-1 $-1 $184 $23 $-1 $263 reversed single #
loop $-1 $-1 $264 $103 #
plane-surface $-1 0 0 11.268308993667011 0 0 1 1 0 0 forward_v I I I I #
coedge $-1 $265 $266 $177 $267 forward $104 $-1 #
coedge $-1 $268 $106 $108 $182 forward $65 $-1 #
coedge $-1 $106 $268 $175 $267 reversed $65 $-1 #
coedge $-1 $269 $109 $106 $179 forward $184 $-1 #
edge $-1 $186 13.825130628456904 $270 23.12398610983891 $178 $271 forward 7 unknown #
coedge $-1 $272 $264 $107 $181 forward $173 $-1 #
edge $-1 $273 49.547937304012002 $185 63.184147039494668 $180 $274 forward 7 unknown #
edge $-1 $186 -145.91753898739583 $273 -130.17180019406393 $108 $275 forward 7 unknown #
coedge $-1 $109 $269 $272 $276 reversed $184 $-1 #
loop $-1 $-1 $178 $172 #
vertex $-1 $276 $277 #
vertex $-1 $110 $278 #
straight-curve $-1 72.958769493697929 32.299688997604804 101.361252509569 0 0 -1 I I #
coedge $-1 $188 $188 $-1 $279 reversed $113 $-1 #
edge $-1 $280 0 $280 6.2831853071796004 $114 $281 forward 7 unknown #
vertex $-1 $117 $282 #
ellipse-curve $-1 66.140664625956632 36.9491167382958 7.3318742425957382 0.50000000669873634 0 0.8660253999169214 0.8660253999169214 0 -0.50000000669873634 1 I I #
face $-1 $-1 $204 $25 $-1 $283 forward single #
loop $-1 $-1 $284 $118 #
plane-surface $-1 -72.958769493697929 0 0 1 0 0 0 0 -1 forward_v I I I I #
coedge $-1 $285 $286 $197 $287 forward $119 $-1 #
coedge $-1 $288 $121 $123 $202 forward $74 $-1 #
coedge $-1 $121 $288 $195 $287 reversed $74 $-1 #
coedge $-1 $289 $124 $121 $199 forward $204 $-1 #
edge $-1 $206 12.294539500341976 $290 23.634183152543876 $198 $291 forward 7 unknown #
coedge $-1 $292 $284 $122 $201 forward $193 $-1 #
edge $-1 $293 -59.207796725344913 $205 -49.052543884852291 $200 $294 forward 7 unknown #
edge $-1 $206 -17.705142795296759 $293 -1.7372030585532449e-014 $123 $295 forward 7 unknown #
coedge $-1 $124 $289 $292 $296 forward $204 $-1 #
loop $-1 $-1 $198 $192 #
vertex $-1 $201 $297 #
vertex $-1 $125 $298 #
straight-curve $-1 -78.326816292927276 30.258900826784902 11.268308993667013 1 0 0 I I #
coedge $-1 $208 $208 $-1 $299 reversed $128 $-1 #
edge $-1 $300 0 $300 6.2831853071796004 $129 $301 forward 7 unknown #
vertex $-1 $132 $302 #
ellipse-curve $-1 -65.707167581921553 33.498799013128291 6.1906825734207054 -0.57357644374324357 0 0.81915203911291934 0.81915203911291934 0 0.57357644374324357 1 I I #
coedge $-1 $212 $212 $-1 $303 reversed $135 $-1 #
edge $-1 $304 0 $304 6.2831853071796004 $136 $305 forward 7 unknown #
vertex $-1 $139 $306 #
ellipse-curve $-1 -65.707167581921553 38.358646292643385 6.1906825734207054 -0.57357644374324357 0 0.81915203911291934 0.81915203911291934 0 0.57357644374324357 1 I I #
face $-1 $-1 $228 $21 $-1 $307 reversed single #
loop $-1 $-1 $308 $140 #
plane-surface $-1 0 41.59854447898681 0 0 -1 0 0 0 -1 forward_v I I I I #
coedge $-1 $234 $233 $309 $310 forward $141 $-1 #
coedge $-1 $143 $153 $311 $312 forward $88 $-1 #
coedge $-1 $227 $149 $143 $222 reversed $228 $-1 #
edge $-1 $313 -41.59854447898681 $154 41.59854447898681 $221 $314 forward 7 unknown #
coedge $-1 $145 $144 $233 $315 forward $57 $-1 #
coedge $-1 $308 $309 $144 $225 reversed $217 $-1 #
edge $-1 $230 -72.958769493697929 $316 72.958769493697929 $224 $317 forward 7 unknown #
edge $-1 $235 -72.958769493697929 $229 72.958769493697929 $148 $318 forward 7 unknown #
coedge $-1 $146 $221 $308 $319 reversed $228 $-1 #
loop $-1 $-1 $149 $216 #
vertex $-1 $147 $320 #
vertex $-1 $147 $321 #
straight-curve $-1 72.958769493697929 0 11.268308993667011 0 1 0 I I #
straight-curve $-1 72.958769493697929 -41.59854447898681 0 0 0 -1 I I #
coedge $-1 $219 $151 $223 $315 reversed $141 $-1 #
coedge $-1 $151 $219 $153 $237 reversed $141 $-1 #
vertex $-1 $315 $322 #
straight-curve $-1 -72.958769493697929 -41.59854447898681 0 0 0 -1 I I #
edge $-1 $155 -41.59854447898681 $323 41.59854447898681 $234 $324 forward 7 unknown #
point $-1 72.958769493697929 -41.59854447898681 -11.268308993667011 #
point $-1 -72.958769493697929 -41.59854447898681 -11.268308993667011 #
face $-1 $-1 $257 $22 $-1 $325 forward single #
loop $-1 $-1 $326 $157 #
plane-surface $-1 -51.576593022449693 -47.144411583994881 0 -1 0 0 0 0 1 forward_v I I I I #
coedge $-1 $327 $160 $247 $328 reversed $96 $-1 #
coedge $-1 $160 $327 $329 $330 reversed $96 $-1 #
coedge $-1 $168 $167 $160 $246 reversed $158 $-1 #
edge $-1 $331 -11.268308993667011 $332 11.268308993667011 $245 $333 forward 7 unknown #
coedge $-1 $162 $161 $243 $328 forward $61 $-1 #
coedge $-1 $253 $326 $161 $249 reversed $241 $-1 #
edge $-1 $251 -5.545867105008071 $334 5.545867105008071 $248 $335 forward 7 unknown #
edge $-1 $332 -5.545867105008071 $169 5.545867105008071 $167 $336 forward 7 unknown #
vertex $-1 $249 $337 #
straight-curve $-1 0 -41.59854447898681 -11.268308993667011 1 0 0 I I #
coedge $-1 $338 $248 $164 $254 reversed $241 $-1 #
edge $-1 $258 -11.268308993667011 $251 11.268308993667011 $253 $339 forward 7 unknown #
coedge $-1 $329 $165 $168 $260 forward $257 $-1 #
coedge $-1 $165 $329 $338 $340 forward $257 $-1 #
loop $-1 $-1 $165 $240 #
vertex $-1 $166 $341 #
straight-curve $-1 0 -41.59854447898681 11.268308993667011 -1 0 0 I I #
edge $-1 $170 -5.545867105008071 $331 5.545867105008071 $168 $342 forward 7 unknown #
point $-1 -56.403667396683112 -41.59854447898681 -11.268308993667011 #
point $-1 -56.403667396683112 -41.59854447898681 11.268308993667011 #
plane-surface $-1 72.958769493697929 0 0 -1 0 0 0 0 1 forward_v I I I I #
coedge $-1 $180 $343 $268 $344 forward $173 $-1 #
coedge $-1 $266 $175 $343 $345 reversed $104 $-1 #
coedge $-1 $175 $265 $269 $346 forward $104 $-1 #
edge $-1 $270 -103.70198337355734 $347 -87.956244580225416 $175 $348 forward 7 unknown #
coedge $-1 $177 $176 $264 $344 reversed $65 $-1 #
coedge $-1 $183 $178 $266 $346 reversed $184 $-1 #
vertex $-1 $179 $349 #
straight-curve $-1 72.958769493697915 18.4745583691479 3.3954394915244919 0 1 0 I I #
coedge $-1 $343 $180 $183 $276 forward $173 $-1 #
vertex $-1 $181 $350 #
straight-curve $-1 9.7746224542032607 32.299688997604804 11.268308993667006 1 0 0 I I #
straight-curve $-1 -53.409525562754524 32.299688997604804 76.35420996268553 -0.8660253999169214 0 0.50000000669873634 I I #
edge $-1 $185 32.299688997604804 $351 41.59854447898681 $183 $352 forward 7 unknown #
point $-1 72.958769493697929 32.299688997604804 11.268308993667011 #
point $-1 72.958769493697915 32.299688997604804 3.395439491524499 #
edge $-1 $353 1 $353 0 $188 $-1 forward 7 unknown #
vertex $-1 $189 $354 #
ellipse-curve $-1 65.185954081228303 36.9491167382958 5.6782671021433888 0.50000000669873634 0 0.8660253999169214 0.8660253999169214 0 -0.50000000669873634 1 I I #
point $-1 67.006690025873553 36.9491167382958 6.8318742358970006 #
plane-surface $-1 0 0 11.268308993667011 0 0 1 1 0 0 forward_v I I I I #
coedge $-1 $200 $355 $288 $356 forward $193 $-1 #
coedge $-1 $286 $195 $355 $357 reversed $119 $-1 #
coedge $-1 $195 $285 $289 $358 reversed $119 $-1 #
edge $-1 $290 11.857808210657153 $359 29.562951005953892 $195 $360 forward 7 unknown #
coedge $-1 $197 $196 $284 $356 reversed $74 $-1 #
coedge $-1 $203 $198 $286 $358 forward $204 $-1 #
vertex $-1 $358 $361 #
straight-curve $-1 -58.455565670145184 17.964361326442926 11.268308993667011 0 1 0 I I #
coedge $-1 $355 $200 $203 $296 reversed $193 $-1 #
vertex $-1 $201 $362 #
straight-curve $-1 -72.958769493697929 30.258900826784902 60.320852878519304 0 0 1 I I #
straight-curve $-1 -72.958769493697943 30.258900826784902 1.1130561531743837 -0.81915203911291934 0 -0.57357644374324357 I I #
edge $-1 $363 -41.59854447898681 $205 -30.258900826784902 $292 $364 forward 7 unknown #
point $-1 -72.958769493697929 30.258900826784902 11.268308993667011 #
point $-1 -58.455565670145191 30.258900826784902 11.268308993667011 #
edge $-1 $365 1 $365 0 $208 $-1 forward 7 unknown #
vertex $-1 $209 $366 #
ellipse-curve $-1 -64.636860319241507 33.498799013128291 4.6621254189811614 -0.57357644374324357 0 0.81915203911291934 0.81915203911291934 0 0.57357644374324357 1 I I #
point $-1 -64.888015542808631 33.498799013128291 6.7642590171639432 #
edge $-1 $367 1 $367 0 $212 $-1 forward 7 unknown #
vertex $-1 $213 $368 #
ellipse-curve $-1 -64.636860319241507 38.358646292643385 4.6621254189811614 -0.57357644374324357 0 0.81915203911291934 0.81915203911291934 0 0.57357644374324357 1 I I #
point $-1 -64.888015542808631 38.358646292643385 6.7642590171639432 #
plane-surface $-1 72.958769493697929 0 0 -1 0 0 0 0 1 forward_v I I I I #
coedge $-1 $311 $224 $227 $319 forward $217 $-1 #
coedge $-1 $224 $311 $219 $310 reversed $217 $-1 #
edge $-1 $316 -11.268308993667011 $323 11.268308993667011 $309 $369 forward 7 unknown #
coedge $-1 $309 $308 $220 $312 reversed $217 $-1 #
edge $-1 $323 -72.958769493697929 $313 72.958769493697929 $311 $370 forward 7 unknown #
vertex $-1 $222 $371 #
straight-curve $-1 72.958769493697929 0 -11.268308993667011 0 -1 0 I I #
edge $-1 $316 -41.59854447898681 $235 41.59854447898681 $233 $372 forward 7 unknown #
vertex $-1 $225 $373 #
straight-curve $-1 0 41.59854447898681 11.268308993667011 -1 0 0 I I #
straight-curve $-1 0 -41.59854447898681 11.268308993667011 1 0 0 I I #
edge $-1 $230 -11.268308993667011 $313 11.268308993667011 $227 $374 forward 7 unknown #
point $-1 72.958769493697929 -41.59854447898681 11.268308993667011 #
point $-1 72.958769493697929 41.59854447898681 11.268308993667011 #
point $-1 -72.958769493697929 -41.59854447898681 11.268308993667011 #
vertex $-1 $312 $375 #
straight-curve $-1 -72.958769493697929 0 -11.268308993667011 0 1 0 I I #
plane-surface $-1 0 0 11.268308993667011 0 0 1 1 0 0 forward_v I I I I #
coedge $-1 $248 $338 $327 $376 forward $241 $-1 #
coedge $-1 $244 $243 $326 $376 reversed $96 $-1 #
edge $-1 $334 -2.4135371871167095 $332 2.4135371871167095 $243 $377 forward 7 unknown #
coedge $-1 $256 $255 $244 $330 forward $257 $-1 #
edge $-1 $331 -2.4135371871167095 $378 2.4135371871167095 $244 $379 forward 7 unknown #
vertex $-1 $260 $380 #
vertex $-1 $250 $381 #
straight-curve $-1 -56.403667396683112 -52.690278689002952 0 0 0 -1 I I #
vertex $-1 $376 $382 #
straight-curve $-1 -51.576593022449693 -47.144411583994881 -11.268308993667011 0 -1 0 I I #
straight-curve $-1 -56.403667396683112 -47.144411583994881 -11.268308993667011 0 1 0 I I #
point $-1 -51.576593022449693 -41.59854447898681 -11.268308993667011 #
coedge $-1 $326 $253 $256 $340 reversed $241 $-1 #
straight-curve $-1 -51.576593022449693 -41.59854447898681 0 0 0 -1 I I #
edge $-1 $378 -5.545867105008071 $258 5.545867105008071 $338 $383 forward 7 unknown #
point $-1 -51.576593022449693 -41.59854447898681 11.268308993667011 #
straight-curve $-1 -56.403667396683112 -47.144411583994881 11.268308993667011 0 -1 0 I I #
coedge $-1 $264 $272 $265 $345 forward $173 $-1 #
edge $-1 $347 -23.123986109838896 $273 -13.825130628456904 $264 $384 forward 7 unknown #
edge $-1 $351 -72.958769493697929 $347 -59.322559758215263 $265 $385 forward 7 unknown #
edge $-1 $351 -11.268308993667011 $270 -3.3954394915244879 $269 $386 forward 7 unknown #
vertex $-1 $344 $387 #
straight-curve $-1 -16.849782129565 41.59854447898681 55.2464318729754 -0.8660253999169214 0 0.50000000669873634 I I #
point $-1 72.958769493697929 41.59854447898681 3.3954394915244879 #
point $-1 59.322559758215263 32.299688997604804 11.268308993667006 #
vertex $-1 $276 $388 #
straight-curve $-1 72.958769493697929 0 11.268308993667011 0 1 0 I I #
vertex $-1 $279 $389 #
point $-1 66.051979481145224 36.9491167382958 5.1782670954446521 #
coedge $-1 $284 $292 $285 $357 forward $193 $-1 #
edge $-1 $359 -23.634183152543876 $293 -12.294539500341976 $284 $390 forward 7 unknown #
edge $-1 $363 -11.268308993667011 $359 -1.1130561531743937 $285 $391 forward 7 unknown #
edge $-1 $290 58.455565670145191 $363 72.958769493697929 $286 $392 forward 7 unknown #
vertex $-1 $356 $393 #
straight-curve $-1 -48.742217894975468 41.59854447898681 18.069668457725175 -0.81915203911291934 0 -0.57357644374324357 I I #
point $-1 -58.455565670145191 41.598544478986803 11.268308993667011 #
point $-1 -72.958769493697929 30.258900826784902 1.1130561531743937 #
vertex $-1 $358 $394 #
straight-curve $-1 -72.958769493697929 0 11.268308993667011 0 -1 0 I I #
vertex $-1 $299 $395 #
point $-1 -63.817708280128592 33.498799013128291 5.2357018627244045 #
vertex $-1 $303 $396 #
point $-1 -63.817708280128592 38.358646292643385 5.2357018627244045 #
straight-curve $-1 -72.958769493697929 41.59854447898681 0 0 0 -1 I I #
straight-curve $-1 0 41.59854447898681 -11.268308993667011 1 0 0 I I #
point $-1 72.958769493697929 41.59854447898681 -11.268308993667011 #
straight-curve $-1 -72.958769493697929 0 11.268308993667011 0 -1 0 I I #
point $-1 -72.958769493697929 41.59854447898681 11.268308993667011 #
straight-curve $-1 72.958769493697929 41.59854447898681 0 0 0 -1 I I #
point $-1 -72.958769493697929 41.59854447898681 -11.268308993667011 #
edge $-1 $378 -11.268308993667011 $334 11.268308993667011 $326 $397 forward 7 unknown #
straight-curve $-1 -53.990130209566402 -52.690278689002952 -11.268308993667011 -1 0 0 I I #
vertex $-1 $340 $398 #
straight-curve $-1 -53.990130209566402 -52.690278689002952 11.268308993667011 1 0 0 I I #
point $-1 -56.403667396683112 -52.690278689002952 11.268308993667011 #
point $-1 -56.403667396683112 -52.690278689002952 -11.268308993667011 #
point $-1 -51.576593022449693 -52.690278689002952 -11.268308993667011 #
straight-curve $-1 -51.576593022449693 -47.144411583994881 11.268308993667011 0 1 0 I I #
straight-curve $-1 59.322559758215256 18.4745583691479 11.26830899366702 0 -1 0 I I #
straight-curve $-1 0 41.59854447898681 11.268308993667011 -1 0 0 I I #
straight-curve $-1 72.958769493697929 41.59854447898681 0 0 0 -1 I I #
point $-1 59.322559758215263 41.598544478986796 11.268308993667006 #
point $-1 72.958769493697929 41.59854447898681 11.268308993667011 #
point $-1 64.685954074529562 36.9491167382958 4.8122417022264674 #
straight-curve $-1 -72.958769493697929 17.964361326442926 1.1130561531743841 0 -1 0 I I #
straight-curve $-1 -72.958769493697929 41.59854447898681 0 0 0 -1 I I #
straight-curve $-1 0 41.59854447898681 11.268308993667011 -1 0 0 I I #
point $-1 -72.958769493697929 41.598544478986803 1.1130561531743937 #
point $-1 -72.958769493697929 41.59854447898681 11.268308993667011 #
point $-1 -64.063283875498271 33.498799013128291 3.8429733798682419 #
point $-1 -64.063283875498271 38.358646292643385 3.8429733798682419 #
straight-curve $-1 -51.576593022449693 -52.690278689002952 0 0 0 -1 I I #
point $-1 -51.576593022449693 -52.690278689002952 11.268308993667011 #
End-of-ACIS-data 