500 0 3 0           
7 Unknown 11 ACIS 5.0 NT 24 Thu Mar 25 17:55:47 1999 
-1 9.9999999999999995e-007 1e-010 
body $-1 $3 $-1 $4 #
body $-1 $5 $-1 $6 #
body $-1 $7 $-1 $8 #
lump $-1 $-1 $9 $0 #
transform $-1 1 0 0 0 1 0 0 0 1 44.310434278389842 26.237099699982291 10.667154216228647 1 rotate no_reflect no_shear #
lump $-1 $-1 $10 $1 #
transform $-1 1 0 0 0 1 0 0 0 1 44.310434278389842 26.237099699982291 10.667154216228647 1 rotate no_reflect no_shear #
lump $-1 $-1 $11 $2 #
transform $-1 1 0 0 0 1 0 0 0 1 44.310434278389842 26.237099699982291 10.667154216228647 1 rotate no_reflect no_shear #
shell $-1 $-1 $-1 $12 $-1 $3 #
shell $-1 $-1 $-1 $13 $-1 $5 #
shell $-1 $-1 $-1 $14 $-1 $7 #
face $-1 $15 $16 $9 $-1 $17 forward single #
face $-1 $18 $19 $10 $-1 $20 reversed single #
face $-1 $21 $22 $11 $-1 $23 forward single #
face $-1 $24 $25 $9 $-1 $26 reversed single #
loop $-1 $-1 $27 $12 #
plane-surface $-1 0 0 10.667154216228647 0 0 1 1 0 0 forward_v I I I I #
face $-1 $28 $29 $10 $-1 $30 reversed single #
loop $-1 $-1 $31 $13 #
plane-surface $-1 -30.478417064121267 -100.56081457366355 50.757676033409197 -1 0 0 0 -0.83867057594974714 0.54463902268945019 forward_v I I I I #
face $-1 $32 $33 $11 $-1 $34 forward single #
loop $-1 $35 $36 $14 #
cone-surface $-1 -37.394425671255554 -22.65777363061936 5.9787858673678267 0 0.83867057594974714 -0.54463902268945019 2 0 0 1 I I 0 1 2 forward I I I I #
face $-1 $37 $38 $9 $-1 $39 reversed single #
loop $-1 $-1 $40 $15 #
plane-surface $-1 0 0 -10.667154216228647 0 0 1 1 0 0 forward_v I I I I #
coedge $-1 $41 $42 $43 $44 forward $16 $-1 #
face $-1 $45 $46 $10 $-1 $47 forward single #
loop $-1 $-1 $48 $18 #
plane-surface $-1 -37.394425671255554 -26.237099699982295 2.4912927927544857 0 -0.83867057594974714 0.54463902268945019 1 0 0 forward_v I I I I #
coedge $-1 $49 $50 $51 $52 reversed $19 $-1 #
face $-1 $-1 $53 $11 $-1 $54 forward single #
loop $-1 $55 $56 $21 #
cone-surface $-1 -37.394425671255554 -20.894510144558566 4.8337092075546337 0 0.83867057594974714 -0.54463902268945019 1 0 0 1 I I -0.70710678118654746 0.70710678118654746 1 forward I I I I #
loop $-1 $-1 $57 $14 #
coedge $-1 $36 $36 $58 $59 reversed $22 $-1 #
face $-1 $60 $61 $9 $-1 $62 reversed single #
loop $-1 $-1 $63 $24 #
plane-surface $-1 0 -26.237099699982291 0 0 1 0 0 0 1 forward_v I I I I #
coedge $-1 $64 $65 $66 $67 forward $25 $-1 #
coedge $-1 $68 $27 $69 $70 forward $16 $-1 #
coedge $-1 $27 $68 $71 $72 forward $16 $-1 #
coedge $-1 $73 $74 $27 $44 reversed $75 $-1 #
edge $-1 $76 -26.237099699982291 $77 26.237099699982291 $43 $78 forward 7 unknown #
face $-1 $79 $80 $10 $-1 $81 reversed single #
loop $-1 $-1 $51 $28 #
plane-surface $-1 0 0 10.667154216228647 0 0 1 1 0 0 forward_v I I I I #
coedge $-1 $82 $83 $84 $85 reversed $29 $-1 #
coedge $-1 $50 $31 $86 $87 reversed $19 $-1 #
coedge $-1 $31 $49 $82 $88 reversed $19 $-1 #
coedge $-1 $84 $89 $31 $52 forward $46 $-1 #
edge $-1 $90 24.043307586849483 $91 29.352773905353253 $51 $92 forward 7 unknown #
loop $-1 $-1 $58 $32 #
plane-surface $-1 -37.394425671255554 -26.237099699982295 2.4912927927544857 0 -0.83867057594974714 0.54463902268945019 1 0 0 forward_v I I I I #
loop $-1 $-1 $93 $21 #
coedge $-1 $56 $56 $57 $94 reversed $33 $-1 #
coedge $-1 $57 $57 $56 $94 forward $35 $-1 #
coedge $-1 $58 $58 $36 $59 forward $53 $-1 #
edge $-1 $95 3.7244455339802019e-016 $95 6.2831853071796004 $58 $96 forward 7 unknown #
face $-1 $97 $98 $9 $-1 $99 reversed single #
loop $-1 $-1 $100 $37 #
plane-surface $-1 -44.310434278389842 0 0 1 0 0 0 0 -1 forward_v I I I I #
coedge $-1 $101 $71 $102 $103 forward $38 $-1 #
coedge $-1 $104 $40 $101 $105 forward $25 $-1 #
coedge $-1 $40 $104 $106 $107 forward $25 $-1 #
coedge $-1 $74 $73 $40 $67 reversed $75 $-1 #
edge $-1 $108 -26.237099699982291 $109 26.237099699982291 $66 $110 forward 7 unknown #
coedge $-1 $42 $41 $111 $112 forward $16 $-1 #
coedge $-1 $113 $114 $41 $70 reversed $98 $-1 #
edge $-1 $77 -44.310434278389842 $115 44.310434278389842 $69 $116 forward 7 unknown #
coedge $-1 $63 $117 $42 $72 reversed $38 $-1 #
edge $-1 $118 -44.310434278389842 $76 44.310434278389842 $71 $119 forward 7 unknown #
coedge $-1 $66 $43 $117 $120 forward $75 $-1 #
coedge $-1 $43 $66 $113 $121 reversed $75 $-1 #
loop $-1 $-1 $73 $97 #
vertex $-1 $44 $122 #
vertex $-1 $44 $123 #
straight-curve $-1 44.310434278389842 0 10.667154216228647 0 1 0 I I #
face $-1 $-1 $124 $10 $-1 $125 reversed single #
loop $-1 $-1 $126 $45 #
plane-surface $-1 -44.310434278389842 0 0 1 0 0 0 0 -1 forward_v I I I I #
coedge $-1 $127 $48 $50 $88 forward $29 $-1 #
coedge $-1 $48 $127 $126 $128 reversed $29 $-1 #
coedge $-1 $129 $51 $48 $85 forward $46 $-1 #
edge $-1 $91 11.78120422849349 $130 25.613221442762065 $84 $131 forward 7 unknown #
coedge $-1 $132 $133 $49 $87 forward $124 $-1 #
edge $-1 $134 -22.887545223950106 $90 -14.711683800475951 $86 $135 forward 7 unknown #
edge $-1 $91 -9.7485969556228422 $134 -6.4042811466935879e-015 $50 $136 forward 7 unknown #
coedge $-1 $51 $129 $132 $137 forward $46 $-1 #
vertex $-1 $87 $138 #
vertex $-1 $52 $139 #
straight-curve $-1 -30.478417064121267 -50.280407286831775 10.667154216228649 0 1 0 I I #
coedge $-1 $93 $93 $-1 $140 reversed $55 $-1 #
edge $-1 $141 0 $141 6.2831853071796004 $56 $142 forward 7 unknown #
vertex $-1 $59 $143 #
ellipse-curve $-1 -37.394425671255554 -23.582366540730405 6.5792235044915692 0 -0.83867057594974714 0.54463902268945019 2 0 0 1 I I #
face $-1 $-1 $75 $9 $-1 $144 reversed single #
loop $-1 $-1 $113 $60 #
plane-surface $-1 0 26.237099699982291 0 0 -1 0 0 0 -1 forward_v I I I I #
coedge $-1 $145 $111 $114 $146 forward $61 $-1 #
coedge $-1 $117 $63 $64 $105 reversed $38 $-1 #
coedge $-1 $111 $145 $63 $103 reversed $61 $-1 #
edge $-1 $118 -10.667154216228647 $147 10.667154216228647 $102 $148 forward 7 unknown #
coedge $-1 $65 $64 $145 $149 forward $25 $-1 #
edge $-1 $109 -44.310434278389842 $147 44.310434278389842 $101 $150 forward 7 unknown #
coedge $-1 $114 $113 $65 $107 reversed $98 $-1 #
edge $-1 $151 -44.310434278389842 $108 44.310434278389842 $106 $152 forward 7 unknown #
vertex $-1 $67 $153 #
vertex $-1 $120 $154 #
straight-curve $-1 44.310434278389842 0 -10.667154216228647 0 -1 0 I I #
coedge $-1 $100 $102 $68 $112 reversed $61 $-1 #
edge $-1 $115 -26.237099699982291 $118 26.237099699982291 $111 $155 forward 7 unknown #
coedge $-1 $106 $69 $74 $121 forward $98 $-1 #
coedge $-1 $69 $106 $100 $146 reversed $98 $-1 #
vertex $-1 $70 $156 #
straight-curve $-1 0 26.237099699982291 10.667154216228647 -1 0 0 I I #
coedge $-1 $71 $101 $73 $120 reversed $38 $-1 #
vertex $-1 $112 $157 #
straight-curve $-1 0 -26.237099699982291 10.667154216228647 1 0 0 I I #
edge $-1 $76 -10.667154216228647 $109 10.667154216228647 $73 $158 forward 7 unknown #
edge $-1 $77 -10.667154216228647 $108 10.667154216228647 $74 $159 forward 7 unknown #
point $-1 44.310434278389842 -26.237099699982291 10.667154216228647 #
point $-1 44.310434278389842 26.237099699982291 10.667154216228647 #
loop $-1 $-1 $86 $79 #
plane-surface $-1 0 -26.237099699982291 0 0 1 0 0 0 1 forward_v I I I I #
coedge $-1 $160 $161 $83 $128 forward $80 $-1 #
coedge $-1 $83 $82 $133 $162 reversed $29 $-1 #
edge $-1 $130 -3.6484097669002598 $163 6.1001871887225771 $126 $164 forward 7 unknown #
coedge $-1 $89 $84 $161 $165 forward $46 $-1 #
vertex $-1 $165 $166 #
straight-curve $-1 -18.697212835627777 -20.927633381478518 10.667154216228647 -1 0 0 I I #
coedge $-1 $167 $86 $89 $137 reversed $124 $-1 #
coedge $-1 $86 $167 $127 $162 forward $124 $-1 #
vertex $-1 $87 $168 #
straight-curve $-1 -30.478417064121267 -26.237099699982288 25.378838016704599 0 0 1 I I #
straight-curve $-1 -30.478417064121267 -26.237099699982295 2.4912927927544857 0 -0.54463902268945019 -0.83867057594974714 I I #
edge $-1 $169 -44.310434278389842 $90 -30.478417064121267 $132 $170 forward 7 unknown #
point $-1 -30.478417064121267 -26.237099699982291 10.667154216228647 #
point $-1 -30.478417064121267 -20.927633381478522 10.667154216228647 #
edge $-1 $171 1 $171 0 $93 $-1 forward 7 unknown #
vertex $-1 $94 $172 #
ellipse-curve $-1 -37.394425671255554 -21.733180720508315 5.3783482302440841 0 -0.83867057594974714 0.54463902268945019 2 0 0 1 I I #
point $-1 -35.394425671255554 -23.582366540730405 6.5792235044915701 #
plane-surface $-1 44.310434278389842 0 0 -1 0 0 0 0 1 forward_v I I I I #
coedge $-1 $102 $100 $104 $149 reversed $61 $-1 #
edge $-1 $115 -10.667154216228647 $151 10.667154216228647 $114 $173 forward 7 unknown #
vertex $-1 $149 $174 #
straight-curve $-1 -44.310434278389842 -26.237099699982291 0 0 0 -1 I I #
edge $-1 $147 -26.237099699982291 $151 26.237099699982291 $145 $175 forward 7 unknown #
straight-curve $-1 0 -26.237099699982291 -10.667154216228647 -1 0 0 I I #
vertex $-1 $107 $176 #
straight-curve $-1 0 26.237099699982291 -10.667154216228647 1 0 0 I I #
point $-1 44.310434278389842 26.237099699982291 -10.667154216228647 #
point $-1 44.310434278389842 -26.237099699982291 -10.667154216228647 #
straight-curve $-1 -44.310434278389842 0 10.667154216228647 0 -1 0 I I #
point $-1 -44.310434278389842 26.237099699982291 10.667154216228647 #
point $-1 -44.310434278389842 -26.237099699982291 10.667154216228647 #
straight-curve $-1 44.310434278389842 -26.237099699982291 0 0 0 -1 I I #
straight-curve $-1 44.310434278389842 26.237099699982291 0 0 0 -1 I I #
coedge $-1 $161 $126 $167 $177 reversed $80 $-1 #
coedge $-1 $126 $160 $129 $165 reversed $80 $-1 #
edge $-1 $163 -25.613221442762065 $134 -11.78120422849349 $133 $178 forward 7 unknown #
vertex $-1 $128 $179 #
straight-curve $-1 -44.310434278389842 -22.914699711293721 7.6073402957217224 0 -0.54463902268945019 -0.83867057594974714 I I #
edge $-1 $130 20.927633381478522 $169 26.237099699982291 $161 $180 forward 7 unknown #
point $-1 -44.310434278389842 -20.927633381478522 10.667154216228647 #
coedge $-1 $133 $132 $160 $177 forward $124 $-1 #
point $-1 -30.478417064121267 -26.237099699982291 2.491292792754491 #
vertex $-1 $165 $181 #
straight-curve $-1 0 -26.237099699982291 10.667154216228647 1 0 0 I I #
vertex $-1 $140 $182 #
point $-1 -35.394425671255554 -21.733180720508315 5.3783482302440841 #
straight-curve $-1 -44.310434278389842 26.237099699982291 0 0 0 -1 I I #
point $-1 -44.310434278389842 -26.237099699982291 -10.667154216228647 #
straight-curve $-1 -44.310434278389842 0 -10.667154216228647 0 1 0 I I #
point $-1 -44.310434278389842 26.237099699982291 -10.667154216228647 #
edge $-1 $169 -10.667154216228647 $163 -2.491292792754491 $160 $183 forward 7 unknown #
straight-curve $-1 -18.697212835627777 -26.237099699982291 2.491292792754495 1 0 0 I I #
point $-1 -44.310434278389842 -26.237099699982291 2.491292792754491 #
straight-curve $-1 -44.310434278389842 0 10.667154216228647 0 -1 0 I I #
point $-1 -44.310434278389842 -26.237099699982291 10.667154216228647 #
point $-1 -37.394425671255554 -20.055839568608818 4.2890701848651833 #
straight-curve $-1 -44.310434278389842 -26.237099699982291 0 0 0 -1 I I #
End-of-ACIS-data 