500 0 8 0           
7 Unknown 11 ACIS 5.0 NT 24 Fri Mar 26 02:47:05 1999 
-1 9.9999999999999995e-007 1e-010 
body $-1 $8 $-1 $9 #
body $-1 $10 $-1 $11 #
body $-1 $12 $-1 $13 #
body $-1 $14 $-1 $15 #
body $-1 $16 $-1 $17 #
body $-1 $18 $-1 $19 #
body $-1 $20 $-1 $21 #
body $-1 $22 $-1 $23 #
lump $-1 $-1 $24 $0 #
transform $-1 1 0 0 0 1 0 0 0 1 45.575121311075165 19.217298535313002 4 1 rotate no_reflect no_shear #
lump $-1 $-1 $25 $1 #
transform $-1 1 0 0 0 1 0 0 0 1 45.575121311075165 19.217298535313002 4 1 rotate no_reflect no_shear #
lump $-1 $-1 $26 $2 #
transform $-1 1 0 0 0 1 0 0 0 1 45.575121311075165 19.217298535313002 4 1 rotate no_reflect no_shear #
lump $-1 $-1 $27 $3 #
transform $-1 1 0 0 0 1 0 0 0 1 45.575121311075165 19.217298535313002 4 1 rotate no_reflect no_shear #
lump $-1 $-1 $28 $4 #
transform $-1 1 0 0 0 1 0 0 0 1 45.575121311075165 19.217298535313002 4 1 rotate no_reflect no_shear #
lump $-1 $-1 $29 $5 #
transform $-1 1 0 0 0 1 0 0 0 1 45.575121311075165 19.217298535313002 4 1 rotate no_reflect no_shear #
lump $-1 $-1 $30 $6 #
transform $-1 1 0 0 0 1 0 0 0 1 45.575121311075165 19.217298535313002 4 1 rotate no_reflect no_shear #
lump $-1 $-1 $31 $7 #
transform $-1 1 0 0 0 1 0 0 0 1 45.575121311075165 19.217298535313002 4 1 rotate no_reflect no_shear #
shell $-1 $-1 $-1 $32 $-1 $8 #
shell $-1 $-1 $-1 $33 $-1 $10 #
shell $-1 $-1 $-1 $34 $-1 $12 #
shell $-1 $-1 $-1 $35 $-1 $14 #
shell $-1 $-1 $-1 $36 $-1 $16 #
shell $-1 $-1 $-1 $37 $-1 $18 #
shell $-1 $-1 $-1 $38 $-1 $20 #
shell $-1 $-1 $-1 $39 $-1 $22 #
face $-1 $40 $41 $24 $-1 $42 forward single #
face $-1 $43 $44 $25 $-1 $45 forward single #
face $-1 $46 $47 $26 $-1 $48 reversed single #
face $-1 $49 $50 $27 $-1 $51 forward single #
face $-1 $52 $53 $28 $-1 $54 reversed single #
face $-1 $55 $56 $29 $-1 $57 forward single #
face $-1 $58 $59 $30 $-1 $60 forward single #
face $-1 $61 $62 $31 $-1 $63 forward single #
face $-1 $64 $65 $24 $-1 $66 reversed single #
loop $-1 $-1 $67 $32 #
plane-surface $-1 0 0 4 0 0 1 1 0 0 forward_v I I I I #
face $-1 $68 $69 $25 $-1 $70 reversed single #
loop $-1 $-1 $71 $33 #
plane-surface $-1 -45.575121311075165 0 0 1 0 0 0 0 -1 forward_v I I I I #
face $-1 $72 $73 $26 $-1 $74 reversed single #
loop $-1 $-1 $75 $34 #
plane-surface $-1 16.017603802861135 38.324143152551599 97.665244130560964 1 0 0 0 -0.55919291073839883 -0.82903756765294845 forward_v I I I I #
face $-1 $76 $77 $27 $-1 $78 forward single #
loop $-1 $79 $80 $35 #
cone-surface $-1 26.120328864336344 15.836036779070923 1.0201084532764273 0 -0.55919291073839883 -0.82903756765294845 1 0 0 1 I I 0 1 1 forward I I I I #
face $-1 $81 $82 $28 $-1 $83 reversed single #
loop $-1 $-1 $84 $36 #
plane-surface $-1 1.7516858783031211 -81.38161526200399 67.209470049644906 -1 0 0 0 -0.68199836817093118 0.7313536940579346 forward_v I I I I #
face $-1 $85 $86 $29 $-1 $87 forward single #
loop $-1 $88 $89 $37 #
cone-surface $-1 -9.5419080443545141 -16.557946635984436 1.4071701808788739 0 0.68199836817093118 -0.7313536940579346 1 0 0 1 I I 0 1 1 forward I I I I #
face $-1 $90 $91 $30 $-1 $92 forward single #
loop $-1 $93 $94 $38 #
cone-surface $-1 -5.3068103233579009 -16.557946635984436 1.4071701808788739 0 0.68199836817093118 -0.7313536940579346 1 0 0 1 I I 0 1 1 forward I I I I #
face $-1 $95 $96 $31 $-1 $97 forward single #
loop $-1 $98 $99 $39 #
cone-surface $-1 -1.0717126023612877 -16.557946635984436 1.4071701808788739 0 0.68199836817093118 -0.7313536940579346 1 0 0 1 I I 0 1 1 forward I I I I #
face $-1 $100 $101 $24 $-1 $102 reversed single #
loop $-1 $-1 $103 $40 #
plane-surface $-1 0 0 -4 0 0 1 1 0 0 forward_v I I I I #
coedge $-1 $104 $105 $106 $107 forward $41 $-1 #
face $-1 $108 $109 $25 $-1 $110 forward single #
loop $-1 $-1 $111 $43 #
plane-surface $-1 0 19.217298535313002 0 0 -1 0 0 0 -1 forward_v I I I I #
coedge $-1 $112 $113 $114 $115 forward $44 $-1 #
face $-1 $116 $117 $26 $-1 $118 reversed single #
loop $-1 $-1 $119 $46 #
plane-surface $-1 26.120328864336344 -12.646426333839905 22.098268696117344 0 0.55919291073839883 0.82903756765294845 1 0 0 forward_v I I I I #
coedge $-1 $120 $121 $122 $123 reversed $47 $-1 #
face $-1 $-1 $124 $27 $-1 $125 forward single #
loop $-1 $126 $127 $49 #
cone-surface $-1 26.120328864336344 14.691147872466505 -0.67725912084184259 0 -0.55919291073839883 -0.82903756765294845 0.5 0 0 1 I I -0.70710678118654746 0.70710678118654746 0.5 forward I I I I #
loop $-1 $-1 $128 $35 #
coedge $-1 $80 $80 $129 $130 reversed $50 $-1 #
face $-1 $131 $132 $28 $-1 $133 reversed single #
loop $-1 $-1 $134 $52 #
plane-surface $-1 -5.3068103233579009 -19.217298535313006 0.54640339365826662 0 -0.68199836817093118 0.7313536940579346 1 0 0 forward_v I I I I #
coedge $-1 $135 $136 $137 $138 reversed $53 $-1 #
face $-1 $-1 $139 $29 $-1 $140 forward single #
loop $-1 $141 $142 $55 #
cone-surface $-1 -9.5419080443545141 -15.40935998025371 0.17546181789965409 0 0.68199836817093118 -0.7313536940579346 0.5 0 0 1 I I -0.70710678118654746 0.70710678118654746 0.5 forward I I I I #
loop $-1 $-1 $143 $37 #
coedge $-1 $89 $89 $144 $145 reversed $56 $-1 #
face $-1 $-1 $146 $30 $-1 $147 forward single #
loop $-1 $148 $149 $58 #
cone-surface $-1 -5.3068103233579009 -15.40935998025371 0.17546181789965409 0 0.68199836817093118 -0.7313536940579346 0.5 0 0 1 I I -0.70710678118654746 0.70710678118654746 0.5 forward I I I I #
loop $-1 $-1 $150 $38 #
coedge $-1 $94 $94 $151 $152 reversed $59 $-1 #
face $-1 $-1 $153 $31 $-1 $154 forward single #
loop $-1 $155 $156 $61 #
cone-surface $-1 -1.0717126023612877 -15.40935998025371 0.17546181789965409 0 0.68199836817093118 -0.7313536940579346 0.5 0 0 1 I I -0.70710678118654746 0.70710678118654746 0.5 forward I I I I #
loop $-1 $-1 $157 $39 #
coedge $-1 $99 $99 $158 $159 reversed $62 $-1 #
face $-1 $160 $161 $24 $-1 $162 reversed single #
loop $-1 $-1 $163 $64 #
plane-surface $-1 0 -19.217298535313002 0 0 1 0 0 0 1 forward_v I I I I #
coedge $-1 $164 $165 $166 $167 forward $65 $-1 #
coedge $-1 $168 $67 $169 $170 forward $41 $-1 #
coedge $-1 $67 $168 $171 $172 forward $41 $-1 #
coedge $-1 $173 $174 $67 $107 reversed $175 $-1 #
edge $-1 $176 -19.217298535313002 $177 19.217298535313002 $106 $178 forward 7 unknown #
face $-1 $179 $180 $25 $-1 $181 reversed single #
loop $-1 $-1 $114 $68 #
plane-surface $-1 -47.769253212073117 0 3.0046388134403514 0 0 1 1 0 0 forward_v I I I I #
coedge $-1 $182 $183 $113 $184 forward $69 $-1 #
coedge $-1 $185 $71 $186 $187 reversed $44 $-1 #
coedge $-1 $71 $185 $111 $184 reversed $44 $-1 #
coedge $-1 $188 $189 $71 $115 reversed $109 $-1 #
edge $-1 $190 -19.217298535313002 $191 19.217298535313002 $114 $192 forward 7 unknown #
face $-1 $193 $194 $26 $-1 $195 forward single #
loop $-1 $-1 $196 $72 #
plane-surface $-1 36.223053925811556 38.324143152551599 97.665244130560964 -1 0 0 0 0.55919291073839883 0.82903756765294845 forward_v I I I I #
coedge $-1 $197 $198 $199 $200 reversed $73 $-1 #
coedge $-1 $121 $75 $201 $202 reversed $47 $-1 #
coedge $-1 $75 $120 $197 $203 reversed $47 $-1 #
coedge $-1 $199 $204 $75 $123 forward $194 $-1 #
edge $-1 $205 -0.055226959037202761 $206 4.9767116509765081 $122 $207 forward 7 unknown #
loop $-1 $-1 $129 $76 #
plane-surface $-1 26.120328864336344 -12.646426333839905 22.098268696117344 0 0.55919291073839883 0.82903756765294845 1 0 0 forward_v I I I I #
loop $-1 $-1 $208 $49 #
coedge $-1 $127 $127 $128 $209 reversed $77 $-1 #
coedge $-1 $128 $128 $127 $209 forward $79 $-1 #
coedge $-1 $129 $129 $80 $130 forward $124 $-1 #
edge $-1 $210 1.2763030371806006e-015 $210 6.2831853071796013 $129 $211 forward 7 unknown #
face $-1 $212 $213 $28 $-1 $214 reversed single #
loop $-1 $-1 $215 $81 #
plane-surface $-1 -12.365306525018923 -81.38161526200399 67.209470049644906 1 0 0 0 0.68199836817093118 -0.7313536940579346 forward_v I I I I #
coedge $-1 $216 $217 $218 $219 reversed $82 $-1 #
coedge $-1 $136 $84 $220 $221 reversed $53 $-1 #
coedge $-1 $84 $135 $216 $222 reversed $53 $-1 #
coedge $-1 $218 $223 $84 $138 forward $224 $-1 #
edge $-1 $225 21.473509095688993 $226 25.177037951055581 $137 $227 forward 7 unknown #
loop $-1 $-1 $144 $85 #
plane-surface $-1 -5.3068103233579009 -19.217298535313006 0.54640339365826662 0 -0.68199836817093118 0.7313536940579346 1 0 0 forward_v I I I I #
loop $-1 $-1 $228 $55 #
coedge $-1 $142 $142 $143 $229 reversed $86 $-1 #
coedge $-1 $143 $143 $142 $229 forward $88 $-1 #
coedge $-1 $144 $144 $89 $145 forward $139 $-1 #
edge $-1 $230 -1.163649899399478e-015 $230 6.2831853071795996 $144 $231 forward 7 unknown #
loop $-1 $-1 $151 $90 #
plane-surface $-1 -5.3068103233579009 -19.217298535313006 0.54640339365826662 0 -0.68199836817093118 0.7313536940579346 1 0 0 forward_v I I I I #
loop $-1 $-1 $232 $58 #
coedge $-1 $149 $149 $150 $233 reversed $91 $-1 #
coedge $-1 $150 $150 $149 $233 forward $93 $-1 #
coedge $-1 $151 $151 $94 $152 forward $146 $-1 #
edge $-1 $234 -1.163649899399478e-015 $234 6.2831853071795996 $151 $235 forward 7 unknown #
loop $-1 $-1 $158 $95 #
plane-surface $-1 -5.3068103233579009 -19.217298535313006 0.54640339365826662 0 -0.68199836817093118 0.7313536940579346 1 0 0 forward_v I I I I #
loop $-1 $-1 $236 $61 #
coedge $-1 $156 $156 $157 $237 reversed $96 $-1 #
coedge $-1 $157 $157 $156 $237 forward $98 $-1 #
coedge $-1 $158 $158 $99 $159 forward $153 $-1 #
edge $-1 $238 -1.163649899399478e-015 $238 6.2831853071795996 $158 $239 forward 7 unknown #
face $-1 $240 $241 $24 $-1 $242 reversed single #
loop $-1 $-1 $243 $100 #
plane-surface $-1 -45.575121311075165 0 0 1 0 0 0 0 -1 forward_v I I I I #
coedge $-1 $244 $171 $245 $246 forward $101 $-1 #
coedge $-1 $247 $103 $244 $248 forward $65 $-1 #
coedge $-1 $103 $247 $249 $250 forward $65 $-1 #
coedge $-1 $174 $173 $103 $167 reversed $175 $-1 #
edge $-1 $251 -19.217298535313002 $252 19.217298535313002 $166 $253 forward 7 unknown #
coedge $-1 $105 $104 $254 $255 forward $41 $-1 #
coedge $-1 $256 $257 $104 $170 reversed $241 $-1 #
edge $-1 $177 -45.575121311075165 $258 45.575121311075165 $169 $259 forward 7 unknown #
coedge $-1 $163 $260 $105 $172 reversed $101 $-1 #
edge $-1 $261 -45.575121311075165 $176 45.575121311075165 $171 $262 forward 7 unknown #
coedge $-1 $166 $106 $260 $263 forward $175 $-1 #
coedge $-1 $106 $166 $256 $264 reversed $175 $-1 #
loop $-1 $-1 $173 $240 #
vertex $-1 $107 $265 #
vertex $-1 $107 $266 #
straight-curve $-1 45.575121311075165 0 4 0 1 0 I I #
face $-1 $267 $268 $25 $-1 $269 reversed single #
loop $-1 $-1 $270 $108 #
plane-surface $-1 -47.769253212073117 0 0.0046388134403514414 0 0 1 1 0 0 forward_v I I I I #
coedge $-1 $271 $111 $272 $273 reversed $69 $-1 #
coedge $-1 $111 $271 $188 $274 reversed $69 $-1 #
edge $-1 $190 -3.0046388134403514 $275 -0.0046388134403514414 $111 $276 forward 7 unknown #
coedge $-1 $113 $112 $270 $277 forward $44 $-1 #
coedge $-1 $278 $279 $112 $187 forward $280 $-1 #
edge $-1 $281 0.0046388134403514414 $191 3.0046388134403514 $186 $282 forward 7 unknown #
coedge $-1 $283 $114 $183 $274 forward $109 $-1 #
coedge $-1 $114 $283 $278 $284 forward $109 $-1 #
vertex $-1 $184 $285 #
vertex $-1 $284 $286 #
straight-curve $-1 -45.575121311075165 0 3.0046388134403514 0 -1 0 I I #
face $-1 $-1 $287 $26 $-1 $288 reversed single #
loop $-1 $-1 $122 $116 #
plane-surface $-1 0 0 4 0 0 1 1 0 0 forward_v I I I I #
coedge $-1 $289 $290 $291 $292 reversed $117 $-1 #
coedge $-1 $293 $119 $121 $203 forward $73 $-1 #
coedge $-1 $119 $293 $289 $294 forward $73 $-1 #
coedge $-1 $291 $122 $119 $200 forward $194 $-1 #
edge $-1 $206 2.9574393706929634 $295 23.162889493643384 $199 $296 forward 7 unknown #
coedge $-1 $297 $298 $120 $202 forward $287 $-1 #
edge $-1 $299 -48.226707578144023 $205 -44.832622065280482 $201 $300 forward 7 unknown #
edge $-1 $206 32.364982367568068 $299 38.434597070625991 $121 $301 forward 7 unknown #
coedge $-1 $122 $291 $297 $302 forward $194 $-1 #
vertex $-1 $202 $303 #
vertex $-1 $123 $304 #
straight-curve $-1 16.017603802861135 19.1620715762758 4 0 -1 0 I I #
coedge $-1 $208 $208 $-1 $305 reversed $126 $-1 #
edge $-1 $306 0 $306 6.2831853071796004 $127 $307 forward 7 unknown #
vertex $-1 $130 $308 #
ellipse-curve $-1 26.120328864336344 16.701329230306147 2.3029572435682306 0 0.55919291073839883 0.82903756765294845 1 0 0 1 I I #
face $-1 $-1 $224 $28 $-1 $309 forward single #
loop $-1 $-1 $310 $131 #
plane-surface $-1 0 -19.217298535313002 0 0 1 0 0 0 1 forward_v I I I I #
coedge $-1 $311 $312 $313 $314 reversed $132 $-1 #
coedge $-1 $315 $134 $136 $222 forward $82 $-1 #
coedge $-1 $134 $315 $311 $316 forward $82 $-1 #
coedge $-1 $313 $137 $134 $219 forward $224 $-1 #
edge $-1 $226 -4.4050910399820715 $317 9.7119013633399724 $218 $318 forward 7 unknown #
coedge $-1 $319 $320 $135 $221 forward $213 $-1 #
edge $-1 $321 -33.058331631164187 $225 -29.604735024822453 $220 $322 forward 7 unknown #
edge $-1 $226 -5.0639367592682403 $321 -4.869801146221358e-015 $136 $323 forward 7 unknown #
coedge $-1 $137 $313 $319 $324 forward $224 $-1 #
loop $-1 $-1 $313 $212 #
vertex $-1 $221 $325 #
vertex $-1 $138 $326 #
straight-curve $-1 1.7516858783031211 -40.690807631001995 4 0 1 0 I I #
coedge $-1 $228 $228 $-1 $327 reversed $141 $-1 #
edge $-1 $328 0 $328 6.2831853071796004 $142 $329 forward 7 unknown #
vertex $-1 $145 $330 #
ellipse-curve $-1 -9.5419080443545141 -17.365534107629706 2.2732016968291355 0 -0.68199836817093118 0.7313536940579346 1 0 0 1 I I #
coedge $-1 $232 $232 $-1 $331 reversed $148 $-1 #
edge $-1 $332 0 $332 6.2831853071796004 $149 $333 forward 7 unknown #
vertex $-1 $152 $334 #
ellipse-curve $-1 -5.3068103233579009 -17.365534107629706 2.2732016968291355 0 -0.68199836817093118 0.7313536940579346 1 0 0 1 I I #
coedge $-1 $236 $236 $-1 $335 reversed $155 $-1 #
edge $-1 $336 0 $336 6.2831853071796004 $156 $337 forward 7 unknown #
vertex $-1 $159 $338 #
ellipse-curve $-1 -1.0717126023612877 -17.365534107629706 2.2732016968291355 0 -0.68199836817093118 0.7313536940579346 1 0 0 1 I I #
face $-1 $-1 $175 $24 $-1 $339 reversed single #
loop $-1 $-1 $256 $160 #
plane-surface $-1 0 19.217298535313002 0 0 -1 0 0 0 -1 forward_v I I I I #
coedge $-1 $340 $254 $257 $341 forward $161 $-1 #
coedge $-1 $260 $163 $164 $248 reversed $101 $-1 #
coedge $-1 $254 $340 $163 $246 reversed $161 $-1 #
edge $-1 $261 -4 $342 4 $245 $343 forward 7 unknown #
coedge $-1 $165 $164 $340 $344 forward $65 $-1 #
edge $-1 $252 -45.575121311075165 $342 45.575121311075165 $244 $345 forward 7 unknown #
coedge $-1 $257 $256 $165 $250 reversed $241 $-1 #
edge $-1 $346 -45.575121311075165 $251 45.575121311075165 $249 $347 forward 7 unknown #
vertex $-1 $167 $348 #
vertex $-1 $263 $349 #
straight-curve $-1 45.575121311075165 0 -4 0 -1 0 I I #
coedge $-1 $243 $245 $168 $255 reversed $161 $-1 #
edge $-1 $258 -19.217298535313002 $261 19.217298535313002 $254 $350 forward 7 unknown #
coedge $-1 $249 $169 $174 $264 forward $241 $-1 #
coedge $-1 $169 $249 $243 $341 reversed $241 $-1 #
vertex $-1 $170 $351 #
straight-curve $-1 0 19.217298535313002 4 -1 0 0 I I #
coedge $-1 $171 $244 $173 $263 reversed $101 $-1 #
vertex $-1 $255 $352 #
straight-curve $-1 0 -19.217298535313002 4 1 0 0 I I #
edge $-1 $176 -4 $252 4 $173 $353 forward 7 unknown #
edge $-1 $177 -4 $251 4 $174 $354 forward 7 unknown #
point $-1 45.575121311075165 -19.217298535313002 4 #
point $-1 45.575121311075165 19.217298535313002 4 #
face $-1 $-1 $280 $25 $-1 $355 reversed single #
loop $-1 $-1 $356 $179 #
plane-surface $-1 -49.96338511307107 0 1.5046388134403514 1 0 0 0 0 -1 forward_v I I I I #
coedge $-1 $357 $272 $185 $277 reversed $180 $-1 #
coedge $-1 $183 $182 $356 $358 reversed $69 $-1 #
coedge $-1 $270 $359 $182 $273 forward $180 $-1 #
edge $-1 $360 -2.1941319009979523 $275 2.1941319009979523 $182 $361 forward 7 unknown #
edge $-1 $190 -2.1941319009979523 $362 2.1941319009979523 $183 $363 forward 7 unknown #
vertex $-1 $184 $364 #
straight-curve $-1 -45.575121311075165 19.217298535313002 0 0 0 -1 I I #
edge $-1 $281 -19.217298535313002 $275 19.217298535313002 $270 $365 forward 7 unknown #
coedge $-1 $366 $186 $189 $284 reversed $280 $-1 #
coedge $-1 $186 $366 $357 $367 reversed $280 $-1 #
loop $-1 $-1 $186 $267 #
vertex $-1 $187 $368 #
straight-curve $-1 -45.575121311075165 -19.217298535313002 0 0 0 1 I I #
coedge $-1 $189 $188 $369 $370 forward $109 $-1 #
edge $-1 $371 -2.1941319009979523 $191 2.1941319009979523 $278 $372 forward 7 unknown #
point $-1 -45.575121311075165 19.217298535313002 3.0046388134403514 #
point $-1 -45.575121311075165 -19.217298535313002 3.0046388134403514 #
loop $-1 $-1 $201 $193 #
plane-surface $-1 0 19.217298535313002 0 0 -1 0 0 0 -1 forward_v I I I I #
coedge $-1 $290 $196 $198 $294 reversed $117 $-1 #
coedge $-1 $196 $289 $373 $374 reversed $117 $-1 #
coedge $-1 $204 $199 $196 $292 forward $194 $-1 #
edge $-1 $295 -4.9767116509765081 $375 0.055226959037202761 $291 $376 forward 7 unknown #
coedge $-1 $198 $197 $298 $377 reversed $73 $-1 #
edge $-1 $378 -38.434597070625991 $295 -32.364982367568068 $289 $379 forward 7 unknown #
vertex $-1 $200 $380 #
straight-curve $-1 13.060164432168172 14.185359925299297 4 1 0 0 I I #
coedge $-1 $373 $201 $204 $302 reversed $287 $-1 #
coedge $-1 $201 $373 $293 $377 forward $287 $-1 #
vertex $-1 $202 $381 #
straight-curve $-1 16.017603802861135 19.217298535313002 48.832622065280482 0 0 1 I I #
straight-curve $-1 16.017603802861135 -12.646426333839905 22.098268696117344 0 0.82903756765294845 -0.55919291073839883 I I #
edge $-1 $375 -36.223053925811556 $205 -16.017603802861135 $297 $382 forward 7 unknown #
point $-1 16.017603802861135 19.217298535313002 4 #
point $-1 16.017603802861135 14.185359925299291 4 #
edge $-1 $383 1 $383 0 $208 $-1 forward 7 unknown #
vertex $-1 $209 $384 #
ellipse-curve $-1 26.120328864336344 14.970744327835705 -0.26274033701536836 0 0.55919291073839883 0.82903756765294845 1 0 0 1 I I #
point $-1 27.120328864336344 16.701329230306143 2.3029572435682231 #
plane-surface $-1 0 0 4 0 0 1 1 0 0 forward_v I I I I #
coedge $-1 $320 $319 $312 $385 forward $213 $-1 #
coedge $-1 $312 $215 $217 $316 reversed $132 $-1 #
coedge $-1 $215 $311 $310 $385 reversed $132 $-1 #
coedge $-1 $223 $218 $215 $314 forward $224 $-1 #
edge $-1 $317 -25.177037951055581 $386 -21.473509095688993 $313 $387 forward 7 unknown #
coedge $-1 $217 $216 $320 $388 reversed $82 $-1 #
edge $-1 $389 4.869801146221358e-015 $317 5.0639367592682403 $311 $390 forward 7 unknown #
vertex $-1 $219 $391 #
straight-curve $-1 -2.6534051616789505 -15.513769679946414 4 -1 0 0 I I #
coedge $-1 $310 $220 $223 $324 reversed $213 $-1 #
coedge $-1 $220 $310 $315 $388 forward $213 $-1 #
vertex $-1 $221 $392 #
straight-curve $-1 1.7516858783031211 -19.217298535313002 33.604735024822453 0 0 1 I I #
straight-curve $-1 1.7516858783031211 -19.217298535313006 0.54640339365826662 0 -0.7313536940579346 -0.68199836817093118 I I #
edge $-1 $386 -12.365306525018923 $225 1.7516858783031211 $319 $393 forward 7 unknown #
point $-1 1.7516858783031211 -19.217298535313002 4 #
point $-1 1.7516858783031211 -15.513769679946412 4 #
edge $-1 $394 1 $394 0 $228 $-1 forward 7 unknown #
vertex $-1 $229 $395 #
ellipse-curve $-1 -9.5419080443545141 -15.750359164339175 0.54113866492862139 0 -0.68199836817093118 0.7313536940579346 1 0 0 1 I I #
point $-1 -8.5419080443545141 -17.365534107629699 2.2732016968291262 #
edge $-1 $396 1 $396 0 $232 $-1 forward 7 unknown #
vertex $-1 $233 $397 #
ellipse-curve $-1 -5.3068103233579009 -15.750359164339175 0.54113866492862139 0 -0.68199836817093118 0.7313536940579346 1 0 0 1 I I #
point $-1 -4.3068103233579009 -17.365534107629699 2.2732016968291262 #
edge $-1 $398 1 $398 0 $236 $-1 forward 7 unknown #
vertex $-1 $237 $399 #
ellipse-curve $-1 -1.0717126023612877 -15.750359164339175 0.54113866492862139 0 -0.68199836817093118 0.7313536940579346 1 0 0 1 I I #
point $-1 -0.071712602361287736 -17.365534107629699 2.2732016968291262 #
plane-surface $-1 45.575121311075165 0 0 -1 0 0 0 0 1 forward_v I I I I #
coedge $-1 $245 $243 $247 $344 reversed $161 $-1 #
edge $-1 $258 -4 $346 4 $257 $400 forward 7 unknown #
vertex $-1 $344 $401 #
straight-curve $-1 -45.575121311075165 -19.217298535313002 0 0 0 -1 I I #
edge $-1 $342 -19.217298535313002 $346 19.217298535313002 $340 $402 forward 7 unknown #
straight-curve $-1 0 -19.217298535313002 -4 -1 0 0 I I #
vertex $-1 $250 $403 #
straight-curve $-1 0 19.217298535313002 -4 1 0 0 I I #
point $-1 45.575121311075165 19.217298535313002 -4 #
point $-1 45.575121311075165 -19.217298535313002 -4 #
straight-curve $-1 -45.575121311075165 0 4 0 -1 0 I I #
point $-1 -45.575121311075165 19.217298535313002 4 #
point $-1 -45.575121311075165 -19.217298535313002 4 #
straight-curve $-1 45.575121311075165 -19.217298535313002 0 0 0 -1 I I #
straight-curve $-1 45.575121311075165 19.217298535313002 0 0 0 -1 I I #
plane-surface $-1 0 -19.217298535313002 0 0 1 0 0 0 1 forward_v I I I I #
coedge $-1 $404 $369 $271 $358 forward $268 $-1 #
coedge $-1 $359 $270 $279 $367 forward $180 $-1 #
edge $-1 $362 -1.5 $360 1.5 $271 $405 forward 7 unknown #
coedge $-1 $272 $357 $404 $406 forward $180 $-1 #
vertex $-1 $273 $407 #
straight-curve $-1 -47.769253212073117 19.217298535313002 0.0046388134403514414 1 0 0 I I #
vertex $-1 $274 $408 #
straight-curve $-1 -47.769253212073117 19.217298535313002 3.0046388134403514 -1 0 0 I I #
point $-1 -45.575121311075165 19.217298535313002 0.0046388134403514414 #
straight-curve $-1 -45.575121311075165 0 0.0046388134403514414 0 1 0 I I #
coedge $-1 $279 $278 $409 $410 forward $280 $-1 #
edge $-1 $281 -2.1941319009979523 $411 2.1941319009979523 $279 $412 forward 7 unknown #
point $-1 -45.575121311075165 -19.217298535313002 0.0046388134403514414 #
coedge $-1 $356 $409 $283 $370 reversed $268 $-1 #
edge $-1 $362 -19.217298535313002 $371 19.217298535313002 $369 $413 forward 7 unknown #
vertex $-1 $370 $414 #
straight-curve $-1 -47.769253212073117 -19.217298535313002 3.0046388134403514 1 0 0 I I #
coedge $-1 $298 $297 $290 $374 forward $287 $-1 #
edge $-1 $375 44.832622065280482 $378 48.226707578144023 $373 $415 forward 7 unknown #
vertex $-1 $302 $416 #
straight-curve $-1 36.223053925811556 19.1620715762758 4 0 1 0 I I #
edge $-1 $378 -23.162889493643384 $299 -2.9574393706929634 $298 $417 forward 7 unknown #
vertex $-1 $377 $418 #
straight-curve $-1 36.223053925811556 -12.646426333839905 22.098268696117344 0 -0.82903756765294845 0.55919291073839883 I I #
point $-1 36.223053925811556 14.185359925299291 4 #
point $-1 16.017603802861135 19.217298535313002 0.60591448713645946 #
straight-curve $-1 0 19.217298535313002 4 -1 0 0 I I #
vertex $-1 $305 $419 #
point $-1 27.120328864336344 14.970744327835705 -0.26274033701536836 #
edge $-1 $386 29.604735024822453 $389 33.058331631164187 $310 $420 forward 7 unknown #
vertex $-1 $324 $421 #
straight-curve $-1 -12.365306525018923 -40.690807631001995 4 0 -1 0 I I #
edge $-1 $389 -9.7119013633399724 $321 4.4050910399820715 $320 $422 forward 7 unknown #
vertex $-1 $388 $423 #
straight-curve $-1 -12.365306525018923 -19.217298535313006 0.54640339365826662 0 0.7313536940579346 0.68199836817093118 I I #
point $-1 -12.365306525018923 -15.513769679946412 4 #
point $-1 1.7516858783031211 -19.217298535313002 0.54640339365826995 #
straight-curve $-1 0 -19.217298535313002 4 1 0 0 I I #
vertex $-1 $327 $424 #
point $-1 -8.5419080443545141 -15.750359164339175 0.54113866492862139 #
vertex $-1 $331 $425 #
point $-1 -4.3068103233579009 -15.750359164339175 0.54113866492862139 #
vertex $-1 $335 $426 #
point $-1 -0.071712602361287736 -15.750359164339175 0.54113866492862139 #
straight-curve $-1 -45.575121311075165 19.217298535313002 0 0 0 -1 I I #
point $-1 -45.575121311075165 -19.217298535313002 -4 #
straight-curve $-1 -45.575121311075165 0 -4 0 1 0 I I #
point $-1 -45.575121311075165 19.217298535313002 -4 #
coedge $-1 $409 $356 $359 $406 reversed $268 $-1 #
straight-curve $-1 -49.96338511307107 19.217298535313002 1.5046388134403514 0 0 -1 I I #
edge $-1 $411 -19.217298535313002 $360 19.217298535313002 $404 $427 forward 7 unknown #
point $-1 -49.96338511307107 19.217298535313002 0.0046388134403514414 #
point $-1 -49.96338511307107 19.217298535313002 3.0046388134403514 #
coedge $-1 $369 $404 $366 $410 reversed $268 $-1 #
edge $-1 $371 -1.5 $411 1.5 $409 $428 forward 7 unknown #
vertex $-1 $406 $429 #
straight-curve $-1 -47.769253212073117 -19.217298535313002 0.0046388134403514414 -1 0 0 I I #
straight-curve $-1 -49.96338511307107 0 3.0046388134403514 0 -1 0 I I #
point $-1 -49.96338511307107 -19.217298535313002 3.0046388134403514 #
straight-curve $-1 36.223053925811556 19.217298535313002 48.832622065280482 0 0 -1 I I #
point $-1 36.223053925811556 19.217298535313002 4 #
straight-curve $-1 13.060164432168172 19.217298535313006 0.60591448713646123 -1 0 0 I I #
point $-1 36.223053925811556 19.217298535313002 0.60591448713645946 #
point $-1 26.120328864336344 14.411551417097305 -1.0917779046683167 #
straight-curve $-1 -12.365306525018923 -19.217298535313002 33.604735024822453 0 0 -1 I I #
point $-1 -12.365306525018923 -19.217298535313002 4 #
straight-curve $-1 -2.6534051616789505 -19.217298535313002 0.5464033936582724 1 0 0 I I #
point $-1 -12.365306525018923 -19.217298535313002 0.54640339365826995 #
point $-1 -9.5419080443545141 -15.068360796168244 -0.19021502912931321 #
point $-1 -5.3068103233579009 -15.068360796168244 -0.19021502912931321 #
point $-1 -1.0717126023612877 -15.068360796168244 -0.19021502912931321 #
straight-curve $-1 -49.96338511307107 0 0.0046388134403514414 0 1 0 I I #
straight-curve $-1 -49.96338511307107 -19.217298535313002 1.5046388134403514 0 0 -1 I I #
point $-1 -49.96338511307107 -19.217298535313002 0.0046388134403514414 #
End-of-ACIS-data 