500 0 7 0           
7 Unknown 11 ACIS 5.0 NT 24 Thu Mar 25 23:07:10 1999 
-1 9.9999999999999995e-007 1e-010 
body $-1 $7 $-1 $8 #
body $-1 $9 $-1 $10 #
body $-1 $11 $-1 $12 #
body $-1 $13 $-1 $14 #
body $-1 $15 $-1 $16 #
body $-1 $17 $-1 $18 #
body $-1 $19 $-1 $20 #
lump $-1 $-1 $21 $0 #
transform $-1 1 0 0 0 1 0 0 0 1 60.651264992217776 25.130654612043873 10.252742606424906 1 rotate no_reflect no_shear #
lump $-1 $-1 $22 $1 #
transform $-1 1 0 0 0 1 0 0 0 1 60.651264992217776 25.130654612043873 10.252742606424906 1 rotate no_reflect no_shear #
lump $-1 $-1 $23 $2 #
transform $-1 1 0 0 0 1 0 0 0 1 60.651264992217776 25.130654612043873 10.252742606424906 1 rotate no_reflect no_shear #
lump $-1 $-1 $24 $3 #
transform $-1 1 0 0 0 1 0 0 0 1 60.651264992217776 25.130654612043873 10.252742606424906 1 rotate no_reflect no_shear #
lump $-1 $-1 $25 $4 #
transform $-1 1 0 0 0 1 0 0 0 1 60.651264992217776 25.130654612043873 10.252742606424906 1 rotate no_reflect no_shear #
lump $-1 $-1 $26 $5 #
transform $-1 1 0 0 0 1 0 0 0 1 60.651264992217776 25.130654612043873 10.252742606424906 1 rotate no_reflect no_shear #
lump $-1 $-1 $27 $6 #
transform $-1 1 0 0 0 1 0 0 0 1 60.651264992217776 25.130654612043873 10.252742606424906 1 rotate no_reflect no_shear #
shell $-1 $-1 $-1 $28 $-1 $7 #
shell $-1 $-1 $-1 $29 $-1 $9 #
shell $-1 $-1 $-1 $30 $-1 $11 #
shell $-1 $-1 $-1 $31 $-1 $13 #
shell $-1 $-1 $-1 $32 $-1 $15 #
shell $-1 $-1 $-1 $33 $-1 $17 #
shell $-1 $-1 $-1 $34 $-1 $19 #
face $-1 $35 $36 $21 $-1 $37 forward single #
face $-1 $38 $39 $22 $-1 $40 forward single #
face $-1 $41 $42 $23 $-1 $43 reversed single #
face $-1 $44 $45 $24 $-1 $46 forward single #
face $-1 $47 $48 $25 $-1 $49 reversed single #
face $-1 $50 $51 $26 $-1 $52 forward single #
face $-1 $53 $54 $27 $-1 $55 forward single #
face $-1 $56 $57 $21 $-1 $58 reversed single #
loop $-1 $-1 $59 $28 #
plane-surface $-1 0 0 10.252742606424906 0 0 1 1 0 0 forward_v I I I I #
face $-1 $60 $61 $22 $-1 $62 reversed single #
loop $-1 $-1 $63 $29 #
plane-surface $-1 0 -25.130654612043873 0 0 1 0 0 0 1 forward_v I I I I #
face $-1 $64 $65 $23 $-1 $66 reversed single #
loop $-1 $-1 $67 $30 #
plane-surface $-1 -164.62782813770417 14.300522782040385 62.712478182619364 0 1 0 -0.85716730853699208 0 0.51503806187062418 forward_v I I I I #
face $-1 $68 $69 $24 $-1 $70 forward single #
loop $-1 $71 $72 $31 #
cone-surface $-1 -56.041918288741336 18.626358366030114 4.2833241885160591 0.85716730853699208 0 -0.51503806187062418 0.77255709280593621 0 1.2857509628054882 1 I I 0 1 1.5 forward I I I I #
face $-1 $73 $74 $25 $-1 $75 reversed single #
loop $-1 $-1 $76 $32 #
plane-surface $-1 54.66433909391796 -6.1155473949339898 173.66811967717828 0 -1 0 -0.68199836817093118 0 -0.7313536940579346 forward_v I I I I #
face $-1 $77 $78 $26 $-1 $79 forward single #
loop $-1 $80 $81 $33 #
cone-surface $-1 55.997235041806498 -11.564106445044985 5.8638899540932883 -0.68199836817093118 0 -0.7313536940579346 0.7313536940579346 0 -0.68199836817093118 1 I I 0 1 1 forward I I I I #
face $-1 $82 $83 $27 $-1 $84 forward single #
loop $-1 $85 $86 $34 #
cone-surface $-1 55.997235041806498 -8.2949710149783904 5.8638899540932883 -0.68199836817093118 0 -0.7313536940579346 0.7313536940579346 0 -0.68199836817093118 1 I I 0 1 1 forward I I I I #
face $-1 $87 $88 $21 $-1 $89 reversed single #
loop $-1 $-1 $90 $35 #
plane-surface $-1 0 0 -10.252742606424906 0 0 1 1 0 0 forward_v I I I I #
coedge $-1 $91 $92 $93 $94 forward $36 $-1 #
face $-1 $95 $96 $22 $-1 $97 reversed single #
loop $-1 $-1 $98 $38 #
plane-surface $-1 0 0 -10.252742606424906 0 0 1 1 0 0 forward_v I I I I #
coedge $-1 $99 $100 $101 $102 forward $39 $-1 #
face $-1 $103 $104 $23 $-1 $105 reversed single #
loop $-1 $-1 $106 $41 #
plane-surface $-1 -60.651264992217776 18.626358366030114 0.23705823943240034 -0.85716730853699208 0 0.51503806187062418 0.51503806187062418 0 0.85716730853699208 forward_v I I I I #
coedge $-1 $107 $108 $109 $110 reversed $42 $-1 #
face $-1 $-1 $111 $24 $-1 $112 forward single #
loop $-1 $113 $114 $44 #
cone-surface $-1 -53.79871115454587 18.626358366030114 2.9354694077005021 0.85716730853699208 0 -0.51503806187062418 0.3862785464029681 0 0.64287548140274409 1 I I -0.70710678118654757 0.70710678118654757 0.75 forward I I I I #
loop $-1 $-1 $115 $31 #
coedge $-1 $72 $72 $116 $117 reversed $45 $-1 #
face $-1 $118 $119 $25 $-1 $120 reversed single #
loop $-1 $-1 $121 $47 #
plane-surface $-1 -28.06378841047254 -9.9295387300116857 84.953066274487966 0.68199836817093118 0 0.7313536940579346 0.7313536940579346 0 -0.68199836817093118 forward_v I I I I #
coedge $-1 $122 $123 $124 $125 reversed $48 $-1 #
face $-1 $-1 $126 $26 $-1 $127 forward single #
loop $-1 $128 $129 $50 #
cone-surface $-1 55.306588633779157 -11.564106445044985 5.1232623728964306 -0.68199836817093118 0 -0.7313536940579346 0.3656768470289673 0 -0.34099918408546559 1 I I -0.70710678118654691 0.70710678118654813 0.5 forward I I I I #
loop $-1 $-1 $130 $33 #
coedge $-1 $81 $81 $131 $132 reversed $51 $-1 #
face $-1 $-1 $133 $27 $-1 $134 forward single #
loop $-1 $135 $136 $53 #
cone-surface $-1 55.306588633779157 -8.2949710149783904 5.1232623728964306 -0.68199836817093118 0 -0.7313536940579346 0.3656768470289673 0 -0.34099918408546559 1 I I -0.70710678118654691 0.70710678118654813 0.5 forward I I I I #
loop $-1 $-1 $137 $34 #
coedge $-1 $86 $86 $138 $139 reversed $54 $-1 #
face $-1 $140 $141 $21 $-1 $142 reversed single #
loop $-1 $-1 $143 $56 #
plane-surface $-1 0 -25.130654612043873 0 0 1 0 0 0 1 forward_v I I I I #
coedge $-1 $144 $145 $146 $147 forward $57 $-1 #
coedge $-1 $148 $59 $149 $150 forward $36 $-1 #
coedge $-1 $59 $148 $151 $152 forward $36 $-1 #
coedge $-1 $153 $154 $59 $94 reversed $155 $-1 #
edge $-1 $156 -25.130654612043873 $157 25.130654612043873 $93 $158 forward 7 unknown #
face $-1 $159 $160 $22 $-1 $161 forward single #
loop $-1 $-1 $162 $60 #
plane-surface $-1 60.651264992217776 0 0 -1 0 0 0 0 1 forward_v I I I I #
coedge $-1 $163 $164 $165 $166 forward $61 $-1 #
coedge $-1 $165 $63 $162 $167 reversed $39 $-1 #
coedge $-1 $63 $165 $168 $169 reversed $39 $-1 #
coedge $-1 $170 $171 $63 $102 reversed $160 $-1 #
edge $-1 $172 -60.651264992217776 $173 60.651264992217776 $101 $174 forward 7 unknown #
face $-1 $175 $176 $23 $-1 $177 forward single #
loop $-1 $-1 $178 $64 #
plane-surface $-1 -164.62782813770417 22.952193950019844 62.712478182619364 0 -1 0 0.85716730853699208 0 -0.51503806187062418 forward_v I I I I #
coedge $-1 $179 $180 $181 $182 reversed $65 $-1 #
coedge $-1 $108 $67 $183 $184 reversed $42 $-1 #
coedge $-1 $67 $107 $179 $185 reversed $42 $-1 #
coedge $-1 $181 $186 $67 $110 forward $176 $-1 #
edge $-1 $187 21.66264907663431 $188 27.680679178001753 $109 $189 forward 7 unknown #
loop $-1 $-1 $116 $68 #
plane-surface $-1 -60.651264992217776 18.626358366030114 0.23705823943240034 -0.85716730853699208 0 0.51503806187062418 0.51503806187062418 0 0.85716730853699208 forward_v I I I I #
loop $-1 $-1 $190 $44 #
coedge $-1 $114 $114 $115 $191 reversed $69 $-1 #
coedge $-1 $115 $115 $114 $191 forward $71 $-1 #
coedge $-1 $116 $116 $72 $117 forward $111 $-1 #
edge $-1 $192 0 $192 6.2831853071796004 $116 $193 forward 7 unknown #
face $-1 $194 $195 $25 $-1 $196 reversed single #
loop $-1 $-1 $197 $73 #
plane-surface $-1 54.66433909391796 -13.743530065089381 173.66811967717828 0 1 0 0.68199836817093118 0 0.7313536940579346 forward_v I I I I #
coedge $-1 $198 $199 $200 $201 reversed $74 $-1 #
coedge $-1 $123 $76 $202 $203 reversed $48 $-1 #
coedge $-1 $76 $122 $198 $204 reversed $48 $-1 #
coedge $-1 $200 $205 $76 $125 forward $206 $-1 #
edge $-1 $207 -33.319095445258796 $208 -24.710329992320027 $124 $209 forward 7 unknown #
loop $-1 $-1 $131 $77 #
plane-surface $-1 -28.06378841047254 -9.9295387300116857 84.953066274487966 0.68199836817093118 0 0.7313536940579346 0.7313536940579346 0 -0.68199836817093118 forward_v I I I I #
loop $-1 $-1 $210 $50 #
coedge $-1 $129 $129 $130 $211 reversed $78 $-1 #
coedge $-1 $130 $130 $129 $211 forward $80 $-1 #
coedge $-1 $131 $131 $81 $132 forward $126 $-1 #
edge $-1 $212 0 $212 6.2831853071796004 $131 $213 forward 7 unknown #
loop $-1 $-1 $138 $82 #
plane-surface $-1 -28.06378841047254 -9.9295387300116857 84.953066274487966 0.68199836817093118 0 0.7313536940579346 0.7313536940579346 0 -0.68199836817093118 forward_v I I I I #
loop $-1 $-1 $214 $53 #
coedge $-1 $136 $136 $137 $215 reversed $83 $-1 #
coedge $-1 $137 $137 $136 $215 forward $85 $-1 #
coedge $-1 $138 $138 $86 $139 forward $133 $-1 #
edge $-1 $216 0 $216 6.2831853071796004 $138 $217 forward 7 unknown #
face $-1 $218 $219 $21 $-1 $220 reversed single #
loop $-1 $-1 $221 $87 #
plane-surface $-1 -60.651264992217776 0 0 1 0 0 0 0 -1 forward_v I I I I #
coedge $-1 $151 $222 $153 $223 reversed $88 $-1 #
coedge $-1 $224 $90 $222 $225 forward $57 $-1 #
coedge $-1 $90 $224 $226 $227 forward $57 $-1 #
coedge $-1 $154 $153 $90 $147 reversed $155 $-1 #
edge $-1 $228 -25.130654612043873 $229 25.130654612043873 $146 $230 forward 7 unknown #
coedge $-1 $92 $91 $231 $232 forward $36 $-1 #
coedge $-1 $233 $234 $91 $150 reversed $219 $-1 #
edge $-1 $157 -60.651264992217776 $235 60.651264992217776 $149 $236 forward 7 unknown #
coedge $-1 $237 $143 $92 $152 reversed $88 $-1 #
edge $-1 $238 -60.651264992217776 $156 60.651264992217776 $151 $239 forward 7 unknown #
coedge $-1 $146 $93 $143 $223 forward $155 $-1 #
coedge $-1 $93 $146 $233 $240 reversed $155 $-1 #
loop $-1 $-1 $153 $218 #
vertex $-1 $94 $241 #
vertex $-1 $94 $242 #
straight-curve $-1 60.651264992217776 0 10.252742606424906 0 1 0 I I #
face $-1 $243 $244 $22 $-1 $245 reversed single #
loop $-1 $-1 $171 $95 #
plane-surface $-1 0 -30.824216885521118 -5.203125286224509 0 0 1 1 0 0 forward_v I I I I #
coedge $-1 $246 $247 $99 $167 forward $96 $-1 #
coedge $-1 $248 $98 $247 $249 forward $61 $-1 #
coedge $-1 $98 $248 $250 $251 forward $61 $-1 #
coedge $-1 $100 $99 $98 $166 reversed $39 $-1 #
edge $-1 $252 -60.651264992217776 $253 60.651264992217776 $98 $254 forward 7 unknown #
edge $-1 $253 -10.252742606424906 $173 -5.203125286224509 $162 $255 forward 7 unknown #
coedge $-1 $250 $256 $100 $169 forward $257 $-1 #
edge $-1 $172 5.203125286224509 $252 10.252742606424906 $168 $258 forward 7 unknown #
coedge $-1 $259 $101 $256 $260 forward $160 $-1 #
coedge $-1 $101 $259 $246 $261 forward $160 $-1 #
vertex $-1 $169 $262 #
vertex $-1 $261 $263 #
straight-curve $-1 0 -25.130654612043873 -5.203125286224509 1 0 0 I I #
face $-1 $-1 $264 $23 $-1 $265 reversed single #
loop $-1 $-1 $109 $103 #
plane-surface $-1 0 0 10.252742606424906 0 0 1 1 0 0 forward_v I I I I #
coedge $-1 $266 $267 $268 $269 reversed $104 $-1 #
coedge $-1 $270 $106 $108 $185 forward $65 $-1 #
coedge $-1 $106 $270 $266 $271 forward $65 $-1 #
coedge $-1 $268 $109 $106 $182 forward $176 $-1 #
edge $-1 $188 4.9873435990253281 $272 13.639014767004786 $181 $273 forward 7 unknown #
coedge $-1 $274 $275 $107 $184 forward $264 $-1 #
edge $-1 $276 -31.119180851877282 $187 -21.103496484884776 $183 $277 forward 7 unknown #
edge $-1 $188 -11.684631771698362 $276 0 $108 $278 forward 7 unknown #
coedge $-1 $109 $268 $274 $279 forward $176 $-1 #
vertex $-1 $184 $280 #
vertex $-1 $110 $281 #
straight-curve $-1 -82.313914068852085 14.300522782040385 10.252742606424906 1 0 0 I I #
coedge $-1 $190 $190 $-1 $282 reversed $113 $-1 #
edge $-1 $283 0 $283 6.2831853071796004 $114 $284 forward 7 unknown #
vertex $-1 $117 $285 #
ellipse-curve $-1 -57.642249941534061 18.626358366030114 5.2449004229286498 -0.85716730853699208 0 0.51503806187062418 0.77255709280593621 0 1.2857509628054882 1 I I #
face $-1 $-1 $206 $25 $-1 $286 forward single #
loop $-1 $-1 $287 $118 #
plane-surface $-1 60.651264992217776 0 0 -1 0 0 0 0 1 forward_v I I I I #
coedge $-1 $288 $289 $290 $291 reversed $119 $-1 #
coedge $-1 $292 $121 $123 $204 forward $74 $-1 #
coedge $-1 $121 $292 $288 $293 forward $74 $-1 #
coedge $-1 $290 $124 $121 $201 forward $206 $-1 #
edge $-1 $208 1.1507780299281469 $294 8.7787607000835379 $200 $295 forward 7 unknown #
coedge $-1 $296 $297 $122 $203 forward $195 $-1 #
edge $-1 $298 -84.609121068491675 $207 -76.581317232164238 $202 $299 forward 7 unknown #
edge $-1 $208 109.5315284527788 $298 121.30252998443555 $123 $300 forward 7 unknown #
coedge $-1 $124 $290 $296 $301 forward $206 $-1 #
loop $-1 $-1 $290 $194 #
vertex $-1 $203 $302 #
vertex $-1 $125 $303 #
straight-curve $-1 27.33216954695898 -6.1155473949339898 10.252742606424903 -1 0 0 I I #
coedge $-1 $210 $210 $-1 $304 reversed $128 $-1 #
edge $-1 $305 0 $305 6.2831853071796004 $129 $306 forward 7 unknown #
vertex $-1 $132 $307 #
ellipse-curve $-1 56.346882265748377 -11.564106445044985 6.2388406882611829 0.68199836817093118 0 0.7313536940579346 0.7313536940579346 0 -0.68199836817093118 1 I I #
coedge $-1 $214 $214 $-1 $308 reversed $135 $-1 #
edge $-1 $309 0 $309 6.2831853071796004 $136 $310 forward 7 unknown #
vertex $-1 $139 $311 #
ellipse-curve $-1 56.346882265748377 -8.2949710149783904 6.2388406882611829 0.68199836817093118 0 0.7313536940579346 0.7313536940579346 0 -0.68199836817093118 1 I I #
face $-1 $-1 $155 $21 $-1 $312 reversed single #
loop $-1 $-1 $233 $140 #
plane-surface $-1 0 25.130654612043873 0 0 -1 0 0 0 -1 forward_v I I I I #
coedge $-1 $313 $231 $234 $314 forward $141 $-1 #
coedge $-1 $143 $237 $144 $225 reversed $88 $-1 #
edge $-1 $156 -10.252742606424906 $229 10.252742606424906 $153 $315 forward 7 unknown #
coedge $-1 $145 $144 $313 $316 forward $57 $-1 #
edge $-1 $229 -60.651264992217776 $317 60.651264992217776 $222 $318 forward 7 unknown #
coedge $-1 $234 $233 $145 $227 reversed $219 $-1 #
edge $-1 $319 -60.651264992217776 $228 60.651264992217776 $226 $320 forward 7 unknown #
vertex $-1 $147 $321 #
vertex $-1 $223 $322 #
straight-curve $-1 60.651264992217776 0 -10.252742606424906 0 -1 0 I I #
coedge $-1 $221 $323 $148 $232 reversed $141 $-1 #
edge $-1 $235 -25.130654612043873 $238 25.130654612043873 $231 $324 forward 7 unknown #
coedge $-1 $226 $149 $154 $240 forward $219 $-1 #
coedge $-1 $149 $226 $221 $314 reversed $219 $-1 #
vertex $-1 $150 $325 #
straight-curve $-1 0 25.130654612043873 10.252742606424906 -1 0 0 I I #
coedge $-1 $222 $151 $323 $326 forward $88 $-1 #
vertex $-1 $232 $327 #
straight-curve $-1 0 -25.130654612043873 10.252742606424906 1 0 0 I I #
edge $-1 $157 -10.252742606424906 $228 10.252742606424906 $154 $328 forward 7 unknown #
point $-1 60.651264992217776 -25.130654612043873 10.252742606424906 #
point $-1 60.651264992217776 25.130654612043873 10.252742606424906 #
face $-1 $-1 $257 $22 $-1 $329 reversed single #
loop $-1 $-1 $330 $159 #
plane-surface $-1 0 -36.517779158998366 -7.7279339463247076 0 1 0 0 0 1 forward_v I I I I #
coedge $-1 $331 $162 $171 $261 reversed $96 $-1 #
coedge $-1 $162 $331 $163 $249 reversed $96 $-1 #
coedge $-1 $164 $163 $332 $333 forward $61 $-1 #
edge $-1 $253 25.130654612043873 $334 36.517779158998366 $247 $335 forward 7 unknown #
coedge $-1 $336 $168 $164 $251 reversed $257 $-1 #
edge $-1 $337 -36.517779158998366 $252 -25.130654612043873 $250 $338 forward 7 unknown #
vertex $-1 $169 $339 #
vertex $-1 $249 $340 #
straight-curve $-1 0 -25.130654612043873 -10.252742606424906 1 0 0 I I #
straight-curve $-1 60.651264992217776 -25.130654612043873 0 0 0 1 I I #
coedge $-1 $168 $336 $170 $260 reversed $257 $-1 #
loop $-1 $-1 $168 $243 #
straight-curve $-1 -60.651264992217776 -25.130654612043873 0 0 0 -1 I I #
coedge $-1 $171 $170 $341 $342 forward $160 $-1 #
edge $-1 $172 -5.6935622734772444 $343 5.693562273477248 $256 $344 forward 7 unknown #
edge $-1 $345 -5.693562273477248 $173 5.6935622734772444 $246 $346 forward 7 unknown #
point $-1 -60.651264992217776 -25.130654612043873 -5.203125286224509 #
point $-1 60.651264992217776 -25.130654612043873 -5.203125286224509 #
loop $-1 $-1 $183 $175 #
plane-surface $-1 -60.651264992217776 0 0 1 0 0 0 0 -1 forward_v I I I I #
coedge $-1 $267 $178 $180 $271 reversed $104 $-1 #
coedge $-1 $178 $266 $347 $348 reversed $104 $-1 #
coedge $-1 $186 $181 $178 $269 forward $176 $-1 #
edge $-1 $272 -27.680679178001753 $349 -21.66264907663431 $268 $350 forward 7 unknown #
coedge $-1 $180 $179 $275 $351 reversed $65 $-1 #
edge $-1 $352 0 $272 11.684631771698362 $266 $353 forward 7 unknown #
vertex $-1 $182 $354 #
straight-curve $-1 -54.633234890850332 9.3131791830150572 10.252742606424906 0 1 0 I I #
coedge $-1 $347 $183 $186 $279 reversed $264 $-1 #
coedge $-1 $183 $347 $270 $351 forward $264 $-1 #
vertex $-1 $184 $355 #
straight-curve $-1 -60.651264992217776 14.300522782040385 31.356239091309682 0 0 1 I I #
straight-curve $-1 -60.651264992217776 14.300522782040385 0.23705823943240034 -0.51503806187062418 0 -0.85716730853699208 I I #
edge $-1 $349 -22.952193950019844 $187 -14.300522782040385 $274 $356 forward 7 unknown #
point $-1 -60.651264992217776 14.300522782040385 10.252742606424906 #
point $-1 -54.633234890850332 14.300522782040385 10.252742606424906 #
edge $-1 $357 1 $357 0 $190 $-1 forward 7 unknown #
vertex $-1 $191 $358 #
ellipse-curve $-1 -54.441586635948617 18.626358366030114 3.3217479541034702 -0.85716730853699208 0 0.51503806187062418 0.77255709280593621 0 1.2857509628054882 1 I I #
point $-1 -56.869692848728114 18.626358366030114 6.5306513857341359 #
plane-surface $-1 0 0 10.252742606424906 0 0 1 1 0 0 forward_v I I I I #
coedge $-1 $297 $296 $289 $359 forward $195 $-1 #
coedge $-1 $289 $197 $199 $293 reversed $119 $-1 #
coedge $-1 $197 $288 $287 $359 reversed $119 $-1 #
coedge $-1 $205 $200 $197 $291 forward $206 $-1 #
edge $-1 $294 24.710329992320027 $360 33.319095445258796 $290 $361 forward 7 unknown #
coedge $-1 $199 $198 $297 $362 reversed $74 $-1 #
edge $-1 $363 -121.30252998443555 $294 -109.5315284527788 $288 $364 forward 7 unknown #
vertex $-1 $201 $365 #
straight-curve $-1 52.042499539279021 -4.9647693650058429 10.252742606424903 0 -1 0 I I #
coedge $-1 $287 $202 $205 $301 reversed $195 $-1 #
coedge $-1 $202 $287 $292 $362 forward $195 $-1 #
vertex $-1 $203 $366 #
straight-curve $-1 60.651264992217776 -6.1155473949339898 86.834059838589141 0 0 1 I I #
straight-curve $-1 -28.06378841047254 -6.1155473949339898 84.953066274487966 0.7313536940579346 0 -0.68199836817093118 I I #
edge $-1 $360 -13.743530065089381 $207 -6.1155473949339898 $296 $367 forward 7 unknown #
point $-1 60.651264992217776 -6.1155473949339898 10.252742606424906 #
point $-1 52.042499539279007 -6.1155473949339898 10.252742606424903 #
edge $-1 $368 1 $368 0 $210 $-1 forward 7 unknown #
vertex $-1 $211 $369 #
ellipse-curve $-1 55.647587817864625 -11.564106445044985 5.488939219925399 0.68199836817093118 0 0.7313536940579346 0.7313536940579346 0 -0.68199836817093118 1 I I #
point $-1 57.078235959806314 -11.564106445044985 5.5568423200902473 #
edge $-1 $370 1 $370 0 $214 $-1 forward 7 unknown #
vertex $-1 $215 $371 #
ellipse-curve $-1 55.647587817864625 -8.2949710149783904 5.488939219925399 0.68199836817093118 0 0.7313536940579346 0.7313536940579346 0 -0.68199836817093118 1 I I #
point $-1 57.078235959806314 -8.2949710149783904 5.5568423200902473 #
plane-surface $-1 60.651264992217776 0 0 -1 0 0 0 0 1 forward_v I I I I #
coedge $-1 $323 $221 $224 $316 reversed $141 $-1 #
edge $-1 $235 -10.252742606424906 $319 10.252742606424906 $234 $372 forward 7 unknown #
straight-curve $-1 60.651264992217776 -25.130654612043873 0 0 0 -1 I I #
edge $-1 $317 -25.130654612043873 $319 25.130654612043873 $313 $373 forward 7 unknown #
vertex $-1 $316 $374 #
straight-curve $-1 0 -25.130654612043873 -10.252742606424906 -1 0 0 I I #
vertex $-1 $227 $375 #
straight-curve $-1 0 25.130654612043873 -10.252742606424906 1 0 0 I I #
point $-1 60.651264992217776 25.130654612043873 -10.252742606424906 #
point $-1 60.651264992217776 -25.130654612043873 -10.252742606424906 #
coedge $-1 $231 $313 $237 $326 reversed $141 $-1 #
straight-curve $-1 -60.651264992217776 0 10.252742606424906 0 -1 0 I I #
point $-1 -60.651264992217776 25.130654612043873 10.252742606424906 #
edge $-1 $238 -10.252742606424906 $317 10.252742606424906 $323 $376 forward 7 unknown #
point $-1 -60.651264992217776 -25.130654612043873 10.252742606424906 #
straight-curve $-1 60.651264992217776 25.130654612043873 0 0 0 -1 I I #
plane-surface $-1 -60.651264992217776 0 0 1 0 0 0 0 -1 forward_v I I I I #
coedge $-1 $332 $341 $336 $377 forward $244 $-1 #
coedge $-1 $247 $246 $378 $379 forward $96 $-1 #
coedge $-1 $378 $330 $248 $333 reversed $244 $-1 #
edge $-1 $334 -60.651264992217776 $337 60.651264992217776 $332 $380 forward 7 unknown #
vertex $-1 $379 $381 #
straight-curve $-1 60.651264992217776 0 -10.252742606424906 0 -1 0 I I #
coedge $-1 $256 $250 $330 $377 reversed $257 $-1 #
vertex $-1 $251 $382 #
straight-curve $-1 -60.651264992217776 0 -10.252742606424906 0 1 0 I I #
point $-1 -60.651264992217776 -25.130654612043873 -10.252742606424906 #
point $-1 60.651264992217776 -25.130654612043873 -10.252742606424906 #
coedge $-1 $330 $378 $259 $342 reversed $244 $-1 #
edge $-1 $343 -60.651264992217776 $345 60.651264992217776 $341 $383 forward 7 unknown #
vertex $-1 $260 $384 #
straight-curve $-1 -60.651264992217776 -30.824216885521118 -5.203125286224509 0 -1 0 I I #
vertex $-1 $261 $385 #
straight-curve $-1 60.651264992217776 -30.824216885521118 -5.203125286224509 0 1 0 I I #
coedge $-1 $275 $274 $267 $348 forward $264 $-1 #
edge $-1 $349 21.103496484884776 $352 31.119180851877282 $347 $386 forward 7 unknown #
vertex $-1 $279 $387 #
straight-curve $-1 -82.313914068852085 22.952193950019844 10.252742606424906 -1 0 0 I I #
edge $-1 $352 -13.639014767004786 $276 -4.9873435990253281 $275 $388 forward 7 unknown #
vertex $-1 $351 $389 #
straight-curve $-1 -60.651264992217776 22.952193950019844 0.23705823943240034 0.51503806187062418 0 0.85716730853699208 I I #
point $-1 -54.633234890850332 22.952193950019844 10.252742606424906 #
point $-1 -60.651264992217776 14.300522782040385 0.23705823943240034 #
straight-curve $-1 -60.651264992217776 0 10.252742606424906 0 -1 0 I I #
vertex $-1 $282 $390 #
point $-1 -53.669029543142678 18.626358366030114 4.6074989169089582 #
edge $-1 $360 76.581317232164238 $363 84.609121068491675 $287 $391 forward 7 unknown #
vertex $-1 $301 $392 #
straight-curve $-1 27.33216954695898 -13.743530065089381 10.252742606424903 1 0 0 I I #
edge $-1 $363 -8.7787607000835379 $298 -1.1507780299281469 $297 $393 forward 7 unknown #
vertex $-1 $362 $394 #
straight-curve $-1 -28.06378841047254 -13.743530065089381 84.953066274487966 -0.7313536940579346 0 0.68199836817093118 I I #
point $-1 52.042499539279007 -13.743530065089381 10.252742606424903 #
point $-1 60.651264992217776 -6.1155473949339898 2.2249387700974665 #
straight-curve $-1 60.651264992217776 0 10.252742606424906 0 1 0 I I #
vertex $-1 $304 $395 #
point $-1 56.378941511922555 -11.564106445044985 4.8069408517544669 #
vertex $-1 $308 $396 #
point $-1 56.378941511922555 -8.2949710149783904 4.8069408517544669 #
straight-curve $-1 -60.651264992217776 25.130654612043873 0 0 0 -1 I I #
straight-curve $-1 -60.651264992217776 0 -10.252742606424906 0 1 0 I I #
point $-1 -60.651264992217776 -25.130654612043873 -10.252742606424906 #
point $-1 -60.651264992217776 25.130654612043873 -10.252742606424906 #
straight-curve $-1 -60.651264992217776 -25.130654612043873 0 0 0 -1 I I #
edge $-1 $343 -2.5248086601001987 $337 2.5248086601001987 $336 $397 forward 7 unknown #
coedge $-1 $341 $332 $331 $379 reversed $244 $-1 #
edge $-1 $345 -2.5248086601001987 $334 2.5248086601001987 $331 $398 forward 7 unknown #
straight-curve $-1 0 -36.517779158998366 -10.252742606424906 -1 0 0 I I #
point $-1 60.651264992217776 -36.517779158998366 -10.252742606424906 #
point $-1 -60.651264992217776 -36.517779158998366 -10.252742606424906 #
straight-curve $-1 0 -36.517779158998366 -5.203125286224509 1 0 0 I I #
point $-1 -60.651264992217776 -36.517779158998366 -5.203125286224509 #
point $-1 60.651264992217776 -36.517779158998366 -5.203125286224509 #
straight-curve $-1 -60.651264992217776 22.952193950019844 31.356239091309682 0 0 -1 I I #
point $-1 -60.651264992217776 22.952193950019844 10.252742606424906 #
straight-curve $-1 -60.651264992217776 9.3131791830150572 0.2370582394323999 0 -1 0 I I #
point $-1 -60.651264992217776 22.952193950019844 0.23705823943240034 #
point $-1 -53.155835673143123 18.626358366030114 2.549190861297534 #
straight-curve $-1 60.651264992217776 -13.743530065089381 86.834059838589141 0 0 -1 I I #
point $-1 60.651264992217776 -13.743530065089381 10.252742606424906 #
straight-curve $-1 60.651264992217776 -4.9647693650058429 2.2249387700974665 0 1 0 I I #
point $-1 60.651264992217776 -13.743530065089381 2.2249387700974665 #
point $-1 54.965589449693688 -11.564106445044985 4.7575855258674622 #
point $-1 54.965589449693688 -8.2949710149783904 4.7575855258674622 #
straight-curve $-1 -60.651264992217776 -36.517779158998366 -7.7279339463247076 0 0 -1 I I #
straight-curve $-1 60.651264992217776 -36.517779158998366 -7.7279339463247076 0 0 -1 I I #
End-of-ACIS-data 