500 0 8 0           
7 Unknown 11 ACIS 5.0 NT 24 Fri Mar 26 16:36:37 1999 
-1 9.9999999999999995e-007 1e-010 
body $-1 $8 $-1 $9 #
body $-1 $10 $-1 $11 #
body $-1 $12 $-1 $13 #
body $-1 $14 $-1 $15 #
body $-1 $16 $-1 $17 #
body $-1 $18 $-1 $19 #
body $-1 $20 $-1 $21 #
body $-1 $22 $-1 $23 #
lump $-1 $-1 $24 $0 #
transform $-1 1 0 0 0 1 0 0 0 1 75.681020538956872 39.003661059706978 11.211037974936499 1 rotate no_reflect no_shear #
lump $-1 $-1 $25 $1 #
transform $-1 1 0 0 0 1 0 0 0 1 75.681020538956872 39.003661059706978 11.211037974936499 1 rotate no_reflect no_shear #
lump $-1 $-1 $26 $2 #
transform $-1 1 0 0 0 1 0 0 0 1 75.681020538956872 39.003661059706978 11.211037974936499 1 rotate no_reflect no_shear #
lump $-1 $-1 $27 $3 #
transform $-1 1 0 0 0 1 0 0 0 1 75.681020538956872 39.003661059706978 11.211037974936499 1 rotate no_reflect no_shear #
lump $-1 $-1 $28 $4 #
transform $-1 1 0 0 0 1 0 0 0 1 75.681020538956872 39.003661059706978 11.211037974936499 1 rotate no_reflect no_shear #
lump $-1 $-1 $29 $5 #
transform $-1 1 0 0 0 1 0 0 0 1 75.681020538956872 39.003661059706978 11.211037974936499 1 rotate no_reflect no_shear #
lump $-1 $-1 $30 $6 #
transform $-1 1 0 0 0 1 0 0 0 1 75.681020538956872 39.003661059706978 11.211037974936499 1 rotate no_reflect no_shear #
lump $-1 $-1 $31 $7 #
transform $-1 1 0 0 0 1 0 0 0 1 75.681020538956872 39.003661059706978 11.211037974936499 1 rotate no_reflect no_shear #
shell $-1 $-1 $-1 $32 $-1 $8 #
shell $-1 $-1 $-1 $33 $-1 $10 #
shell $-1 $-1 $-1 $34 $-1 $12 #
shell $-1 $-1 $-1 $35 $-1 $14 #
shell $-1 $-1 $-1 $36 $-1 $16 #
shell $-1 $-1 $-1 $37 $-1 $18 #
shell $-1 $-1 $-1 $38 $-1 $20 #
shell $-1 $-1 $-1 $39 $-1 $22 #
face $-1 $40 $41 $24 $-1 $42 forward single #
face $-1 $43 $44 $25 $-1 $45 reversed single #
face $-1 $46 $47 $26 $-1 $48 reversed single #
face $-1 $49 $50 $27 $-1 $51 forward single #
face $-1 $52 $53 $28 $-1 $54 reversed single #
face $-1 $55 $56 $29 $-1 $57 forward single #
face $-1 $58 $59 $30 $-1 $60 forward single #
face $-1 $61 $62 $31 $-1 $63 forward single #
face $-1 $64 $65 $24 $-1 $66 reversed single #
loop $-1 $-1 $67 $32 #
plane-surface $-1 0 0 11.211037974936499 0 0 1 1 0 0 forward_v I I I I #
face $-1 $68 $69 $25 $-1 $70 reversed single #
loop $-1 $-1 $71 $33 #
plane-surface $-1 -71.559442396977531 -33.369721022706166 0 0 1 0 0 0 1 forward_v I I I I #
face $-1 $72 $73 $26 $-1 $74 reversed single #
loop $-1 $-1 $75 $34 #
plane-surface $-1 -40.658243458686542 128.56951442902749 149.58096631445559 1 0 0 0 -0.85716730853699208 -0.51503806187062418 forward_v I I I I #
face $-1 $76 $77 $27 $-1 $78 forward single #
loop $-1 $79 $80 $35 #
cone-surface $-1 -20.308124372784391 35.06035092340278 6.7801572486161419 0 -0.85716730853699208 -0.51503806187062418 1.5 0 0 1 I I 0 1 1.5 forward I I I I #
face $-1 $81 $82 $28 $-1 $83 reversed single #
loop $-1 $-1 $84 $36 #
plane-surface $-1 58.321953801664634 -39.003661059706957 7.3986296032593657 0 -0.84804810408105047 0.52991925155115449 1 0 0 forward_v I I I I #
face $-1 $85 $86 $29 $-1 $87 forward single #
loop $-1 $88 $89 $37 #
cone-surface $-1 47.906513759289268 -37.176645263764676 8.9074873414223461 0 0.84804810408105047 -0.52991925155115449 0.5 0 0 1 I I 0 1 0.5 forward I I I I #
face $-1 $90 $91 $30 $-1 $92 forward single #
loop $-1 $93 $94 $38 #
cone-surface $-1 58.321953801664634 -37.176645263764676 8.9074873414223461 0 0.84804810408105047 -0.52991925155115449 0.5 0 0 1 I I 0 1 0.5 forward I I I I #
face $-1 $95 $96 $31 $-1 $97 forward single #
loop $-1 $98 $99 $39 #
cone-surface $-1 68.73739384404 -37.176645263764676 8.9074873414223461 0 0.84804810408105047 -0.52991925155115449 0.5 0 0 1 I I 0 1 0.5 forward I I I I #
face $-1 $100 $101 $24 $-1 $102 reversed single #
loop $-1 $-1 $103 $40 #
plane-surface $-1 0 0 -11.211037974936499 0 0 1 1 0 0 forward_v I I I I #
coedge $-1 $104 $105 $106 $107 forward $41 $-1 #
face $-1 $108 $109 $25 $-1 $110 reversed single #
loop $-1 $-1 $111 $43 #
plane-surface $-1 -71.559442396977531 -26.822381782129373 0 0 -1 0 0 0 -1 forward_v I I I I #
coedge $-1 $112 $113 $114 $115 reversed $44 $-1 #
face $-1 $116 $117 $26 $-1 $118 reversed single #
loop $-1 $-1 $119 $46 #
plane-surface $-1 -20.308124372784398 -1.1730789363934662 71.623754036905098 0 0.85716730853699208 0.51503806187062418 1 0 0 forward_v I I I I #
coedge $-1 $120 $121 $122 $123 reversed $47 $-1 #
face $-1 $-1 $124 $27 $-1 $125 forward single #
loop $-1 $126 $127 $49 #
cone-surface $-1 -20.308124372784391 32.412724944084026 5.1893031185466292 0 -0.85716730853699208 -0.51503806187062418 0.75 0 0 1 I I -0.70710678118654757 0.70710678118654757 0.75 forward I I I I #
loop $-1 $-1 $128 $35 #
coedge $-1 $80 $80 $129 $130 reversed $50 $-1 #
face $-1 $131 $132 $28 $-1 $133 reversed single #
loop $-1 $-1 $134 $52 #
plane-surface $-1 40.962887064372381 -167.3659530256698 87.608289124522514 1 0 0 0 0.84804810408105047 -0.52991925155115449 forward_v I I I I #
coedge $-1 $135 $136 $137 $138 reversed $53 $-1 #
face $-1 $-1 $139 $29 $-1 $140 forward single #
loop $-1 $141 $142 $55 #
cone-surface $-1 47.906513759289268 -36.328745976377206 8.3776610808589673 0 0.84804810408105047 -0.52991925155115449 0.25 0 0 1 I I -0.70710678118654746 0.70710678118654746 0.25 forward I I I I #
loop $-1 $-1 $143 $37 #
coedge $-1 $89 $89 $144 $145 reversed $56 $-1 #
face $-1 $-1 $146 $30 $-1 $147 forward single #
loop $-1 $148 $149 $58 #
cone-surface $-1 58.321953801664634 -36.328745976377206 8.3776610808589673 0 0.84804810408105047 -0.52991925155115449 0.25 0 0 1 I I -0.70710678118654746 0.70710678118654746 0.25 forward I I I I #
loop $-1 $-1 $150 $38 #
coedge $-1 $94 $94 $151 $152 reversed $59 $-1 #
face $-1 $-1 $153 $31 $-1 $154 forward single #
loop $-1 $155 $156 $61 #
cone-surface $-1 68.73739384404 -36.328745976377206 8.3776610808589673 0 0.84804810408105047 -0.52991925155115449 0.25 0 0 1 I I -0.70710678118654746 0.70710678118654746 0.25 forward I I I I #
loop $-1 $-1 $157 $39 #
coedge $-1 $99 $99 $158 $159 reversed $62 $-1 #
face $-1 $160 $161 $24 $-1 $162 reversed single #
loop $-1 $-1 $163 $64 #
plane-surface $-1 0 -39.003661059706978 0 0 1 0 0 0 1 forward_v I I I I #
coedge $-1 $164 $165 $166 $167 forward $65 $-1 #
coedge $-1 $168 $67 $169 $170 forward $41 $-1 #
coedge $-1 $67 $168 $171 $172 forward $41 $-1 #
coedge $-1 $173 $174 $67 $107 reversed $175 $-1 #
edge $-1 $176 -39.003661059706978 $177 39.003661059706978 $106 $178 forward 7 unknown #
face $-1 $179 $180 $25 $-1 $181 reversed single #
loop $-1 $-1 $182 $68 #
plane-surface $-1 -67.437864254998189 -30.096051402417771 0 -1 0 0 0 0 1 forward_v I I I I #
coedge $-1 $183 $184 $185 $186 forward $69 $-1 #
coedge $-1 $187 $71 $188 $189 reversed $44 $-1 #
coedge $-1 $71 $187 $190 $191 reversed $44 $-1 #
coedge $-1 $192 $193 $71 $115 forward $194 $-1 #
edge $-1 $195 -11.211037974936499 $196 11.211037974936499 $114 $197 forward 7 unknown #
face $-1 $198 $199 $26 $-1 $200 reversed single #
loop $-1 $-1 $201 $72 #
plane-surface $-1 0.041994713117745164 128.56951442902749 149.58096631445559 -1 0 0 0 0.85716730853699208 0.51503806187062418 forward_v I I I I #
coedge $-1 $202 $203 $204 $205 reversed $73 $-1 #
coedge $-1 $121 $75 $206 $207 reversed $47 $-1 #
coedge $-1 $75 $120 $202 $208 reversed $47 $-1 #
coedge $-1 $204 $209 $75 $123 forward $210 $-1 #
edge $-1 $211 25.281096154806768 $212 29.158215431583159 $122 $213 forward 7 unknown #
loop $-1 $-1 $129 $76 #
plane-surface $-1 -20.308124372784398 -1.1730789363934662 71.623754036905098 0 0.85716730853699208 0.51503806187062418 1 0 0 forward_v I I I I #
loop $-1 $-1 $214 $49 #
coedge $-1 $127 $127 $128 $215 reversed $77 $-1 #
coedge $-1 $128 $128 $127 $215 forward $79 $-1 #
coedge $-1 $129 $129 $80 $130 forward $124 $-1 #
edge $-1 $216 8.1906068394846559e-016 $216 6.2831853071796013 $129 $217 forward 7 unknown #
face $-1 $218 $219 $28 $-1 $220 forward single #
loop $-1 $-1 $221 $81 #
plane-surface $-1 0 -39.003661059706978 0 0 1 0 0 0 1 forward_v I I I I #
coedge $-1 $222 $223 $224 $225 reversed $82 $-1 #
coedge $-1 $226 $84 $227 $228 reversed $53 $-1 #
coedge $-1 $84 $226 $222 $229 forward $53 $-1 #
coedge $-1 $224 $230 $84 $138 forward $219 $-1 #
edge $-1 $231 -46.520043638124569 $232 -11.801910163540065 $137 $233 forward 7 unknown #
loop $-1 $-1 $144 $85 #
plane-surface $-1 58.321953801664634 -39.003661059706957 7.3986296032593657 0 -0.84804810408105047 0.52991925155115449 1 0 0 forward_v I I I I #
loop $-1 $-1 $234 $55 #
coedge $-1 $142 $142 $143 $235 reversed $86 $-1 #
coedge $-1 $143 $143 $142 $235 forward $88 $-1 #
coedge $-1 $144 $144 $89 $145 forward $139 $-1 #
edge $-1 $236 1.5111603134505096e-015 $236 6.2831853071796022 $144 $237 forward 7 unknown #
loop $-1 $-1 $151 $90 #
plane-surface $-1 58.321953801664634 -39.003661059706957 7.3986296032593657 0 -0.84804810408105047 0.52991925155115449 1 0 0 forward_v I I I I #
loop $-1 $-1 $238 $58 #
coedge $-1 $149 $149 $150 $239 reversed $91 $-1 #
coedge $-1 $150 $150 $149 $239 forward $93 $-1 #
coedge $-1 $151 $151 $94 $152 forward $146 $-1 #
edge $-1 $240 1.5111603134505096e-015 $240 6.2831853071796022 $151 $241 forward 7 unknown #
loop $-1 $-1 $158 $95 #
plane-surface $-1 58.321953801664634 -39.003661059706957 7.3986296032593657 0 -0.84804810408105047 0.52991925155115449 1 0 0 forward_v I I I I #
loop $-1 $-1 $242 $61 #
coedge $-1 $156 $156 $157 $243 reversed $96 $-1 #
coedge $-1 $157 $157 $156 $243 forward $98 $-1 #
coedge $-1 $158 $158 $99 $159 forward $153 $-1 #
edge $-1 $244 1.5111603134505096e-015 $244 6.2831853071796022 $158 $245 forward 7 unknown #
face $-1 $246 $247 $24 $-1 $248 reversed single #
loop $-1 $-1 $249 $100 #
plane-surface $-1 -75.681020538956872 0 0 1 0 0 0 0 -1 forward_v I I I I #
coedge $-1 $250 $171 $251 $252 forward $101 $-1 #
coedge $-1 $253 $103 $250 $254 forward $65 $-1 #
coedge $-1 $103 $253 $255 $256 forward $65 $-1 #
coedge $-1 $174 $173 $103 $167 reversed $175 $-1 #
edge $-1 $257 -39.003661059706978 $258 39.003661059706978 $166 $259 forward 7 unknown #
coedge $-1 $105 $104 $260 $261 forward $41 $-1 #
coedge $-1 $262 $263 $104 $170 reversed $247 $-1 #
edge $-1 $177 -75.681020538956872 $264 75.681020538956872 $169 $265 forward 7 unknown #
coedge $-1 $163 $266 $105 $172 reversed $101 $-1 #
edge $-1 $267 -75.681020538956872 $176 75.681020538956872 $171 $268 forward 7 unknown #
coedge $-1 $166 $106 $266 $269 forward $175 $-1 #
coedge $-1 $106 $166 $262 $270 reversed $175 $-1 #
loop $-1 $-1 $173 $246 #
vertex $-1 $107 $271 #
vertex $-1 $107 $272 #
straight-curve $-1 75.681020538956872 0 11.211037974936499 0 1 0 I I #
face $-1 $273 $274 $25 $-1 $275 forward single #
loop $-1 $-1 $276 $108 #
plane-surface $-1 0 0 -11.211037974936499 0 0 1 1 0 0 forward_v I I I I #
coedge $-1 $277 $278 $187 $279 forward $109 $-1 #
coedge $-1 $280 $111 $276 $281 reversed $69 $-1 #
coedge $-1 $111 $280 $282 $283 reversed $69 $-1 #
coedge $-1 $278 $277 $111 $186 reversed $109 $-1 #
edge $-1 $284 -11.211037974936499 $285 11.211037974936499 $185 $286 forward 7 unknown #
coedge $-1 $113 $112 $182 $279 reversed $44 $-1 #
coedge $-1 $287 $288 $112 $189 forward $180 $-1 #
edge $-1 $289 31.658143056509424 $195 39.901299340468107 $188 $290 forward 7 unknown #
coedge $-1 $291 $292 $113 $191 forward $274 $-1 #
edge $-1 $196 -39.901299340468107 $293 -31.658143056509424 $190 $294 forward 7 unknown #
coedge $-1 $295 $114 $292 $296 reversed $194 $-1 #
coedge $-1 $114 $295 $287 $297 reversed $194 $-1 #
loop $-1 $-1 $295 $273 #
vertex $-1 $297 $298 #
vertex $-1 $115 $299 #
straight-curve $-1 -75.681020538956872 -33.369721022706166 0 0 0 1 I I #
face $-1 $-1 $210 $26 $-1 $300 forward single #
loop $-1 $-1 $301 $116 #
plane-surface $-1 0 39.003661059706978 0 0 -1 0 0 0 -1 forward_v I I I I #
coedge $-1 $302 $303 $304 $305 reversed $117 $-1 #
coedge $-1 $306 $119 $121 $208 forward $73 $-1 #
coedge $-1 $119 $306 $302 $307 forward $73 $-1 #
coedge $-1 $304 $122 $119 $205 forward $210 $-1 #
edge $-1 $212 -30.504181272294343 $308 10.196056899509944 $204 $309 forward 7 unknown #
coedge $-1 $310 $311 $120 $207 forward $199 $-1 #
edge $-1 $312 -70.032055467598937 $211 -63.579445182291295 $206 $313 forward 7 unknown #
edge $-1 $212 70.479491530166555 $312 78.007322119413985 $121 $314 forward 7 unknown #
coedge $-1 $122 $304 $310 $315 forward $210 $-1 #
loop $-1 $-1 $304 $198 #
vertex $-1 $207 $316 #
vertex $-1 $123 $317 #
straight-curve $-1 -40.658243458686542 64.284757214513746 11.211037974936502 0 -1 0 I I #
coedge $-1 $214 $214 $-1 $318 reversed $126 $-1 #
edge $-1 $319 0 $319 6.2831853071796004 $127 $320 forward 7 unknown #
vertex $-1 $130 $321 #
ellipse-curve $-1 -20.308124372784391 37.065101421318772 7.9847328322826803 0 0.85716730853699208 0.51503806187062418 1.5 0 0 1 I I #
face $-1 $-1 $322 $28 $-1 $323 reversed single #
loop $-1 $-1 $224 $131 #
plane-surface $-1 0 0 11.211037974936499 0 0 1 1 0 0 forward_v I I I I #
coedge $-1 $324 $325 $223 $326 forward $132 $-1 #
coedge $-1 $223 $134 $136 $229 reversed $82 $-1 #
coedge $-1 $134 $222 $221 $326 reversed $82 $-1 #
coedge $-1 $327 $137 $134 $225 forward $219 $-1 #
edge $-1 $232 -47.061572522278134 $328 -44.67931545312792 $224 $329 forward 7 unknown #
coedge $-1 $136 $135 $324 $330 reversed $53 $-1 #
coedge $-1 $331 $332 $135 $228 forward $322 $-1 #
edge $-1 $333 -7.1971985343364295 $231 -2.7016889596663556 $227 $334 forward 7 unknown #
edge $-1 $335 -3.9918193188544054e-014 $232 4.4955095746700344 $222 $336 forward 7 unknown #
coedge $-1 $137 $327 $331 $337 forward $219 $-1 #
vertex $-1 $228 $338 #
vertex $-1 $138 $339 #
straight-curve $-1 29.160976900832317 -36.621403990556757 11.211037974936499 -1 0 0 I I #
coedge $-1 $234 $234 $-1 $340 reversed $141 $-1 #
edge $-1 $341 0 $341 6.2831853071796004 $142 $342 forward 7 unknown #
vertex $-1 $145 $343 #
ellipse-curve $-1 47.906513759289268 -37.812532525131864 9.3048337890979234 0 -0.84804810408105047 0.52991925155115449 0.5 0 0 1 I I #
coedge $-1 $238 $238 $-1 $344 reversed $148 $-1 #
edge $-1 $345 0 $345 6.2831853071796004 $149 $346 forward 7 unknown #
vertex $-1 $152 $347 #
ellipse-curve $-1 58.321953801664634 -37.812532525131864 9.3048337890979234 0 -0.84804810408105047 0.52991925155115449 0.5 0 0 1 I I #
coedge $-1 $242 $242 $-1 $348 reversed $155 $-1 #
edge $-1 $349 0 $349 6.2831853071796004 $156 $350 forward 7 unknown #
vertex $-1 $159 $351 #
ellipse-curve $-1 68.73739384404 -37.812532525131864 9.3048337890979234 0 -0.84804810408105047 0.52991925155115449 0.5 0 0 1 I I #
face $-1 $-1 $175 $24 $-1 $352 reversed single #
loop $-1 $-1 $262 $160 #
plane-surface $-1 0 39.003661059706978 0 0 -1 0 0 0 -1 forward_v I I I I #
coedge $-1 $353 $260 $263 $354 forward $161 $-1 #
coedge $-1 $266 $163 $164 $254 reversed $101 $-1 #
coedge $-1 $260 $353 $163 $252 reversed $161 $-1 #
edge $-1 $267 -11.211037974936499 $355 11.211037974936499 $251 $356 forward 7 unknown #
coedge $-1 $165 $164 $353 $357 forward $65 $-1 #
edge $-1 $258 -75.681020538956872 $355 75.681020538956872 $250 $358 forward 7 unknown #
coedge $-1 $263 $262 $165 $256 reversed $247 $-1 #
edge $-1 $359 -75.681020538956872 $257 75.681020538956872 $255 $360 forward 7 unknown #
vertex $-1 $167 $361 #
vertex $-1 $269 $362 #
straight-curve $-1 75.681020538956872 0 -11.211037974936499 0 -1 0 I I #
coedge $-1 $249 $251 $168 $261 reversed $161 $-1 #
edge $-1 $264 -39.003661059706978 $267 39.003661059706978 $260 $363 forward 7 unknown #
coedge $-1 $255 $169 $174 $270 forward $247 $-1 #
coedge $-1 $169 $255 $249 $354 reversed $247 $-1 #
vertex $-1 $170 $364 #
straight-curve $-1 0 39.003661059706978 11.211037974936499 -1 0 0 I I #
coedge $-1 $171 $250 $173 $269 reversed $101 $-1 #
vertex $-1 $261 $365 #
straight-curve $-1 0 -39.003661059706978 11.211037974936499 1 0 0 I I #
edge $-1 $176 -11.211037974936499 $258 11.211037974936499 $173 $366 forward 7 unknown #
edge $-1 $177 -11.211037974936499 $257 11.211037974936499 $174 $367 forward 7 unknown #
point $-1 75.681020538956872 -39.003661059706978 11.211037974936499 #
point $-1 75.681020538956872 39.003661059706978 11.211037974936499 #
face $-1 $-1 $194 $25 $-1 $368 reversed single #
loop $-1 $-1 $282 $179 #
plane-surface $-1 0 0 11.211037974936499 0 0 1 1 0 0 forward_v I I I I #
coedge $-1 $288 $287 $183 $281 forward $180 $-1 #
coedge $-1 $185 $182 $288 $369 reversed $109 $-1 #
coedge $-1 $182 $185 $291 $370 reversed $109 $-1 #
edge $-1 $293 -11.211037974936499 $289 11.211037974936499 $182 $371 forward 7 unknown #
coedge $-1 $184 $183 $295 $372 reversed $69 $-1 #
edge $-1 $373 -39.901299340468107 $285 -31.658143056509424 $276 $374 forward 7 unknown #
coedge $-1 $292 $291 $184 $283 forward $274 $-1 #
edge $-1 $284 31.658143056509424 $375 39.901299340468107 $282 $376 forward 7 unknown #
vertex $-1 $283 $377 #
vertex $-1 $281 $378 #
straight-curve $-1 -67.437864254998189 -26.822381782129373 0 0 0 -1 I I #
coedge $-1 $276 $188 $193 $297 forward $180 $-1 #
coedge $-1 $188 $276 $277 $369 forward $180 $-1 #
vertex $-1 $189 $379 #
straight-curve $-1 -35.779721198488765 -33.369721022706166 -11.211037974936499 -1 0 0 I I #
coedge $-1 $282 $190 $278 $370 forward $274 $-1 #
coedge $-1 $190 $282 $192 $296 forward $274 $-1 #
vertex $-1 $191 $380 #
straight-curve $-1 -35.779721198488765 -33.369721022706166 11.211037974936499 1 0 0 I I #
coedge $-1 $193 $192 $280 $372 forward $194 $-1 #
edge $-1 $375 26.822381782129373 $196 33.369721022706166 $192 $381 forward 7 unknown #
edge $-1 $195 -33.369721022706166 $373 -26.822381782129373 $193 $382 forward 7 unknown #
point $-1 -75.681020538956872 -33.369721022706166 -11.211037974936499 #
point $-1 -75.681020538956872 -33.369721022706166 11.211037974936499 #
plane-surface $-1 0 0 11.211037974936499 0 0 1 1 0 0 forward_v I I I I #
coedge $-1 $311 $310 $303 $383 forward $199 $-1 #
coedge $-1 $303 $201 $203 $307 reversed $117 $-1 #
coedge $-1 $201 $302 $301 $383 reversed $117 $-1 #
coedge $-1 $209 $204 $201 $305 forward $210 $-1 #
edge $-1 $308 -29.158215431583159 $384 -25.281096154806768 $304 $385 forward 7 unknown #
coedge $-1 $203 $202 $311 $386 reversed $73 $-1 #
edge $-1 $387 -78.007322119413985 $308 -70.479491530166555 $302 $388 forward 7 unknown #
vertex $-1 $205 $389 #
straight-curve $-1 -10.154062186392199 35.126541782930587 11.211037974936502 1 0 0 I I #
coedge $-1 $301 $206 $209 $315 reversed $199 $-1 #
coedge $-1 $206 $301 $306 $386 forward $199 $-1 #
vertex $-1 $207 $390 #
straight-curve $-1 -40.658243458686542 39.003661059706978 74.790483157227797 0 0 1 I I #
straight-curve $-1 -40.658243458686542 -1.1730789363934662 71.623754036905098 0 0.51503806187062418 -0.85716730853699208 I I #
edge $-1 $384 -0.041994713117745164 $211 40.658243458686542 $310 $391 forward 7 unknown #
point $-1 -40.658243458686542 39.003661059706978 11.211037974936499 #
point $-1 -40.658243458686542 35.126541782930587 11.211037974936509 #
edge $-1 $392 1 $392 0 $214 $-1 forward 7 unknown #
vertex $-1 $215 $393 #
ellipse-curve $-1 -20.308124372784391 33.055600425486773 5.5755816649495973 0 0.85716730853699208 0.51503806187062418 1.5 0 0 1 I I #
point $-1 -18.808124372784391 37.065101421318786 7.9847328322826874 #
loop $-1 $-1 $227 $218 #
plane-surface $-1 75.681020538956872 0 0 -1 0 0 0 0 1 forward_v I I I I #
coedge $-1 $394 $221 $226 $330 forward $132 $-1 #
coedge $-1 $221 $394 $327 $395 reversed $132 $-1 #
edge $-1 $328 32.593106587324755 $335 36.405514959001927 $221 $396 forward 7 unknown #
coedge $-1 $230 $224 $325 $395 forward $219 $-1 #
vertex $-1 $395 $397 #
straight-curve $-1 40.962887064372381 -83.682976512834898 11.211037974936495 0 -1 0 I I #
edge $-1 $335 11.801910163540065 $333 46.520043638124569 $324 $398 forward 7 unknown #
coedge $-1 $332 $227 $230 $337 reversed $322 $-1 #
coedge $-1 $227 $331 $394 $399 forward $322 $-1 #
vertex $-1 $330 $400 #
straight-curve $-1 75.681020538956872 -35.18972699912635 13.502200174998256 0 0.52991925155115449 0.84804810408105047 I I #
vertex $-1 $330 $401 #
straight-curve $-1 40.962887064372381 -39.003661059706957 7.3986296032593657 0 0.52991925155115449 0.84804810408105047 I I #
edge $-1 $402 -39.003661059706978 $231 -36.621403990556765 $331 $403 forward 7 unknown #
point $-1 75.681020538956886 -36.621403990556765 11.211037974936499 #
point $-1 40.962887064372381 -36.621403990556765 11.211037974936499 #
edge $-1 $404 1 $404 0 $234 $-1 forward 7 unknown #
vertex $-1 $235 $405 #
ellipse-curve $-1 47.906513759289268 -36.540758002397467 8.5101408937467564 0 -0.84804810408105047 0.52991925155115449 0.5 0 0 1 I I #
point $-1 48.406513759289268 -37.812532525131886 9.3048337890979376 #
edge $-1 $406 1 $406 0 $238 $-1 forward 7 unknown #
vertex $-1 $239 $407 #
ellipse-curve $-1 58.321953801664634 -36.540758002397467 8.5101408937467564 0 -0.84804810408105047 0.52991925155115449 0.5 0 0 1 I I #
point $-1 58.821953801664634 -37.812532525131886 9.3048337890979376 #
edge $-1 $408 1 $408 0 $242 $-1 forward 7 unknown #
vertex $-1 $243 $409 #
ellipse-curve $-1 68.73739384404 -36.540758002397467 8.5101408937467564 0 -0.84804810408105047 0.52991925155115449 0.5 0 0 1 I I #
point $-1 69.23739384404 -37.812532525131886 9.3048337890979376 #
plane-surface $-1 75.681020538956872 0 0 -1 0 0 0 0 1 forward_v I I I I #
coedge $-1 $251 $249 $253 $357 reversed $161 $-1 #
edge $-1 $264 -11.211037974936499 $359 11.211037974936499 $263 $410 forward 7 unknown #
vertex $-1 $357 $411 #
straight-curve $-1 -75.681020538956872 -39.003661059706978 0 0 0 -1 I I #
edge $-1 $355 -39.003661059706978 $359 39.003661059706978 $353 $412 forward 7 unknown #
straight-curve $-1 0 -39.003661059706978 -11.211037974936499 -1 0 0 I I #
vertex $-1 $256 $413 #
straight-curve $-1 0 39.003661059706978 -11.211037974936499 1 0 0 I I #
point $-1 75.681020538956872 39.003661059706978 -11.211037974936499 #
point $-1 75.681020538956872 -39.003661059706978 -11.211037974936499 #
straight-curve $-1 -75.681020538956872 0 11.211037974936499 0 -1 0 I I #
point $-1 -75.681020538956872 39.003661059706978 11.211037974936499 #
point $-1 -75.681020538956872 -39.003661059706978 11.211037974936499 #
straight-curve $-1 75.681020538956872 -39.003661059706978 0 0 0 -1 I I #
straight-curve $-1 75.681020538956872 39.003661059706978 0 0 0 -1 I I #
plane-surface $-1 -75.681020538956872 0 0 1 0 0 0 0 -1 forward_v I I I I #
edge $-1 $285 11.774356080920487 $289 18.32169532149728 $288 $414 forward 7 unknown #
edge $-1 $293 -18.32169532149728 $284 -11.774356080920487 $291 $415 forward 7 unknown #
straight-curve $-1 -67.437864254998189 -33.369721022706166 0 0 0 -1 I I #
edge $-1 $375 -11.211037974936499 $373 11.211037974936499 $295 $416 forward 7 unknown #
vertex $-1 $372 $417 #
straight-curve $-1 -35.779721198488765 -26.822381782129373 -11.211037974936499 1 0 0 I I #
vertex $-1 $296 $418 #
straight-curve $-1 -35.779721198488765 -26.822381782129373 11.211037974936499 -1 0 0 I I #
point $-1 -67.437864254998189 -26.822381782129373 11.211037974936499 #
point $-1 -67.437864254998189 -26.822381782129373 -11.211037974936499 #
point $-1 -67.437864254998189 -33.369721022706166 -11.211037974936499 #
point $-1 -67.437864254998189 -33.369721022706166 11.211037974936499 #
straight-curve $-1 -75.681020538956872 0 11.211037974936499 0 -1 0 I I #
straight-curve $-1 -75.681020538956872 0 -11.211037974936499 0 1 0 I I #
edge $-1 $384 63.579445182291295 $387 70.032055467598937 $301 $419 forward 7 unknown #
vertex $-1 $315 $420 #
straight-curve $-1 0.041994713117745164 64.284757214513746 11.211037974936502 0 1 0 I I #
edge $-1 $387 -10.196056899509944 $312 30.504181272294343 $311 $421 forward 7 unknown #
vertex $-1 $386 $422 #
straight-curve $-1 0.041994713117745164 -1.1730789363934662 71.623754036905098 0 -0.51503806187062418 0.85716730853699208 I I #
point $-1 0.041994713117745164 35.126541782930587 11.211037974936509 #
point $-1 -40.658243458686542 39.003661059706978 4.75842768962886 #
straight-curve $-1 0 39.003661059706978 11.211037974936499 -1 0 0 I I #
vertex $-1 $318 $423 #
point $-1 -18.808124372784391 33.055600425486773 5.5755816649495973 #
coedge $-1 $325 $324 $332 $399 reversed $132 $-1 #
edge $-1 $328 40.962887064372381 $402 75.681020538956872 $325 $424 forward 7 unknown #
straight-curve $-1 40.962887064372381 -39.003661059706985 43.804144562261257 0 0 -1 I I #
point $-1 40.962887064372381 -39.003661059706978 11.211037974936499 #
straight-curve $-1 29.160976900832317 -39.003661059706978 7.3986296032593399 1 0 0 I I #
edge $-1 $402 -11.211037974936499 $333 -7.3986296032593319 $332 $425 forward 7 unknown #
point $-1 75.681020538956886 -39.003661059706978 7.3986296032593319 #
point $-1 40.962887064372381 -39.003661059706978 7.3986296032593319 #
vertex $-1 $337 $426 #
straight-curve $-1 75.681020538956872 0 11.211037974936499 0 1 0 I I #
vertex $-1 $340 $427 #
point $-1 48.406513759289268 -36.540758002397467 8.5101408937467564 #
vertex $-1 $344 $428 #
point $-1 58.821953801664634 -36.540758002397467 8.5101408937467564 #
vertex $-1 $348 $429 #
point $-1 69.23739384404 -36.540758002397467 8.5101408937467564 #
straight-curve $-1 -75.681020538956872 39.003661059706978 0 0 0 -1 I I #
point $-1 -75.681020538956872 -39.003661059706978 -11.211037974936499 #
straight-curve $-1 -75.681020538956872 0 -11.211037974936499 0 1 0 I I #
point $-1 -75.681020538956872 39.003661059706978 -11.211037974936499 #
straight-curve $-1 -67.437864254998189 -15.048025701208886 -11.211037974936499 0 -1 0 I I #
straight-curve $-1 -67.437864254998189 -15.048025701208886 11.211037974936499 0 1 0 I I #
straight-curve $-1 -75.681020538956872 -26.822381782129373 0 0 0 -1 I I #
point $-1 -75.681020538956872 -26.822381782129373 -11.211037974936499 #
point $-1 -75.681020538956872 -26.822381782129373 11.211037974936499 #
straight-curve $-1 0.041994713117745164 39.003661059706978 74.790483157227797 0 0 -1 I I #
point $-1 0.041994713117745164 39.003661059706978 11.211037974936499 #
straight-curve $-1 -10.154062186392199 39.003661059706978 4.7584276896288458 -1 0 0 I I #
point $-1 0.041994713117745164 39.003661059706978 4.75842768962886 #
point $-1 -20.308124372784391 31.769849462681282 4.8030245721436611 #
straight-curve $-1 0 -39.003661059706978 11.211037974936499 1 0 0 I I #
straight-curve $-1 75.681020538956872 -39.003661059706978 0 0 0 -1 I I #
point $-1 75.681020538956872 -39.003661059706978 11.211037974936499 #
point $-1 47.906513759289268 -36.116733950356945 8.2451812679711782 #
point $-1 58.321953801664634 -36.116733950356945 8.2451812679711782 #
point $-1 68.73739384404 -36.116733950356945 8.2451812679711782 #
End-of-ACIS-data 