500 0 5 0           
7 Unknown 11 ACIS 5.0 NT 24 Thu Mar 25 18:43:36 1999 
-1 9.9999999999999995e-007 1e-010 
body $-1 $5 $-1 $6 #
body $-1 $7 $-1 $8 #
body $-1 $9 $-1 $10 #
body $-1 $11 $-1 $12 #
body $-1 $13 $-1 $14 #
lump $-1 $-1 $15 $0 #
transform $-1 1 0 0 0 1 0 0 0 1 68.03308206427198 30.26410140645287 12.471207484687962 1 rotate no_reflect no_shear #
lump $-1 $-1 $16 $1 #
transform $-1 1 0 0 0 1 0 0 0 1 68.03308206427198 30.26410140645287 12.471207484687962 1 rotate no_reflect no_shear #
lump $-1 $-1 $17 $2 #
transform $-1 1 0 0 0 1 0 0 0 1 68.03308206427198 30.26410140645287 12.471207484687962 1 rotate no_reflect no_shear #
lump $-1 $-1 $18 $3 #
transform $-1 1 0 0 0 1 0 0 0 1 68.03308206427198 30.26410140645287 12.471207484687962 1 rotate no_reflect no_shear #
lump $-1 $-1 $19 $4 #
transform $-1 1 0 0 0 1 0 0 0 1 68.03308206427198 30.26410140645287 12.471207484687962 1 rotate no_reflect no_shear #
shell $-1 $-1 $-1 $20 $-1 $5 #
shell $-1 $-1 $-1 $21 $-1 $7 #
shell $-1 $-1 $-1 $22 $-1 $9 #
shell $-1 $-1 $-1 $23 $-1 $11 #
shell $-1 $-1 $-1 $24 $-1 $13 #
face $-1 $25 $26 $15 $-1 $27 forward single #
face $-1 $28 $29 $16 $-1 $30 forward single #
face $-1 $31 $32 $17 $-1 $33 reversed single #
face $-1 $34 $35 $18 $-1 $36 forward single #
face $-1 $37 $38 $19 $-1 $39 reversed single #
face $-1 $40 $41 $15 $-1 $42 reversed single #
loop $-1 $-1 $43 $20 #
plane-surface $-1 0 0 12.471207484687962 0 0 1 1 0 0 forward_v I I I I #
face $-1 $44 $45 $16 $-1 $46 forward single #
loop $-1 $-1 $47 $21 #
plane-surface $-1 -38.097031042845359 97.915740830662131 142.09515332457653 -1 0 0 0 0.77714596973225614 0.62932038083071107 forward_v I I I I #
face $-1 $48 $49 $17 $-1 $50 reversed single #
loop $-1 $51 $52 $22 #
cone-surface $-1 -53.065056553558669 28.429432605365513 10.4614853995967 0 -0.77714596973225614 -0.62932038083071107 0.5 0 0 1 I I 0 1 0.5 forward I I I I #
face $-1 $53 $54 $18 $-1 $55 forward single #
loop $-1 $-1 $56 $23 #
plane-surface $-1 53.065056553558676 -7.8275302387634866 56.465943097027207 0 0.77714596973225614 0.62932038083071107 1 0 0 forward_v I I I I #
face $-1 $57 $58 $19 $-1 $59 reversed single #
loop $-1 $60 $61 $24 #
cone-surface $-1 53.065056553558676 28.429432605365513 10.4614853995967 0 -0.77714596973225614 -0.62932038083071107 0.5 0 0 1 I I 0 1 0.5 forward I I I I #
face $-1 $62 $63 $15 $-1 $64 reversed single #
loop $-1 $-1 $65 $25 #
plane-surface $-1 0 0 -12.471207484687962 0 0 1 1 0 0 forward_v I I I I #
coedge $-1 $66 $67 $68 $69 forward $26 $-1 #
face $-1 $70 $71 $16 $-1 $72 reversed single #
loop $-1 $-1 $73 $28 #
plane-surface $-1 -53.065056553558669 -7.8275302387634866 56.465943097027207 0 0.77714596973225614 0.62932038083071107 1 0 0 forward_v I I I I #
coedge $-1 $74 $75 $76 $77 reversed $29 $-1 #
face $-1 $78 $79 $17 $-1 $80 forward single #
loop $-1 $81 $82 $31 #
cone-surface $-1 -53.065056553558669 27.633176391634361 9.8166898487212997 0 -0.77714596973225614 -0.62932038083071107 0.25 0 0 1 I I -0.70710678118654746 0.70710678118654746 0.25 forward I I I I #
loop $-1 $-1 $83 $22 #
coedge $-1 $52 $52 $84 $85 reversed $32 $-1 #
face $-1 $86 $87 $18 $-1 $88 reversed single #
loop $-1 $-1 $89 $34 #
plane-surface $-1 38.097031042845366 97.915740830662131 142.09515332457653 1 0 0 0 -0.77714596973225614 -0.62932038083071107 forward_v I I I I #
coedge $-1 $90 $91 $92 $93 reversed $35 $-1 #
face $-1 $94 $95 $19 $-1 $96 forward single #
loop $-1 $97 $98 $37 #
cone-surface $-1 53.065056553558676 27.633176391634361 9.8166898487212997 0 -0.77714596973225614 -0.62932038083071107 0.25 0 0 1 I I -0.70710678118654746 0.70710678118654746 0.25 forward I I I I #
loop $-1 $-1 $99 $24 #
coedge $-1 $61 $61 $100 $101 reversed $38 $-1 #
face $-1 $102 $103 $15 $-1 $104 reversed single #
loop $-1 $-1 $105 $40 #
plane-surface $-1 0 -30.26410140645287 0 0 1 0 0 0 1 forward_v I I I I #
coedge $-1 $106 $107 $108 $109 forward $41 $-1 #
coedge $-1 $110 $43 $111 $112 forward $26 $-1 #
coedge $-1 $43 $110 $113 $114 forward $26 $-1 #
coedge $-1 $115 $116 $43 $69 reversed $117 $-1 #
edge $-1 $118 -30.26410140645287 $119 30.26410140645287 $68 $120 forward 7 unknown #
face $-1 $121 $122 $16 $-1 $123 forward single #
loop $-1 $-1 $124 $44 #
plane-surface $-1 0 30.26410140645287 0 0 -1 0 0 0 -1 forward_v I I I I #
coedge $-1 $125 $126 $124 $127 reversed $45 $-1 #
coedge $-1 $75 $47 $126 $128 forward $29 $-1 #
coedge $-1 $47 $74 $129 $130 reversed $29 $-1 #
coedge $-1 $131 $124 $47 $77 forward $71 $-1 #
edge $-1 $132 -61.62088243644736 $133 -58.576369177600299 $76 $134 forward 7 unknown #
face $-1 $135 $136 $17 $-1 $137 forward single #
loop $-1 $-1 $138 $48 #
plane-surface $-1 -38.097031042845359 97.915740830662131 142.09515332457653 -1 0 0 0 0.77714596973225614 0.62932038083071107 forward_v I I I I #
loop $-1 $-1 $139 $31 #
coedge $-1 $82 $82 $83 $140 forward $49 $-1 #
coedge $-1 $83 $83 $82 $140 reversed $51 $-1 #
coedge $-1 $84 $84 $52 $85 forward $136 $-1 #
edge $-1 $141 2.3708622835813796e-015 $141 6.2831853071796031 $84 $142 forward 7 unknown #
face $-1 $143 $144 $18 $-1 $145 reversed single #
loop $-1 $-1 $146 $53 #
plane-surface $-1 0 30.26410140645287 0 0 -1 0 0 0 -1 forward_v I I I I #
coedge $-1 $147 $148 $146 $149 reversed $54 $-1 #
coedge $-1 $150 $56 $148 $151 reversed $35 $-1 #
coedge $-1 $56 $150 $152 $153 reversed $35 $-1 #
coedge $-1 $154 $146 $56 $93 forward $87 $-1 #
edge $-1 $155 11.564502766066028 $156 41.500553787492656 $92 $157 forward 7 unknown #
face $-1 $158 $159 $19 $-1 $160 forward single #
loop $-1 $161 $100 $57 #
plane-surface $-1 53.065056553558676 -7.8275302387634866 56.465943097027207 0 0.77714596973225614 0.62932038083071107 1 0 0 forward_v I I I I #
loop $-1 $-1 $162 $37 #
coedge $-1 $98 $98 $99 $163 forward $58 $-1 #
coedge $-1 $99 $99 $98 $163 reversed $60 $-1 #
coedge $-1 $100 $100 $61 $101 forward $95 $-1 #
edge $-1 $164 2.3708622835813796e-015 $164 6.2831853071796031 $100 $165 forward 7 unknown #
face $-1 $166 $167 $15 $-1 $168 reversed single #
loop $-1 $-1 $169 $62 #
plane-surface $-1 -68.03308206427198 0 0 1 0 0 0 0 -1 forward_v I I I I #
coedge $-1 $170 $113 $171 $172 forward $63 $-1 #
coedge $-1 $173 $65 $170 $174 forward $41 $-1 #
coedge $-1 $65 $173 $175 $176 forward $41 $-1 #
coedge $-1 $116 $115 $65 $109 reversed $117 $-1 #
edge $-1 $177 -30.26410140645287 $178 30.26410140645287 $108 $179 forward 7 unknown #
coedge $-1 $67 $66 $180 $181 forward $26 $-1 #
coedge $-1 $182 $183 $66 $112 reversed $167 $-1 #
edge $-1 $119 -68.03308206427198 $184 68.03308206427198 $111 $185 forward 7 unknown #
coedge $-1 $105 $186 $67 $114 reversed $63 $-1 #
edge $-1 $187 -68.03308206427198 $118 68.03308206427198 $113 $188 forward 7 unknown #
coedge $-1 $108 $68 $186 $189 forward $117 $-1 #
coedge $-1 $68 $108 $182 $190 reversed $117 $-1 #
loop $-1 $-1 $115 $166 #
vertex $-1 $69 $191 #
vertex $-1 $69 $192 #
straight-curve $-1 68.03308206427198 0 12.471207484687962 0 1 0 I I #
face $-1 $193 $194 $16 $-1 $195 reversed single #
loop $-1 $-1 $129 $70 #
plane-surface $-1 0 0 12.471207484687962 0 0 1 1 0 0 forward_v I I I I #
coedge $-1 $76 $196 $73 $127 forward $71 $-1 #
coedge $-1 $197 $73 $198 $199 reversed $45 $-1 #
coedge $-1 $73 $197 $74 $128 reversed $45 $-1 #
edge $-1 $200 -41.500553787492649 $132 -11.564502766066024 $124 $201 forward 7 unknown #
edge $-1 $132 -60.528202812905732 $202 -56.610646295311028 $74 $203 forward 7 unknown #
coedge $-1 $204 $205 $75 $130 forward $122 $-1 #
edge $-1 $133 18.693769008878196 $202 21.159167168456733 $129 $206 forward 7 unknown #
coedge $-1 $207 $76 $205 $208 reversed $71 $-1 #
vertex $-1 $127 $209 #
vertex $-1 $130 $210 #
straight-curve $-1 -38.097031042845359 30.264101406452866 71.047576662288265 0 0 1 I I #
face $-1 $211 $212 $17 $-1 $213 reversed single #
loop $-1 $214 $84 $78 #
plane-surface $-1 -53.065056553558669 -7.8275302387634866 56.465943097027207 0 0.77714596973225614 0.62932038083071107 1 0 0 forward_v I I I I #
coedge $-1 $215 $216 $217 $218 reversed $79 $-1 #
coedge $-1 $139 $139 $-1 $219 forward $81 $-1 #
edge $-1 $220 0 $220 6.2831853071796004 $82 $221 forward 7 unknown #
vertex $-1 $85 $222 #
ellipse-curve $-1 -53.065056553558669 29.031402326663606 10.94895085526443 0 -0.77714596973225614 -0.62932038083071107 0.5 0 0 1 I I #
face $-1 $223 $224 $18 $-1 $225 reversed single #
loop $-1 $-1 $152 $86 #
plane-surface $-1 68.03308206427198 0 0 -1 0 0 0 0 1 forward_v I I I I #
coedge $-1 $92 $226 $89 $149 forward $87 $-1 #
coedge $-1 $148 $89 $227 $228 reversed $54 $-1 #
coedge $-1 $89 $147 $90 $151 forward $54 $-1 #
edge $-1 $229 58.576369177600299 $155 61.62088243644736 $146 $230 forward 7 unknown #
coedge $-1 $91 $90 $231 $232 reversed $35 $-1 #
edge $-1 $233 56.610646295311028 $155 60.528202812905732 $148 $234 forward 7 unknown #
coedge $-1 $235 $236 $91 $153 forward $144 $-1 #
edge $-1 $156 -36.124050605001656 $237 -32.206494087406952 $152 $238 forward 7 unknown #
coedge $-1 $239 $92 $236 $240 forward $87 $-1 #
vertex $-1 $93 $241 #
vertex $-1 $240 $242 #
straight-curve $-1 26.532528276779338 30.264101406452873 9.4266942258408974 1 0 0 I I #
face $-1 $243 $244 $19 $-1 $245 reversed single #
loop $-1 $-1 $246 $94 #
plane-surface $-1 38.097031042845366 97.915740830662131 142.09515332457653 1 0 0 0 -0.77714596973225614 -0.62932038083071107 forward_v I I I I #
loop $-1 $-1 $247 $57 #
coedge $-1 $162 $162 $-1 $248 forward $97 $-1 #
edge $-1 $249 0 $249 6.2831853071796004 $98 $250 forward 7 unknown #
vertex $-1 $101 $251 #
ellipse-curve $-1 53.065056553558676 29.031402326663606 10.94895085526443 0 -0.77714596973225614 -0.62932038083071107 0.5 0 0 1 I I #
face $-1 $-1 $117 $15 $-1 $252 reversed single #
loop $-1 $-1 $182 $102 #
plane-surface $-1 0 30.26410140645287 0 0 -1 0 0 0 -1 forward_v I I I I #
coedge $-1 $253 $180 $183 $254 forward $103 $-1 #
coedge $-1 $186 $105 $106 $174 reversed $63 $-1 #
coedge $-1 $180 $253 $105 $172 reversed $103 $-1 #
edge $-1 $187 -12.471207484687962 $255 12.471207484687962 $171 $256 forward 7 unknown #
coedge $-1 $107 $106 $253 $257 forward $41 $-1 #
edge $-1 $178 -68.03308206427198 $255 68.03308206427198 $170 $258 forward 7 unknown #
coedge $-1 $183 $182 $107 $176 reversed $167 $-1 #
edge $-1 $259 -68.03308206427198 $177 68.03308206427198 $175 $260 forward 7 unknown #
vertex $-1 $109 $261 #
vertex $-1 $189 $262 #
straight-curve $-1 68.03308206427198 0 -12.471207484687962 0 -1 0 I I #
coedge $-1 $169 $171 $110 $181 reversed $103 $-1 #
edge $-1 $184 -30.26410140645287 $187 30.26410140645287 $180 $263 forward 7 unknown #
coedge $-1 $175 $111 $116 $190 forward $167 $-1 #
coedge $-1 $111 $175 $169 $254 reversed $167 $-1 #
vertex $-1 $112 $264 #
straight-curve $-1 0 30.26410140645287 12.471207484687962 -1 0 0 I I #
coedge $-1 $113 $170 $115 $189 reversed $63 $-1 #
vertex $-1 $181 $265 #
straight-curve $-1 0 -30.26410140645287 12.471207484687962 1 0 0 I I #
edge $-1 $118 -12.471207484687962 $178 12.471207484687962 $115 $266 forward 7 unknown #
edge $-1 $119 -12.471207484687962 $177 12.471207484687962 $116 $267 forward 7 unknown #
point $-1 68.03308206427198 -30.26410140645287 12.471207484687962 #
point $-1 68.03308206427198 30.26410140645287 12.471207484687962 #
face $-1 $268 $269 $16 $-1 $270 reversed single #
loop $-1 $-1 $271 $121 #
plane-surface $-1 0 0 -12.471207484687962 0 0 1 1 0 0 forward_v I I I I #
coedge $-1 $124 $272 $273 $274 reversed $71 $-1 #
coedge $-1 $126 $125 $204 $275 reversed $45 $-1 #
coedge $-1 $273 $276 $125 $199 forward $277 $-1 #
edge $-1 $278 32.206494087406952 $200 36.124050605001663 $198 $279 forward 7 unknown #
vertex $-1 $274 $280 #
straight-curve $-1 -26.532528276779335 30.264101406452873 9.4266942258408974 1 0 0 I I #
vertex $-1 $275 $281 #
straight-curve $-1 -38.097031042845359 -7.8275302387634866 56.465943097027207 0 -0.62932038083071107 0.77714596973225614 I I #
coedge $-1 $282 $129 $197 $275 forward $122 $-1 #
coedge $-1 $129 $283 $131 $208 forward $122 $-1 #
straight-curve $-1 -38.097031042845359 48.957870415331065 12.471207484687966 0 -1 0 I I #
coedge $-1 $272 $131 $284 $285 forward $71 $-1 #
edge $-1 $286 -68.03308206427198 $133 38.097031042845359 $131 $287 forward 7 unknown #
point $-1 -38.097031042845359 30.264101406452866 9.4266942258409046 #
point $-1 -38.097031042845359 30.26410140645287 12.471207484687962 #
face $-1 $288 $289 $17 $-1 $290 forward single #
loop $-1 $-1 $291 $135 #
plane-surface $-1 0 30.26410140645287 0 0 -1 0 0 0 -1 forward_v I I I I #
loop $-1 $-1 $292 $78 #
coedge $-1 $216 $138 $293 $294 forward $79 $-1 #
coedge $-1 $138 $215 $295 $296 reversed $79 $-1 #
coedge $-1 $297 $291 $138 $218 forward $212 $-1 #
edge $-1 $298 -61.62088243644736 $299 -58.576369177600299 $217 $300 forward 7 unknown #
edge $-1 $301 1 $301 0 $139 $-1 forward 7 unknown #
vertex $-1 $140 $302 #
ellipse-curve $-1 -53.065056553558669 27.827462884067426 9.9740199439289778 0 0.77714596973225614 0.62932038083071107 0.5 0 0 1 I I #
point $-1 -52.565056553558669 29.031402326663596 10.948950855264423 #
face $-1 $303 $304 $18 $-1 $305 reversed single #
loop $-1 $306 $307 $143 #
cone-surface $-1 -53.065056553558669 28.429432605365513 10.4614853995967 0 -0.77714596973225614 -0.62932038083071107 0.5 0 0 1 I I 0 1 0.5 forward I I I I #
coedge $-1 $146 $308 $309 $310 reversed $87 $-1 #
coedge $-1 $309 $231 $147 $228 forward $311 $-1 #
edge $-1 $233 -21.159167168456733 $229 -18.693769008878196 $227 $312 forward 7 unknown #
vertex $-1 $310 $313 #
straight-curve $-1 38.097031042845366 30.264101406452866 71.047576662288265 0 0 -1 I I #
coedge $-1 $227 $314 $150 $232 forward $311 $-1 #
edge $-1 $237 -41.500553787492656 $233 -11.564502766066028 $231 $315 forward 7 unknown #
vertex $-1 $232 $316 #
straight-curve $-1 38.097031042845366 -7.8275302387634866 56.465943097027207 0 0.62932038083071107 -0.77714596973225614 I I #
coedge $-1 $317 $152 $314 $318 reversed $144 $-1 #
coedge $-1 $152 $319 $154 $240 reversed $144 $-1 #
vertex $-1 $232 $320 #
straight-curve $-1 68.03308206427198 7.5305001225653427 37.500354563922016 0 -0.62932038083071107 0.77714596973225614 I I #
coedge $-1 $321 $154 $322 $323 reversed $87 $-1 #
edge $-1 $156 -9.4266942258409046 $324 12.471207484687962 $236 $325 forward 7 unknown #
point $-1 38.097031042845366 30.264101406452866 9.4266942258409046 #
point $-1 68.033082064271994 30.264101406452866 9.4266942258409046 #
face $-1 $326 $327 $19 $-1 $328 reversed single #
loop $-1 $-1 $329 $158 #
plane-surface $-1 0 30.26410140645287 0 0 -1 0 0 0 -1 forward_v I I I I #
coedge $-1 $330 $331 $329 $332 reversed $159 $-1 #
coedge $-1 $333 $334 $335 $336 reversed $161 $-1 #
edge $-1 $337 1 $337 0 $162 $-1 forward 7 unknown #
vertex $-1 $163 $338 #
ellipse-curve $-1 53.065056553558676 27.827462884067426 9.9740199439289778 0 0.77714596973225614 0.62932038083071107 0.5 0 0 1 I I #
point $-1 53.565056553558676 29.031402326663596 10.948950855264423 #
plane-surface $-1 68.03308206427198 0 0 -1 0 0 0 0 1 forward_v I I I I #
coedge $-1 $171 $169 $173 $257 reversed $103 $-1 #
edge $-1 $184 -12.471207484687962 $259 12.471207484687962 $183 $339 forward 7 unknown #
vertex $-1 $257 $340 #
straight-curve $-1 -68.03308206427198 -30.26410140645287 0 0 0 -1 I I #
edge $-1 $255 -30.26410140645287 $259 30.26410140645287 $253 $341 forward 7 unknown #
straight-curve $-1 0 -30.26410140645287 -12.471207484687962 -1 0 0 I I #
vertex $-1 $176 $342 #
straight-curve $-1 0 30.26410140645287 -12.471207484687962 1 0 0 I I #
point $-1 68.03308206427198 30.26410140645287 -12.471207484687962 #
point $-1 68.03308206427198 -30.26410140645287 -12.471207484687962 #
straight-curve $-1 -68.03308206427198 0 12.471207484687962 0 -1 0 I I #
point $-1 -68.03308206427198 30.26410140645287 12.471207484687962 #
point $-1 -68.03308206427198 -30.26410140645287 12.471207484687962 #
straight-curve $-1 68.03308206427198 -30.26410140645287 0 0 0 -1 I I #
straight-curve $-1 68.03308206427198 30.26410140645287 0 0 0 -1 I I #
face $-1 $343 $277 $16 $-1 $344 reversed single #
loop $-1 $-1 $345 $193 #
plane-surface $-1 0 -30.26410140645287 0 0 1 0 0 0 1 forward_v I I I I #
coedge $-1 $346 $347 $348 $349 forward $194 $-1 #
coedge $-1 $196 $207 $347 $350 reversed $71 $-1 #
coedge $-1 $351 $198 $196 $274 forward $277 $-1 #
edge $-1 $200 -9.426694225840901 $352 12.471207484687962 $196 $353 forward 7 unknown #
edge $-1 $202 11.564502766066024 $278 41.500553787492649 $204 $354 forward 7 unknown #
coedge $-1 $198 $355 $282 $356 reversed $277 $-1 #
loop $-1 $-1 $198 $268 #
vertex $-1 $356 $357 #
straight-curve $-1 -68.03308206427198 7.5305001225653427 37.500354563922016 0 0.62932038083071107 -0.77714596973225614 I I #
point $-1 -68.03308206427198 30.26410140645287 9.426694225840901 #
point $-1 -38.097031042845359 27.798703246874332 12.471207484687966 #
coedge $-1 $358 $204 $276 $356 forward $122 $-1 #
coedge $-1 $205 $358 $359 $360 forward $122 $-1 #
coedge $-1 $359 $348 $207 $285 reversed $361 $-1 #
edge $-1 $286 -12.471207484687962 $362 12.471207484687962 $284 $363 forward 7 unknown #
vertex $-1 $360 $364 #
straight-curve $-1 0 30.26410140645287 12.471207484687962 -1 0 0 I I #
face $-1 $365 $366 $17 $-1 $367 reversed single #
loop $-1 $-1 $295 $211 #
plane-surface $-1 0 0 12.471207484687962 0 0 1 1 0 0 forward_v I I I I #
coedge $-1 $217 $368 $292 $369 forward $212 $-1 #
coedge $-1 $370 $293 $291 $369 reversed $214 $-1 #
coedge $-1 $292 $371 $215 $294 reversed $214 $-1 #
edge $-1 $298 -60.528202812905732 $372 -56.610646295311028 $215 $373 forward 7 unknown #
coedge $-1 $374 $375 $216 $296 forward $289 $-1 #
edge $-1 $299 18.693769008878196 $372 21.159167168456733 $295 $376 forward 7 unknown #
coedge $-1 $377 $217 $375 $378 reversed $212 $-1 #
vertex $-1 $369 $379 #
vertex $-1 $296 $380 #
straight-curve $-1 -38.097031042845359 30.264101406452866 71.047576662288265 0 0 1 I I #
vertex $-1 $219 $381 #
point $-1 -52.565056553558669 27.827462884067426 9.9740199439289778 #
face $-1 $382 $383 $18 $-1 $384 forward single #
loop $-1 $385 $386 $223 #
cone-surface $-1 -53.065056553558669 27.633176391634361 9.8166898487212997 0 -0.77714596973225614 -0.62932038083071107 0.25 0 0 1 I I -0.70710678118654746 0.70710678118654746 0.25 forward I I I I #
loop $-1 $-1 $387 $143 #
coedge $-1 $307 $307 $388 $389 reversed $224 $-1 #
coedge $-1 $226 $390 $391 $392 forward $87 $-1 #
coedge $-1 $393 $227 $226 $310 forward $311 $-1 #
edge $-1 $229 -38.097031042845366 $394 38.097031042845359 $226 $395 forward 7 unknown #
loop $-1 $-1 $227 $396 #
straight-curve $-1 38.097031042845366 48.957870415331065 12.471207484687966 0 1 0 I I #
point $-1 38.097031042845366 30.26410140645287 12.471207484687962 #
coedge $-1 $231 $397 $235 $318 forward $311 $-1 #
straight-curve $-1 26.532528276779338 27.798703246874336 12.471207484687959 -1 0 0 I I #
point $-1 38.097031042845366 27.798703246874332 12.471207484687966 #
coedge $-1 $319 $235 $398 $399 forward $144 $-1 #
edge $-1 $400 -30.26410140645287 $237 27.798703246874332 $235 $401 forward 7 unknown #
coedge $-1 $236 $317 $402 $403 reversed $144 $-1 #
point $-1 68.033082064271994 27.798703246874332 12.471207484687966 #
coedge $-1 $390 $239 $404 $405 reversed $87 $-1 #
coedge $-1 $402 $406 $239 $323 forward $407 $-1 #
edge $-1 $408 -68.03308206427198 $324 68.03308206427198 $239 $409 forward 7 unknown #
vertex $-1 $403 $410 #
straight-curve $-1 68.03308206427198 30.26410140645287 0 0 0 -1 I I #
face $-1 $411 $412 $19 $-1 $413 reversed single #
loop $-1 $-1 $414 $243 #
plane-surface $-1 68.03308206427198 0 0 -1 0 0 0 0 1 forward_v I I I I #
coedge $-1 $335 $415 $246 $332 forward $244 $-1 #
coedge $-1 $331 $246 $416 $417 reversed $159 $-1 #
coedge $-1 $246 $330 $333 $418 forward $159 $-1 #
edge $-1 $419 58.576369177600299 $420 61.62088243644736 $329 $421 forward 7 unknown #
coedge $-1 $422 $247 $331 $418 reversed $161 $-1 #
coedge $-1 $247 $422 $414 $423 reversed $161 $-1 #
coedge $-1 $424 $329 $247 $336 forward $244 $-1 #
edge $-1 $420 11.564502766066028 $425 41.500553787492656 $335 $426 forward 7 unknown #
vertex $-1 $248 $427 #
point $-1 53.565056553558676 27.827462884067426 9.9740199439289778 #
straight-curve $-1 -68.03308206427198 30.26410140645287 0 0 0 -1 I I #
point $-1 -68.03308206427198 -30.26410140645287 -12.471207484687962 #
straight-curve $-1 -68.03308206427198 0 -12.471207484687962 0 1 0 I I #
point $-1 -68.03308206427198 30.26410140645287 -12.471207484687962 #
face $-1 $-1 $361 $16 $-1 $428 reversed single #
plane-surface $-1 -68.03308206427198 0 0 1 0 0 0 0 -1 forward_v I I I I #
coedge $-1 $429 $430 $355 $431 forward $269 $-1 #
coedge $-1 $432 $271 $429 $433 forward $194 $-1 #
coedge $-1 $271 $432 $272 $350 forward $194 $-1 #
coedge $-1 $284 $434 $271 $349 reversed $361 $-1 #
edge $-1 $362 -30.26410140645287 $435 30.26410140645287 $348 $436 forward 7 unknown #
edge $-1 $352 -68.03308206427198 $362 68.03308206427198 $272 $437 forward 7 unknown #
coedge $-1 $355 $273 $432 $438 reversed $277 $-1 #
vertex $-1 $350 $439 #
straight-curve $-1 -68.03308206427198 30.26410140645287 0 0 0 -1 I I #
straight-curve $-1 -26.532528276779335 27.798703246874336 12.471207484687959 -1 0 0 I I #
coedge $-1 $276 $351 $345 $431 reversed $277 $-1 #
edge $-1 $278 -27.798703246874332 $440 30.26410140645287 $276 $441 forward 7 unknown #
point $-1 -68.03308206427198 27.798703246874332 12.471207484687966 #
coedge $-1 $283 $282 $430 $442 forward $122 $-1 #
coedge $-1 $434 $284 $283 $360 reversed $361 $-1 #
edge $-1 $443 -30.26410140645287 $286 30.26410140645287 $359 $444 forward 7 unknown #
loop $-1 $-1 $434 $343 #
vertex $-1 $349 $445 #
straight-curve $-1 68.03308206427198 30.26410140645287 0 0 0 -1 I I #
point $-1 68.03308206427198 30.26410140645287 12.471207484687962 #
face $-1 $446 $447 $17 $-1 $448 reversed single #
loop $-1 $-1 $449 $288 #
plane-surface $-1 0 0 -12.471207484687962 0 0 1 1 0 0 forward_v I I I I #
coedge $-1 $291 $450 $451 $452 reversed $212 $-1 #
edge $-1 $453 -41.500553787492649 $298 -11.564502766066024 $291 $454 forward 7 unknown #
coedge $-1 $371 $292 $455 $456 reversed $214 $-1 #
coedge $-1 $293 $370 $374 $457 reversed $214 $-1 #
vertex $-1 $457 $458 #
straight-curve $-1 -38.097031042845359 -7.8275302387634866 56.465943097027207 0 -0.62932038083071107 0.77714596973225614 I I #
coedge $-1 $459 $295 $371 $457 forward $289 $-1 #
coedge $-1 $295 $460 $297 $378 forward $289 $-1 #
straight-curve $-1 -38.097031042845359 48.957870415331065 12.471207484687966 0 -1 0 I I #
coedge $-1 $450 $297 $461 $462 forward $212 $-1 #
edge $-1 $463 -68.03308206427198 $299 38.097031042845359 $297 $464 forward 7 unknown #
point $-1 -38.097031042845359 30.264101406452866 9.4266942258409046 #
point $-1 -38.097031042845359 30.26410140645287 12.471207484687962 #
point $-1 -53.065056553558669 27.438889899201296 9.6593597535136215 #
face $-1 $396 $465 $18 $-1 $466 forward single #
loop $-1 $-1 $391 $303 #
plane-surface $-1 -38.097031042845359 97.915740830662131 142.09515332457653 -1 0 0 0 0.77714596973225614 0.62932038083071107 forward_v I I I I #
loop $-1 $-1 $467 $223 #
coedge $-1 $386 $386 $387 $468 forward $304 $-1 #
coedge $-1 $387 $387 $386 $468 reversed $306 $-1 #
coedge $-1 $388 $388 $307 $389 forward $465 $-1 #
edge $-1 $469 2.3708622835813796e-015 $469 6.2831853071796031 $388 $470 forward 7 unknown #
coedge $-1 $308 $321 $471 $472 forward $87 $-1 #
coedge $-1 $473 $474 $308 $392 reversed $383 $-1 #
edge $-1 $475 -61.62088243644736 $394 -58.576369177600299 $308 $476 forward 7 unknown #
coedge $-1 $477 $309 $474 $478 forward $311 $-1 #
vertex $-1 $478 $479 #
straight-curve $-1 0 30.26410140645287 12.471207484687962 -1 0 0 I I #
face $-1 $480 $311 $18 $-1 $481 forward single #
coedge $-1 $314 $482 $483 $484 forward $311 $-1 #
coedge $-1 $483 $485 $317 $399 reversed $486 $-1 #
edge $-1 $400 -12.471207484687962 $487 12.471207484687962 $317 $488 forward 7 unknown #
vertex $-1 $318 $489 #
straight-curve $-1 68.03308206427198 0 12.471207484687962 0 1 0 I I #
coedge $-1 $490 $322 $319 $403 forward $407 $-1 #
edge $-1 $324 -30.26410140645287 $487 30.26410140645287 $319 $491 forward 7 unknown #
coedge $-1 $492 $493 $321 $405 forward $494 $-1 #
edge $-1 $495 -9.426694225840901 $408 12.471207484687962 $321 $496 forward 7 unknown #
coedge $-1 $322 $490 $492 $497 forward $407 $-1 #
loop $-1 $-1 $402 $480 #
vertex $-1 $323 $498 #
straight-curve $-1 0 30.26410140645287 -12.471207484687962 1 0 0 I I #
point $-1 68.03308206427198 30.26410140645287 -12.471207484687962 #
face $-1 $499 $500 $19 $-1 $501 reversed single #
loop $-1 $502 $503 $326 #
cone-surface $-1 -53.065056553558669 28.429432605365513 10.4614853995967 0 -0.77714596973225614 -0.62932038083071107 0.5 0 0 1 I I 0 1 0.5 forward I I I I #
coedge $-1 $504 $505 $334 $423 forward $327 $-1 #
coedge $-1 $329 $506 $507 $508 reversed $244 $-1 #
coedge $-1 $507 $509 $330 $417 forward $510 $-1 #
edge $-1 $511 -21.159167168456733 $419 -18.693769008878196 $416 $512 forward 7 unknown #
edge $-1 $511 56.610646295311028 $420 60.528202812905732 $331 $513 forward 7 unknown #
vertex $-1 $508 $514 #
vertex $-1 $336 $515 #
straight-curve $-1 38.097031042845366 30.264101406452866 71.047576662288265 0 0 -1 I I #
coedge $-1 $334 $333 $509 $516 reversed $161 $-1 #
edge $-1 $425 -36.124050605001656 $517 -32.206494087406952 $414 $518 forward 7 unknown #
coedge $-1 $519 $335 $505 $520 forward $244 $-1 #
vertex $-1 $520 $521 #
straight-curve $-1 26.532528276779338 30.264101406452873 9.4266942258408974 1 0 0 I I #
point $-1 53.065056553558676 27.438889899201296 9.6593597535136215 #
plane-surface $-1 68.03308206427198 0 0 -1 0 0 0 0 1 forward_v I I I I #
coedge $-1 $522 $345 $346 $433 reversed $269 $-1 #
coedge $-1 $345 $522 $358 $442 reversed $269 $-1 #
edge $-1 $440 -12.471207484687962 $523 12.471207484687962 $355 $524 forward 7 unknown #
coedge $-1 $347 $346 $351 $438 forward $194 $-1 #
edge $-1 $435 -68.03308206427198 $523 68.03308206427198 $429 $525 forward 7 unknown #
coedge $-1 $348 $359 $522 $526 forward $361 $-1 #
vertex $-1 $526 $527 #
straight-curve $-1 68.03308206427198 0 -12.471207484687962 0 -1 0 I I #
straight-curve $-1 0 30.26410140645287 -12.471207484687962 1 0 0 I I #
edge $-1 $523 -30.26410140645287 $352 30.26410140645287 $351 $528 forward 7 unknown #
point $-1 -68.03308206427198 30.26410140645287 -12.471207484687962 #
vertex $-1 $356 $529 #
straight-curve $-1 -68.03308206427198 0 12.471207484687962 0 -1 0 I I #
edge $-1 $440 -68.03308206427198 $443 68.03308206427198 $430 $530 forward 7 unknown #
vertex $-1 $360 $531 #
straight-curve $-1 68.03308206427198 0 12.471207484687962 0 1 0 I I #
point $-1 68.03308206427198 30.26410140645287 -12.471207484687962 #
face $-1 $532 $533 $17 $-1 $534 reversed single #
loop $-1 $-1 $535 $365 #
plane-surface $-1 0 -30.26410140645287 0 0 1 0 0 0 1 forward_v I I I I #
coedge $-1 $536 $537 $538 $539 forward $366 $-1 #
coedge $-1 $368 $377 $537 $540 reversed $212 $-1 #
coedge $-1 $541 $455 $368 $452 forward $533 $-1 #
edge $-1 $453 -9.426694225840901 $542 12.471207484687962 $368 $543 forward 7 unknown #
vertex $-1 $452 $544 #
straight-curve $-1 -26.532528276779335 30.264101406452873 9.4266942258408974 1 0 0 I I #
coedge $-1 $451 $545 $370 $456 forward $533 $-1 #
edge $-1 $546 32.206494087406952 $453 36.124050605001663 $455 $547 forward 7 unknown #
edge $-1 $372 11.564502766066024 $546 41.500553787492649 $374 $548 forward 7 unknown #
point $-1 -38.097031042845359 27.798703246874332 12.471207484687966 #
coedge $-1 $549 $374 $545 $550 forward $289 $-1 #
coedge $-1 $375 $549 $551 $552 forward $289 $-1 #
coedge $-1 $551 $538 $377 $462 reversed $553 $-1 #
edge $-1 $463 -12.471207484687962 $554 12.471207484687962 $461 $555 forward 7 unknown #
vertex $-1 $552 $556 #
straight-curve $-1 0 30.26410140645287 12.471207484687962 -1 0 0 I I #
loop $-1 $557 $388 $382 #
plane-surface $-1 -53.065056553558669 -7.8275302387634866 56.465943097027207 0 0.77714596973225614 0.62932038083071107 1 0 0 forward_v I I I I #
coedge $-1 $467 $467 $-1 $558 forward $385 $-1 #
edge $-1 $559 0 $559 6.2831853071796004 $386 $560 forward 7 unknown #
vertex $-1 $389 $561 #
ellipse-curve $-1 -53.065056553558669 29.031402326663606 10.94895085526443 0 -0.77714596973225614 -0.62932038083071107 0.5 0 0 1 I I #
coedge $-1 $562 $563 $390 $472 reversed $557 $-1 #
edge $-1 $495 -41.500553787492649 $475 -11.564502766066024 $390 $564 forward 7 unknown #
coedge $-1 $474 $391 $563 $565 forward $383 $-1 #
coedge $-1 $391 $473 $393 $478 reversed $383 $-1 #
vertex $-1 $472 $566 #
straight-curve $-1 -38.097031042845359 30.264101406452866 71.047576662288265 0 0 1 I I #
coedge $-1 $482 $393 $567 $568 forward $311 $-1 #
edge $-1 $394 18.693769008878196 $569 21.159167168456733 $393 $570 forward 7 unknown #
point $-1 -38.097031042845359 30.26410140645287 12.471207484687962 #
face $-1 $571 $407 $18 $-1 $572 reversed single #
plane-surface $-1 0 0 12.471207484687962 0 0 1 1 0 0 forward_v I I I I #
coedge $-1 $397 $477 $573 $574 forward $311 $-1 #
coedge $-1 $575 $398 $397 $484 reversed $486 $-1 #
edge $-1 $576 -68.03308206427198 $400 68.03308206427198 $483 $577 forward 7 unknown #
coedge $-1 $398 $575 $490 $578 reversed $486 $-1 #
loop $-1 $-1 $575 $571 #
vertex $-1 $399 $579 #
straight-curve $-1 68.03308206427198 -30.26410140645287 0 0 0 -1 I I #
point $-1 68.03308206427198 -30.26410140645287 12.471207484687962 #
coedge $-1 $406 $402 $485 $578 forward $407 $-1 #
straight-curve $-1 68.03308206427198 0 -12.471207484687962 0 -1 0 I I #
coedge $-1 $580 $404 $406 $497 reversed $494 $-1 #
coedge $-1 $404 $573 $562 $581 forward $494 $-1 #
loop $-1 $-1 $493 $582 #
vertex $-1 $405 $583 #
straight-curve $-1 -68.03308206427198 30.26410140645287 0 0 0 -1 I I #
edge $-1 $584 -30.26410140645287 $408 30.26410140645287 $492 $585 forward 7 unknown #
point $-1 -68.03308206427198 30.26410140645287 -12.471207484687962 #
face $-1 $586 $587 $19 $-1 $588 forward single #
loop $-1 $589 $590 $411 #
cone-surface $-1 -53.065056553558669 27.633176391634361 9.8166898487212997 0 -0.77714596973225614 -0.62932038083071107 0.25 0 0 1 I I -0.70710678118654746 0.70710678118654746 0.25 forward I I I I #
loop $-1 $-1 $591 $326 #
coedge $-1 $503 $503 $592 $593 reversed $412 $-1 #
coedge $-1 $594 $414 $595 $596 reversed $327 $-1 #
coedge $-1 $414 $597 $424 $520 reversed $327 $-1 #
coedge $-1 $415 $598 $599 $600 forward $244 $-1 #
coedge $-1 $601 $416 $415 $508 forward $510 $-1 #
edge $-1 $419 -38.097031042845366 $602 38.097031042845359 $415 $603 forward 7 unknown #
coedge $-1 $416 $595 $422 $516 forward $510 $-1 #
loop $-1 $-1 $416 $604 #
vertex $-1 $516 $605 #
straight-curve $-1 38.097031042845366 48.957870415331065 12.471207484687966 0 1 0 I I #
straight-curve $-1 38.097031042845366 -7.8275302387634866 56.465943097027207 0 0.62932038083071107 -0.77714596973225614 I I #
point $-1 38.097031042845366 30.26410140645287 12.471207484687962 #
point $-1 38.097031042845366 30.264101406452866 9.4266942258409046 #
edge $-1 $517 -41.500553787492656 $511 -11.564502766066028 $509 $606 forward 7 unknown #
vertex $-1 $516 $607 #
straight-curve $-1 68.03308206427198 7.5305001225653427 37.500354563922016 0 -0.62932038083071107 0.77714596973225614 I I #
coedge $-1 $608 $424 $609 $610 reversed $244 $-1 #
edge $-1 $425 -9.4266942258409046 $611 12.471207484687962 $505 $612 forward 7 unknown #
point $-1 68.033082064271994 30.264101406452866 9.4266942258409046 #
coedge $-1 $430 $429 $434 $526 reversed $269 $-1 #
vertex $-1 $438 $613 #
straight-curve $-1 -68.03308206427198 -30.26410140645287 0 0 0 -1 I I #
straight-curve $-1 0 -30.26410140645287 -12.471207484687962 -1 0 0 I I #
edge $-1 $443 -12.471207484687962 $435 12.471207484687962 $434 $614 forward 7 unknown #
point $-1 68.03308206427198 -30.26410140645287 -12.471207484687962 #
straight-curve $-1 -68.03308206427198 0 -12.471207484687962 0 1 0 I I #
point $-1 -68.03308206427198 -30.26410140645287 12.471207484687962 #
straight-curve $-1 0 -30.26410140645287 12.471207484687962 1 0 0 I I #
point $-1 68.03308206427198 -30.26410140645287 12.471207484687962 #
face $-1 $-1 $553 $17 $-1 $615 reversed single #
loop $-1 $-1 $455 $446 #
plane-surface $-1 -68.03308206427198 0 0 1 0 0 0 0 -1 forward_v I I I I #
coedge $-1 $616 $617 $618 $619 forward $447 $-1 #
coedge $-1 $620 $449 $616 $621 forward $366 $-1 #
coedge $-1 $449 $620 $450 $540 forward $366 $-1 #
coedge $-1 $461 $622 $449 $539 reversed $553 $-1 #
edge $-1 $554 -30.26410140645287 $623 30.26410140645287 $538 $624 forward 7 unknown #
edge $-1 $542 -68.03308206427198 $554 68.03308206427198 $450 $625 forward 7 unknown #
coedge $-1 $618 $451 $620 $626 reversed $533 $-1 #
vertex $-1 $540 $627 #
straight-curve $-1 -68.03308206427198 30.26410140645287 0 0 0 -1 I I #
point $-1 -68.03308206427198 30.26410140645287 9.426694225840901 #
coedge $-1 $455 $618 $459 $550 reversed $533 $-1 #
vertex $-1 $550 $628 #
straight-curve $-1 -68.03308206427198 7.5305001225653427 37.500354563922016 0 0.62932038083071107 -0.77714596973225614 I I #
straight-curve $-1 -26.532528276779335 27.798703246874336 12.471207484687959 -1 0 0 I I #
coedge $-1 $460 $459 $617 $629 forward $289 $-1 #
edge $-1 $546 -27.798703246874332 $630 30.26410140645287 $545 $631 forward 7 unknown #
coedge $-1 $622 $461 $460 $552 reversed $553 $-1 #
edge $-1 $632 -30.26410140645287 $463 30.26410140645287 $551 $633 forward 7 unknown #
loop $-1 $-1 $622 $532 #
vertex $-1 $539 $634 #
straight-curve $-1 68.03308206427198 30.26410140645287 0 0 0 -1 I I #
point $-1 68.03308206427198 30.26410140645287 12.471207484687962 #
loop $-1 $-1 $471 $382 #
edge $-1 $635 1 $635 0 $467 $-1 forward 7 unknown #
vertex $-1 $468 $636 #
ellipse-curve $-1 -53.065056553558669 27.827462884067426 9.9740199439289778 0 0.77714596973225614 0.62932038083071107 0.5 0 0 1 I I #
point $-1 -52.565056553558669 29.031402326663596 10.948950855264423 #
coedge $-1 $567 $471 $493 $581 reversed $557 $-1 #
coedge $-1 $471 $567 $473 $565 reversed $557 $-1 #
straight-curve $-1 -26.532528276779335 30.264101406452873 9.4266942258408974 1 0 0 I I #
edge $-1 $475 -60.528202812905732 $569 -56.610646295311028 $473 $637 forward 7 unknown #
point $-1 -38.097031042845359 30.264101406452866 9.4266942258409046 #
coedge $-1 $563 $562 $477 $568 reversed $557 $-1 #
edge $-1 $569 11.564502766066024 $638 41.500553787492649 $477 $639 forward 7 unknown #
vertex $-1 $568 $640 #
straight-curve $-1 -38.097031042845359 48.957870415331065 12.471207484687966 0 -1 0 I I #
face $-1 $582 $486 $18 $-1 $641 reversed single #
plane-surface $-1 0 0 -12.471207484687962 0 0 1 1 0 0 forward_v I I I I #
coedge $-1 $493 $580 $482 $574 reversed $494 $-1 #
edge $-1 $638 -27.798703246874332 $576 30.26410140645287 $573 $642 forward 7 unknown #
coedge $-1 $485 $483 $580 $643 forward $486 $-1 #
vertex $-1 $574 $644 #
straight-curve $-1 0 -30.26410140645287 12.471207484687962 1 0 0 I I #
edge $-1 $487 -68.03308206427198 $584 68.03308206427198 $485 $645 forward 7 unknown #
point $-1 68.03308206427198 -30.26410140645287 -12.471207484687962 #
coedge $-1 $573 $492 $575 $643 reversed $494 $-1 #
edge $-1 $638 32.206494087406952 $495 36.124050605001663 $493 $646 forward 7 unknown #
face $-1 $-1 $494 $18 $-1 $647 reversed single #
point $-1 -68.03308206427198 30.26410140645287 9.426694225840901 #
vertex $-1 $497 $648 #
straight-curve $-1 -68.03308206427198 0 -12.471207484687962 0 1 0 I I #
face $-1 $604 $649 $19 $-1 $650 forward single #
loop $-1 $-1 $599 $499 #
plane-surface $-1 -38.097031042845359 97.915740830662131 142.09515332457653 -1 0 0 0 0.77714596973225614 0.62932038083071107 forward_v I I I I #
loop $-1 $-1 $651 $411 #
coedge $-1 $590 $590 $591 $652 forward $500 $-1 #
coedge $-1 $591 $591 $590 $652 reversed $502 $-1 #
coedge $-1 $592 $592 $503 $593 forward $649 $-1 #
edge $-1 $653 2.3708622835813796e-015 $653 6.2831853071796031 $592 $654 forward 7 unknown #
coedge $-1 $597 $504 $655 $656 forward $327 $-1 #
coedge $-1 $509 $657 $504 $596 forward $510 $-1 #
edge $-1 $658 -30.26410140645287 $517 27.798703246874332 $504 $659 forward 7 unknown #
coedge $-1 $505 $594 $660 $661 reversed $327 $-1 #
coedge $-1 $506 $608 $662 $663 forward $244 $-1 #
coedge $-1 $664 $665 $506 $600 reversed $587 $-1 #
edge $-1 $666 -61.62088243644736 $602 -58.576369177600299 $506 $667 forward 7 unknown #
coedge $-1 $668 $507 $665 $669 forward $510 $-1 #
vertex $-1 $669 $670 #
straight-curve $-1 0 30.26410140645287 12.471207484687962 -1 0 0 I I #
face $-1 $671 $510 $19 $-1 $672 forward single #
point $-1 38.097031042845366 27.798703246874332 12.471207484687966 #
straight-curve $-1 26.532528276779338 27.798703246874336 12.471207484687959 -1 0 0 I I #
point $-1 68.033082064271994 27.798703246874332 12.471207484687966 #
coedge $-1 $598 $519 $673 $674 reversed $244 $-1 #
coedge $-1 $660 $675 $519 $610 forward $676 $-1 #
edge $-1 $677 -68.03308206427198 $611 68.03308206427198 $519 $678 forward 7 unknown #
vertex $-1 $661 $679 #
straight-curve $-1 68.03308206427198 30.26410140645287 0 0 0 -1 I I #
point $-1 -68.03308206427198 -30.26410140645287 -12.471207484687962 #
straight-curve $-1 68.03308206427198 -30.26410140645287 0 0 0 -1 I I #
plane-surface $-1 68.03308206427198 0 0 -1 0 0 0 0 1 forward_v I I I I #
coedge $-1 $680 $535 $536 $621 reversed $447 $-1 #
coedge $-1 $535 $680 $549 $629 reversed $447 $-1 #
coedge $-1 $545 $541 $535 $619 reversed $533 $-1 #
edge $-1 $630 -12.471207484687962 $681 12.471207484687962 $618 $682 forward 7 unknown #
coedge $-1 $537 $536 $541 $626 forward $366 $-1 #
edge $-1 $623 -68.03308206427198 $681 68.03308206427198 $616 $683 forward 7 unknown #
coedge $-1 $538 $551 $680 $684 forward $553 $-1 #
vertex $-1 $684 $685 #
straight-curve $-1 68.03308206427198 0 -12.471207484687962 0 -1 0 I I #
straight-curve $-1 0 30.26410140645287 -12.471207484687962 1 0 0 I I #
edge $-1 $681 -30.26410140645287 $542 30.26410140645287 $541 $686 forward 7 unknown #
point $-1 -68.03308206427198 30.26410140645287 -12.471207484687962 #
point $-1 -68.03308206427198 27.798703246874332 12.471207484687966 #
edge $-1 $630 -68.03308206427198 $632 68.03308206427198 $617 $687 forward 7 unknown #
vertex $-1 $550 $688 #
straight-curve $-1 -68.03308206427198 0 12.471207484687962 0 -1 0 I I #
vertex $-1 $552 $689 #
straight-curve $-1 68.03308206427198 0 12.471207484687962 0 1 0 I I #
point $-1 68.03308206427198 30.26410140645287 -12.471207484687962 #
vertex $-1 $558 $690 #
point $-1 -52.565056553558669 27.827462884067426 9.9740199439289778 #
straight-curve $-1 -38.097031042845359 -7.8275302387634866 56.465943097027207 0 -0.62932038083071107 0.77714596973225614 I I #
vertex $-1 $574 $691 #
straight-curve $-1 -26.532528276779335 27.798703246874336 12.471207484687959 -1 0 0 I I #
point $-1 -38.097031042845359 27.798703246874332 12.471207484687966 #
plane-surface $-1 0 -30.26410140645287 0 0 1 0 0 0 1 forward_v I I I I #
straight-curve $-1 -68.03308206427198 0 12.471207484687962 0 -1 0 I I #
edge $-1 $576 -12.471207484687962 $584 12.471207484687962 $580 $692 forward 7 unknown #
point $-1 -68.03308206427198 -30.26410140645287 12.471207484687962 #
straight-curve $-1 0 -30.26410140645287 -12.471207484687962 -1 0 0 I I #
straight-curve $-1 -68.03308206427198 7.5305001225653427 37.500354563922016 0 0.62932038083071107 -0.77714596973225614 I I #
plane-surface $-1 -68.03308206427198 0 0 1 0 0 0 0 -1 forward_v I I I I #
point $-1 -68.03308206427198 -30.26410140645287 -12.471207484687962 #
loop $-1 $693 $592 $586 #
plane-surface $-1 -53.065056553558669 -7.8275302387634866 56.465943097027207 0 0.77714596973225614 0.62932038083071107 1 0 0 forward_v I I I I #
coedge $-1 $651 $651 $-1 $694 forward $589 $-1 #
edge $-1 $695 0 $695 6.2831853071796004 $590 $696 forward 7 unknown #
vertex $-1 $593 $697 #
ellipse-curve $-1 -53.065056553558669 29.031402326663606 10.94895085526443 0 -0.77714596973225614 -0.62932038083071107 0.5 0 0 1 I I #
coedge $-1 $698 $699 $594 $656 reversed $700 $-1 #
edge $-1 $658 -12.471207484687962 $701 12.471207484687962 $594 $702 forward 7 unknown #
coedge $-1 $595 $703 $698 $704 forward $510 $-1 #
vertex $-1 $596 $705 #
straight-curve $-1 68.03308206427198 0 12.471207484687962 0 1 0 I I #
coedge $-1 $706 $609 $597 $661 forward $676 $-1 #
edge $-1 $611 -30.26410140645287 $701 30.26410140645287 $597 $707 forward 7 unknown #
coedge $-1 $708 $709 $598 $663 reversed $693 $-1 #
edge $-1 $710 -41.500553787492649 $666 -11.564502766066024 $598 $711 forward 7 unknown #
coedge $-1 $665 $599 $709 $712 forward $587 $-1 #
coedge $-1 $599 $664 $601 $669 reversed $587 $-1 #
vertex $-1 $663 $713 #
straight-curve $-1 -38.097031042845359 30.264101406452866 71.047576662288265 0 0 1 I I #
coedge $-1 $703 $601 $714 $715 forward $510 $-1 #
edge $-1 $602 18.693769008878196 $716 21.159167168456733 $601 $717 forward 7 unknown #
point $-1 -38.097031042845359 30.26410140645287 12.471207484687962 #
face $-1 $718 $676 $19 $-1 $719 reversed single #
plane-surface $-1 0 0 12.471207484687962 0 0 1 1 0 0 forward_v I I I I #
coedge $-1 $720 $721 $608 $674 forward $722 $-1 #
edge $-1 $710 -9.426694225840901 $677 12.471207484687962 $608 $723 forward 7 unknown #
coedge $-1 $609 $706 $720 $724 forward $676 $-1 #
loop $-1 $-1 $660 $671 #
vertex $-1 $610 $725 #
straight-curve $-1 0 30.26410140645287 -12.471207484687962 1 0 0 I I #
point $-1 68.03308206427198 30.26410140645287 -12.471207484687962 #
coedge $-1 $617 $616 $622 $684 reversed $447 $-1 #
vertex $-1 $626 $726 #
straight-curve $-1 -68.03308206427198 -30.26410140645287 0 0 0 -1 I I #
straight-curve $-1 0 -30.26410140645287 -12.471207484687962 -1 0 0 I I #
edge $-1 $632 -12.471207484687962 $623 12.471207484687962 $622 $727 forward 7 unknown #
point $-1 68.03308206427198 -30.26410140645287 -12.471207484687962 #
straight-curve $-1 -68.03308206427198 0 -12.471207484687962 0 1 0 I I #
straight-curve $-1 0 -30.26410140645287 12.471207484687962 1 0 0 I I #
point $-1 -68.03308206427198 -30.26410140645287 12.471207484687962 #
point $-1 68.03308206427198 -30.26410140645287 12.471207484687962 #
point $-1 -53.065056553558669 27.438889899201296 9.6593597535136215 #
point $-1 -68.03308206427198 27.798703246874332 12.471207484687966 #
straight-curve $-1 -68.03308206427198 -30.26410140645287 0 0 0 -1 I I #
loop $-1 $-1 $662 $586 #
edge $-1 $728 1 $728 0 $651 $-1 forward 7 unknown #
vertex $-1 $652 $729 #
ellipse-curve $-1 -53.065056553558669 27.827462884067426 9.9740199439289778 0 0.77714596973225614 0.62932038083071107 0.5 0 0 1 I I #
point $-1 -52.565056553558669 29.031402326663596 10.948950855264423 #
coedge $-1 $730 $655 $657 $704 reversed $700 $-1 #
coedge $-1 $655 $730 $706 $731 reversed $700 $-1 #
loop $-1 $-1 $730 $718 #
vertex $-1 $656 $732 #
straight-curve $-1 68.03308206427198 -30.26410140645287 0 0 0 -1 I I #
coedge $-1 $657 $668 $733 $734 forward $510 $-1 #
edge $-1 $735 -68.03308206427198 $658 68.03308206427198 $698 $736 forward 7 unknown #
point $-1 68.03308206427198 -30.26410140645287 12.471207484687962 #
coedge $-1 $675 $660 $699 $731 forward $676 $-1 #
straight-curve $-1 68.03308206427198 0 -12.471207484687962 0 -1 0 I I #
coedge $-1 $714 $662 $721 $737 reversed $693 $-1 #
coedge $-1 $662 $714 $664 $712 reversed $693 $-1 #
vertex $-1 $674 $738 #
straight-curve $-1 -26.532528276779335 30.264101406452873 9.4266942258408974 1 0 0 I I #
edge $-1 $666 -60.528202812905732 $716 -56.610646295311028 $664 $739 forward 7 unknown #
point $-1 -38.097031042845359 30.264101406452866 9.4266942258409046 #
coedge $-1 $709 $708 $668 $715 reversed $693 $-1 #
edge $-1 $716 11.564502766066024 $740 41.500553787492649 $668 $741 forward 7 unknown #
vertex $-1 $715 $742 #
straight-curve $-1 -38.097031042845359 48.957870415331065 12.471207484687966 0 -1 0 I I #
face $-1 $743 $700 $19 $-1 $744 reversed single #
plane-surface $-1 0 0 -12.471207484687962 0 0 1 1 0 0 forward_v I I I I #
coedge $-1 $745 $673 $675 $724 reversed $722 $-1 #
coedge $-1 $673 $733 $708 $737 forward $722 $-1 #
loop $-1 $-1 $721 $743 #
straight-curve $-1 -68.03308206427198 30.26410140645287 0 0 0 -1 I I #
edge $-1 $746 -30.26410140645287 $677 30.26410140645287 $720 $747 forward 7 unknown #
point $-1 -68.03308206427198 30.26410140645287 -12.471207484687962 #
point $-1 -68.03308206427198 -30.26410140645287 -12.471207484687962 #
straight-curve $-1 68.03308206427198 -30.26410140645287 0 0 0 -1 I I #
vertex $-1 $694 $748 #
point $-1 -52.565056553558669 27.827462884067426 9.9740199439289778 #
coedge $-1 $699 $698 $745 $749 forward $700 $-1 #
edge $-1 $701 -68.03308206427198 $746 68.03308206427198 $699 $750 forward 7 unknown #
point $-1 68.03308206427198 -30.26410140645287 -12.471207484687962 #
coedge $-1 $721 $745 $703 $734 reversed $722 $-1 #
edge $-1 $740 -27.798703246874332 $735 30.26410140645287 $733 $751 forward 7 unknown #
vertex $-1 $734 $752 #
straight-curve $-1 0 -30.26410140645287 12.471207484687962 1 0 0 I I #
edge $-1 $740 32.206494087406952 $710 36.124050605001663 $721 $753 forward 7 unknown #
point $-1 -68.03308206427198 30.26410140645287 9.426694225840901 #
straight-curve $-1 -38.097031042845359 -7.8275302387634866 56.465943097027207 0 -0.62932038083071107 0.77714596973225614 I I #
vertex $-1 $734 $754 #
straight-curve $-1 -26.532528276779335 27.798703246874336 12.471207484687959 -1 0 0 I I #
point $-1 -38.097031042845359 27.798703246874332 12.471207484687966 #
face $-1 $-1 $722 $19 $-1 $755 reversed single #
plane-surface $-1 0 -30.26410140645287 0 0 1 0 0 0 1 forward_v I I I I #
coedge $-1 $733 $720 $730 $749 reversed $722 $-1 #
vertex $-1 $724 $756 #
straight-curve $-1 -68.03308206427198 0 -12.471207484687962 0 1 0 I I #
point $-1 -53.065056553558669 27.438889899201296 9.6593597535136215 #
edge $-1 $735 -12.471207484687962 $746 12.471207484687962 $745 $757 forward 7 unknown #
straight-curve $-1 0 -30.26410140645287 -12.471207484687962 -1 0 0 I I #
straight-curve $-1 -68.03308206427198 0 12.471207484687962 0 -1 0 I I #
point $-1 -68.03308206427198 -30.26410140645287 12.471207484687962 #
straight-curve $-1 -68.03308206427198 7.5305001225653427 37.500354563922016 0 0.62932038083071107 -0.77714596973225614 I I #
point $-1 -68.03308206427198 27.798703246874332 12.471207484687966 #
plane-surface $-1 -68.03308206427198 0 0 1 0 0 0 0 -1 forward_v I I I I #
point $-1 -68.03308206427198 -30.26410140645287 -12.471207484687962 #
straight-curve $-1 -68.03308206427198 -30.26410140645287 0 0 0 -1 I I #
End-of-ACIS-data 