500 0 3 0           
7 Unknown 11 ACIS 5.0 NT 24 Thu Mar 25 21:39:03 1999 
-1 9.9999999999999995e-007 1e-010 
body $-1 $3 $-1 $4 #
body $-1 $5 $-1 $6 #
body $-1 $7 $-1 $8 #
lump $-1 $-1 $9 $0 #
transform $-1 1 0 0 0 1 0 0 0 1 79.731437116611232 36.180509002560271 16.060670053585625 1 rotate no_reflect no_shear #
lump $-1 $-1 $10 $1 #
transform $-1 1 0 0 0 1 0 0 0 1 79.731437116611232 36.180509002560271 16.060670053585625 1 rotate no_reflect no_shear #
lump $-1 $-1 $11 $2 #
transform $-1 1 0 0 0 1 0 0 0 1 79.731437116611232 36.180509002560271 16.060670053585625 1 rotate no_reflect no_shear #
shell $-1 $-1 $-1 $12 $-1 $3 #
shell $-1 $-1 $-1 $13 $-1 $5 #
shell $-1 $-1 $-1 $14 $-1 $7 #
face $-1 $15 $16 $9 $-1 $17 forward single #
face $-1 $18 $19 $10 $-1 $20 reversed single #
face $-1 $21 $22 $11 $-1 $23 forward single #
face $-1 $24 $25 $9 $-1 $26 reversed single #
loop $-1 $-1 $27 $12 #
plane-surface $-1 0 0 16.060670053585625 0 0 1 1 0 0 forward_v I I I I #
face $-1 $28 $29 $10 $-1 $30 forward single #
loop $-1 $-1 $31 $13 #
plane-surface $-1 0 -27.20895312886358 -10.287808340364371 0 0 1 1 0 0 forward_v I I I I #
face $-1 $32 $33 $11 $-1 $34 forward single #
loop $-1 $-1 $35 $14 #
plane-surface $-1 -65.842208798283039 24.121169592483273 0 0 1 0 0 0 1 forward_v I I I I #
face $-1 $36 $37 $9 $-1 $38 reversed single #
loop $-1 $-1 $39 $15 #
plane-surface $-1 0 0 -16.060670053585625 0 0 1 1 0 0 forward_v I I I I #
coedge $-1 $40 $41 $42 $43 forward $16 $-1 #
face $-1 $44 $45 $10 $-1 $46 reversed single #
loop $-1 $-1 $47 $18 #
plane-surface $-1 0 -18.23739725516689 -13.174239196974998 0 -1 0 0 0 -1 forward_v I I I I #
coedge $-1 $48 $49 $50 $51 reversed $19 $-1 #
face $-1 $52 $53 $11 $-1 $54 forward single #
loop $-1 $-1 $55 $21 #
plane-surface $-1 -68.373380593800533 30.15083929752177 0 1 0 0 0 0 -1 forward_v I I I I #
coedge $-1 $56 $57 $58 $59 reversed $22 $-1 #
face $-1 $60 $61 $9 $-1 $62 reversed single #
loop $-1 $-1 $63 $24 #
plane-surface $-1 0 -36.180509002560271 0 0 1 0 0 0 1 forward_v I I I I #
coedge $-1 $64 $65 $66 $67 forward $25 $-1 #
coedge $-1 $68 $27 $69 $70 forward $16 $-1 #
coedge $-1 $27 $68 $71 $72 forward $16 $-1 #
coedge $-1 $73 $74 $27 $43 reversed $75 $-1 #
edge $-1 $76 -36.180509002560271 $77 36.180509002560271 $42 $78 forward 7 unknown #
face $-1 $79 $80 $10 $-1 $81 reversed single #
loop $-1 $-1 $82 $28 #
plane-surface $-1 0 -36.180509002560271 0 0 1 0 0 0 1 forward_v I I I I #
coedge $-1 $83 $84 $85 $86 reversed $29 $-1 #
coedge $-1 $87 $31 $82 $88 reversed $19 $-1 #
coedge $-1 $31 $87 $83 $89 reversed $19 $-1 #
coedge $-1 $85 $90 $31 $51 forward $91 $-1 #
edge $-1 $92 -22.576032438128479 $93 -4.6329206907350997 $50 $94 forward 7 unknown #
face $-1 $95 $96 $11 $-1 $97 reversed single #
loop $-1 $-1 $98 $32 #
plane-surface $-1 -63.311037002765552 30.15083929752177 0 -1 0 0 0 0 1 forward_v I I I I #
coedge $-1 $99 $100 $101 $102 reversed $33 $-1 #
coedge $-1 $103 $35 $104 $105 reversed $22 $-1 #
coedge $-1 $35 $103 $106 $107 reversed $22 $-1 #
coedge $-1 $100 $99 $35 $59 forward $33 $-1 #
edge $-1 $108 -16.060670053585625 $109 16.060670053585625 $58 $110 forward 7 unknown #
face $-1 $111 $112 $9 $-1 $113 reversed single #
loop $-1 $-1 $114 $36 #
plane-surface $-1 -79.731437116611232 0 0 1 0 0 0 0 -1 forward_v I I I I #
coedge $-1 $115 $71 $116 $117 forward $37 $-1 #
coedge $-1 $118 $39 $115 $119 forward $25 $-1 #
coedge $-1 $39 $118 $120 $121 forward $25 $-1 #
coedge $-1 $74 $73 $39 $67 reversed $75 $-1 #
edge $-1 $122 -36.180509002560271 $123 36.180509002560271 $66 $124 forward 7 unknown #
coedge $-1 $41 $40 $125 $126 forward $16 $-1 #
coedge $-1 $127 $128 $40 $70 reversed $112 $-1 #
edge $-1 $77 -79.731437116611232 $129 79.731437116611232 $69 $130 forward 7 unknown #
coedge $-1 $63 $131 $41 $72 reversed $37 $-1 #
edge $-1 $132 -79.731437116611232 $76 79.731437116611232 $71 $133 forward 7 unknown #
coedge $-1 $66 $42 $131 $134 forward $75 $-1 #
coedge $-1 $42 $66 $127 $135 reversed $75 $-1 #
loop $-1 $-1 $73 $111 #
vertex $-1 $43 $136 #
vertex $-1 $43 $137 #
straight-curve $-1 79.731437116611232 0 16.060670053585625 0 1 0 I I #
face $-1 $138 $139 $10 $-1 $140 forward single #
loop $-1 $-1 $141 $44 #
plane-surface $-1 0 0 -16.060670053585625 0 0 1 1 0 0 forward_v I I I I #
coedge $-1 $142 $143 $48 $88 forward $45 $-1 #
coedge $-1 $144 $47 $49 $89 forward $29 $-1 #
coedge $-1 $47 $144 $141 $145 reversed $29 $-1 #
coedge $-1 $146 $50 $47 $86 forward $91 $-1 #
edge $-1 $93 3.7006887418768724 $147 9.4735504550981258 $85 $148 forward 7 unknown #
coedge $-1 $49 $48 $149 $150 reversed $19 $-1 #
edge $-1 $151 -79.731437116611232 $92 79.731437116611232 $82 $152 forward 7 unknown #
edge $-1 $93 -79.731437116611232 $153 79.731437116611232 $83 $154 forward 7 unknown #
coedge $-1 $50 $155 $142 $156 forward $91 $-1 #
loop $-1 $-1 $85 $157 #
vertex $-1 $88 $158 #
vertex $-1 $51 $159 #
straight-curve $-1 79.731437116611232 -13.60447656443179 -10.287808340364371 0 1 0 I I #
face $-1 $160 $161 $11 $-1 $162 reversed single #
loop $-1 $-1 $163 $52 #
plane-surface $-1 0 0 -16.060670053585625 0 0 1 1 0 0 forward_v I I I I #
coedge $-1 $164 $165 $103 $166 reversed $53 $-1 #
coedge $-1 $58 $55 $167 $168 reversed $33 $-1 #
coedge $-1 $55 $58 $163 $169 reversed $33 $-1 #
coedge $-1 $170 $171 $55 $102 forward $172 $-1 #
edge $-1 $173 -16.060670053585625 $174 16.060670053585625 $101 $175 forward 7 unknown #
coedge $-1 $57 $56 $98 $166 forward $22 $-1 #
coedge $-1 $167 $176 $56 $105 forward $177 $-1 #
edge $-1 $178 30.389932603624032 $108 35.452276194659014 $104 $179 forward 7 unknown #
coedge $-1 $180 $163 $57 $107 forward $96 $-1 #
edge $-1 $109 -35.452276194659014 $181 -30.389932603624032 $106 $182 forward 7 unknown #
vertex $-1 $105 $183 #
vertex $-1 $107 $184 #
straight-curve $-1 -68.373380593800533 24.121169592483273 0 0 0 -1 I I #
face $-1 $-1 $75 $9 $-1 $185 reversed single #
loop $-1 $-1 $127 $60 #
plane-surface $-1 0 36.180509002560271 0 0 -1 0 0 0 -1 forward_v I I I I #
coedge $-1 $186 $125 $128 $187 forward $61 $-1 #
coedge $-1 $131 $63 $64 $119 reversed $37 $-1 #
coedge $-1 $125 $186 $63 $117 reversed $61 $-1 #
edge $-1 $132 -16.060670053585625 $188 16.060670053585625 $116 $189 forward 7 unknown #
coedge $-1 $65 $64 $186 $190 forward $25 $-1 #
edge $-1 $123 -79.731437116611232 $188 79.731437116611232 $115 $191 forward 7 unknown #
coedge $-1 $128 $127 $65 $121 reversed $112 $-1 #
edge $-1 $192 -79.731437116611232 $122 79.731437116611232 $120 $193 forward 7 unknown #
vertex $-1 $67 $194 #
vertex $-1 $134 $195 #
straight-curve $-1 79.731437116611232 0 -16.060670053585625 0 -1 0 I I #
coedge $-1 $114 $116 $68 $126 reversed $61 $-1 #
edge $-1 $129 -36.180509002560271 $132 36.180509002560271 $125 $196 forward 7 unknown #
coedge $-1 $120 $69 $74 $135 forward $112 $-1 #
coedge $-1 $69 $120 $114 $187 reversed $112 $-1 #
vertex $-1 $70 $197 #
straight-curve $-1 0 36.180509002560271 16.060670053585625 -1 0 0 I I #
coedge $-1 $71 $115 $73 $134 reversed $37 $-1 #
vertex $-1 $126 $198 #
straight-curve $-1 0 -36.180509002560271 16.060670053585625 1 0 0 I I #
edge $-1 $76 -16.060670053585625 $123 16.060670053585625 $73 $199 forward 7 unknown #
edge $-1 $77 -16.060670053585625 $122 16.060670053585625 $74 $200 forward 7 unknown #
point $-1 79.731437116611232 -36.180509002560271 16.060670053585625 #
point $-1 79.731437116611232 36.180509002560271 16.060670053585625 #
face $-1 $201 $202 $10 $-1 $203 reversed single #
loop $-1 $-1 $204 $79 #
plane-surface $-1 0 0 16.060670053585625 0 0 1 1 0 0 forward_v I I I I #
coedge $-1 $205 $206 $84 $145 forward $80 $-1 #
coedge $-1 $207 $82 $90 $156 reversed $45 $-1 #
coedge $-1 $82 $207 $208 $209 forward $45 $-1 #
coedge $-1 $84 $83 $210 $211 reversed $29 $-1 #
edge $-1 $147 -79.731437116611232 $212 79.731437116611232 $141 $213 forward 7 unknown #
coedge $-1 $214 $85 $206 $215 reversed $91 $-1 #
vertex $-1 $145 $216 #
straight-curve $-1 79.731437116611232 -18.23739725516689 -6.5871195984874991 0 0 -1 I I #
coedge $-1 $208 $210 $87 $150 forward $202 $-1 #
edge $-1 $153 4.6329206907350997 $151 22.576032438128479 $149 $217 forward 7 unknown #
vertex $-1 $88 $218 #
straight-curve $-1 0 -36.180509002560271 -10.287808340364371 1 0 0 I I #
vertex $-1 $150 $219 #
straight-curve $-1 0 -18.23739725516689 -10.287808340364371 -1 0 0 I I #
coedge $-1 $90 $214 $204 $220 reversed $91 $-1 #
edge $-1 $221 -16.060670053585625 $92 10.287808340364371 $90 $222 forward 7 unknown #
face $-1 $-1 $91 $10 $-1 $223 reversed single #
point $-1 79.731437116611232 -36.180509002560271 -10.287808340364371 #
point $-1 79.731437116611232 -18.23739725516689 -10.287808340364371 #
face $-1 $224 $225 $11 $-1 $226 reversed single #
loop $-1 $-1 $227 $95 #
plane-surface $-1 0 36.180509002560271 0 0 -1 0 0 0 -1 forward_v I I I I #
coedge $-1 $106 $228 $100 $169 forward $96 $-1 #
coedge $-1 $229 $98 $176 $230 reversed $53 $-1 #
coedge $-1 $98 $229 $180 $231 reversed $53 $-1 #
edge $-1 $178 -16.060670053585625 $181 16.060670053585625 $98 $232 forward 7 unknown #
coedge $-1 $233 $104 $99 $168 forward $177 $-1 #
edge $-1 $108 9.0457499437223881 $173 21.105089353799386 $167 $234 forward 7 unknown #
edge $-1 $174 -21.105089353799386 $109 -9.0457499437223881 $163 $235 forward 7 unknown #
coedge $-1 $236 $101 $228 $237 reversed $172 $-1 #
coedge $-1 $101 $236 $233 $238 reversed $172 $-1 #
loop $-1 $-1 $101 $239 #
vertex $-1 $238 $240 #
vertex $-1 $102 $241 #
straight-curve $-1 -68.373380593800533 36.180509002560271 0 0 0 -1 I I #
coedge $-1 $104 $242 $164 $230 forward $177 $-1 #
loop $-1 $-1 $167 $243 #
vertex $-1 $105 $244 #
straight-curve $-1 -32.92110439914152 24.121169592483273 16.060670053585625 -1 0 0 I I #
coedge $-1 $245 $106 $165 $231 forward $96 $-1 #
vertex $-1 $107 $246 #
straight-curve $-1 -32.92110439914152 24.121169592483273 -16.060670053585625 1 0 0 I I #
point $-1 -68.373380593800533 24.121169592483273 16.060670053585625 #
point $-1 -68.373380593800533 24.121169592483273 -16.060670053585625 #
plane-surface $-1 79.731437116611232 0 0 -1 0 0 0 0 1 forward_v I I I I #
coedge $-1 $116 $114 $118 $190 reversed $61 $-1 #
edge $-1 $129 -16.060670053585625 $192 16.060670053585625 $128 $247 forward 7 unknown #
vertex $-1 $190 $248 #
straight-curve $-1 -79.731437116611232 -36.180509002560271 0 0 0 -1 I I #
edge $-1 $188 -36.180509002560271 $192 36.180509002560271 $186 $249 forward 7 unknown #
straight-curve $-1 0 -36.180509002560271 -16.060670053585625 -1 0 0 I I #
vertex $-1 $121 $250 #
straight-curve $-1 0 36.180509002560271 -16.060670053585625 1 0 0 I I #
point $-1 79.731437116611232 36.180509002560271 -16.060670053585625 #
point $-1 79.731437116611232 -36.180509002560271 -16.060670053585625 #
straight-curve $-1 -79.731437116611232 0 16.060670053585625 0 -1 0 I I #
point $-1 -79.731437116611232 36.180509002560271 16.060670053585625 #
point $-1 -79.731437116611232 -36.180509002560271 16.060670053585625 #
straight-curve $-1 79.731437116611232 -36.180509002560271 0 0 0 -1 I I #
straight-curve $-1 79.731437116611232 36.180509002560271 0 0 0 -1 I I #
face $-1 $157 $251 $10 $-1 $252 reversed single #
loop $-1 $-1 $149 $138 #
plane-surface $-1 -79.731437116611232 0 0 1 0 0 0 0 -1 forward_v I I I I #
coedge $-1 $253 $254 $155 $220 forward $139 $-1 #
coedge $-1 $255 $141 $256 $257 forward $80 $-1 #
coedge $-1 $141 $255 $146 $215 forward $80 $-1 #
coedge $-1 $143 $142 $254 $258 reversed $45 $-1 #
coedge $-1 $259 $149 $143 $209 reversed $202 $-1 #
edge $-1 $260 -16.060670053585625 $151 10.287808340364371 $208 $261 forward 7 unknown #
coedge $-1 $149 $256 $144 $211 forward $202 $-1 #
edge $-1 $212 -9.4735504550981258 $153 -3.7006887418768724 $210 $262 forward 7 unknown #
vertex $-1 $257 $263 #
straight-curve $-1 0 -18.23739725516689 -16.060670053585625 -1 0 0 I I #
coedge $-1 $155 $146 $264 $265 reversed $91 $-1 #
edge $-1 $266 -36.180509002560271 $147 18.23739725516689 $146 $267 forward 7 unknown #
point $-1 79.731437116611232 -18.23739725516689 -16.060670053585625 #
straight-curve $-1 -79.731437116611232 -13.60447656443179 -10.287808340364371 0 -1 0 I I #
point $-1 -79.731437116611232 -36.180509002560271 -10.287808340364371 #
point $-1 -79.731437116611232 -18.23739725516689 -10.287808340364371 #
edge $-1 $221 -36.180509002560271 $268 36.180509002560271 $155 $269 forward 7 unknown #
vertex $-1 $220 $270 #
straight-curve $-1 79.731437116611232 -36.180509002560271 0 0 0 -1 I I #
plane-surface $-1 79.731437116611232 0 0 -1 0 0 0 0 1 forward_v I I I I #
face $-1 $271 $272 $11 $-1 $273 forward single #
loop $-1 $-1 $274 $160 #
plane-surface $-1 0 -27.20895312886358 -10.287808340364371 0 0 1 1 0 0 forward_v I I I I #
coedge $-1 $275 $276 $229 $277 forward $161 $-1 #
coedge $-1 $163 $278 $170 $237 forward $96 $-1 #
coedge $-1 $165 $164 $227 $277 reversed $53 $-1 #
edge $-1 $279 -21.105089353799386 $178 -9.0457499437223881 $176 $280 forward 7 unknown #
edge $-1 $181 9.0457499437223881 $281 21.105089353799386 $180 $282 forward 7 unknown #
straight-curve $-1 -63.311037002765552 24.121169592483273 0 0 0 -1 I I #
coedge $-1 $283 $167 $171 $238 forward $177 $-1 #
straight-curve $-1 -68.373380593800533 15.075419648760885 16.060670053585625 0 1 0 I I #
straight-curve $-1 -68.373380593800533 15.075419648760885 -16.060670053585625 0 -1 0 I I #
coedge $-1 $171 $170 $284 $285 reversed $172 $-1 #
edge $-1 $286 -79.731437116611232 $174 -68.373380593800533 $170 $287 forward 7 unknown #
edge $-1 $173 68.373380593800533 $288 79.731437116611232 $171 $289 forward 7 unknown #
face $-1 $290 $172 $11 $-1 $162 reversed single #
point $-1 -68.373380593800533 36.180509002560271 16.060670053585625 #
point $-1 -68.373380593800533 36.180509002560271 -16.060670053585625 #
coedge $-1 $176 $291 $275 $292 forward $177 $-1 #
face $-1 $293 $177 $11 $-1 $294 forward single #
point $-1 -63.311037002765552 24.121169592483273 16.060670053585625 #
coedge $-1 $295 $180 $276 $296 forward $96 $-1 #
point $-1 -63.311037002765552 24.121169592483273 -16.060670053585625 #
straight-curve $-1 -79.731437116611232 36.180509002560271 0 0 0 -1 I I #
point $-1 -79.731437116611232 -36.180509002560271 -16.060670053585625 #
straight-curve $-1 -79.731437116611232 0 -16.060670053585625 0 1 0 I I #
point $-1 -79.731437116611232 36.180509002560271 -16.060670053585625 #
loop $-1 $-1 $264 $201 #
plane-surface $-1 0 36.180509002560271 0 0 -1 0 0 0 -1 forward_v I I I I #
coedge $-1 $297 $204 $298 $299 forward $139 $-1 #
coedge $-1 $204 $297 $207 $258 forward $139 $-1 #
coedge $-1 $206 $205 $300 $301 forward $80 $-1 #
coedge $-1 $210 $302 $205 $257 reversed $202 $-1 #
edge $-1 $212 -18.23739725516689 $303 36.180509002560271 $256 $304 forward 7 unknown #
edge $-1 $260 -79.731437116611232 $221 79.731437116611232 $207 $305 forward 7 unknown #
coedge $-1 $302 $208 $297 $306 reversed $202 $-1 #
vertex $-1 $306 $307 #
straight-curve $-1 -79.731437116611232 -36.180509002560271 0 0 0 -1 I I #
straight-curve $-1 -79.731437116611232 -18.23739725516689 -6.5871195984874991 0 0 1 I I #
point $-1 -79.731437116611232 -18.23739725516689 -16.060670053585625 #
coedge $-1 $300 $298 $214 $265 forward $251 $-1 #
edge $-1 $268 -16.060670053585625 $266 16.060670053585625 $214 $308 forward 7 unknown #
vertex $-1 $215 $309 #
straight-curve $-1 79.731437116611232 0 -16.060670053585625 0 -1 0 I I #
vertex $-1 $220 $310 #
straight-curve $-1 79.731437116611232 0 16.060670053585625 0 1 0 I I #
point $-1 79.731437116611232 -36.180509002560271 16.060670053585625 #
face $-1 $243 $311 $11 $-1 $312 reversed single #
loop $-1 $-1 $313 $224 #
plane-surface $-1 0 -18.23739725516689 -13.174239196974998 0 -1 0 0 0 -1 forward_v I I I I #
coedge $-1 $314 $315 $316 $317 reversed $225 $-1 #
coedge $-1 $318 $227 $242 $292 reversed $161 $-1 #
coedge $-1 $227 $318 $245 $296 reversed $161 $-1 #
edge $-1 $281 -16.060670053585625 $279 16.060670053585625 $227 $319 forward 7 unknown #
coedge $-1 $228 $320 $321 $322 forward $96 $-1 #
vertex $-1 $230 $323 #
straight-curve $-1 -63.311037002765552 15.075419648760885 16.060670053585625 0 -1 0 I I #
vertex $-1 $296 $324 #
straight-curve $-1 -63.311037002765552 15.075419648760885 -16.060670053585625 0 1 0 I I #
coedge $-1 $325 $233 $326 $327 forward $177 $-1 #
coedge $-1 $321 $326 $236 $285 forward $328 $-1 #
edge $-1 $288 -16.060670053585625 $286 16.060670053585625 $236 $329 forward 7 unknown #
vertex $-1 $237 $330 #
straight-curve $-1 0 36.180509002560271 -16.060670053585625 1 0 0 I I #
vertex $-1 $238 $331 #
straight-curve $-1 0 36.180509002560271 16.060670053585625 -1 0 0 I I #
face $-1 $-1 $332 $11 $-1 $333 reversed single #
coedge $-1 $242 $325 $334 $335 forward $177 $-1 #
edge $-1 $336 -79.731437116611232 $279 63.311037002765552 $275 $289 forward 7 unknown #
face $-1 $239 $328 $11 $-1 $337 reversed single #
plane-surface $-1 0 0 16.060670053585625 0 0 1 1 0 0 forward_v I I I I #
coedge $-1 $320 $245 $338 $339 forward $96 $-1 #
edge $-1 $281 -63.311037002765552 $340 79.731437116611232 $276 $287 forward 7 unknown #
coedge $-1 $254 $253 $259 $306 forward $139 $-1 #
coedge $-1 $264 $341 $253 $299 reversed $251 $-1 #
edge $-1 $268 -79.731437116611232 $342 79.731437116611232 $298 $343 forward 7 unknown #
coedge $-1 $341 $264 $255 $301 reversed $251 $-1 #
edge $-1 $303 -79.731437116611232 $266 79.731437116611232 $300 $344 forward 7 unknown #
coedge $-1 $256 $259 $341 $345 forward $202 $-1 #
vertex $-1 $301 $346 #
straight-curve $-1 -79.731437116611232 0 -16.060670053585625 0 1 0 I I #
straight-curve $-1 0 -36.180509002560271 16.060670053585625 1 0 0 I I #
edge $-1 $342 -36.180509002560271 $260 36.180509002560271 $259 $347 forward 7 unknown #
point $-1 -79.731437116611232 -36.180509002560271 16.060670053585625 #
straight-curve $-1 79.731437116611232 36.180509002560271 0 0 0 -1 I I #
point $-1 79.731437116611232 36.180509002560271 -16.060670053585625 #
point $-1 79.731437116611232 36.180509002560271 16.060670053585625 #
loop $-1 $-1 $348 $271 #
plane-surface $-1 0 -36.180509002560271 0 0 1 0 0 0 1 forward_v I I I I #
coedge $-1 $349 $350 $351 $352 reversed $272 $-1 #
coedge $-1 $353 $274 $348 $354 reversed $225 $-1 #
coedge $-1 $274 $353 $349 $355 reversed $225 $-1 #
coedge $-1 $351 $356 $274 $317 forward $332 $-1 #
edge $-1 $357 -22.576032438128479 $358 -4.6329206907350997 $316 $359 forward 7 unknown #
coedge $-1 $276 $275 $360 $361 forward $161 $-1 #
straight-curve $-1 -63.311037002765552 36.180509002560271 0 0 0 1 I I #
coedge $-1 $278 $295 $350 $362 forward $96 $-1 #
coedge $-1 $363 $284 $278 $322 reversed $328 $-1 #
edge $-1 $364 -18.23739725516689 $286 36.180509002560271 $321 $365 forward 7 unknown #
point $-1 -63.311037002765552 36.180509002560271 16.060670053585625 #
point $-1 -63.311037002765552 36.180509002560271 -16.060670053585625 #
coedge $-1 $291 $283 $366 $367 forward $177 $-1 #
coedge $-1 $284 $368 $283 $327 reversed $328 $-1 #
edge $-1 $288 -36.180509002560271 $369 36.180509002560271 $326 $370 forward 7 unknown #
loop $-1 $-1 $371 $293 #
straight-curve $-1 -79.731437116611232 36.180509002560271 0 0 0 -1 I I #
point $-1 -79.731437116611232 36.180509002560271 -16.060670053585625 #
point $-1 -79.731437116611232 36.180509002560271 16.060670053585625 #
loop $-1 $-1 $351 $290 #
plane-surface $-1 79.731437116611232 0 0 -1 0 0 0 0 1 forward_v I I I I #
coedge $-1 $356 $360 $291 $335 reversed $332 $-1 #
edge $-1 $372 -36.180509002560271 $336 36.180509002560271 $334 $373 forward 7 unknown #
vertex $-1 $335 $374 #
plane-surface $-1 -79.731437116611232 0 0 1 0 0 0 0 -1 forward_v I I I I #
coedge $-1 $360 $351 $295 $339 reversed $332 $-1 #
edge $-1 $340 -36.180509002560271 $375 18.23739725516689 $338 $376 forward 7 unknown #
vertex $-1 $339 $377 #
coedge $-1 $298 $300 $302 $345 reversed $251 $-1 #
vertex $-1 $299 $378 #
straight-curve $-1 0 36.180509002560271 16.060670053585625 -1 0 0 I I #
straight-curve $-1 0 36.180509002560271 -16.060670053585625 1 0 0 I I #
edge $-1 $342 -16.060670053585625 $303 16.060670053585625 $341 $379 forward 7 unknown #
point $-1 -79.731437116611232 36.180509002560271 -16.060670053585625 #
straight-curve $-1 -79.731437116611232 0 16.060670053585625 0 -1 0 I I #
coedge $-1 $380 $381 $314 $354 forward $311 $-1 #
coedge $-1 $382 $313 $315 $355 forward $272 $-1 #
coedge $-1 $313 $382 $320 $362 reversed $272 $-1 #
coedge $-1 $338 $316 $313 $352 forward $332 $-1 #
edge $-1 $358 3.7006887418768724 $375 9.4735504550981258 $351 $383 forward 7 unknown #
coedge $-1 $315 $314 $371 $384 reversed $225 $-1 #
edge $-1 $385 -79.731437116611232 $357 79.731437116611232 $348 $386 forward 7 unknown #
edge $-1 $358 -79.731437116611232 $387 79.731437116611232 $349 $388 forward 7 unknown #
coedge $-1 $316 $334 $380 $389 forward $332 $-1 #
vertex $-1 $354 $390 #
vertex $-1 $317 $391 #
straight-curve $-1 79.731437116611232 -13.60447656443179 -10.287808340364371 0 1 0 I I #
coedge $-1 $334 $338 $318 $361 reversed $332 $-1 #
edge $-1 $336 -16.060670053585625 $340 16.060670053585625 $360 $392 forward 7 unknown #
edge $-1 $375 -79.731437116611232 $364 79.731437116611232 $320 $393 forward 7 unknown #
coedge $-1 $371 $321 $382 $394 forward $328 $-1 #
vertex $-1 $322 $395 #
straight-curve $-1 -79.731437116611232 0 -16.060670053585625 0 1 0 I I #
coedge $-1 $381 $380 $325 $367 reversed $311 $-1 #
edge $-1 $369 -79.731437116611232 $372 79.731437116611232 $366 $396 forward 7 unknown #
coedge $-1 $326 $371 $381 $397 reversed $328 $-1 #
vertex $-1 $327 $398 #
straight-curve $-1 -79.731437116611232 0 16.060670053585625 0 -1 0 I I #
coedge $-1 $368 $363 $353 $384 forward $328 $-1 #
vertex $-1 $335 $399 #
straight-curve $-1 79.731437116611232 0 16.060670053585625 0 1 0 I I #
point $-1 79.731437116611232 36.180509002560271 16.060670053585625 #
vertex $-1 $362 $400 #
straight-curve $-1 79.731437116611232 0 -16.060670053585625 0 -1 0 I I #
point $-1 79.731437116611232 36.180509002560271 -16.060670053585625 #
point $-1 -79.731437116611232 36.180509002560271 16.060670053585625 #
straight-curve $-1 -79.731437116611232 36.180509002560271 0 0 0 -1 I I #
coedge $-1 $366 $348 $356 $389 reversed $311 $-1 #
coedge $-1 $348 $366 $368 $397 forward $311 $-1 #
coedge $-1 $350 $349 $363 $394 reversed $272 $-1 #
straight-curve $-1 79.731437116611232 -18.23739725516689 -6.5871195984874991 0 0 -1 I I #
edge $-1 $387 4.6329206907350997 $385 22.576032438128479 $371 $401 forward 7 unknown #
vertex $-1 $354 $402 #
straight-curve $-1 0 -36.180509002560271 -10.287808340364371 1 0 0 I I #
vertex $-1 $384 $403 #
straight-curve $-1 0 -18.23739725516689 -10.287808340364371 -1 0 0 I I #
edge $-1 $372 -16.060670053585625 $357 10.287808340364371 $356 $404 forward 7 unknown #
point $-1 79.731437116611232 -36.180509002560271 -10.287808340364371 #
point $-1 79.731437116611232 -18.23739725516689 -10.287808340364371 #
straight-curve $-1 79.731437116611232 36.180509002560271 0 0 0 -1 I I #
straight-curve $-1 0 -18.23739725516689 -16.060670053585625 -1 0 0 I I #
edge $-1 $364 -9.4735504550981258 $387 -3.7006887418768724 $363 $405 forward 7 unknown #
point $-1 -79.731437116611232 -18.23739725516689 -16.060670053585625 #
straight-curve $-1 0 -36.180509002560271 16.060670053585625 1 0 0 I I #
edge $-1 $369 -16.060670053585625 $385 10.287808340364371 $368 $406 forward 7 unknown #
point $-1 -79.731437116611232 -36.180509002560271 16.060670053585625 #
point $-1 79.731437116611232 -36.180509002560271 16.060670053585625 #
point $-1 79.731437116611232 -18.23739725516689 -16.060670053585625 #
straight-curve $-1 -79.731437116611232 -13.60447656443179 -10.287808340364371 0 -1 0 I I #
point $-1 -79.731437116611232 -36.180509002560271 -10.287808340364371 #
point $-1 -79.731437116611232 -18.23739725516689 -10.287808340364371 #
straight-curve $-1 79.731437116611232 -36.180509002560271 0 0 0 -1 I I #
straight-curve $-1 -79.731437116611232 -18.23739725516689 -6.5871195984874991 0 0 1 I I #
straight-curve $-1 -79.731437116611232 -36.180509002560271 0 0 0 -1 I I #
End-of-ACIS-data 