500 0 5 0           
7 Unknown 11 ACIS 5.0 NT 24 Thu Mar 25 15:56:29 1999 
-1 9.9999999999999995e-007 1e-010 
body $-1 $5 $-1 $6 #
body $-1 $7 $-1 $8 #
body $-1 $9 $-1 $10 #
body $-1 $11 $-1 $12 #
body $-1 $13 $-1 $14 #
lump $-1 $-1 $15 $0 #
transform $-1 1 0 0 0 1 0 0 0 1 74.872890408032475 40.528519403672888 16.856806529279346 1 rotate no_reflect no_shear #
lump $-1 $-1 $16 $1 #
transform $-1 1 0 0 0 1 0 0 0 1 74.872890408032475 40.528519403672888 16.856806529279346 1 rotate no_reflect no_shear #
lump $-1 $-1 $17 $2 #
transform $-1 1 0 0 0 1 0 0 0 1 74.872890408032475 40.528519403672888 16.856806529279346 1 rotate no_reflect no_shear #
lump $-1 $-1 $18 $3 #
transform $-1 1 0 0 0 1 0 0 0 1 74.872890408032475 40.528519403672888 16.856806529279346 1 rotate no_reflect no_shear #
lump $-1 $-1 $19 $4 #
transform $-1 1 0 0 0 1 0 0 0 1 74.872890408032475 40.528519403672888 16.856806529279346 1 rotate no_reflect no_shear #
shell $-1 $-1 $-1 $20 $-1 $5 #
shell $-1 $-1 $-1 $21 $-1 $7 #
shell $-1 $-1 $-1 $22 $-1 $9 #
shell $-1 $-1 $-1 $23 $-1 $11 #
shell $-1 $-1 $-1 $24 $-1 $13 #
face $-1 $25 $26 $15 $-1 $27 forward single #
face $-1 $28 $29 $16 $-1 $30 forward single #
face $-1 $31 $32 $17 $-1 $33 forward single #
face $-1 $34 $35 $18 $-1 $36 reversed single #
face $-1 $37 $38 $19 $-1 $39 forward single #
face $-1 $40 $41 $15 $-1 $42 reversed single #
loop $-1 $-1 $43 $20 #
plane-surface $-1 0 0 16.856806529279346 0 0 1 1 0 0 forward_v I I I I #
face $-1 $44 $45 $16 $-1 $46 reversed single #
loop $-1 $-1 $47 $21 #
plane-surface $-1 0 -33.435665790532042 1.056324580311454 0 0 1 1 0 0 forward_v I I I I #
face $-1 $48 $49 $17 $-1 $50 reversed single #
loop $-1 $-1 $51 $22 #
plane-surface $-1 0 33.435665790532042 1.056324580311454 0 0 1 1 0 0 forward_v I I I I #
face $-1 $52 $53 $18 $-1 $54 reversed single #
loop $-1 $-1 $55 $23 #
plane-surface $-1 -204.55654186256993 -14.093770082204893 85.130485959549333 0 -1 0 0.86602541151947299 0 -0.49999998660252726 forward_v I I I I #
face $-1 $56 $57 $19 $-1 $58 forward single #
loop $-1 $59 $60 $24 #
cone-surface $-1 -72.136619149514317 -20.218291129798047 13.077283235600211 0.86602541151947299 0 -0.49999998660252726 0.49999998660252726 0 0.86602541151947299 1 I I 0 1 1 forward I I I I #
face $-1 $61 $62 $15 $-1 $63 reversed single #
loop $-1 $-1 $64 $25 #
plane-surface $-1 0 0 -16.856806529279346 0 0 1 1 0 0 forward_v I I I I #
coedge $-1 $65 $66 $67 $68 forward $26 $-1 #
face $-1 $69 $70 $16 $-1 $71 reversed single #
loop $-1 $-1 $72 $28 #
plane-surface $-1 0 -33.435665790532042 -8.3173706548336277 0 0 1 1 0 0 forward_v I I I I #
coedge $-1 $73 $74 $75 $76 reversed $29 $-1 #
face $-1 $77 $78 $17 $-1 $79 reversed single #
loop $-1 $-1 $80 $31 #
plane-surface $-1 0 33.435665790532042 -8.3173706548336277 0 0 1 1 0 0 forward_v I I I I #
coedge $-1 $81 $82 $83 $84 reversed $32 $-1 #
face $-1 $85 $86 $18 $-1 $87 reversed single #
loop $-1 $-1 $88 $34 #
plane-surface $-1 -74.872890408032475 -20.218291129798047 10.25759755773187 -0.86602541151947299 0 0.49999998660252726 0.49999998660252726 0 0.86602541151947299 forward_v I I I I #
coedge $-1 $89 $90 $91 $92 reversed $35 $-1 #
face $-1 $-1 $93 $19 $-1 $94 forward single #
loop $-1 $95 $96 $37 #
cone-surface $-1 -70.872362655257035 -20.218291129798047 12.347364434393551 0.86602541151947299 0 -0.49999998660252726 0.24999999330126363 0 0.43301270575973649 1 I I -0.70710678118654746 0.70710678118654746 0.5 forward I I I I #
loop $-1 $-1 $97 $24 #
coedge $-1 $60 $60 $98 $99 reversed $38 $-1 #
face $-1 $100 $101 $15 $-1 $102 reversed single #
loop $-1 $-1 $103 $40 #
plane-surface $-1 0 -40.528519403672888 0 0 1 0 0 0 1 forward_v I I I I #
coedge $-1 $104 $105 $106 $107 forward $41 $-1 #
coedge $-1 $108 $43 $109 $110 forward $26 $-1 #
coedge $-1 $43 $108 $111 $112 forward $26 $-1 #
coedge $-1 $113 $114 $43 $68 reversed $115 $-1 #
edge $-1 $116 -40.528519403672888 $117 40.528519403672888 $67 $118 forward 7 unknown #
face $-1 $119 $120 $16 $-1 $121 reversed single #
loop $-1 $-1 $122 $44 #
plane-surface $-1 0 -26.342812177391195 -3.6305230372610868 0 -1 0 0 0 -1 forward_v I I I I #
coedge $-1 $123 $124 $125 $126 reversed $45 $-1 #
coedge $-1 $127 $47 $128 $129 forward $29 $-1 #
coedge $-1 $47 $127 $130 $131 reversed $29 $-1 #
coedge $-1 $132 $133 $47 $76 forward $134 $-1 #
edge $-1 $135 9.6249792821251745 $136 23.810686508406867 $75 $137 forward 7 unknown #
face $-1 $138 $139 $17 $-1 $140 reversed single #
loop $-1 $-1 $141 $48 #
plane-surface $-1 0 26.342812177391195 -3.6305230372610868 0 1 0 0 0 1 forward_v I I I I #
coedge $-1 $142 $143 $144 $145 reversed $49 $-1 #
coedge $-1 $146 $51 $147 $148 reversed $32 $-1 #
coedge $-1 $51 $146 $149 $150 forward $32 $-1 #
coedge $-1 $151 $152 $51 $84 forward $139 $-1 #
edge $-1 $153 -23.810686508406867 $154 -9.6249792821251745 $83 $155 forward 7 unknown #
face $-1 $156 $157 $18 $-1 $158 reversed single #
loop $-1 $-1 $159 $52 #
plane-surface $-1 -204.55654186256993 -26.342812177391203 85.130485959549333 0 1 0 -0.86602541151947299 0 0.49999998660252726 forward_v I I I I #
coedge $-1 $160 $161 $162 $163 reversed $53 $-1 #
coedge $-1 $90 $55 $164 $165 reversed $35 $-1 #
coedge $-1 $55 $89 $160 $166 reversed $35 $-1 #
coedge $-1 $162 $167 $55 $92 forward $157 $-1 #
edge $-1 $168 25.70843645049532 $169 32.307645422042796 $91 $170 forward 7 unknown #
loop $-1 $-1 $98 $56 #
plane-surface $-1 -74.872890408032475 -20.218291129798047 10.25759755773187 -0.86602541151947299 0 0.49999998660252726 0.49999998660252726 0 0.86602541151947299 forward_v I I I I #
loop $-1 $-1 $171 $37 #
coedge $-1 $96 $96 $97 $172 reversed $57 $-1 #
coedge $-1 $97 $97 $96 $172 forward $59 $-1 #
coedge $-1 $98 $98 $60 $99 forward $93 $-1 #
edge $-1 $173 0 $173 6.2831853071796004 $98 $174 forward 7 unknown #
face $-1 $175 $176 $15 $-1 $177 reversed single #
loop $-1 $-1 $178 $61 #
plane-surface $-1 -74.872890408032475 0 0 1 0 0 0 0 -1 forward_v I I I I #
coedge $-1 $179 $111 $180 $181 forward $62 $-1 #
coedge $-1 $182 $64 $179 $183 forward $41 $-1 #
coedge $-1 $64 $182 $184 $185 forward $41 $-1 #
coedge $-1 $114 $113 $64 $107 reversed $115 $-1 #
edge $-1 $186 -40.528519403672888 $187 40.528519403672888 $106 $188 forward 7 unknown #
coedge $-1 $66 $65 $189 $190 forward $26 $-1 #
coedge $-1 $191 $192 $65 $110 reversed $176 $-1 #
edge $-1 $117 -74.872890408032475 $193 74.872890408032475 $109 $194 forward 7 unknown #
coedge $-1 $103 $195 $66 $112 reversed $62 $-1 #
edge $-1 $196 -74.872890408032475 $116 74.872890408032475 $111 $197 forward 7 unknown #
coedge $-1 $106 $67 $195 $198 forward $115 $-1 #
coedge $-1 $67 $106 $191 $199 reversed $115 $-1 #
loop $-1 $-1 $113 $175 #
vertex $-1 $68 $200 #
vertex $-1 $68 $201 #
straight-curve $-1 74.872890408032475 0 16.856806529279346 0 1 0 I I #
face $-1 $202 $203 $16 $-1 $204 reversed single #
loop $-1 $-1 $205 $69 #
plane-surface $-1 -74.872890408032475 0 0 1 0 0 0 0 -1 forward_v I I I I #
coedge $-1 $206 $128 $133 $207 reversed $70 $-1 #
coedge $-1 $208 $72 $209 $210 reversed $45 $-1 #
coedge $-1 $72 $208 $206 $211 forward $45 $-1 #
coedge $-1 $133 $132 $72 $126 forward $134 $-1 #
edge $-1 $212 -23.810686508406867 $213 -9.6249792821251745 $125 $214 forward 7 unknown #
coedge $-1 $74 $73 $205 $215 reversed $29 $-1 #
coedge $-1 $122 $216 $73 $129 reversed $70 $-1 #
edge $-1 $135 -74.872890408032475 $217 74.872890408032475 $128 $218 forward 7 unknown #
coedge $-1 $219 $220 $74 $131 forward $203 $-1 #
edge $-1 $136 -74.872890408032475 $221 74.872890408032475 $130 $222 forward 7 unknown #
coedge $-1 $125 $75 $220 $223 forward $134 $-1 #
coedge $-1 $75 $125 $122 $207 forward $134 $-1 #
loop $-1 $-1 $75 $202 #
vertex $-1 $76 $224 #
vertex $-1 $223 $225 #
straight-curve $-1 74.872890408032475 -16.717832895266021 1.056324580311454 0 -1 0 I I #
face $-1 $226 $227 $17 $-1 $228 reversed single #
loop $-1 $-1 $83 $77 #
plane-surface $-1 74.872890408032475 0 0 -1 0 0 0 0 1 forward_v I I I I #
coedge $-1 $229 $149 $230 $231 reversed $78 $-1 #
coedge $-1 $232 $80 $229 $233 forward $49 $-1 #
coedge $-1 $80 $232 $234 $235 reversed $49 $-1 #
coedge $-1 $152 $151 $80 $145 forward $139 $-1 #
edge $-1 $236 9.6249792821251745 $237 23.810686508406867 $144 $238 forward 7 unknown #
coedge $-1 $82 $81 $239 $240 reversed $32 $-1 #
coedge $-1 $241 $242 $81 $148 forward $243 $-1 #
edge $-1 $244 -74.872890408032475 $153 74.872890408032475 $147 $245 forward 7 unknown #
coedge $-1 $141 $246 $82 $150 reversed $78 $-1 #
edge $-1 $247 -74.872890408032475 $154 74.872890408032475 $149 $248 forward 7 unknown #
coedge $-1 $144 $83 $246 $249 forward $139 $-1 #
coedge $-1 $83 $144 $241 $250 reversed $139 $-1 #
vertex $-1 $250 $251 #
vertex $-1 $84 $252 #
straight-curve $-1 74.872890408032475 16.717832895266021 1.056324580311454 0 -1 0 I I #
face $-1 $-1 $253 $18 $-1 $254 forward single #
loop $-1 $-1 $91 $85 #
plane-surface $-1 -74.872890408032475 0 0 1 0 0 0 0 -1 forward_v I I I I #
coedge $-1 $255 $256 $257 $258 reversed $86 $-1 #
coedge $-1 $259 $88 $90 $166 forward $53 $-1 #
coedge $-1 $88 $259 $255 $260 forward $53 $-1 #
coedge $-1 $257 $91 $88 $163 forward $157 $-1 #
edge $-1 $169 3.9846245173058694 $261 16.233666612492179 $162 $262 forward 7 unknown #
coedge $-1 $263 $264 $89 $165 forward $253 $-1 #
edge $-1 $265 -31.21543546329373 $168 -27.405380523252489 $164 $266 forward 7 unknown #
edge $-1 $169 0 $265 7.6201100842629135 $90 $267 forward 7 unknown #
coedge $-1 $91 $257 $263 $268 reversed $157 $-1 #
vertex $-1 $268 $269 #
vertex $-1 $92 $270 #
straight-curve $-1 -74.872890408032475 -14.093770082204893 42.565242979774666 0 0 -1 I I #
coedge $-1 $171 $171 $-1 $271 reversed $95 $-1 #
edge $-1 $272 0 $272 6.2831853071796004 $96 $273 forward 7 unknown #
vertex $-1 $99 $274 #
ellipse-curve $-1 -72.967862938011862 -20.218291129798047 13.557202043505605 -0.86602541151947299 0 0.49999998660252726 0.49999998660252726 0 0.86602541151947299 1 I I #
face $-1 $-1 $115 $15 $-1 $275 reversed single #
loop $-1 $-1 $191 $100 #
plane-surface $-1 0 40.528519403672888 0 0 -1 0 0 0 -1 forward_v I I I I #
coedge $-1 $276 $189 $192 $277 forward $101 $-1 #
coedge $-1 $195 $103 $104 $183 reversed $62 $-1 #
coedge $-1 $189 $276 $103 $181 reversed $101 $-1 #
edge $-1 $196 -16.856806529279346 $278 16.856806529279346 $180 $279 forward 7 unknown #
coedge $-1 $105 $104 $276 $280 forward $41 $-1 #
edge $-1 $187 -74.872890408032475 $278 74.872890408032475 $179 $281 forward 7 unknown #
coedge $-1 $192 $191 $105 $185 reversed $176 $-1 #
edge $-1 $282 -74.872890408032475 $186 74.872890408032475 $184 $283 forward 7 unknown #
vertex $-1 $107 $284 #
vertex $-1 $198 $285 #
straight-curve $-1 74.872890408032475 0 -16.856806529279346 0 -1 0 I I #
coedge $-1 $178 $180 $108 $190 reversed $101 $-1 #
edge $-1 $193 -40.528519403672888 $196 40.528519403672888 $189 $286 forward 7 unknown #
coedge $-1 $184 $109 $114 $199 forward $176 $-1 #
coedge $-1 $109 $184 $178 $277 reversed $176 $-1 #
vertex $-1 $110 $287 #
straight-curve $-1 0 40.528519403672888 16.856806529279346 -1 0 0 I I #
coedge $-1 $111 $179 $113 $198 reversed $62 $-1 #
vertex $-1 $190 $288 #
straight-curve $-1 0 -40.528519403672888 16.856806529279346 1 0 0 I I #
edge $-1 $116 -16.856806529279346 $187 16.856806529279346 $113 $289 forward 7 unknown #
edge $-1 $117 -16.856806529279346 $186 16.856806529279346 $114 $290 forward 7 unknown #
point $-1 74.872890408032475 -40.528519403672888 16.856806529279346 #
point $-1 74.872890408032475 40.528519403672888 16.856806529279346 #
face $-1 $-1 $134 $16 $-1 $291 reversed single #
loop $-1 $-1 $130 $119 #
plane-surface $-1 0 -40.528519403672888 0 0 1 0 0 0 1 forward_v I I I I #
coedge $-1 $292 $293 $127 $215 forward $120 $-1 #
coedge $-1 $216 $122 $124 $211 reversed $70 $-1 #
edge $-1 $213 -6.5021091362030843 $135 2.8715860989419975 $133 $294 forward 7 unknown #
coedge $-1 $124 $123 $295 $296 reversed $45 $-1 #
coedge $-1 $220 $219 $123 $210 forward $203 $-1 #
edge $-1 $297 -74.872890408032475 $212 74.872890408032475 $209 $298 forward 7 unknown #
edge $-1 $299 -74.872890408032475 $213 74.872890408032475 $206 $300 forward 7 unknown #
vertex $-1 $210 $301 #
vertex $-1 $126 $302 #
straight-curve $-1 74.872890408032475 -16.717832895266021 -8.3173706548336277 0 1 0 I I #
edge $-1 $221 -23.810686508406867 $217 -9.6249792821251745 $205 $303 forward 7 unknown #
coedge $-1 $128 $206 $292 $304 reversed $70 $-1 #
vertex $-1 $215 $305 #
straight-curve $-1 0 -26.342812177391195 1.056324580311454 -1 0 0 I I #
coedge $-1 $209 $130 $293 $306 forward $203 $-1 #
coedge $-1 $130 $209 $132 $223 reversed $203 $-1 #
vertex $-1 $306 $307 #
straight-curve $-1 0 -40.528519403672888 1.056324580311454 -1 0 0 I I #
edge $-1 $136 -1.056324580311454 $212 8.3173706548336277 $132 $308 forward 7 unknown #
point $-1 74.872890408032475 -26.342812177391195 1.056324580311454 #
point $-1 74.872890408032475 -40.528519403672888 1.056324580311454 #
face $-1 $-1 $243 $17 $-1 $309 reversed single #
loop $-1 $-1 $239 $138 #
plane-surface $-1 -74.872890408032475 0 0 1 0 0 0 0 -1 forward_v I I I I #
coedge $-1 $246 $141 $142 $233 reversed $78 $-1 #
coedge $-1 $239 $310 $141 $231 forward $227 $-1 #
edge $-1 $311 -6.5021091362030843 $247 2.8715860989419975 $230 $312 forward 7 unknown #
coedge $-1 $143 $142 $310 $313 reversed $49 $-1 #
edge $-1 $236 -74.872890408032475 $311 74.872890408032475 $229 $314 forward 7 unknown #
coedge $-1 $242 $241 $143 $235 forward $243 $-1 #
edge $-1 $237 -74.872890408032475 $315 74.872890408032475 $234 $316 forward 7 unknown #
vertex $-1 $145 $317 #
vertex $-1 $235 $318 #
straight-curve $-1 74.872890408032475 16.717832895266021 -8.3173706548336277 0 1 0 I I #
coedge $-1 $319 $230 $146 $240 forward $227 $-1 #
edge $-1 $247 9.6249792821251745 $244 23.810686508406867 $239 $320 forward 7 unknown #
coedge $-1 $234 $147 $152 $250 forward $243 $-1 #
coedge $-1 $147 $234 $319 $321 reversed $243 $-1 #
loop $-1 $-1 $147 $226 #
vertex $-1 $321 $322 #
straight-curve $-1 0 40.528519403672888 1.056324580311454 1 0 0 I I #
coedge $-1 $149 $229 $151 $249 reversed $78 $-1 #
vertex $-1 $240 $323 #
straight-curve $-1 0 26.342812177391195 1.056324580311454 1 0 0 I I #
edge $-1 $154 -2.8715860989419975 $236 6.5021091362030843 $151 $324 forward 7 unknown #
edge $-1 $153 -1.056324580311454 $237 8.3173706548336277 $152 $325 forward 7 unknown #
point $-1 74.872890408032475 40.528519403672888 1.056324580311454 #
point $-1 74.872890408032475 26.342812177391195 1.056324580311454 #
loop $-1 $-1 $164 $156 #
plane-surface $-1 0 0 16.856806529279346 0 0 1 1 0 0 forward_v I I I I #
coedge $-1 $256 $159 $161 $260 reversed $86 $-1 #
coedge $-1 $159 $255 $326 $327 reversed $86 $-1 #
coedge $-1 $167 $162 $159 $258 forward $157 $-1 #
edge $-1 $261 -32.307645422042796 $328 -25.70843645049532 $257 $329 forward 7 unknown #
coedge $-1 $161 $160 $264 $330 reversed $53 $-1 #
edge $-1 $331 -7.6201100842629135 $261 0 $255 $332 forward 7 unknown #
vertex $-1 $163 $333 #
straight-curve $-1 -74.872890408032475 -10.109145564899023 10.257597557731859 0 -1 0 I I #
coedge $-1 $326 $164 $167 $268 forward $253 $-1 #
coedge $-1 $164 $326 $259 $330 forward $253 $-1 #
vertex $-1 $165 $334 #
straight-curve $-1 -102.27827093128496 -14.093770082204893 16.856806529279346 -1 0 0 I I #
straight-curve $-1 -74.872890408032475 -14.093770082204893 10.25759755773187 0.49999998660252726 0 0.86602541151947299 I I #
edge $-1 $168 14.093770082204893 $328 26.342812177391203 $167 $335 forward 7 unknown #
point $-1 -74.872890408032475 -14.093770082204893 16.856806529279346 #
point $-1 -74.872890408032475 -14.093770082204893 10.25759755773187 #
edge $-1 $336 1 $336 0 $171 $-1 forward 7 unknown #
vertex $-1 $172 $337 #
ellipse-curve $-1 -71.305375361016772 -20.218291129798047 12.597364427694815 -0.86602541151947299 0 0.49999998660252726 0.49999998660252726 0 0.86602541151947299 1 I I #
point $-1 -72.46786295140933 -20.218291129798047 14.423227455025078 #
plane-surface $-1 74.872890408032475 0 0 -1 0 0 0 0 1 forward_v I I I I #
coedge $-1 $180 $178 $182 $280 reversed $101 $-1 #
edge $-1 $193 -16.856806529279346 $282 16.856806529279346 $192 $338 forward 7 unknown #
vertex $-1 $280 $339 #
straight-curve $-1 -74.872890408032475 -40.528519403672888 0 0 0 -1 I I #
edge $-1 $278 -40.528519403672888 $282 40.528519403672888 $276 $340 forward 7 unknown #
straight-curve $-1 0 -40.528519403672888 -16.856806529279346 -1 0 0 I I #
vertex $-1 $185 $341 #
straight-curve $-1 0 40.528519403672888 -16.856806529279346 1 0 0 I I #
point $-1 74.872890408032475 40.528519403672888 -16.856806529279346 #
point $-1 74.872890408032475 -40.528519403672888 -16.856806529279346 #
straight-curve $-1 -74.872890408032475 0 16.856806529279346 0 -1 0 I I #
point $-1 -74.872890408032475 40.528519403672888 16.856806529279346 #
point $-1 -74.872890408032475 -40.528519403672888 16.856806529279346 #
straight-curve $-1 74.872890408032475 -40.528519403672888 0 0 0 -1 I I #
straight-curve $-1 74.872890408032475 40.528519403672888 0 0 0 -1 I I #
plane-surface $-1 74.872890408032475 0 0 -1 0 0 0 0 1 forward_v I I I I #
coedge $-1 $295 $205 $216 $304 forward $120 $-1 #
coedge $-1 $205 $295 $219 $306 reversed $120 $-1 #
straight-curve $-1 74.872890408032475 -26.342812177391195 -1.8152615186305434 0 0 1 I I #
coedge $-1 $293 $292 $208 $296 forward $120 $-1 #
edge $-1 $299 9.6249792821251745 $297 23.810686508406867 $295 $342 forward 7 unknown #
vertex $-1 $210 $343 #
straight-curve $-1 0 -40.528519403672888 -8.3173706548336277 1 0 0 I I #
vertex $-1 $296 $344 #
straight-curve $-1 0 -26.342812177391195 -8.3173706548336277 1 0 0 I I #
point $-1 74.872890408032475 -40.528519403672888 -8.3173706548336277 #
point $-1 74.872890408032475 -26.342812177391195 -8.3173706548336277 #
straight-curve $-1 -74.872890408032475 -16.717832895266021 1.056324580311454 0 1 0 I I #
edge $-1 $217 -2.8715860989419975 $299 6.5021091362030843 $292 $345 forward 7 unknown #
point $-1 -74.872890408032475 -26.342812177391195 1.056324580311454 #
edge $-1 $221 -1.056324580311454 $297 8.3173706548336277 $293 $346 forward 7 unknown #
point $-1 -74.872890408032475 -40.528519403672888 1.056324580311454 #
straight-curve $-1 74.872890408032475 -40.528519403672888 0 0 0 -1 I I #
plane-surface $-1 0 40.528519403672888 0 0 -1 0 0 0 -1 forward_v I I I I #
coedge $-1 $230 $319 $232 $313 forward $227 $-1 #
vertex $-1 $313 $347 #
straight-curve $-1 -74.872890408032475 26.342812177391195 -1.8152615186305434 0 0 1 I I #
edge $-1 $315 -23.810686508406867 $311 -9.6249792821251745 $310 $348 forward 7 unknown #
straight-curve $-1 0 26.342812177391195 -8.3173706548336277 -1 0 0 I I #
vertex $-1 $235 $349 #
straight-curve $-1 0 40.528519403672888 -8.3173706548336277 -1 0 0 I I #
point $-1 74.872890408032475 26.342812177391195 -8.3173706548336277 #
point $-1 74.872890408032475 40.528519403672888 -8.3173706548336277 #
coedge $-1 $310 $239 $242 $321 forward $227 $-1 #
straight-curve $-1 -74.872890408032475 16.717832895266021 1.056324580311454 0 1 0 I I #
edge $-1 $244 -1.056324580311454 $315 8.3173706548336277 $242 $350 forward 7 unknown #
point $-1 -74.872890408032475 40.528519403672888 1.056324580311454 #
point $-1 -74.872890408032475 26.342812177391195 1.056324580311454 #
straight-curve $-1 74.872890408032475 26.342812177391195 -1.8152615186305434 0 0 -1 I I #
straight-curve $-1 74.872890408032475 40.528519403672888 0 0 0 -1 I I #
coedge $-1 $264 $263 $256 $327 forward $253 $-1 #
edge $-1 $328 27.405380523252489 $331 31.21543546329373 $326 $351 forward 7 unknown #
vertex $-1 $327 $352 #
straight-curve $-1 -74.872890408032475 -26.342812177391203 42.565242979774666 0 0 1 I I #
edge $-1 $331 -16.233666612492179 $265 -3.9846245173058694 $264 $353 forward 7 unknown #
vertex $-1 $330 $354 #
straight-curve $-1 -74.872890408032475 -26.342812177391203 10.25759755773187 -0.49999998660252726 0 -0.86602541151947299 I I #
point $-1 -74.872890408032475 -26.342812177391203 10.25759755773187 #
point $-1 -71.062835467991235 -14.093770082204893 16.856806529279346 #
straight-curve $-1 -74.872890408032475 0 16.856806529279346 0 -1 0 I I #
vertex $-1 $271 $355 #
point $-1 -70.80537537441424 -20.218291129798047 13.463389839214287 #
straight-curve $-1 -74.872890408032475 40.528519403672888 0 0 0 -1 I I #
point $-1 -74.872890408032475 -40.528519403672888 -16.856806529279346 #
straight-curve $-1 -74.872890408032475 0 -16.856806529279346 0 1 0 I I #
point $-1 -74.872890408032475 40.528519403672888 -16.856806529279346 #
straight-curve $-1 -74.872890408032475 -16.717832895266021 -8.3173706548336277 0 -1 0 I I #
point $-1 -74.872890408032475 -40.528519403672888 -8.3173706548336277 #
point $-1 -74.872890408032475 -26.342812177391195 -8.3173706548336277 #
straight-curve $-1 -74.872890408032475 -26.342812177391195 -1.8152615186305434 0 0 -1 I I #
straight-curve $-1 -74.872890408032475 -40.528519403672888 0 0 0 -1 I I #
point $-1 -74.872890408032475 26.342812177391195 -8.3173706548336277 #
straight-curve $-1 -74.872890408032475 16.717832895266021 -8.3173706548336277 0 -1 0 I I #
point $-1 -74.872890408032475 40.528519403672888 -8.3173706548336277 #
straight-curve $-1 -74.872890408032475 40.528519403672888 0 0 0 -1 I I #
straight-curve $-1 -102.27827093128496 -26.342812177391203 16.856806529279346 1 0 0 I I #
point $-1 -74.872890408032475 -26.342812177391203 16.856806529279346 #
straight-curve $-1 -71.062835467991235 -10.109145564899023 16.856806529279346 0 1 0 I I #
point $-1 -71.062835467991235 -26.342812177391203 16.856806529279346 #
point $-1 -70.439349949497299 -20.218291129798047 12.097364441092287 #
End-of-ACIS-data 