500 0 10 0           
7 Unknown 11 ACIS 5.0 NT 24 Fri Mar 26 02:27:18 1999 
-1 9.9999999999999995e-007 1e-010 
body $-1 $10 $-1 $11 #
body $-1 $12 $-1 $13 #
body $-1 $14 $-1 $15 #
body $-1 $16 $-1 $17 #
body $-1 $18 $-1 $19 #
body $-1 $20 $-1 $21 #
body $-1 $22 $-1 $23 #
body $-1 $24 $-1 $25 #
body $-1 $26 $-1 $27 #
body $-1 $28 $-1 $29 #
lump $-1 $-1 $30 $0 #
transform $-1 1 0 0 0 1 0 0 0 1 79.167455061494792 32.808576388334487 8.7638058581553171 1 rotate no_reflect no_shear #
lump $-1 $-1 $31 $1 #
transform $-1 1 0 0 0 1 0 0 0 1 79.167455061494792 32.808576388334487 8.7638058581553171 1 rotate no_reflect no_shear #
lump $-1 $-1 $32 $2 #
transform $-1 1 0 0 0 1 0 0 0 1 79.167455061494792 32.808576388334487 8.7638058581553171 1 rotate no_reflect no_shear #
lump $-1 $-1 $33 $3 #
transform $-1 1 0 0 0 1 0 0 0 1 79.167455061494792 32.808576388334487 8.7638058581553171 1 rotate no_reflect no_shear #
lump $-1 $-1 $34 $4 #
transform $-1 1 0 0 0 1 0 0 0 1 79.167455061494792 32.808576388334487 8.7638058581553171 1 rotate no_reflect no_shear #
lump $-1 $-1 $35 $5 #
transform $-1 1 0 0 0 1 0 0 0 1 79.167455061494792 32.808576388334487 8.7638058581553171 1 rotate no_reflect no_shear #
lump $-1 $-1 $36 $6 #
transform $-1 1 0 0 0 1 0 0 0 1 79.167455061494792 32.808576388334487 8.7638058581553171 1 rotate no_reflect no_shear #
lump $-1 $-1 $37 $7 #
transform $-1 1 0 0 0 1 0 0 0 1 79.167455061494792 32.808576388334487 8.7638058581553171 1 rotate no_reflect no_shear #
lump $-1 $-1 $38 $8 #
transform $-1 1 0 0 0 1 0 0 0 1 79.167455061494792 32.808576388334487 8.7638058581553171 1 rotate no_reflect no_shear #
lump $-1 $-1 $39 $9 #
transform $-1 1 0 0 0 1 0 0 0 1 79.167455061494792 32.808576388334487 8.7638058581553171 1 rotate no_reflect no_shear #
shell $-1 $-1 $-1 $40 $-1 $10 #
shell $-1 $-1 $-1 $41 $-1 $12 #
shell $-1 $-1 $-1 $42 $-1 $14 #
shell $-1 $-1 $-1 $43 $-1 $16 #
shell $-1 $-1 $-1 $44 $-1 $18 #
shell $-1 $-1 $-1 $45 $-1 $20 #
shell $-1 $-1 $-1 $46 $-1 $22 #
shell $-1 $-1 $-1 $47 $-1 $24 #
shell $-1 $-1 $-1 $48 $-1 $26 #
shell $-1 $-1 $-1 $49 $-1 $28 #
face $-1 $50 $51 $30 $-1 $52 forward single #
face $-1 $53 $54 $31 $-1 $55 reversed single #
face $-1 $56 $57 $32 $-1 $58 reversed single #
face $-1 $59 $60 $33 $-1 $61 forward single #
face $-1 $62 $63 $34 $-1 $64 forward single #
face $-1 $65 $66 $35 $-1 $67 reversed single #
face $-1 $68 $69 $36 $-1 $70 forward single #
face $-1 $71 $72 $37 $-1 $73 forward single #
face $-1 $74 $75 $38 $-1 $76 reversed single #
face $-1 $77 $78 $39 $-1 $79 forward single #
face $-1 $80 $81 $30 $-1 $82 reversed single #
loop $-1 $-1 $83 $40 #
plane-surface $-1 0 0 8.7638058581553171 0 0 1 1 0 0 forward_v I I I I #
face $-1 $84 $85 $31 $-1 $86 reversed single #
loop $-1 $-1 $87 $41 #
plane-surface $-1 0 -28.242469584302491 4.3809668250552116 0 0 1 1 0 0 forward_v I I I I #
face $-1 $88 $89 $32 $-1 $90 reversed single #
loop $-1 $-1 $91 $42 #
plane-surface $-1 -191.12714500704132 -11.644806251949937 116.33491678901852 0 1 0 -0.70710678939079041 0 0.70710677298230451 forward_v I I I I #
face $-1 $92 $93 $33 $-1 $94 forward single #
loop $-1 $95 $96 $43 #
cone-surface $-1 -76.322717998409701 -8.135605459544184 5.9190687592452793 0.70710678939079041 0 -0.70710677298230451 0.70710677298230451 0 0.70710678939079041 1 I I 0 1 1 forward I I I I #
face $-1 $97 $98 $34 $-1 $99 forward single #
loop $-1 $100 $101 $44 #
cone-surface $-1 -76.322717998409701 -2.8718042709355558 5.9190687592452793 0.70710678939079041 0 -0.70710677298230451 0.70710677298230451 0 0.70710678939079041 1 I I 0 1 1 forward I I I I #
face $-1 $102 $103 $35 $-1 $104 reversed single #
loop $-1 $-1 $105 $45 #
plane-surface $-1 -191.12714500704132 8.4948170865937911 116.33491678901852 0 1 0 -0.70710678939079041 0 0.70710677298230451 forward_v I I I I #
face $-1 $106 $107 $36 $-1 $108 forward single #
loop $-1 $109 $110 $46 #
cone-surface $-1 -76.322717998409701 12.004017878999541 5.9190687592452793 0.70710678939079041 0 -0.70710677298230451 0.70710677298230451 0 0.70710678939079041 1 I I 0 1 1 forward I I I I #
face $-1 $111 $112 $37 $-1 $113 forward single #
loop $-1 $114 $115 $47 #
cone-surface $-1 -76.322717998409701 17.267819067608173 5.9190687592452793 0.70710678939079041 0 -0.70710677298230451 0.70710677298230451 0 0.70710678939079041 1 I I 0 1 1 forward I I I I #
face $-1 $116 $117 $38 $-1 $118 reversed single #
loop $-1 $-1 $119 $48 #
plane-surface $-1 51.878549752644659 16.719867387023395 224.64681573016142 0 -1 0 -0.61566148304635926 0 -0.78801074757464917 forward_v I I I I #
face $-1 $120 $121 $39 $-1 $122 forward single #
loop $-1 $123 $124 $49 #
cone-surface $-1 72.808602870288908 10.391327914271258 2.6568147321745199 -0.61566148304635926 0 -0.78801074757464917 1.5760214951492983 0 -1.2313229660927185 1 I I 0 1 2 forward I I I I #
face $-1 $125 $126 $30 $-1 $127 reversed single #
loop $-1 $-1 $128 $50 #
plane-surface $-1 0 0 -8.7638058581553171 0 0 1 1 0 0 forward_v I I I I #
coedge $-1 $129 $130 $131 $132 forward $51 $-1 #
face $-1 $133 $134 $31 $-1 $135 reversed single #
loop $-1 $-1 $136 $53 #
plane-surface $-1 0 -23.676362780270495 6.5723863416052648 0 -1 0 0 0 -1 forward_v I I I I #
coedge $-1 $137 $138 $139 $140 reversed $54 $-1 #
face $-1 $141 $142 $32 $-1 $143 reversed single #
loop $-1 $-1 $144 $56 #
plane-surface $-1 -79.167455061494792 -5.5037048652398681 4.3752294415081394 -0.70710678939079041 0 0.70710677298230451 0.70710677298230451 0 0.70710678939079041 forward_v I I I I #
coedge $-1 $145 $146 $147 $148 reversed $57 $-1 #
face $-1 $-1 $149 $33 $-1 $150 forward single #
loop $-1 $151 $152 $59 #
cone-surface $-1 -75.318715698034126 -8.135605459544184 4.9150664821676777 0.70710678939079041 0 -0.70710677298230451 0.35355338649115226 0 0.35355339469539521 1 I I -0.70710678118654691 0.70710678118654813 0.5 forward I I I I #
loop $-1 $-1 $153 $43 #
coedge $-1 $96 $96 $154 $155 reversed $60 $-1 #
face $-1 $-1 $156 $34 $-1 $157 forward single #
loop $-1 $158 $159 $62 #
cone-surface $-1 -75.318715698034126 -2.8718042709355558 4.9150664821676777 0.70710678939079041 0 -0.70710677298230451 0.35355338649115226 0 0.35355339469539521 1 I I -0.70710678118654691 0.70710678118654813 0.5 forward I I I I #
loop $-1 $-1 $160 $44 #
coedge $-1 $101 $101 $161 $162 reversed $63 $-1 #
face $-1 $163 $164 $35 $-1 $165 reversed single #
loop $-1 $-1 $166 $65 #
plane-surface $-1 -79.167455061494792 14.63591847330386 4.3752294415081394 -0.70710678939079041 0 0.70710677298230451 0.70710677298230451 0 0.70710678939079041 forward_v I I I I #
coedge $-1 $167 $168 $169 $170 reversed $66 $-1 #
face $-1 $-1 $171 $36 $-1 $172 forward single #
loop $-1 $173 $174 $68 #
cone-surface $-1 -75.318715698034126 12.004017878999541 4.9150664821676777 0.70710678939079041 0 -0.70710677298230451 0.35355338649115226 0 0.35355339469539521 1 I I -0.70710678118654691 0.70710678118654813 0.5 forward I I I I #
loop $-1 $-1 $175 $46 #
coedge $-1 $110 $110 $176 $177 reversed $69 $-1 #
face $-1 $-1 $178 $37 $-1 $179 forward single #
loop $-1 $180 $181 $71 #
cone-surface $-1 -75.318715698034126 17.267819067608173 4.9150664821676777 0.70710678939079041 0 -0.70710677298230451 0.35355338649115226 0 0.35355339469539521 1 I I -0.70710678118654691 0.70710678118654813 0.5 forward I I I I #
loop $-1 $-1 $182 $47 #
coedge $-1 $115 $115 $183 $184 reversed $72 $-1 #
face $-1 $185 $186 $38 $-1 $187 reversed single #
loop $-1 $-1 $188 $74 #
plane-surface $-1 -45.602155831687114 10.391327914271258 99.877204836979516 0.61566148304635926 0 0.78801074757464917 0.78801074757464917 0 -0.61566148304635926 forward_v I I I I #
coedge $-1 $189 $190 $191 $192 reversed $75 $-1 #
face $-1 $-1 $193 $39 $-1 $194 forward single #
loop $-1 $195 $196 $77 #
cone-surface $-1 69.908979518406539 10.391327914271258 -1.0545338386271315 -0.61566148304635926 0 -0.78801074757464917 0.78801074757464917 0 -0.61566148304635926 1 I I -0.70710678118654768 0.70710678118654735 1 forward I I I I #
loop $-1 $-1 $197 $49 #
coedge $-1 $124 $124 $198 $199 reversed $78 $-1 #
face $-1 $200 $201 $30 $-1 $202 reversed single #
loop $-1 $-1 $203 $80 #
plane-surface $-1 0 -32.808576388334487 0 0 1 0 0 0 1 forward_v I I I I #
coedge $-1 $204 $205 $206 $207 forward $81 $-1 #
coedge $-1 $208 $83 $209 $210 forward $51 $-1 #
coedge $-1 $83 $208 $211 $212 forward $51 $-1 #
coedge $-1 $213 $214 $83 $132 reversed $215 $-1 #
edge $-1 $216 -32.808576388334487 $217 32.808576388334487 $131 $218 forward 7 unknown #
face $-1 $219 $220 $31 $-1 $221 reversed single #
loop $-1 $-1 $222 $84 #
plane-surface $-1 -79.167455061494792 0 0 1 0 0 0 0 -1 forward_v I I I I #
coedge $-1 $223 $224 $225 $226 reversed $85 $-1 #
coedge $-1 $227 $87 $228 $229 reversed $54 $-1 #
coedge $-1 $87 $227 $223 $230 forward $54 $-1 #
coedge $-1 $225 $231 $87 $140 forward $232 $-1 #
edge $-1 $233 -18.687341596183241 $234 -9.5551279881192492 $139 $235 forward 7 unknown #
face $-1 $236 $237 $32 $-1 $238 forward single #
loop $-1 $-1 $239 $88 #
plane-surface $-1 -191.12714500704132 0.63739652147020109 116.33491678901852 0 -1 0 0.70710678939079041 0 -0.70710677298230451 forward_v I I I I #
coedge $-1 $240 $241 $242 $243 reversed $89 $-1 #
coedge $-1 $146 $91 $244 $245 reversed $57 $-1 #
coedge $-1 $91 $145 $240 $246 reversed $57 $-1 #
coedge $-1 $242 $247 $91 $148 forward $237 $-1 #
edge $-1 $248 16.396117442025869 $249 20.784693756835679 $147 $250 forward 7 unknown #
loop $-1 $-1 $154 $92 #
plane-surface $-1 -79.167455061494792 -5.5037048652398681 4.3752294415081394 -0.70710678939079041 0 0.70710677298230451 0.70710677298230451 0 0.70710678939079041 forward_v I I I I #
loop $-1 $-1 $251 $59 #
coedge $-1 $152 $152 $153 $252 reversed $93 $-1 #
coedge $-1 $153 $153 $152 $252 forward $95 $-1 #
coedge $-1 $154 $154 $96 $155 forward $149 $-1 #
edge $-1 $253 0 $253 6.2831853071796004 $154 $254 forward 7 unknown #
loop $-1 $-1 $161 $97 #
plane-surface $-1 -79.167455061494792 -5.5037048652398681 4.3752294415081394 -0.70710678939079041 0 0.70710677298230451 0.70710677298230451 0 0.70710678939079041 forward_v I I I I #
loop $-1 $-1 $255 $62 #
coedge $-1 $159 $159 $160 $256 reversed $98 $-1 #
coedge $-1 $160 $160 $159 $256 forward $100 $-1 #
coedge $-1 $161 $161 $101 $162 forward $156 $-1 #
edge $-1 $257 0 $257 6.2831853071796004 $161 $258 forward 7 unknown #
face $-1 $259 $260 $35 $-1 $261 forward single #
loop $-1 $-1 $262 $102 #
plane-surface $-1 -191.12714500704132 20.77701986001393 116.33491678901852 0 -1 0 0.70710678939079041 0 -0.70710677298230451 forward_v I I I I #
coedge $-1 $263 $264 $265 $266 reversed $103 $-1 #
coedge $-1 $168 $105 $267 $268 reversed $66 $-1 #
coedge $-1 $105 $167 $263 $269 reversed $66 $-1 #
coedge $-1 $265 $270 $105 $170 forward $260 $-1 #
edge $-1 $271 16.396117442025869 $272 20.784693756835679 $169 $273 forward 7 unknown #
loop $-1 $-1 $176 $106 #
plane-surface $-1 -79.167455061494792 14.63591847330386 4.3752294415081394 -0.70710678939079041 0 0.70710677298230451 0.70710677298230451 0 0.70710678939079041 forward_v I I I I #
loop $-1 $-1 $274 $68 #
coedge $-1 $174 $174 $175 $275 reversed $107 $-1 #
coedge $-1 $175 $175 $174 $275 forward $109 $-1 #
coedge $-1 $176 $176 $110 $177 forward $171 $-1 #
edge $-1 $276 0 $276 6.2831853071796004 $176 $277 forward 7 unknown #
loop $-1 $-1 $183 $111 #
plane-surface $-1 -79.167455061494792 14.63591847330386 4.3752294415081394 -0.70710678939079041 0 0.70710677298230451 0.70710677298230451 0 0.70710678939079041 forward_v I I I I #
loop $-1 $-1 $278 $71 #
coedge $-1 $181 $181 $182 $279 reversed $112 $-1 #
coedge $-1 $182 $182 $181 $279 forward $114 $-1 #
coedge $-1 $183 $183 $115 $184 forward $178 $-1 #
edge $-1 $280 0 $280 6.2831853071796004 $183 $281 forward 7 unknown #
face $-1 $282 $283 $38 $-1 $284 reversed single #
loop $-1 $-1 $285 $116 #
plane-surface $-1 51.878549752644659 4.0627884415191211 224.64681573016142 0 1 0 0.61566148304635926 0 0.78801074757464917 forward_v I I I I #
coedge $-1 $286 $287 $288 $289 reversed $117 $-1 #
coedge $-1 $190 $119 $290 $291 reversed $75 $-1 #
coedge $-1 $119 $189 $286 $292 reversed $75 $-1 #
coedge $-1 $288 $293 $119 $192 forward $294 $-1 #
edge $-1 $295 -53.228180185172462 $296 -45.078399540432656 $191 $297 forward 7 unknown #
loop $-1 $-1 $198 $120 #
plane-surface $-1 -45.602155831687114 10.391327914271258 99.877204836979516 0.61566148304635926 0 0.78801074757464917 0.78801074757464917 0 -0.61566148304635926 forward_v I I I I #
loop $-1 $-1 $298 $77 #
coedge $-1 $196 $196 $197 $299 reversed $121 $-1 #
coedge $-1 $197 $197 $196 $299 forward $123 $-1 #
coedge $-1 $198 $198 $124 $199 forward $193 $-1 #
edge $-1 $300 0 $300 6.2831853071796004 $198 $301 forward 7 unknown #
face $-1 $302 $303 $30 $-1 $304 reversed single #
loop $-1 $-1 $305 $125 #
plane-surface $-1 -79.167455061494792 0 0 1 0 0 0 0 -1 forward_v I I I I #
coedge $-1 $306 $211 $307 $308 forward $126 $-1 #
coedge $-1 $309 $128 $306 $310 forward $81 $-1 #
coedge $-1 $128 $309 $311 $312 forward $81 $-1 #
coedge $-1 $214 $213 $128 $207 reversed $215 $-1 #
edge $-1 $313 -32.808576388334487 $314 32.808576388334487 $206 $315 forward 7 unknown #
coedge $-1 $130 $129 $316 $317 forward $51 $-1 #
coedge $-1 $318 $319 $129 $210 reversed $303 $-1 #
edge $-1 $217 -79.167455061494792 $320 79.167455061494792 $209 $321 forward 7 unknown #
coedge $-1 $203 $322 $130 $212 reversed $126 $-1 #
edge $-1 $323 -79.167455061494792 $216 79.167455061494792 $211 $324 forward 7 unknown #
coedge $-1 $206 $131 $322 $325 forward $215 $-1 #
coedge $-1 $131 $206 $318 $326 reversed $215 $-1 #
loop $-1 $-1 $213 $302 #
vertex $-1 $132 $327 #
vertex $-1 $132 $328 #
straight-curve $-1 79.167455061494792 0 8.7638058581553171 0 1 0 I I #
face $-1 $329 $330 $31 $-1 $331 forward single #
loop $-1 $-1 $228 $133 #
plane-surface $-1 0 -32.808576388334487 0 0 1 0 0 0 1 forward_v I I I I #
coedge $-1 $332 $333 $334 $335 forward $134 $-1 #
coedge $-1 $334 $136 $138 $230 reversed $85 $-1 #
coedge $-1 $136 $334 $336 $337 reversed $85 $-1 #
coedge $-1 $338 $139 $136 $226 forward $232 $-1 #
edge $-1 $234 1.0947736542525792 $339 5.4776126873526865 $225 $340 forward 7 unknown #
coedge $-1 $138 $137 $332 $341 reversed $54 $-1 #
coedge $-1 $342 $343 $137 $229 forward $220 $-1 #
edge $-1 $344 -79.167455061494792 $233 79.167455061494792 $228 $345 forward 7 unknown #
edge $-1 $346 -79.167455061494792 $234 79.167455061494792 $223 $347 forward 7 unknown #
coedge $-1 $139 $338 $342 $348 forward $232 $-1 #
loop $-1 $-1 $225 $329 #
vertex $-1 $229 $349 #
vertex $-1 $140 $350 #
straight-curve $-1 79.167455061494792 -14.121234792151245 4.3809668250552116 0 1 0 I I #
face $-1 $-1 $351 $32 $-1 $352 reversed single #
loop $-1 $-1 $147 $141 #
plane-surface $-1 0 0 8.7638058581553171 0 0 1 1 0 0 forward_v I I I I #
coedge $-1 $353 $354 $355 $356 reversed $142 $-1 #
coedge $-1 $357 $144 $146 $246 forward $89 $-1 #
coedge $-1 $144 $357 $353 $358 forward $89 $-1 #
coedge $-1 $355 $147 $144 $243 forward $237 $-1 #
edge $-1 $249 -8.8929538193300033 $359 3.3892489540901352 $242 $360 forward 7 unknown #
coedge $-1 $361 $362 $145 $245 forward $351 $-1 #
edge $-1 $363 -53.792228953001121 $248 -49.403652536353945 $244 $364 forward 7 unknown #
edge $-1 $249 -6.2063842159232667 $363 0 $146 $365 forward 7 unknown #
coedge $-1 $147 $355 $361 $366 forward $237 $-1 #
vertex $-1 $245 $367 #
vertex $-1 $148 $368 #
straight-curve $-1 -95.56357250352066 -11.644806251949937 8.7638058581553153 1 0 0 I I #
coedge $-1 $251 $251 $-1 $369 reversed $151 $-1 #
edge $-1 $370 0 $370 6.2831853071796004 $152 $371 forward 7 unknown #
vertex $-1 $155 $372 #
ellipse-curve $-1 -76.973166904089879 -8.135605459544184 6.56951764983173 -0.70710678939079041 0 0.70710677298230451 0.70710677298230451 0 0.70710678939079041 1 I I #
coedge $-1 $255 $255 $-1 $373 reversed $158 $-1 #
edge $-1 $374 0 $374 6.2831853071796004 $159 $375 forward 7 unknown #
vertex $-1 $162 $376 #
ellipse-curve $-1 -76.973166904089879 -2.8718042709355558 6.56951764983173 -0.70710678939079041 0 0.70710677298230451 0.70710677298230451 0 0.70710678939079041 1 I I #
face $-1 $-1 $377 $35 $-1 $378 reversed single #
loop $-1 $-1 $169 $163 #
plane-surface $-1 0 0 8.7638058581553171 0 0 1 1 0 0 forward_v I I I I #
coedge $-1 $379 $380 $381 $382 reversed $164 $-1 #
coedge $-1 $383 $166 $168 $269 forward $103 $-1 #
coedge $-1 $166 $383 $379 $384 forward $103 $-1 #
coedge $-1 $381 $169 $166 $266 forward $260 $-1 #
edge $-1 $272 1.1768578499418609 $385 13.459060623361999 $265 $386 forward 7 unknown #
coedge $-1 $387 $388 $167 $268 forward $377 $-1 #
edge $-1 $389 -53.792228953001121 $271 -49.403652536353945 $267 $390 forward 7 unknown #
edge $-1 $272 -6.2063842159232667 $389 0 $168 $391 forward 7 unknown #
coedge $-1 $169 $381 $387 $392 forward $260 $-1 #
vertex $-1 $170 $393 #
vertex $-1 $170 $394 #
straight-curve $-1 -95.56357250352066 8.4948170865937911 8.7638058581553153 1 0 0 I I #
coedge $-1 $274 $274 $-1 $395 reversed $173 $-1 #
edge $-1 $396 0 $396 6.2831853071796004 $174 $397 forward 7 unknown #
vertex $-1 $177 $398 #
ellipse-curve $-1 -76.973166904089879 12.004017878999541 6.56951764983173 -0.70710678939079041 0 0.70710677298230451 0.70710677298230451 0 0.70710678939079041 1 I I #
coedge $-1 $278 $278 $-1 $399 reversed $180 $-1 #
edge $-1 $400 0 $400 6.2831853071796004 $181 $401 forward 7 unknown #
vertex $-1 $184 $402 #
ellipse-curve $-1 -76.973166904089879 17.267819067608173 6.56951764983173 -0.70710678939079041 0 0.70710677298230451 0.70710677298230451 0 0.70710678939079041 1 I I #
face $-1 $-1 $294 $38 $-1 $403 forward single #
loop $-1 $-1 $404 $185 #
plane-surface $-1 79.167455061494792 0 0 -1 0 0 0 0 1 forward_v I I I I #
coedge $-1 $405 $406 $407 $408 reversed $186 $-1 #
coedge $-1 $409 $188 $190 $292 forward $117 $-1 #
coedge $-1 $188 $409 $405 $410 forward $117 $-1 #
coedge $-1 $407 $191 $188 $289 forward $294 $-1 #
edge $-1 $296 -11.524203429887766 $411 1.132875515616508 $288 $412 forward 7 unknown #
coedge $-1 $413 $414 $189 $291 forward $283 $-1 #
edge $-1 $415 -109.92690861243297 $295 -103.55960200692539 $290 $416 forward 7 unknown #
edge $-1 $296 147.99268995680109 $415 158.33491012298958 $190 $417 forward 7 unknown #
coedge $-1 $191 $407 $413 $418 forward $294 $-1 #
loop $-1 $-1 $407 $282 #
vertex $-1 $291 $419 #
vertex $-1 $192 $420 #
straight-curve $-1 25.93927487632233 16.719867387023395 8.7638058581553224 -1 0 0 I I #
coedge $-1 $298 $298 $-1 $421 reversed $195 $-1 #
edge $-1 $422 0 $422 6.2831853071796004 $196 $423 forward 7 unknown #
vertex $-1 $199 $424 #
ellipse-curve $-1 75.09256473912491 10.391327914271258 5.5801525554015186 0.61566148304635926 0 0.78801074757464917 1.5760214951492983 0 -1.2313229660927185 1 I I #
face $-1 $-1 $215 $30 $-1 $425 reversed single #
loop $-1 $-1 $318 $200 #
plane-surface $-1 0 32.808576388334487 0 0 -1 0 0 0 -1 forward_v I I I I #
coedge $-1 $426 $316 $319 $427 forward $201 $-1 #
coedge $-1 $322 $203 $204 $310 reversed $126 $-1 #
coedge $-1 $316 $426 $203 $308 reversed $201 $-1 #
edge $-1 $323 -8.7638058581553171 $428 8.7638058581553171 $307 $429 forward 7 unknown #
coedge $-1 $205 $204 $426 $430 forward $81 $-1 #
edge $-1 $314 -79.167455061494792 $428 79.167455061494792 $306 $431 forward 7 unknown #
coedge $-1 $319 $318 $205 $312 reversed $303 $-1 #
edge $-1 $432 -79.167455061494792 $313 79.167455061494792 $311 $433 forward 7 unknown #
vertex $-1 $207 $434 #
vertex $-1 $325 $435 #
straight-curve $-1 79.167455061494792 0 -8.7638058581553171 0 -1 0 I I #
coedge $-1 $305 $307 $208 $317 reversed $201 $-1 #
edge $-1 $320 -32.808576388334487 $323 32.808576388334487 $316 $436 forward 7 unknown #
coedge $-1 $311 $209 $214 $326 forward $303 $-1 #
coedge $-1 $209 $311 $305 $427 reversed $303 $-1 #
vertex $-1 $210 $437 #
straight-curve $-1 0 32.808576388334487 8.7638058581553171 -1 0 0 I I #
coedge $-1 $211 $306 $213 $325 reversed $126 $-1 #
vertex $-1 $317 $438 #
straight-curve $-1 0 -32.808576388334487 8.7638058581553171 1 0 0 I I #
edge $-1 $216 -8.7638058581553171 $314 8.7638058581553171 $213 $439 forward 7 unknown #
edge $-1 $217 -8.7638058581553171 $313 8.7638058581553171 $214 $440 forward 7 unknown #
point $-1 79.167455061494792 -32.808576388334487 8.7638058581553171 #
point $-1 79.167455061494792 32.808576388334487 8.7638058581553171 #
face $-1 $-1 $232 $31 $-1 $441 reversed single #
loop $-1 $-1 $336 $219 #
plane-surface $-1 0 0 8.7638058581553171 0 0 1 1 0 0 forward_v I I I I #
coedge $-1 $442 $222 $227 $341 forward $134 $-1 #
coedge $-1 $222 $442 $443 $444 reversed $134 $-1 #
coedge $-1 $224 $223 $222 $335 reversed $85 $-1 #
edge $-1 $445 -5.4776126873526865 $346 -1.0947736542525792 $222 $446 forward 7 unknown #
coedge $-1 $443 $447 $224 $337 forward $330 $-1 #
edge $-1 $339 -79.167455061494792 $445 79.167455061494792 $336 $448 forward 7 unknown #
coedge $-1 $231 $225 $447 $449 reversed $232 $-1 #
vertex $-1 $226 $450 #
straight-curve $-1 79.167455061494792 -23.676362780270495 3.2861931708026324 0 0 1 I I #
edge $-1 $346 9.5551279881192492 $344 18.687341596183241 $332 $451 forward 7 unknown #
coedge $-1 $452 $228 $231 $348 reversed $220 $-1 #
coedge $-1 $228 $452 $442 $453 forward $220 $-1 #
vertex $-1 $229 $454 #
straight-curve $-1 0 -32.808576388334487 4.3809668250552116 1 0 0 I I #
vertex $-1 $341 $455 #
straight-curve $-1 0 -23.676362780270495 4.3809668250552116 1 0 0 I I #
edge $-1 $456 -8.7638058581553171 $233 -4.3809668250552116 $231 $457 forward 7 unknown #
point $-1 79.167455061494792 -32.808576388334487 4.3809668250552116 #
point $-1 79.167455061494792 -23.676362780270495 4.3809668250552116 #
loop $-1 $-1 $244 $236 #
plane-surface $-1 -79.167455061494792 0 0 1 0 0 0 0 -1 forward_v I I I I #
coedge $-1 $354 $239 $241 $358 reversed $142 $-1 #
coedge $-1 $239 $353 $458 $459 reversed $142 $-1 #
coedge $-1 $247 $242 $239 $356 forward $237 $-1 #
edge $-1 $359 -20.784693756835679 $460 -16.396117442025869 $355 $461 forward 7 unknown #
coedge $-1 $241 $240 $362 $462 reversed $89 $-1 #
edge $-1 $463 0 $359 6.2063842159232667 $353 $464 forward 7 unknown #
vertex $-1 $243 $465 #
straight-curve $-1 -74.778878746684981 -2.7518524326199341 8.7638058581553189 0 1 0 I I #
coedge $-1 $458 $244 $247 $366 reversed $351 $-1 #
coedge $-1 $244 $458 $357 $462 forward $351 $-1 #
vertex $-1 $245 $466 #
straight-curve $-1 -79.167455061494792 -11.644806251949937 58.167458394509261 0 0 1 I I #
straight-curve $-1 -79.167455061494792 -11.644806251949937 4.3752294415081394 -0.70710677298230451 0 -0.70710678939079041 I I #
edge $-1 $460 -0.63739652147020109 $248 11.644806251949937 $361 $467 forward 7 unknown #
point $-1 -79.167455061494792 -11.644806251949937 8.7638058581553171 #
point $-1 -74.778878746684981 -11.644806251949937 8.7638058581553171 #
edge $-1 $468 1 $468 0 $251 $-1 forward 7 unknown #
vertex $-1 $252 $469 #
ellipse-curve $-1 -75.672269092729522 -8.135605459544184 5.2686198686588304 -0.70710678939079041 0 0.70710677298230451 0.70710677298230451 0 0.70710678939079041 1 I I #
point $-1 -76.266060131107579 -8.135605459544184 7.276624439222517 #
edge $-1 $470 1 $470 0 $255 $-1 forward 7 unknown #
vertex $-1 $256 $471 #
ellipse-curve $-1 -75.672269092729522 -2.8718042709355558 5.2686198686588304 -0.70710678939079041 0 0.70710677298230451 0.70710677298230451 0 0.70710678939079041 1 I I #
point $-1 -76.266060131107579 -2.8718042709355558 7.276624439222517 #
loop $-1 $-1 $267 $259 #
plane-surface $-1 -79.167455061494792 0 0 1 0 0 0 0 -1 forward_v I I I I #
coedge $-1 $380 $262 $264 $384 reversed $164 $-1 #
coedge $-1 $262 $379 $472 $473 reversed $164 $-1 #
coedge $-1 $270 $265 $262 $382 forward $260 $-1 #
edge $-1 $385 -20.784693756835679 $474 -16.396117442025869 $381 $475 forward 7 unknown #
coedge $-1 $264 $263 $388 $476 reversed $103 $-1 #
edge $-1 $477 0 $385 6.2063842159232667 $379 $478 forward 7 unknown #
vertex $-1 $266 $479 #
straight-curve $-1 -74.778878746684981 7.3179592366519302 8.7638058581553189 0 1 0 I I #
coedge $-1 $472 $267 $270 $392 reversed $377 $-1 #
coedge $-1 $267 $472 $383 $476 forward $377 $-1 #
vertex $-1 $268 $480 #
straight-curve $-1 -79.167455061494792 8.4948170865937911 58.167458394509261 0 0 1 I I #
straight-curve $-1 -79.167455061494792 8.4948170865937911 4.3752294415081394 -0.70710677298230451 0 -0.70710678939079041 I I #
edge $-1 $474 -20.77701986001393 $271 -8.4948170865937911 $387 $481 forward 7 unknown #
point $-1 -79.167455061494792 8.4948170865937911 8.7638058581553171 #
point $-1 -74.778878746684981 8.4948170865937911 8.7638058581553171 #
edge $-1 $482 1 $482 0 $274 $-1 forward 7 unknown #
vertex $-1 $275 $483 #
ellipse-curve $-1 -75.672269092729522 12.004017878999541 5.2686198686588304 -0.70710678939079041 0 0.70710677298230451 0.70710677298230451 0 0.70710678939079041 1 I I #
point $-1 -76.266060131107579 12.004017878999541 7.276624439222517 #
edge $-1 $484 1 $484 0 $278 $-1 forward 7 unknown #
vertex $-1 $279 $485 #
ellipse-curve $-1 -75.672269092729522 17.267819067608173 5.2686198686588304 -0.70710678939079041 0 0.70710677298230451 0.70710677298230451 0 0.70710678939079041 1 I I #
point $-1 -76.266060131107579 17.267819067608173 7.276624439222517 #
plane-surface $-1 0 0 8.7638058581553171 0 0 1 1 0 0 forward_v I I I I #
coedge $-1 $414 $413 $406 $486 forward $283 $-1 #
coedge $-1 $406 $285 $287 $410 reversed $186 $-1 #
coedge $-1 $285 $405 $404 $486 reversed $186 $-1 #
coedge $-1 $293 $288 $285 $408 forward $294 $-1 #
edge $-1 $411 45.078399540432656 $487 53.228180185172462 $407 $488 forward 7 unknown #
coedge $-1 $287 $286 $414 $489 reversed $117 $-1 #
edge $-1 $490 -158.33491012298958 $411 -147.99268995680109 $405 $491 forward 7 unknown #
vertex $-1 $289 $492 #
straight-curve $-1 71.017674416755 5.1956639571356291 8.7638058581553153 0 -1 0 I I #
coedge $-1 $404 $290 $293 $418 reversed $283 $-1 #
coedge $-1 $290 $404 $409 $489 forward $283 $-1 #
vertex $-1 $291 $493 #
straight-curve $-1 79.167455061494792 16.719867387023395 112.32340786508071 0 0 1 I I #
straight-curve $-1 -45.602155831687114 16.719867387023395 99.877204836979516 0.78801074757464917 0 -0.61566148304635926 I I #
edge $-1 $487 4.0627884415191211 $295 16.719867387023395 $413 $494 forward 7 unknown #
point $-1 79.167455061494792 16.719867387023395 8.7638058581553171 #
point $-1 71.017674416754986 16.719867387023395 8.7638058581553224 #
edge $-1 $495 1 $495 0 $298 $-1 forward 7 unknown #
vertex $-1 $299 $496 #
ellipse-curve $-1 70.524641001452892 10.391327914271258 -0.26652309105248262 0.61566148304635926 0 0.78801074757464917 1.5760214951492983 0 -1.2313229660927185 1 I I #
point $-1 76.668586234274201 10.391327914271258 4.3488295893088038 #
plane-surface $-1 79.167455061494792 0 0 -1 0 0 0 0 1 forward_v I I I I #
coedge $-1 $307 $305 $309 $430 reversed $201 $-1 #
edge $-1 $320 -8.7638058581553171 $432 8.7638058581553171 $319 $497 forward 7 unknown #
vertex $-1 $430 $498 #
straight-curve $-1 -79.167455061494792 -32.808576388334487 0 0 0 -1 I I #
edge $-1 $428 -32.808576388334487 $432 32.808576388334487 $426 $499 forward 7 unknown #
straight-curve $-1 0 -32.808576388334487 -8.7638058581553171 -1 0 0 I I #
vertex $-1 $312 $500 #
straight-curve $-1 0 32.808576388334487 -8.7638058581553171 1 0 0 I I #
point $-1 79.167455061494792 32.808576388334487 -8.7638058581553171 #
point $-1 79.167455061494792 -32.808576388334487 -8.7638058581553171 #
straight-curve $-1 -79.167455061494792 0 8.7638058581553171 0 -1 0 I I #
point $-1 -79.167455061494792 32.808576388334487 8.7638058581553171 #
point $-1 -79.167455061494792 -32.808576388334487 8.7638058581553171 #
straight-curve $-1 79.167455061494792 -32.808576388334487 0 0 0 -1 I I #
straight-curve $-1 79.167455061494792 32.808576388334487 0 0 0 -1 I I #
plane-surface $-1 79.167455061494792 0 0 -1 0 0 0 0 1 forward_v I I I I #
coedge $-1 $333 $332 $343 $453 reversed $134 $-1 #
coedge $-1 $501 $336 $333 $444 forward $330 $-1 #
edge $-1 $445 23.676362780270495 $502 32.808576388334487 $333 $503 forward 7 unknown #
vertex $-1 $444 $504 #
straight-curve $-1 -79.167455061494792 -23.676362780270495 3.2861931708026324 0 0 -1 I I #
coedge $-1 $336 $501 $338 $449 forward $330 $-1 #
straight-curve $-1 0 -23.676362780270495 8.7638058581553171 -1 0 0 I I #
edge $-1 $456 -32.808576388334487 $339 -23.676362780270495 $338 $505 forward 7 unknown #
point $-1 79.167455061494792 -23.676362780270495 8.7638058581553189 #
straight-curve $-1 -79.167455061494792 -14.121234792151245 4.3809668250552116 0 -1 0 I I #
coedge $-1 $343 $342 $501 $506 reversed $220 $-1 #
edge $-1 $502 -8.7638058581553171 $344 -4.3809668250552116 $442 $507 forward 7 unknown #
point $-1 -79.167455061494792 -32.808576388334487 4.3809668250552116 #
point $-1 -79.167455061494792 -23.676362780270495 4.3809668250552116 #
vertex $-1 $449 $508 #
straight-curve $-1 79.167455061494792 -32.808576388334487 0 0 0 -1 I I #
coedge $-1 $362 $361 $354 $459 forward $351 $-1 #
edge $-1 $460 49.403652536353945 $463 53.792228953001121 $458 $509 forward 7 unknown #
vertex $-1 $366 $510 #
straight-curve $-1 -95.56357250352066 0.63739652147020109 8.7638058581553153 -1 0 0 I I #
edge $-1 $463 -3.3892489540901352 $363 8.8929538193300033 $362 $511 forward 7 unknown #
vertex $-1 $462 $512 #
straight-curve $-1 -79.167455061494792 0.63739652147020109 4.3752294415081394 0.70710677298230451 0 0.70710678939079041 I I #
point $-1 -74.778878746684981 0.63739652147020109 8.7638058581553171 #
point $-1 -79.167455061494792 -11.644806251949937 4.3752294415081394 #
straight-curve $-1 -79.167455061494792 0 8.7638058581553171 0 -1 0 I I #
vertex $-1 $369 $513 #
point $-1 -74.965162319747222 -8.135605459544184 5.9757266580496209 #
vertex $-1 $373 $514 #
point $-1 -74.965162319747222 -2.8718042709355558 5.9757266580496209 #
coedge $-1 $388 $387 $380 $473 forward $377 $-1 #
edge $-1 $474 49.403652536353945 $477 53.792228953001121 $472 $515 forward 7 unknown #
vertex $-1 $392 $516 #
straight-curve $-1 -95.56357250352066 20.77701986001393 8.7638058581553153 -1 0 0 I I #
edge $-1 $477 -13.459060623361999 $389 -1.1768578499418609 $388 $517 forward 7 unknown #
vertex $-1 $476 $518 #
straight-curve $-1 -79.167455061494792 20.77701986001393 4.3752294415081394 0.70710677298230451 0 0.70710678939079041 I I #
point $-1 -74.778878746684981 20.77701986001393 8.7638058581553171 #
point $-1 -79.167455061494792 8.4948170865937911 4.3752294415081394 #
straight-curve $-1 -79.167455061494792 0 8.7638058581553171 0 -1 0 I I #
vertex $-1 $395 $519 #
point $-1 -74.965162319747222 12.004017878999541 5.9757266580496209 #
vertex $-1 $399 $520 #
point $-1 -74.965162319747222 17.267819067608173 5.9757266580496209 #
edge $-1 $487 103.55960200692539 $490 109.92690861243297 $404 $521 forward 7 unknown #
vertex $-1 $418 $522 #
straight-curve $-1 25.93927487632233 4.0627884415191211 8.7638058581553224 1 0 0 I I #
edge $-1 $490 -1.132875515616508 $415 11.524203429887766 $414 $523 forward 7 unknown #
vertex $-1 $489 $524 #
straight-curve $-1 -45.602155831687114 4.0627884415191211 99.877204836979516 -0.78801074757464917 0 0.61566148304635926 I I #
point $-1 71.017674416754986 4.0627884415191211 8.7638058581553224 #
point $-1 79.167455061494792 16.719867387023395 2.3964992526477431 #
straight-curve $-1 79.167455061494792 0 8.7638058581553171 0 1 0 I I #
vertex $-1 $421 $525 #
point $-1 72.100662496602197 10.391327914271258 -1.497846057145201 #
straight-curve $-1 -79.167455061494792 32.808576388334487 0 0 0 -1 I I #
point $-1 -79.167455061494792 -32.808576388334487 -8.7638058581553171 #
straight-curve $-1 -79.167455061494792 0 -8.7638058581553171 0 1 0 I I #
point $-1 -79.167455061494792 32.808576388334487 -8.7638058581553171 #
coedge $-1 $447 $443 $452 $506 forward $330 $-1 #
vertex $-1 $444 $526 #
straight-curve $-1 -79.167455061494792 0 8.7638058581553171 0 -1 0 I I #
point $-1 -79.167455061494792 -23.676362780270495 8.7638058581553189 #
straight-curve $-1 79.167455061494792 0 8.7638058581553171 0 1 0 I I #
edge $-1 $502 -79.167455061494792 $456 79.167455061494792 $452 $527 forward 7 unknown #
straight-curve $-1 -79.167455061494792 -32.808576388334487 0 0 0 -1 I I #
point $-1 79.167455061494792 -32.808576388334487 8.7638058581553171 #
straight-curve $-1 -79.167455061494792 0.63739652147020109 58.167458394509261 0 0 -1 I I #
point $-1 -79.167455061494792 0.63739652147020109 8.7638058581553171 #
straight-curve $-1 -79.167455061494792 -2.7518524326199341 4.3752294415081323 0 -1 0 I I #
point $-1 -79.167455061494792 0.63739652147020109 4.3752294415081394 #
point $-1 -74.96516230333873 -8.135605459544184 4.5615130956765251 #
point $-1 -74.96516230333873 -2.8718042709355558 4.5615130956765251 #
straight-curve $-1 -79.167455061494792 20.77701986001393 58.167458394509261 0 0 -1 I I #
point $-1 -79.167455061494792 20.77701986001393 8.7638058581553171 #
straight-curve $-1 -79.167455061494792 7.3179592366519302 4.3752294415081323 0 -1 0 I I #
point $-1 -79.167455061494792 20.77701986001393 4.3752294415081394 #
point $-1 -74.96516230333873 12.004017878999541 4.5615130956765251 #
point $-1 -74.96516230333873 17.267819067608173 4.5615130956765251 #
straight-curve $-1 79.167455061494792 4.0627884415191211 112.32340786508071 0 0 -1 I I #
point $-1 79.167455061494792 4.0627884415191211 8.7638058581553171 #
straight-curve $-1 79.167455061494792 5.1956639571356291 2.3964992526477502 0 1 0 I I #
point $-1 79.167455061494792 4.0627884415191211 2.3964992526477431 #
point $-1 69.293318035360187 10.391327914271258 -1.8425445862017802 #
point $-1 -79.167455061494792 -32.808576388334487 8.7638058581553171 #
straight-curve $-1 0 -32.808576388334487 8.7638058581553171 1 0 0 I I #
End-of-ACIS-data 