500 0 10 0           
7 Unknown 11 ACIS 5.0 NT 24 Thu Mar 25 16:26:47 1999 
-1 9.9999999999999995e-007 1e-010 
body $-1 $10 $-1 $11 #
body $-1 $12 $-1 $13 #
body $-1 $14 $-1 $15 #
body $-1 $16 $-1 $17 #
body $-1 $18 $-1 $19 #
body $-1 $20 $-1 $21 #
body $-1 $22 $-1 $23 #
body $-1 $24 $-1 $25 #
body $-1 $26 $-1 $27 #
body $-1 $28 $-1 $29 #
lump $-1 $-1 $30 $0 #
transform $-1 1 0 0 0 1 0 0 0 1 57.72148808252205 31.565288267253518 8.9521843277561874 1 rotate no_reflect no_shear #
lump $-1 $-1 $31 $1 #
transform $-1 1 0 0 0 1 0 0 0 1 57.72148808252205 31.565288267253518 8.9521843277561874 1 rotate no_reflect no_shear #
lump $-1 $-1 $32 $2 #
transform $-1 1 0 0 0 1 0 0 0 1 57.72148808252205 31.565288267253518 8.9521843277561874 1 rotate no_reflect no_shear #
lump $-1 $-1 $33 $3 #
transform $-1 1 0 0 0 1 0 0 0 1 57.72148808252205 31.565288267253518 8.9521843277561874 1 rotate no_reflect no_shear #
lump $-1 $-1 $34 $4 #
transform $-1 1 0 0 0 1 0 0 0 1 57.72148808252205 31.565288267253518 8.9521843277561874 1 rotate no_reflect no_shear #
lump $-1 $-1 $35 $5 #
transform $-1 1 0 0 0 1 0 0 0 1 57.72148808252205 31.565288267253518 8.9521843277561874 1 rotate no_reflect no_shear #
lump $-1 $-1 $36 $6 #
transform $-1 1 0 0 0 1 0 0 0 1 57.72148808252205 31.565288267253518 8.9521843277561874 1 rotate no_reflect no_shear #
lump $-1 $-1 $37 $7 #
transform $-1 1 0 0 0 1 0 0 0 1 57.72148808252205 31.565288267253518 8.9521843277561874 1 rotate no_reflect no_shear #
lump $-1 $-1 $38 $8 #
transform $-1 1 0 0 0 1 0 0 0 1 57.72148808252205 31.565288267253518 8.9521843277561874 1 rotate no_reflect no_shear #
lump $-1 $-1 $39 $9 #
transform $-1 1 0 0 0 1 0 0 0 1 57.72148808252205 31.565288267253518 8.9521843277561874 1 rotate no_reflect no_shear #
shell $-1 $-1 $-1 $40 $-1 $10 #
shell $-1 $-1 $-1 $41 $-1 $12 #
shell $-1 $-1 $-1 $42 $-1 $14 #
shell $-1 $-1 $-1 $43 $-1 $16 #
shell $-1 $-1 $-1 $44 $-1 $18 #
shell $-1 $-1 $-1 $45 $-1 $20 #
shell $-1 $-1 $-1 $46 $-1 $22 #
shell $-1 $-1 $-1 $47 $-1 $24 #
shell $-1 $-1 $-1 $48 $-1 $26 #
shell $-1 $-1 $-1 $49 $-1 $28 #
face $-1 $50 $51 $30 $-1 $52 reversed single #
face $-1 $53 $54 $31 $-1 $55 forward single #
face $-1 $56 $57 $32 $-1 $58 forward single #
face $-1 $59 $60 $33 $-1 $61 reversed single #
face $-1 $62 $63 $34 $-1 $64 forward single #
face $-1 $65 $66 $35 $-1 $67 forward single #
face $-1 $68 $69 $36 $-1 $70 reversed single #
face $-1 $71 $72 $37 $-1 $73 forward single #
face $-1 $74 $75 $38 $-1 $76 forward single #
face $-1 $77 $78 $39 $-1 $79 forward single #
face $-1 $80 $81 $30 $-1 $82 forward single #
loop $-1 $-1 $83 $40 #
plane-surface $-1 0 31.565288267253518 0 0 -1 0 0 0 -1 forward_v I I I I #
face $-1 $84 $85 $31 $-1 $86 reversed single #
loop $-1 $-1 $87 $41 #
plane-surface $-1 0 -28.385220606166346 -5.5665445491246306 0 0 1 1 0 0 forward_v I I I I #
face $-1 $88 $89 $32 $-1 $90 reversed single #
loop $-1 $-1 $91 $42 #
plane-surface $-1 0 31.565288267253518 0 0 -1 0 0 0 -1 forward_v I I I I #
face $-1 $92 $93 $33 $-1 $94 reversed single #
loop $-1 $-1 $95 $43 #
plane-surface $-1 15.466427337434205 21.14910611084834 158.96923770985501 0 -1 0 -0.50000000669873634 0 -0.8660253999169214 forward_v I I I I #
face $-1 $96 $97 $34 $-1 $98 forward single #
loop $-1 $99 $100 $44 #
cone-surface $-1 50.037214181526103 11.434243719761671 3.3236164127623202 -0.50000000669873634 0 -0.8660253999169214 1.2990380998753821 0 -0.75000001004810457 1 I I 0 1 1.5 forward I I I I #
face $-1 $101 $102 $35 $-1 $103 forward single #
loop $-1 $104 $105 $45 #
cone-surface $-1 50.037214181526103 17.263161154413677 3.3236164127623202 -0.50000000669873634 0 -0.8660253999169214 1.2990380998753821 0 -0.75000001004810457 1 I I 0 1 1.5 forward I I I I #
face $-1 $106 $107 $36 $-1 $108 reversed single #
loop $-1 $-1 $109 $46 #
plane-surface $-1 -149.91834918286551 -25.205152945079174 73.029333459499327 0 1 0 -0.79863551827123203 0 0.60181501223851219 forward_v I I I I #
face $-1 $110 $111 $37 $-1 $112 forward single #
loop $-1 $113 $114 $47 #
cone-surface $-1 -55.173766046204499 -22.732649285215739 5.8659121186961052 0.79863551827123203 0 -0.60181501223851219 0.3009075061192561 0 0.39931775913561601 1 I I 0 1 0.5 forward I I I I #
face $-1 $115 $116 $38 $-1 $117 forward single #
loop $-1 $118 $119 $48 #
cone-surface $-1 -55.173766046204499 -19.023893795420587 5.8659121186961052 0.79863551827123203 0 -0.60181501223851219 0.3009075061192561 0 0.39931775913561601 1 I I 0 1 0.5 forward I I I I #
face $-1 $120 $121 $39 $-1 $122 forward single #
loop $-1 $123 $124 $49 #
cone-surface $-1 -55.173766046204499 -15.315138305625435 5.8659121186961052 0.79863551827123203 0 -0.60181501223851219 0.3009075061192561 0 0.39931775913561601 1 I I 0 1 0.5 forward I I I I #
face $-1 $125 $126 $30 $-1 $127 reversed single #
loop $-1 $-1 $128 $50 #
plane-surface $-1 0 0 8.9521843277561874 0 0 1 1 0 0 forward_v I I I I #
coedge $-1 $129 $130 $131 $132 reversed $51 $-1 #
face $-1 $133 $134 $31 $-1 $135 reversed single #
loop $-1 $-1 $136 $53 #
plane-surface $-1 0 -25.205152945079174 -7.259364438440409 0 -1 0 0 0 -1 forward_v I I I I #
coedge $-1 $137 $138 $139 $140 reversed $54 $-1 #
face $-1 $141 $142 $32 $-1 $143 reversed single #
loop $-1 $-1 $144 $56 #
plane-surface $-1 0 0 -8.9521843277561874 0 0 1 1 0 0 forward_v I I I I #
coedge $-1 $145 $146 $147 $148 forward $57 $-1 #
face $-1 $149 $150 $33 $-1 $151 reversed single #
loop $-1 $-1 $152 $59 #
plane-surface $-1 -42.255061518409903 14.34870243708767 58.992688108923062 0.50000000669873634 0 0.8660253999169214 0.8660253999169214 0 -0.50000000669873634 forward_v I I I I #
coedge $-1 $153 $154 $155 $156 reversed $60 $-1 #
face $-1 $-1 $157 $34 $-1 $158 forward single #
loop $-1 $159 $160 $62 #
cone-surface $-1 48.629868357440351 11.434243719761671 0.8860219851693838 -0.50000000669873634 0 -0.8660253999169214 0.64951904993769105 0 -0.37500000502405229 1 I I -0.70710678118654757 0.70710678118654757 0.75 forward I I I I #
loop $-1 $-1 $161 $44 #
coedge $-1 $100 $100 $162 $163 reversed $63 $-1 #
face $-1 $-1 $164 $35 $-1 $165 forward single #
loop $-1 $166 $167 $65 #
cone-surface $-1 48.629868357440351 17.263161154413677 0.8860219851693838 -0.50000000669873634 0 -0.8660253999169214 0.64951904993769105 0 -0.37500000502405229 1 I I -0.70710678118654757 0.70710678118654757 0.75 forward I I I I #
loop $-1 $-1 $168 $45 #
coedge $-1 $105 $105 $169 $170 reversed $66 $-1 #
face $-1 $171 $172 $36 $-1 $173 reversed single #
loop $-1 $-1 $174 $68 #
plane-surface $-1 -57.721488082522029 -19.023893795420587 3.5540173458830395 -0.79863551827123203 0 0.60181501223851219 0.60181501223851219 0 0.79863551827123203 forward_v I I I I #
coedge $-1 $175 $176 $177 $178 reversed $69 $-1 #
face $-1 $-1 $179 $37 $-1 $180 forward single #
loop $-1 $181 $182 $71 #
cone-surface $-1 -54.460290368652274 -22.732649285215739 5.3282696475129647 0.79863551827123203 0 -0.60181501223851219 0.15045375305962805 0 0.19965887956780801 1 I I -0.70710678118654746 0.70710678118654746 0.25 forward I I I I #
loop $-1 $-1 $183 $47 #
coedge $-1 $114 $114 $184 $185 reversed $72 $-1 #
face $-1 $-1 $186 $38 $-1 $187 forward single #
loop $-1 $188 $189 $74 #
cone-surface $-1 -54.460290368652274 -19.023893795420587 5.3282696475129647 0.79863551827123203 0 -0.60181501223851219 0.15045375305962805 0 0.19965887956780801 1 I I -0.70710678118654746 0.70710678118654746 0.25 forward I I I I #
loop $-1 $-1 $190 $48 #
coedge $-1 $119 $119 $191 $192 reversed $75 $-1 #
face $-1 $-1 $193 $39 $-1 $194 forward single #
loop $-1 $195 $196 $77 #
cone-surface $-1 -54.460290368652274 -15.315138305625435 5.3282696475129647 0.79863551827123203 0 -0.60181501223851219 0.15045375305962805 0 0.19965887956780801 1 I I -0.70710678118654746 0.70710678118654746 0.25 forward I I I I #
loop $-1 $-1 $197 $49 #
coedge $-1 $124 $124 $198 $199 reversed $78 $-1 #
face $-1 $200 $201 $30 $-1 $202 reversed single #
loop $-1 $-1 $203 $80 #
plane-surface $-1 0 0 -8.9521843277561874 0 0 1 1 0 0 forward_v I I I I #
coedge $-1 $204 $205 $206 $207 forward $81 $-1 #
coedge $-1 $208 $83 $209 $210 reversed $51 $-1 #
coedge $-1 $83 $208 $211 $212 forward $51 $-1 #
coedge $-1 $203 $213 $83 $132 forward $126 $-1 #
edge $-1 $214 -57.72148808252205 $215 57.72148808252205 $83 $216 forward 7 unknown #
face $-1 $217 $218 $31 $-1 $219 reversed single #
loop $-1 $-1 $220 $84 #
plane-surface $-1 0 0 -8.9521843277561874 0 0 1 1 0 0 forward_v I I I I #
coedge $-1 $221 $222 $223 $224 reversed $85 $-1 #
coedge $-1 $225 $87 $222 $226 forward $54 $-1 #
coedge $-1 $87 $225 $227 $228 reversed $54 $-1 #
coedge $-1 $229 $223 $87 $140 forward $218 $-1 #
edge $-1 $230 11.012542641996001 $231 17.372677964170343 $139 $232 forward 7 unknown #
face $-1 $233 $234 $32 $-1 $235 reversed single #
loop $-1 $-1 $236 $88 #
plane-surface $-1 -46.633842269760137 36.773379345456107 0 1 0 0 0 0 -1 forward_v I I I I #
coedge $-1 $237 $238 $146 $239 forward $89 $-1 #
coedge $-1 $240 $91 $241 $242 reversed $57 $-1 #
coedge $-1 $91 $240 $144 $239 reversed $57 $-1 #
coedge $-1 $243 $244 $91 $148 reversed $245 $-1 #
edge $-1 $246 -8.9521843277561874 $247 8.9521843277561874 $147 $248 forward 7 unknown #
face $-1 $249 $250 $33 $-1 $251 reversed single #
loop $-1 $-1 $252 $92 #
plane-surface $-1 15.466427337434205 7.5482987633270007 158.96923770985501 0 1 0 0.50000000669873634 0 0.8660253999169214 forward_v I I I I #
coedge $-1 $253 $254 $255 $256 reversed $93 $-1 #
coedge $-1 $154 $95 $257 $258 reversed $60 $-1 #
coedge $-1 $95 $153 $253 $259 reversed $60 $-1 #
coedge $-1 $255 $260 $95 $156 forward $261 $-1 #
edge $-1 $262 -49.988274413804945 $263 -36.684418249936471 $155 $264 forward 7 unknown #
loop $-1 $-1 $162 $96 #
plane-surface $-1 -42.255061518409903 14.34870243708767 58.992688108923062 0.50000000669873634 0 0.8660253999169214 0.8660253999169214 0 -0.50000000669873634 forward_v I I I I #
loop $-1 $-1 $265 $62 #
coedge $-1 $160 $160 $161 $266 reversed $97 $-1 #
coedge $-1 $161 $161 $160 $266 forward $99 $-1 #
coedge $-1 $162 $162 $100 $163 forward $157 $-1 #
edge $-1 $267 0 $267 6.2831853071796004 $162 $268 forward 7 unknown #
loop $-1 $-1 $169 $101 #
plane-surface $-1 -42.255061518409903 14.34870243708767 58.992688108923062 0.50000000669873634 0 0.8660253999169214 0.8660253999169214 0 -0.50000000669873634 forward_v I I I I #
loop $-1 $-1 $269 $65 #
coedge $-1 $167 $167 $168 $270 reversed $102 $-1 #
coedge $-1 $168 $168 $167 $270 forward $104 $-1 #
coedge $-1 $169 $169 $105 $170 forward $164 $-1 #
edge $-1 $271 0 $271 6.2831853071796004 $169 $272 forward 7 unknown #
face $-1 $273 $274 $36 $-1 $275 forward single #
loop $-1 $-1 $276 $106 #
plane-surface $-1 -149.91834918286551 -12.842634645762001 73.029333459499327 0 -1 0 0.79863551827123203 0 -0.60181501223851219 forward_v I I I I #
coedge $-1 $277 $278 $279 $280 reversed $107 $-1 #
coedge $-1 $176 $109 $281 $282 reversed $69 $-1 #
coedge $-1 $109 $175 $277 $283 reversed $69 $-1 #
coedge $-1 $279 $284 $109 $178 forward $274 $-1 #
edge $-1 $285 17.237686508910706 $286 21.305496985577008 $177 $287 forward 7 unknown #
loop $-1 $-1 $184 $110 #
plane-surface $-1 -57.721488082522029 -19.023893795420587 3.5540173458830395 -0.79863551827123203 0 0.60181501223851219 0.60181501223851219 0 0.79863551827123203 forward_v I I I I #
loop $-1 $-1 $288 $71 #
coedge $-1 $182 $182 $183 $289 reversed $111 $-1 #
coedge $-1 $183 $183 $182 $289 forward $113 $-1 #
coedge $-1 $184 $184 $114 $185 forward $179 $-1 #
edge $-1 $290 0 $290 6.2831853071796004 $184 $291 forward 7 unknown #
loop $-1 $-1 $191 $115 #
plane-surface $-1 -57.721488082522029 -19.023893795420587 3.5540173458830395 -0.79863551827123203 0 0.60181501223851219 0.60181501223851219 0 0.79863551827123203 forward_v I I I I #
loop $-1 $-1 $292 $74 #
coedge $-1 $189 $189 $190 $293 reversed $116 $-1 #
coedge $-1 $190 $190 $189 $293 forward $118 $-1 #
coedge $-1 $191 $191 $119 $192 forward $186 $-1 #
edge $-1 $294 0 $294 6.2831853071796004 $191 $295 forward 7 unknown #
loop $-1 $-1 $198 $120 #
plane-surface $-1 -57.721488082522029 -19.023893795420587 3.5540173458830395 -0.79863551827123203 0 0.60181501223851219 0.60181501223851219 0 0.79863551827123203 forward_v I I I I #
loop $-1 $-1 $296 $77 #
coedge $-1 $196 $196 $197 $297 reversed $121 $-1 #
coedge $-1 $197 $197 $196 $297 forward $123 $-1 #
coedge $-1 $198 $198 $124 $199 forward $193 $-1 #
edge $-1 $298 0 $298 6.2831853071796004 $198 $299 forward 7 unknown #
face $-1 $300 $301 $30 $-1 $302 reversed single #
loop $-1 $-1 $303 $125 #
plane-surface $-1 0 -31.565288267253518 0 0 1 0 0 0 1 forward_v I I I I #
coedge $-1 $304 $131 $305 $306 forward $126 $-1 #
coedge $-1 $307 $128 $208 $308 forward $81 $-1 #
coedge $-1 $128 $307 $309 $310 forward $81 $-1 #
coedge $-1 $311 $211 $128 $207 reversed $312 $-1 #
edge $-1 $313 -31.565288267253518 $314 31.565288267253518 $206 $315 forward 7 unknown #
coedge $-1 $130 $129 $204 $308 reversed $51 $-1 #
coedge $-1 $316 $317 $129 $210 forward $301 $-1 #
edge $-1 $318 -8.9521843277561874 $214 8.9521843277561874 $129 $319 forward 7 unknown #
coedge $-1 $206 $305 $130 $212 reversed $312 $-1 #
edge $-1 $314 -8.9521843277561874 $215 8.9521843277561874 $211 $320 forward 7 unknown #
coedge $-1 $131 $304 $316 $321 forward $126 $-1 #
vertex $-1 $132 $322 #
vertex $-1 $306 $323 #
straight-curve $-1 0 31.565288267253518 -8.9521843277561874 1 0 0 I I #
face $-1 $324 $325 $31 $-1 $326 reversed single #
loop $-1 $-1 $223 $133 #
plane-surface $-1 57.72148808252205 0 0 -1 0 0 0 0 1 forward_v I I I I #
coedge $-1 $327 $328 $221 $329 forward $134 $-1 #
coedge $-1 $330 $136 $220 $329 reversed $85 $-1 #
coedge $-1 $136 $330 $137 $226 reversed $85 $-1 #
coedge $-1 $139 $331 $136 $224 forward $218 $-1 #
edge $-1 $332 -5.3225021085359829 $230 -1.9368623299044261 $223 $333 forward 7 unknown #
coedge $-1 $138 $137 $334 $335 reversed $54 $-1 #
edge $-1 $230 -57.72148808252205 $336 57.72148808252205 $222 $337 forward 7 unknown #
coedge $-1 $338 $339 $138 $228 forward $325 $-1 #
edge $-1 $231 -57.72148808252205 $340 57.72148808252205 $227 $341 forward 7 unknown #
coedge $-1 $331 $139 $339 $342 forward $218 $-1 #
vertex $-1 $140 $343 #
vertex $-1 $342 $344 #
straight-curve $-1 57.72148808252205 -14.192610303083173 -5.5665445491246306 0 -1 0 I I #
face $-1 $345 $245 $32 $-1 $346 reversed single #
loop $-1 $-1 $347 $141 #
plane-surface $-1 -45.133842269760137 41.981470423658692 0 0 -1 0 0 0 -1 forward_v I I I I #
coedge $-1 $348 $349 $350 $351 forward $142 $-1 #
coedge $-1 $352 $144 $348 $353 forward $89 $-1 #
coedge $-1 $144 $352 $243 $354 forward $89 $-1 #
edge $-1 $246 43.633842269760137 $355 46.633842269760137 $144 $356 forward 7 unknown #
coedge $-1 $146 $145 $357 $358 forward $57 $-1 #
coedge $-1 $359 $360 $145 $242 forward $361 $-1 #
edge $-1 $362 -46.633842269760137 $247 -43.633842269760137 $241 $363 forward 7 unknown #
coedge $-1 $364 $147 $238 $354 reversed $245 $-1 #
coedge $-1 $147 $364 $359 $365 reversed $245 $-1 #
loop $-1 $-1 $147 $233 #
vertex $-1 $239 $366 #
vertex $-1 $365 $367 #
straight-curve $-1 -43.633842269760137 31.565288267253518 0 0 0 1 I I #
face $-1 $-1 $261 $33 $-1 $368 forward single #
loop $-1 $-1 $369 $149 #
plane-surface $-1 57.72148808252205 0 0 -1 0 0 0 0 1 forward_v I I I I #
coedge $-1 $370 $371 $372 $373 reversed $150 $-1 #
coedge $-1 $374 $152 $154 $259 forward $93 $-1 #
coedge $-1 $152 $374 $370 $375 forward $93 $-1 #
coedge $-1 $372 $155 $152 $256 forward $261 $-1 #
edge $-1 $263 -13.974754892304505 $376 -0.3739475447831655 $255 $377 forward 7 unknown #
coedge $-1 $378 $379 $153 $258 forward $250 $-1 #
edge $-1 $380 -78.213419601848557 $262 -70.532434527171318 $257 $381 forward 7 unknown #
edge $-1 $263 100.0810062215012 $380 115.4429761650441 $154 $382 forward 7 unknown #
coedge $-1 $155 $372 $378 $383 forward $261 $-1 #
loop $-1 $-1 $372 $249 #
vertex $-1 $258 $384 #
vertex $-1 $156 $385 #
straight-curve $-1 7.7332136687171023 21.14910611084834 8.9521843277561857 -1 0 0 I I #
coedge $-1 $265 $265 $-1 $386 reversed $159 $-1 #
edge $-1 $387 0 $387 6.2831853071796004 $160 $388 forward 7 unknown #
vertex $-1 $163 $389 #
ellipse-curve $-1 51.069560000587806 11.434243719761671 5.1116917904175763 0.50000000669873634 0 0.8660253999169214 1.2990380998753821 0 -0.75000001004810457 1 I I #
coedge $-1 $269 $269 $-1 $390 reversed $166 $-1 #
edge $-1 $391 0 $391 6.2831853071796004 $167 $392 forward 7 unknown #
vertex $-1 $170 $393 #
ellipse-curve $-1 51.069560000587806 17.263161154413677 5.1116917904175763 0.50000000669873634 0 0.8660253999169214 1.2990380998753821 0 -0.75000001004810457 1 I I #
face $-1 $-1 $394 $36 $-1 $395 reversed single #
loop $-1 $-1 $177 $171 #
plane-surface $-1 0 0 8.9521843277561874 0 0 1 1 0 0 forward_v I I I I #
coedge $-1 $396 $397 $398 $399 reversed $172 $-1 #
coedge $-1 $400 $174 $176 $283 forward $107 $-1 #
coedge $-1 $174 $400 $396 $401 forward $107 $-1 #
coedge $-1 $398 $177 $174 $280 forward $274 $-1 #
edge $-1 $286 -15.69320604736888 $402 -3.330687748051707 $279 $403 forward 7 unknown #
coedge $-1 $404 $405 $175 $282 forward $394 $-1 #
edge $-1 $406 -32.960649383866652 $285 -27.562482401993478 $281 $407 forward 7 unknown #
edge $-1 $286 -6.7592372970817802 $406 3.5527045197628586e-014 $176 $408 forward 7 unknown #
coedge $-1 $177 $398 $404 $409 forward $274 $-1 #
vertex $-1 $282 $410 #
vertex $-1 $178 $411 #
straight-curve $-1 -74.959174591432756 -25.205152945079174 8.9521843277561857 1 0 0 I I #
coedge $-1 $288 $288 $-1 $412 reversed $181 $-1 #
edge $-1 $413 0 $413 6.2831853071796004 $182 $414 forward 7 unknown #
vertex $-1 $185 $415 #
ellipse-curve $-1 -55.687582844188896 -22.732649285215739 6.2531008368196037 -0.79863551827123203 0 0.60181501223851219 0.3009075061192561 0 0.39931775913561601 1 I I #
coedge $-1 $292 $292 $-1 $416 reversed $188 $-1 #
edge $-1 $417 0 $417 6.2831853071796004 $189 $418 forward 7 unknown #
vertex $-1 $192 $419 #
ellipse-curve $-1 -55.687582844188896 -19.023893795420587 6.2531008368196037 -0.79863551827123203 0 0.60181501223851219 0.3009075061192561 0 0.39931775913561601 1 I I #
coedge $-1 $296 $296 $-1 $420 reversed $195 $-1 #
edge $-1 $421 0 $421 6.2831853071796004 $196 $422 forward 7 unknown #
vertex $-1 $199 $423 #
ellipse-curve $-1 -55.687582844188896 -15.315138305625435 6.2531008368196037 -0.79863551827123203 0 0.60181501223851219 0.3009075061192561 0 0.39931775913561601 1 I I #
face $-1 $-1 $312 $30 $-1 $424 reversed single #
loop $-1 $-1 $209 $200 #
plane-surface $-1 -57.72148808252205 0 0 1 0 0 0 0 -1 forward_v I I I I #
coedge $-1 $425 $309 $426 $427 forward $201 $-1 #
coedge $-1 $213 $203 $425 $428 forward $126 $-1 #
coedge $-1 $211 $311 $203 $306 reversed $312 $-1 #
edge $-1 $215 -31.565288267253518 $429 31.565288267253518 $305 $430 forward 7 unknown #
coedge $-1 $205 $204 $317 $431 forward $81 $-1 #
edge $-1 $314 -57.72148808252205 $318 57.72148808252205 $208 $432 forward 7 unknown #
coedge $-1 $303 $433 $205 $310 reversed $201 $-1 #
edge $-1 $434 -57.72148808252205 $313 57.72148808252205 $309 $435 forward 7 unknown #
coedge $-1 $305 $206 $433 $436 forward $312 $-1 #
loop $-1 $-1 $311 $300 #
vertex $-1 $207 $437 #
vertex $-1 $207 $438 #
straight-curve $-1 57.72148808252205 0 8.9521843277561874 0 1 0 I I #
coedge $-1 $426 $209 $213 $321 reversed $301 $-1 #
coedge $-1 $209 $426 $307 $431 reversed $301 $-1 #
vertex $-1 $308 $439 #
straight-curve $-1 -57.72148808252205 31.565288267253518 0 0 0 -1 I I #
straight-curve $-1 57.72148808252205 31.565288267253518 0 0 0 -1 I I #
edge $-1 $440 -31.565288267253518 $214 31.565288267253518 $316 $441 forward 7 unknown #
point $-1 -57.72148808252205 31.565288267253518 -8.9521843277561874 #
point $-1 57.72148808252205 31.565288267253518 -8.9521843277561874 #
face $-1 $-1 $442 $31 $-1 $443 reversed single #
loop $-1 $-1 $227 $217 #
plane-surface $-1 0 -31.565288267253518 0 0 1 0 0 0 1 forward_v I I I I #
coedge $-1 $444 $220 $331 $445 forward $134 $-1 #
coedge $-1 $220 $444 $446 $447 forward $134 $-1 #
edge $-1 $448 -57.72148808252205 $332 57.72148808252205 $220 $449 forward 7 unknown #
coedge $-1 $222 $221 $450 $451 reversed $85 $-1 #
coedge $-1 $223 $229 $327 $445 reversed $218 $-1 #
vertex $-1 $445 $452 #
straight-curve $-1 57.72148808252205 -25.205152945079174 -3.6296822192202045 0 0 1 I I #
coedge $-1 $450 $453 $225 $335 forward $442 $-1 #
edge $-1 $340 -17.372677964170343 $336 -11.012542641996001 $334 $454 forward 7 unknown #
vertex $-1 $335 $455 #
straight-curve $-1 0 -25.205152945079174 -5.5665445491246306 -1 0 0 I I #
coedge $-1 $456 $227 $453 $457 forward $325 $-1 #
coedge $-1 $227 $456 $229 $342 reversed $325 $-1 #
vertex $-1 $457 $458 #
straight-curve $-1 0 -31.565288267253518 -5.5665445491246306 -1 0 0 I I #
edge $-1 $231 5.5665445491246306 $459 8.9521843277561874 $229 $460 forward 7 unknown #
point $-1 57.72148808252205 -25.205152945079174 -5.5665445491246306 #
point $-1 57.72148808252205 -31.565288267253518 -5.5665445491246306 #
face $-1 $-1 $361 $32 $-1 $461 forward single #
plane-surface $-1 -43.633842269760137 36.773379345456107 0 -1 0 0 0 0 1 forward_v I I I I #
coedge $-1 $462 $463 $364 $464 forward $234 $-1 #
coedge $-1 $357 $236 $237 $353 reversed $142 $-1 #
coedge $-1 $236 $357 $360 $465 reversed $142 $-1 #
coedge $-1 $463 $462 $236 $351 reversed $234 $-1 #
edge $-1 $466 -8.9521843277561874 $467 8.9521843277561874 $350 $468 forward 7 unknown #
coedge $-1 $238 $237 $462 $469 forward $89 $-1 #
edge $-1 $355 -5.2080910782025889 $467 5.2080910782025853 $348 $470 forward 7 unknown #
edge $-1 $471 -5.2080910782025853 $246 5.2080910782025889 $243 $472 forward 7 unknown #
vertex $-1 $353 $473 #
straight-curve $-1 0 31.565288267253518 -8.9521843277561874 -1 0 0 I I #
coedge $-1 $349 $348 $240 $358 reversed $142 $-1 #
edge $-1 $362 -8.9521843277561874 $355 8.9521843277561874 $357 $474 forward 7 unknown #
coedge $-1 $475 $241 $244 $365 forward $361 $-1 #
coedge $-1 $241 $475 $349 $465 forward $361 $-1 #
loop $-1 $-1 $241 $345 #
vertex $-1 $242 $476 #
straight-curve $-1 0 31.565288267253518 8.9521843277561874 1 0 0 I I #
coedge $-1 $244 $243 $347 $464 reversed $245 $-1 #
edge $-1 $247 -5.2080910782025889 $477 5.2080910782025853 $244 $478 forward 7 unknown #
point $-1 -43.633842269760137 31.565288267253518 -8.9521843277561874 #
point $-1 -43.633842269760137 31.565288267253518 8.9521843277561874 #
plane-surface $-1 0 0 8.9521843277561874 0 0 1 1 0 0 forward_v I I I I #
coedge $-1 $379 $378 $371 $479 forward $250 $-1 #
coedge $-1 $371 $252 $254 $375 reversed $150 $-1 #
coedge $-1 $252 $370 $369 $479 reversed $150 $-1 #
coedge $-1 $260 $255 $252 $373 forward $261 $-1 #
edge $-1 $376 36.684418249936471 $480 49.988274413804945 $372 $481 forward 7 unknown #
coedge $-1 $254 $253 $379 $482 reversed $93 $-1 #
edge $-1 $483 -115.4429761650441 $376 -100.0810062215012 $370 $484 forward 7 unknown #
vertex $-1 $256 $485 #
straight-curve $-1 44.417631918653569 7.1743512185438352 8.9521843277561928 0 -1 0 I I #
coedge $-1 $369 $257 $260 $383 reversed $250 $-1 #
coedge $-1 $257 $369 $374 $482 forward $250 $-1 #
vertex $-1 $258 $486 #
straight-curve $-1 57.72148808252205 21.14910611084834 79.484618854927504 0 0 1 I I #
straight-curve $-1 -42.255061518409903 21.14910611084834 58.992688108923062 0.8660253999169214 0 -0.50000000669873634 I I #
edge $-1 $480 7.5482987633270007 $262 21.14910611084834 $378 $487 forward 7 unknown #
point $-1 57.72148808252205 21.14910611084834 8.9521843277561874 #
point $-1 44.417631918653569 21.14910611084834 8.9521843277561857 #
edge $-1 $488 1 $488 0 $265 $-1 forward 7 unknown #
vertex $-1 $266 $489 #
ellipse-curve $-1 49.004868362464407 11.434243719761671 1.5355410351070748 0.50000000669873634 0 0.8660253999169214 1.2990380998753821 0 -0.75000001004810457 1 I I #
point $-1 52.368598100463181 11.434243719761671 4.361691780369461 #
edge $-1 $490 1 $490 0 $269 $-1 forward 7 unknown #
vertex $-1 $270 $491 #
ellipse-curve $-1 49.004868362464407 17.263161154413677 1.5355410351070748 0.50000000669873634 0 0.8660253999169214 1.2990380998753821 0 -0.75000001004810457 1 I I #
point $-1 52.368598100463181 17.263161154413677 4.361691780369461 #
loop $-1 $-1 $281 $273 #
plane-surface $-1 -57.72148808252205 0 0 1 0 0 0 0 -1 forward_v I I I I #
coedge $-1 $397 $276 $278 $401 reversed $172 $-1 #
coedge $-1 $276 $396 $492 $493 reversed $172 $-1 #
coedge $-1 $284 $279 $276 $399 forward $274 $-1 #
edge $-1 $402 -21.305496985577008 $494 -17.237686508910706 $398 $495 forward 7 unknown #
coedge $-1 $278 $277 $405 $496 reversed $107 $-1 #
edge $-1 $497 -3.5527045197628586e-014 $402 6.7592372970817802 $396 $498 forward 7 unknown #
vertex $-1 $280 $499 #
straight-curve $-1 -53.653677605855748 -9.5119468977102937 8.9521843277561874 0 1 0 I I #
coedge $-1 $492 $281 $284 $409 reversed $394 $-1 #
coedge $-1 $281 $492 $400 $496 forward $394 $-1 #
vertex $-1 $282 $500 #
straight-curve $-1 -57.72148808252205 -25.205152945079174 36.514666729749663 0 0 1 I I #
straight-curve $-1 -57.721488082522029 -25.205152945079174 3.5540173458830395 -0.60181501223851219 0 -0.79863551827123203 I I #
edge $-1 $494 12.842634645762001 $285 25.205152945079174 $404 $501 forward 7 unknown #
point $-1 -57.72148808252205 -25.205152945079174 8.9521843277561874 #
point $-1 -53.653677605855748 -25.205152945079174 8.9521843277561874 #
edge $-1 $502 1 $502 0 $288 $-1 forward 7 unknown #
vertex $-1 $289 $503 #
ellipse-curve $-1 -54.65994924822008 -22.732649285215739 5.4787234005725924 -0.79863551827123203 0 0.60181501223851219 0.3009075061192561 0 0.39931775913561601 1 I I #
point $-1 -55.386675338069658 -22.732649285215739 6.6524185959552335 #
edge $-1 $504 1 $504 0 $292 $-1 forward 7 unknown #
vertex $-1 $293 $505 #
ellipse-curve $-1 -54.65994924822008 -19.023893795420587 5.4787234005725924 -0.79863551827123203 0 0.60181501223851219 0.3009075061192561 0 0.39931775913561601 1 I I #
point $-1 -55.386675338069658 -19.023893795420587 6.6524185959552335 #
edge $-1 $506 1 $506 0 $296 $-1 forward 7 unknown #
vertex $-1 $297 $507 #
ellipse-curve $-1 -54.65994924822008 -15.315138305625435 5.4787234005725924 -0.79863551827123203 0 0.60181501223851219 0.3009075061192561 0 0.39931775913561601 1 I I #
point $-1 -55.386675338069658 -15.315138305625435 6.6524185959552335 #
plane-surface $-1 57.72148808252205 0 0 -1 0 0 0 0 1 forward_v I I I I #
coedge $-1 $433 $303 $304 $428 reversed $201 $-1 #
coedge $-1 $317 $316 $303 $427 reversed $301 $-1 #
edge $-1 $434 -8.9521843277561874 $440 8.9521843277561874 $426 $508 forward 7 unknown #
edge $-1 $429 -57.72148808252205 $440 57.72148808252205 $425 $509 forward 7 unknown #
vertex $-1 $436 $510 #
straight-curve $-1 57.72148808252205 0 -8.9521843277561874 0 -1 0 I I #
edge $-1 $318 -31.565288267253518 $434 31.565288267253518 $317 $511 forward 7 unknown #
straight-curve $-1 0 31.565288267253518 8.9521843277561874 -1 0 0 I I #
coedge $-1 $309 $425 $311 $436 reversed $201 $-1 #
vertex $-1 $431 $512 #
straight-curve $-1 0 -31.565288267253518 8.9521843277561874 1 0 0 I I #
edge $-1 $313 -8.9521843277561874 $429 8.9521843277561874 $311 $513 forward 7 unknown #
point $-1 57.72148808252205 -31.565288267253518 8.9521843277561874 #
point $-1 57.72148808252205 31.565288267253518 8.9521843277561874 #
point $-1 -57.72148808252205 31.565288267253518 8.9521843277561874 #
vertex $-1 $321 $514 #
straight-curve $-1 -57.72148808252205 0 -8.9521843277561874 0 1 0 I I #
loop $-1 $-1 $450 $324 #
plane-surface $-1 -57.72148808252205 0 0 1 0 0 0 0 -1 forward_v I I I I #
coedge $-1 $328 $327 $456 $515 forward $134 $-1 #
edge $-1 $332 25.205152945079174 $459 31.565288267253518 $331 $516 forward 7 unknown #
coedge $-1 $453 $450 $328 $447 reversed $442 $-1 #
edge $-1 $517 -31.565288267253518 $448 -25.205152945079174 $446 $518 forward 7 unknown #
vertex $-1 $451 $519 #
straight-curve $-1 0 -25.205152945079174 -8.9521843277561874 1 0 0 I I #
coedge $-1 $446 $334 $330 $451 forward $442 $-1 #
edge $-1 $336 1.9368623299044261 $448 5.3225021085359829 $450 $520 forward 7 unknown #
point $-1 57.72148808252205 -25.205152945079174 -8.9521843277561874 #
coedge $-1 $334 $446 $338 $457 reversed $442 $-1 #
straight-curve $-1 -57.72148808252205 -14.192610303083173 -5.5665445491246306 0 1 0 I I #
point $-1 -57.72148808252205 -25.205152945079174 -5.5665445491246306 #
coedge $-1 $339 $338 $444 $515 reversed $325 $-1 #
edge $-1 $340 5.5665445491246306 $517 8.9521843277561874 $453 $521 forward 7 unknown #
point $-1 -57.72148808252205 -31.565288267253518 -5.5665445491246306 #
vertex $-1 $342 $522 #
straight-curve $-1 57.72148808252205 -31.565288267253518 0 0 0 -1 I I #
plane-surface $-1 0 0 8.9521843277561874 0 0 1 1 0 0 forward_v I I I I #
coedge $-1 $350 $347 $352 $469 reversed $234 $-1 #
coedge $-1 $347 $350 $475 $523 reversed $234 $-1 #
edge $-1 $477 -8.9521843277561874 $471 8.9521843277561874 $364 $524 forward 7 unknown #
edge $-1 $466 -5.2080910782025853 $362 5.2080910782025889 $349 $525 forward 7 unknown #
vertex $-1 $523 $526 #
vertex $-1 $469 $527 #
straight-curve $-1 -46.633842269760137 41.981470423658692 0 0 0 -1 I I #
edge $-1 $467 -1.5 $471 1.5 $462 $528 forward 7 unknown #
straight-curve $-1 -46.633842269760137 36.773379345456107 -8.9521843277561874 0 1 0 I I #
vertex $-1 $354 $529 #
straight-curve $-1 -43.633842269760137 36.773379345456107 -8.9521843277561874 0 -1 0 I I #
point $-1 -46.633842269760137 31.565288267253518 -8.9521843277561874 #
straight-curve $-1 -46.633842269760137 31.565288267253518 0 0 0 -1 I I #
coedge $-1 $360 $359 $463 $523 forward $361 $-1 #
point $-1 -46.633842269760137 31.565288267253518 8.9521843277561874 #
vertex $-1 $365 $530 #
straight-curve $-1 -43.633842269760137 36.773379345456107 8.9521843277561874 0 1 0 I I #
edge $-1 $480 70.532434527171318 $483 78.213419601848557 $369 $531 forward 7 unknown #
vertex $-1 $383 $532 #
straight-curve $-1 7.7332136687171023 7.5482987633270007 8.9521843277561857 1 0 0 I I #
edge $-1 $483 0.3739475447831655 $380 13.974754892304505 $379 $533 forward 7 unknown #
vertex $-1 $482 $534 #
straight-curve $-1 -42.255061518409903 7.5482987633270007 58.992688108923062 -0.8660253999169214 0 0.50000000669873634 I I #
point $-1 44.417631918653569 7.5482987633270007 8.9521843277561857 #
point $-1 57.721488082522043 21.14910611084834 1.2711992530789544 #
straight-curve $-1 57.72148808252205 0 8.9521843277561874 0 1 0 I I #
vertex $-1 $386 $535 #
point $-1 50.303906462339782 11.434243719761671 0.78554102505897028 #
vertex $-1 $390 $536 #
point $-1 50.303906462339782 17.263161154413677 0.78554102505897028 #
coedge $-1 $405 $404 $397 $493 forward $394 $-1 #
edge $-1 $494 27.562482401993478 $497 32.960649383866652 $492 $537 forward 7 unknown #
vertex $-1 $409 $538 #
straight-curve $-1 -74.959174591432756 -12.842634645762001 8.9521843277561857 -1 0 0 I I #
edge $-1 $497 3.330687748051707 $406 15.69320604736888 $405 $539 forward 7 unknown #
vertex $-1 $496 $540 #
straight-curve $-1 -57.721488082522029 -12.842634645762001 3.5540173458830395 0.60181501223851219 0 0.79863551827123203 I I #
point $-1 -53.653677605855748 -12.842634645762001 8.9521843277561874 #
point $-1 -57.72148808252205 -25.205152945079174 3.5540173458830111 #
straight-curve $-1 -57.72148808252205 0 8.9521843277561874 0 -1 0 I I #
vertex $-1 $412 $541 #
point $-1 -54.359041742100828 -22.732649285215739 5.878041159708209 #
vertex $-1 $416 $542 #
point $-1 -54.359041742100828 -19.023893795420587 5.878041159708209 #
vertex $-1 $420 $543 #
point $-1 -54.359041742100828 -15.315138305625435 5.878041159708209 #
straight-curve $-1 -57.72148808252205 -31.565288267253518 0 0 0 -1 I I #
straight-curve $-1 0 -31.565288267253518 -8.9521843277561874 -1 0 0 I I #
point $-1 57.72148808252205 -31.565288267253518 -8.9521843277561874 #
straight-curve $-1 -57.72148808252205 0 8.9521843277561874 0 -1 0 I I #
point $-1 -57.72148808252205 -31.565288267253518 8.9521843277561874 #
straight-curve $-1 57.72148808252205 -31.565288267253518 0 0 0 -1 I I #
point $-1 -57.72148808252205 -31.565288267253518 -8.9521843277561874 #
edge $-1 $459 -57.72148808252205 $517 57.72148808252205 $456 $544 forward 7 unknown #
straight-curve $-1 57.72148808252205 0 -8.9521843277561874 0 -1 0 I I #
vertex $-1 $447 $545 #
straight-curve $-1 -57.72148808252205 0 -8.9521843277561874 0 1 0 I I #
point $-1 -57.72148808252205 -25.205152945079174 -8.9521843277561874 #
straight-curve $-1 -57.72148808252205 -25.205152945079174 -3.6296822192202045 0 0 -1 I I #
straight-curve $-1 -57.72148808252205 -31.565288267253518 0 0 0 -1 I I #
point $-1 57.72148808252205 -31.565288267253518 -8.9521843277561874 #
edge $-1 $477 -1.5 $466 1.5 $463 $546 forward 7 unknown #
straight-curve $-1 -43.633842269760137 41.981470423658692 0 0 0 -1 I I #
straight-curve $-1 -46.633842269760137 36.773379345456107 8.9521843277561874 0 -1 0 I I #
point $-1 -46.633842269760137 41.981470423658692 8.9521843277561874 #
point $-1 -46.633842269760137 41.981470423658692 -8.9521843277561874 #
straight-curve $-1 -45.133842269760137 41.981470423658692 -8.9521843277561874 1 0 0 I I #
point $-1 -43.633842269760137 41.981470423658692 -8.9521843277561874 #
point $-1 -43.633842269760137 41.981470423658692 8.9521843277561874 #
straight-curve $-1 57.72148808252205 7.5482987633270007 79.484618854927504 0 0 -1 I I #
point $-1 57.72148808252205 7.5482987633270007 8.9521843277561874 #
straight-curve $-1 57.72148808252205 7.1743512185438352 1.2711992530789402 0 1 0 I I #
point $-1 57.721488082522043 7.5482987633270007 1.2711992530789544 #
point $-1 48.254868352416295 11.434243719761671 0.23650293523169275 #
point $-1 48.254868352416295 17.263161154413677 0.23650293523169275 #
straight-curve $-1 -57.72148808252205 -12.842634645762001 36.514666729749663 0 0 -1 I I #
point $-1 -57.72148808252205 -12.842634645762001 8.9521843277561874 #
straight-curve $-1 -57.72148808252205 -9.5119468977102937 3.5540173458830138 0 -1 0 I I #
point $-1 -57.72148808252205 -12.842634645762001 3.5540173458830111 #
point $-1 -54.260631489084467 -22.732649285215739 5.177815894453337 #
point $-1 -54.260631489084467 -19.023893795420587 5.177815894453337 #
point $-1 -54.260631489084467 -15.315138305625435 5.177815894453337 #
straight-curve $-1 0 -31.565288267253518 -8.9521843277561874 -1 0 0 I I #
point $-1 -57.72148808252205 -31.565288267253518 -8.9521843277561874 #
straight-curve $-1 -45.133842269760137 41.981470423658692 8.9521843277561874 -1 0 0 I I #
End-of-ACIS-data 