500 0 10 0           
7 Unknown 11 ACIS 5.0 NT 24 Thu Mar 25 15:15:41 1999 
-1 9.9999999999999995e-007 1e-010 
body $-1 $10 $-1 $11 #
body $-1 $12 $-1 $13 #
body $-1 $14 $-1 $15 #
body $-1 $16 $-1 $17 #
body $-1 $18 $-1 $19 #
body $-1 $20 $-1 $21 #
body $-1 $22 $-1 $23 #
body $-1 $24 $-1 $25 #
body $-1 $26 $-1 $27 #
body $-1 $28 $-1 $29 #
lump $-1 $-1 $30 $0 #
transform $-1 1 0 0 0 1 0 0 0 1 76.31824701681569 40.094388605800717 9.8682584682168528 1 rotate no_reflect no_shear #
lump $-1 $-1 $31 $1 #
transform $-1 1 0 0 0 1 0 0 0 1 76.31824701681569 40.094388605800717 9.8682584682168528 1 rotate no_reflect no_shear #
lump $-1 $-1 $32 $2 #
transform $-1 1 0 0 0 1 0 0 0 1 76.31824701681569 40.094388605800717 9.8682584682168528 1 rotate no_reflect no_shear #
lump $-1 $-1 $33 $3 #
transform $-1 1 0 0 0 1 0 0 0 1 76.31824701681569 40.094388605800717 9.8682584682168528 1 rotate no_reflect no_shear #
lump $-1 $-1 $34 $4 #
transform $-1 1 0 0 0 1 0 0 0 1 76.31824701681569 40.094388605800717 9.8682584682168528 1 rotate no_reflect no_shear #
lump $-1 $-1 $35 $5 #
transform $-1 1 0 0 0 1 0 0 0 1 76.31824701681569 40.094388605800717 9.8682584682168528 1 rotate no_reflect no_shear #
lump $-1 $-1 $36 $6 #
transform $-1 1 0 0 0 1 0 0 0 1 76.31824701681569 40.094388605800717 9.8682584682168528 1 rotate no_reflect no_shear #
lump $-1 $-1 $37 $7 #
transform $-1 1 0 0 0 1 0 0 0 1 76.31824701681569 40.094388605800717 9.8682584682168528 1 rotate no_reflect no_shear #
lump $-1 $-1 $38 $8 #
transform $-1 1 0 0 0 1 0 0 0 1 76.31824701681569 40.094388605800717 9.8682584682168528 1 rotate no_reflect no_shear #
lump $-1 $-1 $39 $9 #
transform $-1 1 0 0 0 1 0 0 0 1 76.31824701681569 40.094388605800717 9.8682584682168528 1 rotate no_reflect no_shear #
shell $-1 $-1 $-1 $40 $-1 $10 #
shell $-1 $-1 $-1 $41 $-1 $12 #
shell $-1 $-1 $-1 $42 $-1 $14 #
shell $-1 $-1 $-1 $43 $-1 $16 #
shell $-1 $-1 $-1 $44 $-1 $18 #
shell $-1 $-1 $-1 $45 $-1 $20 #
shell $-1 $-1 $-1 $46 $-1 $22 #
shell $-1 $-1 $-1 $47 $-1 $24 #
shell $-1 $-1 $-1 $48 $-1 $26 #
shell $-1 $-1 $-1 $49 $-1 $28 #
face $-1 $50 $51 $30 $-1 $52 forward single #
face $-1 $53 $54 $31 $-1 $55 forward single #
face $-1 $56 $57 $32 $-1 $58 reversed single #
face $-1 $59 $60 $33 $-1 $61 forward single #
face $-1 $62 $63 $34 $-1 $64 forward single #
face $-1 $65 $66 $35 $-1 $67 forward single #
face $-1 $68 $69 $36 $-1 $70 reversed single #
face $-1 $71 $72 $37 $-1 $73 forward single #
face $-1 $74 $75 $38 $-1 $76 forward single #
face $-1 $77 $78 $39 $-1 $79 forward single #
face $-1 $80 $81 $30 $-1 $82 reversed single #
loop $-1 $-1 $83 $40 #
plane-surface $-1 0 0 9.8682584682168528 0 0 1 1 0 0 forward_v I I I I #
face $-1 $84 $85 $31 $-1 $86 reversed single #
loop $-1 $-1 $87 $41 #
plane-surface $-1 0 -40.094388605800717 0 0 1 0 0 0 1 forward_v I I I I #
face $-1 $88 $89 $32 $-1 $90 reversed single #
loop $-1 $-1 $91 $42 #
plane-surface $-1 76.318249521349458 29.490587735899233 217.86173720485112 0 1 0 0.70710678939079041 0 0.70710677298230451 forward_v I I I I #
face $-1 $92 $93 $33 $-1 $94 forward single #
loop $-1 $95 $96 $43 #
cone-surface $-1 72.031133093995393 31.611347909879527 5.5811444623221131 -0.70710678939079041 0 -0.70710677298230451 0.35355338649115226 0 -0.35355339469539521 1 I I 0 1 0.5 forward I I I I #
face $-1 $97 $98 $34 $-1 $99 forward single #
loop $-1 $100 $101 $44 #
cone-surface $-1 72.031133093995393 34.792488170849978 5.5811444623221131 -0.70710678939079041 0 -0.70710677298230451 0.35355338649115226 0 -0.35355339469539521 1 I I 0 1 0.5 forward I I I I #
face $-1 $102 $103 $35 $-1 $104 forward single #
loop $-1 $105 $106 $45 #
cone-surface $-1 72.031133093995393 37.97362843182043 5.5811444623221131 -0.70710678939079041 0 -0.70710677298230451 0.35355338649115226 0 -0.35355339469539521 1 I I 0 1 0.5 forward I I I I #
face $-1 $107 $108 $36 $-1 $109 reversed single #
loop $-1 $-1 $110 $46 #
plane-surface $-1 -159.4500409245623 9.6587501002736502 128.75186385141001 0 1 0 -0.54463904215088732 0 0.83867056331134215 forward_v I I I I #
face $-1 $111 $112 $37 $-1 $113 forward single #
loop $-1 $114 $115 $47 #
cone-surface $-1 -68.288995406916897 13.405399754172883 3.762467794528864 0.54463904215088732 0 -0.83867056331134215 1.2580058449670133 0 0.81695856322633098 1 I I 0 1 1.5 forward I I I I #
face $-1 $116 $117 $38 $-1 $118 forward single #
loop $-1 $119 $120 $48 #
cone-surface $-1 -68.288995406916897 19.025374235021729 3.762467794528864 0.54463904215088732 0 -0.83867056331134215 1.2580058449670133 0 0.81695856322633098 1 I I 0 1 1.5 forward I I I I #
face $-1 $121 $122 $39 $-1 $123 forward single #
loop $-1 $124 $125 $49 #
cone-surface $-1 -68.288995406916897 24.645348715870583 3.762467794528864 0.54463904215088732 0 -0.83867056331134215 1.2580058449670133 0 0.81695856322633098 1 I I 0 1 1.5 forward I I I I #
face $-1 $126 $127 $30 $-1 $128 reversed single #
loop $-1 $-1 $129 $50 #
plane-surface $-1 0 0 -9.8682584682168528 0 0 1 1 0 0 forward_v I I I I #
coedge $-1 $130 $131 $132 $133 forward $51 $-1 #
face $-1 $134 $135 $31 $-1 $136 forward single #
loop $-1 $-1 $137 $53 #
plane-surface $-1 -76.31824701681569 0 0 1 0 0 0 0 -1 forward_v I I I I #
coedge $-1 $138 $139 $140 $141 forward $54 $-1 #
face $-1 $142 $143 $32 $-1 $144 forward single #
loop $-1 $-1 $145 $56 #
plane-surface $-1 -31.61205171863817 34.792488170849978 109.93143846939726 0.70710678939079041 0 0.70710677298230451 0.70710677298230451 0 -0.70710678939079041 forward_v I I I I #
coedge $-1 $146 $147 $148 $149 reversed $57 $-1 #
face $-1 $-1 $150 $33 $-1 $151 forward single #
loop $-1 $152 $153 $59 #
cone-surface $-1 71.500803001952306 31.611347909879527 5.0508143825853846 -0.70710678939079041 0 -0.70710677298230451 0.17677669324557613 0 -0.1767766973476976 1 I I -0.70710678118654746 0.70710678118654746 0.25 forward I I I I #
loop $-1 $-1 $154 $43 #
coedge $-1 $96 $96 $155 $156 reversed $60 $-1 #
face $-1 $-1 $157 $34 $-1 $158 forward single #
loop $-1 $159 $160 $62 #
cone-surface $-1 71.500803001952306 34.792488170849978 5.0508143825853846 -0.70710678939079041 0 -0.70710677298230451 0.17677669324557613 0 -0.1767766973476976 1 I I -0.70710678118654746 0.70710678118654746 0.25 forward I I I I #
loop $-1 $-1 $161 $44 #
coedge $-1 $101 $101 $162 $163 reversed $63 $-1 #
face $-1 $-1 $164 $35 $-1 $165 forward single #
loop $-1 $166 $167 $65 #
cone-surface $-1 71.500803001952306 37.97362843182043 5.0508143825853846 -0.70710678939079041 0 -0.70710677298230451 0.17677669324557613 0 -0.1767766973476976 1 I I -0.70710678118654746 0.70710678118654746 0.25 forward I I I I #
loop $-1 $-1 $168 $45 #
coedge $-1 $106 $106 $169 $170 reversed $66 $-1 #
face $-1 $171 $172 $36 $-1 $173 reversed single #
loop $-1 $-1 $174 $68 #
plane-surface $-1 -76.318247016815675 19.025374235021729 0.74012941835607648 -0.54463904215088732 0 0.83867056331134215 0.83867056331134215 0 0.54463904215088732 forward_v I I I I #
coedge $-1 $175 $176 $177 $178 reversed $69 $-1 #
face $-1 $-1 $179 $37 $-1 $180 forward single #
loop $-1 $181 $182 $71 #
cone-surface $-1 -66.879307439019371 13.405399754172883 1.5917387232877545 0.54463904215088732 0 -0.83867056331134215 0.62900292248350664 0 0.40847928161316549 1 I I -0.70710678118654757 0.70710678118654757 0.75 forward I I I I #
loop $-1 $-1 $183 $47 #
coedge $-1 $115 $115 $184 $185 reversed $72 $-1 #
face $-1 $-1 $186 $38 $-1 $187 forward single #
loop $-1 $188 $189 $74 #
cone-surface $-1 -66.879307439019371 19.025374235021729 1.5917387232877545 0.54463904215088732 0 -0.83867056331134215 0.62900292248350664 0 0.40847928161316549 1 I I -0.70710678118654757 0.70710678118654757 0.75 forward I I I I #
loop $-1 $-1 $190 $48 #
coedge $-1 $120 $120 $191 $192 reversed $75 $-1 #
face $-1 $-1 $193 $39 $-1 $194 forward single #
loop $-1 $195 $196 $77 #
cone-surface $-1 -66.879307439019371 24.645348715870583 1.5917387232877545 0.54463904215088732 0 -0.83867056331134215 0.62900292248350664 0 0.40847928161316549 1 I I -0.70710678118654757 0.70710678118654757 0.75 forward I I I I #
loop $-1 $-1 $197 $49 #
coedge $-1 $125 $125 $198 $199 reversed $78 $-1 #
face $-1 $200 $201 $30 $-1 $202 reversed single #
loop $-1 $-1 $203 $80 #
plane-surface $-1 0 -40.094388605800717 0 0 1 0 0 0 1 forward_v I I I I #
coedge $-1 $204 $205 $206 $207 forward $81 $-1 #
coedge $-1 $208 $83 $209 $210 forward $51 $-1 #
coedge $-1 $83 $208 $211 $212 forward $51 $-1 #
coedge $-1 $213 $214 $83 $133 reversed $215 $-1 #
edge $-1 $216 -40.094388605800717 $217 40.094388605800717 $132 $218 forward 7 unknown #
face $-1 $219 $220 $31 $-1 $221 reversed single #
loop $-1 $-1 $222 $84 #
plane-surface $-1 0 -45.714272508164228 -2.6053424139099066 0 0 1 1 0 0 forward_v I I I I #
coedge $-1 $223 $224 $139 $225 forward $85 $-1 #
coedge $-1 $226 $87 $227 $228 reversed $54 $-1 #
coedge $-1 $87 $226 $137 $225 reversed $54 $-1 #
coedge $-1 $229 $222 $87 $141 reversed $135 $-1 #
edge $-1 $230 -76.31824701681569 $231 76.31824701681569 $140 $232 forward 7 unknown #
face $-1 $233 $234 $32 $-1 $235 reversed single #
loop $-1 $-1 $236 $88 #
plane-surface $-1 0 0 9.8682584682168528 0 0 1 1 0 0 forward_v I I I I #
coedge $-1 $237 $238 $239 $240 reversed $89 $-1 #
coedge $-1 $147 $91 $241 $242 reversed $57 $-1 #
coedge $-1 $91 $146 $237 $243 reversed $57 $-1 #
coedge $-1 $239 $244 $91 $149 forward $234 $-1 #
edge $-1 $245 99.062610134208711 $246 106.92973137301591 $148 $247 forward 7 unknown #
loop $-1 $-1 $155 $92 #
plane-surface $-1 -31.61205171863817 34.792488170849978 109.93143846939726 0.70710678939079041 0 0.70710677298230451 0.70710677298230451 0 -0.70710678939079041 forward_v I I I I #
loop $-1 $-1 $248 $59 #
coedge $-1 $153 $153 $154 $249 reversed $93 $-1 #
coedge $-1 $154 $154 $153 $249 forward $95 $-1 #
coedge $-1 $155 $155 $96 $156 forward $150 $-1 #
edge $-1 $250 0 $250 6.2831853071796004 $155 $251 forward 7 unknown #
loop $-1 $-1 $162 $97 #
plane-surface $-1 -31.61205171863817 34.792488170849978 109.93143846939726 0.70710678939079041 0 0.70710677298230451 0.70710677298230451 0 -0.70710678939079041 forward_v I I I I #
loop $-1 $-1 $252 $62 #
coedge $-1 $160 $160 $161 $253 reversed $98 $-1 #
coedge $-1 $161 $161 $160 $253 forward $100 $-1 #
coedge $-1 $162 $162 $101 $163 forward $157 $-1 #
edge $-1 $254 0 $254 6.2831853071796004 $162 $255 forward 7 unknown #
loop $-1 $-1 $169 $102 #
plane-surface $-1 -31.61205171863817 34.792488170849978 109.93143846939726 0.70710678939079041 0 0.70710677298230451 0.70710677298230451 0 -0.70710678939079041 forward_v I I I I #
loop $-1 $-1 $256 $65 #
coedge $-1 $167 $167 $168 $257 reversed $103 $-1 #
coedge $-1 $168 $168 $167 $257 forward $105 $-1 #
coedge $-1 $169 $169 $106 $170 forward $164 $-1 #
edge $-1 $258 0 $258 6.2831853071796004 $169 $259 forward 7 unknown #
face $-1 $260 $261 $36 $-1 $262 reversed single #
loop $-1 $-1 $263 $107 #
plane-surface $-1 -159.4500409245623 28.391998369769809 128.75186385141001 0 -1 0 0.54463904215088732 0 -0.83867056331134215 forward_v I I I I #
coedge $-1 $264 $265 $266 $267 reversed $108 $-1 #
coedge $-1 $176 $110 $268 $269 reversed $69 $-1 #
coedge $-1 $110 $175 $264 $270 reversed $69 $-1 #
coedge $-1 $266 $271 $110 $178 forward $272 $-1 #
edge $-1 $273 3.4067734454654612 $274 17.462859292694318 $177 $275 forward 7 unknown #
loop $-1 $-1 $184 $111 #
plane-surface $-1 -76.318247016815675 19.025374235021729 0.74012941835607648 -0.54463904215088732 0 0.83867056331134215 0.83867056331134215 0 0.54463904215088732 forward_v I I I I #
loop $-1 $-1 $276 $71 #
coedge $-1 $182 $182 $183 $277 reversed $112 $-1 #
coedge $-1 $183 $183 $182 $277 forward $114 $-1 #
coedge $-1 $184 $184 $115 $185 forward $179 $-1 #
edge $-1 $278 0 $278 6.2831853071796004 $184 $279 forward 7 unknown #
loop $-1 $-1 $191 $116 #
plane-surface $-1 -76.318247016815675 19.025374235021729 0.74012941835607648 -0.54463904215088732 0 0.83867056331134215 0.83867056331134215 0 0.54463904215088732 forward_v I I I I #
loop $-1 $-1 $280 $74 #
coedge $-1 $189 $189 $190 $281 reversed $117 $-1 #
coedge $-1 $190 $190 $189 $281 forward $119 $-1 #
coedge $-1 $191 $191 $120 $192 forward $186 $-1 #
edge $-1 $282 0 $282 6.2831853071796004 $191 $283 forward 7 unknown #
loop $-1 $-1 $198 $121 #
plane-surface $-1 -76.318247016815675 19.025374235021729 0.74012941835607648 -0.54463904215088732 0 0.83867056331134215 0.83867056331134215 0 0.54463904215088732 forward_v I I I I #
loop $-1 $-1 $284 $77 #
coedge $-1 $196 $196 $197 $285 reversed $122 $-1 #
coedge $-1 $197 $197 $196 $285 forward $124 $-1 #
coedge $-1 $198 $198 $125 $199 forward $193 $-1 #
edge $-1 $286 0 $286 6.2831853071796004 $198 $287 forward 7 unknown #
face $-1 $288 $289 $30 $-1 $290 reversed single #
loop $-1 $-1 $291 $126 #
plane-surface $-1 -76.31824701681569 0 0 1 0 0 0 0 -1 forward_v I I I I #
coedge $-1 $292 $211 $293 $294 forward $127 $-1 #
coedge $-1 $295 $129 $292 $296 forward $81 $-1 #
coedge $-1 $129 $295 $297 $298 forward $81 $-1 #
coedge $-1 $214 $213 $129 $207 reversed $215 $-1 #
edge $-1 $299 -40.094388605800717 $300 40.094388605800717 $206 $301 forward 7 unknown #
coedge $-1 $131 $130 $302 $303 forward $51 $-1 #
coedge $-1 $304 $305 $130 $210 reversed $289 $-1 #
edge $-1 $217 -76.31824701681569 $306 76.31824701681569 $209 $307 forward 7 unknown #
coedge $-1 $203 $308 $131 $212 reversed $127 $-1 #
edge $-1 $309 -76.31824701681569 $216 76.31824701681569 $211 $310 forward 7 unknown #
coedge $-1 $206 $132 $308 $311 forward $215 $-1 #
coedge $-1 $132 $206 $304 $312 reversed $215 $-1 #
loop $-1 $-1 $213 $288 #
vertex $-1 $133 $313 #
vertex $-1 $133 $314 #
straight-curve $-1 76.31824701681569 0 9.8682584682168528 0 1 0 I I #
face $-1 $315 $316 $31 $-1 $317 reversed single #
loop $-1 $-1 $318 $134 #
plane-surface $-1 0 -45.714272508164228 -5.6053424139099066 0 0 1 1 0 0 forward_v I I I I #
coedge $-1 $140 $319 $320 $321 forward $135 $-1 #
coedge $-1 $322 $137 $323 $324 reversed $85 $-1 #
coedge $-1 $137 $322 $229 $325 reversed $85 $-1 #
edge $-1 $230 2.6053424139099066 $326 5.6053424139099066 $137 $327 forward 7 unknown #
coedge $-1 $139 $138 $328 $329 forward $54 $-1 #
coedge $-1 $320 $330 $138 $228 forward $331 $-1 #
edge $-1 $332 -5.6053424139099066 $231 -2.6053424139099066 $227 $333 forward 7 unknown #
coedge $-1 $319 $140 $224 $325 forward $135 $-1 #
vertex $-1 $225 $334 #
vertex $-1 $321 $335 #
straight-curve $-1 0 -40.094388605800717 -2.6053424139099066 1 0 0 I I #
face $-1 $-1 $336 $32 $-1 $337 reversed single #
loop $-1 $-1 $148 $142 #
plane-surface $-1 76.31824701681569 0 0 -1 0 0 0 0 1 forward_v I I I I #
coedge $-1 $241 $338 $339 $340 forward $143 $-1 #
coedge $-1 $339 $145 $147 $243 forward $89 $-1 #
coedge $-1 $145 $339 $341 $342 reversed $89 $-1 #
coedge $-1 $343 $148 $145 $240 forward $234 $-1 #
edge $-1 $246 12.094343650474244 $344 22.698144520375727 $239 $345 forward 7 unknown #
coedge $-1 $346 $236 $146 $242 forward $143 $-1 #
edge $-1 $347 30.292001199891118 $245 38.159122256140961 $241 $348 forward 7 unknown #
edge $-1 $246 -152.63649403363141 $347 -141.51070460996439 $147 $349 forward 7 unknown #
coedge $-1 $148 $343 $346 $350 reversed $234 $-1 #
vertex $-1 $350 $351 #
vertex $-1 $149 $352 #
straight-curve $-1 76.31824701681569 29.490587735899233 108.93086860242556 0 0 -1 I I #
coedge $-1 $248 $248 $-1 $353 reversed $152 $-1 #
edge $-1 $354 0 $354 6.2831853071796004 $153 $355 forward 7 unknown #
vertex $-1 $156 $356 #
ellipse-curve $-1 72.384686488690775 31.611347909879527 5.9346978488132454 0.70710678939079041 0 0.70710677298230451 0.35355338649115226 0 -0.35355339469539521 1 I I #
coedge $-1 $252 $252 $-1 $357 reversed $159 $-1 #
edge $-1 $358 0 $358 6.2831853071796004 $160 $359 forward 7 unknown #
vertex $-1 $163 $360 #
ellipse-curve $-1 72.384686488690775 34.792488170849978 5.9346978488132454 0.70710678939079041 0 0.70710677298230451 0.35355338649115226 0 -0.35355339469539521 1 I I #
coedge $-1 $256 $256 $-1 $361 reversed $166 $-1 #
edge $-1 $362 0 $362 6.2831853071796004 $167 $363 forward 7 unknown #
vertex $-1 $170 $364 #
ellipse-curve $-1 72.384686488690775 37.97362843182043 5.9346978488132454 0.70710678939079041 0 0.70710677298230451 0.35355338649115226 0 -0.35355339469539521 1 I I #
face $-1 $-1 $272 $36 $-1 $365 forward single #
loop $-1 $-1 $366 $171 #
plane-surface $-1 -76.31824701681569 0 0 1 0 0 0 0 -1 forward_v I I I I #
coedge $-1 $367 $368 $369 $370 reversed $172 $-1 #
coedge $-1 $371 $174 $176 $270 forward $108 $-1 #
coedge $-1 $174 $371 $367 $372 forward $108 $-1 #
coedge $-1 $369 $177 $174 $267 forward $272 $-1 #
edge $-1 $274 0.14606298276278551 $373 18.879311252258944 $266 $374 forward 7 unknown #
coedge $-1 $375 $376 $175 $269 forward $261 $-1 #
edge $-1 $377 -63.635802507348934 $273 -54.507673457488153 $268 $378 forward 7 unknown #
edge $-1 $274 -16.75996089779386 $377 1.6936993208191469e-014 $176 $379 forward 7 unknown #
coedge $-1 $177 $369 $375 $380 forward $272 $-1 #
loop $-1 $-1 $369 $260 #
vertex $-1 $269 $381 #
vertex $-1 $178 $382 #
straight-curve $-1 -79.725020462281151 9.6587501002736502 9.868258468216851 1 0 0 I I #
coedge $-1 $276 $276 $-1 $383 reversed $181 $-1 #
edge $-1 $384 0 $384 6.2831853071796004 $182 $385 forward 7 unknown #
vertex $-1 $185 $386 #
ellipse-curve $-1 -69.290204093201254 13.405399754172883 5.3041939432864602 -0.54463904215088732 0 0.83867056331134215 1.2580058449670133 0 0.81695856322633098 1 I I #
coedge $-1 $280 $280 $-1 $387 reversed $188 $-1 #
edge $-1 $388 0 $388 6.2831853071796004 $189 $389 forward 7 unknown #
vertex $-1 $192 $390 #
ellipse-curve $-1 -69.290204093201254 19.025374235021729 5.3041939432864602 -0.54463904215088732 0 0.83867056331134215 1.2580058449670133 0 0.81695856322633098 1 I I #
coedge $-1 $284 $284 $-1 $391 reversed $195 $-1 #
edge $-1 $392 0 $392 6.2831853071796004 $196 $393 forward 7 unknown #
vertex $-1 $199 $394 #
ellipse-curve $-1 -69.290204093201254 24.645348715870583 5.3041939432864602 -0.54463904215088732 0 0.83867056331134215 1.2580058449670133 0 0.81695856322633098 1 I I #
face $-1 $-1 $215 $30 $-1 $395 reversed single #
loop $-1 $-1 $304 $200 #
plane-surface $-1 0 40.094388605800717 0 0 -1 0 0 0 -1 forward_v I I I I #
coedge $-1 $396 $302 $305 $397 forward $201 $-1 #
coedge $-1 $308 $203 $204 $296 reversed $127 $-1 #
coedge $-1 $302 $396 $203 $294 reversed $201 $-1 #
edge $-1 $309 -9.8682584682168528 $398 9.8682584682168528 $293 $399 forward 7 unknown #
coedge $-1 $205 $204 $396 $400 forward $81 $-1 #
edge $-1 $300 -76.31824701681569 $398 76.31824701681569 $292 $401 forward 7 unknown #
coedge $-1 $305 $304 $205 $298 reversed $289 $-1 #
edge $-1 $402 -76.31824701681569 $299 76.31824701681569 $297 $403 forward 7 unknown #
vertex $-1 $207 $404 #
vertex $-1 $311 $405 #
straight-curve $-1 76.31824701681569 0 -9.8682584682168528 0 -1 0 I I #
coedge $-1 $291 $293 $208 $303 reversed $201 $-1 #
edge $-1 $306 -40.094388605800717 $309 40.094388605800717 $302 $406 forward 7 unknown #
coedge $-1 $297 $209 $214 $312 forward $289 $-1 #
coedge $-1 $209 $297 $291 $397 reversed $289 $-1 #
vertex $-1 $210 $407 #
straight-curve $-1 0 40.094388605800717 9.8682584682168528 -1 0 0 I I #
coedge $-1 $211 $292 $213 $311 reversed $127 $-1 #
vertex $-1 $303 $408 #
straight-curve $-1 0 -40.094388605800717 9.8682584682168528 1 0 0 I I #
edge $-1 $216 -9.8682584682168528 $300 9.8682584682168528 $213 $409 forward 7 unknown #
edge $-1 $217 -9.8682584682168528 $299 9.8682584682168528 $214 $410 forward 7 unknown #
point $-1 76.31824701681569 -40.094388605800717 9.8682584682168528 #
point $-1 76.31824701681569 40.094388605800717 9.8682584682168528 #
face $-1 $-1 $331 $31 $-1 $411 reversed single #
loop $-1 $-1 $412 $219 #
plane-surface $-1 0 -51.33415641052774 -4.1053424139099066 0 1 0 0 0 1 forward_v I I I I #
coedge $-1 $413 $328 $330 $414 forward $220 $-1 #
coedge $-1 $222 $229 $415 $416 forward $135 $-1 #
coedge $-1 $417 $227 $222 $321 reversed $331 $-1 #
edge $-1 $418 -5.6198839023635117 $231 5.6198839023635117 $320 $419 forward 7 unknown #
coedge $-1 $224 $223 $412 $420 reversed $85 $-1 #
coedge $-1 $328 $413 $223 $324 forward $220 $-1 #
edge $-1 $421 -5.6198839023635117 $326 5.6198839023635117 $223 $422 forward 7 unknown #
edge $-1 $230 -5.6198839023635117 $423 5.6198839023635117 $224 $424 forward 7 unknown #
vertex $-1 $225 $425 #
straight-curve $-1 -76.31824701681569 -40.094388605800717 0 0 0 -1 I I #
coedge $-1 $318 $323 $226 $329 reversed $220 $-1 #
edge $-1 $332 -76.31824701681569 $326 76.31824701681569 $328 $426 forward 7 unknown #
coedge $-1 $227 $417 $318 $414 reversed $331 $-1 #
loop $-1 $-1 $227 $315 #
vertex $-1 $228 $427 #
straight-curve $-1 76.31824701681569 -40.094388605800717 0 0 0 1 I I #
point $-1 -76.31824701681569 -40.094388605800717 -2.6053424139099066 #
point $-1 76.31824701681569 -40.094388605800717 -2.6053424139099066 #
loop $-1 $-1 $341 $233 #
plane-surface $-1 0 40.094388605800717 0 0 -1 0 0 0 -1 forward_v I I I I #
coedge $-1 $236 $346 $428 $429 forward $143 $-1 #
coedge $-1 $238 $237 $236 $340 reversed $89 $-1 #
edge $-1 $430 -22.698144520375735 $347 -12.094343650474244 $236 $431 forward 7 unknown #
coedge $-1 $428 $432 $238 $342 forward $336 $-1 #
edge $-1 $344 -102.59331283997005 $430 -91.467523416303038 $341 $433 forward 7 unknown #
coedge $-1 $244 $239 $432 $434 reversed $234 $-1 #
vertex $-1 $240 $435 #
straight-curve $-1 76.31824701681569 17.396244085424989 2.0011372294096503 0 1 0 I I #
coedge $-1 $338 $241 $244 $350 forward $143 $-1 #
vertex $-1 $242 $436 #
straight-curve $-1 38.159124760674729 29.490587735899233 9.868258468216851 1 0 0 I I #
straight-curve $-1 -31.61205171863817 29.490587735899233 109.93143846939726 -0.70710677298230451 0 0.70710678939079041 I I #
edge $-1 $245 29.490587735899233 $437 40.094388605800717 $244 $438 forward 7 unknown #
point $-1 76.31824701681569 29.490587735899233 9.8682584682168528 #
point $-1 76.31824701681569 29.490587735899233 2.0011372294096503 #
edge $-1 $439 1 $439 0 $248 $-1 forward 7 unknown #
vertex $-1 $249 $440 #
ellipse-curve $-1 71.677579699299997 31.611347909879527 5.2275910758309605 0.70710678939079041 0 0.70710677298230451 0.35355338649115226 0 -0.35355339469539521 1 I I #
point $-1 72.738239875181947 31.611347909879527 5.5811444541178705 #
edge $-1 $441 1 $441 0 $252 $-1 forward 7 unknown #
vertex $-1 $253 $442 #
ellipse-curve $-1 71.677579699299997 34.792488170849978 5.2275910758309605 0.70710678939079041 0 0.70710677298230451 0.35355338649115226 0 -0.35355339469539521 1 I I #
point $-1 72.738239875181947 34.792488170849978 5.5811444541178705 #
edge $-1 $443 1 $443 0 $256 $-1 forward 7 unknown #
vertex $-1 $257 $444 #
ellipse-curve $-1 71.677579699299997 37.97362843182043 5.2275910758309605 0.70710678939079041 0 0.70710677298230451 0.35355338649115226 0 -0.35355339469539521 1 I I #
point $-1 72.738239875181947 37.97362843182043 5.5811444541178705 #
plane-surface $-1 0 0 9.8682584682168528 0 0 1 1 0 0 forward_v I I I I #
coedge $-1 $376 $375 $368 $445 forward $261 $-1 #
coedge $-1 $368 $263 $265 $372 reversed $172 $-1 #
coedge $-1 $263 $367 $366 $445 reversed $172 $-1 #
coedge $-1 $271 $266 $263 $370 forward $272 $-1 #
edge $-1 $373 -17.462859292694318 $446 -3.4067734454654612 $369 $447 forward 7 unknown #
coedge $-1 $265 $264 $376 $448 reversed $108 $-1 #
edge $-1 $449 -1.6936993208191469e-014 $373 16.75996089779386 $367 $450 forward 7 unknown #
vertex $-1 $267 $451 #
straight-curve $-1 -62.262161169586832 9.5126871175108647 9.868258468216851 0 1 0 I I #
coedge $-1 $366 $268 $271 $380 reversed $261 $-1 #
coedge $-1 $268 $366 $371 $448 forward $261 $-1 #
vertex $-1 $269 $452 #
straight-curve $-1 -76.31824701681569 9.6587501002736502 64.375931925705004 0 0 1 I I #
straight-curve $-1 -76.318247016815675 9.6587501002736502 0.74012941835607648 -0.83867056331134215 0 -0.54463904215088732 I I #
edge $-1 $446 -28.391998369769809 $273 -9.6587501002736502 $375 $453 forward 7 unknown #
point $-1 -76.31824701681569 9.6587501002736502 9.8682584682168528 #
point $-1 -62.262161169586832 9.6587501002736502 9.868258468216851 #
edge $-1 $454 1 $454 0 $276 $-1 forward 7 unknown #
vertex $-1 $277 $455 #
ellipse-curve $-1 -67.287786720632539 13.405399754172883 2.2207416457712612 -0.54463904215088732 0 0.83867056331134215 1.2580058449670133 0 0.81695856322633098 1 I I #
point $-1 -68.032198248234252 13.405399754172883 6.1211525065127974 #
edge $-1 $456 1 $456 0 $280 $-1 forward 7 unknown #
vertex $-1 $281 $457 #
ellipse-curve $-1 -67.287786720632539 19.025374235021729 2.2207416457712612 -0.54463904215088732 0 0.83867056331134215 1.2580058449670133 0 0.81695856322633098 1 I I #
point $-1 -68.032198248234252 19.025374235021729 6.1211525065127974 #
edge $-1 $458 1 $458 0 $284 $-1 forward 7 unknown #
vertex $-1 $285 $459 #
ellipse-curve $-1 -67.287786720632539 24.645348715870583 2.2207416457712612 -0.54463904215088732 0 0.83867056331134215 1.2580058449670133 0 0.81695856322633098 1 I I #
point $-1 -68.032198248234252 24.645348715870583 6.1211525065127974 #
plane-surface $-1 76.31824701681569 0 0 -1 0 0 0 0 1 forward_v I I I I #
coedge $-1 $293 $291 $295 $400 reversed $201 $-1 #
edge $-1 $306 -9.8682584682168528 $402 9.8682584682168528 $305 $460 forward 7 unknown #
vertex $-1 $400 $461 #
straight-curve $-1 -76.31824701681569 -40.094388605800717 0 0 0 -1 I I #
edge $-1 $398 -40.094388605800717 $402 40.094388605800717 $396 $462 forward 7 unknown #
straight-curve $-1 0 -40.094388605800717 -9.8682584682168528 -1 0 0 I I #
vertex $-1 $298 $463 #
straight-curve $-1 0 40.094388605800717 -9.8682584682168528 1 0 0 I I #
point $-1 76.31824701681569 40.094388605800717 -9.8682584682168528 #
point $-1 76.31824701681569 -40.094388605800717 -9.8682584682168528 #
straight-curve $-1 -76.31824701681569 0 9.8682584682168528 0 -1 0 I I #
point $-1 -76.31824701681569 40.094388605800717 9.8682584682168528 #
point $-1 -76.31824701681569 -40.094388605800717 9.8682584682168528 #
straight-curve $-1 76.31824701681569 -40.094388605800717 0 0 0 -1 I I #
straight-curve $-1 76.31824701681569 40.094388605800717 0 0 0 -1 I I #
plane-surface $-1 76.31824701681569 0 0 -1 0 0 0 0 1 forward_v I I I I #
coedge $-1 $464 $415 $322 $420 forward $316 $-1 #
coedge $-1 $323 $318 $464 $465 forward $220 $-1 #
edge $-1 $332 -5.6198839023635117 $466 5.6198839023635117 $330 $467 forward 7 unknown #
coedge $-1 $412 $468 $319 $416 reversed $316 $-1 #
edge $-1 $423 -76.31824701681569 $418 76.31824701681569 $415 $469 forward 7 unknown #
coedge $-1 $330 $320 $468 $470 forward $331 $-1 #
vertex $-1 $321 $471 #
straight-curve $-1 76.31824701681569 -45.714272508164228 -2.6053424139099066 0 1 0 I I #
edge $-1 $423 -1.5 $421 1.5 $322 $472 forward 7 unknown #
vertex $-1 $324 $473 #
straight-curve $-1 -76.31824701681569 -45.714272508164228 -5.6053424139099066 0 1 0 I I #
vertex $-1 $325 $474 #
straight-curve $-1 -76.31824701681569 -45.714272508164228 -2.6053424139099066 0 -1 0 I I #
point $-1 -76.31824701681569 -40.094388605800717 -5.6053424139099066 #
straight-curve $-1 0 -40.094388605800717 -5.6053424139099066 -1 0 0 I I #
point $-1 76.31824701681569 -40.094388605800717 -5.6053424139099066 #
coedge $-1 $432 $341 $338 $429 reversed $336 $-1 #
edge $-1 $437 -76.31824701681569 $430 -68.451125960565847 $428 $475 forward 7 unknown #
vertex $-1 $342 $476 #
straight-curve $-1 68.451125960565847 17.396244085424989 9.8682584682168368 0 -1 0 I I #
coedge $-1 $341 $428 $343 $434 forward $336 $-1 #
straight-curve $-1 3.7738206449804501 40.094388605800717 74.545565284645818 -0.70710677298230462 0 0.70710678939079052 I I #
edge $-1 $437 -9.8682584682168528 $344 -2.0011372294096517 $343 $477 forward 7 unknown #
point $-1 76.31824701681569 40.094388605800717 2.0011372294096517 #
point $-1 68.451125960565847 29.490587735899233 9.8682584682168368 #
vertex $-1 $350 $478 #
straight-curve $-1 76.31824701681569 0 9.8682584682168528 0 1 0 I I #
vertex $-1 $353 $479 #
point $-1 72.031133085791154 31.611347909879527 4.8740376811355652 #
vertex $-1 $357 $480 #
point $-1 72.031133085791154 34.792488170849978 4.8740376811355652 #
vertex $-1 $361 $481 #
point $-1 72.031133085791154 37.97362843182043 4.8740376811355652 #
edge $-1 $446 54.507673457488153 $449 63.635802507348934 $366 $482 forward 7 unknown #
vertex $-1 $380 $483 #
straight-curve $-1 -79.725020462281151 28.391998369769809 9.868258468216851 -1 0 0 I I #
edge $-1 $449 -18.879311252258944 $377 -0.14606298276278551 $376 $484 forward 7 unknown #
vertex $-1 $448 $485 #
straight-curve $-1 -76.318247016815675 28.391998369769809 0.74012941835607648 0.83867056331134215 0 0.54463904215088732 I I #
point $-1 -62.262161169586832 28.391998369769809 9.868258468216851 #
point $-1 -76.31824701681569 9.6587501002736502 0.74012941835606727 #
straight-curve $-1 -76.31824701681569 0 9.8682584682168528 0 -1 0 I I #
vertex $-1 $383 $486 #
point $-1 -66.029780875665523 13.405399754172883 3.0377002089975922 #
vertex $-1 $387 $487 #
point $-1 -66.029780875665523 19.025374235021729 3.0377002089975922 #
vertex $-1 $391 $488 #
point $-1 -66.029780875665523 24.645348715870583 3.0377002089975922 #
straight-curve $-1 -76.31824701681569 40.094388605800717 0 0 0 -1 I I #
point $-1 -76.31824701681569 -40.094388605800717 -9.8682584682168528 #
straight-curve $-1 -76.31824701681569 0 -9.8682584682168528 0 1 0 I I #
point $-1 -76.31824701681569 40.094388605800717 -9.8682584682168528 #
coedge $-1 $468 $412 $413 $465 reversed $316 $-1 #
edge $-1 $466 -76.31824701681569 $421 76.31824701681569 $464 $489 forward 7 unknown #
vertex $-1 $470 $490 #
straight-curve $-1 76.31824701681569 -45.714272508164228 -5.6053424139099066 0 -1 0 I I #
coedge $-1 $415 $464 $417 $470 reversed $316 $-1 #
straight-curve $-1 0 -51.33415641052774 -2.6053424139099066 1 0 0 I I #
edge $-1 $418 -1.5 $466 1.5 $417 $491 forward 7 unknown #
point $-1 76.31824701681569 -51.33415641052774 -2.6053424139099066 #
straight-curve $-1 -76.31824701681569 -51.33415641052774 -4.1053424139099066 0 0 -1 I I #
point $-1 -76.31824701681569 -51.33415641052774 -5.6053424139099066 #
point $-1 -76.31824701681569 -51.33415641052774 -2.6053424139099066 #
straight-curve $-1 0 40.094388605800717 9.8682584682168528 -1 0 0 I I #
point $-1 68.451125960565847 40.094388605800724 9.8682584682168368 #
straight-curve $-1 76.31824701681569 40.094388605800717 0 0 0 -1 I I #
point $-1 76.31824701681569 40.094388605800717 9.8682584682168528 #
point $-1 71.324026304604615 31.611347909879527 4.8740376893398087 #
point $-1 71.324026304604615 34.792488170849978 4.8740376893398087 #
point $-1 71.324026304604615 37.97362843182043 4.8740376893398087 #
straight-curve $-1 -76.31824701681569 28.391998369769809 64.375931925705004 0 0 -1 I I #
point $-1 -76.31824701681569 28.391998369769809 9.8682584682168528 #
straight-curve $-1 -76.31824701681569 9.5126871175108647 0.74012941835607404 0 -1 0 I I #
point $-1 -76.31824701681569 28.391998369769809 0.74012941835606727 #
point $-1 -66.470828157406203 13.405399754172883 0.96273580080424781 #
point $-1 -66.470828157406203 19.025374235021729 0.96273580080424781 #
point $-1 -66.470828157406203 24.645348715870583 0.96273580080424781 #
straight-curve $-1 0 -51.33415641052774 -5.6053424139099066 -1 0 0 I I #
point $-1 76.31824701681569 -51.33415641052774 -5.6053424139099066 #
straight-curve $-1 76.31824701681569 -51.33415641052774 -4.1053424139099066 0 0 -1 I I #
End-of-ACIS-data 