500 0 16 0           
7 Unknown 11 ACIS 5.0 NT 24 Thu Mar 25 22:33:14 1999 
-1 9.9999999999999995e-007 1e-010 
body $-1 $16 $-1 $17 #
body $-1 $18 $-1 $19 #
body $-1 $20 $-1 $21 #
body $-1 $22 $-1 $23 #
body $-1 $24 $-1 $25 #
body $-1 $26 $-1 $27 #
body $-1 $28 $-1 $29 #
body $-1 $30 $-1 $31 #
body $-1 $32 $-1 $33 #
body $-1 $34 $-1 $35 #
body $-1 $36 $-1 $37 #
body $-1 $38 $-1 $39 #
body $-1 $40 $-1 $41 #
body $-1 $42 $-1 $43 #
body $-1 $44 $-1 $45 #
body $-1 $46 $-1 $47 #
lump $-1 $-1 $48 $0 #
transform $-1 1 0 0 0 1 0 0 0 1 78.859828485976749 41.022417325637711 17.280820057656864 1 rotate no_reflect no_shear #
lump $-1 $-1 $49 $1 #
transform $-1 1 0 0 0 1 0 0 0 1 78.859828485976749 41.022417325637711 17.280820057656864 1 rotate no_reflect no_shear #
lump $-1 $-1 $50 $2 #
transform $-1 1 0 0 0 1 0 0 0 1 78.859828485976749 41.022417325637711 17.280820057656864 1 rotate no_reflect no_shear #
lump $-1 $-1 $51 $3 #
transform $-1 1 0 0 0 1 0 0 0 1 78.859828485976749 41.022417325637711 17.280820057656864 1 rotate no_reflect no_shear #
lump $-1 $-1 $52 $4 #
transform $-1 1 0 0 0 1 0 0 0 1 78.859828485976749 41.022417325637711 17.280820057656864 1 rotate no_reflect no_shear #
lump $-1 $-1 $53 $5 #
transform $-1 1 0 0 0 1 0 0 0 1 78.859828485976749 41.022417325637711 17.280820057656864 1 rotate no_reflect no_shear #
lump $-1 $-1 $54 $6 #
transform $-1 1 0 0 0 1 0 0 0 1 78.859828485976749 41.022417325637711 17.280820057656864 1 rotate no_reflect no_shear #
lump $-1 $-1 $55 $7 #
transform $-1 1 0 0 0 1 0 0 0 1 78.859828485976749 41.022417325637711 17.280820057656864 1 rotate no_reflect no_shear #
lump $-1 $-1 $56 $8 #
transform $-1 1 0 0 0 1 0 0 0 1 78.859828485976749 41.022417325637711 17.280820057656864 1 rotate no_reflect no_shear #
lump $-1 $-1 $57 $9 #
transform $-1 1 0 0 0 1 0 0 0 1 78.859828485976749 41.022417325637711 17.280820057656864 1 rotate no_reflect no_shear #
lump $-1 $-1 $58 $10 #
transform $-1 1 0 0 0 1 0 0 0 1 78.859828485976749 41.022417325637711 17.280820057656864 1 rotate no_reflect no_shear #
lump $-1 $-1 $59 $11 #
transform $-1 1 0 0 0 1 0 0 0 1 78.859828485976749 41.022417325637711 17.280820057656864 1 rotate no_reflect no_shear #
lump $-1 $-1 $60 $12 #
transform $-1 1 0 0 0 1 0 0 0 1 78.859828485976749 41.022417325637711 17.280820057656864 1 rotate no_reflect no_shear #
lump $-1 $-1 $61 $13 #
transform $-1 1 0 0 0 1 0 0 0 1 78.859828485976749 41.022417325637711 17.280820057656864 1 rotate no_reflect no_shear #
lump $-1 $-1 $62 $14 #
transform $-1 1 0 0 0 1 0 0 0 1 78.859828485976749 41.022417325637711 17.280820057656864 1 rotate no_reflect no_shear #
lump $-1 $-1 $63 $15 #
transform $-1 1 0 0 0 1 0 0 0 1 78.859828485976749 41.022417325637711 17.280820057656864 1 rotate no_reflect no_shear #
shell $-1 $-1 $-1 $64 $-1 $16 #
shell $-1 $-1 $-1 $65 $-1 $18 #
shell $-1 $-1 $-1 $66 $-1 $20 #
shell $-1 $-1 $-1 $67 $-1 $22 #
shell $-1 $-1 $-1 $68 $-1 $24 #
shell $-1 $-1 $-1 $69 $-1 $26 #
shell $-1 $-1 $-1 $70 $-1 $28 #
shell $-1 $-1 $-1 $71 $-1 $30 #
shell $-1 $-1 $-1 $72 $-1 $32 #
shell $-1 $-1 $-1 $73 $-1 $34 #
shell $-1 $-1 $-1 $74 $-1 $36 #
shell $-1 $-1 $-1 $75 $-1 $38 #
shell $-1 $-1 $-1 $76 $-1 $40 #
shell $-1 $-1 $-1 $77 $-1 $42 #
shell $-1 $-1 $-1 $78 $-1 $44 #
shell $-1 $-1 $-1 $79 $-1 $46 #
face $-1 $80 $81 $48 $-1 $82 forward single #
face $-1 $83 $84 $49 $-1 $85 forward single #
face $-1 $86 $87 $50 $-1 $88 reversed single #
face $-1 $89 $90 $51 $-1 $91 forward single #
face $-1 $92 $93 $52 $-1 $94 forward single #
face $-1 $95 $96 $53 $-1 $97 reversed single #
face $-1 $98 $99 $54 $-1 $100 forward single #
face $-1 $101 $102 $55 $-1 $103 forward single #
face $-1 $104 $105 $56 $-1 $106 reversed single #
face $-1 $107 $108 $57 $-1 $109 forward single #
face $-1 $110 $111 $58 $-1 $112 forward single #
face $-1 $113 $114 $59 $-1 $115 reversed single #
face $-1 $116 $117 $60 $-1 $118 forward single #
face $-1 $119 $120 $61 $-1 $121 forward single #
face $-1 $122 $123 $62 $-1 $124 reversed single #
face $-1 $125 $126 $63 $-1 $127 forward single #
face $-1 $128 $129 $48 $-1 $130 reversed single #
loop $-1 $-1 $131 $64 #
plane-surface $-1 0 0 17.280820057656864 0 0 1 1 0 0 forward_v I I I I #
face $-1 $132 $133 $49 $-1 $134 reversed single #
loop $-1 $-1 $135 $65 #
plane-surface $-1 0 -32.477896413996788 11.239514416823436 0 0 1 1 0 0 forward_v I I I I #
face $-1 $136 $137 $50 $-1 $138 reversed single #
loop $-1 $-1 $139 $66 #
plane-surface $-1 -184.39487945958808 -21.05997979306909 124.64030775605833 0 1 0 -0.66913061440640931 0 0.74314481823134659 forward_v I I I I #
face $-1 $140 $141 $51 $-1 $142 forward single #
loop $-1 $143 $144 $67 #
cone-surface $-1 -72.388747382467798 -18.373677756533464 11.24363762371236 0.66913061440640931 0 -0.74314481823134659 0.74314481823134659 0 0.66913061440640931 1 I I 0 1 1 forward I I I I #
face $-1 $145 $146 $52 $-1 $147 forward single #
loop $-1 $148 $149 $68 #
cone-surface $-1 -72.388747382467798 -14.344224701730024 11.24363762371236 0.66913061440640931 0 -0.74314481823134659 0.74314481823134659 0 0.66913061440640931 1 I I 0 1 1 forward I I I I #
face $-1 $150 $151 $53 $-1 $152 reversed single #
loop $-1 $-1 $153 $69 #
plane-surface $-1 -184.39487945958808 -4.4576650325539795 124.64030775605833 0 1 0 -0.66913061440640931 0 0.74314481823134659 forward_v I I I I #
face $-1 $154 $155 $54 $-1 $156 forward single #
loop $-1 $157 $158 $70 #
cone-surface $-1 -72.388747382467798 -1.7713629960183539 11.24363762371236 0.66913061440640931 0 -0.74314481823134659 0.74314481823134659 0 0.66913061440640931 1 I I 0 1 1 forward I I I I #
face $-1 $159 $160 $55 $-1 $161 forward single #
loop $-1 $162 $163 $71 #
cone-surface $-1 -72.388747382467798 2.2580900587850863 11.24363762371236 0.66913061440640931 0 -0.74314481823134659 0.74314481823134659 0 0.66913061440640931 1 I I 0 1 1 forward I I I I #
face $-1 $164 $165 $56 $-1 $166 reversed single #
loop $-1 $-1 $167 $72 #
plane-surface $-1 -184.39487945958808 12.144649727961127 124.64030775605833 0 1 0 -0.66913061440640931 0 0.74314481823134659 forward_v I I I I #
face $-1 $168 $169 $57 $-1 $170 forward single #
loop $-1 $171 $172 $73 #
cone-surface $-1 -72.388747382467798 14.830951764496753 11.24363762371236 0.66913061440640931 0 -0.74314481823134659 0.74314481823134659 0 0.66913061440640931 1 I I 0 1 1 forward I I I I #
face $-1 $173 $174 $58 $-1 $175 forward single #
loop $-1 $176 $177 $74 #
cone-surface $-1 -72.388747382467798 18.860404819300193 11.24363762371236 0.66913061440640931 0 -0.74314481823134659 0.74314481823134659 0 0.66913061440640931 1 I I 0 1 1 forward I I I I #
face $-1 $178 $179 $59 $-1 $180 reversed single #
loop $-1 $-1 $181 $75 #
plane-surface $-1 -184.39487945958808 28.746964488476241 124.64030775605833 0 1 0 -0.66913061440640931 0 0.74314481823134659 forward_v I I I I #
face $-1 $182 $183 $60 $-1 $184 forward single #
loop $-1 $185 $186 $76 #
cone-surface $-1 -72.388747382467798 31.433266525011867 11.24363762371236 0.66913061440640931 0 -0.74314481823134659 0.74314481823134659 0 0.66913061440640931 1 I I 0 1 1 forward I I I I #
face $-1 $187 $188 $61 $-1 $189 forward single #
loop $-1 $190 $191 $77 #
cone-surface $-1 -72.388747382467798 35.462719579815307 11.24363762371236 0.66913061440640931 0 -0.74314481823134659 0.74314481823134659 0 0.66913061440640931 1 I I 0 1 1 forward I I I I #
face $-1 $192 $193 $62 $-1 $194 reversed single #
loop $-1 $-1 $195 $78 #
plane-surface $-1 40.12772982358824 10.763884818579569 227.37440209970762 0 -1 0 -0.57357644374324357 0 -0.81915203911291934 forward_v I I I I #
face $-1 $196 $197 $63 $-1 $198 forward single #
loop $-1 $199 $200 $79 #
cone-surface $-1 70.605761199771493 5.277819299556441 10.465788735998444 -0.57357644374324357 0 -0.81915203911291934 1.6383040782258387 0 -1.1471528874864871 1 I I 0 1 2 forward I I I I #
face $-1 $201 $202 $48 $-1 $203 reversed single #
loop $-1 $-1 $204 $80 #
plane-surface $-1 0 0 -17.280820057656864 0 0 1 1 0 0 forward_v I I I I #
coedge $-1 $205 $206 $207 $208 forward $81 $-1 #
face $-1 $209 $210 $49 $-1 $211 reversed single #
loop $-1 $-1 $212 $83 #
plane-surface $-1 0 -32.477896413996788 2.3930551190193121 0 0 1 1 0 0 forward_v I I I I #
coedge $-1 $213 $214 $215 $216 reversed $84 $-1 #
face $-1 $217 $218 $50 $-1 $219 reversed single #
loop $-1 $-1 $220 $86 #
plane-surface $-1 -78.85982848597672 -16.358951229131744 7.4317619441256113 -0.66913061440640931 0 0.74314481823134659 0.74314481823134659 0 0.66913061440640931 forward_v I I I I #
coedge $-1 $221 $222 $223 $224 reversed $87 $-1 #
face $-1 $-1 $225 $51 $-1 $226 forward single #
loop $-1 $227 $228 $89 #
cone-surface $-1 -71.052344452733649 -18.373677756533464 9.7594118374177938 0.66913061440640931 0 -0.74314481823134659 0.3715724091156733 0 0.33456530720320465 1 I I -0.70710678118654746 0.70710678118654746 0.5 forward I I I I #
loop $-1 $-1 $229 $67 #
coedge $-1 $144 $144 $230 $231 reversed $90 $-1 #
face $-1 $-1 $232 $52 $-1 $233 forward single #
loop $-1 $234 $235 $92 #
cone-surface $-1 -71.052344452733649 -14.344224701730024 9.7594118374177938 0.66913061440640931 0 -0.74314481823134659 0.3715724091156733 0 0.33456530720320465 1 I I -0.70710678118654746 0.70710678118654746 0.5 forward I I I I #
loop $-1 $-1 $236 $68 #
coedge $-1 $149 $149 $237 $238 reversed $93 $-1 #
face $-1 $239 $240 $53 $-1 $241 reversed single #
loop $-1 $-1 $242 $95 #
plane-surface $-1 -78.85982848597672 0.24336353138336619 7.4317619441256113 -0.66913061440640931 0 0.74314481823134659 0.74314481823134659 0 0.66913061440640931 forward_v I I I I #
coedge $-1 $243 $244 $245 $246 reversed $96 $-1 #
face $-1 $-1 $247 $54 $-1 $248 forward single #
loop $-1 $249 $250 $98 #
cone-surface $-1 -71.052344452733649 -1.7713629960183539 9.7594118374177938 0.66913061440640931 0 -0.74314481823134659 0.3715724091156733 0 0.33456530720320465 1 I I -0.70710678118654746 0.70710678118654746 0.5 forward I I I I #
loop $-1 $-1 $251 $70 #
coedge $-1 $158 $158 $252 $253 reversed $99 $-1 #
face $-1 $-1 $254 $55 $-1 $255 forward single #
loop $-1 $256 $257 $101 #
cone-surface $-1 -71.052344452733649 2.2580900587850863 9.7594118374177938 0.66913061440640931 0 -0.74314481823134659 0.3715724091156733 0 0.33456530720320465 1 I I -0.70710678118654746 0.70710678118654746 0.5 forward I I I I #
loop $-1 $-1 $258 $71 #
coedge $-1 $163 $163 $259 $260 reversed $102 $-1 #
face $-1 $261 $262 $56 $-1 $263 reversed single #
loop $-1 $-1 $264 $104 #
plane-surface $-1 -78.85982848597672 16.845678291898473 7.4317619441256113 -0.66913061440640931 0 0.74314481823134659 0.74314481823134659 0 0.66913061440640931 forward_v I I I I #
coedge $-1 $265 $266 $267 $268 reversed $105 $-1 #
face $-1 $-1 $269 $57 $-1 $270 forward single #
loop $-1 $271 $272 $107 #
cone-surface $-1 -71.052344452733649 14.830951764496753 9.7594118374177938 0.66913061440640931 0 -0.74314481823134659 0.3715724091156733 0 0.33456530720320465 1 I I -0.70710678118654746 0.70710678118654746 0.5 forward I I I I #
loop $-1 $-1 $273 $73 #
coedge $-1 $172 $172 $274 $275 reversed $108 $-1 #
face $-1 $-1 $276 $58 $-1 $277 forward single #
loop $-1 $278 $279 $110 #
cone-surface $-1 -71.052344452733649 18.860404819300193 9.7594118374177938 0.66913061440640931 0 -0.74314481823134659 0.3715724091156733 0 0.33456530720320465 1 I I -0.70710678118654746 0.70710678118654746 0.5 forward I I I I #
loop $-1 $-1 $280 $74 #
coedge $-1 $177 $177 $281 $282 reversed $111 $-1 #
face $-1 $283 $284 $59 $-1 $285 reversed single #
loop $-1 $-1 $286 $113 #
plane-surface $-1 -78.85982848597672 33.447993052413587 7.4317619441256113 -0.66913061440640931 0 0.74314481823134659 0.74314481823134659 0 0.66913061440640931 forward_v I I I I #
coedge $-1 $287 $288 $289 $290 reversed $114 $-1 #
face $-1 $-1 $291 $60 $-1 $292 forward single #
loop $-1 $293 $294 $116 #
cone-surface $-1 -71.052344452733649 31.433266525011867 9.7594118374177938 0.66913061440640931 0 -0.74314481823134659 0.3715724091156733 0 0.33456530720320465 1 I I -0.70710678118654746 0.70710678118654746 0.5 forward I I I I #
loop $-1 $-1 $295 $76 #
coedge $-1 $186 $186 $296 $297 reversed $117 $-1 #
face $-1 $-1 $298 $61 $-1 $299 forward single #
loop $-1 $300 $301 $119 #
cone-surface $-1 -71.052344452733649 35.462719579815307 9.7594118374177938 0.66913061440640931 0 -0.74314481823134659 0.3715724091156733 0 0.33456530720320465 1 I I -0.70710678118654746 0.70710678118654746 0.5 forward I I I I #
loop $-1 $-1 $302 $77 #
coedge $-1 $191 $191 $303 $304 reversed $120 $-1 #
face $-1 $305 $306 $62 $-1 $307 reversed single #
loop $-1 $-1 $308 $122 #
plane-surface $-1 -50.336550130789121 5.277819299556441 98.17802348294174 0.57357644374324357 0 0.81915203911291934 0.81915203911291934 0 -0.57357644374324357 forward_v I I I I #
coedge $-1 $309 $310 $311 $312 reversed $123 $-1 #
face $-1 $-1 $313 $63 $-1 $314 forward single #
loop $-1 $315 $316 $125 #
cone-surface $-1 68.609717976296707 5.277819299556441 7.6151436397733683 -0.57357644374324357 0 -0.81915203911291934 0.81915203911291934 0 -0.57357644374324357 1 I I -0.70710678118654746 0.70710678118654746 1 forward I I I I #
loop $-1 $-1 $317 $79 #
coedge $-1 $200 $200 $318 $319 reversed $126 $-1 #
face $-1 $320 $321 $48 $-1 $322 reversed single #
loop $-1 $-1 $323 $128 #
plane-surface $-1 0 -41.022417325637711 0 0 1 0 0 0 1 forward_v I I I I #
coedge $-1 $324 $325 $326 $327 forward $129 $-1 #
coedge $-1 $328 $131 $329 $330 forward $81 $-1 #
coedge $-1 $131 $328 $331 $332 forward $81 $-1 #
coedge $-1 $333 $334 $131 $208 reversed $335 $-1 #
edge $-1 $336 -41.022417325637711 $337 41.022417325637711 $207 $338 forward 7 unknown #
face $-1 $339 $340 $49 $-1 $341 reversed single #
loop $-1 $-1 $342 $132 #
plane-surface $-1 0 -23.933375502355865 6.8162847679213741 0 -1 0 0 0 -1 forward_v I I I I #
coedge $-1 $343 $344 $345 $346 reversed $133 $-1 #
coedge $-1 $347 $135 $348 $349 forward $84 $-1 #
coedge $-1 $135 $347 $350 $351 reversed $84 $-1 #
coedge $-1 $352 $353 $135 $216 forward $354 $-1 #
edge $-1 $355 7.6944272953574711 $356 24.783469118639317 $215 $357 forward 7 unknown #
face $-1 $358 $359 $50 $-1 $360 reversed single #
loop $-1 $-1 $361 $136 #
plane-surface $-1 -184.39487945958808 -11.657922665194398 124.64030775605833 0 -1 0 0.66913061440640931 0 -0.74314481823134659 forward_v I I I I #
coedge $-1 $362 $363 $364 $365 reversed $137 $-1 #
coedge $-1 $222 $139 $366 $367 reversed $87 $-1 #
coedge $-1 $139 $221 $362 $368 reversed $87 $-1 #
coedge $-1 $364 $369 $139 $224 forward $370 $-1 #
edge $-1 $371 13.337611243817292 $372 24.27609820577338 $223 $373 forward 7 unknown #
loop $-1 $-1 $230 $140 #
plane-surface $-1 -78.85982848597672 -16.358951229131744 7.4317619441256113 -0.66913061440640931 0 0.74314481823134659 0.74314481823134659 0 0.66913061440640931 forward_v I I I I #
loop $-1 $-1 $374 $89 #
coedge $-1 $228 $228 $229 $375 reversed $141 $-1 #
coedge $-1 $229 $229 $228 $375 forward $143 $-1 #
coedge $-1 $230 $230 $144 $231 forward $225 $-1 #
edge $-1 $376 0 $376 6.2831853071796004 $230 $377 forward 7 unknown #
loop $-1 $-1 $237 $145 #
plane-surface $-1 -78.85982848597672 -16.358951229131744 7.4317619441256113 -0.66913061440640931 0 0.74314481823134659 0.74314481823134659 0 0.66913061440640931 forward_v I I I I #
loop $-1 $-1 $378 $92 #
coedge $-1 $235 $235 $236 $379 reversed $146 $-1 #
coedge $-1 $236 $236 $235 $379 forward $148 $-1 #
coedge $-1 $237 $237 $149 $238 forward $232 $-1 #
edge $-1 $380 0 $380 6.2831853071796004 $237 $381 forward 7 unknown #
face $-1 $382 $383 $53 $-1 $384 forward single #
loop $-1 $-1 $385 $150 #
plane-surface $-1 -184.39487945958808 4.9443920953207119 124.64030775605833 0 -1 0 0.66913061440640931 0 -0.74314481823134659 forward_v I I I I #
coedge $-1 $386 $387 $388 $389 reversed $151 $-1 #
coedge $-1 $244 $153 $390 $391 reversed $96 $-1 #
coedge $-1 $153 $243 $386 $392 reversed $96 $-1 #
coedge $-1 $388 $393 $153 $246 forward $383 $-1 #
edge $-1 $394 13.337611243817292 $395 24.27609820577338 $245 $396 forward 7 unknown #
loop $-1 $-1 $252 $154 #
plane-surface $-1 -78.85982848597672 0.24336353138336619 7.4317619441256113 -0.66913061440640931 0 0.74314481823134659 0.74314481823134659 0 0.66913061440640931 forward_v I I I I #
loop $-1 $-1 $397 $98 #
coedge $-1 $250 $250 $251 $398 reversed $155 $-1 #
coedge $-1 $251 $251 $250 $398 forward $157 $-1 #
coedge $-1 $252 $252 $158 $253 forward $247 $-1 #
edge $-1 $399 0 $399 6.2831853071796004 $252 $400 forward 7 unknown #
loop $-1 $-1 $259 $159 #
plane-surface $-1 -78.85982848597672 0.24336353138336619 7.4317619441256113 -0.66913061440640931 0 0.74314481823134659 0.74314481823134659 0 0.66913061440640931 forward_v I I I I #
loop $-1 $-1 $401 $101 #
coedge $-1 $257 $257 $258 $402 reversed $160 $-1 #
coedge $-1 $258 $258 $257 $402 forward $162 $-1 #
coedge $-1 $259 $259 $163 $260 forward $254 $-1 #
edge $-1 $403 0 $403 6.2831853071796004 $259 $404 forward 7 unknown #
face $-1 $405 $406 $56 $-1 $407 forward single #
loop $-1 $-1 $408 $164 #
plane-surface $-1 -184.39487945958808 21.546706855835819 124.64030775605833 0 -1 0 0.66913061440640931 0 -0.74314481823134659 forward_v I I I I #
coedge $-1 $409 $410 $411 $412 reversed $165 $-1 #
coedge $-1 $266 $167 $413 $414 reversed $105 $-1 #
coedge $-1 $167 $265 $409 $415 reversed $105 $-1 #
coedge $-1 $411 $416 $167 $268 forward $406 $-1 #
edge $-1 $417 13.337611243817292 $418 24.27609820577338 $267 $419 forward 7 unknown #
loop $-1 $-1 $274 $168 #
plane-surface $-1 -78.85982848597672 16.845678291898473 7.4317619441256113 -0.66913061440640931 0 0.74314481823134659 0.74314481823134659 0 0.66913061440640931 forward_v I I I I #
loop $-1 $-1 $420 $107 #
coedge $-1 $272 $272 $273 $421 reversed $169 $-1 #
coedge $-1 $273 $273 $272 $421 forward $171 $-1 #
coedge $-1 $274 $274 $172 $275 forward $269 $-1 #
edge $-1 $422 0 $422 6.2831853071796004 $274 $423 forward 7 unknown #
loop $-1 $-1 $281 $173 #
plane-surface $-1 -78.85982848597672 16.845678291898473 7.4317619441256113 -0.66913061440640931 0 0.74314481823134659 0.74314481823134659 0 0.66913061440640931 forward_v I I I I #
loop $-1 $-1 $424 $110 #
coedge $-1 $279 $279 $280 $425 reversed $174 $-1 #
coedge $-1 $280 $280 $279 $425 forward $176 $-1 #
coedge $-1 $281 $281 $177 $282 forward $276 $-1 #
edge $-1 $426 0 $426 6.2831853071796004 $281 $427 forward 7 unknown #
face $-1 $428 $429 $59 $-1 $430 forward single #
loop $-1 $-1 $431 $178 #
plane-surface $-1 -184.39487945958808 38.149021616350936 124.64030775605833 0 -1 0 0.66913061440640931 0 -0.74314481823134659 forward_v I I I I #
coedge $-1 $432 $433 $434 $435 reversed $179 $-1 #
coedge $-1 $288 $181 $436 $437 reversed $114 $-1 #
coedge $-1 $181 $287 $432 $438 reversed $114 $-1 #
coedge $-1 $434 $439 $181 $290 forward $429 $-1 #
edge $-1 $440 13.337611243817292 $441 24.27609820577338 $289 $442 forward 7 unknown #
loop $-1 $-1 $296 $182 #
plane-surface $-1 -78.85982848597672 33.447993052413587 7.4317619441256113 -0.66913061440640931 0 0.74314481823134659 0.74314481823134659 0 0.66913061440640931 forward_v I I I I #
loop $-1 $-1 $443 $116 #
coedge $-1 $294 $294 $295 $444 reversed $183 $-1 #
coedge $-1 $295 $295 $294 $444 forward $185 $-1 #
coedge $-1 $296 $296 $186 $297 forward $291 $-1 #
edge $-1 $445 0 $445 6.2831853071796004 $296 $446 forward 7 unknown #
loop $-1 $-1 $303 $187 #
plane-surface $-1 -78.85982848597672 33.447993052413587 7.4317619441256113 -0.66913061440640931 0 0.74314481823134659 0.74314481823134659 0 0.66913061440640931 forward_v I I I I #
loop $-1 $-1 $447 $119 #
coedge $-1 $301 $301 $302 $448 reversed $188 $-1 #
coedge $-1 $302 $302 $301 $448 forward $190 $-1 #
coedge $-1 $303 $303 $191 $304 forward $298 $-1 #
edge $-1 $449 0 $449 6.2831853071796004 $303 $450 forward 7 unknown #
face $-1 $451 $452 $62 $-1 $453 forward single #
loop $-1 $-1 $454 $192 #
plane-surface $-1 40.12772982358824 -0.20824621946668742 227.37440209970762 0 1 0 0.57357644374324357 0 0.81915203911291934 forward_v I I I I #
coedge $-1 $455 $456 $457 $458 reversed $193 $-1 #
coedge $-1 $310 $195 $459 $460 reversed $123 $-1 #
coedge $-1 $195 $309 $455 $461 reversed $123 $-1 #
coedge $-1 $457 $462 $195 $312 forward $452 $-1 #
edge $-1 $463 -58.795963574182629 $464 -45.132762561235232 $311 $465 forward 7 unknown #
loop $-1 $-1 $318 $196 #
plane-surface $-1 -50.336550130789121 5.277819299556441 98.17802348294174 0.57357644374324357 0 0.81915203911291934 0.81915203911291934 0 -0.57357644374324357 forward_v I I I I #
loop $-1 $-1 $466 $125 #
coedge $-1 $316 $316 $317 $467 reversed $197 $-1 #
coedge $-1 $317 $317 $316 $467 forward $199 $-1 #
coedge $-1 $318 $318 $200 $319 forward $313 $-1 #
edge $-1 $468 0 $468 6.2831853071796004 $318 $469 forward 7 unknown #
face $-1 $470 $471 $48 $-1 $472 reversed single #
loop $-1 $-1 $473 $201 #
plane-surface $-1 -78.859828485976749 0 0 1 0 0 0 0 -1 forward_v I I I I #
coedge $-1 $474 $331 $475 $476 forward $202 $-1 #
coedge $-1 $477 $204 $474 $478 forward $129 $-1 #
coedge $-1 $204 $477 $479 $480 forward $129 $-1 #
coedge $-1 $334 $333 $204 $327 reversed $335 $-1 #
edge $-1 $481 -41.022417325637711 $482 41.022417325637711 $326 $483 forward 7 unknown #
coedge $-1 $206 $205 $484 $485 forward $81 $-1 #
coedge $-1 $486 $487 $205 $330 reversed $471 $-1 #
edge $-1 $337 -78.859828485976749 $488 78.859828485976749 $329 $489 forward 7 unknown #
coedge $-1 $323 $490 $206 $332 reversed $202 $-1 #
edge $-1 $491 -78.859828485976749 $336 78.859828485976749 $331 $492 forward 7 unknown #
coedge $-1 $326 $207 $490 $493 forward $335 $-1 #
coedge $-1 $207 $326 $486 $494 reversed $335 $-1 #
loop $-1 $-1 $333 $470 #
vertex $-1 $208 $495 #
vertex $-1 $208 $496 #
straight-curve $-1 78.859828485976749 0 17.280820057656864 0 1 0 I I #
face $-1 $497 $498 $49 $-1 $499 reversed single #
loop $-1 $-1 $500 $209 #
plane-surface $-1 -78.859828485976749 0 0 1 0 0 0 0 -1 forward_v I I I I #
coedge $-1 $501 $348 $353 $502 reversed $210 $-1 #
coedge $-1 $503 $212 $504 $505 reversed $133 $-1 #
coedge $-1 $212 $503 $501 $506 forward $133 $-1 #
coedge $-1 $353 $352 $212 $346 forward $354 $-1 #
edge $-1 $507 -24.783469118639317 $508 -7.6944272953574711 $345 $509 forward 7 unknown #
coedge $-1 $214 $213 $500 $510 reversed $84 $-1 #
coedge $-1 $342 $511 $213 $349 reversed $210 $-1 #
edge $-1 $355 -78.859828485976749 $512 78.859828485976749 $348 $513 forward 7 unknown #
coedge $-1 $514 $515 $214 $351 forward $498 $-1 #
edge $-1 $356 -78.859828485976749 $516 78.859828485976749 $350 $517 forward 7 unknown #
coedge $-1 $345 $215 $515 $518 forward $354 $-1 #
coedge $-1 $215 $345 $342 $502 forward $354 $-1 #
loop $-1 $-1 $215 $497 #
vertex $-1 $216 $519 #
vertex $-1 $518 $520 #
straight-curve $-1 78.859828485976749 -16.238948206998394 11.239514416823436 0 -1 0 I I #
face $-1 $-1 $370 $50 $-1 $521 forward single #
loop $-1 $-1 $522 $217 #
plane-surface $-1 -78.859828485976749 0 0 1 0 0 0 0 -1 forward_v I I I I #
coedge $-1 $523 $524 $525 $526 reversed $218 $-1 #
coedge $-1 $527 $220 $222 $368 forward $137 $-1 #
coedge $-1 $220 $527 $523 $528 forward $137 $-1 #
coedge $-1 $525 $223 $220 $365 forward $370 $-1 #
edge $-1 $372 -12.880504178503218 $529 -3.4784470506285263 $364 $530 forward 7 unknown #
coedge $-1 $531 $532 $221 $367 forward $359 $-1 #
edge $-1 $533 -54.888391933903584 $371 -45.039333820372306 $366 $534 forward 7 unknown #
edge $-1 $372 -14.719186211900388 $533 3.8356359867099031e-014 $222 $535 forward 7 unknown #
coedge $-1 $223 $525 $531 $536 forward $370 $-1 #
loop $-1 $-1 $525 $358 #
vertex $-1 $367 $537 #
vertex $-1 $224 $538 #
straight-curve $-1 -92.197439729794041 -21.05997979306909 17.280820057656868 1 0 0 I I #
coedge $-1 $374 $374 $-1 $539 reversed $227 $-1 #
edge $-1 $540 0 $540 6.2831853071796004 $228 $541 forward 7 unknown #
vertex $-1 $231 $542 #
ellipse-curve $-1 -73.390585004998712 -18.373677756533464 12.356291000891222 -0.66913061440640931 0 0.74314481823134659 0.74314481823134659 0 0.66913061440640931 1 I I #
coedge $-1 $378 $378 $-1 $543 reversed $234 $-1 #
edge $-1 $544 0 $544 6.2831853071796004 $235 $545 forward 7 unknown #
vertex $-1 $238 $546 #
ellipse-curve $-1 -73.390585004998712 -14.344224701730024 12.356291000891222 -0.66913061440640931 0 0.74314481823134659 0.74314481823134659 0 0.66913061440640931 1 I I #
face $-1 $-1 $547 $53 $-1 $548 reversed single #
loop $-1 $-1 $245 $239 #
plane-surface $-1 0 0 17.280820057656864 0 0 1 1 0 0 forward_v I I I I #
coedge $-1 $549 $550 $551 $552 reversed $240 $-1 #
coedge $-1 $553 $242 $244 $392 forward $151 $-1 #
coedge $-1 $242 $553 $549 $554 forward $151 $-1 #
coedge $-1 $551 $245 $242 $389 forward $383 $-1 #
edge $-1 $395 -4.5793467982456626 $555 4.8227103296290288 $388 $556 forward 7 unknown #
coedge $-1 $557 $558 $243 $391 forward $547 $-1 #
edge $-1 $559 -54.888391933903584 $394 -45.039333820372306 $390 $560 forward 7 unknown #
edge $-1 $395 -14.719186211900388 $559 3.8356359867099031e-014 $244 $561 forward 7 unknown #
coedge $-1 $245 $551 $557 $562 forward $383 $-1 #
vertex $-1 $246 $563 #
vertex $-1 $246 $564 #
straight-curve $-1 -92.197439729794041 -4.4576650325539795 17.280820057656868 1 0 0 I I #
coedge $-1 $397 $397 $-1 $565 reversed $249 $-1 #
edge $-1 $566 0 $566 6.2831853071796004 $250 $567 forward 7 unknown #
vertex $-1 $253 $568 #
ellipse-curve $-1 -73.390585004998712 -1.7713629960183539 12.356291000891222 -0.66913061440640931 0 0.74314481823134659 0.74314481823134659 0 0.66913061440640931 1 I I #
coedge $-1 $401 $401 $-1 $569 reversed $256 $-1 #
edge $-1 $570 0 $570 6.2831853071796004 $257 $571 forward 7 unknown #
vertex $-1 $260 $572 #
ellipse-curve $-1 -73.390585004998712 2.2580900587850863 12.356291000891222 -0.66913061440640931 0 0.74314481823134659 0.74314481823134659 0 0.66913061440640931 1 I I #
face $-1 $-1 $573 $56 $-1 $574 reversed single #
loop $-1 $-1 $267 $261 #
plane-surface $-1 0 0 17.280820057656864 0 0 1 1 0 0 forward_v I I I I #
coedge $-1 $575 $576 $577 $578 reversed $262 $-1 #
coedge $-1 $579 $264 $266 $415 forward $165 $-1 #
coedge $-1 $264 $579 $575 $580 forward $165 $-1 #
coedge $-1 $577 $267 $264 $412 forward $406 $-1 #
edge $-1 $418 3.7218105820118907 $581 13.123867709886582 $411 $582 forward 7 unknown #
coedge $-1 $583 $584 $265 $414 forward $573 $-1 #
edge $-1 $585 -54.888391933903584 $417 -45.039333820372306 $413 $586 forward 7 unknown #
edge $-1 $418 -14.719186211900388 $585 3.8356359867099031e-014 $266 $587 forward 7 unknown #
coedge $-1 $267 $577 $583 $588 forward $406 $-1 #
vertex $-1 $268 $589 #
vertex $-1 $268 $590 #
straight-curve $-1 -92.197439729794041 12.144649727961127 17.280820057656868 1 0 0 I I #
coedge $-1 $420 $420 $-1 $591 reversed $271 $-1 #
edge $-1 $592 0 $592 6.2831853071796004 $272 $593 forward 7 unknown #
vertex $-1 $275 $594 #
ellipse-curve $-1 -73.390585004998712 14.830951764496753 12.356291000891222 -0.66913061440640931 0 0.74314481823134659 0.74314481823134659 0 0.66913061440640931 1 I I #
coedge $-1 $424 $424 $-1 $595 reversed $278 $-1 #
edge $-1 $596 0 $596 6.2831853071796004 $279 $597 forward 7 unknown #
vertex $-1 $282 $598 #
ellipse-curve $-1 -73.390585004998712 18.860404819300193 12.356291000891222 -0.66913061440640931 0 0.74314481823134659 0.74314481823134659 0 0.66913061440640931 1 I I #
face $-1 $-1 $599 $59 $-1 $600 reversed single #
loop $-1 $-1 $289 $283 #
plane-surface $-1 0 0 17.280820057656864 0 0 1 1 0 0 forward_v I I I I #
coedge $-1 $601 $602 $603 $604 reversed $284 $-1 #
coedge $-1 $605 $286 $288 $438 forward $179 $-1 #
coedge $-1 $286 $605 $601 $606 forward $179 $-1 #
coedge $-1 $603 $289 $286 $435 forward $429 $-1 #
edge $-1 $441 12.022967962269448 $607 21.425025090144143 $434 $608 forward 7 unknown #
coedge $-1 $609 $610 $287 $437 forward $599 $-1 #
edge $-1 $611 -54.888391933903584 $440 -45.039333820372306 $436 $612 forward 7 unknown #
edge $-1 $441 -14.719186211900388 $611 3.8356359867099031e-014 $288 $613 forward 7 unknown #
coedge $-1 $289 $603 $609 $614 forward $429 $-1 #
vertex $-1 $290 $615 #
vertex $-1 $290 $616 #
straight-curve $-1 -92.197439729794041 28.746964488476241 17.280820057656868 1 0 0 I I #
coedge $-1 $443 $443 $-1 $617 reversed $293 $-1 #
edge $-1 $618 0 $618 6.2831853071796004 $294 $619 forward 7 unknown #
vertex $-1 $297 $620 #
ellipse-curve $-1 -73.390585004998712 31.433266525011867 12.356291000891222 -0.66913061440640931 0 0.74314481823134659 0.74314481823134659 0 0.66913061440640931 1 I I #
coedge $-1 $447 $447 $-1 $621 reversed $300 $-1 #
edge $-1 $622 0 $622 6.2831853071796004 $301 $623 forward 7 unknown #
vertex $-1 $304 $624 #
ellipse-curve $-1 -73.390585004998712 35.462719579815307 12.356291000891222 -0.66913061440640931 0 0.74314481823134659 0.74314481823134659 0 0.66913061440640931 1 I I #
face $-1 $-1 $625 $62 $-1 $626 reversed single #
loop $-1 $-1 $311 $305 #
plane-surface $-1 0 0 17.280820057656864 0 0 1 1 0 0 forward_v I I I I #
coedge $-1 $627 $628 $629 $630 reversed $306 $-1 #
coedge $-1 $631 $308 $310 $461 forward $193 $-1 #
coedge $-1 $308 $631 $627 $632 forward $193 $-1 #
coedge $-1 $629 $311 $308 $458 forward $452 $-1 #
edge $-1 $464 -8.124975168801349 $633 2.8471558692449079 $457 $634 forward 7 unknown #
coedge $-1 $635 $636 $309 $460 forward $625 $-1 #
edge $-1 $637 -105.97345752128942 $463 -96.406380992196944 $459 $638 forward 7 unknown #
edge $-1 $464 141.03996826881161 $637 157.71965697195347 $310 $639 forward 7 unknown #
coedge $-1 $311 $629 $635 $640 forward $452 $-1 #
vertex $-1 $460 $641 #
vertex $-1 $312 $642 #
straight-curve $-1 20.06386491179412 10.763884818579569 17.280820057656868 -1 0 0 I I #
coedge $-1 $466 $466 $-1 $643 reversed $315 $-1 #
edge $-1 $644 0 $644 6.2831853071796004 $316 $645 forward 7 unknown #
vertex $-1 $319 $646 #
ellipse-curve $-1 72.028227979503058 5.277819299556441 12.497281793110625 0.57357644374324357 0 0.81915203911291934 1.6383040782258387 0 -1.1471528874864871 1 I I #
face $-1 $-1 $335 $48 $-1 $647 reversed single #
loop $-1 $-1 $486 $320 #
plane-surface $-1 0 41.022417325637711 0 0 -1 0 0 0 -1 forward_v I I I I #
coedge $-1 $648 $484 $487 $649 forward $321 $-1 #
coedge $-1 $490 $323 $324 $478 reversed $202 $-1 #
coedge $-1 $484 $648 $323 $476 reversed $321 $-1 #
edge $-1 $491 -17.280820057656864 $650 17.280820057656864 $475 $651 forward 7 unknown #
coedge $-1 $325 $324 $648 $652 forward $129 $-1 #
edge $-1 $482 -78.859828485976749 $650 78.859828485976749 $474 $653 forward 7 unknown #
coedge $-1 $487 $486 $325 $480 reversed $471 $-1 #
edge $-1 $654 -78.859828485976749 $481 78.859828485976749 $479 $655 forward 7 unknown #
vertex $-1 $327 $656 #
vertex $-1 $493 $657 #
straight-curve $-1 78.859828485976749 0 -17.280820057656864 0 -1 0 I I #
coedge $-1 $473 $475 $328 $485 reversed $321 $-1 #
edge $-1 $488 -41.022417325637711 $491 41.022417325637711 $484 $658 forward 7 unknown #
coedge $-1 $479 $329 $334 $494 forward $471 $-1 #
coedge $-1 $329 $479 $473 $649 reversed $471 $-1 #
vertex $-1 $330 $659 #
straight-curve $-1 0 41.022417325637711 17.280820057656864 -1 0 0 I I #
coedge $-1 $331 $474 $333 $493 reversed $202 $-1 #
vertex $-1 $485 $660 #
straight-curve $-1 0 -41.022417325637711 17.280820057656864 1 0 0 I I #
edge $-1 $336 -17.280820057656864 $482 17.280820057656864 $333 $661 forward 7 unknown #
edge $-1 $337 -17.280820057656864 $481 17.280820057656864 $334 $662 forward 7 unknown #
point $-1 78.859828485976749 -41.022417325637711 17.280820057656864 #
point $-1 78.859828485976749 41.022417325637711 17.280820057656864 #
face $-1 $-1 $354 $49 $-1 $663 reversed single #
loop $-1 $-1 $350 $339 #
plane-surface $-1 0 -41.022417325637711 0 0 1 0 0 0 1 forward_v I I I I #
coedge $-1 $664 $665 $347 $510 forward $340 $-1 #
coedge $-1 $511 $342 $344 $506 reversed $210 $-1 #
edge $-1 $508 -1.0150872649413749 $355 7.831372032862749 $353 $666 forward 7 unknown #
coedge $-1 $344 $343 $667 $668 reversed $133 $-1 #
coedge $-1 $515 $514 $343 $505 forward $498 $-1 #
edge $-1 $669 -78.859828485976749 $507 78.859828485976749 $504 $670 forward 7 unknown #
edge $-1 $671 -78.859828485976749 $508 78.859828485976749 $501 $672 forward 7 unknown #
vertex $-1 $505 $673 #
vertex $-1 $346 $674 #
straight-curve $-1 78.859828485976749 -16.238948206998394 2.3930551190193121 0 1 0 I I #
edge $-1 $516 -24.783469118639317 $512 -7.6944272953574711 $500 $675 forward 7 unknown #
coedge $-1 $348 $501 $664 $676 reversed $210 $-1 #
vertex $-1 $510 $677 #
straight-curve $-1 0 -23.933375502355865 11.239514416823436 -1 0 0 I I #
coedge $-1 $504 $350 $665 $678 forward $498 $-1 #
coedge $-1 $350 $504 $352 $518 reversed $498 $-1 #
vertex $-1 $678 $679 #
straight-curve $-1 0 -41.022417325637711 11.239514416823436 -1 0 0 I I #
edge $-1 $356 -11.239514416823436 $507 -2.3930551190193121 $352 $680 forward 7 unknown #
point $-1 78.859828485976749 -23.933375502355865 11.239514416823436 #
point $-1 78.859828485976749 -41.022417325637711 11.239514416823436 #
plane-surface $-1 0 0 17.280820057656864 0 0 1 1 0 0 forward_v I I I I #
coedge $-1 $532 $531 $524 $681 forward $359 $-1 #
coedge $-1 $524 $361 $363 $528 reversed $218 $-1 #
coedge $-1 $361 $523 $522 $681 reversed $218 $-1 #
coedge $-1 $369 $364 $361 $526 forward $370 $-1 #
edge $-1 $529 -24.27609820577338 $682 -13.337611243817292 $525 $683 forward 7 unknown #
coedge $-1 $363 $362 $532 $684 reversed $137 $-1 #
edge $-1 $685 -3.8356359867099031e-014 $529 14.719186211900388 $523 $686 forward 7 unknown #
vertex $-1 $365 $687 #
straight-curve $-1 -67.921341524020661 -8.179475614565872 17.280820057656861 0 1 0 I I #
coedge $-1 $522 $366 $369 $536 reversed $359 $-1 #
coedge $-1 $366 $522 $527 $684 forward $359 $-1 #
vertex $-1 $367 $688 #
straight-curve $-1 -78.859828485976749 -21.05997979306909 62.320153878029167 0 0 1 I I #
straight-curve $-1 -78.85982848597672 -21.05997979306909 7.4317619441256113 -0.74314481823134659 0 -0.66913061440640931 I I #
edge $-1 $682 11.657922665194398 $371 21.05997979306909 $531 $689 forward 7 unknown #
point $-1 -78.859828485976749 -21.05997979306909 17.280820057656864 #
point $-1 -67.921341524020661 -21.05997979306909 17.280820057656864 #
edge $-1 $690 1 $690 0 $374 $-1 forward 7 unknown #
vertex $-1 $375 $691 #
ellipse-curve $-1 -71.386909759936856 -18.373677756533464 10.130984246533467 -0.66913061440640931 0 0.74314481823134659 0.74314481823134659 0 0.66913061440640931 1 I I #
point $-1 -72.647440186767383 -18.373677756533464 13.02542161529766 #
edge $-1 $692 1 $692 0 $378 $-1 forward 7 unknown #
vertex $-1 $379 $693 #
ellipse-curve $-1 -71.386909759936856 -14.344224701730024 10.130984246533467 -0.66913061440640931 0 0.74314481823134659 0.74314481823134659 0 0.66913061440640931 1 I I #
point $-1 -72.647440186767383 -14.344224701730024 13.02542161529766 #
loop $-1 $-1 $390 $382 #
plane-surface $-1 -78.859828485976749 0 0 1 0 0 0 0 -1 forward_v I I I I #
coedge $-1 $550 $385 $387 $554 reversed $240 $-1 #
coedge $-1 $385 $549 $694 $695 reversed $240 $-1 #
coedge $-1 $393 $388 $385 $552 forward $383 $-1 #
edge $-1 $555 -24.27609820577338 $696 -13.337611243817292 $551 $697 forward 7 unknown #
coedge $-1 $387 $386 $558 $698 reversed $151 $-1 #
edge $-1 $699 -3.8356359867099031e-014 $555 14.719186211900388 $549 $700 forward 7 unknown #
vertex $-1 $389 $701 #
straight-curve $-1 -67.921341524020661 0.1216817656916831 17.280820057656861 0 1 0 I I #
coedge $-1 $694 $390 $393 $562 reversed $547 $-1 #
coedge $-1 $390 $694 $553 $698 forward $547 $-1 #
vertex $-1 $391 $702 #
straight-curve $-1 -78.859828485976749 -4.4576650325539795 62.320153878029167 0 0 1 I I #
straight-curve $-1 -78.85982848597672 -4.4576650325539795 7.4317619441256113 -0.74314481823134659 0 -0.66913061440640931 I I #
edge $-1 $696 -4.9443920953207119 $394 4.4576650325539795 $557 $703 forward 7 unknown #
point $-1 -78.859828485976749 -4.4576650325539795 17.280820057656864 #
point $-1 -67.921341524020661 -4.4576650325539795 17.280820057656864 #
edge $-1 $704 1 $704 0 $397 $-1 forward 7 unknown #
vertex $-1 $398 $705 #
ellipse-curve $-1 -71.386909759936856 -1.7713629960183539 10.130984246533467 -0.66913061440640931 0 0.74314481823134659 0.74314481823134659 0 0.66913061440640931 1 I I #
point $-1 -72.647440186767383 -1.7713629960183539 13.02542161529766 #
edge $-1 $706 1 $706 0 $401 $-1 forward 7 unknown #
vertex $-1 $402 $707 #
ellipse-curve $-1 -71.386909759936856 2.2580900587850863 10.130984246533467 -0.66913061440640931 0 0.74314481823134659 0.74314481823134659 0 0.66913061440640931 1 I I #
point $-1 -72.647440186767383 2.2580900587850863 13.02542161529766 #
loop $-1 $-1 $413 $405 #
plane-surface $-1 -78.859828485976749 0 0 1 0 0 0 0 -1 forward_v I I I I #
coedge $-1 $576 $408 $410 $580 reversed $262 $-1 #
coedge $-1 $408 $575 $708 $709 reversed $262 $-1 #
coedge $-1 $416 $411 $408 $578 forward $406 $-1 #
edge $-1 $581 -24.27609820577338 $710 -13.337611243817292 $577 $711 forward 7 unknown #
coedge $-1 $410 $409 $584 $712 reversed $165 $-1 #
edge $-1 $713 -3.8356359867099031e-014 $581 14.719186211900388 $575 $714 forward 7 unknown #
vertex $-1 $412 $715 #
straight-curve $-1 -67.921341524020661 8.4228391459492364 17.280820057656861 0 1 0 I I #
coedge $-1 $708 $413 $416 $588 reversed $573 $-1 #
coedge $-1 $413 $708 $579 $712 forward $573 $-1 #
vertex $-1 $414 $716 #
straight-curve $-1 -78.859828485976749 12.144649727961127 62.320153878029167 0 0 1 I I #
straight-curve $-1 -78.85982848597672 12.144649727961127 7.4317619441256113 -0.74314481823134659 0 -0.66913061440640931 I I #
edge $-1 $710 -21.546706855835819 $417 -12.144649727961127 $583 $717 forward 7 unknown #
point $-1 -78.859828485976749 12.144649727961127 17.280820057656864 #
point $-1 -67.921341524020661 12.144649727961127 17.280820057656864 #
edge $-1 $718 1 $718 0 $420 $-1 forward 7 unknown #
vertex $-1 $421 $719 #
ellipse-curve $-1 -71.386909759936856 14.830951764496753 10.130984246533467 -0.66913061440640931 0 0.74314481823134659 0.74314481823134659 0 0.66913061440640931 1 I I #
point $-1 -72.647440186767383 14.830951764496753 13.02542161529766 #
edge $-1 $720 1 $720 0 $424 $-1 forward 7 unknown #
vertex $-1 $425 $721 #
ellipse-curve $-1 -71.386909759936856 18.860404819300193 10.130984246533467 -0.66913061440640931 0 0.74314481823134659 0.74314481823134659 0 0.66913061440640931 1 I I #
point $-1 -72.647440186767383 18.860404819300193 13.02542161529766 #
loop $-1 $-1 $436 $428 #
plane-surface $-1 -78.859828485976749 0 0 1 0 0 0 0 -1 forward_v I I I I #
coedge $-1 $602 $431 $433 $606 reversed $284 $-1 #
coedge $-1 $431 $601 $722 $723 reversed $284 $-1 #
coedge $-1 $439 $434 $431 $604 forward $429 $-1 #
edge $-1 $607 -24.27609820577338 $724 -13.337611243817292 $603 $725 forward 7 unknown #
coedge $-1 $433 $432 $610 $726 reversed $179 $-1 #
edge $-1 $727 -3.8356359867099031e-014 $607 14.719186211900388 $601 $728 forward 7 unknown #
vertex $-1 $435 $729 #
straight-curve $-1 -67.921341524020661 16.723996526206793 17.280820057656861 0 1 0 I I #
coedge $-1 $722 $436 $439 $614 reversed $599 $-1 #
coedge $-1 $436 $722 $605 $726 forward $599 $-1 #
vertex $-1 $437 $730 #
straight-curve $-1 -78.859828485976749 28.746964488476241 62.320153878029167 0 0 1 I I #
straight-curve $-1 -78.85982848597672 28.746964488476241 7.4317619441256113 -0.74314481823134659 0 -0.66913061440640931 I I #
edge $-1 $724 -38.149021616350936 $440 -28.746964488476241 $609 $731 forward 7 unknown #
point $-1 -78.859828485976749 28.746964488476241 17.280820057656864 #
point $-1 -67.921341524020661 28.746964488476241 17.280820057656864 #
edge $-1 $732 1 $732 0 $443 $-1 forward 7 unknown #
vertex $-1 $444 $733 #
ellipse-curve $-1 -71.386909759936856 31.433266525011867 10.130984246533467 -0.66913061440640931 0 0.74314481823134659 0.74314481823134659 0 0.66913061440640931 1 I I #
point $-1 -72.647440186767383 31.433266525011867 13.02542161529766 #
edge $-1 $734 1 $734 0 $447 $-1 forward 7 unknown #
vertex $-1 $448 $735 #
ellipse-curve $-1 -71.386909759936856 35.462719579815307 10.130984246533467 -0.66913061440640931 0 0.74314481823134659 0.74314481823134659 0 0.66913061440640931 1 I I #
point $-1 -72.647440186767383 35.462719579815307 13.02542161529766 #
loop $-1 $-1 $459 $451 #
plane-surface $-1 78.859828485976749 0 0 -1 0 0 0 0 1 forward_v I I I I #
coedge $-1 $628 $454 $456 $632 reversed $306 $-1 #
coedge $-1 $454 $627 $736 $737 reversed $306 $-1 #
coedge $-1 $462 $457 $454 $630 forward $452 $-1 #
edge $-1 $633 45.132762561235232 $738 58.795963574182629 $629 $739 forward 7 unknown #
coedge $-1 $456 $455 $636 $740 reversed $193 $-1 #
edge $-1 $741 -157.71965697195347 $633 -141.03996826881161 $627 $742 forward 7 unknown #
vertex $-1 $458 $743 #
straight-curve $-1 65.196627473029338 2.6389096497782205 17.280820057656875 0 -1 0 I I #
coedge $-1 $736 $459 $462 $640 reversed $625 $-1 #
coedge $-1 $459 $736 $631 $740 forward $625 $-1 #
vertex $-1 $460 $744 #
straight-curve $-1 78.859828485976749 10.763884818579569 113.68720104985381 0 0 1 I I #
straight-curve $-1 -50.336550130789121 10.763884818579569 98.17802348294174 0.81915203911291934 0 -0.57357644374324357 I I #
edge $-1 $738 -0.20824621946668742 $463 10.763884818579569 $635 $745 forward 7 unknown #
point $-1 78.859828485976749 10.763884818579569 17.280820057656864 #
point $-1 65.196627473029352 10.763884818579569 17.280820057656868 #
edge $-1 $746 1 $746 0 $466 $-1 forward 7 unknown #
vertex $-1 $467 $747 #
ellipse-curve $-1 69.183294420039957 5.277819299556441 8.4342956788862882 0.57357644374324357 0 0.81915203911291934 1.6383040782258387 0 -1.1471528874864871 1 I I #
point $-1 73.666532057728872 5.277819299556441 11.350128905624116 #
plane-surface $-1 78.859828485976749 0 0 -1 0 0 0 0 1 forward_v I I I I #
coedge $-1 $475 $473 $477 $652 reversed $321 $-1 #
edge $-1 $488 -17.280820057656864 $654 17.280820057656864 $487 $748 forward 7 unknown #
vertex $-1 $652 $749 #
straight-curve $-1 -78.859828485976749 -41.022417325637711 0 0 0 -1 I I #
edge $-1 $650 -41.022417325637711 $654 41.022417325637711 $648 $750 forward 7 unknown #
straight-curve $-1 0 -41.022417325637711 -17.280820057656864 -1 0 0 I I #
vertex $-1 $480 $751 #
straight-curve $-1 0 41.022417325637711 -17.280820057656864 1 0 0 I I #
point $-1 78.859828485976749 41.022417325637711 -17.280820057656864 #
point $-1 78.859828485976749 -41.022417325637711 -17.280820057656864 #
straight-curve $-1 -78.859828485976749 0 17.280820057656864 0 -1 0 I I #
point $-1 -78.859828485976749 41.022417325637711 17.280820057656864 #
point $-1 -78.859828485976749 -41.022417325637711 17.280820057656864 #
straight-curve $-1 78.859828485976749 -41.022417325637711 0 0 0 -1 I I #
straight-curve $-1 78.859828485976749 41.022417325637711 0 0 0 -1 I I #
plane-surface $-1 78.859828485976749 0 0 -1 0 0 0 0 1 forward_v I I I I #
coedge $-1 $667 $500 $511 $676 forward $340 $-1 #
coedge $-1 $500 $667 $514 $678 reversed $340 $-1 #
straight-curve $-1 78.859828485976749 -23.933375502355865 3.408142383960687 0 0 1 I I #
coedge $-1 $665 $664 $503 $668 forward $340 $-1 #
edge $-1 $671 7.6944272953574711 $669 24.783469118639317 $667 $752 forward 7 unknown #
vertex $-1 $505 $753 #
straight-curve $-1 0 -41.022417325637711 2.3930551190193121 1 0 0 I I #
vertex $-1 $668 $754 #
straight-curve $-1 0 -23.933375502355865 2.3930551190193121 1 0 0 I I #
point $-1 78.859828485976749 -41.022417325637711 2.3930551190193121 #
point $-1 78.859828485976749 -23.933375502355865 2.3930551190193121 #
straight-curve $-1 -78.859828485976749 -16.238948206998394 11.239514416823436 0 1 0 I I #
edge $-1 $512 -7.831372032862749 $671 1.0150872649413749 $664 $755 forward 7 unknown #
point $-1 -78.859828485976749 -23.933375502355865 11.239514416823436 #
edge $-1 $516 -11.239514416823436 $669 -2.3930551190193121 $665 $756 forward 7 unknown #
point $-1 -78.859828485976749 -41.022417325637711 11.239514416823436 #
straight-curve $-1 78.859828485976749 -41.022417325637711 0 0 0 -1 I I #
edge $-1 $682 45.039333820372306 $685 54.888391933903584 $522 $757 forward 7 unknown #
vertex $-1 $536 $758 #
straight-curve $-1 -92.197439729794041 -11.657922665194398 17.280820057656868 -1 0 0 I I #
edge $-1 $685 3.4784470506285263 $533 12.880504178503218 $532 $759 forward 7 unknown #
vertex $-1 $684 $760 #
straight-curve $-1 -78.85982848597672 -11.657922665194398 7.4317619441256113 0.74314481823134659 0 0.66913061440640931 I I #
point $-1 -67.921341524020661 -11.657922665194398 17.280820057656864 #
point $-1 -78.859828485976749 -21.05997979306909 7.4317619441255856 #
straight-curve $-1 -78.859828485976749 0 17.280820057656864 0 -1 0 I I #
vertex $-1 $539 $761 #
point $-1 -70.643764941705513 -18.373677756533464 10.800114860939876 #
vertex $-1 $543 $762 #
point $-1 -70.643764941705513 -14.344224701730024 10.800114860939876 #
coedge $-1 $558 $557 $550 $695 forward $547 $-1 #
edge $-1 $696 45.039333820372306 $699 54.888391933903584 $694 $763 forward 7 unknown #
vertex $-1 $562 $764 #
straight-curve $-1 -92.197439729794041 4.9443920953207119 17.280820057656868 -1 0 0 I I #
edge $-1 $699 -4.8227103296290288 $559 4.5793467982456626 $558 $765 forward 7 unknown #
vertex $-1 $698 $766 #
straight-curve $-1 -78.85982848597672 4.9443920953207119 7.4317619441256113 0.74314481823134659 0 0.66913061440640931 I I #
point $-1 -67.921341524020661 4.9443920953207119 17.280820057656864 #
point $-1 -78.859828485976749 -4.4576650325539795 7.4317619441255856 #
straight-curve $-1 -78.859828485976749 0 17.280820057656864 0 -1 0 I I #
vertex $-1 $565 $767 #
point $-1 -70.643764941705513 -1.7713629960183539 10.800114860939876 #
vertex $-1 $569 $768 #
point $-1 -70.643764941705513 2.2580900587850863 10.800114860939876 #
coedge $-1 $584 $583 $576 $709 forward $573 $-1 #
edge $-1 $710 45.039333820372306 $713 54.888391933903584 $708 $769 forward 7 unknown #
vertex $-1 $588 $770 #
straight-curve $-1 -92.197439729794041 21.546706855835819 17.280820057656868 -1 0 0 I I #
edge $-1 $713 -13.123867709886582 $585 -3.7218105820118907 $584 $771 forward 7 unknown #
vertex $-1 $712 $772 #
straight-curve $-1 -78.85982848597672 21.546706855835819 7.4317619441256113 0.74314481823134659 0 0.66913061440640931 I I #
point $-1 -67.921341524020661 21.546706855835819 17.280820057656864 #
point $-1 -78.859828485976749 12.144649727961127 7.4317619441255856 #
straight-curve $-1 -78.859828485976749 0 17.280820057656864 0 -1 0 I I #
vertex $-1 $591 $773 #
point $-1 -70.643764941705513 14.830951764496753 10.800114860939876 #
vertex $-1 $595 $774 #
point $-1 -70.643764941705513 18.860404819300193 10.800114860939876 #
coedge $-1 $610 $609 $602 $723 forward $599 $-1 #
edge $-1 $724 45.039333820372306 $727 54.888391933903584 $722 $775 forward 7 unknown #
vertex $-1 $614 $776 #
straight-curve $-1 -92.197439729794041 38.149021616350936 17.280820057656868 -1 0 0 I I #
edge $-1 $727 -21.425025090144143 $611 -12.022967962269448 $610 $777 forward 7 unknown #
vertex $-1 $726 $778 #
straight-curve $-1 -78.85982848597672 38.149021616350936 7.4317619441256113 0.74314481823134659 0 0.66913061440640931 I I #
point $-1 -67.921341524020661 38.149021616350936 17.280820057656864 #
point $-1 -78.859828485976749 28.746964488476241 7.4317619441255856 #
straight-curve $-1 -78.859828485976749 0 17.280820057656864 0 -1 0 I I #
vertex $-1 $617 $779 #
point $-1 -70.643764941705513 31.433266525011867 10.800114860939876 #
vertex $-1 $621 $780 #
point $-1 -70.643764941705513 35.462719579815307 10.800114860939876 #
coedge $-1 $636 $635 $628 $737 forward $625 $-1 #
edge $-1 $738 96.406380992196944 $741 105.97345752128942 $736 $781 forward 7 unknown #
vertex $-1 $640 $782 #
straight-curve $-1 20.06386491179412 -0.20824621946668742 17.280820057656868 1 0 0 I I #
edge $-1 $741 -2.8471558692449079 $637 8.124975168801349 $636 $783 forward 7 unknown #
vertex $-1 $740 $784 #
straight-curve $-1 -50.336550130789121 -0.20824621946668742 98.17802348294174 -0.81915203911291934 0 0.57357644374324357 I I #
point $-1 65.196627473029352 -0.20824621946668742 17.280820057656868 #
point $-1 78.859828485976735 10.763884818579569 7.7137435285643932 #
straight-curve $-1 78.859828485976749 0 17.280820057656864 0 1 0 I I #
vertex $-1 $643 $785 #
point $-1 70.821598498265786 5.277819299556441 7.2871427913998001 #
straight-curve $-1 -78.859828485976749 41.022417325637711 0 0 0 -1 I I #
point $-1 -78.859828485976749 -41.022417325637711 -17.280820057656864 #
straight-curve $-1 -78.859828485976749 0 -17.280820057656864 0 1 0 I I #
point $-1 -78.859828485976749 41.022417325637711 -17.280820057656864 #
straight-curve $-1 -78.859828485976749 -16.238948206998394 2.3930551190193121 0 -1 0 I I #
point $-1 -78.859828485976749 -41.022417325637711 2.3930551190193121 #
point $-1 -78.859828485976749 -23.933375502355865 2.3930551190193121 #
straight-curve $-1 -78.859828485976749 -23.933375502355865 3.408142383960687 0 0 -1 I I #
straight-curve $-1 -78.859828485976749 -41.022417325637711 0 0 0 -1 I I #
straight-curve $-1 -78.859828485976749 -11.657922665194398 62.320153878029167 0 0 -1 I I #
point $-1 -78.859828485976749 -11.657922665194398 17.280820057656864 #
straight-curve $-1 -78.859828485976749 -8.179475614565872 7.4317619441255918 0 -1 0 I I #
point $-1 -78.859828485976749 -11.657922665194398 7.4317619441255856 #
point $-1 -70.717779145530443 -18.373677756533464 9.3878394283021205 #
point $-1 -70.717779145530443 -14.344224701730024 9.3878394283021205 #
straight-curve $-1 -78.859828485976749 4.9443920953207119 62.320153878029167 0 0 -1 I I #
point $-1 -78.859828485976749 4.9443920953207119 17.280820057656864 #
straight-curve $-1 -78.859828485976749 0.1216817656916831 7.4317619441255918 0 -1 0 I I #
point $-1 -78.859828485976749 4.9443920953207119 7.4317619441255856 #
point $-1 -70.717779145530443 -1.7713629960183539 9.3878394283021205 #
point $-1 -70.717779145530443 2.2580900587850863 9.3878394283021205 #
straight-curve $-1 -78.859828485976749 21.546706855835819 62.320153878029167 0 0 -1 I I #
point $-1 -78.859828485976749 21.546706855835819 17.280820057656864 #
straight-curve $-1 -78.859828485976749 8.4228391459492364 7.4317619441255918 0 -1 0 I I #
point $-1 -78.859828485976749 21.546706855835819 7.4317619441255856 #
point $-1 -70.717779145530443 14.830951764496753 9.3878394283021205 #
point $-1 -70.717779145530443 18.860404819300193 9.3878394283021205 #
straight-curve $-1 -78.859828485976749 38.149021616350936 62.320153878029167 0 0 -1 I I #
point $-1 -78.859828485976749 38.149021616350936 17.280820057656864 #
straight-curve $-1 -78.859828485976749 16.723996526206793 7.4317619441255918 0 -1 0 I I #
point $-1 -78.859828485976749 38.149021616350936 7.4317619441255856 #
point $-1 -70.717779145530443 31.433266525011867 9.3878394283021205 #
point $-1 -70.717779145530443 35.462719579815307 9.3878394283021205 #
straight-curve $-1 78.859828485976749 -0.20824621946668742 113.68720104985381 0 0 -1 I I #
point $-1 78.859828485976749 -0.20824621946668742 17.280820057656864 #
straight-curve $-1 78.859828485976749 2.6389096497782205 7.7137435285643789 0 1 0 I I #
point $-1 78.859828485976735 -0.20824621946668742 7.7137435285643932 #
point $-1 68.036141532553458 5.277819299556441 6.7959916006604493 #
End-of-ACIS-data 