500 0 6 0           
7 Unknown 11 ACIS 5.0 NT 24 Fri Mar 26 03:27:12 1999 
-1 9.9999999999999995e-007 1e-010 
body $-1 $6 $-1 $7 #
body $-1 $8 $-1 $9 #
body $-1 $10 $-1 $11 #
body $-1 $12 $-1 $13 #
body $-1 $14 $-1 $15 #
body $-1 $16 $-1 $17 #
lump $-1 $-1 $18 $0 #
transform $-1 1 0 0 0 1 0 0 0 1 49.682912686544391 28.807810641704503 12.319741500324747 1 rotate no_reflect no_shear #
lump $-1 $-1 $19 $1 #
transform $-1 1 0 0 0 1 0 0 0 1 49.682912686544391 28.807810641704503 12.319741500324747 1 rotate no_reflect no_shear #
lump $-1 $-1 $20 $2 #
transform $-1 1 0 0 0 1 0 0 0 1 49.682912686544391 28.807810641704503 12.319741500324747 1 rotate no_reflect no_shear #
lump $-1 $-1 $21 $3 #
transform $-1 1 0 0 0 1 0 0 0 1 49.682912686544391 28.807810641704503 12.319741500324747 1 rotate no_reflect no_shear #
lump $-1 $-1 $22 $4 #
transform $-1 1 0 0 0 1 0 0 0 1 49.682912686544391 28.807810641704503 12.319741500324747 1 rotate no_reflect no_shear #
lump $-1 $-1 $23 $5 #
transform $-1 1 0 0 0 1 0 0 0 1 49.682912686544391 28.807810641704503 12.319741500324747 1 rotate no_reflect no_shear #
shell $-1 $-1 $-1 $24 $-1 $6 #
shell $-1 $-1 $-1 $25 $-1 $8 #
shell $-1 $-1 $-1 $26 $-1 $10 #
shell $-1 $-1 $-1 $27 $-1 $12 #
shell $-1 $-1 $-1 $28 $-1 $14 #
shell $-1 $-1 $-1 $29 $-1 $16 #
face $-1 $30 $31 $18 $-1 $32 reversed single #
face $-1 $33 $34 $19 $-1 $35 forward single #
face $-1 $36 $37 $20 $-1 $38 reversed single #
face $-1 $39 $40 $21 $-1 $41 forward single #
face $-1 $42 $43 $22 $-1 $44 reversed single #
face $-1 $45 $46 $23 $-1 $47 forward single #
face $-1 $48 $49 $18 $-1 $50 forward single #
loop $-1 $-1 $51 $24 #
plane-surface $-1 0 -28.807810641704503 0 0 1 0 0 0 1 forward_v I I I I #
face $-1 $52 $53 $19 $-1 $54 reversed single #
loop $-1 $-1 $55 $25 #
plane-surface $-1 0 -28.807810641704503 0 0 1 0 0 0 1 forward_v I I I I #
face $-1 $56 $57 $20 $-1 $58 reversed single #
loop $-1 $-1 $59 $26 #
plane-surface $-1 64.371724339009347 4.9929480469336962 148.10653430404105 0 -1 0 -0.77714596973225614 0 -0.62932038083071107 forward_v I I I I #
face $-1 $60 $61 $21 $-1 $62 forward single #
loop $-1 $63 $64 $27 #
cone-surface $-1 47.102295621549388 1.7061247347774788 9.5470250818812303 -0.77714596973225614 0 -0.62932038083071107 0.62932038083071107 0 -0.77714596973225614 1 I I 0 1 1 forward I I I I #
face $-1 $65 $66 $22 $-1 $67 reversed single #
loop $-1 $-1 $68 $28 #
plane-surface $-1 -126.9046634043595 -1.5806985773787385 70.884783586225922 0 1 0 -0.77714596973225614 0 0.62932038083071107 forward_v I I I I #
face $-1 $69 $70 $23 $-1 $71 forward single #
loop $-1 $72 $73 $29 #
cone-surface $-1 -47.102295621549388 1.7061247347774788 9.5470250818812232 0.77714596973225614 0 -0.62932038083071107 0.62932038083071107 0 0.77714596973225614 1 I I 0 1 1 forward I I I I #
face $-1 $74 $75 $18 $-1 $76 reversed single #
loop $-1 $-1 $77 $30 #
plane-surface $-1 0 0 12.319741500324747 0 0 1 1 0 0 forward_v I I I I #
coedge $-1 $78 $79 $80 $81 reversed $31 $-1 #
face $-1 $82 $83 $19 $-1 $84 reversed single #
loop $-1 $-1 $85 $33 #
plane-surface $-1 0 0 -12.319741500324747 0 0 1 1 0 0 forward_v I I I I #
coedge $-1 $86 $87 $88 $89 forward $34 $-1 #
face $-1 $90 $91 $20 $-1 $92 reversed single #
loop $-1 $-1 $93 $36 #
plane-surface $-1 -12.850026378805751 1.7061247347774788 85.573595238690885 0.77714596973225614 0 0.62932038083071107 0.62932038083071107 0 -0.77714596973225614 forward_v I I I I #
coedge $-1 $94 $95 $96 $97 reversed $37 $-1 #
face $-1 $-1 $98 $21 $-1 $99 forward single #
loop $-1 $100 $101 $39 #
cone-surface $-1 45.739675338153212 1.7061247347774788 8.4435969627468435 -0.77714596973225614 0 -0.62932038083071107 0.31466019041535553 0 -0.38857298486612807 1 I I -0.70710678118654746 0.70710678118654746 0.5 forward I I I I #
loop $-1 $-1 $102 $27 #
coedge $-1 $64 $64 $103 $104 reversed $40 $-1 #
face $-1 $105 $106 $22 $-1 $107 reversed single #
loop $-1 $-1 $108 $42 #
plane-surface $-1 -49.682912686544398 1.7061247347774788 8.3518445208757583 -0.77714596973225614 0 0.62932038083071107 0.62932038083071107 0 0.77714596973225614 forward_v I I I I #
coedge $-1 $109 $110 $111 $112 reversed $43 $-1 #
face $-1 $-1 $113 $23 $-1 $114 forward single #
loop $-1 $115 $116 $45 #
cone-surface $-1 -45.739675338153212 1.7061247347774788 8.4435969627468364 0.77714596973225614 0 -0.62932038083071107 0.31466019041535553 0 0.38857298486612807 1 I I -0.70710678118654746 0.70710678118654746 0.5 forward I I I I #
loop $-1 $-1 $117 $29 #
coedge $-1 $73 $73 $118 $119 reversed $46 $-1 #
face $-1 $120 $121 $18 $-1 $122 reversed single #
loop $-1 $-1 $123 $48 #
plane-surface $-1 0 0 -12.319741500324747 0 0 1 1 0 0 forward_v I I I I #
coedge $-1 $124 $125 $126 $127 forward $49 $-1 #
coedge $-1 $128 $51 $129 $130 reversed $31 $-1 #
coedge $-1 $51 $128 $131 $132 forward $31 $-1 #
coedge $-1 $133 $123 $51 $81 forward $75 $-1 #
edge $-1 $134 -49.682912686544391 $135 49.682912686544391 $51 $136 forward 7 unknown #
face $-1 $137 $138 $19 $-1 $139 reversed single #
loop $-1 $-1 $140 $52 #
plane-surface $-1 -44.471437895942557 -42.472515846054385 0 0 1 0 0 0 1 forward_v I I I I #
coedge $-1 $141 $142 $87 $143 forward $53 $-1 #
coedge $-1 $144 $55 $145 $146 reversed $34 $-1 #
coedge $-1 $55 $144 $85 $143 reversed $34 $-1 #
coedge $-1 $147 $148 $55 $89 reversed $138 $-1 #
edge $-1 $149 -12.319741500324747 $150 12.319741500324747 $88 $151 forward 7 unknown #
face $-1 $152 $153 $20 $-1 $154 forward single #
loop $-1 $-1 $155 $56 #
plane-surface $-1 64.371724339009347 -1.5806985773787385 148.10653430404105 0 1 0 0.77714596973225614 0 0.62932038083071107 forward_v I I I I #
coedge $-1 $156 $157 $158 $159 reversed $57 $-1 #
coedge $-1 $95 $59 $160 $161 reversed $37 $-1 #
coedge $-1 $59 $94 $156 $162 reversed $37 $-1 #
coedge $-1 $158 $163 $59 $97 forward $153 $-1 #
edge $-1 $164 -17.497050517039717 $165 -14.283910984109845 $96 $166 forward 7 unknown #
loop $-1 $-1 $103 $60 #
plane-surface $-1 -12.850026378805751 1.7061247347774788 85.573595238690885 0.77714596973225614 0 0.62932038083071107 0.62932038083071107 0 -0.77714596973225614 forward_v I I I I #
loop $-1 $-1 $167 $39 #
coedge $-1 $101 $101 $102 $168 reversed $61 $-1 #
coedge $-1 $102 $102 $101 $168 forward $63 $-1 #
coedge $-1 $103 $103 $64 $104 forward $98 $-1 #
edge $-1 $169 0 $169 6.2831853071796004 $103 $170 forward 7 unknown #
face $-1 $171 $172 $22 $-1 $173 reversed single #
loop $-1 $-1 $174 $65 #
plane-surface $-1 -126.9046634043595 4.9929480469336962 70.884783586225922 0 -1 0 0.77714596973225614 0 -0.62932038083071107 forward_v I I I I #
coedge $-1 $175 $176 $177 $178 reversed $66 $-1 #
coedge $-1 $110 $68 $179 $180 reversed $43 $-1 #
coedge $-1 $68 $109 $175 $181 reversed $43 $-1 #
coedge $-1 $177 $182 $68 $112 forward $183 $-1 #
edge $-1 $184 13.769419015635357 $185 16.982558548565265 $111 $186 forward 7 unknown #
loop $-1 $-1 $118 $69 #
plane-surface $-1 -49.682912686544398 1.7061247347774788 8.3518445208757583 -0.77714596973225614 0 0.62932038083071107 0.62932038083071107 0 0.77714596973225614 forward_v I I I I #
loop $-1 $-1 $187 $45 #
coedge $-1 $116 $116 $117 $188 reversed $70 $-1 #
coedge $-1 $117 $117 $116 $188 forward $72 $-1 #
coedge $-1 $118 $118 $73 $119 forward $113 $-1 #
edge $-1 $189 0 $189 6.2831853071796004 $118 $190 forward 7 unknown #
face $-1 $191 $192 $18 $-1 $193 reversed single #
loop $-1 $-1 $194 $74 #
plane-surface $-1 -49.682912686544391 0 0 1 0 0 0 0 -1 forward_v I I I I #
coedge $-1 $80 $195 $196 $197 forward $75 $-1 #
coedge $-1 $198 $77 $199 $200 forward $49 $-1 #
coedge $-1 $77 $198 $128 $201 forward $49 $-1 #
coedge $-1 $129 $202 $77 $127 reversed $203 $-1 #
edge $-1 $204 -28.807810641704503 $205 28.807810641704503 $126 $206 forward 7 unknown #
coedge $-1 $79 $78 $125 $201 reversed $31 $-1 #
coedge $-1 $196 $126 $78 $130 forward $203 $-1 #
edge $-1 $204 -12.319741500324747 $134 12.319741500324747 $129 $207 forward 7 unknown #
coedge $-1 $208 $209 $79 $132 reversed $121 $-1 #
edge $-1 $210 -12.319741500324747 $135 12.319741500324747 $131 $211 forward 7 unknown #
coedge $-1 $195 $80 $209 $212 forward $75 $-1 #
vertex $-1 $130 $213 #
vertex $-1 $212 $214 #
straight-curve $-1 0 -28.807810641704503 -12.319741500324747 -1 0 0 I I #
face $-1 $215 $216 $19 $-1 $217 reversed single #
loop $-1 $-1 $88 $82 #
plane-surface $-1 -45.971437895942557 -35.640163243879442 0 1 0 0 0 0 -1 forward_v I I I I #
coedge $-1 $218 $219 $220 $221 forward $83 $-1 #
coedge $-1 $222 $85 $223 $224 forward $53 $-1 #
coedge $-1 $85 $222 $147 $225 forward $53 $-1 #
edge $-1 $149 -45.971437895942557 $226 -42.971437895942557 $85 $227 forward 7 unknown #
coedge $-1 $87 $86 $228 $229 forward $34 $-1 #
coedge $-1 $230 $231 $86 $146 forward $232 $-1 #
edge $-1 $233 42.971437895942557 $150 45.971437895942557 $145 $234 forward 7 unknown #
coedge $-1 $220 $88 $142 $225 reversed $138 $-1 #
coedge $-1 $88 $220 $230 $235 reversed $138 $-1 #
vertex $-1 $143 $236 #
vertex $-1 $235 $237 #
straight-curve $-1 -45.971437895942557 -28.807810641704503 0 0 0 1 I I #
face $-1 $-1 $238 $20 $-1 $239 reversed single #
loop $-1 $-1 $96 $90 #
plane-surface $-1 0 0 12.319741500324747 0 0 1 1 0 0 forward_v I I I I #
coedge $-1 $240 $241 $242 $243 reversed $91 $-1 #
coedge $-1 $244 $93 $95 $162 forward $57 $-1 #
coedge $-1 $93 $244 $240 $245 forward $57 $-1 #
coedge $-1 $242 $96 $93 $159 forward $153 $-1 #
edge $-1 $165 -4.1398856795449568 $246 2.433760944767478 $158 $247 forward 7 unknown #
coedge $-1 $248 $249 $94 $161 forward $238 $-1 #
edge $-1 $250 -65.701422631144709 $164 -61.733525651695778 $160 $251 forward 7 unknown #
edge $-1 $165 94.260096032671569 $250 99.36582537308874 $95 $252 forward 7 unknown #
coedge $-1 $96 $242 $248 $253 forward $153 $-1 #
vertex $-1 $97 $254 #
vertex $-1 $97 $255 #
straight-curve $-1 32.185862169504674 4.9929480469336962 12.319741500324753 -1 0 0 I I #
coedge $-1 $167 $167 $-1 $256 reversed $100 $-1 #
edge $-1 $257 0 $257 6.2831853071796004 $101 $258 forward 7 unknown #
vertex $-1 $104 $259 #
ellipse-curve $-1 48.076342920079448 1.7061247347774788 10.335793010600273 0.77714596973225614 0 0.62932038083071107 0.62932038083071107 0 -0.77714596973225614 1 I I #
face $-1 $-1 $183 $22 $-1 $260 forward single #
loop $-1 $-1 $261 $105 #
plane-surface $-1 -49.682912686544391 0 0 1 0 0 0 0 -1 forward_v I I I I #
coedge $-1 $262 $263 $264 $265 reversed $106 $-1 #
coedge $-1 $266 $108 $110 $181 forward $66 $-1 #
coedge $-1 $108 $266 $262 $267 forward $66 $-1 #
coedge $-1 $264 $111 $108 $178 forward $183 $-1 #
edge $-1 $185 -2.433760944767478 $268 4.1398856795449568 $177 $269 forward 7 unknown #
coedge $-1 $270 $271 $109 $180 forward $172 $-1 #
edge $-1 $272 -27.090547272237195 $184 -23.122650292788215 $179 $273 forward 7 unknown #
edge $-1 $185 -5.1057293404172412 $272 -1.1374033043381581e-014 $110 $274 forward 7 unknown #
coedge $-1 $111 $264 $270 $275 forward $183 $-1 #
loop $-1 $-1 $264 $171 #
vertex $-1 $180 $276 #
vertex $-1 $112 $277 #
straight-curve $-1 -63.452331702179748 -1.5806985773787385 12.319741500324746 1 0 0 I I #
coedge $-1 $187 $187 $-1 $278 reversed $115 $-1 #
edge $-1 $279 0 $279 6.2831853071796004 $116 $280 forward 7 unknown #
vertex $-1 $119 $281 #
ellipse-curve $-1 -48.076342920079441 1.7061247347774788 10.335793010600257 -0.77714596973225614 0 0.62932038083071107 0.62932038083071107 0 0.77714596973225614 1 I I #
face $-1 $-1 $203 $18 $-1 $282 reversed single #
loop $-1 $-1 $283 $120 #
plane-surface $-1 0 28.807810641704503 0 0 -1 0 0 0 -1 forward_v I I I I #
coedge $-1 $209 $208 $284 $285 forward $121 $-1 #
coedge $-1 $123 $133 $286 $287 forward $75 $-1 #
coedge $-1 $202 $129 $123 $197 reversed $203 $-1 #
edge $-1 $288 -28.807810641704503 $134 28.807810641704503 $196 $289 forward 7 unknown #
coedge $-1 $125 $124 $208 $290 forward $49 $-1 #
coedge $-1 $283 $284 $124 $200 reversed $192 $-1 #
edge $-1 $205 -49.682912686544391 $291 49.682912686544391 $199 $292 forward 7 unknown #
edge $-1 $210 -49.682912686544391 $204 49.682912686544391 $128 $293 forward 7 unknown #
coedge $-1 $126 $196 $283 $294 reversed $203 $-1 #
loop $-1 $-1 $129 $191 #
vertex $-1 $127 $295 #
vertex $-1 $127 $296 #
straight-curve $-1 49.682912686544391 0 12.319741500324747 0 1 0 I I #
straight-curve $-1 49.682912686544391 -28.807810641704503 0 0 0 -1 I I #
coedge $-1 $194 $131 $198 $290 reversed $121 $-1 #
coedge $-1 $131 $194 $133 $212 reversed $121 $-1 #
vertex $-1 $290 $297 #
straight-curve $-1 -49.682912686544391 -28.807810641704503 0 0 0 -1 I I #
edge $-1 $135 -28.807810641704503 $298 28.807810641704503 $209 $299 forward 7 unknown #
point $-1 49.682912686544391 -28.807810641704503 -12.319741500324747 #
point $-1 -49.682912686544391 -28.807810641704503 -12.319741500324747 #
face $-1 $-1 $232 $19 $-1 $300 forward single #
loop $-1 $-1 $301 $137 #
plane-surface $-1 -42.971437895942557 -35.640163243879442 0 -1 0 0 0 0 1 forward_v I I I I #
coedge $-1 $302 $140 $222 $303 reversed $83 $-1 #
coedge $-1 $140 $302 $304 $305 reversed $83 $-1 #
coedge $-1 $148 $147 $140 $221 reversed $138 $-1 #
edge $-1 $306 -12.319741500324747 $307 12.319741500324747 $220 $308 forward 7 unknown #
coedge $-1 $142 $141 $218 $303 forward $53 $-1 #
coedge $-1 $228 $301 $141 $224 reversed $216 $-1 #
edge $-1 $226 -6.832352602174943 $309 6.832352602174943 $223 $310 forward 7 unknown #
edge $-1 $307 -6.832352602174943 $149 6.832352602174943 $147 $311 forward 7 unknown #
vertex $-1 $224 $312 #
straight-curve $-1 0 -28.807810641704503 -12.319741500324747 1 0 0 I I #
coedge $-1 $313 $223 $144 $229 reversed $216 $-1 #
edge $-1 $233 -12.319741500324747 $226 12.319741500324747 $228 $314 forward 7 unknown #
coedge $-1 $304 $145 $148 $235 forward $232 $-1 #
coedge $-1 $145 $304 $313 $315 forward $232 $-1 #
loop $-1 $-1 $145 $215 #
vertex $-1 $146 $316 #
straight-curve $-1 0 -28.807810641704503 12.319741500324747 -1 0 0 I I #
edge $-1 $150 -6.832352602174943 $306 6.832352602174943 $148 $317 forward 7 unknown #
point $-1 -45.971437895942557 -28.807810641704499 -12.319741500324747 #
point $-1 -45.971437895942557 -28.807810641704499 12.319741500324747 #
loop $-1 $-1 $160 $152 #
plane-surface $-1 49.682912686544391 0 0 -1 0 0 0 0 1 forward_v I I I I #
coedge $-1 $241 $155 $157 $245 reversed $91 $-1 #
coedge $-1 $155 $240 $318 $319 reversed $91 $-1 #
coedge $-1 $163 $158 $155 $243 forward $153 $-1 #
edge $-1 $246 14.283910984109845 $320 17.497050517039717 $242 $321 forward 7 unknown #
coedge $-1 $157 $156 $249 $322 reversed $57 $-1 #
edge $-1 $323 -99.36582537308874 $246 -94.260096032671569 $240 $324 forward 7 unknown #
vertex $-1 $159 $325 #
straight-curve $-1 46.469773153614526 0.85306236738873942 12.319741500324746 0 -1 0 I I #
coedge $-1 $318 $160 $163 $253 reversed $238 $-1 #
coedge $-1 $160 $318 $244 $322 forward $238 $-1 #
vertex $-1 $161 $326 #
straight-curve $-1 49.682912686544391 4.9929480469336962 74.053267152020524 0 0 1 I I #
straight-curve $-1 -12.850026378805751 4.9929480469336962 85.573595238690885 0.62932038083071107 0 -0.77714596973225614 I I #
edge $-1 $320 -1.5806985773787385 $164 4.9929480469336962 $248 $327 forward 7 unknown #
point $-1 49.682912686544391 4.9929480469336962 12.319741500324747 #
point $-1 46.469773153614518 4.9929480469336962 12.319741500324753 #
edge $-1 $328 1 $328 0 $167 $-1 forward 7 unknown #
vertex $-1 $168 $329 #
ellipse-curve $-1 46.128248323019342 1.7061247347774788 8.7582571531621998 0.77714596973225614 0 0.62932038083071107 0.62932038083071107 0 -0.77714596973225614 1 I I #
point $-1 48.705663300910146 1.7061247347774788 9.5586470408680029 #
plane-surface $-1 0 0 12.319741500324747 0 0 1 1 0 0 forward_v I I I I #
coedge $-1 $271 $270 $263 $330 forward $172 $-1 #
coedge $-1 $263 $174 $176 $267 reversed $106 $-1 #
coedge $-1 $174 $262 $261 $330 reversed $106 $-1 #
coedge $-1 $182 $177 $174 $265 forward $183 $-1 #
edge $-1 $268 -16.982558548565265 $331 -13.769419015635357 $264 $332 forward 7 unknown #
coedge $-1 $176 $175 $271 $333 reversed $66 $-1 #
edge $-1 $334 1.1374033043381581e-014 $268 5.1057293404172412 $262 $335 forward 7 unknown #
vertex $-1 $178 $336 #
straight-curve $-1 -46.469773153614483 0.85306236738873942 12.319741500324747 0 1 0 I I #
coedge $-1 $261 $179 $182 $275 reversed $172 $-1 #
coedge $-1 $179 $261 $266 $333 forward $172 $-1 #
vertex $-1 $180 $337 #
straight-curve $-1 -49.682912686544391 -1.5806985773787385 35.442391793112961 0 0 1 I I #
straight-curve $-1 -49.682912686544398 -1.5806985773787385 8.3518445208757583 -0.62932038083071107 0 -0.77714596973225614 I I #
edge $-1 $331 -4.9929480469336962 $184 1.5806985773787385 $270 $338 forward 7 unknown #
point $-1 -49.682912686544391 -1.5806985773787385 12.319741500324747 #
point $-1 -46.469773153614483 -1.5806985773787385 12.319741500324747 #
edge $-1 $339 1 $339 0 $187 $-1 forward 7 unknown #
vertex $-1 $188 $340 #
ellipse-curve $-1 -46.128248323019342 1.7061247347774788 8.7582571531621927 -0.77714596973225614 0 0.62932038083071107 0.62932038083071107 0 0.77714596973225614 1 I I #
point $-1 -47.447022539248721 1.7061247347774788 11.112938980332508 #
plane-surface $-1 49.682912686544391 0 0 -1 0 0 0 0 1 forward_v I I I I #
coedge $-1 $286 $199 $202 $294 forward $192 $-1 #
coedge $-1 $199 $286 $194 $285 reversed $192 $-1 #
edge $-1 $291 -12.319741500324747 $298 12.319741500324747 $284 $341 forward 7 unknown #
coedge $-1 $284 $283 $195 $287 reversed $192 $-1 #
edge $-1 $298 -49.682912686544391 $288 49.682912686544391 $286 $342 forward 7 unknown #
vertex $-1 $197 $343 #
straight-curve $-1 49.682912686544391 0 -12.319741500324747 0 -1 0 I I #
edge $-1 $291 -28.807810641704503 $210 28.807810641704503 $208 $344 forward 7 unknown #
vertex $-1 $200 $345 #
straight-curve $-1 0 28.807810641704503 12.319741500324747 -1 0 0 I I #
straight-curve $-1 0 -28.807810641704503 12.319741500324747 1 0 0 I I #
edge $-1 $205 -12.319741500324747 $288 12.319741500324747 $202 $346 forward 7 unknown #
point $-1 49.682912686544391 -28.807810641704503 12.319741500324747 #
point $-1 49.682912686544391 28.807810641704503 12.319741500324747 #
point $-1 -49.682912686544391 -28.807810641704503 12.319741500324747 #
vertex $-1 $287 $347 #
straight-curve $-1 -49.682912686544391 0 -12.319741500324747 0 1 0 I I #
plane-surface $-1 0 0 12.319741500324747 0 0 1 1 0 0 forward_v I I I I #
coedge $-1 $223 $313 $302 $348 forward $216 $-1 #
coedge $-1 $219 $218 $301 $348 reversed $83 $-1 #
edge $-1 $309 -1.5 $307 1.5 $218 $349 forward 7 unknown #
coedge $-1 $231 $230 $219 $305 forward $232 $-1 #
edge $-1 $306 -1.5 $350 1.5 $219 $351 forward 7 unknown #
vertex $-1 $235 $352 #
vertex $-1 $225 $353 #
straight-curve $-1 -45.971437895942557 -42.472515846054385 0 0 0 -1 I I #
vertex $-1 $348 $354 #
straight-curve $-1 -42.971437895942557 -35.640163243879442 -12.319741500324747 0 -1 0 I I #
straight-curve $-1 -45.971437895942557 -35.640163243879442 -12.319741500324747 0 1 0 I I #
point $-1 -42.971437895942557 -28.807810641704499 -12.319741500324747 #
coedge $-1 $301 $228 $231 $315 reversed $216 $-1 #
straight-curve $-1 -42.971437895942557 -28.807810641704503 0 0 0 -1 I I #
edge $-1 $350 -6.832352602174943 $233 6.832352602174943 $313 $355 forward 7 unknown #
point $-1 -42.971437895942557 -28.807810641704499 12.319741500324747 #
straight-curve $-1 -45.971437895942557 -35.640163243879442 12.319741500324747 0 -1 0 I I #
coedge $-1 $249 $248 $241 $319 forward $238 $-1 #
edge $-1 $320 61.733525651695778 $323 65.701422631144709 $318 $356 forward 7 unknown #
vertex $-1 $253 $357 #
straight-curve $-1 32.185862169504674 -1.5806985773787385 12.319741500324753 1 0 0 I I #
edge $-1 $323 -2.433760944767478 $250 4.1398856795449568 $249 $358 forward 7 unknown #
vertex $-1 $322 $359 #
straight-curve $-1 -12.850026378805751 -1.5806985773787385 85.573595238690885 -0.62932038083071107 0 0.77714596973225614 I I #
point $-1 46.469773153614518 -1.5806985773787385 12.319741500324753 #
point $-1 49.682912686544384 4.9929480469336962 8.3518445208758152 #
straight-curve $-1 49.682912686544391 0 12.319741500324747 0 1 0 I I #
vertex $-1 $256 $360 #
point $-1 46.757568703850055 1.7061247347774788 7.9811111834299426 #
edge $-1 $331 23.122650292788215 $334 27.090547272237195 $261 $361 forward 7 unknown #
vertex $-1 $275 $362 #
straight-curve $-1 -63.452331702179748 4.9929480469336962 12.319741500324746 -1 0 0 I I #
edge $-1 $334 -4.1398856795449568 $272 2.433760944767478 $271 $363 forward 7 unknown #
vertex $-1 $333 $364 #
straight-curve $-1 -49.682912686544398 4.9929480469336962 8.3518445208757583 0.62932038083071107 0 0.77714596973225614 I I #
point $-1 -46.469773153614483 4.9929480469336962 12.319741500324747 #
point $-1 -49.682912686544391 -1.5806985773787385 8.3518445208757672 #
straight-curve $-1 -49.682912686544391 0 12.319741500324747 0 -1 0 I I #
vertex $-1 $278 $365 #
point $-1 -45.498927942188629 1.7061247347774788 9.5354031228944471 #
straight-curve $-1 -49.682912686544391 28.807810641704503 0 0 0 -1 I I #
straight-curve $-1 0 28.807810641704503 -12.319741500324747 1 0 0 I I #
point $-1 49.682912686544391 28.807810641704503 -12.319741500324747 #
straight-curve $-1 -49.682912686544391 0 12.319741500324747 0 -1 0 I I #
point $-1 -49.682912686544391 28.807810641704503 12.319741500324747 #
straight-curve $-1 49.682912686544391 28.807810641704503 0 0 0 -1 I I #
point $-1 -49.682912686544391 28.807810641704503 -12.319741500324747 #
edge $-1 $350 -12.319741500324747 $309 12.319741500324747 $301 $366 forward 7 unknown #
straight-curve $-1 -44.471437895942557 -42.472515846054385 -12.319741500324747 -1 0 0 I I #
vertex $-1 $315 $367 #
straight-curve $-1 -44.471437895942557 -42.472515846054385 12.319741500324747 1 0 0 I I #
point $-1 -45.971437895942557 -42.472515846054385 12.319741500324747 #
point $-1 -45.971437895942557 -42.472515846054385 -12.319741500324747 #
point $-1 -42.971437895942557 -42.472515846054385 -12.319741500324747 #
straight-curve $-1 -42.971437895942557 -35.640163243879442 12.319741500324747 0 1 0 I I #
straight-curve $-1 49.682912686544391 -1.5806985773787385 74.053267152020524 0 0 -1 I I #
point $-1 49.682912686544391 -1.5806985773787385 12.319741500324747 #
straight-curve $-1 49.682912686544391 0.85306236738873942 8.3518445208758152 0 1 0 I I #
point $-1 49.682912686544384 -1.5806985773787385 8.3518445208758152 #
point $-1 45.351102353287082 1.7061247347774788 8.1289367723314871 #
straight-curve $-1 -49.682912686544391 4.9929480469336962 35.442391793112961 0 0 -1 I I #
point $-1 -49.682912686544391 4.9929480469336962 12.319741500324747 #
straight-curve $-1 -49.682912686544391 0.85306236738873942 8.3518445208757761 0 -1 0 I I #
point $-1 -49.682912686544391 4.9929480469336962 8.3518445208757672 #
point $-1 -45.351102353287082 1.7061247347774788 8.12893677233148 #
straight-curve $-1 -42.971437895942557 -42.472515846054385 0 0 0 -1 I I #
point $-1 -42.971437895942557 -42.472515846054385 12.319741500324747 #
End-of-ACIS-data 