500 0 5 0           
7 Unknown 11 ACIS 5.0 NT 24 Thu Mar 25 16:53:54 1999 
-1 9.9999999999999995e-007 1e-010 
body $-1 $5 $-1 $6 #
body $-1 $7 $-1 $8 #
body $-1 $9 $-1 $10 #
body $-1 $11 $-1 $12 #
body $-1 $13 $-1 $14 #
lump $-1 $-1 $15 $0 #
transform $-1 1 0 0 0 1 0 0 0 1 79.898678548539692 45.393041775555126 15.223230590758925 1 rotate no_reflect no_shear #
lump $-1 $-1 $16 $1 #
transform $-1 1 0 0 0 1 0 0 0 1 79.898678548539692 45.393041775555126 15.223230590758925 1 rotate no_reflect no_shear #
lump $-1 $-1 $17 $2 #
transform $-1 1 0 0 0 1 0 0 0 1 79.898678548539692 45.393041775555126 15.223230590758925 1 rotate no_reflect no_shear #
lump $-1 $-1 $18 $3 #
transform $-1 1 0 0 0 1 0 0 0 1 79.898678548539692 45.393041775555126 15.223230590758925 1 rotate no_reflect no_shear #
lump $-1 $-1 $19 $4 #
transform $-1 1 0 0 0 1 0 0 0 1 79.898678548539692 45.393041775555126 15.223230590758925 1 rotate no_reflect no_shear #
shell $-1 $-1 $-1 $20 $-1 $5 #
shell $-1 $-1 $-1 $21 $-1 $7 #
shell $-1 $-1 $-1 $22 $-1 $9 #
shell $-1 $-1 $-1 $23 $-1 $11 #
shell $-1 $-1 $-1 $24 $-1 $13 #
face $-1 $25 $26 $15 $-1 $27 forward single #
face $-1 $28 $29 $16 $-1 $30 forward single #
face $-1 $31 $32 $17 $-1 $33 reversed single #
face $-1 $34 $35 $18 $-1 $36 forward single #
face $-1 $37 $38 $19 $-1 $39 forward single #
face $-1 $40 $41 $15 $-1 $42 reversed single #
loop $-1 $-1 $43 $20 #
plane-surface $-1 0 0 15.223230590758925 0 0 1 1 0 0 forward_v I I I I #
face $-1 $44 $45 $16 $-1 $46 reversed single #
loop $-1 $-1 $47 $21 #
plane-surface $-1 -79.898678548539692 0 0 1 0 0 0 0 -1 forward_v I I I I #
face $-1 $48 $49 $17 $-1 $50 reversed single #
loop $-1 $-1 $51 $22 #
plane-surface $-1 -33.741773814034786 -171.31507888502085 100.63905445017733 -1 0 0 0 -0.78801076186113728 0.61566146476048833 forward_v I I I I #
face $-1 $52 $53 $18 $-1 $54 forward single #
loop $-1 $55 $56 $23 #
cone-surface $-1 -50.82264220699728 -38.926141945666856 7.6451505875443644 0 0.78801076186113728 -0.61566146476048833 1.5 0 0 1 I I 0 1 1.5 forward I I I I #
face $-1 $57 $58 $19 $-1 $59 forward single #
loop $-1 $60 $61 $24 #
cone-surface $-1 -40.574121171219787 -38.926141945666856 7.6451505875443644 0 0.78801076186113728 -0.61566146476048833 1.5 0 0 1 I I 0 1 1.5 forward I I I I #
face $-1 $62 $63 $15 $-1 $64 reversed single #
loop $-1 $-1 $65 $25 #
plane-surface $-1 0 0 -15.223230590758925 0 0 1 1 0 0 forward_v I I I I #
coedge $-1 $66 $67 $68 $69 forward $26 $-1 #
face $-1 $70 $71 $16 $-1 $72 forward single #
loop $-1 $-1 $73 $28 #
plane-surface $-1 0 45.393041775555126 0 0 -1 0 0 0 -1 forward_v I I I I #
coedge $-1 $74 $75 $76 $77 forward $29 $-1 #
face $-1 $78 $79 $17 $-1 $80 reversed single #
loop $-1 $-1 $81 $31 #
plane-surface $-1 -45.69838168910853 -45.393041775555119 2.2579795149346182 0 -0.78801076186113728 0.61566146476048833 1 0 0 forward_v I I I I #
coedge $-1 $82 $83 $84 $85 reversed $32 $-1 #
face $-1 $-1 $86 $18 $-1 $87 forward single #
loop $-1 $88 $89 $34 #
cone-surface $-1 -50.82264220699728 -36.933016059210132 6.0879500236715725 0 0.78801076186113728 -0.61566146476048833 0.75 0 0 1 I I -0.70710678118654757 0.70710678118654757 0.75 forward I I I I #
loop $-1 $-1 $90 $23 #
coedge $-1 $56 $56 $91 $92 reversed $35 $-1 #
face $-1 $-1 $93 $19 $-1 $94 forward single #
loop $-1 $95 $96 $37 #
cone-surface $-1 -40.574121171219787 -36.933016059210132 6.0879500236715725 0 0.78801076186113728 -0.61566146476048833 0.75 0 0 1 I I -0.70710678118654757 0.70710678118654757 0.75 forward I I I I #
loop $-1 $-1 $97 $24 #
coedge $-1 $61 $61 $98 $99 reversed $38 $-1 #
face $-1 $100 $101 $15 $-1 $102 reversed single #
loop $-1 $-1 $103 $40 #
plane-surface $-1 0 -45.393041775555126 0 0 1 0 0 0 1 forward_v I I I I #
coedge $-1 $104 $105 $106 $107 forward $41 $-1 #
coedge $-1 $108 $43 $109 $110 forward $26 $-1 #
coedge $-1 $43 $108 $111 $112 forward $26 $-1 #
coedge $-1 $113 $114 $43 $69 reversed $115 $-1 #
edge $-1 $116 -45.393041775555126 $117 45.393041775555126 $68 $118 forward 7 unknown #
face $-1 $119 $120 $16 $-1 $121 reversed single #
loop $-1 $-1 $76 $44 #
plane-surface $-1 -85.507547240139999 0 10.416856221959751 0 0 1 1 0 0 forward_v I I I I #
coedge $-1 $122 $123 $75 $124 forward $45 $-1 #
coedge $-1 $125 $47 $126 $127 reversed $29 $-1 #
coedge $-1 $47 $125 $73 $124 reversed $29 $-1 #
coedge $-1 $128 $129 $47 $77 reversed $71 $-1 #
edge $-1 $130 -45.393041775555126 $131 45.393041775555126 $76 $132 forward 7 unknown #
face $-1 $133 $134 $17 $-1 $135 reversed single #
loop $-1 $-1 $136 $48 #
plane-surface $-1 -57.654989564182273 -171.31507888502085 100.63905445017733 1 0 0 0 0.78801076186113728 -0.61566146476048833 forward_v I I I I #
coedge $-1 $137 $138 $139 $140 reversed $49 $-1 #
coedge $-1 $83 $51 $141 $142 reversed $32 $-1 #
coedge $-1 $51 $82 $137 $143 reversed $32 $-1 #
coedge $-1 $139 $144 $51 $85 forward $145 $-1 #
edge $-1 $146 40.2644976669553 $147 50.394061696610159 $84 $148 forward 7 unknown #
loop $-1 $-1 $91 $52 #
plane-surface $-1 -45.69838168910853 -45.393041775555119 2.2579795149346182 0 -0.78801076186113728 0.61566146476048833 1 0 0 forward_v I I I I #
loop $-1 $-1 $149 $34 #
coedge $-1 $89 $89 $90 $150 reversed $53 $-1 #
coedge $-1 $90 $90 $89 $150 forward $55 $-1 #
coedge $-1 $91 $91 $56 $92 forward $86 $-1 #
edge $-1 $151 1.5160386171291523e-015 $151 6.2831853071796022 $91 $152 forward 7 unknown #
loop $-1 $-1 $98 $57 #
plane-surface $-1 -45.69838168910853 -45.393041775555119 2.2579795149346182 0 -0.78801076186113728 0.61566146476048833 1 0 0 forward_v I I I I #
loop $-1 $-1 $153 $37 #
coedge $-1 $96 $96 $97 $154 reversed $58 $-1 #
coedge $-1 $97 $97 $96 $154 forward $60 $-1 #
coedge $-1 $98 $98 $61 $99 forward $93 $-1 #
edge $-1 $155 1.5160386171291523e-015 $155 6.2831853071796022 $98 $156 forward 7 unknown #
face $-1 $157 $158 $15 $-1 $159 reversed single #
loop $-1 $-1 $160 $62 #
plane-surface $-1 -79.898678548539692 0 0 1 0 0 0 0 -1 forward_v I I I I #
coedge $-1 $161 $111 $160 $162 forward $63 $-1 #
coedge $-1 $163 $65 $161 $164 forward $41 $-1 #
coedge $-1 $65 $163 $165 $166 forward $41 $-1 #
coedge $-1 $114 $113 $65 $107 reversed $115 $-1 #
edge $-1 $167 -45.393041775555126 $168 45.393041775555126 $106 $169 forward 7 unknown #
coedge $-1 $67 $66 $170 $171 forward $26 $-1 #
coedge $-1 $172 $173 $66 $110 reversed $158 $-1 #
edge $-1 $117 -79.898678548539692 $174 79.898678548539692 $109 $175 forward 7 unknown #
coedge $-1 $103 $176 $67 $112 reversed $63 $-1 #
edge $-1 $177 -79.898678548539692 $116 79.898678548539692 $111 $178 forward 7 unknown #
coedge $-1 $106 $68 $176 $179 forward $115 $-1 #
coedge $-1 $68 $106 $172 $180 reversed $115 $-1 #
loop $-1 $-1 $113 $157 #
vertex $-1 $69 $181 #
vertex $-1 $69 $182 #
straight-curve $-1 79.898678548539692 0 15.223230590758925 0 1 0 I I #
face $-1 $183 $184 $16 $-1 $185 reversed single #
loop $-1 $-1 $186 $70 #
plane-surface $-1 -85.507547240139999 0 3.3161508872314798 0 0 1 1 0 0 forward_v I I I I #
coedge $-1 $187 $73 $188 $189 reversed $45 $-1 #
coedge $-1 $73 $187 $128 $190 reversed $45 $-1 #
edge $-1 $130 -10.416856221959751 $191 -3.3161508872314798 $73 $192 forward 7 unknown #
coedge $-1 $75 $74 $186 $193 forward $29 $-1 #
coedge $-1 $194 $195 $74 $127 forward $196 $-1 #
edge $-1 $197 3.3161508872314798 $131 10.416856221959751 $126 $198 forward 7 unknown #
coedge $-1 $199 $76 $123 $190 forward $71 $-1 #
coedge $-1 $76 $199 $194 $200 forward $71 $-1 #
vertex $-1 $124 $201 #
vertex $-1 $200 $202 #
straight-curve $-1 -79.898678548539692 0 10.416856221959751 0 -1 0 I I #
face $-1 $-1 $145 $17 $-1 $203 forward single #
loop $-1 $-1 $204 $78 #
plane-surface $-1 0 -45.393041775555126 0 0 1 0 0 0 1 forward_v I I I I #
coedge $-1 $205 $206 $207 $208 reversed $79 $-1 #
coedge $-1 $209 $81 $83 $143 forward $49 $-1 #
coedge $-1 $81 $209 $205 $210 forward $49 $-1 #
coedge $-1 $207 $84 $81 $140 forward $145 $-1 #
edge $-1 $147 10.892582969480522 $211 34.805798719628008 $139 $212 forward 7 unknown #
coedge $-1 $213 $214 $82 $142 forward $134 $-1 #
edge $-1 $215 -48.061547710154052 $146 -35.09629663432974 $141 $216 forward 7 unknown #
edge $-1 $147 -16.453139605863704 $215 1.1373479346495045e-014 $83 $217 forward 7 unknown #
coedge $-1 $84 $207 $213 $218 forward $145 $-1 #
loop $-1 $-1 $207 $133 #
vertex $-1 $142 $219 #
vertex $-1 $85 $220 #
straight-curve $-1 -33.741773814034786 -85.657539442510426 15.223230590758924 0 1 0 I I #
coedge $-1 $149 $149 $-1 $221 reversed $88 $-1 #
edge $-1 $222 0 $222 6.2831853071796004 $89 $223 forward 7 unknown #
vertex $-1 $92 $224 #
ellipse-curve $-1 -50.82264220699728 -40.328259760727697 8.7406050528467691 0 -0.78801076186113728 0.61566146476048833 1.5 0 0 1 I I #
coedge $-1 $153 $153 $-1 $225 reversed $95 $-1 #
edge $-1 $226 0 $226 6.2831853071796004 $96 $227 forward 7 unknown #
vertex $-1 $99 $228 #
ellipse-curve $-1 -40.574121171219787 -40.328259760727697 8.7406050528467691 0 -0.78801076186113728 0.61566146476048833 1.5 0 0 1 I I #
face $-1 $-1 $115 $15 $-1 $229 reversed single #
loop $-1 $-1 $172 $100 #
plane-surface $-1 0 45.393041775555126 0 0 -1 0 0 0 -1 forward_v I I I I #
coedge $-1 $170 $230 $103 $162 reversed $101 $-1 #
coedge $-1 $176 $103 $104 $164 reversed $63 $-1 #
edge $-1 $177 -15.223230590758925 $231 15.223230590758925 $160 $232 forward 7 unknown #
coedge $-1 $105 $104 $230 $233 forward $41 $-1 #
edge $-1 $168 -79.898678548539692 $231 79.898678548539692 $161 $234 forward 7 unknown #
coedge $-1 $173 $172 $105 $166 reversed $158 $-1 #
edge $-1 $235 -79.898678548539692 $167 79.898678548539692 $165 $236 forward 7 unknown #
vertex $-1 $107 $237 #
vertex $-1 $179 $238 #
straight-curve $-1 79.898678548539692 0 -15.223230590758925 0 -1 0 I I #
coedge $-1 $239 $160 $108 $171 reversed $101 $-1 #
edge $-1 $174 -45.393041775555126 $177 45.393041775555126 $170 $240 forward 7 unknown #
coedge $-1 $165 $109 $114 $180 forward $158 $-1 #
coedge $-1 $109 $165 $239 $241 reversed $158 $-1 #
vertex $-1 $110 $242 #
straight-curve $-1 0 45.393041775555126 15.223230590758925 -1 0 0 I I #
coedge $-1 $111 $161 $113 $179 reversed $63 $-1 #
vertex $-1 $171 $243 #
straight-curve $-1 0 -45.393041775555126 15.223230590758925 1 0 0 I I #
edge $-1 $116 -15.223230590758925 $168 15.223230590758925 $113 $244 forward 7 unknown #
edge $-1 $117 -15.223230590758925 $167 15.223230590758925 $114 $245 forward 7 unknown #
point $-1 79.898678548539692 -45.393041775555126 15.223230590758925 #
point $-1 79.898678548539692 45.393041775555126 15.223230590758925 #
face $-1 $-1 $196 $16 $-1 $246 reversed single #
loop $-1 $-1 $247 $119 #
plane-surface $-1 -91.116415931740306 0 6.8665035545956155 1 0 0 0 0 -1 forward_v I I I I #
coedge $-1 $248 $188 $125 $193 reversed $120 $-1 #
coedge $-1 $123 $122 $247 $249 reversed $45 $-1 #
coedge $-1 $186 $250 $122 $189 forward $120 $-1 #
edge $-1 $251 -5.608868691600307 $191 5.608868691600307 $122 $252 forward 7 unknown #
edge $-1 $130 -5.608868691600307 $253 5.608868691600307 $123 $254 forward 7 unknown #
vertex $-1 $124 $255 #
straight-curve $-1 -79.898678548539692 45.393041775555126 0 0 0 -1 I I #
edge $-1 $197 -45.393041775555126 $191 45.393041775555126 $186 $256 forward 7 unknown #
coedge $-1 $257 $126 $129 $200 reversed $196 $-1 #
coedge $-1 $126 $257 $248 $258 reversed $196 $-1 #
loop $-1 $-1 $126 $183 #
vertex $-1 $127 $259 #
straight-curve $-1 -79.898678548539692 -45.393041775555126 0 0 0 1 I I #
coedge $-1 $129 $128 $260 $261 forward $71 $-1 #
edge $-1 $262 -5.608868691600307 $131 5.608868691600307 $194 $263 forward 7 unknown #
point $-1 -79.898678548539692 45.393041775555126 10.416856221959751 #
point $-1 -79.898678548539692 -45.393041775555126 10.416856221959751 #
plane-surface $-1 0 0 15.223230590758925 0 0 1 1 0 0 forward_v I I I I #
coedge $-1 $214 $213 $206 $264 forward $134 $-1 #
coedge $-1 $206 $136 $138 $210 reversed $79 $-1 #
coedge $-1 $136 $205 $204 $264 reversed $79 $-1 #
coedge $-1 $144 $139 $136 $208 forward $145 $-1 #
edge $-1 $211 -50.394061696610159 $265 -40.2644976669553 $207 $266 forward 7 unknown #
coedge $-1 $138 $137 $214 $267 reversed $49 $-1 #
edge $-1 $268 -1.1373479346495045e-014 $211 16.453139605863704 $205 $269 forward 7 unknown #
vertex $-1 $140 $270 #
straight-curve $-1 -22.849190844554265 -35.263477745900268 15.223230590758925 -1 0 0 I I #
coedge $-1 $204 $141 $144 $218 reversed $134 $-1 #
coedge $-1 $141 $204 $209 $267 forward $134 $-1 #
vertex $-1 $142 $271 #
straight-curve $-1 -33.741773814034786 -45.393041775555126 50.319527225088663 0 0 1 I I #
straight-curve $-1 -33.741773814034786 -45.393041775555119 2.2579795149346182 0 -0.61566146476048833 -0.78801076186113728 I I #
edge $-1 $265 -57.654989564182273 $146 -33.741773814034786 $213 $272 forward 7 unknown #
point $-1 -33.741773814034786 -45.393041775555126 15.223230590758925 #
point $-1 -33.741773814034786 -35.263477745900268 15.223230590758925 #
edge $-1 $273 1 $273 0 $149 $-1 forward 7 unknown #
vertex $-1 $150 $274 #
ellipse-curve $-1 -50.82264220699728 -37.524024130605987 6.5496961222419383 0 -0.78801076186113728 0.61566146476048833 1.5 0 0 1 I I #
point $-1 -49.32264220699728 -40.328259760727718 8.7406050528467887 #
edge $-1 $275 1 $275 0 $153 $-1 forward 7 unknown #
vertex $-1 $154 $276 #
ellipse-curve $-1 -40.574121171219787 -37.524024130605987 6.5496961222419383 0 -0.78801076186113728 0.61566146476048833 1.5 0 0 1 I I #
point $-1 -39.074121171219787 -40.328259760727718 8.7406050528467887 #
plane-surface $-1 79.898678548539692 0 0 -1 0 0 0 0 1 forward_v I I I I #
coedge $-1 $160 $239 $163 $233 reversed $101 $-1 #
vertex $-1 $233 $277 #
straight-curve $-1 -79.898678548539692 -45.393041775555126 0 0 0 -1 I I #
edge $-1 $231 -45.393041775555126 $235 45.393041775555126 $230 $278 forward 7 unknown #
straight-curve $-1 0 -45.393041775555126 -15.223230590758925 -1 0 0 I I #
vertex $-1 $166 $279 #
straight-curve $-1 0 45.393041775555126 -15.223230590758925 1 0 0 I I #
point $-1 79.898678548539692 45.393041775555126 -15.223230590758925 #
point $-1 79.898678548539692 -45.393041775555126 -15.223230590758925 #
coedge $-1 $230 $170 $173 $241 forward $101 $-1 #
straight-curve $-1 -79.898678548539692 0 15.223230590758925 0 -1 0 I I #
edge $-1 $174 -15.223230590758925 $235 15.223230590758925 $173 $280 forward 7 unknown #
point $-1 -79.898678548539692 45.393041775555126 15.223230590758925 #
point $-1 -79.898678548539692 -45.393041775555126 15.223230590758925 #
straight-curve $-1 79.898678548539692 -45.393041775555126 0 0 0 -1 I I #
straight-curve $-1 79.898678548539692 45.393041775555126 0 0 0 -1 I I #
plane-surface $-1 0 -45.393041775555126 0 0 1 0 0 0 1 forward_v I I I I #
coedge $-1 $281 $260 $187 $249 forward $184 $-1 #
coedge $-1 $250 $186 $195 $258 forward $120 $-1 #
edge $-1 $253 -3.5503526673641357 $251 3.5503526673641357 $187 $282 forward 7 unknown #
coedge $-1 $188 $248 $281 $283 forward $120 $-1 #
vertex $-1 $189 $284 #
straight-curve $-1 -85.507547240139999 45.393041775555126 3.3161508872314798 1 0 0 I I #
vertex $-1 $190 $285 #
straight-curve $-1 -85.507547240139999 45.393041775555126 10.416856221959751 -1 0 0 I I #
point $-1 -79.898678548539692 45.393041775555126 3.3161508872314798 #
straight-curve $-1 -79.898678548539692 0 3.3161508872314798 0 1 0 I I #
coedge $-1 $195 $194 $286 $287 forward $196 $-1 #
edge $-1 $197 -5.608868691600307 $288 5.608868691600307 $195 $289 forward 7 unknown #
point $-1 -79.898678548539692 -45.393041775555126 3.3161508872314798 #
coedge $-1 $247 $286 $199 $261 reversed $184 $-1 #
edge $-1 $253 -45.393041775555126 $262 45.393041775555126 $260 $290 forward 7 unknown #
vertex $-1 $261 $291 #
straight-curve $-1 -85.507547240139999 -45.393041775555126 10.416856221959751 1 0 0 I I #
edge $-1 $265 35.09629663432974 $268 48.061547710154052 $204 $292 forward 7 unknown #
vertex $-1 $218 $293 #
straight-curve $-1 -57.654989564182273 -85.657539442510426 15.223230590758924 0 -1 0 I I #
edge $-1 $268 -34.805798719628008 $215 -10.892582969480522 $214 $294 forward 7 unknown #
vertex $-1 $267 $295 #
straight-curve $-1 -57.654989564182273 -45.393041775555119 2.2579795149346182 0 0.61566146476048833 0.78801076186113728 I I #
point $-1 -57.654989564182273 -35.263477745900268 15.223230590758925 #
point $-1 -33.741773814034786 -45.393041775555126 2.2579795149346094 #
straight-curve $-1 0 -45.393041775555126 15.223230590758925 1 0 0 I I #
vertex $-1 $221 $296 #
point $-1 -49.32264220699728 -37.524024130605987 6.5496961222419383 #
vertex $-1 $225 $297 #
point $-1 -39.074121171219787 -37.524024130605987 6.5496961222419383 #
point $-1 -79.898678548539692 -45.393041775555126 -15.223230590758925 #
straight-curve $-1 -79.898678548539692 0 -15.223230590758925 0 1 0 I I #
point $-1 -79.898678548539692 45.393041775555126 -15.223230590758925 #
straight-curve $-1 -79.898678548539692 45.393041775555126 0 0 0 -1 I I #
coedge $-1 $286 $247 $250 $283 reversed $184 $-1 #
straight-curve $-1 -91.116415931740306 45.393041775555126 6.8665035545956155 0 0 -1 I I #
edge $-1 $288 -45.393041775555126 $251 45.393041775555126 $281 $298 forward 7 unknown #
point $-1 -91.116415931740306 45.393041775555126 3.3161508872314798 #
point $-1 -91.116415931740306 45.393041775555126 10.416856221959751 #
coedge $-1 $260 $281 $257 $287 reversed $184 $-1 #
edge $-1 $262 -3.5503526673641357 $288 3.5503526673641357 $286 $299 forward 7 unknown #
vertex $-1 $283 $300 #
straight-curve $-1 -85.507547240139999 -45.393041775555126 3.3161508872314798 -1 0 0 I I #
straight-curve $-1 -91.116415931740306 0 10.416856221959751 0 -1 0 I I #
point $-1 -91.116415931740306 -45.393041775555126 10.416856221959751 #
straight-curve $-1 -57.654989564182273 -45.393041775555126 50.319527225088663 0 0 -1 I I #
point $-1 -57.654989564182273 -45.393041775555126 15.223230590758925 #
straight-curve $-1 -22.849190844554265 -45.393041775555126 2.2579795149346089 1 0 0 I I #
point $-1 -57.654989564182273 -45.393041775555126 2.2579795149346094 #
point $-1 -50.82264220699728 -36.342007987814277 5.6262039251012066 #
point $-1 -40.574121171219787 -36.342007987814277 5.6262039251012066 #
straight-curve $-1 -91.116415931740306 0 3.3161508872314798 0 1 0 I I #
straight-curve $-1 -91.116415931740306 -45.393041775555126 6.8665035545956155 0 0 -1 I I #
point $-1 -91.116415931740306 -45.393041775555126 3.3161508872314798 #
End-of-ACIS-data 