500 0 10 0           
7 Unknown 11 ACIS 5.0 NT 24 Thu Mar 25 22:49:52 1999 
-1 9.9999999999999995e-007 1e-010 
body $-1 $10 $-1 $11 #
body $-1 $12 $-1 $13 #
body $-1 $14 $-1 $15 #
body $-1 $16 $-1 $17 #
body $-1 $18 $-1 $19 #
body $-1 $20 $-1 $21 #
body $-1 $22 $-1 $23 #
body $-1 $24 $-1 $25 #
body $-1 $26 $-1 $27 #
body $-1 $28 $-1 $29 #
lump $-1 $-1 $30 $0 #
transform $-1 1 0 0 0 1 0 0 0 1 60.31189916684469 25.016544546230545 10.016542897965499 1 rotate no_reflect no_shear #
lump $-1 $-1 $31 $1 #
transform $-1 1 0 0 0 1 0 0 0 1 60.31189916684469 25.016544546230545 10.016542897965499 1 rotate no_reflect no_shear #
lump $-1 $-1 $32 $2 #
transform $-1 1 0 0 0 1 0 0 0 1 60.31189916684469 25.016544546230545 10.016542897965499 1 rotate no_reflect no_shear #
lump $-1 $-1 $33 $3 #
transform $-1 1 0 0 0 1 0 0 0 1 60.31189916684469 25.016544546230545 10.016542897965499 1 rotate no_reflect no_shear #
lump $-1 $-1 $34 $4 #
transform $-1 1 0 0 0 1 0 0 0 1 60.31189916684469 25.016544546230545 10.016542897965499 1 rotate no_reflect no_shear #
lump $-1 $-1 $35 $5 #
transform $-1 1 0 0 0 1 0 0 0 1 60.31189916684469 25.016544546230545 10.016542897965499 1 rotate no_reflect no_shear #
lump $-1 $-1 $36 $6 #
transform $-1 1 0 0 0 1 0 0 0 1 60.31189916684469 25.016544546230545 10.016542897965499 1 rotate no_reflect no_shear #
lump $-1 $-1 $37 $7 #
transform $-1 1 0 0 0 1 0 0 0 1 60.31189916684469 25.016544546230545 10.016542897965499 1 rotate no_reflect no_shear #
lump $-1 $-1 $38 $8 #
transform $-1 1 0 0 0 1 0 0 0 1 60.31189916684469 25.016544546230545 10.016542897965499 1 rotate no_reflect no_shear #
lump $-1 $-1 $39 $9 #
transform $-1 1 0 0 0 1 0 0 0 1 60.31189916684469 25.016544546230545 10.016542897965499 1 rotate no_reflect no_shear #
shell $-1 $-1 $-1 $40 $-1 $10 #
shell $-1 $-1 $-1 $41 $-1 $12 #
shell $-1 $-1 $-1 $42 $-1 $14 #
shell $-1 $-1 $-1 $43 $-1 $16 #
shell $-1 $-1 $-1 $44 $-1 $18 #
shell $-1 $-1 $-1 $45 $-1 $20 #
shell $-1 $-1 $-1 $46 $-1 $22 #
shell $-1 $-1 $-1 $47 $-1 $24 #
shell $-1 $-1 $-1 $48 $-1 $26 #
shell $-1 $-1 $-1 $49 $-1 $28 #
face $-1 $50 $51 $30 $-1 $52 forward single #
face $-1 $53 $54 $31 $-1 $55 forward single #
face $-1 $56 $57 $32 $-1 $58 forward single #
face $-1 $59 $60 $33 $-1 $61 reversed single #
face $-1 $62 $63 $34 $-1 $64 forward single #
face $-1 $65 $66 $35 $-1 $67 forward single #
face $-1 $68 $69 $36 $-1 $70 forward single #
face $-1 $71 $72 $37 $-1 $73 reversed single #
face $-1 $74 $75 $38 $-1 $76 forward single #
face $-1 $77 $78 $39 $-1 $79 forward single #
face $-1 $80 $81 $30 $-1 $82 reversed single #
loop $-1 $-1 $83 $40 #
plane-surface $-1 0 0 10.016542897965499 0 0 1 1 0 0 forward_v I I I I #
face $-1 $84 $85 $31 $-1 $86 reversed single #
loop $-1 $-1 $87 $41 #
plane-surface $-1 0 -20.616562490455369 0.35735769362965764 0 0 1 1 0 0 forward_v I I I I #
face $-1 $88 $89 $32 $-1 $90 reversed single #
loop $-1 $-1 $91 $42 #
plane-surface $-1 0 20.616562490455369 0.35735769362965764 0 0 1 1 0 0 forward_v I I I I #
face $-1 $92 $93 $33 $-1 $94 reversed single #
loop $-1 $-1 $95 $43 #
plane-surface $-1 -157.89860293201332 8.1122616147270143 72.152075857205631 0 -1 0 0.80901700255871778 0 -0.5877852410284794 forward_v I I I I #
face $-1 $96 $97 $34 $-1 $98 forward single #
loop $-1 $99 $100 $44 #
cone-surface $-1 -56.723189016630776 1.5994928683839476 5.3399725684021675 0.80901700255871778 0 -0.5877852410284794 0.14694631025711985 0 0.20225425063967944 1 I I 0 1 0.25 forward I I I I #
face $-1 $101 $102 $35 $-1 $103 forward single #
loop $-1 $104 $105 $45 #
cone-surface $-1 -56.723189016630776 4.0417811482625972 5.3399725684021675 0.80901700255871778 0 -0.5877852410284794 0.14694631025711985 0 0.20225425063967944 1 I I 0 1 0.25 forward I I I I #
face $-1 $106 $107 $36 $-1 $108 forward single #
loop $-1 $109 $110 $46 #
cone-surface $-1 -56.723189016630776 6.4840694281412468 5.3399725684021675 0.80901700255871778 0 -0.5877852410284794 0.14694631025711985 0 0.20225425063967944 1 I I 0 1 0.25 forward I I I I #
face $-1 $111 $112 $37 $-1 $113 reversed single #
loop $-1 $-1 $114 $47 #
plane-surface $-1 48.41229676842412 -3.3443280562326088 174.22326350318554 0 1 0 0.6560590369687036 0 0.75470957328743171 forward_v I I I I #
face $-1 $115 $116 $38 $-1 $117 forward single #
loop $-1 $118 $119 $48 #
cone-surface $-1 55.649190788827262 -1.0861833652130422 5.6171828241825486 -0.6560590369687036 0 -0.75470957328743171 0.75470957328743171 0 -0.6560590369687036 1 I I 0 1 1 forward I I I I #
face $-1 $120 $121 $39 $-1 $122 forward single #
loop $-1 $123 $124 $49 #
cone-surface $-1 55.649190788827262 2.3010336713163078 5.6171828241825486 -0.6560590369687036 0 -0.75470957328743171 0.75470957328743171 0 -0.6560590369687036 1 I I 0 1 1 forward I I I I #
face $-1 $125 $126 $30 $-1 $127 reversed single #
loop $-1 $-1 $128 $50 #
plane-surface $-1 0 0 -10.016542897965499 0 0 1 1 0 0 forward_v I I I I #
coedge $-1 $129 $130 $131 $132 forward $51 $-1 #
face $-1 $133 $134 $31 $-1 $135 reversed single #
loop $-1 $-1 $136 $53 #
plane-surface $-1 0 -20.616562490455369 -4.7996930585679056 0 0 1 1 0 0 forward_v I I I I #
coedge $-1 $137 $138 $139 $140 reversed $54 $-1 #
face $-1 $141 $142 $32 $-1 $143 reversed single #
loop $-1 $-1 $144 $56 #
plane-surface $-1 0 20.616562490455369 -4.7996930585679056 0 0 1 1 0 0 forward_v I I I I #
coedge $-1 $145 $146 $147 $148 reversed $57 $-1 #
face $-1 $149 $150 $33 $-1 $151 reversed single #
loop $-1 $-1 $152 $59 #
plane-surface $-1 -60.311899166844682 4.0417811482625972 1.2511874798673261 -0.80901700255871778 0 0.5877852410284794 0.5877852410284794 0 0.80901700255871778 forward_v I I I I #
coedge $-1 $153 $154 $155 $156 reversed $60 $-1 #
face $-1 $-1 $157 $34 $-1 $158 forward single #
loop $-1 $159 $160 $62 #
cone-surface $-1 -56.217553390031576 1.5994928683839476 4.9726067927593682 0.80901700255871778 0 -0.5877852410284794 0.073473155128559925 0 0.10112712531983972 1 I I -0.70710678118654746 0.70710678118654746 0.125 forward I I I I #
loop $-1 $-1 $161 $44 #
coedge $-1 $100 $100 $162 $163 reversed $63 $-1 #
face $-1 $-1 $164 $35 $-1 $165 forward single #
loop $-1 $166 $167 $65 #
cone-surface $-1 -56.217553390031576 4.0417811482625972 4.9726067927593682 0.80901700255871778 0 -0.5877852410284794 0.073473155128559925 0 0.10112712531983972 1 I I -0.70710678118654746 0.70710678118654746 0.125 forward I I I I #
loop $-1 $-1 $168 $45 #
coedge $-1 $105 $105 $169 $170 reversed $66 $-1 #
face $-1 $-1 $171 $36 $-1 $172 forward single #
loop $-1 $173 $174 $68 #
cone-surface $-1 -56.217553390031576 6.4840694281412468 4.9726067927593682 0.80901700255871778 0 -0.5877852410284794 0.073473155128559925 0 0.10112712531983972 1 I I -0.70710678118654746 0.70710678118654746 0.125 forward I I I I #
loop $-1 $-1 $175 $46 #
coedge $-1 $110 $110 $176 $177 reversed $69 $-1 #
face $-1 $178 $179 $37 $-1 $180 reversed single #
loop $-1 $-1 $181 $71 #
plane-surface $-1 -30.724036201883244 0.60742515305162925 83.187328134457601 0.6560590369687036 0 0.75470957328743171 0.75470957328743171 0 -0.6560590369687036 forward_v I I I I #
coedge $-1 $182 $183 $184 $185 reversed $72 $-1 #
face $-1 $-1 $186 $38 $-1 $187 forward single #
loop $-1 $188 $189 $74 #
cone-surface $-1 54.089741641441741 -1.0861833652130422 3.8232418306635143 -0.6560590369687036 0 -0.75470957328743171 0.37735478664371586 0 -0.3280295184843518 1 I I -0.70710678118654746 0.70710678118654746 0.5 forward I I I I #
loop $-1 $-1 $190 $48 #
coedge $-1 $119 $119 $191 $192 reversed $75 $-1 #
face $-1 $-1 $193 $39 $-1 $194 forward single #
loop $-1 $195 $196 $77 #
cone-surface $-1 54.089741641441741 2.3010336713163078 3.8232418306635143 -0.6560590369687036 0 -0.75470957328743171 0.37735478664371586 0 -0.3280295184843518 1 I I -0.70710678118654746 0.70710678118654746 0.5 forward I I I I #
loop $-1 $-1 $197 $49 #
coedge $-1 $124 $124 $198 $199 reversed $78 $-1 #
face $-1 $200 $201 $30 $-1 $202 reversed single #
loop $-1 $-1 $203 $80 #
plane-surface $-1 0 -25.016544546230545 0 0 1 0 0 0 1 forward_v I I I I #
coedge $-1 $204 $205 $206 $207 forward $81 $-1 #
coedge $-1 $208 $83 $209 $210 forward $51 $-1 #
coedge $-1 $83 $208 $211 $212 forward $51 $-1 #
coedge $-1 $213 $214 $83 $132 reversed $215 $-1 #
edge $-1 $216 -25.016544546230545 $217 25.016544546230545 $131 $218 forward 7 unknown #
face $-1 $219 $220 $31 $-1 $221 reversed single #
loop $-1 $-1 $222 $84 #
plane-surface $-1 0 -16.216580434680193 -2.2211676824691242 0 -1 0 0 0 -1 forward_v I I I I #
coedge $-1 $223 $224 $225 $226 reversed $85 $-1 #
coedge $-1 $227 $87 $228 $229 forward $54 $-1 #
coedge $-1 $87 $227 $230 $231 reversed $54 $-1 #
coedge $-1 $232 $233 $87 $140 forward $234 $-1 #
edge $-1 $235 5.9082991894525083 $236 14.708263301002861 $139 $237 forward 7 unknown #
face $-1 $238 $239 $32 $-1 $240 reversed single #
loop $-1 $-1 $241 $88 #
plane-surface $-1 0 16.216580434680193 -2.2211676824691242 0 1 0 0 0 1 forward_v I I I I #
coedge $-1 $242 $243 $244 $245 reversed $89 $-1 #
coedge $-1 $246 $91 $247 $248 reversed $57 $-1 #
coedge $-1 $91 $246 $249 $250 forward $57 $-1 #
coedge $-1 $251 $252 $91 $148 forward $239 $-1 #
edge $-1 $253 -14.708263301002861 $254 -5.9082991894525083 $147 $255 forward 7 unknown #
face $-1 $256 $257 $33 $-1 $258 reversed single #
loop $-1 $-1 $259 $92 #
plane-surface $-1 -157.89860293201332 -0.028699318201820034 72.152075857205631 0 1 0 -0.80901700255871778 0 0.5877852410284794 forward_v I I I I #
coedge $-1 $260 $261 $262 $263 reversed $93 $-1 #
coedge $-1 $154 $95 $264 $265 reversed $60 $-1 #
coedge $-1 $95 $153 $260 $266 reversed $60 $-1 #
coedge $-1 $262 $267 $95 $156 forward $257 $-1 #
edge $-1 $268 26.059495030637315 $269 34.824850448735496 $155 $270 forward 7 unknown #
loop $-1 $-1 $162 $96 #
plane-surface $-1 -60.311899166844682 4.0417811482625972 1.2511874798673261 -0.80901700255871778 0 0.5877852410284794 0.5877852410284794 0 0.80901700255871778 forward_v I I I I #
loop $-1 $-1 $271 $62 #
coedge $-1 $160 $160 $161 $272 reversed $97 $-1 #
coedge $-1 $161 $161 $160 $272 forward $99 $-1 #
coedge $-1 $162 $162 $100 $163 forward $157 $-1 #
edge $-1 $273 0 $273 6.2831853071796004 $162 $274 forward 7 unknown #
loop $-1 $-1 $169 $101 #
plane-surface $-1 -60.311899166844682 4.0417811482625972 1.2511874798673261 -0.80901700255871778 0 0.5877852410284794 0.5877852410284794 0 0.80901700255871778 forward_v I I I I #
loop $-1 $-1 $275 $65 #
coedge $-1 $167 $167 $168 $276 reversed $102 $-1 #
coedge $-1 $168 $168 $167 $276 forward $104 $-1 #
coedge $-1 $169 $169 $105 $170 forward $164 $-1 #
edge $-1 $277 0 $277 6.2831853071796004 $169 $278 forward 7 unknown #
loop $-1 $-1 $176 $106 #
plane-surface $-1 -60.311899166844682 4.0417811482625972 1.2511874798673261 -0.80901700255871778 0 0.5877852410284794 0.5877852410284794 0 0.80901700255871778 forward_v I I I I #
loop $-1 $-1 $279 $68 #
coedge $-1 $174 $174 $175 $280 reversed $107 $-1 #
coedge $-1 $175 $175 $174 $280 forward $109 $-1 #
coedge $-1 $176 $176 $110 $177 forward $171 $-1 #
edge $-1 $281 0 $281 6.2831853071796004 $176 $282 forward 7 unknown #
face $-1 $283 $284 $37 $-1 $285 forward single #
loop $-1 $-1 $286 $111 #
plane-surface $-1 48.41229676842412 4.5591783623358673 174.22326350318554 0 -1 0 -0.6560590369687036 0 -0.75470957328743171 forward_v I I I I #
coedge $-1 $287 $288 $289 $290 reversed $112 $-1 #
coedge $-1 $183 $114 $291 $292 reversed $72 $-1 #
coedge $-1 $114 $182 $287 $293 reversed $72 $-1 #
coedge $-1 $289 $294 $114 $185 forward $295 $-1 #
edge $-1 $296 77.095088853627274 $297 83.060636587442545 $184 $298 forward 7 unknown #
loop $-1 $-1 $191 $115 #
plane-surface $-1 -30.724036201883244 0.60742515305162925 83.187328134457601 0.6560590369687036 0 0.75470957328743171 0.75470957328743171 0 -0.6560590369687036 forward_v I I I I #
loop $-1 $-1 $299 $74 #
coedge $-1 $189 $189 $190 $300 reversed $116 $-1 #
coedge $-1 $190 $190 $189 $300 forward $118 $-1 #
coedge $-1 $191 $191 $119 $192 forward $186 $-1 #
edge $-1 $301 0 $301 6.2831853071796004 $191 $302 forward 7 unknown #
loop $-1 $-1 $198 $120 #
plane-surface $-1 -30.724036201883244 0.60742515305162925 83.187328134457601 0.6560590369687036 0 0.75470957328743171 0.75470957328743171 0 -0.6560590369687036 forward_v I I I I #
loop $-1 $-1 $303 $77 #
coedge $-1 $196 $196 $197 $304 reversed $121 $-1 #
coedge $-1 $197 $197 $196 $304 forward $123 $-1 #
coedge $-1 $198 $198 $124 $199 forward $193 $-1 #
edge $-1 $305 0 $305 6.2831853071796004 $198 $306 forward 7 unknown #
face $-1 $307 $308 $30 $-1 $309 reversed single #
loop $-1 $-1 $310 $125 #
plane-surface $-1 -60.31189916684469 0 0 1 0 0 0 0 -1 forward_v I I I I #
coedge $-1 $311 $211 $312 $313 forward $126 $-1 #
coedge $-1 $314 $128 $311 $315 forward $81 $-1 #
coedge $-1 $128 $314 $316 $317 forward $81 $-1 #
coedge $-1 $214 $213 $128 $207 reversed $215 $-1 #
edge $-1 $318 -25.016544546230545 $319 25.016544546230545 $206 $320 forward 7 unknown #
coedge $-1 $130 $129 $321 $322 forward $51 $-1 #
coedge $-1 $323 $324 $129 $210 reversed $308 $-1 #
edge $-1 $217 -60.31189916684469 $325 60.31189916684469 $209 $326 forward 7 unknown #
coedge $-1 $203 $327 $130 $212 reversed $126 $-1 #
edge $-1 $328 -60.31189916684469 $216 60.31189916684469 $211 $329 forward 7 unknown #
coedge $-1 $206 $131 $327 $330 forward $215 $-1 #
coedge $-1 $131 $206 $323 $331 reversed $215 $-1 #
loop $-1 $-1 $213 $307 #
vertex $-1 $132 $332 #
vertex $-1 $132 $333 #
straight-curve $-1 60.31189916684469 0 10.016542897965499 0 1 0 I I #
face $-1 $334 $335 $31 $-1 $336 reversed single #
loop $-1 $-1 $337 $133 #
plane-surface $-1 -60.31189916684469 0 0 1 0 0 0 0 -1 forward_v I I I I #
coedge $-1 $338 $228 $233 $339 reversed $134 $-1 #
coedge $-1 $340 $136 $341 $342 reversed $85 $-1 #
coedge $-1 $136 $340 $338 $343 forward $85 $-1 #
coedge $-1 $233 $232 $136 $226 forward $234 $-1 #
edge $-1 $344 -14.708263301002861 $345 -5.9082991894525083 $225 $346 forward 7 unknown #
coedge $-1 $138 $137 $337 $347 reversed $54 $-1 #
coedge $-1 $222 $348 $137 $229 reversed $134 $-1 #
edge $-1 $235 -60.31189916684469 $349 60.31189916684469 $228 $350 forward 7 unknown #
coedge $-1 $351 $352 $138 $231 forward $335 $-1 #
edge $-1 $236 -60.31189916684469 $353 60.31189916684469 $230 $354 forward 7 unknown #
coedge $-1 $225 $139 $352 $355 forward $234 $-1 #
coedge $-1 $139 $225 $222 $339 forward $234 $-1 #
loop $-1 $-1 $139 $334 #
vertex $-1 $140 $356 #
vertex $-1 $355 $357 #
straight-curve $-1 60.31189916684469 -10.308281245227684 0.35735769362965764 0 -1 0 I I #
face $-1 $358 $359 $32 $-1 $360 reversed single #
loop $-1 $-1 $147 $141 #
plane-surface $-1 60.31189916684469 0 0 -1 0 0 0 0 1 forward_v I I I I #
coedge $-1 $361 $249 $362 $363 reversed $142 $-1 #
coedge $-1 $364 $144 $361 $365 forward $89 $-1 #
coedge $-1 $144 $364 $366 $367 reversed $89 $-1 #
coedge $-1 $252 $251 $144 $245 forward $239 $-1 #
edge $-1 $368 5.9082991894525083 $369 14.708263301002861 $244 $370 forward 7 unknown #
coedge $-1 $146 $145 $371 $372 reversed $57 $-1 #
coedge $-1 $373 $374 $145 $248 forward $375 $-1 #
edge $-1 $376 -60.31189916684469 $253 60.31189916684469 $247 $377 forward 7 unknown #
coedge $-1 $241 $378 $146 $250 reversed $142 $-1 #
edge $-1 $379 -60.31189916684469 $254 60.31189916684469 $249 $380 forward 7 unknown #
coedge $-1 $244 $147 $378 $381 forward $239 $-1 #
coedge $-1 $147 $244 $373 $382 reversed $239 $-1 #
vertex $-1 $382 $383 #
vertex $-1 $148 $384 #
straight-curve $-1 60.31189916684469 10.308281245227684 0.35735769362965764 0 -1 0 I I #
face $-1 $-1 $385 $33 $-1 $386 forward single #
loop $-1 $-1 $155 $149 #
plane-surface $-1 -60.31189916684469 0 0 1 0 0 0 0 -1 forward_v I I I I #
coedge $-1 $387 $388 $389 $390 reversed $150 $-1 #
coedge $-1 $391 $152 $154 $266 forward $93 $-1 #
coedge $-1 $152 $391 $387 $392 forward $93 $-1 #
coedge $-1 $389 $155 $152 $263 forward $257 $-1 #
edge $-1 $269 -6.0913710405957158 $393 2.0495898923331186 $262 $394 forward 7 unknown #
coedge $-1 $395 $396 $153 $265 forward $385 $-1 #
edge $-1 $397 -25.005805597031092 $268 -18.63740229916197 $264 $398 forward 7 unknown #
edge $-1 $269 -1.2080531203272332e-014 $397 10.834575034116162 $154 $399 forward 7 unknown #
coedge $-1 $155 $389 $395 $400 reversed $257 $-1 #
vertex $-1 $400 $401 #
vertex $-1 $156 $402 #
straight-curve $-1 -60.31189916684469 8.1122616147270143 36.076037928602815 0 0 -1 I I #
coedge $-1 $271 $271 $-1 $403 reversed $159 $-1 #
edge $-1 $404 0 $404 6.2831853071796004 $160 $405 forward 7 unknown #
vertex $-1 $163 $406 #
ellipse-curve $-1 -57.127697517910129 1.5994928683839476 5.6338651889164044 -0.80901700255871778 0 0.5877852410284794 0.14694631025711985 0 0.20225425063967944 1 I I #
coedge $-1 $275 $275 $-1 $407 reversed $166 $-1 #
edge $-1 $408 0 $408 6.2831853071796004 $167 $409 forward 7 unknown #
vertex $-1 $170 $410 #
ellipse-curve $-1 -57.127697517910129 4.0417811482625972 5.6338651889164044 -0.80901700255871778 0 0.5877852410284794 0.14694631025711985 0 0.20225425063967944 1 I I #
coedge $-1 $279 $279 $-1 $411 reversed $173 $-1 #
edge $-1 $412 0 $412 6.2831853071796004 $174 $413 forward 7 unknown #
vertex $-1 $177 $414 #
ellipse-curve $-1 -57.127697517910129 6.4840694281412468 5.6338651889164044 -0.80901700255871778 0 0.5877852410284794 0.14694631025711985 0 0.20225425063967944 1 I I #
face $-1 $-1 $295 $37 $-1 $415 reversed single #
loop $-1 $-1 $416 $178 #
plane-surface $-1 0 0 10.016542897965499 0 0 1 1 0 0 forward_v I I I I #
coedge $-1 $417 $418 $419 $420 reversed $179 $-1 #
coedge $-1 $421 $181 $183 $293 forward $112 $-1 #
coedge $-1 $181 $421 $417 $422 forward $112 $-1 #
coedge $-1 $419 $184 $181 $290 forward $295 $-1 #
edge $-1 $297 -3.6480406327584234 $423 4.2554657858100526 $289 $424 forward 7 unknown #
coedge $-1 $425 $426 $182 $292 forward $284 $-1 #
edge $-1 $427 29.243173284400104 $296 36.105750782632626 $291 $428 forward 7 unknown #
edge $-1 $297 -120.62379833368939 $427 -111.53079389710872 $183 $429 forward 7 unknown #
coedge $-1 $184 $419 $425 $430 reversed $295 $-1 #
loop $-1 $-1 $419 $283 #
vertex $-1 $430 $431 #
vertex $-1 $185 $432 #
straight-curve $-1 60.31189916684469 -3.3443280562326088 87.111631751592768 0 0 -1 I I #
coedge $-1 $299 $299 $-1 $433 reversed $188 $-1 #
edge $-1 $434 0 $434 6.2831853071796004 $189 $435 forward 7 unknown #
vertex $-1 $192 $436 #
ellipse-curve $-1 56.880610417728434 -1.0861833652130422 7.0337690310578642 0.6560590369687036 0 0.75470957328743171 0.75470957328743171 0 -0.6560590369687036 1 I I #
coedge $-1 $303 $303 $-1 $437 reversed $195 $-1 #
edge $-1 $438 0 $438 6.2831853071796004 $196 $439 forward 7 unknown #
vertex $-1 $199 $440 #
ellipse-curve $-1 56.880610417728434 2.3010336713163078 7.0337690310578642 0.6560590369687036 0 0.75470957328743171 0.75470957328743171 0 -0.6560590369687036 1 I I #
face $-1 $-1 $215 $30 $-1 $441 reversed single #
loop $-1 $-1 $323 $200 #
plane-surface $-1 0 25.016544546230545 0 0 -1 0 0 0 -1 forward_v I I I I #
coedge $-1 $442 $321 $324 $443 forward $201 $-1 #
coedge $-1 $327 $203 $204 $315 reversed $126 $-1 #
coedge $-1 $321 $442 $203 $313 reversed $201 $-1 #
edge $-1 $328 -10.016542897965499 $444 10.016542897965499 $312 $445 forward 7 unknown #
coedge $-1 $205 $204 $442 $446 forward $81 $-1 #
edge $-1 $319 -60.31189916684469 $444 60.31189916684469 $311 $447 forward 7 unknown #
coedge $-1 $324 $323 $205 $317 reversed $308 $-1 #
edge $-1 $448 -60.31189916684469 $318 60.31189916684469 $316 $449 forward 7 unknown #
vertex $-1 $207 $450 #
vertex $-1 $330 $451 #
straight-curve $-1 60.31189916684469 0 -10.016542897965499 0 -1 0 I I #
coedge $-1 $310 $312 $208 $322 reversed $201 $-1 #
edge $-1 $325 -25.016544546230545 $328 25.016544546230545 $321 $452 forward 7 unknown #
coedge $-1 $316 $209 $214 $331 forward $308 $-1 #
coedge $-1 $209 $316 $310 $443 reversed $308 $-1 #
vertex $-1 $210 $453 #
straight-curve $-1 0 25.016544546230545 10.016542897965499 -1 0 0 I I #
coedge $-1 $211 $311 $213 $330 reversed $126 $-1 #
vertex $-1 $322 $454 #
straight-curve $-1 0 -25.016544546230545 10.016542897965499 1 0 0 I I #
edge $-1 $216 -10.016542897965499 $319 10.016542897965499 $213 $455 forward 7 unknown #
edge $-1 $217 -10.016542897965499 $318 10.016542897965499 $214 $456 forward 7 unknown #
point $-1 60.31189916684469 -25.016544546230545 10.016542897965499 #
point $-1 60.31189916684469 25.016544546230545 10.016542897965499 #
face $-1 $-1 $234 $31 $-1 $457 reversed single #
loop $-1 $-1 $230 $219 #
plane-surface $-1 0 -25.016544546230545 0 0 1 0 0 0 1 forward_v I I I I #
coedge $-1 $458 $459 $227 $347 forward $220 $-1 #
coedge $-1 $348 $222 $224 $343 reversed $134 $-1 #
edge $-1 $345 -3.6891092173333435 $235 1.4679415348642197 $233 $460 forward 7 unknown #
coedge $-1 $224 $223 $461 $462 reversed $85 $-1 #
coedge $-1 $352 $351 $223 $342 forward $335 $-1 #
edge $-1 $463 -60.31189916684469 $344 60.31189916684469 $341 $464 forward 7 unknown #
edge $-1 $465 -60.31189916684469 $345 60.31189916684469 $338 $466 forward 7 unknown #
vertex $-1 $342 $467 #
vertex $-1 $226 $468 #
straight-curve $-1 60.31189916684469 -10.308281245227684 -4.7996930585679056 0 1 0 I I #
edge $-1 $353 -14.708263301002861 $349 -5.9082991894525083 $337 $469 forward 7 unknown #
coedge $-1 $228 $338 $458 $470 reversed $134 $-1 #
vertex $-1 $347 $471 #
straight-curve $-1 0 -16.216580434680193 0.35735769362965764 -1 0 0 I I #
coedge $-1 $341 $230 $459 $472 forward $335 $-1 #
coedge $-1 $230 $341 $232 $355 reversed $335 $-1 #
vertex $-1 $472 $473 #
straight-curve $-1 0 -25.016544546230545 0.35735769362965764 -1 0 0 I I #
edge $-1 $236 -0.35735769362965764 $344 4.7996930585679056 $232 $474 forward 7 unknown #
point $-1 60.31189916684469 -16.216580434680193 0.35735769362965764 #
point $-1 60.31189916684469 -25.016544546230545 0.35735769362965764 #
face $-1 $-1 $375 $32 $-1 $475 reversed single #
loop $-1 $-1 $371 $238 #
plane-surface $-1 -60.31189916684469 0 0 1 0 0 0 0 -1 forward_v I I I I #
coedge $-1 $378 $241 $242 $365 reversed $142 $-1 #
coedge $-1 $371 $476 $241 $363 forward $359 $-1 #
edge $-1 $477 -3.6891092173333435 $379 1.4679415348642197 $362 $478 forward 7 unknown #
coedge $-1 $243 $242 $476 $479 reversed $89 $-1 #
edge $-1 $368 -60.31189916684469 $477 60.31189916684469 $361 $480 forward 7 unknown #
coedge $-1 $374 $373 $243 $367 forward $375 $-1 #
edge $-1 $369 -60.31189916684469 $481 60.31189916684469 $366 $482 forward 7 unknown #
vertex $-1 $245 $483 #
vertex $-1 $367 $484 #
straight-curve $-1 60.31189916684469 10.308281245227684 -4.7996930585679056 0 1 0 I I #
coedge $-1 $485 $362 $246 $372 forward $359 $-1 #
edge $-1 $379 5.9082991894525083 $376 14.708263301002861 $371 $486 forward 7 unknown #
coedge $-1 $366 $247 $252 $382 forward $375 $-1 #
coedge $-1 $247 $366 $485 $487 reversed $375 $-1 #
loop $-1 $-1 $247 $358 #
vertex $-1 $487 $488 #
straight-curve $-1 0 25.016544546230545 0.35735769362965764 1 0 0 I I #
coedge $-1 $249 $361 $251 $381 reversed $142 $-1 #
vertex $-1 $372 $489 #
straight-curve $-1 0 16.216580434680193 0.35735769362965764 1 0 0 I I #
edge $-1 $254 -1.4679415348642197 $368 3.6891092173333435 $251 $490 forward 7 unknown #
edge $-1 $253 -0.35735769362965764 $369 4.7996930585679056 $252 $491 forward 7 unknown #
point $-1 60.31189916684469 25.016544546230545 0.35735769362965764 #
point $-1 60.31189916684469 16.216580434680193 0.35735769362965764 #
loop $-1 $-1 $264 $256 #
plane-surface $-1 0 0 10.016542897965499 0 0 1 1 0 0 forward_v I I I I #
coedge $-1 $388 $259 $261 $392 reversed $150 $-1 #
coedge $-1 $259 $387 $492 $493 reversed $150 $-1 #
coedge $-1 $267 $262 $259 $390 forward $257 $-1 #
edge $-1 $393 -34.824850448735496 $494 -26.059495030637315 $389 $495 forward 7 unknown #
coedge $-1 $261 $260 $396 $496 reversed $93 $-1 #
edge $-1 $497 -10.834575034116162 $393 1.2080531203272332e-014 $387 $498 forward 7 unknown #
vertex $-1 $263 $499 #
straight-curve $-1 -60.31189916684469 2.0208905741312986 1.2511874798673162 0 -1 0 I I #
coedge $-1 $492 $264 $267 $400 forward $385 $-1 #
coedge $-1 $264 $492 $391 $496 forward $385 $-1 #
vertex $-1 $265 $500 #
straight-curve $-1 -78.949301466006659 8.1122616147270143 10.0165428979655 -1 0 0 I I #
straight-curve $-1 -60.311899166844682 8.1122616147270143 1.2511874798673261 0.5877852410284794 0 0.80901700255871778 I I #
edge $-1 $268 -8.1122616147270143 $494 0.028699318201820034 $267 $501 forward 7 unknown #
point $-1 -60.31189916684469 8.1122616147270143 10.016542897965499 #
point $-1 -60.31189916684469 8.1122616147270143 1.2511874798673164 #
edge $-1 $502 1 $502 0 $271 $-1 forward 7 unknown #
vertex $-1 $272 $503 #
ellipse-curve $-1 -56.318680515351417 1.5994928683839476 5.0460799478879279 -0.80901700255871778 0 0.5877852410284794 0.14694631025711985 0 0.20225425063967944 1 I I #
point $-1 -56.980751207653014 1.5994928683839476 5.8361194395560867 #
edge $-1 $504 1 $504 0 $275 $-1 forward 7 unknown #
vertex $-1 $276 $505 #
ellipse-curve $-1 -56.318680515351417 4.0417811482625972 5.0460799478879279 -0.80901700255871778 0 0.5877852410284794 0.14694631025711985 0 0.20225425063967944 1 I I #
point $-1 -56.980751207653014 4.0417811482625972 5.8361194395560867 #
edge $-1 $506 1 $506 0 $279 $-1 forward 7 unknown #
vertex $-1 $280 $507 #
ellipse-curve $-1 -56.318680515351417 6.4840694281412468 5.0460799478879279 -0.80901700255871778 0 0.5877852410284794 0.14694631025711985 0 0.20225425063967944 1 I I #
point $-1 -56.980751207653014 6.4840694281412468 5.8361194395560867 #
plane-surface $-1 60.31189916684469 0 0 -1 0 0 0 0 1 forward_v I I I I #
coedge $-1 $426 $425 $418 $508 forward $284 $-1 #
coedge $-1 $418 $286 $288 $422 reversed $179 $-1 #
coedge $-1 $286 $417 $416 $508 reversed $179 $-1 #
coedge $-1 $294 $289 $286 $420 forward $295 $-1 #
edge $-1 $423 -83.060636587442545 $509 -77.095088853627274 $419 $510 forward 7 unknown #
coedge $-1 $288 $287 $426 $511 reversed $112 $-1 #
edge $-1 $512 111.53079389710872 $423 120.62379833368939 $417 $513 forward 7 unknown #
vertex $-1 $290 $514 #
straight-curve $-1 60.311899166844682 0.30371257652581463 4.0509951641502298 0 1 0 I I #
coedge $-1 $416 $291 $294 $430 forward $284 $-1 #
coedge $-1 $291 $416 $421 $511 forward $284 $-1 #
vertex $-1 $292 $515 #
straight-curve $-1 24.20614838421206 -3.3443280562326088 10.016542897965493 1 0 0 I I #
straight-curve $-1 -30.724036201883244 -3.3443280562326088 83.187328134457601 -0.75470957328743171 0 0.6560590369687036 I I #
edge $-1 $296 -3.3443280562326088 $509 4.5591783623358673 $294 $516 forward 7 unknown #
point $-1 60.31189916684469 -3.3443280562326088 10.016542897965499 #
point $-1 60.31189916684469 -3.3443280562326088 4.0509951641502226 #
edge $-1 $517 1 $517 0 $299 $-1 forward 7 unknown #
vertex $-1 $300 $518 #
ellipse-curve $-1 54.41777115992609 -1.0861833652130422 4.2005966173072302 0.6560590369687036 0 0.75470957328743171 0.75470957328743171 0 -0.6560590369687036 1 I I #
point $-1 57.635319991015862 -1.0861833652130422 6.3777099940891633 #
edge $-1 $519 1 $519 0 $303 $-1 forward 7 unknown #
vertex $-1 $304 $520 #
ellipse-curve $-1 54.41777115992609 2.3010336713163078 4.2005966173072302 0.6560590369687036 0 0.75470957328743171 0.75470957328743171 0 -0.6560590369687036 1 I I #
point $-1 57.635319991015862 2.3010336713163078 6.3777099940891633 #
plane-surface $-1 60.31189916684469 0 0 -1 0 0 0 0 1 forward_v I I I I #
coedge $-1 $312 $310 $314 $446 reversed $201 $-1 #
edge $-1 $325 -10.016542897965499 $448 10.016542897965499 $324 $521 forward 7 unknown #
vertex $-1 $446 $522 #
straight-curve $-1 -60.31189916684469 -25.016544546230545 0 0 0 -1 I I #
edge $-1 $444 -25.016544546230545 $448 25.016544546230545 $442 $523 forward 7 unknown #
straight-curve $-1 0 -25.016544546230545 -10.016542897965499 -1 0 0 I I #
vertex $-1 $317 $524 #
straight-curve $-1 0 25.016544546230545 -10.016542897965499 1 0 0 I I #
point $-1 60.31189916684469 25.016544546230545 -10.016542897965499 #
point $-1 60.31189916684469 -25.016544546230545 -10.016542897965499 #
straight-curve $-1 -60.31189916684469 0 10.016542897965499 0 -1 0 I I #
point $-1 -60.31189916684469 25.016544546230545 10.016542897965499 #
point $-1 -60.31189916684469 -25.016544546230545 10.016542897965499 #
straight-curve $-1 60.31189916684469 -25.016544546230545 0 0 0 -1 I I #
straight-curve $-1 60.31189916684469 25.016544546230545 0 0 0 -1 I I #
plane-surface $-1 60.31189916684469 0 0 -1 0 0 0 0 1 forward_v I I I I #
coedge $-1 $461 $337 $348 $470 forward $220 $-1 #
coedge $-1 $337 $461 $351 $472 reversed $220 $-1 #
straight-curve $-1 60.31189916684469 -16.216580434680193 -1.1105838412345621 0 0 1 I I #
coedge $-1 $459 $458 $340 $462 forward $220 $-1 #
edge $-1 $465 5.9082991894525083 $463 14.708263301002861 $461 $525 forward 7 unknown #
vertex $-1 $342 $526 #
straight-curve $-1 0 -25.016544546230545 -4.7996930585679056 1 0 0 I I #
vertex $-1 $462 $527 #
straight-curve $-1 0 -16.216580434680193 -4.7996930585679056 1 0 0 I I #
point $-1 60.31189916684469 -25.016544546230545 -4.7996930585679056 #
point $-1 60.31189916684469 -16.216580434680193 -4.7996930585679056 #
straight-curve $-1 -60.31189916684469 -10.308281245227684 0.35735769362965764 0 1 0 I I #
edge $-1 $349 -1.4679415348642197 $465 3.6891092173333435 $458 $528 forward 7 unknown #
point $-1 -60.31189916684469 -16.216580434680193 0.35735769362965764 #
edge $-1 $353 -0.35735769362965764 $463 4.7996930585679056 $459 $529 forward 7 unknown #
point $-1 -60.31189916684469 -25.016544546230545 0.35735769362965764 #
straight-curve $-1 60.31189916684469 -25.016544546230545 0 0 0 -1 I I #
plane-surface $-1 0 25.016544546230545 0 0 -1 0 0 0 -1 forward_v I I I I #
coedge $-1 $362 $485 $364 $479 forward $359 $-1 #
vertex $-1 $479 $530 #
straight-curve $-1 -60.31189916684469 16.216580434680193 -1.1105838412345621 0 0 1 I I #
edge $-1 $481 -14.708263301002861 $477 -5.9082991894525083 $476 $531 forward 7 unknown #
straight-curve $-1 0 16.216580434680193 -4.7996930585679056 -1 0 0 I I #
vertex $-1 $367 $532 #
straight-curve $-1 0 25.016544546230545 -4.7996930585679056 -1 0 0 I I #
point $-1 60.31189916684469 16.216580434680193 -4.7996930585679056 #
point $-1 60.31189916684469 25.016544546230545 -4.7996930585679056 #
coedge $-1 $476 $371 $374 $487 forward $359 $-1 #
straight-curve $-1 -60.31189916684469 10.308281245227684 0.35735769362965764 0 1 0 I I #
edge $-1 $376 -0.35735769362965764 $481 4.7996930585679056 $374 $533 forward 7 unknown #
point $-1 -60.31189916684469 25.016544546230545 0.35735769362965764 #
point $-1 -60.31189916684469 16.216580434680193 0.35735769362965764 #
straight-curve $-1 60.31189916684469 16.216580434680193 -1.1105838412345621 0 0 -1 I I #
straight-curve $-1 60.31189916684469 25.016544546230545 0 0 0 -1 I I #
coedge $-1 $396 $395 $388 $493 forward $385 $-1 #
edge $-1 $494 18.63740229916197 $497 25.005805597031092 $492 $534 forward 7 unknown #
vertex $-1 $493 $535 #
straight-curve $-1 -60.31189916684469 -0.028699318201820034 36.076037928602815 0 0 1 I I #
edge $-1 $497 -2.0495898923331186 $397 6.0913710405957158 $396 $536 forward 7 unknown #
vertex $-1 $496 $537 #
straight-curve $-1 -60.311899166844682 -0.028699318201820034 1.2511874798673261 -0.5877852410284794 0 -0.80901700255871778 I I #
point $-1 -60.31189916684469 -0.028699318201820034 1.2511874798673164 #
point $-1 -53.943495868975567 8.1122616147270143 10.016542897965499 #
straight-curve $-1 -60.31189916684469 0 10.016542897965499 0 -1 0 I I #
vertex $-1 $403 $538 #
point $-1 -56.171734205094296 1.5994928683839476 5.2483341985276075 #
vertex $-1 $407 $539 #
point $-1 -56.171734205094296 4.0417811482625972 5.2483341985276075 #
vertex $-1 $411 $540 #
point $-1 -56.171734205094296 6.4840694281412468 5.2483341985276075 #
edge $-1 $509 -36.105750782632626 $512 -29.243173284400104 $416 $541 forward 7 unknown #
vertex $-1 $420 $542 #
straight-curve $-1 60.31189916684469 4.5591783623358673 87.111631751592768 0 0 1 I I #
edge $-1 $512 -4.2554657858100526 $427 3.6480406327584234 $426 $543 forward 7 unknown #
vertex $-1 $511 $544 #
straight-curve $-1 -30.724036201883244 4.5591783623358673 83.187328134457601 0.75470957328743171 0 -0.6560590369687036 I I #
point $-1 60.31189916684469 4.5591783623358673 4.0509951641502226 #
point $-1 53.449321668612164 -3.3443280562326088 10.016542897965493 #
straight-curve $-1 60.31189916684469 0 10.016542897965499 0 1 0 I I #
vertex $-1 $433 $545 #
point $-1 55.172480733213526 -1.0861833652130422 3.5445375803385266 #
vertex $-1 $437 $546 #
point $-1 55.172480733213526 2.3010336713163078 3.5445375803385266 #
straight-curve $-1 -60.31189916684469 25.016544546230545 0 0 0 -1 I I #
point $-1 -60.31189916684469 -25.016544546230545 -10.016542897965499 #
straight-curve $-1 -60.31189916684469 0 -10.016542897965499 0 1 0 I I #
point $-1 -60.31189916684469 25.016544546230545 -10.016542897965499 #
straight-curve $-1 -60.31189916684469 -10.308281245227684 -4.7996930585679056 0 -1 0 I I #
point $-1 -60.31189916684469 -25.016544546230545 -4.7996930585679056 #
point $-1 -60.31189916684469 -16.216580434680193 -4.7996930585679056 #
straight-curve $-1 -60.31189916684469 -16.216580434680193 -1.1105838412345621 0 0 -1 I I #
straight-curve $-1 -60.31189916684469 -25.016544546230545 0 0 0 -1 I I #
point $-1 -60.31189916684469 16.216580434680193 -4.7996930585679056 #
straight-curve $-1 -60.31189916684469 10.308281245227684 -4.7996930585679056 0 -1 0 I I #
point $-1 -60.31189916684469 25.016544546230545 -4.7996930585679056 #
straight-curve $-1 -60.31189916684469 25.016544546230545 0 0 0 -1 I I #
straight-curve $-1 -78.949301466006659 -0.028699318201820034 10.0165428979655 1 0 0 I I #
point $-1 -60.31189916684469 -0.028699318201820034 10.016542897965499 #
straight-curve $-1 -53.943495868975575 2.0208905741312986 10.016542897965499 0 1 0 I I #
point $-1 -53.943495868975567 -0.028699318201820034 10.016542897965499 #
point $-1 -56.116426264711734 1.5994928683839476 4.8991336376308086 #
point $-1 -56.116426264711734 4.0417811482625972 4.8991336376308086 #
point $-1 -56.116426264711734 6.4840694281412468 4.8991336376308086 #
straight-curve $-1 24.20614838421206 4.5591783623358673 10.016542897965493 -1 0 0 I I #
point $-1 60.31189916684469 4.5591783623358673 10.016542897965499 #
straight-curve $-1 53.449321668612143 0.30371257652581463 10.016542897965508 0 -1 0 I I #
point $-1 53.449321668612164 4.5591783623358673 10.016542897965493 #
point $-1 53.761712122957391 -1.0861833652130422 3.4458870440197984 #
point $-1 53.761712122957391 2.3010336713163078 3.4458870440197984 #
End-of-ACIS-data 