500 0 10 0           
7 Unknown 11 ACIS 5.0 NT 24 Fri Mar 26 14:53:11 1999 
-1 9.9999999999999995e-007 1e-010 
body $-1 $10 $-1 $11 #
body $-1 $12 $-1 $13 #
body $-1 $14 $-1 $15 #
body $-1 $16 $-1 $17 #
body $-1 $18 $-1 $19 #
body $-1 $20 $-1 $21 #
body $-1 $22 $-1 $23 #
body $-1 $24 $-1 $25 #
body $-1 $26 $-1 $27 #
body $-1 $28 $-1 $29 #
lump $-1 $-1 $30 $0 #
transform $-1 1 0 0 0 1 0 0 0 1 44.300668355357523 24.168855795603772 9.0920687841453116 1 rotate no_reflect no_shear #
lump $-1 $-1 $31 $1 #
transform $-1 1 0 0 0 1 0 0 0 1 44.300668355357523 24.168855795603772 9.0920687841453116 1 rotate no_reflect no_shear #
lump $-1 $-1 $32 $2 #
transform $-1 1 0 0 0 1 0 0 0 1 44.300668355357523 24.168855795603772 9.0920687841453116 1 rotate no_reflect no_shear #
lump $-1 $-1 $33 $3 #
transform $-1 1 0 0 0 1 0 0 0 1 44.300668355357523 24.168855795603772 9.0920687841453116 1 rotate no_reflect no_shear #
lump $-1 $-1 $34 $4 #
transform $-1 1 0 0 0 1 0 0 0 1 44.300668355357523 24.168855795603772 9.0920687841453116 1 rotate no_reflect no_shear #
lump $-1 $-1 $35 $5 #
transform $-1 1 0 0 0 1 0 0 0 1 44.300668355357523 24.168855795603772 9.0920687841453116 1 rotate no_reflect no_shear #
lump $-1 $-1 $36 $6 #
transform $-1 1 0 0 0 1 0 0 0 1 44.300668355357523 24.168855795603772 9.0920687841453116 1 rotate no_reflect no_shear #
lump $-1 $-1 $37 $7 #
transform $-1 1 0 0 0 1 0 0 0 1 44.300668355357523 24.168855795603772 9.0920687841453116 1 rotate no_reflect no_shear #
lump $-1 $-1 $38 $8 #
transform $-1 1 0 0 0 1 0 0 0 1 44.300668355357523 24.168855795603772 9.0920687841453116 1 rotate no_reflect no_shear #
lump $-1 $-1 $39 $9 #
transform $-1 1 0 0 0 1 0 0 0 1 44.300668355357523 24.168855795603772 9.0920687841453116 1 rotate no_reflect no_shear #
shell $-1 $-1 $-1 $40 $-1 $10 #
shell $-1 $-1 $-1 $41 $-1 $12 #
shell $-1 $-1 $-1 $42 $-1 $14 #
shell $-1 $-1 $-1 $43 $-1 $16 #
shell $-1 $-1 $-1 $44 $-1 $18 #
shell $-1 $-1 $-1 $45 $-1 $20 #
shell $-1 $-1 $-1 $46 $-1 $22 #
shell $-1 $-1 $-1 $47 $-1 $24 #
shell $-1 $-1 $-1 $48 $-1 $26 #
shell $-1 $-1 $-1 $49 $-1 $28 #
face $-1 $50 $51 $30 $-1 $52 forward single #
face $-1 $53 $54 $31 $-1 $55 forward single #
face $-1 $56 $57 $32 $-1 $58 reversed single #
face $-1 $59 $60 $33 $-1 $61 forward single #
face $-1 $62 $63 $34 $-1 $64 forward single #
face $-1 $65 $66 $35 $-1 $67 forward single #
face $-1 $68 $69 $36 $-1 $70 reversed single #
face $-1 $71 $72 $37 $-1 $73 forward single #
face $-1 $74 $75 $38 $-1 $76 forward single #
face $-1 $77 $78 $39 $-1 $79 forward single #
face $-1 $80 $81 $30 $-1 $82 reversed single #
loop $-1 $-1 $83 $40 #
plane-surface $-1 0 0 9.0920687841453116 0 0 1 1 0 0 forward_v I I I I #
face $-1 $84 $85 $31 $-1 $86 reversed single #
loop $-1 $-1 $87 $41 #
plane-surface $-1 -38.327922523415751 0 -0.0073422028712744059 0 0 1 1 0 0 forward_v I I I I #
face $-1 $88 $89 $32 $-1 $90 reversed single #
loop $-1 $-1 $91 $42 #
plane-surface $-1 -16.89485088680313 72.149585884616855 89.049315669533584 1 0 0 0 -0.83867057594974714 -0.54463902268945019 forward_v I I I I #
face $-1 $92 $93 $33 $-1 $94 forward single #
loop $-1 $95 $96 $43 #
cone-surface $-1 -14.650783599510351 20.613014026199913 4.2275285298703125 0 -0.83867057594974714 -0.54463902268945019 0.5 0 0 1 I I 0 1 0.5 forward I I I I #
face $-1 $97 $98 $34 $-1 $99 forward single #
loop $-1 $100 $101 $44 #
cone-surface $-1 -11.284682668571179 20.613014026199913 4.2275285298703125 0 -0.83867057594974714 -0.54463902268945019 0.5 0 0 1 I I 0 1 0.5 forward I I I I #
face $-1 $102 $103 $35 $-1 $104 forward single #
loop $-1 $105 $106 $45 #
cone-surface $-1 -7.9185817376320031 20.613014026199913 4.2275285298703125 0 -0.83867057594974714 -0.54463902268945019 0.5 0 0 1 I I 0 1 0.5 forward I I I I #
face $-1 $107 $108 $36 $-1 $109 reversed single #
loop $-1 $-1 $110 $46 #
plane-surface $-1 17.620006114222758 72.149585884616855 89.049315669533584 1 0 0 0 -0.83867057594974714 -0.54463902268945019 forward_v I I I I #
face $-1 $111 $112 $37 $-1 $113 forward single #
loop $-1 $114 $115 $47 #
cone-surface $-1 19.864073401515533 20.613014026199913 4.2275285298703125 0 -0.83867057594974714 -0.54463902268945019 0.5 0 0 1 I I 0 1 0.5 forward I I I I #
face $-1 $116 $117 $38 $-1 $118 forward single #
loop $-1 $119 $120 $48 #
cone-surface $-1 23.230174332454702 20.613014026199913 4.2275285298703125 0 -0.83867057594974714 -0.54463902268945019 0.5 0 0 1 I I 0 1 0.5 forward I I I I #
face $-1 $121 $122 $39 $-1 $123 forward single #
loop $-1 $124 $125 $49 #
cone-surface $-1 26.596275263393885 20.613014026199913 4.2275285298703125 0 -0.83867057594974714 -0.54463902268945019 0.5 0 0 1 I I 0 1 0.5 forward I I I I #
face $-1 $126 $127 $30 $-1 $128 reversed single #
loop $-1 $-1 $129 $50 #
plane-surface $-1 0 0 -9.0920687841453116 0 0 1 1 0 0 forward_v I I I I #
coedge $-1 $130 $131 $132 $133 forward $51 $-1 #
face $-1 $134 $135 $31 $-1 $136 reversed single #
loop $-1 $-1 $137 $53 #
plane-surface $-1 -38.327922523415751 0 -5.25947075782166 0 0 1 1 0 0 forward_v I I I I #
coedge $-1 $138 $139 $140 $141 forward $54 $-1 #
face $-1 $142 $143 $32 $-1 $144 reversed single #
loop $-1 $-1 $145 $56 #
plane-surface $-1 -11.284682668571172 -2.1577482044760075 40.793570234430838 0 0.83867057594974714 0.54463902268945019 1 0 0 forward_v I I I I #
coedge $-1 $146 $147 $148 $149 reversed $57 $-1 #
face $-1 $-1 $150 $33 $-1 $151 forward single #
loop $-1 $152 $153 $59 #
cone-surface $-1 -14.650783599510351 19.71720906525417 3.6457860049255899 0 -0.83867057594974714 -0.54463902268945019 0.25 0 0 1 I I -0.70710678118654746 0.70710678118654746 0.25 forward I I I I #
loop $-1 $-1 $154 $43 #
coedge $-1 $96 $96 $155 $156 reversed $60 $-1 #
face $-1 $-1 $157 $34 $-1 $158 forward single #
loop $-1 $159 $160 $62 #
cone-surface $-1 -11.284682668571179 19.71720906525417 3.6457860049255899 0 -0.83867057594974714 -0.54463902268945019 0.25 0 0 1 I I -0.70710678118654746 0.70710678118654746 0.25 forward I I I I #
loop $-1 $-1 $161 $44 #
coedge $-1 $101 $101 $162 $163 reversed $63 $-1 #
face $-1 $-1 $164 $35 $-1 $165 forward single #
loop $-1 $166 $167 $65 #
cone-surface $-1 -7.9185817376320031 19.71720906525417 3.6457860049255899 0 -0.83867057594974714 -0.54463902268945019 0.25 0 0 1 I I -0.70710678118654746 0.70710678118654746 0.25 forward I I I I #
loop $-1 $-1 $168 $45 #
coedge $-1 $106 $106 $169 $170 reversed $66 $-1 #
face $-1 $171 $172 $36 $-1 $173 reversed single #
loop $-1 $-1 $174 $68 #
plane-surface $-1 23.230174332454716 -2.1577482044760075 40.793570234430838 0 0.83867057594974714 0.54463902268945019 1 0 0 forward_v I I I I #
coedge $-1 $175 $176 $177 $178 reversed $69 $-1 #
face $-1 $-1 $179 $37 $-1 $180 forward single #
loop $-1 $181 $182 $71 #
cone-surface $-1 19.864073401515533 19.71720906525417 3.6457860049255899 0 -0.83867057594974714 -0.54463902268945019 0.25 0 0 1 I I -0.70710678118654746 0.70710678118654746 0.25 forward I I I I #
loop $-1 $-1 $183 $47 #
coedge $-1 $115 $115 $184 $185 reversed $72 $-1 #
face $-1 $-1 $186 $38 $-1 $187 forward single #
loop $-1 $188 $189 $74 #
cone-surface $-1 23.230174332454702 19.71720906525417 3.6457860049255899 0 -0.83867057594974714 -0.54463902268945019 0.25 0 0 1 I I -0.70710678118654746 0.70710678118654746 0.25 forward I I I I #
loop $-1 $-1 $190 $48 #
coedge $-1 $120 $120 $191 $192 reversed $75 $-1 #
face $-1 $-1 $193 $39 $-1 $194 forward single #
loop $-1 $195 $196 $77 #
cone-surface $-1 26.596275263393885 19.71720906525417 3.6457860049255899 0 -0.83867057594974714 -0.54463902268945019 0.25 0 0 1 I I -0.70710678118654746 0.70710678118654746 0.25 forward I I I I #
loop $-1 $-1 $197 $49 #
coedge $-1 $125 $125 $198 $199 reversed $78 $-1 #
face $-1 $200 $201 $30 $-1 $202 reversed single #
loop $-1 $-1 $203 $80 #
plane-surface $-1 0 -24.168855795603772 0 0 1 0 0 0 1 forward_v I I I I #
coedge $-1 $204 $205 $206 $207 forward $81 $-1 #
coedge $-1 $208 $83 $209 $210 forward $51 $-1 #
coedge $-1 $83 $208 $211 $212 forward $51 $-1 #
coedge $-1 $213 $214 $83 $133 reversed $215 $-1 #
edge $-1 $216 -24.168855795603772 $217 24.168855795603772 $132 $218 forward 7 unknown #
face $-1 $219 $220 $31 $-1 $221 reversed single #
loop $-1 $-1 $222 $84 #
plane-surface $-1 -32.355176691473979 0 -2.6334064803464674 -1 0 0 0 0 1 forward_v I I I I #
coedge $-1 $223 $224 $225 $226 forward $85 $-1 #
coedge $-1 $227 $87 $228 $229 reversed $54 $-1 #
coedge $-1 $87 $227 $230 $231 reversed $54 $-1 #
coedge $-1 $222 $232 $87 $141 reversed $135 $-1 #
edge $-1 $233 -24.168855795603772 $234 24.168855795603772 $140 $235 forward 7 unknown #
face $-1 $236 $237 $32 $-1 $238 forward single #
loop $-1 $-1 $239 $88 #
plane-surface $-1 -5.6745144503392133 72.149585884616855 89.049315669533584 -1 0 0 0 0.83867057594974714 0.54463902268945019 forward_v I I I I #
coedge $-1 $240 $241 $242 $243 reversed $89 $-1 #
coedge $-1 $147 $91 $244 $245 reversed $57 $-1 #
coedge $-1 $91 $146 $240 $246 reversed $57 $-1 #
coedge $-1 $242 $247 $91 $149 forward $237 $-1 #
edge $-1 $248 11.905937146704655 $249 17.645346051595759 $148 $250 forward 7 unknown #
loop $-1 $-1 $155 $92 #
plane-surface $-1 -11.284682668571172 -2.1577482044760075 40.793570234430838 0 0.83867057594974714 0.54463902268945019 1 0 0 forward_v I I I I #
loop $-1 $-1 $251 $59 #
coedge $-1 $153 $153 $154 $252 reversed $93 $-1 #
coedge $-1 $154 $154 $153 $252 forward $95 $-1 #
coedge $-1 $155 $155 $96 $156 forward $150 $-1 #
edge $-1 $253 -8.9033658465053147e-016 $253 6.2831853071795996 $155 $254 forward 7 unknown #
loop $-1 $-1 $162 $97 #
plane-surface $-1 -11.284682668571172 -2.1577482044760075 40.793570234430838 0 0.83867057594974714 0.54463902268945019 1 0 0 forward_v I I I I #
loop $-1 $-1 $255 $62 #
coedge $-1 $160 $160 $161 $256 reversed $98 $-1 #
coedge $-1 $161 $161 $160 $256 forward $100 $-1 #
coedge $-1 $162 $162 $101 $163 forward $157 $-1 #
edge $-1 $257 -8.9033658465053147e-016 $257 6.2831853071795996 $162 $258 forward 7 unknown #
loop $-1 $-1 $169 $102 #
plane-surface $-1 -11.284682668571172 -2.1577482044760075 40.793570234430838 0 0.83867057594974714 0.54463902268945019 1 0 0 forward_v I I I I #
loop $-1 $-1 $259 $65 #
coedge $-1 $167 $167 $168 $260 reversed $103 $-1 #
coedge $-1 $168 $168 $167 $260 forward $105 $-1 #
coedge $-1 $169 $169 $106 $170 forward $164 $-1 #
edge $-1 $261 -8.9033658465053147e-016 $261 6.2831853071795996 $169 $262 forward 7 unknown #
face $-1 $263 $264 $36 $-1 $265 forward single #
loop $-1 $-1 $266 $107 #
plane-surface $-1 28.840342550686675 72.149585884616855 89.049315669533584 -1 0 0 0 0.83867057594974714 0.54463902268945019 forward_v I I I I #
coedge $-1 $267 $268 $269 $270 reversed $108 $-1 #
coedge $-1 $176 $110 $271 $272 reversed $69 $-1 #
coedge $-1 $110 $175 $267 $273 reversed $69 $-1 #
coedge $-1 $269 $274 $110 $178 forward $264 $-1 #
edge $-1 $275 11.905937146704655 $276 17.645346051595759 $177 $277 forward 7 unknown #
loop $-1 $-1 $184 $111 #
plane-surface $-1 23.230174332454716 -2.1577482044760075 40.793570234430838 0 0.83867057594974714 0.54463902268945019 1 0 0 forward_v I I I I #
loop $-1 $-1 $278 $71 #
coedge $-1 $182 $182 $183 $279 reversed $112 $-1 #
coedge $-1 $183 $183 $182 $279 forward $114 $-1 #
coedge $-1 $184 $184 $115 $185 forward $179 $-1 #
edge $-1 $280 -8.9033658465053147e-016 $280 6.2831853071795996 $184 $281 forward 7 unknown #
loop $-1 $-1 $191 $116 #
plane-surface $-1 23.230174332454716 -2.1577482044760075 40.793570234430838 0 0.83867057594974714 0.54463902268945019 1 0 0 forward_v I I I I #
loop $-1 $-1 $282 $74 #
coedge $-1 $189 $189 $190 $283 reversed $117 $-1 #
coedge $-1 $190 $190 $189 $283 forward $119 $-1 #
coedge $-1 $191 $191 $120 $192 forward $186 $-1 #
edge $-1 $284 -8.9033658465053147e-016 $284 6.2831853071795996 $191 $285 forward 7 unknown #
loop $-1 $-1 $198 $121 #
plane-surface $-1 23.230174332454716 -2.1577482044760075 40.793570234430838 0 0.83867057594974714 0.54463902268945019 1 0 0 forward_v I I I I #
loop $-1 $-1 $286 $77 #
coedge $-1 $196 $196 $197 $287 reversed $122 $-1 #
coedge $-1 $197 $197 $196 $287 forward $124 $-1 #
coedge $-1 $198 $198 $125 $199 forward $193 $-1 #
edge $-1 $288 -8.9033658465053147e-016 $288 6.2831853071795996 $198 $289 forward 7 unknown #
face $-1 $290 $291 $30 $-1 $292 reversed single #
loop $-1 $-1 $293 $126 #
plane-surface $-1 -44.300668355357523 0 0 1 0 0 0 0 -1 forward_v I I I I #
coedge $-1 $294 $211 $295 $296 forward $127 $-1 #
coedge $-1 $297 $129 $294 $298 forward $81 $-1 #
coedge $-1 $129 $297 $299 $300 forward $81 $-1 #
coedge $-1 $214 $213 $129 $207 reversed $215 $-1 #
edge $-1 $301 -24.168855795603772 $302 24.168855795603772 $206 $303 forward 7 unknown #
coedge $-1 $131 $130 $304 $305 forward $51 $-1 #
coedge $-1 $306 $307 $130 $210 reversed $291 $-1 #
edge $-1 $217 -44.300668355357523 $308 44.300668355357523 $209 $309 forward 7 unknown #
coedge $-1 $203 $310 $131 $212 reversed $127 $-1 #
edge $-1 $311 -44.300668355357523 $216 44.300668355357523 $211 $312 forward 7 unknown #
coedge $-1 $206 $132 $310 $313 forward $215 $-1 #
coedge $-1 $132 $206 $306 $314 reversed $215 $-1 #
loop $-1 $-1 $213 $290 #
vertex $-1 $133 $315 #
vertex $-1 $133 $316 #
straight-curve $-1 44.300668355357523 0 9.0920687841453116 0 1 0 I I #
face $-1 $317 $318 $31 $-1 $319 reversed single #
loop $-1 $-1 $320 $134 #
plane-surface $-1 0 -24.168855795603772 0 0 1 0 0 0 1 forward_v I I I I #
coedge $-1 $225 $140 $321 $322 reversed $135 $-1 #
coedge $-1 $323 $137 $320 $324 reversed $85 $-1 #
coedge $-1 $137 $323 $325 $326 reversed $85 $-1 #
coedge $-1 $232 $222 $137 $226 reversed $135 $-1 #
edge $-1 $327 -24.168855795603772 $328 24.168855795603772 $225 $329 forward 7 unknown #
coedge $-1 $139 $138 $330 $331 reversed $54 $-1 #
coedge $-1 $332 $333 $138 $229 forward $334 $-1 #
edge $-1 $335 -25.136707093649648 $234 -13.191215429766103 $228 $336 forward 7 unknown #
coedge $-1 $337 $321 $139 $231 forward $220 $-1 #
edge $-1 $233 13.191215429766103 $338 25.136707093649648 $230 $339 forward 7 unknown #
coedge $-1 $140 $225 $332 $340 reversed $135 $-1 #
vertex $-1 $231 $341 #
vertex $-1 $229 $342 #
straight-curve $-1 -32.355176691473979 0 -0.0073422028712744059 0 1 0 I I #
face $-1 $-1 $343 $32 $-1 $344 reversed single #
loop $-1 $-1 $148 $142 #
plane-surface $-1 0 0 9.0920687841453116 0 0 1 1 0 0 forward_v I I I I #
coedge $-1 $345 $346 $347 $348 reversed $143 $-1 #
coedge $-1 $349 $145 $147 $246 forward $89 $-1 #
coedge $-1 $145 $349 $345 $350 forward $89 $-1 #
coedge $-1 $347 $148 $145 $243 forward $237 $-1 #
edge $-1 $249 -11.252509552517544 $351 -0.032173116053627382 $242 $352 forward 7 unknown #
coedge $-1 $353 $354 $146 $245 forward $343 $-1 #
edge $-1 $355 -44.270504020626746 $248 -35.43258905062148 $244 $356 forward 7 unknown #
edge $-1 $249 37.799706296343309 $355 48.337711591207537 $147 $357 forward 7 unknown #
coedge $-1 $148 $347 $353 $358 forward $237 $-1 #
vertex $-1 $245 $359 #
vertex $-1 $149 $360 #
straight-curve $-1 -16.89485088680313 36.074792942308427 9.0920687841453116 0 -1 0 I I #
coedge $-1 $251 $251 $-1 $361 reversed $152 $-1 #
edge $-1 $362 0 $362 6.2831853071796004 $153 $363 forward 7 unknown #
vertex $-1 $156 $364 #
ellipse-curve $-1 -14.650783599510351 21.299151343158226 4.6731112991426755 0 0.83867057594974714 0.54463902268945019 0.5 0 0 1 I I #
coedge $-1 $255 $255 $-1 $365 reversed $159 $-1 #
edge $-1 $366 0 $366 6.2831853071796004 $160 $367 forward 7 unknown #
vertex $-1 $163 $368 #
ellipse-curve $-1 -11.284682668571179 21.299151343158226 4.6731112991426755 0 0.83867057594974714 0.54463902268945019 0.5 0 0 1 I I #
coedge $-1 $259 $259 $-1 $369 reversed $166 $-1 #
edge $-1 $370 0 $370 6.2831853071796004 $167 $371 forward 7 unknown #
vertex $-1 $170 $372 #
ellipse-curve $-1 -7.9185817376320031 21.299151343158226 4.6731112991426755 0 0.83867057594974714 0.54463902268945019 0.5 0 0 1 I I #
face $-1 $-1 $373 $36 $-1 $374 reversed single #
loop $-1 $-1 $177 $171 #
plane-surface $-1 0 0 9.0920687841453116 0 0 1 1 0 0 forward_v I I I I #
coedge $-1 $375 $376 $377 $378 reversed $172 $-1 #
coedge $-1 $379 $174 $176 $273 forward $108 $-1 #
coedge $-1 $174 $379 $375 $380 forward $108 $-1 #
coedge $-1 $377 $177 $174 $270 forward $264 $-1 #
edge $-1 $276 6.0049189479953995 $381 17.225255384459317 $269 $382 forward 7 unknown #
coedge $-1 $383 $384 $175 $272 forward $373 $-1 #
edge $-1 $385 -44.270504020626746 $275 -35.43258905062148 $271 $386 forward 7 unknown #
edge $-1 $276 37.799706296343309 $385 48.337711591207537 $176 $387 forward 7 unknown #
coedge $-1 $177 $377 $383 $388 forward $264 $-1 #
vertex $-1 $178 $389 #
vertex $-1 $178 $390 #
straight-curve $-1 17.620006114222758 36.074792942308427 9.0920687841453116 0 -1 0 I I #
coedge $-1 $278 $278 $-1 $391 reversed $181 $-1 #
edge $-1 $392 0 $392 6.2831853071796004 $182 $393 forward 7 unknown #
vertex $-1 $185 $394 #
ellipse-curve $-1 19.864073401515533 21.299151343158226 4.6731112991426755 0 0.83867057594974714 0.54463902268945019 0.5 0 0 1 I I #
coedge $-1 $282 $282 $-1 $395 reversed $188 $-1 #
edge $-1 $396 0 $396 6.2831853071796004 $189 $397 forward 7 unknown #
vertex $-1 $192 $398 #
ellipse-curve $-1 23.230174332454702 21.299151343158226 4.6731112991426755 0 0.83867057594974714 0.54463902268945019 0.5 0 0 1 I I #
coedge $-1 $286 $286 $-1 $399 reversed $195 $-1 #
edge $-1 $400 0 $400 6.2831853071796004 $196 $401 forward 7 unknown #
vertex $-1 $199 $402 #
ellipse-curve $-1 26.596275263393885 21.299151343158226 4.6731112991426755 0 0.83867057594974714 0.54463902268945019 0.5 0 0 1 I I #
face $-1 $-1 $215 $30 $-1 $403 reversed single #
loop $-1 $-1 $306 $200 #
plane-surface $-1 0 24.168855795603772 0 0 -1 0 0 0 -1 forward_v I I I I #
coedge $-1 $404 $304 $307 $405 forward $201 $-1 #
coedge $-1 $310 $203 $204 $298 reversed $127 $-1 #
coedge $-1 $304 $404 $203 $296 reversed $201 $-1 #
edge $-1 $311 -9.0920687841453116 $406 9.0920687841453116 $295 $407 forward 7 unknown #
coedge $-1 $205 $204 $404 $408 forward $81 $-1 #
edge $-1 $302 -44.300668355357523 $406 44.300668355357523 $294 $409 forward 7 unknown #
coedge $-1 $307 $306 $205 $300 reversed $291 $-1 #
edge $-1 $410 -44.300668355357523 $301 44.300668355357523 $299 $411 forward 7 unknown #
vertex $-1 $207 $412 #
vertex $-1 $313 $413 #
straight-curve $-1 44.300668355357523 0 -9.0920687841453116 0 -1 0 I I #
coedge $-1 $293 $295 $208 $305 reversed $201 $-1 #
edge $-1 $308 -24.168855795603772 $311 24.168855795603772 $304 $414 forward 7 unknown #
coedge $-1 $299 $209 $214 $314 forward $291 $-1 #
coedge $-1 $209 $299 $293 $405 reversed $291 $-1 #
vertex $-1 $210 $415 #
straight-curve $-1 0 24.168855795603772 9.0920687841453116 -1 0 0 I I #
coedge $-1 $211 $294 $213 $313 reversed $127 $-1 #
vertex $-1 $305 $416 #
straight-curve $-1 0 -24.168855795603772 9.0920687841453116 1 0 0 I I #
edge $-1 $216 -9.0920687841453116 $302 9.0920687841453116 $213 $417 forward 7 unknown #
edge $-1 $217 -9.0920687841453116 $301 9.0920687841453116 $214 $418 forward 7 unknown #
point $-1 44.300668355357523 -24.168855795603772 9.0920687841453116 #
point $-1 44.300668355357523 24.168855795603772 9.0920687841453116 #
face $-1 $-1 $334 $31 $-1 $419 reversed single #
loop $-1 $-1 $420 $219 #
plane-surface $-1 -44.300668355357523 0 0 1 0 0 0 0 -1 forward_v I I I I #
coedge $-1 $321 $337 $223 $324 forward $220 $-1 #
coedge $-1 $230 $320 $222 $322 forward $220 $-1 #
edge $-1 $328 -3.9427675176484263 $233 1.3093610373019593 $321 $421 forward 7 unknown #
coedge $-1 $224 $223 $420 $422 reversed $85 $-1 #
edge $-1 $423 -25.136707093649648 $328 -13.191215429766103 $320 $424 forward 7 unknown #
coedge $-1 $333 $332 $224 $326 forward $334 $-1 #
edge $-1 $327 13.191215429766103 $425 25.136707093649648 $325 $426 forward 7 unknown #
vertex $-1 $326 $427 #
vertex $-1 $324 $428 #
straight-curve $-1 -32.355176691473979 0 -5.25947075782166 0 -1 0 I I #
coedge $-1 $429 $430 $227 $331 forward $318 $-1 #
edge $-1 $338 -24.168855795603772 $335 24.168855795603772 $330 $431 forward 7 unknown #
coedge $-1 $325 $228 $232 $340 forward $334 $-1 #
coedge $-1 $228 $325 $429 $432 reversed $334 $-1 #
loop $-1 $-1 $325 $317 #
vertex $-1 $432 $433 #
straight-curve $-1 -19.163961261707875 24.168855795603772 -0.0073422028712744059 1 0 0 I I #
coedge $-1 $320 $230 $430 $434 forward $220 $-1 #
vertex $-1 $434 $435 #
straight-curve $-1 -19.163961261707875 -24.168855795603772 -0.0073422028712744059 -1 0 0 I I #
edge $-1 $234 -1.3093610373019593 $327 3.9427675176484263 $332 $436 forward 7 unknown #
point $-1 -32.355176691473979 -24.168855795603772 -0.0073422028712744059 #
point $-1 -32.355176691473979 24.168855795603772 -0.0073422028712744059 #
loop $-1 $-1 $244 $236 #
plane-surface $-1 0 24.168855795603772 0 0 -1 0 0 0 -1 forward_v I I I I #
coedge $-1 $346 $239 $241 $350 reversed $143 $-1 #
coedge $-1 $239 $345 $437 $438 reversed $143 $-1 #
coedge $-1 $247 $242 $239 $348 forward $237 $-1 #
edge $-1 $351 -17.645346051595759 $439 -11.905937146704655 $347 $440 forward 7 unknown #
coedge $-1 $241 $240 $354 $441 reversed $89 $-1 #
edge $-1 $442 -48.337711591207537 $351 -37.799706296343309 $345 $443 forward 7 unknown #
vertex $-1 $243 $444 #
straight-curve $-1 -5.6423413342855859 18.429446890712669 9.0920687841453116 1 0 0 I I #
coedge $-1 $437 $244 $247 $358 reversed $343 $-1 #
coedge $-1 $244 $437 $349 $441 forward $343 $-1 #
vertex $-1 $245 $445 #
straight-curve $-1 -16.89485088680313 24.168855795603772 44.524657834766792 0 0 1 I I #
straight-curve $-1 -16.89485088680313 -2.1577482044760075 40.793570234430838 0 0.54463902268945019 -0.83867057594974714 I I #
edge $-1 $439 5.6745144503392133 $248 16.89485088680313 $353 $446 forward 7 unknown #
point $-1 -16.89485088680313 24.168855795603772 9.0920687841453116 #
point $-1 -16.89485088680313 18.429446890712669 9.0920687841453116 #
edge $-1 $447 1 $447 0 $251 $-1 forward 7 unknown #
vertex $-1 $252 $448 #
ellipse-curve $-1 -14.650783599510351 19.926876709241608 3.7819457605979525 0 0.83867057594974714 0.54463902268945019 0.5 0 0 1 I I #
point $-1 -14.150783599510351 21.299151343158222 4.6731112991426738 #
edge $-1 $449 1 $449 0 $255 $-1 forward 7 unknown #
vertex $-1 $256 $450 #
ellipse-curve $-1 -11.284682668571179 19.926876709241608 3.7819457605979525 0 0.83867057594974714 0.54463902268945019 0.5 0 0 1 I I #
point $-1 -10.784682668571179 21.299151343158222 4.6731112991426738 #
edge $-1 $451 1 $451 0 $259 $-1 forward 7 unknown #
vertex $-1 $260 $452 #
ellipse-curve $-1 -7.9185817376320031 19.926876709241608 3.7819457605979525 0 0.83867057594974714 0.54463902268945019 0.5 0 0 1 I I #
point $-1 -7.4185817376320031 21.299151343158222 4.6731112991426738 #
loop $-1 $-1 $271 $263 #
plane-surface $-1 0 24.168855795603772 0 0 -1 0 0 0 -1 forward_v I I I I #
coedge $-1 $376 $266 $268 $380 reversed $172 $-1 #
coedge $-1 $266 $375 $453 $454 reversed $172 $-1 #
coedge $-1 $274 $269 $266 $378 forward $264 $-1 #
edge $-1 $381 -17.645346051595759 $455 -11.905937146704655 $377 $456 forward 7 unknown #
coedge $-1 $268 $267 $384 $457 reversed $108 $-1 #
edge $-1 $458 -48.337711591207537 $381 -37.799706296343309 $375 $459 forward 7 unknown #
vertex $-1 $270 $460 #
straight-curve $-1 11.615087166227358 18.429446890712669 9.0920687841453116 1 0 0 I I #
coedge $-1 $453 $271 $274 $388 reversed $373 $-1 #
coedge $-1 $271 $453 $379 $457 forward $373 $-1 #
vertex $-1 $272 $461 #
straight-curve $-1 17.620006114222758 24.168855795603772 44.524657834766792 0 0 1 I I #
straight-curve $-1 17.620006114222758 -2.1577482044760075 40.793570234430838 0 0.54463902268945019 -0.83867057594974714 I I #
edge $-1 $455 -28.840342550686675 $275 -17.620006114222758 $383 $462 forward 7 unknown #
point $-1 17.620006114222758 24.168855795603772 9.0920687841453116 #
point $-1 17.620006114222758 18.429446890712669 9.0920687841453116 #
edge $-1 $463 1 $463 0 $278 $-1 forward 7 unknown #
vertex $-1 $279 $464 #
ellipse-curve $-1 19.864073401515533 19.926876709241608 3.7819457605979525 0 0.83867057594974714 0.54463902268945019 0.5 0 0 1 I I #
point $-1 20.364073401515533 21.299151343158222 4.6731112991426738 #
edge $-1 $465 1 $465 0 $282 $-1 forward 7 unknown #
vertex $-1 $283 $466 #
ellipse-curve $-1 23.230174332454702 19.926876709241608 3.7819457605979525 0 0.83867057594974714 0.54463902268945019 0.5 0 0 1 I I #
point $-1 23.730174332454702 21.299151343158222 4.6731112991426738 #
edge $-1 $467 1 $467 0 $286 $-1 forward 7 unknown #
vertex $-1 $287 $468 #
ellipse-curve $-1 26.596275263393885 19.926876709241608 3.7819457605979525 0 0.83867057594974714 0.54463902268945019 0.5 0 0 1 I I #
point $-1 27.096275263393885 21.299151343158222 4.6731112991426738 #
plane-surface $-1 44.300668355357523 0 0 -1 0 0 0 0 1 forward_v I I I I #
coedge $-1 $295 $293 $297 $408 reversed $201 $-1 #
edge $-1 $308 -9.0920687841453116 $410 9.0920687841453116 $307 $469 forward 7 unknown #
vertex $-1 $408 $470 #
straight-curve $-1 -44.300668355357523 -24.168855795603772 0 0 0 -1 I I #
edge $-1 $406 -24.168855795603772 $410 24.168855795603772 $404 $471 forward 7 unknown #
straight-curve $-1 0 -24.168855795603772 -9.0920687841453116 -1 0 0 I I #
vertex $-1 $300 $472 #
straight-curve $-1 0 24.168855795603772 -9.0920687841453116 1 0 0 I I #
point $-1 44.300668355357523 24.168855795603772 -9.0920687841453116 #
point $-1 44.300668355357523 -24.168855795603772 -9.0920687841453116 #
straight-curve $-1 -44.300668355357523 0 9.0920687841453116 0 -1 0 I I #
point $-1 -44.300668355357523 24.168855795603772 9.0920687841453116 #
point $-1 -44.300668355357523 -24.168855795603772 9.0920687841453116 #
straight-curve $-1 44.300668355357523 -24.168855795603772 0 0 0 -1 I I #
straight-curve $-1 44.300668355357523 24.168855795603772 0 0 0 -1 I I #
plane-surface $-1 0 24.168855795603772 0 0 -1 0 0 0 -1 forward_v I I I I #
coedge $-1 $430 $429 $323 $422 forward $318 $-1 #
straight-curve $-1 -32.355176691473979 -24.168855795603772 -1.3167032401732337 0 0 1 I I #
edge $-1 $425 -24.168855795603772 $423 24.168855795603772 $420 $473 forward 7 unknown #
vertex $-1 $324 $474 #
straight-curve $-1 -19.163961261707875 -24.168855795603772 -5.25947075782166 1 0 0 I I #
vertex $-1 $326 $475 #
straight-curve $-1 -19.163961261707875 24.168855795603772 -5.25947075782166 -1 0 0 I I #
point $-1 -32.355176691473979 24.168855795603772 -5.25947075782166 #
point $-1 -32.355176691473979 -24.168855795603772 -5.25947075782166 #
coedge $-1 $420 $330 $333 $432 forward $318 $-1 #
coedge $-1 $330 $420 $337 $434 reversed $318 $-1 #
straight-curve $-1 -44.300668355357523 0 -0.0073422028712744059 0 1 0 I I #
edge $-1 $335 0.0073422028712744059 $425 5.25947075782166 $333 $476 forward 7 unknown #
point $-1 -44.300668355357523 24.168855795603772 -0.0073422028712744059 #
edge $-1 $338 0.0073422028712744059 $423 5.25947075782166 $430 $477 forward 7 unknown #
point $-1 -44.300668355357523 -24.168855795603772 -0.0073422028712744059 #
straight-curve $-1 -32.355176691473979 24.168855795603772 -1.3167032401732337 0 0 -1 I I #
coedge $-1 $354 $353 $346 $438 forward $343 $-1 #
edge $-1 $439 35.43258905062148 $442 44.270504020626746 $437 $478 forward 7 unknown #
vertex $-1 $358 $479 #
straight-curve $-1 -5.6745144503392133 36.074792942308427 9.0920687841453116 0 1 0 I I #
edge $-1 $442 0.032173116053627382 $355 11.252509552517544 $354 $480 forward 7 unknown #
vertex $-1 $441 $481 #
straight-curve $-1 -5.6745144503392133 -2.1577482044760075 40.793570234430838 0 -0.54463902268945019 0.83867057594974714 I I #
point $-1 -5.6745144503392133 18.429446890712669 9.0920687841453116 #
point $-1 -16.89485088680313 24.168855795603772 0.25415381414004656 #
straight-curve $-1 0 24.168855795603772 9.0920687841453116 -1 0 0 I I #
vertex $-1 $361 $482 #
point $-1 -14.150783599510351 19.926876709241608 3.7819457605979525 #
vertex $-1 $365 $483 #
point $-1 -10.784682668571179 19.926876709241608 3.7819457605979525 #
vertex $-1 $369 $484 #
point $-1 -7.4185817376320031 19.926876709241608 3.7819457605979525 #
coedge $-1 $384 $383 $376 $454 forward $373 $-1 #
edge $-1 $455 35.43258905062148 $458 44.270504020626746 $453 $485 forward 7 unknown #
vertex $-1 $388 $486 #
straight-curve $-1 28.840342550686675 36.074792942308427 9.0920687841453116 0 1 0 I I #
edge $-1 $458 -17.225255384459317 $385 -6.0049189479953995 $384 $487 forward 7 unknown #
vertex $-1 $457 $488 #
straight-curve $-1 28.840342550686675 -2.1577482044760075 40.793570234430838 0 -0.54463902268945019 0.83867057594974714 I I #
point $-1 28.840342550686675 18.429446890712669 9.0920687841453116 #
point $-1 17.620006114222758 24.168855795603772 0.25415381414004656 #
straight-curve $-1 0 24.168855795603772 9.0920687841453116 -1 0 0 I I #
vertex $-1 $391 $489 #
point $-1 20.364073401515533 19.926876709241608 3.7819457605979525 #
vertex $-1 $395 $490 #
point $-1 23.730174332454702 19.926876709241608 3.7819457605979525 #
vertex $-1 $399 $491 #
point $-1 27.096275263393885 19.926876709241608 3.7819457605979525 #
straight-curve $-1 -44.300668355357523 24.168855795603772 0 0 0 -1 I I #
point $-1 -44.300668355357523 -24.168855795603772 -9.0920687841453116 #
straight-curve $-1 -44.300668355357523 0 -9.0920687841453116 0 1 0 I I #
point $-1 -44.300668355357523 24.168855795603772 -9.0920687841453116 #
straight-curve $-1 -44.300668355357523 0 -5.25947075782166 0 -1 0 I I #
point $-1 -44.300668355357523 -24.168855795603772 -5.25947075782166 #
point $-1 -44.300668355357523 24.168855795603772 -5.25947075782166 #
straight-curve $-1 -44.300668355357523 24.168855795603772 0 0 0 -1 I I #
straight-curve $-1 -44.300668355357523 -24.168855795603772 0 0 0 -1 I I #
straight-curve $-1 -5.6745144503392133 24.168855795603772 44.524657834766792 0 0 -1 I I #
point $-1 -5.6745144503392133 24.168855795603772 9.0920687841453116 #
straight-curve $-1 -5.6423413342855859 24.168855795603772 0.25415381414005012 -1 0 0 I I #
point $-1 -5.6745144503392133 24.168855795603772 0.25415381414004656 #
point $-1 -14.650783599510351 19.507541421266733 3.5096262492532273 #
point $-1 -11.284682668571179 19.507541421266733 3.5096262492532273 #
point $-1 -7.9185817376320031 19.507541421266733 3.5096262492532273 #
straight-curve $-1 28.840342550686675 24.168855795603772 44.524657834766792 0 0 -1 I I #
point $-1 28.840342550686675 24.168855795603772 9.0920687841453116 #
straight-curve $-1 11.615087166227358 24.168855795603772 0.25415381414005012 -1 0 0 I I #
point $-1 28.840342550686675 24.168855795603772 0.25415381414004656 #
point $-1 19.864073401515533 19.507541421266733 3.5096262492532273 #
point $-1 23.230174332454702 19.507541421266733 3.5096262492532273 #
point $-1 26.596275263393885 19.507541421266733 3.5096262492532273 #
End-of-ACIS-data 