500 0 12 0           
7 Unknown 11 ACIS 5.0 NT 24 Fri Mar 26 20:20:38 1999 
-1 9.9999999999999995e-007 1e-010 
body $-1 $12 $-1 $13 #
body $-1 $14 $-1 $15 #
body $-1 $16 $-1 $17 #
body $-1 $18 $-1 $19 #
body $-1 $20 $-1 $21 #
body $-1 $22 $-1 $23 #
body $-1 $24 $-1 $25 #
body $-1 $26 $-1 $27 #
body $-1 $28 $-1 $29 #
body $-1 $30 $-1 $31 #
body $-1 $32 $-1 $33 #
body $-1 $34 $-1 $35 #
lump $-1 $-1 $36 $0 #
transform $-1 1 0 0 0 1 0 0 0 1 79.780266731772826 46.842145927281443 10.951372640312661 1 rotate no_reflect no_shear #
lump $-1 $-1 $37 $1 #
transform $-1 1 0 0 0 1 0 0 0 1 79.780266731772826 46.842145927281443 10.951372640312661 1 rotate no_reflect no_shear #
lump $-1 $-1 $38 $2 #
transform $-1 1 0 0 0 1 0 0 0 1 79.780266731772826 46.842145927281443 10.951372640312661 1 rotate no_reflect no_shear #
lump $-1 $-1 $39 $3 #
transform $-1 1 0 0 0 1 0 0 0 1 79.780266731772826 46.842145927281443 10.951372640312661 1 rotate no_reflect no_shear #
lump $-1 $-1 $40 $4 #
transform $-1 1 0 0 0 1 0 0 0 1 79.780266731772826 46.842145927281443 10.951372640312661 1 rotate no_reflect no_shear #
lump $-1 $-1 $41 $5 #
transform $-1 1 0 0 0 1 0 0 0 1 79.780266731772826 46.842145927281443 10.951372640312661 1 rotate no_reflect no_shear #
lump $-1 $-1 $42 $6 #
transform $-1 1 0 0 0 1 0 0 0 1 79.780266731772826 46.842145927281443 10.951372640312661 1 rotate no_reflect no_shear #
lump $-1 $-1 $43 $7 #
transform $-1 1 0 0 0 1 0 0 0 1 79.780266731772826 46.842145927281443 10.951372640312661 1 rotate no_reflect no_shear #
lump $-1 $-1 $44 $8 #
transform $-1 1 0 0 0 1 0 0 0 1 79.780266731772826 46.842145927281443 10.951372640312661 1 rotate no_reflect no_shear #
lump $-1 $-1 $45 $9 #
transform $-1 1 0 0 0 1 0 0 0 1 79.780266731772826 46.842145927281443 10.951372640312661 1 rotate no_reflect no_shear #
lump $-1 $-1 $46 $10 #
transform $-1 1 0 0 0 1 0 0 0 1 79.780266731772826 46.842145927281443 10.951372640312661 1 rotate no_reflect no_shear #
lump $-1 $-1 $47 $11 #
transform $-1 1 0 0 0 1 0 0 0 1 79.780266731772826 46.842145927281443 10.951372640312661 1 rotate no_reflect no_shear #
shell $-1 $-1 $-1 $48 $-1 $12 #
shell $-1 $-1 $-1 $49 $-1 $14 #
shell $-1 $-1 $-1 $50 $-1 $16 #
shell $-1 $-1 $-1 $51 $-1 $18 #
shell $-1 $-1 $-1 $52 $-1 $20 #
shell $-1 $-1 $-1 $53 $-1 $22 #
shell $-1 $-1 $-1 $54 $-1 $24 #
shell $-1 $-1 $-1 $55 $-1 $26 #
shell $-1 $-1 $-1 $56 $-1 $28 #
shell $-1 $-1 $-1 $57 $-1 $30 #
shell $-1 $-1 $-1 $58 $-1 $32 #
shell $-1 $-1 $-1 $59 $-1 $34 #
face $-1 $60 $61 $36 $-1 $62 reversed single #
face $-1 $63 $64 $37 $-1 $65 forward single #
face $-1 $66 $67 $38 $-1 $68 reversed single #
face $-1 $69 $70 $39 $-1 $71 forward single #
face $-1 $72 $73 $40 $-1 $74 forward single #
face $-1 $75 $76 $41 $-1 $77 reversed single #
face $-1 $78 $79 $42 $-1 $80 forward single #
face $-1 $81 $82 $43 $-1 $83 forward single #
face $-1 $84 $85 $44 $-1 $86 reversed single #
face $-1 $87 $88 $45 $-1 $89 forward single #
face $-1 $90 $91 $46 $-1 $92 forward single #
face $-1 $93 $94 $47 $-1 $95 forward single #
face $-1 $96 $97 $36 $-1 $98 forward single #
loop $-1 $-1 $99 $48 #
plane-surface $-1 0 -46.842145927281443 0 0 1 0 0 0 1 forward_v I I I I #
face $-1 $100 $101 $37 $-1 $102 reversed single #
loop $-1 $-1 $103 $49 #
plane-surface $-1 0 -46.842145927281443 0 0 1 0 0 0 1 forward_v I I I I #
face $-1 $104 $105 $38 $-1 $106 reversed single #
loop $-1 $-1 $107 $50 #
plane-surface $-1 -169.00538587822462 -32.973098266339306 133.74591138105137 0 1 0 -0.55919291073839883 0 0.82903756765294845 forward_v I I I I #
face $-1 $108 $109 $39 $-1 $110 forward single #
loop $-1 $111 $112 $51 #
cone-surface $-1 -72.09009828065129 -27.856050520403333 5.2329628799130106 0.55919291073839883 0 -0.82903756765294845 1.2435563514794228 0 0.83878936610759824 1 I I 0 1 1.5 forward I I I I #
face $-1 $113 $114 $40 $-1 $115 forward single #
loop $-1 $116 $117 $52 #
cone-surface $-1 -72.09009828065129 -20.18047890149937 5.2329628799130106 0.55919291073839883 0 -0.82903756765294845 1.2435563514794228 0 0.83878936610759824 1 I I 0 1 1.5 forward I I I I #
face $-1 $118 $119 $41 $-1 $120 reversed single #
loop $-1 $-1 $121 $53 #
plane-surface $-1 -169.00538587822462 26.107897314819894 133.74591138105137 0 1 0 -0.55919291073839883 0 0.82903756765294845 forward_v I I I I #
face $-1 $122 $123 $42 $-1 $124 forward single #
loop $-1 $125 $126 $54 #
cone-surface $-1 -72.09009828065129 31.224945060755864 5.2329628799130106 0.55919291073839883 0 -0.82903756765294845 1.2435563514794228 0 0.83878936610759824 1 I I 0 1 1.5 forward I I I I #
face $-1 $127 $128 $43 $-1 $129 forward single #
loop $-1 $130 $131 $55 #
cone-surface $-1 -72.09009828065129 38.900516679659837 5.2329628799130106 0.55919291073839883 0 -0.82903756765294845 1.2435563514794228 0 0.83878936610759824 1 I I 0 1 1.5 forward I I I I #
face $-1 $132 $133 $44 $-1 $134 reversed single #
loop $-1 $-1 $135 $56 #
plane-surface $-1 48.375486977961344 18.461646091195128 227.57415791847052 0 -1 0 -0.6018150307709319 0 -0.79863550430605224 forward_v I I I I #
face $-1 $136 $137 $45 $-1 $138 forward single #
loop $-1 $139 $140 $57 #
cone-surface $-1 74.265331702921628 3.6996163734984364 6.2332500620240028 -0.6018150307709319 0 -0.79863550430605224 1.1979532564590785 0 -0.90272254615639791 1 I I 0 1 1.5 forward I I I I #
face $-1 $141 $142 $46 $-1 $143 forward single #
loop $-1 $144 $145 $58 #
cone-surface $-1 74.265331702921628 9.2353775176346957 6.2332500620240028 -0.6018150307709319 0 -0.79863550430605224 1.1979532564590785 0 -0.90272254615639791 1 I I 0 1 1.5 forward I I I I #
face $-1 $146 $147 $47 $-1 $148 forward single #
loop $-1 $149 $150 $59 #
cone-surface $-1 74.265331702921628 14.771138661770955 6.2332500620240028 -0.6018150307709319 0 -0.79863550430605224 1.1979532564590785 0 -0.90272254615639791 1 I I 0 1 1.5 forward I I I I #
face $-1 $151 $152 $36 $-1 $153 reversed single #
loop $-1 $-1 $154 $60 #
plane-surface $-1 0 0 10.951372640312661 0 0 1 1 0 0 forward_v I I I I #
coedge $-1 $155 $156 $157 $158 reversed $61 $-1 #
face $-1 $159 $160 $37 $-1 $161 reversed single #
loop $-1 $-1 $162 $63 #
plane-surface $-1 0 0 -10.951372640312661 0 0 1 1 0 0 forward_v I I I I #
coedge $-1 $163 $164 $165 $166 forward $64 $-1 #
face $-1 $167 $168 $38 $-1 $169 reversed single #
loop $-1 $-1 $170 $66 #
plane-surface $-1 -79.780266731772826 -24.01826471095135 1.4642348250266082 -0.55919291073839883 0 0.82903756765294845 0.82903756765294845 0 0.55919291073839883 forward_v I I I I #
coedge $-1 $171 $172 $173 $174 reversed $67 $-1 #
face $-1 $-1 $175 $39 $-1 $176 forward single #
loop $-1 $177 $178 $69 #
cone-surface $-1 -71.013165127413373 -27.856050520403333 3.6363438514166777 0.55919291073839883 0 -0.82903756765294845 0.62177817573971139 0 0.41939468305379912 1 I I -0.70710678118654757 0.70710678118654757 0.75 forward I I I I #
loop $-1 $-1 $179 $51 #
coedge $-1 $112 $112 $180 $181 reversed $70 $-1 #
face $-1 $-1 $182 $40 $-1 $183 forward single #
loop $-1 $184 $185 $72 #
cone-surface $-1 -71.013165127413373 -20.18047890149937 3.6363438514166777 0.55919291073839883 0 -0.82903756765294845 0.62177817573971139 0 0.41939468305379912 1 I I -0.70710678118654757 0.70710678118654757 0.75 forward I I I I #
loop $-1 $-1 $186 $52 #
coedge $-1 $117 $117 $187 $188 reversed $73 $-1 #
face $-1 $189 $190 $41 $-1 $191 reversed single #
loop $-1 $-1 $192 $75 #
plane-surface $-1 -79.780266731772826 35.062730870207851 1.4642348250266082 -0.55919291073839883 0 0.82903756765294845 0.82903756765294845 0 0.55919291073839883 forward_v I I I I #
coedge $-1 $193 $194 $195 $196 reversed $76 $-1 #
face $-1 $-1 $197 $42 $-1 $198 forward single #
loop $-1 $199 $200 $78 #
cone-surface $-1 -71.013165127413373 31.224945060755864 3.6363438514166777 0.55919291073839883 0 -0.82903756765294845 0.62177817573971139 0 0.41939468305379912 1 I I -0.70710678118654757 0.70710678118654757 0.75 forward I I I I #
loop $-1 $-1 $201 $54 #
coedge $-1 $126 $126 $202 $203 reversed $79 $-1 #
face $-1 $-1 $204 $43 $-1 $205 forward single #
loop $-1 $206 $207 $81 #
cone-surface $-1 -71.013165127413373 38.900516679659837 3.6363438514166777 0.55919291073839883 0 -0.82903756765294845 0.62177817573971139 0 0.41939468305379912 1 I I -0.70710678118654757 0.70710678118654757 0.75 forward I I I I #
loop $-1 $-1 $208 $55 #
coedge $-1 $131 $131 $209 $210 reversed $82 $-1 #
face $-1 $211 $212 $44 $-1 $213 reversed single #
loop $-1 $-1 $214 $84 #
plane-surface $-1 -47.650440378228694 9.2353775176346957 100.14345080846901 0.6018150307709319 0 0.79863550430605224 0.79863550430605224 0 -0.6018150307709319 forward_v I I I I #
coedge $-1 $215 $216 $217 $218 reversed $85 $-1 #
face $-1 $-1 $219 $45 $-1 $220 forward single #
loop $-1 $221 $222 $87 #
cone-surface $-1 72.833447399347733 3.6996163734984364 4.3330754495226333 -0.6018150307709319 0 -0.79863550430605224 0.59897662822953923 0 -0.45136127307819895 1 I I -0.70710678118654757 0.70710678118654757 0.75 forward I I I I #
loop $-1 $-1 $223 $57 #
coedge $-1 $140 $140 $224 $225 reversed $88 $-1 #
face $-1 $-1 $226 $46 $-1 $227 forward single #
loop $-1 $228 $229 $90 #
cone-surface $-1 72.833447399347733 9.2353775176346957 4.3330754495226333 -0.6018150307709319 0 -0.79863550430605224 0.59897662822953923 0 -0.45136127307819895 1 I I -0.70710678118654757 0.70710678118654757 0.75 forward I I I I #
loop $-1 $-1 $230 $58 #
coedge $-1 $145 $145 $231 $232 reversed $91 $-1 #
face $-1 $-1 $233 $47 $-1 $234 forward single #
loop $-1 $235 $236 $93 #
cone-surface $-1 72.833447399347733 14.771138661770955 4.3330754495226333 -0.6018150307709319 0 -0.79863550430605224 0.59897662822953923 0 -0.45136127307819895 1 I I -0.70710678118654757 0.70710678118654757 0.75 forward I I I I #
loop $-1 $-1 $237 $59 #
coedge $-1 $150 $150 $238 $239 reversed $94 $-1 #
face $-1 $240 $241 $36 $-1 $242 reversed single #
loop $-1 $-1 $243 $96 #
plane-surface $-1 0 0 -10.951372640312661 0 0 1 1 0 0 forward_v I I I I #
coedge $-1 $244 $245 $246 $247 forward $97 $-1 #
coedge $-1 $248 $99 $249 $250 reversed $61 $-1 #
coedge $-1 $99 $248 $251 $252 forward $61 $-1 #
coedge $-1 $253 $243 $99 $158 forward $152 $-1 #
edge $-1 $254 -79.780266731772826 $255 79.780266731772826 $99 $256 forward 7 unknown #
face $-1 $257 $258 $37 $-1 $259 reversed single #
loop $-1 $-1 $260 $100 #
plane-surface $-1 -72.291637966302346 -57.886612086537944 0 0 1 0 0 0 1 forward_v I I I I #
coedge $-1 $261 $262 $164 $263 forward $101 $-1 #
coedge $-1 $264 $103 $265 $266 reversed $64 $-1 #
coedge $-1 $103 $264 $162 $263 reversed $64 $-1 #
coedge $-1 $267 $268 $103 $166 reversed $258 $-1 #
edge $-1 $269 -10.951372640312661 $270 10.951372640312661 $165 $271 forward 7 unknown #
face $-1 $272 $273 $38 $-1 $274 reversed single #
loop $-1 $-1 $275 $104 #
plane-surface $-1 -169.00538587822462 -15.063431155563391 133.74591138105137 0 -1 0 0.55919291073839883 0 -0.82903756765294845 forward_v I I I I #
coedge $-1 $276 $277 $278 $279 reversed $105 $-1 #
coedge $-1 $172 $107 $280 $281 reversed $67 $-1 #
coedge $-1 $107 $171 $276 $282 reversed $67 $-1 #
coedge $-1 $278 $283 $107 $174 forward $284 $-1 #
edge $-1 $285 4.7224262073394812 $286 18.787686169214325 $173 $287 forward 7 unknown #
loop $-1 $-1 $180 $108 #
plane-surface $-1 -79.780266731772826 -24.01826471095135 1.4642348250266082 -0.55919291073839883 0 0.82903756765294845 0.82903756765294845 0 0.55919291073839883 forward_v I I I I #
loop $-1 $-1 $288 $69 #
coedge $-1 $178 $178 $179 $289 reversed $109 $-1 #
coedge $-1 $179 $179 $178 $289 forward $111 $-1 #
coedge $-1 $180 $180 $112 $181 forward $175 $-1 #
edge $-1 $290 0 $290 6.2831853071796004 $180 $291 forward 7 unknown #
loop $-1 $-1 $187 $113 #
plane-surface $-1 -79.780266731772826 -24.01826471095135 1.4642348250266082 -0.55919291073839883 0 0.82903756765294845 0.82903756765294845 0 0.55919291073839883 forward_v I I I I #
loop $-1 $-1 $292 $72 #
coedge $-1 $185 $185 $186 $293 reversed $114 $-1 #
coedge $-1 $186 $186 $185 $293 forward $116 $-1 #
coedge $-1 $187 $187 $117 $188 forward $182 $-1 #
edge $-1 $294 0 $294 6.2831853071796004 $187 $295 forward 7 unknown #
face $-1 $296 $297 $41 $-1 $298 forward single #
loop $-1 $-1 $299 $118 #
plane-surface $-1 -169.00538587822462 44.017564425595808 133.74591138105137 0 -1 0 0.55919291073839883 0 -0.82903756765294845 forward_v I I I I #
coedge $-1 $300 $301 $302 $303 reversed $119 $-1 #
coedge $-1 $194 $121 $304 $305 reversed $76 $-1 #
coedge $-1 $121 $193 $300 $306 reversed $76 $-1 #
coedge $-1 $302 $307 $121 $196 forward $297 $-1 #
edge $-1 $308 4.7224262073394812 $309 18.787686169214325 $195 $310 forward 7 unknown #
loop $-1 $-1 $202 $122 #
plane-surface $-1 -79.780266731772826 35.062730870207851 1.4642348250266082 -0.55919291073839883 0 0.82903756765294845 0.82903756765294845 0 0.55919291073839883 forward_v I I I I #
loop $-1 $-1 $311 $78 #
coedge $-1 $200 $200 $201 $312 reversed $123 $-1 #
coedge $-1 $201 $201 $200 $312 forward $125 $-1 #
coedge $-1 $202 $202 $126 $203 forward $197 $-1 #
edge $-1 $313 0 $313 6.2831853071796004 $202 $314 forward 7 unknown #
loop $-1 $-1 $209 $127 #
plane-surface $-1 -79.780266731772826 35.062730870207851 1.4642348250266082 -0.55919291073839883 0 0.82903756765294845 0.82903756765294845 0 0.55919291073839883 forward_v I I I I #
loop $-1 $-1 $315 $81 #
coedge $-1 $207 $207 $208 $316 reversed $128 $-1 #
coedge $-1 $208 $208 $207 $316 forward $130 $-1 #
coedge $-1 $209 $209 $131 $210 forward $204 $-1 #
edge $-1 $317 0 $317 6.2831853071796004 $209 $318 forward 7 unknown #
face $-1 $319 $320 $44 $-1 $321 forward single #
loop $-1 $-1 $322 $132 #
plane-surface $-1 48.375486977961344 0.0091089440742635475 227.57415791847052 0 1 0 0.6018150307709319 0 0.79863550430605224 forward_v I I I I #
coedge $-1 $323 $324 $325 $326 reversed $133 $-1 #
coedge $-1 $216 $135 $327 $328 reversed $85 $-1 #
coedge $-1 $135 $215 $323 $329 reversed $85 $-1 #
coedge $-1 $325 $330 $135 $218 forward $320 $-1 #
edge $-1 $331 -55.592523242792154 $332 -46.523699246081151 $217 $333 forward 7 unknown #
loop $-1 $-1 $224 $136 #
plane-surface $-1 -47.650440378228694 9.2353775176346957 100.14345080846901 0.6018150307709319 0 0.79863550430605224 0.79863550430605224 0 -0.6018150307709319 forward_v I I I I #
loop $-1 $-1 $334 $87 #
coedge $-1 $222 $222 $223 $335 reversed $137 $-1 #
coedge $-1 $223 $223 $222 $335 forward $139 $-1 #
coedge $-1 $224 $224 $140 $225 forward $219 $-1 #
edge $-1 $336 0 $336 6.2831853071796004 $224 $337 forward 7 unknown #
loop $-1 $-1 $231 $141 #
plane-surface $-1 -47.650440378228694 9.2353775176346957 100.14345080846901 0.6018150307709319 0 0.79863550430605224 0.79863550430605224 0 -0.6018150307709319 forward_v I I I I #
loop $-1 $-1 $338 $90 #
coedge $-1 $229 $229 $230 $339 reversed $142 $-1 #
coedge $-1 $230 $230 $229 $339 forward $144 $-1 #
coedge $-1 $231 $231 $145 $232 forward $226 $-1 #
edge $-1 $340 0 $340 6.2831853071796004 $231 $341 forward 7 unknown #
loop $-1 $-1 $238 $146 #
plane-surface $-1 -47.650440378228694 9.2353775176346957 100.14345080846901 0.6018150307709319 0 0.79863550430605224 0.79863550430605224 0 -0.6018150307709319 forward_v I I I I #
loop $-1 $-1 $342 $93 #
coedge $-1 $236 $236 $237 $343 reversed $147 $-1 #
coedge $-1 $237 $237 $236 $343 forward $149 $-1 #
coedge $-1 $238 $238 $150 $239 forward $233 $-1 #
edge $-1 $344 0 $344 6.2831853071796004 $238 $345 forward 7 unknown #
face $-1 $346 $347 $36 $-1 $348 reversed single #
loop $-1 $-1 $349 $151 #
plane-surface $-1 -79.780266731772826 0 0 1 0 0 0 0 -1 forward_v I I I I #
coedge $-1 $157 $350 $351 $352 forward $152 $-1 #
coedge $-1 $353 $154 $354 $355 forward $97 $-1 #
coedge $-1 $154 $353 $248 $356 forward $97 $-1 #
coedge $-1 $249 $357 $154 $247 reversed $358 $-1 #
edge $-1 $359 -46.842145927281443 $360 46.842145927281443 $246 $361 forward 7 unknown #
coedge $-1 $156 $155 $245 $356 reversed $61 $-1 #
coedge $-1 $351 $246 $155 $250 forward $358 $-1 #
edge $-1 $359 -10.951372640312661 $254 10.951372640312661 $249 $362 forward 7 unknown #
coedge $-1 $363 $364 $156 $252 reversed $241 $-1 #
edge $-1 $365 -10.951372640312661 $255 10.951372640312661 $251 $366 forward 7 unknown #
coedge $-1 $350 $157 $364 $367 forward $152 $-1 #
vertex $-1 $250 $368 #
vertex $-1 $367 $369 #
straight-curve $-1 0 -46.842145927281443 -10.951372640312661 -1 0 0 I I #
face $-1 $370 $371 $37 $-1 $372 reversed single #
loop $-1 $-1 $165 $159 #
plane-surface $-1 -73.791637966302346 -52.364379006909694 0 1 0 0 0 0 -1 forward_v I I I I #
coedge $-1 $373 $374 $375 $376 forward $160 $-1 #
coedge $-1 $377 $162 $378 $379 forward $101 $-1 #
coedge $-1 $162 $377 $267 $380 forward $101 $-1 #
edge $-1 $269 -73.791637966302346 $381 -70.791637966302346 $162 $382 forward 7 unknown #
coedge $-1 $164 $163 $383 $384 forward $64 $-1 #
coedge $-1 $385 $386 $163 $266 forward $387 $-1 #
edge $-1 $388 70.791637966302346 $270 73.791637966302346 $265 $389 forward 7 unknown #
coedge $-1 $375 $165 $262 $380 reversed $258 $-1 #
coedge $-1 $165 $375 $385 $390 reversed $258 $-1 #
vertex $-1 $263 $391 #
vertex $-1 $390 $392 #
straight-curve $-1 -73.791637966302346 -46.842145927281443 0 0 0 1 I I #
face $-1 $-1 $284 $38 $-1 $393 forward single #
loop $-1 $-1 $394 $167 #
plane-surface $-1 -79.780266731772826 0 0 1 0 0 0 0 -1 forward_v I I I I #
coedge $-1 $395 $396 $397 $398 reversed $168 $-1 #
coedge $-1 $399 $170 $172 $282 forward $105 $-1 #
coedge $-1 $170 $399 $395 $400 forward $105 $-1 #
coedge $-1 $397 $173 $170 $279 forward $284 $-1 #
edge $-1 $286 -20.963965910863632 $401 -3.0542988000877163 $278 $402 forward 7 unknown #
coedge $-1 $403 $404 $171 $281 forward $273 $-1 #
edge $-1 $405 -65.408720865499077 $285 -55.921583050213023 $280 $406 forward 7 unknown #
edge $-1 $286 -16.965769116705268 $405 0 $172 $407 forward 7 unknown #
coedge $-1 $173 $397 $403 $408 forward $284 $-1 #
loop $-1 $-1 $397 $272 #
vertex $-1 $281 $409 #
vertex $-1 $174 $410 #
straight-curve $-1 -84.502692939112308 -32.973098266339306 10.951372640312663 1 0 0 I I #
coedge $-1 $288 $288 $-1 $411 reversed $177 $-1 #
edge $-1 $412 0 $412 6.2831853071796004 $178 $413 forward 7 unknown #
vertex $-1 $181 $414 #
ellipse-curve $-1 -72.747636750835397 -27.856050520403333 6.2078037326696336 -0.55919291073839883 0 0.82903756765294845 1.2435563514794228 0 0.83878936610759824 1 I I #
coedge $-1 $292 $292 $-1 $415 reversed $184 $-1 #
edge $-1 $416 0 $416 6.2831853071796004 $185 $417 forward 7 unknown #
vertex $-1 $188 $418 #
ellipse-curve $-1 -72.747636750835397 -20.18047890149937 6.2078037326696336 -0.55919291073839883 0 0.82903756765294845 1.2435563514794228 0 0.83878936610759824 1 I I #
face $-1 $-1 $419 $41 $-1 $420 reversed single #
loop $-1 $-1 $195 $189 #
plane-surface $-1 0 0 10.951372640312661 0 0 1 1 0 0 forward_v I I I I #
coedge $-1 $421 $422 $423 $424 reversed $190 $-1 #
coedge $-1 $425 $192 $194 $306 forward $119 $-1 #
coedge $-1 $192 $425 $421 $426 forward $119 $-1 #
coedge $-1 $423 $195 $192 $303 forward $297 $-1 #
edge $-1 $309 8.5765318797159686 $427 26.486198990491882 $302 $428 forward 7 unknown #
coedge $-1 $429 $430 $193 $305 forward $419 $-1 #
edge $-1 $431 -65.408720865499077 $308 -55.921583050213023 $304 $432 forward 7 unknown #
edge $-1 $309 -16.965769116705268 $431 0 $194 $433 forward 7 unknown #
coedge $-1 $195 $423 $429 $434 forward $297 $-1 #
vertex $-1 $196 $435 #
vertex $-1 $196 $436 #
straight-curve $-1 -84.502692939112308 26.107897314819894 10.951372640312663 1 0 0 I I #
coedge $-1 $311 $311 $-1 $437 reversed $199 $-1 #
edge $-1 $438 0 $438 6.2831853071796004 $200 $439 forward 7 unknown #
vertex $-1 $203 $440 #
ellipse-curve $-1 -72.747636750835397 31.224945060755864 6.2078037326696336 -0.55919291073839883 0 0.82903756765294845 1.2435563514794228 0 0.83878936610759824 1 I I #
coedge $-1 $315 $315 $-1 $441 reversed $206 $-1 #
edge $-1 $442 0 $442 6.2831853071796004 $207 $443 forward 7 unknown #
vertex $-1 $210 $444 #
ellipse-curve $-1 -72.747636750835397 38.900516679659837 6.2078037326696336 -0.55919291073839883 0 0.82903756765294845 1.2435563514794228 0 0.83878936610759824 1 I I #
face $-1 $-1 $445 $44 $-1 $446 reversed single #
loop $-1 $-1 $217 $211 #
plane-surface $-1 0 0 10.951372640312661 0 0 1 1 0 0 forward_v I I I I #
coedge $-1 $447 $448 $449 $450 reversed $212 $-1 #
coedge $-1 $451 $214 $216 $329 forward $133 $-1 #
coedge $-1 $214 $451 $447 $452 forward $133 $-1 #
coedge $-1 $449 $217 $214 $326 forward $320 $-1 #
edge $-1 $332 -13.84395733237778 $453 4.6085798147430843 $325 $454 forward 7 unknown #
coedge $-1 $455 $456 $215 $328 forward $445 $-1 #
edge $-1 $457 -109.6695555069563 $331 -102.8357063189226 $327 $458 forward 7 unknown #
edge $-1 $332 148.20513547808918 $457 159.56053346354571 $216 $459 forward 7 unknown #
coedge $-1 $217 $449 $455 $460 forward $320 $-1 #
vertex $-1 $218 $461 #
vertex $-1 $218 $462 #
straight-curve $-1 24.187743488980672 18.461646091195128 10.951372640312655 -1 0 0 I I #
coedge $-1 $334 $334 $-1 $463 reversed $221 $-1 #
edge $-1 $464 0 $464 6.2831853071796004 $222 $465 forward 7 unknown #
vertex $-1 $225 $466 #
ellipse-curve $-1 75.245854733417303 3.6996163734984364 7.5344480462958181 0.6018150307709319 0 0.79863550430605224 1.1979532564590785 0 -0.90272254615639791 1 I I #
coedge $-1 $338 $338 $-1 $467 reversed $228 $-1 #
edge $-1 $468 0 $468 6.2831853071796004 $229 $469 forward 7 unknown #
vertex $-1 $232 $470 #
ellipse-curve $-1 75.245854733417303 9.2353775176346957 7.5344480462958181 0.6018150307709319 0 0.79863550430605224 1.1979532564590785 0 -0.90272254615639791 1 I I #
coedge $-1 $342 $342 $-1 $471 reversed $235 $-1 #
edge $-1 $472 0 $472 6.2831853071796004 $236 $473 forward 7 unknown #
vertex $-1 $239 $474 #
ellipse-curve $-1 75.245854733417303 14.771138661770955 7.5344480462958181 0.6018150307709319 0 0.79863550430605224 1.1979532564590785 0 -0.90272254615639791 1 I I #
face $-1 $-1 $358 $36 $-1 $475 reversed single #
loop $-1 $-1 $476 $240 #
plane-surface $-1 0 46.842145927281443 0 0 -1 0 0 0 -1 forward_v I I I I #
coedge $-1 $364 $363 $477 $478 forward $241 $-1 #
coedge $-1 $243 $253 $479 $480 forward $152 $-1 #
coedge $-1 $357 $249 $243 $352 reversed $358 $-1 #
edge $-1 $481 -46.842145927281443 $254 46.842145927281443 $351 $482 forward 7 unknown #
coedge $-1 $245 $244 $363 $483 forward $97 $-1 #
coedge $-1 $476 $477 $244 $355 reversed $347 $-1 #
edge $-1 $360 -79.780266731772826 $484 79.780266731772826 $354 $485 forward 7 unknown #
edge $-1 $365 -79.780266731772826 $359 79.780266731772826 $248 $486 forward 7 unknown #
coedge $-1 $246 $351 $476 $487 reversed $358 $-1 #
loop $-1 $-1 $249 $346 #
vertex $-1 $247 $488 #
vertex $-1 $247 $489 #
straight-curve $-1 79.780266731772826 0 10.951372640312661 0 1 0 I I #
straight-curve $-1 79.780266731772826 -46.842145927281443 0 0 0 -1 I I #
coedge $-1 $349 $251 $353 $483 reversed $241 $-1 #
coedge $-1 $251 $349 $253 $367 reversed $241 $-1 #
vertex $-1 $483 $490 #
straight-curve $-1 -79.780266731772826 -46.842145927281443 0 0 0 -1 I I #
edge $-1 $255 -46.842145927281443 $491 46.842145927281443 $364 $492 forward 7 unknown #
point $-1 79.780266731772826 -46.842145927281443 -10.951372640312661 #
point $-1 -79.780266731772826 -46.842145927281443 -10.951372640312661 #
face $-1 $-1 $387 $37 $-1 $493 forward single #
loop $-1 $-1 $494 $257 #
plane-surface $-1 -70.791637966302346 -52.364379006909694 0 -1 0 0 0 0 1 forward_v I I I I #
coedge $-1 $495 $260 $377 $496 reversed $160 $-1 #
coedge $-1 $260 $495 $497 $498 reversed $160 $-1 #
coedge $-1 $268 $267 $260 $376 reversed $258 $-1 #
edge $-1 $499 -10.951372640312661 $500 10.951372640312661 $375 $501 forward 7 unknown #
coedge $-1 $262 $261 $373 $496 forward $101 $-1 #
coedge $-1 $383 $494 $261 $379 reversed $371 $-1 #
edge $-1 $381 -5.5222330796282506 $502 5.5222330796282506 $378 $503 forward 7 unknown #
edge $-1 $500 -5.5222330796282506 $269 5.5222330796282506 $267 $504 forward 7 unknown #
vertex $-1 $379 $505 #
straight-curve $-1 0 -46.842145927281443 -10.951372640312661 1 0 0 I I #
coedge $-1 $506 $378 $264 $384 reversed $371 $-1 #
edge $-1 $388 -10.951372640312661 $381 10.951372640312661 $383 $507 forward 7 unknown #
coedge $-1 $497 $265 $268 $390 forward $387 $-1 #
coedge $-1 $265 $497 $506 $508 forward $387 $-1 #
loop $-1 $-1 $265 $370 #
vertex $-1 $266 $509 #
straight-curve $-1 0 -46.842145927281443 10.951372640312661 -1 0 0 I I #
edge $-1 $270 -5.5222330796282506 $499 5.5222330796282506 $268 $510 forward 7 unknown #
point $-1 -73.791637966302346 -46.842145927281443 -10.951372640312661 #
point $-1 -73.791637966302346 -46.842145927281443 10.951372640312661 #
plane-surface $-1 0 0 10.951372640312661 0 0 1 1 0 0 forward_v I I I I #
coedge $-1 $404 $403 $396 $511 forward $273 $-1 #
coedge $-1 $396 $275 $277 $400 reversed $168 $-1 #
coedge $-1 $275 $395 $394 $511 reversed $168 $-1 #
coedge $-1 $283 $278 $275 $398 forward $284 $-1 #
edge $-1 $401 -18.787686169214325 $512 -4.7224262073394812 $397 $513 forward 7 unknown #
coedge $-1 $277 $276 $404 $514 reversed $105 $-1 #
edge $-1 $515 0 $401 16.965769116705268 $395 $516 forward 7 unknown #
vertex $-1 $279 $517 #
straight-curve $-1 -65.715006769897983 -12.009132355475675 10.951372640312661 0 1 0 I I #
coedge $-1 $394 $280 $283 $408 reversed $273 $-1 #
coedge $-1 $280 $394 $399 $514 forward $273 $-1 #
vertex $-1 $281 $518 #
straight-curve $-1 -79.780266731772826 -32.973098266339306 66.872955690525686 0 0 1 I I #
straight-curve $-1 -79.780266731772826 -32.973098266339306 1.4642348250266082 -0.82903756765294845 0 -0.55919291073839883 I I #
edge $-1 $512 15.063431155563391 $285 32.973098266339306 $403 $519 forward 7 unknown #
point $-1 -79.780266731772826 -32.973098266339306 10.951372640312661 #
point $-1 -65.715006769897983 -32.973098266339306 10.951372640312661 #
edge $-1 $520 1 $520 0 $288 $-1 forward 7 unknown #
vertex $-1 $289 $521 #
ellipse-curve $-1 -71.432559810467168 -27.856050520403333 4.2581220271563893 -0.55919291073839883 0 0.82903756765294845 1.2435563514794228 0 0.83878936610759824 1 I I #
point $-1 -71.504080399355971 -27.856050520403333 7.0465930987772296 #
edge $-1 $522 1 $522 0 $292 $-1 forward 7 unknown #
vertex $-1 $293 $523 #
ellipse-curve $-1 -71.432559810467168 -20.18047890149937 4.2581220271563893 -0.55919291073839883 0 0.82903756765294845 1.2435563514794228 0 0.83878936610759824 1 I I #
point $-1 -71.504080399355971 -20.18047890149937 7.0465930987772296 #
loop $-1 $-1 $304 $296 #
plane-surface $-1 -79.780266731772826 0 0 1 0 0 0 0 -1 forward_v I I I I #
coedge $-1 $422 $299 $301 $426 reversed $190 $-1 #
coedge $-1 $299 $421 $524 $525 reversed $190 $-1 #
coedge $-1 $307 $302 $299 $424 forward $297 $-1 #
edge $-1 $427 -18.787686169214325 $526 -4.7224262073394812 $423 $527 forward 7 unknown #
coedge $-1 $301 $300 $430 $528 reversed $119 $-1 #
edge $-1 $529 0 $427 16.965769116705268 $421 $530 forward 7 unknown #
vertex $-1 $303 $531 #
straight-curve $-1 -65.715006769897983 17.531365435103925 10.951372640312661 0 1 0 I I #
coedge $-1 $524 $304 $307 $434 reversed $419 $-1 #
coedge $-1 $304 $524 $425 $528 forward $419 $-1 #
vertex $-1 $305 $532 #
straight-curve $-1 -79.780266731772826 26.107897314819894 66.872955690525686 0 0 1 I I #
straight-curve $-1 -79.780266731772826 26.107897314819894 1.4642348250266082 -0.82903756765294845 0 -0.55919291073839883 I I #
edge $-1 $526 -44.017564425595808 $308 -26.107897314819894 $429 $533 forward 7 unknown #
point $-1 -79.780266731772826 26.107897314819894 10.951372640312661 #
point $-1 -65.715006769897983 26.107897314819894 10.951372640312661 #
edge $-1 $534 1 $534 0 $311 $-1 forward 7 unknown #
vertex $-1 $312 $535 #
ellipse-curve $-1 -71.432559810467168 31.224945060755864 4.2581220271563893 -0.55919291073839883 0 0.82903756765294845 1.2435563514794228 0 0.83878936610759824 1 I I #
point $-1 -71.504080399355971 31.224945060755864 7.0465930987772296 #
edge $-1 $536 1 $536 0 $315 $-1 forward 7 unknown #
vertex $-1 $316 $537 #
ellipse-curve $-1 -71.432559810467168 38.900516679659837 4.2581220271563893 -0.55919291073839883 0 0.82903756765294845 1.2435563514794228 0 0.83878936610759824 1 I I #
point $-1 -71.504080399355971 38.900516679659837 7.0465930987772296 #
loop $-1 $-1 $327 $319 #
plane-surface $-1 79.780266731772826 0 0 -1 0 0 0 0 1 forward_v I I I I #
coedge $-1 $448 $322 $324 $452 reversed $212 $-1 #
coedge $-1 $322 $447 $538 $539 reversed $212 $-1 #
coedge $-1 $330 $325 $322 $450 forward $320 $-1 #
edge $-1 $453 46.523699246081151 $540 55.592523242792154 $449 $541 forward 7 unknown #
coedge $-1 $324 $323 $456 $542 reversed $133 $-1 #
edge $-1 $543 -159.56053346354571 $453 -148.20513547808918 $447 $544 forward 7 unknown #
vertex $-1 $326 $545 #
straight-curve $-1 70.711442735061837 4.6176887588173479 10.95137264031267 0 -1 0 I I #
coedge $-1 $538 $327 $330 $460 reversed $445 $-1 #
coedge $-1 $327 $538 $451 $542 forward $445 $-1 #
vertex $-1 $328 $546 #
straight-curve $-1 79.780266731772826 18.461646091195128 113.78707895923526 0 0 1 I I #
straight-curve $-1 -47.650440378228694 18.461646091195128 100.14345080846901 0.79863550430605224 0 -0.6018150307709319 I I #
edge $-1 $540 0.0091089440742635475 $331 18.461646091195128 $455 $547 forward 7 unknown #
point $-1 79.780266731772826 18.461646091195128 10.951372640312661 #
point $-1 70.711442735061823 18.461646091195128 10.951372640312655 #
edge $-1 $548 1 $548 0 $334 $-1 forward 7 unknown #
vertex $-1 $335 $549 #
ellipse-curve $-1 73.284808672425939 3.6996163734984364 4.9320520777521724 0.6018150307709319 0 0.79863550430605224 1.1979532564590785 0 -0.90272254615639791 1 I I #
point $-1 76.44380798987639 3.6996163734984364 6.6317255001394351 #
edge $-1 $550 1 $550 0 $338 $-1 forward 7 unknown #
vertex $-1 $339 $551 #
ellipse-curve $-1 73.284808672425939 9.2353775176346957 4.9320520777521724 0.6018150307709319 0 0.79863550430605224 1.1979532564590785 0 -0.90272254615639791 1 I I #
point $-1 76.44380798987639 9.2353775176346957 6.6317255001394351 #
edge $-1 $552 1 $552 0 $342 $-1 forward 7 unknown #
vertex $-1 $343 $553 #
ellipse-curve $-1 73.284808672425939 14.771138661770955 4.9320520777521724 0.6018150307709319 0 0.79863550430605224 1.1979532564590785 0 -0.90272254615639791 1 I I #
point $-1 76.44380798987639 14.771138661770955 6.6317255001394351 #
plane-surface $-1 79.780266731772826 0 0 -1 0 0 0 0 1 forward_v I I I I #
coedge $-1 $479 $354 $357 $487 forward $347 $-1 #
coedge $-1 $354 $479 $349 $478 reversed $347 $-1 #
edge $-1 $484 -10.951372640312661 $491 10.951372640312661 $477 $554 forward 7 unknown #
coedge $-1 $477 $476 $350 $480 reversed $347 $-1 #
edge $-1 $491 -79.780266731772826 $481 79.780266731772826 $479 $555 forward 7 unknown #
vertex $-1 $352 $556 #
straight-curve $-1 79.780266731772826 0 -10.951372640312661 0 -1 0 I I #
edge $-1 $484 -46.842145927281443 $365 46.842145927281443 $363 $557 forward 7 unknown #
vertex $-1 $355 $558 #
straight-curve $-1 0 46.842145927281443 10.951372640312661 -1 0 0 I I #
straight-curve $-1 0 -46.842145927281443 10.951372640312661 1 0 0 I I #
edge $-1 $360 -10.951372640312661 $481 10.951372640312661 $357 $559 forward 7 unknown #
point $-1 79.780266731772826 -46.842145927281443 10.951372640312661 #
point $-1 79.780266731772826 46.842145927281443 10.951372640312661 #
point $-1 -79.780266731772826 -46.842145927281443 10.951372640312661 #
vertex $-1 $480 $560 #
straight-curve $-1 -79.780266731772826 0 -10.951372640312661 0 1 0 I I #
plane-surface $-1 0 0 10.951372640312661 0 0 1 1 0 0 forward_v I I I I #
coedge $-1 $378 $506 $495 $561 forward $371 $-1 #
coedge $-1 $374 $373 $494 $561 reversed $160 $-1 #
edge $-1 $502 -1.5 $500 1.5 $373 $562 forward 7 unknown #
coedge $-1 $386 $385 $374 $498 forward $387 $-1 #
edge $-1 $499 -1.5 $563 1.5 $374 $564 forward 7 unknown #
vertex $-1 $390 $565 #
vertex $-1 $380 $566 #
straight-curve $-1 -73.791637966302346 -57.886612086537944 0 0 0 -1 I I #
vertex $-1 $561 $567 #
straight-curve $-1 -70.791637966302346 -52.364379006909694 -10.951372640312661 0 -1 0 I I #
straight-curve $-1 -73.791637966302346 -52.364379006909694 -10.951372640312661 0 1 0 I I #
point $-1 -70.791637966302346 -46.842145927281443 -10.951372640312661 #
coedge $-1 $494 $383 $386 $508 reversed $371 $-1 #
straight-curve $-1 -70.791637966302346 -46.842145927281443 0 0 0 -1 I I #
edge $-1 $563 -5.5222330796282506 $388 5.5222330796282506 $506 $568 forward 7 unknown #
point $-1 -70.791637966302346 -46.842145927281443 10.951372640312661 #
straight-curve $-1 -73.791637966302346 -52.364379006909694 10.951372640312661 0 -1 0 I I #
edge $-1 $512 55.921583050213023 $515 65.408720865499077 $394 $569 forward 7 unknown #
vertex $-1 $408 $570 #
straight-curve $-1 -84.502692939112308 -15.063431155563391 10.951372640312663 -1 0 0 I I #
edge $-1 $515 3.0542988000877163 $405 20.963965910863632 $404 $571 forward 7 unknown #
vertex $-1 $514 $572 #
straight-curve $-1 -79.780266731772826 -15.063431155563391 1.4642348250266082 0.82903756765294845 0 0.55919291073839883 I I #
point $-1 -65.715006769897983 -15.063431155563391 10.951372640312661 #
point $-1 -79.780266731772826 -32.973098266339306 1.4642348250266082 #
straight-curve $-1 -79.780266731772826 0 10.951372640312661 0 -1 0 I I #
vertex $-1 $411 $573 #
point $-1 -70.189003458987756 -27.856050520403333 5.0969113932639871 #
vertex $-1 $415 $574 #
point $-1 -70.189003458987756 -20.18047890149937 5.0969113932639871 #
coedge $-1 $430 $429 $422 $525 forward $419 $-1 #
edge $-1 $526 55.921583050213023 $529 65.408720865499077 $524 $575 forward 7 unknown #
vertex $-1 $434 $576 #
straight-curve $-1 -84.502692939112308 44.017564425595808 10.951372640312663 -1 0 0 I I #
edge $-1 $529 -26.486198990491882 $431 -8.5765318797159686 $430 $577 forward 7 unknown #
vertex $-1 $528 $578 #
straight-curve $-1 -79.780266731772826 44.017564425595808 1.4642348250266082 0.82903756765294845 0 0.55919291073839883 I I #
point $-1 -65.715006769897983 44.017564425595808 10.951372640312661 #
point $-1 -79.780266731772826 26.107897314819894 1.4642348250266082 #
straight-curve $-1 -79.780266731772826 0 10.951372640312661 0 -1 0 I I #
vertex $-1 $437 $579 #
point $-1 -70.189003458987756 31.224945060755864 5.0969113932639871 #
vertex $-1 $441 $580 #
point $-1 -70.189003458987756 38.900516679659837 5.0969113932639871 #
coedge $-1 $456 $455 $448 $539 forward $445 $-1 #
edge $-1 $540 102.8357063189226 $543 109.6695555069563 $538 $581 forward 7 unknown #
vertex $-1 $460 $582 #
straight-curve $-1 24.187743488980672 0.0091089440742635475 10.951372640312655 1 0 0 I I #
edge $-1 $543 -4.6085798147430843 $457 13.84395733237778 $456 $583 forward 7 unknown #
vertex $-1 $542 $584 #
straight-curve $-1 -47.650440378228694 0.0091089440742635475 100.14345080846901 -0.79863550430605224 0 0.6018150307709319 I I #
point $-1 70.711442735061823 0.0091089440742635475 10.951372640312655 #
point $-1 79.780266731772841 18.461646091195128 4.1175234522789594 #
straight-curve $-1 79.780266731772826 0 10.951372640312661 0 1 0 I I #
vertex $-1 $463 $585 #
point $-1 74.482761928885012 3.6996163734984364 4.0293295315957742 #
vertex $-1 $467 $586 #
point $-1 74.482761928885012 9.2353775176346957 4.0293295315957742 #
vertex $-1 $471 $587 #
point $-1 74.482761928885012 14.771138661770955 4.0293295315957742 #
straight-curve $-1 -79.780266731772826 46.842145927281443 0 0 0 -1 I I #
straight-curve $-1 0 46.842145927281443 -10.951372640312661 1 0 0 I I #
point $-1 79.780266731772826 46.842145927281443 -10.951372640312661 #
straight-curve $-1 -79.780266731772826 0 10.951372640312661 0 -1 0 I I #
point $-1 -79.780266731772826 46.842145927281443 10.951372640312661 #
straight-curve $-1 79.780266731772826 46.842145927281443 0 0 0 -1 I I #
point $-1 -79.780266731772826 46.842145927281443 -10.951372640312661 #
edge $-1 $563 -10.951372640312661 $502 10.951372640312661 $494 $588 forward 7 unknown #
straight-curve $-1 -72.291637966302346 -57.886612086537944 -10.951372640312661 -1 0 0 I I #
vertex $-1 $508 $589 #
straight-curve $-1 -72.291637966302346 -57.886612086537944 10.951372640312661 1 0 0 I I #
point $-1 -73.791637966302346 -57.886612086537944 10.951372640312661 #
point $-1 -73.791637966302346 -57.886612086537944 -10.951372640312661 #
point $-1 -70.791637966302346 -57.886612086537944 -10.951372640312661 #
straight-curve $-1 -70.791637966302346 -52.364379006909694 10.951372640312661 0 1 0 I I #
straight-curve $-1 -79.780266731772826 -15.063431155563391 66.872955690525686 0 0 -1 I I #
point $-1 -79.780266731772826 -15.063431155563391 10.951372640312661 #
straight-curve $-1 -79.780266731772826 -12.009132355475675 1.4642348250266035 0 -1 0 I I #
point $-1 -79.780266731772826 -15.063431155563391 1.4642348250266082 #
point $-1 -70.593770444359578 -27.856050520403333 3.0145656756769661 #
point $-1 -70.593770444359578 -20.18047890149937 3.0145656756769661 #
straight-curve $-1 -79.780266731772826 44.017564425595808 66.872955690525686 0 0 -1 I I #
point $-1 -79.780266731772826 44.017564425595808 10.951372640312661 #
straight-curve $-1 -79.780266731772826 17.531365435103925 1.4642348250266035 0 -1 0 I I #
point $-1 -79.780266731772826 44.017564425595808 1.4642348250266082 #
point $-1 -70.593770444359578 31.224945060755864 3.0145656756769661 #
point $-1 -70.593770444359578 38.900516679659837 3.0145656756769661 #
straight-curve $-1 79.780266731772826 0.0091089440742635475 113.78707895923526 0 0 -1 I I #
point $-1 79.780266731772826 0.0091089440742635475 10.951372640312661 #
straight-curve $-1 79.780266731772826 4.6176887588173479 4.1175234522789665 0 1 0 I I #
point $-1 79.780266731772841 0.0091089440742635475 4.1175234522789594 #
point $-1 72.382086126269527 3.6996163734984364 3.7340988212930943 #
point $-1 72.382086126269527 9.2353775176346957 3.7340988212930943 #
point $-1 72.382086126269527 14.771138661770955 3.7340988212930943 #
straight-curve $-1 -70.791637966302346 -57.886612086537944 0 0 0 -1 I I #
point $-1 -70.791637966302346 -57.886612086537944 10.951372640312661 #
End-of-ACIS-data 