500 0 8 0           
7 Unknown 11 ACIS 5.0 NT 24 Thu Mar 25 15:48:47 1999 
-1 9.9999999999999995e-007 1e-010 
body $-1 $8 $-1 $9 #
body $-1 $10 $-1 $11 #
body $-1 $12 $-1 $13 #
body $-1 $14 $-1 $15 #
body $-1 $16 $-1 $17 #
body $-1 $18 $-1 $19 #
body $-1 $20 $-1 $21 #
body $-1 $22 $-1 $23 #
lump $-1 $-1 $24 $0 #
transform $-1 1 0 0 0 1 0 0 0 1 70.542924283577989 32.516656211637731 10.872791033137265 1 rotate no_reflect no_shear #
lump $-1 $-1 $25 $1 #
transform $-1 1 0 0 0 1 0 0 0 1 70.542924283577989 32.516656211637731 10.872791033137265 1 rotate no_reflect no_shear #
lump $-1 $-1 $26 $2 #
transform $-1 1 0 0 0 1 0 0 0 1 70.542924283577989 32.516656211637731 10.872791033137265 1 rotate no_reflect no_shear #
lump $-1 $-1 $27 $3 #
transform $-1 1 0 0 0 1 0 0 0 1 70.542924283577989 32.516656211637731 10.872791033137265 1 rotate no_reflect no_shear #
lump $-1 $-1 $28 $4 #
transform $-1 1 0 0 0 1 0 0 0 1 70.542924283577989 32.516656211637731 10.872791033137265 1 rotate no_reflect no_shear #
lump $-1 $-1 $29 $5 #
transform $-1 1 0 0 0 1 0 0 0 1 70.542924283577989 32.516656211637731 10.872791033137265 1 rotate no_reflect no_shear #
lump $-1 $-1 $30 $6 #
transform $-1 1 0 0 0 1 0 0 0 1 70.542924283577989 32.516656211637731 10.872791033137265 1 rotate no_reflect no_shear #
lump $-1 $-1 $31 $7 #
transform $-1 1 0 0 0 1 0 0 0 1 70.542924283577989 32.516656211637731 10.872791033137265 1 rotate no_reflect no_shear #
shell $-1 $-1 $-1 $32 $-1 $8 #
shell $-1 $-1 $-1 $33 $-1 $10 #
shell $-1 $-1 $-1 $34 $-1 $12 #
shell $-1 $-1 $-1 $35 $-1 $14 #
shell $-1 $-1 $-1 $36 $-1 $16 #
shell $-1 $-1 $-1 $37 $-1 $18 #
shell $-1 $-1 $-1 $38 $-1 $20 #
shell $-1 $-1 $-1 $39 $-1 $22 #
face $-1 $40 $41 $24 $-1 $42 forward single #
face $-1 $43 $44 $25 $-1 $45 forward single #
face $-1 $46 $47 $26 $-1 $48 reversed single #
face $-1 $49 $50 $27 $-1 $51 forward single #
face $-1 $52 $53 $28 $-1 $54 forward single #
face $-1 $55 $56 $29 $-1 $57 reversed single #
face $-1 $58 $59 $30 $-1 $60 forward single #
face $-1 $61 $62 $31 $-1 $63 forward single #
face $-1 $64 $65 $24 $-1 $66 reversed single #
loop $-1 $-1 $67 $32 #
plane-surface $-1 0 0 10.872791033137265 0 0 1 1 0 0 forward_v I I I I #
face $-1 $68 $69 $25 $-1 $70 forward single #
loop $-1 $-1 $71 $33 #
plane-surface $-1 -70.542924283577989 0 0 1 0 0 0 0 -1 forward_v I I I I #
face $-1 $72 $73 $26 $-1 $74 reversed single #
loop $-1 $-1 $75 $34 #
plane-surface $-1 57.417732935182144 -32.516656211637724 5.2070414523804658 0 -0.70710678939079041 0.70710677298230451 1 0 0 forward_v I I I I #
face $-1 $76 $77 $27 $-1 $78 forward single #
loop $-1 $79 $80 $35 #
cone-surface $-1 51.7926509287268 -29.024269046310224 7.38040381737666 0 0.70710678939079041 -0.70710677298230451 1 0 0 1 I I 0 1 1 forward I I I I #
face $-1 $81 $82 $28 $-1 $83 forward single #
loop $-1 $84 $85 $36 #
cone-surface $-1 63.042814941637531 -29.024269046310224 7.38040381737666 0 0.70710678939079041 -0.70710677298230451 1 0 0 1 I I 0 1 1 forward I I I I #
face $-1 $86 $87 $29 $-1 $88 reversed single #
loop $-1 $-1 $89 $37 #
plane-surface $-1 57.417732935182144 -13.468839472334594 51.192538203450951 0 0.70710678939079041 0.70710677298230451 1 0 0 forward_v I I I I #
face $-1 $90 $91 $30 $-1 $92 forward single #
loop $-1 $93 $94 $38 #
cone-surface $-1 51.7926509287268 29.024269046310231 7.38040381737666 0 -0.70710678939079041 -0.70710677298230451 1 0 0 1 I I 0 1 1 forward I I I I #
face $-1 $95 $96 $31 $-1 $97 forward single #
loop $-1 $98 $99 $39 #
cone-surface $-1 63.042814941637531 29.024269046310231 7.38040381737666 0 -0.70710678939079041 -0.70710677298230451 1 0 0 1 I I 0 1 1 forward I I I I #
face $-1 $100 $101 $24 $-1 $102 reversed single #
loop $-1 $-1 $103 $40 #
plane-surface $-1 0 0 -10.872791033137265 0 0 1 1 0 0 forward_v I I I I #
coedge $-1 $104 $105 $106 $107 forward $41 $-1 #
face $-1 $108 $109 $25 $-1 $110 reversed single #
loop $-1 $-1 $111 $43 #
plane-surface $-1 0 0 10.872791033137265 0 0 1 1 0 0 forward_v I I I I #
coedge $-1 $112 $113 $114 $115 forward $44 $-1 #
face $-1 $116 $117 $26 $-1 $118 reversed single #
loop $-1 $-1 $119 $46 #
plane-surface $-1 44.292541586786307 -132.27941762043463 104.96980054617222 1 0 0 0 0.70710678939079041 -0.70710677298230451 forward_v I I I I #
coedge $-1 $120 $121 $122 $123 reversed $47 $-1 #
face $-1 $-1 $124 $27 $-1 $125 forward single #
loop $-1 $126 $127 $49 #
cone-surface $-1 51.7926509287268 -28.011203210928571 6.3673380055033029 0 0.70710678939079041 -0.70710677298230451 0.5 0 0 1 I I -0.70710678118654746 0.70710678118654746 0.5 forward I I I I #
loop $-1 $-1 $128 $35 #
coedge $-1 $80 $80 $129 $130 reversed $50 $-1 #
face $-1 $-1 $131 $28 $-1 $132 forward single #
loop $-1 $133 $134 $52 #
cone-surface $-1 63.042814941637531 -28.011203210928571 6.3673380055033029 0 0.70710678939079041 -0.70710677298230451 0.5 0 0 1 I I -0.70710678118654746 0.70710678118654746 0.5 forward I I I I #
loop $-1 $-1 $135 $36 #
coedge $-1 $85 $85 $136 $137 reversed $53 $-1 #
face $-1 $138 $139 $29 $-1 $140 reversed single #
loop $-1 $-1 $141 $55 #
plane-surface $-1 44.292541586786307 86.293921936462311 150.95529729724271 1 0 0 0 -0.70710678939079041 -0.70710677298230451 forward_v I I I I #
coedge $-1 $142 $143 $144 $145 reversed $56 $-1 #
face $-1 $-1 $146 $30 $-1 $147 forward single #
loop $-1 $148 $149 $58 #
cone-surface $-1 51.7926509287268 28.011203210928578 6.3673380055033029 0 -0.70710678939079041 -0.70710677298230451 0.5 0 0 1 I I -0.70710678118654746 0.70710678118654746 0.5 forward I I I I #
loop $-1 $-1 $150 $38 #
coedge $-1 $94 $94 $151 $152 reversed $59 $-1 #
face $-1 $-1 $153 $31 $-1 $154 forward single #
loop $-1 $155 $156 $61 #
cone-surface $-1 63.042814941637531 28.011203210928578 6.3673380055033029 0 -0.70710678939079041 -0.70710677298230451 0.5 0 0 1 I I -0.70710678118654746 0.70710678118654746 0.5 forward I I I I #
loop $-1 $-1 $157 $39 #
coedge $-1 $99 $99 $158 $159 reversed $62 $-1 #
face $-1 $160 $161 $24 $-1 $162 reversed single #
loop $-1 $-1 $163 $64 #
plane-surface $-1 0 -32.516656211637731 0 0 1 0 0 0 1 forward_v I I I I #
coedge $-1 $164 $165 $166 $167 forward $65 $-1 #
coedge $-1 $168 $67 $169 $170 forward $41 $-1 #
coedge $-1 $67 $168 $171 $172 forward $41 $-1 #
coedge $-1 $173 $174 $67 $107 reversed $175 $-1 #
edge $-1 $176 -32.516656211637731 $177 32.516656211637731 $106 $178 forward 7 unknown #
face $-1 $179 $180 $25 $-1 $181 reversed single #
loop $-1 $-1 $182 $68 #
plane-surface $-1 -82.039877961728578 -30.613428344308851 0 1 0 0 0 0 -1 forward_v I I I I #
coedge $-1 $183 $184 $112 $185 forward $69 $-1 #
coedge $-1 $186 $71 $111 $185 reversed $44 $-1 #
coedge $-1 $71 $186 $187 $188 reversed $44 $-1 #
coedge $-1 $189 $190 $71 $115 reversed $180 $-1 #
edge $-1 $191 -10.872791033137265 $192 10.872791033137265 $114 $193 forward 7 unknown #
face $-1 $194 $195 $26 $-1 $196 forward single #
loop $-1 $-1 $197 $72 #
plane-surface $-1 0 -32.516656211637731 0 0 1 0 0 0 1 forward_v I I I I #
coedge $-1 $198 $199 $200 $201 reversed $73 $-1 #
coedge $-1 $202 $75 $203 $204 reversed $47 $-1 #
coedge $-1 $75 $202 $198 $205 forward $47 $-1 #
coedge $-1 $200 $206 $75 $123 forward $195 $-1 #
edge $-1 $207 -41.834057815986903 $208 -15.583675119195235 $122 $209 forward 7 unknown #
loop $-1 $-1 $129 $76 #
plane-surface $-1 57.417732935182144 -32.516656211637724 5.2070414523804658 0 -0.70710678939079041 0.70710677298230451 1 0 0 forward_v I I I I #
loop $-1 $-1 $210 $49 #
coedge $-1 $127 $127 $128 $211 reversed $77 $-1 #
coedge $-1 $128 $128 $127 $211 forward $79 $-1 #
coedge $-1 $129 $129 $80 $130 forward $124 $-1 #
edge $-1 $212 5.8294651990167239e-023 $212 6.2831853071796004 $129 $213 forward 7 unknown #
loop $-1 $-1 $136 $81 #
plane-surface $-1 57.417732935182144 -32.516656211637724 5.2070414523804658 0 -0.70710678939079041 0.70710677298230451 1 0 0 forward_v I I I I #
loop $-1 $-1 $214 $52 #
coedge $-1 $134 $134 $135 $215 reversed $82 $-1 #
coedge $-1 $135 $135 $134 $215 forward $84 $-1 #
coedge $-1 $136 $136 $85 $137 forward $131 $-1 #
edge $-1 $216 5.8294651990167239e-023 $216 6.2831853071796004 $136 $217 forward 7 unknown #
face $-1 $218 $219 $29 $-1 $220 forward single #
loop $-1 $-1 $144 $86 #
plane-surface $-1 0 32.516656211637731 0 0 -1 0 0 0 -1 forward_v I I I I #
coedge $-1 $221 $222 $223 $224 reversed $87 $-1 #
coedge $-1 $225 $89 $226 $227 reversed $56 $-1 #
coedge $-1 $89 $225 $221 $228 forward $56 $-1 #
coedge $-1 $223 $229 $89 $145 forward $139 $-1 #
edge $-1 $230 -41.834057815986917 $231 -15.583675119195235 $144 $232 forward 7 unknown #
loop $-1 $-1 $151 $90 #
plane-surface $-1 57.417732935182144 -13.468839472334594 51.192538203450951 0 0.70710678939079041 0.70710677298230451 1 0 0 forward_v I I I I #
loop $-1 $-1 $233 $58 #
coedge $-1 $149 $149 $150 $234 reversed $91 $-1 #
coedge $-1 $150 $150 $149 $234 forward $93 $-1 #
coedge $-1 $151 $151 $94 $152 forward $146 $-1 #
edge $-1 $235 1.2560736317527693e-015 $235 6.2831853071796013 $151 $236 forward 7 unknown #
loop $-1 $-1 $158 $95 #
plane-surface $-1 57.417732935182144 -13.468839472334594 51.192538203450951 0 0.70710678939079041 0.70710677298230451 1 0 0 forward_v I I I I #
loop $-1 $-1 $237 $61 #
coedge $-1 $156 $156 $157 $238 reversed $96 $-1 #
coedge $-1 $157 $157 $156 $238 forward $98 $-1 #
coedge $-1 $158 $158 $99 $159 forward $153 $-1 #
edge $-1 $239 1.2560736317527693e-015 $239 6.2831853071796013 $158 $240 forward 7 unknown #
face $-1 $241 $242 $24 $-1 $243 reversed single #
loop $-1 $-1 $244 $100 #
plane-surface $-1 -70.542924283577989 0 0 1 0 0 0 0 -1 forward_v I I I I #
coedge $-1 $245 $171 $246 $247 forward $101 $-1 #
coedge $-1 $248 $103 $245 $249 forward $65 $-1 #
coedge $-1 $103 $248 $250 $251 forward $65 $-1 #
coedge $-1 $174 $173 $103 $167 reversed $175 $-1 #
edge $-1 $252 -32.516656211637731 $253 32.516656211637731 $166 $254 forward 7 unknown #
coedge $-1 $105 $104 $255 $256 forward $41 $-1 #
coedge $-1 $257 $258 $104 $170 reversed $242 $-1 #
edge $-1 $177 -70.542924283577989 $259 70.542924283577989 $169 $260 forward 7 unknown #
coedge $-1 $163 $261 $105 $172 reversed $101 $-1 #
edge $-1 $262 -70.542924283577989 $176 70.542924283577989 $171 $263 forward 7 unknown #
coedge $-1 $166 $106 $261 $264 forward $175 $-1 #
coedge $-1 $106 $166 $257 $265 reversed $175 $-1 #
loop $-1 $-1 $173 $241 #
vertex $-1 $107 $266 #
vertex $-1 $107 $267 #
straight-curve $-1 70.542924283577989 0 10.872791033137265 0 1 0 I I #
face $-1 $268 $269 $25 $-1 $270 reversed single #
loop $-1 $-1 $114 $108 #
plane-surface $-1 -76.291401122653284 -28.710200476979971 0 0 -1 0 0 0 -1 forward_v I I I I #
coedge $-1 $271 $272 $273 $274 forward $109 $-1 #
coedge $-1 $275 $111 $190 $276 forward $69 $-1 #
coedge $-1 $111 $275 $277 $278 forward $69 $-1 #
edge $-1 $279 -32.516656211637731 $192 -28.710200476979971 $111 $280 forward 7 unknown #
coedge $-1 $113 $112 $281 $282 reversed $44 $-1 #
coedge $-1 $283 $284 $113 $188 forward $269 $-1 #
edge $-1 $191 28.710200476979971 $285 32.516656211637731 $187 $286 forward 7 unknown #
coedge $-1 $273 $114 $284 $287 reversed $180 $-1 #
coedge $-1 $114 $273 $183 $276 reversed $180 $-1 #
vertex $-1 $188 $288 #
vertex $-1 $276 $289 #
straight-curve $-1 -70.542924283577989 -28.710200476979971 0 0 0 1 I I #
face $-1 $-1 $290 $26 $-1 $291 reversed single #
loop $-1 $-1 $200 $116 #
plane-surface $-1 0 0 10.872791033137265 0 0 1 1 0 0 forward_v I I I I #
coedge $-1 $292 $293 $199 $294 forward $117 $-1 #
coedge $-1 $199 $119 $121 $205 reversed $73 $-1 #
coedge $-1 $119 $198 $197 $294 reversed $73 $-1 #
coedge $-1 $295 $122 $119 $201 forward $195 $-1 #
edge $-1 $208 -39.288802047862092 $296 -33.623052598579584 $200 $297 forward 7 unknown #
coedge $-1 $121 $120 $292 $298 reversed $47 $-1 #
coedge $-1 $299 $300 $120 $204 forward $290 $-1 #
edge $-1 $301 -9.6554067391843361 $207 -1.6428269340347521 $203 $302 forward 7 unknown #
edge $-1 $303 -1.0048591735576163e-014 $208 8.012579805149576 $198 $304 forward 7 unknown #
coedge $-1 $122 $295 $299 $305 forward $195 $-1 #
vertex $-1 $204 $306 #
vertex $-1 $123 $307 #
straight-curve $-1 28.708866467591072 -26.850906762355226 10.872791033137265 -1 0 0 I I #
coedge $-1 $210 $210 $-1 $308 reversed $126 $-1 #
edge $-1 $309 0 $309 6.2831853071796004 $127 $310 forward 7 unknown #
vertex $-1 $130 $311 #
ellipse-curve $-1 51.7926509287268 -29.68378148699648 8.0399162427588617 0 -0.70710678939079041 0.70710677298230451 1 0 0 1 I I #
coedge $-1 $214 $214 $-1 $312 reversed $133 $-1 #
edge $-1 $313 0 $313 6.2831853071796004 $134 $314 forward 7 unknown #
vertex $-1 $137 $315 #
ellipse-curve $-1 63.042814941637531 -29.68378148699648 8.0399162427588617 0 -0.70710678939079041 0.70710677298230451 1 0 0 1 I I #
face $-1 $-1 $316 $29 $-1 $317 reversed single #
loop $-1 $-1 $318 $138 #
plane-surface $-1 0 0 10.872791033137265 0 0 1 1 0 0 forward_v I I I I #
coedge $-1 $222 $141 $143 $228 reversed $87 $-1 #
coedge $-1 $141 $221 $319 $320 reversed $87 $-1 #
coedge $-1 $321 $144 $141 $224 forward $139 $-1 #
edge $-1 $231 -70.270607196240917 $322 -64.604857615484093 $223 $323 forward 7 unknown #
coedge $-1 $143 $142 $318 $324 reversed $56 $-1 #
coedge $-1 $325 $326 $142 $227 forward $316 $-1 #
edge $-1 $327 34.159483145672461 $230 42.172062950822067 $226 $328 forward 7 unknown #
edge $-1 $329 57.020732618125869 $231 65.03331242327549 $221 $330 forward 7 unknown #
coedge $-1 $144 $321 $325 $331 forward $139 $-1 #
vertex $-1 $227 $332 #
vertex $-1 $145 $333 #
straight-curve $-1 28.708866467591072 32.516656211637731 5.2070414523804409 -1 0 0 I I #
coedge $-1 $233 $233 $-1 $334 reversed $148 $-1 #
edge $-1 $335 0 $335 6.2831853071796004 $149 $336 forward 7 unknown #
vertex $-1 $152 $337 #
ellipse-curve $-1 51.7926509287268 29.68378148699647 8.0399162427588458 0 0.70710678939079041 0.70710677298230451 1 0 0 1 I I #
coedge $-1 $237 $237 $-1 $338 reversed $155 $-1 #
edge $-1 $339 0 $339 6.2831853071796004 $156 $340 forward 7 unknown #
vertex $-1 $159 $341 #
ellipse-curve $-1 63.042814941637531 29.68378148699647 8.0399162427588458 0 0.70710678939079041 0.70710677298230451 1 0 0 1 I I #
face $-1 $-1 $175 $24 $-1 $342 reversed single #
loop $-1 $-1 $257 $160 #
plane-surface $-1 0 32.516656211637731 0 0 -1 0 0 0 -1 forward_v I I I I #
coedge $-1 $343 $255 $258 $344 forward $161 $-1 #
coedge $-1 $261 $163 $164 $249 reversed $101 $-1 #
coedge $-1 $255 $343 $163 $247 reversed $161 $-1 #
edge $-1 $262 -10.872791033137265 $345 10.872791033137265 $246 $346 forward 7 unknown #
coedge $-1 $165 $164 $343 $347 forward $65 $-1 #
edge $-1 $253 -70.542924283577989 $345 70.542924283577989 $245 $348 forward 7 unknown #
coedge $-1 $258 $257 $165 $251 reversed $242 $-1 #
edge $-1 $349 -70.542924283577989 $252 70.542924283577989 $250 $350 forward 7 unknown #
vertex $-1 $167 $351 #
vertex $-1 $264 $352 #
straight-curve $-1 70.542924283577989 0 -10.872791033137265 0 -1 0 I I #
coedge $-1 $244 $246 $168 $256 reversed $161 $-1 #
edge $-1 $259 -32.516656211637731 $262 32.516656211637731 $255 $353 forward 7 unknown #
coedge $-1 $250 $169 $174 $265 forward $242 $-1 #
coedge $-1 $169 $250 $244 $344 reversed $242 $-1 #
vertex $-1 $170 $354 #
straight-curve $-1 0 32.516656211637731 10.872791033137265 -1 0 0 I I #
coedge $-1 $171 $245 $173 $264 reversed $101 $-1 #
vertex $-1 $256 $355 #
straight-curve $-1 0 -32.516656211637731 10.872791033137265 1 0 0 I I #
edge $-1 $176 -10.872791033137265 $253 10.872791033137265 $173 $356 forward 7 unknown #
edge $-1 $177 -10.872791033137265 $252 10.872791033137265 $174 $357 forward 7 unknown #
point $-1 70.542924283577989 -32.516656211637731 10.872791033137265 #
point $-1 70.542924283577989 32.516656211637731 10.872791033137265 #
face $-1 $-1 $358 $25 $-1 $359 reversed single #
loop $-1 $-1 $187 $179 #
plane-surface $-1 0 0 -10.872791033137265 0 0 1 1 0 0 forward_v I I I I #
coedge $-1 $360 $182 $361 $362 reversed $109 $-1 #
coedge $-1 $182 $360 $275 $363 reversed $109 $-1 #
coedge $-1 $190 $189 $182 $274 reversed $180 $-1 #
edge $-1 $364 -10.872791033137265 $365 10.872791033137265 $273 $366 forward 7 unknown #
coedge $-1 $184 $183 $272 $363 forward $69 $-1 #
edge $-1 $192 -5.7484768390752947 $364 5.7484768390752947 $190 $367 forward 7 unknown #
coedge $-1 $368 $281 $184 $278 reversed $358 $-1 #
edge $-1 $369 -82.039877961728578 $279 -70.542924283577989 $277 $370 forward 7 unknown #
vertex $-1 $282 $371 #
straight-curve $-1 -70.542924283577989 0 10.872791033137265 0 1 0 I I #
coedge $-1 $277 $372 $186 $282 forward $358 $-1 #
edge $-1 $285 -10.872791033137265 $279 10.872791033137265 $281 $373 forward 7 unknown #
coedge $-1 $361 $187 $372 $374 forward $269 $-1 #
coedge $-1 $187 $361 $189 $287 forward $269 $-1 #
vertex $-1 $374 $375 #
straight-curve $-1 -70.542924283577989 0 -10.872791033137265 0 -1 0 I I #
edge $-1 $365 -5.7484768390752947 $191 5.7484768390752947 $189 $376 forward 7 unknown #
point $-1 -70.542924283577989 -28.710200476979971 -10.872791033137265 #
point $-1 -70.542924283577989 -28.710200476979971 10.872791033137265 #
loop $-1 $-1 $203 $194 #
plane-surface $-1 70.542924283577989 0 0 -1 0 0 0 0 1 forward_v I I I I #
coedge $-1 $377 $197 $202 $298 forward $117 $-1 #
coedge $-1 $197 $377 $295 $378 reversed $117 $-1 #
edge $-1 $296 41.61210923994885 $303 47.277858820705653 $197 $379 forward 7 unknown #
coedge $-1 $206 $200 $293 $378 forward $195 $-1 #
vertex $-1 $378 $380 #
straight-curve $-1 44.292541586786307 -66.139708810217314 10.872791033137268 0 -1 0 I I #
edge $-1 $303 15.583675119195235 $301 41.834057815986903 $292 $381 forward 7 unknown #
coedge $-1 $300 $203 $206 $305 reversed $290 $-1 #
coedge $-1 $203 $299 $377 $382 forward $290 $-1 #
vertex $-1 $298 $383 #
straight-curve $-1 70.542924283577989 -25.689252710461499 12.034445111987294 0 0.70710677298230462 0.70710678939079052 I I #
vertex $-1 $298 $384 #
straight-curve $-1 44.292541586786307 -32.516656211637724 5.2070414523804658 0 0.70710677298230451 0.70710678939079041 I I #
edge $-1 $385 -32.516656211637731 $207 -26.850906762355226 $299 $386 forward 7 unknown #
point $-1 70.542924283577975 -26.850906762355226 10.872791033137265 #
point $-1 44.292541586786307 -26.850906762355226 10.872791033137265 #
edge $-1 $387 1 $387 0 $210 $-1 forward 7 unknown #
vertex $-1 $211 $388 #
ellipse-curve $-1 51.7926509287268 -28.364756605623967 6.7208913919944555 0 -0.70710678939079041 0.70710677298230451 1 0 0 1 I I #
point $-1 52.7926509287268 -29.683781486996484 8.0399162427588653 #
edge $-1 $389 1 $389 0 $214 $-1 forward 7 unknown #
vertex $-1 $215 $390 #
ellipse-curve $-1 63.042814941637531 -28.364756605623967 6.7208913919944555 0 -0.70710678939079041 0.70710677298230451 1 0 0 1 I I #
point $-1 64.042814941637531 -29.683781486996484 8.0399162427588653 #
loop $-1 $-1 $226 $218 #
plane-surface $-1 70.542924283577989 0 0 -1 0 0 0 0 1 forward_v I I I I #
coedge $-1 $391 $319 $225 $324 forward $219 $-1 #
coedge $-1 $318 $392 $222 $320 forward $219 $-1 #
edge $-1 $322 10.630304756593425 $329 16.296054205875947 $319 $393 forward 7 unknown #
coedge $-1 $229 $223 $392 $394 reversed $139 $-1 #
vertex $-1 $224 $395 #
straight-curve $-1 44.292541586786307 32.516656211637731 75.477648648621354 0 0 1 I I #
edge $-1 $329 15.583675119195235 $327 41.834057815986903 $318 $396 forward 7 unknown #
coedge $-1 $326 $226 $229 $331 reversed $316 $-1 #
coedge $-1 $226 $325 $391 $397 reversed $316 $-1 #
vertex $-1 $397 $398 #
straight-curve $-1 70.542924283577989 2.696504868475337 35.027193487522531 0 0.70710677298230462 -0.70710678939079052 I I #
vertex $-1 $324 $399 #
straight-curve $-1 44.292541586786307 -13.468839472334594 51.192538203450951 0 0.70710677298230451 -0.70710678939079041 I I #
edge $-1 $400 -10.872791033137265 $230 -5.2070414523804436 $325 $401 forward 7 unknown #
point $-1 70.542924283577989 32.516656211637731 5.2070414523804436 #
point $-1 44.292541586786307 32.516656211637731 5.2070414523804374 #
edge $-1 $402 1 $402 0 $233 $-1 forward 7 unknown #
vertex $-1 $234 $403 #
ellipse-curve $-1 51.7926509287268 28.364756605623974 6.7208913919944555 0 0.70710678939079041 0.70710677298230451 1 0 0 1 I I #
point $-1 52.7926509287268 29.683781486996491 8.0399162427588653 #
edge $-1 $404 1 $404 0 $237 $-1 forward 7 unknown #
vertex $-1 $238 $405 #
ellipse-curve $-1 63.042814941637531 28.364756605623974 6.7208913919944555 0 0.70710678939079041 0.70710677298230451 1 0 0 1 I I #
point $-1 64.042814941637531 29.683781486996491 8.0399162427588653 #
plane-surface $-1 70.542924283577989 0 0 -1 0 0 0 0 1 forward_v I I I I #
coedge $-1 $246 $244 $248 $347 reversed $161 $-1 #
edge $-1 $259 -10.872791033137265 $349 10.872791033137265 $258 $406 forward 7 unknown #
vertex $-1 $347 $407 #
straight-curve $-1 -70.542924283577989 -32.516656211637731 0 0 0 -1 I I #
edge $-1 $345 -32.516656211637731 $349 32.516656211637731 $343 $408 forward 7 unknown #
straight-curve $-1 0 -32.516656211637731 -10.872791033137265 -1 0 0 I I #
vertex $-1 $251 $409 #
straight-curve $-1 0 32.516656211637731 -10.872791033137265 1 0 0 I I #
point $-1 70.542924283577989 32.516656211637731 -10.872791033137265 #
point $-1 70.542924283577989 -32.516656211637731 -10.872791033137265 #
straight-curve $-1 -70.542924283577989 0 10.872791033137265 0 -1 0 I I #
point $-1 -70.542924283577989 32.516656211637731 10.872791033137265 #
point $-1 -70.542924283577989 -32.516656211637731 10.872791033137265 #
straight-curve $-1 70.542924283577989 -32.516656211637731 0 0 0 -1 I I #
straight-curve $-1 70.542924283577989 32.516656211637731 0 0 0 -1 I I #
loop $-1 $-1 $281 $268 #
plane-surface $-1 0 -32.516656211637731 0 0 1 0 0 0 1 forward_v I I I I #
coedge $-1 $272 $271 $368 $410 reversed $109 $-1 #
coedge $-1 $284 $283 $271 $362 forward $269 $-1 #
edge $-1 $411 -1.9032278673288801 $365 1.9032278673288801 $271 $412 forward 7 unknown #
edge $-1 $364 -1.9032278673288801 $369 1.9032278673288801 $272 $413 forward 7 unknown #
vertex $-1 $276 $414 #
vertex $-1 $287 $415 #
straight-curve $-1 -82.039877961728578 -28.710200476979971 0 0 0 -1 I I #
straight-curve $-1 -76.291401122653284 -28.710200476979971 10.872791033137265 -1 0 0 I I #
coedge $-1 $372 $277 $360 $410 forward $358 $-1 #
vertex $-1 $363 $416 #
straight-curve $-1 0 -32.516656211637731 10.872791033137265 1 0 0 I I #
point $-1 -70.542924283577989 -32.516656211637731 10.872791033137265 #
coedge $-1 $281 $368 $283 $374 reversed $358 $-1 #
straight-curve $-1 -70.542924283577989 -32.516656211637731 0 0 0 1 I I #
edge $-1 $285 -5.7484768390752947 $411 5.7484768390752947 $372 $417 forward 7 unknown #
point $-1 -70.542924283577989 -32.516656211637731 -10.872791033137265 #
straight-curve $-1 -76.291401122653284 -28.710200476979971 -10.872791033137265 1 0 0 I I #
coedge $-1 $293 $292 $300 $382 reversed $117 $-1 #
edge $-1 $296 44.292541586786307 $385 70.542924283577989 $293 $418 forward 7 unknown #
straight-curve $-1 44.292541586786307 -32.516656211637731 52.484900273086112 0 0 -1 I I #
point $-1 44.292541586786307 -32.516656211637731 10.872791033137265 #
straight-curve $-1 28.708866467591072 -32.516656211637731 5.2070414523804534 1 0 0 I I #
edge $-1 $385 -10.872791033137265 $301 -5.2070414523804587 $300 $419 forward 7 unknown #
point $-1 70.542924283577975 -32.516656211637731 5.2070414523804587 #
point $-1 44.292541586786307 -32.516656211637731 5.2070414523804587 #
vertex $-1 $305 $420 #
straight-curve $-1 70.542924283577989 0 10.872791033137265 0 1 0 I I #
vertex $-1 $308 $421 #
point $-1 52.7926509287268 -28.364756605623967 6.7208913919944555 #
vertex $-1 $312 $422 #
point $-1 64.042814941637531 -28.364756605623967 6.7208913919944555 #
coedge $-1 $392 $318 $326 $397 forward $219 $-1 #
coedge $-1 $319 $391 $321 $394 forward $219 $-1 #
straight-curve $-1 44.292541586786307 43.146960968231156 10.872791033137261 0 -1 0 I I #
edge $-1 $400 -70.542924283577989 $322 -44.292541586786307 $321 $423 forward 7 unknown #
point $-1 44.292541586786307 32.516656211637731 10.872791033137265 #
straight-curve $-1 28.708866467591072 26.850906762355212 10.872791033137261 1 0 0 I I #
edge $-1 $327 26.850906762355208 $400 32.516656211637731 $326 $424 forward 7 unknown #
point $-1 70.542924283577975 26.850906762355208 10.872791033137261 #
point $-1 44.292541586786307 26.850906762355208 10.872791033137261 #
vertex $-1 $397 $425 #
straight-curve $-1 70.542924283577989 32.516656211637731 0 0 0 -1 I I #
vertex $-1 $334 $426 #
point $-1 52.7926509287268 28.364756605623974 6.7208913919944555 #
vertex $-1 $338 $427 #
point $-1 64.042814941637531 28.364756605623974 6.7208913919944555 #
straight-curve $-1 -70.542924283577989 32.516656211637731 0 0 0 -1 I I #
point $-1 -70.542924283577989 -32.516656211637731 -10.872791033137265 #
straight-curve $-1 -70.542924283577989 0 -10.872791033137265 0 1 0 I I #
point $-1 -70.542924283577989 32.516656211637731 -10.872791033137265 #
edge $-1 $369 -10.872791033137265 $411 10.872791033137265 $360 $428 forward 7 unknown #
vertex $-1 $362 $429 #
straight-curve $-1 -82.039877961728578 -30.613428344308851 -10.872791033137265 0 1 0 I I #
straight-curve $-1 -82.039877961728578 -30.613428344308851 10.872791033137265 0 -1 0 I I #
point $-1 -82.039877961728578 -28.710200476979971 10.872791033137265 #
point $-1 -82.039877961728578 -28.710200476979971 -10.872791033137265 #
point $-1 -82.039877961728578 -32.516656211637731 10.872791033137265 #
straight-curve $-1 -76.291401122653284 -32.516656211637731 -10.872791033137265 -1 0 0 I I #
straight-curve $-1 0 -32.516656211637731 10.872791033137265 1 0 0 I I #
straight-curve $-1 70.542924283577989 -32.516656211637731 0 0 0 -1 I I #
point $-1 70.542924283577989 -32.516656211637731 10.872791033137265 #
point $-1 51.7926509287268 -27.657649816233175 6.0137846190121502 #
point $-1 63.042814941637531 -27.657649816233175 6.0137846190121502 #
straight-curve $-1 0 32.516656211637731 10.872791033137265 -1 0 0 I I #
straight-curve $-1 70.542924283577989 0 10.872791033137265 0 1 0 I I #
point $-1 70.542924283577989 32.516656211637731 10.872791033137265 #
point $-1 51.7926509287268 27.657649816233182 6.0137846190121502 #
point $-1 63.042814941637531 27.657649816233182 6.0137846190121502 #
straight-curve $-1 -82.039877961728578 -32.516656211637731 0 0 0 -1 I I #
point $-1 -82.039877961728578 -32.516656211637731 -10.872791033137265 #
End-of-ACIS-data 