500 0 15 0           
7 Unknown 11 ACIS 5.0 NT 24 Thu Mar 25 15:18:48 1999 
-1 9.9999999999999995e-007 1e-010 
body $-1 $15 $-1 $16 #
body $-1 $17 $-1 $18 #
body $-1 $19 $-1 $20 #
body $-1 $21 $-1 $22 #
body $-1 $23 $-1 $24 #
body $-1 $25 $-1 $26 #
body $-1 $27 $-1 $28 #
body $-1 $29 $-1 $30 #
body $-1 $31 $-1 $32 #
body $-1 $33 $-1 $34 #
body $-1 $35 $-1 $36 #
body $-1 $37 $-1 $38 #
body $-1 $39 $-1 $40 #
body $-1 $41 $-1 $42 #
body $-1 $43 $-1 $44 #
lump $-1 $-1 $45 $0 #
transform $-1 1 0 0 0 1 0 0 0 1 70.791955320902133 48.34818113786249 21.37695787496946 1 rotate no_reflect no_shear #
lump $-1 $-1 $46 $1 #
transform $-1 1 0 0 0 1 0 0 0 1 70.791955320902133 48.34818113786249 21.37695787496946 1 rotate no_reflect no_shear #
lump $-1 $-1 $47 $2 #
transform $-1 1 0 0 0 1 0 0 0 1 70.791955320902133 48.34818113786249 21.37695787496946 1 rotate no_reflect no_shear #
lump $-1 $-1 $48 $3 #
transform $-1 1 0 0 0 1 0 0 0 1 70.791955320902133 48.34818113786249 21.37695787496946 1 rotate no_reflect no_shear #
lump $-1 $-1 $49 $4 #
transform $-1 1 0 0 0 1 0 0 0 1 70.791955320902133 48.34818113786249 21.37695787496946 1 rotate no_reflect no_shear #
lump $-1 $-1 $50 $5 #
transform $-1 1 0 0 0 1 0 0 0 1 70.791955320902133 48.34818113786249 21.37695787496946 1 rotate no_reflect no_shear #
lump $-1 $-1 $51 $6 #
transform $-1 1 0 0 0 1 0 0 0 1 70.791955320902133 48.34818113786249 21.37695787496946 1 rotate no_reflect no_shear #
lump $-1 $-1 $52 $7 #
transform $-1 1 0 0 0 1 0 0 0 1 70.791955320902133 48.34818113786249 21.37695787496946 1 rotate no_reflect no_shear #
lump $-1 $-1 $53 $8 #
transform $-1 1 0 0 0 1 0 0 0 1 70.791955320902133 48.34818113786249 21.37695787496946 1 rotate no_reflect no_shear #
lump $-1 $-1 $54 $9 #
transform $-1 1 0 0 0 1 0 0 0 1 70.791955320902133 48.34818113786249 21.37695787496946 1 rotate no_reflect no_shear #
lump $-1 $-1 $55 $10 #
transform $-1 1 0 0 0 1 0 0 0 1 70.791955320902133 48.34818113786249 21.37695787496946 1 rotate no_reflect no_shear #
lump $-1 $-1 $56 $11 #
transform $-1 1 0 0 0 1 0 0 0 1 70.791955320902133 48.34818113786249 21.37695787496946 1 rotate no_reflect no_shear #
lump $-1 $-1 $57 $12 #
transform $-1 1 0 0 0 1 0 0 0 1 70.791955320902133 48.34818113786249 21.37695787496946 1 rotate no_reflect no_shear #
lump $-1 $-1 $58 $13 #
transform $-1 1 0 0 0 1 0 0 0 1 70.791955320902133 48.34818113786249 21.37695787496946 1 rotate no_reflect no_shear #
lump $-1 $-1 $59 $14 #
transform $-1 1 0 0 0 1 0 0 0 1 70.791955320902133 48.34818113786249 21.37695787496946 1 rotate no_reflect no_shear #
shell $-1 $-1 $-1 $60 $-1 $15 #
shell $-1 $-1 $-1 $61 $-1 $17 #
shell $-1 $-1 $-1 $62 $-1 $19 #
shell $-1 $-1 $-1 $63 $-1 $21 #
shell $-1 $-1 $-1 $64 $-1 $23 #
shell $-1 $-1 $-1 $65 $-1 $25 #
shell $-1 $-1 $-1 $66 $-1 $27 #
shell $-1 $-1 $-1 $67 $-1 $29 #
shell $-1 $-1 $-1 $68 $-1 $31 #
shell $-1 $-1 $-1 $69 $-1 $33 #
shell $-1 $-1 $-1 $70 $-1 $35 #
shell $-1 $-1 $-1 $71 $-1 $37 #
shell $-1 $-1 $-1 $72 $-1 $39 #
shell $-1 $-1 $-1 $73 $-1 $41 #
shell $-1 $-1 $-1 $74 $-1 $43 #
face $-1 $75 $76 $45 $-1 $77 forward single #
face $-1 $78 $79 $46 $-1 $80 forward single #
face $-1 $81 $82 $47 $-1 $83 forward single #
face $-1 $84 $85 $48 $-1 $86 reversed single #
face $-1 $87 $88 $49 $-1 $89 forward single #
face $-1 $90 $91 $50 $-1 $92 forward single #
face $-1 $93 $94 $51 $-1 $95 reversed single #
face $-1 $96 $97 $52 $-1 $98 forward single #
face $-1 $99 $100 $53 $-1 $101 forward single #
face $-1 $102 $103 $54 $-1 $104 reversed single #
face $-1 $105 $106 $55 $-1 $107 forward single #
face $-1 $108 $109 $56 $-1 $110 forward single #
face $-1 $111 $112 $57 $-1 $113 reversed single #
face $-1 $114 $115 $58 $-1 $116 forward single #
face $-1 $117 $118 $59 $-1 $119 forward single #
face $-1 $120 $121 $45 $-1 $122 reversed single #
loop $-1 $-1 $123 $60 #
plane-surface $-1 0 0 21.37695787496946 0 0 1 1 0 0 forward_v I I I I #
face $-1 $124 $125 $46 $-1 $126 reversed single #
loop $-1 $-1 $127 $61 #
plane-surface $-1 0 -48.34818113786249 0 0 1 0 0 0 1 forward_v I I I I #
face $-1 $128 $129 $47 $-1 $130 reversed single #
loop $-1 $-1 $131 $62 #
plane-surface $-1 0 48.34818113786249 0 0 -1 0 0 0 -1 forward_v I I I I #
face $-1 $132 $133 $48 $-1 $134 reversed single #
loop $-1 $-1 $135 $63 #
plane-surface $-1 -172.63889849964107 -8.7569467168504218 107.65617845729491 0 1 0 -0.71933980857756763 0 0.69465836192734942 forward_v I I I I #
face $-1 $136 $137 $49 $-1 $138 forward single #
loop $-1 $139 $140 $64 #
cone-surface $-1 -64.587088228671064 -6.2549619406074441 14.97784670881987 0.71933980857756763 0 -0.69465836192734942 0.69465836192734942 0 0.71933980857756763 1 I I 0 1 1 forward I I I I #
face $-1 $141 $142 $50 $-1 $143 forward single #
loop $-1 $144 $145 $65 #
cone-surface $-1 -64.587088228671064 -2.5019847762429777 14.97784670881987 0.71933980857756763 0 -0.69465836192734942 0.69465836192734942 0 0.71933980857756763 1 I I 0 1 1 forward I I I I #
face $-1 $146 $147 $51 $-1 $148 reversed single #
loop $-1 $-1 $149 $66 #
plane-surface $-1 -172.63889849964107 22.268167686522823 107.65617845729491 0 1 0 -0.71933980857756763 0 0.69465836192734942 forward_v I I I I #
face $-1 $150 $151 $52 $-1 $152 forward single #
loop $-1 $153 $154 $67 #
cone-surface $-1 -64.587088228671064 24.7701524627658 14.97784670881987 0.71933980857756763 0 -0.69465836192734942 0.69465836192734942 0 0.71933980857756763 1 I I 0 1 1 forward I I I I #
face $-1 $155 $156 $53 $-1 $157 forward single #
loop $-1 $158 $159 $68 #
cone-surface $-1 -64.587088228671064 28.523129627130267 14.97784670881987 0.71933980857756763 0 -0.69465836192734942 0.69465836192734942 0 0.71933980857756763 1 I I 0 1 1 forward I I I I #
face $-1 $160 $161 $54 $-1 $162 reversed single #
loop $-1 $-1 $163 $69 #
plane-surface $-1 74.286451057937114 0 209.50312163603385 0 -1 0 -0.71933980857756763 0 -0.69465836192734942 forward_v I I I I #
face $-1 $164 $165 $55 $-1 $166 forward single #
loop $-1 $167 $168 $70 #
cone-surface $-1 64.587088228671064 -6.2549619406074441 14.97784670881987 -0.71933980857756763 0 -0.69465836192734942 0.69465836192734942 0 -0.71933980857756763 1 I I 0 1 1 forward I I I I #
face $-1 $169 $170 $56 $-1 $171 forward single #
loop $-1 $172 $173 $71 #
cone-surface $-1 64.587088228671064 -2.5019847762429777 14.97784670881987 -0.71933980857756763 0 -0.69465836192734942 0.69465836192734942 0 -0.71933980857756763 1 I I 0 1 1 forward I I I I #
face $-1 $174 $175 $57 $-1 $176 reversed single #
loop $-1 $-1 $177 $72 #
plane-surface $-1 74.286451057937114 31.025114403373244 209.50312163603385 0 -1 0 -0.71933980857756763 0 -0.69465836192734942 forward_v I I I I #
face $-1 $178 $179 $58 $-1 $180 forward single #
loop $-1 $181 $182 $73 #
cone-surface $-1 64.587088228671064 24.7701524627658 14.97784670881987 -0.71933980857756763 0 -0.69465836192734942 0.69465836192734942 0 -0.71933980857756763 1 I I 0 1 1 forward I I I I #
face $-1 $183 $184 $59 $-1 $185 forward single #
loop $-1 $186 $187 $74 #
cone-surface $-1 64.587088228671064 28.523129627130267 14.97784670881987 -0.71933980857756763 0 -0.69465836192734942 0.69465836192734942 0 -0.71933980857756763 1 I I 0 1 1 forward I I I I #
face $-1 $188 $189 $45 $-1 $190 reversed single #
loop $-1 $-1 $191 $75 #
plane-surface $-1 0 0 -21.37695787496946 0 0 1 1 0 0 forward_v I I I I #
coedge $-1 $192 $193 $194 $195 forward $76 $-1 #
face $-1 $196 $197 $46 $-1 $198 forward single #
loop $-1 $-1 $199 $78 #
plane-surface $-1 -70.791955320902133 0 0 1 0 0 0 0 -1 forward_v I I I I #
coedge $-1 $200 $201 $202 $203 forward $79 $-1 #
face $-1 $204 $205 $47 $-1 $206 forward single #
loop $-1 $-1 $207 $81 #
plane-surface $-1 70.791955320902133 0 0 -1 0 0 0 0 1 forward_v I I I I #
coedge $-1 $208 $209 $210 $211 forward $82 $-1 #
face $-1 $212 $213 $48 $-1 $214 reversed single #
loop $-1 $-1 $215 $84 #
plane-surface $-1 -70.791955320902147 -4.3784733584252109 9.303731015590941 -0.71933980857756763 0 0.69465836192734942 0.69465836192734942 0 0.71933980857756763 forward_v I I I I #
coedge $-1 $216 $217 $218 $219 reversed $85 $-1 #
face $-1 $-1 $220 $49 $-1 $221 forward single #
loop $-1 $222 $223 $87 #
cone-surface $-1 -63.852040920687472 -6.2549619406074441 14.268019791395862 0.71933980857756763 0 -0.69465836192734942 0.34732918096367471 0 0.35966990428878381 1 I I -0.70710678118654746 0.70710678118654746 0.5 forward I I I I #
loop $-1 $-1 $224 $64 #
coedge $-1 $140 $140 $225 $226 reversed $88 $-1 #
face $-1 $-1 $227 $50 $-1 $228 forward single #
loop $-1 $229 $230 $90 #
cone-surface $-1 -63.852040920687472 -2.5019847762429777 14.268019791395862 0.71933980857756763 0 -0.69465836192734942 0.34732918096367471 0 0.35966990428878381 1 I I -0.70710678118654746 0.70710678118654746 0.5 forward I I I I #
loop $-1 $-1 $231 $65 #
coedge $-1 $145 $145 $232 $233 reversed $91 $-1 #
face $-1 $234 $235 $51 $-1 $236 reversed single #
loop $-1 $-1 $237 $93 #
plane-surface $-1 -70.791955320902147 26.646641044948034 9.303731015590941 -0.71933980857756763 0 0.69465836192734942 0.69465836192734942 0 0.71933980857756763 forward_v I I I I #
coedge $-1 $238 $239 $240 $241 reversed $94 $-1 #
face $-1 $-1 $242 $52 $-1 $243 forward single #
loop $-1 $244 $245 $96 #
cone-surface $-1 -63.852040920687472 24.7701524627658 14.268019791395862 0.71933980857756763 0 -0.69465836192734942 0.34732918096367471 0 0.35966990428878381 1 I I -0.70710678118654746 0.70710678118654746 0.5 forward I I I I #
loop $-1 $-1 $246 $67 #
coedge $-1 $154 $154 $247 $248 reversed $97 $-1 #
face $-1 $-1 $249 $53 $-1 $250 forward single #
loop $-1 $251 $252 $99 #
cone-surface $-1 -63.852040920687472 28.523129627130267 14.268019791395862 0.71933980857756763 0 -0.69465836192734942 0.34732918096367471 0 0.35966990428878381 1 I I -0.70710678118654746 0.70710678118654746 0.5 forward I I I I #
loop $-1 $-1 $253 $68 #
coedge $-1 $159 $159 $254 $255 reversed $100 $-1 #
face $-1 $256 $257 $54 $-1 $258 reversed single #
loop $-1 $-1 $259 $102 #
plane-surface $-1 -27.560492120801811 -4.3784733584252109 111.15067419432988 0.71933980857756763 0 0.69465836192734942 0.69465836192734942 0 -0.71933980857756763 forward_v I I I I #
coedge $-1 $260 $261 $262 $263 reversed $103 $-1 #
face $-1 $-1 $264 $55 $-1 $265 forward single #
loop $-1 $266 $267 $105 #
cone-surface $-1 63.852040920687472 -6.2549619406074441 14.268019791395862 -0.71933980857756763 0 -0.69465836192734942 0.34732918096367471 0 -0.35966990428878381 1 I I -0.70710678118654746 0.70710678118654746 0.5 forward I I I I #
loop $-1 $-1 $268 $70 #
coedge $-1 $168 $168 $269 $270 reversed $106 $-1 #
face $-1 $-1 $271 $56 $-1 $272 forward single #
loop $-1 $273 $274 $108 #
cone-surface $-1 63.852040920687472 -2.5019847762429777 14.268019791395862 -0.71933980857756763 0 -0.69465836192734942 0.34732918096367471 0 -0.35966990428878381 1 I I -0.70710678118654746 0.70710678118654746 0.5 forward I I I I #
loop $-1 $-1 $275 $71 #
coedge $-1 $173 $173 $276 $277 reversed $109 $-1 #
face $-1 $278 $279 $57 $-1 $280 reversed single #
loop $-1 $-1 $281 $111 #
plane-surface $-1 -27.560492120801811 26.646641044948034 111.15067419432988 0.71933980857756763 0 0.69465836192734942 0.69465836192734942 0 -0.71933980857756763 forward_v I I I I #
coedge $-1 $282 $283 $284 $285 reversed $112 $-1 #
face $-1 $-1 $286 $58 $-1 $287 forward single #
loop $-1 $288 $289 $114 #
cone-surface $-1 63.852040920687472 24.7701524627658 14.268019791395862 -0.71933980857756763 0 -0.69465836192734942 0.34732918096367471 0 -0.35966990428878381 1 I I -0.70710678118654746 0.70710678118654746 0.5 forward I I I I #
loop $-1 $-1 $290 $73 #
coedge $-1 $182 $182 $291 $292 reversed $115 $-1 #
face $-1 $-1 $293 $59 $-1 $294 forward single #
loop $-1 $295 $296 $117 #
cone-surface $-1 63.852040920687472 28.523129627130267 14.268019791395862 -0.71933980857756763 0 -0.69465836192734942 0.34732918096367471 0 -0.35966990428878381 1 I I -0.70710678118654746 0.70710678118654746 0.5 forward I I I I #
loop $-1 $-1 $297 $74 #
coedge $-1 $187 $187 $298 $299 reversed $118 $-1 #
face $-1 $300 $301 $45 $-1 $302 reversed single #
loop $-1 $-1 $303 $120 #
plane-surface $-1 0 -48.34818113786249 0 0 1 0 0 0 1 forward_v I I I I #
coedge $-1 $304 $305 $306 $307 forward $121 $-1 #
coedge $-1 $308 $123 $309 $310 forward $76 $-1 #
coedge $-1 $123 $308 $311 $312 forward $76 $-1 #
coedge $-1 $313 $314 $123 $195 reversed $315 $-1 #
edge $-1 $316 -48.34818113786249 $317 48.34818113786249 $194 $318 forward 7 unknown #
face $-1 $319 $320 $46 $-1 $321 reversed single #
loop $-1 $-1 $322 $124 #
plane-surface $-1 0 -57.009714505107112 8.3866011589149778 0 0 1 1 0 0 forward_v I I I I #
coedge $-1 $323 $324 $201 $325 forward $125 $-1 #
coedge $-1 $326 $127 $327 $328 reversed $79 $-1 #
coedge $-1 $127 $326 $199 $325 reversed $79 $-1 #
coedge $-1 $329 $322 $127 $203 reversed $197 $-1 #
edge $-1 $330 -70.791955320902133 $331 70.791955320902133 $202 $332 forward 7 unknown #
face $-1 $333 $334 $47 $-1 $335 reversed single #
loop $-1 $-1 $336 $128 #
plane-surface $-1 0 57.009714505107105 8.3866011589149778 0 0 1 1 0 0 forward_v I I I I #
coedge $-1 $337 $338 $209 $339 forward $129 $-1 #
coedge $-1 $340 $131 $341 $342 reversed $82 $-1 #
coedge $-1 $131 $340 $207 $339 reversed $82 $-1 #
coedge $-1 $336 $343 $131 $211 reversed $205 $-1 #
edge $-1 $344 -70.791955320902133 $345 70.791955320902133 $210 $346 forward 7 unknown #
face $-1 $347 $348 $48 $-1 $349 reversed single #
loop $-1 $-1 $350 $132 #
plane-surface $-1 -172.63889849964107 0 107.65617845729491 0 -1 0 0.71933980857756763 0 -0.69465836192734942 forward_v I I I I #
coedge $-1 $351 $352 $353 $354 reversed $133 $-1 #
coedge $-1 $217 $135 $355 $356 reversed $85 $-1 #
coedge $-1 $135 $216 $351 $357 reversed $85 $-1 #
coedge $-1 $353 $358 $135 $219 forward $359 $-1 #
edge $-1 $360 15.527493928918403 $361 27.186473305990916 $218 $362 forward 7 unknown #
loop $-1 $-1 $225 $136 #
plane-surface $-1 -70.791955320902147 -4.3784733584252109 9.303731015590941 -0.71933980857756763 0 0.69465836192734942 0.69465836192734942 0 0.71933980857756763 forward_v I I I I #
loop $-1 $-1 $363 $87 #
coedge $-1 $223 $223 $224 $364 reversed $137 $-1 #
coedge $-1 $224 $224 $223 $364 forward $139 $-1 #
coedge $-1 $225 $225 $140 $226 forward $220 $-1 #
edge $-1 $365 0 $365 6.2831853071796004 $225 $366 forward 7 unknown #
loop $-1 $-1 $232 $141 #
plane-surface $-1 -70.791955320902147 -4.3784733584252109 9.303731015590941 -0.71933980857756763 0 0.69465836192734942 0.69465836192734942 0 0.71933980857756763 forward_v I I I I #
loop $-1 $-1 $367 $90 #
coedge $-1 $230 $230 $231 $368 reversed $142 $-1 #
coedge $-1 $231 $231 $230 $368 forward $144 $-1 #
coedge $-1 $232 $232 $145 $233 forward $227 $-1 #
edge $-1 $369 0 $369 6.2831853071796004 $232 $370 forward 7 unknown #
face $-1 $371 $372 $51 $-1 $373 forward single #
loop $-1 $-1 $374 $146 #
plane-surface $-1 -172.63889849964107 31.025114403373244 107.65617845729491 0 -1 0 0.71933980857756763 0 -0.69465836192734942 forward_v I I I I #
coedge $-1 $375 $376 $377 $378 reversed $147 $-1 #
coedge $-1 $239 $149 $379 $380 reversed $94 $-1 #
coedge $-1 $149 $238 $375 $381 reversed $94 $-1 #
coedge $-1 $377 $382 $149 $241 forward $372 $-1 #
edge $-1 $383 15.527493928918403 $384 27.186473305990916 $240 $385 forward 7 unknown #
loop $-1 $-1 $247 $150 #
plane-surface $-1 -70.791955320902147 26.646641044948034 9.303731015590941 -0.71933980857756763 0 0.69465836192734942 0.69465836192734942 0 0.71933980857756763 forward_v I I I I #
loop $-1 $-1 $386 $96 #
coedge $-1 $245 $245 $246 $387 reversed $151 $-1 #
coedge $-1 $246 $246 $245 $387 forward $153 $-1 #
coedge $-1 $247 $247 $154 $248 forward $242 $-1 #
edge $-1 $388 0 $388 6.2831853071796004 $247 $389 forward 7 unknown #
loop $-1 $-1 $254 $155 #
plane-surface $-1 -70.791955320902147 26.646641044948034 9.303731015590941 -0.71933980857756763 0 0.69465836192734942 0.69465836192734942 0 0.71933980857756763 forward_v I I I I #
loop $-1 $-1 $390 $99 #
coedge $-1 $252 $252 $253 $391 reversed $156 $-1 #
coedge $-1 $253 $253 $252 $391 forward $158 $-1 #
coedge $-1 $254 $254 $159 $255 forward $249 $-1 #
edge $-1 $392 0 $392 6.2831853071796004 $254 $393 forward 7 unknown #
face $-1 $394 $395 $54 $-1 $396 forward single #
loop $-1 $-1 $397 $160 #
plane-surface $-1 74.286451057937114 -8.7569467168504218 209.50312163603385 0 1 0 0.71933980857756763 0 0.69465836192734942 forward_v I I I I #
coedge $-1 $398 $399 $400 $401 reversed $161 $-1 #
coedge $-1 $261 $163 $402 $403 reversed $103 $-1 #
coedge $-1 $163 $260 $398 $404 reversed $103 $-1 #
coedge $-1 $400 $405 $163 $263 forward $395 $-1 #
edge $-1 $406 -33.648729791933576 $407 -21.989750414861092 $262 $408 forward 7 unknown #
loop $-1 $-1 $269 $164 #
plane-surface $-1 -27.560492120801811 -4.3784733584252109 111.15067419432988 0.71933980857756763 0 0.69465836192734942 0.69465836192734942 0 -0.71933980857756763 forward_v I I I I #
loop $-1 $-1 $409 $105 #
coedge $-1 $267 $267 $268 $410 reversed $165 $-1 #
coedge $-1 $268 $268 $267 $410 forward $167 $-1 #
coedge $-1 $269 $269 $168 $270 forward $264 $-1 #
edge $-1 $411 0 $411 6.2831853071796004 $269 $412 forward 7 unknown #
loop $-1 $-1 $276 $169 #
plane-surface $-1 -27.560492120801811 -4.3784733584252109 111.15067419432988 0.71933980857756763 0 0.69465836192734942 0.69465836192734942 0 -0.71933980857756763 forward_v I I I I #
loop $-1 $-1 $413 $108 #
coedge $-1 $274 $274 $275 $414 reversed $170 $-1 #
coedge $-1 $275 $275 $274 $414 forward $172 $-1 #
coedge $-1 $276 $276 $173 $277 forward $271 $-1 #
edge $-1 $415 0 $415 6.2831853071796004 $276 $416 forward 7 unknown #
face $-1 $417 $418 $57 $-1 $419 reversed single #
loop $-1 $-1 $420 $174 #
plane-surface $-1 74.286451057937114 22.268167686522823 209.50312163603385 0 1 0 0.71933980857756763 0 0.69465836192734942 forward_v I I I I #
coedge $-1 $421 $422 $423 $424 reversed $175 $-1 #
coedge $-1 $283 $177 $425 $426 reversed $112 $-1 #
coedge $-1 $177 $282 $421 $427 reversed $112 $-1 #
coedge $-1 $423 $428 $177 $285 forward $429 $-1 #
edge $-1 $430 -33.648729791933576 $431 -21.989750414861092 $284 $432 forward 7 unknown #
loop $-1 $-1 $291 $178 #
plane-surface $-1 -27.560492120801811 26.646641044948034 111.15067419432988 0.71933980857756763 0 0.69465836192734942 0.69465836192734942 0 -0.71933980857756763 forward_v I I I I #
loop $-1 $-1 $433 $114 #
coedge $-1 $289 $289 $290 $434 reversed $179 $-1 #
coedge $-1 $290 $290 $289 $434 forward $181 $-1 #
coedge $-1 $291 $291 $182 $292 forward $286 $-1 #
edge $-1 $435 0 $435 6.2831853071796004 $291 $436 forward 7 unknown #
loop $-1 $-1 $298 $183 #
plane-surface $-1 -27.560492120801811 26.646641044948034 111.15067419432988 0.71933980857756763 0 0.69465836192734942 0.69465836192734942 0 -0.71933980857756763 forward_v I I I I #
loop $-1 $-1 $437 $117 #
coedge $-1 $296 $296 $297 $438 reversed $184 $-1 #
coedge $-1 $297 $297 $296 $438 forward $186 $-1 #
coedge $-1 $298 $298 $187 $299 forward $293 $-1 #
edge $-1 $439 0 $439 6.2831853071796004 $298 $440 forward 7 unknown #
face $-1 $441 $442 $45 $-1 $443 reversed single #
loop $-1 $-1 $444 $188 #
plane-surface $-1 -70.791955320902133 0 0 1 0 0 0 0 -1 forward_v I I I I #
coedge $-1 $445 $311 $446 $447 forward $189 $-1 #
coedge $-1 $448 $191 $445 $449 forward $121 $-1 #
coedge $-1 $191 $448 $450 $451 forward $121 $-1 #
coedge $-1 $314 $313 $191 $307 reversed $315 $-1 #
edge $-1 $452 -48.34818113786249 $453 48.34818113786249 $306 $454 forward 7 unknown #
coedge $-1 $193 $192 $455 $456 forward $76 $-1 #
coedge $-1 $457 $458 $192 $310 reversed $442 $-1 #
edge $-1 $317 -70.791955320902133 $459 70.791955320902133 $309 $460 forward 7 unknown #
coedge $-1 $303 $461 $193 $312 reversed $189 $-1 #
edge $-1 $462 -70.791955320902133 $316 70.791955320902133 $311 $463 forward 7 unknown #
coedge $-1 $306 $194 $461 $464 forward $315 $-1 #
coedge $-1 $194 $306 $457 $465 reversed $315 $-1 #
loop $-1 $-1 $313 $441 #
vertex $-1 $195 $466 #
vertex $-1 $195 $467 #
straight-curve $-1 70.791955320902133 0 21.37695787496946 0 1 0 I I #
face $-1 $468 $469 $46 $-1 $470 reversed single #
loop $-1 $-1 $471 $196 #
plane-surface $-1 0 -57.009714505107112 -1.5210287267630278 0 0 1 1 0 0 forward_v I I I I #
coedge $-1 $202 $472 $473 $474 forward $197 $-1 #
coedge $-1 $475 $199 $476 $477 reversed $125 $-1 #
coedge $-1 $199 $475 $329 $478 reversed $125 $-1 #
edge $-1 $330 -8.3866011589149778 $479 1.5210287267630278 $199 $480 forward 7 unknown #
coedge $-1 $201 $200 $481 $482 forward $79 $-1 #
coedge $-1 $473 $483 $200 $328 forward $484 $-1 #
edge $-1 $485 -1.5210287267630278 $331 8.3866011589149778 $327 $486 forward 7 unknown #
coedge $-1 $472 $202 $324 $478 forward $197 $-1 #
vertex $-1 $325 $487 #
vertex $-1 $474 $488 #
straight-curve $-1 0 -48.34818113786249 8.3866011589149778 1 0 0 I I #
face $-1 $489 $490 $47 $-1 $491 reversed single #
loop $-1 $-1 $492 $204 #
plane-surface $-1 0 57.009714505107105 -1.5210287267630278 0 0 1 1 0 0 forward_v I I I I #
coedge $-1 $493 $210 $338 $494 forward $205 $-1 #
coedge $-1 $495 $207 $492 $496 reversed $129 $-1 #
coedge $-1 $207 $495 $336 $494 reversed $129 $-1 #
edge $-1 $344 -8.3866011589149778 $497 1.5210287267630278 $207 $498 forward 7 unknown #
coedge $-1 $209 $208 $499 $500 forward $82 $-1 #
coedge $-1 $501 $502 $208 $342 forward $503 $-1 #
edge $-1 $504 -1.5210287267630278 $345 8.3866011589149778 $341 $505 forward 7 unknown #
coedge $-1 $210 $493 $501 $506 forward $205 $-1 #
vertex $-1 $339 $507 #
vertex $-1 $506 $508 #
straight-curve $-1 0 48.34818113786249 8.3866011589149778 -1 0 0 I I #
face $-1 $-1 $359 $48 $-1 $509 forward single #
loop $-1 $-1 $510 $212 #
plane-surface $-1 -70.791955320902133 0 0 1 0 0 0 0 -1 forward_v I I I I #
coedge $-1 $511 $512 $513 $514 reversed $213 $-1 #
coedge $-1 $515 $215 $217 $357 forward $133 $-1 #
coedge $-1 $215 $515 $511 $516 forward $133 $-1 #
coedge $-1 $513 $218 $215 $354 forward $359 $-1 #
edge $-1 $361 -6.5677100376378164 $517 2.1892366792126055 $353 $518 forward 7 unknown #
coedge $-1 $519 $520 $216 $356 forward $348 $-1 #
edge $-1 $521 -44.524358213056502 $360 -32.451131353677994 $355 $522 forward 7 unknown #
edge $-1 $361 -16.783760213760839 $521 -2.0094122568606809e-014 $217 $523 forward 7 unknown #
coedge $-1 $218 $513 $519 $524 forward $359 $-1 #
loop $-1 $-1 $513 $347 #
vertex $-1 $356 $525 #
vertex $-1 $219 $526 #
straight-curve $-1 -86.319449249820536 -8.7569467168504218 21.376957874969463 1 0 0 I I #
coedge $-1 $363 $363 $-1 $527 reversed $222 $-1 #
edge $-1 $528 0 $528 6.2831853071796004 $223 $529 forward 7 unknown #
vertex $-1 $226 $530 #
ellipse-curve $-1 -64.962465632365877 -6.2549619406074441 15.340344445280207 -0.71933980857756763 0 0.69465836192734942 0.69465836192734942 0 0.71933980857756763 1 I I #
coedge $-1 $367 $367 $-1 $531 reversed $229 $-1 #
edge $-1 $532 0 $532 6.2831853071796004 $230 $533 forward 7 unknown #
vertex $-1 $233 $534 #
ellipse-curve $-1 -64.962465632365877 -2.5019847762429777 15.340344445280207 -0.71933980857756763 0 0.69465836192734942 0.69465836192734942 0 0.71933980857756763 1 I I #
face $-1 $-1 $535 $51 $-1 $536 reversed single #
loop $-1 $-1 $240 $234 #
plane-surface $-1 0 0 21.37695787496946 0 0 1 1 0 0 forward_v I I I I #
coedge $-1 $537 $538 $539 $540 reversed $235 $-1 #
coedge $-1 $541 $237 $239 $381 forward $147 $-1 #
coedge $-1 $237 $541 $537 $542 forward $147 $-1 #
coedge $-1 $539 $240 $237 $378 forward $372 $-1 #
edge $-1 $384 8.9448471640488059 $543 17.701793880899228 $377 $544 forward 7 unknown #
coedge $-1 $545 $546 $238 $380 forward $535 $-1 #
edge $-1 $547 -44.524358213056502 $383 -32.451131353677994 $379 $548 forward 7 unknown #
edge $-1 $384 -16.783760213760839 $547 -2.0094122568606809e-014 $239 $549 forward 7 unknown #
coedge $-1 $240 $539 $545 $550 forward $372 $-1 #
vertex $-1 $241 $551 #
vertex $-1 $241 $552 #
straight-curve $-1 -86.319449249820536 22.268167686522823 21.376957874969463 1 0 0 I I #
coedge $-1 $386 $386 $-1 $553 reversed $244 $-1 #
edge $-1 $554 0 $554 6.2831853071796004 $245 $555 forward 7 unknown #
vertex $-1 $248 $556 #
ellipse-curve $-1 -64.962465632365877 24.7701524627658 15.340344445280207 -0.71933980857756763 0 0.69465836192734942 0.69465836192734942 0 0.71933980857756763 1 I I #
coedge $-1 $390 $390 $-1 $557 reversed $251 $-1 #
edge $-1 $558 0 $558 6.2831853071796004 $252 $559 forward 7 unknown #
vertex $-1 $255 $560 #
ellipse-curve $-1 -64.962465632365877 28.523129627130267 15.340344445280207 -0.71933980857756763 0 0.69465836192734942 0.69465836192734942 0 0.71933980857756763 1 I I #
face $-1 $-1 $561 $54 $-1 $562 reversed single #
loop $-1 $-1 $262 $256 #
plane-surface $-1 0 0 21.37695787496946 0 0 1 1 0 0 forward_v I I I I #
coedge $-1 $563 $564 $565 $566 reversed $257 $-1 #
coedge $-1 $567 $259 $261 $404 forward $161 $-1 #
coedge $-1 $259 $567 $563 $568 forward $161 $-1 #
coedge $-1 $565 $262 $259 $401 forward $395 $-1 #
edge $-1 $407 -2.1892366792126055 $569 6.5677100376378164 $400 $570 forward 7 unknown #
coedge $-1 $571 $572 $260 $403 forward $561 $-1 #
edge $-1 $573 -95.447829802425943 $406 -83.374602943047464 $402 $574 forward 7 unknown #
edge $-1 $407 124.80015042804345 $573 141.58391064180424 $261 $575 forward 7 unknown #
coedge $-1 $262 $565 $571 $576 forward $395 $-1 #
vertex $-1 $403 $577 #
vertex $-1 $263 $578 #
straight-curve $-1 37.143225528968557 0 21.376957874969463 -1 0 0 I I #
coedge $-1 $409 $409 $-1 $579 reversed $266 $-1 #
edge $-1 $580 0 $580 6.2831853071796004 $267 $581 forward 7 unknown #
vertex $-1 $270 $582 #
ellipse-curve $-1 64.962465632365891 -6.2549619406074441 15.340344445280223 0.71933980857756763 0 0.69465836192734942 0.69465836192734942 0 -0.71933980857756763 1 I I #
coedge $-1 $413 $413 $-1 $583 reversed $273 $-1 #
edge $-1 $584 0 $584 6.2831853071796004 $274 $585 forward 7 unknown #
vertex $-1 $277 $586 #
ellipse-curve $-1 64.962465632365891 -2.5019847762429777 15.340344445280223 0.71933980857756763 0 0.69465836192734942 0.69465836192734942 0 -0.71933980857756763 1 I I #
face $-1 $-1 $429 $57 $-1 $587 forward single #
loop $-1 $-1 $588 $278 #
plane-surface $-1 70.791955320902133 0 0 -1 0 0 0 0 1 forward_v I I I I #
coedge $-1 $589 $590 $591 $592 reversed $279 $-1 #
coedge $-1 $593 $281 $283 $427 forward $175 $-1 #
coedge $-1 $281 $593 $589 $594 forward $175 $-1 #
coedge $-1 $591 $284 $281 $424 forward $429 $-1 #
edge $-1 $431 -17.701793880899228 $595 -8.9448471640488059 $423 $596 forward 7 unknown #
coedge $-1 $597 $598 $282 $426 forward $418 $-1 #
edge $-1 $599 -95.447829802425943 $430 -83.374602943047464 $425 $600 forward 7 unknown #
edge $-1 $431 124.80015042804345 $599 141.58391064180424 $283 $601 forward 7 unknown #
coedge $-1 $284 $591 $597 $602 forward $429 $-1 #
loop $-1 $-1 $591 $417 #
vertex $-1 $426 $603 #
vertex $-1 $285 $604 #
straight-curve $-1 37.143225528968557 31.025114403373244 21.376957874969463 -1 0 0 I I #
coedge $-1 $433 $433 $-1 $605 reversed $288 $-1 #
edge $-1 $606 0 $606 6.2831853071796004 $289 $607 forward 7 unknown #
vertex $-1 $292 $608 #
ellipse-curve $-1 64.962465632365891 24.7701524627658 15.340344445280223 0.71933980857756763 0 0.69465836192734942 0.69465836192734942 0 -0.71933980857756763 1 I I #
coedge $-1 $437 $437 $-1 $609 reversed $295 $-1 #
edge $-1 $610 0 $610 6.2831853071796004 $296 $611 forward 7 unknown #
vertex $-1 $299 $612 #
ellipse-curve $-1 64.962465632365891 28.523129627130267 15.340344445280223 0.71933980857756763 0 0.69465836192734942 0.69465836192734942 0 -0.71933980857756763 1 I I #
face $-1 $-1 $315 $45 $-1 $613 reversed single #
loop $-1 $-1 $458 $300 #
plane-surface $-1 0 48.34818113786249 0 0 -1 0 0 0 -1 forward_v I I I I #
coedge $-1 $614 $455 $458 $615 forward $301 $-1 #
coedge $-1 $461 $303 $304 $449 reversed $189 $-1 #
coedge $-1 $455 $614 $303 $447 reversed $301 $-1 #
edge $-1 $462 -21.37695787496946 $616 21.37695787496946 $446 $617 forward 7 unknown #
coedge $-1 $305 $304 $614 $618 forward $121 $-1 #
edge $-1 $453 -70.791955320902133 $616 70.791955320902133 $445 $619 forward 7 unknown #
coedge $-1 $458 $457 $305 $451 reversed $442 $-1 #
edge $-1 $620 -70.791955320902133 $452 70.791955320902133 $450 $621 forward 7 unknown #
vertex $-1 $307 $622 #
vertex $-1 $464 $623 #
straight-curve $-1 70.791955320902133 0 -21.37695787496946 0 -1 0 I I #
coedge $-1 $444 $446 $308 $456 reversed $301 $-1 #
edge $-1 $459 -48.34818113786249 $462 48.34818113786249 $455 $624 forward 7 unknown #
coedge $-1 $450 $309 $314 $465 forward $442 $-1 #
coedge $-1 $309 $450 $444 $615 reversed $442 $-1 #
vertex $-1 $310 $625 #
straight-curve $-1 0 48.34818113786249 21.37695787496946 -1 0 0 I I #
coedge $-1 $311 $445 $313 $464 reversed $189 $-1 #
vertex $-1 $456 $626 #
straight-curve $-1 0 -48.34818113786249 21.37695787496946 1 0 0 I I #
edge $-1 $316 -21.37695787496946 $453 21.37695787496946 $313 $627 forward 7 unknown #
edge $-1 $317 -21.37695787496946 $452 21.37695787496946 $314 $628 forward 7 unknown #
point $-1 70.791955320902133 -48.34818113786249 21.37695787496946 #
point $-1 70.791955320902133 48.34818113786249 21.37695787496946 #
face $-1 $-1 $484 $46 $-1 $629 reversed single #
loop $-1 $-1 $630 $319 #
plane-surface $-1 0 -65.671247872351728 3.432786216075975 0 1 0 0 0 1 forward_v I I I I #
coedge $-1 $631 $481 $483 $632 forward $320 $-1 #
coedge $-1 $322 $329 $633 $634 forward $197 $-1 #
coedge $-1 $635 $327 $322 $474 reversed $484 $-1 #
edge $-1 $636 -8.6615333672446155 $331 8.6615333672446226 $473 $637 forward 7 unknown #
coedge $-1 $324 $323 $630 $638 reversed $125 $-1 #
coedge $-1 $481 $631 $323 $477 forward $320 $-1 #
edge $-1 $639 -8.6615333672446155 $479 8.6615333672446226 $323 $640 forward 7 unknown #
edge $-1 $330 -8.6615333672446226 $641 8.6615333672446155 $324 $642 forward 7 unknown #
vertex $-1 $325 $643 #
straight-curve $-1 -70.791955320902133 -48.34818113786249 0 0 0 -1 I I #
coedge $-1 $471 $476 $326 $482 reversed $320 $-1 #
edge $-1 $485 -70.791955320902133 $479 70.791955320902133 $481 $644 forward 7 unknown #
coedge $-1 $327 $635 $471 $632 reversed $484 $-1 #
loop $-1 $-1 $327 $468 #
vertex $-1 $328 $645 #
straight-curve $-1 70.791955320902133 -48.34818113786249 0 0 0 1 I I #
point $-1 -70.791955320902133 -48.34818113786249 8.3866011589149778 #
point $-1 70.791955320902133 -48.34818113786249 8.3866011589149778 #
face $-1 $-1 $503 $47 $-1 $646 reversed single #
loop $-1 $-1 $647 $333 #
plane-surface $-1 0 65.671247872351728 3.432786216075975 0 -1 0 0 0 -1 forward_v I I I I #
coedge $-1 $499 $648 $337 $496 forward $334 $-1 #
coedge $-1 $343 $336 $649 $650 forward $205 $-1 #
edge $-1 $344 -8.6615333672446226 $651 8.6615333672446226 $338 $652 forward 7 unknown #
coedge $-1 $338 $337 $647 $653 reversed $129 $-1 #
edge $-1 $654 -8.6615333672446226 $497 8.6615333672446226 $337 $655 forward 7 unknown #
vertex $-1 $339 $656 #
straight-curve $-1 70.791955320902133 48.34818113786249 0 0 0 -1 I I #
coedge $-1 $657 $492 $340 $500 reversed $334 $-1 #
edge $-1 $504 -70.791955320902133 $497 70.791955320902133 $499 $658 forward 7 unknown #
coedge $-1 $659 $341 $343 $506 reversed $503 $-1 #
coedge $-1 $341 $659 $657 $660 reversed $503 $-1 #
loop $-1 $-1 $341 $489 #
vertex $-1 $342 $661 #
straight-curve $-1 -70.791955320902133 48.34818113786249 0 0 0 1 I I #
edge $-1 $662 -8.6615333672446226 $345 8.6615333672446226 $501 $663 forward 7 unknown #
point $-1 70.791955320902133 48.348181137862483 8.3866011589149778 #
point $-1 -70.791955320902133 48.348181137862483 8.3866011589149778 #
plane-surface $-1 0 0 21.37695787496946 0 0 1 1 0 0 forward_v I I I I #
coedge $-1 $520 $519 $512 $664 forward $348 $-1 #
coedge $-1 $512 $350 $352 $516 reversed $213 $-1 #
coedge $-1 $350 $511 $510 $664 reversed $213 $-1 #
coedge $-1 $358 $353 $350 $514 forward $359 $-1 #
edge $-1 $517 -27.186473305990916 $665 -15.527493928918403 $513 $666 forward 7 unknown #
coedge $-1 $352 $351 $520 $667 reversed $133 $-1 #
edge $-1 $668 2.0094122568606809e-014 $517 16.783760213760839 $511 $669 forward 7 unknown #
vertex $-1 $354 $670 #
straight-curve $-1 -59.132975943829621 -2.1892366792126055 21.376957874969463 0 1 0 I I #
coedge $-1 $510 $355 $358 $524 reversed $348 $-1 #
coedge $-1 $355 $510 $515 $667 forward $348 $-1 #
vertex $-1 $356 $671 #
straight-curve $-1 -70.791955320902133 -8.7569467168504218 53.828089228647457 0 0 1 I I #
straight-curve $-1 -70.791955320902147 -8.7569467168504218 9.303731015590941 -0.69465836192734942 0 -0.71933980857756763 I I #
edge $-1 $665 0 $360 8.7569467168504218 $519 $672 forward 7 unknown #
point $-1 -70.791955320902133 -8.7569467168504218 21.37695787496946 #
point $-1 -59.132975943829621 -8.7569467168504218 21.376957874969456 #
edge $-1 $673 1 $673 0 $363 $-1 forward 7 unknown #
vertex $-1 $364 $674 #
ellipse-curve $-1 -64.211710824976251 -6.2549619406074441 14.615348972359536 -0.71933980857756763 0 0.69465836192734942 0.69465836192734942 0 0.71933980857756763 1 I I #
point $-1 -64.267807270438524 -6.2549619406074441 16.059684253857771 #
edge $-1 $675 1 $675 0 $367 $-1 forward 7 unknown #
vertex $-1 $368 $676 #
ellipse-curve $-1 -64.211710824976251 -2.5019847762429777 14.615348972359536 -0.71933980857756763 0 0.69465836192734942 0.69465836192734942 0 0.71933980857756763 1 I I #
point $-1 -64.267807270438524 -2.5019847762429777 16.059684253857771 #
loop $-1 $-1 $379 $371 #
plane-surface $-1 -70.791955320902133 0 0 1 0 0 0 0 -1 forward_v I I I I #
coedge $-1 $538 $374 $376 $542 reversed $235 $-1 #
coedge $-1 $374 $537 $677 $678 reversed $235 $-1 #
coedge $-1 $382 $377 $374 $540 forward $372 $-1 #
edge $-1 $543 -27.186473305990916 $679 -15.527493928918403 $539 $680 forward 7 unknown #
coedge $-1 $376 $375 $546 $681 reversed $147 $-1 #
edge $-1 $682 2.0094122568606809e-014 $543 16.783760213760839 $537 $683 forward 7 unknown #
vertex $-1 $378 $684 #
straight-curve $-1 -59.132975943829621 13.323320522474017 21.376957874969463 0 1 0 I I #
coedge $-1 $677 $379 $382 $550 reversed $535 $-1 #
coedge $-1 $379 $677 $541 $681 forward $535 $-1 #
vertex $-1 $380 $685 #
straight-curve $-1 -70.791955320902133 22.268167686522823 53.828089228647457 0 0 1 I I #
straight-curve $-1 -70.791955320902147 22.268167686522823 9.303731015590941 -0.69465836192734942 0 -0.71933980857756763 I I #
edge $-1 $679 -31.025114403373244 $383 -22.268167686522823 $545 $686 forward 7 unknown #
point $-1 -70.791955320902133 22.268167686522823 21.37695787496946 #
point $-1 -59.132975943829621 22.268167686522823 21.376957874969456 #
edge $-1 $687 1 $687 0 $386 $-1 forward 7 unknown #
vertex $-1 $387 $688 #
ellipse-curve $-1 -64.211710824976251 24.7701524627658 14.615348972359536 -0.71933980857756763 0 0.69465836192734942 0.69465836192734942 0 0.71933980857756763 1 I I #
point $-1 -64.267807270438524 24.7701524627658 16.059684253857771 #
edge $-1 $689 1 $689 0 $390 $-1 forward 7 unknown #
vertex $-1 $391 $690 #
ellipse-curve $-1 -64.211710824976251 28.523129627130267 14.615348972359536 -0.71933980857756763 0 0.69465836192734942 0.69465836192734942 0 0.71933980857756763 1 I I #
point $-1 -64.267807270438524 28.523129627130267 16.059684253857771 #
loop $-1 $-1 $402 $394 #
plane-surface $-1 70.791955320902133 0 0 -1 0 0 0 0 1 forward_v I I I I #
coedge $-1 $564 $397 $399 $568 reversed $257 $-1 #
coedge $-1 $397 $563 $691 $692 reversed $257 $-1 #
coedge $-1 $405 $400 $397 $566 forward $395 $-1 #
edge $-1 $569 21.989750414861092 $693 33.648729791933576 $565 $694 forward 7 unknown #
coedge $-1 $399 $398 $572 $695 reversed $161 $-1 #
edge $-1 $696 -141.58391064180424 $569 -124.80015042804345 $563 $697 forward 7 unknown #
vertex $-1 $401 $698 #
straight-curve $-1 59.132975943829628 -2.1892366792126055 21.376957874969463 0 -1 0 I I #
coedge $-1 $691 $402 $405 $576 reversed $561 $-1 #
coedge $-1 $402 $691 $567 $695 forward $561 $-1 #
vertex $-1 $403 $699 #
straight-curve $-1 70.791955320902133 0 104.75156081801693 0 0 1 I I #
straight-curve $-1 -27.560492120801811 0 111.15067419432988 0.69465836192734942 0 -0.71933980857756763 I I #
edge $-1 $693 -8.7569467168504218 $406 0 $571 $700 forward 7 unknown #
point $-1 70.791955320902133 0 21.37695787496946 #
point $-1 59.132975943829649 0 21.376957874969463 #
edge $-1 $701 1 $701 0 $409 $-1 forward 7 unknown #
vertex $-1 $410 $702 #
ellipse-curve $-1 64.211710824976251 -6.2549619406074441 14.615348972359536 0.71933980857756763 0 0.69465836192734942 0.69465836192734942 0 -0.71933980857756763 1 I I #
point $-1 65.657123994293229 -6.2549619406074441 14.621004636702635 #
edge $-1 $703 1 $703 0 $413 $-1 forward 7 unknown #
vertex $-1 $414 $704 #
ellipse-curve $-1 64.211710824976251 -2.5019847762429777 14.615348972359536 0.71933980857756763 0 0.69465836192734942 0.69465836192734942 0 -0.71933980857756763 1 I I #
point $-1 65.657123994293229 -2.5019847762429777 14.621004636702635 #
plane-surface $-1 0 0 21.37695787496946 0 0 1 1 0 0 forward_v I I I I #
coedge $-1 $598 $597 $590 $705 forward $418 $-1 #
coedge $-1 $590 $420 $422 $594 reversed $279 $-1 #
coedge $-1 $420 $589 $588 $705 reversed $279 $-1 #
coedge $-1 $428 $423 $420 $592 forward $429 $-1 #
edge $-1 $595 21.989750414861092 $706 33.648729791933576 $591 $707 forward 7 unknown #
coedge $-1 $422 $421 $598 $708 reversed $175 $-1 #
edge $-1 $709 -141.58391064180424 $595 -124.80015042804345 $589 $710 forward 7 unknown #
vertex $-1 $424 $711 #
straight-curve $-1 59.132975943829628 13.323320522474017 21.376957874969463 0 -1 0 I I #
coedge $-1 $588 $425 $428 $602 reversed $418 $-1 #
coedge $-1 $425 $588 $593 $708 forward $418 $-1 #
vertex $-1 $426 $712 #
straight-curve $-1 70.791955320902133 31.025114403373244 104.75156081801693 0 0 1 I I #
straight-curve $-1 -27.560492120801811 31.025114403373244 111.15067419432988 0.69465836192734942 0 -0.71933980857756763 I I #
edge $-1 $706 22.268167686522823 $430 31.025114403373244 $597 $713 forward 7 unknown #
point $-1 70.791955320902133 31.025114403373244 21.37695787496946 #
point $-1 59.132975943829649 31.025114403373244 21.376957874969463 #
edge $-1 $714 1 $714 0 $433 $-1 forward 7 unknown #
vertex $-1 $434 $715 #
ellipse-curve $-1 64.211710824976251 24.7701524627658 14.615348972359536 0.71933980857756763 0 0.69465836192734942 0.69465836192734942 0 -0.71933980857756763 1 I I #
point $-1 65.657123994293229 24.7701524627658 14.621004636702635 #
edge $-1 $716 1 $716 0 $437 $-1 forward 7 unknown #
vertex $-1 $438 $717 #
ellipse-curve $-1 64.211710824976251 28.523129627130267 14.615348972359536 0.71933980857756763 0 0.69465836192734942 0.69465836192734942 0 -0.71933980857756763 1 I I #
point $-1 65.657123994293229 28.523129627130267 14.621004636702635 #
plane-surface $-1 70.791955320902133 0 0 -1 0 0 0 0 1 forward_v I I I I #
coedge $-1 $446 $444 $448 $618 reversed $301 $-1 #
edge $-1 $459 -21.37695787496946 $620 21.37695787496946 $458 $718 forward 7 unknown #
vertex $-1 $618 $719 #
straight-curve $-1 -70.791955320902133 -48.34818113786249 0 0 0 -1 I I #
edge $-1 $616 -48.34818113786249 $620 48.34818113786249 $614 $720 forward 7 unknown #
straight-curve $-1 0 -48.34818113786249 -21.37695787496946 -1 0 0 I I #
vertex $-1 $451 $721 #
straight-curve $-1 0 48.34818113786249 -21.37695787496946 1 0 0 I I #
point $-1 70.791955320902133 48.34818113786249 -21.37695787496946 #
point $-1 70.791955320902133 -48.34818113786249 -21.37695787496946 #
straight-curve $-1 -70.791955320902133 0 21.37695787496946 0 -1 0 I I #
point $-1 -70.791955320902133 48.34818113786249 21.37695787496946 #
point $-1 -70.791955320902133 -48.34818113786249 21.37695787496946 #
straight-curve $-1 70.791955320902133 -48.34818113786249 0 0 0 -1 I I #
straight-curve $-1 70.791955320902133 48.34818113786249 0 0 0 -1 I I #
plane-surface $-1 70.791955320902133 0 0 -1 0 0 0 0 1 forward_v I I I I #
coedge $-1 $722 $633 $475 $638 forward $469 $-1 #
coedge $-1 $476 $471 $722 $723 forward $320 $-1 #
edge $-1 $485 -8.6615333672446226 $724 8.6615333672446155 $483 $725 forward 7 unknown #
coedge $-1 $630 $726 $472 $634 reversed $469 $-1 #
edge $-1 $641 -70.791955320902133 $636 70.791955320902133 $633 $727 forward 7 unknown #
coedge $-1 $483 $473 $726 $728 forward $484 $-1 #
vertex $-1 $474 $729 #
straight-curve $-1 70.791955320902133 -57.009714505107112 8.3866011589149778 0 1 0 I I #
edge $-1 $641 -4.9538149428390028 $639 4.9538149428390028 $475 $730 forward 7 unknown #
vertex $-1 $477 $731 #
straight-curve $-1 -70.791955320902133 -57.009714505107112 -1.5210287267630278 0 1 0 I I #
vertex $-1 $478 $732 #
straight-curve $-1 -70.791955320902133 -57.009714505107112 8.3866011589149778 0 -1 0 I I #
point $-1 -70.791955320902133 -48.34818113786249 -1.5210287267630278 #
straight-curve $-1 0 -48.34818113786249 -1.5210287267630278 -1 0 0 I I #
point $-1 70.791955320902133 -48.34818113786249 -1.5210287267630278 #
plane-surface $-1 -70.791955320902133 0 0 1 0 0 0 0 -1 forward_v I I I I #
coedge $-1 $733 $649 $495 $653 forward $490 $-1 #
coedge $-1 $492 $657 $733 $734 forward $334 $-1 #
coedge $-1 $647 $735 $493 $650 reversed $490 $-1 #
edge $-1 $651 -70.791955320902133 $662 70.791955320902133 $649 $736 forward 7 unknown #
vertex $-1 $494 $737 #
straight-curve $-1 70.791955320902133 57.009714505107105 8.3866011589149778 0 1 0 I I #
edge $-1 $651 -4.9538149428390028 $654 4.9538149428390028 $495 $738 forward 7 unknown #
vertex $-1 $496 $739 #
straight-curve $-1 70.791955320902133 57.009714505107105 -1.5210287267630278 0 -1 0 I I #
point $-1 70.791955320902133 48.348181137862483 -1.5210287267630278 #
coedge $-1 $648 $499 $502 $660 forward $334 $-1 #
straight-curve $-1 0 48.34818113786249 -1.5210287267630278 1 0 0 I I #
coedge $-1 $502 $501 $735 $740 forward $503 $-1 #
edge $-1 $504 -8.6615333672446226 $741 8.6615333672446226 $502 $742 forward 7 unknown #
point $-1 -70.791955320902133 48.348181137862483 -1.5210287267630278 #
vertex $-1 $650 $743 #
straight-curve $-1 -70.791955320902133 57.009714505107105 8.3866011589149778 0 -1 0 I I #
edge $-1 $665 32.451131353677994 $668 44.524358213056502 $510 $744 forward 7 unknown #
vertex $-1 $524 $745 #
straight-curve $-1 -86.319449249820536 0 21.376957874969463 -1 0 0 I I #
edge $-1 $668 -2.1892366792126055 $521 6.5677100376378164 $520 $746 forward 7 unknown #
vertex $-1 $667 $747 #
straight-curve $-1 -70.791955320902147 0 9.303731015590941 0.69465836192734942 0 0.71933980857756763 I I #
point $-1 -59.132975943829621 0 21.376957874969456 #
point $-1 -70.791955320902133 -8.7569467168504218 9.3037310155909552 #
straight-curve $-1 -70.791955320902133 0 21.37695787496946 0 -1 0 I I #
vertex $-1 $527 $748 #
point $-1 -63.517052463048906 -6.2549619406074441 15.334688780937103 #
vertex $-1 $531 $749 #
point $-1 -63.517052463048906 -2.5019847762429777 15.334688780937103 #
coedge $-1 $546 $545 $538 $678 forward $535 $-1 #
edge $-1 $679 32.451131353677994 $682 44.524358213056502 $677 $750 forward 7 unknown #
vertex $-1 $550 $751 #
straight-curve $-1 -86.319449249820536 31.025114403373244 21.376957874969463 -1 0 0 I I #
edge $-1 $682 -17.701793880899228 $547 -8.9448471640488059 $546 $752 forward 7 unknown #
vertex $-1 $681 $753 #
straight-curve $-1 -70.791955320902147 31.025114403373244 9.303731015590941 0.69465836192734942 0 0.71933980857756763 I I #
point $-1 -59.132975943829621 31.025114403373244 21.376957874969456 #
point $-1 -70.791955320902133 22.268167686522823 9.3037310155909552 #
straight-curve $-1 -70.791955320902133 0 21.37695787496946 0 -1 0 I I #
vertex $-1 $553 $754 #
point $-1 -63.517052463048906 24.7701524627658 15.334688780937103 #
vertex $-1 $557 $755 #
point $-1 -63.517052463048906 28.523129627130267 15.334688780937103 #
coedge $-1 $572 $571 $564 $692 forward $561 $-1 #
edge $-1 $693 83.374602943047464 $696 95.447829802425943 $691 $756 forward 7 unknown #
vertex $-1 $576 $757 #
straight-curve $-1 37.143225528968557 -8.7569467168504218 21.376957874969463 1 0 0 I I #
edge $-1 $696 -6.5677100376378164 $573 2.1892366792126055 $572 $758 forward 7 unknown #
vertex $-1 $695 $759 #
straight-curve $-1 -27.560492120801811 -8.7569467168504218 111.15067419432988 -0.69465836192734942 0 0.71933980857756763 I I #
point $-1 59.132975943829649 -8.7569467168504218 21.376957874969463 #
point $-1 70.791955320902133 0 9.3037310155909836 #
straight-curve $-1 70.791955320902133 0 21.37695787496946 0 1 0 I I #
vertex $-1 $579 $760 #
point $-1 64.906369186903603 -6.2549619406074441 13.896009163781969 #
vertex $-1 $583 $761 #
point $-1 64.906369186903603 -2.5019847762429777 13.896009163781969 #
edge $-1 $706 83.374602943047464 $709 95.447829802425943 $588 $762 forward 7 unknown #
vertex $-1 $602 $763 #
straight-curve $-1 37.143225528968557 22.268167686522823 21.376957874969463 1 0 0 I I #
edge $-1 $709 8.9448471640488059 $599 17.701793880899228 $598 $764 forward 7 unknown #
vertex $-1 $708 $765 #
straight-curve $-1 -27.560492120801811 22.268167686522823 111.15067419432988 -0.69465836192734942 0 0.71933980857756763 I I #
point $-1 59.132975943829649 22.268167686522823 21.376957874969463 #
point $-1 70.791955320902133 31.025114403373244 9.3037310155909836 #
straight-curve $-1 70.791955320902133 0 21.37695787496946 0 1 0 I I #
vertex $-1 $605 $766 #
point $-1 64.906369186903603 24.7701524627658 13.896009163781969 #
vertex $-1 $609 $767 #
point $-1 64.906369186903603 28.523129627130267 13.896009163781969 #
straight-curve $-1 -70.791955320902133 48.34818113786249 0 0 0 -1 I I #
point $-1 -70.791955320902133 -48.34818113786249 -21.37695787496946 #
straight-curve $-1 -70.791955320902133 0 -21.37695787496946 0 1 0 I I #
point $-1 -70.791955320902133 48.34818113786249 -21.37695787496946 #
coedge $-1 $726 $630 $631 $723 reversed $469 $-1 #
edge $-1 $724 -70.791955320902133 $639 70.791955320902133 $722 $768 forward 7 unknown #
vertex $-1 $728 $769 #
straight-curve $-1 70.791955320902133 -57.009714505107112 -1.5210287267630278 0 -1 0 I I #
coedge $-1 $633 $722 $635 $728 reversed $469 $-1 #
straight-curve $-1 0 -65.671247872351728 8.3866011589149778 1 0 0 I I #
edge $-1 $636 -4.9538149428390028 $724 4.9538149428390028 $635 $770 forward 7 unknown #
point $-1 70.791955320902133 -65.671247872351728 8.3866011589149778 #
straight-curve $-1 -70.791955320902133 -65.671247872351728 3.432786216075975 0 0 -1 I I #
point $-1 -70.791955320902133 -65.671247872351728 -1.5210287267630278 #
point $-1 -70.791955320902133 -65.671247872351728 8.3866011589149778 #
coedge $-1 $735 $647 $648 $734 reversed $490 $-1 #
edge $-1 $741 -70.791955320902133 $654 70.791955320902133 $733 $771 forward 7 unknown #
coedge $-1 $649 $733 $659 $740 reversed $490 $-1 #
straight-curve $-1 0 65.671247872351728 8.3866011589149778 -1 0 0 I I #
point $-1 70.791955320902133 65.671247872351728 8.3866011589149778 #
straight-curve $-1 70.791955320902133 65.671247872351728 3.432786216075975 0 0 -1 I I #
point $-1 70.791955320902133 65.671247872351728 -1.5210287267630278 #
edge $-1 $662 -4.9538149428390028 $741 4.9538149428390028 $735 $772 forward 7 unknown #
vertex $-1 $734 $773 #
straight-curve $-1 -70.791955320902133 57.009714505107105 -1.5210287267630278 0 1 0 I I #
point $-1 -70.791955320902133 65.671247872351728 8.3866011589149778 #
straight-curve $-1 -70.791955320902133 0 53.828089228647457 0 0 -1 I I #
point $-1 -70.791955320902133 0 21.37695787496946 #
straight-curve $-1 -70.791955320902133 -2.1892366792126055 9.3037310155909534 0 -1 0 I I #
point $-1 -70.791955320902133 0 9.3037310155909552 #
point $-1 -63.492371016398685 -6.2549619406074441 13.920690610432187 #
point $-1 -63.492371016398685 -2.5019847762429777 13.920690610432187 #
straight-curve $-1 -70.791955320902133 31.025114403373244 53.828089228647457 0 0 -1 I I #
point $-1 -70.791955320902133 31.025114403373244 21.37695787496946 #
straight-curve $-1 -70.791955320902133 13.323320522474017 9.3037310155909534 0 -1 0 I I #
point $-1 -70.791955320902133 31.025114403373244 9.3037310155909552 #
point $-1 -63.492371016398685 24.7701524627658 13.920690610432187 #
point $-1 -63.492371016398685 28.523129627130267 13.920690610432187 #
straight-curve $-1 70.791955320902133 -8.7569467168504218 104.75156081801693 0 0 -1 I I #
point $-1 70.791955320902133 -8.7569467168504218 21.37695787496946 #
straight-curve $-1 70.791955320902133 -2.1892366792126055 9.3037310155909694 0 1 0 I I #
point $-1 70.791955320902133 -8.7569467168504218 9.3037310155909836 #
point $-1 63.492371016398685 -6.2549619406074441 13.920690610432187 #
point $-1 63.492371016398685 -2.5019847762429777 13.920690610432187 #
straight-curve $-1 70.791955320902133 22.268167686522823 104.75156081801693 0 0 -1 I I #
point $-1 70.791955320902133 22.268167686522823 21.37695787496946 #
straight-curve $-1 70.791955320902133 13.323320522474017 9.3037310155909694 0 1 0 I I #
point $-1 70.791955320902133 22.268167686522823 9.3037310155909836 #
point $-1 63.492371016398685 24.7701524627658 13.920690610432187 #
point $-1 63.492371016398685 28.523129627130267 13.920690610432187 #
straight-curve $-1 0 -65.671247872351728 -1.5210287267630278 -1 0 0 I I #
point $-1 70.791955320902133 -65.671247872351728 -1.5210287267630278 #
straight-curve $-1 70.791955320902133 -65.671247872351728 3.432786216075975 0 0 -1 I I #
straight-curve $-1 0 65.671247872351728 -1.5210287267630278 1 0 0 I I #
straight-curve $-1 -70.791955320902133 65.671247872351728 3.432786216075975 0 0 -1 I I #
point $-1 -70.791955320902133 65.671247872351728 -1.5210287267630278 #
End-of-ACIS-data 