500 0 19 0           
7 Unknown 11 ACIS 5.0 NT 24 Thu Mar 25 15:09:08 1999 
-1 9.9999999999999995e-007 1e-010 
body $-1 $19 $-1 $20 #
body $-1 $21 $-1 $22 #
body $-1 $23 $-1 $24 #
body $-1 $25 $-1 $26 #
body $-1 $27 $-1 $28 #
body $-1 $29 $-1 $30 #
body $-1 $31 $-1 $32 #
body $-1 $33 $-1 $34 #
body $-1 $35 $-1 $36 #
body $-1 $37 $-1 $38 #
body $-1 $39 $-1 $40 #
body $-1 $41 $-1 $42 #
body $-1 $43 $-1 $44 #
body $-1 $45 $-1 $46 #
body $-1 $47 $-1 $48 #
body $-1 $49 $-1 $50 #
body $-1 $51 $-1 $52 #
body $-1 $53 $-1 $54 #
body $-1 $55 $-1 $56 #
lump $-1 $-1 $57 $0 #
transform $-1 1 0 0 0 1 0 0 0 1 71.43650624103519 38.372786339887213 14.530997877821848 1 rotate no_reflect no_shear #
lump $-1 $-1 $58 $1 #
transform $-1 1 0 0 0 1 0 0 0 1 71.43650624103519 38.372786339887213 14.530997877821848 1 rotate no_reflect no_shear #
lump $-1 $-1 $59 $2 #
transform $-1 1 0 0 0 1 0 0 0 1 71.43650624103519 38.372786339887213 14.530997877821848 1 rotate no_reflect no_shear #
lump $-1 $-1 $60 $3 #
transform $-1 1 0 0 0 1 0 0 0 1 71.43650624103519 38.372786339887213 14.530997877821848 1 rotate no_reflect no_shear #
lump $-1 $-1 $61 $4 #
transform $-1 1 0 0 0 1 0 0 0 1 71.43650624103519 38.372786339887213 14.530997877821848 1 rotate no_reflect no_shear #
lump $-1 $-1 $62 $5 #
transform $-1 1 0 0 0 1 0 0 0 1 71.43650624103519 38.372786339887213 14.530997877821848 1 rotate no_reflect no_shear #
lump $-1 $-1 $63 $6 #
transform $-1 1 0 0 0 1 0 0 0 1 71.43650624103519 38.372786339887213 14.530997877821848 1 rotate no_reflect no_shear #
lump $-1 $-1 $64 $7 #
transform $-1 1 0 0 0 1 0 0 0 1 71.43650624103519 38.372786339887213 14.530997877821848 1 rotate no_reflect no_shear #
lump $-1 $-1 $65 $8 #
transform $-1 1 0 0 0 1 0 0 0 1 71.43650624103519 38.372786339887213 14.530997877821848 1 rotate no_reflect no_shear #
lump $-1 $-1 $66 $9 #
transform $-1 1 0 0 0 1 0 0 0 1 71.43650624103519 38.372786339887213 14.530997877821848 1 rotate no_reflect no_shear #
lump $-1 $-1 $67 $10 #
transform $-1 1 0 0 0 1 0 0 0 1 71.43650624103519 38.372786339887213 14.530997877821848 1 rotate no_reflect no_shear #
lump $-1 $-1 $68 $11 #
transform $-1 1 0 0 0 1 0 0 0 1 71.43650624103519 38.372786339887213 14.530997877821848 1 rotate no_reflect no_shear #
lump $-1 $-1 $69 $12 #
transform $-1 1 0 0 0 1 0 0 0 1 71.43650624103519 38.372786339887213 14.530997877821848 1 rotate no_reflect no_shear #
lump $-1 $-1 $70 $13 #
transform $-1 1 0 0 0 1 0 0 0 1 71.43650624103519 38.372786339887213 14.530997877821848 1 rotate no_reflect no_shear #
lump $-1 $-1 $71 $14 #
transform $-1 1 0 0 0 1 0 0 0 1 71.43650624103519 38.372786339887213 14.530997877821848 1 rotate no_reflect no_shear #
lump $-1 $-1 $72 $15 #
transform $-1 1 0 0 0 1 0 0 0 1 71.43650624103519 38.372786339887213 14.530997877821848 1 rotate no_reflect no_shear #
lump $-1 $-1 $73 $16 #
transform $-1 1 0 0 0 1 0 0 0 1 71.43650624103519 38.372786339887213 14.530997877821848 1 rotate no_reflect no_shear #
lump $-1 $-1 $74 $17 #
transform $-1 1 0 0 0 1 0 0 0 1 71.43650624103519 38.372786339887213 14.530997877821848 1 rotate no_reflect no_shear #
lump $-1 $-1 $75 $18 #
transform $-1 1 0 0 0 1 0 0 0 1 71.43650624103519 38.372786339887213 14.530997877821848 1 rotate no_reflect no_shear #
shell $-1 $-1 $-1 $76 $-1 $19 #
shell $-1 $-1 $-1 $77 $-1 $21 #
shell $-1 $-1 $-1 $78 $-1 $23 #
shell $-1 $-1 $-1 $79 $-1 $25 #
shell $-1 $-1 $-1 $80 $-1 $27 #
shell $-1 $-1 $-1 $81 $-1 $29 #
shell $-1 $-1 $-1 $82 $-1 $31 #
shell $-1 $-1 $-1 $83 $-1 $33 #
shell $-1 $-1 $-1 $84 $-1 $35 #
shell $-1 $-1 $-1 $85 $-1 $37 #
shell $-1 $-1 $-1 $86 $-1 $39 #
shell $-1 $-1 $-1 $87 $-1 $41 #
shell $-1 $-1 $-1 $88 $-1 $43 #
shell $-1 $-1 $-1 $89 $-1 $45 #
shell $-1 $-1 $-1 $90 $-1 $47 #
shell $-1 $-1 $-1 $91 $-1 $49 #
shell $-1 $-1 $-1 $92 $-1 $51 #
shell $-1 $-1 $-1 $93 $-1 $53 #
shell $-1 $-1 $-1 $94 $-1 $55 #
face $-1 $95 $96 $57 $-1 $97 forward single #
face $-1 $98 $99 $58 $-1 $100 forward single #
face $-1 $101 $102 $59 $-1 $103 forward single #
face $-1 $104 $105 $60 $-1 $106 reversed single #
face $-1 $107 $108 $61 $-1 $109 forward single #
face $-1 $110 $111 $62 $-1 $112 forward single #
face $-1 $113 $114 $63 $-1 $115 forward single #
face $-1 $116 $117 $64 $-1 $118 reversed single #
face $-1 $119 $120 $65 $-1 $121 forward single #
face $-1 $122 $123 $66 $-1 $124 forward single #
face $-1 $125 $126 $67 $-1 $127 forward single #
face $-1 $128 $129 $68 $-1 $130 reversed single #
face $-1 $131 $132 $69 $-1 $133 forward single #
face $-1 $134 $135 $70 $-1 $136 forward single #
face $-1 $137 $138 $71 $-1 $139 forward single #
face $-1 $140 $141 $72 $-1 $142 reversed single #
face $-1 $143 $144 $73 $-1 $145 forward single #
face $-1 $146 $147 $74 $-1 $148 forward single #
face $-1 $149 $150 $75 $-1 $151 forward single #
face $-1 $152 $153 $57 $-1 $154 reversed single #
loop $-1 $-1 $155 $76 #
plane-surface $-1 0 0 14.530997877821848 0 0 1 1 0 0 forward_v I I I I #
face $-1 $156 $157 $58 $-1 $158 reversed single #
loop $-1 $-1 $159 $77 #
plane-surface $-1 -71.43650624103519 0 0 1 0 0 0 0 -1 forward_v I I I I #
face $-1 $160 $161 $59 $-1 $162 reversed single #
loop $-1 $-1 $163 $78 #
plane-surface $-1 71.43650624103519 0 0 -1 0 0 0 0 1 forward_v I I I I #
face $-1 $164 $165 $60 $-1 $166 reversed single #
loop $-1 $-1 $167 $79 #
plane-surface $-1 -20.919480501959399 -155.40750775040635 86.722587393862469 -1 0 0 0 -0.81915205242281985 0.57357642473473569 forward_v I I I I #
face $-1 $168 $169 $61 $-1 $170 forward single #
loop $-1 $171 $172 $80 #
cone-surface $-1 -37.217410484076694 -33.766581549742881 8.8190806353500264 0 0.81915205242281985 -0.57357642473473569 2 0 0 1 I I 0 1 2 forward I I I I #
face $-1 $173 $174 $62 $-1 $175 forward single #
loop $-1 $176 $177 $81 #
cone-surface $-1 -31.105686740782708 -33.766581549742881 8.8190806353500264 0 0.81915205242281985 -0.57357642473473569 2 0 0 1 I I 0 1 2 forward I I I I #
face $-1 $178 $179 $63 $-1 $180 forward single #
loop $-1 $181 $182 $82 #
cone-surface $-1 -24.993962997488723 -33.766581549742881 8.8190806353500264 0 0.81915205242281985 -0.57357642473473569 2 0 0 1 I I 0 1 2 forward I I I I #
face $-1 $183 $184 $64 $-1 $185 reversed single #
loop $-1 $-1 $186 $83 #
plane-surface $-1 40.710857188001889 -155.40750775040635 86.722587393862469 -1 0 0 0 -0.81915205242281985 0.57357642473473569 forward_v I I I I #
face $-1 $187 $188 $65 $-1 $189 forward single #
loop $-1 $190 $191 $84 #
cone-surface $-1 24.4129272058846 -33.766581549742881 8.8190806353500264 0 0.81915205242281985 -0.57357642473473569 2 0 0 1 I I 0 1 2 forward I I I I #
face $-1 $192 $193 $66 $-1 $194 forward single #
loop $-1 $195 $196 $85 #
cone-surface $-1 30.524650949178579 -33.766581549742881 8.8190806353500264 0 0.81915205242281985 -0.57357642473473569 2 0 0 1 I I 0 1 2 forward I I I I #
face $-1 $197 $198 $67 $-1 $199 forward single #
loop $-1 $200 $201 $86 #
cone-surface $-1 36.636374692472558 -33.766581549742881 8.8190806353500264 0 0.81915205242281985 -0.57357642473473569 2 0 0 1 I I 0 1 2 forward I I I I #
face $-1 $202 $203 $68 $-1 $204 reversed single #
loop $-1 $-1 $205 $87 #
plane-surface $-1 -41.291892979606018 111.38805655852151 149.58888076886439 1 0 0 0 -0.81915205242281985 -0.57357642473473569 forward_v I I I I #
face $-1 $206 $207 $69 $-1 $208 forward single #
loop $-1 $209 $210 $88 #
cone-surface $-1 -37.217410484076694 33.766581549742881 8.8190806353500122 0 -0.81915205242281985 -0.57357642473473569 2 0 0 1 I I 0 1 2 forward I I I I #
face $-1 $211 $212 $70 $-1 $213 forward single #
loop $-1 $214 $215 $89 #
cone-surface $-1 -31.105686740782708 33.766581549742881 8.8190806353500122 0 -0.81915205242281985 -0.57357642473473569 2 0 0 1 I I 0 1 2 forward I I I I #
face $-1 $216 $217 $71 $-1 $218 forward single #
loop $-1 $219 $220 $90 #
cone-surface $-1 -24.993962997488723 33.766581549742881 8.8190806353500122 0 -0.81915205242281985 -0.57357642473473569 2 0 0 1 I I 0 1 2 forward I I I I #
face $-1 $221 $222 $72 $-1 $223 reversed single #
loop $-1 $-1 $224 $91 #
plane-surface $-1 20.338444710355269 111.38805655852151 149.58888076886439 1 0 0 0 -0.81915205242281985 -0.57357642473473569 forward_v I I I I #
face $-1 $225 $226 $73 $-1 $227 forward single #
loop $-1 $228 $229 $92 #
cone-surface $-1 24.4129272058846 33.766581549742881 8.8190806353500122 0 -0.81915205242281985 -0.57357642473473569 2 0 0 1 I I 0 1 2 forward I I I I #
face $-1 $230 $231 $74 $-1 $232 forward single #
loop $-1 $233 $234 $93 #
cone-surface $-1 30.524650949178579 33.766581549742881 8.8190806353500122 0 -0.81915205242281985 -0.57357642473473569 2 0 0 1 I I 0 1 2 forward I I I I #
face $-1 $235 $236 $75 $-1 $237 forward single #
loop $-1 $238 $239 $94 #
cone-surface $-1 36.636374692472558 33.766581549742881 8.8190806353500122 0 -0.81915205242281985 -0.57357642473473569 2 0 0 1 I I 0 1 2 forward I I I I #
face $-1 $240 $241 $57 $-1 $242 reversed single #
loop $-1 $-1 $243 $95 #
plane-surface $-1 0 0 -14.530997877821848 0 0 1 1 0 0 forward_v I I I I #
coedge $-1 $244 $245 $246 $247 forward $96 $-1 #
face $-1 $248 $249 $58 $-1 $250 forward single #
loop $-1 $-1 $251 $98 #
plane-surface $-1 0 38.372786339887213 0 0 -1 0 0 0 -1 forward_v I I I I #
coedge $-1 $252 $253 $254 $255 forward $99 $-1 #
face $-1 $256 $257 $59 $-1 $258 forward single #
loop $-1 $-1 $259 $101 #
plane-surface $-1 0 -38.372786339887213 0 0 1 0 0 0 1 forward_v I I I I #
coedge $-1 $260 $261 $262 $263 forward $102 $-1 #
face $-1 $264 $265 $60 $-1 $266 reversed single #
loop $-1 $-1 $267 $104 #
plane-surface $-1 -31.105686740782708 -38.372786339887242 4.7739957033152791 0 -0.81915205242281985 0.57357642473473569 1 0 0 forward_v I I I I #
coedge $-1 $268 $269 $270 $271 reversed $105 $-1 #
face $-1 $-1 $272 $61 $-1 $273 forward single #
loop $-1 $274 $275 $107 #
cone-surface $-1 -37.217410484076694 -31.757187840534183 7.4120880553967634 0 0.81915205242281985 -0.57357642473473569 1 0 0 1 I I -0.70710678118654746 0.70710678118654746 1 forward I I I I #
loop $-1 $-1 $276 $80 #
coedge $-1 $172 $172 $277 $278 reversed $108 $-1 #
face $-1 $-1 $279 $62 $-1 $280 forward single #
loop $-1 $281 $282 $110 #
cone-surface $-1 -31.105686740782708 -31.757187840534183 7.4120880553967634 0 0.81915205242281985 -0.57357642473473569 1 0 0 1 I I -0.70710678118654746 0.70710678118654746 1 forward I I I I #
loop $-1 $-1 $283 $81 #
coedge $-1 $177 $177 $284 $285 reversed $111 $-1 #
face $-1 $-1 $286 $63 $-1 $287 forward single #
loop $-1 $288 $289 $113 #
cone-surface $-1 -24.993962997488723 -31.757187840534183 7.4120880553967634 0 0.81915205242281985 -0.57357642473473569 1 0 0 1 I I -0.70710678118654746 0.70710678118654746 1 forward I I I I #
loop $-1 $-1 $290 $82 #
coedge $-1 $182 $182 $291 $292 reversed $114 $-1 #
face $-1 $293 $294 $64 $-1 $295 reversed single #
loop $-1 $-1 $296 $116 #
plane-surface $-1 30.524650949178579 -38.372786339887242 4.7739957033152791 0 -0.81915205242281985 0.57357642473473569 1 0 0 forward_v I I I I #
coedge $-1 $297 $298 $299 $300 reversed $117 $-1 #
face $-1 $-1 $301 $65 $-1 $302 forward single #
loop $-1 $303 $304 $119 #
cone-surface $-1 24.4129272058846 -31.757187840534183 7.4120880553967634 0 0.81915205242281985 -0.57357642473473569 1 0 0 1 I I -0.70710678118654746 0.70710678118654746 1 forward I I I I #
loop $-1 $-1 $305 $84 #
coedge $-1 $191 $191 $306 $307 reversed $120 $-1 #
face $-1 $-1 $308 $66 $-1 $309 forward single #
loop $-1 $310 $311 $122 #
cone-surface $-1 30.524650949178579 -31.757187840534183 7.4120880553967634 0 0.81915205242281985 -0.57357642473473569 1 0 0 1 I I -0.70710678118654746 0.70710678118654746 1 forward I I I I #
loop $-1 $-1 $312 $85 #
coedge $-1 $196 $196 $313 $314 reversed $123 $-1 #
face $-1 $-1 $315 $67 $-1 $316 forward single #
loop $-1 $317 $318 $125 #
cone-surface $-1 36.636374692472558 -31.757187840534183 7.4120880553967634 0 0.81915205242281985 -0.57357642473473569 1 0 0 1 I I -0.70710678118654746 0.70710678118654746 1 forward I I I I #
loop $-1 $-1 $319 $86 #
coedge $-1 $201 $201 $320 $321 reversed $126 $-1 #
face $-1 $322 $323 $68 $-1 $324 reversed single #
loop $-1 $-1 $325 $128 #
plane-surface $-1 -31.105686740782708 -5.646664851997599 67.640289078317196 0 0.81915205242281985 0.57357642473473569 1 0 0 forward_v I I I I #
coedge $-1 $326 $327 $328 $329 reversed $129 $-1 #
face $-1 $-1 $330 $69 $-1 $331 forward single #
loop $-1 $332 $333 $131 #
cone-surface $-1 -37.217410484076694 31.757187840534186 7.4120880553967492 0 -0.81915205242281985 -0.57357642473473569 1 0 0 1 I I -0.70710678118654746 0.70710678118654746 1 forward I I I I #
loop $-1 $-1 $334 $88 #
coedge $-1 $210 $210 $335 $336 reversed $132 $-1 #
face $-1 $-1 $337 $70 $-1 $338 forward single #
loop $-1 $339 $340 $134 #
cone-surface $-1 -31.105686740782708 31.757187840534186 7.4120880553967492 0 -0.81915205242281985 -0.57357642473473569 1 0 0 1 I I -0.70710678118654746 0.70710678118654746 1 forward I I I I #
loop $-1 $-1 $341 $89 #
coedge $-1 $215 $215 $342 $343 reversed $135 $-1 #
face $-1 $-1 $344 $71 $-1 $345 forward single #
loop $-1 $346 $347 $137 #
cone-surface $-1 -24.993962997488723 31.757187840534186 7.4120880553967492 0 -0.81915205242281985 -0.57357642473473569 1 0 0 1 I I -0.70710678118654746 0.70710678118654746 1 forward I I I I #
loop $-1 $-1 $348 $90 #
coedge $-1 $220 $220 $349 $350 reversed $138 $-1 #
face $-1 $351 $352 $72 $-1 $353 reversed single #
loop $-1 $-1 $354 $140 #
plane-surface $-1 30.524650949178579 -5.646664851997599 67.640289078317196 0 0.81915205242281985 0.57357642473473569 1 0 0 forward_v I I I I #
coedge $-1 $355 $356 $357 $358 reversed $141 $-1 #
face $-1 $-1 $359 $73 $-1 $360 forward single #
loop $-1 $361 $362 $143 #
cone-surface $-1 24.4129272058846 31.757187840534186 7.4120880553967492 0 -0.81915205242281985 -0.57357642473473569 1 0 0 1 I I -0.70710678118654746 0.70710678118654746 1 forward I I I I #
loop $-1 $-1 $363 $92 #
coedge $-1 $229 $229 $364 $365 reversed $144 $-1 #
face $-1 $-1 $366 $74 $-1 $367 forward single #
loop $-1 $368 $369 $146 #
cone-surface $-1 30.524650949178579 31.757187840534186 7.4120880553967492 0 -0.81915205242281985 -0.57357642473473569 1 0 0 1 I I -0.70710678118654746 0.70710678118654746 1 forward I I I I #
loop $-1 $-1 $370 $93 #
coedge $-1 $234 $234 $371 $372 reversed $147 $-1 #
face $-1 $-1 $373 $75 $-1 $374 forward single #
loop $-1 $375 $376 $149 #
cone-surface $-1 36.636374692472558 31.757187840534186 7.4120880553967492 0 -0.81915205242281985 -0.57357642473473569 1 0 0 1 I I -0.70710678118654746 0.70710678118654746 1 forward I I I I #
loop $-1 $-1 $377 $94 #
coedge $-1 $239 $239 $378 $379 reversed $150 $-1 #
face $-1 $380 $381 $57 $-1 $382 reversed single #
loop $-1 $-1 $383 $152 #
plane-surface $-1 0 -38.372786339887213 0 0 1 0 0 0 1 forward_v I I I I #
coedge $-1 $384 $385 $386 $387 forward $153 $-1 #
coedge $-1 $388 $155 $389 $390 forward $96 $-1 #
coedge $-1 $155 $388 $391 $392 forward $96 $-1 #
coedge $-1 $393 $394 $155 $247 reversed $395 $-1 #
edge $-1 $396 -38.372786339887213 $397 38.372786339887213 $246 $398 forward 7 unknown #
face $-1 $399 $400 $58 $-1 $401 reversed single #
loop $-1 $-1 $254 $156 #
plane-surface $-1 -76.339590516572144 0 -10.63361713677161 0 0 1 1 0 0 forward_v I I I I #
coedge $-1 $402 $403 $253 $404 forward $157 $-1 #
coedge $-1 $405 $159 $406 $407 reversed $99 $-1 #
coedge $-1 $159 $405 $251 $404 reversed $99 $-1 #
coedge $-1 $408 $409 $159 $255 reversed $249 $-1 #
edge $-1 $410 -38.372786339887213 $411 38.372786339887213 $254 $412 forward 7 unknown #
face $-1 $413 $414 $59 $-1 $415 reversed single #
loop $-1 $-1 $416 $160 #
plane-surface $-1 76.33959051657213 0 -10.63361713677161 0 0 1 1 0 0 forward_v I I I I #
coedge $-1 $417 $418 $261 $419 forward $161 $-1 #
coedge $-1 $420 $163 $421 $422 reversed $102 $-1 #
coedge $-1 $163 $420 $259 $419 reversed $102 $-1 #
coedge $-1 $423 $424 $163 $263 reversed $257 $-1 #
edge $-1 $425 -38.372786339887213 $426 38.372786339887213 $262 $427 forward 7 unknown #
face $-1 $428 $429 $60 $-1 $430 forward single #
loop $-1 $-1 $431 $164 #
plane-surface $-1 -41.291892979606018 -155.40750775040635 86.722587393862469 1 0 0 0 0.81915205242281985 -0.57357642473473569 forward_v I I I I #
coedge $-1 $432 $433 $434 $435 reversed $165 $-1 #
coedge $-1 $269 $167 $436 $437 reversed $105 $-1 #
coedge $-1 $167 $268 $432 $438 reversed $105 $-1 #
coedge $-1 $434 $439 $167 $271 forward $429 $-1 #
edge $-1 $440 39.330967535315963 $441 46.162893802032833 $270 $442 forward 7 unknown #
loop $-1 $-1 $277 $168 #
plane-surface $-1 -31.105686740782708 -38.372786339887242 4.7739957033152791 0 -0.81915205242281985 0.57357642473473569 1 0 0 forward_v I I I I #
loop $-1 $-1 $443 $107 #
coedge $-1 $275 $275 $276 $444 reversed $169 $-1 #
coedge $-1 $276 $276 $275 $444 forward $171 $-1 #
coedge $-1 $277 $277 $172 $278 forward $272 $-1 #
edge $-1 $445 -5.7962686500984556e-016 $445 6.2831853071795996 $277 $446 forward 7 unknown #
loop $-1 $-1 $284 $173 #
plane-surface $-1 -31.105686740782708 -38.372786339887242 4.7739957033152791 0 -0.81915205242281985 0.57357642473473569 1 0 0 forward_v I I I I #
loop $-1 $-1 $447 $110 #
coedge $-1 $282 $282 $283 $448 reversed $174 $-1 #
coedge $-1 $283 $283 $282 $448 forward $176 $-1 #
coedge $-1 $284 $284 $177 $285 forward $279 $-1 #
edge $-1 $449 -5.7962686500984556e-016 $449 6.2831853071795996 $284 $450 forward 7 unknown #
loop $-1 $-1 $291 $178 #
plane-surface $-1 -31.105686740782708 -38.372786339887242 4.7739957033152791 0 -0.81915205242281985 0.57357642473473569 1 0 0 forward_v I I I I #
loop $-1 $-1 $451 $113 #
coedge $-1 $289 $289 $290 $452 reversed $179 $-1 #
coedge $-1 $290 $290 $289 $452 forward $181 $-1 #
coedge $-1 $291 $291 $182 $292 forward $286 $-1 #
edge $-1 $453 -5.7962686500984556e-016 $453 6.2831853071795996 $291 $454 forward 7 unknown #
face $-1 $455 $456 $64 $-1 $457 reversed single #
loop $-1 $-1 $458 $183 #
plane-surface $-1 20.338444710355269 -155.40750775040635 86.722587393862469 1 0 0 0 0.81915205242281985 -0.57357642473473569 forward_v I I I I #
coedge $-1 $459 $460 $461 $462 reversed $184 $-1 #
coedge $-1 $298 $186 $463 $464 reversed $117 $-1 #
coedge $-1 $186 $297 $459 $465 reversed $117 $-1 #
coedge $-1 $461 $466 $186 $300 forward $467 $-1 #
edge $-1 $468 39.330967535315963 $469 46.162893802032833 $299 $470 forward 7 unknown #
loop $-1 $-1 $306 $187 #
plane-surface $-1 30.524650949178579 -38.372786339887242 4.7739957033152791 0 -0.81915205242281985 0.57357642473473569 1 0 0 forward_v I I I I #
loop $-1 $-1 $471 $119 #
coedge $-1 $304 $304 $305 $472 reversed $188 $-1 #
coedge $-1 $305 $305 $304 $472 forward $190 $-1 #
coedge $-1 $306 $306 $191 $307 forward $301 $-1 #
edge $-1 $473 -5.7962686500984556e-016 $473 6.2831853071795996 $306 $474 forward 7 unknown #
loop $-1 $-1 $313 $192 #
plane-surface $-1 30.524650949178579 -38.372786339887242 4.7739957033152791 0 -0.81915205242281985 0.57357642473473569 1 0 0 forward_v I I I I #
loop $-1 $-1 $475 $122 #
coedge $-1 $311 $311 $312 $476 reversed $193 $-1 #
coedge $-1 $312 $312 $311 $476 forward $195 $-1 #
coedge $-1 $313 $313 $196 $314 forward $308 $-1 #
edge $-1 $477 -5.7962686500984556e-016 $477 6.2831853071795996 $313 $478 forward 7 unknown #
loop $-1 $-1 $320 $197 #
plane-surface $-1 30.524650949178579 -38.372786339887242 4.7739957033152791 0 -0.81915205242281985 0.57357642473473569 1 0 0 forward_v I I I I #
loop $-1 $-1 $479 $125 #
coedge $-1 $318 $318 $319 $480 reversed $198 $-1 #
coedge $-1 $319 $319 $318 $480 forward $200 $-1 #
coedge $-1 $320 $320 $201 $321 forward $315 $-1 #
edge $-1 $481 -5.7962686500984556e-016 $481 6.2831853071795996 $320 $482 forward 7 unknown #
face $-1 $483 $484 $68 $-1 $485 reversed single #
loop $-1 $-1 $486 $202 #
plane-surface $-1 -20.919480501959399 111.38805655852151 149.58888076886439 -1 0 0 0 0.81915205242281985 0.57357642473473569 forward_v I I I I #
coedge $-1 $487 $488 $489 $490 reversed $203 $-1 #
coedge $-1 $327 $205 $491 $492 reversed $129 $-1 #
coedge $-1 $205 $326 $487 $493 reversed $129 $-1 #
coedge $-1 $489 $494 $205 $329 forward $495 $-1 #
edge $-1 $496 17.321241939373543 $497 24.153168206090427 $328 $498 forward 7 unknown #
loop $-1 $-1 $335 $206 #
plane-surface $-1 -31.105686740782708 -5.646664851997599 67.640289078317196 0 0.81915205242281985 0.57357642473473569 1 0 0 forward_v I I I I #
loop $-1 $-1 $499 $131 #
coedge $-1 $333 $333 $334 $500 reversed $207 $-1 #
coedge $-1 $334 $334 $333 $500 forward $209 $-1 #
coedge $-1 $335 $335 $210 $336 forward $330 $-1 #
edge $-1 $501 1.8898264995874128e-015 $501 6.2831853071796022 $335 $502 forward 7 unknown #
loop $-1 $-1 $342 $211 #
plane-surface $-1 -31.105686740782708 -5.646664851997599 67.640289078317196 0 0.81915205242281985 0.57357642473473569 1 0 0 forward_v I I I I #
loop $-1 $-1 $503 $134 #
coedge $-1 $340 $340 $341 $504 reversed $212 $-1 #
coedge $-1 $341 $341 $340 $504 forward $214 $-1 #
coedge $-1 $342 $342 $215 $343 forward $337 $-1 #
edge $-1 $505 1.8898264995874128e-015 $505 6.2831853071796022 $342 $506 forward 7 unknown #
loop $-1 $-1 $349 $216 #
plane-surface $-1 -31.105686740782708 -5.646664851997599 67.640289078317196 0 0.81915205242281985 0.57357642473473569 1 0 0 forward_v I I I I #
loop $-1 $-1 $507 $137 #
coedge $-1 $347 $347 $348 $508 reversed $217 $-1 #
coedge $-1 $348 $348 $347 $508 forward $219 $-1 #
coedge $-1 $349 $349 $220 $350 forward $344 $-1 #
edge $-1 $509 1.8898264995874128e-015 $509 6.2831853071796022 $349 $510 forward 7 unknown #
face $-1 $511 $512 $72 $-1 $513 forward single #
loop $-1 $-1 $514 $221 #
plane-surface $-1 40.710857188001889 111.38805655852151 149.58888076886439 -1 0 0 0 0.81915205242281985 0.57357642473473569 forward_v I I I I #
coedge $-1 $515 $516 $517 $518 reversed $222 $-1 #
coedge $-1 $356 $224 $519 $520 reversed $141 $-1 #
coedge $-1 $224 $355 $515 $521 reversed $141 $-1 #
coedge $-1 $517 $522 $224 $358 forward $512 $-1 #
edge $-1 $523 17.321241939373543 $524 24.153168206090427 $357 $525 forward 7 unknown #
loop $-1 $-1 $364 $225 #
plane-surface $-1 30.524650949178579 -5.646664851997599 67.640289078317196 0 0.81915205242281985 0.57357642473473569 1 0 0 forward_v I I I I #
loop $-1 $-1 $526 $143 #
coedge $-1 $362 $362 $363 $527 reversed $226 $-1 #
coedge $-1 $363 $363 $362 $527 forward $228 $-1 #
coedge $-1 $364 $364 $229 $365 forward $359 $-1 #
edge $-1 $528 1.8898264995874128e-015 $528 6.2831853071796022 $364 $529 forward 7 unknown #
loop $-1 $-1 $371 $230 #
plane-surface $-1 30.524650949178579 -5.646664851997599 67.640289078317196 0 0.81915205242281985 0.57357642473473569 1 0 0 forward_v I I I I #
loop $-1 $-1 $530 $146 #
coedge $-1 $369 $369 $370 $531 reversed $231 $-1 #
coedge $-1 $370 $370 $369 $531 forward $233 $-1 #
coedge $-1 $371 $371 $234 $372 forward $366 $-1 #
edge $-1 $532 1.8898264995874128e-015 $532 6.2831853071796022 $371 $533 forward 7 unknown #
loop $-1 $-1 $378 $235 #
plane-surface $-1 30.524650949178579 -5.646664851997599 67.640289078317196 0 0.81915205242281985 0.57357642473473569 1 0 0 forward_v I I I I #
loop $-1 $-1 $534 $149 #
coedge $-1 $376 $376 $377 $535 reversed $236 $-1 #
coedge $-1 $377 $377 $376 $535 forward $238 $-1 #
coedge $-1 $378 $378 $239 $379 forward $373 $-1 #
edge $-1 $536 1.8898264995874128e-015 $536 6.2831853071796022 $378 $537 forward 7 unknown #
face $-1 $538 $539 $57 $-1 $540 reversed single #
loop $-1 $-1 $541 $240 #
plane-surface $-1 -71.43650624103519 0 0 1 0 0 0 0 -1 forward_v I I I I #
coedge $-1 $542 $391 $543 $544 forward $241 $-1 #
coedge $-1 $545 $243 $542 $546 forward $153 $-1 #
coedge $-1 $243 $545 $547 $548 forward $153 $-1 #
coedge $-1 $394 $393 $243 $387 reversed $395 $-1 #
edge $-1 $549 -38.372786339887213 $550 38.372786339887213 $386 $551 forward 7 unknown #
coedge $-1 $245 $244 $552 $553 forward $96 $-1 #
coedge $-1 $554 $555 $244 $390 reversed $539 $-1 #
edge $-1 $397 -71.43650624103519 $556 71.43650624103519 $389 $557 forward 7 unknown #
coedge $-1 $383 $558 $245 $392 reversed $241 $-1 #
edge $-1 $559 -71.43650624103519 $396 71.43650624103519 $391 $560 forward 7 unknown #
coedge $-1 $386 $246 $558 $561 forward $395 $-1 #
coedge $-1 $246 $386 $554 $562 reversed $395 $-1 #
loop $-1 $-1 $393 $538 #
vertex $-1 $247 $563 #
vertex $-1 $247 $564 #
straight-curve $-1 71.43650624103519 0 14.530997877821848 0 1 0 I I #
face $-1 $565 $566 $58 $-1 $567 reversed single #
loop $-1 $-1 $568 $248 #
plane-surface $-1 -76.339590516572144 0 -14.030997877821848 0 0 1 1 0 0 forward_v I I I I #
coedge $-1 $569 $251 $570 $571 reversed $157 $-1 #
coedge $-1 $251 $569 $408 $572 reversed $157 $-1 #
edge $-1 $410 10.63361713677161 $573 14.030997877821848 $251 $574 forward 7 unknown #
coedge $-1 $253 $252 $568 $575 forward $99 $-1 #
coedge $-1 $576 $577 $252 $407 forward $578 $-1 #
edge $-1 $579 -14.030997877821848 $411 -10.63361713677161 $406 $580 forward 7 unknown #
coedge $-1 $581 $254 $403 $572 forward $249 $-1 #
coedge $-1 $254 $581 $576 $582 forward $249 $-1 #
vertex $-1 $404 $583 #
vertex $-1 $582 $584 #
straight-curve $-1 -71.43650624103519 0 -10.63361713677161 0 -1 0 I I #
face $-1 $585 $586 $59 $-1 $587 reversed single #
loop $-1 $-1 $588 $256 #
plane-surface $-1 76.33959051657213 0 -14.030997877821848 0 0 1 1 0 0 forward_v I I I I #
coedge $-1 $424 $423 $589 $590 forward $257 $-1 #
coedge $-1 $591 $259 $592 $593 reversed $161 $-1 #
coedge $-1 $259 $591 $423 $594 reversed $161 $-1 #
edge $-1 $425 10.63361713677161 $595 14.030997877821848 $259 $596 forward 7 unknown #
coedge $-1 $261 $260 $597 $598 forward $102 $-1 #
coedge $-1 $599 $600 $260 $422 forward $601 $-1 #
edge $-1 $602 -14.030997877821848 $426 -10.63361713677161 $421 $603 forward 7 unknown #
coedge $-1 $416 $262 $418 $594 forward $257 $-1 #
coedge $-1 $262 $416 $599 $604 forward $257 $-1 #
vertex $-1 $419 $605 #
vertex $-1 $604 $606 #
straight-curve $-1 71.43650624103519 0 -10.63361713677161 0 1 0 I I #
face $-1 $-1 $607 $60 $-1 $608 reversed single #
loop $-1 $-1 $270 $264 #
plane-surface $-1 0 0 14.530997877821848 0 0 1 1 0 0 forward_v I I I I #
coedge $-1 $609 $610 $611 $612 reversed $265 $-1 #
coedge $-1 $613 $267 $269 $438 forward $165 $-1 #
coedge $-1 $267 $613 $609 $614 forward $165 $-1 #
coedge $-1 $611 $270 $267 $435 forward $429 $-1 #
edge $-1 $441 5.3666371315680443 $615 25.739049609214664 $434 $616 forward 7 unknown #
coedge $-1 $617 $618 $268 $437 forward $607 $-1 #
edge $-1 $619 -38.587297993615913 $440 -28.830295819109388 $436 $620 forward 7 unknown #
edge $-1 $441 -11.911100198855781 $619 -4.9769468549031306e-014 $269 $621 forward 7 unknown #
coedge $-1 $270 $611 $617 $622 forward $429 $-1 #
vertex $-1 $437 $623 #
vertex $-1 $271 $624 #
straight-curve $-1 -20.919480501959399 -77.703753875203176 14.530997877821846 0 1 0 I I #
coedge $-1 $443 $443 $-1 $625 reversed $274 $-1 #
edge $-1 $626 0 $626 6.2831853071796004 $275 $627 forward 7 unknown #
vertex $-1 $278 $628 #
ellipse-curve $-1 -37.217410484076694 -34.956823206528789 9.6524967905685735 0 -0.81915205242281985 0.57357642473473569 2 0 0 1 I I #
coedge $-1 $447 $447 $-1 $629 reversed $281 $-1 #
edge $-1 $630 0 $630 6.2831853071796004 $282 $631 forward 7 unknown #
vertex $-1 $285 $632 #
ellipse-curve $-1 -31.105686740782708 -34.956823206528789 9.6524967905685735 0 -0.81915205242281985 0.57357642473473569 2 0 0 1 I I #
coedge $-1 $451 $451 $-1 $633 reversed $288 $-1 #
edge $-1 $634 0 $634 6.2831853071796004 $289 $635 forward 7 unknown #
vertex $-1 $292 $636 #
ellipse-curve $-1 -24.993962997488723 -34.956823206528789 9.6524967905685735 0 -0.81915205242281985 0.57357642473473569 2 0 0 1 I I #
face $-1 $-1 $467 $64 $-1 $637 forward single #
loop $-1 $-1 $638 $293 #
plane-surface $-1 0 -38.372786339887213 0 0 1 0 0 0 1 forward_v I I I I #
coedge $-1 $639 $640 $641 $642 reversed $294 $-1 #
coedge $-1 $643 $296 $298 $465 forward $184 $-1 #
coedge $-1 $296 $643 $639 $644 forward $184 $-1 #
coedge $-1 $641 $299 $296 $462 forward $467 $-1 #
edge $-1 $469 -25.448531713412599 $645 -5.0761192357659795 $461 $646 forward 7 unknown #
coedge $-1 $647 $648 $297 $464 forward $456 $-1 #
edge $-1 $649 -38.587297993615913 $468 -28.830295819109388 $463 $650 forward 7 unknown #
edge $-1 $469 -11.911100198855781 $649 -4.9769468549031306e-014 $298 $651 forward 7 unknown #
coedge $-1 $299 $641 $647 $652 forward $467 $-1 #
loop $-1 $-1 $641 $455 #
vertex $-1 $464 $653 #
vertex $-1 $300 $654 #
straight-curve $-1 40.710857188001889 -77.703753875203176 14.530997877821846 0 1 0 I I #
coedge $-1 $471 $471 $-1 $655 reversed $303 $-1 #
edge $-1 $656 0 $656 6.2831853071796004 $304 $657 forward 7 unknown #
vertex $-1 $307 $658 #
ellipse-curve $-1 24.4129272058846 -34.956823206528789 9.6524967905685735 0 -0.81915205242281985 0.57357642473473569 2 0 0 1 I I #
coedge $-1 $475 $475 $-1 $659 reversed $310 $-1 #
edge $-1 $660 0 $660 6.2831853071796004 $311 $661 forward 7 unknown #
vertex $-1 $314 $662 #
ellipse-curve $-1 30.524650949178579 -34.956823206528789 9.6524967905685735 0 -0.81915205242281985 0.57357642473473569 2 0 0 1 I I #
coedge $-1 $479 $479 $-1 $663 reversed $317 $-1 #
edge $-1 $664 0 $664 6.2831853071796004 $318 $665 forward 7 unknown #
vertex $-1 $321 $666 #
ellipse-curve $-1 36.636374692472558 -34.956823206528789 9.6524967905685735 0 -0.81915205242281985 0.57357642473473569 2 0 0 1 I I #
face $-1 $-1 $495 $68 $-1 $667 forward single #
loop $-1 $-1 $668 $322 #
plane-surface $-1 0 38.372786339887213 0 0 -1 0 0 0 -1 forward_v I I I I #
coedge $-1 $669 $670 $671 $672 reversed $323 $-1 #
coedge $-1 $673 $325 $327 $493 forward $203 $-1 #
coedge $-1 $325 $673 $669 $674 forward $203 $-1 #
coedge $-1 $671 $328 $325 $490 forward $495 $-1 #
edge $-1 $497 -25.739049609214664 $675 -5.3666371315680443 $489 $676 forward 7 unknown #
coedge $-1 $677 $678 $326 $492 forward $484 $-1 #
edge $-1 $679 -70.020444681116899 $496 -60.263442506610346 $491 $680 forward 7 unknown #
edge $-1 $497 64.834472480918663 $679 76.745572679774426 $327 $681 forward 7 unknown #
coedge $-1 $328 $671 $677 $682 forward $495 $-1 #
loop $-1 $-1 $671 $483 #
vertex $-1 $492 $683 #
vertex $-1 $329 $684 #
straight-curve $-1 -41.291892979606018 55.694028279260756 14.530997877821846 0 -1 0 I I #
coedge $-1 $499 $499 $-1 $685 reversed $332 $-1 #
edge $-1 $686 0 $686 6.2831853071796004 $333 $687 forward 7 unknown #
vertex $-1 $336 $688 #
ellipse-curve $-1 -37.217410484076694 34.956823206528782 9.6524967905685575 0 0.81915205242281985 0.57357642473473569 2 0 0 1 I I #
coedge $-1 $503 $503 $-1 $689 reversed $339 $-1 #
edge $-1 $690 0 $690 6.2831853071796004 $340 $691 forward 7 unknown #
vertex $-1 $343 $692 #
ellipse-curve $-1 -31.105686740782708 34.956823206528782 9.6524967905685575 0 0.81915205242281985 0.57357642473473569 2 0 0 1 I I #
coedge $-1 $507 $507 $-1 $693 reversed $346 $-1 #
edge $-1 $694 0 $694 6.2831853071796004 $347 $695 forward 7 unknown #
vertex $-1 $350 $696 #
ellipse-curve $-1 -24.993962997488723 34.956823206528782 9.6524967905685575 0 0.81915205242281985 0.57357642473473569 2 0 0 1 I I #
face $-1 $-1 $697 $72 $-1 $698 reversed single #
loop $-1 $-1 $357 $351 #
plane-surface $-1 0 0 14.530997877821848 0 0 1 1 0 0 forward_v I I I I #
coedge $-1 $699 $700 $701 $702 reversed $352 $-1 #
coedge $-1 $703 $354 $356 $521 forward $222 $-1 #
coedge $-1 $354 $703 $699 $704 forward $222 $-1 #
coedge $-1 $701 $357 $354 $518 forward $512 $-1 #
edge $-1 $524 5.0761192357659795 $705 25.448531713412599 $517 $706 forward 7 unknown #
coedge $-1 $707 $708 $355 $520 forward $697 $-1 #
edge $-1 $709 -70.020444681116899 $523 -60.263442506610346 $519 $710 forward 7 unknown #
edge $-1 $524 64.834472480918663 $709 76.745572679774426 $356 $711 forward 7 unknown #
coedge $-1 $357 $701 $707 $712 forward $512 $-1 #
vertex $-1 $358 $713 #
vertex $-1 $358 $714 #
straight-curve $-1 20.338444710355269 55.694028279260756 14.530997877821846 0 -1 0 I I #
coedge $-1 $526 $526 $-1 $715 reversed $361 $-1 #
edge $-1 $716 0 $716 6.2831853071796004 $362 $717 forward 7 unknown #
vertex $-1 $365 $718 #
ellipse-curve $-1 24.4129272058846 34.956823206528782 9.6524967905685575 0 0.81915205242281985 0.57357642473473569 2 0 0 1 I I #
coedge $-1 $530 $530 $-1 $719 reversed $368 $-1 #
edge $-1 $720 0 $720 6.2831853071796004 $369 $721 forward 7 unknown #
vertex $-1 $372 $722 #
ellipse-curve $-1 30.524650949178579 34.956823206528782 9.6524967905685575 0 0.81915205242281985 0.57357642473473569 2 0 0 1 I I #
coedge $-1 $534 $534 $-1 $723 reversed $375 $-1 #
edge $-1 $724 0 $724 6.2831853071796004 $376 $725 forward 7 unknown #
vertex $-1 $379 $726 #
ellipse-curve $-1 36.636374692472558 34.956823206528782 9.6524967905685575 0 0.81915205242281985 0.57357642473473569 2 0 0 1 I I #
face $-1 $-1 $395 $57 $-1 $727 reversed single #
loop $-1 $-1 $554 $380 #
plane-surface $-1 0 38.372786339887213 0 0 -1 0 0 0 -1 forward_v I I I I #
coedge $-1 $728 $552 $555 $729 forward $381 $-1 #
coedge $-1 $558 $383 $384 $546 reversed $241 $-1 #
coedge $-1 $552 $728 $383 $544 reversed $381 $-1 #
edge $-1 $559 -14.530997877821848 $730 14.530997877821848 $543 $731 forward 7 unknown #
coedge $-1 $385 $384 $728 $732 forward $153 $-1 #
edge $-1 $550 -71.43650624103519 $730 71.43650624103519 $542 $733 forward 7 unknown #
coedge $-1 $555 $554 $385 $548 reversed $539 $-1 #
edge $-1 $734 -71.43650624103519 $549 71.43650624103519 $547 $735 forward 7 unknown #
vertex $-1 $387 $736 #
vertex $-1 $561 $737 #
straight-curve $-1 71.43650624103519 0 -14.530997877821848 0 -1 0 I I #
coedge $-1 $541 $543 $388 $553 reversed $381 $-1 #
edge $-1 $556 -38.372786339887213 $559 38.372786339887213 $552 $738 forward 7 unknown #
coedge $-1 $547 $389 $394 $562 forward $539 $-1 #
coedge $-1 $389 $547 $541 $729 reversed $539 $-1 #
vertex $-1 $390 $739 #
straight-curve $-1 0 38.372786339887213 14.530997877821848 -1 0 0 I I #
coedge $-1 $391 $542 $393 $561 reversed $241 $-1 #
vertex $-1 $553 $740 #
straight-curve $-1 0 -38.372786339887213 14.530997877821848 1 0 0 I I #
edge $-1 $396 -14.530997877821848 $550 14.530997877821848 $393 $741 forward 7 unknown #
edge $-1 $397 -14.530997877821848 $549 14.530997877821848 $394 $742 forward 7 unknown #
point $-1 71.43650624103519 -38.372786339887213 14.530997877821848 #
point $-1 71.43650624103519 38.372786339887213 14.530997877821848 #
face $-1 $-1 $578 $58 $-1 $743 reversed single #
loop $-1 $-1 $744 $399 #
plane-surface $-1 -81.242674792109099 0 -12.332307507296729 1 0 0 0 0 -1 forward_v I I I I #
coedge $-1 $745 $570 $405 $575 reversed $400 $-1 #
coedge $-1 $403 $402 $744 $746 reversed $157 $-1 #
coedge $-1 $568 $747 $402 $571 forward $400 $-1 #
edge $-1 $748 -4.9030842755369548 $573 4.9030842755369548 $402 $749 forward 7 unknown #
edge $-1 $410 -4.9030842755369548 $750 4.9030842755369548 $403 $751 forward 7 unknown #
vertex $-1 $404 $752 #
straight-curve $-1 -71.43650624103519 38.372786339887213 0 0 0 -1 I I #
edge $-1 $579 -38.372786339887213 $573 38.372786339887213 $568 $753 forward 7 unknown #
coedge $-1 $754 $406 $409 $582 reversed $578 $-1 #
coedge $-1 $406 $754 $745 $755 reversed $578 $-1 #
loop $-1 $-1 $406 $565 #
vertex $-1 $407 $756 #
straight-curve $-1 -71.43650624103519 -38.372786339887213 0 0 0 1 I I #
coedge $-1 $409 $408 $757 $758 forward $249 $-1 #
edge $-1 $759 -4.9030842755369548 $411 4.9030842755369548 $576 $760 forward 7 unknown #
point $-1 -71.43650624103519 38.372786339887213 -10.63361713677161 #
point $-1 -71.43650624103519 -38.372786339887213 -10.63361713677161 #
face $-1 $-1 $601 $59 $-1 $761 reversed single #
loop $-1 $-1 $762 $413 #
plane-surface $-1 81.242674792109085 0 -12.332307507296729 -1 0 0 0 0 1 forward_v I I I I #
coedge $-1 $592 $763 $764 $765 forward $414 $-1 #
coedge $-1 $762 $766 $416 $590 reversed $586 $-1 #
edge $-1 $767 -38.372786339887213 $768 38.372786339887213 $589 $769 forward 7 unknown #
coedge $-1 $418 $417 $762 $770 reversed $161 $-1 #
coedge $-1 $597 $588 $417 $593 forward $414 $-1 #
edge $-1 $771 -4.9030842755369548 $595 4.9030842755369548 $417 $772 forward 7 unknown #
edge $-1 $425 -4.9030842755369548 $767 4.9030842755369548 $418 $773 forward 7 unknown #
vertex $-1 $419 $774 #
straight-curve $-1 71.43650624103519 -38.372786339887213 0 0 0 -1 I I #
coedge $-1 $763 $592 $420 $598 reversed $414 $-1 #
edge $-1 $602 -38.372786339887213 $595 38.372786339887213 $597 $775 forward 7 unknown #
coedge $-1 $776 $421 $424 $604 reversed $601 $-1 #
coedge $-1 $421 $776 $763 $777 reversed $601 $-1 #
loop $-1 $-1 $421 $585 #
vertex $-1 $422 $778 #
straight-curve $-1 71.43650624103519 38.372786339887213 0 0 0 1 I I #
edge $-1 $768 -4.9030842755369548 $426 4.9030842755369548 $599 $779 forward 7 unknown #
point $-1 71.436506241035175 -38.372786339887213 -10.63361713677161 #
point $-1 71.436506241035175 38.372786339887213 -10.63361713677161 #
loop $-1 $-1 $436 $428 #
plane-surface $-1 0 -38.372786339887213 0 0 1 0 0 0 1 forward_v I I I I #
coedge $-1 $610 $431 $433 $614 reversed $265 $-1 #
coedge $-1 $431 $609 $780 $781 reversed $265 $-1 #
coedge $-1 $439 $434 $431 $612 forward $429 $-1 #
edge $-1 $615 -46.162893802032833 $782 -39.330967535315963 $611 $783 forward 7 unknown #
coedge $-1 $433 $432 $618 $784 reversed $165 $-1 #
edge $-1 $785 4.9769468549031306e-014 $615 11.911100198855781 $609 $786 forward 7 unknown #
vertex $-1 $435 $787 #
straight-curve $-1 -15.552843370391354 -31.540860073170347 14.530997877821848 -1 0 0 I I #
coedge $-1 $780 $436 $439 $622 reversed $607 $-1 #
coedge $-1 $436 $780 $613 $784 forward $607 $-1 #
vertex $-1 $437 $788 #
straight-curve $-1 -20.919480501959399 -38.372786339887213 43.361293696931234 0 0 1 I I #
straight-curve $-1 -20.919480501959399 -38.372786339887242 4.7739957033152791 0 -0.57357642473473569 -0.81915205242281985 I I #
edge $-1 $782 -41.291892979606018 $440 -20.919480501959399 $617 $789 forward 7 unknown #
point $-1 -20.919480501959399 -38.372786339887213 14.530997877821848 #
point $-1 -20.919480501959399 -31.540860073170343 14.530997877821848 #
edge $-1 $790 1 $790 0 $443 $-1 forward 7 unknown #
vertex $-1 $444 $791 #
ellipse-curve $-1 -37.217410484076694 -32.576339892957002 7.9856644801314989 0 -0.81915205242281985 0.57357642473473569 2 0 0 1 I I #
point $-1 -35.217410484076694 -34.95682320652876 9.6524967905685521 #
edge $-1 $792 1 $792 0 $447 $-1 forward 7 unknown #
vertex $-1 $448 $793 #
ellipse-curve $-1 -31.105686740782708 -32.576339892957002 7.9856644801314989 0 -0.81915205242281985 0.57357642473473569 2 0 0 1 I I #
point $-1 -29.105686740782708 -34.95682320652876 9.6524967905685521 #
edge $-1 $794 1 $794 0 $451 $-1 forward 7 unknown #
vertex $-1 $452 $795 #
ellipse-curve $-1 -24.993962997488723 -32.576339892957002 7.9856644801314989 0 -0.81915205242281985 0.57357642473473569 2 0 0 1 I I #
point $-1 -22.993962997488723 -34.95682320652876 9.6524967905685521 #
plane-surface $-1 0 0 14.530997877821848 0 0 1 1 0 0 forward_v I I I I #
coedge $-1 $648 $647 $640 $796 forward $456 $-1 #
coedge $-1 $640 $458 $460 $644 reversed $294 $-1 #
coedge $-1 $458 $639 $638 $796 reversed $294 $-1 #
coedge $-1 $466 $461 $458 $642 forward $467 $-1 #
edge $-1 $645 -46.162893802032833 $797 -39.330967535315963 $641 $798 forward 7 unknown #
coedge $-1 $460 $459 $648 $799 reversed $184 $-1 #
edge $-1 $800 4.9769468549031306e-014 $645 11.911100198855781 $639 $801 forward 7 unknown #
vertex $-1 $462 $802 #
straight-curve $-1 15.262325474589289 -31.540860073170347 14.530997877821848 -1 0 0 I I #
coedge $-1 $638 $463 $466 $652 reversed $456 $-1 #
coedge $-1 $463 $638 $643 $799 forward $456 $-1 #
vertex $-1 $464 $803 #
straight-curve $-1 40.710857188001889 -38.372786339887213 43.361293696931234 0 0 1 I I #
straight-curve $-1 40.710857188001889 -38.372786339887242 4.7739957033152791 0 -0.57357642473473569 -0.81915205242281985 I I #
edge $-1 $797 20.338444710355269 $468 40.710857188001889 $647 $804 forward 7 unknown #
point $-1 40.710857188001889 -38.372786339887213 14.530997877821848 #
point $-1 40.710857188001889 -31.540860073170343 14.530997877821848 #
edge $-1 $805 1 $805 0 $471 $-1 forward 7 unknown #
vertex $-1 $472 $806 #
ellipse-curve $-1 24.4129272058846 -32.576339892957002 7.9856644801314989 0 -0.81915205242281985 0.57357642473473569 2 0 0 1 I I #
point $-1 26.4129272058846 -34.95682320652876 9.6524967905685521 #
edge $-1 $807 1 $807 0 $475 $-1 forward 7 unknown #
vertex $-1 $476 $808 #
ellipse-curve $-1 30.524650949178579 -32.576339892957002 7.9856644801314989 0 -0.81915205242281985 0.57357642473473569 2 0 0 1 I I #
point $-1 32.524650949178579 -34.95682320652876 9.6524967905685521 #
edge $-1 $809 1 $809 0 $479 $-1 forward 7 unknown #
vertex $-1 $480 $810 #
ellipse-curve $-1 36.636374692472558 -32.576339892957002 7.9856644801314989 0 -0.81915205242281985 0.57357642473473569 2 0 0 1 I I #
point $-1 38.636374692472558 -34.95682320652876 9.6524967905685521 #
plane-surface $-1 0 0 14.530997877821848 0 0 1 1 0 0 forward_v I I I I #
coedge $-1 $678 $677 $670 $811 forward $484 $-1 #
coedge $-1 $670 $486 $488 $674 reversed $323 $-1 #
coedge $-1 $486 $669 $668 $811 reversed $323 $-1 #
coedge $-1 $494 $489 $486 $672 forward $495 $-1 #
edge $-1 $675 -24.153168206090427 $812 -17.321241939373543 $671 $813 forward 7 unknown #
coedge $-1 $488 $487 $678 $814 reversed $203 $-1 #
edge $-1 $815 -76.745572679774426 $675 -64.834472480918663 $669 $816 forward 7 unknown #
vertex $-1 $490 $817 #
straight-curve $-1 -15.552843370391354 31.540860073170336 14.530997877821846 1 0 0 I I #
coedge $-1 $668 $491 $494 $682 reversed $484 $-1 #
coedge $-1 $491 $668 $673 $814 forward $484 $-1 #
vertex $-1 $492 $818 #
straight-curve $-1 -41.291892979606018 38.372786339887213 74.794440384432193 0 0 1 I I #
straight-curve $-1 -41.291892979606018 -5.646664851997599 67.640289078317196 0 0.57357642473473569 -0.81915205242281985 I I #
edge $-1 $812 20.919480501959399 $496 41.291892979606018 $677 $819 forward 7 unknown #
point $-1 -41.291892979606018 38.372786339887213 14.530997877821848 #
point $-1 -41.291892979606018 31.540860073170329 14.530997877821854 #
edge $-1 $820 1 $820 0 $499 $-1 forward 7 unknown #
vertex $-1 $500 $821 #
ellipse-curve $-1 -37.217410484076694 32.576339892957009 7.9856644801314847 0 0.81915205242281985 0.57357642473473569 2 0 0 1 I I #
point $-1 -35.217410484076694 34.95682320652876 9.6524967905685379 #
edge $-1 $822 1 $822 0 $503 $-1 forward 7 unknown #
vertex $-1 $504 $823 #
ellipse-curve $-1 -31.105686740782708 32.576339892957009 7.9856644801314847 0 0.81915205242281985 0.57357642473473569 2 0 0 1 I I #
point $-1 -29.105686740782708 34.95682320652876 9.6524967905685379 #
edge $-1 $824 1 $824 0 $507 $-1 forward 7 unknown #
vertex $-1 $508 $825 #
ellipse-curve $-1 -24.993962997488723 32.576339892957009 7.9856644801314847 0 0.81915205242281985 0.57357642473473569 2 0 0 1 I I #
point $-1 -22.993962997488723 34.95682320652876 9.6524967905685379 #
loop $-1 $-1 $519 $511 #
plane-surface $-1 0 38.372786339887213 0 0 -1 0 0 0 -1 forward_v I I I I #
coedge $-1 $700 $514 $516 $704 reversed $352 $-1 #
coedge $-1 $514 $699 $826 $827 reversed $352 $-1 #
coedge $-1 $522 $517 $514 $702 forward $512 $-1 #
edge $-1 $705 -24.153168206090427 $828 -17.321241939373543 $701 $829 forward 7 unknown #
coedge $-1 $516 $515 $708 $830 reversed $222 $-1 #
edge $-1 $831 -76.745572679774426 $705 -64.834472480918663 $699 $832 forward 7 unknown #
vertex $-1 $518 $833 #
straight-curve $-1 15.262325474589289 31.540860073170336 14.530997877821846 1 0 0 I I #
coedge $-1 $826 $519 $522 $712 reversed $697 $-1 #
coedge $-1 $519 $826 $703 $830 forward $697 $-1 #
vertex $-1 $520 $834 #
straight-curve $-1 20.338444710355269 38.372786339887213 74.794440384432193 0 0 1 I I #
straight-curve $-1 20.338444710355269 -5.646664851997599 67.640289078317196 0 0.57357642473473569 -0.81915205242281985 I I #
edge $-1 $828 -40.710857188001889 $523 -20.338444710355269 $707 $835 forward 7 unknown #
point $-1 20.338444710355269 38.372786339887213 14.530997877821848 #
point $-1 20.338444710355269 31.540860073170329 14.530997877821854 #
edge $-1 $836 1 $836 0 $526 $-1 forward 7 unknown #
vertex $-1 $527 $837 #
ellipse-curve $-1 24.4129272058846 32.576339892957009 7.9856644801314847 0 0.81915205242281985 0.57357642473473569 2 0 0 1 I I #
point $-1 26.4129272058846 34.95682320652876 9.6524967905685379 #
edge $-1 $838 1 $838 0 $530 $-1 forward 7 unknown #
vertex $-1 $531 $839 #
ellipse-curve $-1 30.524650949178579 32.576339892957009 7.9856644801314847 0 0.81915205242281985 0.57357642473473569 2 0 0 1 I I #
point $-1 32.524650949178579 34.95682320652876 9.6524967905685379 #
edge $-1 $840 1 $840 0 $534 $-1 forward 7 unknown #
vertex $-1 $535 $841 #
ellipse-curve $-1 36.636374692472558 32.576339892957009 7.9856644801314847 0 0.81915205242281985 0.57357642473473569 2 0 0 1 I I #
point $-1 38.636374692472558 34.95682320652876 9.6524967905685379 #
plane-surface $-1 71.43650624103519 0 0 -1 0 0 0 0 1 forward_v I I I I #
coedge $-1 $543 $541 $545 $732 reversed $381 $-1 #
edge $-1 $556 -14.530997877821848 $734 14.530997877821848 $555 $842 forward 7 unknown #
vertex $-1 $732 $843 #
straight-curve $-1 -71.43650624103519 -38.372786339887213 0 0 0 -1 I I #
edge $-1 $730 -38.372786339887213 $734 38.372786339887213 $728 $844 forward 7 unknown #
straight-curve $-1 0 -38.372786339887213 -14.530997877821848 -1 0 0 I I #
vertex $-1 $548 $845 #
straight-curve $-1 0 38.372786339887213 -14.530997877821848 1 0 0 I I #
point $-1 71.43650624103519 38.372786339887213 -14.530997877821848 #
point $-1 71.43650624103519 -38.372786339887213 -14.530997877821848 #
straight-curve $-1 -71.43650624103519 0 14.530997877821848 0 -1 0 I I #
point $-1 -71.43650624103519 38.372786339887213 14.530997877821848 #
point $-1 -71.43650624103519 -38.372786339887213 14.530997877821848 #
straight-curve $-1 71.43650624103519 -38.372786339887213 0 0 0 -1 I I #
straight-curve $-1 71.43650624103519 38.372786339887213 0 0 0 -1 I I #
plane-surface $-1 0 -38.372786339887213 0 0 1 0 0 0 1 forward_v I I I I #
coedge $-1 $846 $757 $569 $746 forward $566 $-1 #
coedge $-1 $747 $568 $577 $755 forward $400 $-1 #
edge $-1 $750 -1.6986903705251191 $748 1.6986903705251191 $569 $847 forward 7 unknown #
coedge $-1 $570 $745 $846 $848 forward $400 $-1 #
vertex $-1 $571 $849 #
straight-curve $-1 -76.339590516572144 38.372786339887213 -14.030997877821848 1 0 0 I I #
vertex $-1 $572 $850 #
straight-curve $-1 -76.339590516572144 38.372786339887213 -10.63361713677161 -1 0 0 I I #
point $-1 -71.43650624103519 38.372786339887213 -14.030997877821848 #
straight-curve $-1 -71.43650624103519 0 -14.030997877821848 0 1 0 I I #
coedge $-1 $577 $576 $851 $852 forward $578 $-1 #
edge $-1 $579 -4.9030842755369548 $853 4.9030842755369548 $577 $854 forward 7 unknown #
point $-1 -71.43650624103519 -38.372786339887213 -14.030997877821848 #
coedge $-1 $744 $851 $581 $758 reversed $566 $-1 #
edge $-1 $750 -38.372786339887213 $759 38.372786339887213 $757 $855 forward 7 unknown #
vertex $-1 $758 $856 #
straight-curve $-1 -76.339590516572144 -38.372786339887213 -10.63361713677161 1 0 0 I I #
plane-surface $-1 0 38.372786339887213 0 0 -1 0 0 0 -1 forward_v I I I I #
coedge $-1 $764 $589 $591 $770 forward $586 $-1 #
coedge $-1 $588 $597 $600 $777 forward $414 $-1 #
coedge $-1 $766 $762 $588 $765 reversed $586 $-1 #
edge $-1 $857 -38.372786339887213 $771 38.372786339887213 $764 $858 forward 7 unknown #
coedge $-1 $589 $764 $776 $859 reversed $586 $-1 #
vertex $-1 $590 $860 #
vertex $-1 $590 $861 #
straight-curve $-1 81.242674792109085 0 -10.63361713677161 0 1 0 I I #
edge $-1 $767 -1.6986903705251191 $771 1.6986903705251191 $762 $862 forward 7 unknown #
vertex $-1 $770 $863 #
straight-curve $-1 76.33959051657213 -38.372786339887213 -14.030997877821848 -1 0 0 I I #
straight-curve $-1 76.33959051657213 -38.372786339887213 -10.63361713677161 1 0 0 I I #
point $-1 71.436506241035175 -38.372786339887213 -14.030997877821848 #
straight-curve $-1 71.43650624103519 0 -14.030997877821848 0 -1 0 I I #
coedge $-1 $600 $599 $766 $859 forward $601 $-1 #
edge $-1 $602 -4.9030842755369548 $857 4.9030842755369548 $600 $864 forward 7 unknown #
point $-1 71.436506241035175 38.372786339887213 -14.030997877821848 #
straight-curve $-1 76.33959051657213 38.372786339887213 -10.63361713677161 -1 0 0 I I #
coedge $-1 $618 $617 $610 $781 forward $607 $-1 #
edge $-1 $782 28.830295819109388 $785 38.587297993615913 $780 $865 forward 7 unknown #
vertex $-1 $622 $866 #
straight-curve $-1 -41.291892979606018 -77.703753875203176 14.530997877821846 0 -1 0 I I #
edge $-1 $785 -25.739049609214664 $619 -5.3666371315680443 $618 $867 forward 7 unknown #
vertex $-1 $784 $868 #
straight-curve $-1 -41.291892979606018 -38.372786339887242 4.7739957033152791 0 0.57357642473473569 0.81915205242281985 I I #
point $-1 -41.291892979606018 -31.540860073170343 14.530997877821848 #
point $-1 -20.919480501959399 -38.372786339887213 4.77399570331532 #
straight-curve $-1 0 -38.372786339887213 14.530997877821848 1 0 0 I I #
vertex $-1 $625 $869 #
point $-1 -35.217410484076694 -32.576339892957002 7.9856644801314989 #
vertex $-1 $629 $870 #
point $-1 -29.105686740782708 -32.576339892957002 7.9856644801314989 #
vertex $-1 $633 $871 #
point $-1 -22.993962997488723 -32.576339892957002 7.9856644801314989 #
edge $-1 $797 28.830295819109388 $800 38.587297993615913 $638 $872 forward 7 unknown #
vertex $-1 $652 $873 #
straight-curve $-1 20.338444710355269 -77.703753875203176 14.530997877821846 0 -1 0 I I #
edge $-1 $800 5.0761192357659795 $649 25.448531713412599 $648 $874 forward 7 unknown #
vertex $-1 $799 $875 #
straight-curve $-1 20.338444710355269 -38.372786339887242 4.7739957033152791 0 0.57357642473473569 0.81915205242281985 I I #
point $-1 20.338444710355269 -31.540860073170343 14.530997877821848 #
point $-1 40.710857188001889 -38.372786339887213 4.77399570331532 #
straight-curve $-1 0 -38.372786339887213 14.530997877821848 1 0 0 I I #
vertex $-1 $655 $876 #
point $-1 26.4129272058846 -32.576339892957002 7.9856644801314989 #
vertex $-1 $659 $877 #
point $-1 32.524650949178579 -32.576339892957002 7.9856644801314989 #
vertex $-1 $663 $878 #
point $-1 38.636374692472558 -32.576339892957002 7.9856644801314989 #
edge $-1 $812 60.263442506610346 $815 70.020444681116899 $668 $879 forward 7 unknown #
vertex $-1 $682 $880 #
straight-curve $-1 -20.919480501959399 55.694028279260756 14.530997877821846 0 1 0 I I #
edge $-1 $815 5.3666371315680443 $679 25.739049609214664 $678 $881 forward 7 unknown #
vertex $-1 $814 $882 #
straight-curve $-1 -20.919480501959399 -5.646664851997599 67.640289078317196 0 -0.57357642473473569 0.81915205242281985 I I #
point $-1 -20.919480501959399 31.540860073170329 14.530997877821854 #
point $-1 -41.291892979606018 38.372786339887213 4.7739957033152933 #
straight-curve $-1 0 38.372786339887213 14.530997877821848 -1 0 0 I I #
vertex $-1 $685 $883 #
point $-1 -35.217410484076694 32.576339892957009 7.9856644801314847 #
vertex $-1 $689 $884 #
point $-1 -29.105686740782708 32.576339892957009 7.9856644801314847 #
vertex $-1 $693 $885 #
point $-1 -22.993962997488723 32.576339892957009 7.9856644801314847 #
coedge $-1 $708 $707 $700 $827 forward $697 $-1 #
edge $-1 $828 60.263442506610346 $831 70.020444681116899 $826 $886 forward 7 unknown #
vertex $-1 $712 $887 #
straight-curve $-1 40.710857188001889 55.694028279260756 14.530997877821846 0 1 0 I I #
edge $-1 $831 -25.448531713412599 $709 -5.0761192357659795 $708 $888 forward 7 unknown #
vertex $-1 $830 $889 #
straight-curve $-1 40.710857188001889 -5.646664851997599 67.640289078317196 0 -0.57357642473473569 0.81915205242281985 I I #
point $-1 40.710857188001889 31.540860073170329 14.530997877821854 #
point $-1 20.338444710355269 38.372786339887213 4.7739957033152933 #
straight-curve $-1 0 38.372786339887213 14.530997877821848 -1 0 0 I I #
vertex $-1 $715 $890 #
point $-1 26.4129272058846 32.576339892957009 7.9856644801314847 #
vertex $-1 $719 $891 #
point $-1 32.524650949178579 32.576339892957009 7.9856644801314847 #
vertex $-1 $723 $892 #
point $-1 38.636374692472558 32.576339892957009 7.9856644801314847 #
straight-curve $-1 -71.43650624103519 38.372786339887213 0 0 0 -1 I I #
point $-1 -71.43650624103519 -38.372786339887213 -14.530997877821848 #
straight-curve $-1 -71.43650624103519 0 -14.530997877821848 0 1 0 I I #
point $-1 -71.43650624103519 38.372786339887213 -14.530997877821848 #
coedge $-1 $851 $744 $747 $848 reversed $566 $-1 #
straight-curve $-1 -81.242674792109099 38.372786339887213 -12.332307507296729 0 0 -1 I I #
edge $-1 $853 -38.372786339887213 $748 38.372786339887213 $846 $893 forward 7 unknown #
point $-1 -81.242674792109099 38.372786339887213 -14.030997877821848 #
point $-1 -81.242674792109099 38.372786339887213 -10.63361713677161 #
coedge $-1 $757 $846 $754 $852 reversed $566 $-1 #
edge $-1 $759 -1.6986903705251191 $853 1.6986903705251191 $851 $894 forward 7 unknown #
vertex $-1 $848 $895 #
straight-curve $-1 -76.339590516572144 -38.372786339887213 -14.030997877821848 -1 0 0 I I #
straight-curve $-1 -81.242674792109099 0 -10.63361713677161 0 -1 0 I I #
point $-1 -81.242674792109099 -38.372786339887213 -10.63361713677161 #
vertex $-1 $765 $896 #
straight-curve $-1 81.242674792109085 0 -14.030997877821848 0 -1 0 I I #
edge $-1 $768 -1.6986903705251191 $857 1.6986903705251191 $766 $897 forward 7 unknown #
point $-1 81.242674792109085 -38.372786339887213 -10.63361713677161 #
point $-1 81.242674792109085 38.372786339887213 -10.63361713677161 #
straight-curve $-1 81.242674792109085 -38.372786339887213 -12.332307507296729 0 0 -1 I I #
point $-1 81.242674792109085 -38.372786339887213 -14.030997877821848 #
straight-curve $-1 76.33959051657213 38.372786339887213 -14.030997877821848 1 0 0 I I #
straight-curve $-1 -41.291892979606018 -38.372786339887213 43.361293696931234 0 0 -1 I I #
point $-1 -41.291892979606018 -38.372786339887213 14.530997877821848 #
straight-curve $-1 -15.552843370391354 -38.372786339887213 4.7739957033153164 1 0 0 I I #
point $-1 -41.291892979606018 -38.372786339887213 4.77399570331532 #
point $-1 -37.217410484076694 -30.938035788111364 6.8385116306620279 #
point $-1 -31.105686740782708 -30.938035788111364 6.8385116306620279 #
point $-1 -24.993962997488723 -30.938035788111364 6.8385116306620279 #
straight-curve $-1 20.338444710355269 -38.372786339887213 43.361293696931234 0 0 -1 I I #
point $-1 20.338444710355269 -38.372786339887213 14.530997877821848 #
straight-curve $-1 15.262325474589289 -38.372786339887213 4.7739957033153164 1 0 0 I I #
point $-1 20.338444710355269 -38.372786339887213 4.77399570331532 #
point $-1 24.4129272058846 -30.938035788111364 6.8385116306620279 #
point $-1 30.524650949178579 -30.938035788111364 6.8385116306620279 #
point $-1 36.636374692472558 -30.938035788111364 6.8385116306620279 #
straight-curve $-1 -20.919480501959399 38.372786339887213 74.794440384432193 0 0 -1 I I #
point $-1 -20.919480501959399 38.372786339887213 14.530997877821848 #
straight-curve $-1 -15.552843370391354 38.372786339887213 4.7739957033153004 -1 0 0 I I #
point $-1 -20.919480501959399 38.372786339887213 4.7739957033152933 #
point $-1 -37.217410484076694 30.938035788111367 6.8385116306620137 #
point $-1 -31.105686740782708 30.938035788111367 6.8385116306620137 #
point $-1 -24.993962997488723 30.938035788111367 6.8385116306620137 #
straight-curve $-1 40.710857188001889 38.372786339887213 74.794440384432193 0 0 -1 I I #
point $-1 40.710857188001889 38.372786339887213 14.530997877821848 #
straight-curve $-1 15.262325474589289 38.372786339887213 4.7739957033153004 -1 0 0 I I #
point $-1 40.710857188001889 38.372786339887213 4.7739957033152933 #
point $-1 24.4129272058846 30.938035788111367 6.8385116306620137 #
point $-1 30.524650949178579 30.938035788111367 6.8385116306620137 #
point $-1 36.636374692472558 30.938035788111367 6.8385116306620137 #
straight-curve $-1 -81.242674792109099 0 -14.030997877821848 0 1 0 I I #
straight-curve $-1 -81.242674792109099 -38.372786339887213 -12.332307507296729 0 0 -1 I I #
point $-1 -81.242674792109099 -38.372786339887213 -14.030997877821848 #
point $-1 81.242674792109085 38.372786339887213 -14.030997877821848 #
straight-curve $-1 81.242674792109085 38.372786339887213 -12.332307507296729 0 0 -1 I I #
End-of-ACIS-data 