500 0 8 0           
7 Unknown 11 ACIS 5.0 NT 24 Thu Mar 25 17:34:38 1999 
-1 9.9999999999999995e-007 1e-010 
body $-1 $8 $-1 $9 #
body $-1 $10 $-1 $11 #
body $-1 $12 $-1 $13 #
body $-1 $14 $-1 $15 #
body $-1 $16 $-1 $17 #
body $-1 $18 $-1 $19 #
body $-1 $20 $-1 $21 #
body $-1 $22 $-1 $23 #
lump $-1 $-1 $24 $0 #
transform $-1 1 0 0 0 1 0 0 0 1 79.011200292977691 48.88340278510146 22.562419722321771 1 rotate no_reflect no_shear #
lump $-1 $-1 $25 $1 #
transform $-1 1 0 0 0 1 0 0 0 1 79.011200292977691 48.88340278510146 22.562419722321771 1 rotate no_reflect no_shear #
lump $-1 $-1 $26 $2 #
transform $-1 1 0 0 0 1 0 0 0 1 79.011200292977691 48.88340278510146 22.562419722321771 1 rotate no_reflect no_shear #
lump $-1 $-1 $27 $3 #
transform $-1 1 0 0 0 1 0 0 0 1 79.011200292977691 48.88340278510146 22.562419722321771 1 rotate no_reflect no_shear #
lump $-1 $-1 $28 $4 #
transform $-1 1 0 0 0 1 0 0 0 1 79.011200292977691 48.88340278510146 22.562419722321771 1 rotate no_reflect no_shear #
lump $-1 $-1 $29 $5 #
transform $-1 1 0 0 0 1 0 0 0 1 79.011200292977691 48.88340278510146 22.562419722321771 1 rotate no_reflect no_shear #
lump $-1 $-1 $30 $6 #
transform $-1 1 0 0 0 1 0 0 0 1 79.011200292977691 48.88340278510146 22.562419722321771 1 rotate no_reflect no_shear #
lump $-1 $-1 $31 $7 #
transform $-1 1 0 0 0 1 0 0 0 1 79.011200292977691 48.88340278510146 22.562419722321771 1 rotate no_reflect no_shear #
shell $-1 $-1 $-1 $32 $-1 $8 #
shell $-1 $-1 $-1 $33 $-1 $10 #
shell $-1 $-1 $-1 $34 $-1 $12 #
shell $-1 $-1 $-1 $35 $-1 $14 #
shell $-1 $-1 $-1 $36 $-1 $16 #
shell $-1 $-1 $-1 $37 $-1 $18 #
shell $-1 $-1 $-1 $38 $-1 $20 #
shell $-1 $-1 $-1 $39 $-1 $22 #
face $-1 $40 $41 $24 $-1 $42 forward single #
face $-1 $43 $44 $25 $-1 $45 reversed single #
face $-1 $46 $47 $26 $-1 $48 forward single #
face $-1 $49 $50 $27 $-1 $51 forward single #
face $-1 $52 $53 $28 $-1 $54 reversed single #
face $-1 $55 $56 $29 $-1 $57 forward single #
face $-1 $58 $59 $30 $-1 $60 forward single #
face $-1 $61 $62 $31 $-1 $63 forward single #
face $-1 $64 $65 $24 $-1 $66 reversed single #
loop $-1 $-1 $67 $32 #
plane-surface $-1 0 0 22.562419722321771 0 0 1 1 0 0 forward_v I I I I #
face $-1 $68 $69 $25 $-1 $70 reversed single #
loop $-1 $-1 $71 $33 #
plane-surface $-1 -45.701928201936852 -173.40675506196598 115.30982431564172 -1 0 0 0 -0.78801076186113728 0.61566146476048833 forward_v I I I I #
face $-1 $72 $73 $26 $-1 $74 forward single #
loop $-1 $75 $76 $34 #
cone-surface $-1 -69.494265409823171 -46.669173995822554 19.9479240488428 0 0.78801076186113728 -0.61566146476048833 1 0 0 1 I I 0 1 1 forward I I I I #
face $-1 $77 $78 $27 $-1 $79 forward single #
loop $-1 $80 $81 $35 #
cone-surface $-1 -55.218863085091378 -46.669173995822554 19.9479240488428 0 0.78801076186113728 -0.61566146476048833 1 0 0 1 I I 0 1 1 forward I I I I #
face $-1 $82 $83 $28 $-1 $84 reversed single #
loop $-1 $-1 $85 $36 #
plane-surface $-1 -53.321188448199678 110.16323121385062 192.0514947902183 1 0 0 0 -0.77714596973225614 -0.62932038083071107 forward_v I I I I #
face $-1 $86 $87 $29 $-1 $88 forward single #
loop $-1 $89 $90 $37 #
cone-surface $-1 -45.214094825682324 45.632203969903408 18.907793203113616 0 -0.77714596973225614 -0.62932038083071107 1 0 0 1 I I 0 1 1 forward I I I I #
face $-1 $91 $92 $30 $-1 $93 forward single #
loop $-1 $94 $95 $38 #
cone-surface $-1 -33.053454391906293 45.632203969903408 18.907793203113616 0 -0.77714596973225614 -0.62932038083071107 1 0 0 1 I I 0 1 1 forward I I I I #
face $-1 $96 $97 $31 $-1 $98 forward single #
loop $-1 $99 $100 $39 #
cone-surface $-1 -20.892813958130262 45.632203969903408 18.907793203113616 0 -0.77714596973225614 -0.62932038083071107 1 0 0 1 I I 0 1 1 forward I I I I #
face $-1 $101 $102 $24 $-1 $103 reversed single #
loop $-1 $-1 $104 $40 #
plane-surface $-1 0 0 -22.562419722321771 0 0 1 1 0 0 forward_v I I I I #
coedge $-1 $105 $106 $107 $108 forward $41 $-1 #
face $-1 $109 $110 $25 $-1 $111 forward single #
loop $-1 $-1 $112 $43 #
plane-surface $-1 -62.356564247457271 -48.883402785101453 18.021521705923774 0 -0.78801076186113728 0.61566146476048833 1 0 0 forward_v I I I I #
coedge $-1 $113 $114 $115 $116 reversed $44 $-1 #
face $-1 $-1 $117 $26 $-1 $118 forward single #
loop $-1 $119 $120 $46 #
cone-surface $-1 -69.494265409823171 -45.834808952413297 19.296046651182571 0 0.78801076186113728 -0.61566146476048833 0.5 0 0 1 I I -0.70710678118654746 0.70710678118654746 0.5 forward I I I I #
loop $-1 $-1 $121 $34 #
coedge $-1 $76 $76 $122 $123 reversed $47 $-1 #
face $-1 $-1 $124 $27 $-1 $125 forward single #
loop $-1 $126 $127 $49 #
cone-surface $-1 -55.218863085091378 -45.834808952413297 19.296046651182571 0 0.78801076186113728 -0.61566146476048833 0.5 0 0 1 I I -0.70710678118654746 0.70710678118654746 0.5 forward I I I I #
loop $-1 $-1 $128 $35 #
coedge $-1 $81 $81 $129 $130 reversed $50 $-1 #
face $-1 $131 $132 $28 $-1 $133 reversed single #
loop $-1 $-1 $134 $52 #
plane-surface $-1 -33.053454391906293 -12.643240528940709 92.604777473681679 0 0.77714596973225614 0.62932038083071107 1 0 0 forward_v I I I I #
coedge $-1 $135 $136 $137 $138 reversed $53 $-1 #
face $-1 $-1 $139 $29 $-1 $140 forward single #
loop $-1 $141 $142 $55 #
cone-surface $-1 -45.214094825682324 44.396163112162959 17.906867079050294 0 -0.77714596973225614 -0.62932038083071107 0.5 0 0 1 I I -0.70710678118654746 0.70710678118654746 0.5 forward I I I I #
loop $-1 $-1 $143 $37 #
coedge $-1 $90 $90 $144 $145 reversed $56 $-1 #
face $-1 $-1 $146 $30 $-1 $147 forward single #
loop $-1 $148 $149 $58 #
cone-surface $-1 -33.053454391906293 44.396163112162959 17.906867079050294 0 -0.77714596973225614 -0.62932038083071107 0.5 0 0 1 I I -0.70710678118654746 0.70710678118654746 0.5 forward I I I I #
loop $-1 $-1 $150 $38 #
coedge $-1 $95 $95 $151 $152 reversed $59 $-1 #
face $-1 $-1 $153 $31 $-1 $154 forward single #
loop $-1 $155 $156 $61 #
cone-surface $-1 -20.892813958130262 44.396163112162959 17.906867079050294 0 -0.77714596973225614 -0.62932038083071107 0.5 0 0 1 I I -0.70710678118654746 0.70710678118654746 0.5 forward I I I I #
loop $-1 $-1 $157 $39 #
coedge $-1 $100 $100 $158 $159 reversed $62 $-1 #
face $-1 $160 $161 $24 $-1 $162 reversed single #
loop $-1 $-1 $163 $64 #
plane-surface $-1 0 -48.88340278510146 0 0 1 0 0 0 1 forward_v I I I I #
coedge $-1 $164 $165 $166 $167 forward $65 $-1 #
coedge $-1 $168 $67 $169 $170 forward $41 $-1 #
coedge $-1 $67 $168 $171 $172 forward $41 $-1 #
coedge $-1 $173 $174 $67 $108 reversed $175 $-1 #
edge $-1 $176 -48.88340278510146 $177 48.88340278510146 $107 $178 forward 7 unknown #
face $-1 $179 $180 $25 $-1 $181 reversed single #
loop $-1 $-1 $115 $68 #
plane-surface $-1 0 0 22.562419722321771 0 0 1 1 0 0 forward_v I I I I #
coedge $-1 $182 $183 $184 $185 reversed $69 $-1 #
coedge $-1 $114 $71 $186 $187 reversed $44 $-1 #
coedge $-1 $71 $113 $182 $188 reversed $44 $-1 #
coedge $-1 $184 $189 $71 $116 forward $110 $-1 #
edge $-1 $190 37.819974745881531 $191 41.367712999481981 $115 $192 forward 7 unknown #
loop $-1 $-1 $122 $72 #
plane-surface $-1 -62.356564247457271 -48.883402785101453 18.021521705923774 0 -0.78801076186113728 0.61566146476048833 1 0 0 forward_v I I I I #
loop $-1 $-1 $193 $46 #
coedge $-1 $120 $120 $121 $194 reversed $73 $-1 #
coedge $-1 $121 $121 $120 $194 forward $75 $-1 #
coedge $-1 $122 $122 $76 $123 forward $117 $-1 #
edge $-1 $195 2.4492308213645081e-015 $195 6.2831853071796031 $122 $196 forward 7 unknown #
loop $-1 $-1 $129 $77 #
plane-surface $-1 -62.356564247457271 -48.883402785101453 18.021521705923774 0 -0.78801076186113728 0.61566146476048833 1 0 0 forward_v I I I I #
loop $-1 $-1 $197 $49 #
coedge $-1 $127 $127 $128 $198 reversed $78 $-1 #
coedge $-1 $128 $128 $127 $198 forward $80 $-1 #
coedge $-1 $129 $129 $81 $130 forward $124 $-1 #
edge $-1 $199 2.4492308213645081e-015 $199 6.2831853071796031 $129 $200 forward 7 unknown #
face $-1 $201 $202 $28 $-1 $203 forward single #
loop $-1 $-1 $204 $82 #
plane-surface $-1 -12.785720335612908 110.16323121385062 192.0514947902183 -1 0 0 0 0.77714596973225614 0.62932038083071107 forward_v I I I I #
coedge $-1 $205 $206 $207 $208 reversed $83 $-1 #
coedge $-1 $136 $85 $209 $210 reversed $53 $-1 #
coedge $-1 $85 $135 $205 $211 reversed $53 $-1 #
coedge $-1 $207 $212 $85 $138 forward $202 $-1 #
edge $-1 $213 6.1982128218238515 $214 11.005674706471318 $137 $215 forward 7 unknown #
loop $-1 $-1 $144 $86 #
plane-surface $-1 -33.053454391906293 -12.643240528940709 92.604777473681679 0 0.77714596973225614 0.62932038083071107 1 0 0 forward_v I I I I #
loop $-1 $-1 $216 $55 #
coedge $-1 $142 $142 $143 $217 reversed $87 $-1 #
coedge $-1 $143 $143 $142 $217 forward $89 $-1 #
coedge $-1 $144 $144 $90 $145 forward $139 $-1 #
edge $-1 $218 2.7609771170924661e-015 $218 6.2831853071796031 $144 $219 forward 7 unknown #
loop $-1 $-1 $151 $91 #
plane-surface $-1 -33.053454391906293 -12.643240528940709 92.604777473681679 0 0.77714596973225614 0.62932038083071107 1 0 0 forward_v I I I I #
loop $-1 $-1 $220 $58 #
coedge $-1 $149 $149 $150 $221 reversed $92 $-1 #
coedge $-1 $150 $150 $149 $221 forward $94 $-1 #
coedge $-1 $151 $151 $95 $152 forward $146 $-1 #
edge $-1 $222 2.7609771170924661e-015 $222 6.2831853071796031 $151 $223 forward 7 unknown #
loop $-1 $-1 $158 $96 #
plane-surface $-1 -33.053454391906293 -12.643240528940709 92.604777473681679 0 0.77714596973225614 0.62932038083071107 1 0 0 forward_v I I I I #
loop $-1 $-1 $224 $61 #
coedge $-1 $156 $156 $157 $225 reversed $97 $-1 #
coedge $-1 $157 $157 $156 $225 forward $99 $-1 #
coedge $-1 $158 $158 $100 $159 forward $153 $-1 #
edge $-1 $226 2.7609771170924661e-015 $226 6.2831853071796031 $158 $227 forward 7 unknown #
face $-1 $228 $229 $24 $-1 $230 reversed single #
loop $-1 $-1 $231 $101 #
plane-surface $-1 -79.011200292977691 0 0 1 0 0 0 0 -1 forward_v I I I I #
coedge $-1 $232 $171 $233 $234 forward $102 $-1 #
coedge $-1 $235 $104 $232 $236 forward $65 $-1 #
coedge $-1 $104 $235 $237 $238 forward $65 $-1 #
coedge $-1 $174 $173 $104 $167 reversed $175 $-1 #
edge $-1 $239 -48.88340278510146 $240 48.88340278510146 $166 $241 forward 7 unknown #
coedge $-1 $106 $105 $242 $243 forward $41 $-1 #
coedge $-1 $244 $245 $105 $170 reversed $229 $-1 #
edge $-1 $177 -79.011200292977691 $246 79.011200292977691 $169 $247 forward 7 unknown #
coedge $-1 $163 $248 $106 $172 reversed $102 $-1 #
edge $-1 $249 -79.011200292977691 $176 79.011200292977691 $171 $250 forward 7 unknown #
coedge $-1 $166 $107 $248 $251 forward $175 $-1 #
coedge $-1 $107 $166 $244 $252 reversed $175 $-1 #
loop $-1 $-1 $173 $228 #
vertex $-1 $108 $253 #
vertex $-1 $108 $254 #
straight-curve $-1 79.011200292977691 0 22.562419722321771 0 1 0 I I #
face $-1 $-1 $255 $25 $-1 $256 reversed single #
loop $-1 $-1 $257 $109 #
plane-surface $-1 -79.011200292977691 0 0 1 0 0 0 0 -1 forward_v I I I I #
coedge $-1 $258 $112 $114 $188 forward $69 $-1 #
coedge $-1 $112 $258 $257 $259 reversed $69 $-1 #
coedge $-1 $260 $115 $112 $185 forward $110 $-1 #
edge $-1 $191 14.523646078208216 $261 47.832918169249055 $184 $262 forward 7 unknown #
coedge $-1 $263 $264 $113 $187 forward $255 $-1 #
edge $-1 $265 -39.6333904518971 $190 -35.092492435499089 $186 $266 forward 7 unknown #
edge $-1 $191 -5.7624822352339766 $265 1.2773267652848079e-014 $114 $267 forward 7 unknown #
coedge $-1 $115 $260 $263 $268 forward $110 $-1 #
vertex $-1 $187 $269 #
vertex $-1 $116 $270 #
straight-curve $-1 -45.701928201936852 -86.703377530982991 22.562419722321771 0 1 0 I I #
coedge $-1 $193 $193 $-1 $271 reversed $119 $-1 #
edge $-1 $272 0 $272 6.2831853071796004 $120 $273 forward 7 unknown #
vertex $-1 $123 $274 #
ellipse-curve $-1 -69.494265409823171 -47.109533658301231 20.291970714122773 0 -0.78801076186113728 0.61566146476048833 1 0 0 1 I I #
coedge $-1 $197 $197 $-1 $275 reversed $126 $-1 #
edge $-1 $276 0 $276 6.2831853071796004 $127 $277 forward 7 unknown #
vertex $-1 $130 $278 #
ellipse-curve $-1 -55.218863085091378 -47.109533658301231 20.291970714122773 0 -0.78801076186113728 0.61566146476048833 1 0 0 1 I I #
face $-1 $-1 $279 $28 $-1 $280 reversed single #
loop $-1 $-1 $137 $131 #
plane-surface $-1 0 0 22.562419722321771 0 0 1 1 0 0 forward_v I I I I #
coedge $-1 $281 $282 $283 $284 reversed $132 $-1 #
coedge $-1 $285 $134 $136 $211 forward $83 $-1 #
coedge $-1 $134 $285 $281 $286 forward $83 $-1 #
coedge $-1 $283 $137 $134 $208 forward $202 $-1 #
edge $-1 $214 -36.794461252246535 $287 3.7410068603402387 $207 $288 forward 7 unknown #
coedge $-1 $289 $290 $135 $210 forward $279 $-1 #
edge $-1 $291 -79.40004884390774 $213 -73.463327672787386 $209 $292 forward 7 unknown #
edge $-1 $214 90.12767289456707 $291 97.766805570202891 $136 $293 forward 7 unknown #
coedge $-1 $137 $283 $289 $294 forward $202 $-1 #
vertex $-1 $210 $295 #
vertex $-1 $138 $296 #
straight-curve $-1 -53.321188448199678 55.081615606925311 22.562419722321778 0 -1 0 I I #
coedge $-1 $216 $216 $-1 $297 reversed $141 $-1 #
edge $-1 $298 0 $298 6.2831853071796004 $142 $299 forward 7 unknown #
vertex $-1 $145 $300 #
ellipse-curve $-1 -45.214094825682324 46.479671842777734 19.594059136761587 0 0.77714596973225614 0.62932038083071107 1 0 0 1 I I #
coedge $-1 $220 $220 $-1 $301 reversed $148 $-1 #
edge $-1 $302 0 $302 6.2831853071796004 $149 $303 forward 7 unknown #
vertex $-1 $152 $304 #
ellipse-curve $-1 -33.053454391906293 46.479671842777734 19.594059136761587 0 0.77714596973225614 0.62932038083071107 1 0 0 1 I I #
coedge $-1 $224 $224 $-1 $305 reversed $155 $-1 #
edge $-1 $306 0 $306 6.2831853071796004 $156 $307 forward 7 unknown #
vertex $-1 $159 $308 #
ellipse-curve $-1 -20.892813958130262 46.479671842777734 19.594059136761587 0 0.77714596973225614 0.62932038083071107 1 0 0 1 I I #
face $-1 $-1 $175 $24 $-1 $309 reversed single #
loop $-1 $-1 $244 $160 #
plane-surface $-1 0 48.88340278510146 0 0 -1 0 0 0 -1 forward_v I I I I #
coedge $-1 $310 $242 $245 $311 forward $161 $-1 #
coedge $-1 $248 $163 $164 $236 reversed $102 $-1 #
coedge $-1 $242 $310 $163 $234 reversed $161 $-1 #
edge $-1 $249 -22.562419722321771 $312 22.562419722321771 $233 $313 forward 7 unknown #
coedge $-1 $165 $164 $310 $314 forward $65 $-1 #
edge $-1 $240 -79.011200292977691 $312 79.011200292977691 $232 $315 forward 7 unknown #
coedge $-1 $245 $244 $165 $238 reversed $229 $-1 #
edge $-1 $316 -79.011200292977691 $239 79.011200292977691 $237 $317 forward 7 unknown #
vertex $-1 $167 $318 #
vertex $-1 $251 $319 #
straight-curve $-1 79.011200292977691 0 -22.562419722321771 0 -1 0 I I #
coedge $-1 $231 $233 $168 $243 reversed $161 $-1 #
edge $-1 $246 -48.88340278510146 $249 48.88340278510146 $242 $320 forward 7 unknown #
coedge $-1 $237 $169 $174 $252 forward $229 $-1 #
coedge $-1 $169 $237 $231 $311 reversed $229 $-1 #
vertex $-1 $170 $321 #
straight-curve $-1 0 48.88340278510146 22.562419722321771 -1 0 0 I I #
coedge $-1 $171 $232 $173 $251 reversed $102 $-1 #
vertex $-1 $243 $322 #
straight-curve $-1 0 -48.88340278510146 22.562419722321771 1 0 0 I I #
edge $-1 $176 -22.562419722321771 $240 22.562419722321771 $173 $323 forward 7 unknown #
edge $-1 $177 -22.562419722321771 $239 22.562419722321771 $174 $324 forward 7 unknown #
point $-1 79.011200292977691 -48.88340278510146 22.562419722321771 #
point $-1 79.011200292977691 48.88340278510146 22.562419722321771 #
loop $-1 $-1 $186 $179 #
plane-surface $-1 0 -48.88340278510146 0 0 1 0 0 0 1 forward_v I I I I #
coedge $-1 $325 $326 $183 $259 forward $180 $-1 #
coedge $-1 $183 $182 $264 $327 reversed $69 $-1 #
edge $-1 $261 2.1847549206512591 $328 7.947237155885249 $257 $329 forward 7 unknown #
coedge $-1 $189 $184 $326 $330 forward $110 $-1 #
vertex $-1 $330 $331 #
straight-curve $-1 -31.178282123728636 -45.33566453150101 22.562419722321771 -1 0 0 I I #
coedge $-1 $332 $186 $189 $268 reversed $255 $-1 #
coedge $-1 $186 $332 $258 $327 forward $255 $-1 #
vertex $-1 $187 $333 #
straight-curve $-1 -45.701928201936852 -48.88340278510146 57.65491215782086 0 0 1 I I #
straight-curve $-1 -45.701928201936852 -48.883402785101453 18.021521705923774 0 -0.61566146476048833 -0.78801076186113728 I I #
edge $-1 $334 -79.011200292977691 $190 -45.701928201936852 $263 $335 forward 7 unknown #
point $-1 -45.701928201936852 -48.88340278510146 22.562419722321771 #
point $-1 -45.701928201936852 -45.33566453150101 22.562419722321771 #
edge $-1 $336 1 $336 0 $193 $-1 forward 7 unknown #
vertex $-1 $194 $337 #
ellipse-curve $-1 -69.494265409823171 -46.228814333343863 19.603877383562814 0 -0.78801076186113728 0.61566146476048833 1 0 0 1 I I #
point $-1 -68.494265409823171 -47.109533658301245 20.291970714122787 #
edge $-1 $338 1 $338 0 $197 $-1 forward 7 unknown #
vertex $-1 $198 $339 #
ellipse-curve $-1 -55.218863085091378 -46.228814333343863 19.603877383562814 0 -0.78801076186113728 0.61566146476048833 1 0 0 1 I I #
point $-1 -54.218863085091378 -47.109533658301245 20.291970714122787 #
loop $-1 $-1 $209 $201 #
plane-surface $-1 0 48.88340278510146 0 0 -1 0 0 0 -1 forward_v I I I I #
coedge $-1 $282 $204 $206 $286 reversed $132 $-1 #
coedge $-1 $204 $281 $340 $341 reversed $132 $-1 #
coedge $-1 $212 $207 $204 $284 forward $202 $-1 #
edge $-1 $287 -11.005674706471318 $342 -6.1982128218238515 $283 $343 forward 7 unknown #
coedge $-1 $206 $205 $290 $344 reversed $83 $-1 #
edge $-1 $345 -97.766805570202891 $287 -90.12767289456707 $281 $346 forward 7 unknown #
vertex $-1 $208 $347 #
straight-curve $-1 -16.526727195953146 44.075940900454007 22.562419722321771 1 0 0 I I #
coedge $-1 $340 $209 $212 $294 reversed $279 $-1 #
coedge $-1 $209 $340 $285 $344 forward $279 $-1 #
vertex $-1 $210 $348 #
straight-curve $-1 -53.321188448199678 48.88340278510146 96.02574739510915 0 0 1 I I #
straight-curve $-1 -53.321188448199678 -12.643240528940709 92.604777473681679 0 0.62932038083071107 -0.77714596973225614 I I #
edge $-1 $342 12.785720335612908 $213 53.321188448199678 $289 $349 forward 7 unknown #
point $-1 -53.321188448199678 48.88340278510146 22.562419722321771 #
point $-1 -53.321188448199678 44.075940900453993 22.562419722321778 #
edge $-1 $350 1 $350 0 $216 $-1 forward 7 unknown #
vertex $-1 $217 $351 #
ellipse-curve $-1 -45.214094825682324 44.784736097029089 18.22152726946565 0 0.77714596973225614 0.62932038083071107 1 0 0 1 I I #
point $-1 -44.214094825682324 46.479671842777734 19.594059136761583 #
edge $-1 $352 1 $352 0 $220 $-1 forward 7 unknown #
vertex $-1 $221 $353 #
ellipse-curve $-1 -33.053454391906293 44.784736097029089 18.22152726946565 0 0.77714596973225614 0.62932038083071107 1 0 0 1 I I #
point $-1 -32.053454391906293 46.479671842777734 19.594059136761583 #
edge $-1 $354 1 $354 0 $224 $-1 forward 7 unknown #
vertex $-1 $225 $355 #
ellipse-curve $-1 -20.892813958130262 44.784736097029089 18.22152726946565 0 0.77714596973225614 0.62932038083071107 1 0 0 1 I I #
point $-1 -19.892813958130262 46.479671842777734 19.594059136761583 #
plane-surface $-1 79.011200292977691 0 0 -1 0 0 0 0 1 forward_v I I I I #
coedge $-1 $233 $231 $235 $314 reversed $161 $-1 #
edge $-1 $246 -22.562419722321771 $316 22.562419722321771 $245 $356 forward 7 unknown #
vertex $-1 $314 $357 #
straight-curve $-1 -79.011200292977691 -48.88340278510146 0 0 0 -1 I I #
edge $-1 $312 -48.88340278510146 $316 48.88340278510146 $310 $358 forward 7 unknown #
straight-curve $-1 0 -48.88340278510146 -22.562419722321771 -1 0 0 I I #
vertex $-1 $238 $359 #
straight-curve $-1 0 48.88340278510146 -22.562419722321771 1 0 0 I I #
point $-1 79.011200292977691 48.88340278510146 -22.562419722321771 #
point $-1 79.011200292977691 -48.88340278510146 -22.562419722321771 #
straight-curve $-1 -79.011200292977691 0 22.562419722321771 0 -1 0 I I #
point $-1 -79.011200292977691 48.88340278510146 22.562419722321771 #
point $-1 -79.011200292977691 -48.88340278510146 22.562419722321771 #
straight-curve $-1 79.011200292977691 -48.88340278510146 0 0 0 -1 I I #
straight-curve $-1 79.011200292977691 48.88340278510146 0 0 0 -1 I I #
coedge $-1 $326 $257 $332 $360 reversed $180 $-1 #
coedge $-1 $257 $325 $260 $330 reversed $180 $-1 #
edge $-1 $328 -47.832918169249055 $265 -14.523646078208216 $264 $361 forward 7 unknown #
vertex $-1 $259 $362 #
straight-curve $-1 -79.011200292977691 -43.990595116910171 24.284030111824038 0 -0.61566146476048833 -0.78801076186113728 I I #
edge $-1 $261 45.33566453150101 $334 48.88340278510146 $326 $363 forward 7 unknown #
point $-1 -79.011200292977691 -45.33566453150101 22.562419722321771 #
coedge $-1 $264 $263 $325 $360 forward $255 $-1 #
point $-1 -45.701928201936852 -48.88340278510146 18.021521705923764 #
vertex $-1 $330 $364 #
straight-curve $-1 0 -48.88340278510146 22.562419722321771 1 0 0 I I #
vertex $-1 $271 $365 #
point $-1 -68.494265409823171 -46.228814333343863 19.603877383562814 #
vertex $-1 $275 $366 #
point $-1 -54.218863085091378 -46.228814333343863 19.603877383562814 #
coedge $-1 $290 $289 $282 $341 forward $279 $-1 #
edge $-1 $342 73.463327672787386 $345 79.40004884390774 $340 $367 forward 7 unknown #
vertex $-1 $294 $368 #
straight-curve $-1 -12.785720335612908 55.081615606925311 22.562419722321778 0 1 0 I I #
edge $-1 $345 -3.7410068603402387 $291 36.794461252246535 $290 $369 forward 7 unknown #
vertex $-1 $344 $370 #
straight-curve $-1 -12.785720335612908 -12.643240528940709 92.604777473681679 0 -0.62932038083071107 0.77714596973225614 I I #
point $-1 -12.785720335612908 44.075940900453993 22.562419722321778 #
point $-1 -53.321188448199678 48.88340278510146 16.62569855120141 #
straight-curve $-1 0 48.88340278510146 22.562419722321771 -1 0 0 I I #
vertex $-1 $297 $371 #
point $-1 -44.214094825682324 44.784736097029089 18.22152726946565 #
vertex $-1 $301 $372 #
point $-1 -32.053454391906293 44.784736097029089 18.22152726946565 #
vertex $-1 $305 $373 #
point $-1 -19.892813958130262 44.784736097029089 18.22152726946565 #
straight-curve $-1 -79.011200292977691 48.88340278510146 0 0 0 -1 I I #
point $-1 -79.011200292977691 -48.88340278510146 -22.562419722321771 #
straight-curve $-1 -79.011200292977691 0 -22.562419722321771 0 1 0 I I #
point $-1 -79.011200292977691 48.88340278510146 -22.562419722321771 #
edge $-1 $334 -22.562419722321771 $328 -18.021521705923764 $325 $374 forward 7 unknown #
straight-curve $-1 -31.178282123728636 -48.88340278510146 18.02152170592376 1 0 0 I I #
point $-1 -79.011200292977691 -48.88340278510146 18.021521705923764 #
straight-curve $-1 -79.011200292977691 0 22.562419722321771 0 -1 0 I I #
point $-1 -79.011200292977691 -48.88340278510146 22.562419722321771 #
point $-1 -69.494265409823171 -45.440803571482732 18.988215918802329 #
point $-1 -55.218863085091378 -45.440803571482732 18.988215918802329 #
straight-curve $-1 -12.785720335612908 48.88340278510146 96.02574739510915 0 0 -1 I I #
point $-1 -12.785720335612908 48.88340278510146 22.562419722321771 #
straight-curve $-1 -16.526727195953146 48.88340278510146 16.62569855120141 -1 0 0 I I #
point $-1 -12.785720335612908 48.88340278510146 16.62569855120141 #
point $-1 -45.214094825682324 44.00759012729683 17.592206888634937 #
point $-1 -33.053454391906293 44.00759012729683 17.592206888634937 #
point $-1 -20.892813958130262 44.00759012729683 17.592206888634937 #
straight-curve $-1 -79.011200292977691 -48.88340278510146 0 0 0 -1 I I #
End-of-ACIS-data 