500 0 4 0           
7 Unknown 11 ACIS 5.0 NT 24 Fri Mar 26 15:25:02 1999 
-1 9.9999999999999995e-007 1e-010 
body $-1 $4 $-1 $5 #
body $-1 $6 $-1 $7 #
body $-1 $8 $-1 $9 #
body $-1 $10 $-1 $11 #
lump $-1 $-1 $12 $0 #
transform $-1 1 0 0 0 1 0 0 0 1 58.654133732108519 33.740044431585652 15.020276562638724 1 rotate no_reflect no_shear #
lump $-1 $-1 $13 $1 #
transform $-1 1 0 0 0 1 0 0 0 1 58.654133732108519 33.740044431585652 15.020276562638724 1 rotate no_reflect no_shear #
lump $-1 $-1 $14 $2 #
transform $-1 1 0 0 0 1 0 0 0 1 58.654133732108519 33.740044431585652 15.020276562638724 1 rotate no_reflect no_shear #
lump $-1 $-1 $15 $3 #
transform $-1 1 0 0 0 1 0 0 0 1 58.654133732108519 33.740044431585652 15.020276562638724 1 rotate no_reflect no_shear #
shell $-1 $-1 $-1 $16 $-1 $4 #
shell $-1 $-1 $-1 $17 $-1 $6 #
shell $-1 $-1 $-1 $18 $-1 $8 #
shell $-1 $-1 $-1 $19 $-1 $10 #
face $-1 $20 $21 $12 $-1 $22 forward single #
face $-1 $23 $24 $13 $-1 $25 forward single #
face $-1 $26 $27 $14 $-1 $28 forward single #
face $-1 $29 $30 $15 $-1 $31 reversed single #
face $-1 $32 $33 $12 $-1 $34 reversed single #
loop $-1 $-1 $35 $16 #
plane-surface $-1 0 0 15.020276562638724 0 0 1 1 0 0 forward_v I I I I #
face $-1 $36 $37 $13 $-1 $38 reversed single #
loop $-1 $-1 $39 $17 #
plane-surface $-1 -63.93968778081004 0 -2.7463352663944027 0 0 1 1 0 0 forward_v I I I I #
face $-1 $40 $41 $14 $-1 $42 forward single #
loop $-1 $-1 $43 $18 #
plane-surface $-1 -20.167424611984149 57.451599550713105 138.89062931898181 1 0 0 0 -0.64278761758704617 -0.76604443648966558 forward_v I I I I #
face $-1 $44 $45 $15 $-1 $46 reversed single #
loop $-1 $47 $48 $19 #
cone-surface $-1 -4.2373099444986053 27.01533445557882 8.974730215180859 0 -0.64278761758704617 -0.76604443648966558 3 0 0 1 I I 0 1 3 forward I I I I #
face $-1 $49 $50 $12 $-1 $51 reversed single #
loop $-1 $-1 $52 $20 #
plane-surface $-1 0 0 -15.020276562638724 0 0 1 1 0 0 forward_v I I I I #
coedge $-1 $53 $54 $55 $56 forward $21 $-1 #
face $-1 $57 $58 $13 $-1 $59 reversed single #
loop $-1 $-1 $60 $23 #
plane-surface $-1 -63.93968778081004 0 -7.4050184142595521 0 0 1 1 0 0 forward_v I I I I #
coedge $-1 $61 $62 $63 $64 reversed $24 $-1 #
face $-1 $65 $66 $14 $-1 $67 forward single #
loop $-1 $-1 $68 $26 #
plane-surface $-1 -4.2373099444986053 -17.952702215874972 49.027283673776694 0 0.64278761758704617 0.76604443648966558 1 0 0 forward_v I I I I #
coedge $-1 $69 $70 $71 $72 reversed $27 $-1 #
face $-1 $73 $74 $15 $-1 $75 forward single #
loop $-1 $76 $77 $29 #
cone-surface $-1 -4.2373099444986053 24.908830352312357 6.4642964348795431 0 -0.64278761758704617 -0.76604443648966558 1.5 0 0 1 I I -0.70710678118654724 0.70710678118654768 1.5 forward I I I I #
loop $-1 $-1 $78 $19 #
coedge $-1 $48 $48 $79 $80 reversed $30 $-1 #
face $-1 $81 $82 $12 $-1 $83 reversed single #
loop $-1 $-1 $84 $32 #
plane-surface $-1 0 -33.740044431585652 0 0 1 0 0 0 1 forward_v I I I I #
coedge $-1 $85 $86 $87 $88 forward $33 $-1 #
coedge $-1 $89 $35 $90 $91 forward $21 $-1 #
coedge $-1 $35 $89 $92 $93 forward $21 $-1 #
coedge $-1 $94 $95 $35 $56 reversed $96 $-1 #
edge $-1 $97 -33.740044431585652 $98 33.740044431585652 $55 $99 forward 7 unknown #
face $-1 $100 $101 $13 $-1 $102 reversed single #
loop $-1 $-1 $103 $36 #
plane-surface $-1 -69.22524182951156 0 -5.0756768403269774 1 0 0 0 0 -1 forward_v I I I I #
coedge $-1 $104 $105 $106 $107 reversed $37 $-1 #
coedge $-1 $108 $39 $109 $110 forward $24 $-1 #
coedge $-1 $39 $108 $111 $112 forward $24 $-1 #
coedge $-1 $113 $114 $39 $64 forward $115 $-1 #
edge $-1 $116 -33.740044431585652 $117 33.740044431585652 $63 $118 forward 7 unknown #
face $-1 $119 $120 $14 $-1 $121 forward single #
loop $-1 $-1 $122 $40 #
plane-surface $-1 11.692804722986939 57.451599550713105 138.89062931898181 -1 0 0 0 0.64278761758704617 0.76604443648966558 forward_v I I I I #
coedge $-1 $123 $124 $125 $126 reversed $41 $-1 #
coedge $-1 $70 $43 $124 $127 forward $27 $-1 #
coedge $-1 $43 $69 $128 $129 reversed $27 $-1 #
coedge $-1 $130 $125 $43 $72 forward $120 $-1 #
edge $-1 $131 -6.1505299420127493 $132 5.0142446562290992 $71 $133 forward 7 unknown #
face $-1 $134 $135 $15 $-1 $136 forward single #
loop $-1 $-1 $137 $44 #
plane-surface $-1 -20.167424611984149 57.451599550713105 138.89062931898181 1 0 0 0 -0.64278761758704617 -0.76604443648966558 forward_v I I I I #
loop $-1 $-1 $138 $29 #
coedge $-1 $77 $77 $78 $139 forward $45 $-1 #
coedge $-1 $78 $78 $77 $139 reversed $47 $-1 #
coedge $-1 $79 $79 $48 $80 forward $135 $-1 #
edge $-1 $140 2.0325485510018195e-016 $140 6.2831853071796004 $79 $141 forward 7 unknown #
face $-1 $142 $143 $12 $-1 $144 reversed single #
loop $-1 $-1 $145 $49 #
plane-surface $-1 -58.654133732108519 0 0 1 0 0 0 0 -1 forward_v I I I I #
coedge $-1 $146 $92 $147 $148 forward $50 $-1 #
coedge $-1 $149 $52 $146 $150 forward $33 $-1 #
coedge $-1 $52 $149 $151 $152 forward $33 $-1 #
coedge $-1 $95 $94 $52 $88 reversed $96 $-1 #
edge $-1 $153 -33.740044431585652 $154 33.740044431585652 $87 $155 forward 7 unknown #
coedge $-1 $54 $53 $156 $157 forward $21 $-1 #
coedge $-1 $158 $159 $53 $91 reversed $143 $-1 #
edge $-1 $98 -58.654133732108519 $160 58.654133732108519 $90 $161 forward 7 unknown #
coedge $-1 $84 $162 $54 $93 reversed $50 $-1 #
edge $-1 $163 -58.654133732108519 $97 58.654133732108519 $92 $164 forward 7 unknown #
coedge $-1 $87 $55 $162 $165 forward $96 $-1 #
coedge $-1 $55 $87 $158 $166 reversed $96 $-1 #
loop $-1 $-1 $94 $142 #
vertex $-1 $56 $167 #
vertex $-1 $56 $168 #
straight-curve $-1 58.654133732108519 0 15.020276562638724 0 1 0 I I #
face $-1 $169 $115 $13 $-1 $102 reversed single #
loop $-1 $-1 $106 $57 #
plane-surface $-1 -58.654133732108519 0 0 1 0 0 0 0 -1 forward_v I I I I #
coedge $-1 $170 $171 $172 $173 forward $58 $-1 #
coedge $-1 $174 $60 $175 $176 forward $37 $-1 #
coedge $-1 $60 $174 $177 $178 forward $37 $-1 #
coedge $-1 $179 $180 $60 $107 forward $101 $-1 #
edge $-1 $181 -33.740044431585652 $182 33.740044431585652 $106 $183 forward 7 unknown #
coedge $-1 $62 $61 $171 $184 forward $24 $-1 #
coedge $-1 $185 $172 $61 $110 reversed $186 $-1 #
edge $-1 $116 -5.2855540487015205 $187 5.2855540487015205 $109 $188 forward 7 unknown #
coedge $-1 $189 $190 $62 $112 reversed $191 $-1 #
edge $-1 $192 -5.2855540487015205 $117 5.2855540487015205 $111 $193 forward 7 unknown #
coedge $-1 $194 $63 $190 $195 reversed $115 $-1 #
coedge $-1 $63 $194 $185 $196 forward $115 $-1 #
loop $-1 $-1 $63 $100 #
vertex $-1 $196 $197 #
vertex $-1 $112 $198 #
straight-curve $-1 -58.654133732108519 0 -2.7463352663944027 0 -1 0 I I #
face $-1 $199 $200 $14 $-1 $201 forward single #
loop $-1 $-1 $202 $65 #
plane-surface $-1 0 0 15.020276562638724 0 0 1 1 0 0 forward_v I I I I #
coedge $-1 $203 $204 $202 $205 reversed $66 $-1 #
coedge $-1 $206 $68 $204 $207 reversed $41 $-1 #
coedge $-1 $68 $206 $69 $127 reversed $41 $-1 #
coedge $-1 $71 $202 $68 $126 forward $120 $-1 #
edge $-1 $208 -13.811459695236241 $131 18.048769639734846 $125 $209 forward 7 unknown #
edge $-1 $131 52.905510592746822 $210 67.480088863171304 $69 $211 forward 7 unknown #
coedge $-1 $212 $213 $70 $129 forward $214 $-1 #
edge $-1 $132 54.425038096852177 $210 63.793396540634262 $128 $215 forward 7 unknown #
coedge $-1 $216 $71 $213 $217 forward $120 $-1 #
vertex $-1 $126 $218 #
vertex $-1 $217 $219 #
straight-curve $-1 -20.167424611984149 28.725799775356553 15.020276562638728 0 1 0 I I #
face $-1 $220 $221 $15 $-1 $222 forward single #
loop $-1 $223 $79 $73 #
plane-surface $-1 -4.2373099444986053 -17.952702215874972 49.027283673776694 0 0.64278761758704617 0.76604443648966558 1 0 0 forward_v I I I I #
coedge $-1 $224 $225 $226 $227 reversed $74 $-1 #
coedge $-1 $138 $138 $-1 $228 forward $76 $-1 #
edge $-1 $229 0 $229 6.2831853071796004 $77 $230 forward 7 unknown #
vertex $-1 $80 $231 #
ellipse-curve $-1 -4.2373099444986053 28.157657132464728 10.336097340747694 0 -0.64278761758704617 -0.76604443648966558 3 0 0 1 I I #
face $-1 $-1 $96 $12 $-1 $232 reversed single #
loop $-1 $-1 $158 $81 #
plane-surface $-1 0 33.740044431585652 0 0 -1 0 0 0 -1 forward_v I I I I #
coedge $-1 $233 $156 $159 $234 forward $82 $-1 #
coedge $-1 $162 $84 $85 $150 reversed $50 $-1 #
coedge $-1 $156 $233 $84 $148 reversed $82 $-1 #
edge $-1 $163 -15.020276562638724 $235 15.020276562638724 $147 $236 forward 7 unknown #
coedge $-1 $86 $85 $233 $237 forward $33 $-1 #
edge $-1 $154 -58.654133732108519 $235 58.654133732108519 $146 $238 forward 7 unknown #
coedge $-1 $159 $158 $86 $152 reversed $143 $-1 #
edge $-1 $239 -58.654133732108519 $153 58.654133732108519 $151 $240 forward 7 unknown #
vertex $-1 $88 $241 #
vertex $-1 $165 $242 #
straight-curve $-1 58.654133732108519 0 -15.020276562638724 0 -1 0 I I #
coedge $-1 $145 $147 $89 $157 reversed $82 $-1 #
edge $-1 $160 -33.740044431585652 $163 33.740044431585652 $156 $243 forward 7 unknown #
coedge $-1 $151 $90 $95 $166 forward $143 $-1 #
coedge $-1 $90 $151 $145 $234 reversed $143 $-1 #
vertex $-1 $91 $244 #
straight-curve $-1 0 33.740044431585652 15.020276562638724 -1 0 0 I I #
coedge $-1 $92 $146 $94 $165 reversed $50 $-1 #
vertex $-1 $157 $245 #
straight-curve $-1 0 -33.740044431585652 15.020276562638724 1 0 0 I I #
edge $-1 $97 -15.020276562638724 $154 15.020276562638724 $94 $246 forward 7 unknown #
edge $-1 $98 -15.020276562638724 $153 15.020276562638724 $95 $247 forward 7 unknown #
point $-1 58.654133732108519 -33.740044431585652 15.020276562638724 #
point $-1 58.654133732108519 33.740044431585652 15.020276562638724 #
face $-1 $248 $249 $13 $-1 $250 forward single #
coedge $-1 $251 $103 $174 $252 reversed $58 $-1 #
coedge $-1 $103 $251 $108 $184 reversed $58 $-1 #
coedge $-1 $109 $177 $103 $173 reversed $186 $-1 #
edge $-1 $187 -2.3293415739325747 $253 2.3293415739325747 $172 $254 forward 7 unknown #
coedge $-1 $105 $104 $170 $252 forward $37 $-1 #
coedge $-1 $255 $189 $104 $176 reversed $191 $-1 #
edge $-1 $181 -5.2855540487015205 $256 5.2855540487015205 $175 $257 forward 7 unknown #
coedge $-1 $172 $258 $105 $178 reversed $186 $-1 #
edge $-1 $253 -5.2855540487015205 $182 5.2855540487015205 $177 $259 forward 7 unknown #
coedge $-1 $260 $106 $258 $261 forward $101 $-1 #
coedge $-1 $106 $260 $255 $262 reversed $101 $-1 #
vertex $-1 $262 $263 #
vertex $-1 $261 $264 #
straight-curve $-1 -58.654133732108519 0 -7.4050184142595521 0 1 0 I I #
edge $-1 $187 -33.740044431585652 $192 33.740044431585652 $171 $265 forward 7 unknown #
coedge $-1 $266 $109 $114 $196 reversed $186 $-1 #
loop $-1 $-1 $267 $268 #
vertex $-1 $110 $269 #
straight-curve $-1 -63.93968778081004 33.740044431585652 -2.7463352663944027 -1 0 0 I I #
coedge $-1 $175 $111 $251 $270 forward $191 $-1 #
coedge $-1 $111 $271 $113 $195 forward $191 $-1 #
loop $-1 $-1 $190 $272 #
vertex $-1 $184 $273 #
straight-curve $-1 -63.93968778081004 -33.740044431585652 -2.7463352663944027 1 0 0 I I #
coedge $-1 $114 $113 $274 $275 reversed $115 $-1 #
edge $-1 $276 -15.020276562638724 $117 2.7463352663944027 $113 $277 forward 7 unknown #
edge $-1 $278 -15.020276562638724 $116 2.7463352663944027 $185 $279 forward 7 unknown #
point $-1 -58.654133732108519 33.740044431585652 -2.7463352663944027 #
point $-1 -58.654133732108519 -33.740044431585652 -2.7463352663944027 #
face $-1 $280 $281 $14 $-1 $282 reversed single #
loop $-1 $-1 $283 $119 #
plane-surface $-1 -63.93968778081004 0 -2.7463352663944027 0 0 1 1 0 0 forward_v I I I I #
coedge $-1 $125 $284 $122 $205 forward $120 $-1 #
coedge $-1 $204 $122 $285 $286 reversed $66 $-1 #
coedge $-1 $122 $203 $123 $207 forward $66 $-1 #
edge $-1 $287 -5.0142446562290992 $208 6.1505299420127493 $202 $288 forward 7 unknown #
coedge $-1 $124 $123 $212 $289 reversed $41 $-1 #
edge $-1 $290 -67.480088863171304 $208 -52.905510592746822 $204 $291 forward 7 unknown #
vertex $-1 $126 $292 #
straight-curve $-1 -2.1186549722493027 22.575269833343803 15.020276562638728 -1 0 0 I I #
vertex $-1 $289 $293 #
straight-curve $-1 -20.167424611984149 -17.952702215874972 49.027283673776694 0 0.76604443648966558 -0.64278761758704617 I I #
coedge $-1 $285 $128 $206 $289 forward $214 $-1 #
coedge $-1 $128 $294 $130 $217 reversed $214 $-1 #
loop $-1 $-1 $285 $295 #
straight-curve $-1 -20.167424611984149 33.740044431585652 69.445314659490904 0 0 -1 I I #
coedge $-1 $296 $130 $297 $298 forward $120 $-1 #
edge $-1 $132 20.167424611984149 $299 58.654133732108519 $213 $300 forward 7 unknown #
point $-1 -20.167424611984149 22.575269833343803 15.020276562638728 #
point $-1 -20.167424611984149 33.740044431585652 15.020276562638724 #
face $-1 $301 $302 $15 $-1 $303 forward single #
loop $-1 $-1 $304 $134 #
plane-surface $-1 11.692804722986939 57.451599550713105 138.89062931898181 -1 0 0 0 0.64278761758704617 0.76604443648966558 forward_v I I I I #
loop $-1 $-1 $305 $73 #
coedge $-1 $225 $137 $306 $307 forward $74 $-1 #
coedge $-1 $137 $224 $308 $309 reversed $74 $-1 #
coedge $-1 $310 $311 $137 $227 forward $302 $-1 #
edge $-1 $312 -6.1505299420127493 $313 5.0142446562290992 $226 $314 forward 7 unknown #
edge $-1 $315 1 $315 0 $138 $-1 forward 7 unknown #
vertex $-1 $139 $316 #
ellipse-curve $-1 -4.2373099444986053 25.873011778692927 7.6133630896140421 0 0.64278761758704617 0.76604443648966558 3 0 0 1 I I #
point $-1 -1.2373099444986053 28.157657132464713 10.336097340747678 #
plane-surface $-1 58.654133732108519 0 0 -1 0 0 0 0 1 forward_v I I I I #
coedge $-1 $147 $145 $149 $237 reversed $82 $-1 #
edge $-1 $160 -15.020276562638724 $239 15.020276562638724 $159 $317 forward 7 unknown #
vertex $-1 $237 $318 #
straight-curve $-1 -58.654133732108519 -33.740044431585652 0 0 0 -1 I I #
edge $-1 $235 -33.740044431585652 $239 33.740044431585652 $233 $319 forward 7 unknown #
straight-curve $-1 0 -33.740044431585652 -15.020276562638724 -1 0 0 I I #
vertex $-1 $152 $320 #
straight-curve $-1 0 33.740044431585652 -15.020276562638724 1 0 0 I I #
point $-1 58.654133732108519 33.740044431585652 -15.020276562638724 #
point $-1 58.654133732108519 -33.740044431585652 -15.020276562638724 #
straight-curve $-1 -58.654133732108519 0 15.020276562638724 0 -1 0 I I #
point $-1 -58.654133732108519 33.740044431585652 15.020276562638724 #
point $-1 -58.654133732108519 -33.740044431585652 15.020276562638724 #
straight-curve $-1 58.654133732108519 -33.740044431585652 0 0 0 -1 I I #
straight-curve $-1 58.654133732108519 33.740044431585652 0 0 0 -1 I I #
face $-1 $272 $321 $13 $-1 $322 reversed single #
loop $-1 $-1 $323 $169 #
plane-surface $-1 0 0 15.020276562638724 0 0 1 1 0 0 forward_v I I I I #
coedge $-1 $171 $170 $189 $270 reversed $58 $-1 #
edge $-1 $256 -33.740044431585652 $253 33.740044431585652 $170 $324 forward 7 unknown #
vertex $-1 $178 $325 #
straight-curve $-1 -69.22524182951156 33.740044431585652 -5.0756768403269774 0 0 -1 I I #
coedge $-1 $326 $175 $180 $262 forward $191 $-1 #
vertex $-1 $252 $327 #
straight-curve $-1 -63.93968778081004 -33.740044431585652 -7.4050184142595521 -1 0 0 I I #
coedge $-1 $177 $328 $179 $261 reversed $186 $-1 #
straight-curve $-1 -63.93968778081004 33.740044431585652 -7.4050184142595521 1 0 0 I I #
coedge $-1 $180 $179 $329 $330 reversed $101 $-1 #
edge $-1 $182 7.4050184142595521 $331 15.020276562638724 $258 $279 forward 7 unknown #
edge $-1 $181 7.4050184142595521 $332 15.020276562638724 $180 $277 forward 7 unknown #
point $-1 -58.654133732108519 -33.740044431585652 -7.4050184142595521 #
point $-1 -58.654133732108519 33.740044431585652 -7.4050184142595521 #
straight-curve $-1 -69.22524182951156 0 -2.7463352663944027 0 -1 0 I I #
coedge $-1 $267 $185 $333 $334 reversed $186 $-1 #
coedge $-1 $328 $266 $335 $336 forward $186 $-1 #
face $-1 $337 $186 $13 $-1 $338 reversed single #
point $-1 -69.22524182951156 33.740044431585652 -2.7463352663944027 #
edge $-1 $192 -2.3293415739325747 $256 2.3293415739325747 $251 $339 forward 7 unknown #
coedge $-1 $190 $340 $341 $342 reversed $191 $-1 #
face $-1 $268 $191 $13 $-1 $343 reversed single #
point $-1 -69.22524182951156 -33.740044431585652 -2.7463352663944027 #
coedge $-1 $341 $333 $194 $275 forward $249 $-1 #
edge $-1 $278 -33.740044431585652 $276 33.740044431585652 $194 $344 forward 7 unknown #
vertex $-1 $275 $345 #
straight-curve $-1 -58.654133732108519 -33.740044431585652 0 0 0 -1 I I #
vertex $-1 $334 $346 #
straight-curve $-1 -58.654133732108519 33.740044431585652 0 0 0 -1 I I #
face $-1 $347 $348 $14 $-1 $349 reversed single #
loop $-1 $-1 $350 $199 #
plane-surface $-1 -63.93968778081004 0 -7.4050184142595521 0 0 1 1 0 0 forward_v I I I I #
coedge $-1 $351 $352 $353 $354 reversed $200 $-1 #
coedge $-1 $202 $355 $356 $357 forward $120 $-1 #
coedge $-1 $356 $212 $203 $286 forward $214 $-1 #
edge $-1 $290 -63.793396540634262 $287 -54.425038096852177 $285 $358 forward 7 unknown #
vertex $-1 $286 $359 #
straight-curve $-1 11.692804722986939 28.725799775356553 15.020276562638728 0 -1 0 I I #
edge $-1 $210 -18.048769639734846 $290 13.811459695236241 $212 $360 forward 7 unknown #
vertex $-1 $289 $361 #
straight-curve $-1 11.692804722986939 -17.952702215874972 49.027283673776694 0 -0.76604443648966558 0.64278761758704617 I I #
point $-1 11.692804722986939 22.575269833343803 15.020276562638728 #
point $-1 -20.167424611984149 33.740044431585645 5.6519181188566421 #
coedge $-1 $213 $362 $363 $364 reversed $214 $-1 #
face $-1 $365 $214 $14 $-1 $366 reversed single #
coedge $-1 $355 $216 $367 $368 forward $120 $-1 #
coedge $-1 $363 $369 $216 $298 reversed $370 $-1 #
edge $-1 $299 -33.740044431585652 $371 33.740044431585652 $297 $372 forward 7 unknown #
vertex $-1 $217 $373 #
straight-curve $-1 0 33.740044431585652 15.020276562638724 -1 0 0 I I #
face $-1 $374 $375 $15 $-1 $376 forward single #
loop $-1 $-1 $377 $220 #
plane-surface $-1 0 0 15.020276562638724 0 0 1 1 0 0 forward_v I I I I #
coedge $-1 $378 $379 $377 $380 reversed $221 $-1 #
coedge $-1 $381 $306 $311 $382 reversed $223 $-1 #
coedge $-1 $305 $383 $224 $307 reversed $223 $-1 #
edge $-1 $312 52.905510592746822 $384 67.480088863171304 $224 $385 forward 7 unknown #
coedge $-1 $386 $387 $225 $309 forward $388 $-1 #
edge $-1 $313 54.425038096852177 $384 63.793396540634262 $308 $389 forward 7 unknown #
coedge $-1 $390 $226 $387 $391 forward $302 $-1 #
coedge $-1 $226 $377 $305 $382 forward $302 $-1 #
vertex $-1 $382 $392 #
vertex $-1 $391 $393 #
straight-curve $-1 -20.167424611984149 28.725799775356553 15.020276562638728 0 1 0 I I #
vertex $-1 $228 $394 #
point $-1 -1.2373099444986053 25.873011778692927 7.6133630896140421 #
straight-curve $-1 -58.654133732108519 33.740044431585652 0 0 0 -1 I I #
point $-1 -58.654133732108519 -33.740044431585652 -15.020276562638724 #
straight-curve $-1 -58.654133732108519 0 -15.020276562638724 0 1 0 I I #
point $-1 -58.654133732108519 33.740044431585652 -15.020276562638724 #
loop $-1 $-1 $395 $248 #
plane-surface $-1 0 0 -15.020276562638724 0 0 1 1 0 0 forward_v I I I I #
coedge $-1 $333 $341 $396 $397 forward $249 $-1 #
straight-curve $-1 -69.22524182951156 0 -7.4050184142595521 0 1 0 I I #
point $-1 -69.22524182951156 33.740044431585652 -7.4050184142595521 #
coedge $-1 $340 $255 $398 $399 reversed $191 $-1 #
point $-1 -69.22524182951156 -33.740044431585652 -7.4050184142595521 #
coedge $-1 $258 $267 $400 $401 reversed $186 $-1 #
coedge $-1 $400 $398 $260 $330 forward $321 $-1 #
edge $-1 $332 -33.740044431585652 $331 33.740044431585652 $260 $402 forward 7 unknown #
vertex $-1 $401 $403 #
vertex $-1 $330 $404 #
coedge $-1 $274 $323 $266 $334 forward $249 $-1 #
edge $-1 $405 -58.654133732108519 $278 58.654133732108519 $266 $406 forward 7 unknown #
coedge $-1 $396 $407 $267 $336 reversed $408 $-1 #
edge $-1 $405 -15.020276562638724 $409 15.020276562638724 $335 $410 forward 7 unknown #
face $-1 $-1 $408 $13 $-1 $411 reversed single #
plane-surface $-1 0 33.740044431585652 0 0 -1 0 0 0 -1 forward_v I I I I #
straight-curve $-1 -69.22524182951156 -33.740044431585652 -5.0756768403269774 0 0 -1 I I #
coedge $-1 $271 $326 $412 $413 reversed $191 $-1 #
coedge $-1 $323 $274 $271 $342 forward $249 $-1 #
edge $-1 $276 -58.654133732108519 $414 58.654133732108519 $271 $415 forward 7 unknown #
plane-surface $-1 0 -33.740044431585652 0 0 1 0 0 0 1 forward_v I I I I #
straight-curve $-1 -58.654133732108519 0 15.020276562638724 0 -1 0 I I #
point $-1 -58.654133732108519 -33.740044431585652 15.020276562638724 #
point $-1 -58.654133732108519 33.740044431585652 15.020276562638724 #
face $-1 $416 $417 $14 $-1 $418 reversed single #
loop $-1 $-1 $419 $280 #
plane-surface $-1 -69.22524182951156 0 -5.0756768403269774 1 0 0 0 0 -1 forward_v I I I I #
coedge $-1 $420 $421 $422 $423 reversed $281 $-1 #
coedge $-1 $424 $283 $362 $425 forward $200 $-1 #
coedge $-1 $283 $424 $426 $427 forward $200 $-1 #
coedge $-1 $369 $363 $283 $354 forward $370 $-1 #
edge $-1 $428 -33.740044431585652 $429 33.740044431585652 $353 $430 forward 7 unknown #
coedge $-1 $284 $296 $431 $432 forward $120 $-1 #
coedge $-1 $433 $285 $284 $357 reversed $214 $-1 #
edge $-1 $434 -58.654133732108519 $287 -11.692804722986939 $356 $300 forward 7 unknown #
straight-curve $-1 11.692804722986939 33.740044431585652 69.445314659490904 0 0 1 I I #
point $-1 11.692804722986939 33.740044431585652 15.020276562638724 #
straight-curve $-1 -2.1186549722493027 33.740044431585645 5.6519181188566456 1 0 0 I I #
point $-1 11.692804722986939 33.740044431585645 5.6519181188566421 #
coedge $-1 $294 $435 $351 $425 reversed $214 $-1 #
coedge $-1 $353 $297 $294 $364 forward $370 $-1 #
edge $-1 $299 -15.020276562638724 $428 2.7463352663944027 $294 $436 forward 7 unknown #
face $-1 $-1 $437 $14 $-1 $438 reversed single #
plane-surface $-1 0 33.740044431585652 0 0 -1 0 0 0 -1 forward_v I I I I #
coedge $-1 $439 $440 $296 $368 reversed $441 $-1 #
edge $-1 $371 -58.654133732108519 $442 58.654133732108519 $367 $443 forward 7 unknown #
coedge $-1 $297 $353 $439 $444 reversed $370 $-1 #
loop $-1 $-1 $353 $416 #
vertex $-1 $298 $445 #
straight-curve $-1 -58.654133732108519 0 15.020276562638724 0 -1 0 I I #
point $-1 -58.654133732108519 33.740044431585652 15.020276562638724 #
face $-1 $446 $447 $15 $-1 $448 reversed single #
loop $-1 $-1 $449 $301 #
plane-surface $-1 -63.93968778081004 0 -2.7463352663944027 0 0 1 1 0 0 forward_v I I I I #
coedge $-1 $311 $450 $304 $380 forward $302 $-1 #
coedge $-1 $379 $304 $451 $452 reversed $221 $-1 #
coedge $-1 $304 $378 $381 $453 forward $221 $-1 #
edge $-1 $454 -5.0142446562290992 $455 6.1505299420127493 $377 $456 forward 7 unknown #
coedge $-1 $383 $305 $379 $453 reversed $223 $-1 #
edge $-1 $455 -13.811459695236241 $312 18.048769639734846 $311 $457 forward 7 unknown #
coedge $-1 $306 $381 $386 $458 reversed $223 $-1 #
vertex $-1 $458 $459 #
straight-curve $-1 -20.167424611984149 -17.952702215874972 49.027283673776694 0 0.76604443648966558 -0.64278761758704617 I I #
coedge $-1 $451 $308 $383 $458 forward $388 $-1 #
coedge $-1 $308 $460 $310 $391 reversed $388 $-1 #
loop $-1 $-1 $451 $461 #
straight-curve $-1 -20.167424611984149 33.740044431585652 69.445314659490904 0 0 -1 I I #
coedge $-1 $462 $310 $463 $464 forward $302 $-1 #
edge $-1 $313 20.167424611984149 $465 58.654133732108519 $387 $466 forward 7 unknown #
point $-1 -20.167424611984149 22.575269833343803 15.020276562638728 #
point $-1 -20.167424611984149 33.740044431585652 15.020276562638724 #
point $-1 -4.2373099444986053 23.944648925931787 5.3152297801450441 #
coedge $-1 $398 $400 $407 $467 forward $321 $-1 #
coedge $-1 $412 $335 $323 $397 reversed $408 $-1 #
edge $-1 $414 -33.740044431585652 $405 33.740044431585652 $396 $468 forward 7 unknown #
coedge $-1 $329 $395 $326 $399 forward $321 $-1 #
edge $-1 $469 -58.654133732108519 $332 58.654133732108519 $326 $470 forward 7 unknown #
coedge $-1 $395 $329 $328 $401 forward $321 $-1 #
edge $-1 $331 -58.654133732108519 $409 58.654133732108519 $328 $471 forward 7 unknown #
straight-curve $-1 -58.654133732108519 0 -15.020276562638724 0 1 0 I I #
point $-1 -58.654133732108519 33.740044431585652 -15.020276562638724 #
point $-1 -58.654133732108519 -33.740044431585652 -15.020276562638724 #
vertex $-1 $397 $472 #
straight-curve $-1 0 33.740044431585652 15.020276562638724 -1 0 0 I I #
coedge $-1 $335 $412 $395 $467 reversed $408 $-1 #
loop $-1 $-1 $412 $337 #
vertex $-1 $467 $473 #
straight-curve $-1 58.654133732108519 33.740044431585652 0 0 0 -1 I I #
plane-surface $-1 58.654133732108519 0 0 -1 0 0 0 0 1 forward_v I I I I #
coedge $-1 $407 $396 $340 $413 forward $408 $-1 #
edge $-1 $414 -15.020276562638724 $469 15.020276562638724 $412 $474 forward 7 unknown #
vertex $-1 $397 $475 #
straight-curve $-1 0 -33.740044431585652 15.020276562638724 1 0 0 I I #
face $-1 $476 $370 $14 $-1 $418 reversed single #
loop $-1 $-1 $422 $347 #
plane-surface $-1 -58.654133732108519 0 0 1 0 0 0 0 -1 forward_v I I I I #
coedge $-1 $477 $478 $435 $479 forward $348 $-1 #
coedge $-1 $480 $350 $481 $482 forward $281 $-1 #
coedge $-1 $350 $480 $483 $484 forward $281 $-1 #
coedge $-1 $485 $486 $350 $423 forward $417 $-1 #
edge $-1 $487 -33.740044431585652 $488 33.740044431585652 $422 $489 forward 7 unknown #
coedge $-1 $352 $351 $478 $490 forward $200 $-1 #
edge $-1 $428 -5.2855540487015205 $491 5.2855540487015205 $362 $492 forward 7 unknown #
coedge $-1 $493 $439 $352 $427 reversed $441 $-1 #
edge $-1 $494 -5.2855540487015205 $429 5.2855540487015205 $426 $495 forward 7 unknown #
vertex $-1 $364 $496 #
vertex $-1 $427 $497 #
straight-curve $-1 -58.654133732108519 0 -2.7463352663944027 0 -1 0 I I #
coedge $-1 $498 $499 $355 $432 reversed $437 $-1 #
edge $-1 $442 -33.740044431585652 $434 33.740044431585652 $431 $500 forward 7 unknown #
coedge $-1 $501 $356 $499 $502 forward $214 $-1 #
vertex $-1 $432 $503 #
coedge $-1 $362 $483 $419 $479 reversed $214 $-1 #
straight-curve $-1 -58.654133732108519 33.740044431585652 0 0 0 -1 I I #
loop $-1 $-1 $498 $365 #
plane-surface $-1 58.654133732108519 0 0 -1 0 0 0 0 1 forward_v I I I I #
coedge $-1 $426 $367 $369 $444 forward $441 $-1 #
coedge $-1 $367 $504 $498 $505 reversed $441 $-1 #
loop $-1 $-1 $439 $506 #
vertex $-1 $432 $507 #
straight-curve $-1 0 -33.740044431585652 15.020276562638724 1 0 0 I I #
edge $-1 $371 -15.020276562638724 $429 2.7463352663944027 $369 $508 forward 7 unknown #
point $-1 -58.654133732108519 -33.740044431585652 15.020276562638724 #
face $-1 $509 $510 $15 $-1 $511 reversed single #
loop $-1 $-1 $512 $374 #
plane-surface $-1 -63.93968778081004 0 -7.4050184142595521 0 0 1 1 0 0 forward_v I I I I #
coedge $-1 $513 $514 $515 $516 reversed $375 $-1 #
coedge $-1 $377 $517 $518 $519 forward $302 $-1 #
coedge $-1 $518 $386 $378 $452 forward $388 $-1 #
edge $-1 $520 -63.793396540634262 $454 -54.425038096852177 $451 $521 forward 7 unknown #
edge $-1 $520 -67.480088863171304 $455 -52.905510592746822 $379 $522 forward 7 unknown #
vertex $-1 $452 $523 #
vertex $-1 $382 $524 #
straight-curve $-1 11.692804722986939 28.725799775356553 15.020276562638728 0 -1 0 I I #
straight-curve $-1 -2.1186549722493027 22.575269833343803 15.020276562638728 -1 0 0 I I #
edge $-1 $384 -18.048769639734846 $520 13.811459695236241 $386 $525 forward 7 unknown #
point $-1 -20.167424611984149 33.740044431585645 5.6519181188566421 #
coedge $-1 $387 $526 $527 $528 reversed $388 $-1 #
face $-1 $529 $388 $15 $-1 $530 reversed single #
coedge $-1 $517 $390 $531 $532 forward $302 $-1 #
coedge $-1 $527 $533 $390 $464 reversed $534 $-1 #
edge $-1 $465 -33.740044431585652 $535 33.740044431585652 $463 $536 forward 7 unknown #
vertex $-1 $391 $537 #
straight-curve $-1 0 33.740044431585652 15.020276562638724 -1 0 0 I I #
edge $-1 $409 -33.740044431585652 $469 33.740044431585652 $407 $538 forward 7 unknown #
straight-curve $-1 58.654133732108519 0 15.020276562638724 0 1 0 I I #
vertex $-1 $413 $539 #
straight-curve $-1 0 -33.740044431585652 -15.020276562638724 -1 0 0 I I #
straight-curve $-1 0 33.740044431585652 -15.020276562638724 1 0 0 I I #
point $-1 58.654133732108519 33.740044431585652 15.020276562638724 #
point $-1 58.654133732108519 33.740044431585652 -15.020276562638724 #
straight-curve $-1 58.654133732108519 -33.740044431585652 0 0 0 -1 I I #
point $-1 58.654133732108519 -33.740044431585652 15.020276562638724 #
face $-1 $506 $540 $14 $-1 $541 reversed single #
coedge $-1 $542 $419 $480 $543 reversed $348 $-1 #
coedge $-1 $419 $542 $424 $490 reversed $348 $-1 #
edge $-1 $491 -2.3293415739325747 $544 2.3293415739325747 $435 $545 forward 7 unknown #
coedge $-1 $421 $420 $477 $543 forward $281 $-1 #
coedge $-1 $546 $493 $420 $482 reversed $441 $-1 #
edge $-1 $487 -5.2855540487015205 $547 5.2855540487015205 $481 $548 forward 7 unknown #
coedge $-1 $435 $549 $421 $484 reversed $214 $-1 #
edge $-1 $544 -5.2855540487015205 $488 5.2855540487015205 $483 $550 forward 7 unknown #
coedge $-1 $551 $422 $549 $552 forward $417 $-1 #
coedge $-1 $422 $551 $546 $553 reversed $417 $-1 #
vertex $-1 $553 $554 #
vertex $-1 $552 $555 #
straight-curve $-1 -58.654133732108519 0 -7.4050184142595521 0 1 0 I I #
edge $-1 $491 -33.740044431585652 $494 33.740044431585652 $478 $556 forward 7 unknown #
vertex $-1 $425 $557 #
straight-curve $-1 -63.93968778081004 33.740044431585652 -2.7463352663944027 -1 0 0 I I #
coedge $-1 $481 $426 $542 $558 forward $441 $-1 #
vertex $-1 $490 $559 #
straight-curve $-1 -63.93968778081004 -33.740044431585652 -2.7463352663944027 1 0 0 I I #
point $-1 -58.654133732108519 33.740044431585652 -2.7463352663944027 #
point $-1 -58.654133732108519 -33.740044431585652 -2.7463352663944027 #
coedge $-1 $560 $431 $440 $505 forward $437 $-1 #
coedge $-1 $431 $560 $433 $502 reversed $437 $-1 #
straight-curve $-1 58.654133732108519 0 15.020276562638724 0 1 0 I I #
coedge $-1 $549 $433 $561 $562 reversed $214 $-1 #
edge $-1 $434 -15.020276562638724 $563 15.020276562638724 $499 $564 forward 7 unknown #
point $-1 58.654133732108519 33.740044431585652 15.020276562638724 #
coedge $-1 $440 $546 $565 $566 reversed $441 $-1 #
edge $-1 $442 -15.020276562638724 $567 15.020276562638724 $498 $568 forward 7 unknown #
face $-1 $295 $441 $14 $-1 $569 reversed single #
point $-1 58.654133732108519 -33.740044431585652 15.020276562638724 #
straight-curve $-1 -58.654133732108519 -33.740044431585652 0 0 0 -1 I I #
face $-1 $570 $571 $15 $-1 $572 reversed single #
loop $-1 $-1 $573 $446 #
plane-surface $-1 -69.22524182951156 0 -5.0756768403269774 1 0 0 0 0 -1 forward_v I I I I #
coedge $-1 $574 $575 $576 $577 reversed $447 $-1 #
coedge $-1 $578 $449 $526 $579 forward $375 $-1 #
coedge $-1 $449 $578 $580 $581 forward $375 $-1 #
coedge $-1 $533 $527 $449 $516 forward $534 $-1 #
edge $-1 $582 -33.740044431585652 $583 33.740044431585652 $515 $584 forward 7 unknown #
coedge $-1 $450 $462 $585 $586 forward $302 $-1 #
coedge $-1 $587 $451 $450 $519 reversed $388 $-1 #
edge $-1 $588 -58.654133732108519 $454 -11.692804722986939 $518 $466 forward 7 unknown #
vertex $-1 $458 $589 #
straight-curve $-1 11.692804722986939 33.740044431585652 69.445314659490904 0 0 1 I I #
straight-curve $-1 11.692804722986939 -17.952702215874972 49.027283673776694 0 -0.76604443648966558 0.64278761758704617 I I #
point $-1 11.692804722986939 33.740044431585652 15.020276562638724 #
point $-1 11.692804722986939 22.575269833343803 15.020276562638728 #
straight-curve $-1 -2.1186549722493027 33.740044431585645 5.6519181188566456 1 0 0 I I #
coedge $-1 $460 $590 $513 $579 reversed $388 $-1 #
coedge $-1 $515 $463 $460 $528 forward $534 $-1 #
edge $-1 $465 -15.020276562638724 $582 2.7463352663944027 $460 $591 forward 7 unknown #
face $-1 $-1 $592 $15 $-1 $593 reversed single #
plane-surface $-1 0 33.740044431585652 0 0 -1 0 0 0 -1 forward_v I I I I #
coedge $-1 $594 $595 $462 $532 reversed $596 $-1 #
edge $-1 $535 -58.654133732108519 $597 58.654133732108519 $531 $598 forward 7 unknown #
coedge $-1 $463 $515 $594 $599 reversed $534 $-1 #
loop $-1 $-1 $515 $570 #
vertex $-1 $464 $600 #
straight-curve $-1 -58.654133732108519 0 15.020276562638724 0 -1 0 I I #
point $-1 -58.654133732108519 33.740044431585652 15.020276562638724 #
straight-curve $-1 58.654133732108519 0 -15.020276562638724 0 -1 0 I I #
point $-1 58.654133732108519 -33.740044431585652 -15.020276562638724 #
loop $-1 $-1 $601 $476 #
plane-surface $-1 0 0 -15.020276562638724 0 0 1 1 0 0 forward_v I I I I #
coedge $-1 $478 $477 $493 $558 reversed $348 $-1 #
edge $-1 $547 -33.740044431585652 $544 33.740044431585652 $477 $602 forward 7 unknown #
vertex $-1 $484 $603 #
straight-curve $-1 -69.22524182951156 33.740044431585652 -5.0756768403269774 0 0 -1 I I #
coedge $-1 $504 $481 $486 $553 forward $441 $-1 #
vertex $-1 $543 $604 #
straight-curve $-1 -63.93968778081004 -33.740044431585652 -7.4050184142595521 -1 0 0 I I #
coedge $-1 $483 $501 $485 $552 reversed $214 $-1 #
straight-curve $-1 -63.93968778081004 33.740044431585652 -7.4050184142595521 1 0 0 I I #
coedge $-1 $486 $485 $605 $606 reversed $417 $-1 #
edge $-1 $488 7.4050184142595521 $607 15.020276562638724 $549 $436 forward 7 unknown #
edge $-1 $487 7.4050184142595521 $608 15.020276562638724 $486 $508 forward 7 unknown #
point $-1 -58.654133732108519 -33.740044431585652 -7.4050184142595521 #
point $-1 -58.654133732108519 33.740044431585652 -7.4050184142595521 #
straight-curve $-1 -69.22524182951156 0 -2.7463352663944027 0 -1 0 I I #
point $-1 -69.22524182951156 33.740044431585652 -2.7463352663944027 #
edge $-1 $494 -2.3293415739325747 $547 2.3293415739325747 $542 $609 forward 7 unknown #
point $-1 -69.22524182951156 -33.740044431585652 -2.7463352663944027 #
coedge $-1 $499 $498 $601 $610 reversed $437 $-1 #
coedge $-1 $601 $605 $501 $562 forward $540 $-1 #
edge $-1 $607 -58.654133732108519 $563 58.654133732108519 $501 $611 forward 7 unknown #
vertex $-1 $610 $612 #
straight-curve $-1 58.654133732108519 33.740044431585652 0 0 0 -1 I I #
coedge $-1 $605 $601 $504 $566 forward $540 $-1 #
edge $-1 $567 -58.654133732108519 $608 58.654133732108519 $504 $613 forward 7 unknown #
vertex $-1 $505 $614 #
straight-curve $-1 58.654133732108519 -33.740044431585652 0 0 0 -1 I I #
plane-surface $-1 0 -33.740044431585652 0 0 1 0 0 0 1 forward_v I I I I #
face $-1 $615 $534 $15 $-1 $572 reversed single #
loop $-1 $-1 $576 $509 #
plane-surface $-1 -58.654133732108519 0 0 1 0 0 0 0 -1 forward_v I I I I #
coedge $-1 $616 $617 $590 $618 forward $510 $-1 #
coedge $-1 $619 $512 $620 $621 forward $447 $-1 #
coedge $-1 $512 $619 $622 $623 forward $447 $-1 #
coedge $-1 $624 $625 $512 $577 forward $571 $-1 #
edge $-1 $626 -33.740044431585652 $627 33.740044431585652 $576 $628 forward 7 unknown #
coedge $-1 $514 $513 $617 $629 forward $375 $-1 #
edge $-1 $582 -5.2855540487015205 $630 5.2855540487015205 $526 $631 forward 7 unknown #
coedge $-1 $632 $594 $514 $581 reversed $596 $-1 #
edge $-1 $633 -5.2855540487015205 $583 5.2855540487015205 $580 $634 forward 7 unknown #
vertex $-1 $528 $635 #
vertex $-1 $581 $636 #
straight-curve $-1 -58.654133732108519 0 -2.7463352663944027 0 -1 0 I I #
coedge $-1 $637 $638 $517 $586 reversed $592 $-1 #
edge $-1 $597 -33.740044431585652 $588 33.740044431585652 $585 $639 forward 7 unknown #
coedge $-1 $640 $518 $638 $641 forward $388 $-1 #
vertex $-1 $586 $642 #
point $-1 11.692804722986939 33.740044431585645 5.6519181188566421 #
coedge $-1 $526 $622 $573 $618 reversed $388 $-1 #
straight-curve $-1 -58.654133732108519 33.740044431585652 0 0 0 -1 I I #
loop $-1 $-1 $637 $529 #
plane-surface $-1 58.654133732108519 0 0 -1 0 0 0 0 1 forward_v I I I I #
coedge $-1 $580 $531 $533 $599 forward $596 $-1 #
coedge $-1 $531 $643 $637 $644 reversed $596 $-1 #
loop $-1 $-1 $594 $645 #
vertex $-1 $586 $646 #
straight-curve $-1 0 -33.740044431585652 15.020276562638724 1 0 0 I I #
edge $-1 $535 -15.020276562638724 $583 2.7463352663944027 $533 $647 forward 7 unknown #
point $-1 -58.654133732108519 -33.740044431585652 15.020276562638724 #
coedge $-1 $565 $561 $560 $610 forward $540 $-1 #
straight-curve $-1 -69.22524182951156 0 -7.4050184142595521 0 1 0 I I #
point $-1 -69.22524182951156 33.740044431585652 -7.4050184142595521 #
point $-1 -69.22524182951156 -33.740044431585652 -7.4050184142595521 #
coedge $-1 $561 $565 $551 $606 forward $540 $-1 #
edge $-1 $608 -33.740044431585652 $607 33.740044431585652 $551 $648 forward 7 unknown #
vertex $-1 $562 $649 #
vertex $-1 $606 $650 #
straight-curve $-1 -69.22524182951156 -33.740044431585652 -5.0756768403269774 0 0 -1 I I #
edge $-1 $563 -33.740044431585652 $567 33.740044431585652 $560 $651 forward 7 unknown #
straight-curve $-1 0 33.740044431585652 -15.020276562638724 1 0 0 I I #
point $-1 58.654133732108519 33.740044431585652 -15.020276562638724 #
straight-curve $-1 0 -33.740044431585652 -15.020276562638724 -1 0 0 I I #
point $-1 58.654133732108519 -33.740044431585652 -15.020276562638724 #
face $-1 $645 $652 $15 $-1 $653 reversed single #
coedge $-1 $654 $573 $619 $655 reversed $510 $-1 #
coedge $-1 $573 $654 $578 $629 reversed $510 $-1 #
edge $-1 $630 -2.3293415739325747 $656 2.3293415739325747 $590 $657 forward 7 unknown #
coedge $-1 $575 $574 $616 $655 forward $447 $-1 #
coedge $-1 $658 $632 $574 $621 reversed $596 $-1 #
edge $-1 $626 -5.2855540487015205 $659 5.2855540487015205 $620 $660 forward 7 unknown #
coedge $-1 $590 $661 $575 $623 reversed $388 $-1 #
edge $-1 $656 -5.2855540487015205 $627 5.2855540487015205 $622 $662 forward 7 unknown #
coedge $-1 $663 $576 $661 $664 forward $571 $-1 #
coedge $-1 $576 $663 $658 $665 reversed $571 $-1 #
vertex $-1 $665 $666 #
vertex $-1 $664 $667 #
straight-curve $-1 -58.654133732108519 0 -7.4050184142595521 0 1 0 I I #
edge $-1 $630 -33.740044431585652 $633 33.740044431585652 $617 $668 forward 7 unknown #
vertex $-1 $579 $669 #
straight-curve $-1 -63.93968778081004 33.740044431585652 -2.7463352663944027 -1 0 0 I I #
coedge $-1 $620 $580 $654 $670 forward $596 $-1 #
vertex $-1 $629 $671 #
straight-curve $-1 -63.93968778081004 -33.740044431585652 -2.7463352663944027 1 0 0 I I #
point $-1 -58.654133732108519 33.740044431585652 -2.7463352663944027 #
point $-1 -58.654133732108519 -33.740044431585652 -2.7463352663944027 #
coedge $-1 $672 $585 $595 $644 forward $592 $-1 #
coedge $-1 $585 $672 $587 $641 reversed $592 $-1 #
straight-curve $-1 58.654133732108519 0 15.020276562638724 0 1 0 I I #
coedge $-1 $661 $587 $673 $674 reversed $388 $-1 #
edge $-1 $588 -15.020276562638724 $675 15.020276562638724 $638 $676 forward 7 unknown #
point $-1 58.654133732108519 33.740044431585652 15.020276562638724 #
coedge $-1 $595 $658 $677 $678 reversed $596 $-1 #
edge $-1 $597 -15.020276562638724 $679 15.020276562638724 $637 $680 forward 7 unknown #
face $-1 $461 $596 $15 $-1 $681 reversed single #
point $-1 58.654133732108519 -33.740044431585652 15.020276562638724 #
straight-curve $-1 -58.654133732108519 -33.740044431585652 0 0 0 -1 I I #
straight-curve $-1 -58.654133732108519 0 -15.020276562638724 0 1 0 I I #
point $-1 -58.654133732108519 33.740044431585652 -15.020276562638724 #
point $-1 -58.654133732108519 -33.740044431585652 -15.020276562638724 #
straight-curve $-1 58.654133732108519 0 -15.020276562638724 0 -1 0 I I #
loop $-1 $-1 $682 $615 #
plane-surface $-1 0 0 -15.020276562638724 0 0 1 1 0 0 forward_v I I I I #
coedge $-1 $617 $616 $632 $670 reversed $510 $-1 #
edge $-1 $659 -33.740044431585652 $656 33.740044431585652 $616 $683 forward 7 unknown #
vertex $-1 $623 $684 #
straight-curve $-1 -69.22524182951156 33.740044431585652 -5.0756768403269774 0 0 -1 I I #
coedge $-1 $643 $620 $625 $665 forward $596 $-1 #
vertex $-1 $655 $685 #
straight-curve $-1 -63.93968778081004 -33.740044431585652 -7.4050184142595521 -1 0 0 I I #
coedge $-1 $622 $640 $624 $664 reversed $388 $-1 #
straight-curve $-1 -63.93968778081004 33.740044431585652 -7.4050184142595521 1 0 0 I I #
coedge $-1 $625 $624 $686 $687 reversed $571 $-1 #
edge $-1 $627 7.4050184142595521 $688 15.020276562638724 $661 $591 forward 7 unknown #
edge $-1 $626 7.4050184142595521 $689 15.020276562638724 $625 $647 forward 7 unknown #
point $-1 -58.654133732108519 -33.740044431585652 -7.4050184142595521 #
point $-1 -58.654133732108519 33.740044431585652 -7.4050184142595521 #
straight-curve $-1 -69.22524182951156 0 -2.7463352663944027 0 -1 0 I I #
point $-1 -69.22524182951156 33.740044431585652 -2.7463352663944027 #
edge $-1 $633 -2.3293415739325747 $659 2.3293415739325747 $654 $690 forward 7 unknown #
point $-1 -69.22524182951156 -33.740044431585652 -2.7463352663944027 #
coedge $-1 $638 $637 $682 $691 reversed $592 $-1 #
coedge $-1 $682 $686 $640 $674 forward $652 $-1 #
edge $-1 $688 -58.654133732108519 $675 58.654133732108519 $640 $692 forward 7 unknown #
vertex $-1 $691 $693 #
straight-curve $-1 58.654133732108519 33.740044431585652 0 0 0 -1 I I #
coedge $-1 $686 $682 $643 $678 forward $652 $-1 #
edge $-1 $679 -58.654133732108519 $689 58.654133732108519 $643 $694 forward 7 unknown #
vertex $-1 $644 $695 #
straight-curve $-1 58.654133732108519 -33.740044431585652 0 0 0 -1 I I #
plane-surface $-1 0 -33.740044431585652 0 0 1 0 0 0 1 forward_v I I I I #
coedge $-1 $677 $673 $672 $691 forward $652 $-1 #
straight-curve $-1 -69.22524182951156 0 -7.4050184142595521 0 1 0 I I #
point $-1 -69.22524182951156 33.740044431585652 -7.4050184142595521 #
point $-1 -69.22524182951156 -33.740044431585652 -7.4050184142595521 #
coedge $-1 $673 $677 $663 $687 forward $652 $-1 #
edge $-1 $689 -33.740044431585652 $688 33.740044431585652 $663 $696 forward 7 unknown #
vertex $-1 $674 $697 #
vertex $-1 $687 $698 #
straight-curve $-1 -69.22524182951156 -33.740044431585652 -5.0756768403269774 0 0 -1 I I #
edge $-1 $675 -33.740044431585652 $679 33.740044431585652 $672 $699 forward 7 unknown #
straight-curve $-1 0 33.740044431585652 -15.020276562638724 1 0 0 I I #
point $-1 58.654133732108519 33.740044431585652 -15.020276562638724 #
straight-curve $-1 0 -33.740044431585652 -15.020276562638724 -1 0 0 I I #
point $-1 58.654133732108519 -33.740044431585652 -15.020276562638724 #
straight-curve $-1 -58.654133732108519 0 -15.020276562638724 0 1 0 I I #
point $-1 -58.654133732108519 33.740044431585652 -15.020276562638724 #
point $-1 -58.654133732108519 -33.740044431585652 -15.020276562638724 #
straight-curve $-1 58.654133732108519 0 -15.020276562638724 0 -1 0 I I #
End-of-ACIS-data 