500 0 4 0           
7 Unknown 11 ACIS 5.0 NT 24 Fri Mar 26 02:28:19 1999 
-1 9.9999999999999995e-007 1e-010 
body $-1 $4 $-1 $5 #
body $-1 $6 $-1 $7 #
body $-1 $8 $-1 $9 #
body $-1 $10 $-1 $11 #
lump $-1 $-1 $12 $0 #
transform $-1 1 0 0 0 1 0 0 0 1 73.56913968321787 42.324426870155087 17.066688660847351 1 rotate no_reflect no_shear #
lump $-1 $-1 $13 $1 #
transform $-1 1 0 0 0 1 0 0 0 1 73.56913968321787 42.324426870155087 17.066688660847351 1 rotate no_reflect no_shear #
lump $-1 $-1 $14 $2 #
transform $-1 1 0 0 0 1 0 0 0 1 73.56913968321787 42.324426870155087 17.066688660847351 1 rotate no_reflect no_shear #
lump $-1 $-1 $15 $3 #
transform $-1 1 0 0 0 1 0 0 0 1 73.56913968321787 42.324426870155087 17.066688660847351 1 rotate no_reflect no_shear #
shell $-1 $-1 $-1 $16 $-1 $4 #
shell $-1 $-1 $-1 $17 $-1 $6 #
shell $-1 $-1 $-1 $18 $-1 $8 #
shell $-1 $-1 $-1 $19 $-1 $10 #
face $-1 $20 $21 $12 $-1 $22 forward single #
face $-1 $23 $24 $13 $-1 $25 forward single #
face $-1 $26 $27 $14 $-1 $28 forward single #
face $-1 $29 $30 $15 $-1 $31 reversed single #
face $-1 $32 $33 $12 $-1 $34 reversed single #
loop $-1 $-1 $35 $16 #
plane-surface $-1 0 0 17.066688660847351 0 0 1 1 0 0 forward_v I I I I #
face $-1 $36 $37 $13 $-1 $38 forward single #
loop $-1 $-1 $39 $17 #
plane-surface $-1 -64.897082607527409 0 11.232023915324593 0 0 1 1 0 0 forward_v I I I I #
face $-1 $40 $41 $14 $-1 $42 forward single #
loop $-1 $-1 $43 $18 #
plane-surface $-1 44.609313863173156 31.820429409079182 212.08202350811268 0 -1 0 -0.6018150307709319 0 -0.79863550430605224 forward_v I I I I #
face $-1 $44 $45 $15 $-1 $46 reversed single #
loop $-1 $47 $48 $19 #
cone-surface $-1 64.247037111731814 23.370915008275951 8.8985556345668702 -0.6018150307709319 0 -0.79863550430605224 1.9965887607651305 0 -1.5045375769273297 1 I I 0 1 2.5 forward I I I I #
face $-1 $49 $50 $12 $-1 $51 reversed single #
loop $-1 $-1 $52 $20 #
plane-surface $-1 0 0 -17.066688660847351 0 0 1 1 0 0 forward_v I I I I #
coedge $-1 $53 $54 $55 $56 forward $21 $-1 #
face $-1 $57 $58 $13 $-1 $59 forward single #
loop $-1 $-1 $60 $23 #
plane-surface $-1 -56.225025531836948 0 14.149356288085972 -1 0 0 0 0 1 forward_v I I I I #
coedge $-1 $61 $62 $63 $64 reversed $24 $-1 #
face $-1 $65 $66 $14 $-1 $67 forward single #
loop $-1 $-1 $68 $26 #
plane-surface $-1 -43.940714261320338 23.370915008275951 94.572169563574477 0.6018150307709319 0 0.79863550430605224 0.79863550430605224 0 -0.6018150307709319 forward_v I I I I #
coedge $-1 $69 $70 $71 $72 reversed $27 $-1 #
face $-1 $73 $74 $15 $-1 $75 forward single #
loop $-1 $76 $77 $29 #
cone-surface $-1 61.500970205218678 23.370915008275951 5.2544018387869862 -0.6018150307709319 0 -0.79863550430605224 0.99829438038256524 0 -0.75226878846366485 1 I I -0.70710678118654746 0.70710678118654746 1.25 forward I I I I #
loop $-1 $-1 $78 $19 #
coedge $-1 $48 $48 $79 $80 reversed $30 $-1 #
face $-1 $81 $82 $12 $-1 $83 reversed single #
loop $-1 $-1 $84 $32 #
plane-surface $-1 0 -42.324426870155087 0 0 1 0 0 0 1 forward_v I I I I #
coedge $-1 $85 $86 $87 $88 forward $33 $-1 #
coedge $-1 $89 $35 $90 $91 forward $21 $-1 #
coedge $-1 $35 $89 $92 $93 forward $21 $-1 #
coedge $-1 $94 $95 $35 $56 reversed $96 $-1 #
edge $-1 $97 -42.324426870155087 $98 42.324426870155087 $55 $99 forward 7 unknown #
face $-1 $100 $101 $13 $-1 $102 reversed single #
loop $-1 $-1 $103 $36 #
plane-surface $-1 0 0 17.066688660847351 0 0 1 1 0 0 forward_v I I I I #
coedge $-1 $104 $63 $105 $106 reversed $37 $-1 #
coedge $-1 $107 $39 $108 $109 reversed $24 $-1 #
coedge $-1 $39 $107 $110 $111 reversed $24 $-1 #
coedge $-1 $60 $112 $39 $64 forward $37 $-1 #
edge $-1 $113 -42.324426870155087 $114 42.324426870155087 $63 $115 forward 7 unknown #
face $-1 $116 $117 $14 $-1 $118 forward single #
loop $-1 $-1 $119 $40 #
plane-surface $-1 44.609313863173156 14.921400607472719 212.08202350811268 0 1 0 0.6018150307709319 0 0.79863550430605224 forward_v I I I I #
coedge $-1 $120 $121 $122 $123 reversed $41 $-1 #
coedge $-1 $70 $43 $121 $124 forward $27 $-1 #
coedge $-1 $43 $69 $125 $126 reversed $27 $-1 #
coedge $-1 $127 $122 $43 $72 forward $117 $-1 #
edge $-1 $128 36.607873844758103 $129 51.264482751631292 $71 $130 forward 7 unknown #
face $-1 $131 $132 $15 $-1 $133 forward single #
loop $-1 $-1 $134 $44 #
plane-surface $-1 44.609313863173156 31.820429409079182 212.08202350811268 0 -1 0 -0.6018150307709319 0 -0.79863550430605224 forward_v I I I I #
loop $-1 $-1 $135 $29 #
coedge $-1 $77 $77 $78 $136 forward $45 $-1 #
coedge $-1 $78 $78 $77 $136 reversed $47 $-1 #
coedge $-1 $79 $79 $48 $80 forward $132 $-1 #
edge $-1 $137 0 $137 6.2831853071796004 $79 $138 forward 7 unknown #
face $-1 $139 $140 $12 $-1 $141 reversed single #
loop $-1 $-1 $142 $49 #
plane-surface $-1 -73.56913968321787 0 0 1 0 0 0 0 -1 forward_v I I I I #
coedge $-1 $143 $92 $144 $145 forward $50 $-1 #
coedge $-1 $146 $52 $143 $147 forward $33 $-1 #
coedge $-1 $52 $146 $148 $149 forward $33 $-1 #
coedge $-1 $95 $94 $52 $88 reversed $96 $-1 #
edge $-1 $150 -42.324426870155087 $151 42.324426870155087 $87 $152 forward 7 unknown #
coedge $-1 $54 $53 $153 $154 forward $21 $-1 #
coedge $-1 $155 $156 $53 $91 reversed $140 $-1 #
edge $-1 $98 -73.56913968321787 $157 73.56913968321787 $90 $158 forward 7 unknown #
coedge $-1 $84 $159 $54 $93 reversed $50 $-1 #
edge $-1 $160 -73.56913968321787 $97 73.56913968321787 $92 $161 forward 7 unknown #
coedge $-1 $87 $55 $159 $162 forward $96 $-1 #
coedge $-1 $55 $87 $155 $163 reversed $96 $-1 #
loop $-1 $-1 $94 $139 #
vertex $-1 $56 $164 #
vertex $-1 $56 $165 #
straight-curve $-1 73.56913968321787 0 17.066688660847351 0 1 0 I I #
face $-1 $166 $167 $13 $-1 $168 reversed single #
loop $-1 $-1 $105 $57 #
plane-surface $-1 0 -42.324426870155087 0 0 1 0 0 0 1 forward_v I I I I #
coedge $-1 $169 $170 $104 $171 forward $58 $-1 #
coedge $-1 $112 $60 $103 $171 reversed $37 $-1 #
coedge $-1 $110 $172 $60 $106 forward $101 $-1 #
edge $-1 $173 -9.9920105168043651 $114 -4.1573457712816069 $105 $174 forward 7 unknown #
coedge $-1 $62 $61 $175 $176 reversed $24 $-1 #
coedge $-1 $177 $178 $61 $109 forward $179 $-1 #
edge $-1 $180 -41.120598379454165 $113 -23.776484228073244 $108 $181 forward 7 unknown #
coedge $-1 $182 $105 $62 $111 forward $101 $-1 #
edge $-1 $114 23.776484228073244 $183 41.120598379454165 $110 $184 forward 7 unknown #
coedge $-1 $63 $104 $177 $185 reversed $37 $-1 #
vertex $-1 $109 $186 #
vertex $-1 $111 $187 #
straight-curve $-1 -56.225025531836948 0 11.232023915324593 0 -1 0 I I #
face $-1 $188 $189 $14 $-1 $190 forward single #
loop $-1 $-1 $191 $65 #
plane-surface $-1 0 0 17.066688660847351 0 0 1 1 0 0 forward_v I I I I #
coedge $-1 $192 $193 $191 $194 reversed $66 $-1 #
coedge $-1 $195 $68 $193 $196 reversed $41 $-1 #
coedge $-1 $68 $195 $69 $124 reversed $41 $-1 #
coedge $-1 $71 $191 $68 $123 forward $117 $-1 #
edge $-1 $197 3.2359431033347441 $128 20.134971904941207 $122 $198 forward 7 unknown #
edge $-1 $128 128.78621659456016 $199 147.13827936643574 $69 $200 forward 7 unknown #
coedge $-1 $201 $202 $70 $126 forward $203 $-1 #
edge $-1 $129 88.974323093208994 $199 100.01887031497536 $125 $204 forward 7 unknown #
coedge $-1 $205 $71 $202 $206 forward $117 $-1 #
vertex $-1 $123 $207 #
vertex $-1 $206 $208 #
straight-curve $-1 22.304656931586578 31.820429409079182 17.066688660847348 1 0 0 I I #
face $-1 $209 $210 $15 $-1 $211 forward single #
loop $-1 $212 $79 $73 #
plane-surface $-1 -43.940714261320338 23.370915008275951 94.572169563574477 0.6018150307709319 0 0.79863550430605224 0.79863550430605224 0 -0.6018150307709319 forward_v I I I I #
coedge $-1 $213 $214 $215 $216 reversed $74 $-1 #
coedge $-1 $135 $135 $-1 $217 forward $76 $-1 #
edge $-1 $218 0 $218 6.2831853071796004 $77 $219 forward 7 unknown #
vertex $-1 $80 $220 #
ellipse-curve $-1 66.240835229781268 23.370915008275951 11.544415049964174 -0.6018150307709319 0 -0.79863550430605224 1.9965887607651305 0 -1.5045375769273297 1 I I #
face $-1 $-1 $96 $12 $-1 $221 reversed single #
loop $-1 $-1 $155 $81 #
plane-surface $-1 0 42.324426870155087 0 0 -1 0 0 0 -1 forward_v I I I I #
coedge $-1 $222 $153 $156 $223 forward $82 $-1 #
coedge $-1 $159 $84 $85 $147 reversed $50 $-1 #
coedge $-1 $153 $222 $84 $145 reversed $82 $-1 #
edge $-1 $160 -17.066688660847351 $224 17.066688660847351 $144 $225 forward 7 unknown #
coedge $-1 $86 $85 $222 $226 forward $33 $-1 #
edge $-1 $151 -73.56913968321787 $224 73.56913968321787 $143 $227 forward 7 unknown #
coedge $-1 $156 $155 $86 $149 reversed $140 $-1 #
edge $-1 $228 -73.56913968321787 $150 73.56913968321787 $148 $229 forward 7 unknown #
vertex $-1 $88 $230 #
vertex $-1 $162 $231 #
straight-curve $-1 73.56913968321787 0 -17.066688660847351 0 -1 0 I I #
coedge $-1 $142 $144 $89 $154 reversed $82 $-1 #
edge $-1 $157 -42.324426870155087 $160 42.324426870155087 $153 $232 forward 7 unknown #
coedge $-1 $148 $90 $95 $163 forward $140 $-1 #
coedge $-1 $90 $148 $142 $223 reversed $140 $-1 #
vertex $-1 $91 $233 #
straight-curve $-1 0 42.324426870155087 17.066688660847351 -1 0 0 I I #
coedge $-1 $92 $143 $94 $162 reversed $50 $-1 #
vertex $-1 $154 $234 #
straight-curve $-1 0 -42.324426870155087 17.066688660847351 1 0 0 I I #
edge $-1 $97 -17.066688660847351 $151 17.066688660847351 $94 $235 forward 7 unknown #
edge $-1 $98 -17.066688660847351 $150 17.066688660847351 $95 $236 forward 7 unknown #
point $-1 73.56913968321787 -42.324426870155087 17.066688660847351 #
point $-1 73.56913968321787 42.324426870155087 17.066688660847351 #
face $-1 $237 $238 $13 $-1 $239 reversed single #
loop $-1 $-1 $240 $100 #
plane-surface $-1 0 0 -17.066688660847351 0 0 1 1 0 0 forward_v I I I I #
coedge $-1 $241 $103 $172 $242 forward $58 $-1 #
coedge $-1 $103 $241 $243 $244 forward $58 $-1 #
edge $-1 $245 -42.324426870155087 $173 42.324426870155087 $103 $246 forward 7 unknown #
coedge $-1 $105 $247 $169 $242 reversed $101 $-1 #
vertex $-1 $242 $248 #
straight-curve $-1 -56.225025531836948 -42.324426870155087 7.074678144042986 0 0 -1 I I #
coedge $-1 $249 $250 $107 $176 forward $238 $-1 #
edge $-1 $183 -42.324426870155087 $180 42.324426870155087 $175 $251 forward 7 unknown #
coedge $-1 $243 $108 $112 $185 forward $179 $-1 #
coedge $-1 $108 $252 $249 $253 reversed $179 $-1 #
loop $-1 $-1 $177 $237 #
vertex $-1 $253 $254 #
straight-curve $-1 -32.448541303763704 42.324426870155087 11.232023915324593 1 0 0 I I #
coedge $-1 $255 $110 $250 $256 forward $101 $-1 #
vertex $-1 $256 $257 #
straight-curve $-1 -32.448541303763704 -42.324426870155087 11.232023915324593 -1 0 0 I I #
edge $-1 $113 4.1573457712816069 $245 9.9920105168043651 $177 $258 forward 7 unknown #
point $-1 -56.225025531836948 42.324426870155087 11.232023915324593 #
point $-1 -56.225025531836948 -42.324426870155087 11.232023915324593 #
face $-1 $259 $260 $14 $-1 $261 forward single #
loop $-1 $-1 $262 $116 #
plane-surface $-1 -64.897082607527409 0 11.232023915324593 0 0 1 1 0 0 forward_v I I I I #
coedge $-1 $122 $263 $119 $194 forward $117 $-1 #
coedge $-1 $193 $119 $264 $265 reversed $66 $-1 #
coedge $-1 $119 $192 $120 $196 forward $66 $-1 #
edge $-1 $266 -51.264482751631292 $197 -36.607873844758103 $191 $267 forward 7 unknown #
coedge $-1 $121 $120 $201 $268 reversed $41 $-1 #
edge $-1 $269 -147.13827936643574 $197 -128.78621659456016 $193 $270 forward 7 unknown #
vertex $-1 $123 $271 #
straight-curve $-1 58.912530776344703 11.685457504137975 17.066688660847348 0 1 0 I I #
vertex $-1 $268 $272 #
straight-curve $-1 -43.940714261320338 31.820429409079182 94.572169563574477 0.79863550430605224 0 -0.6018150307709319 I I #
coedge $-1 $264 $125 $195 $268 forward $203 $-1 #
coedge $-1 $125 $273 $127 $206 reversed $203 $-1 #
loop $-1 $-1 $264 $274 #
straight-curve $-1 73.56913968321787 31.820429409079182 106.04101175405634 0 0 -1 I I #
coedge $-1 $275 $127 $276 $277 forward $117 $-1 #
edge $-1 $129 31.820429409079182 $278 42.324426870155087 $202 $279 forward 7 unknown #
point $-1 58.912530776344681 31.820429409079182 17.066688660847348 #
point $-1 73.56913968321787 31.820429409079182 17.066688660847351 #
face $-1 $280 $281 $15 $-1 $282 forward single #
loop $-1 $-1 $283 $131 #
plane-surface $-1 44.609313863173156 14.921400607472719 212.08202350811268 0 1 0 0.6018150307709319 0 0.79863550430605224 forward_v I I I I #
loop $-1 $-1 $284 $73 #
coedge $-1 $214 $134 $285 $286 forward $74 $-1 #
coedge $-1 $134 $213 $287 $288 reversed $74 $-1 #
coedge $-1 $289 $290 $134 $216 forward $281 $-1 #
edge $-1 $291 36.607873844758103 $292 51.264482751631292 $215 $293 forward 7 unknown #
edge $-1 $294 1 $294 0 $135 $-1 forward 7 unknown #
vertex $-1 $136 $295 #
ellipse-curve $-1 62.253238993682345 23.370915008275951 6.2526962191695512 0.6018150307709319 0 0.79863550430605224 1.9965887607651305 0 -1.5045375769273297 1 I I #
point $-1 68.237423990546418 23.370915008275951 10.039877473036857 #
plane-surface $-1 73.56913968321787 0 0 -1 0 0 0 0 1 forward_v I I I I #
coedge $-1 $144 $142 $146 $226 reversed $82 $-1 #
edge $-1 $157 -17.066688660847351 $228 17.066688660847351 $156 $296 forward 7 unknown #
vertex $-1 $226 $297 #
straight-curve $-1 -73.56913968321787 -42.324426870155087 0 0 0 -1 I I #
edge $-1 $224 -42.324426870155087 $228 42.324426870155087 $222 $298 forward 7 unknown #
straight-curve $-1 0 -42.324426870155087 -17.066688660847351 -1 0 0 I I #
vertex $-1 $149 $299 #
straight-curve $-1 0 42.324426870155087 -17.066688660847351 1 0 0 I I #
point $-1 73.56913968321787 42.324426870155087 -17.066688660847351 #
point $-1 73.56913968321787 -42.324426870155087 -17.066688660847351 #
straight-curve $-1 -73.56913968321787 0 17.066688660847351 0 -1 0 I I #
point $-1 -73.56913968321787 42.324426870155087 17.066688660847351 #
point $-1 -73.56913968321787 -42.324426870155087 17.066688660847351 #
straight-curve $-1 73.56913968321787 -42.324426870155087 0 0 0 -1 I I #
straight-curve $-1 73.56913968321787 42.324426870155087 0 0 0 -1 I I #
face $-1 $300 $179 $13 $-1 $301 reversed single #
loop $-1 $-1 $175 $166 #
plane-surface $-1 -73.56913968321787 0 0 1 0 0 0 0 -1 forward_v I I I I #
coedge $-1 $302 $303 $304 $305 forward $167 $-1 #
coedge $-1 $170 $169 $306 $307 forward $58 $-1 #
edge $-1 $173 -56.225025531836948 $308 73.56913968321787 $172 $309 forward 7 unknown #
coedge $-1 $310 $177 $170 $244 reversed $179 $-1 #
edge $-1 $311 -73.56913968321787 $245 56.225025531836948 $243 $312 forward 7 unknown #
vertex $-1 $171 $313 #
straight-curve $-1 -56.225025531836948 0 17.066688660847351 0 -1 0 I I #
coedge $-1 $172 $255 $314 $315 reversed $101 $-1 #
point $-1 -56.225025531836948 -42.324426870155087 17.066688660847351 #
coedge $-1 $316 $175 $178 $253 forward $238 $-1 #
coedge $-1 $175 $316 $182 $256 reversed $238 $-1 #
straight-curve $-1 -73.56913968321787 0 11.232023915324593 0 1 0 I I #
coedge $-1 $178 $310 $303 $317 reversed $179 $-1 #
edge $-1 $180 -11.232023915324593 $318 17.066688660847351 $178 $319 forward 7 unknown #
point $-1 -73.56913968321787 42.324426870155087 11.232023915324593 #
coedge $-1 $247 $182 $302 $320 reversed $101 $-1 #
edge $-1 $183 -11.232023915324593 $321 17.066688660847351 $250 $322 forward 7 unknown #
point $-1 -73.56913968321787 -42.324426870155087 11.232023915324593 #
straight-curve $-1 -56.225025531836948 42.324426870155087 7.074678144042986 0 0 1 I I #
face $-1 $323 $324 $14 $-1 $325 reversed single #
loop $-1 $-1 $326 $188 #
plane-surface $-1 -56.225025531836948 0 14.149356288085972 -1 0 0 0 0 1 forward_v I I I I #
coedge $-1 $327 $328 $329 $330 reversed $189 $-1 #
coedge $-1 $191 $331 $332 $333 forward $117 $-1 #
coedge $-1 $332 $201 $192 $265 forward $203 $-1 #
edge $-1 $269 -100.01887031497536 $266 -88.974323093208994 $264 $334 forward 7 unknown #
vertex $-1 $265 $335 #
straight-curve $-1 22.304656931586578 14.921400607472719 17.066688660847348 -1 0 0 I I #
edge $-1 $199 -20.134971904941207 $269 -3.2359431033347441 $201 $336 forward 7 unknown #
vertex $-1 $268 $337 #
straight-curve $-1 -43.940714261320338 14.921400607472719 94.572169563574477 -0.79863550430605224 0 0.6018150307709319 I I #
point $-1 58.912530776344681 14.921400607472719 17.066688660847348 #
point $-1 73.56913968321787 31.820429409079182 6.0221414390809827 #
coedge $-1 $202 $338 $339 $340 reversed $203 $-1 #
face $-1 $-1 $203 $14 $-1 $341 reversed single #
coedge $-1 $331 $205 $342 $343 forward $117 $-1 #
coedge $-1 $339 $344 $205 $277 reversed $345 $-1 #
edge $-1 $278 -73.56913968321787 $346 56.225025531836948 $276 $347 forward 7 unknown #
vertex $-1 $206 $348 #
straight-curve $-1 73.56913968321787 0 17.066688660847351 0 1 0 I I #
face $-1 $349 $350 $15 $-1 $351 forward single #
loop $-1 $-1 $352 $209 #
plane-surface $-1 0 0 17.066688660847351 0 0 1 1 0 0 forward_v I I I I #
coedge $-1 $353 $354 $352 $355 reversed $210 $-1 #
coedge $-1 $356 $285 $290 $357 reversed $212 $-1 #
coedge $-1 $284 $358 $213 $286 reversed $212 $-1 #
edge $-1 $291 128.78621659456016 $359 147.13827936643574 $213 $360 forward 7 unknown #
coedge $-1 $361 $362 $214 $288 forward $363 $-1 #
edge $-1 $292 88.974323093208994 $359 100.01887031497536 $287 $364 forward 7 unknown #
coedge $-1 $365 $215 $362 $366 forward $281 $-1 #
coedge $-1 $215 $352 $284 $357 forward $281 $-1 #
vertex $-1 $357 $367 #
vertex $-1 $366 $368 #
straight-curve $-1 22.304656931586578 31.820429409079182 17.066688660847348 1 0 0 I I #
vertex $-1 $217 $369 #
point $-1 64.24982775444748 23.370915008275951 4.7481586422422222 #
straight-curve $-1 -73.56913968321787 42.324426870155087 0 0 0 -1 I I #
point $-1 -73.56913968321787 -42.324426870155087 -17.066688660847351 #
straight-curve $-1 -73.56913968321787 0 -17.066688660847351 0 1 0 I I #
point $-1 -73.56913968321787 42.324426870155087 -17.066688660847351 #
face $-1 $-1 $370 $13 $-1 $371 reversed single #
plane-surface $-1 0 42.324426870155087 0 0 -1 0 0 0 -1 forward_v I I I I #
coedge $-1 $372 $240 $255 $320 forward $167 $-1 #
coedge $-1 $240 $372 $252 $317 forward $167 $-1 #
coedge $-1 $373 $314 $240 $305 reversed $370 $-1 #
edge $-1 $374 -42.324426870155087 $375 42.324426870155087 $304 $376 forward 7 unknown #
coedge $-1 $314 $373 $241 $307 reversed $370 $-1 #
edge $-1 $308 -42.324426870155087 $311 42.324426870155087 $306 $377 forward 7 unknown #
vertex $-1 $307 $378 #
straight-curve $-1 0 -42.324426870155087 17.066688660847351 1 0 0 I I #
coedge $-1 $252 $243 $373 $379 forward $179 $-1 #
vertex $-1 $307 $380 #
straight-curve $-1 0 42.324426870155087 17.066688660847351 -1 0 0 I I #
point $-1 -56.225025531836948 42.324426870155087 17.066688660847351 #
coedge $-1 $304 $306 $247 $315 forward $370 $-1 #
edge $-1 $308 -17.066688660847351 $375 17.066688660847351 $314 $381 forward 7 unknown #
coedge $-1 $250 $249 $372 $382 reversed $238 $-1 #
edge $-1 $318 -73.56913968321787 $374 73.56913968321787 $252 $383 forward 7 unknown #
vertex $-1 $317 $384 #
straight-curve $-1 -73.56913968321787 42.324426870155087 0 0 0 -1 I I #
edge $-1 $375 -73.56913968321787 $321 73.56913968321787 $255 $385 forward 7 unknown #
vertex $-1 $382 $386 #
straight-curve $-1 -73.56913968321787 -42.324426870155087 0 0 0 -1 I I #
face $-1 $387 $388 $14 $-1 $389 reversed single #
loop $-1 $-1 $390 $259 #
plane-surface $-1 0 -42.324426870155087 0 0 1 0 0 0 1 forward_v I I I I #
coedge $-1 $342 $329 $390 $391 reversed $260 $-1 #
coedge $-1 $392 $262 $393 $394 reversed $189 $-1 #
coedge $-1 $262 $392 $395 $396 reversed $189 $-1 #
coedge $-1 $326 $397 $262 $330 forward $260 $-1 #
edge $-1 $398 -42.324426870155087 $399 42.324426870155087 $329 $400 forward 7 unknown #
coedge $-1 $263 $275 $401 $402 forward $117 $-1 #
coedge $-1 $403 $264 $263 $333 reversed $203 $-1 #
edge $-1 $404 -42.324426870155087 $266 14.921400607472719 $332 $279 forward 7 unknown #
straight-curve $-1 73.56913968321787 14.921400607472719 106.04101175405634 0 0 1 I I #
point $-1 73.56913968321787 14.921400607472719 17.066688660847351 #
straight-curve $-1 73.569139683217855 11.685457504137975 6.0221414390809827 0 -1 0 I I #
point $-1 73.56913968321787 14.921400607472719 6.0221414390809827 #
coedge $-1 $273 $403 $405 $406 reversed $203 $-1 #
coedge $-1 $407 $276 $273 $340 forward $345 $-1 #
edge $-1 $278 -17.066688660847351 $408 17.066688660847351 $273 $409 forward 7 unknown #
plane-surface $-1 73.56913968321787 0 0 -1 0 0 0 0 1 forward_v I I I I #
coedge $-1 $397 $326 $275 $343 reversed $260 $-1 #
edge $-1 $346 -42.324426870155087 $410 42.324426870155087 $275 $411 forward 7 unknown #
coedge $-1 $276 $393 $397 $412 forward $345 $-1 #
loop $-1 $-1 $344 $413 #
vertex $-1 $343 $414 #
straight-curve $-1 0 42.324426870155087 17.066688660847351 -1 0 0 I I #
point $-1 73.56913968321787 42.324426870155087 17.066688660847351 #
face $-1 $415 $416 $15 $-1 $417 forward single #
loop $-1 $-1 $418 $280 #
plane-surface $-1 -64.897082607527409 0 11.232023915324593 0 0 1 1 0 0 forward_v I I I I #
coedge $-1 $290 $419 $283 $355 forward $281 $-1 #
coedge $-1 $354 $283 $420 $421 reversed $210 $-1 #
coedge $-1 $283 $353 $356 $422 forward $210 $-1 #
edge $-1 $423 -51.264482751631292 $424 -36.607873844758103 $352 $425 forward 7 unknown #
coedge $-1 $358 $284 $354 $422 reversed $212 $-1 #
edge $-1 $424 3.2359431033347441 $291 20.134971904941207 $290 $426 forward 7 unknown #
coedge $-1 $285 $356 $361 $427 reversed $212 $-1 #
vertex $-1 $427 $428 #
straight-curve $-1 -43.940714261320338 31.820429409079182 94.572169563574477 0.79863550430605224 0 -0.6018150307709319 I I #
coedge $-1 $420 $287 $358 $427 forward $363 $-1 #
coedge $-1 $287 $429 $289 $366 reversed $363 $-1 #
loop $-1 $-1 $420 $430 #
straight-curve $-1 73.56913968321787 31.820429409079182 106.04101175405634 0 0 -1 I I #
coedge $-1 $431 $289 $432 $433 forward $281 $-1 #
edge $-1 $292 31.820429409079182 $434 42.324426870155087 $362 $435 forward 7 unknown #
point $-1 58.912530776344681 31.820429409079182 17.066688660847348 #
point $-1 73.56913968321787 31.820429409079182 17.066688660847351 #
point $-1 60.748701416755011 23.370915008275951 4.2561074584044212 #
loop $-1 $-1 $314 $300 #
plane-surface $-1 73.56913968321787 0 0 -1 0 0 0 0 1 forward_v I I I I #
coedge $-1 $303 $302 $316 $382 forward $167 $-1 #
coedge $-1 $306 $304 $310 $379 reversed $370 $-1 #
vertex $-1 $305 $436 #
vertex $-1 $315 $437 #
straight-curve $-1 73.56913968321787 0 -17.066688660847351 0 -1 0 I I #
straight-curve $-1 73.56913968321787 0 17.066688660847351 0 1 0 I I #
point $-1 73.56913968321787 -42.324426870155087 17.066688660847351 #
edge $-1 $311 -17.066688660847351 $374 17.066688660847351 $373 $438 forward 7 unknown #
point $-1 73.56913968321787 42.324426870155087 17.066688660847351 #
straight-curve $-1 73.56913968321787 -42.324426870155087 0 0 0 -1 I I #
edge $-1 $321 -42.324426870155087 $318 42.324426870155087 $316 $439 forward 7 unknown #
straight-curve $-1 0 42.324426870155087 -17.066688660847351 1 0 0 I I #
point $-1 -73.56913968321787 42.324426870155087 -17.066688660847351 #
straight-curve $-1 0 -42.324426870155087 -17.066688660847351 -1 0 0 I I #
point $-1 -73.56913968321787 -42.324426870155087 -17.066688660847351 #
face $-1 $413 $440 $14 $-1 $441 reversed single #
loop $-1 $-1 $405 $323 #
plane-surface $-1 0 0 -17.066688660847351 0 0 1 1 0 0 forward_v I I I I #
coedge $-1 $395 $401 $326 $391 forward $324 $-1 #
edge $-1 $410 -9.9920105168043651 $399 -4.1573457712816069 $390 $442 forward 7 unknown #
coedge $-1 $328 $327 $443 $444 reversed $189 $-1 #
coedge $-1 $344 $445 $327 $394 forward $345 $-1 #
edge $-1 $446 -41.120598379454165 $398 -23.776484228073244 $393 $447 forward 7 unknown #
coedge $-1 $448 $390 $328 $396 forward $324 $-1 #
edge $-1 $399 23.776484228073244 $449 41.120598379454165 $395 $450 forward 7 unknown #
coedge $-1 $329 $342 $344 $412 reversed $260 $-1 #
vertex $-1 $394 $451 #
vertex $-1 $396 $452 #
straight-curve $-1 -56.225025531836948 0 11.232023915324593 0 -1 0 I I #
coedge $-1 $390 $453 $331 $402 reversed $324 $-1 #
edge $-1 $410 -56.225025531836948 $404 73.56913968321787 $401 $454 forward 7 unknown #
coedge $-1 $338 $332 $453 $455 forward $203 $-1 #
vertex $-1 $333 $456 #
coedge $-1 $457 $458 $338 $406 forward $388 $-1 #
edge $-1 $408 -42.324426870155087 $459 42.324426870155087 $338 $460 forward 7 unknown #
coedge $-1 $445 $339 $458 $461 reversed $345 $-1 #
vertex $-1 $406 $462 #
straight-curve $-1 73.56913968321787 42.324426870155087 0 0 0 -1 I I #
vertex $-1 $402 $463 #
straight-curve $-1 -56.225025531836948 0 17.066688660847351 0 -1 0 I I #
edge $-1 $398 4.1573457712816069 $346 9.9920105168043651 $344 $464 forward 7 unknown #
face $-1 $274 $345 $14 $-1 $465 reversed single #
point $-1 -56.225025531836948 42.324426870155087 17.066688660847351 #
face $-1 $466 $467 $15 $-1 $468 reversed single #
loop $-1 $-1 $469 $349 #
plane-surface $-1 -56.225025531836948 0 14.149356288085972 -1 0 0 0 0 1 forward_v I I I I #
coedge $-1 $470 $471 $472 $473 reversed $350 $-1 #
coedge $-1 $352 $474 $475 $476 forward $281 $-1 #
coedge $-1 $475 $361 $353 $421 forward $363 $-1 #
edge $-1 $477 -100.01887031497536 $423 -88.974323093208994 $420 $478 forward 7 unknown #
edge $-1 $477 -147.13827936643574 $424 -128.78621659456016 $354 $479 forward 7 unknown #
vertex $-1 $421 $480 #
vertex $-1 $357 $481 #
straight-curve $-1 22.304656931586578 14.921400607472719 17.066688660847348 -1 0 0 I I #
straight-curve $-1 58.912530776344703 11.685457504137975 17.066688660847348 0 1 0 I I #
edge $-1 $359 -20.134971904941207 $477 -3.2359431033347441 $361 $482 forward 7 unknown #
point $-1 73.56913968321787 31.820429409079182 6.0221414390809827 #
coedge $-1 $362 $483 $484 $485 reversed $363 $-1 #
face $-1 $-1 $363 $15 $-1 $486 reversed single #
coedge $-1 $474 $365 $487 $488 forward $281 $-1 #
coedge $-1 $484 $489 $365 $433 reversed $490 $-1 #
edge $-1 $434 -73.56913968321787 $491 56.225025531836948 $432 $492 forward 7 unknown #
vertex $-1 $366 $493 #
straight-curve $-1 73.56913968321787 0 17.066688660847351 0 1 0 I I #
point $-1 73.56913968321787 42.324426870155087 -17.066688660847351 #
point $-1 73.56913968321787 -42.324426870155087 -17.066688660847351 #
straight-curve $-1 73.56913968321787 42.324426870155087 0 0 0 -1 I I #
straight-curve $-1 -73.56913968321787 0 -17.066688660847351 0 1 0 I I #
loop $-1 $-1 $443 $387 #
plane-surface $-1 -73.56913968321787 0 0 1 0 0 0 0 -1 forward_v I I I I #
straight-curve $-1 -56.225025531836948 -42.324426870155087 7.074678144042986 0 0 -1 I I #
coedge $-1 $494 $495 $392 $444 forward $440 $-1 #
edge $-1 $449 -42.324426870155087 $446 42.324426870155087 $443 $496 forward 7 unknown #
coedge $-1 $393 $407 $494 $497 reversed $345 $-1 #
vertex $-1 $497 $498 #
straight-curve $-1 -32.448541303763704 42.324426870155087 11.232023915324593 1 0 0 I I #
coedge $-1 $499 $395 $495 $500 forward $324 $-1 #
vertex $-1 $500 $501 #
straight-curve $-1 -32.448541303763704 -42.324426870155087 11.232023915324593 -1 0 0 I I #
point $-1 -56.225025531836948 42.324426870155087 11.232023915324593 #
point $-1 -56.225025531836948 -42.324426870155087 11.232023915324593 #
coedge $-1 $401 $499 $403 $455 reversed $324 $-1 #
straight-curve $-1 0 -42.324426870155087 17.066688660847351 1 0 0 I I #
edge $-1 $404 -17.066688660847351 $459 17.066688660847351 $403 $502 forward 7 unknown #
point $-1 73.56913968321787 -42.324426870155087 17.066688660847351 #
coedge $-1 $503 $405 $499 $504 forward $388 $-1 #
coedge $-1 $405 $503 $407 $461 forward $388 $-1 #
vertex $-1 $455 $505 #
straight-curve $-1 73.56913968321787 0 -17.066688660847351 0 -1 0 I I #
edge $-1 $506 -73.56913968321787 $408 73.56913968321787 $407 $507 forward 7 unknown #
point $-1 73.56913968321787 42.324426870155087 -17.066688660847351 #
point $-1 -56.225025531836948 -42.324426870155087 17.066688660847351 #
straight-curve $-1 -56.225025531836948 42.324426870155087 7.074678144042986 0 0 1 I I #
plane-surface $-1 0 42.324426870155087 0 0 -1 0 0 0 -1 forward_v I I I I #
face $-1 $508 $509 $15 $-1 $510 reversed single #
loop $-1 $-1 $511 $415 #
plane-surface $-1 0 -42.324426870155087 0 0 1 0 0 0 1 forward_v I I I I #
coedge $-1 $487 $472 $511 $512 reversed $416 $-1 #
coedge $-1 $513 $418 $514 $515 reversed $350 $-1 #
coedge $-1 $418 $513 $516 $517 reversed $350 $-1 #
coedge $-1 $469 $518 $418 $473 forward $416 $-1 #
edge $-1 $519 -42.324426870155087 $520 42.324426870155087 $472 $521 forward 7 unknown #
coedge $-1 $419 $431 $522 $523 forward $281 $-1 #
coedge $-1 $524 $420 $419 $476 reversed $363 $-1 #
edge $-1 $525 -42.324426870155087 $423 14.921400607472719 $475 $435 forward 7 unknown #
vertex $-1 $427 $526 #
straight-curve $-1 73.56913968321787 14.921400607472719 106.04101175405634 0 0 1 I I #
straight-curve $-1 -43.940714261320338 14.921400607472719 94.572169563574477 -0.79863550430605224 0 0.6018150307709319 I I #
point $-1 73.56913968321787 14.921400607472719 17.066688660847351 #
point $-1 58.912530776344681 14.921400607472719 17.066688660847348 #
straight-curve $-1 73.569139683217855 11.685457504137975 6.0221414390809827 0 -1 0 I I #
coedge $-1 $429 $524 $527 $528 reversed $363 $-1 #
coedge $-1 $529 $432 $429 $485 forward $490 $-1 #
edge $-1 $434 -17.066688660847351 $530 17.066688660847351 $429 $531 forward 7 unknown #
plane-surface $-1 73.56913968321787 0 0 -1 0 0 0 0 1 forward_v I I I I #
coedge $-1 $518 $469 $431 $488 reversed $416 $-1 #
edge $-1 $491 -42.324426870155087 $532 42.324426870155087 $431 $533 forward 7 unknown #
coedge $-1 $432 $514 $518 $534 forward $490 $-1 #
loop $-1 $-1 $489 $535 #
vertex $-1 $488 $536 #
straight-curve $-1 0 42.324426870155087 17.066688660847351 -1 0 0 I I #
point $-1 73.56913968321787 42.324426870155087 17.066688660847351 #
coedge $-1 $537 $443 $445 $497 forward $440 $-1 #
coedge $-1 $443 $537 $448 $500 reversed $440 $-1 #
straight-curve $-1 -73.56913968321787 0 11.232023915324593 0 1 0 I I #
edge $-1 $446 -11.232023915324593 $506 17.066688660847351 $445 $538 forward 7 unknown #
point $-1 -73.56913968321787 42.324426870155087 11.232023915324593 #
coedge $-1 $453 $448 $457 $504 reversed $324 $-1 #
edge $-1 $449 -11.232023915324593 $539 17.066688660847351 $495 $540 forward 7 unknown #
point $-1 -73.56913968321787 -42.324426870155087 11.232023915324593 #
straight-curve $-1 73.56913968321787 -42.324426870155087 0 0 0 -1 I I #
coedge $-1 $458 $457 $537 $541 forward $388 $-1 #
edge $-1 $459 -73.56913968321787 $539 73.56913968321787 $499 $542 forward 7 unknown #
point $-1 73.56913968321787 -42.324426870155087 -17.066688660847351 #
vertex $-1 $461 $543 #
straight-curve $-1 0 42.324426870155087 -17.066688660847351 1 0 0 I I #
face $-1 $535 $544 $15 $-1 $545 reversed single #
loop $-1 $-1 $527 $466 #
plane-surface $-1 0 0 -17.066688660847351 0 0 1 1 0 0 forward_v I I I I #
coedge $-1 $516 $522 $469 $512 forward $467 $-1 #
edge $-1 $532 -9.9920105168043651 $520 -4.1573457712816069 $511 $546 forward 7 unknown #
coedge $-1 $471 $470 $547 $548 reversed $350 $-1 #
coedge $-1 $489 $549 $470 $515 forward $490 $-1 #
edge $-1 $550 -41.120598379454165 $519 -23.776484228073244 $514 $551 forward 7 unknown #
coedge $-1 $552 $511 $471 $517 forward $467 $-1 #
edge $-1 $520 23.776484228073244 $553 41.120598379454165 $516 $554 forward 7 unknown #
coedge $-1 $472 $487 $489 $534 reversed $416 $-1 #
vertex $-1 $515 $555 #
vertex $-1 $517 $556 #
straight-curve $-1 -56.225025531836948 0 11.232023915324593 0 -1 0 I I #
coedge $-1 $511 $557 $474 $523 reversed $467 $-1 #
edge $-1 $532 -56.225025531836948 $525 73.56913968321787 $522 $558 forward 7 unknown #
coedge $-1 $483 $475 $557 $559 forward $363 $-1 #
vertex $-1 $476 $560 #
point $-1 73.56913968321787 14.921400607472719 6.0221414390809827 #
coedge $-1 $561 $562 $483 $528 forward $509 $-1 #
edge $-1 $530 -42.324426870155087 $563 42.324426870155087 $483 $564 forward 7 unknown #
coedge $-1 $549 $484 $562 $565 reversed $490 $-1 #
vertex $-1 $528 $566 #
straight-curve $-1 73.56913968321787 42.324426870155087 0 0 0 -1 I I #
vertex $-1 $523 $567 #
straight-curve $-1 -56.225025531836948 0 17.066688660847351 0 -1 0 I I #
edge $-1 $519 4.1573457712816069 $491 9.9920105168043651 $489 $568 forward 7 unknown #
face $-1 $430 $490 $15 $-1 $569 reversed single #
point $-1 -56.225025531836948 42.324426870155087 17.066688660847351 #
coedge $-1 $495 $494 $503 $541 reversed $440 $-1 #
straight-curve $-1 -73.56913968321787 42.324426870155087 0 0 0 -1 I I #
vertex $-1 $541 $570 #
straight-curve $-1 -73.56913968321787 -42.324426870155087 0 0 0 -1 I I #
edge $-1 $539 -42.324426870155087 $506 42.324426870155087 $537 $571 forward 7 unknown #
straight-curve $-1 0 -42.324426870155087 -17.066688660847351 -1 0 0 I I #
point $-1 -73.56913968321787 42.324426870155087 -17.066688660847351 #
loop $-1 $-1 $547 $508 #
plane-surface $-1 -73.56913968321787 0 0 1 0 0 0 0 -1 forward_v I I I I #
straight-curve $-1 -56.225025531836948 -42.324426870155087 7.074678144042986 0 0 -1 I I #
coedge $-1 $572 $573 $513 $548 forward $544 $-1 #
edge $-1 $553 -42.324426870155087 $550 42.324426870155087 $547 $574 forward 7 unknown #
coedge $-1 $514 $529 $572 $575 reversed $490 $-1 #
vertex $-1 $575 $576 #
straight-curve $-1 -32.448541303763704 42.324426870155087 11.232023915324593 1 0 0 I I #
coedge $-1 $577 $516 $573 $578 forward $467 $-1 #
vertex $-1 $578 $579 #
straight-curve $-1 -32.448541303763704 -42.324426870155087 11.232023915324593 -1 0 0 I I #
point $-1 -56.225025531836948 42.324426870155087 11.232023915324593 #
point $-1 -56.225025531836948 -42.324426870155087 11.232023915324593 #
coedge $-1 $522 $577 $524 $559 reversed $467 $-1 #
straight-curve $-1 0 -42.324426870155087 17.066688660847351 1 0 0 I I #
edge $-1 $525 -17.066688660847351 $563 17.066688660847351 $524 $580 forward 7 unknown #
point $-1 73.56913968321787 -42.324426870155087 17.066688660847351 #
coedge $-1 $581 $527 $577 $582 forward $509 $-1 #
coedge $-1 $527 $581 $529 $565 forward $509 $-1 #
vertex $-1 $559 $583 #
straight-curve $-1 73.56913968321787 0 -17.066688660847351 0 -1 0 I I #
edge $-1 $584 -73.56913968321787 $530 73.56913968321787 $529 $585 forward 7 unknown #
point $-1 73.56913968321787 42.324426870155087 -17.066688660847351 #
point $-1 -56.225025531836948 -42.324426870155087 17.066688660847351 #
straight-curve $-1 -56.225025531836948 42.324426870155087 7.074678144042986 0 0 1 I I #
plane-surface $-1 0 42.324426870155087 0 0 -1 0 0 0 -1 forward_v I I I I #
point $-1 -73.56913968321787 -42.324426870155087 -17.066688660847351 #
straight-curve $-1 -73.56913968321787 0 -17.066688660847351 0 1 0 I I #
coedge $-1 $586 $547 $549 $575 forward $544 $-1 #
coedge $-1 $547 $586 $552 $578 reversed $544 $-1 #
straight-curve $-1 -73.56913968321787 0 11.232023915324593 0 1 0 I I #
edge $-1 $550 -11.232023915324593 $584 17.066688660847351 $549 $587 forward 7 unknown #
point $-1 -73.56913968321787 42.324426870155087 11.232023915324593 #
coedge $-1 $557 $552 $561 $582 reversed $467 $-1 #
edge $-1 $553 -11.232023915324593 $588 17.066688660847351 $573 $589 forward 7 unknown #
point $-1 -73.56913968321787 -42.324426870155087 11.232023915324593 #
straight-curve $-1 73.56913968321787 -42.324426870155087 0 0 0 -1 I I #
coedge $-1 $562 $561 $586 $590 forward $509 $-1 #
edge $-1 $563 -73.56913968321787 $588 73.56913968321787 $577 $591 forward 7 unknown #
point $-1 73.56913968321787 -42.324426870155087 -17.066688660847351 #
vertex $-1 $565 $592 #
straight-curve $-1 0 42.324426870155087 -17.066688660847351 1 0 0 I I #
coedge $-1 $573 $572 $581 $590 reversed $544 $-1 #
straight-curve $-1 -73.56913968321787 42.324426870155087 0 0 0 -1 I I #
vertex $-1 $590 $593 #
straight-curve $-1 -73.56913968321787 -42.324426870155087 0 0 0 -1 I I #
edge $-1 $588 -42.324426870155087 $584 42.324426870155087 $586 $594 forward 7 unknown #
straight-curve $-1 0 -42.324426870155087 -17.066688660847351 -1 0 0 I I #
point $-1 -73.56913968321787 42.324426870155087 -17.066688660847351 #
point $-1 -73.56913968321787 -42.324426870155087 -17.066688660847351 #
straight-curve $-1 -73.56913968321787 0 -17.066688660847351 0 1 0 I I #
End-of-ACIS-data 