500 0 7 0           
7 Unknown 11 ACIS 5.0 NT 24 Thu Mar 25 18:59:46 1999 
-1 9.9999999999999995e-007 1e-010 
body $-1 $7 $-1 $8 #
body $-1 $9 $-1 $10 #
body $-1 $11 $-1 $12 #
body $-1 $13 $-1 $14 #
body $-1 $15 $-1 $16 #
body $-1 $17 $-1 $18 #
body $-1 $19 $-1 $20 #
lump $-1 $-1 $21 $0 #
transform $-1 1 0 0 0 1 0 0 0 1 63.662831507309178 26.845365016717807 7.6425764647953853 1 rotate no_reflect no_shear #
lump $-1 $-1 $22 $1 #
transform $-1 1 0 0 0 1 0 0 0 1 63.662831507309178 26.845365016717807 7.6425764647953853 1 rotate no_reflect no_shear #
lump $-1 $-1 $23 $2 #
transform $-1 1 0 0 0 1 0 0 0 1 63.662831507309178 26.845365016717807 7.6425764647953853 1 rotate no_reflect no_shear #
lump $-1 $-1 $24 $3 #
transform $-1 1 0 0 0 1 0 0 0 1 63.662831507309178 26.845365016717807 7.6425764647953853 1 rotate no_reflect no_shear #
lump $-1 $-1 $25 $4 #
transform $-1 1 0 0 0 1 0 0 0 1 63.662831507309178 26.845365016717807 7.6425764647953853 1 rotate no_reflect no_shear #
lump $-1 $-1 $26 $5 #
transform $-1 1 0 0 0 1 0 0 0 1 63.662831507309178 26.845365016717807 7.6425764647953853 1 rotate no_reflect no_shear #
lump $-1 $-1 $27 $6 #
transform $-1 1 0 0 0 1 0 0 0 1 63.662831507309178 26.845365016717807 7.6425764647953853 1 rotate no_reflect no_shear #
shell $-1 $-1 $-1 $28 $-1 $7 #
shell $-1 $-1 $-1 $29 $-1 $9 #
shell $-1 $-1 $-1 $30 $-1 $11 #
shell $-1 $-1 $-1 $31 $-1 $13 #
shell $-1 $-1 $-1 $32 $-1 $15 #
shell $-1 $-1 $-1 $33 $-1 $17 #
shell $-1 $-1 $-1 $34 $-1 $19 #
face $-1 $35 $36 $21 $-1 $37 forward single #
face $-1 $38 $39 $22 $-1 $40 forward single #
face $-1 $41 $42 $23 $-1 $43 forward single #
face $-1 $44 $45 $24 $-1 $46 reversed single #
face $-1 $47 $48 $25 $-1 $49 forward single #
face $-1 $50 $51 $26 $-1 $52 forward single #
face $-1 $53 $54 $27 $-1 $55 forward single #
face $-1 $56 $57 $21 $-1 $58 reversed single #
loop $-1 $-1 $59 $28 #
plane-surface $-1 0 0 7.6425764647953853 0 0 1 1 0 0 forward_v I I I I #
face $-1 $60 $61 $22 $-1 $62 reversed single #
loop $-1 $-1 $63 $29 #
plane-surface $-1 -60.990614337517229 0 4.2622566670357385 0 0 1 1 0 0 forward_v I I I I #
face $-1 $64 $65 $23 $-1 $66 reversed single #
loop $-1 $-1 $67 $30 #
plane-surface $-1 60.990614337517229 0 4.2622566670357385 0 0 1 1 0 0 forward_v I I I I #
face $-1 $68 $69 $24 $-1 $70 reversed single #
loop $-1 $-1 $71 $31 #
plane-surface $-1 -22.018379432090217 83.348471668354264 128.5155524237891 -1 0 0 0 0.73135370988377701 0.68199835119979291 forward_v I I I I #
face $-1 $72 $73 $25 $-1 $74 forward single #
loop $-1 $75 $76 $32 #
cone-surface $-1 -36.701224374209211 23.188176408550472 3.8911670842841151 0 -0.73135370988377701 -0.68199835119979291 1 0 0 1 I I 0 1 1 forward I I I I #
face $-1 $77 $78 $26 $-1 $79 forward single #
loop $-1 $80 $81 $33 #
cone-surface $-1 -31.195157520914584 23.188176408550472 3.8911670842841151 0 -0.73135370988377701 -0.68199835119979291 1 0 0 1 I I 0 1 1 forward I I I I #
face $-1 $82 $83 $27 $-1 $84 forward single #
loop $-1 $85 $86 $34 #
cone-surface $-1 -25.689090667619958 23.188176408550472 3.8911670842841151 0 -0.73135370988377701 -0.68199835119979291 1 0 0 1 I I 0 1 1 forward I I I I #
face $-1 $87 $88 $21 $-1 $89 reversed single #
loop $-1 $-1 $90 $35 #
plane-surface $-1 0 0 -7.6425764647953853 0 0 1 1 0 0 forward_v I I I I #
coedge $-1 $91 $92 $93 $94 forward $36 $-1 #
face $-1 $95 $96 $22 $-1 $97 reversed single #
loop $-1 $-1 $98 $38 #
plane-surface $-1 -60.990614337517229 0 1.2622566670357385 0 0 1 1 0 0 forward_v I I I I #
coedge $-1 $99 $100 $101 $102 forward $39 $-1 #
face $-1 $103 $104 $23 $-1 $105 reversed single #
loop $-1 $-1 $106 $41 #
plane-surface $-1 60.990614337517229 0 1.2622566670357385 0 0 1 1 0 0 forward_v I I I I #
coedge $-1 $107 $108 $109 $110 reversed $42 $-1 #
face $-1 $111 $112 $24 $-1 $113 reversed single #
loop $-1 $-1 $114 $44 #
plane-surface $-1 -31.195157520914591 -9.771624340798482 41.679660182398933 0 0.73135370988377701 0.68199835119979291 1 0 0 forward_v I I I I #
coedge $-1 $115 $116 $117 $118 reversed $45 $-1 #
face $-1 $-1 $119 $25 $-1 $120 forward single #
loop $-1 $121 $122 $47 #
cone-surface $-1 -36.701224374209211 21.603758982374146 2.4136739675319037 0 -0.73135370988377701 -0.68199835119979291 0.5 0 0 1 I I -0.70710678118654746 0.70710678118654746 0.5 forward I I I I #
loop $-1 $-1 $123 $32 #
coedge $-1 $76 $76 $124 $125 reversed $48 $-1 #
face $-1 $-1 $126 $26 $-1 $127 forward single #
loop $-1 $128 $129 $50 #
cone-surface $-1 -31.195157520914584 21.603758982374146 2.4136739675319037 0 -0.73135370988377701 -0.68199835119979291 0.5 0 0 1 I I -0.70710678118654746 0.70710678118654746 0.5 forward I I I I #
loop $-1 $-1 $130 $33 #
coedge $-1 $81 $81 $131 $132 reversed $51 $-1 #
face $-1 $-1 $133 $27 $-1 $134 forward single #
loop $-1 $135 $136 $53 #
cone-surface $-1 -25.689090667619958 21.603758982374146 2.4136739675319037 0 -0.73135370988377701 -0.68199835119979291 0.5 0 0 1 I I -0.70710678118654746 0.70710678118654746 0.5 forward I I I I #
loop $-1 $-1 $137 $34 #
coedge $-1 $86 $86 $138 $139 reversed $54 $-1 #
face $-1 $140 $141 $21 $-1 $142 reversed single #
loop $-1 $-1 $143 $56 #
plane-surface $-1 0 -26.845365016717807 0 0 1 0 0 0 1 forward_v I I I I #
coedge $-1 $144 $145 $146 $147 forward $57 $-1 #
coedge $-1 $148 $59 $149 $150 forward $36 $-1 #
coedge $-1 $59 $148 $151 $152 forward $36 $-1 #
coedge $-1 $153 $154 $59 $94 reversed $155 $-1 #
edge $-1 $156 -26.845365016717807 $157 26.845365016717807 $93 $158 forward 7 unknown #
face $-1 $159 $160 $22 $-1 $161 reversed single #
loop $-1 $-1 $162 $60 #
plane-surface $-1 -58.31839716772528 0 2.7622566670357385 -1 0 0 0 0 1 forward_v I I I I #
coedge $-1 $163 $164 $165 $166 forward $61 $-1 #
coedge $-1 $167 $63 $168 $169 reversed $39 $-1 #
coedge $-1 $63 $167 $170 $171 reversed $39 $-1 #
coedge $-1 $162 $172 $63 $102 reversed $96 $-1 #
edge $-1 $173 -26.845365016717807 $174 26.845365016717807 $101 $175 forward 7 unknown #
face $-1 $176 $177 $23 $-1 $178 reversed single #
loop $-1 $-1 $179 $64 #
plane-surface $-1 58.31839716772528 0 2.7622566670357385 1 0 0 0 0 -1 forward_v I I I I #
coedge $-1 $180 $181 $182 $183 reversed $65 $-1 #
coedge $-1 $184 $67 $185 $186 reversed $42 $-1 #
coedge $-1 $67 $184 $187 $188 reversed $42 $-1 #
coedge $-1 $189 $190 $67 $110 forward $191 $-1 #
edge $-1 $192 -26.845365016717807 $193 26.845365016717807 $109 $194 forward 7 unknown #
face $-1 $195 $196 $24 $-1 $197 reversed single #
loop $-1 $-1 $198 $68 #
plane-surface $-1 -40.371935609738969 83.348471668354264 128.5155524237891 1 0 0 0 -0.73135370988377701 -0.68199835119979291 forward_v I I I I #
coedge $-1 $199 $200 $201 $202 reversed $69 $-1 #
coedge $-1 $116 $71 $203 $204 reversed $45 $-1 #
coedge $-1 $71 $115 $199 $205 reversed $45 $-1 #
coedge $-1 $201 $206 $71 $118 forward $196 $-1 #
edge $-1 $207 56.615199747099169 $208 61.845030625817081 $117 $209 forward 7 unknown #
loop $-1 $-1 $124 $72 #
plane-surface $-1 -31.195157520914591 -9.771624340798482 41.679660182398933 0 0.73135370988377701 0.68199835119979291 1 0 0 forward_v I I I I #
loop $-1 $-1 $210 $47 #
coedge $-1 $122 $122 $123 $211 reversed $73 $-1 #
coedge $-1 $123 $123 $122 $211 forward $75 $-1 #
coedge $-1 $124 $124 $76 $125 forward $119 $-1 #
edge $-1 $212 -1.7534545791869548e-016 $212 6.2831853071796004 $124 $213 forward 7 unknown #
loop $-1 $-1 $131 $77 #
plane-surface $-1 -31.195157520914591 -9.771624340798482 41.679660182398933 0 0.73135370988377701 0.68199835119979291 1 0 0 forward_v I I I I #
loop $-1 $-1 $214 $50 #
coedge $-1 $129 $129 $130 $215 reversed $78 $-1 #
coedge $-1 $130 $130 $129 $215 forward $80 $-1 #
coedge $-1 $131 $131 $81 $132 forward $126 $-1 #
edge $-1 $216 -1.7534545791869548e-016 $216 6.2831853071796004 $131 $217 forward 7 unknown #
loop $-1 $-1 $138 $82 #
plane-surface $-1 -31.195157520914591 -9.771624340798482 41.679660182398933 0 0.73135370988377701 0.68199835119979291 1 0 0 forward_v I I I I #
loop $-1 $-1 $218 $53 #
coedge $-1 $136 $136 $137 $219 reversed $83 $-1 #
coedge $-1 $137 $137 $136 $219 forward $85 $-1 #
coedge $-1 $138 $138 $86 $139 forward $133 $-1 #
edge $-1 $220 -1.7534545791869548e-016 $220 6.2831853071796004 $138 $221 forward 7 unknown #
face $-1 $222 $223 $21 $-1 $224 reversed single #
loop $-1 $-1 $225 $87 #
plane-surface $-1 -63.662831507309178 0 0 1 0 0 0 0 -1 forward_v I I I I #
coedge $-1 $226 $151 $227 $228 forward $88 $-1 #
coedge $-1 $229 $90 $226 $230 forward $57 $-1 #
coedge $-1 $90 $229 $231 $232 forward $57 $-1 #
coedge $-1 $154 $153 $90 $147 reversed $155 $-1 #
edge $-1 $233 -26.845365016717807 $234 26.845365016717807 $146 $235 forward 7 unknown #
coedge $-1 $92 $91 $236 $237 forward $36 $-1 #
coedge $-1 $238 $239 $91 $150 reversed $223 $-1 #
edge $-1 $157 -63.662831507309178 $240 63.662831507309178 $149 $241 forward 7 unknown #
coedge $-1 $143 $242 $92 $152 reversed $88 $-1 #
edge $-1 $243 -63.662831507309178 $156 63.662831507309178 $151 $244 forward 7 unknown #
coedge $-1 $146 $93 $242 $245 forward $155 $-1 #
coedge $-1 $93 $146 $238 $246 reversed $155 $-1 #
loop $-1 $-1 $153 $222 #
vertex $-1 $94 $247 #
vertex $-1 $94 $248 #
straight-curve $-1 63.662831507309178 0 7.6425764647953853 0 1 0 I I #
face $-1 $249 $250 $22 $-1 $251 reversed single #
loop $-1 $-1 $252 $95 #
plane-surface $-1 0 -26.845365016717807 0 0 1 0 0 0 1 forward_v I I I I #
coedge $-1 $165 $101 $253 $254 reversed $96 $-1 #
coedge $-1 $255 $98 $252 $256 reversed $61 $-1 #
coedge $-1 $98 $255 $257 $258 reversed $61 $-1 #
coedge $-1 $172 $162 $98 $166 reversed $96 $-1 #
edge $-1 $259 -26.845365016717807 $260 26.845365016717807 $165 $261 forward 7 unknown #
coedge $-1 $100 $99 $262 $263 reversed $39 $-1 #
coedge $-1 $264 $265 $99 $169 forward $266 $-1 #
edge $-1 $267 -33.167524338550564 $174 -27.823089998966665 $168 $268 forward 7 unknown #
coedge $-1 $269 $253 $100 $171 forward $160 $-1 #
edge $-1 $173 27.823089998966665 $270 33.167524338550564 $170 $271 forward 7 unknown #
coedge $-1 $101 $165 $264 $272 reversed $96 $-1 #
vertex $-1 $171 $273 #
vertex $-1 $169 $274 #
straight-curve $-1 -58.31839716772528 0 4.2622566670357385 0 1 0 I I #
face $-1 $275 $276 $23 $-1 $277 reversed single #
loop $-1 $-1 $187 $103 #
plane-surface $-1 0 -26.845365016717807 0 0 1 0 0 0 1 forward_v I I I I #
coedge $-1 $278 $279 $280 $281 reversed $104 $-1 #
coedge $-1 $282 $106 $283 $284 reversed $65 $-1 #
coedge $-1 $106 $282 $285 $286 reversed $65 $-1 #
coedge $-1 $190 $189 $106 $183 forward $191 $-1 #
edge $-1 $287 -26.845365016717807 $288 26.845365016717807 $182 $289 forward 7 unknown #
coedge $-1 $108 $107 $279 $290 forward $42 $-1 #
coedge $-1 $291 $280 $107 $186 forward $276 $-1 #
edge $-1 $292 27.823089998966665 $192 33.167524338550564 $185 $293 forward 7 unknown #
coedge $-1 $294 $295 $108 $188 forward $177 $-1 #
edge $-1 $193 -33.167524338550564 $296 -27.823089998966665 $187 $297 forward 7 unknown #
coedge $-1 $182 $109 $295 $298 forward $191 $-1 #
coedge $-1 $109 $182 $291 $299 reversed $191 $-1 #
loop $-1 $-1 $109 $275 #
vertex $-1 $299 $300 #
vertex $-1 $298 $301 #
straight-curve $-1 63.662831507309178 0 4.2622566670357385 0 -1 0 I I #
face $-1 $-1 $302 $24 $-1 $303 forward single #
loop $-1 $-1 $117 $111 #
plane-surface $-1 0 26.845365016717807 0 0 -1 0 0 0 -1 forward_v I I I I #
coedge $-1 $304 $305 $306 $307 reversed $112 $-1 #
coedge $-1 $308 $114 $116 $205 forward $69 $-1 #
coedge $-1 $114 $308 $304 $309 forward $69 $-1 #
coedge $-1 $306 $117 $114 $202 forward $196 $-1 #
edge $-1 $208 6.4208006716329216 $310 24.774356849281673 $201 $311 forward 7 unknown #
coedge $-1 $312 $313 $115 $204 forward $302 $-1 #
edge $-1 $314 -19.705766891325123 $207 -14.828870817459325 $203 $315 forward 7 unknown #
edge $-1 $208 -53.690730033435614 $314 -46.539838736871317 $116 $316 forward 7 unknown #
coedge $-1 $117 $306 $312 $317 reversed $196 $-1 #
vertex $-1 $317 $318 #
vertex $-1 $118 $319 #
straight-curve $-1 -22.018379432090217 26.845365016717807 64.257776211894551 0 0 -1 I I #
coedge $-1 $210 $210 $-1 $320 reversed $121 $-1 #
edge $-1 $321 0 $321 6.2831853071796004 $122 $322 forward 7 unknown #
vertex $-1 $125 $323 #
ellipse-curve $-1 -36.701224374209211 24.406916979784906 5.0276610254364265 0 0.73135370988377701 0.68199835119979291 1 0 0 1 I I #
coedge $-1 $214 $214 $-1 $324 reversed $128 $-1 #
edge $-1 $325 0 $325 6.2831853071796004 $129 $326 forward 7 unknown #
vertex $-1 $132 $327 #
ellipse-curve $-1 -31.195157520914584 24.406916979784906 5.0276610254364265 0 0.73135370988377701 0.68199835119979291 1 0 0 1 I I #
coedge $-1 $218 $218 $-1 $328 reversed $135 $-1 #
edge $-1 $329 0 $329 6.2831853071796004 $136 $330 forward 7 unknown #
vertex $-1 $139 $331 #
ellipse-curve $-1 -25.689090667619958 24.406916979784906 5.0276610254364265 0 0.73135370988377701 0.68199835119979291 1 0 0 1 I I #
face $-1 $-1 $155 $21 $-1 $332 reversed single #
loop $-1 $-1 $238 $140 #
plane-surface $-1 0 26.845365016717807 0 0 -1 0 0 0 -1 forward_v I I I I #
coedge $-1 $333 $236 $239 $334 forward $141 $-1 #
coedge $-1 $242 $143 $144 $230 reversed $88 $-1 #
coedge $-1 $236 $333 $143 $228 reversed $141 $-1 #
edge $-1 $243 -7.6425764647953853 $335 7.6425764647953853 $227 $336 forward 7 unknown #
coedge $-1 $145 $144 $333 $337 forward $57 $-1 #
edge $-1 $234 -63.662831507309178 $335 63.662831507309178 $226 $338 forward 7 unknown #
coedge $-1 $239 $238 $145 $232 reversed $223 $-1 #
edge $-1 $339 -63.662831507309178 $233 63.662831507309178 $231 $340 forward 7 unknown #
vertex $-1 $147 $341 #
vertex $-1 $245 $342 #
straight-curve $-1 63.662831507309178 0 -7.6425764647953853 0 -1 0 I I #
coedge $-1 $225 $227 $148 $237 reversed $141 $-1 #
edge $-1 $240 -26.845365016717807 $243 26.845365016717807 $236 $343 forward 7 unknown #
coedge $-1 $231 $149 $154 $246 forward $223 $-1 #
coedge $-1 $149 $231 $225 $334 reversed $223 $-1 #
vertex $-1 $150 $344 #
straight-curve $-1 0 26.845365016717807 7.6425764647953853 -1 0 0 I I #
coedge $-1 $151 $226 $153 $245 reversed $88 $-1 #
vertex $-1 $237 $345 #
straight-curve $-1 0 -26.845365016717807 7.6425764647953853 1 0 0 I I #
edge $-1 $156 -7.6425764647953853 $234 7.6425764647953853 $153 $346 forward 7 unknown #
edge $-1 $157 -7.6425764647953853 $233 7.6425764647953853 $154 $347 forward 7 unknown #
point $-1 63.662831507309178 -26.845365016717807 7.6425764647953853 #
point $-1 63.662831507309178 26.845365016717807 7.6425764647953853 #
face $-1 $-1 $266 $22 $-1 $348 reversed single #
loop $-1 $-1 $349 $159 #
plane-surface $-1 -63.662831507309178 0 0 1 0 0 0 0 -1 forward_v I I I I #
coedge $-1 $253 $269 $163 $256 forward $160 $-1 #
coedge $-1 $170 $252 $162 $254 forward $160 $-1 #
edge $-1 $260 -0.11887166648213077 $173 2.8811283335178692 $253 $350 forward 7 unknown #
coedge $-1 $164 $163 $349 $351 reversed $61 $-1 #
edge $-1 $352 -33.167524338550564 $260 -27.823089998966665 $252 $353 forward 7 unknown #
coedge $-1 $265 $264 $164 $258 forward $266 $-1 #
edge $-1 $259 27.823089998966665 $354 33.167524338550564 $257 $355 forward 7 unknown #
vertex $-1 $258 $356 #
vertex $-1 $256 $357 #
straight-curve $-1 -58.31839716772528 0 1.2622566670357385 0 -1 0 I I #
coedge $-1 $358 $359 $167 $263 forward $250 $-1 #
edge $-1 $270 -26.845365016717807 $267 26.845365016717807 $262 $360 forward 7 unknown #
coedge $-1 $257 $168 $172 $272 forward $266 $-1 #
coedge $-1 $168 $257 $358 $361 reversed $266 $-1 #
loop $-1 $-1 $257 $249 #
vertex $-1 $361 $362 #
straight-curve $-1 -30.495307168758615 26.845365016717807 4.2622566670357385 1 0 0 I I #
coedge $-1 $252 $170 $359 $363 forward $160 $-1 #
vertex $-1 $363 $364 #
straight-curve $-1 -30.495307168758615 -26.845365016717807 4.2622566670357385 -1 0 0 I I #
edge $-1 $174 -2.8811283335178692 $259 0.11887166648213077 $264 $365 forward 7 unknown #
point $-1 -58.31839716772528 -26.845365016717807 4.2622566670357385 #
point $-1 -58.31839716772528 26.845365016717807 4.2622566670357385 #
face $-1 $-1 $191 $23 $-1 $366 reversed single #
loop $-1 $-1 $185 $176 #
plane-surface $-1 0 26.845365016717807 0 0 -1 0 0 0 -1 forward_v I I I I #
coedge $-1 $367 $179 $282 $368 reversed $104 $-1 #
coedge $-1 $179 $367 $184 $290 reversed $104 $-1 #
coedge $-1 $185 $285 $179 $281 forward $276 $-1 #
edge $-1 $369 -0.11887166648213077 $292 2.8811283335178692 $280 $370 forward 7 unknown #
coedge $-1 $181 $180 $278 $368 forward $65 $-1 #
coedge $-1 $295 $294 $180 $284 forward $177 $-1 #
edge $-1 $371 27.823089998966665 $287 33.167524338550564 $283 $372 forward 7 unknown #
coedge $-1 $280 $291 $181 $286 forward $276 $-1 #
edge $-1 $288 -33.167524338550564 $369 -27.823089998966665 $285 $373 forward 7 unknown #
vertex $-1 $183 $374 #
vertex $-1 $183 $375 #
straight-curve $-1 63.662831507309178 0 1.2622566670357385 0 1 0 I I #
edge $-1 $292 -26.845365016717807 $296 26.845365016717807 $279 $376 forward 7 unknown #
coedge $-1 $285 $185 $190 $299 forward $276 $-1 #
vertex $-1 $186 $377 #
straight-curve $-1 30.495307168758615 26.845365016717807 4.2622566670357385 1 0 0 I I #
coedge $-1 $283 $187 $367 $378 forward $177 $-1 #
coedge $-1 $187 $283 $189 $298 reversed $177 $-1 #
vertex $-1 $188 $379 #
straight-curve $-1 30.495307168758615 -26.845365016717807 4.2622566670357385 -1 0 0 I I #
edge $-1 $193 -4.2622566670357385 $287 -1.2622566670357385 $189 $380 forward 7 unknown #
edge $-1 $192 -4.2622566670357385 $288 -1.2622566670357385 $190 $381 forward 7 unknown #
point $-1 63.662831507309178 26.845365016717807 4.2622566670357385 #
point $-1 63.662831507309178 -26.845365016717807 4.2622566670357385 #
loop $-1 $-1 $203 $195 #
plane-surface $-1 0 0 7.6425764647953853 0 0 1 1 0 0 forward_v I I I I #
coedge $-1 $305 $198 $200 $309 reversed $112 $-1 #
coedge $-1 $198 $304 $382 $383 reversed $112 $-1 #
coedge $-1 $206 $201 $198 $307 forward $196 $-1 #
edge $-1 $310 -61.845030625817081 $384 -56.615199747099169 $306 $385 forward 7 unknown #
coedge $-1 $200 $199 $313 $386 reversed $69 $-1 #
edge $-1 $387 46.539838736871317 $310 53.690730033435614 $304 $388 forward 7 unknown #
vertex $-1 $202 $389 #
straight-curve $-1 -15.597578760457296 26.845365016717807 2.4127455860774703 -1 0 0 I I #
coedge $-1 $382 $203 $206 $317 forward $302 $-1 #
coedge $-1 $203 $382 $308 $386 forward $302 $-1 #
vertex $-1 $204 $390 #
straight-curve $-1 -22.018379432090217 41.674235834177132 7.6425764647953827 0 1 0 I I #
straight-curve $-1 -22.018379432090217 -9.771624340798482 41.679660182398933 0 -0.68199835119979291 0.73135370988377701 I I #
edge $-1 $207 22.018379432090217 $384 40.371935609738969 $206 $391 forward 7 unknown #
point $-1 -22.018379432090217 26.845365016717807 7.6425764647953853 #
point $-1 -22.018379432090217 26.845365016717807 2.4127455860774703 #
edge $-1 $392 1 $392 0 $210 $-1 forward 7 unknown #
vertex $-1 $211 $393 #
ellipse-curve $-1 -36.701224374209211 21.969435837316034 2.7546731431318001 0 0.73135370988377701 0.68199835119979291 1 0 0 1 I I #
point $-1 -35.701224374209211 24.40691697978491 5.02766102543643 #
edge $-1 $394 1 $394 0 $214 $-1 forward 7 unknown #
vertex $-1 $215 $395 #
ellipse-curve $-1 -31.195157520914584 21.969435837316034 2.7546731431318001 0 0.73135370988377701 0.68199835119979291 1 0 0 1 I I #
point $-1 -30.195157520914584 24.40691697978491 5.02766102543643 #
edge $-1 $396 1 $396 0 $218 $-1 forward 7 unknown #
vertex $-1 $219 $397 #
ellipse-curve $-1 -25.689090667619958 21.969435837316034 2.7546731431318001 0 0.73135370988377701 0.68199835119979291 1 0 0 1 I I #
point $-1 -24.689090667619958 24.40691697978491 5.02766102543643 #
plane-surface $-1 63.662831507309178 0 0 -1 0 0 0 0 1 forward_v I I I I #
coedge $-1 $227 $225 $229 $337 reversed $141 $-1 #
edge $-1 $240 -7.6425764647953853 $339 7.6425764647953853 $239 $398 forward 7 unknown #
vertex $-1 $337 $399 #
straight-curve $-1 -63.662831507309178 -26.845365016717807 0 0 0 -1 I I #
edge $-1 $335 -26.845365016717807 $339 26.845365016717807 $333 $400 forward 7 unknown #
straight-curve $-1 0 -26.845365016717807 -7.6425764647953853 -1 0 0 I I #
vertex $-1 $232 $401 #
straight-curve $-1 0 26.845365016717807 -7.6425764647953853 1 0 0 I I #
point $-1 63.662831507309178 26.845365016717807 -7.6425764647953853 #
point $-1 63.662831507309178 -26.845365016717807 -7.6425764647953853 #
straight-curve $-1 -63.662831507309178 0 7.6425764647953853 0 -1 0 I I #
point $-1 -63.662831507309178 26.845365016717807 7.6425764647953853 #
point $-1 -63.662831507309178 -26.845365016717807 7.6425764647953853 #
straight-curve $-1 63.662831507309178 -26.845365016717807 0 0 0 -1 I I #
straight-curve $-1 63.662831507309178 26.845365016717807 0 0 0 -1 I I #
plane-surface $-1 0 26.845365016717807 0 0 -1 0 0 0 -1 forward_v I I I I #
coedge $-1 $359 $358 $255 $351 forward $250 $-1 #
straight-curve $-1 -58.31839716772528 -26.845365016717807 1.3811283335178692 0 0 1 I I #
edge $-1 $354 -26.845365016717807 $352 26.845365016717807 $349 $402 forward 7 unknown #
vertex $-1 $256 $403 #
straight-curve $-1 -30.495307168758615 -26.845365016717807 1.2622566670357385 1 0 0 I I #
vertex $-1 $258 $404 #
straight-curve $-1 -30.495307168758615 26.845365016717807 1.2622566670357385 -1 0 0 I I #
point $-1 -58.31839716772528 26.845365016717807 1.2622566670357385 #
point $-1 -58.31839716772528 -26.845365016717807 1.2622566670357385 #
coedge $-1 $349 $262 $265 $361 forward $250 $-1 #
coedge $-1 $262 $349 $269 $363 reversed $250 $-1 #
straight-curve $-1 -63.662831507309178 0 4.2622566670357385 0 1 0 I I #
edge $-1 $267 -4.2622566670357385 $354 -1.2622566670357385 $265 $405 forward 7 unknown #
point $-1 -63.662831507309178 26.845365016717807 4.2622566670357385 #
edge $-1 $270 -4.2622566670357385 $352 -1.2622566670357385 $359 $406 forward 7 unknown #
point $-1 -63.662831507309178 -26.845365016717807 4.2622566670357385 #
straight-curve $-1 -58.31839716772528 26.845365016717807 1.3811283335178692 0 0 -1 I I #
plane-surface $-1 63.662831507309178 0 0 -1 0 0 0 0 1 forward_v I I I I #
coedge $-1 $279 $278 $294 $378 reversed $104 $-1 #
edge $-1 $371 -26.845365016717807 $369 26.845365016717807 $278 $407 forward 7 unknown #
vertex $-1 $286 $408 #
straight-curve $-1 58.31839716772528 26.845365016717807 1.3811283335178692 0 0 1 I I #
vertex $-1 $284 $409 #
straight-curve $-1 30.495307168758615 -26.845365016717807 1.2622566670357385 1 0 0 I I #
straight-curve $-1 30.495307168758615 26.845365016717807 1.2622566670357385 -1 0 0 I I #
point $-1 63.662831507309178 -26.845365016717807 1.2622566670357385 #
point $-1 63.662831507309178 26.845365016717807 1.2622566670357385 #
straight-curve $-1 58.31839716772528 0 4.2622566670357385 0 -1 0 I I #
point $-1 58.31839716772528 26.845365016717807 4.2622566670357385 #
edge $-1 $296 -2.8811283335178692 $371 0.11887166648213077 $294 $410 forward 7 unknown #
point $-1 58.31839716772528 -26.845365016717807 4.2622566670357385 #
straight-curve $-1 63.662831507309178 -26.845365016717807 0 0 0 -1 I I #
straight-curve $-1 63.662831507309178 26.845365016717807 0 0 0 -1 I I #
coedge $-1 $313 $312 $305 $383 forward $302 $-1 #
edge $-1 $384 14.828870817459325 $387 19.705766891325123 $382 $411 forward 7 unknown #
vertex $-1 $383 $412 #
straight-curve $-1 -40.371935609738969 26.845365016717807 64.257776211894551 0 0 1 I I #
edge $-1 $387 -24.774356849281673 $314 -6.4208006716329216 $313 $413 forward 7 unknown #
vertex $-1 $386 $414 #
straight-curve $-1 -40.371935609738969 -9.771624340798482 41.679660182398933 0 0.68199835119979291 -0.73135370988377701 I I #
point $-1 -40.371935609738969 26.845365016717807 2.4127455860774703 #
point $-1 -22.018379432090217 21.968468942852009 7.6425764647953827 #
straight-curve $-1 0 26.845365016717807 7.6425764647953853 -1 0 0 I I #
vertex $-1 $320 $415 #
point $-1 -35.701224374209211 21.969435837316034 2.7546731431318001 #
vertex $-1 $324 $416 #
point $-1 -30.195157520914584 21.969435837316034 2.7546731431318001 #
vertex $-1 $328 $417 #
point $-1 -24.689090667619958 21.969435837316034 2.7546731431318001 #
straight-curve $-1 -63.662831507309178 26.845365016717807 0 0 0 -1 I I #
point $-1 -63.662831507309178 -26.845365016717807 -7.6425764647953853 #
straight-curve $-1 -63.662831507309178 0 -7.6425764647953853 0 1 0 I I #
point $-1 -63.662831507309178 26.845365016717807 -7.6425764647953853 #
straight-curve $-1 -63.662831507309178 0 1.2622566670357385 0 -1 0 I I #
point $-1 -63.662831507309178 -26.845365016717807 1.2622566670357385 #
point $-1 -63.662831507309178 26.845365016717807 1.2622566670357385 #
straight-curve $-1 -63.662831507309178 26.845365016717807 0 0 0 -1 I I #
straight-curve $-1 -63.662831507309178 -26.845365016717807 0 0 0 -1 I I #
straight-curve $-1 58.31839716772528 0 1.2622566670357385 0 1 0 I I #
point $-1 58.31839716772528 26.845365016717807 1.2622566670357385 #
point $-1 58.31839716772528 -26.845365016717807 1.2622566670357385 #
straight-curve $-1 58.31839716772528 -26.845365016717807 1.3811283335178692 0 0 -1 I I #
straight-curve $-1 -40.371935609738969 41.674235834177132 7.6425764647953827 0 -1 0 I I #
point $-1 -40.371935609738969 26.845365016717807 7.6425764647953853 #
straight-curve $-1 -15.597578760457296 21.968468942852002 7.6425764647953862 1 0 0 I I #
point $-1 -40.371935609738969 21.968468942852009 7.6425764647953827 #
point $-1 -36.701224374209211 21.238082127432257 2.0726747919320072 #
point $-1 -31.195157520914584 21.238082127432257 2.0726747919320072 #
point $-1 -25.689090667619958 21.238082127432257 2.0726747919320072 #
End-of-ACIS-data 