500 0 11 0           
7 Unknown 11 ACIS 5.0 NT 24 Thu Mar 25 18:17:42 1999 
-1 9.9999999999999995e-007 1e-010 
body $-1 $11 $-1 $12 #
body $-1 $13 $-1 $14 #
body $-1 $15 $-1 $16 #
body $-1 $17 $-1 $18 #
body $-1 $19 $-1 $20 #
body $-1 $21 $-1 $22 #
body $-1 $23 $-1 $24 #
body $-1 $25 $-1 $26 #
body $-1 $27 $-1 $28 #
body $-1 $29 $-1 $30 #
body $-1 $31 $-1 $32 #
lump $-1 $-1 $33 $0 #
transform $-1 1 0 0 0 1 0 0 0 1 62.04657124546037 36.565193641898517 11.891080871874337 1 rotate no_reflect no_shear #
lump $-1 $-1 $34 $1 #
transform $-1 1 0 0 0 1 0 0 0 1 62.04657124546037 36.565193641898517 11.891080871874337 1 rotate no_reflect no_shear #
lump $-1 $-1 $35 $2 #
transform $-1 1 0 0 0 1 0 0 0 1 62.04657124546037 36.565193641898517 11.891080871874337 1 rotate no_reflect no_shear #
lump $-1 $-1 $36 $3 #
transform $-1 1 0 0 0 1 0 0 0 1 62.04657124546037 36.565193641898517 11.891080871874337 1 rotate no_reflect no_shear #
lump $-1 $-1 $37 $4 #
transform $-1 1 0 0 0 1 0 0 0 1 62.04657124546037 36.565193641898517 11.891080871874337 1 rotate no_reflect no_shear #
lump $-1 $-1 $38 $5 #
transform $-1 1 0 0 0 1 0 0 0 1 62.04657124546037 36.565193641898517 11.891080871874337 1 rotate no_reflect no_shear #
lump $-1 $-1 $39 $6 #
transform $-1 1 0 0 0 1 0 0 0 1 62.04657124546037 36.565193641898517 11.891080871874337 1 rotate no_reflect no_shear #
lump $-1 $-1 $40 $7 #
transform $-1 1 0 0 0 1 0 0 0 1 62.04657124546037 36.565193641898517 11.891080871874337 1 rotate no_reflect no_shear #
lump $-1 $-1 $41 $8 #
transform $-1 1 0 0 0 1 0 0 0 1 62.04657124546037 36.565193641898517 11.891080871874337 1 rotate no_reflect no_shear #
lump $-1 $-1 $42 $9 #
transform $-1 1 0 0 0 1 0 0 0 1 62.04657124546037 36.565193641898517 11.891080871874337 1 rotate no_reflect no_shear #
lump $-1 $-1 $43 $10 #
transform $-1 1 0 0 0 1 0 0 0 1 62.04657124546037 36.565193641898517 11.891080871874337 1 rotate no_reflect no_shear #
shell $-1 $-1 $-1 $44 $-1 $11 #
shell $-1 $-1 $-1 $45 $-1 $13 #
shell $-1 $-1 $-1 $46 $-1 $15 #
shell $-1 $-1 $-1 $47 $-1 $17 #
shell $-1 $-1 $-1 $48 $-1 $19 #
shell $-1 $-1 $-1 $49 $-1 $21 #
shell $-1 $-1 $-1 $50 $-1 $23 #
shell $-1 $-1 $-1 $51 $-1 $25 #
shell $-1 $-1 $-1 $52 $-1 $27 #
shell $-1 $-1 $-1 $53 $-1 $29 #
shell $-1 $-1 $-1 $54 $-1 $31 #
face $-1 $55 $56 $33 $-1 $57 forward single #
face $-1 $58 $59 $34 $-1 $60 reversed single #
face $-1 $61 $62 $35 $-1 $63 reversed single #
face $-1 $64 $65 $36 $-1 $66 forward single #
face $-1 $67 $68 $37 $-1 $69 forward single #
face $-1 $70 $71 $38 $-1 $72 reversed single #
face $-1 $73 $74 $39 $-1 $75 forward single #
face $-1 $76 $77 $40 $-1 $78 forward single #
face $-1 $79 $80 $41 $-1 $81 reversed single #
face $-1 $82 $83 $42 $-1 $84 forward single #
face $-1 $85 $86 $43 $-1 $87 forward single #
face $-1 $88 $89 $33 $-1 $90 reversed single #
loop $-1 $-1 $91 $44 #
plane-surface $-1 0 0 11.891080871874337 0 0 1 1 0 0 forward_v I I I I #
face $-1 $92 $93 $34 $-1 $94 reversed single #
loop $-1 $-1 $95 $45 #
plane-surface $-1 -56.346886990103584 0 8.8910808718743368 0 0 1 1 0 0 forward_v I I I I #
face $-1 $96 $97 $35 $-1 $98 reversed single #
loop $-1 $-1 $99 $46 #
plane-surface $-1 -25.268766607822471 77.446370223617663 139.8146455786823 1 0 0 0 -0.73135370988377701 -0.68199835119979291 forward_v I I I I #
face $-1 $100 $101 $36 $-1 $102 forward single #
loop $-1 $103 $104 $47 #
cone-surface $-1 -18.850740498153549 29.555644779472086 4.6899770939654761 0 -0.73135370988377701 -0.68199835119979291 2.5 0 0 1 I I 0 1 2.5 forward I I I I #
face $-1 $105 $106 $37 $-1 $107 forward single #
loop $-1 $108 $109 $48 #
cone-surface $-1 -9.223701333650169 29.555644779472086 4.6899770939654761 0 -0.73135370988377701 -0.68199835119979291 2.5 0 0 1 I I 0 1 2.5 forward I I I I #
face $-1 $110 $111 $38 $-1 $112 reversed single #
loop $-1 $-1 $113 $49 #
plane-surface $-1 14.205043734694819 77.446370223617663 139.8146455786823 1 0 0 0 -0.73135370988377701 -0.68199835119979291 forward_v I I I I #
face $-1 $114 $115 $39 $-1 $116 forward single #
loop $-1 $117 $118 $50 #
cone-surface $-1 20.623069844363755 29.555644779472086 4.6899770939654761 0 -0.73135370988377701 -0.68199835119979291 2.5 0 0 1 I I 0 1 2.5 forward I I I I #
face $-1 $119 $120 $40 $-1 $121 forward single #
loop $-1 $122 $123 $51 #
cone-surface $-1 30.250109008867128 29.555644779472086 4.6899770939654761 0 -0.73135370988377701 -0.68199835119979291 2.5 0 0 1 I I 0 1 2.5 forward I I I I #
face $-1 $124 $125 $41 $-1 $126 reversed single #
loop $-1 $-1 $127 $52 #
plane-surface $-1 53.323783554878361 -36.565193641898531 3.2504122368292201 0 -0.64278761758704617 0.76604443648966558 1 0 0 forward_v I I I I #
face $-1 $128 $129 $42 $-1 $130 forward single #
loop $-1 $131 $132 $53 #
cone-surface $-1 49.585445973200365 -30.545095070055591 6.5323421921714848 0 0.64278761758704617 -0.76604443648966558 1 0 0 1 I I 0 1 1 forward I I I I #
face $-1 $133 $134 $43 $-1 $135 forward single #
loop $-1 $136 $137 $54 #
cone-surface $-1 57.062121136556371 -30.545095070055591 6.5323421921714848 0 0.64278761758704617 -0.76604443648966558 1 0 0 1 I I 0 1 1 forward I I I I #
face $-1 $138 $139 $33 $-1 $140 reversed single #
loop $-1 $-1 $141 $55 #
plane-surface $-1 0 0 -11.891080871874337 0 0 1 1 0 0 forward_v I I I I #
coedge $-1 $142 $143 $144 $145 forward $56 $-1 #
face $-1 $146 $147 $34 $-1 $148 reversed single #
loop $-1 $-1 $149 $58 #
plane-surface $-1 -50.647202734746799 0 10.391080871874337 -1 0 0 0 0 1 forward_v I I I I #
coedge $-1 $150 $151 $152 $153 forward $59 $-1 #
face $-1 $154 $155 $35 $-1 $156 reversed single #
loop $-1 $-1 $157 $61 #
plane-surface $-1 -14.037220915901862 -13.309609908253378 55.183327004673401 0 0.73135370988377701 0.68199835119979291 1 0 0 forward_v I I I I #
coedge $-1 $158 $159 $160 $161 reversed $62 $-1 #
face $-1 $-1 $162 $36 $-1 $163 forward single #
loop $-1 $164 $165 $64 #
cone-surface $-1 -18.850740498153549 26.383969729372225 1.7323423332785168 0 -0.73135370988377701 -0.68199835119979291 1.25 0 0 1 I I -0.70710678118654746 0.70710678118654746 1.25 forward I I I I #
loop $-1 $-1 $166 $47 #
coedge $-1 $104 $104 $167 $168 reversed $65 $-1 #
face $-1 $-1 $169 $37 $-1 $170 forward single #
loop $-1 $171 $172 $67 #
cone-surface $-1 -9.223701333650169 26.383969729372225 1.7323423332785168 0 -0.73135370988377701 -0.68199835119979291 1.25 0 0 1 I I -0.70710678118654746 0.70710678118654746 1.25 forward I I I I #
loop $-1 $-1 $173 $48 #
coedge $-1 $109 $109 $174 $175 reversed $68 $-1 #
face $-1 $176 $177 $38 $-1 $178 reversed single #
loop $-1 $-1 $179 $70 #
plane-surface $-1 25.436589426615427 -13.309609908253378 55.183327004673401 0 0.73135370988377701 0.68199835119979291 1 0 0 forward_v I I I I #
coedge $-1 $180 $181 $182 $183 reversed $71 $-1 #
face $-1 $-1 $184 $39 $-1 $185 forward single #
loop $-1 $186 $187 $73 #
cone-surface $-1 20.623069844363755 26.383969729372225 1.7323423332785168 0 -0.73135370988377701 -0.68199835119979291 1.25 0 0 1 I I -0.70710678118654746 0.70710678118654746 1.25 forward I I I I #
loop $-1 $-1 $188 $50 #
coedge $-1 $118 $118 $189 $190 reversed $74 $-1 #
face $-1 $-1 $191 $40 $-1 $192 forward single #
loop $-1 $193 $194 $76 #
cone-surface $-1 30.250109008867128 26.383969729372225 1.7323423332785168 0 -0.73135370988377701 -0.68199835119979291 1.25 0 0 1 I I -0.70710678118654746 0.70710678118654746 1.25 forward I I I I #
loop $-1 $-1 $195 $51 #
coedge $-1 $123 $123 $196 $197 reversed $77 $-1 #
face $-1 $198 $199 $41 $-1 $200 reversed single #
loop $-1 $-1 $201 $79 #
plane-surface $-1 44.600995864296358 -116.33072906252733 98.31127364851838 1 0 0 0 0.64278761758704617 -0.76604443648966558 forward_v I I I I #
coedge $-1 $202 $203 $204 $205 reversed $80 $-1 #
face $-1 $-1 $206 $42 $-1 $207 forward single #
loop $-1 $208 $209 $82 #
cone-surface $-1 49.585445973200365 -29.352376525693849 5.1109156117463641 0 0.64278761758704617 -0.76604443648966558 0.5 0 0 1 I I -0.70710678118654746 0.70710678118654746 0.5 forward I I I I #
loop $-1 $-1 $210 $53 #
coedge $-1 $132 $132 $211 $212 reversed $83 $-1 #
face $-1 $-1 $213 $43 $-1 $214 forward single #
loop $-1 $215 $216 $85 #
cone-surface $-1 57.062121136556371 -29.352376525693849 5.1109156117463641 0 0.64278761758704617 -0.76604443648966558 0.5 0 0 1 I I -0.70710678118654746 0.70710678118654746 0.5 forward I I I I #
loop $-1 $-1 $217 $54 #
coedge $-1 $137 $137 $218 $219 reversed $86 $-1 #
face $-1 $220 $221 $33 $-1 $222 reversed single #
loop $-1 $-1 $223 $88 #
plane-surface $-1 0 -36.565193641898517 0 0 1 0 0 0 1 forward_v I I I I #
coedge $-1 $224 $225 $226 $227 forward $89 $-1 #
coedge $-1 $228 $91 $229 $230 forward $56 $-1 #
coedge $-1 $91 $228 $231 $232 forward $56 $-1 #
coedge $-1 $233 $234 $91 $145 reversed $235 $-1 #
edge $-1 $236 -36.565193641898517 $237 36.565193641898517 $144 $238 forward 7 unknown #
face $-1 $239 $240 $34 $-1 $241 reversed single #
loop $-1 $-1 $242 $92 #
plane-surface $-1 0 36.565193641898517 0 0 -1 0 0 0 -1 forward_v I I I I #
coedge $-1 $152 $243 $244 $245 reversed $93 $-1 #
coedge $-1 $246 $95 $247 $248 reversed $59 $-1 #
coedge $-1 $95 $246 $249 $250 reversed $59 $-1 #
coedge $-1 $251 $149 $95 $153 reversed $93 $-1 #
edge $-1 $252 -36.565193641898517 $253 36.565193641898517 $152 $254 forward 7 unknown #
face $-1 $255 $256 $35 $-1 $257 forward single #
loop $-1 $-1 $258 $96 #
plane-surface $-1 -2.8056752239812539 77.446370223617663 139.8146455786823 -1 0 0 0 0.73135370988377701 0.68199835119979291 forward_v I I I I #
coedge $-1 $259 $260 $261 $262 reversed $97 $-1 #
coedge $-1 $159 $99 $263 $264 reversed $62 $-1 #
coedge $-1 $99 $158 $259 $265 reversed $62 $-1 #
coedge $-1 $261 $266 $99 $161 forward $256 $-1 #
edge $-1 $267 2.1579914699103142 $268 11.662123369272919 $160 $269 forward 7 unknown #
loop $-1 $-1 $167 $100 #
plane-surface $-1 -14.037220915901862 -13.309609908253378 55.183327004673401 0 0.73135370988377701 0.68199835119979291 1 0 0 forward_v I I I I #
loop $-1 $-1 $270 $64 #
coedge $-1 $165 $165 $166 $271 reversed $101 $-1 #
coedge $-1 $166 $166 $165 $271 forward $103 $-1 #
coedge $-1 $167 $167 $104 $168 forward $162 $-1 #
edge $-1 $272 -4.7024358241699307e-016 $272 6.2831853071795996 $167 $273 forward 7 unknown #
loop $-1 $-1 $174 $105 #
plane-surface $-1 -14.037220915901862 -13.309609908253378 55.183327004673401 0 0.73135370988377701 0.68199835119979291 1 0 0 forward_v I I I I #
loop $-1 $-1 $274 $67 #
coedge $-1 $172 $172 $173 $275 reversed $106 $-1 #
coedge $-1 $173 $173 $172 $275 forward $108 $-1 #
coedge $-1 $174 $174 $109 $175 forward $169 $-1 #
edge $-1 $276 -4.7024358241699307e-016 $276 6.2831853071795996 $174 $277 forward 7 unknown #
face $-1 $278 $279 $38 $-1 $280 forward single #
loop $-1 $-1 $281 $110 #
plane-surface $-1 36.668135118536036 77.446370223617663 139.8146455786823 -1 0 0 0 0.73135370988377701 0.68199835119979291 forward_v I I I I #
coedge $-1 $282 $283 $284 $285 reversed $111 $-1 #
coedge $-1 $181 $113 $286 $287 reversed $71 $-1 #
coedge $-1 $113 $180 $282 $288 reversed $71 $-1 #
coedge $-1 $284 $289 $113 $183 forward $279 $-1 #
edge $-1 $290 2.1579914699103142 $291 11.662123369272919 $182 $292 forward 7 unknown #
loop $-1 $-1 $189 $114 #
plane-surface $-1 25.436589426615427 -13.309609908253378 55.183327004673401 0 0.73135370988377701 0.68199835119979291 1 0 0 forward_v I I I I #
loop $-1 $-1 $293 $73 #
coedge $-1 $187 $187 $188 $294 reversed $115 $-1 #
coedge $-1 $188 $188 $187 $294 forward $117 $-1 #
coedge $-1 $189 $189 $118 $190 forward $184 $-1 #
edge $-1 $295 -4.7024358241699307e-016 $295 6.2831853071795996 $189 $296 forward 7 unknown #
loop $-1 $-1 $196 $119 #
plane-surface $-1 25.436589426615427 -13.309609908253378 55.183327004673401 0 0.73135370988377701 0.68199835119979291 1 0 0 forward_v I I I I #
loop $-1 $-1 $297 $76 #
coedge $-1 $194 $194 $195 $298 reversed $120 $-1 #
coedge $-1 $195 $195 $194 $298 forward $122 $-1 #
coedge $-1 $196 $196 $123 $197 forward $191 $-1 #
edge $-1 $299 -4.7024358241699307e-016 $299 6.2831853071795996 $196 $300 forward 7 unknown #
face $-1 $301 $302 $41 $-1 $303 forward single #
loop $-1 $-1 $304 $124 #
plane-surface $-1 62.04657124546037 0 0 -1 0 0 0 0 1 forward_v I I I I #
coedge $-1 $305 $306 $307 $308 reversed $125 $-1 #
coedge $-1 $309 $127 $304 $310 reversed $80 $-1 #
coedge $-1 $127 $309 $305 $311 forward $80 $-1 #
coedge $-1 $307 $312 $127 $205 forward $302 $-1 #
edge $-1 $313 -35.384679468021183 $314 -17.939104086857178 $204 $315 forward 7 unknown #
loop $-1 $-1 $211 $128 #
plane-surface $-1 53.323783554878361 -36.565193641898531 3.2504122368292201 0 -0.64278761758704617 0.76604443648966558 1 0 0 forward_v I I I I #
loop $-1 $-1 $316 $82 #
coedge $-1 $209 $209 $210 $317 reversed $129 $-1 #
coedge $-1 $210 $210 $209 $317 forward $131 $-1 #
coedge $-1 $211 $211 $132 $212 forward $206 $-1 #
edge $-1 $318 7.4277846917104454e-016 $318 6.2831853071796013 $211 $319 forward 7 unknown #
loop $-1 $-1 $218 $133 #
plane-surface $-1 53.323783554878361 -36.565193641898531 3.2504122368292201 0 -0.64278761758704617 0.76604443648966558 1 0 0 forward_v I I I I #
loop $-1 $-1 $320 $85 #
coedge $-1 $216 $216 $217 $321 reversed $134 $-1 #
coedge $-1 $217 $217 $216 $321 forward $136 $-1 #
coedge $-1 $218 $218 $137 $219 forward $213 $-1 #
edge $-1 $322 7.4277846917104454e-016 $322 6.2831853071796013 $218 $323 forward 7 unknown #
face $-1 $324 $325 $33 $-1 $326 reversed single #
loop $-1 $-1 $327 $138 #
plane-surface $-1 -62.04657124546037 0 0 1 0 0 0 0 -1 forward_v I I I I #
coedge $-1 $328 $231 $329 $330 forward $139 $-1 #
coedge $-1 $331 $141 $328 $332 forward $89 $-1 #
coedge $-1 $141 $331 $333 $334 forward $89 $-1 #
coedge $-1 $234 $233 $141 $227 reversed $235 $-1 #
edge $-1 $335 -36.565193641898517 $336 36.565193641898517 $226 $337 forward 7 unknown #
coedge $-1 $143 $142 $338 $339 forward $56 $-1 #
coedge $-1 $340 $341 $142 $230 reversed $325 $-1 #
edge $-1 $237 -62.04657124546037 $342 62.04657124546037 $229 $343 forward 7 unknown #
coedge $-1 $223 $344 $143 $232 reversed $139 $-1 #
edge $-1 $345 -62.04657124546037 $236 62.04657124546037 $231 $346 forward 7 unknown #
coedge $-1 $226 $144 $344 $347 forward $235 $-1 #
coedge $-1 $144 $226 $340 $348 reversed $235 $-1 #
loop $-1 $-1 $233 $324 #
vertex $-1 $145 $349 #
vertex $-1 $145 $350 #
straight-curve $-1 62.04657124546037 0 11.891080871874337 0 1 0 I I #
face $-1 $351 $352 $34 $-1 $353 forward single #
loop $-1 $-1 $354 $146 #
plane-surface $-1 -62.04657124546037 0 0 1 0 0 0 0 -1 forward_v I I I I #
coedge $-1 $249 $355 $251 $356 forward $147 $-1 #
coedge $-1 $149 $251 $357 $358 reversed $93 $-1 #
coedge $-1 $359 $247 $149 $245 forward $360 $-1 #
edge $-1 $253 3.6955404359371684 $361 6.6955404359371684 $244 $362 forward 7 unknown #
coedge $-1 $151 $150 $354 $363 reversed $59 $-1 #
coedge $-1 $244 $364 $150 $248 forward $360 $-1 #
edge $-1 $365 -33.873127750408578 $253 -22.473759239695006 $247 $366 forward 7 unknown #
coedge $-1 $367 $242 $151 $250 forward $147 $-1 #
edge $-1 $252 22.473759239695006 $368 33.873127750408578 $249 $369 forward 7 unknown #
coedge $-1 $243 $152 $242 $356 reversed $93 $-1 #
vertex $-1 $250 $370 #
vertex $-1 $248 $371 #
straight-curve $-1 -50.647202734746799 0 8.8910808718743368 0 -1 0 I I #
face $-1 $-1 $372 $35 $-1 $373 reversed single #
loop $-1 $-1 $160 $154 #
plane-surface $-1 0 0 11.891080871874337 0 0 1 1 0 0 forward_v I I I I #
coedge $-1 $374 $375 $376 $377 reversed $155 $-1 #
coedge $-1 $378 $157 $159 $265 forward $97 $-1 #
coedge $-1 $157 $378 $374 $379 forward $97 $-1 #
coedge $-1 $376 $160 $157 $262 forward $256 $-1 #
edge $-1 $268 -18.25015614987154 $380 4.2129352339696773 $261 $381 forward 7 unknown #
coedge $-1 $382 $383 $158 $264 forward $372 $-1 #
edge $-1 $384 -68.208175829910118 $267 -58.016241917466814 $263 $385 forward 7 unknown #
edge $-1 $268 59.194676321090711 $384 73.130387283797063 $159 $386 forward 7 unknown #
coedge $-1 $160 $376 $382 $387 forward $256 $-1 #
vertex $-1 $264 $388 #
vertex $-1 $161 $389 #
straight-curve $-1 -25.268766607822471 38.723185111808831 11.891080871874337 0 -1 0 I I #
coedge $-1 $270 $270 $-1 $390 reversed $164 $-1 #
edge $-1 $391 0 $391 6.2831853071796004 $165 $392 forward 7 unknown #
vertex $-1 $168 $393 #
ellipse-curve $-1 -18.850740498153549 31.813127692217211 6.7951139156526823 0 0.73135370988377701 0.68199835119979291 2.5 0 0 1 I I #
coedge $-1 $274 $274 $-1 $394 reversed $171 $-1 #
edge $-1 $395 0 $395 6.2831853071796004 $172 $396 forward 7 unknown #
vertex $-1 $175 $397 #
ellipse-curve $-1 -9.223701333650169 31.813127692217211 6.7951139156526823 0 0.73135370988377701 0.68199835119979291 2.5 0 0 1 I I #
face $-1 $-1 $398 $38 $-1 $399 reversed single #
loop $-1 $-1 $182 $176 #
plane-surface $-1 0 0 11.891080871874337 0 0 1 1 0 0 forward_v I I I I #
coedge $-1 $400 $401 $402 $403 reversed $177 $-1 #
coedge $-1 $404 $179 $181 $288 forward $111 $-1 #
coedge $-1 $179 $404 $400 $405 forward $111 $-1 #
coedge $-1 $402 $182 $179 $285 forward $279 $-1 #
edge $-1 $291 1.4867490213871051 $406 23.949840405228322 $284 $407 forward 7 unknown #
coedge $-1 $408 $409 $180 $287 forward $398 $-1 #
edge $-1 $410 -68.208175829910118 $290 -58.016241917466814 $286 $411 forward 7 unknown #
edge $-1 $291 59.194676321090711 $410 73.130387283797063 $181 $412 forward 7 unknown #
coedge $-1 $182 $402 $408 $413 forward $279 $-1 #
vertex $-1 $183 $414 #
vertex $-1 $183 $415 #
straight-curve $-1 14.205043734694819 38.723185111808831 11.891080871874337 0 -1 0 I I #
coedge $-1 $293 $293 $-1 $416 reversed $186 $-1 #
edge $-1 $417 0 $417 6.2831853071796004 $187 $418 forward 7 unknown #
vertex $-1 $190 $419 #
ellipse-curve $-1 20.623069844363755 31.813127692217211 6.7951139156526823 0 0.73135370988377701 0.68199835119979291 2.5 0 0 1 I I #
coedge $-1 $297 $297 $-1 $420 reversed $193 $-1 #
edge $-1 $421 0 $421 6.2831853071796004 $194 $422 forward 7 unknown #
vertex $-1 $197 $423 #
ellipse-curve $-1 30.250109008867128 31.813127692217211 6.7951139156526823 0 0.73135370988377701 0.68199835119979291 2.5 0 0 1 I I #
face $-1 $-1 $424 $41 $-1 $425 reversed single #
loop $-1 $-1 $204 $198 #
plane-surface $-1 0 0 11.891080871874337 0 0 1 1 0 0 forward_v I I I I #
coedge $-1 $426 $427 $202 $310 forward $199 $-1 #
coedge $-1 $306 $201 $203 $311 reversed $125 $-1 #
coedge $-1 $201 $305 $428 $429 reversed $125 $-1 #
coedge $-1 $430 $204 $201 $308 forward $302 $-1 #
edge $-1 $314 -31.897718561914537 $431 -21.600170889365145 $307 $432 forward 7 unknown #
coedge $-1 $203 $202 $433 $434 reversed $80 $-1 #
edge $-1 $435 -12.960619210328193 $313 0.48187469999512977 $304 $436 forward 7 unknown #
edge $-1 $437 1.8593432412625586e-014 $314 13.442493910323343 $305 $438 forward 7 unknown #
coedge $-1 $204 $430 $426 $439 forward $302 $-1 #
vertex $-1 $205 $440 #
vertex $-1 $205 $441 #
straight-curve $-1 26.66189177743918 -26.267645969349125 11.891080871874337 -1 0 0 I I #
coedge $-1 $316 $316 $-1 $442 reversed $208 $-1 #
edge $-1 $443 0 $443 6.2831853071796004 $209 $444 forward 7 unknown #
vertex $-1 $212 $445 #
ellipse-curve $-1 49.585445973200365 -31.416419805623821 7.5707465543517847 0 -0.64278761758704617 0.76604443648966558 1 0 0 1 I I #
coedge $-1 $320 $320 $-1 $446 reversed $215 $-1 #
edge $-1 $447 0 $447 6.2831853071796004 $216 $448 forward 7 unknown #
vertex $-1 $219 $449 #
ellipse-curve $-1 57.062121136556371 -31.416419805623821 7.5707465543517847 0 -0.64278761758704617 0.76604443648966558 1 0 0 1 I I #
face $-1 $-1 $235 $33 $-1 $450 reversed single #
loop $-1 $-1 $340 $220 #
plane-surface $-1 0 36.565193641898517 0 0 -1 0 0 0 -1 forward_v I I I I #
coedge $-1 $451 $338 $341 $452 forward $221 $-1 #
coedge $-1 $344 $223 $224 $332 reversed $139 $-1 #
coedge $-1 $338 $451 $223 $330 reversed $221 $-1 #
edge $-1 $345 -11.891080871874337 $453 11.891080871874337 $329 $454 forward 7 unknown #
coedge $-1 $225 $224 $451 $455 forward $89 $-1 #
edge $-1 $336 -62.04657124546037 $453 62.04657124546037 $328 $456 forward 7 unknown #
coedge $-1 $341 $340 $225 $334 reversed $325 $-1 #
edge $-1 $457 -62.04657124546037 $335 62.04657124546037 $333 $458 forward 7 unknown #
vertex $-1 $227 $459 #
vertex $-1 $347 $460 #
straight-curve $-1 62.04657124546037 0 -11.891080871874337 0 -1 0 I I #
coedge $-1 $327 $329 $228 $339 reversed $221 $-1 #
edge $-1 $342 -36.565193641898517 $345 36.565193641898517 $338 $461 forward 7 unknown #
coedge $-1 $333 $229 $234 $348 forward $325 $-1 #
coedge $-1 $229 $333 $327 $452 reversed $325 $-1 #
vertex $-1 $230 $462 #
straight-curve $-1 0 36.565193641898517 11.891080871874337 -1 0 0 I I #
coedge $-1 $231 $328 $233 $347 reversed $139 $-1 #
vertex $-1 $339 $463 #
straight-curve $-1 0 -36.565193641898517 11.891080871874337 1 0 0 I I #
edge $-1 $236 -11.891080871874337 $336 11.891080871874337 $233 $464 forward 7 unknown #
edge $-1 $237 -11.891080871874337 $335 11.891080871874337 $234 $465 forward 7 unknown #
point $-1 62.04657124546037 -36.565193641898517 11.891080871874337 #
point $-1 62.04657124546037 36.565193641898517 11.891080871874337 #
face $-1 $-1 $360 $34 $-1 $466 reversed single #
loop $-1 $-1 $357 $239 #
plane-surface $-1 0 0 11.891080871874337 0 0 1 1 0 0 forward_v I I I I #
coedge $-1 $467 $468 $246 $363 forward $240 $-1 #
coedge $-1 $242 $367 $469 $470 reversed $147 $-1 #
edge $-1 $471 -6.6955404359371684 $252 -3.6955404359371684 $242 $472 forward 7 unknown #
coedge $-1 $469 $473 $243 $358 forward $352 $-1 #
edge $-1 $361 -36.565193641898517 $471 36.565193641898517 $357 $474 forward 7 unknown #
coedge $-1 $364 $244 $473 $475 reversed $360 $-1 #
loop $-1 $-1 $244 $351 #
vertex $-1 $245 $476 #
straight-curve $-1 -50.647202734746799 -36.565193641898517 5.1955404359371684 0 0 1 I I #
edge $-1 $368 -36.565193641898517 $365 36.565193641898517 $354 $477 forward 7 unknown #
coedge $-1 $247 $359 $467 $478 forward $360 $-1 #
vertex $-1 $363 $479 #
straight-curve $-1 -28.173443495051792 -36.565193641898517 8.8910808718743368 1 0 0 I I #
coedge $-1 $355 $249 $468 $480 reversed $147 $-1 #
vertex $-1 $363 $481 #
straight-curve $-1 -28.173443495051792 36.565193641898517 8.8910808718743368 -1 0 0 I I #
point $-1 -50.647202734746799 36.565193641898517 8.8910808718743368 #
point $-1 -50.647202734746799 -36.565193641898517 8.8910808718743368 #
loop $-1 $-1 $263 $255 #
plane-surface $-1 0 36.565193641898517 0 0 -1 0 0 0 -1 forward_v I I I I #
coedge $-1 $375 $258 $260 $379 reversed $155 $-1 #
coedge $-1 $258 $374 $482 $483 reversed $155 $-1 #
coedge $-1 $266 $261 $258 $377 forward $256 $-1 #
edge $-1 $380 -11.662123369272919 $484 -2.1579914699103142 $376 $485 forward 7 unknown #
coedge $-1 $260 $259 $383 $486 reversed $97 $-1 #
edge $-1 $487 -73.130387283797063 $380 -59.194676321090711 $374 $488 forward 7 unknown #
vertex $-1 $262 $489 #
straight-curve $-1 -7.0186104579509312 27.061061742535916 11.891080871874337 1 0 0 I I #
coedge $-1 $482 $263 $266 $387 reversed $372 $-1 #
coedge $-1 $263 $482 $378 $486 forward $372 $-1 #
vertex $-1 $264 $490 #
straight-curve $-1 -25.268766607822471 36.565193641898517 69.907322789341151 0 0 1 I I #
straight-curve $-1 -25.268766607822471 -13.309609908253378 55.183327004673401 0 0.68199835119979291 -0.73135370988377701 I I #
edge $-1 $484 2.8056752239812539 $267 25.268766607822471 $382 $491 forward 7 unknown #
point $-1 -25.268766607822471 36.565193641898517 11.891080871874337 #
point $-1 -25.268766607822471 27.061061742535912 11.891080871874337 #
edge $-1 $492 1 $492 0 $270 $-1 forward 7 unknown #
vertex $-1 $271 $493 #
ellipse-curve $-1 -18.850740498153549 27.298161866726947 2.584840272278258 0 0.73135370988377701 0.68199835119979291 2.5 0 0 1 I I #
point $-1 -16.350740498153549 31.813127692217222 6.7951139156526938 #
edge $-1 $494 1 $494 0 $274 $-1 forward 7 unknown #
vertex $-1 $275 $495 #
ellipse-curve $-1 -9.223701333650169 27.298161866726947 2.584840272278258 0 0.73135370988377701 0.68199835119979291 2.5 0 0 1 I I #
point $-1 -6.723701333650169 31.813127692217222 6.7951139156526938 #
loop $-1 $-1 $286 $278 #
plane-surface $-1 0 36.565193641898517 0 0 -1 0 0 0 -1 forward_v I I I I #
coedge $-1 $401 $281 $283 $405 reversed $177 $-1 #
coedge $-1 $281 $400 $496 $497 reversed $177 $-1 #
coedge $-1 $289 $284 $281 $403 forward $279 $-1 #
edge $-1 $406 -11.662123369272919 $498 -2.1579914699103142 $402 $499 forward 7 unknown #
coedge $-1 $283 $282 $409 $500 reversed $111 $-1 #
edge $-1 $501 -73.130387283797063 $406 -59.194676321090711 $400 $502 forward 7 unknown #
vertex $-1 $285 $503 #
straight-curve $-1 12.718294713307714 27.061061742535916 11.891080871874337 1 0 0 I I #
coedge $-1 $496 $286 $289 $413 reversed $398 $-1 #
coedge $-1 $286 $496 $404 $500 forward $398 $-1 #
vertex $-1 $287 $504 #
straight-curve $-1 14.205043734694819 36.565193641898517 69.907322789341151 0 0 1 I I #
straight-curve $-1 14.205043734694819 -13.309609908253378 55.183327004673401 0 0.68199835119979291 -0.73135370988377701 I I #
edge $-1 $498 -36.668135118536036 $290 -14.205043734694819 $408 $505 forward 7 unknown #
point $-1 14.205043734694819 36.565193641898517 11.891080871874337 #
point $-1 14.205043734694819 27.061061742535912 11.891080871874337 #
edge $-1 $506 1 $506 0 $293 $-1 forward 7 unknown #
vertex $-1 $294 $507 #
ellipse-curve $-1 20.623069844363755 27.298161866726947 2.584840272278258 0 0.73135370988377701 0.68199835119979291 2.5 0 0 1 I I #
point $-1 23.123069844363755 31.813127692217222 6.7951139156526938 #
edge $-1 $508 1 $508 0 $297 $-1 forward 7 unknown #
vertex $-1 $298 $509 #
ellipse-curve $-1 30.250109008867128 27.298161866726947 2.584840272278258 0 0.73135370988377701 0.68199835119979291 2.5 0 0 1 I I #
point $-1 32.750109008867128 31.813127692217222 6.7951139156526938 #
loop $-1 $-1 $433 $301 #
plane-surface $-1 0 -36.565193641898517 0 0 1 0 0 0 1 forward_v I I I I #
coedge $-1 $427 $304 $312 $439 reversed $199 $-1 #
coedge $-1 $304 $426 $510 $511 forward $199 $-1 #
coedge $-1 $433 $512 $306 $429 forward $424 $-1 #
edge $-1 $431 37.264555952384853 $437 45.905224587429956 $428 $513 forward 7 unknown #
coedge $-1 $312 $307 $512 $514 forward $302 $-1 #
vertex $-1 $514 $515 #
straight-curve $-1 44.600995864296358 -58.165364531263663 11.891080871874337 0 -1 0 I I #
coedge $-1 $510 $428 $309 $434 forward $424 $-1 #
edge $-1 $437 17.939104086857178 $435 35.384679468021183 $433 $516 forward 7 unknown #
vertex $-1 $434 $517 #
straight-curve $-1 62.04657124546037 -26.636783402365523 11.581337781488998 0 0.76604443648966558 0.64278761758704617 I I #
vertex $-1 $434 $518 #
straight-curve $-1 44.600995864296358 -36.565193641898531 3.2504122368292201 0 0.76604443648966558 0.64278761758704617 I I #
edge $-1 $519 -36.565193641898517 $313 -26.267645969349125 $426 $520 forward 7 unknown #
point $-1 62.046571245460363 -26.267645969349125 11.891080871874337 #
point $-1 44.600995864296358 -26.267645969349125 11.891080871874337 #
edge $-1 $521 1 $521 0 $316 $-1 forward 7 unknown #
vertex $-1 $317 $522 #
ellipse-curve $-1 49.585445973200365 -29.673770334487372 5.4939378299911965 0 -0.64278761758704617 0.76604443648966558 1 0 0 1 I I #
point $-1 50.585445973200365 -31.416419805623811 7.5707465543517731 #
edge $-1 $523 1 $523 0 $320 $-1 forward 7 unknown #
vertex $-1 $321 $524 #
ellipse-curve $-1 57.062121136556371 -29.673770334487372 5.4939378299911965 0 -0.64278761758704617 0.76604443648966558 1 0 0 1 I I #
point $-1 58.062121136556371 -31.416419805623811 7.5707465543517731 #
plane-surface $-1 62.04657124546037 0 0 -1 0 0 0 0 1 forward_v I I I I #
coedge $-1 $329 $327 $331 $455 reversed $221 $-1 #
edge $-1 $342 -11.891080871874337 $457 11.891080871874337 $341 $525 forward 7 unknown #
vertex $-1 $455 $526 #
straight-curve $-1 -62.04657124546037 -36.565193641898517 0 0 0 -1 I I #
edge $-1 $453 -36.565193641898517 $457 36.565193641898517 $451 $527 forward 7 unknown #
straight-curve $-1 0 -36.565193641898517 -11.891080871874337 -1 0 0 I I #
vertex $-1 $334 $528 #
straight-curve $-1 0 36.565193641898517 -11.891080871874337 1 0 0 I I #
point $-1 62.04657124546037 36.565193641898517 -11.891080871874337 #
point $-1 62.04657124546037 -36.565193641898517 -11.891080871874337 #
straight-curve $-1 -62.04657124546037 0 11.891080871874337 0 -1 0 I I #
point $-1 -62.04657124546037 36.565193641898517 11.891080871874337 #
point $-1 -62.04657124546037 -36.565193641898517 11.891080871874337 #
straight-curve $-1 62.04657124546037 -36.565193641898517 0 0 0 -1 I I #
straight-curve $-1 62.04657124546037 36.565193641898517 0 0 0 -1 I I #
plane-surface $-1 0 -36.565193641898517 0 0 1 0 0 0 1 forward_v I I I I #
coedge $-1 $529 $354 $364 $478 reversed $240 $-1 #
coedge $-1 $354 $529 $367 $480 forward $240 $-1 #
coedge $-1 $530 $357 $355 $470 forward $352 $-1 #
edge $-1 $471 50.647202734746799 $531 62.04657124546037 $355 $532 forward 7 unknown #
vertex $-1 $470 $533 #
straight-curve $-1 -50.647202734746799 36.565193641898517 5.1955404359371684 0 0 -1 I I #
coedge $-1 $357 $530 $359 $475 forward $352 $-1 #
straight-curve $-1 -50.647202734746799 0 11.891080871874337 0 1 0 I I #
edge $-1 $534 -62.04657124546037 $361 -50.647202734746799 $359 $535 forward 7 unknown #
point $-1 -50.647202734746799 -36.565193641898517 11.891080871874337 #
straight-curve $-1 -62.04657124546037 0 8.8910808718743368 0 -1 0 I I #
edge $-1 $534 -11.891080871874337 $365 -8.8910808718743368 $467 $536 forward 7 unknown #
point $-1 -62.04657124546037 -36.565193641898517 8.8910808718743368 #
edge $-1 $531 -11.891080871874337 $368 -8.8910808718743368 $367 $537 forward 7 unknown #
point $-1 -62.04657124546037 36.565193641898517 8.8910808718743368 #
coedge $-1 $383 $382 $375 $483 forward $372 $-1 #
edge $-1 $484 58.016241917466814 $487 68.208175829910118 $482 $538 forward 7 unknown #
vertex $-1 $387 $539 #
straight-curve $-1 -2.8056752239812539 38.723185111808831 11.891080871874337 0 1 0 I I #
edge $-1 $487 -4.2129352339696773 $384 18.25015614987154 $383 $540 forward 7 unknown #
vertex $-1 $486 $541 #
straight-curve $-1 -2.8056752239812539 -13.309609908253378 55.183327004673401 0 -0.68199835119979291 0.73135370988377701 I I #
point $-1 -2.8056752239812539 27.061061742535912 11.891080871874337 #
point $-1 -25.268766607822471 36.565193641898517 1.699146959431026 #
straight-curve $-1 0 36.565193641898517 11.891080871874337 -1 0 0 I I #
vertex $-1 $390 $542 #
point $-1 -16.350740498153549 27.298161866726947 2.584840272278258 #
vertex $-1 $394 $543 #
point $-1 -6.723701333650169 27.298161866726947 2.584840272278258 #
coedge $-1 $409 $408 $401 $497 forward $398 $-1 #
edge $-1 $498 58.016241917466814 $501 68.208175829910118 $496 $544 forward 7 unknown #
vertex $-1 $413 $545 #
straight-curve $-1 36.668135118536036 38.723185111808831 11.891080871874337 0 1 0 I I #
edge $-1 $501 -23.949840405228322 $410 -1.4867490213871051 $409 $546 forward 7 unknown #
vertex $-1 $500 $547 #
straight-curve $-1 36.668135118536036 -13.309609908253378 55.183327004673401 0 -0.68199835119979291 0.73135370988377701 I I #
point $-1 36.668135118536036 27.061061742535912 11.891080871874337 #
point $-1 14.205043734694819 36.565193641898517 1.699146959431026 #
straight-curve $-1 0 36.565193641898517 11.891080871874337 -1 0 0 I I #
vertex $-1 $416 $548 #
point $-1 23.123069844363755 27.298161866726947 2.584840272278258 #
vertex $-1 $420 $549 #
point $-1 32.750109008867128 27.298161866726947 2.584840272278258 #
coedge $-1 $512 $433 $427 $511 reversed $424 $-1 #
edge $-1 $519 -11.891080871874337 $435 -3.2504122368292321 $427 $550 forward 7 unknown #
coedge $-1 $428 $510 $430 $514 reversed $424 $-1 #
straight-curve $-1 44.600995864296358 -36.565193641898517 49.15563682425919 0 0 -1 I I #
edge $-1 $431 44.600995864296358 $519 62.04657124546037 $512 $551 forward 7 unknown #
point $-1 44.600995864296358 -36.565193641898517 11.891080871874337 #
straight-curve $-1 26.66189177743918 -36.565193641898517 3.2504122368292325 1 0 0 I I #
point $-1 62.046571245460363 -36.565193641898517 3.2504122368292321 #
point $-1 44.600995864296358 -36.565193641898517 3.2504122368292321 #
vertex $-1 $439 $552 #
straight-curve $-1 62.04657124546037 0 11.891080871874337 0 1 0 I I #
vertex $-1 $442 $553 #
point $-1 50.585445973200365 -29.673770334487372 5.4939378299911965 #
vertex $-1 $446 $554 #
point $-1 58.062121136556371 -29.673770334487372 5.4939378299911965 #
straight-curve $-1 -62.04657124546037 36.565193641898517 0 0 0 -1 I I #
point $-1 -62.04657124546037 -36.565193641898517 -11.891080871874337 #
straight-curve $-1 -62.04657124546037 0 -11.891080871874337 0 1 0 I I #
point $-1 -62.04657124546037 36.565193641898517 -11.891080871874337 #
coedge $-1 $468 $467 $530 $555 reversed $240 $-1 #
coedge $-1 $473 $469 $529 $555 forward $352 $-1 #
vertex $-1 $470 $556 #
straight-curve $-1 0 36.565193641898517 11.891080871874337 -1 0 0 I I #
point $-1 -50.647202734746799 36.565193641898517 11.891080871874337 #
vertex $-1 $555 $557 #
straight-curve $-1 0 -36.565193641898517 11.891080871874337 1 0 0 I I #
straight-curve $-1 -62.04657124546037 -36.565193641898517 0 0 0 -1 I I #
straight-curve $-1 -62.04657124546037 36.565193641898517 0 0 0 -1 I I #
straight-curve $-1 -2.8056752239812539 36.565193641898517 69.907322789341151 0 0 -1 I I #
point $-1 -2.8056752239812539 36.565193641898517 11.891080871874337 #
straight-curve $-1 -7.0186104579509312 36.565193641898517 1.6991469594310331 -1 0 0 I I #
point $-1 -2.8056752239812539 36.565193641898517 1.699146959431026 #
point $-1 -18.850740498153549 25.469777592017504 0.8798443942787757 #
point $-1 -9.223701333650169 25.469777592017504 0.8798443942787757 #
straight-curve $-1 36.668135118536036 36.565193641898517 69.907322789341151 0 0 -1 I I #
point $-1 36.668135118536036 36.565193641898517 11.891080871874337 #
straight-curve $-1 12.718294713307714 36.565193641898517 1.6991469594310331 -1 0 0 I I #
point $-1 36.668135118536036 36.565193641898517 1.699146959431026 #
point $-1 20.623069844363755 25.469777592017504 0.8798443942787757 #
point $-1 30.250109008867128 25.469777592017504 0.8798443942787757 #
straight-curve $-1 62.04657124546037 -36.565193641898517 0 0 0 -1 I I #
straight-curve $-1 0 -36.565193641898517 11.891080871874337 1 0 0 I I #
point $-1 62.04657124546037 -36.565193641898517 11.891080871874337 #
point $-1 49.585445973200365 -29.030982716900326 4.7278933935015317 #
point $-1 57.062121136556371 -29.030982716900326 4.7278933935015317 #
edge $-1 $531 -36.565193641898517 $534 36.565193641898517 $529 $558 forward 7 unknown #
point $-1 -62.04657124546037 36.565193641898517 11.891080871874337 #
point $-1 -62.04657124546037 -36.565193641898517 11.891080871874337 #
straight-curve $-1 -62.04657124546037 0 11.891080871874337 0 -1 0 I I #
End-of-ACIS-data 