500 0 5 0           
7 Unknown 11 ACIS 5.0 NT 24 Fri Mar 26 15:30:13 1999 
-1 9.9999999999999995e-007 1e-010 
body $-1 $5 $-1 $6 #
body $-1 $7 $-1 $8 #
body $-1 $9 $-1 $10 #
body $-1 $11 $-1 $12 #
body $-1 $13 $-1 $14 #
lump $-1 $-1 $15 $0 #
transform $-1 1 0 0 0 1 0 0 0 1 74.969328897976624 48.69448612737316 23.739137844309735 1 rotate no_reflect no_shear #
lump $-1 $-1 $16 $1 #
transform $-1 1 0 0 0 1 0 0 0 1 74.969328897976624 48.69448612737316 23.739137844309735 1 rotate no_reflect no_shear #
lump $-1 $-1 $17 $2 #
transform $-1 1 0 0 0 1 0 0 0 1 74.969328897976624 48.69448612737316 23.739137844309735 1 rotate no_reflect no_shear #
lump $-1 $-1 $18 $3 #
transform $-1 1 0 0 0 1 0 0 0 1 74.969328897976624 48.69448612737316 23.739137844309735 1 rotate no_reflect no_shear #
lump $-1 $-1 $19 $4 #
transform $-1 1 0 0 0 1 0 0 0 1 74.969328897976624 48.69448612737316 23.739137844309735 1 rotate no_reflect no_shear #
shell $-1 $-1 $-1 $20 $-1 $5 #
shell $-1 $-1 $-1 $21 $-1 $7 #
shell $-1 $-1 $-1 $22 $-1 $9 #
shell $-1 $-1 $-1 $23 $-1 $11 #
shell $-1 $-1 $-1 $24 $-1 $13 #
face $-1 $25 $26 $15 $-1 $27 forward single #
face $-1 $28 $29 $16 $-1 $30 forward single #
face $-1 $31 $32 $17 $-1 $33 reversed single #
face $-1 $34 $35 $18 $-1 $36 forward single #
face $-1 $37 $38 $19 $-1 $39 forward single #
face $-1 $40 $41 $15 $-1 $42 reversed single #
loop $-1 $-1 $43 $20 #
plane-surface $-1 0 0 23.739137844309735 0 0 1 1 0 0 forward_v I I I I #
face $-1 $44 $45 $16 $-1 $46 reversed single #
loop $-1 $-1 $47 $21 #
plane-surface $-1 -66.810504472038275 0 -12.414230364297531 0 0 1 1 0 0 forward_v I I I I #
face $-1 $48 $49 $17 $-1 $50 reversed single #
loop $-1 $-1 $51 $22 #
plane-surface $-1 97.134099285770674 22.221315310417829 226.38344021848755 0 -1 0 -0.77714596973225614 0 -0.62932038083071107 forward_v I I I I #
face $-1 $52 $53 $18 $-1 $54 forward single #
loop $-1 $55 $56 $23 #
cone-surface $-1 69.988711922554586 7.7581173351048989 18.28771211890308 -0.77714596973225614 0 -0.62932038083071107 1.2586407616614221 0 -1.5542919394645123 1 I I 0 1 2 forward I I I I #
face $-1 $57 $58 $19 $-1 $59 forward single #
loop $-1 $60 $61 $24 #
cone-surface $-1 69.988711922554586 16.436036120292663 18.28771211890308 -0.77714596973225614 0 -0.62932038083071107 1.2586407616614221 0 -1.5542919394645123 1 I I 0 1 2 forward I I I I #
face $-1 $62 $63 $15 $-1 $64 reversed single #
loop $-1 $-1 $65 $25 #
plane-surface $-1 0 0 -23.739137844309735 0 0 1 1 0 0 forward_v I I I I #
coedge $-1 $66 $67 $68 $69 forward $26 $-1 #
face $-1 $70 $71 $16 $-1 $72 reversed single #
loop $-1 $-1 $73 $28 #
plane-surface $-1 -66.810504472038275 0 -22.751879764622721 0 0 1 1 0 0 forward_v I I I I #
coedge $-1 $74 $75 $76 $77 forward $29 $-1 #
face $-1 $78 $79 $17 $-1 $80 reversed single #
loop $-1 $-1 $81 $31 #
plane-surface $-1 -19.39012432741832 12.097076727698777 132.02398699309259 0.77714596973225614 0 0.62932038083071107 0.62932038083071107 0 -0.77714596973225614 forward_v I I I I #
coedge $-1 $82 $83 $84 $85 reversed $32 $-1 #
face $-1 $-1 $86 $18 $-1 $87 forward single #
loop $-1 $88 $89 $34 #
cone-surface $-1 67.567005830100243 7.7581173351048989 16.326653244868798 -0.77714596973225614 0 -0.62932038083071107 0.62932038083071107 0 -0.77714596973225614 1 I I -0.70710678118654746 0.70710678118654746 1 forward I I I I #
loop $-1 $-1 $90 $23 #
coedge $-1 $56 $56 $91 $92 reversed $35 $-1 #
face $-1 $-1 $93 $19 $-1 $94 forward single #
loop $-1 $95 $96 $37 #
cone-surface $-1 67.567005830100243 16.436036120292663 16.326653244868798 -0.77714596973225614 0 -0.62932038083071107 0.62932038083071107 0 -0.77714596973225614 1 I I -0.70710678118654746 0.70710678118654746 1 forward I I I I #
loop $-1 $-1 $97 $24 #
coedge $-1 $61 $61 $98 $99 reversed $38 $-1 #
face $-1 $100 $101 $15 $-1 $102 reversed single #
loop $-1 $-1 $103 $40 #
plane-surface $-1 0 -48.69448612737316 0 0 1 0 0 0 1 forward_v I I I I #
coedge $-1 $104 $105 $106 $107 forward $41 $-1 #
coedge $-1 $108 $43 $109 $110 forward $26 $-1 #
coedge $-1 $43 $108 $111 $112 forward $26 $-1 #
coedge $-1 $113 $114 $43 $69 reversed $115 $-1 #
edge $-1 $116 -48.69448612737316 $117 48.69448612737316 $68 $118 forward 7 unknown #
face $-1 $119 $120 $16 $-1 $121 reversed single #
loop $-1 $-1 $122 $44 #
plane-surface $-1 -58.651680046099933 0 -17.583055064460126 -1 0 0 0 0 1 forward_v I I I I #
coedge $-1 $123 $124 $125 $126 forward $45 $-1 #
coedge $-1 $127 $47 $128 $129 reversed $29 $-1 #
coedge $-1 $47 $127 $130 $131 reversed $29 $-1 #
coedge $-1 $122 $132 $47 $77 reversed $71 $-1 #
edge $-1 $133 -48.69448612737316 $134 48.69448612737316 $76 $135 forward 7 unknown #
face $-1 $136 $137 $17 $-1 $138 reversed single #
loop $-1 $-1 $139 $48 #
plane-surface $-1 97.134099285770674 1.9728381449797254 226.38344021848755 0 1 0 0.77714596973225614 0 0.62932038083071107 forward_v I I I I #
coedge $-1 $140 $141 $142 $143 reversed $49 $-1 #
coedge $-1 $83 $51 $144 $145 reversed $32 $-1 #
coedge $-1 $51 $82 $140 $146 reversed $32 $-1 #
coedge $-1 $142 $147 $51 $85 forward $148 $-1 #
edge $-1 $149 -26.402279255091287 $150 -19.730165549691364 $84 $151 forward 7 unknown #
loop $-1 $-1 $91 $52 #
plane-surface $-1 -19.39012432741832 12.097076727698777 132.02398699309259 0.77714596973225614 0 0.62932038083071107 0.62932038083071107 0 -0.77714596973225614 forward_v I I I I #
loop $-1 $-1 $152 $34 #
coedge $-1 $89 $89 $90 $153 reversed $53 $-1 #
coedge $-1 $90 $90 $89 $153 forward $55 $-1 #
coedge $-1 $91 $91 $56 $92 forward $86 $-1 #
edge $-1 $154 0 $154 6.2831853071796004 $91 $155 forward 7 unknown #
loop $-1 $-1 $98 $57 #
plane-surface $-1 -19.39012432741832 12.097076727698777 132.02398699309259 0.77714596973225614 0 0.62932038083071107 0.62932038083071107 0 -0.77714596973225614 forward_v I I I I #
loop $-1 $-1 $156 $37 #
coedge $-1 $96 $96 $97 $157 reversed $58 $-1 #
coedge $-1 $97 $97 $96 $157 forward $60 $-1 #
coedge $-1 $98 $98 $61 $99 forward $93 $-1 #
edge $-1 $158 0 $158 6.2831853071796004 $98 $159 forward 7 unknown #
face $-1 $160 $161 $15 $-1 $162 reversed single #
loop $-1 $-1 $163 $62 #
plane-surface $-1 -74.969328897976624 0 0 1 0 0 0 0 -1 forward_v I I I I #
coedge $-1 $164 $111 $165 $166 forward $63 $-1 #
coedge $-1 $167 $65 $164 $168 forward $41 $-1 #
coedge $-1 $65 $167 $169 $170 forward $41 $-1 #
coedge $-1 $114 $113 $65 $107 reversed $115 $-1 #
edge $-1 $171 -48.69448612737316 $172 48.69448612737316 $106 $173 forward 7 unknown #
coedge $-1 $67 $66 $174 $175 forward $26 $-1 #
coedge $-1 $176 $177 $66 $110 reversed $161 $-1 #
edge $-1 $117 -74.969328897976624 $178 74.969328897976624 $109 $179 forward 7 unknown #
coedge $-1 $103 $180 $67 $112 reversed $63 $-1 #
edge $-1 $181 -74.969328897976624 $116 74.969328897976624 $111 $182 forward 7 unknown #
coedge $-1 $106 $68 $180 $183 forward $115 $-1 #
coedge $-1 $68 $106 $176 $184 reversed $115 $-1 #
loop $-1 $-1 $113 $160 #
vertex $-1 $69 $185 #
vertex $-1 $69 $186 #
straight-curve $-1 74.969328897976624 0 23.739137844309735 0 1 0 I I #
face $-1 $187 $188 $16 $-1 $189 reversed single #
loop $-1 $-1 $190 $70 #
plane-surface $-1 0 -48.69448612737316 0 0 1 0 0 0 1 forward_v I I I I #
coedge $-1 $125 $76 $191 $192 reversed $71 $-1 #
coedge $-1 $193 $73 $190 $194 reversed $45 $-1 #
coedge $-1 $73 $193 $195 $196 reversed $45 $-1 #
coedge $-1 $132 $122 $73 $126 reversed $71 $-1 #
edge $-1 $197 -48.69448612737316 $198 48.69448612737316 $125 $199 forward 7 unknown #
coedge $-1 $75 $74 $200 $201 reversed $29 $-1 #
coedge $-1 $202 $203 $74 $129 forward $204 $-1 #
edge $-1 $205 -41.564076661957486 $134 -25.246427810080796 $128 $206 forward 7 unknown #
coedge $-1 $207 $191 $75 $131 forward $120 $-1 #
edge $-1 $133 25.246427810080796 $208 41.564076661957486 $130 $209 forward 7 unknown #
coedge $-1 $76 $125 $202 $210 reversed $71 $-1 #
vertex $-1 $131 $211 #
vertex $-1 $129 $212 #
straight-curve $-1 -58.651680046099933 0 -12.414230364297531 0 1 0 I I #
face $-1 $-1 $148 $17 $-1 $213 forward single #
loop $-1 $-1 $214 $78 #
plane-surface $-1 74.969328897976624 0 0 -1 0 0 0 0 1 forward_v I I I I #
coedge $-1 $215 $216 $217 $218 reversed $79 $-1 #
coedge $-1 $219 $81 $83 $146 forward $49 $-1 #
coedge $-1 $81 $219 $215 $220 forward $49 $-1 #
coedge $-1 $217 $84 $81 $143 forward $148 $-1 #
edge $-1 $150 -16.17277694656844 $221 4.0757002188696632 $142 $222 forward 7 unknown #
coedge $-1 $223 $224 $82 $145 forward $137 $-1 #
edge $-1 $225 -97.691956729340149 $149 -89.452582264934037 $144 $226 forward 7 unknown #
edge $-1 $150 139.33656399979705 $225 149.93865779595322 $83 $227 forward 7 unknown #
coedge $-1 $84 $217 $223 $228 forward $148 $-1 #
loop $-1 $-1 $217 $136 #
vertex $-1 $145 $229 #
vertex $-1 $85 $230 #
straight-curve $-1 48.567049642885337 22.221315310417829 23.739137844309738 -1 0 0 I I #
coedge $-1 $152 $152 $-1 $231 reversed $88 $-1 #
edge $-1 $232 0 $232 6.2831853071796004 $89 $233 forward 7 unknown #
vertex $-1 $92 $234 #
ellipse-curve $-1 71.633272045276684 7.7581173351048989 19.619450612106661 0.77714596973225614 0 0.62932038083071107 1.2586407616614221 0 -1.5542919394645123 1 I I #
coedge $-1 $156 $156 $-1 $235 reversed $95 $-1 #
edge $-1 $236 0 $236 6.2831853071796004 $96 $237 forward 7 unknown #
vertex $-1 $99 $238 #
ellipse-curve $-1 71.633272045276684 16.436036120292663 19.619450612106661 0.77714596973225614 0 0.62932038083071107 1.2586407616614221 0 -1.5542919394645123 1 I I #
face $-1 $-1 $115 $15 $-1 $239 reversed single #
loop $-1 $-1 $176 $100 #
plane-surface $-1 0 48.69448612737316 0 0 -1 0 0 0 -1 forward_v I I I I #
coedge $-1 $240 $174 $177 $241 forward $101 $-1 #
coedge $-1 $180 $103 $104 $168 reversed $63 $-1 #
coedge $-1 $174 $240 $103 $166 reversed $101 $-1 #
edge $-1 $181 -23.739137844309735 $242 23.739137844309735 $165 $243 forward 7 unknown #
coedge $-1 $105 $104 $240 $244 forward $41 $-1 #
edge $-1 $172 -74.969328897976624 $242 74.969328897976624 $164 $245 forward 7 unknown #
coedge $-1 $177 $176 $105 $170 reversed $161 $-1 #
edge $-1 $246 -74.969328897976624 $171 74.969328897976624 $169 $247 forward 7 unknown #
vertex $-1 $107 $248 #
vertex $-1 $183 $249 #
straight-curve $-1 74.969328897976624 0 -23.739137844309735 0 -1 0 I I #
coedge $-1 $163 $165 $108 $175 reversed $101 $-1 #
edge $-1 $178 -48.69448612737316 $181 48.69448612737316 $174 $250 forward 7 unknown #
coedge $-1 $169 $109 $114 $184 forward $161 $-1 #
coedge $-1 $109 $169 $163 $241 reversed $161 $-1 #
vertex $-1 $110 $251 #
straight-curve $-1 0 48.69448612737316 23.739137844309735 -1 0 0 I I #
coedge $-1 $111 $164 $113 $183 reversed $63 $-1 #
vertex $-1 $175 $252 #
straight-curve $-1 0 -48.69448612737316 23.739137844309735 1 0 0 I I #
edge $-1 $116 -23.739137844309735 $172 23.739137844309735 $113 $253 forward 7 unknown #
edge $-1 $117 -23.739137844309735 $171 23.739137844309735 $114 $254 forward 7 unknown #
point $-1 74.969328897976624 -48.69448612737316 23.739137844309735 #
point $-1 74.969328897976624 48.69448612737316 23.739137844309735 #
face $-1 $-1 $204 $16 $-1 $255 reversed single #
loop $-1 $-1 $256 $119 #
plane-surface $-1 -74.969328897976624 0 0 1 0 0 0 0 -1 forward_v I I I I #
coedge $-1 $191 $207 $123 $194 forward $120 $-1 #
coedge $-1 $130 $190 $122 $192 forward $120 $-1 #
edge $-1 $198 -13.960352232392658 $133 -3.6227028320674677 $191 $257 forward 7 unknown #
coedge $-1 $124 $123 $256 $258 reversed $45 $-1 #
edge $-1 $259 -41.564076661957486 $198 -25.246427810080796 $190 $260 forward 7 unknown #
coedge $-1 $203 $202 $124 $196 forward $204 $-1 #
edge $-1 $197 25.246427810080796 $261 41.564076661957486 $195 $262 forward 7 unknown #
vertex $-1 $196 $263 #
vertex $-1 $194 $264 #
straight-curve $-1 -58.651680046099933 0 -22.751879764622721 0 -1 0 I I #
coedge $-1 $265 $266 $127 $201 forward $188 $-1 #
edge $-1 $208 -48.69448612737316 $205 48.69448612737316 $200 $267 forward 7 unknown #
coedge $-1 $195 $128 $132 $210 forward $204 $-1 #
coedge $-1 $128 $195 $265 $268 reversed $204 $-1 #
loop $-1 $-1 $195 $187 #
vertex $-1 $268 $269 #
straight-curve $-1 -33.405252236019138 48.69448612737316 -12.414230364297531 1 0 0 I I #
coedge $-1 $190 $130 $266 $270 forward $120 $-1 #
vertex $-1 $270 $271 #
straight-curve $-1 -33.405252236019138 -48.69448612737316 -12.414230364297531 -1 0 0 I I #
edge $-1 $134 3.6227028320674677 $197 13.960352232392658 $202 $272 forward 7 unknown #
point $-1 -58.651680046099933 -48.69448612737316 -12.414230364297531 #
point $-1 -58.651680046099933 48.69448612737316 -12.414230364297531 #
plane-surface $-1 0 0 23.739137844309735 0 0 1 1 0 0 forward_v I I I I #
coedge $-1 $224 $223 $216 $273 forward $137 $-1 #
coedge $-1 $216 $139 $141 $220 reversed $79 $-1 #
coedge $-1 $139 $215 $214 $273 reversed $79 $-1 #
coedge $-1 $147 $142 $139 $218 forward $148 $-1 #
edge $-1 $221 19.730165549691364 $274 26.402279255091287 $217 $275 forward 7 unknown #
coedge $-1 $141 $140 $224 $276 reversed $49 $-1 #
edge $-1 $277 -149.93865779595322 $221 -139.33656399979705 $215 $278 forward 7 unknown #
vertex $-1 $143 $279 #
straight-curve $-1 68.297215192576715 6.0485383638493886 23.739137844309752 0 -1 0 I I #
coedge $-1 $214 $144 $147 $228 reversed $137 $-1 #
coedge $-1 $144 $214 $219 $276 forward $137 $-1 #
vertex $-1 $145 $280 #
straight-curve $-1 74.969328897976624 22.221315310417829 113.19172010924378 0 0 1 I I #
straight-curve $-1 -19.39012432741832 22.221315310417829 132.02398699309259 0.62932038083071107 0 -0.77714596973225614 I I #
edge $-1 $274 1.9728381449797254 $149 22.221315310417829 $223 $281 forward 7 unknown #
point $-1 74.969328897976624 22.221315310417829 23.739137844309735 #
point $-1 68.297215192576701 22.221315310417829 23.739137844309738 #
edge $-1 $282 1 $282 0 $152 $-1 forward 7 unknown #
vertex $-1 $153 $283 #
ellipse-curve $-1 68.344151799832503 7.7581173351048989 16.95597362569951 0.77714596973225614 0 0.62932038083071107 1.2586407616614221 0 -1.5542919394645123 1 I I #
point $-1 72.891912806938095 7.7581173351048989 18.065158672642141 #
edge $-1 $284 1 $284 0 $156 $-1 forward 7 unknown #
vertex $-1 $157 $285 #
ellipse-curve $-1 68.344151799832503 16.436036120292663 16.95597362569951 0.77714596973225614 0 0.62932038083071107 1.2586407616614221 0 -1.5542919394645123 1 I I #
point $-1 72.891912806938095 16.436036120292663 18.065158672642141 #
plane-surface $-1 74.969328897976624 0 0 -1 0 0 0 0 1 forward_v I I I I #
coedge $-1 $165 $163 $167 $244 reversed $101 $-1 #
edge $-1 $178 -23.739137844309735 $246 23.739137844309735 $177 $286 forward 7 unknown #
vertex $-1 $244 $287 #
straight-curve $-1 -74.969328897976624 -48.69448612737316 0 0 0 -1 I I #
edge $-1 $242 -48.69448612737316 $246 48.69448612737316 $240 $288 forward 7 unknown #
straight-curve $-1 0 -48.69448612737316 -23.739137844309735 -1 0 0 I I #
vertex $-1 $170 $289 #
straight-curve $-1 0 48.69448612737316 -23.739137844309735 1 0 0 I I #
point $-1 74.969328897976624 48.69448612737316 -23.739137844309735 #
point $-1 74.969328897976624 -48.69448612737316 -23.739137844309735 #
straight-curve $-1 -74.969328897976624 0 23.739137844309735 0 -1 0 I I #
point $-1 -74.969328897976624 48.69448612737316 23.739137844309735 #
point $-1 -74.969328897976624 -48.69448612737316 23.739137844309735 #
straight-curve $-1 74.969328897976624 -48.69448612737316 0 0 0 -1 I I #
straight-curve $-1 74.969328897976624 48.69448612737316 0 0 0 -1 I I #
plane-surface $-1 0 48.69448612737316 0 0 -1 0 0 0 -1 forward_v I I I I #
coedge $-1 $266 $265 $193 $258 forward $188 $-1 #
straight-curve $-1 -58.651680046099933 -48.69448612737316 -8.791527532230063 0 0 1 I I #
edge $-1 $261 -48.69448612737316 $259 48.69448612737316 $256 $290 forward 7 unknown #
vertex $-1 $194 $291 #
straight-curve $-1 -33.405252236019138 -48.69448612737316 -22.751879764622721 1 0 0 I I #
vertex $-1 $196 $292 #
straight-curve $-1 -33.405252236019138 48.69448612737316 -22.751879764622721 -1 0 0 I I #
point $-1 -58.651680046099933 48.69448612737316 -22.751879764622721 #
point $-1 -58.651680046099933 -48.69448612737316 -22.751879764622721 #
coedge $-1 $256 $200 $203 $268 forward $188 $-1 #
coedge $-1 $200 $256 $207 $270 reversed $188 $-1 #
straight-curve $-1 -74.969328897976624 0 -12.414230364297531 0 1 0 I I #
edge $-1 $205 12.414230364297531 $261 22.751879764622721 $203 $293 forward 7 unknown #
point $-1 -74.969328897976624 48.69448612737316 -12.414230364297531 #
edge $-1 $208 12.414230364297531 $259 22.751879764622721 $266 $294 forward 7 unknown #
point $-1 -74.969328897976624 -48.69448612737316 -12.414230364297531 #
straight-curve $-1 -58.651680046099933 48.69448612737316 -8.791527532230063 0 0 -1 I I #
edge $-1 $274 89.452582264934037 $277 97.691956729340149 $214 $295 forward 7 unknown #
vertex $-1 $228 $296 #
straight-curve $-1 48.567049642885337 1.9728381449797254 23.739137844309738 1 0 0 I I #
edge $-1 $277 -4.0757002188696632 $225 16.17277694656844 $224 $297 forward 7 unknown #
vertex $-1 $276 $298 #
straight-curve $-1 -19.39012432741832 1.9728381449797254 132.02398699309259 -0.62932038083071107 0 0.77714596973225614 I I #
point $-1 68.297215192576701 1.9728381449797254 23.739137844309738 #
point $-1 74.969328897976624 22.221315310417829 15.499763379903627 #
straight-curve $-1 74.969328897976624 0 23.739137844309735 0 1 0 I I #
vertex $-1 $231 $299 #
point $-1 69.602792561493928 7.7581173351048989 15.401681686234996 #
vertex $-1 $235 $300 #
point $-1 69.602792561493928 16.436036120292663 15.401681686234996 #
straight-curve $-1 -74.969328897976624 48.69448612737316 0 0 0 -1 I I #
point $-1 -74.969328897976624 -48.69448612737316 -23.739137844309735 #
straight-curve $-1 -74.969328897976624 0 -23.739137844309735 0 1 0 I I #
point $-1 -74.969328897976624 48.69448612737316 -23.739137844309735 #
straight-curve $-1 -74.969328897976624 0 -22.751879764622721 0 -1 0 I I #
point $-1 -74.969328897976624 -48.69448612737316 -22.751879764622721 #
point $-1 -74.969328897976624 48.69448612737316 -22.751879764622721 #
straight-curve $-1 -74.969328897976624 48.69448612737316 0 0 0 -1 I I #
straight-curve $-1 -74.969328897976624 -48.69448612737316 0 0 0 -1 I I #
straight-curve $-1 74.969328897976624 1.9728381449797254 113.19172010924378 0 0 -1 I I #
point $-1 74.969328897976624 1.9728381449797254 23.739137844309735 #
straight-curve $-1 74.969328897976624 6.0485383638493886 15.499763379903627 0 1 0 I I #
point $-1 74.969328897976624 1.9728381449797254 15.499763379903627 #
point $-1 66.789859860367983 7.7581173351048989 15.697332864038087 #
point $-1 66.789859860367983 16.436036120292663 15.697332864038087 #
End-of-ACIS-data 