500 0 6 0           
7 Unknown 11 ACIS 5.0 NT 24 Fri Mar 26 18:23:20 1999 
-1 9.9999999999999995e-007 1e-010 
body $-1 $6 $-1 $7 #
body $-1 $8 $-1 $9 #
body $-1 $10 $-1 $11 #
body $-1 $12 $-1 $13 #
body $-1 $14 $-1 $15 #
body $-1 $16 $-1 $17 #
lump $-1 $-1 $18 $0 #
transform $-1 1 0 0 0 1 0 0 0 1 61.956236457411421 32.825441542371628 8.3214152261685292 1 rotate no_reflect no_shear #
lump $-1 $-1 $19 $1 #
transform $-1 1 0 0 0 1 0 0 0 1 61.956236457411421 32.825441542371628 8.3214152261685292 1 rotate no_reflect no_shear #
lump $-1 $-1 $20 $2 #
transform $-1 1 0 0 0 1 0 0 0 1 61.956236457411421 32.825441542371628 8.3214152261685292 1 rotate no_reflect no_shear #
lump $-1 $-1 $21 $3 #
transform $-1 1 0 0 0 1 0 0 0 1 61.956236457411421 32.825441542371628 8.3214152261685292 1 rotate no_reflect no_shear #
lump $-1 $-1 $22 $4 #
transform $-1 1 0 0 0 1 0 0 0 1 61.956236457411421 32.825441542371628 8.3214152261685292 1 rotate no_reflect no_shear #
lump $-1 $-1 $23 $5 #
transform $-1 1 0 0 0 1 0 0 0 1 61.956236457411421 32.825441542371628 8.3214152261685292 1 rotate no_reflect no_shear #
shell $-1 $-1 $-1 $24 $-1 $6 #
shell $-1 $-1 $-1 $25 $-1 $8 #
shell $-1 $-1 $-1 $26 $-1 $10 #
shell $-1 $-1 $-1 $27 $-1 $12 #
shell $-1 $-1 $-1 $28 $-1 $14 #
shell $-1 $-1 $-1 $29 $-1 $16 #
face $-1 $30 $31 $18 $-1 $32 forward single #
face $-1 $33 $34 $19 $-1 $35 forward single #
face $-1 $36 $37 $20 $-1 $38 forward single #
face $-1 $39 $40 $21 $-1 $41 reversed single #
face $-1 $42 $43 $22 $-1 $44 forward single #
face $-1 $45 $46 $23 $-1 $47 forward single #
face $-1 $48 $49 $18 $-1 $50 reversed single #
loop $-1 $-1 $51 $24 #
plane-surface $-1 0 0 8.3214152261685292 0 0 1 1 0 0 forward_v I I I I #
face $-1 $52 $53 $19 $-1 $54 forward single #
loop $-1 $-1 $55 $25 #
plane-surface $-1 0 -32.825441542371628 0 0 1 0 0 0 1 forward_v I I I I #
face $-1 $56 $57 $20 $-1 $58 reversed single #
loop $-1 $-1 $59 $26 #
plane-surface $-1 0 32.825441542371628 0 0 -1 0 0 0 -1 forward_v I I I I #
face $-1 $60 $61 $21 $-1 $62 reversed single #
loop $-1 $-1 $63 $27 #
plane-surface $-1 -141.60563971164976 4.4469137715169254 98.206059671947415 0 1 0 -0.64278761758704617 0 0.76604443648966558 forward_v I I I I #
face $-1 $64 $65 $22 $-1 $66 forward single #
loop $-1 $67 $68 $28 #
cone-surface $-1 -58.279653724083637 8.8756608656638178 4.9984726501397825 0.64278761758704617 0 -0.76604443648966558 1.1490666547344983 0 0.96418142638056925 1 I I 0 1 1.5 forward I I I I #
face $-1 $69 $70 $23 $-1 $71 forward single #
loop $-1 $72 $73 $29 #
cone-surface $-1 -58.279653724083637 15.518781506884153 4.9984726501397825 0.64278761758704617 0 -0.76604443648966558 1.1490666547344983 0 0.96418142638056925 1 I I 0 1 1.5 forward I I I I #
face $-1 $74 $75 $18 $-1 $76 reversed single #
loop $-1 $-1 $77 $30 #
plane-surface $-1 0 0 -8.3214152261685292 0 0 1 1 0 0 forward_v I I I I #
coedge $-1 $78 $79 $80 $81 forward $31 $-1 #
face $-1 $82 $83 $19 $-1 $84 reversed single #
loop $-1 $-1 $85 $33 #
plane-surface $-1 0 0 8.3214152261685292 0 0 1 1 0 0 forward_v I I I I #
coedge $-1 $86 $87 $88 $89 forward $34 $-1 #
face $-1 $90 $91 $20 $-1 $92 reversed single #
loop $-1 $-1 $93 $36 #
plane-surface $-1 61.956236457411421 0 0 -1 0 0 0 0 1 forward_v I I I I #
coedge $-1 $94 $95 $96 $97 forward $37 $-1 #
face $-1 $98 $99 $21 $-1 $100 reversed single #
loop $-1 $-1 $101 $39 #
plane-surface $-1 -61.956236457411393 12.197221186273985 3.2835991838710044 -0.64278761758704617 0 0.76604443648966558 0.76604443648966558 0 0.64278761758704617 forward_v I I I I #
coedge $-1 $102 $103 $104 $105 reversed $40 $-1 #
face $-1 $-1 $106 $22 $-1 $107 forward single #
loop $-1 $108 $109 $42 #
cone-surface $-1 -57.122897898308935 8.8756608656638178 3.619904767892546 0.64278761758704617 0 -0.76604443648966558 0.57453332736724916 0 0.48209071319028463 1 I I -0.70710678118654757 0.70710678118654757 0.75 forward I I I I #
loop $-1 $-1 $110 $28 #
coedge $-1 $68 $68 $111 $112 reversed $43 $-1 #
face $-1 $-1 $113 $23 $-1 $114 forward single #
loop $-1 $115 $116 $45 #
cone-surface $-1 -57.122897898308935 15.518781506884153 3.619904767892546 0.64278761758704617 0 -0.76604443648966558 0.57453332736724916 0 0.48209071319028463 1 I I -0.70710678118654757 0.70710678118654757 0.75 forward I I I I #
loop $-1 $-1 $117 $29 #
coedge $-1 $73 $73 $118 $119 reversed $46 $-1 #
face $-1 $120 $121 $18 $-1 $122 reversed single #
loop $-1 $-1 $123 $48 #
plane-surface $-1 0 -32.825441542371628 0 0 1 0 0 0 1 forward_v I I I I #
coedge $-1 $124 $125 $126 $127 forward $49 $-1 #
coedge $-1 $128 $51 $129 $130 forward $31 $-1 #
coedge $-1 $51 $128 $131 $132 forward $31 $-1 #
coedge $-1 $133 $134 $51 $81 reversed $135 $-1 #
edge $-1 $136 -32.825441542371628 $137 32.825441542371628 $80 $138 forward 7 unknown #
face $-1 $139 $140 $19 $-1 $141 reversed single #
loop $-1 $-1 $142 $52 #
plane-surface $-1 -61.956236457411421 0 0 1 0 0 0 0 -1 forward_v I I I I #
coedge $-1 $143 $144 $145 $146 forward $53 $-1 #
coedge $-1 $145 $55 $142 $147 reversed $34 $-1 #
coedge $-1 $55 $145 $148 $149 reversed $34 $-1 #
coedge $-1 $150 $151 $55 $89 reversed $140 $-1 #
edge $-1 $152 -61.956236457411421 $153 61.956236457411421 $88 $154 forward 7 unknown #
face $-1 $155 $156 $20 $-1 $157 reversed single #
loop $-1 $-1 $158 $56 #
plane-surface $-1 0 36.041827123550569 5.3214152261685292 0 0 1 1 0 0 forward_v I I I I #
coedge $-1 $159 $160 $94 $161 forward $57 $-1 #
coedge $-1 $162 $59 $93 $161 reversed $37 $-1 #
coedge $-1 $59 $162 $163 $164 reversed $37 $-1 #
coedge $-1 $165 $158 $59 $97 reversed $91 $-1 #
edge $-1 $166 -61.956236457411421 $167 61.956236457411421 $96 $168 forward 7 unknown #
face $-1 $169 $170 $21 $-1 $171 reversed single #
loop $-1 $-1 $172 $60 #
plane-surface $-1 -141.60563971164976 19.947528601031046 98.206059671947415 0 -1 0 0.64278761758704617 0 -0.76604443648966558 forward_v I I I I #
coedge $-1 $173 $174 $175 $176 reversed $61 $-1 #
coedge $-1 $103 $63 $177 $178 reversed $40 $-1 #
coedge $-1 $63 $102 $173 $179 reversed $40 $-1 #
coedge $-1 $175 $180 $63 $105 forward $181 $-1 #
edge $-1 $182 8.8465833984134576 $183 14.850418639900219 $104 $184 forward 7 unknown #
loop $-1 $-1 $111 $64 #
plane-surface $-1 -61.956236457411393 12.197221186273985 3.2835991838710044 -0.64278761758704617 0 0.76604443648966558 0.76604443648966558 0 0.64278761758704617 forward_v I I I I #
loop $-1 $-1 $185 $42 #
coedge $-1 $109 $109 $110 $186 reversed $65 $-1 #
coedge $-1 $110 $110 $109 $186 forward $67 $-1 #
coedge $-1 $111 $111 $68 $112 forward $106 $-1 #
edge $-1 $187 0 $187 6.2831853071796004 $111 $188 forward 7 unknown #
loop $-1 $-1 $118 $69 #
plane-surface $-1 -61.956236457411393 12.197221186273985 3.2835991838710044 -0.64278761758704617 0 0.76604443648966558 0.76604443648966558 0 0.64278761758704617 forward_v I I I I #
loop $-1 $-1 $189 $45 #
coedge $-1 $116 $116 $117 $190 reversed $70 $-1 #
coedge $-1 $117 $117 $116 $190 forward $72 $-1 #
coedge $-1 $118 $118 $73 $119 forward $113 $-1 #
edge $-1 $191 0 $191 6.2831853071796004 $118 $192 forward 7 unknown #
face $-1 $193 $194 $18 $-1 $195 reversed single #
loop $-1 $-1 $196 $74 #
plane-surface $-1 -61.956236457411421 0 0 1 0 0 0 0 -1 forward_v I I I I #
coedge $-1 $197 $131 $198 $199 forward $75 $-1 #
coedge $-1 $200 $77 $197 $201 forward $49 $-1 #
coedge $-1 $77 $200 $202 $203 forward $49 $-1 #
coedge $-1 $134 $133 $77 $127 reversed $135 $-1 #
edge $-1 $204 -32.825441542371628 $205 32.825441542371628 $126 $206 forward 7 unknown #
coedge $-1 $79 $78 $207 $208 forward $31 $-1 #
coedge $-1 $209 $210 $78 $130 reversed $194 $-1 #
edge $-1 $137 -61.956236457411421 $211 61.956236457411421 $129 $212 forward 7 unknown #
coedge $-1 $123 $213 $79 $132 reversed $75 $-1 #
edge $-1 $214 -61.956236457411421 $136 61.956236457411421 $131 $215 forward 7 unknown #
coedge $-1 $126 $80 $213 $216 forward $135 $-1 #
coedge $-1 $80 $126 $209 $217 reversed $135 $-1 #
loop $-1 $-1 $133 $193 #
vertex $-1 $81 $218 #
vertex $-1 $81 $219 #
straight-curve $-1 61.956236457411421 0 8.3214152261685292 0 1 0 I I #
face $-1 $220 $221 $19 $-1 $222 reversed single #
loop $-1 $-1 $150 $82 #
plane-surface $-1 0 -36.041827123550569 5.3214152261685292 0 0 1 1 0 0 forward_v I I I I #
coedge $-1 $223 $224 $86 $147 forward $83 $-1 #
coedge $-1 $225 $85 $224 $226 forward $53 $-1 #
coedge $-1 $85 $225 $227 $228 forward $53 $-1 #
coedge $-1 $87 $86 $85 $146 reversed $34 $-1 #
edge $-1 $229 -61.956236457411421 $230 61.956236457411421 $85 $231 forward 7 unknown #
edge $-1 $230 -8.3214152261685292 $153 -5.3214152261685292 $142 $232 forward 7 unknown #
coedge $-1 $227 $233 $87 $149 forward $234 $-1 #
edge $-1 $152 5.3214152261685292 $229 8.3214152261685292 $148 $235 forward 7 unknown #
coedge $-1 $236 $88 $233 $237 forward $140 $-1 #
coedge $-1 $88 $236 $223 $238 forward $140 $-1 #
vertex $-1 $149 $239 #
vertex $-1 $147 $240 #
straight-curve $-1 0 -32.825441542371628 5.3214152261685292 -1 0 0 I I #
face $-1 $241 $242 $20 $-1 $243 forward single #
loop $-1 $-1 $244 $90 #
plane-surface $-1 0 39.258212704729509 6.8214152261685292 0 -1 0 0 0 -1 forward_v I I I I #
coedge $-1 $96 $245 $159 $246 forward $91 $-1 #
coedge $-1 $247 $93 $158 $246 reversed $57 $-1 #
coedge $-1 $93 $247 $248 $249 reversed $57 $-1 #
edge $-1 $250 -8.3214152261685292 $167 -5.3214152261685292 $93 $251 forward 7 unknown #
coedge $-1 $95 $94 $252 $253 reversed $37 $-1 #
coedge $-1 $254 $255 $95 $164 forward $256 $-1 #
edge $-1 $166 5.3214152261685292 $257 8.3214152261685292 $163 $258 forward 7 unknown #
coedge $-1 $245 $96 $255 $259 forward $91 $-1 #
vertex $-1 $164 $260 #
vertex $-1 $161 $261 #
straight-curve $-1 0 32.825441542371628 5.3214152261685292 1 0 0 I I #
face $-1 $-1 $181 $21 $-1 $262 forward single #
loop $-1 $-1 $263 $98 #
plane-surface $-1 -61.956236457411421 0 0 1 0 0 0 0 -1 forward_v I I I I #
coedge $-1 $264 $265 $266 $267 reversed $99 $-1 #
coedge $-1 $268 $101 $103 $179 forward $61 $-1 #
coedge $-1 $101 $268 $264 $269 forward $61 $-1 #
coedge $-1 $266 $104 $101 $176 forward $181 $-1 #
edge $-1 $183 -1.6516968216200674 $270 13.848918007894053 $175 $271 forward 7 unknown #
coedge $-1 $272 $273 $102 $178 forward $170 $-1 #
edge $-1 $274 -45.819430652102724 $182 -40.781614609805175 $177 $275 forward 7 unknown #
edge $-1 $183 -7.8374503560117272 $274 3.7186864825251173e-014 $103 $276 forward 7 unknown #
coedge $-1 $104 $266 $272 $277 forward $181 $-1 #
loop $-1 $-1 $266 $169 #
vertex $-1 $178 $278 #
vertex $-1 $105 $279 #
straight-curve $-1 -70.802819855824879 4.4469137715169254 8.3214152261685257 1 0 0 I I #
coedge $-1 $185 $185 $-1 $280 reversed $108 $-1 #
edge $-1 $281 0 $281 6.2831853071796004 $109 $282 forward 7 unknown #
vertex $-1 $112 $283 #
ellipse-curve $-1 -58.954318836668044 8.8756608656638178 5.8025072050197535 -0.64278761758704617 0 0.76604443648966558 1.1490666547344983 0 0.96418142638056925 1 I I #
coedge $-1 $189 $189 $-1 $284 reversed $115 $-1 #
edge $-1 $285 0 $285 6.2831853071796004 $116 $286 forward 7 unknown #
vertex $-1 $119 $287 #
ellipse-curve $-1 -58.954318836668044 15.518781506884153 5.8025072050197535 -0.64278761758704617 0 0.76604443648966558 1.1490666547344983 0 0.96418142638056925 1 I I #
face $-1 $-1 $135 $18 $-1 $288 reversed single #
loop $-1 $-1 $209 $120 #
plane-surface $-1 0 32.825441542371628 0 0 -1 0 0 0 -1 forward_v I I I I #
coedge $-1 $289 $207 $210 $290 forward $121 $-1 #
coedge $-1 $213 $123 $124 $201 reversed $75 $-1 #
coedge $-1 $207 $289 $123 $199 reversed $121 $-1 #
edge $-1 $214 -8.3214152261685292 $291 8.3214152261685292 $198 $292 forward 7 unknown #
coedge $-1 $125 $124 $289 $293 forward $49 $-1 #
edge $-1 $205 -61.956236457411421 $291 61.956236457411421 $197 $294 forward 7 unknown #
coedge $-1 $210 $209 $125 $203 reversed $194 $-1 #
edge $-1 $295 -61.956236457411421 $204 61.956236457411421 $202 $296 forward 7 unknown #
vertex $-1 $127 $297 #
vertex $-1 $216 $298 #
straight-curve $-1 61.956236457411421 0 -8.3214152261685292 0 -1 0 I I #
coedge $-1 $196 $198 $128 $208 reversed $121 $-1 #
edge $-1 $211 -32.825441542371628 $214 32.825441542371628 $207 $299 forward 7 unknown #
coedge $-1 $202 $129 $134 $217 forward $194 $-1 #
coedge $-1 $129 $202 $196 $290 reversed $194 $-1 #
vertex $-1 $130 $300 #
straight-curve $-1 0 32.825441542371628 8.3214152261685292 -1 0 0 I I #
coedge $-1 $131 $197 $133 $216 reversed $75 $-1 #
vertex $-1 $208 $301 #
straight-curve $-1 0 -32.825441542371628 8.3214152261685292 1 0 0 I I #
edge $-1 $136 -8.3214152261685292 $205 8.3214152261685292 $133 $302 forward 7 unknown #
edge $-1 $137 -8.3214152261685292 $204 8.3214152261685292 $134 $303 forward 7 unknown #
point $-1 61.956236457411421 -32.825441542371628 8.3214152261685292 #
point $-1 61.956236457411421 32.825441542371628 8.3214152261685292 #
face $-1 $-1 $234 $19 $-1 $304 reversed single #
loop $-1 $-1 $305 $139 #
plane-surface $-1 0 -39.258212704729509 6.8214152261685292 0 1 0 0 0 1 forward_v I I I I #
coedge $-1 $306 $142 $151 $238 reversed $83 $-1 #
coedge $-1 $142 $306 $143 $226 reversed $83 $-1 #
coedge $-1 $144 $143 $307 $308 forward $53 $-1 #
edge $-1 $230 32.825441542371628 $309 39.258212704729509 $224 $310 forward 7 unknown #
coedge $-1 $311 $148 $144 $228 reversed $234 $-1 #
edge $-1 $312 -39.258212704729509 $229 -32.825441542371628 $227 $313 forward 7 unknown #
vertex $-1 $149 $314 #
vertex $-1 $226 $315 #
straight-curve $-1 0 -32.825441542371628 8.3214152261685292 -1 0 0 I I #
straight-curve $-1 -61.956236457411421 -32.825441542371628 0 0 0 -1 I I #
coedge $-1 $148 $311 $150 $237 reversed $234 $-1 #
loop $-1 $-1 $148 $220 #
straight-curve $-1 61.956236457411421 -32.825441542371628 0 0 0 1 I I #
coedge $-1 $151 $150 $316 $317 forward $140 $-1 #
edge $-1 $152 -3.2163855811789404 $318 3.2163855811789404 $233 $319 forward 7 unknown #
edge $-1 $320 -3.2163855811789404 $153 3.2163855811789404 $223 $321 forward 7 unknown #
point $-1 61.956236457411421 -32.825441542371628 5.3214152261685292 #
point $-1 -61.956236457411421 -32.825441542371628 5.3214152261685292 #
face $-1 $-1 $256 $20 $-1 $322 reversed single #
loop $-1 $-1 $252 $155 #
plane-surface $-1 0 0 8.3214152261685292 0 0 1 1 0 0 forward_v I I I I #
coedge $-1 $323 $324 $247 $325 forward $156 $-1 #
coedge $-1 $158 $165 $323 $326 forward $91 $-1 #
edge $-1 $327 -3.2163855811789404 $167 3.2163855811789404 $159 $328 forward 7 unknown #
coedge $-1 $160 $159 $244 $325 reversed $57 $-1 #
coedge $-1 $329 $252 $160 $249 forward $242 $-1 #
edge $-1 $250 32.825441542371628 $330 39.258212704729509 $160 $331 forward 7 unknown #
vertex $-1 $249 $332 #
straight-curve $-1 61.956236457411421 32.825441542371628 0 0 0 -1 I I #
coedge $-1 $248 $333 $162 $253 forward $242 $-1 #
edge $-1 $257 -61.956236457411421 $250 61.956236457411421 $252 $334 forward 7 unknown #
coedge $-1 $335 $163 $333 $336 reversed $256 $-1 #
coedge $-1 $163 $335 $165 $259 reversed $256 $-1 #
loop $-1 $-1 $163 $241 #
vertex $-1 $164 $337 #
straight-curve $-1 -61.956236457411421 32.825441542371628 0 0 0 1 I I #
edge $-1 $166 -3.2163855811789404 $338 3.2163855811789404 $255 $339 forward 7 unknown #
point $-1 -61.956236457411421 32.825441542371628 5.3214152261685292 #
point $-1 61.956236457411421 32.825441542371628 5.3214152261685292 #
plane-surface $-1 0 0 8.3214152261685292 0 0 1 1 0 0 forward_v I I I I #
coedge $-1 $273 $272 $265 $340 forward $170 $-1 #
coedge $-1 $265 $172 $174 $269 reversed $99 $-1 #
coedge $-1 $172 $264 $263 $340 reversed $99 $-1 #
coedge $-1 $180 $175 $172 $267 forward $181 $-1 #
edge $-1 $270 -14.850418639900219 $341 -8.8465833984134576 $266 $342 forward 7 unknown #
coedge $-1 $174 $173 $273 $343 reversed $61 $-1 #
edge $-1 $344 -3.7186864825251173e-014 $270 7.8374503560117272 $264 $345 forward 7 unknown #
vertex $-1 $176 $346 #
straight-curve $-1 -55.95240121592466 6.0986105931369927 8.321415226168531 0 1 0 I I #
coedge $-1 $263 $177 $180 $277 reversed $170 $-1 #
coedge $-1 $177 $263 $268 $343 forward $170 $-1 #
vertex $-1 $178 $347 #
straight-curve $-1 -61.956236457411421 4.4469137715169254 49.103029835973707 0 0 1 I I #
straight-curve $-1 -61.956236457411393 4.4469137715169254 3.2835991838710044 -0.76604443648966558 0 -0.64278761758704617 I I #
edge $-1 $341 -19.947528601031046 $182 -4.4469137715169254 $272 $348 forward 7 unknown #
point $-1 -61.956236457411421 4.4469137715169254 8.3214152261685292 #
point $-1 -55.95240121592466 4.4469137715169254 8.3214152261685292 #
edge $-1 $349 1 $349 0 $185 $-1 forward 7 unknown #
vertex $-1 $186 $350 #
ellipse-curve $-1 -57.604988611499216 8.8756608656638178 4.1944380952597955 -0.64278761758704617 0 0.76604443648966558 1.1490666547344983 0 0.96418142638056925 1 I I #
point $-1 -57.805252181933561 8.8756608656638178 6.7666886314003394 #
edge $-1 $351 1 $351 0 $189 $-1 forward 7 unknown #
vertex $-1 $190 $352 #
ellipse-curve $-1 -57.604988611499216 15.518781506884153 4.1944380952597955 -0.64278761758704617 0 0.76604443648966558 1.1490666547344983 0 0.96418142638056925 1 I I #
point $-1 -57.805252181933561 15.518781506884153 6.7666886314003394 #
plane-surface $-1 61.956236457411421 0 0 -1 0 0 0 0 1 forward_v I I I I #
coedge $-1 $198 $196 $200 $293 reversed $121 $-1 #
edge $-1 $211 -8.3214152261685292 $295 8.3214152261685292 $210 $353 forward 7 unknown #
vertex $-1 $293 $354 #
straight-curve $-1 -61.956236457411421 -32.825441542371628 0 0 0 -1 I I #
edge $-1 $291 -32.825441542371628 $295 32.825441542371628 $289 $355 forward 7 unknown #
straight-curve $-1 0 -32.825441542371628 -8.3214152261685292 -1 0 0 I I #
vertex $-1 $203 $356 #
straight-curve $-1 0 32.825441542371628 -8.3214152261685292 1 0 0 I I #
point $-1 61.956236457411421 32.825441542371628 -8.3214152261685292 #
point $-1 61.956236457411421 -32.825441542371628 -8.3214152261685292 #
straight-curve $-1 -61.956236457411421 0 8.3214152261685292 0 -1 0 I I #
point $-1 -61.956236457411421 32.825441542371628 8.3214152261685292 #
point $-1 -61.956236457411421 -32.825441542371628 8.3214152261685292 #
straight-curve $-1 61.956236457411421 -32.825441542371628 0 0 0 -1 I I #
straight-curve $-1 61.956236457411421 32.825441542371628 0 0 0 -1 I I #
plane-surface $-1 61.956236457411421 0 0 -1 0 0 0 0 1 forward_v I I I I #
coedge $-1 $316 $307 $306 $357 forward $221 $-1 #
coedge $-1 $224 $223 $305 $357 reversed $83 $-1 #
coedge $-1 $305 $358 $225 $308 reversed $221 $-1 #
edge $-1 $309 -61.956236457411421 $312 61.956236457411421 $307 $359 forward 7 unknown #
vertex $-1 $226 $360 #
straight-curve $-1 -61.956236457411421 0 8.3214152261685292 0 -1 0 I I #
coedge $-1 $233 $227 $358 $361 forward $234 $-1 #
vertex $-1 $228 $362 #
straight-curve $-1 61.956236457411421 0 8.3214152261685292 0 1 0 I I #
point $-1 61.956236457411421 -32.825441542371628 8.3214152261685292 #
point $-1 -61.956236457411421 -32.825441542371628 8.3214152261685292 #
coedge $-1 $358 $305 $236 $317 reversed $221 $-1 #
edge $-1 $318 -61.956236457411421 $320 61.956236457411421 $316 $363 forward 7 unknown #
vertex $-1 $361 $364 #
straight-curve $-1 61.956236457411421 -36.041827123550569 5.3214152261685292 0 -1 0 I I #
vertex $-1 $238 $365 #
straight-curve $-1 -61.956236457411421 -36.041827123550569 5.3214152261685292 0 1 0 I I #
plane-surface $-1 -61.956236457411421 0 0 1 0 0 0 0 -1 forward_v I I I I #
coedge $-1 $366 $244 $245 $326 reversed $156 $-1 #
coedge $-1 $244 $366 $329 $367 reversed $156 $-1 #
edge $-1 $330 -1.5 $327 1.5 $247 $368 forward 7 unknown #
edge $-1 $338 -61.956236457411421 $327 61.956236457411421 $323 $369 forward 7 unknown #
vertex $-1 $246 $370 #
straight-curve $-1 61.956236457411421 36.041827123550569 5.3214152261685292 0 -1 0 I I #
coedge $-1 $333 $248 $324 $367 forward $242 $-1 #
vertex $-1 $249 $371 #
straight-curve $-1 61.956236457411421 0 8.3214152261685292 0 1 0 I I #
point $-1 61.956236457411421 32.825441542371628 8.3214152261685292 #
coedge $-1 $252 $329 $254 $336 forward $242 $-1 #
straight-curve $-1 0 32.825441542371628 8.3214152261685292 1 0 0 I I #
coedge $-1 $255 $254 $366 $372 forward $256 $-1 #
edge $-1 $373 -39.258212704729509 $257 -32.825441542371628 $254 $374 forward 7 unknown #
point $-1 -61.956236457411421 32.825441542371628 8.3214152261685292 #
vertex $-1 $326 $375 #
straight-curve $-1 -61.956236457411421 36.041827123550569 5.3214152261685292 0 1 0 I I #
edge $-1 $341 40.781614609805175 $344 45.819430652102724 $263 $376 forward 7 unknown #
vertex $-1 $277 $377 #
straight-curve $-1 -70.802819855824879 19.947528601031046 8.3214152261685257 -1 0 0 I I #
edge $-1 $344 -13.848918007894053 $274 1.6516968216200674 $273 $378 forward 7 unknown #
vertex $-1 $343 $379 #
straight-curve $-1 -61.956236457411393 19.947528601031046 3.2835991838710044 0.76604443648966558 0 0.64278761758704617 I I #
point $-1 -55.95240121592466 19.947528601031046 8.3214152261685292 #
point $-1 -61.956236457411421 4.4469137715169254 3.2835991838709804 #
straight-curve $-1 -61.956236457411421 0 8.3214152261685292 0 -1 0 I I #
vertex $-1 $280 $380 #
point $-1 -56.455921956764719 8.8756608656638178 5.1586195216403645 #
vertex $-1 $284 $381 #
point $-1 -56.455921956764719 15.518781506884153 5.1586195216403645 #
straight-curve $-1 -61.956236457411421 32.825441542371628 0 0 0 -1 I I #
point $-1 -61.956236457411421 -32.825441542371628 -8.3214152261685292 #
straight-curve $-1 -61.956236457411421 0 -8.3214152261685292 0 1 0 I I #
point $-1 -61.956236457411421 32.825441542371628 -8.3214152261685292 #
edge $-1 $309 -1.5 $320 1.5 $306 $382 forward 7 unknown #
coedge $-1 $307 $316 $311 $361 reversed $221 $-1 #
straight-curve $-1 0 -39.258212704729509 8.3214152261685292 1 0 0 I I #
point $-1 -61.956236457411421 -39.258212704729509 8.3214152261685292 #
edge $-1 $312 -1.5 $318 1.5 $311 $383 forward 7 unknown #
point $-1 61.956236457411421 -39.258212704729509 8.3214152261685292 #
straight-curve $-1 0 -39.258212704729509 5.3214152261685292 -1 0 0 I I #
point $-1 61.956236457411421 -39.258212704729509 5.3214152261685292 #
point $-1 -61.956236457411421 -39.258212704729509 5.3214152261685292 #
coedge $-1 $324 $323 $335 $372 reversed $156 $-1 #
edge $-1 $330 -61.956236457411421 $373 61.956236457411421 $324 $384 forward 7 unknown #
straight-curve $-1 61.956236457411421 39.258212704729509 6.8214152261685292 0 0 -1 I I #
straight-curve $-1 0 39.258212704729509 5.3214152261685292 1 0 0 I I #
point $-1 61.956236457411421 39.258212704729509 5.3214152261685292 #
point $-1 61.956236457411421 39.258212704729509 8.3214152261685292 #
edge $-1 $373 -1.5 $338 1.5 $366 $385 forward 7 unknown #
vertex $-1 $367 $386 #
straight-curve $-1 -61.956236457411421 0 8.3214152261685292 0 -1 0 I I #
point $-1 -61.956236457411421 39.258212704729509 5.3214152261685292 #
straight-curve $-1 -61.956236457411421 19.947528601031046 49.103029835973707 0 0 -1 I I #
point $-1 -61.956236457411421 19.947528601031046 8.3214152261685292 #
straight-curve $-1 -61.956236457411421 6.0986105931369927 3.2835991838709826 0 -1 0 I I #
point $-1 -61.956236457411421 19.947528601031046 3.2835991838709804 #
point $-1 -56.640807185118653 8.8756608656638178 3.045371440525297 #
point $-1 -56.640807185118653 15.518781506884153 3.045371440525297 #
straight-curve $-1 -61.956236457411421 -39.258212704729509 6.8214152261685292 0 0 -1 I I #
straight-curve $-1 61.956236457411421 -39.258212704729509 6.8214152261685292 0 0 -1 I I #
straight-curve $-1 0 39.258212704729509 8.3214152261685292 -1 0 0 I I #
straight-curve $-1 -61.956236457411421 39.258212704729509 6.8214152261685292 0 0 -1 I I #
point $-1 -61.956236457411421 39.258212704729509 8.3214152261685292 #
End-of-ACIS-data 