500 0 15 0           
7 Unknown 11 ACIS 5.0 NT 24 Fri Mar 26 14:40:52 1999 
-1 9.9999999999999995e-007 1e-010 
body $-1 $15 $-1 $16 #
body $-1 $17 $-1 $18 #
body $-1 $19 $-1 $20 #
body $-1 $21 $-1 $22 #
body $-1 $23 $-1 $24 #
body $-1 $25 $-1 $26 #
body $-1 $27 $-1 $28 #
body $-1 $29 $-1 $30 #
body $-1 $31 $-1 $32 #
body $-1 $33 $-1 $34 #
body $-1 $35 $-1 $36 #
body $-1 $37 $-1 $38 #
body $-1 $39 $-1 $40 #
body $-1 $41 $-1 $42 #
body $-1 $43 $-1 $44 #
lump $-1 $-1 $45 $0 #
transform $-1 1 0 0 0 1 0 0 0 1 68.901028473769344 29.560133002061669 13.561377464119152 1 rotate no_reflect no_shear #
lump $-1 $-1 $46 $1 #
transform $-1 1 0 0 0 0.5877852410284794 -0.80901700255871778 0 0.80901700255871778 0.5877852410284794 16.115783286217123 135.85445325934535 147.60217864805941 1 rotate no_reflect no_shear #
lump $-1 $-1 $47 $2 #
transform $-1 1 0 0 0 -0.5877852410284794 0.80901700255871778 0 -0.80901700255871778 -0.5877852410284794 16.115783286217123 50.527209432827249 18.90886397300654 1 rotate no_reflect no_shear #
lump $-1 $-1 $48 $3 #
transform $-1 1 0 0 0 0.5877852410284794 -0.80901700255871778 0 0.80901700255871778 0.5877852410284794 50.566297523101795 135.85445325934535 147.60217864805941 1 rotate no_reflect no_shear #
lump $-1 $-1 $49 $4 #
transform $-1 1 0 0 0 -0.5877852410284794 0.80901700255871778 0 -0.80901700255871778 -0.5877852410284794 50.566297523101795 50.527209432827249 18.90886397300654 1 rotate no_reflect no_shear #
lump $-1 $-1 $50 $5 #
transform $-1 1 0 0 0 0.5877852410284794 -0.80901700255871778 0 0.80901700255871778 0.5877852410284794 85.016811759986467 135.85445325934535 147.60217864805941 1 rotate no_reflect no_shear #
lump $-1 $-1 $51 $6 #
transform $-1 1 0 0 0 -0.5877852410284794 0.80901700255871778 0 -0.80901700255871778 -0.5877852410284794 85.016811759986467 50.527209432827249 18.90886397300654 1 rotate no_reflect no_shear #
lump $-1 $-1 $52 $7 #
transform $-1 1 0 0 0 0.5877852410284794 -0.80901700255871778 0 0.80901700255871778 0.5877852410284794 119.46732599687114 135.85445325934535 147.60217864805941 1 rotate no_reflect no_shear #
lump $-1 $-1 $53 $8 #
transform $-1 1 0 0 0 -0.5877852410284794 0.80901700255871778 0 -0.80901700255871778 -0.5877852410284794 119.46732599687114 50.527209432827249 18.90886397300654 1 rotate no_reflect no_shear #
lump $-1 $-1 $54 $9 #
transform $-1 1 0 0 0 0.57357642473473569 0.81915205242281985 0 -0.81915205242281985 0.57357642473473569 11.54718322740198 -112.88083777666259 93.479703791825699 1 rotate no_reflect no_shear #
lump $-1 $-1 $55 $10 #
transform $-1 1 0 0 0 -0.57357642473473569 -0.81915205242281985 0 0.81915205242281985 -0.57357642473473569 6.5983904156582742 13.331482451000671 14.555612459991737 1 rotate no_reflect no_shear #
lump $-1 $-1 $56 $11 #
transform $-1 1 0 0 0 -0.57357642473473569 -0.81915205242281985 0 0.81915205242281985 -0.57357642473473569 16.495976039145688 13.331482451000671 14.555612459991737 1 rotate no_reflect no_shear #
lump $-1 $-1 $57 $12 #
transform $-1 1 0 0 0 0.57357642473473569 0.81915205242281985 0 -0.81915205242281985 0.57357642473473569 126.25487372013671 -112.88083777666259 93.479703791825699 1 rotate no_reflect no_shear #
lump $-1 $-1 $58 $13 #
transform $-1 1 0 0 0 -0.57357642473473569 -0.81915205242281985 0 0.81915205242281985 -0.57357642473473569 121.30608090839301 13.331482451000671 14.555612459991737 1 rotate no_reflect no_shear #
lump $-1 $-1 $59 $14 #
transform $-1 1 0 0 0 -0.57357642473473569 -0.81915205242281985 0 0.81915205242281985 -0.57357642473473569 131.20366653188043 13.331482451000671 14.555612459991737 1 rotate no_reflect no_shear #
shell $-1 $-1 $-1 $60 $-1 $15 #
shell $-1 $-1 $-1 $61 $-1 $17 #
shell $-1 $-1 $-1 $62 $-1 $19 #
shell $-1 $-1 $-1 $63 $-1 $21 #
shell $-1 $-1 $-1 $64 $-1 $23 #
shell $-1 $-1 $-1 $65 $-1 $25 #
shell $-1 $-1 $-1 $66 $-1 $27 #
shell $-1 $-1 $-1 $67 $-1 $29 #
shell $-1 $-1 $-1 $68 $-1 $31 #
shell $-1 $-1 $-1 $69 $-1 $33 #
shell $-1 $-1 $-1 $70 $-1 $35 #
shell $-1 $-1 $-1 $71 $-1 $37 #
shell $-1 $-1 $-1 $72 $-1 $39 #
shell $-1 $-1 $-1 $73 $-1 $41 #
shell $-1 $-1 $-1 $74 $-1 $43 #
face $-1 $75 $76 $45 $-1 $77 forward single #
face $-1 $78 $79 $46 $-1 $80 forward single #
face $-1 $81 $82 $47 $-1 $83 forward single #
face $-1 $84 $85 $48 $-1 $86 forward single #
face $-1 $87 $88 $49 $-1 $89 forward single #
face $-1 $90 $91 $50 $-1 $92 forward single #
face $-1 $93 $94 $51 $-1 $95 forward single #
face $-1 $96 $97 $52 $-1 $98 forward single #
face $-1 $99 $100 $53 $-1 $101 forward single #
face $-1 $102 $103 $54 $-1 $104 forward single #
face $-1 $105 $106 $55 $-1 $107 forward single #
face $-1 $108 $109 $56 $-1 $110 forward single #
face $-1 $111 $112 $57 $-1 $113 forward single #
face $-1 $114 $115 $58 $-1 $116 forward single #
face $-1 $117 $118 $59 $-1 $119 forward single #
face $-1 $120 $121 $45 $-1 $122 reversed single #
loop $-1 $-1 $123 $60 #
plane-surface $-1 0 0 13.561377464119152 0 0 1 1 0 0 forward_v I I I I #
face $-1 $124 $125 $46 $-1 $126 reversed single #
loop $-1 $-1 $127 $61 #
plane-surface $-1 0 0 137.80205694753869 0 0 1 1 0 0 forward_v I I I I #
face $-1 $128 $129 $47 $-1 $130 forward single #
loop $-1 $131 $132 $62 #
cone-surface $-1 0 0 -3.9365825373088779 0 0 1 2 0 0 1 I I 0 1 2 forward I I I I #
face $-1 $133 $134 $48 $-1 $135 reversed single #
loop $-1 $-1 $136 $63 #
plane-surface $-1 0 0 137.80205694753869 0 0 1 1 0 0 forward_v I I I I #
face $-1 $137 $138 $49 $-1 $139 forward single #
loop $-1 $140 $141 $64 #
cone-surface $-1 0 0 -3.9365825373088779 0 0 1 2 0 0 1 I I 0 1 2 forward I I I I #
face $-1 $142 $143 $50 $-1 $144 reversed single #
loop $-1 $-1 $145 $65 #
plane-surface $-1 0 0 137.80205694753869 0 0 1 1 0 0 forward_v I I I I #
face $-1 $146 $147 $51 $-1 $148 forward single #
loop $-1 $149 $150 $66 #
cone-surface $-1 0 0 -3.9365825373088779 0 0 1 2 0 0 1 I I 0 1 2 forward I I I I #
face $-1 $151 $152 $52 $-1 $153 reversed single #
loop $-1 $-1 $154 $67 #
plane-surface $-1 0 0 137.80205694753869 0 0 1 1 0 0 forward_v I I I I #
face $-1 $155 $156 $53 $-1 $157 forward single #
loop $-1 $158 $159 $68 #
cone-surface $-1 0 0 -3.9365825373088779 0 0 1 2 0 0 1 I I 0 1 2 forward I I I I #
face $-1 $160 $161 $54 $-1 $162 reversed single #
loop $-1 $-1 $163 $69 #
plane-surface $-1 0 0 137.80205694753869 0 0 1 1 0 0 forward_v I I I I #
face $-1 $164 $165 $55 $-1 $166 forward single #
loop $-1 $167 $168 $70 #
cone-surface $-1 0 0 -6.0520111697744685 0 0 1 2.5 0 0 1 I I 0 1 2.5 forward I I I I #
face $-1 $169 $170 $56 $-1 $171 forward single #
loop $-1 $172 $173 $71 #
cone-surface $-1 0 0 -6.0520111697744685 0 0 1 2.5 0 0 1 I I 0 1 2.5 forward I I I I #
face $-1 $174 $175 $57 $-1 $176 reversed single #
loop $-1 $-1 $177 $72 #
plane-surface $-1 0 0 137.80205694753869 0 0 1 1 0 0 forward_v I I I I #
face $-1 $178 $179 $58 $-1 $180 forward single #
loop $-1 $181 $182 $73 #
cone-surface $-1 0 0 -6.0520111697744685 0 0 1 2.5 0 0 1 I I 0 1 2.5 forward I I I I #
face $-1 $183 $184 $59 $-1 $185 forward single #
loop $-1 $186 $187 $74 #
cone-surface $-1 0 0 -6.0520111697744685 0 0 1 2.5 0 0 1 I I 0 1 2.5 forward I I I I #
face $-1 $188 $189 $45 $-1 $190 reversed single #
loop $-1 $-1 $191 $75 #
plane-surface $-1 0 0 -13.561377464119152 0 0 1 1 0 0 forward_v I I I I #
coedge $-1 $192 $193 $194 $195 forward $76 $-1 #
face $-1 $196 $197 $46 $-1 $198 reversed single #
loop $-1 $-1 $199 $78 #
plane-surface $-1 0 0 -137.80205694753869 0 0 1 1 0 0 forward_v I I I I #
coedge $-1 $200 $201 $202 $203 forward $79 $-1 #
face $-1 $-1 $204 $47 $-1 $205 forward single #
loop $-1 $-1 $206 $81 #
plane-surface $-1 0 0 -6.8731650746177557 0 0 -1 -1 0 0 forward_v I I I I #
loop $-1 $-1 $207 $62 #
coedge $-1 $132 $132 $206 $208 reversed $82 $-1 #
face $-1 $209 $210 $48 $-1 $211 reversed single #
loop $-1 $-1 $212 $84 #
plane-surface $-1 0 0 -137.80205694753869 0 0 1 1 0 0 forward_v I I I I #
coedge $-1 $213 $214 $215 $216 forward $85 $-1 #
face $-1 $-1 $217 $49 $-1 $218 forward single #
loop $-1 $-1 $219 $87 #
plane-surface $-1 0 0 -6.8731650746177557 0 0 -1 -1 0 0 forward_v I I I I #
loop $-1 $-1 $220 $64 #
coedge $-1 $141 $141 $219 $221 reversed $88 $-1 #
face $-1 $222 $223 $50 $-1 $224 reversed single #
loop $-1 $-1 $225 $90 #
plane-surface $-1 0 0 -137.80205694753869 0 0 1 1 0 0 forward_v I I I I #
coedge $-1 $226 $227 $228 $229 forward $91 $-1 #
face $-1 $-1 $230 $51 $-1 $231 forward single #
loop $-1 $-1 $232 $93 #
plane-surface $-1 0 0 -6.8731650746177557 0 0 -1 -1 0 0 forward_v I I I I #
loop $-1 $-1 $233 $66 #
coedge $-1 $150 $150 $232 $234 reversed $94 $-1 #
face $-1 $235 $236 $52 $-1 $237 reversed single #
loop $-1 $-1 $238 $96 #
plane-surface $-1 0 0 -137.80205694753869 0 0 1 1 0 0 forward_v I I I I #
coedge $-1 $239 $240 $241 $242 forward $97 $-1 #
face $-1 $-1 $243 $53 $-1 $244 forward single #
loop $-1 $-1 $245 $99 #
plane-surface $-1 0 0 -6.8731650746177557 0 0 -1 -1 0 0 forward_v I I I I #
loop $-1 $-1 $246 $68 #
coedge $-1 $159 $159 $245 $247 reversed $100 $-1 #
face $-1 $248 $249 $54 $-1 $250 reversed single #
loop $-1 $-1 $251 $102 #
plane-surface $-1 0 0 -137.80205694753869 0 0 1 1 0 0 forward_v I I I I #
coedge $-1 $252 $253 $254 $255 forward $103 $-1 #
face $-1 $-1 $256 $55 $-1 $257 forward single #
loop $-1 $-1 $258 $105 #
plane-surface $-1 0 0 -10.854022339548937 0 0 -1 -1 0 0 forward_v I I I I #
loop $-1 $-1 $259 $70 #
coedge $-1 $168 $168 $258 $260 reversed $106 $-1 #
face $-1 $-1 $261 $56 $-1 $262 forward single #
loop $-1 $-1 $263 $108 #
plane-surface $-1 0 0 -10.854022339548937 0 0 -1 -1 0 0 forward_v I I I I #
loop $-1 $-1 $264 $71 #
coedge $-1 $173 $173 $263 $265 reversed $109 $-1 #
face $-1 $266 $267 $57 $-1 $268 reversed single #
loop $-1 $-1 $269 $111 #
plane-surface $-1 0 0 -137.80205694753869 0 0 1 1 0 0 forward_v I I I I #
coedge $-1 $270 $271 $272 $273 forward $112 $-1 #
face $-1 $-1 $274 $58 $-1 $275 forward single #
loop $-1 $-1 $276 $114 #
plane-surface $-1 0 0 -10.854022339548937 0 0 -1 -1 0 0 forward_v I I I I #
loop $-1 $-1 $277 $73 #
coedge $-1 $182 $182 $276 $278 reversed $115 $-1 #
face $-1 $-1 $279 $59 $-1 $280 forward single #
loop $-1 $-1 $281 $117 #
plane-surface $-1 0 0 -10.854022339548937 0 0 -1 -1 0 0 forward_v I I I I #
loop $-1 $-1 $282 $74 #
coedge $-1 $187 $187 $281 $283 reversed $118 $-1 #
face $-1 $284 $285 $45 $-1 $286 reversed single #
loop $-1 $-1 $287 $120 #
plane-surface $-1 0 -29.560133002061669 0 0 1 0 0 0 1 forward_v I I I I #
coedge $-1 $288 $289 $290 $291 forward $121 $-1 #
coedge $-1 $292 $123 $293 $294 forward $76 $-1 #
coedge $-1 $123 $292 $295 $296 forward $76 $-1 #
coedge $-1 $297 $298 $123 $195 reversed $299 $-1 #
edge $-1 $300 -29.560133002061669 $301 29.560133002061669 $194 $302 forward 7 unknown #
face $-1 $303 $304 $46 $-1 $305 reversed single #
loop $-1 $-1 $306 $124 #
plane-surface $-1 0 -275.60411389507738 0 0 1 0 0 0 1 forward_v I I I I #
coedge $-1 $307 $308 $309 $310 forward $125 $-1 #
coedge $-1 $311 $127 $312 $313 forward $79 $-1 #
coedge $-1 $127 $311 $314 $315 forward $79 $-1 #
coedge $-1 $316 $317 $127 $203 reversed $318 $-1 #
edge $-1 $319 -275.60411389507738 $320 275.60411389507738 $202 $321 forward 7 unknown #
loop $-1 $322 $323 $128 #
cone-surface $-1 0 0 0 0 0 1 1 0 0 1 I I -0.70710678118654746 0.70710678118654746 1 forward I I I I #
coedge $-1 $206 $206 $132 $208 forward $129 $-1 #
coedge $-1 $207 $207 $323 $324 forward $131 $-1 #
edge $-1 $325 0 $325 6.2831853071796004 $206 $326 forward 7 unknown #
face $-1 $327 $328 $48 $-1 $329 reversed single #
loop $-1 $-1 $330 $133 #
plane-surface $-1 0 -275.60411389507738 0 0 1 0 0 0 1 forward_v I I I I #
coedge $-1 $331 $332 $333 $334 forward $134 $-1 #
coedge $-1 $335 $136 $336 $337 forward $85 $-1 #
coedge $-1 $136 $335 $338 $339 forward $85 $-1 #
coedge $-1 $340 $341 $136 $216 reversed $342 $-1 #
edge $-1 $343 -275.60411389507738 $344 275.60411389507738 $215 $345 forward 7 unknown #
loop $-1 $346 $347 $137 #
cone-surface $-1 0 0 0 0 0 1 1 0 0 1 I I -0.70710678118654746 0.70710678118654746 1 forward I I I I #
coedge $-1 $219 $219 $141 $221 forward $138 $-1 #
coedge $-1 $220 $220 $347 $348 forward $140 $-1 #
edge $-1 $349 0 $349 6.2831853071796004 $219 $350 forward 7 unknown #
face $-1 $351 $352 $50 $-1 $353 reversed single #
loop $-1 $-1 $354 $142 #
plane-surface $-1 0 -275.60411389507738 0 0 1 0 0 0 1 forward_v I I I I #
coedge $-1 $355 $356 $357 $358 forward $143 $-1 #
coedge $-1 $359 $145 $360 $361 forward $91 $-1 #
coedge $-1 $145 $359 $362 $363 forward $91 $-1 #
coedge $-1 $364 $365 $145 $229 reversed $366 $-1 #
edge $-1 $367 -275.60411389507738 $368 275.60411389507738 $228 $369 forward 7 unknown #
loop $-1 $370 $371 $146 #
cone-surface $-1 0 0 0 0 0 1 1 0 0 1 I I -0.70710678118654746 0.70710678118654746 1 forward I I I I #
coedge $-1 $232 $232 $150 $234 forward $147 $-1 #
coedge $-1 $233 $233 $371 $372 forward $149 $-1 #
edge $-1 $373 0 $373 6.2831853071796004 $232 $374 forward 7 unknown #
face $-1 $375 $376 $52 $-1 $377 reversed single #
loop $-1 $-1 $378 $151 #
plane-surface $-1 0 -275.60411389507738 0 0 1 0 0 0 1 forward_v I I I I #
coedge $-1 $379 $380 $381 $382 forward $152 $-1 #
coedge $-1 $383 $154 $384 $385 forward $97 $-1 #
coedge $-1 $154 $383 $386 $387 forward $97 $-1 #
coedge $-1 $388 $389 $154 $242 reversed $390 $-1 #
edge $-1 $391 -275.60411389507738 $392 275.60411389507738 $241 $393 forward 7 unknown #
loop $-1 $394 $395 $155 #
cone-surface $-1 0 0 0 0 0 1 1 0 0 1 I I -0.70710678118654746 0.70710678118654746 1 forward I I I I #
coedge $-1 $245 $245 $159 $247 forward $156 $-1 #
coedge $-1 $246 $246 $395 $396 forward $158 $-1 #
edge $-1 $397 0 $397 6.2831853071796004 $245 $398 forward 7 unknown #
face $-1 $399 $400 $54 $-1 $401 reversed single #
loop $-1 $-1 $402 $160 #
plane-surface $-1 0 -275.60411389507738 0 0 1 0 0 0 1 forward_v I I I I #
coedge $-1 $403 $404 $405 $406 forward $161 $-1 #
coedge $-1 $407 $163 $408 $409 forward $103 $-1 #
coedge $-1 $163 $407 $410 $411 forward $103 $-1 #
coedge $-1 $412 $413 $163 $255 reversed $414 $-1 #
edge $-1 $415 -275.60411389507738 $416 275.60411389507738 $254 $417 forward 7 unknown #
loop $-1 $418 $419 $164 #
cone-surface $-1 0 0 0 0 0 1 1.25 0 0 1 I I -0.70710678118654746 0.70710678118654746 1.25 forward I I I I #
coedge $-1 $258 $258 $168 $260 forward $165 $-1 #
coedge $-1 $259 $259 $419 $420 forward $167 $-1 #
edge $-1 $421 0 $421 6.2831853071796004 $258 $422 forward 7 unknown #
loop $-1 $423 $424 $169 #
cone-surface $-1 0 0 0 0 0 1 1.25 0 0 1 I I -0.70710678118654746 0.70710678118654746 1.25 forward I I I I #
coedge $-1 $263 $263 $173 $265 forward $170 $-1 #
coedge $-1 $264 $264 $424 $425 forward $172 $-1 #
edge $-1 $426 0 $426 6.2831853071796004 $263 $427 forward 7 unknown #
face $-1 $428 $429 $57 $-1 $430 reversed single #
loop $-1 $-1 $431 $174 #
plane-surface $-1 0 -275.60411389507738 0 0 1 0 0 0 1 forward_v I I I I #
coedge $-1 $432 $433 $434 $435 forward $175 $-1 #
coedge $-1 $436 $177 $437 $438 forward $112 $-1 #
coedge $-1 $177 $436 $439 $440 forward $112 $-1 #
coedge $-1 $441 $442 $177 $273 reversed $443 $-1 #
edge $-1 $444 -275.60411389507738 $445 275.60411389507738 $272 $446 forward 7 unknown #
loop $-1 $447 $448 $178 #
cone-surface $-1 0 0 0 0 0 1 1.25 0 0 1 I I -0.70710678118654746 0.70710678118654746 1.25 forward I I I I #
coedge $-1 $276 $276 $182 $278 forward $179 $-1 #
coedge $-1 $277 $277 $448 $449 forward $181 $-1 #
edge $-1 $450 0 $450 6.2831853071796004 $276 $451 forward 7 unknown #
loop $-1 $452 $453 $183 #
cone-surface $-1 0 0 0 0 0 1 1.25 0 0 1 I I -0.70710678118654746 0.70710678118654746 1.25 forward I I I I #
coedge $-1 $281 $281 $187 $283 forward $184 $-1 #
coedge $-1 $282 $282 $453 $454 forward $186 $-1 #
edge $-1 $455 0 $455 6.2831853071796004 $281 $456 forward 7 unknown #
face $-1 $457 $458 $45 $-1 $459 reversed single #
loop $-1 $-1 $460 $188 #
plane-surface $-1 -68.901028473769344 0 0 1 0 0 0 0 -1 forward_v I I I I #
coedge $-1 $461 $295 $462 $463 forward $189 $-1 #
coedge $-1 $464 $191 $461 $465 forward $121 $-1 #
coedge $-1 $191 $464 $466 $467 forward $121 $-1 #
coedge $-1 $298 $297 $191 $291 reversed $299 $-1 #
edge $-1 $468 -29.560133002061669 $469 29.560133002061669 $290 $470 forward 7 unknown #
coedge $-1 $193 $192 $471 $472 forward $76 $-1 #
coedge $-1 $473 $474 $192 $294 reversed $458 $-1 #
edge $-1 $301 -68.901028473769344 $475 68.901028473769344 $293 $476 forward 7 unknown #
coedge $-1 $287 $477 $193 $296 reversed $189 $-1 #
edge $-1 $478 -68.901028473769344 $300 68.901028473769344 $295 $479 forward 7 unknown #
coedge $-1 $290 $194 $477 $480 forward $299 $-1 #
coedge $-1 $194 $290 $473 $481 reversed $299 $-1 #
loop $-1 $-1 $297 $457 #
vertex $-1 $195 $482 #
vertex $-1 $195 $483 #
straight-curve $-1 68.901028473769344 0 13.561377464119152 0 1 0 I I #
face $-1 $484 $485 $46 $-1 $486 reversed single #
loop $-1 $-1 $487 $196 #
plane-surface $-1 -8.6333932815386962 0 0 1 0 0 0 0 -1 forward_v I I I I #
coedge $-1 $488 $314 $489 $490 forward $197 $-1 #
coedge $-1 $491 $199 $488 $492 forward $125 $-1 #
coedge $-1 $199 $491 $493 $494 forward $125 $-1 #
coedge $-1 $317 $316 $199 $310 reversed $318 $-1 #
edge $-1 $495 -275.60411389507738 $496 275.60411389507738 $309 $497 forward 7 unknown #
coedge $-1 $201 $200 $498 $499 forward $79 $-1 #
coedge $-1 $500 $501 $200 $313 reversed $485 $-1 #
edge $-1 $320 -8.6333932815386962 $502 8.6333932815386962 $312 $503 forward 7 unknown #
coedge $-1 $306 $504 $201 $315 reversed $197 $-1 #
edge $-1 $505 -8.6333932815386962 $319 8.6333932815386962 $314 $506 forward 7 unknown #
coedge $-1 $309 $202 $504 $507 forward $318 $-1 #
coedge $-1 $202 $309 $500 $508 reversed $318 $-1 #
loop $-1 $-1 $316 $484 #
vertex $-1 $203 $509 #
vertex $-1 $203 $510 #
straight-curve $-1 8.6333932815386962 0 137.80205694753869 0 1 0 I I #
loop $-1 $-1 $511 $128 #
coedge $-1 $323 $323 $207 $324 reversed $204 $-1 #
edge $-1 $512 0 $512 6.2831853071796004 $323 $513 forward 7 unknown #
vertex $-1 $208 $514 #
ellipse-curve $-1 0 0 -6.8731650746177557 0 0 -1 2 0 0 1 I I #
face $-1 $515 $516 $48 $-1 $517 reversed single #
loop $-1 $-1 $518 $209 #
plane-surface $-1 -8.6333932815386962 0 0 1 0 0 0 0 -1 forward_v I I I I #
coedge $-1 $519 $338 $520 $521 forward $210 $-1 #
coedge $-1 $522 $212 $519 $523 forward $134 $-1 #
coedge $-1 $212 $522 $524 $525 forward $134 $-1 #
coedge $-1 $341 $340 $212 $334 reversed $342 $-1 #
edge $-1 $526 -275.60411389507738 $527 275.60411389507738 $333 $528 forward 7 unknown #
coedge $-1 $214 $213 $529 $530 forward $85 $-1 #
coedge $-1 $531 $532 $213 $337 reversed $516 $-1 #
edge $-1 $344 -8.6333932815386962 $533 8.6333932815386962 $336 $534 forward 7 unknown #
coedge $-1 $330 $535 $214 $339 reversed $210 $-1 #
edge $-1 $536 -8.6333932815386962 $343 8.6333932815386962 $338 $537 forward 7 unknown #
coedge $-1 $333 $215 $535 $538 forward $342 $-1 #
coedge $-1 $215 $333 $531 $539 reversed $342 $-1 #
loop $-1 $-1 $340 $515 #
vertex $-1 $216 $540 #
vertex $-1 $216 $541 #
straight-curve $-1 8.6333932815386962 0 137.80205694753869 0 1 0 I I #
loop $-1 $-1 $542 $137 #
coedge $-1 $347 $347 $220 $348 reversed $217 $-1 #
edge $-1 $543 0 $543 6.2831853071796004 $347 $544 forward 7 unknown #
vertex $-1 $221 $545 #
ellipse-curve $-1 0 0 -6.8731650746177557 0 0 -1 2 0 0 1 I I #
face $-1 $546 $547 $50 $-1 $548 reversed single #
loop $-1 $-1 $549 $222 #
plane-surface $-1 -8.6333932815386962 0 0 1 0 0 0 0 -1 forward_v I I I I #
coedge $-1 $550 $362 $551 $552 forward $223 $-1 #
coedge $-1 $553 $225 $550 $554 forward $143 $-1 #
coedge $-1 $225 $553 $555 $556 forward $143 $-1 #
coedge $-1 $365 $364 $225 $358 reversed $366 $-1 #
edge $-1 $557 -275.60411389507738 $558 275.60411389507738 $357 $559 forward 7 unknown #
coedge $-1 $227 $226 $560 $561 forward $91 $-1 #
coedge $-1 $562 $563 $226 $361 reversed $547 $-1 #
edge $-1 $368 -8.6333932815386962 $564 8.6333932815386962 $360 $565 forward 7 unknown #
coedge $-1 $354 $566 $227 $363 reversed $223 $-1 #
edge $-1 $567 -8.6333932815386962 $367 8.6333932815386962 $362 $568 forward 7 unknown #
coedge $-1 $357 $228 $566 $569 forward $366 $-1 #
coedge $-1 $228 $357 $562 $570 reversed $366 $-1 #
loop $-1 $-1 $364 $546 #
vertex $-1 $229 $571 #
vertex $-1 $229 $572 #
straight-curve $-1 8.6333932815386962 0 137.80205694753869 0 1 0 I I #
loop $-1 $-1 $573 $146 #
coedge $-1 $371 $371 $233 $372 reversed $230 $-1 #
edge $-1 $574 0 $574 6.2831853071796004 $371 $575 forward 7 unknown #
vertex $-1 $234 $576 #
ellipse-curve $-1 0 0 -6.8731650746177557 0 0 -1 2 0 0 1 I I #
face $-1 $577 $578 $52 $-1 $579 reversed single #
loop $-1 $-1 $580 $235 #
plane-surface $-1 -8.6333932815386962 0 0 1 0 0 0 0 -1 forward_v I I I I #
coedge $-1 $581 $386 $582 $583 forward $236 $-1 #
coedge $-1 $584 $238 $581 $585 forward $152 $-1 #
coedge $-1 $238 $584 $586 $587 forward $152 $-1 #
coedge $-1 $389 $388 $238 $382 reversed $390 $-1 #
edge $-1 $588 -275.60411389507738 $589 275.60411389507738 $381 $590 forward 7 unknown #
coedge $-1 $240 $239 $591 $592 forward $97 $-1 #
coedge $-1 $593 $594 $239 $385 reversed $578 $-1 #
edge $-1 $392 -8.6333932815386962 $595 8.6333932815386962 $384 $596 forward 7 unknown #
coedge $-1 $378 $597 $240 $387 reversed $236 $-1 #
edge $-1 $598 -8.6333932815386962 $391 8.6333932815386962 $386 $599 forward 7 unknown #
coedge $-1 $381 $241 $597 $600 forward $390 $-1 #
coedge $-1 $241 $381 $593 $601 reversed $390 $-1 #
loop $-1 $-1 $388 $577 #
vertex $-1 $242 $602 #
vertex $-1 $242 $603 #
straight-curve $-1 8.6333932815386962 0 137.80205694753869 0 1 0 I I #
loop $-1 $-1 $604 $155 #
coedge $-1 $395 $395 $246 $396 reversed $243 $-1 #
edge $-1 $605 0 $605 6.2831853071796004 $395 $606 forward 7 unknown #
vertex $-1 $247 $607 #
ellipse-curve $-1 0 0 -6.8731650746177557 0 0 -1 2 0 0 1 I I #
face $-1 $608 $609 $54 $-1 $610 reversed single #
loop $-1 $-1 $611 $248 #
plane-surface $-1 -11.54718322740198 0 0 1 0 0 0 0 -1 forward_v I I I I #
coedge $-1 $612 $410 $613 $614 forward $249 $-1 #
coedge $-1 $615 $251 $612 $616 forward $161 $-1 #
coedge $-1 $251 $615 $617 $618 forward $161 $-1 #
coedge $-1 $413 $412 $251 $406 reversed $414 $-1 #
edge $-1 $619 -275.60411389507738 $620 275.60411389507738 $405 $621 forward 7 unknown #
coedge $-1 $253 $252 $622 $623 forward $103 $-1 #
coedge $-1 $624 $625 $252 $409 reversed $609 $-1 #
edge $-1 $416 -11.54718322740198 $626 11.54718322740198 $408 $627 forward 7 unknown #
coedge $-1 $402 $628 $253 $411 reversed $249 $-1 #
edge $-1 $629 -11.54718322740198 $415 11.54718322740198 $410 $630 forward 7 unknown #
coedge $-1 $405 $254 $628 $631 forward $414 $-1 #
coedge $-1 $254 $405 $624 $632 reversed $414 $-1 #
loop $-1 $-1 $412 $608 #
vertex $-1 $255 $633 #
vertex $-1 $255 $634 #
straight-curve $-1 11.54718322740198 0 137.80205694753869 0 1 0 I I #
loop $-1 $-1 $635 $164 #
coedge $-1 $419 $419 $259 $420 reversed $256 $-1 #
edge $-1 $636 0 $636 6.2831853071796004 $419 $637 forward 7 unknown #
vertex $-1 $260 $638 #
ellipse-curve $-1 0 0 -10.854022339548937 0 0 -1 2.5 0 0 1 I I #
loop $-1 $-1 $639 $169 #
coedge $-1 $424 $424 $264 $425 reversed $261 $-1 #
edge $-1 $640 0 $640 6.2831853071796004 $424 $641 forward 7 unknown #
vertex $-1 $265 $642 #
ellipse-curve $-1 0 0 -10.854022339548937 0 0 -1 2.5 0 0 1 I I #
face $-1 $643 $644 $57 $-1 $645 reversed single #
loop $-1 $-1 $646 $266 #
plane-surface $-1 -11.54718322740198 0 0 1 0 0 0 0 -1 forward_v I I I I #
coedge $-1 $647 $439 $648 $649 forward $267 $-1 #
coedge $-1 $650 $269 $647 $651 forward $175 $-1 #
coedge $-1 $269 $650 $652 $653 forward $175 $-1 #
coedge $-1 $442 $441 $269 $435 reversed $443 $-1 #
edge $-1 $654 -275.60411389507738 $655 275.60411389507738 $434 $656 forward 7 unknown #
coedge $-1 $271 $270 $657 $658 forward $112 $-1 #
coedge $-1 $659 $660 $270 $438 reversed $644 $-1 #
edge $-1 $445 -11.54718322740198 $661 11.54718322740198 $437 $662 forward 7 unknown #
coedge $-1 $431 $663 $271 $440 reversed $267 $-1 #
edge $-1 $664 -11.54718322740198 $444 11.54718322740198 $439 $665 forward 7 unknown #
coedge $-1 $434 $272 $663 $666 forward $443 $-1 #
coedge $-1 $272 $434 $659 $667 reversed $443 $-1 #
loop $-1 $-1 $441 $643 #
vertex $-1 $273 $668 #
vertex $-1 $273 $669 #
straight-curve $-1 11.54718322740198 0 137.80205694753869 0 1 0 I I #
loop $-1 $-1 $670 $178 #
coedge $-1 $448 $448 $277 $449 reversed $274 $-1 #
edge $-1 $671 0 $671 6.2831853071796004 $448 $672 forward 7 unknown #
vertex $-1 $278 $673 #
ellipse-curve $-1 0 0 -10.854022339548937 0 0 -1 2.5 0 0 1 I I #
loop $-1 $-1 $674 $183 #
coedge $-1 $453 $453 $282 $454 reversed $279 $-1 #
edge $-1 $675 0 $675 6.2831853071796004 $453 $676 forward 7 unknown #
vertex $-1 $283 $677 #
ellipse-curve $-1 0 0 -10.854022339548937 0 0 -1 2.5 0 0 1 I I #
face $-1 $-1 $299 $45 $-1 $678 reversed single #
loop $-1 $-1 $473 $284 #
plane-surface $-1 0 29.560133002061669 0 0 -1 0 0 0 -1 forward_v I I I I #
coedge $-1 $679 $471 $474 $680 forward $285 $-1 #
coedge $-1 $477 $287 $288 $465 reversed $189 $-1 #
coedge $-1 $471 $679 $287 $463 reversed $285 $-1 #
edge $-1 $478 -13.561377464119152 $681 13.561377464119152 $462 $682 forward 7 unknown #
coedge $-1 $289 $288 $679 $683 forward $121 $-1 #
edge $-1 $469 -68.901028473769344 $681 68.901028473769344 $461 $684 forward 7 unknown #
coedge $-1 $474 $473 $289 $467 reversed $458 $-1 #
edge $-1 $685 -68.901028473769344 $468 68.901028473769344 $466 $686 forward 7 unknown #
vertex $-1 $291 $687 #
vertex $-1 $480 $688 #
straight-curve $-1 68.901028473769344 0 -13.561377464119152 0 -1 0 I I #
coedge $-1 $460 $462 $292 $472 reversed $285 $-1 #
edge $-1 $475 -29.560133002061669 $478 29.560133002061669 $471 $689 forward 7 unknown #
coedge $-1 $466 $293 $298 $481 forward $458 $-1 #
coedge $-1 $293 $466 $460 $680 reversed $458 $-1 #
vertex $-1 $294 $690 #
straight-curve $-1 0 29.560133002061669 13.561377464119152 -1 0 0 I I #
coedge $-1 $295 $461 $297 $480 reversed $189 $-1 #
vertex $-1 $472 $691 #
straight-curve $-1 0 -29.560133002061669 13.561377464119152 1 0 0 I I #
edge $-1 $300 -13.561377464119152 $469 13.561377464119152 $297 $692 forward 7 unknown #
edge $-1 $301 -13.561377464119152 $468 13.561377464119152 $298 $693 forward 7 unknown #
point $-1 68.901028473769344 -29.560133002061669 13.561377464119152 #
point $-1 68.901028473769344 29.560133002061669 13.561377464119152 #
face $-1 $-1 $318 $46 $-1 $694 reversed single #
loop $-1 $-1 $500 $303 #
plane-surface $-1 0 275.60411389507738 0 0 -1 0 0 0 -1 forward_v I I I I #
coedge $-1 $695 $498 $501 $696 forward $304 $-1 #
coedge $-1 $504 $306 $307 $492 reversed $197 $-1 #
coedge $-1 $498 $695 $306 $490 reversed $304 $-1 #
edge $-1 $505 -137.80205694753869 $697 137.80205694753869 $489 $698 forward 7 unknown #
coedge $-1 $308 $307 $695 $699 forward $125 $-1 #
edge $-1 $496 -8.6333932815386962 $697 8.6333932815386962 $488 $700 forward 7 unknown #
coedge $-1 $501 $500 $308 $494 reversed $485 $-1 #
edge $-1 $701 -8.6333932815386962 $495 8.6333932815386962 $493 $702 forward 7 unknown #
vertex $-1 $310 $703 #
vertex $-1 $507 $704 #
straight-curve $-1 8.6333932815386962 0 -137.80205694753869 0 -1 0 I I #
coedge $-1 $487 $489 $311 $499 reversed $304 $-1 #
edge $-1 $502 -275.60411389507738 $505 275.60411389507738 $498 $705 forward 7 unknown #
coedge $-1 $493 $312 $317 $508 forward $485 $-1 #
coedge $-1 $312 $493 $487 $696 reversed $485 $-1 #
vertex $-1 $313 $706 #
straight-curve $-1 0 275.60411389507738 137.80205694753869 -1 0 0 I I #
coedge $-1 $314 $488 $316 $507 reversed $197 $-1 #
vertex $-1 $499 $707 #
straight-curve $-1 0 -275.60411389507738 137.80205694753869 1 0 0 I I #
edge $-1 $319 -137.80205694753869 $496 137.80205694753869 $316 $708 forward 7 unknown #
edge $-1 $320 -137.80205694753869 $495 137.80205694753869 $317 $709 forward 7 unknown #
point $-1 8.6333932815386962 -275.60411389507738 137.80205694753869 #
point $-1 8.6333932815386962 275.60411389507738 137.80205694753869 #
coedge $-1 $511 $511 $-1 $710 reversed $322 $-1 #
vertex $-1 $324 $711 #
ellipse-curve $-1 0 0 -1 0 0 -1 2 0 0 1 I I #
point $-1 2 0 -6.8731650746177557 #
face $-1 $-1 $342 $48 $-1 $712 reversed single #
loop $-1 $-1 $531 $327 #
plane-surface $-1 0 275.60411389507738 0 0 -1 0 0 0 -1 forward_v I I I I #
coedge $-1 $713 $529 $532 $714 forward $328 $-1 #
coedge $-1 $535 $330 $331 $523 reversed $210 $-1 #
coedge $-1 $529 $713 $330 $521 reversed $328 $-1 #
edge $-1 $536 -137.80205694753869 $715 137.80205694753869 $520 $716 forward 7 unknown #
coedge $-1 $332 $331 $713 $717 forward $134 $-1 #
edge $-1 $527 -8.6333932815386962 $715 8.6333932815386962 $519 $718 forward 7 unknown #
coedge $-1 $532 $531 $332 $525 reversed $516 $-1 #
edge $-1 $719 -8.6333932815386962 $526 8.6333932815386962 $524 $720 forward 7 unknown #
vertex $-1 $334 $721 #
vertex $-1 $538 $722 #
straight-curve $-1 8.6333932815386962 0 -137.80205694753869 0 -1 0 I I #
coedge $-1 $518 $520 $335 $530 reversed $328 $-1 #
edge $-1 $533 -275.60411389507738 $536 275.60411389507738 $529 $723 forward 7 unknown #
coedge $-1 $524 $336 $341 $539 forward $516 $-1 #
coedge $-1 $336 $524 $518 $714 reversed $516 $-1 #
vertex $-1 $337 $724 #
straight-curve $-1 0 275.60411389507738 137.80205694753869 -1 0 0 I I #
coedge $-1 $338 $519 $340 $538 reversed $210 $-1 #
vertex $-1 $530 $725 #
straight-curve $-1 0 -275.60411389507738 137.80205694753869 1 0 0 I I #
edge $-1 $343 -137.80205694753869 $527 137.80205694753869 $340 $726 forward 7 unknown #
edge $-1 $344 -137.80205694753869 $526 137.80205694753869 $341 $727 forward 7 unknown #
point $-1 8.6333932815386962 -275.60411389507738 137.80205694753869 #
point $-1 8.6333932815386962 275.60411389507738 137.80205694753869 #
coedge $-1 $542 $542 $-1 $728 reversed $346 $-1 #
vertex $-1 $348 $729 #
ellipse-curve $-1 0 0 -1 0 0 -1 2 0 0 1 I I #
point $-1 2 0 -6.8731650746177557 #
face $-1 $-1 $366 $50 $-1 $730 reversed single #
loop $-1 $-1 $562 $351 #
plane-surface $-1 0 275.60411389507738 0 0 -1 0 0 0 -1 forward_v I I I I #
coedge $-1 $731 $560 $563 $732 forward $352 $-1 #
coedge $-1 $566 $354 $355 $554 reversed $223 $-1 #
coedge $-1 $560 $731 $354 $552 reversed $352 $-1 #
edge $-1 $567 -137.80205694753869 $733 137.80205694753869 $551 $734 forward 7 unknown #
coedge $-1 $356 $355 $731 $735 forward $143 $-1 #
edge $-1 $558 -8.6333932815386962 $733 8.6333932815386962 $550 $736 forward 7 unknown #
coedge $-1 $563 $562 $356 $556 reversed $547 $-1 #
edge $-1 $737 -8.6333932815386962 $557 8.6333932815386962 $555 $738 forward 7 unknown #
vertex $-1 $358 $739 #
vertex $-1 $569 $740 #
straight-curve $-1 8.6333932815386962 0 -137.80205694753869 0 -1 0 I I #
coedge $-1 $549 $551 $359 $561 reversed $352 $-1 #
edge $-1 $564 -275.60411389507738 $567 275.60411389507738 $560 $741 forward 7 unknown #
coedge $-1 $555 $360 $365 $570 forward $547 $-1 #
coedge $-1 $360 $555 $549 $732 reversed $547 $-1 #
vertex $-1 $361 $742 #
straight-curve $-1 0 275.60411389507738 137.80205694753869 -1 0 0 I I #
coedge $-1 $362 $550 $364 $569 reversed $223 $-1 #
vertex $-1 $561 $743 #
straight-curve $-1 0 -275.60411389507738 137.80205694753869 1 0 0 I I #
edge $-1 $367 -137.80205694753869 $558 137.80205694753869 $364 $744 forward 7 unknown #
edge $-1 $368 -137.80205694753869 $557 137.80205694753869 $365 $745 forward 7 unknown #
point $-1 8.6333932815386962 -275.60411389507738 137.80205694753869 #
point $-1 8.6333932815386962 275.60411389507738 137.80205694753869 #
coedge $-1 $573 $573 $-1 $746 reversed $370 $-1 #
vertex $-1 $372 $747 #
ellipse-curve $-1 0 0 -1 0 0 -1 2 0 0 1 I I #
point $-1 2 0 -6.8731650746177557 #
face $-1 $-1 $390 $52 $-1 $748 reversed single #
loop $-1 $-1 $593 $375 #
plane-surface $-1 0 275.60411389507738 0 0 -1 0 0 0 -1 forward_v I I I I #
coedge $-1 $749 $591 $594 $750 forward $376 $-1 #
coedge $-1 $597 $378 $379 $585 reversed $236 $-1 #
coedge $-1 $591 $749 $378 $583 reversed $376 $-1 #
edge $-1 $598 -137.80205694753869 $751 137.80205694753869 $582 $752 forward 7 unknown #
coedge $-1 $380 $379 $749 $753 forward $152 $-1 #
edge $-1 $589 -8.6333932815386962 $751 8.6333932815386962 $581 $754 forward 7 unknown #
coedge $-1 $594 $593 $380 $587 reversed $578 $-1 #
edge $-1 $755 -8.6333932815386962 $588 8.6333932815386962 $586 $756 forward 7 unknown #
vertex $-1 $382 $757 #
vertex $-1 $600 $758 #
straight-curve $-1 8.6333932815386962 0 -137.80205694753869 0 -1 0 I I #
coedge $-1 $580 $582 $383 $592 reversed $376 $-1 #
edge $-1 $595 -275.60411389507738 $598 275.60411389507738 $591 $759 forward 7 unknown #
coedge $-1 $586 $384 $389 $601 forward $578 $-1 #
coedge $-1 $384 $586 $580 $750 reversed $578 $-1 #
vertex $-1 $385 $760 #
straight-curve $-1 0 275.60411389507738 137.80205694753869 -1 0 0 I I #
coedge $-1 $386 $581 $388 $600 reversed $236 $-1 #
vertex $-1 $592 $761 #
straight-curve $-1 0 -275.60411389507738 137.80205694753869 1 0 0 I I #
edge $-1 $391 -137.80205694753869 $589 137.80205694753869 $388 $762 forward 7 unknown #
edge $-1 $392 -137.80205694753869 $588 137.80205694753869 $389 $763 forward 7 unknown #
point $-1 8.6333932815386962 -275.60411389507738 137.80205694753869 #
point $-1 8.6333932815386962 275.60411389507738 137.80205694753869 #
coedge $-1 $604 $604 $-1 $764 reversed $394 $-1 #
vertex $-1 $396 $765 #
ellipse-curve $-1 0 0 -1 0 0 -1 2 0 0 1 I I #
point $-1 2 0 -6.8731650746177557 #
face $-1 $-1 $414 $54 $-1 $766 reversed single #
loop $-1 $-1 $624 $399 #
plane-surface $-1 0 275.60411389507738 0 0 -1 0 0 0 -1 forward_v I I I I #
coedge $-1 $767 $622 $625 $768 forward $400 $-1 #
coedge $-1 $628 $402 $403 $616 reversed $249 $-1 #
coedge $-1 $622 $767 $402 $614 reversed $400 $-1 #
edge $-1 $629 -137.80205694753869 $769 137.80205694753869 $613 $770 forward 7 unknown #
coedge $-1 $404 $403 $767 $771 forward $161 $-1 #
edge $-1 $620 -11.54718322740198 $769 11.54718322740198 $612 $772 forward 7 unknown #
coedge $-1 $625 $624 $404 $618 reversed $609 $-1 #
edge $-1 $773 -11.54718322740198 $619 11.54718322740198 $617 $774 forward 7 unknown #
vertex $-1 $406 $775 #
vertex $-1 $631 $776 #
straight-curve $-1 11.54718322740198 0 -137.80205694753869 0 -1 0 I I #
coedge $-1 $611 $613 $407 $623 reversed $400 $-1 #
edge $-1 $626 -275.60411389507738 $629 275.60411389507738 $622 $777 forward 7 unknown #
coedge $-1 $617 $408 $413 $632 forward $609 $-1 #
coedge $-1 $408 $617 $611 $768 reversed $609 $-1 #
vertex $-1 $409 $778 #
straight-curve $-1 0 275.60411389507738 137.80205694753869 -1 0 0 I I #
coedge $-1 $410 $612 $412 $631 reversed $249 $-1 #
vertex $-1 $623 $779 #
straight-curve $-1 0 -275.60411389507738 137.80205694753869 1 0 0 I I #
edge $-1 $415 -137.80205694753869 $620 137.80205694753869 $412 $780 forward 7 unknown #
edge $-1 $416 -137.80205694753869 $619 137.80205694753869 $413 $781 forward 7 unknown #
point $-1 11.54718322740198 -275.60411389507738 137.80205694753869 #
point $-1 11.54718322740198 275.60411389507738 137.80205694753869 #
coedge $-1 $635 $635 $-1 $782 reversed $418 $-1 #
vertex $-1 $420 $783 #
ellipse-curve $-1 0 0 -1.25 0 0 -1 2.5 0 0 1 I I #
point $-1 2.5 0 -10.854022339548937 #
coedge $-1 $639 $639 $-1 $784 reversed $423 $-1 #
vertex $-1 $425 $785 #
ellipse-curve $-1 0 0 -1.25 0 0 -1 2.5 0 0 1 I I #
point $-1 2.5 0 -10.854022339548937 #
face $-1 $-1 $443 $57 $-1 $786 reversed single #
loop $-1 $-1 $659 $428 #
plane-surface $-1 0 275.60411389507738 0 0 -1 0 0 0 -1 forward_v I I I I #
coedge $-1 $787 $657 $660 $788 forward $429 $-1 #
coedge $-1 $663 $431 $432 $651 reversed $267 $-1 #
coedge $-1 $657 $787 $431 $649 reversed $429 $-1 #
edge $-1 $664 -137.80205694753869 $789 137.80205694753869 $648 $790 forward 7 unknown #
coedge $-1 $433 $432 $787 $791 forward $175 $-1 #
edge $-1 $655 -11.54718322740198 $789 11.54718322740198 $647 $792 forward 7 unknown #
coedge $-1 $660 $659 $433 $653 reversed $644 $-1 #
edge $-1 $793 -11.54718322740198 $654 11.54718322740198 $652 $794 forward 7 unknown #
vertex $-1 $435 $795 #
vertex $-1 $666 $796 #
straight-curve $-1 11.54718322740198 0 -137.80205694753869 0 -1 0 I I #
coedge $-1 $646 $648 $436 $658 reversed $429 $-1 #
edge $-1 $661 -275.60411389507738 $664 275.60411389507738 $657 $797 forward 7 unknown #
coedge $-1 $652 $437 $442 $667 forward $644 $-1 #
coedge $-1 $437 $652 $646 $788 reversed $644 $-1 #
vertex $-1 $438 $798 #
straight-curve $-1 0 275.60411389507738 137.80205694753869 -1 0 0 I I #
coedge $-1 $439 $647 $441 $666 reversed $267 $-1 #
vertex $-1 $658 $799 #
straight-curve $-1 0 -275.60411389507738 137.80205694753869 1 0 0 I I #
edge $-1 $444 -137.80205694753869 $655 137.80205694753869 $441 $800 forward 7 unknown #
edge $-1 $445 -137.80205694753869 $654 137.80205694753869 $442 $801 forward 7 unknown #
point $-1 11.54718322740198 -275.60411389507738 137.80205694753869 #
point $-1 11.54718322740198 275.60411389507738 137.80205694753869 #
coedge $-1 $670 $670 $-1 $802 reversed $447 $-1 #
vertex $-1 $449 $803 #
ellipse-curve $-1 0 0 -1.25 0 0 -1 2.5 0 0 1 I I #
point $-1 2.5 0 -10.854022339548937 #
coedge $-1 $674 $674 $-1 $804 reversed $452 $-1 #
vertex $-1 $454 $805 #
ellipse-curve $-1 0 0 -1.25 0 0 -1 2.5 0 0 1 I I #
point $-1 2.5 0 -10.854022339548937 #
plane-surface $-1 68.901028473769344 0 0 -1 0 0 0 0 1 forward_v I I I I #
coedge $-1 $462 $460 $464 $683 reversed $285 $-1 #
edge $-1 $475 -13.561377464119152 $685 13.561377464119152 $474 $806 forward 7 unknown #
vertex $-1 $683 $807 #
straight-curve $-1 -68.901028473769344 -29.560133002061669 0 0 0 -1 I I #
edge $-1 $681 -29.560133002061669 $685 29.560133002061669 $679 $808 forward 7 unknown #
straight-curve $-1 0 -29.560133002061669 -13.561377464119152 -1 0 0 I I #
vertex $-1 $467 $809 #
straight-curve $-1 0 29.560133002061669 -13.561377464119152 1 0 0 I I #
point $-1 68.901028473769344 29.560133002061669 -13.561377464119152 #
point $-1 68.901028473769344 -29.560133002061669 -13.561377464119152 #
straight-curve $-1 -68.901028473769344 0 13.561377464119152 0 -1 0 I I #
point $-1 -68.901028473769344 29.560133002061669 13.561377464119152 #
point $-1 -68.901028473769344 -29.560133002061669 13.561377464119152 #
straight-curve $-1 68.901028473769344 -29.560133002061669 0 0 0 -1 I I #
straight-curve $-1 68.901028473769344 29.560133002061669 0 0 0 -1 I I #
plane-surface $-1 8.6333932815386962 0 0 -1 0 0 0 0 1 forward_v I I I I #
coedge $-1 $489 $487 $491 $699 reversed $304 $-1 #
edge $-1 $502 -137.80205694753869 $701 137.80205694753869 $501 $810 forward 7 unknown #
vertex $-1 $699 $811 #
straight-curve $-1 -8.6333932815386962 -275.60411389507738 0 0 0 -1 I I #
edge $-1 $697 -275.60411389507738 $701 275.60411389507738 $695 $812 forward 7 unknown #
straight-curve $-1 0 -275.60411389507738 -137.80205694753869 -1 0 0 I I #
vertex $-1 $494 $813 #
straight-curve $-1 0 275.60411389507738 -137.80205694753869 1 0 0 I I #
point $-1 8.6333932815386962 275.60411389507738 -137.80205694753869 #
point $-1 8.6333932815386962 -275.60411389507738 -137.80205694753869 #
straight-curve $-1 -8.6333932815386962 0 137.80205694753869 0 -1 0 I I #
point $-1 -8.6333932815386962 275.60411389507738 137.80205694753869 #
point $-1 -8.6333932815386962 -275.60411389507738 137.80205694753869 #
straight-curve $-1 8.6333932815386962 -275.60411389507738 0 0 0 -1 I I #
straight-curve $-1 8.6333932815386962 275.60411389507738 0 0 0 -1 I I #
edge $-1 $814 1 $814 0 $511 $-1 forward 7 unknown #
point $-1 2 0 -1 #
plane-surface $-1 8.6333932815386962 0 0 -1 0 0 0 0 1 forward_v I I I I #
coedge $-1 $520 $518 $522 $717 reversed $328 $-1 #
edge $-1 $533 -137.80205694753869 $719 137.80205694753869 $532 $815 forward 7 unknown #
vertex $-1 $717 $816 #
straight-curve $-1 -8.6333932815386962 -275.60411389507738 0 0 0 -1 I I #
edge $-1 $715 -275.60411389507738 $719 275.60411389507738 $713 $817 forward 7 unknown #
straight-curve $-1 0 -275.60411389507738 -137.80205694753869 -1 0 0 I I #
vertex $-1 $525 $818 #
straight-curve $-1 0 275.60411389507738 -137.80205694753869 1 0 0 I I #
point $-1 8.6333932815386962 275.60411389507738 -137.80205694753869 #
point $-1 8.6333932815386962 -275.60411389507738 -137.80205694753869 #
straight-curve $-1 -8.6333932815386962 0 137.80205694753869 0 -1 0 I I #
point $-1 -8.6333932815386962 275.60411389507738 137.80205694753869 #
point $-1 -8.6333932815386962 -275.60411389507738 137.80205694753869 #
straight-curve $-1 8.6333932815386962 -275.60411389507738 0 0 0 -1 I I #
straight-curve $-1 8.6333932815386962 275.60411389507738 0 0 0 -1 I I #
edge $-1 $819 1 $819 0 $542 $-1 forward 7 unknown #
point $-1 2 0 -1 #
plane-surface $-1 8.6333932815386962 0 0 -1 0 0 0 0 1 forward_v I I I I #
coedge $-1 $551 $549 $553 $735 reversed $352 $-1 #
edge $-1 $564 -137.80205694753869 $737 137.80205694753869 $563 $820 forward 7 unknown #
vertex $-1 $735 $821 #
straight-curve $-1 -8.6333932815386962 -275.60411389507738 0 0 0 -1 I I #
edge $-1 $733 -275.60411389507738 $737 275.60411389507738 $731 $822 forward 7 unknown #
straight-curve $-1 0 -275.60411389507738 -137.80205694753869 -1 0 0 I I #
vertex $-1 $556 $823 #
straight-curve $-1 0 275.60411389507738 -137.80205694753869 1 0 0 I I #
point $-1 8.6333932815386962 275.60411389507738 -137.80205694753869 #
point $-1 8.6333932815386962 -275.60411389507738 -137.80205694753869 #
straight-curve $-1 -8.6333932815386962 0 137.80205694753869 0 -1 0 I I #
point $-1 -8.6333932815386962 275.60411389507738 137.80205694753869 #
point $-1 -8.6333932815386962 -275.60411389507738 137.80205694753869 #
straight-curve $-1 8.6333932815386962 -275.60411389507738 0 0 0 -1 I I #
straight-curve $-1 8.6333932815386962 275.60411389507738 0 0 0 -1 I I #
edge $-1 $824 1 $824 0 $573 $-1 forward 7 unknown #
point $-1 2 0 -1 #
plane-surface $-1 8.6333932815386962 0 0 -1 0 0 0 0 1 forward_v I I I I #
coedge $-1 $582 $580 $584 $753 reversed $376 $-1 #
edge $-1 $595 -137.80205694753869 $755 137.80205694753869 $594 $825 forward 7 unknown #
vertex $-1 $753 $826 #
straight-curve $-1 -8.6333932815386962 -275.60411389507738 0 0 0 -1 I I #
edge $-1 $751 -275.60411389507738 $755 275.60411389507738 $749 $827 forward 7 unknown #
straight-curve $-1 0 -275.60411389507738 -137.80205694753869 -1 0 0 I I #
vertex $-1 $587 $828 #
straight-curve $-1 0 275.60411389507738 -137.80205694753869 1 0 0 I I #
point $-1 8.6333932815386962 275.60411389507738 -137.80205694753869 #
point $-1 8.6333932815386962 -275.60411389507738 -137.80205694753869 #
straight-curve $-1 -8.6333932815386962 0 137.80205694753869 0 -1 0 I I #
point $-1 -8.6333932815386962 275.60411389507738 137.80205694753869 #
point $-1 -8.6333932815386962 -275.60411389507738 137.80205694753869 #
straight-curve $-1 8.6333932815386962 -275.60411389507738 0 0 0 -1 I I #
straight-curve $-1 8.6333932815386962 275.60411389507738 0 0 0 -1 I I #
edge $-1 $829 1 $829 0 $604 $-1 forward 7 unknown #
point $-1 2 0 -1 #
plane-surface $-1 11.54718322740198 0 0 -1 0 0 0 0 1 forward_v I I I I #
coedge $-1 $613 $611 $615 $771 reversed $400 $-1 #
edge $-1 $626 -137.80205694753869 $773 137.80205694753869 $625 $830 forward 7 unknown #
vertex $-1 $771 $831 #
straight-curve $-1 -11.54718322740198 -275.60411389507738 0 0 0 -1 I I #
edge $-1 $769 -275.60411389507738 $773 275.60411389507738 $767 $832 forward 7 unknown #
straight-curve $-1 0 -275.60411389507738 -137.80205694753869 -1 0 0 I I #
vertex $-1 $618 $833 #
straight-curve $-1 0 275.60411389507738 -137.80205694753869 1 0 0 I I #
point $-1 11.54718322740198 275.60411389507738 -137.80205694753869 #
point $-1 11.54718322740198 -275.60411389507738 -137.80205694753869 #
straight-curve $-1 -11.54718322740198 0 137.80205694753869 0 -1 0 I I #
point $-1 -11.54718322740198 275.60411389507738 137.80205694753869 #
point $-1 -11.54718322740198 -275.60411389507738 137.80205694753869 #
straight-curve $-1 11.54718322740198 -275.60411389507738 0 0 0 -1 I I #
straight-curve $-1 11.54718322740198 275.60411389507738 0 0 0 -1 I I #
edge $-1 $834 1 $834 0 $635 $-1 forward 7 unknown #
point $-1 2.5 0 -1.25 #
edge $-1 $835 1 $835 0 $639 $-1 forward 7 unknown #
point $-1 2.5 0 -1.25 #
plane-surface $-1 11.54718322740198 0 0 -1 0 0 0 0 1 forward_v I I I I #
coedge $-1 $648 $646 $650 $791 reversed $429 $-1 #
edge $-1 $661 -137.80205694753869 $793 137.80205694753869 $660 $836 forward 7 unknown #
vertex $-1 $791 $837 #
straight-curve $-1 -11.54718322740198 -275.60411389507738 0 0 0 -1 I I #
edge $-1 $789 -275.60411389507738 $793 275.60411389507738 $787 $838 forward 7 unknown #
straight-curve $-1 0 -275.60411389507738 -137.80205694753869 -1 0 0 I I #
vertex $-1 $653 $839 #
straight-curve $-1 0 275.60411389507738 -137.80205694753869 1 0 0 I I #
point $-1 11.54718322740198 275.60411389507738 -137.80205694753869 #
point $-1 11.54718322740198 -275.60411389507738 -137.80205694753869 #
straight-curve $-1 -11.54718322740198 0 137.80205694753869 0 -1 0 I I #
point $-1 -11.54718322740198 275.60411389507738 137.80205694753869 #
point $-1 -11.54718322740198 -275.60411389507738 137.80205694753869 #
straight-curve $-1 11.54718322740198 -275.60411389507738 0 0 0 -1 I I #
straight-curve $-1 11.54718322740198 275.60411389507738 0 0 0 -1 I I #
edge $-1 $840 1 $840 0 $670 $-1 forward 7 unknown #
point $-1 2.5 0 -1.25 #
edge $-1 $841 1 $841 0 $674 $-1 forward 7 unknown #
point $-1 2.5 0 -1.25 #
straight-curve $-1 -68.901028473769344 29.560133002061669 0 0 0 -1 I I #
point $-1 -68.901028473769344 -29.560133002061669 -13.561377464119152 #
straight-curve $-1 -68.901028473769344 0 -13.561377464119152 0 1 0 I I #
point $-1 -68.901028473769344 29.560133002061669 -13.561377464119152 #
straight-curve $-1 -8.6333932815386962 275.60411389507738 0 0 0 -1 I I #
point $-1 -8.6333932815386962 -275.60411389507738 -137.80205694753869 #
straight-curve $-1 -8.6333932815386962 0 -137.80205694753869 0 1 0 I I #
point $-1 -8.6333932815386962 275.60411389507738 -137.80205694753869 #
vertex $-1 $710 $842 #
straight-curve $-1 -8.6333932815386962 275.60411389507738 0 0 0 -1 I I #
point $-1 -8.6333932815386962 -275.60411389507738 -137.80205694753869 #
straight-curve $-1 -8.6333932815386962 0 -137.80205694753869 0 1 0 I I #
point $-1 -8.6333932815386962 275.60411389507738 -137.80205694753869 #
vertex $-1 $728 $843 #
straight-curve $-1 -8.6333932815386962 275.60411389507738 0 0 0 -1 I I #
point $-1 -8.6333932815386962 -275.60411389507738 -137.80205694753869 #
straight-curve $-1 -8.6333932815386962 0 -137.80205694753869 0 1 0 I I #
point $-1 -8.6333932815386962 275.60411389507738 -137.80205694753869 #
vertex $-1 $746 $844 #
straight-curve $-1 -8.6333932815386962 275.60411389507738 0 0 0 -1 I I #
point $-1 -8.6333932815386962 -275.60411389507738 -137.80205694753869 #
straight-curve $-1 -8.6333932815386962 0 -137.80205694753869 0 1 0 I I #
point $-1 -8.6333932815386962 275.60411389507738 -137.80205694753869 #
vertex $-1 $764 $845 #
straight-curve $-1 -11.54718322740198 275.60411389507738 0 0 0 -1 I I #
point $-1 -11.54718322740198 -275.60411389507738 -137.80205694753869 #
straight-curve $-1 -11.54718322740198 0 -137.80205694753869 0 1 0 I I #
point $-1 -11.54718322740198 275.60411389507738 -137.80205694753869 #
vertex $-1 $782 $846 #
vertex $-1 $784 $847 #
straight-curve $-1 -11.54718322740198 275.60411389507738 0 0 0 -1 I I #
point $-1 -11.54718322740198 -275.60411389507738 -137.80205694753869 #
straight-curve $-1 -11.54718322740198 0 -137.80205694753869 0 1 0 I I #
point $-1 -11.54718322740198 275.60411389507738 -137.80205694753869 #
vertex $-1 $802 $848 #
vertex $-1 $804 $849 #
point $-1 0 0 1 #
point $-1 0 0 1 #
point $-1 0 0 1 #
point $-1 0 0 1 #
point $-1 0 0 1.25 #
point $-1 0 0 1.25 #
point $-1 0 0 1.25 #
point $-1 0 0 1.25 #
End-of-ACIS-data 