500 0 5 0           
7 Unknown 11 ACIS 5.0 NT 24 Thu Mar 25 21:28:54 1999 
-1 9.9999999999999995e-007 1e-010 
body $-1 $5 $-1 $6 #
body $-1 $7 $-1 $8 #
body $-1 $9 $-1 $10 #
body $-1 $11 $-1 $12 #
body $-1 $13 $-1 $14 #
lump $-1 $-1 $15 $0 #
transform $-1 1 0 0 0 1 0 0 0 1 63.050019837031158 37.721102599481917 13.612152640684652 1 rotate no_reflect no_shear #
lump $-1 $-1 $16 $1 #
transform $-1 1 0 0 0 1 0 0 0 1 63.050019837031158 37.721102599481917 13.612152640684652 1 rotate no_reflect no_shear #
lump $-1 $-1 $17 $2 #
transform $-1 1 0 0 0 1 0 0 0 1 63.050019837031158 37.721102599481917 13.612152640684652 1 rotate no_reflect no_shear #
lump $-1 $-1 $18 $3 #
transform $-1 1 0 0 0 1 0 0 0 1 63.050019837031158 37.721102599481917 13.612152640684652 1 rotate no_reflect no_shear #
lump $-1 $-1 $19 $4 #
transform $-1 1 0 0 0 1 0 0 0 1 63.050019837031158 37.721102599481917 13.612152640684652 1 rotate no_reflect no_shear #
shell $-1 $-1 $-1 $20 $-1 $5 #
shell $-1 $-1 $-1 $21 $-1 $7 #
shell $-1 $-1 $-1 $22 $-1 $9 #
shell $-1 $-1 $-1 $23 $-1 $11 #
shell $-1 $-1 $-1 $24 $-1 $13 #
face $-1 $25 $26 $15 $-1 $27 forward single #
face $-1 $28 $29 $16 $-1 $30 reversed single #
face $-1 $31 $32 $17 $-1 $33 forward single #
face $-1 $34 $35 $18 $-1 $36 reversed single #
face $-1 $37 $38 $19 $-1 $39 reversed single #
face $-1 $40 $41 $15 $-1 $42 reversed single #
loop $-1 $-1 $43 $20 #
plane-surface $-1 0 0 13.612152640684652 0 0 1 1 0 0 forward_v I I I I #
face $-1 $44 $45 $16 $-1 $46 forward single #
loop $-1 $-1 $47 $21 #
plane-surface $-1 -58.30137799445103 0 5.6875563176279638 0 0 1 1 0 0 forward_v I I I I #
face $-1 $48 $49 $17 $-1 $50 forward single #
loop $-1 $-1 $51 $22 #
plane-surface $-1 87.869093456426157 -25.933128528063264 179.87343071656326 0 -1 0 -0.79863551827123203 0 -0.60181501223851219 forward_v I I I I #
face $-1 $52 $53 $18 $-1 $54 reversed single #
loop $-1 $55 $56 $23 #
cone-surface $-1 57.887318109139194 -34.353110007648013 7.4884827880829086 -0.79863551827123203 0 -0.60181501223851219 0.60181501223851219 0 -0.79863551827123203 1 I I 0 1 1 forward I I I I #
face $-1 $57 $58 $19 $-1 $59 reversed single #
loop $-1 $60 $61 $24 #
cone-surface $-1 57.887318109139194 -29.301121119897168 7.4884827880829086 -0.79863551827123203 0 -0.60181501223851219 0.60181501223851219 0 -0.79863551827123203 1 I I 0 1 1 forward I I I I #
face $-1 $62 $63 $15 $-1 $64 reversed single #
loop $-1 $-1 $65 $25 #
plane-surface $-1 0 0 -13.612152640684652 0 0 1 1 0 0 forward_v I I I I #
coedge $-1 $66 $67 $68 $69 forward $26 $-1 #
face $-1 $70 $71 $16 $-1 $72 forward single #
loop $-1 $-1 $73 $28 #
plane-surface $-1 -58.30137799445103 0 0.96262264336363934 0 0 1 1 0 0 forward_v I I I I #
coedge $-1 $74 $75 $76 $77 reversed $29 $-1 #
face $-1 $78 $79 $17 $-1 $80 reversed single #
loop $-1 $-1 $81 $31 #
plane-surface $-1 -12.838877082691525 -31.82711556377259 103.98453379684058 0.79863551827123203 0 0.60181501223851219 0.60181501223851219 0 -0.79863551827123203 forward_v I I I I #
coedge $-1 $82 $83 $84 $85 reversed $32 $-1 #
face $-1 $86 $87 $18 $-1 $88 forward single #
loop $-1 $89 $90 $34 #
cone-surface $-1 56.219511131257065 -34.353110007648013 6.2317001208427918 -0.79863551827123203 0 -0.60181501223851219 0.3009075061192561 0 -0.39931775913561601 1 I I -0.70710678118654746 0.70710678118654746 0.5 forward I I I I #
loop $-1 $-1 $91 $23 #
coedge $-1 $56 $56 $92 $93 reversed $35 $-1 #
face $-1 $94 $95 $19 $-1 $96 reversed single #
loop $-1 $97 $98 $37 #
cone-surface $-1 56.219511131257065 -29.301121119897168 6.2317001208427918 -0.79863551827123203 0 -0.60181501223851219 0.3009075061192561 0 -0.39931775913561601 1 I I -0.70710678118654746 0.70710678118654746 0.5 forward I I I I #
loop $-1 $-1 $99 $24 #
coedge $-1 $61 $61 $100 $101 reversed $38 $-1 #
face $-1 $102 $103 $15 $-1 $104 reversed single #
loop $-1 $-1 $105 $40 #
plane-surface $-1 0 -37.721102599481917 0 0 1 0 0 0 1 forward_v I I I I #
coedge $-1 $106 $107 $108 $109 forward $41 $-1 #
coedge $-1 $110 $43 $111 $112 forward $26 $-1 #
coedge $-1 $43 $110 $113 $114 forward $26 $-1 #
coedge $-1 $115 $116 $43 $69 reversed $117 $-1 #
edge $-1 $118 -37.721102599481917 $119 37.721102599481917 $68 $120 forward 7 unknown #
face $-1 $121 $122 $16 $-1 $123 reversed single #
loop $-1 $-1 $124 $44 #
plane-surface $-1 -53.552736151870903 0 3.3250894804958016 -1 0 0 0 0 1 forward_v I I I I #
coedge $-1 $125 $126 $127 $128 reversed $45 $-1 #
coedge $-1 $129 $47 $130 $131 reversed $29 $-1 #
coedge $-1 $47 $129 $132 $133 reversed $29 $-1 #
coedge $-1 $134 $124 $47 $77 forward $71 $-1 #
edge $-1 $135 -37.721102599481917 $136 37.721102599481917 $76 $137 forward 7 unknown #
face $-1 $138 $139 $17 $-1 $140 reversed single #
loop $-1 $-1 $141 $48 #
plane-surface $-1 63.050019837031158 0 0 -1 0 0 0 0 1 forward_v I I I I #
coedge $-1 $142 $143 $144 $145 reversed $49 $-1 #
coedge $-1 $83 $51 $143 $146 forward $32 $-1 #
coedge $-1 $51 $82 $141 $147 reversed $32 $-1 #
coedge $-1 $148 $144 $51 $85 forward $149 $-1 #
edge $-1 $150 11.3270480905272 $151 19.11547310881808 $84 $152 forward 7 unknown #
face $-1 $153 $154 $18 $-1 $155 forward single #
loop $-1 $-1 $156 $52 #
plane-surface $-1 87.869093456426157 -25.933128528063264 179.87343071656326 0 -1 0 -0.79863551827123203 0 -0.60181501223851219 forward_v I I I I #
loop $-1 $-1 $157 $34 #
coedge $-1 $90 $90 $91 $158 forward $53 $-1 #
coedge $-1 $91 $91 $90 $158 reversed $55 $-1 #
coedge $-1 $92 $92 $56 $93 forward $154 $-1 #
edge $-1 $159 0 $159 6.2831853071796004 $92 $160 forward 7 unknown #
face $-1 $161 $162 $19 $-1 $163 reversed single #
loop $-1 $164 $165 $57 #
cone-surface $-1 57.887318109139194 -34.353110007648013 7.4884827880829086 -0.79863551827123203 0 -0.60181501223851219 0.60181501223851219 0 -0.79863551827123203 1 I I 0 1 1 forward I I I I #
loop $-1 $-1 $166 $37 #
coedge $-1 $98 $98 $99 $167 forward $58 $-1 #
coedge $-1 $99 $99 $98 $167 reversed $60 $-1 #
coedge $-1 $100 $100 $61 $101 forward $168 $-1 #
edge $-1 $169 0 $169 6.2831853071796004 $100 $170 forward 7 unknown #
face $-1 $171 $172 $15 $-1 $173 reversed single #
loop $-1 $-1 $174 $62 #
plane-surface $-1 -63.050019837031158 0 0 1 0 0 0 0 -1 forward_v I I I I #
coedge $-1 $175 $113 $176 $177 forward $63 $-1 #
coedge $-1 $178 $65 $175 $179 forward $41 $-1 #
coedge $-1 $65 $178 $180 $181 forward $41 $-1 #
coedge $-1 $116 $115 $65 $109 reversed $117 $-1 #
edge $-1 $182 -37.721102599481917 $183 37.721102599481917 $108 $184 forward 7 unknown #
coedge $-1 $67 $66 $185 $186 forward $26 $-1 #
coedge $-1 $187 $188 $66 $112 reversed $172 $-1 #
edge $-1 $119 -63.050019837031158 $189 63.050019837031158 $111 $190 forward 7 unknown #
coedge $-1 $105 $191 $67 $114 reversed $63 $-1 #
edge $-1 $192 -63.050019837031158 $118 63.050019837031158 $113 $193 forward 7 unknown #
coedge $-1 $108 $68 $191 $194 forward $117 $-1 #
coedge $-1 $68 $108 $187 $195 reversed $117 $-1 #
loop $-1 $-1 $115 $171 #
vertex $-1 $69 $196 #
vertex $-1 $69 $197 #
straight-curve $-1 63.050019837031158 0 13.612152640684652 0 1 0 I I #
face $-1 $198 $199 $16 $-1 $123 reversed single #
loop $-1 $-1 $200 $70 #
plane-surface $-1 -63.050019837031158 0 0 1 0 0 0 0 -1 forward_v I I I I #
coedge $-1 $76 $127 $201 $202 reversed $71 $-1 #
coedge $-1 $203 $73 $204 $205 reversed $45 $-1 #
coedge $-1 $73 $203 $206 $207 reversed $45 $-1 #
coedge $-1 $124 $134 $73 $128 forward $71 $-1 #
edge $-1 $208 -37.721102599481917 $209 37.721102599481917 $127 $210 forward 7 unknown #
coedge $-1 $75 $74 $211 $212 reversed $29 $-1 #
coedge $-1 $201 $213 $74 $131 forward $214 $-1 #
edge $-1 $215 -33.899330839805643 $135 -24.402047154645388 $130 $216 forward 7 unknown #
coedge $-1 $217 $218 $75 $133 forward $219 $-1 #
edge $-1 $136 24.402047154645388 $220 33.899330839805643 $132 $221 forward 7 unknown #
coedge $-1 $127 $76 $218 $222 reversed $71 $-1 #
vertex $-1 $131 $223 #
vertex $-1 $133 $224 #
straight-curve $-1 -53.552736151870903 0 5.6875563176279638 0 1 0 I I #
face $-1 $225 $226 $17 $-1 $227 forward single #
loop $-1 $-1 $228 $78 #
plane-surface $-1 -58.30137799445103 0 5.6875563176279638 0 0 1 1 0 0 forward_v I I I I #
coedge $-1 $229 $230 $83 $147 forward $79 $-1 #
coedge $-1 $231 $81 $232 $233 reversed $49 $-1 #
coedge $-1 $81 $231 $82 $146 reversed $49 $-1 #
coedge $-1 $84 $234 $81 $145 forward $149 $-1 #
edge $-1 $235 -21.80754481759562 $150 -10.019570746176969 $144 $236 forward 7 unknown #
edge $-1 $150 113.15847979286056 $237 126.10003967406232 $82 $238 forward 7 unknown #
edge $-1 $151 76.324562717596976 $237 86.660152100558733 $141 $239 forward 7 unknown #
coedge $-1 $240 $84 $230 $241 forward $149 $-1 #
loop $-1 $-1 $84 $242 #
vertex $-1 $145 $243 #
vertex $-1 $241 $244 #
straight-curve $-1 43.934546728213078 -25.933128528063264 13.612152640684656 1 0 0 I I #
face $-1 $245 $246 $18 $-1 $247 reversed single #
loop $-1 $248 $92 $86 #
plane-surface $-1 -12.838877082691525 -31.82711556377259 103.98453379684058 0.79863551827123203 0 0.60181501223851219 0.60181501223851219 0 -0.79863551827123203 forward_v I I I I #
coedge $-1 $249 $250 $251 $252 reversed $87 $-1 #
coedge $-1 $157 $157 $-1 $253 forward $89 $-1 #
edge $-1 $254 0 $254 6.2831853071796004 $90 $255 forward 7 unknown #
vertex $-1 $93 $256 #
ellipse-curve $-1 59.155807327885718 -34.353110007648013 8.444357949203777 -0.79863551827123203 0 -0.60181501223851219 0.60181501223851219 0 -0.79863551827123203 1 I I #
face $-1 $257 $258 $19 $-1 $259 forward single #
loop $-1 $260 $261 $94 #
cone-surface $-1 56.219511131257065 -34.353110007648013 6.2317001208427918 -0.79863551827123203 0 -0.60181501223851219 0.3009075061192561 0 -0.39931775913561601 1 I I -0.70710678118654746 0.70710678118654746 0.5 forward I I I I #
loop $-1 $-1 $262 $57 #
coedge $-1 $165 $165 $263 $264 reversed $95 $-1 #
coedge $-1 $166 $166 $-1 $265 forward $97 $-1 #
edge $-1 $266 0 $266 6.2831853071796004 $98 $267 forward 7 unknown #
loop $-1 $268 $100 $257 #
vertex $-1 $101 $269 #
ellipse-curve $-1 59.155807327885718 -29.301121119897168 8.444357949203777 -0.79863551827123203 0 -0.60181501223851219 0.60181501223851219 0 -0.79863551827123203 1 I I #
face $-1 $-1 $117 $15 $-1 $270 reversed single #
loop $-1 $-1 $187 $102 #
plane-surface $-1 0 37.721102599481917 0 0 -1 0 0 0 -1 forward_v I I I I #
coedge $-1 $271 $185 $188 $272 forward $103 $-1 #
coedge $-1 $191 $105 $106 $179 reversed $63 $-1 #
coedge $-1 $185 $271 $105 $177 reversed $103 $-1 #
edge $-1 $192 -13.612152640684652 $273 13.612152640684652 $176 $274 forward 7 unknown #
coedge $-1 $107 $106 $271 $275 forward $41 $-1 #
edge $-1 $183 -63.050019837031158 $273 63.050019837031158 $175 $276 forward 7 unknown #
coedge $-1 $188 $187 $107 $181 reversed $172 $-1 #
edge $-1 $277 -63.050019837031158 $182 63.050019837031158 $180 $278 forward 7 unknown #
vertex $-1 $109 $279 #
vertex $-1 $194 $280 #
straight-curve $-1 63.050019837031158 0 -13.612152640684652 0 -1 0 I I #
coedge $-1 $174 $176 $110 $186 reversed $103 $-1 #
edge $-1 $189 -37.721102599481917 $192 37.721102599481917 $185 $281 forward 7 unknown #
coedge $-1 $180 $111 $116 $195 forward $172 $-1 #
coedge $-1 $111 $180 $174 $272 reversed $172 $-1 #
vertex $-1 $112 $282 #
straight-curve $-1 0 37.721102599481917 13.612152640684652 -1 0 0 I I #
coedge $-1 $113 $175 $115 $194 reversed $63 $-1 #
vertex $-1 $186 $283 #
straight-curve $-1 0 -37.721102599481917 13.612152640684652 1 0 0 I I #
edge $-1 $118 -13.612152640684652 $183 13.612152640684652 $115 $284 forward 7 unknown #
edge $-1 $119 -13.612152640684652 $182 13.612152640684652 $116 $285 forward 7 unknown #
point $-1 63.050019837031158 -37.721102599481917 13.612152640684652 #
point $-1 63.050019837031158 37.721102599481917 13.612152640684652 #
face $-1 $286 $214 $16 $-1 $287 reversed single #
loop $-1 $-1 $211 $121 #
coedge $-1 $288 $289 $203 $290 forward $122 $-1 #
coedge $-1 $206 $130 $124 $202 forward $214 $-1 #
edge $-1 $135 -4.025011577380063 $209 0.69992209688426144 $201 $291 forward 7 unknown #
coedge $-1 $126 $125 $200 $290 reversed $45 $-1 #
coedge $-1 $218 $292 $125 $205 forward $219 $-1 #
edge $-1 $293 -33.899330839805643 $208 -24.402047154645388 $204 $294 forward 7 unknown #
coedge $-1 $295 $201 $126 $207 forward $214 $-1 #
edge $-1 $209 24.402047154645388 $296 33.899330839805643 $206 $297 forward 7 unknown #
vertex $-1 $205 $298 #
vertex $-1 $207 $299 #
straight-curve $-1 -53.552736151870903 0 0.96262264336363934 0 -1 0 I I #
coedge $-1 $300 $301 $129 $212 forward $199 $-1 #
edge $-1 $220 -37.721102599481917 $215 37.721102599481917 $211 $302 forward 7 unknown #
coedge $-1 $130 $303 $300 $304 forward $214 $-1 #
loop $-1 $-1 $130 $198 #
vertex $-1 $131 $305 #
straight-curve $-1 -29.150688997225515 -37.721102599481917 5.6875563176279638 1 0 0 I I #
coedge $-1 $306 $132 $301 $307 reversed $219 $-1 #
coedge $-1 $132 $204 $134 $222 forward $219 $-1 #
loop $-1 $-1 $132 $308 #
vertex $-1 $212 $309 #
straight-curve $-1 -29.150688997225515 37.721102599481917 5.6875563176279638 -1 0 0 I I #
edge $-1 $208 -0.69992209688426144 $136 4.025011577380063 $218 $310 forward 7 unknown #
point $-1 -53.552736151870903 -37.721102599481917 5.6875563176279638 #
point $-1 -53.552736151870903 37.721102599481917 5.6875563176279638 #
face $-1 $311 $312 $17 $-1 $313 forward single #
loop $-1 $-1 $314 $138 #
plane-surface $-1 -58.30137799445103 0 0.96262264336363934 0 0 1 1 0 0 forward_v I I I I #
coedge $-1 $315 $316 $317 $318 reversed $139 $-1 #
coedge $-1 $319 $141 $231 $320 forward $79 $-1 #
coedge $-1 $141 $321 $148 $241 reversed $79 $-1 #
coedge $-1 $143 $142 $229 $320 reversed $49 $-1 #
coedge $-1 $322 $323 $142 $233 forward $324 $-1 #
edge $-1 $325 -80.713854169221818 $235 -67.772294288020063 $232 $326 forward 7 unknown #
coedge $-1 $144 $327 $322 $328 forward $149 $-1 #
vertex $-1 $233 $329 #
straight-curve $-1 55.261594818740271 -15.913557781886295 13.612152640684663 0 1 0 I I #
vertex $-1 $320 $330 #
straight-curve $-1 -12.838877082691525 -25.933128528063264 103.98453379684058 0.60181501223851219 0 -0.79863551827123203 I I #
straight-curve $-1 63.050019837031158 -25.933128528063264 89.936715358281631 0 0 -1 I I #
coedge $-1 $327 $148 $331 $332 forward $149 $-1 #
edge $-1 $151 -25.933128528063264 $333 37.721102599481917 $230 $334 forward 7 unknown #
face $-1 $335 $149 $17 $-1 $336 forward single #
point $-1 55.261594818740278 -25.933128528063264 13.612152640684656 #
point $-1 63.050019837031158 -25.933128528063264 13.612152640684652 #
face $-1 $337 $338 $18 $-1 $339 reversed single #
loop $-1 $-1 $340 $153 #
plane-surface $-1 63.050019837031158 0 0 -1 0 0 0 0 1 forward_v I I I I #
loop $-1 $-1 $341 $86 #
coedge $-1 $250 $156 $342 $343 forward $87 $-1 #
coedge $-1 $156 $249 $340 $344 reversed $87 $-1 #
coedge $-1 $345 $346 $156 $252 forward $347 $-1 #
edge $-1 $348 11.3270480905272 $349 19.11547310881808 $251 $350 forward 7 unknown #
edge $-1 $351 1 $351 0 $157 $-1 forward 7 unknown #
vertex $-1 $158 $352 #
ellipse-curve $-1 56.618828890392678 -34.353110007648013 6.5326076269620481 0.79863551827123203 0 0.60181501223851219 0.60181501223851219 0 -0.79863551827123203 1 I I #
point $-1 59.757622340124229 -34.353110007648013 7.6457224309325369 #
face $-1 $353 $168 $19 $-1 $354 forward single #
loop $-1 $-1 $355 $161 #
plane-surface $-1 87.869093456426157 -25.933128528063264 179.87343071656326 0 -1 0 -0.79863551827123203 0 -0.60181501223851219 forward_v I I I I #
loop $-1 $-1 $356 $94 #
coedge $-1 $261 $261 $262 $357 forward $162 $-1 #
coedge $-1 $262 $262 $261 $357 reversed $164 $-1 #
coedge $-1 $263 $263 $165 $264 forward $268 $-1 #
edge $-1 $358 0 $358 6.2831853071796004 $263 $359 forward 7 unknown #
edge $-1 $360 1 $360 0 $166 $-1 forward 7 unknown #
vertex $-1 $167 $361 #
ellipse-curve $-1 56.618828890392678 -29.301121119897168 6.5326076269620481 0.79863551827123203 0 0.60181501223851219 0.60181501223851219 0 -0.79863551827123203 1 I I #
loop $-1 $362 $263 $257 #
point $-1 59.757622340124229 -29.301121119897168 7.6457224309325369 #
plane-surface $-1 63.050019837031158 0 0 -1 0 0 0 0 1 forward_v I I I I #
coedge $-1 $176 $174 $178 $275 reversed $103 $-1 #
edge $-1 $189 -13.612152640684652 $277 13.612152640684652 $188 $363 forward 7 unknown #
vertex $-1 $275 $364 #
straight-curve $-1 -63.050019837031158 -37.721102599481917 0 0 0 -1 I I #
edge $-1 $273 -37.721102599481917 $277 37.721102599481917 $271 $365 forward 7 unknown #
straight-curve $-1 0 -37.721102599481917 -13.612152640684652 -1 0 0 I I #
vertex $-1 $181 $366 #
straight-curve $-1 0 37.721102599481917 -13.612152640684652 1 0 0 I I #
point $-1 63.050019837031158 37.721102599481917 -13.612152640684652 #
point $-1 63.050019837031158 -37.721102599481917 -13.612152640684652 #
straight-curve $-1 -63.050019837031158 0 13.612152640684652 0 -1 0 I I #
point $-1 -63.050019837031158 37.721102599481917 13.612152640684652 #
point $-1 -63.050019837031158 -37.721102599481917 13.612152640684652 #
straight-curve $-1 63.050019837031158 -37.721102599481917 0 0 0 -1 I I #
straight-curve $-1 63.050019837031158 37.721102599481917 0 0 0 -1 I I #
face $-1 $367 $368 $16 $-1 $369 forward single #
plane-surface $-1 0 -37.721102599481917 0 0 1 0 0 0 1 forward_v I I I I #
coedge $-1 $370 $200 $292 $371 forward $122 $-1 #
coedge $-1 $200 $370 $295 $372 reversed $122 $-1 #
edge $-1 $296 -37.721102599481917 $293 37.721102599481917 $200 $373 forward 7 unknown #
straight-curve $-1 -53.552736151870903 -37.721102599481917 1.6625447402479008 0 0 -1 I I #
coedge $-1 $204 $374 $288 $371 reversed $219 $-1 #
vertex $-1 $371 $375 #
straight-curve $-1 -29.150688997225515 37.721102599481917 0.96262264336363934 1 0 0 I I #
coedge $-1 $376 $206 $289 $372 forward $214 $-1 #
vertex $-1 $372 $377 #
straight-curve $-1 -29.150688997225515 -37.721102599481917 0.96262264336363934 -1 0 0 I I #
point $-1 -53.552736151870903 37.721102599481917 0.96262264336363934 #
point $-1 -53.552736151870903 -37.721102599481917 0.96262264336363934 #
coedge $-1 $378 $211 $213 $304 reversed $199 $-1 #
coedge $-1 $211 $378 $217 $307 forward $199 $-1 #
straight-curve $-1 -63.050019837031158 0 5.6875563176279638 0 -1 0 I I #
coedge $-1 $213 $379 $380 $381 reversed $214 $-1 #
edge $-1 $382 -13.612152640684652 $215 -5.6875563176279638 $300 $383 forward 7 unknown #
point $-1 -63.050019837031158 -37.721102599481917 5.6875563176279638 #
coedge $-1 $384 $217 $385 $386 reversed $219 $-1 #
edge $-1 $387 -13.612152640684652 $220 -5.6875563176279638 $217 $388 forward 7 unknown #
face $-1 $389 $219 $16 $-1 $390 reversed single #
point $-1 -63.050019837031158 37.721102599481917 5.6875563176279638 #
straight-curve $-1 -53.552736151870903 37.721102599481917 1.6625447402479008 0 0 1 I I #
face $-1 $391 $392 $17 $-1 $393 reversed single #
loop $-1 $-1 $394 $225 #
plane-surface $-1 -53.552736151870903 0 3.3250894804958016 -1 0 0 0 0 1 forward_v I I I I #
coedge $-1 $395 $396 $397 $398 reversed $226 $-1 #
coedge $-1 $399 $228 $400 $401 reversed $139 $-1 #
coedge $-1 $228 $399 $402 $403 reversed $139 $-1 #
coedge $-1 $404 $394 $228 $318 forward $312 $-1 #
edge $-1 $405 -37.721102599481917 $406 37.721102599481917 $317 $407 forward 7 unknown #
coedge $-1 $408 $229 $323 $409 forward $79 $-1 #
edge $-1 $237 10.019570746176969 $325 21.80754481759562 $229 $410 forward 7 unknown #
coedge $-1 $230 $408 $411 $412 reversed $79 $-1 #
coedge $-1 $413 $232 $234 $328 reversed $324 $-1 #
coedge $-1 $232 $414 $319 $409 reversed $324 $-1 #
loop $-1 $-1 $232 $415 #
vertex $-1 $409 $416 #
straight-curve $-1 14.475210702363437 -37.721102599481917 67.737514013828019 -0.60181501223851219 0 0.79863551827123203 I I #
coedge $-1 $234 $240 $417 $418 forward $149 $-1 #
edge $-1 $419 -63.050019837031158 $235 55.261594818740285 $322 $420 forward 7 unknown #
point $-1 55.261594818740285 -37.721102599481917 13.612152640684652 #
point $-1 63.050019837031158 -25.933128528063264 3.2765632577228985 #
coedge $-1 $411 $421 $240 $332 reversed $422 $-1 #
edge $-1 $333 -63.050019837031158 $423 63.050019837031158 $331 $424 forward 7 unknown #
vertex $-1 $241 $425 #
straight-curve $-1 63.050019837031158 0 13.612152640684652 0 1 0 I I #
face $-1 $426 $427 $17 $-1 $428 reversed single #
plane-surface $-1 0 0 13.612152640684652 0 0 1 1 0 0 forward_v I I I I #
face $-1 $429 $430 $18 $-1 $431 forward single #
loop $-1 $-1 $432 $245 #
plane-surface $-1 -58.30137799445103 0 5.6875563176279638 0 0 1 1 0 0 forward_v I I I I #
coedge $-1 $433 $434 $250 $344 forward $246 $-1 #
coedge $-1 $435 $342 $346 $436 reversed $248 $-1 #
coedge $-1 $341 $437 $249 $343 reversed $248 $-1 #
edge $-1 $348 113.15847979286056 $438 126.10003967406232 $249 $439 forward 7 unknown #
edge $-1 $349 76.324562717596976 $438 86.660152100558733 $340 $440 forward 7 unknown #
coedge $-1 $441 $251 $434 $442 forward $347 $-1 #
coedge $-1 $251 $443 $341 $436 forward $347 $-1 #
loop $-1 $-1 $251 $444 #
vertex $-1 $436 $445 #
vertex $-1 $442 $446 #
straight-curve $-1 43.934546728213078 -25.933128528063264 13.612152640684656 1 0 0 I I #
vertex $-1 $253 $447 #
point $-1 57.220643902631195 -34.353110007648013 5.733972108690816 #
face $-1 $448 $449 $19 $-1 $450 reversed single #
plane-surface $-1 -12.838877082691525 -31.82711556377259 103.98453379684058 0.79863551827123203 0 0.60181501223851219 0.60181501223851219 0 -0.79863551827123203 forward_v I I I I #
coedge $-1 $451 $452 $453 $454 reversed $258 $-1 #
coedge $-1 $356 $356 $-1 $455 forward $260 $-1 #
edge $-1 $456 0 $456 6.2831853071796004 $261 $457 forward 7 unknown #
vertex $-1 $264 $458 #
ellipse-curve $-1 59.155807327885718 -34.353110007648013 8.444357949203777 -0.79863551827123203 0 -0.60181501223851219 0.60181501223851219 0 -0.79863551827123203 1 I I #
vertex $-1 $265 $459 #
point $-1 57.220643902631195 -29.301121119897168 5.733972108690816 #
loop $-1 $-1 $460 $257 #
straight-curve $-1 -63.050019837031158 37.721102599481917 0 0 0 -1 I I #
point $-1 -63.050019837031158 -37.721102599481917 -13.612152640684652 #
straight-curve $-1 -63.050019837031158 0 -13.612152640684652 0 1 0 I I #
point $-1 -63.050019837031158 37.721102599481917 -13.612152640684652 #
face $-1 $308 $461 $16 $-1 $462 reversed single #
loop $-1 $-1 $463 $286 #
plane-surface $-1 0 0 13.612152640684652 0 0 1 1 0 0 forward_v I I I I #
coedge $-1 $289 $288 $464 $465 reversed $122 $-1 #
edge $-1 $293 -0.96262264336363934 $466 13.612152640684652 $292 $388 forward 7 unknown #
edge $-1 $296 -0.96262264336363934 $467 13.612152640684652 $289 $383 forward 7 unknown #
straight-curve $-1 -63.050019837031158 0 0.96262264336363934 0 1 0 I I #
coedge $-1 $292 $384 $468 $469 reversed $219 $-1 #
point $-1 -63.050019837031158 37.721102599481917 0.96262264336363934 #
coedge $-1 $379 $295 $470 $471 reversed $214 $-1 #
point $-1 -63.050019837031158 -37.721102599481917 0.96262264336363934 #
coedge $-1 $301 $300 $472 $473 reversed $199 $-1 #
coedge $-1 $303 $376 $474 $475 reversed $214 $-1 #
coedge $-1 $463 $472 $303 $381 forward $368 $-1 #
edge $-1 $382 -63.050019837031158 $476 63.050019837031158 $303 $477 forward 7 unknown #
vertex $-1 $473 $478 #
straight-curve $-1 -63.050019837031158 -37.721102599481917 0 0 0 -1 I I #
coedge $-1 $374 $306 $479 $480 forward $219 $-1 #
coedge $-1 $472 $463 $306 $386 forward $368 $-1 #
edge $-1 $481 -63.050019837031158 $387 63.050019837031158 $306 $482 forward 7 unknown #
vertex $-1 $386 $483 #
straight-curve $-1 -63.050019837031158 37.721102599481917 0 0 0 -1 I I #
face $-1 $-1 $484 $16 $-1 $485 reversed single #
plane-surface $-1 0 37.721102599481917 0 0 -1 0 0 0 -1 forward_v I I I I #
face $-1 $415 $486 $17 $-1 $393 reversed single #
loop $-1 $-1 $487 $311 #
plane-surface $-1 -63.050019837031158 0 0 1 0 0 0 0 -1 forward_v I I I I #
coedge $-1 $317 $397 $488 $489 reversed $312 $-1 #
coedge $-1 $490 $314 $491 $492 reversed $226 $-1 #
coedge $-1 $314 $490 $493 $494 reversed $226 $-1 #
coedge $-1 $394 $404 $314 $398 forward $312 $-1 #
edge $-1 $495 -37.721102599481917 $496 37.721102599481917 $397 $497 forward 7 unknown #
coedge $-1 $316 $315 $498 $499 reversed $139 $-1 #
coedge $-1 $488 $413 $315 $401 forward $324 $-1 #
edge $-1 $500 -33.899330839805643 $405 -24.402047154645388 $400 $501 forward 7 unknown #
coedge $-1 $421 $502 $316 $403 forward $422 $-1 #
edge $-1 $406 24.402047154645388 $503 33.899330839805643 $402 $504 forward 7 unknown #
coedge $-1 $397 $317 $502 $505 reversed $312 $-1 #
vertex $-1 $401 $506 #
vertex $-1 $403 $507 #
straight-curve $-1 -53.552736151870903 0 5.6875563176279638 0 1 0 I I #
coedge $-1 $321 $319 $508 $509 reversed $79 $-1 #
edge $-1 $325 -3.2765632577229029 $510 13.612152640684652 $319 $511 forward 7 unknown #
straight-curve $-1 63.050019837031158 -15.913557781886295 3.2765632577229127 0 -1 0 I I #
coedge $-1 $512 $331 $321 $412 forward $422 $-1 #
edge $-1 $333 -13.612152640684652 $513 13.612152640684652 $321 $514 forward 7 unknown #
coedge $-1 $400 $322 $515 $516 forward $324 $-1 #
coedge $-1 $323 $517 $518 $519 reversed $324 $-1 #
face $-1 $242 $324 $17 $-1 $520 reversed single #
point $-1 63.050019837031158 -37.721102599481917 3.2765632577229029 #
coedge $-1 $521 $515 $327 $418 reversed $486 $-1 #
edge $-1 $423 -37.721102599481917 $419 37.721102599481917 $417 $522 forward 7 unknown #
vertex $-1 $418 $523 #
straight-curve $-1 0 -37.721102599481917 13.612152640684652 1 0 0 I I #
coedge $-1 $331 $402 $521 $524 reversed $422 $-1 #
loop $-1 $-1 $402 $426 #
vertex $-1 $332 $525 #
straight-curve $-1 0 37.721102599481917 13.612152640684652 -1 0 0 I I #
point $-1 63.050019837031158 37.721102599481917 13.612152640684652 #
face $-1 $-1 $422 $17 $-1 $526 reversed single #
loop $-1 $-1 $508 $335 #
plane-surface $-1 0 0 -13.612152640684652 0 0 1 1 0 0 forward_v I I I I #
face $-1 $527 $528 $18 $-1 $529 forward single #
loop $-1 $-1 $530 $337 #
plane-surface $-1 -58.30137799445103 0 0.96262264336363934 0 0 1 1 0 0 forward_v I I I I #
coedge $-1 $531 $532 $533 $534 reversed $338 $-1 #
coedge $-1 $535 $340 $437 $536 forward $246 $-1 #
coedge $-1 $340 $537 $345 $442 reversed $246 $-1 #
coedge $-1 $437 $341 $538 $539 reversed $248 $-1 #
edge $-1 $540 -21.80754481759562 $348 -10.019570746176969 $346 $541 forward 7 unknown #
coedge $-1 $342 $435 $433 $536 reversed $248 $-1 #
vertex $-1 $536 $542 #
straight-curve $-1 -12.838877082691525 -25.933128528063264 103.98453379684058 0.60181501223851219 0 -0.79863551827123203 I I #
straight-curve $-1 63.050019837031158 -25.933128528063264 89.936715358281631 0 0 -1 I I #
coedge $-1 $543 $345 $544 $545 forward $347 $-1 #
edge $-1 $349 -25.933128528063264 $546 37.721102599481917 $434 $547 forward 7 unknown #
coedge $-1 $346 $543 $548 $549 forward $347 $-1 #
face $-1 $550 $347 $18 $-1 $551 forward single #
point $-1 55.261594818740278 -25.933128528063264 13.612152640684656 #
point $-1 63.050019837031158 -25.933128528063264 13.612152640684652 #
point $-1 55.820193372121452 -34.353110007648013 5.9307926147235355 #
face $-1 $552 $553 $19 $-1 $554 reversed single #
loop $-1 $-1 $555 $353 #
plane-surface $-1 63.050019837031158 0 0 -1 0 0 0 0 1 forward_v I I I I #
coedge $-1 $452 $355 $556 $557 forward $258 $-1 #
coedge $-1 $355 $451 $555 $558 reversed $258 $-1 #
coedge $-1 $559 $560 $355 $454 forward $561 $-1 #
edge $-1 $562 11.3270480905272 $563 19.11547310881808 $453 $564 forward 7 unknown #
edge $-1 $565 1 $565 0 $356 $-1 forward 7 unknown #
vertex $-1 $357 $566 #
ellipse-curve $-1 56.618828890392678 -34.353110007648013 6.5326076269620481 0.79863551827123203 0 0.60181501223851219 0.60181501223851219 0 -0.79863551827123203 1 I I #
point $-1 59.757622340124229 -34.353110007648013 7.6457224309325369 #
point $-1 55.820193372121452 -29.301121119897168 5.9307926147235355 #
coedge $-1 $567 $556 $560 $568 reversed $362 $-1 #
loop $-1 $-1 $569 $367 #
plane-surface $-1 0 0 -13.612152640684652 0 0 1 1 0 0 forward_v I I I I #
coedge $-1 $385 $380 $570 $571 forward $368 $-1 #
coedge $-1 $468 $470 $370 $465 forward $461 $-1 #
edge $-1 $467 -37.721102599481917 $466 37.721102599481917 $370 $572 forward 7 unknown #
vertex $-1 $469 $573 #
vertex $-1 $465 $574 #
coedge $-1 $569 $464 $374 $469 forward $461 $-1 #
edge $-1 $466 -63.050019837031158 $575 63.050019837031158 $374 $576 forward 7 unknown #
coedge $-1 $464 $569 $376 $471 forward $461 $-1 #
edge $-1 $577 -63.050019837031158 $467 63.050019837031158 $376 $578 forward 7 unknown #
coedge $-1 $380 $385 $378 $473 forward $368 $-1 #
edge $-1 $387 -37.721102599481917 $382 37.721102599481917 $378 $579 forward 7 unknown #
coedge $-1 $580 $570 $379 $475 forward $484 $-1 #
edge $-1 $476 -13.612152640684652 $577 13.612152640684652 $474 $581 forward 7 unknown #
vertex $-1 $571 $582 #
straight-curve $-1 0 -37.721102599481917 13.612152640684652 1 0 0 I I #
point $-1 -63.050019837031158 -37.721102599481917 13.612152640684652 #
coedge $-1 $570 $580 $384 $480 reversed $484 $-1 #
edge $-1 $481 -13.612152640684652 $575 13.612152640684652 $479 $583 forward 7 unknown #
vertex $-1 $571 $584 #
straight-curve $-1 0 37.721102599481917 13.612152640684652 -1 0 0 I I #
point $-1 -63.050019837031158 37.721102599481917 13.612152640684652 #
loop $-1 $-1 $474 $389 #
plane-surface $-1 63.050019837031158 0 0 -1 0 0 0 0 1 forward_v I I I I #
loop $-1 $-1 $498 $391 #
coedge $-1 $585 $586 $490 $587 forward $392 $-1 #
coedge $-1 $493 $400 $394 $489 forward $324 $-1 #
edge $-1 $405 -4.025011577380063 $496 0.69992209688426144 $488 $588 forward 7 unknown #
coedge $-1 $396 $395 $487 $587 reversed $226 $-1 #
coedge $-1 $502 $589 $395 $492 forward $422 $-1 #
edge $-1 $590 -33.899330839805643 $495 -24.402047154645388 $491 $591 forward 7 unknown #
coedge $-1 $517 $488 $396 $494 forward $324 $-1 #
edge $-1 $496 24.402047154645388 $592 33.899330839805643 $493 $593 forward 7 unknown #
vertex $-1 $492 $594 #
vertex $-1 $494 $595 #
straight-curve $-1 -53.552736151870903 0 0.96262264336363934 0 -1 0 I I #
coedge $-1 $515 $521 $399 $499 forward $486 $-1 #
edge $-1 $503 -37.721102599481917 $500 37.721102599481917 $498 $596 forward 7 unknown #
vertex $-1 $401 $597 #
straight-curve $-1 -29.150688997225515 -37.721102599481917 5.6875563176279638 1 0 0 I I #
coedge $-1 $402 $491 $404 $505 forward $422 $-1 #
vertex $-1 $499 $598 #
straight-curve $-1 -29.150688997225515 37.721102599481917 5.6875563176279638 -1 0 0 I I #
edge $-1 $495 -0.69992209688426144 $406 4.025011577380063 $502 $599 forward 7 unknown #
point $-1 -53.552736151870903 -37.721102599481917 5.6875563176279638 #
point $-1 -53.552736151870903 37.721102599481917 5.6875563176279638 #
coedge $-1 $518 $600 $408 $509 forward $427 $-1 #
edge $-1 $513 -37.721102599481917 $510 37.721102599481917 $408 $601 forward 7 unknown #
vertex $-1 $409 $602 #
straight-curve $-1 63.050019837031158 -37.721102599481917 0 0 0 -1 I I #
coedge $-1 $589 $411 $600 $603 reversed $422 $-1 #
vertex $-1 $509 $604 #
straight-curve $-1 63.050019837031158 37.721102599481917 0 0 0 -1 I I #
coedge $-1 $417 $498 $413 $516 reversed $486 $-1 #
edge $-1 $419 -13.612152640684652 $500 -5.6875563176279638 $515 $605 forward 7 unknown #
coedge $-1 $414 $493 $586 $606 forward $324 $-1 #
coedge $-1 $607 $508 $414 $519 forward $427 $-1 #
edge $-1 $510 -63.050019837031158 $608 63.050019837031158 $414 $609 forward 7 unknown #
plane-surface $-1 0 -37.721102599481917 0 0 1 0 0 0 1 forward_v I I I I #
coedge $-1 $498 $417 $421 $524 forward $486 $-1 #
straight-curve $-1 -63.050019837031158 0 13.612152640684652 0 -1 0 I I #
point $-1 -63.050019837031158 -37.721102599481917 13.612152640684652 #
edge $-1 $423 -13.612152640684652 $503 -5.6875563176279638 $421 $610 forward 7 unknown #
point $-1 -63.050019837031158 37.721102599481917 13.612152640684652 #
plane-surface $-1 0 37.721102599481917 0 0 -1 0 0 0 -1 forward_v I I I I #
face $-1 $611 $612 $18 $-1 $613 reversed single #
loop $-1 $-1 $614 $429 #
plane-surface $-1 -53.552736151870903 0 3.3250894804958016 -1 0 0 0 0 1 forward_v I I I I #
coedge $-1 $615 $616 $617 $618 reversed $430 $-1 #
coedge $-1 $619 $432 $620 $621 reversed $338 $-1 #
coedge $-1 $432 $619 $622 $623 reversed $338 $-1 #
coedge $-1 $624 $614 $432 $534 forward $528 $-1 #
edge $-1 $625 -37.721102599481917 $626 37.721102599481917 $533 $627 forward 7 unknown #
coedge $-1 $628 $433 $629 $630 forward $246 $-1 #
edge $-1 $438 10.019570746176969 $631 21.80754481759562 $433 $632 forward 7 unknown #
coedge $-1 $434 $628 $633 $634 reversed $246 $-1 #
coedge $-1 $548 $629 $435 $539 forward $635 $-1 #
edge $-1 $631 -80.713854169221818 $540 -67.772294288020063 $538 $636 forward 7 unknown #
vertex $-1 $539 $637 #
straight-curve $-1 55.261594818740271 -15.913557781886295 13.612152640684663 0 1 0 I I #
point $-1 63.050019837031158 -25.933128528063264 3.2765632577228985 #
coedge $-1 $443 $441 $638 $639 forward $347 $-1 #
coedge $-1 $633 $640 $441 $545 reversed $641 $-1 #
edge $-1 $546 -63.050019837031158 $642 63.050019837031158 $544 $643 forward 7 unknown #
vertex $-1 $442 $644 #
straight-curve $-1 63.050019837031158 0 13.612152640684652 0 1 0 I I #
coedge $-1 $645 $538 $443 $549 reversed $635 $-1 #
edge $-1 $646 -63.050019837031158 $540 55.261594818740285 $548 $647 forward 7 unknown #
face $-1 $648 $649 $18 $-1 $650 reversed single #
plane-surface $-1 0 0 13.612152640684652 0 0 1 1 0 0 forward_v I I I I #
face $-1 $651 $652 $19 $-1 $653 forward single #
loop $-1 $-1 $654 $448 #
plane-surface $-1 -58.30137799445103 0 5.6875563176279638 0 0 1 1 0 0 forward_v I I I I #
coedge $-1 $655 $656 $452 $558 forward $449 $-1 #
coedge $-1 $460 $657 $451 $557 reversed $362 $-1 #
edge $-1 $562 113.15847979286056 $658 126.10003967406232 $451 $659 forward 7 unknown #
edge $-1 $563 76.324562717596976 $658 86.660152100558733 $555 $660 forward 7 unknown #
coedge $-1 $661 $453 $656 $662 forward $561 $-1 #
coedge $-1 $453 $663 $460 $568 forward $561 $-1 #
loop $-1 $-1 $453 $664 #
vertex $-1 $568 $665 #
vertex $-1 $662 $666 #
straight-curve $-1 43.934546728213078 -25.933128528063264 13.612152640684656 1 0 0 I I #
vertex $-1 $455 $667 #
point $-1 57.220643902631195 -34.353110007648013 5.733972108690816 #
coedge $-1 $657 $460 $668 $669 reversed $362 $-1 #
edge $-1 $670 -21.80754481759562 $562 -10.019570746176969 $560 $671 forward 7 unknown #
coedge $-1 $470 $468 $580 $672 forward $461 $-1 #
coedge $-1 $474 $479 $463 $571 reversed $484 $-1 #
edge $-1 $476 -37.721102599481917 $481 37.721102599481917 $570 $673 forward 7 unknown #
straight-curve $-1 -63.050019837031158 0 -13.612152640684652 0 1 0 I I #
point $-1 -63.050019837031158 37.721102599481917 -13.612152640684652 #
point $-1 -63.050019837031158 -37.721102599481917 -13.612152640684652 #
vertex $-1 $672 $674 #
straight-curve $-1 0 37.721102599481917 -13.612152640684652 1 0 0 I I #
vertex $-1 $475 $675 #
straight-curve $-1 0 -37.721102599481917 -13.612152640684652 -1 0 0 I I #
straight-curve $-1 -63.050019837031158 0 13.612152640684652 0 -1 0 I I #
coedge $-1 $479 $474 $569 $672 reversed $484 $-1 #
straight-curve $-1 63.050019837031158 -37.721102599481917 0 0 0 -1 I I #
point $-1 63.050019837031158 -37.721102599481917 13.612152640684652 #
straight-curve $-1 63.050019837031158 37.721102599481917 0 0 0 -1 I I #
point $-1 63.050019837031158 37.721102599481917 13.612152640684652 #
coedge $-1 $676 $487 $589 $677 forward $392 $-1 #
coedge $-1 $487 $676 $517 $606 reversed $392 $-1 #
edge $-1 $592 -37.721102599481917 $590 37.721102599481917 $487 $678 forward 7 unknown #
straight-curve $-1 -53.552736151870903 -37.721102599481917 1.6625447402479008 0 0 -1 I I #
coedge $-1 $491 $512 $585 $677 reversed $422 $-1 #
vertex $-1 $677 $679 #
straight-curve $-1 -29.150688997225515 37.721102599481917 0.96262264336363934 1 0 0 I I #
vertex $-1 $606 $680 #
straight-curve $-1 -29.150688997225515 -37.721102599481917 0.96262264336363934 -1 0 0 I I #
point $-1 -53.552736151870903 37.721102599481917 0.96262264336363934 #
point $-1 -53.552736151870903 -37.721102599481917 0.96262264336363934 #
straight-curve $-1 -63.050019837031158 0 5.6875563176279638 0 -1 0 I I #
point $-1 -63.050019837031158 -37.721102599481917 5.6875563176279638 #
point $-1 -63.050019837031158 37.721102599481917 5.6875563176279638 #
straight-curve $-1 -53.552736151870903 37.721102599481917 1.6625447402479008 0 0 1 I I #
coedge $-1 $508 $607 $512 $603 forward $427 $-1 #
straight-curve $-1 63.050019837031158 0 -13.612152640684652 0 -1 0 I I #
point $-1 63.050019837031158 -37.721102599481917 -13.612152640684652 #
edge $-1 $681 -63.050019837031158 $513 63.050019837031158 $512 $682 forward 7 unknown #
point $-1 63.050019837031158 37.721102599481917 -13.612152640684652 #
straight-curve $-1 -63.050019837031158 -37.721102599481917 0 0 0 -1 I I #
edge $-1 $592 -0.96262264336363934 $608 13.612152640684652 $586 $605 forward 7 unknown #
coedge $-1 $600 $518 $676 $683 forward $427 $-1 #
vertex $-1 $683 $684 #
straight-curve $-1 0 -37.721102599481917 -13.612152640684652 -1 0 0 I I #
straight-curve $-1 -63.050019837031158 37.721102599481917 0 0 0 -1 I I #
face $-1 $685 $686 $18 $-1 $613 reversed single #
loop $-1 $-1 $687 $527 #
plane-surface $-1 -63.050019837031158 0 0 1 0 0 0 0 -1 forward_v I I I I #
coedge $-1 $533 $617 $688 $689 reversed $528 $-1 #
coedge $-1 $690 $530 $691 $692 reversed $430 $-1 #
coedge $-1 $530 $690 $693 $694 reversed $430 $-1 #
coedge $-1 $614 $624 $530 $618 forward $528 $-1 #
edge $-1 $695 -37.721102599481917 $696 37.721102599481917 $617 $697 forward 7 unknown #
coedge $-1 $532 $531 $698 $699 reversed $338 $-1 #
coedge $-1 $688 $645 $531 $621 forward $635 $-1 #
edge $-1 $700 -33.899330839805643 $625 -24.402047154645388 $620 $701 forward 7 unknown #
coedge $-1 $640 $702 $532 $623 forward $641 $-1 #
edge $-1 $626 24.402047154645388 $703 33.899330839805643 $622 $704 forward 7 unknown #
coedge $-1 $617 $533 $702 $705 reversed $528 $-1 #
vertex $-1 $621 $706 #
vertex $-1 $623 $707 #
straight-curve $-1 -53.552736151870903 0 5.6875563176279638 0 1 0 I I #
coedge $-1 $537 $535 $708 $709 reversed $246 $-1 #
coedge $-1 $538 $710 $535 $630 reversed $635 $-1 #
edge $-1 $631 -3.2765632577229029 $711 13.612152640684652 $535 $712 forward 7 unknown #
vertex $-1 $630 $713 #
straight-curve $-1 63.050019837031158 -15.913557781886295 3.2765632577229127 0 -1 0 I I #
coedge $-1 $714 $544 $537 $634 forward $641 $-1 #
edge $-1 $546 -13.612152640684652 $715 13.612152640684652 $537 $716 forward 7 unknown #
loop $-1 $-1 $538 $685 #
straight-curve $-1 14.475210702363437 -37.721102599481917 67.737514013828019 -0.60181501223851219 0 0.79863551827123203 I I #
point $-1 55.261594818740285 -37.721102599481917 13.612152640684652 #
coedge $-1 $717 $718 $543 $639 reversed $686 $-1 #
edge $-1 $642 -37.721102599481917 $646 37.721102599481917 $638 $719 forward 7 unknown #
coedge $-1 $544 $622 $717 $720 reversed $641 $-1 #
loop $-1 $-1 $622 $648 #
vertex $-1 $545 $721 #
straight-curve $-1 0 37.721102599481917 13.612152640684652 -1 0 0 I I #
point $-1 63.050019837031158 37.721102599481917 13.612152640684652 #
coedge $-1 $620 $548 $718 $722 forward $635 $-1 #
vertex $-1 $639 $723 #
straight-curve $-1 0 -37.721102599481917 13.612152640684652 1 0 0 I I #
face $-1 $-1 $641 $18 $-1 $724 reversed single #
loop $-1 $-1 $708 $550 #
plane-surface $-1 0 0 -13.612152640684652 0 0 1 1 0 0 forward_v I I I I #
face $-1 $725 $726 $19 $-1 $727 forward single #
loop $-1 $-1 $728 $552 #
plane-surface $-1 -58.30137799445103 0 0.96262264336363934 0 0 1 1 0 0 forward_v I I I I #
coedge $-1 $729 $730 $731 $732 reversed $553 $-1 #
coedge $-1 $733 $555 $657 $734 forward $449 $-1 #
coedge $-1 $555 $735 $559 $662 reversed $449 $-1 #
coedge $-1 $556 $567 $655 $734 reversed $362 $-1 #
vertex $-1 $734 $736 #
straight-curve $-1 -12.838877082691525 -25.933128528063264 103.98453379684058 0.60181501223851219 0 -0.79863551827123203 I I #
straight-curve $-1 63.050019837031158 -25.933128528063264 89.936715358281631 0 0 -1 I I #
coedge $-1 $737 $559 $738 $739 forward $561 $-1 #
edge $-1 $563 -25.933128528063264 $740 37.721102599481917 $656 $741 forward 7 unknown #
coedge $-1 $560 $737 $742 $743 forward $561 $-1 #
face $-1 $744 $561 $19 $-1 $745 forward single #
point $-1 55.261594818740278 -25.933128528063264 13.612152640684656 #
point $-1 63.050019837031158 -25.933128528063264 13.612152640684652 #
point $-1 55.820193372121452 -34.353110007648013 5.9307926147235355 #
coedge $-1 $742 $746 $567 $669 forward $747 $-1 #
edge $-1 $748 -80.713854169221818 $670 -67.772294288020063 $668 $749 forward 7 unknown #
vertex $-1 $669 $750 #
straight-curve $-1 55.261594818740271 -15.913557781886295 13.612152640684663 0 1 0 I I #
edge $-1 $575 -37.721102599481917 $577 37.721102599481917 $580 $751 forward 7 unknown #
straight-curve $-1 63.050019837031158 0 13.612152640684652 0 1 0 I I #
point $-1 63.050019837031158 37.721102599481917 -13.612152640684652 #
point $-1 63.050019837031158 -37.721102599481917 -13.612152640684652 #
coedge $-1 $586 $585 $607 $683 reversed $392 $-1 #
edge $-1 $590 -0.96262264336363934 $681 13.612152640684652 $589 $610 forward 7 unknown #
straight-curve $-1 -63.050019837031158 0 0.96262264336363934 0 1 0 I I #
point $-1 -63.050019837031158 37.721102599481917 0.96262264336363934 #
point $-1 -63.050019837031158 -37.721102599481917 0.96262264336363934 #
vertex $-1 $603 $752 #
straight-curve $-1 0 37.721102599481917 -13.612152640684652 1 0 0 I I #
edge $-1 $608 -37.721102599481917 $681 37.721102599481917 $676 $753 forward 7 unknown #
point $-1 -63.050019837031158 -37.721102599481917 -13.612152640684652 #
face $-1 $444 $635 $18 $-1 $754 reversed single #
loop $-1 $-1 $698 $611 #
coedge $-1 $755 $756 $690 $757 forward $612 $-1 #
coedge $-1 $693 $620 $614 $689 forward $635 $-1 #
edge $-1 $625 -4.025011577380063 $696 0.69992209688426144 $688 $758 forward 7 unknown #
coedge $-1 $616 $615 $687 $757 reversed $430 $-1 #
coedge $-1 $702 $759 $615 $692 forward $641 $-1 #
edge $-1 $760 -33.899330839805643 $695 -24.402047154645388 $691 $761 forward 7 unknown #
coedge $-1 $762 $688 $616 $694 forward $635 $-1 #
edge $-1 $696 24.402047154645388 $763 33.899330839805643 $693 $764 forward 7 unknown #
vertex $-1 $692 $765 #
vertex $-1 $694 $766 #
straight-curve $-1 -53.552736151870903 0 0.96262264336363934 0 -1 0 I I #
coedge $-1 $718 $717 $619 $699 forward $686 $-1 #
edge $-1 $703 -37.721102599481917 $700 37.721102599481917 $698 $767 forward 7 unknown #
vertex $-1 $621 $768 #
straight-curve $-1 -29.150688997225515 -37.721102599481917 5.6875563176279638 1 0 0 I I #
coedge $-1 $622 $691 $624 $705 forward $641 $-1 #
vertex $-1 $699 $769 #
straight-curve $-1 -29.150688997225515 37.721102599481917 5.6875563176279638 -1 0 0 I I #
edge $-1 $695 -0.69992209688426144 $626 4.025011577380063 $702 $770 forward 7 unknown #
point $-1 -53.552736151870903 -37.721102599481917 5.6875563176279638 #
point $-1 -53.552736151870903 37.721102599481917 5.6875563176279638 #
coedge $-1 $771 $772 $628 $709 forward $649 $-1 #
edge $-1 $715 -37.721102599481917 $711 37.721102599481917 $628 $773 forward 7 unknown #
coedge $-1 $629 $762 $771 $774 reversed $635 $-1 #
vertex $-1 $630 $775 #
straight-curve $-1 63.050019837031158 -37.721102599481917 0 0 0 -1 I I #
point $-1 63.050019837031158 -37.721102599481917 3.2765632577229029 #
coedge $-1 $759 $633 $772 $776 reversed $641 $-1 #
vertex $-1 $709 $777 #
straight-curve $-1 63.050019837031158 37.721102599481917 0 0 0 -1 I I #
coedge $-1 $698 $638 $640 $720 forward $686 $-1 #
coedge $-1 $638 $698 $645 $722 reversed $686 $-1 #
straight-curve $-1 -63.050019837031158 0 13.612152640684652 0 -1 0 I I #
edge $-1 $642 -13.612152640684652 $703 -5.6875563176279638 $640 $778 forward 7 unknown #
point $-1 -63.050019837031158 37.721102599481917 13.612152640684652 #
edge $-1 $646 -13.612152640684652 $700 -5.6875563176279638 $718 $779 forward 7 unknown #
point $-1 -63.050019837031158 -37.721102599481917 13.612152640684652 #
plane-surface $-1 0 37.721102599481917 0 0 -1 0 0 0 -1 forward_v I I I I #
face $-1 $780 $781 $19 $-1 $782 reversed single #
loop $-1 $-1 $783 $651 #
plane-surface $-1 -53.552736151870903 0 3.3250894804958016 -1 0 0 0 0 1 forward_v I I I I #
coedge $-1 $784 $785 $786 $787 reversed $652 $-1 #
coedge $-1 $788 $654 $789 $790 reversed $553 $-1 #
coedge $-1 $654 $788 $791 $792 reversed $553 $-1 #
coedge $-1 $793 $783 $654 $732 forward $726 $-1 #
edge $-1 $794 -37.721102599481917 $795 37.721102599481917 $731 $796 forward 7 unknown #
coedge $-1 $797 $655 $746 $798 forward $449 $-1 #
edge $-1 $658 10.019570746176969 $748 21.80754481759562 $655 $799 forward 7 unknown #
coedge $-1 $656 $797 $800 $801 reversed $449 $-1 #
point $-1 63.050019837031158 -25.933128528063264 3.2765632577228985 #
coedge $-1 $663 $661 $802 $803 forward $561 $-1 #
coedge $-1 $800 $804 $661 $739 reversed $805 $-1 #
edge $-1 $740 -63.050019837031158 $806 63.050019837031158 $738 $807 forward 7 unknown #
vertex $-1 $662 $808 #
straight-curve $-1 63.050019837031158 0 13.612152640684652 0 1 0 I I #
coedge $-1 $809 $668 $663 $743 reversed $747 $-1 #
edge $-1 $810 -63.050019837031158 $670 55.261594818740285 $742 $811 forward 7 unknown #
face $-1 $812 $813 $19 $-1 $814 reversed single #
plane-surface $-1 0 0 13.612152640684652 0 0 1 1 0 0 forward_v I I I I #
coedge $-1 $668 $815 $733 $798 reversed $747 $-1 #
loop $-1 $-1 $668 $816 #
vertex $-1 $798 $817 #
straight-curve $-1 14.475210702363437 -37.721102599481917 67.737514013828019 -0.60181501223851219 0 0.79863551827123203 I I #
point $-1 55.261594818740285 -37.721102599481917 13.612152640684652 #
straight-curve $-1 63.050019837031158 0 -13.612152640684652 0 -1 0 I I #
point $-1 -63.050019837031158 37.721102599481917 -13.612152640684652 #
straight-curve $-1 -63.050019837031158 0 -13.612152640684652 0 1 0 I I #
plane-surface $-1 0 -37.721102599481917 0 0 1 0 0 0 1 forward_v I I I I #
coedge $-1 $818 $687 $759 $819 forward $612 $-1 #
coedge $-1 $687 $818 $762 $820 reversed $612 $-1 #
edge $-1 $763 -37.721102599481917 $760 37.721102599481917 $687 $821 forward 7 unknown #
straight-curve $-1 -53.552736151870903 -37.721102599481917 1.6625447402479008 0 0 -1 I I #
coedge $-1 $691 $714 $755 $819 reversed $641 $-1 #
vertex $-1 $819 $822 #
straight-curve $-1 -29.150688997225515 37.721102599481917 0.96262264336363934 1 0 0 I I #
coedge $-1 $710 $693 $756 $820 forward $635 $-1 #
vertex $-1 $820 $823 #
straight-curve $-1 -29.150688997225515 -37.721102599481917 0.96262264336363934 -1 0 0 I I #
point $-1 -53.552736151870903 37.721102599481917 0.96262264336363934 #
point $-1 -53.552736151870903 -37.721102599481917 0.96262264336363934 #
straight-curve $-1 -63.050019837031158 0 5.6875563176279638 0 -1 0 I I #
point $-1 -63.050019837031158 -37.721102599481917 5.6875563176279638 #
point $-1 -63.050019837031158 37.721102599481917 5.6875563176279638 #
straight-curve $-1 -53.552736151870903 37.721102599481917 1.6625447402479008 0 0 1 I I #
coedge $-1 $824 $708 $710 $774 forward $649 $-1 #
coedge $-1 $708 $824 $714 $776 forward $649 $-1 #
straight-curve $-1 63.050019837031158 0 -13.612152640684652 0 -1 0 I I #
edge $-1 $711 -63.050019837031158 $825 63.050019837031158 $710 $826 forward 7 unknown #
point $-1 63.050019837031158 -37.721102599481917 -13.612152640684652 #
edge $-1 $827 -63.050019837031158 $715 63.050019837031158 $714 $828 forward 7 unknown #
point $-1 63.050019837031158 37.721102599481917 -13.612152640684652 #
straight-curve $-1 -63.050019837031158 37.721102599481917 0 0 0 -1 I I #
straight-curve $-1 -63.050019837031158 -37.721102599481917 0 0 0 -1 I I #
face $-1 $816 $829 $19 $-1 $782 reversed single #
loop $-1 $-1 $830 $725 #
plane-surface $-1 -63.050019837031158 0 0 1 0 0 0 0 -1 forward_v I I I I #
coedge $-1 $731 $786 $831 $832 reversed $726 $-1 #
coedge $-1 $833 $728 $834 $835 reversed $652 $-1 #
coedge $-1 $728 $833 $836 $837 reversed $652 $-1 #
coedge $-1 $783 $793 $728 $787 forward $726 $-1 #
edge $-1 $838 -37.721102599481917 $839 37.721102599481917 $786 $840 forward 7 unknown #
coedge $-1 $730 $729 $841 $842 reversed $553 $-1 #
coedge $-1 $831 $809 $729 $790 forward $747 $-1 #
edge $-1 $843 -33.899330839805643 $794 -24.402047154645388 $789 $844 forward 7 unknown #
coedge $-1 $804 $845 $730 $792 forward $805 $-1 #
edge $-1 $795 24.402047154645388 $846 33.899330839805643 $791 $847 forward 7 unknown #
coedge $-1 $786 $731 $845 $848 reversed $726 $-1 #
vertex $-1 $790 $849 #
vertex $-1 $792 $850 #
straight-curve $-1 -53.552736151870903 0 5.6875563176279638 0 1 0 I I #
coedge $-1 $735 $733 $851 $852 reversed $449 $-1 #
edge $-1 $748 -3.2765632577229029 $853 13.612152640684652 $733 $854 forward 7 unknown #
straight-curve $-1 63.050019837031158 -15.913557781886295 3.2765632577229127 0 -1 0 I I #
coedge $-1 $855 $738 $735 $801 forward $805 $-1 #
edge $-1 $740 -13.612152640684652 $856 13.612152640684652 $735 $857 forward 7 unknown #
coedge $-1 $858 $859 $737 $803 reversed $829 $-1 #
edge $-1 $806 -37.721102599481917 $810 37.721102599481917 $802 $860 forward 7 unknown #
coedge $-1 $738 $791 $858 $861 reversed $805 $-1 #
loop $-1 $-1 $791 $812 #
vertex $-1 $739 $862 #
straight-curve $-1 0 37.721102599481917 13.612152640684652 -1 0 0 I I #
point $-1 63.050019837031158 37.721102599481917 13.612152640684652 #
coedge $-1 $789 $742 $859 $863 forward $747 $-1 #
vertex $-1 $803 $864 #
straight-curve $-1 0 -37.721102599481917 13.612152640684652 1 0 0 I I #
face $-1 $-1 $805 $19 $-1 $865 reversed single #
loop $-1 $-1 $851 $744 #
plane-surface $-1 0 0 -13.612152640684652 0 0 1 1 0 0 forward_v I I I I #
coedge $-1 $746 $866 $867 $868 reversed $747 $-1 #
face $-1 $664 $747 $19 $-1 $869 reversed single #
point $-1 63.050019837031158 -37.721102599481917 3.2765632577229029 #
coedge $-1 $756 $755 $824 $870 reversed $612 $-1 #
edge $-1 $760 -0.96262264336363934 $827 13.612152640684652 $759 $778 forward 7 unknown #
edge $-1 $763 -0.96262264336363934 $825 13.612152640684652 $756 $779 forward 7 unknown #
straight-curve $-1 -63.050019837031158 0 0.96262264336363934 0 1 0 I I #
point $-1 -63.050019837031158 37.721102599481917 0.96262264336363934 #
point $-1 -63.050019837031158 -37.721102599481917 0.96262264336363934 #
coedge $-1 $772 $771 $818 $870 forward $649 $-1 #
vertex $-1 $870 $871 #
straight-curve $-1 0 -37.721102599481917 -13.612152640684652 -1 0 0 I I #
vertex $-1 $776 $872 #
straight-curve $-1 0 37.721102599481917 -13.612152640684652 1 0 0 I I #
loop $-1 $-1 $841 $780 #
coedge $-1 $873 $874 $833 $875 forward $781 $-1 #
coedge $-1 $836 $789 $783 $832 forward $747 $-1 #
edge $-1 $794 -4.025011577380063 $839 0.69992209688426144 $831 $876 forward 7 unknown #
coedge $-1 $785 $784 $830 $875 reversed $652 $-1 #
coedge $-1 $845 $877 $784 $835 forward $805 $-1 #
edge $-1 $878 -33.899330839805643 $838 -24.402047154645388 $834 $879 forward 7 unknown #
coedge $-1 $866 $831 $785 $837 forward $747 $-1 #
edge $-1 $839 24.402047154645388 $880 33.899330839805643 $836 $881 forward 7 unknown #
vertex $-1 $835 $882 #
vertex $-1 $837 $883 #
straight-curve $-1 -53.552736151870903 0 0.96262264336363934 0 -1 0 I I #
coedge $-1 $859 $858 $788 $842 forward $829 $-1 #
edge $-1 $846 -37.721102599481917 $843 37.721102599481917 $841 $884 forward 7 unknown #
vertex $-1 $790 $885 #
straight-curve $-1 -29.150688997225515 -37.721102599481917 5.6875563176279638 1 0 0 I I #
coedge $-1 $791 $834 $793 $848 forward $805 $-1 #
vertex $-1 $842 $886 #
straight-curve $-1 -29.150688997225515 37.721102599481917 5.6875563176279638 -1 0 0 I I #
edge $-1 $838 -0.69992209688426144 $795 4.025011577380063 $845 $887 forward 7 unknown #
point $-1 -53.552736151870903 -37.721102599481917 5.6875563176279638 #
point $-1 -53.552736151870903 37.721102599481917 5.6875563176279638 #
coedge $-1 $867 $888 $797 $852 forward $813 $-1 #
edge $-1 $856 -37.721102599481917 $853 37.721102599481917 $797 $889 forward 7 unknown #
vertex $-1 $798 $890 #
straight-curve $-1 63.050019837031158 -37.721102599481917 0 0 0 -1 I I #
coedge $-1 $877 $800 $888 $891 reversed $805 $-1 #
vertex $-1 $852 $892 #
straight-curve $-1 63.050019837031158 37.721102599481917 0 0 0 -1 I I #
coedge $-1 $841 $802 $804 $861 forward $829 $-1 #
coedge $-1 $802 $841 $809 $863 reversed $829 $-1 #
straight-curve $-1 -63.050019837031158 0 13.612152640684652 0 -1 0 I I #
edge $-1 $806 -13.612152640684652 $846 -5.6875563176279638 $804 $893 forward 7 unknown #
point $-1 -63.050019837031158 37.721102599481917 13.612152640684652 #
edge $-1 $810 -13.612152640684652 $843 -5.6875563176279638 $859 $894 forward 7 unknown #
point $-1 -63.050019837031158 -37.721102599481917 13.612152640684652 #
plane-surface $-1 0 37.721102599481917 0 0 -1 0 0 0 -1 forward_v I I I I #
coedge $-1 $815 $836 $874 $895 forward $747 $-1 #
coedge $-1 $896 $851 $815 $868 forward $813 $-1 #
edge $-1 $853 -63.050019837031158 $897 63.050019837031158 $815 $898 forward 7 unknown #
plane-surface $-1 0 -37.721102599481917 0 0 1 0 0 0 1 forward_v I I I I #
edge $-1 $825 -37.721102599481917 $827 37.721102599481917 $818 $899 forward 7 unknown #
point $-1 -63.050019837031158 -37.721102599481917 -13.612152640684652 #
point $-1 -63.050019837031158 37.721102599481917 -13.612152640684652 #
coedge $-1 $900 $830 $877 $901 forward $781 $-1 #
coedge $-1 $830 $900 $866 $895 reversed $781 $-1 #
edge $-1 $880 -37.721102599481917 $878 37.721102599481917 $830 $902 forward 7 unknown #
straight-curve $-1 -53.552736151870903 -37.721102599481917 1.6625447402479008 0 0 -1 I I #
coedge $-1 $834 $855 $873 $901 reversed $805 $-1 #
vertex $-1 $901 $903 #
straight-curve $-1 -29.150688997225515 37.721102599481917 0.96262264336363934 1 0 0 I I #
vertex $-1 $895 $904 #
straight-curve $-1 -29.150688997225515 -37.721102599481917 0.96262264336363934 -1 0 0 I I #
point $-1 -53.552736151870903 37.721102599481917 0.96262264336363934 #
point $-1 -53.552736151870903 -37.721102599481917 0.96262264336363934 #
straight-curve $-1 -63.050019837031158 0 5.6875563176279638 0 -1 0 I I #
point $-1 -63.050019837031158 -37.721102599481917 5.6875563176279638 #
point $-1 -63.050019837031158 37.721102599481917 5.6875563176279638 #
straight-curve $-1 -53.552736151870903 37.721102599481917 1.6625447402479008 0 0 1 I I #
coedge $-1 $851 $896 $855 $891 forward $813 $-1 #
straight-curve $-1 63.050019837031158 0 -13.612152640684652 0 -1 0 I I #
point $-1 63.050019837031158 -37.721102599481917 -13.612152640684652 #
edge $-1 $905 -63.050019837031158 $856 63.050019837031158 $855 $906 forward 7 unknown #
point $-1 63.050019837031158 37.721102599481917 -13.612152640684652 #
straight-curve $-1 -63.050019837031158 37.721102599481917 0 0 0 -1 I I #
straight-curve $-1 -63.050019837031158 -37.721102599481917 0 0 0 -1 I I #
edge $-1 $880 -0.96262264336363934 $897 13.612152640684652 $874 $894 forward 7 unknown #
coedge $-1 $888 $867 $900 $907 forward $813 $-1 #
vertex $-1 $907 $908 #
straight-curve $-1 0 -37.721102599481917 -13.612152640684652 -1 0 0 I I #
straight-curve $-1 -63.050019837031158 0 -13.612152640684652 0 1 0 I I #
coedge $-1 $874 $873 $896 $907 reversed $781 $-1 #
edge $-1 $878 -0.96262264336363934 $905 13.612152640684652 $877 $893 forward 7 unknown #
straight-curve $-1 -63.050019837031158 0 0.96262264336363934 0 1 0 I I #
point $-1 -63.050019837031158 37.721102599481917 0.96262264336363934 #
point $-1 -63.050019837031158 -37.721102599481917 0.96262264336363934 #
vertex $-1 $891 $909 #
straight-curve $-1 0 37.721102599481917 -13.612152640684652 1 0 0 I I #
edge $-1 $897 -37.721102599481917 $905 37.721102599481917 $900 $910 forward 7 unknown #
point $-1 -63.050019837031158 -37.721102599481917 -13.612152640684652 #
point $-1 -63.050019837031158 37.721102599481917 -13.612152640684652 #
straight-curve $-1 -63.050019837031158 0 -13.612152640684652 0 1 0 I I #
End-of-ACIS-data 