500 0 18 0           
7 Unknown 11 ACIS 5.0 NT 24 Thu Mar 25 21:50:40 1999 
-1 9.9999999999999995e-007 1e-010 
body $-1 $18 $-1 $19 #
body $-1 $20 $-1 $21 #
body $-1 $22 $-1 $23 #
body $-1 $24 $-1 $25 #
body $-1 $26 $-1 $27 #
body $-1 $28 $-1 $29 #
body $-1 $30 $-1 $31 #
body $-1 $32 $-1 $33 #
body $-1 $34 $-1 $35 #
body $-1 $36 $-1 $37 #
body $-1 $38 $-1 $39 #
body $-1 $40 $-1 $41 #
body $-1 $42 $-1 $43 #
body $-1 $44 $-1 $45 #
body $-1 $46 $-1 $47 #
body $-1 $48 $-1 $49 #
body $-1 $50 $-1 $51 #
body $-1 $52 $-1 $53 #
lump $-1 $-1 $54 $0 #
transform $-1 1 0 0 0 1 0 0 0 1 55.403302102725306 27.69640949014196 12.310520241013048 1 rotate no_reflect no_shear #
lump $-1 $-1 $55 $1 #
transform $-1 1 0 0 0 1 0 0 0 1 55.403302102725306 27.69640949014196 12.310520241013048 1 rotate no_reflect no_shear #
lump $-1 $-1 $56 $2 #
transform $-1 1 0 0 0 1 0 0 0 1 55.403302102725306 27.69640949014196 12.310520241013048 1 rotate no_reflect no_shear #
lump $-1 $-1 $57 $3 #
transform $-1 1 0 0 0 1 0 0 0 1 55.403302102725306 27.69640949014196 12.310520241013048 1 rotate no_reflect no_shear #
lump $-1 $-1 $58 $4 #
transform $-1 1 0 0 0 1 0 0 0 1 55.403302102725306 27.69640949014196 12.310520241013048 1 rotate no_reflect no_shear #
lump $-1 $-1 $59 $5 #
transform $-1 1 0 0 0 1 0 0 0 1 55.403302102725306 27.69640949014196 12.310520241013048 1 rotate no_reflect no_shear #
lump $-1 $-1 $60 $6 #
transform $-1 1 0 0 0 1 0 0 0 1 55.403302102725306 27.69640949014196 12.310520241013048 1 rotate no_reflect no_shear #
lump $-1 $-1 $61 $7 #
transform $-1 1 0 0 0 1 0 0 0 1 55.403302102725306 27.69640949014196 12.310520241013048 1 rotate no_reflect no_shear #
lump $-1 $-1 $62 $8 #
transform $-1 1 0 0 0 1 0 0 0 1 55.403302102725306 27.69640949014196 12.310520241013048 1 rotate no_reflect no_shear #
lump $-1 $-1 $63 $9 #
transform $-1 1 0 0 0 1 0 0 0 1 55.403302102725306 27.69640949014196 12.310520241013048 1 rotate no_reflect no_shear #
lump $-1 $-1 $64 $10 #
transform $-1 1 0 0 0 1 0 0 0 1 55.403302102725306 27.69640949014196 12.310520241013048 1 rotate no_reflect no_shear #
lump $-1 $-1 $65 $11 #
transform $-1 1 0 0 0 1 0 0 0 1 55.403302102725306 27.69640949014196 12.310520241013048 1 rotate no_reflect no_shear #
lump $-1 $-1 $66 $12 #
transform $-1 1 0 0 0 1 0 0 0 1 55.403302102725306 27.69640949014196 12.310520241013048 1 rotate no_reflect no_shear #
lump $-1 $-1 $67 $13 #
transform $-1 1 0 0 0 1 0 0 0 1 55.403302102725306 27.69640949014196 12.310520241013048 1 rotate no_reflect no_shear #
lump $-1 $-1 $68 $14 #
transform $-1 1 0 0 0 1 0 0 0 1 55.403302102725306 27.69640949014196 12.310520241013048 1 rotate no_reflect no_shear #
lump $-1 $-1 $69 $15 #
transform $-1 1 0 0 0 1 0 0 0 1 55.403302102725306 27.69640949014196 12.310520241013048 1 rotate no_reflect no_shear #
lump $-1 $-1 $70 $16 #
transform $-1 1 0 0 0 1 0 0 0 1 55.403302102725306 27.69640949014196 12.310520241013048 1 rotate no_reflect no_shear #
lump $-1 $-1 $71 $17 #
transform $-1 1 0 0 0 1 0 0 0 1 55.403302102725306 27.69640949014196 12.310520241013048 1 rotate no_reflect no_shear #
shell $-1 $-1 $-1 $72 $-1 $18 #
shell $-1 $-1 $-1 $73 $-1 $20 #
shell $-1 $-1 $-1 $74 $-1 $22 #
shell $-1 $-1 $-1 $75 $-1 $24 #
shell $-1 $-1 $-1 $76 $-1 $26 #
shell $-1 $-1 $-1 $77 $-1 $28 #
shell $-1 $-1 $-1 $78 $-1 $30 #
shell $-1 $-1 $-1 $79 $-1 $32 #
shell $-1 $-1 $-1 $80 $-1 $34 #
shell $-1 $-1 $-1 $81 $-1 $36 #
shell $-1 $-1 $-1 $82 $-1 $38 #
shell $-1 $-1 $-1 $83 $-1 $40 #
shell $-1 $-1 $-1 $84 $-1 $42 #
shell $-1 $-1 $-1 $85 $-1 $44 #
shell $-1 $-1 $-1 $86 $-1 $46 #
shell $-1 $-1 $-1 $87 $-1 $48 #
shell $-1 $-1 $-1 $88 $-1 $50 #
shell $-1 $-1 $-1 $89 $-1 $52 #
face $-1 $90 $91 $54 $-1 $92 reversed single #
face $-1 $93 $94 $55 $-1 $95 forward single #
face $-1 $96 $97 $56 $-1 $98 reversed single #
face $-1 $99 $100 $57 $-1 $101 forward single #
face $-1 $102 $103 $58 $-1 $104 forward single #
face $-1 $105 $106 $59 $-1 $107 forward single #
face $-1 $108 $109 $60 $-1 $110 reversed single #
face $-1 $111 $112 $61 $-1 $113 forward single #
face $-1 $114 $115 $62 $-1 $116 forward single #
face $-1 $117 $118 $63 $-1 $119 forward single #
face $-1 $120 $121 $64 $-1 $122 reversed single #
face $-1 $123 $124 $65 $-1 $125 forward single #
face $-1 $126 $127 $66 $-1 $128 forward single #
face $-1 $129 $130 $67 $-1 $131 forward single #
face $-1 $132 $133 $68 $-1 $134 reversed single #
face $-1 $135 $136 $69 $-1 $137 forward single #
face $-1 $138 $139 $70 $-1 $140 forward single #
face $-1 $141 $142 $71 $-1 $143 forward single #
face $-1 $144 $145 $54 $-1 $146 forward single #
loop $-1 $-1 $147 $72 #
plane-surface $-1 -55.403302102725306 0 0 1 0 0 0 0 -1 forward_v I I I I #
face $-1 $148 $149 $55 $-1 $150 reversed single #
loop $-1 $-1 $151 $73 #
plane-surface $-1 -55.403302102725306 0 0 1 0 0 0 0 -1 forward_v I I I I #
face $-1 $152 $153 $56 $-1 $154 reversed single #
loop $-1 $-1 $155 $74 #
plane-surface $-1 95.961336490629193 -13.848204745070978 155.95923117156099 0 -1 0 -0.86602541151947299 0 -0.49999998660252726 forward_v I I I I #
face $-1 $156 $157 $57 $-1 $158 forward single #
loop $-1 $159 $160 $75 #
cone-surface $-1 52.388675026636569 -19.202283152434518 7.9980495595044161 -0.86602541151947299 0 -0.49999998660252726 0.24999999330126363 0 -0.43301270575973649 1 I I 0 1 0.5 forward I I I I #
face $-1 $161 $162 $58 $-1 $163 forward single #
loop $-1 $164 $165 $76 #
cone-surface $-1 52.388675026636569 -17.194503749673189 7.9980495595044161 -0.86602541151947299 0 -0.49999998660252726 0.24999999330126363 0 -0.43301270575973649 1 I I 0 1 0.5 forward I I I I #
face $-1 $166 $167 $59 $-1 $168 forward single #
loop $-1 $169 $170 $77 #
cone-surface $-1 52.388675026636569 -15.186724346911864 7.9980495595044161 -0.86602541151947299 0 -0.49999998660252726 0.24999999330126363 0 -0.43301270575973649 1 I I 0 1 0.5 forward I I I I #
face $-1 $171 $172 $60 $-1 $173 reversed single #
loop $-1 $-1 $174 $78 #
plane-surface $-1 95.961336490629193 1.7763568394002505e-015 155.95923117156099 0 -1 0 -0.86602541151947299 0 -0.49999998660252726 forward_v I I I I #
face $-1 $175 $176 $61 $-1 $177 forward single #
loop $-1 $178 $179 $79 #
cone-surface $-1 52.388675026636569 -5.3540784073635379 7.9980495595044161 -0.86602541151947299 0 -0.49999998660252726 0.24999999330126363 0 -0.43301270575973649 1 I I 0 1 0.5 forward I I I I #
face $-1 $180 $181 $62 $-1 $182 forward single #
loop $-1 $183 $184 $80 #
cone-surface $-1 52.388675026636569 -3.3462990046022085 7.9980495595044161 -0.86602541151947299 0 -0.49999998660252726 0.24999999330126363 0 -0.43301270575973649 1 I I 0 1 0.5 forward I I I I #
face $-1 $185 $186 $63 $-1 $187 forward single #
loop $-1 $188 $189 $81 #
cone-surface $-1 52.388675026636569 -1.3385196018408863 7.9980495595044161 -0.86602541151947299 0 -0.49999998660252726 0.24999999330126363 0 -0.43301270575973649 1 I I 0 1 0.5 forward I I I I #
face $-1 $190 $191 $64 $-1 $192 reversed single #
loop $-1 $-1 $193 $82 #
plane-surface $-1 95.961336490629193 13.848204745070982 155.95923117156099 0 -1 0 -0.86602541151947299 0 -0.49999998660252726 forward_v I I I I #
face $-1 $194 $195 $65 $-1 $196 forward single #
loop $-1 $197 $198 $83 #
cone-surface $-1 52.388675026636569 8.4941263377074421 7.9980495595044161 -0.86602541151947299 0 -0.49999998660252726 0.24999999330126363 0 -0.43301270575973649 1 I I 0 1 0.5 forward I I I I #
face $-1 $199 $200 $66 $-1 $201 forward single #
loop $-1 $202 $203 $84 #
cone-surface $-1 52.388675026636569 10.501905740468771 7.9980495595044161 -0.86602541151947299 0 -0.49999998660252726 0.24999999330126363 0 -0.43301270575973649 1 I I 0 1 0.5 forward I I I I #
face $-1 $204 $205 $67 $-1 $206 forward single #
loop $-1 $207 $208 $85 #
cone-surface $-1 52.388675026636569 12.509685143230094 7.9980495595044161 -0.86602541151947299 0 -0.49999998660252726 0.24999999330126363 0 -0.43301270575973649 1 I I 0 1 0.5 forward I I I I #
face $-1 $209 $210 $68 $-1 $211 reversed single #
loop $-1 $-1 $212 $86 #
plane-surface $-1 95.961336490629193 21.003811480937543 155.95923117156099 0 1 0 0.86602541151947299 0 0.49999998660252726 forward_v I I I I #
face $-1 $213 $214 $69 $-1 $215 forward single #
loop $-1 $216 $217 $87 #
cone-surface $-1 52.388675026636569 22.342331082778422 7.9980495595044161 -0.86602541151947299 0 -0.49999998660252726 0.24999999330126363 0 -0.43301270575973649 1 I I 0 1 0.5 forward I I I I #
face $-1 $218 $219 $70 $-1 $220 forward single #
loop $-1 $221 $222 $88 #
cone-surface $-1 52.388675026636569 24.350110485539751 7.9980495595044161 -0.86602541151947299 0 -0.49999998660252726 0.24999999330126363 0 -0.43301270575973649 1 I I 0 1 0.5 forward I I I I #
face $-1 $223 $224 $71 $-1 $225 forward single #
loop $-1 $226 $227 $89 #
cone-surface $-1 52.388675026636569 26.357889888301074 7.9980495595044161 -0.86602541151947299 0 -0.49999998660252726 0.24999999330126363 0 -0.43301270575973649 1 I I 0 1 0.5 forward I I I I #
face $-1 $228 $229 $54 $-1 $230 reversed single #
loop $-1 $-1 $231 $90 #
plane-surface $-1 0 0 12.310520241013048 0 0 1 1 0 0 forward_v I I I I #
coedge $-1 $232 $233 $234 $235 reversed $91 $-1 #
face $-1 $236 $237 $55 $-1 $238 reversed single #
loop $-1 $-1 $239 $93 #
plane-surface $-1 0 0 -12.310520241013048 0 0 1 1 0 0 forward_v I I I I #
coedge $-1 $240 $241 $242 $243 forward $94 $-1 #
face $-1 $244 $245 $56 $-1 $246 reversed single #
loop $-1 $-1 $247 $96 #
plane-surface $-1 1.4845284681541671e-006 -17.194503749673189 100.55593055336413 0.86602541151947299 0 0.49999998660252726 0.49999998660252726 0 -0.86602541151947299 forward_v I I I I #
coedge $-1 $248 $249 $250 $251 reversed $97 $-1 #
face $-1 $-1 $252 $57 $-1 $253 forward single #
loop $-1 $254 $255 $99 #
cone-surface $-1 51.384937117582311 -19.202283152434518 7.4185412282199685 -0.86602541151947299 0 -0.49999998660252726 0.12499999665063181 0 -0.21650635287986825 1 I I -0.70710678118654746 0.70710678118654746 0.25 forward I I I I #
loop $-1 $-1 $256 $75 #
coedge $-1 $160 $160 $257 $258 reversed $100 $-1 #
face $-1 $-1 $259 $58 $-1 $260 forward single #
loop $-1 $261 $262 $102 #
cone-surface $-1 51.384937117582311 -17.194503749673189 7.4185412282199685 -0.86602541151947299 0 -0.49999998660252726 0.12499999665063181 0 -0.21650635287986825 1 I I -0.70710678118654746 0.70710678118654746 0.25 forward I I I I #
loop $-1 $-1 $263 $76 #
coedge $-1 $165 $165 $264 $265 reversed $103 $-1 #
face $-1 $-1 $266 $59 $-1 $267 forward single #
loop $-1 $268 $269 $105 #
cone-surface $-1 51.384937117582311 -15.186724346911864 7.4185412282199685 -0.86602541151947299 0 -0.49999998660252726 0.12499999665063181 0 -0.21650635287986825 1 I I -0.70710678118654746 0.70710678118654746 0.25 forward I I I I #
loop $-1 $-1 $270 $77 #
coedge $-1 $170 $170 $271 $272 reversed $106 $-1 #
face $-1 $273 $274 $60 $-1 $275 reversed single #
loop $-1 $-1 $276 $108 #
plane-surface $-1 1.4845284681541671e-006 -3.3462990046022085 100.55593055336413 0.86602541151947299 0 0.49999998660252726 0.49999998660252726 0 -0.86602541151947299 forward_v I I I I #
coedge $-1 $277 $278 $279 $280 reversed $109 $-1 #
face $-1 $-1 $281 $61 $-1 $282 forward single #
loop $-1 $283 $284 $111 #
cone-surface $-1 51.384937117582311 -5.3540784073635379 7.4185412282199685 -0.86602541151947299 0 -0.49999998660252726 0.12499999665063181 0 -0.21650635287986825 1 I I -0.70710678118654746 0.70710678118654746 0.25 forward I I I I #
loop $-1 $-1 $285 $79 #
coedge $-1 $179 $179 $286 $287 reversed $112 $-1 #
face $-1 $-1 $288 $62 $-1 $289 forward single #
loop $-1 $290 $291 $114 #
cone-surface $-1 51.384937117582311 -3.3462990046022085 7.4185412282199685 -0.86602541151947299 0 -0.49999998660252726 0.12499999665063181 0 -0.21650635287986825 1 I I -0.70710678118654746 0.70710678118654746 0.25 forward I I I I #
loop $-1 $-1 $292 $80 #
coedge $-1 $184 $184 $293 $294 reversed $115 $-1 #
face $-1 $-1 $295 $63 $-1 $296 forward single #
loop $-1 $297 $298 $117 #
cone-surface $-1 51.384937117582311 -1.3385196018408863 7.4185412282199685 -0.86602541151947299 0 -0.49999998660252726 0.12499999665063181 0 -0.21650635287986825 1 I I -0.70710678118654746 0.70710678118654746 0.25 forward I I I I #
loop $-1 $-1 $299 $81 #
coedge $-1 $189 $189 $300 $301 reversed $118 $-1 #
face $-1 $302 $303 $64 $-1 $304 reversed single #
loop $-1 $-1 $305 $120 #
plane-surface $-1 1.4845284681541671e-006 10.501905740468771 100.55593055336413 0.86602541151947299 0 0.49999998660252726 0.49999998660252726 0 -0.86602541151947299 forward_v I I I I #
coedge $-1 $306 $307 $308 $309 reversed $121 $-1 #
face $-1 $-1 $310 $65 $-1 $311 forward single #
loop $-1 $312 $313 $123 #
cone-surface $-1 51.384937117582311 8.4941263377074421 7.4185412282199685 -0.86602541151947299 0 -0.49999998660252726 0.12499999665063181 0 -0.21650635287986825 1 I I -0.70710678118654746 0.70710678118654746 0.25 forward I I I I #
loop $-1 $-1 $314 $83 #
coedge $-1 $198 $198 $315 $316 reversed $124 $-1 #
face $-1 $-1 $317 $66 $-1 $318 forward single #
loop $-1 $319 $320 $126 #
cone-surface $-1 51.384937117582311 10.501905740468771 7.4185412282199685 -0.86602541151947299 0 -0.49999998660252726 0.12499999665063181 0 -0.21650635287986825 1 I I -0.70710678118654746 0.70710678118654746 0.25 forward I I I I #
loop $-1 $-1 $321 $84 #
coedge $-1 $203 $203 $322 $323 reversed $127 $-1 #
face $-1 $-1 $324 $67 $-1 $325 forward single #
loop $-1 $326 $327 $129 #
cone-surface $-1 51.384937117582311 12.509685143230094 7.4185412282199685 -0.86602541151947299 0 -0.49999998660252726 0.12499999665063181 0 -0.21650635287986825 1 I I -0.70710678118654746 0.70710678118654746 0.25 forward I I I I #
loop $-1 $-1 $328 $85 #
coedge $-1 $208 $208 $329 $330 reversed $130 $-1 #
face $-1 $331 $332 $68 $-1 $333 reversed single #
loop $-1 $-1 $334 $132 #
plane-surface $-1 1.4845284681541671e-006 24.350110485539751 100.55593055336413 0.86602541151947299 0 0.49999998660252726 0.49999998660252726 0 -0.86602541151947299 forward_v I I I I #
coedge $-1 $335 $336 $337 $338 reversed $133 $-1 #
face $-1 $-1 $339 $69 $-1 $340 forward single #
loop $-1 $341 $342 $135 #
cone-surface $-1 51.384937117582311 22.342331082778422 7.4185412282199685 -0.86602541151947299 0 -0.49999998660252726 0.12499999665063181 0 -0.21650635287986825 1 I I -0.70710678118654746 0.70710678118654746 0.25 forward I I I I #
loop $-1 $-1 $343 $87 #
coedge $-1 $217 $217 $344 $345 reversed $136 $-1 #
face $-1 $-1 $346 $70 $-1 $347 forward single #
loop $-1 $348 $349 $138 #
cone-surface $-1 51.384937117582311 24.350110485539751 7.4185412282199685 -0.86602541151947299 0 -0.49999998660252726 0.12499999665063181 0 -0.21650635287986825 1 I I -0.70710678118654746 0.70710678118654746 0.25 forward I I I I #
loop $-1 $-1 $350 $88 #
coedge $-1 $222 $222 $351 $352 reversed $139 $-1 #
face $-1 $-1 $353 $71 $-1 $354 forward single #
loop $-1 $355 $356 $141 #
cone-surface $-1 51.384937117582311 26.357889888301074 7.4185412282199685 -0.86602541151947299 0 -0.49999998660252726 0.12499999665063181 0 -0.21650635287986825 1 I I -0.70710678118654746 0.70710678118654746 0.25 forward I I I I #
loop $-1 $-1 $357 $89 #
coedge $-1 $227 $227 $358 $359 reversed $142 $-1 #
face $-1 $360 $361 $54 $-1 $362 reversed single #
loop $-1 $-1 $363 $144 #
plane-surface $-1 0 0 -12.310520241013048 0 0 1 1 0 0 forward_v I I I I #
coedge $-1 $364 $365 $366 $367 forward $145 $-1 #
coedge $-1 $368 $147 $369 $370 reversed $91 $-1 #
coedge $-1 $147 $368 $371 $372 forward $91 $-1 #
coedge $-1 $373 $374 $147 $235 forward $229 $-1 #
edge $-1 $375 -27.69640949014196 $376 27.69640949014196 $147 $377 forward 7 unknown #
face $-1 $378 $379 $55 $-1 $380 reversed single #
loop $-1 $-1 $381 $148 #
plane-surface $-1 -60.602799685546735 -21.926751664438164 0 0 1 0 0 0 1 forward_v I I I I #
coedge $-1 $382 $383 $241 $384 forward $149 $-1 #
coedge $-1 $385 $151 $386 $387 reversed $94 $-1 #
coedge $-1 $151 $385 $239 $384 reversed $94 $-1 #
coedge $-1 $388 $389 $151 $243 reversed $390 $-1 #
edge $-1 $391 -12.310520241013048 $392 12.310520241013048 $242 $393 forward 7 unknown #
face $-1 $394 $395 $56 $-1 $396 forward single #
loop $-1 $-1 $397 $152 #
plane-surface $-1 95.961336490629193 -20.540802754275397 155.95923117156099 0 1 0 0.86602541151947299 0 0.49999998660252726 forward_v I I I I #
coedge $-1 $398 $399 $400 $401 reversed $153 $-1 #
coedge $-1 $249 $155 $402 $403 reversed $97 $-1 #
coedge $-1 $155 $248 $398 $404 reversed $97 $-1 #
coedge $-1 $400 $405 $155 $251 forward $395 $-1 #
edge $-1 $406 -7.4226338574107089 $407 -2.9678428175819889 $250 $408 forward 7 unknown #
loop $-1 $-1 $257 $156 #
plane-surface $-1 1.4845284681541671e-006 -17.194503749673189 100.55593055336413 0.86602541151947299 0 0.49999998660252726 0.49999998660252726 0 -0.86602541151947299 forward_v I I I I #
loop $-1 $-1 $409 $99 #
coedge $-1 $255 $255 $256 $410 reversed $157 $-1 #
coedge $-1 $256 $256 $255 $410 forward $159 $-1 #
coedge $-1 $257 $257 $160 $258 forward $252 $-1 #
edge $-1 $411 0 $411 6.2831853071796004 $257 $412 forward 7 unknown #
loop $-1 $-1 $264 $161 #
plane-surface $-1 1.4845284681541671e-006 -17.194503749673189 100.55593055336413 0.86602541151947299 0 0.49999998660252726 0.49999998660252726 0 -0.86602541151947299 forward_v I I I I #
loop $-1 $-1 $413 $102 #
coedge $-1 $262 $262 $263 $414 reversed $162 $-1 #
coedge $-1 $263 $263 $262 $414 forward $164 $-1 #
coedge $-1 $264 $264 $165 $265 forward $259 $-1 #
edge $-1 $415 0 $415 6.2831853071796004 $264 $416 forward 7 unknown #
loop $-1 $-1 $271 $166 #
plane-surface $-1 1.4845284681541671e-006 -17.194503749673189 100.55593055336413 0.86602541151947299 0 0.49999998660252726 0.49999998660252726 0 -0.86602541151947299 forward_v I I I I #
loop $-1 $-1 $417 $105 #
coedge $-1 $269 $269 $270 $418 reversed $167 $-1 #
coedge $-1 $270 $270 $269 $418 forward $169 $-1 #
coedge $-1 $271 $271 $170 $272 forward $266 $-1 #
edge $-1 $419 0 $419 6.2831853071796004 $271 $420 forward 7 unknown #
face $-1 $421 $422 $60 $-1 $423 reversed single #
loop $-1 $-1 $424 $171 #
plane-surface $-1 95.961336490629193 -6.6925980092044188 155.95923117156099 0 1 0 0.86602541151947299 0 0.49999998660252726 forward_v I I I I #
coedge $-1 $425 $426 $427 $428 reversed $172 $-1 #
coedge $-1 $278 $174 $429 $430 reversed $109 $-1 #
coedge $-1 $174 $277 $425 $431 reversed $109 $-1 #
coedge $-1 $427 $432 $174 $280 forward $433 $-1 #
edge $-1 $434 -7.4226338574107089 $435 -2.9678428175819889 $279 $436 forward 7 unknown #
loop $-1 $-1 $286 $175 #
plane-surface $-1 1.4845284681541671e-006 -3.3462990046022085 100.55593055336413 0.86602541151947299 0 0.49999998660252726 0.49999998660252726 0 -0.86602541151947299 forward_v I I I I #
loop $-1 $-1 $437 $111 #
coedge $-1 $284 $284 $285 $438 reversed $176 $-1 #
coedge $-1 $285 $285 $284 $438 forward $178 $-1 #
coedge $-1 $286 $286 $179 $287 forward $281 $-1 #
edge $-1 $439 0 $439 6.2831853071796004 $286 $440 forward 7 unknown #
loop $-1 $-1 $293 $180 #
plane-surface $-1 1.4845284681541671e-006 -3.3462990046022085 100.55593055336413 0.86602541151947299 0 0.49999998660252726 0.49999998660252726 0 -0.86602541151947299 forward_v I I I I #
loop $-1 $-1 $441 $114 #
coedge $-1 $291 $291 $292 $442 reversed $181 $-1 #
coedge $-1 $292 $292 $291 $442 forward $183 $-1 #
coedge $-1 $293 $293 $184 $294 forward $288 $-1 #
edge $-1 $443 0 $443 6.2831853071796004 $293 $444 forward 7 unknown #
loop $-1 $-1 $300 $185 #
plane-surface $-1 1.4845284681541671e-006 -3.3462990046022085 100.55593055336413 0.86602541151947299 0 0.49999998660252726 0.49999998660252726 0 -0.86602541151947299 forward_v I I I I #
loop $-1 $-1 $445 $117 #
coedge $-1 $298 $298 $299 $446 reversed $186 $-1 #
coedge $-1 $299 $299 $298 $446 forward $188 $-1 #
coedge $-1 $300 $300 $189 $301 forward $295 $-1 #
edge $-1 $447 0 $447 6.2831853071796004 $300 $448 forward 7 unknown #
face $-1 $449 $450 $64 $-1 $451 reversed single #
loop $-1 $-1 $452 $190 #
plane-surface $-1 95.961336490629193 7.1556067358665612 155.95923117156099 0 1 0 0.86602541151947299 0 0.49999998660252726 forward_v I I I I #
coedge $-1 $453 $454 $455 $456 reversed $191 $-1 #
coedge $-1 $307 $193 $457 $458 reversed $121 $-1 #
coedge $-1 $193 $306 $453 $459 reversed $121 $-1 #
coedge $-1 $455 $460 $193 $309 forward $461 $-1 #
edge $-1 $462 -7.4226338574107089 $463 -2.9678428175819889 $308 $464 forward 7 unknown #
loop $-1 $-1 $315 $194 #
plane-surface $-1 1.4845284681541671e-006 10.501905740468771 100.55593055336413 0.86602541151947299 0 0.49999998660252726 0.49999998660252726 0 -0.86602541151947299 forward_v I I I I #
loop $-1 $-1 $465 $123 #
coedge $-1 $313 $313 $314 $466 reversed $195 $-1 #
coedge $-1 $314 $314 $313 $466 forward $197 $-1 #
coedge $-1 $315 $315 $198 $316 forward $310 $-1 #
edge $-1 $467 0 $467 6.2831853071796004 $315 $468 forward 7 unknown #
loop $-1 $-1 $322 $199 #
plane-surface $-1 1.4845284681541671e-006 10.501905740468771 100.55593055336413 0.86602541151947299 0 0.49999998660252726 0.49999998660252726 0 -0.86602541151947299 forward_v I I I I #
loop $-1 $-1 $469 $126 #
coedge $-1 $320 $320 $321 $470 reversed $200 $-1 #
coedge $-1 $321 $321 $320 $470 forward $202 $-1 #
coedge $-1 $322 $322 $203 $323 forward $317 $-1 #
edge $-1 $471 0 $471 6.2831853071796004 $322 $472 forward 7 unknown #
loop $-1 $-1 $329 $204 #
plane-surface $-1 1.4845284681541671e-006 10.501905740468771 100.55593055336413 0.86602541151947299 0 0.49999998660252726 0.49999998660252726 0 -0.86602541151947299 forward_v I I I I #
loop $-1 $-1 $473 $129 #
coedge $-1 $327 $327 $328 $474 reversed $205 $-1 #
coedge $-1 $328 $328 $327 $474 forward $207 $-1 #
coedge $-1 $329 $329 $208 $330 forward $324 $-1 #
edge $-1 $475 0 $475 6.2831853071796004 $329 $476 forward 7 unknown #
face $-1 $477 $478 $68 $-1 $479 reversed single #
loop $-1 $-1 $337 $209 #
plane-surface $-1 55.403302102725306 0 0 -1 0 0 0 0 1 forward_v I I I I #
coedge $-1 $480 $481 $482 $483 reversed $210 $-1 #
coedge $-1 $336 $212 $484 $485 reversed $133 $-1 #
coedge $-1 $212 $335 $480 $486 reversed $133 $-1 #
coedge $-1 $482 $487 $212 $338 forward $332 $-1 #
edge $-1 $488 65.669095344767442 $489 73.385020038517084 $337 $490 forward 7 unknown #
loop $-1 $-1 $344 $213 #
plane-surface $-1 1.4845284681541671e-006 24.350110485539751 100.55593055336413 0.86602541151947299 0 0.49999998660252726 0.49999998660252726 0 -0.86602541151947299 forward_v I I I I #
loop $-1 $-1 $491 $135 #
coedge $-1 $342 $342 $343 $492 reversed $214 $-1 #
coedge $-1 $343 $343 $342 $492 forward $216 $-1 #
coedge $-1 $344 $344 $217 $345 forward $339 $-1 #
edge $-1 $493 0 $493 6.2831853071796004 $344 $494 forward 7 unknown #
loop $-1 $-1 $351 $218 #
plane-surface $-1 1.4845284681541671e-006 24.350110485539751 100.55593055336413 0.86602541151947299 0 0.49999998660252726 0.49999998660252726 0 -0.86602541151947299 forward_v I I I I #
loop $-1 $-1 $495 $138 #
coedge $-1 $349 $349 $350 $496 reversed $219 $-1 #
coedge $-1 $350 $350 $349 $496 forward $221 $-1 #
coedge $-1 $351 $351 $222 $352 forward $346 $-1 #
edge $-1 $497 0 $497 6.2831853071796004 $351 $498 forward 7 unknown #
loop $-1 $-1 $358 $223 #
plane-surface $-1 1.4845284681541671e-006 24.350110485539751 100.55593055336413 0.86602541151947299 0 0.49999998660252726 0.49999998660252726 0 -0.86602541151947299 forward_v I I I I #
loop $-1 $-1 $499 $141 #
coedge $-1 $356 $356 $357 $500 reversed $224 $-1 #
coedge $-1 $357 $357 $356 $500 forward $226 $-1 #
coedge $-1 $358 $358 $227 $359 forward $353 $-1 #
edge $-1 $501 0 $501 6.2831853071796004 $358 $502 forward 7 unknown #
face $-1 $503 $504 $54 $-1 $505 reversed single #
loop $-1 $-1 $369 $228 #
plane-surface $-1 0 -27.69640949014196 0 0 1 0 0 0 1 forward_v I I I I #
coedge $-1 $374 $373 $506 $507 forward $229 $-1 #
coedge $-1 $508 $231 $509 $510 forward $145 $-1 #
coedge $-1 $231 $508 $511 $512 forward $145 $-1 #
coedge $-1 $513 $514 $231 $367 reversed $515 $-1 #
edge $-1 $516 -27.69640949014196 $517 27.69640949014196 $366 $518 forward 7 unknown #
coedge $-1 $233 $232 $508 $519 reversed $91 $-1 #
coedge $-1 $520 $511 $232 $370 forward $361 $-1 #
edge $-1 $521 -12.310520241013048 $375 12.310520241013048 $232 $522 forward 7 unknown #
coedge $-1 $509 $523 $233 $372 reversed $504 $-1 #
edge $-1 $524 -12.310520241013048 $376 12.310520241013048 $371 $525 forward 7 unknown #
coedge $-1 $363 $234 $523 $526 forward $229 $-1 #
coedge $-1 $234 $363 $520 $527 forward $229 $-1 #
vertex $-1 $235 $528 #
vertex $-1 $526 $529 #
straight-curve $-1 -55.403302102725306 0 -12.310520241013048 0 1 0 I I #
face $-1 $530 $390 $55 $-1 $531 reversed single #
loop $-1 $-1 $532 $236 #
plane-surface $-1 -65.802297268368164 -20.426751664438164 0 1 0 0 0 0 -1 forward_v I I I I #
coedge $-1 $533 $534 $535 $536 forward $237 $-1 #
coedge $-1 $537 $239 $533 $538 forward $149 $-1 #
coedge $-1 $239 $537 $388 $539 forward $149 $-1 #
edge $-1 $391 18.926751664438164 $540 21.926751664438164 $239 $541 forward 7 unknown #
coedge $-1 $241 $240 $542 $543 forward $94 $-1 #
coedge $-1 $544 $545 $240 $387 forward $546 $-1 #
edge $-1 $547 -21.926751664438164 $392 -18.926751664438164 $386 $548 forward 7 unknown #
coedge $-1 $549 $242 $383 $539 reversed $390 $-1 #
coedge $-1 $242 $549 $544 $550 reversed $390 $-1 #
loop $-1 $-1 $242 $378 #
vertex $-1 $384 $551 #
vertex $-1 $550 $552 #
straight-curve $-1 -55.403302102725306 -18.926751664438164 0 0 0 1 I I #
face $-1 $-1 $553 $56 $-1 $554 reversed single #
loop $-1 $-1 $250 $244 #
plane-surface $-1 0 0 12.310520241013048 0 0 1 1 0 0 forward_v I I I I #
coedge $-1 $555 $556 $557 $558 reversed $245 $-1 #
coedge $-1 $559 $247 $249 $404 forward $153 $-1 #
coedge $-1 $247 $559 $555 $560 forward $153 $-1 #
coedge $-1 $557 $250 $247 $401 forward $395 $-1 #
edge $-1 $407 5.250952870234384 $561 11.943550879438803 $400 $562 forward 7 unknown #
coedge $-1 $563 $564 $248 $403 forward $553 $-1 #
edge $-1 $565 -73.385020038517084 $406 -65.669095344767442 $402 $566 forward 7 unknown #
edge $-1 $407 101.89702188706137 $565 110.8066042054506 $249 $567 forward 7 unknown #
coedge $-1 $250 $557 $563 $568 forward $395 $-1 #
vertex $-1 $251 $569 #
vertex $-1 $251 $570 #
straight-curve $-1 47.980668245314597 -13.848204745070978 12.310520241013052 -1 0 0 I I #
coedge $-1 $409 $409 $-1 $571 reversed $254 $-1 #
edge $-1 $572 0 $572 6.2831853071796004 $255 $573 forward 7 unknown #
vertex $-1 $258 $574 #
ellipse-curve $-1 53.175906582810953 -19.202283152434518 8.4525578941382289 0.86602541151947299 0 0.49999998660252726 0.24999999330126363 0 -0.43301270575973649 1 I I #
coedge $-1 $413 $413 $-1 $575 reversed $261 $-1 #
edge $-1 $576 0 $576 6.2831853071796004 $262 $577 forward 7 unknown #
vertex $-1 $265 $578 #
ellipse-curve $-1 53.175906582810953 -17.194503749673189 8.4525578941382289 0.86602541151947299 0 0.49999998660252726 0.24999999330126363 0 -0.43301270575973649 1 I I #
coedge $-1 $417 $417 $-1 $579 reversed $268 $-1 #
edge $-1 $580 0 $580 6.2831853071796004 $269 $581 forward 7 unknown #
vertex $-1 $272 $582 #
ellipse-curve $-1 53.175906582810953 -15.186724346911864 8.4525578941382289 0.86602541151947299 0 0.49999998660252726 0.24999999330126363 0 -0.43301270575973649 1 I I #
face $-1 $-1 $433 $60 $-1 $583 forward single #
loop $-1 $-1 $584 $273 #
plane-surface $-1 55.403302102725306 0 0 -1 0 0 0 0 1 forward_v I I I I #
coedge $-1 $585 $586 $587 $588 reversed $274 $-1 #
coedge $-1 $589 $276 $278 $431 forward $172 $-1 #
coedge $-1 $276 $589 $585 $590 forward $172 $-1 #
coedge $-1 $587 $279 $276 $428 forward $433 $-1 #
edge $-1 $435 -1.673149502301106 $591 5.0194485069033146 $427 $592 forward 7 unknown #
coedge $-1 $593 $594 $277 $430 forward $422 $-1 #
edge $-1 $595 -73.385020038517084 $434 -65.669095344767442 $429 $596 forward 7 unknown #
edge $-1 $435 101.89702188706137 $595 110.8066042054506 $278 $597 forward 7 unknown #
coedge $-1 $279 $587 $593 $598 forward $433 $-1 #
loop $-1 $-1 $587 $421 #
vertex $-1 $430 $599 #
vertex $-1 $280 $600 #
straight-curve $-1 47.980668245314597 1.7763568394002505e-015 12.310520241013052 -1 0 0 I I #
coedge $-1 $437 $437 $-1 $601 reversed $283 $-1 #
edge $-1 $602 0 $602 6.2831853071796004 $284 $603 forward 7 unknown #
vertex $-1 $287 $604 #
ellipse-curve $-1 53.175906582810953 -5.3540784073635379 8.4525578941382289 0.86602541151947299 0 0.49999998660252726 0.24999999330126363 0 -0.43301270575973649 1 I I #
coedge $-1 $441 $441 $-1 $605 reversed $290 $-1 #
edge $-1 $606 0 $606 6.2831853071796004 $291 $607 forward 7 unknown #
vertex $-1 $294 $608 #
ellipse-curve $-1 53.175906582810953 -3.3462990046022085 8.4525578941382289 0.86602541151947299 0 0.49999998660252726 0.24999999330126363 0 -0.43301270575973649 1 I I #
coedge $-1 $445 $445 $-1 $609 reversed $297 $-1 #
edge $-1 $610 0 $610 6.2831853071796004 $298 $611 forward 7 unknown #
vertex $-1 $301 $612 #
ellipse-curve $-1 53.175906582810953 -1.3385196018408863 8.4525578941382289 0.86602541151947299 0 0.49999998660252726 0.24999999330126363 0 -0.43301270575973649 1 I I #
face $-1 $-1 $461 $64 $-1 $613 forward single #
loop $-1 $-1 $614 $302 #
plane-surface $-1 55.403302102725306 0 0 -1 0 0 0 0 1 forward_v I I I I #
coedge $-1 $615 $616 $617 $618 reversed $303 $-1 #
coedge $-1 $619 $305 $307 $459 forward $191 $-1 #
coedge $-1 $305 $619 $615 $620 forward $191 $-1 #
coedge $-1 $617 $308 $305 $456 forward $461 $-1 #
edge $-1 $463 -8.597251874836596 $621 -1.9046538656321754 $455 $622 forward 7 unknown #
coedge $-1 $623 $624 $306 $458 forward $450 $-1 #
edge $-1 $625 -73.385020038517084 $462 -65.669095344767442 $457 $626 forward 7 unknown #
edge $-1 $463 101.89702188706137 $625 110.8066042054506 $307 $627 forward 7 unknown #
coedge $-1 $308 $617 $623 $628 forward $461 $-1 #
loop $-1 $-1 $617 $449 #
vertex $-1 $458 $629 #
vertex $-1 $309 $630 #
straight-curve $-1 47.980668245314597 13.848204745070982 12.310520241013052 -1 0 0 I I #
coedge $-1 $465 $465 $-1 $631 reversed $312 $-1 #
edge $-1 $632 0 $632 6.2831853071796004 $313 $633 forward 7 unknown #
vertex $-1 $316 $634 #
ellipse-curve $-1 53.175906582810953 8.4941263377074421 8.4525578941382289 0.86602541151947299 0 0.49999998660252726 0.24999999330126363 0 -0.43301270575973649 1 I I #
coedge $-1 $469 $469 $-1 $635 reversed $319 $-1 #
edge $-1 $636 0 $636 6.2831853071796004 $320 $637 forward 7 unknown #
vertex $-1 $323 $638 #
ellipse-curve $-1 53.175906582810953 10.501905740468771 8.4525578941382289 0.86602541151947299 0 0.49999998660252726 0.24999999330126363 0 -0.43301270575973649 1 I I #
coedge $-1 $473 $473 $-1 $639 reversed $326 $-1 #
edge $-1 $640 0 $640 6.2831853071796004 $327 $641 forward 7 unknown #
vertex $-1 $330 $642 #
ellipse-curve $-1 53.175906582810953 12.509685143230094 8.4525578941382289 0.86602541151947299 0 0.49999998660252726 0.24999999330126363 0 -0.43301270575973649 1 I I #
face $-1 $-1 $643 $68 $-1 $644 forward single #
loop $-1 $-1 $645 $331 #
plane-surface $-1 0 27.69640949014196 0 0 -1 0 0 0 -1 forward_v I I I I #
coedge $-1 $646 $334 $336 $486 forward $210 $-1 #
coedge $-1 $334 $646 $645 $647 reversed $210 $-1 #
coedge $-1 $648 $337 $334 $483 forward $332 $-1 #
edge $-1 $489 8.8287562381676672 $649 15.521354247372084 $482 $650 forward 7 unknown #
coedge $-1 $651 $652 $335 $485 forward $643 $-1 #
edge $-1 $653 2.9678428175819889 $488 7.4226338574107089 $484 $654 forward 7 unknown #
edge $-1 $489 -110.8066042054506 $653 -101.89702188706137 $336 $655 forward 7 unknown #
coedge $-1 $337 $648 $651 $656 reversed $332 $-1 #
vertex $-1 $656 $657 #
vertex $-1 $338 $658 #
straight-curve $-1 55.403302102725306 21.003811480937543 77.979615585780493 0 0 -1 I I #
coedge $-1 $491 $491 $-1 $659 reversed $341 $-1 #
edge $-1 $660 0 $660 6.2831853071796004 $342 $661 forward 7 unknown #
vertex $-1 $345 $662 #
ellipse-curve $-1 53.175906582810953 22.342331082778422 8.4525578941382289 0.86602541151947299 0 0.49999998660252726 0.24999999330126363 0 -0.43301270575973649 1 I I #
coedge $-1 $495 $495 $-1 $663 reversed $348 $-1 #
edge $-1 $664 0 $664 6.2831853071796004 $349 $665 forward 7 unknown #
vertex $-1 $352 $666 #
ellipse-curve $-1 53.175906582810953 24.350110485539751 8.4525578941382289 0.86602541151947299 0 0.49999998660252726 0.24999999330126363 0 -0.43301270575973649 1 I I #
coedge $-1 $499 $499 $-1 $667 reversed $355 $-1 #
edge $-1 $668 0 $668 6.2831853071796004 $356 $669 forward 7 unknown #
vertex $-1 $359 $670 #
ellipse-curve $-1 53.175906582810953 26.357889888301074 8.4525578941382289 0.86602541151947299 0 0.49999998660252726 0.24999999330126363 0 -0.43301270575973649 1 I I #
face $-1 $-1 $515 $54 $-1 $671 reversed single #
loop $-1 $-1 $672 $360 #
plane-surface $-1 0 27.69640949014196 0 0 -1 0 0 0 -1 forward_v I I I I #
coedge $-1 $514 $513 $363 $507 reversed $515 $-1 #
edge $-1 $673 -27.69640949014196 $674 27.69640949014196 $506 $675 forward 7 unknown #
coedge $-1 $365 $364 $368 $519 forward $145 $-1 #
coedge $-1 $672 $371 $364 $510 reversed $504 $-1 #
edge $-1 $517 -55.403302102725306 $524 55.403302102725306 $509 $676 forward 7 unknown #
coedge $-1 $369 $677 $365 $512 reversed $361 $-1 #
edge $-1 $521 -55.403302102725306 $516 55.403302102725306 $511 $678 forward 7 unknown #
coedge $-1 $506 $366 $677 $679 forward $515 $-1 #
coedge $-1 $366 $506 $672 $680 reversed $515 $-1 #
loop $-1 $-1 $513 $503 #
vertex $-1 $367 $681 #
vertex $-1 $367 $682 #
straight-curve $-1 55.403302102725306 0 12.310520241013048 0 1 0 I I #
edge $-1 $524 -27.69640949014196 $521 27.69640949014196 $368 $683 forward 7 unknown #
coedge $-1 $677 $369 $374 $527 reversed $361 $-1 #
vertex $-1 $519 $684 #
straight-curve $-1 -55.403302102725306 -27.69640949014196 0 0 0 -1 I I #
coedge $-1 $371 $672 $373 $526 reversed $504 $-1 #
vertex $-1 $510 $685 #
straight-curve $-1 -55.403302102725306 27.69640949014196 0 0 0 -1 I I #
edge $-1 $376 -55.403302102725306 $673 55.403302102725306 $523 $686 forward 7 unknown #
edge $-1 $674 -55.403302102725306 $375 55.403302102725306 $520 $687 forward 7 unknown #
point $-1 -55.403302102725306 -27.69640949014196 -12.310520241013048 #
point $-1 -55.403302102725306 27.69640949014196 -12.310520241013048 #
face $-1 $-1 $546 $55 $-1 $688 forward single #
plane-surface $-1 -60.602799685546735 -18.926751664438164 0 0 -1 0 0 0 -1 forward_v I I I I #
coedge $-1 $689 $690 $549 $691 forward $379 $-1 #
coedge $-1 $542 $381 $382 $538 reversed $237 $-1 #
coedge $-1 $381 $542 $545 $692 reversed $237 $-1 #
coedge $-1 $690 $689 $381 $536 reversed $379 $-1 #
edge $-1 $693 -12.310520241013048 $694 12.310520241013048 $535 $695 forward 7 unknown #
coedge $-1 $383 $382 $689 $696 forward $149 $-1 #
edge $-1 $540 -5.1994975828214294 $694 5.1994975828214294 $533 $697 forward 7 unknown #
edge $-1 $698 -5.1994975828214294 $391 5.1994975828214294 $388 $699 forward 7 unknown #
vertex $-1 $538 $700 #
straight-curve $-1 -55.403302102725306 0 -12.310520241013048 0 -1 0 I I #
coedge $-1 $534 $533 $385 $543 reversed $237 $-1 #
edge $-1 $547 -12.310520241013048 $540 12.310520241013048 $542 $701 forward 7 unknown #
coedge $-1 $702 $386 $389 $550 forward $546 $-1 #
coedge $-1 $386 $702 $534 $692 forward $546 $-1 #
loop $-1 $-1 $386 $530 #
vertex $-1 $387 $703 #
straight-curve $-1 -55.403302102725306 0 12.310520241013048 0 1 0 I I #
coedge $-1 $389 $388 $532 $691 reversed $390 $-1 #
edge $-1 $392 -5.1994975828214294 $704 5.1994975828214294 $389 $705 forward 7 unknown #
point $-1 -55.403302102725306 -18.926751664438164 -12.310520241013048 #
point $-1 -55.403302102725306 -18.926751664438164 12.310520241013048 #
loop $-1 $-1 $402 $394 #
plane-surface $-1 55.403302102725306 0 0 -1 0 0 0 0 1 forward_v I I I I #
coedge $-1 $556 $397 $399 $560 reversed $245 $-1 #
coedge $-1 $397 $555 $706 $707 reversed $245 $-1 #
coedge $-1 $405 $400 $397 $558 forward $395 $-1 #
edge $-1 $561 2.9678428175819889 $708 7.4226338574107089 $557 $709 forward 7 unknown #
coedge $-1 $399 $398 $564 $710 reversed $153 $-1 #
edge $-1 $711 -110.8066042054506 $561 -101.89702188706137 $555 $712 forward 7 unknown #
vertex $-1 $401 $713 #
straight-curve $-1 50.948511062896586 -8.5972518748365943 12.310520241013052 0 -1 0 I I #
coedge $-1 $706 $402 $405 $568 reversed $553 $-1 #
coedge $-1 $402 $706 $559 $710 forward $553 $-1 #
vertex $-1 $403 $714 #
straight-curve $-1 55.403302102725306 -13.848204745070978 77.979615585780493 0 0 1 I I #
straight-curve $-1 1.4845284681541671e-006 -13.848204745070978 100.55593055336413 0.49999998660252726 0 -0.86602541151947299 I I #
edge $-1 $708 -20.540802754275397 $406 -13.848204745070978 $563 $715 forward 7 unknown #
point $-1 55.403302102725306 -13.848204745070978 12.310520241013048 #
point $-1 50.948511062896586 -13.848204745070978 12.310520241013052 #
edge $-1 $716 1 $716 0 $409 $-1 forward 7 unknown #
vertex $-1 $410 $717 #
ellipse-curve $-1 51.601443470462179 -19.202283152434518 7.5435412248706006 0.86602541151947299 0 0.49999998660252726 0.24999999330126363 0 -0.43301270575973649 1 I I #
point $-1 53.425906576112219 -19.202283152434518 8.0195451883784941 #
edge $-1 $718 1 $718 0 $413 $-1 forward 7 unknown #
vertex $-1 $414 $719 #
ellipse-curve $-1 51.601443470462179 -17.194503749673189 7.5435412248706006 0.86602541151947299 0 0.49999998660252726 0.24999999330126363 0 -0.43301270575973649 1 I I #
point $-1 53.425906576112219 -17.194503749673189 8.0195451883784941 #
edge $-1 $720 1 $720 0 $417 $-1 forward 7 unknown #
vertex $-1 $418 $721 #
ellipse-curve $-1 51.601443470462179 -15.186724346911864 7.5435412248706006 0.86602541151947299 0 0.49999998660252726 0.24999999330126363 0 -0.43301270575973649 1 I I #
point $-1 53.425906576112219 -15.186724346911864 8.0195451883784941 #
plane-surface $-1 0 0 12.310520241013048 0 0 1 1 0 0 forward_v I I I I #
coedge $-1 $594 $593 $586 $722 forward $422 $-1 #
coedge $-1 $586 $424 $426 $590 reversed $274 $-1 #
coedge $-1 $424 $585 $584 $722 reversed $274 $-1 #
coedge $-1 $432 $427 $424 $588 forward $433 $-1 #
edge $-1 $591 2.9678428175819889 $723 7.4226338574107089 $587 $724 forward 7 unknown #
coedge $-1 $426 $425 $594 $725 reversed $172 $-1 #
edge $-1 $726 -110.8066042054506 $591 -101.89702188706137 $585 $727 forward 7 unknown #
vertex $-1 $428 $728 #
straight-curve $-1 50.948511062896586 -1.6731495023011043 12.310520241013052 0 -1 0 I I #
coedge $-1 $584 $429 $432 $598 reversed $422 $-1 #
coedge $-1 $429 $584 $589 $725 forward $422 $-1 #
vertex $-1 $430 $729 #
straight-curve $-1 55.403302102725306 1.7763568394002505e-015 77.979615585780493 0 0 1 I I #
straight-curve $-1 1.4845284681541671e-006 1.7763568394002505e-015 100.55593055336413 0.49999998660252726 0 -0.86602541151947299 I I #
edge $-1 $723 -6.6925980092044188 $434 1.7763568394002505e-015 $593 $730 forward 7 unknown #
point $-1 55.403302102725306 1.7763568394002505e-015 12.310520241013048 #
point $-1 50.948511062896586 1.7763568394002505e-015 12.310520241013052 #
edge $-1 $731 1 $731 0 $437 $-1 forward 7 unknown #
vertex $-1 $438 $732 #
ellipse-curve $-1 51.601443470462179 -5.3540784073635379 7.5435412248706006 0.86602541151947299 0 0.49999998660252726 0.24999999330126363 0 -0.43301270575973649 1 I I #
point $-1 53.425906576112219 -5.3540784073635379 8.0195451883784941 #
edge $-1 $733 1 $733 0 $441 $-1 forward 7 unknown #
vertex $-1 $442 $734 #
ellipse-curve $-1 51.601443470462179 -3.3462990046022085 7.5435412248706006 0.86602541151947299 0 0.49999998660252726 0.24999999330126363 0 -0.43301270575973649 1 I I #
point $-1 53.425906576112219 -3.3462990046022085 8.0195451883784941 #
edge $-1 $735 1 $735 0 $445 $-1 forward 7 unknown #
vertex $-1 $446 $736 #
ellipse-curve $-1 51.601443470462179 -1.3385196018408863 7.5435412248706006 0.86602541151947299 0 0.49999998660252726 0.24999999330126363 0 -0.43301270575973649 1 I I #
point $-1 53.425906576112219 -1.3385196018408863 8.0195451883784941 #
plane-surface $-1 0 0 12.310520241013048 0 0 1 1 0 0 forward_v I I I I #
coedge $-1 $624 $623 $616 $737 forward $450 $-1 #
coedge $-1 $616 $452 $454 $620 reversed $303 $-1 #
coedge $-1 $452 $615 $614 $737 reversed $303 $-1 #
coedge $-1 $460 $455 $452 $618 forward $461 $-1 #
edge $-1 $621 2.9678428175819889 $738 7.4226338574107089 $617 $739 forward 7 unknown #
coedge $-1 $454 $453 $624 $740 reversed $191 $-1 #
edge $-1 $741 -110.8066042054506 $621 -101.89702188706137 $615 $742 forward 7 unknown #
vertex $-1 $456 $743 #
straight-curve $-1 50.948511062896586 5.2509528702343857 12.310520241013052 0 -1 0 I I #
coedge $-1 $614 $457 $460 $628 reversed $450 $-1 #
coedge $-1 $457 $614 $619 $740 forward $450 $-1 #
vertex $-1 $458 $744 #
straight-curve $-1 55.403302102725306 13.848204745070982 77.979615585780493 0 0 1 I I #
straight-curve $-1 1.4845284681541671e-006 13.848204745070982 100.55593055336413 0.49999998660252726 0 -0.86602541151947299 I I #
edge $-1 $738 7.1556067358665612 $462 13.848204745070982 $623 $745 forward 7 unknown #
point $-1 55.403302102725306 13.848204745070982 12.310520241013048 #
point $-1 50.948511062896586 13.848204745070982 12.310520241013052 #
edge $-1 $746 1 $746 0 $465 $-1 forward 7 unknown #
vertex $-1 $466 $747 #
ellipse-curve $-1 51.601443470462179 8.4941263377074421 7.5435412248706006 0.86602541151947299 0 0.49999998660252726 0.24999999330126363 0 -0.43301270575973649 1 I I #
point $-1 53.425906576112219 8.4941263377074421 8.0195451883784941 #
edge $-1 $748 1 $748 0 $469 $-1 forward 7 unknown #
vertex $-1 $470 $749 #
ellipse-curve $-1 51.601443470462179 10.501905740468771 7.5435412248706006 0.86602541151947299 0 0.49999998660252726 0.24999999330126363 0 -0.43301270575973649 1 I I #
point $-1 53.425906576112219 10.501905740468771 8.0195451883784941 #
edge $-1 $750 1 $750 0 $473 $-1 forward 7 unknown #
vertex $-1 $474 $751 #
ellipse-curve $-1 51.601443470462179 12.509685143230094 7.5435412248706006 0.86602541151947299 0 0.49999998660252726 0.24999999330126363 0 -0.43301270575973649 1 I I #
point $-1 53.425906576112219 12.509685143230094 8.0195451883784941 #
loop $-1 $-1 $484 $477 #
plane-surface $-1 0 0 12.310520241013048 0 0 1 1 0 0 forward_v I I I I #
coedge $-1 $752 $753 $481 $647 forward $478 $-1 #
coedge $-1 $481 $480 $652 $754 reversed $210 $-1 #
edge $-1 $649 -67.264609007482335 $755 -58.355026689093123 $645 $756 forward 7 unknown #
coedge $-1 $487 $482 $753 $757 reversed $332 $-1 #
vertex $-1 $647 $758 #
straight-curve $-1 55.403302102725306 12.175055242769876 4.5945955472634097 0 1 0 I I #
coedge $-1 $759 $484 $487 $656 forward $643 $-1 #
coedge $-1 $484 $759 $646 $754 forward $643 $-1 #
vertex $-1 $485 $760 #
straight-curve $-1 47.980668245314597 21.003811480937543 12.310520241013052 1 0 0 I I #
straight-curve $-1 1.4845284681541671e-006 21.003811480937543 100.55593055336413 -0.49999998660252726 0 0.86602541151947299 I I #
edge $-1 $488 21.003811480937543 $761 27.69640949014196 $487 $762 forward 7 unknown #
point $-1 55.403302102725306 21.003811480937543 12.310520241013048 #
point $-1 55.403302102725306 21.003811480937543 4.5945955472634097 #
edge $-1 $763 1 $763 0 $491 $-1 forward 7 unknown #
vertex $-1 $492 $764 #
ellipse-curve $-1 51.601443470462179 22.342331082778422 7.5435412248706006 0.86602541151947299 0 0.49999998660252726 0.24999999330126363 0 -0.43301270575973649 1 I I #
point $-1 53.425906576112219 22.342331082778422 8.0195451883784941 #
edge $-1 $765 1 $765 0 $495 $-1 forward 7 unknown #
vertex $-1 $496 $766 #
ellipse-curve $-1 51.601443470462179 24.350110485539751 7.5435412248706006 0.86602541151947299 0 0.49999998660252726 0.24999999330126363 0 -0.43301270575973649 1 I I #
point $-1 53.425906576112219 24.350110485539751 8.0195451883784941 #
edge $-1 $767 1 $767 0 $499 $-1 forward 7 unknown #
vertex $-1 $500 $768 #
ellipse-curve $-1 51.601443470462179 26.357889888301074 7.5435412248706006 0.86602541151947299 0 0.49999998660252726 0.24999999330126363 0 -0.43301270575973649 1 I I #
point $-1 53.425906576112219 26.357889888301074 8.0195451883784941 #
plane-surface $-1 55.403302102725306 0 0 -1 0 0 0 0 1 forward_v I I I I #
coedge $-1 $523 $509 $514 $680 forward $504 $-1 #
vertex $-1 $507 $769 #
vertex $-1 $679 $770 #
straight-curve $-1 55.403302102725306 0 -12.310520241013048 0 -1 0 I I #
straight-curve $-1 0 27.69640949014196 12.310520241013048 -1 0 0 I I #
coedge $-1 $511 $520 $513 $679 reversed $361 $-1 #
straight-curve $-1 0 -27.69640949014196 12.310520241013048 1 0 0 I I #
edge $-1 $516 -12.310520241013048 $674 12.310520241013048 $513 $771 forward 7 unknown #
edge $-1 $517 -12.310520241013048 $673 12.310520241013048 $514 $772 forward 7 unknown #
point $-1 55.403302102725306 -27.69640949014196 12.310520241013048 #
point $-1 55.403302102725306 27.69640949014196 12.310520241013048 #
straight-curve $-1 -55.403302102725306 0 12.310520241013048 0 -1 0 I I #
point $-1 -55.403302102725306 -27.69640949014196 12.310520241013048 #
point $-1 -55.403302102725306 27.69640949014196 12.310520241013048 #
straight-curve $-1 0 27.69640949014196 -12.310520241013048 1 0 0 I I #
straight-curve $-1 0 -27.69640949014196 -12.310520241013048 -1 0 0 I I #
plane-surface $-1 0 0 12.310520241013048 0 0 1 1 0 0 forward_v I I I I #
coedge $-1 $535 $532 $537 $696 reversed $379 $-1 #
coedge $-1 $532 $535 $702 $773 reversed $379 $-1 #
edge $-1 $704 -12.310520241013048 $698 12.310520241013048 $549 $774 forward 7 unknown #
edge $-1 $693 -5.1994975828214294 $547 5.1994975828214294 $534 $775 forward 7 unknown #
vertex $-1 $773 $776 #
vertex $-1 $696 $777 #
straight-curve $-1 -65.802297268368164 -21.926751664438164 0 0 0 -1 I I #
edge $-1 $694 -1.5 $698 1.5 $689 $778 forward 7 unknown #
straight-curve $-1 -60.602799685546735 -21.926751664438164 -12.310520241013048 -1 0 0 I I #
vertex $-1 $539 $779 #
straight-curve $-1 -60.602799685546735 -18.926751664438164 -12.310520241013048 1 0 0 I I #
point $-1 -55.403302102725306 -21.926751664438164 -12.310520241013048 #
straight-curve $-1 -55.403302102725306 -21.926751664438164 0 0 0 -1 I I #
coedge $-1 $545 $544 $690 $773 forward $546 $-1 #
point $-1 -55.403302102725306 -21.926751664438164 12.310520241013048 #
vertex $-1 $550 $780 #
straight-curve $-1 -60.602799685546735 -18.926751664438164 12.310520241013048 -1 0 0 I I #
coedge $-1 $564 $563 $556 $707 forward $553 $-1 #
edge $-1 $708 65.669095344767442 $711 73.385020038517084 $706 $781 forward 7 unknown #
vertex $-1 $568 $782 #
straight-curve $-1 47.980668245314597 -20.540802754275397 12.310520241013052 1 0 0 I I #
edge $-1 $711 -11.943550879438803 $565 -5.250952870234384 $564 $783 forward 7 unknown #
vertex $-1 $710 $784 #
straight-curve $-1 1.4845284681541671e-006 -20.540802754275397 100.55593055336413 -0.49999998660252726 0 0.86602541151947299 I I #
point $-1 50.948511062896586 -20.540802754275397 12.310520241013052 #
point $-1 55.403302102725306 -13.848204745070978 4.5945955472634097 #
straight-curve $-1 55.403302102725306 0 12.310520241013048 0 1 0 I I #
vertex $-1 $571 $785 #
point $-1 51.851443463763445 -19.202283152434518 7.110528519110864 #
vertex $-1 $575 $786 #
point $-1 51.851443463763445 -17.194503749673189 7.110528519110864 #
vertex $-1 $579 $787 #
point $-1 51.851443463763445 -15.186724346911864 7.110528519110864 #
edge $-1 $723 65.669095344767442 $726 73.385020038517084 $584 $788 forward 7 unknown #
vertex $-1 $598 $789 #
straight-curve $-1 47.980668245314597 -6.6925980092044188 12.310520241013052 1 0 0 I I #
edge $-1 $726 -5.0194485069033146 $595 1.673149502301106 $594 $790 forward 7 unknown #
vertex $-1 $725 $791 #
straight-curve $-1 1.4845284681541671e-006 -6.6925980092044188 100.55593055336413 -0.49999998660252726 0 0.86602541151947299 I I #
point $-1 50.948511062896586 -6.6925980092044188 12.310520241013052 #
point $-1 55.403302102725306 1.7763568394002505e-015 4.5945955472634097 #
straight-curve $-1 55.403302102725306 0 12.310520241013048 0 1 0 I I #
vertex $-1 $601 $792 #
point $-1 51.851443463763445 -5.3540784073635379 7.110528519110864 #
vertex $-1 $605 $793 #
point $-1 51.851443463763445 -3.3462990046022085 7.110528519110864 #
vertex $-1 $609 $794 #
point $-1 51.851443463763445 -1.3385196018408863 7.110528519110864 #
edge $-1 $738 65.669095344767442 $741 73.385020038517084 $614 $795 forward 7 unknown #
vertex $-1 $628 $796 #
straight-curve $-1 47.980668245314597 7.1556067358665612 12.310520241013052 1 0 0 I I #
edge $-1 $741 1.9046538656321754 $625 8.597251874836596 $624 $797 forward 7 unknown #
vertex $-1 $740 $798 #
straight-curve $-1 1.4845284681541671e-006 7.1556067358665612 100.55593055336413 -0.49999998660252726 0 0.86602541151947299 I I #
point $-1 50.948511062896586 7.1556067358665612 12.310520241013052 #
point $-1 55.403302102725306 13.848204745070982 4.5945955472634097 #
straight-curve $-1 55.403302102725306 0 12.310520241013048 0 1 0 I I #
vertex $-1 $631 $799 #
point $-1 51.851443463763445 8.4941263377074421 7.110528519110864 #
vertex $-1 $635 $800 #
point $-1 51.851443463763445 10.501905740468771 7.110528519110864 #
vertex $-1 $639 $801 #
point $-1 51.851443463763445 12.509685143230094 7.110528519110864 #
coedge $-1 $753 $645 $759 $802 reversed $478 $-1 #
coedge $-1 $645 $752 $648 $757 forward $478 $-1 #
edge $-1 $755 -15.521354247372084 $653 -8.8287562381676672 $652 $803 forward 7 unknown #
vertex $-1 $647 $804 #
straight-curve $-1 21.770998500159902 27.69640949014196 62.847456243664759 -0.49999998660252726 0 0.86602541151947299 I I #
edge $-1 $761 -12.310520241013048 $649 -4.5945955472634159 $648 $805 forward 7 unknown #
point $-1 55.403302102725306 27.69640949014196 4.5945955472634159 #
coedge $-1 $652 $651 $752 $802 forward $643 $-1 #
point $-1 50.948511062896586 21.003811480937543 12.310520241013052 #
vertex $-1 $656 $806 #
straight-curve $-1 55.403302102725306 0 12.310520241013048 0 1 0 I I #
vertex $-1 $659 $807 #
point $-1 51.851443463763445 22.342331082778422 7.110528519110864 #
vertex $-1 $663 $808 #
point $-1 51.851443463763445 24.350110485539751 7.110528519110864 #
vertex $-1 $667 $809 #
point $-1 51.851443463763445 26.357889888301074 7.110528519110864 #
point $-1 55.403302102725306 27.69640949014196 -12.310520241013048 #
point $-1 55.403302102725306 -27.69640949014196 -12.310520241013048 #
straight-curve $-1 55.403302102725306 -27.69640949014196 0 0 0 -1 I I #
straight-curve $-1 55.403302102725306 27.69640949014196 0 0 0 -1 I I #
edge $-1 $704 -1.5 $693 1.5 $690 $810 forward 7 unknown #
straight-curve $-1 -65.802297268368164 -18.926751664438164 0 0 0 -1 I I #
straight-curve $-1 -60.602799685546735 -21.926751664438164 12.310520241013048 1 0 0 I I #
point $-1 -65.802297268368164 -21.926751664438164 12.310520241013048 #
point $-1 -65.802297268368164 -21.926751664438164 -12.310520241013048 #
straight-curve $-1 -65.802297268368164 -20.426751664438164 -12.310520241013048 0 1 0 I I #
point $-1 -65.802297268368164 -18.926751664438164 -12.310520241013048 #
point $-1 -65.802297268368164 -18.926751664438164 12.310520241013048 #
straight-curve $-1 55.403302102725306 -20.540802754275397 77.979615585780493 0 0 -1 I I #
point $-1 55.403302102725306 -20.540802754275397 12.310520241013048 #
straight-curve $-1 55.403302102725306 -8.5972518748365943 4.5945955472634097 0 1 0 I I #
point $-1 55.403302102725306 -20.540802754275397 4.5945955472634097 #
point $-1 51.168430764702443 -19.202283152434518 7.2935412315693364 #
point $-1 51.168430764702443 -17.194503749673189 7.2935412315693364 #
point $-1 51.168430764702443 -15.186724346911864 7.2935412315693364 #
straight-curve $-1 55.403302102725306 -6.6925980092044188 77.979615585780493 0 0 -1 I I #
point $-1 55.403302102725306 -6.6925980092044188 12.310520241013048 #
straight-curve $-1 55.403302102725306 -1.6731495023011043 4.5945955472634097 0 1 0 I I #
point $-1 55.403302102725306 -6.6925980092044188 4.5945955472634097 #
point $-1 51.168430764702443 -5.3540784073635379 7.2935412315693364 #
point $-1 51.168430764702443 -3.3462990046022085 7.2935412315693364 #
point $-1 51.168430764702443 -1.3385196018408863 7.2935412315693364 #
straight-curve $-1 55.403302102725306 7.1556067358665612 77.979615585780493 0 0 -1 I I #
point $-1 55.403302102725306 7.1556067358665612 12.310520241013048 #
straight-curve $-1 55.403302102725306 5.2509528702343857 4.5945955472634097 0 1 0 I I #
point $-1 55.403302102725306 7.1556067358665612 4.5945955472634097 #
point $-1 51.168430764702443 8.4941263377074421 7.2935412315693364 #
point $-1 51.168430764702443 10.501905740468771 7.2935412315693364 #
point $-1 51.168430764702443 12.509685143230094 7.2935412315693364 #
edge $-1 $761 -55.403302102725306 $755 -50.948511062896586 $752 $811 forward 7 unknown #
straight-curve $-1 50.948511062896586 12.175055242769876 12.310520241013052 0 -1 0 I I #
point $-1 50.948511062896586 27.69640949014196 12.310520241013052 #
straight-curve $-1 55.403302102725306 27.69640949014196 0 0 0 -1 I I #
point $-1 55.403302102725306 27.69640949014196 12.310520241013048 #
point $-1 51.168430764702443 22.342331082778422 7.2935412315693364 #
point $-1 51.168430764702443 24.350110485539751 7.2935412315693364 #
point $-1 51.168430764702443 26.357889888301074 7.2935412315693364 #
straight-curve $-1 -65.802297268368164 -20.426751664438164 12.310520241013048 0 -1 0 I I #
straight-curve $-1 0 27.69640949014196 12.310520241013048 -1 0 0 I I #
End-of-ACIS-data 