500 0 4 0           
7 Unknown 11 ACIS 5.0 NT 24 Thu Mar 25 18:46:48 1999 
-1 9.9999999999999995e-007 1e-010 
body $-1 $4 $-1 $5 #
body $-1 $6 $-1 $7 #
body $-1 $8 $-1 $9 #
body $-1 $10 $-1 $11 #
lump $-1 $-1 $12 $0 #
transform $-1 1 0 0 0 1 0 0 0 1 50.487380596331676 35.149799106721261 16.334299478073813 1 rotate no_reflect no_shear #
lump $-1 $-1 $13 $1 #
transform $-1 1 0 0 0 1 0 0 0 1 50.487380596331676 35.149799106721261 16.334299478073813 1 rotate no_reflect no_shear #
lump $-1 $-1 $14 $2 #
transform $-1 1 0 0 0 1 0 0 0 1 50.487380596331676 35.149799106721261 16.334299478073813 1 rotate no_reflect no_shear #
lump $-1 $-1 $15 $3 #
transform $-1 1 0 0 0 1 0 0 0 1 50.487380596331676 35.149799106721261 16.334299478073813 1 rotate no_reflect no_shear #
shell $-1 $-1 $-1 $16 $-1 $4 #
shell $-1 $-1 $-1 $17 $-1 $6 #
shell $-1 $-1 $-1 $18 $-1 $8 #
shell $-1 $-1 $-1 $19 $-1 $10 #
face $-1 $20 $21 $12 $-1 $22 forward single #
face $-1 $23 $24 $13 $-1 $25 reversed single #
face $-1 $26 $27 $14 $-1 $28 forward single #
face $-1 $29 $30 $15 $-1 $31 reversed single #
face $-1 $32 $33 $12 $-1 $34 reversed single #
loop $-1 $-1 $35 $16 #
plane-surface $-1 0 0 16.334299478073813 0 0 1 1 0 0 forward_v I I I I #
face $-1 $36 $37 $13 $-1 $38 reversed single #
loop $-1 $-1 $39 $17 #
plane-surface $-1 -59.3609176271382 -7.2072647775406011 0 0 1 0 0 0 1 forward_v I I I I #
face $-1 $40 $41 $14 $-1 $42 forward single #
loop $-1 $-1 $43 $18 #
plane-surface $-1 12.221606902256234 85.495094574267 113.86486929696294 1 0 0 0 -0.85716730853699208 -0.51503806187062418 forward_v I I I I #
face $-1 $44 $45 $15 $-1 $46 reversed single #
loop $-1 $47 $48 $19 #
cone-surface $-1 18.273248064830895 28.378818168765793 7.5586834829124641 0 -0.85716730853699208 -0.51503806187062418 3 0 0 1 I I 0 1 3 forward I I I I #
face $-1 $49 $50 $12 $-1 $51 reversed single #
loop $-1 $-1 $52 $20 #
plane-surface $-1 0 0 -16.334299478073813 0 0 1 1 0 0 forward_v I I I I #
coedge $-1 $53 $54 $55 $56 forward $21 $-1 #
face $-1 $57 $58 $13 $-1 $59 reversed single #
loop $-1 $-1 $60 $23 #
plane-surface $-1 -68.234454657944724 -4.8442324640571179 0 1 0 0 0 0 -1 forward_v I I I I #
coedge $-1 $61 $62 $63 $64 forward $24 $-1 #
face $-1 $65 $66 $14 $-1 $67 forward single #
loop $-1 $-1 $68 $26 #
plane-surface $-1 18.273248064830895 -1.0571697074137631 61.859023994444492 0 0.85716730853699208 0.51503806187062418 1 0 0 forward_v I I I I #
coedge $-1 $69 $70 $71 $72 reversed $27 $-1 #
face $-1 $73 $74 $15 $-1 $75 forward single #
loop $-1 $76 $77 $29 #
cone-surface $-1 18.273248064830895 24.748564069369678 5.3774068326840627 0 -0.85716730853699208 -0.51503806187062418 1.5 0 0 1 I I -0.70710678118654757 0.70710678118654757 1.5 forward I I I I #
loop $-1 $-1 $78 $19 #
coedge $-1 $48 $48 $79 $80 reversed $30 $-1 #
face $-1 $81 $82 $12 $-1 $83 reversed single #
loop $-1 $-1 $84 $32 #
plane-surface $-1 0 -35.149799106721261 0 0 1 0 0 0 1 forward_v I I I I #
coedge $-1 $85 $86 $87 $88 forward $33 $-1 #
coedge $-1 $89 $35 $90 $91 forward $21 $-1 #
coedge $-1 $35 $89 $92 $93 forward $21 $-1 #
coedge $-1 $94 $95 $35 $56 reversed $96 $-1 #
edge $-1 $97 -35.149799106721261 $98 35.149799106721261 $55 $99 forward 7 unknown #
face $-1 $100 $101 $13 $-1 $102 reversed single #
loop $-1 $-1 $103 $36 #
plane-surface $-1 -59.3609176271382 -2.4812001505736347 0 0 -1 0 0 0 -1 forward_v I I I I #
coedge $-1 $104 $105 $106 $107 forward $37 $-1 #
coedge $-1 $108 $39 $109 $110 reversed $24 $-1 #
coedge $-1 $39 $108 $111 $112 reversed $24 $-1 #
coedge $-1 $105 $104 $39 $64 reversed $37 $-1 #
edge $-1 $113 -16.334299478073813 $114 16.334299478073813 $63 $115 forward 7 unknown #
face $-1 $116 $117 $14 $-1 $118 forward single #
loop $-1 $-1 $119 $40 #
plane-surface $-1 24.324889227405556 85.495094574267 113.86486929696294 -1 0 0 0 0.85716730853699208 0.51503806187062418 forward_v I I I I #
coedge $-1 $120 $121 $122 $123 reversed $41 $-1 #
coedge $-1 $70 $43 $121 $124 forward $27 $-1 #
coedge $-1 $43 $69 $125 $126 reversed $27 $-1 #
coedge $-1 $127 $122 $43 $72 forward $117 $-1 #
edge $-1 $128 -16.450703783141915 $129 -7.5977481804122391 $71 $130 forward 7 unknown #
face $-1 $131 $132 $15 $-1 $133 forward single #
loop $-1 $-1 $134 $44 #
plane-surface $-1 12.221606902256234 85.495094574267 113.86486929696294 1 0 0 0 -0.85716730853699208 -0.51503806187062418 forward_v I I I I #
loop $-1 $-1 $135 $29 #
coedge $-1 $77 $77 $78 $136 forward $45 $-1 #
coedge $-1 $78 $78 $77 $136 reversed $47 $-1 #
coedge $-1 $79 $79 $48 $80 forward $132 $-1 #
edge $-1 $137 -6.0992758917022174e-016 $137 6.2831853071795996 $79 $138 forward 7 unknown #
face $-1 $139 $140 $12 $-1 $141 reversed single #
loop $-1 $-1 $142 $49 #
plane-surface $-1 -50.487380596331676 0 0 1 0 0 0 0 -1 forward_v I I I I #
coedge $-1 $143 $92 $144 $145 forward $50 $-1 #
coedge $-1 $146 $52 $143 $147 forward $33 $-1 #
coedge $-1 $52 $146 $148 $149 forward $33 $-1 #
coedge $-1 $95 $94 $52 $88 reversed $96 $-1 #
edge $-1 $150 -35.149799106721261 $151 35.149799106721261 $87 $152 forward 7 unknown #
coedge $-1 $54 $53 $153 $154 forward $21 $-1 #
coedge $-1 $155 $156 $53 $91 reversed $140 $-1 #
edge $-1 $98 -50.487380596331676 $157 50.487380596331676 $90 $158 forward 7 unknown #
coedge $-1 $84 $159 $54 $93 reversed $50 $-1 #
edge $-1 $160 -50.487380596331676 $97 50.487380596331676 $92 $161 forward 7 unknown #
coedge $-1 $87 $55 $159 $162 forward $96 $-1 #
coedge $-1 $55 $87 $155 $163 reversed $96 $-1 #
loop $-1 $-1 $94 $139 #
vertex $-1 $56 $164 #
vertex $-1 $56 $165 #
straight-curve $-1 50.487380596331676 0 16.334299478073813 0 1 0 I I #
face $-1 $166 $167 $13 $-1 $102 reversed single #
loop $-1 $-1 $168 $57 #
plane-surface $-1 -50.487380596331676 0 0 1 0 0 0 0 -1 forward_v I I I I #
coedge $-1 $169 $170 $168 $171 reversed $58 $-1 #
coedge $-1 $63 $60 $172 $173 reversed $37 $-1 #
coedge $-1 $60 $63 $174 $175 reversed $37 $-1 #
coedge $-1 $170 $169 $60 $107 reversed $58 $-1 #
edge $-1 $176 -16.334299478073813 $177 16.334299478073813 $106 $178 forward 7 unknown #
coedge $-1 $62 $61 $179 $180 reversed $24 $-1 #
coedge $-1 $172 $181 $61 $110 forward $182 $-1 #
edge $-1 $183 -8.8735370308065242 $114 8.8735370308065242 $61 $184 forward 7 unknown #
coedge $-1 $185 $174 $62 $112 forward $186 $-1 #
edge $-1 $113 -8.8735370308065242 $187 8.8735370308065242 $62 $188 forward 7 unknown #
vertex $-1 $175 $189 #
vertex $-1 $173 $190 #
straight-curve $-1 -68.234454657944724 -7.2072647775406011 0 0 0 -1 I I #
face $-1 $191 $192 $14 $-1 $193 reversed single #
loop $-1 $-1 $194 $65 #
plane-surface $-1 0 0 16.334299478073813 0 0 1 1 0 0 forward_v I I I I #
coedge $-1 $195 $196 $194 $197 reversed $66 $-1 #
coedge $-1 $198 $68 $196 $199 reversed $41 $-1 #
coedge $-1 $68 $198 $69 $124 reversed $41 $-1 #
coedge $-1 $71 $194 $68 $123 forward $117 $-1 #
edge $-1 $200 -15.188265194990109 $128 -3.0849828698407862 $122 $201 forward 7 unknown #
edge $-1 $128 53.110663534371149 $202 70.299598213442522 $69 $203 forward 7 unknown #
coedge $-1 $204 $205 $70 $126 forward $206 $-1 #
edge $-1 $129 40.598135170407659 $202 55.331928045885427 $125 $207 forward 7 unknown #
coedge $-1 $208 $71 $205 $209 forward $117 $-1 #
vertex $-1 $123 $210 #
vertex $-1 $209 $211 #
straight-curve $-1 12.221606902256234 42.7475472871335 16.334299478073817 0 1 0 I I #
face $-1 $212 $213 $15 $-1 $214 forward single #
loop $-1 $215 $79 $73 #
plane-surface $-1 18.273248064830895 -1.0571697074137631 61.859023994444492 0 0.85716730853699208 0.51503806187062418 1 0 0 forward_v I I I I #
coedge $-1 $216 $217 $218 $219 reversed $74 $-1 #
coedge $-1 $135 $135 $-1 $220 forward $76 $-1 #
edge $-1 $221 0 $221 6.2831853071796004 $77 $222 forward 7 unknown #
vertex $-1 $80 $223 #
ellipse-curve $-1 18.273248064830895 30.723321305356418 8.9674030403349274 0 -0.85716730853699208 -0.51503806187062418 3 0 0 1 I I #
face $-1 $-1 $96 $12 $-1 $224 reversed single #
loop $-1 $-1 $155 $81 #
plane-surface $-1 0 35.149799106721261 0 0 -1 0 0 0 -1 forward_v I I I I #
coedge $-1 $225 $153 $156 $226 forward $82 $-1 #
coedge $-1 $159 $84 $85 $147 reversed $50 $-1 #
coedge $-1 $153 $225 $84 $145 reversed $82 $-1 #
edge $-1 $160 -16.334299478073813 $227 16.334299478073813 $144 $228 forward 7 unknown #
coedge $-1 $86 $85 $225 $229 forward $33 $-1 #
edge $-1 $151 -50.487380596331676 $227 50.487380596331676 $143 $230 forward 7 unknown #
coedge $-1 $156 $155 $86 $149 reversed $140 $-1 #
edge $-1 $231 -50.487380596331676 $150 50.487380596331676 $148 $232 forward 7 unknown #
vertex $-1 $88 $233 #
vertex $-1 $162 $234 #
straight-curve $-1 50.487380596331676 0 -16.334299478073813 0 -1 0 I I #
coedge $-1 $142 $144 $89 $154 reversed $82 $-1 #
edge $-1 $157 -35.149799106721261 $160 35.149799106721261 $153 $235 forward 7 unknown #
coedge $-1 $148 $90 $95 $163 forward $140 $-1 #
coedge $-1 $90 $148 $142 $226 reversed $140 $-1 #
vertex $-1 $91 $236 #
straight-curve $-1 0 35.149799106721261 16.334299478073813 -1 0 0 I I #
coedge $-1 $92 $143 $94 $162 reversed $50 $-1 #
vertex $-1 $154 $237 #
straight-curve $-1 0 -35.149799106721261 16.334299478073813 1 0 0 I I #
edge $-1 $97 -16.334299478073813 $151 16.334299478073813 $94 $238 forward 7 unknown #
edge $-1 $98 -16.334299478073813 $150 16.334299478073813 $95 $239 forward 7 unknown #
point $-1 50.487380596331676 -35.149799106721261 16.334299478073813 #
point $-1 50.487380596331676 35.149799106721261 16.334299478073813 #
face $-1 $240 $186 $13 $-1 $241 forward single #
loop $-1 $-1 $179 $100 #
coedge $-1 $242 $243 $103 $171 forward $101 $-1 #
coedge $-1 $106 $103 $244 $245 reversed $58 $-1 #
coedge $-1 $103 $106 $246 $247 reversed $58 $-1 #
edge $-1 $248 -16.334299478073813 $249 16.334299478073813 $168 $250 forward 7 unknown #
coedge $-1 $244 $109 $104 $173 forward $182 $-1 #
edge $-1 $114 -2.3630323134834832 $177 2.3630323134834832 $104 $251 forward 7 unknown #
coedge $-1 $111 $246 $105 $175 forward $186 $-1 #
edge $-1 $176 -2.3630323134834832 $113 2.3630323134834832 $105 $252 forward 7 unknown #
vertex $-1 $247 $253 #
vertex $-1 $245 $254 #
straight-curve $-1 -68.234454657944724 -2.4812001505736347 0 0 0 -1 I I #
coedge $-1 $255 $256 $108 $180 forward $167 $-1 #
edge $-1 $187 -16.334299478073813 $183 16.334299478073813 $179 $257 forward 7 unknown #
coedge $-1 $109 $258 $255 $259 forward $182 $-1 #
loop $-1 $-1 $260 $240 #
vertex $-1 $110 $261 #
straight-curve $-1 -59.3609176271382 -7.2072647775406011 -16.334299478073813 -1 0 0 I I #
coedge $-1 $262 $111 $256 $263 forward $186 $-1 #
loop $-1 $-1 $264 $166 #
vertex $-1 $263 $265 #
straight-curve $-1 -59.3609176271382 -7.2072647775406011 16.334299478073813 1 0 0 I I #
point $-1 -68.234454657944724 -7.2072647775406011 16.334299478073813 #
point $-1 -68.234454657944724 -7.2072647775406011 -16.334299478073813 #
face $-1 $266 $267 $14 $-1 $268 reversed single #
loop $-1 $-1 $269 $116 #
plane-surface $-1 -59.3609176271382 -7.2072647775406011 0 0 1 0 0 0 1 forward_v I I I I #
coedge $-1 $122 $270 $119 $197 forward $117 $-1 #
coedge $-1 $196 $119 $271 $272 reversed $66 $-1 #
coedge $-1 $119 $195 $120 $199 forward $66 $-1 #
edge $-1 $273 7.5977481804122391 $200 16.450703783141915 $194 $274 forward 7 unknown #
coedge $-1 $121 $120 $204 $275 reversed $41 $-1 #
edge $-1 $276 -70.299598213442522 $200 -53.110663534371149 $196 $277 forward 7 unknown #
vertex $-1 $123 $278 #
straight-curve $-1 9.1366240324154475 26.296843503991582 16.334299478073813 -1 0 0 I I #
vertex $-1 $275 $279 #
straight-curve $-1 12.221606902256234 -1.0571697074137631 61.859023994444492 0 0.51503806187062418 -0.85716730853699208 I I #
coedge $-1 $271 $125 $198 $275 forward $206 $-1 #
coedge $-1 $125 $280 $127 $209 reversed $206 $-1 #
loop $-1 $-1 $271 $281 #
straight-curve $-1 12.221606902256234 35.149799106721261 56.932434648481468 0 0 -1 I I #
coedge $-1 $282 $127 $283 $284 forward $117 $-1 #
edge $-1 $129 -12.221606902256234 $285 50.487380596331676 $205 $286 forward 7 unknown #
point $-1 12.221606902256234 26.296843503991585 16.33429947807381 #
point $-1 12.221606902256234 35.149799106721261 16.334299478073813 #
face $-1 $287 $288 $15 $-1 $289 forward single #
loop $-1 $-1 $290 $131 #
plane-surface $-1 24.324889227405556 85.495094574267 113.86486929696294 -1 0 0 0 0.85716730853699208 0.51503806187062418 forward_v I I I I #
loop $-1 $-1 $291 $73 #
coedge $-1 $217 $134 $292 $293 forward $74 $-1 #
coedge $-1 $134 $216 $294 $295 reversed $74 $-1 #
coedge $-1 $296 $297 $134 $219 forward $288 $-1 #
edge $-1 $298 -16.450703783141915 $299 -7.5977481804122391 $218 $300 forward 7 unknown #
edge $-1 $301 1 $301 0 $135 $-1 forward 7 unknown #
vertex $-1 $136 $302 #
ellipse-curve $-1 18.273248064830895 26.034315032175165 6.1499639254899989 0 0.85716730853699208 0.51503806187062418 3 0 0 1 I I #
point $-1 21.273248064830895 30.723321305356421 8.9674030403349274 #
plane-surface $-1 50.487380596331676 0 0 -1 0 0 0 0 1 forward_v I I I I #
coedge $-1 $144 $142 $146 $229 reversed $82 $-1 #
edge $-1 $157 -16.334299478073813 $231 16.334299478073813 $156 $303 forward 7 unknown #
vertex $-1 $229 $304 #
straight-curve $-1 -50.487380596331676 -35.149799106721261 0 0 0 -1 I I #
edge $-1 $227 -35.149799106721261 $231 35.149799106721261 $225 $305 forward 7 unknown #
straight-curve $-1 0 -35.149799106721261 -16.334299478073813 -1 0 0 I I #
vertex $-1 $149 $306 #
straight-curve $-1 0 35.149799106721261 -16.334299478073813 1 0 0 I I #
point $-1 50.487380596331676 35.149799106721261 -16.334299478073813 #
point $-1 50.487380596331676 -35.149799106721261 -16.334299478073813 #
straight-curve $-1 -50.487380596331676 0 16.334299478073813 0 -1 0 I I #
point $-1 -50.487380596331676 35.149799106721261 16.334299478073813 #
point $-1 -50.487380596331676 -35.149799106721261 16.334299478073813 #
straight-curve $-1 50.487380596331676 -35.149799106721261 0 0 0 -1 I I #
straight-curve $-1 50.487380596331676 35.149799106721261 0 0 0 -1 I I #
face $-1 $307 $182 $13 $-1 $308 reversed single #
plane-surface $-1 0 0 16.334299478073813 0 0 1 1 0 0 forward_v I I I I #
coedge $-1 $309 $168 $310 $311 reversed $101 $-1 #
coedge $-1 $168 $309 $312 $313 reversed $101 $-1 #
coedge $-1 $312 $172 $169 $245 forward $182 $-1 #
edge $-1 $177 -8.8735370308065242 $248 8.8735370308065242 $169 $314 forward 7 unknown #
coedge $-1 $174 $310 $170 $247 forward $186 $-1 #
edge $-1 $249 -8.8735370308065242 $176 8.8735370308065242 $170 $315 forward 7 unknown #
vertex $-1 $313 $316 #
vertex $-1 $247 $317 #
straight-curve $-1 -50.487380596331676 -2.4812001505736347 0 0 0 1 I I #
straight-curve $-1 -68.234454657944724 -4.8442324640571179 -16.334299478073813 0 1 0 I I #
straight-curve $-1 -68.234454657944724 -4.8442324640571179 16.334299478073813 0 -1 0 I I #
point $-1 -68.234454657944724 -2.4812001505736347 16.334299478073813 #
point $-1 -68.234454657944724 -2.4812001505736347 -16.334299478073813 #
coedge $-1 $318 $179 $181 $259 reversed $167 $-1 #
coedge $-1 $179 $318 $185 $263 reversed $167 $-1 #
straight-curve $-1 -50.487380596331676 -7.2072647775406011 0 0 0 -1 I I #
coedge $-1 $181 $260 $319 $320 forward $182 $-1 #
edge $-1 $321 -35.149799106721261 $183 -7.2072647775406011 $255 $322 forward 7 unknown #
coedge $-1 $258 $323 $324 $325 forward $182 $-1 #
point $-1 -50.487380596331676 -7.2072647775406011 -16.334299478073813 #
coedge $-1 $264 $185 $326 $327 forward $186 $-1 #
edge $-1 $187 7.2072647775406011 $328 35.149799106721261 $256 $329 forward 7 unknown #
coedge $-1 $330 $262 $331 $332 forward $186 $-1 #
point $-1 -50.487380596331676 -7.2072647775406011 16.334299478073813 #
face $-1 $333 $334 $14 $-1 $335 reversed single #
loop $-1 $-1 $336 $191 #
plane-surface $-1 -68.234454657944724 -4.8442324640571179 0 1 0 0 0 0 -1 forward_v I I I I #
coedge $-1 $337 $338 $339 $340 forward $192 $-1 #
coedge $-1 $194 $341 $342 $343 forward $117 $-1 #
coedge $-1 $342 $204 $195 $272 forward $206 $-1 #
edge $-1 $276 -55.331928045885427 $273 -40.598135170407659 $271 $344 forward 7 unknown #
vertex $-1 $272 $345 #
straight-curve $-1 24.324889227405556 42.7475472871335 16.334299478073817 0 -1 0 I I #
edge $-1 $202 3.0849828698407862 $276 15.188265194990109 $204 $346 forward 7 unknown #
vertex $-1 $275 $347 #
straight-curve $-1 24.324889227405556 -1.0571697074137631 61.859023994444492 0 -0.51503806187062418 0.85716730853699208 I I #
point $-1 24.324889227405556 26.296843503991585 16.33429947807381 #
point $-1 12.221606902256234 35.149799106721261 1.6005066025960417 #
coedge $-1 $205 $348 $349 $350 reversed $206 $-1 #
face $-1 $351 $206 $14 $-1 $352 reversed single #
coedge $-1 $353 $208 $354 $355 forward $117 $-1 #
coedge $-1 $349 $356 $208 $284 reversed $357 $-1 #
edge $-1 $285 -35.149799106721261 $358 2.4812001505736347 $283 $359 forward 7 unknown #
vertex $-1 $209 $360 #
straight-curve $-1 0 35.149799106721261 16.334299478073813 -1 0 0 I I #
face $-1 $361 $362 $15 $-1 $363 reversed single #
loop $-1 $-1 $364 $212 #
plane-surface $-1 0 0 16.334299478073813 0 0 1 1 0 0 forward_v I I I I #
coedge $-1 $365 $366 $364 $367 reversed $213 $-1 #
coedge $-1 $368 $292 $297 $369 reversed $215 $-1 #
coedge $-1 $291 $370 $216 $293 reversed $215 $-1 #
edge $-1 $298 53.110663534371149 $371 70.299598213442522 $216 $372 forward 7 unknown #
coedge $-1 $373 $374 $217 $295 forward $375 $-1 #
edge $-1 $299 40.598135170407659 $371 55.331928045885427 $294 $376 forward 7 unknown #
coedge $-1 $377 $218 $374 $378 forward $288 $-1 #
coedge $-1 $218 $364 $291 $369 forward $288 $-1 #
vertex $-1 $369 $379 #
vertex $-1 $378 $380 #
straight-curve $-1 12.221606902256234 42.7475472871335 16.334299478073817 0 1 0 I I #
vertex $-1 $220 $381 #
point $-1 21.273248064830895 26.034315032175165 6.1499639254899989 #
straight-curve $-1 -50.487380596331676 35.149799106721261 0 0 0 -1 I I #
point $-1 -50.487380596331676 -35.149799106721261 -16.334299478073813 #
straight-curve $-1 -50.487380596331676 0 -16.334299478073813 0 1 0 I I #
point $-1 -50.487380596331676 35.149799106721261 -16.334299478073813 #
face $-1 $382 $383 $13 $-1 $384 reversed single #
plane-surface $-1 0 0 -16.334299478073813 0 0 1 1 0 0 forward_v I I I I #
coedge $-1 $243 $242 $385 $386 forward $101 $-1 #
coedge $-1 $246 $330 $242 $311 forward $186 $-1 #
edge $-1 $387 -35.149799106721261 $249 2.4812001505736347 $242 $329 forward 7 unknown #
coedge $-1 $323 $244 $243 $313 forward $182 $-1 #
edge $-1 $248 -2.4812001505736347 $388 35.149799106721261 $243 $322 forward 7 unknown #
straight-curve $-1 -59.3609176271382 -2.4812001505736347 -16.334299478073813 1 0 0 I I #
straight-curve $-1 -59.3609176271382 -2.4812001505736347 16.334299478073813 -1 0 0 I I #
point $-1 -50.487380596331676 -2.4812001505736347 -16.334299478073813 #
point $-1 -50.487380596331676 -2.4812001505736347 16.334299478073813 #
coedge $-1 $256 $255 $389 $390 reversed $167 $-1 #
coedge $-1 $391 $389 $258 $320 reversed $383 $-1 #
edge $-1 $392 -50.487380596331676 $321 50.487380596331676 $319 $393 forward 7 unknown #
vertex $-1 $259 $394 #
straight-curve $-1 -50.487380596331676 0 -16.334299478073813 0 1 0 I I #
coedge $-1 $260 $312 $395 $396 forward $182 $-1 #
coedge $-1 $397 $398 $260 $325 reversed $399 $-1 #
edge $-1 $400 -35.149799106721261 $392 35.149799106721261 $324 $401 forward 7 unknown #
coedge $-1 $389 $391 $262 $327 reversed $383 $-1 #
edge $-1 $328 -50.487380596331676 $402 50.487380596331676 $326 $403 forward 7 unknown #
vertex $-1 $263 $404 #
straight-curve $-1 -50.487380596331676 0 16.334299478073813 0 -1 0 I I #
coedge $-1 $310 $264 $405 $406 forward $186 $-1 #
coedge $-1 $398 $397 $264 $332 reversed $399 $-1 #
edge $-1 $402 -35.149799106721261 $407 35.149799106721261 $331 $408 forward 7 unknown #
face $-1 $409 $357 $14 $-1 $410 reversed single #
loop $-1 $-1 $411 $266 #
plane-surface $-1 -59.3609176271382 -2.4812001505736347 0 0 -1 0 0 0 -1 forward_v I I I I #
coedge $-1 $412 $413 $414 $415 forward $267 $-1 #
coedge $-1 $416 $269 $417 $418 reversed $192 $-1 #
coedge $-1 $269 $416 $419 $420 reversed $192 $-1 #
coedge $-1 $413 $412 $269 $340 reversed $267 $-1 #
edge $-1 $421 -16.334299478073813 $422 16.334299478073813 $339 $423 forward 7 unknown #
coedge $-1 $270 $424 $425 $426 forward $117 $-1 #
coedge $-1 $427 $271 $270 $343 reversed $206 $-1 #
edge $-1 $428 -50.487380596331676 $273 -24.324889227405556 $342 $286 forward 7 unknown #
straight-curve $-1 24.324889227405556 35.149799106721261 56.932434648481468 0 0 1 I I #
point $-1 24.324889227405556 35.149799106721261 16.334299478073813 #
straight-curve $-1 9.1366240324154475 35.149799106721261 1.6005066025960346 1 0 0 I I #
point $-1 24.324889227405556 35.149799106721261 1.6005066025960417 #
coedge $-1 $280 $427 $429 $430 reversed $206 $-1 #
coedge $-1 $431 $283 $280 $350 forward $357 $-1 #
edge $-1 $285 -16.334299478073813 $432 16.334299478073813 $280 $433 forward 7 unknown #
face $-1 $-1 $434 $14 $-1 $435 reversed single #
plane-surface $-1 0 35.149799106721261 0 0 -1 0 0 0 -1 forward_v I I I I #
coedge $-1 $419 $282 $413 $436 forward $117 $-1 #
coedge $-1 $411 $414 $282 $355 reversed $334 $-1 #
edge $-1 $358 -8.8735370308065242 $437 8.8735370308065242 $354 $438 forward 7 unknown #
coedge $-1 $283 $431 $411 $439 forward $357 $-1 #
loop $-1 $-1 $356 $333 #
vertex $-1 $355 $440 #
straight-curve $-1 -50.487380596331676 0 16.334299478073813 0 -1 0 I I #
point $-1 -50.487380596331676 35.149799106721261 16.334299478073813 #
face $-1 $441 $442 $15 $-1 $443 reversed single #
loop $-1 $-1 $444 $287 #
plane-surface $-1 -59.3609176271382 -7.2072647775406011 0 0 1 0 0 0 1 forward_v I I I I #
coedge $-1 $297 $445 $290 $367 forward $288 $-1 #
coedge $-1 $366 $290 $446 $447 reversed $213 $-1 #
coedge $-1 $290 $365 $368 $448 forward $213 $-1 #
edge $-1 $449 7.5977481804122391 $450 16.450703783141915 $364 $451 forward 7 unknown #
coedge $-1 $370 $291 $366 $448 reversed $215 $-1 #
edge $-1 $450 -15.188265194990109 $298 -3.0849828698407862 $297 $452 forward 7 unknown #
coedge $-1 $292 $368 $373 $453 reversed $215 $-1 #
vertex $-1 $453 $454 #
straight-curve $-1 12.221606902256234 -1.0571697074137631 61.859023994444492 0 0.51503806187062418 -0.85716730853699208 I I #
coedge $-1 $446 $294 $370 $453 forward $375 $-1 #
coedge $-1 $294 $455 $296 $378 reversed $375 $-1 #
loop $-1 $-1 $446 $456 #
straight-curve $-1 12.221606902256234 35.149799106721261 56.932434648481468 0 0 -1 I I #
coedge $-1 $457 $296 $458 $459 forward $288 $-1 #
edge $-1 $299 -12.221606902256234 $460 50.487380596331676 $374 $461 forward 7 unknown #
point $-1 12.221606902256234 26.296843503991585 16.33429947807381 #
point $-1 12.221606902256234 35.149799106721261 16.334299478073813 #
point $-1 18.273248064830895 23.462813106564191 4.6048497398781265 #
face $-1 $462 $463 $13 $-1 $464 reversed single #
loop $-1 $-1 $389 $307 #
plane-surface $-1 0 -35.149799106721261 0 0 1 0 0 0 1 forward_v I I I I #
coedge $-1 $405 $395 $309 $386 reversed $463 $-1 #
edge $-1 $387 -16.334299478073813 $388 16.334299478073813 $385 $465 forward 7 unknown #
vertex $-1 $406 $466 #
vertex $-1 $396 $467 #
coedge $-1 $319 $326 $318 $390 forward $383 $-1 #
edge $-1 $328 -16.334299478073813 $321 16.334299478073813 $318 $468 forward 7 unknown #
coedge $-1 $326 $319 $398 $469 reversed $383 $-1 #
vertex $-1 $469 $470 #
straight-curve $-1 0 -35.149799106721261 -16.334299478073813 -1 0 0 I I #
point $-1 -50.487380596331676 -35.149799106721261 -16.334299478073813 #
coedge $-1 $385 $471 $323 $396 reversed $463 $-1 #
edge $-1 $388 -50.487380596331676 $400 50.487380596331676 $395 $472 forward 7 unknown #
coedge $-1 $331 $324 $471 $473 reversed $399 $-1 #
coedge $-1 $324 $331 $391 $469 forward $399 $-1 #
loop $-1 $-1 $398 $462 #
vertex $-1 $325 $474 #
straight-curve $-1 50.487380596331676 0 -16.334299478073813 0 -1 0 I I #
vertex $-1 $332 $475 #
straight-curve $-1 0 -35.149799106721261 16.334299478073813 1 0 0 I I #
point $-1 -50.487380596331676 -35.149799106721261 16.334299478073813 #
coedge $-1 $471 $385 $330 $406 reversed $463 $-1 #
edge $-1 $407 -50.487380596331676 $387 50.487380596331676 $405 $476 forward 7 unknown #
vertex $-1 $332 $477 #
straight-curve $-1 50.487380596331676 0 16.334299478073813 0 1 0 I I #
face $-1 $478 $479 $14 $-1 $410 reversed single #
plane-surface $-1 -50.487380596331676 0 0 1 0 0 0 0 -1 forward_v I I I I #
coedge $-1 $480 $354 $356 $439 reversed $334 $-1 #
coedge $-1 $339 $336 $481 $482 reversed $267 $-1 #
coedge $-1 $336 $339 $353 $436 reversed $267 $-1 #
coedge $-1 $354 $480 $336 $415 reversed $334 $-1 #
edge $-1 $437 -16.334299478073813 $483 16.334299478073813 $414 $484 forward 7 unknown #
coedge $-1 $338 $337 $485 $486 reversed $192 $-1 #
coedge $-1 $481 $487 $337 $418 forward $488 $-1 #
edge $-1 $489 -8.8735370308065242 $422 8.8735370308065242 $337 $490 forward 7 unknown #
coedge $-1 $491 $353 $338 $420 forward $117 $-1 #
edge $-1 $421 -8.8735370308065242 $492 8.8735370308065242 $338 $493 forward 7 unknown #
vertex $-1 $436 $494 #
vertex $-1 $482 $495 #
straight-curve $-1 -68.234454657944724 -7.2072647775406011 0 0 0 -1 I I #
coedge $-1 $341 $491 $496 $497 forward $117 $-1 #
coedge $-1 $498 $499 $341 $426 reversed $434 $-1 #
edge $-1 $500 -35.149799106721261 $428 35.149799106721261 $425 $501 forward 7 unknown #
coedge $-1 $348 $342 $499 $502 forward $206 $-1 #
vertex $-1 $426 $503 #
coedge $-1 $504 $505 $348 $430 forward $488 $-1 #
edge $-1 $432 -50.487380596331676 $506 50.487380596331676 $348 $507 forward 7 unknown #
coedge $-1 $356 $349 $505 $508 reversed $357 $-1 #
vertex $-1 $430 $509 #
straight-curve $-1 -50.487380596331676 35.149799106721261 0 0 0 -1 I I #
loop $-1 $-1 $498 $351 #
plane-surface $-1 50.487380596331676 0 0 -1 0 0 0 0 1 forward_v I I I I #
edge $-1 $437 -2.3630323134834832 $421 2.3630323134834832 $413 $510 forward 7 unknown #
vertex $-1 $355 $511 #
straight-curve $-1 -59.3609176271382 -2.4812001505736347 16.334299478073813 -1 0 0 I I #
edge $-1 $512 -16.334299478073813 $358 16.334299478073813 $356 $513 forward 7 unknown #
point $-1 -50.487380596331676 -2.4812001505736347 16.334299478073813 #
face $-1 $514 $515 $15 $-1 $516 reversed single #
loop $-1 $-1 $517 $361 #
plane-surface $-1 -68.234454657944724 -4.8442324640571179 0 1 0 0 0 0 -1 forward_v I I I I #
coedge $-1 $518 $519 $520 $521 forward $362 $-1 #
coedge $-1 $364 $522 $523 $524 forward $288 $-1 #
coedge $-1 $523 $373 $365 $447 forward $375 $-1 #
edge $-1 $525 -55.331928045885427 $449 -40.598135170407659 $446 $526 forward 7 unknown #
edge $-1 $525 -70.299598213442522 $450 -53.110663534371149 $366 $527 forward 7 unknown #
vertex $-1 $447 $528 #
vertex $-1 $369 $529 #
straight-curve $-1 24.324889227405556 42.7475472871335 16.334299478073817 0 -1 0 I I #
straight-curve $-1 9.1366240324154475 26.296843503991582 16.334299478073813 -1 0 0 I I #
edge $-1 $371 3.0849828698407862 $525 15.188265194990109 $373 $530 forward 7 unknown #
point $-1 12.221606902256234 35.149799106721261 1.6005066025960417 #
coedge $-1 $374 $531 $532 $533 reversed $375 $-1 #
face $-1 $534 $375 $15 $-1 $535 reversed single #
coedge $-1 $536 $377 $537 $538 forward $288 $-1 #
coedge $-1 $532 $539 $377 $459 reversed $540 $-1 #
edge $-1 $460 -35.149799106721261 $541 2.4812001505736347 $458 $542 forward 7 unknown #
vertex $-1 $378 $543 #
straight-curve $-1 0 35.149799106721261 16.334299478073813 -1 0 0 I I #
face $-1 $-1 $399 $13 $-1 $544 reversed single #
loop $-1 $-1 $471 $382 #
plane-surface $-1 0 35.149799106721261 0 0 -1 0 0 0 -1 forward_v I I I I #
straight-curve $-1 -50.487380596331676 35.149799106721261 0 0 0 -1 I I #
point $-1 -50.487380596331676 35.149799106721261 16.334299478073813 #
point $-1 -50.487380596331676 35.149799106721261 -16.334299478073813 #
straight-curve $-1 -50.487380596331676 -35.149799106721261 0 0 0 -1 I I #
edge $-1 $402 -16.334299478073813 $392 16.334299478073813 $398 $545 forward 7 unknown #
point $-1 50.487380596331676 -35.149799106721261 -16.334299478073813 #
coedge $-1 $395 $405 $397 $473 forward $463 $-1 #
straight-curve $-1 0 35.149799106721261 -16.334299478073813 1 0 0 I I #
edge $-1 $407 -16.334299478073813 $400 16.334299478073813 $397 $546 forward 7 unknown #
point $-1 50.487380596331676 35.149799106721261 -16.334299478073813 #
point $-1 50.487380596331676 -35.149799106721261 16.334299478073813 #
straight-curve $-1 0 35.149799106721261 16.334299478073813 -1 0 0 I I #
point $-1 50.487380596331676 35.149799106721261 16.334299478073813 #
face $-1 $547 $488 $14 $-1 $548 reversed single #
loop $-1 $-1 $485 $409 #
coedge $-1 $414 $411 $549 $550 reversed $334 $-1 #
coedge $-1 $549 $417 $412 $482 forward $488 $-1 #
edge $-1 $422 -2.3630323134834832 $483 2.3630323134834832 $412 $551 forward 7 unknown #
vertex $-1 $550 $552 #
straight-curve $-1 -68.234454657944724 -2.4812001505736347 0 0 0 -1 I I #
coedge $-1 $553 $554 $416 $486 forward $479 $-1 #
edge $-1 $492 -16.334299478073813 $489 16.334299478073813 $485 $555 forward 7 unknown #
coedge $-1 $417 $556 $553 $557 forward $488 $-1 #
loop $-1 $-1 $504 $478 #
vertex $-1 $418 $558 #
straight-curve $-1 -59.3609176271382 -7.2072647775406011 -16.334299478073813 -1 0 0 I I #
coedge $-1 $424 $419 $554 $559 forward $117 $-1 #
vertex $-1 $559 $560 #
straight-curve $-1 -59.3609176271382 -7.2072647775406011 16.334299478073813 1 0 0 I I #
point $-1 -68.234454657944724 -7.2072647775406011 16.334299478073813 #
point $-1 -68.234454657944724 -7.2072647775406011 -16.334299478073813 #
coedge $-1 $561 $562 $424 $497 reversed $563 $-1 #
edge $-1 $564 -50.487380596331676 $500 50.487380596331676 $496 $565 forward 7 unknown #
coedge $-1 $566 $425 $562 $567 forward $434 $-1 #
coedge $-1 $425 $566 $427 $502 reversed $434 $-1 #
vertex $-1 $426 $568 #
straight-curve $-1 50.487380596331676 0 16.334299478073813 0 1 0 I I #
edge $-1 $428 -16.334299478073813 $506 16.334299478073813 $499 $569 forward 7 unknown #
point $-1 50.487380596331676 35.149799106721261 16.334299478073813 #
coedge $-1 $556 $429 $566 $570 forward $488 $-1 #
coedge $-1 $429 $549 $431 $508 forward $488 $-1 #
vertex $-1 $570 $571 #
straight-curve $-1 0 35.149799106721261 -16.334299478073813 1 0 0 I I #
edge $-1 $512 -2.4812001505736347 $432 35.149799106721261 $431 $572 forward 7 unknown #
point $-1 -50.487380596331676 35.149799106721261 -16.334299478073813 #
straight-curve $-1 -68.234454657944724 -4.8442324640571179 16.334299478073813 0 -1 0 I I #
point $-1 -68.234454657944724 -2.4812001505736347 16.334299478073813 #
vertex $-1 $508 $573 #
straight-curve $-1 -50.487380596331676 -2.4812001505736347 0 0 0 1 I I #
face $-1 $574 $540 $15 $-1 $575 reversed single #
loop $-1 $-1 $576 $441 #
plane-surface $-1 -59.3609176271382 -2.4812001505736347 0 0 -1 0 0 0 -1 forward_v I I I I #
coedge $-1 $577 $578 $579 $580 forward $442 $-1 #
coedge $-1 $581 $444 $582 $583 reversed $362 $-1 #
coedge $-1 $444 $581 $584 $585 reversed $362 $-1 #
coedge $-1 $578 $577 $444 $521 reversed $442 $-1 #
edge $-1 $586 -16.334299478073813 $587 16.334299478073813 $520 $588 forward 7 unknown #
coedge $-1 $445 $589 $590 $591 forward $288 $-1 #
coedge $-1 $592 $446 $445 $524 reversed $375 $-1 #
edge $-1 $593 -50.487380596331676 $449 -24.324889227405556 $523 $461 forward 7 unknown #
vertex $-1 $453 $594 #
straight-curve $-1 24.324889227405556 35.149799106721261 56.932434648481468 0 0 1 I I #
straight-curve $-1 24.324889227405556 -1.0571697074137631 61.859023994444492 0 -0.51503806187062418 0.85716730853699208 I I #
point $-1 24.324889227405556 35.149799106721261 16.334299478073813 #
point $-1 24.324889227405556 26.296843503991585 16.33429947807381 #
straight-curve $-1 9.1366240324154475 35.149799106721261 1.6005066025960346 1 0 0 I I #
coedge $-1 $455 $592 $595 $596 reversed $375 $-1 #
coedge $-1 $597 $458 $455 $533 forward $540 $-1 #
edge $-1 $460 -16.334299478073813 $598 16.334299478073813 $455 $599 forward 7 unknown #
face $-1 $-1 $600 $15 $-1 $601 reversed single #
plane-surface $-1 0 35.149799106721261 0 0 -1 0 0 0 -1 forward_v I I I I #
coedge $-1 $584 $457 $578 $602 forward $288 $-1 #
coedge $-1 $576 $579 $457 $538 reversed $515 $-1 #
edge $-1 $541 -8.8735370308065242 $603 8.8735370308065242 $537 $604 forward 7 unknown #
coedge $-1 $458 $597 $576 $605 forward $540 $-1 #
loop $-1 $-1 $539 $514 #
vertex $-1 $538 $606 #
straight-curve $-1 -50.487380596331676 0 16.334299478073813 0 -1 0 I I #
point $-1 -50.487380596331676 35.149799106721261 16.334299478073813 #
plane-surface $-1 50.487380596331676 0 0 -1 0 0 0 0 1 forward_v I I I I #
straight-curve $-1 50.487380596331676 -35.149799106721261 0 0 0 -1 I I #
straight-curve $-1 50.487380596331676 35.149799106721261 0 0 0 -1 I I #
face $-1 $281 $563 $14 $-1 $607 reversed single #
plane-surface $-1 0 0 -16.334299478073813 0 0 1 1 0 0 forward_v I I I I #
coedge $-1 $505 $481 $480 $550 forward $488 $-1 #
edge $-1 $483 -8.8735370308065242 $512 8.8735370308065242 $480 $608 forward 7 unknown #
straight-curve $-1 -68.234454657944724 -4.8442324640571179 -16.334299478073813 0 1 0 I I #
point $-1 -68.234454657944724 -2.4812001505736347 -16.334299478073813 #
coedge $-1 $609 $485 $487 $557 reversed $479 $-1 #
coedge $-1 $485 $609 $491 $559 reversed $479 $-1 #
straight-curve $-1 -50.487380596331676 -7.2072647775406011 0 0 0 -1 I I #
coedge $-1 $487 $504 $610 $611 forward $488 $-1 #
edge $-1 $612 -35.149799106721261 $489 -7.2072647775406011 $553 $572 forward 7 unknown #
point $-1 -50.487380596331676 -7.2072647775406011 -16.334299478073813 #
edge $-1 $492 7.2072647775406011 $564 35.149799106721261 $554 $359 forward 7 unknown #
point $-1 -50.487380596331676 -7.2072647775406011 16.334299478073813 #
coedge $-1 $610 $496 $609 $613 forward $563 $-1 #
coedge $-1 $496 $610 $498 $567 reversed $563 $-1 #
loop $-1 $-1 $561 $547 #
vertex $-1 $559 $614 #
straight-curve $-1 0 -35.149799106721261 16.334299478073813 1 0 0 I I #
coedge $-1 $499 $498 $504 $570 reversed $434 $-1 #
edge $-1 $500 -16.334299478073813 $615 16.334299478073813 $498 $616 forward 7 unknown #
point $-1 50.487380596331676 -35.149799106721261 16.334299478073813 #
straight-curve $-1 50.487380596331676 35.149799106721261 0 0 0 -1 I I #
edge $-1 $506 -35.149799106721261 $615 35.149799106721261 $566 $617 forward 7 unknown #
point $-1 50.487380596331676 35.149799106721261 -16.334299478073813 #
straight-curve $-1 -50.487380596331676 0 -16.334299478073813 0 1 0 I I #
point $-1 -50.487380596331676 -2.4812001505736347 -16.334299478073813 #
face $-1 $618 $619 $15 $-1 $575 reversed single #
plane-surface $-1 -50.487380596331676 0 0 1 0 0 0 0 -1 forward_v I I I I #
coedge $-1 $620 $537 $539 $605 reversed $515 $-1 #
coedge $-1 $520 $517 $621 $622 reversed $442 $-1 #
coedge $-1 $517 $520 $536 $602 reversed $442 $-1 #
coedge $-1 $537 $620 $517 $580 reversed $515 $-1 #
edge $-1 $603 -16.334299478073813 $623 16.334299478073813 $579 $624 forward 7 unknown #
coedge $-1 $519 $518 $625 $626 reversed $362 $-1 #
coedge $-1 $621 $627 $518 $583 forward $628 $-1 #
edge $-1 $629 -8.8735370308065242 $587 8.8735370308065242 $518 $630 forward 7 unknown #
coedge $-1 $631 $536 $519 $585 forward $288 $-1 #
edge $-1 $586 -8.8735370308065242 $632 8.8735370308065242 $519 $633 forward 7 unknown #
vertex $-1 $602 $634 #
vertex $-1 $622 $635 #
straight-curve $-1 -68.234454657944724 -7.2072647775406011 0 0 0 -1 I I #
coedge $-1 $522 $631 $636 $637 forward $288 $-1 #
coedge $-1 $638 $639 $522 $591 reversed $600 $-1 #
edge $-1 $640 -35.149799106721261 $593 35.149799106721261 $590 $641 forward 7 unknown #
coedge $-1 $531 $523 $639 $642 forward $375 $-1 #
vertex $-1 $591 $643 #
point $-1 24.324889227405556 35.149799106721261 1.6005066025960417 #
coedge $-1 $644 $645 $531 $596 forward $628 $-1 #
edge $-1 $598 -50.487380596331676 $646 50.487380596331676 $531 $647 forward 7 unknown #
coedge $-1 $539 $532 $645 $648 reversed $540 $-1 #
vertex $-1 $596 $649 #
straight-curve $-1 -50.487380596331676 35.149799106721261 0 0 0 -1 I I #
loop $-1 $-1 $638 $534 #
plane-surface $-1 50.487380596331676 0 0 -1 0 0 0 0 1 forward_v I I I I #
edge $-1 $603 -2.3630323134834832 $586 2.3630323134834832 $578 $650 forward 7 unknown #
vertex $-1 $538 $651 #
straight-curve $-1 -59.3609176271382 -2.4812001505736347 16.334299478073813 -1 0 0 I I #
edge $-1 $652 -16.334299478073813 $541 16.334299478073813 $539 $653 forward 7 unknown #
point $-1 -50.487380596331676 -2.4812001505736347 16.334299478073813 #
plane-surface $-1 0 -35.149799106721261 0 0 1 0 0 0 1 forward_v I I I I #
straight-curve $-1 -59.3609176271382 -2.4812001505736347 -16.334299478073813 1 0 0 I I #
coedge $-1 $554 $553 $561 $613 reversed $479 $-1 #
coedge $-1 $562 $561 $556 $611 reversed $563 $-1 #
edge $-1 $615 -50.487380596331676 $612 50.487380596331676 $610 $654 forward 7 unknown #
vertex $-1 $557 $655 #
edge $-1 $564 -16.334299478073813 $612 16.334299478073813 $609 $656 forward 7 unknown #
point $-1 -50.487380596331676 -35.149799106721261 16.334299478073813 #
vertex $-1 $567 $657 #
straight-curve $-1 50.487380596331676 -35.149799106721261 0 0 0 -1 I I #
straight-curve $-1 50.487380596331676 0 -16.334299478073813 0 -1 0 I I #
face $-1 $658 $628 $15 $-1 $659 reversed single #
loop $-1 $-1 $625 $574 #
coedge $-1 $579 $576 $660 $661 reversed $515 $-1 #
coedge $-1 $660 $582 $577 $622 forward $628 $-1 #
edge $-1 $587 -2.3630323134834832 $623 2.3630323134834832 $577 $662 forward 7 unknown #
vertex $-1 $661 $663 #
straight-curve $-1 -68.234454657944724 -2.4812001505736347 0 0 0 -1 I I #
coedge $-1 $664 $665 $581 $626 forward $619 $-1 #
edge $-1 $632 -16.334299478073813 $629 16.334299478073813 $625 $666 forward 7 unknown #
coedge $-1 $582 $667 $664 $668 forward $628 $-1 #
loop $-1 $-1 $644 $618 #
vertex $-1 $583 $669 #
straight-curve $-1 -59.3609176271382 -7.2072647775406011 -16.334299478073813 -1 0 0 I I #
coedge $-1 $589 $584 $665 $670 forward $288 $-1 #
vertex $-1 $670 $671 #
straight-curve $-1 -59.3609176271382 -7.2072647775406011 16.334299478073813 1 0 0 I I #
point $-1 -68.234454657944724 -7.2072647775406011 16.334299478073813 #
point $-1 -68.234454657944724 -7.2072647775406011 -16.334299478073813 #
coedge $-1 $672 $673 $589 $637 reversed $674 $-1 #
edge $-1 $675 -50.487380596331676 $640 50.487380596331676 $636 $676 forward 7 unknown #
coedge $-1 $677 $590 $673 $678 forward $600 $-1 #
coedge $-1 $590 $677 $592 $642 reversed $600 $-1 #
vertex $-1 $591 $679 #
straight-curve $-1 50.487380596331676 0 16.334299478073813 0 1 0 I I #
edge $-1 $593 -16.334299478073813 $646 16.334299478073813 $639 $680 forward 7 unknown #
point $-1 50.487380596331676 35.149799106721261 16.334299478073813 #
coedge $-1 $667 $595 $677 $681 forward $628 $-1 #
coedge $-1 $595 $660 $597 $648 forward $628 $-1 #
vertex $-1 $681 $682 #
straight-curve $-1 0 35.149799106721261 -16.334299478073813 1 0 0 I I #
edge $-1 $652 -2.4812001505736347 $598 35.149799106721261 $597 $683 forward 7 unknown #
point $-1 -50.487380596331676 35.149799106721261 -16.334299478073813 #
straight-curve $-1 -68.234454657944724 -4.8442324640571179 16.334299478073813 0 -1 0 I I #
point $-1 -68.234454657944724 -2.4812001505736347 16.334299478073813 #
vertex $-1 $648 $684 #
straight-curve $-1 -50.487380596331676 -2.4812001505736347 0 0 0 1 I I #
straight-curve $-1 0 -35.149799106721261 -16.334299478073813 -1 0 0 I I #
point $-1 -50.487380596331676 -35.149799106721261 -16.334299478073813 #
straight-curve $-1 -50.487380596331676 -35.149799106721261 0 0 0 -1 I I #
point $-1 50.487380596331676 -35.149799106721261 -16.334299478073813 #
face $-1 $456 $674 $15 $-1 $685 reversed single #
plane-surface $-1 0 0 -16.334299478073813 0 0 1 1 0 0 forward_v I I I I #
coedge $-1 $645 $621 $620 $661 forward $628 $-1 #
edge $-1 $623 -8.8735370308065242 $652 8.8735370308065242 $620 $686 forward 7 unknown #
straight-curve $-1 -68.234454657944724 -4.8442324640571179 -16.334299478073813 0 1 0 I I #
point $-1 -68.234454657944724 -2.4812001505736347 -16.334299478073813 #
coedge $-1 $687 $625 $627 $668 reversed $619 $-1 #
coedge $-1 $625 $687 $631 $670 reversed $619 $-1 #
straight-curve $-1 -50.487380596331676 -7.2072647775406011 0 0 0 -1 I I #
coedge $-1 $627 $644 $688 $689 forward $628 $-1 #
edge $-1 $690 -35.149799106721261 $629 -7.2072647775406011 $664 $683 forward 7 unknown #
point $-1 -50.487380596331676 -7.2072647775406011 -16.334299478073813 #
edge $-1 $632 7.2072647775406011 $675 35.149799106721261 $665 $542 forward 7 unknown #
point $-1 -50.487380596331676 -7.2072647775406011 16.334299478073813 #
coedge $-1 $688 $636 $687 $691 forward $674 $-1 #
coedge $-1 $636 $688 $638 $678 reversed $674 $-1 #
loop $-1 $-1 $672 $658 #
vertex $-1 $670 $692 #
straight-curve $-1 0 -35.149799106721261 16.334299478073813 1 0 0 I I #
coedge $-1 $639 $638 $644 $681 reversed $600 $-1 #
edge $-1 $640 -16.334299478073813 $693 16.334299478073813 $638 $694 forward 7 unknown #
point $-1 50.487380596331676 -35.149799106721261 16.334299478073813 #
straight-curve $-1 50.487380596331676 35.149799106721261 0 0 0 -1 I I #
edge $-1 $646 -35.149799106721261 $693 35.149799106721261 $677 $695 forward 7 unknown #
point $-1 50.487380596331676 35.149799106721261 -16.334299478073813 #
straight-curve $-1 -50.487380596331676 0 -16.334299478073813 0 1 0 I I #
point $-1 -50.487380596331676 -2.4812001505736347 -16.334299478073813 #
plane-surface $-1 0 -35.149799106721261 0 0 1 0 0 0 1 forward_v I I I I #
straight-curve $-1 -59.3609176271382 -2.4812001505736347 -16.334299478073813 1 0 0 I I #
coedge $-1 $665 $664 $672 $691 reversed $619 $-1 #
coedge $-1 $673 $672 $667 $689 reversed $674 $-1 #
edge $-1 $693 -50.487380596331676 $690 50.487380596331676 $688 $696 forward 7 unknown #
vertex $-1 $668 $697 #
edge $-1 $675 -16.334299478073813 $690 16.334299478073813 $687 $698 forward 7 unknown #
point $-1 -50.487380596331676 -35.149799106721261 16.334299478073813 #
vertex $-1 $678 $699 #
straight-curve $-1 50.487380596331676 -35.149799106721261 0 0 0 -1 I I #
straight-curve $-1 50.487380596331676 0 -16.334299478073813 0 -1 0 I I #
straight-curve $-1 0 -35.149799106721261 -16.334299478073813 -1 0 0 I I #
point $-1 -50.487380596331676 -35.149799106721261 -16.334299478073813 #
straight-curve $-1 -50.487380596331676 -35.149799106721261 0 0 0 -1 I I #
point $-1 50.487380596331676 -35.149799106721261 -16.334299478073813 #
End-of-ACIS-data 