500 0 9 0           
7 Unknown 11 ACIS 5.0 NT 24 Fri Mar 26 18:36:49 1999 
-1 9.9999999999999995e-007 1e-010 
body $-1 $9 $-1 $10 #
body $-1 $11 $-1 $12 #
body $-1 $13 $-1 $14 #
body $-1 $15 $-1 $16 #
body $-1 $17 $-1 $18 #
body $-1 $19 $-1 $20 #
body $-1 $21 $-1 $22 #
body $-1 $23 $-1 $24 #
body $-1 $25 $-1 $26 #
lump $-1 $-1 $27 $0 #
transform $-1 1 0 0 0 1 0 0 0 1 49.609668263801993 28.746264515859114 10.937740027403335 1 rotate no_reflect no_shear #
lump $-1 $-1 $28 $1 #
transform $-1 1 0 0 0 1 0 0 0 1 49.609668263801993 28.746264515859114 10.937740027403335 1 rotate no_reflect no_shear #
lump $-1 $-1 $29 $2 #
transform $-1 1 0 0 0 1 0 0 0 1 49.609668263801993 28.746264515859114 10.937740027403335 1 rotate no_reflect no_shear #
lump $-1 $-1 $30 $3 #
transform $-1 1 0 0 0 1 0 0 0 1 49.609668263801993 28.746264515859114 10.937740027403335 1 rotate no_reflect no_shear #
lump $-1 $-1 $31 $4 #
transform $-1 1 0 0 0 1 0 0 0 1 49.609668263801993 28.746264515859114 10.937740027403335 1 rotate no_reflect no_shear #
lump $-1 $-1 $32 $5 #
transform $-1 1 0 0 0 1 0 0 0 1 49.609668263801993 28.746264515859114 10.937740027403335 1 rotate no_reflect no_shear #
lump $-1 $-1 $33 $6 #
transform $-1 1 0 0 0 1 0 0 0 1 49.609668263801993 28.746264515859114 10.937740027403335 1 rotate no_reflect no_shear #
lump $-1 $-1 $34 $7 #
transform $-1 1 0 0 0 1 0 0 0 1 49.609668263801993 28.746264515859114 10.937740027403335 1 rotate no_reflect no_shear #
lump $-1 $-1 $35 $8 #
transform $-1 1 0 0 0 1 0 0 0 1 49.609668263801993 28.746264515859114 10.937740027403335 1 rotate no_reflect no_shear #
shell $-1 $-1 $-1 $36 $-1 $9 #
shell $-1 $-1 $-1 $37 $-1 $11 #
shell $-1 $-1 $-1 $38 $-1 $13 #
shell $-1 $-1 $-1 $39 $-1 $15 #
shell $-1 $-1 $-1 $40 $-1 $17 #
shell $-1 $-1 $-1 $41 $-1 $19 #
shell $-1 $-1 $-1 $42 $-1 $21 #
shell $-1 $-1 $-1 $43 $-1 $23 #
shell $-1 $-1 $-1 $44 $-1 $25 #
face $-1 $45 $46 $27 $-1 $47 forward single #
face $-1 $48 $49 $28 $-1 $50 forward single #
face $-1 $51 $52 $29 $-1 $53 forward single #
face $-1 $54 $55 $30 $-1 $56 reversed single #
face $-1 $57 $58 $31 $-1 $59 forward single #
face $-1 $60 $61 $32 $-1 $62 forward single #
face $-1 $63 $64 $33 $-1 $65 reversed single #
face $-1 $66 $67 $34 $-1 $68 forward single #
face $-1 $69 $70 $35 $-1 $71 forward single #
face $-1 $72 $73 $27 $-1 $74 reversed single #
loop $-1 $-1 $75 $36 #
plane-surface $-1 0 0 10.937740027403335 0 0 1 1 0 0 forward_v I I I I #
face $-1 $76 $77 $28 $-1 $78 reversed single #
loop $-1 $-1 $79 $37 #
plane-surface $-1 0 -24.025124407049084 -0.053786222985840126 0 0 1 1 0 0 forward_v I I I I #
face $-1 $80 $81 $29 $-1 $82 reversed single #
loop $-1 $-1 $83 $38 #
plane-surface $-1 0 24.025124407049088 -0.053786222985840126 0 0 1 1 0 0 forward_v I I I I #
face $-1 $84 $85 $30 $-1 $86 reversed single #
loop $-1 $-1 $87 $39 #
plane-surface $-1 -123.34400561324598 11.27637748836745 71.033134462397015 0 -1 0 0.74314483375859142 0 -0.66913059716165679 forward_v I I I I #
face $-1 $88 $89 $31 $-1 $90 forward single #
loop $-1 $91 $92 $40 #
cone-surface $-1 -45.415366456614429 3.582243195467651 6.565409970658358 0.74314483375859142 0 -0.66913059716165679 0.66913059716165679 0 0.74314483375859142 1 I I 0 1 1 forward I I I I #
face $-1 $93 $94 $32 $-1 $95 forward single #
loop $-1 $96 $97 $41 #
cone-surface $-1 -45.415366456614429 8.1987237712075292 6.565409970658358 0.74314483375859142 0 -0.66913059716165679 0.66913059716165679 0 0.74314483375859142 1 I I 0 1 1 forward I I I I #
face $-1 $98 $99 $33 $-1 $100 reversed single #
loop $-1 $-1 $101 $42 #
plane-surface $-1 61.839131301510761 13.221356671944687 142.04355518682638 0 1 0 0.7660444514056185 0 0.64278759981090561 forward_v I I I I #
face $-1 $102 $103 $34 $-1 $104 forward single #
loop $-1 $105 $106 $43 #
cone-surface $-1 45.508375615404574 14.959250279457361 6.2124496470419803 -0.7660444514056185 0 -0.64278759981090561 0.3213937999054528 0 -0.38302222570280925 1 I I 0 1 0.5 forward I I I I #
face $-1 $107 $108 $35 $-1 $109 forward single #
loop $-1 $110 $111 $44 #
cone-surface $-1 45.508375615404574 17.566090690726373 6.2124496470419803 -0.7660444514056185 0 -0.64278759981090561 0.3213937999054528 0 -0.38302222570280925 1 I I 0 1 0.5 forward I I I I #
face $-1 $112 $113 $27 $-1 $114 reversed single #
loop $-1 $-1 $115 $45 #
plane-surface $-1 0 0 -10.937740027403335 0 0 1 1 0 0 forward_v I I I I #
coedge $-1 $116 $117 $118 $119 forward $46 $-1 #
face $-1 $120 $121 $28 $-1 $122 reversed single #
loop $-1 $-1 $123 $48 #
plane-surface $-1 0 -24.025124407049084 -6.4644828759074091 0 0 1 1 0 0 forward_v I I I I #
coedge $-1 $124 $125 $126 $127 reversed $49 $-1 #
face $-1 $128 $129 $29 $-1 $130 reversed single #
loop $-1 $-1 $131 $51 #
plane-surface $-1 0 24.025124407049088 -6.4644828759074091 0 0 1 1 0 0 forward_v I I I I #
coedge $-1 $132 $133 $134 $135 reversed $52 $-1 #
face $-1 $136 $137 $30 $-1 $138 reversed single #
loop $-1 $-1 $139 $54 #
plane-surface $-1 -49.609668263801979 5.8904834833375936 4.6424405616979669 -0.74314483375859142 0 0.66913059716165679 0.66913059716165679 0 0.74314483375859142 forward_v I I I I #
coedge $-1 $140 $141 $142 $143 reversed $55 $-1 #
face $-1 $-1 $144 $31 $-1 $145 forward single #
loop $-1 $146 $147 $57 #
cone-surface $-1 -43.683648711503366 3.582243195467651 5.0061643481852336 0.74314483375859142 0 -0.66913059716165679 0.3345652985808284 0 0.37157241687929571 1 I I -0.70710678118654746 0.70710678118654746 0.5 forward I I I I #
loop $-1 $-1 $148 $40 #
coedge $-1 $92 $92 $149 $150 reversed $58 $-1 #
face $-1 $-1 $151 $32 $-1 $152 forward single #
loop $-1 $153 $154 $60 #
cone-surface $-1 -43.683648711503366 8.1987237712075292 5.0061643481852336 0.74314483375859142 0 -0.66913059716165679 0.3345652985808284 0 0.37157241687929571 1 I I -0.70710678118654746 0.70710678118654746 0.5 forward I I I I #
loop $-1 $-1 $155 $41 #
coedge $-1 $97 $97 $156 $157 reversed $61 $-1 #
face $-1 $158 $159 $33 $-1 $160 reversed single #
loop $-1 $-1 $161 $63 #
plane-surface $-1 -14.167290917607076 16.262670485091871 78.266596005417298 0.7660444514056185 0 0.64278759981090561 0.64278759981090561 0 -0.7660444514056185 forward_v I I I I #
coedge $-1 $162 $163 $164 $165 reversed $64 $-1 #
face $-1 $-1 $166 $34 $-1 $167 forward single #
loop $-1 $168 $169 $66 #
cone-surface $-1 44.856243075051964 14.959250279457361 5.6652454872798632 -0.7660444514056185 0 -0.64278759981090561 0.1606968999527264 0 -0.19151111285140462 1 I I -0.70710678118654746 0.70710678118654746 0.25 forward I I I I #
loop $-1 $-1 $170 $43 #
coedge $-1 $106 $106 $171 $172 reversed $67 $-1 #
face $-1 $-1 $173 $35 $-1 $174 forward single #
loop $-1 $175 $176 $69 #
cone-surface $-1 44.856243075051964 17.566090690726373 5.6652454872798632 -0.7660444514056185 0 -0.64278759981090561 0.1606968999527264 0 -0.19151111285140462 1 I I -0.70710678118654746 0.70710678118654746 0.25 forward I I I I #
loop $-1 $-1 $177 $44 #
coedge $-1 $111 $111 $178 $179 reversed $70 $-1 #
face $-1 $180 $181 $27 $-1 $182 reversed single #
loop $-1 $-1 $183 $72 #
plane-surface $-1 0 -28.746264515859114 0 0 1 0 0 0 1 forward_v I I I I #
coedge $-1 $184 $185 $186 $187 forward $73 $-1 #
coedge $-1 $188 $75 $189 $190 forward $46 $-1 #
coedge $-1 $75 $188 $191 $192 forward $46 $-1 #
coedge $-1 $193 $194 $75 $119 reversed $195 $-1 #
edge $-1 $196 -28.746264515859114 $197 28.746264515859114 $118 $198 forward 7 unknown #
face $-1 $199 $200 $28 $-1 $201 reversed single #
loop $-1 $-1 $202 $76 #
plane-surface $-1 0 -19.303984298239055 -3.2591345494466246 0 -1 0 0 0 -1 forward_v I I I I #
coedge $-1 $203 $204 $205 $206 reversed $77 $-1 #
coedge $-1 $207 $79 $208 $209 forward $49 $-1 #
coedge $-1 $79 $207 $210 $211 reversed $49 $-1 #
coedge $-1 $212 $213 $79 $127 forward $214 $-1 #
edge $-1 $215 7.2914220947145125 $216 16.733702312334572 $126 $217 forward 7 unknown #
face $-1 $218 $219 $29 $-1 $220 reversed single #
loop $-1 $-1 $221 $80 #
plane-surface $-1 0 19.303984298239058 -3.2591345494466246 0 1 0 0 0 1 forward_v I I I I #
coedge $-1 $222 $223 $224 $225 reversed $81 $-1 #
coedge $-1 $226 $83 $227 $228 reversed $52 $-1 #
coedge $-1 $83 $226 $229 $230 forward $52 $-1 #
coedge $-1 $231 $232 $83 $135 forward $219 $-1 #
edge $-1 $233 -16.733702312334572 $234 -7.2914220947145143 $134 $235 forward 7 unknown #
face $-1 $236 $237 $30 $-1 $238 reversed single #
loop $-1 $-1 $239 $84 #
plane-surface $-1 -123.34400561324598 0.50458947830773759 71.033134462397015 0 1 0 -0.74314483375859142 0 0.66913059716165679 forward_v I I I I #
coedge $-1 $240 $241 $242 $243 reversed $85 $-1 #
coedge $-1 $141 $87 $244 $245 reversed $55 $-1 #
coedge $-1 $87 $140 $240 $246 reversed $55 $-1 #
coedge $-1 $242 $247 $87 $143 forward $237 $-1 #
edge $-1 $248 24.578827203795171 $249 30.874126669500555 $142 $250 forward 7 unknown #
loop $-1 $-1 $149 $88 #
plane-surface $-1 -49.609668263801979 5.8904834833375936 4.6424405616979669 -0.74314483375859142 0 0.66913059716165679 0.66913059716165679 0 0.74314483375859142 forward_v I I I I #
loop $-1 $-1 $251 $57 #
coedge $-1 $147 $147 $148 $252 reversed $89 $-1 #
coedge $-1 $148 $148 $147 $252 forward $91 $-1 #
coedge $-1 $149 $149 $92 $150 forward $144 $-1 #
edge $-1 $253 0 $253 6.2831853071796004 $149 $254 forward 7 unknown #
loop $-1 $-1 $156 $93 #
plane-surface $-1 -49.609668263801979 5.8904834833375936 4.6424405616979669 -0.74314483375859142 0 0.66913059716165679 0.66913059716165679 0 0.74314483375859142 forward_v I I I I #
loop $-1 $-1 $255 $60 #
coedge $-1 $154 $154 $155 $256 reversed $94 $-1 #
coedge $-1 $155 $155 $154 $256 forward $96 $-1 #
coedge $-1 $156 $156 $97 $157 forward $151 $-1 #
edge $-1 $257 0 $257 6.2831853071796004 $156 $258 forward 7 unknown #
face $-1 $259 $260 $33 $-1 $261 forward single #
loop $-1 $-1 $262 $98 #
plane-surface $-1 61.839131301510761 19.303984298239055 142.04355518682638 0 -1 0 -0.7660444514056185 0 -0.64278759981090561 forward_v I I I I #
coedge $-1 $263 $264 $265 $266 reversed $99 $-1 #
coedge $-1 $163 $101 $267 $268 reversed $64 $-1 #
coedge $-1 $101 $162 $263 $269 reversed $64 $-1 #
coedge $-1 $265 $270 $101 $165 forward $271 $-1 #
edge $-1 $272 60.084037566009854 $273 68.761603807113715 $164 $274 forward 7 unknown #
loop $-1 $-1 $171 $102 #
plane-surface $-1 -14.167290917607076 16.262670485091871 78.266596005417298 0.7660444514056185 0 0.64278759981090561 0.64278759981090561 0 -0.7660444514056185 forward_v I I I I #
loop $-1 $-1 $275 $66 #
coedge $-1 $169 $169 $170 $276 reversed $103 $-1 #
coedge $-1 $170 $170 $169 $276 forward $105 $-1 #
coedge $-1 $171 $171 $106 $172 forward $166 $-1 #
edge $-1 $277 0 $277 6.2831853071796004 $171 $278 forward 7 unknown #
loop $-1 $-1 $178 $107 #
plane-surface $-1 -14.167290917607076 16.262670485091871 78.266596005417298 0.7660444514056185 0 0.64278759981090561 0.64278759981090561 0 -0.7660444514056185 forward_v I I I I #
loop $-1 $-1 $279 $69 #
coedge $-1 $176 $176 $177 $280 reversed $108 $-1 #
coedge $-1 $177 $177 $176 $280 forward $110 $-1 #
coedge $-1 $178 $178 $111 $179 forward $173 $-1 #
edge $-1 $281 0 $281 6.2831853071796004 $178 $282 forward 7 unknown #
face $-1 $283 $284 $27 $-1 $285 reversed single #
loop $-1 $-1 $286 $112 #
plane-surface $-1 -49.609668263801993 0 0 1 0 0 0 0 -1 forward_v I I I I #
coedge $-1 $287 $191 $288 $289 forward $113 $-1 #
coedge $-1 $290 $115 $287 $291 forward $73 $-1 #
coedge $-1 $115 $290 $292 $293 forward $73 $-1 #
coedge $-1 $194 $193 $115 $187 reversed $195 $-1 #
edge $-1 $294 -28.746264515859114 $295 28.746264515859114 $186 $296 forward 7 unknown #
coedge $-1 $117 $116 $297 $298 forward $46 $-1 #
coedge $-1 $299 $300 $116 $190 reversed $284 $-1 #
edge $-1 $197 -49.609668263801993 $301 49.609668263801993 $189 $302 forward 7 unknown #
coedge $-1 $183 $303 $117 $192 reversed $113 $-1 #
edge $-1 $304 -49.609668263801993 $196 49.609668263801993 $191 $305 forward 7 unknown #
coedge $-1 $186 $118 $303 $306 forward $195 $-1 #
coedge $-1 $118 $186 $299 $307 reversed $195 $-1 #
loop $-1 $-1 $193 $283 #
vertex $-1 $119 $308 #
vertex $-1 $119 $309 #
straight-curve $-1 49.609668263801993 0 10.937740027403335 0 1 0 I I #
face $-1 $310 $311 $28 $-1 $312 reversed single #
loop $-1 $-1 $313 $120 #
plane-surface $-1 -49.609668263801993 0 0 1 0 0 0 0 -1 forward_v I I I I #
coedge $-1 $314 $208 $213 $315 reversed $121 $-1 #
coedge $-1 $316 $123 $317 $318 reversed $77 $-1 #
coedge $-1 $123 $316 $314 $319 forward $77 $-1 #
coedge $-1 $213 $212 $123 $206 forward $214 $-1 #
edge $-1 $320 -16.733702312334572 $321 -7.2914220947145125 $205 $322 forward 7 unknown #
coedge $-1 $125 $124 $313 $323 reversed $49 $-1 #
coedge $-1 $202 $324 $124 $209 reversed $121 $-1 #
edge $-1 $215 -49.609668263801993 $325 49.609668263801993 $208 $326 forward 7 unknown #
coedge $-1 $327 $328 $125 $211 forward $311 $-1 #
edge $-1 $216 -49.609668263801993 $329 49.609668263801993 $210 $330 forward 7 unknown #
coedge $-1 $205 $126 $328 $331 forward $214 $-1 #
coedge $-1 $126 $205 $202 $315 forward $214 $-1 #
loop $-1 $-1 $126 $310 #
vertex $-1 $127 $332 #
vertex $-1 $331 $333 #
straight-curve $-1 49.609668263801993 -12.012562203524542 -0.053786222985840126 0 -1 0 I I #
face $-1 $334 $335 $29 $-1 $336 reversed single #
loop $-1 $-1 $134 $128 #
plane-surface $-1 49.609668263801993 0 0 -1 0 0 0 0 1 forward_v I I I I #
coedge $-1 $337 $229 $338 $339 reversed $129 $-1 #
coedge $-1 $340 $131 $337 $341 forward $81 $-1 #
coedge $-1 $131 $340 $342 $343 reversed $81 $-1 #
coedge $-1 $232 $231 $131 $225 forward $219 $-1 #
edge $-1 $344 7.2914220947145143 $345 16.733702312334572 $224 $346 forward 7 unknown #
coedge $-1 $133 $132 $347 $348 reversed $52 $-1 #
coedge $-1 $349 $350 $132 $228 forward $351 $-1 #
edge $-1 $352 -49.609668263801993 $233 49.609668263801993 $227 $353 forward 7 unknown #
coedge $-1 $221 $354 $133 $230 reversed $129 $-1 #
edge $-1 $355 -49.609668263801993 $234 49.609668263801993 $229 $356 forward 7 unknown #
coedge $-1 $224 $134 $354 $357 forward $219 $-1 #
coedge $-1 $134 $224 $349 $358 reversed $219 $-1 #
vertex $-1 $358 $359 #
vertex $-1 $135 $360 #
straight-curve $-1 49.609668263801993 12.012562203524544 -0.053786222985840126 0 -1 0 I I #
face $-1 $-1 $361 $30 $-1 $362 forward single #
loop $-1 $-1 $142 $136 #
plane-surface $-1 -49.609668263801993 0 0 1 0 0 0 0 -1 forward_v I I I I #
coedge $-1 $363 $364 $365 $366 reversed $137 $-1 #
coedge $-1 $367 $139 $141 $246 forward $85 $-1 #
coedge $-1 $139 $367 $363 $368 forward $85 $-1 #
coedge $-1 $365 $142 $139 $243 forward $237 $-1 #
edge $-1 $249 -8.3311357466986529 $369 2.4406522633610592 $242 $370 forward 7 unknown #
coedge $-1 $371 $372 $140 $245 forward $361 $-1 #
edge $-1 $373 -17.730647500732623 $248 -12.062334542820999 $244 $374 forward 7 unknown #
edge $-1 $249 -2.1389731374768986e-014 $373 8.4711609093287183 $141 $375 forward 7 unknown #
coedge $-1 $142 $365 $371 $376 reversed $237 $-1 #
vertex $-1 $376 $377 #
vertex $-1 $143 $378 #
straight-curve $-1 -49.609668263801993 11.27637748836745 35.516567231198508 0 0 -1 I I #
coedge $-1 $251 $251 $-1 $379 reversed $146 $-1 #
edge $-1 $380 0 $380 6.2831853071796004 $147 $381 forward 7 unknown #
vertex $-1 $150 $382 #
ellipse-curve $-1 -46.775511784846181 3.582243195467651 7.7900902945506427 -0.74314483375859142 0 0.66913059716165679 0.66913059716165679 0 0.74314483375859142 1 I I #
coedge $-1 $255 $255 $-1 $383 reversed $153 $-1 #
edge $-1 $384 0 $384 6.2831853071796004 $154 $385 forward 7 unknown #
vertex $-1 $157 $386 #
ellipse-curve $-1 -46.775511784846181 8.1987237712075292 7.7900902945506427 -0.74314483375859142 0 0.66913059716165679 0.66913059716165679 0 0.74314483375859142 1 I I #
face $-1 $-1 $271 $33 $-1 $387 reversed single #
loop $-1 $-1 $388 $158 #
plane-surface $-1 0 0 10.937740027403335 0 0 1 1 0 0 forward_v I I I I #
coedge $-1 $389 $390 $391 $392 reversed $159 $-1 #
coedge $-1 $393 $161 $163 $269 forward $99 $-1 #
coedge $-1 $161 $393 $389 $394 forward $99 $-1 #
coedge $-1 $391 $164 $161 $266 forward $271 $-1 #
edge $-1 $273 5.0900214293987514 $395 11.172649055693119 $265 $396 forward 7 unknown #
coedge $-1 $397 $398 $162 $268 forward $260 $-1 #
edge $-1 $399 11.408760171254229 $272 18.690102613046612 $267 $400 forward 7 unknown #
edge $-1 $273 -99.219336527604 $399 -87.891578425340654 $163 $401 forward 7 unknown #
coedge $-1 $164 $391 $397 $402 reversed $271 $-1 #
loop $-1 $-1 $391 $259 #
vertex $-1 $402 $403 #
vertex $-1 $165 $404 #
straight-curve $-1 49.609668263801993 13.221356671944687 71.021777593413191 0 0 -1 I I #
coedge $-1 $275 $275 $-1 $405 reversed $168 $-1 #
edge $-1 $406 0 $406 6.2831853071796004 $169 $407 forward 7 unknown #
vertex $-1 $172 $408 #
ellipse-curve $-1 45.968997042905812 14.959250279457361 6.5989569068513969 0.7660444514056185 0 0.64278759981090561 0.3213937999054528 0 -0.38302222570280925 1 I I #
coedge $-1 $279 $279 $-1 $409 reversed $175 $-1 #
edge $-1 $410 0 $410 6.2831853071796004 $176 $411 forward 7 unknown #
vertex $-1 $179 $412 #
ellipse-curve $-1 45.968997042905812 17.566090690726373 6.5989569068513969 0.7660444514056185 0 0.64278759981090561 0.3213937999054528 0 -0.38302222570280925 1 I I #
face $-1 $-1 $195 $27 $-1 $413 reversed single #
loop $-1 $-1 $299 $180 #
plane-surface $-1 0 28.746264515859114 0 0 -1 0 0 0 -1 forward_v I I I I #
coedge $-1 $414 $297 $300 $415 forward $181 $-1 #
coedge $-1 $303 $183 $184 $291 reversed $113 $-1 #
coedge $-1 $297 $414 $183 $289 reversed $181 $-1 #
edge $-1 $304 -10.937740027403335 $416 10.937740027403335 $288 $417 forward 7 unknown #
coedge $-1 $185 $184 $414 $418 forward $73 $-1 #
edge $-1 $295 -49.609668263801993 $416 49.609668263801993 $287 $419 forward 7 unknown #
coedge $-1 $300 $299 $185 $293 reversed $284 $-1 #
edge $-1 $420 -49.609668263801993 $294 49.609668263801993 $292 $421 forward 7 unknown #
vertex $-1 $187 $422 #
vertex $-1 $306 $423 #
straight-curve $-1 49.609668263801993 0 -10.937740027403335 0 -1 0 I I #
coedge $-1 $286 $288 $188 $298 reversed $181 $-1 #
edge $-1 $301 -28.746264515859114 $304 28.746264515859114 $297 $424 forward 7 unknown #
coedge $-1 $292 $189 $194 $307 forward $284 $-1 #
coedge $-1 $189 $292 $286 $415 reversed $284 $-1 #
vertex $-1 $190 $425 #
straight-curve $-1 0 28.746264515859114 10.937740027403335 -1 0 0 I I #
coedge $-1 $191 $287 $193 $306 reversed $113 $-1 #
vertex $-1 $298 $426 #
straight-curve $-1 0 -28.746264515859114 10.937740027403335 1 0 0 I I #
edge $-1 $196 -10.937740027403335 $295 10.937740027403335 $193 $427 forward 7 unknown #
edge $-1 $197 -10.937740027403335 $294 10.937740027403335 $194 $428 forward 7 unknown #
point $-1 49.609668263801993 -28.746264515859114 10.937740027403335 #
point $-1 49.609668263801993 28.746264515859114 10.937740027403335 #
face $-1 $-1 $214 $28 $-1 $429 reversed single #
loop $-1 $-1 $210 $199 #
plane-surface $-1 0 -28.746264515859114 0 0 1 0 0 0 1 forward_v I I I I #
coedge $-1 $430 $431 $207 $323 forward $200 $-1 #
coedge $-1 $324 $202 $204 $319 reversed $121 $-1 #
edge $-1 $321 -4.8349156011840968 $215 1.5757810517374722 $213 $432 forward 7 unknown #
coedge $-1 $204 $203 $433 $434 reversed $77 $-1 #
coedge $-1 $328 $327 $203 $318 forward $311 $-1 #
edge $-1 $435 -49.609668263801993 $320 49.609668263801993 $317 $436 forward 7 unknown #
edge $-1 $437 -49.609668263801993 $321 49.609668263801993 $314 $438 forward 7 unknown #
vertex $-1 $318 $439 #
vertex $-1 $206 $440 #
straight-curve $-1 49.609668263801993 -12.012562203524542 -6.4644828759074091 0 1 0 I I #
edge $-1 $329 -16.733702312334572 $325 -7.2914220947145125 $313 $441 forward 7 unknown #
coedge $-1 $208 $314 $430 $442 reversed $121 $-1 #
vertex $-1 $323 $443 #
straight-curve $-1 0 -19.303984298239055 -0.053786222985840126 -1 0 0 I I #
coedge $-1 $317 $210 $431 $444 forward $311 $-1 #
coedge $-1 $210 $317 $212 $331 reversed $311 $-1 #
vertex $-1 $444 $445 #
straight-curve $-1 0 -28.746264515859114 -0.053786222985840126 -1 0 0 I I #
edge $-1 $216 0.053786222985840126 $320 6.4644828759074091 $212 $446 forward 7 unknown #
point $-1 49.609668263801993 -19.303984298239055 -0.053786222985840126 #
point $-1 49.609668263801993 -28.746264515859114 -0.053786222985840126 #
face $-1 $-1 $351 $29 $-1 $447 reversed single #
loop $-1 $-1 $347 $218 #
plane-surface $-1 -49.609668263801993 0 0 1 0 0 0 0 -1 forward_v I I I I #
coedge $-1 $354 $221 $222 $341 reversed $129 $-1 #
coedge $-1 $347 $448 $221 $339 forward $335 $-1 #
edge $-1 $449 -4.8349156011840968 $355 1.5757810517374722 $338 $450 forward 7 unknown #
coedge $-1 $223 $222 $448 $451 reversed $81 $-1 #
edge $-1 $344 -49.609668263801993 $449 49.609668263801993 $337 $452 forward 7 unknown #
coedge $-1 $350 $349 $223 $343 forward $351 $-1 #
edge $-1 $345 -49.609668263801993 $453 49.609668263801993 $342 $454 forward 7 unknown #
vertex $-1 $225 $455 #
vertex $-1 $343 $456 #
straight-curve $-1 49.609668263801993 12.012562203524544 -6.4644828759074091 0 1 0 I I #
coedge $-1 $457 $338 $226 $348 forward $335 $-1 #
edge $-1 $355 7.2914220947145143 $352 16.733702312334572 $347 $458 forward 7 unknown #
coedge $-1 $342 $227 $232 $358 forward $351 $-1 #
coedge $-1 $227 $342 $457 $459 reversed $351 $-1 #
loop $-1 $-1 $227 $334 #
vertex $-1 $459 $460 #
straight-curve $-1 0 28.746264515859114 -0.053786222985840126 1 0 0 I I #
coedge $-1 $229 $337 $231 $357 reversed $129 $-1 #
vertex $-1 $348 $461 #
straight-curve $-1 0 19.303984298239058 -0.053786222985840126 1 0 0 I I #
edge $-1 $234 -1.5757810517374722 $344 4.8349156011840968 $231 $462 forward 7 unknown #
edge $-1 $233 0.053786222985840126 $345 6.4644828759074091 $232 $463 forward 7 unknown #
point $-1 49.609668263801993 28.746264515859117 -0.053786222985840126 #
point $-1 49.609668263801993 19.303984298239058 -0.053786222985840126 #
loop $-1 $-1 $244 $236 #
plane-surface $-1 0 0 10.937740027403335 0 0 1 1 0 0 forward_v I I I I #
coedge $-1 $364 $239 $241 $368 reversed $137 $-1 #
coedge $-1 $239 $363 $464 $465 reversed $137 $-1 #
coedge $-1 $247 $242 $239 $366 forward $237 $-1 #
edge $-1 $369 -30.874126669500555 $466 -24.578827203795171 $365 $467 forward 7 unknown #
coedge $-1 $241 $240 $372 $468 reversed $85 $-1 #
edge $-1 $469 -8.4711609093287183 $369 2.1389731374768986e-014 $363 $470 forward 7 unknown #
vertex $-1 $243 $471 #
straight-curve $-1 -49.609668263801993 2.9452417416687968 4.6424405616979474 0 -1 0 I I #
coedge $-1 $464 $244 $247 $376 forward $361 $-1 #
coedge $-1 $244 $464 $367 $468 forward $361 $-1 #
vertex $-1 $245 $472 #
straight-curve $-1 -61.672002806622991 11.27637748836745 10.937740027403336 -1 0 0 I I #
straight-curve $-1 -49.609668263801979 11.27637748836745 4.6424405616979669 0.66913059716165679 0 0.74314483375859142 I I #
edge $-1 $248 -11.27637748836745 $466 -0.50458947830773759 $247 $473 forward 7 unknown #
point $-1 -49.609668263801993 11.27637748836745 10.937740027403335 #
point $-1 -49.609668263801993 11.27637748836745 4.6424405616979509 #
edge $-1 $474 1 $474 0 $251 $-1 forward 7 unknown #
vertex $-1 $252 $475 #
ellipse-curve $-1 -44.055221128382662 3.582243195467651 5.3407296467660617 -0.74314483375859142 0 0.66913059716165679 0.66913059716165679 0 0.74314483375859142 1 I I #
point $-1 -46.106381187684534 3.582243195467651 8.5332351283092454 #
edge $-1 $476 1 $476 0 $255 $-1 forward 7 unknown #
vertex $-1 $256 $477 #
ellipse-curve $-1 -44.055221128382662 8.1987237712075292 5.3407296467660617 -0.74314483375859142 0 0.66913059716165679 0.66913059716165679 0 0.74314483375859142 1 I I #
point $-1 -46.106381187684534 8.1987237712075292 8.5332351283092454 #
plane-surface $-1 49.609668263801993 0 0 -1 0 0 0 0 1 forward_v I I I I #
coedge $-1 $398 $397 $390 $478 forward $260 $-1 #
coedge $-1 $390 $262 $264 $394 reversed $159 $-1 #
coedge $-1 $262 $389 $388 $478 reversed $159 $-1 #
coedge $-1 $270 $265 $262 $392 forward $271 $-1 #
edge $-1 $395 -68.761603807113715 $479 -60.084037566009854 $391 $480 forward 7 unknown #
coedge $-1 $264 $263 $398 $481 reversed $99 $-1 #
edge $-1 $482 87.891578425340654 $395 99.219336527604 $389 $483 forward 7 unknown #
vertex $-1 $266 $484 #
straight-curve $-1 49.609668263801993 8.1313352425459353 2.2601737862994753 0 1 0 I I #
coedge $-1 $388 $267 $270 $402 forward $260 $-1 #
coedge $-1 $267 $388 $393 $481 forward $260 $-1 #
vertex $-1 $268 $485 #
straight-curve $-1 30.919565650755381 13.221356671944687 10.937740027403336 1 0 0 I I #
straight-curve $-1 -14.167290917607076 13.221356671944687 78.266596005417298 -0.64278759981090561 0 0.7660444514056185 I I #
edge $-1 $272 13.221356671944687 $479 19.303984298239055 $270 $486 forward 7 unknown #
point $-1 49.609668263801993 13.221356671944687 10.937740027403335 #
point $-1 49.609668263801993 13.221356671944687 2.2601737862994753 #
edge $-1 $487 1 $487 0 $275 $-1 forward 7 unknown #
vertex $-1 $276 $488 #
ellipse-curve $-1 45.047754187903365 14.959250279457361 5.8259423872325895 0.7660444514056185 0 0.64278759981090561 0.3213937999054528 0 -0.38302222570280925 1 I I #
point $-1 46.290390842811235 14.959250279457361 6.2159346811485623 #
edge $-1 $489 1 $489 0 $279 $-1 forward 7 unknown #
vertex $-1 $280 $490 #
ellipse-curve $-1 45.047754187903365 17.566090690726373 5.8259423872325895 0.7660444514056185 0 0.64278759981090561 0.3213937999054528 0 -0.38302222570280925 1 I I #
point $-1 46.290390842811235 17.566090690726373 6.2159346811485623 #
plane-surface $-1 49.609668263801993 0 0 -1 0 0 0 0 1 forward_v I I I I #
coedge $-1 $288 $286 $290 $418 reversed $181 $-1 #
edge $-1 $301 -10.937740027403335 $420 10.937740027403335 $300 $491 forward 7 unknown #
vertex $-1 $418 $492 #
straight-curve $-1 -49.609668263801993 -28.746264515859114 0 0 0 -1 I I #
edge $-1 $416 -28.746264515859114 $420 28.746264515859114 $414 $493 forward 7 unknown #
straight-curve $-1 0 -28.746264515859114 -10.937740027403335 -1 0 0 I I #
vertex $-1 $293 $494 #
straight-curve $-1 0 28.746264515859114 -10.937740027403335 1 0 0 I I #
point $-1 49.609668263801993 28.746264515859114 -10.937740027403335 #
point $-1 49.609668263801993 -28.746264515859114 -10.937740027403335 #
straight-curve $-1 -49.609668263801993 0 10.937740027403335 0 -1 0 I I #
point $-1 -49.609668263801993 28.746264515859114 10.937740027403335 #
point $-1 -49.609668263801993 -28.746264515859114 10.937740027403335 #
straight-curve $-1 49.609668263801993 -28.746264515859114 0 0 0 -1 I I #
straight-curve $-1 49.609668263801993 28.746264515859114 0 0 0 -1 I I #
plane-surface $-1 49.609668263801993 0 0 -1 0 0 0 0 1 forward_v I I I I #
coedge $-1 $433 $313 $324 $442 forward $200 $-1 #
coedge $-1 $313 $433 $327 $444 reversed $200 $-1 #
straight-curve $-1 49.609668263801993 -19.303984298239055 -1.6295672747233123 0 0 1 I I #
coedge $-1 $431 $430 $316 $434 forward $200 $-1 #
edge $-1 $437 7.2914220947145125 $435 16.733702312334572 $433 $495 forward 7 unknown #
vertex $-1 $318 $496 #
straight-curve $-1 0 -28.746264515859114 -6.4644828759074091 1 0 0 I I #
vertex $-1 $434 $497 #
straight-curve $-1 0 -19.303984298239055 -6.4644828759074091 1 0 0 I I #
point $-1 49.609668263801993 -28.746264515859114 -6.4644828759074091 #
point $-1 49.609668263801993 -19.303984298239055 -6.4644828759074091 #
straight-curve $-1 -49.609668263801993 -12.012562203524542 -0.053786222985840126 0 1 0 I I #
edge $-1 $325 -1.5757810517374722 $437 4.8349156011840968 $430 $498 forward 7 unknown #
point $-1 -49.609668263801993 -19.303984298239055 -0.053786222985840126 #
edge $-1 $329 0.053786222985840126 $435 6.4644828759074091 $431 $499 forward 7 unknown #
point $-1 -49.609668263801993 -28.746264515859114 -0.053786222985840126 #
straight-curve $-1 49.609668263801993 -28.746264515859114 0 0 0 -1 I I #
plane-surface $-1 0 28.746264515859114 0 0 -1 0 0 0 -1 forward_v I I I I #
coedge $-1 $338 $457 $340 $451 forward $335 $-1 #
vertex $-1 $451 $500 #
straight-curve $-1 -49.609668263801993 19.303984298239058 -1.6295672747233123 0 0 1 I I #
edge $-1 $453 -16.733702312334572 $449 -7.2914220947145143 $448 $501 forward 7 unknown #
straight-curve $-1 0 19.303984298239058 -6.4644828759074091 -1 0 0 I I #
vertex $-1 $343 $502 #
straight-curve $-1 0 28.746264515859114 -6.4644828759074091 -1 0 0 I I #
point $-1 49.609668263801993 19.303984298239058 -6.4644828759074091 #
point $-1 49.609668263801993 28.746264515859117 -6.4644828759074091 #
coedge $-1 $448 $347 $350 $459 forward $335 $-1 #
straight-curve $-1 -49.609668263801993 12.012562203524544 -0.053786222985840126 0 1 0 I I #
edge $-1 $352 0.053786222985840126 $453 6.4644828759074091 $350 $503 forward 7 unknown #
point $-1 -49.609668263801993 28.746264515859117 -0.053786222985840126 #
point $-1 -49.609668263801993 19.303984298239058 -0.053786222985840126 #
straight-curve $-1 49.609668263801993 19.303984298239058 -1.6295672747233123 0 0 -1 I I #
straight-curve $-1 49.609668263801993 28.746264515859114 0 0 0 -1 I I #
coedge $-1 $372 $371 $364 $465 forward $361 $-1 #
edge $-1 $466 12.062334542820999 $469 17.730647500732623 $464 $504 forward 7 unknown #
vertex $-1 $465 $505 #
straight-curve $-1 -49.609668263801993 0.50458947830773759 35.516567231198508 0 0 1 I I #
edge $-1 $469 -2.4406522633610592 $373 8.3311357466986529 $372 $506 forward 7 unknown #
vertex $-1 $468 $507 #
straight-curve $-1 -49.609668263801979 0.50458947830773759 4.6424405616979669 -0.66913059716165679 0 -0.74314483375859142 I I #
point $-1 -49.609668263801993 0.50458947830773759 4.6424405616979509 #
point $-1 -43.941355305890369 11.27637748836745 10.937740027403335 #
straight-curve $-1 -49.609668263801993 0 10.937740027403335 0 -1 0 I I #
vertex $-1 $379 $508 #
point $-1 -43.386090531221008 3.582243195467651 6.0838744805246536 #
vertex $-1 $383 $509 #
point $-1 -43.386090531221008 8.1987237712075292 6.0838744805246536 #
edge $-1 $479 -18.690102613046612 $482 -11.408760171254229 $388 $510 forward 7 unknown #
vertex $-1 $392 $511 #
straight-curve $-1 49.609668263801993 19.303984298239055 71.021777593413191 0 0 1 I I #
edge $-1 $482 -11.172649055693119 $399 -5.0900214293987514 $398 $512 forward 7 unknown #
vertex $-1 $481 $513 #
straight-curve $-1 -14.167290917607076 19.303984298239055 78.266596005417298 0.64278759981090561 0 -0.7660444514056185 I I #
point $-1 49.609668263801993 19.303984298239055 2.2601737862994753 #
point $-1 42.32832582200961 13.221356671944687 10.937740027403336 #
straight-curve $-1 49.609668263801993 0 10.937740027403335 0 1 0 I I #
vertex $-1 $405 $514 #
point $-1 45.369147987808823 14.959250279457361 5.4429201615297806 #
vertex $-1 $409 $515 #
point $-1 45.369147987808823 17.566090690726373 5.4429201615297806 #
straight-curve $-1 -49.609668263801993 28.746264515859114 0 0 0 -1 I I #
point $-1 -49.609668263801993 -28.746264515859114 -10.937740027403335 #
straight-curve $-1 -49.609668263801993 0 -10.937740027403335 0 1 0 I I #
point $-1 -49.609668263801993 28.746264515859114 -10.937740027403335 #
straight-curve $-1 -49.609668263801993 -12.012562203524542 -6.4644828759074091 0 -1 0 I I #
point $-1 -49.609668263801993 -28.746264515859114 -6.4644828759074091 #
point $-1 -49.609668263801993 -19.303984298239055 -6.4644828759074091 #
straight-curve $-1 -49.609668263801993 -19.303984298239055 -1.6295672747233123 0 0 -1 I I #
straight-curve $-1 -49.609668263801993 -28.746264515859114 0 0 0 -1 I I #
point $-1 -49.609668263801993 19.303984298239058 -6.4644828759074091 #
straight-curve $-1 -49.609668263801993 12.012562203524544 -6.4644828759074091 0 -1 0 I I #
point $-1 -49.609668263801993 28.746264515859117 -6.4644828759074091 #
straight-curve $-1 -49.609668263801993 28.746264515859114 0 0 0 -1 I I #
straight-curve $-1 -61.672002806622991 0.50458947830773759 10.937740027403336 1 0 0 I I #
point $-1 -49.609668263801993 0.50458947830773759 10.937740027403335 #
straight-curve $-1 -43.941355305890369 2.9452417416687968 10.937740027403335 0 1 0 I I #
point $-1 -43.941355305890369 0.50458947830773759 10.937740027403335 #
point $-1 -43.31207629462407 3.582243195467651 4.6715990496044055 #
point $-1 -43.31207629462407 8.1987237712075292 4.6715990496044055 #
straight-curve $-1 30.919565650755381 19.303984298239055 10.937740027403336 -1 0 0 I I #
point $-1 49.609668263801993 19.303984298239055 10.937740027403335 #
straight-curve $-1 42.328325822009603 8.1313352425459353 10.937740027403329 0 -1 0 I I #
point $-1 42.32832582200961 19.303984298239055 10.937740027403336 #
point $-1 44.664731962200563 14.959250279457361 5.5045485873271369 #
point $-1 44.664731962200563 17.566090690726373 5.5045485873271369 #
End-of-ACIS-data 