500 0 6 0           
7 Unknown 11 ACIS 5.0 NT 24 Fri Mar 26 15:22:03 1999 
-1 9.9999999999999995e-007 1e-010 
body $-1 $6 $-1 $7 #
body $-1 $8 $-1 $9 #
body $-1 $10 $-1 $11 #
body $-1 $12 $-1 $13 #
body $-1 $14 $-1 $15 #
body $-1 $16 $-1 $17 #
lump $-1 $-1 $18 $0 #
transform $-1 1 0 0 0 1 0 0 0 1 78.909878841517383 51.420140172248878 13.822409090402008 1 rotate no_reflect no_shear #
lump $-1 $-1 $19 $1 #
transform $-1 1 0 0 0 1 0 0 0 1 78.909878841517383 51.420140172248878 13.822409090402008 1 rotate no_reflect no_shear #
lump $-1 $-1 $20 $2 #
transform $-1 1 0 0 0 1 0 0 0 1 78.909878841517383 51.420140172248878 13.822409090402008 1 rotate no_reflect no_shear #
lump $-1 $-1 $21 $3 #
transform $-1 1 0 0 0 1 0 0 0 1 78.909878841517383 51.420140172248878 13.822409090402008 1 rotate no_reflect no_shear #
lump $-1 $-1 $22 $4 #
transform $-1 1 0 0 0 1 0 0 0 1 78.909878841517383 51.420140172248878 13.822409090402008 1 rotate no_reflect no_shear #
lump $-1 $-1 $23 $5 #
transform $-1 1 0 0 0 1 0 0 0 1 78.909878841517383 51.420140172248878 13.822409090402008 1 rotate no_reflect no_shear #
shell $-1 $-1 $-1 $24 $-1 $6 #
shell $-1 $-1 $-1 $25 $-1 $8 #
shell $-1 $-1 $-1 $26 $-1 $10 #
shell $-1 $-1 $-1 $27 $-1 $12 #
shell $-1 $-1 $-1 $28 $-1 $14 #
shell $-1 $-1 $-1 $29 $-1 $16 #
face $-1 $30 $31 $18 $-1 $32 forward single #
face $-1 $33 $34 $19 $-1 $35 forward single #
face $-1 $36 $37 $20 $-1 $38 reversed single #
face $-1 $39 $40 $21 $-1 $41 forward single #
face $-1 $42 $43 $22 $-1 $44 forward single #
face $-1 $45 $46 $23 $-1 $47 forward single #
face $-1 $48 $49 $18 $-1 $50 reversed single #
loop $-1 $-1 $51 $24 #
plane-surface $-1 0 0 13.822409090402008 0 0 1 1 0 0 forward_v I I I I #
face $-1 $52 $53 $19 $-1 $54 reversed single #
loop $-1 $-1 $55 $25 #
plane-surface $-1 0 -51.420140172248878 0 0 1 0 0 0 1 forward_v I I I I #
face $-1 $56 $57 $20 $-1 $58 reversed single #
loop $-1 $-1 $59 $26 #
plane-surface $-1 -41.821007597942781 130.76184207241016 176.83625038692594 -1 0 0 0 0.84804810408105047 0.52991925155115449 forward_v I I I I #
face $-1 $60 $61 $21 $-1 $62 forward single #
loop $-1 $63 $64 $27 #
cone-surface $-1 -71.492104592802463 47.233092562662684 8.819284893450817 0 -0.84804810408105047 -0.52991925155115449 2 0 0 1 I I 0 1 2 forward I I I I #
face $-1 $65 $66 $22 $-1 $67 forward single #
loop $-1 $68 $69 $28 #
cone-surface $-1 -60.365443219730075 47.233092562662684 8.819284893450817 0 -0.84804810408105047 -0.52991925155115449 2 0 0 1 I I 0 1 2 forward I I I I #
face $-1 $70 $71 $23 $-1 $72 forward single #
loop $-1 $73 $74 $29 #
cone-surface $-1 -49.238781846657687 47.233092562662684 8.819284893450817 0 -0.84804810408105047 -0.52991925155115449 2 0 0 1 I I 0 1 2 forward I I I I #
face $-1 $75 $76 $18 $-1 $77 reversed single #
loop $-1 $-1 $78 $30 #
plane-surface $-1 0 0 -13.822409090402008 0 0 1 1 0 0 forward_v I I I I #
coedge $-1 $79 $80 $81 $82 forward $31 $-1 #
face $-1 $83 $84 $19 $-1 $85 reversed single #
loop $-1 $-1 $86 $33 #
plane-surface $-1 0 0 -13.822409090402008 0 0 1 1 0 0 forward_v I I I I #
coedge $-1 $87 $88 $89 $90 forward $34 $-1 #
face $-1 $91 $92 $20 $-1 $93 reversed single #
loop $-1 $-1 $94 $36 #
plane-surface $-1 -60.365443219730082 -3.0769042172182708 93.204522515547595 0 0.84804810408105047 0.52991925155115449 1 0 0 forward_v I I I I #
coedge $-1 $95 $96 $97 $98 reversed $37 $-1 #
face $-1 $-1 $99 $21 $-1 $100 forward single #
loop $-1 $101 $102 $39 #
cone-surface $-1 -71.492104592802463 44.644794984464085 7.2019371170331929 0 -0.84804810408105047 -0.52991925155115449 1 0 0 1 I I -0.70710678118654746 0.70710678118654746 1 forward I I I I #
loop $-1 $-1 $103 $27 #
coedge $-1 $64 $64 $104 $105 reversed $40 $-1 #
face $-1 $-1 $106 $22 $-1 $107 forward single #
loop $-1 $108 $109 $42 #
cone-surface $-1 -60.365443219730075 44.644794984464085 7.2019371170331929 0 -0.84804810408105047 -0.52991925155115449 1 0 0 1 I I -0.70710678118654746 0.70710678118654746 1 forward I I I I #
loop $-1 $-1 $110 $28 #
coedge $-1 $69 $69 $111 $112 reversed $43 $-1 #
face $-1 $-1 $113 $23 $-1 $114 forward single #
loop $-1 $115 $116 $45 #
cone-surface $-1 -49.238781846657687 44.644794984464085 7.2019371170331929 0 -0.84804810408105047 -0.52991925155115449 1 0 0 1 I I -0.70710678118654746 0.70710678118654746 1 forward I I I I #
loop $-1 $-1 $117 $29 #
coedge $-1 $74 $74 $118 $119 reversed $46 $-1 #
face $-1 $120 $121 $18 $-1 $122 reversed single #
loop $-1 $-1 $123 $48 #
plane-surface $-1 0 -51.420140172248878 0 0 1 0 0 0 1 forward_v I I I I #
coedge $-1 $124 $125 $126 $127 forward $49 $-1 #
coedge $-1 $128 $51 $129 $130 forward $31 $-1 #
coedge $-1 $51 $128 $131 $132 forward $31 $-1 #
coedge $-1 $133 $134 $51 $82 reversed $135 $-1 #
edge $-1 $136 -51.420140172248878 $137 51.420140172248878 $81 $138 forward 7 unknown #
face $-1 $139 $140 $19 $-1 $141 reversed single #
loop $-1 $-1 $142 $52 #
plane-surface $-1 -65.089979780697561 -67.980758927706901 0 0 1 0 0 0 1 forward_v I I I I #
coedge $-1 $143 $144 $88 $145 forward $53 $-1 #
coedge $-1 $146 $55 $147 $148 reversed $34 $-1 #
coedge $-1 $55 $146 $86 $145 reversed $34 $-1 #
coedge $-1 $149 $150 $55 $90 reversed $140 $-1 #
edge $-1 $151 -13.822409090402008 $152 13.822409090402008 $89 $153 forward 7 unknown #
face $-1 $154 $155 $20 $-1 $156 forward single #
loop $-1 $-1 $157 $56 #
plane-surface $-1 -78.909878841517383 0 0 1 0 0 0 0 -1 forward_v I I I I #
coedge $-1 $158 $159 $160 $161 reversed $57 $-1 #
coedge $-1 $96 $59 $162 $163 reversed $37 $-1 #
coedge $-1 $59 $95 $158 $164 reversed $37 $-1 #
coedge $-1 $160 $165 $59 $98 forward $166 $-1 #
edge $-1 $167 74.595716103060965 $168 82.427107447230412 $97 $169 forward 7 unknown #
loop $-1 $-1 $104 $60 #
plane-surface $-1 -60.365443219730082 -3.0769042172182708 93.204522515547595 0 0.84804810408105047 0.52991925155115449 1 0 0 forward_v I I I I #
loop $-1 $-1 $170 $39 #
coedge $-1 $102 $102 $103 $171 reversed $61 $-1 #
coedge $-1 $103 $103 $102 $171 forward $63 $-1 #
coedge $-1 $104 $104 $64 $105 forward $99 $-1 #
edge $-1 $172 7.5321802491239463e-016 $172 6.2831853071796013 $104 $173 forward 7 unknown #
loop $-1 $-1 $111 $65 #
plane-surface $-1 -60.365443219730082 -3.0769042172182708 93.204522515547595 0 0.84804810408105047 0.52991925155115449 1 0 0 forward_v I I I I #
loop $-1 $-1 $174 $42 #
coedge $-1 $109 $109 $110 $175 reversed $66 $-1 #
coedge $-1 $110 $110 $109 $175 forward $68 $-1 #
coedge $-1 $111 $111 $69 $112 forward $106 $-1 #
edge $-1 $176 7.5321802491239463e-016 $176 6.2831853071796013 $111 $177 forward 7 unknown #
loop $-1 $-1 $118 $70 #
plane-surface $-1 -60.365443219730082 -3.0769042172182708 93.204522515547595 0 0.84804810408105047 0.52991925155115449 1 0 0 forward_v I I I I #
loop $-1 $-1 $178 $45 #
coedge $-1 $116 $116 $117 $179 reversed $71 $-1 #
coedge $-1 $117 $117 $116 $179 forward $73 $-1 #
coedge $-1 $118 $118 $74 $119 forward $113 $-1 #
edge $-1 $180 7.5321802491239463e-016 $180 6.2831853071796013 $118 $181 forward 7 unknown #
face $-1 $182 $183 $18 $-1 $184 reversed single #
loop $-1 $-1 $185 $75 #
plane-surface $-1 -78.909878841517383 0 0 1 0 0 0 0 -1 forward_v I I I I #
coedge $-1 $186 $131 $187 $188 forward $76 $-1 #
coedge $-1 $189 $78 $186 $190 forward $49 $-1 #
coedge $-1 $78 $189 $191 $192 forward $49 $-1 #
coedge $-1 $134 $133 $78 $127 reversed $135 $-1 #
edge $-1 $193 -51.420140172248878 $194 51.420140172248878 $126 $195 forward 7 unknown #
coedge $-1 $80 $79 $196 $197 forward $31 $-1 #
coedge $-1 $198 $199 $79 $130 reversed $183 $-1 #
edge $-1 $137 -78.909878841517383 $200 78.909878841517383 $129 $201 forward 7 unknown #
coedge $-1 $123 $202 $80 $132 reversed $76 $-1 #
edge $-1 $203 -78.909878841517383 $136 78.909878841517383 $131 $204 forward 7 unknown #
coedge $-1 $126 $81 $202 $205 forward $135 $-1 #
coedge $-1 $81 $126 $198 $206 reversed $135 $-1 #
loop $-1 $-1 $133 $182 #
vertex $-1 $82 $207 #
vertex $-1 $82 $208 #
straight-curve $-1 78.909878841517383 0 13.822409090402008 0 1 0 I I #
face $-1 $209 $210 $19 $-1 $211 reversed single #
loop $-1 $-1 $89 $83 #
plane-surface $-1 -67.162940396901192 -59.70044954997789 0 1 0 0 0 0 -1 forward_v I I I I #
coedge $-1 $212 $213 $214 $215 forward $84 $-1 #
coedge $-1 $216 $86 $217 $218 forward $53 $-1 #
coedge $-1 $86 $216 $149 $219 forward $53 $-1 #
edge $-1 $151 -67.162940396901192 $220 -63.017019164493924 $86 $221 forward 7 unknown #
coedge $-1 $88 $87 $222 $223 forward $34 $-1 #
coedge $-1 $224 $225 $87 $148 forward $226 $-1 #
edge $-1 $227 63.017019164493924 $152 67.162940396901192 $147 $228 forward 7 unknown #
coedge $-1 $214 $89 $144 $219 reversed $140 $-1 #
coedge $-1 $89 $214 $224 $229 reversed $140 $-1 #
vertex $-1 $145 $230 #
vertex $-1 $229 $231 #
straight-curve $-1 -67.162940396901192 -51.420140172248878 0 0 0 1 I I #
face $-1 $-1 $166 $20 $-1 $232 reversed single #
loop $-1 $-1 $162 $91 #
plane-surface $-1 0 0 13.822409090402008 0 0 1 1 0 0 forward_v I I I I #
coedge $-1 $233 $234 $159 $235 forward $92 $-1 #
coedge $-1 $236 $94 $96 $164 forward $57 $-1 #
coedge $-1 $94 $236 $157 $235 reversed $57 $-1 #
coedge $-1 $237 $97 $94 $161 forward $166 $-1 #
edge $-1 $168 11.63828598807774 $238 48.727157231652342 $160 $239 forward 7 unknown #
coedge $-1 $240 $241 $95 $163 forward $155 $-1 #
edge $-1 $242 -18.85437713489349 $167 -13.960780863956202 $162 $243 forward 7 unknown #
edge $-1 $168 -102.84028034449774 $242 -93.605672889469488 $96 $244 forward 7 unknown #
coedge $-1 $97 $237 $240 $245 reversed $166 $-1 #
loop $-1 $-1 $160 $154 #
vertex $-1 $245 $246 #
vertex $-1 $98 $247 #
straight-curve $-1 -41.821007597942781 51.420140172248878 88.41812519346297 0 0 -1 I I #
coedge $-1 $170 $170 $-1 $248 reversed $101 $-1 #
edge $-1 $249 0 $249 6.2831853071796004 $102 $250 forward 7 unknown #
vertex $-1 $105 $251 #
ellipse-curve $-1 -71.492104592802463 48.973342036780238 9.90671341831729 0 0.84804810408105047 0.52991925155115449 2 0 0 1 I I #
coedge $-1 $174 $174 $-1 $252 reversed $108 $-1 #
edge $-1 $253 0 $253 6.2831853071796004 $109 $254 forward 7 unknown #
vertex $-1 $112 $255 #
ellipse-curve $-1 -60.365443219730075 48.973342036780238 9.90671341831729 0 0.84804810408105047 0.52991925155115449 2 0 0 1 I I #
coedge $-1 $178 $178 $-1 $256 reversed $115 $-1 #
edge $-1 $257 0 $257 6.2831853071796004 $116 $258 forward 7 unknown #
vertex $-1 $119 $259 #
ellipse-curve $-1 -49.238781846657687 48.973342036780238 9.90671341831729 0 0.84804810408105047 0.52991925155115449 2 0 0 1 I I #
face $-1 $-1 $135 $18 $-1 $260 reversed single #
loop $-1 $-1 $198 $120 #
plane-surface $-1 0 51.420140172248878 0 0 -1 0 0 0 -1 forward_v I I I I #
coedge $-1 $261 $196 $199 $262 forward $121 $-1 #
coedge $-1 $202 $123 $124 $190 reversed $76 $-1 #
coedge $-1 $196 $261 $123 $188 reversed $121 $-1 #
edge $-1 $203 -13.822409090402008 $263 13.822409090402008 $187 $264 forward 7 unknown #
coedge $-1 $125 $124 $261 $265 forward $49 $-1 #
edge $-1 $194 -78.909878841517383 $263 78.909878841517383 $186 $266 forward 7 unknown #
coedge $-1 $199 $198 $125 $192 reversed $183 $-1 #
edge $-1 $267 -78.909878841517383 $193 78.909878841517383 $191 $268 forward 7 unknown #
vertex $-1 $127 $269 #
vertex $-1 $205 $270 #
straight-curve $-1 78.909878841517383 0 -13.822409090402008 0 -1 0 I I #
coedge $-1 $185 $187 $128 $197 reversed $121 $-1 #
edge $-1 $200 -51.420140172248878 $203 51.420140172248878 $196 $271 forward 7 unknown #
coedge $-1 $191 $129 $134 $206 forward $183 $-1 #
coedge $-1 $129 $191 $185 $262 reversed $183 $-1 #
vertex $-1 $130 $272 #
straight-curve $-1 0 51.420140172248878 13.822409090402008 -1 0 0 I I #
coedge $-1 $131 $186 $133 $205 reversed $76 $-1 #
vertex $-1 $197 $273 #
straight-curve $-1 0 -51.420140172248878 13.822409090402008 1 0 0 I I #
edge $-1 $136 -13.822409090402008 $194 13.822409090402008 $133 $274 forward 7 unknown #
edge $-1 $137 -13.822409090402008 $193 13.822409090402008 $134 $275 forward 7 unknown #
point $-1 78.909878841517383 -51.420140172248878 13.822409090402008 #
point $-1 78.909878841517383 51.420140172248878 13.822409090402008 #
face $-1 $-1 $226 $19 $-1 $276 forward single #
loop $-1 $-1 $277 $139 #
plane-surface $-1 -63.017019164493924 -59.70044954997789 0 -1 0 0 0 0 1 forward_v I I I I #
coedge $-1 $278 $142 $216 $279 reversed $84 $-1 #
coedge $-1 $142 $278 $280 $281 reversed $84 $-1 #
coedge $-1 $150 $149 $142 $215 reversed $140 $-1 #
edge $-1 $282 -13.822409090402008 $283 13.822409090402008 $214 $284 forward 7 unknown #
coedge $-1 $144 $143 $212 $279 forward $53 $-1 #
coedge $-1 $222 $277 $143 $218 reversed $210 $-1 #
edge $-1 $220 -8.2803093777290115 $285 8.2803093777290115 $217 $286 forward 7 unknown #
edge $-1 $283 -8.2803093777290115 $151 8.2803093777290115 $149 $287 forward 7 unknown #
vertex $-1 $218 $288 #
straight-curve $-1 0 -51.420140172248878 -13.822409090402008 1 0 0 I I #
coedge $-1 $289 $217 $146 $223 reversed $210 $-1 #
edge $-1 $227 -13.822409090402008 $220 13.822409090402008 $222 $290 forward 7 unknown #
coedge $-1 $280 $147 $150 $229 forward $226 $-1 #
coedge $-1 $147 $280 $289 $291 forward $226 $-1 #
loop $-1 $-1 $147 $209 #
vertex $-1 $148 $292 #
straight-curve $-1 0 -51.420140172248878 13.822409090402008 -1 0 0 I I #
edge $-1 $152 -8.2803093777290115 $282 8.2803093777290115 $150 $293 forward 7 unknown #
point $-1 -67.162940396901192 -51.420140172248878 -13.822409090402008 #
point $-1 -67.162940396901192 -51.420140172248878 13.822409090402008 #
plane-surface $-1 0 51.420140172248878 0 0 -1 0 0 0 -1 forward_v I I I I #
coedge $-1 $234 $157 $294 $295 reversed $92 $-1 #
coedge $-1 $157 $233 $237 $296 forward $92 $-1 #
edge $-1 $238 -62.504065649011437 $297 -53.269458193983183 $157 $298 forward 7 unknown #
coedge $-1 $159 $158 $241 $299 reversed $57 $-1 #
coedge $-1 $165 $160 $234 $296 reversed $166 $-1 #
vertex $-1 $235 $300 #
straight-curve $-1 -30.182721609865041 51.420140172248878 5.9910177462325649 -1 0 0 I I #
coedge $-1 $294 $162 $165 $245 forward $155 $-1 #
coedge $-1 $162 $294 $236 $299 forward $155 $-1 #
vertex $-1 $163 $301 #
straight-curve $-1 -41.821007597942781 65.380921036205081 13.822409090402004 0 1 0 I I #
straight-curve $-1 -41.821007597942781 -3.0769042172182708 93.204522515547595 0 -0.52991925155115449 0.84804810408105047 I I #
edge $-1 $167 41.821007597942781 $302 78.909878841517383 $165 $303 forward 7 unknown #
point $-1 -41.821007597942781 51.420140172248878 13.822409090402008 #
point $-1 -41.821007597942781 51.420140172248878 5.9910177462325578 #
edge $-1 $304 1 $304 0 $170 $-1 forward 7 unknown #
vertex $-1 $171 $305 #
ellipse-curve $-1 -71.492104592802463 45.492843088545136 7.7318563685843475 0 0.84804810408105047 0.52991925155115449 2 0 0 1 I I #
point $-1 -69.492104592802463 48.973342036780238 9.9067134183172882 #
edge $-1 $306 1 $306 0 $174 $-1 forward 7 unknown #
vertex $-1 $175 $307 #
ellipse-curve $-1 -60.365443219730075 45.492843088545136 7.7318563685843475 0 0.84804810408105047 0.52991925155115449 2 0 0 1 I I #
point $-1 -58.365443219730075 48.973342036780238 9.9067134183172882 #
edge $-1 $308 1 $308 0 $178 $-1 forward 7 unknown #
vertex $-1 $179 $309 #
ellipse-curve $-1 -49.238781846657687 45.492843088545136 7.7318563685843475 0 0.84804810408105047 0.52991925155115449 2 0 0 1 I I #
point $-1 -47.238781846657687 48.973342036780238 9.9067134183172882 #
plane-surface $-1 78.909878841517383 0 0 -1 0 0 0 0 1 forward_v I I I I #
coedge $-1 $187 $185 $189 $265 reversed $121 $-1 #
edge $-1 $200 -13.822409090402008 $267 13.822409090402008 $199 $310 forward 7 unknown #
vertex $-1 $265 $311 #
straight-curve $-1 -78.909878841517383 -51.420140172248878 0 0 0 -1 I I #
edge $-1 $263 -51.420140172248878 $267 51.420140172248878 $261 $312 forward 7 unknown #
straight-curve $-1 0 -51.420140172248878 -13.822409090402008 -1 0 0 I I #
vertex $-1 $192 $313 #
straight-curve $-1 0 51.420140172248878 -13.822409090402008 1 0 0 I I #
point $-1 78.909878841517383 51.420140172248878 -13.822409090402008 #
point $-1 78.909878841517383 -51.420140172248878 -13.822409090402008 #
straight-curve $-1 -78.909878841517383 0 13.822409090402008 0 -1 0 I I #
point $-1 -78.909878841517383 51.420140172248878 13.822409090402008 #
point $-1 -78.909878841517383 -51.420140172248878 13.822409090402008 #
straight-curve $-1 78.909878841517383 -51.420140172248878 0 0 0 -1 I I #
straight-curve $-1 78.909878841517383 51.420140172248878 0 0 0 -1 I I #
plane-surface $-1 0 0 13.822409090402008 0 0 1 1 0 0 forward_v I I I I #
coedge $-1 $217 $289 $278 $314 forward $210 $-1 #
coedge $-1 $213 $212 $277 $314 reversed $84 $-1 #
edge $-1 $285 -2.0729606162036376 $283 2.0729606162036305 $212 $315 forward 7 unknown #
coedge $-1 $225 $224 $213 $281 forward $226 $-1 #
edge $-1 $282 -2.0729606162036305 $316 2.0729606162036376 $213 $317 forward 7 unknown #
vertex $-1 $229 $318 #
vertex $-1 $219 $319 #
straight-curve $-1 -67.162940396901192 -67.980758927706901 0 0 0 -1 I I #
vertex $-1 $314 $320 #
straight-curve $-1 -63.017019164493924 -59.70044954997789 -13.822409090402008 0 -1 0 I I #
straight-curve $-1 -67.162940396901192 -59.70044954997789 -13.822409090402008 0 1 0 I I #
point $-1 -63.017019164493924 -51.420140172248878 -13.822409090402008 #
coedge $-1 $277 $222 $225 $291 reversed $210 $-1 #
straight-curve $-1 -63.017019164493924 -51.420140172248878 0 0 0 -1 I I #
edge $-1 $316 -8.2803093777290115 $227 8.2803093777290115 $289 $321 forward 7 unknown #
point $-1 -63.017019164493924 -51.420140172248878 13.822409090402008 #
straight-curve $-1 -67.162940396901192 -59.70044954997789 13.822409090402008 0 -1 0 I I #
coedge $-1 $241 $240 $233 $295 forward $155 $-1 #
edge $-1 $302 -51.420140172248878 $297 -46.526543901311591 $233 $322 forward 7 unknown #
edge $-1 $302 -13.822409090402008 $238 -5.9910177462325551 $237 $323 forward 7 unknown #
vertex $-1 $235 $324 #
straight-curve $-1 -78.909878841517383 18.298032484620514 58.997472117234224 0 -0.52991925155115449 0.84804810408105047 I I #
edge $-1 $297 -48.727157231652342 $242 -11.63828598807774 $241 $325 forward 7 unknown #
point $-1 -78.909878841517383 51.420140172248878 5.9910177462325551 #
point $-1 -41.821007597942781 46.526543901311591 13.822409090402004 #
vertex $-1 $245 $326 #
straight-curve $-1 0 51.420140172248878 13.822409090402008 -1 0 0 I I #
vertex $-1 $248 $327 #
point $-1 -69.492104592802463 45.492843088545136 7.7318563685843475 #
vertex $-1 $252 $328 #
point $-1 -58.365443219730075 45.492843088545136 7.7318563685843475 #
vertex $-1 $256 $329 #
point $-1 -47.238781846657687 45.492843088545136 7.7318563685843475 #
straight-curve $-1 -78.909878841517383 51.420140172248878 0 0 0 -1 I I #
point $-1 -78.909878841517383 -51.420140172248878 -13.822409090402008 #
straight-curve $-1 -78.909878841517383 0 -13.822409090402008 0 1 0 I I #
point $-1 -78.909878841517383 51.420140172248878 -13.822409090402008 #
edge $-1 $316 -13.822409090402008 $285 13.822409090402008 $277 $330 forward 7 unknown #
straight-curve $-1 -65.089979780697561 -67.980758927706901 -13.822409090402008 -1 0 0 I I #
vertex $-1 $291 $331 #
straight-curve $-1 -65.089979780697561 -67.980758927706901 13.822409090402008 1 0 0 I I #
point $-1 -67.162940396901192 -67.980758927706901 13.822409090402008 #
point $-1 -67.162940396901192 -67.980758927706901 -13.822409090402008 #
point $-1 -63.017019164493924 -67.980758927706901 -13.822409090402008 #
straight-curve $-1 -63.017019164493924 -59.70044954997789 13.822409090402008 0 1 0 I I #
straight-curve $-1 -78.909878841517383 0 13.822409090402008 0 -1 0 I I #
straight-curve $-1 -78.909878841517383 51.420140172248878 0 0 0 -1 I I #
point $-1 -78.909878841517383 46.526543901311591 13.822409090402004 #
straight-curve $-1 -30.182721609865041 46.526543901311591 13.822409090402012 1 0 0 I I #
point $-1 -78.909878841517383 51.420140172248878 13.822409090402008 #
point $-1 -71.492104592802463 43.796746880383033 6.6720178654820383 #
point $-1 -60.365443219730075 43.796746880383033 6.6720178654820383 #
point $-1 -49.238781846657687 43.796746880383033 6.6720178654820383 #
straight-curve $-1 -63.017019164493924 -67.980758927706901 0 0 0 -1 I I #
point $-1 -63.017019164493924 -67.980758927706901 13.822409090402008 #
End-of-ACIS-data 