500 0 9 0           
7 Unknown 11 ACIS 5.0 NT 24 Thu Mar 25 23:45:27 1999 
-1 9.9999999999999995e-007 1e-010 
body $-1 $9 $-1 $10 #
body $-1 $11 $-1 $12 #
body $-1 $13 $-1 $14 #
body $-1 $15 $-1 $16 #
body $-1 $17 $-1 $18 #
body $-1 $19 $-1 $20 #
body $-1 $21 $-1 $22 #
body $-1 $23 $-1 $24 #
body $-1 $25 $-1 $26 #
lump $-1 $-1 $27 $0 #
transform $-1 1 0 0 0 1 0 0 0 1 56.104007080294195 31.750721033199603 13.674796306681397 1 rotate no_reflect no_shear #
lump $-1 $-1 $28 $1 #
transform $-1 1 0 0 0 1 0 0 0 1 56.104007080294195 31.750721033199603 13.674796306681397 1 rotate no_reflect no_shear #
lump $-1 $-1 $29 $2 #
transform $-1 1 0 0 0 1 0 0 0 1 56.104007080294195 31.750721033199603 13.674796306681397 1 rotate no_reflect no_shear #
lump $-1 $-1 $30 $3 #
transform $-1 1 0 0 0 1 0 0 0 1 56.104007080294195 31.750721033199603 13.674796306681397 1 rotate no_reflect no_shear #
lump $-1 $-1 $31 $4 #
transform $-1 1 0 0 0 1 0 0 0 1 56.104007080294195 31.750721033199603 13.674796306681397 1 rotate no_reflect no_shear #
lump $-1 $-1 $32 $5 #
transform $-1 1 0 0 0 1 0 0 0 1 56.104007080294195 31.750721033199603 13.674796306681397 1 rotate no_reflect no_shear #
lump $-1 $-1 $33 $6 #
transform $-1 1 0 0 0 1 0 0 0 1 56.104007080294195 31.750721033199603 13.674796306681397 1 rotate no_reflect no_shear #
lump $-1 $-1 $34 $7 #
transform $-1 1 0 0 0 1 0 0 0 1 56.104007080294195 31.750721033199603 13.674796306681397 1 rotate no_reflect no_shear #
lump $-1 $-1 $35 $8 #
transform $-1 1 0 0 0 1 0 0 0 1 56.104007080294195 31.750721033199603 13.674796306681397 1 rotate no_reflect no_shear #
shell $-1 $-1 $-1 $36 $-1 $9 #
shell $-1 $-1 $-1 $37 $-1 $11 #
shell $-1 $-1 $-1 $38 $-1 $13 #
shell $-1 $-1 $-1 $39 $-1 $15 #
shell $-1 $-1 $-1 $40 $-1 $17 #
shell $-1 $-1 $-1 $41 $-1 $19 #
shell $-1 $-1 $-1 $42 $-1 $21 #
shell $-1 $-1 $-1 $43 $-1 $23 #
shell $-1 $-1 $-1 $44 $-1 $25 #
face $-1 $45 $46 $27 $-1 $47 forward single #
face $-1 $48 $49 $28 $-1 $50 forward single #
face $-1 $51 $52 $29 $-1 $53 forward single #
face $-1 $54 $55 $30 $-1 $56 reversed single #
face $-1 $57 $58 $31 $-1 $59 forward single #
face $-1 $60 $61 $32 $-1 $62 forward single #
face $-1 $63 $64 $33 $-1 $65 forward single #
face $-1 $66 $67 $34 $-1 $68 reversed single #
face $-1 $69 $70 $35 $-1 $71 forward single #
face $-1 $72 $73 $27 $-1 $74 reversed single #
loop $-1 $-1 $75 $36 #
plane-surface $-1 0 0 13.674796306681397 0 0 1 1 0 0 forward_v I I I I #
face $-1 $76 $77 $28 $-1 $78 reversed single #
loop $-1 $-1 $79 $37 #
plane-surface $-1 -49.157117073594293 0 11.752377048934026 0 0 1 1 0 0 forward_v I I I I #
face $-1 $80 $81 $29 $-1 $82 reversed single #
loop $-1 $-1 $83 $38 #
plane-surface $-1 49.157117073594293 0 11.752377048934026 0 0 1 1 0 0 forward_v I I I I #
face $-1 $84 $85 $30 $-1 $86 reversed single #
loop $-1 $-1 $87 $39 #
plane-surface $-1 -15.886760426244393 -106.83253848979717 85.164579593283378 1 0 0 0 0.66913061440640931 -0.74314481823134659 forward_v I I I I #
face $-1 $88 $89 $31 $-1 $90 forward single #
loop $-1 $91 $92 $40 #
cone-surface $-1 -10.8775953469219 -23.02084348636016 5.368025143668226 0 0.66913061440640931 -0.74314481823134659 2.5 0 0 1 I I 0 1 2.5 forward I I I I #
face $-1 $93 $94 $32 $-1 $95 forward single #
loop $-1 $96 $97 $41 #
cone-surface $-1 -3.3638477279381576 -23.02084348636016 5.368025143668226 0 0.66913061440640931 -0.74314481823134659 2.5 0 0 1 I I 0 1 2.5 forward I I I I #
face $-1 $98 $99 $33 $-1 $100 forward single #
loop $-1 $101 $102 $42 #
cone-surface $-1 4.1498998910455853 -23.02084348636016 5.368025143668226 0 0.66913061440640931 -0.74314481823134659 2.5 0 0 1 I I 0 1 2.5 forward I I I I #
face $-1 $103 $104 $34 $-1 $105 reversed single #
loop $-1 $-1 $106 $43 #
plane-surface $-1 -18.923043047024507 70.506589680143861 126.23069707150887 -1 0 0 0 0.73135370988377701 0.68199835119979291 forward_v I I I I #
face $-1 $107 $108 $35 $-1 $109 forward single #
loop $-1 $110 $111 $44 #
cone-surface $-1 -30.566635056959452 25.190852699329195 6.878689723405655 0 -0.73135370988377701 -0.68199835119979291 3 0 0 1 I I 0 1 3 forward I I I I #
face $-1 $112 $113 $27 $-1 $114 reversed single #
loop $-1 $-1 $115 $45 #
plane-surface $-1 0 0 -13.674796306681397 0 0 1 1 0 0 forward_v I I I I #
coedge $-1 $116 $117 $118 $119 forward $46 $-1 #
face $-1 $120 $121 $28 $-1 $122 reversed single #
loop $-1 $-1 $123 $48 #
plane-surface $-1 -49.157117073594293 0 5.2817741003402467 0 0 1 1 0 0 forward_v I I I I #
coedge $-1 $124 $125 $126 $127 forward $49 $-1 #
face $-1 $128 $129 $29 $-1 $130 reversed single #
loop $-1 $-1 $131 $51 #
plane-surface $-1 49.157117073594293 0 5.2817741003402467 0 0 1 1 0 0 forward_v I I I I #
coedge $-1 $132 $133 $134 $135 reversed $52 $-1 #
face $-1 $136 $137 $30 $-1 $138 reversed single #
loop $-1 $-1 $139 $54 #
plane-surface $-1 -3.3638477279381576 -31.750721033199582 1.7777753058125541 0 -0.66913061440640931 0.74314481823134659 1 0 0 forward_v I I I I #
coedge $-1 $140 $141 $142 $143 reversed $55 $-1 #
face $-1 $-1 $144 $31 $-1 $145 forward single #
loop $-1 $146 $147 $57 #
cone-surface $-1 -10.8775953469219 -20.061042734015881 2.0808334583002832 0 0.66913061440640931 -0.74314481823134659 1.25 0 0 1 I I -0.70710678118654746 0.70710678118654746 1.25 forward I I I I #
loop $-1 $-1 $148 $40 #
coedge $-1 $92 $92 $149 $150 reversed $58 $-1 #
face $-1 $-1 $151 $32 $-1 $152 forward single #
loop $-1 $153 $154 $60 #
cone-surface $-1 -3.3638477279381576 -20.061042734015881 2.0808334583002832 0 0.66913061440640931 -0.74314481823134659 1.25 0 0 1 I I -0.70710678118654746 0.70710678118654746 1.25 forward I I I I #
loop $-1 $-1 $155 $41 #
coedge $-1 $97 $97 $156 $157 reversed $61 $-1 #
face $-1 $-1 $158 $33 $-1 $159 forward single #
loop $-1 $160 $161 $63 #
cone-surface $-1 4.1498998910455853 -20.061042734015881 2.0808334583002832 0 0.66913061440640931 -0.74314481823134659 1.25 0 0 1 I I -0.70710678118654746 0.70710678118654746 1.25 forward I I I I #
loop $-1 $-1 $162 $42 #
coedge $-1 $102 $102 $163 $164 reversed $64 $-1 #
face $-1 $165 $166 $34 $-1 $167 reversed single #
loop $-1 $-1 $168 $66 #
plane-surface $-1 -30.566635056959452 -11.557157754893851 49.705016422584578 0 0.73135370988377701 0.68199835119979291 1 0 0 forward_v I I I I #
coedge $-1 $169 $170 $171 $172 reversed $67 $-1 #
face $-1 $-1 $173 $35 $-1 $174 forward single #
loop $-1 $175 $176 $69 #
cone-surface $-1 -30.566635056959452 22.388531695360633 4.2654831744940189 0 -0.73135370988377701 -0.68199835119979291 1.5 0 0 1 I I -0.70710678118654757 0.70710678118654757 1.5 forward I I I I #
loop $-1 $-1 $177 $44 #
coedge $-1 $111 $111 $178 $179 reversed $70 $-1 #
face $-1 $180 $181 $27 $-1 $182 reversed single #
loop $-1 $-1 $183 $72 #
plane-surface $-1 0 -31.750721033199603 0 0 1 0 0 0 1 forward_v I I I I #
coedge $-1 $184 $185 $186 $187 forward $73 $-1 #
coedge $-1 $188 $75 $189 $190 forward $46 $-1 #
coedge $-1 $75 $188 $191 $192 forward $46 $-1 #
coedge $-1 $193 $194 $75 $119 reversed $195 $-1 #
edge $-1 $196 -31.750721033199603 $197 31.750721033199603 $118 $198 forward 7 unknown #
face $-1 $199 $200 $28 $-1 $201 reversed single #
loop $-1 $-1 $202 $76 #
plane-surface $-1 -42.21022706689439 0 8.5170755746371363 -1 0 0 0 0 1 forward_v I I I I #
coedge $-1 $203 $204 $205 $206 forward $77 $-1 #
coedge $-1 $207 $79 $208 $209 reversed $49 $-1 #
coedge $-1 $79 $207 $210 $211 reversed $49 $-1 #
coedge $-1 $202 $212 $79 $127 reversed $121 $-1 #
edge $-1 $213 -31.750721033199603 $214 31.750721033199603 $126 $215 forward 7 unknown #
face $-1 $216 $217 $29 $-1 $218 reversed single #
loop $-1 $-1 $219 $80 #
plane-surface $-1 42.21022706689439 0 8.5170755746371363 1 0 0 0 0 -1 forward_v I I I I #
coedge $-1 $220 $221 $222 $223 reversed $81 $-1 #
coedge $-1 $224 $83 $225 $226 reversed $52 $-1 #
coedge $-1 $83 $224 $227 $228 reversed $52 $-1 #
coedge $-1 $229 $230 $83 $135 forward $231 $-1 #
edge $-1 $232 -31.750721033199603 $233 31.750721033199603 $134 $234 forward 7 unknown #
face $-1 $235 $236 $30 $-1 $237 forward single #
loop $-1 $-1 $238 $84 #
plane-surface $-1 9.1590649703680782 -106.83253848979717 85.164579593283378 -1 0 0 0 -0.66913061440640931 0.74314481823134659 forward_v I I I I #
coedge $-1 $239 $240 $241 $242 reversed $85 $-1 #
coedge $-1 $141 $87 $243 $244 reversed $55 $-1 #
coedge $-1 $87 $140 $239 $245 reversed $55 $-1 #
coedge $-1 $241 $246 $87 $143 forward $247 $-1 #
edge $-1 $248 28.907493489960292 $249 40.804514490829156 $142 $250 forward 7 unknown #
loop $-1 $-1 $149 $88 #
plane-surface $-1 -3.3638477279381576 -31.750721033199582 1.7777753058125541 0 -0.66913061440640931 0.74314481823134659 1 0 0 forward_v I I I I #
loop $-1 $-1 $251 $57 #
coedge $-1 $147 $147 $148 $252 reversed $89 $-1 #
coedge $-1 $148 $148 $147 $252 forward $91 $-1 #
coedge $-1 $149 $149 $92 $150 forward $144 $-1 #
edge $-1 $253 6.6271219464415093e-016 $253 6.2831853071796013 $149 $254 forward 7 unknown #
loop $-1 $-1 $156 $93 #
plane-surface $-1 -3.3638477279381576 -31.750721033199582 1.7777753058125541 0 -0.66913061440640931 0.74314481823134659 1 0 0 forward_v I I I I #
loop $-1 $-1 $255 $60 #
coedge $-1 $154 $154 $155 $256 reversed $94 $-1 #
coedge $-1 $155 $155 $154 $256 forward $96 $-1 #
coedge $-1 $156 $156 $97 $157 forward $151 $-1 #
edge $-1 $257 6.6271219464415093e-016 $257 6.2831853071796013 $156 $258 forward 7 unknown #
loop $-1 $-1 $163 $98 #
plane-surface $-1 -3.3638477279381576 -31.750721033199582 1.7777753058125541 0 -0.66913061440640931 0.74314481823134659 1 0 0 forward_v I I I I #
loop $-1 $-1 $259 $63 #
coedge $-1 $161 $161 $162 $260 reversed $99 $-1 #
coedge $-1 $162 $162 $161 $260 forward $101 $-1 #
coedge $-1 $163 $163 $102 $164 forward $158 $-1 #
edge $-1 $261 6.6271219464415093e-016 $261 6.2831853071796013 $163 $262 forward 7 unknown #
face $-1 $263 $264 $34 $-1 $265 forward single #
loop $-1 $-1 $171 $103 #
plane-surface $-1 0 31.750721033199603 0 0 -1 0 0 0 -1 forward_v I I I I #
coedge $-1 $266 $267 $268 $269 reversed $104 $-1 #
coedge $-1 $170 $106 $270 $271 reversed $67 $-1 #
coedge $-1 $106 $169 $266 $272 reversed $67 $-1 #
coedge $-1 $268 $273 $106 $172 forward $166 $-1 #
edge $-1 $274 49.440552229073035 $275 59.852347351400681 $171 $276 forward 7 unknown #
loop $-1 $-1 $178 $107 #
plane-surface $-1 -30.566635056959452 -11.557157754893851 49.705016422584578 0 0.73135370988377701 0.68199835119979291 1 0 0 forward_v I I I I #
loop $-1 $-1 $277 $69 #
coedge $-1 $176 $176 $177 $278 reversed $108 $-1 #
coedge $-1 $177 $177 $176 $278 forward $110 $-1 #
coedge $-1 $178 $178 $111 $179 forward $173 $-1 #
edge $-1 $279 -3.5069091583739076e-016 $279 6.2831853071796004 $178 $280 forward 7 unknown #
face $-1 $281 $282 $27 $-1 $283 reversed single #
loop $-1 $-1 $284 $112 #
plane-surface $-1 -56.104007080294195 0 0 1 0 0 0 0 -1 forward_v I I I I #
coedge $-1 $285 $191 $286 $287 forward $113 $-1 #
coedge $-1 $288 $115 $285 $289 forward $73 $-1 #
coedge $-1 $115 $288 $290 $291 forward $73 $-1 #
coedge $-1 $194 $193 $115 $187 reversed $195 $-1 #
edge $-1 $292 -31.750721033199603 $293 31.750721033199603 $186 $294 forward 7 unknown #
coedge $-1 $117 $116 $295 $296 forward $46 $-1 #
coedge $-1 $297 $298 $116 $190 reversed $282 $-1 #
edge $-1 $197 -56.104007080294195 $299 56.104007080294195 $189 $300 forward 7 unknown #
coedge $-1 $183 $301 $117 $192 reversed $113 $-1 #
edge $-1 $302 -56.104007080294195 $196 56.104007080294195 $191 $303 forward 7 unknown #
coedge $-1 $186 $118 $301 $304 forward $195 $-1 #
coedge $-1 $118 $186 $297 $305 reversed $195 $-1 #
loop $-1 $-1 $193 $281 #
vertex $-1 $119 $306 #
vertex $-1 $119 $307 #
straight-curve $-1 56.104007080294195 0 13.674796306681397 0 1 0 I I #
face $-1 $308 $309 $28 $-1 $310 reversed single #
loop $-1 $-1 $311 $120 #
plane-surface $-1 0 -31.750721033199603 0 0 1 0 0 0 1 forward_v I I I I #
coedge $-1 $205 $126 $312 $313 reversed $121 $-1 #
coedge $-1 $314 $123 $311 $315 reversed $77 $-1 #
coedge $-1 $123 $314 $316 $317 reversed $77 $-1 #
coedge $-1 $212 $202 $123 $206 reversed $121 $-1 #
edge $-1 $318 -31.750721033199603 $319 31.750721033199603 $205 $320 forward 7 unknown #
coedge $-1 $125 $124 $321 $322 reversed $49 $-1 #
coedge $-1 $323 $324 $124 $209 forward $325 $-1 #
edge $-1 $326 -31.525448543497049 $214 -17.631668530097244 $208 $327 forward 7 unknown #
coedge $-1 $328 $312 $125 $211 forward $200 $-1 #
edge $-1 $213 17.631668530097244 $329 31.525448543497049 $210 $330 forward 7 unknown #
coedge $-1 $126 $205 $323 $331 reversed $121 $-1 #
vertex $-1 $211 $332 #
vertex $-1 $209 $333 #
straight-curve $-1 -42.21022706689439 0 11.752377048934026 0 1 0 I I #
face $-1 $334 $335 $29 $-1 $336 reversed single #
loop $-1 $-1 $227 $128 #
plane-surface $-1 0 -31.750721033199603 0 0 1 0 0 0 1 forward_v I I I I #
coedge $-1 $337 $338 $339 $340 reversed $129 $-1 #
coedge $-1 $341 $131 $342 $343 reversed $81 $-1 #
coedge $-1 $131 $341 $344 $345 reversed $81 $-1 #
coedge $-1 $230 $229 $131 $223 forward $231 $-1 #
edge $-1 $346 -31.750721033199603 $347 31.750721033199603 $222 $348 forward 7 unknown #
coedge $-1 $133 $132 $338 $349 forward $52 $-1 #
coedge $-1 $350 $339 $132 $226 forward $335 $-1 #
edge $-1 $351 17.631668530097244 $232 31.525448543497049 $225 $352 forward 7 unknown #
coedge $-1 $353 $354 $133 $228 forward $217 $-1 #
edge $-1 $233 -31.525448543497049 $355 -17.631668530097244 $227 $356 forward 7 unknown #
coedge $-1 $222 $134 $354 $357 forward $231 $-1 #
coedge $-1 $134 $222 $350 $358 reversed $231 $-1 #
loop $-1 $-1 $134 $334 #
vertex $-1 $358 $359 #
vertex $-1 $357 $360 #
straight-curve $-1 56.104007080294195 0 11.752377048934026 0 -1 0 I I #
face $-1 $-1 $247 $30 $-1 $361 reversed single #
loop $-1 $-1 $362 $136 #
plane-surface $-1 0 0 13.674796306681397 0 0 1 1 0 0 forward_v I I I I #
coedge $-1 $363 $364 $365 $366 reversed $137 $-1 #
coedge $-1 $367 $139 $141 $245 forward $85 $-1 #
coedge $-1 $139 $367 $363 $368 forward $85 $-1 #
coedge $-1 $365 $142 $139 $242 forward $247 $-1 #
edge $-1 $249 -14.204836562275315 $369 10.840988834337157 $241 $370 forward 7 unknown #
coedge $-1 $371 $372 $140 $244 forward $236 $-1 #
edge $-1 $373 -34.878528336705379 $248 -21.665548211698983 $243 $374 forward 7 unknown #
edge $-1 $249 -2.8618693057405159e-014 $373 17.77981868520958 $141 $375 forward 7 unknown #
coedge $-1 $142 $365 $371 $376 reversed $247 $-1 #
loop $-1 $-1 $365 $235 #
vertex $-1 $376 $377 #
vertex $-1 $143 $378 #
straight-curve $-1 -15.886760426244393 -31.750721033199603 42.582289796641689 0 0 -1 I I #
coedge $-1 $251 $251 $-1 $379 reversed $146 $-1 #
edge $-1 $380 0 $380 6.2831853071796004 $147 $381 forward 7 unknown #
vertex $-1 $150 $382 #
ellipse-curve $-1 -10.8775953469219 -25.144230970696409 7.7262858062469633 0 -0.66913061440640931 0.74314481823134659 2.5 0 0 1 I I #
coedge $-1 $255 $255 $-1 $383 reversed $153 $-1 #
edge $-1 $384 0 $384 6.2831853071796004 $154 $385 forward 7 unknown #
vertex $-1 $157 $386 #
ellipse-curve $-1 -3.3638477279381576 -25.144230970696409 7.7262858062469633 0 -0.66913061440640931 0.74314481823134659 2.5 0 0 1 I I #
coedge $-1 $259 $259 $-1 $387 reversed $160 $-1 #
edge $-1 $388 0 $388 6.2831853071796004 $161 $389 forward 7 unknown #
vertex $-1 $164 $390 #
ellipse-curve $-1 4.1498998910455853 -25.144230970696409 7.7262858062469633 0 -0.66913061440640931 0.74314481823134659 2.5 0 0 1 I I #
face $-1 $-1 $391 $34 $-1 $392 forward single #
loop $-1 $-1 $393 $165 #
plane-surface $-1 -42.21022706689439 0 8.5170755746371363 -1 0 0 0 0 1 forward_v I I I I #
coedge $-1 $394 $168 $170 $272 forward $104 $-1 #
coedge $-1 $168 $394 $393 $395 forward $104 $-1 #
coedge $-1 $396 $171 $168 $269 forward $166 $-1 #
edge $-1 $275 3.6397255185447808 $397 26.926909538414669 $268 $398 forward 7 unknown #
coedge $-1 $399 $400 $169 $271 forward $391 $-1 #
edge $-1 $401 -13.21172959632738 $274 -3.5025738068723271 $270 $402 forward 7 unknown #
edge $-1 $275 -63.501442066399235 $401 -49.265108837184826 $170 $403 forward 7 unknown #
coedge $-1 $171 $396 $399 $404 reversed $166 $-1 #
vertex $-1 $404 $405 #
vertex $-1 $172 $406 #
straight-curve $-1 -18.923043047024507 31.750721033199603 63.115348535754435 0 0 -1 I I #
coedge $-1 $277 $277 $-1 $407 reversed $175 $-1 #
edge $-1 $408 0 $408 6.2831853071796004 $176 $409 forward 7 unknown #
vertex $-1 $179 $410 #
ellipse-curve $-1 -30.566635056959452 26.89614313847207 8.4688987455175813 0 0.73135370988377701 0.68199835119979291 3 0 0 1 I I #
face $-1 $-1 $195 $27 $-1 $411 reversed single #
loop $-1 $-1 $297 $180 #
plane-surface $-1 0 31.750721033199603 0 0 -1 0 0 0 -1 forward_v I I I I #
coedge $-1 $412 $295 $298 $413 forward $181 $-1 #
coedge $-1 $301 $183 $184 $289 reversed $113 $-1 #
coedge $-1 $295 $412 $183 $287 reversed $181 $-1 #
edge $-1 $302 -13.674796306681397 $414 13.674796306681397 $286 $415 forward 7 unknown #
coedge $-1 $185 $184 $412 $416 forward $73 $-1 #
edge $-1 $293 -56.104007080294195 $414 56.104007080294195 $285 $417 forward 7 unknown #
coedge $-1 $298 $297 $185 $291 reversed $282 $-1 #
edge $-1 $418 -56.104007080294195 $292 56.104007080294195 $290 $419 forward 7 unknown #
vertex $-1 $187 $420 #
vertex $-1 $304 $421 #
straight-curve $-1 56.104007080294195 0 -13.674796306681397 0 -1 0 I I #
coedge $-1 $284 $286 $188 $296 reversed $181 $-1 #
edge $-1 $299 -31.750721033199603 $302 31.750721033199603 $295 $422 forward 7 unknown #
coedge $-1 $290 $189 $194 $305 forward $282 $-1 #
coedge $-1 $189 $290 $284 $413 reversed $282 $-1 #
vertex $-1 $190 $423 #
straight-curve $-1 0 31.750721033199603 13.674796306681397 -1 0 0 I I #
coedge $-1 $191 $285 $193 $304 reversed $113 $-1 #
vertex $-1 $296 $424 #
straight-curve $-1 0 -31.750721033199603 13.674796306681397 1 0 0 I I #
edge $-1 $196 -13.674796306681397 $293 13.674796306681397 $193 $425 forward 7 unknown #
edge $-1 $197 -13.674796306681397 $292 13.674796306681397 $194 $426 forward 7 unknown #
point $-1 56.104007080294195 -31.750721033199603 13.674796306681397 #
point $-1 56.104007080294195 31.750721033199603 13.674796306681397 #
face $-1 $-1 $325 $28 $-1 $427 reversed single #
loop $-1 $-1 $428 $199 #
plane-surface $-1 -56.104007080294195 0 0 1 0 0 0 0 -1 forward_v I I I I #
coedge $-1 $312 $328 $203 $315 forward $200 $-1 #
coedge $-1 $210 $311 $202 $313 forward $200 $-1 #
edge $-1 $319 1.0232363130216786 $213 7.4938392616154577 $312 $429 forward 7 unknown #
coedge $-1 $204 $203 $428 $430 reversed $77 $-1 #
edge $-1 $431 -31.525448543497049 $319 -17.631668530097244 $311 $432 forward 7 unknown #
coedge $-1 $324 $323 $204 $317 forward $325 $-1 #
edge $-1 $318 17.631668530097244 $433 31.525448543497049 $316 $434 forward 7 unknown #
vertex $-1 $317 $435 #
vertex $-1 $315 $436 #
straight-curve $-1 -42.21022706689439 0 5.2817741003402467 0 -1 0 I I #
coedge $-1 $437 $438 $207 $322 forward $309 $-1 #
edge $-1 $329 -31.750721033199603 $326 31.750721033199603 $321 $439 forward 7 unknown #
coedge $-1 $316 $208 $212 $331 forward $325 $-1 #
coedge $-1 $208 $316 $437 $440 reversed $325 $-1 #
loop $-1 $-1 $316 $308 #
vertex $-1 $440 $441 #
straight-curve $-1 -24.578558536797146 31.750721033199603 11.752377048934026 1 0 0 I I #
coedge $-1 $311 $210 $438 $442 forward $200 $-1 #
vertex $-1 $442 $443 #
straight-curve $-1 -24.578558536797146 -31.750721033199603 11.752377048934026 -1 0 0 I I #
edge $-1 $214 -7.4938392616154577 $318 -1.0232363130216786 $323 $444 forward 7 unknown #
point $-1 -42.21022706689439 -31.750721033199603 11.752377048934026 #
point $-1 -42.21022706689439 31.750721033199603 11.752377048934026 #
face $-1 $-1 $231 $29 $-1 $445 reversed single #
loop $-1 $-1 $225 $216 #
plane-surface $-1 0 31.750721033199603 0 0 -1 0 0 0 -1 forward_v I I I I #
coedge $-1 $446 $219 $341 $447 reversed $129 $-1 #
coedge $-1 $219 $446 $224 $349 reversed $129 $-1 #
coedge $-1 $225 $344 $219 $340 forward $335 $-1 #
edge $-1 $448 1.0232363130216786 $351 7.4938392616154577 $339 $449 forward 7 unknown #
coedge $-1 $221 $220 $337 $447 forward $81 $-1 #
coedge $-1 $354 $353 $220 $343 forward $217 $-1 #
edge $-1 $450 17.631668530097244 $346 31.525448543497049 $342 $451 forward 7 unknown #
coedge $-1 $339 $350 $221 $345 forward $335 $-1 #
edge $-1 $347 -31.525448543497049 $448 -17.631668530097244 $344 $452 forward 7 unknown #
vertex $-1 $223 $453 #
vertex $-1 $223 $454 #
straight-curve $-1 56.104007080294195 0 5.2817741003402467 0 1 0 I I #
edge $-1 $351 -31.750721033199603 $355 31.750721033199603 $338 $455 forward 7 unknown #
coedge $-1 $344 $225 $230 $358 forward $335 $-1 #
vertex $-1 $226 $456 #
straight-curve $-1 24.578558536797146 31.750721033199603 11.752377048934026 1 0 0 I I #
coedge $-1 $342 $227 $446 $457 forward $217 $-1 #
coedge $-1 $227 $342 $229 $357 reversed $217 $-1 #
vertex $-1 $228 $458 #
straight-curve $-1 24.578558536797146 -31.750721033199603 11.752377048934026 -1 0 0 I I #
edge $-1 $233 -11.752377048934026 $346 -5.2817741003402467 $229 $459 forward 7 unknown #
edge $-1 $232 -11.752377048934026 $347 -5.2817741003402467 $230 $460 forward 7 unknown #
point $-1 56.104007080294195 31.750721033199603 11.752377048934026 #
point $-1 56.104007080294195 -31.750721033199603 11.752377048934026 #
plane-surface $-1 0 -31.750721033199603 0 0 1 0 0 0 1 forward_v I I I I #
coedge $-1 $372 $371 $364 $461 forward $236 $-1 #
coedge $-1 $364 $238 $240 $368 reversed $137 $-1 #
coedge $-1 $238 $363 $362 $461 reversed $137 $-1 #
coedge $-1 $246 $241 $238 $366 forward $247 $-1 #
edge $-1 $369 -40.804514490829156 $462 -28.907493489960292 $365 $463 forward 7 unknown #
coedge $-1 $240 $239 $372 $464 reversed $85 $-1 #
edge $-1 $465 -17.77981868520958 $369 2.8618693057405159e-014 $363 $466 forward 7 unknown #
vertex $-1 $242 $467 #
straight-curve $-1 -1.6819238639690788 -31.750721033199603 1.7777753058125325 1 0 0 I I #
coedge $-1 $362 $243 $246 $376 forward $236 $-1 #
coedge $-1 $243 $362 $367 $464 forward $236 $-1 #
vertex $-1 $244 $468 #
straight-curve $-1 -15.886760426244393 -53.416269244898587 13.674796306681401 0 -1 0 I I #
straight-curve $-1 -15.886760426244393 -31.750721033199582 1.7777753058125541 0 0.74314481823134659 0.66913061440640931 I I #
edge $-1 $248 -15.886760426244393 $462 9.1590649703680782 $246 $469 forward 7 unknown #
point $-1 -15.886760426244393 -31.750721033199603 13.674796306681397 #
point $-1 -15.886760426244393 -31.750721033199603 1.777775305812535 #
edge $-1 $470 1 $470 0 $251 $-1 forward 7 unknown #
vertex $-1 $252 $471 #
ellipse-curve $-1 -10.8775953469219 -20.897456002023894 3.0097644810894666 0 -0.66913061440640931 0.74314481823134659 2.5 0 0 1 I I #
point $-1 -8.3775953469219004 -25.144230970696427 7.7262858062469855 #
edge $-1 $472 1 $472 0 $255 $-1 forward 7 unknown #
vertex $-1 $256 $473 #
ellipse-curve $-1 -3.3638477279381576 -20.897456002023894 3.0097644810894666 0 -0.66913061440640931 0.74314481823134659 2.5 0 0 1 I I #
point $-1 -0.86384772793815756 -25.144230970696427 7.7262858062469855 #
edge $-1 $474 1 $474 0 $259 $-1 forward 7 unknown #
vertex $-1 $260 $475 #
ellipse-curve $-1 4.1498998910455853 -20.897456002023894 3.0097644810894666 0 -0.66913061440640931 0.74314481823134659 2.5 0 0 1 I I #
point $-1 6.6498998910455853 -25.144230970696427 7.7262858062469855 #
loop $-1 $-1 $270 $263 #
plane-surface $-1 0 0 13.674796306681397 0 0 1 1 0 0 forward_v I I I I #
coedge $-1 $476 $477 $267 $395 reversed $264 $-1 #
coedge $-1 $267 $266 $400 $478 reversed $104 $-1 #
edge $-1 $479 49.265108837184826 $397 63.501442066399235 $393 $480 forward 7 unknown #
coedge $-1 $273 $268 $477 $481 forward $166 $-1 #
vertex $-1 $269 $482 #
straight-curve $-1 -15.283317528479726 31.7507210331996 3.263001184353751 -1 0 0 I I #
coedge $-1 $483 $270 $273 $404 forward $391 $-1 #
coedge $-1 $270 $483 $394 $478 forward $391 $-1 #
vertex $-1 $271 $484 #
straight-curve $-1 -18.923043047024507 35.253294840071931 13.674796306681401 0 1 0 I I #
straight-curve $-1 -18.923043047024507 -11.557157754893851 49.705016422584578 0 -0.68199835119979291 0.73135370988377701 I I #
edge $-1 $274 18.923043047024507 $485 42.210227066894397 $273 $486 forward 7 unknown #
point $-1 -18.923043047024507 31.750721033199603 13.674796306681397 #
point $-1 -18.923043047024507 31.750721033199603 3.2630011843537545 #
edge $-1 $487 1 $487 0 $277 $-1 forward 7 unknown #
vertex $-1 $278 $488 #
ellipse-curve $-1 -30.566635056959452 23.485562260186299 5.2884807012937083 0 0.73135370988377701 0.68199835119979291 3 0 0 1 I I #
point $-1 -27.566635056959452 26.896143138472091 8.4688987455176026 #
plane-surface $-1 56.104007080294195 0 0 -1 0 0 0 0 1 forward_v I I I I #
coedge $-1 $286 $284 $288 $416 reversed $181 $-1 #
edge $-1 $299 -13.674796306681397 $418 13.674796306681397 $298 $489 forward 7 unknown #
vertex $-1 $416 $490 #
straight-curve $-1 -56.104007080294195 -31.750721033199603 0 0 0 -1 I I #
edge $-1 $414 -31.750721033199603 $418 31.750721033199603 $412 $491 forward 7 unknown #
straight-curve $-1 0 -31.750721033199603 -13.674796306681397 -1 0 0 I I #
vertex $-1 $291 $492 #
straight-curve $-1 0 31.750721033199603 -13.674796306681397 1 0 0 I I #
point $-1 56.104007080294195 31.750721033199603 -13.674796306681397 #
point $-1 56.104007080294195 -31.750721033199603 -13.674796306681397 #
straight-curve $-1 -56.104007080294195 0 13.674796306681397 0 -1 0 I I #
point $-1 -56.104007080294195 31.750721033199603 13.674796306681397 #
point $-1 -56.104007080294195 -31.750721033199603 13.674796306681397 #
straight-curve $-1 56.104007080294195 -31.750721033199603 0 0 0 -1 I I #
straight-curve $-1 56.104007080294195 31.750721033199603 0 0 0 -1 I I #
plane-surface $-1 0 31.750721033199603 0 0 -1 0 0 0 -1 forward_v I I I I #
coedge $-1 $438 $437 $314 $430 forward $309 $-1 #
straight-curve $-1 -42.21022706689439 -31.750721033199603 4.2585377873185681 0 0 1 I I #
edge $-1 $433 -31.750721033199603 $431 31.750721033199603 $428 $493 forward 7 unknown #
vertex $-1 $315 $494 #
straight-curve $-1 -24.578558536797146 -31.750721033199603 5.2817741003402467 1 0 0 I I #
vertex $-1 $317 $495 #
straight-curve $-1 -24.578558536797146 31.750721033199603 5.2817741003402467 -1 0 0 I I #
point $-1 -42.21022706689439 31.750721033199603 5.2817741003402467 #
point $-1 -42.21022706689439 -31.750721033199603 5.2817741003402467 #
coedge $-1 $428 $321 $324 $440 forward $309 $-1 #
coedge $-1 $321 $428 $328 $442 reversed $309 $-1 #
straight-curve $-1 -56.104007080294195 0 11.752377048934026 0 1 0 I I #
edge $-1 $326 -11.752377048934026 $433 -5.2817741003402467 $324 $496 forward 7 unknown #
point $-1 -56.104007080294195 31.750721033199603 11.752377048934026 #
edge $-1 $329 -11.752377048934026 $431 -5.2817741003402467 $438 $497 forward 7 unknown #
point $-1 -56.104007080294195 -31.750721033199603 11.752377048934026 #
straight-curve $-1 -42.21022706689439 31.750721033199603 4.2585377873185681 0 0 -1 I I #
plane-surface $-1 56.104007080294195 0 0 -1 0 0 0 0 1 forward_v I I I I #
coedge $-1 $338 $337 $353 $457 reversed $129 $-1 #
edge $-1 $450 -31.750721033199603 $448 31.750721033199603 $337 $498 forward 7 unknown #
vertex $-1 $345 $499 #
straight-curve $-1 42.21022706689439 31.750721033199603 4.2585377873185681 0 0 1 I I #
vertex $-1 $343 $500 #
straight-curve $-1 24.578558536797146 -31.750721033199603 5.2817741003402467 1 0 0 I I #
straight-curve $-1 24.578558536797146 31.750721033199603 5.2817741003402467 -1 0 0 I I #
point $-1 56.104007080294195 -31.750721033199603 5.2817741003402467 #
point $-1 56.104007080294195 31.750721033199603 5.2817741003402467 #
straight-curve $-1 42.21022706689439 0 11.752377048934026 0 -1 0 I I #
point $-1 42.21022706689439 31.750721033199603 11.752377048934026 #
edge $-1 $355 -7.4938392616154577 $450 -1.0232363130216786 $353 $501 forward 7 unknown #
point $-1 42.21022706689439 -31.750721033199603 11.752377048934026 #
straight-curve $-1 56.104007080294195 -31.750721033199603 0 0 0 -1 I I #
straight-curve $-1 56.104007080294195 31.750721033199603 0 0 0 -1 I I #
edge $-1 $462 21.665548211698983 $465 34.878528336705379 $362 $502 forward 7 unknown #
vertex $-1 $461 $503 #
straight-curve $-1 9.1590649703680782 -31.750721033199603 42.582289796641689 0 0 1 I I #
edge $-1 $465 -10.840988834337157 $373 14.204836562275315 $372 $504 forward 7 unknown #
vertex $-1 $464 $505 #
straight-curve $-1 9.1590649703680782 -31.750721033199582 1.7777753058125541 0 -0.74314481823134659 -0.66913061440640931 I I #
point $-1 9.1590649703680782 -31.750721033199603 1.777775305812535 #
point $-1 -15.886760426244393 -18.537740908193207 13.674796306681397 #
straight-curve $-1 0 -31.750721033199603 13.674796306681397 1 0 0 I I #
vertex $-1 $379 $506 #
point $-1 -8.3775953469219004 -20.897456002023894 3.0097644810894666 #
vertex $-1 $383 $507 #
point $-1 -0.86384772793815756 -20.897456002023894 3.0097644810894666 #
vertex $-1 $387 $508 #
point $-1 6.6498998910455853 -20.897456002023894 3.0097644810894666 #
coedge $-1 $477 $393 $483 $509 reversed $264 $-1 #
coedge $-1 $393 $476 $396 $481 reversed $264 $-1 #
edge $-1 $479 -26.926909538414669 $401 -3.6397255185447808 $400 $510 forward 7 unknown #
vertex $-1 $509 $511 #
straight-curve $-1 -42.210227066894397 -11.557157754893851 49.705016422584578 0 0.68199835119979291 -0.73135370988377701 I I #
edge $-1 $397 -59.852347351400681 $485 -49.440552229073035 $396 $512 forward 7 unknown #
point $-1 -42.210227066894397 31.750721033199603 3.2630011843537545 #
coedge $-1 $400 $399 $476 $509 forward $391 $-1 #
point $-1 -18.923043047024507 22.04156524374455 13.674796306681401 #
vertex $-1 $481 $513 #
straight-curve $-1 0 31.750721033199603 13.674796306681397 -1 0 0 I I #
vertex $-1 $407 $514 #
point $-1 -27.566635056959452 23.485562260186299 5.2884807012937083 #
straight-curve $-1 -56.104007080294195 31.750721033199603 0 0 0 -1 I I #
point $-1 -56.104007080294195 -31.750721033199603 -13.674796306681397 #
straight-curve $-1 -56.104007080294195 0 -13.674796306681397 0 1 0 I I #
point $-1 -56.104007080294195 31.750721033199603 -13.674796306681397 #
straight-curve $-1 -56.104007080294195 0 5.2817741003402467 0 -1 0 I I #
point $-1 -56.104007080294195 -31.750721033199603 5.2817741003402467 #
point $-1 -56.104007080294195 31.750721033199603 5.2817741003402467 #
straight-curve $-1 -56.104007080294195 31.750721033199603 0 0 0 -1 I I #
straight-curve $-1 -56.104007080294195 -31.750721033199603 0 0 0 -1 I I #
straight-curve $-1 42.21022706689439 0 5.2817741003402467 0 1 0 I I #
point $-1 42.21022706689439 31.750721033199603 5.2817741003402467 #
point $-1 42.21022706689439 -31.750721033199603 5.2817741003402467 #
straight-curve $-1 42.21022706689439 -31.750721033199603 4.2585377873185681 0 0 -1 I I #
straight-curve $-1 9.1590649703680782 -53.416269244898587 13.674796306681401 0 1 0 I I #
point $-1 9.1590649703680782 -31.750721033199603 13.674796306681397 #
straight-curve $-1 -1.6819238639690788 -18.537740908193207 13.674796306681397 -1 0 0 I I #
point $-1 9.1590649703680782 -18.537740908193207 13.674796306681397 #
point $-1 -10.8775953469219 -19.224629466007869 1.1519024355110998 #
point $-1 -3.3638477279381576 -19.224629466007869 1.1519024355110998 #
point $-1 4.1498998910455853 -19.224629466007869 1.1519024355110998 #
edge $-1 $485 3.5025738068723271 $479 13.21172959632738 $483 $515 forward 7 unknown #
straight-curve $-1 -15.283317528479726 22.041565243744554 13.674796306681397 1 0 0 I I #
point $-1 -42.210227066894397 22.04156524374455 13.674796306681401 #
straight-curve $-1 -42.210227066894397 31.750721033199603 63.115348535754435 0 0 1 I I #
point $-1 -42.210227066894397 31.750721033199603 13.674796306681397 #
point $-1 -30.566635056959452 21.291501130534968 3.2424856476943296 #
straight-curve $-1 -42.210227066894397 35.253294840071931 13.674796306681401 0 -1 0 I I #
End-of-ACIS-data 