500 0 8 0           
7 Unknown 11 ACIS 5.0 NT 24 Fri Mar 26 03:15:28 1999 
-1 9.9999999999999995e-007 1e-010 
body $-1 $8 $-1 $9 #
body $-1 $10 $-1 $11 #
body $-1 $12 $-1 $13 #
body $-1 $14 $-1 $15 #
body $-1 $16 $-1 $17 #
body $-1 $18 $-1 $19 #
body $-1 $20 $-1 $21 #
body $-1 $22 $-1 $23 #
lump $-1 $-1 $24 $0 #
transform $-1 1 0 0 0 1 0 0 0 1 55.751213110751671 35.652396306201744 15.968556739069127 1 rotate no_reflect no_shear #
lump $-1 $-1 $25 $1 #
transform $-1 1 0 0 0 1 0 0 0 1 55.751213110751671 35.652396306201744 15.968556739069127 1 rotate no_reflect no_shear #
lump $-1 $-1 $26 $2 #
transform $-1 1 0 0 0 1 0 0 0 1 55.751213110751671 35.652396306201744 15.968556739069127 1 rotate no_reflect no_shear #
lump $-1 $-1 $27 $3 #
transform $-1 1 0 0 0 1 0 0 0 1 55.751213110751671 35.652396306201744 15.968556739069127 1 rotate no_reflect no_shear #
lump $-1 $-1 $28 $4 #
transform $-1 1 0 0 0 1 0 0 0 1 55.751213110751671 35.652396306201744 15.968556739069127 1 rotate no_reflect no_shear #
lump $-1 $-1 $29 $5 #
transform $-1 1 0 0 0 1 0 0 0 1 55.751213110751671 35.652396306201744 15.968556739069127 1 rotate no_reflect no_shear #
lump $-1 $-1 $30 $6 #
transform $-1 1 0 0 0 1 0 0 0 1 55.751213110751671 35.652396306201744 15.968556739069127 1 rotate no_reflect no_shear #
lump $-1 $-1 $31 $7 #
transform $-1 1 0 0 0 1 0 0 0 1 55.751213110751671 35.652396306201744 15.968556739069127 1 rotate no_reflect no_shear #
shell $-1 $-1 $-1 $32 $-1 $8 #
shell $-1 $-1 $-1 $33 $-1 $10 #
shell $-1 $-1 $-1 $34 $-1 $12 #
shell $-1 $-1 $-1 $35 $-1 $14 #
shell $-1 $-1 $-1 $36 $-1 $16 #
shell $-1 $-1 $-1 $37 $-1 $18 #
shell $-1 $-1 $-1 $38 $-1 $20 #
shell $-1 $-1 $-1 $39 $-1 $22 #
face $-1 $40 $41 $24 $-1 $42 forward single #
face $-1 $43 $44 $25 $-1 $45 forward single #
face $-1 $46 $47 $26 $-1 $48 reversed single #
face $-1 $49 $50 $27 $-1 $51 forward single #
face $-1 $52 $53 $28 $-1 $54 forward single #
face $-1 $55 $56 $29 $-1 $57 reversed single #
face $-1 $58 $59 $30 $-1 $60 forward single #
face $-1 $61 $62 $31 $-1 $63 forward single #
face $-1 $64 $65 $24 $-1 $66 reversed single #
loop $-1 $-1 $67 $32 #
plane-surface $-1 0 0 15.968556739069127 0 0 1 1 0 0 forward_v I I I I #
face $-1 $68 $69 $25 $-1 $70 reversed single #
loop $-1 $-1 $71 $33 #
plane-surface $-1 -55.751213110751671 0 0 1 0 0 0 0 -1 forward_v I I I I #
face $-1 $72 $73 $26 $-1 $74 reversed single #
loop $-1 $-1 $75 $34 #
plane-surface $-1 35.048080052264034 45.809693366284016 136.06238374204338 1 0 0 0 -0.6018150307709319 -0.79863550430605224 forward_v I I I I #
face $-1 $76 $77 $27 $-1 $78 forward single #
loop $-1 $79 $80 $35 #
cone-surface $-1 40.963260926117648 25.844793134724462 7.4695871411414707 0 -0.6018150307709319 -0.79863550430605224 2 0 0 1 I I 0 1 2 forward I I I I #
face $-1 $81 $82 $28 $-1 $83 forward single #
loop $-1 $84 $85 $36 #
cone-surface $-1 49.83603223689807 25.844793134724462 7.4695871411414707 0 -0.6018150307709319 -0.79863550430605224 2 0 0 1 I I 0 1 2 forward I I I I #
face $-1 $86 $87 $29 $-1 $88 reversed single #
loop $-1 $-1 $89 $37 #
plane-surface $-1 43.228616248348239 -35.652396306201737 1.8435479992243273 0 -0.7660444514056185 0.64278759981090561 1 0 0 forward_v I I I I #
face $-1 $90 $91 $30 $-1 $92 forward single #
loop $-1 $93 $94 $38 #
cone-surface $-1 37.861789021603904 -28.723961258674436 8.0650308940042734 0 0.7660444514056185 -0.64278759981090561 1.5 0 0 1 I I 0 1 1.5 forward I I I I #
face $-1 $95 $96 $31 $-1 $97 forward single #
loop $-1 $98 $99 $39 #
cone-surface $-1 48.595443475092573 -28.723961258674436 8.0650308940042734 0 0.7660444514056185 -0.64278759981090561 1.5 0 0 1 I I 0 1 1.5 forward I I I I #
face $-1 $100 $101 $24 $-1 $102 reversed single #
loop $-1 $-1 $103 $40 #
plane-surface $-1 0 0 -15.968556739069127 0 0 1 1 0 0 forward_v I I I I #
coedge $-1 $104 $105 $106 $107 forward $41 $-1 #
face $-1 $108 $109 $25 $-1 $110 forward single #
loop $-1 $-1 $111 $43 #
plane-surface $-1 0 35.652396306201744 0 0 -1 0 0 0 -1 forward_v I I I I #
coedge $-1 $112 $113 $114 $115 forward $44 $-1 #
face $-1 $116 $117 $26 $-1 $118 reversed single #
loop $-1 $-1 $119 $46 #
plane-surface $-1 45.399646581507859 -21.294142701243594 47.012587345284672 0 0.6018150307709319 0.79863550430605224 1 0 0 forward_v I I I I #
coedge $-1 $120 $121 $122 $123 reversed $47 $-1 #
face $-1 $-1 $124 $27 $-1 $125 forward single #
loop $-1 $126 $127 $49 #
cone-surface $-1 40.963260926117648 23.310234815947709 4.1061147158742539 0 -0.6018150307709319 -0.79863550430605224 1 0 0 1 I I -0.70710678118654746 0.70710678118654746 1 forward I I I I #
loop $-1 $-1 $128 $35 #
coedge $-1 $80 $80 $129 $130 reversed $50 $-1 #
face $-1 $-1 $131 $28 $-1 $132 forward single #
loop $-1 $133 $134 $52 #
cone-surface $-1 49.83603223689807 23.310234815947709 4.1061147158742539 0 -0.6018150307709319 -0.79863550430605224 1 0 0 1 I I -0.70710678118654746 0.70710678118654746 1 forward I I I I #
loop $-1 $-1 $135 $36 #
coedge $-1 $85 $85 $136 $137 reversed $53 $-1 #
face $-1 $138 $139 $29 $-1 $140 forward single #
loop $-1 $-1 $141 $55 #
plane-surface $-1 30.706019385944792 -121.06821123144871 73.515924923237051 1 0 0 0 0.7660444514056185 -0.64278759981090561 forward_v I I I I #
coedge $-1 $142 $143 $144 $145 reversed $56 $-1 #
face $-1 $-1 $146 $30 $-1 $147 forward single #
loop $-1 $148 $149 $58 #
cone-surface $-1 37.861789021603904 -27.147137529429145 6.74191871900363 0 0.7660444514056185 -0.64278759981090561 0.75 0 0 1 I I -0.70710678118654757 0.70710678118654757 0.75 forward I I I I #
loop $-1 $-1 $150 $38 #
coedge $-1 $94 $94 $151 $152 reversed $59 $-1 #
face $-1 $-1 $153 $31 $-1 $154 forward single #
loop $-1 $155 $156 $61 #
cone-surface $-1 48.595443475092573 -27.147137529429145 6.74191871900363 0 0.7660444514056185 -0.64278759981090561 0.75 0 0 1 I I -0.70710678118654757 0.70710678118654757 0.75 forward I I I I #
loop $-1 $-1 $157 $39 #
coedge $-1 $99 $99 $158 $159 reversed $62 $-1 #
face $-1 $160 $161 $24 $-1 $162 reversed single #
loop $-1 $-1 $163 $64 #
plane-surface $-1 0 -35.652396306201744 0 0 1 0 0 0 1 forward_v I I I I #
coedge $-1 $164 $165 $166 $167 forward $65 $-1 #
coedge $-1 $168 $67 $169 $170 forward $41 $-1 #
coedge $-1 $67 $168 $171 $172 forward $41 $-1 #
coedge $-1 $173 $174 $67 $107 reversed $175 $-1 #
edge $-1 $176 -35.652396306201744 $177 35.652396306201744 $106 $178 forward 7 unknown #
face $-1 $179 $180 $25 $-1 $181 reversed single #
loop $-1 $-1 $114 $68 #
plane-surface $-1 -65.164391485546247 0 -7.1907482649102077 0 0 1 1 0 0 forward_v I I I I #
coedge $-1 $182 $183 $113 $184 forward $69 $-1 #
coedge $-1 $185 $71 $186 $187 reversed $44 $-1 #
coedge $-1 $71 $185 $111 $184 reversed $44 $-1 #
coedge $-1 $188 $189 $71 $115 reversed $109 $-1 #
edge $-1 $190 -35.652396306201744 $191 35.652396306201744 $114 $192 forward 7 unknown #
face $-1 $193 $194 $26 $-1 $195 reversed single #
loop $-1 $-1 $196 $72 #
plane-surface $-1 55.751213110751671 0 0 -1 0 0 0 0 1 forward_v I I I I #
coedge $-1 $197 $198 $199 $200 reversed $73 $-1 #
coedge $-1 $121 $75 $201 $202 reversed $47 $-1 #
coedge $-1 $75 $120 $197 $203 reversed $47 $-1 #
coedge $-1 $199 $204 $75 $123 forward $205 $-1 #
edge $-1 $206 -12.747549623059736 $207 3.0021701438832018 $122 $208 forward 7 unknown #
loop $-1 $-1 $129 $76 #
plane-surface $-1 45.399646581507859 -21.294142701243594 47.012587345284672 0 0.6018150307709319 0.79863550430605224 1 0 0 forward_v I I I I #
loop $-1 $-1 $209 $49 #
coedge $-1 $127 $127 $128 $210 reversed $77 $-1 #
coedge $-1 $128 $128 $127 $210 forward $79 $-1 #
coedge $-1 $129 $129 $80 $130 forward $124 $-1 #
edge $-1 $211 -7.1941485166571027e-016 $211 6.2831853071795996 $129 $212 forward 7 unknown #
loop $-1 $-1 $136 $81 #
plane-surface $-1 45.399646581507859 -21.294142701243594 47.012587345284672 0 0.6018150307709319 0.79863550430605224 1 0 0 forward_v I I I I #
loop $-1 $-1 $213 $52 #
coedge $-1 $134 $134 $135 $214 reversed $82 $-1 #
coedge $-1 $135 $135 $134 $214 forward $84 $-1 #
coedge $-1 $136 $136 $85 $137 forward $131 $-1 #
edge $-1 $215 -7.1941485166571027e-016 $215 6.2831853071795996 $136 $216 forward 7 unknown #
face $-1 $217 $218 $29 $-1 $219 reversed single #
loop $-1 $-1 $144 $86 #
plane-surface $-1 0 0 15.968556739069127 0 0 1 1 0 0 forward_v I I I I #
coedge $-1 $220 $221 $222 $223 reversed $87 $-1 #
coedge $-1 $224 $89 $225 $226 reversed $56 $-1 #
coedge $-1 $89 $224 $220 $227 forward $56 $-1 #
coedge $-1 $222 $228 $89 $145 forward $139 $-1 #
edge $-1 $229 -34.136904986577562 $230 -9.0917112617706728 $144 $231 forward 7 unknown #
loop $-1 $-1 $151 $90 #
plane-surface $-1 43.228616248348239 -35.652396306201737 1.8435479992243273 0 -0.7660444514056185 0.64278759981090561 1 0 0 forward_v I I I I #
loop $-1 $-1 $232 $58 #
coedge $-1 $149 $149 $150 $233 reversed $91 $-1 #
coedge $-1 $150 $150 $149 $233 forward $93 $-1 #
coedge $-1 $151 $151 $94 $152 forward $146 $-1 #
edge $-1 $234 -6.4663426027485831e-016 $234 6.2831853071795996 $151 $235 forward 7 unknown #
loop $-1 $-1 $158 $95 #
plane-surface $-1 43.228616248348239 -35.652396306201737 1.8435479992243273 0 -0.7660444514056185 0.64278759981090561 1 0 0 forward_v I I I I #
loop $-1 $-1 $236 $61 #
coedge $-1 $156 $156 $157 $237 reversed $96 $-1 #
coedge $-1 $157 $157 $156 $237 forward $98 $-1 #
coedge $-1 $158 $158 $99 $159 forward $153 $-1 #
edge $-1 $238 -6.4663426027485831e-016 $238 6.2831853071795996 $158 $239 forward 7 unknown #
face $-1 $240 $241 $24 $-1 $242 reversed single #
loop $-1 $-1 $243 $100 #
plane-surface $-1 -55.751213110751671 0 0 1 0 0 0 0 -1 forward_v I I I I #
coedge $-1 $244 $171 $243 $245 forward $101 $-1 #
coedge $-1 $246 $103 $244 $247 forward $65 $-1 #
coedge $-1 $103 $246 $248 $249 forward $65 $-1 #
coedge $-1 $174 $173 $103 $167 reversed $175 $-1 #
edge $-1 $250 -35.652396306201744 $251 35.652396306201744 $166 $252 forward 7 unknown #
coedge $-1 $105 $104 $253 $254 forward $41 $-1 #
coedge $-1 $255 $256 $104 $170 reversed $241 $-1 #
edge $-1 $177 -55.751213110751671 $257 55.751213110751671 $169 $258 forward 7 unknown #
coedge $-1 $163 $259 $105 $172 reversed $101 $-1 #
edge $-1 $260 -55.751213110751671 $176 55.751213110751671 $171 $261 forward 7 unknown #
coedge $-1 $166 $106 $259 $262 forward $175 $-1 #
coedge $-1 $106 $166 $255 $263 reversed $175 $-1 #
loop $-1 $-1 $173 $240 #
vertex $-1 $107 $264 #
vertex $-1 $107 $265 #
straight-curve $-1 55.751213110751671 0 15.968556739069127 0 1 0 I I #
face $-1 $266 $267 $25 $-1 $268 reversed single #
loop $-1 $-1 $269 $108 #
plane-surface $-1 -74.57756986034083 0 -11.579652501989667 1 0 0 0 0 -1 forward_v I I I I #
coedge $-1 $270 $111 $271 $272 reversed $69 $-1 #
coedge $-1 $111 $270 $188 $273 reversed $69 $-1 #
edge $-1 $190 7.1907482649102077 $274 15.968556739069127 $111 $275 forward 7 unknown #
coedge $-1 $113 $112 $276 $277 reversed $44 $-1 #
coedge $-1 $278 $279 $112 $187 forward $280 $-1 #
edge $-1 $281 -15.968556739069127 $191 -7.1907482649102077 $186 $282 forward 7 unknown #
coedge $-1 $283 $114 $183 $273 forward $109 $-1 #
coedge $-1 $114 $283 $278 $284 forward $109 $-1 #
vertex $-1 $184 $285 #
vertex $-1 $284 $286 #
straight-curve $-1 -55.751213110751671 0 -7.1907482649102077 0 -1 0 I I #
face $-1 $-1 $205 $26 $-1 $287 forward single #
loop $-1 $-1 $288 $116 #
plane-surface $-1 0 35.652396306201744 0 0 -1 0 0 0 -1 forward_v I I I I #
coedge $-1 $289 $290 $198 $291 forward $117 $-1 #
coedge $-1 $292 $119 $121 $203 forward $73 $-1 #
coedge $-1 $119 $292 $196 $291 reversed $73 $-1 #
coedge $-1 $293 $122 $119 $200 forward $205 $-1 #
edge $-1 $207 12.348256761510104 $294 33.051389819997752 $199 $295 forward 7 unknown #
coedge $-1 $296 $288 $120 $202 forward $194 $-1 #
edge $-1 $297 -63.930900485885552 $206 -52.062635131952561 $201 $298 forward 7 unknown #
edge $-1 $207 51.584006744477271 $297 71.304792612403503 $121 $299 forward 7 unknown #
coedge $-1 $122 $293 $296 $300 forward $205 $-1 #
loop $-1 $-1 $199 $193 #
vertex $-1 $202 $301 #
vertex $-1 $123 $302 #
straight-curve $-1 35.048080052264034 22.904846683142008 15.968556739069129 0 -1 0 I I #
coedge $-1 $209 $209 $-1 $303 reversed $126 $-1 #
edge $-1 $304 0 $304 6.2831853071796004 $127 $305 forward 7 unknown #
vertex $-1 $130 $306 #
ellipse-curve $-1 40.963260926117648 27.777536422730275 10.034424062102628 0 0.6018150307709319 0.79863550430605224 2 0 0 1 I I #
coedge $-1 $213 $213 $-1 $307 reversed $133 $-1 #
edge $-1 $308 0 $308 6.2831853071796004 $134 $309 forward 7 unknown #
vertex $-1 $137 $310 #
ellipse-curve $-1 49.83603223689807 27.777536422730275 10.034424062102628 0 0.6018150307709319 0.79863550430605224 2 0 0 1 I I #
face $-1 $-1 $311 $29 $-1 $312 reversed single #
loop $-1 $-1 $313 $138 #
plane-surface $-1 0 -35.652396306201744 0 0 1 0 0 0 1 forward_v I I I I #
coedge $-1 $221 $141 $143 $227 reversed $87 $-1 #
coedge $-1 $141 $220 $314 $315 reversed $87 $-1 #
coedge $-1 $316 $144 $141 $223 forward $139 $-1 #
edge $-1 $230 -36.733998623195092 $317 -24.881709309522613 $222 $318 forward 7 unknown #
coedge $-1 $143 $142 $313 $319 reversed $56 $-1 #
coedge $-1 $320 $321 $142 $226 forward $311 $-1 #
edge $-1 $322 -10.752339266732456 $229 7.6865499046815069 $225 $323 forward 7 unknown #
edge $-1 $324 -1.1030930024383267e-014 $230 18.438889171413955 $220 $325 forward 7 unknown #
coedge $-1 $144 $316 $320 $326 forward $139 $-1 #
vertex $-1 $226 $327 #
vertex $-1 $145 $328 #
straight-curve $-1 21.614308124174119 -23.800106992529265 15.968556739069127 -1 0 0 I I #
coedge $-1 $232 $232 $-1 $329 reversed $148 $-1 #
edge $-1 $330 0 $330 6.2831853071796004 $149 $331 forward 7 unknown #
vertex $-1 $152 $332 #
ellipse-curve $-1 37.861789021603904 -29.726251649365501 8.9060523691467264 0 -0.7660444514056185 0.64278759981090561 1.5 0 0 1 I I #
coedge $-1 $236 $236 $-1 $333 reversed $155 $-1 #
edge $-1 $334 0 $334 6.2831853071796004 $156 $335 forward 7 unknown #
vertex $-1 $159 $336 #
ellipse-curve $-1 48.595443475092573 -29.726251649365501 8.9060523691467264 0 -0.7660444514056185 0.64278759981090561 1.5 0 0 1 I I #
face $-1 $-1 $175 $24 $-1 $337 reversed single #
loop $-1 $-1 $255 $160 #
plane-surface $-1 0 35.652396306201744 0 0 -1 0 0 0 -1 forward_v I I I I #
coedge $-1 $253 $338 $163 $245 reversed $161 $-1 #
coedge $-1 $259 $163 $164 $247 reversed $101 $-1 #
edge $-1 $260 -15.968556739069127 $339 15.968556739069127 $243 $340 forward 7 unknown #
coedge $-1 $165 $164 $338 $341 forward $65 $-1 #
edge $-1 $251 -55.751213110751671 $339 55.751213110751671 $244 $342 forward 7 unknown #
coedge $-1 $256 $255 $165 $249 reversed $241 $-1 #
edge $-1 $343 -55.751213110751671 $250 55.751213110751671 $248 $344 forward 7 unknown #
vertex $-1 $167 $345 #
vertex $-1 $262 $346 #
straight-curve $-1 55.751213110751671 0 -15.968556739069127 0 -1 0 I I #
coedge $-1 $347 $243 $168 $254 reversed $161 $-1 #
edge $-1 $257 -35.652396306201744 $260 35.652396306201744 $253 $348 forward 7 unknown #
coedge $-1 $248 $169 $174 $263 forward $241 $-1 #
coedge $-1 $169 $248 $347 $349 reversed $241 $-1 #
vertex $-1 $170 $350 #
straight-curve $-1 0 35.652396306201744 15.968556739069127 -1 0 0 I I #
coedge $-1 $171 $244 $173 $262 reversed $101 $-1 #
vertex $-1 $254 $351 #
straight-curve $-1 0 -35.652396306201744 15.968556739069127 1 0 0 I I #
edge $-1 $176 -15.968556739069127 $251 15.968556739069127 $173 $352 forward 7 unknown #
edge $-1 $177 -15.968556739069127 $250 15.968556739069127 $174 $353 forward 7 unknown #
point $-1 55.751213110751671 -35.652396306201744 15.968556739069127 #
point $-1 55.751213110751671 35.652396306201744 15.968556739069127 #
face $-1 $-1 $280 $25 $-1 $354 reversed single #
loop $-1 $-1 $276 $179 #
plane-surface $-1 0 0 -15.968556739069127 0 0 1 1 0 0 forward_v I I I I #
coedge $-1 $355 $356 $270 $357 forward $180 $-1 #
coedge $-1 $183 $182 $269 $357 reversed $69 $-1 #
coedge $-1 $276 $358 $182 $272 forward $267 $-1 #
edge $-1 $359 -74.57756986034083 $274 -55.751213110751671 $182 $360 forward 7 unknown #
edge $-1 $190 -9.4131783747945832 $361 9.4131783747945832 $183 $362 forward 7 unknown #
vertex $-1 $184 $363 #
straight-curve $-1 -55.751213110751671 35.652396306201744 0 0 0 -1 I I #
coedge $-1 $364 $271 $185 $277 forward $267 $-1 #
edge $-1 $274 -35.652396306201744 $281 35.652396306201744 $276 $365 forward 7 unknown #
coedge $-1 $366 $186 $189 $284 reversed $280 $-1 #
coedge $-1 $186 $366 $364 $367 reversed $280 $-1 #
loop $-1 $-1 $186 $266 #
vertex $-1 $367 $368 #
straight-curve $-1 -55.751213110751671 -35.652396306201744 0 0 0 1 I I #
coedge $-1 $189 $188 $356 $369 forward $109 $-1 #
edge $-1 $370 -9.4131783747945832 $191 9.4131783747945832 $278 $371 forward 7 unknown #
point $-1 -55.751213110751664 35.652396306201744 -7.1907482649102077 #
point $-1 -55.751213110751664 -35.652396306201744 -7.1907482649102077 #
plane-surface $-1 0 0 15.968556739069127 0 0 1 1 0 0 forward_v I I I I #
coedge $-1 $201 $372 $292 $373 forward $194 $-1 #
coedge $-1 $290 $196 $372 $374 reversed $117 $-1 #
coedge $-1 $196 $289 $293 $375 reversed $117 $-1 #
edge $-1 $294 28.9344366970791 $376 48.655222565005346 $196 $377 forward 7 unknown #
coedge $-1 $198 $197 $288 $373 reversed $73 $-1 #
coedge $-1 $204 $199 $290 $375 forward $205 $-1 #
vertex $-1 $375 $378 #
straight-curve $-1 22.69982329075393 19.902676539258799 15.968556739069133 1 0 0 I I #
coedge $-1 $372 $201 $204 $300 reversed $194 $-1 #
vertex $-1 $202 $379 #
straight-curve $-1 35.048080052264034 35.652396306201744 68.03119187102169 0 0 1 I I #
straight-curve $-1 35.048080052264034 -21.294142701243594 47.012587345284672 0 0.79863550430605224 -0.6018150307709319 I I #
edge $-1 $380 -55.751213110751671 $206 -35.048080052264034 $296 $381 forward 7 unknown #
point $-1 35.048080052264034 35.652396306201744 15.968556739069127 #
point $-1 35.048080052264034 19.902676539258806 15.968556739069129 #
edge $-1 $382 1 $382 0 $209 $-1 forward 7 unknown #
vertex $-1 $210 $383 #
ellipse-curve $-1 40.963260926117648 23.912049846718642 4.9047502201803059 0 0.6018150307709319 0.79863550430605224 2 0 0 1 I I #
point $-1 42.963260926117648 27.777536422730279 10.034424062102635 #
edge $-1 $384 1 $384 0 $213 $-1 forward 7 unknown #
vertex $-1 $214 $385 #
ellipse-curve $-1 49.83603223689807 23.912049846718642 4.9047502201803059 0 0.6018150307709319 0.79863550430605224 2 0 0 1 I I #
point $-1 51.83603223689807 27.777536422730279 10.034424062102635 #
loop $-1 $-1 $225 $217 #
plane-surface $-1 55.751213110751671 0 0 -1 0 0 0 0 1 forward_v I I I I #
coedge $-1 $386 $314 $224 $319 forward $218 $-1 #
coedge $-1 $313 $387 $221 $315 forward $218 $-1 #
edge $-1 $317 20.789405722549397 $324 34.914414462394205 $314 $388 forward 7 unknown #
coedge $-1 $228 $222 $387 $389 forward $139 $-1 #
vertex $-1 $389 $390 #
straight-curve $-1 30.706019385944792 -60.534105615724357 15.968556739069129 0 -1 0 I I #
edge $-1 $324 9.0917112617706728 $322 34.136904986577562 $313 $391 forward 7 unknown #
coedge $-1 $321 $225 $228 $326 reversed $311 $-1 #
coedge $-1 $225 $320 $386 $392 forward $311 $-1 #
vertex $-1 $319 $393 #
straight-curve $-1 55.751213110751671 -28.740925956586235 10.080317834135471 0 0.64278759981090572 0.76604445140561861 I I #
vertex $-1 $319 $394 #
straight-curve $-1 30.706019385944792 -35.652396306201737 1.8435479992243273 0 0.64278759981090561 0.7660444514056185 I I #
edge $-1 $395 -35.652396306201744 $229 -23.800106992529265 $320 $396 forward 7 unknown #
point $-1 55.751213110751685 -23.800106992529265 15.968556739069125 #
point $-1 30.706019385944792 -23.800106992529265 15.968556739069125 #
edge $-1 $397 1 $397 0 $232 $-1 forward 7 unknown #
vertex $-1 $233 $398 #
ellipse-curve $-1 37.861789021603904 -27.721670867983359 7.2240094188618089 0 -0.7660444514056185 0.64278759981090561 1.5 0 0 1 I I #
point $-1 39.361789021603904 -29.726251649365516 8.906052369146737 #
edge $-1 $399 1 $399 0 $236 $-1 forward 7 unknown #
vertex $-1 $237 $400 #
ellipse-curve $-1 48.595443475092573 -27.721670867983359 7.2240094188618089 0 -0.7660444514056185 0.64278759981090561 1.5 0 0 1 I I #
point $-1 50.095443475092573 -29.726251649365516 8.906052369146737 #
plane-surface $-1 55.751213110751671 0 0 -1 0 0 0 0 1 forward_v I I I I #
coedge $-1 $243 $347 $246 $341 reversed $161 $-1 #
vertex $-1 $341 $401 #
straight-curve $-1 -55.751213110751671 -35.652396306201744 0 0 0 -1 I I #
edge $-1 $339 -35.652396306201744 $343 35.652396306201744 $338 $402 forward 7 unknown #
straight-curve $-1 0 -35.652396306201744 -15.968556739069127 -1 0 0 I I #
vertex $-1 $249 $403 #
straight-curve $-1 0 35.652396306201744 -15.968556739069127 1 0 0 I I #
point $-1 55.751213110751671 35.652396306201744 -15.968556739069127 #
point $-1 55.751213110751671 -35.652396306201744 -15.968556739069127 #
coedge $-1 $338 $253 $256 $349 forward $161 $-1 #
straight-curve $-1 -55.751213110751671 0 15.968556739069127 0 -1 0 I I #
edge $-1 $257 -15.968556739069127 $343 15.968556739069127 $256 $404 forward 7 unknown #
point $-1 -55.751213110751671 35.652396306201744 15.968556739069127 #
point $-1 -55.751213110751671 -35.652396306201744 15.968556739069127 #
straight-curve $-1 55.751213110751671 -35.652396306201744 0 0 0 -1 I I #
straight-curve $-1 55.751213110751671 35.652396306201744 0 0 0 -1 I I #
plane-surface $-1 0 -35.652396306201744 0 0 1 0 0 0 1 forward_v I I I I #
coedge $-1 $405 $269 $358 $406 reversed $180 $-1 #
coedge $-1 $269 $405 $283 $369 reversed $180 $-1 #
edge $-1 $361 -4.3889042370794593 $359 4.3889042370794584 $270 $407 forward 7 unknown #
coedge $-1 $271 $364 $355 $406 forward $267 $-1 #
vertex $-1 $272 $408 #
straight-curve $-1 0 35.652396306201744 -15.968556739069127 1 0 0 I I #
vertex $-1 $273 $409 #
straight-curve $-1 -65.164391485546247 35.652396306201744 -7.1907482649102077 -1 0 0 I I #
point $-1 -55.751213110751671 35.652396306201744 -15.968556739069127 #
coedge $-1 $358 $276 $279 $367 forward $267 $-1 #
straight-curve $-1 -55.751213110751671 0 -15.968556739069127 0 -1 0 I I #
coedge $-1 $279 $278 $405 $410 forward $280 $-1 #
edge $-1 $281 -9.4131783747945761 $411 9.4131783747945832 $279 $412 forward 7 unknown #
point $-1 -55.751213110751671 -35.652396306201744 -15.968556739069127 #
edge $-1 $361 -35.652396306201744 $370 35.652396306201744 $356 $413 forward 7 unknown #
vertex $-1 $369 $414 #
straight-curve $-1 -65.164391485546247 -35.652396306201744 -7.1907482649102077 1 0 0 I I #
coedge $-1 $288 $296 $289 $374 forward $194 $-1 #
edge $-1 $376 -33.051389819997752 $297 -12.348256761510104 $288 $415 forward 7 unknown #
edge $-1 $380 -15.968556739069127 $376 -4.1002913851361384 $289 $416 forward 7 unknown #
edge $-1 $294 19.902676539258806 $380 35.652396306201744 $290 $417 forward 7 unknown #
vertex $-1 $291 $418 #
straight-curve $-1 55.751213110751671 -3.2053919041245011 33.381735650261369 0 0.79863550430605224 -0.6018150307709319 I I #
point $-1 55.751213110751685 19.902676539258806 15.968556739069129 #
point $-1 35.048080052264034 35.652396306201744 4.1002913851361384 #
vertex $-1 $375 $419 #
straight-curve $-1 0 35.652396306201744 15.968556739069127 -1 0 0 I I #
vertex $-1 $303 $420 #
point $-1 42.963260926117648 23.912049846718642 4.9047502201803059 #
vertex $-1 $307 $421 #
point $-1 51.83603223689807 23.912049846718642 4.9047502201803059 #
coedge $-1 $387 $313 $321 $392 reversed $218 $-1 #
coedge $-1 $314 $386 $316 $389 reversed $218 $-1 #
straight-curve $-1 30.706019385944792 -35.652396306201744 36.757962461618526 0 0 -1 I I #
edge $-1 $317 30.706019385944792 $395 55.751213110751671 $387 $422 forward 7 unknown #
point $-1 30.706019385944792 -35.652396306201744 15.968556739069127 #
straight-curve $-1 21.614308124174119 -35.652396306201744 1.8435479992243105 1 0 0 I I #
edge $-1 $395 -15.968556739069127 $322 -1.8435479992243189 $321 $423 forward 7 unknown #
point $-1 55.751213110751685 -35.652396306201744 1.8435479992243189 #
point $-1 30.706019385944792 -35.652396306201744 1.8435479992243189 #
vertex $-1 $326 $424 #
straight-curve $-1 55.751213110751671 0 15.968556739069127 0 1 0 I I #
vertex $-1 $329 $425 #
point $-1 39.361789021603904 -27.721670867983359 7.2240094188618089 #
vertex $-1 $333 $426 #
point $-1 50.095443475092573 -27.721670867983359 7.2240094188618089 #
point $-1 -55.751213110751671 -35.652396306201744 -15.968556739069127 #
straight-curve $-1 -55.751213110751671 0 -15.968556739069127 0 1 0 I I #
point $-1 -55.751213110751671 35.652396306201744 -15.968556739069127 #
straight-curve $-1 -55.751213110751671 35.652396306201744 0 0 0 -1 I I #
coedge $-1 $356 $355 $366 $410 reversed $180 $-1 #
edge $-1 $411 -35.652396306201744 $359 35.652396306201744 $355 $427 forward 7 unknown #
straight-curve $-1 -74.57756986034083 35.652396306201744 -11.579652501989667 0 0 -1 I I #
point $-1 -74.57756986034083 35.652396306201744 -15.968556739069125 #
point $-1 -74.57756986034083 35.652396306201744 -7.1907482649102077 #
edge $-1 $370 -4.3889042370794593 $411 4.3889042370794584 $405 $428 forward 7 unknown #
vertex $-1 $406 $429 #
straight-curve $-1 -65.164391485546247 -35.652396306201744 -15.968556739069125 -1 0 0 I I #
straight-curve $-1 -74.57756986034083 0 -7.1907482649102077 0 -1 0 I I #
point $-1 -74.57756986034083 -35.652396306201744 -7.1907482649102077 #
straight-curve $-1 22.69982329075393 35.652396306201737 4.100291385136142 -1 0 0 I I #
straight-curve $-1 55.751213110751671 35.652396306201744 0 0 0 -1 I I #
straight-curve $-1 55.751213110751671 0 15.968556739069127 0 1 0 I I #
point $-1 55.751213110751685 35.652396306201744 4.1002913851361384 #
point $-1 55.751213110751671 35.652396306201744 15.968556739069127 #
point $-1 40.963260926117648 22.708419785176776 3.3074792115682019 #
point $-1 49.83603223689807 22.708419785176776 3.3074792115682019 #
straight-curve $-1 0 -35.652396306201744 15.968556739069127 1 0 0 I I #
straight-curve $-1 55.751213110751671 -35.652396306201744 0 0 0 -1 I I #
point $-1 55.751213110751671 -35.652396306201744 15.968556739069127 #
point $-1 37.861789021603904 -26.57260419087493 6.2598280191454512 #
point $-1 48.595443475092573 -26.57260419087493 6.2598280191454512 #
straight-curve $-1 -74.57756986034083 0 -15.968556739069125 0 1 0 I I #
straight-curve $-1 -74.57756986034083 -35.652396306201744 -11.579652501989667 0 0 -1 I I #
point $-1 -74.57756986034083 -35.652396306201744 -15.968556739069125 #
End-of-ACIS-data 