500 0 6 0           
7 Unknown 11 ACIS 5.0 NT 24 Fri Mar 26 02:25:57 1999 
-1 9.9999999999999995e-007 1e-010 
body $-1 $6 $-1 $7 #
body $-1 $8 $-1 $9 #
body $-1 $10 $-1 $11 #
body $-1 $12 $-1 $13 #
body $-1 $14 $-1 $15 #
body $-1 $16 $-1 $17 #
lump $-1 $-1 $18 $0 #
transform $-1 1 0 0 0 1 0 0 0 1 40.570085757011626 18.710006833353848 8.5678778201994223 1 rotate no_reflect no_shear #
lump $-1 $-1 $19 $1 #
transform $-1 1 0 0 0 1 0 0 0 1 40.570085757011626 18.710006833353848 8.5678778201994223 1 rotate no_reflect no_shear #
lump $-1 $-1 $20 $2 #
transform $-1 1 0 0 0 1 0 0 0 1 40.570085757011626 18.710006833353848 8.5678778201994223 1 rotate no_reflect no_shear #
lump $-1 $-1 $21 $3 #
transform $-1 1 0 0 0 1 0 0 0 1 40.570085757011626 18.710006833353848 8.5678778201994223 1 rotate no_reflect no_shear #
lump $-1 $-1 $22 $4 #
transform $-1 1 0 0 0 1 0 0 0 1 40.570085757011626 18.710006833353848 8.5678778201994223 1 rotate no_reflect no_shear #
lump $-1 $-1 $23 $5 #
transform $-1 1 0 0 0 1 0 0 0 1 40.570085757011626 18.710006833353848 8.5678778201994223 1 rotate no_reflect no_shear #
shell $-1 $-1 $-1 $24 $-1 $6 #
shell $-1 $-1 $-1 $25 $-1 $8 #
shell $-1 $-1 $-1 $26 $-1 $10 #
shell $-1 $-1 $-1 $27 $-1 $12 #
shell $-1 $-1 $-1 $28 $-1 $14 #
shell $-1 $-1 $-1 $29 $-1 $16 #
face $-1 $30 $31 $18 $-1 $32 forward single #
face $-1 $33 $34 $19 $-1 $35 reversed single #
face $-1 $36 $37 $20 $-1 $38 reversed single #
face $-1 $39 $40 $21 $-1 $41 forward single #
face $-1 $42 $43 $22 $-1 $44 reversed single #
face $-1 $45 $46 $23 $-1 $47 forward single #
face $-1 $48 $49 $18 $-1 $50 reversed single #
loop $-1 $-1 $51 $24 #
plane-surface $-1 0 0 8.5678778201994223 0 0 1 1 0 0 forward_v I I I I #
face $-1 $52 $53 $19 $-1 $54 reversed single #
loop $-1 $-1 $55 $25 #
plane-surface $-1 0 -13.65119885342299 4.1707970071851843 0 0 1 1 0 0 forward_v I I I I #
face $-1 $56 $57 $20 $-1 $58 reversed single #
loop $-1 $-1 $59 $26 #
plane-surface $-1 46.575613608966393 -2.2390490489673267 115.44749481995133 0 -1 0 -0.74314483375859142 0 -0.66913059716165679 forward_v I I I I #
face $-1 $60 $61 $21 $-1 $62 forward single #
loop $-1 $63 $64 $27 #
cone-surface $-1 35.409870569338167 -5.4157199612297315 3.1917023131432902 -0.74314483375859142 0 -0.66913059716165679 1.0036958957424851 0 -1.1147172506378871 1 I I 0 1 1.5 forward I I I I #
face $-1 $65 $66 $22 $-1 $67 reversed single #
loop $-1 $-1 $68 $28 #
plane-surface $-1 -40.570085757011618 -5.4157199612297298 0.85522413004130016 -0.74314483375859142 0 0.66913059716165679 0.66913059716165679 0 0.74314483375859142 forward_v I I I I #
face $-1 $69 $70 $23 $-1 $71 forward single #
loop $-1 $72 $73 $29 #
cone-surface $-1 -35.409870569338167 -5.4157199612297315 3.1917023131432938 0.74314483375859142 0 -0.66913059716165679 1.0036958957424851 0 1.1147172506378871 1 I I 0 1 1.5 forward I I I I #
face $-1 $74 $75 $18 $-1 $76 reversed single #
loop $-1 $-1 $77 $30 #
plane-surface $-1 0 0 -8.5678778201994223 0 0 1 1 0 0 forward_v I I I I #
coedge $-1 $78 $79 $80 $81 forward $31 $-1 #
face $-1 $82 $83 $19 $-1 $84 reversed single #
loop $-1 $-1 $85 $33 #
plane-surface $-1 0 -8.5923908734921319 6.3693374136923033 0 -1 0 0 0 -1 forward_v I I I I #
coedge $-1 $86 $87 $88 $89 reversed $34 $-1 #
face $-1 $90 $91 $20 $-1 $92 forward single #
loop $-1 $-1 $93 $36 #
plane-surface $-1 -13.72328566196601 -5.4157199612297298 61.154123400973695 0.74314483375859142 0 0.66913059716165679 0.66913059716165679 0 -0.74314483375859142 forward_v I I I I #
coedge $-1 $94 $95 $96 $97 reversed $37 $-1 #
face $-1 $-1 $98 $21 $-1 $99 forward single #
loop $-1 $100 $101 $39 #
cone-surface $-1 33.1645489573703 -5.4157199612297315 1.170005703294974 -0.74314483375859142 0 -0.66913059716165679 0.50184794787124254 0 -0.55735862531894353 1 I I -0.70710678118654757 0.70710678118654757 0.75 forward I I I I #
loop $-1 $-1 $102 $27 #
coedge $-1 $64 $64 $103 $104 reversed $40 $-1 #
face $-1 $105 $106 $22 $-1 $107 forward single #
loop $-1 $-1 $108 $42 #
plane-surface $-1 -100.86898502794402 -2.2390490489673267 55.148595549018935 0 -1 0 0.74314483375859142 0 -0.66913059716165679 forward_v I I I I #
coedge $-1 $109 $110 $111 $112 reversed $43 $-1 #
face $-1 $-1 $113 $23 $-1 $114 forward single #
loop $-1 $115 $116 $45 #
cone-surface $-1 -33.1645489573703 -5.4157199612297315 1.1700057032949776 0.74314483375859142 0 -0.66913059716165679 0.50184794787124254 0 0.55735862531894353 1 I I -0.70710678118654757 0.70710678118654757 0.75 forward I I I I #
loop $-1 $-1 $117 $29 #
coedge $-1 $73 $73 $118 $119 reversed $46 $-1 #
face $-1 $120 $121 $18 $-1 $122 reversed single #
loop $-1 $-1 $123 $48 #
plane-surface $-1 0 -18.710006833353848 0 0 1 0 0 0 1 forward_v I I I I #
coedge $-1 $124 $125 $126 $127 forward $49 $-1 #
coedge $-1 $128 $51 $129 $130 forward $31 $-1 #
coedge $-1 $51 $128 $131 $132 forward $31 $-1 #
coedge $-1 $133 $134 $51 $81 reversed $135 $-1 #
edge $-1 $136 -18.710006833353848 $137 18.710006833353848 $80 $138 forward 7 unknown #
face $-1 $139 $140 $19 $-1 $141 reversed single #
loop $-1 $-1 $142 $52 #
plane-surface $-1 -40.570085757011626 0 0 1 0 0 0 0 -1 forward_v I I I I #
coedge $-1 $143 $144 $145 $146 reversed $53 $-1 #
coedge $-1 $147 $55 $148 $149 reversed $34 $-1 #
coedge $-1 $55 $147 $143 $150 forward $34 $-1 #
coedge $-1 $145 $151 $55 $89 forward $152 $-1 #
edge $-1 $153 -11.884407406642353 $154 -1.7667914467806369 $88 $155 forward 7 unknown #
face $-1 $156 $157 $20 $-1 $158 forward single #
loop $-1 $-1 $159 $56 #
plane-surface $-1 0 -8.5923908734921319 6.3693374136923033 0 -1 0 0 0 -1 forward_v I I I I #
coedge $-1 $160 $161 $162 $163 reversed $57 $-1 #
coedge $-1 $95 $59 $164 $165 reversed $37 $-1 #
coedge $-1 $59 $94 $160 $166 reversed $37 $-1 #
coedge $-1 $162 $167 $59 $97 forward $157 $-1 #
edge $-1 $168 -17.282278952528429 $169 -10.337774550479359 $96 $170 forward 7 unknown #
loop $-1 $-1 $103 $60 #
plane-surface $-1 -13.72328566196601 -5.4157199612297298 61.154123400973695 0.74314483375859142 0 0.66913059716165679 0.66913059716165679 0 -0.74314483375859142 forward_v I I I I #
loop $-1 $-1 $171 $39 #
coedge $-1 $101 $101 $102 $172 reversed $61 $-1 #
coedge $-1 $102 $102 $101 $172 forward $63 $-1 #
coedge $-1 $103 $103 $64 $104 forward $98 $-1 #
edge $-1 $173 0 $173 6.2831853071796004 $103 $174 forward 7 unknown #
face $-1 $175 $176 $22 $-1 $177 reversed single #
loop $-1 $-1 $111 $65 #
plane-surface $-1 0 0 8.5678778201994223 0 0 1 1 0 0 forward_v I I I I #
coedge $-1 $178 $179 $180 $181 reversed $66 $-1 #
coedge $-1 $182 $68 $183 $184 reversed $43 $-1 #
coedge $-1 $68 $182 $178 $185 forward $43 $-1 #
coedge $-1 $180 $186 $68 $112 forward $106 $-1 #
edge $-1 $187 -5.884530892877267 $188 0.46881093164753818 $111 $189 forward 7 unknown #
loop $-1 $-1 $118 $69 #
plane-surface $-1 -40.570085757011618 -5.4157199612297298 0.85522413004130016 -0.74314483375859142 0 0.66913059716165679 0.66913059716165679 0 0.74314483375859142 forward_v I I I I #
loop $-1 $-1 $190 $45 #
coedge $-1 $116 $116 $117 $191 reversed $70 $-1 #
coedge $-1 $117 $117 $116 $191 forward $72 $-1 #
coedge $-1 $118 $118 $73 $119 forward $113 $-1 #
edge $-1 $192 0 $192 6.2831853071796004 $118 $193 forward 7 unknown #
face $-1 $194 $195 $18 $-1 $196 reversed single #
loop $-1 $-1 $197 $74 #
plane-surface $-1 -40.570085757011626 0 0 1 0 0 0 0 -1 forward_v I I I I #
coedge $-1 $198 $131 $199 $200 forward $75 $-1 #
coedge $-1 $201 $77 $198 $202 forward $49 $-1 #
coedge $-1 $77 $201 $203 $204 forward $49 $-1 #
coedge $-1 $134 $133 $77 $127 reversed $135 $-1 #
edge $-1 $205 -18.710006833353848 $206 18.710006833353848 $126 $207 forward 7 unknown #
coedge $-1 $79 $78 $208 $209 forward $31 $-1 #
coedge $-1 $210 $211 $78 $130 reversed $195 $-1 #
edge $-1 $137 -40.570085757011626 $212 40.570085757011626 $129 $213 forward 7 unknown #
coedge $-1 $123 $214 $79 $132 reversed $75 $-1 #
edge $-1 $215 -40.570085757011626 $136 40.570085757011626 $131 $216 forward 7 unknown #
coedge $-1 $126 $80 $214 $217 forward $135 $-1 #
coedge $-1 $80 $126 $210 $218 reversed $135 $-1 #
loop $-1 $-1 $133 $194 #
vertex $-1 $81 $219 #
vertex $-1 $81 $220 #
straight-curve $-1 40.570085757011626 0 8.5678778201994223 0 1 0 I I #
face $-1 $221 $222 $19 $-1 $223 forward single #
loop $-1 $-1 $148 $82 #
plane-surface $-1 0 -18.710006833353848 0 0 1 0 0 0 1 forward_v I I I I #
coedge $-1 $224 $225 $226 $227 forward $83 $-1 #
coedge $-1 $226 $85 $87 $150 reversed $53 $-1 #
coedge $-1 $85 $226 $228 $229 reversed $53 $-1 #
coedge $-1 $230 $88 $85 $146 forward $152 $-1 #
edge $-1 $154 0.98612830033903265 $231 5.3832091133532707 $145 $232 forward 7 unknown #
coedge $-1 $87 $86 $224 $233 reversed $34 $-1 #
coedge $-1 $234 $235 $86 $149 forward $140 $-1 #
edge $-1 $236 -40.570085757011626 $153 40.570085757011626 $148 $237 forward 7 unknown #
edge $-1 $238 -40.570085757011626 $154 40.570085757011626 $143 $239 forward 7 unknown #
coedge $-1 $88 $230 $234 $240 forward $152 $-1 #
loop $-1 $-1 $145 $221 #
vertex $-1 $149 $241 #
vertex $-1 $89 $242 #
straight-curve $-1 40.570085757011626 -6.825599426711495 4.1707970071851843 0 1 0 I I #
face $-1 $-1 $243 $20 $-1 $244 reversed single #
loop $-1 $-1 $162 $90 #
plane-surface $-1 0 0 8.5678778201994223 0 0 1 1 0 0 forward_v I I I I #
coedge $-1 $245 $246 $161 $247 reversed $91 $-1 #
coedge $-1 $248 $93 $95 $166 forward $57 $-1 #
coedge $-1 $93 $248 $159 $247 forward $57 $-1 #
coedge $-1 $249 $96 $93 $163 forward $157 $-1 #
edge $-1 $169 -0.46881093164753818 $250 5.884530892877267 $162 $251 forward 7 unknown #
coedge $-1 $252 $253 $94 $165 forward $243 $-1 #
edge $-1 $254 -56.868523279934372 $168 -49.155869589776245 $164 $255 forward 7 unknown #
edge $-1 $169 70.761772392078257 $254 81.140171514023251 $95 $256 forward 7 unknown #
coedge $-1 $96 $249 $252 $257 forward $157 $-1 #
vertex $-1 $165 $258 #
vertex $-1 $97 $259 #
straight-curve $-1 23.287806804483196 -2.2390490489673267 8.5678778201994206 -1 0 0 I I #
coedge $-1 $171 $171 $-1 $260 reversed $100 $-1 #
edge $-1 $261 0 $261 6.2831853071796004 $101 $262 forward 7 unknown #
vertex $-1 $104 $263 #
ellipse-curve $-1 37.097833555987087 -5.4157199612297315 4.7115509751203586 0.74314483375859142 0 0.66913059716165679 1.0036958957424851 0 -1.1147172506378871 1 I I #
face $-1 $-1 $264 $22 $-1 $265 forward single #
loop $-1 $-1 $266 $105 #
plane-surface $-1 -40.570085757011626 0 0 1 0 0 0 0 -1 forward_v I I I I #
coedge $-1 $179 $108 $110 $185 reversed $66 $-1 #
coedge $-1 $108 $178 $266 $267 reversed $66 $-1 #
coedge $-1 $268 $111 $108 $181 forward $106 $-1 #
edge $-1 $188 -16.808911159009462 $269 -9.8644067569603848 $180 $270 forward 7 unknown #
coedge $-1 $110 $109 $271 $272 reversed $43 $-1 #
coedge $-1 $273 $274 $109 $184 forward $264 $-1 #
edge $-1 $275 -15.622235254496847 $187 -5.2438361325518432 $183 $276 forward 7 unknown #
edge $-1 $277 -1.0612360036877491e-014 $188 10.378399121944994 $178 $278 forward 7 unknown #
coedge $-1 $111 $268 $273 $279 forward $106 $-1 #
vertex $-1 $184 $280 #
vertex $-1 $112 $281 #
straight-curve $-1 -33.625581354962549 -2.7078599806148649 8.5678778201994223 0 1 0 I I #
coedge $-1 $190 $190 $-1 $282 reversed $115 $-1 #
edge $-1 $283 0 $283 6.2831853071796004 $116 $284 forward 7 unknown #
vertex $-1 $119 $285 #
ellipse-curve $-1 -37.097833555987087 -5.4157199612297315 4.7115509751203604 -0.74314483375859142 0 0.66913059716165679 1.0036958957424851 0 1.1147172506378871 1 I I #
face $-1 $-1 $135 $18 $-1 $286 reversed single #
loop $-1 $-1 $210 $120 #
plane-surface $-1 0 18.710006833353848 0 0 -1 0 0 0 -1 forward_v I I I I #
coedge $-1 $287 $208 $211 $288 forward $121 $-1 #
coedge $-1 $214 $123 $124 $202 reversed $75 $-1 #
coedge $-1 $208 $287 $123 $200 reversed $121 $-1 #
edge $-1 $215 -8.5678778201994223 $289 8.5678778201994223 $199 $290 forward 7 unknown #
coedge $-1 $125 $124 $287 $291 forward $49 $-1 #
edge $-1 $206 -40.570085757011626 $289 40.570085757011626 $198 $292 forward 7 unknown #
coedge $-1 $211 $210 $125 $204 reversed $195 $-1 #
edge $-1 $293 -40.570085757011626 $205 40.570085757011626 $203 $294 forward 7 unknown #
vertex $-1 $127 $295 #
vertex $-1 $217 $296 #
straight-curve $-1 40.570085757011626 0 -8.5678778201994223 0 -1 0 I I #
coedge $-1 $197 $199 $128 $209 reversed $121 $-1 #
edge $-1 $212 -18.710006833353848 $215 18.710006833353848 $208 $297 forward 7 unknown #
coedge $-1 $203 $129 $134 $218 forward $195 $-1 #
coedge $-1 $129 $203 $197 $288 reversed $195 $-1 #
vertex $-1 $130 $298 #
straight-curve $-1 0 18.710006833353848 8.5678778201994223 -1 0 0 I I #
coedge $-1 $131 $198 $133 $217 reversed $75 $-1 #
vertex $-1 $209 $299 #
straight-curve $-1 0 -18.710006833353848 8.5678778201994223 1 0 0 I I #
edge $-1 $136 -8.5678778201994223 $206 8.5678778201994223 $133 $300 forward 7 unknown #
edge $-1 $137 -8.5678778201994223 $205 8.5678778201994223 $134 $301 forward 7 unknown #
point $-1 40.570085757011626 -18.710006833353848 8.5678778201994223 #
point $-1 40.570085757011626 18.710006833353848 8.5678778201994223 #
face $-1 $-1 $152 $19 $-1 $302 reversed single #
loop $-1 $-1 $228 $139 #
plane-surface $-1 0 0 8.5678778201994223 0 0 1 1 0 0 forward_v I I I I #
coedge $-1 $303 $142 $147 $233 forward $83 $-1 #
coedge $-1 $142 $303 $304 $305 reversed $83 $-1 #
coedge $-1 $144 $143 $142 $227 reversed $53 $-1 #
edge $-1 $306 -5.3832091133532707 $238 -0.98612830033903265 $142 $307 forward 7 unknown #
coedge $-1 $304 $308 $144 $229 forward $222 $-1 #
edge $-1 $231 -40.570085757011626 $306 40.570085757011626 $228 $309 forward 7 unknown #
coedge $-1 $151 $145 $308 $310 reversed $152 $-1 #
vertex $-1 $146 $311 #
straight-curve $-1 40.570085757011626 -8.5923908734921319 3.1846687068461517 0 0 1 I I #
edge $-1 $238 1.7667914467806369 $236 11.884407406642353 $224 $312 forward 7 unknown #
coedge $-1 $313 $148 $151 $240 reversed $140 $-1 #
coedge $-1 $148 $313 $303 $314 forward $140 $-1 #
vertex $-1 $149 $315 #
straight-curve $-1 0 -18.710006833353848 4.1707970071851843 1 0 0 I I #
vertex $-1 $233 $316 #
straight-curve $-1 0 -8.5923908734921319 4.1707970071851843 1 0 0 I I #
edge $-1 $317 -8.5678778201994223 $153 -4.1707970071851843 $151 $318 forward 7 unknown #
point $-1 40.570085757011626 -18.710006833353848 4.1707970071851843 #
point $-1 40.570085757011626 -8.5923908734921319 4.1707970071851843 #
loop $-1 $-1 $164 $156 #
plane-surface $-1 40.570085757011626 0 0 -1 0 0 0 0 1 forward_v I I I I #
coedge $-1 $246 $159 $319 $320 reversed $91 $-1 #
coedge $-1 $159 $245 $249 $321 reversed $91 $-1 #
edge $-1 $322 -81.140171514023251 $250 -70.761772392078242 $159 $323 forward 7 unknown #
coedge $-1 $161 $160 $253 $324 reversed $57 $-1 #
coedge $-1 $167 $162 $246 $321 forward $157 $-1 #
vertex $-1 $321 $325 #
straight-curve $-1 33.625581354962549 -2.7078599806148649 8.5678778201994206 0 -1 0 I I #
coedge $-1 $319 $164 $167 $257 reversed $243 $-1 #
coedge $-1 $164 $319 $248 $324 forward $243 $-1 #
vertex $-1 $165 $326 #
straight-curve $-1 40.570085757011626 -2.2390490489673267 57.723747409975665 0 0 1 I I #
straight-curve $-1 -13.72328566196601 -2.2390490489673267 61.154123400973695 0.66913059716165679 0 -0.74314483375859142 I I #
edge $-1 $327 -8.5923908734921319 $168 -2.2390490489673267 $252 $328 forward 7 unknown #
point $-1 40.570085757011626 -2.2390490489673267 8.5678778201994223 #
point $-1 33.625581354962556 -2.2390490489673267 8.5678778201994135 #
edge $-1 $329 1 $329 0 $171 $-1 forward 7 unknown #
vertex $-1 $172 $330 #
ellipse-curve $-1 33.721907582689241 -5.4157199612297315 1.6718536511662165 0.74314483375859142 0 0.66913059716165679 1.0036958957424851 0 -1.1147172506378871 1 I I #
point $-1 38.101529451729583 -5.4157199612297315 3.5968337244824764 #
loop $-1 $-1 $183 $175 #
plane-surface $-1 0 -8.5923908734921319 6.3693374136923033 0 -1 0 0 0 -1 forward_v I I I I #
coedge $-1 $271 $331 $179 $267 forward $176 $-1 #
edge $-1 $269 19.006419954310047 $277 26.719073644468175 $266 $332 forward 7 unknown #
coedge $-1 $186 $180 $331 $333 forward $106 $-1 #
vertex $-1 $333 $334 #
straight-curve $-1 -50.43449251397201 -2.2390490489673267 8.5678778201994241 -1 0 0 I I #
coedge $-1 $335 $266 $182 $272 forward $176 $-1 #
edge $-1 $277 -0.46881093164753818 $275 5.884530892877267 $271 $336 forward 7 unknown #
coedge $-1 $274 $183 $186 $279 reversed $264 $-1 #
coedge $-1 $183 $273 $335 $337 reversed $264 $-1 #
vertex $-1 $337 $338 #
straight-curve $-1 -30.116770152170261 -8.5923908734921319 12.464807551181959 0.66913059716165679 0 0.74314483375859142 I I #
vertex $-1 $272 $339 #
straight-curve $-1 -40.570085757011618 -2.2390490489673267 0.85522413004130016 0.66913059716165679 0 0.74314483375859142 I I #
edge $-1 $340 -40.570085757011626 $187 -33.625581354962549 $186 $341 forward 7 unknown #
point $-1 -33.625581354962549 -8.5923908734921319 8.5678778201994241 #
point $-1 -33.625581354962549 -2.2390490489673267 8.5678778201994241 #
edge $-1 $342 1 $342 0 $190 $-1 forward 7 unknown #
vertex $-1 $191 $343 #
ellipse-curve $-1 -33.721907582689241 -5.4157199612297315 1.6718536511662201 -0.74314483375859142 0 0.66913059716165679 1.0036958957424851 0 1.1147172506378871 1 I I #
point $-1 -36.094137660244613 -5.4157199612297315 5.8262682257582536 #
plane-surface $-1 40.570085757011626 0 0 -1 0 0 0 0 1 forward_v I I I I #
coedge $-1 $199 $197 $201 $291 reversed $121 $-1 #
edge $-1 $212 -8.5678778201994223 $293 8.5678778201994223 $211 $344 forward 7 unknown #
vertex $-1 $291 $345 #
straight-curve $-1 -40.570085757011626 -18.710006833353848 0 0 0 -1 I I #
edge $-1 $289 -18.710006833353848 $293 18.710006833353848 $287 $346 forward 7 unknown #
straight-curve $-1 0 -18.710006833353848 -8.5678778201994223 -1 0 0 I I #
vertex $-1 $204 $347 #
straight-curve $-1 0 18.710006833353848 -8.5678778201994223 1 0 0 I I #
point $-1 40.570085757011626 18.710006833353848 -8.5678778201994223 #
point $-1 40.570085757011626 -18.710006833353848 -8.5678778201994223 #
straight-curve $-1 -40.570085757011626 0 8.5678778201994223 0 -1 0 I I #
point $-1 -40.570085757011626 18.710006833353848 8.5678778201994223 #
point $-1 -40.570085757011626 -18.710006833353848 8.5678778201994223 #
straight-curve $-1 40.570085757011626 -18.710006833353848 0 0 0 -1 I I #
straight-curve $-1 40.570085757011626 18.710006833353848 0 0 0 -1 I I #
plane-surface $-1 40.570085757011626 0 0 -1 0 0 0 0 1 forward_v I I I I #
coedge $-1 $225 $224 $235 $314 reversed $83 $-1 #
coedge $-1 $348 $228 $225 $305 forward $222 $-1 #
edge $-1 $306 8.5923908734921319 $349 18.710006833353848 $225 $350 forward 7 unknown #
vertex $-1 $305 $351 #
straight-curve $-1 -40.570085757011626 -8.5923908734921319 3.1846687068461517 0 0 -1 I I #
coedge $-1 $228 $348 $230 $310 forward $222 $-1 #
straight-curve $-1 0 -8.5923908734921319 8.5678778201994223 -1 0 0 I I #
edge $-1 $317 -18.710006833353848 $231 -8.5923908734921319 $230 $352 forward 7 unknown #
point $-1 40.570085757011626 -8.5923908734921319 8.5678778201994223 #
straight-curve $-1 -40.570085757011626 -6.825599426711495 4.1707970071851843 0 -1 0 I I #
coedge $-1 $235 $234 $348 $353 reversed $140 $-1 #
edge $-1 $349 -8.5678778201994223 $236 -4.1707970071851843 $303 $354 forward 7 unknown #
point $-1 -40.570085757011626 -18.710006833353848 4.1707970071851843 #
point $-1 -40.570085757011626 -8.5923908734921319 4.1707970071851843 #
vertex $-1 $310 $355 #
straight-curve $-1 40.570085757011626 -18.710006833353848 0 0 0 -1 I I #
coedge $-1 $253 $252 $245 $320 forward $243 $-1 #
edge $-1 $327 49.155869589776245 $322 56.868523279934372 $319 $356 forward 7 unknown #
edge $-1 $250 33.625581354962549 $327 40.570085757011626 $249 $357 forward 7 unknown #
vertex $-1 $320 $358 #
straight-curve $-1 -13.72328566196601 -8.5923908734921319 61.154123400973695 -0.66913059716165679 0 0.74314483375859142 I I #
edge $-1 $322 -5.884530892877267 $254 0.46881093164753818 $253 $359 forward 7 unknown #
point $-1 33.625581354962549 -8.5923908734921319 8.5678778201994223 #
point $-1 40.570085757011626 -2.2390490489673267 0.85522413004129305 #
vertex $-1 $257 $360 #
straight-curve $-1 40.570085757011626 0 8.5678778201994223 0 1 0 I I #
vertex $-1 $260 $361 #
point $-1 34.725603478431729 -5.4157199612297315 0.55713640052832947 #
coedge $-1 $266 $335 $268 $333 reversed $176 $-1 #
straight-curve $-1 -40.570085757011626 -2.2390490489673267 27.574297774509468 0 0 -1 I I #
edge $-1 $269 2.2390490489673267 $340 8.5923908734921319 $331 $362 forward 7 unknown #
point $-1 -40.570085757011626 -2.2390490489673267 8.5678778201994223 #
coedge $-1 $331 $271 $274 $337 forward $176 $-1 #
straight-curve $-1 -40.570085757011626 -2.7078599806148649 0.85522413004129583 0 -1 0 I I #
edge $-1 $275 -26.719073644468175 $340 -19.006419954310047 $335 $363 forward 7 unknown #
point $-1 -40.570085757011626 -8.5923908734921319 0.85522413004129227 #
point $-1 -40.570085757011626 -2.2390490489673267 0.85522413004129227 #
vertex $-1 $337 $364 #
straight-curve $-1 0 -8.5923908734921319 8.5678778201994223 1 0 0 I I #
vertex $-1 $282 $365 #
point $-1 -32.718211686946759 -5.4157199612297315 2.7865709018041072 #
straight-curve $-1 -40.570085757011626 18.710006833353848 0 0 0 -1 I I #
point $-1 -40.570085757011626 -18.710006833353848 -8.5678778201994223 #
straight-curve $-1 -40.570085757011626 0 -8.5678778201994223 0 1 0 I I #
point $-1 -40.570085757011626 18.710006833353848 -8.5678778201994223 #
coedge $-1 $308 $304 $313 $353 forward $222 $-1 #
vertex $-1 $305 $366 #
straight-curve $-1 -40.570085757011626 0 8.5678778201994223 0 -1 0 I I #
point $-1 -40.570085757011626 -8.5923908734921319 8.5678778201994223 #
straight-curve $-1 40.570085757011626 0 8.5678778201994223 0 1 0 I I #
edge $-1 $349 -40.570085757011626 $317 40.570085757011626 $313 $367 forward 7 unknown #
straight-curve $-1 -40.570085757011626 -18.710006833353848 0 0 0 -1 I I #
point $-1 40.570085757011626 -18.710006833353848 8.5678778201994223 #
straight-curve $-1 40.570085757011626 -8.5923908734921319 57.723747409975665 0 0 -1 I I #
straight-curve $-1 0 -8.5923908734921319 8.5678778201994223 1 0 0 I I #
point $-1 40.570085757011626 -8.5923908734921319 0.85522413004129305 #
straight-curve $-1 40.570085757011626 -2.7078599806148649 0.8552241300412895 0 1 0 I I #
point $-1 40.570085757011626 -8.5923908734921319 8.5678778201994223 #
point $-1 32.60719033205136 -5.4157199612297315 0.66815775542373146 #
straight-curve $-1 -40.570085757011626 0 8.5678778201994223 0 -1 0 I I #
straight-curve $-1 -40.570085757011626 -8.5923908734921319 27.574297774509468 0 0 1 I I #
point $-1 -40.570085757011626 -8.5923908734921319 8.5678778201994223 #
point $-1 -32.60719033205136 -5.4157199612297315 0.66815775542373501 #
point $-1 -40.570085757011626 -18.710006833353848 8.5678778201994223 #
straight-curve $-1 0 -18.710006833353848 8.5678778201994223 1 0 0 I I #
End-of-ACIS-data 