500 0 8 0           
7 Unknown 11 ACIS 5.0 NT 24 Fri Mar 26 18:21:22 1999 
-1 9.9999999999999995e-007 1e-010 
body $-1 $8 $-1 $9 #
body $-1 $10 $-1 $11 #
body $-1 $12 $-1 $13 #
body $-1 $14 $-1 $15 #
body $-1 $16 $-1 $17 #
body $-1 $18 $-1 $19 #
body $-1 $20 $-1 $21 #
body $-1 $22 $-1 $23 #
lump $-1 $-1 $24 $0 #
transform $-1 1 0 0 0 1 0 0 0 1 57.302774132511367 38.333417118052793 7.9650025057695437 1 rotate no_reflect no_shear #
lump $-1 $-1 $25 $1 #
transform $-1 1 0 0 0 1 0 0 0 1 57.302774132511367 38.333417118052793 7.9650025057695437 1 rotate no_reflect no_shear #
lump $-1 $-1 $26 $2 #
transform $-1 1 0 0 0 1 0 0 0 1 57.302774132511367 38.333417118052793 7.9650025057695437 1 rotate no_reflect no_shear #
lump $-1 $-1 $27 $3 #
transform $-1 1 0 0 0 1 0 0 0 1 57.302774132511367 38.333417118052793 7.9650025057695437 1 rotate no_reflect no_shear #
lump $-1 $-1 $28 $4 #
transform $-1 1 0 0 0 1 0 0 0 1 57.302774132511367 38.333417118052793 7.9650025057695437 1 rotate no_reflect no_shear #
lump $-1 $-1 $29 $5 #
transform $-1 1 0 0 0 1 0 0 0 1 57.302774132511367 38.333417118052793 7.9650025057695437 1 rotate no_reflect no_shear #
lump $-1 $-1 $30 $6 #
transform $-1 1 0 0 0 1 0 0 0 1 57.302774132511367 38.333417118052793 7.9650025057695437 1 rotate no_reflect no_shear #
lump $-1 $-1 $31 $7 #
transform $-1 1 0 0 0 1 0 0 0 1 57.302774132511367 38.333417118052793 7.9650025057695437 1 rotate no_reflect no_shear #
shell $-1 $-1 $-1 $32 $-1 $8 #
shell $-1 $-1 $-1 $33 $-1 $10 #
shell $-1 $-1 $-1 $34 $-1 $12 #
shell $-1 $-1 $-1 $35 $-1 $14 #
shell $-1 $-1 $-1 $36 $-1 $16 #
shell $-1 $-1 $-1 $37 $-1 $18 #
shell $-1 $-1 $-1 $38 $-1 $20 #
shell $-1 $-1 $-1 $39 $-1 $22 #
face $-1 $40 $41 $24 $-1 $42 forward single #
face $-1 $43 $44 $25 $-1 $45 reversed single #
face $-1 $46 $47 $26 $-1 $48 reversed single #
face $-1 $49 $50 $27 $-1 $51 forward single #
face $-1 $52 $53 $28 $-1 $54 forward single #
face $-1 $55 $56 $29 $-1 $57 reversed single #
face $-1 $58 $59 $30 $-1 $60 forward single #
face $-1 $61 $62 $31 $-1 $63 forward single #
face $-1 $64 $65 $24 $-1 $66 reversed single #
loop $-1 $-1 $67 $32 #
plane-surface $-1 0 0 7.9650025057695437 0 0 1 1 0 0 forward_v I I I I #
face $-1 $68 $69 $25 $-1 $70 reversed single #
loop $-1 $-1 $71 $33 #
plane-surface $-1 -55.802774132511367 -30.487611323264701 0 0 -1 0 0 0 -1 forward_v I I I I #
face $-1 $72 $73 $26 $-1 $74 reversed single #
loop $-1 $-1 $75 $34 #
plane-surface $-1 99.251318634055849 -21.706403467485885 160.27325795964532 0 -1 0 -0.86602541151947299 0 -0.49999998660252726 forward_v I I I I #
face $-1 $76 $77 $27 $-1 $78 forward single #
loop $-1 $79 $80 $35 #
cone-surface $-1 55.64409469930952 -27.97869479304218 5.5920853915472684 -0.86602541151947299 0 -0.49999998660252726 0.24999999330126363 0 -0.43301270575973649 1 I I 0 1 0.5 forward I I I I #
face $-1 $81 $82 $28 $-1 $83 forward single #
loop $-1 $84 $85 $36 #
cone-surface $-1 55.64409469930952 -24.215319997708406 5.5920853915472684 -0.86602541151947299 0 -0.49999998660252726 0.24999999330126363 0 -0.43301270575973649 1 I I 0 1 0.5 forward I I I I #
face $-1 $86 $87 $29 $-1 $88 reversed single #
loop $-1 $-1 $89 $37 #
plane-surface $-1 -156.55409123114251 -21.706403467485885 61.021940861014187 0 -1 0 0.86602541151947299 0 -0.49999998660252726 forward_v I I I I #
face $-1 $90 $91 $30 $-1 $92 forward single #
loop $-1 $93 $94 $38 #
cone-surface $-1 -55.64409469930952 -27.97869479304218 5.5920853915472737 0.86602541151947299 0 -0.49999998660252726 0.24999999330126363 0 0.43301270575973649 1 I I 0 1 0.5 forward I I I I #
face $-1 $95 $96 $31 $-1 $97 forward single #
loop $-1 $98 $99 $39 #
cone-surface $-1 -55.64409469930952 -24.215319997708406 5.5920853915472737 0.86602541151947299 0 -0.49999998660252726 0.24999999330126363 0 0.43301270575973649 1 I I 0 1 0.5 forward I I I I #
face $-1 $100 $101 $24 $-1 $102 reversed single #
loop $-1 $-1 $103 $40 #
plane-surface $-1 0 0 -7.9650025057695437 0 0 1 1 0 0 forward_v I I I I #
coedge $-1 $104 $105 $106 $107 forward $41 $-1 #
face $-1 $108 $109 $25 $-1 $110 forward single #
loop $-1 $-1 $111 $43 #
plane-surface $-1 -54.302774132511367 -34.410514220658747 0 -1 0 0 0 0 1 forward_v I I I I #
coedge $-1 $112 $113 $114 $115 forward $44 $-1 #
face $-1 $116 $117 $26 $-1 $118 reversed single #
loop $-1 $-1 $119 $46 #
plane-surface $-1 1.5354247011600819e-006 -26.097007395375293 102.97048536255866 0.86602541151947299 0 0.49999998660252726 0.49999998660252726 0 -0.86602541151947299 forward_v I I I I #
coedge $-1 $120 $121 $122 $123 reversed $47 $-1 #
face $-1 $-1 $124 $27 $-1 $125 forward single #
loop $-1 $126 $127 $49 #
cone-surface $-1 54.994575640669915 -27.97869479304218 5.2170854015953729 -0.86602541151947299 0 -0.49999998660252726 0.12499999665063181 0 -0.21650635287986825 1 I I -0.70710678118654746 0.70710678118654746 0.25 forward I I I I #
loop $-1 $-1 $128 $35 #
coedge $-1 $80 $80 $129 $130 reversed $50 $-1 #
face $-1 $-1 $131 $28 $-1 $132 forward single #
loop $-1 $133 $134 $52 #
cone-surface $-1 54.994575640669915 -24.215319997708406 5.2170854015953729 -0.86602541151947299 0 -0.49999998660252726 0.12499999665063181 0 -0.21650635287986825 1 I I -0.70710678118654746 0.70710678118654746 0.25 forward I I I I #
loop $-1 $-1 $135 $36 #
coedge $-1 $85 $85 $136 $137 reversed $53 $-1 #
face $-1 $138 $139 $29 $-1 $140 forward single #
loop $-1 $-1 $141 $55 #
plane-surface $-1 -57.30277413251136 -26.097007395375293 3.7191682639275214 -0.86602541151947299 0 0.49999998660252726 0.49999998660252726 0 0.86602541151947299 forward_v I I I I #
coedge $-1 $142 $143 $144 $145 reversed $56 $-1 #
face $-1 $-1 $146 $30 $-1 $147 forward single #
loop $-1 $148 $149 $58 #
cone-surface $-1 -54.994575640669915 -27.97869479304218 5.2170854015953783 0.86602541151947299 0 -0.49999998660252726 0.12499999665063181 0 0.21650635287986825 1 I I -0.70710678118654746 0.70710678118654746 0.25 forward I I I I #
loop $-1 $-1 $150 $38 #
coedge $-1 $94 $94 $151 $152 reversed $59 $-1 #
face $-1 $-1 $153 $31 $-1 $154 forward single #
loop $-1 $155 $156 $61 #
cone-surface $-1 -54.994575640669915 -24.215319997708406 5.2170854015953783 0.86602541151947299 0 -0.49999998660252726 0.12499999665063181 0 0.21650635287986825 1 I I -0.70710678118654746 0.70710678118654746 0.25 forward I I I I #
loop $-1 $-1 $157 $39 #
coedge $-1 $99 $99 $158 $159 reversed $62 $-1 #
face $-1 $160 $161 $24 $-1 $162 reversed single #
loop $-1 $-1 $163 $64 #
plane-surface $-1 0 -38.333417118052793 0 0 1 0 0 0 1 forward_v I I I I #
coedge $-1 $164 $165 $166 $167 forward $65 $-1 #
coedge $-1 $168 $67 $169 $170 forward $41 $-1 #
coedge $-1 $67 $168 $171 $172 forward $41 $-1 #
coedge $-1 $173 $174 $67 $107 reversed $175 $-1 #
edge $-1 $176 -38.333417118052793 $177 38.333417118052793 $106 $178 forward 7 unknown #
face $-1 $179 $180 $25 $-1 $181 reversed single #
loop $-1 $-1 $182 $68 #
plane-surface $-1 0 0 7.9650025057695437 0 0 1 1 0 0 forward_v I I I I #
coedge $-1 $183 $184 $185 $186 reversed $69 $-1 #
coedge $-1 $187 $71 $188 $189 reversed $44 $-1 #
coedge $-1 $71 $187 $190 $191 reversed $44 $-1 #
coedge $-1 $184 $183 $71 $115 reversed $69 $-1 #
edge $-1 $192 -7.9650025057695437 $193 7.9650025057695437 $114 $194 forward 7 unknown #
face $-1 $195 $196 $26 $-1 $197 reversed single #
loop $-1 $-1 $198 $72 #
plane-surface $-1 99.251318634055849 -30.487611323264701 160.27325795964532 0 1 0 0.86602541151947299 0 0.49999998660252726 forward_v I I I I #
coedge $-1 $199 $200 $201 $202 reversed $73 $-1 #
coedge $-1 $121 $75 $203 $204 reversed $47 $-1 #
coedge $-1 $75 $120 $199 $205 reversed $47 $-1 #
coedge $-1 $201 $206 $75 $123 forward $207 $-1 #
edge $-1 $208 -7.6771148154834421 $209 -5.2257813605992069 $122 $210 forward 7 unknown #
loop $-1 $-1 $129 $76 #
plane-surface $-1 1.5354247011600819e-006 -26.097007395375293 102.97048536255866 0.86602541151947299 0 0.49999998660252726 0.49999998660252726 0 -0.86602541151947299 forward_v I I I I #
loop $-1 $-1 $211 $49 #
coedge $-1 $127 $127 $128 $212 reversed $77 $-1 #
coedge $-1 $128 $128 $127 $212 forward $79 $-1 #
coedge $-1 $129 $129 $80 $130 forward $124 $-1 #
edge $-1 $213 0 $213 6.2831853071796004 $129 $214 forward 7 unknown #
loop $-1 $-1 $136 $81 #
plane-surface $-1 1.5354247011600819e-006 -26.097007395375293 102.97048536255866 0.86602541151947299 0 0.49999998660252726 0.49999998660252726 0 -0.86602541151947299 forward_v I I I I #
loop $-1 $-1 $215 $52 #
coedge $-1 $134 $134 $135 $216 reversed $82 $-1 #
coedge $-1 $135 $135 $134 $216 forward $84 $-1 #
coedge $-1 $136 $136 $85 $137 forward $131 $-1 #
edge $-1 $217 0 $217 6.2831853071796004 $136 $218 forward 7 unknown #
face $-1 $219 $220 $29 $-1 $221 forward single #
loop $-1 $-1 $222 $86 #
plane-surface $-1 0 0 7.9650025057695437 0 0 1 1 0 0 forward_v I I I I #
coedge $-1 $223 $224 $225 $226 reversed $87 $-1 #
coedge $-1 $143 $89 $227 $228 reversed $56 $-1 #
coedge $-1 $89 $142 $223 $229 reversed $56 $-1 #
coedge $-1 $225 $230 $89 $145 forward $231 $-1 #
edge $-1 $232 22.54596792473755 $233 26.791802166579586 $144 $234 forward 7 unknown #
loop $-1 $-1 $151 $90 #
plane-surface $-1 -57.30277413251136 -26.097007395375293 3.7191682639275214 -0.86602541151947299 0 0.49999998660252726 0.49999998660252726 0 0.86602541151947299 forward_v I I I I #
loop $-1 $-1 $235 $58 #
coedge $-1 $149 $149 $150 $236 reversed $91 $-1 #
coedge $-1 $150 $150 $149 $236 forward $93 $-1 #
coedge $-1 $151 $151 $94 $152 forward $146 $-1 #
edge $-1 $237 0 $237 6.2831853071796004 $151 $238 forward 7 unknown #
loop $-1 $-1 $158 $95 #
plane-surface $-1 -57.30277413251136 -26.097007395375293 3.7191682639275214 -0.86602541151947299 0 0.49999998660252726 0.49999998660252726 0 0.86602541151947299 forward_v I I I I #
loop $-1 $-1 $239 $61 #
coedge $-1 $156 $156 $157 $240 reversed $96 $-1 #
coedge $-1 $157 $157 $156 $240 forward $98 $-1 #
coedge $-1 $158 $158 $99 $159 forward $153 $-1 #
edge $-1 $241 0 $241 6.2831853071796004 $158 $242 forward 7 unknown #
face $-1 $243 $244 $24 $-1 $245 reversed single #
loop $-1 $-1 $246 $100 #
plane-surface $-1 -57.302774132511367 0 0 1 0 0 0 0 -1 forward_v I I I I #
coedge $-1 $247 $171 $248 $249 forward $101 $-1 #
coedge $-1 $250 $103 $247 $251 forward $65 $-1 #
coedge $-1 $103 $250 $252 $253 forward $65 $-1 #
coedge $-1 $174 $173 $103 $167 reversed $175 $-1 #
edge $-1 $254 -38.333417118052793 $255 38.333417118052793 $166 $256 forward 7 unknown #
coedge $-1 $105 $104 $257 $258 forward $41 $-1 #
coedge $-1 $259 $260 $104 $170 reversed $244 $-1 #
edge $-1 $177 -57.302774132511367 $261 57.302774132511367 $169 $262 forward 7 unknown #
coedge $-1 $163 $263 $105 $172 reversed $101 $-1 #
edge $-1 $264 -57.302774132511367 $176 57.302774132511367 $171 $265 forward 7 unknown #
coedge $-1 $166 $106 $263 $266 forward $175 $-1 #
coedge $-1 $106 $166 $259 $267 reversed $175 $-1 #
loop $-1 $-1 $173 $243 #
vertex $-1 $107 $268 #
vertex $-1 $107 $269 #
straight-curve $-1 57.302774132511367 0 7.9650025057695437 0 1 0 I I #
face $-1 $270 $271 $25 $-1 $272 reversed single #
loop $-1 $-1 $273 $108 #
plane-surface $-1 -57.302774132511367 0 0 1 0 0 0 0 -1 forward_v I I I I #
coedge $-1 $190 $274 $184 $275 forward $109 $-1 #
coedge $-1 $114 $111 $276 $277 reversed $69 $-1 #
coedge $-1 $111 $114 $182 $275 reversed $69 $-1 #
coedge $-1 $278 $279 $111 $186 forward $280 $-1 #
edge $-1 $281 -7.9650025057695437 $282 7.9650025057695437 $185 $283 forward 7 unknown #
coedge $-1 $113 $112 $273 $284 reversed $44 $-1 #
coedge $-1 $276 $285 $112 $189 forward $271 $-1 #
edge $-1 $286 -29.401387066255683 $193 -26.401387066255683 $188 $287 forward 7 unknown #
coedge $-1 $288 $182 $113 $191 forward $109 $-1 #
edge $-1 $192 26.401387066255683 $289 29.401387066255683 $190 $290 forward 7 unknown #
vertex $-1 $191 $291 #
vertex $-1 $189 $292 #
straight-curve $-1 -54.302774132511367 -30.487611323264701 0 0 0 -1 I I #
face $-1 $-1 $207 $26 $-1 $293 forward single #
loop $-1 $-1 $294 $116 #
plane-surface $-1 57.302774132511367 0 0 -1 0 0 0 0 1 forward_v I I I I #
coedge $-1 $295 $296 $297 $298 reversed $117 $-1 #
coedge $-1 $299 $119 $121 $205 forward $73 $-1 #
coedge $-1 $119 $299 $295 $300 forward $73 $-1 #
coedge $-1 $297 $122 $119 $202 forward $207 $-1 #
edge $-1 $209 8.6578997697982381 $301 17.439107625577055 $201 $302 forward 7 unknown #
coedge $-1 $303 $304 $120 $204 forward $196 $-1 #
edge $-1 $305 -76.417460715895146 $208 -72.171626474053113 $203 $306 forward 7 unknown #
edge $-1 $209 109.70288122388759 $305 114.60554826502275 $121 $307 forward 7 unknown #
coedge $-1 $122 $297 $303 $308 forward $207 $-1 #
loop $-1 $-1 $297 $195 #
vertex $-1 $204 $309 #
vertex $-1 $123 $310 #
straight-curve $-1 49.625659317027925 -21.706403467485885 7.9650025057695473 -1 0 0 I I #
coedge $-1 $211 $211 $-1 $311 reversed $126 $-1 #
edge $-1 $312 0 $312 6.2831853071796004 $127 $313 forward 7 unknown #
vertex $-1 $130 $314 #
ellipse-curve $-1 56.077107405069249 -27.97869479304218 5.8420853848485281 0.86602541151947299 0 0.49999998660252726 0.24999999330126363 0 -0.43301270575973649 1 I I #
coedge $-1 $215 $215 $-1 $315 reversed $133 $-1 #
edge $-1 $316 0 $316 6.2831853071796004 $134 $317 forward 7 unknown #
vertex $-1 $137 $318 #
ellipse-curve $-1 56.077107405069249 -24.215319997708406 5.8420853848485281 0.86602541151947299 0 0.49999998660252726 0.24999999330126363 0 -0.43301270575973649 1 I I #
face $-1 $-1 $231 $29 $-1 $319 reversed single #
loop $-1 $-1 $320 $138 #
plane-surface $-1 -55.802774132511367 -30.487611323264701 0 0 -1 0 0 0 -1 forward_v I I I I #
coedge $-1 $227 $321 $322 $323 forward $139 $-1 #
coedge $-1 $322 $141 $143 $229 forward $87 $-1 #
coedge $-1 $141 $322 $320 $324 reversed $87 $-1 #
coedge $-1 $325 $144 $141 $226 forward $231 $-1 #
edge $-1 $233 8.6578997697982381 $326 17.439107625577055 $225 $327 forward 7 unknown #
coedge $-1 $328 $222 $142 $228 forward $139 $-1 #
edge $-1 $329 -23.425604937944122 $232 -20.974271483059887 $227 $330 forward 7 unknown #
edge $-1 $233 -1.4321304723534956e-014 $329 4.9026670411351478 $143 $331 forward 7 unknown #
coedge $-1 $144 $325 $328 $332 reversed $231 $-1 #
loop $-1 $-1 $225 $219 #
vertex $-1 $332 $333 #
vertex $-1 $145 $334 #
straight-curve $-1 -57.302774132511367 -21.706403467485885 30.510970430507093 0 0 -1 I I #
coedge $-1 $235 $235 $-1 $335 reversed $148 $-1 #
edge $-1 $336 0 $336 6.2831853071796004 $149 $337 forward 7 unknown #
vertex $-1 $152 $338 #
ellipse-curve $-1 -56.077107405069249 -27.97869479304218 5.8420853848485326 -0.86602541151947299 0 0.49999998660252726 0.24999999330126363 0 0.43301270575973649 1 I I #
coedge $-1 $239 $239 $-1 $339 reversed $155 $-1 #
edge $-1 $340 0 $340 6.2831853071796004 $156 $341 forward 7 unknown #
vertex $-1 $159 $342 #
ellipse-curve $-1 -56.077107405069249 -24.215319997708406 5.8420853848485326 -0.86602541151947299 0 0.49999998660252726 0.24999999330126363 0 0.43301270575973649 1 I I #
face $-1 $-1 $175 $24 $-1 $343 reversed single #
loop $-1 $-1 $259 $160 #
plane-surface $-1 0 38.333417118052793 0 0 -1 0 0 0 -1 forward_v I I I I #
coedge $-1 $344 $257 $260 $345 forward $161 $-1 #
coedge $-1 $263 $163 $164 $251 reversed $101 $-1 #
coedge $-1 $257 $344 $163 $249 reversed $161 $-1 #
edge $-1 $264 -7.9650025057695437 $346 7.9650025057695437 $248 $347 forward 7 unknown #
coedge $-1 $165 $164 $344 $348 forward $65 $-1 #
edge $-1 $255 -57.302774132511367 $346 57.302774132511367 $247 $349 forward 7 unknown #
coedge $-1 $260 $259 $165 $253 reversed $244 $-1 #
edge $-1 $350 -57.302774132511367 $254 57.302774132511367 $252 $351 forward 7 unknown #
vertex $-1 $167 $352 #
vertex $-1 $266 $353 #
straight-curve $-1 57.302774132511367 0 -7.9650025057695437 0 -1 0 I I #
coedge $-1 $246 $248 $168 $258 reversed $161 $-1 #
edge $-1 $261 -38.333417118052793 $264 38.333417118052793 $257 $354 forward 7 unknown #
coedge $-1 $252 $169 $174 $267 forward $244 $-1 #
coedge $-1 $169 $252 $246 $345 reversed $244 $-1 #
vertex $-1 $170 $355 #
straight-curve $-1 0 38.333417118052793 7.9650025057695437 -1 0 0 I I #
coedge $-1 $171 $247 $173 $266 reversed $101 $-1 #
vertex $-1 $258 $356 #
straight-curve $-1 0 -38.333417118052793 7.9650025057695437 1 0 0 I I #
edge $-1 $176 -7.9650025057695437 $255 7.9650025057695437 $173 $357 forward 7 unknown #
edge $-1 $177 -7.9650025057695437 $254 7.9650025057695437 $174 $358 forward 7 unknown #
point $-1 57.302774132511367 -38.333417118052793 7.9650025057695437 #
point $-1 57.302774132511367 38.333417118052793 7.9650025057695437 #
face $-1 $-1 $280 $25 $-1 $359 reversed single #
loop $-1 $-1 $276 $179 #
plane-surface $-1 0 0 -7.9650025057695437 0 0 1 1 0 0 forward_v I I I I #
coedge $-1 $360 $361 $187 $284 forward $180 $-1 #
coedge $-1 $182 $288 $278 $362 forward $109 $-1 #
edge $-1 $282 -21.12816000772342 $192 -13.282354212935328 $182 $363 forward 7 unknown #
coedge $-1 $364 $188 $183 $277 forward $271 $-1 #
edge $-1 $193 13.282354212935328 $281 21.12816000772342 $276 $365 forward 7 unknown #
coedge $-1 $366 $185 $274 $362 reversed $280 $-1 #
coedge $-1 $185 $366 $364 $367 reversed $280 $-1 #
loop $-1 $-1 $185 $270 #
vertex $-1 $367 $368 #
vertex $-1 $186 $369 #
straight-curve $-1 -54.302774132511367 -38.333417118052793 0 0 0 1 I I #
edge $-1 $289 -7.9650025057695437 $286 7.9650025057695437 $273 $370 forward 7 unknown #
coedge $-1 $188 $364 $360 $371 forward $271 $-1 #
vertex $-1 $189 $372 #
straight-curve $-1 -27.901387066255683 -30.487611323264701 -7.9650025057695437 1 0 0 I I #
coedge $-1 $274 $190 $361 $373 forward $109 $-1 #
vertex $-1 $373 $374 #
straight-curve $-1 -27.901387066255683 -30.487611323264701 7.9650025057695437 -1 0 0 I I #
point $-1 -54.302774132511367 -30.487611323264701 7.9650025057695437 #
point $-1 -54.302774132511367 -30.487611323264701 -7.9650025057695437 #
plane-surface $-1 0 0 7.9650025057695437 0 0 1 1 0 0 forward_v I I I I #
coedge $-1 $304 $303 $296 $375 forward $196 $-1 #
coedge $-1 $296 $198 $200 $300 reversed $117 $-1 #
coedge $-1 $198 $295 $294 $375 reversed $117 $-1 #
coedge $-1 $206 $201 $198 $298 forward $207 $-1 #
edge $-1 $301 5.2257813605992069 $376 7.6771148154834421 $297 $377 forward 7 unknown #
coedge $-1 $200 $199 $304 $378 reversed $73 $-1 #
edge $-1 $379 -114.60554826502275 $301 -109.70288122388759 $295 $380 forward 7 unknown #
vertex $-1 $202 $381 #
straight-curve $-1 54.851440677627139 -13.048503697687647 7.9650025057695473 0 -1 0 I I #
coedge $-1 $294 $203 $206 $308 reversed $196 $-1 #
coedge $-1 $203 $294 $299 $378 forward $196 $-1 #
vertex $-1 $204 $382 #
straight-curve $-1 57.302774132511367 -21.706403467485885 80.13662897982266 0 0 1 I I #
straight-curve $-1 1.5354247011600819e-006 -21.706403467485885 102.97048536255866 0.49999998660252726 0 -0.86602541151947299 I I #
edge $-1 $376 -30.487611323264701 $208 -21.706403467485885 $303 $383 forward 7 unknown #
point $-1 57.302774132511367 -21.706403467485885 7.9650025057695437 #
point $-1 54.851440677627131 -21.706403467485885 7.9650025057695473 #
edge $-1 $384 1 $384 0 $211 $-1 forward 7 unknown #
vertex $-1 $212 $385 #
ellipse-curve $-1 55.211081993549783 -27.97869479304218 5.342085398246005 0.86602541151947299 0 0.49999998660252726 0.24999999330126363 0 -0.43301270575973649 1 I I #
point $-1 56.327107398370522 -27.97869479304218 5.409072679088796 #
edge $-1 $386 1 $386 0 $215 $-1 forward 7 unknown #
vertex $-1 $216 $387 #
ellipse-curve $-1 55.211081993549783 -24.215319997708406 5.342085398246005 0.86602541151947299 0 0.49999998660252726 0.24999999330126363 0 -0.43301270575973649 1 I I #
point $-1 56.327107398370522 -24.215319997708406 5.409072679088796 #
plane-surface $-1 -57.302774132511367 0 0 1 0 0 0 0 -1 forward_v I I I I #
coedge $-1 $388 $389 $224 $324 forward $220 $-1 #
coedge $-1 $222 $328 $388 $390 forward $139 $-1 #
coedge $-1 $224 $223 $222 $323 reversed $87 $-1 #
edge $-1 $391 -17.439107625577055 $329 -8.6578997697982381 $222 $392 forward 7 unknown #
edge $-1 $326 1.2354471231870869 $391 6.1381141643222499 $320 $393 forward 7 unknown #
coedge $-1 $230 $225 $389 $394 forward $231 $-1 #
vertex $-1 $394 $395 #
straight-curve $-1 -57.302774132511367 -13.048503697687647 3.7191682639274992 0 -1 0 I I #
coedge $-1 $321 $227 $230 $332 forward $139 $-1 #
vertex $-1 $228 $396 #
straight-curve $-1 -78.277045615571254 -21.706403467485885 7.9650025057695437 -1 0 0 I I #
straight-curve $-1 -57.30277413251136 -21.706403467485885 3.7191682639275214 0.49999998660252726 0 0.86602541151947299 I I #
edge $-1 $232 21.706403467485885 $397 30.487611323264701 $230 $398 forward 7 unknown #
point $-1 -57.302774132511367 -21.706403467485885 7.9650025057695437 #
point $-1 -57.302774132511367 -21.706403467485885 3.719168263927509 #
edge $-1 $399 1 $399 0 $235 $-1 forward 7 unknown #
vertex $-1 $236 $400 #
ellipse-curve $-1 -55.211081993549783 -27.97869479304218 5.3420853982460104 -0.86602541151947299 0 0.49999998660252726 0.24999999330126363 0 0.43301270575973649 1 I I #
point $-1 -55.82710741176799 -27.97869479304218 6.2750980906082736 #
edge $-1 $401 1 $401 0 $239 $-1 forward 7 unknown #
vertex $-1 $240 $402 #
ellipse-curve $-1 -55.211081993549783 -24.215319997708406 5.3420853982460104 -0.86602541151947299 0 0.49999998660252726 0.24999999330126363 0 0.43301270575973649 1 I I #
point $-1 -55.82710741176799 -24.215319997708406 6.2750980906082736 #
plane-surface $-1 57.302774132511367 0 0 -1 0 0 0 0 1 forward_v I I I I #
coedge $-1 $248 $246 $250 $348 reversed $161 $-1 #
edge $-1 $261 -7.9650025057695437 $350 7.9650025057695437 $260 $403 forward 7 unknown #
vertex $-1 $348 $404 #
straight-curve $-1 -57.302774132511367 -38.333417118052793 0 0 0 -1 I I #
edge $-1 $346 -38.333417118052793 $350 38.333417118052793 $344 $405 forward 7 unknown #
straight-curve $-1 0 -38.333417118052793 -7.9650025057695437 -1 0 0 I I #
vertex $-1 $253 $406 #
straight-curve $-1 0 38.333417118052793 -7.9650025057695437 1 0 0 I I #
point $-1 57.302774132511367 38.333417118052793 -7.9650025057695437 #
point $-1 57.302774132511367 -38.333417118052793 -7.9650025057695437 #
straight-curve $-1 -57.302774132511367 0 7.9650025057695437 0 -1 0 I I #
point $-1 -57.302774132511367 38.333417118052793 7.9650025057695437 #
point $-1 -57.302774132511367 -38.333417118052793 7.9650025057695437 #
straight-curve $-1 57.302774132511367 -38.333417118052793 0 0 0 -1 I I #
straight-curve $-1 57.302774132511367 38.333417118052793 0 0 0 -1 I I #
plane-surface $-1 0 -38.333417118052793 0 0 1 0 0 0 1 forward_v I I I I #
coedge $-1 $407 $273 $285 $371 reversed $180 $-1 #
coedge $-1 $273 $407 $288 $373 reversed $180 $-1 #
edge $-1 $408 -57.302774132511367 $282 -54.302774132511367 $278 $409 forward 7 unknown #
straight-curve $-1 -54.302774132511367 -17.205257110329374 7.9650025057695437 0 1 0 I I #
coedge $-1 $285 $276 $279 $367 forward $271 $-1 #
straight-curve $-1 -54.302774132511367 -17.205257110329374 -7.9650025057695437 0 -1 0 I I #
coedge $-1 $279 $278 $407 $410 forward $280 $-1 #
edge $-1 $281 54.302774132511367 $411 57.302774132511367 $279 $412 forward 7 unknown #
point $-1 -54.302774132511367 -38.333417118052793 -7.9650025057695437 #
point $-1 -54.302774132511367 -38.333417118052793 7.9650025057695437 #
straight-curve $-1 -57.302774132511367 -30.487611323264701 0 0 0 -1 I I #
edge $-1 $411 -38.333417118052793 $286 -30.487611323264701 $360 $413 forward 7 unknown #
point $-1 -57.302774132511367 -30.487611323264701 -7.9650025057695437 #
edge $-1 $289 30.487611323264701 $408 38.333417118052793 $361 $414 forward 7 unknown #
point $-1 -57.302774132511367 -30.487611323264701 7.9650025057695437 #
edge $-1 $376 72.171626474053113 $379 76.417460715895146 $294 $415 forward 7 unknown #
vertex $-1 $308 $416 #
straight-curve $-1 49.625659317027925 -30.487611323264701 7.9650025057695473 1 0 0 I I #
edge $-1 $379 -17.439107625577055 $305 -8.6578997697982381 $304 $417 forward 7 unknown #
vertex $-1 $378 $418 #
straight-curve $-1 1.5354247011600819e-006 -30.487611323264701 102.97048536255866 -0.49999998660252726 0 0.86602541151947299 I I #
point $-1 54.851440677627131 -30.487611323264701 7.9650025057695473 #
point $-1 57.302774132511367 -21.706403467485885 3.7191682639275143 #
straight-curve $-1 57.302774132511367 0 7.9650025057695437 0 1 0 I I #
vertex $-1 $311 $419 #
point $-1 55.461081986851049 -27.97869479304218 4.9090726924862684 #
vertex $-1 $315 $420 #
point $-1 55.461081986851049 -24.215319997708406 4.9090726924862684 #
coedge $-1 $389 $320 $321 $390 reversed $220 $-1 #
coedge $-1 $320 $388 $325 $394 reversed $220 $-1 #
edge $-1 $397 -29.401387066255683 $391 -26.950053611371448 $321 $421 forward 7 unknown #
vertex $-1 $323 $422 #
straight-curve $-1 -54.851440677627124 -13.048503697687647 7.9650025057695437 0 1 0 I I #
straight-curve $-1 -57.920497677553037 -30.487611323264701 2.6492396606588606 0.49999998660252726 0 0.86602541151947299 I I #
edge $-1 $326 3.719168263927509 $397 7.9650025057695437 $325 $423 forward 7 unknown #
point $-1 -57.302774132511367 -30.487611323264701 3.719168263927509 #
point $-1 -54.851440677627131 -21.706403467485885 7.9650025057695437 #
vertex $-1 $394 $424 #
straight-curve $-1 -57.302774132511367 0 7.9650025057695437 0 -1 0 I I #
vertex $-1 $335 $425 #
point $-1 -54.961082000248517 -27.97869479304218 5.7750981040057461 #
vertex $-1 $339 $426 #
point $-1 -54.961082000248517 -24.215319997708406 5.7750981040057461 #
straight-curve $-1 -57.302774132511367 38.333417118052793 0 0 0 -1 I I #
point $-1 -57.302774132511367 -38.333417118052793 -7.9650025057695437 #
straight-curve $-1 -57.302774132511367 0 -7.9650025057695437 0 1 0 I I #
point $-1 -57.302774132511367 38.333417118052793 -7.9650025057695437 #
coedge $-1 $361 $360 $366 $410 reversed $180 $-1 #
vertex $-1 $373 $427 #
straight-curve $-1 0 -38.333417118052793 7.9650025057695437 1 0 0 I I #
edge $-1 $408 -7.9650025057695437 $411 7.9650025057695437 $407 $428 forward 7 unknown #
vertex $-1 $371 $429 #
straight-curve $-1 0 -38.333417118052793 -7.9650025057695437 -1 0 0 I I #
straight-curve $-1 -57.302774132511367 0 -7.9650025057695437 0 1 0 I I #
straight-curve $-1 -57.302774132511367 0 7.9650025057695437 0 -1 0 I I #
straight-curve $-1 57.302774132511367 -30.487611323264701 80.13662897982266 0 0 -1 I I #
point $-1 57.302774132511367 -30.487611323264701 7.9650025057695437 #
straight-curve $-1 57.302774132511367 -13.048503697687647 3.7191682639275072 0 1 0 I I #
point $-1 57.302774132511367 -30.487611323264701 3.7191682639275143 #
point $-1 54.778069287790046 -27.97869479304218 5.0920854049447408 #
point $-1 54.778069287790046 -24.215319997708406 5.0920854049447408 #
straight-curve $-1 -27.901387066255683 -30.487611323264701 7.9650025057695437 1 0 0 I I #
point $-1 -54.851440677627131 -30.487611323264701 7.9650025057695437 #
straight-curve $-1 -57.302774132511367 -30.487611323264701 0 0 0 1 I I #
point $-1 -57.302774132511367 -30.487611323264701 7.9650025057695437 #
point $-1 -54.778069287790046 -27.97869479304218 5.0920854049447462 #
point $-1 -54.778069287790046 -24.215319997708406 5.0920854049447462 #
point $-1 -57.302774132511367 -38.333417118052793 7.9650025057695437 #
straight-curve $-1 -57.302774132511367 -38.333417118052793 0 0 0 -1 I I #
point $-1 -57.302774132511367 -38.333417118052793 -7.9650025057695437 #
End-of-ACIS-data 