500 0 2 0           
7 Unknown 11 ACIS 5.0 NT 24 Fri Mar 26 20:30:16 1999 
-1 9.9999999999999995e-007 1e-010 
body $-1 $2 $-1 $3 #
body $-1 $4 $-1 $5 #
lump $-1 $-1 $6 $0 #
transform $-1 1 0 0 0 1 0 0 0 1 66.355784783471179 42.255919431969495 10.120942011352367 1 rotate no_reflect no_shear #
lump $-1 $-1 $7 $1 #
transform $-1 1 0 0 0 1 0 0 0 1 66.355784783471179 42.255919431969495 10.120942011352367 1 rotate no_reflect no_shear #
shell $-1 $-1 $-1 $8 $-1 $2 #
shell $-1 $-1 $-1 $9 $-1 $4 #
face $-1 $10 $11 $6 $-1 $12 forward single #
face $-1 $13 $14 $7 $-1 $15 forward single #
face $-1 $16 $17 $6 $-1 $18 reversed single #
loop $-1 $-1 $19 $8 #
plane-surface $-1 0 0 10.120942011352367 0 0 1 1 0 0 forward_v I I I I #
face $-1 $20 $21 $7 $-1 $22 reversed single #
loop $-1 $-1 $23 $9 #
plane-surface $-1 -66.355784783471179 0 0 1 0 0 0 0 -1 forward_v I I I I #
face $-1 $24 $25 $6 $-1 $26 reversed single #
loop $-1 $-1 $27 $10 #
plane-surface $-1 0 0 -10.120942011352367 0 0 1 1 0 0 forward_v I I I I #
coedge $-1 $28 $29 $30 $31 forward $11 $-1 #
face $-1 $32 $33 $7 $-1 $34 forward single #
loop $-1 $-1 $35 $13 #
plane-surface $-1 0 42.255919431969495 0 0 -1 0 0 0 -1 forward_v I I I I #
coedge $-1 $36 $37 $38 $39 forward $14 $-1 #
face $-1 $40 $41 $6 $-1 $42 reversed single #
loop $-1 $-1 $43 $16 #
plane-surface $-1 0 -42.255919431969495 0 0 1 0 0 0 1 forward_v I I I I #
coedge $-1 $44 $45 $46 $47 forward $17 $-1 #
coedge $-1 $48 $19 $49 $50 forward $11 $-1 #
coedge $-1 $19 $48 $51 $52 forward $11 $-1 #
coedge $-1 $53 $54 $19 $31 reversed $55 $-1 #
edge $-1 $56 -42.255919431969495 $57 42.255919431969495 $30 $58 forward 7 unknown #
face $-1 $59 $60 $7 $-1 $61 reversed single #
loop $-1 $-1 $38 $20 #
plane-surface $-1 -72.062795167734436 0 8.8789286168246129 0 0 1 1 0 0 forward_v I I I I #
coedge $-1 $62 $63 $37 $64 forward $21 $-1 #
coedge $-1 $65 $23 $66 $67 reversed $14 $-1 #
coedge $-1 $23 $65 $35 $64 reversed $14 $-1 #
coedge $-1 $68 $69 $23 $39 reversed $33 $-1 #
edge $-1 $70 -42.255919431969495 $71 42.255919431969495 $38 $72 forward 7 unknown #
face $-1 $73 $74 $6 $-1 $75 reversed single #
loop $-1 $-1 $76 $24 #
plane-surface $-1 -66.355784783471179 0 0 1 0 0 0 0 -1 forward_v I I I I #
coedge $-1 $77 $51 $78 $79 forward $25 $-1 #
coedge $-1 $80 $27 $77 $81 forward $17 $-1 #
coedge $-1 $27 $80 $82 $83 forward $17 $-1 #
coedge $-1 $54 $53 $27 $47 reversed $55 $-1 #
edge $-1 $84 -42.255919431969495 $85 42.255919431969495 $46 $86 forward 7 unknown #
coedge $-1 $29 $28 $87 $88 forward $11 $-1 #
coedge $-1 $89 $90 $28 $50 reversed $74 $-1 #
edge $-1 $57 -66.355784783471179 $91 66.355784783471179 $49 $92 forward 7 unknown #
coedge $-1 $43 $93 $29 $52 reversed $25 $-1 #
edge $-1 $94 -66.355784783471179 $56 66.355784783471179 $51 $95 forward 7 unknown #
coedge $-1 $46 $30 $93 $96 forward $55 $-1 #
coedge $-1 $30 $46 $89 $97 reversed $55 $-1 #
loop $-1 $-1 $53 $73 #
vertex $-1 $31 $98 #
vertex $-1 $31 $99 #
straight-curve $-1 66.355784783471179 0 10.120942011352367 0 1 0 I I #
face $-1 $100 $101 $7 $-1 $102 reversed single #
loop $-1 $-1 $103 $32 #
plane-surface $-1 -72.062795167734436 0 4.9681252114919028 0 0 1 1 0 0 forward_v I I I I #
coedge $-1 $104 $35 $105 $106 reversed $21 $-1 #
coedge $-1 $35 $104 $68 $107 reversed $21 $-1 #
edge $-1 $70 -8.8789286168246129 $108 -4.9681252114919028 $35 $109 forward 7 unknown #
coedge $-1 $37 $36 $103 $110 forward $14 $-1 #
coedge $-1 $111 $112 $36 $67 forward $113 $-1 #
edge $-1 $114 4.9681252114919028 $71 8.8789286168246129 $66 $115 forward 7 unknown #
coedge $-1 $116 $38 $63 $107 forward $33 $-1 #
coedge $-1 $38 $116 $111 $117 forward $33 $-1 #
vertex $-1 $64 $118 #
vertex $-1 $117 $119 #
straight-curve $-1 -66.355784783471179 0 8.8789286168246129 0 -1 0 I I #
face $-1 $-1 $55 $6 $-1 $120 reversed single #
loop $-1 $-1 $89 $40 #
plane-surface $-1 0 42.255919431969495 0 0 -1 0 0 0 -1 forward_v I I I I #
coedge $-1 $121 $87 $90 $122 forward $41 $-1 #
coedge $-1 $93 $43 $44 $81 reversed $25 $-1 #
coedge $-1 $87 $121 $43 $79 reversed $41 $-1 #
edge $-1 $94 -10.120942011352367 $123 10.120942011352367 $78 $124 forward 7 unknown #
coedge $-1 $45 $44 $121 $125 forward $17 $-1 #
edge $-1 $85 -66.355784783471179 $123 66.355784783471179 $77 $126 forward 7 unknown #
coedge $-1 $90 $89 $45 $83 reversed $74 $-1 #
edge $-1 $127 -66.355784783471179 $84 66.355784783471179 $82 $128 forward 7 unknown #
vertex $-1 $47 $129 #
vertex $-1 $96 $130 #
straight-curve $-1 66.355784783471179 0 -10.120942011352367 0 -1 0 I I #
coedge $-1 $76 $78 $48 $88 reversed $41 $-1 #
edge $-1 $91 -42.255919431969495 $94 42.255919431969495 $87 $131 forward 7 unknown #
coedge $-1 $82 $49 $54 $97 forward $74 $-1 #
coedge $-1 $49 $82 $76 $122 reversed $74 $-1 #
vertex $-1 $50 $132 #
straight-curve $-1 0 42.255919431969495 10.120942011352367 -1 0 0 I I #
coedge $-1 $51 $77 $53 $96 reversed $25 $-1 #
vertex $-1 $88 $133 #
straight-curve $-1 0 -42.255919431969495 10.120942011352367 1 0 0 I I #
edge $-1 $56 -10.120942011352367 $85 10.120942011352367 $53 $134 forward 7 unknown #
edge $-1 $57 -10.120942011352367 $84 10.120942011352367 $54 $135 forward 7 unknown #
point $-1 66.355784783471179 -42.255919431969495 10.120942011352367 #
point $-1 66.355784783471179 42.255919431969495 10.120942011352367 #
face $-1 $-1 $113 $7 $-1 $136 reversed single #
loop $-1 $-1 $137 $59 #
plane-surface $-1 -77.769805551997692 0 6.9235269141582574 1 0 0 0 0 -1 forward_v I I I I #
coedge $-1 $138 $105 $65 $110 reversed $60 $-1 #
coedge $-1 $63 $62 $137 $139 reversed $21 $-1 #
coedge $-1 $103 $140 $62 $106 forward $60 $-1 #
edge $-1 $141 -5.7070103842632562 $108 5.7070103842632562 $62 $142 forward 7 unknown #
edge $-1 $70 -5.7070103842632562 $143 5.7070103842632562 $63 $144 forward 7 unknown #
vertex $-1 $64 $145 #
straight-curve $-1 -66.355784783471179 42.255919431969495 0 0 0 -1 I I #
edge $-1 $114 -42.255919431969495 $108 42.255919431969495 $103 $146 forward 7 unknown #
coedge $-1 $147 $66 $69 $117 reversed $113 $-1 #
coedge $-1 $66 $147 $138 $148 reversed $113 $-1 #
loop $-1 $-1 $66 $100 #
vertex $-1 $67 $149 #
straight-curve $-1 -66.355784783471179 -42.255919431969495 0 0 0 1 I I #
coedge $-1 $69 $68 $150 $151 forward $33 $-1 #
edge $-1 $152 -5.7070103842632562 $71 5.7070103842632562 $111 $153 forward 7 unknown #
point $-1 -66.355784783471179 42.255919431969495 8.8789286168246129 #
point $-1 -66.355784783471179 -42.255919431969495 8.8789286168246129 #
plane-surface $-1 66.355784783471179 0 0 -1 0 0 0 0 1 forward_v I I I I #
coedge $-1 $78 $76 $80 $125 reversed $41 $-1 #
edge $-1 $91 -10.120942011352367 $127 10.120942011352367 $90 $154 forward 7 unknown #
vertex $-1 $125 $155 #
straight-curve $-1 -66.355784783471179 -42.255919431969495 0 0 0 -1 I I #
edge $-1 $123 -42.255919431969495 $127 42.255919431969495 $121 $156 forward 7 unknown #
straight-curve $-1 0 -42.255919431969495 -10.120942011352367 -1 0 0 I I #
vertex $-1 $83 $157 #
straight-curve $-1 0 42.255919431969495 -10.120942011352367 1 0 0 I I #
point $-1 66.355784783471179 42.255919431969495 -10.120942011352367 #
point $-1 66.355784783471179 -42.255919431969495 -10.120942011352367 #
straight-curve $-1 -66.355784783471179 0 10.120942011352367 0 -1 0 I I #
point $-1 -66.355784783471179 42.255919431969495 10.120942011352367 #
point $-1 -66.355784783471179 -42.255919431969495 10.120942011352367 #
straight-curve $-1 66.355784783471179 -42.255919431969495 0 0 0 -1 I I #
straight-curve $-1 66.355784783471179 42.255919431969495 0 0 0 -1 I I #
plane-surface $-1 0 -42.255919431969495 0 0 1 0 0 0 1 forward_v I I I I #
coedge $-1 $158 $150 $104 $139 forward $101 $-1 #
coedge $-1 $140 $103 $112 $148 forward $60 $-1 #
edge $-1 $143 -1.9554017026663555 $141 1.9554017026663546 $104 $159 forward 7 unknown #
coedge $-1 $105 $138 $158 $160 forward $60 $-1 #
vertex $-1 $106 $161 #
straight-curve $-1 -72.062795167734436 42.255919431969495 4.9681252114919028 1 0 0 I I #
vertex $-1 $107 $162 #
straight-curve $-1 -72.062795167734436 42.255919431969495 8.8789286168246129 -1 0 0 I I #
point $-1 -66.355784783471179 42.255919431969495 4.9681252114919028 #
straight-curve $-1 -66.355784783471179 0 4.9681252114919028 0 1 0 I I #
coedge $-1 $112 $111 $163 $164 forward $113 $-1 #
edge $-1 $114 -5.7070103842632562 $165 5.7070103842632562 $112 $166 forward 7 unknown #
point $-1 -66.355784783471179 -42.255919431969495 4.9681252114919028 #
coedge $-1 $137 $163 $116 $151 reversed $101 $-1 #
edge $-1 $143 -42.255919431969495 $152 42.255919431969495 $150 $167 forward 7 unknown #
vertex $-1 $151 $168 #
straight-curve $-1 -72.062795167734436 -42.255919431969495 8.8789286168246129 1 0 0 I I #
straight-curve $-1 -66.355784783471179 42.255919431969495 0 0 0 -1 I I #
point $-1 -66.355784783471179 -42.255919431969495 -10.120942011352367 #
straight-curve $-1 -66.355784783471179 0 -10.120942011352367 0 1 0 I I #
point $-1 -66.355784783471179 42.255919431969495 -10.120942011352367 #
coedge $-1 $163 $137 $140 $160 reversed $101 $-1 #
straight-curve $-1 -77.769805551997692 42.255919431969495 6.9235269141582574 0 0 -1 I I #
edge $-1 $165 -42.255919431969495 $141 42.255919431969495 $158 $169 forward 7 unknown #
point $-1 -77.769805551997692 42.255919431969495 4.9681252114919028 #
point $-1 -77.769805551997692 42.255919431969495 8.8789286168246129 #
coedge $-1 $150 $158 $147 $164 reversed $101 $-1 #
edge $-1 $152 -1.9554017026663555 $165 1.9554017026663546 $163 $170 forward 7 unknown #
vertex $-1 $160 $171 #
straight-curve $-1 -72.062795167734436 -42.255919431969495 4.9681252114919028 -1 0 0 I I #
straight-curve $-1 -77.769805551997692 0 8.8789286168246129 0 -1 0 I I #
point $-1 -77.769805551997692 -42.255919431969495 8.8789286168246129 #
straight-curve $-1 -77.769805551997692 0 4.9681252114919028 0 1 0 I I #
straight-curve $-1 -77.769805551997692 -42.255919431969495 6.9235269141582574 0 0 -1 I I #
point $-1 -77.769805551997692 -42.255919431969495 4.9681252114919028 #
End-of-ACIS-data 