500 0 12 0           
7 Unknown 11 ACIS 5.0 NT 24 Fri Mar 26 17:45:35 1999 
-1 9.9999999999999995e-007 1e-010 
body $-1 $12 $-1 $13 #
body $-1 $14 $-1 $15 #
body $-1 $16 $-1 $17 #
body $-1 $18 $-1 $19 #
body $-1 $20 $-1 $21 #
body $-1 $22 $-1 $23 #
body $-1 $24 $-1 $25 #
body $-1 $26 $-1 $27 #
body $-1 $28 $-1 $29 #
body $-1 $30 $-1 $31 #
body $-1 $32 $-1 $33 #
body $-1 $34 $-1 $35 #
lump $-1 $-1 $36 $0 #
transform $-1 1 0 0 0 1 0 0 0 1 70.352488784447758 41.004634725616071 18.740846253467016 1 rotate no_reflect no_shear #
lump $-1 $-1 $37 $1 #
transform $-1 1 0 0 0 1 0 0 0 1 70.352488784447758 41.004634725616071 18.740846253467016 1 rotate no_reflect no_shear #
lump $-1 $-1 $38 $2 #
transform $-1 1 0 0 0 1 0 0 0 1 70.352488784447758 41.004634725616071 18.740846253467016 1 rotate no_reflect no_shear #
lump $-1 $-1 $39 $3 #
transform $-1 1 0 0 0 1 0 0 0 1 70.352488784447758 41.004634725616071 18.740846253467016 1 rotate no_reflect no_shear #
lump $-1 $-1 $40 $4 #
transform $-1 1 0 0 0 1 0 0 0 1 70.352488784447758 41.004634725616071 18.740846253467016 1 rotate no_reflect no_shear #
lump $-1 $-1 $41 $5 #
transform $-1 1 0 0 0 1 0 0 0 1 70.352488784447758 41.004634725616071 18.740846253467016 1 rotate no_reflect no_shear #
lump $-1 $-1 $42 $6 #
transform $-1 1 0 0 0 1 0 0 0 1 70.352488784447758 41.004634725616071 18.740846253467016 1 rotate no_reflect no_shear #
lump $-1 $-1 $43 $7 #
transform $-1 1 0 0 0 1 0 0 0 1 70.352488784447758 41.004634725616071 18.740846253467016 1 rotate no_reflect no_shear #
lump $-1 $-1 $44 $8 #
transform $-1 1 0 0 0 1 0 0 0 1 70.352488784447758 41.004634725616071 18.740846253467016 1 rotate no_reflect no_shear #
lump $-1 $-1 $45 $9 #
transform $-1 1 0 0 0 1 0 0 0 1 70.352488784447758 41.004634725616071 18.740846253467016 1 rotate no_reflect no_shear #
lump $-1 $-1 $46 $10 #
transform $-1 1 0 0 0 1 0 0 0 1 70.352488784447758 41.004634725616071 18.740846253467016 1 rotate no_reflect no_shear #
lump $-1 $-1 $47 $11 #
transform $-1 1 0 0 0 1 0 0 0 1 70.352488784447758 41.004634725616071 18.740846253467016 1 rotate no_reflect no_shear #
shell $-1 $-1 $-1 $48 $-1 $12 #
shell $-1 $-1 $-1 $49 $-1 $14 #
shell $-1 $-1 $-1 $50 $-1 $16 #
shell $-1 $-1 $-1 $51 $-1 $18 #
shell $-1 $-1 $-1 $52 $-1 $20 #
shell $-1 $-1 $-1 $53 $-1 $22 #
shell $-1 $-1 $-1 $54 $-1 $24 #
shell $-1 $-1 $-1 $55 $-1 $26 #
shell $-1 $-1 $-1 $56 $-1 $28 #
shell $-1 $-1 $-1 $57 $-1 $30 #
shell $-1 $-1 $-1 $58 $-1 $32 #
shell $-1 $-1 $-1 $59 $-1 $34 #
face $-1 $60 $61 $36 $-1 $62 forward single #
face $-1 $63 $64 $37 $-1 $65 forward single #
face $-1 $66 $67 $38 $-1 $68 reversed single #
face $-1 $69 $70 $39 $-1 $71 reversed single #
face $-1 $72 $73 $40 $-1 $74 forward single #
face $-1 $75 $76 $41 $-1 $77 forward single #
face $-1 $78 $79 $42 $-1 $80 reversed single #
face $-1 $81 $82 $43 $-1 $83 forward single #
face $-1 $84 $85 $44 $-1 $86 forward single #
face $-1 $87 $88 $45 $-1 $89 reversed single #
face $-1 $90 $91 $46 $-1 $92 forward single #
face $-1 $93 $94 $47 $-1 $95 forward single #
face $-1 $96 $97 $36 $-1 $98 reversed single #
loop $-1 $-1 $99 $48 #
plane-surface $-1 0 0 18.740846253467016 0 0 1 1 0 0 forward_v I I I I #
face $-1 $100 $101 $37 $-1 $102 reversed single #
loop $-1 $-1 $103 $49 #
plane-surface $-1 0 -41.004634725616071 0 0 1 0 0 0 1 forward_v I I I I #
face $-1 $104 $105 $38 $-1 $106 reversed single #
loop $-1 $-1 $107 $50 #
plane-surface $-1 -38.095435592702657 28.055486090706083 0 0 1 0 0 0 1 forward_v I I I I #
face $-1 $108 $109 $39 $-1 $110 reversed single #
loop $-1 $-1 $111 $51 #
plane-surface $-1 -151.0575494353877 -6.1828208212300666 117.94941780312512 0 1 0 -0.57357644374324357 0 0.81915203911291934 forward_v I I I I #
face $-1 $112 $113 $40 $-1 $114 forward single #
loop $-1 $115 $116 $52 #
cone-surface $-1 -58.314951569339549 -3.9684128082435066 9.8924079621065957 0.57357644374324357 0 -0.81915203911291934 0.81915203911291934 0 0.57357644374324357 1 I I 0 1 1 forward I I I I #
face $-1 $117 $118 $41 $-1 $119 forward single #
loop $-1 $120 $121 $53 #
cone-surface $-1 -58.314951569339549 -0.64680078876366309 9.8924079621065957 0.57357644374324357 0 -0.81915203911291934 0.81915203911291934 0 0.57357644374324357 1 I I 0 1 1 forward I I I I #
face $-1 $122 $123 $42 $-1 $124 reversed single #
loop $-1 $-1 $125 $54 #
plane-surface $-1 -151.0575494353877 9.7357191145056561 117.94941780312512 0 1 0 -0.57357644374324357 0 0.81915203911291934 forward_v I I I I #
face $-1 $126 $127 $43 $-1 $128 forward single #
loop $-1 $129 $130 $55 #
cone-surface $-1 -58.314951569339549 11.950127127492216 9.8924079621065957 0.57357644374324357 0 -0.81915203911291934 0.81915203911291934 0 0.57357644374324357 1 I I 0 1 1 forward I I I I #
face $-1 $131 $132 $44 $-1 $133 forward single #
loop $-1 $134 $135 $56 #
cone-surface $-1 -58.314951569339549 15.27173914697206 9.8924079621065957 0.57357644374324357 0 -0.81915203911291934 0.81915203911291934 0 0.57357644374324357 1 I I 0 1 1 forward I I I I #
face $-1 $136 $137 $45 $-1 $138 reversed single #
loop $-1 $-1 $139 $57 #
plane-surface $-1 108.32097971537033 -3.7109735393028718 204.09367972818529 0 -1 0 -0.82903758062907751 0 -0.55919289150049634 forward_v I I I I #
face $-1 $140 $141 $46 $-1 $142 forward single #
loop $-1 $143 $144 $58 #
cone-surface $-1 65.939174020067611 -13.026106548356196 13.044803593120696 -0.82903758062907751 0 -0.55919289150049634 0.55919289150049634 0 -0.82903758062907751 1 I I 0 1 1 forward I I I I #
face $-1 $145 $146 $47 $-1 $147 forward single #
loop $-1 $148 $149 $59 #
cone-surface $-1 65.939174020067611 -7.4370267429242034 13.044803593120696 -0.82903758062907751 0 -0.55919289150049634 0.55919289150049634 0 -0.82903758062907751 1 I I 0 1 1 forward I I I I #
face $-1 $150 $151 $36 $-1 $152 reversed single #
loop $-1 $-1 $153 $60 #
plane-surface $-1 0 0 -18.740846253467016 0 0 1 1 0 0 forward_v I I I I #
coedge $-1 $154 $155 $156 $157 forward $61 $-1 #
face $-1 $158 $159 $37 $-1 $160 reversed single #
loop $-1 $-1 $161 $63 #
plane-surface $-1 0 0 -18.740846253467016 0 0 1 1 0 0 forward_v I I I I #
coedge $-1 $162 $163 $164 $165 forward $64 $-1 #
face $-1 $166 $167 $38 $-1 $168 reversed single #
loop $-1 $-1 $169 $66 #
plane-surface $-1 -43.320074907891595 34.530060408161077 0 1 0 0 0 0 -1 forward_v I I I I #
coedge $-1 $170 $171 $172 $173 forward $67 $-1 #
face $-1 $174 $175 $39 $-1 $176 reversed single #
loop $-1 $-1 $177 $69 #
plane-surface $-1 -70.352488784447758 -2.3076067985035849 2.6906485142267798 -0.57357644374324357 0 0.81915203911291934 0.81915203911291934 0 0.57357644374324357 forward_v I I I I #
coedge $-1 $178 $179 $180 $181 reversed $70 $-1 #
face $-1 $-1 $182 $40 $-1 $183 forward single #
loop $-1 $184 $185 $72 #
cone-surface $-1 -57.451654866787308 -3.9684128082435066 8.6594925208098346 0.57357644374324357 0 -0.81915203911291934 0.40957601955645967 0 0.28678822187162178 1 I I -0.70710678118654746 0.70710678118654746 0.5 forward I I I I #
loop $-1 $-1 $186 $52 #
coedge $-1 $116 $116 $187 $188 reversed $73 $-1 #
face $-1 $-1 $189 $41 $-1 $190 forward single #
loop $-1 $191 $192 $75 #
cone-surface $-1 -57.451654866787308 -0.64680078876366309 8.6594925208098346 0.57357644374324357 0 -0.81915203911291934 0.40957601955645967 0 0.28678822187162178 1 I I -0.70710678118654746 0.70710678118654746 0.5 forward I I I I #
loop $-1 $-1 $193 $53 #
coedge $-1 $121 $121 $194 $195 reversed $76 $-1 #
face $-1 $196 $197 $42 $-1 $198 reversed single #
loop $-1 $-1 $199 $78 #
plane-surface $-1 -70.352488784447758 13.610933137232138 2.6906485142267798 -0.57357644374324357 0 0.81915203911291934 0.81915203911291934 0 0.57357644374324357 forward_v I I I I #
coedge $-1 $200 $201 $202 $203 reversed $79 $-1 #
face $-1 $-1 $204 $43 $-1 $205 forward single #
loop $-1 $206 $207 $81 #
cone-surface $-1 -57.451654866787308 11.950127127492216 8.6594925208098346 0.57357644374324357 0 -0.81915203911291934 0.40957601955645967 0 0.28678822187162178 1 I I -0.70710678118654746 0.70710678118654746 0.5 forward I I I I #
loop $-1 $-1 $208 $55 #
coedge $-1 $130 $130 $209 $210 reversed $82 $-1 #
face $-1 $-1 $211 $44 $-1 $212 forward single #
loop $-1 $213 $214 $84 #
cone-surface $-1 -57.451654866787308 15.27173914697206 8.6594925208098346 0.57357644374324357 0 -0.81915203911291934 0.40957601955645967 0 0.28678822187162178 1 I I -0.70710678118654746 0.70710678118654746 0.5 forward I I I I #
loop $-1 $-1 $215 $56 #
coedge $-1 $135 $135 $216 $217 reversed $85 $-1 #
face $-1 $218 $219 $45 $-1 $220 reversed single #
loop $-1 $-1 $221 $87 #
plane-surface $-1 -8.3287344708154336 -10.2315666456402 125.41245647292213 0.82903758062907751 0 0.55919289150049634 0.55919289150049634 0 -0.82903758062907751 forward_v I I I I #
coedge $-1 $222 $223 $224 $225 reversed $88 $-1 #
face $-1 $-1 $226 $46 $-1 $227 forward single #
loop $-1 $228 $229 $90 #
cone-surface $-1 64.476498414313426 -13.026106548356196 12.058216470389436 -0.82903758062907751 0 -0.55919289150049634 0.27959644575024817 0 -0.41451879031453875 1 I I -0.70710678118654746 0.70710678118654746 0.5 forward I I I I #
loop $-1 $-1 $230 $58 #
coedge $-1 $144 $144 $231 $232 reversed $91 $-1 #
face $-1 $-1 $233 $47 $-1 $234 forward single #
loop $-1 $235 $236 $93 #
cone-surface $-1 64.476498414313426 -7.4370267429242034 12.058216470389436 -0.82903758062907751 0 -0.55919289150049634 0.27959644575024817 0 -0.41451879031453875 1 I I -0.70710678118654746 0.70710678118654746 0.5 forward I I I I #
loop $-1 $-1 $237 $59 #
coedge $-1 $149 $149 $238 $239 reversed $94 $-1 #
face $-1 $240 $241 $36 $-1 $242 reversed single #
loop $-1 $-1 $243 $96 #
plane-surface $-1 0 -41.004634725616071 0 0 1 0 0 0 1 forward_v I I I I #
coedge $-1 $244 $245 $246 $247 forward $97 $-1 #
coedge $-1 $248 $99 $249 $250 forward $61 $-1 #
coedge $-1 $99 $248 $251 $252 forward $61 $-1 #
coedge $-1 $253 $254 $99 $157 reversed $255 $-1 #
edge $-1 $256 -41.004634725616071 $257 41.004634725616071 $156 $258 forward 7 unknown #
face $-1 $259 $260 $37 $-1 $261 forward single #
loop $-1 $-1 $262 $100 #
plane-surface $-1 70.352488784447758 0 0 -1 0 0 0 0 1 forward_v I I I I #
coedge $-1 $263 $264 $265 $266 forward $101 $-1 #
coedge $-1 $265 $103 $262 $267 reversed $64 $-1 #
coedge $-1 $103 $265 $268 $269 reversed $64 $-1 #
coedge $-1 $270 $271 $103 $165 reversed $260 $-1 #
edge $-1 $272 -70.352488784447758 $273 70.352488784447758 $164 $274 forward 7 unknown #
face $-1 $275 $276 $38 $-1 $277 forward single #
loop $-1 $-1 $278 $104 #
plane-surface $-1 -32.870796277513719 34.530060408161077 0 -1 0 0 0 0 1 forward_v I I I I #
coedge $-1 $279 $280 $281 $282 reversed $105 $-1 #
coedge $-1 $283 $107 $284 $285 reversed $67 $-1 #
coedge $-1 $107 $283 $286 $287 reversed $67 $-1 #
coedge $-1 $280 $279 $107 $173 reversed $105 $-1 #
edge $-1 $288 -18.740846253467016 $289 18.740846253467016 $172 $290 forward 7 unknown #
face $-1 $291 $292 $39 $-1 $293 forward single #
loop $-1 $-1 $294 $108 #
plane-surface $-1 -151.0575494353877 1.5676072242228969 117.94941780312512 0 -1 0 0.57357644374324357 0 -0.81915203911291934 forward_v I I I I #
coedge $-1 $295 $296 $297 $298 reversed $109 $-1 #
coedge $-1 $179 $111 $299 $300 reversed $70 $-1 #
coedge $-1 $111 $178 $295 $301 reversed $70 $-1 #
coedge $-1 $297 $302 $111 $181 forward $292 $-1 #
edge $-1 $303 5.176285933246092 $304 28.098343402101264 $180 $305 forward 7 unknown #
loop $-1 $-1 $187 $112 #
plane-surface $-1 -70.352488784447758 -2.3076067985035849 2.6906485142267798 -0.57357644374324357 0 0.81915203911291934 0.81915203911291934 0 0.57357644374324357 forward_v I I I I #
loop $-1 $-1 $306 $72 #
coedge $-1 $185 $185 $186 $307 reversed $113 $-1 #
coedge $-1 $186 $186 $185 $307 forward $115 $-1 #
coedge $-1 $187 $187 $116 $188 forward $182 $-1 #
edge $-1 $308 0 $308 6.2831853071796004 $187 $309 forward 7 unknown #
loop $-1 $-1 $194 $117 #
plane-surface $-1 -70.352488784447758 -2.3076067985035849 2.6906485142267798 -0.57357644374324357 0 0.81915203911291934 0.81915203911291934 0 0.57357644374324357 forward_v I I I I #
loop $-1 $-1 $310 $75 #
coedge $-1 $192 $192 $193 $311 reversed $118 $-1 #
coedge $-1 $193 $193 $192 $311 forward $120 $-1 #
coedge $-1 $194 $194 $121 $195 forward $189 $-1 #
edge $-1 $312 0 $312 6.2831853071796004 $194 $313 forward 7 unknown #
face $-1 $314 $315 $42 $-1 $316 forward single #
loop $-1 $-1 $317 $122 #
plane-surface $-1 -151.0575494353877 17.48614715995862 117.94941780312512 0 -1 0 0.57357644374324357 0 -0.81915203911291934 forward_v I I I I #
coedge $-1 $318 $319 $320 $321 reversed $123 $-1 #
coedge $-1 $201 $125 $322 $323 reversed $79 $-1 #
coedge $-1 $125 $200 $318 $324 reversed $79 $-1 #
coedge $-1 $320 $325 $125 $203 forward $315 $-1 #
edge $-1 $326 5.176285933246092 $327 28.098343402101264 $202 $328 forward 7 unknown #
loop $-1 $-1 $209 $126 #
plane-surface $-1 -70.352488784447758 13.610933137232138 2.6906485142267798 -0.57357644374324357 0 0.81915203911291934 0.81915203911291934 0 0.57357644374324357 forward_v I I I I #
loop $-1 $-1 $329 $81 #
coedge $-1 $207 $207 $208 $330 reversed $127 $-1 #
coedge $-1 $208 $208 $207 $330 forward $129 $-1 #
coedge $-1 $209 $209 $130 $210 forward $204 $-1 #
edge $-1 $331 0 $331 6.2831853071796004 $209 $332 forward 7 unknown #
loop $-1 $-1 $216 $131 #
plane-surface $-1 -70.352488784447758 13.610933137232138 2.6906485142267798 -0.57357644374324357 0 0.81915203911291934 0.81915203911291934 0 0.57357644374324357 forward_v I I I I #
loop $-1 $-1 $333 $84 #
coedge $-1 $214 $214 $215 $334 reversed $132 $-1 #
coedge $-1 $215 $215 $214 $334 forward $134 $-1 #
coedge $-1 $216 $216 $135 $217 forward $211 $-1 #
edge $-1 $335 0 $335 6.2831853071796004 $216 $336 forward 7 unknown #
face $-1 $337 $338 $45 $-1 $339 reversed single #
loop $-1 $-1 $340 $136 #
plane-surface $-1 108.32097971537033 -16.75215975197753 204.09367972818529 0 1 0 0.82903758062907751 0 0.55919289150049634 forward_v I I I I #
coedge $-1 $341 $342 $343 $344 reversed $137 $-1 #
coedge $-1 $223 $139 $345 $346 reversed $88 $-1 #
coedge $-1 $139 $222 $341 $347 reversed $88 $-1 #
coedge $-1 $343 $348 $139 $225 forward $349 $-1 #
edge $-1 $350 -16.191998926762594 $351 -9.4616830288815663 $224 $352 forward 7 unknown #
loop $-1 $-1 $231 $140 #
plane-surface $-1 -8.3287344708154336 -10.2315666456402 125.41245647292213 0.82903758062907751 0 0.55919289150049634 0.55919289150049634 0 -0.82903758062907751 forward_v I I I I #
loop $-1 $-1 $353 $90 #
coedge $-1 $229 $229 $230 $354 reversed $141 $-1 #
coedge $-1 $230 $230 $229 $354 forward $143 $-1 #
coedge $-1 $231 $231 $144 $232 forward $226 $-1 #
edge $-1 $355 0 $355 6.2831853071796004 $231 $356 forward 7 unknown #
loop $-1 $-1 $238 $145 #
plane-surface $-1 -8.3287344708154336 -10.2315666456402 125.41245647292213 0.82903758062907751 0 0.55919289150049634 0.55919289150049634 0 -0.82903758062907751 forward_v I I I I #
loop $-1 $-1 $357 $93 #
coedge $-1 $236 $236 $237 $358 reversed $146 $-1 #
coedge $-1 $237 $237 $236 $358 forward $148 $-1 #
coedge $-1 $238 $238 $149 $239 forward $233 $-1 #
edge $-1 $359 0 $359 6.2831853071796004 $238 $360 forward 7 unknown #
face $-1 $361 $362 $36 $-1 $363 reversed single #
loop $-1 $-1 $364 $150 #
plane-surface $-1 -70.352488784447758 0 0 1 0 0 0 0 -1 forward_v I I I I #
coedge $-1 $365 $251 $366 $367 forward $151 $-1 #
coedge $-1 $368 $153 $365 $369 forward $97 $-1 #
coedge $-1 $153 $368 $370 $371 forward $97 $-1 #
coedge $-1 $254 $253 $153 $247 reversed $255 $-1 #
edge $-1 $372 -41.004634725616071 $373 41.004634725616071 $246 $374 forward 7 unknown #
coedge $-1 $155 $154 $375 $376 forward $61 $-1 #
coedge $-1 $377 $378 $154 $250 reversed $362 $-1 #
edge $-1 $257 -70.352488784447758 $379 70.352488784447758 $249 $380 forward 7 unknown #
coedge $-1 $243 $381 $155 $252 reversed $151 $-1 #
edge $-1 $382 -70.352488784447758 $256 70.352488784447758 $251 $383 forward 7 unknown #
coedge $-1 $246 $156 $381 $384 forward $255 $-1 #
coedge $-1 $156 $246 $377 $385 reversed $255 $-1 #
loop $-1 $-1 $253 $361 #
vertex $-1 $157 $386 #
vertex $-1 $157 $387 #
straight-curve $-1 70.352488784447758 0 18.740846253467016 0 1 0 I I #
face $-1 $388 $389 $37 $-1 $390 reversed single #
loop $-1 $-1 $271 $158 #
plane-surface $-1 0 -53.130872212435342 -12.082175021675468 0 0 1 1 0 0 forward_v I I I I #
coedge $-1 $391 $392 $162 $267 forward $159 $-1 #
coedge $-1 $393 $161 $392 $394 forward $101 $-1 #
coedge $-1 $161 $393 $395 $396 forward $101 $-1 #
coedge $-1 $163 $162 $161 $266 reversed $64 $-1 #
edge $-1 $397 -70.352488784447758 $398 70.352488784447758 $161 $399 forward 7 unknown #
edge $-1 $398 -18.740846253467016 $273 -12.082175021675468 $262 $400 forward 7 unknown #
coedge $-1 $395 $401 $163 $269 forward $402 $-1 #
edge $-1 $272 12.082175021675468 $397 18.740846253467016 $268 $403 forward 7 unknown #
coedge $-1 $404 $164 $401 $405 forward $260 $-1 #
coedge $-1 $164 $404 $391 $406 forward $260 $-1 #
vertex $-1 $269 $407 #
vertex $-1 $406 $408 #
straight-curve $-1 0 -41.004634725616071 -12.082175021675468 1 0 0 I I #
face $-1 $409 $410 $38 $-1 $411 reversed single #
loop $-1 $-1 $412 $166 #
plane-surface $-1 0 0 18.740846253467016 0 0 1 1 0 0 forward_v I I I I #
coedge $-1 $413 $414 $283 $415 forward $167 $-1 #
coedge $-1 $172 $169 $416 $417 reversed $105 $-1 #
coedge $-1 $169 $172 $412 $418 reversed $105 $-1 #
coedge $-1 $419 $420 $169 $282 forward $421 $-1 #
edge $-1 $422 -18.740846253467016 $423 18.740846253467016 $281 $424 forward 7 unknown #
coedge $-1 $171 $170 $278 $415 reversed $67 $-1 #
coedge $-1 $416 $425 $170 $285 forward $410 $-1 #
edge $-1 $426 13.823078481162391 $289 24.272357111540266 $284 $427 forward 7 unknown #
coedge $-1 $428 $412 $171 $287 forward $276 $-1 #
edge $-1 $288 -24.272357111540266 $429 -13.823078481162391 $286 $430 forward 7 unknown #
vertex $-1 $287 $431 #
vertex $-1 $285 $432 #
straight-curve $-1 -43.320074907891595 28.055486090706083 0 0 0 -1 I I #
face $-1 $-1 $433 $39 $-1 $434 reversed single #
loop $-1 $-1 $180 $174 #
plane-surface $-1 0 0 18.740846253467016 0 0 1 1 0 0 forward_v I I I I #
coedge $-1 $435 $436 $437 $438 reversed $175 $-1 #
coedge $-1 $439 $177 $179 $301 forward $109 $-1 #
coedge $-1 $177 $439 $435 $440 forward $109 $-1 #
coedge $-1 $437 $180 $177 $298 forward $292 $-1 #
edge $-1 $304 -5.0290174219782742 $441 2.7214106234746893 $297 $442 forward 7 unknown #
coedge $-1 $443 $444 $178 $300 forward $433 $-1 #
edge $-1 $445 -56.284060387335778 $303 -40.233862648095538 $299 $446 forward 7 unknown #
edge $-1 $304 -27.982665456925499 $445 0 $179 $447 forward 7 unknown #
coedge $-1 $180 $437 $443 $448 forward $292 $-1 #
vertex $-1 $300 $449 #
vertex $-1 $181 $450 #
straight-curve $-1 -75.52877471769385 -6.1828208212300666 18.740846253467012 1 0 0 I I #
coedge $-1 $306 $306 $-1 $451 reversed $184 $-1 #
edge $-1 $452 0 $452 6.2831853071796004 $185 $453 forward 7 unknown #
vertex $-1 $188 $454 #
ellipse-curve $-1 -58.891460050020171 -3.9684128082435066 10.715747383846898 -0.57357644374324357 0 0.81915203911291934 0.81915203911291934 0 0.57357644374324357 1 I I #
coedge $-1 $310 $310 $-1 $455 reversed $191 $-1 #
edge $-1 $456 0 $456 6.2831853071796004 $192 $457 forward 7 unknown #
vertex $-1 $195 $458 #
ellipse-curve $-1 -58.891460050020171 -0.64680078876366309 10.715747383846898 -0.57357644374324357 0 0.81915203911291934 0.81915203911291934 0 0.57357644374324357 1 I I #
face $-1 $-1 $459 $42 $-1 $460 reversed single #
loop $-1 $-1 $202 $196 #
plane-surface $-1 0 0 18.740846253467016 0 0 1 1 0 0 forward_v I I I I #
coedge $-1 $461 $462 $463 $464 reversed $197 $-1 #
coedge $-1 $465 $199 $201 $324 forward $123 $-1 #
coedge $-1 $199 $465 $461 $466 forward $123 $-1 #
coedge $-1 $463 $202 $199 $321 forward $315 $-1 #
edge $-1 $327 2.9302525458895872 $467 10.680680591342551 $320 $468 forward 7 unknown #
coedge $-1 $469 $470 $200 $323 forward $459 $-1 #
edge $-1 $471 -56.284060387335778 $326 -40.233862648095538 $322 $472 forward 7 unknown #
edge $-1 $327 -27.982665456925499 $471 0 $201 $473 forward 7 unknown #
coedge $-1 $202 $463 $469 $474 forward $315 $-1 #
vertex $-1 $203 $475 #
vertex $-1 $203 $476 #
straight-curve $-1 -75.52877471769385 9.7357191145056561 18.740846253467012 1 0 0 I I #
coedge $-1 $329 $329 $-1 $477 reversed $206 $-1 #
edge $-1 $478 0 $478 6.2831853071796004 $207 $479 forward 7 unknown #
vertex $-1 $210 $480 #
ellipse-curve $-1 -58.891460050020171 11.950127127492216 10.715747383846898 -0.57357644374324357 0 0.81915203911291934 0.81915203911291934 0 0.57357644374324357 1 I I #
coedge $-1 $333 $333 $-1 $481 reversed $213 $-1 #
edge $-1 $482 0 $482 6.2831853071796004 $214 $483 forward 7 unknown #
vertex $-1 $217 $484 #
ellipse-curve $-1 -58.891460050020171 15.27173914697206 10.715747383846898 -0.57357644374324357 0 0.81915203911291934 0.81915203911291934 0 0.57357644374324357 1 I I #
face $-1 $-1 $349 $45 $-1 $485 forward single #
loop $-1 $-1 $486 $218 #
plane-surface $-1 70.352488784447758 0 0 -1 0 0 0 0 1 forward_v I I I I #
coedge $-1 $487 $488 $489 $490 reversed $219 $-1 #
coedge $-1 $491 $221 $223 $347 forward $137 $-1 #
coedge $-1 $221 $491 $487 $492 forward $137 $-1 #
coedge $-1 $489 $224 $221 $344 forward $349 $-1 #
edge $-1 $351 -1.4048097835172282 $493 11.63637642915743 $343 $494 forward 7 unknown #
coedge $-1 $495 $496 $222 $346 forward $338 $-1 #
edge $-1 $497 -93.28409757735632 $350 -83.305993610625634 $345 $498 forward 7 unknown #
edge $-1 $351 128.66920958940392 $497 140.70497756889557 $223 $499 forward 7 unknown #
coedge $-1 $224 $489 $495 $500 forward $349 $-1 #
loop $-1 $-1 $489 $337 #
vertex $-1 $346 $501 #
vertex $-1 $225 $502 #
straight-curve $-1 54.160489857685164 -3.7109735393028718 18.740846253467012 -1 0 0 I I #
coedge $-1 $353 $353 $-1 $503 reversed $228 $-1 #
edge $-1 $504 0 $504 6.2831853071796004 $229 $505 forward 7 unknown #
vertex $-1 $232 $506 #
ellipse-curve $-1 66.987330835507237 -13.026106548356196 13.751794270101687 0.82903758062907751 0 0.55919289150049634 0.55919289150049634 0 -0.82903758062907751 1 I I #
coedge $-1 $357 $357 $-1 $507 reversed $235 $-1 #
edge $-1 $508 0 $508 6.2831853071796004 $236 $509 forward 7 unknown #
vertex $-1 $239 $510 #
ellipse-curve $-1 66.987330835507237 -7.4370267429242034 13.751794270101687 0.82903758062907751 0 0.55919289150049634 0.55919289150049634 0 -0.82903758062907751 1 I I #
face $-1 $-1 $255 $36 $-1 $511 reversed single #
loop $-1 $-1 $377 $240 #
plane-surface $-1 0 41.004634725616071 0 0 -1 0 0 0 -1 forward_v I I I I #
coedge $-1 $512 $375 $378 $513 forward $241 $-1 #
coedge $-1 $381 $243 $244 $369 reversed $151 $-1 #
coedge $-1 $375 $512 $243 $367 reversed $241 $-1 #
edge $-1 $382 -18.740846253467016 $514 18.740846253467016 $366 $515 forward 7 unknown #
coedge $-1 $245 $244 $512 $516 forward $97 $-1 #
edge $-1 $373 -70.352488784447758 $514 70.352488784447758 $365 $517 forward 7 unknown #
coedge $-1 $378 $377 $245 $371 reversed $362 $-1 #
edge $-1 $518 -70.352488784447758 $372 70.352488784447758 $370 $519 forward 7 unknown #
vertex $-1 $247 $520 #
vertex $-1 $384 $521 #
straight-curve $-1 70.352488784447758 0 -18.740846253467016 0 -1 0 I I #
coedge $-1 $364 $366 $248 $376 reversed $241 $-1 #
edge $-1 $379 -41.004634725616071 $382 41.004634725616071 $375 $522 forward 7 unknown #
coedge $-1 $370 $249 $254 $385 forward $362 $-1 #
coedge $-1 $249 $370 $364 $513 reversed $362 $-1 #
vertex $-1 $250 $523 #
straight-curve $-1 0 41.004634725616071 18.740846253467016 -1 0 0 I I #
coedge $-1 $251 $365 $253 $384 reversed $151 $-1 #
vertex $-1 $376 $524 #
straight-curve $-1 0 -41.004634725616071 18.740846253467016 1 0 0 I I #
edge $-1 $256 -18.740846253467016 $373 18.740846253467016 $253 $525 forward 7 unknown #
edge $-1 $257 -18.740846253467016 $372 18.740846253467016 $254 $526 forward 7 unknown #
point $-1 70.352488784447758 -41.004634725616071 18.740846253467016 #
point $-1 70.352488784447758 41.004634725616071 18.740846253467016 #
face $-1 $-1 $402 $37 $-1 $527 reversed single #
loop $-1 $-1 $528 $259 #
plane-surface $-1 0 -65.257109699254613 -15.411510637571242 0 1 0 0 0 1 forward_v I I I I #
coedge $-1 $529 $262 $271 $406 reversed $159 $-1 #
coedge $-1 $262 $529 $263 $394 reversed $159 $-1 #
coedge $-1 $264 $263 $530 $531 forward $101 $-1 #
edge $-1 $398 41.004634725616071 $532 65.257109699254613 $392 $533 forward 7 unknown #
coedge $-1 $534 $268 $264 $396 reversed $402 $-1 #
edge $-1 $535 -65.257109699254613 $397 -41.004634725616071 $395 $536 forward 7 unknown #
vertex $-1 $269 $537 #
vertex $-1 $394 $538 #
straight-curve $-1 0 -41.004634725616071 -18.740846253467016 1 0 0 I I #
straight-curve $-1 70.352488784447758 -41.004634725616071 0 0 0 1 I I #
coedge $-1 $268 $534 $270 $405 reversed $402 $-1 #
loop $-1 $-1 $268 $388 #
straight-curve $-1 -70.352488784447758 -41.004634725616071 0 0 0 -1 I I #
coedge $-1 $271 $270 $539 $540 forward $260 $-1 #
edge $-1 $272 -12.126237486819271 $541 12.126237486819271 $401 $542 forward 7 unknown #
edge $-1 $543 -12.126237486819271 $273 12.126237486819271 $391 $544 forward 7 unknown #
point $-1 -70.352488784447758 -41.004634725616071 -12.082175021675468 #
point $-1 70.352488784447758 -41.004634725616071 -12.082175021675468 #
face $-1 $-1 $421 $38 $-1 $545 reversed single #
loop $-1 $-1 $416 $275 #
plane-surface $-1 0 0 -18.740846253467016 0 0 1 1 0 0 forward_v I I I I #
coedge $-1 $286 $546 $280 $418 forward $276 $-1 #
coedge $-1 $547 $278 $425 $548 reversed $167 $-1 #
coedge $-1 $278 $547 $428 $549 reversed $167 $-1 #
edge $-1 $429 -18.740846253467016 $426 18.740846253467016 $278 $550 forward 7 unknown #
coedge $-1 $551 $284 $279 $417 forward $410 $-1 #
edge $-1 $289 10.790455886625544 $422 23.739604521535533 $416 $552 forward 7 unknown #
edge $-1 $423 -23.739604521535533 $288 -10.790455886625544 $412 $553 forward 7 unknown #
coedge $-1 $554 $281 $546 $555 reversed $421 $-1 #
coedge $-1 $281 $554 $551 $556 reversed $421 $-1 #
loop $-1 $-1 $281 $409 #
vertex $-1 $556 $557 #
vertex $-1 $282 $558 #
straight-curve $-1 -43.320074907891595 41.004634725616071 0 0 0 1 I I #
coedge $-1 $284 $551 $413 $548 forward $410 $-1 #
vertex $-1 $285 $559 #
straight-curve $-1 -19.047717796351328 28.055486090706083 -18.740846253467016 -1 0 0 I I #
coedge $-1 $546 $286 $414 $549 forward $276 $-1 #
vertex $-1 $287 $560 #
straight-curve $-1 -19.047717796351328 28.055486090706083 18.740846253467016 1 0 0 I I #
point $-1 -43.320074907891595 28.055486090706083 18.740846253467016 #
point $-1 -43.320074907891595 28.055486090706083 -18.740846253467016 #
loop $-1 $-1 $299 $291 #
plane-surface $-1 -70.352488784447758 0 0 1 0 0 0 0 -1 forward_v I I I I #
coedge $-1 $436 $294 $296 $440 reversed $175 $-1 #
coedge $-1 $294 $435 $561 $562 reversed $175 $-1 #
coedge $-1 $302 $297 $294 $438 forward $292 $-1 #
edge $-1 $441 -28.098343402101264 $563 -5.176285933246092 $437 $564 forward 7 unknown #
coedge $-1 $296 $295 $444 $565 reversed $109 $-1 #
edge $-1 $566 0 $441 27.982665456925499 $435 $567 forward 7 unknown #
vertex $-1 $298 $568 #
straight-curve $-1 -47.430431315592578 -1.1538033992517924 18.740846253467016 0 1 0 I I #
coedge $-1 $561 $299 $302 $448 reversed $433 $-1 #
coedge $-1 $299 $561 $439 $565 forward $433 $-1 #
vertex $-1 $300 $569 #
straight-curve $-1 -70.352488784447758 -6.1828208212300666 58.974708901562558 0 0 1 I I #
straight-curve $-1 -70.352488784447758 -6.1828208212300666 2.6906485142267798 -0.81915203911291934 0 -0.57357644374324357 I I #
edge $-1 $563 -1.5676072242228969 $303 6.1828208212300666 $443 $570 forward 7 unknown #
point $-1 -70.352488784447758 -6.1828208212300666 18.740846253467016 #
point $-1 -47.430431315592585 -6.1828208212300666 18.740846253467016 #
edge $-1 $571 1 $571 0 $306 $-1 forward 7 unknown #
vertex $-1 $307 $572 #
ellipse-curve $-1 -57.738443088658933 -3.9684128082435066 9.0690685403662936 -0.57357644374324357 0 0.81915203911291934 0.81915203911291934 0 0.57357644374324357 1 I I #
point $-1 -58.07230801090725 -3.9684128082435066 11.28932382759014 #
edge $-1 $573 1 $573 0 $310 $-1 forward 7 unknown #
vertex $-1 $311 $574 #
ellipse-curve $-1 -57.738443088658933 -0.64680078876366309 9.0690685403662936 -0.57357644374324357 0 0.81915203911291934 0.81915203911291934 0 0.57357644374324357 1 I I #
point $-1 -58.07230801090725 -0.64680078876366309 11.28932382759014 #
loop $-1 $-1 $322 $314 #
plane-surface $-1 -70.352488784447758 0 0 1 0 0 0 0 -1 forward_v I I I I #
coedge $-1 $462 $317 $319 $466 reversed $197 $-1 #
coedge $-1 $317 $461 $575 $576 reversed $197 $-1 #
coedge $-1 $325 $320 $317 $464 forward $315 $-1 #
edge $-1 $467 -28.098343402101264 $577 -5.176285933246092 $463 $578 forward 7 unknown #
coedge $-1 $319 $318 $470 $579 reversed $123 $-1 #
edge $-1 $580 0 $467 27.982665456925499 $461 $581 forward 7 unknown #
vertex $-1 $321 $582 #
straight-curve $-1 -47.430431315592578 6.8054665686160689 18.740846253467016 0 1 0 I I #
coedge $-1 $575 $322 $325 $474 reversed $459 $-1 #
coedge $-1 $322 $575 $465 $579 forward $459 $-1 #
vertex $-1 $323 $583 #
straight-curve $-1 -70.352488784447758 9.7357191145056561 58.974708901562558 0 0 1 I I #
straight-curve $-1 -70.352488784447758 9.7357191145056561 2.6906485142267798 -0.81915203911291934 0 -0.57357644374324357 I I #
edge $-1 $577 -17.48614715995862 $326 -9.7357191145056561 $469 $584 forward 7 unknown #
point $-1 -70.352488784447758 9.7357191145056561 18.740846253467016 #
point $-1 -47.430431315592585 9.7357191145056561 18.740846253467016 #
edge $-1 $585 1 $585 0 $329 $-1 forward 7 unknown #
vertex $-1 $330 $586 #
ellipse-curve $-1 -57.738443088658933 11.950127127492216 9.0690685403662936 -0.57357644374324357 0 0.81915203911291934 0.81915203911291934 0 0.57357644374324357 1 I I #
point $-1 -58.07230801090725 11.950127127492216 11.28932382759014 #
edge $-1 $587 1 $587 0 $333 $-1 forward 7 unknown #
vertex $-1 $334 $588 #
ellipse-curve $-1 -57.738443088658933 15.27173914697206 9.0690685403662936 -0.57357644374324357 0 0.81915203911291934 0.81915203911291934 0 0.57357644374324357 1 I I #
point $-1 -58.07230801090725 15.27173914697206 11.28932382759014 #
plane-surface $-1 0 0 18.740846253467016 0 0 1 1 0 0 forward_v I I I I #
coedge $-1 $496 $495 $488 $589 forward $338 $-1 #
coedge $-1 $488 $340 $342 $492 reversed $219 $-1 #
coedge $-1 $340 $487 $486 $589 reversed $219 $-1 #
coedge $-1 $348 $343 $340 $490 forward $349 $-1 #
edge $-1 $493 9.4616830288815663 $590 16.191998926762594 $489 $591 forward 7 unknown #
coedge $-1 $342 $341 $496 $592 reversed $137 $-1 #
edge $-1 $593 -140.70497756889557 $493 -128.66920958940392 $487 $594 forward 7 unknown #
vertex $-1 $344 $595 #
straight-curve $-1 63.622172886566737 -5.1157833228201 18.740846253467012 0 -1 0 I I #
coedge $-1 $486 $345 $348 $500 reversed $338 $-1 #
coedge $-1 $345 $486 $491 $592 forward $338 $-1 #
vertex $-1 $346 $596 #
straight-curve $-1 70.352488784447758 -3.7109735393028718 102.04683986409265 0 0 1 I I #
straight-curve $-1 -8.3287344708154336 -3.7109735393028718 125.41245647292213 0.55919289150049634 0 -0.82903758062907751 I I #
edge $-1 $590 -16.75215975197753 $350 -3.7109735393028718 $495 $597 forward 7 unknown #
point $-1 70.352488784447758 -3.7109735393028718 18.740846253467016 #
point $-1 63.62217288656673 -3.7109735393028718 18.740846253467012 #
edge $-1 $598 1 $598 0 $353 $-1 forward 7 unknown #
vertex $-1 $354 $599 #
ellipse-curve $-1 64.891017204627971 -13.026106548356196 12.337812916139685 0.82903758062907751 0 0.55919289150049634 0.55919289150049634 0 -0.82903758062907751 1 I I #
point $-1 67.546523727007767 -13.026106548356196 12.92275668947263 #
edge $-1 $600 1 $600 0 $357 $-1 forward 7 unknown #
vertex $-1 $358 $601 #
ellipse-curve $-1 64.891017204627971 -7.4370267429242034 12.337812916139685 0.82903758062907751 0 0.55919289150049634 0.55919289150049634 0 -0.82903758062907751 1 I I #
point $-1 67.546523727007767 -7.4370267429242034 12.92275668947263 #
plane-surface $-1 70.352488784447758 0 0 -1 0 0 0 0 1 forward_v I I I I #
coedge $-1 $366 $364 $368 $516 reversed $241 $-1 #
edge $-1 $379 -18.740846253467016 $518 18.740846253467016 $378 $602 forward 7 unknown #
vertex $-1 $516 $603 #
straight-curve $-1 -70.352488784447758 -41.004634725616071 0 0 0 -1 I I #
edge $-1 $514 -41.004634725616071 $518 41.004634725616071 $512 $604 forward 7 unknown #
straight-curve $-1 0 -41.004634725616071 -18.740846253467016 -1 0 0 I I #
vertex $-1 $371 $605 #
straight-curve $-1 0 41.004634725616071 -18.740846253467016 1 0 0 I I #
point $-1 70.352488784447758 41.004634725616071 -18.740846253467016 #
point $-1 70.352488784447758 -41.004634725616071 -18.740846253467016 #
straight-curve $-1 -70.352488784447758 0 18.740846253467016 0 -1 0 I I #
point $-1 -70.352488784447758 41.004634725616071 18.740846253467016 #
point $-1 -70.352488784447758 -41.004634725616071 18.740846253467016 #
straight-curve $-1 70.352488784447758 -41.004634725616071 0 0 0 -1 I I #
straight-curve $-1 70.352488784447758 41.004634725616071 0 0 0 -1 I I #
plane-surface $-1 -70.352488784447758 0 0 1 0 0 0 0 -1 forward_v I I I I #
coedge $-1 $530 $539 $534 $606 forward $389 $-1 #
coedge $-1 $392 $391 $607 $608 forward $159 $-1 #
coedge $-1 $607 $528 $393 $531 reversed $389 $-1 #
edge $-1 $532 -70.352488784447758 $535 70.352488784447758 $530 $609 forward 7 unknown #
vertex $-1 $608 $610 #
straight-curve $-1 70.352488784447758 0 -18.740846253467016 0 -1 0 I I #
coedge $-1 $401 $395 $528 $606 reversed $402 $-1 #
vertex $-1 $396 $611 #
straight-curve $-1 -70.352488784447758 0 -18.740846253467016 0 1 0 I I #
point $-1 -70.352488784447758 -41.004634725616071 -18.740846253467016 #
point $-1 70.352488784447758 -41.004634725616071 -18.740846253467016 #
coedge $-1 $528 $607 $404 $540 reversed $389 $-1 #
edge $-1 $541 -70.352488784447758 $543 70.352488784447758 $539 $612 forward 7 unknown #
vertex $-1 $405 $613 #
straight-curve $-1 -70.352488784447758 -53.130872212435342 -12.082175021675468 0 -1 0 I I #
vertex $-1 $406 $614 #
straight-curve $-1 70.352488784447758 -53.130872212435342 -12.082175021675468 0 1 0 I I #
plane-surface $-1 0 41.004634725616071 0 0 -1 0 0 0 -1 forward_v I I I I #
coedge $-1 $412 $428 $419 $555 forward $276 $-1 #
coedge $-1 $414 $413 $554 $615 reversed $167 $-1 #
edge $-1 $616 -23.739604521535533 $426 -10.790455886625544 $425 $617 forward 7 unknown #
edge $-1 $429 10.790455886625544 $618 23.739604521535533 $428 $619 forward 7 unknown #
straight-curve $-1 -32.870796277513719 28.055486090706083 0 0 0 -1 I I #
coedge $-1 $425 $416 $420 $556 forward $410 $-1 #
straight-curve $-1 -43.320074907891595 17.265030204080539 -18.740846253467016 0 1 0 I I #
straight-curve $-1 -43.320074907891595 17.265030204080539 18.740846253467016 0 -1 0 I I #
coedge $-1 $420 $419 $547 $615 forward $421 $-1 #
edge $-1 $618 32.870796277513719 $423 43.320074907891595 $419 $620 forward 7 unknown #
edge $-1 $422 -43.320074907891595 $616 -32.870796277513719 $420 $621 forward 7 unknown #
point $-1 -43.320074907891595 41.004634725616071 -18.740846253467016 #
point $-1 -43.320074907891595 41.004634725616071 18.740846253467016 #
point $-1 -32.870796277513719 28.055486090706083 -18.740846253467016 #
point $-1 -32.870796277513719 28.055486090706083 18.740846253467016 #
coedge $-1 $444 $443 $436 $562 forward $433 $-1 #
edge $-1 $563 40.233862648095538 $566 56.284060387335778 $561 $622 forward 7 unknown #
vertex $-1 $448 $623 #
straight-curve $-1 -75.52877471769385 1.5676072242228969 18.740846253467012 -1 0 0 I I #
edge $-1 $566 -2.7214106234746893 $445 5.0290174219782742 $444 $624 forward 7 unknown #
vertex $-1 $565 $625 #
straight-curve $-1 -70.352488784447758 1.5676072242228969 2.6906485142267798 0.81915203911291934 0 0.57357644374324357 I I #
point $-1 -47.430431315592585 1.5676072242228969 18.740846253467016 #
point $-1 -70.352488784447758 -6.1828208212300666 2.6906485142267798 #
straight-curve $-1 -70.352488784447758 0 18.740846253467016 0 -1 0 I I #
vertex $-1 $451 $626 #
point $-1 -56.919291049546011 -3.9684128082435066 9.6426449841095376 #
vertex $-1 $455 $627 #
point $-1 -56.919291049546011 -0.64680078876366309 9.6426449841095376 #
coedge $-1 $470 $469 $462 $576 forward $459 $-1 #
edge $-1 $577 40.233862648095538 $580 56.284060387335778 $575 $628 forward 7 unknown #
vertex $-1 $474 $629 #
straight-curve $-1 -75.52877471769385 17.48614715995862 18.740846253467012 -1 0 0 I I #
edge $-1 $580 -10.680680591342551 $471 -2.9302525458895872 $470 $630 forward 7 unknown #
vertex $-1 $579 $631 #
straight-curve $-1 -70.352488784447758 17.48614715995862 2.6906485142267798 0.81915203911291934 0 0.57357644374324357 I I #
point $-1 -47.430431315592585 17.48614715995862 18.740846253467016 #
point $-1 -70.352488784447758 9.7357191145056561 2.6906485142267798 #
straight-curve $-1 -70.352488784447758 0 18.740846253467016 0 -1 0 I I #
vertex $-1 $477 $632 #
point $-1 -56.919291049546011 11.950127127492216 9.6426449841095376 #
vertex $-1 $481 $633 #
point $-1 -56.919291049546011 15.27173914697206 9.6426449841095376 #
edge $-1 $590 83.305993610625634 $593 93.28409757735632 $486 $634 forward 7 unknown #
vertex $-1 $500 $635 #
straight-curve $-1 54.160489857685164 -16.75215975197753 18.740846253467012 1 0 0 I I #
edge $-1 $593 -11.63637642915743 $497 1.4048097835172282 $496 $636 forward 7 unknown #
vertex $-1 $592 $637 #
straight-curve $-1 -8.3287344708154336 -16.75215975197753 125.41245647292213 -0.55919289150049634 0 0.82903758062907751 I I #
point $-1 63.62217288656673 -16.75215975197753 18.740846253467012 #
point $-1 70.352488784447758 -3.7109735393028718 8.7627422867363265 #
straight-curve $-1 70.352488784447758 0 18.740846253467016 0 1 0 I I #
vertex $-1 $503 $638 #
point $-1 65.450210096128458 -13.026106548356196 11.508775335510606 #
vertex $-1 $507 $639 #
point $-1 65.450210096128458 -7.4370267429242034 11.508775335510606 #
straight-curve $-1 -70.352488784447758 41.004634725616071 0 0 0 -1 I I #
point $-1 -70.352488784447758 -41.004634725616071 -18.740846253467016 #
straight-curve $-1 -70.352488784447758 0 -18.740846253467016 0 1 0 I I #
point $-1 -70.352488784447758 41.004634725616071 -18.740846253467016 #
edge $-1 $541 -3.3293356158957739 $535 3.3293356158957739 $534 $640 forward 7 unknown #
coedge $-1 $539 $530 $529 $608 reversed $389 $-1 #
edge $-1 $543 -3.3293356158957739 $532 3.3293356158957739 $529 $641 forward 7 unknown #
straight-curve $-1 0 -65.257109699254613 -18.740846253467016 -1 0 0 I I #
point $-1 70.352488784447758 -65.257109699254613 -18.740846253467016 #
point $-1 -70.352488784447758 -65.257109699254613 -18.740846253467016 #
straight-curve $-1 0 -65.257109699254613 -12.082175021675468 1 0 0 I I #
point $-1 -70.352488784447758 -65.257109699254613 -12.082175021675468 #
point $-1 70.352488784447758 -65.257109699254613 -12.082175021675468 #
edge $-1 $618 -18.740846253467016 $616 18.740846253467016 $554 $642 forward 7 unknown #
vertex $-1 $615 $643 #
straight-curve $-1 -32.870796277513719 17.265030204080539 -18.740846253467016 0 -1 0 I I #
vertex $-1 $555 $644 #
straight-curve $-1 -32.870796277513719 17.265030204080539 18.740846253467016 0 1 0 I I #
straight-curve $-1 0 41.004634725616071 18.740846253467016 -1 0 0 I I #
straight-curve $-1 0 41.004634725616071 -18.740846253467016 1 0 0 I I #
straight-curve $-1 -70.352488784447758 1.5676072242228969 58.974708901562558 0 0 -1 I I #
point $-1 -70.352488784447758 1.5676072242228969 18.740846253467016 #
straight-curve $-1 -70.352488784447758 -1.1538033992517924 2.6906485142267793 0 -1 0 I I #
point $-1 -70.352488784447758 1.5676072242228969 2.6906485142267798 #
point $-1 -57.164866644915683 -3.9684128082435066 8.2499165012533755 #
point $-1 -57.164866644915683 -0.64680078876366309 8.2499165012533755 #
straight-curve $-1 -70.352488784447758 17.48614715995862 58.974708901562558 0 0 -1 I I #
point $-1 -70.352488784447758 17.48614715995862 18.740846253467016 #
straight-curve $-1 -70.352488784447758 6.8054665686160689 2.6906485142267793 0 -1 0 I I #
point $-1 -70.352488784447758 17.48614715995862 2.6906485142267798 #
point $-1 -57.164866644915683 11.950127127492216 8.2499165012533755 #
point $-1 -57.164866644915683 15.27173914697206 8.2499165012533755 #
straight-curve $-1 70.352488784447758 -16.75215975197753 102.04683986409265 0 0 -1 I I #
point $-1 70.352488784447758 -16.75215975197753 18.740846253467016 #
straight-curve $-1 70.352488784447758 -5.1157833228201 8.7627422867363336 0 1 0 I I #
point $-1 70.352488784447758 -16.75215975197753 8.7627422867363265 #
point $-1 64.06197962399888 -13.026106548356196 11.778620024639187 #
point $-1 64.06197962399888 -7.4370267429242034 11.778620024639187 #
straight-curve $-1 -70.352488784447758 -65.257109699254613 -15.411510637571242 0 0 -1 I I #
straight-curve $-1 70.352488784447758 -65.257109699254613 -15.411510637571242 0 0 -1 I I #
straight-curve $-1 -32.870796277513719 41.004634725616071 0 0 0 -1 I I #
point $-1 -32.870796277513719 41.004634725616071 -18.740846253467016 #
point $-1 -32.870796277513719 41.004634725616071 18.740846253467016 #
End-of-ACIS-data 