500 0 9 0           
7 Unknown 11 ACIS 5.0 NT 24 Thu Mar 25 19:38:40 1999 
-1 9.9999999999999995e-007 1e-010 
body $-1 $9 $-1 $10 #
body $-1 $11 $-1 $12 #
body $-1 $13 $-1 $14 #
body $-1 $15 $-1 $16 #
body $-1 $17 $-1 $18 #
body $-1 $19 $-1 $20 #
body $-1 $21 $-1 $22 #
body $-1 $23 $-1 $24 #
body $-1 $25 $-1 $26 #
lump $-1 $-1 $27 $0 #
transform $-1 1 0 0 0 1 0 0 0 1 74.725180822168653 31.776274820948387 13.18744013123413 1 rotate no_reflect no_shear #
lump $-1 $-1 $28 $1 #
transform $-1 1 0 0 0 1 0 0 0 1 74.725180822168653 31.776274820948387 13.18744013123413 1 rotate no_reflect no_shear #
lump $-1 $-1 $29 $2 #
transform $-1 1 0 0 0 1 0 0 0 1 74.725180822168653 31.776274820948387 13.18744013123413 1 rotate no_reflect no_shear #
lump $-1 $-1 $30 $3 #
transform $-1 1 0 0 0 1 0 0 0 1 74.725180822168653 31.776274820948387 13.18744013123413 1 rotate no_reflect no_shear #
lump $-1 $-1 $31 $4 #
transform $-1 1 0 0 0 1 0 0 0 1 74.725180822168653 31.776274820948387 13.18744013123413 1 rotate no_reflect no_shear #
lump $-1 $-1 $32 $5 #
transform $-1 1 0 0 0 1 0 0 0 1 74.725180822168653 31.776274820948387 13.18744013123413 1 rotate no_reflect no_shear #
lump $-1 $-1 $33 $6 #
transform $-1 1 0 0 0 1 0 0 0 1 74.725180822168653 31.776274820948387 13.18744013123413 1 rotate no_reflect no_shear #
lump $-1 $-1 $34 $7 #
transform $-1 1 0 0 0 1 0 0 0 1 74.725180822168653 31.776274820948387 13.18744013123413 1 rotate no_reflect no_shear #
lump $-1 $-1 $35 $8 #
transform $-1 1 0 0 0 1 0 0 0 1 74.725180822168653 31.776274820948387 13.18744013123413 1 rotate no_reflect no_shear #
shell $-1 $-1 $-1 $36 $-1 $9 #
shell $-1 $-1 $-1 $37 $-1 $11 #
shell $-1 $-1 $-1 $38 $-1 $13 #
shell $-1 $-1 $-1 $39 $-1 $15 #
shell $-1 $-1 $-1 $40 $-1 $17 #
shell $-1 $-1 $-1 $41 $-1 $19 #
shell $-1 $-1 $-1 $42 $-1 $21 #
shell $-1 $-1 $-1 $43 $-1 $23 #
shell $-1 $-1 $-1 $44 $-1 $25 #
face $-1 $45 $46 $27 $-1 $47 forward single #
face $-1 $48 $49 $28 $-1 $50 forward single #
face $-1 $51 $52 $29 $-1 $53 forward single #
face $-1 $54 $55 $30 $-1 $56 reversed single #
face $-1 $57 $58 $31 $-1 $59 forward single #
face $-1 $60 $61 $32 $-1 $62 forward single #
face $-1 $63 $64 $33 $-1 $65 reversed single #
face $-1 $66 $67 $34 $-1 $68 forward single #
face $-1 $69 $70 $35 $-1 $71 forward single #
face $-1 $72 $73 $27 $-1 $74 reversed single #
loop $-1 $-1 $75 $36 #
plane-surface $-1 0 0 13.18744013123413 0 0 1 1 0 0 forward_v I I I I #
face $-1 $76 $77 $28 $-1 $78 reversed single #
loop $-1 $-1 $79 $37 #
plane-surface $-1 -68.13756609017355 0 -7.4141368479749481 0 0 1 1 0 0 forward_v I I I I #
face $-1 $80 $81 $29 $-1 $82 reversed single #
loop $-1 $-1 $83 $38 #
plane-surface $-1 74.725180822168653 0 0 -1 0 0 0 0 1 forward_v I I I I #
face $-1 $84 $85 $30 $-1 $86 reversed single #
loop $-1 $-1 $87 $39 #
plane-surface $-1 4.07303745999873 -125.82843602140106 120.53037686071914 1 0 0 0 0.62932039886446345 -0.77714595512881146 forward_v I I I I #
face $-1 $88 $89 $31 $-1 $90 forward single #
loop $-1 $91 $92 $40 #
cone-surface $-1 7.8814964056349055 -25.508276229914166 7.7574531148902004 0 0.62932039886446345 -0.77714595512881146 1 0 0 1 I I 0 1 1 forward I I I I #
face $-1 $93 $94 $32 $-1 $95 forward single #
loop $-1 $96 $97 $41 #
cone-surface $-1 13.594184824089169 -25.508276229914166 7.7574531148902004 0 0.62932039886446345 -0.77714595512881146 1 0 0 1 I I 0 1 1 forward I I I I #
face $-1 $98 $99 $33 $-1 $100 reversed single #
loop $-1 $-1 $101 $42 #
plane-surface $-1 4.07303745999873 76.438829129077988 160.52529275021124 1 0 0 0 -0.62932039886446345 -0.77714595512881146 forward_v I I I I #
face $-1 $102 $103 $34 $-1 $104 forward single #
loop $-1 $105 $106 $43 #
cone-surface $-1 7.8814964056349055 25.508276229914166 7.7574531148902004 0 -0.62932039886446345 -0.77714595512881146 1 0 0 1 I I 0 1 1 forward I I I I #
face $-1 $107 $108 $35 $-1 $109 forward single #
loop $-1 $110 $111 $44 #
cone-surface $-1 13.594184824089169 25.508276229914166 7.7574531148902004 0 -0.62932039886446345 -0.77714595512881146 1 0 0 1 I I 0 1 1 forward I I I I #
face $-1 $112 $113 $27 $-1 $114 reversed single #
loop $-1 $-1 $115 $45 #
plane-surface $-1 0 0 -13.18744013123413 0 0 1 1 0 0 forward_v I I I I #
coedge $-1 $116 $117 $118 $119 forward $46 $-1 #
face $-1 $120 $121 $28 $-1 $122 reversed single #
loop $-1 $-1 $123 $48 #
plane-surface $-1 -61.549951358178447 0 -10.300788489604539 -1 0 0 0 0 1 forward_v I I I I #
coedge $-1 $124 $125 $126 $127 forward $49 $-1 #
face $-1 $128 $129 $29 $-1 $130 forward single #
loop $-1 $-1 $131 $51 #
plane-surface $-1 0 31.776274820948387 0 0 -1 0 0 0 -1 forward_v I I I I #
coedge $-1 $132 $133 $134 $135 forward $52 $-1 #
face $-1 $136 $137 $30 $-1 $138 reversed single #
loop $-1 $-1 $139 $54 #
plane-surface $-1 10.737840614862037 -31.776274820948402 4.3856328162843425 0 -0.62932039886446345 0.77714595512881146 1 0 0 forward_v I I I I #
coedge $-1 $140 $141 $142 $143 reversed $55 $-1 #
face $-1 $-1 $144 $31 $-1 $145 forward single #
loop $-1 $146 $147 $57 #
cone-surface $-1 7.8814964056349055 -24.360280740509413 6.3397967784567619 0 0.62932039886446345 -0.77714595512881146 0.5 0 0 1 I I -0.70710678118654746 0.70710678118654746 0.5 forward I I I I #
loop $-1 $-1 $148 $40 #
coedge $-1 $92 $92 $149 $150 reversed $58 $-1 #
face $-1 $-1 $151 $32 $-1 $152 forward single #
loop $-1 $153 $154 $60 #
cone-surface $-1 13.594184824089169 -24.360280740509413 6.3397967784567619 0 0.62932039886446345 -0.77714595512881146 0.5 0 0 1 I I -0.70710678118654746 0.70710678118654746 0.5 forward I I I I #
loop $-1 $-1 $155 $41 #
coedge $-1 $97 $97 $156 $157 reversed $61 $-1 #
face $-1 $158 $159 $33 $-1 $160 reversed single #
loop $-1 $-1 $161 $63 #
plane-surface $-1 10.737840614862037 -17.613332071374671 44.380548705776434 0 0.62932039886446345 0.77714595512881146 1 0 0 forward_v I I I I #
coedge $-1 $162 $163 $164 $165 reversed $64 $-1 #
face $-1 $-1 $166 $34 $-1 $167 forward single #
loop $-1 $168 $169 $66 #
cone-surface $-1 7.8814964056349055 24.36028074050941 6.3397967784567619 0 -0.62932039886446345 -0.77714595512881146 0.5 0 0 1 I I -0.70710678118654746 0.70710678118654746 0.5 forward I I I I #
loop $-1 $-1 $170 $43 #
coedge $-1 $106 $106 $171 $172 reversed $67 $-1 #
face $-1 $-1 $173 $35 $-1 $174 forward single #
loop $-1 $175 $176 $69 #
cone-surface $-1 13.594184824089169 24.36028074050941 6.3397967784567619 0 -0.62932039886446345 -0.77714595512881146 0.5 0 0 1 I I -0.70710678118654746 0.70710678118654746 0.5 forward I I I I #
loop $-1 $-1 $177 $44 #
coedge $-1 $111 $111 $178 $179 reversed $70 $-1 #
face $-1 $180 $181 $27 $-1 $182 reversed single #
loop $-1 $-1 $183 $72 #
plane-surface $-1 0 -31.776274820948387 0 0 1 0 0 0 1 forward_v I I I I #
coedge $-1 $184 $185 $186 $187 forward $73 $-1 #
coedge $-1 $188 $75 $189 $190 forward $46 $-1 #
coedge $-1 $75 $188 $191 $192 forward $46 $-1 #
coedge $-1 $193 $194 $75 $119 reversed $195 $-1 #
edge $-1 $196 -31.776274820948387 $197 31.776274820948387 $118 $198 forward 7 unknown #
face $-1 $199 $200 $28 $-1 $201 reversed single #
loop $-1 $-1 $202 $76 #
plane-surface $-1 0 0 -13.18744013123413 0 0 1 1 0 0 forward_v I I I I #
coedge $-1 $203 $126 $204 $205 reversed $77 $-1 #
coedge $-1 $206 $79 $207 $208 reversed $49 $-1 #
coedge $-1 $79 $206 $209 $210 reversed $49 $-1 #
coedge $-1 $123 $211 $79 $127 reversed $77 $-1 #
edge $-1 $212 -31.776274820948387 $213 31.776274820948387 $126 $214 forward 7 unknown #
face $-1 $215 $216 $29 $-1 $217 reversed single #
loop $-1 $-1 $218 $80 #
plane-surface $-1 0 0 13.18744013123413 0 0 1 1 0 0 forward_v I I I I #
coedge $-1 $219 $220 $133 $221 forward $81 $-1 #
coedge $-1 $222 $83 $223 $224 reversed $52 $-1 #
coedge $-1 $83 $222 $131 $221 reversed $52 $-1 #
coedge $-1 $225 $226 $83 $135 reversed $216 $-1 #
edge $-1 $227 -31.776274820948387 $228 31.776274820948387 $134 $229 forward 7 unknown #
face $-1 $230 $231 $30 $-1 $232 forward single #
loop $-1 $-1 $233 $84 #
plane-surface $-1 17.402643769725344 -125.82843602140106 120.53037686071914 -1 0 0 0 -0.62932039886446345 0.77714595512881146 forward_v I I I I #
coedge $-1 $234 $235 $236 $237 reversed $85 $-1 #
coedge $-1 $141 $87 $238 $239 reversed $55 $-1 #
coedge $-1 $87 $140 $234 $240 reversed $55 $-1 #
coedge $-1 $236 $241 $87 $143 forward $242 $-1 #
edge $-1 $243 47.077748299125446 $244 55.879555614075215 $142 $245 forward 7 unknown #
loop $-1 $-1 $149 $88 #
plane-surface $-1 10.737840614862037 -31.776274820948402 4.3856328162843425 0 -0.62932039886446345 0.77714595512881146 1 0 0 forward_v I I I I #
loop $-1 $-1 $246 $57 #
coedge $-1 $147 $147 $148 $247 reversed $89 $-1 #
coedge $-1 $148 $148 $147 $247 forward $91 $-1 #
coedge $-1 $149 $149 $92 $150 forward $144 $-1 #
edge $-1 $248 -2.3033290324576651e-015 $248 6.2831853071795978 $149 $249 forward 7 unknown #
loop $-1 $-1 $156 $93 #
plane-surface $-1 10.737840614862037 -31.776274820948402 4.3856328162843425 0 -0.62932039886446345 0.77714595512881146 1 0 0 forward_v I I I I #
loop $-1 $-1 $250 $60 #
coedge $-1 $154 $154 $155 $251 reversed $94 $-1 #
coedge $-1 $155 $155 $154 $251 forward $96 $-1 #
coedge $-1 $156 $156 $97 $157 forward $151 $-1 #
edge $-1 $252 -2.3033290324576651e-015 $252 6.2831853071795978 $156 $253 forward 7 unknown #
face $-1 $254 $255 $33 $-1 $256 reversed single #
loop $-1 $-1 $257 $98 #
plane-surface $-1 17.402643769725344 76.438829129077988 160.52529275021124 -1 0 0 0 0.62932039886446345 0.77714595512881146 forward_v I I I I #
coedge $-1 $258 $259 $260 $261 reversed $99 $-1 #
coedge $-1 $163 $101 $262 $263 reversed $64 $-1 #
coedge $-1 $101 $162 $258 $264 reversed $64 $-1 #
coedge $-1 $260 $265 $101 $165 forward $266 $-1 #
edge $-1 $267 6.4431397435906064 $268 17.312466345713979 $164 $269 forward 7 unknown #
loop $-1 $-1 $171 $102 #
plane-surface $-1 10.737840614862037 -17.613332071374671 44.380548705776434 0 0.62932039886446345 0.77714595512881146 1 0 0 forward_v I I I I #
loop $-1 $-1 $270 $66 #
coedge $-1 $169 $169 $170 $271 reversed $103 $-1 #
coedge $-1 $170 $170 $169 $271 forward $105 $-1 #
coedge $-1 $171 $171 $106 $172 forward $166 $-1 #
edge $-1 $272 -2.1007275032665683e-015 $272 6.2831853071795987 $171 $273 forward 7 unknown #
loop $-1 $-1 $178 $107 #
plane-surface $-1 10.737840614862037 -17.613332071374671 44.380548705776434 0 0.62932039886446345 0.77714595512881146 1 0 0 forward_v I I I I #
loop $-1 $-1 $274 $69 #
coedge $-1 $176 $176 $177 $275 reversed $108 $-1 #
coedge $-1 $177 $177 $176 $275 forward $110 $-1 #
coedge $-1 $178 $178 $111 $179 forward $173 $-1 #
edge $-1 $276 -2.1007275032665683e-015 $276 6.2831853071795987 $178 $277 forward 7 unknown #
face $-1 $278 $279 $27 $-1 $280 reversed single #
loop $-1 $-1 $281 $112 #
plane-surface $-1 -74.725180822168653 0 0 1 0 0 0 0 -1 forward_v I I I I #
coedge $-1 $282 $191 $283 $284 forward $113 $-1 #
coedge $-1 $285 $115 $282 $286 forward $73 $-1 #
coedge $-1 $115 $285 $287 $288 forward $73 $-1 #
coedge $-1 $194 $193 $115 $187 reversed $195 $-1 #
edge $-1 $289 -31.776274820948387 $290 31.776274820948387 $186 $291 forward 7 unknown #
coedge $-1 $117 $116 $292 $293 forward $46 $-1 #
coedge $-1 $294 $295 $116 $190 reversed $279 $-1 #
edge $-1 $197 -74.725180822168653 $296 74.725180822168653 $189 $297 forward 7 unknown #
coedge $-1 $183 $298 $117 $192 reversed $113 $-1 #
edge $-1 $299 -74.725180822168653 $196 74.725180822168653 $191 $300 forward 7 unknown #
coedge $-1 $186 $118 $298 $301 forward $195 $-1 #
coedge $-1 $118 $186 $294 $302 reversed $195 $-1 #
loop $-1 $-1 $193 $278 #
vertex $-1 $119 $303 #
vertex $-1 $119 $304 #
straight-curve $-1 74.725180822168653 0 13.18744013123413 0 1 0 I I #
face $-1 $305 $306 $28 $-1 $307 reversed single #
loop $-1 $-1 $204 $120 #
plane-surface $-1 0 -31.776274820948387 0 0 1 0 0 0 1 forward_v I I I I #
coedge $-1 $308 $309 $203 $310 forward $121 $-1 #
coedge $-1 $211 $123 $202 $310 reversed $77 $-1 #
coedge $-1 $209 $311 $123 $205 forward $200 $-1 #
edge $-1 $312 -8.0370458864318604 $212 -2.2637426031726786 $204 $313 forward 7 unknown #
coedge $-1 $125 $124 $314 $315 reversed $49 $-1 #
coedge $-1 $316 $317 $124 $208 forward $318 $-1 #
edge $-1 $319 -40.656397777081878 $213 -27.481168313091672 $207 $320 forward 7 unknown #
coedge $-1 $321 $204 $125 $210 forward $200 $-1 #
edge $-1 $212 27.481168313091672 $322 40.656397777081878 $209 $323 forward 7 unknown #
coedge $-1 $126 $203 $316 $324 reversed $77 $-1 #
vertex $-1 $210 $325 #
vertex $-1 $208 $326 #
straight-curve $-1 -61.549951358178447 0 -7.4141368479749481 0 1 0 I I #
face $-1 $327 $328 $29 $-1 $329 reversed single #
loop $-1 $-1 $330 $128 #
plane-surface $-1 81.17015532065713 0 6.5544801164976683 0 0 1 1 0 0 forward_v I I I I #
coedge $-1 $331 $332 $222 $333 forward $129 $-1 #
coedge $-1 $334 $131 $332 $335 reversed $81 $-1 #
coedge $-1 $131 $334 $225 $336 reversed $81 $-1 #
edge $-1 $227 6.5544801164976683 $337 13.18744013123413 $131 $338 forward 7 unknown #
coedge $-1 $133 $132 $218 $333 reversed $52 $-1 #
coedge $-1 $339 $340 $132 $224 forward $341 $-1 #
edge $-1 $342 -13.18744013123413 $228 -6.5544801164976683 $223 $343 forward 7 unknown #
coedge $-1 $330 $134 $220 $336 forward $216 $-1 #
coedge $-1 $134 $330 $339 $344 forward $216 $-1 #
vertex $-1 $221 $345 #
vertex $-1 $224 $346 #
straight-curve $-1 74.725180822168653 0 6.5544801164976683 0 -1 0 I I #
face $-1 $-1 $242 $30 $-1 $347 reversed single #
loop $-1 $-1 $348 $136 #
plane-surface $-1 0 0 13.18744013123413 0 0 1 1 0 0 forward_v I I I I #
coedge $-1 $349 $350 $351 $352 reversed $137 $-1 #
coedge $-1 $353 $139 $141 $240 forward $85 $-1 #
coedge $-1 $139 $353 $349 $354 forward $85 $-1 #
coedge $-1 $351 $142 $139 $237 forward $242 $-1 #
edge $-1 $244 -1.2958828474322885 $355 12.033723462294326 $236 $356 forward 7 unknown #
coedge $-1 $357 $358 $140 $239 forward $231 $-1 #
edge $-1 $359 -42.007269791875515 $243 -31.137943189752143 $238 $360 forward 7 unknown #
edge $-1 $244 1.8310242626372826e-014 $359 13.98621009398653 $141 $361 forward 7 unknown #
coedge $-1 $142 $351 $357 $362 reversed $242 $-1 #
loop $-1 $-1 $351 $230 #
vertex $-1 $362 $363 #
vertex $-1 $143 $364 #
straight-curve $-1 4.07303745999873 -31.776274820948387 60.265188430359572 0 0 -1 I I #
coedge $-1 $246 $246 $-1 $365 reversed $146 $-1 #
edge $-1 $366 0 $366 6.2831853071796004 $147 $367 forward 7 unknown #
vertex $-1 $150 $368 #
ellipse-curve $-1 7.8814964056349055 -26.341611519886698 8.7865364737592451 0 -0.62932039886446345 0.77714595512881146 1 0 0 1 I I #
coedge $-1 $250 $250 $-1 $369 reversed $153 $-1 #
edge $-1 $370 0 $370 6.2831853071796004 $154 $371 forward 7 unknown #
vertex $-1 $157 $372 #
ellipse-curve $-1 13.594184824089169 -26.341611519886698 8.7865364737592451 0 -0.62932039886446345 0.77714595512881146 1 0 0 1 I I #
face $-1 $-1 $266 $33 $-1 $373 forward single #
loop $-1 $-1 $374 $158 #
plane-surface $-1 0 31.776274820948387 0 0 -1 0 0 0 -1 forward_v I I I I #
coedge $-1 $375 $376 $377 $378 reversed $159 $-1 #
coedge $-1 $379 $161 $163 $264 forward $99 $-1 #
coedge $-1 $161 $379 $375 $380 forward $99 $-1 #
coedge $-1 $377 $164 $161 $261 forward $266 $-1 #
edge $-1 $268 -1.2958828474322885 $381 12.033723462294326 $260 $382 forward 7 unknown #
coedge $-1 $383 $384 $162 $263 forward $255 $-1 #
edge $-1 $385 -75.877013558821261 $267 -67.075206243871492 $262 $386 forward 7 unknown #
edge $-1 $268 49.566339547910246 $385 63.552549641896753 $163 $387 forward 7 unknown #
coedge $-1 $164 $377 $383 $388 forward $266 $-1 #
loop $-1 $-1 $377 $254 #
vertex $-1 $263 $389 #
vertex $-1 $165 $390 #
straight-curve $-1 4.07303745999873 38.219414564538994 13.187440131234126 0 -1 0 I I #
coedge $-1 $270 $270 $-1 $391 reversed $168 $-1 #
edge $-1 $392 0 $392 6.2831853071796004 $169 $393 forward 7 unknown #
vertex $-1 $172 $394 #
ellipse-curve $-1 7.8814964056349055 26.341611519886701 8.7865364737592468 0 0.62932039886446345 0.77714595512881146 1 0 0 1 I I #
coedge $-1 $274 $274 $-1 $395 reversed $175 $-1 #
edge $-1 $396 0 $396 6.2831853071796004 $176 $397 forward 7 unknown #
vertex $-1 $179 $398 #
ellipse-curve $-1 13.594184824089169 26.341611519886701 8.7865364737592468 0 0.62932039886446345 0.77714595512881146 1 0 0 1 I I #
face $-1 $-1 $195 $27 $-1 $399 reversed single #
loop $-1 $-1 $294 $180 #
plane-surface $-1 0 31.776274820948387 0 0 -1 0 0 0 -1 forward_v I I I I #
coedge $-1 $400 $292 $295 $401 forward $181 $-1 #
coedge $-1 $298 $183 $184 $286 reversed $113 $-1 #
coedge $-1 $292 $400 $183 $284 reversed $181 $-1 #
edge $-1 $299 -13.18744013123413 $402 13.18744013123413 $283 $403 forward 7 unknown #
coedge $-1 $185 $184 $400 $404 forward $73 $-1 #
edge $-1 $290 -74.725180822168653 $402 74.725180822168653 $282 $405 forward 7 unknown #
coedge $-1 $295 $294 $185 $288 reversed $279 $-1 #
edge $-1 $406 -74.725180822168653 $289 74.725180822168653 $287 $407 forward 7 unknown #
vertex $-1 $187 $408 #
vertex $-1 $301 $409 #
straight-curve $-1 74.725180822168653 0 -13.18744013123413 0 -1 0 I I #
coedge $-1 $281 $283 $188 $293 reversed $181 $-1 #
edge $-1 $296 -31.776274820948387 $299 31.776274820948387 $292 $410 forward 7 unknown #
coedge $-1 $287 $189 $194 $302 forward $279 $-1 #
coedge $-1 $189 $287 $281 $401 reversed $279 $-1 #
vertex $-1 $190 $411 #
straight-curve $-1 0 31.776274820948387 13.18744013123413 -1 0 0 I I #
coedge $-1 $191 $282 $193 $301 reversed $113 $-1 #
vertex $-1 $293 $412 #
straight-curve $-1 0 -31.776274820948387 13.18744013123413 1 0 0 I I #
edge $-1 $196 -13.18744013123413 $290 13.18744013123413 $193 $413 forward 7 unknown #
edge $-1 $197 -13.18744013123413 $289 13.18744013123413 $194 $414 forward 7 unknown #
point $-1 74.725180822168653 -31.776274820948387 13.18744013123413 #
point $-1 74.725180822168653 31.776274820948387 13.18744013123413 #
face $-1 $-1 $318 $28 $-1 $415 reversed single #
loop $-1 $-1 $314 $199 #
plane-surface $-1 -74.725180822168653 0 0 1 0 0 0 0 -1 forward_v I I I I #
coedge $-1 $416 $202 $311 $417 forward $121 $-1 #
coedge $-1 $202 $416 $418 $419 forward $121 $-1 #
edge $-1 $420 -31.776274820948387 $312 31.776274820948387 $202 $421 forward 7 unknown #
coedge $-1 $204 $321 $308 $417 reversed $200 $-1 #
vertex $-1 $417 $422 #
straight-curve $-1 -61.549951358178447 -31.776274820948387 -5.1503942448022695 0 0 1 I I #
coedge $-1 $423 $424 $206 $315 forward $306 $-1 #
edge $-1 $322 -31.776274820948387 $319 31.776274820948387 $314 $425 forward 7 unknown #
coedge $-1 $418 $207 $211 $324 forward $318 $-1 #
coedge $-1 $207 $418 $423 $426 reversed $318 $-1 #
loop $-1 $-1 $316 $305 #
vertex $-1 $426 $427 #
straight-curve $-1 -34.068783045086775 31.776274820948387 -7.4141368479749481 1 0 0 I I #
coedge $-1 $311 $209 $424 $428 forward $200 $-1 #
vertex $-1 $428 $429 #
straight-curve $-1 -34.068783045086775 -31.776274820948387 -7.4141368479749481 -1 0 0 I I #
edge $-1 $213 2.2637426031726786 $420 8.0370458864318604 $316 $430 forward 7 unknown #
point $-1 -61.549951358178447 -31.776274820948387 -7.4141368479749481 #
point $-1 -61.549951358178447 31.776274820948387 -7.4141368479749481 #
face $-1 $-1 $341 $29 $-1 $431 reversed single #
loop $-1 $-1 $432 $215 #
plane-surface $-1 87.615129819145594 0 9.870960123865899 -1 0 0 0 0 1 forward_v I I I I #
coedge $-1 $226 $225 $433 $434 forward $216 $-1 #
coedge $-1 $435 $218 $340 $436 forward $129 $-1 #
coedge $-1 $218 $435 $219 $335 forward $129 $-1 #
edge $-1 $337 -31.776274820948387 $342 31.776274820948387 $218 $437 forward 7 unknown #
coedge $-1 $220 $219 $438 $439 forward $81 $-1 #
edge $-1 $440 -87.615129819145594 $337 -74.725180822168653 $219 $441 forward 7 unknown #
edge $-1 $227 -6.4449744984884632 $442 6.4449744984884632 $220 $443 forward 7 unknown #
vertex $-1 $333 $444 #
straight-curve $-1 74.725180822168653 31.776274820948387 0 0 0 1 I I #
coedge $-1 $445 $223 $226 $344 reversed $341 $-1 #
coedge $-1 $223 $445 $331 $436 reversed $341 $-1 #
loop $-1 $-1 $223 $327 #
vertex $-1 $436 $446 #
straight-curve $-1 74.725180822168653 -31.776274820948387 0 0 0 -1 I I #
edge $-1 $447 -6.4449744984884632 $228 6.4449744984884632 $339 $448 forward 7 unknown #
point $-1 74.725180822168667 31.776274820948387 6.5544801164976683 #
point $-1 74.725180822168667 -31.776274820948387 6.5544801164976683 #
plane-surface $-1 0 -31.776274820948387 0 0 1 0 0 0 1 forward_v I I I I #
coedge $-1 $358 $357 $350 $449 forward $231 $-1 #
coedge $-1 $350 $233 $235 $354 reversed $137 $-1 #
coedge $-1 $233 $349 $348 $449 reversed $137 $-1 #
coedge $-1 $241 $236 $233 $352 forward $242 $-1 #
edge $-1 $355 -55.879555614075215 $450 -47.077748299125446 $351 $451 forward 7 unknown #
coedge $-1 $235 $234 $358 $452 reversed $85 $-1 #
edge $-1 $453 -13.98621009398653 $355 -1.8310242626372826e-014 $349 $454 forward 7 unknown #
vertex $-1 $237 $455 #
straight-curve $-1 5.3689203074310186 -31.776274820948387 4.3856328162843541 1 0 0 I I #
coedge $-1 $348 $238 $241 $362 forward $231 $-1 #
coedge $-1 $238 $348 $353 $452 forward $231 $-1 #
vertex $-1 $239 $456 #
straight-curve $-1 4.07303745999873 -62.91421801070053 13.187440131234126 0 -1 0 I I #
straight-curve $-1 4.07303745999873 -31.776274820948402 4.3856328162843425 0 0.77714595512881146 0.62932039886446345 I I #
edge $-1 $243 -77.0971178606584 $450 -63.767511550931786 $241 $457 forward 7 unknown #
point $-1 4.07303745999873 -31.776274820948387 13.18744013123413 #
point $-1 4.07303745999873 -31.776274820948387 4.3856328162843541 #
edge $-1 $458 1 $458 0 $246 $-1 forward 7 unknown #
vertex $-1 $247 $459 #
ellipse-curve $-1 7.8814964056349055 -24.674940939941646 6.7283697560211673 0 -0.62932039886446345 0.77714595512881146 1 0 0 1 I I #
point $-1 8.8814964056349055 -26.34161151988669 8.7865364737592326 #
edge $-1 $460 1 $460 0 $250 $-1 forward 7 unknown #
vertex $-1 $251 $461 #
ellipse-curve $-1 13.594184824089169 -24.674940939941646 6.7283697560211673 0 -0.62932039886446345 0.77714595512881146 1 0 0 1 I I #
point $-1 14.594184824089169 -26.34161151988669 8.7865364737592326 #
plane-surface $-1 0 0 13.18744013123413 0 0 1 1 0 0 forward_v I I I I #
coedge $-1 $384 $383 $376 $462 forward $255 $-1 #
coedge $-1 $376 $257 $259 $380 reversed $159 $-1 #
coedge $-1 $257 $375 $374 $462 reversed $159 $-1 #
coedge $-1 $265 $260 $257 $378 forward $266 $-1 #
edge $-1 $381 -17.312466345713979 $463 -6.4431397435906064 $377 $464 forward 7 unknown #
coedge $-1 $259 $258 $384 $465 reversed $99 $-1 #
edge $-1 $466 -63.552549641896753 $381 -49.566339547910246 $375 $467 forward 7 unknown #
vertex $-1 $261 $468 #
straight-curve $-1 5.3689203074310186 20.906948218825022 13.187440131234126 1 0 0 I I #
coedge $-1 $374 $262 $265 $388 reversed $255 $-1 #
coedge $-1 $262 $374 $379 $465 forward $255 $-1 #
vertex $-1 $263 $469 #
straight-curve $-1 4.07303745999873 31.776274820948387 80.262646375105618 0 0 1 I I #
straight-curve $-1 4.07303745999873 -17.613332071374671 44.380548705776434 0 0.77714595512881146 -0.62932039886446345 I I #
edge $-1 $463 -17.402643769725344 $267 -4.07303745999873 $383 $470 forward 7 unknown #
point $-1 4.07303745999873 31.776274820948387 13.18744013123413 #
point $-1 4.07303745999873 20.906948218825015 13.18744013123413 #
edge $-1 $471 1 $471 0 $270 $-1 forward 7 unknown #
vertex $-1 $271 $472 #
ellipse-curve $-1 7.8814964056349055 24.674940939941642 6.7283697560211673 0 0.62932039886446345 0.77714595512881146 1 0 0 1 I I #
point $-1 8.8814964056349055 26.341611519886687 8.7865364737592326 #
edge $-1 $473 1 $473 0 $274 $-1 forward 7 unknown #
vertex $-1 $275 $474 #
ellipse-curve $-1 13.594184824089169 24.674940939941642 6.7283697560211673 0 0.62932039886446345 0.77714595512881146 1 0 0 1 I I #
point $-1 14.594184824089169 26.341611519886687 8.7865364737592326 #
plane-surface $-1 74.725180822168653 0 0 -1 0 0 0 0 1 forward_v I I I I #
coedge $-1 $283 $281 $285 $404 reversed $181 $-1 #
edge $-1 $296 -13.18744013123413 $406 13.18744013123413 $295 $475 forward 7 unknown #
vertex $-1 $404 $476 #
straight-curve $-1 -74.725180822168653 -31.776274820948387 0 0 0 -1 I I #
edge $-1 $402 -31.776274820948387 $406 31.776274820948387 $400 $477 forward 7 unknown #
straight-curve $-1 0 -31.776274820948387 -13.18744013123413 -1 0 0 I I #
vertex $-1 $288 $478 #
straight-curve $-1 0 31.776274820948387 -13.18744013123413 1 0 0 I I #
point $-1 74.725180822168653 31.776274820948387 -13.18744013123413 #
point $-1 74.725180822168653 -31.776274820948387 -13.18744013123413 #
straight-curve $-1 -74.725180822168653 0 13.18744013123413 0 -1 0 I I #
point $-1 -74.725180822168653 31.776274820948387 13.18744013123413 #
point $-1 -74.725180822168653 -31.776274820948387 13.18744013123413 #
straight-curve $-1 74.725180822168653 -31.776274820948387 0 0 0 -1 I I #
straight-curve $-1 74.725180822168653 31.776274820948387 0 0 0 -1 I I #
plane-surface $-1 0 31.776274820948387 0 0 -1 0 0 0 -1 forward_v I I I I #
coedge $-1 $309 $308 $479 $480 forward $121 $-1 #
edge $-1 $312 61.549951358178447 $481 74.725180822168653 $311 $482 forward 7 unknown #
coedge $-1 $317 $316 $309 $419 reversed $318 $-1 #
edge $-1 $483 -74.725180822168653 $420 -61.549951358178447 $418 $484 forward 7 unknown #
vertex $-1 $324 $485 #
straight-curve $-1 -61.549951358178447 0 -13.18744013123413 0 -1 0 I I #
point $-1 -61.549951358178447 -31.776274820948387 -13.18744013123413 #
coedge $-1 $479 $314 $317 $426 forward $306 $-1 #
coedge $-1 $314 $479 $321 $428 reversed $306 $-1 #
straight-curve $-1 -74.725180822168653 0 -7.4141368479749481 0 1 0 I I #
edge $-1 $319 7.4141368479749481 $483 13.18744013123413 $317 $486 forward 7 unknown #
point $-1 -74.725180822168653 31.776274820948387 -7.4141368479749481 #
edge $-1 $322 7.4141368479749481 $481 13.18744013123413 $424 $487 forward 7 unknown #
point $-1 -74.725180822168653 -31.776274820948387 -7.4141368479749481 #
straight-curve $-1 -61.549951358178447 31.776274820948387 -5.1503942448022695 0 0 -1 I I #
plane-surface $-1 0 -31.776274820948387 0 0 1 0 0 0 1 forward_v I I I I #
coedge $-1 $433 $488 $445 $489 forward $328 $-1 #
coedge $-1 $438 $432 $330 $434 reversed $328 $-1 #
edge $-1 $442 -31.776274820948387 $447 31.776274820948387 $433 $490 forward 7 unknown #
coedge $-1 $332 $331 $488 $491 forward $129 $-1 #
edge $-1 $342 -6.4449744984884774 $492 6.4449744984884632 $340 $493 forward 7 unknown #
straight-curve $-1 74.725180822168653 0 13.18744013123413 0 -1 0 I I #
coedge $-1 $488 $433 $334 $439 reversed $328 $-1 #
edge $-1 $440 -3.3164800073682308 $442 3.3164800073682308 $438 $494 forward 7 unknown #
vertex $-1 $491 $495 #
straight-curve $-1 0 31.776274820948387 13.18744013123413 -1 0 0 I I #
vertex $-1 $434 $496 #
straight-curve $-1 81.17015532065713 31.776274820948387 6.5544801164976683 1 0 0 I I #
point $-1 74.725180822168653 31.776274820948387 13.18744013123413 #
coedge $-1 $340 $339 $432 $489 reversed $341 $-1 #
point $-1 74.725180822168653 -31.776274820948387 13.18744013123413 #
vertex $-1 $489 $497 #
straight-curve $-1 81.17015532065713 -31.776274820948387 6.5544801164976683 -1 0 0 I I #
edge $-1 $450 31.137943189752143 $453 42.007269791875515 $348 $498 forward 7 unknown #
vertex $-1 $352 $499 #
straight-curve $-1 17.402643769725344 -31.776274820948387 60.265188430359572 0 0 1 I I #
edge $-1 $453 -12.033723462294326 $359 1.2958828474322885 $358 $500 forward 7 unknown #
vertex $-1 $452 $501 #
straight-curve $-1 17.402643769725344 -31.776274820948402 4.3856328162843425 0 -0.77714595512881146 -0.62932039886446345 I I #
point $-1 17.402643769725344 -31.776274820948387 4.3856328162843541 #
point $-1 4.07303745999873 -20.906948218825015 13.18744013123413 #
straight-curve $-1 81.17015532065713 -31.776274820948387 13.18744013123413 1 0 0 I I #
vertex $-1 $365 $502 #
point $-1 8.8814964056349055 -24.674940939941646 6.7283697560211673 #
vertex $-1 $369 $503 #
point $-1 14.594184824089169 -24.674940939941646 6.7283697560211673 #
edge $-1 $463 67.075206243871492 $466 75.877013558821261 $374 $504 forward 7 unknown #
vertex $-1 $388 $505 #
straight-curve $-1 17.402643769725344 38.219414564538994 13.187440131234126 0 1 0 I I #
edge $-1 $466 -12.033723462294326 $385 1.2958828474322885 $384 $506 forward 7 unknown #
vertex $-1 $465 $507 #
straight-curve $-1 17.402643769725344 -17.613332071374671 44.380548705776434 0 -0.77714595512881146 0.62932039886446345 I I #
point $-1 17.402643769725344 20.906948218825015 13.18744013123413 #
point $-1 4.07303745999873 31.776274820948387 4.3856328162843567 #
straight-curve $-1 0 31.776274820948387 13.18744013123413 -1 0 0 I I #
vertex $-1 $391 $508 #
point $-1 8.8814964056349055 24.674940939941642 6.7283697560211673 #
vertex $-1 $395 $509 #
point $-1 14.594184824089169 24.674940939941642 6.7283697560211673 #
straight-curve $-1 -74.725180822168653 31.776274820948387 0 0 0 -1 I I #
point $-1 -74.725180822168653 -31.776274820948387 -13.18744013123413 #
straight-curve $-1 -74.725180822168653 0 -13.18744013123413 0 1 0 I I #
point $-1 -74.725180822168653 31.776274820948387 -13.18744013123413 #
coedge $-1 $424 $423 $416 $480 reversed $306 $-1 #
edge $-1 $481 -31.776274820948387 $483 31.776274820948387 $479 $510 forward 7 unknown #
vertex $-1 $480 $511 #
straight-curve $-1 0 -31.776274820948387 -13.18744013123413 -1 0 0 I I #
vertex $-1 $419 $512 #
straight-curve $-1 0 31.776274820948387 -13.18744013123413 1 0 0 I I #
point $-1 -61.549951358178447 31.776274820948387 -13.18744013123413 #
straight-curve $-1 -74.725180822168653 31.776274820948387 0 0 0 -1 I I #
straight-curve $-1 -74.725180822168653 -31.776274820948387 0 0 0 -1 I I #
coedge $-1 $432 $438 $435 $491 reversed $328 $-1 #
edge $-1 $492 -3.3164800073682308 $447 3.3164800073682308 $432 $513 forward 7 unknown #
straight-curve $-1 87.615129819145594 0 6.5544801164976683 0 -1 0 I I #
edge $-1 $492 -31.776274820948387 $440 31.776274820948387 $488 $514 forward 7 unknown #
vertex $-1 $491 $515 #
straight-curve $-1 81.17015532065713 -31.776274820948387 13.18744013123413 1 0 0 I I #
straight-curve $-1 87.615129819145594 31.776274820948387 9.870960123865899 0 0 -1 I I #
point $-1 87.615129819145594 31.776274820948387 13.18744013123413 #
point $-1 87.615129819145594 31.776274820948387 6.5544801164976683 #
point $-1 87.615129819145594 -31.776274820948387 6.5544801164976683 #
straight-curve $-1 17.402643769725344 -62.91421801070053 13.187440131234126 0 1 0 I I #
point $-1 17.402643769725344 -31.776274820948387 13.18744013123413 #
straight-curve $-1 5.3689203074310186 -20.906948218825018 13.18744013123413 -1 0 0 I I #
point $-1 17.402643769725344 -20.906948218825015 13.18744013123413 #
point $-1 7.8814964056349055 -24.045620541077181 5.9512238008923566 #
point $-1 13.594184824089169 -24.045620541077181 5.9512238008923566 #
straight-curve $-1 17.402643769725344 31.776274820948387 80.262646375105618 0 0 -1 I I #
point $-1 17.402643769725344 31.776274820948387 13.18744013123413 #
straight-curve $-1 5.3689203074310186 31.776274820948387 4.3856328162843567 -1 0 0 I I #
point $-1 17.402643769725344 31.776274820948387 4.3856328162843567 #
point $-1 7.8814964056349055 24.045620541077177 5.9512238008923566 #
point $-1 13.594184824089169 24.045620541077177 5.9512238008923566 #
straight-curve $-1 -74.725180822168653 0 -13.18744013123413 0 1 0 I I #
point $-1 -74.725180822168653 -31.776274820948387 -13.18744013123413 #
point $-1 -74.725180822168653 31.776274820948387 -13.18744013123413 #
straight-curve $-1 87.615129819145594 -31.776274820948387 9.870960123865899 0 0 -1 I I #
straight-curve $-1 87.615129819145594 0 13.18744013123413 0 1 0 I I #
point $-1 87.615129819145594 -31.776274820948387 13.18744013123413 #
End-of-ACIS-data 