500 0 21 0           
7 Unknown 11 ACIS 5.0 NT 24 Fri Mar 26 14:36:07 1999 
-1 9.9999999999999995e-007 1e-010 
body $-1 $21 $-1 $22 #
body $-1 $23 $-1 $24 #
body $-1 $25 $-1 $26 #
body $-1 $27 $-1 $28 #
body $-1 $29 $-1 $30 #
body $-1 $31 $-1 $32 #
body $-1 $33 $-1 $34 #
body $-1 $35 $-1 $36 #
body $-1 $37 $-1 $38 #
body $-1 $39 $-1 $40 #
body $-1 $41 $-1 $42 #
body $-1 $43 $-1 $44 #
body $-1 $45 $-1 $46 #
body $-1 $47 $-1 $48 #
body $-1 $49 $-1 $50 #
body $-1 $51 $-1 $52 #
body $-1 $53 $-1 $54 #
body $-1 $55 $-1 $56 #
body $-1 $57 $-1 $58 #
body $-1 $59 $-1 $60 #
body $-1 $61 $-1 $62 #
lump $-1 $-1 $63 $0 #
transform $-1 1 0 0 0 1 0 0 0 1 65.800347911008032 36.191095008897975 10.724015560759117 1 rotate no_reflect no_shear #
lump $-1 $-1 $64 $1 #
transform $-1 1 0 0 0 1 0 0 0 1 65.800347911008032 36.191095008897975 10.724015560759117 1 rotate no_reflect no_shear #
lump $-1 $-1 $65 $2 #
transform $-1 1 0 0 0 1 0 0 0 1 65.800347911008032 36.191095008897975 10.724015560759117 1 rotate no_reflect no_shear #
lump $-1 $-1 $66 $3 #
transform $-1 1 0 0 0 1 0 0 0 1 65.800347911008032 36.191095008897975 10.724015560759117 1 rotate no_reflect no_shear #
lump $-1 $-1 $67 $4 #
transform $-1 1 0 0 0 1 0 0 0 1 65.800347911008032 36.191095008897975 10.724015560759117 1 rotate no_reflect no_shear #
lump $-1 $-1 $68 $5 #
transform $-1 1 0 0 0 1 0 0 0 1 65.800347911008032 36.191095008897975 10.724015560759117 1 rotate no_reflect no_shear #
lump $-1 $-1 $69 $6 #
transform $-1 1 0 0 0 1 0 0 0 1 65.800347911008032 36.191095008897975 10.724015560759117 1 rotate no_reflect no_shear #
lump $-1 $-1 $70 $7 #
transform $-1 1 0 0 0 1 0 0 0 1 65.800347911008032 36.191095008897975 10.724015560759117 1 rotate no_reflect no_shear #
lump $-1 $-1 $71 $8 #
transform $-1 1 0 0 0 1 0 0 0 1 65.800347911008032 36.191095008897975 10.724015560759117 1 rotate no_reflect no_shear #
lump $-1 $-1 $72 $9 #
transform $-1 1 0 0 0 1 0 0 0 1 65.800347911008032 36.191095008897975 10.724015560759117 1 rotate no_reflect no_shear #
lump $-1 $-1 $73 $10 #
transform $-1 1 0 0 0 1 0 0 0 1 65.800347911008032 36.191095008897975 10.724015560759117 1 rotate no_reflect no_shear #
lump $-1 $-1 $74 $11 #
transform $-1 1 0 0 0 1 0 0 0 1 65.800347911008032 36.191095008897975 10.724015560759117 1 rotate no_reflect no_shear #
lump $-1 $-1 $75 $12 #
transform $-1 1 0 0 0 1 0 0 0 1 65.800347911008032 36.191095008897975 10.724015560759117 1 rotate no_reflect no_shear #
lump $-1 $-1 $76 $13 #
transform $-1 1 0 0 0 1 0 0 0 1 65.800347911008032 36.191095008897975 10.724015560759117 1 rotate no_reflect no_shear #
lump $-1 $-1 $77 $14 #
transform $-1 1 0 0 0 1 0 0 0 1 65.800347911008032 36.191095008897975 10.724015560759117 1 rotate no_reflect no_shear #
lump $-1 $-1 $78 $15 #
transform $-1 1 0 0 0 1 0 0 0 1 65.800347911008032 36.191095008897975 10.724015560759117 1 rotate no_reflect no_shear #
lump $-1 $-1 $79 $16 #
transform $-1 1 0 0 0 1 0 0 0 1 65.800347911008032 36.191095008897975 10.724015560759117 1 rotate no_reflect no_shear #
lump $-1 $-1 $80 $17 #
transform $-1 1 0 0 0 1 0 0 0 1 65.800347911008032 36.191095008897975 10.724015560759117 1 rotate no_reflect no_shear #
lump $-1 $-1 $81 $18 #
transform $-1 1 0 0 0 1 0 0 0 1 65.800347911008032 36.191095008897975 10.724015560759117 1 rotate no_reflect no_shear #
lump $-1 $-1 $82 $19 #
transform $-1 1 0 0 0 1 0 0 0 1 65.800347911008032 36.191095008897975 10.724015560759117 1 rotate no_reflect no_shear #
lump $-1 $-1 $83 $20 #
transform $-1 1 0 0 0 1 0 0 0 1 65.800347911008032 36.191095008897975 10.724015560759117 1 rotate no_reflect no_shear #
shell $-1 $-1 $-1 $84 $-1 $21 #
shell $-1 $-1 $-1 $85 $-1 $23 #
shell $-1 $-1 $-1 $86 $-1 $25 #
shell $-1 $-1 $-1 $87 $-1 $27 #
shell $-1 $-1 $-1 $88 $-1 $29 #
shell $-1 $-1 $-1 $89 $-1 $31 #
shell $-1 $-1 $-1 $90 $-1 $33 #
shell $-1 $-1 $-1 $91 $-1 $35 #
shell $-1 $-1 $-1 $92 $-1 $37 #
shell $-1 $-1 $-1 $93 $-1 $39 #
shell $-1 $-1 $-1 $94 $-1 $41 #
shell $-1 $-1 $-1 $95 $-1 $43 #
shell $-1 $-1 $-1 $96 $-1 $45 #
shell $-1 $-1 $-1 $97 $-1 $47 #
shell $-1 $-1 $-1 $98 $-1 $49 #
shell $-1 $-1 $-1 $99 $-1 $51 #
shell $-1 $-1 $-1 $100 $-1 $53 #
shell $-1 $-1 $-1 $101 $-1 $55 #
shell $-1 $-1 $-1 $102 $-1 $57 #
shell $-1 $-1 $-1 $103 $-1 $59 #
shell $-1 $-1 $-1 $104 $-1 $61 #
face $-1 $105 $106 $63 $-1 $107 forward single #
face $-1 $108 $109 $64 $-1 $110 reversed single #
face $-1 $111 $112 $65 $-1 $113 forward single #
face $-1 $114 $115 $66 $-1 $116 forward single #
face $-1 $117 $118 $67 $-1 $119 forward single #
face $-1 $120 $121 $68 $-1 $122 reversed single #
face $-1 $123 $124 $69 $-1 $125 forward single #
face $-1 $126 $127 $70 $-1 $128 forward single #
face $-1 $129 $130 $71 $-1 $131 forward single #
face $-1 $132 $133 $72 $-1 $134 reversed single #
face $-1 $135 $136 $73 $-1 $137 forward single #
face $-1 $138 $139 $74 $-1 $140 forward single #
face $-1 $141 $142 $75 $-1 $143 forward single #
face $-1 $144 $145 $76 $-1 $146 reversed single #
face $-1 $147 $148 $77 $-1 $149 forward single #
face $-1 $150 $151 $78 $-1 $152 forward single #
face $-1 $153 $154 $79 $-1 $155 forward single #
face $-1 $156 $157 $80 $-1 $158 reversed single #
face $-1 $159 $160 $81 $-1 $161 forward single #
face $-1 $162 $163 $82 $-1 $164 forward single #
face $-1 $165 $166 $83 $-1 $167 forward single #
face $-1 $168 $169 $63 $-1 $170 reversed single #
loop $-1 $-1 $171 $84 #
plane-surface $-1 0 0 10.724015560759117 0 0 1 1 0 0 forward_v I I I I #
face $-1 $172 $173 $64 $-1 $174 reversed single #
loop $-1 $-1 $175 $85 #
plane-surface $-1 -153.85840236270462 -26.817880839657221 104.71550254827723 0 1 0 -0.66913061440640931 0 0.74314481823134659 forward_v I I I I #
face $-1 $176 $177 $65 $-1 $178 forward single #
loop $-1 $179 $180 $86 #
cone-surface $-1 -63.351793817627524 -25.073414172615575 8.4489990575170584 0.66913061440640931 0 -0.74314481823134659 0.18578620455783665 0 0.16728265360160233 1 I I 0 1 0.25 forward I I I I #
face $-1 $181 $182 $66 $-1 $183 forward single #
loop $-1 $184 $185 $87 #
cone-surface $-1 -63.351793817627524 -22.456714172053104 8.4489990575170584 0.66913061440640931 0 -0.74314481823134659 0.18578620455783665 0 0.16728265360160233 1 I I 0 1 0.25 forward I I I I #
face $-1 $186 $187 $67 $-1 $188 forward single #
loop $-1 $189 $190 $88 #
cone-surface $-1 -63.351793817627524 -19.840014171490633 8.4489990575170584 0.66913061440640931 0 -0.74314481823134659 0.18578620455783665 0 0.16728265360160233 1 I I 0 1 0.25 forward I I I I #
face $-1 $191 $192 $68 $-1 $193 reversed single #
loop $-1 $-1 $194 $89 #
plane-surface $-1 -153.85840236270462 -11.846738058288487 104.71550254827723 0 1 0 -0.66913061440640931 0 0.74314481823134659 forward_v I I I I #
face $-1 $195 $196 $69 $-1 $197 forward single #
loop $-1 $198 $199 $90 #
cone-surface $-1 -63.351793817627524 -10.102271391246838 8.4489990575170584 0.66913061440640931 0 -0.74314481823134659 0.18578620455783665 0 0.16728265360160233 1 I I 0 1 0.25 forward I I I I #
face $-1 $200 $201 $70 $-1 $202 forward single #
loop $-1 $203 $204 $91 #
cone-surface $-1 -63.351793817627524 -7.4855713906843704 8.4489990575170584 0.66913061440640931 0 -0.74314481823134659 0.18578620455783665 0 0.16728265360160233 1 I I 0 1 0.25 forward I I I I #
face $-1 $205 $206 $71 $-1 $207 forward single #
loop $-1 $208 $209 $92 #
cone-surface $-1 -63.351793817627524 -4.8688713901218961 8.4489990575170584 0.66913061440640931 0 -0.74314481823134659 0.18578620455783665 0 0.16728265360160233 1 I I 0 1 0.25 forward I I I I #
face $-1 $210 $211 $72 $-1 $212 reversed single #
loop $-1 $-1 $213 $93 #
plane-surface $-1 -153.85840236270462 3.1244047230802465 104.71550254827723 0 1 0 -0.66913061440640931 0 0.74314481823134659 forward_v I I I I #
face $-1 $214 $215 $73 $-1 $216 forward single #
loop $-1 $217 $218 $94 #
cone-surface $-1 -63.351793817627524 4.8688713901218961 8.4489990575170584 0.66913061440640931 0 -0.74314481823134659 0.18578620455783665 0 0.16728265360160233 1 I I 0 1 0.25 forward I I I I #
face $-1 $219 $220 $74 $-1 $221 forward single #
loop $-1 $222 $223 $95 #
cone-surface $-1 -63.351793817627524 7.4855713906843633 8.4489990575170584 0.66913061440640931 0 -0.74314481823134659 0.18578620455783665 0 0.16728265360160233 1 I I 0 1 0.25 forward I I I I #
face $-1 $224 $225 $75 $-1 $226 forward single #
loop $-1 $227 $228 $96 #
cone-surface $-1 -63.351793817627524 10.102271391246838 8.4489990575170584 0.66913061440640931 0 -0.74314481823134659 0.18578620455783665 0 0.16728265360160233 1 I I 0 1 0.25 forward I I I I #
face $-1 $229 $230 $76 $-1 $231 reversed single #
loop $-1 $-1 $232 $97 #
plane-surface $-1 -153.85840236270462 18.09554750444898 104.71550254827723 0 1 0 -0.66913061440640931 0 0.74314481823134659 forward_v I I I I #
face $-1 $233 $234 $77 $-1 $235 forward single #
loop $-1 $236 $237 $98 #
cone-surface $-1 -63.351793817627524 19.84001417149063 8.4489990575170584 0.66913061440640931 0 -0.74314481823134659 0.18578620455783665 0 0.16728265360160233 1 I I 0 1 0.25 forward I I I I #
face $-1 $238 $239 $78 $-1 $240 forward single #
loop $-1 $241 $242 $99 #
cone-surface $-1 -63.351793817627524 22.456714172053097 8.4489990575170584 0.66913061440640931 0 -0.74314481823134659 0.18578620455783665 0 0.16728265360160233 1 I I 0 1 0.25 forward I I I I #
face $-1 $243 $244 $79 $-1 $245 forward single #
loop $-1 $246 $247 $100 #
cone-surface $-1 -63.351793817627524 25.073414172615571 8.4489990575170584 0.66913061440640931 0 -0.74314481823134659 0.18578620455783665 0 0.16728265360160233 1 I I 0 1 0.25 forward I I I I #
face $-1 $248 $249 $80 $-1 $250 reversed single #
loop $-1 $-1 $251 $101 #
plane-surface $-1 110.82479483336425 27.839202738429407 185.44572597565374 0 -1 0 -0.85716730853699208 0 -0.51503806187062418 forward_v I I I I #
face $-1 $252 $253 $81 $-1 $254 forward single #
loop $-1 $255 $256 $102 #
cone-surface $-1 63.610800728185133 18.502922991537282 7.5357609590963381 -0.85716730853699208 0 -0.51503806187062418 0.25751903093531209 0 -0.42858365426849604 1 I I 0 1 0.5 forward I I I I #
face $-1 $257 $258 $82 $-1 $259 forward single #
loop $-1 $260 $261 $103 #
cone-surface $-1 63.610800728185133 22.004027896621828 7.5357609590963381 -0.85716730853699208 0 -0.51503806187062418 0.25751903093531209 0 -0.42858365426849604 1 I I 0 1 0.5 forward I I I I #
face $-1 $262 $263 $83 $-1 $264 forward single #
loop $-1 $265 $266 $104 #
cone-surface $-1 63.610800728185133 25.505132801706374 7.5357609590963381 -0.85716730853699208 0 -0.51503806187062418 0.25751903093531209 0 -0.42858365426849604 1 I I 0 1 0.5 forward I I I I #
face $-1 $267 $268 $63 $-1 $269 reversed single #
loop $-1 $-1 $270 $105 #
plane-surface $-1 0 0 -10.724015560759117 0 0 1 1 0 0 forward_v I I I I #
coedge $-1 $271 $272 $273 $274 forward $106 $-1 #
face $-1 $275 $276 $64 $-1 $277 reversed single #
loop $-1 $-1 $278 $108 #
plane-surface $-1 -65.800347911008032 -22.456714172053104 6.9171273725063713 -0.66913061440640931 0 0.74314481823134659 0.74314481823134659 0 0.66913061440640931 forward_v I I I I #
coedge $-1 $279 $280 $281 $282 reversed $109 $-1 #
face $-1 $-1 $283 $65 $-1 $284 forward single #
loop $-1 $285 $286 $111 #
cone-surface $-1 -62.933587183623516 -25.073414172615575 7.9845335461224671 0.66913061440640931 0 -0.74314481823134659 0.092893102278918324 0 0.083641326800801163 1 I I -0.70710678118654746 0.70710678118654746 0.125 forward I I I I #
loop $-1 $-1 $287 $86 #
coedge $-1 $180 $180 $288 $289 reversed $112 $-1 #
face $-1 $-1 $290 $66 $-1 $291 forward single #
loop $-1 $292 $293 $114 #
cone-surface $-1 -62.933587183623516 -22.456714172053104 7.9845335461224671 0.66913061440640931 0 -0.74314481823134659 0.092893102278918324 0 0.083641326800801163 1 I I -0.70710678118654746 0.70710678118654746 0.125 forward I I I I #
loop $-1 $-1 $294 $87 #
coedge $-1 $185 $185 $295 $296 reversed $115 $-1 #
face $-1 $-1 $297 $67 $-1 $298 forward single #
loop $-1 $299 $300 $117 #
cone-surface $-1 -62.933587183623516 -19.840014171490633 7.9845335461224671 0.66913061440640931 0 -0.74314481823134659 0.092893102278918324 0 0.083641326800801163 1 I I -0.70710678118654746 0.70710678118654746 0.125 forward I I I I #
loop $-1 $-1 $301 $88 #
coedge $-1 $190 $190 $302 $303 reversed $118 $-1 #
face $-1 $304 $305 $68 $-1 $306 reversed single #
loop $-1 $-1 $307 $120 #
plane-surface $-1 -65.800347911008032 -7.4855713906843704 6.9171273725063713 -0.66913061440640931 0 0.74314481823134659 0.74314481823134659 0 0.66913061440640931 forward_v I I I I #
coedge $-1 $308 $309 $310 $311 reversed $121 $-1 #
face $-1 $-1 $312 $69 $-1 $313 forward single #
loop $-1 $314 $315 $123 #
cone-surface $-1 -62.933587183623516 -10.102271391246838 7.9845335461224671 0.66913061440640931 0 -0.74314481823134659 0.092893102278918324 0 0.083641326800801163 1 I I -0.70710678118654746 0.70710678118654746 0.125 forward I I I I #
loop $-1 $-1 $316 $90 #
coedge $-1 $199 $199 $317 $318 reversed $124 $-1 #
face $-1 $-1 $319 $70 $-1 $320 forward single #
loop $-1 $321 $322 $126 #
cone-surface $-1 -62.933587183623516 -7.4855713906843704 7.9845335461224671 0.66913061440640931 0 -0.74314481823134659 0.092893102278918324 0 0.083641326800801163 1 I I -0.70710678118654746 0.70710678118654746 0.125 forward I I I I #
loop $-1 $-1 $323 $91 #
coedge $-1 $204 $204 $324 $325 reversed $127 $-1 #
face $-1 $-1 $326 $71 $-1 $327 forward single #
loop $-1 $328 $329 $129 #
cone-surface $-1 -62.933587183623516 -4.8688713901218961 7.9845335461224671 0.66913061440640931 0 -0.74314481823134659 0.092893102278918324 0 0.083641326800801163 1 I I -0.70710678118654746 0.70710678118654746 0.125 forward I I I I #
loop $-1 $-1 $330 $92 #
coedge $-1 $209 $209 $331 $332 reversed $130 $-1 #
face $-1 $333 $334 $72 $-1 $335 reversed single #
loop $-1 $-1 $336 $132 #
plane-surface $-1 -65.800347911008032 7.4855713906843633 6.9171273725063713 -0.66913061440640931 0 0.74314481823134659 0.74314481823134659 0 0.66913061440640931 forward_v I I I I #
coedge $-1 $337 $338 $339 $340 reversed $133 $-1 #
face $-1 $-1 $341 $73 $-1 $342 forward single #
loop $-1 $343 $344 $135 #
cone-surface $-1 -62.933587183623516 4.8688713901218961 7.9845335461224671 0.66913061440640931 0 -0.74314481823134659 0.092893102278918324 0 0.083641326800801163 1 I I -0.70710678118654746 0.70710678118654746 0.125 forward I I I I #
loop $-1 $-1 $345 $94 #
coedge $-1 $218 $218 $346 $347 reversed $136 $-1 #
face $-1 $-1 $348 $74 $-1 $349 forward single #
loop $-1 $350 $351 $138 #
cone-surface $-1 -62.933587183623516 7.4855713906843633 7.9845335461224671 0.66913061440640931 0 -0.74314481823134659 0.092893102278918324 0 0.083641326800801163 1 I I -0.70710678118654746 0.70710678118654746 0.125 forward I I I I #
loop $-1 $-1 $352 $95 #
coedge $-1 $223 $223 $353 $354 reversed $139 $-1 #
face $-1 $-1 $355 $75 $-1 $356 forward single #
loop $-1 $357 $358 $141 #
cone-surface $-1 -62.933587183623516 10.102271391246838 7.9845335461224671 0.66913061440640931 0 -0.74314481823134659 0.092893102278918324 0 0.083641326800801163 1 I I -0.70710678118654746 0.70710678118654746 0.125 forward I I I I #
loop $-1 $-1 $359 $96 #
coedge $-1 $228 $228 $360 $361 reversed $142 $-1 #
face $-1 $362 $363 $76 $-1 $364 reversed single #
loop $-1 $-1 $365 $144 #
plane-surface $-1 -65.800347911008032 22.456714172053097 6.9171273725063713 -0.66913061440640931 0 0.74314481823134659 0.74314481823134659 0 0.66913061440640931 forward_v I I I I #
coedge $-1 $366 $367 $368 $369 reversed $145 $-1 #
face $-1 $-1 $370 $77 $-1 $371 forward single #
loop $-1 $372 $373 $147 #
cone-surface $-1 -62.933587183623516 19.84001417149063 7.9845335461224671 0.66913061440640931 0 -0.74314481823134659 0.092893102278918324 0 0.083641326800801163 1 I I -0.70710678118654746 0.70710678118654746 0.125 forward I I I I #
loop $-1 $-1 $374 $98 #
coedge $-1 $237 $237 $375 $376 reversed $148 $-1 #
face $-1 $-1 $377 $78 $-1 $378 forward single #
loop $-1 $379 $380 $150 #
cone-surface $-1 -62.933587183623516 22.456714172053097 7.9845335461224671 0.66913061440640931 0 -0.74314481823134659 0.092893102278918324 0 0.083641326800801163 1 I I -0.70710678118654746 0.70710678118654746 0.125 forward I I I I #
loop $-1 $-1 $381 $99 #
coedge $-1 $242 $242 $382 $383 reversed $151 $-1 #
face $-1 $-1 $384 $79 $-1 $385 forward single #
loop $-1 $386 $387 $153 #
cone-surface $-1 -62.933587183623516 25.073414172615571 7.9845335461224671 0.66913061440640931 0 -0.74314481823134659 0.092893102278918324 0 0.083641326800801163 1 I I -0.70710678118654746 0.70710678118654746 0.125 forward I I I I #
loop $-1 $-1 $388 $100 #
coedge $-1 $247 $247 $389 $390 reversed $154 $-1 #
face $-1 $391 $392 $80 $-1 $393 reversed single #
loop $-1 $-1 $394 $156 #
plane-surface $-1 -1.9790194059886375 22.004027896621828 117.66635865865705 0.85716730853699208 0 0.51503806187062418 0.51503806187062418 0 -0.85716730853699208 forward_v I I I I #
coedge $-1 $395 $396 $397 $398 reversed $157 $-1 #
face $-1 $-1 $399 $81 $-1 $400 forward single #
loop $-1 $401 $402 $159 #
cone-surface $-1 62.967925246782386 18.502922991537282 7.14948241269337 -0.85716730853699208 0 -0.51503806187062418 0.12875951546765604 0 -0.21429182713424802 1 I I -0.70710678118654746 0.70710678118654746 0.25 forward I I I I #
loop $-1 $-1 $403 $102 #
coedge $-1 $256 $256 $404 $405 reversed $160 $-1 #
face $-1 $-1 $406 $82 $-1 $407 forward single #
loop $-1 $408 $409 $162 #
cone-surface $-1 62.967925246782386 22.004027896621828 7.14948241269337 -0.85716730853699208 0 -0.51503806187062418 0.12875951546765604 0 -0.21429182713424802 1 I I -0.70710678118654746 0.70710678118654746 0.25 forward I I I I #
loop $-1 $-1 $410 $103 #
coedge $-1 $261 $261 $411 $412 reversed $163 $-1 #
face $-1 $-1 $413 $83 $-1 $414 forward single #
loop $-1 $415 $416 $165 #
cone-surface $-1 62.967925246782386 25.505132801706374 7.14948241269337 -0.85716730853699208 0 -0.51503806187062418 0.12875951546765604 0 -0.21429182713424802 1 I I -0.70710678118654746 0.70710678118654746 0.25 forward I I I I #
loop $-1 $-1 $417 $104 #
coedge $-1 $266 $266 $418 $419 reversed $166 $-1 #
face $-1 $420 $421 $63 $-1 $422 reversed single #
loop $-1 $-1 $423 $168 #
plane-surface $-1 0 -36.191095008897975 0 0 1 0 0 0 1 forward_v I I I I #
coedge $-1 $424 $425 $426 $427 forward $169 $-1 #
coedge $-1 $428 $171 $429 $430 forward $106 $-1 #
coedge $-1 $171 $428 $431 $432 forward $106 $-1 #
coedge $-1 $433 $434 $171 $274 reversed $435 $-1 #
edge $-1 $436 -36.191095008897975 $437 36.191095008897975 $273 $438 forward 7 unknown #
face $-1 $439 $440 $64 $-1 $441 reversed single #
loop $-1 $-1 $442 $172 #
plane-surface $-1 -153.85840236270462 -18.095547504448987 104.71550254827723 0 -1 0 0.66913061440640931 0 -0.74314481823134659 forward_v I I I I #
coedge $-1 $443 $444 $445 $446 reversed $173 $-1 #
coedge $-1 $280 $175 $447 $448 reversed $109 $-1 #
coedge $-1 $175 $279 $443 $449 reversed $109 $-1 #
coedge $-1 $445 $450 $175 $282 forward $451 $-1 #
edge $-1 $452 11.12885327034428 $453 15.356830842698869 $281 $454 forward 7 unknown #
loop $-1 $-1 $288 $176 #
plane-surface $-1 -65.800347911008032 -22.456714172053104 6.9171273725063713 -0.66913061440640931 0 0.74314481823134659 0.74314481823134659 0 0.66913061440640931 forward_v I I I I #
loop $-1 $-1 $455 $111 #
coedge $-1 $286 $286 $287 $456 reversed $177 $-1 #
coedge $-1 $287 $287 $286 $456 forward $179 $-1 #
coedge $-1 $288 $288 $180 $289 forward $283 $-1 #
edge $-1 $457 0 $457 6.2831853071796004 $288 $458 forward 7 unknown #
loop $-1 $-1 $295 $181 #
plane-surface $-1 -65.800347911008032 -22.456714172053104 6.9171273725063713 -0.66913061440640931 0 0.74314481823134659 0.74314481823134659 0 0.66913061440640931 forward_v I I I I #
loop $-1 $-1 $459 $114 #
coedge $-1 $293 $293 $294 $460 reversed $182 $-1 #
coedge $-1 $294 $294 $293 $460 forward $184 $-1 #
coedge $-1 $295 $295 $185 $296 forward $290 $-1 #
edge $-1 $461 0 $461 6.2831853071796004 $295 $462 forward 7 unknown #
loop $-1 $-1 $302 $186 #
plane-surface $-1 -65.800347911008032 -22.456714172053104 6.9171273725063713 -0.66913061440640931 0 0.74314481823134659 0.74314481823134659 0 0.66913061440640931 forward_v I I I I #
loop $-1 $-1 $463 $117 #
coedge $-1 $300 $300 $301 $464 reversed $187 $-1 #
coedge $-1 $301 $301 $300 $464 forward $189 $-1 #
coedge $-1 $302 $302 $190 $303 forward $297 $-1 #
edge $-1 $465 0 $465 6.2831853071796004 $302 $466 forward 7 unknown #
face $-1 $467 $468 $68 $-1 $469 forward single #
loop $-1 $-1 $470 $191 #
plane-surface $-1 -153.85840236270462 -3.1244047230802536 104.71550254827723 0 -1 0 0.66913061440640931 0 -0.74314481823134659 forward_v I I I I #
coedge $-1 $471 $472 $473 $474 reversed $192 $-1 #
coedge $-1 $309 $194 $475 $476 reversed $121 $-1 #
coedge $-1 $194 $308 $471 $477 reversed $121 $-1 #
coedge $-1 $473 $478 $194 $311 forward $468 $-1 #
edge $-1 $479 11.12885327034428 $480 15.356830842698869 $310 $481 forward 7 unknown #
loop $-1 $-1 $317 $195 #
plane-surface $-1 -65.800347911008032 -7.4855713906843704 6.9171273725063713 -0.66913061440640931 0 0.74314481823134659 0.74314481823134659 0 0.66913061440640931 forward_v I I I I #
loop $-1 $-1 $482 $123 #
coedge $-1 $315 $315 $316 $483 reversed $196 $-1 #
coedge $-1 $316 $316 $315 $483 forward $198 $-1 #
coedge $-1 $317 $317 $199 $318 forward $312 $-1 #
edge $-1 $484 0 $484 6.2831853071796004 $317 $485 forward 7 unknown #
loop $-1 $-1 $324 $200 #
plane-surface $-1 -65.800347911008032 -7.4855713906843704 6.9171273725063713 -0.66913061440640931 0 0.74314481823134659 0.74314481823134659 0 0.66913061440640931 forward_v I I I I #
loop $-1 $-1 $486 $126 #
coedge $-1 $322 $322 $323 $487 reversed $201 $-1 #
coedge $-1 $323 $323 $322 $487 forward $203 $-1 #
coedge $-1 $324 $324 $204 $325 forward $319 $-1 #
edge $-1 $488 0 $488 6.2831853071796004 $324 $489 forward 7 unknown #
loop $-1 $-1 $331 $205 #
plane-surface $-1 -65.800347911008032 -7.4855713906843704 6.9171273725063713 -0.66913061440640931 0 0.74314481823134659 0.74314481823134659 0 0.66913061440640931 forward_v I I I I #
loop $-1 $-1 $490 $129 #
coedge $-1 $329 $329 $330 $491 reversed $206 $-1 #
coedge $-1 $330 $330 $329 $491 forward $208 $-1 #
coedge $-1 $331 $331 $209 $332 forward $326 $-1 #
edge $-1 $492 0 $492 6.2831853071796004 $331 $493 forward 7 unknown #
face $-1 $494 $495 $72 $-1 $496 forward single #
loop $-1 $-1 $497 $210 #
plane-surface $-1 -153.85840236270462 11.84673805828848 104.71550254827723 0 -1 0 0.66913061440640931 0 -0.74314481823134659 forward_v I I I I #
coedge $-1 $498 $499 $500 $501 reversed $211 $-1 #
coedge $-1 $338 $213 $502 $503 reversed $133 $-1 #
coedge $-1 $213 $337 $498 $504 reversed $133 $-1 #
coedge $-1 $500 $505 $213 $340 forward $495 $-1 #
edge $-1 $506 11.12885327034428 $507 15.356830842698869 $339 $508 forward 7 unknown #
loop $-1 $-1 $346 $214 #
plane-surface $-1 -65.800347911008032 7.4855713906843633 6.9171273725063713 -0.66913061440640931 0 0.74314481823134659 0.74314481823134659 0 0.66913061440640931 forward_v I I I I #
loop $-1 $-1 $509 $135 #
coedge $-1 $344 $344 $345 $510 reversed $215 $-1 #
coedge $-1 $345 $345 $344 $510 forward $217 $-1 #
coedge $-1 $346 $346 $218 $347 forward $341 $-1 #
edge $-1 $511 0 $511 6.2831853071796004 $346 $512 forward 7 unknown #
loop $-1 $-1 $353 $219 #
plane-surface $-1 -65.800347911008032 7.4855713906843633 6.9171273725063713 -0.66913061440640931 0 0.74314481823134659 0.74314481823134659 0 0.66913061440640931 forward_v I I I I #
loop $-1 $-1 $513 $138 #
coedge $-1 $351 $351 $352 $514 reversed $220 $-1 #
coedge $-1 $352 $352 $351 $514 forward $222 $-1 #
coedge $-1 $353 $353 $223 $354 forward $348 $-1 #
edge $-1 $515 0 $515 6.2831853071796004 $353 $516 forward 7 unknown #
loop $-1 $-1 $360 $224 #
plane-surface $-1 -65.800347911008032 7.4855713906843633 6.9171273725063713 -0.66913061440640931 0 0.74314481823134659 0.74314481823134659 0 0.66913061440640931 forward_v I I I I #
loop $-1 $-1 $517 $141 #
coedge $-1 $358 $358 $359 $518 reversed $225 $-1 #
coedge $-1 $359 $359 $358 $518 forward $227 $-1 #
coedge $-1 $360 $360 $228 $361 forward $355 $-1 #
edge $-1 $519 0 $519 6.2831853071796004 $360 $520 forward 7 unknown #
face $-1 $521 $522 $76 $-1 $523 forward single #
loop $-1 $-1 $524 $229 #
plane-surface $-1 -153.85840236270462 26.817880839657214 104.71550254827723 0 -1 0 0.66913061440640931 0 -0.74314481823134659 forward_v I I I I #
coedge $-1 $525 $526 $527 $528 reversed $230 $-1 #
coedge $-1 $367 $232 $529 $530 reversed $145 $-1 #
coedge $-1 $232 $366 $525 $531 reversed $145 $-1 #
coedge $-1 $527 $532 $232 $369 forward $522 $-1 #
edge $-1 $533 11.12885327034428 $534 15.356830842698869 $368 $535 forward 7 unknown #
loop $-1 $-1 $375 $233 #
plane-surface $-1 -65.800347911008032 22.456714172053097 6.9171273725063713 -0.66913061440640931 0 0.74314481823134659 0.74314481823134659 0 0.66913061440640931 forward_v I I I I #
loop $-1 $-1 $536 $147 #
coedge $-1 $373 $373 $374 $537 reversed $234 $-1 #
coedge $-1 $374 $374 $373 $537 forward $236 $-1 #
coedge $-1 $375 $375 $237 $376 forward $370 $-1 #
edge $-1 $538 0 $538 6.2831853071796004 $375 $539 forward 7 unknown #
loop $-1 $-1 $382 $238 #
plane-surface $-1 -65.800347911008032 22.456714172053097 6.9171273725063713 -0.66913061440640931 0 0.74314481823134659 0.74314481823134659 0 0.66913061440640931 forward_v I I I I #
loop $-1 $-1 $540 $150 #
coedge $-1 $380 $380 $381 $541 reversed $239 $-1 #
coedge $-1 $381 $381 $380 $541 forward $241 $-1 #
coedge $-1 $382 $382 $242 $383 forward $377 $-1 #
edge $-1 $542 0 $542 6.2831853071796004 $382 $543 forward 7 unknown #
loop $-1 $-1 $389 $243 #
plane-surface $-1 -65.800347911008032 22.456714172053097 6.9171273725063713 -0.66913061440640931 0 0.74314481823134659 0.74314481823134659 0 0.66913061440640931 forward_v I I I I #
loop $-1 $-1 $544 $153 #
coedge $-1 $387 $387 $388 $545 reversed $244 $-1 #
coedge $-1 $388 $388 $387 $545 forward $246 $-1 #
coedge $-1 $389 $389 $247 $390 forward $384 $-1 #
edge $-1 $546 0 $546 6.2831853071796004 $389 $547 forward 7 unknown #
face $-1 $548 $549 $80 $-1 $550 forward single #
loop $-1 $-1 $551 $248 #
plane-surface $-1 110.82479483336425 16.16885305481425 185.44572597565374 0 1 0 0.85716730853699208 0 0.51503806187062418 forward_v I I I I #
coedge $-1 $552 $553 $554 $555 reversed $249 $-1 #
coedge $-1 $396 $251 $556 $557 reversed $157 $-1 #
coedge $-1 $251 $395 $552 $558 reversed $157 $-1 #
coedge $-1 $554 $559 $251 $398 forward $549 $-1 #
edge $-1 $560 -10.387950494325906 $561 -6.8660234372171516 $397 $562 forward 7 unknown #
loop $-1 $-1 $404 $252 #
plane-surface $-1 -1.9790194059886375 22.004027896621828 117.66635865865705 0.85716730853699208 0 0.51503806187062418 0.51503806187062418 0 -0.85716730853699208 forward_v I I I I #
loop $-1 $-1 $563 $159 #
coedge $-1 $402 $402 $403 $564 reversed $253 $-1 #
coedge $-1 $403 $403 $402 $564 forward $255 $-1 #
coedge $-1 $404 $404 $256 $405 forward $399 $-1 #
edge $-1 $565 0 $565 6.2831853071796004 $404 $566 forward 7 unknown #
loop $-1 $-1 $411 $257 #
plane-surface $-1 -1.9790194059886375 22.004027896621828 117.66635865865705 0.85716730853699208 0 0.51503806187062418 0.51503806187062418 0 -0.85716730853699208 forward_v I I I I #
loop $-1 $-1 $567 $162 #
coedge $-1 $409 $409 $410 $568 reversed $258 $-1 #
coedge $-1 $410 $410 $409 $568 forward $260 $-1 #
coedge $-1 $411 $411 $261 $412 forward $406 $-1 #
edge $-1 $569 0 $569 6.2831853071796004 $411 $570 forward 7 unknown #
loop $-1 $-1 $418 $262 #
plane-surface $-1 -1.9790194059886375 22.004027896621828 117.66635865865705 0.85716730853699208 0 0.51503806187062418 0.51503806187062418 0 -0.85716730853699208 forward_v I I I I #
loop $-1 $-1 $571 $165 #
coedge $-1 $416 $416 $417 $572 reversed $263 $-1 #
coedge $-1 $417 $417 $416 $572 forward $265 $-1 #
coedge $-1 $418 $418 $266 $419 forward $413 $-1 #
edge $-1 $573 0 $573 6.2831853071796004 $418 $574 forward 7 unknown #
face $-1 $575 $576 $63 $-1 $577 reversed single #
loop $-1 $-1 $578 $267 #
plane-surface $-1 -65.800347911008032 0 0 1 0 0 0 0 -1 forward_v I I I I #
coedge $-1 $579 $431 $580 $581 forward $268 $-1 #
coedge $-1 $582 $270 $579 $583 forward $169 $-1 #
coedge $-1 $270 $582 $584 $585 forward $169 $-1 #
coedge $-1 $434 $433 $270 $427 reversed $435 $-1 #
edge $-1 $586 -36.191095008897975 $587 36.191095008897975 $426 $588 forward 7 unknown #
coedge $-1 $272 $271 $589 $590 forward $106 $-1 #
coedge $-1 $591 $592 $271 $430 reversed $576 $-1 #
edge $-1 $437 -65.800347911008032 $593 65.800347911008032 $429 $594 forward 7 unknown #
coedge $-1 $423 $595 $272 $432 reversed $268 $-1 #
edge $-1 $596 -65.800347911008032 $436 65.800347911008032 $431 $597 forward 7 unknown #
coedge $-1 $426 $273 $595 $598 forward $435 $-1 #
coedge $-1 $273 $426 $591 $599 reversed $435 $-1 #
loop $-1 $-1 $433 $575 #
vertex $-1 $274 $600 #
vertex $-1 $274 $601 #
straight-curve $-1 65.800347911008032 0 10.724015560759117 0 1 0 I I #
face $-1 $-1 $451 $64 $-1 $602 forward single #
loop $-1 $-1 $603 $275 #
plane-surface $-1 -65.800347911008032 0 0 1 0 0 0 0 -1 forward_v I I I I #
coedge $-1 $604 $605 $606 $607 reversed $276 $-1 #
coedge $-1 $608 $278 $280 $449 forward $173 $-1 #
coedge $-1 $278 $608 $604 $609 forward $173 $-1 #
coedge $-1 $606 $281 $278 $446 forward $451 $-1 #
edge $-1 $453 -15.589523753630669 $610 -6.8671904184224353 $445 $611 forward 7 unknown #
coedge $-1 $612 $613 $279 $448 forward $440 $-1 #
edge $-1 $614 -45.440623901632243 $452 -41.633735713379494 $447 $615 forward 7 unknown #
edge $-1 $453 -5.6893050568757237 $614 0 $280 $616 forward 7 unknown #
coedge $-1 $281 $606 $612 $617 forward $451 $-1 #
loop $-1 $-1 $606 $439 #
vertex $-1 $448 $618 #
vertex $-1 $282 $619 #
straight-curve $-1 -76.929201181352312 -26.817880839657221 10.724015560759121 1 0 0 I I #
coedge $-1 $455 $455 $-1 $620 reversed $285 $-1 #
edge $-1 $621 0 $621 6.2831853071796004 $286 $622 forward 7 unknown #
vertex $-1 $289 $623 #
ellipse-curve $-1 -63.686359124830737 -25.073414172615575 8.8205714666327424 -0.66913061440640931 0 0.74314481823134659 0.18578620455783665 0 0.16728265360160233 1 I I #
coedge $-1 $459 $459 $-1 $624 reversed $292 $-1 #
edge $-1 $625 0 $625 6.2831853071796004 $293 $626 forward 7 unknown #
vertex $-1 $296 $627 #
ellipse-curve $-1 -63.686359124830737 -22.456714172053104 8.8205714666327424 -0.66913061440640931 0 0.74314481823134659 0.18578620455783665 0 0.16728265360160233 1 I I #
coedge $-1 $463 $463 $-1 $628 reversed $299 $-1 #
edge $-1 $629 0 $629 6.2831853071796004 $300 $630 forward 7 unknown #
vertex $-1 $303 $631 #
ellipse-curve $-1 -63.686359124830737 -19.840014171490633 8.8205714666327424 -0.66913061440640931 0 0.74314481823134659 0.18578620455783665 0 0.16728265360160233 1 I I #
face $-1 $-1 $632 $68 $-1 $633 reversed single #
loop $-1 $-1 $310 $304 #
plane-surface $-1 0 0 10.724015560759117 0 0 1 1 0 0 forward_v I I I I #
coedge $-1 $634 $635 $636 $637 reversed $305 $-1 #
coedge $-1 $638 $307 $309 $477 forward $192 $-1 #
coedge $-1 $307 $638 $634 $639 forward $192 $-1 #
coedge $-1 $636 $310 $307 $474 forward $468 $-1 #
edge $-1 $480 -8.1039523629463019 $640 0.61838097226193156 $473 $641 forward 7 unknown #
coedge $-1 $642 $643 $308 $476 forward $632 $-1 #
edge $-1 $644 -45.440623901632243 $479 -41.633735713379494 $475 $645 forward 7 unknown #
edge $-1 $480 -5.6893050568757237 $644 0 $309 $646 forward 7 unknown #
coedge $-1 $310 $636 $642 $647 forward $468 $-1 #
vertex $-1 $311 $648 #
vertex $-1 $311 $649 #
straight-curve $-1 -76.929201181352312 -11.846738058288487 10.724015560759121 1 0 0 I I #
coedge $-1 $482 $482 $-1 $650 reversed $314 $-1 #
edge $-1 $651 0 $651 6.2831853071796004 $315 $652 forward 7 unknown #
vertex $-1 $318 $653 #
ellipse-curve $-1 -63.686359124830737 -10.102271391246838 8.8205714666327424 -0.66913061440640931 0 0.74314481823134659 0.18578620455783665 0 0.16728265360160233 1 I I #
coedge $-1 $486 $486 $-1 $654 reversed $321 $-1 #
edge $-1 $655 0 $655 6.2831853071796004 $322 $656 forward 7 unknown #
vertex $-1 $325 $657 #
ellipse-curve $-1 -63.686359124830737 -7.4855713906843704 8.8205714666327424 -0.66913061440640931 0 0.74314481823134659 0.18578620455783665 0 0.16728265360160233 1 I I #
coedge $-1 $490 $490 $-1 $658 reversed $328 $-1 #
edge $-1 $659 0 $659 6.2831853071796004 $329 $660 forward 7 unknown #
vertex $-1 $332 $661 #
ellipse-curve $-1 -63.686359124830737 -4.8688713901218961 8.8205714666327424 -0.66913061440640931 0 0.74314481823134659 0.18578620455783665 0 0.16728265360160233 1 I I #
face $-1 $-1 $662 $72 $-1 $663 reversed single #
loop $-1 $-1 $339 $333 #
plane-surface $-1 0 0 10.724015560759117 0 0 1 1 0 0 forward_v I I I I #
coedge $-1 $664 $665 $666 $667 reversed $334 $-1 #
coedge $-1 $668 $336 $338 $504 forward $211 $-1 #
coedge $-1 $336 $668 $664 $669 forward $211 $-1 #
coedge $-1 $666 $339 $336 $501 forward $495 $-1 #
edge $-1 $507 -0.61838097226193511 $670 8.1039523629462984 $500 $671 forward 7 unknown #
coedge $-1 $672 $673 $337 $503 forward $662 $-1 #
edge $-1 $674 -45.440623901632243 $506 -41.633735713379494 $502 $675 forward 7 unknown #
edge $-1 $507 -5.6893050568757237 $674 0 $338 $676 forward 7 unknown #
coedge $-1 $339 $666 $672 $677 forward $495 $-1 #
vertex $-1 $340 $678 #
vertex $-1 $340 $679 #
straight-curve $-1 -76.929201181352312 3.1244047230802465 10.724015560759121 1 0 0 I I #
coedge $-1 $509 $509 $-1 $680 reversed $343 $-1 #
edge $-1 $681 0 $681 6.2831853071796004 $344 $682 forward 7 unknown #
vertex $-1 $347 $683 #
ellipse-curve $-1 -63.686359124830737 4.8688713901218961 8.8205714666327424 -0.66913061440640931 0 0.74314481823134659 0.18578620455783665 0 0.16728265360160233 1 I I #
coedge $-1 $513 $513 $-1 $684 reversed $350 $-1 #
edge $-1 $685 0 $685 6.2831853071796004 $351 $686 forward 7 unknown #
vertex $-1 $354 $687 #
ellipse-curve $-1 -63.686359124830737 7.4855713906843633 8.8205714666327424 -0.66913061440640931 0 0.74314481823134659 0.18578620455783665 0 0.16728265360160233 1 I I #
coedge $-1 $517 $517 $-1 $688 reversed $357 $-1 #
edge $-1 $689 0 $689 6.2831853071796004 $358 $690 forward 7 unknown #
vertex $-1 $361 $691 #
ellipse-curve $-1 -63.686359124830737 10.102271391246838 8.8205714666327424 -0.66913061440640931 0 0.74314481823134659 0.18578620455783665 0 0.16728265360160233 1 I I #
face $-1 $-1 $692 $76 $-1 $693 reversed single #
loop $-1 $-1 $368 $362 #
plane-surface $-1 0 0 10.724015560759117 0 0 1 1 0 0 forward_v I I I I #
coedge $-1 $694 $695 $696 $697 reversed $363 $-1 #
coedge $-1 $698 $365 $367 $531 forward $230 $-1 #
coedge $-1 $365 $698 $694 $699 forward $230 $-1 #
coedge $-1 $696 $368 $365 $528 forward $522 $-1 #
edge $-1 $534 6.8671904184224317 $700 15.589523753630665 $527 $701 forward 7 unknown #
coedge $-1 $702 $703 $366 $530 forward $692 $-1 #
edge $-1 $704 -45.440623901632243 $533 -41.633735713379494 $529 $705 forward 7 unknown #
edge $-1 $534 -5.6893050568757237 $704 0 $367 $706 forward 7 unknown #
coedge $-1 $368 $696 $702 $707 forward $522 $-1 #
vertex $-1 $369 $708 #
vertex $-1 $369 $709 #
straight-curve $-1 -76.929201181352312 18.09554750444898 10.724015560759121 1 0 0 I I #
coedge $-1 $536 $536 $-1 $710 reversed $372 $-1 #
edge $-1 $711 0 $711 6.2831853071796004 $373 $712 forward 7 unknown #
vertex $-1 $376 $713 #
ellipse-curve $-1 -63.686359124830737 19.84001417149063 8.8205714666327424 -0.66913061440640931 0 0.74314481823134659 0.18578620455783665 0 0.16728265360160233 1 I I #
coedge $-1 $540 $540 $-1 $714 reversed $379 $-1 #
edge $-1 $715 0 $715 6.2831853071796004 $380 $716 forward 7 unknown #
vertex $-1 $383 $717 #
ellipse-curve $-1 -63.686359124830737 22.456714172053097 8.8205714666327424 -0.66913061440640931 0 0.74314481823134659 0.18578620455783665 0 0.16728265360160233 1 I I #
coedge $-1 $544 $544 $-1 $718 reversed $386 $-1 #
edge $-1 $719 0 $719 6.2831853071796004 $387 $720 forward 7 unknown #
vertex $-1 $390 $721 #
ellipse-curve $-1 -63.686359124830737 25.073414172615571 8.8205714666327424 -0.66913061440640931 0 0.74314481823134659 0.18578620455783665 0 0.16728265360160233 1 I I #
face $-1 $-1 $722 $80 $-1 $723 reversed single #
loop $-1 $-1 $397 $391 #
plane-surface $-1 0 0 10.724015560759117 0 0 1 1 0 0 forward_v I I I I #
coedge $-1 $724 $725 $726 $727 reversed $392 $-1 #
coedge $-1 $728 $394 $396 $558 forward $249 $-1 #
coedge $-1 $394 $728 $724 $729 forward $249 $-1 #
coedge $-1 $726 $397 $394 $555 forward $549 $-1 #
edge $-1 $561 -16.837188790118493 $730 -5.1668391065033354 $554 $731 forward 7 unknown #
coedge $-1 $732 $733 $395 $557 forward $722 $-1 #
edge $-1 $734 -87.860318568522658 $560 -81.998847427067759 $556 $735 forward 7 unknown #
edge $-1 $561 124.76250789408486 $734 131.60069582201604 $396 $736 forward 7 unknown #
coedge $-1 $397 $726 $732 $737 forward $549 $-1 #
vertex $-1 $557 $738 #
vertex $-1 $398 $739 #
straight-curve $-1 55.412397416682126 27.839202738429407 10.724015560759113 -1 0 0 I I #
coedge $-1 $563 $563 $-1 $740 reversed $401 $-1 #
edge $-1 $741 0 $741 6.2831853071796004 $402 $742 forward 7 unknown #
vertex $-1 $405 $743 #
ellipse-curve $-1 64.039384382453648 18.502922991537282 7.7932799900316612 0.85716730853699208 0 0.51503806187062418 0.25751903093531209 0 -0.42858365426849604 1 I I #
coedge $-1 $567 $567 $-1 $744 reversed $408 $-1 #
edge $-1 $745 0 $745 6.2831853071796004 $409 $746 forward 7 unknown #
vertex $-1 $412 $747 #
ellipse-curve $-1 64.039384382453648 22.004027896621828 7.7932799900316612 0.85716730853699208 0 0.51503806187062418 0.25751903093531209 0 -0.42858365426849604 1 I I #
coedge $-1 $571 $571 $-1 $748 reversed $415 $-1 #
edge $-1 $749 0 $749 6.2831853071796004 $416 $750 forward 7 unknown #
vertex $-1 $419 $751 #
ellipse-curve $-1 64.039384382453648 25.505132801706374 7.7932799900316612 0.85716730853699208 0 0.51503806187062418 0.25751903093531209 0 -0.42858365426849604 1 I I #
face $-1 $-1 $435 $63 $-1 $752 reversed single #
loop $-1 $-1 $591 $420 #
plane-surface $-1 0 36.191095008897975 0 0 -1 0 0 0 -1 forward_v I I I I #
coedge $-1 $753 $589 $592 $754 forward $421 $-1 #
coedge $-1 $595 $423 $424 $583 reversed $268 $-1 #
coedge $-1 $589 $753 $423 $581 reversed $421 $-1 #
edge $-1 $596 -10.724015560759117 $755 10.724015560759117 $580 $756 forward 7 unknown #
coedge $-1 $425 $424 $753 $757 forward $169 $-1 #
edge $-1 $587 -65.800347911008032 $755 65.800347911008032 $579 $758 forward 7 unknown #
coedge $-1 $592 $591 $425 $585 reversed $576 $-1 #
edge $-1 $759 -65.800347911008032 $586 65.800347911008032 $584 $760 forward 7 unknown #
vertex $-1 $427 $761 #
vertex $-1 $598 $762 #
straight-curve $-1 65.800347911008032 0 -10.724015560759117 0 -1 0 I I #
coedge $-1 $578 $580 $428 $590 reversed $421 $-1 #
edge $-1 $593 -36.191095008897975 $596 36.191095008897975 $589 $763 forward 7 unknown #
coedge $-1 $584 $429 $434 $599 forward $576 $-1 #
coedge $-1 $429 $584 $578 $754 reversed $576 $-1 #
vertex $-1 $430 $764 #
straight-curve $-1 0 36.191095008897975 10.724015560759117 -1 0 0 I I #
coedge $-1 $431 $579 $433 $598 reversed $268 $-1 #
vertex $-1 $590 $765 #
straight-curve $-1 0 -36.191095008897975 10.724015560759117 1 0 0 I I #
edge $-1 $436 -10.724015560759117 $587 10.724015560759117 $433 $766 forward 7 unknown #
edge $-1 $437 -10.724015560759117 $586 10.724015560759117 $434 $767 forward 7 unknown #
point $-1 65.800347911008032 -36.191095008897975 10.724015560759117 #
point $-1 65.800347911008032 36.191095008897975 10.724015560759117 #
plane-surface $-1 0 0 10.724015560759117 0 0 1 1 0 0 forward_v I I I I #
coedge $-1 $613 $612 $605 $768 forward $440 $-1 #
coedge $-1 $605 $442 $444 $609 reversed $276 $-1 #
coedge $-1 $442 $604 $603 $768 reversed $276 $-1 #
coedge $-1 $450 $445 $442 $607 forward $451 $-1 #
edge $-1 $610 -15.356830842698869 $769 -11.12885327034428 $606 $770 forward 7 unknown #
coedge $-1 $444 $443 $613 $771 reversed $173 $-1 #
edge $-1 $772 0 $610 5.6893050568757237 $604 $773 forward 7 unknown #
vertex $-1 $446 $774 #
straight-curve $-1 -61.572370338653442 -11.228357086026552 10.724015560759113 0 1 0 I I #
coedge $-1 $603 $447 $450 $617 reversed $440 $-1 #
coedge $-1 $447 $603 $608 $771 forward $440 $-1 #
vertex $-1 $448 $775 #
straight-curve $-1 -65.800347911008032 -26.817880839657221 52.357751274138614 0 0 1 I I #
straight-curve $-1 -65.800347911008032 -26.817880839657221 6.9171273725063713 -0.74314481823134659 0 -0.66913061440640931 I I #
edge $-1 $769 18.095547504448987 $452 26.817880839657221 $612 $776 forward 7 unknown #
point $-1 -65.800347911008032 -26.817880839657221 10.724015560759117 #
point $-1 -61.572370338653442 -26.817880839657221 10.724015560759117 #
edge $-1 $777 1 $777 0 $455 $-1 forward 7 unknown #
vertex $-1 $456 $778 #
ellipse-curve $-1 -63.017228510424317 -25.073414172615575 8.077426648401385 -0.66913061440640931 0 0.74314481823134659 0.18578620455783665 0 0.16728265360160233 1 I I #
point $-1 -63.500572920272887 -25.073414172615575 8.9878541202343349 #
edge $-1 $779 1 $779 0 $459 $-1 forward 7 unknown #
vertex $-1 $460 $780 #
ellipse-curve $-1 -63.017228510424317 -22.456714172053104 8.077426648401385 -0.66913061440640931 0 0.74314481823134659 0.18578620455783665 0 0.16728265360160233 1 I I #
point $-1 -63.500572920272887 -22.456714172053104 8.9878541202343349 #
edge $-1 $781 1 $781 0 $463 $-1 forward 7 unknown #
vertex $-1 $464 $782 #
ellipse-curve $-1 -63.017228510424317 -19.840014171490633 8.077426648401385 -0.66913061440640931 0 0.74314481823134659 0.18578620455783665 0 0.16728265360160233 1 I I #
point $-1 -63.500572920272887 -19.840014171490633 8.9878541202343349 #
loop $-1 $-1 $475 $467 #
plane-surface $-1 -65.800347911008032 0 0 1 0 0 0 0 -1 forward_v I I I I #
coedge $-1 $635 $470 $472 $639 reversed $305 $-1 #
coedge $-1 $470 $634 $783 $784 reversed $305 $-1 #
coedge $-1 $478 $473 $470 $637 forward $468 $-1 #
edge $-1 $640 -15.356830842698869 $785 -11.12885327034428 $636 $786 forward 7 unknown #
coedge $-1 $472 $471 $643 $787 reversed $192 $-1 #
edge $-1 $788 0 $640 5.6893050568757237 $634 $789 forward 7 unknown #
vertex $-1 $474 $790 #
straight-curve $-1 -61.572370338653442 -3.7427856953421852 10.724015560759113 0 1 0 I I #
coedge $-1 $783 $475 $478 $647 reversed $632 $-1 #
coedge $-1 $475 $783 $638 $787 forward $632 $-1 #
vertex $-1 $476 $791 #
straight-curve $-1 -65.800347911008032 -11.846738058288487 52.357751274138614 0 0 1 I I #
straight-curve $-1 -65.800347911008032 -11.846738058288487 6.9171273725063713 -0.74314481823134659 0 -0.66913061440640931 I I #
edge $-1 $785 3.1244047230802536 $479 11.846738058288487 $642 $792 forward 7 unknown #
point $-1 -65.800347911008032 -11.846738058288487 10.724015560759117 #
point $-1 -61.572370338653442 -11.846738058288487 10.724015560759117 #
edge $-1 $793 1 $793 0 $482 $-1 forward 7 unknown #
vertex $-1 $483 $794 #
ellipse-curve $-1 -63.017228510424317 -10.102271391246838 8.077426648401385 -0.66913061440640931 0 0.74314481823134659 0.18578620455783665 0 0.16728265360160233 1 I I #
point $-1 -63.500572920272887 -10.102271391246838 8.9878541202343349 #
edge $-1 $795 1 $795 0 $486 $-1 forward 7 unknown #
vertex $-1 $487 $796 #
ellipse-curve $-1 -63.017228510424317 -7.4855713906843704 8.077426648401385 -0.66913061440640931 0 0.74314481823134659 0.18578620455783665 0 0.16728265360160233 1 I I #
point $-1 -63.500572920272887 -7.4855713906843704 8.9878541202343349 #
edge $-1 $797 1 $797 0 $490 $-1 forward 7 unknown #
vertex $-1 $491 $798 #
ellipse-curve $-1 -63.017228510424317 -4.8688713901218961 8.077426648401385 -0.66913061440640931 0 0.74314481823134659 0.18578620455783665 0 0.16728265360160233 1 I I #
point $-1 -63.500572920272887 -4.8688713901218961 8.9878541202343349 #
loop $-1 $-1 $502 $494 #
plane-surface $-1 -65.800347911008032 0 0 1 0 0 0 0 -1 forward_v I I I I #
coedge $-1 $665 $497 $499 $669 reversed $334 $-1 #
coedge $-1 $497 $664 $799 $800 reversed $334 $-1 #
coedge $-1 $505 $500 $497 $667 forward $495 $-1 #
edge $-1 $670 -15.356830842698869 $801 -11.12885327034428 $666 $802 forward 7 unknown #
coedge $-1 $499 $498 $673 $803 reversed $211 $-1 #
edge $-1 $804 0 $670 5.6893050568757237 $664 $805 forward 7 unknown #
vertex $-1 $501 $806 #
straight-curve $-1 -61.572370338653442 3.7427856953421816 10.724015560759113 0 1 0 I I #
coedge $-1 $799 $502 $505 $677 reversed $662 $-1 #
coedge $-1 $502 $799 $668 $803 forward $662 $-1 #
vertex $-1 $503 $807 #
straight-curve $-1 -65.800347911008032 3.1244047230802465 52.357751274138614 0 0 1 I I #
straight-curve $-1 -65.800347911008032 3.1244047230802465 6.9171273725063713 -0.74314481823134659 0 -0.66913061440640931 I I #
edge $-1 $801 -11.84673805828848 $506 -3.1244047230802465 $672 $808 forward 7 unknown #
point $-1 -65.800347911008032 3.1244047230802465 10.724015560759117 #
point $-1 -61.572370338653442 3.1244047230802465 10.724015560759117 #
edge $-1 $809 1 $809 0 $509 $-1 forward 7 unknown #
vertex $-1 $510 $810 #
ellipse-curve $-1 -63.017228510424317 4.8688713901218961 8.077426648401385 -0.66913061440640931 0 0.74314481823134659 0.18578620455783665 0 0.16728265360160233 1 I I #
point $-1 -63.500572920272887 4.8688713901218961 8.9878541202343349 #
edge $-1 $811 1 $811 0 $513 $-1 forward 7 unknown #
vertex $-1 $514 $812 #
ellipse-curve $-1 -63.017228510424317 7.4855713906843633 8.077426648401385 -0.66913061440640931 0 0.74314481823134659 0.18578620455783665 0 0.16728265360160233 1 I I #
point $-1 -63.500572920272887 7.4855713906843633 8.9878541202343349 #
edge $-1 $813 1 $813 0 $517 $-1 forward 7 unknown #
vertex $-1 $518 $814 #
ellipse-curve $-1 -63.017228510424317 10.102271391246838 8.077426648401385 -0.66913061440640931 0 0.74314481823134659 0.18578620455783665 0 0.16728265360160233 1 I I #
point $-1 -63.500572920272887 10.102271391246838 8.9878541202343349 #
loop $-1 $-1 $529 $521 #
plane-surface $-1 -65.800347911008032 0 0 1 0 0 0 0 -1 forward_v I I I I #
coedge $-1 $695 $524 $526 $699 reversed $363 $-1 #
coedge $-1 $524 $694 $815 $816 reversed $363 $-1 #
coedge $-1 $532 $527 $524 $697 forward $522 $-1 #
edge $-1 $700 -15.356830842698869 $817 -11.12885327034428 $696 $818 forward 7 unknown #
coedge $-1 $526 $525 $703 $819 reversed $230 $-1 #
edge $-1 $820 0 $700 5.6893050568757237 $694 $821 forward 7 unknown #
vertex $-1 $528 $822 #
straight-curve $-1 -61.572370338653442 11.228357086026548 10.724015560759113 0 1 0 I I #
coedge $-1 $815 $529 $532 $707 reversed $692 $-1 #
coedge $-1 $529 $815 $698 $819 forward $692 $-1 #
vertex $-1 $530 $823 #
straight-curve $-1 -65.800347911008032 18.09554750444898 52.357751274138614 0 0 1 I I #
straight-curve $-1 -65.800347911008032 18.09554750444898 6.9171273725063713 -0.74314481823134659 0 -0.66913061440640931 I I #
edge $-1 $817 -26.817880839657214 $533 -18.09554750444898 $702 $824 forward 7 unknown #
point $-1 -65.800347911008032 18.09554750444898 10.724015560759117 #
point $-1 -61.572370338653442 18.09554750444898 10.724015560759117 #
edge $-1 $825 1 $825 0 $536 $-1 forward 7 unknown #
vertex $-1 $537 $826 #
ellipse-curve $-1 -63.017228510424317 19.84001417149063 8.077426648401385 -0.66913061440640931 0 0.74314481823134659 0.18578620455783665 0 0.16728265360160233 1 I I #
point $-1 -63.500572920272887 19.84001417149063 8.9878541202343349 #
edge $-1 $827 1 $827 0 $540 $-1 forward 7 unknown #
vertex $-1 $541 $828 #
ellipse-curve $-1 -63.017228510424317 22.456714172053097 8.077426648401385 -0.66913061440640931 0 0.74314481823134659 0.18578620455783665 0 0.16728265360160233 1 I I #
point $-1 -63.500572920272887 22.456714172053097 8.9878541202343349 #
edge $-1 $829 1 $829 0 $544 $-1 forward 7 unknown #
vertex $-1 $545 $830 #
ellipse-curve $-1 -63.017228510424317 25.073414172615571 8.077426648401385 -0.66913061440640931 0 0.74314481823134659 0.18578620455783665 0 0.16728265360160233 1 I I #
point $-1 -63.500572920272887 25.073414172615571 8.9878541202343349 #
loop $-1 $-1 $556 $548 #
plane-surface $-1 65.800347911008032 0 0 -1 0 0 0 0 1 forward_v I I I I #
coedge $-1 $725 $551 $553 $729 reversed $392 $-1 #
coedge $-1 $551 $724 $831 $832 reversed $392 $-1 #
coedge $-1 $559 $554 $551 $727 forward $549 $-1 #
edge $-1 $730 6.8660234372171516 $833 10.387950494325906 $726 $834 forward 7 unknown #
coedge $-1 $553 $552 $733 $835 reversed $249 $-1 #
edge $-1 $836 -131.60069582201604 $730 -124.76250789408486 $724 $837 forward 7 unknown #
vertex $-1 $555 $838 #
straight-curve $-1 62.278420853899263 11.002013948310914 10.724015560759113 0 -1 0 I I #
coedge $-1 $831 $556 $559 $737 reversed $722 $-1 #
coedge $-1 $556 $831 $728 $835 forward $722 $-1 #
vertex $-1 $557 $839 #
straight-curve $-1 65.800347911008032 27.839202738429407 92.722862987826872 0 0 1 I I #
straight-curve $-1 -1.9790194059886375 27.839202738429407 117.66635865865705 0.51503806187062418 0 -0.85716730853699208 I I #
edge $-1 $833 16.16885305481425 $560 27.839202738429407 $732 $840 forward 7 unknown #
point $-1 65.800347911008032 27.839202738429407 10.724015560759117 #
point $-1 62.278420853899277 27.839202738429407 10.724015560759113 #
edge $-1 $841 1 $841 0 $563 $-1 forward 7 unknown #
vertex $-1 $564 $842 #
ellipse-curve $-1 63.182217073916632 18.502922991537282 7.2782419281610258 0.85716730853699208 0 0.51503806187062418 0.25751903093531209 0 -0.42858365426849604 1 I I #
point $-1 64.296903413388932 18.502922991537282 7.3646963357631545 #
edge $-1 $843 1 $843 0 $567 $-1 forward 7 unknown #
vertex $-1 $568 $844 #
ellipse-curve $-1 63.182217073916632 22.004027896621828 7.2782419281610258 0.85716730853699208 0 0.51503806187062418 0.25751903093531209 0 -0.42858365426849604 1 I I #
point $-1 64.296903413388932 22.004027896621828 7.3646963357631545 #
edge $-1 $845 1 $845 0 $571 $-1 forward 7 unknown #
vertex $-1 $572 $846 #
ellipse-curve $-1 63.182217073916632 25.505132801706374 7.2782419281610258 0.85716730853699208 0 0.51503806187062418 0.25751903093531209 0 -0.42858365426849604 1 I I #
point $-1 64.296903413388932 25.505132801706374 7.3646963357631545 #
plane-surface $-1 65.800347911008032 0 0 -1 0 0 0 0 1 forward_v I I I I #
coedge $-1 $580 $578 $582 $757 reversed $421 $-1 #
edge $-1 $593 -10.724015560759117 $759 10.724015560759117 $592 $847 forward 7 unknown #
vertex $-1 $757 $848 #
straight-curve $-1 -65.800347911008032 -36.191095008897975 0 0 0 -1 I I #
edge $-1 $755 -36.191095008897975 $759 36.191095008897975 $753 $849 forward 7 unknown #
straight-curve $-1 0 -36.191095008897975 -10.724015560759117 -1 0 0 I I #
vertex $-1 $585 $850 #
straight-curve $-1 0 36.191095008897975 -10.724015560759117 1 0 0 I I #
point $-1 65.800347911008032 36.191095008897975 -10.724015560759117 #
point $-1 65.800347911008032 -36.191095008897975 -10.724015560759117 #
straight-curve $-1 -65.800347911008032 0 10.724015560759117 0 -1 0 I I #
point $-1 -65.800347911008032 36.191095008897975 10.724015560759117 #
point $-1 -65.800347911008032 -36.191095008897975 10.724015560759117 #
straight-curve $-1 65.800347911008032 -36.191095008897975 0 0 0 -1 I I #
straight-curve $-1 65.800347911008032 36.191095008897975 0 0 0 -1 I I #
edge $-1 $769 41.633735713379494 $772 45.440623901632243 $603 $851 forward 7 unknown #
vertex $-1 $617 $852 #
straight-curve $-1 -76.929201181352312 -18.095547504448987 10.724015560759121 -1 0 0 I I #
edge $-1 $772 6.8671904184224353 $614 15.589523753630669 $613 $853 forward 7 unknown #
vertex $-1 $771 $854 #
straight-curve $-1 -65.800347911008032 -18.095547504448987 6.9171273725063713 0.74314481823134659 0 0.66913061440640931 I I #
point $-1 -61.572370338653442 -18.095547504448987 10.724015560759117 #
point $-1 -65.800347911008032 -26.817880839657221 6.9171273725063713 #
straight-curve $-1 -65.800347911008032 0 10.724015560759117 0 -1 0 I I #
vertex $-1 $620 $855 #
point $-1 -62.831442305866481 -25.073414172615575 8.2447093020029882 #
vertex $-1 $624 $856 #
point $-1 -62.831442305866481 -22.456714172053104 8.2447093020029882 #
vertex $-1 $628 $857 #
point $-1 -62.831442305866481 -19.840014171490633 8.2447093020029882 #
coedge $-1 $643 $642 $635 $784 forward $632 $-1 #
edge $-1 $785 41.633735713379494 $788 45.440623901632243 $783 $858 forward 7 unknown #
vertex $-1 $647 $859 #
straight-curve $-1 -76.929201181352312 -3.1244047230802536 10.724015560759121 -1 0 0 I I #
edge $-1 $788 -0.61838097226193156 $644 8.1039523629463019 $643 $860 forward 7 unknown #
vertex $-1 $787 $861 #
straight-curve $-1 -65.800347911008032 -3.1244047230802536 6.9171273725063713 0.74314481823134659 0 0.66913061440640931 I I #
point $-1 -61.572370338653442 -3.1244047230802536 10.724015560759117 #
point $-1 -65.800347911008032 -11.846738058288487 6.9171273725063713 #
straight-curve $-1 -65.800347911008032 0 10.724015560759117 0 -1 0 I I #
vertex $-1 $650 $862 #
point $-1 -62.831442305866481 -10.102271391246838 8.2447093020029882 #
vertex $-1 $654 $863 #
point $-1 -62.831442305866481 -7.4855713906843704 8.2447093020029882 #
vertex $-1 $658 $864 #
point $-1 -62.831442305866481 -4.8688713901218961 8.2447093020029882 #
coedge $-1 $673 $672 $665 $800 forward $662 $-1 #
edge $-1 $801 41.633735713379494 $804 45.440623901632243 $799 $865 forward 7 unknown #
vertex $-1 $677 $866 #
straight-curve $-1 -76.929201181352312 11.84673805828848 10.724015560759121 -1 0 0 I I #
edge $-1 $804 -8.1039523629462984 $674 0.61838097226193511 $673 $867 forward 7 unknown #
vertex $-1 $803 $868 #
straight-curve $-1 -65.800347911008032 11.84673805828848 6.9171273725063713 0.74314481823134659 0 0.66913061440640931 I I #
point $-1 -61.572370338653442 11.84673805828848 10.724015560759117 #
point $-1 -65.800347911008032 3.1244047230802465 6.9171273725063713 #
straight-curve $-1 -65.800347911008032 0 10.724015560759117 0 -1 0 I I #
vertex $-1 $680 $869 #
point $-1 -62.831442305866481 4.8688713901218961 8.2447093020029882 #
vertex $-1 $684 $870 #
point $-1 -62.831442305866481 7.4855713906843633 8.2447093020029882 #
vertex $-1 $688 $871 #
point $-1 -62.831442305866481 10.102271391246838 8.2447093020029882 #
coedge $-1 $703 $702 $695 $816 forward $692 $-1 #
edge $-1 $817 41.633735713379494 $820 45.440623901632243 $815 $872 forward 7 unknown #
vertex $-1 $707 $873 #
straight-curve $-1 -76.929201181352312 26.817880839657214 10.724015560759121 -1 0 0 I I #
edge $-1 $820 -15.589523753630665 $704 -6.8671904184224317 $703 $874 forward 7 unknown #
vertex $-1 $819 $875 #
straight-curve $-1 -65.800347911008032 26.817880839657214 6.9171273725063713 0.74314481823134659 0 0.66913061440640931 I I #
point $-1 -61.572370338653442 26.817880839657214 10.724015560759117 #
point $-1 -65.800347911008032 18.09554750444898 6.9171273725063713 #
straight-curve $-1 -65.800347911008032 0 10.724015560759117 0 -1 0 I I #
vertex $-1 $710 $876 #
point $-1 -62.831442305866481 19.84001417149063 8.2447093020029882 #
vertex $-1 $714 $877 #
point $-1 -62.831442305866481 22.456714172053097 8.2447093020029882 #
vertex $-1 $718 $878 #
point $-1 -62.831442305866481 25.073414172615571 8.2447093020029882 #
coedge $-1 $733 $732 $725 $832 forward $722 $-1 #
edge $-1 $833 81.998847427067759 $836 87.860318568522658 $831 $879 forward 7 unknown #
vertex $-1 $737 $880 #
straight-curve $-1 55.412397416682126 16.16885305481425 10.724015560759113 1 0 0 I I #
edge $-1 $836 5.1668391065033354 $734 16.837188790118493 $733 $881 forward 7 unknown #
vertex $-1 $835 $882 #
straight-curve $-1 -1.9790194059886375 16.16885305481425 117.66635865865705 -0.51503806187062418 0 0.85716730853699208 I I #
point $-1 62.278420853899277 16.16885305481425 10.724015560759113 #
point $-1 65.800347911008032 27.839202738429407 4.8625444193042142 #
straight-curve $-1 65.800347911008032 0 10.724015560759117 0 1 0 I I #
vertex $-1 $740 $883 #
point $-1 63.439736104851946 18.502922991537282 6.8496582738925298 #
vertex $-1 $744 $884 #
point $-1 63.439736104851946 22.004027896621828 6.8496582738925298 #
vertex $-1 $748 $885 #
point $-1 63.439736104851946 25.505132801706374 6.8496582738925298 #
straight-curve $-1 -65.800347911008032 36.191095008897975 0 0 0 -1 I I #
point $-1 -65.800347911008032 -36.191095008897975 -10.724015560759117 #
straight-curve $-1 -65.800347911008032 0 -10.724015560759117 0 1 0 I I #
point $-1 -65.800347911008032 36.191095008897975 -10.724015560759117 #
straight-curve $-1 -65.800347911008032 -18.095547504448987 52.357751274138614 0 0 -1 I I #
point $-1 -65.800347911008032 -18.095547504448987 10.724015560759117 #
straight-curve $-1 -65.800347911008032 -11.228357086026552 6.9171273725063749 0 -1 0 I I #
point $-1 -65.800347911008032 -18.095547504448987 6.9171273725063713 #
point $-1 -62.849945856822714 -25.073414172615575 7.8916404438435492 #
point $-1 -62.849945856822714 -22.456714172053104 7.8916404438435492 #
point $-1 -62.849945856822714 -19.840014171490633 7.8916404438435492 #
straight-curve $-1 -65.800347911008032 -3.1244047230802536 52.357751274138614 0 0 -1 I I #
point $-1 -65.800347911008032 -3.1244047230802536 10.724015560759117 #
straight-curve $-1 -65.800347911008032 -3.7427856953421852 6.9171273725063749 0 -1 0 I I #
point $-1 -65.800347911008032 -3.1244047230802536 6.9171273725063713 #
point $-1 -62.849945856822714 -10.102271391246838 7.8916404438435492 #
point $-1 -62.849945856822714 -7.4855713906843704 7.8916404438435492 #
point $-1 -62.849945856822714 -4.8688713901218961 7.8916404438435492 #
straight-curve $-1 -65.800347911008032 11.84673805828848 52.357751274138614 0 0 -1 I I #
point $-1 -65.800347911008032 11.84673805828848 10.724015560759117 #
straight-curve $-1 -65.800347911008032 3.7427856953421816 6.9171273725063749 0 -1 0 I I #
point $-1 -65.800347911008032 11.84673805828848 6.9171273725063713 #
point $-1 -62.849945856822714 4.8688713901218961 7.8916404438435492 #
point $-1 -62.849945856822714 7.4855713906843633 7.8916404438435492 #
point $-1 -62.849945856822714 10.102271391246838 7.8916404438435492 #
straight-curve $-1 -65.800347911008032 26.817880839657214 52.357751274138614 0 0 -1 I I #
point $-1 -65.800347911008032 26.817880839657214 10.724015560759117 #
straight-curve $-1 -65.800347911008032 11.228357086026548 6.9171273725063749 0 -1 0 I I #
point $-1 -65.800347911008032 26.817880839657214 6.9171273725063713 #
point $-1 -62.849945856822714 19.84001417149063 7.8916404438435492 #
point $-1 -62.849945856822714 22.456714172053097 7.8916404438435492 #
point $-1 -62.849945856822714 25.073414172615571 7.8916404438435492 #
straight-curve $-1 65.800347911008032 16.16885305481425 92.722862987826872 0 0 -1 I I #
point $-1 65.800347911008032 16.16885305481425 10.724015560759117 #
straight-curve $-1 65.800347911008032 11.002013948310914 4.8625444193042142 0 1 0 I I #
point $-1 65.800347911008032 16.16885305481425 4.8625444193042142 #
point $-1 62.753633419648139 18.502922991537282 7.0207228972257143 #
point $-1 62.753633419648139 22.004027896621828 7.0207228972257143 #
point $-1 62.753633419648139 25.505132801706374 7.0207228972257143 #
End-of-ACIS-data 