500 0 8 0           
7 Unknown 11 ACIS 5.0 NT 24 Thu Mar 25 17:06:29 1999 
-1 9.9999999999999995e-007 1e-010 
body $-1 $8 $-1 $9 #
body $-1 $10 $-1 $11 #
body $-1 $12 $-1 $13 #
body $-1 $14 $-1 $15 #
body $-1 $16 $-1 $17 #
body $-1 $18 $-1 $19 #
body $-1 $20 $-1 $21 #
body $-1 $22 $-1 $23 #
lump $-1 $-1 $24 $0 #
transform $-1 1 0 0 0 1 0 0 0 1 69.392986846522419 36.604181113661539 13.871316804240795 1 rotate no_reflect no_shear #
lump $-1 $-1 $25 $1 #
transform $-1 1 0 0 0 1 0 0 0 1 69.392986846522419 36.604181113661539 13.871316804240795 1 rotate no_reflect no_shear #
lump $-1 $-1 $26 $2 #
transform $-1 1 0 0 0 1 0 0 0 1 69.392986846522419 36.604181113661539 13.871316804240795 1 rotate no_reflect no_shear #
lump $-1 $-1 $27 $3 #
transform $-1 1 0 0 0 1 0 0 0 1 69.392986846522419 36.604181113661539 13.871316804240795 1 rotate no_reflect no_shear #
lump $-1 $-1 $28 $4 #
transform $-1 1 0 0 0 1 0 0 0 1 69.392986846522419 36.604181113661539 13.871316804240795 1 rotate no_reflect no_shear #
lump $-1 $-1 $29 $5 #
transform $-1 1 0 0 0 1 0 0 0 1 69.392986846522419 36.604181113661539 13.871316804240795 1 rotate no_reflect no_shear #
lump $-1 $-1 $30 $6 #
transform $-1 1 0 0 0 1 0 0 0 1 69.392986846522419 36.604181113661539 13.871316804240795 1 rotate no_reflect no_shear #
lump $-1 $-1 $31 $7 #
transform $-1 1 0 0 0 1 0 0 0 1 69.392986846522419 36.604181113661539 13.871316804240795 1 rotate no_reflect no_shear #
shell $-1 $-1 $-1 $32 $-1 $8 #
shell $-1 $-1 $-1 $33 $-1 $10 #
shell $-1 $-1 $-1 $34 $-1 $12 #
shell $-1 $-1 $-1 $35 $-1 $14 #
shell $-1 $-1 $-1 $36 $-1 $16 #
shell $-1 $-1 $-1 $37 $-1 $18 #
shell $-1 $-1 $-1 $38 $-1 $20 #
shell $-1 $-1 $-1 $39 $-1 $22 #
face $-1 $40 $41 $24 $-1 $42 forward single #
face $-1 $43 $44 $25 $-1 $45 reversed single #
face $-1 $46 $47 $26 $-1 $48 reversed single #
face $-1 $49 $50 $27 $-1 $51 forward single #
face $-1 $52 $53 $28 $-1 $54 forward single #
face $-1 $55 $56 $29 $-1 $57 reversed single #
face $-1 $58 $59 $30 $-1 $60 forward single #
face $-1 $61 $62 $31 $-1 $63 forward single #
face $-1 $64 $65 $24 $-1 $66 reversed single #
loop $-1 $-1 $67 $32 #
plane-surface $-1 0 0 13.871316804240795 0 0 1 1 0 0 forward_v I I I I #
face $-1 $68 $69 $25 $-1 $70 reversed single #
loop $-1 $-1 $71 $33 #
plane-surface $-1 -60.251189211206537 0 5.7341154325022892 0 0 1 1 0 0 forward_v I I I I #
face $-1 $72 $73 $26 $-1 $74 reversed single #
loop $-1 $-1 $75 $34 #
plane-surface $-1 -25.538975820629883 67.051442848392441 155.9944453500911 1 0 0 0 -0.62932039886446345 -0.77714595512881146 forward_v I I I I #
face $-1 $76 $77 $27 $-1 $78 forward single #
loop $-1 $79 $80 $35 #
cone-surface $-1 -17.666175478773617 26.684064592221173 4.7197248777417125 0 -0.62932039886446345 -0.77714595512881146 2.5 0 0 1 I I 0 1 2.5 forward I I I I #
face $-1 $81 $82 $28 $-1 $83 forward single #
loop $-1 $84 $85 $36 #
cone-surface $-1 -5.8569749659892238 26.684064592221173 4.7197248777417125 0 -0.62932039886446345 -0.77714595512881146 2.5 0 0 1 I I 0 1 2.5 forward I I I I #
face $-1 $86 $87 $29 $-1 $88 reversed single #
loop $-1 $-1 $89 $37 #
plane-surface $-1 2.0158253758670348 -123.94502543496144 109.922929632978 -1 0 0 0 -0.62932039886446345 0.77714595512881146 forward_v I I I I #
face $-1 $90 $91 $30 $-1 $92 forward single #
loop $-1 $93 $94 $38 #
cone-surface $-1 -17.666175478773617 -26.684064592221166 4.7197248777417071 0 0.62932039886446345 -0.77714595512881146 2.5 0 0 1 I I 0 1 2.5 forward I I I I #
face $-1 $95 $96 $31 $-1 $97 forward single #
loop $-1 $98 $99 $39 #
cone-surface $-1 -5.8569749659892238 -26.684064592221166 4.7197248777417071 0 0.62932039886446345 -0.77714595512881146 2.5 0 0 1 I I 0 1 2.5 forward I I I I #
face $-1 $100 $101 $24 $-1 $102 reversed single #
loop $-1 $-1 $103 $40 #
plane-surface $-1 0 0 -13.871316804240795 0 0 1 1 0 0 forward_v I I I I #
coedge $-1 $104 $105 $106 $107 forward $41 $-1 #
face $-1 $108 $109 $25 $-1 $110 reversed single #
loop $-1 $-1 $111 $43 #
plane-surface $-1 -51.109391575890655 0 9.8027161183715421 -1 0 0 0 0 1 forward_v I I I I #
coedge $-1 $112 $113 $114 $115 forward $44 $-1 #
face $-1 $116 $117 $26 $-1 $118 reversed single #
loop $-1 $-1 $119 $46 #
plane-surface $-1 -11.761575222381424 -20.289401472907471 48.13748726592766 0 0.62932039886446345 0.77714595512881146 1 0 0 forward_v I I I I #
coedge $-1 $120 $121 $122 $123 reversed $47 $-1 #
face $-1 $-1 $124 $27 $-1 $125 forward single #
loop $-1 $126 $127 $49 #
cone-surface $-1 -17.666175478773617 23.266491066251803 0.49937313504471703 0 -0.62932039886446345 -0.77714595512881146 1.25 0 0 1 I I -0.70710678118654746 0.70710678118654746 1.25 forward I I I I #
loop $-1 $-1 $128 $35 #
coedge $-1 $80 $80 $129 $130 reversed $50 $-1 #
face $-1 $-1 $131 $28 $-1 $132 forward single #
loop $-1 $133 $134 $52 #
cone-surface $-1 -5.8569749659892238 23.266491066251803 0.49937313504471703 0 -0.62932039886446345 -0.77714595512881146 1.25 0 0 1 I I -0.70710678118654746 0.70710678118654746 1.25 forward I I I I #
loop $-1 $-1 $135 $36 #
coedge $-1 $85 $85 $136 $137 reversed $53 $-1 #
face $-1 $138 $139 $29 $-1 $140 reversed single #
loop $-1 $-1 $141 $55 #
plane-surface $-1 -11.761575222381424 -36.604181113661525 2.0659715488145594 0 -0.62932039886446345 0.77714595512881146 1 0 0 forward_v I I I I #
coedge $-1 $142 $143 $144 $145 reversed $56 $-1 #
face $-1 $-1 $146 $30 $-1 $147 forward single #
loop $-1 $148 $149 $58 #
cone-surface $-1 -17.666175478773617 -23.266491066251795 0.4993731350447117 0 0.62932039886446345 -0.77714595512881146 1.25 0 0 1 I I -0.70710678118654746 0.70710678118654746 1.25 forward I I I I #
loop $-1 $-1 $150 $38 #
coedge $-1 $94 $94 $151 $152 reversed $59 $-1 #
face $-1 $-1 $153 $31 $-1 $154 forward single #
loop $-1 $155 $156 $61 #
cone-surface $-1 -5.8569749659892238 -23.266491066251795 0.4993731350447117 0 0.62932039886446345 -0.77714595512881146 1.25 0 0 1 I I -0.70710678118654746 0.70710678118654746 1.25 forward I I I I #
loop $-1 $-1 $157 $39 #
coedge $-1 $99 $99 $158 $159 reversed $62 $-1 #
face $-1 $160 $161 $24 $-1 $162 reversed single #
loop $-1 $-1 $163 $64 #
plane-surface $-1 0 -36.604181113661539 0 0 1 0 0 0 1 forward_v I I I I #
coedge $-1 $164 $165 $166 $167 forward $65 $-1 #
coedge $-1 $168 $67 $169 $170 forward $41 $-1 #
coedge $-1 $67 $168 $171 $172 forward $41 $-1 #
coedge $-1 $173 $174 $67 $107 reversed $175 $-1 #
edge $-1 $176 -36.604181113661539 $177 36.604181113661539 $106 $178 forward 7 unknown #
face $-1 $179 $180 $25 $-1 $181 reversed single #
loop $-1 $-1 $182 $68 #
plane-surface $-1 0 36.604181113661539 0 0 -1 0 0 0 -1 forward_v I I I I #
coedge $-1 $114 $183 $184 $185 reversed $69 $-1 #
coedge $-1 $186 $71 $187 $188 reversed $44 $-1 #
coedge $-1 $71 $186 $189 $190 reversed $44 $-1 #
coedge $-1 $191 $111 $71 $115 reversed $69 $-1 #
edge $-1 $192 -36.604181113661539 $193 36.604181113661539 $114 $194 forward 7 unknown #
face $-1 $195 $196 $26 $-1 $197 forward single #
loop $-1 $-1 $198 $72 #
plane-surface $-1 2.0158253758670348 67.051442848392441 155.9944453500911 -1 0 0 0 0.62932039886446345 0.77714595512881146 forward_v I I I I #
coedge $-1 $199 $200 $201 $202 reversed $73 $-1 #
coedge $-1 $121 $75 $203 $204 reversed $47 $-1 #
coedge $-1 $75 $120 $199 $205 reversed $47 $-1 #
coedge $-1 $201 $206 $75 $123 forward $196 $-1 #
edge $-1 $207 -3.0784596894653191 $208 11.499927298637857 $122 $209 forward 7 unknown #
loop $-1 $-1 $129 $76 #
plane-surface $-1 -11.761575222381424 -20.289401472907471 48.13748726592766 0 0.62932039886446345 0.77714595512881146 1 0 0 forward_v I I I I #
loop $-1 $-1 $210 $49 #
coedge $-1 $127 $127 $128 $211 reversed $77 $-1 #
coedge $-1 $128 $128 $127 $211 forward $79 $-1 #
coedge $-1 $129 $129 $80 $130 forward $124 $-1 #
edge $-1 $212 8.402910013066274e-016 $212 6.2831853071796013 $129 $213 forward 7 unknown #
loop $-1 $-1 $136 $81 #
plane-surface $-1 -11.761575222381424 -20.289401472907471 48.13748726592766 0 0.62932039886446345 0.77714595512881146 1 0 0 forward_v I I I I #
loop $-1 $-1 $214 $52 #
coedge $-1 $134 $134 $135 $215 reversed $82 $-1 #
coedge $-1 $135 $135 $134 $215 forward $84 $-1 #
coedge $-1 $136 $136 $85 $137 forward $131 $-1 #
edge $-1 $216 8.402910013066274e-016 $216 6.2831853071796013 $136 $217 forward 7 unknown #
face $-1 $218 $219 $29 $-1 $220 reversed single #
loop $-1 $-1 $221 $86 #
plane-surface $-1 -25.538975820629883 -123.94502543496144 109.922929632978 1 0 0 0 0.62932039886446345 -0.77714595512881146 forward_v I I I I #
coedge $-1 $222 $223 $224 $225 reversed $87 $-1 #
coedge $-1 $143 $89 $226 $227 reversed $56 $-1 #
coedge $-1 $89 $142 $222 $228 reversed $56 $-1 #
coedge $-1 $224 $229 $89 $145 forward $230 $-1 #
edge $-1 $231 25.368331603819179 $232 39.946718591922384 $144 $233 forward 7 unknown #
loop $-1 $-1 $151 $90 #
plane-surface $-1 -11.761575222381424 -36.604181113661525 2.0659715488145594 0 -0.62932039886446345 0.77714595512881146 1 0 0 forward_v I I I I #
loop $-1 $-1 $234 $58 #
coedge $-1 $149 $149 $150 $235 reversed $91 $-1 #
coedge $-1 $150 $150 $149 $235 forward $93 $-1 #
coedge $-1 $151 $151 $94 $152 forward $146 $-1 #
edge $-1 $236 -6.0320471375449104e-016 $236 6.2831853071795996 $151 $237 forward 7 unknown #
loop $-1 $-1 $158 $95 #
plane-surface $-1 -11.761575222381424 -36.604181113661525 2.0659715488145594 0 -0.62932039886446345 0.77714595512881146 1 0 0 forward_v I I I I #
loop $-1 $-1 $238 $61 #
coedge $-1 $156 $156 $157 $239 reversed $96 $-1 #
coedge $-1 $157 $157 $156 $239 forward $98 $-1 #
coedge $-1 $158 $158 $99 $159 forward $153 $-1 #
edge $-1 $240 -6.0320471375449104e-016 $240 6.2831853071795996 $158 $241 forward 7 unknown #
face $-1 $242 $243 $24 $-1 $244 reversed single #
loop $-1 $-1 $245 $100 #
plane-surface $-1 -69.392986846522419 0 0 1 0 0 0 0 -1 forward_v I I I I #
coedge $-1 $246 $171 $247 $248 forward $101 $-1 #
coedge $-1 $249 $103 $246 $250 forward $65 $-1 #
coedge $-1 $103 $249 $251 $252 forward $65 $-1 #
coedge $-1 $174 $173 $103 $167 reversed $175 $-1 #
edge $-1 $253 -36.604181113661539 $254 36.604181113661539 $166 $255 forward 7 unknown #
coedge $-1 $105 $104 $256 $257 forward $41 $-1 #
coedge $-1 $258 $259 $104 $170 reversed $243 $-1 #
edge $-1 $177 -69.392986846522419 $260 69.392986846522419 $169 $261 forward 7 unknown #
coedge $-1 $163 $262 $105 $172 reversed $101 $-1 #
edge $-1 $263 -69.392986846522419 $176 69.392986846522419 $171 $264 forward 7 unknown #
coedge $-1 $166 $106 $262 $265 forward $175 $-1 #
coedge $-1 $106 $166 $258 $266 reversed $175 $-1 #
loop $-1 $-1 $173 $242 #
vertex $-1 $107 $267 #
vertex $-1 $107 $268 #
straight-curve $-1 69.392986846522419 0 13.871316804240795 0 1 0 I I #
face $-1 $269 $270 $25 $-1 $271 forward single #
loop $-1 $-1 $272 $108 #
plane-surface $-1 -69.392986846522419 0 0 1 0 0 0 0 -1 forward_v I I I I #
coedge $-1 $189 $273 $191 $274 forward $109 $-1 #
coedge $-1 $111 $191 $275 $276 reversed $69 $-1 #
coedge $-1 $277 $187 $111 $185 forward $278 $-1 #
edge $-1 $193 0.83275737331651811 $279 8.969958745055024 $184 $280 forward 7 unknown #
coedge $-1 $113 $112 $272 $281 reversed $44 $-1 #
coedge $-1 $184 $282 $112 $188 forward $278 $-1 #
edge $-1 $283 -39.26739224091915 $193 -20.983796970287386 $187 $284 forward 7 unknown #
coedge $-1 $285 $182 $113 $190 forward $109 $-1 #
edge $-1 $192 20.983796970287386 $286 39.26739224091915 $189 $287 forward 7 unknown #
coedge $-1 $183 $114 $182 $274 reversed $69 $-1 #
vertex $-1 $190 $288 #
vertex $-1 $188 $289 #
straight-curve $-1 -51.109391575890655 0 5.7341154325022892 0 -1 0 I I #
face $-1 $-1 $290 $26 $-1 $291 reversed single #
loop $-1 $-1 $122 $116 #
plane-surface $-1 0 0 13.871316804240795 0 0 1 1 0 0 forward_v I I I I #
coedge $-1 $292 $293 $294 $295 reversed $117 $-1 #
coedge $-1 $296 $119 $121 $205 forward $73 $-1 #
coedge $-1 $119 $296 $292 $297 forward $73 $-1 #
coedge $-1 $294 $122 $119 $202 forward $196 $-1 #
edge $-1 $208 -19.658188209439171 $298 7.8966129870577468 $201 $299 forward 7 unknown #
coedge $-1 $300 $301 $120 $204 forward $290 $-1 #
edge $-1 $302 -75.931251126230976 $207 -64.125905870804758 $203 $303 forward 7 unknown #
edge $-1 $208 54.44948316233868 $302 73.208362227323093 $121 $304 forward 7 unknown #
coedge $-1 $122 $294 $300 $305 forward $196 $-1 #
vertex $-1 $204 $306 #
vertex $-1 $123 $307 #
straight-curve $-1 -25.538975820629883 33.52572142419622 13.871316804240791 0 -1 0 I I #
coedge $-1 $210 $210 $-1 $308 reversed $126 $-1 #
edge $-1 $309 0 $309 6.2831853071796004 $127 $310 forward 7 unknown #
vertex $-1 $130 $311 #
ellipse-curve $-1 -17.666175478773617 29.314987619609951 7.968644176527679 0 0.62932039886446345 0.77714595512881146 2.5 0 0 1 I I #
coedge $-1 $214 $214 $-1 $312 reversed $133 $-1 #
edge $-1 $313 0 $313 6.2831853071796004 $134 $314 forward 7 unknown #
vertex $-1 $137 $315 #
ellipse-curve $-1 -5.8569749659892238 29.314987619609951 7.968644176527679 0 0.62932039886446345 0.77714595512881146 2.5 0 0 1 I I #
face $-1 $-1 $230 $29 $-1 $316 forward single #
loop $-1 $-1 $317 $138 #
plane-surface $-1 0 -36.604181113661539 0 0 1 0 0 0 1 forward_v I I I I #
coedge $-1 $318 $319 $320 $321 reversed $139 $-1 #
coedge $-1 $322 $141 $143 $228 forward $87 $-1 #
coedge $-1 $141 $322 $318 $323 forward $87 $-1 #
coedge $-1 $320 $144 $141 $225 forward $230 $-1 #
edge $-1 $232 -7.8966129870577468 $324 19.658188209439171 $224 $325 forward 7 unknown #
coedge $-1 $326 $327 $142 $227 forward $219 $-1 #
edge $-1 $328 -52.895493267674453 $231 -41.090148012248207 $226 $329 forward 7 unknown #
edge $-1 $232 -18.758879064984431 $328 1.8310242626372826e-014 $143 $330 forward 7 unknown #
coedge $-1 $144 $320 $326 $331 forward $230 $-1 #
loop $-1 $-1 $320 $218 #
vertex $-1 $227 $332 #
vertex $-1 $145 $333 #
straight-curve $-1 2.0158253758670348 -61.972512717480718 13.871316804240791 0 1 0 I I #
coedge $-1 $234 $234 $-1 $334 reversed $148 $-1 #
edge $-1 $335 0 $335 6.2831853071796004 $149 $336 forward 7 unknown #
vertex $-1 $152 $337 #
ellipse-curve $-1 -17.666175478773617 -29.314987619609941 7.9686441765276683 0 -0.62932039886446345 0.77714595512881146 2.5 0 0 1 I I #
coedge $-1 $238 $238 $-1 $338 reversed $155 $-1 #
edge $-1 $339 0 $339 6.2831853071796004 $156 $340 forward 7 unknown #
vertex $-1 $159 $341 #
ellipse-curve $-1 -5.8569749659892238 -29.314987619609941 7.9686441765276683 0 -0.62932039886446345 0.77714595512881146 2.5 0 0 1 I I #
face $-1 $-1 $175 $24 $-1 $342 reversed single #
loop $-1 $-1 $258 $160 #
plane-surface $-1 0 36.604181113661539 0 0 -1 0 0 0 -1 forward_v I I I I #
coedge $-1 $343 $256 $259 $344 forward $161 $-1 #
coedge $-1 $262 $163 $164 $250 reversed $101 $-1 #
coedge $-1 $256 $343 $163 $248 reversed $161 $-1 #
edge $-1 $263 -13.871316804240795 $345 13.871316804240795 $247 $346 forward 7 unknown #
coedge $-1 $165 $164 $343 $347 forward $65 $-1 #
edge $-1 $254 -69.392986846522419 $345 69.392986846522419 $246 $348 forward 7 unknown #
coedge $-1 $259 $258 $165 $252 reversed $243 $-1 #
edge $-1 $349 -69.392986846522419 $253 69.392986846522419 $251 $350 forward 7 unknown #
vertex $-1 $167 $351 #
vertex $-1 $265 $352 #
straight-curve $-1 69.392986846522419 0 -13.871316804240795 0 -1 0 I I #
coedge $-1 $245 $247 $168 $257 reversed $161 $-1 #
edge $-1 $260 -36.604181113661539 $263 36.604181113661539 $256 $353 forward 7 unknown #
coedge $-1 $251 $169 $174 $266 forward $243 $-1 #
coedge $-1 $169 $251 $245 $344 reversed $243 $-1 #
vertex $-1 $170 $354 #
straight-curve $-1 0 36.604181113661539 13.871316804240795 -1 0 0 I I #
coedge $-1 $171 $246 $173 $265 reversed $101 $-1 #
vertex $-1 $257 $355 #
straight-curve $-1 0 -36.604181113661539 13.871316804240795 1 0 0 I I #
edge $-1 $176 -13.871316804240795 $254 13.871316804240795 $173 $356 forward 7 unknown #
edge $-1 $177 -13.871316804240795 $253 13.871316804240795 $174 $357 forward 7 unknown #
point $-1 69.392986846522419 -36.604181113661539 13.871316804240795 #
point $-1 69.392986846522419 36.604181113661539 13.871316804240795 #
face $-1 $-1 $278 $25 $-1 $358 reversed single #
loop $-1 $-1 $275 $179 #
plane-surface $-1 0 0 13.871316804240795 0 0 1 1 0 0 forward_v I I I I #
coedge $-1 $359 $360 $186 $281 forward $180 $-1 #
coedge $-1 $182 $285 $361 $362 reversed $109 $-1 #
edge $-1 $363 -8.969958745055024 $192 -0.83275737331651811 $182 $364 forward 7 unknown #
coedge $-1 $361 $365 $183 $276 forward $270 $-1 #
edge $-1 $279 -36.604181113661539 $363 36.604181113661539 $275 $366 forward 7 unknown #
coedge $-1 $282 $184 $365 $367 reversed $278 $-1 #
loop $-1 $-1 $184 $269 #
vertex $-1 $185 $368 #
straight-curve $-1 -51.109391575890655 -36.604181113661539 4.9013580591857711 0 0 1 I I #
edge $-1 $286 -36.604181113661539 $283 36.604181113661539 $272 $369 forward 7 unknown #
coedge $-1 $187 $277 $359 $370 forward $278 $-1 #
vertex $-1 $281 $371 #
straight-curve $-1 -30.125594605603268 -36.604181113661539 5.7341154325022892 1 0 0 I I #
coedge $-1 $273 $189 $360 $372 reversed $109 $-1 #
vertex $-1 $281 $373 #
straight-curve $-1 -30.125594605603268 36.604181113661539 5.7341154325022892 -1 0 0 I I #
point $-1 -51.109391575890655 36.604181113661539 5.7341154325022892 #
point $-1 -51.109391575890655 -36.604181113661539 5.7341154325022892 #
loop $-1 $-1 $203 $195 #
plane-surface $-1 0 36.604181113661539 0 0 -1 0 0 0 -1 forward_v I I I I #
coedge $-1 $293 $198 $200 $297 reversed $117 $-1 #
coedge $-1 $198 $292 $374 $375 reversed $117 $-1 #
coedge $-1 $206 $201 $198 $295 forward $196 $-1 #
edge $-1 $298 -11.499927298637857 $376 3.0784596894653191 $294 $377 forward 7 unknown #
coedge $-1 $200 $199 $301 $378 reversed $73 $-1 #
edge $-1 $379 -73.208362227323093 $298 -54.44948316233868 $292 $380 forward 7 unknown #
vertex $-1 $202 $381 #
straight-curve $-1 -5.880787611190712 22.025794125558367 13.871316804240795 1 0 0 I I #
coedge $-1 $374 $203 $206 $305 reversed $290 $-1 #
coedge $-1 $203 $374 $296 $378 forward $290 $-1 #
vertex $-1 $204 $382 #
straight-curve $-1 -25.538975820629883 36.604181113661539 77.997222675045549 0 0 1 I I #
straight-curve $-1 -25.538975820629883 -20.289401472907471 48.13748726592766 0 0.77714595512881146 -0.62932039886446345 I I #
edge $-1 $376 -2.0158253758670348 $207 25.538975820629883 $300 $383 forward 7 unknown #
point $-1 -25.538975820629883 36.604181113661539 13.871316804240795 #
point $-1 -25.538975820629883 22.025794125558363 13.871316804240791 #
edge $-1 $384 1 $384 0 $210 $-1 forward 7 unknown #
vertex $-1 $211 $385 #
ellipse-curve $-1 -17.666175478773617 24.05314156483238 1.4708055789557313 0 0.62932039886446345 0.77714595512881146 2.5 0 0 1 I I #
point $-1 -15.166175478773617 29.314987619609965 7.9686441765276932 #
edge $-1 $386 1 $386 0 $214 $-1 forward 7 unknown #
vertex $-1 $215 $387 #
ellipse-curve $-1 -5.8569749659892238 24.05314156483238 1.4708055789557313 0 0.62932039886446345 0.77714595512881146 2.5 0 0 1 I I #
point $-1 -3.3569749659892238 29.314987619609965 7.9686441765276932 #
plane-surface $-1 0 0 13.871316804240795 0 0 1 1 0 0 forward_v I I I I #
coedge $-1 $327 $326 $319 $388 forward $219 $-1 #
coedge $-1 $319 $221 $223 $323 reversed $139 $-1 #
coedge $-1 $221 $318 $317 $388 reversed $139 $-1 #
coedge $-1 $229 $224 $221 $321 forward $230 $-1 #
edge $-1 $324 -39.946718591922384 $389 -25.368331603819179 $320 $390 forward 7 unknown #
coedge $-1 $223 $222 $327 $391 reversed $87 $-1 #
edge $-1 $392 -1.8310242626372826e-014 $324 18.758879064984431 $318 $393 forward 7 unknown #
vertex $-1 $225 $394 #
straight-curve $-1 -5.880787611190712 -22.025794125558331 13.871316804240795 -1 0 0 I I #
coedge $-1 $317 $226 $229 $331 reversed $219 $-1 #
coedge $-1 $226 $317 $322 $391 forward $219 $-1 #
vertex $-1 $227 $395 #
straight-curve $-1 2.0158253758670348 -36.604181113661539 54.961464816488999 0 0 1 I I #
straight-curve $-1 2.0158253758670348 -36.604181113661525 2.0659715488145594 0 -0.77714595512881146 -0.62932039886446345 I I #
edge $-1 $389 -25.538975820629883 $231 2.0158253758670348 $326 $396 forward 7 unknown #
point $-1 2.0158253758670348 -36.604181113661539 13.871316804240795 #
point $-1 2.0158253758670348 -22.025794125558335 13.871316804240795 #
edge $-1 $397 1 $397 0 $234 $-1 forward 7 unknown #
vertex $-1 $235 $398 #
ellipse-curve $-1 -17.666175478773617 -24.053141564832373 1.4708055789557259 0 -0.62932039886446345 0.77714595512881146 2.5 0 0 1 I I #
point $-1 -15.166175478773617 -29.314987619609958 7.9686441765276879 #
edge $-1 $399 1 $399 0 $238 $-1 forward 7 unknown #
vertex $-1 $239 $400 #
ellipse-curve $-1 -5.8569749659892238 -24.053141564832373 1.4708055789557259 0 -0.62932039886446345 0.77714595512881146 2.5 0 0 1 I I #
point $-1 -3.3569749659892238 -29.314987619609958 7.9686441765276879 #
plane-surface $-1 69.392986846522419 0 0 -1 0 0 0 0 1 forward_v I I I I #
coedge $-1 $247 $245 $249 $347 reversed $161 $-1 #
edge $-1 $260 -13.871316804240795 $349 13.871316804240795 $259 $401 forward 7 unknown #
vertex $-1 $347 $402 #
straight-curve $-1 -69.392986846522419 -36.604181113661539 0 0 0 -1 I I #
edge $-1 $345 -36.604181113661539 $349 36.604181113661539 $343 $403 forward 7 unknown #
straight-curve $-1 0 -36.604181113661539 -13.871316804240795 -1 0 0 I I #
vertex $-1 $252 $404 #
straight-curve $-1 0 36.604181113661539 -13.871316804240795 1 0 0 I I #
point $-1 69.392986846522419 36.604181113661539 -13.871316804240795 #
point $-1 69.392986846522419 -36.604181113661539 -13.871316804240795 #
straight-curve $-1 -69.392986846522419 0 13.871316804240795 0 -1 0 I I #
point $-1 -69.392986846522419 36.604181113661539 13.871316804240795 #
point $-1 -69.392986846522419 -36.604181113661539 13.871316804240795 #
straight-curve $-1 69.392986846522419 -36.604181113661539 0 0 0 -1 I I #
straight-curve $-1 69.392986846522419 36.604181113661539 0 0 0 -1 I I #
plane-surface $-1 0 -36.604181113661539 0 0 1 0 0 0 1 forward_v I I I I #
coedge $-1 $405 $272 $282 $370 reversed $180 $-1 #
coedge $-1 $272 $405 $285 $372 forward $180 $-1 #
coedge $-1 $406 $275 $273 $362 forward $270 $-1 #
edge $-1 $363 51.109391575890655 $407 69.392986846522419 $273 $408 forward 7 unknown #
vertex $-1 $362 $409 #
straight-curve $-1 -51.109391575890655 36.604181113661539 4.9013580591857711 0 0 -1 I I #
coedge $-1 $275 $406 $277 $367 forward $270 $-1 #
straight-curve $-1 -51.109391575890655 0 13.871316804240795 0 1 0 I I #
edge $-1 $410 -69.392986846522419 $279 -51.109391575890655 $277 $411 forward 7 unknown #
point $-1 -51.109391575890655 -36.604181113661539 13.871316804240795 #
straight-curve $-1 -69.392986846522419 0 5.7341154325022892 0 -1 0 I I #
edge $-1 $410 -13.871316804240795 $283 -5.7341154325022892 $359 $412 forward 7 unknown #
point $-1 -69.392986846522419 -36.604181113661539 5.7341154325022892 #
edge $-1 $407 -13.871316804240795 $286 -5.7341154325022892 $285 $413 forward 7 unknown #
point $-1 -69.392986846522419 36.604181113661539 5.7341154325022892 #
coedge $-1 $301 $300 $293 $375 forward $290 $-1 #
edge $-1 $376 64.125905870804758 $379 75.931251126230976 $374 $414 forward 7 unknown #
vertex $-1 $305 $415 #
straight-curve $-1 2.0158253758670348 33.52572142419622 13.871316804240791 0 1 0 I I #
edge $-1 $379 -7.8966129870577468 $302 19.658188209439171 $301 $416 forward 7 unknown #
vertex $-1 $378 $417 #
straight-curve $-1 2.0158253758670348 -20.289401472907471 48.13748726592766 0 -0.77714595512881146 0.62932039886446345 I I #
point $-1 2.0158253758670348 22.025794125558363 13.871316804240791 #
point $-1 -25.538975820629883 36.604181113661539 2.0659715488145736 #
straight-curve $-1 0 36.604181113661539 13.871316804240795 -1 0 0 I I #
vertex $-1 $308 $418 #
point $-1 -15.166175478773617 24.05314156483238 1.4708055789557313 #
vertex $-1 $312 $419 #
point $-1 -3.3569749659892238 24.05314156483238 1.4708055789557313 #
edge $-1 $389 41.090148012248207 $392 52.895493267674453 $317 $420 forward 7 unknown #
vertex $-1 $331 $421 #
straight-curve $-1 -25.538975820629883 -61.972512717480718 13.871316804240791 0 -1 0 I I #
edge $-1 $392 -19.658188209439171 $328 7.8966129870577468 $327 $422 forward 7 unknown #
vertex $-1 $391 $423 #
straight-curve $-1 -25.538975820629883 -36.604181113661525 2.0659715488145594 0 0.77714595512881146 0.62932039886446345 I I #
point $-1 -25.538975820629883 -22.025794125558335 13.871316804240795 #
point $-1 2.0158253758670348 -36.604181113661539 2.0659715488145478 #
straight-curve $-1 0 -36.604181113661539 13.871316804240795 1 0 0 I I #
vertex $-1 $334 $424 #
point $-1 -15.166175478773617 -24.053141564832373 1.4708055789557259 #
vertex $-1 $338 $425 #
point $-1 -3.3569749659892238 -24.053141564832373 1.4708055789557259 #
straight-curve $-1 -69.392986846522419 36.604181113661539 0 0 0 -1 I I #
point $-1 -69.392986846522419 -36.604181113661539 -13.871316804240795 #
straight-curve $-1 -69.392986846522419 0 -13.871316804240795 0 1 0 I I #
point $-1 -69.392986846522419 36.604181113661539 -13.871316804240795 #
coedge $-1 $360 $359 $406 $426 reversed $180 $-1 #
coedge $-1 $365 $361 $405 $426 forward $270 $-1 #
vertex $-1 $362 $427 #
straight-curve $-1 0 36.604181113661539 13.871316804240795 -1 0 0 I I #
point $-1 -51.109391575890655 36.604181113661539 13.871316804240795 #
vertex $-1 $426 $428 #
straight-curve $-1 0 -36.604181113661539 13.871316804240795 1 0 0 I I #
straight-curve $-1 -69.392986846522419 -36.604181113661539 0 0 0 -1 I I #
straight-curve $-1 -69.392986846522419 36.604181113661539 0 0 0 -1 I I #
straight-curve $-1 2.0158253758670348 36.604181113661539 77.997222675045549 0 0 -1 I I #
point $-1 2.0158253758670348 36.604181113661539 13.871316804240795 #
straight-curve $-1 -5.880787611190712 36.604181113661539 2.0659715488145736 -1 0 0 I I #
point $-1 2.0158253758670348 36.604181113661539 2.0659715488145736 #
point $-1 -17.666175478773617 22.479840567671225 -0.47205930886629732 #
point $-1 -5.8569749659892238 22.479840567671225 -0.47205930886629732 #
straight-curve $-1 -25.538975820629883 -36.604181113661539 54.961464816488999 0 0 -1 I I #
point $-1 -25.538975820629883 -36.604181113661539 13.871316804240795 #
straight-curve $-1 -5.880787611190712 -36.604181113661539 2.0659715488145505 1 0 0 I I #
point $-1 -25.538975820629883 -36.604181113661539 2.0659715488145478 #
point $-1 -17.666175478773617 -22.479840567671218 -0.47205930886630265 #
point $-1 -5.8569749659892238 -22.479840567671218 -0.47205930886630265 #
edge $-1 $407 -36.604181113661539 $410 36.604181113661539 $405 $429 forward 7 unknown #
point $-1 -69.392986846522419 36.604181113661539 13.871316804240795 #
point $-1 -69.392986846522419 -36.604181113661539 13.871316804240795 #
straight-curve $-1 -69.392986846522419 0 13.871316804240795 0 -1 0 I I #
End-of-ACIS-data 