500 0 7 0           
7 Unknown 11 ACIS 5.0 NT 24 Thu Mar 25 15:41:26 1999 
-1 9.9999999999999995e-007 1e-010 
body $-1 $7 $-1 $8 #
body $-1 $9 $-1 $10 #
body $-1 $11 $-1 $12 #
body $-1 $13 $-1 $14 #
body $-1 $15 $-1 $16 #
body $-1 $17 $-1 $18 #
body $-1 $19 $-1 $20 #
lump $-1 $-1 $21 $0 #
transform $-1 1 0 0 0 1 0 0 0 1 45.910824915311139 24.243190990315334 11.244854221207543 1 rotate no_reflect no_shear #
lump $-1 $-1 $22 $1 #
transform $-1 1 0 0 0 1 0 0 0 1 45.910824915311139 24.243190990315334 11.244854221207543 1 rotate no_reflect no_shear #
lump $-1 $-1 $23 $2 #
transform $-1 1 0 0 0 1 0 0 0 1 45.910824915311139 24.243190990315334 11.244854221207543 1 rotate no_reflect no_shear #
lump $-1 $-1 $24 $3 #
transform $-1 1 0 0 0 1 0 0 0 1 45.910824915311139 24.243190990315334 11.244854221207543 1 rotate no_reflect no_shear #
lump $-1 $-1 $25 $4 #
transform $-1 1 0 0 0 1 0 0 0 1 45.910824915311139 24.243190990315334 11.244854221207543 1 rotate no_reflect no_shear #
lump $-1 $-1 $26 $5 #
transform $-1 1 0 0 0 1 0 0 0 1 45.910824915311139 24.243190990315334 11.244854221207543 1 rotate no_reflect no_shear #
lump $-1 $-1 $27 $6 #
transform $-1 1 0 0 0 1 0 0 0 1 45.910824915311139 24.243190990315334 11.244854221207543 1 rotate no_reflect no_shear #
shell $-1 $-1 $-1 $28 $-1 $7 #
shell $-1 $-1 $-1 $29 $-1 $9 #
shell $-1 $-1 $-1 $30 $-1 $11 #
shell $-1 $-1 $-1 $31 $-1 $13 #
shell $-1 $-1 $-1 $32 $-1 $15 #
shell $-1 $-1 $-1 $33 $-1 $17 #
shell $-1 $-1 $-1 $34 $-1 $19 #
face $-1 $35 $36 $21 $-1 $37 forward single #
face $-1 $38 $39 $22 $-1 $40 forward single #
face $-1 $41 $42 $23 $-1 $43 reversed single #
face $-1 $44 $45 $24 $-1 $46 forward single #
face $-1 $47 $48 $25 $-1 $49 forward single #
face $-1 $50 $51 $26 $-1 $52 reversed single #
face $-1 $53 $54 $27 $-1 $55 forward single #
face $-1 $56 $57 $21 $-1 $58 reversed single #
loop $-1 $-1 $59 $28 #
plane-surface $-1 0 0 11.244854221207543 0 0 1 1 0 0 forward_v I I I I #
face $-1 $60 $61 $22 $-1 $62 reversed single #
loop $-1 $-1 $63 $29 #
plane-surface $-1 -40.110481540708747 0 -6.4360635397263941 0 0 1 1 0 0 forward_v I I I I #
face $-1 $64 $65 $23 $-1 $66 reversed single #
loop $-1 $-1 $67 $30 #
plane-surface $-1 23.850610918371274 -86.865406337562376 70.326032859234317 1 0 0 0 0.68199836817093118 -0.7313536940579346 forward_v I I I I #
face $-1 $68 $69 $24 $-1 $70 forward single #
loop $-1 $71 $72 $31 #
cone-surface $-1 30.153529203211235 -18.565999947281643 5.7621791034559493 0 0.68199836817093118 -0.7313536940579346 2 0 0 1 I I 0 1 2 forward I I I I #
face $-1 $73 $74 $25 $-1 $75 forward single #
loop $-1 $76 $77 $32 #
cone-surface $-1 39.607906630471177 -18.565999947281643 5.7621791034559493 0 0.68199836817093118 -0.7313536940579346 2 0 0 1 I I 0 1 2 forward I I I I #
face $-1 $78 $79 $26 $-1 $80 reversed single #
loop $-1 $-1 $81 $33 #
plane-surface $-1 5.0591897966490222 47.89047749621772 101.4915738776003 1 0 0 0 -0.6560590369687036 -0.75470957328743171 forward_v I I I I #
face $-1 $82 $83 $27 $-1 $84 forward single #
loop $-1 $85 $86 $34 #
cone-surface $-1 14.748894033588265 16.044306357500218 3.5691982055740872 0 -0.6560590369687036 -0.75470957328743171 3 0 0 1 I I 0 1 3 forward I I I I #
face $-1 $87 $88 $21 $-1 $89 reversed single #
loop $-1 $-1 $90 $35 #
plane-surface $-1 0 0 -11.244854221207543 0 0 1 1 0 0 forward_v I I I I #
coedge $-1 $91 $92 $93 $94 forward $36 $-1 #
face $-1 $95 $96 $22 $-1 $97 reversed single #
loop $-1 $-1 $98 $38 #
plane-surface $-1 -34.310138166106356 0 -8.8404588804669686 -1 0 0 0 0 1 forward_v I I I I #
coedge $-1 $99 $100 $101 $102 forward $39 $-1 #
face $-1 $103 $104 $23 $-1 $105 forward single #
loop $-1 $-1 $106 $41 #
plane-surface $-1 34.880717916841206 -24.243190990315327 3.171930061114594 0 -0.68199836817093118 0.7313536940579346 1 0 0 forward_v I I I I #
coedge $-1 $107 $108 $109 $110 reversed $42 $-1 #
face $-1 $-1 $111 $24 $-1 $112 forward single #
loop $-1 $113 $114 $44 #
cone-surface $-1 30.153529203211235 -16.5353860737048 3.5846123716928879 0 0.68199836817093118 -0.7313536940579346 1 0 0 1 I I -0.70710678118654746 0.70710678118654746 1 forward I I I I #
loop $-1 $-1 $115 $31 #
coedge $-1 $72 $72 $116 $117 reversed $45 $-1 #
face $-1 $-1 $118 $25 $-1 $119 forward single #
loop $-1 $120 $121 $47 #
cone-surface $-1 39.607906630471177 -16.5353860737048 3.5846123716928879 0 0.68199836817093118 -0.7313536940579346 1 0 0 1 I I -0.70710678118654746 0.70710678118654746 1 forward I I I I #
loop $-1 $-1 $122 $32 #
coedge $-1 $77 $77 $123 $124 reversed $48 $-1 #
face $-1 $125 $126 $26 $-1 $127 reversed single #
loop $-1 $-1 $128 $50 #
plane-surface $-1 14.748894033588265 -12.349945664537856 32.192895715383386 0 0.6560590369687036 0.75470957328743171 1 0 0 forward_v I I I I #
coedge $-1 $129 $130 $131 $132 reversed $51 $-1 #
face $-1 $-1 $133 $27 $-1 $134 forward single #
loop $-1 $135 $136 $53 #
cone-surface $-1 14.748894033588265 13.108919189879558 0.19242161707619587 0 -0.6560590369687036 -0.75470957328743171 1.5 0 0 1 I I -0.70710678118654757 0.70710678118654757 1.5 forward I I I I #
loop $-1 $-1 $137 $34 #
coedge $-1 $86 $86 $138 $139 reversed $54 $-1 #
face $-1 $140 $141 $21 $-1 $142 reversed single #
loop $-1 $-1 $143 $56 #
plane-surface $-1 0 -24.243190990315334 0 0 1 0 0 0 1 forward_v I I I I #
coedge $-1 $144 $145 $146 $147 forward $57 $-1 #
coedge $-1 $148 $59 $149 $150 forward $36 $-1 #
coedge $-1 $59 $148 $151 $152 forward $36 $-1 #
coedge $-1 $153 $154 $59 $94 reversed $155 $-1 #
edge $-1 $156 -24.243190990315334 $157 24.243190990315334 $93 $158 forward 7 unknown #
face $-1 $159 $160 $22 $-1 $161 reversed single #
loop $-1 $-1 $162 $60 #
plane-surface $-1 0 0 -11.244854221207543 0 0 1 1 0 0 forward_v I I I I #
coedge $-1 $163 $101 $164 $165 reversed $61 $-1 #
coedge $-1 $166 $63 $167 $168 reversed $39 $-1 #
coedge $-1 $63 $166 $169 $170 reversed $39 $-1 #
coedge $-1 $98 $171 $63 $102 reversed $61 $-1 #
edge $-1 $172 -24.243190990315334 $173 24.243190990315334 $101 $174 forward 7 unknown #
face $-1 $175 $176 $23 $-1 $177 reversed single #
loop $-1 $-1 $178 $64 #
plane-surface $-1 0 0 11.244854221207543 0 0 1 1 0 0 forward_v I I I I #
coedge $-1 $179 $180 $181 $182 reversed $65 $-1 #
coedge $-1 $108 $67 $183 $184 reversed $42 $-1 #
coedge $-1 $67 $107 $179 $185 reversed $42 $-1 #
coedge $-1 $181 $186 $67 $110 forward $176 $-1 #
edge $-1 $187 23.918162208409615 $188 31.991086368502572 $109 $189 forward 7 unknown #
loop $-1 $-1 $116 $68 #
plane-surface $-1 34.880717916841206 -24.243190990315327 3.171930061114594 0 -0.68199836817093118 0.7313536940579346 1 0 0 forward_v I I I I #
loop $-1 $-1 $190 $44 #
coedge $-1 $114 $114 $115 $191 reversed $69 $-1 #
coedge $-1 $115 $115 $114 $191 forward $71 $-1 #
coedge $-1 $116 $116 $72 $117 forward $111 $-1 #
edge $-1 $192 3.4271822077950142e-016 $192 6.2831853071796004 $116 $193 forward 7 unknown #
loop $-1 $-1 $123 $73 #
plane-surface $-1 34.880717916841206 -24.243190990315327 3.171930061114594 0 -0.68199836817093118 0.7313536940579346 1 0 0 forward_v I I I I #
loop $-1 $-1 $194 $47 #
coedge $-1 $121 $121 $122 $195 reversed $74 $-1 #
coedge $-1 $122 $122 $121 $195 forward $76 $-1 #
coedge $-1 $123 $123 $77 $124 forward $118 $-1 #
edge $-1 $196 3.4271822077950142e-016 $196 6.2831853071796004 $123 $197 forward 7 unknown #
face $-1 $198 $199 $26 $-1 $200 reversed single #
loop $-1 $-1 $201 $78 #
plane-surface $-1 24.438598270527507 47.89047749621772 101.4915738776003 -1 0 0 0 0.6560590369687036 0.75470957328743171 forward_v I I I I #
coedge $-1 $202 $203 $204 $205 reversed $79 $-1 #
coedge $-1 $130 $81 $206 $207 reversed $51 $-1 #
coedge $-1 $81 $129 $202 $208 reversed $51 $-1 #
coedge $-1 $204 $209 $81 $132 forward $210 $-1 #
edge $-1 $211 -0.29795224220647398 $212 12.197219799088558 $131 $213 forward 7 unknown #
loop $-1 $-1 $138 $82 #
plane-surface $-1 14.748894033588265 -12.349945664537856 32.192895715383386 0 0.6560590369687036 0.75470957328743171 1 0 0 forward_v I I I I #
loop $-1 $-1 $214 $53 #
coedge $-1 $136 $136 $137 $215 reversed $83 $-1 #
coedge $-1 $137 $137 $136 $215 forward $85 $-1 #
coedge $-1 $138 $138 $86 $139 forward $133 $-1 #
edge $-1 $216 1.9423249289494974e-016 $216 6.2831853071796004 $138 $217 forward 7 unknown #
face $-1 $218 $219 $21 $-1 $220 reversed single #
loop $-1 $-1 $221 $87 #
plane-surface $-1 -45.910824915311139 0 0 1 0 0 0 0 -1 forward_v I I I I #
coedge $-1 $222 $151 $223 $224 forward $88 $-1 #
coedge $-1 $225 $90 $222 $226 forward $57 $-1 #
coedge $-1 $90 $225 $227 $228 forward $57 $-1 #
coedge $-1 $154 $153 $90 $147 reversed $155 $-1 #
edge $-1 $229 -24.243190990315334 $230 24.243190990315334 $146 $231 forward 7 unknown #
coedge $-1 $92 $91 $232 $233 forward $36 $-1 #
coedge $-1 $234 $235 $91 $150 reversed $219 $-1 #
edge $-1 $157 -45.910824915311139 $236 45.910824915311139 $149 $237 forward 7 unknown #
coedge $-1 $143 $238 $92 $152 reversed $88 $-1 #
edge $-1 $239 -45.910824915311139 $156 45.910824915311139 $151 $240 forward 7 unknown #
coedge $-1 $146 $93 $238 $241 forward $155 $-1 #
coedge $-1 $93 $146 $234 $242 reversed $155 $-1 #
loop $-1 $-1 $153 $218 #
vertex $-1 $94 $243 #
vertex $-1 $94 $244 #
straight-curve $-1 45.910824915311139 0 11.244854221207543 0 1 0 I I #
face $-1 $245 $246 $22 $-1 $247 reversed single #
loop $-1 $-1 $164 $95 #
plane-surface $-1 0 -24.243190990315334 0 0 1 0 0 0 1 forward_v I I I I #
coedge $-1 $248 $249 $163 $250 forward $96 $-1 #
coedge $-1 $171 $98 $162 $250 reversed $61 $-1 #
coedge $-1 $169 $251 $98 $165 forward $160 $-1 #
edge $-1 $252 -6.8246247809740588 $172 -2.0158340994929098 $164 $253 forward 7 unknown #
coedge $-1 $100 $99 $254 $255 reversed $39 $-1 #
coedge $-1 $256 $257 $99 $168 forward $258 $-1 #
edge $-1 $259 -25.855584144956765 $173 -14.254897395751982 $167 $260 forward 7 unknown #
coedge $-1 $261 $164 $100 $170 forward $160 $-1 #
edge $-1 $172 14.254897395751982 $262 25.855584144956765 $169 $263 forward 7 unknown #
coedge $-1 $101 $163 $256 $264 reversed $61 $-1 #
vertex $-1 $170 $265 #
vertex $-1 $168 $266 #
straight-curve $-1 -34.310138166106356 0 -6.4360635397263941 0 1 0 I I #
face $-1 $-1 $267 $23 $-1 $268 reversed single #
loop $-1 $-1 $181 $103 #
plane-surface $-1 0 -24.243190990315334 0 0 1 0 0 0 1 forward_v I I I I #
coedge $-1 $183 $269 $270 $271 forward $104 $-1 #
coedge $-1 $270 $106 $108 $185 forward $65 $-1 #
coedge $-1 $106 $270 $272 $273 reversed $65 $-1 #
coedge $-1 $274 $109 $106 $182 forward $176 $-1 #
edge $-1 $188 6.4102519599506707 $275 28.470465956890536 $181 $276 forward 7 unknown #
coedge $-1 $277 $178 $107 $184 forward $104 $-1 #
edge $-1 $278 -27.846663253721438 $187 -19.189512178465854 $183 $279 forward 7 unknown #
edge $-1 $188 -9.739602292442716e-015 $278 11.837160522456864 $108 $280 forward 7 unknown #
coedge $-1 $109 $274 $277 $281 reversed $176 $-1 #
vertex $-1 $281 $282 #
vertex $-1 $110 $283 #
straight-curve $-1 23.850610918371274 -24.243190990315334 35.163016429617159 0 0 -1 I I #
coedge $-1 $190 $190 $-1 $284 reversed $113 $-1 #
edge $-1 $285 0 $285 6.2831853071796004 $114 $286 forward 7 unknown #
vertex $-1 $117 $287 #
ellipse-curve $-1 30.153529203211235 -19.914615452687542 7.2083921411610632 0 -0.68199836817093118 0.7313536940579346 2 0 0 1 I I #
coedge $-1 $194 $194 $-1 $288 reversed $120 $-1 #
edge $-1 $289 0 $289 6.2831853071796004 $121 $290 forward 7 unknown #
vertex $-1 $124 $291 #
ellipse-curve $-1 39.607906630471177 -19.914615452687542 7.2083921411610632 0 -0.68199836817093118 0.7313536940579346 2 0 0 1 I I #
face $-1 $-1 $210 $26 $-1 $292 forward single #
loop $-1 $-1 $293 $125 #
plane-surface $-1 0 24.243190990315334 0 0 -1 0 0 0 -1 forward_v I I I I #
coedge $-1 $294 $295 $296 $297 reversed $126 $-1 #
coedge $-1 $298 $128 $130 $208 forward $79 $-1 #
coedge $-1 $128 $298 $294 $299 forward $79 $-1 #
coedge $-1 $296 $131 $128 $205 forward $210 $-1 #
edge $-1 $212 -2.31525722014511 $300 17.064151253733375 $204 $301 forward 7 unknown #
coedge $-1 $302 $303 $129 $207 forward $199 $-1 #
edge $-1 $304 -50.362820291726024 $211 -39.500932717592605 $206 $305 forward 7 unknown #
edge $-1 $212 31.930116519643555 $304 48.486381980630668 $130 $306 forward 7 unknown #
coedge $-1 $131 $296 $302 $307 forward $210 $-1 #
loop $-1 $-1 $296 $198 #
vertex $-1 $207 $308 #
vertex $-1 $132 $309 #
straight-curve $-1 5.0591897966490222 23.94523874810886 11.24485422120754 0 -1 0 I I #
coedge $-1 $214 $214 $-1 $310 reversed $135 $-1 #
edge $-1 $311 0 $311 6.2831853071796004 $136 $312 forward 7 unknown #
vertex $-1 $139 $313 #
ellipse-curve $-1 14.748894033588265 17.995604969667824 5.8139104341408325 0 0.6560590369687036 0.75470957328743171 3 0 0 1 I I #
face $-1 $-1 $155 $21 $-1 $314 reversed single #
loop $-1 $-1 $234 $140 #
plane-surface $-1 0 24.243190990315334 0 0 -1 0 0 0 -1 forward_v I I I I #
coedge $-1 $315 $232 $235 $316 forward $141 $-1 #
coedge $-1 $238 $143 $144 $226 reversed $88 $-1 #
coedge $-1 $232 $315 $143 $224 reversed $141 $-1 #
edge $-1 $239 -11.244854221207543 $317 11.244854221207543 $223 $318 forward 7 unknown #
coedge $-1 $145 $144 $315 $319 forward $57 $-1 #
edge $-1 $230 -45.910824915311139 $317 45.910824915311139 $222 $320 forward 7 unknown #
coedge $-1 $235 $234 $145 $228 reversed $219 $-1 #
edge $-1 $321 -45.910824915311139 $229 45.910824915311139 $227 $322 forward 7 unknown #
vertex $-1 $147 $323 #
vertex $-1 $241 $324 #
straight-curve $-1 45.910824915311139 0 -11.244854221207543 0 -1 0 I I #
coedge $-1 $221 $223 $148 $233 reversed $141 $-1 #
edge $-1 $236 -24.243190990315334 $239 24.243190990315334 $232 $325 forward 7 unknown #
coedge $-1 $227 $149 $154 $242 forward $219 $-1 #
coedge $-1 $149 $227 $221 $316 reversed $219 $-1 #
vertex $-1 $150 $326 #
straight-curve $-1 0 24.243190990315334 11.244854221207543 -1 0 0 I I #
coedge $-1 $151 $222 $153 $241 reversed $88 $-1 #
vertex $-1 $233 $327 #
straight-curve $-1 0 -24.243190990315334 11.244854221207543 1 0 0 I I #
edge $-1 $156 -11.244854221207543 $230 11.244854221207543 $153 $328 forward 7 unknown #
edge $-1 $157 -11.244854221207543 $229 11.244854221207543 $154 $329 forward 7 unknown #
point $-1 45.910824915311139 -24.243190990315334 11.244854221207543 #
point $-1 45.910824915311139 24.243190990315334 11.244854221207543 #
face $-1 $-1 $258 $22 $-1 $330 reversed single #
loop $-1 $-1 $254 $159 #
plane-surface $-1 -45.910824915311139 0 0 1 0 0 0 0 -1 forward_v I I I I #
coedge $-1 $331 $162 $251 $332 forward $96 $-1 #
coedge $-1 $162 $331 $333 $334 forward $96 $-1 #
edge $-1 $335 -24.243190990315334 $252 24.243190990315334 $162 $336 forward 7 unknown #
coedge $-1 $164 $261 $248 $332 reversed $160 $-1 #
vertex $-1 $332 $337 #
straight-curve $-1 -34.310138166106356 -24.243190990315334 -4.4202294402334843 0 0 1 I I #
coedge $-1 $338 $339 $166 $255 forward $246 $-1 #
edge $-1 $262 -24.243190990315334 $259 24.243190990315334 $254 $340 forward 7 unknown #
coedge $-1 $333 $167 $171 $264 forward $258 $-1 #
coedge $-1 $167 $333 $338 $341 reversed $258 $-1 #
loop $-1 $-1 $256 $245 #
vertex $-1 $341 $342 #
straight-curve $-1 -20.055240770354374 24.243190990315334 -6.4360635397263941 1 0 0 I I #
coedge $-1 $251 $169 $339 $343 forward $160 $-1 #
vertex $-1 $343 $344 #
straight-curve $-1 -20.055240770354374 -24.243190990315334 -6.4360635397263941 -1 0 0 I I #
edge $-1 $173 2.0158340994929098 $335 6.8246247809740588 $256 $345 forward 7 unknown #
point $-1 -34.310138166106356 -24.243190990315334 -6.4360635397263941 #
point $-1 -34.310138166106356 24.243190990315334 -6.4360635397263941 #
loop $-1 $-1 $272 $175 #
plane-surface $-1 45.910824915311139 0 0 -1 0 0 0 0 1 forward_v I I I I #
coedge $-1 $178 $277 $346 $347 forward $104 $-1 #
coedge $-1 $180 $179 $178 $271 reversed $65 $-1 #
edge $-1 $348 -28.470465956890536 $278 -6.4102519599506707 $178 $349 forward 7 unknown #
coedge $-1 $346 $350 $180 $273 forward $267 $-1 #
edge $-1 $275 -7.7835480804433477 $348 4.0536124420135264 $272 $351 forward 7 unknown #
coedge $-1 $186 $181 $350 $352 reversed $176 $-1 #
vertex $-1 $182 $353 #
straight-curve $-1 17.440358958420603 -24.243190990315334 3.1719300611145855 1 0 0 I I #
coedge $-1 $269 $183 $186 $281 forward $104 $-1 #
vertex $-1 $184 $354 #
straight-curve $-1 23.850610918371274 -43.432703168781188 11.244854221207543 0 -1 0 I I #
straight-curve $-1 23.850610918371274 -24.243190990315327 3.171930061114594 0 0.7313536940579346 0.68199836817093118 I I #
edge $-1 $187 23.850610918371274 $355 45.910824915311139 $186 $356 forward 7 unknown #
point $-1 23.850610918371274 -24.243190990315334 11.244854221207543 #
point $-1 23.850610918371274 -24.243190990315334 3.1719300611145873 #
edge $-1 $357 1 $357 0 $190 $-1 forward 7 unknown #
vertex $-1 $191 $358 #
ellipse-curve $-1 30.153529203211235 -17.21738444187573 4.315966065750823 0 -0.68199836817093118 0.7313536940579346 2 0 0 1 I I #
point $-1 32.153529203211235 -19.914615452687553 7.2083921411610756 #
edge $-1 $359 1 $359 0 $194 $-1 forward 7 unknown #
vertex $-1 $195 $360 #
ellipse-curve $-1 39.607906630471177 -17.21738444187573 4.315966065750823 0 -0.68199836817093118 0.7313536940579346 2 0 0 1 I I #
point $-1 41.607906630471177 -19.914615452687553 7.2083921411610756 #
plane-surface $-1 0 0 11.244854221207543 0 0 1 1 0 0 forward_v I I I I #
coedge $-1 $303 $302 $295 $361 forward $199 $-1 #
coedge $-1 $295 $201 $203 $299 reversed $126 $-1 #
coedge $-1 $201 $294 $293 $361 reversed $126 $-1 #
coedge $-1 $209 $204 $201 $297 forward $210 $-1 #
edge $-1 $300 -12.197219799088558 $362 0.29795224220647398 $296 $363 forward 7 unknown #
coedge $-1 $203 $202 $303 $364 reversed $79 $-1 #
edge $-1 $365 -48.486381980630668 $300 -31.930116519643555 $294 $366 forward 7 unknown #
vertex $-1 $205 $367 #
straight-curve $-1 7.3744470167941323 11.748018949020302 11.244854221207547 1 0 0 I I #
coedge $-1 $293 $206 $209 $307 reversed $199 $-1 #
coedge $-1 $206 $293 $298 $364 forward $199 $-1 #
vertex $-1 $207 $368 #
straight-curve $-1 5.0591897966490222 24.243190990315334 50.745786938800151 0 0 1 I I #
straight-curve $-1 5.0591897966490222 -12.349945664537856 32.192895715383386 0 0.75470957328743171 -0.6560590369687036 I I #
edge $-1 $362 -24.438598270527507 $211 -5.0591897966490222 $302 $369 forward 7 unknown #
point $-1 5.0591897966490222 24.243190990315334 11.244854221207543 #
point $-1 5.0591897966490222 11.748018949020302 11.244854221207543 #
edge $-1 $370 1 $370 0 $214 $-1 forward 7 unknown #
vertex $-1 $215 $371 #
ellipse-curve $-1 14.748894033588265 14.093007745332613 1.3244859770073434 0 0.6560590369687036 0.75470957328743171 3 0 0 1 I I #
point $-1 17.748894033588265 17.995604969667824 5.8139104341408316 #
plane-surface $-1 45.910824915311139 0 0 -1 0 0 0 0 1 forward_v I I I I #
coedge $-1 $223 $221 $225 $319 reversed $141 $-1 #
edge $-1 $236 -11.244854221207543 $321 11.244854221207543 $235 $372 forward 7 unknown #
vertex $-1 $319 $373 #
straight-curve $-1 -45.910824915311139 -24.243190990315334 0 0 0 -1 I I #
edge $-1 $317 -24.243190990315334 $321 24.243190990315334 $315 $374 forward 7 unknown #
straight-curve $-1 0 -24.243190990315334 -11.244854221207543 -1 0 0 I I #
vertex $-1 $228 $375 #
straight-curve $-1 0 24.243190990315334 -11.244854221207543 1 0 0 I I #
point $-1 45.910824915311139 24.243190990315334 -11.244854221207543 #
point $-1 45.910824915311139 -24.243190990315334 -11.244854221207543 #
straight-curve $-1 -45.910824915311139 0 11.244854221207543 0 -1 0 I I #
point $-1 -45.910824915311139 24.243190990315334 11.244854221207543 #
point $-1 -45.910824915311139 -24.243190990315334 11.244854221207543 #
straight-curve $-1 45.910824915311139 -24.243190990315334 0 0 0 -1 I I #
straight-curve $-1 45.910824915311139 24.243190990315334 0 0 0 -1 I I #
plane-surface $-1 0 24.243190990315334 0 0 -1 0 0 0 -1 forward_v I I I I #
coedge $-1 $249 $248 $376 $377 forward $96 $-1 #
edge $-1 $252 34.310138166106356 $378 45.910824915311139 $251 $379 forward 7 unknown #
coedge $-1 $257 $256 $249 $334 reversed $258 $-1 #
edge $-1 $380 -45.910824915311139 $335 -34.310138166106356 $333 $381 forward 7 unknown #
vertex $-1 $264 $382 #
straight-curve $-1 -34.310138166106356 0 -11.244854221207543 0 -1 0 I I #
point $-1 -34.310138166106356 -24.243190990315334 -11.244854221207543 #
coedge $-1 $376 $254 $257 $341 forward $246 $-1 #
coedge $-1 $254 $376 $261 $343 reversed $246 $-1 #
straight-curve $-1 -45.910824915311139 0 -6.4360635397263941 0 1 0 I I #
edge $-1 $259 6.4360635397263941 $380 11.244854221207543 $257 $383 forward 7 unknown #
point $-1 -45.910824915311139 24.243190990315334 -6.4360635397263941 #
edge $-1 $262 6.4360635397263941 $378 11.244854221207543 $339 $384 forward 7 unknown #
point $-1 -45.910824915311139 -24.243190990315334 -6.4360635397263941 #
straight-curve $-1 -34.310138166106356 24.243190990315334 -4.4202294402334843 0 0 -1 I I #
coedge $-1 $350 $272 $269 $347 reversed $267 $-1 #
edge $-1 $355 -24.243190990315334 $348 -15.586039915059748 $346 $385 forward 7 unknown #
vertex $-1 $271 $386 #
straight-curve $-1 17.440358958420603 -15.586039915059747 11.244854221207543 -1 0 0 I I #
coedge $-1 $272 $346 $274 $352 forward $267 $-1 #
straight-curve $-1 45.910824915311139 -18.550664348805547 8.480297150556936 0 0.7313536940579346 0.68199836817093118 I I #
edge $-1 $355 -11.244854221207543 $275 -3.1719300611145873 $350 $387 forward 7 unknown #
point $-1 45.910824915311139 -24.243190990315334 3.1719300611145873 #
point $-1 23.850610918371274 -15.586039915059748 11.244854221207543 #
vertex $-1 $347 $388 #
straight-curve $-1 0 -24.243190990315334 11.244854221207543 1 0 0 I I #
vertex $-1 $284 $389 #
point $-1 32.153529203211235 -17.21738444187573 4.315966065750823 #
vertex $-1 $288 $390 #
point $-1 41.607906630471177 -17.21738444187573 4.315966065750823 #
edge $-1 $362 39.500932717592605 $365 50.362820291726024 $293 $391 forward 7 unknown #
vertex $-1 $307 $392 #
straight-curve $-1 24.438598270527507 23.94523874810886 11.24485422120754 0 1 0 I I #
edge $-1 $365 -17.064151253733375 $304 2.31525722014511 $303 $393 forward 7 unknown #
vertex $-1 $364 $394 #
straight-curve $-1 24.438598270527507 -12.349945664537856 32.192895715383386 0 -0.75470957328743171 0.6560590369687036 I I #
point $-1 24.438598270527507 11.748018949020302 11.244854221207543 #
point $-1 5.0591897966490222 24.243190990315334 0.38296664707412731 #
straight-curve $-1 0 24.243190990315334 11.244854221207543 -1 0 0 I I #
vertex $-1 $310 $395 #
point $-1 17.748894033588265 14.093007745332613 1.3244859770073434 #
straight-curve $-1 -45.910824915311139 24.243190990315334 0 0 0 -1 I I #
point $-1 -45.910824915311139 -24.243190990315334 -11.244854221207543 #
straight-curve $-1 -45.910824915311139 0 -11.244854221207543 0 1 0 I I #
point $-1 -45.910824915311139 24.243190990315334 -11.244854221207543 #
coedge $-1 $339 $338 $331 $377 reversed $246 $-1 #
edge $-1 $378 -24.243190990315334 $380 24.243190990315334 $376 $396 forward 7 unknown #
vertex $-1 $377 $397 #
straight-curve $-1 0 -24.243190990315334 -11.244854221207543 -1 0 0 I I #
vertex $-1 $334 $398 #
straight-curve $-1 0 24.243190990315334 -11.244854221207543 1 0 0 I I #
point $-1 -34.310138166106356 24.243190990315334 -11.244854221207543 #
straight-curve $-1 -45.910824915311139 24.243190990315334 0 0 0 -1 I I #
straight-curve $-1 -45.910824915311139 -24.243190990315334 0 0 0 -1 I I #
straight-curve $-1 45.910824915311139 0 11.244854221207543 0 1 0 I I #
point $-1 45.910824915311139 -15.586039915059748 11.244854221207543 #
straight-curve $-1 45.910824915311139 -24.243190990315334 0 0 0 -1 I I #
point $-1 45.910824915311139 -24.243190990315334 11.244854221207543 #
point $-1 30.153529203211235 -15.853387705533869 2.8532586776349533 #
point $-1 39.607906630471177 -15.853387705533869 2.8532586776349533 #
straight-curve $-1 24.438598270527507 24.243190990315334 50.745786938800151 0 0 -1 I I #
point $-1 24.438598270527507 24.243190990315334 11.244854221207543 #
straight-curve $-1 7.3744470167941323 24.243190990315334 0.38296664707413086 -1 0 0 I I #
point $-1 24.438598270527507 24.243190990315334 0.38296664707412731 #
point $-1 14.748894033588265 12.124830634426502 -0.93964274285495164 #
straight-curve $-1 -45.910824915311139 0 -11.244854221207543 0 1 0 I I #
point $-1 -45.910824915311139 -24.243190990315334 -11.244854221207543 #
point $-1 -45.910824915311139 24.243190990315334 -11.244854221207543 #
End-of-ACIS-data 