500 0 11 0           
7 Unknown 11 ACIS 5.0 NT 24 Fri Mar 26 16:45:00 1999 
-1 9.9999999999999995e-007 1e-010 
body $-1 $11 $-1 $12 #
body $-1 $13 $-1 $14 #
body $-1 $15 $-1 $16 #
body $-1 $17 $-1 $18 #
body $-1 $19 $-1 $20 #
body $-1 $21 $-1 $22 #
body $-1 $23 $-1 $24 #
body $-1 $25 $-1 $26 #
body $-1 $27 $-1 $28 #
body $-1 $29 $-1 $30 #
body $-1 $31 $-1 $32 #
lump $-1 $-1 $33 $0 #
transform $-1 1 0 0 0 1 0 0 0 1 51.333353679006315 31.096729550669995 12.672816493877125 1 rotate no_reflect no_shear #
lump $-1 $-1 $34 $1 #
transform $-1 1 0 0 0 1 0 0 0 1 51.333353679006315 31.096729550669995 12.672816493877125 1 rotate no_reflect no_shear #
lump $-1 $-1 $35 $2 #
transform $-1 1 0 0 0 1 0 0 0 1 51.333353679006315 31.096729550669995 12.672816493877125 1 rotate no_reflect no_shear #
lump $-1 $-1 $36 $3 #
transform $-1 1 0 0 0 1 0 0 0 1 51.333353679006315 31.096729550669995 12.672816493877125 1 rotate no_reflect no_shear #
lump $-1 $-1 $37 $4 #
transform $-1 1 0 0 0 1 0 0 0 1 51.333353679006315 31.096729550669995 12.672816493877125 1 rotate no_reflect no_shear #
lump $-1 $-1 $38 $5 #
transform $-1 1 0 0 0 1 0 0 0 1 51.333353679006315 31.096729550669995 12.672816493877125 1 rotate no_reflect no_shear #
lump $-1 $-1 $39 $6 #
transform $-1 1 0 0 0 1 0 0 0 1 51.333353679006315 31.096729550669995 12.672816493877125 1 rotate no_reflect no_shear #
lump $-1 $-1 $40 $7 #
transform $-1 1 0 0 0 1 0 0 0 1 51.333353679006315 31.096729550669995 12.672816493877125 1 rotate no_reflect no_shear #
lump $-1 $-1 $41 $8 #
transform $-1 1 0 0 0 1 0 0 0 1 51.333353679006315 31.096729550669995 12.672816493877125 1 rotate no_reflect no_shear #
lump $-1 $-1 $42 $9 #
transform $-1 1 0 0 0 1 0 0 0 1 51.333353679006315 31.096729550669995 12.672816493877125 1 rotate no_reflect no_shear #
lump $-1 $-1 $43 $10 #
transform $-1 1 0 0 0 1 0 0 0 1 51.333353679006315 31.096729550669995 12.672816493877125 1 rotate no_reflect no_shear #
shell $-1 $-1 $-1 $44 $-1 $11 #
shell $-1 $-1 $-1 $45 $-1 $13 #
shell $-1 $-1 $-1 $46 $-1 $15 #
shell $-1 $-1 $-1 $47 $-1 $17 #
shell $-1 $-1 $-1 $48 $-1 $19 #
shell $-1 $-1 $-1 $49 $-1 $21 #
shell $-1 $-1 $-1 $50 $-1 $23 #
shell $-1 $-1 $-1 $51 $-1 $25 #
shell $-1 $-1 $-1 $52 $-1 $27 #
shell $-1 $-1 $-1 $53 $-1 $29 #
shell $-1 $-1 $-1 $54 $-1 $31 #
face $-1 $55 $56 $33 $-1 $57 forward single #
face $-1 $58 $59 $34 $-1 $60 reversed single #
face $-1 $61 $62 $35 $-1 $63 forward single #
face $-1 $64 $65 $36 $-1 $66 forward single #
face $-1 $67 $68 $37 $-1 $69 forward single #
face $-1 $70 $71 $38 $-1 $72 reversed single #
face $-1 $73 $74 $39 $-1 $75 forward single #
face $-1 $76 $77 $40 $-1 $78 forward single #
face $-1 $79 $80 $41 $-1 $81 reversed single #
face $-1 $82 $83 $42 $-1 $84 forward single #
face $-1 $85 $86 $43 $-1 $87 forward single #
face $-1 $88 $89 $33 $-1 $90 reversed single #
loop $-1 $-1 $91 $44 #
plane-surface $-1 0 0 12.672816493877125 0 0 1 1 0 0 forward_v I I I I #
face $-1 $92 $93 $34 $-1 $94 reversed single #
loop $-1 $-1 $95 $45 #
plane-surface $-1 -23.544822362223677 63.76657029597898 119.37106142349265 1 0 0 0 -0.73135370988377701 -0.68199835119979291 forward_v I I I I #
face $-1 $96 $97 $35 $-1 $98 forward single #
loop $-1 $99 $100 $46 #
cone-surface $-1 -19.63272795403655 25.139644348186863 6.5435444143608423 0 -0.73135370988377701 -0.68199835119979291 1.5 0 0 1 I I 0 1 1.5 forward I I I I #
face $-1 $101 $102 $36 $-1 $103 forward single #
loop $-1 $104 $105 $47 #
cone-surface $-1 -13.764586341755866 25.139644348186863 6.5435444143608423 0 -0.73135370988377701 -0.68199835119979291 1.5 0 0 1 I I 0 1 1.5 forward I I I I #
face $-1 $106 $107 $37 $-1 $108 forward single #
loop $-1 $109 $110 $48 #
cone-surface $-1 -7.8964447294751849 25.139644348186863 6.5435444143608423 0 -0.73135370988377701 -0.68199835119979291 1.5 0 0 1 I I 0 1 1.5 forward I I I I #
face $-1 $111 $112 $38 $-1 $113 reversed single #
loop $-1 $-1 $114 $49 #
plane-surface $-1 -7.1054273576010019e-015 -82.430083917413512 91.331730221040317 -1 0 0 0 -0.50000000669873634 0.8660253999169214 forward_v I I I I #
face $-1 $115 $116 $39 $-1 $117 forward single #
loop $-1 $118 $119 $50 #
cone-surface $-1 -11.557832069917573 -21.570671794947263 6.4262627811200872 0 0.50000000669873634 -0.8660253999169214 1.5 0 0 1 I I 0 1 1.5 forward I I I I #
face $-1 $120 $121 $40 $-1 $122 forward single #
loop $-1 $123 $124 $51 #
cone-surface $-1 -4.6231328279670336 -21.570671794947263 6.4262627811200872 0 0.50000000669873634 -0.8660253999169214 1.5 0 0 1 I I 0 1 1.5 forward I I I I #
face $-1 $125 $126 $41 $-1 $127 reversed single #
loop $-1 $-1 $128 $52 #
plane-surface $-1 43.242871230064019 -31.096729550669991 2.4197539231638956 0 -0.50000000669873634 0.8660253999169214 1 0 0 forward_v I I I I #
face $-1 $129 $130 $42 $-1 $131 forward single #
loop $-1 $132 $133 $53 #
cone-surface $-1 39.775521609088734 -21.570671794947263 6.4262627811200872 0 0.50000000669873634 -0.8660253999169214 1.5 0 0 1 I I 0 1 1.5 forward I I I I #
face $-1 $134 $135 $43 $-1 $136 forward single #
loop $-1 $137 $138 $54 #
cone-surface $-1 46.710220851039274 -21.570671794947263 6.4262627811200872 0 0.50000000669873634 -0.8660253999169214 1.5 0 0 1 I I 0 1 1.5 forward I I I I #
face $-1 $139 $140 $33 $-1 $141 reversed single #
loop $-1 $-1 $142 $55 #
plane-surface $-1 0 0 -12.672816493877125 0 0 1 1 0 0 forward_v I I I I #
coedge $-1 $143 $144 $145 $146 forward $56 $-1 #
face $-1 $147 $148 $34 $-1 $149 reversed single #
loop $-1 $-1 $150 $58 #
plane-surface $-1 -13.764586341755873 -11.319107011855607 49.352536282216391 0 0.73135370988377701 0.68199835119979291 1 0 0 forward_v I I I I #
coedge $-1 $151 $152 $153 $154 reversed $59 $-1 #
face $-1 $-1 $155 $35 $-1 $156 forward single #
loop $-1 $157 $158 $61 #
cone-surface $-1 -19.63272795403655 22.739766531097995 4.3056221994100703 0 -0.73135370988377701 -0.68199835119979291 0.75 0 0 1 I I -0.70710678118654757 0.70710678118654757 0.75 forward I I I I #
loop $-1 $-1 $159 $46 #
coedge $-1 $100 $100 $160 $161 reversed $62 $-1 #
face $-1 $-1 $162 $36 $-1 $163 forward single #
loop $-1 $164 $165 $64 #
cone-surface $-1 -13.764586341755866 22.739766531097995 4.3056221994100703 0 -0.73135370988377701 -0.68199835119979291 0.75 0 0 1 I I -0.70710678118654757 0.70710678118654757 0.75 forward I I I I #
loop $-1 $-1 $166 $47 #
coedge $-1 $105 $105 $167 $168 reversed $65 $-1 #
face $-1 $-1 $169 $37 $-1 $170 forward single #
loop $-1 $171 $172 $67 #
cone-surface $-1 -7.8964447294751849 22.739766531097995 4.3056221994100703 0 -0.73135370988377701 -0.68199835119979291 0.75 0 0 1 I I -0.70710678118654757 0.70710678118654757 0.75 forward I I I I #
loop $-1 $-1 $173 $48 #
coedge $-1 $110 $110 $174 $175 reversed $68 $-1 #
face $-1 $176 $177 $38 $-1 $178 reversed single #
loop $-1 $-1 $179 $70 #
plane-surface $-1 -8.0904824489423035 -31.096729550669991 2.4197539231638956 0 -0.50000000669873634 0.8660253999169214 1 0 0 forward_v I I I I #
coedge $-1 $180 $181 $182 $183 reversed $71 $-1 #
face $-1 $-1 $184 $39 $-1 $185 forward single #
loop $-1 $186 $187 $73 #
cone-surface $-1 -11.557832069917573 -20.549026528413947 4.6567213037819819 0 0.50000000669873634 -0.8660253999169214 0.75 0 0 1 I I -0.70710678118654757 0.70710678118654757 0.75 forward I I I I #
loop $-1 $-1 $188 $50 #
coedge $-1 $119 $119 $189 $190 reversed $74 $-1 #
face $-1 $-1 $191 $40 $-1 $192 forward single #
loop $-1 $193 $194 $76 #
cone-surface $-1 -4.6231328279670336 -20.549026528413947 4.6567213037819819 0 0.50000000669873634 -0.8660253999169214 0.75 0 0 1 I I -0.70710678118654757 0.70710678118654757 0.75 forward I I I I #
loop $-1 $-1 $195 $51 #
coedge $-1 $124 $124 $196 $197 reversed $77 $-1 #
face $-1 $198 $199 $41 $-1 $200 reversed single #
loop $-1 $-1 $201 $79 #
plane-surface $-1 35.152388781121722 -82.430083917413512 91.331730221040317 1 0 0 0 0.50000000669873634 -0.8660253999169214 forward_v I I I I #
coedge $-1 $202 $203 $204 $205 reversed $80 $-1 #
face $-1 $-1 $206 $42 $-1 $207 forward single #
loop $-1 $208 $209 $82 #
cone-surface $-1 39.775521609088734 -20.549026528413947 4.6567213037819819 0 0.50000000669873634 -0.8660253999169214 0.75 0 0 1 I I -0.70710678118654757 0.70710678118654757 0.75 forward I I I I #
loop $-1 $-1 $210 $53 #
coedge $-1 $133 $133 $211 $212 reversed $83 $-1 #
face $-1 $-1 $213 $43 $-1 $214 forward single #
loop $-1 $215 $216 $85 #
cone-surface $-1 46.710220851039274 -20.549026528413947 4.6567213037819819 0 0.50000000669873634 -0.8660253999169214 0.75 0 0 1 I I -0.70710678118654757 0.70710678118654757 0.75 forward I I I I #
loop $-1 $-1 $217 $54 #
coedge $-1 $138 $138 $218 $219 reversed $86 $-1 #
face $-1 $220 $221 $33 $-1 $222 reversed single #
loop $-1 $-1 $223 $88 #
plane-surface $-1 0 -31.096729550669995 0 0 1 0 0 0 1 forward_v I I I I #
coedge $-1 $224 $225 $226 $227 forward $89 $-1 #
coedge $-1 $228 $91 $229 $230 forward $56 $-1 #
coedge $-1 $91 $228 $231 $232 forward $56 $-1 #
coedge $-1 $233 $234 $91 $146 reversed $235 $-1 #
edge $-1 $236 -31.096729550669995 $237 31.096729550669995 $145 $238 forward 7 unknown #
face $-1 $239 $240 $34 $-1 $241 reversed single #
loop $-1 $-1 $242 $92 #
plane-surface $-1 -3.9843503212880709 63.76657029597898 119.37106142349265 -1 0 0 0 0.73135370988377701 0.68199835119979291 forward_v I I I I #
coedge $-1 $243 $244 $245 $246 reversed $93 $-1 #
coedge $-1 $152 $95 $247 $248 reversed $59 $-1 #
coedge $-1 $95 $151 $243 $249 reversed $59 $-1 #
coedge $-1 $245 $250 $95 $154 forward $251 $-1 #
edge $-1 $252 0.78655559731949509 $253 8.9980009329336568 $153 $254 forward 7 unknown #
loop $-1 $-1 $160 $96 #
plane-surface $-1 -13.764586341755873 -11.319107011855607 49.352536282216391 0 0.73135370988377701 0.68199835119979291 1 0 0 forward_v I I I I #
loop $-1 $-1 $255 $61 #
coedge $-1 $158 $158 $159 $256 reversed $97 $-1 #
coedge $-1 $159 $159 $158 $256 forward $99 $-1 #
coedge $-1 $160 $160 $100 $161 forward $155 $-1 #
edge $-1 $257 -1.0308117210889443e-015 $257 6.2831853071795996 $160 $258 forward 7 unknown #
loop $-1 $-1 $167 $101 #
plane-surface $-1 -13.764586341755873 -11.319107011855607 49.352536282216391 0 0.73135370988377701 0.68199835119979291 1 0 0 forward_v I I I I #
loop $-1 $-1 $259 $64 #
coedge $-1 $165 $165 $166 $260 reversed $102 $-1 #
coedge $-1 $166 $166 $165 $260 forward $104 $-1 #
coedge $-1 $167 $167 $105 $168 forward $162 $-1 #
edge $-1 $261 -1.0308117210889443e-015 $261 6.2831853071795996 $167 $262 forward 7 unknown #
loop $-1 $-1 $174 $106 #
plane-surface $-1 -13.764586341755873 -11.319107011855607 49.352536282216391 0 0.73135370988377701 0.68199835119979291 1 0 0 forward_v I I I I #
loop $-1 $-1 $263 $67 #
coedge $-1 $172 $172 $173 $264 reversed $107 $-1 #
coedge $-1 $173 $173 $172 $264 forward $109 $-1 #
coedge $-1 $174 $174 $110 $175 forward $169 $-1 #
edge $-1 $265 -1.0308117210889443e-015 $265 6.2831853071795996 $174 $266 forward 7 unknown #
face $-1 $267 $268 $38 $-1 $269 reversed single #
loop $-1 $-1 $270 $111 #
plane-surface $-1 -16.1809648978846 -82.430083917413512 91.331730221040317 1 0 0 0 0.50000000669873634 -0.8660253999169214 forward_v I I I I #
coedge $-1 $271 $272 $273 $274 reversed $112 $-1 #
coedge $-1 $181 $114 $275 $276 reversed $71 $-1 #
coedge $-1 $114 $180 $271 $277 reversed $71 $-1 #
coedge $-1 $273 $278 $114 $183 forward $279 $-1 #
edge $-1 $280 10.118312408036761 $281 27.877137396463677 $182 $282 forward 7 unknown #
loop $-1 $-1 $189 $115 #
plane-surface $-1 -8.0904824489423035 -31.096729550669991 2.4197539231638956 0 -0.50000000669873634 0.8660253999169214 1 0 0 forward_v I I I I #
loop $-1 $-1 $283 $73 #
coedge $-1 $187 $187 $188 $284 reversed $116 $-1 #
coedge $-1 $188 $188 $187 $284 forward $118 $-1 #
coedge $-1 $189 $189 $119 $190 forward $184 $-1 #
edge $-1 $285 2.5354717570031843e-016 $285 6.2831853071796004 $189 $286 forward 7 unknown #
loop $-1 $-1 $196 $120 #
plane-surface $-1 -8.0904824489423035 -31.096729550669991 2.4197539231638956 0 -0.50000000669873634 0.8660253999169214 1 0 0 forward_v I I I I #
loop $-1 $-1 $287 $76 #
coedge $-1 $194 $194 $195 $288 reversed $121 $-1 #
coedge $-1 $195 $195 $194 $288 forward $123 $-1 #
coedge $-1 $196 $196 $124 $197 forward $191 $-1 #
edge $-1 $289 2.5354717570031843e-016 $289 6.2831853071796004 $196 $290 forward 7 unknown #
face $-1 $291 $292 $41 $-1 $293 forward single #
loop $-1 $-1 $294 $125 #
plane-surface $-1 0 -31.096729550669995 0 0 1 0 0 0 1 forward_v I I I I #
coedge $-1 $295 $296 $297 $298 reversed $126 $-1 #
coedge $-1 $299 $128 $300 $301 reversed $80 $-1 #
coedge $-1 $128 $299 $295 $302 forward $80 $-1 #
coedge $-1 $297 $303 $128 $205 forward $292 $-1 #
edge $-1 $304 -29.711918063974306 $305 -13.530953166089713 $204 $306 forward 7 unknown #
loop $-1 $-1 $211 $129 #
plane-surface $-1 43.242871230064019 -31.096729550669991 2.4197539231638956 0 -0.50000000669873634 0.8660253999169214 1 0 0 forward_v I I I I #
loop $-1 $-1 $307 $82 #
coedge $-1 $209 $209 $210 $308 reversed $130 $-1 #
coedge $-1 $210 $210 $209 $308 forward $132 $-1 #
coedge $-1 $211 $211 $133 $212 forward $206 $-1 #
edge $-1 $309 2.5354717570031843e-016 $309 6.2831853071796004 $211 $310 forward 7 unknown #
loop $-1 $-1 $218 $134 #
plane-surface $-1 43.242871230064019 -31.096729550669991 2.4197539231638956 0 -0.50000000669873634 0.8660253999169214 1 0 0 forward_v I I I I #
loop $-1 $-1 $311 $85 #
coedge $-1 $216 $216 $217 $312 reversed $135 $-1 #
coedge $-1 $217 $217 $216 $312 forward $137 $-1 #
coedge $-1 $218 $218 $138 $219 forward $213 $-1 #
edge $-1 $313 2.5354717570031843e-016 $313 6.2831853071796004 $218 $314 forward 7 unknown #
face $-1 $315 $316 $33 $-1 $317 reversed single #
loop $-1 $-1 $318 $139 #
plane-surface $-1 -51.333353679006315 0 0 1 0 0 0 0 -1 forward_v I I I I #
coedge $-1 $319 $231 $320 $321 forward $140 $-1 #
coedge $-1 $322 $142 $319 $323 forward $89 $-1 #
coedge $-1 $142 $322 $324 $325 forward $89 $-1 #
coedge $-1 $234 $233 $142 $227 reversed $235 $-1 #
edge $-1 $326 -31.096729550669995 $327 31.096729550669995 $226 $328 forward 7 unknown #
coedge $-1 $144 $143 $329 $330 forward $56 $-1 #
coedge $-1 $331 $332 $143 $230 reversed $316 $-1 #
edge $-1 $237 -51.333353679006315 $333 51.333353679006315 $229 $334 forward 7 unknown #
coedge $-1 $223 $335 $144 $232 reversed $140 $-1 #
edge $-1 $336 -51.333353679006315 $236 51.333353679006315 $231 $337 forward 7 unknown #
coedge $-1 $226 $145 $335 $338 forward $235 $-1 #
coedge $-1 $145 $226 $331 $339 reversed $235 $-1 #
loop $-1 $-1 $233 $315 #
vertex $-1 $146 $340 #
vertex $-1 $146 $341 #
straight-curve $-1 51.333353679006315 0 12.672816493877125 0 1 0 I I #
face $-1 $-1 $251 $34 $-1 $342 forward single #
loop $-1 $-1 $343 $147 #
plane-surface $-1 0 31.096729550669995 0 0 -1 0 0 0 -1 forward_v I I I I #
coedge $-1 $344 $345 $346 $347 reversed $148 $-1 #
coedge $-1 $348 $150 $152 $249 forward $93 $-1 #
coedge $-1 $150 $348 $344 $349 forward $93 $-1 #
coedge $-1 $346 $153 $150 $246 forward $251 $-1 #
edge $-1 $253 -16.66252919134574 $350 2.8979428495898656 $245 $351 forward 7 unknown #
coedge $-1 $352 $353 $151 $248 forward $240 $-1 #
edge $-1 $354 -55.818411473799863 $252 -47.012714217869203 $247 $355 forward 7 unknown #
edge $-1 $253 50.153187565245574 $354 62.193459101339947 $152 $356 forward 7 unknown #
coedge $-1 $153 $346 $352 $357 forward $251 $-1 #
loop $-1 $-1 $346 $239 #
vertex $-1 $248 $358 #
vertex $-1 $154 $359 #
straight-curve $-1 -23.544822362223677 31.88328514798949 12.672816493877122 0 -1 0 I I #
coedge $-1 $255 $255 $-1 $360 reversed $157 $-1 #
edge $-1 $361 0 $361 6.2831853071796004 $158 $362 forward 7 unknown #
vertex $-1 $161 $363 #
ellipse-curve $-1 -19.63272795403655 26.991006882862919 8.2699678659117879 0 0.73135370988377701 0.68199835119979291 1.5 0 0 1 I I #
coedge $-1 $259 $259 $-1 $364 reversed $164 $-1 #
edge $-1 $365 0 $365 6.2831853071796004 $165 $366 forward 7 unknown #
vertex $-1 $168 $367 #
ellipse-curve $-1 -13.764586341755866 26.991006882862919 8.2699678659117879 0 0.73135370988377701 0.68199835119979291 1.5 0 0 1 I I #
coedge $-1 $263 $263 $-1 $368 reversed $171 $-1 #
edge $-1 $369 0 $369 6.2831853071796004 $172 $370 forward 7 unknown #
vertex $-1 $175 $371 #
ellipse-curve $-1 -7.8964447294751849 26.991006882862919 8.2699678659117879 0 0.73135370988377701 0.68199835119979291 1.5 0 0 1 I I #
face $-1 $-1 $279 $38 $-1 $372 forward single #
loop $-1 $-1 $373 $176 #
plane-surface $-1 0 -31.096729550669995 0 0 1 0 0 0 1 forward_v I I I I #
coedge $-1 $374 $375 $376 $377 reversed $177 $-1 #
coedge $-1 $378 $179 $181 $277 forward $112 $-1 #
coedge $-1 $179 $378 $374 $379 forward $112 $-1 #
coedge $-1 $376 $182 $179 $274 forward $279 $-1 #
edge $-1 $281 -4.0452412244711446 $380 12.135723673413448 $273 $381 forward 7 unknown #
coedge $-1 $382 $383 $180 $276 forward $268 $-1 #
edge $-1 $384 -43.246111187356263 $280 -32.993048616643037 $275 $385 forward 7 unknown #
edge $-1 $281 -20.506124866696211 $384 4.1869633239728596e-015 $181 $386 forward 7 unknown #
coedge $-1 $182 $376 $382 $387 forward $279 $-1 #
loop $-1 $-1 $376 $267 #
vertex $-1 $276 $388 #
vertex $-1 $183 $389 #
straight-curve $-1 -7.1054273576010019e-015 -41.215041958706756 12.672816493877122 0 1 0 I I #
coedge $-1 $283 $283 $-1 $390 reversed $186 $-1 #
edge $-1 $391 0 $391 6.2831853071796004 $187 $392 forward 7 unknown #
vertex $-1 $190 $393 #
ellipse-curve $-1 -11.557832069917573 -22.217317056456533 7.5462852085205121 0 -0.50000000669873634 0.8660253999169214 1.5 0 0 1 I I #
coedge $-1 $287 $287 $-1 $394 reversed $193 $-1 #
edge $-1 $395 0 $395 6.2831853071796004 $194 $396 forward 7 unknown #
vertex $-1 $197 $397 #
ellipse-curve $-1 -4.6231328279670336 -22.217317056456533 7.5462852085205121 0 -0.50000000669873634 0.8660253999169214 1.5 0 0 1 I I #
face $-1 $-1 $398 $41 $-1 $399 reversed single #
loop $-1 $-1 $297 $198 #
plane-surface $-1 0 0 12.672816493877125 0 0 1 1 0 0 forward_v I I I I #
coedge $-1 $400 $401 $296 $402 forward $199 $-1 #
coedge $-1 $296 $201 $203 $302 reversed $126 $-1 #
coedge $-1 $201 $295 $294 $402 reversed $126 $-1 #
coedge $-1 $403 $204 $201 $298 forward $292 $-1 #
edge $-1 $305 -27.877137396463677 $404 -10.118312408036761 $297 $405 forward 7 unknown #
coedge $-1 $203 $202 $400 $406 reversed $80 $-1 #
coedge $-1 $407 $408 $202 $301 forward $398 $-1 #
edge $-1 $409 -12.860340333718046 $304 7.6457845329781691 $300 $410 forward 7 unknown #
edge $-1 $411 -4.1869633239728596e-015 $305 20.506124866696211 $295 $412 forward 7 unknown #
coedge $-1 $204 $403 $407 $413 forward $292 $-1 #
vertex $-1 $301 $414 #
vertex $-1 $205 $415 #
straight-curve $-1 21.621435615032009 -13.337904562243081 12.672816493877125 -1 0 0 I I #
coedge $-1 $307 $307 $-1 $416 reversed $208 $-1 #
edge $-1 $417 0 $417 6.2831853071796004 $209 $418 forward 7 unknown #
vertex $-1 $212 $419 #
ellipse-curve $-1 39.775521609088734 -22.217317056456533 7.5462852085205121 0 -0.50000000669873634 0.8660253999169214 1.5 0 0 1 I I #
coedge $-1 $311 $311 $-1 $420 reversed $215 $-1 #
edge $-1 $421 0 $421 6.2831853071796004 $216 $422 forward 7 unknown #
vertex $-1 $219 $423 #
ellipse-curve $-1 46.710220851039274 -22.217317056456533 7.5462852085205121 0 -0.50000000669873634 0.8660253999169214 1.5 0 0 1 I I #
face $-1 $-1 $235 $33 $-1 $424 reversed single #
loop $-1 $-1 $331 $220 #
plane-surface $-1 0 31.096729550669995 0 0 -1 0 0 0 -1 forward_v I I I I #
coedge $-1 $425 $329 $332 $426 forward $221 $-1 #
coedge $-1 $335 $223 $224 $323 reversed $140 $-1 #
coedge $-1 $329 $425 $223 $321 reversed $221 $-1 #
edge $-1 $336 -12.672816493877125 $427 12.672816493877125 $320 $428 forward 7 unknown #
coedge $-1 $225 $224 $425 $429 forward $89 $-1 #
edge $-1 $327 -51.333353679006315 $427 51.333353679006315 $319 $430 forward 7 unknown #
coedge $-1 $332 $331 $225 $325 reversed $316 $-1 #
edge $-1 $431 -51.333353679006315 $326 51.333353679006315 $324 $432 forward 7 unknown #
vertex $-1 $227 $433 #
vertex $-1 $338 $434 #
straight-curve $-1 51.333353679006315 0 -12.672816493877125 0 -1 0 I I #
coedge $-1 $318 $320 $228 $330 reversed $221 $-1 #
edge $-1 $333 -31.096729550669995 $336 31.096729550669995 $329 $435 forward 7 unknown #
coedge $-1 $324 $229 $234 $339 forward $316 $-1 #
coedge $-1 $229 $324 $318 $426 reversed $316 $-1 #
vertex $-1 $230 $436 #
straight-curve $-1 0 31.096729550669995 12.672816493877125 -1 0 0 I I #
coedge $-1 $231 $319 $233 $338 reversed $140 $-1 #
vertex $-1 $330 $437 #
straight-curve $-1 0 -31.096729550669995 12.672816493877125 1 0 0 I I #
edge $-1 $236 -12.672816493877125 $327 12.672816493877125 $233 $438 forward 7 unknown #
edge $-1 $237 -12.672816493877125 $326 12.672816493877125 $234 $439 forward 7 unknown #
point $-1 51.333353679006315 -31.096729550669995 12.672816493877125 #
point $-1 51.333353679006315 31.096729550669995 12.672816493877125 #
plane-surface $-1 0 0 12.672816493877125 0 0 1 1 0 0 forward_v I I I I #
coedge $-1 $353 $352 $345 $440 forward $240 $-1 #
coedge $-1 $345 $242 $244 $349 reversed $148 $-1 #
coedge $-1 $242 $344 $343 $440 reversed $148 $-1 #
coedge $-1 $250 $245 $242 $347 forward $251 $-1 #
edge $-1 $350 -8.9980009329336568 $441 -0.78655559731949509 $346 $442 forward 7 unknown #
coedge $-1 $244 $243 $353 $443 reversed $93 $-1 #
edge $-1 $444 -62.193459101339947 $350 -50.153187565245574 $344 $445 forward 7 unknown #
vertex $-1 $246 $446 #
straight-curve $-1 -6.8822931708779365 22.885284215055833 12.672816493877122 1 0 0 I I #
coedge $-1 $343 $247 $250 $357 reversed $240 $-1 #
coedge $-1 $247 $343 $348 $443 forward $240 $-1 #
vertex $-1 $248 $447 #
straight-curve $-1 -23.544822362223677 31.096729550669995 59.685530711746324 0 0 1 I I #
straight-curve $-1 -23.544822362223677 -11.319107011855607 49.352536282216391 0 0.68199835119979291 -0.73135370988377701 I I #
edge $-1 $441 3.9843503212880709 $252 23.544822362223677 $352 $448 forward 7 unknown #
point $-1 -23.544822362223677 31.096729550669995 12.672816493877125 #
point $-1 -23.544822362223677 22.885284215055833 12.672816493877122 #
edge $-1 $449 1 $449 0 $255 $-1 forward 7 unknown #
vertex $-1 $256 $450 #
ellipse-curve $-1 -19.63272795403655 23.288281813510828 4.8171209628099145 0 0.73135370988377701 0.68199835119979291 1.5 0 0 1 I I #
point $-1 -18.13272795403655 26.991006882862898 8.2699678659117701 #
edge $-1 $451 1 $451 0 $259 $-1 forward 7 unknown #
vertex $-1 $260 $452 #
ellipse-curve $-1 -13.764586341755866 23.288281813510828 4.8171209628099145 0 0.73135370988377701 0.68199835119979291 1.5 0 0 1 I I #
point $-1 -12.264586341755866 26.991006882862898 8.2699678659117701 #
edge $-1 $453 1 $453 0 $263 $-1 forward 7 unknown #
vertex $-1 $264 $454 #
ellipse-curve $-1 -7.8964447294751849 23.288281813510828 4.8171209628099145 0 0.73135370988377701 0.68199835119979291 1.5 0 0 1 I I #
point $-1 -6.3964447294751849 26.991006882862898 8.2699678659117701 #
plane-surface $-1 0 0 12.672816493877125 0 0 1 1 0 0 forward_v I I I I #
coedge $-1 $383 $382 $375 $455 forward $268 $-1 #
coedge $-1 $375 $270 $272 $379 reversed $177 $-1 #
coedge $-1 $270 $374 $373 $455 reversed $177 $-1 #
coedge $-1 $278 $273 $270 $377 forward $279 $-1 #
edge $-1 $380 -27.877137396463677 $456 -10.118312408036761 $376 $457 forward 7 unknown #
coedge $-1 $272 $271 $383 $458 reversed $112 $-1 #
edge $-1 $459 -4.1869633239728596e-015 $380 20.506124866696211 $374 $460 forward 7 unknown #
vertex $-1 $274 $461 #
straight-curve $-1 -4.0452412244711518 -13.337904562243081 12.672816493877125 -1 0 0 I I #
coedge $-1 $373 $275 $278 $387 reversed $268 $-1 #
coedge $-1 $275 $373 $378 $458 forward $268 $-1 #
vertex $-1 $276 $462 #
straight-curve $-1 -7.1054273576010019e-015 -31.096729550669995 45.665865110520159 0 0 1 I I #
straight-curve $-1 -7.1054273576010019e-015 -31.096729550669991 2.4197539231638956 0 -0.8660253999169214 -0.50000000669873634 I I #
edge $-1 $456 -16.1809648978846 $280 -7.1054273576010019e-015 $382 $463 forward 7 unknown #
point $-1 -7.1054273576010019e-015 -31.096729550669995 12.672816493877125 #
point $-1 -7.1054273576010019e-015 -13.337904562243079 12.672816493877125 #
edge $-1 $464 1 $464 0 $283 $-1 forward 7 unknown #
vertex $-1 $284 $465 #
ellipse-curve $-1 -11.557832069917573 -20.924026533437999 5.306240353719673 0 -0.50000000669873634 0.8660253999169214 1.5 0 0 1 I I #
point $-1 -10.057832069917573 -22.217317056456526 7.5462852085205006 #
edge $-1 $466 1 $466 0 $287 $-1 forward 7 unknown #
vertex $-1 $288 $467 #
ellipse-curve $-1 -4.6231328279670336 -20.924026533437999 5.306240353719673 0 -0.50000000669873634 0.8660253999169214 1.5 0 0 1 I I #
point $-1 -3.1231328279670336 -22.217317056456526 7.5462852085205006 #
loop $-1 $-1 $300 $291 #
plane-surface $-1 51.333353679006315 0 0 -1 0 0 0 0 1 forward_v I I I I #
coedge $-1 $468 $294 $299 $406 forward $199 $-1 #
coedge $-1 $294 $468 $403 $469 reversed $199 $-1 #
edge $-1 $404 32.993048616643037 $411 43.246111187356263 $294 $470 forward 7 unknown #
coedge $-1 $303 $297 $401 $469 forward $292 $-1 #
vertex $-1 $469 $471 #
straight-curve $-1 35.152388781121722 -41.215041958706756 12.672816493877122 0 -1 0 I I #
edge $-1 $411 13.530953166089713 $409 29.711918063974306 $400 $472 forward 7 unknown #
coedge $-1 $408 $300 $303 $413 reversed $398 $-1 #
coedge $-1 $300 $407 $468 $473 forward $398 $-1 #
vertex $-1 $406 $474 #
straight-curve $-1 51.333353679006315 -19.95934817009411 8.849924176170946 0 0.8660253999169214 0.50000000669873634 I I #
vertex $-1 $406 $475 #
straight-curve $-1 35.152388781121722 -31.096729550669991 2.4197539231638956 0 0.8660253999169214 0.50000000669873634 I I #
edge $-1 $476 -31.096729550669995 $304 -13.337904562243079 $407 $477 forward 7 unknown #
point $-1 51.333353679006315 -13.337904562243079 12.672816493877125 #
point $-1 35.152388781121722 -13.337904562243079 12.672816493877125 #
edge $-1 $478 1 $478 0 $307 $-1 forward 7 unknown #
vertex $-1 $308 $479 #
ellipse-curve $-1 39.775521609088734 -20.924026533437999 5.306240353719673 0 -0.50000000669873634 0.8660253999169214 1.5 0 0 1 I I #
point $-1 41.275521609088734 -22.217317056456526 7.5462852085205006 #
edge $-1 $480 1 $480 0 $311 $-1 forward 7 unknown #
vertex $-1 $312 $481 #
ellipse-curve $-1 46.710220851039274 -20.924026533437999 5.306240353719673 0 -0.50000000669873634 0.8660253999169214 1.5 0 0 1 I I #
point $-1 48.210220851039274 -22.217317056456526 7.5462852085205006 #
plane-surface $-1 51.333353679006315 0 0 -1 0 0 0 0 1 forward_v I I I I #
coedge $-1 $320 $318 $322 $429 reversed $221 $-1 #
edge $-1 $333 -12.672816493877125 $431 12.672816493877125 $332 $482 forward 7 unknown #
vertex $-1 $429 $483 #
straight-curve $-1 -51.333353679006315 -31.096729550669995 0 0 0 -1 I I #
edge $-1 $427 -31.096729550669995 $431 31.096729550669995 $425 $484 forward 7 unknown #
straight-curve $-1 0 -31.096729550669995 -12.672816493877125 -1 0 0 I I #
vertex $-1 $325 $485 #
straight-curve $-1 0 31.096729550669995 -12.672816493877125 1 0 0 I I #
point $-1 51.333353679006315 31.096729550669995 -12.672816493877125 #
point $-1 51.333353679006315 -31.096729550669995 -12.672816493877125 #
straight-curve $-1 -51.333353679006315 0 12.672816493877125 0 -1 0 I I #
point $-1 -51.333353679006315 31.096729550669995 12.672816493877125 #
point $-1 -51.333353679006315 -31.096729550669995 12.672816493877125 #
straight-curve $-1 51.333353679006315 -31.096729550669995 0 0 0 -1 I I #
straight-curve $-1 51.333353679006315 31.096729550669995 0 0 0 -1 I I #
edge $-1 $441 47.012714217869203 $444 55.818411473799863 $343 $486 forward 7 unknown #
vertex $-1 $357 $487 #
straight-curve $-1 -3.9843503212880709 31.88328514798949 12.672816493877122 0 1 0 I I #
edge $-1 $444 -2.8979428495898656 $354 16.66252919134574 $353 $488 forward 7 unknown #
vertex $-1 $443 $489 #
straight-curve $-1 -3.9843503212880709 -11.319107011855607 49.352536282216391 0 -0.68199835119979291 0.73135370988377701 I I #
point $-1 -3.9843503212880709 22.885284215055833 12.672816493877122 #
point $-1 -23.544822362223677 31.096729550669991 3.8671192379464614 #
straight-curve $-1 0 31.096729550669995 12.672816493877125 -1 0 0 I I #
vertex $-1 $360 $490 #
point $-1 -18.13272795403655 23.288281813510828 4.8171209628099145 #
vertex $-1 $364 $491 #
point $-1 -12.264586341755866 23.288281813510828 4.8171209628099145 #
vertex $-1 $368 $492 #
point $-1 -6.3964447294751849 23.288281813510828 4.8171209628099145 #
edge $-1 $456 32.993048616643037 $459 43.246111187356263 $373 $493 forward 7 unknown #
vertex $-1 $387 $494 #
straight-curve $-1 -16.1809648978846 -41.215041958706756 12.672816493877122 0 -1 0 I I #
edge $-1 $459 -12.135723673413448 $384 4.0452412244711446 $383 $495 forward 7 unknown #
vertex $-1 $458 $496 #
straight-curve $-1 -16.1809648978846 -31.096729550669991 2.4197539231638956 0 0.8660253999169214 0.50000000669873634 I I #
point $-1 -16.1809648978846 -13.337904562243079 12.672816493877125 #
point $-1 -7.1054273576010019e-015 -31.096729550669995 2.4197539231638934 #
straight-curve $-1 0 -31.096729550669995 12.672816493877125 1 0 0 I I #
vertex $-1 $390 $497 #
point $-1 -10.057832069917573 -20.924026533437999 5.306240353719673 #
vertex $-1 $394 $498 #
point $-1 -3.1231328279670336 -20.924026533437999 5.306240353719673 #
coedge $-1 $401 $400 $408 $473 reversed $199 $-1 #
edge $-1 $404 35.152388781121722 $476 51.333353679006315 $401 $499 forward 7 unknown #
straight-curve $-1 35.152388781121722 -31.096729550669995 45.665865110520159 0 0 -1 I I #
point $-1 35.152388781121722 -31.096729550669995 12.672816493877125 #
straight-curve $-1 21.621435615032009 -31.096729550669995 2.4197539231638929 1 0 0 I I #
edge $-1 $476 -12.672816493877125 $409 -2.4197539231638934 $408 $500 forward 7 unknown #
point $-1 51.333353679006315 -31.096729550669995 2.4197539231638934 #
point $-1 35.152388781121722 -31.096729550669995 2.4197539231638934 #
vertex $-1 $413 $501 #
straight-curve $-1 51.333353679006315 0 12.672816493877125 0 1 0 I I #
vertex $-1 $416 $502 #
point $-1 41.275521609088734 -20.924026533437999 5.306240353719673 #
vertex $-1 $420 $503 #
point $-1 48.210220851039274 -20.924026533437999 5.306240353719673 #
straight-curve $-1 -51.333353679006315 31.096729550669995 0 0 0 -1 I I #
point $-1 -51.333353679006315 -31.096729550669995 -12.672816493877125 #
straight-curve $-1 -51.333353679006315 0 -12.672816493877125 0 1 0 I I #
point $-1 -51.333353679006315 31.096729550669995 -12.672816493877125 #
straight-curve $-1 -3.9843503212880709 31.096729550669995 59.685530711746324 0 0 -1 I I #
point $-1 -3.9843503212880709 31.096729550669995 12.672816493877125 #
straight-curve $-1 -6.8822931708779365 31.096729550669991 3.8671192379464649 -1 0 0 I I #
point $-1 -3.9843503212880709 31.096729550669991 3.8671192379464614 #
point $-1 -19.63272795403655 22.191251248685163 3.7941234360102256 #
point $-1 -13.764586341755866 22.191251248685163 3.7941234360102256 #
point $-1 -7.8964447294751849 22.191251248685163 3.7941234360102256 #
straight-curve $-1 -16.1809648978846 -31.096729550669995 45.665865110520159 0 0 -1 I I #
point $-1 -16.1809648978846 -31.096729550669995 12.672816493877125 #
straight-curve $-1 -4.0452412244711518 -31.096729550669995 2.4197539231638929 1 0 0 I I #
point $-1 -16.1809648978846 -31.096729550669995 2.4197539231638934 #
point $-1 -11.557832069917573 -20.174026523389895 4.0072022538442909 #
point $-1 -4.6231328279670336 -20.174026523389895 4.0072022538442909 #
straight-curve $-1 0 -31.096729550669995 12.672816493877125 1 0 0 I I #
straight-curve $-1 51.333353679006315 -31.096729550669995 0 0 0 -1 I I #
point $-1 51.333353679006315 -31.096729550669995 12.672816493877125 #
point $-1 39.775521609088734 -20.174026523389895 4.0072022538442909 #
point $-1 46.710220851039274 -20.174026523389895 4.0072022538442909 #
End-of-ACIS-data 