500 0 8 0           
7 Unknown 11 ACIS 5.0 NT 24 Fri Mar 26 16:51:26 1999 
-1 9.9999999999999995e-007 1e-010 
body $-1 $8 $-1 $9 #
body $-1 $10 $-1 $11 #
body $-1 $12 $-1 $13 #
body $-1 $14 $-1 $15 #
body $-1 $16 $-1 $17 #
body $-1 $18 $-1 $19 #
body $-1 $20 $-1 $21 #
body $-1 $22 $-1 $23 #
lump $-1 $-1 $24 $0 #
transform $-1 1 0 0 0 1 0 0 0 1 63.217261268959625 39.771098635111983 9.0025396187166695 1 rotate no_reflect no_shear #
lump $-1 $-1 $25 $1 #
transform $-1 1 0 0 0 1 0 0 0 1 63.217261268959625 39.771098635111983 9.0025396187166695 1 rotate no_reflect no_shear #
lump $-1 $-1 $26 $2 #
transform $-1 1 0 0 0 1 0 0 0 1 63.217261268959625 39.771098635111983 9.0025396187166695 1 rotate no_reflect no_shear #
lump $-1 $-1 $27 $3 #
transform $-1 1 0 0 0 1 0 0 0 1 63.217261268959625 39.771098635111983 9.0025396187166695 1 rotate no_reflect no_shear #
lump $-1 $-1 $28 $4 #
transform $-1 1 0 0 0 1 0 0 0 1 63.217261268959625 39.771098635111983 9.0025396187166695 1 rotate no_reflect no_shear #
lump $-1 $-1 $29 $5 #
transform $-1 1 0 0 0 1 0 0 0 1 63.217261268959625 39.771098635111983 9.0025396187166695 1 rotate no_reflect no_shear #
lump $-1 $-1 $30 $6 #
transform $-1 1 0 0 0 1 0 0 0 1 63.217261268959625 39.771098635111983 9.0025396187166695 1 rotate no_reflect no_shear #
lump $-1 $-1 $31 $7 #
transform $-1 1 0 0 0 1 0 0 0 1 63.217261268959625 39.771098635111983 9.0025396187166695 1 rotate no_reflect no_shear #
shell $-1 $-1 $-1 $32 $-1 $8 #
shell $-1 $-1 $-1 $33 $-1 $10 #
shell $-1 $-1 $-1 $34 $-1 $12 #
shell $-1 $-1 $-1 $35 $-1 $14 #
shell $-1 $-1 $-1 $36 $-1 $16 #
shell $-1 $-1 $-1 $37 $-1 $18 #
shell $-1 $-1 $-1 $38 $-1 $20 #
shell $-1 $-1 $-1 $39 $-1 $22 #
face $-1 $40 $41 $24 $-1 $42 forward single #
face $-1 $43 $44 $25 $-1 $45 forward single #
face $-1 $46 $47 $26 $-1 $48 reversed single #
face $-1 $49 $50 $27 $-1 $51 forward single #
face $-1 $52 $53 $28 $-1 $54 forward single #
face $-1 $55 $56 $29 $-1 $57 reversed single #
face $-1 $58 $59 $30 $-1 $60 forward single #
face $-1 $61 $62 $31 $-1 $63 forward single #
face $-1 $64 $65 $24 $-1 $66 reversed single #
loop $-1 $-1 $67 $32 #
plane-surface $-1 0 0 9.0025396187166695 0 0 1 1 0 0 forward_v I I I I #
face $-1 $68 $69 $25 $-1 $70 reversed single #
loop $-1 $-1 $71 $33 #
plane-surface $-1 -57.43579114731245 0 6.376935537413603 0 0 1 1 0 0 forward_v I I I I #
face $-1 $72 $73 $26 $-1 $74 reversed single #
loop $-1 $-1 $75 $34 #
plane-surface $-1 33.19822162448061 -143.34019726914781 73.396418670632073 1 0 0 0 0.81915205242281985 -0.57357642473473569 forward_v I I I I #
face $-1 $76 $77 $27 $-1 $78 forward single #
loop $-1 $79 $80 $35 #
cone-surface $-1 41.775090094331766 -35.30641954827621 3.8053928329668123 0 0.81915205242281985 -0.57357642473473569 1 0 0 1 I I 0 1 1 forward I I I I #
face $-1 $81 $82 $28 $-1 $83 forward single #
loop $-1 $84 $85 $36 #
cone-surface $-1 54.64039279910849 -35.30641954827621 3.8053928329668123 0 0.81915205242281985 -0.57357642473473569 1 0 0 1 I I 0 1 1 forward I I I I #
face $-1 $86 $87 $29 $-1 $88 reversed single #
loop $-1 $-1 $89 $37 #
plane-surface $-1 -36.646554058162167 -22.044798235500551 53.457140650589011 0 0.62932039886446345 0.77714595512881146 1 0 0 forward_v I I I I #
face $-1 $90 $91 $30 $-1 $92 forward single #
loop $-1 $93 $94 $38 #
cone-surface $-1 -43.078454187092071 35.677659623197478 5.4182502211785444 0 -0.62932039886446345 -0.77714595512881146 1 0 0 1 I I 0 1 1 forward I I I I #
face $-1 $95 $96 $31 $-1 $97 forward single #
loop $-1 $98 $99 $39 #
cone-surface $-1 -30.214653929232263 35.677659623197478 5.4182502211785444 0 -0.62932039886446345 -0.77714595512881146 1 0 0 1 I I 0 1 1 forward I I I I #
face $-1 $100 $101 $24 $-1 $102 reversed single #
loop $-1 $-1 $103 $40 #
plane-surface $-1 0 0 -9.0025396187166695 0 0 1 1 0 0 forward_v I I I I #
coedge $-1 $104 $105 $106 $107 forward $41 $-1 #
face $-1 $108 $109 $25 $-1 $110 reversed single #
loop $-1 $-1 $111 $43 #
plane-surface $-1 -57.43579114731245 0 1.0686049617361011 0 0 1 1 0 0 forward_v I I I I #
coedge $-1 $112 $113 $114 $115 forward $44 $-1 #
face $-1 $116 $117 $26 $-1 $118 forward single #
loop $-1 $-1 $119 $46 #
plane-surface $-1 48.207741446720114 -39.771098635111997 0.87655727028899832 0 -0.81915205242281985 0.57357642473473569 1 0 0 forward_v I I I I #
coedge $-1 $120 $121 $122 $123 reversed $47 $-1 #
face $-1 $-1 $124 $27 $-1 $125 forward single #
loop $-1 $126 $127 $49 #
cone-surface $-1 41.775090094331766 -33.277101397227213 2.3844490090634292 0 0.81915205242281985 -0.57357642473473569 0.5 0 0 1 I I -0.70710678118654746 0.70710678118654746 0.5 forward I I I I #
loop $-1 $-1 $128 $35 #
coedge $-1 $80 $80 $129 $130 reversed $50 $-1 #
face $-1 $-1 $131 $28 $-1 $132 forward single #
loop $-1 $133 $134 $52 #
cone-surface $-1 54.64039279910849 -33.277101397227213 2.3844490090634292 0 0.81915205242281985 -0.57357642473473569 0.5 0 0 1 I I -0.70710678118654746 0.70710678118654746 0.5 forward I I I I #
loop $-1 $-1 $135 $36 #
coedge $-1 $85 $85 $136 $137 reversed $53 $-1 #
face $-1 $138 $139 $29 $-1 $140 reversed single #
loop $-1 $-1 $141 $55 #
plane-surface $-1 -21.638787090659058 57.523025918300789 151.71521842957551 -1 0 0 0 0.62932039886446345 0.77714595512881146 forward_v I I I I #
coedge $-1 $142 $143 $144 $145 reversed $56 $-1 #
face $-1 $-1 $146 $30 $-1 $147 forward single #
loop $-1 $148 $149 $58 #
cone-surface $-1 -43.078454187092071 34.72907920692758 4.2468509864664252 0 -0.62932039886446345 -0.77714595512881146 0.5 0 0 1 I I -0.70710678118654746 0.70710678118654746 0.5 forward I I I I #
loop $-1 $-1 $150 $38 #
coedge $-1 $94 $94 $151 $152 reversed $59 $-1 #
face $-1 $-1 $153 $31 $-1 $154 forward single #
loop $-1 $155 $156 $61 #
cone-surface $-1 -30.214653929232263 34.72907920692758 4.2468509864664252 0 -0.62932039886446345 -0.77714595512881146 0.5 0 0 1 I I -0.70710678118654746 0.70710678118654746 0.5 forward I I I I #
loop $-1 $-1 $157 $39 #
coedge $-1 $99 $99 $158 $159 reversed $62 $-1 #
face $-1 $160 $161 $24 $-1 $162 reversed single #
loop $-1 $-1 $163 $64 #
plane-surface $-1 0 -39.771098635111983 0 0 1 0 0 0 1 forward_v I I I I #
coedge $-1 $164 $165 $166 $167 forward $65 $-1 #
coedge $-1 $168 $67 $169 $170 forward $41 $-1 #
coedge $-1 $67 $168 $171 $172 forward $41 $-1 #
coedge $-1 $173 $174 $67 $107 reversed $175 $-1 #
edge $-1 $176 -39.771098635111983 $177 39.771098635111983 $106 $178 forward 7 unknown #
face $-1 $179 $180 $25 $-1 $181 reversed single #
loop $-1 $-1 $114 $68 #
plane-surface $-1 -51.654321025665276 0 3.722770249574852 -1 0 0 0 0 1 forward_v I I I I #
coedge $-1 $182 $183 $184 $185 forward $69 $-1 #
coedge $-1 $186 $71 $187 $188 reversed $44 $-1 #
coedge $-1 $71 $186 $189 $190 reversed $44 $-1 #
coedge $-1 $191 $192 $71 $115 reversed $109 $-1 #
edge $-1 $193 -39.771098635111983 $194 39.771098635111983 $114 $195 forward 7 unknown #
face $-1 $196 $197 $26 $-1 $198 reversed single #
loop $-1 $-1 $199 $72 #
plane-surface $-1 0 0 9.0025396187166695 0 0 1 1 0 0 forward_v I I I I #
coedge $-1 $200 $201 $202 $203 reversed $73 $-1 #
coedge $-1 $121 $75 $204 $205 reversed $47 $-1 #
coedge $-1 $75 $120 $200 $206 reversed $47 $-1 #
coedge $-1 $202 $207 $75 $123 forward $197 $-1 #
edge $-1 $208 27.695669716599369 $209 35.821652065027017 $122 $210 forward 7 unknown #
loop $-1 $-1 $129 $76 #
plane-surface $-1 48.207741446720114 -39.771098635111997 0.87655727028899832 0 -0.81915205242281985 0.57357642473473569 1 0 0 forward_v I I I I #
loop $-1 $-1 $211 $49 #
coedge $-1 $127 $127 $128 $212 reversed $77 $-1 #
coedge $-1 $128 $128 $127 $212 forward $79 $-1 #
coedge $-1 $129 $129 $80 $130 forward $124 $-1 #
edge $-1 $213 4.9509851058053454e-015 $213 6.2831853071796058 $129 $214 forward 7 unknown #
loop $-1 $-1 $136 $81 #
plane-surface $-1 48.207741446720114 -39.771098635111997 0.87655727028899832 0 -0.81915205242281985 0.57357642473473569 1 0 0 forward_v I I I I #
loop $-1 $-1 $215 $52 #
coedge $-1 $134 $134 $135 $216 reversed $82 $-1 #
coedge $-1 $135 $135 $134 $216 forward $84 $-1 #
coedge $-1 $136 $136 $85 $137 forward $131 $-1 #
edge $-1 $217 4.9509851058053454e-015 $217 6.2831853071796058 $136 $218 forward 7 unknown #
face $-1 $219 $220 $29 $-1 $221 forward single #
loop $-1 $-1 $222 $86 #
plane-surface $-1 0 39.771098635111983 0 0 -1 0 0 0 -1 forward_v I I I I #
coedge $-1 $223 $224 $225 $226 reversed $87 $-1 #
coedge $-1 $227 $89 $228 $229 forward $56 $-1 #
coedge $-1 $89 $227 $223 $230 forward $56 $-1 #
coedge $-1 $225 $231 $89 $145 forward $232 $-1 #
edge $-1 $233 -33.331043996584192 $234 -3.3155100615779745 $144 $235 forward 7 unknown #
loop $-1 $-1 $151 $90 #
plane-surface $-1 -36.646554058162167 -22.044798235500551 53.457140650589011 0 0.62932039886446345 0.77714595512881146 1 0 0 forward_v I I I I #
loop $-1 $-1 $236 $58 #
coedge $-1 $149 $149 $150 $237 reversed $91 $-1 #
coedge $-1 $150 $150 $149 $237 forward $93 $-1 #
coedge $-1 $151 $151 $94 $152 forward $146 $-1 #
edge $-1 $238 4.336522692660536e-015 $238 6.2831853071796049 $151 $239 forward 7 unknown #
loop $-1 $-1 $158 $95 #
plane-surface $-1 -36.646554058162167 -22.044798235500551 53.457140650589011 0 0.62932039886446345 0.77714595512881146 1 0 0 forward_v I I I I #
loop $-1 $-1 $240 $61 #
coedge $-1 $156 $156 $157 $241 reversed $96 $-1 #
coedge $-1 $157 $157 $156 $241 forward $98 $-1 #
coedge $-1 $158 $158 $99 $159 forward $153 $-1 #
edge $-1 $242 4.336522692660536e-015 $242 6.2831853071796049 $158 $243 forward 7 unknown #
face $-1 $244 $245 $24 $-1 $246 reversed single #
loop $-1 $-1 $247 $100 #
plane-surface $-1 -63.217261268959625 0 0 1 0 0 0 0 -1 forward_v I I I I #
coedge $-1 $248 $171 $249 $250 forward $101 $-1 #
coedge $-1 $251 $103 $248 $252 forward $65 $-1 #
coedge $-1 $103 $251 $253 $254 forward $65 $-1 #
coedge $-1 $174 $173 $103 $167 reversed $175 $-1 #
edge $-1 $255 -39.771098635111983 $256 39.771098635111983 $166 $257 forward 7 unknown #
coedge $-1 $105 $104 $258 $259 forward $41 $-1 #
coedge $-1 $260 $261 $104 $170 reversed $245 $-1 #
edge $-1 $177 -63.217261268959625 $262 63.217261268959625 $169 $263 forward 7 unknown #
coedge $-1 $163 $264 $105 $172 reversed $101 $-1 #
edge $-1 $265 -63.217261268959625 $176 63.217261268959625 $171 $266 forward 7 unknown #
coedge $-1 $166 $106 $264 $267 forward $175 $-1 #
coedge $-1 $106 $166 $260 $268 reversed $175 $-1 #
loop $-1 $-1 $173 $244 #
vertex $-1 $107 $269 #
vertex $-1 $107 $270 #
straight-curve $-1 63.217261268959625 0 9.0025396187166695 0 1 0 I I #
face $-1 $271 $272 $25 $-1 $273 reversed single #
loop $-1 $-1 $274 $108 #
plane-surface $-1 0 -39.771098635111983 0 0 1 0 0 0 1 forward_v I I I I #
coedge $-1 $275 $111 $274 $276 reversed $69 $-1 #
coedge $-1 $111 $275 $277 $278 reversed $69 $-1 #
coedge $-1 $192 $191 $111 $185 reversed $109 $-1 #
edge $-1 $279 -39.771098635111983 $280 39.771098635111983 $184 $281 forward 7 unknown #
coedge $-1 $113 $112 $282 $283 reversed $44 $-1 #
coedge $-1 $284 $285 $112 $188 forward $286 $-1 #
edge $-1 $287 -34.499365695303396 $194 -22.93642545200905 $187 $288 forward 7 unknown #
coedge $-1 $289 $290 $113 $190 forward $180 $-1 #
edge $-1 $193 22.93642545200905 $291 34.499365695303396 $189 $292 forward 7 unknown #
coedge $-1 $184 $114 $290 $293 reversed $109 $-1 #
coedge $-1 $114 $184 $284 $294 reversed $109 $-1 #
vertex $-1 $190 $295 #
vertex $-1 $188 $296 #
straight-curve $-1 -51.654321025665276 0 6.376935537413603 0 1 0 I I #
face $-1 $-1 $297 $26 $-1 $298 reversed single #
loop $-1 $-1 $122 $116 #
plane-surface $-1 0 -39.771098635111983 0 0 1 0 0 0 1 forward_v I I I I #
coedge $-1 $204 $299 $300 $301 forward $117 $-1 #
coedge $-1 $300 $119 $121 $206 forward $73 $-1 #
coedge $-1 $119 $300 $302 $303 reversed $73 $-1 #
coedge $-1 $304 $122 $119 $203 forward $197 $-1 #
edge $-1 $209 9.0943509011205528 $305 39.113390545599557 $202 $306 forward 7 unknown #
coedge $-1 $307 $199 $120 $205 forward $117 $-1 #
edge $-1 $308 -37.58887392345828 $208 -31.898999999461921 $204 $309 forward 7 unknown #
edge $-1 $209 2.4793790127588779e-014 $308 9.9199926611833735 $121 $310 forward 7 unknown #
coedge $-1 $122 $304 $307 $311 reversed $197 $-1 #
vertex $-1 $311 $312 #
vertex $-1 $123 $313 #
straight-curve $-1 33.19822162448061 -39.771098635111983 36.698209335316037 0 0 -1 I I #
coedge $-1 $211 $211 $-1 $314 reversed $126 $-1 #
edge $-1 $315 0 $315 6.2831853071796004 $127 $316 forward 7 unknown #
vertex $-1 $130 $317 #
ellipse-curve $-1 41.775090094331766 -36.92616167311381 4.9395484445028366 0 -0.81915205242281985 0.57357642473473569 1 0 0 1 I I #
coedge $-1 $215 $215 $-1 $318 reversed $133 $-1 #
edge $-1 $319 0 $319 6.2831853071796004 $134 $320 forward 7 unknown #
vertex $-1 $137 $321 #
ellipse-curve $-1 54.64039279910849 -36.92616167311381 4.9395484445028366 0 -0.81915205242281985 0.57357642473473569 1 0 0 1 I I #
face $-1 $-1 $232 $29 $-1 $322 forward single #
loop $-1 $-1 $228 $138 #
plane-surface $-1 -51.654321025665276 0 3.722770249574852 -1 0 0 0 0 1 forward_v I I I I #
coedge $-1 $323 $324 $224 $325 forward $139 $-1 #
coedge $-1 $224 $141 $143 $230 reversed $87 $-1 #
coedge $-1 $141 $223 $222 $325 reversed $87 $-1 #
coedge $-1 $326 $144 $141 $226 forward $232 $-1 #
edge $-1 $234 4.0905480858079031 $327 11.009585675961588 $225 $328 forward 7 unknown #
coedge $-1 $143 $142 $323 $329 reversed $56 $-1 #
coedge $-1 $330 $331 $142 $229 reversed $220 $-1 #
edge $-1 $233 70.639059391822641 $332 79.542197270223951 $228 $333 forward 7 unknown #
edge $-1 $334 -79.542197270223951 $234 -70.639059391822641 $223 $335 forward 7 unknown #
coedge $-1 $144 $326 $330 $336 forward $232 $-1 #
loop $-1 $-1 $225 $219 #
vertex $-1 $145 $337 #
vertex $-1 $145 $338 #
straight-curve $-1 -18.323277029081083 32.852061044958297 9.0025396187166642 1 0 0 I I #
coedge $-1 $236 $236 $-1 $339 reversed $148 $-1 #
edge $-1 $340 0 $340 6.2831853071796004 $149 $341 forward 7 unknown #
vertex $-1 $152 $342 #
ellipse-curve $-1 -43.078454187092071 36.311579840035137 6.2010764783262466 0 0.62932039886446345 0.77714595512881146 1 0 0 1 I I #
coedge $-1 $240 $240 $-1 $343 reversed $155 $-1 #
edge $-1 $344 0 $344 6.2831853071796004 $156 $345 forward 7 unknown #
vertex $-1 $159 $346 #
ellipse-curve $-1 -30.214653929232263 36.311579840035137 6.2010764783262466 0 0.62932039886446345 0.77714595512881146 1 0 0 1 I I #
face $-1 $-1 $175 $24 $-1 $347 reversed single #
loop $-1 $-1 $260 $160 #
plane-surface $-1 0 39.771098635111983 0 0 -1 0 0 0 -1 forward_v I I I I #
coedge $-1 $348 $258 $261 $349 forward $161 $-1 #
coedge $-1 $264 $163 $164 $252 reversed $101 $-1 #
coedge $-1 $258 $348 $163 $250 reversed $161 $-1 #
edge $-1 $265 -9.0025396187166695 $350 9.0025396187166695 $249 $351 forward 7 unknown #
coedge $-1 $165 $164 $348 $352 forward $65 $-1 #
edge $-1 $256 -63.217261268959625 $350 63.217261268959625 $248 $353 forward 7 unknown #
coedge $-1 $261 $260 $165 $254 reversed $245 $-1 #
edge $-1 $354 -63.217261268959625 $255 63.217261268959625 $253 $355 forward 7 unknown #
vertex $-1 $167 $356 #
vertex $-1 $267 $357 #
straight-curve $-1 63.217261268959625 0 -9.0025396187166695 0 -1 0 I I #
coedge $-1 $247 $249 $168 $259 reversed $161 $-1 #
edge $-1 $262 -39.771098635111983 $265 39.771098635111983 $258 $358 forward 7 unknown #
coedge $-1 $253 $169 $174 $268 forward $245 $-1 #
coedge $-1 $169 $253 $247 $349 reversed $245 $-1 #
vertex $-1 $170 $359 #
straight-curve $-1 0 39.771098635111983 9.0025396187166695 -1 0 0 I I #
coedge $-1 $171 $248 $173 $267 reversed $101 $-1 #
vertex $-1 $259 $360 #
straight-curve $-1 0 -39.771098635111983 9.0025396187166695 1 0 0 I I #
edge $-1 $176 -9.0025396187166695 $256 9.0025396187166695 $173 $361 forward 7 unknown #
edge $-1 $177 -9.0025396187166695 $255 9.0025396187166695 $174 $362 forward 7 unknown #
point $-1 63.217261268959625 -39.771098635111983 9.0025396187166695 #
point $-1 63.217261268959625 39.771098635111983 9.0025396187166695 #
face $-1 $-1 $286 $25 $-1 $363 reversed single #
loop $-1 $-1 $364 $179 #
plane-surface $-1 -63.217261268959625 0 0 1 0 0 0 0 -1 forward_v I I I I #
coedge $-1 $290 $289 $182 $276 forward $180 $-1 #
coedge $-1 $183 $182 $364 $365 reversed $69 $-1 #
edge $-1 $366 -34.499365695303396 $280 -22.93642545200905 $274 $367 forward 7 unknown #
coedge $-1 $285 $284 $183 $278 forward $286 $-1 #
edge $-1 $279 22.93642545200905 $368 34.499365695303396 $277 $369 forward 7 unknown #
vertex $-1 $278 $370 #
vertex $-1 $276 $371 #
straight-curve $-1 -51.654321025665276 0 1.0686049617361011 0 -1 0 I I #
coedge $-1 $372 $373 $186 $283 forward $272 $-1 #
edge $-1 $291 -39.771098635111983 $287 39.771098635111983 $282 $374 forward 7 unknown #
coedge $-1 $277 $187 $192 $294 forward $286 $-1 #
coedge $-1 $187 $277 $372 $375 reversed $286 $-1 #
loop $-1 $-1 $277 $271 #
vertex $-1 $375 $376 #
straight-curve $-1 -28.717895573656225 39.771098635111983 6.376935537413603 1 0 0 I I #
coedge $-1 $274 $189 $373 $377 forward $180 $-1 #
coedge $-1 $189 $274 $191 $293 forward $180 $-1 #
vertex $-1 $377 $378 #
straight-curve $-1 -28.717895573656225 -39.771098635111983 6.376935537413603 -1 0 0 I I #
edge $-1 $280 -0.79278016305132493 $193 4.515550412626177 $290 $379 forward 7 unknown #
edge $-1 $194 -4.515550412626177 $279 0.79278016305132493 $284 $380 forward 7 unknown #
point $-1 -51.654321025665276 -39.771098635111983 6.376935537413603 #
point $-1 -51.654321025665276 39.771098635111983 6.376935537413603 #
loop $-1 $-1 $302 $196 #
plane-surface $-1 63.217261268959625 0 0 -1 0 0 0 0 1 forward_v I I I I #
coedge $-1 $199 $307 $381 $382 forward $117 $-1 #
coedge $-1 $201 $200 $199 $301 reversed $73 $-1 #
edge $-1 $383 -39.113390545599557 $308 -9.0943509011205528 $199 $384 forward 7 unknown #
coedge $-1 $381 $385 $201 $303 forward $297 $-1 #
edge $-1 $305 -11.046865437938319 $383 -1.1268727767549687 $302 $386 forward 7 unknown #
coedge $-1 $207 $202 $385 $387 reversed $197 $-1 #
vertex $-1 $203 $388 #
straight-curve $-1 24.103870723360057 -39.771098635111983 0.87655727028901387 1 0 0 I I #
coedge $-1 $299 $204 $207 $311 forward $117 $-1 #
vertex $-1 $205 $389 #
straight-curve $-1 33.19822162448061 -71.670098634573904 9.0025396187166677 0 -1 0 I I #
straight-curve $-1 33.19822162448061 -39.771098635111997 0.87655727028899832 0 0.57357642473473569 0.81915205242281985 I I #
edge $-1 $208 33.19822162448061 $390 63.217261268959625 $207 $391 forward 7 unknown #
point $-1 33.19822162448061 -39.771098635111983 9.0025396187166695 #
point $-1 33.19822162448061 -39.771098635111983 0.87655727028901864 #
edge $-1 $392 1 $392 0 $211 $-1 forward 7 unknown #
vertex $-1 $212 $393 #
ellipse-curve $-1 41.775090094331766 -33.686677423438624 2.6712372214307969 0 -0.81915205242281985 0.57357642473473569 1 0 0 1 I I #
point $-1 42.775090094331766 -36.926161673113789 4.9395484445028277 #
edge $-1 $394 1 $394 0 $215 $-1 forward 7 unknown #
vertex $-1 $216 $395 #
ellipse-curve $-1 54.64039279910849 -33.686677423438624 2.6712372214307969 0 -0.81915205242281985 0.57357642473473569 1 0 0 1 I I #
point $-1 55.64039279910849 -36.926161673113789 4.9395484445028277 #
plane-surface $-1 0 0 9.0025396187166695 0 0 1 1 0 0 forward_v I I I I #
coedge $-1 $396 $222 $227 $329 forward $139 $-1 #
coedge $-1 $222 $396 $326 $397 reversed $139 $-1 #
edge $-1 $327 66.85506959607109 $334 72.457995876851925 $222 $398 forward 7 unknown #
coedge $-1 $231 $225 $324 $397 forward $232 $-1 #
vertex $-1 $397 $399 #
straight-curve $-1 -21.638787090659058 28.761512959150394 9.0025396187166677 0 1 0 I I #
edge $-1 $334 3.3155100615779745 $332 33.331043996584192 $323 $400 forward 7 unknown #
coedge $-1 $331 $228 $231 $336 reversed $220 $-1 #
coedge $-1 $228 $330 $396 $401 reversed $220 $-1 #
vertex $-1 $401 $402 #
straight-curve $-1 -51.654321025665276 -22.044798235500551 53.457140650589011 0 0.77714595512881146 -0.62932039886446345 I I #
vertex $-1 $329 $403 #
straight-curve $-1 -21.638787090659058 -22.044798235500551 53.457140650589011 0 -0.77714595512881146 0.62932039886446345 I I #
edge $-1 $404 -11.009585675961588 $233 -4.0905480858079031 $231 $405 forward 7 unknown #
point $-1 -51.654321025665276 32.852061044958297 9.0025396187166606 #
point $-1 -21.638787090659058 32.852061044958297 9.0025396187166606 #
edge $-1 $406 1 $406 0 $236 $-1 forward 7 unknown #
vertex $-1 $237 $407 #
ellipse-curve $-1 -43.078454187092071 35.043739406359812 4.6354239640308306 0 0.62932039886446345 0.77714595512881146 1 0 0 1 I I #
point $-1 -42.078454187092071 36.311579840035151 6.2010764783262573 #
edge $-1 $408 1 $408 0 $240 $-1 forward 7 unknown #
vertex $-1 $241 $409 #
ellipse-curve $-1 -30.214653929232263 35.043739406359812 4.6354239640308306 0 0.62932039886446345 0.77714595512881146 1 0 0 1 I I #
point $-1 -29.214653929232263 36.311579840035151 6.2010764783262573 #
plane-surface $-1 63.217261268959625 0 0 -1 0 0 0 0 1 forward_v I I I I #
coedge $-1 $249 $247 $251 $352 reversed $161 $-1 #
edge $-1 $262 -9.0025396187166695 $354 9.0025396187166695 $261 $410 forward 7 unknown #
vertex $-1 $352 $411 #
straight-curve $-1 -63.217261268959625 -39.771098635111983 0 0 0 -1 I I #
edge $-1 $350 -39.771098635111983 $354 39.771098635111983 $348 $412 forward 7 unknown #
straight-curve $-1 0 -39.771098635111983 -9.0025396187166695 -1 0 0 I I #
vertex $-1 $254 $413 #
straight-curve $-1 0 39.771098635111983 -9.0025396187166695 1 0 0 I I #
point $-1 63.217261268959625 39.771098635111983 -9.0025396187166695 #
point $-1 63.217261268959625 -39.771098635111983 -9.0025396187166695 #
straight-curve $-1 -63.217261268959625 0 9.0025396187166695 0 -1 0 I I #
point $-1 -63.217261268959625 39.771098635111983 9.0025396187166695 #
point $-1 -63.217261268959625 -39.771098635111983 9.0025396187166695 #
straight-curve $-1 63.217261268959625 -39.771098635111983 0 0 0 -1 I I #
straight-curve $-1 63.217261268959625 39.771098635111983 0 0 0 -1 I I #
plane-surface $-1 0 39.771098635111983 0 0 -1 0 0 0 -1 forward_v I I I I #
coedge $-1 $373 $372 $275 $365 forward $272 $-1 #
edge $-1 $368 -39.771098635111983 $366 39.771098635111983 $364 $414 forward 7 unknown #
vertex $-1 $276 $415 #
straight-curve $-1 -28.717895573656225 -39.771098635111983 1.0686049617361011 1 0 0 I I #
vertex $-1 $278 $416 #
straight-curve $-1 -28.717895573656225 39.771098635111983 1.0686049617361011 -1 0 0 I I #
point $-1 -51.654321025665276 39.771098635111983 1.0686049617361011 #
point $-1 -51.654321025665276 -39.771098635111983 1.0686049617361011 #
coedge $-1 $364 $282 $285 $375 forward $272 $-1 #
coedge $-1 $282 $364 $289 $377 reversed $272 $-1 #
straight-curve $-1 -63.217261268959625 0 6.376935537413603 0 1 0 I I #
edge $-1 $287 -6.376935537413603 $368 -1.0686049617361011 $285 $417 forward 7 unknown #
point $-1 -63.217261268959625 39.771098635111983 6.376935537413603 #
edge $-1 $291 -6.376935537413603 $366 -1.0686049617361011 $373 $418 forward 7 unknown #
point $-1 -63.217261268959625 -39.771098635111983 6.376935537413603 #
straight-curve $-1 -51.654321025665276 -39.771098635111983 1.861385124787426 0 0 1 I I #
straight-curve $-1 -51.654321025665276 39.771098635111983 1.861385124787426 0 0 -1 I I #
coedge $-1 $385 $302 $299 $382 reversed $297 $-1 #
edge $-1 $390 -39.771098635111983 $383 -34.081224711115624 $381 $419 forward 7 unknown #
vertex $-1 $303 $420 #
straight-curve $-1 24.103870723360057 -34.081224711115624 9.0025396187166695 -1 0 0 I I #
coedge $-1 $302 $381 $304 $387 forward $297 $-1 #
straight-curve $-1 63.217261268959625 -33.434877052693608 9.925619766614906 0 0.57357642473473569 0.81915205242281985 I I #
edge $-1 $390 -9.0025396187166695 $305 -0.87655727028901864 $385 $421 forward 7 unknown #
point $-1 63.217261268959618 -39.771098635111983 0.87655727028901864 #
point $-1 33.19822162448061 -34.081224711115624 9.0025396187166695 #
vertex $-1 $382 $422 #
straight-curve $-1 0 -39.771098635111983 9.0025396187166695 1 0 0 I I #
vertex $-1 $314 $423 #
point $-1 42.775090094331766 -33.686677423438624 2.6712372214307969 #
vertex $-1 $318 $424 #
point $-1 55.64039279910849 -33.686677423438624 2.6712372214307969 #
coedge $-1 $324 $323 $331 $401 forward $139 $-1 #
edge $-1 $327 21.638787090659058 $404 51.654321025665276 $324 $425 forward 7 unknown #
straight-curve $-1 -21.638787090659058 39.771098635111983 75.857609214787757 0 0 -1 I I #
point $-1 -21.638787090659058 39.771098635111983 9.0025396187166695 #
straight-curve $-1 -18.323277029081083 39.771098635111983 3.3996133379358362 -1 0 0 I I #
edge $-1 $332 -72.457995876851925 $404 -66.85506959607109 $396 $426 forward 7 unknown #
point $-1 -51.654321025665276 39.771098635111983 3.3996133379358371 #
point $-1 -21.638787090659058 39.771098635111983 3.3996133379358398 #
vertex $-1 $401 $427 #
straight-curve $-1 -51.654321025665276 28.761512959150394 9.0025396187166677 0 -1 0 I I #
vertex $-1 $339 $428 #
point $-1 -42.078454187092071 35.043739406359812 4.6354239640308306 #
vertex $-1 $343 $429 #
point $-1 -29.214653929232263 35.043739406359812 4.6354239640308306 #
straight-curve $-1 -63.217261268959625 39.771098635111983 0 0 0 -1 I I #
point $-1 -63.217261268959625 -39.771098635111983 -9.0025396187166695 #
straight-curve $-1 -63.217261268959625 0 -9.0025396187166695 0 1 0 I I #
point $-1 -63.217261268959625 39.771098635111983 -9.0025396187166695 #
straight-curve $-1 -63.217261268959625 0 1.0686049617361011 0 -1 0 I I #
point $-1 -63.217261268959625 -39.771098635111983 1.0686049617361011 #
point $-1 -63.217261268959625 39.771098635111983 1.0686049617361011 #
straight-curve $-1 -63.217261268959625 39.771098635111983 0 0 0 -1 I I #
straight-curve $-1 -63.217261268959625 -39.771098635111983 0 0 0 -1 I I #
straight-curve $-1 63.217261268959625 0 9.0025396187166695 0 1 0 I I #
point $-1 63.217261268959618 -34.081224711115624 9.0025396187166695 #
straight-curve $-1 63.217261268959625 -39.771098635111983 0 0 0 -1 I I #
point $-1 63.217261268959625 -39.771098635111983 9.0025396187166695 #
point $-1 41.775090094331766 -32.867525371015802 2.0976607966960614 #
point $-1 54.64039279910849 -32.867525371015802 2.0976607966960614 #
straight-curve $-1 0 39.771098635111983 9.0025396187166695 -1 0 0 I I #
straight-curve $-1 -51.654321025665276 39.771098635111983 75.857609214787757 0 0 1 I I #
point $-1 -51.654321025665276 39.771098635111983 9.0025396187166695 #
point $-1 -43.078454187092071 34.414419007495347 3.8582780089020194 #
point $-1 -30.214653929232263 34.414419007495347 3.8582780089020194 #
End-of-ACIS-data 