600 0 10 0           
107 GICL ACIS Healer - Source: /gicl/data5/repository/Drexel/CICIRELLO-THESISDATA/Part10015.smdg.feat.sat - 6 0 18 ACIS 6.0.3 Solaris 24 Fri Apr 12 10:30:05 2002 
1 9.999999999999999547e-07 1.000000000000000036e-10 
body $-1 $10 $-1 $-1 #
body $-1 $11 $-1 $-1 #
body $-1 $12 $-1 $-1 #
body $-1 $13 $-1 $-1 #
body $-1 $14 $-1 $-1 #
body $-1 $15 $-1 $-1 #
body $-1 $16 $-1 $-1 #
body $-1 $17 $-1 $-1 #
body $-1 $18 $-1 $-1 #
body $-1 $19 $-1 $-1 #
lump $-1 $-1 $20 $0 #
lump $-1 $-1 $21 $1 #
lump $-1 $-1 $22 $2 #
lump $-1 $-1 $23 $3 #
lump $-1 $-1 $24 $4 #
lump $-1 $-1 $25 $5 #
lump $-1 $-1 $26 $6 #
lump $-1 $-1 $27 $7 #
lump $-1 $-1 $28 $8 #
lump $-1 $-1 $29 $9 #
shell $-1 $-1 $-1 $30 $-1 $10 #
shell $-1 $-1 $-1 $31 $-1 $11 #
shell $-1 $-1 $-1 $32 $-1 $12 #
shell $-1 $-1 $-1 $33 $-1 $13 #
shell $-1 $-1 $-1 $34 $-1 $14 #
shell $-1 $-1 $-1 $35 $-1 $15 #
shell $-1 $-1 $-1 $36 $-1 $16 #
shell $-1 $-1 $-1 $37 $-1 $17 #
shell $-1 $-1 $-1 $38 $-1 $18 #
shell $-1 $-1 $-1 $39 $-1 $19 #
face $-1 $40 $41 $20 $-1 $42 forward single #
face $-1 $43 $44 $21 $-1 $45 forward single #
face $-1 $46 $47 $22 $-1 $48 forward single #
face $-1 $49 $50 $23 $-1 $51 forward single #
face $-1 $52 $53 $24 $-1 $54 forward single #
face $-1 $55 $56 $25 $-1 $57 forward single #
face $-1 $58 $59 $26 $-1 $60 forward single #
face $-1 $61 $62 $27 $-1 $63 forward single #
face $-1 $64 $65 $28 $-1 $66 forward single #
face $-1 $67 $68 $29 $-1 $69 forward single #
face $-1 $70 $71 $20 $-1 $72 reversed single #
loop $-1 $-1 $73 $30 #
plane-surface $-1 52.94717246009705036 36.04938623358199123 25.74648110951666169 0 0 1 1 0 0 forward_v I I I I #
face $-1 $74 $75 $21 $-1 $76 reversed single #
loop $-1 $-1 $77 $31 #
plane-surface $-1 1.607593402692209184 6.264840874316250918 25.74648110951666169 0 0 1 1 0 0 forward_v I I I I #
face $-1 $78 $79 $22 $-1 $80 reversed single #
loop $-1 $-1 $81 $32 #
plane-surface $-1 1.607593402692209184 65.83393159284773333 25.74648110951666169 0 0 1 1 0 0 forward_v I I I I #
face $-1 $82 $83 $23 $-1 $84 reversed single #
loop $-1 $-1 $85 $33 #
plane-surface $-1 -133.2829427653352354 44.05741176793636527 178.9934471938850038 -0.6293203988644634483 0 0.7771459551288114609 0.7771459551288114609 0 0.6293203988644634483 forward_v I I I I #
face $-1 $86 $87 $24 $-1 $88 forward single #
loop $-1 $89 $90 $34 #
cone-surface $-1 7.318847037453041438 40.57479094619550608 19.68602934839238117 0.6293203988644634483 0 -0.7771459551288114609 0.3885729775644057304 0 0.3146601994322317242 1 I I 0 1 0.5 forward I I I I #
face $-1 $91 $92 $25 $-1 $93 forward single #
loop $-1 $94 $95 $35 #
cone-surface $-1 7.318847037453041438 44.05741176793636527 19.68602934839238117 0.6293203988644634483 0 -0.7771459551288114609 0.3885729775644057304 0 0.3146601994322317242 1 I I 0 1 0.5 forward I I I I #
face $-1 $96 $97 $26 $-1 $98 forward single #
loop $-1 $99 $100 $36 #
cone-surface $-1 7.318847037453041438 47.54003258967722445 19.68602934839238117 0.6293203988644634483 0 -0.7771459551288114609 0.3885729775644057304 0 0.3146601994322317242 1 I I 0 1 0.5 forward I I I I #
face $-1 $101 $102 $27 $-1 $103 reversed single #
loop $-1 $-1 $104 $37 #
plane-surface $-1 239.7903127284094467 23.81498758119531445 212.924899935417784 0.8746197147644345637 0 0.484809606490402778 0.484809606490402778 0 -0.8746197147644345637 forward_v I I I I #
face $-1 $105 $106 $28 $-1 $107 forward single #
loop $-1 $108 $109 $38 #
cone-surface $-1 101.9625680782872905 21.47805967172898178 20.75589788929189083 -0.8746197147644345637 0 -0.484809606490402778 0.484809606490402778 0 -0.8746197147644345637 1 I I 0 1 1 forward I I I I #
face $-1 $110 $111 $29 $-1 $112 forward single #
loop $-1 $113 $114 $39 #
cone-surface $-1 101.9625680782872905 26.15191549066164711 20.75589788929189083 -0.8746197147644345637 0 -0.484809606490402778 0.484809606490402778 0 -0.8746197147644345637 1 I I 0 1 1 forward I I I I #
face $-1 $115 $116 $20 $-1 $117 reversed single #
loop $-1 $-1 $118 $40 #
plane-surface $-1 52.94717246009705036 36.04938623358199123 0 0 0 1 1 0 0 forward_v I I I I #
coedge $-1 $119 $120 $121 $122 forward $41 $-1 #
face $-1 $123 $124 $21 $-1 $125 reversed single #
loop $-1 $-1 $126 $43 #
plane-surface $-1 1.607593402692209184 6.264840874316250918 0 0 0 1 1 0 0 forward_v I I I I #
coedge $-1 $127 $128 $129 $130 forward $44 $-1 #
face $-1 $131 $132 $22 $-1 $133 reversed single #
loop $-1 $-1 $134 $46 #
plane-surface $-1 1.607593402692209184 65.83393159284773333 0 0 0 1 1 0 0 forward_v I I I I #
coedge $-1 $135 $136 $137 $138 forward $47 $-1 #
face $-1 $139 $140 $23 $-1 $141 reversed single #
loop $-1 $-1 $142 $49 #
plane-surface $-1 0 44.05741176793636527 14.40272354239689889 -0.6293203988644634483 0 0.7771459551288114609 0.7771459551288114609 0 0.6293203988644634483 forward_v I I I I #
coedge $-1 $143 $144 $145 $146 forward $50 $-1 #
face $-1 $-1 $147 $24 $-1 $148 forward single #
loop $-1 $-1 $149 $52 #
plane-surface $-1 7.00418683802080988 40.57479094619550608 20.07460232595678562 -0.6293203988644634483 0 0.7771459551288114609 -0.7771459551288114609 0 -0.6293203988644634483 forward_v I I I I #
loop $-1 $-1 $150 $34 #
coedge $-1 $90 $90 $149 $151 reversed $53 $-1 #
face $-1 $-1 $152 $25 $-1 $153 forward single #
loop $-1 $-1 $154 $55 #
plane-surface $-1 7.00418683802080988 44.05741176793636527 20.07460232595678562 -0.6293203988644634483 0 0.7771459551288114609 -0.7771459551288114609 0 -0.6293203988644634483 forward_v I I I I #
loop $-1 $-1 $155 $35 #
coedge $-1 $95 $95 $154 $156 reversed $56 $-1 #
face $-1 $-1 $157 $26 $-1 $158 forward single #
loop $-1 $-1 $159 $58 #
plane-surface $-1 7.00418683802080988 47.54003258967722445 20.07460232595678562 -0.6293203988644634483 0 0.7771459551288114609 -0.7771459551288114609 0 -0.6293203988644634483 forward_v I I I I #
loop $-1 $-1 $160 $36 #
coedge $-1 $100 $100 $159 $161 reversed $59 $-1 #
face $-1 $162 $163 $27 $-1 $164 reversed single #
loop $-1 $-1 $165 $61 #
plane-surface $-1 54.55574922987581488 23.81498758119531445 110.2477085547812266 0.8746197147644345637 0 0.484809606490402778 0.484809606490402778 0 -0.8746197147644345637 forward_v I I I I #
coedge $-1 $166 $167 $168 $169 forward $62 $-1 #
face $-1 $-1 $170 $28 $-1 $171 forward single #
loop $-1 $-1 $172 $64 #
plane-surface $-1 103.6449438222335715 21.47805967172898178 21.68845395751551663 0.8746197147644345637 0 0.484809606490402778 -0.484809606490402778 0 0.8746197147644345637 forward_v I I I I #
loop $-1 $-1 $173 $38 #
coedge $-1 $109 $109 $172 $174 reversed $65 $-1 #
face $-1 $-1 $175 $29 $-1 $176 forward single #
loop $-1 $-1 $177 $67 #
plane-surface $-1 103.6449438222335715 26.15191549066164711 21.68845395751551663 0.8746197147644345637 0 0.484809606490402778 -0.484809606490402778 0 0.8746197147644345637 forward_v I I I I #
loop $-1 $-1 $178 $39 #
coedge $-1 $114 $114 $177 $179 reversed $68 $-1 #
face $-1 $180 $181 $20 $-1 $182 reversed single #
loop $-1 $-1 $183 $70 #
plane-surface $-1 52.94717246009705036 0 12.87324055475833084 0 1 0 0 0 1 forward_v I I I I #
coedge $-1 $184 $185 $186 $187 forward $71 $-1 #
coedge $-1 $188 $73 $189 $190 forward $41 $-1 #
coedge $-1 $73 $188 $191 $192 forward $41 $-1 #
coedge $-1 $193 $194 $73 $122 reversed $195 $-1 #
edge $-1 $196 -36.04938623358199123 $197 36.04938623358199123 $121 $198 forward 7 unknown #
face $-1 $199 $200 $21 $-1 $201 reversed single #
loop $-1 $-1 $202 $74 #
plane-surface $-1 1.607593402692209184 0 12.87324055475833084 0 1 0 0 0 1 forward_v I I I I #
coedge $-1 $203 $204 $205 $206 forward $75 $-1 #
coedge $-1 $207 $77 $208 $209 forward $44 $-1 #
coedge $-1 $77 $207 $210 $211 forward $44 $-1 #
coedge $-1 $212 $213 $77 $130 reversed $214 $-1 #
edge $-1 $215 -6.264840874316250918 $216 6.264840874316250918 $129 $217 forward 7 unknown #
face $-1 $218 $219 $22 $-1 $220 reversed single #
loop $-1 $-1 $221 $78 #
plane-surface $-1 1.607593402692209184 59.56909071853148419 12.87324055475833084 0 1 0 0 0 1 forward_v I I I I #
coedge $-1 $222 $223 $224 $225 forward $79 $-1 #
coedge $-1 $226 $81 $227 $228 forward $47 $-1 #
coedge $-1 $81 $226 $229 $230 forward $47 $-1 #
coedge $-1 $231 $232 $81 $138 reversed $233 $-1 #
edge $-1 $234 -6.264840874316249142 $235 6.264840874316249142 $137 $236 forward 7 unknown #
face $-1 $237 $238 $23 $-1 $239 reversed single #
loop $-1 $-1 $240 $82 #
plane-surface $-1 -66.64147138266761772 38.25304373170159522 96.69808536814095135 0 1 0 -0.6293203988644634483 0 0.7771459551288114609 forward_v I I I I #
coedge $-1 $241 $242 $243 $244 forward $83 $-1 #
coedge $-1 $245 $85 $246 $247 forward $50 $-1 #
coedge $-1 $85 $245 $248 $249 forward $50 $-1 #
coedge $-1 $250 $251 $85 $146 reversed $252 $-1 #
edge $-1 $253 -5.804368036234770045 $254 5.804368036234770045 $145 $255 forward 7 unknown #
loop $-1 $256 $257 $86 #
cone-surface $-1 7.790837336601389218 40.57479094619550608 19.10316988204577271 0.6293203988644634483 0 -0.7771459551288114609 0.1942864887822028652 0 0.1573300997161158621 1 I I -0.7071067811865474617 0.7071067811865474617 0.25 forward I I I I #
coedge $-1 $149 $149 $90 $151 forward $87 $-1 #
coedge $-1 $150 $150 $257 $258 forward $89 $-1 #
edge $-1 $259 0 $259 6.283185307179586232 $149 $260 forward 7 unknown #
loop $-1 $261 $262 $91 #
cone-surface $-1 7.790837336601389218 44.05741176793636527 19.10316988204577271 0.6293203988644634483 0 -0.7771459551288114609 0.1942864887822028652 0 0.1573300997161158621 1 I I -0.7071067811865474617 0.7071067811865474617 0.25 forward I I I I #
coedge $-1 $154 $154 $95 $156 forward $92 $-1 #
coedge $-1 $155 $155 $262 $263 forward $94 $-1 #
edge $-1 $264 0 $264 6.283185307179586232 $154 $265 forward 7 unknown #
loop $-1 $266 $267 $96 #
cone-surface $-1 7.790837336601389218 47.54003258967722445 19.10316988204577271 0.6293203988644634483 0 -0.7771459551288114609 0.1942864887822028652 0 0.1573300997161158621 1 I I -0.7071067811865474617 0.7071067811865474617 0.25 forward I I I I #
coedge $-1 $159 $159 $100 $161 forward $97 $-1 #
coedge $-1 $160 $160 $267 $268 forward $99 $-1 #
edge $-1 $269 0 $269 6.283185307179586232 $159 $270 forward 7 unknown #
face $-1 $271 $272 $27 $-1 $273 reversed single #
loop $-1 $-1 $274 $101 #
plane-surface $-1 147.1730309791426237 18.36215579244053941 161.5863042450995124 0 1 0 0.8746197147644345637 0 0.484809606490402778 forward_v I I I I #
coedge $-1 $275 $276 $277 $278 forward $102 $-1 #
coedge $-1 $279 $104 $280 $281 forward $62 $-1 #
coedge $-1 $104 $279 $282 $283 forward $62 $-1 #
coedge $-1 $284 $285 $104 $169 reversed $286 $-1 #
edge $-1 $287 -5.452831788754775033 $288 5.452831788754775033 $168 $289 forward 7 unknown #
loop $-1 $290 $291 $105 #
cone-surface $-1 99.84288247695880614 21.47805967172898178 19.58093701782306084 -0.8746197147644345637 0 -0.484809606490402778 0.242404803245201389 0 -0.4373098573822172819 1 I I -0.7071067811865474617 0.7071067811865474617 0.5 forward I I I I #
coedge $-1 $172 $172 $109 $174 forward $106 $-1 #
coedge $-1 $173 $173 $291 $292 forward $108 $-1 #
edge $-1 $293 0 $293 6.283185307179586232 $172 $294 forward 7 unknown #
loop $-1 $295 $296 $110 #
cone-surface $-1 99.84288247695880614 26.15191549066164711 19.58093701782306084 -0.8746197147644345637 0 -0.484809606490402778 0.242404803245201389 0 -0.4373098573822172819 1 I I -0.7071067811865474617 0.7071067811865474617 0.5 forward I I I I #
coedge $-1 $177 $177 $114 $179 forward $111 $-1 #
coedge $-1 $178 $178 $296 $297 forward $113 $-1 #
edge $-1 $298 0 $298 6.283185307179586232 $177 $299 forward 7 unknown #
face $-1 $300 $301 $20 $-1 $302 reversed single #
loop $-1 $-1 $303 $115 #
plane-surface $-1 0 36.04938623358199123 12.87324055475833084 1 0 0 0 0 -1 forward_v I I I I #
coedge $-1 $304 $191 $305 $306 forward $116 $-1 #
coedge $-1 $307 $118 $304 $308 forward $71 $-1 #
coedge $-1 $118 $307 $309 $310 forward $71 $-1 #
coedge $-1 $194 $193 $118 $187 reversed $195 $-1 #
edge $-1 $311 -36.04938623358199123 $312 36.04938623358199123 $186 $313 forward 7 unknown #
coedge $-1 $120 $119 $314 $315 forward $41 $-1 #
coedge $-1 $316 $317 $119 $190 reversed $301 $-1 #
edge $-1 $197 -52.94717246009705036 $318 52.94717246009705036 $189 $319 forward 7 unknown #
coedge $-1 $183 $320 $120 $192 reversed $116 $-1 #
edge $-1 $321 -52.94717246009705036 $196 52.94717246009705036 $191 $322 forward 7 unknown #
coedge $-1 $186 $121 $320 $323 forward $195 $-1 #
coedge $-1 $121 $186 $316 $324 reversed $195 $-1 #
loop $-1 $-1 $193 $300 #
vertex $-1 $122 $325 #
vertex $-1 $122 $326 #
straight-curve $-1 105.8943449201941007 36.04938623358199123 25.74648110951666169 0 1 0 I I #
face $-1 $327 $328 $21 $-1 $329 reversed single #
loop $-1 $-1 $330 $123 #
plane-surface $-1 0 6.264840874316250918 12.87324055475833084 1 0 0 0 0 -1 forward_v I I I I #
coedge $-1 $331 $210 $332 $333 forward $124 $-1 #
coedge $-1 $334 $126 $331 $335 forward $75 $-1 #
coedge $-1 $126 $334 $336 $337 forward $75 $-1 #
coedge $-1 $213 $212 $126 $206 reversed $214 $-1 #
edge $-1 $338 -6.264840874316250918 $339 6.264840874316250918 $205 $340 forward 7 unknown #
coedge $-1 $128 $127 $341 $342 forward $44 $-1 #
coedge $-1 $343 $344 $127 $209 reversed $328 $-1 #
edge $-1 $216 -1.607593402692209184 $345 1.607593402692209184 $208 $346 forward 7 unknown #
coedge $-1 $202 $347 $128 $211 reversed $124 $-1 #
edge $-1 $348 -1.607593402692209184 $215 1.607593402692209184 $210 $349 forward 7 unknown #
coedge $-1 $205 $129 $347 $350 forward $214 $-1 #
coedge $-1 $129 $205 $343 $351 reversed $214 $-1 #
loop $-1 $-1 $212 $327 #
vertex $-1 $130 $352 #
vertex $-1 $130 $353 #
straight-curve $-1 3.215186805384418367 6.264840874316250918 25.74648110951666169 0 1 0 I I #
face $-1 $354 $355 $22 $-1 $356 reversed single #
loop $-1 $-1 $357 $131 #
plane-surface $-1 0 65.83393159284773333 12.87324055475833084 1 0 0 0 0 -1 forward_v I I I I #
coedge $-1 $358 $229 $359 $360 forward $132 $-1 #
coedge $-1 $361 $134 $358 $362 forward $79 $-1 #
coedge $-1 $134 $361 $363 $364 forward $79 $-1 #
coedge $-1 $232 $231 $134 $225 reversed $233 $-1 #
edge $-1 $365 -6.264840874316249142 $366 6.264840874316249142 $224 $367 forward 7 unknown #
coedge $-1 $136 $135 $368 $369 forward $47 $-1 #
coedge $-1 $370 $371 $135 $228 reversed $355 $-1 #
edge $-1 $235 -1.607593402692209184 $372 1.607593402692209184 $227 $373 forward 7 unknown #
coedge $-1 $221 $374 $136 $230 reversed $132 $-1 #
edge $-1 $375 -1.607593402692209184 $234 1.607593402692209184 $229 $376 forward 7 unknown #
coedge $-1 $224 $137 $374 $377 forward $233 $-1 #
coedge $-1 $137 $224 $370 $378 reversed $233 $-1 #
loop $-1 $-1 $231 $354 #
vertex $-1 $138 $379 #
vertex $-1 $138 $380 #
straight-curve $-1 3.215186805384418367 65.83393159284773333 25.74648110951666169 0 1 0 I I #
face $-1 $381 $382 $23 $-1 $383 reversed single #
loop $-1 $-1 $384 $139 #
plane-surface $-1 -231.2321950341557226 44.05741176793636527 -36.58485739719428409 0.7771459551288114609 0 0.6293203988644634483 0.6293203988644634483 0 -0.7771459551288114609 forward_v I I I I #
coedge $-1 $385 $248 $386 $387 forward $140 $-1 #
coedge $-1 $388 $142 $385 $389 forward $83 $-1 #
coedge $-1 $142 $388 $390 $391 forward $83 $-1 #
coedge $-1 $251 $250 $142 $244 reversed $252 $-1 #
edge $-1 $392 -5.804368036234770045 $393 5.804368036234770045 $243 $394 forward 7 unknown #
coedge $-1 $144 $143 $395 $396 forward $50 $-1 #
coedge $-1 $397 $398 $143 $247 reversed $382 $-1 #
edge $-1 $254 -211.7886898403882014 $399 211.7886898403882014 $246 $400 forward 7 unknown #
coedge $-1 $240 $401 $144 $249 reversed $140 $-1 #
edge $-1 $402 -211.7886898403882014 $253 211.7886898403882014 $248 $403 forward 7 unknown #
coedge $-1 $243 $145 $401 $404 forward $252 $-1 #
coedge $-1 $145 $243 $397 $405 reversed $252 $-1 #
loop $-1 $-1 $250 $381 #
vertex $-1 $146 $406 #
vertex $-1 $146 $407 #
straight-curve $-1 31.30778088615286947 44.05741176793636527 312.2763899592202392 0 1 0 I I #
loop $-1 $-1 $408 $86 #
coedge $-1 $257 $257 $150 $258 reversed $147 $-1 #
edge $-1 $409 0 $409 6.283185307179586232 $257 $410 forward 7 unknown #
vertex $-1 $151 $411 #
ellipse-curve $-1 7.00418683802080988 40.57479094619550608 20.07460232595678562 -0.6293203988644634483 0 0.7771459551288114609 0.3885729775644057304 0 0.3146601994322317242 1 I I #
loop $-1 $-1 $412 $91 #
coedge $-1 $262 $262 $155 $263 reversed $152 $-1 #
edge $-1 $413 0 $413 6.283185307179586232 $262 $414 forward 7 unknown #
vertex $-1 $156 $415 #
ellipse-curve $-1 7.00418683802080988 44.05741176793636527 20.07460232595678562 -0.6293203988644634483 0 0.7771459551288114609 0.3885729775644057304 0 0.3146601994322317242 1 I I #
loop $-1 $-1 $416 $96 #
coedge $-1 $267 $267 $160 $268 reversed $157 $-1 #
edge $-1 $417 0 $417 6.283185307179586232 $267 $418 forward 7 unknown #
vertex $-1 $161 $419 #
ellipse-curve $-1 7.00418683802080988 47.54003258967722445 20.07460232595678562 -0.6293203988644634483 0 0.7771459551288114609 0.3885729775644057304 0 0.3146601994322317242 1 I I #
face $-1 $420 $421 $27 $-1 $422 reversed single #
loop $-1 $-1 $423 $162 #
plane-surface $-1 44.49583959850605197 23.81498758119531445 346.82086774363313 0.484809606490402778 0 -0.8746197147644345637 -0.8746197147644345637 0 -0.484809606490402778 forward_v I I I I #
coedge $-1 $424 $282 $425 $426 forward $163 $-1 #
coedge $-1 $427 $165 $424 $428 forward $102 $-1 #
coedge $-1 $165 $427 $429 $430 forward $102 $-1 #
coedge $-1 $285 $284 $165 $278 reversed $286 $-1 #
edge $-1 $431 -5.452831788754775033 $432 5.452831788754775033 $277 $433 forward 7 unknown #
coedge $-1 $167 $166 $434 $435 forward $62 $-1 #
coedge $-1 $436 $437 $166 $281 reversed $421 $-1 #
edge $-1 $288 -211.7886898403882014 $438 211.7886898403882014 $280 $439 forward 7 unknown #
coedge $-1 $274 $440 $167 $283 reversed $163 $-1 #
edge $-1 $441 -211.7886898403882014 $287 211.7886898403882014 $282 $442 forward 7 unknown #
coedge $-1 $277 $168 $440 $443 forward $286 $-1 #
coedge $-1 $168 $277 $436 $444 reversed $286 $-1 #
loop $-1 $-1 $284 $420 #
vertex $-1 $169 $445 #
vertex $-1 $169 $446 #
straight-curve $-1 342.4675041090459899 23.81498758119531445 27.69033643688416646 0 1 0 I I #
loop $-1 $-1 $447 $105 #
coedge $-1 $291 $291 $173 $292 reversed $170 $-1 #
edge $-1 $448 0 $448 6.283185307179586232 $291 $449 forward 7 unknown #
vertex $-1 $174 $450 #
ellipse-curve $-1 103.6449438222335715 21.47805967172898178 21.68845395751551663 0.8746197147644345637 0 0.484809606490402778 0.484809606490402778 0 -0.8746197147644345637 1 I I #
loop $-1 $-1 $451 $110 #
coedge $-1 $296 $296 $178 $297 reversed $175 $-1 #
edge $-1 $452 0 $452 6.283185307179586232 $296 $453 forward 7 unknown #
vertex $-1 $179 $454 #
ellipse-curve $-1 103.6449438222335715 26.15191549066164711 21.68845395751551663 0.8746197147644345637 0 0.484809606490402778 0.484809606490402778 0 -0.8746197147644345637 1 I I #
face $-1 $-1 $195 $20 $-1 $455 reversed single #
loop $-1 $-1 $316 $180 #
plane-surface $-1 52.94717246009705036 72.09877246716398247 12.87324055475833084 0 -1 0 0 0 -1 forward_v I I I I #
coedge $-1 $456 $314 $317 $457 forward $181 $-1 #
coedge $-1 $320 $183 $184 $308 reversed $116 $-1 #
coedge $-1 $314 $456 $183 $306 reversed $181 $-1 #
edge $-1 $321 -12.87324055475833084 $458 12.87324055475833084 $305 $459 forward 7 unknown #
coedge $-1 $185 $184 $456 $460 forward $71 $-1 #
edge $-1 $312 -52.94717246009705036 $458 52.94717246009705036 $304 $461 forward 7 unknown #
coedge $-1 $317 $316 $185 $310 reversed $301 $-1 #
edge $-1 $462 -52.94717246009705036 $311 52.94717246009705036 $309 $463 forward 7 unknown #
vertex $-1 $187 $464 #
vertex $-1 $323 $465 #
straight-curve $-1 105.8943449201941007 36.04938623358199123 0 0 -1 0 I I #
coedge $-1 $303 $305 $188 $315 reversed $181 $-1 #
edge $-1 $318 -36.04938623358199123 $321 36.04938623358199123 $314 $466 forward 7 unknown #
coedge $-1 $309 $189 $194 $324 forward $301 $-1 #
coedge $-1 $189 $309 $303 $457 reversed $301 $-1 #
vertex $-1 $190 $467 #
straight-curve $-1 52.94717246009705036 72.09877246716398247 25.74648110951666169 -1 0 0 I I #
coedge $-1 $191 $304 $193 $323 reversed $116 $-1 #
vertex $-1 $315 $468 #
straight-curve $-1 52.94717246009705036 0 25.74648110951666169 1 0 0 I I #
edge $-1 $196 -12.87324055475833084 $312 12.87324055475833084 $193 $469 forward 7 unknown #
edge $-1 $197 -12.87324055475833084 $311 12.87324055475833084 $194 $470 forward 7 unknown #
point $-1 105.8943449201941007 0 25.74648110951666169 #
point $-1 105.8943449201941007 72.09877246716398247 25.74648110951666169 #
face $-1 $-1 $214 $21 $-1 $471 reversed single #
loop $-1 $-1 $343 $199 #
plane-surface $-1 1.607593402692209184 12.52968174863250184 12.87324055475833084 0 -1 0 0 0 -1 forward_v I I I I #
coedge $-1 $472 $341 $344 $473 forward $200 $-1 #
coedge $-1 $347 $202 $203 $335 reversed $124 $-1 #
coedge $-1 $341 $472 $202 $333 reversed $200 $-1 #
edge $-1 $348 -12.87324055475833084 $474 12.87324055475833084 $332 $475 forward 7 unknown #
coedge $-1 $204 $203 $472 $476 forward $75 $-1 #
edge $-1 $339 -1.607593402692209184 $474 1.607593402692209184 $331 $477 forward 7 unknown #
coedge $-1 $344 $343 $204 $337 reversed $328 $-1 #
edge $-1 $478 -1.607593402692209184 $338 1.607593402692209184 $336 $479 forward 7 unknown #
vertex $-1 $206 $480 #
vertex $-1 $350 $481 #
straight-curve $-1 3.215186805384418367 6.264840874316250918 0 0 -1 0 I I #
coedge $-1 $330 $332 $207 $342 reversed $200 $-1 #
edge $-1 $345 -6.264840874316250918 $348 6.264840874316250918 $341 $482 forward 7 unknown #
coedge $-1 $336 $208 $213 $351 forward $328 $-1 #
coedge $-1 $208 $336 $330 $473 reversed $328 $-1 #
vertex $-1 $209 $483 #
straight-curve $-1 1.607593402692209184 12.52968174863250184 25.74648110951666169 -1 0 0 I I #
coedge $-1 $210 $331 $212 $350 reversed $124 $-1 #
vertex $-1 $342 $484 #
straight-curve $-1 1.607593402692209184 0 25.74648110951666169 1 0 0 I I #
edge $-1 $215 -12.87324055475833084 $339 12.87324055475833084 $212 $485 forward 7 unknown #
edge $-1 $216 -12.87324055475833084 $338 12.87324055475833084 $213 $486 forward 7 unknown #
point $-1 3.215186805384418367 0 25.74648110951666169 #
point $-1 3.215186805384418367 12.52968174863250184 25.74648110951666169 #
face $-1 $-1 $233 $22 $-1 $487 reversed single #
loop $-1 $-1 $370 $218 #
plane-surface $-1 1.607593402692209184 72.09877246716398247 12.87324055475833084 0 -1 0 0 0 -1 forward_v I I I I #
coedge $-1 $488 $368 $371 $489 forward $219 $-1 #
coedge $-1 $374 $221 $222 $362 reversed $132 $-1 #
coedge $-1 $368 $488 $221 $360 reversed $219 $-1 #
edge $-1 $375 -12.87324055475833084 $490 12.87324055475833084 $359 $491 forward 7 unknown #
coedge $-1 $223 $222 $488 $492 forward $79 $-1 #
edge $-1 $366 -1.607593402692209184 $490 1.607593402692209184 $358 $493 forward 7 unknown #
coedge $-1 $371 $370 $223 $364 reversed $355 $-1 #
edge $-1 $494 -1.607593402692209184 $365 1.607593402692209184 $363 $495 forward 7 unknown #
vertex $-1 $225 $496 #
vertex $-1 $377 $497 #
straight-curve $-1 3.215186805384418367 65.83393159284773333 0 0 -1 0 I I #
coedge $-1 $357 $359 $226 $369 reversed $219 $-1 #
edge $-1 $372 -6.264840874316249142 $375 6.264840874316249142 $368 $498 forward 7 unknown #
coedge $-1 $363 $227 $232 $378 forward $355 $-1 #
coedge $-1 $227 $363 $357 $489 reversed $355 $-1 #
vertex $-1 $228 $499 #
straight-curve $-1 1.607593402692209184 72.09877246716398247 25.74648110951666169 -1 0 0 I I #
coedge $-1 $229 $358 $231 $377 reversed $132 $-1 #
vertex $-1 $369 $500 #
straight-curve $-1 1.607593402692209184 59.56909071853148419 25.74648110951666169 1 0 0 I I #
edge $-1 $234 -12.87324055475833084 $366 12.87324055475833084 $231 $501 forward 7 unknown #
edge $-1 $235 -12.87324055475833084 $365 12.87324055475833084 $232 $502 forward 7 unknown #
point $-1 3.215186805384418367 59.56909071853148419 25.74648110951666169 #
point $-1 3.215186805384418367 72.09877246716398247 25.74648110951666169 #
face $-1 $-1 $252 $23 $-1 $503 reversed single #
loop $-1 $-1 $397 $237 #
plane-surface $-1 -66.64147138266761772 49.86177980417113531 96.69808536814095135 0 -1 0 0.6293203988644634483 0 -0.7771459551288114609 forward_v I I I I #
coedge $-1 $504 $395 $398 $505 forward $238 $-1 #
coedge $-1 $401 $240 $241 $389 reversed $140 $-1 #
coedge $-1 $395 $504 $240 $387 reversed $238 $-1 #
edge $-1 $402 -105.8943449201940865 $506 105.8943449201941149 $386 $507 forward 7 unknown #
coedge $-1 $242 $241 $504 $508 forward $83 $-1 #
edge $-1 $393 -211.7886898403882014 $506 211.7886898403882014 $385 $509 forward 7 unknown #
coedge $-1 $398 $397 $242 $391 reversed $382 $-1 #
edge $-1 $510 -211.7886898403882014 $392 211.7886898403882014 $390 $511 forward 7 unknown #
vertex $-1 $244 $512 #
vertex $-1 $404 $513 #
straight-curve $-1 164.5907236514881049 44.05741176793636527 147.6856663077321343 0 -1 0 I I #
coedge $-1 $384 $386 $245 $396 reversed $238 $-1 #
edge $-1 $399 -5.804368036234770045 $402 5.804368036234770045 $395 $514 forward 7 unknown #
coedge $-1 $390 $246 $251 $405 forward $382 $-1 #
coedge $-1 $246 $390 $384 $505 reversed $382 $-1 #
vertex $-1 $247 $515 #
straight-curve $-1 -133.2829427653352354 49.86177980417113531 178.9934471938850038 -0.7771459551288114609 0 -0.6293203988644634483 I I #
coedge $-1 $248 $385 $250 $404 reversed $140 $-1 #
vertex $-1 $396 $516 #
straight-curve $-1 -133.2829427653352354 38.25304373170159522 178.9934471938850038 0.7771459551288114609 0 0.6293203988644634483 I I #
edge $-1 $253 -105.8943449201941149 $393 105.8943449201941007 $250 $517 forward 7 unknown #
edge $-1 $254 -105.8943449201941149 $392 105.8943449201941007 $251 $518 forward 7 unknown #
point $-1 31.30778088615286947 38.25304373170159522 312.2763899592202392 #
point $-1 31.30778088615286947 49.86177980417113531 312.2763899592202392 #
coedge $-1 $408 $408 $-1 $519 reversed $256 $-1 #
vertex $-1 $258 $520 #
ellipse-curve $-1 7.633507236885272995 40.57479094619550608 19.29745637082797671 -0.6293203988644634483 0 0.7771459551288114609 0.3885729775644057304 0 0.3146601994322317242 1 I I #
point $-1 7.392759815585215222 40.57479094619550608 20.38926252538901807 #
coedge $-1 $412 $412 $-1 $521 reversed $261 $-1 #
vertex $-1 $263 $522 #
ellipse-curve $-1 7.633507236885272995 44.05741176793636527 19.29745637082797671 -0.6293203988644634483 0 0.7771459551288114609 0.3885729775644057304 0 0.3146601994322317242 1 I I #
point $-1 7.392759815585215222 44.05741176793636527 20.38926252538901807 #
coedge $-1 $416 $416 $-1 $523 reversed $266 $-1 #
vertex $-1 $268 $524 #
ellipse-curve $-1 7.633507236885272995 47.54003258967722445 19.29745637082797671 -0.6293203988644634483 0 0.7771459551288114609 0.3885729775644057304 0 0.3146601994322317242 1 I I #
point $-1 7.392759815585215222 47.54003258967722445 20.38926252538901807 #
face $-1 $-1 $286 $27 $-1 $525 reversed single #
loop $-1 $-1 $436 $271 #
plane-surface $-1 147.1730309791426237 29.26781936995008948 161.5863042450995124 0 -1 0 -0.8746197147644345637 0 -0.484809606490402778 forward_v I I I I #
coedge $-1 $526 $434 $437 $527 forward $272 $-1 #
coedge $-1 $440 $274 $275 $428 reversed $163 $-1 #
coedge $-1 $434 $526 $274 $426 reversed $272 $-1 #
edge $-1 $441 -105.8943449201940723 $528 105.8943449201941007 $425 $529 forward 7 unknown #
coedge $-1 $276 $275 $526 $530 forward $102 $-1 #
edge $-1 $432 -211.7886898403882014 $528 211.7886898403882583 $424 $531 forward 7 unknown #
coedge $-1 $437 $436 $276 $430 reversed $421 $-1 #
edge $-1 $532 -211.7886898403882583 $431 211.7886898403882014 $429 $533 forward 7 unknown #
vertex $-1 $278 $534 #
vertex $-1 $443 $535 #
straight-curve $-1 157.2329406105124008 23.81498758119531445 -74.98685494375237681 0 -1 0 I I #
coedge $-1 $423 $425 $279 $435 reversed $272 $-1 #
edge $-1 $438 -5.452831788754775033 $441 5.452831788754775033 $434 $536 forward 7 unknown #
coedge $-1 $429 $280 $285 $444 forward $421 $-1 #
coedge $-1 $280 $429 $423 $527 reversed $421 $-1 #
vertex $-1 $281 $537 #
straight-curve $-1 239.7903127284094467 29.26781936995008948 212.924899935417784 -0.484809606490402778 0 0.8746197147644345637 I I #
coedge $-1 $282 $424 $284 $443 reversed $163 $-1 #
vertex $-1 $435 $538 #
straight-curve $-1 239.7903127284094467 18.36215579244053941 212.924899935417784 0.484809606490402778 0 -0.8746197147644345637 I I #
edge $-1 $287 -105.8943449201940865 $432 105.8943449201940865 $284 $539 forward 7 unknown #
edge $-1 $288 -105.8943449201940865 $431 105.8943449201940865 $285 $540 forward 7 unknown #
point $-1 342.4675041090459899 18.36215579244053941 27.69033643688416646 #
point $-1 342.4675041090459899 29.26781936995008948 27.69033643688416646 #
coedge $-1 $447 $447 $-1 $541 reversed $290 $-1 #
vertex $-1 $292 $542 #
ellipse-curve $-1 100.2801923343410238 21.47805967172898178 19.82334182106826148 0.8746197147644345637 0 0.484809606490402778 0.484809606490402778 0 -0.8746197147644345637 1 I I #
point $-1 104.1297534287239728 21.47805967172898178 20.8138342427510814 #
coedge $-1 $451 $451 $-1 $543 reversed $295 $-1 #
vertex $-1 $297 $544 #
ellipse-curve $-1 100.2801923343410238 26.15191549066164711 19.82334182106826148 0.8746197147644345637 0 0.484809606490402778 0.484809606490402778 0 -0.8746197147644345637 1 I I #
point $-1 104.1297534287239728 26.15191549066164711 20.8138342427510814 #
plane-surface $-1 105.8943449201941007 36.04938623358199123 12.87324055475833084 -1 0 0 0 0 1 forward_v I I I I #
coedge $-1 $305 $303 $307 $460 reversed $181 $-1 #
edge $-1 $318 -12.87324055475833084 $462 12.87324055475833084 $317 $545 forward 7 unknown #
vertex $-1 $460 $546 #
straight-curve $-1 0 0 12.87324055475833084 0 0 -1 I I #
edge $-1 $458 -36.04938623358199123 $462 36.04938623358199123 $456 $547 forward 7 unknown #
straight-curve $-1 52.94717246009705036 0 0 -1 0 0 I I #
vertex $-1 $310 $548 #
straight-curve $-1 52.94717246009705036 72.09877246716398247 0 1 0 0 I I #
point $-1 105.8943449201941007 72.09877246716398247 0 #
point $-1 105.8943449201941007 0 0 #
straight-curve $-1 0 36.04938623358199123 25.74648110951666169 0 -1 0 I I #
point $-1 0 72.09877246716398247 25.74648110951666169 #
point $-1 0 0 25.74648110951666169 #
straight-curve $-1 105.8943449201941007 0 12.87324055475833084 0 0 -1 I I #
straight-curve $-1 105.8943449201941007 72.09877246716398247 12.87324055475833084 0 0 -1 I I #
plane-surface $-1 3.215186805384418367 6.264840874316250918 12.87324055475833084 -1 0 0 0 0 1 forward_v I I I I #
coedge $-1 $332 $330 $334 $476 reversed $200 $-1 #
edge $-1 $345 -12.87324055475833084 $478 12.87324055475833084 $344 $549 forward 7 unknown #
vertex $-1 $476 $550 #
straight-curve $-1 0 0 12.87324055475833084 0 0 -1 I I #
edge $-1 $474 -6.264840874316250918 $478 6.264840874316250918 $472 $551 forward 7 unknown #
straight-curve $-1 1.607593402692209184 0 0 -1 0 0 I I #
vertex $-1 $337 $552 #
straight-curve $-1 1.607593402692209184 12.52968174863250184 0 1 0 0 I I #
point $-1 3.215186805384418367 12.52968174863250184 0 #
point $-1 3.215186805384418367 0 0 #
straight-curve $-1 0 6.264840874316250918 25.74648110951666169 0 -1 0 I I #
point $-1 0 12.52968174863250184 25.74648110951666169 #
point $-1 0 0 25.74648110951666169 #
straight-curve $-1 3.215186805384418367 0 12.87324055475833084 0 0 -1 I I #
straight-curve $-1 3.215186805384418367 12.52968174863250184 12.87324055475833084 0 0 -1 I I #
plane-surface $-1 3.215186805384418367 65.83393159284773333 12.87324055475833084 -1 0 0 0 0 1 forward_v I I I I #
coedge $-1 $359 $357 $361 $492 reversed $219 $-1 #
edge $-1 $372 -12.87324055475833084 $494 12.87324055475833084 $371 $553 forward 7 unknown #
vertex $-1 $492 $554 #
straight-curve $-1 0 59.56909071853148419 12.87324055475833084 0 0 -1 I I #
edge $-1 $490 -6.264840874316249142 $494 6.264840874316249142 $488 $555 forward 7 unknown #
straight-curve $-1 1.607593402692209184 59.56909071853148419 0 -1 0 0 I I #
vertex $-1 $364 $556 #
straight-curve $-1 1.607593402692209184 72.09877246716398247 0 1 0 0 I I #
point $-1 3.215186805384418367 72.09877246716398247 0 #
point $-1 3.215186805384418367 59.56909071853148419 0 #
straight-curve $-1 0 65.83393159284773333 25.74648110951666169 0 -1 0 I I #
point $-1 0 72.09877246716398247 25.74648110951666169 #
point $-1 0 59.56909071853148419 25.74648110951666169 #
straight-curve $-1 3.215186805384418367 59.56909071853148419 12.87324055475833084 0 0 -1 I I #
straight-curve $-1 3.215186805384418367 72.09877246716398247 12.87324055475833084 0 0 -1 I I #
plane-surface $-1 97.94925226882048719 44.05741176793636527 229.9810281334761726 -0.7771459551288114609 0 -0.6293203988644634483 -0.6293203988644634483 0 0.7771459551288114609 forward_v I I I I #
coedge $-1 $386 $384 $388 $508 reversed $238 $-1 #
edge $-1 $399 -105.8943449201940865 $510 105.8943449201941149 $398 $557 forward 7 unknown #
vertex $-1 $508 $558 #
straight-curve $-1 -231.2321950341557226 38.25304373170159522 -36.58485739719428409 0.6293203988644634483 0 -0.7771459551288114609 I I #
edge $-1 $506 -5.804368036234770045 $510 5.804368036234770045 $504 $559 forward 7 unknown #
straight-curve $-1 0 38.25304373170159522 14.40272354239689889 -0.7771459551288114609 0 -0.6293203988644634483 I I #
vertex $-1 $391 $560 #
straight-curve $-1 0 49.86177980417113531 14.40272354239689889 0.7771459551288114609 0 0.6293203988644634483 I I #
point $-1 164.5907236514881049 49.86177980417113531 147.6856663077321343 #
point $-1 164.5907236514881049 38.25304373170159522 147.6856663077321343 #
straight-curve $-1 -297.8736664168233119 44.05741176793636527 45.71050442854976836 0 -1 0 I I #
point $-1 -297.8736664168233119 49.86177980417113531 45.71050442854976836 #
point $-1 -297.8736664168233119 38.25304373170159522 45.71050442854976836 #
straight-curve $-1 97.94925226882048719 38.25304373170159522 229.9810281334761726 0.6293203988644634483 0 -0.7771459551288114609 I I #
straight-curve $-1 97.94925226882048719 49.86177980417113531 229.9810281334761726 0.6293203988644634483 0 -0.7771459551288114609 I I #
edge $-1 $561 1 $561 0 $408 $-1 forward 7 unknown #
point $-1 8.022080214449678337 40.57479094619550608 19.61211657026020561 #
edge $-1 $562 1 $562 0 $412 $-1 forward 7 unknown #
point $-1 8.022080214449678337 44.05741176793636527 19.61211657026020561 #
edge $-1 $563 1 $563 0 $416 $-1 forward 7 unknown #
point $-1 8.022080214449678337 47.54003258967722445 19.61211657026020561 #
plane-surface $-1 249.8502223597791954 23.81498758119531445 -23.64825925343410518 -0.484809606490402778 0 0.8746197147644345637 0.8746197147644345637 0 0.484809606490402778 forward_v I I I I #
coedge $-1 $425 $423 $427 $530 reversed $272 $-1 #
edge $-1 $438 -105.8943449201940723 $532 105.8943449201941007 $437 $564 forward 7 unknown #
vertex $-1 $530 $565 #
straight-curve $-1 44.49583959850605197 18.36215579244053941 346.82086774363313 -0.8746197147644345637 0 -0.484809606490402778 I I #
edge $-1 $528 -5.452831788754775033 $532 5.452831788754775033 $526 $566 forward 7 unknown #
straight-curve $-1 54.55574922987581488 18.36215579244053941 110.2477085547812266 -0.484809606490402778 0 0.8746197147644345637 I I #
vertex $-1 $430 $567 #
straight-curve $-1 54.55574922987581488 29.26781936995008948 110.2477085547812266 0.484809606490402778 0 -0.8746197147644345637 I I #
point $-1 157.2329406105124008 29.26781936995008948 -74.98685494375237681 #
point $-1 157.2329406105124008 18.36215579244053941 -74.98685494375237681 #
straight-curve $-1 137.1131213477728465 23.81498758119531445 398.1594634339513732 0 -1 0 I I #
point $-1 137.1131213477728465 29.26781936995008948 398.1594634339513732 #
point $-1 137.1131213477728465 18.36215579244053941 398.1594634339513732 #
straight-curve $-1 249.8502223597791954 18.36215579244053941 -23.64825925343410518 -0.8746197147644345637 0 -0.484809606490402778 I I #
straight-curve $-1 249.8502223597791954 29.26781936995008948 -23.64825925343410518 -0.8746197147644345637 0 -0.484809606490402778 I I #
edge $-1 $568 1 $568 0 $447 $-1 forward 7 unknown #
point $-1 100.765001940831425 21.47805967172898178 18.94872210630382625 #
edge $-1 $569 1 $569 0 $451 $-1 forward 7 unknown #
point $-1 100.765001940831425 26.15191549066164711 18.94872210630382625 #
straight-curve $-1 0 72.09877246716398247 12.87324055475833084 0 0 -1 I I #
point $-1 0 0 0 #
straight-curve $-1 0 36.04938623358199123 0 0 1 0 I I #
point $-1 0 72.09877246716398247 0 #
straight-curve $-1 0 12.52968174863250184 12.87324055475833084 0 0 -1 I I #
point $-1 0 0 0 #
straight-curve $-1 0 6.264840874316250918 0 0 1 0 I I #
point $-1 0 12.52968174863250184 0 #
straight-curve $-1 0 72.09877246716398247 12.87324055475833084 0 0 -1 I I #
point $-1 0 59.56909071853148419 0 #
straight-curve $-1 0 65.83393159284773333 0 0 1 0 I I #
point $-1 0 72.09877246716398247 0 #
straight-curve $-1 -231.2321950341557226 49.86177980417113531 -36.58485739719428409 0.6293203988644634483 0 -0.7771459551288114609 I I #
point $-1 -164.5907236514881049 38.25304373170159522 -118.8802192229383508 #
straight-curve $-1 -164.5907236514881049 44.05741176793636527 -118.8802192229383508 0 1 0 I I #
point $-1 -164.5907236514881049 49.86177980417113531 -118.8802192229383508 #
vertex $-1 $519 $570 #
vertex $-1 $521 $571 #
vertex $-1 $523 $572 #
straight-curve $-1 44.49583959850605197 29.26781936995008948 346.82086774363313 -0.8746197147644345637 0 -0.484809606490402778 I I #
point $-1 -48.12144215076077103 18.36215579244053941 295.4822720533148868 #
straight-curve $-1 -48.12144215076077103 23.81498758119531445 295.4822720533148868 0 1 0 I I #
point $-1 -48.12144215076077103 29.26781936995008948 295.4822720533148868 #
vertex $-1 $541 $573 #
vertex $-1 $543 $574 #
point $-1 7.948167436317505441 40.57479094619550608 18.90888339326356871 #
point $-1 7.948167436317505441 44.05741176793636527 18.90888339326356871 #
point $-1 7.948167436317505441 47.54003258967722445 18.90888339326356871 #
point $-1 99.40557261957658852 21.47805967172898178 19.3385322145778602 #
point $-1 99.40557261957658852 26.15191549066164711 19.3385322145778602 #
End-of-ACIS-data 