500 0 9 0           
7 Unknown 11 ACIS 5.0 NT 24 Thu Mar 25 15:10:15 1999 
-1 9.9999999999999995e-007 1e-010 
body $-1 $9 $-1 $10 #
body $-1 $11 $-1 $12 #
body $-1 $13 $-1 $14 #
body $-1 $15 $-1 $16 #
body $-1 $17 $-1 $18 #
body $-1 $19 $-1 $20 #
body $-1 $21 $-1 $22 #
body $-1 $23 $-1 $24 #
body $-1 $25 $-1 $26 #
lump $-1 $-1 $27 $0 #
transform $-1 1 0 0 0 1 0 0 0 1 76.661275063325917 35.673099693458916 15.664613633818586 1 rotate no_reflect no_shear #
lump $-1 $-1 $28 $1 #
transform $-1 1 0 0 0 1 0 0 0 1 76.661275063325917 35.673099693458916 15.664613633818586 1 rotate no_reflect no_shear #
lump $-1 $-1 $29 $2 #
transform $-1 1 0 0 0 1 0 0 0 1 76.661275063325917 35.673099693458916 15.664613633818586 1 rotate no_reflect no_shear #
lump $-1 $-1 $30 $3 #
transform $-1 1 0 0 0 1 0 0 0 1 76.661275063325917 35.673099693458916 15.664613633818586 1 rotate no_reflect no_shear #
lump $-1 $-1 $31 $4 #
transform $-1 1 0 0 0 1 0 0 0 1 76.661275063325917 35.673099693458916 15.664613633818586 1 rotate no_reflect no_shear #
lump $-1 $-1 $32 $5 #
transform $-1 1 0 0 0 1 0 0 0 1 76.661275063325917 35.673099693458916 15.664613633818586 1 rotate no_reflect no_shear #
lump $-1 $-1 $33 $6 #
transform $-1 1 0 0 0 1 0 0 0 1 76.661275063325917 35.673099693458916 15.664613633818586 1 rotate no_reflect no_shear #
lump $-1 $-1 $34 $7 #
transform $-1 1 0 0 0 1 0 0 0 1 76.661275063325917 35.673099693458916 15.664613633818586 1 rotate no_reflect no_shear #
lump $-1 $-1 $35 $8 #
transform $-1 1 0 0 0 1 0 0 0 1 76.661275063325917 35.673099693458916 15.664613633818586 1 rotate no_reflect no_shear #
shell $-1 $-1 $-1 $36 $-1 $9 #
shell $-1 $-1 $-1 $37 $-1 $11 #
shell $-1 $-1 $-1 $38 $-1 $13 #
shell $-1 $-1 $-1 $39 $-1 $15 #
shell $-1 $-1 $-1 $40 $-1 $17 #
shell $-1 $-1 $-1 $41 $-1 $19 #
shell $-1 $-1 $-1 $42 $-1 $21 #
shell $-1 $-1 $-1 $43 $-1 $23 #
shell $-1 $-1 $-1 $44 $-1 $25 #
face $-1 $45 $46 $27 $-1 $47 forward single #
face $-1 $48 $49 $28 $-1 $50 forward single #
face $-1 $51 $52 $29 $-1 $53 reversed single #
face $-1 $54 $55 $30 $-1 $56 forward single #
face $-1 $57 $58 $31 $-1 $59 forward single #
face $-1 $60 $61 $32 $-1 $62 reversed single #
face $-1 $63 $64 $33 $-1 $65 forward single #
face $-1 $66 $67 $34 $-1 $68 forward single #
face $-1 $69 $70 $35 $-1 $71 forward single #
face $-1 $72 $73 $27 $-1 $74 reversed single #
loop $-1 $-1 $75 $36 #
plane-surface $-1 0 0 15.664613633818586 0 0 1 1 0 0 forward_v I I I I #
face $-1 $76 $77 $28 $-1 $78 reversed single #
loop $-1 $-1 $79 $37 #
plane-surface $-1 -76.661275063325917 0 0 1 0 0 0 0 -1 forward_v I I I I #
face $-1 $80 $81 $29 $-1 $82 reversed single #
loop $-1 $-1 $83 $38 #
plane-surface $-1 -23.741010371215133 -151.38709840905506 100.69686333325589 -1 0 0 0 -0.75470958851134928 0.65605901945558964 forward_v I I I I #
face $-1 $84 $85 $30 $-1 $86 forward single #
loop $-1 $87 $88 $39 #
cone-surface $-1 -52.943503845169204 -26.531645867165846 5.8175401125689135 0 0.75470958851134928 -0.65605901945558964 3 0 0 1 I I 0 1 3 forward I I I I #
face $-1 $89 $90 $31 $-1 $91 forward single #
loop $-1 $92 $93 $40 #
cone-surface $-1 -35.42200776079676 -26.531645867165846 5.8175401125689135 0 0.75470958851134928 -0.65605901945558964 3 0 0 1 I I 0 1 3 forward I I I I #
face $-1 $94 $95 $32 $-1 $96 reversed single #
loop $-1 $-1 $97 $41 #
plane-surface $-1 -24.429647833080342 90.857733510628293 163.17619070228798 1 0 0 0 -0.69465837861970381 -0.71933979245794832 forward_v I I I I #
face $-1 $98 $99 $33 $-1 $100 forward single #
loop $-1 $101 $102 $42 #
cone-surface $-1 -20.941290072508124 28.861058785135491 9.0567959444253319 0 -0.69465837861970381 -0.71933979245794832 1 0 0 1 I I 0 1 1 forward I I I I #
face $-1 $103 $104 $34 $-1 $105 forward single #
loop $-1 $106 $107 $43 #
cone-surface $-1 -15.708753431649789 28.861058785135491 9.0567959444253319 0 -0.69465837861970381 -0.71933979245794832 1 0 0 1 I I 0 1 1 forward I I I I #
face $-1 $108 $109 $35 $-1 $110 forward single #
loop $-1 $111 $112 $44 #
cone-surface $-1 -10.476216790791455 28.861058785135491 9.0567959444253319 0 -0.69465837861970381 -0.71933979245794832 1 0 0 1 I I 0 1 1 forward I I I I #
face $-1 $113 $114 $27 $-1 $115 reversed single #
loop $-1 $-1 $116 $45 #
plane-surface $-1 0 0 -15.664613633818586 0 0 1 1 0 0 forward_v I I I I #
coedge $-1 $117 $118 $119 $120 forward $46 $-1 #
face $-1 $121 $122 $28 $-1 $123 reversed single #
loop $-1 $-1 $124 $48 #
plane-surface $-1 0 35.673099693458916 0 0 -1 0 0 0 -1 forward_v I I I I #
coedge $-1 $125 $126 $127 $128 forward $49 $-1 #
face $-1 $129 $130 $29 $-1 $131 reversed single #
loop $-1 $-1 $132 $51 #
plane-surface $-1 -44.182755802982982 -35.673099693458923 0.1082214367341976 0 -0.75470958851134928 0.65605901945558964 1 0 0 forward_v I I I I #
coedge $-1 $133 $134 $135 $136 reversed $52 $-1 #
face $-1 $-1 $137 $30 $-1 $138 forward single #
loop $-1 $139 $140 $54 #
cone-surface $-1 -52.943503845169204 -23.019610198175734 2.7645741606780554 0 0.75470958851134928 -0.65605901945558964 1.5 0 0 1 I I -0.70710678118654768 0.70710678118654735 1.5 forward I I I I #
loop $-1 $-1 $141 $39 #
coedge $-1 $88 $88 $142 $143 reversed $55 $-1 #
face $-1 $-1 $144 $31 $-1 $145 forward single #
loop $-1 $146 $147 $57 #
cone-surface $-1 -35.42200776079676 -23.019610198175734 2.7645741606780554 0 0.75470958851134928 -0.65605901945558964 1.5 0 0 1 I I -0.70710678118654768 0.70710678118654735 1.5 forward I I I I #
loop $-1 $-1 $148 $40 #
coedge $-1 $93 $93 $149 $150 reversed $58 $-1 #
face $-1 $151 $152 $32 $-1 $153 reversed single #
loop $-1 $-1 $154 $60 #
plane-surface $-1 -15.708753431649782 -15.649060566189931 52.885179315058878 0 0.69465837861970381 0.71933979245794832 1 0 0 forward_v I I I I #
coedge $-1 $155 $156 $157 $158 reversed $61 $-1 #
face $-1 $-1 $159 $33 $-1 $160 forward single #
loop $-1 $161 $162 $63 #
cone-surface $-1 -20.941290072508124 28.091257225174267 8.2596431115801892 0 -0.69465837861970381 -0.71933979245794832 0.5 0 0 1 I I -0.70710678118654746 0.70710678118654746 0.5 forward I I I I #
loop $-1 $-1 $163 $42 #
coedge $-1 $102 $102 $164 $165 reversed $64 $-1 #
face $-1 $-1 $166 $34 $-1 $167 forward single #
loop $-1 $168 $169 $66 #
cone-surface $-1 -15.708753431649789 28.091257225174267 8.2596431115801892 0 -0.69465837861970381 -0.71933979245794832 0.5 0 0 1 I I -0.70710678118654746 0.70710678118654746 0.5 forward I I I I #
loop $-1 $-1 $170 $43 #
coedge $-1 $107 $107 $171 $172 reversed $67 $-1 #
face $-1 $-1 $173 $35 $-1 $174 forward single #
loop $-1 $175 $176 $69 #
cone-surface $-1 -10.476216790791455 28.091257225174267 8.2596431115801892 0 -0.69465837861970381 -0.71933979245794832 0.5 0 0 1 I I -0.70710678118654746 0.70710678118654746 0.5 forward I I I I #
loop $-1 $-1 $177 $44 #
coedge $-1 $112 $112 $178 $179 reversed $70 $-1 #
face $-1 $180 $181 $27 $-1 $182 reversed single #
loop $-1 $-1 $183 $72 #
plane-surface $-1 0 -35.673099693458916 0 0 1 0 0 0 1 forward_v I I I I #
coedge $-1 $184 $185 $186 $187 forward $73 $-1 #
coedge $-1 $188 $75 $189 $190 forward $46 $-1 #
coedge $-1 $75 $188 $191 $192 forward $46 $-1 #
coedge $-1 $193 $194 $75 $120 reversed $195 $-1 #
edge $-1 $196 -35.673099693458916 $197 35.673099693458916 $119 $198 forward 7 unknown #
face $-1 $199 $200 $28 $-1 $201 reversed single #
loop $-1 $-1 $127 $76 #
plane-surface $-1 -82.679661977613463 0 10.507582074217321 0 0 1 1 0 0 forward_v I I I I #
coedge $-1 $202 $203 $125 $204 forward $77 $-1 #
coedge $-1 $205 $79 $124 $204 reversed $49 $-1 #
coedge $-1 $79 $205 $206 $207 reversed $49 $-1 #
coedge $-1 $208 $209 $79 $128 reversed $122 $-1 #
edge $-1 $210 -35.673099693458916 $211 35.673099693458916 $127 $212 forward 7 unknown #
face $-1 $213 $214 $29 $-1 $215 reversed single #
loop $-1 $-1 $216 $80 #
plane-surface $-1 -64.624501234750824 -151.38709840905506 100.69686333325589 1 0 0 0 0.75470958851134928 -0.65605901945558964 forward_v I I I I #
coedge $-1 $217 $218 $219 $220 reversed $81 $-1 #
coedge $-1 $134 $83 $221 $222 reversed $52 $-1 #
coedge $-1 $83 $133 $217 $223 reversed $52 $-1 #
coedge $-1 $219 $224 $83 $136 forward $225 $-1 #
edge $-1 $226 40.020449511068612 $227 53.54341459120856 $135 $228 forward 7 unknown #
loop $-1 $-1 $142 $84 #
plane-surface $-1 -44.182755802982982 -35.673099693458923 0.1082214367341976 0 -0.75470958851134928 0.65605901945558964 1 0 0 forward_v I I I I #
loop $-1 $-1 $229 $54 #
coedge $-1 $140 $140 $141 $230 reversed $85 $-1 #
coedge $-1 $141 $141 $140 $230 forward $87 $-1 #
coedge $-1 $142 $142 $88 $143 forward $137 $-1 #
edge $-1 $231 -2.3365148407056718e-016 $231 6.2831853071796004 $142 $232 forward 7 unknown #
loop $-1 $-1 $149 $89 #
plane-surface $-1 -44.182755802982982 -35.673099693458923 0.1082214367341976 0 -0.75470958851134928 0.65605901945558964 1 0 0 forward_v I I I I #
loop $-1 $-1 $233 $57 #
coedge $-1 $147 $147 $148 $234 reversed $90 $-1 #
coedge $-1 $148 $148 $147 $234 forward $92 $-1 #
coedge $-1 $149 $149 $93 $150 forward $144 $-1 #
edge $-1 $235 -2.3365148407056718e-016 $235 6.2831853071796004 $149 $236 forward 7 unknown #
face $-1 $237 $238 $32 $-1 $239 forward single #
loop $-1 $-1 $240 $94 #
plane-surface $-1 -6.9878590302192229 90.857733510628293 163.17619070228798 -1 0 0 0 0.69465837861970381 0.71933979245794832 forward_v I I I I #
coedge $-1 $241 $242 $243 $244 reversed $95 $-1 #
coedge $-1 $156 $97 $245 $246 reversed $61 $-1 #
coedge $-1 $97 $155 $241 $247 reversed $61 $-1 #
coedge $-1 $243 $248 $97 $158 forward $238 $-1 #
edge $-1 $249 9.7557670618552308 $250 22.534904137199284 $157 $251 forward 7 unknown #
loop $-1 $-1 $164 $98 #
plane-surface $-1 -15.708753431649782 -15.649060566189931 52.885179315058878 0 0.69465837861970381 0.71933979245794832 1 0 0 forward_v I I I I #
loop $-1 $-1 $252 $63 #
coedge $-1 $162 $162 $163 $253 reversed $99 $-1 #
coedge $-1 $163 $163 $162 $253 forward $101 $-1 #
coedge $-1 $164 $164 $102 $165 forward $159 $-1 #
edge $-1 $254 -6.1380197588686965e-016 $254 6.2831853071795996 $164 $255 forward 7 unknown #
loop $-1 $-1 $171 $103 #
plane-surface $-1 -15.708753431649782 -15.649060566189931 52.885179315058878 0 0.69465837861970381 0.71933979245794832 1 0 0 forward_v I I I I #
loop $-1 $-1 $256 $66 #
coedge $-1 $169 $169 $170 $257 reversed $104 $-1 #
coedge $-1 $170 $170 $169 $257 forward $106 $-1 #
coedge $-1 $171 $171 $107 $172 forward $166 $-1 #
edge $-1 $258 -6.1380197588686965e-016 $258 6.2831853071795996 $171 $259 forward 7 unknown #
loop $-1 $-1 $178 $108 #
plane-surface $-1 -15.708753431649782 -15.649060566189931 52.885179315058878 0 0.69465837861970381 0.71933979245794832 1 0 0 forward_v I I I I #
loop $-1 $-1 $260 $69 #
coedge $-1 $176 $176 $177 $261 reversed $109 $-1 #
coedge $-1 $177 $177 $176 $261 forward $111 $-1 #
coedge $-1 $178 $178 $112 $179 forward $173 $-1 #
edge $-1 $262 -6.1380197588686965e-016 $262 6.2831853071795996 $178 $263 forward 7 unknown #
face $-1 $264 $265 $27 $-1 $266 reversed single #
loop $-1 $-1 $267 $113 #
plane-surface $-1 -76.661275063325917 0 0 1 0 0 0 0 -1 forward_v I I I I #
coedge $-1 $268 $191 $269 $270 forward $114 $-1 #
coedge $-1 $271 $116 $268 $272 forward $73 $-1 #
coedge $-1 $116 $271 $273 $274 forward $73 $-1 #
coedge $-1 $194 $193 $116 $187 reversed $195 $-1 #
edge $-1 $275 -35.673099693458916 $276 35.673099693458916 $186 $277 forward 7 unknown #
coedge $-1 $118 $117 $278 $279 forward $46 $-1 #
coedge $-1 $280 $281 $117 $190 reversed $265 $-1 #
edge $-1 $197 -76.661275063325917 $282 76.661275063325917 $189 $283 forward 7 unknown #
coedge $-1 $183 $284 $118 $192 reversed $114 $-1 #
edge $-1 $285 -76.661275063325917 $196 76.661275063325917 $191 $286 forward 7 unknown #
coedge $-1 $186 $119 $284 $287 forward $195 $-1 #
coedge $-1 $119 $186 $280 $288 reversed $195 $-1 #
loop $-1 $-1 $193 $264 #
vertex $-1 $120 $289 #
vertex $-1 $120 $290 #
straight-curve $-1 76.661275063325917 0 15.664613633818586 0 1 0 I I #
face $-1 $291 $292 $28 $-1 $293 forward single #
loop $-1 $-1 $294 $121 #
plane-surface $-1 -88.69804889190101 0 13.086097854017954 1 0 0 0 0 -1 forward_v I I I I #
coedge $-1 $295 $124 $209 $296 reversed $77 $-1 #
coedge $-1 $124 $295 $297 $298 reversed $77 $-1 #
edge $-1 $299 -15.664613633818586 $211 -10.507582074217321 $124 $300 forward 7 unknown #
coedge $-1 $126 $125 $301 $302 reversed $49 $-1 #
coedge $-1 $303 $304 $126 $207 forward $305 $-1 #
edge $-1 $210 10.507582074217321 $306 15.664613633818586 $206 $307 forward 7 unknown #
coedge $-1 $308 $127 $304 $309 forward $122 $-1 #
coedge $-1 $127 $308 $202 $296 forward $122 $-1 #
vertex $-1 $207 $310 #
vertex $-1 $204 $311 #
straight-curve $-1 -76.661275063325917 0 10.507582074217321 0 1 0 I I #
face $-1 $-1 $225 $29 $-1 $312 forward single #
loop $-1 $-1 $313 $129 #
plane-surface $-1 0 -35.673099693458916 0 0 1 0 0 0 1 forward_v I I I I #
coedge $-1 $314 $315 $316 $317 reversed $130 $-1 #
coedge $-1 $318 $132 $134 $223 forward $81 $-1 #
coedge $-1 $132 $318 $314 $319 forward $81 $-1 #
coedge $-1 $316 $135 $132 $220 forward $225 $-1 #
edge $-1 $227 1.6496324697236417 $320 42.533123333259333 $219 $321 forward 7 unknown #
coedge $-1 $322 $323 $133 $222 forward $214 $-1 #
edge $-1 $324 -50.240210229893741 $226 -34.683818032809356 $221 $325 forward 7 unknown #
edge $-1 $227 -20.612421564391529 $324 -1.0830588725786001e-014 $134 $326 forward 7 unknown #
coedge $-1 $135 $316 $322 $327 forward $225 $-1 #
loop $-1 $-1 $316 $213 #
vertex $-1 $222 $328 #
vertex $-1 $136 $329 #
straight-curve $-1 -23.741010371215133 -75.693549204527528 15.66461363381859 0 1 0 I I #
coedge $-1 $229 $229 $-1 $330 reversed $139 $-1 #
edge $-1 $331 0 $331 6.2831853071796004 $140 $332 forward 7 unknown #
vertex $-1 $143 $333 #
ellipse-curve $-1 -52.943503845169204 -28.911617153388942 7.8864175352763946 0 -0.75470958851134928 0.65605901945558964 3 0 0 1 I I #
coedge $-1 $233 $233 $-1 $334 reversed $146 $-1 #
edge $-1 $335 0 $335 6.2831853071796004 $147 $336 forward 7 unknown #
vertex $-1 $150 $337 #
ellipse-curve $-1 -35.42200776079676 -28.911617153388942 7.8864175352763946 0 -0.75470958851134928 0.65605901945558964 3 0 0 1 I I #
face $-1 $-1 $338 $32 $-1 $339 reversed single #
loop $-1 $-1 $157 $151 #
plane-surface $-1 0 0 15.664613633818586 0 0 1 1 0 0 forward_v I I I I #
coedge $-1 $340 $341 $342 $343 reversed $152 $-1 #
coedge $-1 $344 $154 $156 $247 forward $95 $-1 #
coedge $-1 $154 $344 $340 $345 forward $95 $-1 #
coedge $-1 $342 $157 $154 $244 forward $238 $-1 #
edge $-1 $250 -16.575271117255451 $346 0.86651768560566822 $243 $347 forward 7 unknown #
coedge $-1 $348 $349 $155 $246 forward $338 $-1 #
edge $-1 $350 -78.264151222879534 $249 -65.923481717325402 $245 $351 forward 7 unknown #
edge $-1 $250 53.581108105538277 $350 71.346199386917789 $156 $352 forward 7 unknown #
coedge $-1 $157 $342 $348 $353 forward $238 $-1 #
vertex $-1 $246 $354 #
vertex $-1 $158 $355 #
straight-curve $-1 -24.429647833080342 45.428866755314147 15.66461363381859 0 -1 0 I I #
coedge $-1 $252 $252 $-1 $356 reversed $161 $-1 #
edge $-1 $357 0 $357 6.2831853071796004 $162 $358 forward 7 unknown #
vertex $-1 $165 $359 #
ellipse-curve $-1 -20.941290072508124 29.283531155786886 9.4942788810415255 0 0.69465837861970381 0.71933979245794832 1 0 0 1 I I #
coedge $-1 $256 $256 $-1 $360 reversed $168 $-1 #
edge $-1 $361 0 $361 6.2831853071796004 $169 $362 forward 7 unknown #
vertex $-1 $172 $363 #
ellipse-curve $-1 -15.708753431649789 29.283531155786886 9.4942788810415255 0 0.69465837861970381 0.71933979245794832 1 0 0 1 I I #
coedge $-1 $260 $260 $-1 $364 reversed $175 $-1 #
edge $-1 $365 0 $365 6.2831853071796004 $176 $366 forward 7 unknown #
vertex $-1 $179 $367 #
ellipse-curve $-1 -10.476216790791455 29.283531155786886 9.4942788810415255 0 0.69465837861970381 0.71933979245794832 1 0 0 1 I I #
face $-1 $-1 $195 $27 $-1 $368 reversed single #
loop $-1 $-1 $280 $180 #
plane-surface $-1 0 35.673099693458916 0 0 -1 0 0 0 -1 forward_v I I I I #
coedge $-1 $369 $278 $281 $370 forward $181 $-1 #
coedge $-1 $284 $183 $184 $272 reversed $114 $-1 #
coedge $-1 $278 $369 $183 $270 reversed $181 $-1 #
edge $-1 $285 -15.664613633818586 $371 15.664613633818586 $269 $372 forward 7 unknown #
coedge $-1 $185 $184 $369 $373 forward $73 $-1 #
edge $-1 $276 -76.661275063325917 $371 76.661275063325917 $268 $374 forward 7 unknown #
coedge $-1 $281 $280 $185 $274 reversed $265 $-1 #
edge $-1 $375 -76.661275063325917 $275 76.661275063325917 $273 $376 forward 7 unknown #
vertex $-1 $187 $377 #
vertex $-1 $287 $378 #
straight-curve $-1 76.661275063325917 0 -15.664613633818586 0 -1 0 I I #
coedge $-1 $267 $269 $188 $279 reversed $181 $-1 #
edge $-1 $282 -35.673099693458916 $285 35.673099693458916 $278 $379 forward 7 unknown #
coedge $-1 $273 $189 $194 $288 forward $265 $-1 #
coedge $-1 $189 $273 $267 $370 reversed $265 $-1 #
vertex $-1 $190 $380 #
straight-curve $-1 0 35.673099693458916 15.664613633818586 -1 0 0 I I #
coedge $-1 $191 $268 $193 $287 reversed $114 $-1 #
vertex $-1 $279 $381 #
straight-curve $-1 0 -35.673099693458916 15.664613633818586 1 0 0 I I #
edge $-1 $196 -15.664613633818586 $276 15.664613633818586 $193 $382 forward 7 unknown #
edge $-1 $197 -15.664613633818586 $275 15.664613633818586 $194 $383 forward 7 unknown #
point $-1 76.661275063325917 -35.673099693458916 15.664613633818586 #
point $-1 76.661275063325917 35.673099693458916 15.664613633818586 #
face $-1 $-1 $305 $28 $-1 $384 reversed single #
loop $-1 $-1 $301 $199 #
plane-surface $-1 0 0 15.664613633818586 0 0 1 1 0 0 forward_v I I I I #
coedge $-1 $385 $386 $295 $387 forward $200 $-1 #
coedge $-1 $203 $202 $294 $387 reversed $77 $-1 #
edge $-1 $388 -6.0183869142875466 $211 6.0183869142875466 $202 $389 forward 7 unknown #
coedge $-1 $390 $301 $203 $298 forward $292 $-1 #
edge $-1 $299 76.661275063325917 $391 88.69804889190101 $203 $392 forward 7 unknown #
vertex $-1 $298 $393 #
straight-curve $-1 -76.661275063325917 35.673099693458916 0 0 0 -1 I I #
coedge $-1 $297 $394 $205 $302 forward $292 $-1 #
edge $-1 $306 -35.673099693458916 $299 35.673099693458916 $301 $395 forward 7 unknown #
coedge $-1 $396 $206 $394 $397 reversed $305 $-1 #
coedge $-1 $206 $396 $208 $309 reversed $305 $-1 #
loop $-1 $-1 $206 $291 #
vertex $-1 $207 $398 #
straight-curve $-1 -76.661275063325917 -35.673099693458916 0 0 0 1 I I #
coedge $-1 $209 $208 $385 $399 forward $122 $-1 #
edge $-1 $210 -6.0183869142875466 $400 6.0183869142875466 $304 $401 forward 7 unknown #
point $-1 -76.661275063325917 -35.673099693458916 10.507582074217321 #
point $-1 -76.661275063325917 35.673099693458916 10.507582074217321 #
plane-surface $-1 0 0 15.664613633818586 0 0 1 1 0 0 forward_v I I I I #
coedge $-1 $323 $322 $315 $402 forward $214 $-1 #
coedge $-1 $315 $216 $218 $319 reversed $130 $-1 #
coedge $-1 $216 $314 $313 $402 reversed $130 $-1 #
coedge $-1 $224 $219 $216 $317 forward $225 $-1 #
edge $-1 $320 -53.54341459120856 $403 -40.020449511068612 $316 $404 forward 7 unknown #
coedge $-1 $218 $217 $323 $405 reversed $81 $-1 #
edge $-1 $406 1.0830588725786001e-014 $320 20.612421564391529 $314 $407 forward 7 unknown #
vertex $-1 $220 $408 #
straight-curve $-1 -22.091377901491491 -22.150134613318968 15.664613633818586 -1 0 0 I I #
coedge $-1 $313 $221 $224 $327 reversed $214 $-1 #
coedge $-1 $221 $313 $318 $405 forward $214 $-1 #
vertex $-1 $222 $409 #
straight-curve $-1 -23.741010371215133 -35.673099693458916 50.348431666627945 0 0 1 I I #
straight-curve $-1 -23.741010371215133 -35.673099693458923 0.1082214367341976 0 -0.65605901945558964 -0.75470958851134928 I I #
edge $-1 $403 -64.624501234750824 $226 -23.741010371215133 $322 $410 forward 7 unknown #
point $-1 -23.741010371215133 -35.673099693458916 15.664613633818586 #
point $-1 -23.741010371215133 -22.150134613318968 15.664613633818588 #
edge $-1 $411 1 $411 0 $229 $-1 forward 7 unknown #
vertex $-1 $230 $412 #
ellipse-curve $-1 -52.943503845169204 -24.151674580942757 3.7486626898614395 0 -0.75470958851134928 0.65605901945558964 3 0 0 1 I I #
point $-1 -49.943503845169204 -28.911617153388935 7.8864175352763874 #
edge $-1 $413 1 $413 0 $233 $-1 forward 7 unknown #
vertex $-1 $234 $414 #
ellipse-curve $-1 -35.42200776079676 -24.151674580942757 3.7486626898614395 0 -0.75470958851134928 0.65605901945558964 3 0 0 1 I I #
point $-1 -32.42200776079676 -28.911617153388935 7.8864175352763874 #
loop $-1 $-1 $245 $237 #
plane-surface $-1 0 35.673099693458916 0 0 -1 0 0 0 -1 forward_v I I I I #
coedge $-1 $341 $240 $242 $345 reversed $152 $-1 #
coedge $-1 $240 $340 $415 $416 reversed $152 $-1 #
coedge $-1 $248 $243 $240 $343 forward $238 $-1 #
edge $-1 $346 -22.534904137199284 $417 -9.7557670618552308 $342 $418 forward 7 unknown #
coedge $-1 $242 $241 $349 $419 reversed $95 $-1 #
edge $-1 $420 -71.346199386917789 $346 -53.581108105538277 $340 $421 forward 7 unknown #
vertex $-1 $244 $422 #
straight-curve $-1 -7.8543767158248912 22.89396261811487 15.664613633818586 1 0 0 I I #
coedge $-1 $415 $245 $248 $353 reversed $338 $-1 #
coedge $-1 $245 $415 $344 $419 forward $338 $-1 #
vertex $-1 $246 $423 #
straight-curve $-1 -24.429647833080342 35.673099693458916 81.588095351143991 0 0 1 I I #
straight-curve $-1 -24.429647833080342 -15.649060566189931 52.885179315058878 0 0.71933979245794832 -0.69465837861970381 I I #
edge $-1 $417 6.9878590302192229 $249 24.429647833080342 $348 $424 forward 7 unknown #
point $-1 -24.429647833080342 35.673099693458916 15.664613633818586 #
point $-1 -24.429647833080342 22.893962618114863 15.66461363381859 #
edge $-1 $425 1 $425 0 $252 $-1 forward 7 unknown #
vertex $-1 $253 $426 #
ellipse-curve $-1 -20.941290072508124 28.438586414484121 8.6193130078091631 0 0.69465837861970381 0.71933979245794832 1 0 0 1 I I #
point $-1 -19.941290072508124 29.283531155786861 9.4942788810415006 #
edge $-1 $427 1 $427 0 $256 $-1 forward 7 unknown #
vertex $-1 $257 $428 #
ellipse-curve $-1 -15.708753431649789 28.438586414484121 8.6193130078091631 0 0.69465837861970381 0.71933979245794832 1 0 0 1 I I #
point $-1 -14.708753431649789 29.283531155786861 9.4942788810415006 #
edge $-1 $429 1 $429 0 $260 $-1 forward 7 unknown #
vertex $-1 $261 $430 #
ellipse-curve $-1 -10.476216790791455 28.438586414484121 8.6193130078091631 0 0.69465837861970381 0.71933979245794832 1 0 0 1 I I #
point $-1 -9.4762167907914545 29.283531155786861 9.4942788810415006 #
plane-surface $-1 76.661275063325917 0 0 -1 0 0 0 0 1 forward_v I I I I #
coedge $-1 $269 $267 $271 $373 reversed $181 $-1 #
edge $-1 $282 -15.664613633818586 $375 15.664613633818586 $281 $431 forward 7 unknown #
vertex $-1 $373 $432 #
straight-curve $-1 -76.661275063325917 -35.673099693458916 0 0 0 -1 I I #
edge $-1 $371 -35.673099693458916 $375 35.673099693458916 $369 $433 forward 7 unknown #
straight-curve $-1 0 -35.673099693458916 -15.664613633818586 -1 0 0 I I #
vertex $-1 $274 $434 #
straight-curve $-1 0 35.673099693458916 -15.664613633818586 1 0 0 I I #
point $-1 76.661275063325917 35.673099693458916 -15.664613633818586 #
point $-1 76.661275063325917 -35.673099693458916 -15.664613633818586 #
straight-curve $-1 -76.661275063325917 0 15.664613633818586 0 -1 0 I I #
point $-1 -76.661275063325917 35.673099693458916 15.664613633818586 #
point $-1 -76.661275063325917 -35.673099693458916 15.664613633818586 #
straight-curve $-1 76.661275063325917 -35.673099693458916 0 0 0 -1 I I #
straight-curve $-1 76.661275063325917 35.673099693458916 0 0 0 -1 I I #
plane-surface $-1 0 -35.673099693458916 0 0 1 0 0 0 1 forward_v I I I I #
coedge $-1 $435 $294 $308 $399 reversed $200 $-1 #
coedge $-1 $294 $435 $390 $436 reversed $200 $-1 #
edge $-1 $391 -2.5785157798006324 $388 2.5785157798006324 $295 $437 forward 7 unknown #
vertex $-1 $296 $438 #
straight-curve $-1 -82.679661977613463 35.673099693458916 10.507582074217321 1 0 0 I I #
coedge $-1 $394 $297 $386 $436 forward $292 $-1 #
vertex $-1 $298 $439 #
straight-curve $-1 0 35.673099693458916 15.664613633818586 -1 0 0 I I #
point $-1 -76.661275063325917 35.673099693458916 15.664613633818586 #
coedge $-1 $301 $390 $303 $397 forward $292 $-1 #
straight-curve $-1 -76.661275063325917 0 15.664613633818586 0 1 0 I I #
coedge $-1 $304 $303 $435 $440 forward $305 $-1 #
edge $-1 $441 -88.69804889190101 $306 -76.661275063325917 $303 $442 forward 7 unknown #
point $-1 -76.661275063325917 -35.673099693458916 15.664613633818586 #
edge $-1 $400 -35.673099693458916 $388 35.673099693458916 $385 $443 forward 7 unknown #
vertex $-1 $399 $444 #
straight-curve $-1 -82.679661977613463 -35.673099693458916 10.507582074217321 -1 0 0 I I #
edge $-1 $403 34.683818032809356 $406 50.240210229893741 $313 $445 forward 7 unknown #
vertex $-1 $327 $446 #
straight-curve $-1 -64.624501234750824 -75.693549204527528 15.66461363381859 0 -1 0 I I #
edge $-1 $406 -42.533123333259333 $324 -1.6496324697236417 $323 $447 forward 7 unknown #
vertex $-1 $405 $448 #
straight-curve $-1 -64.624501234750824 -35.673099693458923 0.1082214367341976 0 0.65605901945558964 0.75470958851134928 I I #
point $-1 -64.624501234750824 -22.150134613318968 15.664613633818588 #
point $-1 -23.741010371215133 -35.673099693458916 0.10822143673420577 #
straight-curve $-1 0 -35.673099693458916 15.664613633818586 1 0 0 I I #
vertex $-1 $330 $449 #
point $-1 -49.943503845169204 -24.151674580942757 3.7486626898614395 #
vertex $-1 $334 $450 #
point $-1 -32.42200776079676 -24.151674580942757 3.7486626898614395 #
coedge $-1 $349 $348 $341 $416 forward $338 $-1 #
edge $-1 $417 65.923481717325402 $420 78.264151222879534 $415 $451 forward 7 unknown #
vertex $-1 $353 $452 #
straight-curve $-1 -6.9878590302192229 45.428866755314147 15.66461363381859 0 1 0 I I #
edge $-1 $420 -0.86651768560566822 $350 16.575271117255451 $349 $453 forward 7 unknown #
vertex $-1 $419 $454 #
straight-curve $-1 -6.9878590302192229 -15.649060566189931 52.885179315058878 0 -0.71933979245794832 0.69465837861970381 I I #
point $-1 -6.9878590302192229 22.893962618114863 15.66461363381859 #
point $-1 -24.429647833080342 35.673099693458909 3.3239441282644577 #
straight-curve $-1 0 35.673099693458916 15.664613633818586 -1 0 0 I I #
vertex $-1 $356 $455 #
point $-1 -19.941290072508124 28.438586414484121 8.6193130078091631 #
vertex $-1 $360 $456 #
point $-1 -14.708753431649789 28.438586414484121 8.6193130078091631 #
vertex $-1 $364 $457 #
point $-1 -9.4762167907914545 28.438586414484121 8.6193130078091631 #
straight-curve $-1 -76.661275063325917 35.673099693458916 0 0 0 -1 I I #
point $-1 -76.661275063325917 -35.673099693458916 -15.664613633818586 #
straight-curve $-1 -76.661275063325917 0 -15.664613633818586 0 1 0 I I #
point $-1 -76.661275063325917 35.673099693458916 -15.664613633818586 #
coedge $-1 $386 $385 $396 $440 reversed $200 $-1 #
edge $-1 $391 -35.673099693458916 $441 35.673099693458916 $386 $458 forward 7 unknown #
straight-curve $-1 -88.69804889190101 35.673099693458916 13.086097854017954 0 0 -1 I I #
point $-1 -88.69804889190101 35.673099693458916 10.507582074217321 #
point $-1 -88.69804889190101 35.673099693458916 15.664613633818586 #
edge $-1 $441 -2.5785157798006324 $400 2.5785157798006324 $435 $459 forward 7 unknown #
vertex $-1 $436 $460 #
straight-curve $-1 0 -35.673099693458916 15.664613633818586 1 0 0 I I #
straight-curve $-1 -88.69804889190101 0 10.507582074217321 0 1 0 I I #
point $-1 -88.69804889190101 -35.673099693458916 10.507582074217321 #
straight-curve $-1 -64.624501234750824 -35.673099693458916 50.348431666627945 0 0 -1 I I #
point $-1 -64.624501234750824 -35.673099693458916 15.664613633818586 #
straight-curve $-1 -22.091377901491491 -35.673099693458916 0.10822143673420925 1 0 0 I I #
point $-1 -64.624501234750824 -35.673099693458916 0.10822143673420577 #
point $-1 -52.943503845169204 -21.887545815408711 1.7804856314946715 #
point $-1 -35.42200776079676 -21.887545815408711 1.7804856314946715 #
straight-curve $-1 -6.9878590302192229 35.673099693458916 81.588095351143991 0 0 -1 I I #
point $-1 -6.9878590302192229 35.673099693458916 15.664613633818586 #
straight-curve $-1 -7.8543767158248912 35.673099693458909 3.3239441282644577 -1 0 0 I I #
point $-1 -6.9878590302192229 35.673099693458909 3.3239441282644577 #
point $-1 -20.941290072508124 27.743928035864414 7.8999732153512152 #
point $-1 -15.708753431649789 27.743928035864414 7.8999732153512152 #
point $-1 -10.476216790791455 27.743928035864414 7.8999732153512152 #
straight-curve $-1 -88.69804889190101 0 15.664613633818586 0 -1 0 I I #
straight-curve $-1 -88.69804889190101 -35.673099693458916 13.086097854017954 0 0 -1 I I #
point $-1 -88.69804889190101 -35.673099693458916 15.664613633818586 #
End-of-ACIS-data 