500 0 9 0           
7 Unknown 11 ACIS 5.0 NT 24 Thu Mar 25 17:15:28 1999 
-1 9.9999999999999995e-007 1e-010 
body $-1 $9 $-1 $10 #
body $-1 $11 $-1 $12 #
body $-1 $13 $-1 $14 #
body $-1 $15 $-1 $16 #
body $-1 $17 $-1 $18 #
body $-1 $19 $-1 $20 #
body $-1 $21 $-1 $22 #
body $-1 $23 $-1 $24 #
body $-1 $25 $-1 $26 #
lump $-1 $-1 $27 $0 #
transform $-1 1 0 0 0 1 0 0 0 1 58.106021301919611 31.367533768830391 9.894649061189849 1 rotate no_reflect no_shear #
lump $-1 $-1 $28 $1 #
transform $-1 1 0 0 0 1 0 0 0 1 58.106021301919611 31.367533768830391 9.894649061189849 1 rotate no_reflect no_shear #
lump $-1 $-1 $29 $2 #
transform $-1 1 0 0 0 1 0 0 0 1 58.106021301919611 31.367533768830391 9.894649061189849 1 rotate no_reflect no_shear #
lump $-1 $-1 $30 $3 #
transform $-1 1 0 0 0 1 0 0 0 1 58.106021301919611 31.367533768830391 9.894649061189849 1 rotate no_reflect no_shear #
lump $-1 $-1 $31 $4 #
transform $-1 1 0 0 0 1 0 0 0 1 58.106021301919611 31.367533768830391 9.894649061189849 1 rotate no_reflect no_shear #
lump $-1 $-1 $32 $5 #
transform $-1 1 0 0 0 1 0 0 0 1 58.106021301919611 31.367533768830391 9.894649061189849 1 rotate no_reflect no_shear #
lump $-1 $-1 $33 $6 #
transform $-1 1 0 0 0 1 0 0 0 1 58.106021301919611 31.367533768830391 9.894649061189849 1 rotate no_reflect no_shear #
lump $-1 $-1 $34 $7 #
transform $-1 1 0 0 0 1 0 0 0 1 58.106021301919611 31.367533768830391 9.894649061189849 1 rotate no_reflect no_shear #
lump $-1 $-1 $35 $8 #
transform $-1 1 0 0 0 1 0 0 0 1 58.106021301919611 31.367533768830391 9.894649061189849 1 rotate no_reflect no_shear #
shell $-1 $-1 $-1 $36 $-1 $9 #
shell $-1 $-1 $-1 $37 $-1 $11 #
shell $-1 $-1 $-1 $38 $-1 $13 #
shell $-1 $-1 $-1 $39 $-1 $15 #
shell $-1 $-1 $-1 $40 $-1 $17 #
shell $-1 $-1 $-1 $41 $-1 $19 #
shell $-1 $-1 $-1 $42 $-1 $21 #
shell $-1 $-1 $-1 $43 $-1 $23 #
shell $-1 $-1 $-1 $44 $-1 $25 #
face $-1 $45 $46 $27 $-1 $47 forward single #
face $-1 $48 $49 $28 $-1 $50 forward single #
face $-1 $51 $52 $29 $-1 $53 forward single #
face $-1 $54 $55 $30 $-1 $56 reversed single #
face $-1 $57 $58 $31 $-1 $59 forward single #
face $-1 $60 $61 $32 $-1 $62 forward single #
face $-1 $63 $64 $33 $-1 $65 reversed single #
face $-1 $66 $67 $34 $-1 $68 forward single #
face $-1 $69 $70 $35 $-1 $71 forward single #
face $-1 $72 $73 $27 $-1 $74 reversed single #
loop $-1 $-1 $75 $36 #
plane-surface $-1 0 0 9.894649061189849 0 0 1 1 0 0 forward_v I I I I #
face $-1 $76 $77 $28 $-1 $78 reversed single #
loop $-1 $-1 $79 $37 #
plane-surface $-1 0 -31.367533768830391 0 0 1 0 0 0 1 forward_v I I I I #
face $-1 $80 $81 $29 $-1 $82 reversed single #
loop $-1 $-1 $83 $38 #
plane-surface $-1 0 31.367533768830391 0 0 -1 0 0 0 -1 forward_v I I I I #
face $-1 $84 $85 $30 $-1 $86 reversed single #
loop $-1 $-1 $87 $39 #
plane-surface $-1 -124.76251141876801 -3.098471699735736 96.746085890067349 0 1 0 -0.57357644374324357 0 0.81915203911291934 forward_v I I I I #
face $-1 $88 $89 $31 $-1 $90 forward single #
loop $-1 $91 $92 $40 #
cone-surface $-1 -51.276960530691248 0.13565173419264198 4.478924004593738 0.57357644374324357 0 -0.81915203911291934 0.81915203911291934 0 0.57357644374324357 1 I I 0 1 1 forward I I I I #
face $-1 $93 $94 $32 $-1 $95 forward single #
loop $-1 $96 $97 $41 #
cone-surface $-1 -51.276960530691248 4.9868368850852107 4.478924004593738 0.57357644374324357 0 -0.81915203911291934 0.81915203911291934 0 0.57357644374324357 1 I I 0 1 1 forward I I I I #
face $-1 $98 $99 $33 $-1 $100 reversed single #
loop $-1 $-1 $101 $42 #
plane-surface $-1 29.567179750355663 8.2209603190135958 163.40257600691575 0 -1 0 -0.57357644374324357 0 -0.81915203911291934 forward_v I I I I #
face $-1 $102 $103 $34 $-1 $104 forward single #
loop $-1 $105 $106 $43 #
cone-surface $-1 51.276960530691248 0.13565173419264198 4.4789240045937486 -0.57357644374324357 0 -0.81915203911291934 0.81915203911291934 0 -0.57357644374324357 1 I I 0 1 1 forward I I I I #
face $-1 $107 $108 $35 $-1 $109 forward single #
loop $-1 $110 $111 $44 #
cone-surface $-1 51.276960530691248 4.9868368850852107 4.4789240045937486 -0.57357644374324357 0 -0.81915203911291934 0.81915203911291934 0 -0.57357644374324357 1 I I 0 1 1 forward I I I I #
face $-1 $112 $113 $27 $-1 $114 reversed single #
loop $-1 $-1 $115 $45 #
plane-surface $-1 0 0 -9.894649061189849 0 0 1 1 0 0 forward_v I I I I #
coedge $-1 $116 $117 $118 $119 forward $46 $-1 #
face $-1 $120 $121 $28 $-1 $122 reversed single #
loop $-1 $-1 $123 $48 #
plane-surface $-1 0 0 -9.894649061189849 0 0 1 1 0 0 forward_v I I I I #
coedge $-1 $124 $125 $126 $127 forward $49 $-1 #
face $-1 $128 $129 $29 $-1 $130 forward single #
loop $-1 $-1 $131 $51 #
plane-surface $-1 -58.106021301919611 0 0 1 0 0 0 0 -1 forward_v I I I I #
coedge $-1 $132 $133 $134 $135 forward $52 $-1 #
face $-1 $136 $137 $30 $-1 $138 reversed single #
loop $-1 $-1 $139 $54 #
plane-surface $-1 -58.106021301919597 2.5612443096389299 1.5507542216549979 -0.57357644374324357 0 0.81915203911291934 0.81915203911291934 0 0.57357644374324357 forward_v I I I I #
coedge $-1 $140 $141 $142 $143 reversed $55 $-1 #
face $-1 $-1 $144 $31 $-1 $145 forward single #
loop $-1 $146 $147 $57 #
cone-surface $-1 -50.119269814928344 0.13565173419264198 2.8255703482085934 0.57357644374324357 0 -0.81915203911291934 0.40957601955645967 0 0.28678822187162178 1 I I -0.70710678118654724 0.70710678118654791 0.5 forward I I I I #
loop $-1 $-1 $148 $40 #
coedge $-1 $92 $92 $149 $150 reversed $58 $-1 #
face $-1 $-1 $151 $32 $-1 $152 forward single #
loop $-1 $153 $154 $60 #
cone-surface $-1 -50.119269814928344 4.9868368850852107 2.8255703482085934 0.57357644374324357 0 -0.81915203911291934 0.40957601955645967 0 0.28678822187162178 1 I I -0.70710678118654724 0.70710678118654791 0.5 forward I I I I #
loop $-1 $-1 $155 $41 #
coedge $-1 $97 $97 $156 $157 reversed $61 $-1 #
face $-1 $158 $159 $33 $-1 $160 reversed single #
loop $-1 $-1 $161 $63 #
plane-surface $-1 -37.089310366492754 2.5612443096389299 68.207244338503401 0.57357644374324357 0 0.81915203911291934 0.81915203911291934 0 -0.57357644374324357 forward_v I I I I #
coedge $-1 $162 $163 $164 $165 reversed $64 $-1 #
face $-1 $-1 $166 $34 $-1 $167 forward single #
loop $-1 $168 $169 $66 #
cone-surface $-1 50.119269814928344 0.13565173419264198 2.8255703482086041 -0.57357644374324357 0 -0.81915203911291934 0.40957601955645967 0 -0.28678822187162178 1 I I -0.70710678118654724 0.70710678118654791 0.5 forward I I I I #
loop $-1 $-1 $170 $43 #
coedge $-1 $106 $106 $171 $172 reversed $67 $-1 #
face $-1 $-1 $173 $35 $-1 $174 forward single #
loop $-1 $175 $176 $69 #
cone-surface $-1 50.119269814928344 4.9868368850852107 2.8255703482086041 -0.57357644374324357 0 -0.81915203911291934 0.40957601955645967 0 -0.28678822187162178 1 I I -0.70710678118654724 0.70710678118654791 0.5 forward I I I I #
loop $-1 $-1 $177 $44 #
coedge $-1 $111 $111 $178 $179 reversed $70 $-1 #
face $-1 $180 $181 $27 $-1 $182 reversed single #
loop $-1 $-1 $183 $72 #
plane-surface $-1 0 -31.367533768830391 0 0 1 0 0 0 1 forward_v I I I I #
coedge $-1 $184 $185 $186 $187 forward $73 $-1 #
coedge $-1 $188 $75 $189 $190 forward $46 $-1 #
coedge $-1 $75 $188 $191 $192 forward $46 $-1 #
coedge $-1 $193 $194 $75 $119 reversed $195 $-1 #
edge $-1 $196 -31.367533768830391 $197 31.367533768830391 $118 $198 forward 7 unknown #
face $-1 $199 $200 $28 $-1 $201 forward single #
loop $-1 $-1 $202 $76 #
plane-surface $-1 58.106021301919611 0 0 -1 0 0 0 0 1 forward_v I I I I #
coedge $-1 $203 $204 $205 $206 forward $77 $-1 #
coedge $-1 $205 $79 $202 $207 reversed $49 $-1 #
coedge $-1 $79 $205 $208 $209 reversed $49 $-1 #
coedge $-1 $210 $211 $79 $127 reversed $200 $-1 #
edge $-1 $212 -58.106021301919611 $213 58.106021301919611 $126 $214 forward 7 unknown #
face $-1 $215 $216 $29 $-1 $217 reversed single #
loop $-1 $-1 $218 $80 #
plane-surface $-1 0 36.796370508461898 -4.2585008978705332 0 0 1 1 0 0 forward_v I I I I #
coedge $-1 $219 $220 $132 $221 forward $81 $-1 #
coedge $-1 $222 $83 $131 $221 reversed $52 $-1 #
coedge $-1 $83 $222 $223 $224 reversed $52 $-1 #
coedge $-1 $218 $225 $83 $135 reversed $129 $-1 #
edge $-1 $226 -58.106021301919611 $227 58.106021301919611 $134 $228 forward 7 unknown #
face $-1 $229 $230 $30 $-1 $231 reversed single #
loop $-1 $-1 $232 $84 #
plane-surface $-1 -124.76251141876801 8.2209603190135958 96.746085890067349 0 -1 0 0.57357644374324357 0 -0.81915203911291934 forward_v I I I I #
coedge $-1 $233 $234 $235 $236 reversed $85 $-1 #
coedge $-1 $141 $87 $237 $238 reversed $55 $-1 #
coedge $-1 $87 $140 $233 $239 reversed $55 $-1 #
coedge $-1 $235 $240 $87 $143 forward $241 $-1 #
edge $-1 $242 4.2752344074643958 $243 16.191550962138557 $142 $244 forward 7 unknown #
loop $-1 $-1 $149 $88 #
plane-surface $-1 -58.106021301919597 2.5612443096389299 1.5507542216549979 -0.57357644374324357 0 0.81915203911291934 0.81915203911291934 0 0.57357644374324357 forward_v I I I I #
loop $-1 $-1 $245 $57 #
coedge $-1 $147 $147 $148 $246 reversed $89 $-1 #
coedge $-1 $148 $148 $147 $246 forward $91 $-1 #
coedge $-1 $149 $149 $92 $150 forward $144 $-1 #
edge $-1 $247 0 $247 6.2831853071796004 $149 $248 forward 7 unknown #
loop $-1 $-1 $156 $93 #
plane-surface $-1 -58.106021301919597 2.5612443096389299 1.5507542216549979 -0.57357644374324357 0 0.81915203911291934 0.81915203911291934 0 0.57357644374324357 forward_v I I I I #
loop $-1 $-1 $249 $60 #
coedge $-1 $154 $154 $155 $250 reversed $94 $-1 #
coedge $-1 $155 $155 $154 $250 forward $96 $-1 #
coedge $-1 $156 $156 $97 $157 forward $151 $-1 #
edge $-1 $251 0 $251 6.2831853071796004 $156 $252 forward 7 unknown #
face $-1 $253 $254 $33 $-1 $255 forward single #
loop $-1 $-1 $256 $98 #
plane-surface $-1 29.567179750355663 -3.098471699735736 163.40257600691575 0 1 0 0.57357644374324357 0 0.81915203911291934 forward_v I I I I #
coedge $-1 $257 $258 $259 $260 reversed $99 $-1 #
coedge $-1 $163 $101 $261 $262 reversed $64 $-1 #
coedge $-1 $101 $162 $257 $263 reversed $64 $-1 #
coedge $-1 $259 $264 $101 $165 forward $254 $-1 #
edge $-1 $265 -43.32243142674178 $266 -31.406114872067612 $164 $267 forward 7 unknown #
loop $-1 $-1 $171 $102 #
plane-surface $-1 -37.089310366492754 2.5612443096389299 68.207244338503401 0.57357644374324357 0 0.81915203911291934 0.81915203911291934 0 -0.57357644374324357 forward_v I I I I #
loop $-1 $-1 $268 $66 #
coedge $-1 $169 $169 $170 $269 reversed $103 $-1 #
coedge $-1 $170 $170 $169 $269 forward $105 $-1 #
coedge $-1 $171 $171 $106 $172 forward $166 $-1 #
edge $-1 $270 0 $270 6.2831853071796004 $171 $271 forward 7 unknown #
loop $-1 $-1 $178 $107 #
plane-surface $-1 -37.089310366492754 2.5612443096389299 68.207244338503401 0.57357644374324357 0 0.81915203911291934 0.81915203911291934 0 -0.57357644374324357 forward_v I I I I #
loop $-1 $-1 $272 $69 #
coedge $-1 $176 $176 $177 $273 reversed $108 $-1 #
coedge $-1 $177 $177 $176 $273 forward $110 $-1 #
coedge $-1 $178 $178 $111 $179 forward $173 $-1 #
edge $-1 $274 0 $274 6.2831853071796004 $178 $275 forward 7 unknown #
face $-1 $276 $277 $27 $-1 $278 reversed single #
loop $-1 $-1 $279 $112 #
plane-surface $-1 -58.106021301919611 0 0 1 0 0 0 0 -1 forward_v I I I I #
coedge $-1 $280 $191 $281 $282 forward $113 $-1 #
coedge $-1 $283 $115 $280 $284 forward $73 $-1 #
coedge $-1 $115 $283 $285 $286 forward $73 $-1 #
coedge $-1 $194 $193 $115 $187 reversed $195 $-1 #
edge $-1 $287 -31.367533768830391 $288 31.367533768830391 $186 $289 forward 7 unknown #
coedge $-1 $117 $116 $290 $291 forward $46 $-1 #
coedge $-1 $292 $293 $116 $190 reversed $277 $-1 #
edge $-1 $197 -58.106021301919611 $294 58.106021301919611 $189 $295 forward 7 unknown #
coedge $-1 $183 $296 $117 $192 reversed $113 $-1 #
edge $-1 $297 -58.106021301919611 $196 58.106021301919611 $191 $298 forward 7 unknown #
coedge $-1 $186 $118 $296 $299 forward $195 $-1 #
coedge $-1 $118 $186 $292 $300 reversed $195 $-1 #
loop $-1 $-1 $193 $276 #
vertex $-1 $119 $301 #
vertex $-1 $119 $302 #
straight-curve $-1 58.106021301919611 0 9.894649061189849 0 1 0 I I #
face $-1 $303 $304 $28 $-1 $305 reversed single #
loop $-1 $-1 $211 $120 #
plane-surface $-1 0 -36.796370508461891 -4.2585008978705332 0 0 1 1 0 0 forward_v I I I I #
coedge $-1 $306 $307 $124 $207 forward $121 $-1 #
coedge $-1 $308 $123 $307 $309 forward $77 $-1 #
coedge $-1 $123 $308 $310 $311 forward $77 $-1 #
coedge $-1 $125 $124 $123 $206 reversed $49 $-1 #
edge $-1 $312 -58.106021301919611 $313 58.106021301919611 $123 $314 forward 7 unknown #
edge $-1 $313 -9.894649061189849 $213 -4.2585008978705332 $202 $315 forward 7 unknown #
coedge $-1 $310 $316 $125 $209 forward $317 $-1 #
edge $-1 $212 4.2585008978705332 $312 9.894649061189849 $208 $318 forward 7 unknown #
coedge $-1 $319 $126 $316 $320 forward $200 $-1 #
coedge $-1 $126 $319 $306 $321 forward $200 $-1 #
vertex $-1 $209 $322 #
vertex $-1 $321 $323 #
straight-curve $-1 0 -31.367533768830391 -4.2585008978705332 1 0 0 I I #
face $-1 $324 $325 $29 $-1 $326 reversed single #
loop $-1 $-1 $327 $128 #
plane-surface $-1 0 42.225207248093398 -7.0765749795301911 0 -1 0 0 0 -1 forward_v I I I I #
coedge $-1 $328 $134 $329 $330 forward $129 $-1 #
coedge $-1 $331 $131 $225 $332 reversed $81 $-1 #
coedge $-1 $131 $331 $333 $334 reversed $81 $-1 #
edge $-1 $335 -9.894649061189849 $227 -4.2585008978705332 $131 $336 forward 7 unknown #
coedge $-1 $133 $132 $337 $338 reversed $52 $-1 #
coedge $-1 $339 $329 $133 $224 forward $340 $-1 #
edge $-1 $226 4.2585008978705332 $341 9.894649061189849 $223 $342 forward 7 unknown #
coedge $-1 $134 $328 $219 $332 forward $129 $-1 #
vertex $-1 $224 $343 #
vertex $-1 $332 $344 #
straight-curve $-1 0 31.367533768830391 -4.2585008978705332 -1 0 0 I I #
face $-1 $-1 $241 $30 $-1 $345 forward single #
loop $-1 $-1 $346 $136 #
plane-surface $-1 -58.106021301919611 0 0 1 0 0 0 0 -1 forward_v I I I I #
coedge $-1 $347 $348 $349 $350 reversed $137 $-1 #
coedge $-1 $351 $139 $141 $239 forward $85 $-1 #
coedge $-1 $139 $351 $347 $352 forward $85 $-1 #
coedge $-1 $349 $142 $139 $236 forward $241 $-1 #
edge $-1 $243 -4.3790938545552009 $353 6.9403381641941309 $235 $354 forward 7 unknown #
coedge $-1 $355 $356 $140 $238 forward $230 $-1 #
edge $-1 $357 -46.822288723378684 $242 -38.478393883843822 $237 $358 forward 7 unknown #
edge $-1 $243 -14.547136533504368 $357 1.7372030585532449e-014 $141 $359 forward 7 unknown #
coedge $-1 $142 $349 $355 $360 forward $241 $-1 #
loop $-1 $-1 $349 $229 #
vertex $-1 $238 $361 #
vertex $-1 $143 $362 #
straight-curve $-1 -62.381255709384007 -3.098471699735736 9.8946490611898525 1 0 0 I I #
coedge $-1 $245 $245 $-1 $363 reversed $146 $-1 #
edge $-1 $364 0 $364 6.2831853071796004 $147 $365 forward 7 unknown #
vertex $-1 $150 $366 #
ellipse-curve $-1 -52.147863024582527 0.13565173419264198 5.7227016414224181 -0.57357644374324357 0 0.81915203911291934 0.81915203911291934 0 0.57357644374324357 1 I I #
coedge $-1 $249 $249 $-1 $367 reversed $153 $-1 #
edge $-1 $368 0 $368 6.2831853071796004 $154 $369 forward 7 unknown #
vertex $-1 $157 $370 #
ellipse-curve $-1 -52.147863024582527 4.9868368850852107 5.7227016414224181 -0.57357644374324357 0 0.81915203911291934 0.81915203911291934 0 0.57357644374324357 1 I I #
face $-1 $-1 $371 $33 $-1 $372 reversed single #
loop $-1 $-1 $164 $158 #
plane-surface $-1 0 0 9.894649061189849 0 0 1 1 0 0 forward_v I I I I #
coedge $-1 $373 $374 $375 $376 reversed $159 $-1 #
coedge $-1 $377 $161 $163 $263 forward $99 $-1 #
coedge $-1 $161 $377 $373 $378 forward $99 $-1 #
coedge $-1 $375 $164 $161 $260 forward $254 $-1 #
edge $-1 $266 -6.9403381641941309 $379 4.3790938545552009 $259 $380 forward 7 unknown #
coedge $-1 $381 $382 $162 $262 forward $371 $-1 #
edge $-1 $383 -80.150533781802892 $265 -71.806638942268023 $261 $384 forward 7 unknown #
edge $-1 $266 101.66490607033484 $383 116.21204260383924 $163 $385 forward 7 unknown #
coedge $-1 $164 $375 $381 $386 forward $254 $-1 #
vertex $-1 $262 $387 #
vertex $-1 $165 $388 #
straight-curve $-1 14.783589875177832 8.2209603190135958 9.8946490611898525 -1 0 0 I I #
coedge $-1 $268 $268 $-1 $389 reversed $168 $-1 #
edge $-1 $390 0 $390 6.2831853071796004 $169 $391 forward 7 unknown #
vertex $-1 $172 $392 #
ellipse-curve $-1 52.147863024582527 0.13565173419264198 5.7227016414224217 0.57357644374324357 0 0.81915203911291934 0.81915203911291934 0 -0.57357644374324357 1 I I #
coedge $-1 $272 $272 $-1 $393 reversed $175 $-1 #
edge $-1 $394 0 $394 6.2831853071796004 $176 $395 forward 7 unknown #
vertex $-1 $179 $396 #
ellipse-curve $-1 52.147863024582527 4.9868368850852107 5.7227016414224217 0.57357644374324357 0 0.81915203911291934 0.81915203911291934 0 -0.57357644374324357 1 I I #
face $-1 $-1 $195 $27 $-1 $397 reversed single #
loop $-1 $-1 $292 $180 #
plane-surface $-1 0 31.367533768830391 0 0 -1 0 0 0 -1 forward_v I I I I #
coedge $-1 $398 $290 $293 $399 forward $181 $-1 #
coedge $-1 $296 $183 $184 $284 reversed $113 $-1 #
coedge $-1 $290 $398 $183 $282 reversed $181 $-1 #
edge $-1 $297 -9.894649061189849 $400 9.894649061189849 $281 $401 forward 7 unknown #
coedge $-1 $185 $184 $398 $402 forward $73 $-1 #
edge $-1 $288 -58.106021301919611 $400 58.106021301919611 $280 $403 forward 7 unknown #
coedge $-1 $293 $292 $185 $286 reversed $277 $-1 #
edge $-1 $404 -58.106021301919611 $287 58.106021301919611 $285 $405 forward 7 unknown #
vertex $-1 $187 $406 #
vertex $-1 $299 $407 #
straight-curve $-1 58.106021301919611 0 -9.894649061189849 0 -1 0 I I #
coedge $-1 $279 $281 $188 $291 reversed $181 $-1 #
edge $-1 $294 -31.367533768830391 $297 31.367533768830391 $290 $408 forward 7 unknown #
coedge $-1 $285 $189 $194 $300 forward $277 $-1 #
coedge $-1 $189 $285 $279 $399 reversed $277 $-1 #
vertex $-1 $190 $409 #
straight-curve $-1 0 31.367533768830391 9.894649061189849 -1 0 0 I I #
coedge $-1 $191 $280 $193 $299 reversed $113 $-1 #
vertex $-1 $291 $410 #
straight-curve $-1 0 -31.367533768830391 9.894649061189849 1 0 0 I I #
edge $-1 $196 -9.894649061189849 $288 9.894649061189849 $193 $411 forward 7 unknown #
edge $-1 $197 -9.894649061189849 $287 9.894649061189849 $194 $412 forward 7 unknown #
point $-1 58.106021301919611 -31.367533768830391 9.894649061189849 #
point $-1 58.106021301919611 31.367533768830391 9.894649061189849 #
face $-1 $-1 $317 $28 $-1 $413 reversed single #
loop $-1 $-1 $414 $199 #
plane-surface $-1 0 -42.22520724809339 -7.0765749795301911 0 1 0 0 0 1 forward_v I I I I #
coedge $-1 $415 $202 $211 $321 reversed $121 $-1 #
coedge $-1 $202 $415 $203 $309 reversed $121 $-1 #
coedge $-1 $204 $203 $416 $417 forward $77 $-1 #
edge $-1 $313 31.367533768830391 $418 42.22520724809339 $307 $419 forward 7 unknown #
coedge $-1 $420 $208 $204 $311 reversed $317 $-1 #
edge $-1 $421 -42.22520724809339 $312 -31.367533768830391 $310 $422 forward 7 unknown #
vertex $-1 $209 $423 #
vertex $-1 $309 $424 #
straight-curve $-1 0 -31.367533768830391 -9.894649061189849 1 0 0 I I #
straight-curve $-1 58.106021301919611 -31.367533768830391 0 0 0 1 I I #
coedge $-1 $208 $420 $210 $320 reversed $317 $-1 #
loop $-1 $-1 $208 $303 #
straight-curve $-1 -58.106021301919611 -31.367533768830391 0 0 0 -1 I I #
coedge $-1 $211 $210 $425 $426 forward $200 $-1 #
edge $-1 $212 -5.4288367396314996 $427 5.4288367396314996 $316 $428 forward 7 unknown #
edge $-1 $429 -5.4288367396314996 $213 5.4288367396314996 $306 $430 forward 7 unknown #
point $-1 -58.106021301919611 -31.367533768830391 -4.2585008978705332 #
point $-1 58.106021301919611 -31.367533768830391 -4.2585008978705332 #
face $-1 $-1 $340 $29 $-1 $431 reversed single #
loop $-1 $-1 $337 $215 #
plane-surface $-1 0 0 -9.894649061189849 0 0 1 1 0 0 forward_v I I I I #
coedge $-1 $432 $433 $434 $435 forward $216 $-1 #
coedge $-1 $225 $218 $433 $436 forward $129 $-1 #
coedge $-1 $223 $434 $218 $330 reversed $340 $-1 #
edge $-1 $226 -5.4288367396314996 $437 5.4288367396314996 $329 $438 forward 7 unknown #
coedge $-1 $220 $219 $439 $440 forward $81 $-1 #
edge $-1 $441 -5.4288367396314996 $227 5.4288367396314996 $219 $442 forward 7 unknown #
coedge $-1 $443 $337 $220 $334 forward $325 $-1 #
edge $-1 $335 -5.4288367396315067 $444 5.4288367396314996 $220 $445 forward 7 unknown #
vertex $-1 $334 $446 #
straight-curve $-1 -58.106021301919611 31.367533768830391 0 0 0 1 I I #
coedge $-1 $333 $447 $222 $338 forward $325 $-1 #
edge $-1 $341 -58.106021301919611 $335 58.106021301919611 $337 $448 forward 7 unknown #
coedge $-1 $434 $223 $447 $449 reversed $340 $-1 #
loop $-1 $-1 $223 $324 #
vertex $-1 $224 $450 #
straight-curve $-1 58.106021301919611 31.367533768830391 0 0 0 -1 I I #
point $-1 58.106021301919611 31.367533768830398 -4.2585008978705332 #
point $-1 -58.106021301919611 31.367533768830398 -4.2585008978705332 #
plane-surface $-1 0 0 9.894649061189849 0 0 1 1 0 0 forward_v I I I I #
coedge $-1 $356 $355 $348 $451 forward $230 $-1 #
coedge $-1 $348 $232 $234 $352 reversed $137 $-1 #
coedge $-1 $232 $347 $346 $451 reversed $137 $-1 #
coedge $-1 $240 $235 $232 $350 forward $241 $-1 #
edge $-1 $353 -16.191550962138557 $452 -4.2752344074643958 $349 $453 forward 7 unknown #
coedge $-1 $234 $233 $356 $454 reversed $85 $-1 #
edge $-1 $455 -1.7372030585532449e-014 $353 14.547136533504368 $347 $456 forward 7 unknown #
vertex $-1 $236 $457 #
straight-curve $-1 -46.189704747245457 1.280622154819465 9.894649061189849 0 1 0 I I #
coedge $-1 $346 $237 $240 $360 reversed $230 $-1 #
coedge $-1 $237 $346 $351 $454 forward $230 $-1 #
vertex $-1 $238 $458 #
straight-curve $-1 -58.106021301919611 -3.098471699735736 48.373042945033674 0 0 1 I I #
straight-curve $-1 -58.106021301919597 -3.098471699735736 1.5507542216549979 -0.81915203911291934 0 -0.57357644374324357 I I #
edge $-1 $452 -8.2209603190135958 $242 3.098471699735736 $355 $459 forward 7 unknown #
point $-1 -58.106021301919611 -3.098471699735736 9.894649061189849 #
point $-1 -46.18970474724545 -3.098471699735736 9.894649061189849 #
edge $-1 $460 1 $460 0 $245 $-1 forward 7 unknown #
vertex $-1 $246 $461 #
ellipse-curve $-1 -50.406058036799969 0.13565173419264198 3.2351463677650534 -0.57357644374324357 0 0.81915203911291934 0.81915203911291934 0 0.57357644374324357 1 I I #
point $-1 -51.328710985469613 0.13565173419264198 6.2962780851656657 #
edge $-1 $462 1 $462 0 $249 $-1 forward 7 unknown #
vertex $-1 $250 $463 #
ellipse-curve $-1 -50.406058036799969 4.9868368850852107 3.2351463677650534 -0.57357644374324357 0 0.81915203911291934 0.81915203911291934 0 0.57357644374324357 1 I I #
point $-1 -51.328710985469613 4.9868368850852107 6.2962780851656657 #
loop $-1 $-1 $261 $253 #
plane-surface $-1 58.106021301919611 0 0 -1 0 0 0 0 1 forward_v I I I I #
coedge $-1 $374 $256 $258 $378 reversed $159 $-1 #
coedge $-1 $256 $373 $464 $465 reversed $159 $-1 #
coedge $-1 $264 $259 $256 $376 forward $254 $-1 #
edge $-1 $379 31.406114872067612 $466 43.32243142674178 $375 $467 forward 7 unknown #
coedge $-1 $258 $257 $382 $468 reversed $99 $-1 #
edge $-1 $469 -116.21204260383924 $379 -101.66490607033484 $373 $470 forward 7 unknown #
vertex $-1 $260 $471 #
straight-curve $-1 46.189704747245443 1.280622154819465 9.8946490611898525 0 -1 0 I I #
coedge $-1 $464 $261 $264 $386 reversed $371 $-1 #
coedge $-1 $261 $464 $377 $468 forward $371 $-1 #
vertex $-1 $262 $472 #
straight-curve $-1 58.106021301919611 8.2209603190135958 81.701288003457876 0 0 1 I I #
straight-curve $-1 -37.089310366492754 8.2209603190135958 68.207244338503401 0.81915203911291934 0 -0.57357644374324357 I I #
edge $-1 $466 -3.098471699735736 $265 8.2209603190135958 $381 $473 forward 7 unknown #
point $-1 58.106021301919611 8.2209603190135958 9.894649061189849 #
point $-1 46.189704747245443 8.2209603190135958 9.8946490611898525 #
edge $-1 $474 1 $474 0 $268 $-1 forward 7 unknown #
vertex $-1 $269 $475 #
ellipse-curve $-1 50.406058036799969 0.13565173419264198 3.235146367765064 0.57357644374324357 0 0.81915203911291934 0.81915203911291934 0 -0.57357644374324357 1 I I #
point $-1 52.967015063695456 0.13565173419264198 5.1491251976791892 #
edge $-1 $476 1 $476 0 $272 $-1 forward 7 unknown #
vertex $-1 $273 $477 #
ellipse-curve $-1 50.406058036799969 4.9868368850852107 3.235146367765064 0.57357644374324357 0 0.81915203911291934 0.81915203911291934 0 -0.57357644374324357 1 I I #
point $-1 52.967015063695456 4.9868368850852107 5.1491251976791892 #
plane-surface $-1 58.106021301919611 0 0 -1 0 0 0 0 1 forward_v I I I I #
coedge $-1 $281 $279 $283 $402 reversed $181 $-1 #
edge $-1 $294 -9.894649061189849 $404 9.894649061189849 $293 $478 forward 7 unknown #
vertex $-1 $402 $479 #
straight-curve $-1 -58.106021301919611 -31.367533768830391 0 0 0 -1 I I #
edge $-1 $400 -31.367533768830391 $404 31.367533768830391 $398 $480 forward 7 unknown #
straight-curve $-1 0 -31.367533768830391 -9.894649061189849 -1 0 0 I I #
vertex $-1 $286 $481 #
straight-curve $-1 0 31.367533768830391 -9.894649061189849 1 0 0 I I #
point $-1 58.106021301919611 31.367533768830391 -9.894649061189849 #
point $-1 58.106021301919611 -31.367533768830391 -9.894649061189849 #
straight-curve $-1 -58.106021301919611 0 9.894649061189849 0 -1 0 I I #
point $-1 -58.106021301919611 31.367533768830391 9.894649061189849 #
point $-1 -58.106021301919611 -31.367533768830391 9.894649061189849 #
straight-curve $-1 58.106021301919611 -31.367533768830391 0 0 0 -1 I I #
straight-curve $-1 58.106021301919611 31.367533768830391 0 0 0 -1 I I #
plane-surface $-1 -58.106021301919611 0 0 1 0 0 0 0 -1 forward_v I I I I #
coedge $-1 $416 $425 $420 $482 forward $304 $-1 #
coedge $-1 $307 $306 $483 $484 forward $121 $-1 #
coedge $-1 $483 $414 $308 $417 reversed $304 $-1 #
edge $-1 $418 -58.106021301919611 $421 58.106021301919611 $416 $485 forward 7 unknown #
vertex $-1 $484 $486 #
straight-curve $-1 58.106021301919611 0 -9.894649061189849 0 -1 0 I I #
coedge $-1 $316 $310 $414 $482 reversed $317 $-1 #
vertex $-1 $311 $487 #
straight-curve $-1 -58.106021301919611 0 -9.894649061189849 0 1 0 I I #
point $-1 -58.106021301919611 -31.367533768830391 -9.894649061189849 #
point $-1 58.106021301919611 -31.367533768830391 -9.894649061189849 #
coedge $-1 $414 $483 $319 $426 reversed $304 $-1 #
edge $-1 $427 -58.106021301919611 $429 58.106021301919611 $425 $488 forward 7 unknown #
vertex $-1 $320 $489 #
straight-curve $-1 -58.106021301919611 -36.796370508461891 -4.2585008978705332 0 -1 0 I I #
vertex $-1 $321 $490 #
straight-curve $-1 58.106021301919611 -36.796370508461891 -4.2585008978705332 0 1 0 I I #
plane-surface $-1 58.106021301919611 0 0 -1 0 0 0 0 1 forward_v I I I I #
coedge $-1 $439 $327 $443 $491 reversed $216 $-1 #
coedge $-1 $327 $439 $328 $436 reversed $216 $-1 #
coedge $-1 $329 $339 $327 $435 reversed $340 $-1 #
edge $-1 $437 -2.8180740816596579 $492 2.8180740816596579 $434 $493 forward 7 unknown #
edge $-1 $437 -58.106021301919611 $441 58.106021301919611 $433 $494 forward 7 unknown #
vertex $-1 $330 $495 #
straight-curve $-1 58.106021301919611 36.796370508461898 -4.2585008978705332 0 1 0 I I #
coedge $-1 $433 $432 $331 $440 reversed $216 $-1 #
edge $-1 $441 -2.8180740816596579 $444 2.8180740816596579 $439 $496 forward 7 unknown #
vertex $-1 $436 $497 #
straight-curve $-1 -58.106021301919611 36.796370508461898 -4.2585008978705332 0 -1 0 I I #
coedge $-1 $447 $333 $432 $491 forward $325 $-1 #
vertex $-1 $491 $498 #
straight-curve $-1 -58.106021301919611 36.796370508461898 -9.894649061189849 0 1 0 I I #
point $-1 -58.106021301919611 31.367533768830391 -9.894649061189849 #
coedge $-1 $337 $443 $339 $449 forward $325 $-1 #
straight-curve $-1 0 31.367533768830391 -9.894649061189849 -1 0 0 I I #
edge $-1 $492 -42.225207248093398 $341 -31.367533768830391 $339 $499 forward 7 unknown #
point $-1 58.106021301919611 31.367533768830391 -9.894649061189849 #
edge $-1 $452 38.478393883843822 $455 46.822288723378684 $346 $500 forward 7 unknown #
vertex $-1 $360 $501 #
straight-curve $-1 -62.381255709384007 8.2209603190135958 9.8946490611898525 -1 0 0 I I #
edge $-1 $455 -6.9403381641941309 $357 4.3790938545552009 $356 $502 forward 7 unknown #
vertex $-1 $454 $503 #
straight-curve $-1 -58.106021301919597 8.2209603190135958 1.5507542216549979 0.81915203911291934 0 0.57357644374324357 I I #
point $-1 -46.18970474724545 8.2209603190135958 9.894649061189849 #
point $-1 -58.106021301919611 -3.098471699735736 1.5507542216549879 #
straight-curve $-1 -58.106021301919611 0 9.894649061189849 0 -1 0 I I #
vertex $-1 $363 $504 #
point $-1 -49.586905997687047 0.13565173419264198 3.8087228115082969 #
vertex $-1 $367 $505 #
point $-1 -49.586905997687047 4.9868368850852107 3.8087228115082969 #
coedge $-1 $382 $381 $374 $465 forward $371 $-1 #
edge $-1 $466 71.806638942268023 $469 80.150533781802892 $464 $506 forward 7 unknown #
vertex $-1 $386 $507 #
straight-curve $-1 14.783589875177832 -3.098471699735736 9.8946490611898525 1 0 0 I I #
edge $-1 $469 -4.3790938545552009 $383 6.9403381641941309 $382 $508 forward 7 unknown #
vertex $-1 $468 $509 #
straight-curve $-1 -37.089310366492754 -3.098471699735736 68.207244338503401 -0.81915203911291934 0 0.57357644374324357 I I #
point $-1 46.189704747245443 -3.098471699735736 9.8946490611898525 #
point $-1 58.106021301919611 8.2209603190135958 1.5507542216549837 #
straight-curve $-1 58.106021301919611 0 9.894649061189849 0 1 0 I I #
vertex $-1 $389 $510 #
point $-1 51.225210075912884 0.13565173419264198 2.6615699240218205 #
vertex $-1 $393 $511 #
point $-1 51.225210075912884 4.9868368850852107 2.6615699240218205 #
straight-curve $-1 -58.106021301919611 31.367533768830391 0 0 0 -1 I I #
point $-1 -58.106021301919611 -31.367533768830391 -9.894649061189849 #
straight-curve $-1 -58.106021301919611 0 -9.894649061189849 0 1 0 I I #
point $-1 -58.106021301919611 31.367533768830391 -9.894649061189849 #
edge $-1 $427 -2.8180740816596579 $421 2.8180740816596579 $420 $512 forward 7 unknown #
coedge $-1 $425 $416 $415 $484 reversed $304 $-1 #
edge $-1 $429 -2.8180740816596579 $418 2.8180740816596579 $415 $513 forward 7 unknown #
straight-curve $-1 0 -42.22520724809339 -9.894649061189849 -1 0 0 I I #
point $-1 58.106021301919611 -42.22520724809339 -9.894649061189849 #
point $-1 -58.106021301919611 -42.22520724809339 -9.894649061189849 #
straight-curve $-1 0 -42.22520724809339 -4.2585008978705332 1 0 0 I I #
point $-1 -58.106021301919611 -42.22520724809339 -4.2585008978705332 #
point $-1 58.106021301919611 -42.22520724809339 -4.2585008978705332 #
edge $-1 $444 -58.106021301919611 $492 58.106021301919611 $432 $514 forward 7 unknown #
vertex $-1 $449 $515 #
straight-curve $-1 58.106021301919611 42.225207248093398 -7.0765749795301911 0 0 -1 I I #
straight-curve $-1 0 42.225207248093398 -4.2585008978705332 -1 0 0 I I #
point $-1 58.106021301919611 42.225207248093398 -4.2585008978705332 #
straight-curve $-1 -58.106021301919611 42.225207248093398 -7.0765749795301911 0 0 -1 I I #
point $-1 -58.106021301919611 42.225207248093398 -4.2585008978705332 #
point $-1 -58.106021301919611 42.225207248093398 -9.894649061189849 #
straight-curve $-1 58.106021301919611 0 -9.894649061189849 0 -1 0 I I #
straight-curve $-1 -58.106021301919611 8.2209603190135958 48.373042945033674 0 0 -1 I I #
point $-1 -58.106021301919611 8.2209603190135958 9.894649061189849 #
straight-curve $-1 -58.106021301919611 1.280622154819465 1.5507542216549886 0 -1 0 I I #
point $-1 -58.106021301919611 8.2209603190135958 1.5507542216549879 #
point $-1 -49.83248159305672 0.13565173419264198 2.4159943286521335 #
point $-1 -49.83248159305672 4.9868368850852107 2.4159943286521335 #
straight-curve $-1 58.106021301919611 -3.098471699735736 81.701288003457876 0 0 -1 I I #
point $-1 58.106021301919611 -3.098471699735736 9.894649061189849 #
straight-curve $-1 58.106021301919611 1.280622154819465 1.5507542216549837 0 1 0 I I #
point $-1 58.106021301919611 -3.098471699735736 1.5507542216549837 #
point $-1 49.83248159305672 0.13565173419264198 2.4159943286521441 #
point $-1 49.83248159305672 4.9868368850852107 2.4159943286521441 #
straight-curve $-1 -58.106021301919611 -42.22520724809339 -7.0765749795301911 0 0 -1 I I #
straight-curve $-1 58.106021301919611 -42.22520724809339 -7.0765749795301911 0 0 -1 I I #
straight-curve $-1 0 42.225207248093398 -9.894649061189849 1 0 0 I I #
point $-1 58.106021301919611 42.225207248093398 -9.894649061189849 #
End-of-ACIS-data 