500 0 13 0           
7 Unknown 11 ACIS 5.0 NT 24 Fri Mar 26 20:09:13 1999 
-1 9.9999999999999995e-007 1e-010 
body $-1 $13 $-1 $14 #
body $-1 $15 $-1 $16 #
body $-1 $17 $-1 $18 #
body $-1 $19 $-1 $20 #
body $-1 $21 $-1 $22 #
body $-1 $23 $-1 $24 #
body $-1 $25 $-1 $26 #
body $-1 $27 $-1 $28 #
body $-1 $29 $-1 $30 #
body $-1 $31 $-1 $32 #
body $-1 $33 $-1 $34 #
body $-1 $35 $-1 $36 #
body $-1 $37 $-1 $38 #
lump $-1 $-1 $39 $0 #
transform $-1 1 0 0 0 1 0 0 0 1 57.847224341563155 37.866125375522742 14.322494725765365 1 rotate no_reflect no_shear #
lump $-1 $-1 $40 $1 #
transform $-1 1 0 0 0 1 0 0 0 1 57.847224341563155 37.866125375522742 14.322494725765365 1 rotate no_reflect no_shear #
lump $-1 $-1 $41 $2 #
transform $-1 1 0 0 0 1 0 0 0 1 57.847224341563155 37.866125375522742 14.322494725765365 1 rotate no_reflect no_shear #
lump $-1 $-1 $42 $3 #
transform $-1 1 0 0 0 1 0 0 0 1 57.847224341563155 37.866125375522742 14.322494725765365 1 rotate no_reflect no_shear #
lump $-1 $-1 $43 $4 #
transform $-1 1 0 0 0 1 0 0 0 1 57.847224341563155 37.866125375522742 14.322494725765365 1 rotate no_reflect no_shear #
lump $-1 $-1 $44 $5 #
transform $-1 1 0 0 0 1 0 0 0 1 57.847224341563155 37.866125375522742 14.322494725765365 1 rotate no_reflect no_shear #
lump $-1 $-1 $45 $6 #
transform $-1 1 0 0 0 1 0 0 0 1 57.847224341563155 37.866125375522742 14.322494725765365 1 rotate no_reflect no_shear #
lump $-1 $-1 $46 $7 #
transform $-1 1 0 0 0 1 0 0 0 1 57.847224341563155 37.866125375522742 14.322494725765365 1 rotate no_reflect no_shear #
lump $-1 $-1 $47 $8 #
transform $-1 1 0 0 0 1 0 0 0 1 57.847224341563155 37.866125375522742 14.322494725765365 1 rotate no_reflect no_shear #
lump $-1 $-1 $48 $9 #
transform $-1 1 0 0 0 1 0 0 0 1 57.847224341563155 37.866125375522742 14.322494725765365 1 rotate no_reflect no_shear #
lump $-1 $-1 $49 $10 #
transform $-1 1 0 0 0 1 0 0 0 1 57.847224341563155 37.866125375522742 14.322494725765365 1 rotate no_reflect no_shear #
lump $-1 $-1 $50 $11 #
transform $-1 1 0 0 0 1 0 0 0 1 57.847224341563155 37.866125375522742 14.322494725765365 1 rotate no_reflect no_shear #
lump $-1 $-1 $51 $12 #
transform $-1 1 0 0 0 1 0 0 0 1 57.847224341563155 37.866125375522742 14.322494725765365 1 rotate no_reflect no_shear #
shell $-1 $-1 $-1 $52 $-1 $13 #
shell $-1 $-1 $-1 $53 $-1 $15 #
shell $-1 $-1 $-1 $54 $-1 $17 #
shell $-1 $-1 $-1 $55 $-1 $19 #
shell $-1 $-1 $-1 $56 $-1 $21 #
shell $-1 $-1 $-1 $57 $-1 $23 #
shell $-1 $-1 $-1 $58 $-1 $25 #
shell $-1 $-1 $-1 $59 $-1 $27 #
shell $-1 $-1 $-1 $60 $-1 $29 #
shell $-1 $-1 $-1 $61 $-1 $31 #
shell $-1 $-1 $-1 $62 $-1 $33 #
shell $-1 $-1 $-1 $63 $-1 $35 #
shell $-1 $-1 $-1 $64 $-1 $37 #
face $-1 $65 $66 $39 $-1 $67 reversed single #
face $-1 $68 $69 $40 $-1 $70 forward single #
face $-1 $71 $72 $41 $-1 $73 forward single #
face $-1 $74 $75 $42 $-1 $76 reversed single #
face $-1 $77 $78 $43 $-1 $79 forward single #
face $-1 $80 $81 $44 $-1 $82 reversed single #
face $-1 $83 $84 $45 $-1 $85 forward single #
face $-1 $86 $87 $46 $-1 $88 reversed single #
face $-1 $89 $90 $47 $-1 $91 forward single #
face $-1 $92 $93 $48 $-1 $94 reversed single #
face $-1 $95 $96 $49 $-1 $97 forward single #
face $-1 $98 $99 $50 $-1 $100 reversed single #
face $-1 $101 $102 $51 $-1 $103 forward single #
face $-1 $104 $105 $39 $-1 $106 forward single #
loop $-1 $-1 $107 $52 #
plane-surface $-1 57.847224341563155 0 0 -1 0 0 0 0 1 forward_v I I I I #
face $-1 $108 $109 $40 $-1 $110 reversed single #
loop $-1 $-1 $111 $53 #
plane-surface $-1 -57.847224341563155 0 0 1 0 0 0 0 -1 forward_v I I I I #
face $-1 $112 $113 $41 $-1 $114 reversed single #
loop $-1 $-1 $115 $54 #
plane-surface $-1 57.847224341563155 0 0 -1 0 0 0 0 1 forward_v I I I I #
face $-1 $116 $117 $42 $-1 $118 reversed single #
loop $-1 $-1 $119 $55 #
plane-surface $-1 -24.830323026982516 -102.56164089091446 105.01015171198131 -1 0 0 0 -0.55919291073839883 0.82903756765294845 forward_v I I I I #
face $-1 $120 $121 $43 $-1 $122 forward single #
loop $-1 $123 $124 $56 #
cone-surface $-1 -34.12963314389139 -32.193972766431372 9.0443537073421449 0 0.55919291073839883 -0.82903756765294845 2 0 0 1 I I 0 1 2 forward I I I I #
face $-1 $125 $126 $44 $-1 $127 reversed single #
loop $-1 $-1 $128 $57 #
plane-surface $-1 -38.223593214790995 51.819989623216102 145.24831106004524 1 0 0 0 -0.62932039886446345 -0.77714595512881146 forward_v I I I I #
face $-1 $129 $130 $45 $-1 $131 forward single #
loop $-1 $132 $133 $58 #
cone-surface $-1 -33.458530116710286 33.091576634510687 10.170767091604056 0 -0.62932039886446345 -0.77714595512881146 1.5 0 0 1 I I 0 1 1.5 forward I I I I #
face $-1 $134 $135 $46 $-1 $136 reversed single #
loop $-1 $-1 $137 $59 #
plane-surface $-1 -16.509121584390869 51.819989623216102 145.24831106004524 1 0 0 0 -0.62932039886446345 -0.77714595512881146 forward_v I I I I #
face $-1 $138 $139 $47 $-1 $140 forward single #
loop $-1 $141 $142 $60 #
cone-surface $-1 -11.744058486310159 33.091576634510687 10.170767091604056 0 -0.62932039886446345 -0.77714595512881146 1.5 0 0 1 I I 0 1 1.5 forward I I I I #
face $-1 $143 $144 $48 $-1 $145 reversed single #
loop $-1 $-1 $146 $61 #
plane-surface $-1 5.2053500460092579 51.819989623216102 145.24831106004524 1 0 0 0 -0.62932039886446345 -0.77714595512881146 forward_v I I I I #
face $-1 $147 $148 $49 $-1 $149 forward single #
loop $-1 $150 $151 $62 #
cone-surface $-1 9.9704131440899673 33.091576634510687 10.170767091604056 0 -0.62932039886446345 -0.77714595512881146 1.5 0 0 1 I I 0 1 1.5 forward I I I I #
face $-1 $152 $153 $50 $-1 $154 reversed single #
loop $-1 $-1 $155 $63 #
plane-surface $-1 26.919821676409384 51.819989623216102 145.24831106004524 1 0 0 0 -0.62932039886446345 -0.77714595512881146 forward_v I I I I #
face $-1 $156 $157 $51 $-1 $158 forward single #
loop $-1 $159 $160 $64 #
cone-surface $-1 31.684884774490094 33.091576634510687 10.170767091604056 0 -0.62932039886446345 -0.77714595512881146 1.5 0 0 1 I I 0 1 1.5 forward I I I I #
face $-1 $161 $162 $39 $-1 $163 reversed single #
loop $-1 $-1 $164 $65 #
plane-surface $-1 0 0 14.322494725765365 0 0 1 1 0 0 forward_v I I I I #
coedge $-1 $165 $166 $167 $168 reversed $66 $-1 #
face $-1 $169 $170 $40 $-1 $171 forward single #
loop $-1 $-1 $172 $68 #
plane-surface $-1 0 37.866125375522742 0 0 -1 0 0 0 -1 forward_v I I I I #
coedge $-1 $173 $174 $175 $176 forward $69 $-1 #
face $-1 $177 $178 $41 $-1 $179 forward single #
loop $-1 $-1 $180 $71 #
plane-surface $-1 0 -37.866125375522742 0 0 1 0 0 0 1 forward_v I I I I #
coedge $-1 $181 $182 $183 $184 forward $72 $-1 #
face $-1 $185 $186 $42 $-1 $187 reversed single #
loop $-1 $-1 $188 $74 #
plane-surface $-1 -34.129633143891382 -37.866125375522742 9.0951073847734136 0 -0.55919291073839883 0.82903756765294845 1 0 0 forward_v I I I I #
coedge $-1 $189 $190 $191 $192 reversed $75 $-1 #
face $-1 $-1 $193 $43 $-1 $194 forward single #
loop $-1 $195 $196 $77 #
cone-surface $-1 -34.12963314389139 -29.837587392853507 5.5508687917619515 0 0.55919291073839883 -0.82903756765294845 1 0 0 1 I I -0.70710678118654724 0.70710678118654791 1 forward I I I I #
loop $-1 $-1 $197 $56 #
coedge $-1 $124 $124 $198 $199 reversed $78 $-1 #
face $-1 $200 $201 $44 $-1 $202 reversed single #
loop $-1 $-1 $203 $80 #
plane-surface $-1 -33.458530116710286 -20.988886968453144 55.336838235095783 0 0.62932039886446345 0.77714595512881146 1 0 0 forward_v I I I I #
coedge $-1 $204 $205 $206 $207 reversed $81 $-1 #
face $-1 $-1 $208 $45 $-1 $209 forward single #
loop $-1 $210 $211 $83 #
cone-surface $-1 -33.458530116710286 31.948296198602478 8.7589333612066955 0 -0.62932039886446345 -0.77714595512881146 0.75 0 0 1 I I -0.70710678118654757 0.70710678118654757 0.75 forward I I I I #
loop $-1 $-1 $212 $58 #
coedge $-1 $133 $133 $213 $214 reversed $84 $-1 #
face $-1 $215 $216 $46 $-1 $217 reversed single #
loop $-1 $-1 $218 $86 #
plane-surface $-1 -11.744058486310159 -20.988886968453144 55.336838235095783 0 0.62932039886446345 0.77714595512881146 1 0 0 forward_v I I I I #
coedge $-1 $219 $220 $221 $222 reversed $87 $-1 #
face $-1 $-1 $223 $47 $-1 $224 forward single #
loop $-1 $225 $226 $89 #
cone-surface $-1 -11.744058486310159 31.948296198602478 8.7589333612066955 0 -0.62932039886446345 -0.77714595512881146 0.75 0 0 1 I I -0.70710678118654757 0.70710678118654757 0.75 forward I I I I #
loop $-1 $-1 $227 $60 #
coedge $-1 $142 $142 $228 $229 reversed $90 $-1 #
face $-1 $230 $231 $48 $-1 $232 reversed single #
loop $-1 $-1 $233 $92 #
plane-surface $-1 9.9704131440899673 -20.988886968453144 55.336838235095783 0 0.62932039886446345 0.77714595512881146 1 0 0 forward_v I I I I #
coedge $-1 $234 $235 $236 $237 reversed $93 $-1 #
face $-1 $-1 $238 $49 $-1 $239 forward single #
loop $-1 $240 $241 $95 #
cone-surface $-1 9.9704131440899673 31.948296198602478 8.7589333612066955 0 -0.62932039886446345 -0.77714595512881146 0.75 0 0 1 I I -0.70710678118654757 0.70710678118654757 0.75 forward I I I I #
loop $-1 $-1 $242 $62 #
coedge $-1 $151 $151 $243 $244 reversed $96 $-1 #
face $-1 $245 $246 $50 $-1 $247 reversed single #
loop $-1 $-1 $248 $98 #
plane-surface $-1 31.684884774490094 -20.988886968453144 55.336838235095783 0 0.62932039886446345 0.77714595512881146 1 0 0 forward_v I I I I #
coedge $-1 $249 $250 $251 $252 reversed $99 $-1 #
face $-1 $-1 $253 $51 $-1 $254 forward single #
loop $-1 $255 $256 $101 #
cone-surface $-1 31.684884774490094 31.948296198602478 8.7589333612066955 0 -0.62932039886446345 -0.77714595512881146 0.75 0 0 1 I I -0.70710678118654757 0.70710678118654757 0.75 forward I I I I #
loop $-1 $-1 $257 $64 #
coedge $-1 $160 $160 $258 $259 reversed $102 $-1 #
face $-1 $260 $261 $39 $-1 $262 reversed single #
loop $-1 $-1 $263 $104 #
plane-surface $-1 0 0 -14.322494725765365 0 0 1 1 0 0 forward_v I I I I #
coedge $-1 $264 $265 $165 $266 forward $105 $-1 #
coedge $-1 $267 $107 $164 $266 reversed $66 $-1 #
coedge $-1 $107 $267 $263 $268 reversed $66 $-1 #
coedge $-1 $269 $270 $107 $168 forward $271 $-1 #
edge $-1 $272 -14.322494725765365 $273 14.322494725765365 $107 $274 forward 7 unknown #
face $-1 $275 $276 $40 $-1 $277 reversed single #
loop $-1 $-1 $175 $108 #
plane-surface $-1 -65.056364881944603 0 3.7223400454455682 0 0 1 1 0 0 forward_v I I I I #
coedge $-1 $278 $279 $174 $280 forward $109 $-1 #
coedge $-1 $281 $111 $282 $283 reversed $69 $-1 #
coedge $-1 $111 $281 $172 $280 reversed $69 $-1 #
coedge $-1 $284 $285 $111 $176 reversed $170 $-1 #
edge $-1 $286 -37.866125375522742 $287 37.866125375522742 $175 $288 forward 7 unknown #
face $-1 $289 $290 $41 $-1 $291 reversed single #
loop $-1 $-1 $292 $112 #
plane-surface $-1 65.056364881944603 0 3.7223400454455682 0 0 1 1 0 0 forward_v I I I I #
coedge $-1 $293 $294 $182 $295 forward $113 $-1 #
coedge $-1 $296 $115 $297 $298 reversed $72 $-1 #
coedge $-1 $115 $296 $180 $295 reversed $72 $-1 #
coedge $-1 $299 $300 $115 $184 reversed $178 $-1 #
edge $-1 $301 -37.866125375522742 $302 37.866125375522742 $183 $303 forward 7 unknown #
face $-1 $304 $305 $42 $-1 $306 forward single #
loop $-1 $-1 $307 $116 #
plane-surface $-1 -43.428943260800253 -102.56164089091446 105.01015171198131 1 0 0 0 0.55919291073839883 -0.82903756765294845 forward_v I I I I #
coedge $-1 $308 $309 $310 $311 reversed $117 $-1 #
coedge $-1 $190 $119 $312 $313 reversed $75 $-1 #
coedge $-1 $119 $189 $308 $314 reversed $75 $-1 #
coedge $-1 $310 $315 $119 $192 forward $305 $-1 #
edge $-1 $316 13.414695069934488 $317 21.164615362438283 $191 $318 forward 7 unknown #
loop $-1 $-1 $198 $120 #
plane-surface $-1 -34.129633143891382 -37.866125375522742 9.0951073847734136 0 -0.55919291073839883 0.82903756765294845 1 0 0 forward_v I I I I #
loop $-1 $-1 $319 $77 #
coedge $-1 $196 $196 $197 $320 reversed $121 $-1 #
coedge $-1 $197 $197 $196 $320 forward $123 $-1 #
coedge $-1 $198 $198 $124 $199 forward $193 $-1 #
edge $-1 $321 -1.4899892273014328e-015 $321 6.2831853071795987 $198 $322 forward 7 unknown #
face $-1 $323 $324 $44 $-1 $325 reversed single #
loop $-1 $-1 $326 $125 #
plane-surface $-1 -28.693467018629576 51.819989623216102 145.24831106004524 -1 0 0 0 0.62932039886446345 0.77714595512881146 forward_v I I I I #
coedge $-1 $327 $328 $329 $330 reversed $126 $-1 #
coedge $-1 $205 $128 $331 $332 reversed $81 $-1 #
coedge $-1 $128 $204 $327 $333 reversed $81 $-1 #
coedge $-1 $329 $334 $128 $207 forward $335 $-1 #
edge $-1 $336 -11.956130563914691 $337 -3.7496133554102968 $206 $338 forward 7 unknown #
loop $-1 $-1 $213 $129 #
plane-surface $-1 -33.458530116710286 -20.988886968453144 55.336838235095783 0 0.62932039886446345 0.77714595512881146 1 0 0 forward_v I I I I #
loop $-1 $-1 $339 $83 #
coedge $-1 $211 $211 $212 $340 reversed $130 $-1 #
coedge $-1 $212 $212 $211 $340 forward $132 $-1 #
coedge $-1 $213 $213 $133 $214 forward $208 $-1 #
edge $-1 $341 2.2357951893939669e-015 $341 6.2831853071796031 $213 $342 forward 7 unknown #
face $-1 $343 $344 $46 $-1 $345 forward single #
loop $-1 $-1 $346 $134 #
plane-surface $-1 -6.9789953882294498 51.819989623216102 145.24831106004524 -1 0 0 0 0.62932039886446345 0.77714595512881146 forward_v I I I I #
coedge $-1 $347 $348 $349 $350 reversed $135 $-1 #
coedge $-1 $220 $137 $351 $352 reversed $87 $-1 #
coedge $-1 $137 $219 $347 $353 reversed $87 $-1 #
coedge $-1 $349 $354 $137 $222 forward $344 $-1 #
edge $-1 $355 -11.956130563914691 $356 -3.7496133554102968 $221 $357 forward 7 unknown #
loop $-1 $-1 $228 $138 #
plane-surface $-1 -11.744058486310159 -20.988886968453144 55.336838235095783 0 0.62932039886446345 0.77714595512881146 1 0 0 forward_v I I I I #
loop $-1 $-1 $358 $89 #
coedge $-1 $226 $226 $227 $359 reversed $139 $-1 #
coedge $-1 $227 $227 $226 $359 forward $141 $-1 #
coedge $-1 $228 $228 $142 $229 forward $223 $-1 #
edge $-1 $360 2.2357951893939669e-015 $360 6.2831853071796031 $228 $361 forward 7 unknown #
face $-1 $362 $363 $48 $-1 $364 forward single #
loop $-1 $-1 $365 $143 #
plane-surface $-1 14.735476242170677 51.819989623216102 145.24831106004524 -1 0 0 0 0.62932039886446345 0.77714595512881146 forward_v I I I I #
coedge $-1 $366 $367 $368 $369 reversed $144 $-1 #
coedge $-1 $235 $146 $370 $371 reversed $93 $-1 #
coedge $-1 $146 $234 $366 $372 reversed $93 $-1 #
coedge $-1 $368 $373 $146 $237 forward $363 $-1 #
edge $-1 $374 -11.956130563914691 $375 -3.7496133554102968 $236 $376 forward 7 unknown #
loop $-1 $-1 $243 $147 #
plane-surface $-1 9.9704131440899673 -20.988886968453144 55.336838235095783 0 0.62932039886446345 0.77714595512881146 1 0 0 forward_v I I I I #
loop $-1 $-1 $377 $95 #
coedge $-1 $241 $241 $242 $378 reversed $148 $-1 #
coedge $-1 $242 $242 $241 $378 forward $150 $-1 #
coedge $-1 $243 $243 $151 $244 forward $238 $-1 #
edge $-1 $379 2.2357951893939669e-015 $379 6.2831853071796031 $243 $380 forward 7 unknown #
face $-1 $381 $382 $50 $-1 $383 forward single #
loop $-1 $-1 $384 $152 #
plane-surface $-1 36.449947872570803 51.819989623216102 145.24831106004524 -1 0 0 0 0.62932039886446345 0.77714595512881146 forward_v I I I I #
coedge $-1 $385 $386 $387 $388 reversed $153 $-1 #
coedge $-1 $250 $155 $389 $390 reversed $99 $-1 #
coedge $-1 $155 $249 $385 $391 reversed $99 $-1 #
coedge $-1 $387 $392 $155 $252 forward $382 $-1 #
edge $-1 $393 -11.956130563914691 $394 -3.7496133554102968 $251 $395 forward 7 unknown #
loop $-1 $-1 $258 $156 #
plane-surface $-1 31.684884774490094 -20.988886968453144 55.336838235095783 0 0.62932039886446345 0.77714595512881146 1 0 0 forward_v I I I I #
loop $-1 $-1 $396 $101 #
coedge $-1 $256 $256 $257 $397 reversed $157 $-1 #
coedge $-1 $257 $257 $256 $397 forward $159 $-1 #
coedge $-1 $258 $258 $160 $259 forward $253 $-1 #
edge $-1 $398 2.2357951893939669e-015 $398 6.2831853071796031 $258 $399 forward 7 unknown #
face $-1 $400 $401 $39 $-1 $402 reversed single #
loop $-1 $-1 $403 $161 #
plane-surface $-1 0 -37.866125375522742 0 0 1 0 0 0 1 forward_v I I I I #
coedge $-1 $404 $405 $166 $268 forward $162 $-1 #
coedge $-1 $406 $164 $270 $407 forward $105 $-1 #
coedge $-1 $164 $406 $408 $409 forward $105 $-1 #
edge $-1 $410 -37.866125375522742 $272 37.866125375522742 $165 $411 forward 7 unknown #
coedge $-1 $166 $165 $412 $413 forward $66 $-1 #
edge $-1 $273 -37.866125375522742 $414 37.866125375522742 $166 $415 forward 7 unknown #
coedge $-1 $416 $167 $405 $417 reversed $271 $-1 #
coedge $-1 $167 $416 $264 $407 reversed $271 $-1 #
loop $-1 $-1 $167 $400 #
vertex $-1 $266 $418 #
vertex $-1 $268 $419 #
straight-curve $-1 57.847224341563155 37.866125375522742 0 0 0 -1 I I #
face $-1 $420 $421 $40 $-1 $422 reversed single #
loop $-1 $-1 $423 $169 #
plane-surface $-1 -65.056364881944603 0 -2.2046646843872875 0 0 1 1 0 0 forward_v I I I I #
coedge $-1 $424 $172 $425 $426 reversed $109 $-1 #
coedge $-1 $172 $424 $284 $427 reversed $109 $-1 #
edge $-1 $286 -3.7223400454455682 $428 2.2046646843872875 $172 $429 forward 7 unknown #
coedge $-1 $174 $173 $423 $430 forward $69 $-1 #
coedge $-1 $431 $432 $173 $283 forward $433 $-1 #
edge $-1 $434 -2.2046646843872875 $287 3.7223400454455682 $282 $435 forward 7 unknown #
coedge $-1 $436 $175 $279 $427 forward $170 $-1 #
coedge $-1 $175 $436 $431 $437 forward $170 $-1 #
vertex $-1 $280 $438 #
vertex $-1 $437 $439 #
straight-curve $-1 -57.847224341563155 0 3.7223400454455682 0 -1 0 I I #
face $-1 $440 $441 $41 $-1 $442 reversed single #
loop $-1 $-1 $443 $177 #
plane-surface $-1 65.056364881944603 0 -2.2046646843872875 0 0 1 1 0 0 forward_v I I I I #
coedge $-1 $300 $299 $444 $445 forward $178 $-1 #
coedge $-1 $446 $180 $447 $448 reversed $113 $-1 #
coedge $-1 $180 $446 $299 $449 reversed $113 $-1 #
edge $-1 $301 -3.7223400454455682 $450 2.2046646843872875 $180 $451 forward 7 unknown #
coedge $-1 $182 $181 $452 $453 forward $72 $-1 #
coedge $-1 $454 $455 $181 $298 forward $456 $-1 #
edge $-1 $457 -2.2046646843872875 $302 3.7223400454455682 $297 $458 forward 7 unknown #
coedge $-1 $292 $183 $294 $449 forward $178 $-1 #
coedge $-1 $183 $292 $454 $459 forward $178 $-1 #
vertex $-1 $295 $460 #
vertex $-1 $459 $461 #
straight-curve $-1 57.847224341563155 0 3.7223400454455682 0 1 0 I I #
face $-1 $-1 $462 $42 $-1 $463 reversed single #
loop $-1 $-1 $191 $185 #
plane-surface $-1 0 0 14.322494725765365 0 0 1 1 0 0 forward_v I I I I #
coedge $-1 $464 $465 $466 $467 reversed $186 $-1 #
coedge $-1 $468 $188 $190 $314 forward $117 $-1 #
coedge $-1 $188 $468 $464 $469 forward $117 $-1 #
coedge $-1 $466 $191 $188 $311 forward $305 $-1 #
edge $-1 $317 7.7655064550368245 $470 26.364126688854562 $310 $471 forward 7 unknown #
coedge $-1 $472 $473 $189 $313 forward $462 $-1 #
edge $-1 $474 -43.40996847121724 $316 -38.182581130225287 $312 $475 forward 7 unknown #
edge $-1 $317 -9.3480930115679222 $474 0 $190 $476 forward 7 unknown #
coedge $-1 $191 $466 $472 $477 forward $305 $-1 #
vertex $-1 $313 $478 #
vertex $-1 $192 $479 #
straight-curve $-1 -24.830323026982516 -51.280820445457231 14.322494725765367 0 1 0 I I #
coedge $-1 $319 $319 $-1 $480 reversed $195 $-1 #
edge $-1 $481 0 $481 6.2831853071796004 $196 $482 forward 7 unknown #
vertex $-1 $199 $483 #
ellipse-curve $-1 -34.12963314389139 -33.991165229270841 11.708801055269392 0 -0.55919291073839883 0.82903756765294845 2 0 0 1 I I #
face $-1 $-1 $335 $44 $-1 $484 forward single #
loop $-1 $-1 $485 $200 #
plane-surface $-1 0 37.866125375522742 0 0 -1 0 0 0 -1 forward_v I I I I #
coedge $-1 $486 $487 $488 $489 reversed $201 $-1 #
coedge $-1 $490 $203 $205 $333 forward $126 $-1 #
coedge $-1 $203 $490 $486 $491 forward $126 $-1 #
coedge $-1 $488 $206 $203 $330 forward $335 $-1 #
edge $-1 $337 -21.494328156435852 $492 -11.964201960274433 $329 $493 forward 7 unknown #
coedge $-1 $494 $495 $204 $332 forward $324 $-1 #
edge $-1 $496 -64.947167544478333 $336 -58.301660804257253 $331 $497 forward 7 unknown #
edge $-1 $337 65.172436144348893 $496 75.732250751045484 $205 $498 forward 7 unknown #
coedge $-1 $206 $488 $494 $499 forward $335 $-1 #
loop $-1 $-1 $488 $323 #
vertex $-1 $332 $500 #
vertex $-1 $207 $501 #
straight-curve $-1 -38.223593214790995 25.909994811608051 14.322494725765367 0 -1 0 I I #
coedge $-1 $339 $339 $-1 $502 reversed $210 $-1 #
edge $-1 $503 0 $503 6.2831853071796004 $211 $504 forward 7 unknown #
vertex $-1 $214 $505 #
ellipse-curve $-1 -33.458530116710286 33.762866771270552 10.999741355654812 0 0.62932039886446345 0.77714595512881146 1.5 0 0 1 I I #
face $-1 $-1 $506 $46 $-1 $507 reversed single #
loop $-1 $-1 $221 $215 #
plane-surface $-1 0 0 14.322494725765365 0 0 1 1 0 0 forward_v I I I I #
coedge $-1 $508 $509 $510 $511 reversed $216 $-1 #
coedge $-1 $512 $218 $220 $353 forward $135 $-1 #
coedge $-1 $218 $512 $508 $513 forward $135 $-1 #
coedge $-1 $510 $221 $218 $350 forward $344 $-1 #
edge $-1 $356 -10.637092341235789 $514 -1.1069661450743702 $349 $515 forward 7 unknown #
coedge $-1 $516 $517 $219 $352 forward $506 $-1 #
edge $-1 $518 -64.947167544478333 $355 -58.301660804257253 $351 $519 forward 7 unknown #
edge $-1 $356 65.172436144348893 $518 75.732250751045484 $220 $520 forward 7 unknown #
coedge $-1 $221 $510 $516 $521 forward $344 $-1 #
vertex $-1 $222 $522 #
vertex $-1 $222 $523 #
straight-curve $-1 -16.509121584390869 25.909994811608051 14.322494725765367 0 -1 0 I I #
coedge $-1 $358 $358 $-1 $524 reversed $225 $-1 #
edge $-1 $525 0 $525 6.2831853071796004 $226 $526 forward 7 unknown #
vertex $-1 $229 $527 #
ellipse-curve $-1 -11.744058486310159 33.762866771270552 10.999741355654812 0 0.62932039886446345 0.77714595512881146 1.5 0 0 1 I I #
face $-1 $-1 $528 $48 $-1 $529 reversed single #
loop $-1 $-1 $236 $230 #
plane-surface $-1 0 0 14.322494725765365 0 0 1 1 0 0 forward_v I I I I #
coedge $-1 $530 $531 $532 $533 reversed $231 $-1 #
coedge $-1 $534 $233 $235 $372 forward $144 $-1 #
coedge $-1 $233 $534 $530 $535 forward $144 $-1 #
coedge $-1 $532 $236 $233 $369 forward $363 $-1 #
edge $-1 $375 0.22014347396427425 $536 9.750269670125693 $368 $537 forward 7 unknown #
coedge $-1 $538 $539 $234 $371 forward $528 $-1 #
edge $-1 $540 -64.947167544478333 $374 -58.301660804257253 $370 $541 forward 7 unknown #
edge $-1 $375 65.172436144348893 $540 75.732250751045484 $235 $542 forward 7 unknown #
coedge $-1 $236 $532 $538 $543 forward $363 $-1 #
vertex $-1 $237 $544 #
vertex $-1 $237 $545 #
straight-curve $-1 5.2053500460092579 25.909994811608051 14.322494725765367 0 -1 0 I I #
coedge $-1 $377 $377 $-1 $546 reversed $240 $-1 #
edge $-1 $547 0 $547 6.2831853071796004 $241 $548 forward 7 unknown #
vertex $-1 $244 $549 #
ellipse-curve $-1 9.9704131440899673 33.762866771270552 10.999741355654812 0 0.62932039886446345 0.77714595512881146 1.5 0 0 1 I I #
face $-1 $-1 $550 $50 $-1 $551 reversed single #
loop $-1 $-1 $251 $245 #
plane-surface $-1 0 0 14.322494725765365 0 0 1 1 0 0 forward_v I I I I #
coedge $-1 $552 $553 $554 $555 reversed $246 $-1 #
coedge $-1 $556 $248 $250 $391 forward $153 $-1 #
coedge $-1 $248 $556 $552 $557 forward $153 $-1 #
coedge $-1 $554 $251 $248 $388 forward $382 $-1 #
edge $-1 $394 11.077379289164337 $558 20.607505485325756 $387 $559 forward 7 unknown #
coedge $-1 $560 $561 $249 $390 forward $550 $-1 #
edge $-1 $562 -64.947167544478333 $393 -58.301660804257253 $389 $563 forward 7 unknown #
edge $-1 $394 65.172436144348893 $562 75.732250751045484 $250 $564 forward 7 unknown #
coedge $-1 $251 $554 $560 $565 forward $382 $-1 #
vertex $-1 $252 $566 #
vertex $-1 $252 $567 #
straight-curve $-1 26.919821676409384 25.909994811608051 14.322494725765367 0 -1 0 I I #
coedge $-1 $396 $396 $-1 $568 reversed $255 $-1 #
edge $-1 $569 0 $569 6.2831853071796004 $256 $570 forward 7 unknown #
vertex $-1 $259 $571 #
ellipse-curve $-1 31.684884774490094 33.762866771270552 10.999741355654812 0 0.62932039886446345 0.77714595512881146 1.5 0 0 1 I I #
face $-1 $-1 $271 $39 $-1 $572 reversed single #
loop $-1 $-1 $573 $260 #
plane-surface $-1 -57.847224341563155 0 0 1 0 0 0 0 -1 forward_v I I I I #
coedge $-1 $574 $408 $573 $575 forward $261 $-1 #
coedge $-1 $576 $263 $574 $577 forward $162 $-1 #
coedge $-1 $263 $576 $269 $417 forward $162 $-1 #
coedge $-1 $265 $264 $578 $579 forward $105 $-1 #
edge $-1 $272 -57.847224341563155 $580 57.847224341563155 $270 $581 forward 7 unknown #
coedge $-1 $403 $412 $265 $409 reversed $261 $-1 #
edge $-1 $582 -57.847224341563155 $410 57.847224341563155 $408 $583 forward 7 unknown #
vertex $-1 $266 $584 #
straight-curve $-1 57.847224341563155 0 14.322494725765365 0 1 0 I I #
coedge $-1 $408 $574 $267 $413 reversed $261 $-1 #
edge $-1 $410 -14.322494725765365 $414 14.322494725765365 $267 $585 forward 7 unknown #
vertex $-1 $413 $586 #
straight-curve $-1 57.847224341563155 0 -14.322494725765365 0 -1 0 I I #
coedge $-1 $270 $269 $587 $588 reversed $271 $-1 #
edge $-1 $589 -57.847224341563155 $273 57.847224341563155 $269 $590 forward 7 unknown #
point $-1 57.847224341563155 37.866125375522742 14.322494725765365 #
point $-1 57.847224341563155 37.866125375522742 -14.322494725765365 #
face $-1 $-1 $433 $40 $-1 $591 reversed single #
loop $-1 $-1 $592 $275 #
plane-surface $-1 -72.265505422326058 0 0.75883768052914036 1 0 0 0 0 -1 forward_v I I I I #
coedge $-1 $593 $425 $281 $430 reversed $276 $-1 #
coedge $-1 $279 $278 $592 $594 reversed $109 $-1 #
coedge $-1 $423 $595 $278 $426 forward $276 $-1 #
edge $-1 $596 -7.2091405403814548 $428 7.2091405403814548 $278 $597 forward 7 unknown #
edge $-1 $286 -7.2091405403814548 $598 7.2091405403814548 $279 $599 forward 7 unknown #
vertex $-1 $280 $600 #
straight-curve $-1 -57.847224341563155 37.866125375522742 0 0 0 -1 I I #
edge $-1 $434 -37.866125375522742 $428 37.866125375522742 $423 $601 forward 7 unknown #
coedge $-1 $602 $282 $285 $437 reversed $433 $-1 #
coedge $-1 $282 $602 $593 $603 reversed $433 $-1 #
loop $-1 $-1 $282 $420 #
vertex $-1 $283 $604 #
straight-curve $-1 -57.847224341563155 -37.866125375522742 0 0 0 1 I I #
coedge $-1 $285 $284 $605 $606 forward $170 $-1 #
edge $-1 $607 -7.2091405403814548 $287 7.2091405403814548 $431 $608 forward 7 unknown #
point $-1 -57.847224341563148 37.866125375522742 3.7223400454455682 #
point $-1 -57.847224341563148 -37.866125375522742 3.7223400454455682 #
face $-1 $-1 $456 $41 $-1 $609 reversed single #
loop $-1 $-1 $610 $289 #
plane-surface $-1 72.265505422326044 0 0.75883768052914036 -1 0 0 0 0 1 forward_v I I I I #
coedge $-1 $447 $611 $612 $613 forward $290 $-1 #
coedge $-1 $610 $614 $292 $445 reversed $441 $-1 #
edge $-1 $615 -37.866125375522742 $616 37.866125375522742 $444 $617 forward 7 unknown #
coedge $-1 $294 $293 $610 $618 reversed $113 $-1 #
coedge $-1 $452 $443 $293 $448 forward $290 $-1 #
edge $-1 $619 -7.2091405403814406 $450 7.2091405403814477 $293 $620 forward 7 unknown #
edge $-1 $301 -7.2091405403814477 $615 7.2091405403814406 $294 $621 forward 7 unknown #
vertex $-1 $295 $622 #
straight-curve $-1 57.847224341563155 -37.866125375522742 0 0 0 -1 I I #
coedge $-1 $611 $447 $296 $453 reversed $290 $-1 #
edge $-1 $457 -37.866125375522742 $450 37.866125375522742 $452 $623 forward 7 unknown #
coedge $-1 $624 $297 $300 $459 reversed $456 $-1 #
coedge $-1 $297 $624 $611 $625 reversed $456 $-1 #
loop $-1 $-1 $297 $440 #
vertex $-1 $298 $626 #
straight-curve $-1 57.847224341563155 37.866125375522742 0 0 0 1 I I #
edge $-1 $616 -7.2091405403814406 $302 7.2091405403814477 $454 $627 forward 7 unknown #
point $-1 57.847224341563155 -37.866125375522742 3.7223400454455682 #
point $-1 57.847224341563155 37.866125375522742 3.7223400454455682 #
loop $-1 $-1 $312 $304 #
plane-surface $-1 0 -37.866125375522742 0 0 1 0 0 0 1 forward_v I I I I #
coedge $-1 $465 $307 $309 $469 reversed $186 $-1 #
coedge $-1 $307 $464 $628 $629 reversed $186 $-1 #
coedge $-1 $315 $310 $307 $467 forward $305 $-1 #
edge $-1 $470 -21.164615362438283 $630 -13.414695069934488 $466 $631 forward 7 unknown #
coedge $-1 $309 $308 $473 $632 reversed $117 $-1 #
edge $-1 $633 0 $470 9.3480930115679222 $464 $634 forward 7 unknown #
vertex $-1 $311 $635 #
straight-curve $-1 -17.064816571945691 -30.116205083018947 14.322494725765365 -1 0 0 I I #
coedge $-1 $628 $312 $315 $477 reversed $462 $-1 #
coedge $-1 $312 $628 $468 $632 forward $462 $-1 #
vertex $-1 $313 $636 #
straight-curve $-1 -24.830323026982516 -37.866125375522742 52.505075855990654 0 0 1 I I #
straight-curve $-1 -24.830323026982516 -37.866125375522742 9.0951073847734136 0 -0.82903756765294845 -0.55919291073839883 I I #
edge $-1 $630 -43.428943260800253 $316 -24.830323026982516 $472 $637 forward 7 unknown #
point $-1 -24.830323026982516 -37.866125375522742 14.322494725765365 #
point $-1 -24.830323026982516 -30.116205083018947 14.322494725765365 #
edge $-1 $638 1 $638 0 $319 $-1 forward 7 unknown #
vertex $-1 $320 $639 #
ellipse-curve $-1 -34.12963314389139 -30.396780303591907 6.3799063594149006 0 -0.55919291073839883 0.82903756765294845 2 0 0 1 I I #
point $-1 -32.12963314389139 -33.991165229270841 11.708801055269387 #
plane-surface $-1 0 0 14.322494725765365 0 0 1 1 0 0 forward_v I I I I #
coedge $-1 $495 $494 $487 $640 forward $324 $-1 #
coedge $-1 $487 $326 $328 $491 reversed $201 $-1 #
coedge $-1 $326 $486 $485 $640 reversed $201 $-1 #
coedge $-1 $334 $329 $326 $489 forward $335 $-1 #
edge $-1 $492 3.7496133554102968 $641 11.956130563914691 $488 $642 forward 7 unknown #
coedge $-1 $328 $327 $495 $643 reversed $126 $-1 #
edge $-1 $644 -75.732250751045484 $492 -65.172436144348893 $486 $645 forward 7 unknown #
vertex $-1 $330 $646 #
straight-curve $-1 -16.729265058355143 29.659608167018352 14.322494725765367 1 0 0 I I #
coedge $-1 $485 $331 $334 $499 reversed $324 $-1 #
coedge $-1 $331 $485 $490 $643 forward $324 $-1 #
vertex $-1 $332 $647 #
straight-curve $-1 -38.223593214790995 37.866125375522742 72.62415553002262 0 0 1 I I #
straight-curve $-1 -38.223593214790995 -20.988886968453144 55.336838235095783 0 0.77714595512881146 -0.62932039886446345 I I #
edge $-1 $641 28.693467018629576 $336 38.223593214790995 $494 $648 forward 7 unknown #
point $-1 -38.223593214790995 37.866125375522742 14.322494725765365 #
point $-1 -38.223593214790995 29.659608167018348 14.322494725765367 #
edge $-1 $649 1 $649 0 $339 $-1 forward 7 unknown #
vertex $-1 $340 $650 #
ellipse-curve $-1 -33.458530116710286 32.420286497750823 9.341792827553304 0 0.62932039886446345 0.77714595512881146 1.5 0 0 1 I I #
point $-1 -31.958530116710286 33.762866771270552 10.999741355654807 #
loop $-1 $-1 $351 $343 #
plane-surface $-1 0 37.866125375522742 0 0 -1 0 0 0 -1 forward_v I I I I #
coedge $-1 $509 $346 $348 $513 reversed $216 $-1 #
coedge $-1 $346 $508 $651 $652 reversed $216 $-1 #
coedge $-1 $354 $349 $346 $511 forward $344 $-1 #
edge $-1 $514 3.7496133554102968 $653 11.956130563914691 $510 $654 forward 7 unknown #
coedge $-1 $348 $347 $517 $655 reversed $135 $-1 #
edge $-1 $656 -75.732250751045484 $514 -65.172436144348893 $508 $657 forward 7 unknown #
vertex $-1 $350 $658 #
straight-curve $-1 -5.8720292431550796 29.659608167018352 14.322494725765367 1 0 0 I I #
coedge $-1 $651 $351 $354 $521 reversed $506 $-1 #
coedge $-1 $351 $651 $512 $655 forward $506 $-1 #
vertex $-1 $352 $659 #
straight-curve $-1 -16.509121584390869 37.866125375522742 72.62415553002262 0 0 1 I I #
straight-curve $-1 -16.509121584390869 -20.988886968453144 55.336838235095783 0 0.77714595512881146 -0.62932039886446345 I I #
edge $-1 $653 6.9789953882294498 $355 16.509121584390869 $516 $660 forward 7 unknown #
point $-1 -16.509121584390869 37.866125375522742 14.322494725765365 #
point $-1 -16.509121584390869 29.659608167018348 14.322494725765367 #
edge $-1 $661 1 $661 0 $358 $-1 forward 7 unknown #
vertex $-1 $359 $662 #
ellipse-curve $-1 -11.744058486310159 32.420286497750823 9.341792827553304 0 0.62932039886446345 0.77714595512881146 1.5 0 0 1 I I #
point $-1 -10.244058486310159 33.762866771270552 10.999741355654807 #
loop $-1 $-1 $370 $362 #
plane-surface $-1 0 37.866125375522742 0 0 -1 0 0 0 -1 forward_v I I I I #
coedge $-1 $531 $365 $367 $535 reversed $231 $-1 #
coedge $-1 $365 $530 $663 $664 reversed $231 $-1 #
coedge $-1 $373 $368 $365 $533 forward $363 $-1 #
edge $-1 $536 3.7496133554102968 $665 11.956130563914691 $532 $666 forward 7 unknown #
coedge $-1 $367 $366 $539 $667 reversed $144 $-1 #
edge $-1 $668 -75.732250751045484 $536 -65.172436144348893 $530 $669 forward 7 unknown #
vertex $-1 $369 $670 #
straight-curve $-1 4.9852065720449836 29.659608167018352 14.322494725765367 1 0 0 I I #
coedge $-1 $663 $370 $373 $543 reversed $528 $-1 #
coedge $-1 $370 $663 $534 $667 forward $528 $-1 #
vertex $-1 $371 $671 #
straight-curve $-1 5.2053500460092579 37.866125375522742 72.62415553002262 0 0 1 I I #
straight-curve $-1 5.2053500460092579 -20.988886968453144 55.336838235095783 0 0.77714595512881146 -0.62932039886446345 I I #
edge $-1 $665 -14.735476242170677 $374 -5.2053500460092579 $538 $672 forward 7 unknown #
point $-1 5.2053500460092579 37.866125375522742 14.322494725765365 #
point $-1 5.2053500460092579 29.659608167018348 14.322494725765367 #
edge $-1 $673 1 $673 0 $377 $-1 forward 7 unknown #
vertex $-1 $378 $674 #
ellipse-curve $-1 9.9704131440899673 32.420286497750823 9.341792827553304 0 0.62932039886446345 0.77714595512881146 1.5 0 0 1 I I #
point $-1 11.470413144089967 33.762866771270552 10.999741355654807 #
loop $-1 $-1 $389 $381 #
plane-surface $-1 0 37.866125375522742 0 0 -1 0 0 0 -1 forward_v I I I I #
coedge $-1 $553 $384 $386 $557 reversed $246 $-1 #
coedge $-1 $384 $552 $675 $676 reversed $246 $-1 #
coedge $-1 $392 $387 $384 $555 forward $382 $-1 #
edge $-1 $558 3.7496133554102968 $677 11.956130563914691 $554 $678 forward 7 unknown #
coedge $-1 $386 $385 $561 $679 reversed $153 $-1 #
edge $-1 $680 -75.732250751045484 $558 -65.172436144348893 $552 $681 forward 7 unknown #
vertex $-1 $388 $682 #
straight-curve $-1 15.842442387245047 29.659608167018352 14.322494725765367 1 0 0 I I #
coedge $-1 $675 $389 $392 $565 reversed $550 $-1 #
coedge $-1 $389 $675 $556 $679 forward $550 $-1 #
vertex $-1 $390 $683 #
straight-curve $-1 26.919821676409384 37.866125375522742 72.62415553002262 0 0 1 I I #
straight-curve $-1 26.919821676409384 -20.988886968453144 55.336838235095783 0 0.77714595512881146 -0.62932039886446345 I I #
edge $-1 $677 -36.449947872570803 $393 -26.919821676409384 $560 $684 forward 7 unknown #
point $-1 26.919821676409384 37.866125375522742 14.322494725765365 #
point $-1 26.919821676409384 29.659608167018348 14.322494725765367 #
edge $-1 $685 1 $685 0 $396 $-1 forward 7 unknown #
vertex $-1 $397 $686 #
ellipse-curve $-1 31.684884774490094 32.420286497750823 9.341792827553304 0 0.62932039886446345 0.77714595512881146 1.5 0 0 1 I I #
point $-1 33.184884774490094 33.762866771270552 10.999741355654807 #
plane-surface $-1 0 37.866125375522742 0 0 -1 0 0 0 -1 forward_v I I I I #
coedge $-1 $578 $687 $403 $575 reversed $401 $-1 #
coedge $-1 $412 $403 $404 $577 reversed $261 $-1 #
edge $-1 $582 -14.322494725765365 $688 14.322494725765365 $573 $689 forward 7 unknown #
coedge $-1 $405 $404 $687 $690 forward $162 $-1 #
edge $-1 $414 -57.847224341563155 $688 57.847224341563155 $574 $691 forward 7 unknown #
coedge $-1 $587 $573 $406 $579 reversed $401 $-1 #
edge $-1 $580 -37.866125375522742 $582 37.866125375522742 $578 $692 forward 7 unknown #
vertex $-1 $407 $693 #
straight-curve $-1 0 37.866125375522742 14.322494725765365 -1 0 0 I I #
vertex $-1 $579 $694 #
straight-curve $-1 0 -37.866125375522742 14.322494725765365 1 0 0 I I #
point $-1 57.847224341563155 -37.866125375522742 14.322494725765365 #
straight-curve $-1 57.847224341563155 -37.866125375522742 0 0 0 -1 I I #
point $-1 57.847224341563155 -37.866125375522742 -14.322494725765365 #
coedge $-1 $687 $578 $416 $588 forward $401 $-1 #
edge $-1 $580 -14.322494725765365 $589 14.322494725765365 $416 $695 forward 7 unknown #
vertex $-1 $417 $696 #
straight-curve $-1 0 37.866125375522742 -14.322494725765365 1 0 0 I I #
plane-surface $-1 0 -37.866125375522742 0 0 1 0 0 0 1 forward_v I I I I #
coedge $-1 $697 $605 $424 $594 forward $421 $-1 #
coedge $-1 $595 $423 $432 $603 forward $276 $-1 #
edge $-1 $598 -2.9635023649164278 $596 2.9635023649164278 $424 $698 forward 7 unknown #
coedge $-1 $425 $593 $697 $699 forward $276 $-1 #
vertex $-1 $426 $700 #
straight-curve $-1 -65.056364881944603 37.866125375522742 -2.2046646843872875 1 0 0 I I #
vertex $-1 $427 $701 #
straight-curve $-1 -65.056364881944603 37.866125375522742 3.7223400454455682 -1 0 0 I I #
point $-1 -57.847224341563148 37.866125375522742 -2.2046646843872875 #
straight-curve $-1 -57.847224341563155 0 -2.2046646843872875 0 1 0 I I #
coedge $-1 $432 $431 $702 $703 forward $433 $-1 #
edge $-1 $434 -7.2091405403814548 $704 7.2091405403814548 $432 $705 forward 7 unknown #
point $-1 -57.847224341563148 -37.866125375522742 -2.2046646843872875 #
coedge $-1 $592 $702 $436 $606 reversed $421 $-1 #
edge $-1 $598 -37.866125375522742 $607 37.866125375522742 $605 $706 forward 7 unknown #
vertex $-1 $606 $707 #
straight-curve $-1 -65.056364881944603 -37.866125375522742 3.7223400454455682 1 0 0 I I #
plane-surface $-1 0 37.866125375522742 0 0 -1 0 0 0 -1 forward_v I I I I #
coedge $-1 $612 $444 $446 $618 forward $441 $-1 #
coedge $-1 $443 $452 $455 $625 forward $290 $-1 #
coedge $-1 $614 $610 $443 $613 reversed $441 $-1 #
edge $-1 $708 -37.866125375522742 $619 37.866125375522742 $612 $709 forward 7 unknown #
coedge $-1 $444 $612 $624 $710 reversed $441 $-1 #
vertex $-1 $445 $711 #
vertex $-1 $445 $712 #
straight-curve $-1 72.265505422326044 0 3.7223400454455682 0 1 0 I I #
edge $-1 $615 -2.9635023649164278 $619 2.9635023649164278 $610 $713 forward 7 unknown #
vertex $-1 $618 $714 #
straight-curve $-1 65.056364881944603 -37.866125375522742 -2.2046646843872875 -1 0 0 I I #
straight-curve $-1 65.056364881944603 -37.866125375522742 3.7223400454455682 1 0 0 I I #
point $-1 57.847224341563155 -37.866125375522742 -2.2046646843872875 #
straight-curve $-1 57.847224341563155 0 -2.2046646843872875 0 -1 0 I I #
coedge $-1 $455 $454 $614 $710 forward $456 $-1 #
edge $-1 $457 -7.2091405403814477 $708 7.2091405403814406 $455 $715 forward 7 unknown #
point $-1 57.847224341563155 37.866125375522742 -2.2046646843872875 #
straight-curve $-1 65.056364881944603 37.866125375522742 3.7223400454455682 -1 0 0 I I #
coedge $-1 $473 $472 $465 $629 forward $462 $-1 #
edge $-1 $630 38.182581130225287 $633 43.40996847121724 $628 $716 forward 7 unknown #
vertex $-1 $477 $717 #
straight-curve $-1 -43.428943260800253 -51.280820445457231 14.322494725765367 0 -1 0 I I #
edge $-1 $633 -26.364126688854562 $474 -7.7655064550368245 $473 $718 forward 7 unknown #
vertex $-1 $632 $719 #
straight-curve $-1 -43.428943260800253 -37.866125375522742 9.0951073847734136 0 0.82903756765294845 0.55919291073839883 I I #
point $-1 -43.428943260800253 -30.116205083018947 14.322494725765365 #
point $-1 -24.830323026982516 -37.866125375522742 9.0951073847734136 #
straight-curve $-1 0 -37.866125375522742 14.322494725765365 1 0 0 I I #
vertex $-1 $480 $720 #
point $-1 -32.12963314389139 -30.396780303591907 6.3799063594149006 #
edge $-1 $641 58.301660804257253 $644 64.947167544478333 $485 $721 forward 7 unknown #
vertex $-1 $499 $722 #
straight-curve $-1 -28.693467018629576 25.909994811608051 14.322494725765367 0 1 0 I I #
edge $-1 $644 11.964201960274433 $496 21.494328156435852 $495 $723 forward 7 unknown #
vertex $-1 $643 $724 #
straight-curve $-1 -28.693467018629576 -20.988886968453144 55.336838235095783 0 -0.77714595512881146 0.62932039886446345 I I #
point $-1 -28.693467018629576 29.659608167018348 14.322494725765367 #
point $-1 -38.223593214790995 37.866125375522749 7.6769879855442795 #
straight-curve $-1 0 37.866125375522742 14.322494725765365 -1 0 0 I I #
vertex $-1 $502 $725 #
point $-1 -31.958530116710286 32.420286497750823 9.341792827553304 #
coedge $-1 $517 $516 $509 $652 forward $506 $-1 #
edge $-1 $653 58.301660804257253 $656 64.947167544478333 $651 $726 forward 7 unknown #
vertex $-1 $521 $727 #
straight-curve $-1 -6.9789953882294498 25.909994811608051 14.322494725765367 0 1 0 I I #
edge $-1 $656 1.1069661450743702 $518 10.637092341235789 $517 $728 forward 7 unknown #
vertex $-1 $655 $729 #
straight-curve $-1 -6.9789953882294498 -20.988886968453144 55.336838235095783 0 -0.77714595512881146 0.62932039886446345 I I #
point $-1 -6.9789953882294498 29.659608167018348 14.322494725765367 #
point $-1 -16.509121584390869 37.866125375522749 7.6769879855442795 #
straight-curve $-1 0 37.866125375522742 14.322494725765365 -1 0 0 I I #
vertex $-1 $524 $730 #
point $-1 -10.244058486310159 32.420286497750823 9.341792827553304 #
coedge $-1 $539 $538 $531 $664 forward $528 $-1 #
edge $-1 $665 58.301660804257253 $668 64.947167544478333 $663 $731 forward 7 unknown #
vertex $-1 $543 $732 #
straight-curve $-1 14.735476242170677 25.909994811608051 14.322494725765367 0 1 0 I I #
edge $-1 $668 -9.750269670125693 $540 -0.22014347396427425 $539 $733 forward 7 unknown #
vertex $-1 $667 $734 #
straight-curve $-1 14.735476242170677 -20.988886968453144 55.336838235095783 0 -0.77714595512881146 0.62932039886446345 I I #
point $-1 14.735476242170677 29.659608167018348 14.322494725765367 #
point $-1 5.2053500460092579 37.866125375522749 7.6769879855442795 #
straight-curve $-1 0 37.866125375522742 14.322494725765365 -1 0 0 I I #
vertex $-1 $546 $735 #
point $-1 11.470413144089967 32.420286497750823 9.341792827553304 #
coedge $-1 $561 $560 $553 $676 forward $550 $-1 #
edge $-1 $677 58.301660804257253 $680 64.947167544478333 $675 $736 forward 7 unknown #
vertex $-1 $565 $737 #
straight-curve $-1 36.449947872570803 25.909994811608051 14.322494725765367 0 1 0 I I #
edge $-1 $680 -20.607505485325756 $562 -11.077379289164337 $561 $738 forward 7 unknown #
vertex $-1 $679 $739 #
straight-curve $-1 36.449947872570803 -20.988886968453144 55.336838235095783 0 -0.77714595512881146 0.62932039886446345 I I #
point $-1 36.449947872570803 29.659608167018348 14.322494725765367 #
point $-1 26.919821676409384 37.866125375522749 7.6769879855442795 #
straight-curve $-1 0 37.866125375522742 14.322494725765365 -1 0 0 I I #
vertex $-1 $568 $740 #
point $-1 33.184884774490094 32.420286497750823 9.341792827553304 #
coedge $-1 $573 $587 $576 $690 reversed $401 $-1 #
vertex $-1 $690 $741 #
straight-curve $-1 -57.847224341563155 -37.866125375522742 0 0 0 -1 I I #
edge $-1 $688 -37.866125375522742 $589 37.866125375522742 $687 $742 forward 7 unknown #
straight-curve $-1 0 -37.866125375522742 -14.322494725765365 -1 0 0 I I #
straight-curve $-1 -57.847224341563155 0 14.322494725765365 0 -1 0 I I #
point $-1 -57.847224341563155 37.866125375522742 14.322494725765365 #
point $-1 -57.847224341563155 -37.866125375522742 14.322494725765365 #
straight-curve $-1 -57.847224341563155 37.866125375522742 0 0 0 -1 I I #
point $-1 -57.847224341563155 37.866125375522742 -14.322494725765365 #
coedge $-1 $702 $592 $595 $699 reversed $421 $-1 #
straight-curve $-1 -72.265505422326058 37.866125375522742 0.75883768052914036 0 0 -1 I I #
edge $-1 $704 -37.866125375522742 $596 37.866125375522742 $697 $743 forward 7 unknown #
point $-1 -72.265505422326058 37.866125375522742 -2.2046646843872875 #
point $-1 -72.265505422326058 37.866125375522742 3.7223400454455682 #
coedge $-1 $605 $697 $602 $703 reversed $421 $-1 #
edge $-1 $607 -2.9635023649164278 $704 2.9635023649164278 $702 $744 forward 7 unknown #
vertex $-1 $699 $745 #
straight-curve $-1 -65.056364881944603 -37.866125375522742 -2.2046646843872875 -1 0 0 I I #
straight-curve $-1 -72.265505422326058 0 3.7223400454455682 0 -1 0 I I #
point $-1 -72.265505422326058 -37.866125375522742 3.7223400454455682 #
vertex $-1 $613 $746 #
straight-curve $-1 72.265505422326044 0 -2.2046646843872875 0 -1 0 I I #
edge $-1 $616 -2.9635023649164278 $708 2.9635023649164278 $614 $747 forward 7 unknown #
point $-1 72.265505422326044 -37.866125375522742 3.7223400454455682 #
point $-1 72.265505422326044 37.866125375522742 3.7223400454455682 #
straight-curve $-1 72.265505422326044 -37.866125375522742 0.75883768052914036 0 0 -1 I I #
point $-1 72.265505422326044 -37.866125375522742 -2.2046646843872875 #
straight-curve $-1 65.056364881944603 37.866125375522742 -2.2046646843872875 1 0 0 I I #
straight-curve $-1 -43.428943260800253 -37.866125375522742 52.505075855990654 0 0 -1 I I #
point $-1 -43.428943260800253 -37.866125375522742 14.322494725765365 #
straight-curve $-1 -17.064816571945691 -37.866125375522742 9.0951073847734119 1 0 0 I I #
point $-1 -43.428943260800253 -37.866125375522742 9.0951073847734136 #
point $-1 -34.12963314389139 -29.278394482115107 4.7218312241090024 #
straight-curve $-1 -28.693467018629576 37.866125375522742 72.62415553002262 0 0 -1 I I #
point $-1 -28.693467018629576 37.866125375522742 14.322494725765365 #
straight-curve $-1 -16.729265058355143 37.866125375522742 7.6769879855442795 -1 0 0 I I #
point $-1 -28.693467018629576 37.866125375522749 7.6769879855442795 #
point $-1 -33.458530116710286 31.476305899454129 8.1760738948600871 #
straight-curve $-1 -6.9789953882294498 37.866125375522742 72.62415553002262 0 0 -1 I I #
point $-1 -6.9789953882294498 37.866125375522742 14.322494725765365 #
straight-curve $-1 -5.8720292431550796 37.866125375522742 7.6769879855442795 -1 0 0 I I #
point $-1 -6.9789953882294498 37.866125375522749 7.6769879855442795 #
point $-1 -11.744058486310159 31.476305899454129 8.1760738948600871 #
straight-curve $-1 14.735476242170677 37.866125375522742 72.62415553002262 0 0 -1 I I #
point $-1 14.735476242170677 37.866125375522742 14.322494725765365 #
straight-curve $-1 4.9852065720449836 37.866125375522742 7.6769879855442795 -1 0 0 I I #
point $-1 14.735476242170677 37.866125375522749 7.6769879855442795 #
point $-1 9.9704131440899673 31.476305899454129 8.1760738948600871 #
straight-curve $-1 36.449947872570803 37.866125375522742 72.62415553002262 0 0 -1 I I #
point $-1 36.449947872570803 37.866125375522742 14.322494725765365 #
straight-curve $-1 15.842442387245047 37.866125375522742 7.6769879855442795 -1 0 0 I I #
point $-1 36.449947872570803 37.866125375522749 7.6769879855442795 #
point $-1 31.684884774490094 31.476305899454129 8.1760738948600871 #
point $-1 -57.847224341563155 -37.866125375522742 -14.322494725765365 #
straight-curve $-1 -57.847224341563155 0 -14.322494725765365 0 1 0 I I #
straight-curve $-1 -72.265505422326058 0 -2.2046646843872875 0 1 0 I I #
straight-curve $-1 -72.265505422326058 -37.866125375522742 0.75883768052914036 0 0 -1 I I #
point $-1 -72.265505422326058 -37.866125375522742 -2.2046646843872875 #
point $-1 72.265505422326044 37.866125375522742 -2.2046646843872875 #
straight-curve $-1 72.265505422326044 37.866125375522742 0.75883768052914036 0 0 -1 I I #
End-of-ACIS-data 