500 0 8 0           
7 Unknown 11 ACIS 5.0 NT 24 Fri Mar 26 03:27:58 1999 
-1 9.9999999999999995e-007 1e-010 
body $-1 $8 $-1 $9 #
body $-1 $10 $-1 $11 #
body $-1 $12 $-1 $13 #
body $-1 $14 $-1 $15 #
body $-1 $16 $-1 $17 #
body $-1 $18 $-1 $19 #
body $-1 $20 $-1 $21 #
body $-1 $22 $-1 $23 #
lump $-1 $-1 $24 $0 #
transform $-1 1 0 0 0 1 0 0 0 1 59.923703726310009 29.682962589853748 9.7910203729336303 1 rotate no_reflect no_shear #
lump $-1 $-1 $25 $1 #
transform $-1 1 0 0 0 1 0 0 0 1 59.923703726310009 29.682962589853748 9.7910203729336303 1 rotate no_reflect no_shear #
lump $-1 $-1 $26 $2 #
transform $-1 1 0 0 0 1 0 0 0 1 59.923703726310009 29.682962589853748 9.7910203729336303 1 rotate no_reflect no_shear #
lump $-1 $-1 $27 $3 #
transform $-1 1 0 0 0 1 0 0 0 1 59.923703726310009 29.682962589853748 9.7910203729336303 1 rotate no_reflect no_shear #
lump $-1 $-1 $28 $4 #
transform $-1 1 0 0 0 1 0 0 0 1 59.923703726310009 29.682962589853748 9.7910203729336303 1 rotate no_reflect no_shear #
lump $-1 $-1 $29 $5 #
transform $-1 1 0 0 0 1 0 0 0 1 59.923703726310009 29.682962589853748 9.7910203729336303 1 rotate no_reflect no_shear #
lump $-1 $-1 $30 $6 #
transform $-1 1 0 0 0 1 0 0 0 1 59.923703726310009 29.682962589853748 9.7910203729336303 1 rotate no_reflect no_shear #
lump $-1 $-1 $31 $7 #
transform $-1 1 0 0 0 1 0 0 0 1 59.923703726310009 29.682962589853748 9.7910203729336303 1 rotate no_reflect no_shear #
shell $-1 $-1 $-1 $32 $-1 $8 #
shell $-1 $-1 $-1 $33 $-1 $10 #
shell $-1 $-1 $-1 $34 $-1 $12 #
shell $-1 $-1 $-1 $35 $-1 $14 #
shell $-1 $-1 $-1 $36 $-1 $16 #
shell $-1 $-1 $-1 $37 $-1 $18 #
shell $-1 $-1 $-1 $38 $-1 $20 #
shell $-1 $-1 $-1 $39 $-1 $22 #
face $-1 $40 $41 $24 $-1 $42 forward single #
face $-1 $43 $44 $25 $-1 $45 forward single #
face $-1 $46 $47 $26 $-1 $48 reversed single #
face $-1 $49 $50 $27 $-1 $51 forward single #
face $-1 $52 $53 $28 $-1 $54 forward single #
face $-1 $55 $56 $29 $-1 $57 reversed single #
face $-1 $58 $59 $30 $-1 $60 forward single #
face $-1 $61 $62 $31 $-1 $63 forward single #
face $-1 $64 $65 $24 $-1 $66 reversed single #
loop $-1 $-1 $67 $32 #
plane-surface $-1 0 0 9.7910203729336303 0 0 1 1 0 0 forward_v I I I I #
face $-1 $68 $69 $25 $-1 $70 reversed single #
loop $-1 $-1 $71 $33 #
plane-surface $-1 0 -29.682962589853748 0 0 1 0 0 0 1 forward_v I I I I #
face $-1 $72 $73 $26 $-1 $74 reversed single #
loop $-1 $-1 $75 $34 #
plane-surface $-1 -148.98768541408549 -22.639308449950786 82.884110439135029 0 1 0 -0.74314483375859142 0 0.66913059716165679 forward_v I I I I #
face $-1 $76 $77 $27 $-1 $78 forward single #
loop $-1 $79 $80 $35 #
cone-surface $-1 -54.789150270215721 -18.338102433268865 4.4958849045578617 0.74314483375859142 0 -0.66913059716165679 1.0036958957424851 0 1.1147172506378871 1 I I 0 1 1.5 forward I I I I #
face $-1 $81 $82 $28 $-1 $83 forward single #
loop $-1 $84 $85 $36 #
cone-surface $-1 -54.789150270215721 -11.886293408245979 4.4958849045578617 0.74314483375859142 0 -0.66913059716165679 1.0036958957424851 0 1.1147172506378871 1 I I 0 1 1.5 forward I I I I #
face $-1 $86 $87 $29 $-1 $88 reversed single #
loop $-1 $-1 $89 $37 #
plane-surface $-1 68.794118097037455 -7.5850873915640591 171.94809212691047 0 -1 0 -0.74314483375859142 0 -0.66913059716165679 forward_v I I I I #
face $-1 $90 $91 $30 $-1 $92 forward single #
loop $-1 $93 $94 $38 #
cone-surface $-1 54.789150270215707 -18.338102433268865 4.4958849045578724 -0.74314483375859142 0 -0.66913059716165679 1.0036958957424851 0 -1.1147172506378871 1 I I 0 1 1.5 forward I I I I #
face $-1 $95 $96 $31 $-1 $97 forward single #
loop $-1 $98 $99 $39 #
cone-surface $-1 54.789150270215707 -11.886293408245979 4.4958849045578724 -0.74314483375859142 0 -0.66913059716165679 1.0036958957424851 0 -1.1147172506378871 1 I I 0 1 1.5 forward I I I I #
face $-1 $100 $101 $24 $-1 $102 reversed single #
loop $-1 $-1 $103 $40 #
plane-surface $-1 0 0 -9.7910203729336303 0 0 1 1 0 0 forward_v I I I I #
coedge $-1 $104 $105 $106 $107 forward $41 $-1 #
face $-1 $108 $109 $25 $-1 $110 reversed single #
loop $-1 $-1 $111 $43 #
plane-surface $-1 0 0 -9.7910203729336303 0 0 1 1 0 0 forward_v I I I I #
coedge $-1 $112 $113 $114 $115 forward $44 $-1 #
face $-1 $116 $117 $26 $-1 $118 reversed single #
loop $-1 $-1 $119 $46 #
plane-surface $-1 -59.923703726310023 -15.112197920757422 2.6905431220869929 -0.74314483375859142 0 0.66913059716165679 0.66913059716165679 0 0.74314483375859142 forward_v I I I I #
coedge $-1 $120 $121 $122 $123 reversed $47 $-1 #
face $-1 $-1 $124 $27 $-1 $125 forward single #
loop $-1 $126 $127 $49 #
cone-surface $-1 -52.293887325796405 -18.338102433268865 2.2491401137341747 0.74314483375859142 0 -0.66913059716165679 0.50184794787124254 0 0.55735862531894353 1 I I -0.70710678118654757 0.70710678118654757 0.75 forward I I I I #
loop $-1 $-1 $128 $35 #
coedge $-1 $80 $80 $129 $130 reversed $50 $-1 #
face $-1 $-1 $131 $28 $-1 $132 forward single #
loop $-1 $133 $134 $52 #
cone-surface $-1 -52.293887325796405 -11.886293408245979 2.2491401137341747 0.74314483375859142 0 -0.66913059716165679 0.50184794787124254 0 0.55735862531894353 1 I I -0.70710678118654757 0.70710678118654757 0.75 forward I I I I #
loop $-1 $-1 $135 $36 #
coedge $-1 $85 $85 $136 $137 reversed $53 $-1 #
face $-1 $138 $139 $29 $-1 $140 reversed single #
loop $-1 $-1 $141 $55 #
plane-surface $-1 -20.269863590738012 -15.112197920757422 91.754524809862431 0.74314483375859142 0 0.66913059716165679 0.66913059716165679 0 -0.74314483375859142 forward_v I I I I #
coedge $-1 $142 $143 $144 $145 reversed $56 $-1 #
face $-1 $-1 $146 $30 $-1 $147 forward single #
loop $-1 $148 $149 $58 #
cone-surface $-1 52.293887325796391 -18.338102433268865 2.2491401137341853 -0.74314483375859142 0 -0.66913059716165679 0.50184794787124254 0 -0.55735862531894353 1 I I -0.70710678118654757 0.70710678118654757 0.75 forward I I I I #
loop $-1 $-1 $150 $38 #
coedge $-1 $94 $94 $151 $152 reversed $59 $-1 #
face $-1 $-1 $153 $31 $-1 $154 forward single #
loop $-1 $155 $156 $61 #
cone-surface $-1 52.293887325796391 -11.886293408245979 2.2491401137341853 -0.74314483375859142 0 -0.66913059716165679 0.50184794787124254 0 -0.55735862531894353 1 I I -0.70710678118654757 0.70710678118654757 0.75 forward I I I I #
loop $-1 $-1 $157 $39 #
coedge $-1 $99 $99 $158 $159 reversed $62 $-1 #
face $-1 $160 $161 $24 $-1 $162 reversed single #
loop $-1 $-1 $163 $64 #
plane-surface $-1 0 -29.682962589853748 0 0 1 0 0 0 1 forward_v I I I I #
coedge $-1 $164 $165 $166 $167 forward $65 $-1 #
coedge $-1 $168 $67 $169 $170 forward $41 $-1 #
coedge $-1 $67 $168 $171 $172 forward $41 $-1 #
coedge $-1 $173 $174 $67 $107 reversed $175 $-1 #
edge $-1 $176 -29.682962589853748 $177 29.682962589853748 $106 $178 forward 7 unknown #
face $-1 $179 $180 $25 $-1 $181 reversed single #
loop $-1 $-1 $182 $68 #
plane-surface $-1 -51.848476961239868 -36.726616729756714 0 0 1 0 0 0 1 forward_v I I I I #
coedge $-1 $183 $184 $113 $185 forward $69 $-1 #
coedge $-1 $186 $71 $187 $188 reversed $44 $-1 #
coedge $-1 $71 $186 $111 $185 reversed $44 $-1 #
coedge $-1 $189 $190 $71 $115 reversed $180 $-1 #
edge $-1 $191 -9.7910203729336303 $192 9.7910203729336303 $114 $193 forward 7 unknown #
face $-1 $194 $195 $26 $-1 $196 reversed single #
loop $-1 $-1 $197 $72 #
plane-surface $-1 -148.98768541408549 -7.5850873915640591 82.884110439135029 0 -1 0 0.74314483375859142 0 -0.66913059716165679 forward_v I I I I #
coedge $-1 $198 $199 $200 $201 reversed $73 $-1 #
coedge $-1 $121 $75 $202 $203 reversed $47 $-1 #
coedge $-1 $75 $120 $198 $204 reversed $47 $-1 #
coedge $-1 $200 $205 $75 $123 forward $206 $-1 #
edge $-1 $207 14.570138980732736 $208 20.963437254720546 $122 $209 forward 7 unknown #
loop $-1 $-1 $129 $76 #
plane-surface $-1 -59.923703726310023 -15.112197920757422 2.6905431220869929 -0.74314483375859142 0 0.66913059716165679 0.66913059716165679 0 0.74314483375859142 forward_v I I I I #
loop $-1 $-1 $210 $49 #
coedge $-1 $127 $127 $128 $211 reversed $77 $-1 #
coedge $-1 $128 $128 $127 $211 forward $79 $-1 #
coedge $-1 $129 $129 $80 $130 forward $124 $-1 #
edge $-1 $212 0 $212 6.2831853071796004 $129 $213 forward 7 unknown #
loop $-1 $-1 $136 $81 #
plane-surface $-1 -59.923703726310023 -15.112197920757422 2.6905431220869929 -0.74314483375859142 0 0.66913059716165679 0.66913059716165679 0 0.74314483375859142 forward_v I I I I #
loop $-1 $-1 $214 $52 #
coedge $-1 $134 $134 $135 $215 reversed $82 $-1 #
coedge $-1 $135 $135 $134 $215 forward $84 $-1 #
coedge $-1 $136 $136 $85 $137 forward $131 $-1 #
edge $-1 $216 0 $216 6.2831853071796004 $136 $217 forward 7 unknown #
face $-1 $218 $219 $29 $-1 $220 forward single #
loop $-1 $-1 $221 $86 #
plane-surface $-1 68.794118097037455 -22.639308449950786 171.94809212691047 0 1 0 0.74314483375859142 0 0.66913059716165679 forward_v I I I I #
coedge $-1 $222 $223 $224 $225 reversed $87 $-1 #
coedge $-1 $143 $89 $226 $227 reversed $56 $-1 #
coedge $-1 $89 $142 $222 $228 reversed $56 $-1 #
coedge $-1 $224 $229 $89 $145 forward $219 $-1 #
edge $-1 $230 -25.526644677791282 $231 -19.133346403803444 $144 $232 forward 7 unknown #
loop $-1 $-1 $151 $90 #
plane-surface $-1 -20.269863590738012 -15.112197920757422 91.754524809862431 0.74314483375859142 0 0.66913059716165679 0.66913059716165679 0 -0.74314483375859142 forward_v I I I I #
loop $-1 $-1 $233 $58 #
coedge $-1 $149 $149 $150 $234 reversed $91 $-1 #
coedge $-1 $150 $150 $149 $234 forward $93 $-1 #
coedge $-1 $151 $151 $94 $152 forward $146 $-1 #
edge $-1 $235 0 $235 6.2831853071796004 $151 $236 forward 7 unknown #
loop $-1 $-1 $158 $95 #
plane-surface $-1 -20.269863590738012 -15.112197920757422 91.754524809862431 0.74314483375859142 0 0.66913059716165679 0.66913059716165679 0 -0.74314483375859142 forward_v I I I I #
loop $-1 $-1 $237 $61 #
coedge $-1 $156 $156 $157 $238 reversed $96 $-1 #
coedge $-1 $157 $157 $156 $238 forward $98 $-1 #
coedge $-1 $158 $158 $99 $159 forward $153 $-1 #
edge $-1 $239 0 $239 6.2831853071796004 $158 $240 forward 7 unknown #
face $-1 $241 $242 $24 $-1 $243 reversed single #
loop $-1 $-1 $244 $100 #
plane-surface $-1 -59.923703726310009 0 0 1 0 0 0 0 -1 forward_v I I I I #
coedge $-1 $245 $171 $246 $247 forward $101 $-1 #
coedge $-1 $248 $103 $245 $249 forward $65 $-1 #
coedge $-1 $103 $248 $250 $251 forward $65 $-1 #
coedge $-1 $174 $173 $103 $167 reversed $175 $-1 #
edge $-1 $252 -29.682962589853748 $253 29.682962589853748 $166 $254 forward 7 unknown #
coedge $-1 $105 $104 $255 $256 forward $41 $-1 #
coedge $-1 $257 $258 $104 $170 reversed $242 $-1 #
edge $-1 $177 -59.923703726310009 $259 59.923703726310009 $169 $260 forward 7 unknown #
coedge $-1 $163 $261 $105 $172 reversed $101 $-1 #
edge $-1 $262 -59.923703726310009 $176 59.923703726310009 $171 $263 forward 7 unknown #
coedge $-1 $166 $106 $261 $264 forward $175 $-1 #
coedge $-1 $106 $166 $257 $265 reversed $175 $-1 #
loop $-1 $-1 $173 $241 #
vertex $-1 $107 $266 #
vertex $-1 $107 $267 #
straight-curve $-1 59.923703726310009 0 9.7910203729336303 0 1 0 I I #
face $-1 $268 $269 $25 $-1 $270 reversed single #
loop $-1 $-1 $114 $108 #
plane-surface $-1 -53.348476961239868 -33.204789659805229 0 1 0 0 0 0 -1 forward_v I I I I #
coedge $-1 $271 $272 $273 $274 forward $109 $-1 #
coedge $-1 $275 $111 $276 $277 forward $69 $-1 #
coedge $-1 $111 $275 $189 $278 forward $69 $-1 #
edge $-1 $191 -53.348476961239868 $279 -50.348476961239868 $111 $280 forward 7 unknown #
coedge $-1 $113 $112 $281 $282 forward $44 $-1 #
coedge $-1 $283 $284 $112 $188 forward $285 $-1 #
edge $-1 $286 50.348476961239868 $192 53.348476961239868 $187 $287 forward 7 unknown #
coedge $-1 $273 $114 $184 $278 reversed $180 $-1 #
coedge $-1 $114 $273 $283 $288 reversed $180 $-1 #
vertex $-1 $185 $289 #
vertex $-1 $288 $290 #
straight-curve $-1 -53.348476961239868 -29.682962589853748 0 0 0 1 I I #
face $-1 $-1 $206 $26 $-1 $291 forward single #
loop $-1 $-1 $292 $116 #
plane-surface $-1 -59.923703726310009 0 0 1 0 0 0 0 -1 forward_v I I I I #
coedge $-1 $293 $294 $295 $296 reversed $117 $-1 #
coedge $-1 $297 $119 $121 $204 forward $73 $-1 #
coedge $-1 $119 $297 $293 $298 forward $73 $-1 #
coedge $-1 $295 $122 $119 $201 forward $206 $-1 #
edge $-1 $208 -15.083209489572074 $299 -0.028988431185347885 $200 $300 forward 7 unknown #
coedge $-1 $301 $302 $120 $203 forward $195 $-1 #
edge $-1 $303 -38.751512097480507 $207 -31.651034846633884 $202 $304 forward 7 unknown #
edge $-1 $208 -9.5546344780931474 $303 -2.1389731374768986e-014 $121 $305 forward 7 unknown #
coedge $-1 $122 $295 $301 $306 forward $206 $-1 #
loop $-1 $-1 $295 $194 #
vertex $-1 $203 $307 #
vertex $-1 $123 $308 #
straight-curve $-1 -74.493842707042745 -22.639308449950786 9.7910203729336303 1 0 0 I I #
coedge $-1 $210 $210 $-1 $309 reversed $126 $-1 #
edge $-1 $310 0 $310 6.2831853071796004 $127 $311 forward 7 unknown #
vertex $-1 $130 $312 #
ellipse-curve $-1 -56.727054589316104 -18.338102433268865 6.2407817475103187 -0.74314483375859142 0 0.66913059716165679 1.0036958957424851 0 1.1147172506378871 1 I I #
coedge $-1 $214 $214 $-1 $313 reversed $133 $-1 #
edge $-1 $314 0 $314 6.2831853071796004 $134 $315 forward 7 unknown #
vertex $-1 $137 $316 #
ellipse-curve $-1 -56.727054589316104 -11.886293408245979 6.2407817475103187 -0.74314483375859142 0 0.66913059716165679 1.0036958957424851 0 1.1147172506378871 1 I I #
face $-1 $-1 $317 $29 $-1 $318 reversed single #
loop $-1 $-1 $144 $138 #
plane-surface $-1 0 0 9.7910203729336303 0 0 1 1 0 0 forward_v I I I I #
coedge $-1 $319 $320 $321 $322 reversed $139 $-1 #
coedge $-1 $323 $141 $143 $228 forward $87 $-1 #
coedge $-1 $141 $323 $319 $324 forward $87 $-1 #
coedge $-1 $321 $144 $141 $225 forward $219 $-1 #
edge $-1 $231 0.028988431185347885 $325 15.083209489572074 $224 $326 forward 7 unknown #
coedge $-1 $327 $328 $142 $227 forward $317 $-1 #
edge $-1 $329 -83.283502941368269 $230 -76.183025690521603 $226 $330 forward 7 unknown #
edge $-1 $231 110.29277297452683 $329 119.84740745261999 $143 $331 forward 7 unknown #
coedge $-1 $144 $321 $327 $332 forward $219 $-1 #
vertex $-1 $145 $333 #
vertex $-1 $145 $334 #
straight-curve $-1 34.397059048518727 -7.5850873915640591 9.7910203729336303 -1 0 0 I I #
coedge $-1 $233 $233 $-1 $335 reversed $148 $-1 #
edge $-1 $336 0 $336 6.2831853071796004 $149 $337 forward 7 unknown #
vertex $-1 $152 $338 #
ellipse-curve $-1 56.727054589316083 -18.338102433268865 6.2407817475103213 0.74314483375859142 0 0.66913059716165679 1.0036958957424851 0 -1.1147172506378871 1 I I #
coedge $-1 $237 $237 $-1 $339 reversed $155 $-1 #
edge $-1 $340 0 $340 6.2831853071796004 $156 $341 forward 7 unknown #
vertex $-1 $159 $342 #
ellipse-curve $-1 56.727054589316083 -11.886293408245979 6.2407817475103213 0.74314483375859142 0 0.66913059716165679 1.0036958957424851 0 -1.1147172506378871 1 I I #
face $-1 $-1 $175 $24 $-1 $343 reversed single #
loop $-1 $-1 $257 $160 #
plane-surface $-1 0 29.682962589853748 0 0 -1 0 0 0 -1 forward_v I I I I #
coedge $-1 $344 $255 $258 $345 forward $161 $-1 #
coedge $-1 $261 $163 $164 $249 reversed $101 $-1 #
coedge $-1 $255 $344 $163 $247 reversed $161 $-1 #
edge $-1 $262 -9.7910203729336303 $346 9.7910203729336303 $246 $347 forward 7 unknown #
coedge $-1 $165 $164 $344 $348 forward $65 $-1 #
edge $-1 $253 -59.923703726310009 $346 59.923703726310009 $245 $349 forward 7 unknown #
coedge $-1 $258 $257 $165 $251 reversed $242 $-1 #
edge $-1 $350 -59.923703726310009 $252 59.923703726310009 $250 $351 forward 7 unknown #
vertex $-1 $167 $352 #
vertex $-1 $264 $353 #
straight-curve $-1 59.923703726310009 0 -9.7910203729336303 0 -1 0 I I #
coedge $-1 $244 $246 $168 $256 reversed $161 $-1 #
edge $-1 $259 -29.682962589853748 $262 29.682962589853748 $255 $354 forward 7 unknown #
coedge $-1 $250 $169 $174 $265 forward $242 $-1 #
coedge $-1 $169 $250 $244 $345 reversed $242 $-1 #
vertex $-1 $170 $355 #
straight-curve $-1 0 29.682962589853748 9.7910203729336303 -1 0 0 I I #
coedge $-1 $171 $245 $173 $264 reversed $101 $-1 #
vertex $-1 $256 $356 #
straight-curve $-1 0 -29.682962589853748 9.7910203729336303 1 0 0 I I #
edge $-1 $176 -9.7910203729336303 $253 9.7910203729336303 $173 $357 forward 7 unknown #
edge $-1 $177 -9.7910203729336303 $252 9.7910203729336303 $174 $358 forward 7 unknown #
point $-1 59.923703726310009 -29.682962589853748 9.7910203729336303 #
point $-1 59.923703726310009 29.682962589853748 9.7910203729336303 #
face $-1 $-1 $285 $25 $-1 $359 forward single #
loop $-1 $-1 $360 $179 #
plane-surface $-1 -50.348476961239868 -33.204789659805229 0 -1 0 0 0 0 1 forward_v I I I I #
coedge $-1 $361 $182 $275 $362 reversed $109 $-1 #
coedge $-1 $182 $361 $363 $364 reversed $109 $-1 #
coedge $-1 $190 $189 $182 $274 reversed $180 $-1 #
edge $-1 $365 -9.7910203729336303 $366 9.7910203729336303 $273 $367 forward 7 unknown #
coedge $-1 $184 $183 $271 $362 forward $69 $-1 #
coedge $-1 $281 $360 $183 $277 reversed $269 $-1 #
edge $-1 $279 -3.5218270699514811 $368 3.5218270699514846 $276 $369 forward 7 unknown #
edge $-1 $366 -3.5218270699514846 $191 3.5218270699514811 $189 $370 forward 7 unknown #
vertex $-1 $277 $371 #
straight-curve $-1 0 -29.682962589853748 -9.7910203729336303 1 0 0 I I #
coedge $-1 $372 $276 $186 $282 reversed $269 $-1 #
edge $-1 $286 -9.7910203729336303 $279 9.7910203729336303 $281 $373 forward 7 unknown #
coedge $-1 $363 $187 $190 $288 forward $285 $-1 #
coedge $-1 $187 $363 $372 $374 forward $285 $-1 #
loop $-1 $-1 $187 $268 #
vertex $-1 $188 $375 #
straight-curve $-1 0 -29.682962589853748 9.7910203729336303 -1 0 0 I I #
edge $-1 $192 -3.5218270699514811 $365 3.5218270699514846 $190 $376 forward 7 unknown #
point $-1 -53.348476961239868 -29.682962589853748 -9.7910203729336303 #
point $-1 -53.348476961239868 -29.682962589853748 9.7910203729336303 #
plane-surface $-1 0 0 9.7910203729336303 0 0 1 1 0 0 forward_v I I I I #
coedge $-1 $302 $301 $294 $377 forward $195 $-1 #
coedge $-1 $294 $197 $199 $298 reversed $117 $-1 #
coedge $-1 $197 $293 $292 $377 reversed $117 $-1 #
coedge $-1 $205 $200 $197 $296 forward $206 $-1 #
edge $-1 $299 -20.963437254720546 $378 -14.570138980732736 $295 $379 forward 7 unknown #
coedge $-1 $199 $198 $302 $380 reversed $73 $-1 #
edge $-1 $381 2.1389731374768986e-014 $299 9.5546344780931474 $293 $382 forward 7 unknown #
vertex $-1 $201 $383 #
straight-curve $-1 -53.530405452322199 -7.5560989603787112 9.7910203729336303 0 1 0 I I #
coedge $-1 $292 $202 $205 $306 reversed $195 $-1 #
coedge $-1 $202 $292 $297 $380 forward $195 $-1 #
vertex $-1 $203 $384 #
straight-curve $-1 -59.923703726310009 -22.639308449950786 41.442055219567514 0 0 1 I I #
straight-curve $-1 -59.923703726310023 -22.639308449950786 2.6905431220869929 -0.66913059716165679 0 -0.74314483375859142 I I #
edge $-1 $378 7.5850873915640591 $207 22.639308449950786 $301 $385 forward 7 unknown #
point $-1 -59.923703726310009 -22.639308449950786 9.7910203729336303 #
point $-1 -53.530405452322199 -22.639308449950786 9.7910203729336303 #
edge $-1 $386 1 $386 0 $210 $-1 forward 7 unknown #
vertex $-1 $211 $387 #
ellipse-curve $-1 -52.851245951115345 -18.338102433268865 2.7509880616054172 -0.74314483375859142 0 0.66913059716165679 1.0036958957424851 0 1.1147172506378871 1 I I #
point $-1 -55.723358693573608 -18.338102433268865 7.3554989981481951 #
edge $-1 $388 1 $388 0 $214 $-1 forward 7 unknown #
vertex $-1 $215 $389 #
ellipse-curve $-1 -52.851245951115345 -11.886293408245979 2.7509880616054172 -0.74314483375859142 0 0.66913059716165679 1.0036958957424851 0 1.1147172506378871 1 I I #
point $-1 -55.723358693573608 -11.886293408245979 7.3554989981481951 #
loop $-1 $-1 $226 $218 #
plane-surface $-1 59.923703726310009 0 0 -1 0 0 0 0 1 forward_v I I I I #
coedge $-1 $320 $221 $223 $324 reversed $139 $-1 #
coedge $-1 $221 $319 $390 $391 reversed $139 $-1 #
coedge $-1 $229 $224 $221 $322 forward $219 $-1 #
edge $-1 $325 19.133346403803444 $392 25.526644677791282 $321 $393 forward 7 unknown #
coedge $-1 $223 $222 $328 $394 reversed $87 $-1 #
edge $-1 $395 -119.84740745261999 $325 -110.29277297452683 $319 $396 forward 7 unknown #
vertex $-1 $225 $397 #
straight-curve $-1 53.530405452322157 -7.5560989603787112 9.7910203729336303 0 -1 0 I I #
coedge $-1 $390 $226 $229 $332 reversed $317 $-1 #
coedge $-1 $226 $390 $323 $394 forward $317 $-1 #
vertex $-1 $227 $398 #
straight-curve $-1 59.923703726310009 -7.5850873915640591 85.974046063455233 0 0 1 I I #
straight-curve $-1 -20.269863590738012 -7.5850873915640591 91.754524809862431 0.66913059716165679 0 -0.74314483375859142 I I #
edge $-1 $392 -22.639308449950786 $230 -7.5850873915640591 $327 $399 forward 7 unknown #
point $-1 59.923703726310009 -7.5850873915640591 9.7910203729336303 #
point $-1 53.530405452322171 -7.5850873915640591 9.7910203729336303 #
edge $-1 $400 1 $400 0 $233 $-1 forward 7 unknown #
vertex $-1 $234 $401 #
ellipse-curve $-1 52.851245951115331 -18.338102433268865 2.7509880616054279 0.74314483375859142 0 0.66913059716165679 1.0036958957424851 0 -1.1147172506378871 1 I I #
point $-1 57.730750485058564 -18.338102433268865 5.1260644968724316 #
edge $-1 $402 1 $402 0 $237 $-1 forward 7 unknown #
vertex $-1 $238 $403 #
ellipse-curve $-1 52.851245951115331 -11.886293408245979 2.7509880616054279 0.74314483375859142 0 0.66913059716165679 1.0036958957424851 0 -1.1147172506378871 1 I I #
point $-1 57.730750485058564 -11.886293408245979 5.1260644968724316 #
plane-surface $-1 59.923703726310009 0 0 -1 0 0 0 0 1 forward_v I I I I #
coedge $-1 $246 $244 $248 $348 reversed $161 $-1 #
edge $-1 $259 -9.7910203729336303 $350 9.7910203729336303 $258 $404 forward 7 unknown #
vertex $-1 $348 $405 #
straight-curve $-1 -59.923703726310009 -29.682962589853748 0 0 0 -1 I I #
edge $-1 $346 -29.682962589853748 $350 29.682962589853748 $344 $406 forward 7 unknown #
straight-curve $-1 0 -29.682962589853748 -9.7910203729336303 -1 0 0 I I #
vertex $-1 $251 $407 #
straight-curve $-1 0 29.682962589853748 -9.7910203729336303 1 0 0 I I #
point $-1 59.923703726310009 29.682962589853748 -9.7910203729336303 #
point $-1 59.923703726310009 -29.682962589853748 -9.7910203729336303 #
straight-curve $-1 -59.923703726310009 0 9.7910203729336303 0 -1 0 I I #
point $-1 -59.923703726310009 29.682962589853748 9.7910203729336303 #
point $-1 -59.923703726310009 -29.682962589853748 9.7910203729336303 #
straight-curve $-1 59.923703726310009 -29.682962589853748 0 0 0 -1 I I #
straight-curve $-1 59.923703726310009 29.682962589853748 0 0 0 -1 I I #
plane-surface $-1 0 0 9.7910203729336303 0 0 1 1 0 0 forward_v I I I I #
coedge $-1 $276 $372 $361 $408 forward $269 $-1 #
coedge $-1 $272 $271 $360 $408 reversed $109 $-1 #
edge $-1 $368 -1.5 $366 1.5 $271 $409 forward 7 unknown #
coedge $-1 $284 $283 $272 $364 forward $285 $-1 #
edge $-1 $365 -1.5 $410 1.5 $272 $411 forward 7 unknown #
vertex $-1 $288 $412 #
vertex $-1 $278 $413 #
straight-curve $-1 -53.348476961239868 -36.726616729756714 0 0 0 -1 I I #
vertex $-1 $408 $414 #
straight-curve $-1 -50.348476961239868 -33.204789659805229 -9.7910203729336303 0 -1 0 I I #
straight-curve $-1 -53.348476961239868 -33.204789659805229 -9.7910203729336303 0 1 0 I I #
point $-1 -50.348476961239868 -29.682962589853748 -9.7910203729336303 #
coedge $-1 $360 $281 $284 $374 reversed $269 $-1 #
straight-curve $-1 -50.348476961239868 -29.682962589853748 0 0 0 -1 I I #
edge $-1 $410 -3.5218270699514846 $286 3.5218270699514811 $372 $415 forward 7 unknown #
point $-1 -50.348476961239868 -29.682962589853748 9.7910203729336303 #
straight-curve $-1 -53.348476961239868 -33.204789659805229 9.7910203729336303 0 -1 0 I I #
edge $-1 $378 31.651034846633884 $381 38.751512097480507 $292 $416 forward 7 unknown #
vertex $-1 $306 $417 #
straight-curve $-1 -74.493842707042745 -7.5850873915640591 9.7910203729336303 -1 0 0 I I #
edge $-1 $381 0.028988431185347885 $303 15.083209489572074 $302 $418 forward 7 unknown #
vertex $-1 $380 $419 #
straight-curve $-1 -59.923703726310023 -7.5850873915640591 2.6905431220869929 0.66913059716165679 0 0.74314483375859142 I I #
point $-1 -53.530405452322199 -7.5850873915640591 9.7910203729336303 #
point $-1 -59.923703726310009 -22.639308449950786 2.6905431220870089 #
straight-curve $-1 -59.923703726310009 0 9.7910203729336303 0 -1 0 I I #
vertex $-1 $309 $420 #
point $-1 -51.847550055372864 -18.338102433268865 3.8657053122433043 #
vertex $-1 $313 $421 #
point $-1 -51.847550055372864 -11.886293408245979 3.8657053122433043 #
coedge $-1 $328 $327 $320 $391 forward $317 $-1 #
edge $-1 $392 76.183025690521603 $395 83.283502941368269 $390 $422 forward 7 unknown #
vertex $-1 $332 $423 #
straight-curve $-1 34.397059048518727 -22.639308449950786 9.7910203729336303 1 0 0 I I #
edge $-1 $395 -15.083209489572074 $329 -0.028988431185347885 $328 $424 forward 7 unknown #
vertex $-1 $394 $425 #
straight-curve $-1 -20.269863590738012 -22.639308449950786 91.754524809862431 -0.66913059716165679 0 0.74314483375859142 I I #
point $-1 53.530405452322171 -22.639308449950786 9.7910203729336303 #
point $-1 59.923703726310009 -7.5850873915640591 2.6905431220869644 #
straight-curve $-1 59.923703726310009 0 9.7910203729336303 0 1 0 I I #
vertex $-1 $335 $426 #
point $-1 53.85494184685782 -18.338102433268865 1.6362708109675408 #
vertex $-1 $339 $427 #
point $-1 53.85494184685782 -11.886293408245979 1.6362708109675408 #
straight-curve $-1 -59.923703726310009 29.682962589853748 0 0 0 -1 I I #
point $-1 -59.923703726310009 -29.682962589853748 -9.7910203729336303 #
straight-curve $-1 -59.923703726310009 0 -9.7910203729336303 0 1 0 I I #
point $-1 -59.923703726310009 29.682962589853748 -9.7910203729336303 #
edge $-1 $410 -9.7910203729336303 $368 9.7910203729336303 $360 $428 forward 7 unknown #
straight-curve $-1 -51.848476961239868 -36.726616729756714 -9.7910203729336303 -1 0 0 I I #
vertex $-1 $374 $429 #
straight-curve $-1 -51.848476961239868 -36.726616729756714 9.7910203729336303 1 0 0 I I #
point $-1 -53.348476961239868 -36.726616729756714 9.7910203729336303 #
point $-1 -53.348476961239868 -36.726616729756714 -9.7910203729336303 #
point $-1 -50.348476961239868 -36.726616729756714 -9.7910203729336303 #
straight-curve $-1 -50.348476961239868 -33.204789659805229 9.7910203729336303 0 1 0 I I #
straight-curve $-1 -59.923703726310009 -7.5850873915640591 41.442055219567514 0 0 -1 I I #
point $-1 -59.923703726310009 -7.5850873915640591 9.7910203729336303 #
straight-curve $-1 -59.923703726310009 -7.5560989603787112 2.6905431220870049 0 -1 0 I I #
point $-1 -59.923703726310009 -7.5850873915640591 2.6905431220870089 #
point $-1 -51.736528700477464 -18.338102433268865 1.7472921658629321 #
point $-1 -51.736528700477464 -11.886293408245979 1.7472921658629321 #
straight-curve $-1 59.923703726310009 -22.639308449950786 85.974046063455233 0 0 -1 I I #
point $-1 59.923703726310009 -22.639308449950786 9.7910203729336303 #
straight-curve $-1 59.923703726310016 -7.5560989603787112 2.6905431220869644 0 1 0 I I #
point $-1 59.923703726310009 -22.639308449950786 2.6905431220869644 #
point $-1 51.73652870047745 -18.338102433268865 1.7472921658629428 #
point $-1 51.73652870047745 -11.886293408245979 1.7472921658629428 #
straight-curve $-1 -50.348476961239868 -36.726616729756714 0 0 0 -1 I I #
point $-1 -50.348476961239868 -36.726616729756714 9.7910203729336303 #
End-of-ACIS-data 