500 0 6 0           
7 Unknown 11 ACIS 5.0 NT 24 Fri Mar 26 00:16:19 1999 
-1 9.9999999999999995e-007 1e-010 
body $-1 $6 $-1 $7 #
body $-1 $8 $-1 $9 #
body $-1 $10 $-1 $11 #
body $-1 $12 $-1 $13 #
body $-1 $14 $-1 $15 #
body $-1 $16 $-1 $17 #
lump $-1 $-1 $18 $0 #
transform $-1 1 0 0 0 1 0 0 0 1 58.187810907315288 25.366135054883383 7.4694895448945218 1 rotate no_reflect no_shear #
lump $-1 $-1 $19 $1 #
transform $-1 1 0 0 0 1 0 0 0 1 58.187810907315288 25.366135054883383 7.4694895448945218 1 rotate no_reflect no_shear #
lump $-1 $-1 $20 $2 #
transform $-1 1 0 0 0 1 0 0 0 1 58.187810907315288 25.366135054883383 7.4694895448945218 1 rotate no_reflect no_shear #
lump $-1 $-1 $21 $3 #
transform $-1 1 0 0 0 1 0 0 0 1 58.187810907315288 25.366135054883383 7.4694895448945218 1 rotate no_reflect no_shear #
lump $-1 $-1 $22 $4 #
transform $-1 1 0 0 0 1 0 0 0 1 58.187810907315288 25.366135054883383 7.4694895448945218 1 rotate no_reflect no_shear #
lump $-1 $-1 $23 $5 #
transform $-1 1 0 0 0 1 0 0 0 1 58.187810907315288 25.366135054883383 7.4694895448945218 1 rotate no_reflect no_shear #
shell $-1 $-1 $-1 $24 $-1 $6 #
shell $-1 $-1 $-1 $25 $-1 $8 #
shell $-1 $-1 $-1 $26 $-1 $10 #
shell $-1 $-1 $-1 $27 $-1 $12 #
shell $-1 $-1 $-1 $28 $-1 $14 #
shell $-1 $-1 $-1 $29 $-1 $16 #
face $-1 $30 $31 $18 $-1 $32 forward single #
face $-1 $33 $34 $19 $-1 $35 reversed single #
face $-1 $36 $37 $20 $-1 $38 forward single #
face $-1 $39 $40 $21 $-1 $41 forward single #
face $-1 $42 $43 $22 $-1 $44 reversed single #
face $-1 $45 $46 $23 $-1 $47 forward single #
face $-1 $48 $49 $18 $-1 $50 reversed single #
loop $-1 $-1 $51 $24 #
plane-surface $-1 0 0 7.4694895448945218 0 0 1 1 0 0 forward_v I I I I #
face $-1 $52 $53 $19 $-1 $54 reversed single #
loop $-1 $-1 $55 $25 #
plane-surface $-1 -119.85749560828549 -19.699203767698261 99.312617431521119 0 1 0 -0.52991927123019833 0 0.84804809178421925 forward_v I I I I #
face $-1 $56 $57 $20 $-1 $58 forward single #
loop $-1 $59 $60 $26 #
cone-surface $-1 -51.551198314736681 -16.178114769489241 2.1945723905871324 0.52991927123019833 0 -0.84804809178421925 1.2720721376763289 0 0.79487890684529749 1 I I 0 1 1.5 forward I I I I #
face $-1 $61 $62 $21 $-1 $63 forward single #
loop $-1 $64 $65 $27 #
cone-surface $-1 -51.551198314736681 -10.896481272175709 2.1945723905871324 0.52991927123019833 0 -0.84804809178421925 1.2720721376763289 0 0.79487890684529749 1 I I 0 1 1.5 forward I I I I #
face $-1 $66 $67 $22 $-1 $68 reversed single #
loop $-1 $-1 $69 $28 #
plane-surface $-1 -5.1948940226821492 -20.652445448539794 101.60394033696147 0.83867057594974714 0 0.54463902268945019 0.54463902268945019 0 -0.83867057594974714 forward_v I I I I #
face $-1 $70 $71 $23 $-1 $72 forward single #
loop $-1 $73 $74 $29 #
cone-surface $-1 56.642935733815989 -20.652445448539794 5.4639905426901638 -0.83867057594974714 0 -0.54463902268945019 0.2723195113447251 0 -0.41933528797487357 1 I I 0 1 0.5 forward I I I I #
face $-1 $75 $76 $18 $-1 $77 reversed single #
loop $-1 $-1 $78 $30 #
plane-surface $-1 0 0 -7.4694895448945218 0 0 1 1 0 0 forward_v I I I I #
coedge $-1 $79 $80 $81 $82 forward $31 $-1 #
face $-1 $83 $84 $19 $-1 $85 reversed single #
loop $-1 $-1 $86 $33 #
plane-surface $-1 -58.187810907315281 -13.537298020832475 0.62049342142169905 -0.52991927123019833 0 0.84804809178421925 0.84804809178421925 0 0.52991927123019833 forward_v I I I I #
coedge $-1 $87 $88 $89 $90 reversed $34 $-1 #
face $-1 $-1 $91 $20 $-1 $92 forward single #
loop $-1 $93 $94 $36 #
cone-surface $-1 -49.997488660950019 -16.178114769489241 -0.29188277082201441 0.52991927123019833 0 -0.84804809178421925 0.63603606883816444 0 0.39743945342264875 1 I I -0.70710678118654757 0.70710678118654757 0.75 forward I I I I #
loop $-1 $-1 $95 $26 #
coedge $-1 $60 $60 $96 $97 reversed $37 $-1 #
face $-1 $-1 $98 $21 $-1 $99 forward single #
loop $-1 $100 $101 $39 #
cone-surface $-1 -49.997488660950019 -10.896481272175709 -0.29188277082201441 0.52991927123019833 0 -0.84804809178421925 0.63603606883816444 0 0.39743945342264875 1 I I -0.70710678118654757 0.70710678118654757 0.75 forward I I I I #
loop $-1 $-1 $102 $27 #
coedge $-1 $65 $65 $103 $104 reversed $40 $-1 #
face $-1 $105 $106 $22 $-1 $107 reversed single #
loop $-1 $-1 $108 $42 #
plane-surface $-1 92.405915751104033 -15.938755842196207 164.98664526695893 0 -1 0 -0.83867057594974714 0 -0.54463902268945019 forward_v I I I I #
coedge $-1 $109 $110 $111 $112 reversed $43 $-1 #
face $-1 $-1 $113 $23 $-1 $114 forward single #
loop $-1 $115 $116 $45 #
cone-surface $-1 56.013932801853677 -20.652445448539794 5.0555112756730765 -0.83867057594974714 0 -0.54463902268945019 0.13615975567236255 0 -0.20966764398743679 1 I I -0.70710678118654746 0.70710678118654746 0.25 forward I I I I #
loop $-1 $-1 $117 $29 #
coedge $-1 $74 $74 $118 $119 reversed $46 $-1 #
face $-1 $120 $121 $18 $-1 $122 reversed single #
loop $-1 $-1 $123 $48 #
plane-surface $-1 0 -25.366135054883383 0 0 1 0 0 0 1 forward_v I I I I #
coedge $-1 $124 $125 $126 $127 forward $49 $-1 #
coedge $-1 $128 $51 $129 $130 forward $31 $-1 #
coedge $-1 $51 $128 $131 $132 forward $31 $-1 #
coedge $-1 $133 $134 $51 $82 reversed $135 $-1 #
edge $-1 $136 -25.366135054883383 $137 25.366135054883383 $81 $138 forward 7 unknown #
face $-1 $139 $140 $19 $-1 $141 reversed single #
loop $-1 $-1 $142 $52 #
plane-surface $-1 -119.85749560828549 -7.3753922739666891 99.312617431521119 0 -1 0 0.52991927123019833 0 -0.84804809178421925 forward_v I I I I #
coedge $-1 $143 $144 $145 $146 reversed $53 $-1 #
coedge $-1 $88 $55 $147 $148 reversed $34 $-1 #
coedge $-1 $55 $87 $143 $149 reversed $34 $-1 #
coedge $-1 $145 $150 $55 $90 forward $151 $-1 #
edge $-1 $152 1.7409368968274563 $153 12.701621681256654 $89 $154 forward 7 unknown #
loop $-1 $-1 $96 $56 #
plane-surface $-1 -58.187810907315281 -13.537298020832475 0.62049342142169905 -0.52991927123019833 0 0.84804809178421925 0.84804809178421925 0 0.52991927123019833 forward_v I I I I #
loop $-1 $-1 $155 $36 #
coedge $-1 $94 $94 $95 $156 reversed $57 $-1 #
coedge $-1 $95 $95 $94 $156 forward $59 $-1 #
coedge $-1 $96 $96 $60 $97 forward $91 $-1 #
edge $-1 $157 0 $157 6.2831853071796004 $96 $158 forward 7 unknown #
loop $-1 $-1 $103 $61 #
plane-surface $-1 -58.187810907315281 -13.537298020832475 0.62049342142169905 -0.52991927123019833 0 0.84804809178421925 0.84804809178421925 0 0.52991927123019833 forward_v I I I I #
loop $-1 $-1 $159 $39 #
coedge $-1 $101 $101 $102 $160 reversed $62 $-1 #
coedge $-1 $102 $102 $101 $160 forward $64 $-1 #
coedge $-1 $103 $103 $65 $104 forward $98 $-1 #
edge $-1 $161 0 $161 6.2831853071796004 $103 $162 forward 7 unknown #
face $-1 $163 $164 $22 $-1 $165 forward single #
loop $-1 $-1 $111 $66 #
plane-surface $-1 58.187810907315288 0 0 -1 0 0 0 0 1 forward_v I I I I #
coedge $-1 $166 $167 $168 $169 reversed $67 $-1 #
coedge $-1 $170 $69 $171 $172 reversed $43 $-1 #
coedge $-1 $69 $170 $166 $173 forward $43 $-1 #
coedge $-1 $168 $174 $69 $112 forward $106 $-1 #
edge $-1 $175 -15.039912330613486 $176 -5.6125331179263096 $111 $177 forward 7 unknown #
loop $-1 $-1 $118 $70 #
plane-surface $-1 -5.1948940226821492 -20.652445448539794 101.60394033696147 0.83867057594974714 0 0.54463902268945019 0.54463902268945019 0 -0.83867057594974714 forward_v I I I I #
loop $-1 $-1 $178 $45 #
coedge $-1 $116 $116 $117 $179 reversed $71 $-1 #
coedge $-1 $117 $117 $116 $179 forward $73 $-1 #
coedge $-1 $118 $118 $74 $119 forward $113 $-1 #
edge $-1 $180 0 $180 6.2831853071796004 $118 $181 forward 7 unknown #
face $-1 $182 $183 $18 $-1 $184 reversed single #
loop $-1 $-1 $185 $75 #
plane-surface $-1 -58.187810907315288 0 0 1 0 0 0 0 -1 forward_v I I I I #
coedge $-1 $186 $131 $187 $188 forward $76 $-1 #
coedge $-1 $189 $78 $186 $190 forward $49 $-1 #
coedge $-1 $78 $189 $191 $192 forward $49 $-1 #
coedge $-1 $134 $133 $78 $127 reversed $135 $-1 #
edge $-1 $193 -25.366135054883383 $194 25.366135054883383 $126 $195 forward 7 unknown #
coedge $-1 $80 $79 $196 $197 forward $31 $-1 #
coedge $-1 $198 $199 $79 $130 reversed $183 $-1 #
edge $-1 $137 -58.187810907315288 $200 58.187810907315288 $129 $201 forward 7 unknown #
coedge $-1 $123 $202 $80 $132 reversed $76 $-1 #
edge $-1 $203 -58.187810907315288 $136 58.187810907315288 $131 $204 forward 7 unknown #
coedge $-1 $126 $81 $202 $205 forward $135 $-1 #
coedge $-1 $81 $126 $198 $206 reversed $135 $-1 #
loop $-1 $-1 $133 $182 #
vertex $-1 $82 $207 #
vertex $-1 $82 $208 #
straight-curve $-1 58.187810907315288 0 7.4694895448945218 0 1 0 I I #
face $-1 $-1 $151 $19 $-1 $209 forward single #
loop $-1 $-1 $210 $83 #
plane-surface $-1 -58.187810907315288 0 0 1 0 0 0 0 -1 forward_v I I I I #
coedge $-1 $211 $212 $213 $214 reversed $84 $-1 #
coedge $-1 $215 $86 $88 $149 forward $53 $-1 #
coedge $-1 $86 $215 $211 $216 forward $53 $-1 #
coedge $-1 $213 $89 $86 $146 forward $151 $-1 #
edge $-1 $153 -12.930554757282025 $217 -0.60674326355045149 $145 $218 forward 7 unknown #
coedge $-1 $219 $220 $87 $148 forward $140 $-1 #
edge $-1 $221 -49.035815294338867 $152 -42.186819170866038 $147 $222 forward 7 unknown #
edge $-1 $153 -12.924602850492674 $221 8.3790584163743152e-015 $88 $223 forward 7 unknown #
coedge $-1 $89 $213 $219 $224 forward $151 $-1 #
loop $-1 $-1 $213 $139 #
vertex $-1 $148 $225 #
vertex $-1 $90 $226 #
straight-curve $-1 -59.928747804142745 -19.699203767698261 7.4694895448945218 1 0 0 I I #
coedge $-1 $155 $155 $-1 $227 reversed $93 $-1 #
edge $-1 $228 0 $228 6.2831853071796004 $94 $229 forward 7 unknown #
vertex $-1 $97 $230 #
ellipse-curve $-1 -52.707468515100693 -16.178114769489241 4.0449914831581069 -0.52991927123019833 0 0.84804809178421925 1.2720721376763289 0 0.79487890684529749 1 I I #
coedge $-1 $159 $159 $-1 $231 reversed $100 $-1 #
edge $-1 $232 0 $232 6.2831853071796004 $101 $233 forward 7 unknown #
vertex $-1 $104 $234 #
ellipse-curve $-1 -52.707468515100693 -10.896481272175709 4.0449914831581069 -0.52991927123019833 0 0.84804809178421925 1.2720721376763289 0 0.79487890684529749 1 I I #
face $-1 $-1 $235 $22 $-1 $236 reversed single #
loop $-1 $-1 $237 $105 #
plane-surface $-1 0 0 7.4694895448945218 0 0 1 1 0 0 forward_v I I I I #
coedge $-1 $167 $108 $110 $173 reversed $67 $-1 #
coedge $-1 $108 $166 $237 $238 reversed $67 $-1 #
coedge $-1 $239 $111 $108 $169 forward $106 $-1 #
edge $-1 $176 -78.490192070304147 $240 -75.023833088584951 $168 $241 forward 7 unknown #
coedge $-1 $110 $109 $242 $243 reversed $43 $-1 #
coedge $-1 $244 $245 $109 $172 forward $235 $-1 #
edge $-1 $246 68.221674062157447 $175 72.354833232304486 $171 $247 forward 7 unknown #
edge $-1 $248 112.24246264448351 $176 116.37562181463053 $166 $249 forward 7 unknown #
coedge $-1 $111 $239 $244 $250 forward $106 $-1 #
vertex $-1 $172 $251 #
vertex $-1 $112 $252 #
straight-curve $-1 58.187810907315296 -10.326222724269897 4.0031305631753185 0 1 0 I I #
coedge $-1 $178 $178 $-1 $253 reversed $115 $-1 #
edge $-1 $254 0 $254 6.2831853071796004 $116 $255 forward 7 unknown #
vertex $-1 $119 $256 #
ellipse-curve $-1 57.062271021790878 -20.652445448539794 5.7363100540349006 0.83867057594974714 0 0.54463902268945019 0.2723195113447251 0 -0.41933528797487357 1 I I #
face $-1 $-1 $135 $18 $-1 $257 reversed single #
loop $-1 $-1 $198 $120 #
plane-surface $-1 0 25.366135054883383 0 0 -1 0 0 0 -1 forward_v I I I I #
coedge $-1 $258 $196 $199 $259 forward $121 $-1 #
coedge $-1 $202 $123 $124 $190 reversed $76 $-1 #
coedge $-1 $196 $258 $123 $188 reversed $121 $-1 #
edge $-1 $203 -7.4694895448945218 $260 7.4694895448945218 $187 $261 forward 7 unknown #
coedge $-1 $125 $124 $258 $262 forward $49 $-1 #
edge $-1 $194 -58.187810907315288 $260 58.187810907315288 $186 $263 forward 7 unknown #
coedge $-1 $199 $198 $125 $192 reversed $183 $-1 #
edge $-1 $264 -58.187810907315288 $193 58.187810907315288 $191 $265 forward 7 unknown #
vertex $-1 $127 $266 #
vertex $-1 $205 $267 #
straight-curve $-1 58.187810907315288 0 -7.4694895448945218 0 -1 0 I I #
coedge $-1 $185 $187 $128 $197 reversed $121 $-1 #
edge $-1 $200 -25.366135054883383 $203 25.366135054883383 $196 $268 forward 7 unknown #
coedge $-1 $191 $129 $134 $206 forward $183 $-1 #
coedge $-1 $129 $191 $185 $259 reversed $183 $-1 #
vertex $-1 $130 $269 #
straight-curve $-1 0 25.366135054883383 7.4694895448945218 -1 0 0 I I #
coedge $-1 $131 $186 $133 $205 reversed $76 $-1 #
vertex $-1 $197 $270 #
straight-curve $-1 0 -25.366135054883383 7.4694895448945218 1 0 0 I I #
edge $-1 $136 -7.4694895448945218 $194 7.4694895448945218 $133 $271 forward 7 unknown #
edge $-1 $137 -7.4694895448945218 $193 7.4694895448945218 $134 $272 forward 7 unknown #
point $-1 58.187810907315288 -25.366135054883383 7.4694895448945218 #
point $-1 58.187810907315288 25.366135054883383 7.4694895448945218 #
plane-surface $-1 0 0 7.4694895448945218 0 0 1 1 0 0 forward_v I I I I #
coedge $-1 $220 $219 $212 $273 forward $140 $-1 #
coedge $-1 $212 $142 $144 $216 reversed $84 $-1 #
coedge $-1 $142 $211 $210 $273 reversed $84 $-1 #
coedge $-1 $150 $145 $142 $214 forward $151 $-1 #
edge $-1 $217 -12.701621681256654 $274 -1.7409368968274563 $213 $275 forward 7 unknown #
coedge $-1 $144 $143 $220 $276 reversed $53 $-1 #
edge $-1 $277 -8.3790584163743152e-015 $217 12.924602850492674 $211 $278 forward 7 unknown #
vertex $-1 $146 $279 #
straight-curve $-1 -47.227126122886091 -6.7686490104162376 7.4694895448945218 0 1 0 I I #
coedge $-1 $210 $147 $150 $224 reversed $140 $-1 #
coedge $-1 $147 $210 $215 $276 forward $140 $-1 #
vertex $-1 $148 $280 #
straight-curve $-1 -58.187810907315288 -19.699203767698261 49.656308715760559 0 0 1 I I #
straight-curve $-1 -58.187810907315281 -19.699203767698261 0.62049342142169905 -0.84804809178421925 0 -0.52991927123019833 I I #
edge $-1 $274 7.3753922739666891 $152 19.699203767698261 $219 $281 forward 7 unknown #
point $-1 -58.187810907315288 -19.699203767698261 7.4694895448945218 #
point $-1 -47.227126122886091 -19.699203767698261 7.4694895448945218 #
edge $-1 $282 1 $282 0 $155 $-1 forward 7 unknown #
vertex $-1 $156 $283 #
ellipse-curve $-1 -50.394928114372668 -16.178114769489241 0.34415329801615002 -0.52991927123019833 0 0.84804809178421925 1.2720721376763289 0 0.79487890684529749 1 I I #
point $-1 -51.435396377424368 -16.178114769489241 4.8398703900034121 #
edge $-1 $284 1 $284 0 $159 $-1 forward 7 unknown #
vertex $-1 $160 $285 #
ellipse-curve $-1 -50.394928114372668 -10.896481272175709 0.34415329801615002 -0.52991927123019833 0 0.84804809178421925 1.2720721376763289 0 0.79487890684529749 1 I I #
point $-1 -51.435396377424368 -10.896481272175709 4.8398703900034121 #
loop $-1 $-1 $171 $163 #
plane-surface $-1 0 -25.366135054883383 0 0 1 0 0 0 1 forward_v I I I I #
coedge $-1 $242 $286 $167 $238 forward $164 $-1 #
edge $-1 $240 -11.984853031763272 $248 -9.7337732607144503 $237 $287 forward 7 unknown #
coedge $-1 $174 $168 $286 $288 reversed $106 $-1 #
vertex $-1 $169 $289 #
straight-curve $-1 58.187810907315288 -15.938755842196207 82.493322633479465 0 0 1 I I #
coedge $-1 $290 $237 $170 $243 forward $164 $-1 #
edge $-1 $248 5.6125331179263096 $246 15.039912330613483 $242 $291 forward 7 unknown #
coedge $-1 $245 $171 $174 $250 reversed $235 $-1 #
coedge $-1 $171 $244 $290 $292 reversed $235 $-1 #
vertex $-1 $292 $293 #
straight-curve $-1 18.780545248814818 -25.366135054883383 64.685000222860026 0.54463902268945019 0 -0.83867057594974714 I I #
vertex $-1 $243 $294 #
straight-curve $-1 -5.1948940226821492 -15.938755842196207 101.60394033696147 0.54463902268945019 0 -0.83867057594974714 I I #
edge $-1 $295 -7.4694895448945218 $175 -4.0031305631753185 $174 $296 forward 7 unknown #
point $-1 58.187810907315288 -25.366135054883383 4.0031305631753185 #
point $-1 58.187810907315288 -15.938755842196207 4.0031305631753185 #
edge $-1 $297 1 $297 0 $178 $-1 forward 7 unknown #
vertex $-1 $179 $298 #
ellipse-curve $-1 56.223600445841114 -20.652445448539794 5.1916710313454386 0.83867057594974714 0 0.54463902268945019 0.2723195113447251 0 -0.41933528797487357 1 I I #
point $-1 57.334590533135589 -20.652445448539794 5.3169747660600155 #
plane-surface $-1 58.187810907315288 0 0 -1 0 0 0 0 1 forward_v I I I I #
coedge $-1 $187 $185 $189 $262 reversed $121 $-1 #
edge $-1 $200 -7.4694895448945218 $264 7.4694895448945218 $199 $299 forward 7 unknown #
vertex $-1 $262 $300 #
straight-curve $-1 -58.187810907315288 -25.366135054883383 0 0 0 -1 I I #
edge $-1 $260 -25.366135054883383 $264 25.366135054883383 $258 $301 forward 7 unknown #
straight-curve $-1 0 -25.366135054883383 -7.4694895448945218 -1 0 0 I I #
vertex $-1 $192 $302 #
straight-curve $-1 0 25.366135054883383 -7.4694895448945218 1 0 0 I I #
point $-1 58.187810907315288 25.366135054883383 -7.4694895448945218 #
point $-1 58.187810907315288 -25.366135054883383 -7.4694895448945218 #
straight-curve $-1 -58.187810907315288 0 7.4694895448945218 0 -1 0 I I #
point $-1 -58.187810907315288 25.366135054883383 7.4694895448945218 #
point $-1 -58.187810907315288 -25.366135054883383 7.4694895448945218 #
straight-curve $-1 58.187810907315288 -25.366135054883383 0 0 0 -1 I I #
straight-curve $-1 58.187810907315288 25.366135054883383 0 0 0 -1 I I #
edge $-1 $274 42.186819170866038 $277 49.035815294338867 $210 $303 forward 7 unknown #
vertex $-1 $224 $304 #
straight-curve $-1 -59.928747804142745 -7.3753922739666891 7.4694895448945218 -1 0 0 I I #
edge $-1 $277 0.60674326355045149 $221 12.930554757282025 $220 $305 forward 7 unknown #
vertex $-1 $276 $306 #
straight-curve $-1 -58.187810907315281 -7.3753922739666891 0.62049342142169905 0.84804809178421925 0 0.52991927123019833 I I #
point $-1 -47.227126122886091 -7.3753922739666891 7.4694895448945218 #
point $-1 -58.187810907315288 -19.699203767698261 0.62049342142169461 #
straight-curve $-1 -58.187810907315288 0 7.4694895448945218 0 -1 0 I I #
vertex $-1 $227 $307 #
point $-1 -49.122855976696336 -16.178114769489241 1.1390322048614476 #
vertex $-1 $231 $308 #
point $-1 -49.122855976696336 -10.896481272175709 1.1390322048614476 #
coedge $-1 $237 $290 $239 $288 forward $164 $-1 #
straight-curve $-1 46.202957875552016 -15.938755842196207 7.4694895448945289 -1 0 0 I I #
edge $-1 $295 -25.366135054883383 $240 -15.938755842196207 $239 $309 forward 7 unknown #
point $-1 58.187810907315288 -15.938755842196207 7.4694895448945218 #
coedge $-1 $286 $242 $245 $292 forward $164 $-1 #
straight-curve $-1 55.936731136266467 -10.326222724269897 7.4694895448945218 0 -1 0 I I #
edge $-1 $246 55.936731136266467 $295 58.187810907315288 $245 $310 forward 7 unknown #
point $-1 55.936731136266467 -25.366135054883379 7.4694895448945147 #
point $-1 55.936731136266467 -15.938755842196207 7.4694895448945147 #
vertex $-1 $288 $311 #
straight-curve $-1 58.187810907315288 -25.366135054883383 0 0 0 -1 I I #
vertex $-1 $253 $312 #
point $-1 56.495919957185841 -20.652445448539794 4.7723357433705651 #
straight-curve $-1 -58.187810907315288 25.366135054883383 0 0 0 -1 I I #
point $-1 -58.187810907315288 -25.366135054883383 -7.4694895448945218 #
straight-curve $-1 -58.187810907315288 0 -7.4694895448945218 0 1 0 I I #
point $-1 -58.187810907315288 25.366135054883383 -7.4694895448945218 #
straight-curve $-1 -58.187810907315288 -7.3753922739666891 49.656308715760559 0 0 -1 I I #
point $-1 -58.187810907315288 -7.3753922739666891 7.4694895448945218 #
straight-curve $-1 -58.187810907315288 -6.7686490104162376 0.62049342142169339 0 -1 0 I I #
point $-1 -58.187810907315288 -7.3753922739666891 0.62049342142169461 #
point $-1 -49.60004920752737 -16.178114769489241 -0.92791883966017885 #
point $-1 -49.60004920752737 -10.896481272175709 -0.92791883966017885 #
straight-curve $-1 58.187810907315288 0 7.4694895448945218 0 1 0 I I #
straight-curve $-1 0 -25.366135054883383 7.4694895448945218 1 0 0 I I #
point $-1 58.187810907315288 -25.366135054883383 7.4694895448945218 #
point $-1 55.80426515786624 -20.652445448539794 4.9193515200007143 #
End-of-ACIS-data 