500 0 4 0           
7 Unknown 11 ACIS 5.0 NT 24 Fri Mar 26 19:25:39 1999 
-1 9.9999999999999995e-007 1e-010 
body $-1 $4 $-1 $5 #
body $-1 $6 $-1 $7 #
body $-1 $8 $-1 $9 #
body $-1 $10 $-1 $11 #
lump $-1 $-1 $12 $0 #
transform $-1 1 0 0 0 1 0 0 0 1 40.371105075228122 25.278789979872599 6.3698816829679883 1 rotate no_reflect no_shear #
lump $-1 $-1 $13 $1 #
transform $-1 1 0 0 0 1 0 0 0 1 40.371105075228122 25.278789979872599 6.3698816829679883 1 rotate no_reflect no_shear #
lump $-1 $-1 $14 $2 #
transform $-1 1 0 0 0 1 0 0 0 1 40.371105075228122 25.278789979872599 6.3698816829679883 1 rotate no_reflect no_shear #
lump $-1 $-1 $15 $3 #
transform $-1 1 0 0 0 1 0 0 0 1 40.371105075228122 25.278789979872599 6.3698816829679883 1 rotate no_reflect no_shear #
shell $-1 $-1 $-1 $16 $-1 $4 #
shell $-1 $-1 $-1 $17 $-1 $6 #
shell $-1 $-1 $-1 $18 $-1 $8 #
shell $-1 $-1 $-1 $19 $-1 $10 #
face $-1 $20 $21 $12 $-1 $22 forward single #
face $-1 $23 $24 $13 $-1 $25 forward single #
face $-1 $26 $27 $14 $-1 $28 reversed single #
face $-1 $29 $30 $15 $-1 $31 forward single #
face $-1 $32 $33 $12 $-1 $34 reversed single #
loop $-1 $-1 $35 $16 #
plane-surface $-1 0 0 6.3698816829679883 0 0 1 1 0 0 forward_v I I I I #
face $-1 $36 $37 $13 $-1 $38 reversed single #
loop $-1 $-1 $39 $17 #
plane-surface $-1 0 -25.278789979872599 0 0 1 0 0 0 1 forward_v I I I I #
face $-1 $40 $41 $14 $-1 $42 reversed single #
loop $-1 $-1 $43 $18 #
plane-surface $-1 -109.58068803522292 13.817117909288317 43.531218324940042 0 1 0 -0.85716730853699208 0 0.51503806187062418 forward_v I I I I #
face $-1 $44 $45 $15 $-1 $46 forward single #
loop $-1 $47 $48 $19 #
cone-surface $-1 -37.713474233319552 19.547953944580463 3.3596300913865509 0.85716730853699208 0 -0.51503806187062418 0.51503806187062418 0 0.85716730853699208 1 I I 0 1 1 forward I I I I #
face $-1 $49 $50 $12 $-1 $51 reversed single #
loop $-1 $-1 $52 $20 #
plane-surface $-1 0 0 -6.3698816829679883 0 0 1 1 0 0 forward_v I I I I #
coedge $-1 $53 $54 $55 $56 forward $21 $-1 #
face $-1 $57 $58 $13 $-1 $59 reversed single #
loop $-1 $-1 $60 $23 #
plane-surface $-1 0 0 -6.3698816829679883 0 0 1 1 0 0 forward_v I I I I #
coedge $-1 $61 $62 $63 $64 forward $24 $-1 #
face $-1 $65 $66 $14 $-1 $67 reversed single #
loop $-1 $-1 $68 $26 #
plane-surface $-1 -40.371105075228144 19.547953944580456 1.9459068978984178 -0.85716730853699208 0 0.51503806187062418 0.51503806187062418 0 0.85716730853699208 forward_v I I I I #
coedge $-1 $69 $70 $71 $72 reversed $27 $-1 #
face $-1 $-1 $73 $15 $-1 $74 forward single #
loop $-1 $75 $76 $29 #
cone-surface $-1 -35.956355805304305 19.547953944580463 2.3038468614045913 0.85716730853699208 0 -0.51503806187062418 0.25751903093531209 0 0.42858365426849604 1 I I -0.70710678118654746 0.70710678118654746 0.5 forward I I I I #
loop $-1 $-1 $77 $19 #
coedge $-1 $48 $48 $78 $79 reversed $30 $-1 #
face $-1 $80 $81 $12 $-1 $82 reversed single #
loop $-1 $-1 $83 $32 #
plane-surface $-1 0 -25.278789979872599 0 0 1 0 0 0 1 forward_v I I I I #
coedge $-1 $84 $85 $86 $87 forward $33 $-1 #
coedge $-1 $88 $35 $89 $90 forward $21 $-1 #
coedge $-1 $35 $88 $91 $92 forward $21 $-1 #
coedge $-1 $93 $94 $35 $56 reversed $95 $-1 #
edge $-1 $96 -25.278789979872599 $97 25.278789979872599 $55 $98 forward 7 unknown #
face $-1 $99 $100 $13 $-1 $101 forward single #
loop $-1 $-1 $102 $36 #
plane-surface $-1 40.371105075228122 0 0 -1 0 0 0 0 1 forward_v I I I I #
coedge $-1 $103 $104 $105 $106 forward $37 $-1 #
coedge $-1 $105 $39 $102 $107 reversed $24 $-1 #
coedge $-1 $39 $105 $108 $109 reversed $24 $-1 #
coedge $-1 $110 $111 $39 $64 reversed $100 $-1 #
edge $-1 $112 -40.371105075228122 $113 40.371105075228122 $63 $114 forward 7 unknown #
face $-1 $115 $116 $14 $-1 $117 reversed single #
loop $-1 $-1 $118 $40 #
plane-surface $-1 0 25.278789979872599 0 0 -1 0 0 0 -1 forward_v I I I I #
coedge $-1 $119 $120 $121 $122 reversed $41 $-1 #
coedge $-1 $70 $43 $123 $124 reversed $27 $-1 #
coedge $-1 $43 $69 $119 $125 reversed $27 $-1 #
coedge $-1 $121 $126 $43 $72 forward $127 $-1 #
edge $-1 $128 14.419238942383338 $129 17.077431078706972 $71 $130 forward 7 unknown #
loop $-1 $-1 $78 $44 #
plane-surface $-1 -40.371105075228144 19.547953944580456 1.9459068978984178 -0.85716730853699208 0 0.51503806187062418 0.51503806187062418 0 0.85716730853699208 forward_v I I I I #
loop $-1 $-1 $131 $29 #
coedge $-1 $76 $76 $77 $132 reversed $45 $-1 #
coedge $-1 $77 $77 $76 $132 forward $47 $-1 #
coedge $-1 $78 $78 $48 $79 forward $73 $-1 #
edge $-1 $133 0 $133 6.2831853071796004 $78 $134 forward 7 unknown #
face $-1 $135 $136 $12 $-1 $137 reversed single #
loop $-1 $-1 $138 $49 #
plane-surface $-1 -40.371105075228122 0 0 1 0 0 0 0 -1 forward_v I I I I #
coedge $-1 $139 $91 $140 $141 forward $50 $-1 #
coedge $-1 $142 $52 $139 $143 forward $33 $-1 #
coedge $-1 $52 $142 $144 $145 forward $33 $-1 #
coedge $-1 $94 $93 $52 $87 reversed $95 $-1 #
edge $-1 $146 -25.278789979872599 $147 25.278789979872599 $86 $148 forward 7 unknown #
coedge $-1 $54 $53 $149 $150 forward $21 $-1 #
coedge $-1 $151 $152 $53 $90 reversed $136 $-1 #
edge $-1 $97 -40.371105075228122 $153 40.371105075228122 $89 $154 forward 7 unknown #
coedge $-1 $83 $155 $54 $92 reversed $50 $-1 #
edge $-1 $156 -40.371105075228122 $96 40.371105075228122 $91 $157 forward 7 unknown #
coedge $-1 $86 $55 $155 $158 forward $95 $-1 #
coedge $-1 $55 $86 $151 $159 reversed $95 $-1 #
loop $-1 $-1 $93 $135 #
vertex $-1 $56 $160 #
vertex $-1 $56 $161 #
straight-curve $-1 40.371105075228122 0 6.3698816829679883 0 1 0 I I #
face $-1 $162 $163 $13 $-1 $164 reversed single #
loop $-1 $-1 $111 $57 #
plane-surface $-1 0 -28.393679035582569 -2.6051838254887718 0 0 1 1 0 0 forward_v I I I I #
coedge $-1 $165 $166 $61 $107 forward $58 $-1 #
coedge $-1 $167 $60 $166 $168 forward $37 $-1 #
coedge $-1 $60 $167 $169 $170 forward $37 $-1 #
coedge $-1 $62 $61 $60 $106 reversed $24 $-1 #
edge $-1 $171 -40.371105075228122 $172 40.371105075228122 $60 $173 forward 7 unknown #
edge $-1 $172 -6.3698816829679883 $113 -2.6051838254887718 $102 $174 forward 7 unknown #
coedge $-1 $169 $175 $62 $109 forward $176 $-1 #
edge $-1 $112 2.6051838254887718 $171 6.3698816829679883 $108 $177 forward 7 unknown #
coedge $-1 $178 $63 $175 $179 forward $100 $-1 #
coedge $-1 $63 $178 $165 $180 forward $100 $-1 #
vertex $-1 $109 $181 #
vertex $-1 $180 $182 #
straight-curve $-1 0 -25.278789979872599 -2.6051838254887718 1 0 0 I I #
face $-1 $-1 $127 $14 $-1 $183 forward single #
loop $-1 $-1 $184 $65 #
plane-surface $-1 -40.371105075228122 0 0 1 0 0 0 0 -1 forward_v I I I I #
coedge $-1 $185 $186 $120 $187 forward $66 $-1 #
coedge $-1 $188 $68 $70 $125 forward $41 $-1 #
coedge $-1 $68 $188 $118 $187 reversed $41 $-1 #
coedge $-1 $189 $71 $68 $122 forward $127 $-1 #
edge $-1 $129 4.0431409369980891 $190 15.504813007582367 $121 $191 forward 7 unknown #
coedge $-1 $192 $184 $69 $124 forward $116 $-1 #
edge $-1 $193 -19.819702264571568 $128 -15.395727479502032 $123 $194 forward 7 unknown #
edge $-1 $129 -5.1611566855254738 $193 -4.1431396825663817e-014 $70 $195 forward 7 unknown #
coedge $-1 $71 $189 $192 $196 forward $127 $-1 #
loop $-1 $-1 $121 $115 #
vertex $-1 $124 $197 #
vertex $-1 $72 $198 #
straight-curve $-1 -54.79034401761146 13.817117909288317 6.3698816829679892 1 0 0 I I #
coedge $-1 $131 $131 $-1 $199 reversed $75 $-1 #
edge $-1 $200 0 $200 6.2831853071796004 $76 $201 forward 7 unknown #
vertex $-1 $79 $202 #
ellipse-curve $-1 -39.042009007066312 19.547953944580463 4.1578942904332079 -0.85716730853699208 0 0.51503806187062418 0.51503806187062418 0 0.85716730853699208 1 I I #
face $-1 $-1 $95 $12 $-1 $203 reversed single #
loop $-1 $-1 $151 $80 #
plane-surface $-1 0 25.278789979872599 0 0 -1 0 0 0 -1 forward_v I I I I #
coedge $-1 $204 $149 $152 $205 forward $81 $-1 #
coedge $-1 $155 $83 $84 $143 reversed $50 $-1 #
coedge $-1 $149 $204 $83 $141 reversed $81 $-1 #
edge $-1 $156 -6.3698816829679883 $206 6.3698816829679883 $140 $207 forward 7 unknown #
coedge $-1 $85 $84 $204 $208 forward $33 $-1 #
edge $-1 $147 -40.371105075228122 $206 40.371105075228122 $139 $209 forward 7 unknown #
coedge $-1 $152 $151 $85 $145 reversed $136 $-1 #
edge $-1 $210 -40.371105075228122 $146 40.371105075228122 $144 $211 forward 7 unknown #
vertex $-1 $87 $212 #
vertex $-1 $158 $213 #
straight-curve $-1 40.371105075228122 0 -6.3698816829679883 0 -1 0 I I #
coedge $-1 $138 $140 $88 $150 reversed $81 $-1 #
edge $-1 $153 -25.278789979872599 $156 25.278789979872599 $149 $214 forward 7 unknown #
coedge $-1 $144 $89 $94 $159 forward $136 $-1 #
coedge $-1 $89 $144 $138 $205 reversed $136 $-1 #
vertex $-1 $90 $215 #
straight-curve $-1 0 25.278789979872599 6.3698816829679883 -1 0 0 I I #
coedge $-1 $91 $139 $93 $158 reversed $50 $-1 #
vertex $-1 $150 $216 #
straight-curve $-1 0 -25.278789979872599 6.3698816829679883 1 0 0 I I #
edge $-1 $96 -6.3698816829679883 $147 6.3698816829679883 $93 $217 forward 7 unknown #
edge $-1 $97 -6.3698816829679883 $146 6.3698816829679883 $94 $218 forward 7 unknown #
point $-1 40.371105075228122 -25.278789979872599 6.3698816829679883 #
point $-1 40.371105075228122 25.278789979872599 6.3698816829679883 #
face $-1 $-1 $176 $13 $-1 $219 reversed single #
loop $-1 $-1 $220 $99 #
plane-surface $-1 0 -31.508568091292538 -4.48753275422838 0 1 0 0 0 1 forward_v I I I I #
coedge $-1 $221 $102 $111 $180 reversed $58 $-1 #
coedge $-1 $102 $221 $103 $168 reversed $58 $-1 #
coedge $-1 $104 $103 $222 $223 forward $37 $-1 #
edge $-1 $172 25.278789979872599 $224 31.508568091292538 $166 $225 forward 7 unknown #
coedge $-1 $226 $108 $104 $170 reversed $176 $-1 #
edge $-1 $227 -31.508568091292538 $171 -25.278789979872599 $169 $228 forward 7 unknown #
vertex $-1 $109 $229 #
vertex $-1 $168 $230 #
straight-curve $-1 0 -25.278789979872599 -6.3698816829679883 1 0 0 I I #
straight-curve $-1 40.371105075228122 -25.278789979872599 0 0 0 1 I I #
coedge $-1 $108 $226 $110 $179 reversed $176 $-1 #
loop $-1 $-1 $108 $162 #
straight-curve $-1 -40.371105075228122 -25.278789979872599 0 0 0 -1 I I #
coedge $-1 $111 $110 $231 $232 forward $100 $-1 #
edge $-1 $112 -3.1148890557099698 $233 3.1148890557099698 $175 $234 forward 7 unknown #
edge $-1 $235 -3.1148890557099698 $113 3.1148890557099698 $165 $236 forward 7 unknown #
point $-1 -40.371105075228122 -25.278789979872599 -2.6051838254887718 #
point $-1 40.371105075228122 -25.278789979872599 -2.6051838254887718 #
plane-surface $-1 0 0 6.3698816829679883 0 0 1 1 0 0 forward_v I I I I #
coedge $-1 $123 $237 $188 $238 forward $116 $-1 #
coedge $-1 $186 $118 $237 $239 reversed $66 $-1 #
coedge $-1 $118 $185 $189 $240 reversed $66 $-1 #
edge $-1 $190 4.4011872820673643 $241 9.5623439675927955 $118 $242 forward 7 unknown #
coedge $-1 $120 $119 $184 $238 reversed $41 $-1 #
coedge $-1 $126 $121 $186 $240 forward $127 $-1 #
vertex $-1 $240 $243 #
straight-curve $-1 -37.712912938904495 9.7739769722902281 6.3698816829679883 0 1 0 I I #
coedge $-1 $237 $123 $126 $196 reversed $116 $-1 #
vertex $-1 $124 $244 #
straight-curve $-1 -40.371105075228122 13.817117909288317 21.765609162470021 0 0 1 I I #
straight-curve $-1 -40.371105075228144 13.817117909288317 1.9459068978984178 -0.51503806187062418 0 -0.85716730853699208 I I #
edge $-1 $245 -25.278789979872599 $128 -13.817117909288317 $192 $246 forward 7 unknown #
point $-1 -40.371105075228122 13.817117909288317 6.3698816829679883 #
point $-1 -37.712912938904488 13.817117909288317 6.3698816829679883 #
edge $-1 $247 1 $247 0 $131 $-1 forward 7 unknown #
vertex $-1 $132 $248 #
ellipse-curve $-1 -36.384939459572799 19.547953944580463 2.5613658923399032 -0.85716730853699208 0 0.51503806187062418 0.51503806187062418 0 0.85716730853699208 1 I I #
point $-1 -38.526970945195671 19.547953944580463 5.0150615989701919 #
plane-surface $-1 40.371105075228122 0 0 -1 0 0 0 0 1 forward_v I I I I #
coedge $-1 $140 $138 $142 $208 reversed $81 $-1 #
edge $-1 $153 -6.3698816829679883 $210 6.3698816829679883 $152 $249 forward 7 unknown #
vertex $-1 $208 $250 #
straight-curve $-1 -40.371105075228122 -25.278789979872599 0 0 0 -1 I I #
edge $-1 $206 -25.278789979872599 $210 25.278789979872599 $204 $251 forward 7 unknown #
straight-curve $-1 0 -25.278789979872599 -6.3698816829679883 -1 0 0 I I #
vertex $-1 $145 $252 #
straight-curve $-1 0 25.278789979872599 -6.3698816829679883 1 0 0 I I #
point $-1 40.371105075228122 25.278789979872599 -6.3698816829679883 #
point $-1 40.371105075228122 -25.278789979872599 -6.3698816829679883 #
straight-curve $-1 -40.371105075228122 0 6.3698816829679883 0 -1 0 I I #
point $-1 -40.371105075228122 25.278789979872599 6.3698816829679883 #
point $-1 -40.371105075228122 -25.278789979872599 6.3698816829679883 #
straight-curve $-1 40.371105075228122 -25.278789979872599 0 0 0 -1 I I #
straight-curve $-1 40.371105075228122 25.278789979872599 0 0 0 -1 I I #
plane-surface $-1 -40.371105075228122 0 0 1 0 0 0 0 -1 forward_v I I I I #
coedge $-1 $222 $231 $226 $253 forward $163 $-1 #
coedge $-1 $166 $165 $254 $255 forward $58 $-1 #
coedge $-1 $254 $220 $167 $223 reversed $163 $-1 #
edge $-1 $224 -40.371105075228122 $227 40.371105075228122 $222 $256 forward 7 unknown #
vertex $-1 $255 $257 #
straight-curve $-1 40.371105075228122 0 -6.3698816829679883 0 -1 0 I I #
coedge $-1 $175 $169 $220 $253 reversed $176 $-1 #
vertex $-1 $170 $258 #
straight-curve $-1 -40.371105075228122 0 -6.3698816829679883 0 1 0 I I #
point $-1 -40.371105075228122 -25.278789979872599 -6.3698816829679883 #
point $-1 40.371105075228122 -25.278789979872599 -6.3698816829679883 #
coedge $-1 $220 $254 $178 $232 reversed $163 $-1 #
edge $-1 $233 -40.371105075228122 $235 40.371105075228122 $231 $259 forward 7 unknown #
vertex $-1 $179 $260 #
straight-curve $-1 -40.371105075228122 -28.393679035582569 -2.6051838254887718 0 -1 0 I I #
vertex $-1 $180 $261 #
straight-curve $-1 40.371105075228122 -28.393679035582569 -2.6051838254887718 0 1 0 I I #
coedge $-1 $184 $192 $185 $239 forward $116 $-1 #
edge $-1 $241 -15.504813007582367 $193 -4.0431409369980891 $184 $262 forward 7 unknown #
edge $-1 $245 -6.3698816829679883 $241 -1.9459068978984533 $185 $263 forward 7 unknown #
edge $-1 $190 37.712912938904488 $245 40.371105075228122 $186 $264 forward 7 unknown #
vertex $-1 $187 $265 #
straight-curve $-1 -35.44613397121887 25.278789979872599 10.142435539904909 -0.51503806187062429 0 -0.85716730853699219 I I #
point $-1 -37.712912938904488 25.278789979872595 6.3698816829679883 #
point $-1 -40.371105075228122 13.817117909288317 1.9459068978984533 #
vertex $-1 $240 $266 #
straight-curve $-1 -40.371105075228122 0 6.3698816829679883 0 -1 0 I I #
vertex $-1 $199 $267 #
point $-1 -35.869901397702179 19.547953944580463 3.4185332008768956 #
straight-curve $-1 -40.371105075228122 25.278789979872599 0 0 0 -1 I I #
point $-1 -40.371105075228122 -25.278789979872599 -6.3698816829679883 #
straight-curve $-1 -40.371105075228122 0 -6.3698816829679883 0 1 0 I I #
point $-1 -40.371105075228122 25.278789979872599 -6.3698816829679883 #
edge $-1 $233 -1.8823489287396082 $227 1.8823489287396082 $226 $268 forward 7 unknown #
coedge $-1 $231 $222 $221 $255 reversed $163 $-1 #
edge $-1 $235 -1.8823489287396082 $224 1.8823489287396082 $221 $269 forward 7 unknown #
straight-curve $-1 0 -31.508568091292538 -6.3698816829679883 -1 0 0 I I #
point $-1 40.371105075228122 -31.508568091292538 -6.3698816829679883 #
point $-1 -40.371105075228122 -31.508568091292538 -6.3698816829679883 #
straight-curve $-1 0 -31.508568091292538 -2.6051838254887718 1 0 0 I I #
point $-1 -40.371105075228122 -31.508568091292538 -2.6051838254887718 #
point $-1 40.371105075228122 -31.508568091292538 -2.6051838254887718 #
straight-curve $-1 -40.371105075228122 9.7739769722902281 1.9459068978984528 0 -1 0 I I #
straight-curve $-1 -40.371105075228122 25.278789979872599 0 0 0 -1 I I #
straight-curve $-1 0 25.278789979872599 6.3698816829679883 -1 0 0 I I #
point $-1 -40.371105075228122 25.278789979872595 1.9459068978984533 #
point $-1 -40.371105075228122 25.278789979872599 6.3698816829679883 #
point $-1 -35.527772151035812 19.547953944580463 2.0463278304692794 #
straight-curve $-1 -40.371105075228122 -31.508568091292538 -4.48753275422838 0 0 -1 I I #
straight-curve $-1 40.371105075228122 -31.508568091292538 -4.48753275422838 0 0 -1 I I #
End-of-ACIS-data 