500 0 11 0           
7 Unknown 11 ACIS 5.0 NT 24 Thu Mar 25 23:24:44 1999 
-1 9.9999999999999995e-007 1e-010 
body $-1 $11 $-1 $12 #
body $-1 $13 $-1 $14 #
body $-1 $15 $-1 $16 #
body $-1 $17 $-1 $18 #
body $-1 $19 $-1 $20 #
body $-1 $21 $-1 $22 #
body $-1 $23 $-1 $24 #
body $-1 $25 $-1 $26 #
body $-1 $27 $-1 $28 #
body $-1 $29 $-1 $30 #
body $-1 $31 $-1 $32 #
lump $-1 $-1 $33 $0 #
transform $-1 1 0 0 0 1 0 0 0 1 56.650898770104064 34.370378809771772 7.4814078134347417 1 rotate no_reflect no_shear #
lump $-1 $-1 $34 $1 #
transform $-1 1 0 0 0 1 0 0 0 1 56.650898770104064 34.370378809771772 7.4814078134347417 1 rotate no_reflect no_shear #
lump $-1 $-1 $35 $2 #
transform $-1 1 0 0 0 1 0 0 0 1 56.650898770104064 34.370378809771772 7.4814078134347417 1 rotate no_reflect no_shear #
lump $-1 $-1 $36 $3 #
transform $-1 1 0 0 0 1 0 0 0 1 56.650898770104064 34.370378809771772 7.4814078134347417 1 rotate no_reflect no_shear #
lump $-1 $-1 $37 $4 #
transform $-1 1 0 0 0 1 0 0 0 1 56.650898770104064 34.370378809771772 7.4814078134347417 1 rotate no_reflect no_shear #
lump $-1 $-1 $38 $5 #
transform $-1 1 0 0 0 1 0 0 0 1 56.650898770104064 34.370378809771772 7.4814078134347417 1 rotate no_reflect no_shear #
lump $-1 $-1 $39 $6 #
transform $-1 1 0 0 0 1 0 0 0 1 56.650898770104064 34.370378809771772 7.4814078134347417 1 rotate no_reflect no_shear #
lump $-1 $-1 $40 $7 #
transform $-1 1 0 0 0 1 0 0 0 1 56.650898770104064 34.370378809771772 7.4814078134347417 1 rotate no_reflect no_shear #
lump $-1 $-1 $41 $8 #
transform $-1 1 0 0 0 1 0 0 0 1 56.650898770104064 34.370378809771772 7.4814078134347417 1 rotate no_reflect no_shear #
lump $-1 $-1 $42 $9 #
transform $-1 1 0 0 0 1 0 0 0 1 56.650898770104064 34.370378809771772 7.4814078134347417 1 rotate no_reflect no_shear #
lump $-1 $-1 $43 $10 #
transform $-1 1 0 0 0 1 0 0 0 1 56.650898770104064 34.370378809771772 7.4814078134347417 1 rotate no_reflect no_shear #
shell $-1 $-1 $-1 $44 $-1 $11 #
shell $-1 $-1 $-1 $45 $-1 $13 #
shell $-1 $-1 $-1 $46 $-1 $15 #
shell $-1 $-1 $-1 $47 $-1 $17 #
shell $-1 $-1 $-1 $48 $-1 $19 #
shell $-1 $-1 $-1 $49 $-1 $21 #
shell $-1 $-1 $-1 $50 $-1 $23 #
shell $-1 $-1 $-1 $51 $-1 $25 #
shell $-1 $-1 $-1 $52 $-1 $27 #
shell $-1 $-1 $-1 $53 $-1 $29 #
shell $-1 $-1 $-1 $54 $-1 $31 #
face $-1 $55 $56 $33 $-1 $57 forward single #
face $-1 $58 $59 $34 $-1 $60 reversed single #
face $-1 $61 $62 $35 $-1 $63 forward single #
face $-1 $64 $65 $36 $-1 $66 forward single #
face $-1 $67 $68 $37 $-1 $69 reversed single #
face $-1 $70 $71 $38 $-1 $72 forward single #
face $-1 $73 $74 $39 $-1 $75 forward single #
face $-1 $76 $77 $40 $-1 $78 reversed single #
face $-1 $79 $80 $41 $-1 $81 forward single #
face $-1 $82 $83 $42 $-1 $84 forward single #
face $-1 $85 $86 $43 $-1 $87 forward single #
face $-1 $88 $89 $33 $-1 $90 reversed single #
loop $-1 $-1 $91 $44 #
plane-surface $-1 0 0 7.4814078134347417 0 0 1 1 0 0 forward_v I I I I #
face $-1 $92 $93 $34 $-1 $94 reversed single #
loop $-1 $-1 $95 $45 #
plane-surface $-1 -35.629528118679318 100.14018500530324 115.32439611445238 1 0 0 0 -0.87461971476443456 -0.48480960649040278 forward_v I I I I #
face $-1 $96 $97 $35 $-1 $98 forward single #
loop $-1 $99 $100 $46 #
cone-surface $-1 -30.001560215802936 30.857988968251625 3.0375293787667434 0 -0.87461971476443456 -0.48480960649040278 2 0 0 1 I I 0 1 2 forward I I I I #
face $-1 $101 $102 $36 $-1 $103 forward single #
loop $-1 $104 $105 $47 #
cone-surface $-1 -21.559608361488358 30.857988968251625 3.0375293787667434 0 -0.87461971476443456 -0.48480960649040278 2 0 0 1 I I 0 1 2 forward I I I I #
face $-1 $106 $107 $37 $-1 $108 reversed single #
loop $-1 $-1 $109 $48 #
plane-surface $-1 15.931640458611971 100.14018500530324 115.32439611445238 1 0 0 0 -0.87461971476443456 -0.48480960649040278 forward_v I I I I #
face $-1 $110 $111 $38 $-1 $112 forward single #
loop $-1 $113 $114 $49 #
cone-surface $-1 21.559608361488358 30.857988968251625 3.0375293787667434 0 -0.87461971476443456 -0.48480960649040278 2 0 0 1 I I 0 1 2 forward I I I I #
face $-1 $115 $116 $39 $-1 $117 forward single #
loop $-1 $118 $119 $50 #
cone-surface $-1 30.00156021580294 30.857988968251625 3.0375293787667434 0 -0.87461971476443456 -0.48480960649040278 2 0 0 1 I I 0 1 2 forward I I I I #
face $-1 $120 $121 $40 $-1 $122 reversed single #
loop $-1 $-1 $123 $51 #
plane-surface $-1 -23.81042444721437 -102.557103582834 91.158905785140377 -1 0 0 0 -0.6018150307709319 0.79863550430605224 forward_v I I I I #
face $-1 $124 $125 $41 $-1 $126 forward single #
loop $-1 $127 $128 $52 #
cone-surface $-1 -50.082803905526127 -28.380085377088268 2.1231371000014039 0 0.6018150307709319 -0.79863550430605224 2.5 0 0 1 I I 0 1 2.5 forward I I I I #
face $-1 $129 $130 $42 $-1 $131 forward single #
loop $-1 $132 $133 $53 #
cone-surface $-1 -40.230661608659219 -28.380085377088268 2.1231371000014039 0 0.6018150307709319 -0.79863550430605224 2.5 0 0 1 I I 0 1 2.5 forward I I I I #
face $-1 $134 $135 $43 $-1 $136 forward single #
loop $-1 $137 $138 $54 #
cone-surface $-1 -30.378519311792306 -28.380085377088268 2.1231371000014039 0 0.6018150307709319 -0.79863550430605224 2.5 0 0 1 I I 0 1 2.5 forward I I I I #
face $-1 $139 $140 $33 $-1 $141 reversed single #
loop $-1 $-1 $142 $55 #
plane-surface $-1 0 0 -7.4814078134347417 0 0 1 1 0 0 forward_v I I I I #
coedge $-1 $143 $144 $145 $146 forward $56 $-1 #
face $-1 $147 $148 $34 $-1 $149 reversed single #
loop $-1 $-1 $150 $58 #
plane-surface $-1 -25.780584288645649 1.0441991583886931 60.394596234328795 0 0.87461971476443456 0.48480960649040278 1 0 0 forward_v I I I I #
coedge $-1 $151 $152 $153 $154 reversed $59 $-1 #
face $-1 $-1 $155 $35 $-1 $156 forward single #
loop $-1 $157 $158 $61 #
cone-surface $-1 -30.001560215802936 28.468940140153968 1.7132580381094664 0 -0.87461971476443456 -0.48480960649040278 1 0 0 1 I I -0.70710678118654746 0.70710678118654746 1 forward I I I I #
loop $-1 $-1 $159 $46 #
coedge $-1 $100 $100 $160 $161 reversed $62 $-1 #
face $-1 $-1 $162 $36 $-1 $163 forward single #
loop $-1 $164 $165 $64 #
cone-surface $-1 -21.559608361488358 28.468940140153968 1.7132580381094664 0 -0.87461971476443456 -0.48480960649040278 1 0 0 1 I I -0.70710678118654746 0.70710678118654746 1 forward I I I I #
loop $-1 $-1 $166 $47 #
coedge $-1 $105 $105 $167 $168 reversed $65 $-1 #
face $-1 $169 $170 $37 $-1 $171 reversed single #
loop $-1 $-1 $172 $67 #
plane-surface $-1 25.780584288645642 1.0441991583886931 60.394596234328795 0 0.87461971476443456 0.48480960649040278 1 0 0 forward_v I I I I #
coedge $-1 $173 $174 $175 $176 reversed $68 $-1 #
face $-1 $-1 $177 $38 $-1 $178 forward single #
loop $-1 $179 $180 $70 #
cone-surface $-1 21.559608361488358 28.468940140153968 1.7132580381094664 0 -0.87461971476443456 -0.48480960649040278 1 0 0 1 I I -0.70710678118654746 0.70710678118654746 1 forward I I I I #
loop $-1 $-1 $181 $49 #
coedge $-1 $114 $114 $182 $183 reversed $71 $-1 #
face $-1 $-1 $184 $39 $-1 $185 forward single #
loop $-1 $186 $187 $73 #
cone-surface $-1 30.00156021580294 28.468940140153968 1.7132580381094664 0 -0.87461971476443456 -0.48480960649040278 1 0 0 1 I I -0.70710678118654746 0.70710678118654746 1 forward I I I I #
loop $-1 $-1 $188 $50 #
coedge $-1 $119 $119 $189 $190 reversed $74 $-1 #
face $-1 $191 $192 $40 $-1 $193 forward single #
loop $-1 $-1 $194 $76 #
plane-surface $-1 -40.230661608659219 -34.370378809771751 0.67206756783403421 0 -0.6018150307709319 0.79863550430605224 1 0 0 forward_v I I I I #
coedge $-1 $195 $196 $197 $198 reversed $77 $-1 #
face $-1 $-1 $199 $41 $-1 $200 forward single #
loop $-1 $201 $202 $79 #
cone-surface $-1 -50.082803905526127 -26.155672922049831 -0.82875787101415277 0 0.6018150307709319 -0.79863550430605224 1.25 0 0 1 I I -0.70710678118654746 0.70710678118654746 1.25 forward I I I I #
loop $-1 $-1 $203 $52 #
coedge $-1 $128 $128 $204 $205 reversed $80 $-1 #
face $-1 $-1 $206 $42 $-1 $207 forward single #
loop $-1 $208 $209 $82 #
cone-surface $-1 -40.230661608659219 -26.155672922049831 -0.82875787101415277 0 0.6018150307709319 -0.79863550430605224 1.25 0 0 1 I I -0.70710678118654746 0.70710678118654746 1.25 forward I I I I #
loop $-1 $-1 $210 $53 #
coedge $-1 $133 $133 $211 $212 reversed $83 $-1 #
face $-1 $-1 $213 $43 $-1 $214 forward single #
loop $-1 $215 $216 $85 #
cone-surface $-1 -30.378519311792306 -26.155672922049831 -0.82875787101415277 0 0.6018150307709319 -0.79863550430605224 1.25 0 0 1 I I -0.70710678118654746 0.70710678118654746 1.25 forward I I I I #
loop $-1 $-1 $217 $54 #
coedge $-1 $138 $138 $218 $219 reversed $86 $-1 #
face $-1 $220 $221 $33 $-1 $222 reversed single #
loop $-1 $-1 $223 $88 #
plane-surface $-1 0 -34.370378809771772 0 0 1 0 0 0 1 forward_v I I I I #
coedge $-1 $224 $225 $226 $227 forward $89 $-1 #
coedge $-1 $228 $91 $229 $230 forward $56 $-1 #
coedge $-1 $91 $228 $231 $232 forward $56 $-1 #
coedge $-1 $233 $234 $91 $146 reversed $235 $-1 #
edge $-1 $236 -34.370378809771772 $237 34.370378809771772 $145 $238 forward 7 unknown #
face $-1 $239 $240 $34 $-1 $241 reversed single #
loop $-1 $-1 $242 $92 #
plane-surface $-1 -15.931640458611978 100.14018500530324 115.32439611445238 -1 0 0 0 0.87461971476443456 0.48480960649040278 forward_v I I I I #
coedge $-1 $243 $244 $245 $246 reversed $93 $-1 #
coedge $-1 $152 $95 $247 $248 reversed $59 $-1 #
coedge $-1 $95 $151 $243 $249 reversed $59 $-1 #
coedge $-1 $245 $250 $95 $154 forward $251 $-1 #
edge $-1 $252 15.699713692879847 $253 19.695635149253707 $153 $254 forward 7 unknown #
loop $-1 $-1 $160 $96 #
plane-surface $-1 -25.780584288645649 1.0441991583886931 60.394596234328795 0 0.87461971476443456 0.48480960649040278 1 0 0 forward_v I I I I #
loop $-1 $-1 $255 $61 #
coedge $-1 $158 $158 $159 $256 reversed $97 $-1 #
coedge $-1 $159 $159 $158 $256 forward $99 $-1 #
coedge $-1 $160 $160 $100 $161 forward $155 $-1 #
edge $-1 $257 -1.1906791147753443e-015 $257 6.2831853071795996 $160 $258 forward 7 unknown #
loop $-1 $-1 $167 $101 #
plane-surface $-1 -25.780584288645649 1.0441991583886931 60.394596234328795 0 0.87461971476443456 0.48480960649040278 1 0 0 forward_v I I I I #
loop $-1 $-1 $259 $64 #
coedge $-1 $165 $165 $166 $260 reversed $102 $-1 #
coedge $-1 $166 $166 $165 $260 forward $104 $-1 #
coedge $-1 $167 $167 $105 $168 forward $162 $-1 #
edge $-1 $261 -1.1906791147753443e-015 $261 6.2831853071795996 $167 $262 forward 7 unknown #
face $-1 $263 $264 $37 $-1 $265 forward single #
loop $-1 $-1 $266 $106 #
plane-surface $-1 35.62952811867931 100.14018500530324 115.32439611445238 -1 0 0 0 0.87461971476443456 0.48480960649040278 forward_v I I I I #
coedge $-1 $267 $268 $269 $270 reversed $107 $-1 #
coedge $-1 $174 $109 $271 $272 reversed $68 $-1 #
coedge $-1 $109 $173 $267 $273 reversed $68 $-1 #
coedge $-1 $269 $274 $109 $176 forward $264 $-1 #
edge $-1 $275 15.699713692879847 $276 19.695635149253707 $175 $277 forward 7 unknown #
loop $-1 $-1 $182 $110 #
plane-surface $-1 25.780584288645642 1.0441991583886931 60.394596234328795 0 0.87461971476443456 0.48480960649040278 1 0 0 forward_v I I I I #
loop $-1 $-1 $278 $70 #
coedge $-1 $180 $180 $181 $279 reversed $111 $-1 #
coedge $-1 $181 $181 $180 $279 forward $113 $-1 #
coedge $-1 $182 $182 $114 $183 forward $177 $-1 #
edge $-1 $280 -1.1906791147753443e-015 $280 6.2831853071795996 $182 $281 forward 7 unknown #
loop $-1 $-1 $189 $115 #
plane-surface $-1 25.780584288645642 1.0441991583886931 60.394596234328795 0 0.87461971476443456 0.48480960649040278 1 0 0 forward_v I I I I #
loop $-1 $-1 $282 $73 #
coedge $-1 $187 $187 $188 $283 reversed $116 $-1 #
coedge $-1 $188 $188 $187 $283 forward $118 $-1 #
coedge $-1 $189 $189 $119 $190 forward $184 $-1 #
edge $-1 $284 -1.1906791147753443e-015 $284 6.2831853071795996 $189 $285 forward 7 unknown #
face $-1 $286 $287 $40 $-1 $288 reversed single #
loop $-1 $-1 $197 $120 #
plane-surface $-1 0 0 7.4814078134347417 0 0 1 1 0 0 forward_v I I I I #
coedge $-1 $289 $290 $291 $292 reversed $121 $-1 #
coedge $-1 $196 $123 $293 $294 reversed $77 $-1 #
coedge $-1 $123 $195 $289 $295 reversed $77 $-1 #
coedge $-1 $291 $296 $123 $198 forward $192 $-1 #
edge $-1 $297 16.90817298164523 $298 25.944472513862728 $197 $299 forward 7 unknown #
loop $-1 $-1 $204 $124 #
plane-surface $-1 -40.230661608659219 -34.370378809771751 0.67206756783403421 0 -0.6018150307709319 0.79863550430605224 1 0 0 forward_v I I I I #
loop $-1 $-1 $300 $79 #
coedge $-1 $202 $202 $203 $301 reversed $125 $-1 #
coedge $-1 $203 $203 $202 $301 forward $127 $-1 #
coedge $-1 $204 $204 $128 $205 forward $199 $-1 #
edge $-1 $302 -4.9756615790125461e-017 $302 6.2831853071796004 $204 $303 forward 7 unknown #
loop $-1 $-1 $211 $129 #
plane-surface $-1 -40.230661608659219 -34.370378809771751 0.67206756783403421 0 -0.6018150307709319 0.79863550430605224 1 0 0 forward_v I I I I #
loop $-1 $-1 $304 $82 #
coedge $-1 $209 $209 $210 $305 reversed $130 $-1 #
coedge $-1 $210 $210 $209 $305 forward $132 $-1 #
coedge $-1 $211 $211 $133 $212 forward $206 $-1 #
edge $-1 $306 -4.9756615790125461e-017 $306 6.2831853071796004 $211 $307 forward 7 unknown #
loop $-1 $-1 $218 $134 #
plane-surface $-1 -40.230661608659219 -34.370378809771751 0.67206756783403421 0 -0.6018150307709319 0.79863550430605224 1 0 0 forward_v I I I I #
loop $-1 $-1 $308 $85 #
coedge $-1 $216 $216 $217 $309 reversed $135 $-1 #
coedge $-1 $217 $217 $216 $309 forward $137 $-1 #
coedge $-1 $218 $218 $138 $219 forward $213 $-1 #
edge $-1 $310 -4.9756615790125461e-017 $310 6.2831853071796004 $218 $311 forward 7 unknown #
face $-1 $312 $313 $33 $-1 $314 reversed single #
loop $-1 $-1 $315 $139 #
plane-surface $-1 -56.650898770104064 0 0 1 0 0 0 0 -1 forward_v I I I I #
coedge $-1 $316 $231 $317 $318 forward $140 $-1 #
coedge $-1 $319 $142 $316 $320 forward $89 $-1 #
coedge $-1 $142 $319 $321 $322 forward $89 $-1 #
coedge $-1 $234 $233 $142 $227 reversed $235 $-1 #
edge $-1 $323 -34.370378809771772 $324 34.370378809771772 $226 $325 forward 7 unknown #
coedge $-1 $144 $143 $326 $327 forward $56 $-1 #
coedge $-1 $328 $329 $143 $230 reversed $313 $-1 #
edge $-1 $237 -56.650898770104064 $330 56.650898770104064 $229 $331 forward 7 unknown #
coedge $-1 $223 $332 $144 $232 reversed $140 $-1 #
edge $-1 $333 -56.650898770104064 $236 56.650898770104064 $231 $334 forward 7 unknown #
coedge $-1 $226 $145 $332 $335 forward $235 $-1 #
coedge $-1 $145 $226 $328 $336 reversed $235 $-1 #
loop $-1 $-1 $233 $312 #
vertex $-1 $146 $337 #
vertex $-1 $146 $338 #
straight-curve $-1 56.650898770104064 0 7.4814078134347417 0 1 0 I I #
face $-1 $-1 $251 $34 $-1 $339 forward single #
loop $-1 $-1 $340 $147 #
plane-surface $-1 0 34.370378809771772 0 0 -1 0 0 0 -1 forward_v I I I I #
coedge $-1 $341 $342 $343 $344 reversed $148 $-1 #
coedge $-1 $345 $150 $152 $249 forward $93 $-1 #
coedge $-1 $150 $345 $341 $346 forward $93 $-1 #
coedge $-1 $343 $153 $150 $246 forward $251 $-1 #
edge $-1 $253 -22.739235974356493 $347 -3.041348314289154 $245 $348 forward 7 unknown #
coedge $-1 $349 $350 $151 $248 forward $240 $-1 #
edge $-1 $351 -57.38962364479373 $252 -50.180790243791449 $247 $352 forward 7 unknown #
edge $-1 $253 60.498508697743468 $351 68.740757619543587 $152 $353 forward 7 unknown #
coedge $-1 $153 $343 $349 $354 forward $251 $-1 #
loop $-1 $-1 $343 $239 #
vertex $-1 $248 $355 #
vertex $-1 $154 $356 #
straight-curve $-1 -35.629528118679318 50.070092502651619 7.4814078134347426 0 -1 0 I I #
coedge $-1 $255 $255 $-1 $357 reversed $157 $-1 #
edge $-1 $358 0 $358 6.2831853071796004 $158 $359 forward 7 unknown #
vertex $-1 $161 $360 #
ellipse-curve $-1 -30.001560215802936 32.37241808158484 3.8769911129336116 0 0.87461971476443456 0.48480960649040278 2 0 0 1 I I #
coedge $-1 $259 $259 $-1 $361 reversed $164 $-1 #
edge $-1 $362 0 $362 6.2831853071796004 $165 $363 forward 7 unknown #
vertex $-1 $168 $364 #
ellipse-curve $-1 -21.559608361488358 32.37241808158484 3.8769911129336116 0 0.87461971476443456 0.48480960649040278 2 0 0 1 I I #
face $-1 $-1 $365 $37 $-1 $366 reversed single #
loop $-1 $-1 $175 $169 #
plane-surface $-1 0 0 7.4814078134347417 0 0 1 1 0 0 forward_v I I I I #
coedge $-1 $367 $368 $369 $370 reversed $170 $-1 #
coedge $-1 $371 $172 $174 $273 forward $107 $-1 #
coedge $-1 $172 $371 $367 $372 forward $107 $-1 #
coedge $-1 $369 $175 $172 $270 forward $264 $-1 #
edge $-1 $276 3.0413483142891504 $373 22.73923597435649 $269 $374 forward 7 unknown #
coedge $-1 $375 $376 $173 $272 forward $365 $-1 #
edge $-1 $377 -57.38962364479373 $275 -50.180790243791449 $271 $378 forward 7 unknown #
edge $-1 $276 60.498508697743468 $377 68.740757619543587 $174 $379 forward 7 unknown #
coedge $-1 $175 $369 $375 $380 forward $264 $-1 #
vertex $-1 $176 $381 #
vertex $-1 $176 $382 #
straight-curve $-1 15.931640458611971 50.070092502651619 7.4814078134347426 0 -1 0 I I #
coedge $-1 $278 $278 $-1 $383 reversed $179 $-1 #
edge $-1 $384 0 $384 6.2831853071796004 $180 $385 forward 7 unknown #
vertex $-1 $183 $386 #
ellipse-curve $-1 21.559608361488358 32.37241808158484 3.8769911129336116 0 0.87461971476443456 0.48480960649040278 2 0 0 1 I I #
coedge $-1 $282 $282 $-1 $387 reversed $186 $-1 #
edge $-1 $388 0 $388 6.2831853071796004 $187 $389 forward 7 unknown #
vertex $-1 $190 $390 #
ellipse-curve $-1 30.00156021580294 32.37241808158484 3.8769911129336116 0 0.87461971476443456 0.48480960649040278 2 0 0 1 I I #
face $-1 $-1 $391 $40 $-1 $392 reversed single #
loop $-1 $-1 $393 $191 #
plane-surface $-1 -56.650898770104064 0 0 1 0 0 0 0 -1 forward_v I I I I #
coedge $-1 $394 $194 $196 $295 forward $121 $-1 #
coedge $-1 $194 $394 $393 $395 reversed $121 $-1 #
coedge $-1 $396 $197 $194 $292 forward $192 $-1 #
edge $-1 $298 3.6950936428847605 $397 36.535567965774455 $291 $398 forward 7 unknown #
coedge $-1 $399 $400 $195 $294 forward $391 $-1 #
edge $-1 $401 -44.907385324736168 $297 -38.098045079135446 $293 $402 forward 7 unknown #
edge $-1 $298 -11.314672943408983 $401 2.6712098787190181e-014 $196 $403 forward 7 unknown #
coedge $-1 $197 $396 $399 $404 forward $192 $-1 #
vertex $-1 $294 $405 #
vertex $-1 $198 $406 #
straight-curve $-1 -23.81042444721437 -51.278551791417001 7.4814078134347426 0 1 0 I I #
coedge $-1 $300 $300 $-1 $407 reversed $201 $-1 #
edge $-1 $408 0 $408 6.2831853071796004 $202 $409 forward 7 unknown #
vertex $-1 $205 $410 #
ellipse-curve $-1 -50.082803905526127 -29.852229043663026 4.0767376906343769 0 -0.6018150307709319 0.79863550430605224 2.5 0 0 1 I I #
coedge $-1 $304 $304 $-1 $411 reversed $208 $-1 #
edge $-1 $412 0 $412 6.2831853071796004 $209 $413 forward 7 unknown #
vertex $-1 $212 $414 #
ellipse-curve $-1 -40.230661608659219 -29.852229043663026 4.0767376906343769 0 -0.6018150307709319 0.79863550430605224 2.5 0 0 1 I I #
coedge $-1 $308 $308 $-1 $415 reversed $215 $-1 #
edge $-1 $416 0 $416 6.2831853071796004 $216 $417 forward 7 unknown #
vertex $-1 $219 $418 #
ellipse-curve $-1 -30.378519311792306 -29.852229043663026 4.0767376906343769 0 -0.6018150307709319 0.79863550430605224 2.5 0 0 1 I I #
face $-1 $-1 $235 $33 $-1 $419 reversed single #
loop $-1 $-1 $328 $220 #
plane-surface $-1 0 34.370378809771772 0 0 -1 0 0 0 -1 forward_v I I I I #
coedge $-1 $420 $326 $329 $421 forward $221 $-1 #
coedge $-1 $332 $223 $224 $320 reversed $140 $-1 #
coedge $-1 $326 $420 $223 $318 reversed $221 $-1 #
edge $-1 $333 -7.4814078134347417 $422 7.4814078134347417 $317 $423 forward 7 unknown #
coedge $-1 $225 $224 $420 $424 forward $89 $-1 #
edge $-1 $324 -56.650898770104064 $422 56.650898770104064 $316 $425 forward 7 unknown #
coedge $-1 $329 $328 $225 $322 reversed $313 $-1 #
edge $-1 $426 -56.650898770104064 $323 56.650898770104064 $321 $427 forward 7 unknown #
vertex $-1 $227 $428 #
vertex $-1 $335 $429 #
straight-curve $-1 56.650898770104064 0 -7.4814078134347417 0 -1 0 I I #
coedge $-1 $315 $317 $228 $327 reversed $221 $-1 #
edge $-1 $330 -34.370378809771772 $333 34.370378809771772 $326 $430 forward 7 unknown #
coedge $-1 $321 $229 $234 $336 forward $313 $-1 #
coedge $-1 $229 $321 $315 $421 reversed $313 $-1 #
vertex $-1 $230 $431 #
straight-curve $-1 0 34.370378809771772 7.4814078134347417 -1 0 0 I I #
coedge $-1 $231 $316 $233 $335 reversed $140 $-1 #
vertex $-1 $327 $432 #
straight-curve $-1 0 -34.370378809771772 7.4814078134347417 1 0 0 I I #
edge $-1 $236 -7.4814078134347417 $324 7.4814078134347417 $233 $433 forward 7 unknown #
edge $-1 $237 -7.4814078134347417 $323 7.4814078134347417 $234 $434 forward 7 unknown #
point $-1 56.650898770104064 -34.370378809771772 7.4814078134347417 #
point $-1 56.650898770104064 34.370378809771772 7.4814078134347417 #
plane-surface $-1 0 0 7.4814078134347417 0 0 1 1 0 0 forward_v I I I I #
coedge $-1 $350 $349 $342 $435 forward $240 $-1 #
coedge $-1 $342 $242 $244 $346 reversed $148 $-1 #
coedge $-1 $242 $341 $340 $435 reversed $148 $-1 #
coedge $-1 $250 $245 $242 $344 forward $251 $-1 #
edge $-1 $347 -19.695635149253707 $436 -15.699713692879847 $343 $437 forward 7 unknown #
coedge $-1 $244 $243 $350 $438 reversed $93 $-1 #
edge $-1 $439 -68.740757619543587 $347 -60.498508697743468 $341 $440 forward 7 unknown #
vertex $-1 $246 $441 #
straight-curve $-1 -12.890292144322824 30.374457353397915 7.4814078134347426 1 0 0 I I #
coedge $-1 $340 $247 $250 $354 reversed $240 $-1 #
coedge $-1 $247 $340 $345 $438 forward $240 $-1 #
vertex $-1 $248 $442 #
straight-curve $-1 -35.629528118679318 34.370378809771772 57.662198057226192 0 0 1 I I #
straight-curve $-1 -35.629528118679318 1.0441991583886931 60.394596234328795 0 0.48480960649040278 -0.87461971476443456 I I #
edge $-1 $436 15.931640458611978 $252 35.629528118679318 $349 $443 forward 7 unknown #
point $-1 -35.629528118679318 34.370378809771772 7.4814078134347417 #
point $-1 -35.629528118679318 30.374457353397911 7.4814078134347426 #
edge $-1 $444 1 $444 0 $255 $-1 forward 7 unknown #
vertex $-1 $256 $445 #
ellipse-curve $-1 -30.001560215802936 29.343559854918404 2.198067644599869 0 0.87461971476443456 0.48480960649040278 2 0 0 1 I I #
point $-1 -28.001560215802936 32.372418081584847 3.8769911129336183 #
edge $-1 $446 1 $446 0 $259 $-1 forward 7 unknown #
vertex $-1 $260 $447 #
ellipse-curve $-1 -21.559608361488358 29.343559854918404 2.198067644599869 0 0.87461971476443456 0.48480960649040278 2 0 0 1 I I #
point $-1 -19.559608361488358 32.372418081584847 3.8769911129336183 #
loop $-1 $-1 $271 $263 #
plane-surface $-1 0 34.370378809771772 0 0 -1 0 0 0 -1 forward_v I I I I #
coedge $-1 $368 $266 $268 $372 reversed $170 $-1 #
coedge $-1 $266 $367 $448 $449 reversed $170 $-1 #
coedge $-1 $274 $269 $266 $370 forward $264 $-1 #
edge $-1 $373 -19.695635149253707 $450 -15.699713692879847 $369 $451 forward 7 unknown #
coedge $-1 $268 $267 $376 $452 reversed $107 $-1 #
edge $-1 $453 -68.740757619543587 $373 -60.498508697743468 $367 $454 forward 7 unknown #
vertex $-1 $270 $455 #
straight-curve $-1 12.890292144322821 30.374457353397915 7.4814078134347426 1 0 0 I I #
coedge $-1 $448 $271 $274 $380 reversed $365 $-1 #
coedge $-1 $271 $448 $371 $452 forward $365 $-1 #
vertex $-1 $272 $456 #
straight-curve $-1 15.931640458611971 34.370378809771772 57.662198057226192 0 0 1 I I #
straight-curve $-1 15.931640458611971 1.0441991583886931 60.394596234328795 0 0.48480960649040278 -0.87461971476443456 I I #
edge $-1 $450 -35.62952811867931 $275 -15.931640458611971 $375 $457 forward 7 unknown #
point $-1 15.931640458611971 34.370378809771772 7.4814078134347417 #
point $-1 15.931640458611971 30.374457353397911 7.4814078134347426 #
edge $-1 $458 1 $458 0 $278 $-1 forward 7 unknown #
vertex $-1 $279 $459 #
ellipse-curve $-1 21.559608361488358 29.343559854918404 2.198067644599869 0 0.87461971476443456 0.48480960649040278 2 0 0 1 I I #
point $-1 23.559608361488358 32.372418081584847 3.8769911129336183 #
edge $-1 $460 1 $460 0 $282 $-1 forward 7 unknown #
vertex $-1 $283 $461 #
ellipse-curve $-1 30.00156021580294 29.343559854918404 2.198067644599869 0 0.87461971476443456 0.48480960649040278 2 0 0 1 I I #
point $-1 32.00156021580294 32.372418081584847 3.8769911129336183 #
loop $-1 $-1 $293 $286 #
plane-surface $-1 0 -34.370378809771772 0 0 1 0 0 0 1 forward_v I I I I #
coedge $-1 $462 $463 $290 $395 forward $287 $-1 #
coedge $-1 $290 $289 $400 $464 reversed $121 $-1 #
edge $-1 $397 2.2077992815489815 $465 13.522472224957991 $393 $466 forward 7 unknown #
coedge $-1 $296 $291 $463 $467 forward $192 $-1 #
vertex $-1 $467 $468 #
straight-curve $-1 -20.115330804329609 -25.334079277554274 7.4814078134347417 -1 0 0 I I #
coedge $-1 $469 $293 $296 $404 reversed $391 $-1 #
coedge $-1 $293 $469 $394 $464 forward $391 $-1 #
vertex $-1 $294 $470 #
straight-curve $-1 -23.81042444721437 -34.370378809771772 45.579452892570188 0 0 1 I I #
straight-curve $-1 -23.81042444721437 -34.370378809771751 0.67206756783403421 0 -0.79863550430605224 -0.6018150307709319 I I #
edge $-1 $471 -56.650898770104064 $297 -23.81042444721437 $399 $472 forward 7 unknown #
point $-1 -23.81042444721437 -34.370378809771772 7.4814078134347417 #
point $-1 -23.81042444721437 -25.334079277554274 7.4814078134347417 #
edge $-1 $473 1 $473 0 $300 $-1 forward 7 unknown #
vertex $-1 $301 $474 #
ellipse-curve $-1 -50.082803905526127 -26.907941710513494 0.16953650936841247 0 -0.6018150307709319 0.79863550430605224 2.5 0 0 1 I I #
point $-1 -47.582803905526127 -29.852229043663041 4.0767376906343955 #
edge $-1 $475 1 $475 0 $304 $-1 forward 7 unknown #
vertex $-1 $305 $476 #
ellipse-curve $-1 -40.230661608659219 -26.907941710513494 0.16953650936841247 0 -0.6018150307709319 0.79863550430605224 2.5 0 0 1 I I #
point $-1 -37.730661608659219 -29.852229043663041 4.0767376906343955 #
edge $-1 $477 1 $477 0 $308 $-1 forward 7 unknown #
vertex $-1 $309 $478 #
ellipse-curve $-1 -30.378519311792306 -26.907941710513494 0.16953650936841247 0 -0.6018150307709319 0.79863550430605224 2.5 0 0 1 I I #
point $-1 -27.878519311792306 -29.852229043663041 4.0767376906343955 #
plane-surface $-1 56.650898770104064 0 0 -1 0 0 0 0 1 forward_v I I I I #
coedge $-1 $317 $315 $319 $424 reversed $221 $-1 #
edge $-1 $330 -7.4814078134347417 $426 7.4814078134347417 $329 $479 forward 7 unknown #
vertex $-1 $424 $480 #
straight-curve $-1 -56.650898770104064 -34.370378809771772 0 0 0 -1 I I #
edge $-1 $422 -34.370378809771772 $426 34.370378809771772 $420 $481 forward 7 unknown #
straight-curve $-1 0 -34.370378809771772 -7.4814078134347417 -1 0 0 I I #
vertex $-1 $322 $482 #
straight-curve $-1 0 34.370378809771772 -7.4814078134347417 1 0 0 I I #
point $-1 56.650898770104064 34.370378809771772 -7.4814078134347417 #
point $-1 56.650898770104064 -34.370378809771772 -7.4814078134347417 #
straight-curve $-1 -56.650898770104064 0 7.4814078134347417 0 -1 0 I I #
point $-1 -56.650898770104064 34.370378809771772 7.4814078134347417 #
point $-1 -56.650898770104064 -34.370378809771772 7.4814078134347417 #
straight-curve $-1 56.650898770104064 -34.370378809771772 0 0 0 -1 I I #
straight-curve $-1 56.650898770104064 34.370378809771772 0 0 0 -1 I I #
edge $-1 $436 50.180790243791449 $439 57.38962364479373 $340 $483 forward 7 unknown #
vertex $-1 $354 $484 #
straight-curve $-1 -15.931640458611978 50.070092502651619 7.4814078134347426 0 1 0 I I #
edge $-1 $439 3.041348314289154 $351 22.739235974356493 $350 $485 forward 7 unknown #
vertex $-1 $438 $486 #
straight-curve $-1 -15.931640458611978 1.0441991583886931 60.394596234328795 0 -0.48480960649040278 0.87461971476443456 I I #
point $-1 -15.931640458611978 30.374457353397911 7.4814078134347426 #
point $-1 -35.629528118679318 34.370378809771772 0.27257441243246205 #
straight-curve $-1 0 34.370378809771772 7.4814078134347417 -1 0 0 I I #
vertex $-1 $357 $487 #
point $-1 -28.001560215802936 29.343559854918404 2.198067644599869 #
vertex $-1 $361 $488 #
point $-1 -19.559608361488358 29.343559854918404 2.198067644599869 #
coedge $-1 $376 $375 $368 $449 forward $365 $-1 #
edge $-1 $450 50.180790243791449 $453 57.38962364479373 $448 $489 forward 7 unknown #
vertex $-1 $380 $490 #
straight-curve $-1 35.62952811867931 50.070092502651619 7.4814078134347426 0 1 0 I I #
edge $-1 $453 -22.73923597435649 $377 -3.0413483142891504 $376 $491 forward 7 unknown #
vertex $-1 $452 $492 #
straight-curve $-1 35.62952811867931 1.0441991583886931 60.394596234328795 0 -0.48480960649040278 0.87461971476443456 I I #
point $-1 35.62952811867931 30.374457353397911 7.4814078134347426 #
point $-1 15.931640458611971 34.370378809771772 0.27257441243246205 #
straight-curve $-1 0 34.370378809771772 7.4814078134347417 -1 0 0 I I #
vertex $-1 $383 $493 #
point $-1 23.559608361488358 29.343559854918404 2.198067644599869 #
vertex $-1 $387 $494 #
point $-1 32.00156021580294 29.343559854918404 2.198067644599869 #
coedge $-1 $463 $393 $469 $495 reversed $287 $-1 #
coedge $-1 $393 $462 $396 $467 reversed $287 $-1 #
edge $-1 $465 -36.535567965774455 $401 -3.6950936428847605 $400 $496 forward 7 unknown #
vertex $-1 $395 $497 #
straight-curve $-1 -56.650898770104064 -23.570852384927864 8.8100946059961842 0 -0.79863550430605224 -0.6018150307709319 I I #
edge $-1 $397 25.334079277554274 $471 34.370378809771772 $463 $498 forward 7 unknown #
point $-1 -56.650898770104064 -25.334079277554274 7.4814078134347417 #
coedge $-1 $400 $399 $462 $495 forward $391 $-1 #
point $-1 -23.81042444721437 -34.370378809771772 0.67206756783401811 #
vertex $-1 $467 $499 #
straight-curve $-1 0 -34.370378809771772 7.4814078134347417 1 0 0 I I #
vertex $-1 $407 $500 #
point $-1 -47.582803905526127 -26.907941710513494 0.16953650936841247 #
vertex $-1 $411 $501 #
point $-1 -37.730661608659219 -26.907941710513494 0.16953650936841247 #
vertex $-1 $415 $502 #
point $-1 -27.878519311792306 -26.907941710513494 0.16953650936841247 #
straight-curve $-1 -56.650898770104064 34.370378809771772 0 0 0 -1 I I #
point $-1 -56.650898770104064 -34.370378809771772 -7.4814078134347417 #
straight-curve $-1 -56.650898770104064 0 -7.4814078134347417 0 1 0 I I #
point $-1 -56.650898770104064 34.370378809771772 -7.4814078134347417 #
straight-curve $-1 -15.931640458611978 34.370378809771772 57.662198057226192 0 0 -1 I I #
point $-1 -15.931640458611978 34.370378809771772 7.4814078134347417 #
straight-curve $-1 -12.890292144322824 34.370378809771772 0.2725744124324585 -1 0 0 I I #
point $-1 -15.931640458611978 34.370378809771772 0.27257441243246205 #
point $-1 -30.001560215802936 27.594320425389533 1.2284484316190636 #
point $-1 -21.559608361488358 27.594320425389533 1.2284484316190636 #
straight-curve $-1 35.62952811867931 34.370378809771772 57.662198057226192 0 0 -1 I I #
point $-1 35.62952811867931 34.370378809771772 7.4814078134347417 #
straight-curve $-1 12.890292144322821 34.370378809771772 0.2725744124324585 -1 0 0 I I #
point $-1 35.62952811867931 34.370378809771772 0.27257441243246205 #
point $-1 21.559608361488358 27.594320425389533 1.2284484316190636 #
point $-1 30.00156021580294 27.594320425389533 1.2284484316190636 #
edge $-1 $471 -7.4814078134347417 $465 -0.67206756783401811 $462 $503 forward 7 unknown #
straight-curve $-1 -20.115330804329609 -34.370378809771772 0.67206756783402244 1 0 0 I I #
point $-1 -56.650898770104064 -34.370378809771772 0.67206756783401811 #
straight-curve $-1 -56.650898770104064 0 7.4814078134347417 0 -1 0 I I #
point $-1 -56.650898770104064 -34.370378809771772 7.4814078134347417 #
point $-1 -50.082803905526127 -25.403404133586168 -1.827052251396718 #
point $-1 -40.230661608659219 -25.403404133586168 -1.827052251396718 #
point $-1 -30.378519311792306 -25.403404133586168 -1.827052251396718 #
straight-curve $-1 -56.650898770104064 -34.370378809771772 0 0 0 -1 I I #
End-of-ACIS-data 