500 0 11 0           
7 Unknown 11 ACIS 5.0 NT 24 Fri Mar 26 18:26:52 1999 
-1 9.9999999999999995e-007 1e-010 
body $-1 $11 $-1 $12 #
body $-1 $13 $-1 $14 #
body $-1 $15 $-1 $16 #
body $-1 $17 $-1 $18 #
body $-1 $19 $-1 $20 #
body $-1 $21 $-1 $22 #
body $-1 $23 $-1 $24 #
body $-1 $25 $-1 $26 #
body $-1 $27 $-1 $28 #
body $-1 $29 $-1 $30 #
body $-1 $31 $-1 $32 #
lump $-1 $-1 $33 $0 #
transform $-1 1 0 0 0 1 0 0 0 1 64.636982329783024 31.511687802579392 8.2569719627724982 1 rotate no_reflect no_shear #
lump $-1 $-1 $34 $1 #
transform $-1 1 0 0 0 1 0 0 0 1 64.636982329783024 31.511687802579392 8.2569719627724982 1 rotate no_reflect no_shear #
lump $-1 $-1 $35 $2 #
transform $-1 1 0 0 0 1 0 0 0 1 64.636982329783024 31.511687802579392 8.2569719627724982 1 rotate no_reflect no_shear #
lump $-1 $-1 $36 $3 #
transform $-1 1 0 0 0 1 0 0 0 1 64.636982329783024 31.511687802579392 8.2569719627724982 1 rotate no_reflect no_shear #
lump $-1 $-1 $37 $4 #
transform $-1 1 0 0 0 1 0 0 0 1 64.636982329783024 31.511687802579392 8.2569719627724982 1 rotate no_reflect no_shear #
lump $-1 $-1 $38 $5 #
transform $-1 1 0 0 0 1 0 0 0 1 64.636982329783024 31.511687802579392 8.2569719627724982 1 rotate no_reflect no_shear #
lump $-1 $-1 $39 $6 #
transform $-1 1 0 0 0 1 0 0 0 1 64.636982329783024 31.511687802579392 8.2569719627724982 1 rotate no_reflect no_shear #
lump $-1 $-1 $40 $7 #
transform $-1 1 0 0 0 1 0 0 0 1 64.636982329783024 31.511687802579392 8.2569719627724982 1 rotate no_reflect no_shear #
lump $-1 $-1 $41 $8 #
transform $-1 1 0 0 0 1 0 0 0 1 64.636982329783024 31.511687802579392 8.2569719627724982 1 rotate no_reflect no_shear #
lump $-1 $-1 $42 $9 #
transform $-1 1 0 0 0 1 0 0 0 1 64.636982329783024 31.511687802579392 8.2569719627724982 1 rotate no_reflect no_shear #
lump $-1 $-1 $43 $10 #
transform $-1 1 0 0 0 1 0 0 0 1 64.636982329783024 31.511687802579392 8.2569719627724982 1 rotate no_reflect no_shear #
shell $-1 $-1 $-1 $44 $-1 $11 #
shell $-1 $-1 $-1 $45 $-1 $13 #
shell $-1 $-1 $-1 $46 $-1 $15 #
shell $-1 $-1 $-1 $47 $-1 $17 #
shell $-1 $-1 $-1 $48 $-1 $19 #
shell $-1 $-1 $-1 $49 $-1 $21 #
shell $-1 $-1 $-1 $50 $-1 $23 #
shell $-1 $-1 $-1 $51 $-1 $25 #
shell $-1 $-1 $-1 $52 $-1 $27 #
shell $-1 $-1 $-1 $53 $-1 $29 #
shell $-1 $-1 $-1 $54 $-1 $31 #
face $-1 $55 $56 $33 $-1 $57 reversed single #
face $-1 $58 $59 $34 $-1 $60 forward single #
face $-1 $61 $62 $35 $-1 $63 reversed single #
face $-1 $64 $65 $36 $-1 $66 forward single #
face $-1 $67 $68 $37 $-1 $69 forward single #
face $-1 $70 $71 $38 $-1 $72 reversed single #
face $-1 $73 $74 $39 $-1 $75 forward single #
face $-1 $76 $77 $40 $-1 $78 forward single #
face $-1 $79 $80 $41 $-1 $81 reversed single #
face $-1 $82 $83 $42 $-1 $84 forward single #
face $-1 $85 $86 $43 $-1 $87 forward single #
face $-1 $88 $89 $33 $-1 $90 forward single #
loop $-1 $-1 $91 $44 #
plane-surface $-1 -64.636982329783024 0 0 1 0 0 0 0 -1 forward_v I I I I #
face $-1 $92 $93 $34 $-1 $94 reversed single #
loop $-1 $-1 $95 $45 #
plane-surface $-1 -64.636982329783024 0 0 1 0 0 0 0 -1 forward_v I I I I #
face $-1 $96 $97 $35 $-1 $98 reversed single #
loop $-1 $-1 $99 $46 #
plane-surface $-1 -9.8407497259867824 51.552026366276053 142.93324252065415 1 0 0 0 -0.55919291073839883 -0.82903756765294845 forward_v I I I I #
face $-1 $100 $101 $36 $-1 $102 forward single #
loop $-1 $103 $104 $47 #
cone-surface $-1 -5.9081287497489612 24.173421089594246 2.0131114173412441 0 -0.55919291073839883 -0.82903756765294845 1.5 0 0 1 I I 0 1 1.5 forward I I I I #
face $-1 $105 $106 $37 $-1 $107 forward single #
loop $-1 $108 $109 $48 #
cone-surface $-1 -0.0091972853922186459 24.173421089594246 2.0131114173412441 0 -0.55919291073839883 -0.82903756765294845 1.5 0 0 1 I I 0 1 1.5 forward I I I I #
face $-1 $110 $111 $38 $-1 $112 reversed single #
loop $-1 $-1 $113 $49 #
plane-surface $-1 50.872808912950639 51.552026366276053 142.93324252065415 1 0 0 0 -0.55919291073839883 -0.82903756765294845 forward_v I I I I #
face $-1 $114 $115 $39 $-1 $116 forward single #
loop $-1 $117 $118 $50 #
cone-surface $-1 54.80542988918846 24.173421089594246 2.0131114173412441 0 -0.55919291073839883 -0.82903756765294845 1.5 0 0 1 I I 0 1 1.5 forward I I I I #
face $-1 $119 $120 $40 $-1 $121 forward single #
loop $-1 $122 $123 $51 #
cone-surface $-1 60.70436135354521 24.173421089594246 2.0131114173412441 0 -0.55919291073839883 -0.82903756765294845 1.5 0 0 1 I I 0 1 1.5 forward I I I I #
face $-1 $124 $125 $41 $-1 $126 reversed single #
loop $-1 $-1 $127 $52 #
plane-surface $-1 6.9832859527352298 -134.75446756744884 81.705443188662557 -1 0 0 0 -0.79863551827123203 0.60181501223851219 forward_v I I I I #
face $-1 $128 $129 $42 $-1 $130 forward single #
loop $-1 $131 $132 $53 #
cone-surface $-1 -7.1211569845221163 -29.39371124497708 5.7209052021451647 0 0.79863551827123203 -0.60181501223851219 0.5 0 0 1 I I 0 1 0.5 forward I I I I #
face $-1 $133 $134 $43 $-1 $135 forward single #
loop $-1 $136 $137 $54 #
cone-surface $-1 1.3415087778322885 -29.39371124497708 5.7209052021451647 0 0.79863551827123203 -0.60181501223851219 0.5 0 0 1 I I 0 1 0.5 forward I I I I #
face $-1 $138 $139 $33 $-1 $140 reversed single #
loop $-1 $-1 $141 $55 #
plane-surface $-1 0 0 8.2569719627724982 0 0 1 1 0 0 forward_v I I I I #
coedge $-1 $142 $143 $144 $145 reversed $56 $-1 #
face $-1 $146 $147 $34 $-1 $148 reversed single #
loop $-1 $-1 $149 $58 #
plane-surface $-1 0 0 -8.2569719627724982 0 0 1 1 0 0 forward_v I I I I #
coedge $-1 $150 $151 $152 $153 forward $59 $-1 #
face $-1 $154 $155 $35 $-1 $156 reversed single #
loop $-1 $-1 $157 $61 #
plane-surface $-1 -2.9586630175705935 -20.737058214399582 35.760269298434295 0 0.55919291073839883 0.82903756765294845 1 0 0 forward_v I I I I #
coedge $-1 $158 $159 $160 $161 reversed $62 $-1 #
face $-1 $-1 $162 $36 $-1 $163 forward single #
loop $-1 $164 $165 $64 #
cone-surface $-1 -5.9081287497489612 22.152475519942474 -0.98306354705652588 0 -0.55919291073839883 -0.82903756765294845 0.75 0 0 1 I I -0.70710678118654757 0.70710678118654757 0.75 forward I I I I #
loop $-1 $-1 $166 $47 #
coedge $-1 $104 $104 $167 $168 reversed $65 $-1 #
face $-1 $-1 $169 $37 $-1 $170 forward single #
loop $-1 $171 $172 $67 #
cone-surface $-1 -0.0091972853922186459 22.152475519942474 -0.98306354705652588 0 -0.55919291073839883 -0.82903756765294845 0.75 0 0 1 I I -0.70710678118654757 0.70710678118654757 0.75 forward I I I I #
loop $-1 $-1 $173 $48 #
coedge $-1 $109 $109 $174 $175 reversed $68 $-1 #
face $-1 $176 $177 $38 $-1 $178 forward single #
loop $-1 $-1 $179 $70 #
plane-surface $-1 57.754895621366828 -20.737058214399582 35.760269298434295 0 0.55919291073839883 0.82903756765294845 1 0 0 forward_v I I I I #
coedge $-1 $180 $181 $182 $183 reversed $71 $-1 #
face $-1 $-1 $184 $39 $-1 $185 forward single #
loop $-1 $186 $187 $73 #
cone-surface $-1 54.80542988918846 22.152475519942474 -0.98306354705652588 0 -0.55919291073839883 -0.82903756765294845 0.75 0 0 1 I I -0.70710678118654757 0.70710678118654757 0.75 forward I I I I #
loop $-1 $-1 $188 $50 #
coedge $-1 $118 $118 $189 $190 reversed $74 $-1 #
face $-1 $-1 $191 $40 $-1 $192 forward single #
loop $-1 $193 $194 $76 #
cone-surface $-1 60.70436135354521 22.152475519942474 -0.98306354705652588 0 -0.55919291073839883 -0.82903756765294845 0.75 0 0 1 I I -0.70710678118654757 0.70710678118654757 0.75 forward I I I I #
loop $-1 $-1 $195 $51 #
coedge $-1 $123 $123 $196 $197 reversed $77 $-1 #
face $-1 $198 $199 $41 $-1 $200 reversed single #
loop $-1 $-1 $201 $79 #
plane-surface $-1 -2.8898241033449139 -31.511687802579374 3.9064305649448272 0 -0.79863551827123203 0.60181501223851219 1 0 0 forward_v I I I I #
coedge $-1 $202 $203 $204 $205 reversed $80 $-1 #
face $-1 $-1 $206 $42 $-1 $207 forward single #
loop $-1 $208 $209 $82 #
cone-surface $-1 -7.1211569845221163 -28.715259806438368 5.2096553873720328 0 0.79863551827123203 -0.60181501223851219 0.25 0 0 1 I I -0.70710678118654746 0.70710678118654746 0.25 forward I I I I #
loop $-1 $-1 $210 $53 #
coedge $-1 $132 $132 $211 $212 reversed $83 $-1 #
face $-1 $-1 $213 $43 $-1 $214 forward single #
loop $-1 $215 $216 $85 #
cone-surface $-1 1.3415087778322885 -28.715259806438368 5.2096553873720328 0 0.79863551827123203 -0.60181501223851219 0.25 0 0 1 I I -0.70710678118654746 0.70710678118654746 0.25 forward I I I I #
loop $-1 $-1 $217 $54 #
coedge $-1 $137 $137 $218 $219 reversed $86 $-1 #
face $-1 $220 $221 $33 $-1 $222 reversed single #
loop $-1 $-1 $223 $88 #
plane-surface $-1 0 0 -8.2569719627724982 0 0 1 1 0 0 forward_v I I I I #
coedge $-1 $224 $225 $226 $227 forward $89 $-1 #
coedge $-1 $228 $91 $229 $230 reversed $56 $-1 #
coedge $-1 $91 $228 $231 $232 forward $56 $-1 #
coedge $-1 $233 $234 $91 $145 forward $139 $-1 #
edge $-1 $235 -31.511687802579392 $236 31.511687802579392 $91 $237 forward 7 unknown #
face $-1 $238 $239 $34 $-1 $240 reversed single #
loop $-1 $-1 $241 $92 #
plane-surface $-1 -68.560406020628619 -18.490382287582186 0 0 1 0 0 0 1 forward_v I I I I #
coedge $-1 $242 $243 $151 $244 forward $93 $-1 #
coedge $-1 $245 $95 $246 $247 reversed $59 $-1 #
coedge $-1 $95 $245 $149 $244 reversed $59 $-1 #
coedge $-1 $248 $249 $95 $153 reversed $250 $-1 #
edge $-1 $251 -8.2569719627724982 $252 8.2569719627724982 $152 $253 forward 7 unknown #
face $-1 $254 $255 $35 $-1 $256 forward single #
loop $-1 $-1 $257 $96 #
plane-surface $-1 3.9234236908455955 51.552026366276053 142.93324252065415 -1 0 0 0 0.55919291073839883 0.82903756765294845 forward_v I I I I #
coedge $-1 $258 $259 $260 $261 reversed $97 $-1 #
coedge $-1 $159 $99 $262 $263 reversed $62 $-1 #
coedge $-1 $99 $158 $258 $264 reversed $62 $-1 #
coedge $-1 $260 $265 $99 $161 forward $255 $-1 #
edge $-1 $266 -5.7356746194413653 $267 5.7377570333328975 $160 $268 forward 7 unknown #
loop $-1 $-1 $167 $100 #
plane-surface $-1 -2.9586630175705935 -20.737058214399582 35.760269298434295 0 0.55919291073839883 0.82903756765294845 1 0 0 forward_v I I I I #
loop $-1 $-1 $269 $64 #
coedge $-1 $165 $165 $166 $270 reversed $101 $-1 #
coedge $-1 $166 $166 $165 $270 forward $103 $-1 #
coedge $-1 $167 $167 $104 $168 forward $162 $-1 #
edge $-1 $271 8.4699262242413979e-016 $271 6.2831853071796013 $167 $272 forward 7 unknown #
loop $-1 $-1 $174 $105 #
plane-surface $-1 -2.9586630175705935 -20.737058214399582 35.760269298434295 0 0.55919291073839883 0.82903756765294845 1 0 0 forward_v I I I I #
loop $-1 $-1 $273 $67 #
coedge $-1 $172 $172 $173 $274 reversed $106 $-1 #
coedge $-1 $173 $173 $172 $274 forward $108 $-1 #
coedge $-1 $174 $174 $109 $175 forward $169 $-1 #
edge $-1 $275 8.4699262242413979e-016 $275 6.2831853071796013 $174 $276 forward 7 unknown #
face $-1 $277 $278 $38 $-1 $279 reversed single #
loop $-1 $-1 $182 $110 #
plane-surface $-1 0 0 8.2569719627724982 0 0 1 1 0 0 forward_v I I I I #
coedge $-1 $280 $281 $282 $283 reversed $111 $-1 #
coedge $-1 $181 $113 $284 $285 reversed $71 $-1 #
coedge $-1 $113 $180 $280 $286 reversed $71 $-1 #
coedge $-1 $282 $287 $113 $183 forward $177 $-1 #
edge $-1 $288 -5.7356746194413653 $289 5.7377570333328975 $182 $290 forward 7 unknown #
loop $-1 $-1 $189 $114 #
plane-surface $-1 57.754895621366828 -20.737058214399582 35.760269298434295 0 0.55919291073839883 0.82903756765294845 1 0 0 forward_v I I I I #
loop $-1 $-1 $291 $73 #
coedge $-1 $187 $187 $188 $292 reversed $115 $-1 #
coedge $-1 $188 $188 $187 $292 forward $117 $-1 #
coedge $-1 $189 $189 $118 $190 forward $184 $-1 #
edge $-1 $293 8.4699262242413979e-016 $293 6.2831853071796013 $189 $294 forward 7 unknown #
loop $-1 $-1 $196 $119 #
plane-surface $-1 57.754895621366828 -20.737058214399582 35.760269298434295 0 0.55919291073839883 0.82903756765294845 1 0 0 forward_v I I I I #
loop $-1 $-1 $295 $76 #
coedge $-1 $194 $194 $195 $296 reversed $120 $-1 #
coedge $-1 $195 $195 $194 $296 forward $122 $-1 #
coedge $-1 $196 $196 $123 $197 forward $191 $-1 #
edge $-1 $297 8.4699262242413979e-016 $297 6.2831853071796013 $196 $298 forward 7 unknown #
face $-1 $299 $300 $41 $-1 $301 forward single #
loop $-1 $-1 $302 $124 #
plane-surface $-1 -12.762934159425058 -134.75446756744884 81.705443188662557 1 0 0 0 0.79863551827123203 -0.60181501223851219 forward_v I I I I #
coedge $-1 $303 $304 $305 $306 reversed $125 $-1 #
coedge $-1 $203 $127 $307 $308 reversed $80 $-1 #
coedge $-1 $127 $202 $303 $309 reversed $80 $-1 #
coedge $-1 $305 $310 $127 $205 forward $300 $-1 #
edge $-1 $311 35.865545981145033 $312 39.143913978407866 $204 $313 forward 7 unknown #
loop $-1 $-1 $211 $128 #
plane-surface $-1 -2.8898241033449139 -31.511687802579374 3.9064305649448272 0 -0.79863551827123203 0.60181501223851219 1 0 0 forward_v I I I I #
loop $-1 $-1 $314 $82 #
coedge $-1 $209 $209 $210 $315 reversed $129 $-1 #
coedge $-1 $210 $210 $209 $315 forward $131 $-1 #
coedge $-1 $211 $211 $132 $212 forward $206 $-1 #
edge $-1 $316 -1.5195009499055988e-015 $316 6.2831853071795987 $211 $317 forward 7 unknown #
loop $-1 $-1 $218 $133 #
plane-surface $-1 -2.8898241033449139 -31.511687802579374 3.9064305649448272 0 -0.79863551827123203 0.60181501223851219 1 0 0 forward_v I I I I #
loop $-1 $-1 $318 $85 #
coedge $-1 $216 $216 $217 $319 reversed $134 $-1 #
coedge $-1 $217 $217 $216 $319 forward $136 $-1 #
coedge $-1 $218 $218 $137 $219 forward $213 $-1 #
edge $-1 $320 -1.5195009499055988e-015 $320 6.2831853071795987 $218 $321 forward 7 unknown #
face $-1 $322 $323 $33 $-1 $324 reversed single #
loop $-1 $-1 $229 $138 #
plane-surface $-1 0 -31.511687802579392 0 0 1 0 0 0 1 forward_v I I I I #
coedge $-1 $234 $233 $325 $326 forward $139 $-1 #
coedge $-1 $327 $141 $328 $329 forward $89 $-1 #
coedge $-1 $141 $327 $330 $331 forward $89 $-1 #
coedge $-1 $332 $333 $141 $227 reversed $334 $-1 #
edge $-1 $335 -31.511687802579392 $336 31.511687802579392 $226 $337 forward 7 unknown #
coedge $-1 $143 $142 $327 $338 reversed $56 $-1 #
coedge $-1 $339 $330 $142 $230 forward $221 $-1 #
edge $-1 $340 -8.2569719627724982 $235 8.2569719627724982 $142 $341 forward 7 unknown #
coedge $-1 $328 $342 $143 $232 reversed $323 $-1 #
edge $-1 $343 -8.2569719627724982 $236 8.2569719627724982 $231 $344 forward 7 unknown #
coedge $-1 $223 $144 $342 $345 forward $139 $-1 #
coedge $-1 $144 $223 $339 $346 forward $139 $-1 #
vertex $-1 $145 $347 #
vertex $-1 $345 $348 #
straight-curve $-1 -64.636982329783024 0 -8.2569719627724982 0 1 0 I I #
face $-1 $349 $250 $34 $-1 $350 reversed single #
loop $-1 $-1 $351 $146 #
plane-surface $-1 -72.483829711474215 -16.744063082308291 0 1 0 0 0 0 -1 forward_v I I I I #
coedge $-1 $352 $353 $354 $355 forward $147 $-1 #
coedge $-1 $356 $149 $352 $357 forward $93 $-1 #
coedge $-1 $149 $356 $248 $358 forward $93 $-1 #
edge $-1 $251 14.997743877034395 $359 18.490382287582186 $149 $360 forward 7 unknown #
coedge $-1 $151 $150 $361 $362 forward $59 $-1 #
coedge $-1 $363 $364 $150 $247 forward $365 $-1 #
edge $-1 $366 -18.490382287582186 $252 -14.997743877034395 $246 $367 forward 7 unknown #
coedge $-1 $368 $152 $243 $358 reversed $250 $-1 #
coedge $-1 $152 $368 $363 $369 reversed $250 $-1 #
loop $-1 $-1 $152 $238 #
vertex $-1 $244 $370 #
vertex $-1 $369 $371 #
straight-curve $-1 -64.636982329783024 -14.997743877034395 0 0 0 1 I I #
face $-1 $-1 $372 $35 $-1 $373 reversed single #
loop $-1 $-1 $160 $154 #
plane-surface $-1 0 0 8.2569719627724982 0 0 1 1 0 0 forward_v I I I I #
coedge $-1 $374 $375 $376 $377 reversed $155 $-1 #
coedge $-1 $378 $157 $159 $264 forward $97 $-1 #
coedge $-1 $157 $378 $374 $379 forward $97 $-1 #
coedge $-1 $376 $160 $157 $261 forward $255 $-1 #
edge $-1 $267 -8.3614182172014857 $380 5.4027551996308922 $260 $381 forward 7 unknown #
coedge $-1 $382 $383 $158 $263 forward $372 $-1 #
edge $-1 $384 -70.948576811100892 $266 -63.209649297554577 $262 $385 forward 7 unknown #
edge $-1 $267 49.183916332816978 $384 63.023375605158733 $159 $386 forward 7 unknown #
coedge $-1 $160 $376 $382 $387 forward $255 $-1 #
vertex $-1 $263 $388 #
vertex $-1 $161 $389 #
straight-curve $-1 -9.8407497259867824 25.776013183138026 8.2569719627724965 0 -1 0 I I #
coedge $-1 $269 $269 $-1 $390 reversed $164 $-1 #
edge $-1 $391 0 $391 6.2831853071796004 $165 $392 forward 7 unknown #
vertex $-1 $168 $393 #
ellipse-curve $-1 -5.9081287497489612 25.774971976192248 4.3875082059993469 0 0.55919291073839883 0.82903756765294845 1.5 0 0 1 I I #
coedge $-1 $273 $273 $-1 $394 reversed $171 $-1 #
edge $-1 $395 0 $395 6.2831853071796004 $172 $396 forward 7 unknown #
vertex $-1 $175 $397 #
ellipse-curve $-1 -0.0091972853922186459 25.774971976192248 4.3875082059993469 0 0.55919291073839883 0.82903756765294845 1.5 0 0 1 I I #
face $-1 $-1 $398 $38 $-1 $399 reversed single #
loop $-1 $-1 $284 $176 #
plane-surface $-1 0 31.511687802579392 0 0 -1 0 0 0 -1 forward_v I I I I #
coedge $-1 $400 $179 $181 $286 forward $111 $-1 #
coedge $-1 $179 $400 $401 $402 reversed $111 $-1 #
coedge $-1 $403 $182 $179 $283 forward $177 $-1 #
edge $-1 $289 21.995361102267225 $404 35.75953451909961 $282 $405 forward 7 unknown #
coedge $-1 $406 $407 $180 $285 forward $278 $-1 #
edge $-1 $408 -70.948576811100892 $288 -63.209649297554577 $284 $409 forward 7 unknown #
edge $-1 $289 49.183916332816978 $408 63.023375605158733 $181 $410 forward 7 unknown #
coedge $-1 $182 $403 $406 $411 forward $177 $-1 #
vertex $-1 $183 $412 #
vertex $-1 $183 $413 #
straight-curve $-1 50.872808912950639 25.776013183138026 8.2569719627724965 0 -1 0 I I #
coedge $-1 $291 $291 $-1 $414 reversed $186 $-1 #
edge $-1 $415 0 $415 6.2831853071796004 $187 $416 forward 7 unknown #
vertex $-1 $190 $417 #
ellipse-curve $-1 54.80542988918846 25.774971976192248 4.3875082059993469 0 0.55919291073839883 0.82903756765294845 1.5 0 0 1 I I #
coedge $-1 $295 $295 $-1 $418 reversed $193 $-1 #
edge $-1 $419 0 $419 6.2831853071796004 $194 $420 forward 7 unknown #
vertex $-1 $197 $421 #
ellipse-curve $-1 60.70436135354521 25.774971976192248 4.3875082059993469 0 0.55919291073839883 0.82903756765294845 1.5 0 0 1 I I #
face $-1 $-1 $422 $41 $-1 $423 reversed single #
loop $-1 $-1 $204 $198 #
plane-surface $-1 0 0 8.2569719627724982 0 0 1 1 0 0 forward_v I I I I #
coedge $-1 $424 $425 $426 $427 reversed $199 $-1 #
coedge $-1 $428 $201 $203 $309 forward $125 $-1 #
coedge $-1 $201 $428 $424 $429 forward $125 $-1 #
coedge $-1 $426 $204 $201 $306 forward $300 $-1 #
edge $-1 $312 -8.4281980044076867 $430 11.318022107752601 $305 $431 forward 7 unknown #
coedge $-1 $432 $433 $202 $308 forward $422 $-1 #
edge $-1 $434 -36.946291029386472 $311 -32.595749631558782 $307 $435 forward 7 unknown #
edge $-1 $312 -5.4474679604096226 $434 2.9487649192601403e-014 $203 $436 forward 7 unknown #
coedge $-1 $204 $426 $432 $437 forward $300 $-1 #
vertex $-1 $205 $438 #
vertex $-1 $205 $439 #
straight-curve $-1 6.9832859527352298 -67.377233783724421 8.2569719627724965 0 1 0 I I #
coedge $-1 $314 $314 $-1 $440 reversed $208 $-1 #
edge $-1 $441 0 $441 6.2831853071796004 $209 $442 forward 7 unknown #
vertex $-1 $212 $443 #
ellipse-curve $-1 -7.1211569845221163 -29.872503803947968 6.0817012638586565 0 -0.79863551827123203 0.60181501223851219 0.5 0 0 1 I I #
coedge $-1 $318 $318 $-1 $444 reversed $215 $-1 #
edge $-1 $445 0 $445 6.2831853071796004 $216 $446 forward 7 unknown #
vertex $-1 $219 $447 #
ellipse-curve $-1 1.3415087778322885 -29.872503803947968 6.0817012638586565 0 -0.79863551827123203 0.60181501223851219 0.5 0 0 1 I I #
face $-1 $-1 $334 $33 $-1 $448 reversed single #
loop $-1 $-1 $449 $220 #
plane-surface $-1 0 31.511687802579392 0 0 -1 0 0 0 -1 forward_v I I I I #
coedge $-1 $333 $332 $223 $326 reversed $334 $-1 #
edge $-1 $450 -31.511687802579392 $451 31.511687802579392 $325 $452 forward 7 unknown #
coedge $-1 $225 $224 $228 $338 forward $89 $-1 #
coedge $-1 $449 $231 $224 $329 reversed $323 $-1 #
edge $-1 $336 -64.636982329783024 $343 64.636982329783024 $328 $453 forward 7 unknown #
coedge $-1 $229 $454 $225 $331 reversed $221 $-1 #
edge $-1 $340 -64.636982329783024 $335 64.636982329783024 $330 $455 forward 7 unknown #
coedge $-1 $325 $226 $454 $456 forward $334 $-1 #
coedge $-1 $226 $325 $449 $457 reversed $334 $-1 #
loop $-1 $-1 $332 $322 #
vertex $-1 $227 $458 #
vertex $-1 $227 $459 #
straight-curve $-1 64.636982329783024 0 8.2569719627724982 0 1 0 I I #
edge $-1 $343 -31.511687802579392 $340 31.511687802579392 $228 $460 forward 7 unknown #
coedge $-1 $454 $229 $234 $346 reversed $221 $-1 #
vertex $-1 $338 $461 #
straight-curve $-1 -64.636982329783024 -31.511687802579392 0 0 0 -1 I I #
coedge $-1 $231 $449 $233 $345 reversed $323 $-1 #
vertex $-1 $329 $462 #
straight-curve $-1 -64.636982329783024 31.511687802579392 0 0 0 -1 I I #
edge $-1 $236 -64.636982329783024 $450 64.636982329783024 $342 $463 forward 7 unknown #
edge $-1 $451 -64.636982329783024 $235 64.636982329783024 $339 $464 forward 7 unknown #
point $-1 -64.636982329783024 -31.511687802579392 -8.2569719627724982 #
point $-1 -64.636982329783024 31.511687802579392 -8.2569719627724982 #
face $-1 $-1 $365 $34 $-1 $465 forward single #
plane-surface $-1 -68.560406020628619 -14.997743877034395 0 0 -1 0 0 0 -1 forward_v I I I I #
coedge $-1 $466 $467 $368 $468 forward $239 $-1 #
coedge $-1 $361 $241 $242 $357 reversed $147 $-1 #
coedge $-1 $241 $361 $364 $469 reversed $147 $-1 #
coedge $-1 $467 $466 $241 $355 reversed $239 $-1 #
edge $-1 $470 -8.2569719627724982 $471 8.2569719627724982 $354 $472 forward 7 unknown #
coedge $-1 $243 $242 $466 $473 forward $93 $-1 #
edge $-1 $359 -3.9234236908455955 $471 3.9234236908455955 $352 $474 forward 7 unknown #
edge $-1 $475 -3.9234236908455955 $251 3.9234236908455955 $248 $476 forward 7 unknown #
vertex $-1 $357 $477 #
straight-curve $-1 -64.636982329783024 0 -8.2569719627724982 0 -1 0 I I #
coedge $-1 $353 $352 $245 $362 reversed $147 $-1 #
edge $-1 $366 -8.2569719627724982 $359 8.2569719627724982 $361 $478 forward 7 unknown #
coedge $-1 $479 $246 $249 $369 forward $365 $-1 #
coedge $-1 $246 $479 $353 $469 forward $365 $-1 #
loop $-1 $-1 $246 $349 #
vertex $-1 $247 $480 #
straight-curve $-1 -64.636982329783024 0 8.2569719627724982 0 1 0 I I #
coedge $-1 $249 $248 $351 $468 reversed $250 $-1 #
edge $-1 $252 -3.9234236908455955 $481 3.9234236908455955 $249 $482 forward 7 unknown #
point $-1 -64.636982329783024 -14.997743877034395 -8.2569719627724982 #
point $-1 -64.636982329783024 -14.997743877034395 8.2569719627724982 #
loop $-1 $-1 $262 $254 #
plane-surface $-1 0 31.511687802579392 0 0 -1 0 0 0 -1 forward_v I I I I #
coedge $-1 $375 $257 $259 $379 reversed $155 $-1 #
coedge $-1 $257 $374 $483 $484 reversed $155 $-1 #
coedge $-1 $265 $260 $257 $377 forward $255 $-1 #
edge $-1 $380 -5.7377570333328975 $485 5.7356746194413653 $376 $486 forward 7 unknown #
coedge $-1 $259 $258 $383 $487 reversed $97 $-1 #
edge $-1 $488 -63.023375605158733 $380 -49.183916332816978 $374 $489 forward 7 unknown #
vertex $-1 $261 $490 #
straight-curve $-1 -1.4793315087852967 20.038256149805132 8.2569719627724965 1 0 0 I I #
coedge $-1 $483 $262 $265 $387 reversed $372 $-1 #
coedge $-1 $262 $483 $378 $487 forward $372 $-1 #
vertex $-1 $263 $491 #
straight-curve $-1 -9.8407497259867824 31.511687802579392 71.466621260327074 0 0 1 I I #
straight-curve $-1 -9.8407497259867824 -20.737058214399582 35.760269298434295 0 0.82903756765294845 -0.55919291073839883 I I #
edge $-1 $485 -3.9234236908455955 $266 9.8407497259867824 $382 $492 forward 7 unknown #
point $-1 -9.8407497259867824 31.511687802579392 8.2569719627724982 #
point $-1 -9.8407497259867824 20.038256149805129 8.2569719627724965 #
edge $-1 $493 1 $493 0 $269 $-1 forward 7 unknown #
vertex $-1 $270 $494 #
ellipse-curve $-1 -5.9081287497489612 22.571870202996273 -0.36128537131681449 0 0.55919291073839883 0.82903756765294845 1.5 0 0 1 I I #
point $-1 -4.4081287497489612 25.774971976192219 4.3875082059993025 #
edge $-1 $495 1 $495 0 $273 $-1 forward 7 unknown #
vertex $-1 $274 $496 #
ellipse-curve $-1 -0.0091972853922186459 22.571870202996273 -0.36128537131681449 0 0.55919291073839883 0.82903756765294845 1.5 0 0 1 I I #
point $-1 1.4908027146077814 25.774971976192219 4.3875082059993025 #
loop $-1 $-1 $401 $277 #
plane-surface $-1 64.636982329783024 0 0 -1 0 0 0 0 1 forward_v I I I I #
coedge $-1 $281 $280 $407 $497 reversed $111 $-1 #
coedge $-1 $498 $499 $281 $402 forward $398 $-1 #
edge $-1 $404 30.589571642755025 $500 44.429030915096789 $401 $501 forward 7 unknown #
coedge $-1 $287 $282 $499 $502 forward $177 $-1 #
vertex $-1 $502 $503 #
straight-curve $-1 28.877447810683414 20.038256149805132 8.2569719627724965 1 0 0 I I #
coedge $-1 $504 $284 $287 $411 reversed $278 $-1 #
coedge $-1 $284 $504 $400 $497 forward $278 $-1 #
vertex $-1 $285 $505 #
straight-curve $-1 50.872808912950639 31.511687802579392 71.466621260327074 0 0 1 I I #
straight-curve $-1 50.872808912950639 -20.737058214399582 35.760269298434295 0 0.82903756765294845 -0.55919291073839883 I I #
edge $-1 $506 -64.636982329783024 $288 -50.872808912950639 $406 $507 forward 7 unknown #
point $-1 50.872808912950639 31.511687802579392 8.2569719627724982 #
point $-1 50.872808912950639 20.038256149805129 8.2569719627724965 #
edge $-1 $508 1 $508 0 $291 $-1 forward 7 unknown #
vertex $-1 $292 $509 #
ellipse-curve $-1 54.80542988918846 22.571870202996273 -0.36128537131681449 0 0.55919291073839883 0.82903756765294845 1.5 0 0 1 I I #
point $-1 56.30542988918846 25.774971976192219 4.3875082059993025 #
edge $-1 $510 1 $510 0 $295 $-1 forward 7 unknown #
vertex $-1 $296 $511 #
ellipse-curve $-1 60.70436135354521 22.571870202996273 -0.36128537131681449 0 0.55919291073839883 0.82903756765294845 1.5 0 0 1 I I #
point $-1 62.20436135354521 25.774971976192219 4.3875082059993025 #
loop $-1 $-1 $307 $299 #
plane-surface $-1 0 -31.511687802579392 0 0 1 0 0 0 1 forward_v I I I I #
coedge $-1 $425 $302 $304 $429 reversed $199 $-1 #
coedge $-1 $302 $424 $512 $513 reversed $199 $-1 #
coedge $-1 $310 $305 $302 $427 forward $300 $-1 #
edge $-1 $430 -39.143913978407866 $514 -35.865545981145033 $426 $515 forward 7 unknown #
coedge $-1 $304 $303 $433 $516 reversed $125 $-1 #
edge $-1 $517 -2.9487649192601403e-014 $430 5.4474679604096226 $424 $518 forward 7 unknown #
vertex $-1 $306 $519 #
straight-curve $-1 -1.444912051672457 -28.233319805316551 8.2569719627725 -1 0 0 I I #
coedge $-1 $512 $307 $310 $437 reversed $422 $-1 #
coedge $-1 $307 $512 $428 $516 forward $422 $-1 #
vertex $-1 $308 $520 #
straight-curve $-1 6.9832859527352298 -31.511687802579388 40.852721594331278 0 0 1 I I #
straight-curve $-1 6.9832859527352298 -31.511687802579374 3.9064305649448272 0 -0.60181501223851219 -0.79863551827123203 I I #
edge $-1 $514 -12.762934159425058 $311 6.9832859527352298 $432 $521 forward 7 unknown #
point $-1 6.9832859527352298 -31.511687802579392 8.2569719627724982 #
point $-1 6.9832859527352298 -28.233319805316555 8.2569719627724982 #
edge $-1 $522 1 $522 0 $314 $-1 forward 7 unknown #
vertex $-1 $315 $523 #
ellipse-curve $-1 -7.1211569845221163 -28.914918686006175 5.3601091404316605 0 -0.79863551827123203 0.60181501223851219 0.5 0 0 1 I I #
point $-1 -6.6211569845221163 -29.872503803947986 6.0817012638586689 #
edge $-1 $524 1 $524 0 $318 $-1 forward 7 unknown #
vertex $-1 $319 $525 #
ellipse-curve $-1 1.3415087778322885 -28.914918686006175 5.3601091404316605 0 -0.79863551827123203 0.60181501223851219 0.5 0 0 1 I I #
point $-1 1.8415087778322885 -29.872503803947986 6.0817012638586689 #
plane-surface $-1 64.636982329783024 0 0 -1 0 0 0 0 1 forward_v I I I I #
coedge $-1 $342 $328 $333 $457 forward $323 $-1 #
vertex $-1 $326 $526 #
vertex $-1 $456 $527 #
straight-curve $-1 64.636982329783024 0 -8.2569719627724982 0 -1 0 I I #
straight-curve $-1 0 31.511687802579392 8.2569719627724982 -1 0 0 I I #
coedge $-1 $330 $339 $332 $456 reversed $221 $-1 #
straight-curve $-1 0 -31.511687802579392 8.2569719627724982 1 0 0 I I #
edge $-1 $335 -8.2569719627724982 $451 8.2569719627724982 $332 $528 forward 7 unknown #
edge $-1 $336 -8.2569719627724982 $450 8.2569719627724982 $333 $529 forward 7 unknown #
point $-1 64.636982329783024 -31.511687802579392 8.2569719627724982 #
point $-1 64.636982329783024 31.511687802579392 8.2569719627724982 #
straight-curve $-1 -64.636982329783024 0 8.2569719627724982 0 -1 0 I I #
point $-1 -64.636982329783024 -31.511687802579392 8.2569719627724982 #
point $-1 -64.636982329783024 31.511687802579392 8.2569719627724982 #
straight-curve $-1 0 31.511687802579392 -8.2569719627724982 1 0 0 I I #
straight-curve $-1 0 -31.511687802579392 -8.2569719627724982 -1 0 0 I I #
plane-surface $-1 0 0 8.2569719627724982 0 0 1 1 0 0 forward_v I I I I #
coedge $-1 $354 $351 $356 $473 reversed $239 $-1 #
coedge $-1 $351 $354 $479 $530 reversed $239 $-1 #
edge $-1 $481 -8.2569719627724982 $475 8.2569719627724982 $368 $531 forward 7 unknown #
edge $-1 $470 -3.9234236908455955 $366 3.9234236908455955 $353 $532 forward 7 unknown #
vertex $-1 $530 $533 #
vertex $-1 $473 $534 #
straight-curve $-1 -72.483829711474215 -18.490382287582186 0 0 0 -1 I I #
edge $-1 $471 -1.7463192052738954 $475 1.7463192052738954 $466 $535 forward 7 unknown #
straight-curve $-1 -68.560406020628619 -18.490382287582186 -8.2569719627724982 -1 0 0 I I #
vertex $-1 $358 $536 #
straight-curve $-1 -68.560406020628619 -14.997743877034395 -8.2569719627724982 1 0 0 I I #
point $-1 -64.636982329783024 -18.490382287582186 -8.2569719627724982 #
straight-curve $-1 -64.636982329783024 -18.490382287582186 0 0 0 -1 I I #
coedge $-1 $364 $363 $467 $530 forward $365 $-1 #
point $-1 -64.636982329783024 -18.490382287582186 8.2569719627724982 #
vertex $-1 $369 $537 #
straight-curve $-1 -68.560406020628619 -14.997743877034395 8.2569719627724982 -1 0 0 I I #
coedge $-1 $383 $382 $375 $484 forward $372 $-1 #
edge $-1 $485 63.209649297554577 $488 70.948576811100892 $483 $538 forward 7 unknown #
vertex $-1 $387 $539 #
straight-curve $-1 3.9234236908455955 25.776013183138026 8.2569719627724965 0 1 0 I I #
edge $-1 $488 -5.4027551996308922 $384 8.3614182172014857 $383 $540 forward 7 unknown #
vertex $-1 $487 $541 #
straight-curve $-1 3.9234236908455955 -20.737058214399582 35.760269298434295 0 -0.82903756765294845 0.55919291073839883 I I #
point $-1 3.9234236908455955 20.038256149805129 8.2569719627724965 #
point $-1 -9.8407497259867824 31.511687802579388 0.51804444922618131 #
straight-curve $-1 0 31.511687802579392 8.2569719627724982 -1 0 0 I I #
vertex $-1 $390 $542 #
point $-1 -4.4081287497489612 22.571870202996273 -0.36128537131681449 #
vertex $-1 $394 $543 #
point $-1 1.4908027146077814 22.571870202996273 -0.36128537131681449 #
edge $-1 $500 -35.75953451909961 $408 -21.995361102267225 $407 $544 forward 7 unknown #
coedge $-1 $499 $401 $504 $545 reversed $398 $-1 #
coedge $-1 $401 $498 $403 $502 reversed $398 $-1 #
vertex $-1 $402 $546 #
straight-curve $-1 64.636982329783024 -5.3216479204501068 25.362443567925464 0 0.82903756765294845 -0.55919291073839883 I I #
edge $-1 $404 20.038256149805129 $506 31.511687802579392 $499 $547 forward 7 unknown #
point $-1 64.636982329783024 20.038256149805129 8.2569719627724965 #
coedge $-1 $407 $406 $498 $545 forward $278 $-1 #
point $-1 50.872808912950639 31.511687802579388 0.51804444922618131 #
vertex $-1 $502 $548 #
straight-curve $-1 0 31.511687802579392 8.2569719627724982 -1 0 0 I I #
vertex $-1 $414 $549 #
point $-1 56.30542988918846 22.571870202996273 -0.36128537131681449 #
vertex $-1 $418 $550 #
point $-1 62.20436135354521 22.571870202996273 -0.36128537131681449 #
coedge $-1 $433 $432 $425 $513 forward $422 $-1 #
edge $-1 $514 32.595749631558782 $517 36.946291029386472 $512 $551 forward 7 unknown #
vertex $-1 $437 $552 #
straight-curve $-1 -12.762934159425058 -67.377233783724421 8.2569719627724965 0 -1 0 I I #
edge $-1 $517 -11.318022107752601 $434 8.4281980044076867 $433 $553 forward 7 unknown #
vertex $-1 $516 $554 #
straight-curve $-1 -12.762934159425058 -31.511687802579374 3.9064305649448272 0 0.60181501223851219 0.79863551827123203 I I #
point $-1 -12.762934159425058 -28.233319805316555 8.2569719627724982 #
point $-1 6.9832859527352298 -31.511687802579392 3.9064305649448037 #
straight-curve $-1 0 -31.511687802579392 8.2569719627724982 1 0 0 I I #
vertex $-1 $440 $555 #
point $-1 -6.6211569845221163 -28.914918686006175 5.3601091404316605 #
vertex $-1 $444 $556 #
point $-1 1.8415087778322885 -28.914918686006175 5.3601091404316605 #
point $-1 64.636982329783024 31.511687802579392 -8.2569719627724982 #
point $-1 64.636982329783024 -31.511687802579392 -8.2569719627724982 #
straight-curve $-1 64.636982329783024 -31.511687802579392 0 0 0 -1 I I #
straight-curve $-1 64.636982329783024 31.511687802579392 0 0 0 -1 I I #
edge $-1 $481 -1.7463192052738954 $470 1.7463192052738954 $467 $557 forward 7 unknown #
straight-curve $-1 -72.483829711474215 -14.997743877034395 0 0 0 -1 I I #
straight-curve $-1 -68.560406020628619 -18.490382287582186 8.2569719627724982 1 0 0 I I #
point $-1 -72.483829711474215 -18.490382287582186 8.2569719627724982 #
point $-1 -72.483829711474215 -18.490382287582186 -8.2569719627724982 #
straight-curve $-1 -72.483829711474215 -16.744063082308291 -8.2569719627724982 0 1 0 I I #
point $-1 -72.483829711474215 -14.997743877034395 -8.2569719627724982 #
point $-1 -72.483829711474215 -14.997743877034395 8.2569719627724982 #
straight-curve $-1 3.9234236908455955 31.511687802579392 71.466621260327074 0 0 -1 I I #
point $-1 3.9234236908455955 31.511687802579392 8.2569719627724982 #
straight-curve $-1 -1.4793315087852967 31.511687802579395 0.51804444922617421 -1 0 0 I I #
point $-1 3.9234236908455955 31.511687802579388 0.51804444922618131 #
point $-1 -5.9081287497489612 21.733080836888675 -1.6048417227962373 #
point $-1 -0.0091972853922186459 21.733080836888675 -1.6048417227962373 #
straight-curve $-1 28.877447810683414 31.511687802579395 0.51804444922617421 -1 0 0 I I #
edge $-1 $506 -8.2569719627724982 $500 -0.51804444922618131 $498 $558 forward 7 unknown #
point $-1 64.636982329783024 31.511687802579388 0.51804444922618131 #
straight-curve $-1 64.636982329783024 0 8.2569719627724982 0 1 0 I I #
point $-1 64.636982329783024 31.511687802579392 8.2569719627724982 #
point $-1 54.80542988918846 21.733080836888675 -1.6048417227962373 #
point $-1 60.70436135354521 21.733080836888675 -1.6048417227962373 #
straight-curve $-1 -12.762934159425058 -31.511687802579388 40.852721594331278 0 0 -1 I I #
point $-1 -12.762934159425058 -31.511687802579392 8.2569719627724982 #
straight-curve $-1 -1.444912051672457 -31.511687802579392 3.9064305649448041 1 0 0 I I #
point $-1 -12.762934159425058 -31.511687802579392 3.9064305649448037 #
point $-1 -7.1211569845221163 -28.515600926870562 5.0592016343124051 #
point $-1 1.3415087778322885 -28.515600926870562 5.0592016343124051 #
straight-curve $-1 -72.483829711474215 -16.744063082308291 8.2569719627724982 0 -1 0 I I #
straight-curve $-1 64.636982329783024 31.511687802579392 0 0 0 -1 I I #
End-of-ACIS-data 