500 0 13 0           
7 Unknown 11 ACIS 5.0 NT 24 Thu Mar 25 18:07:48 1999 
-1 9.9999999999999995e-007 1e-010 
body $-1 $13 $-1 $14 #
body $-1 $15 $-1 $16 #
body $-1 $17 $-1 $18 #
body $-1 $19 $-1 $20 #
body $-1 $21 $-1 $22 #
body $-1 $23 $-1 $24 #
body $-1 $25 $-1 $26 #
body $-1 $27 $-1 $28 #
body $-1 $29 $-1 $30 #
body $-1 $31 $-1 $32 #
body $-1 $33 $-1 $34 #
body $-1 $35 $-1 $36 #
body $-1 $37 $-1 $38 #
lump $-1 $-1 $39 $0 #
transform $-1 1 0 0 0 1 0 0 0 1 55.538804284798729 37.537804402421699 16.48515290843984 1 rotate no_reflect no_shear #
lump $-1 $-1 $40 $1 #
transform $-1 1 0 0 0 1 0 0 0 1 55.538804284798729 37.537804402421699 16.48515290843984 1 rotate no_reflect no_shear #
lump $-1 $-1 $41 $2 #
transform $-1 1 0 0 0 1 0 0 0 1 55.538804284798729 37.537804402421699 16.48515290843984 1 rotate no_reflect no_shear #
lump $-1 $-1 $42 $3 #
transform $-1 1 0 0 0 1 0 0 0 1 55.538804284798729 37.537804402421699 16.48515290843984 1 rotate no_reflect no_shear #
lump $-1 $-1 $43 $4 #
transform $-1 1 0 0 0 1 0 0 0 1 55.538804284798729 37.537804402421699 16.48515290843984 1 rotate no_reflect no_shear #
lump $-1 $-1 $44 $5 #
transform $-1 1 0 0 0 1 0 0 0 1 55.538804284798729 37.537804402421699 16.48515290843984 1 rotate no_reflect no_shear #
lump $-1 $-1 $45 $6 #
transform $-1 1 0 0 0 1 0 0 0 1 55.538804284798729 37.537804402421699 16.48515290843984 1 rotate no_reflect no_shear #
lump $-1 $-1 $46 $7 #
transform $-1 1 0 0 0 1 0 0 0 1 55.538804284798729 37.537804402421699 16.48515290843984 1 rotate no_reflect no_shear #
lump $-1 $-1 $47 $8 #
transform $-1 1 0 0 0 1 0 0 0 1 55.538804284798729 37.537804402421699 16.48515290843984 1 rotate no_reflect no_shear #
lump $-1 $-1 $48 $9 #
transform $-1 1 0 0 0 1 0 0 0 1 55.538804284798729 37.537804402421699 16.48515290843984 1 rotate no_reflect no_shear #
lump $-1 $-1 $49 $10 #
transform $-1 1 0 0 0 1 0 0 0 1 55.538804284798729 37.537804402421699 16.48515290843984 1 rotate no_reflect no_shear #
lump $-1 $-1 $50 $11 #
transform $-1 1 0 0 0 1 0 0 0 1 55.538804284798729 37.537804402421699 16.48515290843984 1 rotate no_reflect no_shear #
lump $-1 $-1 $51 $12 #
transform $-1 1 0 0 0 1 0 0 0 1 55.538804284798729 37.537804402421699 16.48515290843984 1 rotate no_reflect no_shear #
shell $-1 $-1 $-1 $52 $-1 $13 #
shell $-1 $-1 $-1 $53 $-1 $15 #
shell $-1 $-1 $-1 $54 $-1 $17 #
shell $-1 $-1 $-1 $55 $-1 $19 #
shell $-1 $-1 $-1 $56 $-1 $21 #
shell $-1 $-1 $-1 $57 $-1 $23 #
shell $-1 $-1 $-1 $58 $-1 $25 #
shell $-1 $-1 $-1 $59 $-1 $27 #
shell $-1 $-1 $-1 $60 $-1 $29 #
shell $-1 $-1 $-1 $61 $-1 $31 #
shell $-1 $-1 $-1 $62 $-1 $33 #
shell $-1 $-1 $-1 $63 $-1 $35 #
shell $-1 $-1 $-1 $64 $-1 $37 #
face $-1 $65 $66 $39 $-1 $67 forward single #
face $-1 $68 $69 $40 $-1 $70 reversed single #
face $-1 $71 $72 $41 $-1 $73 reversed single #
face $-1 $74 $75 $42 $-1 $76 forward single #
face $-1 $77 $78 $43 $-1 $79 forward single #
face $-1 $80 $81 $44 $-1 $82 reversed single #
face $-1 $83 $84 $45 $-1 $85 forward single #
face $-1 $86 $87 $46 $-1 $88 forward single #
face $-1 $89 $90 $47 $-1 $91 forward single #
face $-1 $92 $93 $48 $-1 $94 reversed single #
face $-1 $95 $96 $49 $-1 $97 forward single #
face $-1 $98 $99 $50 $-1 $100 forward single #
face $-1 $101 $102 $51 $-1 $103 forward single #
face $-1 $104 $105 $39 $-1 $106 reversed single #
loop $-1 $-1 $107 $52 #
plane-surface $-1 0 0 16.48515290843984 0 0 1 1 0 0 forward_v I I I I #
face $-1 $108 $109 $40 $-1 $110 reversed single #
loop $-1 $-1 $111 $53 #
plane-surface $-1 -27.889610203854737 -31.318886496521493 0 1 0 0 0 0 -1 forward_v I I I I #
face $-1 $112 $113 $41 $-1 $114 reversed single #
loop $-1 $-1 $115 $54 #
plane-surface $-1 50.056532715097248 24.179332023923489 157.12510829174147 0 -1 0 -0.68199836817093118 0 -0.7313536940579346 forward_v I I I I #
face $-1 $116 $117 $42 $-1 $118 forward single #
loop $-1 $119 $120 $55 #
cone-surface $-1 45.148337671076554 11.216558111375292 6.5689200834706387 -0.68199836817093118 0 -0.7313536940579346 1.0970305410869019 0 -1.0229975522563968 1 I I 0 1 1.5 forward I I I I #
face $-1 $121 $122 $43 $-1 $123 forward single #
loop $-1 $124 $125 $56 #
cone-surface $-1 45.148337671076554 18.994222458904211 6.5689200834706387 -0.68199836817093118 0 -0.7313536940579346 1.0970305410869019 0 -1.0229975522563968 1 I I 0 1 1.5 forward I I I I #
face $-1 $126 $127 $44 $-1 $128 reversed single #
loop $-1 $-1 $129 $57 #
plane-surface $-1 -126.93811566451674 -5.9462098979415892 94.344424662065009 0 1 0 -0.64278761758704617 0 0.76604443648966558 forward_v I I I I #
face $-1 $130 $131 $45 $-1 $132 forward single #
loop $-1 $133 $134 $58 #
cone-surface $-1 -50.863469038873959 -4.1707242819801564 12.43283897404441 0.64278761758704617 0 -0.76604443648966558 0.38302221824483279 0 0.32139380879352308 1 I I 0 1 0.5 forward I I I I #
face $-1 $135 $136 $46 $-1 $137 forward single #
loop $-1 $138 $139 $59 #
cone-surface $-1 -50.863469038873959 -1.5074958580379985 12.43283897404441 0.64278761758704617 0 -0.76604443648966558 0.38302221824483279 0 0.32139380879352308 1 I I 0 1 0.5 forward I I I I #
face $-1 $140 $141 $47 $-1 $142 forward single #
loop $-1 $143 $144 $60 #
cone-surface $-1 -50.863469038873959 1.1557325659041595 12.43283897404441 0.64278761758704617 0 -0.76604443648966558 0.38302221824483279 0 0.32139380879352308 1 I I 0 1 0.5 forward I I I I #
face $-1 $145 $146 $48 $-1 $147 reversed single #
loop $-1 $-1 $148 $61 #
plane-surface $-1 -126.93811566451674 25.372676598579911 94.344424662065009 0 1 0 -0.64278761758704617 0 0.76604443648966558 forward_v I I I I #
face $-1 $149 $150 $49 $-1 $151 forward single #
loop $-1 $152 $153 $62 #
cone-surface $-1 -50.863469038873959 27.148162214541344 12.43283897404441 0.64278761758704617 0 -0.76604443648966558 0.38302221824483279 0 0.32139380879352308 1 I I 0 1 0.5 forward I I I I #
face $-1 $154 $155 $50 $-1 $156 forward single #
loop $-1 $157 $158 $63 #
cone-surface $-1 -50.863469038873959 29.811390638483502 12.43283897404441 0.64278761758704617 0 -0.76604443648966558 0.38302221824483279 0 0.32139380879352308 1 I I 0 1 0.5 forward I I I I #
face $-1 $159 $160 $51 $-1 $161 forward single #
loop $-1 $162 $163 $64 #
cone-surface $-1 -50.863469038873959 32.47461906242566 12.43283897404441 0.64278761758704617 0 -0.76604443648966558 0.38302221824483279 0 0.32139380879352308 1 I I 0 1 0.5 forward I I I I #
face $-1 $164 $165 $39 $-1 $166 reversed single #
loop $-1 $-1 $167 $65 #
plane-surface $-1 0 0 -16.48515290843984 0 0 1 1 0 0 forward_v I I I I #
coedge $-1 $168 $169 $170 $171 forward $66 $-1 #
face $-1 $172 $173 $40 $-1 $174 reversed single #
loop $-1 $-1 $175 $68 #
plane-surface $-1 -25.229054335886893 -25.099968590621287 0 0 -1 0 0 0 -1 forward_v I I I I #
coedge $-1 $176 $177 $178 $179 forward $69 $-1 #
face $-1 $180 $181 $41 $-1 $182 reversed single #
loop $-1 $-1 $183 $71 #
plane-surface $-1 -25.698215069697653 15.105390285139748 75.888088937245072 0.68199836817093118 0 0.7313536940579346 0.7313536940579346 0 -0.68199836817093118 forward_v I I I I #
coedge $-1 $184 $185 $186 $187 reversed $72 $-1 #
face $-1 $-1 $188 $42 $-1 $189 forward single #
loop $-1 $190 $191 $74 #
cone-surface $-1 43.013957726009608 11.216558111375292 4.2800778659528298 -0.68199836817093118 0 -0.7313536940579346 0.54851527054345095 0 -0.51149877612819838 1 I I -0.70710678118654757 0.70710678118654757 0.75 forward I I I I #
loop $-1 $-1 $192 $55 #
coedge $-1 $120 $120 $193 $194 reversed $75 $-1 #
face $-1 $-1 $195 $43 $-1 $196 forward single #
loop $-1 $197 $198 $77 #
cone-surface $-1 43.013957726009608 18.994222458904211 4.2800778659528298 -0.68199836817093118 0 -0.7313536940579346 0.54851527054345095 0 -0.51149877612819838 1 I I -0.70710678118654757 0.70710678118654757 0.75 forward I I I I #
loop $-1 $-1 $199 $56 #
coedge $-1 $125 $125 $200 $201 reversed $78 $-1 #
face $-1 $202 $203 $44 $-1 $204 reversed single #
loop $-1 $-1 $205 $80 #
plane-surface $-1 -55.538804284798729 -1.5074958580379985 9.2540405987480767 -0.64278761758704617 0 0.76604443648966558 0.76604443648966558 0 0.64278761758704617 forward_v I I I I #
coedge $-1 $206 $207 $208 $209 reversed $81 $-1 #
face $-1 $-1 $210 $45 $-1 $211 forward single #
loop $-1 $212 $213 $83 #
cone-surface $-1 -50.336288835067393 -4.1707242819801564 11.80457008537245 0.64278761758704617 0 -0.76604443648966558 0.1915111091224164 0 0.16069690439676154 1 I I -0.70710678118654746 0.70710678118654746 0.25 forward I I I I #
loop $-1 $-1 $214 $58 #
coedge $-1 $134 $134 $215 $216 reversed $84 $-1 #
face $-1 $-1 $217 $46 $-1 $218 forward single #
loop $-1 $219 $220 $86 #
cone-surface $-1 -50.336288835067393 -1.5074958580379985 11.80457008537245 0.64278761758704617 0 -0.76604443648966558 0.1915111091224164 0 0.16069690439676154 1 I I -0.70710678118654746 0.70710678118654746 0.25 forward I I I I #
loop $-1 $-1 $221 $59 #
coedge $-1 $139 $139 $222 $223 reversed $87 $-1 #
face $-1 $-1 $224 $47 $-1 $225 forward single #
loop $-1 $226 $227 $89 #
cone-surface $-1 -50.336288835067393 1.1557325659041595 11.80457008537245 0.64278761758704617 0 -0.76604443648966558 0.1915111091224164 0 0.16069690439676154 1 I I -0.70710678118654746 0.70710678118654746 0.25 forward I I I I #
loop $-1 $-1 $228 $60 #
coedge $-1 $144 $144 $229 $230 reversed $90 $-1 #
face $-1 $231 $232 $48 $-1 $233 reversed single #
loop $-1 $-1 $234 $92 #
plane-surface $-1 -55.538804284798729 29.811390638483502 9.2540405987480767 -0.64278761758704617 0 0.76604443648966558 0.76604443648966558 0 0.64278761758704617 forward_v I I I I #
coedge $-1 $235 $236 $237 $238 reversed $93 $-1 #
face $-1 $-1 $239 $49 $-1 $240 forward single #
loop $-1 $241 $242 $95 #
cone-surface $-1 -50.336288835067393 27.148162214541344 11.80457008537245 0.64278761758704617 0 -0.76604443648966558 0.1915111091224164 0 0.16069690439676154 1 I I -0.70710678118654746 0.70710678118654746 0.25 forward I I I I #
loop $-1 $-1 $243 $62 #
coedge $-1 $153 $153 $244 $245 reversed $96 $-1 #
face $-1 $-1 $246 $50 $-1 $247 forward single #
loop $-1 $248 $249 $98 #
cone-surface $-1 -50.336288835067393 29.811390638483502 11.80457008537245 0.64278761758704617 0 -0.76604443648966558 0.1915111091224164 0 0.16069690439676154 1 I I -0.70710678118654746 0.70710678118654746 0.25 forward I I I I #
loop $-1 $-1 $250 $63 #
coedge $-1 $158 $158 $251 $252 reversed $99 $-1 #
face $-1 $-1 $253 $51 $-1 $254 forward single #
loop $-1 $255 $256 $101 #
cone-surface $-1 -50.336288835067393 32.47461906242566 11.80457008537245 0.64278761758704617 0 -0.76604443648966558 0.1915111091224164 0 0.16069690439676154 1 I I -0.70710678118654746 0.70710678118654746 0.25 forward I I I I #
loop $-1 $-1 $257 $64 #
coedge $-1 $163 $163 $258 $259 reversed $102 $-1 #
face $-1 $260 $261 $39 $-1 $262 reversed single #
loop $-1 $-1 $263 $104 #
plane-surface $-1 0 -37.537804402421699 0 0 1 0 0 0 1 forward_v I I I I #
coedge $-1 $264 $265 $266 $267 forward $105 $-1 #
coedge $-1 $268 $107 $269 $270 forward $66 $-1 #
coedge $-1 $107 $268 $271 $272 forward $66 $-1 #
coedge $-1 $273 $274 $107 $171 reversed $275 $-1 #
edge $-1 $276 -37.537804402421699 $277 37.537804402421699 $170 $278 forward 7 unknown #
face $-1 $279 $280 $40 $-1 $281 forward single #
loop $-1 $-1 $282 $108 #
plane-surface $-1 -22.568498467919049 -31.318886496521493 0 -1 0 0 0 0 1 forward_v I I I I #
coedge $-1 $283 $284 $285 $286 forward $109 $-1 #
coedge $-1 $287 $111 $288 $289 reversed $69 $-1 #
coedge $-1 $111 $287 $290 $291 reversed $69 $-1 #
coedge $-1 $284 $283 $111 $179 reversed $109 $-1 #
edge $-1 $292 -16.48515290843984 $293 16.48515290843984 $178 $294 forward 7 unknown #
face $-1 $295 $296 $41 $-1 $297 reversed single #
loop $-1 $-1 $298 $112 #
plane-surface $-1 50.056532715097248 6.0314485463560068 157.12510829174147 0 1 0 0.68199836817093118 0 0.7313536940579346 forward_v I I I I #
coedge $-1 $299 $300 $301 $302 reversed $113 $-1 #
coedge $-1 $185 $115 $303 $304 reversed $72 $-1 #
coedge $-1 $115 $184 $299 $305 reversed $72 $-1 #
coedge $-1 $301 $306 $115 $187 forward $307 $-1 #
edge $-1 $308 -30.510537927250105 $309 -12.975367037683263 $186 $310 forward 7 unknown #
loop $-1 $-1 $193 $116 #
plane-surface $-1 -25.698215069697653 15.105390285139748 75.888088937245072 0.68199836817093118 0 0.7313536940579346 0.7313536940579346 0 -0.68199836817093118 forward_v I I I I #
loop $-1 $-1 $311 $74 #
coedge $-1 $191 $191 $192 $312 reversed $117 $-1 #
coedge $-1 $192 $192 $191 $312 forward $119 $-1 #
coedge $-1 $193 $193 $120 $194 forward $188 $-1 #
edge $-1 $313 0 $313 6.2831853071796004 $193 $314 forward 7 unknown #
loop $-1 $-1 $200 $121 #
plane-surface $-1 -25.698215069697653 15.105390285139748 75.888088937245072 0.68199836817093118 0 0.7313536940579346 0.7313536940579346 0 -0.68199836817093118 forward_v I I I I #
loop $-1 $-1 $315 $77 #
coedge $-1 $198 $198 $199 $316 reversed $122 $-1 #
coedge $-1 $199 $199 $198 $316 forward $124 $-1 #
coedge $-1 $200 $200 $125 $201 forward $195 $-1 #
edge $-1 $317 0 $317 6.2831853071796004 $200 $318 forward 7 unknown #
face $-1 $319 $320 $44 $-1 $321 reversed single #
loop $-1 $-1 $322 $126 #
plane-surface $-1 -126.93811566451674 2.9312181818655922 94.344424662065009 0 -1 0 0.64278761758704617 0 -0.76604443648966558 forward_v I I I I #
coedge $-1 $323 $324 $325 $326 reversed $127 $-1 #
coedge $-1 $207 $129 $327 $328 reversed $81 $-1 #
coedge $-1 $129 $206 $323 $329 reversed $81 $-1 #
coedge $-1 $325 $330 $129 $209 forward $331 $-1 #
edge $-1 $332 7.9302535474596425 $333 16.547957440489554 $208 $334 forward 7 unknown #
loop $-1 $-1 $215 $130 #
plane-surface $-1 -55.538804284798729 -1.5074958580379985 9.2540405987480767 -0.64278761758704617 0 0.76604443648966558 0.76604443648966558 0 0.64278761758704617 forward_v I I I I #
loop $-1 $-1 $335 $83 #
coedge $-1 $213 $213 $214 $336 reversed $131 $-1 #
coedge $-1 $214 $214 $213 $336 forward $133 $-1 #
coedge $-1 $215 $215 $134 $216 forward $210 $-1 #
edge $-1 $337 0 $337 6.2831853071796004 $215 $338 forward 7 unknown #
loop $-1 $-1 $222 $135 #
plane-surface $-1 -55.538804284798729 -1.5074958580379985 9.2540405987480767 -0.64278761758704617 0 0.76604443648966558 0.76604443648966558 0 0.64278761758704617 forward_v I I I I #
loop $-1 $-1 $339 $86 #
coedge $-1 $220 $220 $221 $340 reversed $136 $-1 #
coedge $-1 $221 $221 $220 $340 forward $138 $-1 #
coedge $-1 $222 $222 $139 $223 forward $217 $-1 #
edge $-1 $341 0 $341 6.2831853071796004 $222 $342 forward 7 unknown #
loop $-1 $-1 $229 $140 #
plane-surface $-1 -55.538804284798729 -1.5074958580379985 9.2540405987480767 -0.64278761758704617 0 0.76604443648966558 0.76604443648966558 0 0.64278761758704617 forward_v I I I I #
loop $-1 $-1 $343 $89 #
coedge $-1 $227 $227 $228 $344 reversed $141 $-1 #
coedge $-1 $228 $228 $227 $344 forward $143 $-1 #
coedge $-1 $229 $229 $144 $230 forward $224 $-1 #
edge $-1 $345 0 $345 6.2831853071796004 $229 $346 forward 7 unknown #
face $-1 $347 $348 $48 $-1 $349 forward single #
loop $-1 $-1 $350 $145 #
plane-surface $-1 -126.93811566451674 34.250104678387089 94.344424662065009 0 -1 0 0.64278761758704617 0 -0.76604443648966558 forward_v I I I I #
coedge $-1 $351 $352 $353 $354 reversed $146 $-1 #
coedge $-1 $236 $148 $355 $356 reversed $93 $-1 #
coedge $-1 $148 $235 $351 $357 reversed $93 $-1 #
coedge $-1 $353 $358 $148 $238 forward $348 $-1 #
edge $-1 $359 7.9302535474596425 $360 16.547957440489554 $237 $361 forward 7 unknown #
loop $-1 $-1 $244 $149 #
plane-surface $-1 -55.538804284798729 29.811390638483502 9.2540405987480767 -0.64278761758704617 0 0.76604443648966558 0.76604443648966558 0 0.64278761758704617 forward_v I I I I #
loop $-1 $-1 $362 $95 #
coedge $-1 $242 $242 $243 $363 reversed $150 $-1 #
coedge $-1 $243 $243 $242 $363 forward $152 $-1 #
coedge $-1 $244 $244 $153 $245 forward $239 $-1 #
edge $-1 $364 0 $364 6.2831853071796004 $244 $365 forward 7 unknown #
loop $-1 $-1 $251 $154 #
plane-surface $-1 -55.538804284798729 29.811390638483502 9.2540405987480767 -0.64278761758704617 0 0.76604443648966558 0.76604443648966558 0 0.64278761758704617 forward_v I I I I #
loop $-1 $-1 $366 $98 #
coedge $-1 $249 $249 $250 $367 reversed $155 $-1 #
coedge $-1 $250 $250 $249 $367 forward $157 $-1 #
coedge $-1 $251 $251 $158 $252 forward $246 $-1 #
edge $-1 $368 0 $368 6.2831853071796004 $251 $369 forward 7 unknown #
loop $-1 $-1 $258 $159 #
plane-surface $-1 -55.538804284798729 29.811390638483502 9.2540405987480767 -0.64278761758704617 0 0.76604443648966558 0.76604443648966558 0 0.64278761758704617 forward_v I I I I #
loop $-1 $-1 $370 $101 #
coedge $-1 $256 $256 $257 $371 reversed $160 $-1 #
coedge $-1 $257 $257 $256 $371 forward $162 $-1 #
coedge $-1 $258 $258 $163 $259 forward $253 $-1 #
edge $-1 $372 0 $372 6.2831853071796004 $258 $373 forward 7 unknown #
face $-1 $374 $375 $39 $-1 $376 reversed single #
loop $-1 $-1 $377 $164 #
plane-surface $-1 -55.538804284798729 0 0 1 0 0 0 0 -1 forward_v I I I I #
coedge $-1 $378 $271 $379 $380 forward $165 $-1 #
coedge $-1 $381 $167 $378 $382 forward $105 $-1 #
coedge $-1 $167 $381 $383 $384 forward $105 $-1 #
coedge $-1 $274 $273 $167 $267 reversed $275 $-1 #
edge $-1 $385 -37.537804402421699 $386 37.537804402421699 $266 $387 forward 7 unknown #
coedge $-1 $169 $168 $388 $389 forward $66 $-1 #
coedge $-1 $390 $391 $168 $270 reversed $375 $-1 #
edge $-1 $277 -55.538804284798729 $392 55.538804284798729 $269 $393 forward 7 unknown #
coedge $-1 $263 $394 $169 $272 reversed $165 $-1 #
edge $-1 $395 -55.538804284798729 $276 55.538804284798729 $271 $396 forward 7 unknown #
coedge $-1 $266 $170 $394 $397 forward $275 $-1 #
coedge $-1 $170 $266 $390 $398 reversed $275 $-1 #
loop $-1 $-1 $273 $374 #
vertex $-1 $171 $399 #
vertex $-1 $171 $400 #
straight-curve $-1 55.538804284798729 0 16.48515290843984 0 1 0 I I #
face $-1 $401 $402 $40 $-1 $403 reversed single #
loop $-1 $-1 $404 $172 #
plane-surface $-1 0 0 16.48515290843984 0 0 1 1 0 0 forward_v I I I I #
coedge $-1 $405 $406 $407 $408 reversed $173 $-1 #
coedge $-1 $178 $175 $409 $410 reversed $109 $-1 #
coedge $-1 $175 $178 $411 $412 reversed $109 $-1 #
coedge $-1 $406 $405 $175 $286 reversed $173 $-1 #
edge $-1 $413 -16.48515290843984 $414 16.48515290843984 $285 $415 forward 7 unknown #
coedge $-1 $177 $176 $416 $417 reversed $69 $-1 #
coedge $-1 $409 $418 $176 $289 forward $402 $-1 #
edge $-1 $419 -21.878361154160952 $293 -9.4405253423605409 $288 $420 forward 7 unknown #
coedge $-1 $421 $411 $177 $291 forward $280 $-1 #
edge $-1 $292 9.4405253423605409 $422 21.878361154160952 $290 $423 forward 7 unknown #
vertex $-1 $291 $424 #
vertex $-1 $289 $425 #
straight-curve $-1 -27.889610203854737 -25.099968590621287 0 0 0 -1 I I #
face $-1 $-1 $307 $41 $-1 $426 forward single #
loop $-1 $-1 $427 $180 #
plane-surface $-1 55.538804284798729 0 0 -1 0 0 0 0 1 forward_v I I I I #
coedge $-1 $428 $429 $430 $431 reversed $181 $-1 #
coedge $-1 $432 $183 $185 $305 forward $113 $-1 #
coedge $-1 $183 $432 $428 $433 forward $113 $-1 #
coedge $-1 $430 $186 $183 $302 forward $307 $-1 #
edge $-1 $309 -16.626636881353615 $434 1.5212465962138673 $301 $435 forward 7 unknown #
coedge $-1 $436 $437 $184 $304 forward $296 $-1 #
edge $-1 $438 -78.429212993420563 $308 -62.077401237430891 $303 $439 forward 7 unknown #
edge $-1 $309 87.10128762935237 $438 111.07760856959744 $185 $440 forward 7 unknown #
coedge $-1 $186 $430 $436 $441 forward $307 $-1 #
loop $-1 $-1 $430 $295 #
vertex $-1 $304 $442 #
vertex $-1 $187 $443 #
straight-curve $-1 25.028266357548624 24.179332023923489 16.485152908439844 -1 0 0 I I #
coedge $-1 $311 $311 $-1 $444 reversed $190 $-1 #
edge $-1 $445 0 $445 6.2831853071796004 $191 $446 forward 7 unknown #
vertex $-1 $194 $447 #
ellipse-curve $-1 46.771218840015308 11.216558111375292 8.3092470304450039 0.68199836817093118 0 0.7313536940579346 1.0970305410869019 0 -1.0229975522563968 1 I I #
coedge $-1 $315 $315 $-1 $448 reversed $197 $-1 #
edge $-1 $449 0 $449 6.2831853071796004 $198 $450 forward 7 unknown #
vertex $-1 $201 $451 #
ellipse-curve $-1 46.771218840015308 18.994222458904211 8.3092470304450039 0.68199836817093118 0 0.7313536940579346 1.0970305410869019 0 -1.0229975522563968 1 I I #
face $-1 $-1 $331 $44 $-1 $452 forward single #
loop $-1 $-1 $453 $202 #
plane-surface $-1 -55.538804284798729 0 0 1 0 0 0 0 -1 forward_v I I I I #
coedge $-1 $454 $455 $456 $457 reversed $203 $-1 #
coedge $-1 $458 $205 $207 $329 forward $127 $-1 #
coedge $-1 $205 $458 $454 $459 forward $127 $-1 #
coedge $-1 $456 $208 $205 $326 forward $331 $-1 #
edge $-1 $333 -5.1924619689225899 $460 3.6849661108845915 $325 $461 forward 7 unknown #
coedge $-1 $462 $463 $206 $328 forward $320 $-1 #
edge $-1 $464 -37.918171732284428 $332 -30.687059422592665 $327 $465 forward 7 unknown #
edge $-1 $333 -11.249613576622028 $464 0 $207 $466 forward 7 unknown #
coedge $-1 $208 $456 $462 $467 forward $331 $-1 #
loop $-1 $-1 $456 $319 #
vertex $-1 $328 $468 #
vertex $-1 $209 $469 #
straight-curve $-1 -63.469057832258372 -5.9462098979415892 16.485152908439844 1 0 0 I I #
coedge $-1 $335 $335 $-1 $470 reversed $212 $-1 #
edge $-1 $471 0 $471 6.2831853071796004 $213 $472 forward 7 unknown #
vertex $-1 $216 $473 #
ellipse-curve $-1 -51.229952338283773 -4.1707242819801564 12.86959675359396 -0.64278761758704617 0 0.76604443648966558 0.38302221824483279 0 0.32139380879352308 1 I I #
coedge $-1 $339 $339 $-1 $474 reversed $219 $-1 #
edge $-1 $475 0 $475 6.2831853071796004 $220 $476 forward 7 unknown #
vertex $-1 $223 $477 #
ellipse-curve $-1 -51.229952338283773 -1.5074958580379985 12.86959675359396 -0.64278761758704617 0 0.76604443648966558 0.38302221824483279 0 0.32139380879352308 1 I I #
coedge $-1 $343 $343 $-1 $478 reversed $226 $-1 #
edge $-1 $479 0 $479 6.2831853071796004 $227 $480 forward 7 unknown #
vertex $-1 $230 $481 #
ellipse-curve $-1 -51.229952338283773 1.1557325659041595 12.86959675359396 -0.64278761758704617 0 0.76604443648966558 0.38302221824483279 0 0.32139380879352308 1 I I #
face $-1 $-1 $482 $48 $-1 $483 reversed single #
loop $-1 $-1 $237 $231 #
plane-surface $-1 0 0 16.48515290843984 0 0 1 1 0 0 forward_v I I I I #
coedge $-1 $484 $485 $486 $487 reversed $232 $-1 #
coedge $-1 $488 $234 $236 $357 forward $146 $-1 #
coedge $-1 $234 $488 $484 $489 forward $146 $-1 #
coedge $-1 $486 $237 $234 $354 forward $348 $-1 #
edge $-1 $360 10.46698127933816 $490 19.344409359145338 $353 $491 forward 7 unknown #
coedge $-1 $492 $493 $235 $356 forward $482 $-1 #
edge $-1 $494 -37.918171732284428 $359 -30.687059422592665 $355 $495 forward 7 unknown #
edge $-1 $360 -11.249613576622028 $494 0 $236 $496 forward 7 unknown #
coedge $-1 $237 $486 $492 $497 forward $348 $-1 #
vertex $-1 $356 $498 #
vertex $-1 $238 $499 #
straight-curve $-1 -63.469057832258372 25.372676598579911 16.485152908439844 1 0 0 I I #
coedge $-1 $362 $362 $-1 $500 reversed $241 $-1 #
edge $-1 $501 0 $501 6.2831853071796004 $242 $502 forward 7 unknown #
vertex $-1 $245 $503 #
ellipse-curve $-1 -51.229952338283773 27.148162214541344 12.86959675359396 -0.64278761758704617 0 0.76604443648966558 0.38302221824483279 0 0.32139380879352308 1 I I #
coedge $-1 $366 $366 $-1 $504 reversed $248 $-1 #
edge $-1 $505 0 $505 6.2831853071796004 $249 $506 forward 7 unknown #
vertex $-1 $252 $507 #
ellipse-curve $-1 -51.229952338283773 29.811390638483502 12.86959675359396 -0.64278761758704617 0 0.76604443648966558 0.38302221824483279 0 0.32139380879352308 1 I I #
coedge $-1 $370 $370 $-1 $508 reversed $255 $-1 #
edge $-1 $509 0 $509 6.2831853071796004 $256 $510 forward 7 unknown #
vertex $-1 $259 $511 #
ellipse-curve $-1 -51.229952338283773 32.47461906242566 12.86959675359396 -0.64278761758704617 0 0.76604443648966558 0.38302221824483279 0 0.32139380879352308 1 I I #
face $-1 $-1 $275 $39 $-1 $512 reversed single #
loop $-1 $-1 $390 $260 #
plane-surface $-1 0 37.537804402421699 0 0 -1 0 0 0 -1 forward_v I I I I #
coedge $-1 $513 $388 $391 $514 forward $261 $-1 #
coedge $-1 $394 $263 $264 $382 reversed $165 $-1 #
coedge $-1 $388 $513 $263 $380 reversed $261 $-1 #
edge $-1 $395 -16.48515290843984 $515 16.48515290843984 $379 $516 forward 7 unknown #
coedge $-1 $265 $264 $513 $517 forward $105 $-1 #
edge $-1 $386 -55.538804284798729 $515 55.538804284798729 $378 $518 forward 7 unknown #
coedge $-1 $391 $390 $265 $384 reversed $375 $-1 #
edge $-1 $519 -55.538804284798729 $385 55.538804284798729 $383 $520 forward 7 unknown #
vertex $-1 $267 $521 #
vertex $-1 $397 $522 #
straight-curve $-1 55.538804284798729 0 -16.48515290843984 0 -1 0 I I #
coedge $-1 $377 $379 $268 $389 reversed $261 $-1 #
edge $-1 $392 -37.537804402421699 $395 37.537804402421699 $388 $523 forward 7 unknown #
coedge $-1 $383 $269 $274 $398 forward $375 $-1 #
coedge $-1 $269 $383 $377 $514 reversed $375 $-1 #
vertex $-1 $270 $524 #
straight-curve $-1 0 37.537804402421699 16.48515290843984 -1 0 0 I I #
coedge $-1 $271 $378 $273 $397 reversed $165 $-1 #
vertex $-1 $389 $525 #
straight-curve $-1 0 -37.537804402421699 16.48515290843984 1 0 0 I I #
edge $-1 $276 -16.48515290843984 $386 16.48515290843984 $273 $526 forward 7 unknown #
edge $-1 $277 -16.48515290843984 $385 16.48515290843984 $274 $527 forward 7 unknown #
point $-1 55.538804284798729 -37.537804402421699 16.48515290843984 #
point $-1 55.538804284798729 37.537804402421699 16.48515290843984 #
face $-1 $-1 $528 $40 $-1 $529 reversed single #
loop $-1 $-1 $530 $279 #
plane-surface $-1 0 0 -16.48515290843984 0 0 1 1 0 0 forward_v I I I I #
coedge $-1 $411 $421 $406 $531 forward $280 $-1 #
coedge $-1 $285 $282 $530 $532 reversed $173 $-1 #
coedge $-1 $282 $285 $404 $531 reversed $173 $-1 #
coedge $-1 $533 $534 $282 $408 forward $528 $-1 #
edge $-1 $535 -16.48515290843984 $536 16.48515290843984 $407 $537 forward 7 unknown #
coedge $-1 $530 $288 $283 $410 forward $402 $-1 #
edge $-1 $293 -15.27508303591129 $414 -9.9539712999756027 $409 $538 forward 7 unknown #
coedge $-1 $290 $404 $284 $412 forward $280 $-1 #
edge $-1 $413 9.9539712999756027 $292 15.27508303591129 $411 $539 forward 7 unknown #
vertex $-1 $412 $540 #
vertex $-1 $410 $541 #
straight-curve $-1 -22.568498467919049 -25.099968590621287 0 0 0 -1 I I #
coedge $-1 $534 $533 $287 $417 forward $528 $-1 #
edge $-1 $422 -16.48515290843984 $419 16.48515290843984 $416 $542 forward 7 unknown #
coedge $-1 $288 $530 $534 $543 forward $402 $-1 #
vertex $-1 $289 $544 #
straight-curve $-1 -27.889610203854737 -15.659443248260747 -16.48515290843984 0 1 0 I I #
coedge $-1 $404 $290 $533 $545 forward $280 $-1 #
vertex $-1 $545 $546 #
straight-curve $-1 -27.889610203854737 -15.659443248260747 16.48515290843984 0 -1 0 I I #
point $-1 -27.889610203854737 -25.099968590621287 16.48515290843984 #
point $-1 -27.889610203854737 -25.099968590621287 -16.48515290843984 #
plane-surface $-1 0 0 16.48515290843984 0 0 1 1 0 0 forward_v I I I I #
coedge $-1 $437 $436 $429 $547 forward $296 $-1 #
coedge $-1 $429 $298 $300 $433 reversed $181 $-1 #
coedge $-1 $298 $428 $427 $547 reversed $181 $-1 #
coedge $-1 $306 $301 $298 $431 forward $307 $-1 #
edge $-1 $434 12.975367037683263 $548 30.510537927250105 $430 $549 forward 7 unknown #
coedge $-1 $300 $299 $437 $550 reversed $113 $-1 #
edge $-1 $551 -111.07760856959744 $434 -87.10128762935237 $428 $552 forward 7 unknown #
vertex $-1 $302 $553 #
straight-curve $-1 38.003633395231887 7.5526951425698741 16.485152908439844 0 -1 0 I I #
coedge $-1 $427 $303 $306 $441 reversed $296 $-1 #
coedge $-1 $303 $427 $432 $550 forward $296 $-1 #
vertex $-1 $304 $554 #
straight-curve $-1 55.538804284798729 24.179332023923489 78.562554145870735 0 0 1 I I #
straight-curve $-1 -25.698215069697653 24.179332023923489 75.888088937245072 0.7313536940579346 0 -0.68199836817093118 I I #
edge $-1 $548 6.0314485463560068 $308 24.179332023923489 $436 $555 forward 7 unknown #
point $-1 55.538804284798729 24.179332023923489 16.48515290843984 #
point $-1 38.003633395231887 24.179332023923489 16.485152908439844 #
edge $-1 $556 1 $556 0 $311 $-1 forward 7 unknown #
vertex $-1 $312 $557 #
ellipse-curve $-1 43.525456502137807 11.216558111375292 4.8285931364962806 0.68199836817093118 0 0.7313536940579346 1.0970305410869019 0 -1.0229975522563968 1 I I #
point $-1 47.868249381102203 11.216558111375292 7.2862494781885996 #
edge $-1 $558 1 $558 0 $315 $-1 forward 7 unknown #
vertex $-1 $316 $559 #
ellipse-curve $-1 43.525456502137807 18.994222458904211 4.8285931364962806 0.68199836817093118 0 0.7313536940579346 1.0970305410869019 0 -1.0229975522563968 1 I I #
point $-1 47.868249381102203 18.994222458904211 7.2862494781885996 #
plane-surface $-1 0 0 16.48515290843984 0 0 1 1 0 0 forward_v I I I I #
coedge $-1 $463 $462 $455 $560 forward $320 $-1 #
coedge $-1 $455 $322 $324 $459 reversed $203 $-1 #
coedge $-1 $322 $454 $453 $560 reversed $203 $-1 #
coedge $-1 $330 $325 $322 $457 forward $331 $-1 #
edge $-1 $460 -16.547957440489554 $561 -7.9302535474596425 $456 $562 forward 7 unknown #
coedge $-1 $324 $323 $463 $563 reversed $127 $-1 #
edge $-1 $564 0 $460 11.249613576622028 $454 $565 forward 7 unknown #
vertex $-1 $326 $566 #
straight-curve $-1 -46.921100391768817 -0.75374792901899923 16.485152908439844 0 1 0 I I #
coedge $-1 $453 $327 $330 $467 reversed $320 $-1 #
coedge $-1 $327 $453 $458 $563 forward $320 $-1 #
vertex $-1 $328 $567 #
straight-curve $-1 -55.538804284798729 -5.9462098979415892 47.172212331032505 0 0 1 I I #
straight-curve $-1 -55.538804284798729 -5.9462098979415892 9.2540405987480767 -0.76604443648966558 0 -0.64278761758704617 I I #
edge $-1 $561 -2.9312181818655922 $332 5.9462098979415892 $462 $568 forward 7 unknown #
point $-1 -55.538804284798729 -5.9462098979415892 16.48515290843984 #
point $-1 -46.921100391768817 -5.9462098979415892 16.48515290843984 #
edge $-1 $569 1 $569 0 $335 $-1 forward 7 unknown #
vertex $-1 $336 $570 #
ellipse-curve $-1 -50.496985739464151 -4.1707242819801564 11.996081194494867 -0.64278761758704617 0 0.76604443648966558 0.38302221824483279 0 0.32139380879352308 1 I I #
point $-1 -50.846930120038934 -4.1707242819801564 13.190990562387478 #
edge $-1 $571 1 $571 0 $339 $-1 forward 7 unknown #
vertex $-1 $340 $572 #
ellipse-curve $-1 -50.496985739464151 -1.5074958580379985 11.996081194494867 -0.64278761758704617 0 0.76604443648966558 0.38302221824483279 0 0.32139380879352308 1 I I #
point $-1 -50.846930120038934 -1.5074958580379985 13.190990562387478 #
edge $-1 $573 1 $573 0 $343 $-1 forward 7 unknown #
vertex $-1 $344 $574 #
ellipse-curve $-1 -50.496985739464151 1.1557325659041595 11.996081194494867 -0.64278761758704617 0 0.76604443648966558 0.38302221824483279 0 0.32139380879352308 1 I I #
point $-1 -50.846930120038934 1.1557325659041595 13.190990562387478 #
loop $-1 $-1 $355 $347 #
plane-surface $-1 -55.538804284798729 0 0 1 0 0 0 0 -1 forward_v I I I I #
coedge $-1 $485 $350 $352 $489 reversed $232 $-1 #
coedge $-1 $350 $484 $575 $576 reversed $232 $-1 #
coedge $-1 $358 $353 $350 $487 forward $348 $-1 #
edge $-1 $490 -16.547957440489554 $577 -7.9302535474596425 $486 $578 forward 7 unknown #
coedge $-1 $352 $351 $493 $579 reversed $146 $-1 #
edge $-1 $580 0 $490 11.249613576622028 $484 $581 forward 7 unknown #
vertex $-1 $354 $582 #
straight-curve $-1 -46.921100391768817 14.905695319241751 16.485152908439844 0 1 0 I I #
coedge $-1 $575 $355 $358 $497 reversed $482 $-1 #
coedge $-1 $355 $575 $488 $579 forward $482 $-1 #
vertex $-1 $356 $583 #
straight-curve $-1 -55.538804284798729 25.372676598579911 47.172212331032505 0 0 1 I I #
straight-curve $-1 -55.538804284798729 25.372676598579911 9.2540405987480767 -0.76604443648966558 0 -0.64278761758704617 I I #
edge $-1 $577 -34.250104678387089 $359 -25.372676598579911 $492 $584 forward 7 unknown #
point $-1 -55.538804284798729 25.372676598579911 16.48515290843984 #
point $-1 -46.921100391768817 25.372676598579911 16.48515290843984 #
edge $-1 $585 1 $585 0 $362 $-1 forward 7 unknown #
vertex $-1 $363 $586 #
ellipse-curve $-1 -50.496985739464151 27.148162214541344 11.996081194494867 -0.64278761758704617 0 0.76604443648966558 0.38302221824483279 0 0.32139380879352308 1 I I #
point $-1 -50.846930120038934 27.148162214541344 13.190990562387478 #
edge $-1 $587 1 $587 0 $366 $-1 forward 7 unknown #
vertex $-1 $367 $588 #
ellipse-curve $-1 -50.496985739464151 29.811390638483502 11.996081194494867 -0.64278761758704617 0 0.76604443648966558 0.38302221824483279 0 0.32139380879352308 1 I I #
point $-1 -50.846930120038934 29.811390638483502 13.190990562387478 #
edge $-1 $589 1 $589 0 $370 $-1 forward 7 unknown #
vertex $-1 $371 $590 #
ellipse-curve $-1 -50.496985739464151 32.47461906242566 11.996081194494867 -0.64278761758704617 0 0.76604443648966558 0.38302221824483279 0 0.32139380879352308 1 I I #
point $-1 -50.846930120038934 32.47461906242566 13.190990562387478 #
plane-surface $-1 55.538804284798729 0 0 -1 0 0 0 0 1 forward_v I I I I #
coedge $-1 $379 $377 $381 $517 reversed $261 $-1 #
edge $-1 $392 -16.48515290843984 $519 16.48515290843984 $391 $591 forward 7 unknown #
vertex $-1 $517 $592 #
straight-curve $-1 -55.538804284798729 -37.537804402421699 0 0 0 -1 I I #
edge $-1 $515 -37.537804402421699 $519 37.537804402421699 $513 $593 forward 7 unknown #
straight-curve $-1 0 -37.537804402421699 -16.48515290843984 -1 0 0 I I #
vertex $-1 $384 $594 #
straight-curve $-1 0 37.537804402421699 -16.48515290843984 1 0 0 I I #
point $-1 55.538804284798729 37.537804402421699 -16.48515290843984 #
point $-1 55.538804284798729 -37.537804402421699 -16.48515290843984 #
straight-curve $-1 -55.538804284798729 0 16.48515290843984 0 -1 0 I I #
point $-1 -55.538804284798729 37.537804402421699 16.48515290843984 #
point $-1 -55.538804284798729 -37.537804402421699 16.48515290843984 #
straight-curve $-1 55.538804284798729 -37.537804402421699 0 0 0 -1 I I #
straight-curve $-1 55.538804284798729 37.537804402421699 0 0 0 -1 I I #
loop $-1 $-1 $407 $401 #
plane-surface $-1 0 -37.537804402421699 0 0 1 0 0 0 1 forward_v I I I I #
coedge $-1 $418 $409 $405 $532 forward $402 $-1 #
edge $-1 $536 -21.878361154160952 $413 -9.4405253423605409 $404 $595 forward 7 unknown #
edge $-1 $414 9.4405253423605409 $535 21.878361154160952 $530 $596 forward 7 unknown #
coedge $-1 $416 $407 $421 $545 reversed $528 $-1 #
coedge $-1 $407 $416 $418 $543 reversed $528 $-1 #
vertex $-1 $543 $597 #
vertex $-1 $408 $598 #
straight-curve $-1 -22.568498467919049 -37.537804402421699 0 0 0 1 I I #
straight-curve $-1 -12.614527167943447 -25.099968590621287 -16.48515290843984 1 0 0 I I #
straight-curve $-1 -12.614527167943447 -25.099968590621287 16.48515290843984 -1 0 0 I I #
point $-1 -22.568498467919049 -25.099968590621287 16.48515290843984 #
point $-1 -22.568498467919049 -25.099968590621287 -16.48515290843984 #
straight-curve $-1 -27.889610203854737 -37.537804402421699 0 0 0 -1 I I #
edge $-1 $535 22.568498467919049 $419 27.889610203854737 $534 $599 forward 7 unknown #
point $-1 -27.889610203854737 -37.537804402421699 -16.48515290843984 #
edge $-1 $422 -27.889610203854737 $536 -22.568498467919049 $533 $600 forward 7 unknown #
point $-1 -27.889610203854737 -37.537804402421699 16.48515290843984 #
edge $-1 $548 62.077401237430891 $551 78.429212993420563 $427 $601 forward 7 unknown #
vertex $-1 $441 $602 #
straight-curve $-1 25.028266357548624 6.0314485463560068 16.485152908439844 1 0 0 I I #
edge $-1 $551 -1.5212465962138673 $438 16.626636881353615 $437 $603 forward 7 unknown #
vertex $-1 $550 $604 #
straight-curve $-1 -25.698215069697653 6.0314485463560068 75.888088937245072 -0.7313536940579346 0 0.68199836817093118 I I #
point $-1 38.003633395231887 6.0314485463560068 16.485152908439844 #
point $-1 55.538804284798729 24.179332023923489 0.13334115245017131 #
straight-curve $-1 55.538804284798729 0 16.48515290843984 0 1 0 I I #
vertex $-1 $444 $605 #
point $-1 44.622487043224709 11.216558111375292 3.8055955842398839 #
vertex $-1 $448 $606 #
point $-1 44.622487043224709 18.994222458904211 3.8055955842398839 #
edge $-1 $561 30.687059422592665 $564 37.918171732284428 $453 $607 forward 7 unknown #
vertex $-1 $467 $608 #
straight-curve $-1 -63.469057832258372 2.9312181818655922 16.485152908439844 -1 0 0 I I #
edge $-1 $564 -3.6849661108845915 $464 5.1924619689225899 $463 $609 forward 7 unknown #
vertex $-1 $563 $610 #
straight-curve $-1 -55.538804284798729 2.9312181818655922 9.2540405987480767 0.76604443648966558 0 0.64278761758704617 I I #
point $-1 -46.921100391768817 2.9312181818655922 16.48515290843984 #
point $-1 -55.538804284798729 -5.9462098979415892 9.2540405987480767 #
straight-curve $-1 -55.538804284798729 0 16.48515290843984 0 -1 0 I I #
vertex $-1 $470 $611 #
point $-1 -50.113963521219318 -4.1707242819801564 12.31747500328839 #
vertex $-1 $474 $612 #
point $-1 -50.113963521219318 -1.5074958580379985 12.31747500328839 #
vertex $-1 $478 $613 #
point $-1 -50.113963521219318 1.1557325659041595 12.31747500328839 #
coedge $-1 $493 $492 $485 $576 forward $482 $-1 #
edge $-1 $577 30.687059422592665 $580 37.918171732284428 $575 $614 forward 7 unknown #
vertex $-1 $497 $615 #
straight-curve $-1 -63.469057832258372 34.250104678387089 16.485152908439844 -1 0 0 I I #
edge $-1 $580 -19.344409359145338 $494 -10.46698127933816 $493 $616 forward 7 unknown #
vertex $-1 $579 $617 #
straight-curve $-1 -55.538804284798729 34.250104678387089 9.2540405987480767 0.76604443648966558 0 0.64278761758704617 I I #
point $-1 -46.921100391768817 34.250104678387089 16.48515290843984 #
point $-1 -55.538804284798729 25.372676598579911 9.2540405987480767 #
straight-curve $-1 -55.538804284798729 0 16.48515290843984 0 -1 0 I I #
vertex $-1 $500 $618 #
point $-1 -50.113963521219318 27.148162214541344 12.31747500328839 #
vertex $-1 $504 $619 #
point $-1 -50.113963521219318 29.811390638483502 12.31747500328839 #
vertex $-1 $508 $620 #
point $-1 -50.113963521219318 32.47461906242566 12.31747500328839 #
straight-curve $-1 -55.538804284798729 37.537804402421699 0 0 0 -1 I I #
point $-1 -55.538804284798729 -37.537804402421699 -16.48515290843984 #
straight-curve $-1 -55.538804284798729 0 -16.48515290843984 0 1 0 I I #
point $-1 -55.538804284798729 37.537804402421699 -16.48515290843984 #
straight-curve $-1 -22.568498467919049 -15.659443248260747 16.48515290843984 0 1 0 I I #
straight-curve $-1 -22.568498467919049 -15.659443248260747 -16.48515290843984 0 -1 0 I I #
point $-1 -22.568498467919049 -37.537804402421699 -16.48515290843984 #
point $-1 -22.568498467919049 -37.537804402421699 16.48515290843984 #
straight-curve $-1 0 -37.537804402421699 -16.48515290843984 -1 0 0 I I #
straight-curve $-1 0 -37.537804402421699 16.48515290843984 1 0 0 I I #
straight-curve $-1 55.538804284798729 6.0314485463560068 78.562554145870735 0 0 -1 I I #
point $-1 55.538804284798729 6.0314485463560068 16.48515290843984 #
straight-curve $-1 55.538804284798722 7.5526951425698741 0.13334115245017131 0 1 0 I I #
point $-1 55.538804284798729 6.0314485463560068 0.13334115245017131 #
point $-1 42.502458949881408 11.216558111375292 3.731562595409379 #
point $-1 42.502458949881408 18.994222458904211 3.731562595409379 #
straight-curve $-1 -55.538804284798729 2.9312181818655922 47.172212331032505 0 0 -1 I I #
point $-1 -55.538804284798729 2.9312181818655922 16.48515290843984 #
straight-curve $-1 -55.538804284798729 -0.75374792901899923 9.2540405987480767 0 -1 0 I I #
point $-1 -55.538804284798729 2.9312181818655922 9.2540405987480767 #
point $-1 -50.175591930670635 -4.1707242819801564 11.613058976250034 #
point $-1 -50.175591930670635 -1.5074958580379985 11.613058976250034 #
point $-1 -50.175591930670635 1.1557325659041595 11.613058976250034 #
straight-curve $-1 -55.538804284798729 34.250104678387089 47.172212331032505 0 0 -1 I I #
point $-1 -55.538804284798729 34.250104678387089 16.48515290843984 #
straight-curve $-1 -55.538804284798729 14.905695319241751 9.2540405987480767 0 -1 0 I I #
point $-1 -55.538804284798729 34.250104678387089 9.2540405987480767 #
point $-1 -50.175591930670635 27.148162214541344 11.613058976250034 #
point $-1 -50.175591930670635 29.811390638483502 11.613058976250034 #
point $-1 -50.175591930670635 32.47461906242566 11.613058976250034 #
End-of-ACIS-data 