500 0 8 0           
7 Unknown 11 ACIS 5.0 NT 24 Thu Mar 25 21:07:07 1999 
-1 9.9999999999999995e-007 1e-010 
body $-1 $8 $-1 $9 #
body $-1 $10 $-1 $11 #
body $-1 $12 $-1 $13 #
body $-1 $14 $-1 $15 #
body $-1 $16 $-1 $17 #
body $-1 $18 $-1 $19 #
body $-1 $20 $-1 $21 #
body $-1 $22 $-1 $23 #
lump $-1 $-1 $24 $0 #
transform $-1 1 0 0 0 1 0 0 0 1 59.435407574694054 24.07182074596415 10.887012992550137 1 rotate no_reflect no_shear #
lump $-1 $-1 $25 $1 #
transform $-1 1 0 0 0 1 0 0 0 1 59.435407574694054 24.07182074596415 10.887012992550137 1 rotate no_reflect no_shear #
lump $-1 $-1 $26 $2 #
transform $-1 1 0 0 0 1 0 0 0 1 59.435407574694054 24.07182074596415 10.887012992550137 1 rotate no_reflect no_shear #
lump $-1 $-1 $27 $3 #
transform $-1 1 0 0 0 1 0 0 0 1 59.435407574694054 24.07182074596415 10.887012992550137 1 rotate no_reflect no_shear #
lump $-1 $-1 $28 $4 #
transform $-1 1 0 0 0 1 0 0 0 1 59.435407574694054 24.07182074596415 10.887012992550137 1 rotate no_reflect no_shear #
lump $-1 $-1 $29 $5 #
transform $-1 1 0 0 0 1 0 0 0 1 59.435407574694054 24.07182074596415 10.887012992550137 1 rotate no_reflect no_shear #
lump $-1 $-1 $30 $6 #
transform $-1 1 0 0 0 1 0 0 0 1 59.435407574694054 24.07182074596415 10.887012992550137 1 rotate no_reflect no_shear #
lump $-1 $-1 $31 $7 #
transform $-1 1 0 0 0 1 0 0 0 1 59.435407574694054 24.07182074596415 10.887012992550137 1 rotate no_reflect no_shear #
shell $-1 $-1 $-1 $32 $-1 $8 #
shell $-1 $-1 $-1 $33 $-1 $10 #
shell $-1 $-1 $-1 $34 $-1 $12 #
shell $-1 $-1 $-1 $35 $-1 $14 #
shell $-1 $-1 $-1 $36 $-1 $16 #
shell $-1 $-1 $-1 $37 $-1 $18 #
shell $-1 $-1 $-1 $38 $-1 $20 #
shell $-1 $-1 $-1 $39 $-1 $22 #
face $-1 $40 $41 $24 $-1 $42 forward single #
face $-1 $43 $44 $25 $-1 $45 reversed single #
face $-1 $46 $47 $26 $-1 $48 reversed single #
face $-1 $49 $50 $27 $-1 $51 reversed single #
face $-1 $52 $53 $28 $-1 $54 forward single #
face $-1 $55 $56 $29 $-1 $57 reversed single #
face $-1 $58 $59 $30 $-1 $60 forward single #
face $-1 $61 $62 $31 $-1 $63 forward single #
face $-1 $64 $65 $24 $-1 $66 reversed single #
loop $-1 $-1 $67 $32 #
plane-surface $-1 0 0 10.887012992550137 0 0 1 1 0 0 forward_v I I I I #
face $-1 $68 $69 $25 $-1 $70 reversed single #
loop $-1 $-1 $71 $33 #
plane-surface $-1 0 -19.449108044861237 4.6740361941587061 0 0 1 1 0 0 forward_v I I I I #
face $-1 $72 $73 $26 $-1 $74 reversed single #
loop $-1 $-1 $75 $34 #
plane-surface $-1 0 19.449108044861237 4.6740361941587061 0 0 1 1 0 0 forward_v I I I I #
face $-1 $76 $77 $27 $-1 $78 reversed single #
loop $-1 $-1 $79 $35 #
plane-surface $-1 65.302319293449685 -0.90679857231435435 170.78326611828973 0 -1 0 -0.73135370988377701 0 -0.68199835119979291 forward_v I I I I #
face $-1 $80 $81 $28 $-1 $82 forward single #
loop $-1 $83 $84 $36 #
cone-surface $-1 54.90252879896012 -3.9366256867011167 6.1311959540287759 -0.73135370988377701 0 -0.68199835119979291 1.0229975267996894 0 -1.0970305648256655 1 I I 0 1 1.5 forward I I I I #
face $-1 $85 $86 $29 $-1 $87 reversed single #
loop $-1 $-1 $88 $37 #
plane-surface $-1 -59.435407574694025 -10.920446456117713 5.0075203191324391 -0.82903758062907751 0 0.55919289150049634 0.55919289150049634 0 0.82903758062907751 forward_v I I I I #
face $-1 $89 $90 $30 $-1 $91 forward single #
loop $-1 $92 $93 $38 #
cone-surface $-1 -56.357838356617719 -12.594424550820833 7.2088920948468109 0.82903758062907751 0 -0.55919289150049634 0.55919289150049634 0 0.82903758062907751 1 I I 0 1 1 forward I I I I #
face $-1 $94 $95 $31 $-1 $96 forward single #
loop $-1 $97 $98 $39 #
cone-surface $-1 -56.357838356617719 -9.2464683614145926 7.2088920948468109 0.82903758062907751 0 -0.55919289150049634 0.55919289150049634 0 0.82903758062907751 1 I I 0 1 1 forward I I I I #
face $-1 $99 $100 $24 $-1 $101 reversed single #
loop $-1 $-1 $102 $40 #
plane-surface $-1 0 0 -10.887012992550137 0 0 1 1 0 0 forward_v I I I I #
coedge $-1 $103 $104 $105 $106 forward $41 $-1 #
face $-1 $107 $108 $25 $-1 $109 reversed single #
loop $-1 $-1 $110 $43 #
plane-surface $-1 0 -14.826395343758325 7.7805245933544214 0 -1 0 0 0 -1 forward_v I I I I #
coedge $-1 $111 $112 $113 $114 reversed $44 $-1 #
face $-1 $115 $116 $26 $-1 $117 forward single #
loop $-1 $-1 $118 $46 #
plane-surface $-1 0 14.826395343758325 7.7805245933544214 0 1 0 0 0 1 forward_v I I I I #
coedge $-1 $119 $120 $121 $122 reversed $47 $-1 #
face $-1 $123 $124 $27 $-1 $125 reversed single #
loop $-1 $-1 $126 $49 #
plane-surface $-1 -21.63429236296399 -3.9366256867011167 89.713566180631673 0.73135370988377701 0 0.68199835119979291 0.68199835119979291 0 -0.73135370988377701 forward_v I I I I #
coedge $-1 $127 $128 $129 $130 reversed $50 $-1 #
face $-1 $-1 $131 $28 $-1 $132 forward single #
loop $-1 $133 $134 $52 #
cone-surface $-1 53.602510584531558 -3.9366256867011167 4.9189093862736577 -0.73135370988377701 0 -0.68199835119979291 0.51149876339984468 0 -0.54851528241283276 1 I I -0.70710678118654757 0.70710678118654757 0.75 forward I I I I #
loop $-1 $-1 $135 $36 #
coedge $-1 $84 $84 $136 $137 reversed $53 $-1 #
face $-1 $138 $139 $29 $-1 $140 reversed single #
loop $-1 $-1 $141 $55 #
plane-surface $-1 -157.98378057354904 -7.0144975684770996 71.479235157539776 0 -1 0 0.82903758062907751 0 -0.55919289150049634 forward_v I I I I #
coedge $-1 $142 $143 $144 $145 reversed $56 $-1 #
face $-1 $-1 $146 $30 $-1 $147 forward single #
loop $-1 $148 $149 $58 #
cone-surface $-1 -54.848634227935676 -12.594424550820833 6.1909210881020798 0.82903758062907751 0 -0.55919289150049634 0.27959644575024817 0 0.41451879031453875 1 I I -0.70710678118654746 0.70710678118654746 0.5 forward I I I I #
loop $-1 $-1 $150 $38 #
coedge $-1 $93 $93 $151 $152 reversed $59 $-1 #
face $-1 $-1 $153 $31 $-1 $154 forward single #
loop $-1 $155 $156 $61 #
cone-surface $-1 -54.848634227935676 -9.2464683614145926 6.1909210881020798 0.82903758062907751 0 -0.55919289150049634 0.27959644575024817 0 0.41451879031453875 1 I I -0.70710678118654746 0.70710678118654746 0.5 forward I I I I #
loop $-1 $-1 $157 $39 #
coedge $-1 $98 $98 $158 $159 reversed $62 $-1 #
face $-1 $160 $161 $24 $-1 $162 reversed single #
loop $-1 $-1 $163 $64 #
plane-surface $-1 0 -24.07182074596415 0 0 1 0 0 0 1 forward_v I I I I #
coedge $-1 $164 $165 $166 $167 forward $65 $-1 #
coedge $-1 $168 $67 $169 $170 forward $41 $-1 #
coedge $-1 $67 $168 $171 $172 forward $41 $-1 #
coedge $-1 $173 $174 $67 $106 reversed $175 $-1 #
edge $-1 $176 -24.07182074596415 $177 24.07182074596415 $105 $178 forward 7 unknown #
face $-1 $179 $180 $25 $-1 $181 reversed single #
loop $-1 $-1 $182 $68 #
plane-surface $-1 -59.435407574694054 0 0 1 0 0 0 0 -1 forward_v I I I I #
coedge $-1 $183 $184 $185 $186 reversed $69 $-1 #
coedge $-1 $187 $71 $188 $189 reversed $44 $-1 #
coedge $-1 $71 $187 $183 $190 forward $44 $-1 #
coedge $-1 $185 $191 $71 $114 forward $192 $-1 #
edge $-1 $193 -14.347266723533531 $194 -5.1018413213277061 $113 $195 forward 7 unknown #
face $-1 $196 $197 $26 $-1 $198 reversed single #
loop $-1 $-1 $199 $72 #
plane-surface $-1 0 0 10.887012992550137 0 0 1 1 0 0 forward_v I I I I #
coedge $-1 $200 $201 $202 $203 reversed $73 $-1 #
coedge $-1 $204 $75 $200 $205 forward $47 $-1 #
coedge $-1 $75 $204 $206 $207 reversed $47 $-1 #
coedge $-1 $208 $209 $75 $122 forward $197 $-1 #
edge $-1 $210 5.1018413213277061 $211 14.347266723533531 $121 $212 forward 7 unknown #
face $-1 $213 $214 $27 $-1 $215 forward single #
loop $-1 $-1 $216 $76 #
plane-surface $-1 65.302319293449685 -6.966452801087879 170.78326611828973 0 1 0 0.73135370988377701 0 0.68199835119979291 forward_v I I I I #
coedge $-1 $217 $218 $219 $220 reversed $77 $-1 #
coedge $-1 $128 $79 $221 $222 reversed $50 $-1 #
coedge $-1 $79 $127 $217 $223 reversed $50 $-1 #
coedge $-1 $219 $224 $79 $130 forward $214 $-1 #
edge $-1 $225 -26.784247927969211 $226 -19.22149624053278 $129 $227 forward 7 unknown #
loop $-1 $-1 $136 $80 #
plane-surface $-1 -21.63429236296399 -3.9366256867011167 89.713566180631673 0.73135370988377701 0 0.68199835119979291 0.68199835119979291 0 -0.73135370988377701 forward_v I I I I #
loop $-1 $-1 $228 $52 #
coedge $-1 $134 $134 $135 $229 reversed $81 $-1 #
coedge $-1 $135 $135 $134 $229 forward $83 $-1 #
coedge $-1 $136 $136 $84 $137 forward $131 $-1 #
edge $-1 $230 0 $230 6.2831853071796004 $136 $231 forward 7 unknown #
face $-1 $232 $233 $29 $-1 $234 forward single #
loop $-1 $-1 $235 $85 #
plane-surface $-1 -59.435407574694054 0 0 1 0 0 0 0 -1 forward_v I I I I #
coedge $-1 $236 $237 $238 $239 reversed $86 $-1 #
coedge $-1 $240 $88 $241 $242 reversed $56 $-1 #
coedge $-1 $88 $240 $236 $243 forward $56 $-1 #
coedge $-1 $238 $244 $88 $145 forward $233 $-1 #
edge $-1 $245 -9.3661721156994684 $246 -1.5542743404182433 $144 $247 forward 7 unknown #
loop $-1 $-1 $151 $89 #
plane-surface $-1 -59.435407574694025 -10.920446456117713 5.0075203191324391 -0.82903758062907751 0 0.55919289150049634 0.55919289150049634 0 0.82903758062907751 forward_v I I I I #
loop $-1 $-1 $248 $58 #
coedge $-1 $149 $149 $150 $249 reversed $90 $-1 #
coedge $-1 $150 $150 $149 $249 forward $92 $-1 #
coedge $-1 $151 $151 $93 $152 forward $146 $-1 #
edge $-1 $250 0 $250 6.2831853071796004 $151 $251 forward 7 unknown #
loop $-1 $-1 $158 $94 #
plane-surface $-1 -59.435407574694025 -10.920446456117713 5.0075203191324391 -0.82903758062907751 0 0.55919289150049634 0.55919289150049634 0 0.82903758062907751 forward_v I I I I #
loop $-1 $-1 $252 $61 #
coedge $-1 $156 $156 $157 $253 reversed $95 $-1 #
coedge $-1 $157 $157 $156 $253 forward $97 $-1 #
coedge $-1 $158 $158 $98 $159 forward $153 $-1 #
edge $-1 $254 0 $254 6.2831853071796004 $158 $255 forward 7 unknown #
face $-1 $256 $257 $24 $-1 $258 reversed single #
loop $-1 $-1 $259 $99 #
plane-surface $-1 -59.435407574694054 0 0 1 0 0 0 0 -1 forward_v I I I I #
coedge $-1 $260 $171 $261 $262 forward $100 $-1 #
coedge $-1 $263 $102 $260 $264 forward $65 $-1 #
coedge $-1 $102 $263 $265 $266 forward $65 $-1 #
coedge $-1 $174 $173 $102 $167 reversed $175 $-1 #
edge $-1 $267 -24.07182074596415 $268 24.07182074596415 $166 $269 forward 7 unknown #
coedge $-1 $104 $103 $270 $271 forward $41 $-1 #
coedge $-1 $272 $273 $103 $170 reversed $257 $-1 #
edge $-1 $177 -59.435407574694054 $274 59.435407574694054 $169 $275 forward 7 unknown #
coedge $-1 $163 $276 $104 $172 reversed $100 $-1 #
edge $-1 $277 -59.435407574694054 $176 59.435407574694054 $171 $278 forward 7 unknown #
coedge $-1 $166 $105 $276 $279 forward $175 $-1 #
coedge $-1 $105 $166 $272 $280 reversed $175 $-1 #
loop $-1 $-1 $173 $256 #
vertex $-1 $106 $281 #
vertex $-1 $106 $282 #
straight-curve $-1 59.435407574694054 0 10.887012992550137 0 1 0 I I #
face $-1 $283 $284 $25 $-1 $285 forward single #
loop $-1 $-1 $188 $107 #
plane-surface $-1 0 -24.07182074596415 0 0 1 0 0 0 1 forward_v I I I I #
coedge $-1 $286 $287 $288 $289 forward $108 $-1 #
coedge $-1 $288 $110 $112 $190 reversed $69 $-1 #
coedge $-1 $110 $288 $290 $291 reversed $69 $-1 #
coedge $-1 $292 $113 $110 $186 forward $192 $-1 #
edge $-1 $194 0.7837738974814954 $293 6.996750695872926 $185 $294 forward 7 unknown #
coedge $-1 $112 $111 $286 $295 reversed $44 $-1 #
coedge $-1 $296 $297 $111 $189 forward $180 $-1 #
edge $-1 $298 -59.435407574694054 $193 59.435407574694054 $188 $299 forward 7 unknown #
edge $-1 $300 -59.435407574694054 $194 59.435407574694054 $183 $301 forward 7 unknown #
coedge $-1 $113 $292 $296 $302 forward $192 $-1 #
loop $-1 $-1 $185 $283 #
vertex $-1 $189 $303 #
vertex $-1 $114 $304 #
straight-curve $-1 59.435407574694054 -9.7245540224306186 4.6740361941587061 0 1 0 I I #
face $-1 $305 $306 $26 $-1 $307 reversed single #
loop $-1 $-1 $209 $115 #
plane-surface $-1 59.435407574694054 0 0 -1 0 0 0 0 1 forward_v I I I I #
coedge $-1 $308 $309 $201 $310 forward $116 $-1 #
coedge $-1 $311 $118 $119 $205 reversed $73 $-1 #
coedge $-1 $118 $311 $199 $310 reversed $73 $-1 #
coedge $-1 $312 $313 $118 $203 forward $306 $-1 #
edge $-1 $314 0.7837738974814954 $315 6.996750695872926 $202 $316 forward 7 unknown #
coedge $-1 $120 $119 $313 $317 reversed $47 $-1 #
edge $-1 $210 -59.435407574694054 $314 59.435407574694054 $200 $318 forward 7 unknown #
coedge $-1 $319 $320 $120 $207 forward $321 $-1 #
edge $-1 $211 -59.435407574694054 $322 59.435407574694054 $206 $323 forward 7 unknown #
coedge $-1 $324 $121 $320 $325 reversed $197 $-1 #
coedge $-1 $121 $324 $311 $326 forward $197 $-1 #
vertex $-1 $122 $327 #
vertex $-1 $207 $328 #
straight-curve $-1 59.435407574694054 9.7245540224306186 4.6740361941587061 0 1 0 I I #
face $-1 $-1 $329 $27 $-1 $330 reversed single #
loop $-1 $-1 $129 $123 #
plane-surface $-1 0 0 10.887012992550137 0 0 1 1 0 0 forward_v I I I I #
coedge $-1 $331 $332 $333 $334 reversed $124 $-1 #
coedge $-1 $335 $126 $128 $223 forward $77 $-1 #
coedge $-1 $126 $335 $331 $336 forward $77 $-1 #
coedge $-1 $333 $129 $126 $220 forward $214 $-1 #
edge $-1 $226 -1.061514271036204 $337 4.9981399577373207 $219 $338 forward 7 unknown #
coedge $-1 $339 $340 $127 $222 forward $329 $-1 #
edge $-1 $341 -82.614678534926853 $225 -74.504620066594725 $221 $342 forward 7 unknown #
edge $-1 $226 107.78170961983395 $341 118.87081514938808 $128 $343 forward 7 unknown #
coedge $-1 $129 $333 $339 $344 forward $214 $-1 #
vertex $-1 $222 $345 #
vertex $-1 $130 $346 #
straight-curve $-1 32.651159646724842 -0.90679857231435435 10.88701299255014 -1 0 0 I I #
coedge $-1 $228 $228 $-1 $347 reversed $133 $-1 #
edge $-1 $348 0 $348 6.2831853071796004 $134 $349 forward 7 unknown #
vertex $-1 $137 $350 #
ellipse-curve $-1 55.654031730975859 -3.9366256867011167 6.8319837583840579 0.73135370988377701 0 0.68199835119979291 1.0229975267996894 0 -1.0970305648256655 1 I I #
face $-1 $-1 $351 $29 $-1 $352 forward single #
loop $-1 $-1 $238 $138 #
plane-surface $-1 0 0 10.887012992550137 0 0 1 1 0 0 forward_v I I I I #
coedge $-1 $353 $354 $237 $355 forward $139 $-1 #
coedge $-1 $237 $141 $143 $243 reversed $86 $-1 #
coedge $-1 $141 $236 $235 $355 reversed $86 $-1 #
coedge $-1 $356 $144 $141 $239 forward $233 $-1 #
edge $-1 $246 -23.522250471498168 $357 -19.556482712080467 $238 $358 forward 7 unknown #
coedge $-1 $143 $142 $353 $359 reversed $56 $-1 #
coedge $-1 $360 $361 $142 $242 forward $351 $-1 #
edge $-1 $362 -17.767391086889425 $245 -10.675441565184565 $241 $363 forward 7 unknown #
edge $-1 $364 -5.0500882424826555e-014 $246 7.0919495217048087 $236 $365 forward 7 unknown #
coedge $-1 $144 $356 $360 $366 forward $233 $-1 #
vertex $-1 $242 $367 #
vertex $-1 $145 $368 #
straight-curve $-1 -55.469639815276352 -5.4602232280588563 10.887012992550137 0 1 0 I I #
coedge $-1 $248 $248 $-1 $369 reversed $148 $-1 #
edge $-1 $370 0 $370 6.2831853071796004 $149 $371 forward 7 unknown #
vertex $-1 $152 $372 #
ellipse-curve $-1 -57.452523694985196 -12.594424550820833 7.9472666558412763 -0.82903758062907751 0 0.55919289150049634 0.55919289150049634 0 0.82903758062907751 1 I I #
coedge $-1 $252 $252 $-1 $373 reversed $155 $-1 #
edge $-1 $374 0 $374 6.2831853071796004 $156 $375 forward 7 unknown #
vertex $-1 $159 $376 #
ellipse-curve $-1 -57.452523694985196 -9.2464683614145926 7.9472666558412763 -0.82903758062907751 0 0.55919289150049634 0.55919289150049634 0 0.82903758062907751 1 I I #
face $-1 $-1 $175 $24 $-1 $377 reversed single #
loop $-1 $-1 $272 $160 #
plane-surface $-1 0 24.07182074596415 0 0 -1 0 0 0 -1 forward_v I I I I #
coedge $-1 $378 $270 $273 $379 forward $161 $-1 #
coedge $-1 $276 $163 $164 $264 reversed $100 $-1 #
coedge $-1 $270 $378 $163 $262 reversed $161 $-1 #
edge $-1 $277 -10.887012992550137 $380 10.887012992550137 $261 $381 forward 7 unknown #
coedge $-1 $165 $164 $378 $382 forward $65 $-1 #
edge $-1 $268 -59.435407574694054 $380 59.435407574694054 $260 $383 forward 7 unknown #
coedge $-1 $273 $272 $165 $266 reversed $257 $-1 #
edge $-1 $384 -59.435407574694054 $267 59.435407574694054 $265 $385 forward 7 unknown #
vertex $-1 $167 $386 #
vertex $-1 $279 $387 #
straight-curve $-1 59.435407574694054 0 -10.887012992550137 0 -1 0 I I #
coedge $-1 $259 $261 $168 $271 reversed $161 $-1 #
edge $-1 $274 -24.07182074596415 $277 24.07182074596415 $270 $388 forward 7 unknown #
coedge $-1 $265 $169 $174 $280 forward $257 $-1 #
coedge $-1 $169 $265 $259 $379 reversed $257 $-1 #
vertex $-1 $170 $389 #
straight-curve $-1 0 24.07182074596415 10.887012992550137 -1 0 0 I I #
coedge $-1 $171 $260 $173 $279 reversed $100 $-1 #
vertex $-1 $271 $390 #
straight-curve $-1 0 -24.07182074596415 10.887012992550137 1 0 0 I I #
edge $-1 $176 -10.887012992550137 $268 10.887012992550137 $173 $391 forward 7 unknown #
edge $-1 $177 -10.887012992550137 $267 10.887012992550137 $174 $392 forward 7 unknown #
point $-1 59.435407574694054 -24.07182074596415 10.887012992550137 #
point $-1 59.435407574694054 24.07182074596415 10.887012992550137 #
face $-1 $-1 $192 $25 $-1 $393 reversed single #
loop $-1 $-1 $290 $179 #
plane-surface $-1 0 0 10.887012992550137 0 0 1 1 0 0 forward_v I I I I #
coedge $-1 $394 $182 $187 $295 forward $108 $-1 #
coedge $-1 $182 $394 $395 $396 reversed $108 $-1 #
coedge $-1 $184 $183 $182 $289 reversed $69 $-1 #
edge $-1 $397 -6.996750695872926 $300 -0.7837738974814954 $182 $398 forward 7 unknown #
coedge $-1 $395 $399 $184 $291 forward $284 $-1 #
edge $-1 $293 -59.435407574694054 $397 59.435407574694054 $290 $400 forward 7 unknown #
coedge $-1 $191 $185 $399 $401 reversed $192 $-1 #
vertex $-1 $186 $402 #
straight-curve $-1 59.435407574694054 -14.826395343758325 3.8902622966772107 0 0 1 I I #
edge $-1 $300 5.1018413213277061 $298 14.347266723533531 $286 $403 forward 7 unknown #
coedge $-1 $404 $188 $191 $302 reversed $180 $-1 #
coedge $-1 $188 $404 $394 $405 forward $180 $-1 #
vertex $-1 $189 $406 #
straight-curve $-1 0 -24.07182074596415 4.6740361941587061 1 0 0 I I #
vertex $-1 $295 $407 #
straight-curve $-1 0 -14.826395343758325 4.6740361941587061 1 0 0 I I #
edge $-1 $408 -10.887012992550137 $193 -4.6740361941587061 $191 $409 forward 7 unknown #
point $-1 59.435407574694054 -24.07182074596415 4.6740361941587061 #
point $-1 59.435407574694054 -14.826395343758325 4.6740361941587061 #
face $-1 $-1 $321 $26 $-1 $410 reversed single #
loop $-1 $-1 $202 $196 #
plane-surface $-1 -59.435407574694054 0 0 1 0 0 0 0 -1 forward_v I I I I #
coedge $-1 $411 $199 $324 $412 forward $116 $-1 #
coedge $-1 $199 $411 $312 $413 forward $116 $-1 #
edge $-1 $315 -59.435407574694054 $414 59.435407574694054 $199 $415 forward 7 unknown #
coedge $-1 $201 $200 $209 $326 reversed $73 $-1 #
coedge $-1 $416 $202 $309 $413 reversed $306 $-1 #
coedge $-1 $202 $416 $204 $317 forward $306 $-1 #
vertex $-1 $317 $417 #
vertex $-1 $203 $418 #
straight-curve $-1 -59.435407574694054 14.826395343758325 3.8902622966772107 0 0 1 I I #
edge $-1 $322 -14.347266723533531 $314 -5.1018413213277061 $313 $419 forward 7 unknown #
straight-curve $-1 0 14.826395343758325 4.6740361941587061 -1 0 0 I I #
coedge $-1 $420 $206 $416 $421 reversed $321 $-1 #
coedge $-1 $206 $420 $208 $325 forward $321 $-1 #
loop $-1 $-1 $206 $305 #
vertex $-1 $207 $422 #
straight-curve $-1 0 24.07182074596415 4.6740361941587061 -1 0 0 I I #
coedge $-1 $209 $208 $308 $412 reversed $197 $-1 #
edge $-1 $423 -10.887012992550137 $211 -4.6740361941587061 $208 $424 forward 7 unknown #
edge $-1 $414 -6.996750695872926 $210 -0.7837738974814954 $209 $425 forward 7 unknown #
point $-1 59.435407574694054 14.826395343758325 4.6740361941587061 #
point $-1 59.435407574694054 24.07182074596415 4.6740361941587061 #
loop $-1 $-1 $221 $213 #
plane-surface $-1 59.435407574694054 0 0 -1 0 0 0 0 1 forward_v I I I I #
coedge $-1 $332 $216 $218 $336 reversed $124 $-1 #
coedge $-1 $216 $331 $426 $427 reversed $124 $-1 #
coedge $-1 $224 $219 $216 $334 forward $214 $-1 #
edge $-1 $337 19.22149624053278 $428 26.784247927969211 $333 $429 forward 7 unknown #
coedge $-1 $218 $217 $340 $430 reversed $77 $-1 #
edge $-1 $431 -118.87081514938808 $337 -107.78170961983395 $331 $432 forward 7 unknown #
vertex $-1 $220 $433 #
straight-curve $-1 51.872655887257622 -1.9683128433505583 10.88701299255014 0 -1 0 I I #
coedge $-1 $426 $221 $224 $344 reversed $329 $-1 #
coedge $-1 $221 $426 $335 $430 forward $329 $-1 #
vertex $-1 $222 $434 #
straight-curve $-1 59.435407574694054 -0.90679857231435435 85.391633059144866 0 0 1 I I #
straight-curve $-1 -21.63429236296399 -0.90679857231435435 89.713566180631673 0.68199835119979291 0 -0.73135370988377701 I I #
edge $-1 $428 -6.966452801087879 $225 -0.90679857231435435 $339 $435 forward 7 unknown #
point $-1 59.435407574694054 -0.90679857231435435 10.887012992550137 #
point $-1 51.872655887257622 -0.90679857231435435 10.88701299255014 #
edge $-1 $436 1 $436 0 $228 $-1 forward 7 unknown #
vertex $-1 $229 $437 #
ellipse-curve $-1 54.151025866944394 -3.9366256867011167 5.4304081496735019 0.73135370988377701 0 0.68199835119979291 1.0229975267996894 0 -1.0970305648256655 1 I I #
point $-1 56.67702925777553 -3.9366256867011167 5.7349531935583835 #
loop $-1 $-1 $241 $232 #
plane-surface $-1 0 -14.826395343758325 7.7805245933544214 0 -1 0 0 0 -1 forward_v I I I I #
coedge $-1 $438 $235 $240 $359 forward $139 $-1 #
coedge $-1 $235 $438 $356 $439 reversed $139 $-1 #
edge $-1 $357 24.852604586219751 $364 30.732097259637492 $235 $440 forward 7 unknown #
coedge $-1 $244 $238 $354 $439 forward $233 $-1 #
vertex $-1 $439 $441 #
straight-curve $-1 -78.99189028677452 -7.0144975684770996 10.887012992550137 -1 0 0 I I #
edge $-1 $364 1.5542743404182433 $362 9.3661721156994684 $353 $442 forward 7 unknown #
coedge $-1 $361 $241 $244 $366 reversed $351 $-1 #
coedge $-1 $241 $360 $438 $443 reversed $351 $-1 #
vertex $-1 $443 $444 #
straight-curve $-1 -49.500008778396207 -14.826395343758325 19.737355239897838 0.55919289150049634 0 0.82903758062907751 I I #
vertex $-1 $359 $445 #
straight-curve $-1 -59.435407574694025 -7.0144975684770996 5.0075203191324391 0.55919289150049634 0 0.82903758062907751 I I #
edge $-1 $446 -59.435407574694054 $245 -55.469639815276352 $244 $447 forward 7 unknown #
point $-1 -55.469639815276352 -14.826395343758325 10.887012992550137 #
point $-1 -55.469639815276352 -7.0144975684770996 10.887012992550137 #
edge $-1 $448 1 $448 0 $248 $-1 forward 7 unknown #
vertex $-1 $249 $449 #
ellipse-curve $-1 -55.263153018250215 -12.594424550820833 6.4705175338523278 -0.82903758062907751 0 0.55919289150049634 0.55919289150049634 0 0.82903758062907751 1 I I #
point $-1 -56.893330803484723 -12.594424550820833 8.7763042364703701 #
edge $-1 $450 1 $450 0 $252 $-1 forward 7 unknown #
vertex $-1 $253 $451 #
ellipse-curve $-1 -55.263153018250215 -9.2464683614145926 6.4705175338523278 -0.82903758062907751 0 0.55919289150049634 0.55919289150049634 0 0.82903758062907751 1 I I #
point $-1 -56.893330803484723 -9.2464683614145926 8.7763042364703701 #
plane-surface $-1 59.435407574694054 0 0 -1 0 0 0 0 1 forward_v I I I I #
coedge $-1 $261 $259 $263 $382 reversed $161 $-1 #
edge $-1 $274 -10.887012992550137 $384 10.887012992550137 $273 $452 forward 7 unknown #
vertex $-1 $382 $453 #
straight-curve $-1 -59.435407574694054 -24.07182074596415 0 0 0 -1 I I #
edge $-1 $380 -24.07182074596415 $384 24.07182074596415 $378 $454 forward 7 unknown #
straight-curve $-1 0 -24.07182074596415 -10.887012992550137 -1 0 0 I I #
vertex $-1 $266 $455 #
straight-curve $-1 0 24.07182074596415 -10.887012992550137 1 0 0 I I #
point $-1 59.435407574694054 24.07182074596415 -10.887012992550137 #
point $-1 59.435407574694054 -24.07182074596415 -10.887012992550137 #
straight-curve $-1 -59.435407574694054 0 10.887012992550137 0 -1 0 I I #
point $-1 -59.435407574694054 24.07182074596415 10.887012992550137 #
point $-1 -59.435407574694054 -24.07182074596415 10.887012992550137 #
straight-curve $-1 59.435407574694054 -24.07182074596415 0 0 0 -1 I I #
straight-curve $-1 59.435407574694054 24.07182074596415 0 0 0 -1 I I #
plane-surface $-1 59.435407574694054 0 0 -1 0 0 0 0 1 forward_v I I I I #
coedge $-1 $287 $286 $297 $405 reversed $108 $-1 #
coedge $-1 $456 $290 $287 $396 forward $284 $-1 #
edge $-1 $397 14.826395343758325 $457 24.07182074596415 $287 $458 forward 7 unknown #
vertex $-1 $396 $459 #
straight-curve $-1 -59.435407574694054 -14.826395343758325 3.8902622966772107 0 0 -1 I I #
coedge $-1 $290 $456 $292 $401 forward $284 $-1 #
straight-curve $-1 0 -14.826395343758325 10.887012992550137 -1 0 0 I I #
edge $-1 $408 -24.07182074596415 $293 -14.826395343758325 $292 $460 forward 7 unknown #
point $-1 59.435407574694054 -14.826395343758325 10.887012992550137 #
straight-curve $-1 -59.435407574694054 -9.7245540224306186 4.6740361941587061 0 -1 0 I I #
coedge $-1 $297 $296 $456 $461 reversed $180 $-1 #
edge $-1 $457 -10.887012992550137 $298 -4.6740361941587061 $394 $462 forward 7 unknown #
point $-1 -59.435407574694054 -24.07182074596415 4.6740361941587061 #
point $-1 -59.435407574694054 -14.826395343758325 4.6740361941587061 #
vertex $-1 $401 $463 #
straight-curve $-1 59.435407574694054 -24.07182074596415 0 0 0 -1 I I #
plane-surface $-1 0 24.07182074596415 0 0 -1 0 0 0 -1 forward_v I I I I #
coedge $-1 $309 $308 $420 $464 forward $116 $-1 #
edge $-1 $414 14.826395343758325 $423 24.07182074596415 $324 $465 forward 7 unknown #
edge $-1 $466 -24.07182074596415 $315 -14.826395343758325 $312 $467 forward 7 unknown #
vertex $-1 $412 $468 #
straight-curve $-1 0 14.826395343758325 10.887012992550137 1 0 0 I I #
coedge $-1 $313 $312 $319 $421 forward $306 $-1 #
point $-1 -59.435407574694054 14.826395343758325 4.6740361941587061 #
point $-1 -59.435407574694054 14.826395343758325 10.887012992550137 #
straight-curve $-1 -59.435407574694054 9.7245540224306186 4.6740361941587061 0 -1 0 I I #
coedge $-1 $320 $319 $411 $464 reversed $321 $-1 #
edge $-1 $466 -10.887012992550137 $322 -4.6740361941587061 $319 $469 forward 7 unknown #
point $-1 -59.435407574694054 24.07182074596415 4.6740361941587061 #
vertex $-1 $412 $470 #
straight-curve $-1 59.435407574694054 24.07182074596415 0 0 0 -1 I I #
straight-curve $-1 59.435407574694054 14.826395343758325 3.8902622966772107 0 0 -1 I I #
coedge $-1 $340 $339 $332 $427 forward $329 $-1 #
edge $-1 $428 74.504620066594725 $431 82.614678534926853 $426 $471 forward 7 unknown #
vertex $-1 $344 $472 #
straight-curve $-1 32.651159646724842 -6.966452801087879 10.88701299255014 1 0 0 I I #
edge $-1 $431 -4.9981399577373207 $341 1.061514271036204 $340 $473 forward 7 unknown #
vertex $-1 $430 $474 #
straight-curve $-1 -21.63429236296399 -6.966452801087879 89.713566180631673 -0.68199835119979291 0 0.73135370988377701 I I #
point $-1 51.872655887257622 -6.966452801087879 10.88701299255014 #
point $-1 59.435407574694054 -0.90679857231435435 2.7769545242180129 #
straight-curve $-1 59.435407574694054 0 10.887012992550137 0 1 0 I I #
vertex $-1 $347 $475 #
point $-1 55.174023393744079 -3.9366256867011167 4.3333775848478364 #
coedge $-1 $354 $353 $361 $443 forward $139 $-1 #
edge $-1 $357 7.0144975684770996 $446 14.826395343758325 $354 $476 forward 7 unknown #
straight-curve $-1 -59.435407574694054 -7.0144975684770996 35.739617578769888 0 0 -1 I I #
point $-1 -59.435407574694054 -7.0144975684770996 10.887012992550137 #
straight-curve $-1 -59.435407574694054 -5.4602232280588563 5.0075203191323983 0 -1 0 I I #
edge $-1 $362 1.1172580224551867 $446 6.996750695872926 $438 $477 forward 7 unknown #
point $-1 -59.435407574694054 -14.826395343758325 5.0075203191323974 #
point $-1 -59.435407574694054 -7.0144975684770996 5.0075203191323974 #
vertex $-1 $443 $478 #
straight-curve $-1 0 -14.826395343758325 10.887012992550137 1 0 0 I I #
vertex $-1 $369 $479 #
point $-1 -54.70396012674972 -12.594424550820833 7.2995551144814055 #
vertex $-1 $373 $480 #
point $-1 -54.70396012674972 -9.2464683614145926 7.2995551144814055 #
straight-curve $-1 -59.435407574694054 24.07182074596415 0 0 0 -1 I I #
point $-1 -59.435407574694054 -24.07182074596415 -10.887012992550137 #
straight-curve $-1 -59.435407574694054 0 -10.887012992550137 0 1 0 I I #
point $-1 -59.435407574694054 24.07182074596415 -10.887012992550137 #
coedge $-1 $399 $395 $404 $461 forward $284 $-1 #
vertex $-1 $396 $481 #
straight-curve $-1 -59.435407574694054 0 10.887012992550137 0 -1 0 I I #
point $-1 -59.435407574694054 -14.826395343758325 10.887012992550137 #
straight-curve $-1 59.435407574694054 0 10.887012992550137 0 1 0 I I #
edge $-1 $457 -59.435407574694054 $408 59.435407574694054 $404 $482 forward 7 unknown #
straight-curve $-1 -59.435407574694054 -24.07182074596415 0 0 0 -1 I I #
point $-1 59.435407574694054 -24.07182074596415 10.887012992550137 #
edge $-1 $423 -59.435407574694054 $466 59.435407574694054 $420 $483 forward 7 unknown #
straight-curve $-1 59.435407574694054 0 10.887012992550137 0 1 0 I I #
vertex $-1 $464 $484 #
straight-curve $-1 -59.435407574694054 0 10.887012992550137 0 -1 0 I I #
point $-1 59.435407574694054 14.826395343758325 10.887012992550137 #
straight-curve $-1 -59.435407574694054 24.07182074596415 0 0 0 -1 I I #
point $-1 59.435407574694054 24.07182074596415 10.887012992550137 #
straight-curve $-1 59.435407574694054 -6.966452801087879 85.391633059144866 0 0 -1 I I #
point $-1 59.435407574694054 -6.966452801087879 10.887012992550137 #
straight-curve $-1 59.435407574694054 -1.9683128433505583 2.7769545242180129 0 1 0 I I #
point $-1 59.435407574694054 -6.966452801087879 2.7769545242180129 #
point $-1 53.053995302118722 -3.9366256867011167 4.4074106228738135 #
straight-curve $-1 -59.435407574694054 0 10.887012992550137 0 -1 0 I I #
straight-curve $-1 -59.435407574694054 -14.826395343758325 3.8902622966772107 0 0 1 I I #
point $-1 -59.435407574694054 -14.826395343758325 10.887012992550137 #
point $-1 -54.434115437621138 -12.594424550820833 5.9113246423518317 #
point $-1 -54.434115437621138 -9.2464683614145926 5.9113246423518317 #
point $-1 -59.435407574694054 -24.07182074596415 10.887012992550137 #
straight-curve $-1 0 -24.07182074596415 10.887012992550137 1 0 0 I I #
straight-curve $-1 0 24.07182074596415 10.887012992550137 -1 0 0 I I #
point $-1 -59.435407574694054 24.07182074596415 10.887012992550137 #
End-of-ACIS-data 