500 0 4 0           
7 Unknown 11 ACIS 5.0 NT 24 Fri Mar 26 15:09:37 1999 
-1 9.9999999999999995e-007 1e-010 
body $-1 $4 $-1 $5 #
body $-1 $6 $-1 $7 #
body $-1 $8 $-1 $9 #
body $-1 $10 $-1 $11 #
lump $-1 $-1 $12 $0 #
transform $-1 1 0 0 0 1 0 0 0 1 44.444715720084233 23.650904098525736 6.8414175666819155 1 rotate no_reflect no_shear #
lump $-1 $-1 $13 $1 #
transform $-1 1 0 0 0 1 0 0 0 1 44.444715720084233 23.650904098525736 6.8414175666819155 1 rotate no_reflect no_shear #
lump $-1 $-1 $14 $2 #
transform $-1 1 0 0 0 1 0 0 0 1 44.444715720084233 23.650904098525736 6.8414175666819155 1 rotate no_reflect no_shear #
lump $-1 $-1 $15 $3 #
transform $-1 1 0 0 0 1 0 0 0 1 44.444715720084233 23.650904098525736 6.8414175666819155 1 rotate no_reflect no_shear #
shell $-1 $-1 $-1 $16 $-1 $4 #
shell $-1 $-1 $-1 $17 $-1 $6 #
shell $-1 $-1 $-1 $18 $-1 $8 #
shell $-1 $-1 $-1 $19 $-1 $10 #
face $-1 $20 $21 $12 $-1 $22 forward single #
face $-1 $23 $24 $13 $-1 $25 reversed single #
face $-1 $26 $27 $14 $-1 $28 reversed single #
face $-1 $29 $30 $15 $-1 $31 forward single #
face $-1 $32 $33 $12 $-1 $34 reversed single #
loop $-1 $-1 $35 $16 #
plane-surface $-1 0 0 6.8414175666819155 0 0 1 1 0 0 forward_v I I I I #
face $-1 $36 $37 $13 $-1 $38 reversed single #
loop $-1 $-1 $39 $17 #
plane-surface $-1 0 -19.34061685693997 3.8414175666819155 0 0 1 1 0 0 forward_v I I I I #
face $-1 $40 $41 $14 $-1 $42 reversed single #
loop $-1 $-1 $43 $18 #
plane-surface $-1 -90.22615797787941 13.062835971677121 78.103798889996497 0 1 0 -0.51503808176128008 0 0.85716729658548041 forward_v I I I I #
face $-1 $44 $45 $15 $-1 $46 forward single #
loop $-1 $47 $48 $19 #
cone-surface $-1 -39.836624027492057 18.35687003510143 3.5355346120085533 0.51503808176128008 0 -0.85716729658548041 0.85716729658548041 0 0.51503808176128008 1 I I 0 1 1 forward I I I I #
face $-1 $49 $50 $12 $-1 $51 reversed single #
loop $-1 $-1 $52 $20 #
plane-surface $-1 0 0 -6.8414175666819155 0 0 1 1 0 0 forward_v I I I I #
coedge $-1 $53 $54 $55 $56 forward $21 $-1 #
face $-1 $57 $58 $13 $-1 $59 reversed single #
loop $-1 $-1 $60 $23 #
plane-surface $-1 0 -15.030329615354205 5.3414175666819155 0 -1 0 0 0 -1 forward_v I I I I #
coedge $-1 $61 $62 $63 $64 reversed $24 $-1 #
face $-1 $65 $66 $14 $-1 $67 forward single #
loop $-1 $-1 $68 $26 #
plane-surface $-1 -44.444715720084226 18.35687003510143 1.9106852474068887 -0.51503808176128008 0 0.85716729658548041 0.85716729658548041 0 0.51503808176128008 forward_v I I I I #
coedge $-1 $69 $70 $71 $72 reversed $27 $-1 #
face $-1 $-1 $73 $15 $-1 $74 forward single #
loop $-1 $75 $76 $29 #
cone-surface $-1 -39.074071535699503 18.35687003510143 2.2664341686799609 0.51503808176128008 0 -0.85716729658548041 0.4285836482927402 0 0.25751904088064004 1 I I -0.70710678118654746 0.70710678118654746 0.5 forward I I I I #
loop $-1 $-1 $77 $19 #
coedge $-1 $48 $48 $78 $79 reversed $30 $-1 #
face $-1 $80 $81 $12 $-1 $82 reversed single #
loop $-1 $-1 $83 $32 #
plane-surface $-1 0 -23.650904098525736 0 0 1 0 0 0 1 forward_v I I I I #
coedge $-1 $84 $85 $86 $87 forward $33 $-1 #
coedge $-1 $88 $35 $89 $90 forward $21 $-1 #
coedge $-1 $35 $88 $91 $92 forward $21 $-1 #
coedge $-1 $93 $94 $35 $56 reversed $95 $-1 #
edge $-1 $96 -23.650904098525736 $97 23.650904098525736 $55 $98 forward 7 unknown #
face $-1 $99 $100 $13 $-1 $101 reversed single #
loop $-1 $-1 $102 $36 #
plane-surface $-1 -44.444715720084233 0 0 1 0 0 0 0 -1 forward_v I I I I #
coedge $-1 $103 $104 $105 $106 reversed $37 $-1 #
coedge $-1 $107 $39 $108 $109 reversed $24 $-1 #
coedge $-1 $39 $107 $103 $110 forward $24 $-1 #
coedge $-1 $105 $111 $39 $64 forward $112 $-1 #
edge $-1 $113 -13.980595670055751 $114 -5.3600211868842198 $63 $115 forward 7 unknown #
face $-1 $116 $117 $14 $-1 $118 reversed single #
loop $-1 $-1 $71 $40 #
plane-surface $-1 0 0 6.8414175666819155 0 0 1 1 0 0 forward_v I I I I #
coedge $-1 $119 $120 $121 $122 reversed $41 $-1 #
coedge $-1 $70 $43 $123 $124 reversed $27 $-1 #
coedge $-1 $43 $69 $119 $125 reversed $27 $-1 #
coedge $-1 $121 $126 $43 $72 forward $66 $-1 #
edge $-1 $127 0.66836326885547237 $128 8.8744797522160113 $71 $129 forward 7 unknown #
loop $-1 $-1 $78 $44 #
plane-surface $-1 -44.444715720084226 18.35687003510143 1.9106852474068887 -0.51503808176128008 0 0.85716729658548041 0.85716729658548041 0 0.51503808176128008 forward_v I I I I #
loop $-1 $-1 $130 $29 #
coedge $-1 $76 $76 $77 $131 reversed $45 $-1 #
coedge $-1 $77 $77 $76 $131 forward $47 $-1 #
coedge $-1 $78 $78 $48 $79 forward $73 $-1 #
edge $-1 $132 0 $132 6.2831853071796004 $78 $133 forward 7 unknown #
face $-1 $134 $135 $12 $-1 $136 reversed single #
loop $-1 $-1 $137 $49 #
plane-surface $-1 -44.444715720084233 0 0 1 0 0 0 0 -1 forward_v I I I I #
coedge $-1 $138 $91 $139 $140 forward $50 $-1 #
coedge $-1 $141 $52 $138 $142 forward $33 $-1 #
coedge $-1 $52 $141 $143 $144 forward $33 $-1 #
coedge $-1 $94 $93 $52 $87 reversed $95 $-1 #
edge $-1 $145 -23.650904098525736 $146 23.650904098525736 $86 $147 forward 7 unknown #
coedge $-1 $54 $53 $148 $149 forward $21 $-1 #
coedge $-1 $150 $151 $53 $90 reversed $135 $-1 #
edge $-1 $97 -44.444715720084233 $152 44.444715720084233 $89 $153 forward 7 unknown #
coedge $-1 $83 $154 $54 $92 reversed $50 $-1 #
edge $-1 $155 -44.444715720084233 $96 44.444715720084233 $91 $156 forward 7 unknown #
coedge $-1 $86 $55 $154 $157 forward $95 $-1 #
coedge $-1 $55 $86 $150 $158 reversed $95 $-1 #
loop $-1 $-1 $93 $134 #
vertex $-1 $56 $159 #
vertex $-1 $56 $160 #
straight-curve $-1 44.444715720084233 0 6.8414175666819155 0 1 0 I I #
face $-1 $161 $162 $13 $-1 $163 forward single #
loop $-1 $-1 $108 $57 #
plane-surface $-1 0 -23.650904098525736 0 0 1 0 0 0 1 forward_v I I I I #
coedge $-1 $164 $165 $166 $167 forward $58 $-1 #
coedge $-1 $166 $60 $62 $110 reversed $37 $-1 #
coedge $-1 $60 $166 $168 $169 reversed $37 $-1 #
coedge $-1 $170 $63 $60 $106 forward $112 $-1 #
edge $-1 $114 1.1707087833409577 $171 4.1707087833409577 $105 $172 forward 7 unknown #
coedge $-1 $62 $61 $164 $173 reversed $24 $-1 #
coedge $-1 $174 $175 $61 $109 forward $100 $-1 #
edge $-1 $176 -44.444715720084233 $113 44.444715720084233 $108 $177 forward 7 unknown #
edge $-1 $178 -44.444715720084233 $114 44.444715720084233 $103 $179 forward 7 unknown #
coedge $-1 $63 $170 $174 $180 forward $112 $-1 #
loop $-1 $-1 $105 $161 #
vertex $-1 $109 $181 #
vertex $-1 $64 $182 #
straight-curve $-1 44.444715720084233 -9.6703084284699852 3.8414175666819155 0 1 0 I I #
face $-1 $-1 $183 $14 $-1 $184 reversed single #
loop $-1 $-1 $185 $65 #
plane-surface $-1 0 23.650904098525736 0 0 -1 0 0 0 -1 forward_v I I I I #
coedge $-1 $186 $68 $70 $125 forward $41 $-1 #
coedge $-1 $68 $186 $185 $187 reversed $41 $-1 #
coedge $-1 $188 $71 $68 $122 forward $66 $-1 #
edge $-1 $128 3.8844009541264057 $189 14.472469080975024 $121 $190 forward 7 unknown #
coedge $-1 $191 $192 $69 $124 forward $183 $-1 #
edge $-1 $193 -37.141214197591367 $127 -32.21048187831633 $123 $194 forward 7 unknown #
edge $-1 $128 -9.5735295969054537 $193 8.2634070795339233e-015 $70 $195 forward 7 unknown #
coedge $-1 $71 $188 $191 $196 forward $66 $-1 #
vertex $-1 $124 $197 #
vertex $-1 $72 $198 #
straight-curve $-1 -45.113078988939705 13.062835971677121 6.841417566681919 1 0 0 I I #
coedge $-1 $130 $130 $-1 $199 reversed $75 $-1 #
edge $-1 $200 0 $200 6.2831853071796004 $76 $201 forward 7 unknown #
vertex $-1 $79 $202 #
ellipse-curve $-1 -40.341657478403967 18.35687003510143 4.3760514070443959 -0.51503808176128008 0 0.85716729658548041 0.85716729658548041 0 0.51503808176128008 1 I I #
face $-1 $-1 $95 $12 $-1 $203 reversed single #
loop $-1 $-1 $150 $80 #
plane-surface $-1 0 23.650904098525736 0 0 -1 0 0 0 -1 forward_v I I I I #
coedge $-1 $204 $148 $151 $205 forward $81 $-1 #
coedge $-1 $154 $83 $84 $142 reversed $50 $-1 #
coedge $-1 $148 $204 $83 $140 reversed $81 $-1 #
edge $-1 $155 -6.8414175666819155 $206 6.8414175666819155 $139 $207 forward 7 unknown #
coedge $-1 $85 $84 $204 $208 forward $33 $-1 #
edge $-1 $146 -44.444715720084233 $206 44.444715720084233 $138 $209 forward 7 unknown #
coedge $-1 $151 $150 $85 $144 reversed $135 $-1 #
edge $-1 $210 -44.444715720084233 $145 44.444715720084233 $143 $211 forward 7 unknown #
vertex $-1 $87 $212 #
vertex $-1 $157 $213 #
straight-curve $-1 44.444715720084233 0 -6.8414175666819155 0 -1 0 I I #
coedge $-1 $137 $139 $88 $149 reversed $81 $-1 #
edge $-1 $152 -23.650904098525736 $155 23.650904098525736 $148 $214 forward 7 unknown #
coedge $-1 $143 $89 $94 $158 forward $135 $-1 #
coedge $-1 $89 $143 $137 $205 reversed $135 $-1 #
vertex $-1 $90 $215 #
straight-curve $-1 0 23.650904098525736 6.8414175666819155 -1 0 0 I I #
coedge $-1 $91 $138 $93 $157 reversed $50 $-1 #
vertex $-1 $149 $216 #
straight-curve $-1 0 -23.650904098525736 6.8414175666819155 1 0 0 I I #
edge $-1 $96 -6.8414175666819155 $146 6.8414175666819155 $93 $217 forward 7 unknown #
edge $-1 $97 -6.8414175666819155 $145 6.8414175666819155 $94 $218 forward 7 unknown #
point $-1 44.444715720084233 -23.650904098525736 6.8414175666819155 #
point $-1 44.444715720084233 23.650904098525736 6.8414175666819155 #
face $-1 $-1 $112 $13 $-1 $219 reversed single #
loop $-1 $-1 $168 $99 #
plane-surface $-1 0 0 6.8414175666819155 0 0 1 1 0 0 forward_v I I I I #
coedge $-1 $220 $102 $107 $173 forward $58 $-1 #
coedge $-1 $102 $220 $221 $222 reversed $58 $-1 #
coedge $-1 $104 $103 $102 $167 reversed $37 $-1 #
edge $-1 $223 -4.1707087833409577 $178 -1.1707087833409577 $102 $224 forward 7 unknown #
coedge $-1 $221 $225 $104 $169 forward $162 $-1 #
edge $-1 $171 -44.444715720084233 $223 44.444715720084233 $168 $226 forward 7 unknown #
coedge $-1 $111 $105 $225 $227 reversed $112 $-1 #
vertex $-1 $106 $228 #
straight-curve $-1 44.444715720084233 -15.030329615354205 2.6707087833409577 0 0 1 I I #
edge $-1 $178 5.3600211868842198 $176 13.980595670055751 $164 $229 forward 7 unknown #
coedge $-1 $230 $108 $111 $180 reversed $100 $-1 #
coedge $-1 $108 $230 $220 $231 forward $100 $-1 #
vertex $-1 $109 $232 #
straight-curve $-1 0 -23.650904098525736 3.8414175666819155 1 0 0 I I #
vertex $-1 $173 $233 #
straight-curve $-1 0 -15.030329615354205 3.8414175666819155 1 0 0 I I #
edge $-1 $234 -6.8414175666819155 $113 -3.8414175666819155 $111 $235 forward 7 unknown #
point $-1 44.444715720084233 -23.650904098525736 3.8414175666819155 #
point $-1 44.444715720084233 -15.030329615354205 3.8414175666819155 #
loop $-1 $-1 $123 $116 #
plane-surface $-1 -44.444715720084233 0 0 1 0 0 0 0 -1 forward_v I I I I #
coedge $-1 $236 $237 $120 $187 forward $117 $-1 #
coedge $-1 $120 $119 $192 $238 reversed $41 $-1 #
edge $-1 $189 8.9827109814049333 $239 18.556240578310394 $185 $240 forward 7 unknown #
coedge $-1 $126 $121 $237 $241 forward $66 $-1 #
vertex $-1 $241 $242 #
straight-curve $-1 -36.238599236723687 9.178435017550715 6.8414175666819155 0 1 0 I I #
coedge $-1 $243 $123 $126 $196 reversed $183 $-1 #
coedge $-1 $123 $243 $186 $238 forward $183 $-1 #
vertex $-1 $124 $244 #
straight-curve $-1 -44.444715720084233 13.062835971677121 39.051899444998249 0 0 1 I I #
straight-curve $-1 -44.444715720084226 13.062835971677121 1.9106852474068887 -0.85716729658548041 0 -0.51503808176128008 I I #
edge $-1 $245 -23.650904098525736 $127 -13.062835971677121 $191 $246 forward 7 unknown #
point $-1 -44.444715720084233 13.062835971677121 6.8414175666819155 #
point $-1 -36.238599236723694 13.062835971677121 6.8414175666819155 #
edge $-1 $247 1 $247 0 $130 $-1 forward 7 unknown #
vertex $-1 $131 $248 #
ellipse-curve $-1 -39.33159057658014 18.35687003510143 2.695017816972701 -0.51503808176128008 0 0.85716729658548041 0.85716729658548041 0 0.51503808176128008 1 I I #
point $-1 -39.484490181818501 18.35687003510143 4.8910894888056866 #
plane-surface $-1 44.444715720084233 0 0 -1 0 0 0 0 1 forward_v I I I I #
coedge $-1 $139 $137 $141 $208 reversed $81 $-1 #
edge $-1 $152 -6.8414175666819155 $210 6.8414175666819155 $151 $249 forward 7 unknown #
vertex $-1 $208 $250 #
straight-curve $-1 -44.444715720084233 -23.650904098525736 0 0 0 -1 I I #
edge $-1 $206 -23.650904098525736 $210 23.650904098525736 $204 $251 forward 7 unknown #
straight-curve $-1 0 -23.650904098525736 -6.8414175666819155 -1 0 0 I I #
vertex $-1 $144 $252 #
straight-curve $-1 0 23.650904098525736 -6.8414175666819155 1 0 0 I I #
point $-1 44.444715720084233 23.650904098525736 -6.8414175666819155 #
point $-1 44.444715720084233 -23.650904098525736 -6.8414175666819155 #
straight-curve $-1 -44.444715720084233 0 6.8414175666819155 0 -1 0 I I #
point $-1 -44.444715720084233 23.650904098525736 6.8414175666819155 #
point $-1 -44.444715720084233 -23.650904098525736 6.8414175666819155 #
straight-curve $-1 44.444715720084233 -23.650904098525736 0 0 0 -1 I I #
straight-curve $-1 44.444715720084233 23.650904098525736 0 0 0 -1 I I #
plane-surface $-1 44.444715720084233 0 0 -1 0 0 0 0 1 forward_v I I I I #
coedge $-1 $165 $164 $175 $231 reversed $58 $-1 #
coedge $-1 $253 $168 $165 $222 forward $162 $-1 #
edge $-1 $223 15.030329615354205 $254 23.650904098525736 $165 $255 forward 7 unknown #
vertex $-1 $222 $256 #
straight-curve $-1 -44.444715720084233 -15.030329615354205 2.6707087833409577 0 0 -1 I I #
coedge $-1 $168 $253 $170 $227 forward $162 $-1 #
straight-curve $-1 0 -15.030329615354205 6.8414175666819155 -1 0 0 I I #
edge $-1 $234 -23.650904098525736 $171 -15.030329615354205 $170 $257 forward 7 unknown #
point $-1 44.444715720084233 -15.030329615354205 6.8414175666819155 #
straight-curve $-1 -44.444715720084233 -9.6703084284699852 3.8414175666819155 0 -1 0 I I #
coedge $-1 $175 $174 $253 $258 reversed $100 $-1 #
edge $-1 $254 -6.8414175666819155 $176 -3.8414175666819155 $220 $259 forward 7 unknown #
point $-1 -44.444715720084233 -23.650904098525736 3.8414175666819155 #
point $-1 -44.444715720084233 -15.030329615354205 3.8414175666819155 #
vertex $-1 $227 $260 #
straight-curve $-1 44.444715720084233 -23.650904098525736 0 0 0 -1 I I #
coedge $-1 $237 $185 $243 $261 reversed $117 $-1 #
coedge $-1 $185 $236 $188 $241 reversed $117 $-1 #
edge $-1 $239 -14.472469080975024 $193 -3.8844009541264057 $192 $262 forward 7 unknown #
vertex $-1 $187 $263 #
straight-curve $-1 -28.538913148784118 23.650904098525736 11.467855799560697 -0.85716729658548041 0 -0.51503808176128008 I I #
edge $-1 $189 36.238599236723694 $245 44.444715720084233 $237 $264 forward 7 unknown #
point $-1 -36.238599236723694 23.650904098525739 6.8414175666819155 #
coedge $-1 $192 $191 $236 $261 forward $183 $-1 #
point $-1 -44.444715720084233 13.062835971677121 1.9106852474068845 #
vertex $-1 $241 $265 #
straight-curve $-1 -44.444715720084233 0 6.8414175666819155 0 -1 0 I I #
vertex $-1 $199 $266 #
point $-1 -38.47442327999466 18.35687003510143 3.2100558987339811 #
straight-curve $-1 -44.444715720084233 23.650904098525736 0 0 0 -1 I I #
point $-1 -44.444715720084233 -23.650904098525736 -6.8414175666819155 #
straight-curve $-1 -44.444715720084233 0 -6.8414175666819155 0 1 0 I I #
point $-1 -44.444715720084233 23.650904098525736 -6.8414175666819155 #
coedge $-1 $225 $221 $230 $258 forward $162 $-1 #
vertex $-1 $222 $267 #
straight-curve $-1 -44.444715720084233 0 6.8414175666819155 0 -1 0 I I #
point $-1 -44.444715720084233 -15.030329615354205 6.8414175666819155 #
straight-curve $-1 44.444715720084233 0 6.8414175666819155 0 1 0 I I #
edge $-1 $254 -44.444715720084233 $234 44.444715720084233 $230 $268 forward 7 unknown #
straight-curve $-1 -44.444715720084233 -23.650904098525736 0 0 0 -1 I I #
point $-1 44.444715720084233 -23.650904098525736 6.8414175666819155 #
edge $-1 $245 -6.8414175666819155 $239 -1.9106852474068845 $236 $269 forward 7 unknown #
straight-curve $-1 -44.444715720084233 9.178435017550715 1.9106852474068887 0 -1 0 I I #
point $-1 -44.444715720084233 23.650904098525739 1.9106852474068845 #
straight-curve $-1 0 23.650904098525736 6.8414175666819155 -1 0 0 I I #
point $-1 -44.444715720084233 23.650904098525736 6.8414175666819155 #
point $-1 -38.816552494818865 18.35687003510143 1.8378505203872209 #
point $-1 -44.444715720084233 -23.650904098525736 6.8414175666819155 #
straight-curve $-1 0 -23.650904098525736 6.8414175666819155 1 0 0 I I #
straight-curve $-1 -44.444715720084233 23.650904098525736 0 0 0 -1 I I #
End-of-ACIS-data 