500 0 15 0           
7 Unknown 11 ACIS 5.0 NT 24 Fri Mar 26 17:36:56 1999 
-1 9.9999999999999995e-007 1e-010 
body $-1 $15 $-1 $16 #
body $-1 $17 $-1 $18 #
body $-1 $19 $-1 $20 #
body $-1 $21 $-1 $22 #
body $-1 $23 $-1 $24 #
body $-1 $25 $-1 $26 #
body $-1 $27 $-1 $28 #
body $-1 $29 $-1 $30 #
body $-1 $31 $-1 $32 #
body $-1 $33 $-1 $34 #
body $-1 $35 $-1 $36 #
body $-1 $37 $-1 $38 #
body $-1 $39 $-1 $40 #
body $-1 $41 $-1 $42 #
body $-1 $43 $-1 $44 #
lump $-1 $-1 $45 $0 #
transform $-1 1 0 0 0 1 0 0 0 1 48.321787163914912 22.671142631519917 6.39340475132175 1 rotate no_reflect no_shear #
lump $-1 $-1 $46 $1 #
transform $-1 1 0 0 0 0.61566146476048833 -0.78801076186113728 0 0.78801076186113728 0.61566146476048833 17.005716507911075 93.582964137465467 102.78592117602918 1 rotate no_reflect no_shear #
lump $-1 $-1 $47 $2 #
transform $-1 1 0 0 0 -0.61566146476048833 0.78801076186113728 0 -0.78801076186113728 -0.61566146476048833 13.93921204760548 40.639014412870033 8.093266463110389 1 rotate no_reflect no_shear #
lump $-1 $-1 $48 $3 #
transform $-1 1 0 0 0 -0.61566146476048833 0.78801076186113728 0 -0.78801076186113728 -0.61566146476048833 20.072220968216666 40.639014412870033 8.093266463110389 1 rotate no_reflect no_shear #
lump $-1 $-1 $49 $4 #
transform $-1 1 0 0 0 0.61566146476048833 -0.78801076186113728 0 0.78801076186113728 0.61566146476048833 37.883096945246962 93.582964137465467 102.78592117602918 1 rotate no_reflect no_shear #
lump $-1 $-1 $50 $5 #
transform $-1 1 0 0 0 -0.61566146476048833 0.78801076186113728 0 -0.78801076186113728 -0.61566146476048833 34.816592484941367 40.639014412870033 8.093266463110389 1 rotate no_reflect no_shear #
lump $-1 $-1 $51 $6 #
transform $-1 1 0 0 0 -0.61566146476048833 0.78801076186113728 0 -0.78801076186113728 -0.61566146476048833 40.949601405552556 40.639014412870033 8.093266463110389 1 rotate no_reflect no_shear #
lump $-1 $-1 $52 $7 #
transform $-1 1 0 0 0 0.61566146476048833 -0.78801076186113728 0 0.78801076186113728 0.61566146476048833 58.760477382582849 93.582964137465467 102.78592117602918 1 rotate no_reflect no_shear #
lump $-1 $-1 $53 $8 #
transform $-1 1 0 0 0 -0.61566146476048833 0.78801076186113728 0 -0.78801076186113728 -0.61566146476048833 55.693972922277254 40.639014412870033 8.093266463110389 1 rotate no_reflect no_shear #
lump $-1 $-1 $54 $9 #
transform $-1 1 0 0 0 -0.61566146476048833 0.78801076186113728 0 -0.78801076186113728 -0.61566146476048833 61.826981842888443 40.639014412870033 8.093266463110389 1 rotate no_reflect no_shear #
lump $-1 $-1 $55 $10 #
transform $-1 1 0 0 0 0.61566146476048833 -0.78801076186113728 0 0.78801076186113728 0.61566146476048833 79.637857819918736 93.582964137465467 102.78592117602918 1 rotate no_reflect no_shear #
lump $-1 $-1 $56 $11 #
transform $-1 1 0 0 0 -0.61566146476048833 0.78801076186113728 0 -0.78801076186113728 -0.61566146476048833 76.571353359613141 40.639014412870033 8.093266463110389 1 rotate no_reflect no_shear #
lump $-1 $-1 $57 $12 #
transform $-1 1 0 0 0 -0.61566146476048833 0.78801076186113728 0 -0.78801076186113728 -0.61566146476048833 82.704362280224331 40.639014412870033 8.093266463110389 1 rotate no_reflect no_shear #
lump $-1 $-1 $58 $13 #
transform $-1 1 0 0 0 0.7313536940579346 0.68199836817093118 0 -0.68199836817093118 0.7313536940579346 4.9009001520382833 -65.910759985786044 79.697360127244906 1 rotate no_reflect no_shear #
lump $-1 $-1 $59 $14 #
transform $-1 1 0 0 0 -0.7313536940579346 -0.68199836817093118 0 0.68199836817093118 -0.7313536940579346 4.9009001520382833 5.0409374283862167 7.6637745086973359 1 rotate no_reflect no_shear #
shell $-1 $-1 $-1 $60 $-1 $15 #
shell $-1 $-1 $-1 $61 $-1 $17 #
shell $-1 $-1 $-1 $62 $-1 $19 #
shell $-1 $-1 $-1 $63 $-1 $21 #
shell $-1 $-1 $-1 $64 $-1 $23 #
shell $-1 $-1 $-1 $65 $-1 $25 #
shell $-1 $-1 $-1 $66 $-1 $27 #
shell $-1 $-1 $-1 $67 $-1 $29 #
shell $-1 $-1 $-1 $68 $-1 $31 #
shell $-1 $-1 $-1 $69 $-1 $33 #
shell $-1 $-1 $-1 $70 $-1 $35 #
shell $-1 $-1 $-1 $71 $-1 $37 #
shell $-1 $-1 $-1 $72 $-1 $39 #
shell $-1 $-1 $-1 $73 $-1 $41 #
shell $-1 $-1 $-1 $74 $-1 $43 #
face $-1 $75 $76 $45 $-1 $77 forward single #
face $-1 $78 $79 $46 $-1 $80 forward single #
face $-1 $81 $82 $47 $-1 $83 forward single #
face $-1 $84 $85 $48 $-1 $86 forward single #
face $-1 $87 $88 $49 $-1 $89 forward single #
face $-1 $90 $91 $50 $-1 $92 forward single #
face $-1 $93 $94 $51 $-1 $95 forward single #
face $-1 $96 $97 $52 $-1 $98 forward single #
face $-1 $99 $100 $53 $-1 $101 forward single #
face $-1 $102 $103 $54 $-1 $104 forward single #
face $-1 $105 $106 $55 $-1 $107 forward single #
face $-1 $108 $109 $56 $-1 $110 forward single #
face $-1 $111 $112 $57 $-1 $113 forward single #
face $-1 $114 $115 $58 $-1 $116 forward single #
face $-1 $117 $118 $59 $-1 $119 forward single #
face $-1 $120 $121 $45 $-1 $122 reversed single #
loop $-1 $-1 $123 $60 #
plane-surface $-1 0 0 6.39340475132175 0 0 1 1 0 0 forward_v I I I I #
face $-1 $124 $125 $46 $-1 $126 reversed single #
loop $-1 $-1 $127 $61 #
plane-surface $-1 0 0 96.643574327829825 0 0 1 1 0 0 forward_v I I I I #
face $-1 $128 $129 $47 $-1 $130 forward single #
loop $-1 $131 $132 $62 #
cone-surface $-1 0 0 -2.0627231666005432 0 0 1 1.5 0 0 1 I I 0 1 1.5 forward I I I I #
face $-1 $133 $134 $48 $-1 $135 forward single #
loop $-1 $136 $137 $63 #
cone-surface $-1 0 0 -2.0627231666005432 0 0 1 1.5 0 0 1 I I 0 1 1.5 forward I I I I #
face $-1 $138 $139 $49 $-1 $140 reversed single #
loop $-1 $-1 $141 $64 #
plane-surface $-1 0 0 96.643574327829825 0 0 1 1 0 0 forward_v I I I I #
face $-1 $142 $143 $50 $-1 $144 forward single #
loop $-1 $145 $146 $65 #
cone-surface $-1 0 0 -2.0627231666005432 0 0 1 1.5 0 0 1 I I 0 1 1.5 forward I I I I #
face $-1 $147 $148 $51 $-1 $149 forward single #
loop $-1 $150 $151 $66 #
cone-surface $-1 0 0 -2.0627231666005432 0 0 1 1.5 0 0 1 I I 0 1 1.5 forward I I I I #
face $-1 $152 $153 $52 $-1 $154 reversed single #
loop $-1 $-1 $155 $67 #
plane-surface $-1 0 0 96.643574327829825 0 0 1 1 0 0 forward_v I I I I #
face $-1 $156 $157 $53 $-1 $158 forward single #
loop $-1 $159 $160 $68 #
cone-surface $-1 0 0 -2.0627231666005432 0 0 1 1.5 0 0 1 I I 0 1 1.5 forward I I I I #
face $-1 $161 $162 $54 $-1 $163 forward single #
loop $-1 $164 $165 $69 #
cone-surface $-1 0 0 -2.0627231666005432 0 0 1 1.5 0 0 1 I I 0 1 1.5 forward I I I I #
face $-1 $166 $167 $55 $-1 $168 reversed single #
loop $-1 $-1 $169 $70 #
plane-surface $-1 0 0 96.643574327829825 0 0 1 1 0 0 forward_v I I I I #
face $-1 $170 $171 $56 $-1 $172 forward single #
loop $-1 $173 $174 $71 #
cone-surface $-1 0 0 -2.0627231666005432 0 0 1 1.5 0 0 1 I I 0 1 1.5 forward I I I I #
face $-1 $175 $176 $57 $-1 $177 forward single #
loop $-1 $178 $179 $72 #
cone-surface $-1 0 0 -2.0627231666005432 0 0 1 1.5 0 0 1 I I 0 1 1.5 forward I I I I #
face $-1 $180 $181 $58 $-1 $182 reversed single #
loop $-1 $-1 $183 $73 #
plane-surface $-1 0 0 96.643574327829825 0 0 1 1 0 0 forward_v I I I I #
face $-1 $184 $185 $59 $-1 $186 forward single #
loop $-1 $187 $188 $74 #
cone-surface $-1 0 0 -2.4636982329783015 0 0 1 1 0 0 1 I I 0 1 1 forward I I I I #
face $-1 $189 $190 $45 $-1 $191 reversed single #
loop $-1 $-1 $192 $75 #
plane-surface $-1 0 0 -6.39340475132175 0 0 1 1 0 0 forward_v I I I I #
coedge $-1 $193 $194 $195 $196 forward $76 $-1 #
face $-1 $197 $198 $46 $-1 $199 reversed single #
loop $-1 $-1 $200 $78 #
plane-surface $-1 0 0 -96.643574327829825 0 0 1 1 0 0 forward_v I I I I #
coedge $-1 $201 $202 $203 $204 forward $79 $-1 #
face $-1 $-1 $205 $47 $-1 $206 forward single #
loop $-1 $-1 $207 $81 #
plane-surface $-1 0 0 -3.3754463332010864 0 0 -1 -1 0 0 forward_v I I I I #
loop $-1 $-1 $208 $62 #
coedge $-1 $132 $132 $207 $209 reversed $82 $-1 #
face $-1 $-1 $210 $48 $-1 $211 forward single #
loop $-1 $-1 $212 $84 #
plane-surface $-1 0 0 -3.3754463332010864 0 0 -1 -1 0 0 forward_v I I I I #
loop $-1 $-1 $213 $63 #
coedge $-1 $137 $137 $212 $214 reversed $85 $-1 #
face $-1 $215 $216 $49 $-1 $217 reversed single #
loop $-1 $-1 $218 $87 #
plane-surface $-1 0 0 -96.643574327829825 0 0 1 1 0 0 forward_v I I I I #
coedge $-1 $219 $220 $221 $222 forward $88 $-1 #
face $-1 $-1 $223 $50 $-1 $224 forward single #
loop $-1 $-1 $225 $90 #
plane-surface $-1 0 0 -3.3754463332010864 0 0 -1 -1 0 0 forward_v I I I I #
loop $-1 $-1 $226 $65 #
coedge $-1 $146 $146 $225 $227 reversed $91 $-1 #
face $-1 $-1 $228 $51 $-1 $229 forward single #
loop $-1 $-1 $230 $93 #
plane-surface $-1 0 0 -3.3754463332010864 0 0 -1 -1 0 0 forward_v I I I I #
loop $-1 $-1 $231 $66 #
coedge $-1 $151 $151 $230 $232 reversed $94 $-1 #
face $-1 $233 $234 $52 $-1 $235 reversed single #
loop $-1 $-1 $236 $96 #
plane-surface $-1 0 0 -96.643574327829825 0 0 1 1 0 0 forward_v I I I I #
coedge $-1 $237 $238 $239 $240 forward $97 $-1 #
face $-1 $-1 $241 $53 $-1 $242 forward single #
loop $-1 $-1 $243 $99 #
plane-surface $-1 0 0 -3.3754463332010864 0 0 -1 -1 0 0 forward_v I I I I #
loop $-1 $-1 $244 $68 #
coedge $-1 $160 $160 $243 $245 reversed $100 $-1 #
face $-1 $-1 $246 $54 $-1 $247 forward single #
loop $-1 $-1 $248 $102 #
plane-surface $-1 0 0 -3.3754463332010864 0 0 -1 -1 0 0 forward_v I I I I #
loop $-1 $-1 $249 $69 #
coedge $-1 $165 $165 $248 $250 reversed $103 $-1 #
face $-1 $251 $252 $55 $-1 $253 reversed single #
loop $-1 $-1 $254 $105 #
plane-surface $-1 0 0 -96.643574327829825 0 0 1 1 0 0 forward_v I I I I #
coedge $-1 $255 $256 $257 $258 forward $106 $-1 #
face $-1 $-1 $259 $56 $-1 $260 forward single #
loop $-1 $-1 $261 $108 #
plane-surface $-1 0 0 -3.3754463332010864 0 0 -1 -1 0 0 forward_v I I I I #
loop $-1 $-1 $262 $71 #
coedge $-1 $174 $174 $261 $263 reversed $109 $-1 #
face $-1 $-1 $264 $57 $-1 $265 forward single #
loop $-1 $-1 $266 $111 #
plane-surface $-1 0 0 -3.3754463332010864 0 0 -1 -1 0 0 forward_v I I I I #
loop $-1 $-1 $267 $72 #
coedge $-1 $179 $179 $266 $268 reversed $112 $-1 #
face $-1 $269 $270 $58 $-1 $271 reversed single #
loop $-1 $-1 $272 $114 #
plane-surface $-1 0 0 -96.643574327829825 0 0 1 1 0 0 forward_v I I I I #
coedge $-1 $273 $274 $275 $276 forward $115 $-1 #
face $-1 $-1 $277 $59 $-1 $278 forward single #
loop $-1 $-1 $279 $117 #
plane-surface $-1 0 0 -4.427396465956603 0 0 -1 -1 0 0 forward_v I I I I #
loop $-1 $-1 $280 $74 #
coedge $-1 $188 $188 $279 $281 reversed $118 $-1 #
face $-1 $282 $283 $45 $-1 $284 reversed single #
loop $-1 $-1 $285 $120 #
plane-surface $-1 0 -22.671142631519917 0 0 1 0 0 0 1 forward_v I I I I #
coedge $-1 $286 $287 $288 $289 forward $121 $-1 #
coedge $-1 $290 $123 $291 $292 forward $76 $-1 #
coedge $-1 $123 $290 $293 $294 forward $76 $-1 #
coedge $-1 $295 $296 $123 $196 reversed $297 $-1 #
edge $-1 $298 -22.671142631519917 $299 22.671142631519917 $195 $300 forward 7 unknown #
face $-1 $301 $302 $46 $-1 $303 reversed single #
loop $-1 $-1 $304 $124 #
plane-surface $-1 0 -193.28714865565965 0 0 1 0 0 0 1 forward_v I I I I #
coedge $-1 $305 $306 $307 $308 forward $125 $-1 #
coedge $-1 $309 $127 $310 $311 forward $79 $-1 #
coedge $-1 $127 $309 $312 $313 forward $79 $-1 #
coedge $-1 $314 $315 $127 $204 reversed $316 $-1 #
edge $-1 $317 -193.28714865565965 $318 193.28714865565965 $203 $319 forward 7 unknown #
loop $-1 $320 $321 $128 #
cone-surface $-1 0 0 0 0 0 1 0.75 0 0 1 I I -0.70710678118654757 0.70710678118654757 0.75 forward I I I I #
coedge $-1 $207 $207 $132 $209 forward $129 $-1 #
coedge $-1 $208 $208 $321 $322 forward $131 $-1 #
edge $-1 $323 0 $323 6.2831853071796004 $207 $324 forward 7 unknown #
loop $-1 $325 $326 $133 #
cone-surface $-1 0 0 0 0 0 1 0.75 0 0 1 I I -0.70710678118654757 0.70710678118654757 0.75 forward I I I I #
coedge $-1 $212 $212 $137 $214 forward $134 $-1 #
coedge $-1 $213 $213 $326 $327 forward $136 $-1 #
edge $-1 $328 0 $328 6.2831853071796004 $212 $329 forward 7 unknown #
face $-1 $330 $331 $49 $-1 $332 reversed single #
loop $-1 $-1 $333 $138 #
plane-surface $-1 0 -193.28714865565965 0 0 1 0 0 0 1 forward_v I I I I #
coedge $-1 $334 $335 $336 $337 forward $139 $-1 #
coedge $-1 $338 $141 $339 $340 forward $88 $-1 #
coedge $-1 $141 $338 $341 $342 forward $88 $-1 #
coedge $-1 $343 $344 $141 $222 reversed $345 $-1 #
edge $-1 $346 -193.28714865565965 $347 193.28714865565965 $221 $348 forward 7 unknown #
loop $-1 $349 $350 $142 #
cone-surface $-1 0 0 0 0 0 1 0.75 0 0 1 I I -0.70710678118654757 0.70710678118654757 0.75 forward I I I I #
coedge $-1 $225 $225 $146 $227 forward $143 $-1 #
coedge $-1 $226 $226 $350 $351 forward $145 $-1 #
edge $-1 $352 0 $352 6.2831853071796004 $225 $353 forward 7 unknown #
loop $-1 $354 $355 $147 #
cone-surface $-1 0 0 0 0 0 1 0.75 0 0 1 I I -0.70710678118654757 0.70710678118654757 0.75 forward I I I I #
coedge $-1 $230 $230 $151 $232 forward $148 $-1 #
coedge $-1 $231 $231 $355 $356 forward $150 $-1 #
edge $-1 $357 0 $357 6.2831853071796004 $230 $358 forward 7 unknown #
face $-1 $359 $360 $52 $-1 $361 reversed single #
loop $-1 $-1 $362 $152 #
plane-surface $-1 0 -193.28714865565965 0 0 1 0 0 0 1 forward_v I I I I #
coedge $-1 $363 $364 $365 $366 forward $153 $-1 #
coedge $-1 $367 $155 $368 $369 forward $97 $-1 #
coedge $-1 $155 $367 $370 $371 forward $97 $-1 #
coedge $-1 $372 $373 $155 $240 reversed $374 $-1 #
edge $-1 $375 -193.28714865565965 $376 193.28714865565965 $239 $377 forward 7 unknown #
loop $-1 $378 $379 $156 #
cone-surface $-1 0 0 0 0 0 1 0.75 0 0 1 I I -0.70710678118654757 0.70710678118654757 0.75 forward I I I I #
coedge $-1 $243 $243 $160 $245 forward $157 $-1 #
coedge $-1 $244 $244 $379 $380 forward $159 $-1 #
edge $-1 $381 0 $381 6.2831853071796004 $243 $382 forward 7 unknown #
loop $-1 $383 $384 $161 #
cone-surface $-1 0 0 0 0 0 1 0.75 0 0 1 I I -0.70710678118654757 0.70710678118654757 0.75 forward I I I I #
coedge $-1 $248 $248 $165 $250 forward $162 $-1 #
coedge $-1 $249 $249 $384 $385 forward $164 $-1 #
edge $-1 $386 0 $386 6.2831853071796004 $248 $387 forward 7 unknown #
face $-1 $388 $389 $55 $-1 $390 reversed single #
loop $-1 $-1 $391 $166 #
plane-surface $-1 0 -193.28714865565965 0 0 1 0 0 0 1 forward_v I I I I #
coedge $-1 $392 $393 $394 $395 forward $167 $-1 #
coedge $-1 $396 $169 $397 $398 forward $106 $-1 #
coedge $-1 $169 $396 $399 $400 forward $106 $-1 #
coedge $-1 $401 $402 $169 $258 reversed $403 $-1 #
edge $-1 $404 -193.28714865565965 $405 193.28714865565965 $257 $406 forward 7 unknown #
loop $-1 $407 $408 $170 #
cone-surface $-1 0 0 0 0 0 1 0.75 0 0 1 I I -0.70710678118654757 0.70710678118654757 0.75 forward I I I I #
coedge $-1 $261 $261 $174 $263 forward $171 $-1 #
coedge $-1 $262 $262 $408 $409 forward $173 $-1 #
edge $-1 $410 0 $410 6.2831853071796004 $261 $411 forward 7 unknown #
loop $-1 $412 $413 $175 #
cone-surface $-1 0 0 0 0 0 1 0.75 0 0 1 I I -0.70710678118654757 0.70710678118654757 0.75 forward I I I I #
coedge $-1 $266 $266 $179 $268 forward $176 $-1 #
coedge $-1 $267 $267 $413 $414 forward $178 $-1 #
edge $-1 $415 0 $415 6.2831853071796004 $266 $416 forward 7 unknown #
face $-1 $417 $418 $58 $-1 $419 reversed single #
loop $-1 $-1 $420 $180 #
plane-surface $-1 0 -193.28714865565965 0 0 1 0 0 0 1 forward_v I I I I #
coedge $-1 $421 $422 $423 $424 forward $181 $-1 #
coedge $-1 $425 $183 $426 $427 forward $115 $-1 #
coedge $-1 $183 $425 $428 $429 forward $115 $-1 #
coedge $-1 $430 $431 $183 $276 reversed $432 $-1 #
edge $-1 $433 -193.28714865565965 $434 193.28714865565965 $275 $435 forward 7 unknown #
loop $-1 $436 $437 $184 #
cone-surface $-1 0 0 0 0 0 1 0.5 0 0 1 I I -0.70710678118654746 0.70710678118654746 0.5 forward I I I I #
coedge $-1 $279 $279 $188 $281 forward $185 $-1 #
coedge $-1 $280 $280 $437 $438 forward $187 $-1 #
edge $-1 $439 0 $439 6.2831853071796004 $279 $440 forward 7 unknown #
face $-1 $441 $442 $45 $-1 $443 reversed single #
loop $-1 $-1 $444 $189 #
plane-surface $-1 -48.321787163914912 0 0 1 0 0 0 0 -1 forward_v I I I I #
coedge $-1 $445 $293 $446 $447 forward $190 $-1 #
coedge $-1 $448 $192 $445 $449 forward $121 $-1 #
coedge $-1 $192 $448 $450 $451 forward $121 $-1 #
coedge $-1 $296 $295 $192 $289 reversed $297 $-1 #
edge $-1 $452 -22.671142631519917 $453 22.671142631519917 $288 $454 forward 7 unknown #
coedge $-1 $194 $193 $455 $456 forward $76 $-1 #
coedge $-1 $457 $458 $193 $292 reversed $442 $-1 #
edge $-1 $299 -48.321787163914912 $459 48.321787163914912 $291 $460 forward 7 unknown #
coedge $-1 $285 $461 $194 $294 reversed $190 $-1 #
edge $-1 $462 -48.321787163914912 $298 48.321787163914912 $293 $463 forward 7 unknown #
coedge $-1 $288 $195 $461 $464 forward $297 $-1 #
coedge $-1 $195 $288 $457 $465 reversed $297 $-1 #
loop $-1 $-1 $295 $441 #
vertex $-1 $196 $466 #
vertex $-1 $196 $467 #
straight-curve $-1 48.321787163914912 0 6.39340475132175 0 1 0 I I #
face $-1 $468 $469 $46 $-1 $470 reversed single #
loop $-1 $-1 $471 $197 #
plane-surface $-1 -7.1551770740463834 0 0 1 0 0 0 0 -1 forward_v I I I I #
coedge $-1 $472 $312 $473 $474 forward $198 $-1 #
coedge $-1 $475 $200 $472 $476 forward $125 $-1 #
coedge $-1 $200 $475 $477 $478 forward $125 $-1 #
coedge $-1 $315 $314 $200 $308 reversed $316 $-1 #
edge $-1 $479 -193.28714865565965 $480 193.28714865565965 $307 $481 forward 7 unknown #
coedge $-1 $202 $201 $482 $483 forward $79 $-1 #
coedge $-1 $484 $485 $201 $311 reversed $469 $-1 #
edge $-1 $318 -7.1551770740463834 $486 7.1551770740463834 $310 $487 forward 7 unknown #
coedge $-1 $304 $488 $202 $313 reversed $198 $-1 #
edge $-1 $489 -7.1551770740463834 $317 7.1551770740463834 $312 $490 forward 7 unknown #
coedge $-1 $307 $203 $488 $491 forward $316 $-1 #
coedge $-1 $203 $307 $484 $492 reversed $316 $-1 #
loop $-1 $-1 $314 $468 #
vertex $-1 $204 $493 #
vertex $-1 $204 $494 #
straight-curve $-1 7.1551770740463834 0 96.643574327829825 0 1 0 I I #
loop $-1 $-1 $495 $128 #
coedge $-1 $321 $321 $208 $322 reversed $205 $-1 #
edge $-1 $496 0 $496 6.2831853071796004 $321 $497 forward 7 unknown #
vertex $-1 $209 $498 #
ellipse-curve $-1 0 0 -3.3754463332010864 0 0 -1 1.5 0 0 1 I I #
loop $-1 $-1 $499 $133 #
coedge $-1 $326 $326 $213 $327 reversed $210 $-1 #
edge $-1 $500 0 $500 6.2831853071796004 $326 $501 forward 7 unknown #
vertex $-1 $214 $502 #
ellipse-curve $-1 0 0 -3.3754463332010864 0 0 -1 1.5 0 0 1 I I #
face $-1 $503 $504 $49 $-1 $505 reversed single #
loop $-1 $-1 $506 $215 #
plane-surface $-1 -7.1551770740463834 0 0 1 0 0 0 0 -1 forward_v I I I I #
coedge $-1 $507 $341 $508 $509 forward $216 $-1 #
coedge $-1 $510 $218 $507 $511 forward $139 $-1 #
coedge $-1 $218 $510 $512 $513 forward $139 $-1 #
coedge $-1 $344 $343 $218 $337 reversed $345 $-1 #
edge $-1 $514 -193.28714865565965 $515 193.28714865565965 $336 $516 forward 7 unknown #
coedge $-1 $220 $219 $517 $518 forward $88 $-1 #
coedge $-1 $519 $520 $219 $340 reversed $504 $-1 #
edge $-1 $347 -7.1551770740463834 $521 7.1551770740463834 $339 $522 forward 7 unknown #
coedge $-1 $333 $523 $220 $342 reversed $216 $-1 #
edge $-1 $524 -7.1551770740463834 $346 7.1551770740463834 $341 $525 forward 7 unknown #
coedge $-1 $336 $221 $523 $526 forward $345 $-1 #
coedge $-1 $221 $336 $519 $527 reversed $345 $-1 #
loop $-1 $-1 $343 $503 #
vertex $-1 $222 $528 #
vertex $-1 $222 $529 #
straight-curve $-1 7.1551770740463834 0 96.643574327829825 0 1 0 I I #
loop $-1 $-1 $530 $142 #
coedge $-1 $350 $350 $226 $351 reversed $223 $-1 #
edge $-1 $531 0 $531 6.2831853071796004 $350 $532 forward 7 unknown #
vertex $-1 $227 $533 #
ellipse-curve $-1 0 0 -3.3754463332010864 0 0 -1 1.5 0 0 1 I I #
loop $-1 $-1 $534 $147 #
coedge $-1 $355 $355 $231 $356 reversed $228 $-1 #
edge $-1 $535 0 $535 6.2831853071796004 $355 $536 forward 7 unknown #
vertex $-1 $232 $537 #
ellipse-curve $-1 0 0 -3.3754463332010864 0 0 -1 1.5 0 0 1 I I #
face $-1 $538 $539 $52 $-1 $540 reversed single #
loop $-1 $-1 $541 $233 #
plane-surface $-1 -7.1551770740463834 0 0 1 0 0 0 0 -1 forward_v I I I I #
coedge $-1 $542 $370 $543 $544 forward $234 $-1 #
coedge $-1 $545 $236 $542 $546 forward $153 $-1 #
coedge $-1 $236 $545 $547 $548 forward $153 $-1 #
coedge $-1 $373 $372 $236 $366 reversed $374 $-1 #
edge $-1 $549 -193.28714865565965 $550 193.28714865565965 $365 $551 forward 7 unknown #
coedge $-1 $238 $237 $552 $553 forward $97 $-1 #
coedge $-1 $554 $555 $237 $369 reversed $539 $-1 #
edge $-1 $376 -7.1551770740463834 $556 7.1551770740463834 $368 $557 forward 7 unknown #
coedge $-1 $362 $558 $238 $371 reversed $234 $-1 #
edge $-1 $559 -7.1551770740463834 $375 7.1551770740463834 $370 $560 forward 7 unknown #
coedge $-1 $365 $239 $558 $561 forward $374 $-1 #
coedge $-1 $239 $365 $554 $562 reversed $374 $-1 #
loop $-1 $-1 $372 $538 #
vertex $-1 $240 $563 #
vertex $-1 $240 $564 #
straight-curve $-1 7.1551770740463834 0 96.643574327829825 0 1 0 I I #
loop $-1 $-1 $565 $156 #
coedge $-1 $379 $379 $244 $380 reversed $241 $-1 #
edge $-1 $566 0 $566 6.2831853071796004 $379 $567 forward 7 unknown #
vertex $-1 $245 $568 #
ellipse-curve $-1 0 0 -3.3754463332010864 0 0 -1 1.5 0 0 1 I I #
loop $-1 $-1 $569 $161 #
coedge $-1 $384 $384 $249 $385 reversed $246 $-1 #
edge $-1 $570 0 $570 6.2831853071796004 $384 $571 forward 7 unknown #
vertex $-1 $250 $572 #
ellipse-curve $-1 0 0 -3.3754463332010864 0 0 -1 1.5 0 0 1 I I #
face $-1 $573 $574 $55 $-1 $575 reversed single #
loop $-1 $-1 $576 $251 #
plane-surface $-1 -7.1551770740463834 0 0 1 0 0 0 0 -1 forward_v I I I I #
coedge $-1 $577 $399 $578 $579 forward $252 $-1 #
coedge $-1 $580 $254 $577 $581 forward $167 $-1 #
coedge $-1 $254 $580 $582 $583 forward $167 $-1 #
coedge $-1 $402 $401 $254 $395 reversed $403 $-1 #
edge $-1 $584 -193.28714865565965 $585 193.28714865565965 $394 $586 forward 7 unknown #
coedge $-1 $256 $255 $587 $588 forward $106 $-1 #
coedge $-1 $589 $590 $255 $398 reversed $574 $-1 #
edge $-1 $405 -7.1551770740463834 $591 7.1551770740463834 $397 $592 forward 7 unknown #
coedge $-1 $391 $593 $256 $400 reversed $252 $-1 #
edge $-1 $594 -7.1551770740463834 $404 7.1551770740463834 $399 $595 forward 7 unknown #
coedge $-1 $394 $257 $593 $596 forward $403 $-1 #
coedge $-1 $257 $394 $589 $597 reversed $403 $-1 #
loop $-1 $-1 $401 $573 #
vertex $-1 $258 $598 #
vertex $-1 $258 $599 #
straight-curve $-1 7.1551770740463834 0 96.643574327829825 0 1 0 I I #
loop $-1 $-1 $600 $170 #
coedge $-1 $408 $408 $262 $409 reversed $259 $-1 #
edge $-1 $601 0 $601 6.2831853071796004 $408 $602 forward 7 unknown #
vertex $-1 $263 $603 #
ellipse-curve $-1 0 0 -3.3754463332010864 0 0 -1 1.5 0 0 1 I I #
loop $-1 $-1 $604 $175 #
coedge $-1 $413 $413 $267 $414 reversed $264 $-1 #
edge $-1 $605 0 $605 6.2831853071796004 $413 $606 forward 7 unknown #
vertex $-1 $268 $607 #
ellipse-curve $-1 0 0 -3.3754463332010864 0 0 -1 1.5 0 0 1 I I #
face $-1 $608 $609 $58 $-1 $610 reversed single #
loop $-1 $-1 $611 $269 #
plane-surface $-1 -4.9009001520382833 0 0 1 0 0 0 0 -1 forward_v I I I I #
coedge $-1 $612 $428 $613 $614 forward $270 $-1 #
coedge $-1 $615 $272 $612 $616 forward $181 $-1 #
coedge $-1 $272 $615 $617 $618 forward $181 $-1 #
coedge $-1 $431 $430 $272 $424 reversed $432 $-1 #
edge $-1 $619 -193.28714865565965 $620 193.28714865565965 $423 $621 forward 7 unknown #
coedge $-1 $274 $273 $622 $623 forward $115 $-1 #
coedge $-1 $624 $625 $273 $427 reversed $609 $-1 #
edge $-1 $434 -4.9009001520382833 $626 4.9009001520382833 $426 $627 forward 7 unknown #
coedge $-1 $420 $628 $274 $429 reversed $270 $-1 #
edge $-1 $629 -4.9009001520382833 $433 4.9009001520382833 $428 $630 forward 7 unknown #
coedge $-1 $423 $275 $628 $631 forward $432 $-1 #
coedge $-1 $275 $423 $624 $632 reversed $432 $-1 #
loop $-1 $-1 $430 $608 #
vertex $-1 $276 $633 #
vertex $-1 $276 $634 #
straight-curve $-1 4.9009001520382833 0 96.643574327829825 0 1 0 I I #
loop $-1 $-1 $635 $184 #
coedge $-1 $437 $437 $280 $438 reversed $277 $-1 #
edge $-1 $636 0 $636 6.2831853071796004 $437 $637 forward 7 unknown #
vertex $-1 $281 $638 #
ellipse-curve $-1 0 0 -4.427396465956603 0 0 -1 1 0 0 1 I I #
face $-1 $-1 $297 $45 $-1 $639 reversed single #
loop $-1 $-1 $457 $282 #
plane-surface $-1 0 22.671142631519917 0 0 -1 0 0 0 -1 forward_v I I I I #
coedge $-1 $640 $455 $458 $641 forward $283 $-1 #
coedge $-1 $461 $285 $286 $449 reversed $190 $-1 #
coedge $-1 $455 $640 $285 $447 reversed $283 $-1 #
edge $-1 $462 -6.39340475132175 $642 6.39340475132175 $446 $643 forward 7 unknown #
coedge $-1 $287 $286 $640 $644 forward $121 $-1 #
edge $-1 $453 -48.321787163914912 $642 48.321787163914912 $445 $645 forward 7 unknown #
coedge $-1 $458 $457 $287 $451 reversed $442 $-1 #
edge $-1 $646 -48.321787163914912 $452 48.321787163914912 $450 $647 forward 7 unknown #
vertex $-1 $289 $648 #
vertex $-1 $464 $649 #
straight-curve $-1 48.321787163914912 0 -6.39340475132175 0 -1 0 I I #
coedge $-1 $444 $446 $290 $456 reversed $283 $-1 #
edge $-1 $459 -22.671142631519917 $462 22.671142631519917 $455 $650 forward 7 unknown #
coedge $-1 $450 $291 $296 $465 forward $442 $-1 #
coedge $-1 $291 $450 $444 $641 reversed $442 $-1 #
vertex $-1 $292 $651 #
straight-curve $-1 0 22.671142631519917 6.39340475132175 -1 0 0 I I #
coedge $-1 $293 $445 $295 $464 reversed $190 $-1 #
vertex $-1 $456 $652 #
straight-curve $-1 0 -22.671142631519917 6.39340475132175 1 0 0 I I #
edge $-1 $298 -6.39340475132175 $453 6.39340475132175 $295 $653 forward 7 unknown #
edge $-1 $299 -6.39340475132175 $452 6.39340475132175 $296 $654 forward 7 unknown #
point $-1 48.321787163914912 -22.671142631519917 6.39340475132175 #
point $-1 48.321787163914912 22.671142631519917 6.39340475132175 #
face $-1 $-1 $316 $46 $-1 $655 reversed single #
loop $-1 $-1 $484 $301 #
plane-surface $-1 0 193.28714865565965 0 0 -1 0 0 0 -1 forward_v I I I I #
coedge $-1 $656 $482 $485 $657 forward $302 $-1 #
coedge $-1 $488 $304 $305 $476 reversed $198 $-1 #
coedge $-1 $482 $656 $304 $474 reversed $302 $-1 #
edge $-1 $489 -96.643574327829825 $658 96.643574327829825 $473 $659 forward 7 unknown #
coedge $-1 $306 $305 $656 $660 forward $125 $-1 #
edge $-1 $480 -7.1551770740463834 $658 7.1551770740463834 $472 $661 forward 7 unknown #
coedge $-1 $485 $484 $306 $478 reversed $469 $-1 #
edge $-1 $662 -7.1551770740463834 $479 7.1551770740463834 $477 $663 forward 7 unknown #
vertex $-1 $308 $664 #
vertex $-1 $491 $665 #
straight-curve $-1 7.1551770740463834 0 -96.643574327829825 0 -1 0 I I #
coedge $-1 $471 $473 $309 $483 reversed $302 $-1 #
edge $-1 $486 -193.28714865565965 $489 193.28714865565965 $482 $666 forward 7 unknown #
coedge $-1 $477 $310 $315 $492 forward $469 $-1 #
coedge $-1 $310 $477 $471 $657 reversed $469 $-1 #
vertex $-1 $311 $667 #
straight-curve $-1 0 193.28714865565965 96.643574327829825 -1 0 0 I I #
coedge $-1 $312 $472 $314 $491 reversed $198 $-1 #
vertex $-1 $483 $668 #
straight-curve $-1 0 -193.28714865565965 96.643574327829825 1 0 0 I I #
edge $-1 $317 -96.643574327829825 $480 96.643574327829825 $314 $669 forward 7 unknown #
edge $-1 $318 -96.643574327829825 $479 96.643574327829825 $315 $670 forward 7 unknown #
point $-1 7.1551770740463834 -193.28714865565965 96.643574327829825 #
point $-1 7.1551770740463834 193.28714865565965 96.643574327829825 #
coedge $-1 $495 $495 $-1 $671 reversed $320 $-1 #
vertex $-1 $322 $672 #
ellipse-curve $-1 0 0 -0.75 0 0 -1 1.5 0 0 1 I I #
point $-1 1.5 0 -3.3754463332010864 #
coedge $-1 $499 $499 $-1 $673 reversed $325 $-1 #
vertex $-1 $327 $674 #
ellipse-curve $-1 0 0 -0.75 0 0 -1 1.5 0 0 1 I I #
point $-1 1.5 0 -3.3754463332010864 #
face $-1 $-1 $345 $49 $-1 $675 reversed single #
loop $-1 $-1 $519 $330 #
plane-surface $-1 0 193.28714865565965 0 0 -1 0 0 0 -1 forward_v I I I I #
coedge $-1 $676 $517 $520 $677 forward $331 $-1 #
coedge $-1 $523 $333 $334 $511 reversed $216 $-1 #
coedge $-1 $517 $676 $333 $509 reversed $331 $-1 #
edge $-1 $524 -96.643574327829825 $678 96.643574327829825 $508 $679 forward 7 unknown #
coedge $-1 $335 $334 $676 $680 forward $139 $-1 #
edge $-1 $515 -7.1551770740463834 $678 7.1551770740463834 $507 $681 forward 7 unknown #
coedge $-1 $520 $519 $335 $513 reversed $504 $-1 #
edge $-1 $682 -7.1551770740463834 $514 7.1551770740463834 $512 $683 forward 7 unknown #
vertex $-1 $337 $684 #
vertex $-1 $526 $685 #
straight-curve $-1 7.1551770740463834 0 -96.643574327829825 0 -1 0 I I #
coedge $-1 $506 $508 $338 $518 reversed $331 $-1 #
edge $-1 $521 -193.28714865565965 $524 193.28714865565965 $517 $686 forward 7 unknown #
coedge $-1 $512 $339 $344 $527 forward $504 $-1 #
coedge $-1 $339 $512 $506 $677 reversed $504 $-1 #
vertex $-1 $340 $687 #
straight-curve $-1 0 193.28714865565965 96.643574327829825 -1 0 0 I I #
coedge $-1 $341 $507 $343 $526 reversed $216 $-1 #
vertex $-1 $518 $688 #
straight-curve $-1 0 -193.28714865565965 96.643574327829825 1 0 0 I I #
edge $-1 $346 -96.643574327829825 $515 96.643574327829825 $343 $689 forward 7 unknown #
edge $-1 $347 -96.643574327829825 $514 96.643574327829825 $344 $690 forward 7 unknown #
point $-1 7.1551770740463834 -193.28714865565965 96.643574327829825 #
point $-1 7.1551770740463834 193.28714865565965 96.643574327829825 #
coedge $-1 $530 $530 $-1 $691 reversed $349 $-1 #
vertex $-1 $351 $692 #
ellipse-curve $-1 0 0 -0.75 0 0 -1 1.5 0 0 1 I I #
point $-1 1.5 0 -3.3754463332010864 #
coedge $-1 $534 $534 $-1 $693 reversed $354 $-1 #
vertex $-1 $356 $694 #
ellipse-curve $-1 0 0 -0.75 0 0 -1 1.5 0 0 1 I I #
point $-1 1.5 0 -3.3754463332010864 #
face $-1 $-1 $374 $52 $-1 $695 reversed single #
loop $-1 $-1 $554 $359 #
plane-surface $-1 0 193.28714865565965 0 0 -1 0 0 0 -1 forward_v I I I I #
coedge $-1 $696 $552 $555 $697 forward $360 $-1 #
coedge $-1 $558 $362 $363 $546 reversed $234 $-1 #
coedge $-1 $552 $696 $362 $544 reversed $360 $-1 #
edge $-1 $559 -96.643574327829825 $698 96.643574327829825 $543 $699 forward 7 unknown #
coedge $-1 $364 $363 $696 $700 forward $153 $-1 #
edge $-1 $550 -7.1551770740463834 $698 7.1551770740463834 $542 $701 forward 7 unknown #
coedge $-1 $555 $554 $364 $548 reversed $539 $-1 #
edge $-1 $702 -7.1551770740463834 $549 7.1551770740463834 $547 $703 forward 7 unknown #
vertex $-1 $366 $704 #
vertex $-1 $561 $705 #
straight-curve $-1 7.1551770740463834 0 -96.643574327829825 0 -1 0 I I #
coedge $-1 $541 $543 $367 $553 reversed $360 $-1 #
edge $-1 $556 -193.28714865565965 $559 193.28714865565965 $552 $706 forward 7 unknown #
coedge $-1 $547 $368 $373 $562 forward $539 $-1 #
coedge $-1 $368 $547 $541 $697 reversed $539 $-1 #
vertex $-1 $369 $707 #
straight-curve $-1 0 193.28714865565965 96.643574327829825 -1 0 0 I I #
coedge $-1 $370 $542 $372 $561 reversed $234 $-1 #
vertex $-1 $553 $708 #
straight-curve $-1 0 -193.28714865565965 96.643574327829825 1 0 0 I I #
edge $-1 $375 -96.643574327829825 $550 96.643574327829825 $372 $709 forward 7 unknown #
edge $-1 $376 -96.643574327829825 $549 96.643574327829825 $373 $710 forward 7 unknown #
point $-1 7.1551770740463834 -193.28714865565965 96.643574327829825 #
point $-1 7.1551770740463834 193.28714865565965 96.643574327829825 #
coedge $-1 $565 $565 $-1 $711 reversed $378 $-1 #
vertex $-1 $380 $712 #
ellipse-curve $-1 0 0 -0.75 0 0 -1 1.5 0 0 1 I I #
point $-1 1.5 0 -3.3754463332010864 #
coedge $-1 $569 $569 $-1 $713 reversed $383 $-1 #
vertex $-1 $385 $714 #
ellipse-curve $-1 0 0 -0.75 0 0 -1 1.5 0 0 1 I I #
point $-1 1.5 0 -3.3754463332010864 #
face $-1 $-1 $403 $55 $-1 $715 reversed single #
loop $-1 $-1 $589 $388 #
plane-surface $-1 0 193.28714865565965 0 0 -1 0 0 0 -1 forward_v I I I I #
coedge $-1 $716 $587 $590 $717 forward $389 $-1 #
coedge $-1 $593 $391 $392 $581 reversed $252 $-1 #
coedge $-1 $587 $716 $391 $579 reversed $389 $-1 #
edge $-1 $594 -96.643574327829825 $718 96.643574327829825 $578 $719 forward 7 unknown #
coedge $-1 $393 $392 $716 $720 forward $167 $-1 #
edge $-1 $585 -7.1551770740463834 $718 7.1551770740463834 $577 $721 forward 7 unknown #
coedge $-1 $590 $589 $393 $583 reversed $574 $-1 #
edge $-1 $722 -7.1551770740463834 $584 7.1551770740463834 $582 $723 forward 7 unknown #
vertex $-1 $395 $724 #
vertex $-1 $596 $725 #
straight-curve $-1 7.1551770740463834 0 -96.643574327829825 0 -1 0 I I #
coedge $-1 $576 $578 $396 $588 reversed $389 $-1 #
edge $-1 $591 -193.28714865565965 $594 193.28714865565965 $587 $726 forward 7 unknown #
coedge $-1 $582 $397 $402 $597 forward $574 $-1 #
coedge $-1 $397 $582 $576 $717 reversed $574 $-1 #
vertex $-1 $398 $727 #
straight-curve $-1 0 193.28714865565965 96.643574327829825 -1 0 0 I I #
coedge $-1 $399 $577 $401 $596 reversed $252 $-1 #
vertex $-1 $588 $728 #
straight-curve $-1 0 -193.28714865565965 96.643574327829825 1 0 0 I I #
edge $-1 $404 -96.643574327829825 $585 96.643574327829825 $401 $729 forward 7 unknown #
edge $-1 $405 -96.643574327829825 $584 96.643574327829825 $402 $730 forward 7 unknown #
point $-1 7.1551770740463834 -193.28714865565965 96.643574327829825 #
point $-1 7.1551770740463834 193.28714865565965 96.643574327829825 #
coedge $-1 $600 $600 $-1 $731 reversed $407 $-1 #
vertex $-1 $409 $732 #
ellipse-curve $-1 0 0 -0.75 0 0 -1 1.5 0 0 1 I I #
point $-1 1.5 0 -3.3754463332010864 #
coedge $-1 $604 $604 $-1 $733 reversed $412 $-1 #
vertex $-1 $414 $734 #
ellipse-curve $-1 0 0 -0.75 0 0 -1 1.5 0 0 1 I I #
point $-1 1.5 0 -3.3754463332010864 #
face $-1 $-1 $432 $58 $-1 $735 reversed single #
loop $-1 $-1 $624 $417 #
plane-surface $-1 0 193.28714865565965 0 0 -1 0 0 0 -1 forward_v I I I I #
coedge $-1 $736 $622 $625 $737 forward $418 $-1 #
coedge $-1 $628 $420 $421 $616 reversed $270 $-1 #
coedge $-1 $622 $736 $420 $614 reversed $418 $-1 #
edge $-1 $629 -96.643574327829825 $738 96.643574327829825 $613 $739 forward 7 unknown #
coedge $-1 $422 $421 $736 $740 forward $181 $-1 #
edge $-1 $620 -4.9009001520382833 $738 4.9009001520382833 $612 $741 forward 7 unknown #
coedge $-1 $625 $624 $422 $618 reversed $609 $-1 #
edge $-1 $742 -4.9009001520382833 $619 4.9009001520382833 $617 $743 forward 7 unknown #
vertex $-1 $424 $744 #
vertex $-1 $631 $745 #
straight-curve $-1 4.9009001520382833 0 -96.643574327829825 0 -1 0 I I #
coedge $-1 $611 $613 $425 $623 reversed $418 $-1 #
edge $-1 $626 -193.28714865565965 $629 193.28714865565965 $622 $746 forward 7 unknown #
coedge $-1 $617 $426 $431 $632 forward $609 $-1 #
coedge $-1 $426 $617 $611 $737 reversed $609 $-1 #
vertex $-1 $427 $747 #
straight-curve $-1 0 193.28714865565965 96.643574327829825 -1 0 0 I I #
coedge $-1 $428 $612 $430 $631 reversed $270 $-1 #
vertex $-1 $623 $748 #
straight-curve $-1 0 -193.28714865565965 96.643574327829825 1 0 0 I I #
edge $-1 $433 -96.643574327829825 $620 96.643574327829825 $430 $749 forward 7 unknown #
edge $-1 $434 -96.643574327829825 $619 96.643574327829825 $431 $750 forward 7 unknown #
point $-1 4.9009001520382833 -193.28714865565965 96.643574327829825 #
point $-1 4.9009001520382833 193.28714865565965 96.643574327829825 #
coedge $-1 $635 $635 $-1 $751 reversed $436 $-1 #
vertex $-1 $438 $752 #
ellipse-curve $-1 0 0 -0.5 0 0 -1 1 0 0 1 I I #
point $-1 1 0 -4.427396465956603 #
plane-surface $-1 48.321787163914912 0 0 -1 0 0 0 0 1 forward_v I I I I #
coedge $-1 $446 $444 $448 $644 reversed $283 $-1 #
edge $-1 $459 -6.39340475132175 $646 6.39340475132175 $458 $753 forward 7 unknown #
vertex $-1 $644 $754 #
straight-curve $-1 -48.321787163914912 -22.671142631519917 0 0 0 -1 I I #
edge $-1 $642 -22.671142631519917 $646 22.671142631519917 $640 $755 forward 7 unknown #
straight-curve $-1 0 -22.671142631519917 -6.39340475132175 -1 0 0 I I #
vertex $-1 $451 $756 #
straight-curve $-1 0 22.671142631519917 -6.39340475132175 1 0 0 I I #
point $-1 48.321787163914912 22.671142631519917 -6.39340475132175 #
point $-1 48.321787163914912 -22.671142631519917 -6.39340475132175 #
straight-curve $-1 -48.321787163914912 0 6.39340475132175 0 -1 0 I I #
point $-1 -48.321787163914912 22.671142631519917 6.39340475132175 #
point $-1 -48.321787163914912 -22.671142631519917 6.39340475132175 #
straight-curve $-1 48.321787163914912 -22.671142631519917 0 0 0 -1 I I #
straight-curve $-1 48.321787163914912 22.671142631519917 0 0 0 -1 I I #
plane-surface $-1 7.1551770740463834 0 0 -1 0 0 0 0 1 forward_v I I I I #
coedge $-1 $473 $471 $475 $660 reversed $302 $-1 #
edge $-1 $486 -96.643574327829825 $662 96.643574327829825 $485 $757 forward 7 unknown #
vertex $-1 $660 $758 #
straight-curve $-1 -7.1551770740463834 -193.28714865565965 0 0 0 -1 I I #
edge $-1 $658 -193.28714865565965 $662 193.28714865565965 $656 $759 forward 7 unknown #
straight-curve $-1 0 -193.28714865565965 -96.643574327829825 -1 0 0 I I #
vertex $-1 $478 $760 #
straight-curve $-1 0 193.28714865565965 -96.643574327829825 1 0 0 I I #
point $-1 7.1551770740463834 193.28714865565965 -96.643574327829825 #
point $-1 7.1551770740463834 -193.28714865565965 -96.643574327829825 #
straight-curve $-1 -7.1551770740463834 0 96.643574327829825 0 -1 0 I I #
point $-1 -7.1551770740463834 193.28714865565965 96.643574327829825 #
point $-1 -7.1551770740463834 -193.28714865565965 96.643574327829825 #
straight-curve $-1 7.1551770740463834 -193.28714865565965 0 0 0 -1 I I #
straight-curve $-1 7.1551770740463834 193.28714865565965 0 0 0 -1 I I #
edge $-1 $761 1 $761 0 $495 $-1 forward 7 unknown #
point $-1 1.5 0 -0.75 #
edge $-1 $762 1 $762 0 $499 $-1 forward 7 unknown #
point $-1 1.5 0 -0.75 #
plane-surface $-1 7.1551770740463834 0 0 -1 0 0 0 0 1 forward_v I I I I #
coedge $-1 $508 $506 $510 $680 reversed $331 $-1 #
edge $-1 $521 -96.643574327829825 $682 96.643574327829825 $520 $763 forward 7 unknown #
vertex $-1 $680 $764 #
straight-curve $-1 -7.1551770740463834 -193.28714865565965 0 0 0 -1 I I #
edge $-1 $678 -193.28714865565965 $682 193.28714865565965 $676 $765 forward 7 unknown #
straight-curve $-1 0 -193.28714865565965 -96.643574327829825 -1 0 0 I I #
vertex $-1 $513 $766 #
straight-curve $-1 0 193.28714865565965 -96.643574327829825 1 0 0 I I #
point $-1 7.1551770740463834 193.28714865565965 -96.643574327829825 #
point $-1 7.1551770740463834 -193.28714865565965 -96.643574327829825 #
straight-curve $-1 -7.1551770740463834 0 96.643574327829825 0 -1 0 I I #
point $-1 -7.1551770740463834 193.28714865565965 96.643574327829825 #
point $-1 -7.1551770740463834 -193.28714865565965 96.643574327829825 #
straight-curve $-1 7.1551770740463834 -193.28714865565965 0 0 0 -1 I I #
straight-curve $-1 7.1551770740463834 193.28714865565965 0 0 0 -1 I I #
edge $-1 $767 1 $767 0 $530 $-1 forward 7 unknown #
point $-1 1.5 0 -0.75 #
edge $-1 $768 1 $768 0 $534 $-1 forward 7 unknown #
point $-1 1.5 0 -0.75 #
plane-surface $-1 7.1551770740463834 0 0 -1 0 0 0 0 1 forward_v I I I I #
coedge $-1 $543 $541 $545 $700 reversed $360 $-1 #
edge $-1 $556 -96.643574327829825 $702 96.643574327829825 $555 $769 forward 7 unknown #
vertex $-1 $700 $770 #
straight-curve $-1 -7.1551770740463834 -193.28714865565965 0 0 0 -1 I I #
edge $-1 $698 -193.28714865565965 $702 193.28714865565965 $696 $771 forward 7 unknown #
straight-curve $-1 0 -193.28714865565965 -96.643574327829825 -1 0 0 I I #
vertex $-1 $548 $772 #
straight-curve $-1 0 193.28714865565965 -96.643574327829825 1 0 0 I I #
point $-1 7.1551770740463834 193.28714865565965 -96.643574327829825 #
point $-1 7.1551770740463834 -193.28714865565965 -96.643574327829825 #
straight-curve $-1 -7.1551770740463834 0 96.643574327829825 0 -1 0 I I #
point $-1 -7.1551770740463834 193.28714865565965 96.643574327829825 #
point $-1 -7.1551770740463834 -193.28714865565965 96.643574327829825 #
straight-curve $-1 7.1551770740463834 -193.28714865565965 0 0 0 -1 I I #
straight-curve $-1 7.1551770740463834 193.28714865565965 0 0 0 -1 I I #
edge $-1 $773 1 $773 0 $565 $-1 forward 7 unknown #
point $-1 1.5 0 -0.75 #
edge $-1 $774 1 $774 0 $569 $-1 forward 7 unknown #
point $-1 1.5 0 -0.75 #
plane-surface $-1 7.1551770740463834 0 0 -1 0 0 0 0 1 forward_v I I I I #
coedge $-1 $578 $576 $580 $720 reversed $389 $-1 #
edge $-1 $591 -96.643574327829825 $722 96.643574327829825 $590 $775 forward 7 unknown #
vertex $-1 $720 $776 #
straight-curve $-1 -7.1551770740463834 -193.28714865565965 0 0 0 -1 I I #
edge $-1 $718 -193.28714865565965 $722 193.28714865565965 $716 $777 forward 7 unknown #
straight-curve $-1 0 -193.28714865565965 -96.643574327829825 -1 0 0 I I #
vertex $-1 $583 $778 #
straight-curve $-1 0 193.28714865565965 -96.643574327829825 1 0 0 I I #
point $-1 7.1551770740463834 193.28714865565965 -96.643574327829825 #
point $-1 7.1551770740463834 -193.28714865565965 -96.643574327829825 #
straight-curve $-1 -7.1551770740463834 0 96.643574327829825 0 -1 0 I I #
point $-1 -7.1551770740463834 193.28714865565965 96.643574327829825 #
point $-1 -7.1551770740463834 -193.28714865565965 96.643574327829825 #
straight-curve $-1 7.1551770740463834 -193.28714865565965 0 0 0 -1 I I #
straight-curve $-1 7.1551770740463834 193.28714865565965 0 0 0 -1 I I #
edge $-1 $779 1 $779 0 $600 $-1 forward 7 unknown #
point $-1 1.5 0 -0.75 #
edge $-1 $780 1 $780 0 $604 $-1 forward 7 unknown #
point $-1 1.5 0 -0.75 #
plane-surface $-1 4.9009001520382833 0 0 -1 0 0 0 0 1 forward_v I I I I #
coedge $-1 $613 $611 $615 $740 reversed $418 $-1 #
edge $-1 $626 -96.643574327829825 $742 96.643574327829825 $625 $781 forward 7 unknown #
vertex $-1 $740 $782 #
straight-curve $-1 -4.9009001520382833 -193.28714865565965 0 0 0 -1 I I #
edge $-1 $738 -193.28714865565965 $742 193.28714865565965 $736 $783 forward 7 unknown #
straight-curve $-1 0 -193.28714865565965 -96.643574327829825 -1 0 0 I I #
vertex $-1 $618 $784 #
straight-curve $-1 0 193.28714865565965 -96.643574327829825 1 0 0 I I #
point $-1 4.9009001520382833 193.28714865565965 -96.643574327829825 #
point $-1 4.9009001520382833 -193.28714865565965 -96.643574327829825 #
straight-curve $-1 -4.9009001520382833 0 96.643574327829825 0 -1 0 I I #
point $-1 -4.9009001520382833 193.28714865565965 96.643574327829825 #
point $-1 -4.9009001520382833 -193.28714865565965 96.643574327829825 #
straight-curve $-1 4.9009001520382833 -193.28714865565965 0 0 0 -1 I I #
straight-curve $-1 4.9009001520382833 193.28714865565965 0 0 0 -1 I I #
edge $-1 $785 1 $785 0 $635 $-1 forward 7 unknown #
point $-1 1 0 -0.5 #
straight-curve $-1 -48.321787163914912 22.671142631519917 0 0 0 -1 I I #
point $-1 -48.321787163914912 -22.671142631519917 -6.39340475132175 #
straight-curve $-1 -48.321787163914912 0 -6.39340475132175 0 1 0 I I #
point $-1 -48.321787163914912 22.671142631519917 -6.39340475132175 #
straight-curve $-1 -7.1551770740463834 193.28714865565965 0 0 0 -1 I I #
point $-1 -7.1551770740463834 -193.28714865565965 -96.643574327829825 #
straight-curve $-1 -7.1551770740463834 0 -96.643574327829825 0 1 0 I I #
point $-1 -7.1551770740463834 193.28714865565965 -96.643574327829825 #
vertex $-1 $671 $786 #
vertex $-1 $673 $787 #
straight-curve $-1 -7.1551770740463834 193.28714865565965 0 0 0 -1 I I #
point $-1 -7.1551770740463834 -193.28714865565965 -96.643574327829825 #
straight-curve $-1 -7.1551770740463834 0 -96.643574327829825 0 1 0 I I #
point $-1 -7.1551770740463834 193.28714865565965 -96.643574327829825 #
vertex $-1 $691 $788 #
vertex $-1 $693 $789 #
straight-curve $-1 -7.1551770740463834 193.28714865565965 0 0 0 -1 I I #
point $-1 -7.1551770740463834 -193.28714865565965 -96.643574327829825 #
straight-curve $-1 -7.1551770740463834 0 -96.643574327829825 0 1 0 I I #
point $-1 -7.1551770740463834 193.28714865565965 -96.643574327829825 #
vertex $-1 $711 $790 #
vertex $-1 $713 $791 #
straight-curve $-1 -7.1551770740463834 193.28714865565965 0 0 0 -1 I I #
point $-1 -7.1551770740463834 -193.28714865565965 -96.643574327829825 #
straight-curve $-1 -7.1551770740463834 0 -96.643574327829825 0 1 0 I I #
point $-1 -7.1551770740463834 193.28714865565965 -96.643574327829825 #
vertex $-1 $731 $792 #
vertex $-1 $733 $793 #
straight-curve $-1 -4.9009001520382833 193.28714865565965 0 0 0 -1 I I #
point $-1 -4.9009001520382833 -193.28714865565965 -96.643574327829825 #
straight-curve $-1 -4.9009001520382833 0 -96.643574327829825 0 1 0 I I #
point $-1 -4.9009001520382833 193.28714865565965 -96.643574327829825 #
vertex $-1 $751 $794 #
point $-1 0 0 0.75 #
point $-1 0 0 0.75 #
point $-1 0 0 0.75 #
point $-1 0 0 0.75 #
point $-1 0 0 0.75 #
point $-1 0 0 0.75 #
point $-1 0 0 0.75 #
point $-1 0 0 0.75 #
point $-1 0 0 0.5 #
End-of-ACIS-data 