500 0 9 0           
7 Unknown 11 ACIS 5.0 NT 24 Thu Mar 25 16:50:05 1999 
-1 9.9999999999999995e-007 1e-010 
body $-1 $9 $-1 $10 #
body $-1 $11 $-1 $12 #
body $-1 $13 $-1 $14 #
body $-1 $15 $-1 $16 #
body $-1 $17 $-1 $18 #
body $-1 $19 $-1 $20 #
body $-1 $21 $-1 $22 #
body $-1 $23 $-1 $24 #
body $-1 $25 $-1 $26 #
lump $-1 $-1 $27 $0 #
transform $-1 1 0 0 0 1 0 0 0 1 71.23386333811456 46.739084085333644 19.737766720248903 1 rotate no_reflect no_shear #
lump $-1 $-1 $28 $1 #
transform $-1 1 0 0 0 1 0 0 0 1 71.23386333811456 46.739084085333644 19.737766720248903 1 rotate no_reflect no_shear #
lump $-1 $-1 $29 $2 #
transform $-1 1 0 0 0 1 0 0 0 1 71.23386333811456 46.739084085333644 19.737766720248903 1 rotate no_reflect no_shear #
lump $-1 $-1 $30 $3 #
transform $-1 1 0 0 0 1 0 0 0 1 71.23386333811456 46.739084085333644 19.737766720248903 1 rotate no_reflect no_shear #
lump $-1 $-1 $31 $4 #
transform $-1 1 0 0 0 1 0 0 0 1 71.23386333811456 46.739084085333644 19.737766720248903 1 rotate no_reflect no_shear #
lump $-1 $-1 $32 $5 #
transform $-1 1 0 0 0 1 0 0 0 1 71.23386333811456 46.739084085333644 19.737766720248903 1 rotate no_reflect no_shear #
lump $-1 $-1 $33 $6 #
transform $-1 1 0 0 0 1 0 0 0 1 71.23386333811456 46.739084085333644 19.737766720248903 1 rotate no_reflect no_shear #
lump $-1 $-1 $34 $7 #
transform $-1 1 0 0 0 1 0 0 0 1 71.23386333811456 46.739084085333644 19.737766720248903 1 rotate no_reflect no_shear #
lump $-1 $-1 $35 $8 #
transform $-1 1 0 0 0 1 0 0 0 1 71.23386333811456 46.739084085333644 19.737766720248903 1 rotate no_reflect no_shear #
shell $-1 $-1 $-1 $36 $-1 $9 #
shell $-1 $-1 $-1 $37 $-1 $11 #
shell $-1 $-1 $-1 $38 $-1 $13 #
shell $-1 $-1 $-1 $39 $-1 $15 #
shell $-1 $-1 $-1 $40 $-1 $17 #
shell $-1 $-1 $-1 $41 $-1 $19 #
shell $-1 $-1 $-1 $42 $-1 $21 #
shell $-1 $-1 $-1 $43 $-1 $23 #
shell $-1 $-1 $-1 $44 $-1 $25 #
face $-1 $45 $46 $27 $-1 $47 forward single #
face $-1 $48 $49 $28 $-1 $50 reversed single #
face $-1 $51 $52 $29 $-1 $53 forward single #
face $-1 $54 $55 $30 $-1 $56 forward single #
face $-1 $57 $58 $31 $-1 $59 reversed single #
face $-1 $60 $61 $32 $-1 $62 forward single #
face $-1 $63 $64 $33 $-1 $65 forward single #
face $-1 $66 $67 $34 $-1 $68 reversed single #
face $-1 $69 $70 $35 $-1 $71 forward single #
face $-1 $72 $73 $27 $-1 $74 reversed single #
loop $-1 $-1 $75 $36 #
plane-surface $-1 0 0 19.737766720248903 0 0 1 1 0 0 forward_v I I I I #
face $-1 $76 $77 $28 $-1 $78 reversed single #
loop $-1 $-1 $79 $37 #
plane-surface $-1 -52.787056873333995 95.789088256887766 174.82836184878084 1 0 0 0 -0.7660444514056185 -0.64278759981090561 forward_v I I I I #
face $-1 $80 $81 $29 $-1 $82 forward single #
loop $-1 $83 $84 $38 #
cone-surface $-1 -47.355905313807874 39.896969457662145 12.798947683255969 0 -0.7660444514056185 -0.64278759981090561 2.5 0 0 1 I I 0 1 2.5 forward I I I I #
face $-1 $85 $86 $30 $-1 $87 forward single #
loop $-1 $88 $89 $39 #
cone-surface $-1 -39.209177974518688 39.896969457662145 12.798947683255969 0 -0.7660444514056185 -0.64278759981090561 2.5 0 0 1 I I 0 1 2.5 forward I I I I #
face $-1 $90 $91 $31 $-1 $92 reversed single #
loop $-1 $-1 $93 $40 #
plane-surface $-1 18.446806464780572 95.789088256887766 174.82836184878084 1 0 0 0 -0.7660444514056185 -0.64278759981090561 forward_v I I I I #
face $-1 $94 $95 $32 $-1 $96 forward single #
loop $-1 $97 $98 $41 #
cone-surface $-1 23.877958024306679 39.896969457662145 12.798947683255969 0 -0.7660444514056185 -0.64278759981090561 2.5 0 0 1 I I 0 1 2.5 forward I I I I #
face $-1 $99 $100 $33 $-1 $101 forward single #
loop $-1 $102 $103 $42 #
cone-surface $-1 32.024685363595864 39.896969457662145 12.798947683255969 0 -0.7660444514056185 -0.64278759981090561 2.5 0 0 1 I I 0 1 2.5 forward I I I I #
face $-1 $104 $105 $34 $-1 $106 reversed single #
loop $-1 $-1 $107 $43 #
plane-surface $-1 54.355957371803328 -46.739084085333658 12.751392273860105 0 -0.62932039886446345 0.77714595512881146 1 0 0 forward_v I I I I #
face $-1 $108 $109 $35 $-1 $110 forward single #
loop $-1 $111 $112 $44 #
cone-surface $-1 54.355957371803328 -41.413157176745912 14.994616586193681 0 0.62932039886446345 -0.77714595512881146 1.5 0 0 1 I I 0 1 1.5 forward I I I I #
face $-1 $113 $114 $27 $-1 $115 reversed single #
loop $-1 $-1 $116 $45 #
plane-surface $-1 0 0 -19.737766720248903 0 0 1 1 0 0 forward_v I I I I #
coedge $-1 $117 $118 $119 $120 forward $46 $-1 #
face $-1 $121 $122 $28 $-1 $123 reversed single #
loop $-1 $-1 $124 $48 #
plane-surface $-1 -43.282541644163281 -13.347523267809777 83.251873768051396 0 0.7660444514056185 0.64278759981090561 1 0 0 forward_v I I I I #
coedge $-1 $125 $126 $127 $128 reversed $49 $-1 #
face $-1 $-1 $129 $29 $-1 $130 forward single #
loop $-1 $131 $132 $51 #
cone-surface $-1 -47.355905313807874 35.493271740781765 9.1038066499486412 0 -0.7660444514056185 -0.64278759981090561 1.25 0 0 1 I I -0.70710678118654746 0.70710678118654746 1.25 forward I I I I #
loop $-1 $-1 $133 $38 #
coedge $-1 $84 $84 $134 $135 reversed $52 $-1 #
face $-1 $-1 $136 $30 $-1 $137 forward single #
loop $-1 $138 $139 $54 #
cone-surface $-1 -39.209177974518688 35.493271740781765 9.1038066499486412 0 -0.7660444514056185 -0.64278759981090561 1.25 0 0 1 I I -0.70710678118654746 0.70710678118654746 1.25 forward I I I I #
loop $-1 $-1 $140 $39 #
coedge $-1 $89 $89 $141 $142 reversed $55 $-1 #
face $-1 $143 $144 $31 $-1 $145 reversed single #
loop $-1 $-1 $146 $57 #
plane-surface $-1 27.951321693951286 -13.347523267809777 83.251873768051396 0 0.7660444514056185 0.64278759981090561 1 0 0 forward_v I I I I #
coedge $-1 $147 $148 $149 $150 reversed $58 $-1 #
face $-1 $-1 $151 $32 $-1 $152 forward single #
loop $-1 $153 $154 $60 #
cone-surface $-1 23.877958024306679 35.493271740781765 9.1038066499486412 0 -0.7660444514056185 -0.64278759981090561 1.25 0 0 1 I I -0.70710678118654746 0.70710678118654746 1.25 forward I I I I #
loop $-1 $-1 $155 $41 #
coedge $-1 $98 $98 $156 $157 reversed $61 $-1 #
face $-1 $-1 $158 $33 $-1 $159 forward single #
loop $-1 $160 $161 $63 #
cone-surface $-1 32.024685363595864 35.493271740781765 9.1038066499486412 0 -0.7660444514056185 -0.64278759981090561 1.25 0 0 1 I I -0.70710678118654746 0.70710678118654746 1.25 forward I I I I #
loop $-1 $-1 $162 $42 #
coedge $-1 $103 $103 $163 $164 reversed $64 $-1 #
face $-1 $165 $166 $34 $-1 $167 reversed single #
loop $-1 $-1 $168 $66 #
plane-surface $-1 37.478051405492096 -136.39693066253153 123.46960979668863 1 0 0 0 0.62932039886446345 -0.77714595512881146 forward_v I I I I #
coedge $-1 $169 $170 $171 $172 reversed $67 $-1 #
face $-1 $-1 $173 $35 $-1 $174 forward single #
loop $-1 $175 $176 $69 #
cone-surface $-1 54.355957371803328 -39.928966849485306 13.161794208986262 0 0.62932039886446345 -0.77714595512881146 0.75 0 0 1 I I -0.70710678118654757 0.70710678118654757 0.75 forward I I I I #
loop $-1 $-1 $177 $44 #
coedge $-1 $112 $112 $178 $179 reversed $70 $-1 #
face $-1 $180 $181 $27 $-1 $182 reversed single #
loop $-1 $-1 $183 $72 #
plane-surface $-1 0 -46.739084085333644 0 0 1 0 0 0 1 forward_v I I I I #
coedge $-1 $184 $185 $186 $187 forward $73 $-1 #
coedge $-1 $188 $75 $189 $190 forward $46 $-1 #
coedge $-1 $75 $188 $191 $192 forward $46 $-1 #
coedge $-1 $193 $194 $75 $120 reversed $195 $-1 #
edge $-1 $196 -46.739084085333644 $197 46.739084085333644 $119 $198 forward 7 unknown #
face $-1 $199 $200 $28 $-1 $201 reversed single #
loop $-1 $-1 $202 $76 #
plane-surface $-1 -33.778026414992567 95.789088256887766 174.82836184878084 -1 0 0 0 0.7660444514056185 0.64278759981090561 forward_v I I I I #
coedge $-1 $203 $204 $205 $206 reversed $77 $-1 #
coedge $-1 $126 $79 $207 $208 reversed $49 $-1 #
coedge $-1 $79 $125 $203 $209 reversed $49 $-1 #
coedge $-1 $205 $210 $79 $128 forward $211 $-1 #
edge $-1 $212 1.1554600431102386 $213 7.9474049932065185 $127 $214 forward 7 unknown #
loop $-1 $-1 $134 $80 #
plane-surface $-1 -43.282541644163281 -13.347523267809777 83.251873768051396 0 0.7660444514056185 0.64278759981090561 1 0 0 forward_v I I I I #
loop $-1 $-1 $215 $51 #
coedge $-1 $132 $132 $133 $216 reversed $81 $-1 #
coedge $-1 $133 $133 $132 $216 forward $83 $-1 #
coedge $-1 $134 $134 $84 $135 forward $129 $-1 #
edge $-1 $217 0 $217 6.2831853071796004 $134 $218 forward 7 unknown #
loop $-1 $-1 $141 $85 #
plane-surface $-1 -43.282541644163281 -13.347523267809777 83.251873768051396 0 0.7660444514056185 0.64278759981090561 1 0 0 forward_v I I I I #
loop $-1 $-1 $219 $54 #
coedge $-1 $139 $139 $140 $220 reversed $86 $-1 #
coedge $-1 $140 $140 $139 $220 forward $88 $-1 #
coedge $-1 $141 $141 $89 $142 forward $136 $-1 #
edge $-1 $221 0 $221 6.2831853071796004 $141 $222 forward 7 unknown #
face $-1 $223 $224 $31 $-1 $225 forward single #
loop $-1 $-1 $226 $90 #
plane-surface $-1 37.455836923122 95.789088256887766 174.82836184878084 -1 0 0 0 0.7660444514056185 0.64278759981090561 forward_v I I I I #
coedge $-1 $227 $228 $229 $230 reversed $91 $-1 #
coedge $-1 $148 $93 $231 $232 reversed $58 $-1 #
coedge $-1 $93 $147 $227 $233 reversed $58 $-1 #
coedge $-1 $229 $234 $93 $150 forward $224 $-1 #
edge $-1 $235 1.1554600431102386 $236 7.9474049932065185 $149 $237 forward 7 unknown #
loop $-1 $-1 $156 $94 #
plane-surface $-1 27.951321693951286 -13.347523267809777 83.251873768051396 0 0.7660444514056185 0.64278759981090561 1 0 0 forward_v I I I I #
loop $-1 $-1 $238 $60 #
coedge $-1 $154 $154 $155 $239 reversed $95 $-1 #
coedge $-1 $155 $155 $154 $239 forward $97 $-1 #
coedge $-1 $156 $156 $98 $157 forward $151 $-1 #
edge $-1 $240 0 $240 6.2831853071796004 $156 $241 forward 7 unknown #
loop $-1 $-1 $163 $99 #
plane-surface $-1 27.951321693951286 -13.347523267809777 83.251873768051396 0 0.7660444514056185 0.64278759981090561 1 0 0 forward_v I I I I #
loop $-1 $-1 $242 $63 #
coedge $-1 $161 $161 $162 $243 reversed $100 $-1 #
coedge $-1 $162 $162 $161 $243 forward $102 $-1 #
coedge $-1 $163 $163 $103 $164 forward $158 $-1 #
edge $-1 $244 0 $244 6.2831853071796004 $163 $245 forward 7 unknown #
face $-1 $246 $247 $34 $-1 $248 forward single #
loop $-1 $-1 $249 $104 #
plane-surface $-1 0 -46.739084085333644 0 0 1 0 0 0 1 forward_v I I I I #
coedge $-1 $250 $251 $252 $253 reversed $105 $-1 #
coedge $-1 $254 $107 $255 $256 reversed $67 $-1 #
coedge $-1 $107 $254 $250 $257 forward $67 $-1 #
coedge $-1 $252 $258 $107 $172 forward $247 $-1 #
edge $-1 $259 -44.055884652212896 $260 -10.300072719590432 $171 $261 forward 7 unknown #
loop $-1 $-1 $178 $108 #
plane-surface $-1 54.355957371803328 -46.739084085333658 12.751392273860105 0 -0.62932039886446345 0.77714595512881146 1 0 0 forward_v I I I I #
loop $-1 $-1 $262 $69 #
coedge $-1 $176 $176 $177 $263 reversed $109 $-1 #
coedge $-1 $177 $177 $176 $263 forward $111 $-1 #
coedge $-1 $178 $178 $112 $179 forward $173 $-1 #
edge $-1 $264 -1.5805752503475765e-015 $264 6.2831853071795987 $178 $265 forward 7 unknown #
face $-1 $266 $267 $27 $-1 $268 reversed single #
loop $-1 $-1 $269 $113 #
plane-surface $-1 -71.23386333811456 0 0 1 0 0 0 0 -1 forward_v I I I I #
coedge $-1 $270 $191 $271 $272 forward $114 $-1 #
coedge $-1 $273 $116 $270 $274 forward $73 $-1 #
coedge $-1 $116 $273 $275 $276 forward $73 $-1 #
coedge $-1 $194 $193 $116 $187 reversed $195 $-1 #
edge $-1 $277 -46.739084085333644 $278 46.739084085333644 $186 $279 forward 7 unknown #
coedge $-1 $118 $117 $280 $281 forward $46 $-1 #
coedge $-1 $282 $283 $117 $190 reversed $267 $-1 #
edge $-1 $197 -71.23386333811456 $284 71.23386333811456 $189 $285 forward 7 unknown #
coedge $-1 $183 $286 $118 $192 reversed $114 $-1 #
edge $-1 $287 -71.23386333811456 $196 71.23386333811456 $191 $288 forward 7 unknown #
coedge $-1 $186 $119 $286 $289 forward $195 $-1 #
coedge $-1 $119 $186 $282 $290 reversed $195 $-1 #
loop $-1 $-1 $193 $266 #
vertex $-1 $120 $291 #
vertex $-1 $120 $292 #
straight-curve $-1 71.23386333811456 0 19.737766720248903 0 1 0 I I #
face $-1 $-1 $211 $28 $-1 $293 forward single #
loop $-1 $-1 $294 $121 #
plane-surface $-1 0 46.739084085333644 0 0 -1 0 0 0 -1 forward_v I I I I #
coedge $-1 $295 $296 $297 $298 reversed $122 $-1 #
coedge $-1 $299 $124 $126 $209 forward $77 $-1 #
coedge $-1 $124 $299 $295 $300 forward $77 $-1 #
coedge $-1 $297 $127 $124 $206 forward $211 $-1 #
edge $-1 $213 -31.145786051252355 $301 -12.136755592910927 $205 $302 forward 7 unknown #
coedge $-1 $303 $304 $125 $208 forward $200 $-1 #
edge $-1 $305 -75.770739211039995 $212 -67.676414204141523 $207 $306 forward 7 unknown #
edge $-1 $213 82.911777418738794 $305 93.478168170667303 $126 $307 forward 7 unknown #
coedge $-1 $127 $297 $303 $308 forward $211 $-1 #
loop $-1 $-1 $297 $199 #
vertex $-1 $208 $309 #
vertex $-1 $128 $310 #
straight-curve $-1 -52.787056873333995 47.894544128443883 19.737766720248899 0 -1 0 I I #
coedge $-1 $215 $215 $-1 $311 reversed $131 $-1 #
edge $-1 $312 0 $312 6.2831853071796004 $132 $313 forward 7 unknown #
vertex $-1 $135 $314 #
ellipse-curve $-1 -47.355905313807874 43.343111610285497 15.690604216799667 0 0.7660444514056185 0.64278759981090561 2.5 0 0 1 I I #
coedge $-1 $219 $219 $-1 $315 reversed $138 $-1 #
edge $-1 $316 0 $316 6.2831853071796004 $139 $317 forward 7 unknown #
vertex $-1 $142 $318 #
ellipse-curve $-1 -39.209177974518688 43.343111610285497 15.690604216799667 0 0.7660444514056185 0.64278759981090561 2.5 0 0 1 I I #
face $-1 $-1 $319 $31 $-1 $320 reversed single #
loop $-1 $-1 $149 $143 #
plane-surface $-1 0 0 19.737766720248903 0 0 1 1 0 0 forward_v I I I I #
coedge $-1 $321 $322 $323 $324 reversed $144 $-1 #
coedge $-1 $325 $146 $148 $233 forward $91 $-1 #
coedge $-1 $146 $325 $321 $326 forward $91 $-1 #
coedge $-1 $323 $149 $146 $230 forward $224 $-1 #
edge $-1 $236 4.4711456178049289 $327 23.480176076146357 $229 $328 forward 7 unknown #
coedge $-1 $329 $330 $147 $232 forward $319 $-1 #
edge $-1 $331 -75.770739211039995 $235 -67.676414204141523 $231 $332 forward 7 unknown #
edge $-1 $236 82.911777418738794 $331 93.478168170667303 $148 $333 forward 7 unknown #
coedge $-1 $149 $323 $329 $334 forward $224 $-1 #
vertex $-1 $150 $335 #
vertex $-1 $150 $336 #
straight-curve $-1 18.446806464780572 47.894544128443883 19.737766720248899 0 -1 0 I I #
coedge $-1 $238 $238 $-1 $337 reversed $153 $-1 #
edge $-1 $338 0 $338 6.2831853071796004 $154 $339 forward 7 unknown #
vertex $-1 $157 $340 #
ellipse-curve $-1 23.877958024306679 43.343111610285497 15.690604216799667 0 0.7660444514056185 0.64278759981090561 2.5 0 0 1 I I #
coedge $-1 $242 $242 $-1 $341 reversed $160 $-1 #
edge $-1 $342 0 $342 6.2831853071796004 $161 $343 forward 7 unknown #
vertex $-1 $164 $344 #
ellipse-curve $-1 32.024685363595864 43.343111610285497 15.690604216799667 0 0.7660444514056185 0.64278759981090561 2.5 0 0 1 I I #
face $-1 $-1 $345 $34 $-1 $346 reversed single #
loop $-1 $-1 $252 $165 #
plane-surface $-1 0 0 19.737766720248903 0 0 1 1 0 0 forward_v I I I I #
coedge $-1 $347 $348 $251 $349 forward $166 $-1 #
coedge $-1 $251 $168 $170 $257 reversed $105 $-1 #
coedge $-1 $168 $250 $249 $349 reversed $105 $-1 #
coedge $-1 $350 $171 $168 $253 forward $247 $-1 #
edge $-1 $260 -30.086835006883021 $351 -21.459381245932121 $252 $352 forward 7 unknown #
coedge $-1 $170 $169 $347 $353 reversed $67 $-1 #
coedge $-1 $354 $355 $169 $256 forward $345 $-1 #
edge $-1 $356 -14.149189435739771 $259 -3.0477306891380418 $255 $357 forward 7 unknown #
edge $-1 $358 1.7751293829024333e-014 $260 11.101458746601747 $250 $359 forward 7 unknown #
coedge $-1 $171 $350 $354 $360 forward $247 $-1 #
vertex $-1 $256 $361 #
vertex $-1 $172 $362 #
straight-curve $-1 27.177978685901664 -38.111630324382745 19.737766720248903 -1 0 0 I I #
coedge $-1 $262 $262 $-1 $363 reversed $175 $-1 #
edge $-1 $364 0 $364 6.2831853071796004 $176 $365 forward 7 unknown #
vertex $-1 $179 $366 #
ellipse-curve $-1 54.355957371803328 -42.425357204858187 16.244579497054513 0 -0.62932039886446345 0.77714595512881146 1.5 0 0 1 I I #
face $-1 $-1 $195 $27 $-1 $367 reversed single #
loop $-1 $-1 $282 $180 #
plane-surface $-1 0 46.739084085333644 0 0 -1 0 0 0 -1 forward_v I I I I #
coedge $-1 $368 $280 $283 $369 forward $181 $-1 #
coedge $-1 $286 $183 $184 $274 reversed $114 $-1 #
coedge $-1 $280 $368 $183 $272 reversed $181 $-1 #
edge $-1 $287 -19.737766720248903 $370 19.737766720248903 $271 $371 forward 7 unknown #
coedge $-1 $185 $184 $368 $372 forward $73 $-1 #
edge $-1 $278 -71.23386333811456 $370 71.23386333811456 $270 $373 forward 7 unknown #
coedge $-1 $283 $282 $185 $276 reversed $267 $-1 #
edge $-1 $374 -71.23386333811456 $277 71.23386333811456 $275 $375 forward 7 unknown #
vertex $-1 $187 $376 #
vertex $-1 $289 $377 #
straight-curve $-1 71.23386333811456 0 -19.737766720248903 0 -1 0 I I #
coedge $-1 $269 $271 $188 $281 reversed $181 $-1 #
edge $-1 $284 -46.739084085333644 $287 46.739084085333644 $280 $378 forward 7 unknown #
coedge $-1 $275 $189 $194 $290 forward $267 $-1 #
coedge $-1 $189 $275 $269 $369 reversed $267 $-1 #
vertex $-1 $190 $379 #
straight-curve $-1 0 46.739084085333644 19.737766720248903 -1 0 0 I I #
coedge $-1 $191 $270 $193 $289 reversed $114 $-1 #
vertex $-1 $281 $380 #
straight-curve $-1 0 -46.739084085333644 19.737766720248903 1 0 0 I I #
edge $-1 $196 -19.737766720248903 $278 19.737766720248903 $193 $381 forward 7 unknown #
edge $-1 $197 -19.737766720248903 $277 19.737766720248903 $194 $382 forward 7 unknown #
point $-1 71.23386333811456 -46.739084085333644 19.737766720248903 #
point $-1 71.23386333811456 46.739084085333644 19.737766720248903 #
plane-surface $-1 0 0 19.737766720248903 0 0 1 1 0 0 forward_v I I I I #
coedge $-1 $304 $303 $296 $383 forward $200 $-1 #
coedge $-1 $296 $202 $204 $300 reversed $122 $-1 #
coedge $-1 $202 $295 $294 $383 reversed $122 $-1 #
coedge $-1 $210 $205 $202 $298 forward $211 $-1 #
edge $-1 $301 -7.9474049932065185 $384 -1.1554600431102386 $297 $385 forward 7 unknown #
coedge $-1 $204 $203 $304 $386 reversed $77 $-1 #
edge $-1 $387 -93.478168170667303 $301 -82.911777418738794 $295 $388 forward 7 unknown #
vertex $-1 $206 $389 #
straight-curve $-1 -21.641270822081641 39.947139135237357 19.737766720248906 1 0 0 I I #
coedge $-1 $294 $207 $210 $308 reversed $200 $-1 #
coedge $-1 $207 $294 $299 $386 forward $200 $-1 #
vertex $-1 $208 $390 #
straight-curve $-1 -52.787056873333995 46.739084085333644 87.414180924390422 0 0 1 I I #
straight-curve $-1 -52.787056873333995 -13.347523267809777 83.251873768051396 0 0.64278759981090561 -0.7660444514056185 I I #
edge $-1 $384 33.778026414992567 $212 52.787056873333995 $303 $391 forward 7 unknown #
point $-1 -52.787056873333995 46.739084085333644 19.737766720248903 #
point $-1 -52.787056873333995 39.947139135237364 19.737766720248899 #
edge $-1 $392 1 $392 0 $215 $-1 forward 7 unknown #
vertex $-1 $216 $393 #
ellipse-curve $-1 -47.355905313807874 36.450827305038786 9.9072911497122735 0 0.7660444514056185 0.64278759981090561 2.5 0 0 1 I I #
point $-1 -44.855905313807874 43.343111610285497 15.690604216799667 #
edge $-1 $394 1 $394 0 $219 $-1 forward 7 unknown #
vertex $-1 $220 $395 #
ellipse-curve $-1 -39.209177974518688 36.450827305038786 9.9072911497122735 0 0.7660444514056185 0.64278759981090561 2.5 0 0 1 I I #
point $-1 -36.709177974518688 43.343111610285497 15.690604216799667 #
loop $-1 $-1 $231 $223 #
plane-surface $-1 0 46.739084085333644 0 0 -1 0 0 0 -1 forward_v I I I I #
coedge $-1 $322 $226 $228 $326 reversed $144 $-1 #
coedge $-1 $226 $321 $396 $397 reversed $144 $-1 #
coedge $-1 $234 $229 $226 $324 forward $224 $-1 #
edge $-1 $327 -7.9474049932065185 $398 -1.1554600431102386 $323 $399 forward 7 unknown #
coedge $-1 $228 $227 $330 $400 reversed $91 $-1 #
edge $-1 $401 -93.478168170667303 $327 -82.911777418738794 $321 $402 forward 7 unknown #
vertex $-1 $230 $403 #
straight-curve $-1 13.975660846975643 39.947139135237357 19.737766720248906 1 0 0 I I #
coedge $-1 $396 $231 $234 $334 reversed $319 $-1 #
coedge $-1 $231 $396 $325 $400 forward $319 $-1 #
vertex $-1 $232 $404 #
straight-curve $-1 18.446806464780572 46.739084085333644 87.414180924390422 0 0 1 I I #
straight-curve $-1 18.446806464780572 -13.347523267809777 83.251873768051396 0 0.64278759981090561 -0.7660444514056185 I I #
edge $-1 $398 -37.455836923122 $235 -18.446806464780572 $329 $405 forward 7 unknown #
point $-1 18.446806464780572 46.739084085333644 19.737766720248903 #
point $-1 18.446806464780572 39.947139135237364 19.737766720248899 #
edge $-1 $406 1 $406 0 $238 $-1 forward 7 unknown #
vertex $-1 $239 $407 #
ellipse-curve $-1 23.877958024306679 36.450827305038786 9.9072911497122735 0 0.7660444514056185 0.64278759981090561 2.5 0 0 1 I I #
point $-1 26.377958024306679 43.343111610285497 15.690604216799667 #
edge $-1 $408 1 $408 0 $242 $-1 forward 7 unknown #
vertex $-1 $243 $409 #
ellipse-curve $-1 32.024685363595864 36.450827305038786 9.9072911497122735 0 0.7660444514056185 0.64278759981090561 2.5 0 0 1 I I #
point $-1 34.524685363595864 43.343111610285497 15.690604216799667 #
loop $-1 $-1 $255 $246 #
plane-surface $-1 71.23386333811456 0 0 -1 0 0 0 0 1 forward_v I I I I #
coedge $-1 $410 $249 $254 $353 forward $166 $-1 #
coedge $-1 $249 $410 $350 $411 reversed $166 $-1 #
edge $-1 $351 41.997038178095409 $358 48.983412624484203 $249 $412 forward 7 unknown #
coedge $-1 $258 $252 $348 $411 forward $247 $-1 #
vertex $-1 $411 $413 #
straight-curve $-1 37.478051405492096 -68.198465331265766 19.737766720248899 0 -1 0 I I #
edge $-1 $358 10.300072719590432 $356 44.055884652212896 $347 $414 forward 7 unknown #
coedge $-1 $355 $255 $258 $360 reversed $345 $-1 #
coedge $-1 $255 $354 $410 $415 forward $345 $-1 #
vertex $-1 $353 $416 #
straight-curve $-1 71.23386333811456 -35.74309874699717 21.655765813168721 0 0.77714595512881146 0.62932039886446345 I I #
vertex $-1 $353 $417 #
straight-curve $-1 37.478051405492096 -46.739084085333658 12.751392273860105 0 0.77714595512881146 0.62932039886446345 I I #
edge $-1 $418 -46.739084085333644 $259 -38.111630324382745 $354 $419 forward 7 unknown #
point $-1 71.23386333811456 -38.111630324382745 19.737766720248903 #
point $-1 37.478051405492096 -38.111630324382745 19.737766720248903 #
edge $-1 $420 1 $420 0 $262 $-1 forward 7 unknown #
vertex $-1 $263 $421 #
ellipse-curve $-1 54.355957371803328 -40.400957148633651 13.74465367533287 0 -0.62932039886446345 0.77714595512881146 1.5 0 0 1 I I #
point $-1 55.855957371803328 -42.425357204858173 16.244579497054492 #
plane-surface $-1 71.23386333811456 0 0 -1 0 0 0 0 1 forward_v I I I I #
coedge $-1 $271 $269 $273 $372 reversed $181 $-1 #
edge $-1 $284 -19.737766720248903 $374 19.737766720248903 $283 $422 forward 7 unknown #
vertex $-1 $372 $423 #
straight-curve $-1 -71.23386333811456 -46.739084085333644 0 0 0 -1 I I #
edge $-1 $370 -46.739084085333644 $374 46.739084085333644 $368 $424 forward 7 unknown #
straight-curve $-1 0 -46.739084085333644 -19.737766720248903 -1 0 0 I I #
vertex $-1 $276 $425 #
straight-curve $-1 0 46.739084085333644 -19.737766720248903 1 0 0 I I #
point $-1 71.23386333811456 46.739084085333644 -19.737766720248903 #
point $-1 71.23386333811456 -46.739084085333644 -19.737766720248903 #
straight-curve $-1 -71.23386333811456 0 19.737766720248903 0 -1 0 I I #
point $-1 -71.23386333811456 46.739084085333644 19.737766720248903 #
point $-1 -71.23386333811456 -46.739084085333644 19.737766720248903 #
straight-curve $-1 71.23386333811456 -46.739084085333644 0 0 0 -1 I I #
straight-curve $-1 71.23386333811456 46.739084085333644 0 0 0 -1 I I #
edge $-1 $384 67.676414204141523 $387 75.770739211039995 $294 $426 forward 7 unknown #
vertex $-1 $308 $427 #
straight-curve $-1 -33.778026414992567 47.894544128443883 19.737766720248899 0 1 0 I I #
edge $-1 $387 12.136755592910927 $305 31.145786051252355 $304 $428 forward 7 unknown #
vertex $-1 $386 $429 #
straight-curve $-1 -33.778026414992567 -13.347523267809777 83.251873768051396 0 -0.64278759981090561 0.7660444514056185 I I #
point $-1 -33.778026414992567 39.947139135237364 19.737766720248899 #
point $-1 -52.787056873333995 46.739084085333644 11.643441713350427 #
straight-curve $-1 0 46.739084085333644 19.737766720248903 -1 0 0 I I #
vertex $-1 $311 $430 #
point $-1 -44.855905313807874 36.450827305038786 9.9072911497122735 #
vertex $-1 $315 $431 #
point $-1 -36.709177974518688 36.450827305038786 9.9072911497122735 #
coedge $-1 $330 $329 $322 $397 forward $319 $-1 #
edge $-1 $398 67.676414204141523 $401 75.770739211039995 $396 $432 forward 7 unknown #
vertex $-1 $334 $433 #
straight-curve $-1 37.455836923122 47.894544128443883 19.737766720248899 0 1 0 I I #
edge $-1 $401 -23.480176076146357 $331 -4.4711456178049289 $330 $434 forward 7 unknown #
vertex $-1 $400 $435 #
straight-curve $-1 37.455836923122 -13.347523267809777 83.251873768051396 0 -0.64278759981090561 0.7660444514056185 I I #
point $-1 37.455836923122 39.947139135237364 19.737766720248899 #
point $-1 18.446806464780572 46.739084085333644 11.643441713350427 #
straight-curve $-1 0 46.739084085333644 19.737766720248903 -1 0 0 I I #
vertex $-1 $337 $436 #
point $-1 26.377958024306679 36.450827305038786 9.9072911497122735 #
vertex $-1 $341 $437 #
point $-1 34.524685363595864 36.450827305038786 9.9072911497122735 #
coedge $-1 $348 $347 $355 $415 reversed $166 $-1 #
edge $-1 $351 37.478051405492096 $418 71.23386333811456 $348 $438 forward 7 unknown #
straight-curve $-1 37.478051405492096 -46.739084085333644 61.734804898344315 0 0 -1 I I #
point $-1 37.478051405492096 -46.739084085333644 19.737766720248903 #
straight-curve $-1 27.177978685901664 -46.739084085333644 12.751392273860116 1 0 0 I I #
edge $-1 $418 -19.737766720248903 $356 -12.751392273860116 $355 $439 forward 7 unknown #
point $-1 71.23386333811456 -46.739084085333644 12.751392273860116 #
point $-1 37.478051405492096 -46.739084085333644 12.751392273860116 #
vertex $-1 $360 $440 #
straight-curve $-1 71.23386333811456 0 19.737766720248903 0 1 0 I I #
vertex $-1 $363 $441 #
point $-1 55.855957371803328 -40.400957148633651 13.74465367533287 #
straight-curve $-1 -71.23386333811456 46.739084085333644 0 0 0 -1 I I #
point $-1 -71.23386333811456 -46.739084085333644 -19.737766720248903 #
straight-curve $-1 -71.23386333811456 0 -19.737766720248903 0 1 0 I I #
point $-1 -71.23386333811456 46.739084085333644 -19.737766720248903 #
straight-curve $-1 -33.778026414992567 46.739084085333644 87.414180924390422 0 0 -1 I I #
point $-1 -33.778026414992567 46.739084085333644 19.737766720248903 #
straight-curve $-1 -21.641270822081641 46.739084085333644 11.64344171335042 -1 0 0 I I #
point $-1 -33.778026414992567 46.739084085333644 11.643441713350427 #
point $-1 -47.355905313807874 34.535716176524744 8.3003221501850089 #
point $-1 -39.209177974518688 34.535716176524744 8.3003221501850089 #
straight-curve $-1 37.455836923122 46.739084085333644 87.414180924390422 0 0 -1 I I #
point $-1 37.455836923122 46.739084085333644 19.737766720248903 #
straight-curve $-1 13.975660846975643 46.739084085333644 11.64344171335042 -1 0 0 I I #
point $-1 37.455836923122 46.739084085333644 11.643441713350427 #
point $-1 23.877958024306679 34.535716176524744 8.3003221501850089 #
point $-1 32.024685363595864 34.535716176524744 8.3003221501850089 #
straight-curve $-1 0 -46.739084085333644 19.737766720248903 1 0 0 I I #
straight-curve $-1 71.23386333811456 -46.739084085333644 0 0 0 -1 I I #
point $-1 71.23386333811456 -46.739084085333644 19.737766720248903 #
point $-1 54.355957371803328 -39.456976550336961 12.578934742639653 #
End-of-ACIS-data 