500 0 3 0           
7 Unknown 11 ACIS 5.0 NT 24 Fri Mar 26 20:06:10 1999 
-1 9.9999999999999995e-007 1e-010 
body $-1 $3 $-1 $4 #
body $-1 $5 $-1 $6 #
body $-1 $7 $-1 $8 #
lump $-1 $-1 $9 $0 #
transform $-1 1 0 0 0 1 0 0 0 1 77.188634907071133 46.046282163915791 17.091522166161866 1 rotate no_reflect no_shear #
lump $-1 $-1 $10 $1 #
transform $-1 1 0 0 0 1 0 0 0 1 77.188634907071133 46.046282163915791 17.091522166161866 1 rotate no_reflect no_shear #
lump $-1 $-1 $11 $2 #
transform $-1 1 0 0 0 1 0 0 0 1 77.188634907071133 46.046282163915791 17.091522166161866 1 rotate no_reflect no_shear #
shell $-1 $-1 $-1 $12 $-1 $3 #
shell $-1 $-1 $-1 $13 $-1 $5 #
shell $-1 $-1 $-1 $14 $-1 $7 #
face $-1 $15 $16 $9 $-1 $17 forward single #
face $-1 $18 $19 $10 $-1 $20 reversed single #
face $-1 $21 $22 $11 $-1 $23 forward single #
face $-1 $24 $25 $9 $-1 $26 reversed single #
loop $-1 $-1 $27 $12 #
plane-surface $-1 0 0 17.091522166161866 0 0 1 1 0 0 forward_v I I I I #
face $-1 $28 $29 $10 $-1 $30 reversed single #
loop $-1 $-1 $31 $13 #
plane-surface $-1 -60.941159553755284 -37.710343026895231 0 1 0 0 0 0 -1 forward_v I I I I #
face $-1 $32 $33 $11 $-1 $34 reversed single #
loop $-1 $-1 $35 $14 #
plane-surface $-1 0 46.046282163915791 0 0 -1 0 0 0 -1 forward_v I I I I #
face $-1 $36 $37 $9 $-1 $38 reversed single #
loop $-1 $-1 $39 $15 #
plane-surface $-1 0 0 -17.091522166161866 0 0 1 1 0 0 forward_v I I I I #
coedge $-1 $40 $41 $42 $43 forward $16 $-1 #
face $-1 $44 $45 $10 $-1 $46 reversed single #
loop $-1 $-1 $47 $18 #
plane-surface $-1 -56.676859460215347 -29.374403889874671 0 0 -1 0 0 0 -1 forward_v I I I I #
coedge $-1 $48 $49 $50 $51 forward $19 $-1 #
face $-1 $52 $53 $11 $-1 $54 reversed single #
loop $-1 $-1 $55 $21 #
plane-surface $-1 0 0 -17.091522166161866 0 0 1 1 0 0 forward_v I I I I #
coedge $-1 $56 $57 $58 $59 forward $22 $-1 #
face $-1 $60 $61 $9 $-1 $62 reversed single #
loop $-1 $-1 $63 $24 #
plane-surface $-1 0 -46.046282163915791 0 0 1 0 0 0 1 forward_v I I I I #
coedge $-1 $64 $65 $66 $67 forward $25 $-1 #
coedge $-1 $68 $27 $69 $70 forward $16 $-1 #
coedge $-1 $27 $68 $71 $72 forward $16 $-1 #
coedge $-1 $73 $74 $27 $43 reversed $75 $-1 #
edge $-1 $76 -46.046282163915791 $77 46.046282163915791 $42 $78 forward 7 unknown #
face $-1 $79 $80 $10 $-1 $81 forward single #
loop $-1 $-1 $82 $28 #
plane-surface $-1 -52.41255936667541 -37.710343026895231 0 -1 0 0 0 0 1 forward_v I I I I #
coedge $-1 $83 $84 $85 $86 forward $29 $-1 #
coedge $-1 $87 $31 $88 $89 reversed $19 $-1 #
coedge $-1 $31 $87 $90 $91 reversed $19 $-1 #
coedge $-1 $84 $83 $31 $51 reversed $29 $-1 #
edge $-1 $92 -17.091522166161866 $93 17.091522166161866 $50 $94 forward 7 unknown #
face $-1 $95 $96 $11 $-1 $97 reversed single #
loop $-1 $-1 $98 $32 #
plane-surface $-1 -58.247209695642312 53.279552883662177 0 1 0 0 0 0 -1 forward_v I I I I #
coedge $-1 $99 $100 $57 $101 forward $33 $-1 #
coedge $-1 $102 $35 $103 $104 reversed $22 $-1 #
coedge $-1 $35 $102 $55 $101 reversed $22 $-1 #
coedge $-1 $105 $106 $35 $59 reversed $107 $-1 #
edge $-1 $108 -17.091522166161866 $109 17.091522166161866 $58 $110 forward 7 unknown #
face $-1 $111 $112 $9 $-1 $113 reversed single #
loop $-1 $-1 $114 $36 #
plane-surface $-1 -77.188634907071133 0 0 1 0 0 0 0 -1 forward_v I I I I #
coedge $-1 $115 $71 $116 $117 forward $37 $-1 #
coedge $-1 $118 $39 $115 $119 forward $25 $-1 #
coedge $-1 $39 $118 $120 $121 forward $25 $-1 #
coedge $-1 $74 $73 $39 $67 reversed $75 $-1 #
edge $-1 $122 -46.046282163915791 $123 46.046282163915791 $66 $124 forward 7 unknown #
coedge $-1 $41 $40 $125 $126 forward $16 $-1 #
coedge $-1 $127 $128 $40 $70 reversed $112 $-1 #
edge $-1 $77 -77.188634907071133 $129 77.188634907071133 $69 $130 forward 7 unknown #
coedge $-1 $63 $131 $41 $72 reversed $37 $-1 #
edge $-1 $132 -77.188634907071133 $76 77.188634907071133 $71 $133 forward 7 unknown #
coedge $-1 $66 $42 $131 $134 forward $75 $-1 #
coedge $-1 $42 $66 $127 $135 reversed $75 $-1 #
loop $-1 $-1 $73 $111 #
vertex $-1 $43 $136 #
vertex $-1 $43 $137 #
straight-curve $-1 77.188634907071133 0 17.091522166161866 0 1 0 I I #
face $-1 $138 $139 $10 $-1 $140 reversed single #
loop $-1 $-1 $141 $44 #
plane-surface $-1 0 0 17.091522166161866 0 0 1 1 0 0 forward_v I I I I #
coedge $-1 $142 $143 $144 $145 reversed $45 $-1 #
coedge $-1 $50 $47 $146 $147 reversed $29 $-1 #
coedge $-1 $47 $50 $148 $149 reversed $29 $-1 #
coedge $-1 $143 $142 $47 $86 reversed $45 $-1 #
edge $-1 $150 -17.091522166161866 $151 17.091522166161866 $85 $152 forward 7 unknown #
coedge $-1 $49 $48 $153 $154 reversed $19 $-1 #
coedge $-1 $146 $155 $48 $89 forward $139 $-1 #
edge $-1 $156 -27.191110650468175 $93 -10.519232376427055 $88 $157 forward 7 unknown #
coedge $-1 $158 $148 $49 $91 forward $80 $-1 #
edge $-1 $92 10.519232376427055 $159 27.191110650468175 $90 $160 forward 7 unknown #
vertex $-1 $91 $161 #
vertex $-1 $89 $162 #
straight-curve $-1 -60.941159553755284 -29.374403889874671 0 0 0 -1 I I #
face $-1 $163 $107 $11 $-1 $164 reversed single #
loop $-1 $-1 $165 $52 #
plane-surface $-1 -54.218780640755242 60.512823603408563 0 0 -1 0 0 0 -1 forward_v I I I I #
coedge $-1 $166 $167 $168 $169 forward $53 $-1 #
coedge $-1 $170 $55 $166 $171 forward $33 $-1 #
coedge $-1 $55 $170 $105 $172 forward $33 $-1 #
edge $-1 $108 50.190351585868171 $173 58.247209695642312 $55 $174 forward 7 unknown #
coedge $-1 $57 $56 $175 $176 forward $22 $-1 #
coedge $-1 $177 $178 $56 $104 forward $179 $-1 #
edge $-1 $180 -58.247209695642312 $109 -50.190351585868171 $103 $181 forward 7 unknown #
coedge $-1 $182 $58 $100 $172 reversed $107 $-1 #
coedge $-1 $58 $182 $177 $183 reversed $107 $-1 #
loop $-1 $-1 $58 $95 #
vertex $-1 $101 $184 #
vertex $-1 $183 $185 #
straight-curve $-1 -50.190351585868171 46.046282163915791 0 0 0 1 I I #
face $-1 $-1 $75 $9 $-1 $186 reversed single #
loop $-1 $-1 $127 $60 #
plane-surface $-1 0 46.046282163915791 0 0 -1 0 0 0 -1 forward_v I I I I #
coedge $-1 $187 $125 $128 $188 forward $61 $-1 #
coedge $-1 $131 $63 $64 $119 reversed $37 $-1 #
coedge $-1 $125 $187 $63 $117 reversed $61 $-1 #
edge $-1 $132 -17.091522166161866 $189 17.091522166161866 $116 $190 forward 7 unknown #
coedge $-1 $65 $64 $187 $191 forward $25 $-1 #
edge $-1 $123 -77.188634907071133 $189 77.188634907071133 $115 $192 forward 7 unknown #
coedge $-1 $128 $127 $65 $121 reversed $112 $-1 #
edge $-1 $193 -77.188634907071133 $122 77.188634907071133 $120 $194 forward 7 unknown #
vertex $-1 $67 $195 #
vertex $-1 $134 $196 #
straight-curve $-1 77.188634907071133 0 -17.091522166161866 0 -1 0 I I #
coedge $-1 $114 $116 $68 $126 reversed $61 $-1 #
edge $-1 $129 -46.046282163915791 $132 46.046282163915791 $125 $197 forward 7 unknown #
coedge $-1 $120 $69 $74 $135 forward $112 $-1 #
coedge $-1 $69 $120 $114 $188 reversed $112 $-1 #
vertex $-1 $70 $198 #
straight-curve $-1 0 46.046282163915791 17.091522166161866 -1 0 0 I I #
coedge $-1 $71 $115 $73 $134 reversed $37 $-1 #
vertex $-1 $126 $199 #
straight-curve $-1 0 -46.046282163915791 17.091522166161866 1 0 0 I I #
edge $-1 $76 -17.091522166161866 $123 17.091522166161866 $73 $200 forward 7 unknown #
edge $-1 $77 -17.091522166161866 $122 17.091522166161866 $74 $201 forward 7 unknown #
point $-1 77.188634907071133 -46.046282163915791 17.091522166161866 #
point $-1 77.188634907071133 46.046282163915791 17.091522166161866 #
face $-1 $-1 $202 $10 $-1 $203 reversed single #
loop $-1 $-1 $204 $79 #
plane-surface $-1 0 0 -17.091522166161866 0 0 1 1 0 0 forward_v I I I I #
coedge $-1 $148 $158 $143 $205 forward $80 $-1 #
coedge $-1 $85 $82 $204 $206 reversed $45 $-1 #
coedge $-1 $82 $85 $141 $205 reversed $45 $-1 #
coedge $-1 $207 $208 $82 $145 forward $202 $-1 #
edge $-1 $209 -17.091522166161866 $210 17.091522166161866 $144 $211 forward 7 unknown #
coedge $-1 $204 $88 $83 $147 forward $139 $-1 #
edge $-1 $93 -32.602729823647607 $151 -24.074129636567736 $146 $212 forward 7 unknown #
coedge $-1 $90 $141 $84 $149 forward $80 $-1 #
edge $-1 $150 24.074129636567736 $92 32.602729823647607 $148 $213 forward 7 unknown #
vertex $-1 $149 $214 #
vertex $-1 $147 $215 #
straight-curve $-1 -52.41255936667541 -29.374403889874671 0 0 0 -1 I I #
coedge $-1 $208 $207 $87 $154 forward $202 $-1 #
edge $-1 $159 -17.091522166161866 $156 17.091522166161866 $153 $216 forward 7 unknown #
coedge $-1 $88 $204 $208 $217 forward $139 $-1 #
vertex $-1 $89 $218 #
straight-curve $-1 -60.941159553755284 -18.855171513447615 -17.091522166161866 0 1 0 I I #
coedge $-1 $141 $90 $207 $219 forward $80 $-1 #
vertex $-1 $219 $220 #
straight-curve $-1 -60.941159553755284 -18.855171513447615 17.091522166161866 0 -1 0 I I #
point $-1 -60.941159553755284 -29.374403889874671 17.091522166161866 #
point $-1 -60.941159553755284 -29.374403889874671 -17.091522166161866 #
face $-1 $-1 $179 $11 $-1 $221 forward single #
plane-surface $-1 -50.190351585868171 53.279552883662177 0 -1 0 0 0 0 1 forward_v I I I I #
coedge $-1 $222 $223 $182 $224 forward $96 $-1 #
coedge $-1 $175 $98 $99 $171 reversed $53 $-1 #
coedge $-1 $98 $175 $178 $225 reversed $53 $-1 #
coedge $-1 $223 $222 $98 $169 reversed $96 $-1 #
edge $-1 $226 -17.091522166161866 $227 17.091522166161866 $168 $228 forward 7 unknown #
coedge $-1 $100 $99 $222 $229 forward $33 $-1 #
edge $-1 $173 -7.2332707197463861 $227 7.2332707197463861 $166 $230 forward 7 unknown #
edge $-1 $231 -7.2332707197463861 $108 7.2332707197463861 $105 $232 forward 7 unknown #
vertex $-1 $171 $233 #
straight-curve $-1 0 46.046282163915791 -17.091522166161866 -1 0 0 I I #
coedge $-1 $167 $166 $102 $176 reversed $53 $-1 #
edge $-1 $180 -17.091522166161866 $173 17.091522166161866 $175 $234 forward 7 unknown #
coedge $-1 $235 $103 $106 $183 forward $179 $-1 #
coedge $-1 $103 $235 $167 $225 forward $179 $-1 #
loop $-1 $-1 $103 $163 #
vertex $-1 $104 $236 #
straight-curve $-1 0 46.046282163915791 17.091522166161866 1 0 0 I I #
coedge $-1 $106 $105 $165 $224 reversed $107 $-1 #
edge $-1 $109 -7.2332707197463861 $237 7.2332707197463861 $106 $238 forward 7 unknown #
point $-1 -50.190351585868171 46.046282163915791 -17.091522166161866 #
point $-1 -50.190351585868171 46.046282163915791 17.091522166161866 #
plane-surface $-1 77.188634907071133 0 0 -1 0 0 0 0 1 forward_v I I I I #
coedge $-1 $116 $114 $118 $191 reversed $61 $-1 #
edge $-1 $129 -17.091522166161866 $193 17.091522166161866 $128 $239 forward 7 unknown #
vertex $-1 $191 $240 #
straight-curve $-1 -77.188634907071133 -46.046282163915791 0 0 0 -1 I I #
edge $-1 $189 -46.046282163915791 $193 46.046282163915791 $187 $241 forward 7 unknown #
straight-curve $-1 0 -46.046282163915791 -17.091522166161866 -1 0 0 I I #
vertex $-1 $121 $242 #
straight-curve $-1 0 46.046282163915791 -17.091522166161866 1 0 0 I I #
point $-1 77.188634907071133 46.046282163915791 -17.091522166161866 #
point $-1 77.188634907071133 -46.046282163915791 -17.091522166161866 #
straight-curve $-1 -77.188634907071133 0 17.091522166161866 0 -1 0 I I #
point $-1 -77.188634907071133 46.046282163915791 17.091522166161866 #
point $-1 -77.188634907071133 -46.046282163915791 17.091522166161866 #
straight-curve $-1 77.188634907071133 -46.046282163915791 0 0 0 -1 I I #
straight-curve $-1 77.188634907071133 46.046282163915791 0 0 0 -1 I I #
loop $-1 $-1 $144 $138 #
plane-surface $-1 0 -46.046282163915791 0 0 1 0 0 0 1 forward_v I I I I #
coedge $-1 $155 $146 $142 $206 forward $139 $-1 #
edge $-1 $210 -27.191110650468175 $150 -10.519232376427055 $141 $243 forward 7 unknown #
edge $-1 $151 10.519232376427055 $209 27.191110650468175 $204 $244 forward 7 unknown #
coedge $-1 $153 $144 $158 $219 reversed $202 $-1 #
coedge $-1 $144 $153 $155 $217 reversed $202 $-1 #
vertex $-1 $217 $245 #
vertex $-1 $145 $246 #
straight-curve $-1 -52.41255936667541 -46.046282163915791 0 0 0 1 I I #
straight-curve $-1 -28.338429730107674 -29.374403889874671 -17.091522166161866 1 0 0 I I #
straight-curve $-1 -28.338429730107674 -29.374403889874671 17.091522166161866 -1 0 0 I I #
point $-1 -52.41255936667541 -29.374403889874671 17.091522166161866 #
point $-1 -52.41255936667541 -29.374403889874671 -17.091522166161866 #
straight-curve $-1 -60.941159553755284 -46.046282163915791 0 0 0 -1 I I #
edge $-1 $209 52.41255936667541 $156 60.941159553755284 $208 $247 forward 7 unknown #
point $-1 -60.941159553755284 -46.046282163915791 -17.091522166161866 #
edge $-1 $159 -60.941159553755284 $210 -52.41255936667541 $207 $248 forward 7 unknown #
point $-1 -60.941159553755284 -46.046282163915791 17.091522166161866 #
plane-surface $-1 0 0 17.091522166161866 0 0 1 1 0 0 forward_v I I I I #
coedge $-1 $168 $165 $170 $229 reversed $96 $-1 #
coedge $-1 $165 $168 $235 $249 reversed $96 $-1 #
edge $-1 $237 -17.091522166161866 $231 17.091522166161866 $182 $250 forward 7 unknown #
edge $-1 $226 -7.2332707197463861 $180 7.2332707197463861 $167 $251 forward 7 unknown #
vertex $-1 $249 $252 #
vertex $-1 $229 $253 #
straight-curve $-1 -58.247209695642312 60.512823603408563 0 0 0 -1 I I #
edge $-1 $227 -4.02842905488707 $231 4.02842905488707 $222 $254 forward 7 unknown #
straight-curve $-1 -58.247209695642312 53.279552883662177 -17.091522166161866 0 1 0 I I #
vertex $-1 $172 $255 #
straight-curve $-1 -50.190351585868171 53.279552883662177 -17.091522166161866 0 -1 0 I I #
point $-1 -58.247209695642312 46.046282163915791 -17.091522166161866 #
straight-curve $-1 -58.247209695642312 46.046282163915791 0 0 0 -1 I I #
coedge $-1 $178 $177 $223 $249 forward $179 $-1 #
point $-1 -58.247209695642312 46.046282163915791 17.091522166161866 #
vertex $-1 $183 $256 #
straight-curve $-1 -50.190351585868171 53.279552883662177 17.091522166161866 0 1 0 I I #
straight-curve $-1 -77.188634907071133 46.046282163915791 0 0 0 -1 I I #
point $-1 -77.188634907071133 -46.046282163915791 -17.091522166161866 #
straight-curve $-1 -77.188634907071133 0 -17.091522166161866 0 1 0 I I #
point $-1 -77.188634907071133 46.046282163915791 -17.091522166161866 #
straight-curve $-1 -52.41255936667541 -18.855171513447615 17.091522166161866 0 1 0 I I #
straight-curve $-1 -52.41255936667541 -18.855171513447615 -17.091522166161866 0 -1 0 I I #
point $-1 -52.41255936667541 -46.046282163915791 -17.091522166161866 #
point $-1 -52.41255936667541 -46.046282163915791 17.091522166161866 #
straight-curve $-1 0 -46.046282163915791 -17.091522166161866 -1 0 0 I I #
straight-curve $-1 0 -46.046282163915791 17.091522166161866 1 0 0 I I #
edge $-1 $237 -4.02842905488707 $226 4.02842905488707 $223 $257 forward 7 unknown #
straight-curve $-1 -50.190351585868171 60.512823603408563 0 0 0 -1 I I #
straight-curve $-1 -58.247209695642312 53.279552883662177 17.091522166161866 0 -1 0 I I #
point $-1 -58.247209695642312 60.512823603408563 17.091522166161866 #
point $-1 -58.247209695642312 60.512823603408563 -17.091522166161866 #
straight-curve $-1 -54.218780640755242 60.512823603408563 -17.091522166161866 1 0 0 I I #
point $-1 -50.190351585868171 60.512823603408563 -17.091522166161866 #
point $-1 -50.190351585868171 60.512823603408563 17.091522166161866 #
straight-curve $-1 -54.218780640755242 60.512823603408563 17.091522166161866 -1 0 0 I I #
End-of-ACIS-data 