500 0 5 0           
7 Unknown 11 ACIS 5.0 NT 24 Thu Mar 25 23:14:54 1999 
-1 9.9999999999999995e-007 1e-010 
body $-1 $5 $-1 $6 #
body $-1 $7 $-1 $8 #
body $-1 $9 $-1 $10 #
body $-1 $11 $-1 $12 #
body $-1 $13 $-1 $14 #
lump $-1 $-1 $15 $0 #
transform $-1 1 0 0 0 1 0 0 0 1 57.289345988341928 25.408761206237276 9.2549243407258075 1 rotate no_reflect no_shear #
lump $-1 $-1 $16 $1 #
transform $-1 1 0 0 0 1 0 0 0 1 57.289345988341928 25.408761206237276 9.2549243407258075 1 rotate no_reflect no_shear #
lump $-1 $-1 $17 $2 #
transform $-1 1 0 0 0 1 0 0 0 1 57.289345988341928 25.408761206237276 9.2549243407258075 1 rotate no_reflect no_shear #
lump $-1 $-1 $18 $3 #
transform $-1 1 0 0 0 1 0 0 0 1 57.289345988341928 25.408761206237276 9.2549243407258075 1 rotate no_reflect no_shear #
lump $-1 $-1 $19 $4 #
transform $-1 1 0 0 0 1 0 0 0 1 57.289345988341928 25.408761206237276 9.2549243407258075 1 rotate no_reflect no_shear #
shell $-1 $-1 $-1 $20 $-1 $5 #
shell $-1 $-1 $-1 $21 $-1 $7 #
shell $-1 $-1 $-1 $22 $-1 $9 #
shell $-1 $-1 $-1 $23 $-1 $11 #
shell $-1 $-1 $-1 $24 $-1 $13 #
face $-1 $25 $26 $15 $-1 $27 forward single #
face $-1 $28 $29 $16 $-1 $30 forward single #
face $-1 $31 $32 $17 $-1 $33 reversed single #
face $-1 $34 $35 $18 $-1 $36 forward single #
face $-1 $37 $38 $19 $-1 $39 forward single #
face $-1 $40 $41 $15 $-1 $42 reversed single #
loop $-1 $-1 $43 $20 #
plane-surface $-1 0 0 9.2549243407258075 0 0 1 1 0 0 forward_v I I I I #
face $-1 $44 $45 $16 $-1 $46 reversed single #
loop $-1 $-1 $47 $21 #
plane-surface $-1 0 -25.408761206237276 0 0 1 0 0 0 1 forward_v I I I I #
face $-1 $48 $49 $17 $-1 $50 reversed single #
loop $-1 $-1 $51 $22 #
plane-surface $-1 -33.908187386636051 40.862032627152246 125.57226338482238 -1 0 0 0 0.51503808176128008 0.85716729658548041 forward_v I I I I #
face $-1 $52 $53 $18 $-1 $54 forward single #
loop $-1 $55 $56 $23 #
cone-surface $-1 -50.609014959283108 18.205506330146964 4.4068178279376147 0 -0.51503808176128008 -0.85716729658548041 1.5 0 0 1 I I 0 1 1.5 forward I I I I #
face $-1 $57 $58 $19 $-1 $59 forward single #
loop $-1 $60 $61 $24 #
cone-surface $-1 -40.588518415694871 18.205506330146964 4.4068178279376147 0 -0.51503808176128008 -0.85716729658548041 1.5 0 0 1 I I 0 1 1.5 forward I I I I #
face $-1 $62 $63 $15 $-1 $64 reversed single #
loop $-1 $-1 $65 $25 #
plane-surface $-1 0 0 -9.2549243407258075 0 0 1 1 0 0 forward_v I I I I #
coedge $-1 $66 $67 $68 $69 forward $26 $-1 #
face $-1 $70 $71 $16 $-1 $72 forward single #
loop $-1 $-1 $73 $28 #
plane-surface $-1 -57.289345988341928 0 0 1 0 0 0 0 -1 forward_v I I I I #
coedge $-1 $74 $75 $76 $77 forward $29 $-1 #
face $-1 $78 $79 $17 $-1 $80 forward single #
loop $-1 $-1 $81 $31 #
plane-surface $-1 -45.59876668748899 -18.150357099235578 27.359155736867805 0 0.51503808176128008 0.85716729658548041 1 0 0 forward_v I I I I #
coedge $-1 $82 $83 $84 $85 reversed $32 $-1 #
face $-1 $-1 $86 $18 $-1 $87 forward single #
loop $-1 $88 $89 $34 #
cone-surface $-1 -50.609014959283108 17.330281890065418 2.9501997762301997 0 -0.51503808176128008 -0.85716729658548041 0.75 0 0 1 I I -0.70710678118654724 0.70710678118654768 0.75 forward I I I I #
loop $-1 $-1 $90 $23 #
coedge $-1 $56 $56 $91 $92 reversed $35 $-1 #
face $-1 $-1 $93 $19 $-1 $94 forward single #
loop $-1 $95 $96 $37 #
cone-surface $-1 -40.588518415694871 17.330281890065418 2.9501997762301997 0 -0.51503808176128008 -0.85716729658548041 0.75 0 0 1 I I -0.70710678118654724 0.70710678118654768 0.75 forward I I I I #
loop $-1 $-1 $97 $24 #
coedge $-1 $61 $61 $98 $99 reversed $38 $-1 #
face $-1 $100 $101 $15 $-1 $102 reversed single #
loop $-1 $-1 $103 $40 #
plane-surface $-1 0 -25.408761206237276 0 0 1 0 0 0 1 forward_v I I I I #
coedge $-1 $104 $105 $106 $107 forward $41 $-1 #
coedge $-1 $108 $43 $109 $110 forward $26 $-1 #
coedge $-1 $43 $108 $111 $112 forward $26 $-1 #
coedge $-1 $113 $114 $43 $69 reversed $115 $-1 #
edge $-1 $116 -25.408761206237276 $117 25.408761206237276 $68 $118 forward 7 unknown #
face $-1 $119 $120 $16 $-1 $121 reversed single #
loop $-1 $-1 $122 $44 #
plane-surface $-1 0 -30.222547681208169 -1.9622268801073588 0 0 1 1 0 0 forward_v I I I I #
coedge $-1 $123 $124 $75 $125 forward $45 $-1 #
coedge $-1 $126 $47 $127 $128 reversed $29 $-1 #
coedge $-1 $47 $126 $73 $125 reversed $29 $-1 #
coedge $-1 $129 $122 $47 $77 reversed $71 $-1 #
edge $-1 $130 -57.289345988341928 $131 57.289345988341928 $76 $132 forward 7 unknown #
face $-1 $133 $134 $17 $-1 $135 reversed single #
loop $-1 $-1 $136 $48 #
plane-surface $-1 0 0 9.2549243407258075 0 0 1 1 0 0 forward_v I I I I #
coedge $-1 $137 $138 $139 $140 reversed $49 $-1 #
coedge $-1 $83 $51 $141 $142 reversed $32 $-1 #
coedge $-1 $51 $82 $137 $143 reversed $32 $-1 #
coedge $-1 $139 $144 $51 $85 forward $134 $-1 #
edge $-1 $145 53.531207351685381 $146 61.599935218725122 $84 $147 forward 7 unknown #
loop $-1 $-1 $91 $52 #
plane-surface $-1 -45.59876668748899 -18.150357099235578 27.359155736867805 0 0.51503808176128008 0.85716729658548041 1 0 0 forward_v I I I I #
loop $-1 $-1 $148 $34 #
coedge $-1 $89 $89 $90 $149 reversed $53 $-1 #
coedge $-1 $90 $90 $89 $149 forward $55 $-1 #
coedge $-1 $91 $91 $56 $92 forward $86 $-1 #
edge $-1 $150 -1.0019857411165887e-015 $150 6.2831853071795996 $91 $151 forward 7 unknown #
loop $-1 $-1 $98 $57 #
plane-surface $-1 -45.59876668748899 -18.150357099235578 27.359155736867805 0 0.51503808176128008 0.85716729658548041 1 0 0 forward_v I I I I #
loop $-1 $-1 $152 $37 #
coedge $-1 $96 $96 $97 $153 reversed $58 $-1 #
coedge $-1 $97 $97 $96 $153 forward $60 $-1 #
coedge $-1 $98 $98 $61 $99 forward $93 $-1 #
edge $-1 $154 -1.0019857411165887e-015 $154 6.2831853071795996 $98 $155 forward 7 unknown #
face $-1 $156 $157 $15 $-1 $158 reversed single #
loop $-1 $-1 $159 $62 #
plane-surface $-1 -57.289345988341928 0 0 1 0 0 0 0 -1 forward_v I I I I #
coedge $-1 $160 $111 $161 $162 forward $63 $-1 #
coedge $-1 $163 $65 $160 $164 forward $41 $-1 #
coedge $-1 $65 $163 $165 $166 forward $41 $-1 #
coedge $-1 $114 $113 $65 $107 reversed $115 $-1 #
edge $-1 $167 -25.408761206237276 $168 25.408761206237276 $106 $169 forward 7 unknown #
coedge $-1 $67 $66 $170 $171 forward $26 $-1 #
coedge $-1 $172 $173 $66 $110 reversed $157 $-1 #
edge $-1 $117 -57.289345988341928 $174 57.289345988341928 $109 $175 forward 7 unknown #
coedge $-1 $103 $176 $67 $112 reversed $63 $-1 #
edge $-1 $177 -57.289345988341928 $116 57.289345988341928 $111 $178 forward 7 unknown #
coedge $-1 $106 $68 $176 $179 forward $115 $-1 #
coedge $-1 $68 $106 $172 $180 reversed $115 $-1 #
loop $-1 $-1 $113 $156 #
vertex $-1 $69 $181 #
vertex $-1 $69 $182 #
straight-curve $-1 57.289345988341928 0 9.2549243407258075 0 1 0 I I #
face $-1 $183 $184 $16 $-1 $185 reversed single #
loop $-1 $-1 $186 $70 #
plane-surface $-1 0 -30.222547681208169 -4.9622268801073588 0 0 1 1 0 0 forward_v I I I I #
coedge $-1 $76 $187 $188 $189 forward $71 $-1 #
coedge $-1 $190 $73 $191 $192 reversed $45 $-1 #
coedge $-1 $73 $190 $129 $193 reversed $45 $-1 #
edge $-1 $130 1.9622268801073588 $194 4.9622268801073588 $73 $195 forward 7 unknown #
coedge $-1 $75 $74 $196 $197 forward $29 $-1 #
coedge $-1 $188 $198 $74 $128 forward $199 $-1 #
edge $-1 $200 -4.9622268801073588 $131 -1.9622268801073588 $127 $201 forward 7 unknown #
coedge $-1 $187 $76 $124 $193 forward $71 $-1 #
vertex $-1 $125 $202 #
vertex $-1 $189 $203 #
straight-curve $-1 0 -25.408761206237276 -1.9622268801073588 1 0 0 I I #
face $-1 $-1 $204 $17 $-1 $205 reversed single #
loop $-1 $-1 $84 $78 #
plane-surface $-1 0 25.408761206237276 0 0 -1 0 0 0 -1 forward_v I I I I #
coedge $-1 $141 $206 $207 $208 forward $79 $-1 #
coedge $-1 $207 $81 $83 $143 forward $49 $-1 #
coedge $-1 $81 $207 $209 $210 reversed $49 $-1 #
coedge $-1 $211 $84 $81 $140 forward $134 $-1 #
edge $-1 $146 11.108804042891556 $212 34.489962644597433 $139 $213 forward 7 unknown #
coedge $-1 $214 $136 $82 $142 forward $79 $-1 #
edge $-1 $215 -8.4508731019982477 $145 4.9777448926611534 $141 $216 forward 7 unknown #
edge $-1 $146 -50.817522412474524 $215 -35.151248106219263 $83 $217 forward 7 unknown #
coedge $-1 $84 $211 $214 $218 reversed $134 $-1 #
vertex $-1 $218 $219 #
vertex $-1 $85 $220 #
straight-curve $-1 -33.908187386636051 25.408761206237276 62.786131692411189 0 0 -1 I I #
coedge $-1 $148 $148 $-1 $221 reversed $88 $-1 #
edge $-1 $222 0 $222 6.2831853071796004 $89 $223 forward 7 unknown #
vertex $-1 $92 $224 #
ellipse-curve $-1 -50.609014959283108 18.694452208907567 5.2205604072059453 0 0.51503808176128008 0.85716729658548041 1.5 0 0 1 I I #
coedge $-1 $152 $152 $-1 $225 reversed $95 $-1 #
edge $-1 $226 0 $226 6.2831853071796004 $96 $227 forward 7 unknown #
vertex $-1 $99 $228 #
ellipse-curve $-1 -40.588518415694871 18.694452208907567 5.2205604072059453 0 0.51503808176128008 0.85716729658548041 1.5 0 0 1 I I #
face $-1 $-1 $115 $15 $-1 $229 reversed single #
loop $-1 $-1 $172 $100 #
plane-surface $-1 0 25.408761206237276 0 0 -1 0 0 0 -1 forward_v I I I I #
coedge $-1 $230 $170 $173 $231 forward $101 $-1 #
coedge $-1 $176 $103 $104 $164 reversed $63 $-1 #
coedge $-1 $170 $230 $103 $162 reversed $101 $-1 #
edge $-1 $177 -9.2549243407258075 $232 9.2549243407258075 $161 $233 forward 7 unknown #
coedge $-1 $105 $104 $230 $234 forward $41 $-1 #
edge $-1 $168 -57.289345988341928 $232 57.289345988341928 $160 $235 forward 7 unknown #
coedge $-1 $173 $172 $105 $166 reversed $157 $-1 #
edge $-1 $236 -57.289345988341928 $167 57.289345988341928 $165 $237 forward 7 unknown #
vertex $-1 $107 $238 #
vertex $-1 $179 $239 #
straight-curve $-1 57.289345988341928 0 -9.2549243407258075 0 -1 0 I I #
coedge $-1 $159 $161 $108 $171 reversed $101 $-1 #
edge $-1 $174 -25.408761206237276 $177 25.408761206237276 $170 $240 forward 7 unknown #
coedge $-1 $165 $109 $114 $180 forward $157 $-1 #
coedge $-1 $109 $165 $159 $231 reversed $157 $-1 #
vertex $-1 $110 $241 #
straight-curve $-1 0 25.408761206237276 9.2549243407258075 -1 0 0 I I #
coedge $-1 $111 $160 $113 $179 reversed $63 $-1 #
vertex $-1 $171 $242 #
straight-curve $-1 0 -25.408761206237276 9.2549243407258075 1 0 0 I I #
edge $-1 $116 -9.2549243407258075 $168 9.2549243407258075 $113 $243 forward 7 unknown #
edge $-1 $117 -9.2549243407258075 $167 9.2549243407258075 $114 $244 forward 7 unknown #
point $-1 57.289345988341928 -25.408761206237276 9.2549243407258075 #
point $-1 57.289345988341928 25.408761206237276 9.2549243407258075 #
face $-1 $-1 $199 $16 $-1 $245 reversed single #
loop $-1 $-1 $246 $119 #
plane-surface $-1 0 -35.036334156179066 -3.4622268801073588 0 1 0 0 0 1 forward_v I I I I #
coedge $-1 $247 $196 $198 $248 forward $120 $-1 #
coedge $-1 $122 $129 $249 $250 forward $71 $-1 #
coedge $-1 $251 $127 $122 $189 reversed $199 $-1 #
edge $-1 $252 -4.8137864749708967 $131 4.8137864749708932 $188 $253 forward 7 unknown #
coedge $-1 $124 $123 $246 $254 reversed $45 $-1 #
coedge $-1 $196 $247 $123 $192 forward $120 $-1 #
edge $-1 $255 -4.8137864749708967 $194 4.8137864749708932 $123 $256 forward 7 unknown #
edge $-1 $130 -4.8137864749708932 $257 4.8137864749708967 $124 $258 forward 7 unknown #
vertex $-1 $125 $259 #
straight-curve $-1 -57.289345988341928 -25.408761206237276 0 0 0 -1 I I #
coedge $-1 $186 $191 $126 $197 reversed $120 $-1 #
edge $-1 $200 -57.289345988341928 $194 57.289345988341928 $196 $260 forward 7 unknown #
coedge $-1 $127 $251 $186 $248 reversed $199 $-1 #
loop $-1 $-1 $127 $183 #
vertex $-1 $128 $261 #
straight-curve $-1 57.289345988341928 -25.408761206237276 0 0 0 1 I I #
point $-1 -57.289345988341928 -25.408761206237276 -1.9622268801073588 #
point $-1 57.289345988341928 -25.408761206237276 -1.9622268801073588 #
loop $-1 $-1 $209 $133 #
plane-surface $-1 -57.289345988341928 0 0 1 0 0 0 0 -1 forward_v I I I I #
coedge $-1 $136 $214 $262 $263 forward $79 $-1 #
coedge $-1 $138 $137 $136 $208 reversed $49 $-1 #
edge $-1 $264 -34.489962644597433 $215 -11.108804042891556 $136 $265 forward 7 unknown #
coedge $-1 $262 $266 $138 $210 forward $204 $-1 #
edge $-1 $212 -35.993072604405846 $264 -20.326798298150582 $209 $267 forward 7 unknown #
coedge $-1 $144 $139 $266 $268 reversed $134 $-1 #
vertex $-1 $140 $269 #
straight-curve $-1 -22.799383343744495 25.408761206237276 1.1861964736860671 -1 0 0 I I #
coedge $-1 $206 $141 $144 $218 forward $79 $-1 #
vertex $-1 $142 $270 #
straight-curve $-1 -33.908187386636051 20.431016313576123 9.2549243407258075 0 1 0 I I #
straight-curve $-1 -33.908187386636051 -18.150357099235578 27.359155736867805 0 -0.85716729658548041 0.51503808176128008 I I #
edge $-1 $145 33.908187386636051 $271 57.289345988341928 $144 $272 forward 7 unknown #
point $-1 -33.908187386636051 25.408761206237276 9.2549243407258075 #
point $-1 -33.908187386636051 25.408761206237273 1.1861964736860671 #
edge $-1 $273 1 $273 0 $148 $-1 forward 7 unknown #
vertex $-1 $149 $274 #
ellipse-curve $-1 -50.609014959283108 17.716560451386378 3.5930752486693103 0 0.51503808176128008 0.85716729658548041 1.5 0 0 1 I I #
point $-1 -49.109014959283108 18.694452208907549 5.2205604072059186 #
edge $-1 $275 1 $275 0 $152 $-1 forward 7 unknown #
vertex $-1 $153 $276 #
ellipse-curve $-1 -40.588518415694871 17.716560451386378 3.5930752486693103 0 0.51503808176128008 0.85716729658548041 1.5 0 0 1 I I #
point $-1 -39.088518415694871 18.694452208907549 5.2205604072059186 #
plane-surface $-1 57.289345988341928 0 0 -1 0 0 0 0 1 forward_v I I I I #
coedge $-1 $161 $159 $163 $234 reversed $101 $-1 #
edge $-1 $174 -9.2549243407258075 $236 9.2549243407258075 $173 $277 forward 7 unknown #
vertex $-1 $234 $278 #
straight-curve $-1 -57.289345988341928 -25.408761206237276 0 0 0 -1 I I #
edge $-1 $232 -25.408761206237276 $236 25.408761206237276 $230 $279 forward 7 unknown #
straight-curve $-1 0 -25.408761206237276 -9.2549243407258075 -1 0 0 I I #
vertex $-1 $166 $280 #
straight-curve $-1 0 25.408761206237276 -9.2549243407258075 1 0 0 I I #
point $-1 57.289345988341928 25.408761206237276 -9.2549243407258075 #
point $-1 57.289345988341928 -25.408761206237276 -9.2549243407258075 #
straight-curve $-1 -57.289345988341928 0 9.2549243407258075 0 -1 0 I I #
point $-1 -57.289345988341928 25.408761206237276 9.2549243407258075 #
point $-1 -57.289345988341928 -25.408761206237276 9.2549243407258075 #
straight-curve $-1 57.289345988341928 -25.408761206237276 0 0 0 -1 I I #
straight-curve $-1 57.289345988341928 25.408761206237276 0 0 0 -1 I I #
plane-surface $-1 57.289345988341928 0 0 -1 0 0 0 0 1 forward_v I I I I #
coedge $-1 $281 $249 $190 $254 forward $184 $-1 #
coedge $-1 $191 $186 $281 $282 forward $120 $-1 #
edge $-1 $200 -4.8137864749708932 $283 4.8137864749708967 $198 $284 forward 7 unknown #
coedge $-1 $246 $285 $187 $250 reversed $184 $-1 #
edge $-1 $257 -57.289345988341928 $252 57.289345988341928 $249 $286 forward 7 unknown #
coedge $-1 $198 $188 $285 $287 forward $199 $-1 #
vertex $-1 $189 $288 #
straight-curve $-1 57.289345988341928 -30.222547681208169 -1.9622268801073588 0 1 0 I I #
edge $-1 $257 -1.5 $255 1.5 $190 $289 forward 7 unknown #
vertex $-1 $192 $290 #
straight-curve $-1 -57.289345988341928 -30.222547681208169 -4.9622268801073588 0 1 0 I I #
vertex $-1 $193 $291 #
straight-curve $-1 -57.289345988341928 -30.222547681208169 -1.9622268801073588 0 -1 0 I I #
point $-1 -57.289345988341928 -25.408761206237276 -4.9622268801073588 #
straight-curve $-1 0 -25.408761206237276 -4.9622268801073588 -1 0 0 I I #
point $-1 57.289345988341928 -25.408761206237276 -4.9622268801073588 #
coedge $-1 $266 $209 $206 $263 reversed $204 $-1 #
edge $-1 $271 -25.408761206237276 $264 -11.980143211577875 $262 $292 forward 7 unknown #
vertex $-1 $210 $293 #
straight-curve $-1 -22.799383343744495 11.980143211577872 9.2549243407258075 1 0 0 I I #
coedge $-1 $209 $262 $211 $268 forward $204 $-1 #
straight-curve $-1 -57.289345988341928 -5.443323533886204 19.723999544553735 0 -0.85716729658548041 0.51503808176128008 I I #
edge $-1 $271 -9.2549243407258075 $212 -1.1861964736860653 $211 $294 forward 7 unknown #
point $-1 -57.289345988341928 25.408761206237276 1.1861964736860653 #
point $-1 -33.908187386636051 11.980143211577875 9.2549243407258075 #
vertex $-1 $218 $295 #
straight-curve $-1 0 25.408761206237276 9.2549243407258075 -1 0 0 I I #
vertex $-1 $221 $296 #
point $-1 -49.109014959283108 17.716560451386378 3.5930752486693103 #
vertex $-1 $225 $297 #
point $-1 -39.088518415694871 17.716560451386378 3.5930752486693103 #
straight-curve $-1 -57.289345988341928 25.408761206237276 0 0 0 -1 I I #
point $-1 -57.289345988341928 -25.408761206237276 -9.2549243407258075 #
straight-curve $-1 -57.289345988341928 0 -9.2549243407258075 0 1 0 I I #
point $-1 -57.289345988341928 25.408761206237276 -9.2549243407258075 #
coedge $-1 $285 $246 $247 $282 reversed $184 $-1 #
edge $-1 $283 -57.289345988341928 $255 57.289345988341928 $281 $298 forward 7 unknown #
vertex $-1 $287 $299 #
straight-curve $-1 57.289345988341928 -30.222547681208169 -4.9622268801073588 0 -1 0 I I #
coedge $-1 $249 $281 $251 $287 reversed $184 $-1 #
straight-curve $-1 0 -35.036334156179066 -1.9622268801073588 1 0 0 I I #
edge $-1 $252 -1.5 $283 1.5 $251 $300 forward 7 unknown #
point $-1 57.289345988341928 -35.036334156179066 -1.9622268801073588 #
straight-curve $-1 -57.289345988341928 -35.036334156179066 -3.4622268801073588 0 0 -1 I I #
point $-1 -57.289345988341928 -35.036334156179066 -4.9622268801073588 #
point $-1 -57.289345988341928 -35.036334156179066 -1.9622268801073588 #
straight-curve $-1 -57.289345988341928 0 9.2549243407258075 0 -1 0 I I #
point $-1 -57.289345988341928 11.980143211577875 9.2549243407258075 #
straight-curve $-1 -57.289345988341928 25.408761206237276 0 0 0 -1 I I #
point $-1 -57.289345988341928 25.408761206237276 9.2549243407258075 #
point $-1 -50.609014959283108 16.944003328744458 2.3073243037910891 #
point $-1 -40.588518415694871 16.944003328744458 2.3073243037910891 #
straight-curve $-1 0 -35.036334156179066 -4.9622268801073588 -1 0 0 I I #
point $-1 57.289345988341928 -35.036334156179066 -4.9622268801073588 #
straight-curve $-1 57.289345988341928 -35.036334156179066 -3.4622268801073588 0 0 -1 I I #
End-of-ACIS-data 