500 0 5 0           
7 Unknown 11 ACIS 5.0 NT 24 Fri Mar 26 16:45:27 1999 
-1 9.9999999999999995e-007 1e-010 
body $-1 $5 $-1 $6 #
body $-1 $7 $-1 $8 #
body $-1 $9 $-1 $10 #
body $-1 $11 $-1 $12 #
body $-1 $13 $-1 $14 #
lump $-1 $-1 $15 $0 #
transform $-1 1 0 0 0 1 0 0 0 1 74.744712668233291 34.503420358200721 15.751511107341319 1 rotate no_reflect no_shear #
lump $-1 $-1 $16 $1 #
transform $-1 1 0 0 0 1 0 0 0 1 74.744712668233291 34.503420358200721 15.751511107341319 1 rotate no_reflect no_shear #
lump $-1 $-1 $17 $2 #
transform $-1 1 0 0 0 1 0 0 0 1 74.744712668233291 34.503420358200721 15.751511107341319 1 rotate no_reflect no_shear #
lump $-1 $-1 $18 $3 #
transform $-1 1 0 0 0 1 0 0 0 1 74.744712668233291 34.503420358200721 15.751511107341319 1 rotate no_reflect no_shear #
lump $-1 $-1 $19 $4 #
transform $-1 1 0 0 0 1 0 0 0 1 74.744712668233291 34.503420358200721 15.751511107341319 1 rotate no_reflect no_shear #
shell $-1 $-1 $-1 $20 $-1 $5 #
shell $-1 $-1 $-1 $21 $-1 $7 #
shell $-1 $-1 $-1 $22 $-1 $9 #
shell $-1 $-1 $-1 $23 $-1 $11 #
shell $-1 $-1 $-1 $24 $-1 $13 #
face $-1 $25 $26 $15 $-1 $27 forward single #
face $-1 $28 $29 $16 $-1 $30 reversed single #
face $-1 $31 $32 $17 $-1 $33 forward single #
face $-1 $34 $35 $18 $-1 $36 reversed single #
face $-1 $37 $38 $19 $-1 $39 forward single #
face $-1 $40 $41 $15 $-1 $42 reversed single #
loop $-1 $-1 $43 $20 #
plane-surface $-1 0 0 15.751511107341319 0 0 1 1 0 0 forward_v I I I I #
face $-1 $44 $45 $16 $-1 $46 reversed single #
loop $-1 $-1 $47 $21 #
plane-surface $-1 -67.807120711846437 0 12.51237318981798 0 0 1 1 0 0 forward_v I I I I #
face $-1 $48 $49 $17 $-1 $50 reversed single #
loop $-1 $-1 $51 $22 #
plane-surface $-1 68.715307068838058 0 -7.0395559146673863 0 0 1 1 0 0 forward_v I I I I #
face $-1 $52 $53 $18 $-1 $54 reversed single #
loop $-1 $-1 $55 $23 #
plane-surface $-1 -11.779939570935127 114.88170465503026 143.8806241206137 -1 0 0 0 0.80901700255871778 0.5877852410284794 forward_v I I I I #
face $-1 $56 $57 $19 $-1 $58 forward single #
loop $-1 $59 $60 $24 #
cone-surface $-1 -22.798194061388209 26.069733002874052 5.949380090409143 0 -0.80901700255871778 -0.5877852410284794 2 0 0 1 I I 0 1 2 forward I I I I #
face $-1 $61 $62 $15 $-1 $63 reversed single #
loop $-1 $-1 $64 $25 #
plane-surface $-1 0 0 -15.751511107341319 0 0 1 1 0 0 forward_v I I I I #
coedge $-1 $65 $66 $67 $68 forward $26 $-1 #
face $-1 $69 $70 $16 $-1 $71 reversed single #
loop $-1 $-1 $72 $28 #
plane-surface $-1 -60.869528755459584 0 14.13194214857965 -1 0 0 0 0 1 forward_v I I I I #
coedge $-1 $73 $74 $75 $76 forward $29 $-1 #
face $-1 $77 $78 $17 $-1 $79 reversed single #
loop $-1 $-1 $80 $31 #
plane-surface $-1 62.685901469442825 0 -11.395533511004352 1 0 0 0 0 -1 forward_v I I I I #
coedge $-1 $81 $82 $83 $84 reversed $32 $-1 #
face $-1 $85 $86 $18 $-1 $87 reversed single #
loop $-1 $-1 $88 $34 #
plane-surface $-1 -22.798194061388209 -6.0577821449031717 56.012946218009816 0 0.80901700255871778 0.5877852410284794 1 0 0 forward_v I I I I #
coedge $-1 $89 $90 $91 $92 reversed $35 $-1 #
face $-1 $-1 $93 $19 $-1 $94 forward single #
loop $-1 $95 $96 $37 #
cone-surface $-1 -22.798194061388209 22.481807901557779 3.3425999933292267 0 -0.80901700255871778 -0.5877852410284794 1 0 0 1 I I -0.70710678118654746 0.70710678118654746 1 forward I I I I #
loop $-1 $-1 $97 $24 #
coedge $-1 $60 $60 $98 $99 reversed $38 $-1 #
face $-1 $100 $101 $15 $-1 $102 reversed single #
loop $-1 $-1 $103 $40 #
plane-surface $-1 0 -34.503420358200721 0 0 1 0 0 0 1 forward_v I I I I #
coedge $-1 $104 $105 $106 $107 forward $41 $-1 #
coedge $-1 $108 $43 $109 $110 forward $26 $-1 #
coedge $-1 $43 $108 $111 $112 forward $26 $-1 #
coedge $-1 $113 $114 $43 $68 reversed $115 $-1 #
edge $-1 $116 -34.503420358200721 $117 34.503420358200721 $67 $118 forward 7 unknown #
face $-1 $119 $120 $16 $-1 $121 reversed single #
loop $-1 $-1 $122 $44 #
plane-surface $-1 0 34.503420358200721 0 0 -1 0 0 0 -1 forward_v I I I I #
coedge $-1 $75 $123 $124 $125 reversed $45 $-1 #
coedge $-1 $126 $47 $127 $128 reversed $29 $-1 #
coedge $-1 $47 $126 $129 $130 reversed $29 $-1 #
coedge $-1 $131 $72 $47 $76 reversed $45 $-1 #
edge $-1 $132 -34.503420358200721 $133 34.503420358200721 $75 $134 forward 7 unknown #
face $-1 $135 $136 $17 $-1 $137 reversed single #
loop $-1 $-1 $138 $48 #
plane-surface $-1 0 -34.503420358200721 0 0 1 0 0 0 1 forward_v I I I I #
coedge $-1 $139 $140 $141 $142 reversed $49 $-1 #
coedge $-1 $143 $51 $144 $145 reversed $32 $-1 #
coedge $-1 $51 $143 $138 $146 reversed $32 $-1 #
coedge $-1 $147 $148 $51 $84 forward $149 $-1 #
edge $-1 $150 -34.503420358200721 $151 34.503420358200721 $83 $152 forward 7 unknown #
face $-1 $153 $154 $18 $-1 $155 reversed single #
loop $-1 $-1 $156 $52 #
plane-surface $-1 -33.81644855184129 114.88170465503026 143.8806241206137 1 0 0 0 -0.80901700255871778 -0.5877852410284794 forward_v I I I I #
coedge $-1 $157 $158 $159 $160 reversed $53 $-1 #
coedge $-1 $90 $55 $161 $162 reversed $35 $-1 #
coedge $-1 $55 $89 $157 $163 reversed $35 $-1 #
coedge $-1 $159 $164 $55 $92 forward $154 $-1 #
edge $-1 $165 56.188800952965536 $166 71.755073274726982 $91 $167 forward 7 unknown #
loop $-1 $-1 $98 $56 #
plane-surface $-1 -22.798194061388209 -6.0577821449031717 56.012946218009816 0 0.80901700255871778 0.5877852410284794 1 0 0 forward_v I I I I #
loop $-1 $-1 $168 $37 #
coedge $-1 $96 $96 $97 $169 reversed $57 $-1 #
coedge $-1 $97 $97 $96 $169 forward $59 $-1 #
coedge $-1 $98 $98 $60 $99 forward $93 $-1 #
edge $-1 $170 1.011324937957113e-016 $170 6.2831853071796004 $98 $171 forward 7 unknown #
face $-1 $172 $173 $15 $-1 $174 reversed single #
loop $-1 $-1 $175 $61 #
plane-surface $-1 -74.744712668233291 0 0 1 0 0 0 0 -1 forward_v I I I I #
coedge $-1 $176 $111 $177 $178 forward $62 $-1 #
coedge $-1 $179 $64 $176 $180 forward $41 $-1 #
coedge $-1 $64 $179 $181 $182 forward $41 $-1 #
coedge $-1 $114 $113 $64 $107 reversed $115 $-1 #
edge $-1 $183 -34.503420358200721 $184 34.503420358200721 $106 $185 forward 7 unknown #
coedge $-1 $66 $65 $186 $187 forward $26 $-1 #
coedge $-1 $188 $189 $65 $110 reversed $173 $-1 #
edge $-1 $117 -74.744712668233291 $190 74.744712668233291 $109 $191 forward 7 unknown #
coedge $-1 $103 $192 $66 $112 reversed $62 $-1 #
edge $-1 $193 -74.744712668233291 $116 74.744712668233291 $111 $194 forward 7 unknown #
coedge $-1 $106 $67 $192 $195 forward $115 $-1 #
coedge $-1 $67 $106 $188 $196 reversed $115 $-1 #
loop $-1 $-1 $113 $172 #
vertex $-1 $68 $197 #
vertex $-1 $68 $198 #
straight-curve $-1 74.744712668233291 0 15.751511107341319 0 1 0 I I #
face $-1 $199 $200 $16 $-1 $201 forward single #
loop $-1 $-1 $202 $69 #
plane-surface $-1 -74.744712668233291 0 0 1 0 0 0 0 -1 forward_v I I I I #
coedge $-1 $129 $203 $131 $204 forward $70 $-1 #
coedge $-1 $72 $131 $205 $206 reversed $45 $-1 #
coedge $-1 $207 $127 $72 $125 forward $208 $-1 #
edge $-1 $133 5.446402115528155 $209 8.6855400330514954 $124 $210 forward 7 unknown #
coedge $-1 $74 $73 $202 $211 reversed $29 $-1 #
coedge $-1 $124 $212 $73 $128 forward $208 $-1 #
edge $-1 $213 -40.841152312310072 $133 -26.965968399536365 $127 $214 forward 7 unknown #
coedge $-1 $215 $122 $74 $130 forward $70 $-1 #
edge $-1 $132 26.965968399536365 $216 40.841152312310072 $129 $217 forward 7 unknown #
coedge $-1 $123 $75 $122 $204 reversed $45 $-1 #
vertex $-1 $130 $218 #
vertex $-1 $128 $219 #
straight-curve $-1 -60.869528755459584 0 12.51237318981798 0 -1 0 I I #
face $-1 $220 $221 $17 $-1 $222 reversed single #
loop $-1 $-1 $223 $77 #
plane-surface $-1 0 0 -15.751511107341319 0 0 1 1 0 0 forward_v I I I I #
coedge $-1 $224 $225 $82 $146 forward $78 $-1 #
coedge $-1 $226 $80 $223 $227 reversed $49 $-1 #
coedge $-1 $80 $226 $143 $228 reversed $49 $-1 #
coedge $-1 $144 $229 $80 $142 forward $221 $-1 #
edge $-1 $230 -10.053744351839143 $231 -1.3417891591652102 $141 $232 forward 7 unknown #
coedge $-1 $82 $81 $140 $228 forward $32 $-1 #
coedge $-1 $233 $141 $81 $145 forward $221 $-1 #
edge $-1 $231 28.328247935023796 $150 40.387059133814262 $144 $234 forward 7 unknown #
edge $-1 $151 -40.387059133814262 $235 -28.328247935023796 $138 $236 forward 7 unknown #
coedge $-1 $237 $83 $225 $238 forward $149 $-1 #
coedge $-1 $83 $237 $233 $239 reversed $149 $-1 #
loop $-1 $-1 $83 $220 #
vertex $-1 $239 $240 #
vertex $-1 $238 $241 #
straight-curve $-1 74.744712668233291 0 -7.0395559146673863 0 -1 0 I I #
face $-1 $-1 $242 $18 $-1 $243 forward single #
loop $-1 $-1 $91 $85 #
plane-surface $-1 0 34.503420358200721 0 0 -1 0 0 0 -1 forward_v I I I I #
coedge $-1 $244 $245 $246 $247 reversed $86 $-1 #
coedge $-1 $248 $88 $90 $163 forward $53 $-1 #
coedge $-1 $88 $248 $244 $249 forward $53 $-1 #
coedge $-1 $246 $91 $88 $160 forward $154 $-1 #
edge $-1 $166 0.38084254024102293 $250 22.417351521147186 $159 $251 forward 7 unknown #
coedge $-1 $252 $253 $89 $162 forward $242 $-1 #
edge $-1 $254 -34.246990482452624 $165 -22.93743196931441 $161 $255 forward 7 unknown #
edge $-1 $166 -69.006840716401413 $254 -49.765870165066595 $90 $256 forward 7 unknown #
coedge $-1 $91 $246 $252 $257 reversed $154 $-1 #
vertex $-1 $257 $258 #
vertex $-1 $92 $259 #
straight-curve $-1 -11.779939570935127 34.503420358200721 71.940312060306852 0 0 -1 I I #
coedge $-1 $168 $168 $-1 $260 reversed $95 $-1 #
edge $-1 $261 0 $261 6.2831853071796004 $96 $262 forward 7 unknown #
vertex $-1 $99 $263 #
ellipse-curve $-1 -22.798194061388209 28.848641101631618 7.9683749464605871 0 0.80901700255871778 0.5877852410284794 2 0 0 1 I I #
face $-1 $-1 $115 $15 $-1 $264 reversed single #
loop $-1 $-1 $188 $100 #
plane-surface $-1 0 34.503420358200721 0 0 -1 0 0 0 -1 forward_v I I I I #
coedge $-1 $265 $186 $189 $266 forward $101 $-1 #
coedge $-1 $192 $103 $104 $180 reversed $62 $-1 #
coedge $-1 $186 $265 $103 $178 reversed $101 $-1 #
edge $-1 $193 -15.751511107341319 $267 15.751511107341319 $177 $268 forward 7 unknown #
coedge $-1 $105 $104 $265 $269 forward $41 $-1 #
edge $-1 $184 -74.744712668233291 $267 74.744712668233291 $176 $270 forward 7 unknown #
coedge $-1 $189 $188 $105 $182 reversed $173 $-1 #
edge $-1 $271 -74.744712668233291 $183 74.744712668233291 $181 $272 forward 7 unknown #
vertex $-1 $107 $273 #
vertex $-1 $195 $274 #
straight-curve $-1 74.744712668233291 0 -15.751511107341319 0 -1 0 I I #
coedge $-1 $175 $177 $108 $187 reversed $101 $-1 #
edge $-1 $190 -34.503420358200721 $193 34.503420358200721 $186 $275 forward 7 unknown #
coedge $-1 $181 $109 $114 $196 forward $173 $-1 #
coedge $-1 $109 $181 $175 $266 reversed $173 $-1 #
vertex $-1 $110 $276 #
straight-curve $-1 0 34.503420358200721 15.751511107341319 -1 0 0 I I #
coedge $-1 $111 $176 $113 $195 reversed $62 $-1 #
vertex $-1 $187 $277 #
straight-curve $-1 0 -34.503420358200721 15.751511107341319 1 0 0 I I #
edge $-1 $116 -15.751511107341319 $184 15.751511107341319 $113 $278 forward 7 unknown #
edge $-1 $117 -15.751511107341319 $183 15.751511107341319 $114 $279 forward 7 unknown #
point $-1 74.744712668233291 -34.503420358200721 15.751511107341319 #
point $-1 74.744712668233291 34.503420358200721 15.751511107341319 #
face $-1 $-1 $208 $16 $-1 $280 reversed single #
loop $-1 $-1 $205 $119 #
plane-surface $-1 0 0 15.751511107341319 0 0 1 1 0 0 forward_v I I I I #
coedge $-1 $281 $282 $126 $211 forward $120 $-1 #
coedge $-1 $122 $215 $283 $284 reversed $70 $-1 #
edge $-1 $285 -8.6855400330514954 $132 -5.446402115528155 $122 $286 forward 7 unknown #
coedge $-1 $283 $287 $123 $206 forward $200 $-1 #
edge $-1 $209 -34.503420358200721 $285 34.503420358200721 $205 $288 forward 7 unknown #
coedge $-1 $212 $124 $287 $289 reversed $208 $-1 #
loop $-1 $-1 $124 $199 #
vertex $-1 $125 $290 #
straight-curve $-1 -60.869528755459584 -34.503420358200721 7.0659710742898252 0 0 1 I I #
edge $-1 $216 -34.503420358200721 $213 34.503420358200721 $202 $291 forward 7 unknown #
coedge $-1 $127 $207 $281 $292 forward $208 $-1 #
vertex $-1 $211 $293 #
straight-curve $-1 -33.903560355923219 -34.503420358200721 12.51237318981798 1 0 0 I I #
coedge $-1 $203 $129 $282 $294 reversed $70 $-1 #
vertex $-1 $211 $295 #
straight-curve $-1 -33.903560355923219 34.503420358200721 12.51237318981798 -1 0 0 I I #
point $-1 -60.869528755459584 34.503420358200721 12.51237318981798 #
point $-1 -60.869528755459584 -34.503420358200721 12.51237318981798 #
face $-1 $-1 $149 $17 $-1 $296 reversed single #
loop $-1 $-1 $144 $135 #
plane-surface $-1 0 34.503420358200721 0 0 -1 0 0 0 -1 forward_v I I I I #
coedge $-1 $297 $298 $139 $227 forward $136 $-1 #
coedge $-1 $299 $138 $226 $300 forward $78 $-1 #
coedge $-1 $138 $299 $147 $238 reversed $78 $-1 #
coedge $-1 $140 $139 $224 $300 reversed $49 $-1 #
edge $-1 $301 -34.503420358200721 $230 34.503420358200721 $223 $302 forward 7 unknown #
edge $-1 $231 -34.503420358200721 $235 34.503420358200721 $140 $303 forward 7 unknown #
coedge $-1 $141 $233 $297 $304 reversed $221 $-1 #
vertex $-1 $304 $305 #
vertex $-1 $145 $306 #
straight-curve $-1 62.685901469442825 34.503420358200721 -5.697766755502176 0 0 1 I I #
coedge $-1 $229 $144 $148 $239 forward $221 $-1 #
straight-curve $-1 34.357653534419029 34.503420358200721 -7.0395559146673863 1 0 0 I I #
vertex $-1 $146 $307 #
straight-curve $-1 34.357653534419029 -34.503420358200721 -7.0395559146673863 -1 0 0 I I #
coedge $-1 $148 $147 $308 $309 reversed $149 $-1 #
edge $-1 $151 7.0395559146673863 $310 15.751511107341319 $147 $311 forward 7 unknown #
edge $-1 $150 7.0395559146673863 $312 15.751511107341319 $148 $313 forward 7 unknown #
point $-1 74.744712668233291 34.503420358200721 -7.0395559146673863 #
point $-1 74.744712668233291 -34.503420358200721 -7.0395559146673863 #
loop $-1 $-1 $161 $153 #
plane-surface $-1 0 0 15.751511107341319 0 0 1 1 0 0 forward_v I I I I #
coedge $-1 $245 $156 $158 $249 reversed $86 $-1 #
coedge $-1 $156 $244 $314 $315 reversed $86 $-1 #
coedge $-1 $164 $159 $156 $247 forward $154 $-1 #
edge $-1 $250 -71.755073274726982 $316 -56.188800952965536 $246 $317 forward 7 unknown #
coedge $-1 $158 $157 $253 $318 reversed $53 $-1 #
edge $-1 $319 49.765870165066595 $250 69.006840716401413 $244 $320 forward 7 unknown #
vertex $-1 $160 $321 #
straight-curve $-1 -11.399097030694104 34.503420358200728 0.18523878557986251 -1 0 0 I I #
coedge $-1 $314 $161 $164 $257 forward $242 $-1 #
coedge $-1 $161 $314 $248 $318 forward $242 $-1 #
vertex $-1 $162 $322 #
straight-curve $-1 -11.779939570935127 57.440852327515131 15.751511107341315 0 1 0 I I #
straight-curve $-1 -11.779939570935127 -6.0577821449031717 56.012946218009816 0 -0.5877852410284794 0.80901700255871778 I I #
edge $-1 $165 11.779939570935127 $316 33.81644855184129 $164 $323 forward 7 unknown #
point $-1 -11.779939570935127 34.503420358200721 15.751511107341319 #
point $-1 -11.779939570935127 34.503420358200721 0.18523878557986251 #
edge $-1 $324 1 $324 0 $168 $-1 forward 7 unknown #
vertex $-1 $169 $325 #
ellipse-curve $-1 -22.798194061388209 23.290824904116498 3.9303852343577059 0 0.80901700255871778 0.5877852410284794 2 0 0 1 I I #
point $-1 -20.798194061388209 28.848641101631607 7.9683749464605791 #
plane-surface $-1 74.744712668233291 0 0 -1 0 0 0 0 1 forward_v I I I I #
coedge $-1 $177 $175 $179 $269 reversed $101 $-1 #
edge $-1 $190 -15.751511107341319 $271 15.751511107341319 $189 $326 forward 7 unknown #
vertex $-1 $269 $327 #
straight-curve $-1 -74.744712668233291 -34.503420358200721 0 0 0 -1 I I #
edge $-1 $267 -34.503420358200721 $271 34.503420358200721 $265 $328 forward 7 unknown #
straight-curve $-1 0 -34.503420358200721 -15.751511107341319 -1 0 0 I I #
vertex $-1 $182 $329 #
straight-curve $-1 0 34.503420358200721 -15.751511107341319 1 0 0 I I #
point $-1 74.744712668233291 34.503420358200721 -15.751511107341319 #
point $-1 74.744712668233291 -34.503420358200721 -15.751511107341319 #
straight-curve $-1 -74.744712668233291 0 15.751511107341319 0 -1 0 I I #
point $-1 -74.744712668233291 34.503420358200721 15.751511107341319 #
point $-1 -74.744712668233291 -34.503420358200721 15.751511107341319 #
straight-curve $-1 74.744712668233291 -34.503420358200721 0 0 0 -1 I I #
straight-curve $-1 74.744712668233291 34.503420358200721 0 0 0 -1 I I #
plane-surface $-1 0 -34.503420358200721 0 0 1 0 0 0 1 forward_v I I I I #
coedge $-1 $330 $202 $212 $292 reversed $120 $-1 #
coedge $-1 $202 $330 $215 $294 forward $120 $-1 #
coedge $-1 $331 $205 $203 $284 forward $200 $-1 #
edge $-1 $285 60.869528755459584 $332 74.744712668233291 $203 $333 forward 7 unknown #
vertex $-1 $284 $334 #
straight-curve $-1 -60.869528755459584 34.503420358200721 7.0659710742898252 0 0 -1 I I #
coedge $-1 $205 $331 $207 $289 forward $200 $-1 #
straight-curve $-1 -60.869528755459584 0 15.751511107341319 0 1 0 I I #
edge $-1 $335 -74.744712668233291 $209 -60.869528755459584 $207 $336 forward 7 unknown #
point $-1 -60.869528755459584 -34.503420358200721 15.751511107341321 #
straight-curve $-1 -74.744712668233291 0 12.51237318981798 0 -1 0 I I #
edge $-1 $335 -15.751511107341319 $213 -12.51237318981798 $281 $337 forward 7 unknown #
point $-1 -74.744712668233291 -34.503420358200721 12.51237318981798 #
edge $-1 $332 -15.751511107341319 $216 -12.51237318981798 $215 $338 forward 7 unknown #
point $-1 -74.744712668233291 34.503420358200721 12.51237318981798 #
plane-surface $-1 74.744712668233291 0 0 -1 0 0 0 0 1 forward_v I I I I #
coedge $-1 $308 $223 $229 $304 forward $136 $-1 #
coedge $-1 $223 $308 $299 $339 forward $136 $-1 #
coedge $-1 $225 $224 $298 $339 reversed $78 $-1 #
edge $-1 $235 1.3417891591652102 $301 10.053744351839143 $224 $340 forward 7 unknown #
vertex $-1 $227 $341 #
straight-curve $-1 62.685901469442825 0 -15.751511107341319 0 1 0 I I #
straight-curve $-1 62.685901469442825 0 -7.0395559146673863 0 -1 0 I I #
edge $-1 $230 62.685901469442825 $312 74.744712668233291 $229 $342 forward 7 unknown #
point $-1 62.685901469442825 34.503420358200721 -15.751511107341319 #
point $-1 62.685901469442825 34.503420358200721 -7.0395559146673863 #
point $-1 62.685901469442825 -34.503420358200721 -7.0395559146673863 #
coedge $-1 $298 $297 $237 $309 forward $136 $-1 #
edge $-1 $312 -34.503420358200721 $310 34.503420358200721 $237 $343 forward 7 unknown #
vertex $-1 $238 $344 #
straight-curve $-1 74.744712668233291 -34.503420358200721 0 0 0 -1 I I #
vertex $-1 $309 $345 #
straight-curve $-1 74.744712668233291 34.503420358200721 0 0 0 -1 I I #
coedge $-1 $253 $252 $245 $315 forward $242 $-1 #
edge $-1 $316 22.93743196931441 $319 34.246990482452624 $314 $346 forward 7 unknown #
vertex $-1 $315 $347 #
straight-curve $-1 -33.81644855184129 34.503420358200721 71.940312060306852 0 0 1 I I #
edge $-1 $319 -22.417351521147186 $254 -0.38084254024102293 $253 $348 forward 7 unknown #
vertex $-1 $318 $349 #
straight-curve $-1 -33.81644855184129 -6.0577821449031717 56.012946218009816 0 0.5877852410284794 -0.80901700255871778 I I #
point $-1 -33.81644855184129 34.503420358200721 0.18523878557986251 #
point $-1 -11.779939570935127 23.193861845062507 15.751511107341315 #
straight-curve $-1 0 34.503420358200721 15.751511107341319 -1 0 0 I I #
vertex $-1 $260 $350 #
point $-1 -20.798194061388209 23.290824904116498 3.9303852343577059 #
straight-curve $-1 -74.744712668233291 34.503420358200721 0 0 0 -1 I I #
point $-1 -74.744712668233291 -34.503420358200721 -15.751511107341319 #
straight-curve $-1 -74.744712668233291 0 -15.751511107341319 0 1 0 I I #
point $-1 -74.744712668233291 34.503420358200721 -15.751511107341319 #
coedge $-1 $282 $281 $331 $351 reversed $120 $-1 #
coedge $-1 $287 $283 $330 $351 forward $200 $-1 #
vertex $-1 $284 $352 #
straight-curve $-1 0 34.503420358200721 15.751511107341319 -1 0 0 I I #
point $-1 -60.869528755459584 34.503420358200721 15.751511107341321 #
vertex $-1 $351 $353 #
straight-curve $-1 0 -34.503420358200721 15.751511107341319 1 0 0 I I #
straight-curve $-1 -74.744712668233291 -34.503420358200721 0 0 0 -1 I I #
straight-curve $-1 -74.744712668233291 34.503420358200721 0 0 0 -1 I I #
edge $-1 $310 -74.744712668233291 $301 -62.685901469442825 $299 $354 forward 7 unknown #
straight-curve $-1 62.685901469442825 -34.503420358200721 -5.697766755502176 0 0 -1 I I #
point $-1 62.685901469442825 -34.503420358200721 -15.751511107341319 #
straight-curve $-1 0 34.503420358200721 -15.751511107341319 1 0 0 I I #
straight-curve $-1 74.744712668233291 0 -15.751511107341319 0 -1 0 I I #
point $-1 74.744712668233291 -34.503420358200721 -15.751511107341319 #
point $-1 74.744712668233291 34.503420358200721 -15.751511107341319 #
straight-curve $-1 -33.81644855184129 57.440852327515131 15.751511107341315 0 -1 0 I I #
point $-1 -33.81644855184129 34.503420358200721 15.751511107341319 #
straight-curve $-1 -11.399097030694104 23.193861845062507 15.751511107341319 1 0 0 I I #
point $-1 -33.81644855184129 23.193861845062507 15.751511107341315 #
point $-1 -22.798194061388209 21.672790898999061 2.7548147523007476 #
edge $-1 $332 -34.503420358200721 $335 34.503420358200721 $330 $355 forward 7 unknown #
point $-1 -74.744712668233291 34.503420358200721 15.751511107341319 #
point $-1 -74.744712668233291 -34.503420358200721 15.751511107341319 #
straight-curve $-1 0 -34.503420358200721 -15.751511107341319 -1 0 0 I I #
straight-curve $-1 -74.744712668233291 0 15.751511107341319 0 -1 0 I I #
End-of-ACIS-data 