500 0 11 0           
7 Unknown 11 ACIS 5.0 NT 24 Thu Mar 25 19:11:25 1999 
-1 9.9999999999999995e-007 1e-010 
body $-1 $11 $-1 $12 #
body $-1 $13 $-1 $14 #
body $-1 $15 $-1 $16 #
body $-1 $17 $-1 $18 #
body $-1 $19 $-1 $20 #
body $-1 $21 $-1 $22 #
body $-1 $23 $-1 $24 #
body $-1 $25 $-1 $26 #
body $-1 $27 $-1 $28 #
body $-1 $29 $-1 $30 #
body $-1 $31 $-1 $32 #
lump $-1 $-1 $33 $0 #
transform $-1 1 0 0 0 1 0 0 0 1 71.31443220313119 44.590944587768568 19.985158666556341 1 rotate no_reflect no_shear #
lump $-1 $-1 $34 $1 #
transform $-1 1 0 0 0 0.85716729658548041 -0.51503808176128008 0 0.51503808176128008 0.85716729658548041 132.3007099209583 86.197387054147157 199.01089615137664 1 rotate no_reflect no_shear #
lump $-1 $-1 $35 $2 #
transform $-1 1 0 0 0 -0.85716729658548041 0.51503808176128008 0 -0.51503808176128008 -0.85716729658548041 132.3007099209583 78.910518053290573 30.971325221471396 1 rotate no_reflect no_shear #
lump $-1 $-1 $36 $3 #
transform $-1 1 0 0 0 0.68199835119979291 0.73135370988377701 0 -0.73135370988377701 0.68199835119979291 38.998472716795774 -104.3121491200302 120.58880147458109 1 rotate no_reflect no_shear #
lump $-1 $-1 $37 $4 #
transform $-1 1 0 0 0 -0.68199835119979291 -0.73135370988377701 0 0.73135370988377701 -0.68199835119979291 34.598750727592005 9.9088045580176729 29.644225812334533 1 rotate no_reflect no_shear #
lump $-1 $-1 $38 $5 #
transform $-1 1 0 0 0 -0.68199835119979291 -0.73135370988377701 0 0.73135370988377701 -0.68199835119979291 38.998472716795774 9.9088045580176729 29.644225812334533 1 rotate no_reflect no_shear #
lump $-1 $-1 $39 $6 #
transform $-1 1 0 0 0 -0.68199835119979291 -0.73135370988377701 0 0.73135370988377701 -0.68199835119979291 43.398194705999543 9.9088045580176729 29.644225812334533 1 rotate no_reflect no_shear #
lump $-1 $-1 $40 $7 #
transform $-1 1 0 0 0 0.68199835119979291 0.73135370988377701 0 -0.73135370988377701 0.68199835119979291 103.63039168946661 -104.3121491200302 120.58880147458109 1 rotate no_reflect no_shear #
lump $-1 $-1 $41 $8 #
transform $-1 1 0 0 0 -0.68199835119979291 -0.73135370988377701 0 0.73135370988377701 -0.68199835119979291 99.230669700262837 9.9088045580176729 29.644225812334533 1 rotate no_reflect no_shear #
lump $-1 $-1 $42 $9 #
transform $-1 1 0 0 0 -0.68199835119979291 -0.73135370988377701 0 0.73135370988377701 -0.68199835119979291 103.63039168946661 9.9088045580176729 29.644225812334533 1 rotate no_reflect no_shear #
lump $-1 $-1 $43 $10 #
transform $-1 1 0 0 0 -0.68199835119979291 -0.73135370988377701 0 0.73135370988377701 -0.68199835119979291 108.03011367867038 9.9088045580176729 29.644225812334533 1 rotate no_reflect no_shear #
shell $-1 $-1 $-1 $44 $-1 $11 #
shell $-1 $-1 $-1 $45 $-1 $13 #
shell $-1 $-1 $-1 $46 $-1 $15 #
shell $-1 $-1 $-1 $47 $-1 $17 #
shell $-1 $-1 $-1 $48 $-1 $19 #
shell $-1 $-1 $-1 $49 $-1 $21 #
shell $-1 $-1 $-1 $50 $-1 $23 #
shell $-1 $-1 $-1 $51 $-1 $25 #
shell $-1 $-1 $-1 $52 $-1 $27 #
shell $-1 $-1 $-1 $53 $-1 $29 #
shell $-1 $-1 $-1 $54 $-1 $31 #
face $-1 $55 $56 $33 $-1 $57 forward single #
face $-1 $58 $59 $34 $-1 $60 forward single #
face $-1 $61 $62 $35 $-1 $63 forward single #
face $-1 $64 $65 $36 $-1 $66 forward single #
face $-1 $67 $68 $37 $-1 $69 forward single #
face $-1 $70 $71 $38 $-1 $72 forward single #
face $-1 $73 $74 $39 $-1 $75 forward single #
face $-1 $76 $77 $40 $-1 $78 forward single #
face $-1 $79 $80 $41 $-1 $81 forward single #
face $-1 $82 $83 $42 $-1 $84 forward single #
face $-1 $85 $86 $43 $-1 $87 forward single #
face $-1 $88 $89 $33 $-1 $90 reversed single #
loop $-1 $-1 $91 $44 #
plane-surface $-1 0 0 19.985158666556341 0 0 1 1 0 0 forward_v I I I I #
face $-1 $92 $93 $34 $-1 $94 reversed single #
loop $-1 $-1 $95 $45 #
plane-surface $-1 0 0 142.62886440626238 0 0 1 1 0 0 forward_v I I I I #
face $-1 $96 $97 $35 $-1 $98 forward single #
loop $-1 $99 $100 $46 #
cone-surface $-1 0 0 -3.0810876796777258 0 0 1 2 0 0 1 I I 0 1 2 forward I I I I #
face $-1 $101 $102 $36 $-1 $103 reversed single #
loop $-1 $-1 $104 $47 #
plane-surface $-1 0 0 142.62886440626238 0 0 1 1 0 0 forward_v I I I I #
face $-1 $105 $106 $37 $-1 $107 forward single #
loop $-1 $108 $109 $48 #
cone-surface $-1 0 0 -1.7155522324289691 0 0 1 1 0 0 1 I I 0 1 1 forward I I I I #
face $-1 $110 $111 $38 $-1 $112 forward single #
loop $-1 $113 $114 $49 #
cone-surface $-1 0 0 -1.7155522324289691 0 0 1 1 0 0 1 I I 0 1 1 forward I I I I #
face $-1 $115 $116 $39 $-1 $117 forward single #
loop $-1 $118 $119 $50 #
cone-surface $-1 0 0 -1.7155522324289691 0 0 1 1 0 0 1 I I 0 1 1 forward I I I I #
face $-1 $120 $121 $40 $-1 $122 reversed single #
loop $-1 $-1 $123 $51 #
plane-surface $-1 0 0 142.62886440626238 0 0 1 1 0 0 forward_v I I I I #
face $-1 $124 $125 $41 $-1 $126 forward single #
loop $-1 $127 $128 $52 #
cone-surface $-1 0 0 -1.7155522324289691 0 0 1 1 0 0 1 I I 0 1 1 forward I I I I #
face $-1 $129 $130 $42 $-1 $131 forward single #
loop $-1 $132 $133 $53 #
cone-surface $-1 0 0 -1.7155522324289691 0 0 1 1 0 0 1 I I 0 1 1 forward I I I I #
face $-1 $134 $135 $43 $-1 $136 forward single #
loop $-1 $137 $138 $54 #
cone-surface $-1 0 0 -1.7155522324289691 0 0 1 1 0 0 1 I I 0 1 1 forward I I I I #
face $-1 $139 $140 $33 $-1 $141 reversed single #
loop $-1 $-1 $142 $55 #
plane-surface $-1 0 0 -19.985158666556341 0 0 1 1 0 0 forward_v I I I I #
coedge $-1 $143 $144 $145 $146 forward $56 $-1 #
face $-1 $147 $148 $34 $-1 $149 reversed single #
loop $-1 $-1 $150 $58 #
plane-surface $-1 0 0 -142.62886440626238 0 0 1 1 0 0 forward_v I I I I #
coedge $-1 $151 $152 $153 $154 forward $59 $-1 #
face $-1 $-1 $155 $35 $-1 $156 forward single #
loop $-1 $-1 $157 $61 #
plane-surface $-1 0 0 -5.1621753593554516 0 0 -1 -1 0 0 forward_v I I I I #
loop $-1 $-1 $158 $46 #
coedge $-1 $100 $100 $157 $159 reversed $62 $-1 #
face $-1 $160 $161 $36 $-1 $162 reversed single #
loop $-1 $-1 $163 $64 #
plane-surface $-1 0 0 -142.62886440626238 0 0 1 1 0 0 forward_v I I I I #
coedge $-1 $164 $165 $166 $167 forward $65 $-1 #
face $-1 $-1 $168 $37 $-1 $169 forward single #
loop $-1 $-1 $170 $67 #
plane-surface $-1 0 0 -2.9311044648579383 0 0 -1 -1 0 0 forward_v I I I I #
loop $-1 $-1 $171 $48 #
coedge $-1 $109 $109 $170 $172 reversed $68 $-1 #
face $-1 $-1 $173 $38 $-1 $174 forward single #
loop $-1 $-1 $175 $70 #
plane-surface $-1 0 0 -2.9311044648579383 0 0 -1 -1 0 0 forward_v I I I I #
loop $-1 $-1 $176 $49 #
coedge $-1 $114 $114 $175 $177 reversed $71 $-1 #
face $-1 $-1 $178 $39 $-1 $179 forward single #
loop $-1 $-1 $180 $73 #
plane-surface $-1 0 0 -2.9311044648579383 0 0 -1 -1 0 0 forward_v I I I I #
loop $-1 $-1 $181 $50 #
coedge $-1 $119 $119 $180 $182 reversed $74 $-1 #
face $-1 $183 $184 $40 $-1 $185 reversed single #
loop $-1 $-1 $186 $76 #
plane-surface $-1 0 0 -142.62886440626238 0 0 1 1 0 0 forward_v I I I I #
coedge $-1 $187 $188 $189 $190 forward $77 $-1 #
face $-1 $-1 $191 $41 $-1 $192 forward single #
loop $-1 $-1 $193 $79 #
plane-surface $-1 0 0 -2.9311044648579383 0 0 -1 -1 0 0 forward_v I I I I #
loop $-1 $-1 $194 $52 #
coedge $-1 $128 $128 $193 $195 reversed $80 $-1 #
face $-1 $-1 $196 $42 $-1 $197 forward single #
loop $-1 $-1 $198 $82 #
plane-surface $-1 0 0 -2.9311044648579383 0 0 -1 -1 0 0 forward_v I I I I #
loop $-1 $-1 $199 $53 #
coedge $-1 $133 $133 $198 $200 reversed $83 $-1 #
face $-1 $-1 $201 $43 $-1 $202 forward single #
loop $-1 $-1 $203 $85 #
plane-surface $-1 0 0 -2.9311044648579383 0 0 -1 -1 0 0 forward_v I I I I #
loop $-1 $-1 $204 $54 #
coedge $-1 $138 $138 $203 $205 reversed $86 $-1 #
face $-1 $206 $207 $33 $-1 $208 reversed single #
loop $-1 $-1 $209 $88 #
plane-surface $-1 0 -44.590944587768568 0 0 1 0 0 0 1 forward_v I I I I #
coedge $-1 $210 $211 $212 $213 forward $89 $-1 #
coedge $-1 $214 $91 $215 $216 forward $56 $-1 #
coedge $-1 $91 $214 $217 $218 forward $56 $-1 #
coedge $-1 $219 $220 $91 $146 reversed $221 $-1 #
edge $-1 $222 -44.590944587768568 $223 44.590944587768568 $145 $224 forward 7 unknown #
face $-1 $225 $226 $34 $-1 $227 reversed single #
loop $-1 $-1 $228 $92 #
plane-surface $-1 0 -285.25772881252476 0 0 1 0 0 0 1 forward_v I I I I #
coedge $-1 $229 $230 $231 $232 forward $93 $-1 #
coedge $-1 $233 $95 $234 $235 forward $59 $-1 #
coedge $-1 $95 $233 $236 $237 forward $59 $-1 #
coedge $-1 $238 $239 $95 $154 reversed $240 $-1 #
edge $-1 $241 -285.25772881252476 $242 285.25772881252476 $153 $243 forward 7 unknown #
loop $-1 $244 $245 $96 #
cone-surface $-1 0 0 0 0 0 1 1 0 0 1 I I -0.70710678118654746 0.70710678118654746 1 forward I I I I #
coedge $-1 $157 $157 $100 $159 forward $97 $-1 #
coedge $-1 $158 $158 $245 $246 forward $99 $-1 #
edge $-1 $247 0 $247 6.2831853071796004 $157 $248 forward 7 unknown #
face $-1 $249 $250 $36 $-1 $251 reversed single #
loop $-1 $-1 $252 $101 #
plane-surface $-1 0 -285.25772881252476 0 0 1 0 0 0 1 forward_v I I I I #
coedge $-1 $253 $254 $255 $256 forward $102 $-1 #
coedge $-1 $257 $104 $258 $259 forward $65 $-1 #
coedge $-1 $104 $257 $260 $261 forward $65 $-1 #
coedge $-1 $262 $263 $104 $167 reversed $264 $-1 #
edge $-1 $265 -285.25772881252476 $266 285.25772881252476 $166 $267 forward 7 unknown #
loop $-1 $268 $269 $105 #
cone-surface $-1 0 0 0 0 0 1 0.5 0 0 1 I I -0.70710678118654746 0.70710678118654746 0.5 forward I I I I #
coedge $-1 $170 $170 $109 $172 forward $106 $-1 #
coedge $-1 $171 $171 $269 $270 forward $108 $-1 #
edge $-1 $271 0 $271 6.2831853071796004 $170 $272 forward 7 unknown #
loop $-1 $273 $274 $110 #
cone-surface $-1 0 0 0 0 0 1 0.5 0 0 1 I I -0.70710678118654746 0.70710678118654746 0.5 forward I I I I #
coedge $-1 $175 $175 $114 $177 forward $111 $-1 #
coedge $-1 $176 $176 $274 $275 forward $113 $-1 #
edge $-1 $276 0 $276 6.2831853071796004 $175 $277 forward 7 unknown #
loop $-1 $278 $279 $115 #
cone-surface $-1 0 0 0 0 0 1 0.5 0 0 1 I I -0.70710678118654746 0.70710678118654746 0.5 forward I I I I #
coedge $-1 $180 $180 $119 $182 forward $116 $-1 #
coedge $-1 $181 $181 $279 $280 forward $118 $-1 #
edge $-1 $281 0 $281 6.2831853071796004 $180 $282 forward 7 unknown #
face $-1 $283 $284 $40 $-1 $285 reversed single #
loop $-1 $-1 $286 $120 #
plane-surface $-1 0 -285.25772881252476 0 0 1 0 0 0 1 forward_v I I I I #
coedge $-1 $287 $288 $289 $290 forward $121 $-1 #
coedge $-1 $291 $123 $292 $293 forward $77 $-1 #
coedge $-1 $123 $291 $294 $295 forward $77 $-1 #
coedge $-1 $296 $297 $123 $190 reversed $298 $-1 #
edge $-1 $299 -285.25772881252476 $300 285.25772881252476 $189 $301 forward 7 unknown #
loop $-1 $302 $303 $124 #
cone-surface $-1 0 0 0 0 0 1 0.5 0 0 1 I I -0.70710678118654746 0.70710678118654746 0.5 forward I I I I #
coedge $-1 $193 $193 $128 $195 forward $125 $-1 #
coedge $-1 $194 $194 $303 $304 forward $127 $-1 #
edge $-1 $305 0 $305 6.2831853071796004 $193 $306 forward 7 unknown #
loop $-1 $307 $308 $129 #
cone-surface $-1 0 0 0 0 0 1 0.5 0 0 1 I I -0.70710678118654746 0.70710678118654746 0.5 forward I I I I #
coedge $-1 $198 $198 $133 $200 forward $130 $-1 #
coedge $-1 $199 $199 $308 $309 forward $132 $-1 #
edge $-1 $310 0 $310 6.2831853071796004 $198 $311 forward 7 unknown #
loop $-1 $312 $313 $134 #
cone-surface $-1 0 0 0 0 0 1 0.5 0 0 1 I I -0.70710678118654746 0.70710678118654746 0.5 forward I I I I #
coedge $-1 $203 $203 $138 $205 forward $135 $-1 #
coedge $-1 $204 $204 $313 $314 forward $137 $-1 #
edge $-1 $315 0 $315 6.2831853071796004 $203 $316 forward 7 unknown #
face $-1 $317 $318 $33 $-1 $319 reversed single #
loop $-1 $-1 $320 $139 #
plane-surface $-1 -71.31443220313119 0 0 1 0 0 0 0 -1 forward_v I I I I #
coedge $-1 $321 $217 $322 $323 forward $140 $-1 #
coedge $-1 $324 $142 $321 $325 forward $89 $-1 #
coedge $-1 $142 $324 $326 $327 forward $89 $-1 #
coedge $-1 $220 $219 $142 $213 reversed $221 $-1 #
edge $-1 $328 -44.590944587768568 $329 44.590944587768568 $212 $330 forward 7 unknown #
coedge $-1 $144 $143 $331 $332 forward $56 $-1 #
coedge $-1 $333 $334 $143 $216 reversed $318 $-1 #
edge $-1 $223 -71.31443220313119 $335 71.31443220313119 $215 $336 forward 7 unknown #
coedge $-1 $209 $337 $144 $218 reversed $140 $-1 #
edge $-1 $338 -71.31443220313119 $222 71.31443220313119 $217 $339 forward 7 unknown #
coedge $-1 $212 $145 $337 $340 forward $221 $-1 #
coedge $-1 $145 $212 $333 $341 reversed $221 $-1 #
loop $-1 $-1 $219 $317 #
vertex $-1 $146 $342 #
vertex $-1 $146 $343 #
straight-curve $-1 71.31443220313119 0 19.985158666556341 0 1 0 I I #
face $-1 $344 $345 $34 $-1 $346 reversed single #
loop $-1 $-1 $347 $147 #
plane-surface $-1 -10.32815448530409 0 0 1 0 0 0 0 -1 forward_v I I I I #
coedge $-1 $348 $236 $349 $350 forward $148 $-1 #
coedge $-1 $351 $150 $348 $352 forward $93 $-1 #
coedge $-1 $150 $351 $353 $354 forward $93 $-1 #
coedge $-1 $239 $238 $150 $232 reversed $240 $-1 #
edge $-1 $355 -285.25772881252476 $356 285.25772881252476 $231 $357 forward 7 unknown #
coedge $-1 $152 $151 $358 $359 forward $59 $-1 #
coedge $-1 $360 $361 $151 $235 reversed $345 $-1 #
edge $-1 $242 -10.32815448530409 $362 10.32815448530409 $234 $363 forward 7 unknown #
coedge $-1 $228 $364 $152 $237 reversed $148 $-1 #
edge $-1 $365 -10.32815448530409 $241 10.32815448530409 $236 $366 forward 7 unknown #
coedge $-1 $231 $153 $364 $367 forward $240 $-1 #
coedge $-1 $153 $231 $360 $368 reversed $240 $-1 #
loop $-1 $-1 $238 $344 #
vertex $-1 $154 $369 #
vertex $-1 $154 $370 #
straight-curve $-1 10.32815448530409 0 142.62886440626238 0 1 0 I I #
loop $-1 $-1 $371 $96 #
coedge $-1 $245 $245 $158 $246 reversed $155 $-1 #
edge $-1 $372 0 $372 6.2831853071796004 $245 $373 forward 7 unknown #
vertex $-1 $159 $374 #
ellipse-curve $-1 0 0 -5.1621753593554516 0 0 -1 2 0 0 1 I I #
face $-1 $375 $376 $36 $-1 $377 reversed single #
loop $-1 $-1 $378 $160 #
plane-surface $-1 -7.3328699820062813 0 0 1 0 0 0 0 -1 forward_v I I I I #
coedge $-1 $379 $260 $380 $381 forward $161 $-1 #
coedge $-1 $382 $163 $379 $383 forward $102 $-1 #
coedge $-1 $163 $382 $384 $385 forward $102 $-1 #
coedge $-1 $263 $262 $163 $256 reversed $264 $-1 #
edge $-1 $386 -285.25772881252476 $387 285.25772881252476 $255 $388 forward 7 unknown #
coedge $-1 $165 $164 $389 $390 forward $65 $-1 #
coedge $-1 $391 $392 $164 $259 reversed $376 $-1 #
edge $-1 $266 -7.3328699820062813 $393 7.3328699820062813 $258 $394 forward 7 unknown #
coedge $-1 $252 $395 $165 $261 reversed $161 $-1 #
edge $-1 $396 -7.3328699820062813 $265 7.3328699820062813 $260 $397 forward 7 unknown #
coedge $-1 $255 $166 $395 $398 forward $264 $-1 #
coedge $-1 $166 $255 $391 $399 reversed $264 $-1 #
loop $-1 $-1 $262 $375 #
vertex $-1 $167 $400 #
vertex $-1 $167 $401 #
straight-curve $-1 7.3328699820062813 0 142.62886440626238 0 1 0 I I #
loop $-1 $-1 $402 $105 #
coedge $-1 $269 $269 $171 $270 reversed $168 $-1 #
edge $-1 $403 0 $403 6.2831853071796004 $269 $404 forward 7 unknown #
vertex $-1 $172 $405 #
ellipse-curve $-1 0 0 -2.9311044648579383 0 0 -1 1 0 0 1 I I #
loop $-1 $-1 $406 $110 #
coedge $-1 $274 $274 $176 $275 reversed $173 $-1 #
edge $-1 $407 0 $407 6.2831853071796004 $274 $408 forward 7 unknown #
vertex $-1 $177 $409 #
ellipse-curve $-1 0 0 -2.9311044648579383 0 0 -1 1 0 0 1 I I #
loop $-1 $-1 $410 $115 #
coedge $-1 $279 $279 $181 $280 reversed $178 $-1 #
edge $-1 $411 0 $411 6.2831853071796004 $279 $412 forward 7 unknown #
vertex $-1 $182 $413 #
ellipse-curve $-1 0 0 -2.9311044648579383 0 0 -1 1 0 0 1 I I #
face $-1 $414 $415 $40 $-1 $416 reversed single #
loop $-1 $-1 $417 $183 #
plane-surface $-1 -7.3328699820062813 0 0 1 0 0 0 0 -1 forward_v I I I I #
coedge $-1 $418 $294 $419 $420 forward $184 $-1 #
coedge $-1 $421 $186 $418 $422 forward $121 $-1 #
coedge $-1 $186 $421 $423 $424 forward $121 $-1 #
coedge $-1 $297 $296 $186 $290 reversed $298 $-1 #
edge $-1 $425 -285.25772881252476 $426 285.25772881252476 $289 $427 forward 7 unknown #
coedge $-1 $188 $187 $428 $429 forward $77 $-1 #
coedge $-1 $430 $431 $187 $293 reversed $415 $-1 #
edge $-1 $300 -7.3328699820062813 $432 7.3328699820062813 $292 $433 forward 7 unknown #
coedge $-1 $286 $434 $188 $295 reversed $184 $-1 #
edge $-1 $435 -7.3328699820062813 $299 7.3328699820062813 $294 $436 forward 7 unknown #
coedge $-1 $289 $189 $434 $437 forward $298 $-1 #
coedge $-1 $189 $289 $430 $438 reversed $298 $-1 #
loop $-1 $-1 $296 $414 #
vertex $-1 $190 $439 #
vertex $-1 $190 $440 #
straight-curve $-1 7.3328699820062813 0 142.62886440626238 0 1 0 I I #
loop $-1 $-1 $441 $124 #
coedge $-1 $303 $303 $194 $304 reversed $191 $-1 #
edge $-1 $442 0 $442 6.2831853071796004 $303 $443 forward 7 unknown #
vertex $-1 $195 $444 #
ellipse-curve $-1 0 0 -2.9311044648579383 0 0 -1 1 0 0 1 I I #
loop $-1 $-1 $445 $129 #
coedge $-1 $308 $308 $199 $309 reversed $196 $-1 #
edge $-1 $446 0 $446 6.2831853071796004 $308 $447 forward 7 unknown #
vertex $-1 $200 $448 #
ellipse-curve $-1 0 0 -2.9311044648579383 0 0 -1 1 0 0 1 I I #
loop $-1 $-1 $449 $134 #
coedge $-1 $313 $313 $204 $314 reversed $201 $-1 #
edge $-1 $450 0 $450 6.2831853071796004 $313 $451 forward 7 unknown #
vertex $-1 $205 $452 #
ellipse-curve $-1 0 0 -2.9311044648579383 0 0 -1 1 0 0 1 I I #
face $-1 $-1 $221 $33 $-1 $453 reversed single #
loop $-1 $-1 $333 $206 #
plane-surface $-1 0 44.590944587768568 0 0 -1 0 0 0 -1 forward_v I I I I #
coedge $-1 $454 $331 $334 $455 forward $207 $-1 #
coedge $-1 $337 $209 $210 $325 reversed $140 $-1 #
coedge $-1 $331 $454 $209 $323 reversed $207 $-1 #
edge $-1 $338 -19.985158666556341 $456 19.985158666556341 $322 $457 forward 7 unknown #
coedge $-1 $211 $210 $454 $458 forward $89 $-1 #
edge $-1 $329 -71.31443220313119 $456 71.31443220313119 $321 $459 forward 7 unknown #
coedge $-1 $334 $333 $211 $327 reversed $318 $-1 #
edge $-1 $460 -71.31443220313119 $328 71.31443220313119 $326 $461 forward 7 unknown #
vertex $-1 $213 $462 #
vertex $-1 $340 $463 #
straight-curve $-1 71.31443220313119 0 -19.985158666556341 0 -1 0 I I #
coedge $-1 $320 $322 $214 $332 reversed $207 $-1 #
edge $-1 $335 -44.590944587768568 $338 44.590944587768568 $331 $464 forward 7 unknown #
coedge $-1 $326 $215 $220 $341 forward $318 $-1 #
coedge $-1 $215 $326 $320 $455 reversed $318 $-1 #
vertex $-1 $216 $465 #
straight-curve $-1 0 44.590944587768568 19.985158666556341 -1 0 0 I I #
coedge $-1 $217 $321 $219 $340 reversed $140 $-1 #
vertex $-1 $332 $466 #
straight-curve $-1 0 -44.590944587768568 19.985158666556341 1 0 0 I I #
edge $-1 $222 -19.985158666556341 $329 19.985158666556341 $219 $467 forward 7 unknown #
edge $-1 $223 -19.985158666556341 $328 19.985158666556341 $220 $468 forward 7 unknown #
point $-1 71.31443220313119 -44.590944587768568 19.985158666556341 #
point $-1 71.31443220313119 44.590944587768568 19.985158666556341 #
face $-1 $-1 $240 $34 $-1 $469 reversed single #
loop $-1 $-1 $360 $225 #
plane-surface $-1 0 285.25772881252476 0 0 -1 0 0 0 -1 forward_v I I I I #
coedge $-1 $470 $358 $361 $471 forward $226 $-1 #
coedge $-1 $364 $228 $229 $352 reversed $148 $-1 #
coedge $-1 $358 $470 $228 $350 reversed $226 $-1 #
edge $-1 $365 -142.62886440626238 $472 142.62886440626238 $349 $473 forward 7 unknown #
coedge $-1 $230 $229 $470 $474 forward $93 $-1 #
edge $-1 $356 -10.32815448530409 $472 10.32815448530409 $348 $475 forward 7 unknown #
coedge $-1 $361 $360 $230 $354 reversed $345 $-1 #
edge $-1 $476 -10.32815448530409 $355 10.32815448530409 $353 $477 forward 7 unknown #
vertex $-1 $232 $478 #
vertex $-1 $367 $479 #
straight-curve $-1 10.32815448530409 0 -142.62886440626238 0 -1 0 I I #
coedge $-1 $347 $349 $233 $359 reversed $226 $-1 #
edge $-1 $362 -285.25772881252476 $365 285.25772881252476 $358 $480 forward 7 unknown #
coedge $-1 $353 $234 $239 $368 forward $345 $-1 #
coedge $-1 $234 $353 $347 $471 reversed $345 $-1 #
vertex $-1 $235 $481 #
straight-curve $-1 0 285.25772881252476 142.62886440626238 -1 0 0 I I #
coedge $-1 $236 $348 $238 $367 reversed $148 $-1 #
vertex $-1 $359 $482 #
straight-curve $-1 0 -285.25772881252476 142.62886440626238 1 0 0 I I #
edge $-1 $241 -142.62886440626238 $356 142.62886440626238 $238 $483 forward 7 unknown #
edge $-1 $242 -142.62886440626238 $355 142.62886440626238 $239 $484 forward 7 unknown #
point $-1 10.32815448530409 -285.25772881252476 142.62886440626238 #
point $-1 10.32815448530409 285.25772881252476 142.62886440626238 #
coedge $-1 $371 $371 $-1 $485 reversed $244 $-1 #
vertex $-1 $246 $486 #
ellipse-curve $-1 0 0 -1 0 0 -1 2 0 0 1 I I #
point $-1 2 0 -5.1621753593554516 #
face $-1 $-1 $264 $36 $-1 $487 reversed single #
loop $-1 $-1 $391 $249 #
plane-surface $-1 0 285.25772881252476 0 0 -1 0 0 0 -1 forward_v I I I I #
coedge $-1 $488 $389 $392 $489 forward $250 $-1 #
coedge $-1 $395 $252 $253 $383 reversed $161 $-1 #
coedge $-1 $389 $488 $252 $381 reversed $250 $-1 #
edge $-1 $396 -142.62886440626238 $490 142.62886440626238 $380 $491 forward 7 unknown #
coedge $-1 $254 $253 $488 $492 forward $102 $-1 #
edge $-1 $387 -7.3328699820062813 $490 7.3328699820062813 $379 $493 forward 7 unknown #
coedge $-1 $392 $391 $254 $385 reversed $376 $-1 #
edge $-1 $494 -7.3328699820062813 $386 7.3328699820062813 $384 $495 forward 7 unknown #
vertex $-1 $256 $496 #
vertex $-1 $398 $497 #
straight-curve $-1 7.3328699820062813 0 -142.62886440626238 0 -1 0 I I #
coedge $-1 $378 $380 $257 $390 reversed $250 $-1 #
edge $-1 $393 -285.25772881252476 $396 285.25772881252476 $389 $498 forward 7 unknown #
coedge $-1 $384 $258 $263 $399 forward $376 $-1 #
coedge $-1 $258 $384 $378 $489 reversed $376 $-1 #
vertex $-1 $259 $499 #
straight-curve $-1 0 285.25772881252476 142.62886440626238 -1 0 0 I I #
coedge $-1 $260 $379 $262 $398 reversed $161 $-1 #
vertex $-1 $390 $500 #
straight-curve $-1 0 -285.25772881252476 142.62886440626238 1 0 0 I I #
edge $-1 $265 -142.62886440626238 $387 142.62886440626238 $262 $501 forward 7 unknown #
edge $-1 $266 -142.62886440626238 $386 142.62886440626238 $263 $502 forward 7 unknown #
point $-1 7.3328699820062813 -285.25772881252476 142.62886440626238 #
point $-1 7.3328699820062813 285.25772881252476 142.62886440626238 #
coedge $-1 $402 $402 $-1 $503 reversed $268 $-1 #
vertex $-1 $270 $504 #
ellipse-curve $-1 0 0 -0.5 0 0 -1 1 0 0 1 I I #
point $-1 1 0 -2.9311044648579383 #
coedge $-1 $406 $406 $-1 $505 reversed $273 $-1 #
vertex $-1 $275 $506 #
ellipse-curve $-1 0 0 -0.5 0 0 -1 1 0 0 1 I I #
point $-1 1 0 -2.9311044648579383 #
coedge $-1 $410 $410 $-1 $507 reversed $278 $-1 #
vertex $-1 $280 $508 #
ellipse-curve $-1 0 0 -0.5 0 0 -1 1 0 0 1 I I #
point $-1 1 0 -2.9311044648579383 #
face $-1 $-1 $298 $40 $-1 $509 reversed single #
loop $-1 $-1 $430 $283 #
plane-surface $-1 0 285.25772881252476 0 0 -1 0 0 0 -1 forward_v I I I I #
coedge $-1 $510 $428 $431 $511 forward $284 $-1 #
coedge $-1 $434 $286 $287 $422 reversed $184 $-1 #
coedge $-1 $428 $510 $286 $420 reversed $284 $-1 #
edge $-1 $435 -142.62886440626238 $512 142.62886440626238 $419 $513 forward 7 unknown #
coedge $-1 $288 $287 $510 $514 forward $121 $-1 #
edge $-1 $426 -7.3328699820062813 $512 7.3328699820062813 $418 $515 forward 7 unknown #
coedge $-1 $431 $430 $288 $424 reversed $415 $-1 #
edge $-1 $516 -7.3328699820062813 $425 7.3328699820062813 $423 $517 forward 7 unknown #
vertex $-1 $290 $518 #
vertex $-1 $437 $519 #
straight-curve $-1 7.3328699820062813 0 -142.62886440626238 0 -1 0 I I #
coedge $-1 $417 $419 $291 $429 reversed $284 $-1 #
edge $-1 $432 -285.25772881252476 $435 285.25772881252476 $428 $520 forward 7 unknown #
coedge $-1 $423 $292 $297 $438 forward $415 $-1 #
coedge $-1 $292 $423 $417 $511 reversed $415 $-1 #
vertex $-1 $293 $521 #
straight-curve $-1 0 285.25772881252476 142.62886440626238 -1 0 0 I I #
coedge $-1 $294 $418 $296 $437 reversed $184 $-1 #
vertex $-1 $429 $522 #
straight-curve $-1 0 -285.25772881252476 142.62886440626238 1 0 0 I I #
edge $-1 $299 -142.62886440626238 $426 142.62886440626238 $296 $523 forward 7 unknown #
edge $-1 $300 -142.62886440626238 $425 142.62886440626238 $297 $524 forward 7 unknown #
point $-1 7.3328699820062813 -285.25772881252476 142.62886440626238 #
point $-1 7.3328699820062813 285.25772881252476 142.62886440626238 #
coedge $-1 $441 $441 $-1 $525 reversed $302 $-1 #
vertex $-1 $304 $526 #
ellipse-curve $-1 0 0 -0.5 0 0 -1 1 0 0 1 I I #
point $-1 1 0 -2.9311044648579383 #
coedge $-1 $445 $445 $-1 $527 reversed $307 $-1 #
vertex $-1 $309 $528 #
ellipse-curve $-1 0 0 -0.5 0 0 -1 1 0 0 1 I I #
point $-1 1 0 -2.9311044648579383 #
coedge $-1 $449 $449 $-1 $529 reversed $312 $-1 #
vertex $-1 $314 $530 #
ellipse-curve $-1 0 0 -0.5 0 0 -1 1 0 0 1 I I #
point $-1 1 0 -2.9311044648579383 #
plane-surface $-1 71.31443220313119 0 0 -1 0 0 0 0 1 forward_v I I I I #
coedge $-1 $322 $320 $324 $458 reversed $207 $-1 #
edge $-1 $335 -19.985158666556341 $460 19.985158666556341 $334 $531 forward 7 unknown #
vertex $-1 $458 $532 #
straight-curve $-1 -71.31443220313119 -44.590944587768568 0 0 0 -1 I I #
edge $-1 $456 -44.590944587768568 $460 44.590944587768568 $454 $533 forward 7 unknown #
straight-curve $-1 0 -44.590944587768568 -19.985158666556341 -1 0 0 I I #
vertex $-1 $327 $534 #
straight-curve $-1 0 44.590944587768568 -19.985158666556341 1 0 0 I I #
point $-1 71.31443220313119 44.590944587768568 -19.985158666556341 #
point $-1 71.31443220313119 -44.590944587768568 -19.985158666556341 #
straight-curve $-1 -71.31443220313119 0 19.985158666556341 0 -1 0 I I #
point $-1 -71.31443220313119 44.590944587768568 19.985158666556341 #
point $-1 -71.31443220313119 -44.590944587768568 19.985158666556341 #
straight-curve $-1 71.31443220313119 -44.590944587768568 0 0 0 -1 I I #
straight-curve $-1 71.31443220313119 44.590944587768568 0 0 0 -1 I I #
plane-surface $-1 10.32815448530409 0 0 -1 0 0 0 0 1 forward_v I I I I #
coedge $-1 $349 $347 $351 $474 reversed $226 $-1 #
edge $-1 $362 -142.62886440626238 $476 142.62886440626238 $361 $535 forward 7 unknown #
vertex $-1 $474 $536 #
straight-curve $-1 -10.32815448530409 -285.25772881252476 0 0 0 -1 I I #
edge $-1 $472 -285.25772881252476 $476 285.25772881252476 $470 $537 forward 7 unknown #
straight-curve $-1 0 -285.25772881252476 -142.62886440626238 -1 0 0 I I #
vertex $-1 $354 $538 #
straight-curve $-1 0 285.25772881252476 -142.62886440626238 1 0 0 I I #
point $-1 10.32815448530409 285.25772881252476 -142.62886440626238 #
point $-1 10.32815448530409 -285.25772881252476 -142.62886440626238 #
straight-curve $-1 -10.32815448530409 0 142.62886440626238 0 -1 0 I I #
point $-1 -10.32815448530409 285.25772881252476 142.62886440626238 #
point $-1 -10.32815448530409 -285.25772881252476 142.62886440626238 #
straight-curve $-1 10.32815448530409 -285.25772881252476 0 0 0 -1 I I #
straight-curve $-1 10.32815448530409 285.25772881252476 0 0 0 -1 I I #
edge $-1 $539 1 $539 0 $371 $-1 forward 7 unknown #
point $-1 2 0 -1 #
plane-surface $-1 7.3328699820062813 0 0 -1 0 0 0 0 1 forward_v I I I I #
coedge $-1 $380 $378 $382 $492 reversed $250 $-1 #
edge $-1 $393 -142.62886440626238 $494 142.62886440626238 $392 $540 forward 7 unknown #
vertex $-1 $492 $541 #
straight-curve $-1 -7.3328699820062813 -285.25772881252476 0 0 0 -1 I I #
edge $-1 $490 -285.25772881252476 $494 285.25772881252476 $488 $542 forward 7 unknown #
straight-curve $-1 0 -285.25772881252476 -142.62886440626238 -1 0 0 I I #
vertex $-1 $385 $543 #
straight-curve $-1 0 285.25772881252476 -142.62886440626238 1 0 0 I I #
point $-1 7.3328699820062813 285.25772881252476 -142.62886440626238 #
point $-1 7.3328699820062813 -285.25772881252476 -142.62886440626238 #
straight-curve $-1 -7.3328699820062813 0 142.62886440626238 0 -1 0 I I #
point $-1 -7.3328699820062813 285.25772881252476 142.62886440626238 #
point $-1 -7.3328699820062813 -285.25772881252476 142.62886440626238 #
straight-curve $-1 7.3328699820062813 -285.25772881252476 0 0 0 -1 I I #
straight-curve $-1 7.3328699820062813 285.25772881252476 0 0 0 -1 I I #
edge $-1 $544 1 $544 0 $402 $-1 forward 7 unknown #
point $-1 1 0 -0.5 #
edge $-1 $545 1 $545 0 $406 $-1 forward 7 unknown #
point $-1 1 0 -0.5 #
edge $-1 $546 1 $546 0 $410 $-1 forward 7 unknown #
point $-1 1 0 -0.5 #
plane-surface $-1 7.3328699820062813 0 0 -1 0 0 0 0 1 forward_v I I I I #
coedge $-1 $419 $417 $421 $514 reversed $284 $-1 #
edge $-1 $432 -142.62886440626238 $516 142.62886440626238 $431 $547 forward 7 unknown #
vertex $-1 $514 $548 #
straight-curve $-1 -7.3328699820062813 -285.25772881252476 0 0 0 -1 I I #
edge $-1 $512 -285.25772881252476 $516 285.25772881252476 $510 $549 forward 7 unknown #
straight-curve $-1 0 -285.25772881252476 -142.62886440626238 -1 0 0 I I #
vertex $-1 $424 $550 #
straight-curve $-1 0 285.25772881252476 -142.62886440626238 1 0 0 I I #
point $-1 7.3328699820062813 285.25772881252476 -142.62886440626238 #
point $-1 7.3328699820062813 -285.25772881252476 -142.62886440626238 #
straight-curve $-1 -7.3328699820062813 0 142.62886440626238 0 -1 0 I I #
point $-1 -7.3328699820062813 285.25772881252476 142.62886440626238 #
point $-1 -7.3328699820062813 -285.25772881252476 142.62886440626238 #
straight-curve $-1 7.3328699820062813 -285.25772881252476 0 0 0 -1 I I #
straight-curve $-1 7.3328699820062813 285.25772881252476 0 0 0 -1 I I #
edge $-1 $551 1 $551 0 $441 $-1 forward 7 unknown #
point $-1 1 0 -0.5 #
edge $-1 $552 1 $552 0 $445 $-1 forward 7 unknown #
point $-1 1 0 -0.5 #
edge $-1 $553 1 $553 0 $449 $-1 forward 7 unknown #
point $-1 1 0 -0.5 #
straight-curve $-1 -71.31443220313119 44.590944587768568 0 0 0 -1 I I #
point $-1 -71.31443220313119 -44.590944587768568 -19.985158666556341 #
straight-curve $-1 -71.31443220313119 0 -19.985158666556341 0 1 0 I I #
point $-1 -71.31443220313119 44.590944587768568 -19.985158666556341 #
straight-curve $-1 -10.32815448530409 285.25772881252476 0 0 0 -1 I I #
point $-1 -10.32815448530409 -285.25772881252476 -142.62886440626238 #
straight-curve $-1 -10.32815448530409 0 -142.62886440626238 0 1 0 I I #
point $-1 -10.32815448530409 285.25772881252476 -142.62886440626238 #
vertex $-1 $485 $554 #
straight-curve $-1 -7.3328699820062813 285.25772881252476 0 0 0 -1 I I #
point $-1 -7.3328699820062813 -285.25772881252476 -142.62886440626238 #
straight-curve $-1 -7.3328699820062813 0 -142.62886440626238 0 1 0 I I #
point $-1 -7.3328699820062813 285.25772881252476 -142.62886440626238 #
vertex $-1 $503 $555 #
vertex $-1 $505 $556 #
vertex $-1 $507 $557 #
straight-curve $-1 -7.3328699820062813 285.25772881252476 0 0 0 -1 I I #
point $-1 -7.3328699820062813 -285.25772881252476 -142.62886440626238 #
straight-curve $-1 -7.3328699820062813 0 -142.62886440626238 0 1 0 I I #
point $-1 -7.3328699820062813 285.25772881252476 -142.62886440626238 #
vertex $-1 $525 $558 #
vertex $-1 $527 $559 #
vertex $-1 $529 $560 #
point $-1 0 0 1 #
point $-1 0 0 0.5 #
point $-1 0 0 0.5 #
point $-1 0 0 0.5 #
point $-1 0 0 0.5 #
point $-1 0 0 0.5 #
point $-1 0 0 0.5 #
End-of-ACIS-data 