500 0 10 0           
7 Unknown 11 ACIS 5.0 NT 24 Fri Mar 26 20:13:00 1999 
-1 9.9999999999999995e-007 1e-010 
body $-1 $10 $-1 $11 #
body $-1 $12 $-1 $13 #
body $-1 $14 $-1 $15 #
body $-1 $16 $-1 $17 #
body $-1 $18 $-1 $19 #
body $-1 $20 $-1 $21 #
body $-1 $22 $-1 $23 #
body $-1 $24 $-1 $25 #
body $-1 $26 $-1 $27 #
body $-1 $28 $-1 $29 #
lump $-1 $-1 $30 $0 #
transform $-1 1 0 0 0 1 0 0 0 1 46.264839625232703 24.694442337638321 6.9400223137488934 1 rotate no_reflect no_shear #
lump $-1 $-1 $31 $1 #
transform $-1 1 0 0 0 1 0 0 0 1 46.264839625232703 24.694442337638321 6.9400223137488934 1 rotate no_reflect no_shear #
lump $-1 $-1 $32 $2 #
transform $-1 1 0 0 0 1 0 0 0 1 46.264839625232703 24.694442337638321 6.9400223137488934 1 rotate no_reflect no_shear #
lump $-1 $-1 $33 $3 #
transform $-1 1 0 0 0 1 0 0 0 1 46.264839625232703 24.694442337638321 6.9400223137488934 1 rotate no_reflect no_shear #
lump $-1 $-1 $34 $4 #
transform $-1 1 0 0 0 1 0 0 0 1 46.264839625232703 24.694442337638321 6.9400223137488934 1 rotate no_reflect no_shear #
lump $-1 $-1 $35 $5 #
transform $-1 1 0 0 0 1 0 0 0 1 46.264839625232703 24.694442337638321 6.9400223137488934 1 rotate no_reflect no_shear #
lump $-1 $-1 $36 $6 #
transform $-1 1 0 0 0 1 0 0 0 1 46.264839625232703 24.694442337638321 6.9400223137488934 1 rotate no_reflect no_shear #
lump $-1 $-1 $37 $7 #
transform $-1 1 0 0 0 1 0 0 0 1 46.264839625232703 24.694442337638321 6.9400223137488934 1 rotate no_reflect no_shear #
lump $-1 $-1 $38 $8 #
transform $-1 1 0 0 0 1 0 0 0 1 46.264839625232703 24.694442337638321 6.9400223137488934 1 rotate no_reflect no_shear #
lump $-1 $-1 $39 $9 #
transform $-1 1 0 0 0 1 0 0 0 1 46.264839625232703 24.694442337638321 6.9400223137488934 1 rotate no_reflect no_shear #
shell $-1 $-1 $-1 $40 $-1 $10 #
shell $-1 $-1 $-1 $41 $-1 $12 #
shell $-1 $-1 $-1 $42 $-1 $14 #
shell $-1 $-1 $-1 $43 $-1 $16 #
shell $-1 $-1 $-1 $44 $-1 $18 #
shell $-1 $-1 $-1 $45 $-1 $20 #
shell $-1 $-1 $-1 $46 $-1 $22 #
shell $-1 $-1 $-1 $47 $-1 $24 #
shell $-1 $-1 $-1 $48 $-1 $26 #
shell $-1 $-1 $-1 $49 $-1 $28 #
face $-1 $50 $51 $30 $-1 $52 forward single #
face $-1 $53 $54 $31 $-1 $55 forward single #
face $-1 $56 $57 $32 $-1 $58 reversed single #
face $-1 $59 $60 $33 $-1 $61 forward single #
face $-1 $62 $63 $34 $-1 $64 forward single #
face $-1 $65 $66 $35 $-1 $67 forward single #
face $-1 $68 $69 $36 $-1 $70 reversed single #
face $-1 $71 $72 $37 $-1 $73 forward single #
face $-1 $74 $75 $38 $-1 $76 forward single #
face $-1 $77 $78 $39 $-1 $79 forward single #
face $-1 $80 $81 $30 $-1 $82 reversed single #
loop $-1 $-1 $83 $40 #
plane-surface $-1 0 0 6.9400223137488934 0 0 1 1 0 0 forward_v I I I I #
face $-1 $84 $85 $31 $-1 $86 reversed single #
loop $-1 $-1 $87 $41 #
plane-surface $-1 0 -24.694442337638321 0 0 1 0 0 0 1 forward_v I I I I #
face $-1 $88 $89 $32 $-1 $90 reversed single #
loop $-1 $-1 $91 $42 #
plane-surface $-1 43.98107631933194 -1.1376585756936883 132.96775445716764 0 -1 0 -0.69465837861970381 0 -0.71933979245794832 forward_v I I I I #
face $-1 $92 $93 $33 $-1 $94 forward single #
loop $-1 $95 $96 $43 #
cone-surface $-1 43.303243614791022 -8.946231009393971 4.0471029014426136 -0.69465837861970381 0 -0.71933979245794832 0.35966989622897416 0 -0.3473291893098519 1 I I 0 1 0.5 forward I I I I #
face $-1 $97 $98 $34 $-1 $99 forward single #
loop $-1 $100 $101 $44 #
cone-surface $-1 43.303243614791022 -6.0180163467563652 4.0471029014426136 -0.69465837861970381 0 -0.71933979245794832 0.35966989622897416 0 -0.3473291893098519 1 I I 0 1 0.5 forward I I I I #
face $-1 $102 $103 $35 $-1 $104 forward single #
loop $-1 $105 $106 $45 #
cone-surface $-1 43.303243614791022 -3.0898016841187612 4.0471029014426136 -0.69465837861970381 0 -0.71933979245794832 0.35966989622897416 0 -0.3473291893098519 1 I I 0 1 0.5 forward I I I I #
face $-1 $107 $108 $36 $-1 $109 reversed single #
loop $-1 $-1 $110 $46 #
plane-surface $-1 43.98107631933194 19.877438810276132 132.96775445716764 0 -1 0 -0.69465837861970381 0 -0.71933979245794832 forward_v I I I I #
face $-1 $111 $112 $37 $-1 $113 forward single #
loop $-1 $114 $115 $47 #
cone-surface $-1 43.303243614791022 12.068866376575848 4.0471029014426136 -0.69465837861970381 0 -0.71933979245794832 0.35966989622897416 0 -0.3473291893098519 1 I I 0 1 0.5 forward I I I I #
face $-1 $116 $117 $38 $-1 $118 forward single #
loop $-1 $119 $120 $48 #
cone-surface $-1 43.303243614791022 14.997081039213455 4.0471029014426136 -0.69465837861970381 0 -0.71933979245794832 0.35966989622897416 0 -0.3473291893098519 1 I I 0 1 0.5 forward I I I I #
face $-1 $121 $122 $39 $-1 $123 forward single #
loop $-1 $124 $125 $49 #
cone-surface $-1 43.303243614791022 17.925295701851056 4.0471029014426136 -0.69465837861970381 0 -0.71933979245794832 0.35966989622897416 0 -0.3473291893098519 1 I I 0 1 0.5 forward I I I I #
face $-1 $126 $127 $30 $-1 $128 reversed single #
loop $-1 $-1 $129 $50 #
plane-surface $-1 0 0 -6.9400223137488934 0 0 1 1 0 0 forward_v I I I I #
coedge $-1 $130 $131 $132 $133 forward $51 $-1 #
face $-1 $134 $135 $31 $-1 $136 reversed single #
loop $-1 $-1 $137 $53 #
plane-surface $-1 0 0 -6.9400223137488934 0 0 1 1 0 0 forward_v I I I I #
coedge $-1 $138 $139 $140 $141 forward $54 $-1 #
face $-1 $142 $143 $32 $-1 $144 reversed single #
loop $-1 $-1 $145 $56 #
plane-surface $-1 -20.295440642997612 -6.0180163467563652 66.407474188937329 0.69465837861970381 0 0.71933979245794832 0.71933979245794832 0 -0.69465837861970381 forward_v I I I I #
coedge $-1 $146 $147 $148 $149 reversed $57 $-1 #
face $-1 $-1 $150 $33 $-1 $151 forward single #
loop $-1 $152 $153 $59 #
cone-surface $-1 42.657949292527285 -8.946231009393971 3.3788810845923907 -0.69465837861970381 0 -0.71933979245794832 0.17983494811448708 0 -0.17366459465492595 1 I I -0.70710678118654746 0.70710678118654746 0.25 forward I I I I #
loop $-1 $-1 $154 $43 #
coedge $-1 $96 $96 $155 $156 reversed $60 $-1 #
face $-1 $-1 $157 $34 $-1 $158 forward single #
loop $-1 $159 $160 $62 #
cone-surface $-1 42.657949292527285 -6.0180163467563652 3.3788810845923907 -0.69465837861970381 0 -0.71933979245794832 0.17983494811448708 0 -0.17366459465492595 1 I I -0.70710678118654746 0.70710678118654746 0.25 forward I I I I #
loop $-1 $-1 $161 $44 #
coedge $-1 $101 $101 $162 $163 reversed $63 $-1 #
face $-1 $-1 $164 $35 $-1 $165 forward single #
loop $-1 $166 $167 $65 #
cone-surface $-1 42.657949292527285 -3.0898016841187612 3.3788810845923907 -0.69465837861970381 0 -0.71933979245794832 0.17983494811448708 0 -0.17366459465492595 1 I I -0.70710678118654746 0.70710678118654746 0.25 forward I I I I #
loop $-1 $-1 $168 $45 #
coedge $-1 $106 $106 $169 $170 reversed $66 $-1 #
face $-1 $171 $172 $36 $-1 $173 reversed single #
loop $-1 $-1 $174 $68 #
plane-surface $-1 -20.295440642997612 14.997081039213455 66.407474188937329 0.69465837861970381 0 0.71933979245794832 0.71933979245794832 0 -0.69465837861970381 forward_v I I I I #
coedge $-1 $175 $176 $177 $178 reversed $69 $-1 #
face $-1 $-1 $179 $37 $-1 $180 forward single #
loop $-1 $181 $182 $71 #
cone-surface $-1 42.657949292527285 12.068866376575848 3.3788810845923907 -0.69465837861970381 0 -0.71933979245794832 0.17983494811448708 0 -0.17366459465492595 1 I I -0.70710678118654746 0.70710678118654746 0.25 forward I I I I #
loop $-1 $-1 $183 $47 #
coedge $-1 $115 $115 $184 $185 reversed $72 $-1 #
face $-1 $-1 $186 $38 $-1 $187 forward single #
loop $-1 $188 $189 $74 #
cone-surface $-1 42.657949292527285 14.997081039213455 3.3788810845923907 -0.69465837861970381 0 -0.71933979245794832 0.17983494811448708 0 -0.17366459465492595 1 I I -0.70710678118654746 0.70710678118654746 0.25 forward I I I I #
loop $-1 $-1 $190 $48 #
coedge $-1 $120 $120 $191 $192 reversed $75 $-1 #
face $-1 $-1 $193 $39 $-1 $194 forward single #
loop $-1 $195 $196 $77 #
cone-surface $-1 42.657949292527285 17.925295701851056 3.3788810845923907 -0.69465837861970381 0 -0.71933979245794832 0.17983494811448708 0 -0.17366459465492595 1 I I -0.70710678118654746 0.70710678118654746 0.25 forward I I I I #
loop $-1 $-1 $197 $49 #
coedge $-1 $125 $125 $198 $199 reversed $78 $-1 #
face $-1 $200 $201 $30 $-1 $202 reversed single #
loop $-1 $-1 $203 $80 #
plane-surface $-1 0 -24.694442337638321 0 0 1 0 0 0 1 forward_v I I I I #
coedge $-1 $204 $205 $206 $207 forward $81 $-1 #
coedge $-1 $208 $83 $209 $210 forward $51 $-1 #
coedge $-1 $83 $208 $211 $212 forward $51 $-1 #
coedge $-1 $213 $214 $83 $133 reversed $215 $-1 #
edge $-1 $216 -24.694442337638321 $217 24.694442337638321 $132 $218 forward 7 unknown #
face $-1 $219 $220 $31 $-1 $221 forward single #
loop $-1 $-1 $222 $84 #
plane-surface $-1 46.264839625232703 0 0 -1 0 0 0 0 1 forward_v I I I I #
coedge $-1 $223 $224 $225 $226 forward $85 $-1 #
coedge $-1 $225 $87 $222 $227 reversed $54 $-1 #
coedge $-1 $87 $225 $228 $229 reversed $54 $-1 #
coedge $-1 $230 $231 $87 $141 reversed $220 $-1 #
edge $-1 $232 -46.264839625232703 $233 46.264839625232703 $140 $234 forward 7 unknown #
face $-1 $235 $236 $32 $-1 $237 reversed single #
loop $-1 $-1 $238 $88 #
plane-surface $-1 43.98107631933194 -10.898374117819042 132.96775445716764 0 1 0 0.69465837861970381 0 0.71933979245794832 forward_v I I I I #
coedge $-1 $239 $240 $241 $242 reversed $89 $-1 #
coedge $-1 $147 $91 $243 $244 reversed $57 $-1 #
coedge $-1 $91 $146 $239 $245 reversed $57 $-1 #
coedge $-1 $241 $246 $91 $149 forward $247 $-1 #
edge $-1 $248 -24.274301465566733 $249 -19.294368899900956 $148 $250 forward 7 unknown #
loop $-1 $-1 $155 $92 #
plane-surface $-1 -20.295440642997612 -6.0180163467563652 66.407474188937329 0.69465837861970381 0 0.71933979245794832 0.71933979245794832 0 -0.69465837861970381 forward_v I I I I #
loop $-1 $-1 $251 $59 #
coedge $-1 $153 $153 $154 $252 reversed $93 $-1 #
coedge $-1 $154 $154 $153 $252 forward $95 $-1 #
coedge $-1 $155 $155 $96 $156 forward $150 $-1 #
edge $-1 $253 0 $253 6.2831853071796004 $155 $254 forward 7 unknown #
loop $-1 $-1 $162 $97 #
plane-surface $-1 -20.295440642997612 -6.0180163467563652 66.407474188937329 0.69465837861970381 0 0.71933979245794832 0.71933979245794832 0 -0.69465837861970381 forward_v I I I I #
loop $-1 $-1 $255 $62 #
coedge $-1 $160 $160 $161 $256 reversed $98 $-1 #
coedge $-1 $161 $161 $160 $256 forward $100 $-1 #
coedge $-1 $162 $162 $101 $163 forward $157 $-1 #
edge $-1 $257 0 $257 6.2831853071796004 $162 $258 forward 7 unknown #
loop $-1 $-1 $169 $102 #
plane-surface $-1 -20.295440642997612 -6.0180163467563652 66.407474188937329 0.69465837861970381 0 0.71933979245794832 0.71933979245794832 0 -0.69465837861970381 forward_v I I I I #
loop $-1 $-1 $259 $65 #
coedge $-1 $167 $167 $168 $260 reversed $103 $-1 #
coedge $-1 $168 $168 $167 $260 forward $105 $-1 #
coedge $-1 $169 $169 $106 $170 forward $164 $-1 #
edge $-1 $261 0 $261 6.2831853071796004 $169 $262 forward 7 unknown #
face $-1 $263 $264 $36 $-1 $265 reversed single #
loop $-1 $-1 $266 $107 #
plane-surface $-1 43.98107631933194 10.116723268150778 132.96775445716764 0 1 0 0.69465837861970381 0 0.71933979245794832 forward_v I I I I #
coedge $-1 $267 $268 $269 $270 reversed $108 $-1 #
coedge $-1 $176 $110 $271 $272 reversed $69 $-1 #
coedge $-1 $110 $175 $267 $273 reversed $69 $-1 #
coedge $-1 $269 $274 $110 $178 forward $275 $-1 #
edge $-1 $276 -24.274301465566733 $277 -19.294368899900956 $177 $278 forward 7 unknown #
loop $-1 $-1 $184 $111 #
plane-surface $-1 -20.295440642997612 14.997081039213455 66.407474188937329 0.69465837861970381 0 0.71933979245794832 0.71933979245794832 0 -0.69465837861970381 forward_v I I I I #
loop $-1 $-1 $279 $71 #
coedge $-1 $182 $182 $183 $280 reversed $112 $-1 #
coedge $-1 $183 $183 $182 $280 forward $114 $-1 #
coedge $-1 $184 $184 $115 $185 forward $179 $-1 #
edge $-1 $281 0 $281 6.2831853071796004 $184 $282 forward 7 unknown #
loop $-1 $-1 $191 $116 #
plane-surface $-1 -20.295440642997612 14.997081039213455 66.407474188937329 0.69465837861970381 0 0.71933979245794832 0.71933979245794832 0 -0.69465837861970381 forward_v I I I I #
loop $-1 $-1 $283 $74 #
coedge $-1 $189 $189 $190 $284 reversed $117 $-1 #
coedge $-1 $190 $190 $189 $284 forward $119 $-1 #
coedge $-1 $191 $191 $120 $192 forward $186 $-1 #
edge $-1 $285 0 $285 6.2831853071796004 $191 $286 forward 7 unknown #
loop $-1 $-1 $198 $121 #
plane-surface $-1 -20.295440642997612 14.997081039213455 66.407474188937329 0.69465837861970381 0 0.71933979245794832 0.71933979245794832 0 -0.69465837861970381 forward_v I I I I #
loop $-1 $-1 $287 $77 #
coedge $-1 $196 $196 $197 $288 reversed $122 $-1 #
coedge $-1 $197 $197 $196 $288 forward $124 $-1 #
coedge $-1 $198 $198 $125 $199 forward $193 $-1 #
edge $-1 $289 0 $289 6.2831853071796004 $198 $290 forward 7 unknown #
face $-1 $291 $292 $30 $-1 $293 reversed single #
loop $-1 $-1 $294 $126 #
plane-surface $-1 -46.264839625232703 0 0 1 0 0 0 0 -1 forward_v I I I I #
coedge $-1 $295 $211 $296 $297 forward $127 $-1 #
coedge $-1 $298 $129 $295 $299 forward $81 $-1 #
coedge $-1 $129 $298 $300 $301 forward $81 $-1 #
coedge $-1 $214 $213 $129 $207 reversed $215 $-1 #
edge $-1 $302 -24.694442337638321 $303 24.694442337638321 $206 $304 forward 7 unknown #
coedge $-1 $131 $130 $305 $306 forward $51 $-1 #
coedge $-1 $307 $308 $130 $210 reversed $292 $-1 #
edge $-1 $217 -46.264839625232703 $309 46.264839625232703 $209 $310 forward 7 unknown #
coedge $-1 $203 $311 $131 $212 reversed $127 $-1 #
edge $-1 $312 -46.264839625232703 $216 46.264839625232703 $211 $313 forward 7 unknown #
coedge $-1 $206 $132 $311 $314 forward $215 $-1 #
coedge $-1 $132 $206 $307 $315 reversed $215 $-1 #
loop $-1 $-1 $213 $291 #
vertex $-1 $133 $316 #
vertex $-1 $133 $317 #
straight-curve $-1 46.264839625232703 0 6.9400223137488934 0 1 0 I I #
face $-1 $318 $319 $31 $-1 $320 reversed single #
loop $-1 $-1 $231 $134 #
plane-surface $-1 0 -28.373787289306826 -3.0715110810872668 0 0 1 1 0 0 forward_v I I I I #
coedge $-1 $321 $322 $138 $227 forward $135 $-1 #
coedge $-1 $323 $137 $322 $324 forward $85 $-1 #
coedge $-1 $137 $323 $325 $326 forward $85 $-1 #
coedge $-1 $139 $138 $137 $226 reversed $54 $-1 #
edge $-1 $327 -46.264839625232703 $328 46.264839625232703 $137 $329 forward 7 unknown #
edge $-1 $328 -6.9400223137488934 $233 -3.0715110810872668 $222 $330 forward 7 unknown #
coedge $-1 $325 $331 $139 $229 forward $332 $-1 #
edge $-1 $232 3.0715110810872668 $327 6.9400223137488934 $228 $333 forward 7 unknown #
coedge $-1 $334 $140 $331 $335 forward $220 $-1 #
coedge $-1 $140 $334 $321 $336 forward $220 $-1 #
vertex $-1 $229 $337 #
vertex $-1 $336 $338 #
straight-curve $-1 0 -24.694442337638321 -3.0715110810872668 1 0 0 I I #
face $-1 $-1 $247 $32 $-1 $339 forward single #
loop $-1 $-1 $340 $142 #
plane-surface $-1 46.264839625232703 0 0 -1 0 0 0 0 1 forward_v I I I I #
coedge $-1 $341 $342 $343 $344 reversed $143 $-1 #
coedge $-1 $345 $145 $147 $245 forward $89 $-1 #
coedge $-1 $145 $345 $341 $346 forward $89 $-1 #
coedge $-1 $343 $148 $145 $242 forward $247 $-1 #
edge $-1 $249 -1.8713495976844943 $347 7.8893659444408595 $241 $348 forward 7 unknown #
coedge $-1 $349 $350 $146 $244 forward $236 $-1 #
edge $-1 $351 -64.352920001976045 $248 -59.543854914834931 $243 $352 forward 7 unknown #
edge $-1 $249 85.606758236114743 $351 92.529679250465406 $147 $353 forward 7 unknown #
coedge $-1 $148 $343 $349 $354 forward $247 $-1 #
loop $-1 $-1 $343 $235 #
vertex $-1 $244 $355 #
vertex $-1 $149 $356 #
straight-curve $-1 21.99053815966597 -1.1376585756936883 6.9400223137488908 -1 0 0 I I #
coedge $-1 $251 $251 $-1 $357 reversed $152 $-1 #
edge $-1 $358 0 $358 6.2831853071796004 $153 $359 forward 7 unknown #
vertex $-1 $156 $360 #
ellipse-curve $-1 43.774873342399815 -8.946231009393971 4.535489770178331 0.69465837861970381 0 0.71933979245794832 0.35966989622897416 0 -0.3473291893098519 1 I I #
coedge $-1 $255 $255 $-1 $361 reversed $159 $-1 #
edge $-1 $362 0 $362 6.2831853071796004 $160 $363 forward 7 unknown #
vertex $-1 $163 $364 #
ellipse-curve $-1 43.774873342399815 -6.0180163467563652 4.535489770178331 0.69465837861970381 0 0.71933979245794832 0.35966989622897416 0 -0.3473291893098519 1 I I #
coedge $-1 $259 $259 $-1 $365 reversed $166 $-1 #
edge $-1 $366 0 $366 6.2831853071796004 $167 $367 forward 7 unknown #
vertex $-1 $170 $368 #
ellipse-curve $-1 43.774873342399815 -3.0898016841187612 4.535489770178331 0.69465837861970381 0 0.71933979245794832 0.35966989622897416 0 -0.3473291893098519 1 I I #
face $-1 $-1 $275 $36 $-1 $369 forward single #
loop $-1 $-1 $370 $171 #
plane-surface $-1 46.264839625232703 0 0 -1 0 0 0 0 1 forward_v I I I I #
coedge $-1 $371 $372 $373 $374 reversed $172 $-1 #
coedge $-1 $375 $174 $176 $273 forward $108 $-1 #
coedge $-1 $174 $375 $371 $376 forward $108 $-1 #
coedge $-1 $373 $177 $174 $270 forward $275 $-1 #
edge $-1 $277 -12.378898290669405 $377 -2.6181827485440508 $269 $378 forward 7 unknown #
coedge $-1 $379 $380 $175 $272 forward $264 $-1 #
edge $-1 $381 -64.352920001976045 $276 -59.543854914834931 $271 $382 forward 7 unknown #
edge $-1 $277 85.606758236114743 $381 92.529679250465406 $176 $383 forward 7 unknown #
coedge $-1 $177 $373 $379 $384 forward $275 $-1 #
loop $-1 $-1 $373 $263 #
vertex $-1 $272 $385 #
vertex $-1 $178 $386 #
straight-curve $-1 21.99053815966597 19.877438810276132 6.9400223137488908 -1 0 0 I I #
coedge $-1 $279 $279 $-1 $387 reversed $181 $-1 #
edge $-1 $388 0 $388 6.2831853071796004 $182 $389 forward 7 unknown #
vertex $-1 $185 $390 #
ellipse-curve $-1 43.774873342399815 12.068866376575848 4.535489770178331 0.69465837861970381 0 0.71933979245794832 0.35966989622897416 0 -0.3473291893098519 1 I I #
coedge $-1 $283 $283 $-1 $391 reversed $188 $-1 #
edge $-1 $392 0 $392 6.2831853071796004 $189 $393 forward 7 unknown #
vertex $-1 $192 $394 #
ellipse-curve $-1 43.774873342399815 14.997081039213455 4.535489770178331 0.69465837861970381 0 0.71933979245794832 0.35966989622897416 0 -0.3473291893098519 1 I I #
coedge $-1 $287 $287 $-1 $395 reversed $195 $-1 #
edge $-1 $396 0 $396 6.2831853071796004 $196 $397 forward 7 unknown #
vertex $-1 $199 $398 #
ellipse-curve $-1 43.774873342399815 17.925295701851056 4.535489770178331 0.69465837861970381 0 0.71933979245794832 0.35966989622897416 0 -0.3473291893098519 1 I I #
face $-1 $-1 $215 $30 $-1 $399 reversed single #
loop $-1 $-1 $307 $200 #
plane-surface $-1 0 24.694442337638321 0 0 -1 0 0 0 -1 forward_v I I I I #
coedge $-1 $400 $305 $308 $401 forward $201 $-1 #
coedge $-1 $311 $203 $204 $299 reversed $127 $-1 #
coedge $-1 $305 $400 $203 $297 reversed $201 $-1 #
edge $-1 $312 -6.9400223137488934 $402 6.9400223137488934 $296 $403 forward 7 unknown #
coedge $-1 $205 $204 $400 $404 forward $81 $-1 #
edge $-1 $303 -46.264839625232703 $402 46.264839625232703 $295 $405 forward 7 unknown #
coedge $-1 $308 $307 $205 $301 reversed $292 $-1 #
edge $-1 $406 -46.264839625232703 $302 46.264839625232703 $300 $407 forward 7 unknown #
vertex $-1 $207 $408 #
vertex $-1 $314 $409 #
straight-curve $-1 46.264839625232703 0 -6.9400223137488934 0 -1 0 I I #
coedge $-1 $294 $296 $208 $306 reversed $201 $-1 #
edge $-1 $309 -24.694442337638321 $312 24.694442337638321 $305 $410 forward 7 unknown #
coedge $-1 $300 $209 $214 $315 forward $292 $-1 #
coedge $-1 $209 $300 $294 $401 reversed $292 $-1 #
vertex $-1 $210 $411 #
straight-curve $-1 0 24.694442337638321 6.9400223137488934 -1 0 0 I I #
coedge $-1 $211 $295 $213 $314 reversed $127 $-1 #
vertex $-1 $306 $412 #
straight-curve $-1 0 -24.694442337638321 6.9400223137488934 1 0 0 I I #
edge $-1 $216 -6.9400223137488934 $303 6.9400223137488934 $213 $413 forward 7 unknown #
edge $-1 $217 -6.9400223137488934 $302 6.9400223137488934 $214 $414 forward 7 unknown #
point $-1 46.264839625232703 -24.694442337638321 6.9400223137488934 #
point $-1 46.264839625232703 24.694442337638321 6.9400223137488934 #
face $-1 $-1 $332 $31 $-1 $415 reversed single #
loop $-1 $-1 $416 $219 #
plane-surface $-1 0 -32.05313224097533 -5.0057666974180801 0 1 0 0 0 1 forward_v I I I I #
coedge $-1 $417 $222 $231 $336 reversed $135 $-1 #
coedge $-1 $222 $417 $223 $324 reversed $135 $-1 #
coedge $-1 $224 $223 $418 $419 forward $85 $-1 #
edge $-1 $328 24.694442337638321 $420 32.05313224097533 $322 $421 forward 7 unknown #
coedge $-1 $422 $228 $224 $326 reversed $332 $-1 #
edge $-1 $423 -32.05313224097533 $327 -24.694442337638321 $325 $424 forward 7 unknown #
vertex $-1 $229 $425 #
vertex $-1 $324 $426 #
straight-curve $-1 0 -24.694442337638321 -6.9400223137488934 1 0 0 I I #
straight-curve $-1 46.264839625232703 -24.694442337638321 0 0 0 1 I I #
coedge $-1 $228 $422 $230 $335 reversed $332 $-1 #
loop $-1 $-1 $228 $318 #
straight-curve $-1 -46.264839625232703 -24.694442337638321 0 0 0 -1 I I #
coedge $-1 $231 $230 $427 $428 forward $220 $-1 #
edge $-1 $232 -3.6793449516685044 $429 3.6793449516685044 $331 $430 forward 7 unknown #
edge $-1 $431 -3.6793449516685044 $233 3.6793449516685044 $321 $432 forward 7 unknown #
point $-1 -46.264839625232703 -24.694442337638321 -3.0715110810872668 #
point $-1 46.264839625232703 -24.694442337638321 -3.0715110810872668 #
plane-surface $-1 0 0 6.9400223137488934 0 0 1 1 0 0 forward_v I I I I #
coedge $-1 $350 $349 $342 $433 forward $236 $-1 #
coedge $-1 $342 $238 $240 $346 reversed $143 $-1 #
coedge $-1 $238 $341 $340 $433 reversed $143 $-1 #
coedge $-1 $246 $241 $238 $344 forward $247 $-1 #
edge $-1 $347 19.294368899900956 $434 24.274301465566733 $343 $435 forward 7 unknown #
coedge $-1 $240 $239 $350 $436 reversed $89 $-1 #
edge $-1 $437 -92.529679250465406 $347 -85.606758236114743 $341 $438 forward 7 unknown #
vertex $-1 $242 $439 #
straight-curve $-1 41.284907059566926 -3.0090081733781826 6.9400223137488908 0 -1 0 I I #
coedge $-1 $340 $243 $246 $354 reversed $236 $-1 #
coedge $-1 $243 $340 $345 $436 forward $236 $-1 #
vertex $-1 $244 $440 #
straight-curve $-1 46.264839625232703 -1.1376585756936883 66.483877228583822 0 0 1 I I #
straight-curve $-1 -20.295440642997612 -1.1376585756936883 66.407474188937329 0.71933979245794832 0 -0.69465837861970381 I I #
edge $-1 $434 -10.898374117819042 $248 -1.1376585756936883 $349 $441 forward 7 unknown #
point $-1 46.264839625232703 -1.1376585756936883 6.9400223137488934 #
point $-1 41.284907059566926 -1.1376585756936883 6.9400223137488837 #
edge $-1 $442 1 $442 0 $251 $-1 forward 7 unknown #
vertex $-1 $252 $443 #
ellipse-curve $-1 42.831613887182208 -8.946231009393971 3.5587160327068776 0.69465837861970381 0 0.71933979245794832 0.35966989622897416 0 -0.3473291893098519 1 I I #
point $-1 44.134543238628808 -8.946231009393971 4.1881605808684981 #
edge $-1 $444 1 $444 0 $255 $-1 forward 7 unknown #
vertex $-1 $256 $445 #
ellipse-curve $-1 42.831613887182208 -6.0180163467563652 3.5587160327068776 0.69465837861970381 0 0.71933979245794832 0.35966989622897416 0 -0.3473291893098519 1 I I #
point $-1 44.134543238628808 -6.0180163467563652 4.1881605808684981 #
edge $-1 $446 1 $446 0 $259 $-1 forward 7 unknown #
vertex $-1 $260 $447 #
ellipse-curve $-1 42.831613887182208 -3.0898016841187612 3.5587160327068776 0.69465837861970381 0 0.71933979245794832 0.35966989622897416 0 -0.3473291893098519 1 I I #
point $-1 44.134543238628808 -3.0898016841187612 4.1881605808684981 #
plane-surface $-1 0 0 6.9400223137488934 0 0 1 1 0 0 forward_v I I I I #
coedge $-1 $380 $379 $372 $448 forward $264 $-1 #
coedge $-1 $372 $266 $268 $376 reversed $172 $-1 #
coedge $-1 $266 $371 $370 $448 reversed $172 $-1 #
coedge $-1 $274 $269 $266 $374 forward $275 $-1 #
edge $-1 $377 19.294368899900956 $449 24.274301465566733 $373 $450 forward 7 unknown #
coedge $-1 $268 $267 $380 $451 reversed $108 $-1 #
edge $-1 $452 -92.529679250465406 $377 -85.606758236114743 $371 $453 forward 7 unknown #
vertex $-1 $270 $454 #
straight-curve $-1 41.284907059566926 7.4985405196067276 6.9400223137488908 0 -1 0 I I #
coedge $-1 $370 $271 $274 $384 reversed $264 $-1 #
coedge $-1 $271 $370 $375 $451 forward $264 $-1 #
vertex $-1 $272 $455 #
straight-curve $-1 46.264839625232703 19.877438810276132 66.483877228583822 0 0 1 I I #
straight-curve $-1 -20.295440642997612 19.877438810276132 66.407474188937329 0.71933979245794832 0 -0.69465837861970381 I I #
edge $-1 $449 10.116723268150778 $276 19.877438810276132 $379 $456 forward 7 unknown #
point $-1 46.264839625232703 19.877438810276132 6.9400223137488934 #
point $-1 41.284907059566926 19.877438810276132 6.9400223137488837 #
edge $-1 $457 1 $457 0 $279 $-1 forward 7 unknown #
vertex $-1 $280 $458 #
ellipse-curve $-1 42.831613887182208 12.068866376575848 3.5587160327068776 0.69465837861970381 0 0.71933979245794832 0.35966989622897416 0 -0.3473291893098519 1 I I #
point $-1 44.134543238628808 12.068866376575848 4.1881605808684981 #
edge $-1 $459 1 $459 0 $283 $-1 forward 7 unknown #
vertex $-1 $284 $460 #
ellipse-curve $-1 42.831613887182208 14.997081039213455 3.5587160327068776 0.69465837861970381 0 0.71933979245794832 0.35966989622897416 0 -0.3473291893098519 1 I I #
point $-1 44.134543238628808 14.997081039213455 4.1881605808684981 #
edge $-1 $461 1 $461 0 $287 $-1 forward 7 unknown #
vertex $-1 $288 $462 #
ellipse-curve $-1 42.831613887182208 17.925295701851056 3.5587160327068776 0.69465837861970381 0 0.71933979245794832 0.35966989622897416 0 -0.3473291893098519 1 I I #
point $-1 44.134543238628808 17.925295701851056 4.1881605808684981 #
plane-surface $-1 46.264839625232703 0 0 -1 0 0 0 0 1 forward_v I I I I #
coedge $-1 $296 $294 $298 $404 reversed $201 $-1 #
edge $-1 $309 -6.9400223137488934 $406 6.9400223137488934 $308 $463 forward 7 unknown #
vertex $-1 $404 $464 #
straight-curve $-1 -46.264839625232703 -24.694442337638321 0 0 0 -1 I I #
edge $-1 $402 -24.694442337638321 $406 24.694442337638321 $400 $465 forward 7 unknown #
straight-curve $-1 0 -24.694442337638321 -6.9400223137488934 -1 0 0 I I #
vertex $-1 $301 $466 #
straight-curve $-1 0 24.694442337638321 -6.9400223137488934 1 0 0 I I #
point $-1 46.264839625232703 24.694442337638321 -6.9400223137488934 #
point $-1 46.264839625232703 -24.694442337638321 -6.9400223137488934 #
straight-curve $-1 -46.264839625232703 0 6.9400223137488934 0 -1 0 I I #
point $-1 -46.264839625232703 24.694442337638321 6.9400223137488934 #
point $-1 -46.264839625232703 -24.694442337638321 6.9400223137488934 #
straight-curve $-1 46.264839625232703 -24.694442337638321 0 0 0 -1 I I #
straight-curve $-1 46.264839625232703 24.694442337638321 0 0 0 -1 I I #
plane-surface $-1 -46.264839625232703 0 0 1 0 0 0 0 -1 forward_v I I I I #
coedge $-1 $418 $427 $422 $467 forward $319 $-1 #
coedge $-1 $322 $321 $468 $469 forward $135 $-1 #
coedge $-1 $468 $416 $323 $419 reversed $319 $-1 #
edge $-1 $420 -46.264839625232703 $423 46.264839625232703 $418 $470 forward 7 unknown #
vertex $-1 $469 $471 #
straight-curve $-1 46.264839625232703 0 -6.9400223137488934 0 -1 0 I I #
coedge $-1 $331 $325 $416 $467 reversed $332 $-1 #
vertex $-1 $326 $472 #
straight-curve $-1 -46.264839625232703 0 -6.9400223137488934 0 1 0 I I #
point $-1 -46.264839625232703 -24.694442337638321 -6.9400223137488934 #
point $-1 46.264839625232703 -24.694442337638321 -6.9400223137488934 #
coedge $-1 $416 $468 $334 $428 reversed $319 $-1 #
edge $-1 $429 -46.264839625232703 $431 46.264839625232703 $427 $473 forward 7 unknown #
vertex $-1 $335 $474 #
straight-curve $-1 -46.264839625232703 -28.373787289306826 -3.0715110810872668 0 -1 0 I I #
vertex $-1 $336 $475 #
straight-curve $-1 46.264839625232703 -28.373787289306826 -3.0715110810872668 0 1 0 I I #
edge $-1 $434 59.543854914834931 $437 64.352920001976045 $340 $476 forward 7 unknown #
vertex $-1 $354 $477 #
straight-curve $-1 21.99053815966597 -10.898374117819042 6.9400223137488908 1 0 0 I I #
edge $-1 $437 -7.8893659444408595 $351 1.8713495976844943 $350 $478 forward 7 unknown #
vertex $-1 $436 $479 #
straight-curve $-1 -20.295440642997612 -10.898374117819042 66.407474188937329 -0.71933979245794832 0 0.69465837861970381 I I #
point $-1 41.284907059566926 -10.898374117819042 6.9400223137488837 #
point $-1 46.264839625232703 -1.1376585756936883 2.1309572266077765 #
straight-curve $-1 46.264839625232703 0 6.9400223137488934 0 1 0 I I #
vertex $-1 $357 $480 #
point $-1 43.191283783411187 -8.946231009393971 3.2113868433970261 #
vertex $-1 $361 $481 #
point $-1 43.191283783411187 -6.0180163467563652 3.2113868433970261 #
vertex $-1 $365 $482 #
point $-1 43.191283783411187 -3.0898016841187612 3.2113868433970261 #
edge $-1 $449 59.543854914834931 $452 64.352920001976045 $370 $483 forward 7 unknown #
vertex $-1 $384 $484 #
straight-curve $-1 21.99053815966597 10.116723268150778 6.9400223137488908 1 0 0 I I #
edge $-1 $452 2.6181827485440508 $381 12.378898290669405 $380 $485 forward 7 unknown #
vertex $-1 $451 $486 #
straight-curve $-1 -20.295440642997612 10.116723268150778 66.407474188937329 -0.71933979245794832 0 0.69465837861970381 I I #
point $-1 41.284907059566926 10.116723268150778 6.9400223137488837 #
point $-1 46.264839625232703 19.877438810276132 2.1309572266077765 #
straight-curve $-1 46.264839625232703 0 6.9400223137488934 0 1 0 I I #
vertex $-1 $387 $487 #
point $-1 43.191283783411187 12.068866376575848 3.2113868433970261 #
vertex $-1 $391 $488 #
point $-1 43.191283783411187 14.997081039213455 3.2113868433970261 #
vertex $-1 $395 $489 #
point $-1 43.191283783411187 17.925295701851056 3.2113868433970261 #
straight-curve $-1 -46.264839625232703 24.694442337638321 0 0 0 -1 I I #
point $-1 -46.264839625232703 -24.694442337638321 -6.9400223137488934 #
straight-curve $-1 -46.264839625232703 0 -6.9400223137488934 0 1 0 I I #
point $-1 -46.264839625232703 24.694442337638321 -6.9400223137488934 #
edge $-1 $429 -1.9342556163308133 $423 1.9342556163308133 $422 $490 forward 7 unknown #
coedge $-1 $427 $418 $417 $469 reversed $319 $-1 #
edge $-1 $431 -1.9342556163308133 $420 1.9342556163308133 $417 $491 forward 7 unknown #
straight-curve $-1 0 -32.05313224097533 -6.9400223137488934 -1 0 0 I I #
point $-1 46.264839625232703 -32.05313224097533 -6.9400223137488934 #
point $-1 -46.264839625232703 -32.05313224097533 -6.9400223137488934 #
straight-curve $-1 0 -32.05313224097533 -3.0715110810872668 1 0 0 I I #
point $-1 -46.264839625232703 -32.05313224097533 -3.0715110810872668 #
point $-1 46.264839625232703 -32.05313224097533 -3.0715110810872668 #
straight-curve $-1 46.264839625232703 -10.898374117819042 66.483877228583822 0 0 -1 I I #
point $-1 46.264839625232703 -10.898374117819042 6.9400223137488934 #
straight-curve $-1 46.264839625232703 -3.0090081733781826 2.1309572266077765 0 1 0 I I #
point $-1 46.264839625232703 -10.898374117819042 2.1309572266077765 #
point $-1 42.484284697872361 -8.946231009393971 3.1990461364779037 #
point $-1 42.484284697872361 -6.0180163467563652 3.1990461364779037 #
point $-1 42.484284697872361 -3.0898016841187612 3.1990461364779037 #
straight-curve $-1 46.264839625232703 10.116723268150778 66.483877228583822 0 0 -1 I I #
point $-1 46.264839625232703 10.116723268150778 6.9400223137488934 #
straight-curve $-1 46.264839625232703 7.4985405196067276 2.1309572266077765 0 1 0 I I #
point $-1 46.264839625232703 10.116723268150778 2.1309572266077765 #
point $-1 42.484284697872361 12.068866376575848 3.1990461364779037 #
point $-1 42.484284697872361 14.997081039213455 3.1990461364779037 #
point $-1 42.484284697872361 17.925295701851056 3.1990461364779037 #
straight-curve $-1 -46.264839625232703 -32.05313224097533 -5.0057666974180801 0 0 -1 I I #
straight-curve $-1 46.264839625232703 -32.05313224097533 -5.0057666974180801 0 0 -1 I I #
End-of-ACIS-data 