500 0 8 0           
7 Unknown 11 ACIS 5.0 NT 24 Fri Mar 26 03:22:31 1999 
-1 9.9999999999999995e-007 1e-010 
body $-1 $8 $-1 $9 #
body $-1 $10 $-1 $11 #
body $-1 $12 $-1 $13 #
body $-1 $14 $-1 $15 #
body $-1 $16 $-1 $17 #
body $-1 $18 $-1 $19 #
body $-1 $20 $-1 $21 #
body $-1 $22 $-1 $23 #
lump $-1 $-1 $24 $0 #
transform $-1 1 0 0 0 1 0 0 0 1 58.954435865352337 33.333086687918836 12.969558461570593 1 rotate no_reflect no_shear #
lump $-1 $-1 $25 $1 #
transform $-1 1 0 0 0 1 0 0 0 1 58.954435865352337 33.333086687918836 12.969558461570593 1 rotate no_reflect no_shear #
lump $-1 $-1 $26 $2 #
transform $-1 1 0 0 0 1 0 0 0 1 58.954435865352337 33.333086687918836 12.969558461570593 1 rotate no_reflect no_shear #
lump $-1 $-1 $27 $3 #
transform $-1 1 0 0 0 1 0 0 0 1 58.954435865352337 33.333086687918836 12.969558461570593 1 rotate no_reflect no_shear #
lump $-1 $-1 $28 $4 #
transform $-1 1 0 0 0 1 0 0 0 1 58.954435865352337 33.333086687918836 12.969558461570593 1 rotate no_reflect no_shear #
lump $-1 $-1 $29 $5 #
transform $-1 1 0 0 0 1 0 0 0 1 58.954435865352337 33.333086687918836 12.969558461570593 1 rotate no_reflect no_shear #
lump $-1 $-1 $30 $6 #
transform $-1 1 0 0 0 1 0 0 0 1 58.954435865352337 33.333086687918836 12.969558461570593 1 rotate no_reflect no_shear #
lump $-1 $-1 $31 $7 #
transform $-1 1 0 0 0 1 0 0 0 1 58.954435865352337 33.333086687918836 12.969558461570593 1 rotate no_reflect no_shear #
shell $-1 $-1 $-1 $32 $-1 $8 #
shell $-1 $-1 $-1 $33 $-1 $10 #
shell $-1 $-1 $-1 $34 $-1 $12 #
shell $-1 $-1 $-1 $35 $-1 $14 #
shell $-1 $-1 $-1 $36 $-1 $16 #
shell $-1 $-1 $-1 $37 $-1 $18 #
shell $-1 $-1 $-1 $38 $-1 $20 #
shell $-1 $-1 $-1 $39 $-1 $22 #
face $-1 $40 $41 $24 $-1 $42 forward single #
face $-1 $43 $44 $25 $-1 $45 reversed single #
face $-1 $46 $47 $26 $-1 $48 forward single #
face $-1 $49 $50 $27 $-1 $51 reversed single #
face $-1 $52 $53 $28 $-1 $54 forward single #
face $-1 $55 $56 $29 $-1 $57 reversed single #
face $-1 $58 $59 $30 $-1 $60 forward single #
face $-1 $61 $62 $31 $-1 $63 forward single #
face $-1 $64 $65 $24 $-1 $66 reversed single #
loop $-1 $-1 $67 $32 #
plane-surface $-1 0 0 12.969558461570593 0 0 1 1 0 0 forward_v I I I I #
face $-1 $68 $69 $25 $-1 $70 reversed single #
loop $-1 $-1 $71 $33 #
plane-surface $-1 -7.8989514265875034 -97.550861648421659 102.93208850580399 -1 0 0 0 -0.54463904215088732 0.83867056331134215 forward_v I I I I #
face $-1 $72 $73 $26 $-1 $74 forward single #
loop $-1 $75 $76 $34 #
cone-surface $-1 -21.030693524693945 -25.866228485301349 7.5899448638593121 0 0.54463904215088732 -0.83867056331134215 2 0 0 1 I I 0 1 2 forward I I I I #
face $-1 $77 $78 $27 $-1 $79 reversed single #
loop $-1 $-1 $80 $35 #
plane-surface $-1 34.162435622800373 -97.550861648421659 102.93208850580399 -1 0 0 0 -0.54463904215088732 0.83867056331134215 forward_v I I I I #
face $-1 $81 $82 $28 $-1 $83 forward single #
loop $-1 $84 $85 $36 #
cone-surface $-1 21.03069352469393 -25.866228485301349 7.5899448638593121 0 0.54463904215088732 -0.83867056331134215 2 0 0 1 I I 0 1 2 forward I I I I #
face $-1 $86 $87 $29 $-1 $88 reversed single #
loop $-1 $-1 $89 $37 #
plane-surface $-1 -32.498990106628177 41.639904469496287 141.0574980214395 1 0 0 0 -0.54463904215088732 -0.83867056331134215 forward_v I I I I #
face $-1 $90 $91 $30 $-1 $92 forward single #
loop $-1 $93 $94 $38 #
cone-surface $-1 -28.014865887108812 27.29319665202037 8.5419678141500679 0 -0.54463904215088732 -0.83867056331134215 1 0 0 1 I I 0 1 1 forward I I I I #
face $-1 $95 $96 $31 $-1 $97 forward single #
loop $-1 $98 $99 $39 #
cone-surface $-1 -21.288679557829767 27.29319665202037 8.5419678141500679 0 -0.54463904215088732 -0.83867056331134215 1 0 0 1 I I 0 1 1 forward I I I I #
face $-1 $100 $101 $24 $-1 $102 reversed single #
loop $-1 $-1 $103 $40 #
plane-surface $-1 0 0 -12.969558461570593 0 0 1 1 0 0 forward_v I I I I #
coedge $-1 $104 $105 $106 $107 forward $41 $-1 #
face $-1 $108 $109 $25 $-1 $110 reversed single #
loop $-1 $-1 $111 $43 #
plane-surface $-1 -21.030693524693945 -33.333086687918822 4.0453886320091073 0 -0.54463904215088732 0.83867056331134215 1 0 0 forward_v I I I I #
coedge $-1 $112 $113 $114 $115 reversed $44 $-1 #
face $-1 $-1 $116 $26 $-1 $117 forward single #
loop $-1 $118 $119 $46 #
cone-surface $-1 -21.030693524693945 -24.725739338379658 5.8337456176174314 0 0.54463904215088732 -0.83867056331134215 1 0 0 1 I I -0.70710678118654746 0.70710678118654746 1 forward I I I I #
loop $-1 $-1 $120 $34 #
coedge $-1 $76 $76 $121 $122 reversed $47 $-1 #
face $-1 $123 $124 $27 $-1 $125 reversed single #
loop $-1 $-1 $126 $49 #
plane-surface $-1 21.03069352469393 -33.333086687918822 4.0453886320091073 0 -0.54463904215088732 0.83867056331134215 1 0 0 forward_v I I I I #
coedge $-1 $127 $128 $129 $130 reversed $50 $-1 #
face $-1 $-1 $131 $28 $-1 $132 forward single #
loop $-1 $133 $134 $52 #
cone-surface $-1 21.03069352469393 -24.725739338379658 5.8337456176174314 0 0.54463904215088732 -0.83867056331134215 1 0 0 1 I I -0.70710678118654746 0.70710678118654746 1 forward I I I I #
loop $-1 $-1 $135 $36 #
coedge $-1 $85 $85 $136 $137 reversed $53 $-1 #
face $-1 $138 $139 $29 $-1 $140 reversed single #
loop $-1 $-1 $141 $55 #
plane-surface $-1 -24.651772722469289 -22.57787049100655 42.170798147644618 0 0.54463904215088732 0.83867056331134215 1 0 0 forward_v I I I I #
coedge $-1 $142 $143 $144 $145 reversed $56 $-1 #
face $-1 $-1 $146 $30 $-1 $147 forward single #
loop $-1 $148 $149 $58 #
cone-surface $-1 -28.014865887108812 26.453483157042442 7.2489224476774794 0 -0.54463904215088732 -0.83867056331134215 0.5 0 0 1 I I -0.70710678118654746 0.70710678118654746 0.5 forward I I I I #
loop $-1 $-1 $150 $38 #
coedge $-1 $94 $94 $151 $152 reversed $59 $-1 #
face $-1 $-1 $153 $31 $-1 $154 forward single #
loop $-1 $155 $156 $61 #
cone-surface $-1 -21.288679557829767 26.453483157042442 7.2489224476774794 0 -0.54463904215088732 -0.83867056331134215 0.5 0 0 1 I I -0.70710678118654746 0.70710678118654746 0.5 forward I I I I #
loop $-1 $-1 $157 $39 #
coedge $-1 $99 $99 $158 $159 reversed $62 $-1 #
face $-1 $160 $161 $24 $-1 $162 reversed single #
loop $-1 $-1 $163 $64 #
plane-surface $-1 0 -33.333086687918836 0 0 1 0 0 0 1 forward_v I I I I #
coedge $-1 $164 $165 $166 $167 forward $65 $-1 #
coedge $-1 $168 $67 $169 $170 forward $41 $-1 #
coedge $-1 $67 $168 $171 $172 forward $41 $-1 #
coedge $-1 $173 $174 $67 $107 reversed $175 $-1 #
edge $-1 $176 -33.333086687918836 $177 33.333086687918836 $106 $178 forward 7 unknown #
face $-1 $179 $180 $25 $-1 $181 reversed single #
loop $-1 $-1 $182 $68 #
plane-surface $-1 -34.162435622800388 -97.550861648421659 102.93208850580399 1 0 0 0 0.54463904215088732 -0.83867056331134215 forward_v I I I I #
coedge $-1 $183 $184 $185 $186 reversed $69 $-1 #
coedge $-1 $113 $71 $187 $188 reversed $44 $-1 #
coedge $-1 $71 $112 $183 $189 reversed $44 $-1 #
coedge $-1 $185 $190 $71 $115 forward $191 $-1 #
edge $-1 $192 15.442344136291993 $193 29.184360331985374 $114 $194 forward 7 unknown #
loop $-1 $-1 $121 $72 #
plane-surface $-1 -21.030693524693945 -33.333086687918822 4.0453886320091073 0 -0.54463904215088732 0.83867056331134215 1 0 0 forward_v I I I I #
loop $-1 $-1 $195 $46 #
coedge $-1 $119 $119 $120 $196 reversed $73 $-1 #
coedge $-1 $120 $120 $119 $196 forward $75 $-1 #
coedge $-1 $121 $121 $76 $122 forward $116 $-1 #
edge $-1 $197 -5.6087316346070173e-016 $197 6.2831853071795996 $121 $198 forward 7 unknown #
face $-1 $199 $200 $27 $-1 $201 reversed single #
loop $-1 $-1 $202 $77 #
plane-surface $-1 7.8989514265874892 -97.550861648421659 102.93208850580399 1 0 0 0 0.54463904215088732 -0.83867056331134215 forward_v I I I I #
coedge $-1 $203 $204 $205 $206 reversed $78 $-1 #
coedge $-1 $128 $80 $207 $208 reversed $50 $-1 #
coedge $-1 $80 $127 $203 $209 reversed $50 $-1 #
coedge $-1 $205 $210 $80 $130 forward $211 $-1 #
edge $-1 $212 15.442344136291993 $213 29.184360331985374 $129 $214 forward 7 unknown #
loop $-1 $-1 $136 $81 #
plane-surface $-1 21.03069352469393 -33.333086687918822 4.0453886320091073 0 -0.54463904215088732 0.83867056331134215 1 0 0 forward_v I I I I #
loop $-1 $-1 $215 $52 #
coedge $-1 $134 $134 $135 $216 reversed $82 $-1 #
coedge $-1 $135 $135 $134 $216 forward $84 $-1 #
coedge $-1 $136 $136 $85 $137 forward $131 $-1 #
edge $-1 $217 -5.6087316346070173e-016 $217 6.2831853071795996 $136 $218 forward 7 unknown #
face $-1 $219 $220 $29 $-1 $221 reversed single #
loop $-1 $-1 $222 $86 #
plane-surface $-1 -16.804555338310401 41.639904469496287 141.0574980214395 -1 0 0 0 0.54463904215088732 0.83867056331134215 forward_v I I I I #
coedge $-1 $223 $224 $225 $226 reversed $87 $-1 #
coedge $-1 $143 $89 $227 $228 reversed $56 $-1 #
coedge $-1 $89 $142 $223 $229 reversed $56 $-1 #
coedge $-1 $225 $230 $89 $145 forward $231 $-1 #
edge $-1 $232 -12.513134453170693 $233 -1.5681423291787553 $144 $234 forward 7 unknown #
loop $-1 $-1 $151 $90 #
plane-surface $-1 -24.651772722469289 -22.57787049100655 42.170798147644618 0 0.54463904215088732 0.83867056331134215 1 0 0 forward_v I I I I #
loop $-1 $-1 $235 $58 #
coedge $-1 $149 $149 $150 $236 reversed $91 $-1 #
coedge $-1 $150 $150 $149 $236 forward $93 $-1 #
coedge $-1 $151 $151 $94 $152 forward $146 $-1 #
edge $-1 $237 -1.5427303939227385e-016 $237 6.2831853071796004 $151 $238 forward 7 unknown #
loop $-1 $-1 $158 $95 #
plane-surface $-1 -24.651772722469289 -22.57787049100655 42.170798147644618 0 0.54463904215088732 0.83867056331134215 1 0 0 forward_v I I I I #
loop $-1 $-1 $239 $61 #
coedge $-1 $156 $156 $157 $240 reversed $96 $-1 #
coedge $-1 $157 $157 $156 $240 forward $98 $-1 #
coedge $-1 $158 $158 $99 $159 forward $153 $-1 #
edge $-1 $241 -1.5427303939227385e-016 $241 6.2831853071796004 $158 $242 forward 7 unknown #
face $-1 $243 $244 $24 $-1 $245 reversed single #
loop $-1 $-1 $246 $100 #
plane-surface $-1 -58.954435865352337 0 0 1 0 0 0 0 -1 forward_v I I I I #
coedge $-1 $247 $171 $248 $249 forward $101 $-1 #
coedge $-1 $250 $103 $247 $251 forward $65 $-1 #
coedge $-1 $103 $250 $252 $253 forward $65 $-1 #
coedge $-1 $174 $173 $103 $167 reversed $175 $-1 #
edge $-1 $254 -33.333086687918836 $255 33.333086687918836 $166 $256 forward 7 unknown #
coedge $-1 $105 $104 $257 $258 forward $41 $-1 #
coedge $-1 $259 $260 $104 $170 reversed $244 $-1 #
edge $-1 $177 -58.954435865352337 $261 58.954435865352337 $169 $262 forward 7 unknown #
coedge $-1 $163 $263 $105 $172 reversed $101 $-1 #
edge $-1 $264 -58.954435865352337 $176 58.954435865352337 $171 $265 forward 7 unknown #
coedge $-1 $166 $106 $263 $266 forward $175 $-1 #
coedge $-1 $106 $166 $259 $267 reversed $175 $-1 #
loop $-1 $-1 $173 $243 #
vertex $-1 $107 $268 #
vertex $-1 $107 $269 #
straight-curve $-1 58.954435865352337 0 12.969558461570593 0 1 0 I I #
face $-1 $-1 $191 $25 $-1 $270 forward single #
loop $-1 $-1 $271 $108 #
plane-surface $-1 0 -33.333086687918836 0 0 1 0 0 0 1 forward_v I I I I #
coedge $-1 $272 $273 $274 $275 reversed $109 $-1 #
coedge $-1 $276 $111 $113 $189 forward $69 $-1 #
coedge $-1 $111 $276 $272 $277 forward $69 $-1 #
coedge $-1 $274 $114 $111 $186 forward $191 $-1 #
edge $-1 $193 -2.6163953357594689 $278 23.647088860453415 $185 $279 forward 7 unknown #
coedge $-1 $280 $281 $112 $188 forward $180 $-1 #
edge $-1 $282 -47.420655620892894 $192 -38.496485791331402 $187 $283 forward 7 unknown #
edge $-1 $193 -16.385475771839957 $282 1.6755591966779756e-014 $113 $284 forward 7 unknown #
coedge $-1 $114 $274 $280 $285 forward $191 $-1 #
loop $-1 $-1 $274 $179 #
vertex $-1 $188 $286 #
vertex $-1 $115 $287 #
straight-curve $-1 -7.8989514265875034 -48.775430824210829 12.969558461570593 0 1 0 I I #
coedge $-1 $195 $195 $-1 $288 reversed $118 $-1 #
edge $-1 $289 0 $289 6.2831853071796004 $119 $290 forward 7 unknown #
vertex $-1 $122 $291 #
ellipse-curve $-1 -21.030693524693945 -26.462078590072149 8.5074735467898428 0 -0.54463904215088732 0.83867056331134215 2 0 0 1 I I #
face $-1 $-1 $211 $27 $-1 $292 forward single #
loop $-1 $-1 $293 $123 #
plane-surface $-1 0 -33.333086687918836 0 0 1 0 0 0 1 forward_v I I I I #
coedge $-1 $294 $295 $296 $297 reversed $124 $-1 #
coedge $-1 $298 $126 $128 $209 forward $78 $-1 #
coedge $-1 $126 $298 $294 $299 forward $78 $-1 #
coedge $-1 $296 $129 $126 $206 forward $211 $-1 #
edge $-1 $213 -23.647088860453408 $300 2.616395335759476 $205 $301 forward 7 unknown #
coedge $-1 $302 $303 $127 $208 forward $200 $-1 #
edge $-1 $304 -47.420655620892894 $212 -38.496485791331402 $207 $305 forward 7 unknown #
edge $-1 $213 -16.385475771839957 $304 1.6755591966779756e-014 $128 $306 forward 7 unknown #
coedge $-1 $129 $296 $302 $307 forward $211 $-1 #
loop $-1 $-1 $296 $199 #
vertex $-1 $208 $308 #
vertex $-1 $130 $309 #
straight-curve $-1 34.162435622800373 -48.775430824210829 12.969558461570593 0 1 0 I I #
coedge $-1 $215 $215 $-1 $310 reversed $133 $-1 #
edge $-1 $311 0 $311 6.2831853071796004 $134 $312 forward 7 unknown #
vertex $-1 $137 $313 #
ellipse-curve $-1 21.03069352469393 -26.462078590072149 8.5074735467898428 0 -0.54463904215088732 0.83867056331134215 2 0 0 1 I I #
face $-1 $-1 $231 $29 $-1 $314 forward single #
loop $-1 $-1 $315 $138 #
plane-surface $-1 0 33.333086687918836 0 0 -1 0 0 0 -1 forward_v I I I I #
coedge $-1 $316 $317 $318 $319 reversed $139 $-1 #
coedge $-1 $320 $141 $143 $229 forward $87 $-1 #
coedge $-1 $141 $320 $316 $321 forward $87 $-1 #
coedge $-1 $318 $144 $141 $226 forward $231 $-1 #
edge $-1 $233 -20.173103745393533 $322 -4.4786689770757562 $225 $323 forward 7 unknown #
coedge $-1 $324 $325 $142 $228 forward $220 $-1 #
edge $-1 $326 -64.666951674356341 $232 -57.559190549149157 $227 $327 forward 7 unknown #
edge $-1 $233 53.615766454700996 $326 66.666173375837673 $143 $328 forward 7 unknown #
coedge $-1 $144 $318 $324 $329 forward $231 $-1 #
loop $-1 $-1 $318 $219 #
vertex $-1 $228 $330 #
vertex $-1 $145 $331 #
straight-curve $-1 -32.498990106628177 20.819952234748143 12.969558461570585 0 -1 0 I I #
coedge $-1 $235 $235 $-1 $332 reversed $148 $-1 #
edge $-1 $333 0 $333 6.2831853071796004 $149 $334 forward 7 unknown #
vertex $-1 $152 $335 #
ellipse-curve $-1 -28.014865887108812 27.86059062592286 9.4156778989669974 0 0.54463904215088732 0.83867056331134215 1 0 0 1 I I #
coedge $-1 $239 $239 $-1 $336 reversed $155 $-1 #
edge $-1 $337 0 $337 6.2831853071796004 $156 $338 forward 7 unknown #
vertex $-1 $159 $339 #
ellipse-curve $-1 -21.288679557829767 27.86059062592286 9.4156778989669974 0 0.54463904215088732 0.83867056331134215 1 0 0 1 I I #
face $-1 $-1 $175 $24 $-1 $340 reversed single #
loop $-1 $-1 $259 $160 #
plane-surface $-1 0 33.333086687918836 0 0 -1 0 0 0 -1 forward_v I I I I #
coedge $-1 $341 $257 $260 $342 forward $161 $-1 #
coedge $-1 $263 $163 $164 $251 reversed $101 $-1 #
coedge $-1 $257 $341 $163 $249 reversed $161 $-1 #
edge $-1 $264 -12.969558461570593 $343 12.969558461570593 $248 $344 forward 7 unknown #
coedge $-1 $165 $164 $341 $345 forward $65 $-1 #
edge $-1 $255 -58.954435865352337 $343 58.954435865352337 $247 $346 forward 7 unknown #
coedge $-1 $260 $259 $165 $253 reversed $244 $-1 #
edge $-1 $347 -58.954435865352337 $254 58.954435865352337 $252 $348 forward 7 unknown #
vertex $-1 $167 $349 #
vertex $-1 $266 $350 #
straight-curve $-1 58.954435865352337 0 -12.969558461570593 0 -1 0 I I #
coedge $-1 $246 $248 $168 $258 reversed $161 $-1 #
edge $-1 $261 -33.333086687918836 $264 33.333086687918836 $257 $351 forward 7 unknown #
coedge $-1 $252 $169 $174 $267 forward $244 $-1 #
coedge $-1 $169 $252 $246 $342 reversed $244 $-1 #
vertex $-1 $170 $352 #
straight-curve $-1 0 33.333086687918836 12.969558461570593 -1 0 0 I I #
coedge $-1 $171 $247 $173 $266 reversed $101 $-1 #
vertex $-1 $258 $353 #
straight-curve $-1 0 -33.333086687918836 12.969558461570593 1 0 0 I I #
edge $-1 $176 -12.969558461570593 $255 12.969558461570593 $173 $354 forward 7 unknown #
edge $-1 $177 -12.969558461570593 $254 12.969558461570593 $174 $355 forward 7 unknown #
point $-1 58.954435865352337 -33.333086687918836 12.969558461570593 #
point $-1 58.954435865352337 33.333086687918836 12.969558461570593 #
plane-surface $-1 0 0 12.969558461570593 0 0 1 1 0 0 forward_v I I I I #
coedge $-1 $281 $280 $273 $356 forward $180 $-1 #
coedge $-1 $273 $182 $184 $277 reversed $109 $-1 #
coedge $-1 $182 $272 $271 $356 reversed $109 $-1 #
coedge $-1 $190 $185 $182 $275 forward $191 $-1 #
edge $-1 $278 -29.184360331985374 $357 -15.442344136291993 $274 $358 forward 7 unknown #
coedge $-1 $184 $183 $281 $359 reversed $69 $-1 #
edge $-1 $360 -1.6755591966779756e-014 $278 16.385475771839957 $272 $361 forward 7 unknown #
vertex $-1 $186 $362 #
straight-curve $-1 -10.515346762346972 -19.591070492225459 12.969558461570593 -1 0 0 I I #
coedge $-1 $271 $187 $190 $285 reversed $180 $-1 #
coedge $-1 $187 $271 $276 $359 forward $180 $-1 #
vertex $-1 $188 $363 #
straight-curve $-1 -7.8989514265875034 -33.333086687918836 51.466044252901995 0 0 1 I I #
straight-curve $-1 -7.8989514265875034 -33.333086687918822 4.0453886320091073 0 -0.83867056331134215 -0.54463904215088732 I I #
edge $-1 $357 -34.162435622800388 $192 -7.8989514265875034 $280 $364 forward 7 unknown #
point $-1 -7.8989514265875034 -33.333086687918836 12.969558461570593 #
point $-1 -7.8989514265875034 -19.591070492225455 12.969558461570593 #
edge $-1 $365 1 $365 0 $195 $-1 forward 7 unknown #
vertex $-1 $196 $366 #
ellipse-curve $-1 -21.030693524693945 -25.270378380530545 6.6724161809287734 0 -0.54463904215088732 0.83867056331134215 2 0 0 1 I I #
point $-1 -19.030693524693945 -26.462078590072156 8.5074735467898517 #
plane-surface $-1 0 0 12.969558461570593 0 0 1 1 0 0 forward_v I I I I #
coedge $-1 $303 $302 $295 $367 forward $200 $-1 #
coedge $-1 $295 $202 $204 $299 reversed $124 $-1 #
coedge $-1 $202 $294 $293 $367 reversed $124 $-1 #
coedge $-1 $210 $205 $202 $297 forward $211 $-1 #
edge $-1 $300 -29.184360331985374 $368 -15.442344136291993 $296 $369 forward 7 unknown #
coedge $-1 $204 $203 $303 $370 reversed $78 $-1 #
edge $-1 $371 -1.6755591966779756e-014 $300 16.385475771839957 $294 $372 forward 7 unknown #
vertex $-1 $206 $373 #
straight-curve $-1 10.515346762346965 -19.591070492225459 12.969558461570593 -1 0 0 I I #
coedge $-1 $293 $207 $210 $307 reversed $200 $-1 #
coedge $-1 $207 $293 $298 $370 forward $200 $-1 #
vertex $-1 $208 $374 #
straight-curve $-1 34.162435622800373 -33.333086687918836 51.466044252901995 0 0 1 I I #
straight-curve $-1 34.162435622800373 -33.333086687918822 4.0453886320091073 0 -0.83867056331134215 -0.54463904215088732 I I #
edge $-1 $368 7.8989514265874892 $212 34.162435622800373 $302 $375 forward 7 unknown #
point $-1 34.162435622800373 -33.333086687918836 12.969558461570593 #
point $-1 34.162435622800373 -19.591070492225455 12.969558461570593 #
edge $-1 $376 1 $376 0 $215 $-1 forward 7 unknown #
vertex $-1 $216 $377 #
ellipse-curve $-1 21.03069352469393 -25.270378380530545 6.6724161809287734 0 -0.54463904215088732 0.83867056331134215 2 0 0 1 I I #
point $-1 23.03069352469393 -26.462078590072156 8.5074735467898517 #
plane-surface $-1 0 0 12.969558461570593 0 0 1 1 0 0 forward_v I I I I #
coedge $-1 $325 $324 $317 $378 forward $220 $-1 #
coedge $-1 $317 $222 $224 $321 reversed $139 $-1 #
coedge $-1 $222 $316 $315 $378 reversed $139 $-1 #
coedge $-1 $230 $225 $222 $319 forward $231 $-1 #
edge $-1 $322 1.5681423291787553 $379 12.513134453170693 $318 $380 forward 7 unknown #
coedge $-1 $224 $223 $325 $381 reversed $87 $-1 #
edge $-1 $382 -66.666173375837673 $322 -53.615766454700996 $316 $383 forward 7 unknown #
vertex $-1 $226 $384 #
straight-curve $-1 -12.325886361234645 22.388094563926902 12.969558461570589 1 0 0 I I #
coedge $-1 $315 $227 $230 $329 reversed $220 $-1 #
coedge $-1 $227 $315 $320 $381 forward $220 $-1 #
vertex $-1 $228 $385 #
straight-curve $-1 -32.498990106628177 33.333086687918836 70.52874901071975 0 0 1 I I #
straight-curve $-1 -32.498990106628177 -22.57787049100655 42.170798147644618 0 0.83867056331134215 -0.54463904215088732 I I #
edge $-1 $379 16.804555338310401 $232 32.498990106628177 $324 $386 forward 7 unknown #
point $-1 -32.498990106628177 33.333086687918836 12.969558461570593 #
point $-1 -32.498990106628177 22.388094563926899 12.969558461570593 #
edge $-1 $387 1 $387 0 $235 $-1 forward 7 unknown #
vertex $-1 $236 $388 #
ellipse-curve $-1 -28.014865887108812 26.725802678117887 7.6682577293331509 0 0.54463904215088732 0.83867056331134215 1 0 0 1 I I #
point $-1 -27.014865887108812 27.860590625922853 9.4156778989669867 #
edge $-1 $389 1 $389 0 $239 $-1 forward 7 unknown #
vertex $-1 $240 $390 #
ellipse-curve $-1 -21.288679557829767 26.725802678117887 7.6682577293331509 0 0.54463904215088732 0.83867056331134215 1 0 0 1 I I #
point $-1 -20.288679557829767 27.860590625922853 9.4156778989669867 #
plane-surface $-1 58.954435865352337 0 0 -1 0 0 0 0 1 forward_v I I I I #
coedge $-1 $248 $246 $250 $345 reversed $161 $-1 #
edge $-1 $261 -12.969558461570593 $347 12.969558461570593 $260 $391 forward 7 unknown #
vertex $-1 $345 $392 #
straight-curve $-1 -58.954435865352337 -33.333086687918836 0 0 0 -1 I I #
edge $-1 $343 -33.333086687918836 $347 33.333086687918836 $341 $393 forward 7 unknown #
straight-curve $-1 0 -33.333086687918836 -12.969558461570593 -1 0 0 I I #
vertex $-1 $253 $394 #
straight-curve $-1 0 33.333086687918836 -12.969558461570593 1 0 0 I I #
point $-1 58.954435865352337 33.333086687918836 -12.969558461570593 #
point $-1 58.954435865352337 -33.333086687918836 -12.969558461570593 #
straight-curve $-1 -58.954435865352337 0 12.969558461570593 0 -1 0 I I #
point $-1 -58.954435865352337 33.333086687918836 12.969558461570593 #
point $-1 -58.954435865352337 -33.333086687918836 12.969558461570593 #
straight-curve $-1 58.954435865352337 -33.333086687918836 0 0 0 -1 I I #
straight-curve $-1 58.954435865352337 33.333086687918836 0 0 0 -1 I I #
edge $-1 $357 38.496485791331402 $360 47.420655620892894 $271 $395 forward 7 unknown #
vertex $-1 $285 $396 #
straight-curve $-1 -34.162435622800388 -48.775430824210829 12.969558461570593 0 -1 0 I I #
edge $-1 $360 -23.647088860453415 $282 2.6163953357594689 $281 $397 forward 7 unknown #
vertex $-1 $359 $398 #
straight-curve $-1 -34.162435622800388 -33.333086687918822 4.0453886320091073 0 0.83867056331134215 0.54463904215088732 I I #
point $-1 -34.162435622800388 -19.591070492225455 12.969558461570593 #
point $-1 -7.8989514265875034 -33.333086687918836 4.0453886320090984 #
straight-curve $-1 0 -33.333086687918836 12.969558461570593 1 0 0 I I #
vertex $-1 $288 $399 #
point $-1 -19.030693524693945 -25.270378380530545 6.6724161809287734 #
edge $-1 $368 38.496485791331402 $371 47.420655620892894 $293 $400 forward 7 unknown #
vertex $-1 $307 $401 #
straight-curve $-1 7.8989514265874892 -48.775430824210829 12.969558461570593 0 -1 0 I I #
edge $-1 $371 -2.616395335759476 $304 23.647088860453408 $303 $402 forward 7 unknown #
vertex $-1 $370 $403 #
straight-curve $-1 7.8989514265874892 -33.333086687918822 4.0453886320091073 0 0.83867056331134215 0.54463904215088732 I I #
point $-1 7.8989514265874892 -19.591070492225455 12.969558461570593 #
point $-1 34.162435622800373 -33.333086687918836 4.0453886320090984 #
straight-curve $-1 0 -33.333086687918836 12.969558461570593 1 0 0 I I #
vertex $-1 $310 $404 #
point $-1 23.03069352469393 -25.270378380530545 6.6724161809287734 #
edge $-1 $379 57.559190549149157 $382 64.666951674356341 $315 $405 forward 7 unknown #
vertex $-1 $329 $406 #
straight-curve $-1 -16.804555338310401 20.819952234748143 12.969558461570585 0 1 0 I I #
edge $-1 $382 4.4786689770757562 $326 20.173103745393533 $325 $407 forward 7 unknown #
vertex $-1 $381 $408 #
straight-curve $-1 -16.804555338310401 -22.57787049100655 42.170798147644618 0 -0.83867056331134215 0.54463904215088732 I I #
point $-1 -16.804555338310401 22.388094563926899 12.969558461570593 #
point $-1 -32.498990106628177 33.333086687918829 5.8617973363634022 #
straight-curve $-1 0 33.333086687918836 12.969558461570593 -1 0 0 I I #
vertex $-1 $332 $409 #
point $-1 -27.014865887108812 26.725802678117887 7.6682577293331509 #
vertex $-1 $336 $410 #
point $-1 -20.288679557829767 26.725802678117887 7.6682577293331509 #
straight-curve $-1 -58.954435865352337 33.333086687918836 0 0 0 -1 I I #
point $-1 -58.954435865352337 -33.333086687918836 -12.969558461570593 #
straight-curve $-1 -58.954435865352337 0 -12.969558461570593 0 1 0 I I #
point $-1 -58.954435865352337 33.333086687918836 -12.969558461570593 #
straight-curve $-1 -34.162435622800388 -33.333086687918836 51.466044252901995 0 0 -1 I I #
point $-1 -34.162435622800388 -33.333086687918836 12.969558461570593 #
straight-curve $-1 -10.515346762346972 -33.333086687918836 4.0453886320090975 1 0 0 I I #
point $-1 -34.162435622800388 -33.333086687918836 4.0453886320090984 #
point $-1 -21.030693524693945 -24.18110029622877 4.9950750543060893 #
straight-curve $-1 7.8989514265874892 -33.333086687918836 51.466044252901995 0 0 -1 I I #
point $-1 7.8989514265874892 -33.333086687918836 12.969558461570593 #
straight-curve $-1 10.515346762346965 -33.333086687918836 4.0453886320090975 1 0 0 I I #
point $-1 7.8989514265874892 -33.333086687918836 4.0453886320090984 #
point $-1 21.03069352469393 -24.18110029622877 4.9950750543060893 #
straight-curve $-1 -16.804555338310401 33.333086687918836 70.52874901071975 0 0 -1 I I #
point $-1 -16.804555338310401 33.333086687918836 12.969558461570593 #
straight-curve $-1 -12.325886361234645 33.333086687918836 5.8617973363633986 -1 0 0 I I #
point $-1 -16.804555338310401 33.333086687918829 5.8617973363634022 #
point $-1 -28.014865887108812 26.181163635966996 6.8295871660218079 #
point $-1 -21.288679557829767 26.181163635966996 6.8295871660218079 #
End-of-ACIS-data 