500 0 13 0           
7 Unknown 11 ACIS 5.0 NT 24 Fri Mar 26 15:33:26 1999 
-1 9.9999999999999995e-007 1e-010 
body $-1 $13 $-1 $14 #
body $-1 $15 $-1 $16 #
body $-1 $17 $-1 $18 #
body $-1 $19 $-1 $20 #
body $-1 $21 $-1 $22 #
body $-1 $23 $-1 $24 #
body $-1 $25 $-1 $26 #
body $-1 $27 $-1 $28 #
body $-1 $29 $-1 $30 #
body $-1 $31 $-1 $32 #
body $-1 $33 $-1 $34 #
body $-1 $35 $-1 $36 #
body $-1 $37 $-1 $38 #
lump $-1 $-1 $39 $0 #
transform $-1 1 0 0 0 1 0 0 0 1 59.129001739555036 25.251857012928784 5.7848770002609315 1 rotate no_reflect no_shear #
lump $-1 $-1 $40 $1 #
transform $-1 1 0 0 0 1 0 0 0 1 59.129001739555036 25.251857012928784 5.7848770002609315 1 rotate no_reflect no_shear #
lump $-1 $-1 $41 $2 #
transform $-1 1 0 0 0 1 0 0 0 1 59.129001739555036 25.251857012928784 5.7848770002609315 1 rotate no_reflect no_shear #
lump $-1 $-1 $42 $3 #
transform $-1 1 0 0 0 1 0 0 0 1 59.129001739555036 25.251857012928784 5.7848770002609315 1 rotate no_reflect no_shear #
lump $-1 $-1 $43 $4 #
transform $-1 1 0 0 0 1 0 0 0 1 59.129001739555036 25.251857012928784 5.7848770002609315 1 rotate no_reflect no_shear #
lump $-1 $-1 $44 $5 #
transform $-1 1 0 0 0 1 0 0 0 1 59.129001739555036 25.251857012928784 5.7848770002609315 1 rotate no_reflect no_shear #
lump $-1 $-1 $45 $6 #
transform $-1 1 0 0 0 1 0 0 0 1 59.129001739555036 25.251857012928784 5.7848770002609315 1 rotate no_reflect no_shear #
lump $-1 $-1 $46 $7 #
transform $-1 1 0 0 0 1 0 0 0 1 59.129001739555036 25.251857012928784 5.7848770002609315 1 rotate no_reflect no_shear #
lump $-1 $-1 $47 $8 #
transform $-1 1 0 0 0 1 0 0 0 1 59.129001739555036 25.251857012928784 5.7848770002609315 1 rotate no_reflect no_shear #
lump $-1 $-1 $48 $9 #
transform $-1 1 0 0 0 1 0 0 0 1 59.129001739555036 25.251857012928784 5.7848770002609315 1 rotate no_reflect no_shear #
lump $-1 $-1 $49 $10 #
transform $-1 1 0 0 0 1 0 0 0 1 59.129001739555036 25.251857012928784 5.7848770002609315 1 rotate no_reflect no_shear #
lump $-1 $-1 $50 $11 #
transform $-1 1 0 0 0 1 0 0 0 1 59.129001739555036 25.251857012928784 5.7848770002609315 1 rotate no_reflect no_shear #
lump $-1 $-1 $51 $12 #
transform $-1 1 0 0 0 1 0 0 0 1 59.129001739555036 25.251857012928784 5.7848770002609315 1 rotate no_reflect no_shear #
shell $-1 $-1 $-1 $52 $-1 $13 #
shell $-1 $-1 $-1 $53 $-1 $15 #
shell $-1 $-1 $-1 $54 $-1 $17 #
shell $-1 $-1 $-1 $55 $-1 $19 #
shell $-1 $-1 $-1 $56 $-1 $21 #
shell $-1 $-1 $-1 $57 $-1 $23 #
shell $-1 $-1 $-1 $58 $-1 $25 #
shell $-1 $-1 $-1 $59 $-1 $27 #
shell $-1 $-1 $-1 $60 $-1 $29 #
shell $-1 $-1 $-1 $61 $-1 $31 #
shell $-1 $-1 $-1 $62 $-1 $33 #
shell $-1 $-1 $-1 $63 $-1 $35 #
shell $-1 $-1 $-1 $64 $-1 $37 #
face $-1 $65 $66 $39 $-1 $67 forward single #
face $-1 $68 $69 $40 $-1 $70 forward single #
face $-1 $71 $72 $41 $-1 $73 forward single #
face $-1 $74 $75 $42 $-1 $76 reversed single #
face $-1 $77 $78 $43 $-1 $79 forward single #
face $-1 $80 $81 $44 $-1 $82 reversed single #
face $-1 $83 $84 $45 $-1 $85 forward single #
face $-1 $86 $87 $46 $-1 $88 forward single #
face $-1 $89 $90 $47 $-1 $91 forward single #
face $-1 $92 $93 $48 $-1 $94 reversed single #
face $-1 $95 $96 $49 $-1 $97 forward single #
face $-1 $98 $99 $50 $-1 $100 forward single #
face $-1 $101 $102 $51 $-1 $103 forward single #
face $-1 $104 $105 $39 $-1 $106 reversed single #
loop $-1 $-1 $107 $52 #
plane-surface $-1 0 0 5.7848770002609315 0 0 1 1 0 0 forward_v I I I I #
face $-1 $108 $109 $40 $-1 $110 reversed single #
loop $-1 $-1 $111 $53 #
plane-surface $-1 0 -25.251857012928784 0 0 1 0 0 0 1 forward_v I I I I #
face $-1 $112 $113 $41 $-1 $114 reversed single #
loop $-1 $-1 $115 $54 #
plane-surface $-1 0 25.251857012928784 0 0 -1 0 0 0 -1 forward_v I I I I #
face $-1 $116 $117 $42 $-1 $118 reversed single #
loop $-1 $-1 $119 $55 #
plane-surface $-1 -151.03273253192856 -18.339876165960316 75.737736563945759 0 1 0 -0.77714596973225614 0 0.62932038083071107 forward_v I I I I #
face $-1 $120 $121 $43 $-1 $122 forward single #
loop $-1 $123 $124 $56 #
cone-surface $-1 -56.312173238651901 -12.857231428938004 2.7345742754596198 0.77714596973225614 0 -0.62932038083071107 0.62932038083071107 0 0.77714596973225614 1 I I 0 1 1 forward I I I I #
face $-1 $125 $126 $44 $-1 $127 reversed single #
loop $-1 $-1 $128 $57 #
plane-surface $-1 70.795221078167259 -11.99208944736192 168.37580797061986 0 -1 0 -0.75470958851134928 0 -0.65605901945558964 forward_v I I I I #
face $-1 $129 $130 $45 $-1 $131 forward single #
loop $-1 $132 $133 $58 #
cone-surface $-1 56.865366190838358 -17.070318822240637 3.2986687122520442 -0.75470958851134928 0 -0.65605901945558964 0.32802950972779482 0 -0.37735479425567464 1 I I 0 1 0.5 forward I I I I #
face $-1 $134 $135 $46 $-1 $136 forward single #
loop $-1 $137 $138 $59 #
cone-surface $-1 56.865366190838358 -15.165982806661118 3.2986687122520442 -0.75470958851134928 0 -0.65605901945558964 0.32802950972779482 0 -0.37735479425567464 1 I I 0 1 0.5 forward I I I I #
face $-1 $139 $140 $47 $-1 $141 forward single #
loop $-1 $142 $143 $60 #
cone-surface $-1 56.865366190838358 -13.261646791081599 3.2986687122520442 -0.75470958851134928 0 -0.65605901945558964 0.32802950972779482 0 -0.37735479425567464 1 I I 0 1 0.5 forward I I I I #
face $-1 $144 $145 $48 $-1 $146 reversed single #
loop $-1 $-1 $147 $61 #
plane-surface $-1 70.795221078167259 18.339876165960312 168.37580797061986 0 -1 0 -0.75470958851134928 0 -0.65605901945558964 forward_v I I I I #
face $-1 $148 $149 $49 $-1 $150 forward single #
loop $-1 $151 $152 $62 #
cone-surface $-1 56.865366190838358 13.261646791081599 3.2986687122520442 -0.75470958851134928 0 -0.65605901945558964 0.32802950972779482 0 -0.37735479425567464 1 I I 0 1 0.5 forward I I I I #
face $-1 $153 $154 $50 $-1 $155 forward single #
loop $-1 $156 $157 $63 #
cone-surface $-1 56.865366190838358 15.165982806661116 3.2986687122520442 -0.75470958851134928 0 -0.65605901945558964 0.32802950972779482 0 -0.37735479425567464 1 I I 0 1 0.5 forward I I I I #
face $-1 $158 $159 $51 $-1 $160 forward single #
loop $-1 $161 $162 $64 #
cone-surface $-1 56.865366190838358 17.070318822240633 3.2986687122520442 -0.75470958851134928 0 -0.65605901945558964 0.32802950972779482 0 -0.37735479425567464 1 I I 0 1 0.5 forward I I I I #
face $-1 $163 $164 $39 $-1 $165 reversed single #
loop $-1 $-1 $166 $65 #
plane-surface $-1 0 0 -5.7848770002609315 0 0 1 1 0 0 forward_v I I I I #
coedge $-1 $167 $168 $169 $170 forward $66 $-1 #
face $-1 $171 $172 $40 $-1 $173 reversed single #
loop $-1 $-1 $174 $68 #
plane-surface $-1 0 0 -5.7848770002609315 0 0 1 1 0 0 forward_v I I I I #
coedge $-1 $175 $176 $177 $178 forward $69 $-1 #
face $-1 $179 $180 $41 $-1 $181 forward single #
loop $-1 $-1 $182 $71 #
plane-surface $-1 -59.129001739555036 0 0 1 0 0 0 0 -1 forward_v I I I I #
coedge $-1 $183 $184 $185 $186 forward $72 $-1 #
face $-1 $187 $188 $42 $-1 $189 reversed single #
loop $-1 $-1 $190 $74 #
plane-surface $-1 -59.129001739555036 -12.857231428938004 1.3155647781926518 -0.77714596973225614 0 0.62932038083071107 0.62932038083071107 0 0.77714596973225614 forward_v I I I I #
coedge $-1 $191 $192 $193 $194 reversed $75 $-1 #
face $-1 $-1 $195 $43 $-1 $196 forward single #
loop $-1 $197 $198 $77 #
cone-surface $-1 -54.916360542625938 -12.857231428938004 1.6042674712770886 0.77714596973225614 0 -0.62932038083071107 0.31466019041535553 0 0.38857298486612807 1 I I -0.70710678118654746 0.70710678118654746 0.5 forward I I I I #
loop $-1 $-1 $199 $56 #
coedge $-1 $124 $124 $200 $201 reversed $78 $-1 #
face $-1 $202 $203 $44 $-1 $204 reversed single #
loop $-1 $-1 $205 $80 #
plane-surface $-1 -18.45522806572562 -15.165982806661118 90.791578165339203 0.75470958851134928 0 0.65605901945558964 0.65605901945558964 0 -0.75470958851134928 forward_v I I I I #
coedge $-1 $206 $207 $208 $209 reversed $81 $-1 #
face $-1 $-1 $210 $45 $-1 $211 forward single #
loop $-1 $212 $213 $83 #
cone-surface $-1 56.257570116237943 -17.070318822240637 2.7703196587865504 -0.75470958851134928 0 -0.65605901945558964 0.16401475486389741 0 -0.18867739712783732 1 I I -0.70710678118654746 0.70710678118654746 0.25 forward I I I I #
loop $-1 $-1 $214 $58 #
coedge $-1 $133 $133 $215 $216 reversed $84 $-1 #
face $-1 $-1 $217 $46 $-1 $218 forward single #
loop $-1 $219 $220 $86 #
cone-surface $-1 56.257570116237943 -15.165982806661118 2.7703196587865504 -0.75470958851134928 0 -0.65605901945558964 0.16401475486389741 0 -0.18867739712783732 1 I I -0.70710678118654746 0.70710678118654746 0.25 forward I I I I #
loop $-1 $-1 $221 $59 #
coedge $-1 $138 $138 $222 $223 reversed $87 $-1 #
face $-1 $-1 $224 $47 $-1 $225 forward single #
loop $-1 $226 $227 $89 #
cone-surface $-1 56.257570116237943 -13.261646791081599 2.7703196587865504 -0.75470958851134928 0 -0.65605901945558964 0.16401475486389741 0 -0.18867739712783732 1 I I -0.70710678118654746 0.70710678118654746 0.25 forward I I I I #
loop $-1 $-1 $228 $60 #
coedge $-1 $143 $143 $229 $230 reversed $90 $-1 #
face $-1 $231 $232 $48 $-1 $233 reversed single #
loop $-1 $-1 $234 $92 #
plane-surface $-1 -18.45522806572562 15.165982806661116 90.791578165339203 0.75470958851134928 0 0.65605901945558964 0.65605901945558964 0 -0.75470958851134928 forward_v I I I I #
coedge $-1 $235 $236 $237 $238 reversed $93 $-1 #
face $-1 $-1 $239 $49 $-1 $240 forward single #
loop $-1 $241 $242 $95 #
cone-surface $-1 56.257570116237943 13.261646791081599 2.7703196587865504 -0.75470958851134928 0 -0.65605901945558964 0.16401475486389741 0 -0.18867739712783732 1 I I -0.70710678118654746 0.70710678118654746 0.25 forward I I I I #
loop $-1 $-1 $243 $62 #
coedge $-1 $152 $152 $244 $245 reversed $96 $-1 #
face $-1 $-1 $246 $50 $-1 $247 forward single #
loop $-1 $248 $249 $98 #
cone-surface $-1 56.257570116237943 15.165982806661116 2.7703196587865504 -0.75470958851134928 0 -0.65605901945558964 0.16401475486389741 0 -0.18867739712783732 1 I I -0.70710678118654746 0.70710678118654746 0.25 forward I I I I #
loop $-1 $-1 $250 $63 #
coedge $-1 $157 $157 $251 $252 reversed $99 $-1 #
face $-1 $-1 $253 $51 $-1 $254 forward single #
loop $-1 $255 $256 $101 #
cone-surface $-1 56.257570116237943 17.070318822240633 2.7703196587865504 -0.75470958851134928 0 -0.65605901945558964 0.16401475486389741 0 -0.18867739712783732 1 I I -0.70710678118654746 0.70710678118654746 0.25 forward I I I I #
loop $-1 $-1 $257 $64 #
coedge $-1 $162 $162 $258 $259 reversed $102 $-1 #
face $-1 $260 $261 $39 $-1 $262 reversed single #
loop $-1 $-1 $263 $104 #
plane-surface $-1 0 -25.251857012928784 0 0 1 0 0 0 1 forward_v I I I I #
coedge $-1 $264 $265 $266 $267 forward $105 $-1 #
coedge $-1 $268 $107 $269 $270 forward $66 $-1 #
coedge $-1 $107 $268 $271 $272 forward $66 $-1 #
coedge $-1 $273 $274 $107 $170 reversed $275 $-1 #
edge $-1 $276 -25.251857012928784 $277 25.251857012928784 $169 $278 forward 7 unknown #
face $-1 $279 $280 $40 $-1 $281 forward single #
loop $-1 $-1 $282 $108 #
plane-surface $-1 59.129001739555036 0 0 -1 0 0 0 0 1 forward_v I I I I #
coedge $-1 $283 $284 $285 $286 forward $109 $-1 #
coedge $-1 $285 $111 $282 $287 reversed $69 $-1 #
coedge $-1 $111 $285 $288 $289 reversed $69 $-1 #
coedge $-1 $290 $291 $111 $178 reversed $280 $-1 #
edge $-1 $292 -59.129001739555036 $293 59.129001739555036 $177 $294 forward 7 unknown #
face $-1 $295 $296 $41 $-1 $297 reversed single #
loop $-1 $-1 $298 $112 #
plane-surface $-1 0 28.707847436413015 -2.7848770002609315 0 0 1 1 0 0 forward_v I I I I #
coedge $-1 $299 $300 $183 $301 forward $113 $-1 #
coedge $-1 $302 $115 $182 $301 reversed $72 $-1 #
coedge $-1 $115 $302 $303 $304 reversed $72 $-1 #
coedge $-1 $298 $305 $115 $186 reversed $180 $-1 #
edge $-1 $306 -59.129001739555036 $307 59.129001739555036 $185 $308 forward 7 unknown #
face $-1 $309 $310 $42 $-1 $311 reversed single #
loop $-1 $-1 $312 $116 #
plane-surface $-1 -151.03273253192856 -7.3745866919156917 75.737736563945759 0 -1 0 0.77714596973225614 0 -0.62932038083071107 forward_v I I I I #
coedge $-1 $313 $314 $315 $316 reversed $117 $-1 #
coedge $-1 $192 $119 $317 $318 reversed $75 $-1 #
coedge $-1 $119 $191 $313 $319 reversed $75 $-1 #
coedge $-1 $315 $320 $119 $194 forward $321 $-1 #
edge $-1 $322 16.387364526409243 $323 20.006542105895853 $193 $324 forward 7 unknown #
loop $-1 $-1 $200 $120 #
plane-surface $-1 -59.129001739555036 -12.857231428938004 1.3155647781926518 -0.77714596973225614 0 0.62932038083071107 0.62932038083071107 0 0.77714596973225614 forward_v I I I I #
loop $-1 $-1 $325 $77 #
coedge $-1 $198 $198 $199 $326 reversed $121 $-1 #
coedge $-1 $199 $199 $198 $326 forward $123 $-1 #
coedge $-1 $200 $200 $124 $201 forward $195 $-1 #
edge $-1 $327 0 $327 6.2831853071796004 $200 $328 forward 7 unknown #
face $-1 $329 $330 $44 $-1 $331 forward single #
loop $-1 $-1 $332 $125 #
plane-surface $-1 70.795221078167259 -18.339876165960316 168.37580797061986 0 1 0 0.75470958851134928 0 0.65605901945558964 forward_v I I I I #
coedge $-1 $333 $334 $335 $336 reversed $126 $-1 #
coedge $-1 $207 $128 $337 $338 reversed $81 $-1 #
coedge $-1 $128 $206 $333 $339 reversed $81 $-1 #
coedge $-1 $335 $340 $128 $209 forward $330 $-1 #
edge $-1 $341 -23.731391200471407 $342 -20.042357457983215 $208 $343 forward 7 unknown #
loop $-1 $-1 $215 $129 #
plane-surface $-1 -18.45522806572562 -15.165982806661118 90.791578165339203 0.75470958851134928 0 0.65605901945558964 0.65605901945558964 0 -0.75470958851134928 forward_v I I I I #
loop $-1 $-1 $344 $83 #
coedge $-1 $213 $213 $214 $345 reversed $130 $-1 #
coedge $-1 $214 $214 $213 $345 forward $132 $-1 #
coedge $-1 $215 $215 $133 $216 forward $210 $-1 #
edge $-1 $346 0 $346 6.2831853071796004 $215 $347 forward 7 unknown #
loop $-1 $-1 $222 $134 #
plane-surface $-1 -18.45522806572562 -15.165982806661118 90.791578165339203 0.75470958851134928 0 0.65605901945558964 0.65605901945558964 0 -0.75470958851134928 forward_v I I I I #
loop $-1 $-1 $348 $86 #
coedge $-1 $220 $220 $221 $349 reversed $135 $-1 #
coedge $-1 $221 $221 $220 $349 forward $137 $-1 #
coedge $-1 $222 $222 $138 $223 forward $217 $-1 #
edge $-1 $350 0 $350 6.2831853071796004 $222 $351 forward 7 unknown #
loop $-1 $-1 $229 $139 #
plane-surface $-1 -18.45522806572562 -15.165982806661118 90.791578165339203 0.75470958851134928 0 0.65605901945558964 0.65605901945558964 0 -0.75470958851134928 forward_v I I I I #
loop $-1 $-1 $352 $89 #
coedge $-1 $227 $227 $228 $353 reversed $140 $-1 #
coedge $-1 $228 $228 $227 $353 forward $142 $-1 #
coedge $-1 $229 $229 $143 $230 forward $224 $-1 #
edge $-1 $354 0 $354 6.2831853071796004 $229 $355 forward 7 unknown #
face $-1 $356 $357 $48 $-1 $358 reversed single #
loop $-1 $-1 $359 $144 #
plane-surface $-1 70.795221078167259 11.992089447361918 168.37580797061986 0 1 0 0.75470958851134928 0 0.65605901945558964 forward_v I I I I #
coedge $-1 $360 $361 $362 $363 reversed $145 $-1 #
coedge $-1 $236 $147 $364 $365 reversed $93 $-1 #
coedge $-1 $147 $235 $360 $366 reversed $93 $-1 #
coedge $-1 $362 $367 $147 $238 forward $368 $-1 #
edge $-1 $369 -23.731391200471407 $370 -20.042357457983215 $237 $371 forward 7 unknown #
loop $-1 $-1 $244 $148 #
plane-surface $-1 -18.45522806572562 15.165982806661116 90.791578165339203 0.75470958851134928 0 0.65605901945558964 0.65605901945558964 0 -0.75470958851134928 forward_v I I I I #
loop $-1 $-1 $372 $95 #
coedge $-1 $242 $242 $243 $373 reversed $149 $-1 #
coedge $-1 $243 $243 $242 $373 forward $151 $-1 #
coedge $-1 $244 $244 $152 $245 forward $239 $-1 #
edge $-1 $374 0 $374 6.2831853071796004 $244 $375 forward 7 unknown #
loop $-1 $-1 $251 $153 #
plane-surface $-1 -18.45522806572562 15.165982806661116 90.791578165339203 0.75470958851134928 0 0.65605901945558964 0.65605901945558964 0 -0.75470958851134928 forward_v I I I I #
loop $-1 $-1 $376 $98 #
coedge $-1 $249 $249 $250 $377 reversed $154 $-1 #
coedge $-1 $250 $250 $249 $377 forward $156 $-1 #
coedge $-1 $251 $251 $157 $252 forward $246 $-1 #
edge $-1 $378 0 $378 6.2831853071796004 $251 $379 forward 7 unknown #
loop $-1 $-1 $258 $158 #
plane-surface $-1 -18.45522806572562 15.165982806661116 90.791578165339203 0.75470958851134928 0 0.65605901945558964 0.65605901945558964 0 -0.75470958851134928 forward_v I I I I #
loop $-1 $-1 $380 $101 #
coedge $-1 $256 $256 $257 $381 reversed $159 $-1 #
coedge $-1 $257 $257 $256 $381 forward $161 $-1 #
coedge $-1 $258 $258 $162 $259 forward $253 $-1 #
edge $-1 $382 0 $382 6.2831853071796004 $258 $383 forward 7 unknown #
face $-1 $384 $385 $39 $-1 $386 reversed single #
loop $-1 $-1 $387 $163 #
plane-surface $-1 -59.129001739555036 0 0 1 0 0 0 0 -1 forward_v I I I I #
coedge $-1 $271 $388 $273 $389 reversed $164 $-1 #
coedge $-1 $390 $166 $388 $391 forward $105 $-1 #
coedge $-1 $166 $390 $392 $393 forward $105 $-1 #
coedge $-1 $274 $273 $166 $267 reversed $275 $-1 #
edge $-1 $394 -25.251857012928784 $395 25.251857012928784 $266 $396 forward 7 unknown #
coedge $-1 $168 $167 $397 $398 forward $66 $-1 #
coedge $-1 $399 $400 $167 $270 reversed $385 $-1 #
edge $-1 $277 -59.129001739555036 $401 59.129001739555036 $269 $402 forward 7 unknown #
coedge $-1 $403 $263 $168 $272 reversed $164 $-1 #
edge $-1 $404 -59.129001739555036 $276 59.129001739555036 $271 $405 forward 7 unknown #
coedge $-1 $266 $169 $263 $389 forward $275 $-1 #
coedge $-1 $169 $266 $399 $406 reversed $275 $-1 #
loop $-1 $-1 $273 $384 #
vertex $-1 $170 $407 #
vertex $-1 $170 $408 #
straight-curve $-1 59.129001739555036 0 5.7848770002609315 0 1 0 I I #
face $-1 $409 $410 $40 $-1 $411 reversed single #
loop $-1 $-1 $291 $171 #
plane-surface $-1 0 -28.707847436413019 -2.7848770002609315 0 0 1 1 0 0 forward_v I I I I #
coedge $-1 $412 $413 $175 $287 forward $172 $-1 #
coedge $-1 $414 $174 $413 $415 forward $109 $-1 #
coedge $-1 $174 $414 $416 $417 forward $109 $-1 #
coedge $-1 $176 $175 $174 $286 reversed $69 $-1 #
edge $-1 $418 -59.129001739555036 $419 59.129001739555036 $174 $420 forward 7 unknown #
edge $-1 $419 -5.7848770002609315 $293 -2.7848770002609315 $282 $421 forward 7 unknown #
coedge $-1 $416 $422 $176 $289 forward $423 $-1 #
edge $-1 $292 2.7848770002609315 $418 5.7848770002609315 $288 $424 forward 7 unknown #
coedge $-1 $425 $177 $422 $426 forward $280 $-1 #
coedge $-1 $177 $425 $412 $427 forward $280 $-1 #
vertex $-1 $289 $428 #
vertex $-1 $427 $429 #
straight-curve $-1 0 -25.251857012928784 -2.7848770002609315 1 0 0 I I #
face $-1 $430 $431 $41 $-1 $432 reversed single #
loop $-1 $-1 $433 $179 #
plane-surface $-1 0 32.163837859897249 -4.2848770002609315 0 -1 0 0 0 -1 forward_v I I I I #
coedge $-1 $434 $185 $435 $436 forward $180 $-1 #
coedge $-1 $437 $182 $305 $438 reversed $113 $-1 #
coedge $-1 $182 $437 $439 $440 reversed $113 $-1 #
edge $-1 $441 -5.7848770002609315 $307 -2.7848770002609315 $182 $442 forward 7 unknown #
coedge $-1 $184 $183 $443 $444 reversed $72 $-1 #
coedge $-1 $445 $435 $184 $304 forward $446 $-1 #
edge $-1 $306 2.7848770002609315 $447 5.7848770002609315 $303 $448 forward 7 unknown #
coedge $-1 $185 $434 $299 $438 forward $180 $-1 #
vertex $-1 $304 $449 #
vertex $-1 $438 $450 #
straight-curve $-1 0 25.251857012928784 -2.7848770002609315 -1 0 0 I I #
face $-1 $-1 $321 $42 $-1 $451 forward single #
loop $-1 $-1 $452 $187 #
plane-surface $-1 -59.129001739555036 0 0 1 0 0 0 0 -1 forward_v I I I I #
coedge $-1 $453 $454 $455 $456 reversed $188 $-1 #
coedge $-1 $457 $190 $192 $319 forward $117 $-1 #
coedge $-1 $190 $457 $453 $458 forward $117 $-1 #
coedge $-1 $455 $193 $190 $316 forward $321 $-1 #
edge $-1 $323 -11.911260451491314 $459 -0.94597097744668979 $315 $460 forward 7 unknown #
coedge $-1 $461 $462 $191 $318 forward $310 $-1 #
edge $-1 $463 -36.553303503780228 $322 -32.083991281711945 $317 $464 forward 7 unknown #
edge $-1 $323 -5.7509301934719623 $463 0 $192 $465 forward 7 unknown #
coedge $-1 $193 $455 $461 $466 forward $321 $-1 #
loop $-1 $-1 $455 $309 #
vertex $-1 $318 $467 #
vertex $-1 $194 $468 #
straight-curve $-1 -75.51636626596428 -18.339876165960316 5.7848770002609342 1 0 0 I I #
coedge $-1 $325 $325 $-1 $469 reversed $197 $-1 #
edge $-1 $470 0 $470 6.2831853071796004 $198 $471 forward 7 unknown #
vertex $-1 $201 $472 #
ellipse-curve $-1 -57.319412949811735 -12.857231428938004 3.5502208892267912 -0.77714596973225614 0 0.62932038083071107 0.62932038083071107 0 0.77714596973225614 1 I I #
face $-1 $-1 $473 $44 $-1 $474 reversed single #
loop $-1 $-1 $208 $202 #
plane-surface $-1 0 0 5.7848770002609315 0 0 1 1 0 0 forward_v I I I I #
coedge $-1 $475 $476 $477 $478 reversed $203 $-1 #
coedge $-1 $479 $205 $207 $339 forward $126 $-1 #
coedge $-1 $205 $479 $475 $480 forward $126 $-1 #
coedge $-1 $477 $208 $205 $336 forward $330 $-1 #
edge $-1 $342 4.409098044031361 $481 10.756884762629756 $335 $482 forward 7 unknown #
coedge $-1 $483 $484 $206 $338 forward $473 $-1 #
edge $-1 $485 -82.646774963863592 $341 -78.403026985048996 $337 $486 forward 7 unknown #
edge $-1 $342 112.63498232843766 $485 118.25800347911009 $207 $487 forward 7 unknown #
coedge $-1 $208 $477 $483 $488 forward $330 $-1 #
vertex $-1 $338 $489 #
vertex $-1 $209 $490 #
straight-curve $-1 35.39761053908363 -11.99208944736192 5.7848770002609342 -1 0 0 I I #
coedge $-1 $344 $344 $-1 $491 reversed $212 $-1 #
edge $-1 $492 0 $492 6.2831853071796004 $213 $493 forward 7 unknown #
vertex $-1 $216 $494 #
ellipse-curve $-1 57.28448486831094 -17.070318822240637 3.663003010853644 0.75470958851134928 0 0.65605901945558964 0.32802950972779482 0 -0.37735479425567464 1 I I #
coedge $-1 $348 $348 $-1 $495 reversed $219 $-1 #
edge $-1 $496 0 $496 6.2831853071796004 $220 $497 forward 7 unknown #
vertex $-1 $223 $498 #
ellipse-curve $-1 57.28448486831094 -15.165982806661118 3.663003010853644 0.75470958851134928 0 0.65605901945558964 0.32802950972779482 0 -0.37735479425567464 1 I I #
coedge $-1 $352 $352 $-1 $499 reversed $226 $-1 #
edge $-1 $500 0 $500 6.2831853071796004 $227 $501 forward 7 unknown #
vertex $-1 $230 $502 #
ellipse-curve $-1 57.28448486831094 -13.261646791081599 3.663003010853644 0.75470958851134928 0 0.65605901945558964 0.32802950972779482 0 -0.37735479425567464 1 I I #
face $-1 $-1 $368 $48 $-1 $503 forward single #
loop $-1 $-1 $504 $231 #
plane-surface $-1 59.129001739555036 0 0 -1 0 0 0 0 1 forward_v I I I I #
coedge $-1 $505 $506 $507 $508 reversed $232 $-1 #
coedge $-1 $509 $234 $236 $366 forward $145 $-1 #
coedge $-1 $234 $509 $505 $510 forward $145 $-1 #
coedge $-1 $507 $237 $234 $363 forward $368 $-1 #
edge $-1 $370 -10.756884762629754 $511 -4.4090980440313601 $362 $512 forward 7 unknown #
coedge $-1 $513 $514 $235 $365 forward $357 $-1 #
edge $-1 $515 -82.646774963863592 $369 -78.403026985048996 $364 $516 forward 7 unknown #
edge $-1 $370 112.63498232843766 $515 118.25800347911009 $236 $517 forward 7 unknown #
coedge $-1 $237 $507 $513 $518 forward $368 $-1 #
loop $-1 $-1 $507 $356 #
vertex $-1 $365 $519 #
vertex $-1 $238 $520 #
straight-curve $-1 35.39761053908363 18.339876165960312 5.7848770002609342 -1 0 0 I I #
coedge $-1 $372 $372 $-1 $521 reversed $241 $-1 #
edge $-1 $522 0 $522 6.2831853071796004 $242 $523 forward 7 unknown #
vertex $-1 $245 $524 #
ellipse-curve $-1 57.28448486831094 13.261646791081599 3.663003010853644 0.75470958851134928 0 0.65605901945558964 0.32802950972779482 0 -0.37735479425567464 1 I I #
coedge $-1 $376 $376 $-1 $525 reversed $248 $-1 #
edge $-1 $526 0 $526 6.2831853071796004 $249 $527 forward 7 unknown #
vertex $-1 $252 $528 #
ellipse-curve $-1 57.28448486831094 15.165982806661116 3.663003010853644 0.75470958851134928 0 0.65605901945558964 0.32802950972779482 0 -0.37735479425567464 1 I I #
coedge $-1 $380 $380 $-1 $529 reversed $255 $-1 #
edge $-1 $530 0 $530 6.2831853071796004 $256 $531 forward 7 unknown #
vertex $-1 $259 $532 #
ellipse-curve $-1 57.28448486831094 17.070318822240633 3.663003010853644 0.75470958851134928 0 0.65605901945558964 0.32802950972779482 0 -0.37735479425567464 1 I I #
face $-1 $-1 $275 $39 $-1 $533 reversed single #
loop $-1 $-1 $400 $260 #
plane-surface $-1 0 25.251857012928784 0 0 -1 0 0 0 -1 forward_v I I I I #
coedge $-1 $534 $397 $400 $535 forward $261 $-1 #
coedge $-1 $263 $403 $264 $391 reversed $164 $-1 #
edge $-1 $276 -5.7848770002609315 $395 5.7848770002609315 $273 $536 forward 7 unknown #
coedge $-1 $265 $264 $534 $537 forward $105 $-1 #
edge $-1 $395 -59.129001739555036 $538 59.129001739555036 $388 $539 forward 7 unknown #
coedge $-1 $400 $399 $265 $393 reversed $385 $-1 #
edge $-1 $540 -59.129001739555036 $394 59.129001739555036 $392 $541 forward 7 unknown #
vertex $-1 $267 $542 #
vertex $-1 $389 $543 #
straight-curve $-1 59.129001739555036 0 -5.7848770002609315 0 -1 0 I I #
coedge $-1 $387 $544 $268 $398 reversed $261 $-1 #
edge $-1 $401 -25.251857012928784 $404 25.251857012928784 $397 $545 forward 7 unknown #
coedge $-1 $392 $269 $274 $406 forward $385 $-1 #
coedge $-1 $269 $392 $387 $535 reversed $385 $-1 #
vertex $-1 $270 $546 #
straight-curve $-1 0 25.251857012928784 5.7848770002609315 -1 0 0 I I #
coedge $-1 $388 $271 $544 $547 forward $164 $-1 #
vertex $-1 $398 $548 #
straight-curve $-1 0 -25.251857012928784 5.7848770002609315 1 0 0 I I #
edge $-1 $277 -5.7848770002609315 $394 5.7848770002609315 $274 $549 forward 7 unknown #
point $-1 59.129001739555036 -25.251857012928784 5.7848770002609315 #
point $-1 59.129001739555036 25.251857012928784 5.7848770002609315 #
face $-1 $-1 $423 $40 $-1 $550 reversed single #
loop $-1 $-1 $551 $279 #
plane-surface $-1 0 -32.163837859897257 -4.2848770002609315 0 1 0 0 0 1 forward_v I I I I #
coedge $-1 $552 $282 $291 $427 reversed $172 $-1 #
coedge $-1 $282 $552 $283 $415 reversed $172 $-1 #
coedge $-1 $284 $283 $553 $554 forward $109 $-1 #
edge $-1 $419 25.251857012928784 $555 32.163837859897257 $413 $556 forward 7 unknown #
coedge $-1 $557 $288 $284 $417 reversed $423 $-1 #
edge $-1 $558 -32.163837859897257 $418 -25.251857012928784 $416 $559 forward 7 unknown #
vertex $-1 $289 $560 #
vertex $-1 $415 $561 #
straight-curve $-1 0 -25.251857012928784 -5.7848770002609315 1 0 0 I I #
straight-curve $-1 59.129001739555036 -25.251857012928784 0 0 0 1 I I #
coedge $-1 $288 $557 $290 $426 reversed $423 $-1 #
loop $-1 $-1 $288 $409 #
straight-curve $-1 -59.129001739555036 -25.251857012928784 0 0 0 -1 I I #
coedge $-1 $291 $290 $562 $563 forward $280 $-1 #
edge $-1 $292 -3.4559904234842342 $564 3.4559904234842378 $422 $565 forward 7 unknown #
edge $-1 $566 -3.4559904234842378 $293 3.4559904234842342 $412 $567 forward 7 unknown #
point $-1 -59.129001739555036 -25.251857012928784 -2.7848770002609315 #
point $-1 59.129001739555036 -25.251857012928784 -2.7848770002609315 #
face $-1 $-1 $446 $41 $-1 $568 reversed single #
loop $-1 $-1 $443 $295 #
plane-surface $-1 0 0 -5.7848770002609315 0 0 1 1 0 0 forward_v I I I I #
coedge $-1 $569 $570 $571 $572 forward $296 $-1 #
coedge $-1 $305 $298 $570 $573 forward $180 $-1 #
coedge $-1 $303 $571 $298 $436 reversed $446 $-1 #
edge $-1 $306 -3.4559904234842342 $574 3.4559904234842342 $435 $575 forward 7 unknown #
coedge $-1 $300 $299 $576 $577 forward $113 $-1 #
edge $-1 $578 -3.4559904234842342 $307 3.4559904234842342 $299 $579 forward 7 unknown #
coedge $-1 $580 $443 $300 $440 forward $431 $-1 #
edge $-1 $441 -3.4559904234842307 $581 3.4559904234842342 $300 $582 forward 7 unknown #
vertex $-1 $440 $583 #
straight-curve $-1 -59.129001739555036 25.251857012928784 0 0 0 1 I I #
coedge $-1 $439 $584 $302 $444 forward $431 $-1 #
edge $-1 $447 -59.129001739555036 $441 59.129001739555036 $443 $585 forward 7 unknown #
coedge $-1 $571 $303 $584 $586 reversed $446 $-1 #
loop $-1 $-1 $303 $430 #
vertex $-1 $304 $587 #
straight-curve $-1 59.129001739555036 25.251857012928784 0 0 0 -1 I I #
point $-1 59.129001739555036 25.251857012928781 -2.7848770002609315 #
point $-1 -59.129001739555036 25.251857012928781 -2.7848770002609315 #
plane-surface $-1 0 0 5.7848770002609315 0 0 1 1 0 0 forward_v I I I I #
coedge $-1 $462 $461 $454 $588 forward $310 $-1 #
coedge $-1 $454 $312 $314 $458 reversed $188 $-1 #
coedge $-1 $312 $453 $452 $588 reversed $188 $-1 #
coedge $-1 $320 $315 $312 $456 forward $321 $-1 #
edge $-1 $459 -20.006542105895853 $589 -16.387364526409243 $455 $590 forward 7 unknown #
coedge $-1 $314 $313 $462 $591 reversed $117 $-1 #
edge $-1 $592 0 $459 5.7509301934719623 $453 $593 forward 7 unknown #
vertex $-1 $316 $594 #
straight-curve $-1 -55.509824160068426 -6.4286157144690019 5.7848770002609307 0 1 0 I I #
coedge $-1 $452 $317 $320 $466 reversed $310 $-1 #
coedge $-1 $317 $452 $457 $591 forward $310 $-1 #
vertex $-1 $318 $595 #
straight-curve $-1 -59.129001739555036 -18.339876165960316 37.86886828197288 0 0 1 I I #
straight-curve $-1 -59.129001739555036 -18.339876165960316 1.3155647781926518 -0.62932038083071107 0 -0.77714596973225614 I I #
edge $-1 $589 7.3745866919156917 $322 18.339876165960316 $461 $596 forward 7 unknown #
point $-1 -59.129001739555036 -18.339876165960316 5.7848770002609315 #
point $-1 -55.509824160068426 -18.339876165960316 5.7848770002609315 #
edge $-1 $597 1 $597 0 $325 $-1 forward 7 unknown #
vertex $-1 $326 $598 #
ellipse-curve $-1 -55.304933527492068 -12.857231428938004 1.918927661692444 -0.77714596973225614 0 0.62932038083071107 0.62932038083071107 0 0.77714596973225614 1 I I #
point $-1 -56.690092568981022 -12.857231428938004 4.3273668589590519 #
loop $-1 $-1 $337 $329 #
plane-surface $-1 59.129001739555036 0 0 -1 0 0 0 0 1 forward_v I I I I #
coedge $-1 $476 $332 $334 $480 reversed $203 $-1 #
coedge $-1 $332 $475 $599 $600 reversed $203 $-1 #
coedge $-1 $340 $335 $332 $478 forward $330 $-1 #
edge $-1 $481 20.042357457983215 $601 23.731391200471407 $477 $602 forward 7 unknown #
coedge $-1 $334 $333 $484 $603 reversed $126 $-1 #
edge $-1 $604 -118.25800347911009 $481 -112.63498232843766 $475 $605 forward 7 unknown #
vertex $-1 $336 $606 #
straight-curve $-1 55.439967997066844 -7.582991403330559 5.7848770002609271 0 -1 0 I I #
coedge $-1 $599 $337 $340 $488 reversed $473 $-1 #
coedge $-1 $337 $599 $479 $603 forward $473 $-1 #
vertex $-1 $338 $607 #
straight-curve $-1 59.129001739555036 -11.99208944736192 84.18790398530993 0 0 1 I I #
straight-curve $-1 -18.45522806572562 -11.99208944736192 90.791578165339203 0.65605901945558964 0 -0.75470958851134928 I I #
edge $-1 $601 -18.339876165960316 $341 -11.99208944736192 $483 $608 forward 7 unknown #
point $-1 59.129001739555036 -11.99208944736192 5.7848770002609315 #
point $-1 55.439967997066844 -11.99208944736192 5.7848770002609342 #
edge $-1 $609 1 $609 0 $344 $-1 forward 7 unknown #
vertex $-1 $345 $610 #
ellipse-curve $-1 56.446247513365783 -17.070318822240637 2.9343344136504479 0.75470958851134928 0 0.65605901945558964 0.32802950972779482 0 -0.37735479425567464 1 I I #
point $-1 57.612514378038725 -17.070318822240637 3.2856482165979655 #
edge $-1 $611 1 $611 0 $348 $-1 forward 7 unknown #
vertex $-1 $349 $612 #
ellipse-curve $-1 56.446247513365783 -15.165982806661118 2.9343344136504479 0.75470958851134928 0 0.65605901945558964 0.32802950972779482 0 -0.37735479425567464 1 I I #
point $-1 57.612514378038725 -15.165982806661118 3.2856482165979655 #
edge $-1 $613 1 $613 0 $352 $-1 forward 7 unknown #
vertex $-1 $353 $614 #
ellipse-curve $-1 56.446247513365783 -13.261646791081599 2.9343344136504479 0.75470958851134928 0 0.65605901945558964 0.32802950972779482 0 -0.37735479425567464 1 I I #
point $-1 57.612514378038725 -13.261646791081599 3.2856482165979655 #
plane-surface $-1 0 0 5.7848770002609315 0 0 1 1 0 0 forward_v I I I I #
coedge $-1 $514 $513 $506 $615 forward $357 $-1 #
coedge $-1 $506 $359 $361 $510 reversed $232 $-1 #
coedge $-1 $359 $505 $504 $615 reversed $232 $-1 #
coedge $-1 $367 $362 $359 $508 forward $368 $-1 #
edge $-1 $511 20.042357457983215 $616 23.731391200471407 $507 $617 forward 7 unknown #
coedge $-1 $361 $360 $514 $618 reversed $145 $-1 #
edge $-1 $619 -118.25800347911009 $511 -112.63498232843766 $505 $620 forward 7 unknown #
vertex $-1 $363 $621 #
straight-curve $-1 55.439967997066844 7.5829914033305581 5.7848770002609271 0 -1 0 I I #
coedge $-1 $504 $364 $367 $518 reversed $357 $-1 #
coedge $-1 $364 $504 $509 $618 forward $357 $-1 #
vertex $-1 $365 $622 #
straight-curve $-1 59.129001739555036 18.339876165960312 84.18790398530993 0 0 1 I I #
straight-curve $-1 -18.45522806572562 18.339876165960312 90.791578165339203 0.65605901945558964 0 -0.75470958851134928 I I #
edge $-1 $616 11.992089447361918 $369 18.339876165960312 $513 $623 forward 7 unknown #
point $-1 59.129001739555036 18.339876165960312 5.7848770002609315 #
point $-1 55.439967997066844 18.339876165960312 5.7848770002609342 #
edge $-1 $624 1 $624 0 $372 $-1 forward 7 unknown #
vertex $-1 $373 $625 #
ellipse-curve $-1 56.446247513365783 13.261646791081599 2.9343344136504479 0.75470958851134928 0 0.65605901945558964 0.32802950972779482 0 -0.37735479425567464 1 I I #
point $-1 57.612514378038725 13.261646791081599 3.2856482165979655 #
edge $-1 $626 1 $626 0 $376 $-1 forward 7 unknown #
vertex $-1 $377 $627 #
ellipse-curve $-1 56.446247513365783 15.165982806661116 2.9343344136504479 0.75470958851134928 0 0.65605901945558964 0.32802950972779482 0 -0.37735479425567464 1 I I #
point $-1 57.612514378038725 15.165982806661116 3.2856482165979655 #
edge $-1 $628 1 $628 0 $380 $-1 forward 7 unknown #
vertex $-1 $381 $629 #
ellipse-curve $-1 56.446247513365783 17.070318822240633 2.9343344136504479 0.75470958851134928 0 0.65605901945558964 0.32802950972779482 0 -0.37735479425567464 1 I I #
point $-1 57.612514378038725 17.070318822240633 3.2856482165979655 #
plane-surface $-1 59.129001739555036 0 0 -1 0 0 0 0 1 forward_v I I I I #
coedge $-1 $544 $387 $390 $537 reversed $261 $-1 #
edge $-1 $401 -5.7848770002609315 $540 5.7848770002609315 $400 $630 forward 7 unknown #
straight-curve $-1 59.129001739555036 -25.251857012928784 0 0 0 -1 I I #
edge $-1 $538 -25.251857012928784 $540 25.251857012928784 $534 $631 forward 7 unknown #
vertex $-1 $537 $632 #
straight-curve $-1 0 -25.251857012928784 -5.7848770002609315 -1 0 0 I I #
vertex $-1 $393 $633 #
straight-curve $-1 0 25.251857012928784 -5.7848770002609315 1 0 0 I I #
point $-1 59.129001739555036 25.251857012928784 -5.7848770002609315 #
point $-1 59.129001739555036 -25.251857012928784 -5.7848770002609315 #
coedge $-1 $397 $534 $403 $547 reversed $261 $-1 #
straight-curve $-1 -59.129001739555036 0 5.7848770002609315 0 -1 0 I I #
point $-1 -59.129001739555036 25.251857012928784 5.7848770002609315 #
edge $-1 $404 -5.7848770002609315 $538 5.7848770002609315 $544 $634 forward 7 unknown #
point $-1 -59.129001739555036 -25.251857012928784 5.7848770002609315 #
straight-curve $-1 59.129001739555036 25.251857012928784 0 0 0 -1 I I #
plane-surface $-1 -59.129001739555036 0 0 1 0 0 0 0 -1 forward_v I I I I #
coedge $-1 $553 $562 $557 $635 forward $410 $-1 #
coedge $-1 $413 $412 $636 $637 forward $172 $-1 #
coedge $-1 $636 $551 $414 $554 reversed $410 $-1 #
edge $-1 $555 -59.129001739555036 $558 59.129001739555036 $553 $638 forward 7 unknown #
vertex $-1 $637 $639 #
straight-curve $-1 59.129001739555036 0 -5.7848770002609315 0 -1 0 I I #
coedge $-1 $422 $416 $551 $635 reversed $423 $-1 #
vertex $-1 $417 $640 #
straight-curve $-1 -59.129001739555036 0 -5.7848770002609315 0 1 0 I I #
point $-1 -59.129001739555036 -25.251857012928784 -5.7848770002609315 #
point $-1 59.129001739555036 -25.251857012928784 -5.7848770002609315 #
coedge $-1 $551 $636 $425 $563 reversed $410 $-1 #
edge $-1 $564 -59.129001739555036 $566 59.129001739555036 $562 $641 forward 7 unknown #
vertex $-1 $426 $642 #
straight-curve $-1 -59.129001739555036 -28.707847436413019 -2.7848770002609315 0 -1 0 I I #
vertex $-1 $427 $643 #
straight-curve $-1 59.129001739555036 -28.707847436413019 -2.7848770002609315 0 1 0 I I #
plane-surface $-1 59.129001739555036 0 0 -1 0 0 0 0 1 forward_v I I I I #
coedge $-1 $576 $433 $580 $644 reversed $296 $-1 #
coedge $-1 $433 $576 $434 $573 reversed $296 $-1 #
coedge $-1 $435 $445 $433 $572 reversed $446 $-1 #
edge $-1 $574 -1.5 $645 1.5 $571 $646 forward 7 unknown #
edge $-1 $574 -59.129001739555036 $578 59.129001739555036 $570 $647 forward 7 unknown #
vertex $-1 $436 $648 #
straight-curve $-1 59.129001739555036 28.707847436413015 -2.7848770002609315 0 1 0 I I #
coedge $-1 $570 $569 $437 $577 reversed $296 $-1 #
edge $-1 $578 -1.5 $581 1.5 $576 $649 forward 7 unknown #
vertex $-1 $573 $650 #
straight-curve $-1 -59.129001739555036 28.707847436413015 -2.7848770002609315 0 -1 0 I I #
coedge $-1 $584 $439 $569 $644 forward $431 $-1 #
vertex $-1 $644 $651 #
straight-curve $-1 -59.129001739555036 28.707847436413015 -5.7848770002609315 0 1 0 I I #
point $-1 -59.129001739555036 25.251857012928784 -5.7848770002609315 #
coedge $-1 $443 $580 $445 $586 forward $431 $-1 #
straight-curve $-1 0 25.251857012928784 -5.7848770002609315 -1 0 0 I I #
edge $-1 $645 -32.163837859897249 $447 -25.251857012928784 $445 $652 forward 7 unknown #
point $-1 59.129001739555036 25.251857012928784 -5.7848770002609315 #
edge $-1 $589 32.083991281711945 $592 36.553303503780228 $452 $653 forward 7 unknown #
vertex $-1 $466 $654 #
straight-curve $-1 -75.51636626596428 -7.3745866919156917 5.7848770002609342 -1 0 0 I I #
edge $-1 $592 0.94597097744668979 $463 11.911260451491314 $462 $655 forward 7 unknown #
vertex $-1 $591 $656 #
straight-curve $-1 -59.129001739555036 -7.3745866919156917 1.3155647781926518 0.62932038083071107 0 0.77714596973225614 I I #
point $-1 -55.509824160068426 -7.3745866919156917 5.7848770002609315 #
point $-1 -59.129001739555036 -18.339876165960316 1.3155647781926518 #
straight-curve $-1 -59.129001739555036 0 5.7848770002609315 0 -1 0 I I #
vertex $-1 $469 $657 #
point $-1 -54.675613146661355 -12.857231428938004 2.6960736314247002 #
coedge $-1 $484 $483 $476 $600 forward $473 $-1 #
edge $-1 $601 78.403026985048996 $604 82.646774963863592 $599 $658 forward 7 unknown #
vertex $-1 $488 $659 #
straight-curve $-1 35.39761053908363 -18.339876165960316 5.7848770002609342 1 0 0 I I #
edge $-1 $604 -10.756884762629756 $485 -4.409098044031361 $484 $660 forward 7 unknown #
vertex $-1 $603 $661 #
straight-curve $-1 -18.45522806572562 -18.339876165960316 90.791578165339203 -0.65605901945558964 0 0.75470958851134928 I I #
point $-1 55.439967997066844 -18.339876165960316 5.7848770002609342 #
point $-1 59.129001739555036 -11.99208944736192 1.5411290214463378 #
straight-curve $-1 59.129001739555036 0 5.7848770002609315 0 1 0 I I #
vertex $-1 $491 $662 #
point $-1 56.774277023093575 -17.070318822240637 2.5569796193947734 #
vertex $-1 $495 $663 #
point $-1 56.774277023093575 -15.165982806661118 2.5569796193947734 #
vertex $-1 $499 $664 #
point $-1 56.774277023093575 -13.261646791081599 2.5569796193947734 #
edge $-1 $616 78.403026985048996 $619 82.646774963863592 $504 $665 forward 7 unknown #
vertex $-1 $518 $666 #
straight-curve $-1 35.39761053908363 11.992089447361918 5.7848770002609342 1 0 0 I I #
edge $-1 $619 4.4090980440313601 $515 10.756884762629754 $514 $667 forward 7 unknown #
vertex $-1 $618 $668 #
straight-curve $-1 -18.45522806572562 11.992089447361918 90.791578165339203 -0.65605901945558964 0 0.75470958851134928 I I #
point $-1 55.439967997066844 11.992089447361918 5.7848770002609342 #
point $-1 59.129001739555036 18.339876165960312 1.5411290214463378 #
straight-curve $-1 59.129001739555036 0 5.7848770002609315 0 1 0 I I #
vertex $-1 $521 $669 #
point $-1 56.774277023093575 13.261646791081599 2.5569796193947734 #
vertex $-1 $525 $670 #
point $-1 56.774277023093575 15.165982806661116 2.5569796193947734 #
vertex $-1 $529 $671 #
point $-1 56.774277023093575 17.070318822240633 2.5569796193947734 #
straight-curve $-1 -59.129001739555036 25.251857012928784 0 0 0 -1 I I #
straight-curve $-1 -59.129001739555036 0 -5.7848770002609315 0 1 0 I I #
point $-1 -59.129001739555036 -25.251857012928784 -5.7848770002609315 #
point $-1 -59.129001739555036 25.251857012928784 -5.7848770002609315 #
straight-curve $-1 -59.129001739555036 -25.251857012928784 0 0 0 -1 I I #
edge $-1 $564 -1.5 $558 1.5 $557 $672 forward 7 unknown #
coedge $-1 $562 $553 $552 $637 reversed $410 $-1 #
edge $-1 $566 -1.5 $555 1.5 $552 $673 forward 7 unknown #
straight-curve $-1 0 -32.163837859897257 -5.7848770002609315 -1 0 0 I I #
point $-1 59.129001739555036 -32.163837859897257 -5.7848770002609315 #
point $-1 -59.129001739555036 -32.163837859897257 -5.7848770002609315 #
straight-curve $-1 0 -32.163837859897257 -2.7848770002609315 1 0 0 I I #
point $-1 -59.129001739555036 -32.163837859897257 -2.7848770002609315 #
point $-1 59.129001739555036 -32.163837859897257 -2.7848770002609315 #
edge $-1 $581 -59.129001739555036 $645 59.129001739555036 $569 $674 forward 7 unknown #
vertex $-1 $586 $675 #
straight-curve $-1 59.129001739555036 32.163837859897249 -4.2848770002609315 0 0 -1 I I #
straight-curve $-1 0 32.163837859897249 -2.7848770002609315 -1 0 0 I I #
point $-1 59.129001739555036 32.163837859897249 -2.7848770002609315 #
straight-curve $-1 -59.129001739555036 32.163837859897249 -4.2848770002609315 0 0 -1 I I #
point $-1 -59.129001739555036 32.163837859897249 -2.7848770002609315 #
point $-1 -59.129001739555036 32.163837859897249 -5.7848770002609315 #
straight-curve $-1 59.129001739555036 0 -5.7848770002609315 0 -1 0 I I #
straight-curve $-1 -59.129001739555036 -7.3745866919156917 37.86886828197288 0 0 -1 I I #
point $-1 -59.129001739555036 -7.3745866919156917 5.7848770002609315 #
straight-curve $-1 -59.129001739555036 -6.4286157144690019 1.3155647781926523 0 -1 0 I I #
point $-1 -59.129001739555036 -7.3745866919156917 1.3155647781926518 #
point $-1 -54.527787557759808 -12.857231428938004 1.2896072808617332 #
straight-curve $-1 59.129001739555036 -18.339876165960316 84.18790398530993 0 0 -1 I I #
point $-1 59.129001739555036 -18.339876165960316 5.7848770002609315 #
straight-curve $-1 59.129001739555036 -7.582991403330559 1.5411290214463378 0 1 0 I I #
point $-1 59.129001739555036 -18.339876165960316 1.5411290214463378 #
point $-1 56.068892719110103 -17.070318822240637 2.6063049039226529 #
point $-1 56.068892719110103 -15.165982806661118 2.6063049039226529 #
point $-1 56.068892719110103 -13.261646791081599 2.6063049039226529 #
straight-curve $-1 59.129001739555036 11.992089447361918 84.18790398530993 0 0 -1 I I #
point $-1 59.129001739555036 11.992089447361918 5.7848770002609315 #
straight-curve $-1 59.129001739555036 7.5829914033305581 1.5411290214463378 0 1 0 I I #
point $-1 59.129001739555036 11.992089447361918 1.5411290214463378 #
point $-1 56.068892719110103 13.261646791081599 2.6063049039226529 #
point $-1 56.068892719110103 15.165982806661116 2.6063049039226529 #
point $-1 56.068892719110103 17.070318822240633 2.6063049039226529 #
straight-curve $-1 -59.129001739555036 -32.163837859897257 -4.2848770002609315 0 0 -1 I I #
straight-curve $-1 59.129001739555036 -32.163837859897257 -4.2848770002609315 0 0 -1 I I #
straight-curve $-1 0 32.163837859897249 -5.7848770002609315 1 0 0 I I #
point $-1 59.129001739555036 32.163837859897249 -5.7848770002609315 #
End-of-ACIS-data 