500 0 6 0           
7 Unknown 11 ACIS 5.0 NT 24 Fri Mar 26 15:23:46 1999 
-1 9.9999999999999995e-007 1e-010 
body $-1 $6 $-1 $7 #
body $-1 $8 $-1 $9 #
body $-1 $10 $-1 $11 #
body $-1 $12 $-1 $13 #
body $-1 $14 $-1 $15 #
body $-1 $16 $-1 $17 #
lump $-1 $-1 $18 $0 #
transform $-1 1 0 0 0 1 0 0 0 1 56.023438215277565 38.807605088129129 10.105823929440847 1 rotate no_reflect no_shear #
lump $-1 $-1 $19 $1 #
transform $-1 1 0 0 0 1 0 0 0 1 56.023438215277565 38.807605088129129 10.105823929440847 1 rotate no_reflect no_shear #
lump $-1 $-1 $20 $2 #
transform $-1 1 0 0 0 1 0 0 0 1 56.023438215277565 38.807605088129129 10.105823929440847 1 rotate no_reflect no_shear #
lump $-1 $-1 $21 $3 #
transform $-1 1 0 0 0 1 0 0 0 1 56.023438215277565 38.807605088129129 10.105823929440847 1 rotate no_reflect no_shear #
lump $-1 $-1 $22 $4 #
transform $-1 1 0 0 0 1 0 0 0 1 56.023438215277565 38.807605088129129 10.105823929440847 1 rotate no_reflect no_shear #
lump $-1 $-1 $23 $5 #
transform $-1 1 0 0 0 1 0 0 0 1 56.023438215277565 38.807605088129129 10.105823929440847 1 rotate no_reflect no_shear #
shell $-1 $-1 $-1 $24 $-1 $6 #
shell $-1 $-1 $-1 $25 $-1 $8 #
shell $-1 $-1 $-1 $26 $-1 $10 #
shell $-1 $-1 $-1 $27 $-1 $12 #
shell $-1 $-1 $-1 $28 $-1 $14 #
shell $-1 $-1 $-1 $29 $-1 $16 #
face $-1 $30 $31 $18 $-1 $32 forward single #
face $-1 $33 $34 $19 $-1 $35 reversed single #
face $-1 $36 $37 $20 $-1 $38 reversed single #
face $-1 $39 $40 $21 $-1 $41 forward single #
face $-1 $42 $43 $22 $-1 $44 reversed single #
face $-1 $45 $46 $23 $-1 $47 forward single #
face $-1 $48 $49 $18 $-1 $50 reversed single #
loop $-1 $-1 $51 $24 #
plane-surface $-1 0 0 10.105823929440847 0 0 1 1 0 0 forward_v I I I I #
face $-1 $52 $53 $19 $-1 $54 reversed single #
loop $-1 $-1 $55 $25 #
plane-surface $-1 0 -33.233796143958983 7.105823929440847 0 0 1 1 0 0 forward_v I I I I #
face $-1 $56 $57 $20 $-1 $58 reversed single #
loop $-1 $-1 $59 $26 #
plane-surface $-1 -9.8360620539445307 32.415117312118817 96.762822566501413 0.80901700255871778 0 0.5877852410284794 0.5877852410284794 0 -0.80901700255871778 forward_v I I I I #
face $-1 $60 $61 $21 $-1 $62 forward single #
loop $-1 $63 $64 $27 #
cone-surface $-1 53.9810815476228 32.415117312118817 7.6798578911809177 -0.80901700255871778 0 -0.5877852410284794 0.2938926205142397 0 -0.40450850127935889 1 I I 0 1 0.5 forward I I I I #
face $-1 $65 $66 $22 $-1 $67 reversed single #
loop $-1 $-1 $68 $28 #
plane-surface $-1 -56.023438215277579 32.415117312118817 6.1149944505866642 -0.80901700255871778 0 0.5877852410284794 0.5877852410284794 0 0.80901700255871778 forward_v I I I I #
face $-1 $69 $70 $23 $-1 $71 forward single #
loop $-1 $72 $73 $29 #
cone-surface $-1 -53.9810815476228 32.415117312118817 7.6798578911809248 0.80901700255871778 0 -0.5877852410284794 0.2938926205142397 0 0.40450850127935889 1 I I 0 1 0.5 forward I I I I #
face $-1 $74 $75 $18 $-1 $76 reversed single #
loop $-1 $-1 $77 $30 #
plane-surface $-1 0 0 -10.105823929440847 0 0 1 1 0 0 forward_v I I I I #
coedge $-1 $78 $79 $80 $81 forward $31 $-1 #
face $-1 $82 $83 $19 $-1 $84 reversed single #
loop $-1 $-1 $85 $33 #
plane-surface $-1 0 -27.659987199788837 8.605823929440847 0 -1 0 0 0 -1 forward_v I I I I #
coedge $-1 $86 $87 $88 $89 reversed $34 $-1 #
face $-1 $90 $91 $20 $-1 $92 reversed single #
loop $-1 $-1 $93 $36 #
plane-surface $-1 80.811766061970218 26.022629536108489 162.62232283572351 0 1 0 0.80901700255871778 0 0.5877852410284794 forward_v I I I I #
coedge $-1 $94 $95 $96 $97 reversed $37 $-1 #
face $-1 $-1 $98 $21 $-1 $99 forward single #
loop $-1 $100 $101 $39 #
cone-surface $-1 53.186224256083321 32.415117312118817 7.1023602820909684 -0.80901700255871778 0 -0.5877852410284794 0.14694631025711985 0 -0.20225425063967944 1 I I -0.70710678118654746 0.70710678118654746 0.25 forward I I I I #
loop $-1 $-1 $102 $27 #
coedge $-1 $64 $64 $103 $104 reversed $40 $-1 #
face $-1 $105 $106 $22 $-1 $107 forward single #
loop $-1 $-1 $108 $42 #
plane-surface $-1 -146.67126633119233 26.022629536108489 71.97449471980876 0 1 0 -0.80901700255871778 0 0.5877852410284794 forward_v I I I I #
coedge $-1 $109 $110 $111 $112 reversed $43 $-1 #
face $-1 $-1 $113 $23 $-1 $114 forward single #
loop $-1 $115 $116 $45 #
cone-surface $-1 -53.186224256083321 32.415117312118817 7.1023602820909755 0.80901700255871778 0 -0.5877852410284794 0.14694631025711985 0 0.20225425063967944 1 I I -0.70710678118654746 0.70710678118654746 0.25 forward I I I I #
loop $-1 $-1 $117 $29 #
coedge $-1 $73 $73 $118 $119 reversed $46 $-1 #
face $-1 $120 $121 $18 $-1 $122 reversed single #
loop $-1 $-1 $123 $48 #
plane-surface $-1 0 -38.807605088129129 0 0 1 0 0 0 1 forward_v I I I I #
coedge $-1 $124 $125 $126 $127 forward $49 $-1 #
coedge $-1 $128 $51 $129 $130 forward $31 $-1 #
coedge $-1 $51 $128 $131 $132 forward $31 $-1 #
coedge $-1 $133 $134 $51 $81 reversed $135 $-1 #
edge $-1 $136 -38.807605088129129 $137 38.807605088129129 $80 $138 forward 7 unknown #
face $-1 $139 $140 $19 $-1 $141 reversed single #
loop $-1 $-1 $142 $52 #
plane-surface $-1 -56.023438215277565 0 0 1 0 0 0 0 -1 forward_v I I I I #
coedge $-1 $143 $144 $145 $146 reversed $53 $-1 #
coedge $-1 $147 $55 $148 $149 reversed $34 $-1 #
coedge $-1 $55 $147 $143 $150 forward $34 $-1 #
coedge $-1 $145 $151 $55 $89 forward $152 $-1 #
edge $-1 $153 -22.190707016149638 $154 -11.043089127809345 $88 $155 forward 7 unknown #
face $-1 $156 $157 $20 $-1 $158 forward single #
loop $-1 $-1 $159 $56 #
plane-surface $-1 0 38.807605088129129 0 0 -1 0 0 0 -1 forward_v I I I I #
coedge $-1 $160 $161 $162 $163 reversed $57 $-1 #
coedge $-1 $164 $59 $159 $165 reversed $37 $-1 #
coedge $-1 $59 $164 $160 $166 forward $37 $-1 #
coedge $-1 $162 $167 $59 $97 forward $157 $-1 #
edge $-1 $168 -22.600046432069735 $169 -9.8150708800490811 $96 $170 forward 7 unknown #
loop $-1 $-1 $103 $60 #
plane-surface $-1 -9.8360620539445307 32.415117312118817 96.762822566501413 0.80901700255871778 0 0.5877852410284794 0.5877852410284794 0 -0.80901700255871778 forward_v I I I I #
loop $-1 $-1 $171 $39 #
coedge $-1 $101 $101 $102 $172 reversed $61 $-1 #
coedge $-1 $102 $102 $101 $172 forward $63 $-1 #
coedge $-1 $103 $103 $64 $104 forward $98 $-1 #
edge $-1 $173 0 $173 6.2831853071796004 $103 $174 forward 7 unknown #
face $-1 $175 $176 $22 $-1 $177 reversed single #
loop $-1 $-1 $178 $65 #
plane-surface $-1 0 0 10.105823929440847 0 0 1 1 0 0 forward_v I I I I #
coedge $-1 $179 $180 $181 $182 reversed $66 $-1 #
coedge $-1 $183 $68 $184 $185 reversed $43 $-1 #
coedge $-1 $68 $183 $179 $186 forward $43 $-1 #
coedge $-1 $181 $187 $68 $112 forward $188 $-1 #
edge $-1 $189 -22.600046432069721 $190 -9.8150708800490811 $111 $191 forward 7 unknown #
loop $-1 $-1 $118 $69 #
plane-surface $-1 -56.023438215277579 32.415117312118817 6.1149944505866642 -0.80901700255871778 0 0.5877852410284794 0.5877852410284794 0 0.80901700255871778 forward_v I I I I #
loop $-1 $-1 $192 $45 #
coedge $-1 $116 $116 $117 $193 reversed $70 $-1 #
coedge $-1 $117 $117 $116 $193 forward $72 $-1 #
coedge $-1 $118 $118 $73 $119 forward $113 $-1 #
edge $-1 $194 0 $194 6.2831853071796004 $118 $195 forward 7 unknown #
face $-1 $196 $197 $18 $-1 $198 reversed single #
loop $-1 $-1 $199 $74 #
plane-surface $-1 -56.023438215277565 0 0 1 0 0 0 0 -1 forward_v I I I I #
coedge $-1 $200 $131 $201 $202 forward $75 $-1 #
coedge $-1 $203 $77 $200 $204 forward $49 $-1 #
coedge $-1 $77 $203 $205 $206 forward $49 $-1 #
coedge $-1 $134 $133 $77 $127 reversed $135 $-1 #
edge $-1 $207 -38.807605088129129 $208 38.807605088129129 $126 $209 forward 7 unknown #
coedge $-1 $79 $78 $210 $211 forward $31 $-1 #
coedge $-1 $212 $213 $78 $130 reversed $197 $-1 #
edge $-1 $137 -56.023438215277565 $214 56.023438215277565 $129 $215 forward 7 unknown #
coedge $-1 $123 $216 $79 $132 reversed $75 $-1 #
edge $-1 $217 -56.023438215277565 $136 56.023438215277565 $131 $218 forward 7 unknown #
coedge $-1 $126 $80 $216 $219 forward $135 $-1 #
coedge $-1 $80 $126 $212 $220 reversed $135 $-1 #
loop $-1 $-1 $133 $196 #
vertex $-1 $81 $221 #
vertex $-1 $81 $222 #
straight-curve $-1 56.023438215277565 0 10.105823929440847 0 1 0 I I #
face $-1 $223 $224 $19 $-1 $225 forward single #
loop $-1 $-1 $148 $82 #
plane-surface $-1 0 -38.807605088129129 0 0 1 0 0 0 1 forward_v I I I I #
coedge $-1 $226 $227 $228 $229 forward $83 $-1 #
coedge $-1 $228 $85 $87 $150 reversed $53 $-1 #
coedge $-1 $85 $228 $230 $231 reversed $53 $-1 #
coedge $-1 $232 $88 $85 $146 forward $152 $-1 #
edge $-1 $154 2.8029119647204235 $233 5.8029119647204235 $145 $234 forward 7 unknown #
coedge $-1 $87 $86 $226 $235 reversed $34 $-1 #
coedge $-1 $236 $237 $86 $149 forward $140 $-1 #
edge $-1 $238 -56.023438215277565 $153 56.023438215277565 $148 $239 forward 7 unknown #
edge $-1 $240 -56.023438215277565 $154 56.023438215277565 $143 $241 forward 7 unknown #
coedge $-1 $88 $232 $236 $242 forward $152 $-1 #
loop $-1 $-1 $145 $223 #
vertex $-1 $149 $243 #
vertex $-1 $89 $244 #
straight-curve $-1 56.023438215277565 -16.616898071979492 7.105823929440847 0 1 0 I I #
face $-1 $-1 $245 $20 $-1 $246 reversed single #
loop $-1 $-1 $96 $90 #
plane-surface $-1 0 0 10.105823929440847 0 0 1 1 0 0 forward_v I I I I #
coedge $-1 $247 $248 $94 $165 forward $91 $-1 #
coedge $-1 $161 $93 $95 $166 reversed $57 $-1 #
coedge $-1 $93 $160 $249 $250 reversed $57 $-1 #
coedge $-1 $251 $96 $93 $163 forward $157 $-1 #
edge $-1 $169 12.718047930782518 $252 15.617555184292456 $162 $253 forward 7 unknown #
coedge $-1 $95 $94 $254 $255 reversed $37 $-1 #
edge $-1 $256 -70.014746042044678 $168 -65.081809569470934 $159 $257 forward 7 unknown #
edge $-1 $258 -112.04687643055513 $169 -107.11393995798139 $160 $259 forward 7 unknown #
coedge $-1 $96 $251 $247 $260 forward $157 $-1 #
vertex $-1 $97 $261 #
vertex $-1 $97 $262 #
straight-curve $-1 53.123930961767634 16.207558656059408 10.105823929440845 0 -1 0 I I #
coedge $-1 $171 $171 $-1 $263 reversed $100 $-1 #
edge $-1 $264 0 $264 6.2831853071796004 $101 $265 forward 7 unknown #
vertex $-1 $104 $266 #
ellipse-curve $-1 54.573684588522596 32.415117312118817 8.1104091900137476 0.80901700255871778 0 0.5877852410284794 0.2938926205142397 0 -0.40450850127935889 1 I I #
face $-1 $-1 $188 $22 $-1 $267 reversed single #
loop $-1 $-1 $184 $105 #
plane-surface $-1 0 38.807605088129129 0 0 -1 0 0 0 -1 forward_v I I I I #
coedge $-1 $268 $269 $180 $270 forward $106 $-1 #
coedge $-1 $180 $108 $110 $186 reversed $66 $-1 #
coedge $-1 $108 $179 $178 $270 reversed $66 $-1 #
coedge $-1 $271 $111 $108 $182 forward $188 $-1 #
edge $-1 $190 -29.872252909317695 $272 -25.881423430463535 $181 $273 forward 7 unknown #
coedge $-1 $110 $109 $268 $274 reversed $43 $-1 #
coedge $-1 $275 $276 $109 $185 forward $176 $-1 #
edge $-1 $277 9.0583713541933779 $189 13.991307826767095 $184 $278 forward 7 unknown #
edge $-1 $279 -4.9329364725737399 $190 -2.4161062406544664e-014 $179 $280 forward 7 unknown #
coedge $-1 $111 $271 $275 $281 forward $188 $-1 #
loop $-1 $-1 $181 $175 #
vertex $-1 $185 $282 #
vertex $-1 $112 $283 #
straight-curve $-1 -56.023438215277565 16.207558656059408 6.1149944505866856 0 -1 0 I I #
coedge $-1 $192 $192 $-1 $284 reversed $115 $-1 #
edge $-1 $285 0 $285 6.2831853071796004 $116 $286 forward 7 unknown #
vertex $-1 $119 $287 #
ellipse-curve $-1 -54.57368458852261 32.415117312118817 8.1104091900137618 -0.80901700255871778 0 0.5877852410284794 0.2938926205142397 0 0.40450850127935889 1 I I #
face $-1 $-1 $135 $18 $-1 $288 reversed single #
loop $-1 $-1 $212 $120 #
plane-surface $-1 0 38.807605088129129 0 0 -1 0 0 0 -1 forward_v I I I I #
coedge $-1 $289 $210 $213 $290 forward $121 $-1 #
coedge $-1 $216 $123 $124 $204 reversed $75 $-1 #
coedge $-1 $210 $289 $123 $202 reversed $121 $-1 #
edge $-1 $217 -10.105823929440847 $291 10.105823929440847 $201 $292 forward 7 unknown #
coedge $-1 $125 $124 $289 $293 forward $49 $-1 #
edge $-1 $208 -56.023438215277565 $291 56.023438215277565 $200 $294 forward 7 unknown #
coedge $-1 $213 $212 $125 $206 reversed $197 $-1 #
edge $-1 $295 -56.023438215277565 $207 56.023438215277565 $205 $296 forward 7 unknown #
vertex $-1 $127 $297 #
vertex $-1 $219 $298 #
straight-curve $-1 56.023438215277565 0 -10.105823929440847 0 -1 0 I I #
coedge $-1 $199 $201 $128 $211 reversed $121 $-1 #
edge $-1 $214 -38.807605088129129 $217 38.807605088129129 $210 $299 forward 7 unknown #
coedge $-1 $205 $129 $134 $220 forward $197 $-1 #
coedge $-1 $129 $205 $199 $290 reversed $197 $-1 #
vertex $-1 $130 $300 #
straight-curve $-1 0 38.807605088129129 10.105823929440847 -1 0 0 I I #
coedge $-1 $131 $200 $133 $219 reversed $75 $-1 #
vertex $-1 $211 $301 #
straight-curve $-1 0 -38.807605088129129 10.105823929440847 1 0 0 I I #
edge $-1 $136 -10.105823929440847 $208 10.105823929440847 $133 $302 forward 7 unknown #
edge $-1 $137 -10.105823929440847 $207 10.105823929440847 $134 $303 forward 7 unknown #
point $-1 56.023438215277565 -38.807605088129129 10.105823929440847 #
point $-1 56.023438215277565 38.807605088129129 10.105823929440847 #
face $-1 $-1 $152 $19 $-1 $304 reversed single #
loop $-1 $-1 $230 $139 #
plane-surface $-1 0 0 10.105823929440847 0 0 1 1 0 0 forward_v I I I I #
coedge $-1 $305 $142 $147 $235 forward $83 $-1 #
coedge $-1 $142 $305 $306 $307 reversed $83 $-1 #
coedge $-1 $144 $143 $142 $229 reversed $53 $-1 #
edge $-1 $308 -5.8029119647204235 $240 -2.8029119647204235 $142 $309 forward 7 unknown #
coedge $-1 $306 $310 $144 $231 forward $224 $-1 #
edge $-1 $233 -56.023438215277565 $308 56.023438215277565 $230 $311 forward 7 unknown #
coedge $-1 $151 $145 $310 $312 reversed $152 $-1 #
vertex $-1 $146 $313 #
straight-curve $-1 56.023438215277565 -27.659987199788837 4.3029119647204235 0 0 1 I I #
edge $-1 $240 11.043089127809345 $238 22.190707016149638 $226 $314 forward 7 unknown #
coedge $-1 $315 $148 $151 $242 reversed $140 $-1 #
coedge $-1 $148 $315 $305 $316 forward $140 $-1 #
vertex $-1 $149 $317 #
straight-curve $-1 0 -38.807605088129129 7.105823929440847 1 0 0 I I #
vertex $-1 $235 $318 #
straight-curve $-1 0 -27.659987199788837 7.105823929440847 1 0 0 I I #
edge $-1 $319 -10.105823929440847 $153 -7.105823929440847 $151 $320 forward 7 unknown #
point $-1 56.023438215277565 -38.807605088129129 7.105823929440847 #
point $-1 56.023438215277565 -27.659987199788837 7.105823929440847 #
loop $-1 $-1 $254 $156 #
plane-surface $-1 56.023438215277565 0 0 -1 0 0 0 0 1 forward_v I I I I #
coedge $-1 $248 $159 $167 $260 reversed $91 $-1 #
coedge $-1 $159 $247 $321 $322 forward $91 $-1 #
coedge $-1 $254 $323 $161 $250 forward $245 $-1 #
edge $-1 $252 71.205337488420909 $258 75.19616696727509 $249 $324 forward 7 unknown #
coedge $-1 $167 $162 $323 $325 forward $157 $-1 #
vertex $-1 $325 $326 #
straight-curve $-1 40.405883030985109 26.022629536108489 10.105823929440845 1 0 0 I I #
coedge $-1 $321 $249 $164 $255 forward $245 $-1 #
edge $-1 $258 9.8150708800490811 $256 22.600046432069735 $254 $327 forward 7 unknown #
vertex $-1 $255 $328 #
straight-curve $-1 14.869803837406558 38.807605088129129 62.758114428431497 -0.5877852410284794 0 0.80901700255871778 I I #
vertex $-1 $255 $329 #
straight-curve $-1 -9.8360620539445307 26.022629536108489 96.762822566501413 -0.5877852410284794 0 0.80901700255871778 I I #
edge $-1 $330 -56.023438215277565 $168 -53.123930961767627 $247 $331 forward 7 unknown #
point $-1 53.123930961767627 38.807605088129144 10.105823929440845 #
point $-1 53.123930961767627 26.022629536108489 10.105823929440845 #
edge $-1 $332 1 $332 0 $171 $-1 forward 7 unknown #
vertex $-1 $172 $333 #
ellipse-curve $-1 53.388478506722997 32.415117312118817 7.2493065923480886 0.80901700255871778 0 0.5877852410284794 0.2938926205142397 0 -0.40450850127935889 1 I I #
point $-1 54.867577209036838 32.415117312118817 7.7059006887343875 #
plane-surface $-1 -56.023438215277565 0 0 1 0 0 0 0 -1 forward_v I I I I #
coedge $-1 $334 $178 $183 $274 forward $106 $-1 #
coedge $-1 $178 $334 $271 $335 forward $106 $-1 #
edge $-1 $272 17.312194950318599 $279 20.211702203828516 $178 $336 forward 7 unknown #
coedge $-1 $187 $181 $269 $335 reversed $188 $-1 #
vertex $-1 $270 $337 #
straight-curve $-1 -56.023438215277565 26.022629536108489 35.98724735990438 0 0 1 I I #
edge $-1 $279 9.8150708800490811 $277 22.600046432069735 $268 $338 forward 7 unknown #
coedge $-1 $276 $184 $187 $281 reversed $176 $-1 #
coedge $-1 $184 $275 $334 $339 reversed $176 $-1 #
vertex $-1 $339 $340 #
straight-curve $-1 -47.79955397201762 38.807605088129129 17.434200370474127 -0.5877852410284794 0 -0.80901700255871778 I I #
vertex $-1 $274 $341 #
straight-curve $-1 -56.023438215277579 26.022629536108489 6.1149944505866642 -0.5877852410284794 0 -0.80901700255871778 I I #
edge $-1 $342 -10.105823929440847 $189 -6.1149944505866838 $275 $343 forward 7 unknown #
point $-1 -56.023438215277565 38.807605088129129 6.1149944505866838 #
point $-1 -56.023438215277565 26.022629536108489 6.1149944505866838 #
edge $-1 $344 1 $344 0 $192 $-1 forward 7 unknown #
vertex $-1 $193 $345 #
ellipse-curve $-1 -53.388478506722997 32.415117312118817 7.2493065923480957 -0.80901700255871778 0 0.5877852410284794 0.2938926205142397 0 0.40450850127935889 1 I I #
point $-1 -54.279791968008361 32.415117312118817 8.5149176912931122 #
plane-surface $-1 56.023438215277565 0 0 -1 0 0 0 0 1 forward_v I I I I #
coedge $-1 $201 $199 $203 $293 reversed $121 $-1 #
edge $-1 $214 -10.105823929440847 $295 10.105823929440847 $213 $346 forward 7 unknown #
vertex $-1 $293 $347 #
straight-curve $-1 -56.023438215277565 -38.807605088129129 0 0 0 -1 I I #
edge $-1 $291 -38.807605088129129 $295 38.807605088129129 $289 $348 forward 7 unknown #
straight-curve $-1 0 -38.807605088129129 -10.105823929440847 -1 0 0 I I #
vertex $-1 $206 $349 #
straight-curve $-1 0 38.807605088129129 -10.105823929440847 1 0 0 I I #
point $-1 56.023438215277565 38.807605088129129 -10.105823929440847 #
point $-1 56.023438215277565 -38.807605088129129 -10.105823929440847 #
straight-curve $-1 -56.023438215277565 0 10.105823929440847 0 -1 0 I I #
point $-1 -56.023438215277565 38.807605088129129 10.105823929440847 #
point $-1 -56.023438215277565 -38.807605088129129 10.105823929440847 #
straight-curve $-1 56.023438215277565 -38.807605088129129 0 0 0 -1 I I #
straight-curve $-1 56.023438215277565 38.807605088129129 0 0 0 -1 I I #
plane-surface $-1 56.023438215277565 0 0 -1 0 0 0 0 1 forward_v I I I I #
coedge $-1 $227 $226 $237 $316 reversed $83 $-1 #
coedge $-1 $350 $230 $227 $307 forward $224 $-1 #
edge $-1 $308 27.659987199788837 $351 38.807605088129129 $227 $352 forward 7 unknown #
vertex $-1 $307 $353 #
straight-curve $-1 -56.023438215277565 -27.659987199788837 4.3029119647204235 0 0 -1 I I #
coedge $-1 $230 $350 $232 $312 forward $224 $-1 #
straight-curve $-1 0 -27.659987199788837 10.105823929440847 -1 0 0 I I #
edge $-1 $319 -38.807605088129129 $233 -27.659987199788837 $232 $354 forward 7 unknown #
point $-1 56.023438215277565 -27.659987199788837 10.105823929440847 #
straight-curve $-1 -56.023438215277565 -16.616898071979492 7.105823929440847 0 -1 0 I I #
coedge $-1 $237 $236 $350 $355 reversed $140 $-1 #
edge $-1 $351 -10.105823929440847 $238 -7.105823929440847 $305 $356 forward 7 unknown #
point $-1 -56.023438215277565 -38.807605088129129 7.105823929440847 #
point $-1 -56.023438215277565 -27.659987199788837 7.105823929440847 #
vertex $-1 $312 $357 #
straight-curve $-1 56.023438215277565 -38.807605088129129 0 0 0 -1 I I #
coedge $-1 $323 $254 $248 $322 reversed $245 $-1 #
edge $-1 $330 -10.105823929440847 $256 -6.1149944505866642 $321 $358 forward 7 unknown #
coedge $-1 $249 $321 $251 $325 reversed $245 $-1 #
straight-curve $-1 56.023438215277565 26.022629536108489 81.311161417861754 0 0 -1 I I #
edge $-1 $252 26.022629536108489 $330 38.807605088129129 $323 $359 forward 7 unknown #
point $-1 56.023438215277565 26.022629536108489 10.105823929440847 #
straight-curve $-1 56.023438215277565 16.207558656059408 6.1149944505866571 0 1 0 I I #
point $-1 56.023438215277565 38.807605088129144 6.1149944505866642 #
point $-1 56.023438215277565 26.022629536108489 6.1149944505866642 #
vertex $-1 $325 $360 #
straight-curve $-1 0 38.807605088129129 10.105823929440847 -1 0 0 I I #
vertex $-1 $263 $361 #
point $-1 53.682371127237239 32.415117312118817 6.8447980910687294 #
coedge $-1 $269 $268 $276 $339 forward $106 $-1 #
edge $-1 $342 -38.807605088129129 $272 -26.022629536108489 $271 $362 forward 7 unknown #
straight-curve $-1 -73.335633165596164 26.022629536108489 10.105823929440845 1 0 0 I I #
point $-1 -56.023438215277565 26.022629536108489 10.105823929440847 #
straight-curve $-1 -53.123930961767648 16.207558656059408 10.105823929440849 0 1 0 I I #
edge $-1 $277 53.123930961767648 $342 56.023438215277565 $276 $363 forward 7 unknown #
point $-1 -53.123930961767648 38.807605088129144 10.105823929440847 #
point $-1 -53.123930961767648 26.022629536108489 10.105823929440847 #
vertex $-1 $339 $364 #
straight-curve $-1 -56.023438215277565 38.807605088129129 0 0 0 -1 I I #
vertex $-1 $284 $365 #
point $-1 -53.094585886208762 32.415117312118817 7.653815093627454 #
straight-curve $-1 -56.023438215277565 38.807605088129129 0 0 0 -1 I I #
point $-1 -56.023438215277565 -38.807605088129129 -10.105823929440847 #
straight-curve $-1 -56.023438215277565 0 -10.105823929440847 0 1 0 I I #
point $-1 -56.023438215277565 38.807605088129129 -10.105823929440847 #
coedge $-1 $310 $306 $315 $355 forward $224 $-1 #
vertex $-1 $307 $366 #
straight-curve $-1 -56.023438215277565 0 10.105823929440847 0 -1 0 I I #
point $-1 -56.023438215277565 -27.659987199788837 10.105823929440847 #
straight-curve $-1 56.023438215277565 0 10.105823929440847 0 1 0 I I #
edge $-1 $351 -56.023438215277565 $319 56.023438215277565 $315 $367 forward 7 unknown #
straight-curve $-1 -56.023438215277565 -38.807605088129129 0 0 0 -1 I I #
point $-1 56.023438215277565 -38.807605088129129 10.105823929440847 #
straight-curve $-1 56.023438215277565 38.807605088129129 0 0 0 -1 I I #
straight-curve $-1 56.023438215277565 0 10.105823929440847 0 1 0 I I #
point $-1 56.023438215277565 38.807605088129129 10.105823929440847 #
point $-1 52.983970005443645 32.415117312118817 6.9554139718338481 #
straight-curve $-1 -56.023438215277565 0 10.105823929440847 0 -1 0 I I #
straight-curve $-1 0 38.807605088129129 10.105823929440847 -1 0 0 I I #
point $-1 -56.023438215277565 38.807605088129129 10.105823929440847 #
point $-1 -52.983970005443645 32.415117312118817 6.9554139718338552 #
point $-1 -56.023438215277565 -38.807605088129129 10.105823929440847 #
straight-curve $-1 0 -38.807605088129129 10.105823929440847 1 0 0 I I #
End-of-ACIS-data 