500 0 3 0           
7 Unknown 11 ACIS 5.0 NT 24 Fri Mar 26 19:54:43 1999 
-1 9.9999999999999995e-007 1e-010 
body $-1 $3 $-1 $4 #
body $-1 $5 $-1 $6 #
body $-1 $7 $-1 $8 #
lump $-1 $-1 $9 $0 #
transform $-1 1 0 0 0 1 0 0 0 1 73.209021271401099 40.335675085398108 15.310125789349708 1 rotate no_reflect no_shear #
lump $-1 $-1 $10 $1 #
transform $-1 1 0 0 0 1 0 0 0 1 73.209021271401099 40.335675085398108 15.310125789349708 1 rotate no_reflect no_shear #
lump $-1 $-1 $11 $2 #
transform $-1 1 0 0 0 1 0 0 0 1 73.209021271401099 40.335675085398108 15.310125789349708 1 rotate no_reflect no_shear #
shell $-1 $-1 $-1 $12 $-1 $3 #
shell $-1 $-1 $-1 $13 $-1 $5 #
shell $-1 $-1 $-1 $14 $-1 $7 #
face $-1 $15 $16 $9 $-1 $17 forward single #
face $-1 $18 $19 $10 $-1 $20 reversed single #
face $-1 $21 $22 $11 $-1 $23 forward single #
face $-1 $24 $25 $9 $-1 $26 reversed single #
loop $-1 $-1 $27 $12 #
plane-surface $-1 0 0 15.310125789349708 0 0 1 1 0 0 forward_v I I I I #
face $-1 $28 $29 $10 $-1 $30 reversed single #
loop $-1 $-1 $31 $13 #
plane-surface $-1 91.256048211887645 19.506183275955028 214.13366422345669 0 1 0 0.7660444514056185 0 0.64278759981090561 forward_v I I I I #
face $-1 $32 $33 $11 $-1 $34 forward single #
loop $-1 $35 $36 $14 #
cone-surface $-1 68.645909647066048 29.920929180676566 10.378225067619161 -0.7660444514056185 0 -0.64278759981090561 0.96418139971635841 0 -1.1490666771084277 1 I I 0 1 1.5 forward I I I I #
face $-1 $37 $38 $9 $-1 $39 reversed single #
loop $-1 $-1 $40 $15 #
plane-surface $-1 0 0 -15.310125789349708 0 0 1 1 0 0 forward_v I I I I #
coedge $-1 $41 $42 $43 $44 forward $16 $-1 #
face $-1 $45 $46 $10 $-1 $47 forward single #
loop $-1 $-1 $48 $18 #
plane-surface $-1 -20.906680863697773 29.920929180676566 120.01796208835781 0.7660444514056185 0 0.64278759981090561 0.64278759981090561 0 -0.7660444514056185 forward_v I I I I #
coedge $-1 $49 $50 $51 $52 reversed $19 $-1 #
face $-1 $-1 $53 $11 $-1 $54 forward single #
loop $-1 $55 $56 $21 #
cone-surface $-1 66.635963491935996 29.920929180676566 8.6916800343191092 -0.7660444514056185 0 -0.64278759981090561 0.48209069985817921 0 -0.57453333855421385 1 I I -0.70710678118654757 0.70710678118654757 0.75 forward I I I I #
loop $-1 $-1 $57 $14 #
coedge $-1 $36 $36 $58 $59 reversed $22 $-1 #
face $-1 $60 $61 $9 $-1 $62 reversed single #
loop $-1 $-1 $63 $24 #
plane-surface $-1 0 -40.335675085398108 0 0 1 0 0 0 1 forward_v I I I I #
coedge $-1 $64 $65 $66 $67 forward $25 $-1 #
coedge $-1 $68 $27 $69 $70 forward $16 $-1 #
coedge $-1 $27 $68 $71 $72 forward $16 $-1 #
coedge $-1 $73 $74 $27 $44 reversed $75 $-1 #
edge $-1 $76 -40.335675085398108 $77 40.335675085398108 $43 $78 forward 7 unknown #
face $-1 $79 $80 $10 $-1 $81 reversed single #
loop $-1 $-1 $82 $28 #
plane-surface $-1 0 0 15.310125789349708 0 0 1 1 0 0 forward_v I I I I #
coedge $-1 $83 $84 $85 $86 reversed $29 $-1 #
coedge $-1 $50 $31 $87 $88 reversed $19 $-1 #
coedge $-1 $31 $49 $83 $89 reversed $19 $-1 #
coedge $-1 $85 $90 $31 $52 forward $80 $-1 #
edge $-1 $91 91.756706322378633 $92 99.211599098955929 $51 $93 forward 7 unknown #
loop $-1 $-1 $58 $32 #
plane-surface $-1 -20.906680863697773 29.920929180676566 120.01796208835781 0.7660444514056185 0 0.64278759981090561 0.64278759981090561 0 -0.7660444514056185 forward_v I I I I #
loop $-1 $-1 $94 $21 #
coedge $-1 $56 $56 $57 $95 reversed $33 $-1 #
coedge $-1 $57 $57 $56 $95 forward $35 $-1 #
coedge $-1 $58 $58 $36 $59 forward $53 $-1 #
edge $-1 $96 0 $96 6.2831853071796004 $58 $97 forward 7 unknown #
face $-1 $98 $99 $9 $-1 $100 reversed single #
loop $-1 $-1 $101 $37 #
plane-surface $-1 -73.209021271401099 0 0 1 0 0 0 0 -1 forward_v I I I I #
coedge $-1 $102 $71 $103 $104 forward $38 $-1 #
coedge $-1 $105 $40 $102 $106 forward $25 $-1 #
coedge $-1 $40 $105 $107 $108 forward $25 $-1 #
coedge $-1 $74 $73 $40 $67 reversed $75 $-1 #
edge $-1 $109 -40.335675085398108 $110 40.335675085398108 $66 $111 forward 7 unknown #
coedge $-1 $42 $41 $112 $113 forward $16 $-1 #
coedge $-1 $114 $115 $41 $70 reversed $99 $-1 #
edge $-1 $77 -73.209021271401099 $116 73.209021271401099 $69 $117 forward 7 unknown #
coedge $-1 $63 $118 $42 $72 reversed $38 $-1 #
edge $-1 $119 -73.209021271401099 $76 73.209021271401099 $71 $120 forward 7 unknown #
coedge $-1 $66 $43 $118 $121 forward $75 $-1 #
coedge $-1 $43 $66 $114 $122 reversed $75 $-1 #
loop $-1 $-1 $73 $98 #
vertex $-1 $44 $123 #
vertex $-1 $44 $124 #
straight-curve $-1 73.209021271401099 0 15.310125789349708 0 1 0 I I #
face $-1 $-1 $125 $10 $-1 $126 reversed single #
loop $-1 $-1 $51 $45 #
plane-surface $-1 73.209021271401099 0 0 -1 0 0 0 0 1 forward_v I I I I #
coedge $-1 $87 $127 $128 $129 forward $46 $-1 #
coedge $-1 $128 $48 $50 $89 forward $29 $-1 #
coedge $-1 $48 $128 $130 $131 reversed $29 $-1 #
coedge $-1 $132 $51 $48 $86 forward $80 $-1 #
edge $-1 $92 4.5457186856167446 $133 25.375210495059825 $85 $134 forward 7 unknown #
coedge $-1 $135 $82 $49 $88 forward $46 $-1 #
edge $-1 $136 21.325599549938914 $91 27.580997165457276 $87 $137 forward 7 unknown #
edge $-1 $92 -146.41804254280223 $136 -136.68637127633943 $50 $138 forward 7 unknown #
coedge $-1 $51 $132 $135 $139 reversed $80 $-1 #
vertex $-1 $139 $140 #
vertex $-1 $52 $141 #
straight-curve $-1 73.209021271401099 19.506183275955028 107.06683211172835 0 0 -1 I I #
coedge $-1 $94 $94 $-1 $142 reversed $55 $-1 #
edge $-1 $143 0 $143 6.2831853071796004 $56 $144 forward 7 unknown #
vertex $-1 $59 $145 #
ellipse-curve $-1 70.081322463641925 29.920929180676566 11.582679401061059 0.7660444514056185 0 0.64278759981090561 0.96418139971635841 0 -1.1490666771084277 1 I I #
face $-1 $-1 $75 $9 $-1 $146 reversed single #
loop $-1 $-1 $114 $60 #
plane-surface $-1 0 40.335675085398108 0 0 -1 0 0 0 -1 forward_v I I I I #
coedge $-1 $147 $112 $115 $148 forward $61 $-1 #
coedge $-1 $118 $63 $64 $106 reversed $38 $-1 #
coedge $-1 $112 $147 $63 $104 reversed $61 $-1 #
edge $-1 $119 -15.310125789349708 $149 15.310125789349708 $103 $150 forward 7 unknown #
coedge $-1 $65 $64 $147 $151 forward $25 $-1 #
edge $-1 $110 -73.209021271401099 $149 73.209021271401099 $102 $152 forward 7 unknown #
coedge $-1 $115 $114 $65 $108 reversed $99 $-1 #
edge $-1 $153 -73.209021271401099 $109 73.209021271401099 $107 $154 forward 7 unknown #
vertex $-1 $67 $155 #
vertex $-1 $121 $156 #
straight-curve $-1 73.209021271401099 0 -15.310125789349708 0 -1 0 I I #
coedge $-1 $101 $103 $68 $113 reversed $61 $-1 #
edge $-1 $116 -40.335675085398108 $119 40.335675085398108 $112 $157 forward 7 unknown #
coedge $-1 $107 $69 $74 $122 forward $99 $-1 #
coedge $-1 $69 $107 $101 $148 reversed $99 $-1 #
vertex $-1 $70 $158 #
straight-curve $-1 0 40.335675085398108 15.310125789349708 -1 0 0 I I #
coedge $-1 $71 $102 $73 $121 reversed $38 $-1 #
vertex $-1 $113 $159 #
straight-curve $-1 0 -40.335675085398108 15.310125789349708 1 0 0 I I #
edge $-1 $76 -15.310125789349708 $110 15.310125789349708 $73 $160 forward 7 unknown #
edge $-1 $77 -15.310125789349708 $109 15.310125789349708 $74 $161 forward 7 unknown #
point $-1 73.209021271401099 -40.335675085398108 15.310125789349708 #
point $-1 73.209021271401099 40.335675085398108 15.310125789349708 #
loop $-1 $-1 $130 $79 #
plane-surface $-1 0 40.335675085398108 0 0 -1 0 0 0 -1 forward_v I I I I #
coedge $-1 $82 $135 $162 $163 forward $46 $-1 #
coedge $-1 $84 $83 $82 $129 reversed $29 $-1 #
edge $-1 $164 -25.375210495059825 $136 -4.5457186856167446 $82 $165 forward 7 unknown #
coedge $-1 $162 $166 $84 $131 forward $125 $-1 #
edge $-1 $133 -93.729217973209529 $164 -83.99754670674676 $130 $167 forward 7 unknown #
coedge $-1 $90 $85 $166 $168 reversed $80 $-1 #
vertex $-1 $86 $169 #
straight-curve $-1 73.209021271401099 14.960464590338283 7.855233012772409 0 1 0 I I #
coedge $-1 $127 $87 $90 $139 forward $46 $-1 #
vertex $-1 $88 $170 #
straight-curve $-1 45.628024105943823 19.506183275955028 15.310125789349712 1 0 0 I I #
straight-curve $-1 -20.906680863697773 19.506183275955028 120.01796208835781 -0.64278759981090561 0 0.7660444514056185 I I #
edge $-1 $91 19.506183275955028 $171 40.335675085398108 $90 $172 forward 7 unknown #
point $-1 73.209021271401099 19.506183275955028 15.310125789349708 #
point $-1 73.209021271401099 19.506183275955028 7.8552330127724161 #
edge $-1 $173 1 $173 0 $94 $-1 forward 7 unknown #
vertex $-1 $95 $174 #
ellipse-curve $-1 67.210496830490214 29.920929180676566 9.1737707341772889 0.7660444514056185 0 0.64278759981090561 0.96418139971635841 0 -1.1490666771084277 1 I I #
point $-1 71.045503863358263 29.920929180676566 10.433612723952606 #
plane-surface $-1 73.209021271401099 0 0 -1 0 0 0 0 1 forward_v I I I I #
coedge $-1 $103 $101 $105 $151 reversed $61 $-1 #
edge $-1 $116 -15.310125789349708 $153 15.310125789349708 $115 $175 forward 7 unknown #
vertex $-1 $151 $176 #
straight-curve $-1 -73.209021271401099 -40.335675085398108 0 0 0 -1 I I #
edge $-1 $149 -40.335675085398108 $153 40.335675085398108 $147 $177 forward 7 unknown #
straight-curve $-1 0 -40.335675085398108 -15.310125789349708 -1 0 0 I I #
vertex $-1 $108 $178 #
straight-curve $-1 0 40.335675085398108 -15.310125789349708 1 0 0 I I #
point $-1 73.209021271401099 40.335675085398108 -15.310125789349708 #
point $-1 73.209021271401099 -40.335675085398108 -15.310125789349708 #
straight-curve $-1 -73.209021271401099 0 15.310125789349708 0 -1 0 I I #
point $-1 -73.209021271401099 40.335675085398108 15.310125789349708 #
point $-1 -73.209021271401099 -40.335675085398108 15.310125789349708 #
straight-curve $-1 73.209021271401099 -40.335675085398108 0 0 0 -1 I I #
straight-curve $-1 73.209021271401099 40.335675085398108 0 0 0 -1 I I #
coedge $-1 $166 $130 $127 $163 reversed $125 $-1 #
edge $-1 $171 -73.209021271401099 $164 -66.953623655882737 $162 $179 forward 7 unknown #
vertex $-1 $131 $180 #
straight-curve $-1 66.953623655882723 14.960464590338283 15.310125789349712 0 -1 0 I I #
coedge $-1 $130 $162 $132 $168 forward $125 $-1 #
straight-curve $-1 12.961042218248544 40.335675085398108 79.655980375737343 -0.64278759981090572 0 0.76604445140561861 I I #
edge $-1 $171 -15.310125789349708 $133 -7.8552330127724099 $132 $181 forward 7 unknown #
point $-1 73.209021271401099 40.335675085398108 7.8552330127724099 #
point $-1 66.953623655882737 19.506183275955028 15.310125789349712 #
vertex $-1 $139 $182 #
straight-curve $-1 73.209021271401099 0 15.310125789349708 0 1 0 I I #
vertex $-1 $142 $183 #
point $-1 68.174678230206567 29.920929180676566 8.0247040570688615 #
straight-curve $-1 -73.209021271401099 40.335675085398108 0 0 0 -1 I I #
point $-1 -73.209021271401099 -40.335675085398108 -15.310125789349708 #
straight-curve $-1 -73.209021271401099 0 -15.310125789349708 0 1 0 I I #
point $-1 -73.209021271401099 40.335675085398108 -15.310125789349708 #
straight-curve $-1 0 40.335675085398108 15.310125789349708 -1 0 0 I I #
point $-1 66.953623655882737 40.335675085398108 15.310125789349712 #
straight-curve $-1 73.209021271401099 40.335675085398108 0 0 0 -1 I I #
point $-1 73.209021271401099 40.335675085398108 15.310125789349708 #
point $-1 66.061430153381778 29.920929180676566 8.2095893344609294 #
End-of-ACIS-data 