500 0 5 0           
7 Unknown 11 ACIS 5.0 NT 24 Fri Mar 26 01:03:37 1999 
-1 9.9999999999999995e-007 1e-010 
body $-1 $5 $-1 $6 #
body $-1 $7 $-1 $8 #
body $-1 $9 $-1 $10 #
body $-1 $11 $-1 $12 #
body $-1 $13 $-1 $14 #
lump $-1 $-1 $15 $0 #
transform $-1 1 0 0 0 1 0 0 0 1 79.313943906979588 54.75874190605321 11.677698193033192 1 rotate no_reflect no_shear #
lump $-1 $-1 $16 $1 #
transform $-1 1 0 0 0 1 0 0 0 1 79.313943906979588 54.75874190605321 11.677698193033192 1 rotate no_reflect no_shear #
lump $-1 $-1 $17 $2 #
transform $-1 1 0 0 0 1 0 0 0 1 79.313943906979588 54.75874190605321 11.677698193033192 1 rotate no_reflect no_shear #
lump $-1 $-1 $18 $3 #
transform $-1 1 0 0 0 1 0 0 0 1 79.313943906979588 54.75874190605321 11.677698193033192 1 rotate no_reflect no_shear #
lump $-1 $-1 $19 $4 #
transform $-1 1 0 0 0 1 0 0 0 1 79.313943906979588 54.75874190605321 11.677698193033192 1 rotate no_reflect no_shear #
shell $-1 $-1 $-1 $20 $-1 $5 #
shell $-1 $-1 $-1 $21 $-1 $7 #
shell $-1 $-1 $-1 $22 $-1 $9 #
shell $-1 $-1 $-1 $23 $-1 $11 #
shell $-1 $-1 $-1 $24 $-1 $13 #
face $-1 $25 $26 $15 $-1 $27 forward single #
face $-1 $28 $29 $16 $-1 $30 forward single #
face $-1 $31 $32 $17 $-1 $33 reversed single #
face $-1 $34 $35 $18 $-1 $36 forward single #
face $-1 $37 $38 $19 $-1 $39 forward single #
face $-1 $40 $41 $15 $-1 $42 reversed single #
loop $-1 $-1 $43 $20 #
plane-surface $-1 0 0 11.677698193033192 0 0 1 1 0 0 forward_v I I I I #
face $-1 $44 $45 $16 $-1 $46 reversed single #
loop $-1 $-1 $47 $21 #
plane-surface $-1 0 -54.75874190605321 0 0 1 0 0 0 1 forward_v I I I I #
face $-1 $48 $49 $17 $-1 $50 reversed single #
loop $-1 $-1 $51 $22 #
plane-surface $-1 18.801365801341127 52.668223821965363 199.81317081088113 1 0 0 0 -0.55919291073839883 -0.82903756765294845 forward_v I I I I #
face $-1 $52 $53 $18 $-1 $54 forward single #
loop $-1 $55 $56 $23 #
cone-surface $-1 27.227761306849018 50.814800768287931 8.594564301705141 0 -0.55919291073839883 -0.82903756765294845 1 0 0 1 I I 0 1 1 forward I I I I #
face $-1 $57 $58 $19 $-1 $59 forward single #
loop $-1 $60 $61 $24 #
cone-surface $-1 39.867354565110872 50.814800768287931 8.594564301705141 0 -0.55919291073839883 -0.82903756765294845 1 0 0 1 I I 0 1 1 forward I I I I #
face $-1 $62 $63 $15 $-1 $64 reversed single #
loop $-1 $-1 $65 $25 #
plane-surface $-1 0 0 -11.677698193033192 0 0 1 1 0 0 forward_v I I I I #
coedge $-1 $66 $67 $68 $69 forward $26 $-1 #
face $-1 $70 $71 $16 $-1 $72 reversed single #
loop $-1 $-1 $73 $28 #
plane-surface $-1 0 0 -11.677698193033192 0 0 1 1 0 0 forward_v I I I I #
coedge $-1 $74 $75 $76 $77 forward $29 $-1 #
face $-1 $78 $79 $17 $-1 $80 reversed single #
loop $-1 $-1 $81 $31 #
plane-surface $-1 33.547557935979953 -36.035366489006655 68.304692535671649 0 0.55919291073839883 0.82903756765294845 1 0 0 forward_v I I I I #
coedge $-1 $82 $83 $84 $85 reversed $32 $-1 #
face $-1 $-1 $86 $18 $-1 $87 forward single #
loop $-1 $88 $89 $34 #
cone-surface $-1 27.227761306849018 50.011832378151276 7.4041147300500416 0 -0.55919291073839883 -0.82903756765294845 0.5 0 0 1 I I -0.70710678118654746 0.70710678118654746 0.5 forward I I I I #
loop $-1 $-1 $90 $23 #
coedge $-1 $56 $56 $91 $92 reversed $35 $-1 #
face $-1 $-1 $93 $19 $-1 $94 forward single #
loop $-1 $95 $96 $37 #
cone-surface $-1 39.867354565110872 50.011832378151276 7.4041147300500416 0 -0.55919291073839883 -0.82903756765294845 0.5 0 0 1 I I -0.70710678118654746 0.70710678118654746 0.5 forward I I I I #
loop $-1 $-1 $97 $24 #
coedge $-1 $61 $61 $98 $99 reversed $38 $-1 #
face $-1 $100 $101 $15 $-1 $102 reversed single #
loop $-1 $-1 $103 $40 #
plane-surface $-1 0 -54.75874190605321 0 0 1 0 0 0 1 forward_v I I I I #
coedge $-1 $104 $105 $106 $107 forward $41 $-1 #
coedge $-1 $108 $43 $109 $110 forward $26 $-1 #
coedge $-1 $43 $108 $111 $112 forward $26 $-1 #
coedge $-1 $113 $114 $43 $69 reversed $115 $-1 #
edge $-1 $116 -54.75874190605321 $117 54.75874190605321 $68 $118 forward 7 unknown #
face $-1 $119 $120 $16 $-1 $121 forward single #
loop $-1 $-1 $122 $44 #
plane-surface $-1 79.313943906979588 0 0 -1 0 0 0 0 1 forward_v I I I I #
coedge $-1 $123 $124 $125 $126 forward $45 $-1 #
coedge $-1 $125 $47 $122 $127 reversed $29 $-1 #
coedge $-1 $47 $125 $128 $129 reversed $29 $-1 #
coedge $-1 $130 $131 $47 $77 reversed $120 $-1 #
edge $-1 $132 -79.313943906979588 $133 79.313943906979588 $76 $134 forward 7 unknown #
face $-1 $135 $136 $17 $-1 $137 forward single #
loop $-1 $-1 $138 $48 #
plane-surface $-1 48.293750070618778 52.668223821965363 199.81317081088113 -1 0 0 0 0.55919291073839883 0.82903756765294845 forward_v I I I I #
coedge $-1 $139 $140 $141 $142 reversed $49 $-1 #
coedge $-1 $83 $51 $143 $144 reversed $32 $-1 #
coedge $-1 $51 $82 $139 $145 reversed $32 $-1 #
coedge $-1 $141 $146 $51 $85 forward $136 $-1 #
edge $-1 $147 -28.424629995070529 $148 -21.583491589074864 $84 $149 forward 7 unknown #
loop $-1 $-1 $91 $52 #
plane-surface $-1 33.547557935979953 -36.035366489006655 68.304692535671649 0 0.55919291073839883 0.82903756765294845 1 0 0 forward_v I I I I #
loop $-1 $-1 $150 $34 #
coedge $-1 $89 $89 $90 $151 reversed $53 $-1 #
coedge $-1 $90 $90 $89 $151 forward $55 $-1 #
coedge $-1 $91 $91 $56 $92 forward $86 $-1 #
edge $-1 $152 -4.8280493666204845e-015 $152 6.283185307179596 $91 $153 forward 7 unknown #
loop $-1 $-1 $98 $57 #
plane-surface $-1 33.547557935979953 -36.035366489006655 68.304692535671649 0 0.55919291073839883 0.82903756765294845 1 0 0 forward_v I I I I #
loop $-1 $-1 $154 $37 #
coedge $-1 $96 $96 $97 $155 reversed $58 $-1 #
coedge $-1 $97 $97 $96 $155 forward $60 $-1 #
coedge $-1 $98 $98 $61 $99 forward $93 $-1 #
edge $-1 $156 -4.8280493666204845e-015 $156 6.283185307179596 $98 $157 forward 7 unknown #
face $-1 $158 $159 $15 $-1 $160 reversed single #
loop $-1 $-1 $161 $62 #
plane-surface $-1 -79.313943906979588 0 0 1 0 0 0 0 -1 forward_v I I I I #
coedge $-1 $162 $111 $163 $164 forward $63 $-1 #
coedge $-1 $165 $65 $162 $166 forward $41 $-1 #
coedge $-1 $65 $165 $167 $168 forward $41 $-1 #
coedge $-1 $114 $113 $65 $107 reversed $115 $-1 #
edge $-1 $169 -54.75874190605321 $170 54.75874190605321 $106 $171 forward 7 unknown #
coedge $-1 $67 $66 $172 $173 forward $26 $-1 #
coedge $-1 $174 $175 $66 $110 reversed $159 $-1 #
edge $-1 $117 -79.313943906979588 $176 79.313943906979588 $109 $177 forward 7 unknown #
coedge $-1 $103 $178 $67 $112 reversed $63 $-1 #
edge $-1 $179 -79.313943906979588 $116 79.313943906979588 $111 $180 forward 7 unknown #
coedge $-1 $106 $68 $178 $181 forward $115 $-1 #
coedge $-1 $68 $106 $174 $182 reversed $115 $-1 #
loop $-1 $-1 $113 $158 #
vertex $-1 $69 $183 #
vertex $-1 $69 $184 #
straight-curve $-1 79.313943906979588 0 11.677698193033192 0 1 0 I I #
face $-1 $185 $186 $16 $-1 $187 reversed single #
loop $-1 $-1 $131 $70 #
plane-surface $-1 0 -60.384607635336906 -5.5747314741875185 0 0 1 1 0 0 forward_v I I I I #
coedge $-1 $188 $189 $74 $127 forward $71 $-1 #
coedge $-1 $190 $73 $189 $191 forward $45 $-1 #
coedge $-1 $73 $190 $192 $193 forward $45 $-1 #
coedge $-1 $75 $74 $73 $126 reversed $29 $-1 #
edge $-1 $194 -79.313943906979588 $195 79.313943906979588 $73 $196 forward 7 unknown #
edge $-1 $195 -11.677698193033192 $133 -5.5747314741875185 $122 $197 forward 7 unknown #
coedge $-1 $192 $198 $75 $129 forward $199 $-1 #
edge $-1 $132 5.5747314741875185 $194 11.677698193033192 $128 $200 forward 7 unknown #
coedge $-1 $201 $76 $198 $202 forward $120 $-1 #
coedge $-1 $76 $201 $188 $203 forward $120 $-1 #
vertex $-1 $129 $204 #
vertex $-1 $203 $205 #
straight-curve $-1 0 -54.75874190605321 -5.5747314741875185 1 0 0 I I #
face $-1 $-1 $206 $17 $-1 $207 reversed single #
loop $-1 $-1 $84 $78 #
plane-surface $-1 0 0 11.677698193033192 0 0 1 1 0 0 forward_v I I I I #
coedge $-1 $208 $209 $210 $211 reversed $79 $-1 #
coedge $-1 $212 $81 $83 $145 forward $49 $-1 #
coedge $-1 $81 $212 $208 $213 forward $49 $-1 #
coedge $-1 $210 $84 $81 $142 forward $136 $-1 #
edge $-1 $148 2.0275868333511511 $214 31.519971102628801 $141 $215 forward 7 unknown #
coedge $-1 $216 $217 $82 $144 forward $206 $-1 #
edge $-1 $218 -92.84329341940618 $147 -88.228887212407372 $143 $219 forward 7 unknown #
edge $-1 $148 101.26557982980161 $218 109.51748381210641 $83 $220 forward 7 unknown #
coedge $-1 $84 $210 $216 $221 forward $136 $-1 #
vertex $-1 $144 $222 #
vertex $-1 $85 $223 #
straight-curve $-1 18.801365801341127 26.334111910982681 11.677698193033194 0 -1 0 I I #
coedge $-1 $150 $150 $-1 $224 reversed $88 $-1 #
edge $-1 $225 0 $225 6.2831853071796004 $89 $226 forward 7 unknown #
vertex $-1 $92 $227 #
ellipse-curve $-1 27.227761306849018 51.338172703055399 9.3704950895337813 0 0.55919291073839883 0.82903756765294845 1 0 0 1 I I #
coedge $-1 $154 $154 $-1 $228 reversed $95 $-1 #
edge $-1 $229 0 $229 6.2831853071796004 $96 $230 forward 7 unknown #
vertex $-1 $99 $231 #
ellipse-curve $-1 39.867354565110872 51.338172703055399 9.3704950895337813 0 0.55919291073839883 0.82903756765294845 1 0 0 1 I I #
face $-1 $-1 $115 $15 $-1 $232 reversed single #
loop $-1 $-1 $174 $100 #
plane-surface $-1 0 54.75874190605321 0 0 -1 0 0 0 -1 forward_v I I I I #
coedge $-1 $233 $172 $175 $234 forward $101 $-1 #
coedge $-1 $178 $103 $104 $166 reversed $63 $-1 #
coedge $-1 $172 $233 $103 $164 reversed $101 $-1 #
edge $-1 $179 -11.677698193033192 $235 11.677698193033192 $163 $236 forward 7 unknown #
coedge $-1 $105 $104 $233 $237 forward $41 $-1 #
edge $-1 $170 -79.313943906979588 $235 79.313943906979588 $162 $238 forward 7 unknown #
coedge $-1 $175 $174 $105 $168 reversed $159 $-1 #
edge $-1 $239 -79.313943906979588 $169 79.313943906979588 $167 $240 forward 7 unknown #
vertex $-1 $107 $241 #
vertex $-1 $181 $242 #
straight-curve $-1 79.313943906979588 0 -11.677698193033192 0 -1 0 I I #
coedge $-1 $161 $163 $108 $173 reversed $101 $-1 #
edge $-1 $176 -54.75874190605321 $179 54.75874190605321 $172 $243 forward 7 unknown #
coedge $-1 $167 $109 $114 $182 forward $159 $-1 #
coedge $-1 $109 $167 $161 $234 reversed $159 $-1 #
vertex $-1 $110 $244 #
straight-curve $-1 0 54.75874190605321 11.677698193033192 -1 0 0 I I #
coedge $-1 $111 $162 $113 $181 reversed $63 $-1 #
vertex $-1 $173 $245 #
straight-curve $-1 0 -54.75874190605321 11.677698193033192 1 0 0 I I #
edge $-1 $116 -11.677698193033192 $170 11.677698193033192 $113 $246 forward 7 unknown #
edge $-1 $117 -11.677698193033192 $169 11.677698193033192 $114 $247 forward 7 unknown #
point $-1 79.313943906979588 -54.75874190605321 11.677698193033192 #
point $-1 79.313943906979588 54.75874190605321 11.677698193033192 #
face $-1 $-1 $199 $16 $-1 $248 reversed single #
loop $-1 $-1 $249 $119 #
plane-surface $-1 0 -66.010473364620594 -8.626214833610355 0 1 0 0 0 1 forward_v I I I I #
coedge $-1 $250 $122 $131 $203 reversed $71 $-1 #
coedge $-1 $122 $250 $123 $191 reversed $71 $-1 #
coedge $-1 $124 $123 $251 $252 forward $45 $-1 #
edge $-1 $195 54.75874190605321 $253 66.010473364620594 $189 $254 forward 7 unknown #
coedge $-1 $255 $128 $124 $193 reversed $199 $-1 #
edge $-1 $256 -66.010473364620594 $194 -54.75874190605321 $192 $257 forward 7 unknown #
vertex $-1 $129 $258 #
vertex $-1 $191 $259 #
straight-curve $-1 0 -54.75874190605321 -11.677698193033192 1 0 0 I I #
straight-curve $-1 79.313943906979588 -54.75874190605321 0 0 0 1 I I #
coedge $-1 $128 $255 $130 $202 reversed $199 $-1 #
loop $-1 $-1 $128 $185 #
straight-curve $-1 -79.313943906979588 -54.75874190605321 0 0 0 -1 I I #
coedge $-1 $131 $130 $260 $261 forward $120 $-1 #
edge $-1 $132 -5.6258657292836958 $262 5.6258657292836887 $198 $263 forward 7 unknown #
edge $-1 $264 -5.6258657292836887 $133 5.6258657292836958 $188 $265 forward 7 unknown #
point $-1 -79.313943906979588 -54.75874190605321 -5.5747314741875185 #
point $-1 79.313943906979588 -54.75874190605321 -5.5747314741875185 #
loop $-1 $-1 $143 $135 #
plane-surface $-1 0 54.75874190605321 0 0 -1 0 0 0 -1 forward_v I I I I #
coedge $-1 $209 $138 $140 $213 reversed $79 $-1 #
coedge $-1 $138 $208 $266 $267 reversed $79 $-1 #
coedge $-1 $146 $141 $138 $211 forward $136 $-1 #
edge $-1 $214 21.583491589074864 $268 28.424629995070529 $210 $269 forward 7 unknown #
coedge $-1 $140 $139 $217 $270 reversed $49 $-1 #
edge $-1 $271 -109.51748381210641 $214 -101.26557982980161 $208 $272 forward 7 unknown #
vertex $-1 $142 $273 #
straight-curve $-1 16.773778967989976 47.917603500057552 11.677698193033194 1 0 0 I I #
coedge $-1 $266 $143 $146 $221 reversed $206 $-1 #
coedge $-1 $143 $266 $212 $270 forward $206 $-1 #
vertex $-1 $144 $274 #
straight-curve $-1 18.801365801341127 54.75874190605321 99.906585405440566 0 0 1 I I #
straight-curve $-1 18.801365801341127 -36.035366489006655 68.304692535671649 0 0.82903756765294845 -0.55919291073839883 I I #
edge $-1 $268 -48.293750070618778 $147 -18.801365801341127 $216 $275 forward 7 unknown #
point $-1 18.801365801341127 54.75874190605321 11.677698193033192 #
point $-1 18.801365801341127 47.917603500057545 11.677698193033194 #
edge $-1 $276 1 $276 0 $150 $-1 forward 7 unknown #
vertex $-1 $151 $277 #
ellipse-curve $-1 27.227761306849018 50.291428833520477 7.8186335138765157 0 0.55919291073839883 0.82903756765294845 1 0 0 1 I I #
point $-1 28.227761306849018 51.338172703055385 9.3704950895337689 #
edge $-1 $278 1 $278 0 $154 $-1 forward 7 unknown #
vertex $-1 $155 $279 #
ellipse-curve $-1 39.867354565110872 50.291428833520477 7.8186335138765157 0 0.55919291073839883 0.82903756765294845 1 0 0 1 I I #
point $-1 40.867354565110872 51.338172703055385 9.3704950895337689 #
plane-surface $-1 79.313943906979588 0 0 -1 0 0 0 0 1 forward_v I I I I #
coedge $-1 $163 $161 $165 $237 reversed $101 $-1 #
edge $-1 $176 -11.677698193033192 $239 11.677698193033192 $175 $280 forward 7 unknown #
vertex $-1 $237 $281 #
straight-curve $-1 -79.313943906979588 -54.75874190605321 0 0 0 -1 I I #
edge $-1 $235 -54.75874190605321 $239 54.75874190605321 $233 $282 forward 7 unknown #
straight-curve $-1 0 -54.75874190605321 -11.677698193033192 -1 0 0 I I #
vertex $-1 $168 $283 #
straight-curve $-1 0 54.75874190605321 -11.677698193033192 1 0 0 I I #
point $-1 79.313943906979588 54.75874190605321 -11.677698193033192 #
point $-1 79.313943906979588 -54.75874190605321 -11.677698193033192 #
straight-curve $-1 -79.313943906979588 0 11.677698193033192 0 -1 0 I I #
point $-1 -79.313943906979588 54.75874190605321 11.677698193033192 #
point $-1 -79.313943906979588 -54.75874190605321 11.677698193033192 #
straight-curve $-1 79.313943906979588 -54.75874190605321 0 0 0 -1 I I #
straight-curve $-1 79.313943906979588 54.75874190605321 0 0 0 -1 I I #
plane-surface $-1 -79.313943906979588 0 0 1 0 0 0 0 -1 forward_v I I I I #
coedge $-1 $251 $260 $255 $284 forward $186 $-1 #
coedge $-1 $189 $188 $285 $286 forward $71 $-1 #
coedge $-1 $285 $249 $190 $252 reversed $186 $-1 #
edge $-1 $253 -79.313943906979588 $256 79.313943906979588 $251 $287 forward 7 unknown #
vertex $-1 $286 $288 #
straight-curve $-1 79.313943906979588 0 -11.677698193033192 0 -1 0 I I #
coedge $-1 $198 $192 $249 $284 reversed $199 $-1 #
vertex $-1 $193 $289 #
straight-curve $-1 -79.313943906979588 0 -11.677698193033192 0 1 0 I I #
point $-1 -79.313943906979588 -54.75874190605321 -11.677698193033192 #
point $-1 79.313943906979588 -54.75874190605321 -11.677698193033192 #
coedge $-1 $249 $285 $201 $261 reversed $186 $-1 #
edge $-1 $262 -79.313943906979588 $264 79.313943906979588 $260 $290 forward 7 unknown #
vertex $-1 $202 $291 #
straight-curve $-1 -79.313943906979588 -60.384607635336906 -5.5747314741875185 0 -1 0 I I #
vertex $-1 $203 $292 #
straight-curve $-1 79.313943906979588 -60.384607635336906 -5.5747314741875185 0 1 0 I I #
coedge $-1 $217 $216 $209 $267 forward $206 $-1 #
edge $-1 $268 88.228887212407372 $271 92.84329341940618 $266 $293 forward 7 unknown #
vertex $-1 $221 $294 #
straight-curve $-1 48.293750070618778 26.334111910982681 11.677698193033194 0 1 0 I I #
edge $-1 $271 -31.519971102628801 $218 -2.0275868333511511 $217 $295 forward 7 unknown #
vertex $-1 $270 $296 #
straight-curve $-1 48.293750070618778 -36.035366489006655 68.304692535671649 0 -0.82903756765294845 0.55919291073839883 I I #
point $-1 48.293750070618778 47.917603500057545 11.677698193033194 #
point $-1 18.801365801341127 54.75874190605321 7.0632919860343861 #
straight-curve $-1 0 54.75874190605321 11.677698193033192 -1 0 0 I I #
vertex $-1 $224 $297 #
point $-1 28.227761306849018 50.291428833520477 7.8186335138765157 #
vertex $-1 $228 $298 #
point $-1 40.867354565110872 50.291428833520477 7.8186335138765157 #
straight-curve $-1 -79.313943906979588 54.75874190605321 0 0 0 -1 I I #
point $-1 -79.313943906979588 -54.75874190605321 -11.677698193033192 #
straight-curve $-1 -79.313943906979588 0 -11.677698193033192 0 1 0 I I #
point $-1 -79.313943906979588 54.75874190605321 -11.677698193033192 #
edge $-1 $262 -3.0514833594228365 $256 3.0514833594228357 $255 $299 forward 7 unknown #
coedge $-1 $260 $251 $250 $286 reversed $186 $-1 #
edge $-1 $264 -3.0514833594228365 $253 3.0514833594228357 $250 $300 forward 7 unknown #
straight-curve $-1 0 -66.010473364620594 -11.677698193033191 -1 0 0 I I #
point $-1 79.313943906979588 -66.010473364620594 -11.677698193033191 #
point $-1 -79.313943906979588 -66.010473364620594 -11.677698193033191 #
straight-curve $-1 0 -66.010473364620594 -5.5747314741875185 1 0 0 I I #
point $-1 -79.313943906979588 -66.010473364620594 -5.5747314741875185 #
point $-1 79.313943906979588 -66.010473364620594 -5.5747314741875185 #
straight-curve $-1 48.293750070618778 54.75874190605321 99.906585405440566 0 0 -1 I I #
point $-1 48.293750070618778 54.75874190605321 11.677698193033192 #
straight-curve $-1 16.773778967989976 54.75874190605321 7.063291986034379 -1 0 0 I I #
point $-1 48.293750070618778 54.75874190605321 7.0632919860343861 #
point $-1 27.227761306849018 49.732235922782074 6.9895959462235675 #
point $-1 39.867354565110872 49.732235922782074 6.9895959462235675 #
straight-curve $-1 -79.313943906979588 -66.010473364620594 -8.626214833610355 0 0 -1 I I #
straight-curve $-1 79.313943906979588 -66.010473364620594 -8.626214833610355 0 0 -1 I I #
End-of-ACIS-data 