500 0 10 0           
7 Unknown 11 ACIS 5.0 NT 24 Thu Mar 25 18:16:46 1999 
-1 9.9999999999999995e-007 1e-010 
body $-1 $10 $-1 $11 #
body $-1 $12 $-1 $13 #
body $-1 $14 $-1 $15 #
body $-1 $16 $-1 $17 #
body $-1 $18 $-1 $19 #
body $-1 $20 $-1 $21 #
body $-1 $22 $-1 $23 #
body $-1 $24 $-1 $25 #
body $-1 $26 $-1 $27 #
body $-1 $28 $-1 $29 #
lump $-1 $-1 $30 $0 #
transform $-1 1 0 0 0 1 0 0 0 1 58.40144047364727 28.366413944342959 7.1645387677658103 1 rotate no_reflect no_shear #
lump $-1 $-1 $31 $1 #
transform $-1 1 0 0 0 1 0 0 0 1 58.40144047364727 28.366413944342959 7.1645387677658103 1 rotate no_reflect no_shear #
lump $-1 $-1 $32 $2 #
transform $-1 1 0 0 0 1 0 0 0 1 58.40144047364727 28.366413944342959 7.1645387677658103 1 rotate no_reflect no_shear #
lump $-1 $-1 $33 $3 #
transform $-1 1 0 0 0 1 0 0 0 1 58.40144047364727 28.366413944342959 7.1645387677658103 1 rotate no_reflect no_shear #
lump $-1 $-1 $34 $4 #
transform $-1 1 0 0 0 1 0 0 0 1 58.40144047364727 28.366413944342959 7.1645387677658103 1 rotate no_reflect no_shear #
lump $-1 $-1 $35 $5 #
transform $-1 1 0 0 0 1 0 0 0 1 58.40144047364727 28.366413944342959 7.1645387677658103 1 rotate no_reflect no_shear #
lump $-1 $-1 $36 $6 #
transform $-1 1 0 0 0 1 0 0 0 1 58.40144047364727 28.366413944342959 7.1645387677658103 1 rotate no_reflect no_shear #
lump $-1 $-1 $37 $7 #
transform $-1 1 0 0 0 1 0 0 0 1 58.40144047364727 28.366413944342959 7.1645387677658103 1 rotate no_reflect no_shear #
lump $-1 $-1 $38 $8 #
transform $-1 1 0 0 0 1 0 0 0 1 58.40144047364727 28.366413944342959 7.1645387677658103 1 rotate no_reflect no_shear #
lump $-1 $-1 $39 $9 #
transform $-1 1 0 0 0 1 0 0 0 1 58.40144047364727 28.366413944342959 7.1645387677658103 1 rotate no_reflect no_shear #
shell $-1 $-1 $-1 $40 $-1 $10 #
shell $-1 $-1 $-1 $41 $-1 $12 #
shell $-1 $-1 $-1 $42 $-1 $14 #
shell $-1 $-1 $-1 $43 $-1 $16 #
shell $-1 $-1 $-1 $44 $-1 $18 #
shell $-1 $-1 $-1 $45 $-1 $20 #
shell $-1 $-1 $-1 $46 $-1 $22 #
shell $-1 $-1 $-1 $47 $-1 $24 #
shell $-1 $-1 $-1 $48 $-1 $26 #
shell $-1 $-1 $-1 $49 $-1 $28 #
face $-1 $50 $51 $30 $-1 $52 forward single #
face $-1 $53 $54 $31 $-1 $55 forward single #
face $-1 $56 $57 $32 $-1 $58 forward single #
face $-1 $59 $60 $33 $-1 $61 reversed single #
face $-1 $62 $63 $34 $-1 $64 forward single #
face $-1 $65 $66 $35 $-1 $67 reversed single #
face $-1 $68 $69 $36 $-1 $70 forward single #
face $-1 $71 $72 $37 $-1 $73 reversed single #
face $-1 $74 $75 $38 $-1 $76 forward single #
face $-1 $77 $78 $39 $-1 $79 forward single #
face $-1 $80 $81 $30 $-1 $82 reversed single #
loop $-1 $-1 $83 $40 #
plane-surface $-1 0 0 7.1645387677658103 0 0 1 1 0 0 forward_v I I I I #
face $-1 $84 $85 $31 $-1 $86 reversed single #
loop $-1 $-1 $87 $41 #
plane-surface $-1 0 -28.366413944342959 0 0 1 0 0 0 1 forward_v I I I I #
face $-1 $88 $89 $32 $-1 $90 reversed single #
loop $-1 $-1 $91 $42 #
plane-surface $-1 0 28.366413944342959 0 0 -1 0 0 0 -1 forward_v I I I I #
face $-1 $92 $93 $33 $-1 $94 reversed single #
loop $-1 $-1 $95 $43 #
plane-surface $-1 21.243077720572728 -10.81030279976024 162.0907317240958 0 -1 0 -0.52991927123019833 0 -0.84804809178421925 forward_v I I I I #
face $-1 $96 $97 $34 $-1 $98 forward single #
loop $-1 $99 $100 $44 #
cone-surface $-1 53.140563950712625 -14.199736623654035 3.4476057616869822 -0.52991927123019833 0 -0.84804809178421925 1.2720721376763289 0 -0.79487890684529749 1 I I 0 1 1.5 forward I I I I #
face $-1 $101 $102 $35 $-1 $103 reversed single #
loop $-1 $-1 $104 $45 #
plane-surface $-1 21.243077720572728 17.589170447547822 162.0907317240958 0 -1 0 -0.52991927123019833 0 -0.84804809178421925 forward_v I I I I #
face $-1 $105 $106 $36 $-1 $107 forward single #
loop $-1 $108 $109 $46 #
cone-surface $-1 53.140563950712625 14.199736623654026 3.4476057616869822 -0.52991927123019833 0 -0.84804809178421925 1.2720721376763289 0 -0.79487890684529749 1 I I 0 1 1.5 forward I I I I #
face $-1 $110 $111 $37 $-1 $112 reversed single #
loop $-1 $-1 $113 $47 #
plane-surface $-1 -133.48088604506211 -13.899386384833713 92.540851289263728 0 1 0 -0.64278761758704617 0 0.76604443648966558 forward_v I I I I #
face $-1 $114 $115 $38 $-1 $116 forward single #
loop $-1 $117 $118 $48 #
cone-surface $-1 -54.788834040447611 -10.989825924104458 3.7207448715875522 0.64278761758704617 0 -0.76604443648966558 0.76604443648966558 0 0.64278761758704617 1 I I 0 1 1 forward I I I I #
face $-1 $119 $120 $39 $-1 $121 forward single #
loop $-1 $122 $123 $49 #
cone-surface $-1 -54.788834040447611 -6.6254852330105756 3.7207448715875522 0.64278761758704617 0 -0.76604443648966558 0.76604443648966558 0 0.64278761758704617 1 I I 0 1 1 forward I I I I #
face $-1 $124 $125 $30 $-1 $126 reversed single #
loop $-1 $-1 $127 $50 #
plane-surface $-1 0 0 -7.1645387677658103 0 0 1 1 0 0 forward_v I I I I #
coedge $-1 $128 $129 $130 $131 forward $51 $-1 #
face $-1 $132 $133 $31 $-1 $134 forward single #
loop $-1 $-1 $135 $53 #
plane-surface $-1 -58.40144047364727 0 0 1 0 0 0 0 -1 forward_v I I I I #
coedge $-1 $136 $137 $138 $139 forward $54 $-1 #
face $-1 $140 $141 $32 $-1 $142 forward single #
loop $-1 $-1 $143 $56 #
plane-surface $-1 58.40144047364727 0 0 -1 0 0 0 0 1 forward_v I I I I #
coedge $-1 $144 $145 $146 $147 forward $57 $-1 #
face $-1 $148 $149 $33 $-1 $150 reversed single #
loop $-1 $-1 $151 $59 #
plane-surface $-1 -40.65301982860521 -14.199736623654035 63.036271421843324 0.52991927123019833 0 0.84804809178421925 0.84804809178421925 0 -0.52991927123019833 forward_v I I I I #
coedge $-1 $152 $153 $154 $155 reversed $60 $-1 #
face $-1 $-1 $156 $34 $-1 $157 forward single #
loop $-1 $158 $159 $62 #
cone-surface $-1 52.302747464439364 -14.199736623654035 2.1068191343201992 -0.52991927123019833 0 -0.84804809178421925 0.63603606883816444 0 -0.39743945342264875 1 I I -0.70710678118654757 0.70710678118654757 0.75 forward I I I I #
loop $-1 $-1 $160 $44 #
coedge $-1 $100 $100 $161 $162 reversed $63 $-1 #
face $-1 $163 $164 $35 $-1 $165 reversed single #
loop $-1 $-1 $166 $65 #
plane-surface $-1 -40.65301982860521 14.199736623654026 63.036271421843324 0.52991927123019833 0 0.84804809178421925 0.84804809178421925 0 -0.52991927123019833 forward_v I I I I #
coedge $-1 $167 $168 $169 $170 reversed $66 $-1 #
face $-1 $-1 $171 $36 $-1 $172 forward single #
loop $-1 $173 $174 $68 #
cone-surface $-1 52.302747464439364 14.199736623654026 2.1068191343201992 -0.52991927123019833 0 -0.84804809178421925 0.63603606883816444 0 -0.39743945342264875 1 I I -0.70710678118654757 0.70710678118654757 0.75 forward I I I I #
loop $-1 $-1 $175 $46 #
coedge $-1 $109 $109 $176 $177 reversed $69 $-1 #
face $-1 $178 $179 $37 $-1 $180 reversed single #
loop $-1 $-1 $181 $71 #
plane-surface $-1 -58.40144047364727 -8.8076555785575152 3.0646541736239925 -0.64278761758704617 0 0.76604443648966558 0.76604443648966558 0 0.64278761758704617 forward_v I I I I #
coedge $-1 $182 $183 $184 $185 reversed $72 $-1 #
face $-1 $-1 $186 $38 $-1 $187 forward single #
loop $-1 $188 $189 $74 #
cone-surface $-1 -53.297859844430441 -10.989825924104458 1.943871054235375 0.64278761758704617 0 -0.76604443648966558 0.38302221824483279 0 0.32139380879352308 1 I I -0.70710678118654746 0.70710678118654746 0.5 forward I I I I #
loop $-1 $-1 $190 $48 #
coedge $-1 $118 $118 $191 $192 reversed $75 $-1 #
face $-1 $-1 $193 $39 $-1 $194 forward single #
loop $-1 $195 $196 $77 #
cone-surface $-1 -53.297859844430441 -6.6254852330105756 1.943871054235375 0.64278761758704617 0 -0.76604443648966558 0.38302221824483279 0 0.32139380879352308 1 I I -0.70710678118654746 0.70710678118654746 0.5 forward I I I I #
loop $-1 $-1 $197 $49 #
coedge $-1 $123 $123 $198 $199 reversed $78 $-1 #
face $-1 $200 $201 $30 $-1 $202 reversed single #
loop $-1 $-1 $203 $80 #
plane-surface $-1 0 -28.366413944342959 0 0 1 0 0 0 1 forward_v I I I I #
coedge $-1 $204 $205 $206 $207 forward $81 $-1 #
coedge $-1 $208 $83 $209 $210 forward $51 $-1 #
coedge $-1 $83 $208 $211 $212 forward $51 $-1 #
coedge $-1 $213 $214 $83 $131 reversed $215 $-1 #
edge $-1 $216 -28.366413944342959 $217 28.366413944342959 $130 $218 forward 7 unknown #
face $-1 $219 $220 $31 $-1 $221 reversed single #
loop $-1 $-1 $222 $84 #
plane-surface $-1 0 -30.955329768979158 3.2311182817570008 0 0 1 1 0 0 forward_v I I I I #
coedge $-1 $223 $224 $137 $225 forward $85 $-1 #
coedge $-1 $226 $87 $227 $228 reversed $54 $-1 #
coedge $-1 $87 $226 $135 $225 reversed $54 $-1 #
coedge $-1 $229 $222 $87 $139 reversed $133 $-1 #
edge $-1 $230 -58.40144047364727 $231 58.40144047364727 $138 $232 forward 7 unknown #
face $-1 $233 $234 $32 $-1 $235 reversed single #
loop $-1 $-1 $236 $88 #
plane-surface $-1 0 30.955329768979162 3.2311182817570008 0 0 1 1 0 0 forward_v I I I I #
coedge $-1 $237 $238 $145 $239 forward $89 $-1 #
coedge $-1 $240 $91 $241 $242 reversed $57 $-1 #
coedge $-1 $91 $240 $143 $239 reversed $57 $-1 #
coedge $-1 $236 $243 $91 $147 reversed $141 $-1 #
edge $-1 $244 -58.40144047364727 $245 58.40144047364727 $146 $246 forward 7 unknown #
face $-1 $247 $248 $33 $-1 $249 forward single #
loop $-1 $-1 $250 $92 #
plane-surface $-1 21.243077720572728 -17.589170447547829 162.0907317240958 0 1 0 0.52991927123019833 0 0.84804809178421925 forward_v I I I I #
coedge $-1 $251 $252 $253 $254 reversed $93 $-1 #
coedge $-1 $153 $95 $255 $256 reversed $60 $-1 #
coedge $-1 $95 $152 $251 $257 reversed $60 $-1 #
coedge $-1 $253 $258 $95 $155 forward $248 $-1 #
edge $-1 $259 -47.779901613360906 $260 -38.138902633192814 $154 $261 forward 7 unknown #
loop $-1 $-1 $161 $96 #
plane-surface $-1 -40.65301982860521 -14.199736623654035 63.036271421843324 0.52991927123019833 0 0.84804809178421925 0.84804809178421925 0 -0.52991927123019833 forward_v I I I I #
loop $-1 $-1 $262 $62 #
coedge $-1 $159 $159 $160 $263 reversed $97 $-1 #
coedge $-1 $160 $160 $159 $263 forward $99 $-1 #
coedge $-1 $161 $161 $100 $162 forward $156 $-1 #
edge $-1 $264 0 $264 6.2831853071796004 $161 $265 forward 7 unknown #
face $-1 $266 $267 $35 $-1 $268 reversed single #
loop $-1 $-1 $269 $101 #
plane-surface $-1 21.243077720572728 10.810302799760231 162.0907317240958 0 1 0 0.52991927123019833 0 0.84804809178421925 forward_v I I I I #
coedge $-1 $270 $271 $272 $273 reversed $102 $-1 #
coedge $-1 $168 $104 $274 $275 reversed $66 $-1 #
coedge $-1 $104 $167 $270 $276 reversed $66 $-1 #
coedge $-1 $272 $277 $104 $170 forward $278 $-1 #
edge $-1 $279 -47.779901613360906 $280 -38.138902633192814 $169 $281 forward 7 unknown #
loop $-1 $-1 $176 $105 #
plane-surface $-1 -40.65301982860521 14.199736623654026 63.036271421843324 0.52991927123019833 0 0.84804809178421925 0.84804809178421925 0 -0.52991927123019833 forward_v I I I I #
loop $-1 $-1 $282 $68 #
coedge $-1 $174 $174 $175 $283 reversed $106 $-1 #
coedge $-1 $175 $175 $174 $283 forward $108 $-1 #
coedge $-1 $176 $176 $109 $177 forward $171 $-1 #
edge $-1 $284 0 $284 6.2831853071796004 $176 $285 forward 7 unknown #
face $-1 $286 $287 $37 $-1 $288 reversed single #
loop $-1 $-1 $289 $110 #
plane-surface $-1 -133.48088604506211 -3.7159247722813173 92.540851289263728 0 -1 0 0.64278761758704617 0 -0.76604443648966558 forward_v I I I I #
coedge $-1 $290 $291 $292 $293 reversed $111 $-1 #
coedge $-1 $183 $113 $294 $295 reversed $72 $-1 #
coedge $-1 $113 $182 $290 $296 reversed $72 $-1 #
coedge $-1 $292 $297 $113 $185 forward $298 $-1 #
edge $-1 $299 8.3390025488837836 $300 13.225054640835786 $184 $301 forward 7 unknown #
loop $-1 $-1 $191 $114 #
plane-surface $-1 -58.40144047364727 -8.8076555785575152 3.0646541736239925 -0.64278761758704617 0 0.76604443648966558 0.76604443648966558 0 0.64278761758704617 forward_v I I I I #
loop $-1 $-1 $302 $74 #
coedge $-1 $189 $189 $190 $303 reversed $115 $-1 #
coedge $-1 $190 $190 $189 $303 forward $117 $-1 #
coedge $-1 $191 $191 $118 $192 forward $186 $-1 #
edge $-1 $304 0 $304 6.2831853071796004 $191 $305 forward 7 unknown #
loop $-1 $-1 $198 $119 #
plane-surface $-1 -58.40144047364727 -8.8076555785575152 3.0646541736239925 -0.64278761758704617 0 0.76604443648966558 0.76604443648966558 0 0.64278761758704617 forward_v I I I I #
loop $-1 $-1 $306 $77 #
coedge $-1 $196 $196 $197 $307 reversed $120 $-1 #
coedge $-1 $197 $197 $196 $307 forward $122 $-1 #
coedge $-1 $198 $198 $123 $199 forward $193 $-1 #
edge $-1 $308 0 $308 6.2831853071796004 $198 $309 forward 7 unknown #
face $-1 $310 $311 $30 $-1 $312 reversed single #
loop $-1 $-1 $313 $124 #
plane-surface $-1 -58.40144047364727 0 0 1 0 0 0 0 -1 forward_v I I I I #
coedge $-1 $314 $211 $315 $316 forward $125 $-1 #
coedge $-1 $317 $127 $314 $318 forward $81 $-1 #
coedge $-1 $127 $317 $319 $320 forward $81 $-1 #
coedge $-1 $214 $213 $127 $207 reversed $215 $-1 #
edge $-1 $321 -28.366413944342959 $322 28.366413944342959 $206 $323 forward 7 unknown #
coedge $-1 $129 $128 $324 $325 forward $51 $-1 #
coedge $-1 $326 $327 $128 $210 reversed $311 $-1 #
edge $-1 $217 -58.40144047364727 $328 58.40144047364727 $209 $329 forward 7 unknown #
coedge $-1 $203 $330 $129 $212 reversed $125 $-1 #
edge $-1 $331 -58.40144047364727 $216 58.40144047364727 $211 $332 forward 7 unknown #
coedge $-1 $206 $130 $330 $333 forward $215 $-1 #
coedge $-1 $130 $206 $326 $334 reversed $215 $-1 #
loop $-1 $-1 $213 $310 #
vertex $-1 $131 $335 #
vertex $-1 $131 $336 #
straight-curve $-1 58.40144047364727 0 7.1645387677658103 0 1 0 I I #
face $-1 $337 $338 $31 $-1 $339 reversed single #
loop $-1 $-1 $340 $132 #
plane-surface $-1 0 -30.955329768979158 0.17424549216299701 0 0 1 1 0 0 forward_v I I I I #
coedge $-1 $138 $341 $342 $343 forward $133 $-1 #
coedge $-1 $344 $135 $345 $346 reversed $85 $-1 #
coedge $-1 $135 $344 $229 $347 reversed $85 $-1 #
edge $-1 $230 -3.2311182817570008 $348 -0.17424549216299701 $135 $349 forward 7 unknown #
coedge $-1 $137 $136 $350 $351 forward $54 $-1 #
coedge $-1 $342 $352 $136 $228 forward $353 $-1 #
edge $-1 $354 0.17424549216299701 $231 3.2311182817570008 $227 $355 forward 7 unknown #
coedge $-1 $341 $138 $224 $347 forward $133 $-1 #
vertex $-1 $225 $356 #
vertex $-1 $343 $357 #
straight-curve $-1 0 -28.366413944342959 3.2311182817570008 1 0 0 I I #
face $-1 $358 $359 $32 $-1 $360 reversed single #
loop $-1 $-1 $361 $140 #
plane-surface $-1 0 30.955329768979162 0.17424549216299701 0 0 1 1 0 0 forward_v I I I I #
coedge $-1 $362 $146 $238 $363 forward $141 $-1 #
coedge $-1 $364 $143 $361 $365 reversed $89 $-1 #
coedge $-1 $143 $364 $236 $363 reversed $89 $-1 #
edge $-1 $244 -3.2311182817570008 $366 -0.17424549216299701 $143 $367 forward 7 unknown #
coedge $-1 $145 $144 $368 $369 forward $57 $-1 #
coedge $-1 $370 $371 $144 $242 forward $372 $-1 #
edge $-1 $373 0.17424549216299701 $245 3.2311182817570008 $241 $374 forward 7 unknown #
coedge $-1 $146 $362 $370 $375 forward $141 $-1 #
vertex $-1 $239 $376 #
vertex $-1 $375 $377 #
straight-curve $-1 0 28.366413944342959 3.2311182817570008 -1 0 0 I I #
face $-1 $-1 $378 $33 $-1 $379 reversed single #
loop $-1 $-1 $154 $148 #
plane-surface $-1 0 0 7.1645387677658103 0 0 1 1 0 0 forward_v I I I I #
coedge $-1 $380 $381 $382 $383 reversed $149 $-1 #
coedge $-1 $384 $151 $153 $257 forward $93 $-1 #
coedge $-1 $151 $384 $380 $385 forward $93 $-1 #
coedge $-1 $382 $154 $151 $254 forward $248 $-1 #
edge $-1 $260 3.7104344879332229 $386 10.489302135720813 $253 $387 forward 7 unknown #
coedge $-1 $388 $389 $152 $256 forward $378 $-1 #
edge $-1 $390 -79.90519198938253 $259 -73.880827094282097 $255 $391 forward 7 unknown #
edge $-1 $260 105.43442310443299 $390 116.80288094729457 $153 $392 forward 7 unknown #
coedge $-1 $154 $382 $388 $393 forward $248 $-1 #
vertex $-1 $256 $394 #
vertex $-1 $155 $395 #
straight-curve $-1 10.621538860286364 -10.81030279976024 7.164538767765805 -1 0 0 I I #
coedge $-1 $262 $262 $-1 $396 reversed $158 $-1 #
edge $-1 $397 0 $397 6.2831853071796004 $159 $398 forward 7 unknown #
vertex $-1 $162 $399 #
ellipse-curve $-1 53.580940983563238 -14.199736623654035 4.1523563202155929 0.52991927123019833 0 0.84804809178421925 1.2720721376763289 0 -0.79487890684529749 1 I I #
face $-1 $-1 $278 $35 $-1 $400 forward single #
loop $-1 $-1 $401 $163 #
plane-surface $-1 58.40144047364727 0 0 -1 0 0 0 0 1 forward_v I I I I #
coedge $-1 $402 $403 $404 $405 reversed $164 $-1 #
coedge $-1 $406 $166 $168 $276 forward $102 $-1 #
coedge $-1 $166 $406 $402 $407 forward $102 $-1 #
coedge $-1 $404 $169 $166 $273 forward $278 $-1 #
edge $-1 $280 -10.489302135720809 $408 -3.7104344879332185 $272 $409 forward 7 unknown #
coedge $-1 $410 $411 $167 $275 forward $267 $-1 #
edge $-1 $412 -79.90519198938253 $279 -73.880827094282097 $274 $413 forward 7 unknown #
edge $-1 $280 105.43442310443299 $412 116.80288094729457 $168 $414 forward 7 unknown #
coedge $-1 $169 $404 $410 $415 forward $278 $-1 #
loop $-1 $-1 $404 $266 #
vertex $-1 $275 $416 #
vertex $-1 $170 $417 #
straight-curve $-1 10.621538860286364 17.589170447547822 7.164538767765805 -1 0 0 I I #
coedge $-1 $282 $282 $-1 $418 reversed $173 $-1 #
edge $-1 $419 0 $419 6.2831853071796004 $174 $420 forward 7 unknown #
vertex $-1 $177 $421 #
ellipse-curve $-1 53.580940983563238 14.199736623654026 4.1523563202155929 0.52991927123019833 0 0.84804809178421925 1.2720721376763289 0 -0.79487890684529749 1 I I #
face $-1 $-1 $298 $37 $-1 $422 forward single #
loop $-1 $-1 $423 $178 #
plane-surface $-1 -58.40144047364727 0 0 1 0 0 0 0 -1 forward_v I I I I #
coedge $-1 $424 $425 $426 $427 reversed $179 $-1 #
coedge $-1 $428 $181 $183 $296 forward $111 $-1 #
coedge $-1 $181 $428 $424 $429 forward $111 $-1 #
coedge $-1 $426 $184 $181 $293 forward $298 $-1 #
edge $-1 $300 -9.4955585955549555 $430 0.68790301699744028 $292 $431 forward 7 unknown #
coedge $-1 $432 $433 $182 $295 forward $287 $-1 #
edge $-1 $434 -43.205771471007871 $299 -39.105886876866052 $294 $435 forward 7 unknown #
edge $-1 $300 -6.3782880720887771 $434 0 $183 $436 forward 7 unknown #
coedge $-1 $184 $426 $432 $437 forward $298 $-1 #
loop $-1 $-1 $426 $286 #
vertex $-1 $295 $438 #
vertex $-1 $185 $439 #
straight-curve $-1 -66.740443022531053 -13.899386384833713 7.1645387677658121 1 0 0 I I #
coedge $-1 $302 $302 $-1 $440 reversed $188 $-1 #
edge $-1 $441 0 $441 6.2831853071796004 $189 $442 forward 7 unknown #
vertex $-1 $192 $443 #
ellipse-curve $-1 -55.958414427671265 -10.989825924104458 5.1145964706949041 -0.64278761758704617 0 0.76604443648966558 0.76604443648966558 0 0.64278761758704617 1 I I #
coedge $-1 $306 $306 $-1 $444 reversed $195 $-1 #
edge $-1 $445 0 $445 6.2831853071796004 $196 $446 forward 7 unknown #
vertex $-1 $199 $447 #
ellipse-curve $-1 -55.958414427671265 -6.6254852330105756 5.1145964706949041 -0.64278761758704617 0 0.76604443648966558 0.76604443648966558 0 0.64278761758704617 1 I I #
face $-1 $-1 $215 $30 $-1 $448 reversed single #
loop $-1 $-1 $326 $200 #
plane-surface $-1 0 28.366413944342959 0 0 -1 0 0 0 -1 forward_v I I I I #
coedge $-1 $449 $324 $327 $450 forward $201 $-1 #
coedge $-1 $330 $203 $204 $318 reversed $125 $-1 #
coedge $-1 $324 $449 $203 $316 reversed $201 $-1 #
edge $-1 $331 -7.1645387677658103 $451 7.1645387677658103 $315 $452 forward 7 unknown #
coedge $-1 $205 $204 $449 $453 forward $81 $-1 #
edge $-1 $322 -58.40144047364727 $451 58.40144047364727 $314 $454 forward 7 unknown #
coedge $-1 $327 $326 $205 $320 reversed $311 $-1 #
edge $-1 $455 -58.40144047364727 $321 58.40144047364727 $319 $456 forward 7 unknown #
vertex $-1 $207 $457 #
vertex $-1 $333 $458 #
straight-curve $-1 58.40144047364727 0 -7.1645387677658103 0 -1 0 I I #
coedge $-1 $313 $315 $208 $325 reversed $201 $-1 #
edge $-1 $328 -28.366413944342959 $331 28.366413944342959 $324 $459 forward 7 unknown #
coedge $-1 $319 $209 $214 $334 forward $311 $-1 #
coedge $-1 $209 $319 $313 $450 reversed $311 $-1 #
vertex $-1 $210 $460 #
straight-curve $-1 0 28.366413944342959 7.1645387677658103 -1 0 0 I I #
coedge $-1 $211 $314 $213 $333 reversed $125 $-1 #
vertex $-1 $325 $461 #
straight-curve $-1 0 -28.366413944342959 7.1645387677658103 1 0 0 I I #
edge $-1 $216 -7.1645387677658103 $322 7.1645387677658103 $213 $462 forward 7 unknown #
edge $-1 $217 -7.1645387677658103 $321 7.1645387677658103 $214 $463 forward 7 unknown #
point $-1 58.40144047364727 -28.366413944342959 7.1645387677658103 #
point $-1 58.40144047364727 28.366413944342959 7.1645387677658103 #
face $-1 $-1 $353 $31 $-1 $464 reversed single #
loop $-1 $-1 $465 $219 #
plane-surface $-1 0 -33.544245593615358 1.7026818869599989 0 1 0 0 0 1 forward_v I I I I #
coedge $-1 $466 $350 $352 $467 forward $220 $-1 #
coedge $-1 $222 $229 $468 $469 forward $133 $-1 #
coedge $-1 $470 $227 $222 $343 reversed $353 $-1 #
edge $-1 $471 -2.5889158246361994 $231 2.5889158246361994 $342 $472 forward 7 unknown #
coedge $-1 $224 $223 $465 $473 reversed $85 $-1 #
coedge $-1 $350 $466 $223 $346 forward $220 $-1 #
edge $-1 $474 -2.5889158246361994 $348 2.5889158246361994 $223 $475 forward 7 unknown #
edge $-1 $230 -2.5889158246361994 $476 2.5889158246361994 $224 $477 forward 7 unknown #
vertex $-1 $225 $478 #
straight-curve $-1 -58.40144047364727 -28.366413944342959 0 0 0 -1 I I #
coedge $-1 $340 $345 $226 $351 reversed $220 $-1 #
edge $-1 $354 -58.40144047364727 $348 58.40144047364727 $350 $479 forward 7 unknown #
coedge $-1 $227 $470 $340 $467 reversed $353 $-1 #
loop $-1 $-1 $227 $337 #
vertex $-1 $228 $480 #
straight-curve $-1 58.40144047364727 -28.366413944342959 0 0 0 1 I I #
point $-1 -58.40144047364727 -28.366413944342959 3.2311182817570008 #
point $-1 58.40144047364727 -28.366413944342959 3.2311182817570008 #
face $-1 $-1 $372 $32 $-1 $481 reversed single #
loop $-1 $-1 $482 $233 #
plane-surface $-1 0 33.544245593615358 1.7026818869599989 0 -1 0 0 0 -1 forward_v I I I I #
coedge $-1 $368 $483 $237 $365 forward $234 $-1 #
coedge $-1 $243 $236 $484 $485 forward $141 $-1 #
edge $-1 $244 -2.5889158246361994 $486 2.5889158246361959 $238 $487 forward 7 unknown #
coedge $-1 $238 $237 $482 $488 reversed $89 $-1 #
edge $-1 $489 -2.5889158246361959 $366 2.5889158246361994 $237 $490 forward 7 unknown #
vertex $-1 $239 $491 #
straight-curve $-1 58.40144047364727 28.366413944342959 0 0 0 -1 I I #
coedge $-1 $492 $361 $240 $369 reversed $234 $-1 #
edge $-1 $373 -58.40144047364727 $366 58.40144047364727 $368 $493 forward 7 unknown #
coedge $-1 $494 $241 $243 $375 reversed $372 $-1 #
coedge $-1 $241 $494 $492 $495 reversed $372 $-1 #
loop $-1 $-1 $241 $358 #
vertex $-1 $242 $496 #
straight-curve $-1 -58.40144047364727 28.366413944342959 0 0 0 1 I I #
edge $-1 $497 -2.5889158246361959 $245 2.5889158246361994 $370 $498 forward 7 unknown #
point $-1 58.40144047364727 28.366413944342963 3.2311182817570008 #
point $-1 -58.40144047364727 28.366413944342963 3.2311182817570008 #
loop $-1 $-1 $255 $247 #
plane-surface $-1 58.40144047364727 0 0 -1 0 0 0 0 1 forward_v I I I I #
coedge $-1 $381 $250 $252 $385 reversed $149 $-1 #
coedge $-1 $250 $380 $499 $500 reversed $149 $-1 #
coedge $-1 $258 $253 $250 $383 forward $248 $-1 #
edge $-1 $386 38.138902633192814 $501 47.779901613360906 $382 $502 forward 7 unknown #
coedge $-1 $252 $251 $389 $503 reversed $93 $-1 #
edge $-1 $504 -116.80288094729457 $386 -105.43442310443299 $380 $505 forward 7 unknown #
vertex $-1 $254 $506 #
straight-curve $-1 48.760441493479178 -7.0998683118270174 7.164538767765805 0 -1 0 I I #
coedge $-1 $499 $255 $258 $393 reversed $378 $-1 #
coedge $-1 $255 $499 $384 $503 forward $378 $-1 #
vertex $-1 $256 $507 #
straight-curve $-1 58.40144047364727 -10.81030279976024 81.045365862047902 0 0 1 I I #
straight-curve $-1 -40.65301982860521 -10.81030279976024 63.036271421843324 0.84804809178421925 0 -0.52991927123019833 I I #
edge $-1 $501 -17.589170447547829 $259 -10.81030279976024 $388 $508 forward 7 unknown #
point $-1 58.40144047364727 -10.81030279976024 7.1645387677658103 #
point $-1 48.760441493479178 -10.81030279976024 7.1645387677658121 #
edge $-1 $509 1 $509 0 $262 $-1 forward 7 unknown #
vertex $-1 $263 $510 #
ellipse-curve $-1 52.700186917862013 -14.199736623654035 2.7428552031583635 0.52991927123019833 0 0.84804809178421925 1.2720721376763289 0 -0.79487890684529749 1 I I #
point $-1 54.85301312123957 -14.199736623654035 3.3574774133703027 #
plane-surface $-1 0 0 7.1645387677658103 0 0 1 1 0 0 forward_v I I I I #
coedge $-1 $411 $410 $403 $511 forward $267 $-1 #
coedge $-1 $403 $269 $271 $407 reversed $164 $-1 #
coedge $-1 $269 $402 $401 $511 reversed $164 $-1 #
coedge $-1 $277 $272 $269 $405 forward $278 $-1 #
edge $-1 $408 38.138902633192814 $512 47.779901613360906 $404 $513 forward 7 unknown #
coedge $-1 $271 $270 $411 $514 reversed $102 $-1 #
edge $-1 $515 -116.80288094729457 $408 -105.43442310443299 $402 $516 forward 7 unknown #
vertex $-1 $273 $517 #
straight-curve $-1 48.760441493479178 7.0998683118270129 7.164538767765805 0 -1 0 I I #
coedge $-1 $401 $274 $277 $415 reversed $267 $-1 #
coedge $-1 $274 $401 $406 $514 forward $267 $-1 #
vertex $-1 $275 $518 #
straight-curve $-1 58.40144047364727 17.589170447547822 81.045365862047902 0 0 1 I I #
straight-curve $-1 -40.65301982860521 17.589170447547822 63.036271421843324 0.84804809178421925 0 -0.52991927123019833 I I #
edge $-1 $512 10.810302799760231 $279 17.589170447547822 $410 $519 forward 7 unknown #
point $-1 58.40144047364727 17.589170447547822 7.1645387677658103 #
point $-1 48.760441493479178 17.589170447547822 7.1645387677658121 #
edge $-1 $520 1 $520 0 $282 $-1 forward 7 unknown #
vertex $-1 $283 $521 #
ellipse-curve $-1 52.700186917862013 14.199736623654026 2.7428552031583635 0.52991927123019833 0 0.84804809178421925 1.2720721376763289 0 -0.79487890684529749 1 I I #
point $-1 54.85301312123957 14.199736623654026 3.3574774133703027 #
plane-surface $-1 0 0 7.1645387677658103 0 0 1 1 0 0 forward_v I I I I #
coedge $-1 $433 $432 $425 $522 forward $287 $-1 #
coedge $-1 $425 $289 $291 $429 reversed $179 $-1 #
coedge $-1 $289 $424 $423 $522 reversed $179 $-1 #
coedge $-1 $297 $292 $289 $427 forward $298 $-1 #
edge $-1 $430 -13.225054640835786 $523 -8.3390025488837836 $426 $524 forward 7 unknown #
coedge $-1 $291 $290 $433 $525 reversed $111 $-1 #
edge $-1 $526 0 $430 6.3782880720887771 $424 $527 forward 7 unknown #
vertex $-1 $293 $528 #
straight-curve $-1 -53.515388381695267 -4.4038277892787576 7.1645387677658121 0 1 0 I I #
coedge $-1 $423 $294 $297 $437 reversed $287 $-1 #
coedge $-1 $294 $423 $428 $525 forward $287 $-1 #
vertex $-1 $295 $529 #
straight-curve $-1 -58.40144047364727 -13.899386384833713 46.270425644631864 0 0 1 I I #
straight-curve $-1 -58.40144047364727 -13.899386384833713 3.0646541736239925 -0.76604443648966558 0 -0.64278761758704617 I I #
edge $-1 $523 3.7159247722813173 $299 13.899386384833713 $432 $530 forward 7 unknown #
point $-1 -58.40144047364727 -13.899386384833713 7.1645387677658103 #
point $-1 -53.515388381695267 -13.899386384833713 7.1645387677658103 #
edge $-1 $531 1 $531 0 $302 $-1 forward 7 unknown #
vertex $-1 $303 $532 #
ellipse-curve $-1 -53.619253653223964 -10.989825924104458 2.3268932724802078 -0.64278761758704617 0 0.76604443648966558 0.76604443648966558 0 0.64278761758704617 1 I I #
point $-1 -55.192369991181593 -10.989825924104458 5.7573840882819418 #
edge $-1 $533 1 $533 0 $306 $-1 forward 7 unknown #
vertex $-1 $307 $534 #
ellipse-curve $-1 -53.619253653223964 -6.6254852330105756 2.3268932724802078 -0.64278761758704617 0 0.76604443648966558 0.76604443648966558 0 0.64278761758704617 1 I I #
point $-1 -55.192369991181593 -6.6254852330105756 5.7573840882819418 #
plane-surface $-1 58.40144047364727 0 0 -1 0 0 0 0 1 forward_v I I I I #
coedge $-1 $315 $313 $317 $453 reversed $201 $-1 #
edge $-1 $328 -7.1645387677658103 $455 7.1645387677658103 $327 $535 forward 7 unknown #
vertex $-1 $453 $536 #
straight-curve $-1 -58.40144047364727 -28.366413944342959 0 0 0 -1 I I #
edge $-1 $451 -28.366413944342959 $455 28.366413944342959 $449 $537 forward 7 unknown #
straight-curve $-1 0 -28.366413944342959 -7.1645387677658103 -1 0 0 I I #
vertex $-1 $320 $538 #
straight-curve $-1 0 28.366413944342959 -7.1645387677658103 1 0 0 I I #
point $-1 58.40144047364727 28.366413944342959 -7.1645387677658103 #
point $-1 58.40144047364727 -28.366413944342959 -7.1645387677658103 #
straight-curve $-1 -58.40144047364727 0 7.1645387677658103 0 -1 0 I I #
point $-1 -58.40144047364727 28.366413944342959 7.1645387677658103 #
point $-1 -58.40144047364727 -28.366413944342959 7.1645387677658103 #
straight-curve $-1 58.40144047364727 -28.366413944342959 0 0 0 -1 I I #
straight-curve $-1 58.40144047364727 28.366413944342959 0 0 0 -1 I I #
plane-surface $-1 58.40144047364727 0 0 -1 0 0 0 0 1 forward_v I I I I #
coedge $-1 $539 $468 $344 $473 forward $338 $-1 #
coedge $-1 $345 $340 $539 $540 forward $220 $-1 #
edge $-1 $354 -2.5889158246361994 $541 2.5889158246361994 $352 $542 forward 7 unknown #
coedge $-1 $465 $543 $341 $469 reversed $338 $-1 #
edge $-1 $476 -58.40144047364727 $471 58.40144047364727 $468 $544 forward 7 unknown #
coedge $-1 $352 $342 $543 $545 forward $353 $-1 #
vertex $-1 $343 $546 #
straight-curve $-1 58.40144047364727 -30.955329768979158 3.2311182817570008 0 1 0 I I #
edge $-1 $476 -1.5284363947970019 $474 1.5284363947970019 $344 $547 forward 7 unknown #
vertex $-1 $346 $548 #
straight-curve $-1 -58.40144047364727 -30.955329768979158 0.17424549216299701 0 1 0 I I #
vertex $-1 $347 $549 #
straight-curve $-1 -58.40144047364727 -30.955329768979158 3.2311182817570008 0 -1 0 I I #
point $-1 -58.40144047364727 -28.366413944342959 0.17424549216299701 #
straight-curve $-1 0 -28.366413944342959 0.17424549216299701 -1 0 0 I I #
point $-1 58.40144047364727 -28.366413944342959 0.17424549216299701 #
plane-surface $-1 -58.40144047364727 0 0 1 0 0 0 0 -1 forward_v I I I I #
coedge $-1 $550 $484 $364 $488 forward $359 $-1 #
coedge $-1 $361 $492 $550 $551 forward $234 $-1 #
coedge $-1 $482 $552 $362 $485 reversed $359 $-1 #
edge $-1 $486 -58.40144047364727 $497 58.40144047364727 $484 $553 forward 7 unknown #
vertex $-1 $363 $554 #
straight-curve $-1 58.40144047364727 30.955329768979162 3.2311182817570008 0 1 0 I I #
edge $-1 $486 -1.5284363947970019 $489 1.5284363947970019 $364 $555 forward 7 unknown #
vertex $-1 $365 $556 #
straight-curve $-1 58.40144047364727 30.955329768979162 0.17424549216299701 0 -1 0 I I #
point $-1 58.40144047364727 28.366413944342963 0.17424549216299701 #
coedge $-1 $483 $368 $371 $495 forward $234 $-1 #
straight-curve $-1 0 28.366413944342959 0.17424549216299701 1 0 0 I I #
coedge $-1 $371 $370 $552 $557 forward $372 $-1 #
edge $-1 $373 -2.5889158246361994 $558 2.5889158246361959 $371 $559 forward 7 unknown #
point $-1 -58.40144047364727 28.366413944342963 0.17424549216299701 #
vertex $-1 $485 $560 #
straight-curve $-1 -58.40144047364727 30.955329768979162 3.2311182817570008 0 -1 0 I I #
coedge $-1 $389 $388 $381 $500 forward $378 $-1 #
edge $-1 $501 73.880827094282097 $504 79.90519198938253 $499 $561 forward 7 unknown #
vertex $-1 $393 $562 #
straight-curve $-1 10.621538860286364 -17.589170447547829 7.164538767765805 1 0 0 I I #
edge $-1 $504 -10.489302135720813 $390 -3.7104344879332229 $389 $563 forward 7 unknown #
vertex $-1 $503 $564 #
straight-curve $-1 -40.65301982860521 -17.589170447547829 63.036271421843324 -0.84804809178421925 0 0.52991927123019833 I I #
point $-1 48.760441493479178 -17.589170447547829 7.1645387677658121 #
point $-1 58.40144047364727 -10.81030279976024 1.140173872665379 #
straight-curve $-1 58.40144047364727 0 7.1645387677658103 0 1 0 I I #
vertex $-1 $396 $565 #
point $-1 53.972259055538345 -14.199736623654035 1.9479762963130662 #
edge $-1 $512 73.880827094282097 $515 79.90519198938253 $401 $566 forward 7 unknown #
vertex $-1 $415 $567 #
straight-curve $-1 10.621538860286364 10.810302799760231 7.164538767765805 1 0 0 I I #
edge $-1 $515 3.7104344879332185 $412 10.489302135720809 $411 $568 forward 7 unknown #
vertex $-1 $514 $569 #
straight-curve $-1 -40.65301982860521 10.810302799760231 63.036271421843324 -0.84804809178421925 0 0.52991927123019833 I I #
point $-1 48.760441493479178 10.810302799760231 7.1645387677658121 #
point $-1 58.40144047364727 17.589170447547822 1.140173872665379 #
straight-curve $-1 58.40144047364727 0 7.1645387677658103 0 1 0 I I #
vertex $-1 $418 $570 #
point $-1 53.972259055538345 14.199736623654026 1.9479762963130662 #
edge $-1 $523 39.105886876866052 $526 43.205771471007871 $423 $571 forward 7 unknown #
vertex $-1 $437 $572 #
straight-curve $-1 -66.740443022531053 -3.7159247722813173 7.1645387677658121 -1 0 0 I I #
edge $-1 $526 -0.68790301699744028 $434 9.4955585955549555 $433 $573 forward 7 unknown #
vertex $-1 $525 $574 #
straight-curve $-1 -58.40144047364727 -3.7159247722813173 3.0646541736239925 0.76604443648966558 0 0.64278761758704617 I I #
point $-1 -53.515388381695267 -3.7159247722813173 7.1645387677658103 #
point $-1 -58.40144047364727 -13.899386384833713 3.0646541736239925 #
straight-curve $-1 -58.40144047364727 0 7.1645387677658103 0 -1 0 I I #
vertex $-1 $440 $575 #
point $-1 -52.8532092167343 -10.989825924104458 2.969680890067254 #
vertex $-1 $444 $576 #
point $-1 -52.8532092167343 -6.6254852330105756 2.969680890067254 #
straight-curve $-1 -58.40144047364727 28.366413944342959 0 0 0 -1 I I #
point $-1 -58.40144047364727 -28.366413944342959 -7.1645387677658103 #
straight-curve $-1 -58.40144047364727 0 -7.1645387677658103 0 1 0 I I #
point $-1 -58.40144047364727 28.366413944342959 -7.1645387677658103 #
coedge $-1 $543 $465 $466 $540 reversed $338 $-1 #
edge $-1 $541 -58.40144047364727 $474 58.40144047364727 $539 $577 forward 7 unknown #
vertex $-1 $545 $578 #
straight-curve $-1 58.40144047364727 -30.955329768979158 0.17424549216299701 0 -1 0 I I #
coedge $-1 $468 $539 $470 $545 reversed $338 $-1 #
straight-curve $-1 0 -33.544245593615358 3.2311182817570008 1 0 0 I I #
edge $-1 $471 -1.5284363947970019 $541 1.5284363947970019 $470 $579 forward 7 unknown #
point $-1 58.40144047364727 -33.544245593615358 3.2311182817570008 #
straight-curve $-1 -58.40144047364727 -33.544245593615358 1.7026818869599989 0 0 -1 I I #
point $-1 -58.40144047364727 -33.544245593615358 0.17424549216299701 #
point $-1 -58.40144047364727 -33.544245593615358 3.2311182817570008 #
coedge $-1 $552 $482 $483 $551 reversed $359 $-1 #
edge $-1 $558 -58.40144047364727 $489 58.40144047364727 $550 $580 forward 7 unknown #
coedge $-1 $484 $550 $494 $557 reversed $359 $-1 #
straight-curve $-1 0 33.544245593615358 3.2311182817570008 -1 0 0 I I #
point $-1 58.40144047364727 33.544245593615358 3.2311182817570008 #
straight-curve $-1 58.40144047364727 33.544245593615358 1.7026818869599989 0 0 -1 I I #
point $-1 58.40144047364727 33.544245593615358 0.17424549216299701 #
edge $-1 $497 -1.5284363947970019 $558 1.5284363947970019 $552 $581 forward 7 unknown #
vertex $-1 $551 $582 #
straight-curve $-1 -58.40144047364727 30.955329768979162 0.17424549216299701 0 1 0 I I #
point $-1 -58.40144047364727 33.544245593615358 3.2311182817570008 #
straight-curve $-1 58.40144047364727 -17.589170447547829 81.045365862047902 0 0 -1 I I #
point $-1 58.40144047364727 -17.589170447547829 7.1645387677658103 #
straight-curve $-1 58.40144047364727 -7.0998683118270174 1.1401738726653718 0 1 0 I I #
point $-1 58.40144047364727 -17.589170447547829 1.140173872665379 #
point $-1 51.905308011016714 -14.199736623654035 1.4707830654820349 #
straight-curve $-1 58.40144047364727 10.810302799760231 81.045365862047902 0 0 -1 I I #
point $-1 58.40144047364727 10.810302799760231 7.1645387677658103 #
straight-curve $-1 58.40144047364727 7.0998683118270129 1.1401738726653718 0 1 0 I I #
point $-1 58.40144047364727 10.810302799760231 1.140173872665379 #
point $-1 51.905308011016714 14.199736623654026 1.4707830654820349 #
straight-curve $-1 -58.40144047364727 -3.7159247722813173 46.270425644631864 0 0 -1 I I #
point $-1 -58.40144047364727 -3.7159247722813173 7.1645387677658103 #
straight-curve $-1 -58.40144047364727 -4.4038277892787576 3.0646541736239907 0 -1 0 I I #
point $-1 -58.40144047364727 -3.7159247722813173 3.0646541736239925 #
point $-1 -52.976466035636918 -10.989825924104458 1.5608488359905421 #
point $-1 -52.976466035636918 -6.6254852330105756 1.5608488359905421 #
straight-curve $-1 0 -33.544245593615358 0.17424549216299701 -1 0 0 I I #
point $-1 58.40144047364727 -33.544245593615358 0.17424549216299701 #
straight-curve $-1 58.40144047364727 -33.544245593615358 1.7026818869599989 0 0 -1 I I #
straight-curve $-1 0 33.544245593615358 0.17424549216299701 1 0 0 I I #
straight-curve $-1 -58.40144047364727 33.544245593615358 1.7026818869599989 0 0 -1 I I #
point $-1 -58.40144047364727 33.544245593615358 0.17424549216299701 #
End-of-ACIS-data 