500 0 9 0           
7 Unknown 11 ACIS 5.0 NT 24 Thu Mar 25 23:07:26 1999 
-1 9.9999999999999995e-007 1e-010 
body $-1 $9 $-1 $10 #
body $-1 $11 $-1 $12 #
body $-1 $13 $-1 $14 #
body $-1 $15 $-1 $16 #
body $-1 $17 $-1 $18 #
body $-1 $19 $-1 $20 #
body $-1 $21 $-1 $22 #
body $-1 $23 $-1 $24 #
body $-1 $25 $-1 $26 #
lump $-1 $-1 $27 $0 #
transform $-1 1 0 0 0 1 0 0 0 1 53.559984130375071 24.452036213309729 8.5133263567705733 1 rotate no_reflect no_shear #
lump $-1 $-1 $28 $1 #
transform $-1 1 0 0 0 1 0 0 0 1 53.559984130375071 24.452036213309729 8.5133263567705733 1 rotate no_reflect no_shear #
lump $-1 $-1 $29 $2 #
transform $-1 1 0 0 0 1 0 0 0 1 53.559984130375071 24.452036213309729 8.5133263567705733 1 rotate no_reflect no_shear #
lump $-1 $-1 $30 $3 #
transform $-1 1 0 0 0 1 0 0 0 1 53.559984130375071 24.452036213309729 8.5133263567705733 1 rotate no_reflect no_shear #
lump $-1 $-1 $31 $4 #
transform $-1 1 0 0 0 1 0 0 0 1 53.559984130375071 24.452036213309729 8.5133263567705733 1 rotate no_reflect no_shear #
lump $-1 $-1 $32 $5 #
transform $-1 1 0 0 0 1 0 0 0 1 53.559984130375071 24.452036213309729 8.5133263567705733 1 rotate no_reflect no_shear #
lump $-1 $-1 $33 $6 #
transform $-1 1 0 0 0 1 0 0 0 1 53.559984130375071 24.452036213309729 8.5133263567705733 1 rotate no_reflect no_shear #
lump $-1 $-1 $34 $7 #
transform $-1 1 0 0 0 1 0 0 0 1 53.559984130375071 24.452036213309729 8.5133263567705733 1 rotate no_reflect no_shear #
lump $-1 $-1 $35 $8 #
transform $-1 1 0 0 0 1 0 0 0 1 53.559984130375071 24.452036213309729 8.5133263567705733 1 rotate no_reflect no_shear #
shell $-1 $-1 $-1 $36 $-1 $9 #
shell $-1 $-1 $-1 $37 $-1 $11 #
shell $-1 $-1 $-1 $38 $-1 $13 #
shell $-1 $-1 $-1 $39 $-1 $15 #
shell $-1 $-1 $-1 $40 $-1 $17 #
shell $-1 $-1 $-1 $41 $-1 $19 #
shell $-1 $-1 $-1 $42 $-1 $21 #
shell $-1 $-1 $-1 $43 $-1 $23 #
shell $-1 $-1 $-1 $44 $-1 $25 #
face $-1 $45 $46 $27 $-1 $47 forward single #
face $-1 $48 $49 $28 $-1 $50 reversed single #
face $-1 $51 $52 $29 $-1 $53 reversed single #
face $-1 $54 $55 $30 $-1 $56 forward single #
face $-1 $57 $58 $31 $-1 $59 forward single #
face $-1 $60 $61 $32 $-1 $62 reversed single #
face $-1 $63 $64 $33 $-1 $65 forward single #
face $-1 $66 $67 $34 $-1 $68 forward single #
face $-1 $69 $70 $35 $-1 $71 forward single #
face $-1 $72 $73 $27 $-1 $74 reversed single #
loop $-1 $-1 $75 $36 #
plane-surface $-1 0 0 8.5133263567705733 0 0 1 1 0 0 forward_v I I I I #
face $-1 $76 $77 $28 $-1 $78 reversed single #
loop $-1 $-1 $79 $37 #
plane-surface $-1 -48.407263929000663 -21.452036213309729 0 0 -1 0 0 0 -1 forward_v I I I I #
face $-1 $80 $81 $29 $-1 $82 reversed single #
loop $-1 $-1 $83 $38 #
plane-surface $-1 39.415594611126593 -114.29040169027168 59.167191038126361 -1 0 0 0 -0.83867057594974714 0.54463902268945019 forward_v I I I I #
face $-1 $84 $85 $30 $-1 $86 forward single #
loop $-1 $87 $88 $39 #
cone-surface $-1 19.060902459352263 -20.568770419538271 3.768678343448213 0 0.83867057594974714 -0.54463902268945019 2 0 0 1 I I 0 1 2 forward I I I I #
face $-1 $89 $90 $31 $-1 $91 forward single #
loop $-1 $92 $93 $40 #
cone-surface $-1 31.273717750416864 -20.568770419538271 3.768678343448213 0 0.83867057594974714 -0.54463902268945019 2 0 0 1 I I 0 1 2 forward I I I I #
face $-1 $94 $95 $32 $-1 $96 reversed single #
loop $-1 $-1 $97 $41 #
plane-surface $-1 -13.194020529341817 91.084312417758227 101.4770051775277 1 0 0 0 -0.85716730853699208 -0.51503806187062418 forward_v I I I I #
face $-1 $98 $99 $33 $-1 $100 forward single #
loop $-1 $101 $102 $42 #
cone-surface $-1 -9.3119254900453328 22.783830830868496 6.1927302466722995 0 -0.85716730853699208 -0.51503806187062418 0.5 0 0 1 I I 0 1 0.5 forward I I I I #
face $-1 $103 $104 $34 $-1 $105 forward single #
loop $-1 $106 $107 $43 #
cone-surface $-1 -3.4887829311006016 22.783830830868496 6.1927302466722995 0 -0.85716730853699208 -0.51503806187062418 0.5 0 0 1 I I 0 1 0.5 forward I I I I #
face $-1 $108 $109 $35 $-1 $110 forward single #
loop $-1 $111 $112 $44 #
cone-surface $-1 2.3343596278441296 22.783830830868496 6.1927302466722995 0 -0.85716730853699208 -0.51503806187062418 0.5 0 0 1 I I 0 1 0.5 forward I I I I #
face $-1 $113 $114 $27 $-1 $115 reversed single #
loop $-1 $-1 $116 $45 #
plane-surface $-1 0 0 -8.5133263567705733 0 0 1 1 0 0 forward_v I I I I #
coedge $-1 $117 $118 $119 $120 forward $46 $-1 #
face $-1 $121 $122 $28 $-1 $123 forward single #
loop $-1 $-1 $124 $48 #
plane-surface $-1 -43.254543727626256 -22.952036213309729 0 -1 0 0 0 0 1 forward_v I I I I #
coedge $-1 $125 $126 $127 $128 forward $49 $-1 #
face $-1 $129 $130 $29 $-1 $131 reversed single #
loop $-1 $-1 $132 $51 #
plane-surface $-1 25.167310104884564 -24.452036213309725 0.82547621406648375 0 -0.83867057594974714 0.54463902268945019 1 0 0 forward_v I I I I #
coedge $-1 $133 $134 $135 $136 reversed $52 $-1 #
face $-1 $-1 $137 $30 $-1 $138 forward single #
loop $-1 $139 $140 $54 #
cone-surface $-1 19.060902459352263 -18.343108098518275 2.3233163787884479 0 0.83867057594974714 -0.54463902268945019 1 0 0 1 I I -0.70710678118654746 0.70710678118654746 1 forward I I I I #
loop $-1 $-1 $141 $39 #
coedge $-1 $88 $88 $142 $143 reversed $55 $-1 #
face $-1 $-1 $144 $31 $-1 $145 forward single #
loop $-1 $146 $147 $57 #
cone-surface $-1 31.273717750416864 -18.343108098518275 2.3233163787884479 0 0.83867057594974714 -0.54463902268945019 1 0 0 1 I I -0.70710678118654746 0.70710678118654746 1 forward I I I I #
loop $-1 $-1 $148 $40 #
coedge $-1 $93 $93 $149 $150 reversed $58 $-1 #
face $-1 $151 $152 $32 $-1 $153 reversed single #
loop $-1 $-1 $154 $60 #
plane-surface $-1 -3.4887829311006016 -0.73542246687698309 46.306144336868172 0 0.85716730853699208 0.51503806187062418 1 0 0 forward_v I I I I #
coedge $-1 $155 $156 $157 $158 reversed $61 $-1 #
face $-1 $-1 $159 $33 $-1 $160 forward single #
loop $-1 $161 $162 $63 #
cone-surface $-1 -9.3119254900453328 22.140955349465752 5.8064517002693314 0 -0.85716730853699208 -0.51503806187062418 0.25 0 0 1 I I -0.70710678118654746 0.70710678118654746 0.25 forward I I I I #
loop $-1 $-1 $163 $42 #
coedge $-1 $102 $102 $164 $165 reversed $64 $-1 #
face $-1 $-1 $166 $34 $-1 $167 forward single #
loop $-1 $168 $169 $66 #
cone-surface $-1 -3.4887829311006016 22.140955349465752 5.8064517002693314 0 -0.85716730853699208 -0.51503806187062418 0.25 0 0 1 I I -0.70710678118654746 0.70710678118654746 0.25 forward I I I I #
loop $-1 $-1 $170 $43 #
coedge $-1 $107 $107 $171 $172 reversed $67 $-1 #
face $-1 $-1 $173 $35 $-1 $174 forward single #
loop $-1 $175 $176 $69 #
cone-surface $-1 2.3343596278441296 22.140955349465752 5.8064517002693314 0 -0.85716730853699208 -0.51503806187062418 0.25 0 0 1 I I -0.70710678118654746 0.70710678118654746 0.25 forward I I I I #
loop $-1 $-1 $177 $44 #
coedge $-1 $112 $112 $178 $179 reversed $70 $-1 #
face $-1 $180 $181 $27 $-1 $182 reversed single #
loop $-1 $-1 $183 $72 #
plane-surface $-1 0 -24.452036213309729 0 0 1 0 0 0 1 forward_v I I I I #
coedge $-1 $184 $185 $186 $187 forward $73 $-1 #
coedge $-1 $188 $75 $189 $190 forward $46 $-1 #
coedge $-1 $75 $188 $191 $192 forward $46 $-1 #
coedge $-1 $193 $194 $75 $120 reversed $195 $-1 #
edge $-1 $196 -24.452036213309729 $197 24.452036213309729 $119 $198 forward 7 unknown #
face $-1 $199 $200 $28 $-1 $201 reversed single #
loop $-1 $-1 $202 $76 #
plane-surface $-1 0 0 8.5133263567705733 0 0 1 1 0 0 forward_v I I I I #
coedge $-1 $203 $204 $205 $206 reversed $77 $-1 #
coedge $-1 $207 $79 $208 $209 reversed $49 $-1 #
coedge $-1 $79 $207 $210 $211 reversed $49 $-1 #
coedge $-1 $204 $203 $79 $128 reversed $77 $-1 #
edge $-1 $212 -8.5133263567705733 $213 8.5133263567705733 $127 $214 forward 7 unknown #
face $-1 $215 $216 $29 $-1 $217 forward single #
loop $-1 $-1 $218 $80 #
plane-surface $-1 10.919025598642534 -114.29040169027168 59.167191038126361 1 0 0 0 0.83867057594974714 -0.54463902268945019 forward_v I I I I #
coedge $-1 $219 $220 $221 $222 reversed $81 $-1 #
coedge $-1 $134 $83 $223 $224 reversed $52 $-1 #
coedge $-1 $83 $133 $219 $225 reversed $52 $-1 #
coedge $-1 $221 $226 $83 $136 forward $216 $-1 #
edge $-1 $227 32.693164631826107 $228 37.685712729228541 $135 $229 forward 7 unknown #
loop $-1 $-1 $142 $84 #
plane-surface $-1 25.167310104884564 -24.452036213309725 0.82547621406648375 0 -0.83867057594974714 0.54463902268945019 1 0 0 forward_v I I I I #
loop $-1 $-1 $230 $54 #
coedge $-1 $140 $140 $141 $231 reversed $85 $-1 #
coedge $-1 $141 $141 $140 $231 forward $87 $-1 #
coedge $-1 $142 $142 $88 $143 forward $137 $-1 #
edge $-1 $232 1.4986040723538742e-016 $232 6.2831853071796004 $142 $233 forward 7 unknown #
loop $-1 $-1 $149 $89 #
plane-surface $-1 25.167310104884564 -24.452036213309725 0.82547621406648375 0 -0.83867057594974714 0.54463902268945019 1 0 0 forward_v I I I I #
loop $-1 $-1 $234 $57 #
coedge $-1 $147 $147 $148 $235 reversed $90 $-1 #
coedge $-1 $148 $148 $147 $235 forward $92 $-1 #
coedge $-1 $149 $149 $93 $150 forward $144 $-1 #
edge $-1 $236 1.4986040723538742e-016 $236 6.2831853071796004 $149 $237 forward 7 unknown #
face $-1 $238 $239 $32 $-1 $240 reversed single #
loop $-1 $-1 $241 $94 #
plane-surface $-1 6.2164546671406136 91.084312417758227 101.4770051775277 -1 0 0 0 0.85716730853699208 0.51503806187062418 forward_v I I I I #
coedge $-1 $242 $243 $244 $245 reversed $95 $-1 #
coedge $-1 $156 $97 $246 $247 reversed $61 $-1 #
coedge $-1 $97 $155 $242 $248 reversed $61 $-1 #
coedge $-1 $244 $249 $97 $158 forward $250 $-1 #
edge $-1 $251 21.090119995569385 $252 23.569363451914857 $157 $253 forward 7 unknown #
loop $-1 $-1 $164 $98 #
plane-surface $-1 -3.4887829311006016 -0.73542246687698309 46.306144336868172 0 0.85716730853699208 0.51503806187062418 1 0 0 forward_v I I I I #
loop $-1 $-1 $254 $63 #
coedge $-1 $162 $162 $163 $255 reversed $99 $-1 #
coedge $-1 $163 $163 $162 $255 forward $101 $-1 #
coedge $-1 $164 $164 $102 $165 forward $159 $-1 #
edge $-1 $256 -6.1429551296134909e-016 $256 6.2831853071795996 $164 $257 forward 7 unknown #
loop $-1 $-1 $171 $103 #
plane-surface $-1 -3.4887829311006016 -0.73542246687698309 46.306144336868172 0 0.85716730853699208 0.51503806187062418 1 0 0 forward_v I I I I #
loop $-1 $-1 $258 $66 #
coedge $-1 $169 $169 $170 $259 reversed $104 $-1 #
coedge $-1 $170 $170 $169 $259 forward $106 $-1 #
coedge $-1 $171 $171 $107 $172 forward $166 $-1 #
edge $-1 $260 -6.1429551296134909e-016 $260 6.2831853071795996 $171 $261 forward 7 unknown #
loop $-1 $-1 $178 $108 #
plane-surface $-1 -3.4887829311006016 -0.73542246687698309 46.306144336868172 0 0.85716730853699208 0.51503806187062418 1 0 0 forward_v I I I I #
loop $-1 $-1 $262 $69 #
coedge $-1 $176 $176 $177 $263 reversed $109 $-1 #
coedge $-1 $177 $177 $176 $263 forward $111 $-1 #
coedge $-1 $178 $178 $112 $179 forward $173 $-1 #
edge $-1 $264 -6.1429551296134909e-016 $264 6.2831853071795996 $178 $265 forward 7 unknown #
face $-1 $266 $267 $27 $-1 $268 reversed single #
loop $-1 $-1 $269 $113 #
plane-surface $-1 -53.559984130375071 0 0 1 0 0 0 0 -1 forward_v I I I I #
coedge $-1 $270 $191 $271 $272 forward $114 $-1 #
coedge $-1 $273 $116 $270 $274 forward $73 $-1 #
coedge $-1 $116 $273 $275 $276 forward $73 $-1 #
coedge $-1 $194 $193 $116 $187 reversed $195 $-1 #
edge $-1 $277 -24.452036213309729 $278 24.452036213309729 $186 $279 forward 7 unknown #
coedge $-1 $118 $117 $280 $281 forward $46 $-1 #
coedge $-1 $282 $283 $117 $190 reversed $267 $-1 #
edge $-1 $197 -53.559984130375071 $284 53.559984130375071 $189 $285 forward 7 unknown #
coedge $-1 $183 $286 $118 $192 reversed $114 $-1 #
edge $-1 $287 -53.559984130375071 $196 53.559984130375071 $191 $288 forward 7 unknown #
coedge $-1 $186 $119 $286 $289 forward $195 $-1 #
coedge $-1 $119 $186 $282 $290 reversed $195 $-1 #
loop $-1 $-1 $193 $266 #
vertex $-1 $120 $291 #
vertex $-1 $120 $292 #
straight-curve $-1 53.559984130375071 0 8.5133263567705733 0 1 0 I I #
face $-1 $293 $294 $28 $-1 $295 reversed single #
loop $-1 $-1 $296 $121 #
plane-surface $-1 -53.559984130375071 0 0 1 0 0 0 0 -1 forward_v I I I I #
coedge $-1 $210 $297 $204 $298 forward $122 $-1 #
coedge $-1 $127 $124 $299 $300 reversed $77 $-1 #
coedge $-1 $124 $127 $202 $298 reversed $77 $-1 #
coedge $-1 $301 $302 $124 $206 forward $303 $-1 #
edge $-1 $304 -8.5133263567705733 $305 8.5133263567705733 $205 $306 forward 7 unknown #
coedge $-1 $126 $125 $296 $307 reversed $49 $-1 #
coedge $-1 $299 $308 $125 $209 forward $294 $-1 #
edge $-1 $309 -29.356352165874739 $213 -19.050911763125924 $208 $310 forward 7 unknown #
coedge $-1 $311 $202 $126 $211 forward $122 $-1 #
edge $-1 $212 19.050911763125924 $312 29.356352165874739 $210 $313 forward 7 unknown #
vertex $-1 $211 $314 #
vertex $-1 $209 $315 #
straight-curve $-1 -43.254543727626256 -21.452036213309729 0 0 0 -1 I I #
face $-1 $-1 $316 $29 $-1 $317 reversed single #
loop $-1 $-1 $135 $129 #
plane-surface $-1 0 0 8.5133263567705733 0 0 1 1 0 0 forward_v I I I I #
coedge $-1 $318 $319 $320 $321 reversed $130 $-1 #
coedge $-1 $322 $132 $134 $225 forward $81 $-1 #
coedge $-1 $132 $322 $318 $323 forward $81 $-1 #
coedge $-1 $320 $135 $132 $222 forward $216 $-1 #
edge $-1 $228 -26.831939558684311 $324 1.6646294537997477 $221 $325 forward 7 unknown #
coedge $-1 $326 $327 $133 $224 forward $316 $-1 #
edge $-1 $328 -28.758119304996704 $227 -21.070269162292607 $223 $329 forward 7 unknown #
edge $-1 $228 -9.1667102234963149 $328 6.4973922850430931e-015 $134 $330 forward 7 unknown #
coedge $-1 $135 $320 $326 $331 forward $216 $-1 #
vertex $-1 $224 $332 #
vertex $-1 $136 $333 #
straight-curve $-1 39.415594611126593 -57.14520084513584 8.5133263567705733 0 1 0 I I #
coedge $-1 $230 $230 $-1 $334 reversed $139 $-1 #
edge $-1 $335 0 $335 6.2831853071796004 $140 $336 forward 7 unknown #
vertex $-1 $143 $337 #
ellipse-curve $-1 19.060902459352263 -21.955762164608515 4.6694012854185249 0 -0.83867057594974714 0.54463902268945019 2 0 0 1 I I #
coedge $-1 $234 $234 $-1 $338 reversed $146 $-1 #
edge $-1 $339 0 $339 6.2831853071796004 $147 $340 forward 7 unknown #
vertex $-1 $150 $341 #
ellipse-curve $-1 31.273717750416864 -21.955762164608515 4.6694012854185249 0 -0.83867057594974714 0.54463902268945019 2 0 0 1 I I #
face $-1 $-1 $250 $32 $-1 $342 forward single #
loop $-1 $-1 $343 $151 #
plane-surface $-1 0 24.452036213309729 0 0 -1 0 0 0 -1 forward_v I I I I #
coedge $-1 $344 $345 $346 $347 reversed $152 $-1 #
coedge $-1 $348 $154 $156 $248 forward $95 $-1 #
coedge $-1 $154 $348 $344 $349 forward $95 $-1 #
coedge $-1 $346 $157 $154 $245 forward $250 $-1 #
edge $-1 $252 -11.449629063791516 $350 7.9608461326909143 $244 $351 forward 7 unknown #
coedge $-1 $352 $353 $155 $247 forward $239 $-1 #
edge $-1 $354 -46.351330390319191 $251 -42.225176231993274 $246 $355 forward 7 unknown #
edge $-1 $252 44.090363227456912 $354 48.90407242661945 $156 $356 forward 7 unknown #
coedge $-1 $157 $346 $352 $357 forward $250 $-1 #
loop $-1 $-1 $346 $238 #
vertex $-1 $247 $358 #
vertex $-1 $158 $359 #
straight-curve $-1 -13.194020529341817 45.542156208879113 8.5133263567705697 0 -1 0 I I #
coedge $-1 $254 $254 $-1 $360 reversed $161 $-1 #
edge $-1 $361 0 $361 6.2831853071796004 $162 $362 forward 7 unknown #
vertex $-1 $165 $363 #
ellipse-curve $-1 -9.3119254900453328 23.212414485136996 6.4502492776076137 0 0.85716730853699208 0.51503806187062418 0.5 0 0 1 I I #
coedge $-1 $258 $258 $-1 $364 reversed $168 $-1 #
edge $-1 $365 0 $365 6.2831853071796004 $169 $366 forward 7 unknown #
vertex $-1 $172 $367 #
ellipse-curve $-1 -3.4887829311006016 23.212414485136996 6.4502492776076137 0 0.85716730853699208 0.51503806187062418 0.5 0 0 1 I I #
coedge $-1 $262 $262 $-1 $368 reversed $175 $-1 #
edge $-1 $369 0 $369 6.2831853071796004 $176 $370 forward 7 unknown #
vertex $-1 $179 $371 #
ellipse-curve $-1 2.3343596278441296 23.212414485136996 6.4502492776076137 0 0.85716730853699208 0.51503806187062418 0.5 0 0 1 I I #
face $-1 $-1 $195 $27 $-1 $372 reversed single #
loop $-1 $-1 $282 $180 #
plane-surface $-1 0 24.452036213309729 0 0 -1 0 0 0 -1 forward_v I I I I #
coedge $-1 $373 $280 $283 $374 forward $181 $-1 #
coedge $-1 $286 $183 $184 $274 reversed $114 $-1 #
coedge $-1 $280 $373 $183 $272 reversed $181 $-1 #
edge $-1 $287 -8.5133263567705733 $375 8.5133263567705733 $271 $376 forward 7 unknown #
coedge $-1 $185 $184 $373 $377 forward $73 $-1 #
edge $-1 $278 -53.559984130375071 $375 53.559984130375071 $270 $378 forward 7 unknown #
coedge $-1 $283 $282 $185 $276 reversed $267 $-1 #
edge $-1 $379 -53.559984130375071 $277 53.559984130375071 $275 $380 forward 7 unknown #
vertex $-1 $187 $381 #
vertex $-1 $289 $382 #
straight-curve $-1 53.559984130375071 0 -8.5133263567705733 0 -1 0 I I #
coedge $-1 $269 $271 $188 $281 reversed $181 $-1 #
edge $-1 $284 -24.452036213309729 $287 24.452036213309729 $280 $383 forward 7 unknown #
coedge $-1 $275 $189 $194 $290 forward $267 $-1 #
coedge $-1 $189 $275 $269 $374 reversed $267 $-1 #
vertex $-1 $190 $384 #
straight-curve $-1 0 24.452036213309729 8.5133263567705733 -1 0 0 I I #
coedge $-1 $191 $270 $193 $289 reversed $114 $-1 #
vertex $-1 $281 $385 #
straight-curve $-1 0 -24.452036213309729 8.5133263567705733 1 0 0 I I #
edge $-1 $196 -8.5133263567705733 $278 8.5133263567705733 $193 $386 forward 7 unknown #
edge $-1 $197 -8.5133263567705733 $277 8.5133263567705733 $194 $387 forward 7 unknown #
point $-1 53.559984130375071 -24.452036213309729 8.5133263567705733 #
point $-1 53.559984130375071 24.452036213309729 8.5133263567705733 #
face $-1 $-1 $303 $28 $-1 $388 reversed single #
loop $-1 $-1 $299 $199 #
plane-surface $-1 0 0 -8.5133263567705733 0 0 1 1 0 0 forward_v I I I I #
coedge $-1 $389 $390 $207 $307 forward $200 $-1 #
coedge $-1 $202 $311 $301 $391 forward $122 $-1 #
edge $-1 $305 -12.976018106654864 $212 -9.9760181066548643 $202 $392 forward 7 unknown #
coedge $-1 $393 $208 $203 $300 forward $294 $-1 #
edge $-1 $213 9.9760181066548643 $304 12.976018106654864 $299 $394 forward 7 unknown #
coedge $-1 $395 $205 $297 $391 reversed $303 $-1 #
coedge $-1 $205 $395 $393 $396 reversed $303 $-1 #
loop $-1 $-1 $205 $293 #
vertex $-1 $396 $397 #
vertex $-1 $206 $398 #
straight-curve $-1 -43.254543727626256 -24.452036213309729 0 0 0 1 I I #
edge $-1 $312 -8.5133263567705733 $309 8.5133263567705733 $296 $399 forward 7 unknown #
coedge $-1 $208 $393 $389 $400 forward $294 $-1 #
vertex $-1 $209 $401 #
straight-curve $-1 -24.203631964500332 -21.452036213309729 -8.5133263567705733 1 0 0 I I #
coedge $-1 $297 $210 $390 $402 forward $122 $-1 #
vertex $-1 $402 $403 #
straight-curve $-1 -24.203631964500332 -21.452036213309729 8.5133263567705733 -1 0 0 I I #
point $-1 -43.254543727626256 -21.452036213309729 8.5133263567705733 #
point $-1 -43.254543727626256 -21.452036213309729 -8.5133263567705733 #
loop $-1 $-1 $223 $215 #
plane-surface $-1 0 -24.452036213309729 0 0 1 0 0 0 1 forward_v I I I I #
coedge $-1 $319 $218 $220 $323 reversed $130 $-1 #
coedge $-1 $218 $318 $404 $405 reversed $130 $-1 #
coedge $-1 $226 $221 $218 $321 forward $216 $-1 #
edge $-1 $324 -37.685712729228541 $406 -32.693164631826107 $320 $407 forward 7 unknown #
coedge $-1 $220 $219 $327 $408 reversed $81 $-1 #
edge $-1 $409 -6.4973922850430931e-015 $324 9.1667102234963149 $318 $410 forward 7 unknown #
vertex $-1 $222 $411 #
straight-curve $-1 12.583655052442282 -19.459488115907302 8.5133263567705733 -1 0 0 I I #
coedge $-1 $404 $223 $226 $331 reversed $316 $-1 #
coedge $-1 $223 $404 $322 $408 forward $316 $-1 #
vertex $-1 $224 $412 #
straight-curve $-1 39.415594611126593 -24.452036213309725 29.583595519063181 0 0 1 I I #
straight-curve $-1 39.415594611126593 -24.452036213309725 0.82547621406648375 0 -0.54463902268945019 -0.83867057594974714 I I #
edge $-1 $406 10.919025598642534 $227 39.415594611126593 $326 $413 forward 7 unknown #
point $-1 39.415594611126593 -24.452036213309729 8.5133263567705733 #
point $-1 39.415594611126593 -19.459488115907302 8.5133263567705733 #
edge $-1 $414 1 $414 0 $230 $-1 forward 7 unknown #
vertex $-1 $231 $415 #
ellipse-curve $-1 19.060902459352263 -19.181778674468024 2.8679554014778983 0 -0.83867057594974714 0.54463902268945019 2 0 0 1 I I #
point $-1 21.060902459352263 -21.955762164608519 4.6694012854185276 #
edge $-1 $416 1 $416 0 $234 $-1 forward 7 unknown #
vertex $-1 $235 $417 #
ellipse-curve $-1 31.273717750416864 -19.181778674468024 2.8679554014778983 0 -0.83867057594974714 0.54463902268945019 2 0 0 1 I I #
point $-1 33.273717750416864 -21.955762164608519 4.6694012854185276 #
plane-surface $-1 0 0 8.5133263567705733 0 0 1 1 0 0 forward_v I I I I #
coedge $-1 $353 $352 $345 $418 forward $239 $-1 #
coedge $-1 $345 $241 $243 $349 reversed $152 $-1 #
coedge $-1 $241 $344 $343 $418 reversed $152 $-1 #
coedge $-1 $249 $244 $241 $347 forward $250 $-1 #
edge $-1 $350 -23.569363451914857 $419 -21.090119995569385 $346 $420 forward 7 unknown #
coedge $-1 $243 $242 $353 $421 reversed $95 $-1 #
edge $-1 $422 -48.90407242661945 $350 -44.090363227456912 $344 $423 forward 7 unknown #
vertex $-1 $245 $424 #
straight-curve $-1 -1.7443914655503008 21.972792756964257 8.5133263567705697 1 0 0 I I #
coedge $-1 $343 $246 $249 $357 reversed $239 $-1 #
coedge $-1 $246 $343 $348 $421 forward $239 $-1 #
vertex $-1 $247 $425 #
straight-curve $-1 -13.194020529341817 24.452036213309732 50.738502588763851 0 0 1 I I #
straight-curve $-1 -13.194020529341817 -0.73542246687698309 46.306144336868172 0 0.51503806187062418 -0.85716730853699208 I I #
edge $-1 $419 -6.2164546671406136 $251 13.194020529341817 $352 $426 forward 7 unknown #
point $-1 -13.194020529341817 24.452036213309729 8.5133263567705733 #
point $-1 -13.194020529341817 21.972792756964257 8.5133263567705768 #
edge $-1 $427 1 $427 0 $254 $-1 forward 7 unknown #
vertex $-1 $255 $428 #
ellipse-curve $-1 -9.3119254900453328 22.355247176599999 5.9352112157369872 0 0.85716730853699208 0.51503806187062418 0.5 0 0 1 I I #
point $-1 -8.8119254900453328 23.212414485136993 6.4502492776076119 #
edge $-1 $429 1 $429 0 $258 $-1 forward 7 unknown #
vertex $-1 $259 $430 #
ellipse-curve $-1 -3.4887829311006016 22.355247176599999 5.9352112157369872 0 0.85716730853699208 0.51503806187062418 0.5 0 0 1 I I #
point $-1 -2.9887829311006016 23.212414485136993 6.4502492776076119 #
edge $-1 $431 1 $431 0 $262 $-1 forward 7 unknown #
vertex $-1 $263 $432 #
ellipse-curve $-1 2.3343596278441296 22.355247176599999 5.9352112157369872 0 0.85716730853699208 0.51503806187062418 0.5 0 0 1 I I #
point $-1 2.8343596278441296 23.212414485136993 6.4502492776076119 #
plane-surface $-1 53.559984130375071 0 0 -1 0 0 0 0 1 forward_v I I I I #
coedge $-1 $271 $269 $273 $377 reversed $181 $-1 #
edge $-1 $284 -8.5133263567705733 $379 8.5133263567705733 $283 $433 forward 7 unknown #
vertex $-1 $377 $434 #
straight-curve $-1 -53.559984130375071 -24.452036213309729 0 0 0 -1 I I #
edge $-1 $375 -24.452036213309729 $379 24.452036213309729 $373 $435 forward 7 unknown #
straight-curve $-1 0 -24.452036213309729 -8.5133263567705733 -1 0 0 I I #
vertex $-1 $276 $436 #
straight-curve $-1 0 24.452036213309729 -8.5133263567705733 1 0 0 I I #
point $-1 53.559984130375071 24.452036213309729 -8.5133263567705733 #
point $-1 53.559984130375071 -24.452036213309729 -8.5133263567705733 #
straight-curve $-1 -53.559984130375071 0 8.5133263567705733 0 -1 0 I I #
point $-1 -53.559984130375071 24.452036213309729 8.5133263567705733 #
point $-1 -53.559984130375071 -24.452036213309729 8.5133263567705733 #
straight-curve $-1 53.559984130375071 -24.452036213309729 0 0 0 -1 I I #
straight-curve $-1 53.559984130375071 24.452036213309729 0 0 0 -1 I I #
plane-surface $-1 0 -24.452036213309729 0 0 1 0 0 0 1 forward_v I I I I #
coedge $-1 $437 $296 $308 $400 reversed $200 $-1 #
coedge $-1 $296 $437 $311 $402 reversed $200 $-1 #
edge $-1 $438 -53.559984130375071 $305 -43.254543727626256 $301 $439 forward 7 unknown #
straight-curve $-1 -43.254543727626256 -11.476018106654864 8.5133263567705733 0 1 0 I I #
coedge $-1 $308 $299 $302 $396 forward $294 $-1 #
straight-curve $-1 -43.254543727626256 -11.476018106654864 -8.5133263567705733 0 -1 0 I I #
coedge $-1 $302 $301 $437 $440 forward $303 $-1 #
edge $-1 $304 43.254543727626256 $441 53.559984130375071 $302 $442 forward 7 unknown #
point $-1 -43.254543727626256 -24.452036213309729 -8.5133263567705733 #
point $-1 -43.254543727626256 -24.452036213309729 8.5133263567705733 #
straight-curve $-1 -53.559984130375071 -21.452036213309729 0 0 0 -1 I I #
edge $-1 $441 -24.452036213309729 $309 -21.452036213309729 $389 $443 forward 7 unknown #
point $-1 -53.559984130375071 -21.452036213309729 -8.5133263567705733 #
edge $-1 $312 21.452036213309729 $438 24.452036213309729 $390 $444 forward 7 unknown #
point $-1 -53.559984130375071 -21.452036213309729 8.5133263567705733 #
coedge $-1 $327 $326 $319 $405 forward $316 $-1 #
edge $-1 $406 21.070269162292607 $409 28.758119304996704 $404 $445 forward 7 unknown #
vertex $-1 $331 $446 #
straight-curve $-1 10.919025598642534 -57.14520084513584 8.5133263567705733 0 -1 0 I I #
edge $-1 $409 -1.6646294537997477 $328 26.831939558684311 $327 $447 forward 7 unknown #
vertex $-1 $408 $448 #
straight-curve $-1 10.919025598642534 -24.452036213309725 0.82547621406648375 0 0.54463902268945019 0.83867057594974714 I I #
point $-1 10.919025598642534 -19.459488115907302 8.5133263567705733 #
point $-1 39.415594611126593 -24.452036213309729 0.82547621406647831 #
straight-curve $-1 0 -24.452036213309729 8.5133263567705733 1 0 0 I I #
vertex $-1 $334 $449 #
point $-1 21.060902459352263 -19.181778674468024 2.8679554014778983 #
vertex $-1 $338 $450 #
point $-1 33.273717750416864 -19.181778674468024 2.8679554014778983 #
edge $-1 $419 42.225176231993274 $422 46.351330390319191 $343 $451 forward 7 unknown #
vertex $-1 $357 $452 #
straight-curve $-1 6.2164546671406136 45.542156208879113 8.5133263567705697 0 1 0 I I #
edge $-1 $422 -7.9608461326909143 $354 11.449629063791516 $353 $453 forward 7 unknown #
vertex $-1 $421 $454 #
straight-curve $-1 6.2164546671406136 -0.73542246687698309 46.306144336868172 0 -0.51503806187062418 0.85716730853699208 I I #
point $-1 6.2164546671406136 21.972792756964257 8.5133263567705768 #
point $-1 -13.194020529341817 24.452036213309729 4.3871721984446594 #
straight-curve $-1 0 24.452036213309729 8.5133263567705733 -1 0 0 I I #
vertex $-1 $360 $455 #
point $-1 -8.8119254900453328 22.355247176599999 5.9352112157369872 #
vertex $-1 $364 $456 #
point $-1 -2.9887829311006016 22.355247176599999 5.9352112157369872 #
vertex $-1 $368 $457 #
point $-1 2.8343596278441296 22.355247176599999 5.9352112157369872 #
straight-curve $-1 -53.559984130375071 24.452036213309729 0 0 0 -1 I I #
point $-1 -53.559984130375071 -24.452036213309729 -8.5133263567705733 #
straight-curve $-1 -53.559984130375071 0 -8.5133263567705733 0 1 0 I I #
point $-1 -53.559984130375071 24.452036213309729 -8.5133263567705733 #
coedge $-1 $390 $389 $395 $440 reversed $200 $-1 #
vertex $-1 $402 $458 #
straight-curve $-1 0 -24.452036213309729 8.5133263567705733 1 0 0 I I #
edge $-1 $438 -8.5133263567705733 $441 8.5133263567705733 $437 $459 forward 7 unknown #
vertex $-1 $400 $460 #
straight-curve $-1 0 -24.452036213309729 -8.5133263567705733 -1 0 0 I I #
straight-curve $-1 -53.559984130375071 0 -8.5133263567705733 0 1 0 I I #
straight-curve $-1 -53.559984130375071 0 8.5133263567705733 0 -1 0 I I #
straight-curve $-1 10.919025598642534 -24.452036213309725 29.583595519063181 0 0 -1 I I #
point $-1 10.919025598642534 -24.452036213309729 8.5133263567705733 #
straight-curve $-1 12.583655052442282 -24.452036213309729 0.82547621406647531 1 0 0 I I #
point $-1 10.919025598642534 -24.452036213309729 0.82547621406647831 #
point $-1 19.060902459352263 -17.504437522568526 1.7786773560989977 #
point $-1 31.273717750416864 -17.504437522568526 1.7786773560989977 #
straight-curve $-1 6.2164546671406136 24.452036213309732 50.738502588763851 0 0 -1 I I #
point $-1 6.2164546671406136 24.452036213309729 8.5133263567705733 #
straight-curve $-1 -1.7443914655503008 24.452036213309729 4.3871721984446559 -1 0 0 I I #
point $-1 6.2164546671406136 24.452036213309729 4.3871721984446594 #
point $-1 -9.3119254900453328 21.926663522331506 5.6776921848016757 #
point $-1 -3.4887829311006016 21.926663522331506 5.6776921848016757 #
point $-1 2.3343596278441296 21.926663522331506 5.6776921848016757 #
point $-1 -53.559984130375071 -24.452036213309729 8.5133263567705733 #
straight-curve $-1 -53.559984130375071 -24.452036213309729 0 0 0 -1 I I #
point $-1 -53.559984130375071 -24.452036213309729 -8.5133263567705733 #
End-of-ACIS-data 