500 0 5 0           
7 Unknown 11 ACIS 5.0 NT 24 Fri Mar 26 19:21:17 1999 
-1 9.9999999999999995e-007 1e-010 
body $-1 $5 $-1 $6 #
body $-1 $7 $-1 $8 #
body $-1 $9 $-1 $10 #
body $-1 $11 $-1 $12 #
body $-1 $13 $-1 $14 #
lump $-1 $-1 $15 $0 #
transform $-1 1 0 0 0 1 0 0 0 1 71.947996459852902 43.343579226606167 10.95964100974151 1 rotate no_reflect no_shear #
lump $-1 $-1 $16 $1 #
transform $-1 1 0 0 0 1 0 0 0 1 71.947996459852902 43.343579226606167 10.95964100974151 1 rotate no_reflect no_shear #
lump $-1 $-1 $17 $2 #
transform $-1 1 0 0 0 1 0 0 0 1 71.947996459852902 43.343579226606167 10.95964100974151 1 rotate no_reflect no_shear #
lump $-1 $-1 $18 $3 #
transform $-1 1 0 0 0 1 0 0 0 1 71.947996459852902 43.343579226606167 10.95964100974151 1 rotate no_reflect no_shear #
lump $-1 $-1 $19 $4 #
transform $-1 1 0 0 0 1 0 0 0 1 71.947996459852902 43.343579226606167 10.95964100974151 1 rotate no_reflect no_shear #
shell $-1 $-1 $-1 $20 $-1 $5 #
shell $-1 $-1 $-1 $21 $-1 $7 #
shell $-1 $-1 $-1 $22 $-1 $9 #
shell $-1 $-1 $-1 $23 $-1 $11 #
shell $-1 $-1 $-1 $24 $-1 $13 #
face $-1 $25 $26 $15 $-1 $27 forward single #
face $-1 $28 $29 $16 $-1 $30 reversed single #
face $-1 $31 $32 $17 $-1 $33 forward single #
face $-1 $34 $35 $18 $-1 $36 reversed single #
face $-1 $37 $38 $19 $-1 $39 forward single #
face $-1 $40 $41 $15 $-1 $42 reversed single #
loop $-1 $-1 $43 $20 #
plane-surface $-1 0 0 10.95964100974151 0 0 1 1 0 0 forward_v I I I I #
face $-1 $44 $45 $16 $-1 $46 reversed single #
loop $-1 $-1 $47 $21 #
plane-surface $-1 -49.233008106412598 124.61758764568025 150.45052713545692 -1 0 0 0 0.86602541151947299 0.49999998660252726 forward_v I I I I #
face $-1 $48 $49 $17 $-1 $50 forward single #
loop $-1 $51 $52 $22 #
cone-surface $-1 -60.59050228313275 40.694984236810264 6.9203437846314806 0 -0.86602541151947299 -0.49999998660252726 1 0 0 1 I I 0 1 1 forward I I I I #
face $-1 $53 $54 $18 $-1 $55 reversed single #
loop $-1 $-1 $56 $23 #
plane-surface $-1 -49.233008106412598 -167.96116571089755 75.377245062559922 -1 0 0 0 -0.86602541151947299 0.49999998660252726 forward_v I I I I #
face $-1 $57 $58 $19 $-1 $59 forward single #
loop $-1 $60 $61 $24 #
cone-surface $-1 -60.59050228313275 -40.694984236810264 6.9203437846314664 0 0.86602541151947299 -0.49999998660252726 1 0 0 1 I I 0 1 1 forward I I I I #
face $-1 $62 $63 $15 $-1 $64 reversed single #
loop $-1 $-1 $65 $25 #
plane-surface $-1 0 0 -10.95964100974151 0 0 1 1 0 0 forward_v I I I I #
coedge $-1 $66 $67 $68 $69 forward $26 $-1 #
face $-1 $70 $71 $16 $-1 $72 reversed single #
loop $-1 $-1 $73 $28 #
plane-surface $-1 -60.59050228313275 1.1613888517558735e-006 78.502532603446667 0 0.86602541151947299 0.49999998660252726 1 0 0 forward_v I I I I #
coedge $-1 $74 $75 $76 $77 reversed $29 $-1 #
face $-1 $-1 $78 $17 $-1 $79 forward single #
loop $-1 $80 $81 $31 #
cone-surface $-1 -60.59050228313275 39.787212948723052 6.3962418058160964 0 -0.86602541151947299 -0.49999998660252726 0.5 0 0 1 I I -0.70710678118654746 0.70710678118654746 0.5 forward I I I I #
loop $-1 $-1 $82 $22 #
coedge $-1 $52 $52 $83 $84 reversed $32 $-1 #
face $-1 $85 $86 $18 $-1 $87 reversed single #
loop $-1 $-1 $88 $34 #
plane-surface $-1 -60.59050228313275 -43.343579226606153 3.4292505305496661 0 -0.86602541151947299 0.49999998660252726 1 0 0 forward_v I I I I #
coedge $-1 $89 $90 $91 $92 reversed $35 $-1 #
face $-1 $-1 $93 $19 $-1 $94 forward single #
loop $-1 $95 $96 $37 #
cone-surface $-1 -60.59050228313275 -39.787212948723052 6.3962418058160821 0 0.86602541151947299 -0.49999998660252726 0.5 0 0 1 I I -0.70710678118654746 0.70710678118654746 0.5 forward I I I I #
loop $-1 $-1 $97 $24 #
coedge $-1 $61 $61 $98 $99 reversed $38 $-1 #
face $-1 $100 $101 $15 $-1 $102 reversed single #
loop $-1 $-1 $103 $40 #
plane-surface $-1 0 -43.343579226606167 0 0 1 0 0 0 1 forward_v I I I I #
coedge $-1 $104 $105 $106 $107 forward $41 $-1 #
coedge $-1 $108 $43 $109 $110 forward $26 $-1 #
coedge $-1 $43 $108 $111 $112 forward $26 $-1 #
coedge $-1 $113 $114 $43 $69 reversed $115 $-1 #
edge $-1 $116 -43.343579226606167 $117 43.343579226606167 $68 $118 forward 7 unknown #
face $-1 $119 $120 $16 $-1 $121 forward single #
loop $-1 $-1 $76 $44 #
plane-surface $-1 0 43.343579226606167 0 0 -1 0 0 0 -1 forward_v I I I I #
coedge $-1 $122 $123 $124 $125 reversed $45 $-1 #
coedge $-1 $75 $47 $126 $127 reversed $29 $-1 #
coedge $-1 $47 $74 $122 $128 reversed $29 $-1 #
coedge $-1 $124 $129 $47 $77 forward $71 $-1 #
edge $-1 $130 64.265622557986944 $131 71.796013037178753 $76 $132 forward 7 unknown #
loop $-1 $-1 $83 $48 #
plane-surface $-1 -60.59050228313275 1.1613888517558735e-006 78.502532603446667 0 0.86602541151947299 0.49999998660252726 1 0 0 forward_v I I I I #
loop $-1 $-1 $133 $31 #
coedge $-1 $81 $81 $82 $134 reversed $49 $-1 #
coedge $-1 $82 $82 $81 $134 forward $51 $-1 #
coedge $-1 $83 $83 $52 $84 forward $78 $-1 #
edge $-1 $135 -2.4903166786703659e-015 $135 6.2831853071795978 $83 $136 forward 7 unknown #
face $-1 $137 $138 $18 $-1 $139 forward single #
loop $-1 $-1 $140 $53 #
plane-surface $-1 -71.947996459852902 0 0 1 0 0 0 0 -1 forward_v I I I I #
coedge $-1 $141 $142 $143 $144 reversed $54 $-1 #
coedge $-1 $90 $56 $145 $146 reversed $35 $-1 #
coedge $-1 $56 $89 $141 $147 reversed $35 $-1 #
coedge $-1 $143 $148 $56 $92 forward $138 $-1 #
edge $-1 $149 40.637003628842606 $150 44.984676443779485 $91 $151 forward 7 unknown #
loop $-1 $-1 $98 $57 #
plane-surface $-1 -60.59050228313275 -43.343579226606153 3.4292505305496661 0 -0.86602541151947299 0.49999998660252726 1 0 0 forward_v I I I I #
loop $-1 $-1 $152 $37 #
coedge $-1 $96 $96 $97 $153 reversed $58 $-1 #
coedge $-1 $97 $97 $96 $153 forward $60 $-1 #
coedge $-1 $98 $98 $61 $99 forward $93 $-1 #
edge $-1 $154 2.600767067782398e-015 $154 6.2831853071796031 $98 $155 forward 7 unknown #
face $-1 $156 $157 $15 $-1 $158 reversed single #
loop $-1 $-1 $159 $62 #
plane-surface $-1 -71.947996459852902 0 0 1 0 0 0 0 -1 forward_v I I I I #
coedge $-1 $160 $111 $161 $162 forward $63 $-1 #
coedge $-1 $163 $65 $160 $164 forward $41 $-1 #
coedge $-1 $65 $163 $165 $166 forward $41 $-1 #
coedge $-1 $114 $113 $65 $107 reversed $115 $-1 #
edge $-1 $167 -43.343579226606167 $168 43.343579226606167 $106 $169 forward 7 unknown #
coedge $-1 $67 $66 $170 $171 forward $26 $-1 #
coedge $-1 $172 $173 $66 $110 reversed $157 $-1 #
edge $-1 $117 -71.947996459852902 $174 71.947996459852902 $109 $175 forward 7 unknown #
coedge $-1 $103 $176 $67 $112 reversed $63 $-1 #
edge $-1 $177 -71.947996459852902 $116 71.947996459852902 $111 $178 forward 7 unknown #
coedge $-1 $106 $68 $176 $179 forward $115 $-1 #
coedge $-1 $68 $106 $172 $180 reversed $115 $-1 #
loop $-1 $-1 $113 $156 #
vertex $-1 $69 $181 #
vertex $-1 $69 $182 #
straight-curve $-1 71.947996459852902 0 10.95964100974151 0 1 0 I I #
face $-1 $-1 $183 $16 $-1 $184 reversed single #
loop $-1 $-1 $126 $70 #
plane-surface $-1 0 0 10.95964100974151 0 0 1 1 0 0 forward_v I I I I #
coedge $-1 $185 $73 $75 $128 forward $45 $-1 #
coedge $-1 $73 $185 $186 $187 reversed $45 $-1 #
coedge $-1 $188 $76 $73 $125 forward $71 $-1 #
edge $-1 $131 18.937756964846223 $189 41.652745318286527 $124 $190 forward 7 unknown #
coedge $-1 $191 $192 $74 $127 forward $120 $-1 #
edge $-1 $193 -23.312887411170792 $130 -18.965214596233956 $126 $194 forward 7 unknown #
edge $-1 $131 -86.687158453212319 $193 -77.991812590347322 $75 $195 forward 7 unknown #
coedge $-1 $76 $188 $191 $196 reversed $71 $-1 #
vertex $-1 $196 $197 #
vertex $-1 $77 $198 #
straight-curve $-1 -49.233008106412598 43.343579226606167 75.225263567728462 0 0 -1 I I #
coedge $-1 $133 $133 $-1 $199 reversed $80 $-1 #
edge $-1 $200 0 $200 6.2831853071796004 $81 $201 forward 7 unknown #
vertex $-1 $84 $202 #
ellipse-curve $-1 -60.59050228313275 41.169742819137745 7.1944457701456077 0 0.86602541151947299 0.49999998660252726 1 0 0 1 I I #
face $-1 $-1 $203 $18 $-1 $204 reversed single #
loop $-1 $-1 $143 $85 #
plane-surface $-1 0 0 10.95964100974151 0 0 1 1 0 0 forward_v I I I I #
coedge $-1 $205 $206 $142 $207 forward $86 $-1 #
coedge $-1 $208 $88 $90 $147 forward $54 $-1 #
coedge $-1 $88 $208 $140 $207 reversed $54 $-1 #
coedge $-1 $209 $91 $88 $144 forward $138 $-1 #
edge $-1 $150 18.937756964846223 $210 41.652745318286527 $143 $211 forward 7 unknown #
coedge $-1 $212 $213 $89 $146 forward $203 $-1 #
edge $-1 $214 -34.259372000730316 $149 -26.728981521538451 $145 $215 forward 7 unknown #
edge $-1 $150 -8.6953458628650431 $214 2.8258016906358157e-014 $90 $216 forward 7 unknown #
coedge $-1 $91 $209 $212 $217 forward $138 $-1 #
vertex $-1 $146 $218 #
vertex $-1 $92 $219 #
straight-curve $-1 -49.233008106412598 -83.980582855448773 10.95964100974151 0 1 0 I I #
coedge $-1 $152 $152 $-1 $220 reversed $95 $-1 #
edge $-1 $221 0 $221 6.2831853071796004 $96 $222 forward 7 unknown #
vertex $-1 $99 $223 #
ellipse-curve $-1 -60.59050228313275 -41.169742819137724 7.1944457701455811 0 -0.86602541151947299 0.49999998660252726 1 0 0 1 I I #
face $-1 $-1 $115 $15 $-1 $224 reversed single #
loop $-1 $-1 $172 $100 #
plane-surface $-1 0 43.343579226606167 0 0 -1 0 0 0 -1 forward_v I I I I #
coedge $-1 $225 $170 $173 $226 forward $101 $-1 #
coedge $-1 $176 $103 $104 $164 reversed $63 $-1 #
coedge $-1 $170 $225 $103 $162 reversed $101 $-1 #
edge $-1 $177 -10.95964100974151 $227 10.95964100974151 $161 $228 forward 7 unknown #
coedge $-1 $105 $104 $225 $229 forward $41 $-1 #
edge $-1 $168 -71.947996459852902 $227 71.947996459852902 $160 $230 forward 7 unknown #
coedge $-1 $173 $172 $105 $166 reversed $157 $-1 #
edge $-1 $231 -71.947996459852902 $167 71.947996459852902 $165 $232 forward 7 unknown #
vertex $-1 $107 $233 #
vertex $-1 $179 $234 #
straight-curve $-1 71.947996459852902 0 -10.95964100974151 0 -1 0 I I #
coedge $-1 $159 $161 $108 $171 reversed $101 $-1 #
edge $-1 $174 -43.343579226606167 $177 43.343579226606167 $170 $235 forward 7 unknown #
coedge $-1 $165 $109 $114 $180 forward $157 $-1 #
coedge $-1 $109 $165 $159 $226 reversed $157 $-1 #
vertex $-1 $110 $236 #
straight-curve $-1 0 43.343579226606167 10.95964100974151 -1 0 0 I I #
coedge $-1 $111 $160 $113 $179 reversed $63 $-1 #
vertex $-1 $171 $237 #
straight-curve $-1 0 -43.343579226606167 10.95964100974151 1 0 0 I I #
edge $-1 $116 -10.95964100974151 $168 10.95964100974151 $113 $238 forward 7 unknown #
edge $-1 $117 -10.95964100974151 $167 10.95964100974151 $114 $239 forward 7 unknown #
point $-1 71.947996459852902 -43.343579226606167 10.95964100974151 #
point $-1 71.947996459852902 43.343579226606167 10.95964100974151 #
loop $-1 $-1 $186 $119 #
plane-surface $-1 -71.947996459852902 0 0 1 0 0 0 0 -1 forward_v I I I I #
coedge $-1 $123 $122 $192 $240 reversed $45 $-1 #
coedge $-1 $241 $242 $123 $187 forward $183 $-1 #
edge $-1 $189 -52.69456469194914 $243 -43.99921882908415 $186 $244 forward 7 unknown #
coedge $-1 $129 $124 $242 $245 reversed $71 $-1 #
vertex $-1 $125 $246 #
straight-curve $-1 -30.295251141566375 43.343579226606167 3.4292505305497016 -1 0 0 I I #
coedge $-1 $247 $126 $129 $196 forward $120 $-1 #
coedge $-1 $126 $247 $185 $240 forward $120 $-1 #
vertex $-1 $127 $248 #
straight-curve $-1 -49.233008106412598 62.308793822840123 10.959641009741517 0 1 0 I I #
straight-curve $-1 -49.233008106412598 1.1613888517558735e-006 78.502532603446667 0 -0.49999998660252726 0.86602541151947299 I I #
edge $-1 $130 49.233008106412598 $249 71.947996459852902 $129 $250 forward 7 unknown #
point $-1 -49.233008106412598 43.343579226606167 10.95964100974151 #
point $-1 -49.233008106412598 43.343579226606167 3.4292505305497087 #
edge $-1 $251 1 $251 0 $133 $-1 forward 7 unknown #
vertex $-1 $134 $252 #
ellipse-curve $-1 -60.59050228313275 40.220225654482789 6.6462417991173597 0 0.86602541151947299 0.49999998660252726 1 0 0 1 I I #
point $-1 -59.59050228313275 41.169742819137731 7.1944457701456024 #
loop $-1 $-1 $145 $137 #
plane-surface $-1 0 -43.343579226606167 0 0 1 0 0 0 1 forward_v I I I I #
coedge $-1 $206 $140 $253 $254 reversed $86 $-1 #
coedge $-1 $140 $205 $209 $255 reversed $86 $-1 #
edge $-1 $210 0.65563960247796338 $256 9.3509854653430331 $140 $257 forward 7 unknown #
coedge $-1 $142 $141 $213 $258 reversed $54 $-1 #
coedge $-1 $148 $143 $206 $255 forward $138 $-1 #
vertex $-1 $255 $259 #
straight-curve $-1 -30.295251141566375 -38.995906411669296 10.95964100974151 -1 0 0 I I #
coedge $-1 $253 $145 $148 $217 reversed $203 $-1 #
coedge $-1 $145 $253 $208 $258 forward $203 $-1 #
vertex $-1 $146 $260 #
straight-curve $-1 -49.233008106412598 -43.343579226606167 37.688622531279961 0 0 1 I I #
straight-curve $-1 -49.233008106412598 -43.343579226606153 3.4292505305496661 0 -0.49999998660252726 -0.86602541151947299 I I #
edge $-1 $261 -71.947996459852902 $149 -49.233008106412598 $212 $262 forward 7 unknown #
point $-1 -49.233008106412598 -43.343579226606167 10.95964100974151 #
point $-1 -49.233008106412598 -38.995906411669289 10.95964100974151 #
edge $-1 $263 1 $263 0 $152 $-1 forward 7 unknown #
vertex $-1 $153 $264 #
ellipse-curve $-1 -60.59050228313275 -40.220225654482789 6.6462417991173455 0 -0.86602541151947299 0.49999998660252726 1 0 0 1 I I #
point $-1 -59.59050228313275 -41.169742819137731 7.1944457701455882 #
plane-surface $-1 71.947996459852902 0 0 -1 0 0 0 0 1 forward_v I I I I #
coedge $-1 $161 $159 $163 $229 reversed $101 $-1 #
edge $-1 $174 -10.95964100974151 $231 10.95964100974151 $173 $265 forward 7 unknown #
vertex $-1 $229 $266 #
straight-curve $-1 -71.947996459852902 -43.343579226606167 0 0 0 -1 I I #
edge $-1 $227 -43.343579226606167 $231 43.343579226606167 $225 $267 forward 7 unknown #
straight-curve $-1 0 -43.343579226606167 -10.95964100974151 -1 0 0 I I #
vertex $-1 $166 $268 #
straight-curve $-1 0 43.343579226606167 -10.95964100974151 1 0 0 I I #
point $-1 71.947996459852902 43.343579226606167 -10.95964100974151 #
point $-1 71.947996459852902 -43.343579226606167 -10.95964100974151 #
straight-curve $-1 -71.947996459852902 0 10.95964100974151 0 -1 0 I I #
point $-1 -71.947996459852902 43.343579226606167 10.95964100974151 #
point $-1 -71.947996459852902 -43.343579226606167 10.95964100974151 #
straight-curve $-1 71.947996459852902 -43.343579226606167 0 0 0 -1 I I #
straight-curve $-1 71.947996459852902 43.343579226606167 0 0 0 -1 I I #
edge $-1 $243 -41.652745318286527 $193 -18.937756964846223 $192 $269 forward 7 unknown #
coedge $-1 $242 $186 $247 $270 reversed $183 $-1 #
coedge $-1 $186 $241 $188 $245 forward $183 $-1 #
vertex $-1 $187 $271 #
straight-curve $-1 -71.947996459852902 16.996297586605589 49.064082602734459 0 -0.49999998660252726 0.86602541151947299 I I #
edge $-1 $249 -10.95964100974151 $189 -3.4292505305497132 $188 $272 forward 7 unknown #
point $-1 -71.947996459852902 43.343579226606167 3.4292505305497132 #
coedge $-1 $192 $191 $241 $270 forward $120 $-1 #
point $-1 -49.233008106412598 38.995906411669331 10.959641009741517 #
vertex $-1 $196 $273 #
straight-curve $-1 0 43.343579226606167 10.95964100974151 -1 0 0 I I #
vertex $-1 $199 $274 #
point $-1 -59.59050228313275 40.220225654482789 6.6462417991173597 #
coedge $-1 $213 $212 $205 $254 forward $203 $-1 #
edge $-1 $261 -10.95964100974151 $256 -3.4292505305496417 $205 $275 forward 7 unknown #
edge $-1 $210 38.995906411669289 $261 43.343579226606167 $206 $276 forward 7 unknown #
vertex $-1 $207 $277 #
straight-curve $-1 -71.947996459852902 -38.668086619214222 11.527441566285953 0 -0.49999998660252726 -0.86602541151947299 I I #
edge $-1 $256 -41.652745318286527 $214 -18.937756964846223 $213 $278 forward 7 unknown #
point $-1 -71.947996459852902 -38.995906411669289 10.95964100974151 #
point $-1 -49.233008106412598 -43.343579226606167 3.4292505305496417 #
vertex $-1 $255 $279 #
straight-curve $-1 0 -43.343579226606167 10.95964100974151 1 0 0 I I #
vertex $-1 $220 $280 #
point $-1 -59.59050228313275 -40.220225654482789 6.6462417991173455 #
straight-curve $-1 -71.947996459852902 43.343579226606167 0 0 0 -1 I I #
point $-1 -71.947996459852902 -43.343579226606167 -10.95964100974151 #
straight-curve $-1 -71.947996459852902 0 -10.95964100974151 0 1 0 I I #
point $-1 -71.947996459852902 43.343579226606167 -10.95964100974151 #
straight-curve $-1 -30.295251141566375 38.995906411669331 10.95964100974151 1 0 0 I I #
edge $-1 $249 -43.343579226606167 $243 -38.995906411669331 $241 $281 forward 7 unknown #
point $-1 -71.947996459852902 38.995906411669331 10.959641009741517 #
straight-curve $-1 -71.947996459852902 43.343579226606167 0 0 0 -1 I I #
point $-1 -71.947996459852902 43.343579226606167 10.95964100974151 #
point $-1 -60.59050228313275 39.354200242963316 6.146241812514833 #
straight-curve $-1 -71.947996459852902 -43.343579226606167 0 0 0 -1 I I #
straight-curve $-1 -71.947996459852902 0 10.95964100974151 0 -1 0 I I #
point $-1 -71.947996459852902 -43.343579226606167 3.4292505305496417 #
straight-curve $-1 -30.295251141566375 -43.343579226606167 3.4292505305496439 1 0 0 I I #
point $-1 -71.947996459852902 -43.343579226606167 10.95964100974151 #
point $-1 -60.59050228313275 -39.354200242963316 6.1462418125148188 #
straight-curve $-1 -71.947996459852902 0 10.95964100974151 0 -1 0 I I #
End-of-ACIS-data 