500 0 8 0           
7 Unknown 11 ACIS 5.0 NT 24 Fri Mar 26 15:34:36 1999 
-1 9.9999999999999995e-007 1e-010 
body $-1 $8 $-1 $9 #
body $-1 $10 $-1 $11 #
body $-1 $12 $-1 $13 #
body $-1 $14 $-1 $15 #
body $-1 $16 $-1 $17 #
body $-1 $18 $-1 $19 #
body $-1 $20 $-1 $21 #
body $-1 $22 $-1 $23 #
lump $-1 $-1 $24 $0 #
transform $-1 1 0 0 0 1 0 0 0 1 58.442945646534625 26.610651453065664 5.7121902867344581 1 rotate no_reflect no_shear #
lump $-1 $-1 $25 $1 #
transform $-1 1 0 0 0 1 0 0 0 1 58.442945646534625 26.610651453065664 5.7121902867344581 1 rotate no_reflect no_shear #
lump $-1 $-1 $26 $2 #
transform $-1 1 0 0 0 1 0 0 0 1 58.442945646534625 26.610651453065664 5.7121902867344581 1 rotate no_reflect no_shear #
lump $-1 $-1 $27 $3 #
transform $-1 1 0 0 0 1 0 0 0 1 58.442945646534625 26.610651453065664 5.7121902867344581 1 rotate no_reflect no_shear #
lump $-1 $-1 $28 $4 #
transform $-1 1 0 0 0 1 0 0 0 1 58.442945646534625 26.610651453065664 5.7121902867344581 1 rotate no_reflect no_shear #
lump $-1 $-1 $29 $5 #
transform $-1 1 0 0 0 1 0 0 0 1 58.442945646534625 26.610651453065664 5.7121902867344581 1 rotate no_reflect no_shear #
lump $-1 $-1 $30 $6 #
transform $-1 1 0 0 0 1 0 0 0 1 58.442945646534625 26.610651453065664 5.7121902867344581 1 rotate no_reflect no_shear #
lump $-1 $-1 $31 $7 #
transform $-1 1 0 0 0 1 0 0 0 1 58.442945646534625 26.610651453065664 5.7121902867344581 1 rotate no_reflect no_shear #
shell $-1 $-1 $-1 $32 $-1 $8 #
shell $-1 $-1 $-1 $33 $-1 $10 #
shell $-1 $-1 $-1 $34 $-1 $12 #
shell $-1 $-1 $-1 $35 $-1 $14 #
shell $-1 $-1 $-1 $36 $-1 $16 #
shell $-1 $-1 $-1 $37 $-1 $18 #
shell $-1 $-1 $-1 $38 $-1 $20 #
shell $-1 $-1 $-1 $39 $-1 $22 #
face $-1 $40 $41 $24 $-1 $42 forward single #
face $-1 $43 $44 $25 $-1 $45 reversed single #
face $-1 $46 $47 $26 $-1 $48 forward single #
face $-1 $49 $50 $27 $-1 $51 forward single #
face $-1 $52 $53 $28 $-1 $54 forward single #
face $-1 $55 $56 $29 $-1 $57 reversed single #
face $-1 $58 $59 $30 $-1 $60 forward single #
face $-1 $61 $62 $31 $-1 $63 forward single #
face $-1 $64 $65 $24 $-1 $66 reversed single #
loop $-1 $-1 $67 $32 #
plane-surface $-1 0 0 5.7121902867344581 0 0 1 1 0 0 forward_v I I I I #
face $-1 $68 $69 $25 $-1 $70 reversed single #
loop $-1 $-1 $71 $33 #
plane-surface $-1 72.849932603160212 22.590464558975324 164.99887723226402 0 -1 0 -0.7660444514056185 0 -0.64278759981090561 forward_v I I I I #
face $-1 $72 $73 $26 $-1 $74 forward single #
loop $-1 $75 $76 $34 #
cone-surface $-1 55.800268851457524 13.841745638885975 2.6978449652505878 -0.7660444514056185 0 -0.64278759981090561 0.1606968999527264 0 -0.19151111285140462 1 I I 0 1 0.25 forward I I I I #
face $-1 $77 $78 $27 $-1 $79 forward single #
loop $-1 $80 $81 $35 #
cone-surface $-1 55.800268851457524 17.122515233919479 2.6978449652505878 -0.7660444514056185 0 -0.64278759981090561 0.1606968999527264 0 -0.19151111285140462 1 I I 0 1 0.25 forward I I I I #
face $-1 $82 $83 $28 $-1 $84 forward single #
loop $-1 $85 $86 $36 #
cone-surface $-1 55.800268851457524 20.403284828952984 2.6978449652505878 -0.7660444514056185 0 -0.64278759981090561 0.1606968999527264 0 -0.19151111285140462 1 I I 0 1 0.25 forward I I I I #
face $-1 $87 $88 $29 $-1 $89 reversed single #
loop $-1 $-1 $90 $37 #
plane-surface $-1 -160.67365054926557 16.798925924152691 57.801544974122692 0 1 0 -0.87461971476443456 0 0.48480960649040278 forward_v I I I I #
face $-1 $91 $92 $30 $-1 $93 forward single #
loop $-1 $94 $95 $38 #
cone-surface $-1 -56.648765178853417 19.60227607527068 3.1319578399666641 0.87461971476443456 0 -0.48480960649040278 0.48480960649040278 0 0.87461971476443456 1 I I 0 1 1 forward I I I I #
face $-1 $96 $97 $31 $-1 $98 forward single #
loop $-1 $99 $100 $39 #
cone-surface $-1 -56.648765178853417 23.807301301947668 3.1319578399666641 0.87461971476443456 0 -0.48480960649040278 0.48480960649040278 0 0.87461971476443456 1 I I 0 1 1 forward I I I I #
face $-1 $101 $102 $24 $-1 $103 reversed single #
loop $-1 $-1 $104 $40 #
plane-surface $-1 0 0 -5.7121902867344581 0 0 1 1 0 0 forward_v I I I I #
coedge $-1 $105 $106 $107 $108 forward $41 $-1 #
face $-1 $109 $110 $25 $-1 $111 reversed single #
loop $-1 $-1 $112 $43 #
plane-surface $-1 -16.689855869495787 17.122515233919479 89.86607571623361 0.7660444514056185 0 0.64278759981090561 0.64278759981090561 0 -0.7660444514056185 forward_v I I I I #
coedge $-1 $113 $114 $115 $116 reversed $44 $-1 #
face $-1 $-1 $117 $26 $-1 $118 forward single #
loop $-1 $119 $120 $46 #
cone-surface $-1 55.321491069329014 13.841745638885975 2.2961027153687716 -0.7660444514056185 0 -0.64278759981090561 0.080348449976363201 0 -0.095755556425702312 1 I I -0.70710678118654746 0.70710678118654746 0.125 forward I I I I #
loop $-1 $-1 $121 $34 #
coedge $-1 $76 $76 $122 $123 reversed $47 $-1 #
face $-1 $-1 $124 $27 $-1 $125 forward single #
loop $-1 $126 $127 $49 #
cone-surface $-1 55.321491069329014 17.122515233919479 2.2961027153687716 -0.7660444514056185 0 -0.64278759981090561 0.080348449976363201 0 -0.095755556425702312 1 I I -0.70710678118654746 0.70710678118654746 0.125 forward I I I I #
loop $-1 $-1 $128 $35 #
coedge $-1 $81 $81 $129 $130 reversed $50 $-1 #
face $-1 $-1 $131 $28 $-1 $132 forward single #
loop $-1 $133 $134 $52 #
cone-surface $-1 55.321491069329014 20.403284828952984 2.2961027153687716 -0.7660444514056185 0 -0.64278759981090561 0.080348449976363201 0 -0.095755556425702312 1 I I -0.70710678118654746 0.70710678118654746 0.125 forward I I I I #
loop $-1 $-1 $135 $36 #
coedge $-1 $86 $86 $136 $137 reversed $53 $-1 #
face $-1 $138 $139 $29 $-1 $140 forward single #
loop $-1 $-1 $141 $55 #
plane-surface $-1 -58.442945646534639 21.704788688609177 1.1341420120497929 -0.87461971476443456 0 0.48480960649040278 0.48480960649040278 0 0.87461971476443456 forward_v I I I I #
coedge $-1 $142 $143 $144 $145 reversed $56 $-1 #
face $-1 $-1 $146 $30 $-1 $147 forward single #
loop $-1 $148 $149 $58 #
cone-surface $-1 -55.686101605049387 19.60227607527068 2.5983447272960003 0.87461971476443456 0 -0.48480960649040278 0.24240480324520139 0 0.43730985738221728 1 I I -0.70710678118654746 0.70710678118654746 0.5 forward I I I I #
loop $-1 $-1 $150 $38 #
coedge $-1 $95 $95 $151 $152 reversed $59 $-1 #
face $-1 $-1 $153 $31 $-1 $154 forward single #
loop $-1 $155 $156 $61 #
cone-surface $-1 -55.686101605049387 23.807301301947668 2.5983447272960003 0.87461971476443456 0 -0.48480960649040278 0.24240480324520139 0 0.43730985738221728 1 I I -0.70710678118654746 0.70710678118654746 0.5 forward I I I I #
loop $-1 $-1 $157 $39 #
coedge $-1 $100 $100 $158 $159 reversed $62 $-1 #
face $-1 $160 $161 $24 $-1 $162 reversed single #
loop $-1 $-1 $163 $64 #
plane-surface $-1 0 -26.610651453065664 0 0 1 0 0 0 1 forward_v I I I I #
coedge $-1 $164 $165 $166 $167 forward $65 $-1 #
coedge $-1 $168 $67 $169 $170 forward $41 $-1 #
coedge $-1 $67 $168 $171 $172 forward $41 $-1 #
coedge $-1 $173 $174 $67 $108 reversed $175 $-1 #
edge $-1 $176 -26.610651453065664 $177 26.610651453065664 $107 $178 forward 7 unknown #
face $-1 $179 $180 $25 $-1 $181 forward single #
loop $-1 $-1 $182 $68 #
plane-surface $-1 72.849932603160212 11.654565908863635 164.99887723226402 0 1 0 0.7660444514056185 0 0.64278759981090561 forward_v I I I I #
coedge $-1 $183 $184 $185 $186 reversed $69 $-1 #
coedge $-1 $114 $71 $187 $188 reversed $44 $-1 #
coedge $-1 $71 $113 $183 $189 reversed $44 $-1 #
coedge $-1 $185 $190 $71 $116 forward $180 $-1 #
edge $-1 $191 -22.017979344954519 $192 -17.498670206205965 $115 $193 forward 7 unknown #
loop $-1 $-1 $122 $72 #
plane-surface $-1 -16.689855869495787 17.122515233919479 89.86607571623361 0.7660444514056185 0 0.64278759981090561 0.64278759981090561 0 -0.7660444514056185 forward_v I I I I #
loop $-1 $-1 $194 $46 #
coedge $-1 $120 $120 $121 $195 reversed $73 $-1 #
coedge $-1 $121 $121 $120 $195 forward $75 $-1 #
coedge $-1 $122 $122 $76 $123 forward $117 $-1 #
edge $-1 $196 0 $196 6.2831853071796004 $122 $197 forward 7 unknown #
loop $-1 $-1 $129 $77 #
plane-surface $-1 -16.689855869495787 17.122515233919479 89.86607571623361 0.7660444514056185 0 0.64278759981090561 0.64278759981090561 0 -0.7660444514056185 forward_v I I I I #
loop $-1 $-1 $198 $49 #
coedge $-1 $127 $127 $128 $199 reversed $78 $-1 #
coedge $-1 $128 $128 $127 $199 forward $80 $-1 #
coedge $-1 $129 $129 $81 $130 forward $124 $-1 #
edge $-1 $200 0 $200 6.2831853071796004 $129 $201 forward 7 unknown #
loop $-1 $-1 $136 $82 #
plane-surface $-1 -16.689855869495787 17.122515233919479 89.86607571623361 0.7660444514056185 0 0.64278759981090561 0.64278759981090561 0 -0.7660444514056185 forward_v I I I I #
loop $-1 $-1 $202 $52 #
coedge $-1 $134 $134 $135 $203 reversed $83 $-1 #
coedge $-1 $135 $135 $134 $203 forward $85 $-1 #
coedge $-1 $136 $136 $86 $137 forward $131 $-1 #
edge $-1 $204 0 $204 6.2831853071796004 $136 $205 forward 7 unknown #
face $-1 $206 $207 $29 $-1 $208 reversed single #
loop $-1 $-1 $144 $87 #
plane-surface $-1 0 0 5.7121902867344581 0 0 1 1 0 0 forward_v I I I I #
coedge $-1 $209 $210 $211 $212 reversed $88 $-1 #
coedge $-1 $143 $90 $213 $214 reversed $56 $-1 #
coedge $-1 $90 $142 $209 $215 reversed $56 $-1 #
coedge $-1 $211 $216 $90 $145 forward $139 $-1 #
edge $-1 $217 21.893879628098162 $218 24.431533130616927 $144 $219 forward 7 unknown #
loop $-1 $-1 $151 $91 #
plane-surface $-1 -58.442945646534639 21.704788688609177 1.1341420120497929 -0.87461971476443456 0 0.48480960649040278 0.48480960649040278 0 0.87461971476443456 forward_v I I I I #
loop $-1 $-1 $220 $58 #
coedge $-1 $149 $149 $150 $221 reversed $92 $-1 #
coedge $-1 $150 $150 $149 $221 forward $94 $-1 #
coedge $-1 $151 $151 $95 $152 forward $146 $-1 #
edge $-1 $222 0 $222 6.2831853071796004 $151 $223 forward 7 unknown #
loop $-1 $-1 $158 $96 #
plane-surface $-1 -58.442945646534639 21.704788688609177 1.1341420120497929 -0.87461971476443456 0 0.48480960649040278 0.48480960649040278 0 0.87461971476443456 forward_v I I I I #
loop $-1 $-1 $224 $61 #
coedge $-1 $156 $156 $157 $225 reversed $97 $-1 #
coedge $-1 $157 $157 $156 $225 forward $99 $-1 #
coedge $-1 $158 $158 $100 $159 forward $153 $-1 #
edge $-1 $226 0 $226 6.2831853071796004 $158 $227 forward 7 unknown #
face $-1 $228 $229 $24 $-1 $230 reversed single #
loop $-1 $-1 $231 $101 #
plane-surface $-1 -58.442945646534625 0 0 1 0 0 0 0 -1 forward_v I I I I #
coedge $-1 $232 $171 $233 $234 forward $102 $-1 #
coedge $-1 $235 $104 $232 $236 forward $65 $-1 #
coedge $-1 $104 $235 $237 $238 forward $65 $-1 #
coedge $-1 $174 $173 $104 $167 reversed $175 $-1 #
edge $-1 $239 -26.610651453065664 $240 26.610651453065664 $166 $241 forward 7 unknown #
coedge $-1 $106 $105 $242 $243 forward $41 $-1 #
coedge $-1 $244 $245 $105 $170 reversed $229 $-1 #
edge $-1 $177 -58.442945646534625 $246 58.442945646534625 $169 $247 forward 7 unknown #
coedge $-1 $163 $248 $106 $172 reversed $102 $-1 #
edge $-1 $249 -58.442945646534625 $176 58.442945646534625 $171 $250 forward 7 unknown #
coedge $-1 $166 $107 $248 $251 forward $175 $-1 #
coedge $-1 $107 $166 $244 $252 reversed $175 $-1 #
loop $-1 $-1 $173 $228 #
vertex $-1 $108 $253 #
vertex $-1 $108 $254 #
straight-curve $-1 58.442945646534625 0 5.7121902867344581 0 1 0 I I #
face $-1 $-1 $255 $25 $-1 $256 reversed single #
loop $-1 $-1 $115 $109 #
plane-surface $-1 0 0 5.7121902867344581 0 0 1 1 0 0 forward_v I I I I #
coedge $-1 $257 $258 $259 $260 reversed $110 $-1 #
coedge $-1 $261 $112 $114 $189 forward $69 $-1 #
coedge $-1 $112 $261 $257 $262 forward $69 $-1 #
coedge $-1 $259 $115 $112 $186 forward $180 $-1 #
edge $-1 $192 -14.029206942015584 $263 -3.0933082919038952 $185 $264 forward 7 unknown #
coedge $-1 $265 $266 $113 $188 forward $255 $-1 #
edge $-1 $267 -82.173151372554386 $191 -76.787248329397556 $187 $268 forward 7 unknown #
edge $-1 $192 109.85509427695068 $267 116.88589129306926 $114 $269 forward 7 unknown #
coedge $-1 $115 $259 $265 $270 forward $180 $-1 #
vertex $-1 $188 $271 #
vertex $-1 $116 $272 #
straight-curve $-1 36.424966301580106 22.590464558975324 5.7121902867344545 -1 0 0 I I #
coedge $-1 $194 $194 $-1 $273 reversed $119 $-1 #
edge $-1 $274 0 $274 6.2831853071796004 $120 $275 forward 7 unknown #
vertex $-1 $123 $276 #
ellipse-curve $-1 56.183291077160348 13.841745638885975 3.0192387651560542 0.7660444514056185 0 0.64278759981090561 0.1606968999527264 0 -0.19151111285140462 1 I I #
coedge $-1 $198 $198 $-1 $277 reversed $126 $-1 #
edge $-1 $278 0 $278 6.2831853071796004 $127 $279 forward 7 unknown #
vertex $-1 $130 $280 #
ellipse-curve $-1 56.183291077160348 17.122515233919479 3.0192387651560542 0.7660444514056185 0 0.64278759981090561 0.1606968999527264 0 -0.19151111285140462 1 I I #
coedge $-1 $202 $202 $-1 $281 reversed $133 $-1 #
edge $-1 $282 0 $282 6.2831853071796004 $134 $283 forward 7 unknown #
vertex $-1 $137 $284 #
ellipse-curve $-1 56.183291077160348 20.403284828952984 3.0192387651560542 0.7660444514056185 0 0.64278759981090561 0.1606968999527264 0 -0.19151111285140462 1 I I #
face $-1 $-1 $285 $29 $-1 $286 reversed single #
loop $-1 $-1 $287 $138 #
plane-surface $-1 0 26.610651453065664 0 0 -1 0 0 0 -1 forward_v I I I I #
coedge $-1 $288 $141 $143 $215 forward $88 $-1 #
coedge $-1 $141 $288 $287 $289 reversed $88 $-1 #
coedge $-1 $290 $144 $141 $212 forward $139 $-1 #
edge $-1 $218 5.9465315798481022 $291 15.758257108761075 $211 $292 forward 7 unknown #
coedge $-1 $293 $294 $142 $214 forward $285 $-1 #
edge $-1 $295 -27.766630475011528 $217 -23.188582200326888 $213 $296 forward 7 unknown #
edge $-1 $218 -5.2343300721476353 $295 -2.9223086620188301e-014 $143 $297 forward 7 unknown #
coedge $-1 $144 $290 $293 $298 forward $139 $-1 #
vertex $-1 $214 $299 #
vertex $-1 $145 $300 #
straight-curve $-1 -80.336825274632787 16.798925924152691 5.7121902867344581 1 0 0 I I #
coedge $-1 $220 $220 $-1 $301 reversed $148 $-1 #
edge $-1 $302 0 $302 6.2831853071796004 $149 $303 forward 7 unknown #
vertex $-1 $152 $304 #
ellipse-curve $-1 -57.174118895275249 19.60227607527068 3.4231661493921344 -0.87461971476443456 0 0.48480960649040278 0.48480960649040278 0 0.87461971476443456 1 I I #
coedge $-1 $224 $224 $-1 $305 reversed $155 $-1 #
edge $-1 $306 0 $306 6.2831853071796004 $156 $307 forward 7 unknown #
vertex $-1 $159 $308 #
ellipse-curve $-1 -57.174118895275249 23.807301301947668 3.4231661493921344 -0.87461971476443456 0 0.48480960649040278 0.48480960649040278 0 0.87461971476443456 1 I I #
face $-1 $-1 $175 $24 $-1 $309 reversed single #
loop $-1 $-1 $244 $160 #
plane-surface $-1 0 26.610651453065664 0 0 -1 0 0 0 -1 forward_v I I I I #
coedge $-1 $310 $242 $245 $311 forward $161 $-1 #
coedge $-1 $248 $163 $164 $236 reversed $102 $-1 #
coedge $-1 $242 $310 $163 $234 reversed $161 $-1 #
edge $-1 $249 -5.7121902867344581 $312 5.7121902867344581 $233 $313 forward 7 unknown #
coedge $-1 $165 $164 $310 $314 forward $65 $-1 #
edge $-1 $240 -58.442945646534625 $312 58.442945646534625 $232 $315 forward 7 unknown #
coedge $-1 $245 $244 $165 $238 reversed $229 $-1 #
edge $-1 $316 -58.442945646534625 $239 58.442945646534625 $237 $317 forward 7 unknown #
vertex $-1 $167 $318 #
vertex $-1 $251 $319 #
straight-curve $-1 58.442945646534625 0 -5.7121902867344581 0 -1 0 I I #
coedge $-1 $231 $233 $168 $243 reversed $161 $-1 #
edge $-1 $246 -26.610651453065664 $249 26.610651453065664 $242 $320 forward 7 unknown #
coedge $-1 $237 $169 $174 $252 forward $229 $-1 #
coedge $-1 $169 $237 $231 $311 reversed $229 $-1 #
vertex $-1 $170 $321 #
straight-curve $-1 0 26.610651453065664 5.7121902867344581 -1 0 0 I I #
coedge $-1 $171 $232 $173 $251 reversed $102 $-1 #
vertex $-1 $243 $322 #
straight-curve $-1 0 -26.610651453065664 5.7121902867344581 1 0 0 I I #
edge $-1 $176 -5.7121902867344581 $240 5.7121902867344581 $173 $323 forward 7 unknown #
edge $-1 $177 -5.7121902867344581 $239 5.7121902867344581 $174 $324 forward 7 unknown #
point $-1 58.442945646534625 -26.610651453065664 5.7121902867344581 #
point $-1 58.442945646534625 26.610651453065664 5.7121902867344581 #
loop $-1 $-1 $187 $179 #
plane-surface $-1 58.442945646534625 0 0 -1 0 0 0 0 1 forward_v I I I I #
coedge $-1 $258 $182 $184 $262 reversed $110 $-1 #
coedge $-1 $182 $257 $325 $326 reversed $110 $-1 #
coedge $-1 $190 $185 $182 $260 forward $180 $-1 #
edge $-1 $263 17.498670206205965 $327 22.017979344954519 $259 $328 forward 7 unknown #
coedge $-1 $184 $183 $266 $329 reversed $69 $-1 #
edge $-1 $330 -116.88589129306926 $263 -109.85509427695068 $257 $331 forward 7 unknown #
vertex $-1 $186 $332 #
straight-curve $-1 53.923636507786057 8.5612576169597396 5.7121902867344545 0 -1 0 I I #
coedge $-1 $325 $187 $190 $270 reversed $255 $-1 #
coedge $-1 $187 $325 $261 $329 forward $255 $-1 #
vertex $-1 $188 $333 #
straight-curve $-1 58.442945646534625 22.590464558975324 82.499438616132011 0 0 1 I I #
straight-curve $-1 -16.689855869495787 22.590464558975324 89.86607571623361 0.64278759981090561 0 -0.7660444514056185 I I #
edge $-1 $327 11.654565908863635 $191 22.590464558975324 $265 $334 forward 7 unknown #
point $-1 58.442945646534625 22.590464558975324 5.7121902867344581 #
point $-1 53.923636507786071 22.590464558975324 5.7121902867344545 #
edge $-1 $335 1 $335 0 $194 $-1 forward 7 unknown #
vertex $-1 $195 $336 #
ellipse-curve $-1 55.417246625754714 13.841745638885975 2.3764511653451348 0.7660444514056185 0 0.64278759981090561 0.1606968999527264 0 -0.19151111285140462 1 I I #
point $-1 56.343987977113059 13.841745638885975 2.8277276523046355 #
edge $-1 $337 1 $337 0 $198 $-1 forward 7 unknown #
vertex $-1 $199 $338 #
ellipse-curve $-1 55.417246625754714 17.122515233919479 2.3764511653451348 0.7660444514056185 0 0.64278759981090561 0.1606968999527264 0 -0.19151111285140462 1 I I #
point $-1 56.343987977113059 17.122515233919479 2.8277276523046355 #
edge $-1 $339 1 $339 0 $202 $-1 forward 7 unknown #
vertex $-1 $203 $340 #
ellipse-curve $-1 55.417246625754714 20.403284828952984 2.3764511653451348 0.7660444514056185 0 0.64278759981090561 0.1606968999527264 0 -0.19151111285140462 1 I I #
point $-1 56.343987977113059 20.403284828952984 2.8277276523046355 #
loop $-1 $-1 $213 $206 #
plane-surface $-1 -58.442945646534625 0 0 1 0 0 0 0 -1 forward_v I I I I #
coedge $-1 $341 $342 $210 $289 forward $207 $-1 #
coedge $-1 $210 $209 $294 $343 reversed $88 $-1 #
edge $-1 $291 8.4365491868299181 $344 13.670879258977523 $287 $345 forward 7 unknown #
coedge $-1 $216 $211 $342 $346 forward $139 $-1 #
vertex $-1 $346 $347 #
straight-curve $-1 -55.90529214401586 10.852394344304589 5.7121902867344598 0 1 0 I I #
coedge $-1 $348 $213 $216 $298 reversed $285 $-1 #
coedge $-1 $213 $348 $288 $343 forward $285 $-1 #
vertex $-1 $214 $349 #
straight-curve $-1 -58.442945646534625 16.798925924152691 28.900772487061346 0 0 1 I I #
straight-curve $-1 -58.442945646534639 16.798925924152691 1.1341420120497929 -0.48480960649040278 0 -0.87461971476443456 I I #
edge $-1 $350 -26.610651453065664 $217 -16.798925924152691 $293 $351 forward 7 unknown #
point $-1 -58.442945646534625 16.798925924152691 5.7121902867344581 #
point $-1 -55.90529214401586 16.798925924152691 5.7121902867344581 #
edge $-1 $352 1 $352 0 $220 $-1 forward 7 unknown #
vertex $-1 $221 $353 #
ellipse-curve $-1 -56.123411462431605 19.60227607527068 2.8407495305412018 -0.87461971476443456 0 0.48480960649040278 0.48480960649040278 0 0.87461971476443456 1 I I #
point $-1 -56.689309288784834 19.60227607527068 4.2977858641565607 #
edge $-1 $354 1 $354 0 $224 $-1 forward 7 unknown #
vertex $-1 $225 $355 #
ellipse-curve $-1 -56.123411462431605 23.807301301947668 2.8407495305412018 -0.87461971476443456 0 0.48480960649040278 0.48480960649040278 0 0.87461971476443456 1 I I #
point $-1 -56.689309288784834 23.807301301947668 4.2977858641565607 #
plane-surface $-1 58.442945646534625 0 0 -1 0 0 0 0 1 forward_v I I I I #
coedge $-1 $233 $231 $235 $314 reversed $161 $-1 #
edge $-1 $246 -5.7121902867344581 $316 5.7121902867344581 $245 $356 forward 7 unknown #
vertex $-1 $314 $357 #
straight-curve $-1 -58.442945646534625 -26.610651453065664 0 0 0 -1 I I #
edge $-1 $312 -26.610651453065664 $316 26.610651453065664 $310 $358 forward 7 unknown #
straight-curve $-1 0 -26.610651453065664 -5.7121902867344581 -1 0 0 I I #
vertex $-1 $238 $359 #
straight-curve $-1 0 26.610651453065664 -5.7121902867344581 1 0 0 I I #
point $-1 58.442945646534625 26.610651453065664 -5.7121902867344581 #
point $-1 58.442945646534625 -26.610651453065664 -5.7121902867344581 #
straight-curve $-1 -58.442945646534625 0 5.7121902867344581 0 -1 0 I I #
point $-1 -58.442945646534625 26.610651453065664 5.7121902867344581 #
point $-1 -58.442945646534625 -26.610651453065664 5.7121902867344581 #
straight-curve $-1 58.442945646534625 -26.610651453065664 0 0 0 -1 I I #
straight-curve $-1 58.442945646534625 26.610651453065664 0 0 0 -1 I I #
coedge $-1 $266 $265 $258 $326 forward $255 $-1 #
edge $-1 $327 76.787248329397556 $330 82.173151372554386 $325 $360 forward 7 unknown #
vertex $-1 $270 $361 #
straight-curve $-1 36.424966301580106 11.654565908863635 5.7121902867344545 1 0 0 I I #
edge $-1 $330 3.0933082919038952 $267 14.029206942015584 $266 $362 forward 7 unknown #
vertex $-1 $329 $363 #
straight-curve $-1 -16.689855869495787 11.654565908863635 89.86607571623361 -0.64278759981090561 0 0.7660444514056185 I I #
point $-1 53.923636507786071 11.654565908863635 5.7121902867344545 #
point $-1 58.442945646534625 22.590464558975324 0.32628724357762451 #
straight-curve $-1 58.442945646534625 0 5.7121902867344581 0 1 0 I I #
vertex $-1 $273 $364 #
point $-1 55.57794352570744 13.841745638885975 2.1849400524937304 #
vertex $-1 $277 $365 #
point $-1 55.57794352570744 17.122515233919479 2.1849400524937304 #
vertex $-1 $281 $366 #
point $-1 55.57794352570744 20.403284828952984 2.1849400524937304 #
coedge $-1 $342 $287 $348 $367 reversed $207 $-1 #
coedge $-1 $287 $341 $290 $346 reversed $207 $-1 #
edge $-1 $344 -15.758257108761075 $295 -5.9465315798481022 $294 $368 forward 7 unknown #
vertex $-1 $289 $369 #
straight-curve $-1 -51.815172052611928 26.610651453065664 13.090962530115766 -0.48480960649040278 0 -0.87461971476443456 I I #
edge $-1 $291 55.90529214401586 $350 58.442945646534625 $342 $370 forward 7 unknown #
point $-1 -55.90529214401586 26.610651453065664 5.7121902867344581 #
coedge $-1 $294 $293 $341 $367 forward $285 $-1 #
point $-1 -58.442945646534625 16.798925924152691 1.1341420120498185 #
vertex $-1 $346 $371 #
straight-curve $-1 -58.442945646534625 0 5.7121902867344581 0 -1 0 I I #
vertex $-1 $301 $372 #
point $-1 -55.638601855941204 19.60227607527068 3.7153692453056362 #
vertex $-1 $305 $373 #
point $-1 -55.638601855941204 23.807301301947668 3.7153692453056362 #
straight-curve $-1 -58.442945646534625 26.610651453065664 0 0 0 -1 I I #
point $-1 -58.442945646534625 -26.610651453065664 -5.7121902867344581 #
straight-curve $-1 -58.442945646534625 0 -5.7121902867344581 0 1 0 I I #
point $-1 -58.442945646534625 26.610651453065664 -5.7121902867344581 #
straight-curve $-1 58.442945646534625 11.654565908863635 82.499438616132011 0 0 -1 I I #
point $-1 58.442945646534625 11.654565908863635 5.7121902867344581 #
straight-curve $-1 58.442945646534625 8.5612576169597396 0.32628724357762451 0 1 0 I I #
point $-1 58.442945646534625 11.654565908863635 0.32628724357762451 #
point $-1 55.225735512903313 13.841745638885975 2.2157542653924085 #
point $-1 55.225735512903313 17.122515233919479 2.2157542653924085 #
point $-1 55.225735512903313 20.403284828952984 2.2157542653924085 #
edge $-1 $350 -5.7121902867344581 $344 -1.1341420120498185 $341 $374 forward 7 unknown #
straight-curve $-1 -58.442945646534625 10.852394344304589 1.1341420120498193 0 -1 0 I I #
point $-1 -58.442945646534625 26.610651453065664 1.1341420120498185 #
straight-curve $-1 0 26.610651453065664 5.7121902867344581 -1 0 0 I I #
point $-1 -58.442945646534625 26.610651453065664 5.7121902867344581 #
point $-1 -55.24879174766717 19.60227607527068 2.3559399240507988 #
point $-1 -55.24879174766717 23.807301301947668 2.3559399240507988 #
straight-curve $-1 -58.442945646534625 26.610651453065664 0 0 0 -1 I I #
End-of-ACIS-data 