600 0 5 0           
106 GICL ACIS Healer - Source: /gicl/data5/repository/Drexel/CICIRELLO-THESISDATA/Part10007.smdg.des.sat - 6 0 18 ACIS 6.0.3 Solaris 24 Fri Apr 12 10:19:42 2002 
1 9.999999999999999547e-07 1.000000000000000036e-10 
body $-1 $5 $-1 $-1 #
body $-1 $6 $-1 $-1 #
body $-1 $7 $-1 $-1 #
body $-1 $8 $-1 $-1 #
body $-1 $9 $-1 $-1 #
lump $-1 $-1 $10 $0 #
lump $-1 $-1 $11 $1 #
lump $-1 $-1 $12 $2 #
lump $-1 $-1 $13 $3 #
lump $-1 $-1 $14 $4 #
shell $-1 $-1 $-1 $15 $-1 $5 #
shell $-1 $-1 $-1 $16 $-1 $6 #
shell $-1 $-1 $-1 $17 $-1 $7 #
shell $-1 $-1 $-1 $18 $-1 $8 #
shell $-1 $-1 $-1 $19 $-1 $9 #
face $-1 $20 $21 $10 $-1 $22 forward single #
face $-1 $23 $24 $11 $-1 $25 forward single #
face $-1 $26 $27 $12 $-1 $28 forward single #
face $-1 $29 $30 $13 $-1 $31 forward single #
face $-1 $32 $33 $14 $-1 $34 reversed single #
face $-1 $35 $36 $10 $-1 $37 reversed single #
loop $-1 $-1 $38 $15 #
plane-surface $-1 55.38499099703970785 30.55631550786720041 24.50734562434623953 0 0 1 1 0 0 forward_v I I I I #
face $-1 $39 $40 $11 $-1 $41 reversed single #
loop $-1 $-1 $42 $16 #
plane-surface $-1 -7.131505193488997918 30.55631550786720041 6.141607977365005411 0 0 1 1 0 0 forward_v I I I I #
face $-1 $43 $44 $12 $-1 $45 reversed single #
loop $-1 $-1 $46 $17 #
plane-surface $-1 117.9014871875684207 30.55631550786720041 6.141607977365005411 0 0 1 1 0 0 forward_v I I I I #
face $-1 $47 $48 $13 $-1 $49 forward single #
loop $-1 $-1 $50 $18 #
plane-surface $-1 63.3477562958932765 76.78043693109185597 142.5009914987589923 1 0 0 0 -0.5877852598018022956 -0.8090169889191003438 forward_v I I I I #
face $-1 $51 $52 $14 $-1 $53 reversed single #
loop $-1 $54 $55 $19 #
cone-surface $-1 70.51658743206245106 54.08114439039592014 18.2023334995168149 0 -0.5877852598018022956 -0.8090169889191003438 2 0 0 1 I I 0 1 2 forward I I I I #
face $-1 $56 $57 $10 $-1 $58 reversed single #
loop $-1 $-1 $59 $20 #
plane-surface $-1 55.38499099703970785 30.55631550786720041 0 0 0 1 1 0 0 forward_v I I I I #
coedge $-1 $60 $61 $62 $63 forward $21 $-1 #
face $-1 $64 $65 $11 $-1 $66 forward single #
loop $-1 $-1 $67 $23 #
plane-surface $-1 -14.26301038697799584 30.55631550786720041 3.070803988682502705 1 0 0 0 0 -1 forward_v I I I I #
coedge $-1 $68 $69 $70 $71 reversed $24 $-1 #
face $-1 $72 $73 $12 $-1 $74 forward single #
loop $-1 $-1 $75 $26 #
plane-surface $-1 125.0329923810574115 30.55631550786720041 3.070803988682502705 -1 0 0 0 0 1 forward_v I I I I #
coedge $-1 $76 $77 $78 $79 forward $27 $-1 #
face $-1 $80 $81 $13 $-1 $82 forward single #
loop $-1 $-1 $83 $29 #
plane-surface $-1 70.51658743206245106 11.67147428646092422 52.88619420328591048 0 0.5877852598018022956 0.8090169889191003438 1 0 0 forward_v I I I I #
coedge $-1 $84 $85 $86 $87 reversed $30 $-1 #
face $-1 $88 $89 $14 $-1 $90 forward single #
loop $-1 $91 $92 $32 #
cone-surface $-1 70.51658743206245106 51.6523841971873594 14.85943194567601111 0 -0.5877852598018022956 -0.8090169889191003438 1 0 0 1 I I -0.7071067811865474617 0.7071067811865474617 1 forward I I I I #
loop $-1 $-1 $93 $19 #
coedge $-1 $55 $55 $94 $95 reversed $33 $-1 #
face $-1 $96 $97 $10 $-1 $98 reversed single #
loop $-1 $-1 $99 $35 #
plane-surface $-1 55.38499099703970785 0 12.25367281217311977 0 1 0 0 0 1 forward_v I I I I #
coedge $-1 $100 $101 $102 $103 forward $36 $-1 #
coedge $-1 $104 $38 $105 $106 forward $21 $-1 #
coedge $-1 $38 $104 $107 $108 forward $21 $-1 #
coedge $-1 $109 $110 $38 $63 reversed $111 $-1 #
edge $-1 $112 -30.55631550786720041 $113 30.55631550786720041 $62 $114 forward 7 unknown #
face $-1 $115 $116 $11 $-1 $117 reversed single #
loop $-1 $-1 $118 $39 #
plane-surface $-1 55.38499099703970785 30.55631550786720041 24.50734562434623953 0 0 1 1 0 0 forward_v I I I I #
coedge $-1 $119 $120 $121 $122 forward $40 $-1 #
coedge $-1 $123 $42 $124 $125 forward $24 $-1 #
coedge $-1 $42 $123 $126 $127 forward $24 $-1 #
coedge $-1 $128 $129 $42 $71 forward $130 $-1 #
edge $-1 $131 -30.55631550786720041 $132 30.55631550786720041 $70 $133 forward 7 unknown #
face $-1 $134 $135 $12 $-1 $136 reversed single #
loop $-1 $-1 $137 $43 #
plane-surface $-1 -7.131505193488997918 30.55631550786720041 6.141607977365005411 0 0 1 1 0 0 forward_v I I I I #
coedge $-1 $138 $78 $139 $140 forward $44 $-1 #
coedge $-1 $141 $46 $142 $143 forward $27 $-1 #
coedge $-1 $46 $141 $144 $145 forward $27 $-1 #
coedge $-1 $75 $146 $46 $79 reversed $44 $-1 #
edge $-1 $147 -30.55631550786720041 $148 30.55631550786720041 $78 $149 forward 7 unknown #
face $-1 $150 $151 $13 $-1 $152 forward single #
loop $-1 $-1 $153 $47 #
plane-surface $-1 77.68541856823162561 76.78043693109185597 142.5009914987589923 -1 0 0 0 0.5877852598018022956 0.8090169889191003438 forward_v I I I I #
coedge $-1 $154 $155 $156 $157 reversed $48 $-1 #
coedge $-1 $85 $50 $155 $158 forward $30 $-1 #
coedge $-1 $50 $84 $159 $160 reversed $30 $-1 #
coedge $-1 $161 $156 $50 $87 forward $151 $-1 #
edge $-1 $162 -2.936768587608597159 $163 7.444254796254874407 $86 $164 forward 7 unknown #
face $-1 $165 $166 $14 $-1 $167 forward single #
loop $-1 $-1 $168 $51 #
plane-surface $-1 63.3477562958932765 76.78043693109185597 142.5009914987589923 1 0 0 0 -0.5877852598018022956 -0.8090169889191003438 forward_v I I I I #
loop $-1 $-1 $169 $32 #
coedge $-1 $92 $92 $93 $170 forward $52 $-1 #
coedge $-1 $93 $93 $92 $170 reversed $54 $-1 #
coedge $-1 $94 $94 $55 $95 forward $166 $-1 #
edge $-1 $171 5.162867522557458329e-16 $171 6.28318530717958712 $94 $172 forward 7 unknown #
face $-1 $173 $174 $10 $-1 $175 reversed single #
loop $-1 $-1 $176 $56 #
plane-surface $-1 0 30.55631550786720041 12.25367281217311977 1 0 0 0 0 -1 forward_v I I I I #
coedge $-1 $177 $107 $178 $179 forward $57 $-1 #
coedge $-1 $180 $59 $177 $181 forward $36 $-1 #
coedge $-1 $59 $180 $182 $183 forward $36 $-1 #
coedge $-1 $110 $109 $59 $103 reversed $111 $-1 #
edge $-1 $184 -30.55631550786720041 $185 30.55631550786720041 $102 $186 forward 7 unknown #
coedge $-1 $61 $60 $187 $188 forward $21 $-1 #
coedge $-1 $189 $190 $60 $106 reversed $174 $-1 #
edge $-1 $113 -55.38499099703970785 $191 55.38499099703970785 $105 $192 forward 7 unknown #
coedge $-1 $99 $193 $61 $108 reversed $57 $-1 #
edge $-1 $194 -55.38499099703970785 $112 55.38499099703970785 $107 $195 forward 7 unknown #
coedge $-1 $102 $62 $193 $196 forward $111 $-1 #
coedge $-1 $62 $102 $189 $197 reversed $111 $-1 #
loop $-1 $-1 $109 $173 #
vertex $-1 $63 $198 #
vertex $-1 $63 $199 #
straight-curve $-1 110.7699819940794157 30.55631550786720041 24.50734562434623953 0 1 0 I I #
face $-1 $200 $201 $11 $-1 $202 reversed single #
loop $-1 $-1 $203 $64 #
plane-surface $-1 55.38499099703970785 30.55631550786720041 0 0 0 1 1 0 0 forward_v I I I I #
coedge $-1 $204 $205 $206 $207 forward $65 $-1 #
coedge $-1 $208 $67 $209 $210 reversed $40 $-1 #
coedge $-1 $67 $208 $123 $211 reversed $40 $-1 #
coedge $-1 $124 $212 $67 $122 reversed $213 $-1 #
edge $-1 $214 -3.070803988682502705 $215 3.070803988682502705 $121 $216 forward 7 unknown #
coedge $-1 $69 $68 $120 $211 forward $24 $-1 #
coedge $-1 $217 $121 $68 $125 reversed $213 $-1 #
edge $-1 $131 -7.131505193488997918 $214 7.131505193488997918 $124 $218 forward 7 unknown #
coedge $-1 $219 $220 $69 $127 reversed $201 $-1 #
edge $-1 $221 -7.131505193488997918 $132 7.131505193488997918 $126 $222 forward 7 unknown #
coedge $-1 $223 $70 $220 $224 reversed $130 $-1 #
coedge $-1 $70 $223 $217 $225 forward $130 $-1 #
loop $-1 $-1 $70 $200 #
vertex $-1 $225 $226 #
vertex $-1 $127 $227 #
straight-curve $-1 0 30.55631550786720041 6.141607977365005411 0 -1 0 I I #
face $-1 $228 $229 $12 $-1 $230 forward single #
loop $-1 $-1 $231 $72 #
plane-surface $-1 -14.26301038697799584 30.55631550786720041 3.070803988682502705 1 0 0 0 0 -1 forward_v I I I I #
coedge $-1 $232 $233 $234 $235 reversed $73 $-1 #
coedge $-1 $146 $75 $236 $237 reversed $44 $-1 #
coedge $-1 $144 $238 $75 $140 reversed $239 $-1 #
edge $-1 $147 -3.070803988682502705 $240 3.070803988682502705 $75 $241 forward 7 unknown #
coedge $-1 $77 $76 $242 $243 reversed $27 $-1 #
coedge $-1 $244 $245 $76 $143 reversed $246 $-1 #
edge $-1 $148 -7.131505193488990813 $247 7.131505193489005023 $142 $248 forward 7 unknown #
coedge $-1 $249 $139 $77 $145 reversed $239 $-1 #
edge $-1 $250 -7.131505193489005023 $147 7.131505193488990813 $144 $251 forward 7 unknown #
coedge $-1 $78 $138 $244 $252 reversed $44 $-1 #
vertex $-1 $79 $253 #
vertex $-1 $79 $254 #
straight-curve $-1 125.0329923810574115 30.55631550786720041 6.141607977365005411 0 1 0 I I #
face $-1 $255 $256 $13 $-1 $257 forward single #
loop $-1 $-1 $258 $80 #
plane-surface $-1 55.38499099703970785 30.55631550786720041 24.50734562434623953 0 0 1 1 0 0 forward_v I I I I #
coedge $-1 $259 $260 $258 $261 reversed $81 $-1 #
coedge $-1 $262 $83 $260 $263 reversed $48 $-1 #
coedge $-1 $83 $262 $84 $158 reversed $48 $-1 #
coedge $-1 $86 $258 $83 $157 forward $151 $-1 #
edge $-1 $264 -14.73462935368054616 $162 -0.3969670813421970479 $156 $265 forward 7 unknown #
edge $-1 $162 48.28098035073021066 $266 61.11263101573440792 $84 $267 forward 7 unknown #
coedge $-1 $268 $269 $85 $160 forward $270 $-1 #
edge $-1 $163 52.86998653111982094 $266 60.41224165093528597 $159 $271 forward 7 unknown #
coedge $-1 $272 $86 $269 $273 forward $151 $-1 #
vertex $-1 $157 $274 #
vertex $-1 $273 $275 #
straight-curve $-1 63.3477562958932765 53.66837621947952641 24.50734562434624308 0 1 0 I I #
face $-1 $276 $277 $14 $-1 $278 forward single #
loop $-1 $279 $94 $88 #
plane-surface $-1 70.51658743206245106 11.67147428646092422 52.88619420328591048 0 0.5877852598018022956 0.8090169889191003438 1 0 0 forward_v I I I I #
coedge $-1 $280 $281 $282 $283 reversed $89 $-1 #
coedge $-1 $169 $169 $-1 $284 forward $91 $-1 #
edge $-1 $285 0 $285 6.283185307179586232 $92 $286 forward 7 unknown #
vertex $-1 $95 $287 #
ellipse-curve $-1 70.51658743206245106 55.92211932380267569 20.73621806443849636 0 -0.5877852598018022956 -0.8090169889191003438 2 0 0 1 I I #
face $-1 $-1 $111 $10 $-1 $288 reversed single #
loop $-1 $-1 $189 $96 #
plane-surface $-1 55.38499099703970785 61.11263101573440082 12.25367281217311977 0 -1 0 0 0 -1 forward_v I I I I #
coedge $-1 $289 $187 $190 $290 forward $97 $-1 #
coedge $-1 $193 $99 $100 $181 reversed $57 $-1 #
coedge $-1 $187 $289 $99 $179 reversed $97 $-1 #
edge $-1 $194 -12.25367281217311977 $291 12.25367281217311977 $178 $292 forward 7 unknown #
coedge $-1 $101 $100 $289 $293 forward $36 $-1 #
edge $-1 $185 -55.38499099703970785 $291 55.38499099703970785 $177 $294 forward 7 unknown #
coedge $-1 $190 $189 $101 $183 reversed $174 $-1 #
edge $-1 $295 -55.38499099703970785 $184 55.38499099703970785 $182 $296 forward 7 unknown #
vertex $-1 $103 $297 #
vertex $-1 $196 $298 #
straight-curve $-1 110.7699819940794157 30.55631550786720041 0 0 -1 0 I I #
coedge $-1 $176 $178 $104 $188 reversed $97 $-1 #
edge $-1 $191 -30.55631550786720041 $194 30.55631550786720041 $187 $299 forward 7 unknown #
coedge $-1 $182 $105 $110 $197 forward $174 $-1 #
coedge $-1 $105 $182 $176 $290 reversed $174 $-1 #
vertex $-1 $106 $300 #
straight-curve $-1 55.38499099703970785 61.11263101573440082 24.50734562434623953 -1 0 0 I I #
coedge $-1 $107 $177 $109 $196 reversed $57 $-1 #
vertex $-1 $188 $301 #
straight-curve $-1 55.38499099703970785 0 24.50734562434623953 1 0 0 I I #
edge $-1 $112 -12.25367281217311977 $185 12.25367281217311977 $109 $302 forward 7 unknown #
edge $-1 $113 -12.25367281217311977 $184 12.25367281217311977 $110 $303 forward 7 unknown #
point $-1 110.7699819940794157 0 24.50734562434623953 #
point $-1 110.7699819940794157 61.11263101573440082 24.50734562434623953 #
face $-1 $304 $130 $11 $-1 $305 reversed single #
loop $-1 $-1 $220 $115 #
plane-surface $-1 55.38499099703970785 0 12.25367281217311977 0 1 0 0 0 1 forward_v I I I I #
coedge $-1 $306 $307 $308 $309 forward $116 $-1 #
coedge $-1 $310 $118 $311 $312 forward $65 $-1 #
coedge $-1 $118 $310 $313 $314 forward $65 $-1 #
coedge $-1 $315 $316 $118 $207 reversed $317 $-1 #
edge $-1 $318 -30.55631550786720041 $319 30.55631550786720041 $206 $320 forward 7 unknown #
coedge $-1 $120 $119 $219 $321 reversed $40 $-1 #
coedge $-1 $307 $306 $119 $210 forward $116 $-1 #
edge $-1 $322 -30.55631550786720041 $215 30.55631550786720041 $119 $323 forward 7 unknown #
edge $-1 $214 -30.55631550786720041 $221 30.55631550786720041 $120 $324 forward 7 unknown #
coedge $-1 $121 $325 $307 $326 reversed $213 $-1 #
loop $-1 $-1 $325 $304 #
vertex $-1 $125 $327 #
vertex $-1 $326 $328 #
straight-curve $-1 -14.26301038697799584 61.11263101573440082 3.070803988682502705 0 0 -1 I I #
coedge $-1 $311 $124 $129 $225 reversed $213 $-1 #
straight-curve $-1 -7.131505193488997918 61.11263101573440082 6.141607977365005411 -1 0 0 I I #
coedge $-1 $329 $126 $208 $321 forward $201 $-1 #
coedge $-1 $126 $313 $128 $224 forward $201 $-1 #
vertex $-1 $211 $330 #
straight-curve $-1 -7.131505193488997918 0 6.141607977365005411 1 0 0 I I #
coedge $-1 $129 $128 $310 $331 reversed $130 $-1 #
edge $-1 $332 -12.25367281217311977 $132 6.112064834808114355 $128 $333 forward 7 unknown #
edge $-1 $334 -12.25367281217311977 $131 6.112064834808114355 $217 $335 forward 7 unknown #
point $-1 0 61.11263101573440082 6.141607977365005411 #
point $-1 0 0 6.141607977365005411 #
face $-1 $336 $337 $12 $-1 $338 reversed single #
loop $-1 $-1 $339 $134 #
plane-surface $-1 55.38499099703970785 30.55631550786720041 24.50734562434623953 0 0 1 1 0 0 forward_v I I I I #
coedge $-1 $340 $341 $342 $343 forward $135 $-1 #
coedge $-1 $344 $137 $345 $346 forward $73 $-1 #
coedge $-1 $137 $344 $347 $348 forward $73 $-1 #
coedge $-1 $349 $350 $137 $235 forward $351 $-1 #
edge $-1 $352 -30.55631550786720041 $353 30.55631550786720041 $234 $354 forward 7 unknown #
coedge $-1 $355 $356 $138 $237 forward $337 $-1 #
edge $-1 $357 -30.55631550786720041 $240 30.55631550786720041 $138 $358 forward 7 unknown #
coedge $-1 $139 $359 $355 $360 reversed $239 $-1 #
loop $-1 $-1 $361 $336 #
vertex $-1 $140 $362 #
straight-curve $-1 125.0329923810574115 0 3.070803988682502705 0 0 -1 I I #
coedge $-1 $363 $364 $141 $243 forward $365 $-1 #
edge $-1 $250 -30.55631550786720041 $247 30.55631550786720041 $242 $366 forward 7 unknown #
coedge $-1 $367 $142 $146 $252 forward $246 $-1 #
coedge $-1 $142 $368 $363 $369 forward $246 $-1 #
loop $-1 $-1 $245 $370 #
vertex $-1 $143 $371 #
straight-curve $-1 117.9014871875684207 61.11263101573440082 6.141607977365005411 -1 0 0 I I #
coedge $-1 $372 $144 $364 $373 reversed $239 $-1 #
vertex $-1 $373 $374 #
straight-curve $-1 117.9014871875684207 0 6.141607977365005411 1 0 0 I I #
edge $-1 $148 -3.070803988682502705 $357 3.070803988682502705 $146 $375 forward 7 unknown #
point $-1 125.0329923810574115 0 6.141607977365005411 #
point $-1 125.0329923810574115 61.11263101573440082 6.141607977365005411 #
face $-1 $376 $377 $13 $-1 $378 reversed single #
loop $-1 $-1 $379 $150 #
plane-surface $-1 117.9014871875684207 30.55631550786720041 6.141607977365005411 0 0 1 1 0 0 forward_v I I I I #
coedge $-1 $156 $380 $153 $261 forward $151 $-1 #
coedge $-1 $260 $153 $381 $382 reversed $81 $-1 #
coedge $-1 $153 $259 $154 $263 forward $81 $-1 #
edge $-1 $383 -7.444254796254874407 $264 2.936768587608597159 $258 $384 forward 7 unknown #
coedge $-1 $155 $154 $268 $385 reversed $48 $-1 #
edge $-1 $386 -61.11263101573440792 $264 -48.28098035073021066 $260 $387 forward 7 unknown #
vertex $-1 $157 $388 #
straight-curve $-1 62.95078921455107945 50.73160763187092925 24.50734562434624308 -1 0 0 I I #
vertex $-1 $385 $389 #
straight-curve $-1 63.3477562958932765 11.67147428646092422 52.88619420328591048 0 0.8090169889191003438 -0.5877852598018022956 I I #
coedge $-1 $381 $159 $262 $385 forward $270 $-1 #
coedge $-1 $159 $390 $161 $273 reversed $270 $-1 #
loop $-1 $-1 $381 $391 #
straight-curve $-1 63.3477562958932765 61.11263101573440082 77.37733215546606402 0 0 -1 I I #
coedge $-1 $392 $161 $393 $394 forward $151 $-1 #
edge $-1 $163 -7.962765298853568652 $395 55.38499099703970785 $269 $396 forward 7 unknown #
point $-1 63.3477562958932765 50.73160763187092925 24.50734562434624308 #
point $-1 63.3477562958932765 61.11263101573440082 24.50734562434623953 #
face $-1 $397 $398 $14 $-1 $399 forward single #
loop $-1 $-1 $400 $165 #
plane-surface $-1 77.68541856823162561 76.78043693109185597 142.5009914987589923 -1 0 0 0 0.5877852598018022956 0.8090169889191003438 forward_v I I I I #
loop $-1 $-1 $401 $88 #
coedge $-1 $281 $168 $402 $403 forward $89 $-1 #
coedge $-1 $168 $280 $404 $405 reversed $89 $-1 #
coedge $-1 $406 $407 $168 $283 forward $398 $-1 #
edge $-1 $408 -2.936768587608597159 $409 7.444254796254874407 $282 $410 forward 7 unknown #
edge $-1 $411 1 $411 0 $169 $-1 forward 7 unknown #
vertex $-1 $170 $412 #
ellipse-curve $-1 70.51658743206245106 52.24016945698916459 15.66844893459511212 0 0.5877852598018022956 0.8090169889191003438 2 0 0 1 I I #
point $-1 72.51658743206245106 55.92211932380268991 20.73621806443851767 #
plane-surface $-1 110.7699819940794157 30.55631550786720041 12.25367281217311977 -1 0 0 0 0 1 forward_v I I I I #
coedge $-1 $178 $176 $180 $293 reversed $97 $-1 #
edge $-1 $191 -12.25367281217311977 $295 12.25367281217311977 $190 $413 forward 7 unknown #
vertex $-1 $293 $414 #
straight-curve $-1 0 0 12.25367281217311977 0 0 -1 I I #
edge $-1 $291 -30.55631550786720041 $295 30.55631550786720041 $289 $415 forward 7 unknown #
straight-curve $-1 55.38499099703970785 0 0 -1 0 0 I I #
vertex $-1 $183 $416 #
straight-curve $-1 55.38499099703970785 61.11263101573440082 0 1 0 0 I I #
point $-1 110.7699819940794157 61.11263101573440082 0 #
point $-1 110.7699819940794157 0 0 #
straight-curve $-1 0 30.55631550786720041 24.50734562434623953 0 -1 0 I I #
point $-1 0 61.11263101573440082 24.50734562434623953 #
point $-1 0 0 24.50734562434623953 #
straight-curve $-1 110.7699819940794157 0 12.25367281217311977 0 0 -1 I I #
straight-curve $-1 110.7699819940794157 61.11263101573440082 12.25367281217311977 0 0 -1 I I #
face $-1 $417 $213 $11 $-1 $418 reversed single #
plane-surface $-1 0 30.55631550786720041 12.25367281217311977 1 0 0 0 0 -1 forward_v I I I I #
coedge $-1 $209 $203 $329 $419 forward $116 $-1 #
coedge $-1 $203 $209 $212 $326 forward $116 $-1 #
coedge $-1 $316 $315 $203 $309 reversed $317 $-1 #
edge $-1 $420 -30.55631550786720041 $421 30.55631550786720041 $308 $422 forward 7 unknown #
coedge $-1 $205 $204 $223 $331 forward $65 $-1 #
coedge $-1 $325 $217 $204 $312 reversed $213 $-1 #
edge $-1 $319 -55.38499099703970785 $334 55.38499099703970785 $311 $423 forward 7 unknown #
coedge $-1 $220 $424 $205 $314 reversed $201 $-1 #
edge $-1 $332 -55.38499099703970785 $318 55.38499099703970785 $313 $425 forward 7 unknown #
coedge $-1 $308 $206 $424 $426 forward $317 $-1 #
coedge $-1 $206 $308 $325 $427 reversed $317 $-1 #
loop $-1 $-1 $315 $417 #
vertex $-1 $207 $428 #
vertex $-1 $207 $429 #
straight-curve $-1 110.7699819940794157 30.55631550786720041 24.50734562434623953 0 1 0 I I #
edge $-1 $221 -3.070803988682502705 $322 3.070803988682502705 $208 $430 forward 7 unknown #
vertex $-1 $210 $431 #
straight-curve $-1 -14.26301038697799584 30.55631550786720041 0 0 1 0 I I #
straight-curve $-1 -14.26301038697799584 30.55631550786720041 6.141607977365005411 0 -1 0 I I #
coedge $-1 $212 $311 $316 $427 forward $213 $-1 #
edge $-1 $215 -69.64800138401770369 $420 55.38499099703970785 $212 $432 forward 7 unknown #
point $-1 -14.26301038697799584 61.11263101573440082 6.141607977365005411 #
point $-1 -14.26301038697799584 61.11263101573440082 0 #
coedge $-1 $424 $219 $306 $419 reversed $201 $-1 #
point $-1 -14.26301038697799584 0 6.141607977365005411 #
edge $-1 $334 -30.55631550786720041 $332 30.55631550786720041 $223 $433 forward 7 unknown #
vertex $-1 $331 $434 #
straight-curve $-1 0 0 12.25367281217311977 0 0 -1 I I #
vertex $-1 $312 $435 #
straight-curve $-1 0 61.11263101573440082 12.25367281217311977 0 0 -1 I I #
face $-1 $436 $239 $12 $-1 $437 reversed single #
loop $-1 $-1 $355 $228 #
plane-surface $-1 55.38499099703970785 30.55631550786720041 0 0 0 1 1 0 0 forward_v I I I I #
coedge $-1 $438 $439 $440 $441 forward $229 $-1 #
coedge $-1 $442 $231 $443 $444 reversed $135 $-1 #
coedge $-1 $231 $442 $344 $445 reversed $135 $-1 #
coedge $-1 $345 $367 $231 $343 reversed $246 $-1 #
edge $-1 $446 -3.070803988682502705 $447 3.070803988682502705 $342 $448 forward 7 unknown #
coedge $-1 $233 $232 $341 $445 forward $73 $-1 #
coedge $-1 $449 $342 $232 $346 reversed $246 $-1 #
edge $-1 $352 -7.131505193488997918 $446 7.131505193488997918 $345 $450 forward 7 unknown #
coedge $-1 $359 $361 $233 $348 reversed $239 $-1 #
edge $-1 $451 -7.131505193488997918 $353 7.131505193488997918 $347 $452 forward 7 unknown #
coedge $-1 $453 $234 $361 $454 reversed $351 $-1 #
coedge $-1 $234 $453 $449 $455 forward $351 $-1 #
loop $-1 $-1 $234 $436 #
vertex $-1 $455 $456 #
vertex $-1 $348 $457 #
straight-curve $-1 0 30.55631550786720041 6.141607977365005411 0 -1 0 I I #
coedge $-1 $443 $236 $238 $360 forward $337 $-1 #
coedge $-1 $236 $443 $367 $458 forward $337 $-1 #
vertex $-1 $237 $459 #
straight-curve $-1 125.0329923810574115 30.55631550786720041 0 0 -1 0 I I #
coedge $-1 $238 $347 $442 $460 forward $239 $-1 #
edge $-1 $240 -7.131505193488990813 $461 132.1644975745464308 $238 $462 forward 7 unknown #
coedge $-1 $347 $372 $349 $454 forward $239 $-1 #
point $-1 125.0329923810574115 0 0 #
coedge $-1 $440 $242 $245 $369 reversed $365 $-1 #
coedge $-1 $242 $440 $249 $373 forward $365 $-1 #
loop $-1 $-1 $242 $463 #
straight-curve $-1 110.7699819940794157 30.55631550786720041 6.141607977365005411 0 1 0 I I #
coedge $-1 $342 $244 $356 $458 reversed $246 $-1 #
coedge $-1 $245 $449 $438 $464 reversed $246 $-1 #
edge $-1 $465 -12.25367281217311977 $247 6.112064834808114355 $363 $466 forward 7 unknown #
face $-1 $463 $246 $12 $-1 $467 reversed single #
point $-1 110.7699819940794157 61.11263101573440082 6.141607977365005411 #
coedge $-1 $361 $249 $439 $468 reversed $239 $-1 #
edge $-1 $469 -12.25367281217311977 $250 6.112064834808114355 $364 $470 forward 7 unknown #
point $-1 110.7699819940794157 0 6.141607977365005411 #
straight-curve $-1 125.0329923810574115 61.11263101573440082 3.070803988682502705 0 0 -1 I I #
face $-1 $471 $472 $13 $-1 $473 forward single #
loop $-1 $-1 $474 $255 #
plane-surface $-1 125.0329923810574115 30.55631550786720041 3.070803988682502705 -1 0 0 0 0 1 forward_v I I I I #
coedge $-1 $475 $476 $477 $478 forward $256 $-1 #
coedge $-1 $258 $479 $480 $481 forward $151 $-1 #
coedge $-1 $480 $268 $259 $382 forward $270 $-1 #
edge $-1 $386 -60.41224165093528597 $383 -52.86998653111982094 $381 $482 forward 7 unknown #
vertex $-1 $382 $483 #
straight-curve $-1 77.68541856823162561 53.66837621947952641 24.50734562434624308 0 -1 0 I I #
edge $-1 $266 0.3969670813421970479 $386 14.73462935368054616 $268 $484 forward 7 unknown #
vertex $-1 $385 $485 #
straight-curve $-1 77.68541856823162561 11.67147428646092422 52.88619420328591048 0 -0.8090169889191003438 0.5877852598018022956 I I #
point $-1 77.68541856823162561 50.73160763187092925 24.50734562434624308 #
point $-1 63.3477562958932765 61.11263101573439371 16.96509050453077805 #
coedge $-1 $269 $486 $487 $488 reversed $270 $-1 #
face $-1 $489 $270 $13 $-1 $490 reversed single #
coedge $-1 $479 $272 $491 $492 forward $151 $-1 #
coedge $-1 $487 $493 $272 $394 reversed $494 $-1 #
edge $-1 $395 -30.55631550786720041 $495 30.55631550786720041 $393 $496 forward 7 unknown #
vertex $-1 $273 $497 #
straight-curve $-1 55.38499099703970785 61.11263101573440082 24.50734562434623953 -1 0 0 I I #
face $-1 $498 $499 $14 $-1 $500 forward single #
loop $-1 $-1 $501 $276 #
plane-surface $-1 55.38499099703970785 30.55631550786720041 24.50734562434623953 0 0 1 1 0 0 forward_v I I I I #
coedge $-1 $502 $503 $501 $504 reversed $277 $-1 #
coedge $-1 $505 $402 $407 $506 reversed $279 $-1 #
coedge $-1 $401 $507 $280 $403 reversed $279 $-1 #
edge $-1 $408 48.28098035073021066 $508 61.11263101573440792 $280 $509 forward 7 unknown #
coedge $-1 $510 $511 $281 $405 forward $512 $-1 #
edge $-1 $409 52.86998653111982094 $508 60.41224165093528597 $404 $513 forward 7 unknown #
coedge $-1 $514 $282 $511 $515 forward $398 $-1 #
coedge $-1 $282 $501 $401 $506 forward $398 $-1 #
vertex $-1 $506 $516 #
vertex $-1 $515 $517 #
straight-curve $-1 63.3477562958932765 53.66837621947952641 24.50734562434624308 0 1 0 I I #
vertex $-1 $284 $518 #
point $-1 72.51658743206245106 52.24016945698916459 15.66844893459511212 #
straight-curve $-1 0 61.11263101573440082 12.25367281217311977 0 0 -1 I I #
point $-1 0 0 0 #
straight-curve $-1 0 30.55631550786720041 0 0 1 0 I I #
point $-1 0 61.11263101573440082 0 #
face $-1 $-1 $317 $11 $-1 $519 reversed single #
plane-surface $-1 55.38499099703970785 61.11263101573440082 12.25367281217311977 0 -1 0 0 0 -1 forward_v I I I I #
edge $-1 $421 -117.9014871875684207 $322 7.131505193488997918 $329 $520 forward 7 unknown #
vertex $-1 $309 $521 #
vertex $-1 $426 $522 #
straight-curve $-1 110.7699819940794157 30.55631550786720041 0 0 -1 0 I I #
straight-curve $-1 55.38499099703970785 61.11263101573440082 24.50734562434623953 -1 0 0 I I #
coedge $-1 $313 $329 $315 $426 reversed $201 $-1 #
straight-curve $-1 55.38499099703970785 0 24.50734562434623953 1 0 0 I I #
edge $-1 $318 -12.25367281217311977 $421 12.25367281217311977 $315 $523 forward 7 unknown #
edge $-1 $319 -12.25367281217311977 $420 12.25367281217311977 $316 $524 forward 7 unknown #
point $-1 110.7699819940794157 0 24.50734562434623953 #
point $-1 110.7699819940794157 61.11263101573440082 24.50734562434623953 #
straight-curve $-1 -14.26301038697799584 0 3.070803988682502705 0 0 -1 I I #
point $-1 -14.26301038697799584 0 0 #
straight-curve $-1 55.38499099703970785 61.11263101573440082 0 1 0 0 I I #
straight-curve $-1 0 30.55631550786720041 24.50734562434623953 0 -1 0 I I #
point $-1 0 0 24.50734562434623953 #
point $-1 0 61.11263101573440082 24.50734562434623953 #
face $-1 $370 $351 $12 $-1 $525 reversed single #
plane-surface $-1 55.38499099703970785 0 12.25367281217311977 0 1 0 0 0 1 forward_v I I I I #
coedge $-1 $526 $339 $368 $464 forward $229 $-1 #
coedge $-1 $339 $526 $372 $468 forward $229 $-1 #
coedge $-1 $364 $363 $339 $441 reversed $365 $-1 #
edge $-1 $469 -30.55631550786720041 $465 30.55631550786720041 $440 $527 forward 7 unknown #
coedge $-1 $341 $340 $359 $460 reversed $135 $-1 #
coedge $-1 $356 $355 $340 $444 forward $337 $-1 #
edge $-1 $461 -30.55631550786720041 $447 30.55631550786720041 $340 $528 forward 7 unknown #
edge $-1 $446 -30.55631550786720041 $451 30.55631550786720041 $341 $529 forward 7 unknown #
vertex $-1 $346 $530 #
vertex $-1 $458 $531 #
straight-curve $-1 -14.26301038697799584 61.11263101573440082 3.070803988682502705 0 0 -1 I I #
coedge $-1 $368 $345 $350 $455 reversed $246 $-1 #
straight-curve $-1 -7.131505193488997918 61.11263101573440082 6.141607977365005411 -1 0 0 I I #
vertex $-1 $445 $532 #
straight-curve $-1 -7.131505193488997918 0 6.141607977365005411 1 0 0 I I #
coedge $-1 $350 $349 $526 $533 reversed $351 $-1 #
edge $-1 $534 -12.25367281217311977 $353 6.112064834808114355 $349 $535 forward 7 unknown #
edge $-1 $536 -12.25367281217311977 $352 6.112064834808114355 $449 $537 forward 7 unknown #
point $-1 0 61.11263101573440082 6.141607977365005411 #
point $-1 0 0 6.141607977365005411 #
edge $-1 $447 -132.1644975745464308 $357 7.131505193488990813 $367 $538 forward 7 unknown #
point $-1 125.0329923810574115 61.11263101573440082 0 #
edge $-1 $451 -3.070803988682502705 $461 3.070803988682502705 $442 $539 forward 7 unknown #
vertex $-1 $444 $540 #
straight-curve $-1 117.9014871875684207 0 0 -1 0 0 I I #
face $-1 $-1 $365 $12 $-1 $541 reversed single #
edge $-1 $465 -55.38499099703970785 $536 55.38499099703970785 $368 $542 forward 7 unknown #
vertex $-1 $441 $543 #
straight-curve $-1 110.7699819940794157 61.11263101573440082 12.25367281217311977 0 0 -1 I I #
plane-surface $-1 55.38499099703970785 61.11263101573440082 12.25367281217311977 0 -1 0 0 0 -1 forward_v I I I I #
edge $-1 $534 -55.38499099703970785 $469 55.38499099703970785 $372 $544 forward 7 unknown #
vertex $-1 $441 $545 #
straight-curve $-1 110.7699819940794157 0 12.25367281217311977 0 0 -1 I I #
face $-1 $546 $547 $13 $-1 $548 reversed single #
loop $-1 $-1 $549 $376 #
plane-surface $-1 -7.131505193488997918 30.55631550786720041 6.141607977365005411 0 0 1 1 0 0 forward_v I I I I #
coedge $-1 $550 $477 $551 $552 forward $377 $-1 #
coedge $-1 $553 $379 $554 $555 forward $256 $-1 #
coedge $-1 $379 $553 $556 $557 forward $256 $-1 #
coedge $-1 $474 $558 $379 $478 reversed $377 $-1 #
edge $-1 $559 -30.55631550786720041 $560 30.55631550786720041 $477 $561 forward 7 unknown #
coedge $-1 $380 $392 $562 $563 forward $151 $-1 #
coedge $-1 $564 $381 $380 $481 reversed $270 $-1 #
edge $-1 $565 -55.38499099703970785 $383 -22.30042757119191776 $480 $396 forward 7 unknown #
straight-curve $-1 77.68541856823162561 61.11263101573440082 77.37733215546606402 0 0 1 I I #
point $-1 77.68541856823162561 61.11263101573440082 24.50734562434623953 #
straight-curve $-1 62.95078921455107945 61.11263101573440082 16.96509050453077805 1 0 0 I I #
point $-1 77.68541856823162561 61.11263101573439371 16.96509050453077805 #
coedge $-1 $390 $566 $567 $568 reversed $270 $-1 #
coedge $-1 $569 $393 $390 $488 forward $494 $-1 #
edge $-1 $395 -12.25367281217311977 $570 6.112064834808114355 $390 $571 forward 7 unknown #
face $-1 $-1 $572 $13 $-1 $573 reversed single #
plane-surface $-1 55.38499099703970785 61.11263101573440082 12.25367281217311977 0 -1 0 0 0 -1 forward_v I I I I #
coedge $-1 $574 $575 $392 $492 reversed $576 $-1 #
edge $-1 $495 -55.38499099703970785 $577 55.38499099703970785 $491 $578 forward 7 unknown #
coedge $-1 $393 $569 $574 $579 reversed $494 $-1 #
loop $-1 $-1 $569 $580 #
vertex $-1 $394 $581 #
straight-curve $-1 0 30.55631550786720041 24.50734562434623953 0 -1 0 I I #
point $-1 0 61.11263101573440082 24.50734562434623953 #
face $-1 $582 $583 $14 $-1 $584 reversed single #
loop $-1 $-1 $585 $397 #
plane-surface $-1 117.9014871875684207 30.55631550786720041 6.141607977365005411 0 0 1 1 0 0 forward_v I I I I #
coedge $-1 $407 $586 $400 $504 forward $398 $-1 #
coedge $-1 $503 $400 $587 $588 reversed $277 $-1 #
coedge $-1 $400 $502 $505 $589 forward $277 $-1 #
edge $-1 $590 -7.444254796254874407 $591 2.936768587608597159 $501 $592 forward 7 unknown #
coedge $-1 $507 $401 $503 $589 reversed $279 $-1 #
edge $-1 $591 -14.73462935368054616 $408 -0.3969670813421970479 $407 $593 forward 7 unknown #
coedge $-1 $402 $505 $510 $594 reversed $279 $-1 #
vertex $-1 $594 $595 #
straight-curve $-1 63.3477562958932765 11.67147428646092422 52.88619420328591048 0 0.8090169889191003438 -0.5877852598018022956 I I #
coedge $-1 $587 $404 $507 $594 forward $512 $-1 #
coedge $-1 $404 $596 $406 $515 reversed $512 $-1 #
loop $-1 $-1 $587 $597 #
straight-curve $-1 63.3477562958932765 61.11263101573440082 77.37733215546606402 0 0 -1 I I #
coedge $-1 $598 $406 $599 $600 forward $398 $-1 #
edge $-1 $409 -7.962765298853568652 $601 55.38499099703970785 $511 $602 forward 7 unknown #
point $-1 63.3477562958932765 50.73160763187092925 24.50734562434624308 #
point $-1 63.3477562958932765 61.11263101573440082 24.50734562434623953 #
point $-1 70.51658743206245106 51.06459893738555422 14.0504149567569101 #
plane-surface $-1 110.7699819940794157 30.55631550786720041 12.25367281217311977 -1 0 0 0 0 1 forward_v I I I I #
straight-curve $-1 -7.131505193488997918 0 0 -1 0 0 I I #
point $-1 110.7699819940794157 61.11263101573440082 0 #
point $-1 110.7699819940794157 0 0 #
straight-curve $-1 110.7699819940794157 0 12.25367281217311977 0 0 -1 I I #
straight-curve $-1 110.7699819940794157 61.11263101573440082 12.25367281217311977 0 0 -1 I I #
plane-surface $-1 0 30.55631550786720041 12.25367281217311977 1 0 0 0 0 -1 forward_v I I I I #
coedge $-1 $439 $438 $453 $533 forward $229 $-1 #
straight-curve $-1 110.7699819940794157 30.55631550786720041 24.50734562434623953 0 1 0 I I #
straight-curve $-1 -14.26301038697799584 30.55631550786720041 0 0 1 0 I I #
straight-curve $-1 -14.26301038697799584 30.55631550786720041 6.141607977365005411 0 -1 0 I I #
point $-1 -14.26301038697799584 61.11263101573440082 6.141607977365005411 #
point $-1 -14.26301038697799584 61.11263101573440082 0 #
point $-1 -14.26301038697799584 0 6.141607977365005411 #
edge $-1 $536 -30.55631550786720041 $534 30.55631550786720041 $453 $603 forward 7 unknown #
vertex $-1 $533 $604 #
straight-curve $-1 0 0 12.25367281217311977 0 0 -1 I I #
vertex $-1 $464 $605 #
straight-curve $-1 0 61.11263101573440082 12.25367281217311977 0 0 -1 I I #
straight-curve $-1 117.9014871875684207 61.11263101573440082 0 1 0 0 I I #
straight-curve $-1 -14.26301038697799584 0 3.070803988682502705 0 0 -1 I I #
point $-1 -14.26301038697799584 0 0 #
plane-surface $-1 110.7699819940794157 30.55631550786720041 12.25367281217311977 -1 0 0 0 0 1 forward_v I I I I #
straight-curve $-1 55.38499099703970785 61.11263101573440082 24.50734562434623953 -1 0 0 I I #
point $-1 110.7699819940794157 61.11263101573440082 24.50734562434623953 #
straight-curve $-1 55.38499099703970785 0 24.50734562434623953 1 0 0 I I #
point $-1 110.7699819940794157 0 24.50734562434623953 #
face $-1 $606 $607 $13 $-1 $608 reversed single #
loop $-1 $-1 $609 $471 #
plane-surface $-1 -14.26301038697799584 30.55631550786720041 3.070803988682502705 1 0 0 0 0 -1 forward_v I I I I #
coedge $-1 $567 $610 $569 $611 reversed $472 $-1 #
coedge $-1 $558 $474 $612 $613 reversed $377 $-1 #
coedge $-1 $556 $614 $474 $552 reversed $576 $-1 #
edge $-1 $559 -3.070803988682502705 $615 3.070803988682502705 $474 $616 forward 7 unknown #
coedge $-1 $476 $475 $617 $618 reversed $256 $-1 #
coedge $-1 $619 $564 $475 $555 reversed $270 $-1 #
edge $-1 $560 -7.131505193488990813 $620 7.131505193489005023 $554 $621 forward 7 unknown #
coedge $-1 $575 $551 $476 $557 reversed $576 $-1 #
edge $-1 $622 -7.131505193489005023 $559 7.131505193488990813 $556 $623 forward 7 unknown #
coedge $-1 $477 $550 $619 $624 reversed $377 $-1 #
vertex $-1 $478 $625 #
vertex $-1 $478 $626 #
straight-curve $-1 125.0329923810574115 30.55631550786720041 6.141607977365005411 0 1 0 I I #
coedge $-1 $627 $628 $479 $563 reversed $572 $-1 #
edge $-1 $577 -30.55631550786720041 $565 30.55631550786720041 $562 $629 forward 7 unknown #
coedge $-1 $554 $480 $628 $630 forward $270 $-1 #
vertex $-1 $563 $631 #
coedge $-1 $486 $632 $609 $633 reversed $270 $-1 #
coedge $-1 $634 $549 $486 $568 forward $472 $-1 #
edge $-1 $570 -7.131505193488997918 $635 7.131505193488997918 $486 $636 forward 7 unknown #
coedge $-1 $493 $487 $549 $611 forward $494 $-1 #
vertex $-1 $488 $637 #
straight-curve $-1 0 61.11263101573440082 12.25367281217311977 0 0 -1 I I #
loop $-1 $-1 $617 $489 #
plane-surface $-1 110.7699819940794157 30.55631550786720041 12.25367281217311977 -1 0 0 0 0 1 forward_v I I I I #
coedge $-1 $638 $491 $493 $579 forward $576 $-1 #
coedge $-1 $491 $556 $627 $639 reversed $576 $-1 #
loop $-1 $-1 $574 $606 #
vertex $-1 $563 $640 #
straight-curve $-1 55.38499099703970785 0 24.50734562434623953 1 0 0 I I #
edge $-1 $495 -12.25367281217311977 $641 6.112064834808114355 $493 $642 forward 7 unknown #
face $-1 $391 $494 $13 $-1 $643 reversed single #
point $-1 0 0 24.50734562434623953 #
face $-1 $644 $645 $14 $-1 $646 forward single #
loop $-1 $-1 $647 $498 #
plane-surface $-1 125.0329923810574115 30.55631550786720041 3.070803988682502705 -1 0 0 0 0 1 forward_v I I I I #
coedge $-1 $648 $649 $650 $651 forward $499 $-1 #
coedge $-1 $501 $652 $653 $654 forward $398 $-1 #
coedge $-1 $653 $510 $502 $588 forward $512 $-1 #
edge $-1 $655 -60.41224165093528597 $590 -52.86998653111982094 $587 $656 forward 7 unknown #
edge $-1 $655 -61.11263101573440792 $591 -48.28098035073021066 $503 $657 forward 7 unknown #
vertex $-1 $588 $658 #
vertex $-1 $506 $659 #
straight-curve $-1 77.68541856823162561 53.66837621947952641 24.50734562434624308 0 -1 0 I I #
straight-curve $-1 62.95078921455107945 50.73160763187092925 24.50734562434624308 -1 0 0 I I #
edge $-1 $508 0.3969670813421970479 $655 14.73462935368054616 $510 $660 forward 7 unknown #
point $-1 63.3477562958932765 61.11263101573439371 16.96509050453077805 #
coedge $-1 $511 $661 $662 $663 reversed $512 $-1 #
face $-1 $664 $512 $14 $-1 $665 reversed single #
coedge $-1 $652 $514 $666 $667 forward $398 $-1 #
coedge $-1 $662 $668 $514 $600 reversed $669 $-1 #
edge $-1 $601 -30.55631550786720041 $670 30.55631550786720041 $599 $671 forward 7 unknown #
vertex $-1 $515 $672 #
straight-curve $-1 55.38499099703970785 61.11263101573440082 24.50734562434623953 -1 0 0 I I #
straight-curve $-1 0 30.55631550786720041 24.50734562434623953 0 -1 0 I I #
point $-1 0 0 24.50734562434623953 #
point $-1 0 61.11263101573440082 24.50734562434623953 #
face $-1 $580 $576 $13 $-1 $673 reversed single #
loop $-1 $-1 $674 $546 #
plane-surface $-1 55.38499099703970785 30.55631550786720041 0 0 0 1 1 0 0 forward_v I I I I #
coedge $-1 $675 $676 $566 $633 forward $547 $-1 #
coedge $-1 $549 $634 $638 $677 forward $472 $-1 #
edge $-1 $570 -30.55631550786720041 $641 30.55631550786720041 $569 $678 forward 7 unknown #
coedge $-1 $674 $679 $550 $613 forward $607 $-1 #
edge $-1 $680 -30.55631550786720041 $615 30.55631550786720041 $550 $681 forward 7 unknown #
coedge $-1 $551 $682 $674 $683 reversed $576 $-1 #
vertex $-1 $552 $684 #
straight-curve $-1 125.0329923810574115 0 3.070803988682502705 0 0 -1 I I #
coedge $-1 $628 $627 $553 $618 forward $572 $-1 #
edge $-1 $622 -30.55631550786720041 $620 30.55631550786720041 $617 $685 forward 7 unknown #
coedge $-1 $632 $554 $558 $624 forward $270 $-1 #
vertex $-1 $555 $686 #
straight-curve $-1 117.9014871875684207 61.11263101573440082 6.141607977365005411 -1 0 0 I I #
vertex $-1 $639 $687 #
straight-curve $-1 117.9014871875684207 0 6.141607977365005411 1 0 0 I I #
edge $-1 $560 -3.070803988682502705 $680 3.070803988682502705 $558 $688 forward 7 unknown #
point $-1 125.0329923810574115 0 6.141607977365005411 #
point $-1 125.0329923810574115 61.11263101573440082 6.141607977365005411 #
coedge $-1 $617 $562 $575 $639 forward $572 $-1 #
coedge $-1 $562 $617 $564 $630 reversed $572 $-1 #
straight-curve $-1 110.7699819940794157 30.55631550786720041 24.50734562434623953 0 1 0 I I #
edge $-1 $565 -12.25367281217311977 $620 6.112064834808114355 $628 $689 forward 7 unknown #
point $-1 110.7699819940794157 61.11263101573440082 24.50734562434623953 #
coedge $-1 $566 $619 $679 $690 reversed $270 $-1 #
edge $-1 $635 -3.070803988682502705 $691 3.070803988682502705 $566 $692 forward 7 unknown #
coedge $-1 $610 $567 $676 $693 forward $472 $-1 #
vertex $-1 $568 $694 #
straight-curve $-1 -7.131505193488997918 61.11263101573440082 6.141607977365005411 -1 0 0 I I #
point $-1 0 61.11263101573440082 6.141607977365005411 #
coedge $-1 $682 $574 $610 $677 reversed $576 $-1 #
edge $-1 $577 -12.25367281217311977 $622 6.112064834808114355 $627 $695 forward 7 unknown #
point $-1 110.7699819940794157 0 24.50734562434623953 #
vertex $-1 $677 $696 #
straight-curve $-1 0 0 12.25367281217311977 0 0 -1 I I #
plane-surface $-1 0 30.55631550786720041 12.25367281217311977 1 0 0 0 0 -1 forward_v I I I I #
face $-1 $697 $698 $14 $-1 $699 reversed single #
loop $-1 $-1 $700 $582 #
plane-surface $-1 -7.131505193488997918 30.55631550786720041 6.141607977365005411 0 0 1 1 0 0 forward_v I I I I #
coedge $-1 $701 $650 $702 $703 forward $583 $-1 #
coedge $-1 $704 $585 $705 $706 forward $499 $-1 #
coedge $-1 $585 $704 $707 $708 forward $499 $-1 #
coedge $-1 $647 $709 $585 $651 reversed $583 $-1 #
edge $-1 $710 -30.55631550786720041 $711 30.55631550786720041 $650 $712 forward 7 unknown #
coedge $-1 $586 $598 $713 $714 forward $398 $-1 #
coedge $-1 $715 $587 $586 $654 reversed $512 $-1 #
edge $-1 $716 -55.38499099703970785 $590 -22.30042757119191776 $653 $602 forward 7 unknown #
vertex $-1 $594 $717 #
straight-curve $-1 77.68541856823162561 61.11263101573440082 77.37733215546606402 0 0 1 I I #
straight-curve $-1 77.68541856823162561 11.67147428646092422 52.88619420328591048 0 -0.8090169889191003438 0.5877852598018022956 I I #
point $-1 77.68541856823162561 61.11263101573440082 24.50734562434623953 #
point $-1 77.68541856823162561 50.73160763187092925 24.50734562434624308 #
straight-curve $-1 62.95078921455107945 61.11263101573440082 16.96509050453077805 1 0 0 I I #
coedge $-1 $596 $718 $719 $720 reversed $512 $-1 #
coedge $-1 $721 $599 $596 $663 forward $669 $-1 #
edge $-1 $601 -12.25367281217311977 $722 6.112064834808114355 $596 $723 forward 7 unknown #
face $-1 $-1 $724 $14 $-1 $725 reversed single #
plane-surface $-1 55.38499099703970785 61.11263101573440082 12.25367281217311977 0 -1 0 0 0 -1 forward_v I I I I #
coedge $-1 $726 $727 $598 $667 reversed $728 $-1 #
edge $-1 $670 -55.38499099703970785 $729 55.38499099703970785 $666 $730 forward 7 unknown #
coedge $-1 $599 $721 $726 $731 reversed $669 $-1 #
loop $-1 $-1 $721 $732 #
vertex $-1 $600 $733 #
straight-curve $-1 0 30.55631550786720041 24.50734562434623953 0 -1 0 I I #
point $-1 0 61.11263101573440082 24.50734562434623953 #
plane-surface $-1 55.38499099703970785 0 12.25367281217311977 0 1 0 0 0 1 forward_v I I I I #
coedge $-1 $734 $612 $614 $683 forward $607 $-1 #
coedge $-1 $735 $609 $734 $736 reversed $547 $-1 #
coedge $-1 $609 $735 $634 $693 reversed $547 $-1 #
edge $-1 $737 -7.131505193488997918 $641 7.131505193488997918 $638 $738 forward 7 unknown #
straight-curve $-1 0 30.55631550786720041 6.141607977365005411 0 -1 0 I I #
coedge $-1 $612 $734 $632 $690 forward $607 $-1 #
vertex $-1 $613 $739 #
straight-curve $-1 125.0329923810574115 30.55631550786720041 0 0 -1 0 I I #
coedge $-1 $614 $638 $735 $740 forward $576 $-1 #
edge $-1 $615 -7.131505193488990813 $741 132.1644975745464308 $614 $742 forward 7 unknown #
point $-1 125.0329923810574115 0 0 #
straight-curve $-1 110.7699819940794157 30.55631550786720041 6.141607977365005411 0 1 0 I I #
point $-1 110.7699819940794157 61.11263101573440082 6.141607977365005411 #
point $-1 110.7699819940794157 0 6.141607977365005411 #
straight-curve $-1 125.0329923810574115 61.11263101573440082 3.070803988682502705 0 0 -1 I I #
straight-curve $-1 110.7699819940794157 61.11263101573440082 12.25367281217311977 0 0 -1 I I #
edge $-1 $691 -132.1644975745464308 $680 7.131505193488990813 $632 $743 forward 7 unknown #
vertex $-1 $690 $744 #
straight-curve $-1 -14.26301038697799584 61.11263101573440082 3.070803988682502705 0 0 -1 I I #
edge $-1 $635 -30.55631550786720041 $737 30.55631550786720041 $676 $745 forward 7 unknown #
point $-1 -14.26301038697799584 61.11263101573440082 6.141607977365005411 #
straight-curve $-1 110.7699819940794157 0 12.25367281217311977 0 0 -1 I I #
point $-1 0 0 6.141607977365005411 #
face $-1 $746 $747 $14 $-1 $748 reversed single #
loop $-1 $-1 $749 $644 #
plane-surface $-1 -14.26301038697799584 30.55631550786720041 3.070803988682502705 1 0 0 0 0 -1 forward_v I I I I #
coedge $-1 $719 $750 $721 $751 reversed $645 $-1 #
coedge $-1 $709 $647 $752 $753 reversed $583 $-1 #
coedge $-1 $707 $754 $647 $703 reversed $728 $-1 #
edge $-1 $710 -3.070803988682502705 $755 3.070803988682502705 $647 $756 forward 7 unknown #
coedge $-1 $649 $648 $757 $758 reversed $499 $-1 #
coedge $-1 $759 $715 $648 $706 reversed $512 $-1 #
edge $-1 $711 -7.131505193488990813 $760 7.131505193489005023 $705 $761 forward 7 unknown #
coedge $-1 $727 $702 $649 $708 reversed $728 $-1 #
edge $-1 $762 -7.131505193489005023 $710 7.131505193488990813 $707 $763 forward 7 unknown #
coedge $-1 $650 $701 $759 $764 reversed $583 $-1 #
vertex $-1 $651 $765 #
vertex $-1 $651 $766 #
straight-curve $-1 125.0329923810574115 30.55631550786720041 6.141607977365005411 0 1 0 I I #
coedge $-1 $767 $768 $652 $714 reversed $724 $-1 #
edge $-1 $729 -30.55631550786720041 $716 30.55631550786720041 $713 $769 forward 7 unknown #
coedge $-1 $705 $653 $768 $770 forward $512 $-1 #
vertex $-1 $714 $771 #
point $-1 77.68541856823162561 61.11263101573439371 16.96509050453077805 #
coedge $-1 $661 $772 $749 $773 reversed $512 $-1 #
coedge $-1 $774 $700 $661 $720 forward $645 $-1 #
edge $-1 $722 -7.131505193488997918 $775 7.131505193488997918 $661 $776 forward 7 unknown #
coedge $-1 $668 $662 $700 $751 forward $669 $-1 #
vertex $-1 $663 $777 #
straight-curve $-1 0 61.11263101573440082 12.25367281217311977 0 0 -1 I I #
loop $-1 $-1 $757 $664 #
plane-surface $-1 110.7699819940794157 30.55631550786720041 12.25367281217311977 -1 0 0 0 0 1 forward_v I I I I #
coedge $-1 $778 $666 $668 $731 forward $728 $-1 #
coedge $-1 $666 $707 $767 $779 reversed $728 $-1 #
loop $-1 $-1 $726 $746 #
vertex $-1 $714 $780 #
straight-curve $-1 55.38499099703970785 0 24.50734562434623953 1 0 0 I I #
edge $-1 $670 -12.25367281217311977 $781 6.112064834808114355 $668 $782 forward 7 unknown #
face $-1 $597 $669 $14 $-1 $783 reversed single #
point $-1 0 0 24.50734562434623953 #
coedge $-1 $679 $674 $675 $736 forward $607 $-1 #
coedge $-1 $676 $675 $682 $740 reversed $547 $-1 #
edge $-1 $741 -30.55631550786720041 $691 30.55631550786720041 $675 $784 forward 7 unknown #
vertex $-1 $693 $785 #
straight-curve $-1 -7.131505193488997918 0 6.141607977365005411 1 0 0 I I #
point $-1 125.0329923810574115 61.11263101573440082 0 #
edge $-1 $737 -3.070803988682502705 $741 3.070803988682502705 $735 $786 forward 7 unknown #
vertex $-1 $736 $787 #
straight-curve $-1 117.9014871875684207 0 0 -1 0 0 I I #
straight-curve $-1 117.9014871875684207 61.11263101573440082 0 1 0 0 I I #
point $-1 -14.26301038697799584 61.11263101573440082 0 #
straight-curve $-1 -14.26301038697799584 30.55631550786720041 6.141607977365005411 0 -1 0 I I #
face $-1 $732 $728 $14 $-1 $788 reversed single #
loop $-1 $-1 $789 $697 #
plane-surface $-1 55.38499099703970785 30.55631550786720041 0 0 0 1 1 0 0 forward_v I I I I #
coedge $-1 $790 $791 $718 $773 forward $698 $-1 #
coedge $-1 $700 $774 $778 $792 forward $645 $-1 #
edge $-1 $722 -30.55631550786720041 $781 30.55631550786720041 $721 $793 forward 7 unknown #
coedge $-1 $789 $794 $701 $753 forward $747 $-1 #
edge $-1 $795 -30.55631550786720041 $755 30.55631550786720041 $701 $796 forward 7 unknown #
coedge $-1 $702 $797 $789 $798 reversed $728 $-1 #
vertex $-1 $703 $799 #
straight-curve $-1 125.0329923810574115 0 3.070803988682502705 0 0 -1 I I #
coedge $-1 $768 $767 $704 $758 forward $724 $-1 #
edge $-1 $762 -30.55631550786720041 $760 30.55631550786720041 $757 $800 forward 7 unknown #
coedge $-1 $772 $705 $709 $764 forward $512 $-1 #
vertex $-1 $706 $801 #
straight-curve $-1 117.9014871875684207 61.11263101573440082 6.141607977365005411 -1 0 0 I I #
vertex $-1 $779 $802 #
straight-curve $-1 117.9014871875684207 0 6.141607977365005411 1 0 0 I I #
edge $-1 $711 -3.070803988682502705 $795 3.070803988682502705 $709 $803 forward 7 unknown #
point $-1 125.0329923810574115 0 6.141607977365005411 #
point $-1 125.0329923810574115 61.11263101573440082 6.141607977365005411 #
coedge $-1 $757 $713 $727 $779 forward $724 $-1 #
coedge $-1 $713 $757 $715 $770 reversed $724 $-1 #
straight-curve $-1 110.7699819940794157 30.55631550786720041 24.50734562434623953 0 1 0 I I #
edge $-1 $716 -12.25367281217311977 $760 6.112064834808114355 $768 $804 forward 7 unknown #
point $-1 110.7699819940794157 61.11263101573440082 24.50734562434623953 #
coedge $-1 $718 $759 $794 $805 reversed $512 $-1 #
edge $-1 $775 -3.070803988682502705 $806 3.070803988682502705 $718 $807 forward 7 unknown #
coedge $-1 $750 $719 $791 $808 forward $645 $-1 #
vertex $-1 $720 $809 #
straight-curve $-1 -7.131505193488997918 61.11263101573440082 6.141607977365005411 -1 0 0 I I #
point $-1 0 61.11263101573440082 6.141607977365005411 #
coedge $-1 $797 $726 $750 $792 reversed $728 $-1 #
edge $-1 $729 -12.25367281217311977 $762 6.112064834808114355 $767 $810 forward 7 unknown #
point $-1 110.7699819940794157 0 24.50734562434623953 #
vertex $-1 $792 $811 #
straight-curve $-1 0 0 12.25367281217311977 0 0 -1 I I #
plane-surface $-1 0 30.55631550786720041 12.25367281217311977 1 0 0 0 0 -1 forward_v I I I I #
straight-curve $-1 -14.26301038697799584 30.55631550786720041 0 0 1 0 I I #
point $-1 -14.26301038697799584 0 6.141607977365005411 #
straight-curve $-1 -14.26301038697799584 0 3.070803988682502705 0 0 -1 I I #
point $-1 -14.26301038697799584 0 0 #
plane-surface $-1 55.38499099703970785 0 12.25367281217311977 0 1 0 0 0 1 forward_v I I I I #
coedge $-1 $812 $752 $754 $798 forward $747 $-1 #
coedge $-1 $813 $749 $812 $814 reversed $698 $-1 #
coedge $-1 $749 $813 $774 $808 reversed $698 $-1 #
edge $-1 $815 -7.131505193488997918 $781 7.131505193488997918 $778 $816 forward 7 unknown #
straight-curve $-1 0 30.55631550786720041 6.141607977365005411 0 -1 0 I I #
coedge $-1 $752 $812 $772 $805 forward $747 $-1 #
vertex $-1 $753 $817 #
straight-curve $-1 125.0329923810574115 30.55631550786720041 0 0 -1 0 I I #
coedge $-1 $754 $778 $813 $818 forward $728 $-1 #
edge $-1 $755 -7.131505193488990813 $819 132.1644975745464308 $754 $820 forward 7 unknown #
point $-1 125.0329923810574115 0 0 #
straight-curve $-1 110.7699819940794157 30.55631550786720041 6.141607977365005411 0 1 0 I I #
point $-1 110.7699819940794157 61.11263101573440082 6.141607977365005411 #
point $-1 110.7699819940794157 0 6.141607977365005411 #
straight-curve $-1 125.0329923810574115 61.11263101573440082 3.070803988682502705 0 0 -1 I I #
straight-curve $-1 110.7699819940794157 61.11263101573440082 12.25367281217311977 0 0 -1 I I #
edge $-1 $806 -132.1644975745464308 $795 7.131505193488990813 $772 $821 forward 7 unknown #
vertex $-1 $805 $822 #
straight-curve $-1 -14.26301038697799584 61.11263101573440082 3.070803988682502705 0 0 -1 I I #
edge $-1 $775 -30.55631550786720041 $815 30.55631550786720041 $791 $823 forward 7 unknown #
point $-1 -14.26301038697799584 61.11263101573440082 6.141607977365005411 #
straight-curve $-1 110.7699819940794157 0 12.25367281217311977 0 0 -1 I I #
point $-1 0 0 6.141607977365005411 #
coedge $-1 $794 $789 $790 $814 forward $747 $-1 #
coedge $-1 $791 $790 $797 $818 reversed $698 $-1 #
edge $-1 $819 -30.55631550786720041 $806 30.55631550786720041 $790 $824 forward 7 unknown #
vertex $-1 $808 $825 #
straight-curve $-1 -7.131505193488997918 0 6.141607977365005411 1 0 0 I I #
point $-1 125.0329923810574115 61.11263101573440082 0 #
edge $-1 $815 -3.070803988682502705 $819 3.070803988682502705 $813 $826 forward 7 unknown #
vertex $-1 $814 $827 #
straight-curve $-1 117.9014871875684207 0 0 -1 0 0 I I #
straight-curve $-1 117.9014871875684207 61.11263101573440082 0 1 0 0 I I #
point $-1 -14.26301038697799584 61.11263101573440082 0 #
straight-curve $-1 -14.26301038697799584 30.55631550786720041 6.141607977365005411 0 -1 0 I I #
straight-curve $-1 -14.26301038697799584 30.55631550786720041 0 0 1 0 I I #
point $-1 -14.26301038697799584 0 6.141607977365005411 #
straight-curve $-1 -14.26301038697799584 0 3.070803988682502705 0 0 -1 I I #
point $-1 -14.26301038697799584 0 0 #
End-of-ACIS-data 