500 0 10 0           
7 Unknown 11 ACIS 5.0 NT 24 Thu Mar 25 21:02:55 1999 
-1 9.9999999999999995e-007 1e-010 
body $-1 $10 $-1 $11 #
body $-1 $12 $-1 $13 #
body $-1 $14 $-1 $15 #
body $-1 $16 $-1 $17 #
body $-1 $18 $-1 $19 #
body $-1 $20 $-1 $21 #
body $-1 $22 $-1 $23 #
body $-1 $24 $-1 $25 #
body $-1 $26 $-1 $27 #
body $-1 $28 $-1 $29 #
lump $-1 $-1 $30 $0 #
transform $-1 1 0 0 0 1 0 0 0 1 54.510940885647145 24.722983327426356 6.0677581688638806 1 rotate no_reflect no_shear #
lump $-1 $-1 $31 $1 #
transform $-1 1 0 0 0 1 0 0 0 1 54.510940885647145 24.722983327426356 6.0677581688638806 1 rotate no_reflect no_shear #
lump $-1 $-1 $32 $2 #
transform $-1 1 0 0 0 1 0 0 0 1 54.510940885647145 24.722983327426356 6.0677581688638806 1 rotate no_reflect no_shear #
lump $-1 $-1 $33 $3 #
transform $-1 1 0 0 0 1 0 0 0 1 54.510940885647145 24.722983327426356 6.0677581688638806 1 rotate no_reflect no_shear #
lump $-1 $-1 $34 $4 #
transform $-1 1 0 0 0 1 0 0 0 1 54.510940885647145 24.722983327426356 6.0677581688638806 1 rotate no_reflect no_shear #
lump $-1 $-1 $35 $5 #
transform $-1 1 0 0 0 1 0 0 0 1 54.510940885647145 24.722983327426356 6.0677581688638806 1 rotate no_reflect no_shear #
lump $-1 $-1 $36 $6 #
transform $-1 1 0 0 0 1 0 0 0 1 54.510940885647145 24.722983327426356 6.0677581688638806 1 rotate no_reflect no_shear #
lump $-1 $-1 $37 $7 #
transform $-1 1 0 0 0 1 0 0 0 1 54.510940885647145 24.722983327426356 6.0677581688638806 1 rotate no_reflect no_shear #
lump $-1 $-1 $38 $8 #
transform $-1 1 0 0 0 1 0 0 0 1 54.510940885647145 24.722983327426356 6.0677581688638806 1 rotate no_reflect no_shear #
lump $-1 $-1 $39 $9 #
transform $-1 1 0 0 0 1 0 0 0 1 54.510940885647145 24.722983327426356 6.0677581688638806 1 rotate no_reflect no_shear #
shell $-1 $-1 $-1 $40 $-1 $10 #
shell $-1 $-1 $-1 $41 $-1 $12 #
shell $-1 $-1 $-1 $42 $-1 $14 #
shell $-1 $-1 $-1 $43 $-1 $16 #
shell $-1 $-1 $-1 $44 $-1 $18 #
shell $-1 $-1 $-1 $45 $-1 $20 #
shell $-1 $-1 $-1 $46 $-1 $22 #
shell $-1 $-1 $-1 $47 $-1 $24 #
shell $-1 $-1 $-1 $48 $-1 $26 #
shell $-1 $-1 $-1 $49 $-1 $28 #
face $-1 $50 $51 $30 $-1 $52 forward single #
face $-1 $53 $54 $31 $-1 $55 reversed single #
face $-1 $56 $57 $32 $-1 $58 reversed single #
face $-1 $59 $60 $33 $-1 $61 reversed single #
face $-1 $62 $63 $34 $-1 $64 forward single #
face $-1 $65 $66 $35 $-1 $67 reversed single #
face $-1 $68 $69 $36 $-1 $70 forward single #
face $-1 $71 $72 $37 $-1 $73 reversed single #
face $-1 $74 $75 $38 $-1 $76 forward single #
face $-1 $77 $78 $39 $-1 $79 forward single #
face $-1 $80 $81 $30 $-1 $82 reversed single #
loop $-1 $-1 $83 $40 #
plane-surface $-1 0 0 6.0677581688638806 0 0 1 1 0 0 forward_v I I I I #
face $-1 $84 $85 $31 $-1 $86 reversed single #
loop $-1 $-1 $87 $41 #
plane-surface $-1 -51.591639415565098 -24.003115680586149 0 0 1 0 0 0 1 forward_v I I I I #
face $-1 $88 $89 $32 $-1 $90 reversed single #
loop $-1 $-1 $91 $42 #
plane-surface $-1 51.591639415565098 -24.003115680586149 0 0 1 0 0 0 1 forward_v I I I I #
face $-1 $92 $93 $33 $-1 $94 reversed single #
loop $-1 $-1 $95 $43 #
plane-surface $-1 -16.120639028515221 -99.075728790373233 80.441629791807557 -1 0 0 0 -0.68199836817093118 0.7313536940579346 forward_v I I I I #
face $-1 $96 $97 $34 $-1 $98 forward single #
loop $-1 $99 $100 $44 #
cone-surface $-1 -21.725377501243777 -20.589265223619709 2.0367965722278543 0 0.68199836817093118 -0.7313536940579346 1 0 0 1 I I 0 1 1 forward I I I I #
face $-1 $101 $102 $35 $-1 $103 reversed single #
loop $-1 $-1 $104 $45 #
plane-surface $-1 32.551698916967837 -99.075728790373233 80.441629791807557 -1 0 0 0 -0.68199836817093118 0.7313536940579346 forward_v I I I I #
face $-1 $105 $106 $36 $-1 $107 forward single #
loop $-1 $108 $109 $46 #
cone-surface $-1 26.946960444239281 -20.589265223619709 2.0367965722278543 0 0.68199836817093118 -0.7313536940579346 1 0 0 1 I I 0 1 1 forward I I I I #
face $-1 $110 $111 $37 $-1 $112 reversed single #
loop $-1 $-1 $113 $47 #
plane-surface $-1 28.917907502141311 74.563370458156385 110.69765630001802 1 0 0 0 -0.75470958851134928 -0.65605901945558964 forward_v I I I I #
face $-1 $114 $115 $38 $-1 $116 forward single #
loop $-1 $117 $118 $48 #
cone-surface $-1 34.562030485953244 21.879799085115032 3.0816057442639528 0 -0.75470958851134928 -0.65605901945558964 1 0 0 1 I I 0 1 1 forward I I I I #
face $-1 $119 $120 $39 $-1 $121 forward single #
loop $-1 $122 $123 $49 #
cone-surface $-1 43.028214961671139 21.879799085115032 3.0816057442639528 0 -0.75470958851134928 -0.65605901945558964 1 0 0 1 I I 0 1 1 forward I I I I #
face $-1 $124 $125 $30 $-1 $126 reversed single #
loop $-1 $-1 $127 $50 #
plane-surface $-1 0 0 -6.0677581688638806 0 0 1 1 0 0 forward_v I I I I #
coedge $-1 $128 $129 $130 $131 forward $51 $-1 #
face $-1 $132 $133 $31 $-1 $134 reversed single #
loop $-1 $-1 $135 $53 #
plane-surface $-1 -51.591639415565098 -21.003115680586149 0 0 -1 0 0 0 -1 forward_v I I I I #
coedge $-1 $136 $137 $138 $139 reversed $54 $-1 #
face $-1 $140 $141 $32 $-1 $142 reversed single #
loop $-1 $-1 $143 $56 #
plane-surface $-1 48.672337945483051 -22.503115680586149 0 1 0 0 0 0 -1 forward_v I I I I #
coedge $-1 $144 $145 $146 $147 forward $57 $-1 #
face $-1 $148 $149 $33 $-1 $150 reversed single #
loop $-1 $-1 $151 $59 #
plane-surface $-1 -21.725377501243777 -24.722983327426334 0.70807382522407636 0 -0.68199836817093118 0.7313536940579346 1 0 0 forward_v I I I I #
coedge $-1 $152 $153 $154 $155 reversed $60 $-1 #
face $-1 $-1 $156 $34 $-1 $157 forward single #
loop $-1 $158 $159 $62 #
cone-surface $-1 -21.725377501243777 -18.988326764713747 0.32000030038275984 0 0.68199836817093118 -0.7313536940579346 0.5 0 0 1 I I -0.70710678118654746 0.70710678118654746 0.5 forward I I I I #
loop $-1 $-1 $160 $44 #
coedge $-1 $100 $100 $161 $162 reversed $63 $-1 #
face $-1 $163 $164 $35 $-1 $165 reversed single #
loop $-1 $-1 $166 $65 #
plane-surface $-1 26.946960444239281 -24.722983327426334 0.70807382522407636 0 -0.68199836817093118 0.7313536940579346 1 0 0 forward_v I I I I #
coedge $-1 $167 $168 $169 $170 reversed $66 $-1 #
face $-1 $-1 $171 $36 $-1 $172 forward single #
loop $-1 $173 $174 $68 #
cone-surface $-1 26.946960444239281 -18.988326764713747 0.32000030038275984 0 0.68199836817093118 -0.7313536940579346 0.5 0 0 1 I I -0.70710678118654746 0.70710678118654746 0.5 forward I I I I #
loop $-1 $-1 $175 $46 #
coedge $-1 $109 $109 $176 $177 reversed $69 $-1 #
face $-1 $178 $179 $37 $-1 $180 reversed single #
loop $-1 $-1 $181 $71 #
plane-surface $-1 38.795122723812185 -7.7164890721901003 39.172867445939474 0 0.75470958851134928 0.65605901945558964 1 0 0 forward_v I I I I #
coedge $-1 $182 $183 $184 $185 reversed $72 $-1 #
face $-1 $-1 $186 $38 $-1 $187 forward single #
loop $-1 $188 $189 $74 #
cone-surface $-1 34.562030485953244 20.490080391245918 1.8735417452133252 0 -0.75470958851134928 -0.65605901945558964 0.5 0 0 1 I I -0.70710678118654746 0.70710678118654746 0.5 forward I I I I #
loop $-1 $-1 $190 $48 #
coedge $-1 $118 $118 $191 $192 reversed $75 $-1 #
face $-1 $-1 $193 $39 $-1 $194 forward single #
loop $-1 $195 $196 $77 #
cone-surface $-1 43.028214961671139 20.490080391245918 1.8735417452133252 0 -0.75470958851134928 -0.65605901945558964 0.5 0 0 1 I I -0.70710678118654746 0.70710678118654746 0.5 forward I I I I #
loop $-1 $-1 $197 $49 #
coedge $-1 $123 $123 $198 $199 reversed $78 $-1 #
face $-1 $200 $201 $30 $-1 $202 reversed single #
loop $-1 $-1 $203 $80 #
plane-surface $-1 0 -24.722983327426356 0 0 1 0 0 0 1 forward_v I I I I #
coedge $-1 $204 $205 $206 $207 forward $81 $-1 #
coedge $-1 $208 $83 $209 $210 forward $51 $-1 #
coedge $-1 $83 $208 $211 $212 forward $51 $-1 #
coedge $-1 $213 $214 $83 $131 reversed $215 $-1 #
edge $-1 $216 -24.722983327426356 $217 24.722983327426356 $130 $218 forward 7 unknown #
face $-1 $219 $220 $31 $-1 $221 reversed single #
loop $-1 $-1 $222 $84 #
plane-surface $-1 -48.672337945483051 -22.503115680586149 0 -1 0 0 0 0 1 forward_v I I I I #
coedge $-1 $223 $224 $225 $226 forward $85 $-1 #
coedge $-1 $227 $87 $228 $229 reversed $54 $-1 #
coedge $-1 $87 $227 $230 $231 reversed $54 $-1 #
coedge $-1 $232 $233 $87 $139 forward $234 $-1 #
edge $-1 $235 -6.0677581688638806 $236 6.0677581688638806 $138 $237 forward 7 unknown #
face $-1 $238 $239 $32 $-1 $240 reversed single #
loop $-1 $-1 $241 $88 #
plane-surface $-1 51.591639415565098 -21.003115680586149 0 0 -1 0 0 0 -1 forward_v I I I I #
coedge $-1 $242 $243 $244 $245 forward $89 $-1 #
coedge $-1 $246 $91 $247 $248 reversed $57 $-1 #
coedge $-1 $91 $246 $249 $250 reversed $57 $-1 #
coedge $-1 $243 $242 $91 $147 reversed $89 $-1 #
edge $-1 $251 -6.0677581688638806 $252 6.0677581688638806 $146 $253 forward 7 unknown #
face $-1 $254 $255 $33 $-1 $256 forward single #
loop $-1 $-1 $257 $92 #
plane-surface $-1 -27.330115973972333 -99.075728790373233 80.441629791807557 1 0 0 0 0.68199836817093118 -0.7313536940579346 forward_v I I I I #
coedge $-1 $258 $259 $260 $261 reversed $93 $-1 #
coedge $-1 $153 $95 $262 $263 reversed $60 $-1 #
coedge $-1 $95 $152 $258 $264 reversed $60 $-1 #
coedge $-1 $260 $265 $95 $155 forward $255 $-1 #
edge $-1 $266 24.814881067760261 $267 30.562438725732584 $154 $268 forward 7 unknown #
loop $-1 $-1 $161 $96 #
plane-surface $-1 -21.725377501243777 -24.722983327426334 0.70807382522407636 0 -0.68199836817093118 0.7313536940579346 1 0 0 forward_v I I I I #
loop $-1 $-1 $269 $62 #
coedge $-1 $159 $159 $160 $270 reversed $97 $-1 #
coedge $-1 $160 $160 $159 $270 forward $99 $-1 #
coedge $-1 $161 $161 $100 $162 forward $156 $-1 #
edge $-1 $271 -1.9128538313618978e-015 $271 6.2831853071795987 $161 $272 forward 7 unknown #
face $-1 $273 $274 $35 $-1 $275 reversed single #
loop $-1 $-1 $276 $101 #
plane-surface $-1 21.342221971510725 -99.075728790373233 80.441629791807557 1 0 0 0 0.68199836817093118 -0.7313536940579346 forward_v I I I I #
coedge $-1 $277 $278 $279 $280 reversed $102 $-1 #
coedge $-1 $168 $104 $281 $282 reversed $66 $-1 #
coedge $-1 $104 $167 $277 $283 reversed $66 $-1 #
coedge $-1 $279 $284 $104 $170 forward $285 $-1 #
edge $-1 $286 24.814881067760261 $287 30.562438725732584 $169 $288 forward 7 unknown #
loop $-1 $-1 $176 $105 #
plane-surface $-1 26.946960444239281 -24.722983327426334 0.70807382522407636 0 -0.68199836817093118 0.7313536940579346 1 0 0 forward_v I I I I #
loop $-1 $-1 $289 $68 #
coedge $-1 $174 $174 $175 $290 reversed $106 $-1 #
coedge $-1 $175 $175 $174 $290 forward $108 $-1 #
coedge $-1 $176 $176 $109 $177 forward $171 $-1 #
edge $-1 $291 -1.9128538313618978e-015 $291 6.2831853071795987 $176 $292 forward 7 unknown #
face $-1 $293 $294 $37 $-1 $295 reversed single #
loop $-1 $-1 $296 $110 #
plane-surface $-1 48.672337945483058 74.563370458156385 110.69765630001802 -1 0 0 0 0.75470958851134928 0.65605901945558964 forward_v I I I I #
coedge $-1 $297 $298 $299 $300 reversed $111 $-1 #
coedge $-1 $183 $113 $301 $302 reversed $72 $-1 #
coedge $-1 $113 $182 $297 $303 reversed $72 $-1 #
coedge $-1 $299 $304 $113 $185 forward $305 $-1 #
edge $-1 $306 12.558701901651837 $307 16.2203425870476 $184 $308 forward 7 unknown #
loop $-1 $-1 $191 $114 #
plane-surface $-1 38.795122723812185 -7.7164890721901003 39.172867445939474 0 0.75470958851134928 0.65605901945558964 1 0 0 forward_v I I I I #
loop $-1 $-1 $309 $74 #
coedge $-1 $189 $189 $190 $310 reversed $115 $-1 #
coedge $-1 $190 $190 $189 $310 forward $117 $-1 #
coedge $-1 $191 $191 $118 $192 forward $186 $-1 #
edge $-1 $311 9.901563132072335e-016 $311 6.2831853071796013 $191 $312 forward 7 unknown #
loop $-1 $-1 $198 $119 #
plane-surface $-1 38.795122723812185 -7.7164890721901003 39.172867445939474 0 0.75470958851134928 0.65605901945558964 1 0 0 forward_v I I I I #
loop $-1 $-1 $313 $77 #
coedge $-1 $196 $196 $197 $314 reversed $120 $-1 #
coedge $-1 $197 $197 $196 $314 forward $122 $-1 #
coedge $-1 $198 $198 $123 $199 forward $193 $-1 #
edge $-1 $315 9.901563132072335e-016 $315 6.2831853071796013 $198 $316 forward 7 unknown #
face $-1 $317 $318 $30 $-1 $319 reversed single #
loop $-1 $-1 $320 $124 #
plane-surface $-1 -54.510940885647145 0 0 1 0 0 0 0 -1 forward_v I I I I #
coedge $-1 $321 $211 $322 $323 forward $125 $-1 #
coedge $-1 $324 $127 $321 $325 forward $81 $-1 #
coedge $-1 $127 $324 $326 $327 forward $81 $-1 #
coedge $-1 $214 $213 $127 $207 reversed $215 $-1 #
edge $-1 $328 -24.722983327426356 $329 24.722983327426356 $206 $330 forward 7 unknown #
coedge $-1 $129 $128 $331 $332 forward $51 $-1 #
coedge $-1 $333 $334 $128 $210 reversed $318 $-1 #
edge $-1 $217 -54.510940885647145 $335 54.510940885647145 $209 $336 forward 7 unknown #
coedge $-1 $203 $337 $129 $212 reversed $125 $-1 #
edge $-1 $338 -54.510940885647145 $216 54.510940885647145 $211 $339 forward 7 unknown #
coedge $-1 $206 $130 $337 $340 forward $215 $-1 #
coedge $-1 $130 $206 $333 $341 reversed $215 $-1 #
loop $-1 $-1 $213 $317 #
vertex $-1 $131 $342 #
vertex $-1 $131 $343 #
straight-curve $-1 54.510940885647145 0 6.0677581688638806 0 1 0 I I #
face $-1 $344 $345 $31 $-1 $346 forward single #
loop $-1 $-1 $347 $132 #
plane-surface $-1 0 0 -6.0677581688638806 0 0 1 1 0 0 forward_v I I I I #
coedge $-1 $348 $349 $227 $350 forward $133 $-1 #
coedge $-1 $351 $135 $347 $352 reversed $85 $-1 #
coedge $-1 $135 $351 $353 $354 reversed $85 $-1 #
coedge $-1 $349 $348 $135 $226 reversed $133 $-1 #
edge $-1 $355 -6.0677581688638806 $356 6.0677581688638806 $225 $357 forward 7 unknown #
coedge $-1 $137 $136 $222 $350 reversed $54 $-1 #
coedge $-1 $358 $359 $136 $229 forward $220 $-1 #
edge $-1 $360 22.876518237700502 $235 28.715121177864596 $228 $361 forward 7 unknown #
coedge $-1 $362 $363 $137 $231 forward $345 $-1 #
edge $-1 $236 -28.715121177864596 $364 -22.876518237700502 $230 $365 forward 7 unknown #
coedge $-1 $366 $138 $363 $367 reversed $234 $-1 #
coedge $-1 $138 $366 $358 $368 reversed $234 $-1 #
loop $-1 $-1 $366 $344 #
vertex $-1 $368 $369 #
vertex $-1 $139 $370 #
straight-curve $-1 -54.510940885647145 -24.003115680586149 0 0 0 1 I I #
face $-1 $371 $372 $32 $-1 $373 forward single #
loop $-1 $-1 $247 $140 #
plane-surface $-1 0 0 -6.0677581688638806 0 0 1 1 0 0 forward_v I I I I #
coedge $-1 $374 $375 $376 $377 reversed $141 $-1 #
coedge $-1 $146 $143 $378 $379 reversed $89 $-1 #
coedge $-1 $143 $146 $380 $381 reversed $89 $-1 #
coedge $-1 $375 $374 $143 $245 reversed $141 $-1 #
edge $-1 $382 -6.0677581688638806 $383 6.0677581688638806 $244 $384 forward 7 unknown #
coedge $-1 $145 $144 $385 $386 reversed $57 $-1 #
coedge $-1 $378 $387 $144 $248 forward $239 $-1 #
edge $-1 $388 -28.715121177864596 $252 -22.876518237700502 $247 $389 forward 7 unknown #
coedge $-1 $390 $380 $145 $250 forward $372 $-1 #
edge $-1 $251 22.876518237700502 $391 28.715121177864596 $249 $392 forward 7 unknown #
vertex $-1 $250 $393 #
vertex $-1 $248 $394 #
straight-curve $-1 48.672337945483051 -24.003115680586149 0 0 0 -1 I I #
face $-1 $-1 $395 $33 $-1 $396 reversed single #
loop $-1 $-1 $154 $148 #
plane-surface $-1 0 0 6.0677581688638806 0 0 1 1 0 0 forward_v I I I I #
coedge $-1 $397 $398 $399 $400 reversed $149 $-1 #
coedge $-1 $401 $151 $153 $264 forward $93 $-1 #
coedge $-1 $151 $401 $397 $402 forward $93 $-1 #
coedge $-1 $399 $154 $151 $261 forward $255 $-1 #
edge $-1 $267 5.2579502778933325 $403 16.467427223350445 $260 $404 forward 7 unknown #
coedge $-1 $405 $406 $152 $263 forward $395 $-1 #
edge $-1 $407 -39.512741070679724 $266 -34.153056727039896 $262 $408 forward 7 unknown #
edge $-1 $267 -7.8587935012426486 $407 2.9143089848218134e-014 $153 $409 forward 7 unknown #
coedge $-1 $154 $399 $405 $410 forward $255 $-1 #
vertex $-1 $155 $411 #
vertex $-1 $155 $412 #
straight-curve $-1 -16.120639028515221 -49.537864395186617 6.0677581688638824 0 1 0 I I #
coedge $-1 $269 $269 $-1 $413 reversed $158 $-1 #
edge $-1 $414 0 $414 6.2831853071796004 $159 $415 forward 7 unknown #
vertex $-1 $162 $416 #
ellipse-curve $-1 -21.725377501243777 -21.849204498440194 3.3879159970439692 0 -0.68199836817093118 0.7313536940579346 1 0 0 1 I I #
face $-1 $-1 $285 $35 $-1 $417 forward single #
loop $-1 $-1 $418 $163 #
plane-surface $-1 0 -24.722983327426356 0 0 1 0 0 0 1 forward_v I I I I #
coedge $-1 $419 $420 $421 $422 reversed $164 $-1 #
coedge $-1 $423 $166 $168 $283 forward $102 $-1 #
coedge $-1 $166 $423 $419 $424 forward $102 $-1 #
coedge $-1 $421 $169 $166 $280 forward $285 $-1 #
edge $-1 $287 -19.078218694848196 $425 -7.8687417493910843 $279 $426 forward 7 unknown #
coedge $-1 $427 $428 $167 $282 forward $274 $-1 #
edge $-1 $429 -39.512741070679724 $286 -34.153056727039896 $281 $430 forward 7 unknown #
edge $-1 $287 -7.8587935012426486 $429 2.9143089848218134e-014 $168 $431 forward 7 unknown #
coedge $-1 $169 $421 $427 $432 forward $285 $-1 #
loop $-1 $-1 $421 $273 #
vertex $-1 $282 $433 #
vertex $-1 $170 $434 #
straight-curve $-1 32.551698916967837 -49.537864395186617 6.0677581688638824 0 1 0 I I #
coedge $-1 $289 $289 $-1 $435 reversed $173 $-1 #
edge $-1 $436 0 $436 6.2831853071796004 $174 $437 forward 7 unknown #
vertex $-1 $177 $438 #
ellipse-curve $-1 26.946960444239281 -21.849204498440194 3.3879159970439692 0 -0.68199836817093118 0.7313536940579346 1 0 0 1 I I #
face $-1 $-1 $305 $37 $-1 $439 forward single #
loop $-1 $-1 $440 $178 #
plane-surface $-1 0 24.722983327426356 0 0 -1 0 0 0 -1 forward_v I I I I #
coedge $-1 $441 $442 $443 $444 reversed $179 $-1 #
coedge $-1 $445 $181 $183 $303 forward $111 $-1 #
coedge $-1 $181 $445 $441 $446 forward $111 $-1 #
coedge $-1 $443 $184 $181 $300 forward $305 $-1 #
edge $-1 $307 9.520346140235219 $447 29.274776583576966 $299 $448 forward 7 unknown #
coedge $-1 $449 $450 $182 $302 forward $294 $-1 #
edge $-1 $451 -53.493305851699333 $306 -49.28106998114513 $301 $452 forward 7 unknown #
edge $-1 $307 43.864699456614581 $451 49.445966654852732 $183 $453 forward 7 unknown #
coedge $-1 $184 $443 $449 $454 forward $305 $-1 #
loop $-1 $-1 $443 $293 #
vertex $-1 $302 $455 #
vertex $-1 $185 $456 #
straight-curve $-1 28.917907502141311 37.281685229078192 6.0677581688638824 0 -1 0 I I #
coedge $-1 $309 $309 $-1 $457 reversed $188 $-1 #
edge $-1 $458 0 $458 6.2831853071796004 $189 $459 forward 7 unknown #
vertex $-1 $192 $460 #
ellipse-curve $-1 34.562030485953244 22.892162984728468 3.9616402335867837 0 0.75470958851134928 0.65605901945558964 1 0 0 1 I I #
coedge $-1 $313 $313 $-1 $461 reversed $195 $-1 #
edge $-1 $462 0 $462 6.2831853071796004 $196 $463 forward 7 unknown #
vertex $-1 $199 $464 #
ellipse-curve $-1 43.028214961671139 22.892162984728468 3.9616402335867837 0 0.75470958851134928 0.65605901945558964 1 0 0 1 I I #
face $-1 $-1 $215 $30 $-1 $465 reversed single #
loop $-1 $-1 $333 $200 #
plane-surface $-1 0 24.722983327426356 0 0 -1 0 0 0 -1 forward_v I I I I #
coedge $-1 $466 $331 $334 $467 forward $201 $-1 #
coedge $-1 $337 $203 $204 $325 reversed $125 $-1 #
coedge $-1 $331 $466 $203 $323 reversed $201 $-1 #
edge $-1 $338 -6.0677581688638806 $468 6.0677581688638806 $322 $469 forward 7 unknown #
coedge $-1 $205 $204 $466 $470 forward $81 $-1 #
edge $-1 $329 -54.510940885647145 $468 54.510940885647145 $321 $471 forward 7 unknown #
coedge $-1 $334 $333 $205 $327 reversed $318 $-1 #
edge $-1 $472 -54.510940885647145 $328 54.510940885647145 $326 $473 forward 7 unknown #
vertex $-1 $207 $474 #
vertex $-1 $340 $475 #
straight-curve $-1 54.510940885647145 0 -6.0677581688638806 0 -1 0 I I #
coedge $-1 $320 $322 $208 $332 reversed $201 $-1 #
edge $-1 $335 -24.722983327426356 $338 24.722983327426356 $331 $476 forward 7 unknown #
coedge $-1 $326 $209 $214 $341 forward $318 $-1 #
coedge $-1 $209 $326 $320 $467 reversed $318 $-1 #
vertex $-1 $210 $477 #
straight-curve $-1 0 24.722983327426356 6.0677581688638806 -1 0 0 I I #
coedge $-1 $211 $321 $213 $340 reversed $125 $-1 #
vertex $-1 $332 $478 #
straight-curve $-1 0 -24.722983327426356 6.0677581688638806 1 0 0 I I #
edge $-1 $216 -6.0677581688638806 $329 6.0677581688638806 $213 $479 forward 7 unknown #
edge $-1 $217 -6.0677581688638806 $328 6.0677581688638806 $214 $480 forward 7 unknown #
point $-1 54.510940885647145 -24.722983327426356 6.0677581688638806 #
point $-1 54.510940885647145 24.722983327426356 6.0677581688638806 #
face $-1 $-1 $234 $31 $-1 $481 reversed single #
loop $-1 $-1 $353 $219 #
plane-surface $-1 0 0 6.0677581688638806 0 0 1 1 0 0 forward_v I I I I #
coedge $-1 $359 $358 $223 $352 forward $220 $-1 #
coedge $-1 $225 $222 $359 $482 reversed $133 $-1 #
coedge $-1 $222 $225 $362 $483 reversed $133 $-1 #
edge $-1 $364 -6.0677581688638806 $360 6.0677581688638806 $222 $484 forward 7 unknown #
coedge $-1 $224 $223 $366 $485 reversed $85 $-1 #
edge $-1 $486 -28.715121177864596 $356 -22.876518237700502 $347 $487 forward 7 unknown #
coedge $-1 $363 $362 $224 $354 forward $345 $-1 #
edge $-1 $355 22.876518237700502 $488 28.715121177864596 $353 $489 forward 7 unknown #
vertex $-1 $354 $490 #
vertex $-1 $352 $491 #
straight-curve $-1 -48.672337945483051 -21.003115680586149 0 0 0 -1 I I #
coedge $-1 $347 $228 $233 $368 forward $220 $-1 #
coedge $-1 $228 $347 $348 $482 forward $220 $-1 #
vertex $-1 $229 $492 #
straight-curve $-1 -25.795819707782549 -24.003115680586149 -6.0677581688638806 -1 0 0 I I #
coedge $-1 $353 $230 $349 $483 forward $345 $-1 #
coedge $-1 $230 $353 $232 $367 forward $345 $-1 #
vertex $-1 $231 $493 #
straight-curve $-1 -25.795819707782549 -24.003115680586149 6.0677581688638806 1 0 0 I I #
coedge $-1 $233 $232 $351 $485 forward $234 $-1 #
edge $-1 $488 21.003115680586149 $236 24.003115680586149 $232 $494 forward 7 unknown #
edge $-1 $235 -24.003115680586149 $486 -21.003115680586149 $233 $495 forward 7 unknown #
point $-1 -54.510940885647145 -24.003115680586149 -6.0677581688638806 #
point $-1 -54.510940885647145 -24.003115680586149 6.0677581688638806 #
face $-1 $-1 $496 $32 $-1 $497 reversed single #
loop $-1 $-1 $249 $238 #
plane-surface $-1 0 0 6.0677581688638806 0 0 1 1 0 0 forward_v I I I I #
coedge $-1 $244 $241 $498 $499 reversed $141 $-1 #
coedge $-1 $241 $244 $500 $501 reversed $141 $-1 #
coedge $-1 $502 $503 $241 $377 forward $496 $-1 #
edge $-1 $504 -6.0677581688638806 $505 6.0677581688638806 $376 $506 forward 7 unknown #
coedge $-1 $498 $247 $242 $379 forward $239 $-1 #
edge $-1 $252 -12.751557840293074 $383 -9.7515578402930743 $378 $507 forward 7 unknown #
coedge $-1 $249 $500 $243 $381 forward $372 $-1 #
edge $-1 $382 9.7515578402930743 $251 12.751557840293074 $380 $508 forward 7 unknown #
vertex $-1 $381 $509 #
vertex $-1 $379 $510 #
straight-curve $-1 48.672337945483051 -21.003115680586149 0 0 0 -1 I I #
coedge $-1 $503 $502 $246 $386 forward $496 $-1 #
edge $-1 $391 -6.0677581688638806 $388 6.0677581688638806 $385 $511 forward 7 unknown #
coedge $-1 $247 $498 $503 $512 forward $239 $-1 #
vertex $-1 $386 $513 #
straight-curve $-1 25.795819707782549 -24.003115680586149 -6.0677581688638806 -1 0 0 I I #
coedge $-1 $500 $249 $502 $514 forward $372 $-1 #
vertex $-1 $514 $515 #
straight-curve $-1 25.795819707782549 -24.003115680586149 6.0677581688638806 1 0 0 I I #
point $-1 48.672337945483051 -24.003115680586149 6.0677581688638806 #
point $-1 48.672337945483051 -24.003115680586149 -6.0677581688638806 #
loop $-1 $-1 $262 $254 #
plane-surface $-1 0 -24.722983327426356 0 0 1 0 0 0 1 forward_v I I I I #
coedge $-1 $398 $257 $259 $402 reversed $149 $-1 #
coedge $-1 $257 $397 $516 $517 reversed $149 $-1 #
coedge $-1 $265 $260 $257 $400 forward $255 $-1 #
edge $-1 $403 -30.562438725732584 $518 -24.814881067760261 $399 $519 forward 7 unknown #
coedge $-1 $259 $258 $406 $520 reversed $93 $-1 #
edge $-1 $521 -2.9143089848218134e-014 $403 7.8587935012426486 $397 $522 forward 7 unknown #
vertex $-1 $261 $523 #
straight-curve $-1 -10.862688750621889 -18.975425669454033 6.0677581688638806 -1 0 0 I I #
coedge $-1 $516 $262 $265 $410 reversed $395 $-1 #
coedge $-1 $262 $516 $401 $520 forward $395 $-1 #
vertex $-1 $263 $524 #
straight-curve $-1 -16.120639028515221 -24.722983327426356 40.220814895903779 0 0 1 I I #
straight-curve $-1 -16.120639028515221 -24.722983327426334 0.70807382522407636 0 -0.7313536940579346 -0.68199836817093118 I I #
edge $-1 $518 -27.330115973972333 $266 -16.120639028515221 $405 $525 forward 7 unknown #
point $-1 -16.120639028515221 -24.722983327426356 6.0677581688638806 #
point $-1 -16.120639028515221 -18.975425669454033 6.0677581688638806 #
edge $-1 $526 1 $526 0 $269 $-1 forward 7 unknown #
vertex $-1 $270 $527 #
ellipse-curve $-1 -21.725377501243777 -19.329325948799212 0.68567714741172714 0 -0.68199836817093118 0.7313536940579346 1 0 0 1 I I #
point $-1 -20.725377501243777 -21.849204498440209 3.3879159970439816 #
plane-surface $-1 0 0 6.0677581688638806 0 0 1 1 0 0 forward_v I I I I #
coedge $-1 $428 $427 $420 $528 forward $274 $-1 #
coedge $-1 $420 $276 $278 $424 reversed $164 $-1 #
coedge $-1 $276 $419 $418 $528 reversed $164 $-1 #
coedge $-1 $284 $279 $276 $422 forward $285 $-1 #
edge $-1 $425 -30.562438725732584 $529 -24.814881067760261 $421 $530 forward 7 unknown #
coedge $-1 $278 $277 $428 $531 reversed $102 $-1 #
edge $-1 $532 -2.9143089848218134e-014 $425 7.8587935012426486 $419 $533 forward 7 unknown #
vertex $-1 $280 $534 #
straight-curve $-1 13.47348022211964 -18.975425669454033 6.0677581688638806 -1 0 0 I I #
coedge $-1 $418 $281 $284 $432 reversed $274 $-1 #
coedge $-1 $281 $418 $423 $531 forward $274 $-1 #
vertex $-1 $282 $535 #
straight-curve $-1 32.551698916967837 -24.722983327426356 40.220814895903779 0 0 1 I I #
straight-curve $-1 32.551698916967837 -24.722983327426334 0.70807382522407636 0 -0.7313536940579346 -0.68199836817093118 I I #
edge $-1 $529 21.342221971510725 $286 32.551698916967837 $427 $536 forward 7 unknown #
point $-1 32.551698916967837 -24.722983327426356 6.0677581688638806 #
point $-1 32.551698916967837 -18.975425669454033 6.0677581688638806 #
edge $-1 $537 1 $537 0 $289 $-1 forward 7 unknown #
vertex $-1 $290 $538 #
ellipse-curve $-1 26.946960444239281 -19.329325948799212 0.68567714741172714 0 -0.68199836817093118 0.7313536940579346 1 0 0 1 I I #
point $-1 27.946960444239281 -21.849204498440209 3.3879159970439816 #
plane-surface $-1 0 0 6.0677581688638806 0 0 1 1 0 0 forward_v I I I I #
coedge $-1 $450 $449 $442 $539 forward $294 $-1 #
coedge $-1 $442 $296 $298 $446 reversed $179 $-1 #
coedge $-1 $296 $441 $440 $539 reversed $179 $-1 #
coedge $-1 $304 $299 $296 $444 forward $305 $-1 #
edge $-1 $447 -16.2203425870476 $540 -12.558701901651837 $443 $541 forward 7 unknown #
coedge $-1 $298 $297 $450 $542 reversed $111 $-1 #
edge $-1 $543 -49.445966654852732 $447 -43.864699456614581 $441 $544 forward 7 unknown #
vertex $-1 $300 $545 #
straight-curve $-1 19.397561361906092 21.061342642030592 6.0677581688638789 1 0 0 I I #
coedge $-1 $440 $301 $304 $454 reversed $294 $-1 #
coedge $-1 $301 $440 $445 $542 forward $294 $-1 #
vertex $-1 $302 $546 #
straight-curve $-1 28.917907502141311 24.722983327426356 55.348828150009012 0 0 1 I I #
straight-curve $-1 28.917907502141311 -7.7164890721901003 39.172867445939474 0 0.65605901945558964 -0.75470958851134928 I I #
edge $-1 $540 -48.672337945483058 $306 -28.917907502141311 $449 $547 forward 7 unknown #
point $-1 28.917907502141311 24.722983327426356 6.0677581688638806 #
point $-1 28.917907502141311 21.061342642030592 6.0677581688638824 #
edge $-1 $548 1 $548 0 $309 $-1 forward 7 unknown #
vertex $-1 $310 $549 #
ellipse-curve $-1 34.562030485953244 20.867435185501591 2.2015712549411202 0 0.75470958851134928 0.65605901945558964 1 0 0 1 I I #
point $-1 35.562030485953244 22.892162984728472 3.9616402335867855 #
edge $-1 $550 1 $550 0 $313 $-1 forward 7 unknown #
vertex $-1 $314 $551 #
ellipse-curve $-1 43.028214961671139 20.867435185501591 2.2015712549411202 0 0.75470958851134928 0.65605901945558964 1 0 0 1 I I #
point $-1 44.028214961671139 22.892162984728472 3.9616402335867855 #
plane-surface $-1 54.510940885647145 0 0 -1 0 0 0 0 1 forward_v I I I I #
coedge $-1 $322 $320 $324 $470 reversed $201 $-1 #
edge $-1 $335 -6.0677581688638806 $472 6.0677581688638806 $334 $552 forward 7 unknown #
vertex $-1 $470 $553 #
straight-curve $-1 -54.510940885647145 -24.722983327426356 0 0 0 -1 I I #
edge $-1 $468 -24.722983327426356 $472 24.722983327426356 $466 $554 forward 7 unknown #
straight-curve $-1 0 -24.722983327426356 -6.0677581688638806 -1 0 0 I I #
vertex $-1 $327 $555 #
straight-curve $-1 0 24.722983327426356 -6.0677581688638806 1 0 0 I I #
point $-1 54.510940885647145 24.722983327426356 -6.0677581688638806 #
point $-1 54.510940885647145 -24.722983327426356 -6.0677581688638806 #
straight-curve $-1 -54.510940885647145 0 6.0677581688638806 0 -1 0 I I #
point $-1 -54.510940885647145 24.722983327426356 6.0677581688638806 #
point $-1 -54.510940885647145 -24.722983327426356 6.0677581688638806 #
straight-curve $-1 54.510940885647145 -24.722983327426356 0 0 0 -1 I I #
straight-curve $-1 54.510940885647145 24.722983327426356 0 0 0 -1 I I #
plane-surface $-1 -54.510940885647145 0 0 1 0 0 0 0 -1 forward_v I I I I #
edge $-1 $356 9.7515578402930743 $360 12.751557840293074 $359 $556 forward 7 unknown #
edge $-1 $364 -12.751557840293074 $355 -9.7515578402930743 $362 $557 forward 7 unknown #
straight-curve $-1 -48.672337945483051 -24.003115680586149 0 0 0 -1 I I #
edge $-1 $488 -6.0677581688638806 $486 6.0677581688638806 $366 $558 forward 7 unknown #
vertex $-1 $485 $559 #
straight-curve $-1 -25.795819707782549 -21.003115680586149 -6.0677581688638806 1 0 0 I I #
vertex $-1 $367 $560 #
straight-curve $-1 -25.795819707782549 -21.003115680586149 6.0677581688638806 -1 0 0 I I #
point $-1 -48.672337945483051 -21.003115680586149 6.0677581688638806 #
point $-1 -48.672337945483051 -21.003115680586149 -6.0677581688638806 #
point $-1 -48.672337945483051 -24.003115680586149 -6.0677581688638806 #
point $-1 -48.672337945483051 -24.003115680586149 6.0677581688638806 #
straight-curve $-1 -54.510940885647145 0 6.0677581688638806 0 -1 0 I I #
straight-curve $-1 -54.510940885647145 0 -6.0677581688638806 0 1 0 I I #
loop $-1 $-1 $385 $371 #
plane-surface $-1 54.510940885647145 0 0 -1 0 0 0 0 1 forward_v I I I I #
coedge $-1 $387 $378 $374 $499 forward $239 $-1 #
edge $-1 $383 22.876518237700502 $504 28.715121177864596 $498 $561 forward 7 unknown #
coedge $-1 $380 $390 $375 $501 forward $372 $-1 #
edge $-1 $505 -28.715121177864596 $382 -22.876518237700502 $500 $562 forward 7 unknown #
coedge $-1 $385 $376 $390 $514 reversed $496 $-1 #
coedge $-1 $376 $385 $387 $512 reversed $496 $-1 #
vertex $-1 $512 $563 #
vertex $-1 $377 $564 #
straight-curve $-1 54.510940885647145 -21.003115680586149 0 0 0 1 I I #
straight-curve $-1 48.672337945483051 -11.251557840293074 -6.0677581688638806 0 1 0 I I #
straight-curve $-1 48.672337945483051 -11.251557840293074 6.0677581688638806 0 -1 0 I I #
point $-1 48.672337945483051 -21.003115680586149 6.0677581688638806 #
point $-1 48.672337945483051 -21.003115680586149 -6.0677581688638806 #
straight-curve $-1 54.510940885647145 -24.003115680586149 0 0 0 -1 I I #
edge $-1 $504 21.003115680586149 $388 24.003115680586149 $503 $565 forward 7 unknown #
point $-1 54.510940885647145 -24.003115680586149 -6.0677581688638806 #
edge $-1 $391 -24.003115680586149 $505 -21.003115680586149 $502 $566 forward 7 unknown #
point $-1 54.510940885647145 -24.003115680586149 6.0677581688638806 #
coedge $-1 $406 $405 $398 $517 forward $395 $-1 #
edge $-1 $518 34.153056727039896 $521 39.512741070679724 $516 $567 forward 7 unknown #
vertex $-1 $410 $568 #
straight-curve $-1 -27.330115973972333 -49.537864395186617 6.0677581688638824 0 -1 0 I I #
edge $-1 $521 -16.467427223350445 $407 -5.2579502778933325 $406 $569 forward 7 unknown #
vertex $-1 $520 $570 #
straight-curve $-1 -27.330115973972333 -24.722983327426334 0.70807382522407636 0 0.7313536940579346 0.68199836817093118 I I #
point $-1 -27.330115973972333 -18.975425669454033 6.0677581688638806 #
point $-1 -16.120639028515221 -24.722983327426356 0.70807382522405649 #
straight-curve $-1 0 -24.722983327426356 6.0677581688638806 1 0 0 I I #
vertex $-1 $413 $571 #
point $-1 -20.725377501243777 -19.329325948799212 0.68567714741172714 #
edge $-1 $529 34.153056727039896 $532 39.512741070679724 $418 $572 forward 7 unknown #
vertex $-1 $432 $573 #
straight-curve $-1 21.342221971510725 -49.537864395186617 6.0677581688638824 0 -1 0 I I #
edge $-1 $532 7.8687417493910843 $429 19.078218694848196 $428 $574 forward 7 unknown #
vertex $-1 $531 $575 #
straight-curve $-1 21.342221971510725 -24.722983327426334 0.70807382522407636 0 0.7313536940579346 0.68199836817093118 I I #
point $-1 21.342221971510725 -18.975425669454033 6.0677581688638806 #
point $-1 32.551698916967837 -24.722983327426356 0.70807382522405649 #
straight-curve $-1 0 -24.722983327426356 6.0677581688638806 1 0 0 I I #
vertex $-1 $435 $576 #
point $-1 27.946960444239281 -19.329325948799212 0.68567714741172714 #
edge $-1 $540 49.28106998114513 $543 53.493305851699333 $440 $577 forward 7 unknown #
vertex $-1 $454 $578 #
straight-curve $-1 48.672337945483058 37.281685229078192 6.0677581688638824 0 1 0 I I #
edge $-1 $543 -29.274776583576966 $451 -9.520346140235219 $450 $579 forward 7 unknown #
vertex $-1 $542 $580 #
straight-curve $-1 48.672337945483058 -7.7164890721901003 39.172867445939474 0 -0.65605901945558964 0.75470958851134928 I I #
point $-1 48.672337945483058 21.061342642030592 6.0677581688638824 #
point $-1 28.917907502141311 24.722983327426356 1.8555222983096797 #
straight-curve $-1 0 24.722983327426356 6.0677581688638806 -1 0 0 I I #
vertex $-1 $457 $581 #
point $-1 35.562030485953244 20.867435185501591 2.2015712549411202 #
vertex $-1 $461 $582 #
point $-1 44.028214961671139 20.867435185501591 2.2015712549411202 #
straight-curve $-1 -54.510940885647145 24.722983327426356 0 0 0 -1 I I #
point $-1 -54.510940885647145 -24.722983327426356 -6.0677581688638806 #
straight-curve $-1 -54.510940885647145 0 -6.0677581688638806 0 1 0 I I #
point $-1 -54.510940885647145 24.722983327426356 -6.0677581688638806 #
straight-curve $-1 -48.672337945483051 -11.251557840293074 -6.0677581688638806 0 -1 0 I I #
straight-curve $-1 -48.672337945483051 -11.251557840293074 6.0677581688638806 0 1 0 I I #
straight-curve $-1 -54.510940885647145 -21.003115680586149 0 0 0 -1 I I #
point $-1 -54.510940885647145 -21.003115680586149 -6.0677581688638806 #
point $-1 -54.510940885647145 -21.003115680586149 6.0677581688638806 #
straight-curve $-1 25.795819707782549 -21.003115680586149 -6.0677581688638806 1 0 0 I I #
straight-curve $-1 25.795819707782549 -21.003115680586149 6.0677581688638806 -1 0 0 I I #
point $-1 54.510940885647145 -21.003115680586149 -6.0677581688638806 #
point $-1 54.510940885647145 -21.003115680586149 6.0677581688638806 #
straight-curve $-1 54.510940885647145 0 -6.0677581688638806 0 -1 0 I I #
straight-curve $-1 54.510940885647145 0 6.0677581688638806 0 1 0 I I #
straight-curve $-1 -27.330115973972333 -24.722983327426356 40.220814895903779 0 0 -1 I I #
point $-1 -27.330115973972333 -24.722983327426356 6.0677581688638806 #
straight-curve $-1 -10.862688750621889 -24.722983327426356 0.70807382522405771 1 0 0 I I #
point $-1 -27.330115973972333 -24.722983327426356 0.70807382522405649 #
point $-1 -21.725377501243777 -18.647327580628282 -0.045676546646207461 #
straight-curve $-1 21.342221971510725 -24.722983327426356 40.220814895903779 0 0 -1 I I #
point $-1 21.342221971510725 -24.722983327426356 6.0677581688638806 #
straight-curve $-1 13.47348022211964 -24.722983327426356 0.70807382522405771 1 0 0 I I #
point $-1 21.342221971510725 -24.722983327426356 0.70807382522405649 #
point $-1 26.946960444239281 -18.647327580628282 -0.045676546646207461 #
straight-curve $-1 48.672337945483058 24.722983327426356 55.348828150009012 0 0 -1 I I #
point $-1 48.672337945483058 24.722983327426356 6.0677581688638806 #
straight-curve $-1 19.397561361906092 24.722983327426356 1.8555222983096797 -1 0 0 I I #
point $-1 48.672337945483058 24.722983327426356 1.8555222983096797 #
point $-1 34.562030485953244 20.112725596990245 1.5455122354855304 #
point $-1 43.028214961671139 20.112725596990245 1.5455122354855304 #
End-of-ACIS-data 