500 0 15 0           
7 Unknown 11 ACIS 5.0 NT 24 Fri Mar 26 01:37:15 1999 
-1 9.9999999999999995e-007 1e-010 
body $-1 $15 $-1 $16 #
body $-1 $17 $-1 $18 #
body $-1 $19 $-1 $20 #
body $-1 $21 $-1 $22 #
body $-1 $23 $-1 $24 #
body $-1 $25 $-1 $26 #
body $-1 $27 $-1 $28 #
body $-1 $29 $-1 $30 #
body $-1 $31 $-1 $32 #
body $-1 $33 $-1 $34 #
body $-1 $35 $-1 $36 #
body $-1 $37 $-1 $38 #
body $-1 $39 $-1 $40 #
body $-1 $41 $-1 $42 #
body $-1 $43 $-1 $44 #
lump $-1 $-1 $45 $0 #
transform $-1 1 0 0 0 1 0 0 0 1 45.697195348979157 19.578794390233575 7.8287094326694335 1 rotate no_reflect no_shear #
lump $-1 $-1 $46 $1 #
transform $-1 1 0 0 0 1 0 0 0 1 45.697195348979157 4.6742534493916574 2.9118737129677283 1 rotate no_reflect no_shear #
lump $-1 $-1 $47 $2 #
transform $-1 0.52991925155115449 0 0.84804810408105047 0 1 0 -0.84804810408105047 0 0.52991925155115449 -77.506839755046329 16.292185655733395 60.537184000381018 1 rotate no_reflect no_shear #
lump $-1 $-1 $48 $3 #
transform $-1 0.52991925155115449 0 0.84804810408105047 0 -1 0 0.84804810408105047 0 -0.52991925155115449 2.1697911884968164 15.009607711328593 13.219078811103071 1 rotate no_reflect no_shear #
lump $-1 $-1 $49 $4 #
transform $-1 0.52991925155115449 0 0.84804810408105047 0 -1 0 0.84804810408105047 0 -0.52991925155115449 2.1697911884968164 17.574763600138194 13.219078811103071 1 rotate no_reflect no_shear #
lump $-1 $-1 $50 $5 #
transform $-1 0.52991925155115449 0 0.84804810408105047 0 1 0 -0.84804810408105047 0 0.52991925155115449 -77.506839755046329 26.228546282961339 60.537184000381018 1 rotate no_reflect no_shear #
lump $-1 $-1 $51 $6 #
transform $-1 0.52991925155115449 0 0.84804810408105047 0 -1 0 0.84804810408105047 0 -0.52991925155115449 2.1697911884968164 24.94596833855654 13.219078811103071 1 rotate no_reflect no_shear #
lump $-1 $-1 $52 $7 #
transform $-1 0.52991925155115449 0 0.84804810408105047 0 -1 0 0.84804810408105047 0 -0.52991925155115449 2.1697911884968164 27.511124227366139 13.219078811103071 1 rotate no_reflect no_shear #
lump $-1 $-1 $53 $8 #
transform $-1 0.52991925155115449 0 0.84804810408105047 0 1 0 -0.84804810408105047 0 0.52991925155115449 -77.506839755046329 36.164906910189288 60.537184000381018 1 rotate no_reflect no_shear #
lump $-1 $-1 $54 $9 #
transform $-1 0.52991925155115449 0 0.84804810408105047 0 -1 0 0.84804810408105047 0 -0.52991925155115449 2.1697911884968164 34.882328965784488 13.219078811103071 1 rotate no_reflect no_shear #
lump $-1 $-1 $55 $10 #
transform $-1 0.52991925155115449 0 0.84804810408105047 0 -1 0 0.84804810408105047 0 -0.52991925155115449 2.1697911884968164 37.447484854594087 13.219078811103071 1 rotate no_reflect no_shear #
lump $-1 $-1 $56 $11 #
transform $-1 0.71933979245794832 0 -0.69465837861970381 0 1 0 0.69465837861970381 0 0.71933979245794832 89.138647918647806 21.276695263126371 138.57585990127114 1 rotate no_reflect no_shear #
lump $-1 $-1 $57 $12 #
transform $-1 0.71933979245794832 0 -0.69465837861970381 0 -1 0 -0.69465837861970381 0 -0.71933979245794832 86.990976139278047 18.763721965444255 11.325839381135346 1 rotate no_reflect no_shear #
lump $-1 $-1 $58 $13 #
transform $-1 0.71933979245794832 0 -0.69465837861970381 0 -1 0 -0.69465837861970381 0 -0.71933979245794832 86.990976139278047 21.276695263126371 11.325839381135346 1 rotate no_reflect no_shear #
lump $-1 $-1 $59 $14 #
transform $-1 0.71933979245794832 0 -0.69465837861970381 0 -1 0 -0.69465837861970381 0 -0.71933979245794832 86.990976139278047 23.789668560808487 11.325839381135346 1 rotate no_reflect no_shear #
shell $-1 $-1 $-1 $60 $-1 $15 #
shell $-1 $-1 $-1 $61 $-1 $17 #
shell $-1 $-1 $-1 $62 $-1 $19 #
shell $-1 $-1 $-1 $63 $-1 $21 #
shell $-1 $-1 $-1 $64 $-1 $23 #
shell $-1 $-1 $-1 $65 $-1 $25 #
shell $-1 $-1 $-1 $66 $-1 $27 #
shell $-1 $-1 $-1 $67 $-1 $29 #
shell $-1 $-1 $-1 $68 $-1 $31 #
shell $-1 $-1 $-1 $69 $-1 $33 #
shell $-1 $-1 $-1 $70 $-1 $35 #
shell $-1 $-1 $-1 $71 $-1 $37 #
shell $-1 $-1 $-1 $72 $-1 $39 #
shell $-1 $-1 $-1 $73 $-1 $41 #
shell $-1 $-1 $-1 $74 $-1 $43 #
face $-1 $75 $76 $45 $-1 $77 forward single #
face $-1 $78 $79 $46 $-1 $80 forward single #
face $-1 $81 $82 $47 $-1 $83 forward single #
face $-1 $84 $85 $48 $-1 $86 forward single #
face $-1 $87 $88 $49 $-1 $89 forward single #
face $-1 $90 $91 $50 $-1 $92 forward single #
face $-1 $93 $94 $51 $-1 $95 forward single #
face $-1 $96 $97 $52 $-1 $98 forward single #
face $-1 $99 $100 $53 $-1 $101 forward single #
face $-1 $102 $103 $54 $-1 $104 forward single #
face $-1 $105 $106 $55 $-1 $107 forward single #
face $-1 $108 $109 $56 $-1 $110 forward single #
face $-1 $111 $112 $57 $-1 $113 forward single #
face $-1 $114 $115 $58 $-1 $116 forward single #
face $-1 $117 $118 $59 $-1 $119 forward single #
face $-1 $120 $121 $45 $-1 $122 reversed single #
loop $-1 $-1 $123 $60 #
plane-surface $-1 0 0 7.8287094326694335 0 0 1 1 0 0 forward_v I I I I #
face $-1 $124 $125 $46 $-1 $126 reversed single #
loop $-1 $-1 $127 $61 #
plane-surface $-1 0 0 1.5 0 0 1 1 0 0 forward_v I I I I #
face $-1 $128 $129 $47 $-1 $130 reversed single #
loop $-1 $-1 $131 $62 #
plane-surface $-1 0 0 91.394390697958315 0 0 1 1 0 0 forward_v I I I I #
face $-1 $132 $133 $48 $-1 $134 forward single #
loop $-1 $135 $136 $63 #
cone-surface $-1 0 0 -0.75 0 0 1 0.5 0 0 1 I I 0 1 0.5 forward I I I I #
face $-1 $137 $138 $49 $-1 $139 forward single #
loop $-1 $140 $141 $64 #
cone-surface $-1 0 0 -0.75 0 0 1 0.5 0 0 1 I I 0 1 0.5 forward I I I I #
face $-1 $142 $143 $50 $-1 $144 reversed single #
loop $-1 $-1 $145 $65 #
plane-surface $-1 0 0 91.394390697958315 0 0 1 1 0 0 forward_v I I I I #
face $-1 $146 $147 $51 $-1 $148 forward single #
loop $-1 $149 $150 $66 #
cone-surface $-1 0 0 -0.75 0 0 1 0.5 0 0 1 I I 0 1 0.5 forward I I I I #
face $-1 $151 $152 $52 $-1 $153 forward single #
loop $-1 $154 $155 $67 #
cone-surface $-1 0 0 -0.75 0 0 1 0.5 0 0 1 I I 0 1 0.5 forward I I I I #
face $-1 $156 $157 $53 $-1 $158 reversed single #
loop $-1 $-1 $159 $68 #
plane-surface $-1 0 0 91.394390697958315 0 0 1 1 0 0 forward_v I I I I #
face $-1 $160 $161 $54 $-1 $162 forward single #
loop $-1 $163 $164 $69 #
cone-surface $-1 0 0 -0.75 0 0 1 0.5 0 0 1 I I 0 1 0.5 forward I I I I #
face $-1 $165 $166 $55 $-1 $167 forward single #
loop $-1 $168 $169 $70 #
cone-surface $-1 0 0 -0.75 0 0 1 0.5 0 0 1 I I 0 1 0.5 forward I I I I #
face $-1 $170 $171 $56 $-1 $172 reversed single #
loop $-1 $-1 $173 $71 #
plane-surface $-1 0 0 91.394390697958315 0 0 1 1 0 0 forward_v I I I I #
face $-1 $174 $175 $57 $-1 $176 forward single #
loop $-1 $177 $178 $72 #
cone-surface $-1 0 0 -0.94175542466505924 0 0 1 0.5 0 0 1 I I 0 1 0.5 forward I I I I #
face $-1 $179 $180 $58 $-1 $181 forward single #
loop $-1 $182 $183 $73 #
cone-surface $-1 0 0 -0.94175542466505924 0 0 1 0.5 0 0 1 I I 0 1 0.5 forward I I I I #
face $-1 $184 $185 $59 $-1 $186 forward single #
loop $-1 $187 $188 $74 #
cone-surface $-1 0 0 -0.94175542466505924 0 0 1 0.5 0 0 1 I I 0 1 0.5 forward I I I I #
face $-1 $189 $190 $45 $-1 $191 reversed single #
loop $-1 $-1 $192 $75 #
plane-surface $-1 0 0 -7.8287094326694335 0 0 1 1 0 0 forward_v I I I I #
coedge $-1 $193 $194 $195 $196 forward $76 $-1 #
face $-1 $197 $198 $46 $-1 $199 reversed single #
loop $-1 $-1 $200 $78 #
plane-surface $-1 0 0 -1.5 0 0 1 1 0 0 forward_v I I I I #
coedge $-1 $201 $202 $203 $204 forward $79 $-1 #
face $-1 $205 $206 $47 $-1 $207 reversed single #
loop $-1 $-1 $208 $81 #
plane-surface $-1 0 0 -91.394390697958315 0 0 1 1 0 0 forward_v I I I I #
coedge $-1 $209 $210 $211 $212 forward $82 $-1 #
face $-1 $-1 $213 $48 $-1 $214 forward single #
loop $-1 $-1 $215 $84 #
plane-surface $-1 0 0 -1.25 0 0 -1 -1 0 0 forward_v I I I I #
loop $-1 $-1 $216 $63 #
coedge $-1 $136 $136 $215 $217 reversed $85 $-1 #
face $-1 $-1 $218 $49 $-1 $219 forward single #
loop $-1 $-1 $220 $87 #
plane-surface $-1 0 0 -1.25 0 0 -1 -1 0 0 forward_v I I I I #
loop $-1 $-1 $221 $64 #
coedge $-1 $141 $141 $220 $222 reversed $88 $-1 #
face $-1 $223 $224 $50 $-1 $225 reversed single #
loop $-1 $-1 $226 $90 #
plane-surface $-1 0 0 -91.394390697958315 0 0 1 1 0 0 forward_v I I I I #
coedge $-1 $227 $228 $229 $230 forward $91 $-1 #
face $-1 $-1 $231 $51 $-1 $232 forward single #
loop $-1 $-1 $233 $93 #
plane-surface $-1 0 0 -1.25 0 0 -1 -1 0 0 forward_v I I I I #
loop $-1 $-1 $234 $66 #
coedge $-1 $150 $150 $233 $235 reversed $94 $-1 #
face $-1 $-1 $236 $52 $-1 $237 forward single #
loop $-1 $-1 $238 $96 #
plane-surface $-1 0 0 -1.25 0 0 -1 -1 0 0 forward_v I I I I #
loop $-1 $-1 $239 $67 #
coedge $-1 $155 $155 $238 $240 reversed $97 $-1 #
face $-1 $241 $242 $53 $-1 $243 reversed single #
loop $-1 $-1 $244 $99 #
plane-surface $-1 0 0 -91.394390697958315 0 0 1 1 0 0 forward_v I I I I #
coedge $-1 $245 $246 $247 $248 forward $100 $-1 #
face $-1 $-1 $249 $54 $-1 $250 forward single #
loop $-1 $-1 $251 $102 #
plane-surface $-1 0 0 -1.25 0 0 -1 -1 0 0 forward_v I I I I #
loop $-1 $-1 $252 $69 #
coedge $-1 $164 $164 $251 $253 reversed $103 $-1 #
face $-1 $-1 $254 $55 $-1 $255 forward single #
loop $-1 $-1 $256 $105 #
plane-surface $-1 0 0 -1.25 0 0 -1 -1 0 0 forward_v I I I I #
loop $-1 $-1 $257 $70 #
coedge $-1 $169 $169 $256 $258 reversed $106 $-1 #
face $-1 $259 $260 $56 $-1 $261 reversed single #
loop $-1 $-1 $262 $108 #
plane-surface $-1 0 0 -91.394390697958315 0 0 1 1 0 0 forward_v I I I I #
coedge $-1 $263 $264 $265 $266 forward $109 $-1 #
face $-1 $-1 $267 $57 $-1 $268 forward single #
loop $-1 $-1 $269 $111 #
plane-surface $-1 0 0 -1.6335108493301185 0 0 -1 -1 0 0 forward_v I I I I #
loop $-1 $-1 $270 $72 #
coedge $-1 $178 $178 $269 $271 reversed $112 $-1 #
face $-1 $-1 $272 $58 $-1 $273 forward single #
loop $-1 $-1 $274 $114 #
plane-surface $-1 0 0 -1.6335108493301185 0 0 -1 -1 0 0 forward_v I I I I #
loop $-1 $-1 $275 $73 #
coedge $-1 $183 $183 $274 $276 reversed $115 $-1 #
face $-1 $-1 $277 $59 $-1 $278 forward single #
loop $-1 $-1 $279 $117 #
plane-surface $-1 0 0 -1.6335108493301185 0 0 -1 -1 0 0 forward_v I I I I #
loop $-1 $-1 $280 $74 #
coedge $-1 $188 $188 $279 $281 reversed $118 $-1 #
face $-1 $282 $283 $45 $-1 $284 reversed single #
loop $-1 $-1 $285 $120 #
plane-surface $-1 0 -19.578794390233575 0 0 1 0 0 0 1 forward_v I I I I #
coedge $-1 $286 $287 $288 $289 forward $121 $-1 #
coedge $-1 $290 $123 $291 $292 forward $76 $-1 #
coedge $-1 $123 $290 $293 $294 forward $76 $-1 #
coedge $-1 $295 $296 $123 $196 reversed $297 $-1 #
edge $-1 $298 -19.578794390233575 $299 19.578794390233575 $195 $300 forward 7 unknown #
face $-1 $301 $302 $46 $-1 $303 reversed single #
loop $-1 $-1 $304 $124 #
plane-surface $-1 0 -4.6742534493916574 0 0 1 0 0 0 1 forward_v I I I I #
coedge $-1 $305 $306 $307 $308 forward $125 $-1 #
coedge $-1 $309 $127 $310 $311 forward $79 $-1 #
coedge $-1 $127 $309 $312 $313 forward $79 $-1 #
coedge $-1 $314 $315 $127 $204 reversed $316 $-1 #
edge $-1 $317 -4.6742534493916574 $318 4.6742534493916574 $203 $319 forward 7 unknown #
face $-1 $320 $321 $47 $-1 $322 reversed single #
loop $-1 $-1 $323 $128 #
plane-surface $-1 0 -2.9926818702778677 0 0 1 0 0 0 1 forward_v I I I I #
coedge $-1 $324 $325 $326 $327 forward $129 $-1 #
coedge $-1 $328 $131 $329 $330 forward $82 $-1 #
coedge $-1 $131 $328 $331 $332 forward $82 $-1 #
coedge $-1 $333 $334 $131 $212 reversed $335 $-1 #
edge $-1 $336 -2.9926818702778677 $337 2.9926818702778677 $211 $338 forward 7 unknown #
loop $-1 $339 $340 $132 #
cone-surface $-1 0 0 0 0 0 1 0.25 0 0 1 I I -0.70710678118654746 0.70710678118654746 0.25 forward I I I I #
coedge $-1 $215 $215 $136 $217 forward $133 $-1 #
coedge $-1 $216 $216 $340 $341 forward $135 $-1 #
edge $-1 $342 0 $342 6.2831853071796004 $215 $343 forward 7 unknown #
loop $-1 $344 $345 $137 #
cone-surface $-1 0 0 0 0 0 1 0.25 0 0 1 I I -0.70710678118654746 0.70710678118654746 0.25 forward I I I I #
coedge $-1 $220 $220 $141 $222 forward $138 $-1 #
coedge $-1 $221 $221 $345 $346 forward $140 $-1 #
edge $-1 $347 0 $347 6.2831853071796004 $220 $348 forward 7 unknown #
face $-1 $349 $350 $50 $-1 $351 reversed single #
loop $-1 $-1 $352 $142 #
plane-surface $-1 0 -2.9926818702778677 0 0 1 0 0 0 1 forward_v I I I I #
coedge $-1 $353 $354 $355 $356 forward $143 $-1 #
coedge $-1 $357 $145 $358 $359 forward $91 $-1 #
coedge $-1 $145 $357 $360 $361 forward $91 $-1 #
coedge $-1 $362 $363 $145 $230 reversed $364 $-1 #
edge $-1 $365 -2.9926818702778677 $366 2.9926818702778677 $229 $367 forward 7 unknown #
loop $-1 $368 $369 $146 #
cone-surface $-1 0 0 0 0 0 1 0.25 0 0 1 I I -0.70710678118654746 0.70710678118654746 0.25 forward I I I I #
coedge $-1 $233 $233 $150 $235 forward $147 $-1 #
coedge $-1 $234 $234 $369 $370 forward $149 $-1 #
edge $-1 $371 0 $371 6.2831853071796004 $233 $372 forward 7 unknown #
loop $-1 $373 $374 $151 #
cone-surface $-1 0 0 0 0 0 1 0.25 0 0 1 I I -0.70710678118654746 0.70710678118654746 0.25 forward I I I I #
coedge $-1 $238 $238 $155 $240 forward $152 $-1 #
coedge $-1 $239 $239 $374 $375 forward $154 $-1 #
edge $-1 $376 0 $376 6.2831853071796004 $238 $377 forward 7 unknown #
face $-1 $378 $379 $53 $-1 $380 reversed single #
loop $-1 $-1 $381 $156 #
plane-surface $-1 0 -2.9926818702778677 0 0 1 0 0 0 1 forward_v I I I I #
coedge $-1 $382 $383 $384 $385 forward $157 $-1 #
coedge $-1 $386 $159 $387 $388 forward $100 $-1 #
coedge $-1 $159 $386 $389 $390 forward $100 $-1 #
coedge $-1 $391 $392 $159 $248 reversed $393 $-1 #
edge $-1 $394 -2.9926818702778677 $395 2.9926818702778677 $247 $396 forward 7 unknown #
loop $-1 $397 $398 $160 #
cone-surface $-1 0 0 0 0 0 1 0.25 0 0 1 I I -0.70710678118654746 0.70710678118654746 0.25 forward I I I I #
coedge $-1 $251 $251 $164 $253 forward $161 $-1 #
coedge $-1 $252 $252 $398 $399 forward $163 $-1 #
edge $-1 $400 0 $400 6.2831853071796004 $251 $401 forward 7 unknown #
loop $-1 $402 $403 $165 #
cone-surface $-1 0 0 0 0 0 1 0.25 0 0 1 I I -0.70710678118654746 0.70710678118654746 0.25 forward I I I I #
coedge $-1 $256 $256 $169 $258 forward $166 $-1 #
coedge $-1 $257 $257 $403 $404 forward $168 $-1 #
edge $-1 $405 0 $405 6.2831853071796004 $256 $406 forward 7 unknown #
face $-1 $407 $408 $56 $-1 $409 reversed single #
loop $-1 $-1 $410 $170 #
plane-surface $-1 0 -4.1882888294701957 0 0 1 0 0 0 1 forward_v I I I I #
coedge $-1 $411 $412 $413 $414 forward $171 $-1 #
coedge $-1 $415 $173 $416 $417 forward $109 $-1 #
coedge $-1 $173 $415 $418 $419 forward $109 $-1 #
coedge $-1 $420 $421 $173 $266 reversed $422 $-1 #
edge $-1 $423 -4.1882888294701957 $424 4.1882888294701957 $265 $425 forward 7 unknown #
loop $-1 $426 $427 $174 #
cone-surface $-1 0 0 0 0 0 1 0.25 0 0 1 I I -0.70710678118654746 0.70710678118654746 0.25 forward I I I I #
coedge $-1 $269 $269 $178 $271 forward $175 $-1 #
coedge $-1 $270 $270 $427 $428 forward $177 $-1 #
edge $-1 $429 0 $429 6.2831853071796004 $269 $430 forward 7 unknown #
loop $-1 $431 $432 $179 #
cone-surface $-1 0 0 0 0 0 1 0.25 0 0 1 I I -0.70710678118654746 0.70710678118654746 0.25 forward I I I I #
coedge $-1 $274 $274 $183 $276 forward $180 $-1 #
coedge $-1 $275 $275 $432 $433 forward $182 $-1 #
edge $-1 $434 0 $434 6.2831853071796004 $274 $435 forward 7 unknown #
loop $-1 $436 $437 $184 #
cone-surface $-1 0 0 0 0 0 1 0.25 0 0 1 I I -0.70710678118654746 0.70710678118654746 0.25 forward I I I I #
coedge $-1 $279 $279 $188 $281 forward $185 $-1 #
coedge $-1 $280 $280 $437 $438 forward $187 $-1 #
edge $-1 $439 0 $439 6.2831853071796004 $279 $440 forward 7 unknown #
face $-1 $441 $442 $45 $-1 $443 reversed single #
loop $-1 $-1 $444 $189 #
plane-surface $-1 -45.697195348979157 0 0 1 0 0 0 0 -1 forward_v I I I I #
coedge $-1 $445 $293 $446 $447 forward $190 $-1 #
coedge $-1 $448 $192 $445 $449 forward $121 $-1 #
coedge $-1 $192 $448 $450 $451 forward $121 $-1 #
coedge $-1 $296 $295 $192 $289 reversed $297 $-1 #
edge $-1 $452 -19.578794390233575 $453 19.578794390233575 $288 $454 forward 7 unknown #
coedge $-1 $194 $193 $455 $456 forward $76 $-1 #
coedge $-1 $457 $458 $193 $292 reversed $442 $-1 #
edge $-1 $299 -45.697195348979157 $459 45.697195348979157 $291 $460 forward 7 unknown #
coedge $-1 $285 $461 $194 $294 reversed $190 $-1 #
edge $-1 $462 -45.697195348979157 $298 45.697195348979157 $293 $463 forward 7 unknown #
coedge $-1 $288 $195 $461 $464 forward $297 $-1 #
coedge $-1 $195 $288 $457 $465 reversed $297 $-1 #
loop $-1 $-1 $295 $441 #
vertex $-1 $196 $466 #
vertex $-1 $196 $467 #
straight-curve $-1 45.697195348979157 0 7.8287094326694335 0 1 0 I I #
face $-1 $468 $469 $46 $-1 $470 reversed single #
loop $-1 $-1 $471 $197 #
plane-surface $-1 -45.697195348979157 0 0 1 0 0 0 0 -1 forward_v I I I I #
coedge $-1 $472 $312 $473 $474 forward $198 $-1 #
coedge $-1 $475 $200 $472 $476 forward $125 $-1 #
coedge $-1 $200 $475 $477 $478 forward $125 $-1 #
coedge $-1 $315 $314 $200 $308 reversed $316 $-1 #
edge $-1 $479 -4.6742534493916574 $480 4.6742534493916574 $307 $481 forward 7 unknown #
coedge $-1 $202 $201 $482 $483 forward $79 $-1 #
coedge $-1 $484 $485 $201 $311 reversed $469 $-1 #
edge $-1 $318 -45.697195348979157 $486 45.697195348979157 $310 $487 forward 7 unknown #
coedge $-1 $304 $488 $202 $313 reversed $198 $-1 #
edge $-1 $489 -45.697195348979157 $317 45.697195348979157 $312 $490 forward 7 unknown #
coedge $-1 $307 $203 $488 $491 forward $316 $-1 #
coedge $-1 $203 $307 $484 $492 reversed $316 $-1 #
loop $-1 $-1 $314 $468 #
vertex $-1 $204 $493 #
vertex $-1 $204 $494 #
straight-curve $-1 45.697195348979157 0 1.5 0 1 0 I I #
face $-1 $495 $496 $47 $-1 $497 reversed single #
loop $-1 $-1 $498 $205 #
plane-surface $-1 -182.78878139591663 0 0 1 0 0 0 0 -1 forward_v I I I I #
coedge $-1 $499 $331 $500 $501 forward $206 $-1 #
coedge $-1 $502 $208 $499 $503 forward $129 $-1 #
coedge $-1 $208 $502 $504 $505 forward $129 $-1 #
coedge $-1 $334 $333 $208 $327 reversed $335 $-1 #
edge $-1 $506 -2.9926818702778677 $507 2.9926818702778677 $326 $508 forward 7 unknown #
coedge $-1 $210 $209 $509 $510 forward $82 $-1 #
coedge $-1 $511 $512 $209 $330 reversed $496 $-1 #
edge $-1 $337 -182.78878139591663 $513 182.78878139591663 $329 $514 forward 7 unknown #
coedge $-1 $323 $515 $210 $332 reversed $206 $-1 #
edge $-1 $516 -182.78878139591663 $336 182.78878139591663 $331 $517 forward 7 unknown #
coedge $-1 $326 $211 $515 $518 forward $335 $-1 #
coedge $-1 $211 $326 $511 $519 reversed $335 $-1 #
loop $-1 $-1 $333 $495 #
vertex $-1 $212 $520 #
vertex $-1 $212 $521 #
straight-curve $-1 182.78878139591663 0 91.394390697958315 0 1 0 I I #
loop $-1 $-1 $522 $132 #
coedge $-1 $340 $340 $216 $341 reversed $213 $-1 #
edge $-1 $523 0 $523 6.2831853071796004 $340 $524 forward 7 unknown #
vertex $-1 $217 $525 #
ellipse-curve $-1 0 0 -1.25 0 0 -1 0.5 0 0 1 I I #
loop $-1 $-1 $526 $137 #
coedge $-1 $345 $345 $221 $346 reversed $218 $-1 #
edge $-1 $527 0 $527 6.2831853071796004 $345 $528 forward 7 unknown #
vertex $-1 $222 $529 #
ellipse-curve $-1 0 0 -1.25 0 0 -1 0.5 0 0 1 I I #
face $-1 $530 $531 $50 $-1 $532 reversed single #
loop $-1 $-1 $533 $223 #
plane-surface $-1 -182.78878139591663 0 0 1 0 0 0 0 -1 forward_v I I I I #
coedge $-1 $534 $360 $535 $536 forward $224 $-1 #
coedge $-1 $537 $226 $534 $538 forward $143 $-1 #
coedge $-1 $226 $537 $539 $540 forward $143 $-1 #
coedge $-1 $363 $362 $226 $356 reversed $364 $-1 #
edge $-1 $541 -2.9926818702778677 $542 2.9926818702778677 $355 $543 forward 7 unknown #
coedge $-1 $228 $227 $544 $545 forward $91 $-1 #
coedge $-1 $546 $547 $227 $359 reversed $531 $-1 #
edge $-1 $366 -182.78878139591663 $548 182.78878139591663 $358 $549 forward 7 unknown #
coedge $-1 $352 $550 $228 $361 reversed $224 $-1 #
edge $-1 $551 -182.78878139591663 $365 182.78878139591663 $360 $552 forward 7 unknown #
coedge $-1 $355 $229 $550 $553 forward $364 $-1 #
coedge $-1 $229 $355 $546 $554 reversed $364 $-1 #
loop $-1 $-1 $362 $530 #
vertex $-1 $230 $555 #
vertex $-1 $230 $556 #
straight-curve $-1 182.78878139591663 0 91.394390697958315 0 1 0 I I #
loop $-1 $-1 $557 $146 #
coedge $-1 $369 $369 $234 $370 reversed $231 $-1 #
edge $-1 $558 0 $558 6.2831853071796004 $369 $559 forward 7 unknown #
vertex $-1 $235 $560 #
ellipse-curve $-1 0 0 -1.25 0 0 -1 0.5 0 0 1 I I #
loop $-1 $-1 $561 $151 #
coedge $-1 $374 $374 $239 $375 reversed $236 $-1 #
edge $-1 $562 0 $562 6.2831853071796004 $374 $563 forward 7 unknown #
vertex $-1 $240 $564 #
ellipse-curve $-1 0 0 -1.25 0 0 -1 0.5 0 0 1 I I #
face $-1 $565 $566 $53 $-1 $567 reversed single #
loop $-1 $-1 $568 $241 #
plane-surface $-1 -182.78878139591663 0 0 1 0 0 0 0 -1 forward_v I I I I #
coedge $-1 $569 $389 $570 $571 forward $242 $-1 #
coedge $-1 $572 $244 $569 $573 forward $157 $-1 #
coedge $-1 $244 $572 $574 $575 forward $157 $-1 #
coedge $-1 $392 $391 $244 $385 reversed $393 $-1 #
edge $-1 $576 -2.9926818702778677 $577 2.9926818702778677 $384 $578 forward 7 unknown #
coedge $-1 $246 $245 $579 $580 forward $100 $-1 #
coedge $-1 $581 $582 $245 $388 reversed $566 $-1 #
edge $-1 $395 -182.78878139591663 $583 182.78878139591663 $387 $584 forward 7 unknown #
coedge $-1 $381 $585 $246 $390 reversed $242 $-1 #
edge $-1 $586 -182.78878139591663 $394 182.78878139591663 $389 $587 forward 7 unknown #
coedge $-1 $384 $247 $585 $588 forward $393 $-1 #
coedge $-1 $247 $384 $581 $589 reversed $393 $-1 #
loop $-1 $-1 $391 $565 #
vertex $-1 $248 $590 #
vertex $-1 $248 $591 #
straight-curve $-1 182.78878139591663 0 91.394390697958315 0 1 0 I I #
loop $-1 $-1 $592 $160 #
coedge $-1 $398 $398 $252 $399 reversed $249 $-1 #
edge $-1 $593 0 $593 6.2831853071796004 $398 $594 forward 7 unknown #
vertex $-1 $253 $595 #
ellipse-curve $-1 0 0 -1.25 0 0 -1 0.5 0 0 1 I I #
loop $-1 $-1 $596 $165 #
coedge $-1 $403 $403 $257 $404 reversed $254 $-1 #
edge $-1 $597 0 $597 6.2831853071796004 $403 $598 forward 7 unknown #
vertex $-1 $258 $599 #
ellipse-curve $-1 0 0 -1.25 0 0 -1 0.5 0 0 1 I I #
face $-1 $600 $601 $56 $-1 $602 reversed single #
loop $-1 $-1 $603 $259 #
plane-surface $-1 -182.78878139591663 0 0 1 0 0 0 0 -1 forward_v I I I I #
coedge $-1 $604 $418 $605 $606 forward $260 $-1 #
coedge $-1 $607 $262 $604 $608 forward $171 $-1 #
coedge $-1 $262 $607 $609 $610 forward $171 $-1 #
coedge $-1 $421 $420 $262 $414 reversed $422 $-1 #
edge $-1 $611 -4.1882888294701957 $612 4.1882888294701957 $413 $613 forward 7 unknown #
coedge $-1 $264 $263 $614 $615 forward $109 $-1 #
coedge $-1 $616 $617 $263 $417 reversed $601 $-1 #
edge $-1 $424 -182.78878139591663 $618 182.78878139591663 $416 $619 forward 7 unknown #
coedge $-1 $410 $620 $264 $419 reversed $260 $-1 #
edge $-1 $621 -182.78878139591663 $423 182.78878139591663 $418 $622 forward 7 unknown #
coedge $-1 $413 $265 $620 $623 forward $422 $-1 #
coedge $-1 $265 $413 $616 $624 reversed $422 $-1 #
loop $-1 $-1 $420 $600 #
vertex $-1 $266 $625 #
vertex $-1 $266 $626 #
straight-curve $-1 182.78878139591663 0 91.394390697958315 0 1 0 I I #
loop $-1 $-1 $627 $174 #
coedge $-1 $427 $427 $270 $428 reversed $267 $-1 #
edge $-1 $628 0 $628 6.2831853071796004 $427 $629 forward 7 unknown #
vertex $-1 $271 $630 #
ellipse-curve $-1 0 0 -1.6335108493301185 0 0 -1 0.5 0 0 1 I I #
loop $-1 $-1 $631 $179 #
coedge $-1 $432 $432 $275 $433 reversed $272 $-1 #
edge $-1 $632 0 $632 6.2831853071796004 $432 $633 forward 7 unknown #
vertex $-1 $276 $634 #
ellipse-curve $-1 0 0 -1.6335108493301185 0 0 -1 0.5 0 0 1 I I #
loop $-1 $-1 $635 $184 #
coedge $-1 $437 $437 $280 $438 reversed $277 $-1 #
edge $-1 $636 0 $636 6.2831853071796004 $437 $637 forward 7 unknown #
vertex $-1 $281 $638 #
ellipse-curve $-1 0 0 -1.6335108493301185 0 0 -1 0.5 0 0 1 I I #
face $-1 $-1 $297 $45 $-1 $639 reversed single #
loop $-1 $-1 $457 $282 #
plane-surface $-1 0 19.578794390233575 0 0 -1 0 0 0 -1 forward_v I I I I #
coedge $-1 $640 $455 $458 $641 forward $283 $-1 #
coedge $-1 $461 $285 $286 $449 reversed $190 $-1 #
coedge $-1 $455 $640 $285 $447 reversed $283 $-1 #
edge $-1 $462 -7.8287094326694335 $642 7.8287094326694335 $446 $643 forward 7 unknown #
coedge $-1 $287 $286 $640 $644 forward $121 $-1 #
edge $-1 $453 -45.697195348979157 $642 45.697195348979157 $445 $645 forward 7 unknown #
coedge $-1 $458 $457 $287 $451 reversed $442 $-1 #
edge $-1 $646 -45.697195348979157 $452 45.697195348979157 $450 $647 forward 7 unknown #
vertex $-1 $289 $648 #
vertex $-1 $464 $649 #
straight-curve $-1 45.697195348979157 0 -7.8287094326694335 0 -1 0 I I #
coedge $-1 $444 $446 $290 $456 reversed $283 $-1 #
edge $-1 $459 -19.578794390233575 $462 19.578794390233575 $455 $650 forward 7 unknown #
coedge $-1 $450 $291 $296 $465 forward $442 $-1 #
coedge $-1 $291 $450 $444 $641 reversed $442 $-1 #
vertex $-1 $292 $651 #
straight-curve $-1 0 19.578794390233575 7.8287094326694335 -1 0 0 I I #
coedge $-1 $293 $445 $295 $464 reversed $190 $-1 #
vertex $-1 $456 $652 #
straight-curve $-1 0 -19.578794390233575 7.8287094326694335 1 0 0 I I #
edge $-1 $298 -7.8287094326694335 $453 7.8287094326694335 $295 $653 forward 7 unknown #
edge $-1 $299 -7.8287094326694335 $452 7.8287094326694335 $296 $654 forward 7 unknown #
point $-1 45.697195348979157 -19.578794390233575 7.8287094326694335 #
point $-1 45.697195348979157 19.578794390233575 7.8287094326694335 #
face $-1 $-1 $316 $46 $-1 $655 reversed single #
loop $-1 $-1 $484 $301 #
plane-surface $-1 0 4.6742534493916574 0 0 -1 0 0 0 -1 forward_v I I I I #
coedge $-1 $656 $482 $485 $657 forward $302 $-1 #
coedge $-1 $488 $304 $305 $476 reversed $198 $-1 #
coedge $-1 $482 $656 $304 $474 reversed $302 $-1 #
edge $-1 $489 -1.5 $658 1.5 $473 $659 forward 7 unknown #
coedge $-1 $306 $305 $656 $660 forward $125 $-1 #
edge $-1 $480 -45.697195348979157 $658 45.697195348979157 $472 $661 forward 7 unknown #
coedge $-1 $485 $484 $306 $478 reversed $469 $-1 #
edge $-1 $662 -45.697195348979157 $479 45.697195348979157 $477 $663 forward 7 unknown #
vertex $-1 $308 $664 #
vertex $-1 $491 $665 #
straight-curve $-1 45.697195348979157 0 -1.5 0 -1 0 I I #
coedge $-1 $471 $473 $309 $483 reversed $302 $-1 #
edge $-1 $486 -4.6742534493916574 $489 4.6742534493916574 $482 $666 forward 7 unknown #
coedge $-1 $477 $310 $315 $492 forward $469 $-1 #
coedge $-1 $310 $477 $471 $657 reversed $469 $-1 #
vertex $-1 $311 $667 #
straight-curve $-1 0 4.6742534493916574 1.5 -1 0 0 I I #
coedge $-1 $312 $472 $314 $491 reversed $198 $-1 #
vertex $-1 $483 $668 #
straight-curve $-1 0 -4.6742534493916574 1.5 1 0 0 I I #
edge $-1 $317 -1.5 $480 1.5 $314 $669 forward 7 unknown #
edge $-1 $318 -1.5 $479 1.5 $315 $670 forward 7 unknown #
point $-1 45.697195348979157 -4.6742534493916574 1.5 #
point $-1 45.697195348979157 4.6742534493916574 1.5 #
face $-1 $-1 $335 $47 $-1 $671 reversed single #
loop $-1 $-1 $511 $320 #
plane-surface $-1 0 2.9926818702778677 0 0 -1 0 0 0 -1 forward_v I I I I #
coedge $-1 $672 $509 $512 $673 forward $321 $-1 #
coedge $-1 $515 $323 $324 $503 reversed $206 $-1 #
coedge $-1 $509 $672 $323 $501 reversed $321 $-1 #
edge $-1 $516 -91.394390697958315 $674 91.394390697958315 $500 $675 forward 7 unknown #
coedge $-1 $325 $324 $672 $676 forward $129 $-1 #
edge $-1 $507 -182.78878139591663 $674 182.78878139591663 $499 $677 forward 7 unknown #
coedge $-1 $512 $511 $325 $505 reversed $496 $-1 #
edge $-1 $678 -182.78878139591663 $506 182.78878139591663 $504 $679 forward 7 unknown #
vertex $-1 $327 $680 #
vertex $-1 $518 $681 #
straight-curve $-1 182.78878139591663 0 -91.394390697958315 0 -1 0 I I #
coedge $-1 $498 $500 $328 $510 reversed $321 $-1 #
edge $-1 $513 -2.9926818702778677 $516 2.9926818702778677 $509 $682 forward 7 unknown #
coedge $-1 $504 $329 $334 $519 forward $496 $-1 #
coedge $-1 $329 $504 $498 $673 reversed $496 $-1 #
vertex $-1 $330 $683 #
straight-curve $-1 0 2.9926818702778677 91.394390697958315 -1 0 0 I I #
coedge $-1 $331 $499 $333 $518 reversed $206 $-1 #
vertex $-1 $510 $684 #
straight-curve $-1 0 -2.9926818702778677 91.394390697958315 1 0 0 I I #
edge $-1 $336 -91.394390697958315 $507 91.394390697958315 $333 $685 forward 7 unknown #
edge $-1 $337 -91.394390697958315 $506 91.394390697958315 $334 $686 forward 7 unknown #
point $-1 182.78878139591663 -2.9926818702778677 91.394390697958315 #
point $-1 182.78878139591663 2.9926818702778677 91.394390697958315 #
coedge $-1 $522 $522 $-1 $687 reversed $339 $-1 #
vertex $-1 $341 $688 #
ellipse-curve $-1 0 0 -0.25 0 0 -1 0.5 0 0 1 I I #
point $-1 0.5 0 -1.25 #
coedge $-1 $526 $526 $-1 $689 reversed $344 $-1 #
vertex $-1 $346 $690 #
ellipse-curve $-1 0 0 -0.25 0 0 -1 0.5 0 0 1 I I #
point $-1 0.5 0 -1.25 #
face $-1 $-1 $364 $50 $-1 $691 reversed single #
loop $-1 $-1 $546 $349 #
plane-surface $-1 0 2.9926818702778677 0 0 -1 0 0 0 -1 forward_v I I I I #
coedge $-1 $692 $544 $547 $693 forward $350 $-1 #
coedge $-1 $550 $352 $353 $538 reversed $224 $-1 #
coedge $-1 $544 $692 $352 $536 reversed $350 $-1 #
edge $-1 $551 -91.394390697958315 $694 91.394390697958315 $535 $695 forward 7 unknown #
coedge $-1 $354 $353 $692 $696 forward $143 $-1 #
edge $-1 $542 -182.78878139591663 $694 182.78878139591663 $534 $697 forward 7 unknown #
coedge $-1 $547 $546 $354 $540 reversed $531 $-1 #
edge $-1 $698 -182.78878139591663 $541 182.78878139591663 $539 $699 forward 7 unknown #
vertex $-1 $356 $700 #
vertex $-1 $553 $701 #
straight-curve $-1 182.78878139591663 0 -91.394390697958315 0 -1 0 I I #
coedge $-1 $533 $535 $357 $545 reversed $350 $-1 #
edge $-1 $548 -2.9926818702778677 $551 2.9926818702778677 $544 $702 forward 7 unknown #
coedge $-1 $539 $358 $363 $554 forward $531 $-1 #
coedge $-1 $358 $539 $533 $693 reversed $531 $-1 #
vertex $-1 $359 $703 #
straight-curve $-1 0 2.9926818702778677 91.394390697958315 -1 0 0 I I #
coedge $-1 $360 $534 $362 $553 reversed $224 $-1 #
vertex $-1 $545 $704 #
straight-curve $-1 0 -2.9926818702778677 91.394390697958315 1 0 0 I I #
edge $-1 $365 -91.394390697958315 $542 91.394390697958315 $362 $705 forward 7 unknown #
edge $-1 $366 -91.394390697958315 $541 91.394390697958315 $363 $706 forward 7 unknown #
point $-1 182.78878139591663 -2.9926818702778677 91.394390697958315 #
point $-1 182.78878139591663 2.9926818702778677 91.394390697958315 #
coedge $-1 $557 $557 $-1 $707 reversed $368 $-1 #
vertex $-1 $370 $708 #
ellipse-curve $-1 0 0 -0.25 0 0 -1 0.5 0 0 1 I I #
point $-1 0.5 0 -1.25 #
coedge $-1 $561 $561 $-1 $709 reversed $373 $-1 #
vertex $-1 $375 $710 #
ellipse-curve $-1 0 0 -0.25 0 0 -1 0.5 0 0 1 I I #
point $-1 0.5 0 -1.25 #
face $-1 $-1 $393 $53 $-1 $711 reversed single #
loop $-1 $-1 $581 $378 #
plane-surface $-1 0 2.9926818702778677 0 0 -1 0 0 0 -1 forward_v I I I I #
coedge $-1 $712 $579 $582 $713 forward $379 $-1 #
coedge $-1 $585 $381 $382 $573 reversed $242 $-1 #
coedge $-1 $579 $712 $381 $571 reversed $379 $-1 #
edge $-1 $586 -91.394390697958315 $714 91.394390697958315 $570 $715 forward 7 unknown #
coedge $-1 $383 $382 $712 $716 forward $157 $-1 #
edge $-1 $577 -182.78878139591663 $714 182.78878139591663 $569 $717 forward 7 unknown #
coedge $-1 $582 $581 $383 $575 reversed $566 $-1 #
edge $-1 $718 -182.78878139591663 $576 182.78878139591663 $574 $719 forward 7 unknown #
vertex $-1 $385 $720 #
vertex $-1 $588 $721 #
straight-curve $-1 182.78878139591663 0 -91.394390697958315 0 -1 0 I I #
coedge $-1 $568 $570 $386 $580 reversed $379 $-1 #
edge $-1 $583 -2.9926818702778677 $586 2.9926818702778677 $579 $722 forward 7 unknown #
coedge $-1 $574 $387 $392 $589 forward $566 $-1 #
coedge $-1 $387 $574 $568 $713 reversed $566 $-1 #
vertex $-1 $388 $723 #
straight-curve $-1 0 2.9926818702778677 91.394390697958315 -1 0 0 I I #
coedge $-1 $389 $569 $391 $588 reversed $242 $-1 #
vertex $-1 $580 $724 #
straight-curve $-1 0 -2.9926818702778677 91.394390697958315 1 0 0 I I #
edge $-1 $394 -91.394390697958315 $577 91.394390697958315 $391 $725 forward 7 unknown #
edge $-1 $395 -91.394390697958315 $576 91.394390697958315 $392 $726 forward 7 unknown #
point $-1 182.78878139591663 -2.9926818702778677 91.394390697958315 #
point $-1 182.78878139591663 2.9926818702778677 91.394390697958315 #
coedge $-1 $592 $592 $-1 $727 reversed $397 $-1 #
vertex $-1 $399 $728 #
ellipse-curve $-1 0 0 -0.25 0 0 -1 0.5 0 0 1 I I #
point $-1 0.5 0 -1.25 #
coedge $-1 $596 $596 $-1 $729 reversed $402 $-1 #
vertex $-1 $404 $730 #
ellipse-curve $-1 0 0 -0.25 0 0 -1 0.5 0 0 1 I I #
point $-1 0.5 0 -1.25 #
face $-1 $-1 $422 $56 $-1 $731 reversed single #
loop $-1 $-1 $616 $407 #
plane-surface $-1 0 4.1882888294701957 0 0 -1 0 0 0 -1 forward_v I I I I #
coedge $-1 $732 $614 $617 $733 forward $408 $-1 #
coedge $-1 $620 $410 $411 $608 reversed $260 $-1 #
coedge $-1 $614 $732 $410 $606 reversed $408 $-1 #
edge $-1 $621 -91.394390697958315 $734 91.394390697958315 $605 $735 forward 7 unknown #
coedge $-1 $412 $411 $732 $736 forward $171 $-1 #
edge $-1 $612 -182.78878139591663 $734 182.78878139591663 $604 $737 forward 7 unknown #
coedge $-1 $617 $616 $412 $610 reversed $601 $-1 #
edge $-1 $738 -182.78878139591663 $611 182.78878139591663 $609 $739 forward 7 unknown #
vertex $-1 $414 $740 #
vertex $-1 $623 $741 #
straight-curve $-1 182.78878139591663 0 -91.394390697958315 0 -1 0 I I #
coedge $-1 $603 $605 $415 $615 reversed $408 $-1 #
edge $-1 $618 -4.1882888294701957 $621 4.1882888294701957 $614 $742 forward 7 unknown #
coedge $-1 $609 $416 $421 $624 forward $601 $-1 #
coedge $-1 $416 $609 $603 $733 reversed $601 $-1 #
vertex $-1 $417 $743 #
straight-curve $-1 0 4.1882888294701957 91.394390697958315 -1 0 0 I I #
coedge $-1 $418 $604 $420 $623 reversed $260 $-1 #
vertex $-1 $615 $744 #
straight-curve $-1 0 -4.1882888294701957 91.394390697958315 1 0 0 I I #
edge $-1 $423 -91.394390697958315 $612 91.394390697958315 $420 $745 forward 7 unknown #
edge $-1 $424 -91.394390697958315 $611 91.394390697958315 $421 $746 forward 7 unknown #
point $-1 182.78878139591663 -4.1882888294701957 91.394390697958315 #
point $-1 182.78878139591663 4.1882888294701957 91.394390697958315 #
coedge $-1 $627 $627 $-1 $747 reversed $426 $-1 #
vertex $-1 $428 $748 #
ellipse-curve $-1 0 0 -0.25 0 0 -1 0.5 0 0 1 I I #
point $-1 0.5 0 -1.6335108493301185 #
coedge $-1 $631 $631 $-1 $749 reversed $431 $-1 #
vertex $-1 $433 $750 #
ellipse-curve $-1 0 0 -0.25 0 0 -1 0.5 0 0 1 I I #
point $-1 0.5 0 -1.6335108493301185 #
coedge $-1 $635 $635 $-1 $751 reversed $436 $-1 #
vertex $-1 $438 $752 #
ellipse-curve $-1 0 0 -0.25 0 0 -1 0.5 0 0 1 I I #
point $-1 0.5 0 -1.6335108493301185 #
plane-surface $-1 45.697195348979157 0 0 -1 0 0 0 0 1 forward_v I I I I #
coedge $-1 $446 $444 $448 $644 reversed $283 $-1 #
edge $-1 $459 -7.8287094326694335 $646 7.8287094326694335 $458 $753 forward 7 unknown #
vertex $-1 $644 $754 #
straight-curve $-1 -45.697195348979157 -19.578794390233575 0 0 0 -1 I I #
edge $-1 $642 -19.578794390233575 $646 19.578794390233575 $640 $755 forward 7 unknown #
straight-curve $-1 0 -19.578794390233575 -7.8287094326694335 -1 0 0 I I #
vertex $-1 $451 $756 #
straight-curve $-1 0 19.578794390233575 -7.8287094326694335 1 0 0 I I #
point $-1 45.697195348979157 19.578794390233575 -7.8287094326694335 #
point $-1 45.697195348979157 -19.578794390233575 -7.8287094326694335 #
straight-curve $-1 -45.697195348979157 0 7.8287094326694335 0 -1 0 I I #
point $-1 -45.697195348979157 19.578794390233575 7.8287094326694335 #
point $-1 -45.697195348979157 -19.578794390233575 7.8287094326694335 #
straight-curve $-1 45.697195348979157 -19.578794390233575 0 0 0 -1 I I #
straight-curve $-1 45.697195348979157 19.578794390233575 0 0 0 -1 I I #
plane-surface $-1 45.697195348979157 0 0 -1 0 0 0 0 1 forward_v I I I I #
coedge $-1 $473 $471 $475 $660 reversed $302 $-1 #
edge $-1 $486 -1.5 $662 1.5 $485 $757 forward 7 unknown #
vertex $-1 $660 $758 #
straight-curve $-1 -45.697195348979157 -4.6742534493916574 0 0 0 -1 I I #
edge $-1 $658 -4.6742534493916574 $662 4.6742534493916574 $656 $759 forward 7 unknown #
straight-curve $-1 0 -4.6742534493916574 -1.5 -1 0 0 I I #
vertex $-1 $478 $760 #
straight-curve $-1 0 4.6742534493916574 -1.5 1 0 0 I I #
point $-1 45.697195348979157 4.6742534493916574 -1.5 #
point $-1 45.697195348979157 -4.6742534493916574 -1.5 #
straight-curve $-1 -45.697195348979157 0 1.5 0 -1 0 I I #
point $-1 -45.697195348979157 4.6742534493916574 1.5 #
point $-1 -45.697195348979157 -4.6742534493916574 1.5 #
straight-curve $-1 45.697195348979157 -4.6742534493916574 0 0 0 -1 I I #
straight-curve $-1 45.697195348979157 4.6742534493916574 0 0 0 -1 I I #
plane-surface $-1 182.78878139591663 0 0 -1 0 0 0 0 1 forward_v I I I I #
coedge $-1 $500 $498 $502 $676 reversed $321 $-1 #
edge $-1 $513 -91.394390697958315 $678 91.394390697958315 $512 $761 forward 7 unknown #
vertex $-1 $676 $762 #
straight-curve $-1 -182.78878139591663 -2.9926818702778677 0 0 0 -1 I I #
edge $-1 $674 -2.9926818702778677 $678 2.9926818702778677 $672 $763 forward 7 unknown #
straight-curve $-1 0 -2.9926818702778677 -91.394390697958315 -1 0 0 I I #
vertex $-1 $505 $764 #
straight-curve $-1 0 2.9926818702778677 -91.394390697958315 1 0 0 I I #
point $-1 182.78878139591663 2.9926818702778677 -91.394390697958315 #
point $-1 182.78878139591663 -2.9926818702778677 -91.394390697958315 #
straight-curve $-1 -182.78878139591663 0 91.394390697958315 0 -1 0 I I #
point $-1 -182.78878139591663 2.9926818702778677 91.394390697958315 #
point $-1 -182.78878139591663 -2.9926818702778677 91.394390697958315 #
straight-curve $-1 182.78878139591663 -2.9926818702778677 0 0 0 -1 I I #
straight-curve $-1 182.78878139591663 2.9926818702778677 0 0 0 -1 I I #
edge $-1 $765 1 $765 0 $522 $-1 forward 7 unknown #
point $-1 0.5 0 -0.25 #
edge $-1 $766 1 $766 0 $526 $-1 forward 7 unknown #
point $-1 0.5 0 -0.25 #
plane-surface $-1 182.78878139591663 0 0 -1 0 0 0 0 1 forward_v I I I I #
coedge $-1 $535 $533 $537 $696 reversed $350 $-1 #
edge $-1 $548 -91.394390697958315 $698 91.394390697958315 $547 $767 forward 7 unknown #
vertex $-1 $696 $768 #
straight-curve $-1 -182.78878139591663 -2.9926818702778677 0 0 0 -1 I I #
edge $-1 $694 -2.9926818702778677 $698 2.9926818702778677 $692 $769 forward 7 unknown #
straight-curve $-1 0 -2.9926818702778677 -91.394390697958315 -1 0 0 I I #
vertex $-1 $540 $770 #
straight-curve $-1 0 2.9926818702778677 -91.394390697958315 1 0 0 I I #
point $-1 182.78878139591663 2.9926818702778677 -91.394390697958315 #
point $-1 182.78878139591663 -2.9926818702778677 -91.394390697958315 #
straight-curve $-1 -182.78878139591663 0 91.394390697958315 0 -1 0 I I #
point $-1 -182.78878139591663 2.9926818702778677 91.394390697958315 #
point $-1 -182.78878139591663 -2.9926818702778677 91.394390697958315 #
straight-curve $-1 182.78878139591663 -2.9926818702778677 0 0 0 -1 I I #
straight-curve $-1 182.78878139591663 2.9926818702778677 0 0 0 -1 I I #
edge $-1 $771 1 $771 0 $557 $-1 forward 7 unknown #
point $-1 0.5 0 -0.25 #
edge $-1 $772 1 $772 0 $561 $-1 forward 7 unknown #
point $-1 0.5 0 -0.25 #
plane-surface $-1 182.78878139591663 0 0 -1 0 0 0 0 1 forward_v I I I I #
coedge $-1 $570 $568 $572 $716 reversed $379 $-1 #
edge $-1 $583 -91.394390697958315 $718 91.394390697958315 $582 $773 forward 7 unknown #
vertex $-1 $716 $774 #
straight-curve $-1 -182.78878139591663 -2.9926818702778677 0 0 0 -1 I I #
edge $-1 $714 -2.9926818702778677 $718 2.9926818702778677 $712 $775 forward 7 unknown #
straight-curve $-1 0 -2.9926818702778677 -91.394390697958315 -1 0 0 I I #
vertex $-1 $575 $776 #
straight-curve $-1 0 2.9926818702778677 -91.394390697958315 1 0 0 I I #
point $-1 182.78878139591663 2.9926818702778677 -91.394390697958315 #
point $-1 182.78878139591663 -2.9926818702778677 -91.394390697958315 #
straight-curve $-1 -182.78878139591663 0 91.394390697958315 0 -1 0 I I #
point $-1 -182.78878139591663 2.9926818702778677 91.394390697958315 #
point $-1 -182.78878139591663 -2.9926818702778677 91.394390697958315 #
straight-curve $-1 182.78878139591663 -2.9926818702778677 0 0 0 -1 I I #
straight-curve $-1 182.78878139591663 2.9926818702778677 0 0 0 -1 I I #
edge $-1 $777 1 $777 0 $592 $-1 forward 7 unknown #
point $-1 0.5 0 -0.25 #
edge $-1 $778 1 $778 0 $596 $-1 forward 7 unknown #
point $-1 0.5 0 -0.25 #
plane-surface $-1 182.78878139591663 0 0 -1 0 0 0 0 1 forward_v I I I I #
coedge $-1 $605 $603 $607 $736 reversed $408 $-1 #
edge $-1 $618 -91.394390697958315 $738 91.394390697958315 $617 $779 forward 7 unknown #
vertex $-1 $736 $780 #
straight-curve $-1 -182.78878139591663 -4.1882888294701957 0 0 0 -1 I I #
edge $-1 $734 -4.1882888294701957 $738 4.1882888294701957 $732 $781 forward 7 unknown #
straight-curve $-1 0 -4.1882888294701957 -91.394390697958315 -1 0 0 I I #
vertex $-1 $610 $782 #
straight-curve $-1 0 4.1882888294701957 -91.394390697958315 1 0 0 I I #
point $-1 182.78878139591663 4.1882888294701957 -91.394390697958315 #
point $-1 182.78878139591663 -4.1882888294701957 -91.394390697958315 #
straight-curve $-1 -182.78878139591663 0 91.394390697958315 0 -1 0 I I #
point $-1 -182.78878139591663 4.1882888294701957 91.394390697958315 #
point $-1 -182.78878139591663 -4.1882888294701957 91.394390697958315 #
straight-curve $-1 182.78878139591663 -4.1882888294701957 0 0 0 -1 I I #
straight-curve $-1 182.78878139591663 4.1882888294701957 0 0 0 -1 I I #
edge $-1 $783 1 $783 0 $627 $-1 forward 7 unknown #
point $-1 0.5 0 -0.25 #
edge $-1 $784 1 $784 0 $631 $-1 forward 7 unknown #
point $-1 0.5 0 -0.25 #
edge $-1 $785 1 $785 0 $635 $-1 forward 7 unknown #
point $-1 0.5 0 -0.25 #
straight-curve $-1 -45.697195348979157 19.578794390233575 0 0 0 -1 I I #
point $-1 -45.697195348979157 -19.578794390233575 -7.8287094326694335 #
straight-curve $-1 -45.697195348979157 0 -7.8287094326694335 0 1 0 I I #
point $-1 -45.697195348979157 19.578794390233575 -7.8287094326694335 #
straight-curve $-1 -45.697195348979157 4.6742534493916574 0 0 0 -1 I I #
point $-1 -45.697195348979157 -4.6742534493916574 -1.5 #
straight-curve $-1 -45.697195348979157 0 -1.5 0 1 0 I I #
point $-1 -45.697195348979157 4.6742534493916574 -1.5 #
straight-curve $-1 -182.78878139591663 2.9926818702778677 0 0 0 -1 I I #
point $-1 -182.78878139591663 -2.9926818702778677 -91.394390697958315 #
straight-curve $-1 -182.78878139591663 0 -91.394390697958315 0 1 0 I I #
point $-1 -182.78878139591663 2.9926818702778677 -91.394390697958315 #
vertex $-1 $687 $786 #
vertex $-1 $689 $787 #
straight-curve $-1 -182.78878139591663 2.9926818702778677 0 0 0 -1 I I #
point $-1 -182.78878139591663 -2.9926818702778677 -91.394390697958315 #
straight-curve $-1 -182.78878139591663 0 -91.394390697958315 0 1 0 I I #
point $-1 -182.78878139591663 2.9926818702778677 -91.394390697958315 #
vertex $-1 $707 $788 #
vertex $-1 $709 $789 #
straight-curve $-1 -182.78878139591663 2.9926818702778677 0 0 0 -1 I I #
point $-1 -182.78878139591663 -2.9926818702778677 -91.394390697958315 #
straight-curve $-1 -182.78878139591663 0 -91.394390697958315 0 1 0 I I #
point $-1 -182.78878139591663 2.9926818702778677 -91.394390697958315 #
vertex $-1 $727 $790 #
vertex $-1 $729 $791 #
straight-curve $-1 -182.78878139591663 4.1882888294701957 0 0 0 -1 I I #
point $-1 -182.78878139591663 -4.1882888294701957 -91.394390697958315 #
straight-curve $-1 -182.78878139591663 0 -91.394390697958315 0 1 0 I I #
point $-1 -182.78878139591663 4.1882888294701957 -91.394390697958315 #
vertex $-1 $747 $792 #
vertex $-1 $749 $793 #
vertex $-1 $751 $794 #
point $-1 0 0 0.25 #
point $-1 0 0 0.25 #
point $-1 0 0 0.25 #
point $-1 0 0 0.25 #
point $-1 0 0 0.25 #
point $-1 0 0 0.25 #
point $-1 0 0 0.25 #
point $-1 0 0 0.25 #
point $-1 0 0 0.25 #
End-of-ACIS-data 