500 0 13 0           
7 Unknown 11 ACIS 5.0 NT 24 Fri Mar 26 19:53:39 1999 
-1 9.9999999999999995e-007 1e-010 
body $-1 $13 $-1 $14 #
body $-1 $15 $-1 $16 #
body $-1 $17 $-1 $18 #
body $-1 $19 $-1 $20 #
body $-1 $21 $-1 $22 #
body $-1 $23 $-1 $24 #
body $-1 $25 $-1 $26 #
body $-1 $27 $-1 $28 #
body $-1 $29 $-1 $30 #
body $-1 $31 $-1 $32 #
body $-1 $33 $-1 $34 #
body $-1 $35 $-1 $36 #
body $-1 $37 $-1 $38 #
lump $-1 $-1 $39 $0 #
transform $-1 1 0 0 0 1 0 0 0 1 63.821527756584366 31.184257641736931 8.3753148274282569 1 rotate no_reflect no_shear #
lump $-1 $-1 $40 $1 #
transform $-1 1 0 0 0 1 0 0 0 1 63.821527756584366 31.184257641736931 8.3753148274282569 1 rotate no_reflect no_shear #
lump $-1 $-1 $41 $2 #
transform $-1 1 0 0 0 1 0 0 0 1 63.821527756584366 31.184257641736931 8.3753148274282569 1 rotate no_reflect no_shear #
lump $-1 $-1 $42 $3 #
transform $-1 1 0 0 0 1 0 0 0 1 63.821527756584366 31.184257641736931 8.3753148274282569 1 rotate no_reflect no_shear #
lump $-1 $-1 $43 $4 #
transform $-1 1 0 0 0 1 0 0 0 1 63.821527756584366 31.184257641736931 8.3753148274282569 1 rotate no_reflect no_shear #
lump $-1 $-1 $44 $5 #
transform $-1 1 0 0 0 1 0 0 0 1 63.821527756584366 31.184257641736931 8.3753148274282569 1 rotate no_reflect no_shear #
lump $-1 $-1 $45 $6 #
transform $-1 1 0 0 0 1 0 0 0 1 63.821527756584366 31.184257641736931 8.3753148274282569 1 rotate no_reflect no_shear #
lump $-1 $-1 $46 $7 #
transform $-1 1 0 0 0 1 0 0 0 1 63.821527756584366 31.184257641736931 8.3753148274282569 1 rotate no_reflect no_shear #
lump $-1 $-1 $47 $8 #
transform $-1 1 0 0 0 1 0 0 0 1 63.821527756584366 31.184257641736931 8.3753148274282569 1 rotate no_reflect no_shear #
lump $-1 $-1 $48 $9 #
transform $-1 1 0 0 0 1 0 0 0 1 63.821527756584366 31.184257641736931 8.3753148274282569 1 rotate no_reflect no_shear #
lump $-1 $-1 $49 $10 #
transform $-1 1 0 0 0 1 0 0 0 1 63.821527756584366 31.184257641736931 8.3753148274282569 1 rotate no_reflect no_shear #
lump $-1 $-1 $50 $11 #
transform $-1 1 0 0 0 1 0 0 0 1 63.821527756584366 31.184257641736931 8.3753148274282569 1 rotate no_reflect no_shear #
lump $-1 $-1 $51 $12 #
transform $-1 1 0 0 0 1 0 0 0 1 63.821527756584366 31.184257641736931 8.3753148274282569 1 rotate no_reflect no_shear #
shell $-1 $-1 $-1 $52 $-1 $13 #
shell $-1 $-1 $-1 $53 $-1 $15 #
shell $-1 $-1 $-1 $54 $-1 $17 #
shell $-1 $-1 $-1 $55 $-1 $19 #
shell $-1 $-1 $-1 $56 $-1 $21 #
shell $-1 $-1 $-1 $57 $-1 $23 #
shell $-1 $-1 $-1 $58 $-1 $25 #
shell $-1 $-1 $-1 $59 $-1 $27 #
shell $-1 $-1 $-1 $60 $-1 $29 #
shell $-1 $-1 $-1 $61 $-1 $31 #
shell $-1 $-1 $-1 $62 $-1 $33 #
shell $-1 $-1 $-1 $63 $-1 $35 #
shell $-1 $-1 $-1 $64 $-1 $37 #
face $-1 $65 $66 $39 $-1 $67 forward single #
face $-1 $68 $69 $40 $-1 $70 forward single #
face $-1 $71 $72 $41 $-1 $73 forward single #
face $-1 $74 $75 $42 $-1 $76 reversed single #
face $-1 $77 $78 $43 $-1 $79 forward single #
face $-1 $80 $81 $44 $-1 $82 reversed single #
face $-1 $83 $84 $45 $-1 $85 forward single #
face $-1 $86 $87 $46 $-1 $88 reversed single #
face $-1 $89 $90 $47 $-1 $91 forward single #
face $-1 $92 $93 $48 $-1 $94 reversed single #
face $-1 $95 $96 $49 $-1 $97 forward single #
face $-1 $98 $99 $50 $-1 $100 reversed single #
face $-1 $101 $102 $51 $-1 $103 forward single #
face $-1 $104 $105 $39 $-1 $106 reversed single #
loop $-1 $-1 $107 $52 #
plane-surface $-1 0 0 8.3753148274282569 0 0 1 1 0 0 forward_v I I I I #
face $-1 $108 $109 $40 $-1 $110 reversed single #
loop $-1 $-1 $111 $53 #
plane-surface $-1 -60.025414457937103 0 -1.0622902380260157 0 0 1 1 0 0 forward_v I I I I #
face $-1 $112 $113 $41 $-1 $114 reversed single #
loop $-1 $-1 $115 $54 #
plane-surface $-1 59.194917145672214 0 -0.78426660452734787 0 0 1 1 0 0 forward_v I I I I #
face $-1 $116 $117 $42 $-1 $118 reversed single #
loop $-1 $-1 $119 $55 #
plane-surface $-1 -28.529899235777361 55.753775750449762 140.25180330046237 -1 0 0 0 0.5877852598018023 0.80901698891910034 forward_v I I I I #
face $-1 $120 $121 $43 $-1 $122 forward single #
loop $-1 $123 $124 $56 #
cone-surface $-1 -34.506357766889295 24.854510716440185 3.2624325748699121 0 -0.5877852598018023 -0.80901698891910034 2 0 0 1 I I 0 1 2 forward I I I I #
face $-1 $125 $126 $44 $-1 $127 reversed single #
loop $-1 $-1 $128 $57 #
plane-surface $-1 -6.0793255993610806 55.753775750449762 140.25180330046237 -1 0 0 0 0.5877852598018023 0.80901698891910034 forward_v I I I I #
face $-1 $129 $130 $45 $-1 $131 forward single #
loop $-1 $132 $133 $58 #
cone-surface $-1 -12.055784130473022 24.854510716440185 3.2624325748699121 0 -0.5877852598018023 -0.80901698891910034 2 0 0 1 I I 0 1 2 forward I I I I #
face $-1 $134 $135 $46 $-1 $136 reversed single #
loop $-1 $-1 $137 $59 #
plane-surface $-1 16.371248037055192 55.753775750449762 140.25180330046237 -1 0 0 0 0.5877852598018023 0.80901698891910034 forward_v I I I I #
face $-1 $138 $139 $47 $-1 $140 forward single #
loop $-1 $141 $142 $60 #
cone-surface $-1 10.394789505943258 24.854510716440185 3.2624325748699121 0 -0.5877852598018023 -0.80901698891910034 2 0 0 1 I I 0 1 2 forward I I I I #
face $-1 $143 $144 $48 $-1 $145 reversed single #
loop $-1 $-1 $146 $61 #
plane-surface $-1 38.821821673471476 55.753775750449762 140.25180330046237 -1 0 0 0 0.5877852598018023 0.80901698891910034 forward_v I I I I #
face $-1 $147 $148 $49 $-1 $149 forward single #
loop $-1 $150 $151 $62 #
cone-surface $-1 32.845363142359538 24.854510716440185 3.2624325748699121 0 -0.5877852598018023 -0.80901698891910034 2 0 0 1 I I 0 1 2 forward I I I I #
face $-1 $152 $153 $50 $-1 $154 reversed single #
loop $-1 $-1 $155 $63 #
plane-surface $-1 -17.287309989025342 -127.51769554441182 86.328556713644389 1 0 0 0 0.75470958851134928 -0.65605901945558964 forward_v I I I I #
face $-1 $156 $157 $51 $-1 $158 forward single #
loop $-1 $159 $160 $64 #
cone-surface $-1 -9.1603374186873765 -26.423839619143433 3.5300083561452644 0 0.75470958851134928 -0.65605901945558964 1.5 0 0 1 I I 0 1 1.5 forward I I I I #
face $-1 $161 $162 $39 $-1 $163 reversed single #
loop $-1 $-1 $164 $65 #
plane-surface $-1 0 0 -8.3753148274282569 0 0 1 1 0 0 forward_v I I I I #
coedge $-1 $165 $166 $167 $168 forward $66 $-1 #
face $-1 $169 $170 $40 $-1 $171 reversed single #
loop $-1 $-1 $172 $68 #
plane-surface $-1 -60.025414457937103 0 -5.4298659874750825 0 0 1 1 0 0 forward_v I I I I #
coedge $-1 $173 $174 $175 $176 forward $69 $-1 #
face $-1 $177 $178 $41 $-1 $179 reversed single #
loop $-1 $-1 $180 $71 #
plane-surface $-1 59.194917145672214 0 -5.7719331090452641 0 0 1 1 0 0 forward_v I I I I #
coedge $-1 $181 $182 $183 $184 reversed $72 $-1 #
face $-1 $185 $186 $42 $-1 $187 reversed single #
loop $-1 $-1 $188 $74 #
plane-surface $-1 -34.506357766889295 -19.272930796253988 36.986402872765026 0 0.5877852598018023 0.80901698891910034 1 0 0 forward_v I I I I #
coedge $-1 $189 $190 $191 $192 reversed $75 $-1 #
face $-1 $-1 $193 $43 $-1 $194 forward single #
loop $-1 $195 $196 $77 #
cone-surface $-1 -34.506357766889295 23.47568097936735 1.3646362903987477 0 -0.5877852598018023 -0.80901698891910034 1 0 0 1 I I -0.70710678118654746 0.70710678118654746 1 forward I I I I #
loop $-1 $-1 $197 $56 #
coedge $-1 $124 $124 $198 $199 reversed $78 $-1 #
face $-1 $200 $201 $44 $-1 $202 reversed single #
loop $-1 $-1 $203 $80 #
plane-surface $-1 -12.055784130473015 -19.272930796253988 36.986402872765026 0 0.5877852598018023 0.80901698891910034 1 0 0 forward_v I I I I #
coedge $-1 $204 $205 $206 $207 reversed $81 $-1 #
face $-1 $-1 $208 $45 $-1 $209 forward single #
loop $-1 $210 $211 $83 #
cone-surface $-1 -12.055784130473022 23.47568097936735 1.3646362903987477 0 -0.5877852598018023 -0.80901698891910034 1 0 0 1 I I -0.70710678118654746 0.70710678118654746 1 forward I I I I #
loop $-1 $-1 $212 $58 #
coedge $-1 $133 $133 $213 $214 reversed $84 $-1 #
face $-1 $215 $216 $46 $-1 $217 reversed single #
loop $-1 $-1 $218 $86 #
plane-surface $-1 10.394789505943258 -19.272930796253988 36.986402872765026 0 0.5877852598018023 0.80901698891910034 1 0 0 forward_v I I I I #
coedge $-1 $219 $220 $221 $222 reversed $87 $-1 #
face $-1 $-1 $223 $47 $-1 $224 forward single #
loop $-1 $225 $226 $89 #
cone-surface $-1 10.394789505943258 23.47568097936735 1.3646362903987477 0 -0.5877852598018023 -0.80901698891910034 1 0 0 1 I I -0.70710678118654746 0.70710678118654746 1 forward I I I I #
loop $-1 $-1 $227 $60 #
coedge $-1 $142 $142 $228 $229 reversed $90 $-1 #
face $-1 $230 $231 $48 $-1 $232 reversed single #
loop $-1 $-1 $233 $92 #
plane-surface $-1 32.845363142359538 -19.272930796253988 36.986402872765026 0 0.5877852598018023 0.80901698891910034 1 0 0 forward_v I I I I #
coedge $-1 $234 $235 $236 $237 reversed $93 $-1 #
face $-1 $-1 $238 $49 $-1 $239 forward single #
loop $-1 $240 $241 $95 #
cone-surface $-1 32.845363142359538 23.47568097936735 1.3646362903987477 0 -0.5877852598018023 -0.80901698891910034 1 0 0 1 I I -0.70710678118654746 0.70710678118654746 1 forward I I I I #
loop $-1 $-1 $242 $62 #
coedge $-1 $151 $151 $243 $244 reversed $96 $-1 #
face $-1 $245 $246 $50 $-1 $247 reversed single #
loop $-1 $-1 $248 $98 #
plane-surface $-1 -9.1603374186873694 -31.184257641736949 2.5871788733595196 0 -0.75470958851134928 0.65605901945558964 1 0 0 forward_v I I I I #
coedge $-1 $249 $250 $251 $252 reversed $99 $-1 #
face $-1 $-1 $253 $51 $-1 $254 forward single #
loop $-1 $255 $256 $101 #
cone-surface $-1 -9.1603374186873765 -23.613164251748277 1.0867255973049534 0 0.75470958851134928 -0.65605901945558964 0.75 0 0 1 I I -0.70710678118654757 0.70710678118654757 0.75 forward I I I I #
loop $-1 $-1 $257 $64 #
coedge $-1 $160 $160 $258 $259 reversed $102 $-1 #
face $-1 $260 $261 $39 $-1 $262 reversed single #
loop $-1 $-1 $263 $104 #
plane-surface $-1 0 -31.184257641736931 0 0 1 0 0 0 1 forward_v I I I I #
coedge $-1 $264 $265 $266 $267 forward $105 $-1 #
coedge $-1 $268 $107 $269 $270 forward $66 $-1 #
coedge $-1 $107 $268 $271 $272 forward $66 $-1 #
coedge $-1 $273 $274 $107 $168 reversed $275 $-1 #
edge $-1 $276 -31.184257641736931 $277 31.184257641736931 $167 $278 forward 7 unknown #
face $-1 $279 $280 $40 $-1 $281 reversed single #
loop $-1 $-1 $282 $108 #
plane-surface $-1 -56.22930115928984 0 -3.2460781127505491 -1 0 0 0 0 1 forward_v I I I I #
coedge $-1 $283 $284 $285 $286 forward $109 $-1 #
coedge $-1 $287 $111 $288 $289 reversed $69 $-1 #
coedge $-1 $111 $287 $290 $291 reversed $69 $-1 #
coedge $-1 $282 $292 $111 $176 reversed $170 $-1 #
edge $-1 $293 -31.184257641736931 $294 31.184257641736931 $175 $295 forward 7 unknown #
face $-1 $296 $297 $41 $-1 $298 reversed single #
loop $-1 $-1 $299 $112 #
plane-surface $-1 54.568306534760069 0 -3.278099856786306 1 0 0 0 0 -1 forward_v I I I I #
coedge $-1 $300 $301 $302 $303 reversed $113 $-1 #
coedge $-1 $304 $115 $305 $306 reversed $72 $-1 #
coedge $-1 $115 $304 $307 $308 reversed $72 $-1 #
coedge $-1 $309 $310 $115 $184 forward $311 $-1 #
edge $-1 $312 -31.184257641736931 $313 31.184257641736931 $183 $314 forward 7 unknown #
face $-1 $315 $316 $42 $-1 $317 reversed single #
loop $-1 $-1 $318 $116 #
plane-surface $-1 -40.482816298001225 55.753775750449762 140.25180330046237 1 0 0 0 -0.5877852598018023 -0.80901698891910034 forward_v I I I I #
coedge $-1 $319 $320 $321 $322 reversed $117 $-1 #
coedge $-1 $190 $119 $323 $324 reversed $75 $-1 #
coedge $-1 $119 $189 $319 $325 reversed $75 $-1 #
coedge $-1 $321 $326 $119 $192 forward $316 $-1 #
edge $-1 $327 61.75058682280293 $328 69.798792736815528 $191 $329 forward 7 unknown #
loop $-1 $-1 $198 $120 #
plane-surface $-1 -34.506357766889295 -19.272930796253988 36.986402872765026 0 0.5877852598018023 0.80901698891910034 1 0 0 forward_v I I I I #
loop $-1 $-1 $330 $77 #
coedge $-1 $196 $196 $197 $331 reversed $121 $-1 #
coedge $-1 $197 $197 $196 $331 forward $123 $-1 #
coedge $-1 $198 $198 $124 $199 forward $193 $-1 #
edge $-1 $332 -7.7731584384264159e-016 $332 6.2831853071795996 $198 $333 forward 7 unknown #
face $-1 $334 $335 $44 $-1 $336 forward single #
loop $-1 $-1 $337 $125 #
plane-surface $-1 -18.032242661584949 55.753775750449762 140.25180330046237 1 0 0 0 -0.5877852598018023 -0.80901698891910034 forward_v I I I I #
coedge $-1 $338 $339 $340 $341 reversed $126 $-1 #
coedge $-1 $205 $128 $342 $343 reversed $81 $-1 #
coedge $-1 $128 $204 $338 $344 reversed $81 $-1 #
coedge $-1 $340 $345 $128 $207 forward $346 $-1 #
edge $-1 $347 61.75058682280293 $348 69.798792736815528 $206 $349 forward 7 unknown #
loop $-1 $-1 $213 $129 #
plane-surface $-1 -12.055784130473015 -19.272930796253988 36.986402872765026 0 0.5877852598018023 0.80901698891910034 1 0 0 forward_v I I I I #
loop $-1 $-1 $350 $83 #
coedge $-1 $211 $211 $212 $351 reversed $130 $-1 #
coedge $-1 $212 $212 $211 $351 forward $132 $-1 #
coedge $-1 $213 $213 $133 $214 forward $208 $-1 #
edge $-1 $352 -7.7731584384264159e-016 $352 6.2831853071795996 $213 $353 forward 7 unknown #
face $-1 $354 $355 $46 $-1 $356 forward single #
loop $-1 $-1 $357 $134 #
plane-surface $-1 4.4183309748313242 55.753775750449762 140.25180330046237 1 0 0 0 -0.5877852598018023 -0.80901698891910034 forward_v I I I I #
coedge $-1 $358 $359 $360 $361 reversed $135 $-1 #
coedge $-1 $220 $137 $362 $363 reversed $87 $-1 #
coedge $-1 $137 $219 $358 $364 reversed $87 $-1 #
coedge $-1 $360 $365 $137 $222 forward $366 $-1 #
edge $-1 $367 61.75058682280293 $368 69.798792736815528 $221 $369 forward 7 unknown #
loop $-1 $-1 $228 $138 #
plane-surface $-1 10.394789505943258 -19.272930796253988 36.986402872765026 0 0.5877852598018023 0.80901698891910034 1 0 0 forward_v I I I I #
loop $-1 $-1 $370 $89 #
coedge $-1 $226 $226 $227 $371 reversed $139 $-1 #
coedge $-1 $227 $227 $226 $371 forward $141 $-1 #
coedge $-1 $228 $228 $142 $229 forward $223 $-1 #
edge $-1 $372 -7.7731584384264159e-016 $372 6.2831853071795996 $228 $373 forward 7 unknown #
face $-1 $374 $375 $48 $-1 $376 forward single #
loop $-1 $-1 $377 $143 #
plane-surface $-1 26.868904611247604 55.753775750449762 140.25180330046237 1 0 0 0 -0.5877852598018023 -0.80901698891910034 forward_v I I I I #
coedge $-1 $378 $379 $380 $381 reversed $144 $-1 #
coedge $-1 $235 $146 $382 $383 reversed $93 $-1 #
coedge $-1 $146 $234 $378 $384 reversed $93 $-1 #
coedge $-1 $380 $385 $146 $237 forward $386 $-1 #
edge $-1 $387 61.75058682280293 $388 69.798792736815528 $236 $389 forward 7 unknown #
loop $-1 $-1 $243 $147 #
plane-surface $-1 32.845363142359538 -19.272930796253988 36.986402872765026 0 0.5877852598018023 0.80901698891910034 1 0 0 forward_v I I I I #
loop $-1 $-1 $390 $95 #
coedge $-1 $241 $241 $242 $391 reversed $148 $-1 #
coedge $-1 $242 $242 $241 $391 forward $150 $-1 #
coedge $-1 $243 $243 $151 $244 forward $238 $-1 #
edge $-1 $392 -7.7731584384264159e-016 $392 6.2831853071795996 $243 $393 forward 7 unknown #
face $-1 $394 $395 $50 $-1 $396 forward single #
loop $-1 $-1 $397 $152 #
plane-surface $-1 -1.0333648483493967 -127.51769554441182 86.328556713644389 -1 0 0 0 -0.75470958851134928 0.65605901945558964 forward_v I I I I #
coedge $-1 $398 $399 $400 $401 reversed $153 $-1 #
coedge $-1 $250 $155 $402 $403 reversed $99 $-1 #
coedge $-1 $155 $249 $398 $404 reversed $99 $-1 #
coedge $-1 $400 $405 $155 $252 forward $406 $-1 #
edge $-1 $407 34.788963529393939 $408 40.577099483462653 $251 $409 forward 7 unknown #
loop $-1 $-1 $258 $156 #
plane-surface $-1 -9.1603374186873694 -31.184257641736949 2.5871788733595196 0 -0.75470958851134928 0.65605901945558964 1 0 0 forward_v I I I I #
loop $-1 $-1 $410 $101 #
coedge $-1 $256 $256 $257 $411 reversed $157 $-1 #
coedge $-1 $257 $257 $256 $411 forward $159 $-1 #
coedge $-1 $258 $258 $160 $259 forward $253 $-1 #
edge $-1 $412 -4.8772808984457398e-016 $412 6.2831853071795996 $258 $413 forward 7 unknown #
face $-1 $414 $415 $39 $-1 $416 reversed single #
loop $-1 $-1 $417 $161 #
plane-surface $-1 -63.821527756584366 0 0 1 0 0 0 0 -1 forward_v I I I I #
coedge $-1 $418 $271 $419 $420 forward $162 $-1 #
coedge $-1 $421 $164 $418 $422 forward $105 $-1 #
coedge $-1 $164 $421 $423 $424 forward $105 $-1 #
coedge $-1 $274 $273 $164 $267 reversed $275 $-1 #
edge $-1 $425 -31.184257641736931 $426 31.184257641736931 $266 $427 forward 7 unknown #
coedge $-1 $166 $165 $428 $429 forward $66 $-1 #
coedge $-1 $430 $431 $165 $270 reversed $415 $-1 #
edge $-1 $277 -63.821527756584366 $432 63.821527756584366 $269 $433 forward 7 unknown #
coedge $-1 $263 $434 $166 $272 reversed $162 $-1 #
edge $-1 $435 -63.821527756584366 $276 63.821527756584366 $271 $436 forward 7 unknown #
coedge $-1 $266 $167 $434 $437 forward $275 $-1 #
coedge $-1 $167 $266 $430 $438 reversed $275 $-1 #
loop $-1 $-1 $273 $414 #
vertex $-1 $168 $439 #
vertex $-1 $168 $440 #
straight-curve $-1 63.821527756584366 0 8.3753148274282569 0 1 0 I I #
face $-1 $441 $442 $40 $-1 $443 reversed single #
loop $-1 $-1 $444 $169 #
plane-surface $-1 0 -31.184257641736931 0 0 1 0 0 0 1 forward_v I I I I #
coedge $-1 $285 $175 $445 $446 reversed $170 $-1 #
coedge $-1 $447 $172 $444 $448 reversed $109 $-1 #
coedge $-1 $172 $447 $449 $450 reversed $109 $-1 #
coedge $-1 $292 $282 $172 $286 reversed $170 $-1 #
edge $-1 $451 -31.184257641736931 $452 31.184257641736931 $285 $453 forward 7 unknown #
coedge $-1 $174 $173 $454 $455 reversed $69 $-1 #
coedge $-1 $456 $457 $173 $289 forward $458 $-1 #
edge $-1 $459 -33.808820527615815 $294 -26.216593930321288 $288 $460 forward 7 unknown #
coedge $-1 $461 $445 $174 $291 forward $280 $-1 #
edge $-1 $293 26.216593930321288 $462 33.808820527615815 $290 $463 forward 7 unknown #
coedge $-1 $175 $285 $456 $464 reversed $170 $-1 #
vertex $-1 $291 $465 #
vertex $-1 $289 $466 #
straight-curve $-1 -56.22930115928984 0 -1.0622902380260157 0 1 0 I I #
face $-1 $467 $468 $41 $-1 $469 reversed single #
loop $-1 $-1 $307 $177 #
plane-surface $-1 0 -31.184257641736931 0 0 1 0 0 0 1 forward_v I I I I #
coedge $-1 $470 $471 $472 $473 reversed $178 $-1 #
coedge $-1 $474 $180 $475 $476 reversed $113 $-1 #
coedge $-1 $180 $474 $477 $478 reversed $113 $-1 #
coedge $-1 $310 $309 $180 $303 forward $311 $-1 #
edge $-1 $479 -31.184257641736931 $480 31.184257641736931 $302 $481 forward 7 unknown #
coedge $-1 $182 $181 $471 $482 forward $72 $-1 #
coedge $-1 $483 $472 $181 $306 forward $468 $-1 #
edge $-1 $484 24.970847961923962 $312 34.224069183748256 $305 $485 forward 7 unknown #
coedge $-1 $486 $487 $182 $308 forward $297 $-1 #
edge $-1 $313 -34.224069183748256 $488 -24.970847961923962 $307 $489 forward 7 unknown #
coedge $-1 $302 $183 $487 $490 forward $311 $-1 #
coedge $-1 $183 $302 $483 $491 reversed $311 $-1 #
loop $-1 $-1 $183 $467 #
vertex $-1 $491 $492 #
vertex $-1 $490 $493 #
straight-curve $-1 63.821527756584366 0 -0.78426660452734787 0 -1 0 I I #
face $-1 $-1 $494 $42 $-1 $495 forward single #
loop $-1 $-1 $191 $185 #
plane-surface $-1 0 31.184257641736931 0 0 -1 0 0 0 -1 forward_v I I I I #
coedge $-1 $496 $497 $498 $499 reversed $186 $-1 #
coedge $-1 $500 $188 $190 $325 forward $117 $-1 #
coedge $-1 $188 $500 $496 $501 forward $117 $-1 #
coedge $-1 $498 $191 $188 $322 forward $316 $-1 #
edge $-1 $328 11.276720352332713 $502 23.229637414556578 $321 $503 forward 7 unknown #
coedge $-1 $504 $505 $189 $324 forward $494 $-1 #
edge $-1 $506 -7.7700351295394086 $327 3.3073697665120498 $323 $507 forward 7 unknown #
edge $-1 $328 -62.368515283473869 $506 -48.676089725326321 $190 $508 forward 7 unknown #
coedge $-1 $191 $498 $504 $509 reversed $316 $-1 #
vertex $-1 $509 $510 #
vertex $-1 $192 $511 #
straight-curve $-1 -28.529899235777361 31.184257641736931 70.125901650231185 0 0 -1 I I #
coedge $-1 $330 $330 $-1 $512 reversed $195 $-1 #
edge $-1 $513 0 $513 6.2831853071796004 $196 $514 forward 7 unknown #
vertex $-1 $199 $515 #
ellipse-curve $-1 -34.506357766889295 25.6455551937112 4.3512118704219542 0 0.5877852598018023 0.80901698891910034 2 0 0 1 I I #
face $-1 $-1 $346 $44 $-1 $516 reversed single #
loop $-1 $-1 $517 $200 #
plane-surface $-1 0 0 8.3753148274282569 0 0 1 1 0 0 forward_v I I I I #
coedge $-1 $518 $519 $520 $521 reversed $201 $-1 #
coedge $-1 $522 $203 $205 $344 forward $126 $-1 #
coedge $-1 $203 $522 $518 $523 forward $126 $-1 #
coedge $-1 $520 $206 $203 $341 forward $346 $-1 #
edge $-1 $348 0.051433534124573299 $524 12.004350596348441 $340 $525 forward 7 unknown #
coedge $-1 $526 $527 $204 $343 forward $335 $-1 #
edge $-1 $528 -7.7700351295394086 $347 3.3073697665120498 $342 $529 forward 7 unknown #
edge $-1 $348 -62.368515283473869 $528 -48.676089725326321 $205 $530 forward 7 unknown #
coedge $-1 $206 $520 $526 $531 reversed $346 $-1 #
loop $-1 $-1 $520 $334 #
vertex $-1 $531 $532 #
vertex $-1 $207 $533 #
straight-curve $-1 -6.0793255993610806 31.184257641736931 70.125901650231185 0 0 -1 I I #
coedge $-1 $350 $350 $-1 $534 reversed $210 $-1 #
edge $-1 $535 0 $535 6.2831853071796004 $211 $536 forward 7 unknown #
vertex $-1 $214 $537 #
ellipse-curve $-1 -12.055784130473022 25.6455551937112 4.3512118704219542 0 0.5877852598018023 0.80901698891910034 2 0 0 1 I I #
face $-1 $-1 $366 $46 $-1 $538 reversed single #
loop $-1 $-1 $539 $215 #
plane-surface $-1 0 0 8.3753148274282569 0 0 1 1 0 0 forward_v I I I I #
coedge $-1 $540 $541 $542 $543 reversed $216 $-1 #
coedge $-1 $544 $218 $220 $364 forward $135 $-1 #
coedge $-1 $218 $544 $540 $545 forward $135 $-1 #
coedge $-1 $542 $221 $218 $361 forward $366 $-1 #
edge $-1 $368 -11.173853284083563 $546 0.77906377814030492 $360 $547 forward 7 unknown #
coedge $-1 $548 $549 $219 $363 forward $355 $-1 #
edge $-1 $550 -7.7700351295394086 $367 3.3073697665120498 $362 $551 forward 7 unknown #
edge $-1 $368 -62.368515283473869 $550 -48.676089725326321 $220 $552 forward 7 unknown #
coedge $-1 $221 $542 $548 $553 reversed $366 $-1 #
loop $-1 $-1 $542 $354 #
vertex $-1 $553 $554 #
vertex $-1 $222 $555 #
straight-curve $-1 16.371248037055192 31.184257641736931 70.125901650231185 0 0 -1 I I #
coedge $-1 $370 $370 $-1 $556 reversed $225 $-1 #
edge $-1 $557 0 $557 6.2831853071796004 $226 $558 forward 7 unknown #
vertex $-1 $229 $559 #
ellipse-curve $-1 10.394789505943258 25.6455551937112 4.3512118704219542 0 0.5877852598018023 0.80901698891910034 2 0 0 1 I I #
face $-1 $-1 $386 $48 $-1 $560 reversed single #
loop $-1 $-1 $561 $230 #
plane-surface $-1 0 0 8.3753148274282569 0 0 1 1 0 0 forward_v I I I I #
coedge $-1 $562 $563 $564 $565 reversed $231 $-1 #
coedge $-1 $566 $233 $235 $384 forward $144 $-1 #
coedge $-1 $233 $566 $562 $567 forward $144 $-1 #
coedge $-1 $564 $236 $233 $381 forward $386 $-1 #
edge $-1 $388 -22.399140102291707 $568 -10.446223040067835 $380 $569 forward 7 unknown #
coedge $-1 $570 $571 $234 $383 forward $375 $-1 #
edge $-1 $572 -7.7700351295394086 $387 3.3073697665120498 $382 $573 forward 7 unknown #
edge $-1 $388 -62.368515283473869 $572 -48.676089725326321 $235 $574 forward 7 unknown #
coedge $-1 $236 $564 $570 $575 reversed $386 $-1 #
loop $-1 $-1 $564 $374 #
vertex $-1 $575 $576 #
vertex $-1 $237 $577 #
straight-curve $-1 38.821821673471476 31.184257641736931 70.125901650231185 0 0 -1 I I #
coedge $-1 $390 $390 $-1 $578 reversed $240 $-1 #
edge $-1 $579 0 $579 6.2831853071796004 $241 $580 forward 7 unknown #
vertex $-1 $244 $581 #
ellipse-curve $-1 32.845363142359538 25.6455551937112 4.3512118704219542 0 0.5877852598018023 0.80901698891910034 2 0 0 1 I I #
face $-1 $-1 $406 $50 $-1 $582 reversed single #
loop $-1 $-1 $583 $245 #
plane-surface $-1 0 0 8.3753148274282569 0 0 1 1 0 0 forward_v I I I I #
coedge $-1 $584 $585 $586 $587 reversed $246 $-1 #
coedge $-1 $588 $248 $250 $404 forward $153 $-1 #
coedge $-1 $248 $588 $584 $589 forward $153 $-1 #
coedge $-1 $586 $251 $248 $401 forward $406 $-1 #
edge $-1 $408 -12.707141279681657 $590 3.546803860994288 $400 $591 forward 7 unknown #
coedge $-1 $592 $593 $249 $403 forward $395 $-1 #
edge $-1 $594 -37.60613982363266 $407 -32.574590130468977 $402 $595 forward 7 unknown #
edge $-1 $408 2.7071234964702059e-014 $594 7.6693552621820134 $250 $596 forward 7 unknown #
coedge $-1 $251 $586 $592 $597 reversed $406 $-1 #
loop $-1 $-1 $586 $394 #
vertex $-1 $597 $598 #
vertex $-1 $252 $599 #
straight-curve $-1 -17.287309989025342 -31.184257641736934 43.164278356822194 0 0 -1 I I #
coedge $-1 $410 $410 $-1 $600 reversed $255 $-1 #
edge $-1 $601 0 $601 6.2831853071796004 $256 $602 forward 7 unknown #
vertex $-1 $259 $603 #
ellipse-curve $-1 -9.1603374186873765 -28.668482795155093 5.4812468503938963 0 -0.75470958851134928 0.65605901945558964 1.5 0 0 1 I I #
face $-1 $-1 $275 $39 $-1 $604 reversed single #
loop $-1 $-1 $430 $260 #
plane-surface $-1 0 31.184257641736931 0 0 -1 0 0 0 -1 forward_v I I I I #
coedge $-1 $605 $428 $431 $606 forward $261 $-1 #
coedge $-1 $434 $263 $264 $422 reversed $162 $-1 #
coedge $-1 $428 $605 $263 $420 reversed $261 $-1 #
edge $-1 $435 -8.3753148274282569 $607 8.3753148274282569 $419 $608 forward 7 unknown #
coedge $-1 $265 $264 $605 $609 forward $105 $-1 #
edge $-1 $426 -63.821527756584366 $607 63.821527756584366 $418 $610 forward 7 unknown #
coedge $-1 $431 $430 $265 $424 reversed $415 $-1 #
edge $-1 $611 -63.821527756584366 $425 63.821527756584366 $423 $612 forward 7 unknown #
vertex $-1 $267 $613 #
vertex $-1 $437 $614 #
straight-curve $-1 63.821527756584366 0 -8.3753148274282569 0 -1 0 I I #
coedge $-1 $417 $419 $268 $429 reversed $261 $-1 #
edge $-1 $432 -31.184257641736931 $435 31.184257641736931 $428 $615 forward 7 unknown #
coedge $-1 $423 $269 $274 $438 forward $415 $-1 #
coedge $-1 $269 $423 $417 $606 reversed $415 $-1 #
vertex $-1 $270 $616 #
straight-curve $-1 0 31.184257641736931 8.3753148274282569 -1 0 0 I I #
coedge $-1 $271 $418 $273 $437 reversed $162 $-1 #
vertex $-1 $429 $617 #
straight-curve $-1 0 -31.184257641736931 8.3753148274282569 1 0 0 I I #
edge $-1 $276 -8.3753148274282569 $426 8.3753148274282569 $273 $618 forward 7 unknown #
edge $-1 $277 -8.3753148274282569 $425 8.3753148274282569 $274 $619 forward 7 unknown #
point $-1 63.821527756584366 -31.184257641736931 8.3753148274282569 #
point $-1 63.821527756584366 31.184257641736931 8.3753148274282569 #
face $-1 $-1 $458 $40 $-1 $620 reversed single #
loop $-1 $-1 $621 $279 #
plane-surface $-1 -63.821527756584366 0 0 1 0 0 0 0 -1 forward_v I I I I #
coedge $-1 $445 $461 $283 $448 forward $280 $-1 #
coedge $-1 $290 $444 $282 $446 forward $280 $-1 #
edge $-1 $452 -3.806826931099808 $293 0.56074881834925883 $445 $622 forward 7 unknown #
coedge $-1 $284 $283 $621 $623 reversed $109 $-1 #
edge $-1 $624 -33.808820527615815 $452 -26.216593930321288 $444 $625 forward 7 unknown #
coedge $-1 $457 $456 $284 $450 forward $458 $-1 #
edge $-1 $451 26.216593930321288 $626 33.808820527615815 $449 $627 forward 7 unknown #
vertex $-1 $450 $628 #
vertex $-1 $448 $629 #
straight-curve $-1 -56.22930115928984 0 -5.4298659874750825 0 -1 0 I I #
coedge $-1 $630 $631 $287 $455 forward $442 $-1 #
edge $-1 $462 -31.184257641736931 $459 31.184257641736931 $454 $632 forward 7 unknown #
coedge $-1 $449 $288 $292 $464 forward $458 $-1 #
coedge $-1 $288 $449 $630 $633 reversed $458 $-1 #
loop $-1 $-1 $449 $441 #
vertex $-1 $633 $634 #
straight-curve $-1 -30.012707228968551 31.184257641736931 -1.0622902380260157 1 0 0 I I #
coedge $-1 $444 $290 $631 $635 forward $280 $-1 #
vertex $-1 $635 $636 #
straight-curve $-1 -30.012707228968551 -31.184257641736931 -1.0622902380260157 -1 0 0 I I #
edge $-1 $294 -0.56074881834925883 $451 3.806826931099808 $456 $637 forward 7 unknown #
point $-1 -56.22930115928984 -31.184257641736931 -1.0622902380260157 #
point $-1 -56.22930115928984 31.184257641736931 -1.0622902380260157 #
face $-1 $-1 $311 $41 $-1 $638 reversed single #
loop $-1 $-1 $305 $296 #
plane-surface $-1 0 31.184257641736931 0 0 -1 0 0 0 -1 forward_v I I I I #
coedge $-1 $639 $299 $474 $640 reversed $178 $-1 #
coedge $-1 $299 $639 $304 $482 reversed $178 $-1 #
coedge $-1 $305 $477 $299 $473 forward $468 $-1 #
edge $-1 $641 -4.1328831806521116 $484 0.85478332386580513 $472 $642 forward 7 unknown #
coedge $-1 $301 $300 $470 $640 forward $113 $-1 #
coedge $-1 $487 $486 $300 $476 forward $297 $-1 #
edge $-1 $643 24.970847961923962 $479 34.224069183748256 $475 $644 forward 7 unknown #
coedge $-1 $472 $483 $301 $478 forward $468 $-1 #
edge $-1 $480 -34.224069183748256 $641 -24.970847961923962 $477 $645 forward 7 unknown #
vertex $-1 $303 $646 #
vertex $-1 $303 $647 #
straight-curve $-1 63.821527756584366 0 -5.7719331090452641 0 1 0 I I #
edge $-1 $484 -31.184257641736931 $488 31.184257641736931 $471 $648 forward 7 unknown #
coedge $-1 $477 $305 $310 $491 forward $468 $-1 #
vertex $-1 $306 $649 #
straight-curve $-1 29.597458572836107 31.184257641736931 -0.78426660452734787 1 0 0 I I #
coedge $-1 $475 $307 $639 $650 forward $297 $-1 #
coedge $-1 $307 $475 $309 $490 reversed $297 $-1 #
vertex $-1 $308 $651 #
straight-curve $-1 29.597458572836107 -31.184257641736931 -0.78426660452734787 -1 0 0 I I #
edge $-1 $313 0.78426660452734787 $479 5.7719331090452641 $309 $652 forward 7 unknown #
edge $-1 $312 0.78426660452734787 $480 5.7719331090452641 $310 $653 forward 7 unknown #
point $-1 63.821527756584359 31.184257641736931 -0.78426660452734787 #
point $-1 63.821527756584359 -31.184257641736931 -0.78426660452734787 #
loop $-1 $-1 $323 $315 #
plane-surface $-1 0 0 8.3753148274282569 0 0 1 1 0 0 forward_v I I I I #
coedge $-1 $497 $318 $320 $501 reversed $186 $-1 #
coedge $-1 $318 $496 $654 $655 reversed $186 $-1 #
coedge $-1 $326 $321 $318 $499 forward $316 $-1 #
edge $-1 $502 -69.798792736815528 $656 -61.75058682280293 $498 $657 forward 7 unknown #
coedge $-1 $320 $319 $505 $658 reversed $117 $-1 #
edge $-1 $659 48.676089725326321 $502 62.368515283473869 $496 $660 forward 7 unknown #
vertex $-1 $322 $661 #
straight-curve $-1 -17.253178883444647 31.184257641736934 0.32710891341565684 -1 0 0 I I #
coedge $-1 $654 $323 $326 $509 forward $494 $-1 #
coedge $-1 $323 $654 $500 $658 forward $494 $-1 #
vertex $-1 $324 $662 #
straight-curve $-1 -28.529899235777361 27.876887875224881 8.3753148274282552 0 1 0 I I #
straight-curve $-1 -28.529899235777361 -19.272930796253988 36.986402872765026 0 -0.80901698891910034 0.5877852598018023 I I #
edge $-1 $327 28.529899235777361 $656 40.482816298001225 $326 $663 forward 7 unknown #
point $-1 -28.529899235777361 31.184257641736931 8.3753148274282569 #
point $-1 -28.529899235777361 31.184257641736934 0.32710891341566395 #
edge $-1 $664 1 $664 0 $330 $-1 forward 7 unknown #
vertex $-1 $331 $665 #
ellipse-curve $-1 -34.506357766889295 24.063466239169152 2.1736532793178478 0 0.5877852598018023 0.80901698891910034 2 0 0 1 I I #
point $-1 -32.506357766889295 25.645555193711214 4.3512118704219764 #
plane-surface $-1 0 31.184257641736931 0 0 -1 0 0 0 -1 forward_v I I I I #
coedge $-1 $527 $526 $519 $666 forward $335 $-1 #
coedge $-1 $519 $337 $339 $523 reversed $201 $-1 #
coedge $-1 $337 $518 $517 $666 reversed $201 $-1 #
coedge $-1 $345 $340 $337 $521 forward $346 $-1 #
edge $-1 $524 -69.798792736815528 $667 -61.75058682280293 $520 $668 forward 7 unknown #
coedge $-1 $339 $338 $527 $669 reversed $126 $-1 #
edge $-1 $670 48.676089725326321 $524 62.368515283473869 $518 $671 forward 7 unknown #
vertex $-1 $341 $672 #
straight-curve $-1 -6.0278920652365073 31.184257641736934 0.32710891341565684 -1 0 0 I I #
coedge $-1 $517 $342 $345 $531 forward $335 $-1 #
coedge $-1 $342 $517 $522 $669 forward $335 $-1 #
vertex $-1 $343 $673 #
straight-curve $-1 -6.0793255993610806 27.876887875224881 8.3753148274282552 0 1 0 I I #
straight-curve $-1 -6.0793255993610806 -19.272930796253988 36.986402872765026 0 -0.80901698891910034 0.5877852598018023 I I #
edge $-1 $347 6.0793255993610806 $667 18.032242661584949 $345 $674 forward 7 unknown #
point $-1 -6.0793255993610806 31.184257641736931 8.3753148274282569 #
point $-1 -6.0793255993610806 31.184257641736934 0.32710891341566395 #
edge $-1 $675 1 $675 0 $350 $-1 forward 7 unknown #
vertex $-1 $351 $676 #
ellipse-curve $-1 -12.055784130473022 24.063466239169152 2.1736532793178478 0 0.5877852598018023 0.80901698891910034 2 0 0 1 I I #
point $-1 -10.055784130473022 25.645555193711214 4.3512118704219764 #
plane-surface $-1 0 31.184257641736931 0 0 -1 0 0 0 -1 forward_v I I I I #
coedge $-1 $549 $548 $541 $677 forward $355 $-1 #
coedge $-1 $541 $357 $359 $545 reversed $216 $-1 #
coedge $-1 $357 $540 $539 $677 reversed $216 $-1 #
coedge $-1 $365 $360 $357 $543 forward $366 $-1 #
edge $-1 $546 -69.798792736815528 $678 -61.75058682280293 $542 $679 forward 7 unknown #
coedge $-1 $359 $358 $549 $680 reversed $135 $-1 #
edge $-1 $681 48.676089725326321 $546 62.368515283473869 $540 $682 forward 7 unknown #
vertex $-1 $361 $683 #
straight-curve $-1 5.1973947529716291 31.184257641736934 0.32710891341565684 -1 0 0 I I #
coedge $-1 $539 $362 $365 $553 forward $355 $-1 #
coedge $-1 $362 $539 $544 $680 forward $355 $-1 #
vertex $-1 $363 $684 #
straight-curve $-1 16.371248037055192 27.876887875224881 8.3753148274282552 0 1 0 I I #
straight-curve $-1 16.371248037055192 -19.272930796253988 36.986402872765026 0 -0.80901698891910034 0.5877852598018023 I I #
edge $-1 $367 -16.371248037055192 $678 -4.4183309748313242 $365 $685 forward 7 unknown #
point $-1 16.371248037055192 31.184257641736931 8.3753148274282569 #
point $-1 16.371248037055192 31.184257641736934 0.32710891341566395 #
edge $-1 $686 1 $686 0 $370 $-1 forward 7 unknown #
vertex $-1 $371 $687 #
ellipse-curve $-1 10.394789505943258 24.063466239169152 2.1736532793178478 0 0.5877852598018023 0.80901698891910034 2 0 0 1 I I #
point $-1 12.394789505943258 25.645555193711214 4.3512118704219764 #
plane-surface $-1 0 31.184257641736931 0 0 -1 0 0 0 -1 forward_v I I I I #
coedge $-1 $571 $570 $563 $688 forward $375 $-1 #
coedge $-1 $563 $377 $379 $567 reversed $231 $-1 #
coedge $-1 $377 $562 $561 $688 reversed $231 $-1 #
coedge $-1 $385 $380 $377 $565 forward $386 $-1 #
edge $-1 $568 -69.798792736815528 $689 -61.75058682280293 $564 $690 forward 7 unknown #
coedge $-1 $379 $378 $571 $691 reversed $144 $-1 #
edge $-1 $692 48.676089725326321 $568 62.368515283473869 $562 $693 forward 7 unknown #
vertex $-1 $381 $694 #
straight-curve $-1 16.422681571179769 31.184257641736934 0.32710891341565684 -1 0 0 I I #
coedge $-1 $561 $382 $385 $575 forward $375 $-1 #
coedge $-1 $382 $561 $566 $691 forward $375 $-1 #
vertex $-1 $383 $695 #
straight-curve $-1 38.821821673471476 27.876887875224881 8.3753148274282552 0 1 0 I I #
straight-curve $-1 38.821821673471476 -19.272930796253988 36.986402872765026 0 -0.80901698891910034 0.5877852598018023 I I #
edge $-1 $387 -38.821821673471476 $689 -26.868904611247604 $385 $696 forward 7 unknown #
point $-1 38.821821673471476 31.184257641736931 8.3753148274282569 #
point $-1 38.821821673471476 31.184257641736934 0.32710891341566395 #
edge $-1 $697 1 $697 0 $390 $-1 forward 7 unknown #
vertex $-1 $391 $698 #
ellipse-curve $-1 32.845363142359538 24.063466239169152 2.1736532793178478 0 0.5877852598018023 0.80901698891910034 2 0 0 1 I I #
point $-1 34.845363142359538 25.645555193711214 4.3512118704219764 #
plane-surface $-1 0 -31.184257641736931 0 0 1 0 0 0 1 forward_v I I I I #
coedge $-1 $593 $592 $585 $699 forward $395 $-1 #
coedge $-1 $585 $397 $399 $589 reversed $246 $-1 #
coedge $-1 $397 $584 $583 $699 reversed $246 $-1 #
coedge $-1 $405 $400 $397 $587 forward $406 $-1 #
edge $-1 $590 -40.577099483462653 $700 -34.788963529393939 $586 $701 forward 7 unknown #
coedge $-1 $399 $398 $593 $702 reversed $153 $-1 #
edge $-1 $703 -7.6693552621820134 $590 -2.7071234964702059e-014 $584 $704 forward 7 unknown #
vertex $-1 $401 $705 #
straight-curve $-1 -4.5801687093436847 -31.184257641736931 2.5871788733595404 1 0 0 I I #
coedge $-1 $583 $402 $405 $597 forward $395 $-1 #
coedge $-1 $402 $583 $588 $702 forward $395 $-1 #
vertex $-1 $403 $706 #
straight-curve $-1 -17.287309989025342 -63.758847772205911 8.3753148274282552 0 -1 0 I I #
straight-curve $-1 -17.287309989025342 -31.184257641736949 2.5871788733595196 0 0.65605901945558964 0.75470958851134928 I I #
edge $-1 $407 -17.287309989025342 $700 -1.0333648483493967 $405 $707 forward 7 unknown #
point $-1 -17.287309989025342 -31.184257641736931 8.3753148274282569 #
point $-1 -17.287309989025342 -31.184257641736931 2.58717887335954 #
edge $-1 $708 1 $708 0 $410 $-1 forward 7 unknown #
vertex $-1 $411 $709 #
ellipse-curve $-1 -9.1603374186873765 -24.17919644313179 1.5787698618966457 0 -0.75470958851134928 0.65605901945558964 1.5 0 0 1 I I #
point $-1 -7.6603374186873765 -28.668482795155079 5.4812468503938829 #
plane-surface $-1 63.821527756584366 0 0 -1 0 0 0 0 1 forward_v I I I I #
coedge $-1 $419 $417 $421 $609 reversed $261 $-1 #
edge $-1 $432 -8.3753148274282569 $611 8.3753148274282569 $431 $710 forward 7 unknown #
vertex $-1 $609 $711 #
straight-curve $-1 -63.821527756584366 -31.184257641736931 0 0 0 -1 I I #
edge $-1 $607 -31.184257641736931 $611 31.184257641736931 $605 $712 forward 7 unknown #
straight-curve $-1 0 -31.184257641736931 -8.3753148274282569 -1 0 0 I I #
vertex $-1 $424 $713 #
straight-curve $-1 0 31.184257641736931 -8.3753148274282569 1 0 0 I I #
point $-1 63.821527756584366 31.184257641736931 -8.3753148274282569 #
point $-1 63.821527756584366 -31.184257641736931 -8.3753148274282569 #
straight-curve $-1 -63.821527756584366 0 8.3753148274282569 0 -1 0 I I #
point $-1 -63.821527756584366 31.184257641736931 8.3753148274282569 #
point $-1 -63.821527756584366 -31.184257641736931 8.3753148274282569 #
straight-curve $-1 63.821527756584366 -31.184257641736931 0 0 0 -1 I I #
straight-curve $-1 63.821527756584366 31.184257641736931 0 0 0 -1 I I #
plane-surface $-1 0 31.184257641736931 0 0 -1 0 0 0 -1 forward_v I I I I #
coedge $-1 $631 $630 $447 $623 forward $442 $-1 #
straight-curve $-1 -56.22930115928984 -31.184257641736931 -1.6230390563752746 0 0 1 I I #
edge $-1 $626 -31.184257641736931 $624 31.184257641736931 $621 $714 forward 7 unknown #
vertex $-1 $448 $715 #
straight-curve $-1 -30.012707228968551 -31.184257641736931 -5.4298659874750825 1 0 0 I I #
vertex $-1 $450 $716 #
straight-curve $-1 -30.012707228968551 31.184257641736931 -5.4298659874750825 -1 0 0 I I #
point $-1 -56.22930115928984 31.184257641736931 -5.4298659874750825 #
point $-1 -56.22930115928984 -31.184257641736931 -5.4298659874750825 #
coedge $-1 $621 $454 $457 $633 forward $442 $-1 #
coedge $-1 $454 $621 $461 $635 reversed $442 $-1 #
straight-curve $-1 -63.821527756584366 0 -1.0622902380260157 0 1 0 I I #
edge $-1 $459 1.0622902380260157 $626 5.4298659874750825 $457 $717 forward 7 unknown #
point $-1 -63.821527756584366 31.184257641736931 -1.0622902380260157 #
edge $-1 $462 1.0622902380260157 $624 5.4298659874750825 $631 $718 forward 7 unknown #
point $-1 -63.821527756584366 -31.184257641736931 -1.0622902380260157 #
straight-curve $-1 -56.22930115928984 31.184257641736931 -1.6230390563752746 0 0 -1 I I #
plane-surface $-1 63.821527756584366 0 0 -1 0 0 0 0 1 forward_v I I I I #
coedge $-1 $471 $470 $486 $650 reversed $178 $-1 #
edge $-1 $643 -31.184257641736931 $641 31.184257641736931 $470 $719 forward 7 unknown #
vertex $-1 $478 $720 #
straight-curve $-1 54.568306534760069 31.184257641736931 -1.639049928393153 0 0 1 I I #
vertex $-1 $476 $721 #
straight-curve $-1 29.597458572836107 -31.184257641736931 -5.7719331090452641 1 0 0 I I #
straight-curve $-1 29.597458572836107 31.184257641736931 -5.7719331090452641 -1 0 0 I I #
point $-1 63.821527756584359 -31.184257641736931 -5.7719331090452641 #
point $-1 63.821527756584359 31.184257641736931 -5.7719331090452641 #
straight-curve $-1 54.568306534760069 0 -0.78426660452734787 0 -1 0 I I #
point $-1 54.568306534760069 31.184257641736931 -0.78426660452734787 #
edge $-1 $488 -0.85478332386580513 $643 4.1328831806521116 $486 $722 forward 7 unknown #
point $-1 54.568306534760069 -31.184257641736931 -0.78426660452734787 #
straight-curve $-1 63.821527756584366 -31.184257641736931 0 0 0 -1 I I #
straight-curve $-1 63.821527756584366 31.184257641736931 0 0 0 -1 I I #
coedge $-1 $505 $504 $497 $655 forward $494 $-1 #
edge $-1 $656 -3.3073697665120498 $659 7.7700351295394086 $654 $723 forward 7 unknown #
vertex $-1 $655 $724 #
straight-curve $-1 -40.482816298001225 31.184257641736931 70.125901650231185 0 0 1 I I #
edge $-1 $659 -23.229637414556578 $506 -11.276720352332713 $505 $725 forward 7 unknown #
vertex $-1 $658 $726 #
straight-curve $-1 -40.482816298001225 -19.272930796253988 36.986402872765026 0 0.80901698891910034 -0.5877852598018023 I I #
point $-1 -40.482816298001225 31.184257641736934 0.32710891341566395 #
point $-1 -28.529899235777361 20.106852745685472 8.3753148274282552 #
straight-curve $-1 0 31.184257641736931 8.3753148274282569 -1 0 0 I I #
vertex $-1 $512 $727 #
point $-1 -32.506357766889295 24.063466239169152 2.1736532793178478 #
edge $-1 $667 -3.3073697665120498 $670 7.7700351295394086 $517 $728 forward 7 unknown #
vertex $-1 $666 $729 #
straight-curve $-1 -18.032242661584949 31.184257641736931 70.125901650231185 0 0 1 I I #
edge $-1 $670 -12.004350596348441 $528 -0.051433534124573299 $527 $730 forward 7 unknown #
vertex $-1 $669 $731 #
straight-curve $-1 -18.032242661584949 -19.272930796253988 36.986402872765026 0 0.80901698891910034 -0.5877852598018023 I I #
point $-1 -18.032242661584949 31.184257641736934 0.32710891341566395 #
point $-1 -6.0793255993610806 20.106852745685472 8.3753148274282552 #
straight-curve $-1 0 31.184257641736931 8.3753148274282569 -1 0 0 I I #
vertex $-1 $534 $732 #
point $-1 -10.055784130473022 24.063466239169152 2.1736532793178478 #
edge $-1 $678 -3.3073697665120498 $681 7.7700351295394086 $539 $733 forward 7 unknown #
vertex $-1 $543 $734 #
straight-curve $-1 4.4183309748313242 31.184257641736931 70.125901650231185 0 0 1 I I #
edge $-1 $681 -0.77906377814030492 $550 11.173853284083563 $549 $735 forward 7 unknown #
vertex $-1 $680 $736 #
straight-curve $-1 4.4183309748313242 -19.272930796253988 36.986402872765026 0 0.80901698891910034 -0.5877852598018023 I I #
point $-1 4.4183309748313242 31.184257641736934 0.32710891341566395 #
point $-1 16.371248037055192 20.106852745685472 8.3753148274282552 #
straight-curve $-1 0 31.184257641736931 8.3753148274282569 -1 0 0 I I #
vertex $-1 $556 $737 #
point $-1 12.394789505943258 24.063466239169152 2.1736532793178478 #
edge $-1 $689 -3.3073697665120498 $692 7.7700351295394086 $561 $738 forward 7 unknown #
vertex $-1 $565 $739 #
straight-curve $-1 26.868904611247604 31.184257641736931 70.125901650231185 0 0 1 I I #
edge $-1 $692 10.446223040067835 $572 22.399140102291707 $571 $740 forward 7 unknown #
vertex $-1 $691 $741 #
straight-curve $-1 26.868904611247604 -19.272930796253988 36.986402872765026 0 0.80901698891910034 -0.5877852598018023 I I #
point $-1 26.868904611247604 31.184257641736934 0.32710891341566395 #
point $-1 38.821821673471476 20.106852745685472 8.3753148274282552 #
straight-curve $-1 0 31.184257641736931 8.3753148274282569 -1 0 0 I I #
vertex $-1 $578 $742 #
point $-1 34.845363142359538 24.063466239169152 2.1736532793178478 #
edge $-1 $700 32.574590130468977 $703 37.60613982363266 $583 $743 forward 7 unknown #
vertex $-1 $587 $744 #
straight-curve $-1 -1.0333648483493967 -31.184257641736934 43.164278356822194 0 0 1 I I #
edge $-1 $703 -3.546803860994288 $594 12.707141279681657 $593 $745 forward 7 unknown #
vertex $-1 $702 $746 #
straight-curve $-1 -1.0333648483493967 -31.184257641736949 2.5871788733595196 0 -0.65605901945558964 -0.75470958851134928 I I #
point $-1 -1.0333648483493967 -31.184257641736931 2.58717887335954 #
point $-1 -17.287309989025342 -26.152707948573251 8.3753148274282569 #
straight-curve $-1 0 -31.184257641736931 8.3753148274282569 1 0 0 I I #
vertex $-1 $600 $747 #
point $-1 -7.6603374186873765 -24.17919644313179 1.5787698618966457 #
straight-curve $-1 -63.821527756584366 31.184257641736931 0 0 0 -1 I I #
point $-1 -63.821527756584366 -31.184257641736931 -8.3753148274282569 #
straight-curve $-1 -63.821527756584366 0 -8.3753148274282569 0 1 0 I I #
point $-1 -63.821527756584366 31.184257641736931 -8.3753148274282569 #
straight-curve $-1 -63.821527756584366 0 -5.4298659874750825 0 -1 0 I I #
point $-1 -63.821527756584366 -31.184257641736931 -5.4298659874750825 #
point $-1 -63.821527756584366 31.184257641736931 -5.4298659874750825 #
straight-curve $-1 -63.821527756584366 31.184257641736931 0 0 0 -1 I I #
straight-curve $-1 -63.821527756584366 -31.184257641736931 0 0 0 -1 I I #
straight-curve $-1 54.568306534760069 0 -5.7719331090452641 0 1 0 I I #
point $-1 54.568306534760069 31.184257641736931 -5.7719331090452641 #
point $-1 54.568306534760069 -31.184257641736931 -5.7719331090452641 #
straight-curve $-1 54.568306534760069 -31.184257641736931 -1.639049928393153 0 0 -1 I I #
straight-curve $-1 -40.482816298001225 27.876887875224881 8.3753148274282552 0 -1 0 I I #
point $-1 -40.482816298001225 31.184257641736931 8.3753148274282569 #
straight-curve $-1 -17.253178883444647 20.106852745685472 8.3753148274282552 1 0 0 I I #
point $-1 -40.482816298001225 20.106852745685472 8.3753148274282552 #
point $-1 -34.506357766889295 22.887895719565549 0.55561930147964733 #
straight-curve $-1 -18.032242661584949 27.876887875224881 8.3753148274282552 0 -1 0 I I #
point $-1 -18.032242661584949 31.184257641736931 8.3753148274282569 #
straight-curve $-1 -6.0278920652365073 20.106852745685472 8.3753148274282552 1 0 0 I I #
point $-1 -18.032242661584949 20.106852745685472 8.3753148274282552 #
point $-1 -12.055784130473022 22.887895719565549 0.55561930147964733 #
straight-curve $-1 4.4183309748313242 27.876887875224881 8.3753148274282552 0 -1 0 I I #
point $-1 4.4183309748313242 31.184257641736931 8.3753148274282569 #
straight-curve $-1 5.1973947529716291 20.106852745685472 8.3753148274282552 1 0 0 I I #
point $-1 4.4183309748313242 20.106852745685472 8.3753148274282552 #
point $-1 10.394789505943258 22.887895719565549 0.55561930147964733 #
straight-curve $-1 26.868904611247604 27.876887875224881 8.3753148274282552 0 -1 0 I I #
point $-1 26.868904611247604 31.184257641736931 8.3753148274282569 #
straight-curve $-1 16.422681571179769 20.106852745685472 8.3753148274282552 1 0 0 I I #
point $-1 26.868904611247604 20.106852745685472 8.3753148274282552 #
point $-1 32.845363142359538 22.887895719565549 0.55561930147964733 #
straight-curve $-1 -1.0333648483493967 -63.758847772205911 8.3753148274282552 0 1 0 I I #
point $-1 -1.0333648483493967 -31.184257641736931 8.3753148274282569 #
straight-curve $-1 -4.5801687093436847 -26.152707948573251 8.3753148274282569 -1 0 0 I I #
point $-1 -1.0333648483493967 -26.152707948573251 8.3753148274282569 #
point $-1 -9.1603374186873765 -23.047132060364763 0.59468133271326118 #
End-of-ACIS-data 