500 0 12 0           
7 Unknown 11 ACIS 5.0 NT 24 Fri Mar 26 18:12:46 1999 
-1 9.9999999999999995e-007 1e-010 
body $-1 $12 $-1 $13 #
body $-1 $14 $-1 $15 #
body $-1 $16 $-1 $17 #
body $-1 $18 $-1 $19 #
body $-1 $20 $-1 $21 #
body $-1 $22 $-1 $23 #
body $-1 $24 $-1 $25 #
body $-1 $26 $-1 $27 #
body $-1 $28 $-1 $29 #
body $-1 $30 $-1 $31 #
body $-1 $32 $-1 $33 #
body $-1 $34 $-1 $35 #
lump $-1 $-1 $36 $0 #
transform $-1 1 0 0 0 1 0 0 0 1 56.106448561052275 39.056197632022027 15.122699894902782 1 rotate no_reflect no_shear #
lump $-1 $-1 $37 $1 #
transform $-1 1 0 0 0 1 0 0 0 1 56.106448561052275 39.056197632022027 15.122699894902782 1 rotate no_reflect no_shear #
lump $-1 $-1 $38 $2 #
transform $-1 1 0 0 0 1 0 0 0 1 56.106448561052275 39.056197632022027 15.122699894902782 1 rotate no_reflect no_shear #
lump $-1 $-1 $39 $3 #
transform $-1 1 0 0 0 1 0 0 0 1 56.106448561052275 39.056197632022027 15.122699894902782 1 rotate no_reflect no_shear #
lump $-1 $-1 $40 $4 #
transform $-1 1 0 0 0 1 0 0 0 1 56.106448561052275 39.056197632022027 15.122699894902782 1 rotate no_reflect no_shear #
lump $-1 $-1 $41 $5 #
transform $-1 1 0 0 0 1 0 0 0 1 56.106448561052275 39.056197632022027 15.122699894902782 1 rotate no_reflect no_shear #
lump $-1 $-1 $42 $6 #
transform $-1 1 0 0 0 1 0 0 0 1 56.106448561052275 39.056197632022027 15.122699894902782 1 rotate no_reflect no_shear #
lump $-1 $-1 $43 $7 #
transform $-1 1 0 0 0 1 0 0 0 1 56.106448561052275 39.056197632022027 15.122699894902782 1 rotate no_reflect no_shear #
lump $-1 $-1 $44 $8 #
transform $-1 1 0 0 0 1 0 0 0 1 56.106448561052275 39.056197632022027 15.122699894902782 1 rotate no_reflect no_shear #
lump $-1 $-1 $45 $9 #
transform $-1 1 0 0 0 1 0 0 0 1 56.106448561052275 39.056197632022027 15.122699894902782 1 rotate no_reflect no_shear #
lump $-1 $-1 $46 $10 #
transform $-1 1 0 0 0 1 0 0 0 1 56.106448561052275 39.056197632022027 15.122699894902782 1 rotate no_reflect no_shear #
lump $-1 $-1 $47 $11 #
transform $-1 1 0 0 0 1 0 0 0 1 56.106448561052275 39.056197632022027 15.122699894902782 1 rotate no_reflect no_shear #
shell $-1 $-1 $-1 $48 $-1 $12 #
shell $-1 $-1 $-1 $49 $-1 $14 #
shell $-1 $-1 $-1 $50 $-1 $16 #
shell $-1 $-1 $-1 $51 $-1 $18 #
shell $-1 $-1 $-1 $52 $-1 $20 #
shell $-1 $-1 $-1 $53 $-1 $22 #
shell $-1 $-1 $-1 $54 $-1 $24 #
shell $-1 $-1 $-1 $55 $-1 $26 #
shell $-1 $-1 $-1 $56 $-1 $28 #
shell $-1 $-1 $-1 $57 $-1 $30 #
shell $-1 $-1 $-1 $58 $-1 $32 #
shell $-1 $-1 $-1 $59 $-1 $34 #
face $-1 $60 $61 $36 $-1 $62 forward single #
face $-1 $63 $64 $37 $-1 $65 reversed single #
face $-1 $66 $67 $38 $-1 $68 reversed single #
face $-1 $69 $70 $39 $-1 $71 reversed single #
face $-1 $72 $73 $40 $-1 $74 forward single #
face $-1 $75 $76 $41 $-1 $77 forward single #
face $-1 $78 $79 $42 $-1 $80 reversed single #
face $-1 $81 $82 $43 $-1 $83 forward single #
face $-1 $84 $85 $44 $-1 $86 forward single #
face $-1 $87 $88 $45 $-1 $89 reversed single #
face $-1 $90 $91 $46 $-1 $92 forward single #
face $-1 $93 $94 $47 $-1 $95 forward single #
face $-1 $96 $97 $36 $-1 $98 reversed single #
loop $-1 $-1 $99 $48 #
plane-surface $-1 0 0 15.122699894902782 0 0 1 1 0 0 forward_v I I I I #
face $-1 $100 $101 $37 $-1 $102 reversed single #
loop $-1 $-1 $103 $49 #
plane-surface $-1 -49.632685049842721 -28.478031432095804 0 0 1 0 0 0 1 forward_v I I I I #
face $-1 $104 $105 $38 $-1 $106 reversed single #
loop $-1 $-1 $107 $50 #
plane-surface $-1 49.632685049842721 -28.478031432095804 0 0 1 0 0 0 1 forward_v I I I I #
face $-1 $108 $109 $39 $-1 $110 reversed single #
loop $-1 $-1 $111 $51 #
plane-surface $-1 -10.626725606319706 81.664190770040278 136.7942707043884 1 0 0 0 -0.79863551827123203 -0.60181501223851219 forward_v I I I I #
face $-1 $112 $113 $40 $-1 $114 forward single #
loop $-1 $115 $116 $52 #
cone-surface $-1 -8.1236214316312001 34.852788813432497 10.174035534833033 0 -0.79863551827123203 -0.60181501223851219 1 0 0 1 I I 0 1 1 forward I I I I #
face $-1 $117 $118 $41 $-1 $119 forward single #
loop $-1 $120 $121 $53 #
cone-surface $-1 -4.3689651695984324 34.852788813432497 10.174035534833033 0 -0.79863551827123203 -0.60181501223851219 1 0 0 1 I I 0 1 1 forward I I I I #
face $-1 $122 $123 $42 $-1 $124 reversed single #
loop $-1 $-1 $125 $54 #
plane-surface $-1 -4.0903728923223461 -127.48116818385705 79.092016763996526 -1 0 0 0 -0.78801076186113728 0.61566146476048833 forward_v I I I I #
face $-1 $126 $127 $43 $-1 $128 forward single #
loop $-1 $129 $130 $55 #
cone-surface $-1 -15.090799589005734 -36.53873204885717 12.159293100857845 0 0.78801076186113728 -0.61566146476048833 1 0 0 1 I I 0 1 1 forward I I I I #
face $-1 $131 $132 $44 $-1 $133 forward single #
loop $-1 $134 $135 $56 #
cone-surface $-1 -8.4905435709956976 -36.53873204885717 12.159293100857845 0 0.78801076186113728 -0.61566146476048833 1 0 0 1 I I 0 1 1 forward I I I I #
face $-1 $136 $137 $45 $-1 $138 reversed single #
loop $-1 $-1 $139 $57 #
plane-surface $-1 39.068548646310816 -127.48116818385705 79.092016763996526 -1 0 0 0 -0.78801076186113728 0.61566146476048833 forward_v I I I I #
face $-1 $140 $141 $46 $-1 $142 forward single #
loop $-1 $143 $144 $58 #
cone-surface $-1 28.068121949627425 -36.53873204885717 12.159293100857845 0 0.78801076186113728 -0.61566146476048833 1 0 0 1 I I 0 1 1 forward I I I I #
face $-1 $145 $146 $47 $-1 $147 forward single #
loop $-1 $148 $149 $59 #
cone-surface $-1 34.668377967637468 -36.53873204885717 12.159293100857845 0 0.78801076186113728 -0.61566146476048833 1 0 0 1 I I 0 1 1 forward I I I I #
face $-1 $150 $151 $36 $-1 $152 reversed single #
loop $-1 $-1 $153 $60 #
plane-surface $-1 0 0 -15.122699894902782 0 0 1 1 0 0 forward_v I I I I #
coedge $-1 $154 $155 $156 $157 forward $61 $-1 #
face $-1 $158 $159 $37 $-1 $160 reversed single #
loop $-1 $-1 $161 $63 #
plane-surface $-1 -49.632685049842721 -23.698414602615159 0 0 -1 0 0 0 -1 forward_v I I I I #
coedge $-1 $162 $163 $164 $165 reversed $64 $-1 #
face $-1 $166 $167 $38 $-1 $168 reversed single #
loop $-1 $-1 $169 $66 #
plane-surface $-1 43.158921538633166 -26.088223017355482 0 1 0 0 0 0 -1 forward_v I I I I #
coedge $-1 $170 $171 $172 $173 forward $67 $-1 #
face $-1 $174 $175 $39 $-1 $176 reversed single #
loop $-1 $-1 $177 $69 #
plane-surface $-1 -6.2462933006148091 -7.9530144797881235 69.26286464953013 0 0.79863551827123203 0.60181501223851219 1 0 0 forward_v I I I I #
coedge $-1 $178 $179 $180 $181 reversed $70 $-1 #
face $-1 $-1 $182 $40 $-1 $183 forward single #
loop $-1 $184 $185 $72 #
cone-surface $-1 -8.1236214316312001 33.355898659546362 9.0460479288839277 0 -0.79863551827123203 -0.60181501223851219 0.5 0 0 1 I I -0.70710678118654746 0.70710678118654746 0.5 forward I I I I #
loop $-1 $-1 $186 $52 #
coedge $-1 $116 $116 $187 $188 reversed $73 $-1 #
face $-1 $-1 $189 $41 $-1 $190 forward single #
loop $-1 $191 $192 $75 #
cone-surface $-1 -4.3689651695984324 33.355898659546362 9.0460479288839277 0 -0.79863551827123203 -0.60181501223851219 0.5 0 0 1 I I -0.70710678118654746 0.70710678118654746 0.5 forward I I I I #
loop $-1 $-1 $193 $53 #
coedge $-1 $121 $121 $194 $195 reversed $76 $-1 #
face $-1 $196 $197 $42 $-1 $198 reversed single #
loop $-1 $-1 $199 $78 #
plane-surface $-1 -11.790671580000719 -39.05619763202202 10.006860156783659 0 -0.78801076186113728 0.61566146476048833 1 0 0 forward_v I I I I #
coedge $-1 $200 $201 $202 $203 reversed $79 $-1 #
face $-1 $-1 $204 $43 $-1 $205 forward single #
loop $-1 $206 $207 $81 #
cone-surface $-1 -15.090799589005734 -35.625727056984942 11.445975443492214 0 0.78801076186113728 -0.61566146476048833 0.5 0 0 1 I I -0.70710678118654746 0.70710678118654746 0.5 forward I I I I #
loop $-1 $-1 $208 $55 #
coedge $-1 $130 $130 $209 $210 reversed $82 $-1 #
face $-1 $-1 $211 $44 $-1 $212 forward single #
loop $-1 $213 $214 $84 #
cone-surface $-1 -8.4905435709956976 -35.625727056984942 11.445975443492214 0 0.78801076186113728 -0.61566146476048833 0.5 0 0 1 I I -0.70710678118654746 0.70710678118654746 0.5 forward I I I I #
loop $-1 $-1 $215 $56 #
coedge $-1 $135 $135 $216 $217 reversed $85 $-1 #
face $-1 $218 $219 $45 $-1 $220 reversed single #
loop $-1 $-1 $221 $87 #
plane-surface $-1 31.368249958632447 -39.05619763202202 10.006860156783659 0 -0.78801076186113728 0.61566146476048833 1 0 0 forward_v I I I I #
coedge $-1 $222 $223 $224 $225 reversed $88 $-1 #
face $-1 $-1 $226 $46 $-1 $227 forward single #
loop $-1 $228 $229 $90 #
cone-surface $-1 28.068121949627425 -35.625727056984942 11.445975443492214 0 0.78801076186113728 -0.61566146476048833 0.5 0 0 1 I I -0.70710678118654746 0.70710678118654746 0.5 forward I I I I #
loop $-1 $-1 $230 $58 #
coedge $-1 $144 $144 $231 $232 reversed $91 $-1 #
face $-1 $-1 $233 $47 $-1 $234 forward single #
loop $-1 $235 $236 $93 #
cone-surface $-1 34.668377967637468 -35.625727056984942 11.445975443492214 0 0.78801076186113728 -0.61566146476048833 0.5 0 0 1 I I -0.70710678118654746 0.70710678118654746 0.5 forward I I I I #
loop $-1 $-1 $237 $59 #
coedge $-1 $149 $149 $238 $239 reversed $94 $-1 #
face $-1 $240 $241 $36 $-1 $242 reversed single #
loop $-1 $-1 $243 $96 #
plane-surface $-1 0 -39.056197632022027 0 0 1 0 0 0 1 forward_v I I I I #
coedge $-1 $244 $245 $246 $247 forward $97 $-1 #
coedge $-1 $248 $99 $249 $250 forward $61 $-1 #
coedge $-1 $99 $248 $251 $252 forward $61 $-1 #
coedge $-1 $253 $254 $99 $157 reversed $255 $-1 #
edge $-1 $256 -39.056197632022027 $257 39.056197632022027 $156 $258 forward 7 unknown #
face $-1 $259 $260 $37 $-1 $261 reversed single #
loop $-1 $-1 $262 $100 #
plane-surface $-1 -43.158921538633166 -26.088223017355482 0 -1 0 0 0 0 1 forward_v I I I I #
coedge $-1 $263 $264 $265 $266 forward $101 $-1 #
coedge $-1 $267 $103 $268 $269 reversed $64 $-1 #
coedge $-1 $103 $267 $270 $271 reversed $64 $-1 #
coedge $-1 $272 $273 $103 $165 forward $274 $-1 #
edge $-1 $275 -15.122699894902782 $276 15.122699894902782 $164 $277 forward 7 unknown #
face $-1 $278 $279 $38 $-1 $280 reversed single #
loop $-1 $-1 $281 $104 #
plane-surface $-1 49.632685049842721 -23.698414602615159 0 0 -1 0 0 0 -1 forward_v I I I I #
coedge $-1 $282 $283 $284 $285 forward $105 $-1 #
coedge $-1 $286 $107 $287 $288 reversed $67 $-1 #
coedge $-1 $107 $286 $289 $290 reversed $67 $-1 #
coedge $-1 $283 $282 $107 $173 reversed $105 $-1 #
edge $-1 $291 -15.122699894902782 $292 15.122699894902782 $172 $293 forward 7 unknown #
face $-1 $294 $295 $39 $-1 $296 reversed single #
loop $-1 $-1 $297 $108 #
plane-surface $-1 -1.8658609949099123 81.664190770040278 136.7942707043884 -1 0 0 0 0.79863551827123203 0.60181501223851219 forward_v I I I I #
coedge $-1 $298 $299 $300 $301 reversed $109 $-1 #
coedge $-1 $179 $111 $302 $303 reversed $70 $-1 #
coedge $-1 $111 $178 $298 $304 reversed $70 $-1 #
coedge $-1 $300 $305 $111 $181 forward $306 $-1 #
edge $-1 $307 1.7758977529981124 $308 7.9875706006761078 $180 $309 forward 7 unknown #
loop $-1 $-1 $187 $112 #
plane-surface $-1 -6.2462933006148091 -7.9530144797881235 69.26286464953013 0 0.79863551827123203 0.60181501223851219 1 0 0 forward_v I I I I #
loop $-1 $-1 $310 $72 #
coedge $-1 $185 $185 $186 $311 reversed $113 $-1 #
coedge $-1 $186 $186 $185 $311 forward $115 $-1 #
coedge $-1 $187 $187 $116 $188 forward $182 $-1 #
edge $-1 $312 -1.4791652359709833e-015 $312 6.2831853071795987 $187 $313 forward 7 unknown #
loop $-1 $-1 $194 $117 #
plane-surface $-1 -6.2462933006148091 -7.9530144797881235 69.26286464953013 0 0.79863551827123203 0.60181501223851219 1 0 0 forward_v I I I I #
loop $-1 $-1 $314 $75 #
coedge $-1 $192 $192 $193 $315 reversed $118 $-1 #
coedge $-1 $193 $193 $192 $315 forward $120 $-1 #
coedge $-1 $194 $194 $121 $195 forward $189 $-1 #
edge $-1 $316 -1.4791652359709833e-015 $316 6.2831853071795987 $194 $317 forward 7 unknown #
face $-1 $318 $319 $42 $-1 $320 forward single #
loop $-1 $-1 $321 $122 #
plane-surface $-1 -19.490970267679092 -127.48116818385705 79.092016763996526 1 0 0 0 0.78801076186113728 -0.61566146476048833 forward_v I I I I #
coedge $-1 $322 $323 $324 $325 reversed $123 $-1 #
coedge $-1 $201 $125 $326 $327 reversed $79 $-1 #
coedge $-1 $125 $200 $322 $328 reversed $79 $-1 #
coedge $-1 $324 $329 $125 $203 forward $319 $-1 #
edge $-1 $330 24.684386459906499 $331 28.681318404352915 $202 $332 forward 7 unknown #
loop $-1 $-1 $209 $126 #
plane-surface $-1 -11.790671580000719 -39.05619763202202 10.006860156783659 0 -0.78801076186113728 0.61566146476048833 1 0 0 forward_v I I I I #
loop $-1 $-1 $333 $81 #
coedge $-1 $207 $207 $208 $334 reversed $127 $-1 #
coedge $-1 $208 $208 $207 $334 forward $129 $-1 #
coedge $-1 $209 $209 $130 $210 forward $204 $-1 #
edge $-1 $335 -1.7501340976945918e-015 $335 6.2831853071795987 $209 $336 forward 7 unknown #
loop $-1 $-1 $216 $131 #
plane-surface $-1 -11.790671580000719 -39.05619763202202 10.006860156783659 0 -0.78801076186113728 0.61566146476048833 1 0 0 forward_v I I I I #
loop $-1 $-1 $337 $84 #
coedge $-1 $214 $214 $215 $338 reversed $132 $-1 #
coedge $-1 $215 $215 $214 $338 forward $134 $-1 #
coedge $-1 $216 $216 $135 $217 forward $211 $-1 #
edge $-1 $339 -1.7501340976945918e-015 $339 6.2831853071795987 $216 $340 forward 7 unknown #
face $-1 $341 $342 $45 $-1 $343 reversed single #
loop $-1 $-1 $344 $136 #
plane-surface $-1 23.667951270954074 -127.48116818385705 79.092016763996526 1 0 0 0 0.78801076186113728 -0.61566146476048833 forward_v I I I I #
coedge $-1 $345 $346 $347 $348 reversed $137 $-1 #
coedge $-1 $223 $139 $349 $350 reversed $88 $-1 #
coedge $-1 $139 $222 $345 $351 reversed $88 $-1 #
coedge $-1 $347 $352 $139 $225 forward $353 $-1 #
edge $-1 $354 24.684386459906499 $355 28.681318404352915 $224 $356 forward 7 unknown #
loop $-1 $-1 $231 $140 #
plane-surface $-1 31.368249958632447 -39.05619763202202 10.006860156783659 0 -0.78801076186113728 0.61566146476048833 1 0 0 forward_v I I I I #
loop $-1 $-1 $357 $90 #
coedge $-1 $229 $229 $230 $358 reversed $141 $-1 #
coedge $-1 $230 $230 $229 $358 forward $143 $-1 #
coedge $-1 $231 $231 $144 $232 forward $226 $-1 #
edge $-1 $359 -1.7501340976945918e-015 $359 6.2831853071795987 $231 $360 forward 7 unknown #
loop $-1 $-1 $238 $145 #
plane-surface $-1 31.368249958632447 -39.05619763202202 10.006860156783659 0 -0.78801076186113728 0.61566146476048833 1 0 0 forward_v I I I I #
loop $-1 $-1 $361 $93 #
coedge $-1 $236 $236 $237 $362 reversed $146 $-1 #
coedge $-1 $237 $237 $236 $362 forward $148 $-1 #
coedge $-1 $238 $238 $149 $239 forward $233 $-1 #
edge $-1 $363 -1.7501340976945918e-015 $363 6.2831853071795987 $238 $364 forward 7 unknown #
face $-1 $365 $366 $36 $-1 $367 reversed single #
loop $-1 $-1 $368 $150 #
plane-surface $-1 -56.106448561052275 0 0 1 0 0 0 0 -1 forward_v I I I I #
coedge $-1 $369 $251 $370 $371 forward $151 $-1 #
coedge $-1 $372 $153 $369 $373 forward $97 $-1 #
coedge $-1 $153 $372 $374 $375 forward $97 $-1 #
coedge $-1 $254 $253 $153 $247 reversed $255 $-1 #
edge $-1 $376 -39.056197632022027 $377 39.056197632022027 $246 $378 forward 7 unknown #
coedge $-1 $155 $154 $379 $380 forward $61 $-1 #
coedge $-1 $381 $382 $154 $250 reversed $366 $-1 #
edge $-1 $257 -56.106448561052275 $383 56.106448561052275 $249 $384 forward 7 unknown #
coedge $-1 $243 $385 $155 $252 reversed $151 $-1 #
edge $-1 $386 -56.106448561052275 $256 56.106448561052275 $251 $387 forward 7 unknown #
coedge $-1 $246 $156 $385 $388 forward $255 $-1 #
coedge $-1 $156 $246 $381 $389 reversed $255 $-1 #
loop $-1 $-1 $253 $365 #
vertex $-1 $157 $390 #
vertex $-1 $157 $391 #
straight-curve $-1 56.106448561052275 0 15.122699894902782 0 1 0 I I #
face $-1 $392 $393 $37 $-1 $394 forward single #
loop $-1 $-1 $395 $158 #
plane-surface $-1 0 0 -15.122699894902782 0 0 1 1 0 0 forward_v I I I I #
coedge $-1 $396 $397 $267 $398 forward $159 $-1 #
coedge $-1 $399 $161 $395 $400 reversed $101 $-1 #
coedge $-1 $161 $399 $401 $402 reversed $101 $-1 #
coedge $-1 $397 $396 $161 $266 reversed $159 $-1 #
edge $-1 $403 -15.122699894902782 $404 15.122699894902782 $265 $405 forward 7 unknown #
coedge $-1 $163 $162 $262 $398 reversed $64 $-1 #
coedge $-1 $406 $407 $162 $269 forward $260 $-1 #
edge $-1 $408 18.342579013711806 $275 31.290106036130915 $268 $409 forward 7 unknown #
coedge $-1 $410 $411 $163 $271 forward $393 $-1 #
edge $-1 $276 -31.290106036130915 $412 -18.342579013711806 $270 $413 forward 7 unknown #
coedge $-1 $414 $164 $411 $415 reversed $274 $-1 #
coedge $-1 $164 $414 $406 $416 reversed $274 $-1 #
loop $-1 $-1 $414 $392 #
vertex $-1 $416 $417 #
vertex $-1 $165 $418 #
straight-curve $-1 -56.106448561052275 -28.478031432095804 0 0 0 1 I I #
face $-1 $419 $420 $38 $-1 $421 forward single #
loop $-1 $-1 $287 $166 #
plane-surface $-1 0 0 -15.122699894902782 0 0 1 1 0 0 forward_v I I I I #
coedge $-1 $422 $423 $424 $425 reversed $167 $-1 #
coedge $-1 $172 $169 $426 $427 reversed $105 $-1 #
coedge $-1 $169 $172 $428 $429 reversed $105 $-1 #
coedge $-1 $423 $422 $169 $285 reversed $167 $-1 #
edge $-1 $430 -15.122699894902782 $431 15.122699894902782 $284 $432 forward 7 unknown #
coedge $-1 $171 $170 $433 $434 reversed $67 $-1 #
coedge $-1 $426 $435 $170 $288 forward $279 $-1 #
edge $-1 $436 -31.290106036130915 $292 -18.342579013711806 $287 $437 forward 7 unknown #
coedge $-1 $438 $428 $171 $290 forward $420 $-1 #
edge $-1 $291 18.342579013711806 $439 31.290106036130915 $289 $440 forward 7 unknown #
vertex $-1 $290 $441 #
vertex $-1 $288 $442 #
straight-curve $-1 43.158921538633166 -28.478031432095804 0 0 0 -1 I I #
face $-1 $-1 $306 $39 $-1 $443 forward single #
loop $-1 $-1 $444 $174 #
plane-surface $-1 0 39.056197632022027 0 0 -1 0 0 0 -1 forward_v I I I I #
coedge $-1 $445 $446 $447 $448 reversed $175 $-1 #
coedge $-1 $449 $177 $179 $304 forward $109 $-1 #
coedge $-1 $177 $449 $445 $450 forward $109 $-1 #
coedge $-1 $447 $180 $177 $301 forward $306 $-1 #
edge $-1 $308 -7.5035789560123014 $451 1.2572856553974923 $300 $452 forward 7 unknown #
coedge $-1 $453 $454 $178 $303 forward $295 $-1 #
edge $-1 $455 -61.517603977771188 $307 -53.274435457291418 $302 $456 forward 7 unknown #
edge $-1 $308 67.790830129646579 $455 78.112395264044011 $179 $457 forward 7 unknown #
coedge $-1 $180 $447 $453 $458 forward $306 $-1 #
loop $-1 $-1 $447 $294 #
vertex $-1 $303 $459 #
vertex $-1 $181 $460 #
straight-curve $-1 -10.626725606319706 40.832095385020139 15.12269989490278 0 -1 0 I I #
coedge $-1 $310 $310 $-1 $461 reversed $184 $-1 #
edge $-1 $462 0 $462 6.2831853071796004 $185 $463 forward 7 unknown #
vertex $-1 $188 $464 #
ellipse-curve $-1 -8.1236214316312001 35.950361208183033 11.001115634662897 0 0.79863551827123203 0.60181501223851219 1 0 0 1 I I #
coedge $-1 $314 $314 $-1 $465 reversed $191 $-1 #
edge $-1 $466 0 $466 6.2831853071796004 $192 $467 forward 7 unknown #
vertex $-1 $195 $468 #
ellipse-curve $-1 -4.3689651695984324 35.950361208183033 11.001115634662897 0 0.79863551827123203 0.60181501223851219 1 0 0 1 I I #
face $-1 $-1 $469 $42 $-1 $470 reversed single #
loop $-1 $-1 $202 $196 #
plane-surface $-1 0 0 15.122699894902782 0 0 1 1 0 0 forward_v I I I I #
coedge $-1 $471 $472 $473 $474 reversed $197 $-1 #
coedge $-1 $475 $199 $201 $328 forward $123 $-1 #
coedge $-1 $199 $475 $471 $476 forward $123 $-1 #
coedge $-1 $473 $202 $199 $325 forward $319 $-1 #
edge $-1 $331 -1.8049628976780134 $477 13.595634477678733 $324 $478 forward 7 unknown #
coedge $-1 $479 $480 $200 $327 forward $469 $-1 #
edge $-1 $481 -29.53914822521461 $330 -24.423308487095483 $326 $482 forward 7 unknown #
edge $-1 $331 -6.4920937450605933 $481 1.1373479346495045e-014 $201 $483 forward 7 unknown #
coedge $-1 $202 $473 $479 $484 forward $319 $-1 #
vertex $-1 $203 $485 #
vertex $-1 $203 $486 #
straight-curve $-1 -4.0903728923223461 -63.740584091928525 15.12269989490278 0 1 0 I I #
coedge $-1 $333 $333 $-1 $487 reversed $206 $-1 #
edge $-1 $488 0 $488 6.2831853071796004 $207 $489 forward 7 unknown #
vertex $-1 $210 $490 #
ellipse-curve $-1 -15.090799589005734 -37.057731659798812 12.564780025843222 0 -0.78801076186113728 0.61566146476048833 1 0 0 1 I I #
coedge $-1 $337 $337 $-1 $491 reversed $213 $-1 #
edge $-1 $492 0 $492 6.2831853071796004 $214 $493 forward 7 unknown #
vertex $-1 $217 $494 #
ellipse-curve $-1 -8.4905435709956976 -37.057731659798812 12.564780025843222 0 -0.78801076186113728 0.61566146476048833 1 0 0 1 I I #
face $-1 $-1 $353 $45 $-1 $495 forward single #
loop $-1 $-1 $496 $218 #
plane-surface $-1 0 -39.056197632022027 0 0 1 0 0 0 1 forward_v I I I I #
coedge $-1 $497 $498 $499 $500 reversed $219 $-1 #
coedge $-1 $501 $221 $223 $351 forward $137 $-1 #
coedge $-1 $221 $501 $497 $502 forward $137 $-1 #
coedge $-1 $499 $224 $221 $348 forward $353 $-1 #
edge $-1 $355 -23.384423666994593 $503 -7.9838262916378504 $347 $504 forward 7 unknown #
coedge $-1 $505 $506 $222 $350 forward $342 $-1 #
edge $-1 $507 -29.53914822521461 $354 -24.423308487095483 $349 $508 forward 7 unknown #
edge $-1 $355 -6.4920937450605933 $507 1.1373479346495045e-014 $223 $509 forward 7 unknown #
coedge $-1 $224 $499 $505 $510 forward $353 $-1 #
loop $-1 $-1 $499 $341 #
vertex $-1 $350 $511 #
vertex $-1 $225 $512 #
straight-curve $-1 39.068548646310816 -63.740584091928525 15.12269989490278 0 1 0 I I #
coedge $-1 $357 $357 $-1 $513 reversed $228 $-1 #
edge $-1 $514 0 $514 6.2831853071796004 $229 $515 forward 7 unknown #
vertex $-1 $232 $516 #
ellipse-curve $-1 28.068121949627425 -37.057731659798812 12.564780025843222 0 -0.78801076186113728 0.61566146476048833 1 0 0 1 I I #
coedge $-1 $361 $361 $-1 $517 reversed $235 $-1 #
edge $-1 $518 0 $518 6.2831853071796004 $236 $519 forward 7 unknown #
vertex $-1 $239 $520 #
ellipse-curve $-1 34.668377967637468 -37.057731659798812 12.564780025843222 0 -0.78801076186113728 0.61566146476048833 1 0 0 1 I I #
face $-1 $-1 $255 $36 $-1 $521 reversed single #
loop $-1 $-1 $381 $240 #
plane-surface $-1 0 39.056197632022027 0 0 -1 0 0 0 -1 forward_v I I I I #
coedge $-1 $522 $379 $382 $523 forward $241 $-1 #
coedge $-1 $385 $243 $244 $373 reversed $151 $-1 #
coedge $-1 $379 $522 $243 $371 reversed $241 $-1 #
edge $-1 $386 -15.122699894902782 $524 15.122699894902782 $370 $525 forward 7 unknown #
coedge $-1 $245 $244 $522 $526 forward $97 $-1 #
edge $-1 $377 -56.106448561052275 $524 56.106448561052275 $369 $527 forward 7 unknown #
coedge $-1 $382 $381 $245 $375 reversed $366 $-1 #
edge $-1 $528 -56.106448561052275 $376 56.106448561052275 $374 $529 forward 7 unknown #
vertex $-1 $247 $530 #
vertex $-1 $388 $531 #
straight-curve $-1 56.106448561052275 0 -15.122699894902782 0 -1 0 I I #
coedge $-1 $368 $370 $248 $380 reversed $241 $-1 #
edge $-1 $383 -39.056197632022027 $386 39.056197632022027 $379 $532 forward 7 unknown #
coedge $-1 $374 $249 $254 $389 forward $366 $-1 #
coedge $-1 $249 $374 $368 $523 reversed $366 $-1 #
vertex $-1 $250 $533 #
straight-curve $-1 0 39.056197632022027 15.122699894902782 -1 0 0 I I #
coedge $-1 $251 $369 $253 $388 reversed $151 $-1 #
vertex $-1 $380 $534 #
straight-curve $-1 0 -39.056197632022027 15.122699894902782 1 0 0 I I #
edge $-1 $256 -15.122699894902782 $377 15.122699894902782 $253 $535 forward 7 unknown #
edge $-1 $257 -15.122699894902782 $376 15.122699894902782 $254 $536 forward 7 unknown #
point $-1 56.106448561052275 -39.056197632022027 15.122699894902782 #
point $-1 56.106448561052275 39.056197632022027 15.122699894902782 #
face $-1 $-1 $274 $37 $-1 $537 reversed single #
loop $-1 $-1 $401 $259 #
plane-surface $-1 0 0 15.122699894902782 0 0 1 1 0 0 forward_v I I I I #
coedge $-1 $407 $406 $263 $400 forward $260 $-1 #
coedge $-1 $265 $262 $407 $538 reversed $159 $-1 #
coedge $-1 $262 $265 $410 $539 reversed $159 $-1 #
edge $-1 $412 -15.122699894902782 $408 15.122699894902782 $262 $540 forward 7 unknown #
coedge $-1 $264 $263 $414 $541 reversed $101 $-1 #
edge $-1 $542 -31.290106036130915 $404 -18.342579013711806 $395 $543 forward 7 unknown #
coedge $-1 $411 $410 $264 $402 forward $393 $-1 #
edge $-1 $403 18.342579013711806 $544 31.290106036130915 $401 $545 forward 7 unknown #
vertex $-1 $402 $546 #
vertex $-1 $400 $547 #
straight-curve $-1 -43.158921538633166 -23.698414602615159 0 0 0 -1 I I #
coedge $-1 $395 $268 $273 $416 forward $260 $-1 #
coedge $-1 $268 $395 $396 $538 forward $260 $-1 #
vertex $-1 $269 $548 #
straight-curve $-1 -24.81634252492136 -28.478031432095804 -15.122699894902782 -1 0 0 I I #
coedge $-1 $401 $270 $397 $539 forward $393 $-1 #
coedge $-1 $270 $401 $272 $415 forward $393 $-1 #
vertex $-1 $271 $549 #
straight-curve $-1 -24.81634252492136 -28.478031432095804 15.122699894902782 1 0 0 I I #
coedge $-1 $273 $272 $399 $541 forward $274 $-1 #
edge $-1 $544 23.698414602615159 $276 28.478031432095804 $272 $550 forward 7 unknown #
edge $-1 $275 -28.478031432095804 $542 -23.698414602615159 $273 $551 forward 7 unknown #
point $-1 -56.106448561052275 -28.478031432095804 -15.122699894902782 #
point $-1 -56.106448561052275 -28.478031432095804 15.122699894902782 #
face $-1 $-1 $552 $38 $-1 $553 reversed single #
loop $-1 $-1 $289 $278 #
plane-surface $-1 0 0 15.122699894902782 0 0 1 1 0 0 forward_v I I I I #
coedge $-1 $284 $281 $554 $555 reversed $167 $-1 #
coedge $-1 $281 $284 $556 $557 reversed $167 $-1 #
coedge $-1 $558 $559 $281 $425 forward $552 $-1 #
edge $-1 $560 -15.122699894902782 $561 15.122699894902782 $424 $562 forward 7 unknown #
coedge $-1 $554 $287 $282 $427 forward $279 $-1 #
edge $-1 $292 -15.433919923418063 $431 -10.654303093937418 $426 $563 forward 7 unknown #
coedge $-1 $289 $556 $283 $429 forward $420 $-1 #
edge $-1 $430 10.654303093937418 $291 15.433919923418063 $428 $564 forward 7 unknown #
vertex $-1 $429 $565 #
vertex $-1 $427 $566 #
straight-curve $-1 43.158921538633166 -23.698414602615159 0 0 0 -1 I I #
coedge $-1 $559 $558 $286 $434 forward $552 $-1 #
edge $-1 $439 -15.122699894902782 $436 15.122699894902782 $433 $567 forward 7 unknown #
coedge $-1 $287 $554 $559 $568 forward $279 $-1 #
vertex $-1 $434 $569 #
straight-curve $-1 24.81634252492136 -28.478031432095804 -15.122699894902782 -1 0 0 I I #
coedge $-1 $556 $289 $558 $570 forward $420 $-1 #
vertex $-1 $570 $571 #
straight-curve $-1 24.81634252492136 -28.478031432095804 15.122699894902782 1 0 0 I I #
point $-1 43.158921538633166 -28.478031432095804 15.122699894902782 #
point $-1 43.158921538633166 -28.478031432095804 -15.122699894902782 #
plane-surface $-1 0 0 15.122699894902782 0 0 1 1 0 0 forward_v I I I I #
coedge $-1 $454 $453 $446 $572 forward $295 $-1 #
coedge $-1 $446 $297 $299 $450 reversed $175 $-1 #
coedge $-1 $297 $445 $444 $572 reversed $175 $-1 #
coedge $-1 $305 $300 $297 $448 forward $306 $-1 #
edge $-1 $451 -7.9875706006761078 $573 -1.7758977529981124 $447 $574 forward 7 unknown #
coedge $-1 $299 $298 $454 $575 reversed $109 $-1 #
edge $-1 $576 -78.112395264044011 $451 -67.790830129646579 $445 $577 forward 7 unknown #
vertex $-1 $301 $578 #
straight-curve $-1 -3.1231466503074046 32.844524784344031 15.12269989490278 1 0 0 I I #
coedge $-1 $444 $302 $305 $458 reversed $295 $-1 #
coedge $-1 $302 $444 $449 $575 forward $295 $-1 #
vertex $-1 $303 $579 #
straight-curve $-1 -10.626725606319706 39.056197632022027 68.397135352194198 0 0 1 I I #
straight-curve $-1 -10.626725606319706 -7.9530144797881235 69.26286464953013 0 0.60181501223851219 -0.79863551827123203 I I #
edge $-1 $573 1.8658609949099123 $307 10.626725606319706 $453 $580 forward 7 unknown #
point $-1 -10.626725606319706 39.056197632022027 15.122699894902782 #
point $-1 -10.626725606319706 32.844524784344031 15.12269989490278 #
edge $-1 $581 1 $581 0 $310 $-1 forward 7 unknown #
vertex $-1 $311 $582 #
ellipse-curve $-1 -8.1236214316312001 33.755216418681975 9.3469554350031832 0 0.79863551827123203 0.60181501223851219 1 0 0 1 I I #
point $-1 -7.1236214316312001 35.950361208183011 11.001115634662883 #
edge $-1 $583 1 $583 0 $314 $-1 forward 7 unknown #
vertex $-1 $315 $584 #
ellipse-curve $-1 -4.3689651695984324 33.755216418681975 9.3469554350031832 0 0.79863551827123203 0.60181501223851219 1 0 0 1 I I #
point $-1 -3.3689651695984324 35.950361208183011 11.001115634662883 #
loop $-1 $-1 $326 $318 #
plane-surface $-1 0 -39.056197632022027 0 0 1 0 0 0 1 forward_v I I I I #
coedge $-1 $472 $321 $323 $476 reversed $197 $-1 #
coedge $-1 $321 $471 $585 $586 reversed $197 $-1 #
coedge $-1 $329 $324 $321 $474 forward $319 $-1 #
edge $-1 $477 -28.681318404352915 $587 -24.684386459906499 $473 $588 forward 7 unknown #
coedge $-1 $323 $322 $480 $589 reversed $123 $-1 #
edge $-1 $590 -1.1373479346495045e-014 $477 6.4920937450605933 $471 $591 forward 7 unknown #
vertex $-1 $325 $592 #
straight-curve $-1 -5.8953357900003596 -35.059265687575611 15.122699894902782 -1 0 0 I I #
coedge $-1 $585 $326 $329 $484 reversed $469 $-1 #
coedge $-1 $326 $585 $475 $589 forward $469 $-1 #
vertex $-1 $327 $593 #
straight-curve $-1 -4.0903728923223461 -39.056197632022027 39.546008381998263 0 0 1 I I #
straight-curve $-1 -4.0903728923223461 -39.05619763202202 10.006860156783659 0 -0.61566146476048833 -0.78801076186113728 I I #
edge $-1 $587 -19.490970267679092 $330 -4.0903728923223461 $479 $594 forward 7 unknown #
point $-1 -4.0903728923223461 -39.056197632022027 15.122699894902782 #
point $-1 -4.0903728923223461 -35.059265687575611 15.122699894902782 #
edge $-1 $595 1 $595 0 $333 $-1 forward 7 unknown #
vertex $-1 $334 $596 #
ellipse-curve $-1 -15.090799589005734 -36.019732437915508 11.753806175872459 0 -0.78801076186113728 0.61566146476048833 1 0 0 1 I I #
point $-1 -14.090799589005734 -37.057731659798826 12.564780025843231 #
edge $-1 $597 1 $597 0 $337 $-1 forward 7 unknown #
vertex $-1 $338 $598 #
ellipse-curve $-1 -8.4905435709956976 -36.019732437915508 11.753806175872459 0 -0.78801076186113728 0.61566146476048833 1 0 0 1 I I #
point $-1 -7.4905435709956976 -37.057731659798826 12.564780025843231 #
plane-surface $-1 0 0 15.122699894902782 0 0 1 1 0 0 forward_v I I I I #
coedge $-1 $506 $505 $498 $599 forward $342 $-1 #
coedge $-1 $498 $344 $346 $502 reversed $219 $-1 #
coedge $-1 $344 $497 $496 $599 reversed $219 $-1 #
coedge $-1 $352 $347 $344 $500 forward $353 $-1 #
edge $-1 $503 -28.681318404352915 $600 -24.684386459906499 $499 $601 forward 7 unknown #
coedge $-1 $346 $345 $506 $602 reversed $137 $-1 #
edge $-1 $603 -1.1373479346495045e-014 $503 6.4920937450605933 $497 $604 forward 7 unknown #
vertex $-1 $348 $605 #
straight-curve $-1 15.684124979316223 -35.059265687575611 15.122699894902782 -1 0 0 I I #
coedge $-1 $496 $349 $352 $510 reversed $342 $-1 #
coedge $-1 $349 $496 $501 $602 forward $342 $-1 #
vertex $-1 $350 $606 #
straight-curve $-1 39.068548646310816 -39.056197632022027 39.546008381998263 0 0 1 I I #
straight-curve $-1 39.068548646310816 -39.05619763202202 10.006860156783659 0 -0.61566146476048833 -0.78801076186113728 I I #
edge $-1 $600 23.667951270954074 $354 39.068548646310816 $505 $607 forward 7 unknown #
point $-1 39.068548646310816 -39.056197632022027 15.122699894902782 #
point $-1 39.068548646310816 -35.059265687575611 15.122699894902782 #
edge $-1 $608 1 $608 0 $357 $-1 forward 7 unknown #
vertex $-1 $358 $609 #
ellipse-curve $-1 28.068121949627425 -36.019732437915508 11.753806175872459 0 -0.78801076186113728 0.61566146476048833 1 0 0 1 I I #
point $-1 29.068121949627425 -37.057731659798826 12.564780025843231 #
edge $-1 $610 1 $610 0 $361 $-1 forward 7 unknown #
vertex $-1 $362 $611 #
ellipse-curve $-1 34.668377967637468 -36.019732437915508 11.753806175872459 0 -0.78801076186113728 0.61566146476048833 1 0 0 1 I I #
point $-1 35.668377967637468 -37.057731659798826 12.564780025843231 #
plane-surface $-1 56.106448561052275 0 0 -1 0 0 0 0 1 forward_v I I I I #
coedge $-1 $370 $368 $372 $526 reversed $241 $-1 #
edge $-1 $383 -15.122699894902782 $528 15.122699894902782 $382 $612 forward 7 unknown #
vertex $-1 $526 $613 #
straight-curve $-1 -56.106448561052275 -39.056197632022027 0 0 0 -1 I I #
edge $-1 $524 -39.056197632022027 $528 39.056197632022027 $522 $614 forward 7 unknown #
straight-curve $-1 0 -39.056197632022027 -15.122699894902782 -1 0 0 I I #
vertex $-1 $375 $615 #
straight-curve $-1 0 39.056197632022027 -15.122699894902782 1 0 0 I I #
point $-1 56.106448561052275 39.056197632022027 -15.122699894902782 #
point $-1 56.106448561052275 -39.056197632022027 -15.122699894902782 #
straight-curve $-1 -56.106448561052275 0 15.122699894902782 0 -1 0 I I #
point $-1 -56.106448561052275 39.056197632022027 15.122699894902782 #
point $-1 -56.106448561052275 -39.056197632022027 15.122699894902782 #
straight-curve $-1 56.106448561052275 -39.056197632022027 0 0 0 -1 I I #
straight-curve $-1 56.106448561052275 39.056197632022027 0 0 0 -1 I I #
plane-surface $-1 -56.106448561052275 0 0 1 0 0 0 0 -1 forward_v I I I I #
edge $-1 $404 10.654303093937418 $408 15.433919923418063 $407 $616 forward 7 unknown #
edge $-1 $412 -15.433919923418063 $403 -10.654303093937418 $410 $617 forward 7 unknown #
straight-curve $-1 -43.158921538633166 -28.478031432095804 0 0 0 -1 I I #
edge $-1 $544 -15.122699894902782 $542 15.122699894902782 $414 $618 forward 7 unknown #
vertex $-1 $541 $619 #
straight-curve $-1 -24.81634252492136 -23.698414602615159 -15.122699894902782 1 0 0 I I #
vertex $-1 $415 $620 #
straight-curve $-1 -24.81634252492136 -23.698414602615159 15.122699894902782 -1 0 0 I I #
point $-1 -43.158921538633166 -23.698414602615159 15.122699894902782 #
point $-1 -43.158921538633166 -23.698414602615159 -15.122699894902782 #
point $-1 -43.158921538633166 -28.478031432095804 -15.122699894902782 #
point $-1 -43.158921538633166 -28.478031432095804 15.122699894902782 #
straight-curve $-1 -56.106448561052275 0 15.122699894902782 0 -1 0 I I #
straight-curve $-1 -56.106448561052275 0 -15.122699894902782 0 1 0 I I #
loop $-1 $-1 $433 $419 #
plane-surface $-1 56.106448561052275 0 0 -1 0 0 0 0 1 forward_v I I I I #
coedge $-1 $435 $426 $422 $555 forward $279 $-1 #
edge $-1 $431 18.342579013711806 $560 31.290106036130915 $554 $621 forward 7 unknown #
coedge $-1 $428 $438 $423 $557 forward $420 $-1 #
edge $-1 $561 -31.290106036130915 $430 -18.342579013711806 $556 $622 forward 7 unknown #
coedge $-1 $433 $424 $438 $570 reversed $552 $-1 #
coedge $-1 $424 $433 $435 $568 reversed $552 $-1 #
vertex $-1 $568 $623 #
vertex $-1 $425 $624 #
straight-curve $-1 56.106448561052275 -23.698414602615159 0 0 0 1 I I #
straight-curve $-1 43.158921538633166 -13.044111508677741 -15.122699894902782 0 1 0 I I #
straight-curve $-1 43.158921538633166 -13.044111508677741 15.122699894902782 0 -1 0 I I #
point $-1 43.158921538633166 -23.698414602615159 15.122699894902782 #
point $-1 43.158921538633166 -23.698414602615159 -15.122699894902782 #
straight-curve $-1 56.106448561052275 -28.478031432095804 0 0 0 -1 I I #
edge $-1 $560 23.698414602615159 $436 28.478031432095804 $559 $625 forward 7 unknown #
point $-1 56.106448561052275 -28.478031432095804 -15.122699894902782 #
edge $-1 $439 -28.478031432095804 $561 -23.698414602615159 $558 $626 forward 7 unknown #
point $-1 56.106448561052275 -28.478031432095804 15.122699894902782 #
edge $-1 $573 53.274435457291418 $576 61.517603977771188 $444 $627 forward 7 unknown #
vertex $-1 $458 $628 #
straight-curve $-1 -1.8658609949099123 40.832095385020139 15.12269989490278 0 1 0 I I #
edge $-1 $576 -1.2572856553974923 $455 7.5035789560123014 $454 $629 forward 7 unknown #
vertex $-1 $575 $630 #
straight-curve $-1 -1.8658609949099123 -7.9530144797881235 69.26286464953013 0 -0.60181501223851219 0.79863551827123203 I I #
point $-1 -1.8658609949099123 32.844524784344031 15.12269989490278 #
point $-1 -10.626725606319706 39.056197632022027 6.87953137442301 #
straight-curve $-1 0 39.056197632022027 15.122699894902782 -1 0 0 I I #
vertex $-1 $461 $631 #
point $-1 -7.1236214316312001 33.755216418681975 9.3469554350031832 #
vertex $-1 $465 $632 #
point $-1 -3.3689651695984324 33.755216418681975 9.3469554350031832 #
coedge $-1 $480 $479 $472 $586 forward $469 $-1 #
edge $-1 $587 24.423308487095483 $590 29.53914822521461 $585 $633 forward 7 unknown #
vertex $-1 $484 $634 #
straight-curve $-1 -19.490970267679092 -63.740584091928525 15.12269989490278 0 -1 0 I I #
edge $-1 $590 -13.595634477678733 $481 1.8049628976780134 $480 $635 forward 7 unknown #
vertex $-1 $589 $636 #
straight-curve $-1 -19.490970267679092 -39.05619763202202 10.006860156783659 0 0.61566146476048833 0.78801076186113728 I I #
point $-1 -19.490970267679092 -35.059265687575611 15.122699894902782 #
point $-1 -4.0903728923223461 -39.056197632022027 10.006860156783651 #
straight-curve $-1 0 -39.056197632022027 15.122699894902782 1 0 0 I I #
vertex $-1 $487 $637 #
point $-1 -14.090799589005734 -36.019732437915508 11.753806175872459 #
vertex $-1 $491 $638 #
point $-1 -7.4905435709956976 -36.019732437915508 11.753806175872459 #
edge $-1 $600 24.423308487095483 $603 29.53914822521461 $496 $639 forward 7 unknown #
vertex $-1 $510 $640 #
straight-curve $-1 23.667951270954074 -63.740584091928525 15.12269989490278 0 -1 0 I I #
edge $-1 $603 7.9838262916378504 $507 23.384423666994593 $506 $641 forward 7 unknown #
vertex $-1 $602 $642 #
straight-curve $-1 23.667951270954074 -39.05619763202202 10.006860156783659 0 0.61566146476048833 0.78801076186113728 I I #
point $-1 23.667951270954074 -35.059265687575611 15.122699894902782 #
point $-1 39.068548646310816 -39.056197632022027 10.006860156783651 #
straight-curve $-1 0 -39.056197632022027 15.122699894902782 1 0 0 I I #
vertex $-1 $513 $643 #
point $-1 29.068121949627425 -36.019732437915508 11.753806175872459 #
vertex $-1 $517 $644 #
point $-1 35.668377967637468 -36.019732437915508 11.753806175872459 #
straight-curve $-1 -56.106448561052275 39.056197632022027 0 0 0 -1 I I #
point $-1 -56.106448561052275 -39.056197632022027 -15.122699894902782 #
straight-curve $-1 -56.106448561052275 0 -15.122699894902782 0 1 0 I I #
point $-1 -56.106448561052275 39.056197632022027 -15.122699894902782 #
straight-curve $-1 -43.158921538633166 -13.044111508677741 -15.122699894902782 0 -1 0 I I #
straight-curve $-1 -43.158921538633166 -13.044111508677741 15.122699894902782 0 1 0 I I #
straight-curve $-1 -56.106448561052275 -23.698414602615159 0 0 0 -1 I I #
point $-1 -56.106448561052275 -23.698414602615159 -15.122699894902782 #
point $-1 -56.106448561052275 -23.698414602615159 15.122699894902782 #
straight-curve $-1 24.81634252492136 -23.698414602615159 -15.122699894902782 1 0 0 I I #
straight-curve $-1 24.81634252492136 -23.698414602615159 15.122699894902782 -1 0 0 I I #
point $-1 56.106448561052275 -23.698414602615159 -15.122699894902782 #
point $-1 56.106448561052275 -23.698414602615159 15.122699894902782 #
straight-curve $-1 56.106448561052275 0 -15.122699894902782 0 -1 0 I I #
straight-curve $-1 56.106448561052275 0 15.122699894902782 0 1 0 I I #
straight-curve $-1 -1.8658609949099123 39.056197632022027 68.397135352194198 0 0 -1 I I #
point $-1 -1.8658609949099123 39.056197632022027 15.122699894902782 #
straight-curve $-1 -3.1231466503074046 39.056197632022027 6.8795313744230064 -1 0 0 I I #
point $-1 -1.8658609949099123 39.056197632022027 6.87953137442301 #
point $-1 -8.1236214316312001 32.956580900410749 8.7451404227646723 #
point $-1 -4.3689651695984324 32.956580900410749 8.7451404227646723 #
straight-curve $-1 -19.490970267679092 -39.056197632022027 39.546008381998263 0 0 -1 I I #
point $-1 -19.490970267679092 -39.056197632022027 15.122699894902782 #
straight-curve $-1 -5.8953357900003596 -39.056197632022027 10.006860156783645 1 0 0 I I #
point $-1 -19.490970267679092 -39.056197632022027 10.006860156783651 #
point $-1 -15.090799589005734 -35.231721676054377 11.13814471111197 #
point $-1 -8.4905435709956976 -35.231721676054377 11.13814471111197 #
straight-curve $-1 23.667951270954074 -39.056197632022027 39.546008381998263 0 0 -1 I I #
point $-1 23.667951270954074 -39.056197632022027 15.122699894902782 #
straight-curve $-1 15.684124979316223 -39.056197632022027 10.006860156783645 1 0 0 I I #
point $-1 23.667951270954074 -39.056197632022027 10.006860156783651 #
point $-1 28.068121949627425 -35.231721676054377 11.13814471111197 #
point $-1 34.668377967637468 -35.231721676054377 11.13814471111197 #
End-of-ACIS-data 