500 0 8 0           
7 Unknown 11 ACIS 5.0 NT 24 Thu Mar 25 19:06:06 1999 
-1 9.9999999999999995e-007 1e-010 
body $-1 $8 $-1 $9 #
body $-1 $10 $-1 $11 #
body $-1 $12 $-1 $13 #
body $-1 $14 $-1 $15 #
body $-1 $16 $-1 $17 #
body $-1 $18 $-1 $19 #
body $-1 $20 $-1 $21 #
body $-1 $22 $-1 $23 #
lump $-1 $-1 $24 $0 #
transform $-1 1 0 0 0 1 0 0 0 1 43.612170781579024 28.320426303090311 12.613812603997646 1 rotate no_reflect no_shear #
lump $-1 $-1 $25 $1 #
transform $-1 1 0 0 0 1 0 0 0 1 43.612170781579024 28.320426303090311 12.613812603997646 1 rotate no_reflect no_shear #
lump $-1 $-1 $26 $2 #
transform $-1 1 0 0 0 1 0 0 0 1 43.612170781579024 28.320426303090311 12.613812603997646 1 rotate no_reflect no_shear #
lump $-1 $-1 $27 $3 #
transform $-1 1 0 0 0 1 0 0 0 1 43.612170781579024 28.320426303090311 12.613812603997646 1 rotate no_reflect no_shear #
lump $-1 $-1 $28 $4 #
transform $-1 1 0 0 0 1 0 0 0 1 43.612170781579024 28.320426303090311 12.613812603997646 1 rotate no_reflect no_shear #
lump $-1 $-1 $29 $5 #
transform $-1 1 0 0 0 1 0 0 0 1 43.612170781579024 28.320426303090311 12.613812603997646 1 rotate no_reflect no_shear #
lump $-1 $-1 $30 $6 #
transform $-1 1 0 0 0 1 0 0 0 1 43.612170781579024 28.320426303090311 12.613812603997646 1 rotate no_reflect no_shear #
lump $-1 $-1 $31 $7 #
transform $-1 1 0 0 0 1 0 0 0 1 43.612170781579024 28.320426303090311 12.613812603997646 1 rotate no_reflect no_shear #
shell $-1 $-1 $-1 $32 $-1 $8 #
shell $-1 $-1 $-1 $33 $-1 $10 #
shell $-1 $-1 $-1 $34 $-1 $12 #
shell $-1 $-1 $-1 $35 $-1 $14 #
shell $-1 $-1 $-1 $36 $-1 $16 #
shell $-1 $-1 $-1 $37 $-1 $18 #
shell $-1 $-1 $-1 $38 $-1 $20 #
shell $-1 $-1 $-1 $39 $-1 $22 #
face $-1 $40 $41 $24 $-1 $42 forward single #
face $-1 $43 $44 $25 $-1 $45 reversed single #
face $-1 $46 $47 $26 $-1 $48 reversed single #
face $-1 $49 $50 $27 $-1 $51 forward single #
face $-1 $52 $53 $28 $-1 $54 forward single #
face $-1 $55 $56 $29 $-1 $57 reversed single #
face $-1 $58 $59 $30 $-1 $60 forward single #
face $-1 $61 $62 $31 $-1 $63 forward single #
face $-1 $64 $65 $24 $-1 $66 reversed single #
loop $-1 $-1 $67 $32 #
plane-surface $-1 0 0 12.613812603997646 0 0 1 1 0 0 forward_v I I I I #
face $-1 $68 $69 $25 $-1 $70 reversed single #
loop $-1 $-1 $71 $33 #
plane-surface $-1 -37.719394960285015 0 8.6408485132716706 0 0 1 1 0 0 forward_v I I I I #
face $-1 $72 $73 $26 $-1 $74 reversed single #
loop $-1 $-1 $75 $34 #
plane-surface $-1 37.246483285290694 -28.320426303090315 5.3671521336994203 0 -0.55919291073839883 0.82903756765294845 1 0 0 forward_v I I I I #
face $-1 $76 $77 $27 $-1 $78 forward single #
loop $-1 $79 $80 $35 #
cone-surface $-1 34.518331501167111 -22.061567159734835 7.6753748152046608 0 0.55919291073839883 -0.82903756765294845 1 0 0 1 I I 0 1 1 forward I I I I #
face $-1 $81 $82 $28 $-1 $83 forward single #
loop $-1 $84 $85 $36 #
cone-surface $-1 39.974635069414262 -22.061567159734835 7.6753748152046608 0 0.55919291073839883 -0.82903756765294845 1 0 0 1 I I 0 1 1 forward I I I I #
face $-1 $86 $87 $29 $-1 $88 reversed single #
loop $-1 $-1 $89 $37 #
plane-surface $-1 -13.154627136899617 75.538497055593297 100.92142846044034 1 0 0 0 -0.86602541151947299 -0.49999998660252726 forward_v I I I I #
face $-1 $90 $91 $30 $-1 $92 forward single #
loop $-1 $93 $94 $38 #
cone-surface $-1 -9.2341083936902919 26.617731267514802 10.178437335550791 0 -0.86602541151947299 -0.49999998660252726 1 0 0 1 I I 0 1 1 forward I I I I #
face $-1 $95 $96 $31 $-1 $97 forward single #
loop $-1 $98 $99 $39 #
cone-surface $-1 -3.3533302788763066 26.617731267514802 10.178437335550791 0 -0.86602541151947299 -0.49999998660252726 1 0 0 1 I I 0 1 1 forward I I I I #
face $-1 $100 $101 $24 $-1 $102 reversed single #
loop $-1 $-1 $103 $40 #
plane-surface $-1 0 0 -12.613812603997646 0 0 1 1 0 0 forward_v I I I I #
coedge $-1 $104 $105 $106 $107 forward $41 $-1 #
face $-1 $108 $109 $25 $-1 $110 reversed single #
loop $-1 $-1 $111 $43 #
plane-surface $-1 -31.826619138991006 0 10.627330558634659 -1 0 0 0 0 1 forward_v I I I I #
coedge $-1 $112 $113 $114 $115 forward $44 $-1 #
face $-1 $116 $117 $26 $-1 $118 reversed single #
loop $-1 $-1 $119 $46 #
plane-surface $-1 30.880795789002349 -77.095659749032961 77.679408103349942 1 0 0 0 0.55919291073839883 -0.82903756765294845 forward_v I I I I #
coedge $-1 $120 $121 $122 $123 reversed $47 $-1 #
face $-1 $-1 $124 $27 $-1 $125 forward single #
loop $-1 $126 $127 $49 #
cone-surface $-1 34.518331501167111 -20.894919442095187 5.9457484777343144 0 0.55919291073839883 -0.82903756765294845 0.5 0 0 1 I I -0.70710678118654746 0.70710678118654746 0.5 forward I I I I #
loop $-1 $-1 $128 $35 #
coedge $-1 $80 $80 $129 $130 reversed $50 $-1 #
face $-1 $-1 $131 $28 $-1 $132 forward single #
loop $-1 $133 $134 $52 #
cone-surface $-1 39.974635069414262 -20.894919442095187 5.9457484777343144 0 0.55919291073839883 -0.82903756765294845 0.5 0 0 1 I I -0.70710678118654746 0.70710678118654746 0.5 forward I I I I #
loop $-1 $-1 $135 $36 #
coedge $-1 $85 $85 $136 $137 reversed $53 $-1 #
face $-1 $138 $139 $29 $-1 $140 reversed single #
loop $-1 $-1 $141 $55 #
plane-surface $-1 -6.2937193362833028 7.5884427985783987e-007 57.309258847447055 0 0.86602541151947299 0.49999998660252726 1 0 0 forward_v I I I I #
coedge $-1 $142 $143 $144 $145 reversed $56 $-1 #
face $-1 $-1 $146 $30 $-1 $147 forward single #
loop $-1 $148 $149 $58 #
cone-surface $-1 -9.2341083936902919 25.739772799160679 9.6715477956186628 0 -0.86602541151947299 -0.49999998660252726 0.5 0 0 1 I I -0.70710678118654746 0.70710678118654746 0.5 forward I I I I #
loop $-1 $-1 $150 $38 #
coedge $-1 $94 $94 $151 $152 reversed $59 $-1 #
face $-1 $-1 $153 $31 $-1 $154 forward single #
loop $-1 $155 $156 $61 #
cone-surface $-1 -3.3533302788763066 25.739772799160679 9.6715477956186628 0 -0.86602541151947299 -0.49999998660252726 0.5 0 0 1 I I -0.70710678118654746 0.70710678118654746 0.5 forward I I I I #
loop $-1 $-1 $157 $39 #
coedge $-1 $99 $99 $158 $159 reversed $62 $-1 #
face $-1 $160 $161 $24 $-1 $162 reversed single #
loop $-1 $-1 $163 $64 #
plane-surface $-1 0 -28.320426303090311 0 0 1 0 0 0 1 forward_v I I I I #
coedge $-1 $164 $165 $166 $167 forward $65 $-1 #
coedge $-1 $168 $67 $169 $170 forward $41 $-1 #
coedge $-1 $67 $168 $171 $172 forward $41 $-1 #
coedge $-1 $173 $174 $67 $107 reversed $175 $-1 #
edge $-1 $176 -28.320426303090311 $177 28.320426303090311 $106 $178 forward 7 unknown #
face $-1 $179 $180 $25 $-1 $181 reversed single #
loop $-1 $-1 $182 $68 #
plane-surface $-1 0 28.320426303090311 0 0 -1 0 0 0 -1 forward_v I I I I #
coedge $-1 $114 $183 $184 $185 reversed $69 $-1 #
coedge $-1 $186 $71 $187 $188 reversed $44 $-1 #
coedge $-1 $71 $186 $189 $190 reversed $44 $-1 #
coedge $-1 $191 $111 $71 $115 reversed $69 $-1 #
edge $-1 $192 -28.320426303090311 $193 28.320426303090311 $114 $194 forward 7 unknown #
face $-1 $195 $196 $26 $-1 $197 forward single #
loop $-1 $-1 $198 $72 #
plane-surface $-1 43.612170781579024 0 0 -1 0 0 0 0 1 forward_v I I I I #
coedge $-1 $199 $200 $201 $202 reversed $73 $-1 #
coedge $-1 $203 $75 $198 $204 reversed $47 $-1 #
coedge $-1 $75 $203 $199 $205 forward $47 $-1 #
coedge $-1 $201 $206 $75 $123 forward $196 $-1 #
edge $-1 $207 -24.988929138933692 $208 -12.257554146357002 $122 $209 forward 7 unknown #
loop $-1 $-1 $129 $76 #
plane-surface $-1 37.246483285290694 -28.320426303090315 5.3671521336994203 0 -0.55919291073839883 0.82903756765294845 1 0 0 forward_v I I I I #
loop $-1 $-1 $210 $49 #
coedge $-1 $127 $127 $128 $211 reversed $77 $-1 #
coedge $-1 $128 $128 $127 $211 forward $79 $-1 #
coedge $-1 $129 $129 $80 $130 forward $124 $-1 #
edge $-1 $212 -2.9453331068401257e-015 $212 6.2831853071795978 $129 $213 forward 7 unknown #
loop $-1 $-1 $136 $81 #
plane-surface $-1 37.246483285290694 -28.320426303090315 5.3671521336994203 0 -0.55919291073839883 0.82903756765294845 1 0 0 forward_v I I I I #
loop $-1 $-1 $214 $52 #
coedge $-1 $134 $134 $135 $215 reversed $82 $-1 #
coedge $-1 $135 $135 $134 $215 forward $84 $-1 #
coedge $-1 $136 $136 $85 $137 forward $131 $-1 #
edge $-1 $216 -2.9453331068401257e-015 $216 6.2831853071795978 $136 $217 forward 7 unknown #
face $-1 $218 $219 $29 $-1 $220 reversed single #
loop $-1 $-1 $221 $86 #
plane-surface $-1 0.56718846433301096 75.538497055593297 100.92142846044034 -1 0 0 0 0.86602541151947299 0.49999998660252726 forward_v I I I I #
coedge $-1 $222 $223 $224 $225 reversed $87 $-1 #
coedge $-1 $143 $89 $226 $227 reversed $56 $-1 #
coedge $-1 $89 $142 $222 $228 reversed $56 $-1 #
coedge $-1 $224 $229 $89 $145 forward $230 $-1 #
edge $-1 $231 9.4488222247063369 $232 11.964320770668575 $144 $233 forward 7 unknown #
loop $-1 $-1 $151 $90 #
plane-surface $-1 -6.2937193362833028 7.5884427985783987e-007 57.309258847447055 0 0.86602541151947299 0.49999998660252726 1 0 0 forward_v I I I I #
loop $-1 $-1 $234 $58 #
coedge $-1 $149 $149 $150 $235 reversed $91 $-1 #
coedge $-1 $150 $150 $149 $235 forward $93 $-1 #
coedge $-1 $151 $151 $94 $152 forward $146 $-1 #
edge $-1 $236 1.5383701628470323e-015 $236 6.2831853071796022 $151 $237 forward 7 unknown #
loop $-1 $-1 $158 $95 #
plane-surface $-1 -6.2937193362833028 7.5884427985783987e-007 57.309258847447055 0 0.86602541151947299 0.49999998660252726 1 0 0 forward_v I I I I #
loop $-1 $-1 $238 $61 #
coedge $-1 $156 $156 $157 $239 reversed $96 $-1 #
coedge $-1 $157 $157 $156 $239 forward $98 $-1 #
coedge $-1 $158 $158 $99 $159 forward $153 $-1 #
edge $-1 $240 1.5383701628470323e-015 $240 6.2831853071796022 $158 $241 forward 7 unknown #
face $-1 $242 $243 $24 $-1 $244 reversed single #
loop $-1 $-1 $245 $100 #
plane-surface $-1 -43.612170781579024 0 0 1 0 0 0 0 -1 forward_v I I I I #
coedge $-1 $246 $171 $247 $248 forward $101 $-1 #
coedge $-1 $249 $103 $246 $250 forward $65 $-1 #
coedge $-1 $103 $249 $251 $252 forward $65 $-1 #
coedge $-1 $174 $173 $103 $167 reversed $175 $-1 #
edge $-1 $253 -28.320426303090311 $254 28.320426303090311 $166 $255 forward 7 unknown #
coedge $-1 $105 $104 $256 $257 forward $41 $-1 #
coedge $-1 $258 $259 $104 $170 reversed $243 $-1 #
edge $-1 $177 -43.612170781579024 $260 43.612170781579024 $169 $261 forward 7 unknown #
coedge $-1 $163 $262 $105 $172 reversed $101 $-1 #
edge $-1 $263 -43.612170781579024 $176 43.612170781579024 $171 $264 forward 7 unknown #
coedge $-1 $166 $106 $262 $265 forward $175 $-1 #
coedge $-1 $106 $166 $258 $266 reversed $175 $-1 #
loop $-1 $-1 $173 $242 #
vertex $-1 $107 $267 #
vertex $-1 $107 $268 #
straight-curve $-1 43.612170781579024 0 12.613812603997646 0 1 0 I I #
face $-1 $269 $270 $25 $-1 $271 forward single #
loop $-1 $-1 $272 $108 #
plane-surface $-1 -43.612170781579024 0 0 1 0 0 0 0 -1 forward_v I I I I #
coedge $-1 $189 $273 $191 $274 forward $109 $-1 #
coedge $-1 $111 $191 $275 $276 reversed $69 $-1 #
coedge $-1 $277 $187 $111 $185 forward $278 $-1 #
edge $-1 $193 3.327183233954341 $279 7.3001473246803181 $184 $280 forward 7 unknown #
coedge $-1 $113 $112 $272 $281 reversed $44 $-1 #
coedge $-1 $184 $282 $112 $188 forward $278 $-1 #
edge $-1 $283 -24.752473301436517 $193 -12.966921658848499 $187 $284 forward 7 unknown #
coedge $-1 $285 $182 $113 $190 forward $109 $-1 #
edge $-1 $192 12.966921658848499 $286 24.752473301436517 $189 $287 forward 7 unknown #
coedge $-1 $183 $114 $182 $274 reversed $69 $-1 #
vertex $-1 $190 $288 #
vertex $-1 $188 $289 #
straight-curve $-1 -31.826619138991006 0 8.6408485132716706 0 -1 0 I I #
face $-1 $-1 $290 $26 $-1 $291 reversed single #
loop $-1 $-1 $122 $116 #
plane-surface $-1 0 0 12.613812603997646 0 0 1 1 0 0 forward_v I I I I #
coedge $-1 $292 $293 $120 $204 forward $117 $-1 #
coedge $-1 $200 $119 $121 $205 reversed $73 $-1 #
coedge $-1 $119 $199 $294 $295 reversed $73 $-1 #
coedge $-1 $296 $122 $119 $202 forward $196 $-1 #
edge $-1 $208 -20.971019333596217 $297 -10.227403571426169 $201 $298 forward 7 unknown #
coedge $-1 $121 $120 $299 $300 reversed $47 $-1 #
edge $-1 $301 -10.238711956594692 $207 2.7204302841916008 $198 $302 forward 7 unknown #
edge $-1 $303 4.4353223341415584e-015 $208 12.959142240786296 $199 $304 forward 7 unknown #
coedge $-1 $122 $296 $292 $305 forward $196 $-1 #
vertex $-1 $123 $306 #
vertex $-1 $123 $307 #
straight-curve $-1 18.623241642645347 -17.576810540920263 12.613812603997646 -1 0 0 I I #
coedge $-1 $210 $210 $-1 $308 reversed $126 $-1 #
edge $-1 $309 0 $309 6.2831853071796004 $127 $310 forward 7 unknown #
vertex $-1 $130 $311 #
ellipse-curve $-1 34.518331501167111 -22.948618422005286 8.990482368848534 0 -0.55919291073839883 0.82903756765294845 1 0 0 1 I I #
coedge $-1 $214 $214 $-1 $312 reversed $133 $-1 #
edge $-1 $313 0 $313 6.2831853071796004 $134 $314 forward 7 unknown #
vertex $-1 $137 $315 #
ellipse-curve $-1 39.974635069414262 -22.948618422005286 8.990482368848534 0 -0.55919291073839883 0.82903756765294845 1 0 0 1 I I #
face $-1 $-1 $230 $29 $-1 $316 forward single #
loop $-1 $-1 $317 $138 #
plane-surface $-1 0 28.320426303090311 0 0 -1 0 0 0 -1 forward_v I I I I #
coedge $-1 $318 $319 $320 $321 reversed $139 $-1 #
coedge $-1 $322 $141 $143 $228 forward $87 $-1 #
coedge $-1 $141 $322 $318 $323 forward $87 $-1 #
coedge $-1 $320 $144 $141 $225 forward $230 $-1 #
edge $-1 $232 -10.007767468757965 $324 3.7140481324746624 $224 $325 forward 7 unknown #
coedge $-1 $326 $327 $142 $227 forward $219 $-1 #
edge $-1 $328 -42.203873069854502 $231 -37.846901626222525 $226 $329 forward 7 unknown #
edge $-1 $232 51.609855379450849 $328 56.640852606180616 $143 $330 forward 7 unknown #
coedge $-1 $144 $320 $326 $331 forward $230 $-1 #
loop $-1 $-1 $320 $218 #
vertex $-1 $227 $332 #
vertex $-1 $145 $333 #
straight-curve $-1 -13.154627136899617 37.769248527796648 12.613812603997644 0 -1 0 I I #
coedge $-1 $234 $234 $-1 $334 reversed $148 $-1 #
edge $-1 $335 0 $335 6.2831853071796004 $149 $336 forward 7 unknown #
vertex $-1 $152 $337 #
ellipse-curve $-1 -9.2341083936902919 27.062677030109192 10.435326882181657 0 0.86602541151947299 0.49999998660252726 1 0 0 1 I I #
coedge $-1 $238 $238 $-1 $338 reversed $155 $-1 #
edge $-1 $339 0 $339 6.2831853071796004 $156 $340 forward 7 unknown #
vertex $-1 $159 $341 #
ellipse-curve $-1 -3.3533302788763066 27.062677030109192 10.435326882181657 0 0.86602541151947299 0.49999998660252726 1 0 0 1 I I #
face $-1 $-1 $175 $24 $-1 $342 reversed single #
loop $-1 $-1 $258 $160 #
plane-surface $-1 0 28.320426303090311 0 0 -1 0 0 0 -1 forward_v I I I I #
coedge $-1 $343 $256 $259 $344 forward $161 $-1 #
coedge $-1 $262 $163 $164 $250 reversed $101 $-1 #
coedge $-1 $256 $343 $163 $248 reversed $161 $-1 #
edge $-1 $263 -12.613812603997646 $345 12.613812603997646 $247 $346 forward 7 unknown #
coedge $-1 $165 $164 $343 $347 forward $65 $-1 #
edge $-1 $254 -43.612170781579024 $345 43.612170781579024 $246 $348 forward 7 unknown #
coedge $-1 $259 $258 $165 $252 reversed $243 $-1 #
edge $-1 $349 -43.612170781579024 $253 43.612170781579024 $251 $350 forward 7 unknown #
vertex $-1 $167 $351 #
vertex $-1 $265 $352 #
straight-curve $-1 43.612170781579024 0 -12.613812603997646 0 -1 0 I I #
coedge $-1 $245 $247 $168 $257 reversed $161 $-1 #
edge $-1 $260 -28.320426303090311 $263 28.320426303090311 $256 $353 forward 7 unknown #
coedge $-1 $251 $169 $174 $266 forward $243 $-1 #
coedge $-1 $169 $251 $245 $344 reversed $243 $-1 #
vertex $-1 $170 $354 #
straight-curve $-1 0 28.320426303090311 12.613812603997646 -1 0 0 I I #
coedge $-1 $171 $246 $173 $265 reversed $101 $-1 #
vertex $-1 $257 $355 #
straight-curve $-1 0 -28.320426303090311 12.613812603997646 1 0 0 I I #
edge $-1 $176 -12.613812603997646 $254 12.613812603997646 $173 $356 forward 7 unknown #
edge $-1 $177 -12.613812603997646 $253 12.613812603997646 $174 $357 forward 7 unknown #
point $-1 43.612170781579024 -28.320426303090311 12.613812603997646 #
point $-1 43.612170781579024 28.320426303090311 12.613812603997646 #
face $-1 $-1 $278 $25 $-1 $358 reversed single #
loop $-1 $-1 $275 $179 #
plane-surface $-1 0 0 12.613812603997646 0 0 1 1 0 0 forward_v I I I I #
coedge $-1 $359 $360 $186 $281 forward $180 $-1 #
coedge $-1 $182 $285 $361 $362 reversed $109 $-1 #
edge $-1 $363 -7.3001473246803181 $192 -3.327183233954341 $182 $364 forward 7 unknown #
coedge $-1 $361 $365 $183 $276 forward $270 $-1 #
edge $-1 $279 -28.320426303090311 $363 28.320426303090311 $275 $366 forward 7 unknown #
coedge $-1 $282 $184 $365 $367 reversed $278 $-1 #
loop $-1 $-1 $184 $269 #
vertex $-1 $185 $368 #
straight-curve $-1 -31.826619138991006 -28.320426303090311 5.3136652793173296 0 0 1 I I #
edge $-1 $286 -28.320426303090311 $283 28.320426303090311 $272 $369 forward 7 unknown #
coedge $-1 $187 $277 $359 $370 forward $278 $-1 #
vertex $-1 $281 $371 #
straight-curve $-1 -18.859697480142508 -28.320426303090311 8.6408485132716706 1 0 0 I I #
coedge $-1 $273 $189 $360 $372 reversed $109 $-1 #
vertex $-1 $281 $373 #
straight-curve $-1 -18.859697480142508 28.320426303090311 8.6408485132716706 -1 0 0 I I #
point $-1 -31.826619138991006 28.320426303090311 8.6408485132716706 #
point $-1 -31.826619138991006 -28.320426303090311 8.6408485132716706 #
loop $-1 $-1 $299 $195 #
plane-surface $-1 0 -28.320426303090311 0 0 1 0 0 0 1 forward_v I I I I #
coedge $-1 $293 $198 $206 $305 reversed $117 $-1 #
coedge $-1 $198 $292 $374 $375 forward $117 $-1 #
coedge $-1 $299 $376 $200 $295 forward $290 $-1 #
edge $-1 $297 26.225891447677327 $303 33.472551917975551 $294 $377 forward 7 unknown #
coedge $-1 $206 $201 $376 $378 forward $196 $-1 #
vertex $-1 $378 $379 #
straight-curve $-1 30.880795789002349 -38.547829874516481 12.613812603997644 0 -1 0 I I #
coedge $-1 $374 $294 $203 $300 forward $290 $-1 #
edge $-1 $303 12.257554146357002 $301 24.988929138933692 $299 $380 forward 7 unknown #
vertex $-1 $300 $381 #
straight-curve $-1 43.612170781579024 -19.832149446695887 11.092567274919654 0 0.82903756765294845 0.55919291073839883 I I #
vertex $-1 $300 $382 #
straight-curve $-1 30.880795789002349 -28.320426303090315 5.3671521336994203 0 0.82903756765294845 0.55919291073839883 I I #
edge $-1 $383 -28.320426303090311 $207 -17.576810540920263 $292 $384 forward 7 unknown #
point $-1 43.612170781579039 -17.576810540920263 12.613812603997646 #
point $-1 30.880795789002349 -17.576810540920263 12.613812603997646 #
edge $-1 $385 1 $385 0 $210 $-1 forward 7 unknown #
vertex $-1 $211 $386 #
ellipse-curve $-1 34.518331501167111 -21.174515897464385 6.3602672615607885 0 -0.55919291073839883 0.82903756765294845 1 0 0 1 I I #
point $-1 35.518331501167111 -22.948618422005289 8.990482368848534 #
edge $-1 $387 1 $387 0 $214 $-1 forward 7 unknown #
vertex $-1 $215 $388 #
ellipse-curve $-1 39.974635069414262 -21.174515897464385 6.3602672615607885 0 -0.55919291073839883 0.82903756765294845 1 0 0 1 I I #
point $-1 40.974635069414262 -22.948618422005289 8.990482368848534 #
plane-surface $-1 0 0 12.613812603997646 0 0 1 1 0 0 forward_v I I I I #
coedge $-1 $327 $326 $319 $389 forward $219 $-1 #
coedge $-1 $319 $221 $223 $323 reversed $139 $-1 #
coedge $-1 $221 $318 $317 $389 reversed $139 $-1 #
coedge $-1 $229 $224 $221 $321 forward $230 $-1 #
edge $-1 $324 -11.964320770668575 $390 -9.4488222247063369 $320 $391 forward 7 unknown #
coedge $-1 $223 $222 $327 $392 reversed $87 $-1 #
edge $-1 $393 -56.640852606180616 $324 -51.609855379450849 $318 $394 forward 7 unknown #
vertex $-1 $225 $395 #
straight-curve $-1 -3.1468596681416514 25.804927757128077 12.613812603997648 1 0 0 I I #
coedge $-1 $317 $226 $229 $331 reversed $219 $-1 #
coedge $-1 $226 $317 $322 $392 forward $219 $-1 #
vertex $-1 $227 $396 #
straight-curve $-1 -13.154627136899617 28.320426303090311 50.460714230220169 0 0 1 I I #
straight-curve $-1 -13.154627136899617 7.5884427985783987e-007 57.309258847447055 0 0.49999998660252726 -0.86602541151947299 I I #
edge $-1 $390 -0.56718846433301096 $231 13.154627136899617 $326 $397 forward 7 unknown #
point $-1 -13.154627136899617 28.320426303090311 12.613812603997646 #
point $-1 -13.154627136899617 25.804927757128073 12.613812603997644 #
edge $-1 $398 1 $398 0 $234 $-1 forward 7 unknown #
vertex $-1 $235 $399 #
ellipse-curve $-1 -9.2341083936902919 26.172785504920416 9.9215477889199271 0 0.86602541151947299 0.49999998660252726 1 0 0 1 I I #
point $-1 -8.2341083936902919 27.062677030109192 10.435326882181656 #
edge $-1 $400 1 $400 0 $238 $-1 forward 7 unknown #
vertex $-1 $239 $401 #
ellipse-curve $-1 -3.3533302788763066 26.172785504920416 9.9215477889199271 0 0.86602541151947299 0.49999998660252726 1 0 0 1 I I #
point $-1 -2.3533302788763066 27.062677030109192 10.435326882181656 #
plane-surface $-1 43.612170781579024 0 0 -1 0 0 0 0 1 forward_v I I I I #
coedge $-1 $247 $245 $249 $347 reversed $161 $-1 #
edge $-1 $260 -12.613812603997646 $349 12.613812603997646 $259 $402 forward 7 unknown #
vertex $-1 $347 $403 #
straight-curve $-1 -43.612170781579024 -28.320426303090311 0 0 0 -1 I I #
edge $-1 $345 -28.320426303090311 $349 28.320426303090311 $343 $404 forward 7 unknown #
straight-curve $-1 0 -28.320426303090311 -12.613812603997646 -1 0 0 I I #
vertex $-1 $252 $405 #
straight-curve $-1 0 28.320426303090311 -12.613812603997646 1 0 0 I I #
point $-1 43.612170781579024 28.320426303090311 -12.613812603997646 #
point $-1 43.612170781579024 -28.320426303090311 -12.613812603997646 #
straight-curve $-1 -43.612170781579024 0 12.613812603997646 0 -1 0 I I #
point $-1 -43.612170781579024 28.320426303090311 12.613812603997646 #
point $-1 -43.612170781579024 -28.320426303090311 12.613812603997646 #
straight-curve $-1 43.612170781579024 -28.320426303090311 0 0 0 -1 I I #
straight-curve $-1 43.612170781579024 28.320426303090311 0 0 0 -1 I I #
plane-surface $-1 0 -28.320426303090311 0 0 1 0 0 0 1 forward_v I I I I #
coedge $-1 $406 $272 $282 $370 reversed $180 $-1 #
coedge $-1 $272 $406 $285 $372 forward $180 $-1 #
coedge $-1 $407 $275 $273 $362 forward $270 $-1 #
edge $-1 $363 31.826619138991006 $408 43.612170781579024 $273 $409 forward 7 unknown #
vertex $-1 $362 $410 #
straight-curve $-1 -31.826619138991006 28.320426303090311 5.3136652793173296 0 0 -1 I I #
coedge $-1 $275 $407 $277 $367 forward $270 $-1 #
straight-curve $-1 -31.826619138991006 0 12.613812603997646 0 1 0 I I #
edge $-1 $411 -43.612170781579024 $279 -31.826619138991006 $277 $412 forward 7 unknown #
point $-1 -31.826619138991006 -28.320426303090311 12.613812603997648 #
straight-curve $-1 -43.612170781579024 0 8.6408485132716706 0 -1 0 I I #
edge $-1 $411 -12.613812603997646 $283 -8.6408485132716706 $359 $413 forward 7 unknown #
point $-1 -43.612170781579024 -28.320426303090311 8.6408485132716706 #
edge $-1 $408 -12.613812603997646 $286 -8.6408485132716706 $285 $414 forward 7 unknown #
point $-1 -43.612170781579024 28.320426303090311 8.6408485132716706 #
coedge $-1 $376 $299 $293 $375 reversed $290 $-1 #
edge $-1 $383 -12.613812603997646 $301 -5.367152133699423 $293 $415 forward 7 unknown #
coedge $-1 $294 $374 $296 $378 reversed $290 $-1 #
straight-curve $-1 30.880795789002349 -28.320426303090311 38.839704051674971 0 0 -1 I I #
edge $-1 $297 30.880795789002349 $383 43.612170781579024 $376 $416 forward 7 unknown #
point $-1 30.880795789002349 -28.320426303090311 12.613812603997646 #
straight-curve $-1 18.623241642645347 -28.320426303090311 5.3671521336994248 1 0 0 I I #
point $-1 43.612170781579039 -28.320426303090311 5.367152133699423 #
point $-1 30.880795789002349 -28.320426303090311 5.367152133699423 #
vertex $-1 $305 $417 #
straight-curve $-1 43.612170781579024 0 12.613812603997646 0 1 0 I I #
vertex $-1 $308 $418 #
point $-1 35.518331501167111 -21.174515897464385 6.3602672615607885 #
vertex $-1 $312 $419 #
point $-1 40.974635069414262 -21.174515897464385 6.3602672615607885 #
edge $-1 $390 37.846901626222525 $393 42.203873069854502 $317 $420 forward 7 unknown #
vertex $-1 $331 $421 #
straight-curve $-1 0.56718846433301096 37.769248527796648 12.613812603997644 0 1 0 I I #
edge $-1 $393 -3.7140481324746624 $328 10.007767468757965 $327 $422 forward 7 unknown #
vertex $-1 $392 $423 #
straight-curve $-1 0.56718846433301096 7.5884427985783987e-007 57.309258847447055 0 -0.49999998660252726 0.86602541151947299 I I #
point $-1 0.56718846433301096 25.804927757128073 12.613812603997644 #
point $-1 -13.154627136899617 28.320426303090311 8.2568411603656671 #
straight-curve $-1 0 28.320426303090311 12.613812603997646 -1 0 0 I I #
vertex $-1 $334 $424 #
point $-1 -8.2341083936902919 26.172785504920416 9.9215477889199271 #
vertex $-1 $338 $425 #
point $-1 -2.3533302788763066 26.172785504920416 9.9215477889199271 #
straight-curve $-1 -43.612170781579024 28.320426303090311 0 0 0 -1 I I #
point $-1 -43.612170781579024 -28.320426303090311 -12.613812603997646 #
straight-curve $-1 -43.612170781579024 0 -12.613812603997646 0 1 0 I I #
point $-1 -43.612170781579024 28.320426303090311 -12.613812603997646 #
coedge $-1 $360 $359 $407 $426 reversed $180 $-1 #
coedge $-1 $365 $361 $406 $426 forward $270 $-1 #
vertex $-1 $362 $427 #
straight-curve $-1 0 28.320426303090311 12.613812603997646 -1 0 0 I I #
point $-1 -31.826619138991006 28.320426303090311 12.613812603997648 #
vertex $-1 $426 $428 #
straight-curve $-1 0 -28.320426303090311 12.613812603997646 1 0 0 I I #
straight-curve $-1 -43.612170781579024 -28.320426303090311 0 0 0 -1 I I #
straight-curve $-1 -43.612170781579024 28.320426303090311 0 0 0 -1 I I #
straight-curve $-1 43.612170781579024 -28.320426303090311 0 0 0 -1 I I #
straight-curve $-1 0 -28.320426303090311 12.613812603997646 1 0 0 I I #
point $-1 43.612170781579024 -28.320426303090311 12.613812603997646 #
point $-1 34.518331501167111 -20.615322986725989 5.5312296939078403 #
point $-1 39.974635069414262 -20.615322986725989 5.5312296939078403 #
straight-curve $-1 0.56718846433301096 28.320426303090311 50.460714230220169 0 0 -1 I I #
point $-1 0.56718846433301096 28.320426303090311 12.613812603997646 #
straight-curve $-1 -3.1468596681416514 28.320426303090311 8.2568411603656671 -1 0 0 I I #
point $-1 0.56718846433301096 28.320426303090311 8.2568411603656671 #
point $-1 -9.2341083936902919 25.306760093400943 9.4215478023173986 #
point $-1 -3.3533302788763066 25.306760093400943 9.4215478023173986 #
edge $-1 $408 -28.320426303090311 $411 28.320426303090311 $406 $429 forward 7 unknown #
point $-1 -43.612170781579024 28.320426303090311 12.613812603997646 #
point $-1 -43.612170781579024 -28.320426303090311 12.613812603997646 #
straight-curve $-1 -43.612170781579024 0 12.613812603997646 0 -1 0 I I #
End-of-ACIS-data 