500 0 19 0           
7 Unknown 11 ACIS 5.0 NT 24 Fri Mar 26 03:01:50 1999 
-1 9.9999999999999995e-007 1e-010 
body $-1 $19 $-1 $20 #
body $-1 $21 $-1 $22 #
body $-1 $23 $-1 $24 #
body $-1 $25 $-1 $26 #
body $-1 $27 $-1 $28 #
body $-1 $29 $-1 $30 #
body $-1 $31 $-1 $32 #
body $-1 $33 $-1 $34 #
body $-1 $35 $-1 $36 #
body $-1 $37 $-1 $38 #
body $-1 $39 $-1 $40 #
body $-1 $41 $-1 $42 #
body $-1 $43 $-1 $44 #
body $-1 $45 $-1 $46 #
body $-1 $47 $-1 $48 #
body $-1 $49 $-1 $50 #
body $-1 $51 $-1 $52 #
body $-1 $53 $-1 $54 #
body $-1 $55 $-1 $56 #
lump $-1 $-1 $57 $0 #
transform $-1 1 0 0 0 1 0 0 0 1 53.026520584734641 23.14673083369172 9.0792657875079481 1 rotate no_reflect no_shear #
lump $-1 $-1 $58 $1 #
transform $-1 1 0 0 0 1 0 0 0 1 53.026520584734641 23.14673083369172 9.0792657875079481 1 rotate no_reflect no_shear #
lump $-1 $-1 $59 $2 #
transform $-1 1 0 0 0 1 0 0 0 1 53.026520584734641 23.14673083369172 9.0792657875079481 1 rotate no_reflect no_shear #
lump $-1 $-1 $60 $3 #
transform $-1 1 0 0 0 1 0 0 0 1 53.026520584734641 23.14673083369172 9.0792657875079481 1 rotate no_reflect no_shear #
lump $-1 $-1 $61 $4 #
transform $-1 1 0 0 0 1 0 0 0 1 53.026520584734641 23.14673083369172 9.0792657875079481 1 rotate no_reflect no_shear #
lump $-1 $-1 $62 $5 #
transform $-1 1 0 0 0 1 0 0 0 1 53.026520584734641 23.14673083369172 9.0792657875079481 1 rotate no_reflect no_shear #
lump $-1 $-1 $63 $6 #
transform $-1 1 0 0 0 1 0 0 0 1 53.026520584734641 23.14673083369172 9.0792657875079481 1 rotate no_reflect no_shear #
lump $-1 $-1 $64 $7 #
transform $-1 1 0 0 0 1 0 0 0 1 53.026520584734641 23.14673083369172 9.0792657875079481 1 rotate no_reflect no_shear #
lump $-1 $-1 $65 $8 #
transform $-1 1 0 0 0 1 0 0 0 1 53.026520584734641 23.14673083369172 9.0792657875079481 1 rotate no_reflect no_shear #
lump $-1 $-1 $66 $9 #
transform $-1 1 0 0 0 1 0 0 0 1 53.026520584734641 23.14673083369172 9.0792657875079481 1 rotate no_reflect no_shear #
lump $-1 $-1 $67 $10 #
transform $-1 1 0 0 0 1 0 0 0 1 53.026520584734641 23.14673083369172 9.0792657875079481 1 rotate no_reflect no_shear #
lump $-1 $-1 $68 $11 #
transform $-1 1 0 0 0 1 0 0 0 1 53.026520584734641 23.14673083369172 9.0792657875079481 1 rotate no_reflect no_shear #
lump $-1 $-1 $69 $12 #
transform $-1 1 0 0 0 1 0 0 0 1 53.026520584734641 23.14673083369172 9.0792657875079481 1 rotate no_reflect no_shear #
lump $-1 $-1 $70 $13 #
transform $-1 1 0 0 0 1 0 0 0 1 53.026520584734641 23.14673083369172 9.0792657875079481 1 rotate no_reflect no_shear #
lump $-1 $-1 $71 $14 #
transform $-1 1 0 0 0 1 0 0 0 1 53.026520584734641 23.14673083369172 9.0792657875079481 1 rotate no_reflect no_shear #
lump $-1 $-1 $72 $15 #
transform $-1 1 0 0 0 1 0 0 0 1 53.026520584734641 23.14673083369172 9.0792657875079481 1 rotate no_reflect no_shear #
lump $-1 $-1 $73 $16 #
transform $-1 1 0 0 0 1 0 0 0 1 53.026520584734641 23.14673083369172 9.0792657875079481 1 rotate no_reflect no_shear #
lump $-1 $-1 $74 $17 #
transform $-1 1 0 0 0 1 0 0 0 1 53.026520584734641 23.14673083369172 9.0792657875079481 1 rotate no_reflect no_shear #
lump $-1 $-1 $75 $18 #
transform $-1 1 0 0 0 1 0 0 0 1 53.026520584734641 23.14673083369172 9.0792657875079481 1 rotate no_reflect no_shear #
shell $-1 $-1 $-1 $76 $-1 $19 #
shell $-1 $-1 $-1 $77 $-1 $21 #
shell $-1 $-1 $-1 $78 $-1 $23 #
shell $-1 $-1 $-1 $79 $-1 $25 #
shell $-1 $-1 $-1 $80 $-1 $27 #
shell $-1 $-1 $-1 $81 $-1 $29 #
shell $-1 $-1 $-1 $82 $-1 $31 #
shell $-1 $-1 $-1 $83 $-1 $33 #
shell $-1 $-1 $-1 $84 $-1 $35 #
shell $-1 $-1 $-1 $85 $-1 $37 #
shell $-1 $-1 $-1 $86 $-1 $39 #
shell $-1 $-1 $-1 $87 $-1 $41 #
shell $-1 $-1 $-1 $88 $-1 $43 #
shell $-1 $-1 $-1 $89 $-1 $45 #
shell $-1 $-1 $-1 $90 $-1 $47 #
shell $-1 $-1 $-1 $91 $-1 $49 #
shell $-1 $-1 $-1 $92 $-1 $51 #
shell $-1 $-1 $-1 $93 $-1 $53 #
shell $-1 $-1 $-1 $94 $-1 $55 #
face $-1 $95 $96 $57 $-1 $97 forward single #
face $-1 $98 $99 $58 $-1 $100 reversed single #
face $-1 $101 $102 $59 $-1 $103 forward single #
face $-1 $104 $105 $60 $-1 $106 forward single #
face $-1 $107 $108 $61 $-1 $109 reversed single #
face $-1 $110 $111 $62 $-1 $112 forward single #
face $-1 $113 $114 $63 $-1 $115 forward single #
face $-1 $116 $117 $64 $-1 $118 reversed single #
face $-1 $119 $120 $65 $-1 $121 forward single #
face $-1 $122 $123 $66 $-1 $124 forward single #
face $-1 $125 $126 $67 $-1 $127 reversed single #
face $-1 $128 $129 $68 $-1 $130 forward single #
face $-1 $131 $132 $69 $-1 $133 forward single #
face $-1 $134 $135 $70 $-1 $136 reversed single #
face $-1 $137 $138 $71 $-1 $139 forward single #
face $-1 $140 $141 $72 $-1 $142 forward single #
face $-1 $143 $144 $73 $-1 $145 reversed single #
face $-1 $146 $147 $74 $-1 $148 forward single #
face $-1 $149 $150 $75 $-1 $151 forward single #
face $-1 $152 $153 $57 $-1 $154 reversed single #
loop $-1 $-1 $155 $76 #
plane-surface $-1 0 0 9.0792657875079481 0 0 1 1 0 0 forward_v I I I I #
face $-1 $156 $157 $58 $-1 $158 reversed single #
loop $-1 $-1 $159 $77 #
plane-surface $-1 -50.50923450477827 67.276764917795546 109.00310216998407 1 0 0 0 -0.71933980857756763 -0.69465836192734942 forward_v I I I I #
face $-1 $160 $161 $59 $-1 $162 forward single #
loop $-1 $163 $164 $78 #
cone-surface $-1 -47.402995493052131 18.058906023364429 3.9283495974827414 0 -0.71933980857756763 -0.69465836192734942 1.5 0 0 1 I I 0 1 1.5 forward I I I I #
face $-1 $165 $166 $60 $-1 $167 forward single #
loop $-1 $168 $169 $79 #
cone-surface $-1 -42.743636975462934 18.058906023364429 3.9283495974827414 0 -0.71933980857756763 -0.69465836192734942 1.5 0 0 1 I I 0 1 1.5 forward I I I I #
face $-1 $170 $171 $61 $-1 $172 reversed single #
loop $-1 $-1 $173 $80 #
plane-surface $-1 -23.99597421241095 67.276764917795546 109.00310216998407 1 0 0 0 -0.71933980857756763 -0.69465836192734942 forward_v I I I I #
face $-1 $174 $175 $62 $-1 $176 forward single #
loop $-1 $177 $178 $81 #
cone-surface $-1 -20.889735200684811 18.058906023364429 3.9283495974827414 0 -0.71933980857756763 -0.69465836192734942 1.5 0 0 1 I I 0 1 1.5 forward I I I I #
face $-1 $179 $180 $63 $-1 $181 forward single #
loop $-1 $182 $183 $82 #
cone-surface $-1 -16.230376683095614 18.058906023364429 3.9283495974827414 0 -0.71933980857756763 -0.69465836192734942 1.5 0 0 1 I I 0 1 1.5 forward I I I I #
face $-1 $184 $185 $64 $-1 $186 reversed single #
loop $-1 $-1 $187 $83 #
plane-surface $-1 2.5172860799563725 67.276764917795546 109.00310216998407 1 0 0 0 -0.71933980857756763 -0.69465836192734942 forward_v I I I I #
face $-1 $188 $189 $65 $-1 $190 forward single #
loop $-1 $191 $192 $84 #
cone-surface $-1 5.6235250916825095 18.058906023364429 3.9283495974827414 0 -0.71933980857756763 -0.69465836192734942 1.5 0 0 1 I I 0 1 1.5 forward I I I I #
face $-1 $193 $194 $66 $-1 $195 forward single #
loop $-1 $196 $197 $85 #
cone-surface $-1 10.282883609271707 18.058906023364429 3.9283495974827414 0 -0.71933980857756763 -0.69465836192734942 1.5 0 0 1 I I 0 1 1.5 forward I I I I #
face $-1 $198 $199 $67 $-1 $200 reversed single #
loop $-1 $-1 $201 $86 #
plane-surface $-1 29.030546372323691 67.276764917795546 109.00310216998407 1 0 0 0 -0.71933980857756763 -0.69465836192734942 forward_v I I I I #
face $-1 $202 $203 $68 $-1 $204 forward single #
loop $-1 $205 $206 $87 #
cone-surface $-1 32.13678538404983 18.058906023364429 3.9283495974827414 0 -0.71933980857756763 -0.69465836192734942 1.5 0 0 1 I I 0 1 1.5 forward I I I I #
face $-1 $207 $208 $69 $-1 $209 forward single #
loop $-1 $210 $211 $88 #
cone-surface $-1 36.796143901639027 18.058906023364429 3.9283495974827414 0 -0.71933980857756763 -0.69465836192734942 1.5 0 0 1 I I 0 1 1.5 forward I I I I #
face $-1 $212 $213 $70 $-1 $214 reversed single #
loop $-1 $-1 $215 $89 #
plane-surface $-1 -8.0935268521315749 -94.110067431086918 82.109081832127202 -1 0 0 0 -0.66913061440640931 0.74314481823134659 forward_v I I I I #
face $-1 $216 $217 $71 $-1 $218 forward single #
loop $-1 $219 $220 $90 #
cone-surface $-1 -23.652926400084414 -19.154583621904177 5.3205815134753509 0 0.66913061440640931 -0.74314481823134659 1.5 0 0 1 I I 0 1 1.5 forward I I I I #
face $-1 $221 $222 $72 $-1 $223 forward single #
loop $-1 $224 $225 $91 #
cone-surface $-1 -14.317286671312708 -19.154583621904177 5.3205815134753509 0 0.66913061440640931 -0.74314481823134659 1.5 0 0 1 I I 0 1 1.5 forward I I I I #
face $-1 $226 $227 $73 $-1 $228 reversed single #
loop $-1 $-1 $229 $92 #
plane-surface $-1 29.876686219265551 -94.110067431086918 82.109081832127202 -1 0 0 0 -0.66913061440640931 0.74314481823134659 forward_v I I I I #
face $-1 $230 $231 $74 $-1 $232 forward single #
loop $-1 $233 $234 $93 #
cone-surface $-1 14.317286671312715 -19.154583621904177 5.3205815134753509 0 0.66913061440640931 -0.74314481823134659 1.5 0 0 1 I I 0 1 1.5 forward I I I I #
face $-1 $235 $236 $75 $-1 $237 forward single #
loop $-1 $238 $239 $94 #
cone-surface $-1 23.652926400084425 -19.154583621904177 5.3205815134753509 0 0.66913061440640931 -0.74314481823134659 1.5 0 0 1 I I 0 1 1.5 forward I I I I #
face $-1 $240 $241 $57 $-1 $242 reversed single #
loop $-1 $-1 $243 $95 #
plane-surface $-1 0 0 -9.0792657875079481 0 0 1 1 0 0 forward_v I I I I #
coedge $-1 $244 $245 $246 $247 forward $96 $-1 #
face $-1 $248 $249 $58 $-1 $250 reversed single #
loop $-1 $-1 $251 $98 #
plane-surface $-1 -45.073316234257533 -9.0114094161193918 35.3324703137868 0 0.71933980857756763 0.69465836192734942 1 0 0 forward_v I I I I #
coedge $-1 $252 $253 $254 $255 reversed $99 $-1 #
face $-1 $-1 $256 $59 $-1 $257 forward single #
loop $-1 $258 $259 $101 #
cone-surface $-1 -47.402995493052131 15.834434325511474 1.7802022999768834 0 -0.71933980857756763 -0.69465836192734942 0.75 0 0 1 I I -0.70710678118654757 0.70710678118654757 0.75 forward I I I I #
loop $-1 $-1 $260 $78 #
coedge $-1 $164 $164 $261 $262 reversed $102 $-1 #
face $-1 $-1 $263 $60 $-1 $264 forward single #
loop $-1 $265 $266 $104 #
cone-surface $-1 -42.743636975462934 15.834434325511474 1.7802022999768834 0 -0.71933980857756763 -0.69465836192734942 0.75 0 0 1 I I -0.70710678118654757 0.70710678118654757 0.75 forward I I I I #
loop $-1 $-1 $267 $79 #
coedge $-1 $169 $169 $268 $269 reversed $105 $-1 #
face $-1 $270 $271 $61 $-1 $272 reversed single #
loop $-1 $-1 $273 $107 #
plane-surface $-1 -18.560055941890212 -9.0114094161193918 35.3324703137868 0 0.71933980857756763 0.69465836192734942 1 0 0 forward_v I I I I #
coedge $-1 $274 $275 $276 $277 reversed $108 $-1 #
face $-1 $-1 $278 $62 $-1 $279 forward single #
loop $-1 $280 $281 $110 #
cone-surface $-1 -20.889735200684811 15.834434325511474 1.7802022999768834 0 -0.71933980857756763 -0.69465836192734942 0.75 0 0 1 I I -0.70710678118654757 0.70710678118654757 0.75 forward I I I I #
loop $-1 $-1 $282 $81 #
coedge $-1 $178 $178 $283 $284 reversed $111 $-1 #
face $-1 $-1 $285 $63 $-1 $286 forward single #
loop $-1 $287 $288 $113 #
cone-surface $-1 -16.230376683095614 15.834434325511474 1.7802022999768834 0 -0.71933980857756763 -0.69465836192734942 0.75 0 0 1 I I -0.70710678118654757 0.70710678118654757 0.75 forward I I I I #
loop $-1 $-1 $289 $82 #
coedge $-1 $183 $183 $290 $291 reversed $114 $-1 #
face $-1 $292 $293 $64 $-1 $294 reversed single #
loop $-1 $-1 $295 $116 #
plane-surface $-1 7.9532043504771082 -9.0114094161193918 35.3324703137868 0 0.71933980857756763 0.69465836192734942 1 0 0 forward_v I I I I #
coedge $-1 $296 $297 $298 $299 reversed $117 $-1 #
face $-1 $-1 $300 $65 $-1 $301 forward single #
loop $-1 $302 $303 $119 #
cone-surface $-1 5.6235250916825095 15.834434325511474 1.7802022999768834 0 -0.71933980857756763 -0.69465836192734942 0.75 0 0 1 I I -0.70710678118654757 0.70710678118654757 0.75 forward I I I I #
loop $-1 $-1 $304 $84 #
coedge $-1 $192 $192 $305 $306 reversed $120 $-1 #
face $-1 $-1 $307 $66 $-1 $308 forward single #
loop $-1 $309 $310 $122 #
cone-surface $-1 10.282883609271707 15.834434325511474 1.7802022999768834 0 -0.71933980857756763 -0.69465836192734942 0.75 0 0 1 I I -0.70710678118654757 0.70710678118654757 0.75 forward I I I I #
loop $-1 $-1 $311 $85 #
coedge $-1 $197 $197 $312 $313 reversed $123 $-1 #
face $-1 $314 $315 $67 $-1 $316 reversed single #
loop $-1 $-1 $317 $125 #
plane-surface $-1 34.466464642844429 -9.0114094161193918 35.3324703137868 0 0.71933980857756763 0.69465836192734942 1 0 0 forward_v I I I I #
coedge $-1 $318 $319 $320 $321 reversed $126 $-1 #
face $-1 $-1 $322 $68 $-1 $323 forward single #
loop $-1 $324 $325 $128 #
cone-surface $-1 32.13678538404983 15.834434325511474 1.7802022999768834 0 -0.71933980857756763 -0.69465836192734942 0.75 0 0 1 I I -0.70710678118654757 0.70710678118654757 0.75 forward I I I I #
loop $-1 $-1 $326 $87 #
coedge $-1 $206 $206 $327 $328 reversed $129 $-1 #
face $-1 $-1 $329 $69 $-1 $330 forward single #
loop $-1 $331 $332 $131 #
cone-surface $-1 36.796143901639027 15.834434325511474 1.7802022999768834 0 -0.71933980857756763 -0.69465836192734942 0.75 0 0 1 I I -0.70710678118654757 0.70710678118654757 0.75 forward I I I I #
loop $-1 $-1 $333 $88 #
coedge $-1 $211 $211 $334 $335 reversed $132 $-1 #
face $-1 $336 $337 $70 $-1 $338 reversed single #
loop $-1 $-1 $339 $134 #
plane-surface $-1 -18.985106535698563 -23.14673083369172 3.296313829360443 0 -0.66913061440640931 0.74314481823134659 1 0 0 forward_v I I I I #
coedge $-1 $340 $341 $342 $343 reversed $135 $-1 #
face $-1 $-1 $344 $71 $-1 $345 forward single #
loop $-1 $346 $347 $137 #
cone-surface $-1 -23.652926400084414 -17.871897788065173 3.8960146048429927 0 0.66913061440640931 -0.74314481823134659 0.75 0 0 1 I I -0.70710678118654757 0.70710678118654757 0.75 forward I I I I #
loop $-1 $-1 $348 $90 #
coedge $-1 $220 $220 $349 $350 reversed $138 $-1 #
face $-1 $-1 $351 $72 $-1 $352 forward single #
loop $-1 $353 $354 $140 #
cone-surface $-1 -14.317286671312708 -17.871897788065173 3.8960146048429927 0 0.66913061440640931 -0.74314481823134659 0.75 0 0 1 I I -0.70710678118654757 0.70710678118654757 0.75 forward I I I I #
loop $-1 $-1 $355 $91 #
coedge $-1 $225 $225 $356 $357 reversed $141 $-1 #
face $-1 $358 $359 $73 $-1 $360 reversed single #
loop $-1 $-1 $361 $143 #
plane-surface $-1 18.985106535698563 -23.14673083369172 3.296313829360443 0 -0.66913061440640931 0.74314481823134659 1 0 0 forward_v I I I I #
coedge $-1 $362 $363 $364 $365 reversed $144 $-1 #
face $-1 $-1 $366 $74 $-1 $367 forward single #
loop $-1 $368 $369 $146 #
cone-surface $-1 14.317286671312715 -17.871897788065173 3.8960146048429927 0 0.66913061440640931 -0.74314481823134659 0.75 0 0 1 I I -0.70710678118654757 0.70710678118654757 0.75 forward I I I I #
loop $-1 $-1 $370 $93 #
coedge $-1 $234 $234 $371 $372 reversed $147 $-1 #
face $-1 $-1 $373 $75 $-1 $374 forward single #
loop $-1 $375 $376 $149 #
cone-surface $-1 23.652926400084425 -17.871897788065173 3.8960146048429927 0 0.66913061440640931 -0.74314481823134659 0.75 0 0 1 I I -0.70710678118654757 0.70710678118654757 0.75 forward I I I I #
loop $-1 $-1 $377 $94 #
coedge $-1 $239 $239 $378 $379 reversed $150 $-1 #
face $-1 $380 $381 $57 $-1 $382 reversed single #
loop $-1 $-1 $383 $152 #
plane-surface $-1 0 -23.14673083369172 0 0 1 0 0 0 1 forward_v I I I I #
coedge $-1 $384 $385 $386 $387 forward $153 $-1 #
coedge $-1 $388 $155 $389 $390 forward $96 $-1 #
coedge $-1 $155 $388 $391 $392 forward $96 $-1 #
coedge $-1 $393 $394 $155 $247 reversed $395 $-1 #
edge $-1 $396 -23.14673083369172 $397 23.14673083369172 $246 $398 forward 7 unknown #
face $-1 $399 $400 $58 $-1 $401 reversed single #
loop $-1 $-1 $402 $156 #
plane-surface $-1 -39.637397963736795 67.276764917795546 109.00310216998407 -1 0 0 0 0.71933980857756763 0.69465836192734942 forward_v I I I I #
coedge $-1 $403 $404 $405 $406 reversed $157 $-1 #
coedge $-1 $253 $159 $407 $408 reversed $99 $-1 #
coedge $-1 $159 $252 $403 $409 reversed $99 $-1 #
coedge $-1 $405 $410 $159 $255 forward $411 $-1 #
edge $-1 $412 10.491651625206053 $413 17.297367563021069 $254 $414 forward 7 unknown #
loop $-1 $-1 $261 $160 #
plane-surface $-1 -45.073316234257533 -9.0114094161193918 35.3324703137868 0 0.71933980857756763 0.69465836192734942 1 0 0 forward_v I I I I #
loop $-1 $-1 $415 $101 #
coedge $-1 $259 $259 $260 $416 reversed $161 $-1 #
coedge $-1 $260 $260 $259 $416 forward $163 $-1 #
coedge $-1 $261 $261 $164 $262 forward $256 $-1 #
edge $-1 $417 -3.6747732085533313e-016 $417 6.2831853071796004 $261 $418 forward 7 unknown #
loop $-1 $-1 $268 $165 #
plane-surface $-1 -45.073316234257533 -9.0114094161193918 35.3324703137868 0 0.71933980857756763 0.69465836192734942 1 0 0 forward_v I I I I #
loop $-1 $-1 $419 $104 #
coedge $-1 $266 $266 $267 $420 reversed $166 $-1 #
coedge $-1 $267 $267 $266 $420 forward $168 $-1 #
coedge $-1 $268 $268 $169 $269 forward $263 $-1 #
edge $-1 $421 -3.6747732085533313e-016 $421 6.2831853071796004 $268 $422 forward 7 unknown #
face $-1 $423 $424 $61 $-1 $425 forward single #
loop $-1 $-1 $426 $170 #
plane-surface $-1 -13.124137671369477 67.276764917795546 109.00310216998407 -1 0 0 0 0.71933980857756763 0.69465836192734942 forward_v I I I I #
coedge $-1 $427 $428 $429 $430 reversed $171 $-1 #
coedge $-1 $275 $173 $431 $432 reversed $108 $-1 #
coedge $-1 $173 $274 $427 $433 reversed $108 $-1 #
coedge $-1 $429 $434 $173 $277 forward $424 $-1 #
edge $-1 $435 10.491651625206053 $436 17.297367563021069 $276 $437 forward 7 unknown #
loop $-1 $-1 $283 $174 #
plane-surface $-1 -18.560055941890212 -9.0114094161193918 35.3324703137868 0 0.71933980857756763 0.69465836192734942 1 0 0 forward_v I I I I #
loop $-1 $-1 $438 $110 #
coedge $-1 $281 $281 $282 $439 reversed $175 $-1 #
coedge $-1 $282 $282 $281 $439 forward $177 $-1 #
coedge $-1 $283 $283 $178 $284 forward $278 $-1 #
edge $-1 $440 -3.6747732085533313e-016 $440 6.2831853071796004 $283 $441 forward 7 unknown #
loop $-1 $-1 $290 $179 #
plane-surface $-1 -18.560055941890212 -9.0114094161193918 35.3324703137868 0 0.71933980857756763 0.69465836192734942 1 0 0 forward_v I I I I #
loop $-1 $-1 $442 $113 #
coedge $-1 $288 $288 $289 $443 reversed $180 $-1 #
coedge $-1 $289 $289 $288 $443 forward $182 $-1 #
coedge $-1 $290 $290 $183 $291 forward $285 $-1 #
edge $-1 $444 -3.6747732085533313e-016 $444 6.2831853071796004 $290 $445 forward 7 unknown #
face $-1 $446 $447 $64 $-1 $448 forward single #
loop $-1 $-1 $449 $184 #
plane-surface $-1 13.389122620997844 67.276764917795546 109.00310216998407 -1 0 0 0 0.71933980857756763 0.69465836192734942 forward_v I I I I #
coedge $-1 $450 $451 $452 $453 reversed $185 $-1 #
coedge $-1 $297 $187 $454 $455 reversed $117 $-1 #
coedge $-1 $187 $296 $450 $456 reversed $117 $-1 #
coedge $-1 $452 $457 $187 $299 forward $447 $-1 #
edge $-1 $458 10.491651625206053 $459 17.297367563021069 $298 $460 forward 7 unknown #
loop $-1 $-1 $305 $188 #
plane-surface $-1 7.9532043504771082 -9.0114094161193918 35.3324703137868 0 0.71933980857756763 0.69465836192734942 1 0 0 forward_v I I I I #
loop $-1 $-1 $461 $119 #
coedge $-1 $303 $303 $304 $462 reversed $189 $-1 #
coedge $-1 $304 $304 $303 $462 forward $191 $-1 #
coedge $-1 $305 $305 $192 $306 forward $300 $-1 #
edge $-1 $463 -3.6747732085533313e-016 $463 6.2831853071796004 $305 $464 forward 7 unknown #
loop $-1 $-1 $312 $193 #
plane-surface $-1 7.9532043504771082 -9.0114094161193918 35.3324703137868 0 0.71933980857756763 0.69465836192734942 1 0 0 forward_v I I I I #
loop $-1 $-1 $465 $122 #
coedge $-1 $310 $310 $311 $466 reversed $194 $-1 #
coedge $-1 $311 $311 $310 $466 forward $196 $-1 #
coedge $-1 $312 $312 $197 $313 forward $307 $-1 #
edge $-1 $467 -3.6747732085533313e-016 $467 6.2831853071796004 $312 $468 forward 7 unknown #
face $-1 $469 $470 $67 $-1 $471 forward single #
loop $-1 $-1 $472 $198 #
plane-surface $-1 39.902382913365166 67.276764917795546 109.00310216998407 -1 0 0 0 0.71933980857756763 0.69465836192734942 forward_v I I I I #
coedge $-1 $473 $474 $475 $476 reversed $199 $-1 #
coedge $-1 $319 $201 $477 $478 reversed $126 $-1 #
coedge $-1 $201 $318 $473 $479 reversed $126 $-1 #
coedge $-1 $475 $480 $201 $321 forward $470 $-1 #
edge $-1 $481 10.491651625206053 $482 17.297367563021069 $320 $483 forward 7 unknown #
loop $-1 $-1 $327 $202 #
plane-surface $-1 34.466464642844429 -9.0114094161193918 35.3324703137868 0 0.71933980857756763 0.69465836192734942 1 0 0 forward_v I I I I #
loop $-1 $-1 $484 $128 #
coedge $-1 $325 $325 $326 $485 reversed $203 $-1 #
coedge $-1 $326 $326 $325 $485 forward $205 $-1 #
coedge $-1 $327 $327 $206 $328 forward $322 $-1 #
edge $-1 $486 -3.6747732085533313e-016 $486 6.2831853071796004 $327 $487 forward 7 unknown #
loop $-1 $-1 $334 $207 #
plane-surface $-1 34.466464642844429 -9.0114094161193918 35.3324703137868 0 0.71933980857756763 0.69465836192734942 1 0 0 forward_v I I I I #
loop $-1 $-1 $488 $131 #
coedge $-1 $332 $332 $333 $489 reversed $208 $-1 #
coedge $-1 $333 $333 $332 $489 forward $210 $-1 #
coedge $-1 $334 $334 $211 $335 forward $329 $-1 #
edge $-1 $490 -3.6747732085533313e-016 $490 6.2831853071796004 $334 $491 forward 7 unknown #
face $-1 $492 $493 $70 $-1 $494 reversed single #
loop $-1 $-1 $495 $212 #
plane-surface $-1 -29.876686219265551 -94.110067431086918 82.109081832127202 1 0 0 0 0.66913061440640931 -0.74314481823134659 forward_v I I I I #
coedge $-1 $496 $497 $498 $499 reversed $213 $-1 #
coedge $-1 $341 $215 $500 $501 reversed $135 $-1 #
coedge $-1 $215 $340 $496 $502 reversed $135 $-1 #
coedge $-1 $498 $503 $215 $343 forward $504 $-1 #
edge $-1 $505 23.908302881851739 $506 30.330921559358437 $342 $507 forward 7 unknown #
loop $-1 $-1 $349 $216 #
plane-surface $-1 -18.985106535698563 -23.14673083369172 3.296313829360443 0 -0.66913061440640931 0.74314481823134659 1 0 0 forward_v I I I I #
loop $-1 $-1 $508 $137 #
coedge $-1 $347 $347 $348 $509 reversed $217 $-1 #
coedge $-1 $348 $348 $347 $509 forward $219 $-1 #
coedge $-1 $349 $349 $220 $350 forward $344 $-1 #
edge $-1 $510 7.9240982890194459e-016 $510 6.2831853071796013 $349 $511 forward 7 unknown #
loop $-1 $-1 $356 $221 #
plane-surface $-1 -18.985106535698563 -23.14673083369172 3.296313829360443 0 -0.66913061440640931 0.74314481823134659 1 0 0 forward_v I I I I #
loop $-1 $-1 $512 $140 #
coedge $-1 $354 $354 $355 $513 reversed $222 $-1 #
coedge $-1 $355 $355 $354 $513 forward $224 $-1 #
coedge $-1 $356 $356 $225 $357 forward $351 $-1 #
edge $-1 $514 7.9240982890194459e-016 $514 6.2831853071796013 $356 $515 forward 7 unknown #
face $-1 $516 $517 $73 $-1 $518 reversed single #
loop $-1 $-1 $519 $226 #
plane-surface $-1 8.0935268521315749 -94.110067431086918 82.109081832127202 1 0 0 0 0.66913061440640931 -0.74314481823134659 forward_v I I I I #
coedge $-1 $520 $521 $522 $523 reversed $227 $-1 #
coedge $-1 $363 $229 $524 $525 reversed $144 $-1 #
coedge $-1 $229 $362 $520 $526 reversed $144 $-1 #
coedge $-1 $522 $527 $229 $365 forward $528 $-1 #
edge $-1 $529 23.908302881851739 $530 30.330921559358437 $364 $531 forward 7 unknown #
loop $-1 $-1 $371 $230 #
plane-surface $-1 18.985106535698563 -23.14673083369172 3.296313829360443 0 -0.66913061440640931 0.74314481823134659 1 0 0 forward_v I I I I #
loop $-1 $-1 $532 $146 #
coedge $-1 $369 $369 $370 $533 reversed $231 $-1 #
coedge $-1 $370 $370 $369 $533 forward $233 $-1 #
coedge $-1 $371 $371 $234 $372 forward $366 $-1 #
edge $-1 $534 7.9240982890194459e-016 $534 6.2831853071796013 $371 $535 forward 7 unknown #
loop $-1 $-1 $378 $235 #
plane-surface $-1 18.985106535698563 -23.14673083369172 3.296313829360443 0 -0.66913061440640931 0.74314481823134659 1 0 0 forward_v I I I I #
loop $-1 $-1 $536 $149 #
coedge $-1 $376 $376 $377 $537 reversed $236 $-1 #
coedge $-1 $377 $377 $376 $537 forward $238 $-1 #
coedge $-1 $378 $378 $239 $379 forward $373 $-1 #
edge $-1 $538 7.9240982890194459e-016 $538 6.2831853071796013 $378 $539 forward 7 unknown #
face $-1 $540 $541 $57 $-1 $542 reversed single #
loop $-1 $-1 $543 $240 #
plane-surface $-1 -53.026520584734641 0 0 1 0 0 0 0 -1 forward_v I I I I #
coedge $-1 $544 $391 $545 $546 forward $241 $-1 #
coedge $-1 $547 $243 $544 $548 forward $153 $-1 #
coedge $-1 $243 $547 $549 $550 forward $153 $-1 #
coedge $-1 $394 $393 $243 $387 reversed $395 $-1 #
edge $-1 $551 -23.14673083369172 $552 23.14673083369172 $386 $553 forward 7 unknown #
coedge $-1 $245 $244 $554 $555 forward $96 $-1 #
coedge $-1 $556 $557 $244 $390 reversed $541 $-1 #
edge $-1 $397 -53.026520584734641 $558 53.026520584734641 $389 $559 forward 7 unknown #
coedge $-1 $383 $560 $245 $392 reversed $241 $-1 #
edge $-1 $561 -53.026520584734641 $396 53.026520584734641 $391 $562 forward 7 unknown #
coedge $-1 $386 $246 $560 $563 forward $395 $-1 #
coedge $-1 $246 $386 $556 $564 reversed $395 $-1 #
loop $-1 $-1 $393 $540 #
vertex $-1 $247 $565 #
vertex $-1 $247 $566 #
straight-curve $-1 53.026520584734641 0 9.0792657875079481 0 1 0 I I #
face $-1 $-1 $411 $58 $-1 $567 forward single #
loop $-1 $-1 $568 $248 #
plane-surface $-1 0 23.14673083369172 0 0 -1 0 0 0 -1 forward_v I I I I #
coedge $-1 $569 $570 $571 $572 reversed $249 $-1 #
coedge $-1 $573 $251 $253 $409 forward $157 $-1 #
coedge $-1 $251 $573 $569 $574 forward $157 $-1 #
coedge $-1 $571 $254 $251 $406 forward $411 $-1 #
edge $-1 $413 -27.972576387649504 $575 -17.100739846608029 $405 $576 forward 7 unknown #
coedge $-1 $577 $578 $252 $408 forward $400 $-1 #
edge $-1 $579 -52.469810625413793 $412 -45.422285297484088 $407 $580 forward 7 unknown #
edge $-1 $413 36.496248661939475 $579 46.293461667383426 $253 $581 forward 7 unknown #
coedge $-1 $254 $571 $577 $582 forward $411 $-1 #
loop $-1 $-1 $571 $399 #
vertex $-1 $408 $583 #
vertex $-1 $255 $584 #
straight-curve $-1 -50.50923450477827 33.638382458897773 9.0792657875079499 0 -1 0 I I #
coedge $-1 $415 $415 $-1 $585 reversed $258 $-1 #
edge $-1 $586 0 $586 6.2831853071796004 $259 $587 forward 7 unknown #
vertex $-1 $262 $588 #
ellipse-curve $-1 -47.402995493052131 19.743872864784212 5.5555031235430903 0 0.71933980857756763 0.69465836192734942 1.5 0 0 1 I I #
coedge $-1 $419 $419 $-1 $589 reversed $265 $-1 #
edge $-1 $590 0 $590 6.2831853071796004 $266 $591 forward 7 unknown #
vertex $-1 $269 $592 #
ellipse-curve $-1 -42.743636975462934 19.743872864784212 5.5555031235430903 0 0.71933980857756763 0.69465836192734942 1.5 0 0 1 I I #
face $-1 $-1 $593 $61 $-1 $594 reversed single #
loop $-1 $-1 $276 $270 #
plane-surface $-1 0 0 9.0792657875079481 0 0 1 1 0 0 forward_v I I I I #
coedge $-1 $595 $596 $597 $598 reversed $271 $-1 #
coedge $-1 $599 $273 $275 $433 forward $171 $-1 #
coedge $-1 $273 $599 $595 $600 forward $171 $-1 #
coedge $-1 $597 $276 $273 $430 forward $424 $-1 #
edge $-1 $436 -14.715946241465844 $601 -3.8441097004243705 $429 $602 forward 7 unknown #
coedge $-1 $603 $604 $274 $432 forward $593 $-1 #
edge $-1 $605 -52.469810625413793 $435 -45.422285297484088 $431 $606 forward 7 unknown #
edge $-1 $436 36.496248661939475 $605 46.293461667383426 $275 $607 forward 7 unknown #
coedge $-1 $276 $597 $603 $608 forward $424 $-1 #
vertex $-1 $277 $609 #
vertex $-1 $277 $610 #
straight-curve $-1 -23.99597421241095 33.638382458897773 9.0792657875079499 0 -1 0 I I #
coedge $-1 $438 $438 $-1 $611 reversed $280 $-1 #
edge $-1 $612 0 $612 6.2831853071796004 $281 $613 forward 7 unknown #
vertex $-1 $284 $614 #
ellipse-curve $-1 -20.889735200684811 19.743872864784212 5.5555031235430903 0 0.71933980857756763 0.69465836192734942 1.5 0 0 1 I I #
coedge $-1 $442 $442 $-1 $615 reversed $287 $-1 #
edge $-1 $616 0 $616 6.2831853071796004 $288 $617 forward 7 unknown #
vertex $-1 $291 $618 #
ellipse-curve $-1 -16.230376683095614 19.743872864784212 5.5555031235430903 0 0.71933980857756763 0.69465836192734942 1.5 0 0 1 I I #
face $-1 $-1 $619 $64 $-1 $620 reversed single #
loop $-1 $-1 $298 $292 #
plane-surface $-1 0 0 9.0792657875079481 0 0 1 1 0 0 forward_v I I I I #
coedge $-1 $621 $622 $623 $624 reversed $293 $-1 #
coedge $-1 $625 $295 $297 $456 forward $185 $-1 #
coedge $-1 $295 $625 $621 $626 forward $185 $-1 #
coedge $-1 $623 $298 $295 $453 forward $447 $-1 #
edge $-1 $459 -1.4593160952821815 $627 9.4125204457592897 $452 $628 forward 7 unknown #
coedge $-1 $629 $630 $296 $455 forward $619 $-1 #
edge $-1 $631 -52.469810625413793 $458 -45.422285297484088 $454 $632 forward 7 unknown #
edge $-1 $459 36.496248661939475 $631 46.293461667383426 $297 $633 forward 7 unknown #
coedge $-1 $298 $623 $629 $634 forward $447 $-1 #
vertex $-1 $299 $635 #
vertex $-1 $299 $636 #
straight-curve $-1 2.5172860799563725 33.638382458897773 9.0792657875079499 0 -1 0 I I #
coedge $-1 $461 $461 $-1 $637 reversed $302 $-1 #
edge $-1 $638 0 $638 6.2831853071796004 $303 $639 forward 7 unknown #
vertex $-1 $306 $640 #
ellipse-curve $-1 5.6235250916825095 19.743872864784212 5.5555031235430903 0 0.71933980857756763 0.69465836192734942 1.5 0 0 1 I I #
coedge $-1 $465 $465 $-1 $641 reversed $309 $-1 #
edge $-1 $642 0 $642 6.2831853071796004 $310 $643 forward 7 unknown #
vertex $-1 $313 $644 #
ellipse-curve $-1 10.282883609271707 19.743872864784212 5.5555031235430903 0 0.71933980857756763 0.69465836192734942 1.5 0 0 1 I I #
face $-1 $-1 $645 $67 $-1 $646 reversed single #
loop $-1 $-1 $320 $314 #
plane-surface $-1 0 0 9.0792657875079481 0 0 1 1 0 0 forward_v I I I I #
coedge $-1 $647 $648 $649 $650 reversed $315 $-1 #
coedge $-1 $651 $317 $319 $479 forward $199 $-1 #
coedge $-1 $317 $651 $647 $652 forward $199 $-1 #
coedge $-1 $649 $320 $317 $476 forward $470 $-1 #
edge $-1 $482 11.797314050901477 $653 22.669150591942952 $475 $654 forward 7 unknown #
coedge $-1 $655 $656 $318 $478 forward $645 $-1 #
edge $-1 $657 -52.469810625413793 $481 -45.422285297484088 $477 $658 forward 7 unknown #
edge $-1 $482 36.496248661939475 $657 46.293461667383426 $319 $659 forward 7 unknown #
coedge $-1 $320 $649 $655 $660 forward $470 $-1 #
vertex $-1 $321 $661 #
vertex $-1 $321 $662 #
straight-curve $-1 29.030546372323691 33.638382458897773 9.0792657875079499 0 -1 0 I I #
coedge $-1 $484 $484 $-1 $663 reversed $324 $-1 #
edge $-1 $664 0 $664 6.2831853071796004 $325 $665 forward 7 unknown #
vertex $-1 $328 $666 #
ellipse-curve $-1 32.13678538404983 19.743872864784212 5.5555031235430903 0 0.71933980857756763 0.69465836192734942 1.5 0 0 1 I I #
coedge $-1 $488 $488 $-1 $667 reversed $331 $-1 #
edge $-1 $668 0 $668 6.2831853071796004 $332 $669 forward 7 unknown #
vertex $-1 $335 $670 #
ellipse-curve $-1 36.796143901639027 19.743872864784212 5.5555031235430903 0 0.71933980857756763 0.69465836192734942 1.5 0 0 1 I I #
face $-1 $-1 $504 $70 $-1 $671 forward single #
loop $-1 $-1 $672 $336 #
plane-surface $-1 0 -23.14673083369172 0 0 1 0 0 0 1 forward_v I I I I #
coedge $-1 $673 $674 $675 $676 reversed $337 $-1 #
coedge $-1 $677 $339 $341 $502 forward $213 $-1 #
coedge $-1 $339 $677 $673 $678 forward $213 $-1 #
coedge $-1 $675 $342 $339 $499 forward $504 $-1 #
edge $-1 $506 -1.3990264157177066 $679 20.384132951416269 $498 $680 forward 7 unknown #
coedge $-1 $681 $682 $340 $501 forward $493 $-1 #
edge $-1 $683 -37.758227086703158 $505 -31.975275128555651 $500 $684 forward 7 unknown #
edge $-1 $506 -8.6424859865029529 $683 0 $341 $685 forward 7 unknown #
coedge $-1 $342 $675 $681 $686 forward $504 $-1 #
loop $-1 $-1 $675 $492 #
vertex $-1 $501 $687 #
vertex $-1 $343 $688 #
straight-curve $-1 -8.0935268521315749 -47.055033715543459 9.0792657875079499 0 1 0 I I #
coedge $-1 $508 $508 $-1 $689 reversed $346 $-1 #
edge $-1 $690 0 $690 6.2831853071796004 $347 $691 forward 7 unknown #
vertex $-1 $350 $692 #
ellipse-curve $-1 -23.652926400084414 -19.935421494938371 6.1877898084341965 0 -0.66913061440640931 0.74314481823134659 1.5 0 0 1 I I #
coedge $-1 $512 $512 $-1 $693 reversed $353 $-1 #
edge $-1 $694 0 $694 6.2831853071796004 $354 $695 forward 7 unknown #
vertex $-1 $357 $696 #
ellipse-curve $-1 -14.317286671312708 -19.935421494938371 6.1877898084341965 0 -0.66913061440640931 0.74314481823134659 1.5 0 0 1 I I #
face $-1 $-1 $528 $73 $-1 $697 forward single #
loop $-1 $-1 $698 $358 #
plane-surface $-1 0 -23.14673083369172 0 0 1 0 0 0 1 forward_v I I I I #
coedge $-1 $699 $700 $701 $702 reversed $359 $-1 #
coedge $-1 $703 $361 $363 $526 forward $227 $-1 #
coedge $-1 $361 $703 $699 $704 forward $227 $-1 #
coedge $-1 $701 $364 $361 $523 forward $528 $-1 #
edge $-1 $530 -20.384132951416269 $705 1.3990264157177066 $522 $706 forward 7 unknown #
coedge $-1 $707 $708 $362 $525 forward $517 $-1 #
edge $-1 $709 -37.758227086703158 $529 -31.975275128555651 $524 $710 forward 7 unknown #
edge $-1 $530 -8.6424859865029529 $709 0 $363 $711 forward 7 unknown #
coedge $-1 $364 $701 $707 $712 forward $528 $-1 #
loop $-1 $-1 $701 $516 #
vertex $-1 $525 $713 #
vertex $-1 $365 $714 #
straight-curve $-1 29.876686219265551 -47.055033715543459 9.0792657875079499 0 1 0 I I #
coedge $-1 $532 $532 $-1 $715 reversed $368 $-1 #
edge $-1 $716 0 $716 6.2831853071796004 $369 $717 forward 7 unknown #
vertex $-1 $372 $718 #
ellipse-curve $-1 14.317286671312715 -19.935421494938371 6.1877898084341965 0 -0.66913061440640931 0.74314481823134659 1.5 0 0 1 I I #
coedge $-1 $536 $536 $-1 $719 reversed $375 $-1 #
edge $-1 $720 0 $720 6.2831853071796004 $376 $721 forward 7 unknown #
vertex $-1 $379 $722 #
ellipse-curve $-1 23.652926400084425 -19.935421494938371 6.1877898084341965 0 -0.66913061440640931 0.74314481823134659 1.5 0 0 1 I I #
face $-1 $-1 $395 $57 $-1 $723 reversed single #
loop $-1 $-1 $556 $380 #
plane-surface $-1 0 23.14673083369172 0 0 -1 0 0 0 -1 forward_v I I I I #
coedge $-1 $724 $554 $557 $725 forward $381 $-1 #
coedge $-1 $560 $383 $384 $548 reversed $241 $-1 #
coedge $-1 $554 $724 $383 $546 reversed $381 $-1 #
edge $-1 $561 -9.0792657875079481 $726 9.0792657875079481 $545 $727 forward 7 unknown #
coedge $-1 $385 $384 $724 $728 forward $153 $-1 #
edge $-1 $552 -53.026520584734641 $726 53.026520584734641 $544 $729 forward 7 unknown #
coedge $-1 $557 $556 $385 $550 reversed $541 $-1 #
edge $-1 $730 -53.026520584734641 $551 53.026520584734641 $549 $731 forward 7 unknown #
vertex $-1 $387 $732 #
vertex $-1 $563 $733 #
straight-curve $-1 53.026520584734641 0 -9.0792657875079481 0 -1 0 I I #
coedge $-1 $543 $545 $388 $555 reversed $381 $-1 #
edge $-1 $558 -23.14673083369172 $561 23.14673083369172 $554 $734 forward 7 unknown #
coedge $-1 $549 $389 $394 $564 forward $541 $-1 #
coedge $-1 $389 $549 $543 $725 reversed $541 $-1 #
vertex $-1 $390 $735 #
straight-curve $-1 0 23.14673083369172 9.0792657875079481 -1 0 0 I I #
coedge $-1 $391 $544 $393 $563 reversed $241 $-1 #
vertex $-1 $555 $736 #
straight-curve $-1 0 -23.14673083369172 9.0792657875079481 1 0 0 I I #
edge $-1 $396 -9.0792657875079481 $552 9.0792657875079481 $393 $737 forward 7 unknown #
edge $-1 $397 -9.0792657875079481 $551 9.0792657875079481 $394 $738 forward 7 unknown #
point $-1 53.026520584734641 -23.14673083369172 9.0792657875079481 #
point $-1 53.026520584734641 23.14673083369172 9.0792657875079481 #
plane-surface $-1 0 0 9.0792657875079481 0 0 1 1 0 0 forward_v I I I I #
coedge $-1 $578 $577 $570 $739 forward $400 $-1 #
coedge $-1 $570 $402 $404 $574 reversed $249 $-1 #
coedge $-1 $402 $569 $568 $739 reversed $249 $-1 #
coedge $-1 $410 $405 $402 $572 forward $411 $-1 #
edge $-1 $575 -17.297367563021069 $740 -10.491651625206053 $571 $741 forward 7 unknown #
coedge $-1 $404 $403 $578 $742 reversed $157 $-1 #
edge $-1 $743 -46.293461667383426 $575 -36.496248661939475 $569 $744 forward 7 unknown #
vertex $-1 $406 $745 #
straight-curve $-1 -22.536658117128766 16.3410148958767 9.0792657875079499 1 0 0 I I #
coedge $-1 $568 $407 $410 $582 reversed $400 $-1 #
coedge $-1 $407 $568 $573 $742 forward $400 $-1 #
vertex $-1 $408 $746 #
straight-curve $-1 -50.50923450477827 23.14673083369172 54.501551084992037 0 0 1 I I #
straight-curve $-1 -50.50923450477827 -9.0114094161193918 35.3324703137868 0 0.69465836192734942 -0.71933980857756763 I I #
edge $-1 $740 39.637397963736795 $412 50.50923450477827 $577 $747 forward 7 unknown #
point $-1 -50.50923450477827 23.14673083369172 9.0792657875079481 #
point $-1 -50.50923450477827 16.341014895876704 9.0792657875079499 #
edge $-1 $748 1 $748 0 $415 $-1 forward 7 unknown #
vertex $-1 $416 $749 #
ellipse-curve $-1 -47.402995493052131 16.37393918194465 2.3011960714223956 0 0.71933980857756763 0.69465836192734942 1.5 0 0 1 I I #
point $-1 -45.902995493052131 19.743872864784208 5.5555031235430876 #
edge $-1 $750 1 $750 0 $419 $-1 forward 7 unknown #
vertex $-1 $420 $751 #
ellipse-curve $-1 -42.743636975462934 16.37393918194465 2.3011960714223956 0 0.71933980857756763 0.69465836192734942 1.5 0 0 1 I I #
point $-1 -41.243636975462934 19.743872864784208 5.5555031235430876 #
loop $-1 $-1 $431 $423 #
plane-surface $-1 0 23.14673083369172 0 0 -1 0 0 0 -1 forward_v I I I I #
coedge $-1 $596 $426 $428 $600 reversed $271 $-1 #
coedge $-1 $426 $595 $752 $753 reversed $271 $-1 #
coedge $-1 $434 $429 $426 $598 forward $424 $-1 #
edge $-1 $601 -17.297367563021069 $754 -10.491651625206053 $597 $755 forward 7 unknown #
coedge $-1 $428 $427 $604 $756 reversed $171 $-1 #
edge $-1 $757 -46.293461667383426 $601 -36.496248661939475 $595 $758 forward 7 unknown #
vertex $-1 $430 $759 #
straight-curve $-1 -9.2800279709451061 16.3410148958767 9.0792657875079499 1 0 0 I I #
coedge $-1 $752 $431 $434 $608 reversed $593 $-1 #
coedge $-1 $431 $752 $599 $756 forward $593 $-1 #
vertex $-1 $432 $760 #
straight-curve $-1 -23.99597421241095 23.14673083369172 54.501551084992037 0 0 1 I I #
straight-curve $-1 -23.99597421241095 -9.0114094161193918 35.3324703137868 0 0.69465836192734942 -0.71933980857756763 I I #
edge $-1 $754 13.124137671369477 $435 23.99597421241095 $603 $761 forward 7 unknown #
point $-1 -23.99597421241095 23.14673083369172 9.0792657875079481 #
point $-1 -23.99597421241095 16.341014895876704 9.0792657875079499 #
edge $-1 $762 1 $762 0 $438 $-1 forward 7 unknown #
vertex $-1 $439 $763 #
ellipse-curve $-1 -20.889735200684811 16.37393918194465 2.3011960714223956 0 0.71933980857756763 0.69465836192734942 1.5 0 0 1 I I #
point $-1 -19.389735200684811 19.743872864784208 5.5555031235430876 #
edge $-1 $764 1 $764 0 $442 $-1 forward 7 unknown #
vertex $-1 $443 $765 #
ellipse-curve $-1 -16.230376683095614 16.37393918194465 2.3011960714223956 0 0.71933980857756763 0.69465836192734942 1.5 0 0 1 I I #
point $-1 -14.730376683095614 19.743872864784208 5.5555031235430876 #
loop $-1 $-1 $454 $446 #
plane-surface $-1 0 23.14673083369172 0 0 -1 0 0 0 -1 forward_v I I I I #
coedge $-1 $622 $449 $451 $626 reversed $293 $-1 #
coedge $-1 $449 $621 $766 $767 reversed $293 $-1 #
coedge $-1 $457 $452 $449 $624 forward $447 $-1 #
edge $-1 $627 -17.297367563021069 $768 -10.491651625206053 $623 $769 forward 7 unknown #
coedge $-1 $451 $450 $630 $770 reversed $185 $-1 #
edge $-1 $771 -46.293461667383426 $627 -36.496248661939475 $621 $772 forward 7 unknown #
vertex $-1 $453 $773 #
straight-curve $-1 3.9766021752385541 16.3410148958767 9.0792657875079499 1 0 0 I I #
coedge $-1 $766 $454 $457 $634 reversed $619 $-1 #
coedge $-1 $454 $766 $625 $770 forward $619 $-1 #
vertex $-1 $455 $774 #
straight-curve $-1 2.5172860799563725 23.14673083369172 54.501551084992037 0 0 1 I I #
straight-curve $-1 2.5172860799563725 -9.0114094161193918 35.3324703137868 0 0.69465836192734942 -0.71933980857756763 I I #
edge $-1 $768 -13.389122620997844 $458 -2.5172860799563725 $629 $775 forward 7 unknown #
point $-1 2.5172860799563725 23.14673083369172 9.0792657875079481 #
point $-1 2.5172860799563725 16.341014895876704 9.0792657875079499 #
edge $-1 $776 1 $776 0 $461 $-1 forward 7 unknown #
vertex $-1 $462 $777 #
ellipse-curve $-1 5.6235250916825095 16.37393918194465 2.3011960714223956 0 0.71933980857756763 0.69465836192734942 1.5 0 0 1 I I #
point $-1 7.1235250916825095 19.743872864784208 5.5555031235430876 #
edge $-1 $778 1 $778 0 $465 $-1 forward 7 unknown #
vertex $-1 $466 $779 #
ellipse-curve $-1 10.282883609271707 16.37393918194465 2.3011960714223956 0 0.71933980857756763 0.69465836192734942 1.5 0 0 1 I I #
point $-1 11.782883609271707 19.743872864784208 5.5555031235430876 #
loop $-1 $-1 $477 $469 #
plane-surface $-1 0 23.14673083369172 0 0 -1 0 0 0 -1 forward_v I I I I #
coedge $-1 $648 $472 $474 $652 reversed $315 $-1 #
coedge $-1 $472 $647 $780 $781 reversed $315 $-1 #
coedge $-1 $480 $475 $472 $650 forward $470 $-1 #
edge $-1 $653 -17.297367563021069 $782 -10.491651625206053 $649 $783 forward 7 unknown #
coedge $-1 $474 $473 $656 $784 reversed $199 $-1 #
edge $-1 $785 -46.293461667383426 $653 -36.496248661939475 $647 $786 forward 7 unknown #
vertex $-1 $476 $787 #
straight-curve $-1 17.233232321422214 16.3410148958767 9.0792657875079499 1 0 0 I I #
coedge $-1 $780 $477 $480 $660 reversed $645 $-1 #
coedge $-1 $477 $780 $651 $784 forward $645 $-1 #
vertex $-1 $478 $788 #
straight-curve $-1 29.030546372323691 23.14673083369172 54.501551084992037 0 0 1 I I #
straight-curve $-1 29.030546372323691 -9.0114094161193918 35.3324703137868 0 0.69465836192734942 -0.71933980857756763 I I #
edge $-1 $782 -39.902382913365166 $481 -29.030546372323691 $655 $789 forward 7 unknown #
point $-1 29.030546372323691 23.14673083369172 9.0792657875079481 #
point $-1 29.030546372323691 16.341014895876704 9.0792657875079499 #
edge $-1 $790 1 $790 0 $484 $-1 forward 7 unknown #
vertex $-1 $485 $791 #
ellipse-curve $-1 32.13678538404983 16.37393918194465 2.3011960714223956 0 0.71933980857756763 0.69465836192734942 1.5 0 0 1 I I #
point $-1 33.63678538404983 19.743872864784208 5.5555031235430876 #
edge $-1 $792 1 $792 0 $488 $-1 forward 7 unknown #
vertex $-1 $489 $793 #
ellipse-curve $-1 36.796143901639027 16.37393918194465 2.3011960714223956 0 0.71933980857756763 0.69465836192734942 1.5 0 0 1 I I #
point $-1 38.296143901639027 19.743872864784208 5.5555031235430876 #
plane-surface $-1 0 0 9.0792657875079481 0 0 1 1 0 0 forward_v I I I I #
coedge $-1 $682 $681 $674 $794 forward $493 $-1 #
coedge $-1 $674 $495 $497 $678 reversed $337 $-1 #
coedge $-1 $495 $673 $672 $794 reversed $337 $-1 #
coedge $-1 $503 $498 $495 $676 forward $504 $-1 #
edge $-1 $679 -30.330921559358437 $795 -23.908302881851739 $675 $796 forward 7 unknown #
coedge $-1 $497 $496 $682 $797 reversed $213 $-1 #
edge $-1 $798 0 $679 8.6424859865029529 $673 $799 forward 7 unknown #
vertex $-1 $499 $800 #
straight-curve $-1 -9.4925532678492814 -16.724112156185022 9.0792657875079481 -1 0 0 I I #
coedge $-1 $672 $500 $503 $686 reversed $493 $-1 #
coedge $-1 $500 $672 $677 $797 forward $493 $-1 #
vertex $-1 $501 $801 #
straight-curve $-1 -8.0935268521315749 -23.14673083369172 41.054540916063601 0 0 1 I I #
straight-curve $-1 -8.0935268521315749 -23.14673083369172 3.296313829360443 0 -0.74314481823134659 -0.66913061440640931 I I #
edge $-1 $795 -29.876686219265551 $505 -8.0935268521315749 $681 $802 forward 7 unknown #
point $-1 -8.0935268521315749 -23.14673083369172 9.0792657875079481 #
point $-1 -8.0935268521315749 -16.724112156185022 9.0792657875079463 #
edge $-1 $803 1 $803 0 $508 $-1 forward 7 unknown #
vertex $-1 $509 $804 #
ellipse-curve $-1 -23.652926400084414 -18.373745748869979 4.4533732185165027 0 -0.66913061440640931 0.74314481823134659 1.5 0 0 1 I I #
point $-1 -22.152926400084414 -19.935421494938371 6.1877898084341982 #
edge $-1 $805 1 $805 0 $512 $-1 forward 7 unknown #
vertex $-1 $513 $806 #
ellipse-curve $-1 -14.317286671312708 -18.373745748869979 4.4533732185165027 0 -0.66913061440640931 0.74314481823134659 1.5 0 0 1 I I #
point $-1 -12.817286671312708 -19.935421494938371 6.1877898084341982 #
plane-surface $-1 0 0 9.0792657875079481 0 0 1 1 0 0 forward_v I I I I #
coedge $-1 $708 $707 $700 $807 forward $517 $-1 #
coedge $-1 $700 $519 $521 $704 reversed $359 $-1 #
coedge $-1 $519 $699 $698 $807 reversed $359 $-1 #
coedge $-1 $527 $522 $519 $702 forward $528 $-1 #
edge $-1 $705 -30.330921559358437 $808 -23.908302881851739 $701 $809 forward 7 unknown #
coedge $-1 $521 $520 $708 $810 reversed $227 $-1 #
edge $-1 $811 0 $705 8.6424859865029529 $699 $812 forward 7 unknown #
vertex $-1 $523 $813 #
straight-curve $-1 9.4925532678492814 -16.724112156185022 9.0792657875079481 -1 0 0 I I #
coedge $-1 $698 $524 $527 $712 reversed $517 $-1 #
coedge $-1 $524 $698 $703 $810 forward $517 $-1 #
vertex $-1 $525 $814 #
straight-curve $-1 29.876686219265551 -23.14673083369172 41.054540916063601 0 0 1 I I #
straight-curve $-1 29.876686219265551 -23.14673083369172 3.296313829360443 0 -0.74314481823134659 -0.66913061440640931 I I #
edge $-1 $808 8.0935268521315749 $529 29.876686219265551 $707 $815 forward 7 unknown #
point $-1 29.876686219265551 -23.14673083369172 9.0792657875079481 #
point $-1 29.876686219265551 -16.724112156185022 9.0792657875079463 #
edge $-1 $816 1 $816 0 $532 $-1 forward 7 unknown #
vertex $-1 $533 $817 #
ellipse-curve $-1 14.317286671312715 -18.373745748869979 4.4533732185165027 0 -0.66913061440640931 0.74314481823134659 1.5 0 0 1 I I #
point $-1 15.817286671312715 -19.935421494938371 6.1877898084341982 #
edge $-1 $818 1 $818 0 $536 $-1 forward 7 unknown #
vertex $-1 $537 $819 #
ellipse-curve $-1 23.652926400084425 -18.373745748869979 4.4533732185165027 0 -0.66913061440640931 0.74314481823134659 1.5 0 0 1 I I #
point $-1 25.152926400084425 -19.935421494938371 6.1877898084341982 #
plane-surface $-1 53.026520584734641 0 0 -1 0 0 0 0 1 forward_v I I I I #
coedge $-1 $545 $543 $547 $728 reversed $381 $-1 #
edge $-1 $558 -9.0792657875079481 $730 9.0792657875079481 $557 $820 forward 7 unknown #
vertex $-1 $728 $821 #
straight-curve $-1 -53.026520584734641 -23.14673083369172 0 0 0 -1 I I #
edge $-1 $726 -23.14673083369172 $730 23.14673083369172 $724 $822 forward 7 unknown #
straight-curve $-1 0 -23.14673083369172 -9.0792657875079481 -1 0 0 I I #
vertex $-1 $550 $823 #
straight-curve $-1 0 23.14673083369172 -9.0792657875079481 1 0 0 I I #
point $-1 53.026520584734641 23.14673083369172 -9.0792657875079481 #
point $-1 53.026520584734641 -23.14673083369172 -9.0792657875079481 #
straight-curve $-1 -53.026520584734641 0 9.0792657875079481 0 -1 0 I I #
point $-1 -53.026520584734641 23.14673083369172 9.0792657875079481 #
point $-1 -53.026520584734641 -23.14673083369172 9.0792657875079481 #
straight-curve $-1 53.026520584734641 -23.14673083369172 0 0 0 -1 I I #
straight-curve $-1 53.026520584734641 23.14673083369172 0 0 0 -1 I I #
edge $-1 $740 45.422285297484088 $743 52.469810625413793 $568 $824 forward 7 unknown #
vertex $-1 $582 $825 #
straight-curve $-1 -39.637397963736795 33.638382458897773 9.0792657875079499 0 1 0 I I #
edge $-1 $743 17.100739846608029 $579 27.972576387649504 $578 $826 forward 7 unknown #
vertex $-1 $742 $827 #
straight-curve $-1 -39.637397963736795 -9.0114094161193918 35.3324703137868 0 -0.69465836192734942 0.71933980857756763 I I #
point $-1 -39.637397963736795 16.341014895876704 9.0792657875079499 #
point $-1 -50.50923450477827 23.14673083369172 2.0317404595782449 #
straight-curve $-1 0 23.14673083369172 9.0792657875079481 -1 0 0 I I #
vertex $-1 $585 $828 #
point $-1 -45.902995493052131 16.37393918194465 2.3011960714223956 #
vertex $-1 $589 $829 #
point $-1 -41.243636975462934 16.37393918194465 2.3011960714223956 #
coedge $-1 $604 $603 $596 $753 forward $593 $-1 #
edge $-1 $754 45.422285297484088 $757 52.469810625413793 $752 $830 forward 7 unknown #
vertex $-1 $608 $831 #
straight-curve $-1 -13.124137671369477 33.638382458897773 9.0792657875079499 0 1 0 I I #
edge $-1 $757 3.8441097004243705 $605 14.715946241465844 $604 $832 forward 7 unknown #
vertex $-1 $756 $833 #
straight-curve $-1 -13.124137671369477 -9.0114094161193918 35.3324703137868 0 -0.69465836192734942 0.71933980857756763 I I #
point $-1 -13.124137671369477 16.341014895876704 9.0792657875079499 #
point $-1 -23.99597421241095 23.14673083369172 2.0317404595782449 #
straight-curve $-1 0 23.14673083369172 9.0792657875079481 -1 0 0 I I #
vertex $-1 $611 $834 #
point $-1 -19.389735200684811 16.37393918194465 2.3011960714223956 #
vertex $-1 $615 $835 #
point $-1 -14.730376683095614 16.37393918194465 2.3011960714223956 #
coedge $-1 $630 $629 $622 $767 forward $619 $-1 #
edge $-1 $768 45.422285297484088 $771 52.469810625413793 $766 $836 forward 7 unknown #
vertex $-1 $634 $837 #
straight-curve $-1 13.389122620997844 33.638382458897773 9.0792657875079499 0 1 0 I I #
edge $-1 $771 -9.4125204457592897 $631 1.4593160952821815 $630 $838 forward 7 unknown #
vertex $-1 $770 $839 #
straight-curve $-1 13.389122620997844 -9.0114094161193918 35.3324703137868 0 -0.69465836192734942 0.71933980857756763 I I #
point $-1 13.389122620997844 16.341014895876704 9.0792657875079499 #
point $-1 2.5172860799563725 23.14673083369172 2.0317404595782449 #
straight-curve $-1 0 23.14673083369172 9.0792657875079481 -1 0 0 I I #
vertex $-1 $637 $840 #
point $-1 7.1235250916825095 16.37393918194465 2.3011960714223956 #
vertex $-1 $641 $841 #
point $-1 11.782883609271707 16.37393918194465 2.3011960714223956 #
coedge $-1 $656 $655 $648 $781 forward $645 $-1 #
edge $-1 $782 45.422285297484088 $785 52.469810625413793 $780 $842 forward 7 unknown #
vertex $-1 $660 $843 #
straight-curve $-1 39.902382913365166 33.638382458897773 9.0792657875079499 0 1 0 I I #
edge $-1 $785 -22.669150591942952 $657 -11.797314050901477 $656 $844 forward 7 unknown #
vertex $-1 $784 $845 #
straight-curve $-1 39.902382913365166 -9.0114094161193918 35.3324703137868 0 -0.69465836192734942 0.71933980857756763 I I #
point $-1 39.902382913365166 16.341014895876704 9.0792657875079499 #
point $-1 29.030546372323691 23.14673083369172 2.0317404595782449 #
straight-curve $-1 0 23.14673083369172 9.0792657875079481 -1 0 0 I I #
vertex $-1 $663 $846 #
point $-1 33.63678538404983 16.37393918194465 2.3011960714223956 #
vertex $-1 $667 $847 #
point $-1 38.296143901639027 16.37393918194465 2.3011960714223956 #
edge $-1 $795 31.975275128555651 $798 37.758227086703158 $672 $848 forward 7 unknown #
vertex $-1 $686 $849 #
straight-curve $-1 -29.876686219265551 -47.055033715543459 9.0792657875079499 0 -1 0 I I #
edge $-1 $798 -20.384132951416269 $683 1.3990264157177066 $682 $850 forward 7 unknown #
vertex $-1 $797 $851 #
straight-curve $-1 -29.876686219265551 -23.14673083369172 3.296313829360443 0 0.74314481823134659 0.66913061440640931 I I #
point $-1 -29.876686219265551 -16.724112156185022 9.0792657875079463 #
point $-1 -8.0935268521315749 -23.14673083369172 3.296313829360443 #
straight-curve $-1 0 -23.14673083369172 9.0792657875079481 1 0 0 I I #
vertex $-1 $689 $852 #
point $-1 -22.152926400084414 -18.373745748869979 4.4533732185165027 #
vertex $-1 $693 $853 #
point $-1 -12.817286671312708 -18.373745748869979 4.4533732185165027 #
edge $-1 $808 31.975275128555651 $811 37.758227086703158 $698 $854 forward 7 unknown #
vertex $-1 $712 $855 #
straight-curve $-1 8.0935268521315749 -47.055033715543459 9.0792657875079499 0 -1 0 I I #
edge $-1 $811 -1.3990264157177066 $709 20.384132951416269 $708 $856 forward 7 unknown #
vertex $-1 $810 $857 #
straight-curve $-1 8.0935268521315749 -23.14673083369172 3.296313829360443 0 0.74314481823134659 0.66913061440640931 I I #
point $-1 8.0935268521315749 -16.724112156185022 9.0792657875079463 #
point $-1 29.876686219265551 -23.14673083369172 3.296313829360443 #
straight-curve $-1 0 -23.14673083369172 9.0792657875079481 1 0 0 I I #
vertex $-1 $715 $858 #
point $-1 15.817286671312715 -18.373745748869979 4.4533732185165027 #
vertex $-1 $719 $859 #
point $-1 25.152926400084425 -18.373745748869979 4.4533732185165027 #
straight-curve $-1 -53.026520584734641 23.14673083369172 0 0 0 -1 I I #
point $-1 -53.026520584734641 -23.14673083369172 -9.0792657875079481 #
straight-curve $-1 -53.026520584734641 0 -9.0792657875079481 0 1 0 I I #
point $-1 -53.026520584734641 23.14673083369172 -9.0792657875079481 #
straight-curve $-1 -39.637397963736795 23.14673083369172 54.501551084992037 0 0 -1 I I #
point $-1 -39.637397963736795 23.14673083369172 9.0792657875079481 #
straight-curve $-1 -22.536658117128766 23.14673083369172 2.0317404595782449 -1 0 0 I I #
point $-1 -39.637397963736795 23.14673083369172 2.0317404595782449 #
point $-1 -47.402995493052131 15.294929469078298 1.2592085285313712 #
point $-1 -42.743636975462934 15.294929469078298 1.2592085285313712 #
straight-curve $-1 -13.124137671369477 23.14673083369172 54.501551084992037 0 0 -1 I I #
point $-1 -13.124137671369477 23.14673083369172 9.0792657875079481 #
straight-curve $-1 -9.2800279709451061 23.14673083369172 2.0317404595782449 -1 0 0 I I #
point $-1 -13.124137671369477 23.14673083369172 2.0317404595782449 #
point $-1 -20.889735200684811 15.294929469078298 1.2592085285313712 #
point $-1 -16.230376683095614 15.294929469078298 1.2592085285313712 #
straight-curve $-1 13.389122620997844 23.14673083369172 54.501551084992037 0 0 -1 I I #
point $-1 13.389122620997844 23.14673083369172 9.0792657875079481 #
straight-curve $-1 3.9766021752385541 23.14673083369172 2.0317404595782449 -1 0 0 I I #
point $-1 13.389122620997844 23.14673083369172 2.0317404595782449 #
point $-1 5.6235250916825095 15.294929469078298 1.2592085285313712 #
point $-1 10.282883609271707 15.294929469078298 1.2592085285313712 #
straight-curve $-1 39.902382913365166 23.14673083369172 54.501551084992037 0 0 -1 I I #
point $-1 39.902382913365166 23.14673083369172 9.0792657875079481 #
straight-curve $-1 17.233232321422214 23.14673083369172 2.0317404595782449 -1 0 0 I I #
point $-1 39.902382913365166 23.14673083369172 2.0317404595782449 #
point $-1 32.13678538404983 15.294929469078298 1.2592085285313712 #
point $-1 36.796143901639027 15.294929469078298 1.2592085285313712 #
straight-curve $-1 -29.876686219265551 -23.14673083369172 41.054540916063601 0 0 -1 I I #
point $-1 -29.876686219265551 -23.14673083369172 9.0792657875079481 #
straight-curve $-1 -9.4925532678492814 -23.14673083369172 3.2963138293604435 1 0 0 I I #
point $-1 -29.876686219265551 -23.14673083369172 3.296313829360443 #
point $-1 -23.652926400084414 -17.370049827260367 3.3386559911694826 #
point $-1 -14.317286671312708 -17.370049827260367 3.3386559911694826 #
straight-curve $-1 8.0935268521315749 -23.14673083369172 41.054540916063601 0 0 -1 I I #
point $-1 8.0935268521315749 -23.14673083369172 9.0792657875079481 #
straight-curve $-1 9.4925532678492814 -23.14673083369172 3.2963138293604435 1 0 0 I I #
point $-1 8.0935268521315749 -23.14673083369172 3.296313829360443 #
point $-1 14.317286671312715 -17.370049827260367 3.3386559911694826 #
point $-1 23.652926400084425 -17.370049827260367 3.3386559911694826 #
End-of-ACIS-data 