500 0 10 0           
7 Unknown 11 ACIS 5.0 NT 24 Thu Mar 25 16:11:19 1999 
-1 9.9999999999999995e-007 1e-010 
body $-1 $10 $-1 $11 #
body $-1 $12 $-1 $13 #
body $-1 $14 $-1 $15 #
body $-1 $16 $-1 $17 #
body $-1 $18 $-1 $19 #
body $-1 $20 $-1 $21 #
body $-1 $22 $-1 $23 #
body $-1 $24 $-1 $25 #
body $-1 $26 $-1 $27 #
body $-1 $28 $-1 $29 #
lump $-1 $-1 $30 $0 #
transform $-1 1 0 0 0 1 0 0 0 1 46.673787652211068 19.699794018642059 6.3968568486084019 1 rotate no_reflect no_shear #
lump $-1 $-1 $31 $1 #
transform $-1 1 0 0 0 1 0 0 0 1 46.673787652211068 19.699794018642059 6.3968568486084019 1 rotate no_reflect no_shear #
lump $-1 $-1 $32 $2 #
transform $-1 1 0 0 0 1 0 0 0 1 46.673787652211068 19.699794018642059 6.3968568486084019 1 rotate no_reflect no_shear #
lump $-1 $-1 $33 $3 #
transform $-1 1 0 0 0 1 0 0 0 1 46.673787652211068 19.699794018642059 6.3968568486084019 1 rotate no_reflect no_shear #
lump $-1 $-1 $34 $4 #
transform $-1 1 0 0 0 1 0 0 0 1 46.673787652211068 19.699794018642059 6.3968568486084019 1 rotate no_reflect no_shear #
lump $-1 $-1 $35 $5 #
transform $-1 1 0 0 0 1 0 0 0 1 46.673787652211068 19.699794018642059 6.3968568486084019 1 rotate no_reflect no_shear #
lump $-1 $-1 $36 $6 #
transform $-1 1 0 0 0 1 0 0 0 1 46.673787652211068 19.699794018642059 6.3968568486084019 1 rotate no_reflect no_shear #
lump $-1 $-1 $37 $7 #
transform $-1 1 0 0 0 1 0 0 0 1 46.673787652211068 19.699794018642059 6.3968568486084019 1 rotate no_reflect no_shear #
lump $-1 $-1 $38 $8 #
transform $-1 1 0 0 0 1 0 0 0 1 46.673787652211068 19.699794018642059 6.3968568486084019 1 rotate no_reflect no_shear #
lump $-1 $-1 $39 $9 #
transform $-1 1 0 0 0 1 0 0 0 1 46.673787652211068 19.699794018642059 6.3968568486084019 1 rotate no_reflect no_shear #
shell $-1 $-1 $-1 $40 $-1 $10 #
shell $-1 $-1 $-1 $41 $-1 $12 #
shell $-1 $-1 $-1 $42 $-1 $14 #
shell $-1 $-1 $-1 $43 $-1 $16 #
shell $-1 $-1 $-1 $44 $-1 $18 #
shell $-1 $-1 $-1 $45 $-1 $20 #
shell $-1 $-1 $-1 $46 $-1 $22 #
shell $-1 $-1 $-1 $47 $-1 $24 #
shell $-1 $-1 $-1 $48 $-1 $26 #
shell $-1 $-1 $-1 $49 $-1 $28 #
face $-1 $50 $51 $30 $-1 $52 forward single #
face $-1 $53 $54 $31 $-1 $55 reversed single #
face $-1 $56 $57 $32 $-1 $58 reversed single #
face $-1 $59 $60 $33 $-1 $61 reversed single #
face $-1 $62 $63 $34 $-1 $64 forward single #
face $-1 $65 $66 $35 $-1 $67 reversed single #
face $-1 $68 $69 $36 $-1 $70 forward single #
face $-1 $71 $72 $37 $-1 $73 reversed single #
face $-1 $74 $75 $38 $-1 $76 forward single #
face $-1 $77 $78 $39 $-1 $79 forward single #
face $-1 $80 $81 $30 $-1 $82 reversed single #
loop $-1 $-1 $83 $40 #
plane-surface $-1 0 0 6.3968568486084019 0 0 1 1 0 0 forward_v I I I I #
face $-1 $84 $85 $31 $-1 $86 reversed single #
loop $-1 $-1 $87 $41 #
plane-surface $-1 -44.411365391793211 -9.9060803214252555 0 0 1 0 0 0 1 forward_v I I I I #
face $-1 $88 $89 $32 $-1 $90 reversed single #
loop $-1 $-1 $91 $42 #
plane-surface $-1 44.411365391793204 -9.9060803214252555 0 0 1 0 0 0 1 forward_v I I I I #
face $-1 $92 $93 $33 $-1 $94 reversed single #
loop $-1 $-1 $95 $43 #
plane-surface $-1 -18.02566428565132 -97.088442006610819 52.860177724548393 -1 0 0 0 -0.82903758062907751 0.55919289150049634 forward_v I I I I #
face $-1 $96 $97 $34 $-1 $98 forward single #
loop $-1 $99 $100 $44 #
cone-surface $-1 -27.483739454460693 -16.202069787155256 2.4744478648667321 0 0.82903758062907751 -0.55919289150049634 1.5 0 0 1 I I 0 1 1.5 forward I I I I #
face $-1 $101 $102 $35 $-1 $103 reversed single #
loop $-1 $-1 $104 $45 #
plane-surface $-1 24.123278845724037 -97.088442006610819 52.860177724548393 -1 0 0 0 -0.82903758062907751 0.55919289150049634 forward_v I I I I #
face $-1 $105 $106 $36 $-1 $107 forward single #
loop $-1 $108 $109 $46 #
cone-surface $-1 14.665203676914665 -16.202069787155256 2.4744478648667321 0 0.82903758062907751 -0.55919289150049634 1.5 0 0 1 I I 0 1 1.5 forward I I I I #
face $-1 $110 $111 $37 $-1 $112 reversed single #
loop $-1 $-1 $113 $47 #
plane-surface $-1 -42.148943131375361 40.967511412856865 99.872512907989218 1 0 0 0 -0.57357644374324357 -0.81915203911291934 forward_v I I I I #
face $-1 $114 $115 $38 $-1 $116 forward single #
loop $-1 $117 $118 $48 #
cone-surface $-1 -37.262459621518836 14.839490801522802 2.3607410584894133 0 -0.57357644374324357 -0.81915203911291934 1 0 0 1 I I 0 1 1 forward I I I I #
face $-1 $119 $120 $39 $-1 $121 forward single #
loop $-1 $122 $123 $49 #
cone-surface $-1 -29.932734356734052 14.839490801522802 2.3607410584894133 0 -0.57357644374324357 -0.81915203911291934 1 0 0 1 I I 0 1 1 forward I I I I #
face $-1 $124 $125 $30 $-1 $126 reversed single #
loop $-1 $-1 $127 $50 #
plane-surface $-1 0 0 -6.3968568486084019 0 0 1 1 0 0 forward_v I I I I #
coedge $-1 $128 $129 $130 $131 forward $51 $-1 #
face $-1 $132 $133 $31 $-1 $134 reversed single #
loop $-1 $-1 $135 $53 #
plane-surface $-1 -44.411365391793211 -6.9060803214252555 0 0 -1 0 0 0 -1 forward_v I I I I #
coedge $-1 $136 $137 $138 $139 reversed $54 $-1 #
face $-1 $140 $141 $32 $-1 $142 reversed single #
loop $-1 $-1 $143 $56 #
plane-surface $-1 42.148943131375347 -8.4060803214252555 0 1 0 0 0 0 -1 forward_v I I I I #
coedge $-1 $144 $145 $146 $147 forward $57 $-1 #
face $-1 $148 $149 $33 $-1 $150 reversed single #
loop $-1 $-1 $151 $59 #
plane-surface $-1 -27.483739454460693 -19.699794018642066 0.66087717550825431 0 -0.82903758062907751 0.55919289150049634 1 0 0 forward_v I I I I #
coedge $-1 $152 $153 $154 $155 reversed $60 $-1 #
face $-1 $-1 $156 $34 $-1 $157 forward single #
loop $-1 $158 $159 $62 #
cone-surface $-1 -27.483739454460693 -14.017050880917036 1.0006340490497712 0 0.82903758062907751 -0.55919289150049634 0.75 0 0 1 I I -0.70710678118654757 0.70710678118654757 0.75 forward I I I I #
loop $-1 $-1 $160 $44 #
coedge $-1 $100 $100 $161 $162 reversed $63 $-1 #
face $-1 $163 $164 $35 $-1 $165 reversed single #
loop $-1 $-1 $166 $65 #
plane-surface $-1 14.665203676914665 -19.699794018642066 0.66087717550825431 0 -0.82903758062907751 0.55919289150049634 1 0 0 forward_v I I I I #
coedge $-1 $167 $168 $169 $170 reversed $66 $-1 #
face $-1 $-1 $171 $36 $-1 $172 forward single #
loop $-1 $173 $174 $68 #
cone-surface $-1 14.665203676914665 -14.017050880917036 1.0006340490497712 0 0.82903758062907751 -0.55919289150049634 0.75 0 0 1 I I -0.70710678118654757 0.70710678118654757 0.75 forward I I I I #
loop $-1 $-1 $175 $46 #
coedge $-1 $109 $109 $176 $177 reversed $69 $-1 #
face $-1 $178 $179 $37 $-1 $180 reversed single #
loop $-1 $-1 $181 $71 #
plane-surface $-1 -33.597596989126444 -12.574458862308212 23.406656251125028 0 0.57357644374324357 0.81915203911291934 1 0 0 forward_v I I I I #
coedge $-1 $182 $183 $184 $185 reversed $72 $-1 #
face $-1 $-1 $186 $38 $-1 $187 forward single #
loop $-1 $188 $189 $74 #
cone-surface $-1 -37.262459621518836 13.683270480403117 0.70948734324277662 0 -0.57357644374324357 -0.81915203911291934 0.5 0 0 1 I I -0.70710678118654746 0.70710678118654746 0.5 forward I I I I #
loop $-1 $-1 $190 $48 #
coedge $-1 $118 $118 $191 $192 reversed $75 $-1 #
face $-1 $-1 $193 $39 $-1 $194 forward single #
loop $-1 $195 $196 $77 #
cone-surface $-1 -29.932734356734052 13.683270480403117 0.70948734324277662 0 -0.57357644374324357 -0.81915203911291934 0.5 0 0 1 I I -0.70710678118654746 0.70710678118654746 0.5 forward I I I I #
loop $-1 $-1 $197 $49 #
coedge $-1 $123 $123 $198 $199 reversed $78 $-1 #
face $-1 $200 $201 $30 $-1 $202 reversed single #
loop $-1 $-1 $203 $80 #
plane-surface $-1 0 -19.699794018642059 0 0 1 0 0 0 1 forward_v I I I I #
coedge $-1 $204 $205 $206 $207 forward $81 $-1 #
coedge $-1 $208 $83 $209 $210 forward $51 $-1 #
coedge $-1 $83 $208 $211 $212 forward $51 $-1 #
coedge $-1 $213 $214 $83 $131 reversed $215 $-1 #
edge $-1 $216 -19.699794018642059 $217 19.699794018642059 $130 $218 forward 7 unknown #
face $-1 $219 $220 $31 $-1 $221 reversed single #
loop $-1 $-1 $222 $84 #
plane-surface $-1 -42.148943131375354 -8.4060803214252555 0 -1 0 0 0 0 1 forward_v I I I I #
coedge $-1 $223 $224 $225 $226 forward $85 $-1 #
coedge $-1 $227 $87 $228 $229 reversed $54 $-1 #
coedge $-1 $87 $227 $230 $231 reversed $54 $-1 #
coedge $-1 $232 $233 $87 $139 forward $234 $-1 #
edge $-1 $235 -6.3968568486084019 $236 6.3968568486084019 $138 $237 forward 7 unknown #
face $-1 $238 $239 $32 $-1 $240 reversed single #
loop $-1 $-1 $241 $88 #
plane-surface $-1 44.411365391793204 -6.9060803214252555 0 0 -1 0 0 0 -1 forward_v I I I I #
coedge $-1 $242 $243 $244 $245 forward $89 $-1 #
coedge $-1 $246 $91 $247 $248 reversed $57 $-1 #
coedge $-1 $91 $246 $249 $250 reversed $57 $-1 #
coedge $-1 $243 $242 $91 $147 reversed $89 $-1 #
edge $-1 $251 -6.3968568486084019 $252 6.3968568486084019 $146 $253 forward 7 unknown #
face $-1 $254 $255 $33 $-1 $256 forward single #
loop $-1 $-1 $257 $92 #
plane-surface $-1 -36.941814623270062 -97.088442006610819 52.860177724548393 1 0 0 0 0.82903758062907751 -0.55919289150049634 forward_v I I I I #
coedge $-1 $258 $259 $260 $261 reversed $93 $-1 #
coedge $-1 $153 $95 $262 $263 reversed $60 $-1 #
coedge $-1 $95 $152 $258 $264 reversed $60 $-1 #
coedge $-1 $260 $265 $95 $155 forward $255 $-1 #
edge $-1 $266 28.84442698466335 $267 32.71339400610411 $154 $268 forward 7 unknown #
loop $-1 $-1 $161 $96 #
plane-surface $-1 -27.483739454460693 -19.699794018642066 0.66087717550825431 0 -0.82903758062907751 0.55919289150049634 1 0 0 forward_v I I I I #
loop $-1 $-1 $269 $62 #
coedge $-1 $159 $159 $160 $270 reversed $97 $-1 #
coedge $-1 $160 $160 $159 $270 forward $99 $-1 #
coedge $-1 $161 $161 $100 $162 forward $156 $-1 #
edge $-1 $271 3.8885070435718562e-016 $271 6.2831853071796004 $161 $272 forward 7 unknown #
face $-1 $273 $274 $35 $-1 $275 reversed single #
loop $-1 $-1 $276 $101 #
plane-surface $-1 5.207128508105292 -97.088442006610819 52.860177724548393 1 0 0 0 0.82903758062907751 -0.55919289150049634 forward_v I I I I #
coedge $-1 $277 $278 $279 $280 reversed $102 $-1 #
coedge $-1 $168 $104 $281 $282 reversed $66 $-1 #
coedge $-1 $104 $167 $277 $283 reversed $66 $-1 #
coedge $-1 $279 $284 $104 $170 forward $285 $-1 #
edge $-1 $286 28.84442698466335 $287 32.71339400610411 $169 $288 forward 7 unknown #
loop $-1 $-1 $176 $105 #
plane-surface $-1 14.665203676914665 -19.699794018642066 0.66087717550825431 0 -0.82903758062907751 0.55919289150049634 1 0 0 forward_v I I I I #
loop $-1 $-1 $289 $68 #
coedge $-1 $174 $174 $175 $290 reversed $106 $-1 #
coedge $-1 $175 $175 $174 $290 forward $108 $-1 #
coedge $-1 $176 $176 $109 $177 forward $171 $-1 #
edge $-1 $291 3.8885070435718562e-016 $291 6.2831853071796004 $176 $292 forward 7 unknown #
face $-1 $293 $294 $37 $-1 $295 reversed single #
loop $-1 $-1 $296 $110 #
plane-surface $-1 -25.046250846877527 40.967511412856865 99.872512907989218 -1 0 0 0 0.57357644374324357 0.81915203911291934 forward_v I I I I #
coedge $-1 $297 $298 $299 $300 reversed $111 $-1 #
coedge $-1 $183 $113 $301 $302 reversed $72 $-1 #
coedge $-1 $113 $182 $297 $303 reversed $72 $-1 #
coedge $-1 $299 $304 $113 $185 forward $305 $-1 #
edge $-1 $306 0.78396168778637332 $307 8.7657039235287826 $184 $308 forward 7 unknown #
loop $-1 $-1 $191 $114 #
plane-surface $-1 -33.597596989126444 -12.574458862308212 23.406656251125028 0 0.57357644374324357 0.81915203911291934 1 0 0 forward_v I I I I #
loop $-1 $-1 $309 $74 #
coedge $-1 $189 $189 $190 $310 reversed $115 $-1 #
coedge $-1 $190 $190 $189 $310 forward $117 $-1 #
coedge $-1 $191 $191 $118 $192 forward $186 $-1 #
edge $-1 $311 -3.8114214134973919e-017 $311 6.2831853071796004 $191 $312 forward 7 unknown #
loop $-1 $-1 $198 $119 #
plane-surface $-1 -33.597596989126444 -12.574458862308212 23.406656251125028 0 0.57357644374324357 0.81915203911291934 1 0 0 forward_v I I I I #
loop $-1 $-1 $313 $77 #
coedge $-1 $196 $196 $197 $314 reversed $120 $-1 #
coedge $-1 $197 $197 $196 $314 forward $122 $-1 #
coedge $-1 $198 $198 $123 $199 forward $193 $-1 #
edge $-1 $315 -3.8114214134973919e-017 $315 6.2831853071796004 $198 $316 forward 7 unknown #
face $-1 $317 $318 $30 $-1 $319 reversed single #
loop $-1 $-1 $320 $124 #
plane-surface $-1 -46.673787652211068 0 0 1 0 0 0 0 -1 forward_v I I I I #
coedge $-1 $321 $211 $322 $323 forward $125 $-1 #
coedge $-1 $324 $127 $321 $325 forward $81 $-1 #
coedge $-1 $127 $324 $326 $327 forward $81 $-1 #
coedge $-1 $214 $213 $127 $207 reversed $215 $-1 #
edge $-1 $328 -19.699794018642059 $329 19.699794018642059 $206 $330 forward 7 unknown #
coedge $-1 $129 $128 $331 $332 forward $51 $-1 #
coedge $-1 $333 $334 $128 $210 reversed $318 $-1 #
edge $-1 $217 -46.673787652211068 $335 46.673787652211068 $209 $336 forward 7 unknown #
coedge $-1 $203 $337 $129 $212 reversed $125 $-1 #
edge $-1 $338 -46.673787652211068 $216 46.673787652211068 $211 $339 forward 7 unknown #
coedge $-1 $206 $130 $337 $340 forward $215 $-1 #
coedge $-1 $130 $206 $333 $341 reversed $215 $-1 #
loop $-1 $-1 $213 $317 #
vertex $-1 $131 $342 #
vertex $-1 $131 $343 #
straight-curve $-1 46.673787652211068 0 6.3968568486084019 0 1 0 I I #
face $-1 $344 $345 $31 $-1 $346 forward single #
loop $-1 $-1 $347 $132 #
plane-surface $-1 0 0 -6.3968568486084019 0 0 1 1 0 0 forward_v I I I I #
coedge $-1 $348 $349 $227 $350 forward $133 $-1 #
coedge $-1 $351 $135 $347 $352 reversed $85 $-1 #
coedge $-1 $135 $351 $353 $354 reversed $85 $-1 #
coedge $-1 $349 $348 $135 $226 reversed $133 $-1 #
edge $-1 $355 -6.3968568486084019 $356 6.3968568486084019 $225 $357 forward 7 unknown #
coedge $-1 $137 $136 $222 $350 reversed $54 $-1 #
coedge $-1 $358 $359 $136 $229 forward $220 $-1 #
edge $-1 $360 19.943260435478749 $235 24.468104956314463 $228 $361 forward 7 unknown #
coedge $-1 $362 $363 $137 $231 forward $345 $-1 #
edge $-1 $236 -24.468104956314463 $364 -19.943260435478749 $230 $365 forward 7 unknown #
coedge $-1 $366 $138 $363 $367 reversed $234 $-1 #
coedge $-1 $138 $366 $358 $368 reversed $234 $-1 #
loop $-1 $-1 $366 $344 #
vertex $-1 $368 $369 #
vertex $-1 $139 $370 #
straight-curve $-1 -46.673787652211068 -9.9060803214252555 0 0 0 1 I I #
face $-1 $371 $372 $32 $-1 $373 forward single #
loop $-1 $-1 $247 $140 #
plane-surface $-1 0 0 -6.3968568486084019 0 0 1 1 0 0 forward_v I I I I #
coedge $-1 $374 $375 $376 $377 reversed $141 $-1 #
coedge $-1 $146 $143 $378 $379 reversed $89 $-1 #
coedge $-1 $143 $146 $380 $381 reversed $89 $-1 #
coedge $-1 $375 $374 $143 $245 reversed $141 $-1 #
edge $-1 $382 -6.3968568486084019 $383 6.3968568486084019 $244 $384 forward 7 unknown #
coedge $-1 $145 $144 $385 $386 reversed $57 $-1 #
coedge $-1 $378 $387 $144 $248 forward $239 $-1 #
edge $-1 $388 -24.468104956314459 $252 -19.943260435478745 $247 $389 forward 7 unknown #
coedge $-1 $390 $380 $145 $250 forward $372 $-1 #
edge $-1 $251 19.943260435478745 $391 24.468104956314459 $249 $392 forward 7 unknown #
vertex $-1 $250 $393 #
vertex $-1 $248 $394 #
straight-curve $-1 42.148943131375347 -9.9060803214252555 0 0 0 -1 I I #
face $-1 $-1 $395 $33 $-1 $396 reversed single #
loop $-1 $-1 $154 $148 #
plane-surface $-1 0 0 6.3968568486084019 0 0 1 1 0 0 forward_v I I I I #
coedge $-1 $397 $398 $399 $400 reversed $149 $-1 #
coedge $-1 $401 $151 $153 $264 forward $93 $-1 #
coedge $-1 $151 $401 $397 $402 forward $93 $-1 #
coedge $-1 $399 $154 $151 $261 forward $255 $-1 #
edge $-1 $267 4.2837945584209738 $403 23.199944896039717 $260 $404 forward 7 unknown #
coedge $-1 $405 $406 $152 $263 forward $395 $-1 #
edge $-1 $407 -25.769211686765932 $266 -20.033232013665796 $262 $408 forward 7 unknown #
edge $-1 $267 -6.9188415665640406 $407 -1.2717262267236031e-014 $153 $409 forward 7 unknown #
coedge $-1 $154 $399 $405 $410 forward $255 $-1 #
vertex $-1 $155 $411 #
vertex $-1 $155 $412 #
straight-curve $-1 -18.02566428565132 -48.54422100330541 6.396856848608401 0 1 0 I I #
coedge $-1 $269 $269 $-1 $413 reversed $158 $-1 #
edge $-1 $414 0 $414 6.2831853071796004 $159 $415 forward 7 unknown #
vertex $-1 $162 $416 #
ellipse-curve $-1 -27.483739454460693 -17.765310507921683 3.5288670120583294 0 -0.82903758062907751 0.55919289150049634 1.5 0 0 1 I I #
face $-1 $-1 $285 $35 $-1 $417 forward single #
loop $-1 $-1 $418 $163 #
plane-surface $-1 0 -19.699794018642059 0 0 1 0 0 0 1 forward_v I I I I #
coedge $-1 $419 $420 $421 $422 reversed $164 $-1 #
coedge $-1 $423 $166 $168 $283 forward $102 $-1 #
coedge $-1 $166 $423 $419 $424 forward $102 $-1 #
coedge $-1 $421 $169 $166 $280 forward $285 $-1 #
edge $-1 $287 -16.790677007266705 $425 2.1254733303520403 $279 $426 forward 7 unknown #
coedge $-1 $427 $428 $167 $282 forward $274 $-1 #
edge $-1 $429 -25.769211686765932 $286 -20.033232013665796 $281 $430 forward 7 unknown #
edge $-1 $287 -6.9188415665640406 $429 -1.2717262267236031e-014 $168 $431 forward 7 unknown #
coedge $-1 $169 $421 $427 $432 forward $285 $-1 #
loop $-1 $-1 $421 $273 #
vertex $-1 $282 $433 #
vertex $-1 $170 $434 #
straight-curve $-1 24.123278845724037 -48.54422100330541 6.396856848608401 0 1 0 I I #
coedge $-1 $289 $289 $-1 $435 reversed $173 $-1 #
edge $-1 $436 0 $436 6.2831853071796004 $174 $437 forward 7 unknown #
vertex $-1 $177 $438 #
ellipse-curve $-1 14.665203676914665 -17.765310507921683 3.5288670120583294 0 -0.82903758062907751 0.55919289150049634 1.5 0 0 1 I I #
face $-1 $-1 $305 $37 $-1 $439 forward single #
loop $-1 $-1 $440 $178 #
plane-surface $-1 0 19.699794018642059 0 0 -1 0 0 0 -1 forward_v I I I I #
coedge $-1 $441 $442 $443 $444 reversed $179 $-1 #
coedge $-1 $445 $181 $183 $303 forward $111 $-1 #
coedge $-1 $181 $445 $441 $446 forward $111 $-1 #
coedge $-1 $443 $184 $181 $300 forward $305 $-1 #
edge $-1 $307 -25.350144636812139 $447 -8.2474523523143048 $299 $448 forward 7 unknown #
coedge $-1 $449 $450 $182 $302 forward $294 $-1 #
edge $-1 $451 -49.128275794243848 $306 -43.539399605386208 $301 $452 forward 7 unknown #
edge $-1 $307 29.655679880275756 $451 39.399588037284119 $183 $453 forward 7 unknown #
coedge $-1 $184 $443 $449 $454 forward $305 $-1 #
loop $-1 $-1 $443 $293 #
vertex $-1 $302 $455 #
vertex $-1 $185 $456 #
straight-curve $-1 -42.148943131375361 20.483755706428433 6.396856848608401 0 -1 0 I I #
coedge $-1 $309 $309 $-1 $457 reversed $188 $-1 #
edge $-1 $458 0 $458 6.2831853071796004 $189 $459 forward 7 unknown #
vertex $-1 $192 $460 #
ellipse-curve $-1 -37.262459621518836 15.708922900770858 3.6024187541795798 0 0.57357644374324357 0.81915203911291934 1 0 0 1 I I #
coedge $-1 $313 $313 $-1 $461 reversed $195 $-1 #
edge $-1 $462 0 $462 6.2831853071796004 $196 $463 forward 7 unknown #
vertex $-1 $199 $464 #
ellipse-curve $-1 -29.932734356734052 15.708922900770858 3.6024187541795798 0 0.57357644374324357 0.81915203911291934 1 0 0 1 I I #
face $-1 $-1 $215 $30 $-1 $465 reversed single #
loop $-1 $-1 $333 $200 #
plane-surface $-1 0 19.699794018642059 0 0 -1 0 0 0 -1 forward_v I I I I #
coedge $-1 $466 $331 $334 $467 forward $201 $-1 #
coedge $-1 $337 $203 $204 $325 reversed $125 $-1 #
coedge $-1 $331 $466 $203 $323 reversed $201 $-1 #
edge $-1 $338 -6.3968568486084019 $468 6.3968568486084019 $322 $469 forward 7 unknown #
coedge $-1 $205 $204 $466 $470 forward $81 $-1 #
edge $-1 $329 -46.673787652211068 $468 46.673787652211068 $321 $471 forward 7 unknown #
coedge $-1 $334 $333 $205 $327 reversed $318 $-1 #
edge $-1 $472 -46.673787652211068 $328 46.673787652211068 $326 $473 forward 7 unknown #
vertex $-1 $207 $474 #
vertex $-1 $340 $475 #
straight-curve $-1 46.673787652211068 0 -6.3968568486084019 0 -1 0 I I #
coedge $-1 $320 $322 $208 $332 reversed $201 $-1 #
edge $-1 $335 -19.699794018642059 $338 19.699794018642059 $331 $476 forward 7 unknown #
coedge $-1 $326 $209 $214 $341 forward $318 $-1 #
coedge $-1 $209 $326 $320 $467 reversed $318 $-1 #
vertex $-1 $210 $477 #
straight-curve $-1 0 19.699794018642059 6.3968568486084019 -1 0 0 I I #
coedge $-1 $211 $321 $213 $340 reversed $125 $-1 #
vertex $-1 $332 $478 #
straight-curve $-1 0 -19.699794018642059 6.3968568486084019 1 0 0 I I #
edge $-1 $216 -6.3968568486084019 $329 6.3968568486084019 $213 $479 forward 7 unknown #
edge $-1 $217 -6.3968568486084019 $328 6.3968568486084019 $214 $480 forward 7 unknown #
point $-1 46.673787652211068 -19.699794018642059 6.3968568486084019 #
point $-1 46.673787652211068 19.699794018642059 6.3968568486084019 #
face $-1 $-1 $234 $31 $-1 $481 reversed single #
loop $-1 $-1 $353 $219 #
plane-surface $-1 0 0 6.3968568486084019 0 0 1 1 0 0 forward_v I I I I #
coedge $-1 $359 $358 $223 $352 forward $220 $-1 #
coedge $-1 $225 $222 $359 $482 reversed $133 $-1 #
coedge $-1 $222 $225 $362 $483 reversed $133 $-1 #
edge $-1 $364 -6.3968568486084019 $360 6.3968568486084019 $222 $484 forward 7 unknown #
coedge $-1 $224 $223 $366 $485 reversed $85 $-1 #
edge $-1 $486 -24.468104956314463 $356 -19.943260435478749 $347 $487 forward 7 unknown #
coedge $-1 $363 $362 $224 $354 forward $345 $-1 #
edge $-1 $355 19.943260435478749 $488 24.468104956314463 $353 $489 forward 7 unknown #
vertex $-1 $354 $490 #
vertex $-1 $352 $491 #
straight-curve $-1 -42.148943131375354 -6.9060803214252555 0 0 0 -1 I I #
coedge $-1 $347 $228 $233 $368 forward $220 $-1 #
coedge $-1 $228 $347 $348 $482 forward $220 $-1 #
vertex $-1 $229 $492 #
straight-curve $-1 -22.205682695896606 -9.9060803214252555 -6.3968568486084019 -1 0 0 I I #
coedge $-1 $353 $230 $349 $483 forward $345 $-1 #
coedge $-1 $230 $353 $232 $367 forward $345 $-1 #
vertex $-1 $231 $493 #
straight-curve $-1 -22.205682695896606 -9.9060803214252555 6.3968568486084019 1 0 0 I I #
coedge $-1 $233 $232 $351 $485 forward $234 $-1 #
edge $-1 $488 6.9060803214252555 $236 9.9060803214252555 $232 $494 forward 7 unknown #
edge $-1 $235 -9.9060803214252555 $486 -6.9060803214252555 $233 $495 forward 7 unknown #
point $-1 -46.673787652211068 -9.9060803214252555 -6.3968568486084019 #
point $-1 -46.673787652211068 -9.9060803214252555 6.3968568486084019 #
face $-1 $-1 $496 $32 $-1 $497 reversed single #
loop $-1 $-1 $249 $238 #
plane-surface $-1 0 0 6.3968568486084019 0 0 1 1 0 0 forward_v I I I I #
coedge $-1 $244 $241 $498 $499 reversed $141 $-1 #
coedge $-1 $241 $244 $500 $501 reversed $141 $-1 #
coedge $-1 $502 $503 $241 $377 forward $496 $-1 #
edge $-1 $504 -6.3968568486084019 $505 6.3968568486084019 $376 $506 forward 7 unknown #
coedge $-1 $498 $247 $242 $379 forward $239 $-1 #
edge $-1 $252 -5.7030401607126278 $383 -2.7030401607126278 $378 $507 forward 7 unknown #
coedge $-1 $249 $500 $243 $381 forward $372 $-1 #
edge $-1 $382 2.7030401607126278 $251 5.7030401607126278 $380 $508 forward 7 unknown #
vertex $-1 $381 $509 #
vertex $-1 $379 $510 #
straight-curve $-1 42.148943131375347 -6.9060803214252555 0 0 0 -1 I I #
coedge $-1 $503 $502 $246 $386 forward $496 $-1 #
edge $-1 $391 -6.3968568486084019 $388 6.3968568486084019 $385 $511 forward 7 unknown #
coedge $-1 $247 $498 $503 $512 forward $239 $-1 #
vertex $-1 $386 $513 #
straight-curve $-1 22.205682695896602 -9.9060803214252555 -6.3968568486084019 -1 0 0 I I #
coedge $-1 $500 $249 $502 $514 forward $372 $-1 #
vertex $-1 $514 $515 #
straight-curve $-1 22.205682695896602 -9.9060803214252555 6.3968568486084019 1 0 0 I I #
point $-1 42.148943131375347 -9.9060803214252555 6.3968568486084019 #
point $-1 42.148943131375347 -9.9060803214252555 -6.3968568486084019 #
loop $-1 $-1 $262 $254 #
plane-surface $-1 0 -19.699794018642059 0 0 1 0 0 0 1 forward_v I I I I #
coedge $-1 $398 $257 $259 $402 reversed $149 $-1 #
coedge $-1 $257 $397 $516 $517 reversed $149 $-1 #
coedge $-1 $265 $260 $257 $400 forward $255 $-1 #
edge $-1 $403 -32.71339400610411 $518 -28.84442698466335 $399 $519 forward 7 unknown #
coedge $-1 $259 $258 $406 $520 reversed $93 $-1 #
edge $-1 $521 1.2717262267236031e-014 $403 6.9188415665640406 $397 $522 forward 7 unknown #
vertex $-1 $261 $523 #
straight-curve $-1 -13.741869727230346 -15.830826997201298 6.3968568486084019 -1 0 0 I I #
coedge $-1 $516 $262 $265 $410 reversed $395 $-1 #
coedge $-1 $262 $516 $401 $520 forward $395 $-1 #
vertex $-1 $263 $524 #
straight-curve $-1 -18.02566428565132 -19.699794018642059 26.430088862274197 0 0 1 I I #
straight-curve $-1 -18.02566428565132 -19.699794018642066 0.66087717550825431 0 -0.55919289150049634 -0.82903758062907751 I I #
edge $-1 $518 -36.941814623270062 $266 -18.02566428565132 $405 $525 forward 7 unknown #
point $-1 -18.02566428565132 -19.699794018642059 6.3968568486084019 #
point $-1 -18.02566428565132 -15.830826997201298 6.3968568486084019 #
edge $-1 $526 1 $526 0 $269 $-1 forward 7 unknown #
vertex $-1 $270 $527 #
ellipse-curve $-1 -27.483739454460693 -14.638829066388844 1.4200287176751434 0 -0.82903758062907751 0.55919289150049634 1.5 0 0 1 I I #
point $-1 -25.983739454460693 -17.765310507921669 3.5288670120583205 #
plane-surface $-1 0 0 6.3968568486084019 0 0 1 1 0 0 forward_v I I I I #
coedge $-1 $428 $427 $420 $528 forward $274 $-1 #
coedge $-1 $420 $276 $278 $424 reversed $164 $-1 #
coedge $-1 $276 $419 $418 $528 reversed $164 $-1 #
coedge $-1 $284 $279 $276 $422 forward $285 $-1 #
edge $-1 $425 -32.71339400610411 $529 -28.84442698466335 $421 $530 forward 7 unknown #
coedge $-1 $278 $277 $428 $531 reversed $102 $-1 #
edge $-1 $532 1.2717262267236031e-014 $425 6.9188415665640406 $419 $533 forward 7 unknown #
vertex $-1 $280 $534 #
straight-curve $-1 7.3326018384573324 -15.830826997201298 6.3968568486084019 -1 0 0 I I #
coedge $-1 $418 $281 $284 $432 reversed $274 $-1 #
coedge $-1 $281 $418 $423 $531 forward $274 $-1 #
vertex $-1 $282 $535 #
straight-curve $-1 24.123278845724037 -19.699794018642059 26.430088862274197 0 0 1 I I #
straight-curve $-1 24.123278845724037 -19.699794018642066 0.66087717550825431 0 -0.55919289150049634 -0.82903758062907751 I I #
edge $-1 $529 5.207128508105292 $286 24.123278845724037 $427 $536 forward 7 unknown #
point $-1 24.123278845724037 -19.699794018642059 6.3968568486084019 #
point $-1 24.123278845724037 -15.830826997201298 6.3968568486084019 #
edge $-1 $537 1 $537 0 $289 $-1 forward 7 unknown #
vertex $-1 $290 $538 #
ellipse-curve $-1 14.665203676914665 -14.638829066388844 1.4200287176751434 0 -0.82903758062907751 0.55919289150049634 1.5 0 0 1 I I #
point $-1 16.165203676914665 -17.765310507921669 3.5288670120583205 #
plane-surface $-1 0 0 6.3968568486084019 0 0 1 1 0 0 forward_v I I I I #
coedge $-1 $450 $449 $442 $539 forward $294 $-1 #
coedge $-1 $442 $296 $298 $446 reversed $179 $-1 #
coedge $-1 $296 $441 $440 $539 reversed $179 $-1 #
coedge $-1 $304 $299 $296 $444 forward $305 $-1 #
edge $-1 $447 -8.7657039235287826 $540 -0.78396168778637332 $443 $541 forward 7 unknown #
coedge $-1 $298 $297 $450 $542 reversed $111 $-1 #
edge $-1 $543 -39.399588037284119 $447 -29.655679880275756 $441 $544 forward 7 unknown #
vertex $-1 $300 $545 #
straight-curve $-1 -16.798798494563222 11.718051782899646 6.3968568486084028 1 0 0 I I #
coedge $-1 $440 $301 $304 $454 reversed $294 $-1 #
coedge $-1 $301 $440 $445 $542 forward $294 $-1 #
vertex $-1 $302 $546 #
straight-curve $-1 -42.148943131375361 19.699794018642059 49.936256453994609 0 0 1 I I #
straight-curve $-1 -42.148943131375361 -12.574458862308212 23.406656251125028 0 0.81915203911291934 -0.57357644374324357 I I #
edge $-1 $540 25.046250846877527 $306 42.148943131375361 $449 $547 forward 7 unknown #
point $-1 -42.148943131375361 19.699794018642059 6.3968568486084019 #
point $-1 -42.148943131375361 11.71805178289965 6.396856848608401 #
edge $-1 $548 1 $548 0 $309 $-1 forward 7 unknown #
vertex $-1 $310 $549 #
ellipse-curve $-1 -37.262459621518836 13.970058702274738 1.1190633627992363 0 0.57357644374324357 0.81915203911291934 1 0 0 1 I I #
point $-1 -36.262459621518836 15.708922900770865 3.60241875417959 #
edge $-1 $550 1 $550 0 $313 $-1 forward 7 unknown #
vertex $-1 $314 $551 #
ellipse-curve $-1 -29.932734356734052 13.970058702274738 1.1190633627992363 0 0.57357644374324357 0.81915203911291934 1 0 0 1 I I #
point $-1 -28.932734356734052 15.708922900770865 3.60241875417959 #
plane-surface $-1 46.673787652211068 0 0 -1 0 0 0 0 1 forward_v I I I I #
coedge $-1 $322 $320 $324 $470 reversed $201 $-1 #
edge $-1 $335 -6.3968568486084019 $472 6.3968568486084019 $334 $552 forward 7 unknown #
vertex $-1 $470 $553 #
straight-curve $-1 -46.673787652211068 -19.699794018642059 0 0 0 -1 I I #
edge $-1 $468 -19.699794018642059 $472 19.699794018642059 $466 $554 forward 7 unknown #
straight-curve $-1 0 -19.699794018642059 -6.3968568486084019 -1 0 0 I I #
vertex $-1 $327 $555 #
straight-curve $-1 0 19.699794018642059 -6.3968568486084019 1 0 0 I I #
point $-1 46.673787652211068 19.699794018642059 -6.3968568486084019 #
point $-1 46.673787652211068 -19.699794018642059 -6.3968568486084019 #
straight-curve $-1 -46.673787652211068 0 6.3968568486084019 0 -1 0 I I #
point $-1 -46.673787652211068 19.699794018642059 6.3968568486084019 #
point $-1 -46.673787652211068 -19.699794018642059 6.3968568486084019 #
straight-curve $-1 46.673787652211068 -19.699794018642059 0 0 0 -1 I I #
straight-curve $-1 46.673787652211068 19.699794018642059 0 0 0 -1 I I #
plane-surface $-1 -46.673787652211068 0 0 1 0 0 0 0 -1 forward_v I I I I #
edge $-1 $356 2.7030401607126278 $360 5.7030401607126278 $359 $556 forward 7 unknown #
edge $-1 $364 -5.7030401607126278 $355 -2.7030401607126278 $362 $557 forward 7 unknown #
straight-curve $-1 -42.148943131375354 -9.9060803214252555 0 0 0 -1 I I #
edge $-1 $488 -6.3968568486084019 $486 6.3968568486084019 $366 $558 forward 7 unknown #
vertex $-1 $485 $559 #
straight-curve $-1 -22.205682695896606 -6.9060803214252555 -6.3968568486084019 1 0 0 I I #
vertex $-1 $367 $560 #
straight-curve $-1 -22.205682695896606 -6.9060803214252555 6.3968568486084019 -1 0 0 I I #
point $-1 -42.148943131375354 -6.9060803214252555 6.3968568486084019 #
point $-1 -42.148943131375354 -6.9060803214252555 -6.3968568486084019 #
point $-1 -42.148943131375354 -9.9060803214252555 -6.3968568486084019 #
point $-1 -42.148943131375354 -9.9060803214252555 6.3968568486084019 #
straight-curve $-1 -46.673787652211068 0 6.3968568486084019 0 -1 0 I I #
straight-curve $-1 -46.673787652211068 0 -6.3968568486084019 0 1 0 I I #
loop $-1 $-1 $385 $371 #
plane-surface $-1 46.673787652211068 0 0 -1 0 0 0 0 1 forward_v I I I I #
coedge $-1 $387 $378 $374 $499 forward $239 $-1 #
edge $-1 $383 19.943260435478745 $504 24.468104956314459 $498 $561 forward 7 unknown #
coedge $-1 $380 $390 $375 $501 forward $372 $-1 #
edge $-1 $505 -24.468104956314459 $382 -19.943260435478745 $500 $562 forward 7 unknown #
coedge $-1 $385 $376 $390 $514 reversed $496 $-1 #
coedge $-1 $376 $385 $387 $512 reversed $496 $-1 #
vertex $-1 $512 $563 #
vertex $-1 $377 $564 #
straight-curve $-1 46.673787652211068 -6.9060803214252555 0 0 0 1 I I #
straight-curve $-1 42.148943131375347 -4.2030401607126278 -6.3968568486084019 0 1 0 I I #
straight-curve $-1 42.148943131375347 -4.2030401607126278 6.3968568486084019 0 -1 0 I I #
point $-1 42.148943131375347 -6.9060803214252555 6.3968568486084019 #
point $-1 42.148943131375347 -6.9060803214252555 -6.3968568486084019 #
straight-curve $-1 46.673787652211068 -9.9060803214252555 0 0 0 -1 I I #
edge $-1 $504 6.9060803214252555 $388 9.9060803214252555 $503 $565 forward 7 unknown #
point $-1 46.673787652211061 -9.9060803214252555 -6.3968568486084019 #
edge $-1 $391 -9.9060803214252555 $505 -6.9060803214252555 $502 $566 forward 7 unknown #
point $-1 46.673787652211061 -9.9060803214252555 6.3968568486084019 #
coedge $-1 $406 $405 $398 $517 forward $395 $-1 #
edge $-1 $518 20.033232013665796 $521 25.769211686765932 $516 $567 forward 7 unknown #
vertex $-1 $410 $568 #
straight-curve $-1 -36.941814623270062 -48.54422100330541 6.396856848608401 0 -1 0 I I #
edge $-1 $521 -23.199944896039717 $407 -4.2837945584209738 $406 $569 forward 7 unknown #
vertex $-1 $520 $570 #
straight-curve $-1 -36.941814623270062 -19.699794018642066 0.66087717550825431 0 0.55919289150049634 0.82903758062907751 I I #
point $-1 -36.941814623270062 -15.830826997201298 6.3968568486084019 #
point $-1 -18.02566428565132 -19.699794018642059 0.66087717550826486 #
straight-curve $-1 0 -19.699794018642059 6.3968568486084019 1 0 0 I I #
vertex $-1 $413 $571 #
point $-1 -25.983739454460693 -14.638829066388844 1.4200287176751434 #
edge $-1 $529 20.033232013665796 $532 25.769211686765932 $418 $572 forward 7 unknown #
vertex $-1 $432 $573 #
straight-curve $-1 5.207128508105292 -48.54422100330541 6.396856848608401 0 -1 0 I I #
edge $-1 $532 -2.1254733303520403 $429 16.790677007266705 $428 $574 forward 7 unknown #
vertex $-1 $531 $575 #
straight-curve $-1 5.207128508105292 -19.699794018642066 0.66087717550825431 0 0.55919289150049634 0.82903758062907751 I I #
point $-1 5.207128508105292 -15.830826997201298 6.3968568486084019 #
point $-1 24.123278845724037 -19.699794018642059 0.66087717550826486 #
straight-curve $-1 0 -19.699794018642059 6.3968568486084019 1 0 0 I I #
vertex $-1 $435 $576 #
point $-1 16.165203676914665 -14.638829066388844 1.4200287176751434 #
edge $-1 $540 43.539399605386208 $543 49.128275794243848 $440 $577 forward 7 unknown #
vertex $-1 $454 $578 #
straight-curve $-1 -25.046250846877527 20.483755706428433 6.396856848608401 0 1 0 I I #
edge $-1 $543 8.2474523523143048 $451 25.350144636812139 $450 $579 forward 7 unknown #
vertex $-1 $542 $580 #
straight-curve $-1 -25.046250846877527 -12.574458862308212 23.406656251125028 0 -0.81915203911291934 0.57357644374324357 I I #
point $-1 -25.046250846877527 11.71805178289965 6.396856848608401 #
point $-1 -42.148943131375361 19.699794018642059 0.80798065975076128 #
straight-curve $-1 0 19.699794018642059 6.3968568486084019 -1 0 0 I I #
vertex $-1 $457 $581 #
point $-1 -36.262459621518836 13.970058702274738 1.1190633627992363 #
vertex $-1 $461 $582 #
point $-1 -28.932734356734052 13.970058702274738 1.1190633627992363 #
straight-curve $-1 -46.673787652211068 19.699794018642059 0 0 0 -1 I I #
point $-1 -46.673787652211068 -19.699794018642059 -6.3968568486084019 #
straight-curve $-1 -46.673787652211068 0 -6.3968568486084019 0 1 0 I I #
point $-1 -46.673787652211068 19.699794018642059 -6.3968568486084019 #
straight-curve $-1 -42.148943131375354 -4.2030401607126278 -6.3968568486084019 0 -1 0 I I #
straight-curve $-1 -42.148943131375354 -4.2030401607126278 6.3968568486084019 0 1 0 I I #
straight-curve $-1 -46.673787652211068 -6.9060803214252555 0 0 0 -1 I I #
point $-1 -46.673787652211068 -6.9060803214252555 -6.3968568486084019 #
point $-1 -46.673787652211068 -6.9060803214252555 6.3968568486084019 #
straight-curve $-1 22.205682695896602 -6.9060803214252555 -6.3968568486084019 1 0 0 I I #
straight-curve $-1 22.205682695896602 -6.9060803214252555 6.3968568486084019 -1 0 0 I I #
point $-1 46.673787652211061 -6.9060803214252555 -6.3968568486084019 #
point $-1 46.673787652211061 -6.9060803214252555 6.3968568486084019 #
straight-curve $-1 46.673787652211068 0 -6.3968568486084019 0 -1 0 I I #
straight-curve $-1 46.673787652211068 0 6.3968568486084019 0 1 0 I I #
straight-curve $-1 -36.941814623270062 -19.699794018642059 26.430088862274197 0 0 -1 I I #
point $-1 -36.941814623270062 -19.699794018642059 6.3968568486084019 #
straight-curve $-1 -13.741869727230346 -19.699794018642059 0.66087717550826275 1 0 0 I I #
point $-1 -36.941814623270062 -19.699794018642059 0.66087717550826486 #
point $-1 -27.483739454460693 -13.395272695445229 0.58123938042439893 #
straight-curve $-1 5.207128508105292 -19.699794018642059 26.430088862274197 0 0 -1 I I #
point $-1 5.207128508105292 -19.699794018642059 6.3968568486084019 #
straight-curve $-1 7.3326018384573324 -19.699794018642059 0.66087717550826275 1 0 0 I I #
point $-1 5.207128508105292 -19.699794018642059 0.66087717550826486 #
point $-1 14.665203676914665 -13.395272695445229 0.58123938042439893 #
straight-curve $-1 -25.046250846877527 19.699794018642059 49.936256453994609 0 0 -1 I I #
point $-1 -25.046250846877527 19.699794018642059 6.3968568486084019 #
straight-curve $-1 -16.798798494563222 19.699794018642063 0.80798065975075772 -1 0 0 I I #
point $-1 -25.046250846877527 19.699794018642059 0.80798065975076128 #
point $-1 -37.262459621518836 13.396482258531496 0.29991132368631696 #
point $-1 -29.932734356734052 13.396482258531496 0.29991132368631696 #
End-of-ACIS-data 