500 0 7 0           
7 Unknown 11 ACIS 5.0 NT 24 Fri Mar 26 00:29:05 1999 
-1 9.9999999999999995e-007 1e-010 
body $-1 $7 $-1 $8 #
body $-1 $9 $-1 $10 #
body $-1 $11 $-1 $12 #
body $-1 $13 $-1 $14 #
body $-1 $15 $-1 $16 #
body $-1 $17 $-1 $18 #
body $-1 $19 $-1 $20 #
lump $-1 $-1 $21 $0 #
transform $-1 1 0 0 0 1 0 0 0 1 61.703543198950165 27.0914088743558 8.6172127137966044 1 rotate no_reflect no_shear #
lump $-1 $-1 $22 $1 #
transform $-1 1 0 0 0 1 0 0 0 1 61.703543198950165 27.0914088743558 8.6172127137966044 1 rotate no_reflect no_shear #
lump $-1 $-1 $23 $2 #
transform $-1 1 0 0 0 1 0 0 0 1 61.703543198950165 27.0914088743558 8.6172127137966044 1 rotate no_reflect no_shear #
lump $-1 $-1 $24 $3 #
transform $-1 1 0 0 0 1 0 0 0 1 61.703543198950165 27.0914088743558 8.6172127137966044 1 rotate no_reflect no_shear #
lump $-1 $-1 $25 $4 #
transform $-1 1 0 0 0 1 0 0 0 1 61.703543198950165 27.0914088743558 8.6172127137966044 1 rotate no_reflect no_shear #
lump $-1 $-1 $26 $5 #
transform $-1 1 0 0 0 1 0 0 0 1 61.703543198950165 27.0914088743558 8.6172127137966044 1 rotate no_reflect no_shear #
lump $-1 $-1 $27 $6 #
transform $-1 1 0 0 0 1 0 0 0 1 61.703543198950165 27.0914088743558 8.6172127137966044 1 rotate no_reflect no_shear #
shell $-1 $-1 $-1 $28 $-1 $7 #
shell $-1 $-1 $-1 $29 $-1 $9 #
shell $-1 $-1 $-1 $30 $-1 $11 #
shell $-1 $-1 $-1 $31 $-1 $13 #
shell $-1 $-1 $-1 $32 $-1 $15 #
shell $-1 $-1 $-1 $33 $-1 $17 #
shell $-1 $-1 $-1 $34 $-1 $19 #
face $-1 $35 $36 $21 $-1 $37 forward single #
face $-1 $38 $39 $22 $-1 $40 forward single #
face $-1 $41 $42 $23 $-1 $43 forward single #
face $-1 $44 $45 $24 $-1 $46 reversed single #
face $-1 $47 $48 $25 $-1 $49 forward single #
face $-1 $50 $51 $26 $-1 $52 reversed single #
face $-1 $53 $54 $27 $-1 $55 forward single #
face $-1 $56 $57 $21 $-1 $58 reversed single #
loop $-1 $-1 $59 $28 #
plane-surface $-1 0 0 8.6172127137966044 0 0 1 1 0 0 forward_v I I I I #
face $-1 $60 $61 $22 $-1 $62 reversed single #
loop $-1 $-1 $63 $29 #
plane-surface $-1 0 -23.167864404586041 2.2846767679764208 0 0 1 1 0 0 forward_v I I I I #
face $-1 $64 $65 $23 $-1 $66 reversed single #
loop $-1 $-1 $67 $30 #
plane-surface $-1 0 23.167864404586041 2.2846767679764208 0 0 1 1 0 0 forward_v I I I I #
face $-1 $68 $69 $24 $-1 $70 reversed single #
loop $-1 $-1 $71 $31 #
plane-surface $-1 -165.20143542455745 6.4313849769142664 68.447460581431955 0 -1 0 0.83867057594974714 0 -0.54463902268945019 forward_v I I I I #
face $-1 $72 $73 $25 $-1 $74 forward single #
loop $-1 $75 $76 $32 #
cone-surface $-1 -57.423906823360063 2.5440521402498106 3.703571204703056 0.83867057594974714 0 -0.54463902268945019 0.81695853403417529 0 1.2580058639246208 1 I I 0 1 1.5 forward I I I I #
face $-1 $77 $78 $26 $-1 $79 reversed single #
loop $-1 $-1 $80 $33 #
plane-surface $-1 103.92471670155518 -11.004833658949076 170.47078354694622 0 1 0 0.85716730853699208 0 0.51503806187062418 forward_v I I I I #
face $-1 $81 $82 $27 $-1 $83 forward single #
loop $-1 $84 $85 $34 #
cone-surface $-1 58.77942070298036 -5.4339890468084064 4.4684764318964341 -0.85716730853699208 0 -0.51503806187062418 0.77255709280593621 0 -1.2857509628054882 1 I I 0 1 1.5 forward I I I I #
face $-1 $86 $87 $21 $-1 $88 reversed single #
loop $-1 $-1 $89 $35 #
plane-surface $-1 0 0 -8.6172127137966044 0 0 1 1 0 0 forward_v I I I I #
coedge $-1 $90 $91 $92 $93 forward $36 $-1 #
face $-1 $94 $95 $22 $-1 $96 reversed single #
loop $-1 $-1 $97 $38 #
plane-surface $-1 0 -23.167864404586041 -1.6562509764410609 0 0 1 1 0 0 forward_v I I I I #
coedge $-1 $98 $99 $100 $101 reversed $39 $-1 #
face $-1 $102 $103 $23 $-1 $104 reversed single #
loop $-1 $-1 $105 $41 #
plane-surface $-1 0 23.167864404586041 -1.6562509764410609 0 0 1 1 0 0 forward_v I I I I #
coedge $-1 $106 $107 $108 $109 reversed $42 $-1 #
face $-1 $110 $111 $24 $-1 $112 reversed single #
loop $-1 $-1 $113 $44 #
plane-surface $-1 -61.703543198950157 2.5440521402498106 1.2351456527269704 -0.83867057594974714 0 0.54463902268945019 0.54463902268945019 0 0.83867057594974714 forward_v I I I I #
coedge $-1 $114 $115 $116 $117 reversed $45 $-1 #
face $-1 $-1 $118 $25 $-1 $119 forward single #
loop $-1 $120 $121 $47 #
cone-surface $-1 -54.912252640161093 2.5440521402498106 2.0724839591272399 0.83867057594974714 0 -0.54463902268945019 0.40847926701708764 0 0.62900293196231039 1 I I -0.70710678118654757 0.70710678118654757 0.75 forward I I I I #
loop $-1 $-1 $122 $32 #
coedge $-1 $76 $76 $123 $124 reversed $48 $-1 #
face $-1 $125 $126 $26 $-1 $127 reversed single #
loop $-1 $-1 $128 $50 #
plane-surface $-1 -1.8558034005250903 -5.4339890468084064 106.91143694747097 0.85716730853699208 0 0.51503806187062418 0.51503806187062418 0 -0.85716730853699208 forward_v I I I I #
coedge $-1 $129 $130 $131 $132 reversed $51 $-1 #
face $-1 $-1 $133 $27 $-1 $134 forward single #
loop $-1 $135 $136 $53 #
cone-surface $-1 57.461532832965254 -5.4339890468084064 3.6766095377962671 -0.85716730853699208 0 -0.51503806187062418 0.3862785464029681 0 -0.64287548140274409 1 I I -0.70710678118654757 0.70710678118654757 0.75 forward I I I I #
loop $-1 $-1 $137 $34 #
coedge $-1 $85 $85 $138 $139 reversed $54 $-1 #
face $-1 $140 $141 $21 $-1 $142 reversed single #
loop $-1 $-1 $143 $56 #
plane-surface $-1 0 -27.0914088743558 0 0 1 0 0 0 1 forward_v I I I I #
coedge $-1 $144 $145 $146 $147 forward $57 $-1 #
coedge $-1 $148 $59 $149 $150 forward $36 $-1 #
coedge $-1 $59 $148 $151 $152 forward $36 $-1 #
coedge $-1 $153 $154 $59 $93 reversed $155 $-1 #
edge $-1 $156 -27.0914088743558 $157 27.0914088743558 $92 $158 forward 7 unknown #
face $-1 $159 $160 $22 $-1 $161 reversed single #
loop $-1 $-1 $162 $60 #
plane-surface $-1 0 -19.244319934816282 0.31421289576767997 0 -1 0 0 0 -1 forward_v I I I I #
coedge $-1 $163 $164 $165 $166 reversed $61 $-1 #
coedge $-1 $167 $63 $168 $169 forward $39 $-1 #
coedge $-1 $63 $167 $170 $171 reversed $39 $-1 #
coedge $-1 $172 $173 $63 $101 forward $174 $-1 #
edge $-1 $175 7.6603877325232617 $176 15.507476672062779 $100 $177 forward 7 unknown #
face $-1 $178 $179 $23 $-1 $180 reversed single #
loop $-1 $-1 $181 $64 #
plane-surface $-1 0 19.244319934816282 0.31421289576767997 0 1 0 0 0 1 forward_v I I I I #
coedge $-1 $182 $183 $184 $185 reversed $65 $-1 #
coedge $-1 $186 $67 $187 $188 reversed $42 $-1 #
coedge $-1 $67 $186 $189 $190 forward $42 $-1 #
coedge $-1 $191 $192 $67 $109 forward $179 $-1 #
edge $-1 $193 -15.507476672062779 $194 -7.6603877325232617 $108 $195 forward 7 unknown #
face $-1 $196 $197 $24 $-1 $198 reversed single #
loop $-1 $-1 $199 $68 #
plane-surface $-1 -165.20143542455745 -1.3432806964146451 68.447460581431955 0 1 0 -0.83867057594974714 0 0.54463902268945019 forward_v I I I I #
coedge $-1 $200 $201 $202 $203 reversed $69 $-1 #
coedge $-1 $115 $71 $204 $205 reversed $45 $-1 #
coedge $-1 $71 $114 $200 $206 reversed $45 $-1 #
coedge $-1 $202 $207 $71 $117 forward $197 $-1 #
edge $-1 $208 25.606517576919373 $209 32.988584637989021 $116 $210 forward 7 unknown #
loop $-1 $-1 $123 $72 #
plane-surface $-1 -61.703543198950157 2.5440521402498106 1.2351456527269704 -0.83867057594974714 0 0.54463902268945019 0.54463902268945019 0 0.83867057594974714 forward_v I I I I #
loop $-1 $-1 $211 $47 #
coedge $-1 $121 $121 $122 $212 reversed $73 $-1 #
coedge $-1 $122 $122 $121 $212 forward $75 $-1 #
coedge $-1 $123 $123 $76 $124 forward $118 $-1 #
edge $-1 $213 0 $213 6.2831853071796004 $123 $214 forward 7 unknown #
face $-1 $215 $216 $26 $-1 $217 forward single #
loop $-1 $-1 $218 $77 #
plane-surface $-1 103.92471670155518 0.1368555653322634 170.47078354694622 0 -1 0 -0.85716730853699208 0 -0.51503806187062418 forward_v I I I I #
coedge $-1 $219 $220 $221 $222 reversed $78 $-1 #
coedge $-1 $130 $80 $223 $224 reversed $51 $-1 #
coedge $-1 $80 $129 $219 $225 reversed $51 $-1 #
coedge $-1 $221 $226 $80 $132 forward $227 $-1 #
edge $-1 $228 76.618179059676507 $229 84.104474928082396 $131 $230 forward 7 unknown #
loop $-1 $-1 $138 $81 #
plane-surface $-1 -1.8558034005250903 -5.4339890468084064 106.91143694747097 0.85716730853699208 0 0.51503806187062418 0.51503806187062418 0 -0.85716730853699208 forward_v I I I I #
loop $-1 $-1 $231 $53 #
coedge $-1 $136 $136 $137 $232 reversed $82 $-1 #
coedge $-1 $137 $137 $136 $232 forward $84 $-1 #
coedge $-1 $138 $138 $85 $139 forward $133 $-1 #
edge $-1 $233 0 $233 6.2831853071796004 $138 $234 forward 7 unknown #
face $-1 $235 $236 $21 $-1 $237 reversed single #
loop $-1 $-1 $238 $86 #
plane-surface $-1 -61.703543198950165 0 0 1 0 0 0 0 -1 forward_v I I I I #
coedge $-1 $239 $151 $240 $241 forward $87 $-1 #
coedge $-1 $242 $89 $239 $243 forward $57 $-1 #
coedge $-1 $89 $242 $244 $245 forward $57 $-1 #
coedge $-1 $154 $153 $89 $147 reversed $155 $-1 #
edge $-1 $246 -27.0914088743558 $247 27.0914088743558 $146 $248 forward 7 unknown #
coedge $-1 $91 $90 $249 $250 forward $36 $-1 #
coedge $-1 $251 $252 $90 $150 reversed $236 $-1 #
edge $-1 $157 -61.703543198950165 $253 61.703543198950165 $149 $254 forward 7 unknown #
coedge $-1 $143 $255 $91 $152 reversed $87 $-1 #
edge $-1 $256 -61.703543198950165 $156 61.703543198950165 $151 $257 forward 7 unknown #
coedge $-1 $146 $92 $255 $258 forward $155 $-1 #
coedge $-1 $92 $146 $251 $259 reversed $155 $-1 #
loop $-1 $-1 $153 $235 #
vertex $-1 $93 $260 #
vertex $-1 $93 $261 #
straight-curve $-1 61.703543198950165 0 8.6172127137966044 0 1 0 I I #
face $-1 $262 $263 $22 $-1 $264 reversed single #
loop $-1 $-1 $265 $94 #
plane-surface $-1 -61.703543198950165 0 0 1 0 0 0 0 -1 forward_v I I I I #
coedge $-1 $266 $168 $173 $267 reversed $95 $-1 #
coedge $-1 $268 $97 $269 $270 reversed $61 $-1 #
coedge $-1 $97 $268 $266 $271 forward $61 $-1 #
coedge $-1 $173 $172 $97 $166 forward $174 $-1 #
edge $-1 $272 -15.507476672062779 $273 -7.6603877325232617 $165 $274 forward 7 unknown #
coedge $-1 $99 $98 $265 $275 reversed $39 $-1 #
coedge $-1 $162 $276 $98 $169 reversed $95 $-1 #
edge $-1 $175 -61.703543198950165 $277 61.703543198950165 $168 $278 forward 7 unknown #
coedge $-1 $279 $280 $99 $171 forward $263 $-1 #
edge $-1 $176 -61.703543198950165 $281 61.703543198950165 $170 $282 forward 7 unknown #
coedge $-1 $165 $100 $280 $283 forward $174 $-1 #
coedge $-1 $100 $165 $162 $267 forward $174 $-1 #
loop $-1 $-1 $100 $262 #
vertex $-1 $101 $284 #
vertex $-1 $283 $285 #
straight-curve $-1 61.703543198950165 -11.58393220229302 2.2846767679764208 0 -1 0 I I #
face $-1 $286 $287 $23 $-1 $288 reversed single #
loop $-1 $-1 $108 $102 #
plane-surface $-1 61.703543198950165 0 0 -1 0 0 0 0 1 forward_v I I I I #
coedge $-1 $289 $189 $290 $291 reversed $103 $-1 #
coedge $-1 $292 $105 $289 $293 forward $65 $-1 #
coedge $-1 $105 $292 $294 $295 reversed $65 $-1 #
coedge $-1 $192 $191 $105 $185 forward $179 $-1 #
edge $-1 $296 7.6603877325232617 $297 15.507476672062779 $184 $298 forward 7 unknown #
coedge $-1 $107 $106 $299 $300 reversed $42 $-1 #
coedge $-1 $301 $302 $106 $188 forward $303 $-1 #
edge $-1 $304 -61.703543198950165 $193 61.703543198950165 $187 $305 forward 7 unknown #
coedge $-1 $181 $306 $107 $190 reversed $103 $-1 #
edge $-1 $307 -61.703543198950165 $194 61.703543198950165 $189 $308 forward 7 unknown #
coedge $-1 $184 $108 $306 $309 forward $179 $-1 #
coedge $-1 $108 $184 $301 $310 reversed $179 $-1 #
vertex $-1 $310 $311 #
vertex $-1 $109 $312 #
straight-curve $-1 61.703543198950165 11.58393220229302 2.2846767679764208 0 -1 0 I I #
face $-1 $-1 $313 $24 $-1 $314 forward single #
loop $-1 $-1 $116 $110 #
plane-surface $-1 -61.703543198950165 0 0 1 0 0 0 0 -1 forward_v I I I I #
coedge $-1 $315 $316 $317 $318 reversed $111 $-1 #
coedge $-1 $319 $113 $115 $206 forward $69 $-1 #
coedge $-1 $113 $319 $315 $320 forward $69 $-1 #
coedge $-1 $317 $116 $113 $203 forward $197 $-1 #
edge $-1 $209 -5.159358906789361 $321 2.6153067665395504 $202 $322 forward 7 unknown #
coedge $-1 $323 $324 $114 $205 forward $313 $-1 #
edge $-1 $325 -25.691144762035442 $208 -20.897174513328558 $204 $326 forward 7 unknown #
edge $-1 $209 -1.2994784570086186e-014 $325 8.8021057048649407 $115 $327 forward 7 unknown #
coedge $-1 $116 $317 $323 $328 reversed $197 $-1 #
vertex $-1 $328 $329 #
vertex $-1 $117 $330 #
straight-curve $-1 -61.703543198950165 6.4313849769142664 34.223730290715977 0 0 -1 I I #
coedge $-1 $211 $211 $-1 $331 reversed $120 $-1 #
edge $-1 $332 0 $332 6.2831853071796004 $121 $333 forward 7 unknown #
vertex $-1 $124 $334 #
ellipse-curve $-1 -59.306558074596722 2.5440521402498106 4.9261791832617838 -0.83867057594974714 0 0.54463902268945019 0.81695853403417529 0 1.2580058639246208 1 I I #
face $-1 $-1 $227 $26 $-1 $335 reversed single #
loop $-1 $-1 $336 $125 #
plane-surface $-1 0 0 8.6172127137966044 0 0 1 1 0 0 forward_v I I I I #
coedge $-1 $337 $338 $339 $340 reversed $126 $-1 #
coedge $-1 $341 $128 $130 $225 forward $78 $-1 #
coedge $-1 $128 $341 $337 $342 forward $78 $-1 #
coedge $-1 $339 $131 $128 $222 forward $227 $-1 #
edge $-1 $229 -8.2878391355448731 $343 2.8538500887364666 $221 $344 forward 7 unknown #
coedge $-1 $345 $346 $129 $224 forward $216 $-1 #
edge $-1 $347 5.24296463345771 $228 9.7411848481725727 $223 $348 forward 7 unknown #
edge $-1 $229 -123.40708639790034 $347 -114.67332369621325 $130 $349 forward 7 unknown #
coedge $-1 $131 $339 $345 $350 reversed $227 $-1 #
loop $-1 $-1 $339 $215 #
vertex $-1 $350 $351 #
vertex $-1 $132 $352 #
straight-curve $-1 61.703543198950165 -11.004833658949076 85.235391773473111 0 0 -1 I I #
coedge $-1 $231 $231 $-1 $353 reversed $135 $-1 #
edge $-1 $354 0 $354 6.2831853071796004 $136 $355 forward 7 unknown #
vertex $-1 $139 $356 #
ellipse-curve $-1 59.45443309159274 -5.4339890468084064 4.87406477959364 0.85716730853699208 0 0.51503806187062418 0.77255709280593621 0 -1.2857509628054882 1 I I #
face $-1 $-1 $155 $21 $-1 $357 reversed single #
loop $-1 $-1 $251 $140 #
plane-surface $-1 0 27.0914088743558 0 0 -1 0 0 0 -1 forward_v I I I I #
coedge $-1 $358 $249 $252 $359 forward $141 $-1 #
coedge $-1 $255 $143 $144 $243 reversed $87 $-1 #
coedge $-1 $249 $358 $143 $241 reversed $141 $-1 #
edge $-1 $256 -8.6172127137966044 $360 8.6172127137966044 $240 $361 forward 7 unknown #
coedge $-1 $145 $144 $358 $362 forward $57 $-1 #
edge $-1 $247 -61.703543198950165 $360 61.703543198950165 $239 $363 forward 7 unknown #
coedge $-1 $252 $251 $145 $245 reversed $236 $-1 #
edge $-1 $364 -61.703543198950165 $246 61.703543198950165 $244 $365 forward 7 unknown #
vertex $-1 $147 $366 #
vertex $-1 $258 $367 #
straight-curve $-1 61.703543198950165 0 -8.6172127137966044 0 -1 0 I I #
coedge $-1 $238 $240 $148 $250 reversed $141 $-1 #
edge $-1 $253 -27.0914088743558 $256 27.0914088743558 $249 $368 forward 7 unknown #
coedge $-1 $244 $149 $154 $259 forward $236 $-1 #
coedge $-1 $149 $244 $238 $359 reversed $236 $-1 #
vertex $-1 $150 $369 #
straight-curve $-1 0 27.0914088743558 8.6172127137966044 -1 0 0 I I #
coedge $-1 $151 $239 $153 $258 reversed $87 $-1 #
vertex $-1 $250 $370 #
straight-curve $-1 0 -27.0914088743558 8.6172127137966044 1 0 0 I I #
edge $-1 $156 -8.6172127137966044 $247 8.6172127137966044 $153 $371 forward 7 unknown #
edge $-1 $157 -8.6172127137966044 $246 8.6172127137966044 $154 $372 forward 7 unknown #
point $-1 61.703543198950165 -27.0914088743558 8.6172127137966044 #
point $-1 61.703543198950165 27.0914088743558 8.6172127137966044 #
face $-1 $-1 $174 $22 $-1 $373 reversed single #
loop $-1 $-1 $170 $159 #
plane-surface $-1 0 -27.0914088743558 0 0 1 0 0 0 1 forward_v I I I I #
coedge $-1 $374 $375 $167 $275 forward $160 $-1 #
coedge $-1 $276 $162 $164 $271 reversed $95 $-1 #
edge $-1 $273 -1.8133574243249009 $175 2.1275703200925808 $173 $376 forward 7 unknown #
coedge $-1 $164 $163 $377 $378 reversed $61 $-1 #
coedge $-1 $280 $279 $163 $270 forward $263 $-1 #
edge $-1 $379 -61.703543198950165 $272 61.703543198950165 $269 $380 forward 7 unknown #
edge $-1 $381 -61.703543198950165 $273 61.703543198950165 $266 $382 forward 7 unknown #
vertex $-1 $270 $383 #
vertex $-1 $166 $384 #
straight-curve $-1 61.703543198950165 -11.58393220229302 -1.6562509764410609 0 1 0 I I #
edge $-1 $281 -15.507476672062779 $277 -7.6603877325232617 $265 $385 forward 7 unknown #
coedge $-1 $168 $266 $374 $386 reversed $95 $-1 #
vertex $-1 $275 $387 #
straight-curve $-1 0 -19.244319934816282 2.2846767679764208 -1 0 0 I I #
coedge $-1 $269 $170 $375 $388 forward $263 $-1 #
coedge $-1 $170 $269 $172 $283 reversed $263 $-1 #
vertex $-1 $388 $389 #
straight-curve $-1 0 -27.0914088743558 2.2846767679764208 -1 0 0 I I #
edge $-1 $176 -2.2846767679764208 $272 1.6562509764410609 $172 $390 forward 7 unknown #
point $-1 61.703543198950165 -19.244319934816282 2.2846767679764208 #
point $-1 61.703543198950165 -27.0914088743558 2.2846767679764208 #
face $-1 $-1 $303 $23 $-1 $391 reversed single #
loop $-1 $-1 $299 $178 #
plane-surface $-1 -61.703543198950165 0 0 1 0 0 0 0 -1 forward_v I I I I #
coedge $-1 $306 $181 $182 $293 reversed $103 $-1 #
coedge $-1 $299 $392 $181 $291 forward $287 $-1 #
edge $-1 $393 -1.8133574243249009 $307 2.1275703200925808 $290 $394 forward 7 unknown #
coedge $-1 $183 $182 $392 $395 reversed $65 $-1 #
edge $-1 $296 -61.703543198950165 $393 61.703543198950165 $289 $396 forward 7 unknown #
coedge $-1 $302 $301 $183 $295 forward $303 $-1 #
edge $-1 $297 -61.703543198950165 $397 61.703543198950165 $294 $398 forward 7 unknown #
vertex $-1 $185 $399 #
vertex $-1 $295 $400 #
straight-curve $-1 61.703543198950165 11.58393220229302 -1.6562509764410609 0 1 0 I I #
coedge $-1 $401 $290 $186 $300 forward $287 $-1 #
edge $-1 $307 7.6603877325232617 $304 15.507476672062779 $299 $402 forward 7 unknown #
coedge $-1 $294 $187 $192 $310 forward $303 $-1 #
coedge $-1 $187 $294 $401 $403 reversed $303 $-1 #
loop $-1 $-1 $187 $286 #
vertex $-1 $403 $404 #
straight-curve $-1 0 27.0914088743558 2.2846767679764208 1 0 0 I I #
coedge $-1 $189 $289 $191 $309 reversed $103 $-1 #
vertex $-1 $300 $405 #
straight-curve $-1 0 19.244319934816282 2.2846767679764208 1 0 0 I I #
edge $-1 $194 -2.1275703200925808 $296 1.8133574243249009 $191 $406 forward 7 unknown #
edge $-1 $193 -2.2846767679764208 $297 1.6562509764410609 $192 $407 forward 7 unknown #
point $-1 61.703543198950165 27.0914088743558 2.2846767679764208 #
point $-1 61.703543198950165 19.244319934816282 2.2846767679764208 #
loop $-1 $-1 $204 $196 #
plane-surface $-1 0 0 8.6172127137966044 0 0 1 1 0 0 forward_v I I I I #
coedge $-1 $316 $199 $201 $320 reversed $111 $-1 #
coedge $-1 $199 $315 $408 $409 reversed $111 $-1 #
coedge $-1 $207 $202 $199 $318 forward $197 $-1 #
edge $-1 $321 -32.988584637989021 $410 -25.606517576919373 $317 $411 forward 7 unknown #
coedge $-1 $201 $200 $324 $412 reversed $69 $-1 #
edge $-1 $413 -8.8021057048649407 $321 1.2994784570086186e-014 $315 $414 forward 7 unknown #
vertex $-1 $203 $415 #
straight-curve $-1 -61.703543198950165 1.2720260701249053 1.2351456527269584 0 -1 0 I I #
coedge $-1 $408 $204 $207 $328 forward $313 $-1 #
coedge $-1 $204 $408 $319 $412 forward $313 $-1 #
vertex $-1 $205 $416 #
straight-curve $-1 -82.600717712278723 6.4313849769142664 8.6172127137966044 -1 0 0 I I #
straight-curve $-1 -61.703543198950157 6.4313849769142664 1.2351456527269704 0.54463902268945019 0 0.83867057594974714 I I #
edge $-1 $208 -6.4313849769142664 $410 1.3432806964146451 $207 $417 forward 7 unknown #
point $-1 -61.703543198950165 6.4313849769142664 8.6172127137966044 #
point $-1 -61.703543198950165 6.4313849769142664 1.2351456527269595 #
edge $-1 $418 1 $418 0 $211 $-1 forward 7 unknown #
vertex $-1 $212 $419 #
ellipse-curve $-1 -55.541255572123404 2.5440521402498106 2.4809632261443277 -0.83867057594974714 0 0.54463902268945019 0.81695853403417529 0 1.2580058639246208 1 I I #
point $-1 -58.489599540562544 2.5440521402498106 6.1841850471864053 #
plane-surface $-1 61.703543198950165 0 0 -1 0 0 0 0 1 forward_v I I I I #
coedge $-1 $346 $345 $338 $420 forward $216 $-1 #
coedge $-1 $338 $218 $220 $342 reversed $126 $-1 #
coedge $-1 $218 $337 $336 $420 reversed $126 $-1 #
coedge $-1 $226 $221 $218 $340 forward $227 $-1 #
edge $-1 $343 -84.104474928082396 $421 -76.618179059676507 $339 $422 forward 7 unknown #
coedge $-1 $220 $219 $346 $423 reversed $78 $-1 #
edge $-1 $424 114.67332369621325 $343 123.40708639790034 $337 $425 forward 7 unknown #
vertex $-1 $222 $426 #
straight-curve $-1 61.703543198950172 -2.7169945234042032 1.1309168453906935 0 1 0 I I #
coedge $-1 $336 $223 $226 $350 forward $216 $-1 #
coedge $-1 $223 $336 $341 $423 forward $216 $-1 #
vertex $-1 $224 $427 #
straight-curve $-1 51.962358350777592 -11.004833658949076 8.6172127137966044 1 0 0 I I #
straight-curve $-1 -1.8558034005250903 -11.004833658949076 106.91143694747097 -0.51503806187062418 0 0.85716730853699208 I I #
edge $-1 $228 -11.004833658949076 $421 0.1368555653322634 $226 $428 forward 7 unknown #
point $-1 61.703543198950165 -11.004833658949076 8.6172127137966044 #
point $-1 61.703543198950165 -11.004833658949076 1.1309168453907148 #
edge $-1 $429 1 $429 0 $231 $-1 forward 7 unknown #
vertex $-1 $232 $430 #
ellipse-curve $-1 58.104408314368001 -5.4339890468084064 4.0628880841992352 0.85716730853699208 0 0.51503806187062418 0.77255709280593621 0 -1.2857509628054882 1 I I #
point $-1 60.226990184398666 -5.4339890468084064 3.5883138167881441 #
plane-surface $-1 61.703543198950165 0 0 -1 0 0 0 0 1 forward_v I I I I #
coedge $-1 $240 $238 $242 $362 reversed $141 $-1 #
edge $-1 $253 -8.6172127137966044 $364 8.6172127137966044 $252 $431 forward 7 unknown #
vertex $-1 $362 $432 #
straight-curve $-1 -61.703543198950165 -27.0914088743558 0 0 0 -1 I I #
edge $-1 $360 -27.0914088743558 $364 27.0914088743558 $358 $433 forward 7 unknown #
straight-curve $-1 0 -27.0914088743558 -8.6172127137966044 -1 0 0 I I #
vertex $-1 $245 $434 #
straight-curve $-1 0 27.0914088743558 -8.6172127137966044 1 0 0 I I #
point $-1 61.703543198950165 27.0914088743558 -8.6172127137966044 #
point $-1 61.703543198950165 -27.0914088743558 -8.6172127137966044 #
straight-curve $-1 -61.703543198950165 0 8.6172127137966044 0 -1 0 I I #
point $-1 -61.703543198950165 27.0914088743558 8.6172127137966044 #
point $-1 -61.703543198950165 -27.0914088743558 8.6172127137966044 #
straight-curve $-1 61.703543198950165 -27.0914088743558 0 0 0 -1 I I #
straight-curve $-1 61.703543198950165 27.0914088743558 0 0 0 -1 I I #
plane-surface $-1 61.703543198950165 0 0 -1 0 0 0 0 1 forward_v I I I I #
coedge $-1 $377 $265 $276 $386 forward $160 $-1 #
coedge $-1 $265 $377 $279 $388 reversed $160 $-1 #
straight-curve $-1 61.703543198950165 -19.244319934816282 0.15710644788383998 0 0 1 I I #
coedge $-1 $375 $374 $268 $378 forward $160 $-1 #
edge $-1 $381 7.6603877325232617 $379 15.507476672062779 $377 $435 forward 7 unknown #
vertex $-1 $270 $436 #
straight-curve $-1 0 -27.0914088743558 -1.6562509764410609 1 0 0 I I #
vertex $-1 $378 $437 #
straight-curve $-1 0 -19.244319934816282 -1.6562509764410609 1 0 0 I I #
point $-1 61.703543198950165 -27.0914088743558 -1.6562509764410609 #
point $-1 61.703543198950165 -19.244319934816282 -1.6562509764410609 #
straight-curve $-1 -61.703543198950165 -11.58393220229302 2.2846767679764208 0 1 0 I I #
edge $-1 $277 -2.1275703200925808 $381 1.8133574243249009 $374 $438 forward 7 unknown #
point $-1 -61.703543198950165 -19.244319934816282 2.2846767679764208 #
edge $-1 $281 -2.2846767679764208 $379 1.6562509764410609 $375 $439 forward 7 unknown #
point $-1 -61.703543198950165 -27.0914088743558 2.2846767679764208 #
straight-curve $-1 61.703543198950165 -27.0914088743558 0 0 0 -1 I I #
plane-surface $-1 0 27.0914088743558 0 0 -1 0 0 0 -1 forward_v I I I I #
coedge $-1 $290 $401 $292 $395 forward $287 $-1 #
vertex $-1 $395 $440 #
straight-curve $-1 -61.703543198950165 19.244319934816282 0.15710644788383998 0 0 1 I I #
edge $-1 $397 -15.507476672062779 $393 -7.6603877325232617 $392 $441 forward 7 unknown #
straight-curve $-1 0 19.244319934816282 -1.6562509764410609 -1 0 0 I I #
vertex $-1 $295 $442 #
straight-curve $-1 0 27.0914088743558 -1.6562509764410609 -1 0 0 I I #
point $-1 61.703543198950165 19.244319934816282 -1.6562509764410609 #
point $-1 61.703543198950165 27.0914088743558 -1.6562509764410609 #
coedge $-1 $392 $299 $302 $403 forward $287 $-1 #
straight-curve $-1 -61.703543198950165 11.58393220229302 2.2846767679764208 0 1 0 I I #
edge $-1 $304 -2.2846767679764208 $397 1.6562509764410609 $302 $443 forward 7 unknown #
point $-1 -61.703543198950165 27.0914088743558 2.2846767679764208 #
point $-1 -61.703543198950165 19.244319934816282 2.2846767679764208 #
straight-curve $-1 61.703543198950165 19.244319934816282 0.15710644788383998 0 0 -1 I I #
straight-curve $-1 61.703543198950165 27.0914088743558 0 0 0 -1 I I #
coedge $-1 $324 $323 $316 $409 forward $313 $-1 #
edge $-1 $410 20.897174513328558 $413 25.691144762035442 $408 $444 forward 7 unknown #
vertex $-1 $409 $445 #
straight-curve $-1 -61.703543198950165 -1.3432806964146451 34.223730290715977 0 0 1 I I #
edge $-1 $413 -2.6153067665395504 $325 5.159358906789361 $324 $446 forward 7 unknown #
vertex $-1 $412 $447 #
straight-curve $-1 -61.703543198950157 -1.3432806964146451 1.2351456527269704 -0.54463902268945019 0 -0.83867057594974714 I I #
point $-1 -61.703543198950165 -1.3432806964146451 1.2351456527269595 #
point $-1 -56.90957295024328 6.4313849769142664 8.6172127137966044 #
straight-curve $-1 -61.703543198950165 0 8.6172127137966044 0 -1 0 I I #
vertex $-1 $331 $448 #
point $-1 -54.724297038089226 2.5440521402498106 3.7389690900689483 #
edge $-1 $421 -9.7411848481725727 $424 -5.24296463345771 $336 $449 forward 7 unknown #
vertex $-1 $340 $450 #
straight-curve $-1 61.703543198950165 0.1368555653322634 85.235391773473111 0 0 1 I I #
edge $-1 $424 -2.8538500887364666 $347 8.2878391355448731 $346 $451 forward 7 unknown #
vertex $-1 $423 $452 #
straight-curve $-1 -1.8558034005250903 0.1368555653322634 106.91143694747097 0.51503806187062418 0 -0.85716730853699208 I I #
point $-1 61.703543198950165 0.1368555653322634 1.1309168453907148 #
point $-1 57.205322984235302 -11.004833658949076 8.6172127137966044 #
straight-curve $-1 61.703543198950165 0 8.6172127137966044 0 1 0 I I #
vertex $-1 $353 $453 #
point $-1 58.876965407173934 -5.4339890468084064 2.7771371213937472 #
straight-curve $-1 -61.703543198950165 27.0914088743558 0 0 0 -1 I I #
point $-1 -61.703543198950165 -27.0914088743558 -8.6172127137966044 #
straight-curve $-1 -61.703543198950165 0 -8.6172127137966044 0 1 0 I I #
point $-1 -61.703543198950165 27.0914088743558 -8.6172127137966044 #
straight-curve $-1 -61.703543198950165 -11.58393220229302 -1.6562509764410609 0 -1 0 I I #
point $-1 -61.703543198950165 -27.0914088743558 -1.6562509764410609 #
point $-1 -61.703543198950165 -19.244319934816282 -1.6562509764410609 #
straight-curve $-1 -61.703543198950165 -19.244319934816282 0.15710644788383998 0 0 -1 I I #
straight-curve $-1 -61.703543198950165 -27.0914088743558 0 0 0 -1 I I #
point $-1 -61.703543198950165 19.244319934816282 -1.6562509764410609 #
straight-curve $-1 -61.703543198950165 11.58393220229302 -1.6562509764410609 0 -1 0 I I #
point $-1 -61.703543198950165 27.0914088743558 -1.6562509764410609 #
straight-curve $-1 -61.703543198950165 27.0914088743558 0 0 0 -1 I I #
straight-curve $-1 -82.600717712278723 -1.3432806964146451 8.6172127137966044 1 0 0 I I #
point $-1 -61.703543198950165 -1.3432806964146451 8.6172127137966044 #
straight-curve $-1 -56.909572950243287 1.2720260701249053 8.6172127137966044 0 1 0 I I #
point $-1 -56.90957295024328 -1.3432806964146451 8.6172127137966044 #
point $-1 -54.283249708198781 2.5440521402498106 1.6640046921101523 #
straight-curve $-1 51.962358350777592 0.1368555653322634 8.6172127137966044 -1 0 0 I I #
point $-1 61.703543198950165 0.1368555653322634 8.6172127137966044 #
straight-curve $-1 57.205322984235295 -2.7169945234042032 8.6172127137966044 0 -1 0 I I #
point $-1 57.205322984235302 0.1368555653322634 8.6172127137966044 #
point $-1 56.818657351562507 -5.4339890468084064 3.290330991393299 #
End-of-ACIS-data 