500 0 9 0           
7 Unknown 11 ACIS 5.0 NT 24 Fri Mar 26 19:51:57 1999 
-1 9.9999999999999995e-007 1e-010 
body $-1 $9 $-1 $10 #
body $-1 $11 $-1 $12 #
body $-1 $13 $-1 $14 #
body $-1 $15 $-1 $16 #
body $-1 $17 $-1 $18 #
body $-1 $19 $-1 $20 #
body $-1 $21 $-1 $22 #
body $-1 $23 $-1 $24 #
body $-1 $25 $-1 $26 #
lump $-1 $-1 $27 $0 #
transform $-1 1 0 0 0 1 0 0 0 1 57.854548783837402 25.629245531378224 11.352519165365454 1 rotate no_reflect no_shear #
lump $-1 $-1 $28 $1 #
transform $-1 1 0 0 0 1 0 0 0 1 57.854548783837402 4.8632450093672004 18.746570878865757 1 rotate no_reflect no_shear #
lump $-1 $-1 $29 $2 #
transform $-1 1 0 0 0 1 0 0 0 1 57.854548783837402 58.401067756032447 1.7402437975925211 1 rotate no_reflect no_shear #
lump $-1 $-1 $30 $3 #
transform $-1 0.7313536940579346 0 -0.68199836817093118 0 1 0 0.68199836817093118 0 0.7313536940579346 109.99823734913113 33.535036864791323 180.72680348026717 1 rotate no_reflect no_shear #
lump $-1 $-1 $31 $4 #
transform $-1 0.7313536940579346 0 -0.68199836817093118 0 -1 0 -0.68199836817093118 0 -0.7313536940579346 110.26787079367885 33.535036864791323 17.283661557875121 1 rotate no_reflect no_shear #
lump $-1 $-1 $32 $5 #
transform $-1 0.55919289150049634 0 0.82903758062907751 0 1 0 -0.82903758062907751 0 0.55919289150049634 -95.927190304279009 33.129280187195647 82.394982333668466 1 rotate no_reflect no_shear #
lump $-1 $-1 $33 $6 #
transform $-1 0.55919289150049634 0 0.82903758062907751 0 -1 0 0.82903758062907751 0 -0.55919289150049634 2.7272091167278081 30.822845693790367 19.499166796933505 1 rotate no_reflect no_shear #
lump $-1 $-1 $34 $7 #
transform $-1 0.55919289150049634 0 0.82903758062907751 0 -1 0 0.82903758062907751 0 -0.55919289150049634 2.7272091167278081 33.129280187195647 19.499166796933505 1 rotate no_reflect no_shear #
lump $-1 $-1 $35 $8 #
transform $-1 0.55919289150049634 0 0.82903758062907751 0 -1 0 0.82903758062907751 0 -0.55919289150049634 2.7272091167278081 35.435714680600931 19.499166796933505 1 rotate no_reflect no_shear #
shell $-1 $-1 $-1 $36 $-1 $9 #
shell $-1 $-1 $-1 $37 $-1 $11 #
shell $-1 $-1 $-1 $38 $-1 $13 #
shell $-1 $-1 $-1 $39 $-1 $15 #
shell $-1 $-1 $-1 $40 $-1 $17 #
shell $-1 $-1 $-1 $41 $-1 $19 #
shell $-1 $-1 $-1 $42 $-1 $21 #
shell $-1 $-1 $-1 $43 $-1 $23 #
shell $-1 $-1 $-1 $44 $-1 $25 #
face $-1 $45 $46 $27 $-1 $47 forward single #
face $-1 $48 $49 $28 $-1 $50 forward single #
face $-1 $51 $52 $29 $-1 $53 forward single #
face $-1 $54 $55 $30 $-1 $56 forward single #
face $-1 $57 $58 $31 $-1 $59 forward single #
face $-1 $60 $61 $32 $-1 $62 forward single #
face $-1 $63 $64 $33 $-1 $65 forward single #
face $-1 $66 $67 $34 $-1 $68 forward single #
face $-1 $69 $70 $35 $-1 $71 forward single #
face $-1 $72 $73 $27 $-1 $74 reversed single #
loop $-1 $-1 $75 $36 #
plane-surface $-1 0 0 11.352519165365454 0 0 1 1 0 0 forward_v I I I I #
face $-1 $76 $77 $28 $-1 $78 reversed single #
loop $-1 $-1 $79 $37 #
plane-surface $-1 0 0 3.1063433205587963 0 0 1 1 0 0 forward_v I I I I #
face $-1 $80 $81 $29 $-1 $82 reversed single #
loop $-1 $-1 $83 $38 #
plane-surface $-1 0 0 1.7402437975925211 0 0 1 1 0 0 forward_v I I I I #
face $-1 $84 $85 $30 $-1 $86 reversed single #
loop $-1 $-1 $87 $39 #
plane-surface $-1 0 0 115.7090975676748 0 0 1 1 0 0 forward_v I I I I #
face $-1 $88 $89 $31 $-1 $90 forward single #
loop $-1 $91 $92 $40 #
cone-surface $-1 0 0 -2.0708792382580032 0 0 1 1 0 0 1 I I 0 1 1 forward I I I I #
face $-1 $93 $94 $32 $-1 $95 reversed single #
loop $-1 $-1 $96 $41 #
plane-surface $-1 0 0 115.7090975676748 0 0 1 1 0 0 forward_v I I I I #
face $-1 $97 $98 $33 $-1 $99 forward single #
loop $-1 $100 $101 $42 #
cone-surface $-1 0 0 -0.75 0 0 1 0.5 0 0 1 I I 0 1 0.5 forward I I I I #
face $-1 $102 $103 $34 $-1 $104 forward single #
loop $-1 $105 $106 $43 #
cone-surface $-1 0 0 -0.75 0 0 1 0.5 0 0 1 I I 0 1 0.5 forward I I I I #
face $-1 $107 $108 $35 $-1 $109 forward single #
loop $-1 $110 $111 $44 #
cone-surface $-1 0 0 -0.75 0 0 1 0.5 0 0 1 I I 0 1 0.5 forward I I I I #
face $-1 $112 $113 $27 $-1 $114 reversed single #
loop $-1 $-1 $115 $45 #
plane-surface $-1 0 0 -11.352519165365454 0 0 1 1 0 0 forward_v I I I I #
coedge $-1 $116 $117 $118 $119 forward $46 $-1 #
face $-1 $120 $121 $28 $-1 $122 reversed single #
loop $-1 $-1 $123 $48 #
plane-surface $-1 0 0 -3.1063433205587963 0 0 1 1 0 0 forward_v I I I I #
coedge $-1 $124 $125 $126 $127 forward $49 $-1 #
face $-1 $128 $129 $29 $-1 $130 reversed single #
loop $-1 $-1 $131 $51 #
plane-surface $-1 0 0 -1.7402437975925211 0 0 1 1 0 0 forward_v I I I I #
coedge $-1 $132 $133 $134 $135 forward $52 $-1 #
face $-1 $136 $137 $30 $-1 $138 reversed single #
loop $-1 $-1 $139 $54 #
plane-surface $-1 0 0 -115.7090975676748 0 0 1 1 0 0 forward_v I I I I #
coedge $-1 $140 $141 $142 $143 forward $55 $-1 #
face $-1 $-1 $144 $31 $-1 $145 forward single #
loop $-1 $-1 $146 $57 #
plane-surface $-1 0 0 -3.6417584765160065 0 0 -1 -1 0 0 forward_v I I I I #
loop $-1 $-1 $147 $40 #
coedge $-1 $92 $92 $146 $148 reversed $58 $-1 #
face $-1 $149 $150 $32 $-1 $151 reversed single #
loop $-1 $-1 $152 $60 #
plane-surface $-1 0 0 -115.7090975676748 0 0 1 1 0 0 forward_v I I I I #
coedge $-1 $153 $154 $155 $156 forward $61 $-1 #
face $-1 $-1 $157 $33 $-1 $158 forward single #
loop $-1 $-1 $159 $63 #
plane-surface $-1 0 0 -1.25 0 0 -1 -1 0 0 forward_v I I I I #
loop $-1 $-1 $160 $42 #
coedge $-1 $101 $101 $159 $161 reversed $64 $-1 #
face $-1 $-1 $162 $34 $-1 $163 forward single #
loop $-1 $-1 $164 $66 #
plane-surface $-1 0 0 -1.25 0 0 -1 -1 0 0 forward_v I I I I #
loop $-1 $-1 $165 $43 #
coedge $-1 $106 $106 $164 $166 reversed $67 $-1 #
face $-1 $-1 $167 $35 $-1 $168 forward single #
loop $-1 $-1 $169 $69 #
plane-surface $-1 0 0 -1.25 0 0 -1 -1 0 0 forward_v I I I I #
loop $-1 $-1 $170 $44 #
coedge $-1 $111 $111 $169 $171 reversed $70 $-1 #
face $-1 $172 $173 $27 $-1 $174 reversed single #
loop $-1 $-1 $175 $72 #
plane-surface $-1 0 -25.629245531378224 0 0 1 0 0 0 1 forward_v I I I I #
coedge $-1 $176 $177 $178 $179 forward $73 $-1 #
coedge $-1 $180 $75 $181 $182 forward $46 $-1 #
coedge $-1 $75 $180 $183 $184 forward $46 $-1 #
coedge $-1 $185 $186 $75 $119 reversed $187 $-1 #
edge $-1 $188 -25.629245531378224 $189 25.629245531378224 $118 $190 forward 7 unknown #
face $-1 $191 $192 $28 $-1 $193 reversed single #
loop $-1 $-1 $194 $76 #
plane-surface $-1 0 -4.8632450093672004 0 0 1 0 0 0 1 forward_v I I I I #
coedge $-1 $195 $196 $197 $198 forward $77 $-1 #
coedge $-1 $199 $79 $200 $201 forward $49 $-1 #
coedge $-1 $79 $199 $202 $203 forward $49 $-1 #
coedge $-1 $204 $205 $79 $127 reversed $206 $-1 #
edge $-1 $207 -4.8632450093672004 $208 4.8632450093672004 $126 $209 forward 7 unknown #
face $-1 $210 $211 $29 $-1 $212 reversed single #
loop $-1 $-1 $213 $80 #
plane-surface $-1 0 -7.1425766932759984 0 0 1 0 0 0 1 forward_v I I I I #
coedge $-1 $214 $215 $216 $217 forward $81 $-1 #
coedge $-1 $218 $83 $219 $220 forward $52 $-1 #
coedge $-1 $83 $218 $221 $222 forward $52 $-1 #
coedge $-1 $223 $224 $83 $135 reversed $225 $-1 #
edge $-1 $226 -7.1425766932759984 $227 7.1425766932759984 $134 $228 forward 7 unknown #
face $-1 $229 $230 $30 $-1 $231 reversed single #
loop $-1 $-1 $232 $84 #
plane-surface $-1 0 -3.4383008114131322 0 0 1 0 0 0 1 forward_v I I I I #
coedge $-1 $233 $234 $235 $236 forward $85 $-1 #
coedge $-1 $237 $87 $238 $239 forward $55 $-1 #
coedge $-1 $87 $237 $240 $241 forward $55 $-1 #
coedge $-1 $242 $243 $87 $143 reversed $244 $-1 #
edge $-1 $245 -3.4383008114131322 $246 3.4383008114131322 $142 $247 forward 7 unknown #
loop $-1 $248 $249 $88 #
cone-surface $-1 0 0 0 0 0 1 0.5 0 0 1 I I -0.70710678118654746 0.70710678118654746 0.5 forward I I I I #
coedge $-1 $146 $146 $92 $148 forward $89 $-1 #
coedge $-1 $147 $147 $249 $250 forward $91 $-1 #
edge $-1 $251 0 $251 6.2831853071796004 $146 $252 forward 7 unknown #
face $-1 $253 $254 $32 $-1 $255 reversed single #
loop $-1 $-1 $256 $93 #
plane-surface $-1 0 -3.8440574890088079 0 0 1 0 0 0 1 forward_v I I I I #
coedge $-1 $257 $258 $259 $260 forward $94 $-1 #
coedge $-1 $261 $96 $262 $263 forward $61 $-1 #
coedge $-1 $96 $261 $264 $265 forward $61 $-1 #
coedge $-1 $266 $267 $96 $156 reversed $268 $-1 #
edge $-1 $269 -3.8440574890088079 $270 3.8440574890088079 $155 $271 forward 7 unknown #
loop $-1 $272 $273 $97 #
cone-surface $-1 0 0 0 0 0 1 0.25 0 0 1 I I -0.70710678118654746 0.70710678118654746 0.25 forward I I I I #
coedge $-1 $159 $159 $101 $161 forward $98 $-1 #
coedge $-1 $160 $160 $273 $274 forward $100 $-1 #
edge $-1 $275 0 $275 6.2831853071796004 $159 $276 forward 7 unknown #
loop $-1 $277 $278 $102 #
cone-surface $-1 0 0 0 0 0 1 0.25 0 0 1 I I -0.70710678118654746 0.70710678118654746 0.25 forward I I I I #
coedge $-1 $164 $164 $106 $166 forward $103 $-1 #
coedge $-1 $165 $165 $278 $279 forward $105 $-1 #
edge $-1 $280 0 $280 6.2831853071796004 $164 $281 forward 7 unknown #
loop $-1 $282 $283 $107 #
cone-surface $-1 0 0 0 0 0 1 0.25 0 0 1 I I -0.70710678118654746 0.70710678118654746 0.25 forward I I I I #
coedge $-1 $169 $169 $111 $171 forward $108 $-1 #
coedge $-1 $170 $170 $283 $284 forward $110 $-1 #
edge $-1 $285 0 $285 6.2831853071796004 $169 $286 forward 7 unknown #
face $-1 $287 $288 $27 $-1 $289 reversed single #
loop $-1 $-1 $290 $112 #
plane-surface $-1 -57.854548783837402 0 0 1 0 0 0 0 -1 forward_v I I I I #
coedge $-1 $291 $183 $292 $293 forward $113 $-1 #
coedge $-1 $294 $115 $291 $295 forward $73 $-1 #
coedge $-1 $115 $294 $296 $297 forward $73 $-1 #
coedge $-1 $186 $185 $115 $179 reversed $187 $-1 #
edge $-1 $298 -25.629245531378224 $299 25.629245531378224 $178 $300 forward 7 unknown #
coedge $-1 $117 $116 $301 $302 forward $46 $-1 #
coedge $-1 $303 $304 $116 $182 reversed $288 $-1 #
edge $-1 $189 -57.854548783837402 $305 57.854548783837402 $181 $306 forward 7 unknown #
coedge $-1 $175 $307 $117 $184 reversed $113 $-1 #
edge $-1 $308 -57.854548783837402 $188 57.854548783837402 $183 $309 forward 7 unknown #
coedge $-1 $178 $118 $307 $310 forward $187 $-1 #
coedge $-1 $118 $178 $303 $311 reversed $187 $-1 #
loop $-1 $-1 $185 $287 #
vertex $-1 $119 $312 #
vertex $-1 $119 $313 #
straight-curve $-1 57.854548783837402 0 11.352519165365454 0 1 0 I I #
face $-1 $314 $315 $28 $-1 $316 reversed single #
loop $-1 $-1 $317 $120 #
plane-surface $-1 -57.854548783837402 0 0 1 0 0 0 0 -1 forward_v I I I I #
coedge $-1 $318 $202 $319 $320 forward $121 $-1 #
coedge $-1 $321 $123 $318 $322 forward $77 $-1 #
coedge $-1 $123 $321 $323 $324 forward $77 $-1 #
coedge $-1 $205 $204 $123 $198 reversed $206 $-1 #
edge $-1 $325 -4.8632450093672004 $326 4.8632450093672004 $197 $327 forward 7 unknown #
coedge $-1 $125 $124 $328 $329 forward $49 $-1 #
coedge $-1 $330 $331 $124 $201 reversed $315 $-1 #
edge $-1 $208 -57.854548783837402 $332 57.854548783837402 $200 $333 forward 7 unknown #
coedge $-1 $194 $334 $125 $203 reversed $121 $-1 #
edge $-1 $335 -57.854548783837402 $207 57.854548783837402 $202 $336 forward 7 unknown #
coedge $-1 $197 $126 $334 $337 forward $206 $-1 #
coedge $-1 $126 $197 $330 $338 reversed $206 $-1 #
loop $-1 $-1 $204 $314 #
vertex $-1 $127 $339 #
vertex $-1 $127 $340 #
straight-curve $-1 57.854548783837402 0 3.1063433205587963 0 1 0 I I #
face $-1 $341 $342 $29 $-1 $343 reversed single #
loop $-1 $-1 $344 $128 #
plane-surface $-1 -57.854548783837402 0 0 1 0 0 0 0 -1 forward_v I I I I #
coedge $-1 $345 $221 $346 $347 forward $129 $-1 #
coedge $-1 $348 $131 $345 $349 forward $81 $-1 #
coedge $-1 $131 $348 $350 $351 forward $81 $-1 #
coedge $-1 $224 $223 $131 $217 reversed $225 $-1 #
edge $-1 $352 -7.1425766932759984 $353 7.1425766932759984 $216 $354 forward 7 unknown #
coedge $-1 $133 $132 $355 $356 forward $52 $-1 #
coedge $-1 $357 $358 $132 $220 reversed $342 $-1 #
edge $-1 $227 -57.854548783837402 $359 57.854548783837402 $219 $360 forward 7 unknown #
coedge $-1 $213 $361 $133 $222 reversed $129 $-1 #
edge $-1 $362 -57.854548783837402 $226 57.854548783837402 $221 $363 forward 7 unknown #
coedge $-1 $216 $134 $361 $364 forward $225 $-1 #
coedge $-1 $134 $216 $357 $365 reversed $225 $-1 #
loop $-1 $-1 $223 $341 #
vertex $-1 $135 $366 #
vertex $-1 $135 $367 #
straight-curve $-1 57.854548783837402 0 1.7402437975925211 0 1 0 I I #
face $-1 $368 $369 $30 $-1 $370 reversed single #
loop $-1 $-1 $371 $136 #
plane-surface $-1 -231.41819513534961 0 0 1 0 0 0 0 -1 forward_v I I I I #
coedge $-1 $372 $240 $373 $374 forward $137 $-1 #
coedge $-1 $375 $139 $372 $376 forward $85 $-1 #
coedge $-1 $139 $375 $377 $378 forward $85 $-1 #
coedge $-1 $243 $242 $139 $236 reversed $244 $-1 #
edge $-1 $379 -3.4383008114131322 $380 3.4383008114131322 $235 $381 forward 7 unknown #
coedge $-1 $141 $140 $382 $383 forward $55 $-1 #
coedge $-1 $384 $385 $140 $239 reversed $369 $-1 #
edge $-1 $246 -231.41819513534961 $386 231.41819513534961 $238 $387 forward 7 unknown #
coedge $-1 $232 $388 $141 $241 reversed $137 $-1 #
edge $-1 $389 -231.41819513534961 $245 231.41819513534961 $240 $390 forward 7 unknown #
coedge $-1 $235 $142 $388 $391 forward $244 $-1 #
coedge $-1 $142 $235 $384 $392 reversed $244 $-1 #
loop $-1 $-1 $242 $368 #
vertex $-1 $143 $393 #
vertex $-1 $143 $394 #
straight-curve $-1 231.41819513534961 0 115.7090975676748 0 1 0 I I #
loop $-1 $-1 $395 $88 #
coedge $-1 $249 $249 $147 $250 reversed $144 $-1 #
edge $-1 $396 0 $396 6.2831853071796004 $249 $397 forward 7 unknown #
vertex $-1 $148 $398 #
ellipse-curve $-1 0 0 -3.6417584765160065 0 0 -1 1 0 0 1 I I #
face $-1 $399 $400 $32 $-1 $401 reversed single #
loop $-1 $-1 $402 $149 #
plane-surface $-1 -231.41819513534961 0 0 1 0 0 0 0 -1 forward_v I I I I #
coedge $-1 $403 $264 $404 $405 forward $150 $-1 #
coedge $-1 $406 $152 $403 $407 forward $94 $-1 #
coedge $-1 $152 $406 $408 $409 forward $94 $-1 #
coedge $-1 $267 $266 $152 $260 reversed $268 $-1 #
edge $-1 $410 -3.8440574890088079 $411 3.8440574890088079 $259 $412 forward 7 unknown #
coedge $-1 $154 $153 $413 $414 forward $61 $-1 #
coedge $-1 $415 $416 $153 $263 reversed $400 $-1 #
edge $-1 $270 -231.41819513534961 $417 231.41819513534961 $262 $418 forward 7 unknown #
coedge $-1 $256 $419 $154 $265 reversed $150 $-1 #
edge $-1 $420 -231.41819513534961 $269 231.41819513534961 $264 $421 forward 7 unknown #
coedge $-1 $259 $155 $419 $422 forward $268 $-1 #
coedge $-1 $155 $259 $415 $423 reversed $268 $-1 #
loop $-1 $-1 $266 $399 #
vertex $-1 $156 $424 #
vertex $-1 $156 $425 #
straight-curve $-1 231.41819513534961 0 115.7090975676748 0 1 0 I I #
loop $-1 $-1 $426 $97 #
coedge $-1 $273 $273 $160 $274 reversed $157 $-1 #
edge $-1 $427 0 $427 6.2831853071796004 $273 $428 forward 7 unknown #
vertex $-1 $161 $429 #
ellipse-curve $-1 0 0 -1.25 0 0 -1 0.5 0 0 1 I I #
loop $-1 $-1 $430 $102 #
coedge $-1 $278 $278 $165 $279 reversed $162 $-1 #
edge $-1 $431 0 $431 6.2831853071796004 $278 $432 forward 7 unknown #
vertex $-1 $166 $433 #
ellipse-curve $-1 0 0 -1.25 0 0 -1 0.5 0 0 1 I I #
loop $-1 $-1 $434 $107 #
coedge $-1 $283 $283 $170 $284 reversed $167 $-1 #
edge $-1 $435 0 $435 6.2831853071796004 $283 $436 forward 7 unknown #
vertex $-1 $171 $437 #
ellipse-curve $-1 0 0 -1.25 0 0 -1 0.5 0 0 1 I I #
face $-1 $-1 $187 $27 $-1 $438 reversed single #
loop $-1 $-1 $303 $172 #
plane-surface $-1 0 25.629245531378224 0 0 -1 0 0 0 -1 forward_v I I I I #
coedge $-1 $439 $301 $304 $440 forward $173 $-1 #
coedge $-1 $307 $175 $176 $295 reversed $113 $-1 #
coedge $-1 $301 $439 $175 $293 reversed $173 $-1 #
edge $-1 $308 -11.352519165365454 $441 11.352519165365454 $292 $442 forward 7 unknown #
coedge $-1 $177 $176 $439 $443 forward $73 $-1 #
edge $-1 $299 -57.854548783837402 $441 57.854548783837402 $291 $444 forward 7 unknown #
coedge $-1 $304 $303 $177 $297 reversed $288 $-1 #
edge $-1 $445 -57.854548783837402 $298 57.854548783837402 $296 $446 forward 7 unknown #
vertex $-1 $179 $447 #
vertex $-1 $310 $448 #
straight-curve $-1 57.854548783837402 0 -11.352519165365454 0 -1 0 I I #
coedge $-1 $290 $292 $180 $302 reversed $173 $-1 #
edge $-1 $305 -25.629245531378224 $308 25.629245531378224 $301 $449 forward 7 unknown #
coedge $-1 $296 $181 $186 $311 forward $288 $-1 #
coedge $-1 $181 $296 $290 $440 reversed $288 $-1 #
vertex $-1 $182 $450 #
straight-curve $-1 0 25.629245531378224 11.352519165365454 -1 0 0 I I #
coedge $-1 $183 $291 $185 $310 reversed $113 $-1 #
vertex $-1 $302 $451 #
straight-curve $-1 0 -25.629245531378224 11.352519165365454 1 0 0 I I #
edge $-1 $188 -11.352519165365454 $299 11.352519165365454 $185 $452 forward 7 unknown #
edge $-1 $189 -11.352519165365454 $298 11.352519165365454 $186 $453 forward 7 unknown #
point $-1 57.854548783837402 -25.629245531378224 11.352519165365454 #
point $-1 57.854548783837402 25.629245531378224 11.352519165365454 #
face $-1 $-1 $206 $28 $-1 $454 reversed single #
loop $-1 $-1 $330 $191 #
plane-surface $-1 0 4.8632450093672004 0 0 -1 0 0 0 -1 forward_v I I I I #
coedge $-1 $455 $328 $331 $456 forward $192 $-1 #
coedge $-1 $334 $194 $195 $322 reversed $121 $-1 #
coedge $-1 $328 $455 $194 $320 reversed $192 $-1 #
edge $-1 $335 -3.1063433205587963 $457 3.1063433205587963 $319 $458 forward 7 unknown #
coedge $-1 $196 $195 $455 $459 forward $77 $-1 #
edge $-1 $326 -57.854548783837402 $457 57.854548783837402 $318 $460 forward 7 unknown #
coedge $-1 $331 $330 $196 $324 reversed $315 $-1 #
edge $-1 $461 -57.854548783837402 $325 57.854548783837402 $323 $462 forward 7 unknown #
vertex $-1 $198 $463 #
vertex $-1 $337 $464 #
straight-curve $-1 57.854548783837402 0 -3.1063433205587963 0 -1 0 I I #
coedge $-1 $317 $319 $199 $329 reversed $192 $-1 #
edge $-1 $332 -4.8632450093672004 $335 4.8632450093672004 $328 $465 forward 7 unknown #
coedge $-1 $323 $200 $205 $338 forward $315 $-1 #
coedge $-1 $200 $323 $317 $456 reversed $315 $-1 #
vertex $-1 $201 $466 #
straight-curve $-1 0 4.8632450093672004 3.1063433205587963 -1 0 0 I I #
coedge $-1 $202 $318 $204 $337 reversed $121 $-1 #
vertex $-1 $329 $467 #
straight-curve $-1 0 -4.8632450093672004 3.1063433205587963 1 0 0 I I #
edge $-1 $207 -3.1063433205587963 $326 3.1063433205587963 $204 $468 forward 7 unknown #
edge $-1 $208 -3.1063433205587963 $325 3.1063433205587963 $205 $469 forward 7 unknown #
point $-1 57.854548783837402 -4.8632450093672004 3.1063433205587963 #
point $-1 57.854548783837402 4.8632450093672004 3.1063433205587963 #
face $-1 $-1 $225 $29 $-1 $470 reversed single #
loop $-1 $-1 $357 $210 #
plane-surface $-1 0 7.1425766932759984 0 0 -1 0 0 0 -1 forward_v I I I I #
coedge $-1 $471 $355 $358 $472 forward $211 $-1 #
coedge $-1 $361 $213 $214 $349 reversed $129 $-1 #
coedge $-1 $355 $471 $213 $347 reversed $211 $-1 #
edge $-1 $362 -1.7402437975925211 $473 1.7402437975925211 $346 $474 forward 7 unknown #
coedge $-1 $215 $214 $471 $475 forward $81 $-1 #
edge $-1 $353 -57.854548783837402 $473 57.854548783837402 $345 $476 forward 7 unknown #
coedge $-1 $358 $357 $215 $351 reversed $342 $-1 #
edge $-1 $477 -57.854548783837402 $352 57.854548783837402 $350 $478 forward 7 unknown #
vertex $-1 $217 $479 #
vertex $-1 $364 $480 #
straight-curve $-1 57.854548783837402 0 -1.7402437975925211 0 -1 0 I I #
coedge $-1 $344 $346 $218 $356 reversed $211 $-1 #
edge $-1 $359 -7.1425766932759984 $362 7.1425766932759984 $355 $481 forward 7 unknown #
coedge $-1 $350 $219 $224 $365 forward $342 $-1 #
coedge $-1 $219 $350 $344 $472 reversed $342 $-1 #
vertex $-1 $220 $482 #
straight-curve $-1 0 7.1425766932759984 1.7402437975925211 -1 0 0 I I #
coedge $-1 $221 $345 $223 $364 reversed $129 $-1 #
vertex $-1 $356 $483 #
straight-curve $-1 0 -7.1425766932759984 1.7402437975925211 1 0 0 I I #
edge $-1 $226 -1.7402437975925211 $353 1.7402437975925211 $223 $484 forward 7 unknown #
edge $-1 $227 -1.7402437975925211 $352 1.7402437975925211 $224 $485 forward 7 unknown #
point $-1 57.854548783837402 -7.1425766932759984 1.7402437975925211 #
point $-1 57.854548783837402 7.1425766932759984 1.7402437975925211 #
face $-1 $-1 $244 $30 $-1 $486 reversed single #
loop $-1 $-1 $384 $229 #
plane-surface $-1 0 3.4383008114131322 0 0 -1 0 0 0 -1 forward_v I I I I #
coedge $-1 $487 $382 $385 $488 forward $230 $-1 #
coedge $-1 $388 $232 $233 $376 reversed $137 $-1 #
coedge $-1 $382 $487 $232 $374 reversed $230 $-1 #
edge $-1 $389 -115.7090975676748 $489 115.7090975676748 $373 $490 forward 7 unknown #
coedge $-1 $234 $233 $487 $491 forward $85 $-1 #
edge $-1 $380 -231.41819513534961 $489 231.41819513534961 $372 $492 forward 7 unknown #
coedge $-1 $385 $384 $234 $378 reversed $369 $-1 #
edge $-1 $493 -231.41819513534961 $379 231.41819513534961 $377 $494 forward 7 unknown #
vertex $-1 $236 $495 #
vertex $-1 $391 $496 #
straight-curve $-1 231.41819513534961 0 -115.7090975676748 0 -1 0 I I #
coedge $-1 $371 $373 $237 $383 reversed $230 $-1 #
edge $-1 $386 -3.4383008114131322 $389 3.4383008114131322 $382 $497 forward 7 unknown #
coedge $-1 $377 $238 $243 $392 forward $369 $-1 #
coedge $-1 $238 $377 $371 $488 reversed $369 $-1 #
vertex $-1 $239 $498 #
straight-curve $-1 0 3.4383008114131322 115.7090975676748 -1 0 0 I I #
coedge $-1 $240 $372 $242 $391 reversed $137 $-1 #
vertex $-1 $383 $499 #
straight-curve $-1 0 -3.4383008114131322 115.7090975676748 1 0 0 I I #
edge $-1 $245 -115.7090975676748 $380 115.7090975676748 $242 $500 forward 7 unknown #
edge $-1 $246 -115.7090975676748 $379 115.7090975676748 $243 $501 forward 7 unknown #
point $-1 231.41819513534961 -3.4383008114131322 115.7090975676748 #
point $-1 231.41819513534961 3.4383008114131322 115.7090975676748 #
coedge $-1 $395 $395 $-1 $502 reversed $248 $-1 #
vertex $-1 $250 $503 #
ellipse-curve $-1 0 0 -0.5 0 0 -1 1 0 0 1 I I #
point $-1 1 0 -3.6417584765160065 #
face $-1 $-1 $268 $32 $-1 $504 reversed single #
loop $-1 $-1 $415 $253 #
plane-surface $-1 0 3.8440574890088079 0 0 -1 0 0 0 -1 forward_v I I I I #
coedge $-1 $505 $413 $416 $506 forward $254 $-1 #
coedge $-1 $419 $256 $257 $407 reversed $150 $-1 #
coedge $-1 $413 $505 $256 $405 reversed $254 $-1 #
edge $-1 $420 -115.7090975676748 $507 115.7090975676748 $404 $508 forward 7 unknown #
coedge $-1 $258 $257 $505 $509 forward $94 $-1 #
edge $-1 $411 -231.41819513534961 $507 231.41819513534961 $403 $510 forward 7 unknown #
coedge $-1 $416 $415 $258 $409 reversed $400 $-1 #
edge $-1 $511 -231.41819513534961 $410 231.41819513534961 $408 $512 forward 7 unknown #
vertex $-1 $260 $513 #
vertex $-1 $422 $514 #
straight-curve $-1 231.41819513534961 0 -115.7090975676748 0 -1 0 I I #
coedge $-1 $402 $404 $261 $414 reversed $254 $-1 #
edge $-1 $417 -3.8440574890088079 $420 3.8440574890088079 $413 $515 forward 7 unknown #
coedge $-1 $408 $262 $267 $423 forward $400 $-1 #
coedge $-1 $262 $408 $402 $506 reversed $400 $-1 #
vertex $-1 $263 $516 #
straight-curve $-1 0 3.8440574890088079 115.7090975676748 -1 0 0 I I #
coedge $-1 $264 $403 $266 $422 reversed $150 $-1 #
vertex $-1 $414 $517 #
straight-curve $-1 0 -3.8440574890088079 115.7090975676748 1 0 0 I I #
edge $-1 $269 -115.7090975676748 $411 115.7090975676748 $266 $518 forward 7 unknown #
edge $-1 $270 -115.7090975676748 $410 115.7090975676748 $267 $519 forward 7 unknown #
point $-1 231.41819513534961 -3.8440574890088079 115.7090975676748 #
point $-1 231.41819513534961 3.8440574890088079 115.7090975676748 #
coedge $-1 $426 $426 $-1 $520 reversed $272 $-1 #
vertex $-1 $274 $521 #
ellipse-curve $-1 0 0 -0.25 0 0 -1 0.5 0 0 1 I I #
point $-1 0.5 0 -1.25 #
coedge $-1 $430 $430 $-1 $522 reversed $277 $-1 #
vertex $-1 $279 $523 #
ellipse-curve $-1 0 0 -0.25 0 0 -1 0.5 0 0 1 I I #
point $-1 0.5 0 -1.25 #
coedge $-1 $434 $434 $-1 $524 reversed $282 $-1 #
vertex $-1 $284 $525 #
ellipse-curve $-1 0 0 -0.25 0 0 -1 0.5 0 0 1 I I #
point $-1 0.5 0 -1.25 #
plane-surface $-1 57.854548783837402 0 0 -1 0 0 0 0 1 forward_v I I I I #
coedge $-1 $292 $290 $294 $443 reversed $173 $-1 #
edge $-1 $305 -11.352519165365454 $445 11.352519165365454 $304 $526 forward 7 unknown #
vertex $-1 $443 $527 #
straight-curve $-1 -57.854548783837402 -25.629245531378224 0 0 0 -1 I I #
edge $-1 $441 -25.629245531378224 $445 25.629245531378224 $439 $528 forward 7 unknown #
straight-curve $-1 0 -25.629245531378224 -11.352519165365454 -1 0 0 I I #
vertex $-1 $297 $529 #
straight-curve $-1 0 25.629245531378224 -11.352519165365454 1 0 0 I I #
point $-1 57.854548783837402 25.629245531378224 -11.352519165365454 #
point $-1 57.854548783837402 -25.629245531378224 -11.352519165365454 #
straight-curve $-1 -57.854548783837402 0 11.352519165365454 0 -1 0 I I #
point $-1 -57.854548783837402 25.629245531378224 11.352519165365454 #
point $-1 -57.854548783837402 -25.629245531378224 11.352519165365454 #
straight-curve $-1 57.854548783837402 -25.629245531378224 0 0 0 -1 I I #
straight-curve $-1 57.854548783837402 25.629245531378224 0 0 0 -1 I I #
plane-surface $-1 57.854548783837402 0 0 -1 0 0 0 0 1 forward_v I I I I #
coedge $-1 $319 $317 $321 $459 reversed $192 $-1 #
edge $-1 $332 -3.1063433205587963 $461 3.1063433205587963 $331 $530 forward 7 unknown #
vertex $-1 $459 $531 #
straight-curve $-1 -57.854548783837402 -4.8632450093672004 0 0 0 -1 I I #
edge $-1 $457 -4.8632450093672004 $461 4.8632450093672004 $455 $532 forward 7 unknown #
straight-curve $-1 0 -4.8632450093672004 -3.1063433205587963 -1 0 0 I I #
vertex $-1 $324 $533 #
straight-curve $-1 0 4.8632450093672004 -3.1063433205587963 1 0 0 I I #
point $-1 57.854548783837402 4.8632450093672004 -3.1063433205587963 #
point $-1 57.854548783837402 -4.8632450093672004 -3.1063433205587963 #
straight-curve $-1 -57.854548783837402 0 3.1063433205587963 0 -1 0 I I #
point $-1 -57.854548783837402 4.8632450093672004 3.1063433205587963 #
point $-1 -57.854548783837402 -4.8632450093672004 3.1063433205587963 #
straight-curve $-1 57.854548783837402 -4.8632450093672004 0 0 0 -1 I I #
straight-curve $-1 57.854548783837402 4.8632450093672004 0 0 0 -1 I I #
plane-surface $-1 57.854548783837402 0 0 -1 0 0 0 0 1 forward_v I I I I #
coedge $-1 $346 $344 $348 $475 reversed $211 $-1 #
edge $-1 $359 -1.7402437975925211 $477 1.7402437975925211 $358 $534 forward 7 unknown #
vertex $-1 $475 $535 #
straight-curve $-1 -57.854548783837402 -7.1425766932759984 0 0 0 -1 I I #
edge $-1 $473 -7.1425766932759984 $477 7.1425766932759984 $471 $536 forward 7 unknown #
straight-curve $-1 0 -7.1425766932759984 -1.7402437975925211 -1 0 0 I I #
vertex $-1 $351 $537 #
straight-curve $-1 0 7.1425766932759984 -1.7402437975925211 1 0 0 I I #
point $-1 57.854548783837402 7.1425766932759984 -1.7402437975925211 #
point $-1 57.854548783837402 -7.1425766932759984 -1.7402437975925211 #
straight-curve $-1 -57.854548783837402 0 1.7402437975925211 0 -1 0 I I #
point $-1 -57.854548783837402 7.1425766932759984 1.7402437975925211 #
point $-1 -57.854548783837402 -7.1425766932759984 1.7402437975925211 #
straight-curve $-1 57.854548783837402 -7.1425766932759984 0 0 0 -1 I I #
straight-curve $-1 57.854548783837402 7.1425766932759984 0 0 0 -1 I I #
plane-surface $-1 231.41819513534961 0 0 -1 0 0 0 0 1 forward_v I I I I #
coedge $-1 $373 $371 $375 $491 reversed $230 $-1 #
edge $-1 $386 -115.7090975676748 $493 115.7090975676748 $385 $538 forward 7 unknown #
vertex $-1 $491 $539 #
straight-curve $-1 -231.41819513534961 -3.4383008114131322 0 0 0 -1 I I #
edge $-1 $489 -3.4383008114131322 $493 3.4383008114131322 $487 $540 forward 7 unknown #
straight-curve $-1 0 -3.4383008114131322 -115.7090975676748 -1 0 0 I I #
vertex $-1 $378 $541 #
straight-curve $-1 0 3.4383008114131322 -115.7090975676748 1 0 0 I I #
point $-1 231.41819513534961 3.4383008114131322 -115.7090975676748 #
point $-1 231.41819513534961 -3.4383008114131322 -115.7090975676748 #
straight-curve $-1 -231.41819513534961 0 115.7090975676748 0 -1 0 I I #
point $-1 -231.41819513534961 3.4383008114131322 115.7090975676748 #
point $-1 -231.41819513534961 -3.4383008114131322 115.7090975676748 #
straight-curve $-1 231.41819513534961 -3.4383008114131322 0 0 0 -1 I I #
straight-curve $-1 231.41819513534961 3.4383008114131322 0 0 0 -1 I I #
edge $-1 $542 1 $542 0 $395 $-1 forward 7 unknown #
point $-1 1 0 -0.5 #
plane-surface $-1 231.41819513534961 0 0 -1 0 0 0 0 1 forward_v I I I I #
coedge $-1 $404 $402 $406 $509 reversed $254 $-1 #
edge $-1 $417 -115.7090975676748 $511 115.7090975676748 $416 $543 forward 7 unknown #
vertex $-1 $509 $544 #
straight-curve $-1 -231.41819513534961 -3.8440574890088079 0 0 0 -1 I I #
edge $-1 $507 -3.8440574890088079 $511 3.8440574890088079 $505 $545 forward 7 unknown #
straight-curve $-1 0 -3.8440574890088079 -115.7090975676748 -1 0 0 I I #
vertex $-1 $409 $546 #
straight-curve $-1 0 3.8440574890088079 -115.7090975676748 1 0 0 I I #
point $-1 231.41819513534961 3.8440574890088079 -115.7090975676748 #
point $-1 231.41819513534961 -3.8440574890088079 -115.7090975676748 #
straight-curve $-1 -231.41819513534961 0 115.7090975676748 0 -1 0 I I #
point $-1 -231.41819513534961 3.8440574890088079 115.7090975676748 #
point $-1 -231.41819513534961 -3.8440574890088079 115.7090975676748 #
straight-curve $-1 231.41819513534961 -3.8440574890088079 0 0 0 -1 I I #
straight-curve $-1 231.41819513534961 3.8440574890088079 0 0 0 -1 I I #
edge $-1 $547 1 $547 0 $426 $-1 forward 7 unknown #
point $-1 0.5 0 -0.25 #
edge $-1 $548 1 $548 0 $430 $-1 forward 7 unknown #
point $-1 0.5 0 -0.25 #
edge $-1 $549 1 $549 0 $434 $-1 forward 7 unknown #
point $-1 0.5 0 -0.25 #
straight-curve $-1 -57.854548783837402 25.629245531378224 0 0 0 -1 I I #
point $-1 -57.854548783837402 -25.629245531378224 -11.352519165365454 #
straight-curve $-1 -57.854548783837402 0 -11.352519165365454 0 1 0 I I #
point $-1 -57.854548783837402 25.629245531378224 -11.352519165365454 #
straight-curve $-1 -57.854548783837402 4.8632450093672004 0 0 0 -1 I I #
point $-1 -57.854548783837402 -4.8632450093672004 -3.1063433205587963 #
straight-curve $-1 -57.854548783837402 0 -3.1063433205587963 0 1 0 I I #
point $-1 -57.854548783837402 4.8632450093672004 -3.1063433205587963 #
straight-curve $-1 -57.854548783837402 7.1425766932759984 0 0 0 -1 I I #
point $-1 -57.854548783837402 -7.1425766932759984 -1.7402437975925211 #
straight-curve $-1 -57.854548783837402 0 -1.7402437975925211 0 1 0 I I #
point $-1 -57.854548783837402 7.1425766932759984 -1.7402437975925211 #
straight-curve $-1 -231.41819513534961 3.4383008114131322 0 0 0 -1 I I #
point $-1 -231.41819513534961 -3.4383008114131322 -115.7090975676748 #
straight-curve $-1 -231.41819513534961 0 -115.7090975676748 0 1 0 I I #
point $-1 -231.41819513534961 3.4383008114131322 -115.7090975676748 #
vertex $-1 $502 $550 #
straight-curve $-1 -231.41819513534961 3.8440574890088079 0 0 0 -1 I I #
point $-1 -231.41819513534961 -3.8440574890088079 -115.7090975676748 #
straight-curve $-1 -231.41819513534961 0 -115.7090975676748 0 1 0 I I #
point $-1 -231.41819513534961 3.8440574890088079 -115.7090975676748 #
vertex $-1 $520 $551 #
vertex $-1 $522 $552 #
vertex $-1 $524 $553 #
point $-1 0 0 0.5 #
point $-1 0 0 0.25 #
point $-1 0 0 0.25 #
point $-1 0 0 0.25 #
End-of-ACIS-data 