500 0 10 0           
7 Unknown 11 ACIS 5.0 NT 24 Fri Mar 26 19:33:36 1999 
-1 9.9999999999999995e-007 1e-010 
body $-1 $10 $-1 $11 #
body $-1 $12 $-1 $13 #
body $-1 $14 $-1 $15 #
body $-1 $16 $-1 $17 #
body $-1 $18 $-1 $19 #
body $-1 $20 $-1 $21 #
body $-1 $22 $-1 $23 #
body $-1 $24 $-1 $25 #
body $-1 $26 $-1 $27 #
body $-1 $28 $-1 $29 #
lump $-1 $-1 $30 $0 #
transform $-1 1 0 0 0 1 0 0 0 1 55.870845667897584 37.899827112601905 17.523768751166575 1 rotate no_reflect no_shear #
lump $-1 $-1 $31 $1 #
transform $-1 1 0 0 0 1 0 0 0 1 55.870845667897584 37.899827112601905 17.523768751166575 1 rotate no_reflect no_shear #
lump $-1 $-1 $32 $2 #
transform $-1 1 0 0 0 1 0 0 0 1 55.870845667897584 37.899827112601905 17.523768751166575 1 rotate no_reflect no_shear #
lump $-1 $-1 $33 $3 #
transform $-1 1 0 0 0 1 0 0 0 1 55.870845667897584 37.899827112601905 17.523768751166575 1 rotate no_reflect no_shear #
lump $-1 $-1 $34 $4 #
transform $-1 1 0 0 0 1 0 0 0 1 55.870845667897584 37.899827112601905 17.523768751166575 1 rotate no_reflect no_shear #
lump $-1 $-1 $35 $5 #
transform $-1 1 0 0 0 1 0 0 0 1 55.870845667897584 37.899827112601905 17.523768751166575 1 rotate no_reflect no_shear #
lump $-1 $-1 $36 $6 #
transform $-1 1 0 0 0 1 0 0 0 1 55.870845667897584 37.899827112601905 17.523768751166575 1 rotate no_reflect no_shear #
lump $-1 $-1 $37 $7 #
transform $-1 1 0 0 0 1 0 0 0 1 55.870845667897584 37.899827112601905 17.523768751166575 1 rotate no_reflect no_shear #
lump $-1 $-1 $38 $8 #
transform $-1 1 0 0 0 1 0 0 0 1 55.870845667897584 37.899827112601905 17.523768751166575 1 rotate no_reflect no_shear #
lump $-1 $-1 $39 $9 #
transform $-1 1 0 0 0 1 0 0 0 1 55.870845667897584 37.899827112601905 17.523768751166575 1 rotate no_reflect no_shear #
shell $-1 $-1 $-1 $40 $-1 $10 #
shell $-1 $-1 $-1 $41 $-1 $12 #
shell $-1 $-1 $-1 $42 $-1 $14 #
shell $-1 $-1 $-1 $43 $-1 $16 #
shell $-1 $-1 $-1 $44 $-1 $18 #
shell $-1 $-1 $-1 $45 $-1 $20 #
shell $-1 $-1 $-1 $46 $-1 $22 #
shell $-1 $-1 $-1 $47 $-1 $24 #
shell $-1 $-1 $-1 $48 $-1 $26 #
shell $-1 $-1 $-1 $49 $-1 $28 #
face $-1 $50 $51 $30 $-1 $52 forward single #
face $-1 $53 $54 $31 $-1 $55 forward single #
face $-1 $56 $57 $32 $-1 $58 reversed single #
face $-1 $59 $60 $33 $-1 $61 forward single #
face $-1 $62 $63 $34 $-1 $64 forward single #
face $-1 $65 $66 $35 $-1 $67 forward single #
face $-1 $68 $69 $36 $-1 $70 reversed single #
face $-1 $71 $72 $37 $-1 $73 forward single #
face $-1 $74 $75 $38 $-1 $76 forward single #
face $-1 $77 $78 $39 $-1 $79 forward single #
face $-1 $80 $81 $30 $-1 $82 reversed single #
loop $-1 $-1 $83 $40 #
plane-surface $-1 0 0 17.523768751166575 0 0 1 1 0 0 forward_v I I I I #
face $-1 $84 $85 $31 $-1 $86 reversed single #
loop $-1 $-1 $87 $41 #
plane-surface $-1 0 -31.135557180375727 -10.538113299599814 0 0 1 1 0 0 forward_v I I I I #
face $-1 $88 $89 $32 $-1 $90 reversed single #
loop $-1 $-1 $91 $42 #
plane-surface $-1 25.717947306338431 25.982093256352979 169.1133248663071 0 1 0 0.55919291073839883 0 0.82903756765294845 forward_v I I I I #
face $-1 $92 $93 $33 $-1 $94 forward single #
loop $-1 $95 $96 $43 #
cone-surface $-1 52.744116694501415 28.365640027602772 15.004845069875584 -0.55919291073839883 0 -0.82903756765294845 0.41451878382647422 0 -0.27959645536919941 1 I I 0 1 0.5 forward I I I I #
face $-1 $97 $98 $34 $-1 $99 forward single #
loop $-1 $100 $101 $44 #
cone-surface $-1 52.744116694501415 31.940960184477454 15.004845069875584 -0.55919291073839883 0 -0.82903756765294845 0.41451878382647422 0 -0.27959645536919941 1 I I 0 1 0.5 forward I I I I #
face $-1 $102 $103 $35 $-1 $104 forward single #
loop $-1 $105 $106 $45 #
cone-surface $-1 52.744116694501415 35.516280341352136 15.004845069875584 -0.55919291073839883 0 -0.82903756765294845 0.41451878382647422 0 -0.27959645536919941 1 I I 0 1 0.5 forward I I I I #
face $-1 $107 $108 $36 $-1 $109 reversed single #
loop $-1 $-1 $110 $46 #
plane-surface $-1 -145.11172924036438 13.620247364206595 75.814843007694506 0 1 0 -0.79863551827123203 0 0.60181501223851219 forward_v I I I I #
face $-1 $111 $112 $37 $-1 $113 forward single #
loop $-1 $114 $115 $47 #
cone-surface $-1 -52.011157547053877 15.519034595335512 12.679926466413871 0.79863551827123203 0 -0.60181501223851219 0.3009075061192561 0 0.39931775913561601 1 I I 0 1 0.5 forward I I I I #
face $-1 $116 $117 $38 $-1 $118 forward single #
loop $-1 $119 $120 $48 #
cone-surface $-1 -52.011157547053877 18.367215442028886 12.679926466413871 0.79863551827123203 0 -0.60181501223851219 0.3009075061192561 0 0.39931775913561601 1 I I 0 1 0.5 forward I I I I #
face $-1 $121 $122 $39 $-1 $123 forward single #
loop $-1 $124 $125 $49 #
cone-surface $-1 -52.011157547053877 21.21539628872226 12.679926466413871 0.79863551827123203 0 -0.60181501223851219 0.3009075061192561 0 0.39931775913561601 1 I I 0 1 0.5 forward I I I I #
face $-1 $126 $127 $30 $-1 $128 reversed single #
loop $-1 $-1 $129 $50 #
plane-surface $-1 0 0 -17.523768751166575 0 0 1 1 0 0 forward_v I I I I #
coedge $-1 $130 $131 $132 $133 forward $51 $-1 #
face $-1 $134 $135 $31 $-1 $136 reversed single #
loop $-1 $-1 $137 $53 #
plane-surface $-1 0 -24.371287248149549 -14.030941025383195 0 -1 0 0 0 -1 forward_v I I I I #
coedge $-1 $138 $139 $140 $141 reversed $54 $-1 #
face $-1 $142 $143 $32 $-1 $144 forward single #
loop $-1 $-1 $145 $56 #
plane-surface $-1 -36.76721432255659 31.94096018447744 76.475264875852929 0.55919291073839883 0 0.82903756765294845 0.82903756765294845 0 -0.55919291073839883 forward_v I I I I #
coedge $-1 $146 $147 $148 $149 reversed $57 $-1 #
face $-1 $-1 $150 $33 $-1 $151 forward single #
loop $-1 $152 $153 $59 #
cone-surface $-1 52.097026720047751 28.365640027602772 14.045494748775678 -0.55919291073839883 0 -0.82903756765294845 0.20725939191323711 0 -0.13979822768459971 1 I I -0.70710678118654746 0.70710678118654746 0.25 forward I I I I #
loop $-1 $-1 $154 $43 #
coedge $-1 $96 $96 $155 $156 reversed $60 $-1 #
face $-1 $-1 $157 $34 $-1 $158 forward single #
loop $-1 $159 $160 $62 #
cone-surface $-1 52.097026720047751 31.940960184477454 14.045494748775678 -0.55919291073839883 0 -0.82903756765294845 0.20725939191323711 0 -0.13979822768459971 1 I I -0.70710678118654746 0.70710678118654746 0.25 forward I I I I #
loop $-1 $-1 $161 $44 #
coedge $-1 $101 $101 $162 $163 reversed $63 $-1 #
face $-1 $-1 $164 $35 $-1 $165 forward single #
loop $-1 $166 $167 $65 #
cone-surface $-1 52.097026720047751 35.516280341352136 14.045494748775678 -0.55919291073839883 0 -0.82903756765294845 0.20725939191323711 0 -0.13979822768459971 1 I I -0.70710678118654746 0.70710678118654746 0.25 forward I I I I #
loop $-1 $-1 $168 $45 #
coedge $-1 $106 $106 $169 $170 reversed $66 $-1 #
face $-1 $171 $172 $36 $-1 $173 reversed single #
loop $-1 $-1 $174 $68 #
plane-surface $-1 -55.870845667897569 18.367215442028886 8.5670156688908889 -0.79863551827123203 0 0.60181501223851219 0.60181501223851219 0 0.79863551827123203 forward_v I I I I #
coedge $-1 $175 $176 $177 $178 reversed $69 $-1 #
face $-1 $-1 $179 $37 $-1 $180 forward single #
loop $-1 $181 $182 $71 #
cone-surface $-1 -51.326509231153167 15.519034595335512 12.164006969739386 0.79863551827123203 0 -0.60181501223851219 0.15045375305962805 0 0.19965887956780801 1 I I -0.70710678118654746 0.70710678118654746 0.25 forward I I I I #
loop $-1 $-1 $183 $47 #
coedge $-1 $115 $115 $184 $185 reversed $72 $-1 #
face $-1 $-1 $186 $38 $-1 $187 forward single #
loop $-1 $188 $189 $74 #
cone-surface $-1 -51.326509231153167 18.367215442028886 12.164006969739386 0.79863551827123203 0 -0.60181501223851219 0.15045375305962805 0 0.19965887956780801 1 I I -0.70710678118654746 0.70710678118654746 0.25 forward I I I I #
loop $-1 $-1 $190 $48 #
coedge $-1 $120 $120 $191 $192 reversed $75 $-1 #
face $-1 $-1 $193 $39 $-1 $194 forward single #
loop $-1 $195 $196 $77 #
cone-surface $-1 -51.326509231153167 21.21539628872226 12.164006969739386 0.79863551827123203 0 -0.60181501223851219 0.15045375305962805 0 0.19965887956780801 1 I I -0.70710678118654746 0.70710678118654746 0.25 forward I I I I #
loop $-1 $-1 $197 $49 #
coedge $-1 $125 $125 $198 $199 reversed $78 $-1 #
face $-1 $200 $201 $30 $-1 $202 reversed single #
loop $-1 $-1 $203 $80 #
plane-surface $-1 0 -37.899827112601905 0 0 1 0 0 0 1 forward_v I I I I #
coedge $-1 $204 $205 $206 $207 forward $81 $-1 #
coedge $-1 $208 $83 $209 $210 forward $51 $-1 #
coedge $-1 $83 $208 $211 $212 forward $51 $-1 #
coedge $-1 $213 $214 $83 $133 reversed $215 $-1 #
edge $-1 $216 -37.899827112601905 $217 37.899827112601905 $132 $218 forward 7 unknown #
face $-1 $219 $220 $31 $-1 $221 reversed single #
loop $-1 $-1 $222 $84 #
plane-surface $-1 0 0 -17.523768751166575 0 0 1 1 0 0 forward_v I I I I #
coedge $-1 $223 $224 $225 $226 reversed $85 $-1 #
coedge $-1 $227 $87 $224 $228 forward $54 $-1 #
coedge $-1 $87 $227 $229 $230 reversed $54 $-1 #
coedge $-1 $231 $225 $87 $141 forward $220 $-1 #
edge $-1 $232 8.8035086579616859 $233 22.332048522414041 $140 $234 forward 7 unknown #
face $-1 $235 $236 $32 $-1 $237 reversed single #
loop $-1 $-1 $238 $88 #
plane-surface $-1 0 0 17.523768751166575 0 0 1 1 0 0 forward_v I I I I #
coedge $-1 $239 $240 $241 $242 reversed $89 $-1 #
coedge $-1 $147 $91 $243 $244 reversed $57 $-1 #
coedge $-1 $91 $146 $239 $245 reversed $57 $-1 #
coedge $-1 $241 $246 $91 $149 forward $247 $-1 #
edge $-1 $248 67.032893681986977 $249 70.566559186195633 $148 $250 forward 7 unknown #
loop $-1 $-1 $155 $92 #
plane-surface $-1 -36.76721432255659 31.94096018447744 76.475264875852929 0.55919291073839883 0 0.82903756765294845 0.82903756765294845 0 -0.55919291073839883 forward_v I I I I #
loop $-1 $-1 $251 $59 #
coedge $-1 $153 $153 $154 $252 reversed $93 $-1 #
coedge $-1 $154 $154 $153 $252 forward $95 $-1 #
coedge $-1 $155 $155 $96 $156 forward $150 $-1 #
edge $-1 $253 0 $253 6.2831853071796004 $155 $254 forward 7 unknown #
loop $-1 $-1 $162 $97 #
plane-surface $-1 -36.76721432255659 31.94096018447744 76.475264875852929 0.55919291073839883 0 0.82903756765294845 0.82903756765294845 0 -0.55919291073839883 forward_v I I I I #
loop $-1 $-1 $255 $62 #
coedge $-1 $160 $160 $161 $256 reversed $98 $-1 #
coedge $-1 $161 $161 $160 $256 forward $100 $-1 #
coedge $-1 $162 $162 $101 $163 forward $157 $-1 #
edge $-1 $257 0 $257 6.2831853071796004 $162 $258 forward 7 unknown #
loop $-1 $-1 $169 $102 #
plane-surface $-1 -36.76721432255659 31.94096018447744 76.475264875852929 0.55919291073839883 0 0.82903756765294845 0.82903756765294845 0 -0.55919291073839883 forward_v I I I I #
loop $-1 $-1 $259 $65 #
coedge $-1 $167 $167 $168 $260 reversed $103 $-1 #
coedge $-1 $168 $168 $167 $260 forward $105 $-1 #
coedge $-1 $169 $169 $106 $170 forward $164 $-1 #
edge $-1 $261 0 $261 6.2831853071796004 $169 $262 forward 7 unknown #
face $-1 $263 $264 $36 $-1 $265 reversed single #
loop $-1 $-1 $266 $107 #
plane-surface $-1 -145.11172924036438 23.114183519851178 75.814843007694506 0 -1 0 0.79863551827123203 0 -0.60181501223851219 forward_v I I I I #
coedge $-1 $267 $268 $269 $270 reversed $108 $-1 #
coedge $-1 $176 $110 $271 $272 reversed $69 $-1 #
coedge $-1 $110 $175 $267 $273 reversed $69 $-1 #
coedge $-1 $269 $274 $110 $178 forward $275 $-1 #
edge $-1 $276 16.685018952284608 $277 23.434416321306244 $177 $278 forward 7 unknown #
loop $-1 $-1 $184 $111 #
plane-surface $-1 -55.870845667897569 18.367215442028886 8.5670156688908889 -0.79863551827123203 0 0.60181501223851219 0.60181501223851219 0 0.79863551827123203 forward_v I I I I #
loop $-1 $-1 $279 $71 #
coedge $-1 $182 $182 $183 $280 reversed $112 $-1 #
coedge $-1 $183 $183 $182 $280 forward $114 $-1 #
coedge $-1 $184 $184 $115 $185 forward $179 $-1 #
edge $-1 $281 0 $281 6.2831853071796004 $184 $282 forward 7 unknown #
loop $-1 $-1 $191 $116 #
plane-surface $-1 -55.870845667897569 18.367215442028886 8.5670156688908889 -0.79863551827123203 0 0.60181501223851219 0.60181501223851219 0 0.79863551827123203 forward_v I I I I #
loop $-1 $-1 $283 $74 #
coedge $-1 $189 $189 $190 $284 reversed $117 $-1 #
coedge $-1 $190 $190 $189 $284 forward $119 $-1 #
coedge $-1 $191 $191 $120 $192 forward $186 $-1 #
edge $-1 $285 0 $285 6.2831853071796004 $191 $286 forward 7 unknown #
loop $-1 $-1 $198 $121 #
plane-surface $-1 -55.870845667897569 18.367215442028886 8.5670156688908889 -0.79863551827123203 0 0.60181501223851219 0.60181501223851219 0 0.79863551827123203 forward_v I I I I #
loop $-1 $-1 $287 $77 #
coedge $-1 $196 $196 $197 $288 reversed $122 $-1 #
coedge $-1 $197 $197 $196 $288 forward $124 $-1 #
coedge $-1 $198 $198 $125 $199 forward $193 $-1 #
edge $-1 $289 0 $289 6.2831853071796004 $198 $290 forward 7 unknown #
face $-1 $291 $292 $30 $-1 $293 reversed single #
loop $-1 $-1 $294 $126 #
plane-surface $-1 -55.870845667897584 0 0 1 0 0 0 0 -1 forward_v I I I I #
coedge $-1 $295 $211 $296 $297 forward $127 $-1 #
coedge $-1 $298 $129 $295 $299 forward $81 $-1 #
coedge $-1 $129 $298 $300 $301 forward $81 $-1 #
coedge $-1 $214 $213 $129 $207 reversed $215 $-1 #
edge $-1 $302 -37.899827112601905 $303 37.899827112601905 $206 $304 forward 7 unknown #
coedge $-1 $131 $130 $305 $306 forward $51 $-1 #
coedge $-1 $307 $308 $130 $210 reversed $292 $-1 #
edge $-1 $217 -55.870845667897584 $309 55.870845667897584 $209 $310 forward 7 unknown #
coedge $-1 $203 $311 $131 $212 reversed $127 $-1 #
edge $-1 $312 -55.870845667897584 $216 55.870845667897584 $211 $313 forward 7 unknown #
coedge $-1 $206 $132 $311 $314 forward $215 $-1 #
coedge $-1 $132 $206 $307 $315 reversed $215 $-1 #
loop $-1 $-1 $213 $291 #
vertex $-1 $133 $316 #
vertex $-1 $133 $317 #
straight-curve $-1 55.870845667897584 0 17.523768751166575 0 1 0 I I #
face $-1 $318 $319 $31 $-1 $320 reversed single #
loop $-1 $-1 $225 $134 #
plane-surface $-1 55.870845667897584 0 0 -1 0 0 0 0 1 forward_v I I I I #
coedge $-1 $321 $322 $223 $323 forward $135 $-1 #
coedge $-1 $324 $137 $222 $323 reversed $85 $-1 #
coedge $-1 $137 $324 $138 $228 reversed $85 $-1 #
coedge $-1 $140 $325 $137 $226 forward $220 $-1 #
edge $-1 $326 -10.508298238474978 $232 -3.5226427869082171 $225 $327 forward 7 unknown #
coedge $-1 $139 $138 $328 $329 reversed $54 $-1 #
edge $-1 $232 -55.870845667897584 $330 55.870845667897584 $224 $331 forward 7 unknown #
coedge $-1 $332 $333 $139 $230 forward $319 $-1 #
edge $-1 $233 -55.870845667897584 $334 55.870845667897584 $229 $335 forward 7 unknown #
coedge $-1 $325 $140 $333 $336 forward $220 $-1 #
vertex $-1 $141 $337 #
vertex $-1 $336 $338 #
straight-curve $-1 55.870845667897584 -15.567778590187864 -10.538113299599814 0 -1 0 I I #
face $-1 $-1 $247 $32 $-1 $339 reversed single #
loop $-1 $-1 $340 $142 #
plane-surface $-1 0 37.899827112601905 0 0 -1 0 0 0 -1 forward_v I I I I #
coedge $-1 $243 $341 $342 $343 forward $143 $-1 #
coedge $-1 $342 $145 $147 $245 forward $89 $-1 #
coedge $-1 $145 $342 $340 $344 reversed $89 $-1 #
coedge $-1 $345 $148 $145 $242 forward $247 $-1 #
edge $-1 $249 10.011613164114259 $346 21.929347020363185 $241 $347 forward 7 unknown #
coedge $-1 $348 $238 $146 $244 forward $143 $-1 #
edge $-1 $349 37.772997561474106 $248 43.011872014728368 $243 $350 forward 7 unknown #
edge $-1 $249 -111.74169133579517 $349 -105.42246690295576 $147 $351 forward 7 unknown #
coedge $-1 $148 $345 $348 $352 reversed $247 $-1 #
loop $-1 $-1 $241 $235 #
vertex $-1 $352 $353 #
vertex $-1 $149 $354 #
straight-curve $-1 55.870845667897584 25.982093256352979 84.556662433153548 0 0 -1 I I #
coedge $-1 $251 $251 $-1 $355 reversed $152 $-1 #
edge $-1 $356 0 $356 6.2831853071796004 $153 $357 forward 7 unknown #
vertex $-1 $156 $358 #
ellipse-curve $-1 53.251408441270463 28.365640027602772 15.756935999062227 0.55919291073839883 0 0.82903756765294845 0.41451878382647422 0 -0.27959645536919941 1 I I #
coedge $-1 $255 $255 $-1 $359 reversed $159 $-1 #
edge $-1 $360 0 $360 6.2831853071796004 $160 $361 forward 7 unknown #
vertex $-1 $163 $362 #
ellipse-curve $-1 53.251408441270463 31.940960184477454 15.756935999062227 0.55919291073839883 0 0.82903756765294845 0.41451878382647422 0 -0.27959645536919941 1 I I #
coedge $-1 $259 $259 $-1 $363 reversed $166 $-1 #
edge $-1 $364 0 $364 6.2831853071796004 $167 $365 forward 7 unknown #
vertex $-1 $170 $366 #
ellipse-curve $-1 53.251408441270463 35.516280341352136 15.756935999062227 0.55919291073839883 0 0.82903756765294845 0.41451878382647422 0 -0.27959645536919941 1 I I #
face $-1 $-1 $275 $36 $-1 $367 forward single #
loop $-1 $-1 $368 $171 #
plane-surface $-1 -55.870845667897584 0 0 1 0 0 0 0 -1 forward_v I I I I #
coedge $-1 $369 $370 $371 $372 reversed $172 $-1 #
coedge $-1 $373 $174 $176 $273 forward $108 $-1 #
coedge $-1 $174 $373 $369 $374 forward $108 $-1 #
coedge $-1 $371 $177 $174 $270 forward $275 $-1 #
edge $-1 $277 4.4366396431921515 $375 13.930575798836735 $269 $376 forward 7 unknown #
coedge $-1 $377 $378 $175 $272 forward $264 $-1 #
edge $-1 $379 -29.340405834956385 $276 -20.383652752680678 $271 $380 forward 7 unknown #
edge $-1 $277 -11.215069800131026 $379 2.4157584020108747e-014 $176 $381 forward 7 unknown #
coedge $-1 $177 $371 $377 $382 forward $275 $-1 #
loop $-1 $-1 $371 $263 #
vertex $-1 $272 $383 #
vertex $-1 $178 $384 #
straight-curve $-1 -72.555864620182192 13.620247364206595 17.523768751166575 1 0 0 I I #
coedge $-1 $279 $279 $-1 $385 reversed $181 $-1 #
edge $-1 $386 0 $386 6.2831853071796004 $182 $387 forward 7 unknown #
vertex $-1 $185 $388 #
ellipse-curve $-1 -52.496146983386765 15.519034595335512 13.045392210028721 -0.79863551827123203 0 0.60181501223851219 0.3009075061192561 0 0.39931775913561601 1 I I #
coedge $-1 $283 $283 $-1 $389 reversed $188 $-1 #
edge $-1 $390 0 $390 6.2831853071796004 $189 $391 forward 7 unknown #
vertex $-1 $192 $392 #
ellipse-curve $-1 -52.496146983386765 18.367215442028886 13.045392210028721 -0.79863551827123203 0 0.60181501223851219 0.3009075061192561 0 0.39931775913561601 1 I I #
coedge $-1 $287 $287 $-1 $393 reversed $195 $-1 #
edge $-1 $394 0 $394 6.2831853071796004 $196 $395 forward 7 unknown #
vertex $-1 $199 $396 #
ellipse-curve $-1 -52.496146983386765 21.21539628872226 13.045392210028721 -0.79863551827123203 0 0.60181501223851219 0.3009075061192561 0 0.39931775913561601 1 I I #
face $-1 $-1 $215 $30 $-1 $397 reversed single #
loop $-1 $-1 $307 $200 #
plane-surface $-1 0 37.899827112601905 0 0 -1 0 0 0 -1 forward_v I I I I #
coedge $-1 $398 $305 $308 $399 forward $201 $-1 #
coedge $-1 $311 $203 $204 $299 reversed $127 $-1 #
coedge $-1 $305 $398 $203 $297 reversed $201 $-1 #
edge $-1 $312 -17.523768751166575 $400 17.523768751166575 $296 $401 forward 7 unknown #
coedge $-1 $205 $204 $398 $402 forward $81 $-1 #
edge $-1 $303 -55.870845667897584 $400 55.870845667897584 $295 $403 forward 7 unknown #
coedge $-1 $308 $307 $205 $301 reversed $292 $-1 #
edge $-1 $404 -55.870845667897584 $302 55.870845667897584 $300 $405 forward 7 unknown #
vertex $-1 $207 $406 #
vertex $-1 $314 $407 #
straight-curve $-1 55.870845667897584 0 -17.523768751166575 0 -1 0 I I #
coedge $-1 $294 $296 $208 $306 reversed $201 $-1 #
edge $-1 $309 -37.899827112601905 $312 37.899827112601905 $305 $408 forward 7 unknown #
coedge $-1 $300 $209 $214 $315 forward $292 $-1 #
coedge $-1 $209 $300 $294 $399 reversed $292 $-1 #
vertex $-1 $210 $409 #
straight-curve $-1 0 37.899827112601905 17.523768751166575 -1 0 0 I I #
coedge $-1 $211 $295 $213 $314 reversed $127 $-1 #
vertex $-1 $306 $410 #
straight-curve $-1 0 -37.899827112601905 17.523768751166575 1 0 0 I I #
edge $-1 $216 -17.523768751166575 $303 17.523768751166575 $213 $411 forward 7 unknown #
edge $-1 $217 -17.523768751166575 $302 17.523768751166575 $214 $412 forward 7 unknown #
point $-1 55.870845667897584 -37.899827112601905 17.523768751166575 #
point $-1 55.870845667897584 37.899827112601905 17.523768751166575 #
face $-1 $-1 $413 $31 $-1 $414 reversed single #
loop $-1 $-1 $229 $219 #
plane-surface $-1 0 -37.899827112601905 0 0 1 0 0 0 1 forward_v I I I I #
coedge $-1 $415 $222 $325 $416 forward $135 $-1 #
coedge $-1 $222 $415 $417 $418 forward $135 $-1 #
edge $-1 $419 -55.870845667897584 $326 55.870845667897584 $222 $420 forward 7 unknown #
coedge $-1 $224 $223 $421 $422 reversed $85 $-1 #
coedge $-1 $225 $231 $321 $416 reversed $220 $-1 #
vertex $-1 $416 $423 #
straight-curve $-1 55.870845667897584 -24.371287248149549 -7.0154705126915973 0 0 1 I I #
coedge $-1 $421 $424 $227 $329 forward $413 $-1 #
edge $-1 $334 -22.332048522414041 $330 -8.8035086579616859 $328 $425 forward 7 unknown #
vertex $-1 $329 $426 #
straight-curve $-1 0 -24.371287248149549 -10.538113299599814 -1 0 0 I I #
coedge $-1 $427 $229 $424 $428 forward $319 $-1 #
coedge $-1 $229 $427 $231 $336 reversed $319 $-1 #
vertex $-1 $428 $429 #
straight-curve $-1 0 -37.899827112601905 -10.538113299599814 -1 0 0 I I #
edge $-1 $233 10.538113299599814 $430 17.523768751166575 $231 $431 forward 7 unknown #
point $-1 55.870845667897584 -24.371287248149549 -10.538113299599814 #
point $-1 55.870845667897584 -37.899827112601905 -10.538113299599814 #
plane-surface $-1 55.870845667897584 0 0 -1 0 0 0 0 1 forward_v I I I I #
coedge $-1 $432 $433 $240 $344 forward $236 $-1 #
coedge $-1 $238 $348 $432 $434 forward $143 $-1 #
coedge $-1 $240 $239 $238 $343 reversed $89 $-1 #
edge $-1 $435 -21.929347020363178 $349 -10.011613164114259 $238 $436 forward 7 unknown #
edge $-1 $346 -75.118777387412564 $435 -68.799552954573159 $340 $437 forward 7 unknown #
coedge $-1 $246 $241 $433 $438 reversed $247 $-1 #
vertex $-1 $242 $439 #
straight-curve $-1 55.870845667897584 15.97048009223872 13.990103246957897 0 1 0 I I #
coedge $-1 $341 $243 $246 $352 forward $143 $-1 #
vertex $-1 $244 $440 #
straight-curve $-1 12.858973653169215 25.982093256352979 17.523768751166571 1 0 0 I I #
straight-curve $-1 -36.76721432255659 25.982093256352979 76.475264875852929 -0.82903756765294845 0 0.55919291073839883 I I #
edge $-1 $248 25.982093256352979 $441 37.899827112601905 $246 $442 forward 7 unknown #
point $-1 55.870845667897584 25.982093256352979 17.523768751166575 #
point $-1 55.870845667897576 25.982093256352979 13.990103246957908 #
edge $-1 $443 1 $443 0 $251 $-1 forward 7 unknown #
vertex $-1 $252 $444 #
ellipse-curve $-1 52.236824947732352 28.365640027602772 14.252754140688914 0.55919291073839883 0 0.82903756765294845 0.41451878382647422 0 -0.27959645536919941 1 I I #
point $-1 53.665927225096951 28.365640027602772 15.477339543693056 #
edge $-1 $445 1 $445 0 $255 $-1 forward 7 unknown #
vertex $-1 $256 $446 #
ellipse-curve $-1 52.236824947732352 31.940960184477454 14.252754140688914 0.55919291073839883 0 0.82903756765294845 0.41451878382647422 0 -0.27959645536919941 1 I I #
point $-1 53.665927225096951 31.940960184477454 15.477339543693056 #
edge $-1 $447 1 $447 0 $259 $-1 forward 7 unknown #
vertex $-1 $260 $448 #
ellipse-curve $-1 52.236824947732352 35.516280341352136 14.252754140688914 0.55919291073839883 0 0.82903756765294845 0.41451878382647422 0 -0.27959645536919941 1 I I #
point $-1 53.665927225096951 35.516280341352136 15.477339543693056 #
plane-surface $-1 0 0 17.523768751166575 0 0 1 1 0 0 forward_v I I I I #
coedge $-1 $378 $377 $370 $449 forward $264 $-1 #
coedge $-1 $370 $266 $268 $374 reversed $172 $-1 #
coedge $-1 $266 $369 $368 $449 reversed $172 $-1 #
coedge $-1 $274 $269 $266 $372 forward $275 $-1 #
edge $-1 $375 -23.434416321306244 $450 -16.685018952284608 $371 $451 forward 7 unknown #
coedge $-1 $268 $267 $378 $452 reversed $108 $-1 #
edge $-1 $453 -2.4157584020108747e-014 $375 11.215069800131026 $369 $454 forward 7 unknown #
vertex $-1 $270 $455 #
straight-curve $-1 -49.12144829887594 9.1836077210144431 17.523768751166575 0 1 0 I I #
coedge $-1 $368 $271 $274 $382 reversed $264 $-1 #
coedge $-1 $271 $368 $373 $452 forward $264 $-1 #
vertex $-1 $272 $456 #
straight-curve $-1 -55.870845667897584 13.620247364206595 37.907421503847253 0 0 1 I I #
straight-curve $-1 -55.870845667897569 13.620247364206595 8.5670156688908889 -0.60181501223851219 0 -0.79863551827123203 I I #
edge $-1 $450 -23.114183519851178 $276 -13.620247364206595 $377 $457 forward 7 unknown #
point $-1 -55.870845667897584 13.620247364206595 17.523768751166575 #
point $-1 -49.121448298875947 13.620247364206595 17.523768751166575 #
edge $-1 $458 1 $458 0 $279 $-1 forward 7 unknown #
vertex $-1 $280 $459 #
ellipse-curve $-1 -51.526168110720974 15.519034595335512 12.314460722799014 -0.79863551827123203 0 0.60181501223851219 0.3009075061192561 0 0.39931775913561601 1 I I #
point $-1 -52.195239477267521 15.519034595335512 13.444709969164347 #
edge $-1 $460 1 $460 0 $283 $-1 forward 7 unknown #
vertex $-1 $284 $461 #
ellipse-curve $-1 -51.526168110720974 18.367215442028886 12.314460722799014 -0.79863551827123203 0 0.60181501223851219 0.3009075061192561 0 0.39931775913561601 1 I I #
point $-1 -52.195239477267521 18.367215442028886 13.444709969164347 #
edge $-1 $462 1 $462 0 $287 $-1 forward 7 unknown #
vertex $-1 $288 $463 #
ellipse-curve $-1 -51.526168110720974 21.21539628872226 12.314460722799014 -0.79863551827123203 0 0.60181501223851219 0.3009075061192561 0 0.39931775913561601 1 I I #
point $-1 -52.195239477267521 21.21539628872226 13.444709969164347 #
plane-surface $-1 55.870845667897584 0 0 -1 0 0 0 0 1 forward_v I I I I #
coedge $-1 $296 $294 $298 $402 reversed $201 $-1 #
edge $-1 $309 -17.523768751166575 $404 17.523768751166575 $308 $464 forward 7 unknown #
vertex $-1 $402 $465 #
straight-curve $-1 -55.870845667897584 -37.899827112601905 0 0 0 -1 I I #
edge $-1 $400 -37.899827112601905 $404 37.899827112601905 $398 $466 forward 7 unknown #
straight-curve $-1 0 -37.899827112601905 -17.523768751166575 -1 0 0 I I #
vertex $-1 $301 $467 #
straight-curve $-1 0 37.899827112601905 -17.523768751166575 1 0 0 I I #
point $-1 55.870845667897584 37.899827112601905 -17.523768751166575 #
point $-1 55.870845667897584 -37.899827112601905 -17.523768751166575 #
straight-curve $-1 -55.870845667897584 0 17.523768751166575 0 -1 0 I I #
point $-1 -55.870845667897584 37.899827112601905 17.523768751166575 #
point $-1 -55.870845667897584 -37.899827112601905 17.523768751166575 #
straight-curve $-1 55.870845667897584 -37.899827112601905 0 0 0 -1 I I #
straight-curve $-1 55.870845667897584 37.899827112601905 0 0 0 -1 I I #
loop $-1 $-1 $421 $318 #
plane-surface $-1 -55.870845667897584 0 0 1 0 0 0 0 -1 forward_v I I I I #
coedge $-1 $322 $321 $427 $468 forward $135 $-1 #
edge $-1 $326 24.371287248149549 $430 37.899827112601905 $325 $469 forward 7 unknown #
coedge $-1 $424 $421 $322 $418 reversed $413 $-1 #
edge $-1 $470 -37.899827112601905 $419 -24.371287248149549 $417 $471 forward 7 unknown #
vertex $-1 $422 $472 #
straight-curve $-1 0 -24.371287248149549 -17.523768751166575 1 0 0 I I #
coedge $-1 $417 $328 $324 $422 forward $413 $-1 #
edge $-1 $330 3.5226427869082171 $419 10.508298238474978 $421 $473 forward 7 unknown #
point $-1 55.870845667897584 -24.371287248149549 -17.523768751166575 #
coedge $-1 $328 $417 $332 $428 reversed $413 $-1 #
straight-curve $-1 -55.870845667897584 -15.567778590187864 -10.538113299599814 0 1 0 I I #
point $-1 -55.870845667897584 -24.371287248149549 -10.538113299599814 #
coedge $-1 $333 $332 $415 $468 reversed $319 $-1 #
edge $-1 $334 10.538113299599814 $470 17.523768751166575 $424 $474 forward 7 unknown #
point $-1 -55.870845667897584 -37.899827112601905 -10.538113299599814 #
vertex $-1 $336 $475 #
straight-curve $-1 55.870845667897584 -37.899827112601905 0 0 0 -1 I I #
coedge $-1 $433 $340 $341 $434 reversed $236 $-1 #
coedge $-1 $340 $432 $345 $438 forward $236 $-1 #
edge $-1 $441 -55.870845667897584 $435 -50.631971214643322 $432 $476 forward 7 unknown #
vertex $-1 $343 $477 #
straight-curve $-1 50.631971214643336 15.97048009223872 17.523768751166571 0 -1 0 I I #
straight-curve $-1 -6.4054428224262399 37.899827112601905 55.995991025334959 -0.82903756765294845 0 0.55919291073839883 I I #
edge $-1 $441 -17.523768751166575 $346 -13.990103246957903 $345 $478 forward 7 unknown #
point $-1 55.870845667897584 37.899827112601905 13.990103246957903 #
point $-1 50.631971214643322 25.982093256352979 17.523768751166578 #
vertex $-1 $352 $479 #
straight-curve $-1 55.870845667897584 0 17.523768751166575 0 1 0 I I #
vertex $-1 $355 $480 #
point $-1 52.651343731558825 28.365640027602772 13.973157685319716 #
vertex $-1 $359 $481 #
point $-1 52.651343731558825 31.940960184477454 13.973157685319716 #
vertex $-1 $363 $482 #
point $-1 52.651343731558825 35.516280341352136 13.973157685319716 #
edge $-1 $450 20.383652752680678 $453 29.340405834956385 $368 $483 forward 7 unknown #
vertex $-1 $382 $484 #
straight-curve $-1 -72.555864620182192 23.114183519851178 17.523768751166575 -1 0 0 I I #
edge $-1 $453 -13.930575798836735 $379 -4.4366396431921515 $378 $485 forward 7 unknown #
vertex $-1 $452 $486 #
straight-curve $-1 -55.870845667897569 23.114183519851178 8.5670156688908889 0.60181501223851219 0 0.79863551827123203 I I #
point $-1 -49.121448298875947 23.114183519851178 17.523768751166575 #
point $-1 -55.870845667897584 13.620247364206595 8.5670156688908694 #
straight-curve $-1 -55.870845667897584 0 17.523768751166575 0 -1 0 I I #
vertex $-1 $385 $487 #
point $-1 -51.225260604601722 15.519034595335512 12.71377848193463 #
vertex $-1 $389 $488 #
point $-1 -51.225260604601722 18.367215442028886 12.71377848193463 #
vertex $-1 $393 $489 #
point $-1 -51.225260604601722 21.21539628872226 12.71377848193463 #
straight-curve $-1 -55.870845667897584 37.899827112601905 0 0 0 -1 I I #
point $-1 -55.870845667897584 -37.899827112601905 -17.523768751166575 #
straight-curve $-1 -55.870845667897584 0 -17.523768751166575 0 1 0 I I #
point $-1 -55.870845667897584 37.899827112601905 -17.523768751166575 #
edge $-1 $430 -55.870845667897584 $470 55.870845667897584 $427 $490 forward 7 unknown #
straight-curve $-1 55.870845667897584 0 -17.523768751166575 0 -1 0 I I #
vertex $-1 $418 $491 #
straight-curve $-1 -55.870845667897584 0 -17.523768751166575 0 1 0 I I #
point $-1 -55.870845667897584 -24.371287248149549 -17.523768751166575 #
straight-curve $-1 -55.870845667897584 -24.371287248149549 -7.0154705126915973 0 0 -1 I I #
straight-curve $-1 -55.870845667897584 -37.899827112601905 0 0 0 -1 I I #
point $-1 55.870845667897584 -37.899827112601905 -17.523768751166575 #
straight-curve $-1 0 37.899827112601905 17.523768751166575 -1 0 0 I I #
point $-1 50.631971214643322 37.899827112601898 17.523768751166578 #
straight-curve $-1 55.870845667897584 37.899827112601905 0 0 0 -1 I I #
point $-1 55.870845667897584 37.899827112601905 17.523768751166575 #
point $-1 51.95722849236315 28.365640027602772 13.838235356862441 #
point $-1 51.95722849236315 31.940960184477454 13.838235356862441 #
point $-1 51.95722849236315 35.516280341352136 13.838235356862441 #
straight-curve $-1 -55.870845667897584 23.114183519851178 37.907421503847253 0 0 -1 I I #
point $-1 -55.870845667897584 23.114183519851178 17.523768751166575 #
straight-curve $-1 -55.870845667897584 9.1836077210144431 8.567015668890873 0 -1 0 I I #
point $-1 -55.870845667897584 23.114183519851178 8.5670156688908694 #
point $-1 -51.126850351585361 15.519034595335512 12.013553216679759 #
point $-1 -51.126850351585361 18.367215442028886 12.013553216679759 #
point $-1 -51.126850351585361 21.21539628872226 12.013553216679759 #
straight-curve $-1 0 -37.899827112601905 -17.523768751166575 -1 0 0 I I #
point $-1 -55.870845667897584 -37.899827112601905 -17.523768751166575 #
End-of-ACIS-data 