500 0 10 0           
7 Unknown 11 ACIS 5.0 NT 24 Fri Mar 26 20:43:27 1999 
-1 9.9999999999999995e-007 1e-010 
body $-1 $10 $-1 $11 #
body $-1 $12 $-1 $13 #
body $-1 $14 $-1 $15 #
body $-1 $16 $-1 $17 #
body $-1 $18 $-1 $19 #
body $-1 $20 $-1 $21 #
body $-1 $22 $-1 $23 #
body $-1 $24 $-1 $25 #
body $-1 $26 $-1 $27 #
body $-1 $28 $-1 $29 #
lump $-1 $-1 $30 $0 #
transform $-1 1 0 0 0 1 0 0 0 1 49.742728965117344 29.050622053925228 13.694672646814217 1 rotate no_reflect no_shear #
lump $-1 $-1 $31 $1 #
transform $-1 1 0 0 0 1 0 0 0 1 49.742728965117344 29.050622053925228 13.694672646814217 1 rotate no_reflect no_shear #
lump $-1 $-1 $32 $2 #
transform $-1 1 0 0 0 1 0 0 0 1 49.742728965117344 29.050622053925228 13.694672646814217 1 rotate no_reflect no_shear #
lump $-1 $-1 $33 $3 #
transform $-1 1 0 0 0 1 0 0 0 1 49.742728965117344 29.050622053925228 13.694672646814217 1 rotate no_reflect no_shear #
lump $-1 $-1 $34 $4 #
transform $-1 1 0 0 0 1 0 0 0 1 49.742728965117344 29.050622053925228 13.694672646814217 1 rotate no_reflect no_shear #
lump $-1 $-1 $35 $5 #
transform $-1 1 0 0 0 1 0 0 0 1 49.742728965117344 29.050622053925228 13.694672646814217 1 rotate no_reflect no_shear #
lump $-1 $-1 $36 $6 #
transform $-1 1 0 0 0 1 0 0 0 1 49.742728965117344 29.050622053925228 13.694672646814217 1 rotate no_reflect no_shear #
lump $-1 $-1 $37 $7 #
transform $-1 1 0 0 0 1 0 0 0 1 49.742728965117344 29.050622053925228 13.694672646814217 1 rotate no_reflect no_shear #
lump $-1 $-1 $38 $8 #
transform $-1 1 0 0 0 1 0 0 0 1 49.742728965117344 29.050622053925228 13.694672646814217 1 rotate no_reflect no_shear #
lump $-1 $-1 $39 $9 #
transform $-1 1 0 0 0 1 0 0 0 1 49.742728965117344 29.050622053925228 13.694672646814217 1 rotate no_reflect no_shear #
shell $-1 $-1 $-1 $40 $-1 $10 #
shell $-1 $-1 $-1 $41 $-1 $12 #
shell $-1 $-1 $-1 $42 $-1 $14 #
shell $-1 $-1 $-1 $43 $-1 $16 #
shell $-1 $-1 $-1 $44 $-1 $18 #
shell $-1 $-1 $-1 $45 $-1 $20 #
shell $-1 $-1 $-1 $46 $-1 $22 #
shell $-1 $-1 $-1 $47 $-1 $24 #
shell $-1 $-1 $-1 $48 $-1 $26 #
shell $-1 $-1 $-1 $49 $-1 $28 #
face $-1 $50 $51 $30 $-1 $52 forward single #
face $-1 $53 $54 $31 $-1 $55 reversed single #
face $-1 $56 $57 $32 $-1 $58 reversed single #
face $-1 $59 $60 $33 $-1 $61 forward single #
face $-1 $62 $63 $34 $-1 $64 forward single #
face $-1 $65 $66 $35 $-1 $67 forward single #
face $-1 $68 $69 $36 $-1 $70 reversed single #
face $-1 $71 $72 $37 $-1 $73 forward single #
face $-1 $74 $75 $38 $-1 $76 forward single #
face $-1 $77 $78 $39 $-1 $79 forward single #
face $-1 $80 $81 $30 $-1 $82 reversed single #
loop $-1 $-1 $83 $40 #
plane-surface $-1 0 0 13.694672646814217 0 0 1 1 0 0 forward_v I I I I #
face $-1 $84 $85 $31 $-1 $86 reversed single #
loop $-1 $-1 $87 $41 #
plane-surface $-1 -41.630381370394645 0 9.8236195449335888 0 0 1 1 0 0 forward_v I I I I #
face $-1 $88 $89 $32 $-1 $90 reversed single #
loop $-1 $-1 $91 $42 #
plane-surface $-1 -18.092381017548576 -112.48614835489948 63.353462316849949 -1 0 0 0 -0.83867057594974714 0.54463902268945019 forward_v I I I I #
face $-1 $92 $93 $33 $-1 $94 forward single #
loop $-1 $95 $96 $43 #
cone-surface $-1 -28.274145484919483 -27.162043400576369 11.159916681019649 0 0.83867057594974714 -0.54463902268945019 0.5 0 0 1 I I 0 1 0.5 forward I I I I #
face $-1 $97 $98 $34 $-1 $99 forward single #
loop $-1 $100 $101 $44 #
cone-surface $-1 -24.455983809655393 -27.162043400576369 11.159916681019649 0 0.83867057594974714 -0.54463902268945019 0.5 0 0 1 I I 0 1 0.5 forward I I I I #
face $-1 $102 $103 $35 $-1 $104 forward single #
loop $-1 $105 $106 $45 #
cone-surface $-1 -20.6378221343913 -27.162043400576369 11.159916681019649 0 0.83867057594974714 -0.54463902268945019 0.5 0 0 1 I I 0 1 0.5 forward I I I I #
face $-1 $107 $108 $36 $-1 $109 reversed single #
loop $-1 $-1 $110 $46 #
plane-surface $-1 23.538000352846062 -112.48614835489948 63.353462316849949 -1 0 0 0 -0.83867057594974714 0.54463902268945019 forward_v I I I I #
face $-1 $111 $112 $37 $-1 $113 forward single #
loop $-1 $114 $115 $47 #
cone-surface $-1 13.356235885475165 -27.162043400576369 11.159916681019649 0 0.83867057594974714 -0.54463902268945019 0.5 0 0 1 I I 0 1 0.5 forward I I I I #
face $-1 $116 $117 $38 $-1 $118 forward single #
loop $-1 $119 $120 $48 #
cone-surface $-1 17.174397560739244 -27.162043400576369 11.159916681019649 0 0.83867057594974714 -0.54463902268945019 0.5 0 0 1 I I 0 1 0.5 forward I I I I #
face $-1 $121 $122 $39 $-1 $123 forward single #
loop $-1 $124 $125 $49 #
cone-surface $-1 20.992559236003338 -27.162043400576369 11.159916681019649 0 0.83867057594974714 -0.54463902268945019 0.5 0 0 1 I I 0 1 0.5 forward I I I I #
face $-1 $126 $127 $30 $-1 $128 reversed single #
loop $-1 $-1 $129 $50 #
plane-surface $-1 0 0 -13.694672646814217 0 0 1 1 0 0 forward_v I I I I #
coedge $-1 $130 $131 $132 $133 forward $51 $-1 #
face $-1 $134 $135 $31 $-1 $136 reversed single #
loop $-1 $-1 $137 $53 #
plane-surface $-1 -33.518033775671945 0 11.759146095873904 -1 0 0 0 0 1 forward_v I I I I #
coedge $-1 $138 $139 $140 $141 forward $54 $-1 #
face $-1 $142 $143 $32 $-1 $144 reversed single #
loop $-1 $-1 $145 $56 #
plane-surface $-1 -24.455983809655393 -29.050622053925224 9.1697997379145164 0 -0.83867057594974714 0.54463902268945019 1 0 0 forward_v I I I I #
coedge $-1 $146 $147 $148 $149 reversed $57 $-1 #
face $-1 $-1 $150 $33 $-1 $151 forward single #
loop $-1 $152 $153 $59 #
cone-surface $-1 -28.274145484919483 -26.533040468614058 10.751437414002561 0 0.83867057594974714 -0.54463902268945019 0.25 0 0 1 I I -0.70710678118654746 0.70710678118654746 0.25 forward I I I I #
loop $-1 $-1 $154 $43 #
coedge $-1 $96 $96 $155 $156 reversed $60 $-1 #
face $-1 $-1 $157 $34 $-1 $158 forward single #
loop $-1 $159 $160 $62 #
cone-surface $-1 -24.455983809655393 -26.533040468614058 10.751437414002561 0 0.83867057594974714 -0.54463902268945019 0.25 0 0 1 I I -0.70710678118654746 0.70710678118654746 0.25 forward I I I I #
loop $-1 $-1 $161 $44 #
coedge $-1 $101 $101 $162 $163 reversed $63 $-1 #
face $-1 $-1 $164 $35 $-1 $165 forward single #
loop $-1 $166 $167 $65 #
cone-surface $-1 -20.6378221343913 -26.533040468614058 10.751437414002561 0 0.83867057594974714 -0.54463902268945019 0.25 0 0 1 I I -0.70710678118654746 0.70710678118654746 0.25 forward I I I I #
loop $-1 $-1 $168 $45 #
coedge $-1 $106 $106 $169 $170 reversed $66 $-1 #
face $-1 $171 $172 $36 $-1 $173 reversed single #
loop $-1 $-1 $174 $68 #
plane-surface $-1 17.174397560739244 -29.050622053925224 9.1697997379145164 0 -0.83867057594974714 0.54463902268945019 1 0 0 forward_v I I I I #
coedge $-1 $175 $176 $177 $178 reversed $69 $-1 #
face $-1 $-1 $179 $37 $-1 $180 forward single #
loop $-1 $181 $182 $71 #
cone-surface $-1 13.356235885475165 -26.533040468614058 10.751437414002561 0 0.83867057594974714 -0.54463902268945019 0.25 0 0 1 I I -0.70710678118654746 0.70710678118654746 0.25 forward I I I I #
loop $-1 $-1 $183 $47 #
coedge $-1 $115 $115 $184 $185 reversed $72 $-1 #
face $-1 $-1 $186 $38 $-1 $187 forward single #
loop $-1 $188 $189 $74 #
cone-surface $-1 17.174397560739244 -26.533040468614058 10.751437414002561 0 0.83867057594974714 -0.54463902268945019 0.25 0 0 1 I I -0.70710678118654746 0.70710678118654746 0.25 forward I I I I #
loop $-1 $-1 $190 $48 #
coedge $-1 $120 $120 $191 $192 reversed $75 $-1 #
face $-1 $-1 $193 $39 $-1 $194 forward single #
loop $-1 $195 $196 $77 #
cone-surface $-1 20.992559236003338 -26.533040468614058 10.751437414002561 0 0.83867057594974714 -0.54463902268945019 0.25 0 0 1 I I -0.70710678118654746 0.70710678118654746 0.25 forward I I I I #
loop $-1 $-1 $197 $49 #
coedge $-1 $125 $125 $198 $199 reversed $78 $-1 #
face $-1 $200 $201 $30 $-1 $202 reversed single #
loop $-1 $-1 $203 $80 #
plane-surface $-1 0 -29.050622053925228 0 0 1 0 0 0 1 forward_v I I I I #
coedge $-1 $204 $205 $206 $207 forward $81 $-1 #
coedge $-1 $208 $83 $209 $210 forward $51 $-1 #
coedge $-1 $83 $208 $211 $212 forward $51 $-1 #
coedge $-1 $213 $214 $83 $133 reversed $215 $-1 #
edge $-1 $216 -29.050622053925228 $217 29.050622053925228 $132 $218 forward 7 unknown #
face $-1 $219 $220 $31 $-1 $221 reversed single #
loop $-1 $-1 $222 $84 #
plane-surface $-1 0 29.050622053925228 0 0 -1 0 0 0 -1 forward_v I I I I #
coedge $-1 $140 $223 $224 $225 reversed $85 $-1 #
coedge $-1 $226 $87 $227 $228 reversed $54 $-1 #
coedge $-1 $87 $226 $229 $230 reversed $54 $-1 #
coedge $-1 $231 $137 $87 $141 reversed $85 $-1 #
edge $-1 $232 -29.050622053925228 $233 29.050622053925228 $140 $234 forward 7 unknown #
face $-1 $235 $236 $32 $-1 $237 reversed single #
loop $-1 $-1 $238 $88 #
plane-surface $-1 -30.819586601762211 -112.48614835489948 63.353462316849949 1 0 0 0 0.83867057594974714 -0.54463902268945019 forward_v I I I I #
coedge $-1 $239 $240 $241 $242 reversed $89 $-1 #
coedge $-1 $147 $91 $243 $244 reversed $57 $-1 #
coedge $-1 $91 $146 $239 $245 reversed $57 $-1 #
coedge $-1 $241 $246 $91 $149 forward $247 $-1 #
edge $-1 $248 27.192452123524514 $249 30.130938854272504 $148 $250 forward 7 unknown #
loop $-1 $-1 $155 $92 #
plane-surface $-1 -24.455983809655393 -29.050622053925224 9.1697997379145164 0 -0.83867057594974714 0.54463902268945019 1 0 0 forward_v I I I I #
loop $-1 $-1 $251 $59 #
coedge $-1 $153 $153 $154 $252 reversed $93 $-1 #
coedge $-1 $154 $154 $153 $252 forward $95 $-1 #
coedge $-1 $155 $155 $96 $156 forward $150 $-1 #
edge $-1 $253 7.1579961122514191e-015 $253 6.2831853071796075 $155 $254 forward 7 unknown #
loop $-1 $-1 $162 $97 #
plane-surface $-1 -24.455983809655393 -29.050622053925224 9.1697997379145164 0 -0.83867057594974714 0.54463902268945019 1 0 0 forward_v I I I I #
loop $-1 $-1 $255 $62 #
coedge $-1 $160 $160 $161 $256 reversed $98 $-1 #
coedge $-1 $161 $161 $160 $256 forward $100 $-1 #
coedge $-1 $162 $162 $101 $163 forward $157 $-1 #
edge $-1 $257 7.1579961122514191e-015 $257 6.2831853071796075 $162 $258 forward 7 unknown #
loop $-1 $-1 $169 $102 #
plane-surface $-1 -24.455983809655393 -29.050622053925224 9.1697997379145164 0 -0.83867057594974714 0.54463902268945019 1 0 0 forward_v I I I I #
loop $-1 $-1 $259 $65 #
coedge $-1 $167 $167 $168 $260 reversed $103 $-1 #
coedge $-1 $168 $168 $167 $260 forward $105 $-1 #
coedge $-1 $169 $169 $106 $170 forward $164 $-1 #
edge $-1 $261 7.1579961122514191e-015 $261 6.2831853071796075 $169 $262 forward 7 unknown #
face $-1 $263 $264 $36 $-1 $265 reversed single #
loop $-1 $-1 $266 $107 #
plane-surface $-1 10.810794768632425 -112.48614835489948 63.353462316849949 1 0 0 0 0.83867057594974714 -0.54463902268945019 forward_v I I I I #
coedge $-1 $267 $268 $269 $270 reversed $108 $-1 #
coedge $-1 $176 $110 $271 $272 reversed $69 $-1 #
coedge $-1 $110 $175 $267 $273 reversed $69 $-1 #
coedge $-1 $269 $274 $110 $178 forward $275 $-1 #
edge $-1 $276 27.192452123524514 $277 30.130938854272504 $177 $278 forward 7 unknown #
loop $-1 $-1 $184 $111 #
plane-surface $-1 17.174397560739244 -29.050622053925224 9.1697997379145164 0 -0.83867057594974714 0.54463902268945019 1 0 0 forward_v I I I I #
loop $-1 $-1 $279 $71 #
coedge $-1 $182 $182 $183 $280 reversed $112 $-1 #
coedge $-1 $183 $183 $182 $280 forward $114 $-1 #
coedge $-1 $184 $184 $115 $185 forward $179 $-1 #
edge $-1 $281 7.1579961122514191e-015 $281 6.2831853071796075 $184 $282 forward 7 unknown #
loop $-1 $-1 $191 $116 #
plane-surface $-1 17.174397560739244 -29.050622053925224 9.1697997379145164 0 -0.83867057594974714 0.54463902268945019 1 0 0 forward_v I I I I #
loop $-1 $-1 $283 $74 #
coedge $-1 $189 $189 $190 $284 reversed $117 $-1 #
coedge $-1 $190 $190 $189 $284 forward $119 $-1 #
coedge $-1 $191 $191 $120 $192 forward $186 $-1 #
edge $-1 $285 7.1579961122514191e-015 $285 6.2831853071796075 $191 $286 forward 7 unknown #
loop $-1 $-1 $198 $121 #
plane-surface $-1 17.174397560739244 -29.050622053925224 9.1697997379145164 0 -0.83867057594974714 0.54463902268945019 1 0 0 forward_v I I I I #
loop $-1 $-1 $287 $77 #
coedge $-1 $196 $196 $197 $288 reversed $122 $-1 #
coedge $-1 $197 $197 $196 $288 forward $124 $-1 #
coedge $-1 $198 $198 $125 $199 forward $193 $-1 #
edge $-1 $289 7.1579961122514191e-015 $289 6.2831853071796075 $198 $290 forward 7 unknown #
face $-1 $291 $292 $30 $-1 $293 reversed single #
loop $-1 $-1 $294 $126 #
plane-surface $-1 -49.742728965117344 0 0 1 0 0 0 0 -1 forward_v I I I I #
coedge $-1 $295 $211 $296 $297 forward $127 $-1 #
coedge $-1 $298 $129 $295 $299 forward $81 $-1 #
coedge $-1 $129 $298 $300 $301 forward $81 $-1 #
coedge $-1 $214 $213 $129 $207 reversed $215 $-1 #
edge $-1 $302 -29.050622053925228 $303 29.050622053925228 $206 $304 forward 7 unknown #
coedge $-1 $131 $130 $305 $306 forward $51 $-1 #
coedge $-1 $307 $308 $130 $210 reversed $292 $-1 #
edge $-1 $217 -49.742728965117344 $309 49.742728965117344 $209 $310 forward 7 unknown #
coedge $-1 $203 $311 $131 $212 reversed $127 $-1 #
edge $-1 $312 -49.742728965117344 $216 49.742728965117344 $211 $313 forward 7 unknown #
coedge $-1 $206 $132 $311 $314 forward $215 $-1 #
coedge $-1 $132 $206 $307 $315 reversed $215 $-1 #
loop $-1 $-1 $213 $291 #
vertex $-1 $133 $316 #
vertex $-1 $133 $317 #
straight-curve $-1 49.742728965117344 0 13.694672646814217 0 1 0 I I #
face $-1 $318 $319 $31 $-1 $320 forward single #
loop $-1 $-1 $321 $134 #
plane-surface $-1 -49.742728965117344 0 0 1 0 0 0 0 -1 forward_v I I I I #
coedge $-1 $229 $322 $231 $323 forward $135 $-1 #
coedge $-1 $137 $231 $324 $325 reversed $85 $-1 #
coedge $-1 $326 $227 $137 $225 forward $327 $-1 #
edge $-1 $233 3.9440464969966369 $328 7.8150995988772669 $224 $329 forward 7 unknown #
coedge $-1 $139 $138 $321 $330 reversed $54 $-1 #
coedge $-1 $224 $331 $138 $228 forward $327 $-1 #
edge $-1 $332 -28.927538279920022 $233 -12.702843090474623 $227 $333 forward 7 unknown #
coedge $-1 $334 $222 $139 $230 forward $135 $-1 #
edge $-1 $232 12.702843090474623 $335 28.927538279920022 $229 $336 forward 7 unknown #
coedge $-1 $223 $140 $222 $323 reversed $85 $-1 #
vertex $-1 $230 $337 #
vertex $-1 $228 $338 #
straight-curve $-1 -33.518033775671945 0 9.8236195449335888 0 -1 0 I I #
face $-1 $-1 $247 $32 $-1 $339 forward single #
loop $-1 $-1 $340 $142 #
plane-surface $-1 0 -29.050622053925228 0 0 1 0 0 0 1 forward_v I I I I #
coedge $-1 $341 $342 $343 $344 reversed $143 $-1 #
coedge $-1 $345 $145 $147 $245 forward $89 $-1 #
coedge $-1 $145 $345 $341 $346 forward $89 $-1 #
coedge $-1 $343 $148 $145 $242 forward $247 $-1 #
edge $-1 $249 5.8643891127208789 $347 18.591594696934514 $241 $348 forward 7 unknown #
coedge $-1 $349 $350 $146 $244 forward $236 $-1 #
edge $-1 $351 -22.506931420510462 $248 -17.982058511610759 $243 $352 forward 7 unknown #
edge $-1 $249 -5.3952923098268197 $351 6.4042811466935879e-015 $147 $353 forward 7 unknown #
coedge $-1 $148 $343 $349 $354 forward $247 $-1 #
loop $-1 $-1 $343 $235 #
vertex $-1 $244 $355 #
vertex $-1 $149 $356 #
straight-curve $-1 -18.092381017548576 -56.243074177449742 13.694672646814219 0 1 0 I I #
coedge $-1 $251 $251 $-1 $357 reversed $152 $-1 #
edge $-1 $358 0 $358 6.2831853071796004 $153 $359 forward 7 unknown #
vertex $-1 $156 $360 #
ellipse-curve $-1 -28.274145484919483 -27.581378688551233 11.432236192364366 0 -0.83867057594974714 0.54463902268945019 0.5 0 0 1 I I #
coedge $-1 $255 $255 $-1 $361 reversed $159 $-1 #
edge $-1 $362 0 $362 6.2831853071796004 $160 $363 forward 7 unknown #
vertex $-1 $163 $364 #
ellipse-curve $-1 -24.455983809655393 -27.581378688551233 11.432236192364366 0 -0.83867057594974714 0.54463902268945019 0.5 0 0 1 I I #
coedge $-1 $259 $259 $-1 $365 reversed $166 $-1 #
edge $-1 $366 0 $366 6.2831853071796004 $167 $367 forward 7 unknown #
vertex $-1 $170 $368 #
ellipse-curve $-1 -20.6378221343913 -27.581378688551233 11.432236192364366 0 -0.83867057594974714 0.54463902268945019 0.5 0 0 1 I I #
face $-1 $-1 $275 $36 $-1 $369 forward single #
loop $-1 $-1 $370 $171 #
plane-surface $-1 0 -29.050622053925228 0 0 1 0 0 0 1 forward_v I I I I #
coedge $-1 $371 $372 $373 $374 reversed $172 $-1 #
coedge $-1 $375 $174 $176 $273 forward $108 $-1 #
coedge $-1 $174 $375 $371 $376 forward $108 $-1 #
coedge $-1 $373 $177 $174 $270 forward $275 $-1 #
edge $-1 $277 -14.95080157247644 $377 -2.2235959882628027 $269 $378 forward 7 unknown #
coedge $-1 $379 $380 $175 $272 forward $264 $-1 #
edge $-1 $381 -22.506931420510462 $276 -17.982058511610759 $271 $382 forward 7 unknown #
edge $-1 $277 -5.3952923098268197 $381 6.4042811466935879e-015 $176 $383 forward 7 unknown #
coedge $-1 $177 $373 $379 $384 forward $275 $-1 #
loop $-1 $-1 $373 $263 #
vertex $-1 $272 $385 #
vertex $-1 $178 $386 #
straight-curve $-1 23.538000352846062 -56.243074177449742 13.694672646814219 0 1 0 I I #
coedge $-1 $279 $279 $-1 $387 reversed $181 $-1 #
edge $-1 $388 0 $388 6.2831853071796004 $182 $389 forward 7 unknown #
vertex $-1 $185 $390 #
ellipse-curve $-1 13.356235885475165 -27.581378688551233 11.432236192364366 0 -0.83867057594974714 0.54463902268945019 0.5 0 0 1 I I #
coedge $-1 $283 $283 $-1 $391 reversed $188 $-1 #
edge $-1 $392 0 $392 6.2831853071796004 $189 $393 forward 7 unknown #
vertex $-1 $192 $394 #
ellipse-curve $-1 17.174397560739244 -27.581378688551233 11.432236192364366 0 -0.83867057594974714 0.54463902268945019 0.5 0 0 1 I I #
coedge $-1 $287 $287 $-1 $395 reversed $195 $-1 #
edge $-1 $396 0 $396 6.2831853071796004 $196 $397 forward 7 unknown #
vertex $-1 $199 $398 #
ellipse-curve $-1 20.992559236003338 -27.581378688551233 11.432236192364366 0 -0.83867057594974714 0.54463902268945019 0.5 0 0 1 I I #
face $-1 $-1 $215 $30 $-1 $399 reversed single #
loop $-1 $-1 $307 $200 #
plane-surface $-1 0 29.050622053925228 0 0 -1 0 0 0 -1 forward_v I I I I #
coedge $-1 $400 $305 $308 $401 forward $201 $-1 #
coedge $-1 $311 $203 $204 $299 reversed $127 $-1 #
coedge $-1 $305 $400 $203 $297 reversed $201 $-1 #
edge $-1 $312 -13.694672646814217 $402 13.694672646814217 $296 $403 forward 7 unknown #
coedge $-1 $205 $204 $400 $404 forward $81 $-1 #
edge $-1 $303 -49.742728965117344 $402 49.742728965117344 $295 $405 forward 7 unknown #
coedge $-1 $308 $307 $205 $301 reversed $292 $-1 #
edge $-1 $406 -49.742728965117344 $302 49.742728965117344 $300 $407 forward 7 unknown #
vertex $-1 $207 $408 #
vertex $-1 $314 $409 #
straight-curve $-1 49.742728965117344 0 -13.694672646814217 0 -1 0 I I #
coedge $-1 $294 $296 $208 $306 reversed $201 $-1 #
edge $-1 $309 -29.050622053925228 $312 29.050622053925228 $305 $410 forward 7 unknown #
coedge $-1 $300 $209 $214 $315 forward $292 $-1 #
coedge $-1 $209 $300 $294 $401 reversed $292 $-1 #
vertex $-1 $210 $411 #
straight-curve $-1 0 29.050622053925228 13.694672646814217 -1 0 0 I I #
coedge $-1 $211 $295 $213 $314 reversed $127 $-1 #
vertex $-1 $306 $412 #
straight-curve $-1 0 -29.050622053925228 13.694672646814217 1 0 0 I I #
edge $-1 $216 -13.694672646814217 $303 13.694672646814217 $213 $413 forward 7 unknown #
edge $-1 $217 -13.694672646814217 $302 13.694672646814217 $214 $414 forward 7 unknown #
point $-1 49.742728965117344 -29.050622053925228 13.694672646814217 #
point $-1 49.742728965117344 29.050622053925228 13.694672646814217 #
face $-1 $-1 $327 $31 $-1 $415 reversed single #
loop $-1 $-1 $324 $219 #
plane-surface $-1 0 0 13.694672646814217 0 0 1 1 0 0 forward_v I I I I #
coedge $-1 $416 $417 $226 $330 forward $220 $-1 #
coedge $-1 $222 $334 $418 $419 reversed $135 $-1 #
edge $-1 $420 -7.8150995988772669 $232 -3.9440464969966369 $222 $421 forward 7 unknown #
coedge $-1 $418 $422 $223 $325 forward $319 $-1 #
edge $-1 $328 -29.050622053925228 $420 29.050622053925228 $324 $423 forward 7 unknown #
coedge $-1 $331 $224 $422 $424 reversed $327 $-1 #
loop $-1 $-1 $224 $318 #
vertex $-1 $225 $425 #
straight-curve $-1 -33.518033775671945 -29.050622053925228 5.8795730479369519 0 0 1 I I #
edge $-1 $335 -29.050622053925228 $332 29.050622053925228 $321 $426 forward 7 unknown #
coedge $-1 $227 $326 $416 $427 forward $327 $-1 #
vertex $-1 $330 $428 #
straight-curve $-1 -20.815190685197322 -29.050622053925228 9.8236195449335888 1 0 0 I I #
coedge $-1 $322 $229 $417 $429 reversed $135 $-1 #
vertex $-1 $330 $430 #
straight-curve $-1 -20.815190685197322 29.050622053925228 9.8236195449335888 -1 0 0 I I #
point $-1 -33.518033775671945 29.050622053925228 9.8236195449335888 #
point $-1 -33.518033775671945 -29.050622053925228 9.8236195449335888 #
plane-surface $-1 0 0 13.694672646814217 0 0 1 1 0 0 forward_v I I I I #
coedge $-1 $350 $349 $342 $431 forward $236 $-1 #
coedge $-1 $342 $238 $240 $346 reversed $143 $-1 #
coedge $-1 $238 $341 $340 $431 reversed $143 $-1 #
coedge $-1 $246 $241 $238 $344 forward $247 $-1 #
edge $-1 $347 -30.130938854272504 $432 -27.192452123524514 $343 $433 forward 7 unknown #
coedge $-1 $240 $239 $350 $434 reversed $89 $-1 #
edge $-1 $435 -6.4042811466935879e-015 $347 5.3952923098268197 $341 $436 forward 7 unknown #
vertex $-1 $242 $437 #
straight-curve $-1 -12.227991904827697 -26.112135323177238 13.694672646814217 -1 0 0 I I #
coedge $-1 $340 $243 $246 $354 reversed $236 $-1 #
coedge $-1 $243 $340 $345 $434 forward $236 $-1 #
vertex $-1 $244 $438 #
straight-curve $-1 -18.092381017548576 -29.050622053925224 31.676731158424975 0 0 1 I I #
straight-curve $-1 -18.092381017548576 -29.050622053925224 9.1697997379145164 0 -0.54463902268945019 -0.83867057594974714 I I #
edge $-1 $432 -30.819586601762211 $248 -18.092381017548576 $349 $439 forward 7 unknown #
point $-1 -18.092381017548576 -29.050622053925228 13.694672646814217 #
point $-1 -18.092381017548576 -26.112135323177238 13.694672646814217 #
edge $-1 $440 1 $440 0 $251 $-1 forward 7 unknown #
vertex $-1 $252 $441 #
ellipse-curve $-1 -28.274145484919483 -26.742708112601495 10.887597169674924 0 -0.83867057594974714 0.54463902268945019 0.5 0 0 1 I I #
point $-1 -27.774145484919483 -27.58137868855124 11.432236192364375 #
edge $-1 $442 1 $442 0 $255 $-1 forward 7 unknown #
vertex $-1 $256 $443 #
ellipse-curve $-1 -24.455983809655393 -26.742708112601495 10.887597169674924 0 -0.83867057594974714 0.54463902268945019 0.5 0 0 1 I I #
point $-1 -23.955983809655393 -27.58137868855124 11.432236192364375 #
edge $-1 $444 1 $444 0 $259 $-1 forward 7 unknown #
vertex $-1 $260 $445 #
ellipse-curve $-1 -20.6378221343913 -26.742708112601495 10.887597169674924 0 -0.83867057594974714 0.54463902268945019 0.5 0 0 1 I I #
point $-1 -20.1378221343913 -27.58137868855124 11.432236192364375 #
plane-surface $-1 0 0 13.694672646814217 0 0 1 1 0 0 forward_v I I I I #
coedge $-1 $380 $379 $372 $446 forward $264 $-1 #
coedge $-1 $372 $266 $268 $376 reversed $172 $-1 #
coedge $-1 $266 $371 $370 $446 reversed $172 $-1 #
coedge $-1 $274 $269 $266 $374 forward $275 $-1 #
edge $-1 $377 -30.130938854272504 $447 -27.192452123524514 $373 $448 forward 7 unknown #
coedge $-1 $268 $267 $380 $449 reversed $108 $-1 #
edge $-1 $450 -6.4042811466935879e-015 $377 5.3952923098268197 $371 $451 forward 7 unknown #
vertex $-1 $270 $452 #
straight-curve $-1 8.5871987803696221 -26.112135323177238 13.694672646814217 -1 0 0 I I #
coedge $-1 $370 $271 $274 $384 reversed $264 $-1 #
coedge $-1 $271 $370 $375 $449 forward $264 $-1 #
vertex $-1 $272 $453 #
straight-curve $-1 23.538000352846062 -29.050622053925224 31.676731158424975 0 0 1 I I #
straight-curve $-1 23.538000352846062 -29.050622053925224 9.1697997379145164 0 -0.54463902268945019 -0.83867057594974714 I I #
edge $-1 $447 10.810794768632425 $276 23.538000352846062 $379 $454 forward 7 unknown #
point $-1 23.538000352846062 -29.050622053925228 13.694672646814217 #
point $-1 23.538000352846062 -26.112135323177238 13.694672646814217 #
edge $-1 $455 1 $455 0 $279 $-1 forward 7 unknown #
vertex $-1 $280 $456 #
ellipse-curve $-1 13.356235885475165 -26.742708112601495 10.887597169674924 0 -0.83867057594974714 0.54463902268945019 0.5 0 0 1 I I #
point $-1 13.856235885475165 -27.58137868855124 11.432236192364375 #
edge $-1 $457 1 $457 0 $283 $-1 forward 7 unknown #
vertex $-1 $284 $458 #
ellipse-curve $-1 17.174397560739244 -26.742708112601495 10.887597169674924 0 -0.83867057594974714 0.54463902268945019 0.5 0 0 1 I I #
point $-1 17.674397560739244 -27.58137868855124 11.432236192364375 #
edge $-1 $459 1 $459 0 $287 $-1 forward 7 unknown #
vertex $-1 $288 $460 #
ellipse-curve $-1 20.992559236003338 -26.742708112601495 10.887597169674924 0 -0.83867057594974714 0.54463902268945019 0.5 0 0 1 I I #
point $-1 21.492559236003338 -27.58137868855124 11.432236192364375 #
plane-surface $-1 49.742728965117344 0 0 -1 0 0 0 0 1 forward_v I I I I #
coedge $-1 $296 $294 $298 $404 reversed $201 $-1 #
edge $-1 $309 -13.694672646814217 $406 13.694672646814217 $308 $461 forward 7 unknown #
vertex $-1 $404 $462 #
straight-curve $-1 -49.742728965117344 -29.050622053925228 0 0 0 -1 I I #
edge $-1 $402 -29.050622053925228 $406 29.050622053925228 $400 $463 forward 7 unknown #
straight-curve $-1 0 -29.050622053925228 -13.694672646814217 -1 0 0 I I #
vertex $-1 $301 $464 #
straight-curve $-1 0 29.050622053925228 -13.694672646814217 1 0 0 I I #
point $-1 49.742728965117344 29.050622053925228 -13.694672646814217 #
point $-1 49.742728965117344 -29.050622053925228 -13.694672646814217 #
straight-curve $-1 -49.742728965117344 0 13.694672646814217 0 -1 0 I I #
point $-1 -49.742728965117344 29.050622053925228 13.694672646814217 #
point $-1 -49.742728965117344 -29.050622053925228 13.694672646814217 #
straight-curve $-1 49.742728965117344 -29.050622053925228 0 0 0 -1 I I #
straight-curve $-1 49.742728965117344 29.050622053925228 0 0 0 -1 I I #
plane-surface $-1 0 -29.050622053925228 0 0 1 0 0 0 1 forward_v I I I I #
coedge $-1 $465 $321 $331 $427 reversed $220 $-1 #
coedge $-1 $321 $465 $334 $429 forward $220 $-1 #
coedge $-1 $466 $324 $322 $419 forward $319 $-1 #
edge $-1 $420 33.518033775671945 $467 49.742728965117344 $322 $468 forward 7 unknown #
vertex $-1 $419 $469 #
straight-curve $-1 -33.518033775671945 29.050622053925228 5.8795730479369519 0 0 -1 I I #
coedge $-1 $324 $466 $326 $424 forward $319 $-1 #
straight-curve $-1 -33.518033775671945 0 13.694672646814217 0 1 0 I I #
edge $-1 $470 -49.742728965117344 $328 -33.518033775671945 $326 $471 forward 7 unknown #
point $-1 -33.518033775671945 -29.050622053925228 13.694672646814219 #
straight-curve $-1 -49.742728965117344 0 9.8236195449335888 0 -1 0 I I #
edge $-1 $470 -13.694672646814217 $332 -9.8236195449335888 $416 $472 forward 7 unknown #
point $-1 -49.742728965117344 -29.050622053925228 9.8236195449335888 #
edge $-1 $467 -13.694672646814217 $335 -9.8236195449335888 $334 $473 forward 7 unknown #
point $-1 -49.742728965117344 29.050622053925228 9.8236195449335888 #
edge $-1 $432 17.982058511610759 $435 22.506931420510462 $340 $474 forward 7 unknown #
vertex $-1 $354 $475 #
straight-curve $-1 -30.819586601762211 -56.243074177449742 13.694672646814219 0 -1 0 I I #
edge $-1 $435 -18.591594696934514 $351 -5.8643891127208789 $350 $476 forward 7 unknown #
vertex $-1 $434 $477 #
straight-curve $-1 -30.819586601762211 -29.050622053925224 9.1697997379145164 0 0.54463902268945019 0.83867057594974714 I I #
point $-1 -30.819586601762211 -26.112135323177238 13.694672646814217 #
point $-1 -18.092381017548576 -29.050622053925228 9.1697997379145111 #
straight-curve $-1 0 -29.050622053925228 13.694672646814217 1 0 0 I I #
vertex $-1 $357 $478 #
point $-1 -27.774145484919483 -26.742708112601495 10.887597169674924 #
vertex $-1 $361 $479 #
point $-1 -23.955983809655393 -26.742708112601495 10.887597169674924 #
vertex $-1 $365 $480 #
point $-1 -20.1378221343913 -26.742708112601495 10.887597169674924 #
edge $-1 $447 17.982058511610759 $450 22.506931420510462 $370 $481 forward 7 unknown #
vertex $-1 $384 $482 #
straight-curve $-1 10.810794768632425 -56.243074177449742 13.694672646814219 0 -1 0 I I #
edge $-1 $450 2.2235959882628027 $381 14.95080157247644 $380 $483 forward 7 unknown #
vertex $-1 $449 $484 #
straight-curve $-1 10.810794768632425 -29.050622053925224 9.1697997379145164 0 0.54463902268945019 0.83867057594974714 I I #
point $-1 10.810794768632425 -26.112135323177238 13.694672646814217 #
point $-1 23.538000352846062 -29.050622053925228 9.1697997379145111 #
straight-curve $-1 0 -29.050622053925228 13.694672646814217 1 0 0 I I #
vertex $-1 $387 $485 #
point $-1 13.856235885475165 -26.742708112601495 10.887597169674924 #
vertex $-1 $391 $486 #
point $-1 17.674397560739244 -26.742708112601495 10.887597169674924 #
vertex $-1 $395 $487 #
point $-1 21.492559236003338 -26.742708112601495 10.887597169674924 #
straight-curve $-1 -49.742728965117344 29.050622053925228 0 0 0 -1 I I #
point $-1 -49.742728965117344 -29.050622053925228 -13.694672646814217 #
straight-curve $-1 -49.742728965117344 0 -13.694672646814217 0 1 0 I I #
point $-1 -49.742728965117344 29.050622053925228 -13.694672646814217 #
coedge $-1 $417 $416 $466 $488 reversed $220 $-1 #
coedge $-1 $422 $418 $465 $488 forward $319 $-1 #
vertex $-1 $419 $489 #
straight-curve $-1 0 29.050622053925228 13.694672646814217 -1 0 0 I I #
point $-1 -33.518033775671945 29.050622053925228 13.694672646814219 #
vertex $-1 $488 $490 #
straight-curve $-1 0 -29.050622053925228 13.694672646814217 1 0 0 I I #
straight-curve $-1 -49.742728965117344 -29.050622053925228 0 0 0 -1 I I #
straight-curve $-1 -49.742728965117344 29.050622053925228 0 0 0 -1 I I #
straight-curve $-1 -30.819586601762211 -29.050622053925224 31.676731158424975 0 0 -1 I I #
point $-1 -30.819586601762211 -29.050622053925228 13.694672646814217 #
straight-curve $-1 -12.227991904827697 -29.050622053925228 9.1697997379145111 1 0 0 I I #
point $-1 -30.819586601762211 -29.050622053925228 9.1697997379145111 #
point $-1 -28.274145484919483 -26.32337282462662 10.615277658330198 #
point $-1 -24.455983809655393 -26.32337282462662 10.615277658330198 #
point $-1 -20.6378221343913 -26.32337282462662 10.615277658330198 #
straight-curve $-1 10.810794768632425 -29.050622053925224 31.676731158424975 0 0 -1 I I #
point $-1 10.810794768632425 -29.050622053925228 13.694672646814217 #
straight-curve $-1 8.5871987803696221 -29.050622053925228 9.1697997379145111 1 0 0 I I #
point $-1 10.810794768632425 -29.050622053925228 9.1697997379145111 #
point $-1 13.356235885475165 -26.32337282462662 10.615277658330198 #
point $-1 17.174397560739244 -26.32337282462662 10.615277658330198 #
point $-1 20.992559236003338 -26.32337282462662 10.615277658330198 #
edge $-1 $467 -29.050622053925228 $470 29.050622053925228 $465 $491 forward 7 unknown #
point $-1 -49.742728965117344 29.050622053925228 13.694672646814217 #
point $-1 -49.742728965117344 -29.050622053925228 13.694672646814217 #
straight-curve $-1 -49.742728965117344 0 13.694672646814217 0 -1 0 I I #
End-of-ACIS-data 