500 0 3 0           
7 Unknown 11 ACIS 5.0 NT 24 Thu Mar 25 21:39:18 1999 
-1 9.9999999999999995e-007 1e-010 
body $-1 $3 $-1 $4 #
body $-1 $5 $-1 $6 #
body $-1 $7 $-1 $8 #
lump $-1 $-1 $9 $0 #
transform $-1 1 0 0 0 1 0 0 0 1 63.895992919705805 36.645376669950842 16.897782960202498 1 rotate no_reflect no_shear #
lump $-1 $-1 $10 $1 #
transform $-1 1 0 0 0 1 0 0 0 1 63.895992919705805 36.645376669950842 16.897782960202498 1 rotate no_reflect no_shear #
lump $-1 $-1 $11 $2 #
transform $-1 1 0 0 0 1 0 0 0 1 63.895992919705805 36.645376669950842 16.897782960202498 1 rotate no_reflect no_shear #
shell $-1 $-1 $-1 $12 $-1 $3 #
shell $-1 $-1 $-1 $13 $-1 $5 #
shell $-1 $-1 $-1 $14 $-1 $7 #
face $-1 $15 $16 $9 $-1 $17 forward single #
face $-1 $18 $19 $10 $-1 $20 forward single #
face $-1 $21 $22 $11 $-1 $23 forward single #
face $-1 $24 $25 $9 $-1 $26 reversed single #
loop $-1 $-1 $27 $12 #
plane-surface $-1 0 0 16.897782960202498 0 0 1 1 0 0 forward_v I I I I #
face $-1 $28 $29 $10 $-1 $30 forward single #
loop $-1 $-1 $31 $13 #
plane-surface $-1 -61.048994708444781 -16.260607504186019 0 0 -1 0 0 0 -1 forward_v I I I I #
face $-1 $32 $33 $11 $-1 $34 forward single #
loop $-1 $-1 $35 $14 #
plane-surface $-1 -61.048994708444781 16.260607504186019 0 0 1 0 0 0 1 forward_v I I I I #
face $-1 $36 $37 $9 $-1 $38 reversed single #
loop $-1 $-1 $39 $15 #
plane-surface $-1 0 0 -16.897782960202498 0 0 1 1 0 0 forward_v I I I I #
coedge $-1 $40 $41 $42 $43 forward $16 $-1 #
face $-1 $44 $45 $10 $-1 $46 forward single #
loop $-1 $-1 $47 $18 #
plane-surface $-1 -58.201996497183757 -26.452992087068431 0 -1 0 0 0 0 1 forward_v I I I I #
coedge $-1 $48 $49 $50 $51 reversed $19 $-1 #
face $-1 $52 $53 $11 $-1 $54 forward single #
loop $-1 $-1 $55 $21 #
plane-surface $-1 -58.201996497183757 26.452992087068431 0 -1 0 0 0 0 1 forward_v I I I I #
coedge $-1 $56 $57 $58 $59 reversed $22 $-1 #
face $-1 $60 $61 $9 $-1 $62 reversed single #
loop $-1 $-1 $63 $24 #
plane-surface $-1 0 -36.645376669950842 0 0 1 0 0 0 1 forward_v I I I I #
coedge $-1 $64 $65 $66 $67 forward $25 $-1 #
coedge $-1 $68 $27 $69 $70 forward $16 $-1 #
coedge $-1 $27 $68 $71 $72 forward $16 $-1 #
coedge $-1 $73 $74 $27 $43 reversed $75 $-1 #
edge $-1 $76 -36.645376669950842 $77 36.645376669950842 $42 $78 forward 7 unknown #
face $-1 $79 $80 $10 $-1 $81 reversed single #
loop $-1 $-1 $82 $28 #
plane-surface $-1 0 0 16.897782960202498 0 0 1 1 0 0 forward_v I I I I #
coedge $-1 $83 $84 $85 $86 reversed $29 $-1 #
coedge $-1 $87 $31 $82 $88 reversed $19 $-1 #
coedge $-1 $31 $87 $89 $90 reversed $19 $-1 #
coedge $-1 $84 $83 $31 $51 forward $29 $-1 #
edge $-1 $91 -16.897782960202498 $92 16.897782960202498 $50 $93 forward 7 unknown #
face $-1 $94 $95 $11 $-1 $96 reversed single #
loop $-1 $-1 $97 $32 #
plane-surface $-1 0 0 16.897782960202498 0 0 1 1 0 0 forward_v I I I I #
coedge $-1 $98 $99 $100 $101 reversed $33 $-1 #
coedge $-1 $100 $35 $102 $103 reversed $22 $-1 #
coedge $-1 $35 $100 $104 $105 reversed $22 $-1 #
coedge $-1 $106 $107 $35 $59 forward $95 $-1 #
edge $-1 $108 -16.897782960202498 $109 16.897782960202498 $58 $110 forward 7 unknown #
face $-1 $111 $112 $9 $-1 $113 reversed single #
loop $-1 $-1 $114 $36 #
plane-surface $-1 -63.895992919705805 0 0 1 0 0 0 0 -1 forward_v I I I I #
coedge $-1 $115 $71 $116 $117 forward $37 $-1 #
coedge $-1 $118 $39 $115 $119 forward $25 $-1 #
coedge $-1 $39 $118 $120 $121 forward $25 $-1 #
coedge $-1 $74 $73 $39 $67 reversed $75 $-1 #
edge $-1 $122 -36.645376669950842 $123 36.645376669950842 $66 $124 forward 7 unknown #
coedge $-1 $41 $40 $125 $126 forward $16 $-1 #
coedge $-1 $127 $128 $40 $70 reversed $112 $-1 #
edge $-1 $77 -63.895992919705805 $129 63.895992919705805 $69 $130 forward 7 unknown #
coedge $-1 $63 $131 $41 $72 reversed $37 $-1 #
edge $-1 $132 -63.895992919705805 $76 63.895992919705805 $71 $133 forward 7 unknown #
coedge $-1 $66 $42 $131 $134 forward $75 $-1 #
coedge $-1 $42 $66 $127 $135 reversed $75 $-1 #
loop $-1 $-1 $73 $111 #
vertex $-1 $43 $136 #
vertex $-1 $43 $137 #
straight-curve $-1 63.895992919705805 0 16.897782960202498 0 1 0 I I #
face $-1 $138 $139 $10 $-1 $140 reversed single #
loop $-1 $-1 $85 $44 #
plane-surface $-1 0 -36.645376669950842 0 0 1 0 0 0 1 forward_v I I I I #
coedge $-1 $141 $142 $48 $88 forward $45 $-1 #
coedge $-1 $50 $47 $141 $143 reversed $29 $-1 #
coedge $-1 $47 $50 $144 $145 reversed $29 $-1 #
coedge $-1 $146 $147 $47 $86 forward $80 $-1 #
edge $-1 $148 -16.897782960202498 $149 16.897782960202498 $85 $150 forward 7 unknown #
coedge $-1 $49 $48 $151 $152 reversed $19 $-1 #
edge $-1 $153 -33.371495565483414 $91 -27.677499142961366 $82 $154 forward 7 unknown #
coedge $-1 $155 $144 $49 $90 forward $139 $-1 #
edge $-1 $92 27.677499142961366 $156 33.371495565483414 $89 $157 forward 7 unknown #
vertex $-1 $88 $158 #
vertex $-1 $90 $159 #
straight-curve $-1 -58.201996497183757 -16.260607504186019 0 0 0 -1 I I #
face $-1 $160 $161 $11 $-1 $162 forward single #
loop $-1 $-1 $58 $52 #
plane-surface $-1 -63.895992919705805 0 0 1 0 0 0 0 -1 forward_v I I I I #
coedge $-1 $102 $163 $98 $164 forward $53 $-1 #
coedge $-1 $165 $55 $97 $164 reversed $33 $-1 #
coedge $-1 $55 $165 $166 $167 reversed $33 $-1 #
coedge $-1 $57 $56 $55 $101 forward $22 $-1 #
edge $-1 $168 -16.897782960202498 $169 16.897782960202498 $55 $170 forward 7 unknown #
coedge $-1 $171 $97 $56 $103 forward $53 $-1 #
edge $-1 $168 27.677499142961366 $108 33.371495565483414 $102 $172 forward 7 unknown #
coedge $-1 $166 $173 $57 $105 forward $174 $-1 #
edge $-1 $109 -33.371495565483414 $169 -27.677499142961366 $104 $175 forward 7 unknown #
coedge $-1 $176 $58 $173 $177 reversed $95 $-1 #
coedge $-1 $58 $176 $171 $178 reversed $95 $-1 #
vertex $-1 $178 $179 #
vertex $-1 $59 $180 #
straight-curve $-1 -63.895992919705805 16.260607504186019 0 0 0 -1 I I #
face $-1 $-1 $75 $9 $-1 $181 reversed single #
loop $-1 $-1 $127 $60 #
plane-surface $-1 0 36.645376669950842 0 0 -1 0 0 0 -1 forward_v I I I I #
coedge $-1 $182 $125 $128 $183 forward $61 $-1 #
coedge $-1 $131 $63 $64 $119 reversed $37 $-1 #
coedge $-1 $125 $182 $63 $117 reversed $61 $-1 #
edge $-1 $132 -16.897782960202498 $184 16.897782960202498 $116 $185 forward 7 unknown #
coedge $-1 $65 $64 $182 $186 forward $25 $-1 #
edge $-1 $123 -63.895992919705805 $184 63.895992919705805 $115 $187 forward 7 unknown #
coedge $-1 $128 $127 $65 $121 reversed $112 $-1 #
edge $-1 $188 -63.895992919705805 $122 63.895992919705805 $120 $189 forward 7 unknown #
vertex $-1 $67 $190 #
vertex $-1 $134 $191 #
straight-curve $-1 63.895992919705805 0 -16.897782960202498 0 -1 0 I I #
coedge $-1 $114 $116 $68 $126 reversed $61 $-1 #
edge $-1 $129 -36.645376669950842 $132 36.645376669950842 $125 $192 forward 7 unknown #
coedge $-1 $120 $69 $74 $135 forward $112 $-1 #
coedge $-1 $69 $120 $114 $183 reversed $112 $-1 #
vertex $-1 $70 $193 #
straight-curve $-1 0 36.645376669950842 16.897782960202498 -1 0 0 I I #
coedge $-1 $71 $115 $73 $134 reversed $37 $-1 #
vertex $-1 $126 $194 #
straight-curve $-1 0 -36.645376669950842 16.897782960202498 1 0 0 I I #
edge $-1 $76 -16.897782960202498 $123 16.897782960202498 $73 $195 forward 7 unknown #
edge $-1 $77 -16.897782960202498 $122 16.897782960202498 $74 $196 forward 7 unknown #
point $-1 63.895992919705805 -36.645376669950842 16.897782960202498 #
point $-1 63.895992919705805 36.645376669950842 16.897782960202498 #
face $-1 $197 $198 $10 $-1 $199 reversed single #
loop $-1 $-1 $89 $79 #
plane-surface $-1 0 0 -16.897782960202498 0 0 1 1 0 0 forward_v I I I I #
coedge $-1 $200 $82 $83 $143 forward $45 $-1 #
coedge $-1 $82 $201 $202 $203 forward $45 $-1 #
edge $-1 $91 3.034111460651804 $148 23.418880626416627 $141 $204 forward 7 unknown #
coedge $-1 $89 $205 $84 $145 forward $139 $-1 #
edge $-1 $149 -23.418880626416627 $92 -3.034111460651804 $144 $206 forward 7 unknown #
coedge $-1 $207 $85 $205 $208 reversed $80 $-1 #
coedge $-1 $85 $207 $200 $209 reversed $80 $-1 #
vertex $-1 $209 $210 #
vertex $-1 $86 $211 #
straight-curve $-1 -58.201996497183757 -36.645376669950842 0 0 0 -1 I I #
coedge $-1 $202 $212 $87 $152 forward $198 $-1 #
edge $-1 $156 -16.897782960202498 $153 16.897782960202498 $151 $213 forward 7 unknown #
vertex $-1 $152 $214 #
straight-curve $-1 -30.52449735422239 -16.260607504186019 16.897782960202498 1 0 0 I I #
coedge $-1 $215 $89 $212 $216 forward $139 $-1 #
vertex $-1 $216 $217 #
straight-curve $-1 -30.52449735422239 -16.260607504186019 -16.897782960202498 -1 0 0 I I #
point $-1 -58.201996497183757 -16.260607504186019 16.897782960202498 #
point $-1 -58.201996497183757 -16.260607504186019 -16.897782960202498 #
face $-1 $218 $219 $11 $-1 $220 forward single #
loop $-1 $-1 $221 $94 #
plane-surface $-1 -61.048994708444781 -16.260607504186019 0 0 -1 0 0 0 -1 forward_v I I I I #
coedge $-1 $97 $222 $223 $224 forward $53 $-1 #
edge $-1 $225 -23.418880626416627 $168 -3.034111460651804 $97 $226 forward 7 unknown #
coedge $-1 $99 $98 $227 $228 reversed $33 $-1 #
coedge $-1 $229 $104 $99 $167 forward $174 $-1 #
edge $-1 $169 3.034111460651804 $230 23.418880626416627 $166 $231 forward 7 unknown #
vertex $-1 $103 $232 #
vertex $-1 $105 $233 #
straight-curve $-1 -58.201996497183757 16.260607504186019 0 0 0 -1 I I #
coedge $-1 $234 $102 $107 $178 forward $53 $-1 #
straight-curve $-1 -30.52449735422239 16.260607504186019 16.897782960202498 -1 0 0 I I #
coedge $-1 $104 $235 $106 $177 forward $174 $-1 #
loop $-1 $-1 $166 $236 #
straight-curve $-1 -30.52449735422239 16.260607504186019 -16.897782960202498 1 0 0 I I #
coedge $-1 $107 $106 $237 $238 forward $95 $-1 #
edge $-1 $239 -16.260607504186019 $109 16.260607504186019 $106 $240 forward 7 unknown #
edge $-1 $108 -16.260607504186019 $241 16.260607504186019 $107 $242 forward 7 unknown #
point $-1 -63.895992919705805 16.260607504186019 16.897782960202498 #
point $-1 -63.895992919705805 16.260607504186019 -16.897782960202498 #
plane-surface $-1 63.895992919705805 0 0 -1 0 0 0 0 1 forward_v I I I I #
coedge $-1 $116 $114 $118 $186 reversed $61 $-1 #
edge $-1 $129 -16.897782960202498 $188 16.897782960202498 $128 $243 forward 7 unknown #
vertex $-1 $186 $244 #
straight-curve $-1 -63.895992919705805 -36.645376669950842 0 0 0 -1 I I #
edge $-1 $184 -36.645376669950842 $188 36.645376669950842 $182 $245 forward 7 unknown #
straight-curve $-1 0 -36.645376669950842 -16.897782960202498 -1 0 0 I I #
vertex $-1 $121 $246 #
straight-curve $-1 0 36.645376669950842 -16.897782960202498 1 0 0 I I #
point $-1 63.895992919705805 36.645376669950842 -16.897782960202498 #
point $-1 63.895992919705805 -36.645376669950842 -16.897782960202498 #
straight-curve $-1 -63.895992919705805 0 16.897782960202498 0 -1 0 I I #
point $-1 -63.895992919705805 36.645376669950842 16.897782960202498 #
point $-1 -63.895992919705805 -36.645376669950842 16.897782960202498 #
straight-curve $-1 63.895992919705805 -36.645376669950842 0 0 0 -1 I I #
straight-curve $-1 63.895992919705805 36.645376669950842 0 0 0 -1 I I #
face $-1 $247 $248 $10 $-1 $249 reversed single #
loop $-1 $-1 $151 $138 #
plane-surface $-1 -63.895992919705805 0 0 1 0 0 0 0 -1 forward_v I I I I #
coedge $-1 $250 $141 $147 $209 forward $45 $-1 #
coedge $-1 $142 $250 $251 $252 forward $45 $-1 #
coedge $-1 $253 $151 $142 $203 reversed $198 $-1 #
edge $-1 $254 -36.645376669950842 $153 16.260607504186019 $202 $255 forward 7 unknown #
straight-curve $-1 -58.201996497183757 -13.226496043534215 16.897782960202498 0 -1 0 I I #
coedge $-1 $144 $256 $146 $208 forward $139 $-1 #
straight-curve $-1 -58.201996497183757 -13.226496043534215 -16.897782960202498 0 1 0 I I #
coedge $-1 $147 $146 $257 $258 reversed $80 $-1 #
edge $-1 $259 -63.895992919705805 $149 58.201996497183757 $146 $260 forward 7 unknown #
edge $-1 $148 -58.201996497183757 $261 63.895992919705805 $147 $262 forward 7 unknown #
point $-1 -58.201996497183757 -36.645376669950842 16.897782960202498 #
point $-1 -58.201996497183757 -36.645376669950842 -16.897782960202498 #
coedge $-1 $151 $253 $155 $216 reversed $198 $-1 #
straight-curve $-1 -63.895992919705805 -16.260607504186019 0 0 0 1 I I #
point $-1 -63.895992919705805 -16.260607504186019 16.897782960202498 #
coedge $-1 $256 $155 $263 $264 forward $139 $-1 #
edge $-1 $156 -16.260607504186019 $265 36.645376669950842 $212 $266 forward 7 unknown #
point $-1 -63.895992919705805 -16.260607504186019 -16.897782960202498 #
face $-1 $236 $267 $11 $-1 $268 reversed single #
loop $-1 $-1 $269 $160 #
plane-surface $-1 -58.201996497183757 -26.452992087068431 0 -1 0 0 0 0 1 forward_v I I I I #
coedge $-1 $270 $271 $272 $273 reversed $161 $-1 #
coedge $-1 $163 $274 $275 $276 forward $53 $-1 #
coedge $-1 $277 $227 $163 $224 reversed $278 $-1 #
edge $-1 $279 -63.895992919705805 $225 58.201996497183757 $223 $280 forward 7 unknown #
vertex $-1 $228 $281 #
straight-curve $-1 -58.201996497183757 13.226496043534215 16.897782960202498 0 -1 0 I I #
coedge $-1 $223 $282 $165 $228 forward $278 $-1 #
edge $-1 $230 -16.897782960202498 $225 16.897782960202498 $227 $283 forward 7 unknown #
coedge $-1 $284 $166 $282 $285 forward $174 $-1 #
vertex $-1 $285 $286 #
straight-curve $-1 -58.201996497183757 13.226496043534215 -16.897782960202498 0 1 0 I I #
point $-1 -58.201996497183757 16.260607504186019 16.897782960202498 #
point $-1 -58.201996497183757 16.260607504186019 -16.897782960202498 #
coedge $-1 $287 $171 $270 $288 forward $53 $-1 #
coedge $-1 $173 $289 $271 $290 forward $174 $-1 #
face $-1 $291 $174 $11 $-1 $292 reversed single #
coedge $-1 $271 $270 $176 $238 reversed $161 $-1 #
edge $-1 $239 -16.897782960202498 $241 16.897782960202498 $176 $293 forward 7 unknown #
vertex $-1 $177 $294 #
straight-curve $-1 -63.895992919705805 0 -16.897782960202498 0 1 0 I I #
vertex $-1 $238 $295 #
straight-curve $-1 -63.895992919705805 0 16.897782960202498 0 -1 0 I I #
straight-curve $-1 -63.895992919705805 36.645376669950842 0 0 0 -1 I I #
point $-1 -63.895992919705805 -36.645376669950842 -16.897782960202498 #
straight-curve $-1 -63.895992919705805 0 -16.897782960202498 0 1 0 I I #
point $-1 -63.895992919705805 36.645376669950842 -16.897782960202498 #
face $-1 $-1 $296 $10 $-1 $297 reversed single #
loop $-1 $-1 $298 $197 #
plane-surface $-1 0 36.645376669950842 0 0 -1 0 0 0 -1 forward_v I I I I #
coedge $-1 $201 $200 $299 $300 forward $45 $-1 #
coedge $-1 $298 $301 $201 $252 reversed $248 $-1 #
edge $-1 $302 -63.895992919705805 $254 63.895992919705805 $251 $303 forward 7 unknown #
coedge $-1 $212 $202 $301 $304 forward $198 $-1 #
vertex $-1 $252 $305 #
straight-curve $-1 -63.895992919705805 0 16.897782960202498 0 -1 0 I I #
coedge $-1 $205 $215 $306 $307 forward $139 $-1 #
coedge $-1 $306 $299 $207 $258 forward $296 $-1 #
edge $-1 $261 -16.897782960202498 $259 16.897782960202498 $257 $308 forward 7 unknown #
vertex $-1 $258 $309 #
straight-curve $-1 0 -36.645376669950842 -16.897782960202498 -1 0 0 I I #
vertex $-1 $300 $310 #
straight-curve $-1 0 -36.645376669950842 16.897782960202498 1 0 0 I I #
coedge $-1 $301 $298 $215 $264 reversed $248 $-1 #
edge $-1 $265 -63.895992919705805 $311 63.895992919705805 $263 $312 forward 7 unknown #
vertex $-1 $264 $313 #
straight-curve $-1 -63.895992919705805 0 -16.897782960202498 0 1 0 I I #
loop $-1 $-1 $314 $218 #
plane-surface $-1 0 -36.645376669950842 0 0 1 0 0 0 1 forward_v I I I I #
coedge $-1 $315 $316 $314 $317 reversed $219 $-1 #
coedge $-1 $237 $221 $234 $288 reversed $161 $-1 #
coedge $-1 $221 $237 $235 $290 reversed $161 $-1 #
coedge $-1 $316 $315 $221 $273 forward $219 $-1 #
edge $-1 $318 -16.897782960202498 $319 16.897782960202498 $272 $320 forward 7 unknown #
coedge $-1 $222 $287 $321 $322 forward $53 $-1 #
coedge $-1 $323 $324 $222 $276 reversed $325 $-1 #
edge $-1 $326 -36.645376669950842 $279 36.645376669950842 $275 $327 forward 7 unknown #
coedge $-1 $282 $223 $324 $328 forward $278 $-1 #
loop $-1 $-1 $227 $291 #
vertex $-1 $276 $329 #
straight-curve $-1 0 36.645376669950842 16.897782960202498 -1 0 0 I I #
point $-1 -58.201996497183757 36.645376669950842 16.897782960202498 #
coedge $-1 $227 $277 $229 $285 reversed $278 $-1 #
straight-curve $-1 -58.201996497183757 36.645376669950842 0 0 0 1 I I #
coedge $-1 $330 $229 $331 $332 forward $174 $-1 #
edge $-1 $230 -58.201996497183757 $333 63.895992919705805 $282 $334 forward 7 unknown #
point $-1 -58.201996497183757 36.645376669950842 -16.897782960202498 #
coedge $-1 $274 $234 $315 $335 forward $53 $-1 #
edge $-1 $241 -33.371495565483414 $318 -27.677499142961366 $234 $336 forward 7 unknown #
coedge $-1 $235 $330 $316 $337 forward $174 $-1 #
edge $-1 $319 27.677499142961366 $239 33.371495565483414 $235 $338 forward 7 unknown #
face $-1 $339 $278 $11 $-1 $340 reversed single #
plane-surface $-1 0 0 -16.897782960202498 0 0 1 1 0 0 forward_v I I I I #
straight-curve $-1 -63.895992919705805 -16.260607504186019 0 0 0 1 I I #
point $-1 -63.895992919705805 -16.260607504186019 -16.897782960202498 #
point $-1 -63.895992919705805 -16.260607504186019 16.897782960202498 #
loop $-1 $-1 $257 $247 #
plane-surface $-1 63.895992919705805 0 0 -1 0 0 0 0 1 forward_v I I I I #
coedge $-1 $263 $251 $341 $342 forward $248 $-1 #
coedge $-1 $257 $341 $250 $300 reversed $296 $-1 #
edge $-1 $261 -36.645376669950842 $302 36.645376669950842 $299 $343 forward 7 unknown #
coedge $-1 $251 $263 $253 $304 reversed $248 $-1 #
vertex $-1 $300 $344 #
straight-curve $-1 0 36.645376669950842 16.897782960202498 -1 0 0 I I #
edge $-1 $254 -16.897782960202498 $265 16.897782960202498 $301 $345 forward 7 unknown #
point $-1 -63.895992919705805 36.645376669950842 16.897782960202498 #
coedge $-1 $341 $257 $256 $307 reversed $296 $-1 #
edge $-1 $311 -36.645376669950842 $259 36.645376669950842 $306 $346 forward 7 unknown #
straight-curve $-1 63.895992919705805 -36.645376669950842 0 0 0 -1 I I #
point $-1 63.895992919705805 -36.645376669950842 -16.897782960202498 #
point $-1 63.895992919705805 -36.645376669950842 16.897782960202498 #
vertex $-1 $307 $347 #
straight-curve $-1 0 36.645376669950842 -16.897782960202498 1 0 0 I I #
point $-1 -63.895992919705805 36.645376669950842 -16.897782960202498 #
coedge $-1 $348 $321 $269 $317 forward $267 $-1 #
coedge $-1 $272 $269 $287 $335 reversed $219 $-1 #
coedge $-1 $269 $272 $289 $337 reversed $219 $-1 #
edge $-1 $349 -16.897782960202498 $350 16.897782960202498 $314 $351 forward 7 unknown #
vertex $-1 $288 $352 #
vertex $-1 $290 $353 #
straight-curve $-1 -58.201996497183757 -16.260607504186019 0 0 0 -1 I I #
coedge $-1 $314 $354 $274 $322 reversed $267 $-1 #
edge $-1 $349 -58.201996497183757 $326 63.895992919705805 $321 $355 forward 7 unknown #
coedge $-1 $331 $275 $354 $356 forward $325 $-1 #
coedge $-1 $275 $331 $277 $328 reversed $325 $-1 #
loop $-1 $-1 $323 $339 #
vertex $-1 $276 $357 #
straight-curve $-1 63.895992919705805 0 16.897782960202498 0 1 0 I I #
edge $-1 $279 -16.897782960202498 $333 16.897782960202498 $324 $358 forward 7 unknown #
point $-1 63.895992919705805 36.645376669950842 16.897782960202498 #
coedge $-1 $289 $284 $348 $359 forward $174 $-1 #
coedge $-1 $324 $323 $284 $332 reversed $325 $-1 #
edge $-1 $333 -36.645376669950842 $360 36.645376669950842 $331 $361 forward 7 unknown #
vertex $-1 $332 $362 #
straight-curve $-1 0 36.645376669950842 -16.897782960202498 1 0 0 I I #
edge $-1 $318 3.034111460651804 $349 23.418880626416627 $287 $363 forward 7 unknown #
straight-curve $-1 -30.52449735422239 -16.260607504186019 16.897782960202498 1 0 0 I I #
edge $-1 $350 -23.418880626416627 $319 -3.034111460651804 $289 $364 forward 7 unknown #
straight-curve $-1 -30.52449735422239 -16.260607504186019 -16.897782960202498 -1 0 0 I I #
face $-1 $-1 $325 $11 $-1 $365 reversed single #
plane-surface $-1 0 36.645376669950842 0 0 -1 0 0 0 -1 forward_v I I I I #
coedge $-1 $299 $306 $298 $342 reversed $296 $-1 #
edge $-1 $302 -16.897782960202498 $311 16.897782960202498 $341 $366 forward 7 unknown #
straight-curve $-1 63.895992919705805 0 16.897782960202498 0 1 0 I I #
point $-1 63.895992919705805 36.645376669950842 16.897782960202498 #
straight-curve $-1 -63.895992919705805 36.645376669950842 0 0 0 -1 I I #
straight-curve $-1 63.895992919705805 0 -16.897782960202498 0 -1 0 I I #
point $-1 63.895992919705805 36.645376669950842 -16.897782960202498 #
coedge $-1 $354 $314 $330 $359 reversed $267 $-1 #
vertex $-1 $322 $367 #
vertex $-1 $317 $368 #
straight-curve $-1 -58.201996497183757 -36.645376669950842 0 0 0 -1 I I #
point $-1 -58.201996497183757 -16.260607504186019 16.897782960202498 #
point $-1 -58.201996497183757 -16.260607504186019 -16.897782960202498 #
coedge $-1 $321 $348 $323 $356 reversed $267 $-1 #
straight-curve $-1 0 -36.645376669950842 16.897782960202498 1 0 0 I I #
edge $-1 $326 -16.897782960202498 $360 16.897782960202498 $323 $369 forward 7 unknown #
point $-1 63.895992919705805 -36.645376669950842 16.897782960202498 #
straight-curve $-1 63.895992919705805 36.645376669950842 0 0 0 -1 I I #
edge $-1 $360 -63.895992919705805 $350 58.201996497183757 $348 $370 forward 7 unknown #
vertex $-1 $356 $371 #
straight-curve $-1 63.895992919705805 0 -16.897782960202498 0 -1 0 I I #
point $-1 63.895992919705805 36.645376669950842 -16.897782960202498 #
straight-curve $-1 -58.201996497183757 -13.226496043534215 16.897782960202498 0 -1 0 I I #
straight-curve $-1 -58.201996497183757 -13.226496043534215 -16.897782960202498 0 1 0 I I #
plane-surface $-1 63.895992919705805 0 0 -1 0 0 0 0 1 forward_v I I I I #
straight-curve $-1 63.895992919705805 36.645376669950842 0 0 0 -1 I I #
point $-1 -58.201996497183757 -36.645376669950842 16.897782960202498 #
point $-1 -58.201996497183757 -36.645376669950842 -16.897782960202498 #
straight-curve $-1 63.895992919705805 -36.645376669950842 0 0 0 -1 I I #
straight-curve $-1 0 -36.645376669950842 -16.897782960202498 -1 0 0 I I #
point $-1 63.895992919705805 -36.645376669950842 -16.897782960202498 #
End-of-ACIS-data 