500 0 13 0           
7 Unknown 11 ACIS 5.0 NT 24 Fri Mar 26 17:50:36 1999 
-1 9.9999999999999995e-007 1e-010 
body $-1 $13 $-1 $14 #
body $-1 $15 $-1 $16 #
body $-1 $17 $-1 $18 #
body $-1 $19 $-1 $20 #
body $-1 $21 $-1 $22 #
body $-1 $23 $-1 $24 #
body $-1 $25 $-1 $26 #
body $-1 $27 $-1 $28 #
body $-1 $29 $-1 $30 #
body $-1 $31 $-1 $32 #
body $-1 $33 $-1 $34 #
body $-1 $35 $-1 $36 #
body $-1 $37 $-1 $38 #
lump $-1 $-1 $39 $0 #
transform $-1 1 0 0 0 1 0 0 0 1 71.325418866542549 36.379511717055337 10.365834868809692 1 rotate no_reflect no_shear #
lump $-1 $-1 $40 $1 #
transform $-1 1 0 0 0 1 0 0 0 1 71.325418866542549 36.379511717055337 10.365834868809692 1 rotate no_reflect no_shear #
lump $-1 $-1 $41 $2 #
transform $-1 1 0 0 0 1 0 0 0 1 71.325418866542549 36.379511717055337 10.365834868809692 1 rotate no_reflect no_shear #
lump $-1 $-1 $42 $3 #
transform $-1 1 0 0 0 1 0 0 0 1 71.325418866542549 36.379511717055337 10.365834868809692 1 rotate no_reflect no_shear #
lump $-1 $-1 $43 $4 #
transform $-1 1 0 0 0 1 0 0 0 1 71.325418866542549 36.379511717055337 10.365834868809692 1 rotate no_reflect no_shear #
lump $-1 $-1 $44 $5 #
transform $-1 1 0 0 0 1 0 0 0 1 71.325418866542549 36.379511717055337 10.365834868809692 1 rotate no_reflect no_shear #
lump $-1 $-1 $45 $6 #
transform $-1 1 0 0 0 1 0 0 0 1 71.325418866542549 36.379511717055337 10.365834868809692 1 rotate no_reflect no_shear #
lump $-1 $-1 $46 $7 #
transform $-1 1 0 0 0 1 0 0 0 1 71.325418866542549 36.379511717055337 10.365834868809692 1 rotate no_reflect no_shear #
lump $-1 $-1 $47 $8 #
transform $-1 1 0 0 0 1 0 0 0 1 71.325418866542549 36.379511717055337 10.365834868809692 1 rotate no_reflect no_shear #
lump $-1 $-1 $48 $9 #
transform $-1 1 0 0 0 1 0 0 0 1 71.325418866542549 36.379511717055337 10.365834868809692 1 rotate no_reflect no_shear #
lump $-1 $-1 $49 $10 #
transform $-1 1 0 0 0 1 0 0 0 1 71.325418866542549 36.379511717055337 10.365834868809692 1 rotate no_reflect no_shear #
lump $-1 $-1 $50 $11 #
transform $-1 1 0 0 0 1 0 0 0 1 71.325418866542549 36.379511717055337 10.365834868809692 1 rotate no_reflect no_shear #
lump $-1 $-1 $51 $12 #
transform $-1 1 0 0 0 1 0 0 0 1 71.325418866542549 36.379511717055337 10.365834868809692 1 rotate no_reflect no_shear #
shell $-1 $-1 $-1 $52 $-1 $13 #
shell $-1 $-1 $-1 $53 $-1 $15 #
shell $-1 $-1 $-1 $54 $-1 $17 #
shell $-1 $-1 $-1 $55 $-1 $19 #
shell $-1 $-1 $-1 $56 $-1 $21 #
shell $-1 $-1 $-1 $57 $-1 $23 #
shell $-1 $-1 $-1 $58 $-1 $25 #
shell $-1 $-1 $-1 $59 $-1 $27 #
shell $-1 $-1 $-1 $60 $-1 $29 #
shell $-1 $-1 $-1 $61 $-1 $31 #
shell $-1 $-1 $-1 $62 $-1 $33 #
shell $-1 $-1 $-1 $63 $-1 $35 #
shell $-1 $-1 $-1 $64 $-1 $37 #
face $-1 $65 $66 $39 $-1 $67 forward single #
face $-1 $68 $69 $40 $-1 $70 forward single #
face $-1 $71 $72 $41 $-1 $73 reversed single #
face $-1 $74 $75 $42 $-1 $76 forward single #
face $-1 $77 $78 $43 $-1 $79 forward single #
face $-1 $80 $81 $44 $-1 $82 reversed single #
face $-1 $83 $84 $45 $-1 $85 forward single #
face $-1 $86 $87 $46 $-1 $88 forward single #
face $-1 $89 $90 $47 $-1 $91 forward single #
face $-1 $92 $93 $48 $-1 $94 reversed single #
face $-1 $95 $96 $49 $-1 $97 forward single #
face $-1 $98 $99 $50 $-1 $100 forward single #
face $-1 $101 $102 $51 $-1 $103 forward single #
face $-1 $104 $105 $39 $-1 $106 reversed single #
loop $-1 $-1 $107 $52 #
plane-surface $-1 0 0 10.365834868809692 0 0 1 1 0 0 forward_v I I I I #
face $-1 $108 $109 $40 $-1 $110 reversed single #
loop $-1 $-1 $111 $53 #
plane-surface $-1 -67.003969470804634 0 -0.27081326872789235 0 0 1 1 0 0 forward_v I I I I #
face $-1 $112 $113 $41 $-1 $114 reversed single #
loop $-1 $-1 $115 $54 #
plane-surface $-1 25.907747390249845 69.608213056648793 162.088382101408 1 0 0 0 -0.62932039886446345 -0.77714595512881146 forward_v I I I I #
face $-1 $116 $117 $42 $-1 $118 forward single #
loop $-1 $119 $120 $55 #
cone-surface $-1 33.249266772348008 32.818105968384067 7.2610553920872274 0 -0.62932039886446345 -0.77714595512881146 0.5 0 0 1 I I 0 1 0.5 forward I I I I #
face $-1 $121 $122 $43 $-1 $123 forward single #
loop $-1 $124 $125 $56 #
cone-surface $-1 44.261545845495249 32.818105968384067 7.2610553920872274 0 -0.62932039886446345 -0.77714595512881146 0.5 0 0 1 I I 0 1 0.5 forward I I I I #
face $-1 $126 $127 $44 $-1 $128 reversed single #
loop $-1 $-1 $129 $57 #
plane-surface $-1 -18.549670756458735 -150.30553744184317 91.48321043390763 -1 0 0 0 -0.79863551827123203 0.60181501223851219 forward_v I I I I #
face $-1 $130 $131 $45 $-1 $132 forward single #
loop $-1 $133 $134 $58 #
cone-surface $-1 -44.08998810898872 -33.588221171272309 7.2399561030263992 0 0.79863551827123203 -0.60181501223851219 1 0 0 1 I I 0 1 1 forward I I I I #
face $-1 $135 $136 $46 $-1 $137 forward single #
loop $-1 $138 $139 $59 #
cone-surface $-1 -34.512369101789972 -33.588221171272309 7.2399561030263992 0 0.79863551827123203 -0.60181501223851219 1 0 0 1 I I 0 1 1 forward I I I I #
face $-1 $140 $141 $47 $-1 $142 forward single #
loop $-1 $143 $144 $60 #
cone-surface $-1 -24.93475009459123 -33.588221171272309 7.2399561030263992 0 0.79863551827123203 -0.60181501223851219 1 0 0 1 I I 0 1 1 forward I I I I #
face $-1 $145 $146 $48 $-1 $147 reversed single #
loop $-1 $-1 $148 $61 #
plane-surface $-1 48.454298714345896 -150.30553744184317 91.48321043390763 -1 0 0 0 -0.79863551827123203 0.60181501223851219 forward_v I I I I #
face $-1 $149 $150 $49 $-1 $151 forward single #
loop $-1 $152 $153 $62 #
cone-surface $-1 22.913981361815914 -33.588221171272309 7.2399561030263992 0 0.79863551827123203 -0.60181501223851219 1 0 0 1 I I 0 1 1 forward I I I I #
face $-1 $154 $155 $50 $-1 $156 forward single #
loop $-1 $157 $158 $63 #
cone-surface $-1 32.491600369014662 -33.588221171272309 7.2399561030263992 0 0.79863551827123203 -0.60181501223851219 1 0 0 1 I I 0 1 1 forward I I I I #
face $-1 $159 $160 $51 $-1 $161 forward single #
loop $-1 $162 $163 $64 #
cone-surface $-1 42.069219376213397 -33.588221171272309 7.2399561030263992 0 0.79863551827123203 -0.60181501223851219 1 0 0 1 I I 0 1 1 forward I I I I #
face $-1 $164 $165 $39 $-1 $166 reversed single #
loop $-1 $-1 $167 $65 #
plane-surface $-1 0 0 -10.365834868809692 0 0 1 1 0 0 forward_v I I I I #
coedge $-1 $168 $169 $170 $171 forward $66 $-1 #
face $-1 $172 $173 $40 $-1 $174 reversed single #
loop $-1 $-1 $175 $68 #
plane-surface $-1 -67.003969470804634 0 -3.4804353705977422 0 0 1 1 0 0 forward_v I I I I #
coedge $-1 $176 $177 $178 $179 forward $69 $-1 #
face $-1 $180 $181 $41 $-1 $182 reversed single #
loop $-1 $-1 $183 $71 #
plane-surface $-1 38.755406308921636 -20.164869043886171 51.227860561404484 0 0.62932039886446345 0.77714595512881146 1 0 0 forward_v I I I I #
coedge $-1 $184 $185 $186 $187 reversed $72 $-1 #
face $-1 $-1 $188 $42 $-1 $189 forward single #
loop $-1 $190 $191 $74 #
cone-surface $-1 33.249266772348008 32.141361350186244 6.4253454045568574 0 -0.62932039886446345 -0.77714595512881146 0.25 0 0 1 I I -0.70710678118654624 0.70710678118654879 0.25 forward I I I I #
loop $-1 $-1 $192 $55 #
coedge $-1 $120 $120 $193 $194 reversed $75 $-1 #
face $-1 $-1 $195 $43 $-1 $196 forward single #
loop $-1 $197 $198 $77 #
cone-surface $-1 44.261545845495249 32.141361350186244 6.4253454045568574 0 -0.62932039886446345 -0.77714595512881146 0.25 0 0 1 I I -0.70710678118654624 0.70710678118654879 0.25 forward I I I I #
loop $-1 $-1 $199 $56 #
coedge $-1 $125 $125 $200 $201 reversed $78 $-1 #
face $-1 $202 $203 $44 $-1 $204 reversed single #
loop $-1 $-1 $205 $80 #
plane-surface $-1 -34.512369101789972 -36.379511717055337 5.633794777737009 0 -0.79863551827123203 0.60181501223851219 1 0 0 forward_v I I I I #
coedge $-1 $206 $207 $208 $209 reversed $81 $-1 #
face $-1 $-1 $210 $45 $-1 $211 forward single #
loop $-1 $212 $213 $83 #
cone-surface $-1 -44.08998810898872 -32.180536803600134 6.179189876660196 0 0.79863551827123203 -0.60181501223851219 0.5 0 0 1 I I -0.70710678118654746 0.70710678118654746 0.5 forward I I I I #
loop $-1 $-1 $214 $58 #
coedge $-1 $134 $134 $215 $216 reversed $84 $-1 #
face $-1 $-1 $217 $46 $-1 $218 forward single #
loop $-1 $219 $220 $86 #
cone-surface $-1 -34.512369101789972 -32.180536803600134 6.179189876660196 0 0.79863551827123203 -0.60181501223851219 0.5 0 0 1 I I -0.70710678118654746 0.70710678118654746 0.5 forward I I I I #
loop $-1 $-1 $221 $59 #
coedge $-1 $139 $139 $222 $223 reversed $87 $-1 #
face $-1 $-1 $224 $47 $-1 $225 forward single #
loop $-1 $226 $227 $89 #
cone-surface $-1 -24.93475009459123 -32.180536803600134 6.179189876660196 0 0.79863551827123203 -0.60181501223851219 0.5 0 0 1 I I -0.70710678118654746 0.70710678118654746 0.5 forward I I I I #
loop $-1 $-1 $228 $60 #
coedge $-1 $144 $144 $229 $230 reversed $90 $-1 #
face $-1 $231 $232 $48 $-1 $233 reversed single #
loop $-1 $-1 $234 $92 #
plane-surface $-1 32.491600369014662 -36.379511717055337 5.633794777737009 0 -0.79863551827123203 0.60181501223851219 1 0 0 forward_v I I I I #
coedge $-1 $235 $236 $237 $238 reversed $93 $-1 #
face $-1 $-1 $239 $49 $-1 $240 forward single #
loop $-1 $241 $242 $95 #
cone-surface $-1 22.913981361815914 -32.180536803600134 6.179189876660196 0 0.79863551827123203 -0.60181501223851219 0.5 0 0 1 I I -0.70710678118654746 0.70710678118654746 0.5 forward I I I I #
loop $-1 $-1 $243 $62 #
coedge $-1 $153 $153 $244 $245 reversed $96 $-1 #
face $-1 $-1 $246 $50 $-1 $247 forward single #
loop $-1 $248 $249 $98 #
cone-surface $-1 32.491600369014662 -32.180536803600134 6.179189876660196 0 0.79863551827123203 -0.60181501223851219 0.5 0 0 1 I I -0.70710678118654746 0.70710678118654746 0.5 forward I I I I #
loop $-1 $-1 $250 $63 #
coedge $-1 $158 $158 $251 $252 reversed $99 $-1 #
face $-1 $-1 $253 $51 $-1 $254 forward single #
loop $-1 $255 $256 $101 #
cone-surface $-1 42.069219376213397 -32.180536803600134 6.179189876660196 0 0.79863551827123203 -0.60181501223851219 0.5 0 0 1 I I -0.70710678118654746 0.70710678118654746 0.5 forward I I I I #
loop $-1 $-1 $257 $64 #
coedge $-1 $163 $163 $258 $259 reversed $102 $-1 #
face $-1 $260 $261 $39 $-1 $262 reversed single #
loop $-1 $-1 $263 $104 #
plane-surface $-1 0 -36.379511717055337 0 0 1 0 0 0 1 forward_v I I I I #
coedge $-1 $264 $265 $266 $267 forward $105 $-1 #
coedge $-1 $268 $107 $269 $270 forward $66 $-1 #
coedge $-1 $107 $268 $271 $272 forward $66 $-1 #
coedge $-1 $273 $274 $107 $171 reversed $275 $-1 #
edge $-1 $276 -36.379511717055337 $277 36.379511717055337 $170 $278 forward 7 unknown #
face $-1 $279 $280 $40 $-1 $281 reversed single #
loop $-1 $-1 $282 $108 #
plane-surface $-1 -62.682520075066712 0 -1.8756243196628173 -1 0 0 0 0 1 forward_v I I I I #
coedge $-1 $283 $284 $285 $286 forward $109 $-1 #
coedge $-1 $287 $111 $288 $289 reversed $69 $-1 #
coedge $-1 $111 $287 $290 $291 reversed $69 $-1 #
coedge $-1 $282 $292 $111 $179 reversed $173 $-1 #
edge $-1 $293 -36.379511717055337 $294 36.379511717055337 $178 $295 forward 7 unknown #
face $-1 $296 $297 $41 $-1 $298 forward single #
loop $-1 $-1 $299 $112 #
plane-surface $-1 51.603065227593426 69.608213056648793 162.088382101408 -1 0 0 0 0.62932039886446345 0.77714595512881146 forward_v I I I I #
coedge $-1 $300 $301 $302 $303 reversed $113 $-1 #
coedge $-1 $185 $115 $304 $305 reversed $72 $-1 #
coedge $-1 $115 $184 $300 $306 reversed $72 $-1 #
coedge $-1 $302 $307 $115 $187 forward $297 $-1 #
edge $-1 $308 -1.5754051887309402 $309 4.5085772716481856 $186 $310 forward 7 unknown #
loop $-1 $-1 $193 $116 #
plane-surface $-1 38.755406308921636 -20.164869043886171 51.227860561404484 0 0.62932039886446345 0.77714595512881146 1 0 0 forward_v I I I I #
loop $-1 $-1 $311 $74 #
coedge $-1 $191 $191 $192 $312 reversed $117 $-1 #
coedge $-1 $192 $192 $191 $312 forward $119 $-1 #
coedge $-1 $193 $193 $120 $194 forward $188 $-1 #
edge $-1 $313 5.5894879734849165e-015 $313 6.2831853071796058 $193 $314 forward 7 unknown #
loop $-1 $-1 $200 $121 #
plane-surface $-1 38.755406308921636 -20.164869043886171 51.227860561404484 0 0.62932039886446345 0.77714595512881146 1 0 0 forward_v I I I I #
loop $-1 $-1 $315 $77 #
coedge $-1 $198 $198 $199 $316 reversed $122 $-1 #
coedge $-1 $199 $199 $198 $316 forward $124 $-1 #
coedge $-1 $200 $200 $125 $201 forward $195 $-1 #
edge $-1 $317 5.5894879734849165e-015 $317 6.2831853071796058 $200 $318 forward 7 unknown #
face $-1 $319 $320 $44 $-1 $321 reversed single #
loop $-1 $-1 $322 $126 #
plane-surface $-1 -50.475067447121205 -150.30553744184317 91.48321043390763 1 0 0 0 0.79863551827123203 -0.60181501223851219 forward_v I I I I #
coedge $-1 $323 $324 $325 $326 reversed $127 $-1 #
coedge $-1 $207 $129 $327 $328 reversed $81 $-1 #
coedge $-1 $129 $206 $323 $329 reversed $81 $-1 #
coedge $-1 $325 $330 $129 $209 forward $331 $-1 #
edge $-1 $332 38.773257003866249 $333 42.339104878359187 $208 $334 forward 7 unknown #
loop $-1 $-1 $215 $130 #
plane-surface $-1 -34.512369101789972 -36.379511717055337 5.633794777737009 0 -0.79863551827123203 0.60181501223851219 1 0 0 forward_v I I I I #
loop $-1 $-1 $335 $83 #
coedge $-1 $213 $213 $214 $336 reversed $131 $-1 #
coedge $-1 $214 $214 $213 $336 forward $133 $-1 #
coedge $-1 $215 $215 $134 $216 forward $210 $-1 #
edge $-1 $337 2.8574911871054394e-015 $337 6.2831853071796031 $215 $338 forward 7 unknown #
loop $-1 $-1 $222 $135 #
plane-surface $-1 -34.512369101789972 -36.379511717055337 5.633794777737009 0 -0.79863551827123203 0.60181501223851219 1 0 0 forward_v I I I I #
loop $-1 $-1 $339 $86 #
coedge $-1 $220 $220 $221 $340 reversed $136 $-1 #
coedge $-1 $221 $221 $220 $340 forward $138 $-1 #
coedge $-1 $222 $222 $139 $223 forward $217 $-1 #
edge $-1 $341 2.8574911871054394e-015 $341 6.2831853071796031 $222 $342 forward 7 unknown #
loop $-1 $-1 $229 $140 #
plane-surface $-1 -34.512369101789972 -36.379511717055337 5.633794777737009 0 -0.79863551827123203 0.60181501223851219 1 0 0 forward_v I I I I #
loop $-1 $-1 $343 $89 #
coedge $-1 $227 $227 $228 $344 reversed $141 $-1 #
coedge $-1 $228 $228 $227 $344 forward $143 $-1 #
coedge $-1 $229 $229 $144 $230 forward $224 $-1 #
edge $-1 $345 2.8574911871054394e-015 $345 6.2831853071796031 $229 $346 forward 7 unknown #
face $-1 $347 $348 $48 $-1 $349 reversed single #
loop $-1 $-1 $350 $145 #
plane-surface $-1 16.528902023683425 -150.30553744184317 91.48321043390763 1 0 0 0 0.79863551827123203 -0.60181501223851219 forward_v I I I I #
coedge $-1 $351 $352 $353 $354 reversed $146 $-1 #
coedge $-1 $236 $148 $355 $356 reversed $93 $-1 #
coedge $-1 $148 $235 $351 $357 reversed $93 $-1 #
coedge $-1 $353 $358 $148 $238 forward $359 $-1 #
edge $-1 $360 38.773257003866249 $361 42.339104878359187 $237 $362 forward 7 unknown #
loop $-1 $-1 $244 $149 #
plane-surface $-1 32.491600369014662 -36.379511717055337 5.633794777737009 0 -0.79863551827123203 0.60181501223851219 1 0 0 forward_v I I I I #
loop $-1 $-1 $363 $95 #
coedge $-1 $242 $242 $243 $364 reversed $150 $-1 #
coedge $-1 $243 $243 $242 $364 forward $152 $-1 #
coedge $-1 $244 $244 $153 $245 forward $239 $-1 #
edge $-1 $365 2.8574911871054394e-015 $365 6.2831853071796031 $244 $366 forward 7 unknown #
loop $-1 $-1 $251 $154 #
plane-surface $-1 32.491600369014662 -36.379511717055337 5.633794777737009 0 -0.79863551827123203 0.60181501223851219 1 0 0 forward_v I I I I #
loop $-1 $-1 $367 $98 #
coedge $-1 $249 $249 $250 $368 reversed $155 $-1 #
coedge $-1 $250 $250 $249 $368 forward $157 $-1 #
coedge $-1 $251 $251 $158 $252 forward $246 $-1 #
edge $-1 $369 2.8574911871054394e-015 $369 6.2831853071796031 $251 $370 forward 7 unknown #
loop $-1 $-1 $258 $159 #
plane-surface $-1 32.491600369014662 -36.379511717055337 5.633794777737009 0 -0.79863551827123203 0.60181501223851219 1 0 0 forward_v I I I I #
loop $-1 $-1 $371 $101 #
coedge $-1 $256 $256 $257 $372 reversed $160 $-1 #
coedge $-1 $257 $257 $256 $372 forward $162 $-1 #
coedge $-1 $258 $258 $163 $259 forward $253 $-1 #
edge $-1 $373 2.8574911871054394e-015 $373 6.2831853071796031 $258 $374 forward 7 unknown #
face $-1 $375 $376 $39 $-1 $377 reversed single #
loop $-1 $-1 $378 $164 #
plane-surface $-1 -71.325418866542549 0 0 1 0 0 0 0 -1 forward_v I I I I #
coedge $-1 $379 $271 $380 $381 forward $165 $-1 #
coedge $-1 $382 $167 $379 $383 forward $105 $-1 #
coedge $-1 $167 $382 $384 $385 forward $105 $-1 #
coedge $-1 $274 $273 $167 $267 reversed $275 $-1 #
edge $-1 $386 -36.379511717055337 $387 36.379511717055337 $266 $388 forward 7 unknown #
coedge $-1 $169 $168 $389 $390 forward $66 $-1 #
coedge $-1 $391 $392 $168 $270 reversed $376 $-1 #
edge $-1 $277 -71.325418866542549 $393 71.325418866542549 $269 $394 forward 7 unknown #
coedge $-1 $263 $395 $169 $272 reversed $165 $-1 #
edge $-1 $396 -71.325418866542549 $276 71.325418866542549 $271 $397 forward 7 unknown #
coedge $-1 $266 $170 $395 $398 forward $275 $-1 #
coedge $-1 $170 $266 $391 $399 reversed $275 $-1 #
loop $-1 $-1 $273 $375 #
vertex $-1 $171 $400 #
vertex $-1 $171 $401 #
straight-curve $-1 71.325418866542549 0 10.365834868809692 0 1 0 I I #
face $-1 $402 $403 $40 $-1 $404 reversed single #
loop $-1 $-1 $405 $172 #
plane-surface $-1 0 -36.379511717055337 0 0 1 0 0 0 1 forward_v I I I I #
coedge $-1 $285 $178 $406 $407 reversed $173 $-1 #
coedge $-1 $408 $175 $405 $409 reversed $109 $-1 #
coedge $-1 $175 $408 $410 $411 reversed $109 $-1 #
coedge $-1 $292 $282 $175 $286 reversed $173 $-1 #
edge $-1 $412 -36.379511717055337 $413 36.379511717055337 $285 $414 forward 7 unknown #
coedge $-1 $177 $176 $415 $416 reversed $69 $-1 #
coedge $-1 $417 $418 $176 $289 forward $419 $-1 #
edge $-1 $420 -37.823434131140232 $294 -29.180535339664395 $288 $421 forward 7 unknown #
coedge $-1 $422 $406 $177 $291 forward $280 $-1 #
edge $-1 $293 29.180535339664395 $423 37.823434131140232 $290 $424 forward 7 unknown #
coedge $-1 $178 $285 $417 $425 reversed $173 $-1 #
vertex $-1 $291 $426 #
vertex $-1 $289 $427 #
straight-curve $-1 -62.682520075066712 0 -0.27081326872789235 0 1 0 I I #
face $-1 $-1 $428 $41 $-1 $429 reversed single #
loop $-1 $-1 $186 $180 #
plane-surface $-1 0 0 10.365834868809692 0 0 1 1 0 0 forward_v I I I I #
coedge $-1 $430 $431 $432 $433 reversed $181 $-1 #
coedge $-1 $434 $183 $185 $306 forward $113 $-1 #
coedge $-1 $183 $434 $430 $435 forward $113 $-1 #
coedge $-1 $432 $186 $183 $303 forward $297 $-1 #
edge $-1 $309 6.5300442357890276 $436 32.225362073132608 $302 $437 forward 7 unknown #
coedge $-1 $438 $439 $184 $305 forward $428 $-1 #
edge $-1 $440 -75.605068137842878 $308 -70.678356181894316 $304 $441 forward 7 unknown #
edge $-1 $309 64.930400740744517 $440 72.759023434110659 $185 $442 forward 7 unknown #
coedge $-1 $186 $432 $438 $443 forward $297 $-1 #
vertex $-1 $305 $444 #
vertex $-1 $187 $445 #
straight-curve $-1 25.907747390249845 34.804106528324397 10.365834868809699 0 -1 0 I I #
coedge $-1 $311 $311 $-1 $446 reversed $190 $-1 #
edge $-1 $447 0 $447 6.2831853071796004 $191 $448 forward 7 unknown #
vertex $-1 $194 $449 #
ellipse-curve $-1 33.249266772348008 33.33752048686577 7.9024788908353969 0 0.62932039886446345 0.77714595512881146 0.5 0 0 1 I I #
coedge $-1 $315 $315 $-1 $450 reversed $197 $-1 #
edge $-1 $451 0 $451 6.2831853071796004 $198 $452 forward 7 unknown #
vertex $-1 $201 $453 #
ellipse-curve $-1 44.261545845495249 33.33752048686577 7.9024788908353969 0 0.62932039886446345 0.77714595512881146 0.5 0 0 1 I I #
face $-1 $-1 $331 $44 $-1 $454 forward single #
loop $-1 $-1 $455 $202 #
plane-surface $-1 0 -36.379511717055337 0 0 1 0 0 0 1 forward_v I I I I #
coedge $-1 $456 $457 $458 $459 reversed $203 $-1 #
coedge $-1 $460 $205 $207 $329 forward $127 $-1 #
coedge $-1 $205 $460 $456 $461 forward $127 $-1 #
coedge $-1 $458 $208 $205 $326 forward $331 $-1 #
edge $-1 $333 1.2934862055637488 $462 33.218882896226219 $325 $463 forward 7 unknown #
coedge $-1 $464 $465 $206 $328 forward $320 $-1 #
edge $-1 $466 -40.107810439216806 $332 -35.375770348144123 $327 $467 forward 7 unknown #
edge $-1 $333 -5.9251560728427206 $466 0 $207 $468 forward 7 unknown #
coedge $-1 $208 $458 $464 $469 forward $331 $-1 #
loop $-1 $-1 $458 $319 #
vertex $-1 $328 $470 #
vertex $-1 $209 $471 #
straight-curve $-1 -18.549670756458735 -75.152768720921586 10.365834868809692 0 1 0 I I #
coedge $-1 $335 $335 $-1 $472 reversed $212 $-1 #
edge $-1 $473 0 $473 6.2831853071796004 $213 $474 forward 7 unknown #
vertex $-1 $216 $475 #
ellipse-curve $-1 -44.08998810898872 -34.596587779808871 7.9998148232733488 0 -0.79863551827123203 0.60181501223851219 1 0 0 1 I I #
coedge $-1 $339 $339 $-1 $476 reversed $219 $-1 #
edge $-1 $477 0 $477 6.2831853071796004 $220 $478 forward 7 unknown #
vertex $-1 $223 $479 #
ellipse-curve $-1 -34.512369101789972 -34.596587779808871 7.9998148232733488 0 -0.79863551827123203 0.60181501223851219 1 0 0 1 I I #
coedge $-1 $343 $343 $-1 $480 reversed $226 $-1 #
edge $-1 $481 0 $481 6.2831853071796004 $227 $482 forward 7 unknown #
vertex $-1 $230 $483 #
ellipse-curve $-1 -24.93475009459123 -34.596587779808871 7.9998148232733488 0 -0.79863551827123203 0.60181501223851219 1 0 0 1 I I #
face $-1 $-1 $359 $48 $-1 $484 forward single #
loop $-1 $-1 $485 $231 #
plane-surface $-1 0 -36.379511717055337 0 0 1 0 0 0 1 forward_v I I I I #
coedge $-1 $486 $487 $488 $489 reversed $232 $-1 #
coedge $-1 $490 $234 $236 $357 forward $146 $-1 #
coedge $-1 $234 $490 $486 $491 forward $146 $-1 #
coedge $-1 $488 $237 $234 $354 forward $359 $-1 #
edge $-1 $361 -32.208498529838565 $492 -0.28310183917609422 $353 $493 forward 7 unknown #
coedge $-1 $494 $495 $235 $356 forward $348 $-1 #
edge $-1 $496 -40.107810439216806 $360 -35.375770348144123 $355 $497 forward 7 unknown #
edge $-1 $361 -5.9251560728427206 $496 0 $236 $498 forward 7 unknown #
coedge $-1 $237 $488 $494 $499 forward $359 $-1 #
loop $-1 $-1 $488 $347 #
vertex $-1 $356 $500 #
vertex $-1 $238 $501 #
straight-curve $-1 48.454298714345896 -75.152768720921586 10.365834868809692 0 1 0 I I #
coedge $-1 $363 $363 $-1 $502 reversed $241 $-1 #
edge $-1 $503 0 $503 6.2831853071796004 $242 $504 forward 7 unknown #
vertex $-1 $245 $505 #
ellipse-curve $-1 22.913981361815914 -34.596587779808871 7.9998148232733488 0 -0.79863551827123203 0.60181501223851219 1 0 0 1 I I #
coedge $-1 $367 $367 $-1 $506 reversed $248 $-1 #
edge $-1 $507 0 $507 6.2831853071796004 $249 $508 forward 7 unknown #
vertex $-1 $252 $509 #
ellipse-curve $-1 32.491600369014662 -34.596587779808871 7.9998148232733488 0 -0.79863551827123203 0.60181501223851219 1 0 0 1 I I #
coedge $-1 $371 $371 $-1 $510 reversed $255 $-1 #
edge $-1 $511 0 $511 6.2831853071796004 $256 $512 forward 7 unknown #
vertex $-1 $259 $513 #
ellipse-curve $-1 42.069219376213397 -34.596587779808871 7.9998148232733488 0 -0.79863551827123203 0.60181501223851219 1 0 0 1 I I #
face $-1 $-1 $275 $39 $-1 $514 reversed single #
loop $-1 $-1 $391 $260 #
plane-surface $-1 0 36.379511717055337 0 0 -1 0 0 0 -1 forward_v I I I I #
coedge $-1 $515 $389 $392 $516 forward $261 $-1 #
coedge $-1 $395 $263 $264 $383 reversed $165 $-1 #
coedge $-1 $389 $515 $263 $381 reversed $261 $-1 #
edge $-1 $396 -10.365834868809692 $517 10.365834868809692 $380 $518 forward 7 unknown #
coedge $-1 $265 $264 $515 $519 forward $105 $-1 #
edge $-1 $387 -71.325418866542549 $517 71.325418866542549 $379 $520 forward 7 unknown #
coedge $-1 $392 $391 $265 $385 reversed $376 $-1 #
edge $-1 $521 -71.325418866542549 $386 71.325418866542549 $384 $522 forward 7 unknown #
vertex $-1 $267 $523 #
vertex $-1 $398 $524 #
straight-curve $-1 71.325418866542549 0 -10.365834868809692 0 -1 0 I I #
coedge $-1 $378 $380 $268 $390 reversed $261 $-1 #
edge $-1 $393 -36.379511717055337 $396 36.379511717055337 $389 $525 forward 7 unknown #
coedge $-1 $384 $269 $274 $399 forward $376 $-1 #
coedge $-1 $269 $384 $378 $516 reversed $376 $-1 #
vertex $-1 $270 $526 #
straight-curve $-1 0 36.379511717055337 10.365834868809692 -1 0 0 I I #
coedge $-1 $271 $379 $273 $398 reversed $165 $-1 #
vertex $-1 $390 $527 #
straight-curve $-1 0 -36.379511717055337 10.365834868809692 1 0 0 I I #
edge $-1 $276 -10.365834868809692 $387 10.365834868809692 $273 $528 forward 7 unknown #
edge $-1 $277 -10.365834868809692 $386 10.365834868809692 $274 $529 forward 7 unknown #
point $-1 71.325418866542549 -36.379511717055337 10.365834868809692 #
point $-1 71.325418866542549 36.379511717055337 10.365834868809692 #
face $-1 $-1 $419 $40 $-1 $530 reversed single #
loop $-1 $-1 $531 $279 #
plane-surface $-1 -71.325418866542549 0 0 1 0 0 0 0 -1 forward_v I I I I #
coedge $-1 $406 $422 $283 $409 forward $280 $-1 #
coedge $-1 $290 $405 $282 $407 forward $280 $-1 #
edge $-1 $413 -2.5426232107663336 $293 0.66699889110351629 $406 $532 forward 7 unknown #
coedge $-1 $284 $283 $531 $533 reversed $109 $-1 #
edge $-1 $534 -37.823434131140232 $413 -29.180535339664395 $405 $535 forward 7 unknown #
coedge $-1 $418 $417 $284 $411 forward $419 $-1 #
edge $-1 $412 29.180535339664395 $536 37.823434131140232 $410 $537 forward 7 unknown #
vertex $-1 $411 $538 #
vertex $-1 $409 $539 #
straight-curve $-1 -62.682520075066712 0 -3.4804353705977422 0 -1 0 I I #
coedge $-1 $540 $541 $287 $416 forward $403 $-1 #
edge $-1 $423 -36.379511717055337 $420 36.379511717055337 $415 $542 forward 7 unknown #
coedge $-1 $410 $288 $292 $425 forward $419 $-1 #
coedge $-1 $288 $410 $540 $543 reversed $419 $-1 #
loop $-1 $-1 $410 $402 #
vertex $-1 $543 $544 #
straight-curve $-1 -33.501984735402317 36.379511717055337 -0.27081326872789235 1 0 0 I I #
coedge $-1 $405 $290 $541 $545 forward $280 $-1 #
vertex $-1 $545 $546 #
straight-curve $-1 -33.501984735402317 -36.379511717055337 -0.27081326872789235 -1 0 0 I I #
edge $-1 $294 -0.66699889110351629 $412 2.5426232107663336 $417 $547 forward 7 unknown #
point $-1 -62.682520075066712 -36.379511717055337 -0.27081326872789235 #
point $-1 -62.682520075066712 36.379511717055337 -0.27081326872789235 #
loop $-1 $-1 $304 $296 #
plane-surface $-1 0 36.379511717055337 0 0 -1 0 0 0 -1 forward_v I I I I #
coedge $-1 $431 $299 $301 $435 reversed $181 $-1 #
coedge $-1 $299 $430 $548 $549 reversed $181 $-1 #
coedge $-1 $307 $302 $299 $433 forward $297 $-1 #
edge $-1 $436 -4.5085772716481856 $550 1.5754051887309402 $432 $551 forward 7 unknown #
coedge $-1 $301 $300 $439 $552 reversed $113 $-1 #
edge $-1 $553 -72.759023434110659 $436 -64.930400740744517 $430 $554 forward 7 unknown #
vertex $-1 $303 $555 #
straight-curve $-1 19.377703154460818 30.295529256676218 10.365834868809689 1 0 0 I I #
coedge $-1 $548 $304 $307 $443 reversed $428 $-1 #
coedge $-1 $304 $548 $434 $552 forward $428 $-1 #
vertex $-1 $305 $556 #
straight-curve $-1 25.907747390249845 36.379511717055337 81.044191050704001 0 0 1 I I #
straight-curve $-1 25.907747390249845 -20.164869043886171 51.227860561404484 0 0.77714595512881146 -0.62932039886446345 I I #
edge $-1 $550 -51.603065227593426 $308 -25.907747390249845 $438 $557 forward 7 unknown #
point $-1 25.907747390249845 36.379511717055337 10.365834868809692 #
point $-1 25.907747390249845 30.295529256676211 10.365834868809692 #
edge $-1 $558 1 $558 0 $311 $-1 forward 7 unknown #
vertex $-1 $312 $559 #
ellipse-curve $-1 33.249266772348008 32.298691449902364 6.6196318933390614 0 0.62932039886446345 0.77714595512881146 0.5 0 0 1 I I #
point $-1 33.749266772348008 33.33752048686577 7.9024788908353925 #
edge $-1 $560 1 $560 0 $315 $-1 forward 7 unknown #
vertex $-1 $316 $561 #
ellipse-curve $-1 44.261545845495249 32.298691449902364 6.6196318933390614 0 0.62932039886446345 0.77714595512881146 0.5 0 0 1 I I #
point $-1 44.761545845495249 33.33752048686577 7.9024788908353925 #
plane-surface $-1 0 0 10.365834868809692 0 0 1 1 0 0 forward_v I I I I #
coedge $-1 $465 $464 $457 $562 forward $320 $-1 #
coedge $-1 $457 $322 $324 $461 reversed $203 $-1 #
coedge $-1 $322 $456 $455 $562 reversed $203 $-1 #
coedge $-1 $330 $325 $322 $459 forward $331 $-1 #
edge $-1 $462 -42.339104878359187 $563 -38.773257003866249 $458 $564 forward 7 unknown #
coedge $-1 $324 $323 $465 $565 reversed $127 $-1 #
edge $-1 $566 0 $462 5.9251560728427206 $456 $567 forward 7 unknown #
vertex $-1 $326 $568 #
straight-curve $-1 -17.256184550894986 -32.813663842562406 10.365834868809692 -1 0 0 I I #
coedge $-1 $455 $327 $330 $469 reversed $320 $-1 #
coedge $-1 $327 $455 $460 $565 forward $320 $-1 #
vertex $-1 $328 $569 #
straight-curve $-1 -18.549670756458735 -36.379511717055337 45.741605216953815 0 0 1 I I #
straight-curve $-1 -18.549670756458735 -36.379511717055337 5.633794777737009 0 -0.60181501223851219 -0.79863551827123203 I I #
edge $-1 $563 -50.475067447121205 $332 -18.549670756458735 $464 $570 forward 7 unknown #
point $-1 -18.549670756458735 -36.379511717055337 10.365834868809692 #
point $-1 -18.549670756458735 -32.813663842562399 10.365834868809692 #
edge $-1 $571 1 $571 0 $335 $-1 forward 7 unknown #
vertex $-1 $336 $572 #
ellipse-curve $-1 -44.08998810898872 -32.579854562735747 6.4800973827794524 0 -0.79863551827123203 0.60181501223851219 1 0 0 1 I I #
point $-1 -43.08998810898872 -34.596587779808864 7.999814823273347 #
edge $-1 $573 1 $573 0 $339 $-1 forward 7 unknown #
vertex $-1 $340 $574 #
ellipse-curve $-1 -34.512369101789972 -32.579854562735747 6.4800973827794524 0 -0.79863551827123203 0.60181501223851219 1 0 0 1 I I #
point $-1 -33.512369101789972 -34.596587779808864 7.999814823273347 #
edge $-1 $575 1 $575 0 $343 $-1 forward 7 unknown #
vertex $-1 $344 $576 #
ellipse-curve $-1 -24.93475009459123 -32.579854562735747 6.4800973827794524 0 -0.79863551827123203 0.60181501223851219 1 0 0 1 I I #
point $-1 -23.93475009459123 -34.596587779808864 7.999814823273347 #
plane-surface $-1 0 0 10.365834868809692 0 0 1 1 0 0 forward_v I I I I #
coedge $-1 $495 $494 $487 $577 forward $348 $-1 #
coedge $-1 $487 $350 $352 $491 reversed $232 $-1 #
coedge $-1 $350 $486 $485 $577 reversed $232 $-1 #
coedge $-1 $358 $353 $350 $489 forward $359 $-1 #
edge $-1 $492 -42.339104878359187 $578 -38.773257003866249 $488 $579 forward 7 unknown #
coedge $-1 $352 $351 $495 $580 reversed $146 $-1 #
edge $-1 $581 0 $492 5.9251560728427206 $486 $582 forward 7 unknown #
vertex $-1 $354 $583 #
straight-curve $-1 16.245800184507331 -32.813663842562406 10.365834868809692 -1 0 0 I I #
coedge $-1 $485 $355 $358 $499 reversed $348 $-1 #
coedge $-1 $355 $485 $490 $580 forward $348 $-1 #
vertex $-1 $356 $584 #
straight-curve $-1 48.454298714345896 -36.379511717055337 45.741605216953815 0 0 1 I I #
straight-curve $-1 48.454298714345896 -36.379511717055337 5.633794777737009 0 -0.60181501223851219 -0.79863551827123203 I I #
edge $-1 $578 16.528902023683425 $360 48.454298714345896 $494 $585 forward 7 unknown #
point $-1 48.454298714345896 -36.379511717055337 10.365834868809692 #
point $-1 48.454298714345896 -32.813663842562399 10.365834868809692 #
edge $-1 $586 1 $586 0 $363 $-1 forward 7 unknown #
vertex $-1 $364 $587 #
ellipse-curve $-1 22.913981361815914 -32.579854562735747 6.4800973827794524 0 -0.79863551827123203 0.60181501223851219 1 0 0 1 I I #
point $-1 23.913981361815914 -34.596587779808864 7.999814823273347 #
edge $-1 $588 1 $588 0 $367 $-1 forward 7 unknown #
vertex $-1 $368 $589 #
ellipse-curve $-1 32.491600369014662 -32.579854562735747 6.4800973827794524 0 -0.79863551827123203 0.60181501223851219 1 0 0 1 I I #
point $-1 33.491600369014662 -34.596587779808864 7.999814823273347 #
edge $-1 $590 1 $590 0 $371 $-1 forward 7 unknown #
vertex $-1 $372 $591 #
ellipse-curve $-1 42.069219376213397 -32.579854562735747 6.4800973827794524 0 -0.79863551827123203 0.60181501223851219 1 0 0 1 I I #
point $-1 43.069219376213397 -34.596587779808864 7.999814823273347 #
plane-surface $-1 71.325418866542549 0 0 -1 0 0 0 0 1 forward_v I I I I #
coedge $-1 $380 $378 $382 $519 reversed $261 $-1 #
edge $-1 $393 -10.365834868809692 $521 10.365834868809692 $392 $592 forward 7 unknown #
vertex $-1 $519 $593 #
straight-curve $-1 -71.325418866542549 -36.379511717055337 0 0 0 -1 I I #
edge $-1 $517 -36.379511717055337 $521 36.379511717055337 $515 $594 forward 7 unknown #
straight-curve $-1 0 -36.379511717055337 -10.365834868809692 -1 0 0 I I #
vertex $-1 $385 $595 #
straight-curve $-1 0 36.379511717055337 -10.365834868809692 1 0 0 I I #
point $-1 71.325418866542549 36.379511717055337 -10.365834868809692 #
point $-1 71.325418866542549 -36.379511717055337 -10.365834868809692 #
straight-curve $-1 -71.325418866542549 0 10.365834868809692 0 -1 0 I I #
point $-1 -71.325418866542549 36.379511717055337 10.365834868809692 #
point $-1 -71.325418866542549 -36.379511717055337 10.365834868809692 #
straight-curve $-1 71.325418866542549 -36.379511717055337 0 0 0 -1 I I #
straight-curve $-1 71.325418866542549 36.379511717055337 0 0 0 -1 I I #
plane-surface $-1 0 36.379511717055337 0 0 -1 0 0 0 -1 forward_v I I I I #
coedge $-1 $541 $540 $408 $533 forward $403 $-1 #
straight-curve $-1 -62.682520075066712 -36.379511717055337 -0.93781215983140864 0 0 1 I I #
edge $-1 $536 -36.379511717055337 $534 36.379511717055337 $531 $596 forward 7 unknown #
vertex $-1 $409 $597 #
straight-curve $-1 -33.501984735402317 -36.379511717055337 -3.4804353705977422 1 0 0 I I #
vertex $-1 $411 $598 #
straight-curve $-1 -33.501984735402317 36.379511717055337 -3.4804353705977422 -1 0 0 I I #
point $-1 -62.682520075066712 36.379511717055337 -3.4804353705977422 #
point $-1 -62.682520075066712 -36.379511717055337 -3.4804353705977422 #
coedge $-1 $531 $415 $418 $543 forward $403 $-1 #
coedge $-1 $415 $531 $422 $545 reversed $403 $-1 #
straight-curve $-1 -71.325418866542549 0 -0.27081326872789235 0 1 0 I I #
edge $-1 $420 0.27081326872789235 $536 3.4804353705977422 $418 $599 forward 7 unknown #
point $-1 -71.325418866542549 36.379511717055337 -0.27081326872789235 #
edge $-1 $423 0.27081326872789235 $534 3.4804353705977422 $541 $600 forward 7 unknown #
point $-1 -71.325418866542549 -36.379511717055337 -0.27081326872789235 #
straight-curve $-1 -62.682520075066712 36.379511717055337 -0.93781215983140864 0 0 -1 I I #
coedge $-1 $439 $438 $431 $549 forward $428 $-1 #
edge $-1 $550 70.678356181894316 $553 75.605068137842878 $548 $601 forward 7 unknown #
vertex $-1 $443 $602 #
straight-curve $-1 51.603065227593426 34.804106528324397 10.365834868809699 0 1 0 I I #
edge $-1 $553 -32.225362073132608 $440 -6.5300442357890276 $439 $603 forward 7 unknown #
vertex $-1 $552 $604 #
straight-curve $-1 51.603065227593426 -20.164869043886171 51.227860561404484 0 -0.77714595512881146 0.62932039886446345 I I #
point $-1 51.603065227593426 30.295529256676211 10.365834868809692 #
point $-1 25.907747390249845 36.379511717055337 5.4391229128611229 #
straight-curve $-1 0 36.379511717055337 10.365834868809692 -1 0 0 I I #
vertex $-1 $446 $605 #
point $-1 33.749266772348008 32.298691449902364 6.6196318933390614 #
vertex $-1 $450 $606 #
point $-1 44.761545845495249 32.298691449902364 6.6196318933390614 #
edge $-1 $563 35.375770348144123 $566 40.107810439216806 $455 $607 forward 7 unknown #
vertex $-1 $469 $608 #
straight-curve $-1 -50.475067447121205 -75.152768720921586 10.365834868809692 0 -1 0 I I #
edge $-1 $566 -33.218882896226219 $466 -1.2934862055637488 $465 $609 forward 7 unknown #
vertex $-1 $565 $610 #
straight-curve $-1 -50.475067447121205 -36.379511717055337 5.633794777737009 0 0.60181501223851219 0.79863551827123203 I I #
point $-1 -50.475067447121205 -32.813663842562399 10.365834868809692 #
point $-1 -18.549670756458735 -36.379511717055337 5.633794777737009 #
straight-curve $-1 0 -36.379511717055337 10.365834868809692 1 0 0 I I #
vertex $-1 $472 $611 #
point $-1 -43.08998810898872 -32.579854562735747 6.4800973827794524 #
vertex $-1 $476 $612 #
point $-1 -33.512369101789972 -32.579854562735747 6.4800973827794524 #
vertex $-1 $480 $613 #
point $-1 -23.93475009459123 -32.579854562735747 6.4800973827794524 #
edge $-1 $578 35.375770348144123 $581 40.107810439216806 $485 $614 forward 7 unknown #
vertex $-1 $499 $615 #
straight-curve $-1 16.528902023683425 -75.152768720921586 10.365834868809692 0 -1 0 I I #
edge $-1 $581 0.28310183917609422 $496 32.208498529838565 $495 $616 forward 7 unknown #
vertex $-1 $580 $617 #
straight-curve $-1 16.528902023683425 -36.379511717055337 5.633794777737009 0 0.60181501223851219 0.79863551827123203 I I #
point $-1 16.528902023683425 -32.813663842562399 10.365834868809692 #
point $-1 48.454298714345896 -36.379511717055337 5.633794777737009 #
straight-curve $-1 0 -36.379511717055337 10.365834868809692 1 0 0 I I #
vertex $-1 $502 $618 #
point $-1 23.913981361815914 -32.579854562735747 6.4800973827794524 #
vertex $-1 $506 $619 #
point $-1 33.491600369014662 -32.579854562735747 6.4800973827794524 #
vertex $-1 $510 $620 #
point $-1 43.069219376213397 -32.579854562735747 6.4800973827794524 #
straight-curve $-1 -71.325418866542549 36.379511717055337 0 0 0 -1 I I #
point $-1 -71.325418866542549 -36.379511717055337 -10.365834868809692 #
straight-curve $-1 -71.325418866542549 0 -10.365834868809692 0 1 0 I I #
point $-1 -71.325418866542549 36.379511717055337 -10.365834868809692 #
straight-curve $-1 -71.325418866542549 0 -3.4804353705977422 0 -1 0 I I #
point $-1 -71.325418866542549 -36.379511717055337 -3.4804353705977422 #
point $-1 -71.325418866542549 36.379511717055337 -3.4804353705977422 #
straight-curve $-1 -71.325418866542549 36.379511717055337 0 0 0 -1 I I #
straight-curve $-1 -71.325418866542549 -36.379511717055337 0 0 0 -1 I I #
straight-curve $-1 51.603065227593426 36.379511717055337 81.044191050704001 0 0 -1 I I #
point $-1 51.603065227593426 36.379511717055337 10.365834868809692 #
straight-curve $-1 19.377703154460818 36.379511717055337 5.4391229128611158 -1 0 0 I I #
point $-1 51.603065227593426 36.379511717055337 5.4391229128611229 #
point $-1 33.249266772348008 31.984031250470128 6.2310589157746534 #
point $-1 44.261545845495249 31.984031250470128 6.2310589157746534 #
straight-curve $-1 -50.475067447121205 -36.379511717055337 45.741605216953815 0 0 -1 I I #
point $-1 -50.475067447121205 -36.379511717055337 10.365834868809692 #
straight-curve $-1 -17.256184550894986 -36.379511717055337 5.6337947777370063 1 0 0 I I #
point $-1 -50.475067447121205 -36.379511717055337 5.633794777737009 #
point $-1 -44.08998810898872 -31.781219044464518 5.8782823705409397 #
point $-1 -34.512369101789972 -31.781219044464518 5.8782823705409397 #
point $-1 -24.93475009459123 -31.781219044464518 5.8782823705409397 #
straight-curve $-1 16.528902023683425 -36.379511717055337 45.741605216953815 0 0 -1 I I #
point $-1 16.528902023683425 -36.379511717055337 10.365834868809692 #
straight-curve $-1 16.245800184507331 -36.379511717055337 5.6337947777370063 1 0 0 I I #
point $-1 16.528902023683425 -36.379511717055337 5.633794777737009 #
point $-1 22.913981361815914 -31.781219044464518 5.8782823705409397 #
point $-1 32.491600369014662 -31.781219044464518 5.8782823705409397 #
point $-1 42.069219376213397 -31.781219044464518 5.8782823705409397 #
End-of-ACIS-data 