500 0 5 0           
7 Unknown 11 ACIS 5.0 NT 24 Thu Mar 25 19:39:03 1999 
-1 9.9999999999999995e-007 1e-010 
body $-1 $5 $-1 $6 #
body $-1 $7 $-1 $8 #
body $-1 $9 $-1 $10 #
body $-1 $11 $-1 $12 #
body $-1 $13 $-1 $14 #
lump $-1 $-1 $15 $0 #
transform $-1 1 0 0 0 1 0 0 0 1 40.885036774803922 25.691180370287569 10.115897370447408 1 rotate no_reflect no_shear #
lump $-1 $-1 $16 $1 #
transform $-1 1 0 0 0 1 0 0 0 1 40.885036774803922 25.691180370287569 10.115897370447408 1 rotate no_reflect no_shear #
lump $-1 $-1 $17 $2 #
transform $-1 1 0 0 0 1 0 0 0 1 40.885036774803922 25.691180370287569 10.115897370447408 1 rotate no_reflect no_shear #
lump $-1 $-1 $18 $3 #
transform $-1 1 0 0 0 1 0 0 0 1 40.885036774803922 25.691180370287569 10.115897370447408 1 rotate no_reflect no_shear #
lump $-1 $-1 $19 $4 #
transform $-1 1 0 0 0 1 0 0 0 1 40.885036774803922 25.691180370287569 10.115897370447408 1 rotate no_reflect no_shear #
shell $-1 $-1 $-1 $20 $-1 $5 #
shell $-1 $-1 $-1 $21 $-1 $7 #
shell $-1 $-1 $-1 $22 $-1 $9 #
shell $-1 $-1 $-1 $23 $-1 $11 #
shell $-1 $-1 $-1 $24 $-1 $13 #
face $-1 $25 $26 $15 $-1 $27 forward single #
face $-1 $28 $29 $16 $-1 $30 forward single #
face $-1 $31 $32 $17 $-1 $33 forward single #
face $-1 $34 $35 $18 $-1 $36 reversed single #
face $-1 $37 $38 $19 $-1 $39 reversed single #
face $-1 $40 $41 $15 $-1 $42 reversed single #
loop $-1 $-1 $43 $20 #
plane-surface $-1 0 0 10.115897370447408 0 0 1 1 0 0 forward_v I I I I #
face $-1 $44 $45 $16 $-1 $46 forward single #
loop $-1 $-1 $47 $21 #
plane-surface $-1 -36.54838333959821 -10.895935629165184 0 0 1 0 0 0 1 forward_v I I I I #
face $-1 $48 $49 $17 $-1 $50 forward single #
loop $-1 $-1 $51 $22 #
plane-surface $-1 70.814962691289026 15.896507330636922 115.24763054767882 0 1 0 0.86602541151947299 0 0.49999998660252726 forward_v I I I I #
face $-1 $52 $53 $18 $-1 $54 reversed single #
loop $-1 $55 $56 $23 #
cone-surface $-1 37.374279474707656 18.694985341965676 5.8995393264267273 -0.86602541151947299 0 -0.49999998660252726 0.49999998660252726 0 -0.86602541151947299 1 I I 0 1 1 forward I I I I #
face $-1 $57 $58 $19 $-1 $59 reversed single #
loop $-1 $60 $61 $24 #
cone-surface $-1 37.374279474707656 22.892702358958815 5.8995393264267273 -0.86602541151947299 0 -0.49999998660252726 0.49999998660252726 0 -0.86602541151947299 1 I I 0 1 1 forward I I I I #
face $-1 $62 $63 $15 $-1 $64 reversed single #
loop $-1 $-1 $65 $25 #
plane-surface $-1 0 0 -10.115897370447408 0 0 1 1 0 0 forward_v I I I I #
coedge $-1 $66 $67 $68 $69 forward $26 $-1 #
face $-1 $70 $71 $16 $-1 $72 forward single #
loop $-1 $-1 $73 $28 #
plane-surface $-1 -36.54838333959821 -7.129711123380825 0 0 -1 0 0 0 -1 forward_v I I I I #
coedge $-1 $74 $75 $76 $77 reversed $29 $-1 #
face $-1 $78 $79 $17 $-1 $80 reversed single #
loop $-1 $-1 $81 $31 #
plane-surface $-1 1.095512317306202e-006 20.793843850462245 74.362594868387234 0.86602541151947299 0 0.49999998660252726 0.49999998660252726 0 -0.86602541151947299 forward_v I I I I #
coedge $-1 $82 $83 $84 $85 reversed $32 $-1 #
face $-1 $86 $87 $18 $-1 $88 forward single #
loop $-1 $89 $90 $34 #
cone-surface $-1 35.326603923607991 18.694985341965676 4.7173133380232297 -0.86602541151947299 0 -0.49999998660252726 0.24999999330126363 0 -0.43301270575973649 1 I I -0.70710678118654746 0.70710678118654746 0.5 forward I I I I #
loop $-1 $-1 $91 $23 #
coedge $-1 $56 $56 $92 $93 reversed $35 $-1 #
face $-1 $94 $95 $19 $-1 $96 reversed single #
loop $-1 $97 $98 $37 #
cone-surface $-1 35.326603923607991 22.892702358958815 4.7173133380232297 -0.86602541151947299 0 -0.49999998660252726 0.24999999330126363 0 -0.43301270575973649 1 I I -0.70710678118654746 0.70710678118654746 0.5 forward I I I I #
loop $-1 $-1 $99 $24 #
coedge $-1 $61 $61 $100 $101 reversed $38 $-1 #
face $-1 $102 $103 $15 $-1 $104 reversed single #
loop $-1 $-1 $105 $40 #
plane-surface $-1 0 -25.691180370287569 0 0 1 0 0 0 1 forward_v I I I I #
coedge $-1 $106 $107 $108 $109 forward $41 $-1 #
coedge $-1 $110 $43 $111 $112 forward $26 $-1 #
coedge $-1 $43 $110 $113 $114 forward $26 $-1 #
coedge $-1 $115 $116 $43 $69 reversed $117 $-1 #
edge $-1 $118 -25.691180370287569 $119 25.691180370287569 $68 $120 forward 7 unknown #
face $-1 $121 $122 $16 $-1 $123 forward single #
loop $-1 $-1 $124 $44 #
plane-surface $-1 -32.211729904392499 -9.0128233762730048 0 -1 0 0 0 0 1 forward_v I I I I #
coedge $-1 $125 $126 $127 $128 reversed $45 $-1 #
coedge $-1 $129 $47 $130 $131 reversed $29 $-1 #
coedge $-1 $47 $129 $132 $133 reversed $29 $-1 #
coedge $-1 $134 $135 $47 $77 forward $136 $-1 #
edge $-1 $137 -10.115897370447408 $138 10.115897370447408 $76 $139 forward 7 unknown #
face $-1 $140 $141 $17 $-1 $142 forward single #
loop $-1 $-1 $143 $48 #
plane-surface $-1 40.885036774803922 0 0 -1 0 0 0 0 1 forward_v I I I I #
coedge $-1 $144 $145 $143 $146 reversed $49 $-1 #
coedge $-1 $83 $51 $145 $147 forward $32 $-1 #
coedge $-1 $51 $82 $148 $149 reversed $32 $-1 #
coedge $-1 $150 $143 $51 $85 forward $79 $-1 #
edge $-1 $151 -54.076182001228915 $152 -47.507917903392006 $84 $153 forward 7 unknown #
face $-1 $154 $155 $18 $-1 $156 forward single #
loop $-1 $-1 $157 $52 #
plane-surface $-1 70.814962691289026 15.896507330636922 115.24763054767882 0 1 0 0.86602541151947299 0 0.49999998660252726 forward_v I I I I #
loop $-1 $-1 $158 $34 #
coedge $-1 $90 $90 $91 $159 forward $53 $-1 #
coedge $-1 $91 $91 $90 $159 reversed $55 $-1 #
coedge $-1 $92 $92 $56 $93 forward $155 $-1 #
edge $-1 $160 0 $160 6.2831853071796004 $92 $161 forward 7 unknown #
face $-1 $162 $163 $19 $-1 $164 reversed single #
loop $-1 $165 $166 $57 #
cone-surface $-1 37.374279474707656 18.694985341965676 5.8995393264267273 -0.86602541151947299 0 -0.49999998660252726 0.49999998660252726 0 -0.86602541151947299 1 I I 0 1 1 forward I I I I #
loop $-1 $-1 $167 $37 #
coedge $-1 $98 $98 $99 $168 forward $58 $-1 #
coedge $-1 $99 $99 $98 $168 reversed $60 $-1 #
coedge $-1 $100 $100 $61 $101 forward $169 $-1 #
edge $-1 $170 0 $170 6.2831853071796004 $100 $171 forward 7 unknown #
face $-1 $172 $173 $15 $-1 $174 reversed single #
loop $-1 $-1 $175 $62 #
plane-surface $-1 -40.885036774803922 0 0 1 0 0 0 0 -1 forward_v I I I I #
coedge $-1 $176 $113 $177 $178 forward $63 $-1 #
coedge $-1 $179 $65 $176 $180 forward $41 $-1 #
coedge $-1 $65 $179 $181 $182 forward $41 $-1 #
coedge $-1 $116 $115 $65 $109 reversed $117 $-1 #
edge $-1 $183 -25.691180370287569 $184 25.691180370287569 $108 $185 forward 7 unknown #
coedge $-1 $67 $66 $186 $187 forward $26 $-1 #
coedge $-1 $188 $189 $66 $112 reversed $173 $-1 #
edge $-1 $119 -40.885036774803922 $190 40.885036774803922 $111 $191 forward 7 unknown #
coedge $-1 $105 $192 $67 $114 reversed $63 $-1 #
edge $-1 $193 -40.885036774803922 $118 40.885036774803922 $113 $194 forward 7 unknown #
coedge $-1 $108 $68 $192 $195 forward $117 $-1 #
coedge $-1 $68 $108 $188 $196 reversed $117 $-1 #
loop $-1 $-1 $115 $172 #
vertex $-1 $69 $197 #
vertex $-1 $69 $198 #
straight-curve $-1 40.885036774803922 0 10.115897370447408 0 1 0 I I #
face $-1 $199 $136 $16 $-1 $200 reversed single #
loop $-1 $-1 $201 $70 #
plane-surface $-1 0 0 10.115897370447408 0 0 1 1 0 0 forward_v I I I I #
coedge $-1 $202 $203 $129 $204 reversed $71 $-1 #
coedge $-1 $205 $73 $201 $206 reversed $45 $-1 #
coedge $-1 $73 $205 $207 $208 reversed $45 $-1 #
coedge $-1 $203 $202 $73 $128 forward $71 $-1 #
edge $-1 $209 -10.115897370447408 $210 10.115897370447408 $127 $211 forward 7 unknown #
coedge $-1 $75 $74 $124 $204 forward $29 $-1 #
coedge $-1 $212 $213 $74 $131 forward $122 $-1 #
edge $-1 $214 13.937538234593394 $137 22.610845105004817 $130 $215 forward 7 unknown #
coedge $-1 $216 $217 $75 $133 forward $218 $-1 #
edge $-1 $138 -22.610845105004817 $219 -13.937538234593394 $132 $220 forward 7 unknown #
coedge $-1 $221 $76 $217 $222 reversed $136 $-1 #
coedge $-1 $76 $221 $212 $223 reversed $136 $-1 #
loop $-1 $-1 $76 $121 #
vertex $-1 $223 $224 #
vertex $-1 $77 $225 #
straight-curve $-1 -40.885036774803922 -10.895935629165184 0 0 0 -1 I I #
face $-1 $226 $227 $17 $-1 $228 forward single #
loop $-1 $-1 $148 $78 #
plane-surface $-1 0 0 10.115897370447408 0 0 1 1 0 0 forward_v I I I I #
coedge $-1 $84 $229 $81 $146 forward $79 $-1 #
coedge $-1 $230 $81 $231 $232 reversed $49 $-1 #
coedge $-1 $81 $230 $82 $147 reversed $49 $-1 #
edge $-1 $233 -15.294258445056446 $151 -5.4995854054057993 $143 $234 forward 7 unknown #
edge $-1 $151 -81.770073549607872 $235 -74.185695527359485 $82 $236 forward 7 unknown #
coedge $-1 $237 $238 $83 $149 forward $141 $-1 #
edge $-1 $152 -5.4775554291594091 $235 -1.6853665196467134 $148 $239 forward 7 unknown #
coedge $-1 $240 $84 $238 $241 reversed $79 $-1 #
vertex $-1 $146 $242 #
vertex $-1 $149 $243 #
straight-curve $-1 40.885036774803922 15.896507330636922 57.623815273839412 0 0 1 I I #
face $-1 $244 $245 $18 $-1 $246 reversed single #
loop $-1 $247 $92 $86 #
plane-surface $-1 1.095512317306202e-006 20.793843850462245 74.362594868387234 0.86602541151947299 0 0.49999998660252726 0.49999998660252726 0 -0.86602541151947299 forward_v I I I I #
coedge $-1 $248 $249 $250 $251 reversed $87 $-1 #
coedge $-1 $158 $158 $-1 $252 forward $89 $-1 #
edge $-1 $253 0 $253 6.2831853071796004 $90 $254 forward 7 unknown #
vertex $-1 $93 $255 #
ellipse-curve $-1 38.98894232004757 18.694985341965676 6.8317653215289527 -0.86602541151947299 0 -0.49999998660252726 0.49999998660252726 0 -0.86602541151947299 1 I I #
face $-1 $256 $257 $19 $-1 $258 forward single #
loop $-1 $259 $260 $94 #
cone-surface $-1 35.326603923607991 18.694985341965676 4.7173133380232297 -0.86602541151947299 0 -0.49999998660252726 0.24999999330126363 0 -0.43301270575973649 1 I I -0.70710678118654746 0.70710678118654746 0.5 forward I I I I #
loop $-1 $-1 $261 $57 #
coedge $-1 $166 $166 $262 $263 reversed $95 $-1 #
coedge $-1 $167 $167 $-1 $264 forward $97 $-1 #
edge $-1 $265 0 $265 6.2831853071796004 $98 $266 forward 7 unknown #
loop $-1 $267 $100 $256 #
vertex $-1 $101 $268 #
ellipse-curve $-1 38.98894232004757 22.892702358958815 6.8317653215289527 -0.86602541151947299 0 -0.49999998660252726 0.49999998660252726 0 -0.86602541151947299 1 I I #
face $-1 $-1 $117 $15 $-1 $269 reversed single #
loop $-1 $-1 $188 $102 #
plane-surface $-1 0 25.691180370287569 0 0 -1 0 0 0 -1 forward_v I I I I #
coedge $-1 $270 $186 $189 $271 forward $103 $-1 #
coedge $-1 $192 $105 $106 $180 reversed $63 $-1 #
coedge $-1 $186 $270 $105 $178 reversed $103 $-1 #
edge $-1 $193 -10.115897370447408 $272 10.115897370447408 $177 $273 forward 7 unknown #
coedge $-1 $107 $106 $270 $274 forward $41 $-1 #
edge $-1 $184 -40.885036774803922 $272 40.885036774803922 $176 $275 forward 7 unknown #
coedge $-1 $189 $188 $107 $182 reversed $173 $-1 #
edge $-1 $276 -40.885036774803922 $183 40.885036774803922 $181 $277 forward 7 unknown #
vertex $-1 $109 $278 #
vertex $-1 $195 $279 #
straight-curve $-1 40.885036774803922 0 -10.115897370447408 0 -1 0 I I #
coedge $-1 $175 $177 $110 $187 reversed $103 $-1 #
edge $-1 $190 -25.691180370287569 $193 25.691180370287569 $186 $280 forward 7 unknown #
coedge $-1 $181 $111 $116 $196 forward $173 $-1 #
coedge $-1 $111 $181 $175 $271 reversed $173 $-1 #
vertex $-1 $112 $281 #
straight-curve $-1 0 25.691180370287569 10.115897370447408 -1 0 0 I I #
coedge $-1 $113 $176 $115 $195 reversed $63 $-1 #
vertex $-1 $187 $282 #
straight-curve $-1 0 -25.691180370287569 10.115897370447408 1 0 0 I I #
edge $-1 $118 -10.115897370447408 $184 10.115897370447408 $115 $283 forward 7 unknown #
edge $-1 $119 -10.115897370447408 $183 10.115897370447408 $116 $284 forward 7 unknown #
point $-1 40.885036774803922 -25.691180370287569 10.115897370447408 #
point $-1 40.885036774803922 25.691180370287569 10.115897370447408 #
face $-1 $285 $218 $16 $-1 $286 reversed single #
plane-surface $-1 -40.885036774803922 0 0 1 0 0 0 0 -1 forward_v I I I I #
coedge $-1 $213 $287 $125 $206 forward $122 $-1 #
coedge $-1 $127 $124 $213 $288 reversed $71 $-1 #
coedge $-1 $124 $127 $216 $289 reversed $71 $-1 #
edge $-1 $214 -10.115897370447408 $219 10.115897370447408 $124 $290 forward 7 unknown #
coedge $-1 $126 $125 $291 $292 reversed $45 $-1 #
edge $-1 $293 -22.610845105004817 $209 -13.937538234593394 $201 $294 forward 7 unknown #
coedge $-1 $295 $216 $126 $208 forward $218 $-1 #
edge $-1 $210 13.937538234593394 $296 22.610845105004817 $207 $297 forward 7 unknown #
vertex $-1 $206 $298 #
vertex $-1 $208 $299 #
straight-curve $-1 -32.211729904392499 -7.129711123380825 0 0 0 -1 I I #
coedge $-1 $300 $130 $135 $223 forward $122 $-1 #
coedge $-1 $130 $201 $202 $288 forward $122 $-1 #
vertex $-1 $131 $301 #
straight-curve $-1 -18.274191669799105 -10.895935629165184 10.115897370447408 -1 0 0 I I #
coedge $-1 $207 $132 $203 $289 forward $218 $-1 #
coedge $-1 $132 $302 $134 $222 forward $218 $-1 #
loop $-1 $-1 $207 $199 #
vertex $-1 $133 $303 #
straight-curve $-1 -18.274191669799105 -10.895935629165184 -10.115897370447408 1 0 0 I I #
coedge $-1 $135 $134 $304 $305 reversed $136 $-1 #
edge $-1 $306 -25.691180370287569 $138 -10.895935629165184 $134 $307 forward 7 unknown #
edge $-1 $137 10.895935629165184 $308 25.691180370287569 $135 $309 forward 7 unknown #
point $-1 -40.885036774803922 -10.895935629165184 10.115897370447408 #
point $-1 -40.885036774803922 -10.895935629165184 -10.115897370447408 #
face $-1 $310 $311 $17 $-1 $312 forward single #
loop $-1 $-1 $313 $140 #
plane-surface $-1 -36.54838333959821 -10.895935629165184 0 0 1 0 0 0 1 forward_v I I I I #
coedge $-1 $143 $314 $315 $316 reversed $79 $-1 #
coedge $-1 $145 $144 $237 $317 reversed $49 $-1 #
coedge $-1 $315 $318 $144 $232 forward $319 $-1 #
edge $-1 $320 41.9857473899621 $233 49.57012541221048 $231 $321 forward 7 unknown #
vertex $-1 $316 $322 #
straight-curve $-1 40.885036774803922 10.396921925231123 3.5476332726105042 0 -1 0 I I #
vertex $-1 $317 $323 #
straight-curve $-1 1.095512317306202e-006 15.896507330636922 74.362594868387234 -0.49999998660252726 0 0.86602541151947299 I I #
coedge $-1 $324 $148 $230 $317 forward $141 $-1 #
coedge $-1 $148 $325 $150 $241 forward $141 $-1 #
straight-curve $-1 35.407481345644513 15.896507330636922 10.115897370447406 -1 0 0 I I #
coedge $-1 $314 $150 $326 $327 forward $79 $-1 #
edge $-1 $328 -25.691180370287569 $152 15.896507330636922 $150 $329 forward 7 unknown #
point $-1 40.885036774803922 15.896507330636922 3.5476332726104971 #
point $-1 40.885036774803922 15.896507330636922 10.115897370447408 #
face $-1 $330 $331 $18 $-1 $332 forward single #
loop $-1 $-1 $333 $154 #
plane-surface $-1 40.885036774803922 0 0 -1 0 0 0 0 1 forward_v I I I I #
loop $-1 $-1 $334 $86 #
coedge $-1 $249 $157 $335 $336 forward $87 $-1 #
coedge $-1 $157 $248 $337 $338 reversed $87 $-1 #
coedge $-1 $339 $333 $157 $251 forward $245 $-1 #
edge $-1 $340 -54.076182001228915 $341 -47.507917903392006 $250 $342 forward 7 unknown #
edge $-1 $343 1 $343 0 $158 $-1 forward 7 unknown #
vertex $-1 $159 $344 #
ellipse-curve $-1 35.759616629367727 18.694985341965676 4.967313331324493 0.86602541151947299 0 0.49999998660252726 0.49999998660252726 0 -0.86602541151947299 1 I I #
point $-1 39.48894230665011 18.694985341965676 5.9657399100094883 #
face $-1 $345 $169 $19 $-1 $346 forward single #
loop $-1 $-1 $347 $162 #
plane-surface $-1 70.814962691289026 15.896507330636922 115.24763054767882 0 1 0 0.86602541151947299 0 0.49999998660252726 forward_v I I I I #
loop $-1 $-1 $348 $94 #
coedge $-1 $260 $260 $261 $349 forward $163 $-1 #
coedge $-1 $261 $261 $260 $349 reversed $165 $-1 #
coedge $-1 $262 $262 $166 $263 forward $267 $-1 #
edge $-1 $350 0 $350 6.2831853071796004 $262 $351 forward 7 unknown #
edge $-1 $352 1 $352 0 $167 $-1 forward 7 unknown #
vertex $-1 $168 $353 #
ellipse-curve $-1 35.759616629367727 22.892702358958815 4.967313331324493 0.86602541151947299 0 0.49999998660252726 0.49999998660252726 0 -0.86602541151947299 1 I I #
loop $-1 $354 $262 $256 #
point $-1 39.48894230665011 22.892702358958815 5.9657399100094883 #
plane-surface $-1 40.885036774803922 0 0 -1 0 0 0 0 1 forward_v I I I I #
coedge $-1 $177 $175 $179 $274 reversed $103 $-1 #
edge $-1 $190 -10.115897370447408 $276 10.115897370447408 $189 $355 forward 7 unknown #
vertex $-1 $274 $356 #
straight-curve $-1 -40.885036774803922 -25.691180370287569 0 0 0 -1 I I #
edge $-1 $272 -25.691180370287569 $276 25.691180370287569 $270 $357 forward 7 unknown #
straight-curve $-1 0 -25.691180370287569 -10.115897370447408 -1 0 0 I I #
vertex $-1 $182 $358 #
straight-curve $-1 0 25.691180370287569 -10.115897370447408 1 0 0 I I #
point $-1 40.885036774803922 25.691180370287569 -10.115897370447408 #
point $-1 40.885036774803922 -25.691180370287569 -10.115897370447408 #
straight-curve $-1 -40.885036774803922 0 10.115897370447408 0 -1 0 I I #
point $-1 -40.885036774803922 25.691180370287569 10.115897370447408 #
point $-1 -40.885036774803922 -25.691180370287569 10.115897370447408 #
straight-curve $-1 40.885036774803922 -25.691180370287569 0 0 0 -1 I I #
straight-curve $-1 40.885036774803922 25.691180370287569 0 0 0 -1 I I #
face $-1 $359 $360 $16 $-1 $361 reversed single #
plane-surface $-1 0 0 -10.115897370447408 0 0 1 1 0 0 forward_v I I I I #
coedge $-1 $201 $362 $363 $364 forward $122 $-1 #
edge $-1 $209 2.6232994352443226 $214 6.3895239410286813 $213 $365 forward 7 unknown #
edge $-1 $219 -6.3895239410286813 $210 -2.6232994352443226 $216 $366 forward 7 unknown #
straight-curve $-1 -32.211729904392499 -10.895935629165184 0 0 0 -1 I I #
coedge $-1 $363 $367 $205 $292 forward $368 $-1 #
edge $-1 $296 -10.115897370447408 $293 10.115897370447408 $291 $369 forward 7 unknown #
vertex $-1 $292 $370 #
straight-curve $-1 -18.274191669799105 -7.129711123380825 10.115897370447408 1 0 0 I I #
coedge $-1 $371 $207 $367 $372 forward $218 $-1 #
vertex $-1 $372 $373 #
straight-curve $-1 -18.274191669799105 -7.129711123380825 -10.115897370447408 -1 0 0 I I #
point $-1 -32.211729904392499 -7.129711123380825 10.115897370447408 #
point $-1 -32.211729904392499 -7.129711123380825 -10.115897370447408 #
coedge $-1 $374 $212 $375 $376 forward $122 $-1 #
point $-1 -32.211729904392499 -10.895935629165184 10.115897370447408 #
coedge $-1 $217 $377 $378 $379 forward $218 $-1 #
point $-1 -32.211729904392499 -10.895935629165184 -10.115897370447408 #
coedge $-1 $378 $375 $221 $305 forward $360 $-1 #
edge $-1 $308 -10.115897370447408 $306 10.115897370447408 $221 $380 forward 7 unknown #
vertex $-1 $222 $381 #
straight-curve $-1 -40.885036774803922 0 -10.115897370447408 0 1 0 I I #
vertex $-1 $223 $382 #
straight-curve $-1 -40.885036774803922 0 10.115897370447408 0 -1 0 I I #
face $-1 $383 $384 $17 $-1 $385 forward single #
loop $-1 $-1 $386 $226 #
plane-surface $-1 -36.54838333959821 -7.129711123380825 0 0 -1 0 0 0 -1 forward_v I I I I #
coedge $-1 $387 $388 $389 $390 reversed $227 $-1 #
coedge $-1 $229 $240 $391 $392 reversed $79 $-1 #
coedge $-1 $393 $231 $229 $316 forward $319 $-1 #
edge $-1 $233 -3.5476332726105131 $394 10.115897370447408 $229 $395 forward 7 unknown #
edge $-1 $235 5.4995854054057993 $320 15.294258445056446 $237 $396 forward 7 unknown #
coedge $-1 $231 $397 $324 $398 reversed $319 $-1 #
loop $-1 $-1 $231 $399 #
vertex $-1 $398 $400 #
straight-curve $-1 16.099974732813081 25.691180370287569 46.476621531791977 0.49999998660252726 0 -0.86602541151947299 I I #
point $-1 40.885036774803922 25.691180370287569 3.5476332726105131 #
point $-1 37.092847865291226 15.896507330636922 10.115897370447414 #
coedge $-1 $401 $237 $318 $398 forward $141 $-1 #
coedge $-1 $238 $402 $403 $404 forward $141 $-1 #
coedge $-1 $403 $405 $240 $327 reversed $406 $-1 #
edge $-1 $328 -10.115897370447408 $407 10.115897370447408 $240 $408 forward 7 unknown #
vertex $-1 $241 $409 #
straight-curve $-1 40.885036774803922 0 10.115897370447408 0 1 0 I I #
face $-1 $410 $411 $18 $-1 $412 forward single #
loop $-1 $-1 $337 $244 #
plane-surface $-1 0 0 10.115897370447408 0 0 1 1 0 0 forward_v I I I I #
coedge $-1 $250 $413 $334 $414 forward $245 $-1 #
coedge $-1 $415 $335 $333 $414 reversed $247 $-1 #
coedge $-1 $334 $416 $248 $336 reversed $247 $-1 #
edge $-1 $340 -81.770073549607872 $417 -74.185695527359485 $248 $418 forward 7 unknown #
coedge $-1 $419 $420 $249 $338 forward $331 $-1 #
edge $-1 $341 -5.4775554291594091 $417 -1.6853665196467134 $337 $421 forward 7 unknown #
coedge $-1 $422 $250 $420 $423 reversed $245 $-1 #
vertex $-1 $414 $424 #
vertex $-1 $338 $425 #
straight-curve $-1 40.885036774803922 15.896507330636922 57.623815273839412 0 0 1 I I #
vertex $-1 $252 $426 #
point $-1 36.259616615970252 18.694985341965676 4.1012879198050207 #
face $-1 $427 $428 $19 $-1 $429 reversed single #
plane-surface $-1 1.095512317306202e-006 20.793843850462245 74.362594868387234 0.86602541151947299 0 0.49999998660252726 0.49999998660252726 0 -0.86602541151947299 forward_v I I I I #
coedge $-1 $430 $431 $432 $433 reversed $257 $-1 #
coedge $-1 $348 $348 $-1 $434 forward $259 $-1 #
edge $-1 $435 0 $435 6.2831853071796004 $260 $436 forward 7 unknown #
vertex $-1 $263 $437 #
ellipse-curve $-1 38.98894232004757 18.694985341965676 6.8317653215289527 -0.86602541151947299 0 -0.49999998660252726 0.49999998660252726 0 -0.86602541151947299 1 I I #
vertex $-1 $264 $438 #
point $-1 36.259616615970252 22.892702358958815 4.1012879198050207 #
loop $-1 $-1 $439 $256 #
straight-curve $-1 -40.885036774803922 25.691180370287569 0 0 0 -1 I I #
point $-1 -40.885036774803922 -25.691180370287569 -10.115897370447408 #
straight-curve $-1 -40.885036774803922 0 -10.115897370447408 0 1 0 I I #
point $-1 -40.885036774803922 25.691180370287569 -10.115897370447408 #
face $-1 $440 $368 $16 $-1 $200 reversed single #
loop $-1 $-1 $304 $285 #
plane-surface $-1 0 -25.691180370287569 0 0 1 0 0 0 1 forward_v I I I I #
coedge $-1 $287 $374 $441 $442 forward $122 $-1 #
coedge $-1 $443 $291 $287 $364 reversed $368 $-1 #
edge $-1 $444 -25.691180370287569 $293 7.129711123380825 $363 $309 forward 7 unknown #
straight-curve $-1 -32.211729904392499 -4.5064116881365024 10.115897370447408 0 -1 0 I I #
straight-curve $-1 -32.211729904392499 -4.5064116881365024 -10.115897370447408 0 1 0 I I #
coedge $-1 $291 $443 $295 $372 reversed $368 $-1 #
loop $-1 $-1 $291 $359 #
straight-curve $-1 -40.885036774803922 -7.129711123380825 0 0 0 1 I I #
point $-1 -40.885036774803922 -7.129711123380825 10.115897370447408 #
coedge $-1 $377 $295 $445 $446 forward $218 $-1 #
edge $-1 $296 -7.129711123380825 $447 25.691180370287569 $367 $307 forward 7 unknown #
point $-1 -40.885036774803922 -7.129711123380825 -10.115897370447408 #
coedge $-1 $362 $300 $448 $449 forward $122 $-1 #
coedge $-1 $304 $450 $300 $376 reversed $360 $-1 #
edge $-1 $308 -40.885036774803922 $451 40.885036774803922 $375 $452 forward 7 unknown #
coedge $-1 $302 $371 $453 $454 forward $218 $-1 #
coedge $-1 $450 $304 $302 $379 reversed $360 $-1 #
edge $-1 $455 -40.885036774803922 $306 40.885036774803922 $378 $456 forward 7 unknown #
straight-curve $-1 -40.885036774803922 -25.691180370287569 0 0 0 -1 I I #
point $-1 -40.885036774803922 -25.691180370287569 -10.115897370447408 #
point $-1 -40.885036774803922 -25.691180370287569 10.115897370447408 #
face $-1 $457 $458 $17 $-1 $459 reversed single #
loop $-1 $-1 $460 $310 #
plane-surface $-1 -32.211729904392499 -9.0128233762730048 0 -1 0 0 0 0 1 forward_v I I I I #
coedge $-1 $461 $462 $463 $464 reversed $311 $-1 #
coedge $-1 $465 $313 $466 $467 reversed $227 $-1 #
coedge $-1 $313 $465 $468 $469 reversed $227 $-1 #
coedge $-1 $470 $471 $313 $390 forward $458 $-1 #
edge $-1 $472 -10.115897370447408 $473 10.115897370447408 $389 $474 forward 7 unknown #
coedge $-1 $475 $476 $314 $392 forward $477 $-1 #
edge $-1 $394 -25.691180370287569 $407 25.691180370287569 $314 $478 forward 7 unknown #
coedge $-1 $397 $315 $476 $479 reversed $319 $-1 #
vertex $-1 $392 $480 #
straight-curve $-1 40.885036774803922 25.691180370287569 0 0 0 -1 I I #
straight-curve $-1 37.092847865291226 10.396921925231123 10.115897370447414 0 1 0 I I #
coedge $-1 $318 $393 $481 $482 reversed $319 $-1 #
edge $-1 $320 -37.092847865291226 $483 40.885036774803922 $318 $484 forward 7 unknown #
face $-1 $-1 $319 $17 $-1 $485 reversed single #
point $-1 37.092847865291226 25.691180370287569 10.115897370447414 #
coedge $-1 $486 $324 $487 $488 forward $141 $-1 #
coedge $-1 $325 $466 $471 $489 forward $141 $-1 #
coedge $-1 $490 $326 $325 $404 reversed $406 $-1 #
edge $-1 $491 -40.885036774803922 $328 40.885036774803922 $403 $492 forward 7 unknown #
coedge $-1 $326 $490 $475 $493 reversed $406 $-1 #
loop $-1 $-1 $490 $494 #
vertex $-1 $327 $495 #
straight-curve $-1 40.885036774803922 -25.691180370287569 0 0 0 -1 I I #
point $-1 40.885036774803922 -25.691180370287569 10.115897370447408 #
face $-1 $496 $497 $18 $-1 $498 forward single #
loop $-1 $-1 $499 $330 #
plane-surface $-1 -36.54838333959821 -10.895935629165184 0 0 1 0 0 0 1 forward_v I I I I #
coedge $-1 $333 $500 $501 $502 reversed $245 $-1 #
edge $-1 $503 -15.294258445056446 $340 -5.4995854054057993 $333 $504 forward 7 unknown #
coedge $-1 $416 $334 $505 $506 reversed $247 $-1 #
coedge $-1 $335 $415 $419 $507 reversed $247 $-1 #
vertex $-1 $507 $508 #
straight-curve $-1 1.095512317306202e-006 15.896507330636922 74.362594868387234 -0.49999998660252726 0 0.86602541151947299 I I #
coedge $-1 $509 $337 $416 $507 forward $331 $-1 #
coedge $-1 $337 $510 $339 $423 forward $331 $-1 #
straight-curve $-1 35.407481345644513 15.896507330636922 10.115897370447406 -1 0 0 I I #
coedge $-1 $500 $339 $511 $512 forward $245 $-1 #
edge $-1 $513 -25.691180370287569 $341 15.896507330636922 $339 $514 forward 7 unknown #
point $-1 40.885036774803922 15.896507330636922 3.5476332726104971 #
point $-1 40.885036774803922 15.896507330636922 10.115897370447408 #
point $-1 34.893591217848254 18.694985341965676 4.4673133447219664 #
face $-1 $515 $516 $19 $-1 $517 forward single #
loop $-1 $-1 $518 $345 #
plane-surface $-1 40.885036774803922 0 0 -1 0 0 0 0 1 forward_v I I I I #
coedge $-1 $431 $347 $519 $520 forward $257 $-1 #
coedge $-1 $347 $430 $521 $522 reversed $257 $-1 #
coedge $-1 $523 $518 $347 $433 forward $428 $-1 #
edge $-1 $524 -54.076182001228915 $525 -47.507917903392006 $432 $526 forward 7 unknown #
edge $-1 $527 1 $527 0 $348 $-1 forward 7 unknown #
vertex $-1 $349 $528 #
ellipse-curve $-1 35.759616629367727 18.694985341965676 4.967313331324493 0.86602541151947299 0 0.49999998660252726 0.49999998660252726 0 -0.86602541151947299 1 I I #
point $-1 39.48894230665011 18.694985341965676 5.9657399100094883 #
point $-1 34.893591217848254 22.892702358958815 4.4673133447219664 #
coedge $-1 $529 $519 $518 $530 reversed $354 $-1 #
face $-1 $531 $532 $16 $-1 $533 reversed single #
coedge $-1 $534 $535 $362 $442 reversed $532 $-1 #
edge $-1 $536 -40.885036774803922 $444 40.885036774803922 $441 $537 forward 7 unknown #
coedge $-1 $367 $363 $535 $538 forward $368 $-1 #
vertex $-1 $442 $539 #
coedge $-1 $535 $534 $371 $446 reversed $532 $-1 #
edge $-1 $447 -40.885036774803922 $540 40.885036774803922 $445 $541 forward 7 unknown #
vertex $-1 $446 $542 #
coedge $-1 $543 $544 $374 $449 reversed $545 $-1 #
edge $-1 $451 -25.691180370287569 $536 25.691180370287569 $448 $546 forward 7 unknown #
coedge $-1 $375 $378 $543 $547 reversed $360 $-1 #
vertex $-1 $449 $548 #
straight-curve $-1 0 -25.691180370287569 10.115897370447408 1 0 0 I I #
coedge $-1 $544 $543 $377 $454 reversed $545 $-1 #
edge $-1 $540 -25.691180370287569 $455 25.691180370287569 $453 $549 forward 7 unknown #
vertex $-1 $547 $550 #
straight-curve $-1 0 -25.691180370287569 -10.115897370447408 -1 0 0 I I #
face $-1 $494 $477 $17 $-1 $551 reversed single #
loop $-1 $-1 $389 $383 #
plane-surface $-1 -40.885036774803922 0 0 1 0 0 0 0 -1 forward_v I I I I #
coedge $-1 $552 $553 $465 $554 reversed $384 $-1 #
coedge $-1 $555 $386 $486 $556 reversed $311 $-1 #
coedge $-1 $386 $555 $557 $558 reversed $311 $-1 #
coedge $-1 $553 $552 $386 $464 forward $384 $-1 #
edge $-1 $559 -10.115897370447408 $560 10.115897370447408 $463 $561 forward 7 unknown #
coedge $-1 $388 $387 $460 $554 forward $227 $-1 #
coedge $-1 $402 $562 $387 $467 forward $141 $-1 #
edge $-1 $563 13.937538234593394 $472 22.610845105004817 $466 $564 forward 7 unknown #
coedge $-1 $565 $566 $388 $469 forward $477 $-1 #
edge $-1 $473 -22.610845105004817 $567 -13.937538234593394 $468 $568 forward 7 unknown #
coedge $-1 $569 $389 $566 $570 reversed $458 $-1 #
coedge $-1 $389 $569 $402 $489 reversed $458 $-1 #
vertex $-1 $489 $571 #
vertex $-1 $390 $572 #
straight-curve $-1 -40.885036774803922 -10.895935629165184 0 0 0 -1 I I #
coedge $-1 $566 $391 $405 $493 forward $477 $-1 #
coedge $-1 $391 $573 $393 $479 forward $477 $-1 #
loop $-1 $-1 $557 $457 #
straight-curve $-1 40.885036774803922 0 -10.115897370447408 0 -1 0 I I #
edge $-1 $574 -40.885036774803922 $394 40.885036774803922 $393 $575 forward 7 unknown #
point $-1 40.885036774803922 25.691180370287569 -10.115897370447408 #
coedge $-1 $576 $487 $397 $482 forward $577 $-1 #
edge $-1 $483 -10.115897370447408 $574 10.115897370447408 $397 $578 forward 7 unknown #
vertex $-1 $398 $579 #
straight-curve $-1 0 25.691180370287569 10.115897370447408 -1 0 0 I I #
plane-surface $-1 0 25.691180370287569 0 0 -1 0 0 0 -1 forward_v I I I I #
coedge $-1 $562 $401 $461 $556 forward $141 $-1 #
coedge $-1 $481 $580 $401 $488 reversed $577 $-1 #
edge $-1 $483 -25.691180370287569 $581 7.129711123380825 $487 $582 forward 7 unknown #
edge $-1 $472 10.895935629165184 $491 25.691180370287569 $471 $582 forward 7 unknown #
coedge $-1 $405 $403 $569 $583 forward $406 $-1 #
vertex $-1 $489 $584 #
straight-curve $-1 0 -25.691180370287569 10.115897370447408 1 0 0 I I #
edge $-1 $407 -40.885036774803922 $585 40.885036774803922 $405 $586 forward 7 unknown #
face $-1 $587 $406 $17 $-1 $588 reversed single #
point $-1 40.885036774803922 -25.691180370287569 -10.115897370447408 #
face $-1 $589 $590 $18 $-1 $591 forward single #
loop $-1 $-1 $592 $410 #
plane-surface $-1 -36.54838333959821 -7.129711123380825 0 0 -1 0 0 0 -1 forward_v I I I I #
coedge $-1 $593 $594 $595 $596 reversed $411 $-1 #
coedge $-1 $413 $422 $597 $598 reversed $245 $-1 #
coedge $-1 $599 $505 $413 $502 forward $600 $-1 #
edge $-1 $503 -3.5476332726105131 $601 10.115897370447408 $413 $602 forward 7 unknown #
vertex $-1 $502 $603 #
straight-curve $-1 40.885036774803922 10.396921925231123 3.5476332726105042 0 -1 0 I I #
coedge $-1 $501 $604 $415 $506 forward $600 $-1 #
edge $-1 $605 41.9857473899621 $503 49.57012541221048 $505 $606 forward 7 unknown #
edge $-1 $417 5.4995854054057993 $605 15.294258445056446 $419 $607 forward 7 unknown #
point $-1 37.092847865291226 15.896507330636922 10.115897370447414 #
coedge $-1 $608 $419 $604 $609 forward $331 $-1 #
coedge $-1 $420 $610 $611 $612 forward $331 $-1 #
coedge $-1 $611 $613 $422 $512 reversed $614 $-1 #
edge $-1 $513 -10.115897370447408 $615 10.115897370447408 $422 $616 forward 7 unknown #
vertex $-1 $423 $617 #
straight-curve $-1 40.885036774803922 0 10.115897370447408 0 1 0 I I #
face $-1 $618 $619 $19 $-1 $620 forward single #
loop $-1 $-1 $521 $427 #
plane-surface $-1 0 0 10.115897370447408 0 0 1 1 0 0 forward_v I I I I #
coedge $-1 $432 $621 $439 $530 forward $428 $-1 #
coedge $-1 $439 $622 $430 $520 reversed $354 $-1 #
edge $-1 $524 -81.770073549607872 $623 -74.185695527359485 $430 $624 forward 7 unknown #
coedge $-1 $625 $626 $431 $522 forward $516 $-1 #
edge $-1 $525 -5.4775554291594091 $623 -1.6853665196467134 $521 $627 forward 7 unknown #
coedge $-1 $628 $432 $626 $629 reversed $428 $-1 #
vertex $-1 $530 $630 #
vertex $-1 $522 $631 #
straight-curve $-1 40.885036774803922 15.896507330636922 57.623815273839412 0 0 1 I I #
vertex $-1 $434 $632 #
point $-1 36.259616615970252 18.694985341965676 4.1012879198050207 #
coedge $-1 $622 $439 $633 $634 reversed $354 $-1 #
edge $-1 $635 -15.294258445056446 $524 -5.4995854054057993 $518 $636 forward 7 unknown #
face $-1 $-1 $545 $16 $-1 $637 reversed single #
loop $-1 $-1 $534 $440 #
plane-surface $-1 0 25.691180370287569 0 0 -1 0 0 0 -1 forward_v I I I I #
coedge $-1 $445 $441 $544 $638 forward $532 $-1 #
coedge $-1 $441 $445 $443 $538 reversed $532 $-1 #
vertex $-1 $449 $639 #
straight-curve $-1 0 25.691180370287569 10.115897370447408 -1 0 0 I I #
edge $-1 $444 -10.115897370447408 $447 10.115897370447408 $535 $640 forward 7 unknown #
point $-1 -40.885036774803922 25.691180370287569 10.115897370447408 #
vertex $-1 $454 $641 #
straight-curve $-1 0 25.691180370287569 -10.115897370447408 1 0 0 I I #
point $-1 -40.885036774803922 25.691180370287569 -10.115897370447408 #
coedge $-1 $453 $448 $450 $547 forward $545 $-1 #
coedge $-1 $448 $453 $534 $638 reversed $545 $-1 #
loop $-1 $-1 $543 $531 #
straight-curve $-1 40.885036774803922 0 10.115897370447408 0 1 0 I I #
edge $-1 $451 -10.115897370447408 $455 10.115897370447408 $543 $642 forward 7 unknown #
point $-1 40.885036774803922 -25.691180370287569 10.115897370447408 #
straight-curve $-1 40.885036774803922 0 -10.115897370447408 0 -1 0 I I #
point $-1 40.885036774803922 -25.691180370287569 -10.115897370447408 #
plane-surface $-1 0 0 -10.115897370447408 0 0 1 1 0 0 forward_v I I I I #
coedge $-1 $463 $460 $562 $643 reversed $384 $-1 #
coedge $-1 $460 $463 $565 $644 reversed $384 $-1 #
edge $-1 $563 -10.115897370447408 $567 10.115897370447408 $460 $645 forward 7 unknown #
coedge $-1 $462 $461 $580 $646 reversed $311 $-1 #
edge $-1 $581 -22.610845105004817 $559 -13.937538234593394 $486 $647 forward 7 unknown #
coedge $-1 $573 $565 $462 $558 forward $477 $-1 #
edge $-1 $560 13.937538234593394 $648 22.610845105004817 $557 $649 forward 7 unknown #
vertex $-1 $556 $650 #
vertex $-1 $558 $651 #
straight-curve $-1 -32.211729904392499 -7.129711123380825 0 0 0 -1 I I #
coedge $-1 $466 $486 $552 $643 forward $141 $-1 #
vertex $-1 $467 $652 #
straight-curve $-1 -18.274191669799105 -10.895935629165184 10.115897370447408 -1 0 0 I I #
coedge $-1 $557 $468 $553 $644 forward $477 $-1 #
coedge $-1 $468 $475 $470 $570 forward $477 $-1 #
vertex $-1 $469 $653 #
straight-curve $-1 -18.274191669799105 -10.895935629165184 -10.115897370447408 1 0 0 I I #
coedge $-1 $471 $470 $490 $583 reversed $458 $-1 #
edge $-1 $585 -25.691180370287569 $473 -10.895935629165184 $470 $654 forward 7 unknown #
point $-1 -40.885036774803922 -10.895935629165184 10.115897370447408 #
point $-1 -40.885036774803922 -10.895935629165184 -10.115897370447408 #
coedge $-1 $476 $557 $576 $655 forward $477 $-1 #
vertex $-1 $479 $656 #
straight-curve $-1 0 25.691180370287569 -10.115897370447408 1 0 0 I I #
coedge $-1 $580 $481 $573 $655 reversed $577 $-1 #
loop $-1 $-1 $580 $587 #
straight-curve $-1 -40.885036774803922 25.691180370287569 0 0 0 -1 I I #
point $-1 -40.885036774803922 25.691180370287569 10.115897370447408 #
coedge $-1 $487 $576 $555 $646 forward $577 $-1 #
vertex $-1 $646 $657 #
straight-curve $-1 -40.885036774803922 0 10.115897370447408 0 -1 0 I I #
edge $-1 $491 -10.115897370447408 $585 10.115897370447408 $569 $658 forward 7 unknown #
point $-1 -40.885036774803922 -25.691180370287569 10.115897370447408 #
vertex $-1 $570 $659 #
straight-curve $-1 0 -25.691180370287569 -10.115897370447408 -1 0 0 I I #
face $-1 $399 $577 $17 $-1 $459 reversed single #
plane-surface $-1 0 -25.691180370287569 0 0 1 0 0 0 1 forward_v I I I I #
face $-1 $660 $661 $18 $-1 $662 reversed single #
loop $-1 $-1 $663 $496 #
plane-surface $-1 -32.211729904392499 -9.0128233762730048 0 -1 0 0 0 0 1 forward_v I I I I #
coedge $-1 $664 $665 $666 $667 reversed $497 $-1 #
coedge $-1 $668 $499 $669 $670 reversed $411 $-1 #
coedge $-1 $499 $668 $671 $672 reversed $411 $-1 #
coedge $-1 $673 $674 $499 $596 forward $661 $-1 #
edge $-1 $675 -10.115897370447408 $676 10.115897370447408 $595 $677 forward 7 unknown #
coedge $-1 $678 $679 $500 $598 forward $680 $-1 #
edge $-1 $601 -25.691180370287569 $615 25.691180370287569 $500 $681 forward 7 unknown #
coedge $-1 $682 $501 $679 $683 reversed $600 $-1 #
loop $-1 $-1 $505 $684 #
vertex $-1 $598 $685 #
straight-curve $-1 40.885036774803922 25.691180370287569 0 0 0 -1 I I #
point $-1 40.885036774803922 25.691180370287569 3.5476332726105131 #
coedge $-1 $505 $682 $509 $609 reversed $600 $-1 #
vertex $-1 $609 $686 #
straight-curve $-1 16.099974732813081 25.691180370287569 46.476621531791977 0.49999998660252726 0 -0.86602541151947299 I I #
straight-curve $-1 37.092847865291226 10.396921925231123 10.115897370447414 0 1 0 I I #
coedge $-1 $687 $509 $688 $689 forward $331 $-1 #
edge $-1 $605 -37.092847865291226 $690 40.885036774803922 $604 $691 forward 7 unknown #
coedge $-1 $510 $669 $674 $692 forward $331 $-1 #
coedge $-1 $693 $511 $510 $612 reversed $614 $-1 #
edge $-1 $694 -40.885036774803922 $513 40.885036774803922 $611 $695 forward 7 unknown #
coedge $-1 $511 $693 $678 $696 reversed $614 $-1 #
loop $-1 $-1 $693 $697 #
vertex $-1 $512 $698 #
straight-curve $-1 40.885036774803922 -25.691180370287569 0 0 0 -1 I I #
point $-1 40.885036774803922 -25.691180370287569 10.115897370447408 #
face $-1 $699 $700 $19 $-1 $701 forward single #
loop $-1 $-1 $702 $515 #
plane-surface $-1 -36.54838333959821 -10.895935629165184 0 0 1 0 0 0 1 forward_v I I I I #
coedge $-1 $518 $703 $704 $705 reversed $428 $-1 #
coedge $-1 $519 $529 $625 $706 reversed $354 $-1 #
vertex $-1 $706 $707 #
straight-curve $-1 1.095512317306202e-006 15.896507330636922 74.362594868387234 -0.49999998660252726 0 0.86602541151947299 I I #
coedge $-1 $708 $521 $622 $706 forward $516 $-1 #
coedge $-1 $521 $709 $523 $629 forward $516 $-1 #
straight-curve $-1 35.407481345644513 15.896507330636922 10.115897370447406 -1 0 0 I I #
coedge $-1 $703 $523 $710 $711 forward $428 $-1 #
edge $-1 $712 -25.691180370287569 $525 15.896507330636922 $523 $713 forward 7 unknown #
point $-1 40.885036774803922 15.896507330636922 3.5476332726104971 #
point $-1 40.885036774803922 15.896507330636922 10.115897370447408 #
point $-1 34.893591217848254 18.694985341965676 4.4673133447219664 #
coedge $-1 $704 $714 $529 $634 forward $715 $-1 #
edge $-1 $716 41.9857473899621 $635 49.57012541221048 $633 $717 forward 7 unknown #
vertex $-1 $705 $718 #
straight-curve $-1 40.885036774803922 10.396921925231123 3.5476332726105042 0 -1 0 I I #
plane-surface $-1 40.885036774803922 0 0 -1 0 0 0 0 1 forward_v I I I I #
edge $-1 $536 -10.115897370447408 $540 10.115897370447408 $544 $719 forward 7 unknown #
point $-1 40.885036774803922 25.691180370287569 10.115897370447408 #
straight-curve $-1 -40.885036774803922 25.691180370287569 0 0 0 -1 I I #
point $-1 40.885036774803922 25.691180370287569 -10.115897370447408 #
straight-curve $-1 40.885036774803922 -25.691180370287569 0 0 0 -1 I I #
edge $-1 $559 2.6232994352443226 $563 6.3895239410286813 $562 $720 forward 7 unknown #
edge $-1 $567 -6.3895239410286813 $560 -2.6232994352443226 $565 $721 forward 7 unknown #
straight-curve $-1 -32.211729904392499 -10.895935629165184 0 0 0 -1 I I #
edge $-1 $648 -10.115897370447408 $581 10.115897370447408 $580 $722 forward 7 unknown #
straight-curve $-1 -18.274191669799105 -7.129711123380825 10.115897370447408 1 0 0 I I #
vertex $-1 $655 $723 #
straight-curve $-1 -18.274191669799105 -7.129711123380825 -10.115897370447408 -1 0 0 I I #
point $-1 -32.211729904392499 -7.129711123380825 10.115897370447408 #
point $-1 -32.211729904392499 -7.129711123380825 -10.115897370447408 #
point $-1 -32.211729904392499 -10.895935629165184 10.115897370447408 #
point $-1 -32.211729904392499 -10.895935629165184 -10.115897370447408 #
straight-curve $-1 -40.885036774803922 0 -10.115897370447408 0 1 0 I I #
edge $-1 $648 -7.129711123380825 $574 25.691180370287569 $576 $654 forward 7 unknown #
point $-1 -40.885036774803922 25.691180370287569 -10.115897370447408 #
point $-1 -40.885036774803922 -7.129711123380825 10.115897370447408 #
straight-curve $-1 -40.885036774803922 -25.691180370287569 0 0 0 -1 I I #
point $-1 -40.885036774803922 -25.691180370287569 -10.115897370447408 #
face $-1 $697 $680 $18 $-1 $724 reversed single #
loop $-1 $-1 $595 $589 #
plane-surface $-1 -40.885036774803922 0 0 1 0 0 0 0 -1 forward_v I I I I #
coedge $-1 $725 $726 $668 $727 reversed $590 $-1 #
coedge $-1 $728 $592 $687 $729 reversed $497 $-1 #
coedge $-1 $592 $728 $730 $731 reversed $497 $-1 #
coedge $-1 $726 $725 $592 $667 forward $590 $-1 #
edge $-1 $732 -10.115897370447408 $733 10.115897370447408 $666 $734 forward 7 unknown #
coedge $-1 $594 $593 $663 $727 forward $411 $-1 #
coedge $-1 $610 $735 $593 $670 forward $331 $-1 #
edge $-1 $736 13.937538234593394 $675 22.610845105004817 $669 $737 forward 7 unknown #
coedge $-1 $738 $739 $594 $672 forward $680 $-1 #
edge $-1 $676 -22.610845105004817 $740 -13.937538234593394 $671 $741 forward 7 unknown #
coedge $-1 $742 $595 $739 $743 reversed $661 $-1 #
coedge $-1 $595 $742 $610 $692 reversed $661 $-1 #
vertex $-1 $692 $744 #
vertex $-1 $596 $745 #
straight-curve $-1 -40.885036774803922 -10.895935629165184 0 0 0 -1 I I #
coedge $-1 $739 $597 $613 $696 forward $680 $-1 #
coedge $-1 $597 $746 $599 $683 forward $680 $-1 #
loop $-1 $-1 $730 $660 #
straight-curve $-1 40.885036774803922 0 -10.115897370447408 0 -1 0 I I #
coedge $-1 $604 $599 $747 $748 reversed $600 $-1 #
edge $-1 $749 -40.885036774803922 $601 40.885036774803922 $599 $750 forward 7 unknown #
face $-1 $-1 $600 $18 $-1 $751 reversed single #
point $-1 40.885036774803922 25.691180370287569 -10.115897370447408 #
point $-1 37.092847865291226 25.691180370287569 10.115897370447414 #
coedge $-1 $735 $608 $664 $729 forward $331 $-1 #
coedge $-1 $747 $752 $608 $689 reversed $753 $-1 #
edge $-1 $690 -25.691180370287569 $754 7.129711123380825 $688 $755 forward 7 unknown #
vertex $-1 $609 $756 #
straight-curve $-1 0 25.691180370287569 10.115897370447408 -1 0 0 I I #
edge $-1 $675 10.895935629165184 $694 25.691180370287569 $674 $755 forward 7 unknown #
coedge $-1 $613 $611 $742 $757 forward $614 $-1 #
vertex $-1 $692 $758 #
straight-curve $-1 0 -25.691180370287569 10.115897370447408 1 0 0 I I #
edge $-1 $615 -40.885036774803922 $759 40.885036774803922 $613 $760 forward 7 unknown #
face $-1 $761 $614 $18 $-1 $762 reversed single #
point $-1 40.885036774803922 -25.691180370287569 -10.115897370447408 #
face $-1 $763 $764 $19 $-1 $765 forward single #
loop $-1 $-1 $766 $618 #
plane-surface $-1 -36.54838333959821 -7.129711123380825 0 0 -1 0 0 0 -1 forward_v I I I I #
coedge $-1 $767 $768 $769 $770 reversed $619 $-1 #
coedge $-1 $621 $628 $771 $772 reversed $428 $-1 #
coedge $-1 $773 $633 $621 $705 forward $715 $-1 #
edge $-1 $635 -3.5476332726105131 $774 10.115897370447408 $621 $775 forward 7 unknown #
edge $-1 $623 5.4995854054057993 $716 15.294258445056446 $625 $776 forward 7 unknown #
point $-1 37.092847865291226 15.896507330636922 10.115897370447414 #
coedge $-1 $777 $625 $714 $778 forward $516 $-1 #
coedge $-1 $626 $779 $780 $781 forward $516 $-1 #
coedge $-1 $780 $782 $628 $711 reversed $783 $-1 #
edge $-1 $712 -10.115897370447408 $784 10.115897370447408 $628 $785 forward 7 unknown #
vertex $-1 $629 $786 #
straight-curve $-1 40.885036774803922 0 10.115897370447408 0 1 0 I I #
coedge $-1 $633 $787 $708 $778 reversed $715 $-1 #
loop $-1 $-1 $633 $788 #
vertex $-1 $778 $789 #
straight-curve $-1 16.099974732813081 25.691180370287569 46.476621531791977 0.49999998660252726 0 -0.86602541151947299 I I #
point $-1 40.885036774803922 25.691180370287569 3.5476332726105131 #
straight-curve $-1 40.885036774803922 25.691180370287569 0 0 0 -1 I I #
straight-curve $-1 -32.211729904392499 -4.5064116881365024 10.115897370447408 0 -1 0 I I #
straight-curve $-1 -32.211729904392499 -4.5064116881365024 -10.115897370447408 0 1 0 I I #
straight-curve $-1 -40.885036774803922 -7.129711123380825 0 0 0 1 I I #
point $-1 -40.885036774803922 -7.129711123380825 -10.115897370447408 #
plane-surface $-1 0 0 -10.115897370447408 0 0 1 1 0 0 forward_v I I I I #
coedge $-1 $666 $663 $735 $790 reversed $590 $-1 #
coedge $-1 $663 $666 $738 $791 reversed $590 $-1 #
edge $-1 $736 -10.115897370447408 $740 10.115897370447408 $663 $792 forward 7 unknown #
coedge $-1 $665 $664 $752 $793 reversed $497 $-1 #
edge $-1 $754 -22.610845105004817 $732 -13.937538234593394 $687 $794 forward 7 unknown #
coedge $-1 $746 $738 $665 $731 forward $680 $-1 #
edge $-1 $733 13.937538234593394 $795 22.610845105004817 $730 $796 forward 7 unknown #
vertex $-1 $729 $797 #
vertex $-1 $731 $798 #
straight-curve $-1 -32.211729904392499 -7.129711123380825 0 0 0 -1 I I #
coedge $-1 $669 $687 $725 $790 forward $331 $-1 #
vertex $-1 $670 $799 #
straight-curve $-1 -18.274191669799105 -10.895935629165184 10.115897370447408 -1 0 0 I I #
coedge $-1 $730 $671 $726 $791 forward $680 $-1 #
coedge $-1 $671 $678 $673 $743 forward $680 $-1 #
vertex $-1 $672 $800 #
straight-curve $-1 -18.274191669799105 -10.895935629165184 -10.115897370447408 1 0 0 I I #
coedge $-1 $674 $673 $693 $757 reversed $661 $-1 #
edge $-1 $759 -25.691180370287569 $676 -10.895935629165184 $673 $801 forward 7 unknown #
point $-1 -40.885036774803922 -10.895935629165184 10.115897370447408 #
point $-1 -40.885036774803922 -10.895935629165184 -10.115897370447408 #
coedge $-1 $679 $730 $802 $803 forward $680 $-1 #
coedge $-1 $802 $688 $682 $748 forward $753 $-1 #
edge $-1 $690 -10.115897370447408 $749 10.115897370447408 $682 $804 forward 7 unknown #
vertex $-1 $683 $805 #
straight-curve $-1 0 25.691180370287569 -10.115897370447408 1 0 0 I I #
plane-surface $-1 0 25.691180370287569 0 0 -1 0 0 0 -1 forward_v I I I I #
coedge $-1 $688 $802 $728 $793 forward $753 $-1 #
loop $-1 $-1 $752 $761 #
vertex $-1 $793 $806 #
straight-curve $-1 -40.885036774803922 0 10.115897370447408 0 -1 0 I I #
point $-1 -40.885036774803922 25.691180370287569 10.115897370447408 #
edge $-1 $694 -10.115897370447408 $759 10.115897370447408 $742 $807 forward 7 unknown #
point $-1 -40.885036774803922 -25.691180370287569 10.115897370447408 #
vertex $-1 $743 $808 #
straight-curve $-1 0 -25.691180370287569 -10.115897370447408 -1 0 0 I I #
face $-1 $684 $753 $18 $-1 $662 reversed single #
plane-surface $-1 0 -25.691180370287569 0 0 1 0 0 0 1 forward_v I I I I #
face $-1 $809 $810 $19 $-1 $811 reversed single #
loop $-1 $-1 $812 $699 #
plane-surface $-1 -32.211729904392499 -9.0128233762730048 0 -1 0 0 0 0 1 forward_v I I I I #
coedge $-1 $813 $814 $815 $816 reversed $700 $-1 #
coedge $-1 $817 $702 $818 $819 reversed $619 $-1 #
coedge $-1 $702 $817 $820 $821 reversed $619 $-1 #
coedge $-1 $822 $823 $702 $770 forward $810 $-1 #
edge $-1 $824 -10.115897370447408 $825 10.115897370447408 $769 $826 forward 7 unknown #
coedge $-1 $827 $828 $703 $772 forward $829 $-1 #
edge $-1 $774 -25.691180370287569 $784 25.691180370287569 $703 $830 forward 7 unknown #
coedge $-1 $787 $704 $828 $831 reversed $715 $-1 #
vertex $-1 $772 $832 #
straight-curve $-1 40.885036774803922 25.691180370287569 0 0 0 -1 I I #
straight-curve $-1 37.092847865291226 10.396921925231123 10.115897370447414 0 1 0 I I #
coedge $-1 $833 $708 $834 $835 forward $516 $-1 #
edge $-1 $716 -37.092847865291226 $836 40.885036774803922 $714 $837 forward 7 unknown #
coedge $-1 $709 $818 $823 $838 forward $516 $-1 #
coedge $-1 $839 $710 $709 $781 reversed $783 $-1 #
edge $-1 $840 -40.885036774803922 $712 40.885036774803922 $780 $841 forward 7 unknown #
coedge $-1 $710 $839 $827 $842 reversed $783 $-1 #
loop $-1 $-1 $839 $843 #
vertex $-1 $711 $844 #
straight-curve $-1 40.885036774803922 -25.691180370287569 0 0 0 -1 I I #
point $-1 40.885036774803922 -25.691180370287569 10.115897370447408 #
coedge $-1 $714 $773 $845 $846 reversed $715 $-1 #
face $-1 $-1 $715 $19 $-1 $847 reversed single #
point $-1 37.092847865291226 25.691180370287569 10.115897370447414 #
edge $-1 $732 2.6232994352443226 $736 6.3895239410286813 $735 $848 forward 7 unknown #
edge $-1 $740 -6.3895239410286813 $733 -2.6232994352443226 $738 $849 forward 7 unknown #
straight-curve $-1 -32.211729904392499 -10.895935629165184 0 0 0 -1 I I #
edge $-1 $795 -10.115897370447408 $754 10.115897370447408 $752 $850 forward 7 unknown #
straight-curve $-1 -18.274191669799105 -7.129711123380825 10.115897370447408 1 0 0 I I #
vertex $-1 $803 $851 #
straight-curve $-1 -18.274191669799105 -7.129711123380825 -10.115897370447408 -1 0 0 I I #
point $-1 -32.211729904392499 -7.129711123380825 10.115897370447408 #
point $-1 -32.211729904392499 -7.129711123380825 -10.115897370447408 #
point $-1 -32.211729904392499 -10.895935629165184 10.115897370447408 #
point $-1 -32.211729904392499 -10.895935629165184 -10.115897370447408 #
straight-curve $-1 -40.885036774803922 0 -10.115897370447408 0 1 0 I I #
coedge $-1 $752 $747 $746 $803 reversed $753 $-1 #
edge $-1 $795 -7.129711123380825 $749 25.691180370287569 $802 $801 forward 7 unknown #
straight-curve $-1 -40.885036774803922 25.691180370287569 0 0 0 -1 I I #
point $-1 -40.885036774803922 25.691180370287569 -10.115897370447408 #
point $-1 -40.885036774803922 -7.129711123380825 10.115897370447408 #
straight-curve $-1 -40.885036774803922 -25.691180370287569 0 0 0 -1 I I #
point $-1 -40.885036774803922 -25.691180370287569 -10.115897370447408 #
face $-1 $843 $829 $19 $-1 $852 reversed single #
loop $-1 $-1 $769 $763 #
plane-surface $-1 -40.885036774803922 0 0 1 0 0 0 0 -1 forward_v I I I I #
coedge $-1 $853 $854 $817 $855 reversed $764 $-1 #
coedge $-1 $856 $766 $833 $857 reversed $700 $-1 #
coedge $-1 $766 $856 $858 $859 reversed $700 $-1 #
coedge $-1 $854 $853 $766 $816 forward $764 $-1 #
edge $-1 $860 -10.115897370447408 $861 10.115897370447408 $815 $862 forward 7 unknown #
coedge $-1 $768 $767 $812 $855 forward $619 $-1 #
coedge $-1 $779 $863 $767 $819 forward $516 $-1 #
edge $-1 $864 13.937538234593394 $824 22.610845105004817 $818 $865 forward 7 unknown #
coedge $-1 $866 $867 $768 $821 forward $829 $-1 #
edge $-1 $825 -22.610845105004817 $868 -13.937538234593394 $820 $869 forward 7 unknown #
coedge $-1 $870 $769 $867 $871 reversed $810 $-1 #
coedge $-1 $769 $870 $779 $838 reversed $810 $-1 #
vertex $-1 $838 $872 #
vertex $-1 $770 $873 #
straight-curve $-1 -40.885036774803922 -10.895935629165184 0 0 0 -1 I I #
coedge $-1 $867 $771 $782 $842 forward $829 $-1 #
coedge $-1 $771 $874 $773 $831 forward $829 $-1 #
loop $-1 $-1 $858 $809 #
straight-curve $-1 40.885036774803922 0 -10.115897370447408 0 -1 0 I I #
edge $-1 $875 -40.885036774803922 $774 40.885036774803922 $773 $876 forward 7 unknown #
point $-1 40.885036774803922 25.691180370287569 -10.115897370447408 #
coedge $-1 $863 $777 $813 $857 forward $516 $-1 #
coedge $-1 $845 $877 $777 $835 reversed $878 $-1 #
edge $-1 $836 -25.691180370287569 $879 7.129711123380825 $834 $880 forward 7 unknown #
vertex $-1 $778 $881 #
straight-curve $-1 0 25.691180370287569 10.115897370447408 -1 0 0 I I #
edge $-1 $824 10.895935629165184 $840 25.691180370287569 $823 $880 forward 7 unknown #
coedge $-1 $782 $780 $870 $882 forward $783 $-1 #
vertex $-1 $838 $883 #
straight-curve $-1 0 -25.691180370287569 10.115897370447408 1 0 0 I I #
edge $-1 $784 -40.885036774803922 $884 40.885036774803922 $782 $885 forward 7 unknown #
face $-1 $886 $783 $19 $-1 $887 reversed single #
point $-1 40.885036774803922 -25.691180370287569 -10.115897370447408 #
coedge $-1 $888 $834 $787 $846 forward $878 $-1 #
edge $-1 $836 -10.115897370447408 $875 10.115897370447408 $787 $889 forward 7 unknown #
plane-surface $-1 0 25.691180370287569 0 0 -1 0 0 0 -1 forward_v I I I I #
straight-curve $-1 -32.211729904392499 -4.5064116881365024 10.115897370447408 0 -1 0 I I #
straight-curve $-1 -32.211729904392499 -4.5064116881365024 -10.115897370447408 0 1 0 I I #
straight-curve $-1 -40.885036774803922 -7.129711123380825 0 0 0 1 I I #
point $-1 -40.885036774803922 -7.129711123380825 -10.115897370447408 #
plane-surface $-1 0 0 -10.115897370447408 0 0 1 1 0 0 forward_v I I I I #
coedge $-1 $815 $812 $863 $890 reversed $764 $-1 #
coedge $-1 $812 $815 $866 $891 reversed $764 $-1 #
edge $-1 $864 -10.115897370447408 $868 10.115897370447408 $812 $892 forward 7 unknown #
coedge $-1 $814 $813 $877 $893 reversed $700 $-1 #
edge $-1 $879 -22.610845105004817 $860 -13.937538234593394 $833 $894 forward 7 unknown #
coedge $-1 $874 $866 $814 $859 forward $829 $-1 #
edge $-1 $861 13.937538234593394 $895 22.610845105004817 $858 $896 forward 7 unknown #
vertex $-1 $857 $897 #
vertex $-1 $859 $898 #
straight-curve $-1 -32.211729904392499 -7.129711123380825 0 0 0 -1 I I #
coedge $-1 $818 $833 $853 $890 forward $516 $-1 #
vertex $-1 $819 $899 #
straight-curve $-1 -18.274191669799105 -10.895935629165184 10.115897370447408 -1 0 0 I I #
coedge $-1 $858 $820 $854 $891 forward $829 $-1 #
coedge $-1 $820 $827 $822 $871 forward $829 $-1 #
vertex $-1 $821 $900 #
straight-curve $-1 -18.274191669799105 -10.895935629165184 -10.115897370447408 1 0 0 I I #
coedge $-1 $823 $822 $839 $882 reversed $810 $-1 #
edge $-1 $884 -25.691180370287569 $825 -10.895935629165184 $822 $901 forward 7 unknown #
point $-1 -40.885036774803922 -10.895935629165184 10.115897370447408 #
point $-1 -40.885036774803922 -10.895935629165184 -10.115897370447408 #
coedge $-1 $828 $858 $888 $902 forward $829 $-1 #
vertex $-1 $831 $903 #
straight-curve $-1 0 25.691180370287569 -10.115897370447408 1 0 0 I I #
coedge $-1 $834 $888 $856 $893 forward $878 $-1 #
loop $-1 $-1 $877 $886 #
vertex $-1 $893 $904 #
straight-curve $-1 -40.885036774803922 0 10.115897370447408 0 -1 0 I I #
point $-1 -40.885036774803922 25.691180370287569 10.115897370447408 #
edge $-1 $840 -10.115897370447408 $884 10.115897370447408 $870 $905 forward 7 unknown #
point $-1 -40.885036774803922 -25.691180370287569 10.115897370447408 #
vertex $-1 $871 $906 #
straight-curve $-1 0 -25.691180370287569 -10.115897370447408 -1 0 0 I I #
face $-1 $788 $878 $19 $-1 $811 reversed single #
plane-surface $-1 0 -25.691180370287569 0 0 1 0 0 0 1 forward_v I I I I #
coedge $-1 $877 $845 $874 $902 reversed $878 $-1 #
straight-curve $-1 -40.885036774803922 25.691180370287569 0 0 0 -1 I I #
edge $-1 $860 2.6232994352443226 $864 6.3895239410286813 $863 $907 forward 7 unknown #
edge $-1 $868 -6.3895239410286813 $861 -2.6232994352443226 $866 $908 forward 7 unknown #
straight-curve $-1 -32.211729904392499 -10.895935629165184 0 0 0 -1 I I #
edge $-1 $895 -10.115897370447408 $879 10.115897370447408 $877 $909 forward 7 unknown #
straight-curve $-1 -18.274191669799105 -7.129711123380825 10.115897370447408 1 0 0 I I #
vertex $-1 $902 $910 #
straight-curve $-1 -18.274191669799105 -7.129711123380825 -10.115897370447408 -1 0 0 I I #
point $-1 -32.211729904392499 -7.129711123380825 10.115897370447408 #
point $-1 -32.211729904392499 -7.129711123380825 -10.115897370447408 #
point $-1 -32.211729904392499 -10.895935629165184 10.115897370447408 #
point $-1 -32.211729904392499 -10.895935629165184 -10.115897370447408 #
straight-curve $-1 -40.885036774803922 0 -10.115897370447408 0 1 0 I I #
edge $-1 $895 -7.129711123380825 $875 25.691180370287569 $888 $901 forward 7 unknown #
point $-1 -40.885036774803922 25.691180370287569 -10.115897370447408 #
point $-1 -40.885036774803922 -7.129711123380825 10.115897370447408 #
straight-curve $-1 -40.885036774803922 -25.691180370287569 0 0 0 -1 I I #
point $-1 -40.885036774803922 -25.691180370287569 -10.115897370447408 #
straight-curve $-1 -32.211729904392499 -4.5064116881365024 10.115897370447408 0 -1 0 I I #
straight-curve $-1 -32.211729904392499 -4.5064116881365024 -10.115897370447408 0 1 0 I I #
straight-curve $-1 -40.885036774803922 -7.129711123380825 0 0 0 1 I I #
point $-1 -40.885036774803922 -7.129711123380825 -10.115897370447408 #
End-of-ACIS-data 