500 0 10 0           
7 Unknown 11 ACIS 5.0 NT 24 Thu Mar 25 18:34:51 1999 
-1 9.9999999999999995e-007 1e-010 
body $-1 $10 $-1 $11 #
body $-1 $12 $-1 $13 #
body $-1 $14 $-1 $15 #
body $-1 $16 $-1 $17 #
body $-1 $18 $-1 $19 #
body $-1 $20 $-1 $21 #
body $-1 $22 $-1 $23 #
body $-1 $24 $-1 $25 #
body $-1 $26 $-1 $27 #
body $-1 $28 $-1 $29 #
lump $-1 $-1 $30 $0 #
transform $-1 1 0 0 0 1 0 0 0 1 76.695455793939033 48.312262166385608 19.049925866522781 1 rotate no_reflect no_shear #
lump $-1 $-1 $31 $1 #
transform $-1 1 0 0 0 1 0 0 0 1 76.695455793939033 48.312262166385608 19.049925866522781 1 rotate no_reflect no_shear #
lump $-1 $-1 $32 $2 #
transform $-1 1 0 0 0 1 0 0 0 1 76.695455793939033 48.312262166385608 19.049925866522781 1 rotate no_reflect no_shear #
lump $-1 $-1 $33 $3 #
transform $-1 1 0 0 0 1 0 0 0 1 76.695455793939033 48.312262166385608 19.049925866522781 1 rotate no_reflect no_shear #
lump $-1 $-1 $34 $4 #
transform $-1 1 0 0 0 1 0 0 0 1 76.695455793939033 48.312262166385608 19.049925866522781 1 rotate no_reflect no_shear #
lump $-1 $-1 $35 $5 #
transform $-1 1 0 0 0 1 0 0 0 1 76.695455793939033 48.312262166385608 19.049925866522781 1 rotate no_reflect no_shear #
lump $-1 $-1 $36 $6 #
transform $-1 1 0 0 0 1 0 0 0 1 76.695455793939033 48.312262166385608 19.049925866522781 1 rotate no_reflect no_shear #
lump $-1 $-1 $37 $7 #
transform $-1 1 0 0 0 1 0 0 0 1 76.695455793939033 48.312262166385608 19.049925866522781 1 rotate no_reflect no_shear #
lump $-1 $-1 $38 $8 #
transform $-1 1 0 0 0 1 0 0 0 1 76.695455793939033 48.312262166385608 19.049925866522781 1 rotate no_reflect no_shear #
lump $-1 $-1 $39 $9 #
transform $-1 1 0 0 0 1 0 0 0 1 76.695455793939033 48.312262166385608 19.049925866522781 1 rotate no_reflect no_shear #
shell $-1 $-1 $-1 $40 $-1 $10 #
shell $-1 $-1 $-1 $41 $-1 $12 #
shell $-1 $-1 $-1 $42 $-1 $14 #
shell $-1 $-1 $-1 $43 $-1 $16 #
shell $-1 $-1 $-1 $44 $-1 $18 #
shell $-1 $-1 $-1 $45 $-1 $20 #
shell $-1 $-1 $-1 $46 $-1 $22 #
shell $-1 $-1 $-1 $47 $-1 $24 #
shell $-1 $-1 $-1 $48 $-1 $26 #
shell $-1 $-1 $-1 $49 $-1 $28 #
face $-1 $50 $51 $30 $-1 $52 forward single #
face $-1 $53 $54 $31 $-1 $55 forward single #
face $-1 $56 $57 $32 $-1 $58 reversed single #
face $-1 $59 $60 $33 $-1 $61 forward single #
face $-1 $62 $63 $34 $-1 $64 forward single #
face $-1 $65 $66 $35 $-1 $67 forward single #
face $-1 $68 $69 $36 $-1 $70 reversed single #
face $-1 $71 $72 $37 $-1 $73 forward single #
face $-1 $74 $75 $38 $-1 $76 forward single #
face $-1 $77 $78 $39 $-1 $79 forward single #
face $-1 $80 $81 $30 $-1 $82 reversed single #
loop $-1 $-1 $83 $40 #
plane-surface $-1 0 0 19.049925866522781 0 0 1 1 0 0 forward_v I I I I #
face $-1 $84 $85 $31 $-1 $86 reversed single #
loop $-1 $-1 $87 $41 #
plane-surface $-1 0 -40.420929064643033 14.240503669074304 0 0 1 1 0 0 forward_v I I I I #
face $-1 $88 $89 $32 $-1 $90 reversed single #
loop $-1 $-1 $91 $42 #
plane-surface $-1 35.303737882698059 36.212012122283802 228.64850075098039 0 1 0 0.55919291073839883 0 0.82903756765294845 forward_v I I I I #
face $-1 $92 $93 $33 $-1 $94 forward single #
loop $-1 $95 $96 $43 #
cone-surface $-1 73.687151876039707 38.632062131104163 16.592585002673207 -0.55919291073839883 0 -0.82903756765294845 0.41451878382647422 0 -0.27959645536919941 1 I I 0 1 0.5 forward I I I I #
face $-1 $97 $98 $34 $-1 $99 forward single #
loop $-1 $100 $101 $44 #
cone-surface $-1 73.687151876039707 42.262137144334702 16.592585002673207 -0.55919291073839883 0 -0.82903756765294845 0.41451878382647422 0 -0.27959645536919941 1 I I 0 1 0.5 forward I I I I #
face $-1 $102 $103 $35 $-1 $104 forward single #
loop $-1 $105 $106 $45 #
cone-surface $-1 73.687151876039707 45.89221215756524 16.592585002673207 -0.55919291073839883 0 -0.82903756765294845 0.41451878382647422 0 -0.27959645536919941 1 I I 0 1 0.5 forward I I I I #
face $-1 $107 $108 $36 $-1 $109 reversed single #
loop $-1 $-1 $110 $46 #
plane-surface $-1 -162.47056612558094 36.212012122283802 142.87339041933845 0 1 0 -0.55919291073839883 0 0.82903756765294845 forward_v I I I I #
face $-1 $111 $112 $37 $-1 $113 forward single #
loop $-1 $114 $115 $47 #
cone-surface $-1 -73.687151876039707 38.632062131104163 16.592585002673193 0.55919291073839883 0 -0.82903756765294845 0.41451878382647422 0 0.27959645536919941 1 I I 0 1 0.5 forward I I I I #
face $-1 $116 $117 $38 $-1 $118 forward single #
loop $-1 $119 $120 $48 #
cone-surface $-1 -73.687151876039707 42.262137144334702 16.592585002673193 0.55919291073839883 0 -0.82903756765294845 0.41451878382647422 0 0.27959645536919941 1 I I 0 1 0.5 forward I I I I #
face $-1 $121 $122 $39 $-1 $123 forward single #
loop $-1 $124 $125 $49 #
cone-surface $-1 -73.687151876039707 45.89221215756524 16.592585002673193 0.55919291073839883 0 -0.82903756765294845 0.41451878382647422 0 0.27959645536919941 1 I I 0 1 0.5 forward I I I I #
face $-1 $126 $127 $30 $-1 $128 reversed single #
loop $-1 $-1 $129 $50 #
plane-surface $-1 0 0 -19.049925866522781 0 0 1 1 0 0 forward_v I I I I #
coedge $-1 $130 $131 $132 $133 forward $51 $-1 #
face $-1 $134 $135 $31 $-1 $136 reversed single #
loop $-1 $-1 $137 $53 #
plane-surface $-1 0 -40.420929064643033 8.8628980207036143 0 0 1 1 0 0 forward_v I I I I #
coedge $-1 $138 $139 $140 $141 reversed $54 $-1 #
face $-1 $142 $143 $32 $-1 $144 forward single #
loop $-1 $-1 $145 $56 #
plane-surface $-1 -50.471372448943868 42.262137144334702 101.48167250809749 0.55919291073839883 0 0.82903756765294845 0.82903756765294845 0 -0.55919291073839883 forward_v I I I I #
coedge $-1 $146 $147 $148 $149 reversed $57 $-1 #
face $-1 $-1 $150 $33 $-1 $151 forward single #
loop $-1 $152 $153 $59 #
cone-surface $-1 73.017419938808786 38.632062131104163 15.59966659194399 -0.55919291073839883 0 -0.82903756765294845 0.20725939191323711 0 -0.13979822768459971 1 I I -0.70710678118654746 0.70710678118654746 0.25 forward I I I I #
loop $-1 $-1 $154 $43 #
coedge $-1 $96 $96 $155 $156 reversed $60 $-1 #
face $-1 $-1 $157 $34 $-1 $158 forward single #
loop $-1 $159 $160 $62 #
cone-surface $-1 73.017419938808786 42.262137144334702 15.59966659194399 -0.55919291073839883 0 -0.82903756765294845 0.20725939191323711 0 -0.13979822768459971 1 I I -0.70710678118654746 0.70710678118654746 0.25 forward I I I I #
loop $-1 $-1 $161 $44 #
coedge $-1 $101 $101 $162 $163 reversed $63 $-1 #
face $-1 $-1 $164 $35 $-1 $165 forward single #
loop $-1 $166 $167 $65 #
cone-surface $-1 73.017419938808786 45.89221215756524 15.59966659194399 -0.55919291073839883 0 -0.82903756765294845 0.20725939191323711 0 -0.13979822768459971 1 I I -0.70710678118654746 0.70710678118654746 0.25 forward I I I I #
loop $-1 $-1 $168 $45 #
coedge $-1 $106 $106 $169 $170 reversed $66 $-1 #
face $-1 $171 $172 $36 $-1 $173 reversed single #
loop $-1 $-1 $174 $68 #
plane-surface $-1 -76.695455793939018 42.262137144334702 15.706562176455549 -0.55919291073839883 0 0.82903756765294845 0.82903756765294845 0 0.55919291073839883 forward_v I I I I #
coedge $-1 $175 $176 $177 $178 reversed $69 $-1 #
face $-1 $-1 $179 $37 $-1 $180 forward single #
loop $-1 $181 $182 $71 #
cone-surface $-1 -73.017419938808786 38.632062131104163 15.599666591943976 0.55919291073839883 0 -0.82903756765294845 0.20725939191323711 0 0.13979822768459971 1 I I -0.70710678118654746 0.70710678118654746 0.25 forward I I I I #
loop $-1 $-1 $183 $47 #
coedge $-1 $115 $115 $184 $185 reversed $72 $-1 #
face $-1 $-1 $186 $38 $-1 $187 forward single #
loop $-1 $188 $189 $74 #
cone-surface $-1 -73.017419938808786 42.262137144334702 15.599666591943976 0.55919291073839883 0 -0.82903756765294845 0.20725939191323711 0 0.13979822768459971 1 I I -0.70710678118654746 0.70710678118654746 0.25 forward I I I I #
loop $-1 $-1 $190 $48 #
coedge $-1 $120 $120 $191 $192 reversed $75 $-1 #
face $-1 $-1 $193 $39 $-1 $194 forward single #
loop $-1 $195 $196 $77 #
cone-surface $-1 -73.017419938808786 45.89221215756524 15.599666591943976 0.55919291073839883 0 -0.82903756765294845 0.20725939191323711 0 0.13979822768459971 1 I I -0.70710678118654746 0.70710678118654746 0.25 forward I I I I #
loop $-1 $-1 $197 $49 #
coedge $-1 $125 $125 $198 $199 reversed $78 $-1 #
face $-1 $200 $201 $30 $-1 $202 reversed single #
loop $-1 $-1 $203 $80 #
plane-surface $-1 0 -48.312262166385608 0 0 1 0 0 0 1 forward_v I I I I #
coedge $-1 $204 $205 $206 $207 forward $81 $-1 #
coedge $-1 $208 $83 $209 $210 forward $51 $-1 #
coedge $-1 $83 $208 $211 $212 forward $51 $-1 #
coedge $-1 $213 $214 $83 $133 reversed $215 $-1 #
edge $-1 $216 -48.312262166385608 $217 48.312262166385608 $132 $218 forward 7 unknown #
face $-1 $219 $220 $31 $-1 $221 reversed single #
loop $-1 $-1 $222 $84 #
plane-surface $-1 0 -32.529595962900459 11.551700844888959 0 -1 0 0 0 -1 forward_v I I I I #
coedge $-1 $223 $224 $225 $226 reversed $85 $-1 #
coedge $-1 $227 $87 $228 $229 forward $54 $-1 #
coedge $-1 $87 $227 $230 $231 reversed $54 $-1 #
coedge $-1 $232 $233 $87 $141 forward $234 $-1 #
edge $-1 $235 12.319131430578942 $236 28.101797634064091 $140 $237 forward 7 unknown #
face $-1 $238 $239 $32 $-1 $240 reversed single #
loop $-1 $-1 $241 $88 #
plane-surface $-1 0 0 19.049925866522781 0 0 1 1 0 0 forward_v I I I I #
coedge $-1 $242 $243 $244 $245 reversed $89 $-1 #
coedge $-1 $147 $91 $246 $247 reversed $57 $-1 #
coedge $-1 $91 $146 $242 $248 reversed $57 $-1 #
coedge $-1 $244 $249 $91 $149 forward $239 $-1 #
edge $-1 $250 95.27432450896741 $251 98.617688199034632 $148 $252 forward 7 unknown #
loop $-1 $-1 $155 $92 #
plane-surface $-1 -50.471372448943868 42.262137144334702 101.48167250809749 0.55919291073839883 0 0.82903756765294845 0.82903756765294845 0 -0.55919291073839883 forward_v I I I I #
loop $-1 $-1 $253 $59 #
coedge $-1 $153 $153 $154 $254 reversed $93 $-1 #
coedge $-1 $154 $154 $153 $254 forward $95 $-1 #
coedge $-1 $155 $155 $96 $156 forward $150 $-1 #
edge $-1 $255 0 $255 6.2831853071796004 $155 $256 forward 7 unknown #
loop $-1 $-1 $162 $97 #
plane-surface $-1 -50.471372448943868 42.262137144334702 101.48167250809749 0.55919291073839883 0 0.82903756765294845 0.82903756765294845 0 -0.55919291073839883 forward_v I I I I #
loop $-1 $-1 $257 $62 #
coedge $-1 $160 $160 $161 $258 reversed $98 $-1 #
coedge $-1 $161 $161 $160 $258 forward $100 $-1 #
coedge $-1 $162 $162 $101 $163 forward $157 $-1 #
edge $-1 $259 0 $259 6.2831853071796004 $162 $260 forward 7 unknown #
loop $-1 $-1 $169 $102 #
plane-surface $-1 -50.471372448943868 42.262137144334702 101.48167250809749 0.55919291073839883 0 0.82903756765294845 0.82903756765294845 0 -0.55919291073839883 forward_v I I I I #
loop $-1 $-1 $261 $65 #
coedge $-1 $167 $167 $168 $262 reversed $103 $-1 #
coedge $-1 $168 $168 $167 $262 forward $105 $-1 #
coedge $-1 $169 $169 $106 $170 forward $164 $-1 #
edge $-1 $263 0 $263 6.2831853071796004 $169 $264 forward 7 unknown #
face $-1 $265 $266 $36 $-1 $267 forward single #
loop $-1 $-1 $268 $107 #
plane-surface $-1 0 48.312262166385608 0 0 -1 0 0 0 -1 forward_v I I I I #
coedge $-1 $269 $270 $271 $272 reversed $108 $-1 #
coedge $-1 $176 $110 $273 $274 reversed $69 $-1 #
coedge $-1 $110 $175 $269 $275 reversed $69 $-1 #
coedge $-1 $271 $276 $110 $178 forward $266 $-1 #
edge $-1 $277 4.5398272688514396 $278 9.4965676855575083 $177 $279 forward 7 unknown #
loop $-1 $-1 $184 $111 #
plane-surface $-1 -76.695455793939018 42.262137144334702 15.706562176455549 -0.55919291073839883 0 0.82903756765294845 0.82903756765294845 0 0.55919291073839883 forward_v I I I I #
loop $-1 $-1 $280 $71 #
coedge $-1 $182 $182 $183 $281 reversed $112 $-1 #
coedge $-1 $183 $183 $182 $281 forward $114 $-1 #
coedge $-1 $184 $184 $115 $185 forward $179 $-1 #
edge $-1 $282 0 $282 6.2831853071796004 $184 $283 forward 7 unknown #
loop $-1 $-1 $191 $116 #
plane-surface $-1 -76.695455793939018 42.262137144334702 15.706562176455549 -0.55919291073839883 0 0.82903756765294845 0.82903756765294845 0 0.55919291073839883 forward_v I I I I #
loop $-1 $-1 $284 $74 #
coedge $-1 $189 $189 $190 $285 reversed $117 $-1 #
coedge $-1 $190 $190 $189 $285 forward $119 $-1 #
coedge $-1 $191 $191 $120 $192 forward $186 $-1 #
edge $-1 $286 0 $286 6.2831853071796004 $191 $287 forward 7 unknown #
loop $-1 $-1 $198 $121 #
plane-surface $-1 -76.695455793939018 42.262137144334702 15.706562176455549 -0.55919291073839883 0 0.82903756765294845 0.82903756765294845 0 0.55919291073839883 forward_v I I I I #
loop $-1 $-1 $288 $77 #
coedge $-1 $196 $196 $197 $289 reversed $122 $-1 #
coedge $-1 $197 $197 $196 $289 forward $124 $-1 #
coedge $-1 $198 $198 $125 $199 forward $193 $-1 #
edge $-1 $290 0 $290 6.2831853071796004 $198 $291 forward 7 unknown #
face $-1 $292 $293 $30 $-1 $294 reversed single #
loop $-1 $-1 $295 $126 #
plane-surface $-1 -76.695455793939033 0 0 1 0 0 0 0 -1 forward_v I I I I #
coedge $-1 $296 $211 $297 $298 forward $127 $-1 #
coedge $-1 $299 $129 $296 $300 forward $81 $-1 #
coedge $-1 $129 $299 $301 $302 forward $81 $-1 #
coedge $-1 $214 $213 $129 $207 reversed $215 $-1 #
edge $-1 $303 -48.312262166385608 $304 48.312262166385608 $206 $305 forward 7 unknown #
coedge $-1 $131 $130 $306 $307 forward $51 $-1 #
coedge $-1 $308 $309 $130 $210 reversed $293 $-1 #
edge $-1 $217 -76.695455793939033 $310 76.695455793939033 $209 $311 forward 7 unknown #
coedge $-1 $203 $312 $131 $212 reversed $127 $-1 #
edge $-1 $313 -76.695455793939033 $216 76.695455793939033 $211 $314 forward 7 unknown #
coedge $-1 $206 $132 $312 $315 forward $215 $-1 #
coedge $-1 $132 $206 $308 $316 reversed $215 $-1 #
loop $-1 $-1 $213 $292 #
vertex $-1 $133 $317 #
vertex $-1 $133 $318 #
straight-curve $-1 76.695455793939033 0 19.049925866522781 0 1 0 I I #
face $-1 $319 $320 $31 $-1 $321 reversed single #
loop $-1 $-1 $322 $134 #
plane-surface $-1 -76.695455793939033 0 0 1 0 0 0 0 -1 forward_v I I I I #
coedge $-1 $323 $228 $233 $324 reversed $135 $-1 #
coedge $-1 $325 $137 $326 $327 reversed $85 $-1 #
coedge $-1 $137 $325 $323 $328 forward $85 $-1 #
coedge $-1 $233 $232 $137 $226 forward $234 $-1 #
edge $-1 $329 -28.101797634064091 $330 -12.319131430578942 $225 $331 forward 7 unknown #
coedge $-1 $139 $138 $322 $332 reversed $54 $-1 #
coedge $-1 $222 $333 $138 $229 reversed $135 $-1 #
edge $-1 $235 -76.695455793939033 $334 76.695455793939033 $228 $335 forward 7 unknown #
coedge $-1 $336 $337 $139 $231 forward $320 $-1 #
edge $-1 $236 -76.695455793939033 $338 76.695455793939033 $230 $339 forward 7 unknown #
coedge $-1 $225 $140 $337 $340 forward $234 $-1 #
coedge $-1 $140 $225 $222 $324 forward $234 $-1 #
loop $-1 $-1 $140 $319 #
vertex $-1 $141 $341 #
vertex $-1 $340 $342 #
straight-curve $-1 76.695455793939033 -20.210464532321517 14.240503669074304 0 -1 0 I I #
face $-1 $-1 $343 $32 $-1 $344 reversed single #
loop $-1 $-1 $148 $142 #
plane-surface $-1 76.695455793939033 0 0 -1 0 0 0 0 1 forward_v I I I I #
coedge $-1 $246 $345 $346 $347 forward $143 $-1 #
coedge $-1 $346 $145 $147 $248 forward $89 $-1 #
coedge $-1 $145 $346 $348 $349 reversed $89 $-1 #
coedge $-1 $350 $148 $145 $245 forward $239 $-1 #
edge $-1 $251 15.080943550116451 $351 27.18119359421825 $244 $352 forward 7 unknown #
coedge $-1 $353 $241 $146 $247 forward $143 $-1 #
edge $-1 $354 54.086846435883963 $250 59.043586852590003 $246 $355 forward 7 unknown #
edge $-1 $251 -153.39091158787807 $354 -147.41200229581926 $147 $356 forward 7 unknown #
coedge $-1 $148 $350 $353 $357 reversed $239 $-1 #
vertex $-1 $357 $358 #
vertex $-1 $149 $359 #
straight-curve $-1 76.695455793939033 36.212012122283802 114.32425037549019 0 0 -1 I I #
coedge $-1 $253 $253 $-1 $360 reversed $152 $-1 #
edge $-1 $361 0 $361 6.2831853071796004 $153 $362 forward 7 unknown #
vertex $-1 $156 $363 #
ellipse-curve $-1 74.21708558558602 38.632062131104163 17.378244021489177 0.55919291073839883 0 0.82903756765294845 0.41451878382647422 0 -0.27959645536919941 1 I I #
coedge $-1 $257 $257 $-1 $364 reversed $159 $-1 #
edge $-1 $365 0 $365 6.2831853071796004 $160 $366 forward 7 unknown #
vertex $-1 $163 $367 #
ellipse-curve $-1 74.21708558558602 42.262137144334702 17.378244021489177 0.55919291073839883 0 0.82903756765294845 0.41451878382647422 0 -0.27959645536919941 1 I I #
coedge $-1 $261 $261 $-1 $368 reversed $166 $-1 #
edge $-1 $369 0 $369 6.2831853071796004 $167 $370 forward 7 unknown #
vertex $-1 $170 $371 #
ellipse-curve $-1 74.21708558558602 45.89221215756524 17.378244021489177 0.55919291073839883 0 0.82903756765294845 0.41451878382647422 0 -0.27959645536919941 1 I I #
face $-1 $-1 $372 $36 $-1 $373 reversed single #
loop $-1 $-1 $271 $171 #
plane-surface $-1 0 0 19.049925866522781 0 0 1 1 0 0 forward_v I I I I #
coedge $-1 $374 $375 $270 $376 forward $172 $-1 #
coedge $-1 $377 $174 $176 $275 forward $108 $-1 #
coedge $-1 $174 $377 $268 $376 reversed $108 $-1 #
coedge $-1 $378 $177 $174 $272 forward $266 $-1 #
edge $-1 $278 15.080943550116451 $379 27.18119359421825 $271 $380 forward 7 unknown #
coedge $-1 $381 $382 $175 $274 forward $372 $-1 #
edge $-1 $383 -55.730133033213683 $277 -52.38676934314644 $273 $384 forward 7 unknown #
edge $-1 $278 -5.9789092920588196 $383 1.6747963185031944e-014 $176 $385 forward 7 unknown #
coedge $-1 $177 $378 $381 $386 forward $266 $-1 #
vertex $-1 $274 $387 #
vertex $-1 $178 $388 #
straight-curve $-1 -81.235283062790472 36.212012122283802 19.049925866522784 1 0 0 I I #
coedge $-1 $280 $280 $-1 $389 reversed $181 $-1 #
edge $-1 $390 0 $390 6.2831853071796004 $182 $391 forward 7 unknown #
vertex $-1 $185 $392 #
ellipse-curve $-1 -74.217085585586005 38.632062131104163 17.378244021489152 -0.55919291073839883 0 0.82903756765294845 0.41451878382647422 0 0.27959645536919941 1 I I #
coedge $-1 $284 $284 $-1 $393 reversed $188 $-1 #
edge $-1 $394 0 $394 6.2831853071796004 $189 $395 forward 7 unknown #
vertex $-1 $192 $396 #
ellipse-curve $-1 -74.217085585586005 42.262137144334702 17.378244021489152 -0.55919291073839883 0 0.82903756765294845 0.41451878382647422 0 0.27959645536919941 1 I I #
coedge $-1 $288 $288 $-1 $397 reversed $195 $-1 #
edge $-1 $398 0 $398 6.2831853071796004 $196 $399 forward 7 unknown #
vertex $-1 $199 $400 #
ellipse-curve $-1 -74.217085585586005 45.89221215756524 17.378244021489152 -0.55919291073839883 0 0.82903756765294845 0.41451878382647422 0 0.27959645536919941 1 I I #
face $-1 $-1 $215 $30 $-1 $401 reversed single #
loop $-1 $-1 $308 $200 #
plane-surface $-1 0 48.312262166385608 0 0 -1 0 0 0 -1 forward_v I I I I #
coedge $-1 $402 $306 $309 $403 forward $201 $-1 #
coedge $-1 $312 $203 $204 $300 reversed $127 $-1 #
coedge $-1 $306 $402 $203 $298 reversed $201 $-1 #
edge $-1 $313 -19.049925866522781 $404 19.049925866522781 $297 $405 forward 7 unknown #
coedge $-1 $205 $204 $402 $406 forward $81 $-1 #
edge $-1 $304 -76.695455793939033 $404 76.695455793939033 $296 $407 forward 7 unknown #
coedge $-1 $309 $308 $205 $302 reversed $293 $-1 #
edge $-1 $408 -76.695455793939033 $303 76.695455793939033 $301 $409 forward 7 unknown #
vertex $-1 $207 $410 #
vertex $-1 $315 $411 #
straight-curve $-1 76.695455793939033 0 -19.049925866522781 0 -1 0 I I #
coedge $-1 $295 $297 $208 $307 reversed $201 $-1 #
edge $-1 $310 -48.312262166385608 $313 48.312262166385608 $306 $412 forward 7 unknown #
coedge $-1 $301 $209 $214 $316 forward $293 $-1 #
coedge $-1 $209 $301 $295 $403 reversed $293 $-1 #
vertex $-1 $210 $413 #
straight-curve $-1 0 48.312262166385608 19.049925866522781 -1 0 0 I I #
coedge $-1 $211 $296 $213 $315 reversed $127 $-1 #
vertex $-1 $307 $414 #
straight-curve $-1 0 -48.312262166385608 19.049925866522781 1 0 0 I I #
edge $-1 $216 -19.049925866522781 $304 19.049925866522781 $213 $415 forward 7 unknown #
edge $-1 $217 -19.049925866522781 $303 19.049925866522781 $214 $416 forward 7 unknown #
point $-1 76.695455793939033 -48.312262166385608 19.049925866522781 #
point $-1 76.695455793939033 48.312262166385608 19.049925866522781 #
face $-1 $-1 $234 $31 $-1 $417 reversed single #
loop $-1 $-1 $230 $219 #
plane-surface $-1 0 -48.312262166385608 0 0 1 0 0 0 1 forward_v I I I I #
coedge $-1 $418 $419 $227 $332 forward $220 $-1 #
coedge $-1 $333 $222 $224 $328 reversed $135 $-1 #
edge $-1 $330 3.0870475982591348 $235 8.4646532466298243 $233 $420 forward 7 unknown #
coedge $-1 $224 $223 $421 $422 reversed $85 $-1 #
coedge $-1 $337 $336 $223 $327 forward $320 $-1 #
edge $-1 $423 -76.695455793939033 $329 76.695455793939033 $326 $424 forward 7 unknown #
edge $-1 $425 -76.695455793939033 $330 76.695455793939033 $323 $426 forward 7 unknown #
vertex $-1 $327 $427 #
vertex $-1 $226 $428 #
straight-curve $-1 76.695455793939033 -20.210464532321517 8.8628980207036143 0 1 0 I I #
edge $-1 $338 -28.101797634064091 $334 -12.319131430578942 $322 $429 forward 7 unknown #
coedge $-1 $228 $323 $418 $430 reversed $135 $-1 #
vertex $-1 $332 $431 #
straight-curve $-1 0 -32.529595962900459 14.240503669074304 -1 0 0 I I #
coedge $-1 $326 $230 $419 $432 forward $320 $-1 #
coedge $-1 $230 $326 $232 $340 reversed $320 $-1 #
vertex $-1 $432 $433 #
straight-curve $-1 0 -48.312262166385608 14.240503669074304 -1 0 0 I I #
edge $-1 $236 -14.240503669074304 $329 -8.8628980207036143 $232 $434 forward 7 unknown #
point $-1 76.695455793939033 -32.529595962900459 14.240503669074304 #
point $-1 76.695455793939033 -48.312262166385608 14.240503669074304 #
loop $-1 $-1 $348 $238 #
plane-surface $-1 0 48.312262166385608 0 0 -1 0 0 0 -1 forward_v I I I I #
coedge $-1 $241 $353 $435 $436 forward $143 $-1 #
coedge $-1 $243 $242 $241 $347 reversed $89 $-1 #
edge $-1 $437 -27.18119359421825 $354 -15.080943550116451 $241 $438 forward 7 unknown #
coedge $-1 $435 $439 $243 $349 forward $343 $-1 #
edge $-1 $351 -104.09566374408683 $437 -98.116754452028047 $348 $440 forward 7 unknown #
coedge $-1 $249 $244 $439 $441 reversed $239 $-1 #
vertex $-1 $349 $442 #
straight-curve $-1 76.695455793939033 21.131068572167351 15.706562176455556 0 1 0 I I #
coedge $-1 $345 $246 $249 $357 forward $143 $-1 #
vertex $-1 $247 $443 #
straight-curve $-1 17.651868941349029 36.212012122283802 19.049925866522784 1 0 0 I I #
straight-curve $-1 -50.471372448943868 36.212012122283802 101.48167250809749 -0.82903756765294845 0 0.55919291073839883 I I #
edge $-1 $250 36.212012122283802 $444 48.312262166385608 $249 $445 forward 7 unknown #
point $-1 76.695455793939033 36.212012122283802 19.049925866522781 #
point $-1 76.695455793939033 36.212012122283802 15.706562176455563 #
edge $-1 $446 1 $446 0 $253 $-1 forward 7 unknown #
vertex $-1 $254 $447 #
ellipse-curve $-1 73.157218166493379 38.632062131104163 15.806925983857226 0.55919291073839883 0 0.82903756765294845 0.41451878382647422 0 -0.27959645536919941 1 I I #
point $-1 74.631604369412486 38.632062131104163 17.098647566119986 #
edge $-1 $448 1 $448 0 $257 $-1 forward 7 unknown #
vertex $-1 $258 $449 #
ellipse-curve $-1 73.157218166493379 42.262137144334702 15.806925983857226 0.55919291073839883 0 0.82903756765294845 0.41451878382647422 0 -0.27959645536919941 1 I I #
point $-1 74.631604369412486 42.262137144334702 17.098647566119986 #
edge $-1 $450 1 $450 0 $261 $-1 forward 7 unknown #
vertex $-1 $262 $451 #
ellipse-curve $-1 73.157218166493379 45.89221215756524 15.806925983857226 0.55919291073839883 0 0.82903756765294845 0.41451878382647422 0 -0.27959645536919941 1 I I #
point $-1 74.631604369412486 45.89221215756524 17.098647566119986 #
loop $-1 $-1 $273 $265 #
plane-surface $-1 -76.695455793939033 0 0 1 0 0 0 0 -1 forward_v I I I I #
coedge $-1 $375 $268 $452 $453 reversed $172 $-1 #
coedge $-1 $268 $374 $378 $454 reversed $172 $-1 #
edge $-1 $379 21.421298658088993 $455 27.400207950147827 $268 $456 forward 7 unknown #
coedge $-1 $270 $269 $382 $457 reversed $108 $-1 #
coedge $-1 $276 $271 $375 $454 forward $266 $-1 #
vertex $-1 $454 $458 #
straight-curve $-1 -71.73871537723295 21.131068572167351 19.049925866522781 0 1 0 I I #
coedge $-1 $452 $273 $276 $386 reversed $372 $-1 #
coedge $-1 $273 $452 $377 $457 forward $372 $-1 #
vertex $-1 $274 $459 #
straight-curve $-1 -76.695455793939033 36.212012122283802 71.436695209669224 0 0 1 I I #
straight-curve $-1 -76.695455793939018 36.212012122283802 15.706562176455549 -0.82903756765294845 0 -0.55919291073839883 I I #
edge $-1 $460 -48.312262166385608 $277 -36.212012122283802 $381 $461 forward 7 unknown #
point $-1 -76.695455793939033 36.212012122283802 19.049925866522781 #
point $-1 -71.738715377232964 36.212012122283802 19.049925866522781 #
edge $-1 $462 1 $462 0 $280 $-1 forward 7 unknown #
vertex $-1 $281 $463 #
ellipse-curve $-1 -73.157218166493379 38.632062131104163 15.806925983857212 -0.55919291073839883 0 0.82903756765294845 0.41451878382647422 0 0.27959645536919941 1 I I #
point $-1 -73.802566801759539 38.632062131104163 17.657840476858372 #
edge $-1 $464 1 $464 0 $284 $-1 forward 7 unknown #
vertex $-1 $285 $465 #
ellipse-curve $-1 -73.157218166493379 42.262137144334702 15.806925983857212 -0.55919291073839883 0 0.82903756765294845 0.41451878382647422 0 0.27959645536919941 1 I I #
point $-1 -73.802566801759539 42.262137144334702 17.657840476858372 #
edge $-1 $466 1 $466 0 $288 $-1 forward 7 unknown #
vertex $-1 $289 $467 #
ellipse-curve $-1 -73.157218166493379 45.89221215756524 15.806925983857212 -0.55919291073839883 0 0.82903756765294845 0.41451878382647422 0 0.27959645536919941 1 I I #
point $-1 -73.802566801759539 45.89221215756524 17.657840476858372 #
plane-surface $-1 76.695455793939033 0 0 -1 0 0 0 0 1 forward_v I I I I #
coedge $-1 $297 $295 $299 $406 reversed $201 $-1 #
edge $-1 $310 -19.049925866522781 $408 19.049925866522781 $309 $468 forward 7 unknown #
vertex $-1 $406 $469 #
straight-curve $-1 -76.695455793939033 -48.312262166385608 0 0 0 -1 I I #
edge $-1 $404 -48.312262166385608 $408 48.312262166385608 $402 $470 forward 7 unknown #
straight-curve $-1 0 -48.312262166385608 -19.049925866522781 -1 0 0 I I #
vertex $-1 $302 $471 #
straight-curve $-1 0 48.312262166385608 -19.049925866522781 1 0 0 I I #
point $-1 76.695455793939033 48.312262166385608 -19.049925866522781 #
point $-1 76.695455793939033 -48.312262166385608 -19.049925866522781 #
straight-curve $-1 -76.695455793939033 0 19.049925866522781 0 -1 0 I I #
point $-1 -76.695455793939033 48.312262166385608 19.049925866522781 #
point $-1 -76.695455793939033 -48.312262166385608 19.049925866522781 #
straight-curve $-1 76.695455793939033 -48.312262166385608 0 0 0 -1 I I #
straight-curve $-1 76.695455793939033 48.312262166385608 0 0 0 -1 I I #
plane-surface $-1 76.695455793939033 0 0 -1 0 0 0 0 1 forward_v I I I I #
coedge $-1 $421 $322 $333 $430 forward $220 $-1 #
coedge $-1 $322 $421 $336 $432 reversed $220 $-1 #
straight-curve $-1 76.695455793939033 -32.529595962900459 5.7758504224444795 0 0 1 I I #
coedge $-1 $419 $418 $325 $422 forward $220 $-1 #
edge $-1 $425 12.319131430578942 $423 28.101797634064091 $421 $472 forward 7 unknown #
vertex $-1 $327 $473 #
straight-curve $-1 0 -48.312262166385608 8.8628980207036143 1 0 0 I I #
vertex $-1 $422 $474 #
straight-curve $-1 0 -32.529595962900459 8.8628980207036143 1 0 0 I I #
point $-1 76.695455793939033 -48.312262166385608 8.8628980207036143 #
point $-1 76.695455793939033 -32.529595962900459 8.8628980207036143 #
straight-curve $-1 -76.695455793939033 -20.210464532321517 14.240503669074304 0 1 0 I I #
edge $-1 $334 -8.4646532466298243 $425 -3.0870475982591348 $418 $475 forward 7 unknown #
point $-1 -76.695455793939033 -32.529595962900459 14.240503669074304 #
edge $-1 $338 -14.240503669074304 $423 -8.8628980207036143 $419 $476 forward 7 unknown #
point $-1 -76.695455793939033 -48.312262166385608 14.240503669074304 #
straight-curve $-1 76.695455793939033 -48.312262166385608 0 0 0 -1 I I #
coedge $-1 $439 $348 $345 $436 reversed $343 $-1 #
edge $-1 $444 -76.695455793939033 $437 -71.738715377232992 $435 $477 forward 7 unknown #
vertex $-1 $349 $478 #
straight-curve $-1 71.738715377232992 21.131068572167351 19.049925866522791 0 -1 0 I I #
coedge $-1 $348 $435 $350 $441 forward $343 $-1 #
straight-curve $-1 -9.6037600796779401 48.312262166385608 73.916119380757095 -0.82903756765294845 0 0.55919291073839883 I I #
edge $-1 $444 -19.049925866522781 $351 -15.706562176455563 $350 $479 forward 7 unknown #
point $-1 76.695455793939033 48.312262166385601 15.706562176455563 #
point $-1 71.738715377232992 36.212012122283802 19.049925866522784 #
vertex $-1 $357 $480 #
straight-curve $-1 76.695455793939033 0 19.049925866522781 0 1 0 I I #
vertex $-1 $360 $481 #
point $-1 73.57173695031986 38.632062131104163 15.527329528488028 #
vertex $-1 $364 $482 #
point $-1 73.57173695031986 42.262137144334702 15.527329528488028 #
vertex $-1 $368 $483 #
point $-1 73.57173695031986 45.89221215756524 15.527329528488028 #
coedge $-1 $382 $381 $374 $453 forward $372 $-1 #
edge $-1 $460 -19.049925866522781 $455 -15.70656217645554 $374 $484 forward 7 unknown #
edge $-1 $379 71.738715377232964 $460 76.695455793939033 $375 $485 forward 7 unknown #
vertex $-1 $376 $486 #
straight-curve $-1 -53.979654041763496 48.312262166385608 31.028564214936118 -0.82903756765294845 0 -0.55919291073839883 I I #
edge $-1 $455 -27.18119359421825 $383 -15.080943550116451 $382 $487 forward 7 unknown #
point $-1 -71.738715377232964 48.312262166385601 19.049925866522781 #
point $-1 -76.695455793939033 36.212012122283802 15.70656217645554 #
vertex $-1 $454 $488 #
straight-curve $-1 -76.695455793939033 0 19.049925866522781 0 -1 0 I I #
vertex $-1 $389 $489 #
point $-1 -72.742699382666913 38.632062131104163 16.086522439226414 #
vertex $-1 $393 $490 #
point $-1 -72.742699382666913 42.262137144334702 16.086522439226414 #
vertex $-1 $397 $491 #
point $-1 -72.742699382666913 45.89221215756524 16.086522439226414 #
straight-curve $-1 -76.695455793939033 48.312262166385608 0 0 0 -1 I I #
point $-1 -76.695455793939033 -48.312262166385608 -19.049925866522781 #
straight-curve $-1 -76.695455793939033 0 -19.049925866522781 0 1 0 I I #
point $-1 -76.695455793939033 48.312262166385608 -19.049925866522781 #
straight-curve $-1 -76.695455793939033 -20.210464532321517 8.8628980207036143 0 -1 0 I I #
point $-1 -76.695455793939033 -48.312262166385608 8.8628980207036143 #
point $-1 -76.695455793939033 -32.529595962900459 8.8628980207036143 #
straight-curve $-1 -76.695455793939033 -32.529595962900459 5.7758504224444795 0 0 -1 I I #
straight-curve $-1 -76.695455793939033 -48.312262166385608 0 0 0 -1 I I #
straight-curve $-1 0 48.312262166385608 19.049925866522781 -1 0 0 I I #
point $-1 71.738715377232992 48.312262166385601 19.049925866522784 #
straight-curve $-1 76.695455793939033 48.312262166385608 0 0 0 -1 I I #
point $-1 76.695455793939033 48.312262166385608 19.049925866522781 #
point $-1 72.877621711124192 38.632062131104163 15.392407200030753 #
point $-1 72.877621711124192 42.262137144334702 15.392407200030753 #
point $-1 72.877621711124192 45.89221215756524 15.392407200030753 #
straight-curve $-1 -76.695455793939033 48.312262166385608 0 0 0 -1 I I #
straight-curve $-1 0 48.312262166385608 19.049925866522781 -1 0 0 I I #
point $-1 -76.695455793939033 48.312262166385601 15.70656217645554 #
straight-curve $-1 -76.695455793939033 21.131068572167351 15.706562176455549 0 -1 0 I I #
point $-1 -76.695455793939033 48.312262166385608 19.049925866522781 #
point $-1 -72.877621711124192 38.632062131104163 15.392407200030739 #
point $-1 -72.877621711124192 42.262137144334702 15.392407200030739 #
point $-1 -72.877621711124192 45.89221215756524 15.392407200030739 #
End-of-ACIS-data 