500 0 18 0           
7 Unknown 11 ACIS 5.0 NT 24 Thu Mar 25 21:26:44 1999 
-1 9.9999999999999995e-007 1e-010 
body $-1 $18 $-1 $19 #
body $-1 $20 $-1 $21 #
body $-1 $22 $-1 $23 #
body $-1 $24 $-1 $25 #
body $-1 $26 $-1 $27 #
body $-1 $28 $-1 $29 #
body $-1 $30 $-1 $31 #
body $-1 $32 $-1 $33 #
body $-1 $34 $-1 $35 #
body $-1 $36 $-1 $37 #
body $-1 $38 $-1 $39 #
body $-1 $40 $-1 $41 #
body $-1 $42 $-1 $43 #
body $-1 $44 $-1 $45 #
body $-1 $46 $-1 $47 #
body $-1 $48 $-1 $49 #
body $-1 $50 $-1 $51 #
body $-1 $52 $-1 $53 #
lump $-1 $-1 $54 $0 #
transform $-1 1 0 0 0 1 0 0 0 1 41.254921109653004 26.623128751984574 6.013949229298972 1 rotate no_reflect no_shear #
lump $-1 $-1 $55 $1 #
transform $-1 1 0 0 0 1 0 0 0 1 41.254921109653004 26.623128751984574 6.013949229298972 1 rotate no_reflect no_shear #
lump $-1 $-1 $56 $2 #
transform $-1 1 0 0 0 1 0 0 0 1 41.254921109653004 26.623128751984574 6.013949229298972 1 rotate no_reflect no_shear #
lump $-1 $-1 $57 $3 #
transform $-1 1 0 0 0 1 0 0 0 1 41.254921109653004 26.623128751984574 6.013949229298972 1 rotate no_reflect no_shear #
lump $-1 $-1 $58 $4 #
transform $-1 1 0 0 0 1 0 0 0 1 41.254921109653004 26.623128751984574 6.013949229298972 1 rotate no_reflect no_shear #
lump $-1 $-1 $59 $5 #
transform $-1 1 0 0 0 1 0 0 0 1 41.254921109653004 26.623128751984574 6.013949229298972 1 rotate no_reflect no_shear #
lump $-1 $-1 $60 $6 #
transform $-1 1 0 0 0 1 0 0 0 1 41.254921109653004 26.623128751984574 6.013949229298972 1 rotate no_reflect no_shear #
lump $-1 $-1 $61 $7 #
transform $-1 1 0 0 0 1 0 0 0 1 41.254921109653004 26.623128751984574 6.013949229298972 1 rotate no_reflect no_shear #
lump $-1 $-1 $62 $8 #
transform $-1 1 0 0 0 1 0 0 0 1 41.254921109653004 26.623128751984574 6.013949229298972 1 rotate no_reflect no_shear #
lump $-1 $-1 $63 $9 #
transform $-1 1 0 0 0 1 0 0 0 1 41.254921109653004 26.623128751984574 6.013949229298972 1 rotate no_reflect no_shear #
lump $-1 $-1 $64 $10 #
transform $-1 1 0 0 0 1 0 0 0 1 41.254921109653004 26.623128751984574 6.013949229298972 1 rotate no_reflect no_shear #
lump $-1 $-1 $65 $11 #
transform $-1 1 0 0 0 1 0 0 0 1 41.254921109653004 26.623128751984574 6.013949229298972 1 rotate no_reflect no_shear #
lump $-1 $-1 $66 $12 #
transform $-1 1 0 0 0 1 0 0 0 1 41.254921109653004 26.623128751984574 6.013949229298972 1 rotate no_reflect no_shear #
lump $-1 $-1 $67 $13 #
transform $-1 1 0 0 0 1 0 0 0 1 41.254921109653004 26.623128751984574 6.013949229298972 1 rotate no_reflect no_shear #
lump $-1 $-1 $68 $14 #
transform $-1 1 0 0 0 1 0 0 0 1 41.254921109653004 26.623128751984574 6.013949229298972 1 rotate no_reflect no_shear #
lump $-1 $-1 $69 $15 #
transform $-1 1 0 0 0 1 0 0 0 1 41.254921109653004 26.623128751984574 6.013949229298972 1 rotate no_reflect no_shear #
lump $-1 $-1 $70 $16 #
transform $-1 1 0 0 0 1 0 0 0 1 41.254921109653004 26.623128751984574 6.013949229298972 1 rotate no_reflect no_shear #
lump $-1 $-1 $71 $17 #
transform $-1 1 0 0 0 1 0 0 0 1 41.254921109653004 26.623128751984574 6.013949229298972 1 rotate no_reflect no_shear #
shell $-1 $-1 $-1 $72 $-1 $18 #
shell $-1 $-1 $-1 $73 $-1 $20 #
shell $-1 $-1 $-1 $74 $-1 $22 #
shell $-1 $-1 $-1 $75 $-1 $24 #
shell $-1 $-1 $-1 $76 $-1 $26 #
shell $-1 $-1 $-1 $77 $-1 $28 #
shell $-1 $-1 $-1 $78 $-1 $30 #
shell $-1 $-1 $-1 $79 $-1 $32 #
shell $-1 $-1 $-1 $80 $-1 $34 #
shell $-1 $-1 $-1 $81 $-1 $36 #
shell $-1 $-1 $-1 $82 $-1 $38 #
shell $-1 $-1 $-1 $83 $-1 $40 #
shell $-1 $-1 $-1 $84 $-1 $42 #
shell $-1 $-1 $-1 $85 $-1 $44 #
shell $-1 $-1 $-1 $86 $-1 $46 #
shell $-1 $-1 $-1 $87 $-1 $48 #
shell $-1 $-1 $-1 $88 $-1 $50 #
shell $-1 $-1 $-1 $89 $-1 $52 #
face $-1 $90 $91 $54 $-1 $92 forward single #
face $-1 $93 $94 $55 $-1 $95 reversed single #
face $-1 $96 $97 $56 $-1 $98 reversed single #
face $-1 $99 $100 $57 $-1 $101 forward single #
face $-1 $102 $103 $58 $-1 $104 forward single #
face $-1 $105 $106 $59 $-1 $107 forward single #
face $-1 $108 $109 $60 $-1 $110 reversed single #
face $-1 $111 $112 $61 $-1 $113 forward single #
face $-1 $114 $115 $62 $-1 $116 forward single #
face $-1 $117 $118 $63 $-1 $119 forward single #
face $-1 $120 $121 $64 $-1 $122 reversed single #
face $-1 $123 $124 $65 $-1 $125 forward single #
face $-1 $126 $127 $66 $-1 $128 forward single #
face $-1 $129 $130 $67 $-1 $131 forward single #
face $-1 $132 $133 $68 $-1 $134 reversed single #
face $-1 $135 $136 $69 $-1 $137 forward single #
face $-1 $138 $139 $70 $-1 $140 forward single #
face $-1 $141 $142 $71 $-1 $143 forward single #
face $-1 $144 $145 $54 $-1 $146 reversed single #
loop $-1 $-1 $147 $72 #
plane-surface $-1 0 0 6.013949229298972 0 0 1 1 0 0 forward_v I I I I #
face $-1 $148 $149 $55 $-1 $150 reversed single #
loop $-1 $-1 $151 $73 #
plane-surface $-1 0 -23.26019926156718 3.013949229298972 0 0 1 1 0 0 forward_v I I I I #
face $-1 $152 $153 $56 $-1 $154 reversed single #
loop $-1 $-1 $155 $74 #
plane-surface $-1 15.00616232032683 -1.7912899571259597 115.75109849010393 0 -1 0 -0.52991927123019833 0 -0.84804809178421925 forward_v I I I I #
face $-1 $156 $157 $57 $-1 $158 forward single #
loop $-1 $159 $160 $75 #
cone-surface $-1 37.611569048920586 -8.6285519982732986 3.2732881055968539 -0.52991927123019833 0 -0.84804809178421925 0.42402404589210962 0 -0.26495963561509916 1 I I 0 1 0.5 forward I I I I #
face $-1 $161 $162 $58 $-1 $163 forward single #
loop $-1 $164 $165 $76 #
cone-surface $-1 37.611569048920586 -6.0645787328430458 3.2732881055968539 -0.52991927123019833 0 -0.84804809178421925 0.42402404589210962 0 -0.26495963561509916 1 I I 0 1 0.5 forward I I I I #
face $-1 $166 $167 $59 $-1 $168 forward single #
loop $-1 $169 $170 $77 #
cone-surface $-1 37.611569048920586 -3.5006054674127931 3.2732881055968539 -0.52991927123019833 0 -0.84804809178421925 0.42402404589210962 0 -0.26495963561509916 1 I I 0 1 0.5 forward I I I I #
face $-1 $171 $172 $60 $-1 $173 reversed single #
loop $-1 $-1 $174 $78 #
plane-surface $-1 15.00616232032683 17.063726489394924 115.75109849010393 0 -1 0 -0.52991927123019833 0 -0.84804809178421925 forward_v I I I I #
face $-1 $175 $176 $61 $-1 $177 forward single #
loop $-1 $178 $179 $79 #
cone-surface $-1 37.611569048920586 10.226464448247583 3.2732881055968539 -0.52991927123019833 0 -0.84804809178421925 0.42402404589210962 0 -0.26495963561509916 1 I I 0 1 0.5 forward I I I I #
face $-1 $180 $181 $62 $-1 $182 forward single #
loop $-1 $183 $184 $80 #
cone-surface $-1 37.611569048920586 12.790437713677839 3.2732881055968539 -0.52991927123019833 0 -0.84804809178421925 0.42402404589210962 0 -0.26495963561509916 1 I I 0 1 0.5 forward I I I I #
face $-1 $185 $186 $63 $-1 $187 forward single #
loop $-1 $188 $189 $81 #
cone-surface $-1 37.611569048920586 15.354410979108088 3.2732881055968539 -0.52991927123019833 0 -0.84804809178421925 0.42402404589210962 0 -0.26495963561509916 1 I I 0 1 0.5 forward I I I I #
face $-1 $190 $191 $64 $-1 $192 reversed single #
loop $-1 $-1 $193 $82 #
plane-surface $-1 -84.978476567826306 -10.337867508560132 72.027543031930648 0 1 0 -0.52991927123019833 0 0.84804809178421925 forward_v I I I I #
face $-1 $194 $195 $65 $-1 $196 forward single #
loop $-1 $197 $198 $83 #
cone-surface $-1 -37.611569048920586 -8.6285519982732986 3.2732881055968521 0.52991927123019833 0 -0.84804809178421925 0.42402404589210962 0 0.26495963561509916 1 I I 0 1 0.5 forward I I I I #
face $-1 $199 $200 $66 $-1 $201 forward single #
loop $-1 $202 $203 $84 #
cone-surface $-1 -37.611569048920586 -6.0645787328430458 3.2732881055968521 0.52991927123019833 0 -0.84804809178421925 0.42402404589210962 0 0.26495963561509916 1 I I 0 1 0.5 forward I I I I #
face $-1 $204 $205 $67 $-1 $206 forward single #
loop $-1 $207 $208 $85 #
cone-surface $-1 -37.611569048920586 -3.5006054674127931 3.2732881055968521 0.52991927123019833 0 -0.84804809178421925 0.42402404589210962 0 0.26495963561509916 1 I I 0 1 0.5 forward I I I I #
face $-1 $209 $210 $68 $-1 $211 reversed single #
loop $-1 $-1 $212 $86 #
plane-surface $-1 -84.978476567826306 8.5171489379607532 72.027543031930648 0 1 0 -0.52991927123019833 0 0.84804809178421925 forward_v I I I I #
face $-1 $213 $214 $69 $-1 $215 forward single #
loop $-1 $216 $217 $87 #
cone-surface $-1 -37.611569048920586 10.226464448247583 3.2732881055968521 0.52991927123019833 0 -0.84804809178421925 0.42402404589210962 0 0.26495963561509916 1 I I 0 1 0.5 forward I I I I #
face $-1 $218 $219 $70 $-1 $220 forward single #
loop $-1 $221 $222 $88 #
cone-surface $-1 -37.611569048920586 12.790437713677839 3.2732881055968521 0.52991927123019833 0 -0.84804809178421925 0.42402404589210962 0 0.26495963561509916 1 I I 0 1 0.5 forward I I I I #
face $-1 $223 $224 $71 $-1 $225 forward single #
loop $-1 $226 $227 $89 #
cone-surface $-1 -37.611569048920586 15.354410979108088 3.2732881055968521 0.52991927123019833 0 -0.84804809178421925 0.42402404589210962 0 0.26495963561509916 1 I I 0 1 0.5 forward I I I I #
face $-1 $228 $229 $54 $-1 $230 reversed single #
loop $-1 $-1 $231 $90 #
plane-surface $-1 0 0 -6.013949229298972 0 0 1 1 0 0 forward_v I I I I #
coedge $-1 $232 $233 $234 $235 forward $91 $-1 #
face $-1 $236 $237 $55 $-1 $238 reversed single #
loop $-1 $-1 $239 $93 #
plane-surface $-1 0 -19.897269771149787 4.513949229298972 0 -1 0 0 0 -1 forward_v I I I I #
coedge $-1 $240 $241 $242 $243 reversed $94 $-1 #
face $-1 $244 $245 $56 $-1 $246 reversed single #
loop $-1 $-1 $247 $96 #
plane-surface $-1 -28.717393137846457 -6.0645787328430458 45.778784242604459 0.52991927123019833 0 0.84804809178421925 0.84804809178421925 0 -0.52991927123019833 forward_v I I I I #
coedge $-1 $248 $249 $250 $251 reversed $97 $-1 #
face $-1 $-1 $252 $57 $-1 $253 forward single #
loop $-1 $254 $255 $99 #
cone-surface $-1 37.003375621595715 -8.6285519982732986 2.2999751813825791 -0.52991927123019833 0 -0.84804809178421925 0.21201202294605481 0 -0.13247981780754958 1 I I -0.70710678118654746 0.70710678118654746 0.25 forward I I I I #
loop $-1 $-1 $256 $75 #
coedge $-1 $160 $160 $257 $258 reversed $100 $-1 #
face $-1 $-1 $259 $58 $-1 $260 forward single #
loop $-1 $261 $262 $102 #
cone-surface $-1 37.003375621595715 -6.0645787328430458 2.2999751813825791 -0.52991927123019833 0 -0.84804809178421925 0.21201202294605481 0 -0.13247981780754958 1 I I -0.70710678118654746 0.70710678118654746 0.25 forward I I I I #
loop $-1 $-1 $263 $76 #
coedge $-1 $165 $165 $264 $265 reversed $103 $-1 #
face $-1 $-1 $266 $59 $-1 $267 forward single #
loop $-1 $268 $269 $105 #
cone-surface $-1 37.003375621595715 -3.5006054674127931 2.2999751813825791 -0.52991927123019833 0 -0.84804809178421925 0.21201202294605481 0 -0.13247981780754958 1 I I -0.70710678118654746 0.70710678118654746 0.25 forward I I I I #
loop $-1 $-1 $270 $77 #
coedge $-1 $170 $170 $271 $272 reversed $106 $-1 #
face $-1 $273 $274 $60 $-1 $275 reversed single #
loop $-1 $-1 $276 $108 #
plane-surface $-1 -28.717393137846457 12.790437713677839 45.778784242604459 0.52991927123019833 0 0.84804809178421925 0.84804809178421925 0 -0.52991927123019833 forward_v I I I I #
coedge $-1 $277 $278 $279 $280 reversed $109 $-1 #
face $-1 $-1 $281 $61 $-1 $282 forward single #
loop $-1 $283 $284 $111 #
cone-surface $-1 37.003375621595715 10.226464448247583 2.2999751813825791 -0.52991927123019833 0 -0.84804809178421925 0.21201202294605481 0 -0.13247981780754958 1 I I -0.70710678118654746 0.70710678118654746 0.25 forward I I I I #
loop $-1 $-1 $285 $79 #
coedge $-1 $179 $179 $286 $287 reversed $112 $-1 #
face $-1 $-1 $288 $62 $-1 $289 forward single #
loop $-1 $290 $291 $114 #
cone-surface $-1 37.003375621595715 12.790437713677839 2.2999751813825791 -0.52991927123019833 0 -0.84804809178421925 0.21201202294605481 0 -0.13247981780754958 1 I I -0.70710678118654746 0.70710678118654746 0.25 forward I I I I #
loop $-1 $-1 $292 $80 #
coedge $-1 $184 $184 $293 $294 reversed $115 $-1 #
face $-1 $-1 $295 $63 $-1 $296 forward single #
loop $-1 $297 $298 $117 #
cone-surface $-1 37.003375621595715 15.354410979108088 2.2999751813825791 -0.52991927123019833 0 -0.84804809178421925 0.21201202294605481 0 -0.13247981780754958 1 I I -0.70710678118654746 0.70710678118654746 0.25 forward I I I I #
loop $-1 $-1 $299 $81 #
coedge $-1 $189 $189 $300 $301 reversed $118 $-1 #
face $-1 $302 $303 $64 $-1 $304 reversed single #
loop $-1 $-1 $305 $120 #
plane-surface $-1 -41.254921109653019 -6.0645787328430458 2.0552287844311792 -0.52991927123019833 0 0.84804809178421925 0.84804809178421925 0 0.52991927123019833 forward_v I I I I #
coedge $-1 $306 $307 $308 $309 reversed $121 $-1 #
face $-1 $-1 $310 $65 $-1 $311 forward single #
loop $-1 $312 $313 $123 #
cone-surface $-1 -37.003375621595715 -8.6285519982732986 2.2999751813825773 0.52991927123019833 0 -0.84804809178421925 0.21201202294605481 0 0.13247981780754958 1 I I -0.70710678118654746 0.70710678118654746 0.25 forward I I I I #
loop $-1 $-1 $314 $83 #
coedge $-1 $198 $198 $315 $316 reversed $124 $-1 #
face $-1 $-1 $317 $66 $-1 $318 forward single #
loop $-1 $319 $320 $126 #
cone-surface $-1 -37.003375621595715 -6.0645787328430458 2.2999751813825773 0.52991927123019833 0 -0.84804809178421925 0.21201202294605481 0 0.13247981780754958 1 I I -0.70710678118654746 0.70710678118654746 0.25 forward I I I I #
loop $-1 $-1 $321 $84 #
coedge $-1 $203 $203 $322 $323 reversed $127 $-1 #
face $-1 $-1 $324 $67 $-1 $325 forward single #
loop $-1 $326 $327 $129 #
cone-surface $-1 -37.003375621595715 -3.5006054674127931 2.2999751813825773 0.52991927123019833 0 -0.84804809178421925 0.21201202294605481 0 0.13247981780754958 1 I I -0.70710678118654746 0.70710678118654746 0.25 forward I I I I #
loop $-1 $-1 $328 $85 #
coedge $-1 $208 $208 $329 $330 reversed $130 $-1 #
face $-1 $331 $332 $68 $-1 $333 reversed single #
loop $-1 $-1 $334 $132 #
plane-surface $-1 -41.254921109653019 12.790437713677839 2.0552287844311792 -0.52991927123019833 0 0.84804809178421925 0.84804809178421925 0 0.52991927123019833 forward_v I I I I #
coedge $-1 $335 $336 $337 $338 reversed $133 $-1 #
face $-1 $-1 $339 $69 $-1 $340 forward single #
loop $-1 $341 $342 $135 #
cone-surface $-1 -37.003375621595715 10.226464448247583 2.2999751813825773 0.52991927123019833 0 -0.84804809178421925 0.21201202294605481 0 0.13247981780754958 1 I I -0.70710678118654746 0.70710678118654746 0.25 forward I I I I #
loop $-1 $-1 $343 $87 #
coedge $-1 $217 $217 $344 $345 reversed $136 $-1 #
face $-1 $-1 $346 $70 $-1 $347 forward single #
loop $-1 $348 $349 $138 #
cone-surface $-1 -37.003375621595715 12.790437713677839 2.2999751813825773 0.52991927123019833 0 -0.84804809178421925 0.21201202294605481 0 0.13247981780754958 1 I I -0.70710678118654746 0.70710678118654746 0.25 forward I I I I #
loop $-1 $-1 $350 $88 #
coedge $-1 $222 $222 $351 $352 reversed $139 $-1 #
face $-1 $-1 $353 $71 $-1 $354 forward single #
loop $-1 $355 $356 $141 #
cone-surface $-1 -37.003375621595715 15.354410979108088 2.2999751813825773 0.52991927123019833 0 -0.84804809178421925 0.21201202294605481 0 0.13247981780754958 1 I I -0.70710678118654746 0.70710678118654746 0.25 forward I I I I #
loop $-1 $-1 $357 $89 #
coedge $-1 $227 $227 $358 $359 reversed $142 $-1 #
face $-1 $360 $361 $54 $-1 $362 reversed single #
loop $-1 $-1 $363 $144 #
plane-surface $-1 0 -26.623128751984574 0 0 1 0 0 0 1 forward_v I I I I #
coedge $-1 $364 $365 $366 $367 forward $145 $-1 #
coedge $-1 $368 $147 $369 $370 forward $91 $-1 #
coedge $-1 $147 $368 $371 $372 forward $91 $-1 #
coedge $-1 $373 $374 $147 $235 reversed $375 $-1 #
edge $-1 $376 -26.623128751984574 $377 26.623128751984574 $234 $378 forward 7 unknown #
face $-1 $379 $380 $55 $-1 $381 reversed single #
loop $-1 $-1 $382 $148 #
plane-surface $-1 -41.254921109653004 0 0 1 0 0 0 0 -1 forward_v I I I I #
coedge $-1 $383 $384 $385 $386 reversed $149 $-1 #
coedge $-1 $387 $151 $388 $389 reversed $94 $-1 #
coedge $-1 $151 $387 $383 $390 forward $94 $-1 #
coedge $-1 $385 $391 $151 $243 forward $392 $-1 #
edge $-1 $393 -14.993029121200983 $394 -8.267170140366197 $242 $395 forward 7 unknown #
face $-1 $396 $397 $56 $-1 $398 reversed single #
loop $-1 $-1 $399 $152 #
plane-surface $-1 15.00616232032683 -10.337867508560132 115.75109849010393 0 1 0 0.52991927123019833 0 0.84804809178421925 forward_v I I I I #
coedge $-1 $400 $401 $402 $403 reversed $153 $-1 #
coedge $-1 $249 $155 $404 $405 reversed $97 $-1 #
coedge $-1 $155 $248 $400 $406 reversed $97 $-1 #
coedge $-1 $402 $407 $155 $251 forward $408 $-1 #
edge $-1 $409 -33.751839949489593 $410 -27.416563047059409 $250 $411 forward 7 unknown #
loop $-1 $-1 $257 $156 #
plane-surface $-1 -28.717393137846457 -6.0645787328430458 45.778784242604459 0.52991927123019833 0 0.84804809178421925 0.84804809178421925 0 -0.52991927123019833 forward_v I I I I #
loop $-1 $-1 $412 $99 #
coedge $-1 $255 $255 $256 $413 reversed $157 $-1 #
coedge $-1 $256 $256 $255 $413 forward $159 $-1 #
coedge $-1 $257 $257 $160 $258 forward $252 $-1 #
edge $-1 $414 0 $414 6.2831853071796004 $257 $415 forward 7 unknown #
loop $-1 $-1 $264 $161 #
plane-surface $-1 -28.717393137846457 -6.0645787328430458 45.778784242604459 0.52991927123019833 0 0.84804809178421925 0.84804809178421925 0 -0.52991927123019833 forward_v I I I I #
loop $-1 $-1 $416 $102 #
coedge $-1 $262 $262 $263 $417 reversed $162 $-1 #
coedge $-1 $263 $263 $262 $417 forward $164 $-1 #
coedge $-1 $264 $264 $165 $265 forward $259 $-1 #
edge $-1 $418 0 $418 6.2831853071796004 $264 $419 forward 7 unknown #
loop $-1 $-1 $271 $166 #
plane-surface $-1 -28.717393137846457 -6.0645787328430458 45.778784242604459 0.52991927123019833 0 0.84804809178421925 0.84804809178421925 0 -0.52991927123019833 forward_v I I I I #
loop $-1 $-1 $420 $105 #
coedge $-1 $269 $269 $270 $421 reversed $167 $-1 #
coedge $-1 $270 $270 $269 $421 forward $169 $-1 #
coedge $-1 $271 $271 $170 $272 forward $266 $-1 #
edge $-1 $422 0 $422 6.2831853071796004 $271 $423 forward 7 unknown #
face $-1 $424 $425 $60 $-1 $426 reversed single #
loop $-1 $-1 $427 $171 #
plane-surface $-1 15.00616232032683 8.5171489379607532 115.75109849010393 0 1 0 0.52991927123019833 0 0.84804809178421925 forward_v I I I I #
coedge $-1 $428 $429 $430 $431 reversed $172 $-1 #
coedge $-1 $278 $174 $432 $433 reversed $109 $-1 #
coedge $-1 $174 $277 $428 $434 reversed $109 $-1 #
coedge $-1 $430 $435 $174 $280 forward $436 $-1 #
edge $-1 $437 -33.751839949489593 $438 -27.416563047059409 $279 $439 forward 7 unknown #
loop $-1 $-1 $286 $175 #
plane-surface $-1 -28.717393137846457 12.790437713677839 45.778784242604459 0.52991927123019833 0 0.84804809178421925 0.84804809178421925 0 -0.52991927123019833 forward_v I I I I #
loop $-1 $-1 $440 $111 #
coedge $-1 $284 $284 $285 $441 reversed $176 $-1 #
coedge $-1 $285 $285 $284 $441 forward $178 $-1 #
coedge $-1 $286 $286 $179 $287 forward $281 $-1 #
edge $-1 $442 0 $442 6.2831853071796004 $286 $443 forward 7 unknown #
loop $-1 $-1 $293 $180 #
plane-surface $-1 -28.717393137846457 12.790437713677839 45.778784242604459 0.52991927123019833 0 0.84804809178421925 0.84804809178421925 0 -0.52991927123019833 forward_v I I I I #
loop $-1 $-1 $444 $114 #
coedge $-1 $291 $291 $292 $445 reversed $181 $-1 #
coedge $-1 $292 $292 $291 $445 forward $183 $-1 #
coedge $-1 $293 $293 $184 $294 forward $288 $-1 #
edge $-1 $446 0 $446 6.2831853071796004 $293 $447 forward 7 unknown #
loop $-1 $-1 $300 $185 #
plane-surface $-1 -28.717393137846457 12.790437713677839 45.778784242604459 0.52991927123019833 0 0.84804809178421925 0.84804809178421925 0 -0.52991927123019833 forward_v I I I I #
loop $-1 $-1 $448 $117 #
coedge $-1 $298 $298 $299 $449 reversed $186 $-1 #
coedge $-1 $299 $299 $298 $449 forward $188 $-1 #
coedge $-1 $300 $300 $189 $301 forward $295 $-1 #
edge $-1 $450 0 $450 6.2831853071796004 $300 $451 forward 7 unknown #
face $-1 $452 $453 $64 $-1 $454 forward single #
loop $-1 $-1 $455 $190 #
plane-surface $-1 -84.978476567826306 -1.7912899571259597 72.027543031930648 0 -1 0 0.52991927123019833 0 -0.84804809178421925 forward_v I I I I #
coedge $-1 $456 $457 $458 $459 reversed $191 $-1 #
coedge $-1 $307 $193 $460 $461 reversed $121 $-1 #
coedge $-1 $193 $306 $456 $462 reversed $121 $-1 #
coedge $-1 $458 $463 $193 $309 forward $453 $-1 #
edge $-1 $464 1.2343171742601484 $465 7.5695940766903078 $308 $466 forward 7 unknown #
loop $-1 $-1 $315 $194 #
plane-surface $-1 -41.254921109653019 -6.0645787328430458 2.0552287844311792 -0.52991927123019833 0 0.84804809178421925 0.84804809178421925 0 0.52991927123019833 forward_v I I I I #
loop $-1 $-1 $467 $123 #
coedge $-1 $313 $313 $314 $468 reversed $195 $-1 #
coedge $-1 $314 $314 $313 $468 forward $197 $-1 #
coedge $-1 $315 $315 $198 $316 forward $310 $-1 #
edge $-1 $469 0 $469 6.2831853071796004 $315 $470 forward 7 unknown #
loop $-1 $-1 $322 $199 #
plane-surface $-1 -41.254921109653019 -6.0645787328430458 2.0552287844311792 -0.52991927123019833 0 0.84804809178421925 0.84804809178421925 0 0.52991927123019833 forward_v I I I I #
loop $-1 $-1 $471 $126 #
coedge $-1 $320 $320 $321 $472 reversed $200 $-1 #
coedge $-1 $321 $321 $320 $472 forward $202 $-1 #
coedge $-1 $322 $322 $203 $323 forward $317 $-1 #
edge $-1 $473 0 $473 6.2831853071796004 $322 $474 forward 7 unknown #
loop $-1 $-1 $329 $204 #
plane-surface $-1 -41.254921109653019 -6.0645787328430458 2.0552287844311792 -0.52991927123019833 0 0.84804809178421925 0.84804809178421925 0 0.52991927123019833 forward_v I I I I #
loop $-1 $-1 $475 $129 #
coedge $-1 $327 $327 $328 $476 reversed $205 $-1 #
coedge $-1 $328 $328 $327 $476 forward $207 $-1 #
coedge $-1 $329 $329 $208 $330 forward $324 $-1 #
edge $-1 $477 0 $477 6.2831853071796004 $329 $478 forward 7 unknown #
face $-1 $479 $480 $68 $-1 $481 forward single #
loop $-1 $-1 $482 $209 #
plane-surface $-1 -84.978476567826306 17.063726489394924 72.027543031930648 0 -1 0 0.52991927123019833 0 -0.84804809178421925 forward_v I I I I #
coedge $-1 $483 $484 $485 $486 reversed $210 $-1 #
coedge $-1 $336 $212 $487 $488 reversed $133 $-1 #
coedge $-1 $212 $335 $483 $489 reversed $133 $-1 #
coedge $-1 $485 $490 $212 $338 forward $480 $-1 #
edge $-1 $491 1.2343171742601484 $492 7.5695940766903078 $337 $493 forward 7 unknown #
loop $-1 $-1 $344 $213 #
plane-surface $-1 -41.254921109653019 12.790437713677839 2.0552287844311792 -0.52991927123019833 0 0.84804809178421925 0.84804809178421925 0 0.52991927123019833 forward_v I I I I #
loop $-1 $-1 $494 $135 #
coedge $-1 $342 $342 $343 $495 reversed $214 $-1 #
coedge $-1 $343 $343 $342 $495 forward $216 $-1 #
coedge $-1 $344 $344 $217 $345 forward $339 $-1 #
edge $-1 $496 0 $496 6.2831853071796004 $344 $497 forward 7 unknown #
loop $-1 $-1 $351 $218 #
plane-surface $-1 -41.254921109653019 12.790437713677839 2.0552287844311792 -0.52991927123019833 0 0.84804809178421925 0.84804809178421925 0 0.52991927123019833 forward_v I I I I #
loop $-1 $-1 $498 $138 #
coedge $-1 $349 $349 $350 $499 reversed $219 $-1 #
coedge $-1 $350 $350 $349 $499 forward $221 $-1 #
coedge $-1 $351 $351 $222 $352 forward $346 $-1 #
edge $-1 $500 0 $500 6.2831853071796004 $351 $501 forward 7 unknown #
loop $-1 $-1 $358 $223 #
plane-surface $-1 -41.254921109653019 12.790437713677839 2.0552287844311792 -0.52991927123019833 0 0.84804809178421925 0.84804809178421925 0 0.52991927123019833 forward_v I I I I #
loop $-1 $-1 $502 $141 #
coedge $-1 $356 $356 $357 $503 reversed $224 $-1 #
coedge $-1 $357 $357 $356 $503 forward $226 $-1 #
coedge $-1 $358 $358 $227 $359 forward $353 $-1 #
edge $-1 $504 0 $504 6.2831853071796004 $358 $505 forward 7 unknown #
face $-1 $506 $507 $54 $-1 $508 reversed single #
loop $-1 $-1 $509 $228 #
plane-surface $-1 -41.254921109653004 0 0 1 0 0 0 0 -1 forward_v I I I I #
coedge $-1 $510 $371 $511 $512 forward $229 $-1 #
coedge $-1 $513 $231 $510 $514 forward $145 $-1 #
coedge $-1 $231 $513 $515 $516 forward $145 $-1 #
coedge $-1 $374 $373 $231 $367 reversed $375 $-1 #
edge $-1 $517 -26.623128751984574 $518 26.623128751984574 $366 $519 forward 7 unknown #
coedge $-1 $233 $232 $520 $521 forward $91 $-1 #
coedge $-1 $522 $523 $232 $370 reversed $507 $-1 #
edge $-1 $377 -41.254921109653004 $524 41.254921109653004 $369 $525 forward 7 unknown #
coedge $-1 $363 $526 $233 $372 reversed $229 $-1 #
edge $-1 $527 -41.254921109653004 $376 41.254921109653004 $371 $528 forward 7 unknown #
coedge $-1 $366 $234 $526 $529 forward $375 $-1 #
coedge $-1 $234 $366 $522 $530 reversed $375 $-1 #
loop $-1 $-1 $373 $506 #
vertex $-1 $235 $531 #
vertex $-1 $235 $532 #
straight-curve $-1 41.254921109653004 0 6.013949229298972 0 1 0 I I #
face $-1 $533 $534 $55 $-1 $535 forward single #
loop $-1 $-1 $388 $236 #
plane-surface $-1 0 -26.623128751984574 0 0 1 0 0 0 1 forward_v I I I I #
coedge $-1 $536 $537 $538 $539 forward $237 $-1 #
coedge $-1 $538 $239 $241 $390 reversed $149 $-1 #
coedge $-1 $239 $538 $540 $541 reversed $149 $-1 #
coedge $-1 $542 $242 $239 $386 forward $392 $-1 #
edge $-1 $394 0.75697461464948601 $543 3.756974614649486 $385 $544 forward 7 unknown #
coedge $-1 $241 $240 $536 $545 reversed $94 $-1 #
coedge $-1 $546 $547 $240 $389 forward $380 $-1 #
edge $-1 $548 -41.254921109653004 $393 41.254921109653004 $388 $549 forward 7 unknown #
edge $-1 $550 -41.254921109653004 $394 41.254921109653004 $383 $551 forward 7 unknown #
coedge $-1 $242 $542 $546 $552 forward $392 $-1 #
loop $-1 $-1 $385 $533 #
vertex $-1 $389 $553 #
vertex $-1 $243 $554 #
straight-curve $-1 41.254921109653004 -11.63009963078359 3.013949229298972 0 1 0 I I #
face $-1 $-1 $408 $56 $-1 $555 forward single #
loop $-1 $-1 $556 $244 #
plane-surface $-1 41.254921109653004 0 0 -1 0 0 0 0 1 forward_v I I I I #
coedge $-1 $557 $558 $559 $560 reversed $245 $-1 #
coedge $-1 $561 $247 $249 $406 forward $153 $-1 #
coedge $-1 $247 $561 $557 $562 forward $153 $-1 #
coedge $-1 $559 $250 $247 $403 forward $408 $-1 #
edge $-1 $410 -1.2409994092955632 $563 7.305578142138609 $402 $564 forward 7 unknown #
coedge $-1 $565 $566 $248 $405 forward $397 $-1 #
edge $-1 $567 -55.820320460620792 $409 -51.861600015752991 $404 $568 forward 7 unknown #
edge $-1 $410 75.039420478127028 $567 82.509842219306009 $249 $569 forward 7 unknown #
coedge $-1 $250 $559 $565 $570 forward $408 $-1 #
loop $-1 $-1 $559 $396 #
vertex $-1 $405 $571 #
vertex $-1 $251 $572 #
straight-curve $-1 7.5030811601634149 -1.7912899571259597 6.0139492292989729 -1 0 0 I I #
coedge $-1 $412 $412 $-1 $573 reversed $254 $-1 #
edge $-1 $574 0 $574 6.2831853071796004 $255 $575 forward 7 unknown #
vertex $-1 $258 $576 #
ellipse-curve $-1 38.087282658437907 -8.6285519982732986 4.034589006865076 0.52991927123019833 0 0.84804809178421925 0.42402404589210962 0 -0.26495963561509916 1 I I #
coedge $-1 $416 $416 $-1 $577 reversed $261 $-1 #
edge $-1 $578 0 $578 6.2831853071796004 $262 $579 forward 7 unknown #
vertex $-1 $265 $580 #
ellipse-curve $-1 38.087282658437907 -6.0645787328430458 4.034589006865076 0.52991927123019833 0 0.84804809178421925 0.42402404589210962 0 -0.26495963561509916 1 I I #
coedge $-1 $420 $420 $-1 $581 reversed $268 $-1 #
edge $-1 $582 0 $582 6.2831853071796004 $269 $583 forward 7 unknown #
vertex $-1 $272 $584 #
ellipse-curve $-1 38.087282658437907 -3.5006054674127931 4.034589006865076 0.52991927123019833 0 0.84804809178421925 0.42402404589210962 0 -0.26495963561509916 1 I I #
face $-1 $-1 $436 $60 $-1 $585 forward single #
loop $-1 $-1 $586 $273 #
plane-surface $-1 41.254921109653004 0 0 -1 0 0 0 0 1 forward_v I I I I #
coedge $-1 $587 $588 $589 $590 reversed $274 $-1 #
coedge $-1 $591 $276 $278 $434 forward $172 $-1 #
coedge $-1 $276 $591 $587 $592 forward $172 $-1 #
coedge $-1 $589 $279 $276 $431 forward $436 $-1 #
edge $-1 $438 -10.668507632556004 $593 -2.1219300811218336 $430 $594 forward 7 unknown #
coedge $-1 $595 $596 $277 $433 forward $425 $-1 #
edge $-1 $597 -55.820320460620792 $437 -51.861600015752991 $432 $598 forward 7 unknown #
edge $-1 $438 75.039420478127028 $597 82.509842219306009 $278 $599 forward 7 unknown #
coedge $-1 $279 $589 $595 $600 forward $436 $-1 #
loop $-1 $-1 $589 $424 #
vertex $-1 $433 $601 #
vertex $-1 $280 $602 #
straight-curve $-1 7.5030811601634149 17.063726489394924 6.0139492292989729 -1 0 0 I I #
coedge $-1 $440 $440 $-1 $603 reversed $283 $-1 #
edge $-1 $604 0 $604 6.2831853071796004 $284 $605 forward 7 unknown #
vertex $-1 $287 $606 #
ellipse-curve $-1 38.087282658437907 10.226464448247583 4.034589006865076 0.52991927123019833 0 0.84804809178421925 0.42402404589210962 0 -0.26495963561509916 1 I I #
coedge $-1 $444 $444 $-1 $607 reversed $290 $-1 #
edge $-1 $608 0 $608 6.2831853071796004 $291 $609 forward 7 unknown #
vertex $-1 $294 $610 #
ellipse-curve $-1 38.087282658437907 12.790437713677839 4.034589006865076 0.52991927123019833 0 0.84804809178421925 0.42402404589210962 0 -0.26495963561509916 1 I I #
coedge $-1 $448 $448 $-1 $611 reversed $297 $-1 #
edge $-1 $612 0 $612 6.2831853071796004 $298 $613 forward 7 unknown #
vertex $-1 $301 $614 #
ellipse-curve $-1 38.087282658437907 15.354410979108088 4.034589006865076 0.52991927123019833 0 0.84804809178421925 0.42402404589210962 0 -0.26495963561509916 1 I I #
face $-1 $-1 $615 $64 $-1 $616 reversed single #
loop $-1 $-1 $308 $302 #
plane-surface $-1 0 0 6.013949229298972 0 0 1 1 0 0 forward_v I I I I #
coedge $-1 $617 $618 $619 $620 reversed $303 $-1 #
coedge $-1 $621 $305 $307 $462 forward $191 $-1 #
coedge $-1 $305 $621 $617 $622 forward $191 $-1 #
coedge $-1 $619 $308 $305 $459 forward $453 $-1 #
edge $-1 $465 -7.305578142138609 $623 1.2409994092955632 $458 $624 forward 7 unknown #
coedge $-1 $625 $626 $306 $461 forward $615 $-1 #
edge $-1 $627 -33.958542731534138 $464 -29.999822286666351 $460 $628 forward 7 unknown #
edge $-1 $465 -7.4704217411789751 $627 -1.675811683274863e-014 $307 $629 forward 7 unknown #
coedge $-1 $308 $619 $625 $630 forward $453 $-1 #
vertex $-1 $461 $631 #
vertex $-1 $309 $632 #
straight-curve $-1 -42.489238283913153 -10.337867508560132 6.0139492292989729 1 0 0 I I #
coedge $-1 $467 $467 $-1 $633 reversed $312 $-1 #
edge $-1 $634 0 $634 6.2831853071796004 $313 $635 forward 7 unknown #
vertex $-1 $316 $636 #
ellipse-curve $-1 -38.087282658437914 -8.6285519982732986 4.0345890068650849 -0.52991927123019833 0 0.84804809178421925 0.42402404589210962 0 0.26495963561509916 1 I I #
coedge $-1 $471 $471 $-1 $637 reversed $319 $-1 #
edge $-1 $638 0 $638 6.2831853071796004 $320 $639 forward 7 unknown #
vertex $-1 $323 $640 #
ellipse-curve $-1 -38.087282658437914 -6.0645787328430458 4.0345890068650849 -0.52991927123019833 0 0.84804809178421925 0.42402404589210962 0 0.26495963561509916 1 I I #
coedge $-1 $475 $475 $-1 $641 reversed $326 $-1 #
edge $-1 $642 0 $642 6.2831853071796004 $327 $643 forward 7 unknown #
vertex $-1 $330 $644 #
ellipse-curve $-1 -38.087282658437914 -3.5006054674127931 4.0345890068650849 -0.52991927123019833 0 0.84804809178421925 0.42402404589210962 0 0.26495963561509916 1 I I #
face $-1 $-1 $645 $68 $-1 $646 reversed single #
loop $-1 $-1 $337 $331 #
plane-surface $-1 0 0 6.013949229298972 0 0 1 1 0 0 forward_v I I I I #
coedge $-1 $647 $648 $649 $650 reversed $332 $-1 #
coedge $-1 $651 $334 $336 $489 forward $210 $-1 #
coedge $-1 $334 $651 $647 $652 forward $210 $-1 #
coedge $-1 $649 $337 $334 $486 forward $480 $-1 #
edge $-1 $492 2.1219300811218336 $653 10.668507632556004 $485 $654 forward 7 unknown #
coedge $-1 $655 $656 $335 $488 forward $645 $-1 #
edge $-1 $657 -33.958542731534138 $491 -29.999822286666351 $487 $658 forward 7 unknown #
edge $-1 $492 -7.4704217411789751 $657 -1.675811683274863e-014 $336 $659 forward 7 unknown #
coedge $-1 $337 $649 $655 $660 forward $480 $-1 #
vertex $-1 $338 $661 #
vertex $-1 $338 $662 #
straight-curve $-1 -42.489238283913153 8.5171489379607532 6.0139492292989729 1 0 0 I I #
coedge $-1 $494 $494 $-1 $663 reversed $341 $-1 #
edge $-1 $664 0 $664 6.2831853071796004 $342 $665 forward 7 unknown #
vertex $-1 $345 $666 #
ellipse-curve $-1 -38.087282658437914 10.226464448247583 4.0345890068650849 -0.52991927123019833 0 0.84804809178421925 0.42402404589210962 0 0.26495963561509916 1 I I #
coedge $-1 $498 $498 $-1 $667 reversed $348 $-1 #
edge $-1 $668 0 $668 6.2831853071796004 $349 $669 forward 7 unknown #
vertex $-1 $352 $670 #
ellipse-curve $-1 -38.087282658437914 12.790437713677839 4.0345890068650849 -0.52991927123019833 0 0.84804809178421925 0.42402404589210962 0 0.26495963561509916 1 I I #
coedge $-1 $502 $502 $-1 $671 reversed $355 $-1 #
edge $-1 $672 0 $672 6.2831853071796004 $356 $673 forward 7 unknown #
vertex $-1 $359 $674 #
ellipse-curve $-1 -38.087282658437914 15.354410979108088 4.0345890068650849 -0.52991927123019833 0 0.84804809178421925 0.42402404589210962 0 0.26495963561509916 1 I I #
face $-1 $-1 $375 $54 $-1 $675 reversed single #
loop $-1 $-1 $522 $360 #
plane-surface $-1 0 26.623128751984574 0 0 -1 0 0 0 -1 forward_v I I I I #
coedge $-1 $676 $520 $523 $677 forward $361 $-1 #
coedge $-1 $526 $363 $364 $514 reversed $229 $-1 #
coedge $-1 $520 $676 $363 $512 reversed $361 $-1 #
edge $-1 $527 -6.013949229298972 $678 6.013949229298972 $511 $679 forward 7 unknown #
coedge $-1 $365 $364 $676 $680 forward $145 $-1 #
edge $-1 $518 -41.254921109653004 $678 41.254921109653004 $510 $681 forward 7 unknown #
coedge $-1 $523 $522 $365 $516 reversed $507 $-1 #
edge $-1 $682 -41.254921109653004 $517 41.254921109653004 $515 $683 forward 7 unknown #
vertex $-1 $367 $684 #
vertex $-1 $529 $685 #
straight-curve $-1 41.254921109653004 0 -6.013949229298972 0 -1 0 I I #
coedge $-1 $509 $511 $368 $521 reversed $361 $-1 #
edge $-1 $524 -26.623128751984574 $527 26.623128751984574 $520 $686 forward 7 unknown #
coedge $-1 $515 $369 $374 $530 forward $507 $-1 #
coedge $-1 $369 $515 $509 $677 reversed $507 $-1 #
vertex $-1 $370 $687 #
straight-curve $-1 0 26.623128751984574 6.013949229298972 -1 0 0 I I #
coedge $-1 $371 $510 $373 $529 reversed $229 $-1 #
vertex $-1 $521 $688 #
straight-curve $-1 0 -26.623128751984574 6.013949229298972 1 0 0 I I #
edge $-1 $376 -6.013949229298972 $518 6.013949229298972 $373 $689 forward 7 unknown #
edge $-1 $377 -6.013949229298972 $517 6.013949229298972 $374 $690 forward 7 unknown #
point $-1 41.254921109653004 -26.623128751984574 6.013949229298972 #
point $-1 41.254921109653004 26.623128751984574 6.013949229298972 #
face $-1 $-1 $392 $55 $-1 $691 reversed single #
loop $-1 $-1 $540 $379 #
plane-surface $-1 0 0 6.013949229298972 0 0 1 1 0 0 forward_v I I I I #
coedge $-1 $692 $382 $387 $545 forward $237 $-1 #
coedge $-1 $382 $692 $693 $694 reversed $237 $-1 #
coedge $-1 $384 $383 $382 $539 reversed $149 $-1 #
edge $-1 $695 -3.756974614649486 $550 -0.75697461464948601 $382 $696 forward 7 unknown #
coedge $-1 $693 $697 $384 $541 forward $534 $-1 #
edge $-1 $543 -41.254921109653004 $695 41.254921109653004 $540 $698 forward 7 unknown #
coedge $-1 $391 $385 $697 $699 reversed $392 $-1 #
vertex $-1 $386 $700 #
straight-curve $-1 41.254921109653004 -19.897269771149787 2.256974614649486 0 0 1 I I #
edge $-1 $550 8.267170140366197 $548 14.993029121200983 $536 $701 forward 7 unknown #
coedge $-1 $702 $388 $391 $552 reversed $380 $-1 #
coedge $-1 $388 $702 $692 $703 forward $380 $-1 #
vertex $-1 $389 $704 #
straight-curve $-1 0 -26.623128751984574 3.013949229298972 1 0 0 I I #
vertex $-1 $545 $705 #
straight-curve $-1 0 -19.897269771149787 3.013949229298972 1 0 0 I I #
edge $-1 $706 -6.013949229298972 $393 -3.013949229298972 $391 $707 forward 7 unknown #
point $-1 41.254921109653004 -26.623128751984574 3.013949229298972 #
point $-1 41.254921109653004 -19.897269771149787 3.013949229298972 #
plane-surface $-1 0 0 6.013949229298972 0 0 1 1 0 0 forward_v I I I I #
coedge $-1 $566 $565 $558 $708 forward $397 $-1 #
coedge $-1 $558 $399 $401 $562 reversed $245 $-1 #
coedge $-1 $399 $557 $556 $708 reversed $245 $-1 #
coedge $-1 $407 $402 $399 $560 forward $408 $-1 #
edge $-1 $563 27.416563047059409 $709 33.751839949489593 $559 $710 forward 7 unknown #
coedge $-1 $401 $400 $566 $711 reversed $153 $-1 #
edge $-1 $712 -82.509842219306009 $563 -75.039420478127028 $557 $713 forward 7 unknown #
vertex $-1 $403 $714 #
straight-curve $-1 34.919644207222824 -3.0322893664215229 6.0139492292989694 0 -1 0 I I #
coedge $-1 $556 $404 $407 $570 reversed $397 $-1 #
coedge $-1 $404 $556 $561 $711 forward $397 $-1 #
vertex $-1 $405 $715 #
straight-curve $-1 41.254921109653004 -1.7912899571259597 57.875549245051964 0 0 1 I I #
straight-curve $-1 -28.717393137846457 -1.7912899571259597 45.778784242604459 0.84804809178421925 0 -0.52991927123019833 I I #
edge $-1 $709 -10.337867508560132 $409 -1.7912899571259597 $565 $716 forward 7 unknown #
point $-1 41.254921109653004 -1.7912899571259597 6.013949229298972 #
point $-1 34.919644207222824 -1.7912899571259597 6.0139492292989729 #
edge $-1 $717 1 $717 0 $412 $-1 forward 7 unknown #
vertex $-1 $413 $718 #
ellipse-curve $-1 37.135855439403265 -8.6285519982732986 2.511987204328634 0.52991927123019833 0 0.84804809178421925 0.42402404589210962 0 -0.26495963561509916 1 I I #
point $-1 38.511306704330018 -8.6285519982732986 3.7696293712499744 #
edge $-1 $719 1 $719 0 $416 $-1 forward 7 unknown #
vertex $-1 $417 $720 #
ellipse-curve $-1 37.135855439403265 -6.0645787328430458 2.511987204328634 0.52991927123019833 0 0.84804809178421925 0.42402404589210962 0 -0.26495963561509916 1 I I #
point $-1 38.511306704330018 -6.0645787328430458 3.7696293712499744 #
edge $-1 $721 1 $721 0 $420 $-1 forward 7 unknown #
vertex $-1 $421 $722 #
ellipse-curve $-1 37.135855439403265 -3.5006054674127931 2.511987204328634 0.52991927123019833 0 0.84804809178421925 0.42402404589210962 0 -0.26495963561509916 1 I I #
point $-1 38.511306704330018 -3.5006054674127931 3.7696293712499744 #
plane-surface $-1 0 0 6.013949229298972 0 0 1 1 0 0 forward_v I I I I #
coedge $-1 $596 $595 $588 $723 forward $425 $-1 #
coedge $-1 $588 $427 $429 $592 reversed $274 $-1 #
coedge $-1 $427 $587 $586 $723 reversed $274 $-1 #
coedge $-1 $435 $430 $427 $590 forward $436 $-1 #
edge $-1 $593 27.416563047059409 $724 33.751839949489593 $589 $725 forward 7 unknown #
coedge $-1 $429 $428 $596 $726 reversed $172 $-1 #
edge $-1 $727 -82.509842219306009 $593 -75.039420478127028 $587 $728 forward 7 unknown #
vertex $-1 $431 $729 #
straight-curve $-1 34.919644207222824 6.3952188568389197 6.0139492292989694 0 -1 0 I I #
coedge $-1 $586 $432 $435 $600 reversed $425 $-1 #
coedge $-1 $432 $586 $591 $726 forward $425 $-1 #
vertex $-1 $433 $730 #
straight-curve $-1 41.254921109653004 17.063726489394924 57.875549245051964 0 0 1 I I #
straight-curve $-1 -28.717393137846457 17.063726489394924 45.778784242604459 0.84804809178421925 0 -0.52991927123019833 I I #
edge $-1 $724 8.5171489379607532 $437 17.063726489394924 $595 $731 forward 7 unknown #
point $-1 41.254921109653004 17.063726489394924 6.013949229298972 #
point $-1 34.919644207222824 17.063726489394924 6.0139492292989729 #
edge $-1 $732 1 $732 0 $440 $-1 forward 7 unknown #
vertex $-1 $441 $733 #
ellipse-curve $-1 37.135855439403265 10.226464448247583 2.511987204328634 0.52991927123019833 0 0.84804809178421925 0.42402404589210962 0 -0.26495963561509916 1 I I #
point $-1 38.511306704330018 10.226464448247583 3.7696293712499744 #
edge $-1 $734 1 $734 0 $444 $-1 forward 7 unknown #
vertex $-1 $445 $735 #
ellipse-curve $-1 37.135855439403265 12.790437713677839 2.511987204328634 0.52991927123019833 0 0.84804809178421925 0.42402404589210962 0 -0.26495963561509916 1 I I #
point $-1 38.511306704330018 12.790437713677839 3.7696293712499744 #
edge $-1 $736 1 $736 0 $448 $-1 forward 7 unknown #
vertex $-1 $449 $737 #
ellipse-curve $-1 37.135855439403265 15.354410979108088 2.511987204328634 0.52991927123019833 0 0.84804809178421925 0.42402404589210962 0 -0.26495963561509916 1 I I #
point $-1 38.511306704330018 15.354410979108088 3.7696293712499744 #
loop $-1 $-1 $460 $452 #
plane-surface $-1 -41.254921109653004 0 0 1 0 0 0 0 -1 forward_v I I I I #
coedge $-1 $618 $455 $457 $622 reversed $303 $-1 #
coedge $-1 $455 $617 $738 $739 reversed $303 $-1 #
coedge $-1 $463 $458 $455 $620 forward $453 $-1 #
edge $-1 $623 -7.5695940766903078 $740 -1.2343171742601484 $619 $741 forward 7 unknown #
coedge $-1 $457 $456 $626 $742 reversed $191 $-1 #
edge $-1 $743 1.675811683274863e-014 $623 7.4704217411789751 $617 $744 forward 7 unknown #
vertex $-1 $459 $745 #
straight-curve $-1 -34.919644207222845 -3.0322893664215229 6.013949229298972 0 1 0 I I #
coedge $-1 $738 $460 $463 $630 reversed $615 $-1 #
coedge $-1 $460 $738 $621 $742 forward $615 $-1 #
vertex $-1 $461 $746 #
straight-curve $-1 -41.254921109653004 -10.337867508560132 36.013771515965324 0 0 1 I I #
straight-curve $-1 -41.254921109653019 -10.337867508560132 2.0552287844311792 -0.84804809178421925 0 -0.52991927123019833 I I #
edge $-1 $740 1.7912899571259597 $464 10.337867508560132 $625 $747 forward 7 unknown #
point $-1 -41.254921109653004 -10.337867508560132 6.013949229298972 #
point $-1 -34.919644207222845 -10.337867508560132 6.013949229298972 #
edge $-1 $748 1 $748 0 $467 $-1 forward 7 unknown #
vertex $-1 $468 $749 #
ellipse-curve $-1 -37.135855439403265 -8.6285519982732986 2.5119872043286322 -0.52991927123019833 0 0.84804809178421925 0.42402404589210962 0 0.26495963561509916 1 I I #
point $-1 -37.663258612545803 -8.6285519982732986 4.299548642480171 #
edge $-1 $750 1 $750 0 $471 $-1 forward 7 unknown #
vertex $-1 $472 $751 #
ellipse-curve $-1 -37.135855439403265 -6.0645787328430458 2.5119872043286322 -0.52991927123019833 0 0.84804809178421925 0.42402404589210962 0 0.26495963561509916 1 I I #
point $-1 -37.663258612545803 -6.0645787328430458 4.299548642480171 #
edge $-1 $752 1 $752 0 $475 $-1 forward 7 unknown #
vertex $-1 $476 $753 #
ellipse-curve $-1 -37.135855439403265 -3.5006054674127931 2.5119872043286322 -0.52991927123019833 0 0.84804809178421925 0.42402404589210962 0 0.26495963561509916 1 I I #
point $-1 -37.663258612545803 -3.5006054674127931 4.299548642480171 #
loop $-1 $-1 $487 $479 #
plane-surface $-1 -41.254921109653004 0 0 1 0 0 0 0 -1 forward_v I I I I #
coedge $-1 $648 $482 $484 $652 reversed $332 $-1 #
coedge $-1 $482 $647 $754 $755 reversed $332 $-1 #
coedge $-1 $490 $485 $482 $650 forward $480 $-1 #
edge $-1 $653 -7.5695940766903078 $756 -1.2343171742601484 $649 $757 forward 7 unknown #
coedge $-1 $484 $483 $656 $758 reversed $210 $-1 #
edge $-1 $759 1.675811683274863e-014 $653 7.4704217411789751 $647 $760 forward 7 unknown #
vertex $-1 $486 $761 #
straight-curve $-1 -34.919644207222845 6.3952188568389197 6.013949229298972 0 1 0 I I #
coedge $-1 $754 $487 $490 $660 reversed $645 $-1 #
coedge $-1 $487 $754 $651 $758 forward $645 $-1 #
vertex $-1 $488 $762 #
straight-curve $-1 -41.254921109653004 8.5171489379607532 36.013771515965324 0 0 1 I I #
straight-curve $-1 -41.254921109653019 8.5171489379607532 2.0552287844311792 -0.84804809178421925 0 -0.52991927123019833 I I #
edge $-1 $756 -17.063726489394924 $491 -8.5171489379607532 $655 $763 forward 7 unknown #
point $-1 -41.254921109653004 8.5171489379607532 6.013949229298972 #
point $-1 -34.919644207222845 8.5171489379607532 6.013949229298972 #
edge $-1 $764 1 $764 0 $494 $-1 forward 7 unknown #
vertex $-1 $495 $765 #
ellipse-curve $-1 -37.135855439403265 10.226464448247583 2.5119872043286322 -0.52991927123019833 0 0.84804809178421925 0.42402404589210962 0 0.26495963561509916 1 I I #
point $-1 -37.663258612545803 10.226464448247583 4.299548642480171 #
edge $-1 $766 1 $766 0 $498 $-1 forward 7 unknown #
vertex $-1 $499 $767 #
ellipse-curve $-1 -37.135855439403265 12.790437713677839 2.5119872043286322 -0.52991927123019833 0 0.84804809178421925 0.42402404589210962 0 0.26495963561509916 1 I I #
point $-1 -37.663258612545803 12.790437713677839 4.299548642480171 #
edge $-1 $768 1 $768 0 $502 $-1 forward 7 unknown #
vertex $-1 $503 $769 #
ellipse-curve $-1 -37.135855439403265 15.354410979108088 2.5119872043286322 -0.52991927123019833 0 0.84804809178421925 0.42402404589210962 0 0.26495963561509916 1 I I #
point $-1 -37.663258612545803 15.354410979108088 4.299548642480171 #
plane-surface $-1 41.254921109653004 0 0 -1 0 0 0 0 1 forward_v I I I I #
coedge $-1 $511 $509 $513 $680 reversed $361 $-1 #
edge $-1 $524 -6.013949229298972 $682 6.013949229298972 $523 $770 forward 7 unknown #
vertex $-1 $680 $771 #
straight-curve $-1 -41.254921109653004 -26.623128751984574 0 0 0 -1 I I #
edge $-1 $678 -26.623128751984574 $682 26.623128751984574 $676 $772 forward 7 unknown #
straight-curve $-1 0 -26.623128751984574 -6.013949229298972 -1 0 0 I I #
vertex $-1 $516 $773 #
straight-curve $-1 0 26.623128751984574 -6.013949229298972 1 0 0 I I #
point $-1 41.254921109653004 26.623128751984574 -6.013949229298972 #
point $-1 41.254921109653004 -26.623128751984574 -6.013949229298972 #
straight-curve $-1 -41.254921109653004 0 6.013949229298972 0 -1 0 I I #
point $-1 -41.254921109653004 26.623128751984574 6.013949229298972 #
point $-1 -41.254921109653004 -26.623128751984574 6.013949229298972 #
straight-curve $-1 41.254921109653004 -26.623128751984574 0 0 0 -1 I I #
straight-curve $-1 41.254921109653004 26.623128751984574 0 0 0 -1 I I #
plane-surface $-1 41.254921109653004 0 0 -1 0 0 0 0 1 forward_v I I I I #
coedge $-1 $537 $536 $547 $703 reversed $237 $-1 #
coedge $-1 $774 $540 $537 $694 forward $534 $-1 #
edge $-1 $695 19.897269771149787 $775 26.623128751984574 $537 $776 forward 7 unknown #
vertex $-1 $694 $777 #
straight-curve $-1 -41.254921109653004 -19.897269771149787 2.256974614649486 0 0 -1 I I #
coedge $-1 $540 $774 $542 $699 forward $534 $-1 #
straight-curve $-1 0 -19.897269771149787 6.013949229298972 -1 0 0 I I #
edge $-1 $706 -26.623128751984574 $543 -19.897269771149787 $542 $778 forward 7 unknown #
point $-1 41.254921109653004 -19.897269771149787 6.013949229298972 #
straight-curve $-1 -41.254921109653004 -11.63009963078359 3.013949229298972 0 -1 0 I I #
coedge $-1 $547 $546 $774 $779 reversed $380 $-1 #
edge $-1 $775 -6.013949229298972 $548 -3.013949229298972 $692 $780 forward 7 unknown #
point $-1 -41.254921109653004 -26.623128751984574 3.013949229298972 #
point $-1 -41.254921109653004 -19.897269771149787 3.013949229298972 #
vertex $-1 $699 $781 #
straight-curve $-1 41.254921109653004 -26.623128751984574 0 0 0 -1 I I #
edge $-1 $709 51.861600015752991 $712 55.820320460620792 $556 $782 forward 7 unknown #
vertex $-1 $570 $783 #
straight-curve $-1 7.5030811601634149 -10.337867508560132 6.0139492292989729 1 0 0 I I #
edge $-1 $712 -7.305578142138609 $567 1.2409994092955632 $566 $784 forward 7 unknown #
vertex $-1 $711 $785 #
straight-curve $-1 -28.717393137846457 -10.337867508560132 45.778784242604459 -0.84804809178421925 0 0.52991927123019833 I I #
point $-1 34.919644207222824 -10.337867508560132 6.0139492292989729 #
point $-1 41.254921109653012 -1.7912899571259597 2.0552287844311721 #
straight-curve $-1 41.254921109653004 0 6.013949229298972 0 1 0 I I #
vertex $-1 $573 $786 #
point $-1 37.559879485295376 -8.6285519982732986 2.2470275687135346 #
vertex $-1 $577 $787 #
point $-1 37.559879485295376 -6.0645787328430458 2.2470275687135346 #
vertex $-1 $581 $788 #
point $-1 37.559879485295376 -3.5006054674127931 2.2470275687135346 #
edge $-1 $724 51.861600015752991 $727 55.820320460620792 $586 $789 forward 7 unknown #
vertex $-1 $600 $790 #
straight-curve $-1 7.5030811601634149 8.5171489379607532 6.0139492292989729 1 0 0 I I #
edge $-1 $727 2.1219300811218336 $597 10.668507632556004 $596 $791 forward 7 unknown #
vertex $-1 $726 $792 #
straight-curve $-1 -28.717393137846457 8.5171489379607532 45.778784242604459 -0.84804809178421925 0 0.52991927123019833 I I #
point $-1 34.919644207222824 8.5171489379607532 6.0139492292989729 #
point $-1 41.254921109653012 17.063726489394924 2.0552287844311721 #
straight-curve $-1 41.254921109653004 0 6.013949229298972 0 1 0 I I #
vertex $-1 $603 $793 #
point $-1 37.559879485295376 10.226464448247583 2.2470275687135346 #
vertex $-1 $607 $794 #
point $-1 37.559879485295376 12.790437713677839 2.2470275687135346 #
vertex $-1 $611 $795 #
point $-1 37.559879485295376 15.354410979108088 2.2470275687135346 #
coedge $-1 $626 $625 $618 $739 forward $615 $-1 #
edge $-1 $740 29.999822286666351 $743 33.958542731534138 $738 $796 forward 7 unknown #
vertex $-1 $630 $797 #
straight-curve $-1 -42.489238283913153 -1.7912899571259597 6.0139492292989729 -1 0 0 I I #
edge $-1 $743 -1.2409994092955632 $627 7.305578142138609 $626 $798 forward 7 unknown #
vertex $-1 $742 $799 #
straight-curve $-1 -41.254921109653019 -1.7912899571259597 2.0552287844311792 0.84804809178421925 0 0.52991927123019833 I I #
point $-1 -34.919644207222845 -1.7912899571259597 6.013949229298972 #
point $-1 -41.254921109653004 -10.337867508560132 2.0552287844311881 #
straight-curve $-1 -41.254921109653004 0 6.013949229298972 0 -1 0 I I #
vertex $-1 $633 $800 #
point $-1 -36.711831393511154 -8.6285519982732986 2.7769468399437311 #
vertex $-1 $637 $801 #
point $-1 -36.711831393511154 -6.0645787328430458 2.7769468399437311 #
vertex $-1 $641 $802 #
point $-1 -36.711831393511154 -3.5006054674127931 2.7769468399437311 #
coedge $-1 $656 $655 $648 $755 forward $645 $-1 #
edge $-1 $756 29.999822286666351 $759 33.958542731534138 $754 $803 forward 7 unknown #
vertex $-1 $660 $804 #
straight-curve $-1 -42.489238283913153 17.063726489394924 6.0139492292989729 -1 0 0 I I #
edge $-1 $759 -10.668507632556004 $657 -2.1219300811218336 $656 $805 forward 7 unknown #
vertex $-1 $758 $806 #
straight-curve $-1 -41.254921109653019 17.063726489394924 2.0552287844311792 0.84804809178421925 0 0.52991927123019833 I I #
point $-1 -34.919644207222845 17.063726489394924 6.013949229298972 #
point $-1 -41.254921109653004 8.5171489379607532 2.0552287844311881 #
straight-curve $-1 -41.254921109653004 0 6.013949229298972 0 -1 0 I I #
vertex $-1 $663 $807 #
point $-1 -36.711831393511154 10.226464448247583 2.7769468399437311 #
vertex $-1 $667 $808 #
point $-1 -36.711831393511154 12.790437713677839 2.7769468399437311 #
vertex $-1 $671 $809 #
point $-1 -36.711831393511154 15.354410979108088 2.7769468399437311 #
straight-curve $-1 -41.254921109653004 26.623128751984574 0 0 0 -1 I I #
point $-1 -41.254921109653004 -26.623128751984574 -6.013949229298972 #
straight-curve $-1 -41.254921109653004 0 -6.013949229298972 0 1 0 I I #
point $-1 -41.254921109653004 26.623128751984574 -6.013949229298972 #
coedge $-1 $697 $693 $702 $779 forward $534 $-1 #
vertex $-1 $694 $810 #
straight-curve $-1 -41.254921109653004 0 6.013949229298972 0 -1 0 I I #
point $-1 -41.254921109653004 -19.897269771149787 6.013949229298972 #
straight-curve $-1 41.254921109653004 0 6.013949229298972 0 1 0 I I #
edge $-1 $775 -41.254921109653004 $706 41.254921109653004 $702 $811 forward 7 unknown #
straight-curve $-1 -41.254921109653004 -26.623128751984574 0 0 0 -1 I I #
point $-1 41.254921109653004 -26.623128751984574 6.013949229298972 #
straight-curve $-1 41.254921109653004 -10.337867508560132 57.875549245051964 0 0 -1 I I #
point $-1 41.254921109653004 -10.337867508560132 6.013949229298972 #
straight-curve $-1 41.254921109653004 -3.0322893664215229 2.0552287844311756 0 1 0 I I #
point $-1 41.254921109653012 -10.337867508560132 2.0552287844311721 #
point $-1 36.870895803788166 -8.6285519982732986 2.0879631584365241 #
point $-1 36.870895803788166 -6.0645787328430458 2.0879631584365241 #
point $-1 36.870895803788166 -3.5006054674127931 2.0879631584365241 #
straight-curve $-1 41.254921109653004 8.5171489379607532 57.875549245051964 0 0 -1 I I #
point $-1 41.254921109653004 8.5171489379607532 6.013949229298972 #
straight-curve $-1 41.254921109653004 6.3952188568389197 2.0552287844311756 0 1 0 I I #
point $-1 41.254921109653012 8.5171489379607532 2.0552287844311721 #
point $-1 36.870895803788166 10.226464448247583 2.0879631584365241 #
point $-1 36.870895803788166 12.790437713677839 2.0879631584365241 #
point $-1 36.870895803788166 15.354410979108088 2.0879631584365241 #
straight-curve $-1 -41.254921109653004 -1.7912899571259597 36.013771515965324 0 0 -1 I I #
point $-1 -41.254921109653004 -1.7912899571259597 6.013949229298972 #
straight-curve $-1 -41.254921109653004 -3.0322893664215229 2.0552287844311889 0 -1 0 I I #
point $-1 -41.254921109653004 -1.7912899571259597 2.0552287844311881 #
point $-1 -36.870895803788166 -8.6285519982732986 2.0879631584365224 #
point $-1 -36.870895803788166 -6.0645787328430458 2.0879631584365224 #
point $-1 -36.870895803788166 -3.5006054674127931 2.0879631584365224 #
straight-curve $-1 -41.254921109653004 17.063726489394924 36.013771515965324 0 0 -1 I I #
point $-1 -41.254921109653004 17.063726489394924 6.013949229298972 #
straight-curve $-1 -41.254921109653004 6.3952188568389197 2.0552287844311889 0 -1 0 I I #
point $-1 -41.254921109653004 17.063726489394924 2.0552287844311881 #
point $-1 -36.870895803788166 10.226464448247583 2.0879631584365224 #
point $-1 -36.870895803788166 12.790437713677839 2.0879631584365224 #
point $-1 -36.870895803788166 15.354410979108088 2.0879631584365224 #
point $-1 -41.254921109653004 -26.623128751984574 6.013949229298972 #
straight-curve $-1 0 -26.623128751984574 6.013949229298972 1 0 0 I I #
End-of-ACIS-data 