500 0 8 0           
7 Unknown 11 ACIS 5.0 NT 24 Fri Mar 26 00:53:44 1999 
-1 9.9999999999999995e-007 1e-010 
body $-1 $8 $-1 $9 #
body $-1 $10 $-1 $11 #
body $-1 $12 $-1 $13 #
body $-1 $14 $-1 $15 #
body $-1 $16 $-1 $17 #
body $-1 $18 $-1 $19 #
body $-1 $20 $-1 $21 #
body $-1 $22 $-1 $23 #
lump $-1 $-1 $24 $0 #
transform $-1 1 0 0 0 1 0 0 0 1 58.532059694204534 37.780125007491897 17.708821069675835 1 rotate no_reflect no_shear #
lump $-1 $-1 $25 $1 #
transform $-1 1 0 0 0 1 0 0 0 1 58.532059694204534 37.780125007491897 17.708821069675835 1 rotate no_reflect no_shear #
lump $-1 $-1 $26 $2 #
transform $-1 1 0 0 0 1 0 0 0 1 58.532059694204534 37.780125007491897 17.708821069675835 1 rotate no_reflect no_shear #
lump $-1 $-1 $27 $3 #
transform $-1 1 0 0 0 1 0 0 0 1 58.532059694204534 37.780125007491897 17.708821069675835 1 rotate no_reflect no_shear #
lump $-1 $-1 $28 $4 #
transform $-1 1 0 0 0 1 0 0 0 1 58.532059694204534 37.780125007491897 17.708821069675835 1 rotate no_reflect no_shear #
lump $-1 $-1 $29 $5 #
transform $-1 1 0 0 0 1 0 0 0 1 58.532059694204534 37.780125007491897 17.708821069675835 1 rotate no_reflect no_shear #
lump $-1 $-1 $30 $6 #
transform $-1 1 0 0 0 1 0 0 0 1 58.532059694204534 37.780125007491897 17.708821069675835 1 rotate no_reflect no_shear #
lump $-1 $-1 $31 $7 #
transform $-1 1 0 0 0 1 0 0 0 1 58.532059694204534 37.780125007491897 17.708821069675835 1 rotate no_reflect no_shear #
shell $-1 $-1 $-1 $32 $-1 $8 #
shell $-1 $-1 $-1 $33 $-1 $10 #
shell $-1 $-1 $-1 $34 $-1 $12 #
shell $-1 $-1 $-1 $35 $-1 $14 #
shell $-1 $-1 $-1 $36 $-1 $16 #
shell $-1 $-1 $-1 $37 $-1 $18 #
shell $-1 $-1 $-1 $38 $-1 $20 #
shell $-1 $-1 $-1 $39 $-1 $22 #
face $-1 $40 $41 $24 $-1 $42 forward single #
face $-1 $43 $44 $25 $-1 $45 reversed single #
face $-1 $46 $47 $26 $-1 $48 reversed single #
face $-1 $49 $50 $27 $-1 $51 reversed single #
face $-1 $52 $53 $28 $-1 $54 forward single #
face $-1 $55 $56 $29 $-1 $57 reversed single #
face $-1 $58 $59 $30 $-1 $60 forward single #
face $-1 $61 $62 $31 $-1 $63 forward single #
face $-1 $64 $65 $24 $-1 $66 reversed single #
loop $-1 $-1 $67 $32 #
plane-surface $-1 0 0 17.708821069675835 0 0 1 1 0 0 forward_v I I I I #
face $-1 $68 $69 $25 $-1 $70 reversed single #
loop $-1 $-1 $71 $33 #
plane-surface $-1 -51.040931676425487 -19.821921370773936 0 0 1 0 0 0 1 forward_v I I I I #
face $-1 $72 $73 $26 $-1 $74 reversed single #
loop $-1 $-1 $75 $34 #
plane-surface $-1 51.040931676425487 -19.821921370773936 0 0 1 0 0 0 1 forward_v I I I I #
face $-1 $76 $77 $27 $-1 $78 reversed single #
loop $-1 $-1 $79 $35 #
plane-surface $-1 -36.934375333129189 40.599264787652963 140.25226513724454 1 0 0 0 -0.55919291073839883 -0.82903756765294845 forward_v I I I I #
face $-1 $80 $81 $28 $-1 $82 forward single #
loop $-1 $83 $84 $36 #
cone-surface $-1 -29.096952401683765 23.07537980061581 5.9471898211660443 0 -0.55919291073839883 -0.82903756765294845 2.5 0 0 1 I I 0 1 2.5 forward I I I I #
face $-1 $85 $86 $29 $-1 $87 reversed single #
loop $-1 $-1 $88 $37 #
plane-surface $-1 39.005226929256281 -138.1236611499076 74.127755773622653 -1 0 0 0 -0.85716730853699208 0.51503806187062418 forward_v I I I I #
face $-1 $89 $90 $30 $-1 $91 forward single #
loop $-1 $92 $93 $38 #
cone-surface $-1 28.028395714413278 -36.187811833015033 15.514530808515159 0 0.85716730853699208 -0.51503806187062418 0.5 0 0 1 I I 0 1 0.5 forward I I I I #
face $-1 $94 $95 $31 $-1 $96 forward single #
loop $-1 $97 $98 $39 #
cone-surface $-1 34.614494443319089 -36.187811833015033 15.514530808515159 0 0.85716730853699208 -0.51503806187062418 0.5 0 0 1 I I 0 1 0.5 forward I I I I #
face $-1 $99 $100 $24 $-1 $101 reversed single #
loop $-1 $-1 $102 $40 #
plane-surface $-1 0 0 -17.708821069675835 0 0 1 1 0 0 forward_v I I I I #
coedge $-1 $103 $104 $105 $106 forward $41 $-1 #
face $-1 $107 $108 $25 $-1 $109 reversed single #
loop $-1 $-1 $110 $43 #
plane-surface $-1 -51.040931676425487 -9.3792997553532285 0 0 -1 0 0 0 -1 forward_v I I I I #
coedge $-1 $111 $112 $113 $114 reversed $44 $-1 #
face $-1 $115 $116 $26 $-1 $117 reversed single #
loop $-1 $-1 $118 $46 #
plane-surface $-1 43.549803658646439 -14.600610563063583 0 1 0 0 0 0 -1 forward_v I I I I #
coedge $-1 $119 $120 $121 $122 forward $47 $-1 #
face $-1 $123 $124 $27 $-1 $125 reversed single #
loop $-1 $-1 $126 $49 #
plane-surface $-1 -29.096952401683765 -24.862160876178926 43.201712340043514 0 0.55919291073839883 0.82903756765294845 1 0 0 forward_v I I I I #
coedge $-1 $127 $128 $129 $130 reversed $50 $-1 #
face $-1 $-1 $131 $28 $-1 $132 forward single #
loop $-1 $133 $134 $52 #
cone-surface $-1 -29.096952401683765 20.095403968502332 1.5291940489061879 0 -0.55919291073839883 -0.82903756765294845 1.25 0 0 1 I I -0.70710678118654746 0.70710678118654746 1.25 forward I I I I #
loop $-1 $-1 $135 $36 #
coedge $-1 $84 $84 $136 $137 reversed $53 $-1 #
face $-1 $138 $139 $29 $-1 $140 reversed single #
loop $-1 $-1 $141 $55 #
plane-surface $-1 31.321445078866176 -37.780125007491904 13.835278609225092 0 -0.85716730853699208 0.51503806187062418 1 0 0 forward_v I I I I #
coedge $-1 $142 $143 $144 $145 reversed $56 $-1 #
face $-1 $-1 $146 $30 $-1 $147 forward single #
loop $-1 $148 $149 $58 #
cone-surface $-1 28.028395714413278 -35.544936351612286 15.128252262112191 0 0.85716730853699208 -0.51503806187062418 0.25 0 0 1 I I -0.70710678118654746 0.70710678118654746 0.25 forward I I I I #
loop $-1 $-1 $150 $38 #
coedge $-1 $93 $93 $151 $152 reversed $59 $-1 #
face $-1 $-1 $153 $31 $-1 $154 forward single #
loop $-1 $155 $156 $61 #
cone-surface $-1 34.614494443319089 -35.544936351612286 15.128252262112191 0 0.85716730853699208 -0.51503806187062418 0.25 0 0 1 I I -0.70710678118654746 0.70710678118654746 0.25 forward I I I I #
loop $-1 $-1 $157 $39 #
coedge $-1 $98 $98 $158 $159 reversed $62 $-1 #
face $-1 $160 $161 $24 $-1 $162 reversed single #
loop $-1 $-1 $163 $64 #
plane-surface $-1 0 -37.780125007491897 0 0 1 0 0 0 1 forward_v I I I I #
coedge $-1 $164 $165 $166 $167 forward $65 $-1 #
coedge $-1 $168 $67 $169 $170 forward $41 $-1 #
coedge $-1 $67 $168 $171 $172 forward $41 $-1 #
coedge $-1 $173 $174 $67 $106 reversed $175 $-1 #
edge $-1 $176 -37.780125007491897 $177 37.780125007491897 $105 $178 forward 7 unknown #
face $-1 $179 $180 $25 $-1 $181 reversed single #
loop $-1 $-1 $182 $68 #
plane-surface $-1 -43.549803658646439 -14.600610563063583 0 -1 0 0 0 0 1 forward_v I I I I #
coedge $-1 $183 $184 $185 $186 forward $69 $-1 #
coedge $-1 $187 $71 $188 $189 reversed $44 $-1 #
coedge $-1 $71 $187 $190 $191 reversed $44 $-1 #
coedge $-1 $192 $193 $71 $114 forward $194 $-1 #
edge $-1 $195 -17.708821069675835 $196 17.708821069675835 $113 $197 forward 7 unknown #
face $-1 $198 $199 $26 $-1 $200 reversed single #
loop $-1 $-1 $201 $72 #
plane-surface $-1 51.040931676425487 -9.3792997553532285 0 0 -1 0 0 0 -1 forward_v I I I I #
coedge $-1 $202 $203 $204 $205 forward $73 $-1 #
coedge $-1 $206 $75 $207 $208 reversed $47 $-1 #
coedge $-1 $75 $206 $209 $210 reversed $47 $-1 #
coedge $-1 $203 $202 $75 $122 reversed $73 $-1 #
edge $-1 $211 -17.708821069675835 $212 17.708821069675835 $121 $213 forward 7 unknown #
face $-1 $214 $215 $27 $-1 $216 reversed single #
loop $-1 $-1 $217 $76 #
plane-surface $-1 -21.259529470238341 40.599264787652963 140.25226513724454 -1 0 0 0 0.55919291073839883 0.82903756765294845 forward_v I I I I #
coedge $-1 $218 $219 $220 $221 reversed $77 $-1 #
coedge $-1 $128 $79 $222 $223 reversed $50 $-1 #
coedge $-1 $79 $127 $218 $224 reversed $50 $-1 #
coedge $-1 $220 $225 $79 $130 forward $226 $-1 #
edge $-1 $227 -17.480492613665415 $228 7.3670284127058174 $129 $229 forward 7 unknown #
loop $-1 $-1 $136 $80 #
plane-surface $-1 -29.096952401683765 -24.862160876178926 43.201712340043514 0 0.55919291073839883 0.82903756765294845 1 0 0 forward_v I I I I #
loop $-1 $-1 $230 $52 #
coedge $-1 $134 $134 $135 $231 reversed $81 $-1 #
coedge $-1 $135 $135 $134 $231 forward $83 $-1 #
coedge $-1 $136 $136 $84 $137 forward $131 $-1 #
edge $-1 $232 7.6694464301723879e-016 $232 6.2831853071796013 $136 $233 forward 7 unknown #
face $-1 $234 $235 $29 $-1 $236 forward single #
loop $-1 $-1 $237 $85 #
plane-surface $-1 23.637663228476072 -138.1236611499076 74.127755773622653 1 0 0 0 0.85716730853699208 -0.51503806187062418 forward_v I I I I #
coedge $-1 $238 $239 $240 $241 reversed $86 $-1 #
coedge $-1 $143 $88 $242 $243 reversed $56 $-1 #
coedge $-1 $88 $142 $238 $244 reversed $56 $-1 #
coedge $-1 $240 $245 $88 $145 forward $235 $-1 #
edge $-1 $246 31.281705567461906 $247 33.609164607878654 $144 $248 forward 7 unknown #
loop $-1 $-1 $151 $89 #
plane-surface $-1 31.321445078866176 -37.780125007491904 13.835278609225092 0 -0.85716730853699208 0.51503806187062418 1 0 0 forward_v I I I I #
loop $-1 $-1 $249 $58 #
coedge $-1 $149 $149 $150 $250 reversed $90 $-1 #
coedge $-1 $150 $150 $149 $250 forward $92 $-1 #
coedge $-1 $151 $151 $93 $152 forward $146 $-1 #
edge $-1 $251 3.0452700220599808e-015 $251 6.2831853071796031 $151 $252 forward 7 unknown #
loop $-1 $-1 $158 $94 #
plane-surface $-1 31.321445078866176 -37.780125007491904 13.835278609225092 0 -0.85716730853699208 0.51503806187062418 1 0 0 forward_v I I I I #
loop $-1 $-1 $253 $61 #
coedge $-1 $156 $156 $157 $254 reversed $95 $-1 #
coedge $-1 $157 $157 $156 $254 forward $97 $-1 #
coedge $-1 $158 $158 $98 $159 forward $153 $-1 #
edge $-1 $255 3.0452700220599808e-015 $255 6.2831853071796031 $158 $256 forward 7 unknown #
face $-1 $257 $258 $24 $-1 $259 reversed single #
loop $-1 $-1 $260 $99 #
plane-surface $-1 -58.532059694204534 0 0 1 0 0 0 0 -1 forward_v I I I I #
coedge $-1 $261 $171 $262 $263 forward $100 $-1 #
coedge $-1 $264 $102 $261 $265 forward $65 $-1 #
coedge $-1 $102 $264 $266 $267 forward $65 $-1 #
coedge $-1 $174 $173 $102 $167 reversed $175 $-1 #
edge $-1 $268 -37.780125007491897 $269 37.780125007491897 $166 $270 forward 7 unknown #
coedge $-1 $104 $103 $271 $272 forward $41 $-1 #
coedge $-1 $273 $274 $103 $170 reversed $258 $-1 #
edge $-1 $177 -58.532059694204534 $275 58.532059694204534 $169 $276 forward 7 unknown #
coedge $-1 $163 $277 $104 $172 reversed $100 $-1 #
edge $-1 $278 -58.532059694204534 $176 58.532059694204534 $171 $279 forward 7 unknown #
coedge $-1 $166 $105 $277 $280 forward $175 $-1 #
coedge $-1 $105 $166 $273 $281 reversed $175 $-1 #
loop $-1 $-1 $173 $257 #
vertex $-1 $106 $282 #
vertex $-1 $106 $283 #
straight-curve $-1 58.532059694204534 0 17.708821069675835 0 1 0 I I #
face $-1 $284 $285 $25 $-1 $286 forward single #
loop $-1 $-1 $287 $107 #
plane-surface $-1 0 0 -17.708821069675835 0 0 1 1 0 0 forward_v I I I I #
coedge $-1 $288 $289 $187 $290 forward $108 $-1 #
coedge $-1 $291 $110 $287 $292 reversed $69 $-1 #
coedge $-1 $110 $291 $293 $294 reversed $69 $-1 #
coedge $-1 $289 $288 $110 $186 reversed $108 $-1 #
edge $-1 $295 -17.708821069675835 $296 17.708821069675835 $185 $297 forward 7 unknown #
coedge $-1 $112 $111 $182 $290 reversed $44 $-1 #
coedge $-1 $298 $299 $111 $189 forward $180 $-1 #
edge $-1 $300 18.029337820433696 $195 33.011593855991791 $188 $301 forward 7 unknown #
coedge $-1 $302 $303 $112 $191 forward $285 $-1 #
edge $-1 $196 -33.011593855991791 $304 -18.029337820433696 $190 $305 forward 7 unknown #
coedge $-1 $306 $113 $303 $307 reversed $194 $-1 #
coedge $-1 $113 $306 $298 $308 reversed $194 $-1 #
loop $-1 $-1 $306 $284 #
vertex $-1 $308 $309 #
vertex $-1 $114 $310 #
straight-curve $-1 -58.532059694204534 -19.821921370773936 0 0 0 1 I I #
face $-1 $311 $312 $26 $-1 $313 forward single #
loop $-1 $-1 $207 $115 #
plane-surface $-1 0 0 -17.708821069675835 0 0 1 1 0 0 forward_v I I I I #
coedge $-1 $314 $315 $316 $317 reversed $116 $-1 #
coedge $-1 $121 $118 $318 $319 reversed $73 $-1 #
coedge $-1 $118 $121 $320 $321 reversed $73 $-1 #
coedge $-1 $315 $314 $118 $205 reversed $116 $-1 #
edge $-1 $322 -17.708821069675835 $323 17.708821069675835 $204 $324 forward 7 unknown #
coedge $-1 $120 $119 $325 $326 reversed $47 $-1 #
coedge $-1 $318 $327 $119 $208 forward $199 $-1 #
edge $-1 $328 -33.011593855991791 $212 -18.029337820433696 $207 $329 forward 7 unknown #
coedge $-1 $330 $320 $120 $210 forward $312 $-1 #
edge $-1 $211 18.029337820433696 $331 33.011593855991791 $209 $332 forward 7 unknown #
vertex $-1 $210 $333 #
vertex $-1 $208 $334 #
straight-curve $-1 43.549803658646439 -19.821921370773936 0 0 0 -1 I I #
face $-1 $-1 $226 $27 $-1 $335 forward single #
loop $-1 $-1 $336 $123 #
plane-surface $-1 0 37.780125007491897 0 0 -1 0 0 0 -1 forward_v I I I I #
coedge $-1 $337 $338 $339 $340 reversed $124 $-1 #
coedge $-1 $341 $126 $128 $224 forward $77 $-1 #
coedge $-1 $126 $341 $337 $342 forward $77 $-1 #
coedge $-1 $339 $129 $126 $221 forward $226 $-1 #
edge $-1 $228 -22.385899132287307 $343 -6.7110532693964586 $220 $344 forward 7 unknown #
coedge $-1 $345 $346 $127 $223 forward $215 $-1 #
edge $-1 $347 -69.177176370578678 $227 -52.417311498946432 $222 $348 forward 7 unknown #
edge $-1 $228 45.588723999925207 $347 75.560250014983779 $128 $349 forward 7 unknown #
coedge $-1 $129 $339 $345 $350 forward $226 $-1 #
loop $-1 $-1 $339 $214 #
vertex $-1 $223 $351 #
vertex $-1 $130 $352 #
straight-curve $-1 -36.934375333129189 20.299632393826482 17.708821069675835 0 -1 0 I I #
coedge $-1 $230 $230 $-1 $353 reversed $133 $-1 #
edge $-1 $354 0 $354 6.2831853071796004 $134 $355 forward 7 unknown #
vertex $-1 $137 $356 #
ellipse-curve $-1 -29.096952401683765 25.356364494306284 9.3288886338597088 0 0.55919291073839883 0.82903756765294845 2.5 0 0 1 I I #
face $-1 $-1 $357 $29 $-1 $358 reversed single #
loop $-1 $-1 $144 $138 #
plane-surface $-1 0 0 17.708821069675835 0 0 1 1 0 0 forward_v I I I I #
coedge $-1 $359 $360 $361 $362 reversed $139 $-1 #
coedge $-1 $363 $141 $143 $244 forward $86 $-1 #
coedge $-1 $141 $363 $359 $364 forward $86 $-1 #
coedge $-1 $361 $144 $141 $241 forward $235 $-1 #
edge $-1 $247 -23.344504389823193 $365 -7.9769406890429835 $240 $366 forward 7 unknown #
coedge $-1 $367 $368 $142 $243 forward $357 $-1 #
edge $-1 $369 -23.22859927758622 $246 -19.355056817135491 $242 $370 forward 7 unknown #
edge $-1 $247 -4.5190039585878319 $369 -1.431801061223127e-014 $143 $371 forward 7 unknown #
coedge $-1 $144 $361 $367 $372 forward $235 $-1 #
vertex $-1 $145 $373 #
vertex $-1 $145 $374 #
straight-curve $-1 39.005226929256281 -69.061830574953802 17.708821069675835 0 1 0 I I #
coedge $-1 $249 $249 $-1 $375 reversed $148 $-1 #
edge $-1 $376 0 $376 6.2831853071796004 $149 $377 forward 7 unknown #
vertex $-1 $152 $378 #
ellipse-curve $-1 28.028395714413278 -36.616395487283526 15.772049839450469 0 -0.85716730853699208 0.51503806187062418 0.5 0 0 1 I I #
coedge $-1 $253 $253 $-1 $379 reversed $155 $-1 #
edge $-1 $380 0 $380 6.2831853071796004 $156 $381 forward 7 unknown #
vertex $-1 $159 $382 #
ellipse-curve $-1 34.614494443319089 -36.616395487283526 15.772049839450469 0 -0.85716730853699208 0.51503806187062418 0.5 0 0 1 I I #
face $-1 $-1 $175 $24 $-1 $383 reversed single #
loop $-1 $-1 $273 $160 #
plane-surface $-1 0 37.780125007491897 0 0 -1 0 0 0 -1 forward_v I I I I #
coedge $-1 $384 $271 $274 $385 forward $161 $-1 #
coedge $-1 $277 $163 $164 $265 reversed $100 $-1 #
coedge $-1 $271 $384 $163 $263 reversed $161 $-1 #
edge $-1 $278 -17.708821069675835 $386 17.708821069675835 $262 $387 forward 7 unknown #
coedge $-1 $165 $164 $384 $388 forward $65 $-1 #
edge $-1 $269 -58.532059694204534 $386 58.532059694204534 $261 $389 forward 7 unknown #
coedge $-1 $274 $273 $165 $267 reversed $258 $-1 #
edge $-1 $390 -58.532059694204534 $268 58.532059694204534 $266 $391 forward 7 unknown #
vertex $-1 $167 $392 #
vertex $-1 $280 $393 #
straight-curve $-1 58.532059694204534 0 -17.708821069675835 0 -1 0 I I #
coedge $-1 $260 $262 $168 $272 reversed $161 $-1 #
edge $-1 $275 -37.780125007491897 $278 37.780125007491897 $271 $394 forward 7 unknown #
coedge $-1 $266 $169 $174 $281 forward $258 $-1 #
coedge $-1 $169 $266 $260 $385 reversed $258 $-1 #
vertex $-1 $170 $395 #
straight-curve $-1 0 37.780125007491897 17.708821069675835 -1 0 0 I I #
coedge $-1 $171 $261 $173 $280 reversed $100 $-1 #
vertex $-1 $272 $396 #
straight-curve $-1 0 -37.780125007491897 17.708821069675835 1 0 0 I I #
edge $-1 $176 -17.708821069675835 $269 17.708821069675835 $173 $397 forward 7 unknown #
edge $-1 $177 -17.708821069675835 $268 17.708821069675835 $174 $398 forward 7 unknown #
point $-1 58.532059694204534 -37.780125007491897 17.708821069675835 #
point $-1 58.532059694204534 37.780125007491897 17.708821069675835 #
face $-1 $-1 $194 $25 $-1 $399 reversed single #
loop $-1 $-1 $293 $179 #
plane-surface $-1 0 0 17.708821069675835 0 0 1 1 0 0 forward_v I I I I #
coedge $-1 $299 $298 $183 $292 forward $180 $-1 #
coedge $-1 $185 $182 $299 $400 reversed $108 $-1 #
coedge $-1 $182 $185 $302 $401 reversed $108 $-1 #
edge $-1 $304 -17.708821069675835 $300 17.708821069675835 $182 $402 forward 7 unknown #
coedge $-1 $184 $183 $306 $403 reversed $69 $-1 #
edge $-1 $404 -33.011593855991791 $296 -18.029337820433696 $287 $405 forward 7 unknown #
coedge $-1 $303 $302 $184 $294 forward $285 $-1 #
edge $-1 $295 18.029337820433696 $406 33.011593855991791 $293 $407 forward 7 unknown #
vertex $-1 $294 $408 #
vertex $-1 $292 $409 #
straight-curve $-1 -43.549803658646439 -9.3792997553532285 0 0 0 -1 I I #
coedge $-1 $287 $188 $193 $308 forward $180 $-1 #
coedge $-1 $188 $287 $288 $400 forward $180 $-1 #
vertex $-1 $189 $410 #
straight-curve $-1 -25.520465838212743 -19.821921370773936 -17.708821069675835 -1 0 0 I I #
coedge $-1 $293 $190 $289 $401 forward $285 $-1 #
coedge $-1 $190 $293 $192 $307 forward $285 $-1 #
vertex $-1 $191 $411 #
straight-curve $-1 -25.520465838212743 -19.821921370773936 17.708821069675835 1 0 0 I I #
coedge $-1 $193 $192 $291 $403 forward $194 $-1 #
edge $-1 $406 9.3792997553532285 $196 19.821921370773936 $192 $412 forward 7 unknown #
edge $-1 $195 -19.821921370773936 $404 -9.3792997553532285 $193 $413 forward 7 unknown #
point $-1 -58.532059694204534 -19.821921370773936 -17.708821069675835 #
point $-1 -58.532059694204534 -19.821921370773936 17.708821069675835 #
face $-1 $-1 $414 $26 $-1 $415 reversed single #
loop $-1 $-1 $209 $198 #
plane-surface $-1 0 0 17.708821069675835 0 0 1 1 0 0 forward_v I I I I #
coedge $-1 $204 $201 $416 $417 reversed $116 $-1 #
coedge $-1 $201 $204 $418 $419 reversed $116 $-1 #
coedge $-1 $420 $421 $201 $317 forward $414 $-1 #
edge $-1 $422 -17.708821069675835 $423 17.708821069675835 $316 $424 forward 7 unknown #
coedge $-1 $416 $207 $202 $319 forward $199 $-1 #
edge $-1 $212 -12.521616089242144 $323 -2.078994473821437 $318 $425 forward 7 unknown #
coedge $-1 $209 $418 $203 $321 forward $312 $-1 #
edge $-1 $322 2.078994473821437 $211 12.521616089242144 $320 $426 forward 7 unknown #
vertex $-1 $321 $427 #
vertex $-1 $319 $428 #
straight-curve $-1 43.549803658646439 -9.3792997553532285 0 0 0 -1 I I #
coedge $-1 $421 $420 $206 $326 forward $414 $-1 #
edge $-1 $331 -17.708821069675835 $328 17.708821069675835 $325 $429 forward 7 unknown #
coedge $-1 $207 $416 $421 $430 forward $199 $-1 #
vertex $-1 $326 $431 #
straight-curve $-1 25.520465838212743 -19.821921370773936 -17.708821069675835 -1 0 0 I I #
coedge $-1 $418 $209 $420 $432 forward $312 $-1 #
vertex $-1 $432 $433 #
straight-curve $-1 25.520465838212743 -19.821921370773936 17.708821069675835 1 0 0 I I #
point $-1 43.549803658646439 -19.821921370773936 17.708821069675835 #
point $-1 43.549803658646439 -19.821921370773936 -17.708821069675835 #
plane-surface $-1 0 0 17.708821069675835 0 0 1 1 0 0 forward_v I I I I #
coedge $-1 $346 $345 $338 $434 forward $215 $-1 #
coedge $-1 $338 $217 $219 $342 reversed $124 $-1 #
coedge $-1 $217 $337 $336 $434 reversed $124 $-1 #
coedge $-1 $225 $220 $217 $340 forward $226 $-1 #
edge $-1 $343 -7.3670284127058174 $435 17.480492613665415 $339 $436 forward 7 unknown #
coedge $-1 $219 $218 $346 $437 reversed $77 $-1 #
edge $-1 $438 -75.560250014983779 $343 -45.588723999925207 $337 $439 forward 7 unknown #
vertex $-1 $221 $440 #
straight-curve $-1 -14.548476200841883 12.932603981120668 17.708821069675835 1 0 0 I I #
coedge $-1 $336 $222 $225 $350 reversed $215 $-1 #
coedge $-1 $222 $336 $341 $437 forward $215 $-1 #
vertex $-1 $223 $441 #
straight-curve $-1 -36.934375333129189 37.780125007491897 70.126132568622268 0 0 1 I I #
straight-curve $-1 -36.934375333129189 -24.862160876178926 43.201712340043514 0 0.82903756765294845 -0.55919291073839883 I I #
edge $-1 $435 21.259529470238341 $227 36.934375333129189 $345 $442 forward 7 unknown #
point $-1 -36.934375333129189 37.780125007491897 17.708821069675835 #
point $-1 -36.934375333129189 12.932603981120664 17.708821069675835 #
edge $-1 $443 1 $443 0 $230 $-1 forward 7 unknown #
vertex $-1 $231 $444 #
ellipse-curve $-1 -29.096952401683765 20.794395106925329 2.5654910084723737 0 0.55919291073839883 0.82903756765294845 2.5 0 0 1 I I #
point $-1 -26.596952401683765 25.356364494306291 9.3288886338597159 #
loop $-1 $-1 $242 $234 #
plane-surface $-1 0 -37.780125007491897 0 0 1 0 0 0 1 forward_v I I I I #
coedge $-1 $360 $237 $239 $364 reversed $139 $-1 #
coedge $-1 $237 $359 $445 $446 reversed $139 $-1 #
coedge $-1 $245 $240 $237 $362 forward $235 $-1 #
edge $-1 $365 -33.609164607878654 $447 -31.281705567461906 $361 $448 forward 7 unknown #
coedge $-1 $239 $238 $368 $449 reversed $86 $-1 #
edge $-1 $450 1.431801061223127e-014 $365 4.5190039585878319 $359 $451 forward 7 unknown #
vertex $-1 $241 $452 #
straight-curve $-1 15.660722539433088 -35.452665967075149 17.708821069675835 -1 0 0 I I #
coedge $-1 $445 $242 $245 $372 reversed $357 $-1 #
coedge $-1 $242 $445 $363 $449 forward $357 $-1 #
vertex $-1 $243 $453 #
straight-curve $-1 39.005226929256281 -37.780125007491897 37.063877886811326 0 0 1 I I #
straight-curve $-1 39.005226929256281 -37.780125007491904 13.835278609225092 0 -0.51503806187062418 -0.85716730853699208 I I #
edge $-1 $447 23.637663228476072 $246 39.005226929256281 $367 $454 forward 7 unknown #
point $-1 39.005226929256281 -37.780125007491897 17.708821069675835 #
point $-1 39.005226929256281 -35.452665967075149 17.708821069675835 #
edge $-1 $455 1 $455 0 $249 $-1 forward 7 unknown #
vertex $-1 $250 $456 #
ellipse-curve $-1 28.028395714413278 -35.759228178746532 15.257011777579848 0 -0.85716730853699208 0.51503806187062418 0.5 0 0 1 I I #
point $-1 28.528395714413278 -36.616395487283526 15.772049839450471 #
edge $-1 $457 1 $457 0 $253 $-1 forward 7 unknown #
vertex $-1 $254 $458 #
ellipse-curve $-1 34.614494443319089 -35.759228178746532 15.257011777579848 0 -0.85716730853699208 0.51503806187062418 0.5 0 0 1 I I #
point $-1 35.114494443319089 -36.616395487283526 15.772049839450471 #
plane-surface $-1 58.532059694204534 0 0 -1 0 0 0 0 1 forward_v I I I I #
coedge $-1 $262 $260 $264 $388 reversed $161 $-1 #
edge $-1 $275 -17.708821069675835 $390 17.708821069675835 $274 $459 forward 7 unknown #
vertex $-1 $388 $460 #
straight-curve $-1 -58.532059694204534 -37.780125007491897 0 0 0 -1 I I #
edge $-1 $386 -37.780125007491897 $390 37.780125007491897 $384 $461 forward 7 unknown #
straight-curve $-1 0 -37.780125007491897 -17.708821069675835 -1 0 0 I I #
vertex $-1 $267 $462 #
straight-curve $-1 0 37.780125007491897 -17.708821069675835 1 0 0 I I #
point $-1 58.532059694204534 37.780125007491897 -17.708821069675835 #
point $-1 58.532059694204534 -37.780125007491897 -17.708821069675835 #
straight-curve $-1 -58.532059694204534 0 17.708821069675835 0 -1 0 I I #
point $-1 -58.532059694204534 37.780125007491897 17.708821069675835 #
point $-1 -58.532059694204534 -37.780125007491897 17.708821069675835 #
straight-curve $-1 58.532059694204534 -37.780125007491897 0 0 0 -1 I I #
straight-curve $-1 58.532059694204534 37.780125007491897 0 0 0 -1 I I #
plane-surface $-1 -58.532059694204534 0 0 1 0 0 0 0 -1 forward_v I I I I #
edge $-1 $296 2.078994473821437 $300 12.521616089242144 $299 $463 forward 7 unknown #
edge $-1 $304 -12.521616089242144 $295 -2.078994473821437 $302 $464 forward 7 unknown #
straight-curve $-1 -43.549803658646439 -19.821921370773936 0 0 0 -1 I I #
edge $-1 $406 -17.708821069675835 $404 17.708821069675835 $306 $465 forward 7 unknown #
vertex $-1 $403 $466 #
straight-curve $-1 -25.520465838212743 -9.3792997553532285 -17.708821069675835 1 0 0 I I #
vertex $-1 $307 $467 #
straight-curve $-1 -25.520465838212743 -9.3792997553532285 17.708821069675835 -1 0 0 I I #
point $-1 -43.549803658646439 -9.3792997553532285 17.708821069675835 #
point $-1 -43.549803658646439 -9.3792997553532285 -17.708821069675835 #
point $-1 -43.549803658646439 -19.821921370773936 -17.708821069675835 #
point $-1 -43.549803658646439 -19.821921370773936 17.708821069675835 #
straight-curve $-1 -58.532059694204534 0 17.708821069675835 0 -1 0 I I #
straight-curve $-1 -58.532059694204534 0 -17.708821069675835 0 1 0 I I #
loop $-1 $-1 $325 $311 #
plane-surface $-1 58.532059694204534 0 0 -1 0 0 0 0 1 forward_v I I I I #
coedge $-1 $327 $318 $314 $417 forward $199 $-1 #
edge $-1 $323 18.029337820433696 $422 33.011593855991791 $416 $468 forward 7 unknown #
coedge $-1 $320 $330 $315 $419 forward $312 $-1 #
edge $-1 $423 -33.011593855991791 $322 -18.029337820433696 $418 $469 forward 7 unknown #
coedge $-1 $325 $316 $330 $432 reversed $414 $-1 #
coedge $-1 $316 $325 $327 $430 reversed $414 $-1 #
vertex $-1 $430 $470 #
vertex $-1 $317 $471 #
straight-curve $-1 58.532059694204534 -9.3792997553532285 0 0 0 1 I I #
straight-curve $-1 43.549803658646439 -7.3003052815317915 -17.708821069675835 0 1 0 I I #
straight-curve $-1 43.549803658646439 -7.3003052815317915 17.708821069675835 0 -1 0 I I #
point $-1 43.549803658646439 -9.3792997553532285 17.708821069675835 #
point $-1 43.549803658646439 -9.3792997553532285 -17.708821069675835 #
straight-curve $-1 58.532059694204534 -19.821921370773936 0 0 0 -1 I I #
edge $-1 $422 9.3792997553532285 $328 19.821921370773936 $421 $472 forward 7 unknown #
point $-1 58.532059694204534 -19.821921370773936 -17.708821069675835 #
edge $-1 $331 -19.821921370773936 $423 -9.3792997553532285 $420 $473 forward 7 unknown #
point $-1 58.532059694204534 -19.821921370773936 17.708821069675835 #
edge $-1 $435 52.417311498946432 $438 69.177176370578678 $336 $474 forward 7 unknown #
vertex $-1 $350 $475 #
straight-curve $-1 -21.259529470238341 20.299632393826482 17.708821069675835 0 1 0 I I #
edge $-1 $438 6.7110532693964586 $347 22.385899132287307 $346 $476 forward 7 unknown #
vertex $-1 $437 $477 #
straight-curve $-1 -21.259529470238341 -24.862160876178926 43.201712340043514 0 -0.82903756765294845 0.55919291073839883 I I #
point $-1 -21.259529470238341 12.932603981120664 17.708821069675835 #
point $-1 -36.934375333129189 37.780125007491897 0.94895619804358233 #
straight-curve $-1 0 37.780125007491897 17.708821069675835 -1 0 0 I I #
vertex $-1 $353 $478 #
point $-1 -26.596952401683765 20.794395106925329 2.5654910084723737 #
coedge $-1 $368 $367 $360 $446 forward $357 $-1 #
edge $-1 $447 19.355056817135491 $450 23.22859927758622 $445 $479 forward 7 unknown #
vertex $-1 $372 $480 #
straight-curve $-1 23.637663228476072 -69.061830574953802 17.708821069675835 0 -1 0 I I #
edge $-1 $450 7.9769406890429835 $369 23.344504389823193 $368 $481 forward 7 unknown #
vertex $-1 $449 $482 #
straight-curve $-1 23.637663228476072 -37.780125007491904 13.835278609225092 0 0.51503806187062418 0.85716730853699208 I I #
point $-1 23.637663228476072 -35.452665967075149 17.708821069675835 #
point $-1 39.005226929256281 -37.780125007491897 13.835278609225105 #
straight-curve $-1 0 -37.780125007491897 17.708821069675835 1 0 0 I I #
vertex $-1 $375 $483 #
point $-1 28.528395714413278 -35.759228178746532 15.257011777579848 #
vertex $-1 $379 $484 #
point $-1 35.114494443319089 -35.759228178746532 15.257011777579848 #
straight-curve $-1 -58.532059694204534 37.780125007491897 0 0 0 -1 I I #
point $-1 -58.532059694204534 -37.780125007491897 -17.708821069675835 #
straight-curve $-1 -58.532059694204534 0 -17.708821069675835 0 1 0 I I #
point $-1 -58.532059694204534 37.780125007491897 -17.708821069675835 #
straight-curve $-1 -43.549803658646439 -7.3003052815317915 -17.708821069675835 0 -1 0 I I #
straight-curve $-1 -43.549803658646439 -7.3003052815317915 17.708821069675835 0 1 0 I I #
straight-curve $-1 -58.532059694204534 -9.3792997553532285 0 0 0 -1 I I #
point $-1 -58.532059694204534 -9.3792997553532285 -17.708821069675835 #
point $-1 -58.532059694204534 -9.3792997553532285 17.708821069675835 #
straight-curve $-1 25.520465838212743 -9.3792997553532285 -17.708821069675835 1 0 0 I I #
straight-curve $-1 25.520465838212743 -9.3792997553532285 17.708821069675835 -1 0 0 I I #
point $-1 58.532059694204534 -9.3792997553532285 -17.708821069675835 #
point $-1 58.532059694204534 -9.3792997553532285 17.708821069675835 #
straight-curve $-1 58.532059694204534 0 -17.708821069675835 0 -1 0 I I #
straight-curve $-1 58.532059694204534 0 17.708821069675835 0 1 0 I I #
straight-curve $-1 -21.259529470238341 37.780125007491897 70.126132568622268 0 0 -1 I I #
point $-1 -21.259529470238341 37.780125007491897 17.708821069675835 #
straight-curve $-1 -14.548476200841883 37.780125007491904 0.94895619804358233 -1 0 0 I I #
point $-1 -21.259529470238341 37.780125007491897 0.94895619804358233 #
point $-1 -29.096952401683765 19.396412830079335 0.49289708934000243 #
straight-curve $-1 23.637663228476072 -37.780125007491897 37.063877886811326 0 0 -1 I I #
point $-1 23.637663228476072 -37.780125007491897 17.708821069675835 #
straight-curve $-1 15.660722539433088 -37.780125007491897 13.835278609225103 1 0 0 I I #
point $-1 23.637663228476072 -37.780125007491897 13.835278609225105 #
point $-1 28.028395714413278 -35.330644524478039 14.999492746644535 #
point $-1 34.614494443319089 -35.330644524478039 14.999492746644535 #
End-of-ACIS-data 