500 0 8 0           
7 Unknown 11 ACIS 5.0 NT 24 Fri Mar 26 02:49:15 1999 
-1 9.9999999999999995e-007 1e-010 
body $-1 $8 $-1 $9 #
body $-1 $10 $-1 $11 #
body $-1 $12 $-1 $13 #
body $-1 $14 $-1 $15 #
body $-1 $16 $-1 $17 #
body $-1 $18 $-1 $19 #
body $-1 $20 $-1 $21 #
body $-1 $22 $-1 $23 #
lump $-1 $-1 $24 $0 #
transform $-1 1 0 0 0 1 0 0 0 1 74.219794305246126 35.85051406495203 13.428160320504448 1 rotate no_reflect no_shear #
lump $-1 $-1 $25 $1 #
transform $-1 0.60181501223851219 0 -0.79863551827123203 0 1 0 0.79863551827123203 0 0.60181501223851219 177.65554355609808 5.9637434634003883 229.24384454019162 1 rotate no_reflect no_shear #
lump $-1 $-1 $26 $2 #
transform $-1 0.60181501223851219 0 -0.79863551827123203 0 -1 0 -0.79863551827123203 0 -0.60181501223851219 144.03541838214051 5.9637434634003883 22.350239163283703 1 rotate no_reflect no_shear #
lump $-1 $-1 $27 $3 #
transform $-1 0.60181501223851219 0 -0.79863551827123203 0 1 0 0.79863551827123203 0 0.60181501223851219 177.65554355609808 41.814257528352421 229.24384454019162 1 rotate no_reflect no_shear #
lump $-1 $-1 $28 $4 #
transform $-1 0.60181501223851219 0 -0.79863551827123203 0 -1 0 -0.79863551827123203 0 -0.60181501223851219 144.03541838214051 41.814257528352421 22.350239163283703 1 rotate no_reflect no_shear #
lump $-1 $-1 $29 $5 #
transform $-1 0.66913059716165679 0 0.74314483375859142 0 1 0 -0.74314483375859142 0 0.66913059716165679 -110.31211340113795 12.322329590169447 123.0875886451489 1 rotate no_reflect no_shear #
lump $-1 $-1 $30 $6 #
transform $-1 0.66913059716165679 0 0.74314483375859142 0 -1 0 0.74314483375859142 0 -0.66913059716165679 2.7381646118258267 8.7886385633321016 24.098042333777826 1 rotate no_reflect no_shear #
lump $-1 $-1 $31 $7 #
transform $-1 0.66913059716165679 0 0.74314483375859142 0 -1 0 0.74314483375859142 0 -0.66913059716165679 2.7381646118258267 15.85602061700679 24.098042333777826 1 rotate no_reflect no_shear #
shell $-1 $-1 $-1 $32 $-1 $8 #
shell $-1 $-1 $-1 $33 $-1 $10 #
shell $-1 $-1 $-1 $34 $-1 $12 #
shell $-1 $-1 $-1 $35 $-1 $14 #
shell $-1 $-1 $-1 $36 $-1 $16 #
shell $-1 $-1 $-1 $37 $-1 $18 #
shell $-1 $-1 $-1 $38 $-1 $20 #
shell $-1 $-1 $-1 $39 $-1 $22 #
face $-1 $40 $41 $24 $-1 $42 forward single #
face $-1 $43 $44 $25 $-1 $45 forward single #
face $-1 $46 $47 $26 $-1 $48 forward single #
face $-1 $49 $50 $27 $-1 $51 forward single #
face $-1 $52 $53 $28 $-1 $54 forward single #
face $-1 $55 $56 $29 $-1 $57 forward single #
face $-1 $58 $59 $30 $-1 $60 forward single #
face $-1 $61 $62 $31 $-1 $63 forward single #
face $-1 $64 $65 $24 $-1 $66 reversed single #
loop $-1 $-1 $67 $32 #
plane-surface $-1 0 0 13.428160320504448 0 0 1 1 0 0 forward_v I I I I #
face $-1 $68 $69 $25 $-1 $70 reversed single #
loop $-1 $-1 $71 $33 #
plane-surface $-1 0 0 148.43958861049225 0 0 1 1 0 0 forward_v I I I I #
face $-1 $72 $73 $26 $-1 $74 forward single #
loop $-1 $75 $76 $34 #
cone-surface $-1 0 0 -1.7111575670644257 0 0 1 1 0 0 1 I I 0 1 1 forward I I I I #
face $-1 $77 $78 $27 $-1 $79 reversed single #
loop $-1 $-1 $80 $35 #
plane-surface $-1 0 0 148.43958861049225 0 0 1 1 0 0 forward_v I I I I #
face $-1 $81 $82 $28 $-1 $83 forward single #
loop $-1 $84 $85 $36 #
cone-surface $-1 0 0 -1.7111575670644257 0 0 1 1 0 0 1 I I 0 1 1 forward I I I I #
face $-1 $86 $87 $29 $-1 $88 reversed single #
loop $-1 $-1 $89 $37 #
plane-surface $-1 0 0 148.43958861049225 0 0 1 1 0 0 forward_v I I I I #
face $-1 $90 $91 $30 $-1 $92 forward single #
loop $-1 $93 $94 $38 #
cone-surface $-1 0 0 -1.0300378429517494 0 0 1 0.5 0 0 1 I I 0 1 0.5 forward I I I I #
face $-1 $95 $96 $31 $-1 $97 forward single #
loop $-1 $98 $99 $39 #
cone-surface $-1 0 0 -1.0300378429517494 0 0 1 0.5 0 0 1 I I 0 1 0.5 forward I I I I #
face $-1 $100 $101 $24 $-1 $102 reversed single #
loop $-1 $-1 $103 $40 #
plane-surface $-1 0 0 -13.428160320504448 0 0 1 1 0 0 forward_v I I I I #
coedge $-1 $104 $105 $106 $107 forward $41 $-1 #
face $-1 $108 $109 $25 $-1 $110 reversed single #
loop $-1 $-1 $111 $43 #
plane-surface $-1 0 0 -148.43958861049225 0 0 1 1 0 0 forward_v I I I I #
coedge $-1 $112 $113 $114 $115 forward $44 $-1 #
face $-1 $-1 $116 $26 $-1 $117 forward single #
loop $-1 $-1 $118 $46 #
plane-surface $-1 0 0 -2.9223151341288496 0 0 -1 -1 0 0 forward_v I I I I #
loop $-1 $-1 $119 $34 #
coedge $-1 $76 $76 $118 $120 reversed $47 $-1 #
face $-1 $121 $122 $27 $-1 $123 reversed single #
loop $-1 $-1 $124 $49 #
plane-surface $-1 0 0 -148.43958861049225 0 0 1 1 0 0 forward_v I I I I #
coedge $-1 $125 $126 $127 $128 forward $50 $-1 #
face $-1 $-1 $129 $28 $-1 $130 forward single #
loop $-1 $-1 $131 $52 #
plane-surface $-1 0 0 -2.9223151341288496 0 0 -1 -1 0 0 forward_v I I I I #
loop $-1 $-1 $132 $36 #
coedge $-1 $85 $85 $131 $133 reversed $53 $-1 #
face $-1 $134 $135 $29 $-1 $136 reversed single #
loop $-1 $-1 $137 $55 #
plane-surface $-1 0 0 -148.43958861049225 0 0 1 1 0 0 forward_v I I I I #
coedge $-1 $138 $139 $140 $141 forward $56 $-1 #
face $-1 $-1 $142 $30 $-1 $143 forward single #
loop $-1 $-1 $144 $58 #
plane-surface $-1 0 0 -1.8100756859034988 0 0 -1 -1 0 0 forward_v I I I I #
loop $-1 $-1 $145 $38 #
coedge $-1 $94 $94 $144 $146 reversed $59 $-1 #
face $-1 $-1 $147 $31 $-1 $148 forward single #
loop $-1 $-1 $149 $61 #
plane-surface $-1 0 0 -1.8100756859034988 0 0 -1 -1 0 0 forward_v I I I I #
loop $-1 $-1 $150 $39 #
coedge $-1 $99 $99 $149 $151 reversed $62 $-1 #
face $-1 $152 $153 $24 $-1 $154 reversed single #
loop $-1 $-1 $155 $64 #
plane-surface $-1 0 -35.85051406495203 0 0 1 0 0 0 1 forward_v I I I I #
coedge $-1 $156 $157 $158 $159 forward $65 $-1 #
coedge $-1 $160 $67 $161 $162 forward $41 $-1 #
coedge $-1 $67 $160 $163 $164 forward $41 $-1 #
coedge $-1 $165 $166 $67 $107 reversed $167 $-1 #
edge $-1 $168 -35.85051406495203 $169 35.85051406495203 $106 $170 forward 7 unknown #
face $-1 $171 $172 $25 $-1 $173 reversed single #
loop $-1 $-1 $174 $68 #
plane-surface $-1 0 -5.9637434634003883 0 0 1 0 0 0 1 forward_v I I I I #
coedge $-1 $175 $176 $177 $178 forward $69 $-1 #
coedge $-1 $179 $71 $180 $181 forward $44 $-1 #
coedge $-1 $71 $179 $182 $183 forward $44 $-1 #
coedge $-1 $184 $185 $71 $115 reversed $186 $-1 #
edge $-1 $187 -5.9637434634003883 $188 5.9637434634003883 $114 $189 forward 7 unknown #
loop $-1 $190 $191 $72 #
cone-surface $-1 0 0 0 0 0 1 0.5 0 0 1 I I -0.70710678118654746 0.70710678118654746 0.5 forward I I I I #
coedge $-1 $118 $118 $76 $120 forward $73 $-1 #
coedge $-1 $119 $119 $191 $192 forward $75 $-1 #
edge $-1 $193 0 $193 6.2831853071796004 $118 $194 forward 7 unknown #
face $-1 $195 $196 $27 $-1 $197 reversed single #
loop $-1 $-1 $198 $77 #
plane-surface $-1 0 -5.9637434634003883 0 0 1 0 0 0 1 forward_v I I I I #
coedge $-1 $199 $200 $201 $202 forward $78 $-1 #
coedge $-1 $203 $80 $204 $205 forward $50 $-1 #
coedge $-1 $80 $203 $206 $207 forward $50 $-1 #
coedge $-1 $208 $209 $80 $128 reversed $210 $-1 #
edge $-1 $211 -5.9637434634003883 $212 5.9637434634003883 $127 $213 forward 7 unknown #
loop $-1 $214 $215 $81 #
cone-surface $-1 0 0 0 0 0 1 0.5 0 0 1 I I -0.70710678118654746 0.70710678118654746 0.5 forward I I I I #
coedge $-1 $131 $131 $85 $133 forward $82 $-1 #
coedge $-1 $132 $132 $215 $216 forward $84 $-1 #
edge $-1 $217 0 $217 6.2831853071796004 $131 $218 forward 7 unknown #
face $-1 $219 $220 $29 $-1 $221 reversed single #
loop $-1 $-1 $222 $86 #
plane-surface $-1 0 -8.2452790626204706 0 0 1 0 0 0 1 forward_v I I I I #
coedge $-1 $223 $224 $225 $226 forward $87 $-1 #
coedge $-1 $227 $89 $228 $229 forward $56 $-1 #
coedge $-1 $89 $227 $230 $231 forward $56 $-1 #
coedge $-1 $232 $233 $89 $141 reversed $234 $-1 #
edge $-1 $235 -8.2452790626204706 $236 8.2452790626204706 $140 $237 forward 7 unknown #
loop $-1 $238 $239 $90 #
cone-surface $-1 0 0 0 0 0 1 0.25 0 0 1 I I -0.70710678118654746 0.70710678118654746 0.25 forward I I I I #
coedge $-1 $144 $144 $94 $146 forward $91 $-1 #
coedge $-1 $145 $145 $239 $240 forward $93 $-1 #
edge $-1 $241 0 $241 6.2831853071796004 $144 $242 forward 7 unknown #
loop $-1 $243 $244 $95 #
cone-surface $-1 0 0 0 0 0 1 0.25 0 0 1 I I -0.70710678118654746 0.70710678118654746 0.25 forward I I I I #
coedge $-1 $149 $149 $99 $151 forward $96 $-1 #
coedge $-1 $150 $150 $244 $245 forward $98 $-1 #
edge $-1 $246 0 $246 6.2831853071796004 $149 $247 forward 7 unknown #
face $-1 $248 $249 $24 $-1 $250 reversed single #
loop $-1 $-1 $251 $100 #
plane-surface $-1 -74.219794305246126 0 0 1 0 0 0 0 -1 forward_v I I I I #
coedge $-1 $252 $163 $253 $254 forward $101 $-1 #
coedge $-1 $255 $103 $252 $256 forward $65 $-1 #
coedge $-1 $103 $255 $257 $258 forward $65 $-1 #
coedge $-1 $166 $165 $103 $159 reversed $167 $-1 #
edge $-1 $259 -35.85051406495203 $260 35.85051406495203 $158 $261 forward 7 unknown #
coedge $-1 $105 $104 $262 $263 forward $41 $-1 #
coedge $-1 $264 $265 $104 $162 reversed $249 $-1 #
edge $-1 $169 -74.219794305246126 $266 74.219794305246126 $161 $267 forward 7 unknown #
coedge $-1 $155 $268 $105 $164 reversed $101 $-1 #
edge $-1 $269 -74.219794305246126 $168 74.219794305246126 $163 $270 forward 7 unknown #
coedge $-1 $158 $106 $268 $271 forward $167 $-1 #
coedge $-1 $106 $158 $264 $272 reversed $167 $-1 #
loop $-1 $-1 $165 $248 #
vertex $-1 $107 $273 #
vertex $-1 $107 $274 #
straight-curve $-1 74.219794305246126 0 13.428160320504448 0 1 0 I I #
face $-1 $275 $276 $25 $-1 $277 reversed single #
loop $-1 $-1 $278 $108 #
plane-surface $-1 -296.8791772209845 0 0 1 0 0 0 0 -1 forward_v I I I I #
coedge $-1 $279 $182 $280 $281 forward $109 $-1 #
coedge $-1 $282 $111 $279 $283 forward $69 $-1 #
coedge $-1 $111 $282 $284 $285 forward $69 $-1 #
coedge $-1 $185 $184 $111 $178 reversed $186 $-1 #
edge $-1 $286 -5.9637434634003883 $287 5.9637434634003883 $177 $288 forward 7 unknown #
coedge $-1 $113 $112 $289 $290 forward $44 $-1 #
coedge $-1 $291 $292 $112 $181 reversed $276 $-1 #
edge $-1 $188 -296.8791772209845 $293 296.8791772209845 $180 $294 forward 7 unknown #
coedge $-1 $174 $295 $113 $183 reversed $109 $-1 #
edge $-1 $296 -296.8791772209845 $187 296.8791772209845 $182 $297 forward 7 unknown #
coedge $-1 $177 $114 $295 $298 forward $186 $-1 #
coedge $-1 $114 $177 $291 $299 reversed $186 $-1 #
loop $-1 $-1 $184 $275 #
vertex $-1 $115 $300 #
vertex $-1 $115 $301 #
straight-curve $-1 296.8791772209845 0 148.43958861049225 0 1 0 I I #
loop $-1 $-1 $302 $72 #
coedge $-1 $191 $191 $119 $192 reversed $116 $-1 #
edge $-1 $303 0 $303 6.2831853071796004 $191 $304 forward 7 unknown #
vertex $-1 $120 $305 #
ellipse-curve $-1 0 0 -2.9223151341288496 0 0 -1 1 0 0 1 I I #
face $-1 $306 $307 $27 $-1 $308 reversed single #
loop $-1 $-1 $309 $121 #
plane-surface $-1 -296.8791772209845 0 0 1 0 0 0 0 -1 forward_v I I I I #
coedge $-1 $310 $206 $311 $312 forward $122 $-1 #
coedge $-1 $313 $124 $310 $314 forward $78 $-1 #
coedge $-1 $124 $313 $315 $316 forward $78 $-1 #
coedge $-1 $209 $208 $124 $202 reversed $210 $-1 #
edge $-1 $317 -5.9637434634003883 $318 5.9637434634003883 $201 $319 forward 7 unknown #
coedge $-1 $126 $125 $320 $321 forward $50 $-1 #
coedge $-1 $322 $323 $125 $205 reversed $307 $-1 #
edge $-1 $212 -296.8791772209845 $324 296.8791772209845 $204 $325 forward 7 unknown #
coedge $-1 $198 $326 $126 $207 reversed $122 $-1 #
edge $-1 $327 -296.8791772209845 $211 296.8791772209845 $206 $328 forward 7 unknown #
coedge $-1 $201 $127 $326 $329 forward $210 $-1 #
coedge $-1 $127 $201 $322 $330 reversed $210 $-1 #
loop $-1 $-1 $208 $306 #
vertex $-1 $128 $331 #
vertex $-1 $128 $332 #
straight-curve $-1 296.8791772209845 0 148.43958861049225 0 1 0 I I #
loop $-1 $-1 $333 $81 #
coedge $-1 $215 $215 $132 $216 reversed $129 $-1 #
edge $-1 $334 0 $334 6.2831853071796004 $215 $335 forward 7 unknown #
vertex $-1 $133 $336 #
ellipse-curve $-1 0 0 -2.9223151341288496 0 0 -1 1 0 0 1 I I #
face $-1 $337 $338 $29 $-1 $339 reversed single #
loop $-1 $-1 $340 $134 #
plane-surface $-1 -296.8791772209845 0 0 1 0 0 0 0 -1 forward_v I I I I #
coedge $-1 $341 $230 $342 $343 forward $135 $-1 #
coedge $-1 $344 $137 $341 $345 forward $87 $-1 #
coedge $-1 $137 $344 $346 $347 forward $87 $-1 #
coedge $-1 $233 $232 $137 $226 reversed $234 $-1 #
edge $-1 $348 -8.2452790626204706 $349 8.2452790626204706 $225 $350 forward 7 unknown #
coedge $-1 $139 $138 $351 $352 forward $56 $-1 #
coedge $-1 $353 $354 $138 $229 reversed $338 $-1 #
edge $-1 $236 -296.8791772209845 $355 296.8791772209845 $228 $356 forward 7 unknown #
coedge $-1 $222 $357 $139 $231 reversed $135 $-1 #
edge $-1 $358 -296.8791772209845 $235 296.8791772209845 $230 $359 forward 7 unknown #
coedge $-1 $225 $140 $357 $360 forward $234 $-1 #
coedge $-1 $140 $225 $353 $361 reversed $234 $-1 #
loop $-1 $-1 $232 $337 #
vertex $-1 $141 $362 #
vertex $-1 $141 $363 #
straight-curve $-1 296.8791772209845 0 148.43958861049225 0 1 0 I I #
loop $-1 $-1 $364 $90 #
coedge $-1 $239 $239 $145 $240 reversed $142 $-1 #
edge $-1 $365 0 $365 6.2831853071796004 $239 $366 forward 7 unknown #
vertex $-1 $146 $367 #
ellipse-curve $-1 0 0 -1.8100756859034988 0 0 -1 0.5 0 0 1 I I #
loop $-1 $-1 $368 $95 #
coedge $-1 $244 $244 $150 $245 reversed $147 $-1 #
edge $-1 $369 0 $369 6.2831853071796004 $244 $370 forward 7 unknown #
vertex $-1 $151 $371 #
ellipse-curve $-1 0 0 -1.8100756859034988 0 0 -1 0.5 0 0 1 I I #
face $-1 $-1 $167 $24 $-1 $372 reversed single #
loop $-1 $-1 $264 $152 #
plane-surface $-1 0 35.85051406495203 0 0 -1 0 0 0 -1 forward_v I I I I #
coedge $-1 $373 $262 $265 $374 forward $153 $-1 #
coedge $-1 $268 $155 $156 $256 reversed $101 $-1 #
coedge $-1 $262 $373 $155 $254 reversed $153 $-1 #
edge $-1 $269 -13.428160320504448 $375 13.428160320504448 $253 $376 forward 7 unknown #
coedge $-1 $157 $156 $373 $377 forward $65 $-1 #
edge $-1 $260 -74.219794305246126 $375 74.219794305246126 $252 $378 forward 7 unknown #
coedge $-1 $265 $264 $157 $258 reversed $249 $-1 #
edge $-1 $379 -74.219794305246126 $259 74.219794305246126 $257 $380 forward 7 unknown #
vertex $-1 $159 $381 #
vertex $-1 $271 $382 #
straight-curve $-1 74.219794305246126 0 -13.428160320504448 0 -1 0 I I #
coedge $-1 $251 $253 $160 $263 reversed $153 $-1 #
edge $-1 $266 -35.85051406495203 $269 35.85051406495203 $262 $383 forward 7 unknown #
coedge $-1 $257 $161 $166 $272 forward $249 $-1 #
coedge $-1 $161 $257 $251 $374 reversed $249 $-1 #
vertex $-1 $162 $384 #
straight-curve $-1 0 35.85051406495203 13.428160320504448 -1 0 0 I I #
coedge $-1 $163 $252 $165 $271 reversed $101 $-1 #
vertex $-1 $263 $385 #
straight-curve $-1 0 -35.85051406495203 13.428160320504448 1 0 0 I I #
edge $-1 $168 -13.428160320504448 $260 13.428160320504448 $165 $386 forward 7 unknown #
edge $-1 $169 -13.428160320504448 $259 13.428160320504448 $166 $387 forward 7 unknown #
point $-1 74.219794305246126 -35.85051406495203 13.428160320504448 #
point $-1 74.219794305246126 35.85051406495203 13.428160320504448 #
face $-1 $-1 $186 $25 $-1 $388 reversed single #
loop $-1 $-1 $291 $171 #
plane-surface $-1 0 5.9637434634003883 0 0 -1 0 0 0 -1 forward_v I I I I #
coedge $-1 $389 $289 $292 $390 forward $172 $-1 #
coedge $-1 $295 $174 $175 $283 reversed $109 $-1 #
coedge $-1 $289 $389 $174 $281 reversed $172 $-1 #
edge $-1 $296 -148.43958861049225 $391 148.43958861049225 $280 $392 forward 7 unknown #
coedge $-1 $176 $175 $389 $393 forward $69 $-1 #
edge $-1 $287 -296.8791772209845 $391 296.8791772209845 $279 $394 forward 7 unknown #
coedge $-1 $292 $291 $176 $285 reversed $276 $-1 #
edge $-1 $395 -296.8791772209845 $286 296.8791772209845 $284 $396 forward 7 unknown #
vertex $-1 $178 $397 #
vertex $-1 $298 $398 #
straight-curve $-1 296.8791772209845 0 -148.43958861049225 0 -1 0 I I #
coedge $-1 $278 $280 $179 $290 reversed $172 $-1 #
edge $-1 $293 -5.9637434634003883 $296 5.9637434634003883 $289 $399 forward 7 unknown #
coedge $-1 $284 $180 $185 $299 forward $276 $-1 #
coedge $-1 $180 $284 $278 $390 reversed $276 $-1 #
vertex $-1 $181 $400 #
straight-curve $-1 0 5.9637434634003883 148.43958861049225 -1 0 0 I I #
coedge $-1 $182 $279 $184 $298 reversed $109 $-1 #
vertex $-1 $290 $401 #
straight-curve $-1 0 -5.9637434634003883 148.43958861049225 1 0 0 I I #
edge $-1 $187 -148.43958861049225 $287 148.43958861049225 $184 $402 forward 7 unknown #
edge $-1 $188 -148.43958861049225 $286 148.43958861049225 $185 $403 forward 7 unknown #
point $-1 296.8791772209845 -5.9637434634003883 148.43958861049225 #
point $-1 296.8791772209845 5.9637434634003883 148.43958861049225 #
coedge $-1 $302 $302 $-1 $404 reversed $190 $-1 #
vertex $-1 $192 $405 #
ellipse-curve $-1 0 0 -0.5 0 0 -1 1 0 0 1 I I #
point $-1 1 0 -2.9223151341288496 #
face $-1 $-1 $210 $27 $-1 $406 reversed single #
loop $-1 $-1 $322 $195 #
plane-surface $-1 0 5.9637434634003883 0 0 -1 0 0 0 -1 forward_v I I I I #
coedge $-1 $407 $320 $323 $408 forward $196 $-1 #
coedge $-1 $326 $198 $199 $314 reversed $122 $-1 #
coedge $-1 $320 $407 $198 $312 reversed $196 $-1 #
edge $-1 $327 -148.43958861049225 $409 148.43958861049225 $311 $410 forward 7 unknown #
coedge $-1 $200 $199 $407 $411 forward $78 $-1 #
edge $-1 $318 -296.8791772209845 $409 296.8791772209845 $310 $412 forward 7 unknown #
coedge $-1 $323 $322 $200 $316 reversed $307 $-1 #
edge $-1 $413 -296.8791772209845 $317 296.8791772209845 $315 $414 forward 7 unknown #
vertex $-1 $202 $415 #
vertex $-1 $329 $416 #
straight-curve $-1 296.8791772209845 0 -148.43958861049225 0 -1 0 I I #
coedge $-1 $309 $311 $203 $321 reversed $196 $-1 #
edge $-1 $324 -5.9637434634003883 $327 5.9637434634003883 $320 $417 forward 7 unknown #
coedge $-1 $315 $204 $209 $330 forward $307 $-1 #
coedge $-1 $204 $315 $309 $408 reversed $307 $-1 #
vertex $-1 $205 $418 #
straight-curve $-1 0 5.9637434634003883 148.43958861049225 -1 0 0 I I #
coedge $-1 $206 $310 $208 $329 reversed $122 $-1 #
vertex $-1 $321 $419 #
straight-curve $-1 0 -5.9637434634003883 148.43958861049225 1 0 0 I I #
edge $-1 $211 -148.43958861049225 $318 148.43958861049225 $208 $420 forward 7 unknown #
edge $-1 $212 -148.43958861049225 $317 148.43958861049225 $209 $421 forward 7 unknown #
point $-1 296.8791772209845 -5.9637434634003883 148.43958861049225 #
point $-1 296.8791772209845 5.9637434634003883 148.43958861049225 #
coedge $-1 $333 $333 $-1 $422 reversed $214 $-1 #
vertex $-1 $216 $423 #
ellipse-curve $-1 0 0 -0.5 0 0 -1 1 0 0 1 I I #
point $-1 1 0 -2.9223151341288496 #
face $-1 $-1 $234 $29 $-1 $424 reversed single #
loop $-1 $-1 $353 $219 #
plane-surface $-1 0 8.2452790626204706 0 0 -1 0 0 0 -1 forward_v I I I I #
coedge $-1 $425 $351 $354 $426 forward $220 $-1 #
coedge $-1 $357 $222 $223 $345 reversed $135 $-1 #
coedge $-1 $351 $425 $222 $343 reversed $220 $-1 #
edge $-1 $358 -148.43958861049225 $427 148.43958861049225 $342 $428 forward 7 unknown #
coedge $-1 $224 $223 $425 $429 forward $87 $-1 #
edge $-1 $349 -296.8791772209845 $427 296.8791772209845 $341 $430 forward 7 unknown #
coedge $-1 $354 $353 $224 $347 reversed $338 $-1 #
edge $-1 $431 -296.8791772209845 $348 296.8791772209845 $346 $432 forward 7 unknown #
vertex $-1 $226 $433 #
vertex $-1 $360 $434 #
straight-curve $-1 296.8791772209845 0 -148.43958861049225 0 -1 0 I I #
coedge $-1 $340 $342 $227 $352 reversed $220 $-1 #
edge $-1 $355 -8.2452790626204706 $358 8.2452790626204706 $351 $435 forward 7 unknown #
coedge $-1 $346 $228 $233 $361 forward $338 $-1 #
coedge $-1 $228 $346 $340 $426 reversed $338 $-1 #
vertex $-1 $229 $436 #
straight-curve $-1 0 8.2452790626204706 148.43958861049225 -1 0 0 I I #
coedge $-1 $230 $341 $232 $360 reversed $135 $-1 #
vertex $-1 $352 $437 #
straight-curve $-1 0 -8.2452790626204706 148.43958861049225 1 0 0 I I #
edge $-1 $235 -148.43958861049225 $349 148.43958861049225 $232 $438 forward 7 unknown #
edge $-1 $236 -148.43958861049225 $348 148.43958861049225 $233 $439 forward 7 unknown #
point $-1 296.8791772209845 -8.2452790626204706 148.43958861049225 #
point $-1 296.8791772209845 8.2452790626204706 148.43958861049225 #
coedge $-1 $364 $364 $-1 $440 reversed $238 $-1 #
vertex $-1 $240 $441 #
ellipse-curve $-1 0 0 -0.25 0 0 -1 0.5 0 0 1 I I #
point $-1 0.5 0 -1.8100756859034988 #
coedge $-1 $368 $368 $-1 $442 reversed $243 $-1 #
vertex $-1 $245 $443 #
ellipse-curve $-1 0 0 -0.25 0 0 -1 0.5 0 0 1 I I #
point $-1 0.5 0 -1.8100756859034988 #
plane-surface $-1 74.219794305246126 0 0 -1 0 0 0 0 1 forward_v I I I I #
coedge $-1 $253 $251 $255 $377 reversed $153 $-1 #
edge $-1 $266 -13.428160320504448 $379 13.428160320504448 $265 $444 forward 7 unknown #
vertex $-1 $377 $445 #
straight-curve $-1 -74.219794305246126 -35.85051406495203 0 0 0 -1 I I #
edge $-1 $375 -35.85051406495203 $379 35.85051406495203 $373 $446 forward 7 unknown #
straight-curve $-1 0 -35.85051406495203 -13.428160320504448 -1 0 0 I I #
vertex $-1 $258 $447 #
straight-curve $-1 0 35.85051406495203 -13.428160320504448 1 0 0 I I #
point $-1 74.219794305246126 35.85051406495203 -13.428160320504448 #
point $-1 74.219794305246126 -35.85051406495203 -13.428160320504448 #
straight-curve $-1 -74.219794305246126 0 13.428160320504448 0 -1 0 I I #
point $-1 -74.219794305246126 35.85051406495203 13.428160320504448 #
point $-1 -74.219794305246126 -35.85051406495203 13.428160320504448 #
straight-curve $-1 74.219794305246126 -35.85051406495203 0 0 0 -1 I I #
straight-curve $-1 74.219794305246126 35.85051406495203 0 0 0 -1 I I #
plane-surface $-1 296.8791772209845 0 0 -1 0 0 0 0 1 forward_v I I I I #
coedge $-1 $280 $278 $282 $393 reversed $172 $-1 #
edge $-1 $293 -148.43958861049225 $395 148.43958861049225 $292 $448 forward 7 unknown #
vertex $-1 $393 $449 #
straight-curve $-1 -296.8791772209845 -5.9637434634003883 0 0 0 -1 I I #
edge $-1 $391 -5.9637434634003883 $395 5.9637434634003883 $389 $450 forward 7 unknown #
straight-curve $-1 0 -5.9637434634003883 -148.43958861049225 -1 0 0 I I #
vertex $-1 $285 $451 #
straight-curve $-1 0 5.9637434634003883 -148.43958861049225 1 0 0 I I #
point $-1 296.8791772209845 5.9637434634003883 -148.43958861049225 #
point $-1 296.8791772209845 -5.9637434634003883 -148.43958861049225 #
straight-curve $-1 -296.8791772209845 0 148.43958861049225 0 -1 0 I I #
point $-1 -296.8791772209845 5.9637434634003883 148.43958861049225 #
point $-1 -296.8791772209845 -5.9637434634003883 148.43958861049225 #
straight-curve $-1 296.8791772209845 -5.9637434634003883 0 0 0 -1 I I #
straight-curve $-1 296.8791772209845 5.9637434634003883 0 0 0 -1 I I #
edge $-1 $452 1 $452 0 $302 $-1 forward 7 unknown #
point $-1 1 0 -0.5 #
plane-surface $-1 296.8791772209845 0 0 -1 0 0 0 0 1 forward_v I I I I #
coedge $-1 $311 $309 $313 $411 reversed $196 $-1 #
edge $-1 $324 -148.43958861049225 $413 148.43958861049225 $323 $453 forward 7 unknown #
vertex $-1 $411 $454 #
straight-curve $-1 -296.8791772209845 -5.9637434634003883 0 0 0 -1 I I #
edge $-1 $409 -5.9637434634003883 $413 5.9637434634003883 $407 $455 forward 7 unknown #
straight-curve $-1 0 -5.9637434634003883 -148.43958861049225 -1 0 0 I I #
vertex $-1 $316 $456 #
straight-curve $-1 0 5.9637434634003883 -148.43958861049225 1 0 0 I I #
point $-1 296.8791772209845 5.9637434634003883 -148.43958861049225 #
point $-1 296.8791772209845 -5.9637434634003883 -148.43958861049225 #
straight-curve $-1 -296.8791772209845 0 148.43958861049225 0 -1 0 I I #
point $-1 -296.8791772209845 5.9637434634003883 148.43958861049225 #
point $-1 -296.8791772209845 -5.9637434634003883 148.43958861049225 #
straight-curve $-1 296.8791772209845 -5.9637434634003883 0 0 0 -1 I I #
straight-curve $-1 296.8791772209845 5.9637434634003883 0 0 0 -1 I I #
edge $-1 $457 1 $457 0 $333 $-1 forward 7 unknown #
point $-1 1 0 -0.5 #
plane-surface $-1 296.8791772209845 0 0 -1 0 0 0 0 1 forward_v I I I I #
coedge $-1 $342 $340 $344 $429 reversed $220 $-1 #
edge $-1 $355 -148.43958861049225 $431 148.43958861049225 $354 $458 forward 7 unknown #
vertex $-1 $429 $459 #
straight-curve $-1 -296.8791772209845 -8.2452790626204706 0 0 0 -1 I I #
edge $-1 $427 -8.2452790626204706 $431 8.2452790626204706 $425 $460 forward 7 unknown #
straight-curve $-1 0 -8.2452790626204706 -148.43958861049225 -1 0 0 I I #
vertex $-1 $347 $461 #
straight-curve $-1 0 8.2452790626204706 -148.43958861049225 1 0 0 I I #
point $-1 296.8791772209845 8.2452790626204706 -148.43958861049225 #
point $-1 296.8791772209845 -8.2452790626204706 -148.43958861049225 #
straight-curve $-1 -296.8791772209845 0 148.43958861049225 0 -1 0 I I #
point $-1 -296.8791772209845 8.2452790626204706 148.43958861049225 #
point $-1 -296.8791772209845 -8.2452790626204706 148.43958861049225 #
straight-curve $-1 296.8791772209845 -8.2452790626204706 0 0 0 -1 I I #
straight-curve $-1 296.8791772209845 8.2452790626204706 0 0 0 -1 I I #
edge $-1 $462 1 $462 0 $364 $-1 forward 7 unknown #
point $-1 0.5 0 -0.25 #
edge $-1 $463 1 $463 0 $368 $-1 forward 7 unknown #
point $-1 0.5 0 -0.25 #
straight-curve $-1 -74.219794305246126 35.85051406495203 0 0 0 -1 I I #
point $-1 -74.219794305246126 -35.85051406495203 -13.428160320504448 #
straight-curve $-1 -74.219794305246126 0 -13.428160320504448 0 1 0 I I #
point $-1 -74.219794305246126 35.85051406495203 -13.428160320504448 #
straight-curve $-1 -296.8791772209845 5.9637434634003883 0 0 0 -1 I I #
point $-1 -296.8791772209845 -5.9637434634003883 -148.43958861049225 #
straight-curve $-1 -296.8791772209845 0 -148.43958861049225 0 1 0 I I #
point $-1 -296.8791772209845 5.9637434634003883 -148.43958861049225 #
vertex $-1 $404 $464 #
straight-curve $-1 -296.8791772209845 5.9637434634003883 0 0 0 -1 I I #
point $-1 -296.8791772209845 -5.9637434634003883 -148.43958861049225 #
straight-curve $-1 -296.8791772209845 0 -148.43958861049225 0 1 0 I I #
point $-1 -296.8791772209845 5.9637434634003883 -148.43958861049225 #
vertex $-1 $422 $465 #
straight-curve $-1 -296.8791772209845 8.2452790626204706 0 0 0 -1 I I #
point $-1 -296.8791772209845 -8.2452790626204706 -148.43958861049225 #
straight-curve $-1 -296.8791772209845 0 -148.43958861049225 0 1 0 I I #
point $-1 -296.8791772209845 8.2452790626204706 -148.43958861049225 #
vertex $-1 $440 $466 #
vertex $-1 $442 $467 #
point $-1 0 0 0.5 #
point $-1 0 0 0.5 #
point $-1 0 0 0.25 #
point $-1 0 0 0.25 #
End-of-ACIS-data 