500 0 7 0           
7 Unknown 11 ACIS 5.0 NT 24 Thu Mar 25 23:32:33 1999 
-1 9.9999999999999995e-007 1e-010 
body $-1 $7 $-1 $8 #
body $-1 $9 $-1 $10 #
body $-1 $11 $-1 $12 #
body $-1 $13 $-1 $14 #
body $-1 $15 $-1 $16 #
body $-1 $17 $-1 $18 #
body $-1 $19 $-1 $20 #
lump $-1 $-1 $21 $0 #
transform $-1 1 0 0 0 1 0 0 0 1 48.475600451673941 22.368278564080313 5.3899038737312699 1 rotate no_reflect no_shear #
lump $-1 $-1 $22 $1 #
transform $-1 1 0 0 0 1 0 0 0 1 48.475600451673941 22.368278564080313 5.3899038737312699 1 rotate no_reflect no_shear #
lump $-1 $-1 $23 $2 #
transform $-1 1 0 0 0 1 0 0 0 1 48.475600451673941 22.368278564080313 5.3899038737312699 1 rotate no_reflect no_shear #
lump $-1 $-1 $24 $3 #
transform $-1 1 0 0 0 1 0 0 0 1 48.475600451673941 22.368278564080313 5.3899038737312699 1 rotate no_reflect no_shear #
lump $-1 $-1 $25 $4 #
transform $-1 1 0 0 0 1 0 0 0 1 48.475600451673941 22.368278564080313 5.3899038737312699 1 rotate no_reflect no_shear #
lump $-1 $-1 $26 $5 #
transform $-1 1 0 0 0 1 0 0 0 1 48.475600451673941 22.368278564080313 5.3899038737312699 1 rotate no_reflect no_shear #
lump $-1 $-1 $27 $6 #
transform $-1 1 0 0 0 1 0 0 0 1 48.475600451673941 22.368278564080313 5.3899038737312699 1 rotate no_reflect no_shear #
shell $-1 $-1 $-1 $28 $-1 $7 #
shell $-1 $-1 $-1 $29 $-1 $9 #
shell $-1 $-1 $-1 $30 $-1 $11 #
shell $-1 $-1 $-1 $31 $-1 $13 #
shell $-1 $-1 $-1 $32 $-1 $15 #
shell $-1 $-1 $-1 $33 $-1 $17 #
shell $-1 $-1 $-1 $34 $-1 $19 #
face $-1 $35 $36 $21 $-1 $37 forward single #
face $-1 $38 $39 $22 $-1 $40 forward single #
face $-1 $41 $42 $23 $-1 $43 reversed single #
face $-1 $44 $45 $24 $-1 $46 forward single #
face $-1 $47 $48 $25 $-1 $49 forward single #
face $-1 $50 $51 $26 $-1 $52 reversed single #
face $-1 $53 $54 $27 $-1 $55 forward single #
face $-1 $56 $57 $21 $-1 $58 reversed single #
loop $-1 $-1 $59 $28 #
plane-surface $-1 0 0 5.3899038737312699 0 0 1 1 0 0 forward_v I I I I #
face $-1 $60 $61 $22 $-1 $62 reversed single #
loop $-1 $-1 $63 $29 #
plane-surface $-1 0 -19.937082700867229 -2.3899038737312699 0 0 1 1 0 0 forward_v I I I I #
face $-1 $64 $65 $23 $-1 $66 reversed single #
loop $-1 $-1 $67 $30 #
plane-surface $-1 -102.69002468440033 -0.71372793600915863 80.876895505021878 0 1 0 -0.55919291073839883 0 0.82903756765294845 forward_v I I I I #
face $-1 $68 $69 $24 $-1 $70 forward single #
loop $-1 $71 $72 $31 #
cone-surface $-1 -44.571738377622914 1.1354153703280545 2.5307870165781652 0.55919291073839883 0 -0.82903756765294845 0.20725939191323711 0 0.13979822768459971 1 I I 0 1 0.25 forward I I I I #
face $-1 $73 $74 $25 $-1 $75 forward single #
loop $-1 $76 $77 $32 #
cone-surface $-1 -44.571738377622914 3.9091303298338715 2.5307870165781652 0.55919291073839883 0 -0.82903756765294845 0.20725939191323711 0 0.13979822768459971 1 I I 0 1 0.25 forward I I I I #
face $-1 $78 $79 $26 $-1 $80 reversed single #
loop $-1 $-1 $81 $33 #
plane-surface $-1 72.284452468627151 -2.3881280898008583 135.60143646837139 0 -1 0 -0.81915205242281985 0 -0.57357642473473569 forward_v I I I I #
face $-1 $82 $83 $27 $-1 $84 forward single #
loop $-1 $85 $86 $34 #
cone-surface $-1 45.962140993471813 -8.2622610247942667 2.402792952790449 -0.81915205242281985 0 -0.57357642473473569 0.57357642473473569 0 -0.81915205242281985 1 I I 0 1 1 forward I I I I #
face $-1 $87 $88 $21 $-1 $89 reversed single #
loop $-1 $-1 $90 $35 #
plane-surface $-1 0 0 -5.3899038737312699 0 0 1 1 0 0 forward_v I I I I #
coedge $-1 $91 $92 $93 $94 forward $36 $-1 #
face $-1 $95 $96 $22 $-1 $97 reversed single #
loop $-1 $-1 $98 $38 #
plane-surface $-1 0 -17.505886837654145 -3.8899038737312699 0 -1 0 0 0 -1 forward_v I I I I #
coedge $-1 $99 $100 $101 $102 reversed $39 $-1 #
face $-1 $103 $104 $23 $-1 $105 reversed single #
loop $-1 $-1 $106 $41 #
plane-surface $-1 -48.475600451673941 2.5222728500809595 0.5007077270780087 -0.55919291073839883 0 0.82903756765294845 0.82903756765294845 0 0.55919291073839883 forward_v I I I I #
coedge $-1 $107 $108 $109 $110 reversed $42 $-1 #
face $-1 $-1 $111 $24 $-1 $112 forward single #
loop $-1 $113 $114 $44 #
cone-surface $-1 -44.222242808411416 1.1354153703280545 2.0126385367950723 0.55919291073839883 0 -0.82903756765294845 0.10362969595661856 0 0.069899113842299854 1 I I -0.70710678118654746 0.70710678118654746 0.125 forward I I I I #
loop $-1 $-1 $115 $31 #
coedge $-1 $72 $72 $116 $117 reversed $45 $-1 #
face $-1 $-1 $118 $25 $-1 $119 forward single #
loop $-1 $120 $121 $47 #
cone-surface $-1 -44.222242808411416 3.9091303298338715 2.0126385367950723 0.55919291073839883 0 -0.82903756765294845 0.10362969595661856 0 0.069899113842299854 1 I I -0.70710678118654746 0.70710678118654746 0.125 forward I I I I #
loop $-1 $-1 $122 $32 #
coedge $-1 $77 $77 $123 $124 reversed $48 $-1 #
face $-1 $125 $126 $26 $-1 $127 reversed single #
loop $-1 $-1 $128 $50 #
plane-surface $-1 -7.1333227362074183 -8.2622610247942667 79.992513280490044 0.81915205242281985 0 0.57357642473473569 0.57357642473473569 0 -0.81915205242281985 forward_v I I I I #
coedge $-1 $129 $130 $131 $132 reversed $51 $-1 #
face $-1 $-1 $133 $27 $-1 $134 forward single #
loop $-1 $135 $136 $53 #
cone-surface $-1 44.724913152948375 -8.2622610247942667 1.5364767185201638 -0.81915205242281985 0 -0.57357642473473569 0.28678821236736785 0 -0.40957602621140993 1 I I -0.70710678118654746 0.70710678118654746 0.5 forward I I I I #
loop $-1 $-1 $137 $34 #
coedge $-1 $86 $86 $138 $139 reversed $54 $-1 #
face $-1 $140 $141 $21 $-1 $142 reversed single #
loop $-1 $-1 $143 $56 #
plane-surface $-1 0 -22.368278564080313 0 0 1 0 0 0 1 forward_v I I I I #
coedge $-1 $144 $145 $146 $147 forward $57 $-1 #
coedge $-1 $148 $59 $149 $150 forward $36 $-1 #
coedge $-1 $59 $148 $151 $152 forward $36 $-1 #
coedge $-1 $153 $154 $59 $94 reversed $155 $-1 #
edge $-1 $156 -22.368278564080313 $157 22.368278564080313 $93 $158 forward 7 unknown #
face $-1 $159 $160 $22 $-1 $161 reversed single #
loop $-1 $-1 $162 $60 #
plane-surface $-1 0 0 -5.3899038737312699 0 0 1 1 0 0 forward_v I I I I #
coedge $-1 $163 $164 $165 $166 reversed $61 $-1 #
coedge $-1 $167 $63 $164 $168 forward $39 $-1 #
coedge $-1 $63 $167 $169 $170 reversed $39 $-1 #
coedge $-1 $171 $165 $63 $102 forward $160 $-1 #
edge $-1 $172 7.5373454872205308 $173 12.399737213646699 $101 $174 forward 7 unknown #
face $-1 $175 $176 $23 $-1 $177 forward single #
loop $-1 $-1 $178 $64 #
plane-surface $-1 -102.69002468440033 5.7582736361710776 80.876895505021878 0 -1 0 0.55919291073839883 0 -0.82903756765294845 forward_v I I I I #
coedge $-1 $179 $180 $181 $182 reversed $65 $-1 #
coedge $-1 $108 $67 $183 $184 reversed $42 $-1 #
coedge $-1 $67 $107 $179 $185 reversed $42 $-1 #
coedge $-1 $181 $186 $67 $110 forward $176 $-1 #
edge $-1 $187 2.8694118905262229 $188 10.117943127889873 $109 $189 forward 7 unknown #
loop $-1 $-1 $116 $68 #
plane-surface $-1 -48.475600451673941 2.5222728500809595 0.5007077270780087 -0.55919291073839883 0 0.82903756765294845 0.82903756765294845 0 0.55919291073839883 forward_v I I I I #
loop $-1 $-1 $190 $44 #
coedge $-1 $114 $114 $115 $191 reversed $69 $-1 #
coedge $-1 $115 $115 $114 $191 forward $71 $-1 #
coedge $-1 $116 $116 $72 $117 forward $111 $-1 #
edge $-1 $192 0 $192 6.2831853071796004 $116 $193 forward 7 unknown #
loop $-1 $-1 $123 $73 #
plane-surface $-1 -48.475600451673941 2.5222728500809595 0.5007077270780087 -0.55919291073839883 0 0.82903756765294845 0.82903756765294845 0 0.55919291073839883 forward_v I I I I #
loop $-1 $-1 $194 $47 #
coedge $-1 $121 $121 $122 $195 reversed $74 $-1 #
coedge $-1 $122 $122 $121 $195 forward $76 $-1 #
coedge $-1 $123 $123 $77 $124 forward $118 $-1 #
edge $-1 $196 0 $196 6.2831853071796004 $123 $197 forward 7 unknown #
face $-1 $198 $199 $26 $-1 $200 reversed single #
loop $-1 $-1 $201 $78 #
plane-surface $-1 72.284452468627151 -14.136393959787675 135.60143646837139 0 1 0 0.81915205242281985 0 0.57357642473473569 forward_v I I I I #
coedge $-1 $202 $203 $204 $205 reversed $79 $-1 #
coedge $-1 $130 $81 $206 $207 reversed $51 $-1 #
coedge $-1 $81 $129 $202 $208 reversed $51 $-1 #
coedge $-1 $204 $209 $81 $132 forward $210 $-1 #
edge $-1 $211 -12.333374217360365 $212 -8.9617589295801778 $131 $213 forward 7 unknown #
loop $-1 $-1 $138 $82 #
plane-surface $-1 -7.1333227362074183 -8.2622610247942667 79.992513280490044 0.81915205242281985 0 0.57357642473473569 0.57357642473473569 0 -0.81915205242281985 forward_v I I I I #
loop $-1 $-1 $214 $53 #
coedge $-1 $136 $136 $137 $215 reversed $83 $-1 #
coedge $-1 $137 $137 $136 $215 forward $85 $-1 #
coedge $-1 $138 $138 $86 $139 forward $133 $-1 #
edge $-1 $216 0 $216 6.2831853071796004 $138 $217 forward 7 unknown #
face $-1 $218 $219 $21 $-1 $220 reversed single #
loop $-1 $-1 $221 $87 #
plane-surface $-1 -48.475600451673941 0 0 1 0 0 0 0 -1 forward_v I I I I #
coedge $-1 $222 $151 $223 $224 forward $88 $-1 #
coedge $-1 $225 $90 $222 $226 forward $57 $-1 #
coedge $-1 $90 $225 $227 $228 forward $57 $-1 #
coedge $-1 $154 $153 $90 $147 reversed $155 $-1 #
edge $-1 $229 -22.368278564080313 $230 22.368278564080313 $146 $231 forward 7 unknown #
coedge $-1 $92 $91 $232 $233 forward $36 $-1 #
coedge $-1 $234 $235 $91 $150 reversed $219 $-1 #
edge $-1 $157 -48.475600451673941 $236 48.475600451673941 $149 $237 forward 7 unknown #
coedge $-1 $143 $238 $92 $152 reversed $88 $-1 #
edge $-1 $239 -48.475600451673941 $156 48.475600451673941 $151 $240 forward 7 unknown #
coedge $-1 $146 $93 $238 $241 forward $155 $-1 #
coedge $-1 $93 $146 $234 $242 reversed $155 $-1 #
loop $-1 $-1 $153 $218 #
vertex $-1 $94 $243 #
vertex $-1 $94 $244 #
straight-curve $-1 48.475600451673941 0 5.3899038737312699 0 1 0 I I #
face $-1 $245 $246 $22 $-1 $247 reversed single #
loop $-1 $-1 $165 $95 #
plane-surface $-1 48.475600451673941 0 0 -1 0 0 0 0 1 forward_v I I I I #
coedge $-1 $248 $249 $163 $250 forward $96 $-1 #
coedge $-1 $251 $98 $162 $250 reversed $61 $-1 #
coedge $-1 $98 $251 $99 $168 reversed $61 $-1 #
coedge $-1 $101 $252 $98 $166 forward $160 $-1 #
edge $-1 $253 -3.4449519368656349 $172 -0.44495193686563494 $165 $254 forward 7 unknown #
coedge $-1 $100 $99 $255 $256 reversed $39 $-1 #
edge $-1 $172 -48.475600451673941 $257 48.475600451673941 $164 $258 forward 7 unknown #
coedge $-1 $259 $260 $100 $170 forward $246 $-1 #
edge $-1 $173 -48.475600451673941 $261 48.475600451673941 $169 $262 forward 7 unknown #
coedge $-1 $252 $101 $260 $263 forward $160 $-1 #
vertex $-1 $102 $264 #
vertex $-1 $263 $265 #
straight-curve $-1 48.475600451673941 -9.9685413504336147 -2.3899038737312699 0 -1 0 I I #
face $-1 $-1 $266 $23 $-1 $267 reversed single #
loop $-1 $-1 $109 $103 #
plane-surface $-1 0 0 5.3899038737312699 0 0 1 1 0 0 forward_v I I I I #
coedge $-1 $268 $269 $270 $271 reversed $104 $-1 #
coedge $-1 $272 $106 $108 $185 forward $65 $-1 #
coedge $-1 $106 $272 $268 $273 forward $65 $-1 #
coedge $-1 $270 $109 $106 $182 forward $176 $-1 #
edge $-1 $188 -1.9748643610496384 $274 4.4971372111305978 $181 $275 forward 7 unknown #
coedge $-1 $276 $277 $107 $184 forward $266 $-1 #
edge $-1 $278 -39.93774002543293 $187 -35.048543878779668 $183 $279 forward 7 unknown #
edge $-1 $188 -8.7433085304983784 $278 0 $108 $280 forward 7 unknown #
coedge $-1 $109 $270 $276 $281 forward $176 $-1 #
vertex $-1 $184 $282 #
vertex $-1 $110 $283 #
straight-curve $-1 -51.345012342200164 -0.71372793600915863 5.3899038737312708 1 0 0 I I #
coedge $-1 $190 $190 $-1 $284 reversed $113 $-1 #
edge $-1 $285 0 $285 6.2831853071796004 $114 $286 forward 7 unknown #
vertex $-1 $117 $287 #
ellipse-curve $-1 -44.851334832992116 1.1354153703280545 2.9453058004046402 -0.55919291073839883 0 0.82903756765294845 0.20725939191323711 0 0.13979822768459971 1 I I #
coedge $-1 $194 $194 $-1 $288 reversed $120 $-1 #
edge $-1 $289 0 $289 6.2831853071796004 $121 $290 forward 7 unknown #
vertex $-1 $124 $291 #
ellipse-curve $-1 -44.851334832992116 3.9091303298338715 2.9453058004046402 -0.55919291073839883 0 0.82903756765294845 0.20725939191323711 0 0.13979822768459971 1 I I #
face $-1 $-1 $210 $26 $-1 $292 forward single #
loop $-1 $-1 $293 $125 #
plane-surface $-1 48.475600451673941 0 0 -1 0 0 0 0 1 forward_v I I I I #
coedge $-1 $294 $295 $296 $297 reversed $126 $-1 #
coedge $-1 $298 $128 $130 $208 forward $79 $-1 #
coedge $-1 $128 $298 $294 $299 forward $79 $-1 #
coedge $-1 $296 $131 $128 $205 forward $210 $-1 #
edge $-1 $212 -1.743002422596275 $300 10.005263447390542 $204 $301 forward 7 unknown #
coedge $-1 $302 $303 $129 $207 forward $199 $-1 #
edge $-1 $304 -67.22598015853022 $211 -62.410814360454424 $206 $305 forward 7 unknown #
edge $-1 $212 91.072968914752011 $304 96.951200903347896 $130 $306 forward 7 unknown #
coedge $-1 $131 $296 $302 $307 forward $210 $-1 #
loop $-1 $-1 $296 $198 #
vertex $-1 $207 $308 #
vertex $-1 $132 $309 #
straight-curve $-1 36.142226234313576 -2.3881280898008583 5.3899038737312708 -1 0 0 I I #
coedge $-1 $214 $214 $-1 $310 reversed $135 $-1 #
edge $-1 $311 0 $311 6.2831853071796004 $136 $312 forward 7 unknown #
vertex $-1 $139 $313 #
ellipse-curve $-1 46.789792807783847 -8.2622610247942667 2.9823209746933701 0.81915205242281985 0 0.57357642473473569 0.57357642473473569 0 -0.81915205242281985 1 I I #
face $-1 $-1 $155 $21 $-1 $314 reversed single #
loop $-1 $-1 $234 $140 #
plane-surface $-1 0 22.368278564080313 0 0 -1 0 0 0 -1 forward_v I I I I #
coedge $-1 $315 $232 $235 $316 forward $141 $-1 #
coedge $-1 $238 $143 $144 $226 reversed $88 $-1 #
coedge $-1 $232 $315 $143 $224 reversed $141 $-1 #
edge $-1 $239 -5.3899038737312699 $317 5.3899038737312699 $223 $318 forward 7 unknown #
coedge $-1 $145 $144 $315 $319 forward $57 $-1 #
edge $-1 $230 -48.475600451673941 $317 48.475600451673941 $222 $320 forward 7 unknown #
coedge $-1 $235 $234 $145 $228 reversed $219 $-1 #
edge $-1 $321 -48.475600451673941 $229 48.475600451673941 $227 $322 forward 7 unknown #
vertex $-1 $147 $323 #
vertex $-1 $241 $324 #
straight-curve $-1 48.475600451673941 0 -5.3899038737312699 0 -1 0 I I #
coedge $-1 $221 $223 $148 $233 reversed $141 $-1 #
edge $-1 $236 -22.368278564080313 $239 22.368278564080313 $232 $325 forward 7 unknown #
coedge $-1 $227 $149 $154 $242 forward $219 $-1 #
coedge $-1 $149 $227 $221 $316 reversed $219 $-1 #
vertex $-1 $150 $326 #
straight-curve $-1 0 22.368278564080313 5.3899038737312699 -1 0 0 I I #
coedge $-1 $151 $222 $153 $241 reversed $88 $-1 #
vertex $-1 $233 $327 #
straight-curve $-1 0 -22.368278564080313 5.3899038737312699 1 0 0 I I #
edge $-1 $156 -5.3899038737312699 $230 5.3899038737312699 $153 $328 forward 7 unknown #
edge $-1 $157 -5.3899038737312699 $229 5.3899038737312699 $154 $329 forward 7 unknown #
point $-1 48.475600451673941 -22.368278564080313 5.3899038737312699 #
point $-1 48.475600451673941 22.368278564080313 5.3899038737312699 #
face $-1 $-1 $330 $22 $-1 $331 reversed single #
loop $-1 $-1 $169 $159 #
plane-surface $-1 0 -22.368278564080313 0 0 1 0 0 0 1 forward_v I I I I #
coedge $-1 $332 $162 $252 $333 forward $96 $-1 #
coedge $-1 $162 $332 $334 $335 forward $96 $-1 #
edge $-1 $336 -48.475600451673941 $253 48.475600451673941 $162 $337 forward 7 unknown #
coedge $-1 $164 $163 $338 $339 reversed $61 $-1 #
coedge $-1 $165 $171 $248 $333 reversed $160 $-1 #
vertex $-1 $333 $340 #
straight-curve $-1 48.475600451673941 -17.505886837654145 -1.9449519368656349 0 0 1 I I #
coedge $-1 $338 $341 $167 $256 forward $330 $-1 #
edge $-1 $261 -12.399737213646699 $257 -7.5373454872205308 $255 $342 forward 7 unknown #
vertex $-1 $256 $343 #
straight-curve $-1 0 -17.505886837654145 -2.3899038737312699 -1 0 0 I I #
coedge $-1 $344 $169 $341 $345 forward $246 $-1 #
coedge $-1 $169 $344 $171 $263 reversed $246 $-1 #
vertex $-1 $345 $346 #
straight-curve $-1 0 -22.368278564080313 -2.3899038737312699 -1 0 0 I I #
edge $-1 $173 2.3899038737312699 $347 5.3899038737312699 $171 $348 forward 7 unknown #
point $-1 48.475600451673941 -17.505886837654145 -2.3899038737312699 #
point $-1 48.475600451673941 -22.368278564080313 -2.3899038737312699 #
loop $-1 $-1 $183 $175 #
plane-surface $-1 -48.475600451673941 0 0 1 0 0 0 0 -1 forward_v I I I I #
coedge $-1 $269 $178 $180 $273 reversed $104 $-1 #
coedge $-1 $178 $268 $349 $350 reversed $104 $-1 #
coedge $-1 $186 $181 $178 $271 forward $176 $-1 #
edge $-1 $274 -10.117943127889873 $351 -2.8694118905262229 $270 $352 forward 7 unknown #
coedge $-1 $180 $179 $277 $353 reversed $65 $-1 #
edge $-1 $354 0 $274 8.7433085304983784 $268 $355 forward 7 unknown #
vertex $-1 $182 $356 #
straight-curve $-1 -41.227069214310298 1.2611364250404797 5.389903873731269 0 1 0 I I #
coedge $-1 $349 $183 $186 $281 reversed $266 $-1 #
coedge $-1 $183 $349 $272 $353 forward $266 $-1 #
vertex $-1 $184 $357 #
straight-curve $-1 -48.475600451673941 -0.71372793600915863 40.438447752510939 0 0 1 I I #
straight-curve $-1 -48.475600451673941 -0.71372793600915863 0.5007077270780087 -0.82903756765294845 0 -0.55919291073839883 I I #
edge $-1 $351 -5.7582736361710776 $187 0.71372793600915863 $276 $358 forward 7 unknown #
point $-1 -48.475600451673941 -0.71372793600915863 5.3899038737312699 #
point $-1 -41.227069214310291 -0.71372793600915863 5.3899038737312699 #
edge $-1 $359 1 $359 0 $190 $-1 forward 7 unknown #
vertex $-1 $191 $360 #
ellipse-curve $-1 -44.292141922253712 1.1354153703280545 2.1162682327516911 -0.55919291073839883 0 0.82903756765294845 0.20725939191323711 0 0.13979822768459971 1 I I #
point $-1 -44.644075441078876 1.1354153703280545 3.0851040280892388 #
edge $-1 $361 1 $361 0 $194 $-1 forward 7 unknown #
vertex $-1 $195 $362 #
ellipse-curve $-1 -44.292141922253712 3.9091303298338715 2.1162682327516911 -0.55919291073839883 0 0.82903756765294845 0.20725939191323711 0 0.13979822768459971 1 I I #
point $-1 -44.644075441078876 3.9091303298338715 3.0851040280892388 #
plane-surface $-1 0 0 5.3899038737312699 0 0 1 1 0 0 forward_v I I I I #
coedge $-1 $303 $302 $295 $363 forward $199 $-1 #
coedge $-1 $295 $201 $203 $299 reversed $126 $-1 #
coedge $-1 $201 $294 $293 $363 reversed $126 $-1 #
coedge $-1 $209 $204 $201 $297 forward $210 $-1 #
edge $-1 $300 8.9617589295801778 $364 12.333374217360365 $296 $365 forward 7 unknown #
coedge $-1 $203 $202 $303 $366 reversed $79 $-1 #
edge $-1 $367 -96.951200903347896 $300 -91.072968914752011 $294 $368 forward 7 unknown #
vertex $-1 $205 $369 #
straight-curve $-1 45.103985163893753 -4.1311305123971334 5.3899038737312779 0 -1 0 I I #
coedge $-1 $293 $206 $209 $307 reversed $199 $-1 #
coedge $-1 $206 $293 $298 $366 forward $199 $-1 #
vertex $-1 $207 $370 #
straight-curve $-1 48.475600451673941 -2.3881280898008583 67.800718234185695 0 0 1 I I #
straight-curve $-1 -7.1333227362074183 -2.3881280898008583 79.992513280490044 0.57357642473473569 0 -0.81915205242281985 I I #
edge $-1 $364 -14.136393959787675 $211 -2.3881280898008583 $302 $371 forward 7 unknown #
point $-1 48.475600451673941 -2.3881280898008583 5.3899038737312699 #
point $-1 45.103985163893753 -2.3881280898008583 5.3899038737312708 #
edge $-1 $372 1 $372 0 $214 $-1 forward 7 unknown #
vertex $-1 $215 $373 #
ellipse-curve $-1 45.134489179159786 -8.2622610247942667 1.8232649308875315 0.81915205242281985 0 0.57357642473473569 0.57357642473473569 0 -0.81915205242281985 1 I I #
point $-1 47.363369232518579 -8.2622610247942667 2.1631689222705468 #
plane-surface $-1 48.475600451673941 0 0 -1 0 0 0 0 1 forward_v I I I I #
coedge $-1 $223 $221 $225 $319 reversed $141 $-1 #
edge $-1 $236 -5.3899038737312699 $321 5.3899038737312699 $235 $374 forward 7 unknown #
vertex $-1 $319 $375 #
straight-curve $-1 -48.475600451673941 -22.368278564080313 0 0 0 -1 I I #
edge $-1 $317 -22.368278564080313 $321 22.368278564080313 $315 $376 forward 7 unknown #
straight-curve $-1 0 -22.368278564080313 -5.3899038737312699 -1 0 0 I I #
vertex $-1 $228 $377 #
straight-curve $-1 0 22.368278564080313 -5.3899038737312699 1 0 0 I I #
point $-1 48.475600451673941 22.368278564080313 -5.3899038737312699 #
point $-1 48.475600451673941 -22.368278564080313 -5.3899038737312699 #
straight-curve $-1 -48.475600451673941 0 5.3899038737312699 0 -1 0 I I #
point $-1 -48.475600451673941 22.368278564080313 5.3899038737312699 #
point $-1 -48.475600451673941 -22.368278564080313 5.3899038737312699 #
straight-curve $-1 48.475600451673941 -22.368278564080313 0 0 0 -1 I I #
straight-curve $-1 48.475600451673941 22.368278564080313 0 0 0 -1 I I #
loop $-1 $-1 $338 $245 #
plane-surface $-1 -48.475600451673941 0 0 1 0 0 0 0 -1 forward_v I I I I #
coedge $-1 $249 $248 $344 $378 forward $96 $-1 #
edge $-1 $253 17.505886837654145 $347 22.368278564080313 $252 $379 forward 7 unknown #
coedge $-1 $341 $338 $249 $335 reversed $330 $-1 #
edge $-1 $380 -22.368278564080313 $336 -17.505886837654145 $334 $381 forward 7 unknown #
vertex $-1 $339 $382 #
straight-curve $-1 0 -17.505886837654145 -5.3899038737312699 1 0 0 I I #
coedge $-1 $334 $255 $251 $339 forward $330 $-1 #
edge $-1 $257 0.44495193686563494 $336 3.4449519368656349 $338 $383 forward 7 unknown #
point $-1 48.475600451673941 -17.505886837654145 -5.3899038737312699 #
coedge $-1 $255 $334 $259 $345 reversed $330 $-1 #
straight-curve $-1 -48.475600451673941 -9.9685413504336147 -2.3899038737312699 0 1 0 I I #
point $-1 -48.475600451673941 -17.505886837654145 -2.3899038737312699 #
coedge $-1 $260 $259 $332 $378 reversed $246 $-1 #
edge $-1 $261 2.3899038737312699 $380 5.3899038737312699 $341 $384 forward 7 unknown #
point $-1 -48.475600451673941 -22.368278564080313 -2.3899038737312699 #
vertex $-1 $263 $385 #
straight-curve $-1 48.475600451673941 -22.368278564080313 0 0 0 -1 I I #
coedge $-1 $277 $276 $269 $350 forward $266 $-1 #
edge $-1 $351 35.048543878779668 $354 39.93774002543293 $349 $386 forward 7 unknown #
vertex $-1 $281 $387 #
straight-curve $-1 -51.345012342200164 5.7582736361710776 5.3899038737312708 -1 0 0 I I #
edge $-1 $354 -4.4971372111305978 $278 1.9748643610496384 $277 $388 forward 7 unknown #
vertex $-1 $353 $389 #
straight-curve $-1 -48.475600451673941 5.7582736361710776 0.5007077270780087 0.82903756765294845 0 0.55919291073839883 I I #
point $-1 -41.227069214310291 5.7582736361710776 5.3899038737312699 #
point $-1 -48.475600451673941 -0.71372793600915863 0.5007077270780087 #
straight-curve $-1 -48.475600451673941 0 5.3899038737312699 0 -1 0 I I #
vertex $-1 $284 $390 #
point $-1 -44.084882530340479 1.1354153703280545 2.2560664604362906 #
vertex $-1 $288 $391 #
point $-1 -44.084882530340479 3.9091303298338715 2.2560664604362906 #
edge $-1 $364 62.410814360454424 $367 67.22598015853022 $293 $392 forward 7 unknown #
vertex $-1 $307 $393 #
straight-curve $-1 36.142226234313576 -14.136393959787675 5.3899038737312708 1 0 0 I I #
edge $-1 $367 -10.005263447390542 $304 1.743002422596275 $303 $394 forward 7 unknown #
vertex $-1 $366 $395 #
straight-curve $-1 -7.1333227362074183 -14.136393959787675 79.992513280490044 -0.57357642473473569 0 0.81915205242281985 I I #
point $-1 45.103985163893753 -14.136393959787675 5.3899038737312708 #
point $-1 48.475600451673934 -2.3881280898008583 0.57473807565547474 #
straight-curve $-1 48.475600451673941 0 5.3899038737312699 0 1 0 I I #
vertex $-1 $310 $396 #
point $-1 45.708065603894518 -8.2622610247942667 1.0041128784647118 #
straight-curve $-1 -48.475600451673941 22.368278564080313 0 0 0 -1 I I #
point $-1 -48.475600451673941 -22.368278564080313 -5.3899038737312699 #
straight-curve $-1 -48.475600451673941 0 -5.3899038737312699 0 1 0 I I #
point $-1 -48.475600451673941 22.368278564080313 -5.3899038737312699 #
edge $-1 $347 -48.475600451673941 $380 48.475600451673941 $344 $397 forward 7 unknown #
straight-curve $-1 48.475600451673941 0 -5.3899038737312699 0 -1 0 I I #
vertex $-1 $335 $398 #
straight-curve $-1 -48.475600451673941 0 -5.3899038737312699 0 1 0 I I #
point $-1 -48.475600451673941 -17.505886837654145 -5.3899038737312699 #
straight-curve $-1 -48.475600451673941 -17.505886837654145 -1.9449519368656349 0 0 -1 I I #
straight-curve $-1 -48.475600451673941 -22.368278564080313 0 0 0 -1 I I #
point $-1 48.475600451673941 -22.368278564080313 -5.3899038737312699 #
straight-curve $-1 -48.475600451673941 5.7582736361710776 40.438447752510939 0 0 -1 I I #
point $-1 -48.475600451673941 5.7582736361710776 5.3899038737312699 #
straight-curve $-1 -48.475600451673941 1.2611364250404797 0.5007077270780097 0 -1 0 I I #
point $-1 -48.475600451673941 5.7582736361710776 0.5007077270780087 #
point $-1 -44.152343694569119 1.1354153703280545 1.9090088408384538 #
point $-1 -44.152343694569119 3.9091303298338715 1.9090088408384538 #
straight-curve $-1 48.475600451673941 -14.136393959787675 67.800718234185695 0 0 -1 I I #
point $-1 48.475600451673941 -14.136393959787675 5.3899038737312699 #
straight-curve $-1 48.475600451673941 -4.1311305123971334 0.57473807565547474 0 1 0 I I #
point $-1 48.475600451673934 -14.136393959787675 0.57473807565547474 #
point $-1 44.315337126736964 -8.2622610247942667 1.249688506152796 #
straight-curve $-1 0 -22.368278564080313 -5.3899038737312699 -1 0 0 I I #
point $-1 -48.475600451673941 -22.368278564080313 -5.3899038737312699 #
End-of-ACIS-data 