500 0 18 0           
7 Unknown 11 ACIS 5.0 NT 24 Fri Mar 26 14:33:44 1999 
-1 9.9999999999999995e-007 1e-010 
body $-1 $18 $-1 $19 #
body $-1 $20 $-1 $21 #
body $-1 $22 $-1 $23 #
body $-1 $24 $-1 $25 #
body $-1 $26 $-1 $27 #
body $-1 $28 $-1 $29 #
body $-1 $30 $-1 $31 #
body $-1 $32 $-1 $33 #
body $-1 $34 $-1 $35 #
body $-1 $36 $-1 $37 #
body $-1 $38 $-1 $39 #
body $-1 $40 $-1 $41 #
body $-1 $42 $-1 $43 #
body $-1 $44 $-1 $45 #
body $-1 $46 $-1 $47 #
body $-1 $48 $-1 $49 #
body $-1 $50 $-1 $51 #
body $-1 $52 $-1 $53 #
lump $-1 $-1 $54 $0 #
transform $-1 1 0 0 0 1 0 0 0 1 77.86614581743828 40.846279305326078 18.019258766027377 1 rotate no_reflect no_shear #
lump $-1 $-1 $55 $1 #
transform $-1 1 0 0 0 1 0 0 0 1 77.86614581743828 40.846279305326078 18.019258766027377 1 rotate no_reflect no_shear #
lump $-1 $-1 $56 $2 #
transform $-1 1 0 0 0 1 0 0 0 1 77.86614581743828 40.846279305326078 18.019258766027377 1 rotate no_reflect no_shear #
lump $-1 $-1 $57 $3 #
transform $-1 1 0 0 0 1 0 0 0 1 77.86614581743828 40.846279305326078 18.019258766027377 1 rotate no_reflect no_shear #
lump $-1 $-1 $58 $4 #
transform $-1 1 0 0 0 1 0 0 0 1 77.86614581743828 40.846279305326078 18.019258766027377 1 rotate no_reflect no_shear #
lump $-1 $-1 $59 $5 #
transform $-1 1 0 0 0 1 0 0 0 1 77.86614581743828 40.846279305326078 18.019258766027377 1 rotate no_reflect no_shear #
lump $-1 $-1 $60 $6 #
transform $-1 1 0 0 0 1 0 0 0 1 77.86614581743828 40.846279305326078 18.019258766027377 1 rotate no_reflect no_shear #
lump $-1 $-1 $61 $7 #
transform $-1 1 0 0 0 1 0 0 0 1 77.86614581743828 40.846279305326078 18.019258766027377 1 rotate no_reflect no_shear #
lump $-1 $-1 $62 $8 #
transform $-1 1 0 0 0 1 0 0 0 1 77.86614581743828 40.846279305326078 18.019258766027377 1 rotate no_reflect no_shear #
lump $-1 $-1 $63 $9 #
transform $-1 1 0 0 0 1 0 0 0 1 77.86614581743828 40.846279305326078 18.019258766027377 1 rotate no_reflect no_shear #
lump $-1 $-1 $64 $10 #
transform $-1 1 0 0 0 1 0 0 0 1 77.86614581743828 40.846279305326078 18.019258766027377 1 rotate no_reflect no_shear #
lump $-1 $-1 $65 $11 #
transform $-1 1 0 0 0 1 0 0 0 1 77.86614581743828 40.846279305326078 18.019258766027377 1 rotate no_reflect no_shear #
lump $-1 $-1 $66 $12 #
transform $-1 1 0 0 0 1 0 0 0 1 77.86614581743828 40.846279305326078 18.019258766027377 1 rotate no_reflect no_shear #
lump $-1 $-1 $67 $13 #
transform $-1 1 0 0 0 1 0 0 0 1 77.86614581743828 40.846279305326078 18.019258766027377 1 rotate no_reflect no_shear #
lump $-1 $-1 $68 $14 #
transform $-1 1 0 0 0 1 0 0 0 1 77.86614581743828 40.846279305326078 18.019258766027377 1 rotate no_reflect no_shear #
lump $-1 $-1 $69 $15 #
transform $-1 1 0 0 0 1 0 0 0 1 77.86614581743828 40.846279305326078 18.019258766027377 1 rotate no_reflect no_shear #
lump $-1 $-1 $70 $16 #
transform $-1 1 0 0 0 1 0 0 0 1 77.86614581743828 40.846279305326078 18.019258766027377 1 rotate no_reflect no_shear #
lump $-1 $-1 $71 $17 #
transform $-1 1 0 0 0 1 0 0 0 1 77.86614581743828 40.846279305326078 18.019258766027377 1 rotate no_reflect no_shear #
shell $-1 $-1 $-1 $72 $-1 $18 #
shell $-1 $-1 $-1 $73 $-1 $20 #
shell $-1 $-1 $-1 $74 $-1 $22 #
shell $-1 $-1 $-1 $75 $-1 $24 #
shell $-1 $-1 $-1 $76 $-1 $26 #
shell $-1 $-1 $-1 $77 $-1 $28 #
shell $-1 $-1 $-1 $78 $-1 $30 #
shell $-1 $-1 $-1 $79 $-1 $32 #
shell $-1 $-1 $-1 $80 $-1 $34 #
shell $-1 $-1 $-1 $81 $-1 $36 #
shell $-1 $-1 $-1 $82 $-1 $38 #
shell $-1 $-1 $-1 $83 $-1 $40 #
shell $-1 $-1 $-1 $84 $-1 $42 #
shell $-1 $-1 $-1 $85 $-1 $44 #
shell $-1 $-1 $-1 $86 $-1 $46 #
shell $-1 $-1 $-1 $87 $-1 $48 #
shell $-1 $-1 $-1 $88 $-1 $50 #
shell $-1 $-1 $-1 $89 $-1 $52 #
face $-1 $90 $91 $54 $-1 $92 forward single #
face $-1 $93 $94 $55 $-1 $95 reversed single #
face $-1 $96 $97 $56 $-1 $98 reversed single #
face $-1 $99 $100 $57 $-1 $101 forward single #
face $-1 $102 $103 $58 $-1 $104 forward single #
face $-1 $105 $106 $59 $-1 $107 forward single #
face $-1 $108 $109 $60 $-1 $110 reversed single #
face $-1 $111 $112 $61 $-1 $113 forward single #
face $-1 $114 $115 $62 $-1 $116 forward single #
face $-1 $117 $118 $63 $-1 $119 reversed single #
face $-1 $120 $121 $64 $-1 $122 forward single #
face $-1 $123 $124 $65 $-1 $125 forward single #
face $-1 $126 $127 $66 $-1 $128 reversed single #
face $-1 $129 $130 $67 $-1 $131 forward single #
face $-1 $132 $133 $68 $-1 $134 forward single #
face $-1 $135 $136 $69 $-1 $137 reversed single #
face $-1 $138 $139 $70 $-1 $140 forward single #
face $-1 $141 $142 $71 $-1 $143 forward single #
face $-1 $144 $145 $54 $-1 $146 reversed single #
loop $-1 $-1 $147 $72 #
plane-surface $-1 0 0 18.019258766027377 0 0 1 1 0 0 forward_v I I I I #
face $-1 $148 $149 $55 $-1 $150 reversed single #
loop $-1 $-1 $151 $73 #
plane-surface $-1 0 -31.336502345325961 8.3299821187254377 0 0 1 1 0 0 forward_v I I I I #
face $-1 $152 $153 $56 $-1 $154 reversed single #
loop $-1 $-1 $155 $74 #
plane-surface $-1 -202.23948525882457 27.224315985328701 96.382842090775711 0 1 0 -0.79863551827123203 0 0.60181501223851219 forward_v I I I I #
face $-1 $156 $157 $57 $-1 $158 forward single #
loop $-1 $159 $160 $75 #
cone-surface $-1 -70.618276665848299 29.948708649328182 9.2389726091925191 0.79863551827123203 0 -0.60181501223851219 0.60181501223851219 0 0.79863551827123203 1 I I 0 1 1 forward I I I I #
face $-1 $161 $162 $58 $-1 $163 forward single #
loop $-1 $164 $165 $76 #
cone-surface $-1 -70.618276665848299 34.03529764532739 9.2389726091925191 0.79863551827123203 0 -0.60181501223851219 0.60181501223851219 0 0.79863551827123203 1 I I 0 1 1 forward I I I I #
face $-1 $166 $167 $59 $-1 $168 forward single #
loop $-1 $169 $170 $77 #
cone-surface $-1 -70.618276665848299 38.121886641326597 9.2389726091925191 0.79863551827123203 0 -0.60181501223851219 0.60181501223851219 0 0.79863551827123203 1 I I 0 1 1 forward I I I I #
face $-1 $171 $172 $60 $-1 $173 reversed single #
loop $-1 $-1 $174 $78 #
plane-surface $-1 85.552368929756426 -9.3715095577684711 226.82006670257252 0 -1 0 -0.73135370988377701 0 -0.68199835119979291 forward_v I I I I #
face $-1 $175 $176 $61 $-1 $177 forward single #
loop $-1 $178 $179 $79 #
cone-surface $-1 71.217182565144896 -16.39503169489625 11.081907556874823 -0.73135370988377701 0 -0.68199835119979291 0.68199835119979291 0 -0.73135370988377701 1 I I 0 1 1 forward I I I I #
face $-1 $180 $181 $62 $-1 $182 forward single #
loop $-1 $183 $184 $80 #
cone-surface $-1 71.217182565144896 -12.180918412619583 11.081907556874823 -0.73135370988377701 0 -0.68199835119979291 0.68199835119979291 0 -0.73135370988377701 1 I I 0 1 1 forward I I I I #
face $-1 $185 $186 $63 $-1 $187 reversed single #
loop $-1 $-1 $188 $81 #
plane-surface $-1 85.552368929756426 6.4936584514035527 226.82006670257252 0 -1 0 -0.73135370988377701 0 -0.68199835119979291 forward_v I I I I #
face $-1 $189 $190 $64 $-1 $191 forward single #
loop $-1 $192 $193 $82 #
cone-surface $-1 71.217182565144896 -0.52986368572423004 11.081907556874823 -0.73135370988377701 0 -0.68199835119979291 0.68199835119979291 0 -0.73135370988377701 1 I I 0 1 1 forward I I I I #
face $-1 $194 $195 $65 $-1 $196 forward single #
loop $-1 $197 $198 $83 #
cone-surface $-1 71.217182565144896 3.6842495965524336 11.081907556874823 -0.73135370988377701 0 -0.68199835119979291 0.68199835119979291 0 -0.73135370988377701 1 I I 0 1 1 forward I I I I #
face $-1 $199 $200 $66 $-1 $201 reversed single #
loop $-1 $-1 $202 $84 #
plane-surface $-1 85.552368929756426 22.358826460575578 226.82006670257252 0 -1 0 -0.73135370988377701 0 -0.68199835119979291 forward_v I I I I #
face $-1 $203 $204 $67 $-1 $205 forward single #
loop $-1 $206 $207 $85 #
cone-surface $-1 71.217182565144896 15.335304323447787 11.081907556874823 -0.73135370988377701 0 -0.68199835119979291 0.68199835119979291 0 -0.73135370988377701 1 I I 0 1 1 forward I I I I #
face $-1 $208 $209 $68 $-1 $210 forward single #
loop $-1 $211 $212 $86 #
cone-surface $-1 71.217182565144896 19.549417605724457 11.081907556874823 -0.73135370988377701 0 -0.68199835119979291 0.68199835119979291 0 -0.73135370988377701 1 I I 0 1 1 forward I I I I #
face $-1 $213 $214 $69 $-1 $215 reversed single #
loop $-1 $-1 $216 $87 #
plane-surface $-1 85.552368929756426 38.223994469747602 226.82006670257252 0 -1 0 -0.73135370988377701 0 -0.68199835119979291 forward_v I I I I #
face $-1 $217 $218 $70 $-1 $219 forward single #
loop $-1 $220 $221 $88 #
cone-surface $-1 71.217182565144896 31.20047233261981 11.081907556874823 -0.73135370988377701 0 -0.68199835119979291 0.68199835119979291 0 -0.73135370988377701 1 I I 0 1 1 forward I I I I #
face $-1 $222 $223 $71 $-1 $224 forward single #
loop $-1 $225 $226 $89 #
cone-surface $-1 71.217182565144896 35.414585614896481 11.081907556874823 -0.73135370988377701 0 -0.68199835119979291 0.68199835119979291 0 -0.73135370988377701 1 I I 0 1 1 forward I I I I #
face $-1 $227 $228 $54 $-1 $229 reversed single #
loop $-1 $-1 $230 $90 #
plane-surface $-1 0 0 -18.019258766027377 0 0 1 1 0 0 forward_v I I I I #
coedge $-1 $231 $232 $233 $234 forward $91 $-1 #
face $-1 $235 $236 $55 $-1 $237 reversed single #
loop $-1 $-1 $238 $93 #
plane-surface $-1 0 -21.826725385325844 13.174620442376408 0 -1 0 0 0 -1 forward_v I I I I #
coedge $-1 $239 $240 $241 $242 reversed $94 $-1 #
face $-1 $243 $244 $56 $-1 $245 forward single #
loop $-1 $-1 $246 $96 #
plane-surface $-1 -77.86614581743828 34.03529764532739 2.6608110946009305 -0.79863551827123203 0 0.60181501223851219 0.60181501223851219 0 0.79863551827123203 forward_v I I I I #
coedge $-1 $247 $248 $249 $250 reversed $97 $-1 #
face $-1 $-1 $251 $57 $-1 $252 forward single #
loop $-1 $253 $254 $99 #
cone-surface $-1 -68.757799813643402 29.948708649328182 7.8370027819516253 0.79863551827123203 0 -0.60181501223851219 0.3009075061192561 0 0.39931775913561601 1 I I -0.70710678118654746 0.70710678118654746 0.5 forward I I I I #
loop $-1 $-1 $255 $75 #
coedge $-1 $160 $160 $256 $257 reversed $100 $-1 #
face $-1 $-1 $258 $58 $-1 $259 forward single #
loop $-1 $260 $261 $102 #
cone-surface $-1 -68.757799813643402 34.03529764532739 7.8370027819516253 0.79863551827123203 0 -0.60181501223851219 0.3009075061192561 0 0.39931775913561601 1 I I -0.70710678118654746 0.70710678118654746 0.5 forward I I I I #
loop $-1 $-1 $262 $76 #
coedge $-1 $165 $165 $263 $264 reversed $103 $-1 #
face $-1 $-1 $265 $59 $-1 $266 forward single #
loop $-1 $267 $268 $105 #
cone-surface $-1 -68.757799813643402 38.121886641326597 7.8370027819516253 0.79863551827123203 0 -0.60181501223851219 0.3009075061192561 0 0.39931775913561601 1 I I -0.70710678118654746 0.70710678118654746 0.5 forward I I I I #
loop $-1 $-1 $269 $77 #
coedge $-1 $170 $170 $270 $271 reversed $106 $-1 #
face $-1 $272 $273 $60 $-1 $274 reversed single #
loop $-1 $-1 $275 $108 #
plane-surface $-1 -28.343020306112834 -14.287975053757918 120.6109005790214 0.73135370988377701 0 0.68199835119979291 0.68199835119979291 0 -0.73135370988377701 forward_v I I I I #
coedge $-1 $276 $277 $278 $279 reversed $109 $-1 #
face $-1 $-1 $280 $61 $-1 $281 forward single #
loop $-1 $282 $283 $111 #
cone-surface $-1 69.472999830720994 -16.39503169489625 9.4554308835599699 -0.73135370988377701 0 -0.68199835119979291 0.34099917559989645 0 -0.36567685494188851 1 I I -0.70710678118654746 0.70710678118654746 0.5 forward I I I I #
loop $-1 $-1 $284 $79 #
coedge $-1 $179 $179 $285 $286 reversed $112 $-1 #
face $-1 $-1 $287 $62 $-1 $288 forward single #
loop $-1 $289 $290 $114 #
cone-surface $-1 69.472999830720994 -12.180918412619583 9.4554308835599699 -0.73135370988377701 0 -0.68199835119979291 0.34099917559989645 0 -0.36567685494188851 1 I I -0.70710678118654746 0.70710678118654746 0.5 forward I I I I #
loop $-1 $-1 $291 $80 #
coedge $-1 $184 $184 $292 $293 reversed $115 $-1 #
face $-1 $294 $295 $63 $-1 $296 reversed single #
loop $-1 $-1 $297 $117 #
plane-surface $-1 -28.343020306112834 1.5771929554141053 120.6109005790214 0.73135370988377701 0 0.68199835119979291 0.68199835119979291 0 -0.73135370988377701 forward_v I I I I #
coedge $-1 $298 $299 $300 $301 reversed $118 $-1 #
face $-1 $-1 $302 $64 $-1 $303 forward single #
loop $-1 $304 $305 $120 #
cone-surface $-1 69.472999830720994 -0.52986368572423004 9.4554308835599699 -0.73135370988377701 0 -0.68199835119979291 0.34099917559989645 0 -0.36567685494188851 1 I I -0.70710678118654746 0.70710678118654746 0.5 forward I I I I #
loop $-1 $-1 $306 $82 #
coedge $-1 $193 $193 $307 $308 reversed $121 $-1 #
face $-1 $-1 $309 $65 $-1 $310 forward single #
loop $-1 $311 $312 $123 #
cone-surface $-1 69.472999830720994 3.6842495965524336 9.4554308835599699 -0.73135370988377701 0 -0.68199835119979291 0.34099917559989645 0 -0.36567685494188851 1 I I -0.70710678118654746 0.70710678118654746 0.5 forward I I I I #
loop $-1 $-1 $313 $83 #
coedge $-1 $198 $198 $314 $315 reversed $124 $-1 #
face $-1 $316 $317 $66 $-1 $318 reversed single #
loop $-1 $-1 $319 $126 #
plane-surface $-1 -28.343020306112834 17.442360964586129 120.6109005790214 0.73135370988377701 0 0.68199835119979291 0.68199835119979291 0 -0.73135370988377701 forward_v I I I I #
coedge $-1 $320 $321 $322 $323 reversed $127 $-1 #
face $-1 $-1 $324 $67 $-1 $325 forward single #
loop $-1 $326 $327 $129 #
cone-surface $-1 69.472999830720994 15.335304323447787 9.4554308835599699 -0.73135370988377701 0 -0.68199835119979291 0.34099917559989645 0 -0.36567685494188851 1 I I -0.70710678118654746 0.70710678118654746 0.5 forward I I I I #
loop $-1 $-1 $328 $85 #
coedge $-1 $207 $207 $329 $330 reversed $130 $-1 #
face $-1 $-1 $331 $68 $-1 $332 forward single #
loop $-1 $333 $334 $132 #
cone-surface $-1 69.472999830720994 19.549417605724457 9.4554308835599699 -0.73135370988377701 0 -0.68199835119979291 0.34099917559989645 0 -0.36567685494188851 1 I I -0.70710678118654746 0.70710678118654746 0.5 forward I I I I #
loop $-1 $-1 $335 $86 #
coedge $-1 $212 $212 $336 $337 reversed $133 $-1 #
face $-1 $338 $339 $69 $-1 $340 reversed single #
loop $-1 $-1 $341 $135 #
plane-surface $-1 -28.343020306112834 33.307528973758153 120.6109005790214 0.73135370988377701 0 0.68199835119979291 0.68199835119979291 0 -0.73135370988377701 forward_v I I I I #
coedge $-1 $342 $343 $344 $345 reversed $136 $-1 #
face $-1 $-1 $346 $70 $-1 $347 forward single #
loop $-1 $348 $349 $138 #
cone-surface $-1 69.472999830720994 31.20047233261981 9.4554308835599699 -0.73135370988377701 0 -0.68199835119979291 0.34099917559989645 0 -0.36567685494188851 1 I I -0.70710678118654746 0.70710678118654746 0.5 forward I I I I #
loop $-1 $-1 $350 $88 #
coedge $-1 $221 $221 $351 $352 reversed $139 $-1 #
face $-1 $-1 $353 $71 $-1 $354 forward single #
loop $-1 $355 $356 $141 #
cone-surface $-1 69.472999830720994 35.414585614896481 9.4554308835599699 -0.73135370988377701 0 -0.68199835119979291 0.34099917559989645 0 -0.36567685494188851 1 I I -0.70710678118654746 0.70710678118654746 0.5 forward I I I I #
loop $-1 $-1 $357 $89 #
coedge $-1 $226 $226 $358 $359 reversed $142 $-1 #
face $-1 $360 $361 $54 $-1 $362 reversed single #
loop $-1 $-1 $363 $144 #
plane-surface $-1 0 -40.846279305326078 0 0 1 0 0 0 1 forward_v I I I I #
coedge $-1 $364 $365 $366 $367 forward $145 $-1 #
coedge $-1 $368 $147 $369 $370 forward $91 $-1 #
coedge $-1 $147 $368 $371 $372 forward $91 $-1 #
coedge $-1 $373 $374 $147 $234 reversed $375 $-1 #
edge $-1 $376 -40.846279305326078 $377 40.846279305326078 $233 $378 forward 7 unknown #
face $-1 $379 $380 $55 $-1 $381 reversed single #
loop $-1 $-1 $382 $148 #
plane-surface $-1 -77.86614581743828 0 0 1 0 0 0 0 -1 forward_v I I I I #
coedge $-1 $383 $384 $385 $386 reversed $149 $-1 #
coedge $-1 $387 $151 $388 $389 reversed $94 $-1 #
coedge $-1 $151 $387 $383 $390 forward $94 $-1 #
coedge $-1 $385 $391 $151 $242 forward $392 $-1 #
edge $-1 $393 -25.178028132663098 $394 -6.1584742126628633 $241 $395 forward 7 unknown #
face $-1 $396 $397 $56 $-1 $398 reversed single #
loop $-1 $-1 $249 $152 #
plane-surface $-1 0 0 18.019258766027377 0 0 1 1 0 0 forward_v I I I I #
coedge $-1 $399 $400 $401 $402 reversed $153 $-1 #
coedge $-1 $248 $155 $403 $404 reversed $97 $-1 #
coedge $-1 $155 $247 $399 $405 reversed $97 $-1 #
coedge $-1 $401 $406 $155 $250 forward $244 $-1 #
edge $-1 $407 23.253596811974006 $408 34.8270169290154 $249 $409 forward 7 unknown #
loop $-1 $-1 $256 $156 #
plane-surface $-1 -77.86614581743828 34.03529764532739 2.6608110946009305 -0.79863551827123203 0 0.60181501223851219 0.60181501223851219 0 0.79863551827123203 forward_v I I I I #
loop $-1 $-1 $410 $99 #
coedge $-1 $254 $254 $255 $411 reversed $157 $-1 #
coedge $-1 $255 $255 $254 $411 forward $159 $-1 #
coedge $-1 $256 $256 $160 $257 forward $251 $-1 #
edge $-1 $412 0 $412 6.2831853071796004 $256 $413 forward 7 unknown #
loop $-1 $-1 $263 $161 #
plane-surface $-1 -77.86614581743828 34.03529764532739 2.6608110946009305 -0.79863551827123203 0 0.60181501223851219 0.60181501223851219 0 0.79863551827123203 forward_v I I I I #
loop $-1 $-1 $414 $102 #
coedge $-1 $261 $261 $262 $415 reversed $162 $-1 #
coedge $-1 $262 $262 $261 $415 forward $164 $-1 #
coedge $-1 $263 $263 $165 $264 forward $258 $-1 #
edge $-1 $416 0 $416 6.2831853071796004 $263 $417 forward 7 unknown #
loop $-1 $-1 $270 $166 #
plane-surface $-1 -77.86614581743828 34.03529764532739 2.6608110946009305 -0.79863551827123203 0 0.60181501223851219 0.60181501223851219 0 0.79863551827123203 forward_v I I I I #
loop $-1 $-1 $418 $105 #
coedge $-1 $268 $268 $269 $419 reversed $167 $-1 #
coedge $-1 $269 $269 $268 $419 forward $169 $-1 #
coedge $-1 $270 $270 $170 $271 forward $265 $-1 #
edge $-1 $420 0 $420 6.2831853071796004 $270 $421 forward 7 unknown #
face $-1 $422 $423 $60 $-1 $424 reversed single #
loop $-1 $-1 $425 $171 #
plane-surface $-1 85.552368929756426 -19.204440549747368 226.82006670257252 0 1 0 0.73135370988377701 0 0.68199835119979291 forward_v I I I I #
coedge $-1 $426 $427 $428 $429 reversed $172 $-1 #
coedge $-1 $277 $174 $430 $431 reversed $109 $-1 #
coedge $-1 $174 $276 $426 $432 reversed $109 $-1 #
coedge $-1 $428 $433 $174 $279 forward $434 $-1 #
edge $-1 $435 -35.089961352560067 $436 -24.549046606937296 $278 $437 forward 7 unknown #
loop $-1 $-1 $285 $175 #
plane-surface $-1 -28.343020306112834 -14.287975053757918 120.6109005790214 0.73135370988377701 0 0.68199835119979291 0.68199835119979291 0 -0.73135370988377701 forward_v I I I I #
loop $-1 $-1 $438 $111 #
coedge $-1 $283 $283 $284 $439 reversed $176 $-1 #
coedge $-1 $284 $284 $283 $439 forward $178 $-1 #
coedge $-1 $285 $285 $179 $286 forward $280 $-1 #
edge $-1 $440 0 $440 6.2831853071796004 $285 $441 forward 7 unknown #
loop $-1 $-1 $292 $180 #
plane-surface $-1 -28.343020306112834 -14.287975053757918 120.6109005790214 0.73135370988377701 0 0.68199835119979291 0.68199835119979291 0 -0.73135370988377701 forward_v I I I I #
loop $-1 $-1 $442 $114 #
coedge $-1 $290 $290 $291 $443 reversed $181 $-1 #
coedge $-1 $291 $291 $290 $443 forward $183 $-1 #
coedge $-1 $292 $292 $184 $293 forward $287 $-1 #
edge $-1 $444 0 $444 6.2831853071796004 $292 $445 forward 7 unknown #
face $-1 $446 $447 $63 $-1 $448 reversed single #
loop $-1 $-1 $449 $185 #
plane-surface $-1 85.552368929756426 -3.3392725405753421 226.82006670257252 0 1 0 0.73135370988377701 0 0.68199835119979291 forward_v I I I I #
coedge $-1 $450 $451 $452 $453 reversed $186 $-1 #
coedge $-1 $299 $188 $454 $455 reversed $118 $-1 #
coedge $-1 $188 $298 $450 $456 reversed $118 $-1 #
coedge $-1 $452 $457 $188 $301 forward $458 $-1 #
edge $-1 $459 -35.089961352560067 $460 -24.549046606937296 $300 $461 forward 7 unknown #
loop $-1 $-1 $307 $189 #
plane-surface $-1 -28.343020306112834 1.5771929554141053 120.6109005790214 0.73135370988377701 0 0.68199835119979291 0.68199835119979291 0 -0.73135370988377701 forward_v I I I I #
loop $-1 $-1 $462 $120 #
coedge $-1 $305 $305 $306 $463 reversed $190 $-1 #
coedge $-1 $306 $306 $305 $463 forward $192 $-1 #
coedge $-1 $307 $307 $193 $308 forward $302 $-1 #
edge $-1 $464 0 $464 6.2831853071796004 $307 $465 forward 7 unknown #
loop $-1 $-1 $314 $194 #
plane-surface $-1 -28.343020306112834 1.5771929554141053 120.6109005790214 0.73135370988377701 0 0.68199835119979291 0.68199835119979291 0 -0.73135370988377701 forward_v I I I I #
loop $-1 $-1 $466 $123 #
coedge $-1 $312 $312 $313 $467 reversed $195 $-1 #
coedge $-1 $313 $313 $312 $467 forward $197 $-1 #
coedge $-1 $314 $314 $198 $315 forward $309 $-1 #
edge $-1 $468 0 $468 6.2831853071796004 $314 $469 forward 7 unknown #
face $-1 $470 $471 $66 $-1 $472 reversed single #
loop $-1 $-1 $473 $199 #
plane-surface $-1 85.552368929756426 12.525895468596682 226.82006670257252 0 1 0 0.73135370988377701 0 0.68199835119979291 forward_v I I I I #
coedge $-1 $474 $475 $476 $477 reversed $200 $-1 #
coedge $-1 $321 $202 $478 $479 reversed $127 $-1 #
coedge $-1 $202 $320 $474 $480 reversed $127 $-1 #
coedge $-1 $476 $481 $202 $323 forward $482 $-1 #
edge $-1 $483 -35.089961352560067 $484 -24.549046606937296 $322 $485 forward 7 unknown #
loop $-1 $-1 $329 $203 #
plane-surface $-1 -28.343020306112834 17.442360964586129 120.6109005790214 0.73135370988377701 0 0.68199835119979291 0.68199835119979291 0 -0.73135370988377701 forward_v I I I I #
loop $-1 $-1 $486 $129 #
coedge $-1 $327 $327 $328 $487 reversed $204 $-1 #
coedge $-1 $328 $328 $327 $487 forward $206 $-1 #
coedge $-1 $329 $329 $207 $330 forward $324 $-1 #
edge $-1 $488 0 $488 6.2831853071796004 $329 $489 forward 7 unknown #
loop $-1 $-1 $336 $208 #
plane-surface $-1 -28.343020306112834 17.442360964586129 120.6109005790214 0.73135370988377701 0 0.68199835119979291 0.68199835119979291 0 -0.73135370988377701 forward_v I I I I #
loop $-1 $-1 $490 $132 #
coedge $-1 $334 $334 $335 $491 reversed $209 $-1 #
coedge $-1 $335 $335 $334 $491 forward $211 $-1 #
coedge $-1 $336 $336 $212 $337 forward $331 $-1 #
edge $-1 $492 0 $492 6.2831853071796004 $336 $493 forward 7 unknown #
face $-1 $494 $495 $69 $-1 $496 reversed single #
loop $-1 $-1 $497 $213 #
plane-surface $-1 85.552368929756426 28.391063477768704 226.82006670257252 0 1 0 0.73135370988377701 0 0.68199835119979291 forward_v I I I I #
coedge $-1 $498 $499 $500 $501 reversed $214 $-1 #
coedge $-1 $343 $216 $502 $503 reversed $136 $-1 #
coedge $-1 $216 $342 $498 $504 reversed $136 $-1 #
coedge $-1 $500 $505 $216 $345 forward $506 $-1 #
edge $-1 $507 -35.089961352560067 $508 -24.549046606937296 $344 $509 forward 7 unknown #
loop $-1 $-1 $351 $217 #
plane-surface $-1 -28.343020306112834 33.307528973758153 120.6109005790214 0.73135370988377701 0 0.68199835119979291 0.68199835119979291 0 -0.73135370988377701 forward_v I I I I #
loop $-1 $-1 $510 $138 #
coedge $-1 $349 $349 $350 $511 reversed $218 $-1 #
coedge $-1 $350 $350 $349 $511 forward $220 $-1 #
coedge $-1 $351 $351 $221 $352 forward $346 $-1 #
edge $-1 $512 0 $512 6.2831853071796004 $351 $513 forward 7 unknown #
loop $-1 $-1 $358 $222 #
plane-surface $-1 -28.343020306112834 33.307528973758153 120.6109005790214 0.73135370988377701 0 0.68199835119979291 0.68199835119979291 0 -0.73135370988377701 forward_v I I I I #
loop $-1 $-1 $514 $141 #
coedge $-1 $356 $356 $357 $515 reversed $223 $-1 #
coedge $-1 $357 $357 $356 $515 forward $225 $-1 #
coedge $-1 $358 $358 $226 $359 forward $353 $-1 #
edge $-1 $516 0 $516 6.2831853071796004 $358 $517 forward 7 unknown #
face $-1 $518 $519 $54 $-1 $520 reversed single #
loop $-1 $-1 $521 $227 #
plane-surface $-1 -77.86614581743828 0 0 1 0 0 0 0 -1 forward_v I I I I #
coedge $-1 $522 $371 $523 $524 forward $228 $-1 #
coedge $-1 $525 $230 $522 $526 forward $145 $-1 #
coedge $-1 $230 $525 $527 $528 forward $145 $-1 #
coedge $-1 $374 $373 $230 $367 reversed $375 $-1 #
edge $-1 $529 -40.846279305326078 $530 40.846279305326078 $366 $531 forward 7 unknown #
coedge $-1 $232 $231 $532 $533 forward $91 $-1 #
coedge $-1 $534 $535 $231 $370 reversed $519 $-1 #
edge $-1 $377 -77.86614581743828 $536 77.86614581743828 $369 $537 forward 7 unknown #
coedge $-1 $363 $538 $232 $372 reversed $228 $-1 #
edge $-1 $539 -77.86614581743828 $376 77.86614581743828 $371 $540 forward 7 unknown #
coedge $-1 $366 $233 $538 $541 forward $375 $-1 #
coedge $-1 $233 $366 $534 $542 reversed $375 $-1 #
loop $-1 $-1 $373 $518 #
vertex $-1 $234 $543 #
vertex $-1 $234 $544 #
straight-curve $-1 77.86614581743828 0 18.019258766027377 0 1 0 I I #
face $-1 $545 $546 $55 $-1 $547 forward single #
loop $-1 $-1 $388 $235 #
plane-surface $-1 0 -40.846279305326078 0 0 1 0 0 0 1 forward_v I I I I #
coedge $-1 $548 $549 $550 $551 forward $236 $-1 #
coedge $-1 $550 $238 $240 $390 reversed $149 $-1 #
coedge $-1 $238 $550 $552 $553 reversed $149 $-1 #
coedge $-1 $554 $241 $238 $386 forward $392 $-1 #
edge $-1 $394 1.7426718975372335 $555 11.431948544839173 $385 $556 forward 7 unknown #
coedge $-1 $240 $239 $548 $557 reversed $94 $-1 #
coedge $-1 $558 $559 $239 $389 forward $380 $-1 #
edge $-1 $560 -77.86614581743828 $393 77.86614581743828 $388 $561 forward 7 unknown #
edge $-1 $562 -77.86614581743828 $394 77.86614581743828 $383 $563 forward 7 unknown #
coedge $-1 $241 $554 $558 $564 forward $392 $-1 #
loop $-1 $-1 $385 $545 #
vertex $-1 $389 $565 #
vertex $-1 $242 $566 #
straight-curve $-1 77.86614581743828 -15.668251172662981 8.3299821187254377 0 1 0 I I #
face $-1 $-1 $567 $56 $-1 $568 reversed single #
loop $-1 $-1 $569 $243 #
plane-surface $-1 0 40.846279305326078 0 0 -1 0 0 0 -1 forward_v I I I I #
coedge $-1 $570 $246 $248 $405 forward $153 $-1 #
coedge $-1 $246 $570 $569 $571 reversed $153 $-1 #
coedge $-1 $572 $249 $246 $402 forward $244 $-1 #
edge $-1 $408 10.206667162665006 $573 23.828630482662383 $401 $574 forward 7 unknown #
coedge $-1 $575 $576 $247 $404 forward $567 $-1 #
edge $-1 $577 -45.530609950786925 $407 -30.172162279360478 $403 $578 forward 7 unknown #
edge $-1 $408 -19.230859785289965 $577 0 $248 $579 forward 7 unknown #
coedge $-1 $249 $572 $575 $580 forward $244 $-1 #
vertex $-1 $404 $581 #
vertex $-1 $250 $582 #
straight-curve $-1 -101.11974262941229 27.224315985328701 18.019258766027377 1 0 0 I I #
coedge $-1 $410 $410 $-1 $583 reversed $253 $-1 #
edge $-1 $584 0 $584 6.2831853071796004 $254 $585 forward 7 unknown #
vertex $-1 $257 $586 #
ellipse-curve $-1 -72.079435758917583 29.948708649328182 10.340034930314156 -0.79863551827123203 0 0.60181501223851219 0.60181501223851219 0 0.79863551827123203 1 I I #
coedge $-1 $414 $414 $-1 $587 reversed $260 $-1 #
edge $-1 $588 0 $588 6.2831853071796004 $261 $589 forward 7 unknown #
vertex $-1 $264 $590 #
ellipse-curve $-1 -72.079435758917583 34.03529764532739 10.340034930314156 -0.79863551827123203 0 0.60181501223851219 0.60181501223851219 0 0.79863551827123203 1 I I #
coedge $-1 $418 $418 $-1 $591 reversed $267 $-1 #
edge $-1 $592 0 $592 6.2831853071796004 $268 $593 forward 7 unknown #
vertex $-1 $271 $594 #
ellipse-curve $-1 -72.079435758917583 38.121886641326597 10.340034930314156 -0.79863551827123203 0 0.60181501223851219 0.60181501223851219 0 0.79863551827123203 1 I I #
face $-1 $-1 $434 $60 $-1 $595 forward single #
loop $-1 $-1 $596 $272 #
plane-surface $-1 77.86614581743828 0 0 -1 0 0 0 0 1 forward_v I I I I #
coedge $-1 $597 $598 $599 $600 reversed $273 $-1 #
coedge $-1 $601 $275 $277 $432 forward $172 $-1 #
coedge $-1 $275 $601 $597 $602 forward $172 $-1 #
coedge $-1 $599 $278 $275 $429 forward $434 $-1 #
edge $-1 $436 2.2275220308895118 $603 12.060453022868408 $428 $604 forward 7 unknown #
coedge $-1 $605 $606 $276 $431 forward $423 $-1 #
edge $-1 $607 -106.69452200813411 $435 -95.390774585258882 $430 $608 forward 7 unknown #
edge $-1 $436 140.27636754491522 $607 155.73229163487656 $277 $609 forward 7 unknown #
coedge $-1 $278 $599 $605 $610 forward $434 $-1 #
loop $-1 $-1 $599 $422 #
vertex $-1 $431 $611 #
vertex $-1 $279 $612 #
straight-curve $-1 42.776184464878213 -9.3715095577684711 18.019258766027377 -1 0 0 I I #
coedge $-1 $438 $438 $-1 $613 reversed $282 $-1 #
edge $-1 $614 0 $614 6.2831853071796004 $283 $615 forward 7 unknown #
vertex $-1 $286 $616 #
ellipse-curve $-1 72.595688444626887 -16.39503169489625 12.367385054589773 0.73135370988377701 0 0.68199835119979291 0.68199835119979291 0 -0.73135370988377701 1 I I #
coedge $-1 $442 $442 $-1 $617 reversed $289 $-1 #
edge $-1 $618 0 $618 6.2831853071796004 $290 $619 forward 7 unknown #
vertex $-1 $293 $620 #
ellipse-curve $-1 72.595688444626887 -12.180918412619583 12.367385054589773 0.73135370988377701 0 0.68199835119979291 0.68199835119979291 0 -0.73135370988377701 1 I I #
face $-1 $-1 $458 $63 $-1 $621 forward single #
loop $-1 $-1 $622 $294 #
plane-surface $-1 77.86614581743828 0 0 -1 0 0 0 0 1 forward_v I I I I #
coedge $-1 $623 $624 $625 $626 reversed $295 $-1 #
coedge $-1 $627 $297 $299 $456 forward $186 $-1 #
coedge $-1 $297 $627 $623 $628 forward $186 $-1 #
coedge $-1 $625 $300 $297 $453 forward $458 $-1 #
edge $-1 $460 -5.7050619736965 $629 4.1278690182823947 $452 $630 forward 7 unknown #
coedge $-1 $631 $632 $298 $455 forward $447 $-1 #
edge $-1 $633 -106.69452200813411 $459 -95.390774585258882 $454 $634 forward 7 unknown #
edge $-1 $460 140.27636754491522 $633 155.73229163487656 $299 $635 forward 7 unknown #
coedge $-1 $300 $625 $631 $636 forward $458 $-1 #
loop $-1 $-1 $625 $446 #
vertex $-1 $455 $637 #
vertex $-1 $301 $638 #
straight-curve $-1 42.776184464878213 6.4936584514035527 18.019258766027377 -1 0 0 I I #
coedge $-1 $462 $462 $-1 $639 reversed $304 $-1 #
edge $-1 $640 0 $640 6.2831853071796004 $305 $641 forward 7 unknown #
vertex $-1 $308 $642 #
ellipse-curve $-1 72.595688444626887 -0.52986368572423004 12.367385054589773 0.73135370988377701 0 0.68199835119979291 0.68199835119979291 0 -0.73135370988377701 1 I I #
coedge $-1 $466 $466 $-1 $643 reversed $311 $-1 #
edge $-1 $644 0 $644 6.2831853071796004 $312 $645 forward 7 unknown #
vertex $-1 $315 $646 #
ellipse-curve $-1 72.595688444626887 3.6842495965524336 12.367385054589773 0.73135370988377701 0 0.68199835119979291 0.68199835119979291 0 -0.73135370988377701 1 I I #
face $-1 $-1 $482 $66 $-1 $647 forward single #
loop $-1 $-1 $648 $316 #
plane-surface $-1 77.86614581743828 0 0 -1 0 0 0 0 1 forward_v I I I I #
coedge $-1 $649 $650 $651 $652 reversed $317 $-1 #
coedge $-1 $653 $319 $321 $480 forward $200 $-1 #
coedge $-1 $319 $653 $649 $654 forward $200 $-1 #
coedge $-1 $651 $322 $319 $477 forward $482 $-1 #
edge $-1 $484 -13.637645978282514 $655 -3.8047149863036172 $476 $656 forward 7 unknown #
coedge $-1 $657 $658 $320 $479 forward $471 $-1 #
edge $-1 $659 -106.69452200813411 $483 -95.390774585258882 $478 $660 forward 7 unknown #
edge $-1 $484 140.27636754491522 $659 155.73229163487656 $321 $661 forward 7 unknown #
coedge $-1 $322 $651 $657 $662 forward $482 $-1 #
loop $-1 $-1 $651 $470 #
vertex $-1 $479 $663 #
vertex $-1 $323 $664 #
straight-curve $-1 42.776184464878213 22.358826460575578 18.019258766027377 -1 0 0 I I #
coedge $-1 $486 $486 $-1 $665 reversed $326 $-1 #
edge $-1 $666 0 $666 6.2831853071796004 $327 $667 forward 7 unknown #
vertex $-1 $330 $668 #
ellipse-curve $-1 72.595688444626887 15.335304323447787 12.367385054589773 0.73135370988377701 0 0.68199835119979291 0.68199835119979291 0 -0.73135370988377701 1 I I #
coedge $-1 $490 $490 $-1 $669 reversed $333 $-1 #
edge $-1 $670 0 $670 6.2831853071796004 $334 $671 forward 7 unknown #
vertex $-1 $337 $672 #
ellipse-curve $-1 72.595688444626887 19.549417605724457 12.367385054589773 0.73135370988377701 0 0.68199835119979291 0.68199835119979291 0 -0.73135370988377701 1 I I #
face $-1 $-1 $506 $69 $-1 $673 forward single #
loop $-1 $-1 $674 $338 #
plane-surface $-1 77.86614581743828 0 0 -1 0 0 0 0 1 forward_v I I I I #
coedge $-1 $675 $676 $677 $678 reversed $339 $-1 #
coedge $-1 $679 $341 $343 $504 forward $214 $-1 #
coedge $-1 $341 $679 $675 $680 forward $214 $-1 #
coedge $-1 $677 $344 $341 $501 forward $506 $-1 #
edge $-1 $508 -21.570229982868526 $681 -11.737298990889627 $500 $682 forward 7 unknown #
coedge $-1 $683 $684 $342 $503 forward $495 $-1 #
edge $-1 $685 -106.69452200813411 $507 -95.390774585258882 $502 $686 forward 7 unknown #
edge $-1 $508 140.27636754491522 $685 155.73229163487656 $343 $687 forward 7 unknown #
coedge $-1 $344 $677 $683 $688 forward $506 $-1 #
loop $-1 $-1 $677 $494 #
vertex $-1 $503 $689 #
vertex $-1 $345 $690 #
straight-curve $-1 42.776184464878213 38.223994469747602 18.019258766027377 -1 0 0 I I #
coedge $-1 $510 $510 $-1 $691 reversed $348 $-1 #
edge $-1 $692 0 $692 6.2831853071796004 $349 $693 forward 7 unknown #
vertex $-1 $352 $694 #
ellipse-curve $-1 72.595688444626887 31.20047233261981 12.367385054589773 0.73135370988377701 0 0.68199835119979291 0.68199835119979291 0 -0.73135370988377701 1 I I #
coedge $-1 $514 $514 $-1 $695 reversed $355 $-1 #
edge $-1 $696 0 $696 6.2831853071796004 $356 $697 forward 7 unknown #
vertex $-1 $359 $698 #
ellipse-curve $-1 72.595688444626887 35.414585614896481 12.367385054589773 0.73135370988377701 0 0.68199835119979291 0.68199835119979291 0 -0.73135370988377701 1 I I #
face $-1 $-1 $375 $54 $-1 $699 reversed single #
loop $-1 $-1 $534 $360 #
plane-surface $-1 0 40.846279305326078 0 0 -1 0 0 0 -1 forward_v I I I I #
coedge $-1 $700 $532 $535 $701 forward $361 $-1 #
coedge $-1 $538 $363 $364 $526 reversed $228 $-1 #
coedge $-1 $532 $700 $363 $524 reversed $361 $-1 #
edge $-1 $539 -18.019258766027377 $702 18.019258766027377 $523 $703 forward 7 unknown #
coedge $-1 $365 $364 $700 $704 forward $145 $-1 #
edge $-1 $530 -77.86614581743828 $702 77.86614581743828 $522 $705 forward 7 unknown #
coedge $-1 $535 $534 $365 $528 reversed $519 $-1 #
edge $-1 $706 -77.86614581743828 $529 77.86614581743828 $527 $707 forward 7 unknown #
vertex $-1 $367 $708 #
vertex $-1 $541 $709 #
straight-curve $-1 77.86614581743828 0 -18.019258766027377 0 -1 0 I I #
coedge $-1 $521 $523 $368 $533 reversed $361 $-1 #
edge $-1 $536 -40.846279305326078 $539 40.846279305326078 $532 $710 forward 7 unknown #
coedge $-1 $527 $369 $374 $542 forward $519 $-1 #
coedge $-1 $369 $527 $521 $701 reversed $519 $-1 #
vertex $-1 $370 $711 #
straight-curve $-1 0 40.846279305326078 18.019258766027377 -1 0 0 I I #
coedge $-1 $371 $522 $373 $541 reversed $228 $-1 #
vertex $-1 $533 $712 #
straight-curve $-1 0 -40.846279305326078 18.019258766027377 1 0 0 I I #
edge $-1 $376 -18.019258766027377 $530 18.019258766027377 $373 $713 forward 7 unknown #
edge $-1 $377 -18.019258766027377 $529 18.019258766027377 $374 $714 forward 7 unknown #
point $-1 77.86614581743828 -40.846279305326078 18.019258766027377 #
point $-1 77.86614581743828 40.846279305326078 18.019258766027377 #
face $-1 $-1 $392 $55 $-1 $715 reversed single #
loop $-1 $-1 $552 $379 #
plane-surface $-1 0 0 18.019258766027377 0 0 1 1 0 0 forward_v I I I I #
coedge $-1 $716 $382 $387 $557 forward $236 $-1 #
coedge $-1 $382 $716 $717 $718 reversed $236 $-1 #
coedge $-1 $384 $383 $382 $551 reversed $149 $-1 #
edge $-1 $719 -11.431948544839173 $562 -1.7426718975372335 $382 $720 forward 7 unknown #
coedge $-1 $717 $721 $384 $553 forward $546 $-1 #
edge $-1 $555 -77.86614581743828 $719 77.86614581743828 $552 $722 forward 7 unknown #
coedge $-1 $391 $385 $721 $723 reversed $392 $-1 #
vertex $-1 $386 $724 #
straight-curve $-1 77.86614581743828 -21.826725385325844 6.5873102211882042 0 0 1 I I #
edge $-1 $562 6.1584742126628633 $560 25.178028132663098 $548 $725 forward 7 unknown #
coedge $-1 $726 $388 $391 $564 reversed $380 $-1 #
coedge $-1 $388 $726 $716 $727 forward $380 $-1 #
vertex $-1 $389 $728 #
straight-curve $-1 0 -40.846279305326078 8.3299821187254377 1 0 0 I I #
vertex $-1 $557 $729 #
straight-curve $-1 0 -21.826725385325844 8.3299821187254377 1 0 0 I I #
edge $-1 $730 -18.019258766027377 $393 -8.3299821187254377 $391 $731 forward 7 unknown #
point $-1 77.86614581743828 -40.846279305326078 8.3299821187254377 #
point $-1 77.86614581743828 -21.826725385325844 8.3299821187254377 #
loop $-1 $-1 $403 $396 #
plane-surface $-1 -77.86614581743828 0 0 1 0 0 0 0 -1 forward_v I I I I #
coedge $-1 $732 $733 $400 $571 forward $397 $-1 #
coedge $-1 $400 $399 $576 $734 reversed $153 $-1 #
edge $-1 $573 3.137138839974499 $735 22.367998625264466 $569 $736 forward 7 unknown #
coedge $-1 $406 $401 $733 $737 forward $244 $-1 #
vertex $-1 $737 $738 #
straight-curve $-1 -66.292725700396886 17.017648822663695 18.019258766027377 0 1 0 I I #
coedge $-1 $739 $403 $406 $580 reversed $567 $-1 #
coedge $-1 $403 $739 $570 $734 forward $567 $-1 #
vertex $-1 $404 $740 #
straight-curve $-1 -77.86614581743828 27.224315985328701 48.191421045387855 0 0 1 I I #
straight-curve $-1 -77.86614581743828 27.224315985328701 2.6608110946009305 -0.60181501223851219 0 -0.79863551827123203 I I #
edge $-1 $741 -40.846279305326078 $407 -27.224315985328701 $575 $742 forward 7 unknown #
point $-1 -77.86614581743828 27.224315985328701 18.019258766027377 #
point $-1 -66.292725700396886 27.224315985328701 18.019258766027377 #
edge $-1 $743 1 $743 0 $410 $-1 forward 7 unknown #
vertex $-1 $411 $744 #
ellipse-curve $-1 -69.157117572779015 29.948708649328182 8.1379102880708807 -0.79863551827123203 0 0.60181501223851219 0.60181501223851219 0 0.79863551827123203 1 I I #
point $-1 -71.477620746679079 29.948708649328182 11.138670448585389 #
edge $-1 $745 1 $745 0 $414 $-1 forward 7 unknown #
vertex $-1 $415 $746 #
ellipse-curve $-1 -69.157117572779015 34.03529764532739 8.1379102880708807 -0.79863551827123203 0 0.60181501223851219 0.60181501223851219 0 0.79863551827123203 1 I I #
point $-1 -71.477620746679079 34.03529764532739 11.138670448585389 #
edge $-1 $747 1 $747 0 $418 $-1 forward 7 unknown #
vertex $-1 $419 $748 #
ellipse-curve $-1 -69.157117572779015 38.121886641326597 8.1379102880708807 -0.79863551827123203 0 0.60181501223851219 0.60181501223851219 0 0.79863551827123203 1 I I #
point $-1 -71.477620746679079 38.121886641326597 11.138670448585389 #
plane-surface $-1 0 0 18.019258766027377 0 0 1 1 0 0 forward_v I I I I #
coedge $-1 $606 $605 $598 $749 forward $423 $-1 #
coedge $-1 $598 $425 $427 $602 reversed $273 $-1 #
coedge $-1 $425 $597 $596 $749 reversed $273 $-1 #
coedge $-1 $433 $428 $425 $600 forward $434 $-1 #
edge $-1 $603 24.549046606937296 $750 35.089961352560067 $599 $751 forward 7 unknown #
coedge $-1 $427 $426 $606 $752 reversed $172 $-1 #
edge $-1 $753 -155.73229163487656 $603 -140.27636754491522 $597 $754 forward 7 unknown #
vertex $-1 $429 $755 #
straight-curve $-1 67.325231071815523 -7.1439875268789592 18.019258766027363 0 -1 0 I I #
coedge $-1 $596 $430 $433 $610 reversed $423 $-1 #
coedge $-1 $430 $596 $601 $752 forward $423 $-1 #
vertex $-1 $431 $756 #
straight-curve $-1 77.86614581743828 -9.3715095577684711 113.41003335128626 0 0 1 I I #
straight-curve $-1 -28.343020306112834 -9.3715095577684711 120.6109005790214 0.68199835119979291 0 -0.73135370988377701 I I #
edge $-1 $750 -19.204440549747368 $435 -9.3715095577684711 $605 $757 forward 7 unknown #
point $-1 77.86614581743828 -9.3715095577684711 18.019258766027377 #
point $-1 67.325231071815509 -9.3715095577684711 18.019258766027392 #
edge $-1 $758 1 $758 0 $438 $-1 forward 7 unknown #
vertex $-1 $439 $759 #
ellipse-curve $-1 69.838676685662875 -16.39503169489625 9.7964300591598672 0.73135370988377701 0 0.68199835119979291 0.68199835119979291 0 -0.73135370988377701 1 I I #
point $-1 73.277686795826682 -16.39503169489625 11.636031344706003 #
edge $-1 $760 1 $760 0 $442 $-1 forward 7 unknown #
vertex $-1 $443 $761 #
ellipse-curve $-1 69.838676685662875 -12.180918412619583 9.7964300591598672 0.73135370988377701 0 0.68199835119979291 0.68199835119979291 0 -0.73135370988377701 1 I I #
point $-1 73.277686795826682 -12.180918412619583 11.636031344706003 #
plane-surface $-1 0 0 18.019258766027377 0 0 1 1 0 0 forward_v I I I I #
coedge $-1 $632 $631 $624 $762 forward $447 $-1 #
coedge $-1 $624 $449 $451 $628 reversed $295 $-1 #
coedge $-1 $449 $623 $622 $762 reversed $295 $-1 #
coedge $-1 $457 $452 $449 $626 forward $458 $-1 #
edge $-1 $629 24.549046606937296 $763 35.089961352560067 $625 $764 forward 7 unknown #
coedge $-1 $451 $450 $632 $765 reversed $186 $-1 #
edge $-1 $766 -155.73229163487656 $629 -140.27636754491522 $623 $767 forward 7 unknown #
vertex $-1 $453 $768 #
straight-curve $-1 67.325231071815523 0.78859647770705266 18.019258766027363 0 -1 0 I I #
coedge $-1 $622 $454 $457 $636 reversed $447 $-1 #
coedge $-1 $454 $622 $627 $765 forward $447 $-1 #
vertex $-1 $455 $769 #
straight-curve $-1 77.86614581743828 6.4936584514035527 113.41003335128626 0 0 1 I I #
straight-curve $-1 -28.343020306112834 6.4936584514035527 120.6109005790214 0.68199835119979291 0 -0.73135370988377701 I I #
edge $-1 $763 -3.3392725405753421 $459 6.4936584514035527 $631 $770 forward 7 unknown #
point $-1 77.86614581743828 6.4936584514035527 18.019258766027377 #
point $-1 67.325231071815509 6.4936584514035527 18.019258766027392 #
edge $-1 $771 1 $771 0 $462 $-1 forward 7 unknown #
vertex $-1 $463 $772 #
ellipse-curve $-1 69.838676685662875 -0.52986368572423004 9.7964300591598672 0.73135370988377701 0 0.68199835119979291 0.68199835119979291 0 -0.73135370988377701 1 I I #
point $-1 73.277686795826682 -0.52986368572423004 11.636031344706003 #
edge $-1 $773 1 $773 0 $466 $-1 forward 7 unknown #
vertex $-1 $467 $774 #
ellipse-curve $-1 69.838676685662875 3.6842495965524336 9.7964300591598672 0.73135370988377701 0 0.68199835119979291 0.68199835119979291 0 -0.73135370988377701 1 I I #
point $-1 73.277686795826682 3.6842495965524336 11.636031344706003 #
plane-surface $-1 0 0 18.019258766027377 0 0 1 1 0 0 forward_v I I I I #
coedge $-1 $658 $657 $650 $775 forward $471 $-1 #
coedge $-1 $650 $473 $475 $654 reversed $317 $-1 #
coedge $-1 $473 $649 $648 $775 reversed $317 $-1 #
coedge $-1 $481 $476 $473 $652 forward $482 $-1 #
edge $-1 $655 24.549046606937296 $776 35.089961352560067 $651 $777 forward 7 unknown #
coedge $-1 $475 $474 $658 $778 reversed $200 $-1 #
edge $-1 $779 -155.73229163487656 $655 -140.27636754491522 $649 $780 forward 7 unknown #
vertex $-1 $477 $781 #
straight-curve $-1 67.325231071815523 8.7211804822930645 18.019258766027363 0 -1 0 I I #
coedge $-1 $648 $478 $481 $662 reversed $471 $-1 #
coedge $-1 $478 $648 $653 $778 forward $471 $-1 #
vertex $-1 $479 $782 #
straight-curve $-1 77.86614581743828 22.358826460575578 113.41003335128626 0 0 1 I I #
straight-curve $-1 -28.343020306112834 22.358826460575578 120.6109005790214 0.68199835119979291 0 -0.73135370988377701 I I #
edge $-1 $776 12.525895468596682 $483 22.358826460575578 $657 $783 forward 7 unknown #
point $-1 77.86614581743828 22.358826460575578 18.019258766027377 #
point $-1 67.325231071815509 22.358826460575578 18.019258766027392 #
edge $-1 $784 1 $784 0 $486 $-1 forward 7 unknown #
vertex $-1 $487 $785 #
ellipse-curve $-1 69.838676685662875 15.335304323447787 9.7964300591598672 0.73135370988377701 0 0.68199835119979291 0.68199835119979291 0 -0.73135370988377701 1 I I #
point $-1 73.277686795826682 15.335304323447787 11.636031344706003 #
edge $-1 $786 1 $786 0 $490 $-1 forward 7 unknown #
vertex $-1 $491 $787 #
ellipse-curve $-1 69.838676685662875 19.549417605724457 9.7964300591598672 0.73135370988377701 0 0.68199835119979291 0.68199835119979291 0 -0.73135370988377701 1 I I #
point $-1 73.277686795826682 19.549417605724457 11.636031344706003 #
plane-surface $-1 0 0 18.019258766027377 0 0 1 1 0 0 forward_v I I I I #
coedge $-1 $684 $683 $676 $788 forward $495 $-1 #
coedge $-1 $676 $497 $499 $680 reversed $339 $-1 #
coedge $-1 $497 $675 $674 $788 reversed $339 $-1 #
coedge $-1 $505 $500 $497 $678 forward $506 $-1 #
edge $-1 $681 24.549046606937296 $789 35.089961352560067 $677 $790 forward 7 unknown #
coedge $-1 $499 $498 $684 $791 reversed $214 $-1 #
edge $-1 $792 -155.73229163487656 $681 -140.27636754491522 $675 $793 forward 7 unknown #
vertex $-1 $501 $794 #
straight-curve $-1 67.325231071815523 16.653764486879076 18.019258766027363 0 -1 0 I I #
coedge $-1 $674 $502 $505 $688 reversed $495 $-1 #
coedge $-1 $502 $674 $679 $791 forward $495 $-1 #
vertex $-1 $503 $795 #
straight-curve $-1 77.86614581743828 38.223994469747602 113.41003335128626 0 0 1 I I #
straight-curve $-1 -28.343020306112834 38.223994469747602 120.6109005790214 0.68199835119979291 0 -0.73135370988377701 I I #
edge $-1 $789 28.391063477768704 $507 38.223994469747602 $683 $796 forward 7 unknown #
point $-1 77.86614581743828 38.223994469747602 18.019258766027377 #
point $-1 67.325231071815509 38.223994469747602 18.019258766027392 #
edge $-1 $797 1 $797 0 $510 $-1 forward 7 unknown #
vertex $-1 $511 $798 #
ellipse-curve $-1 69.838676685662875 31.20047233261981 9.7964300591598672 0.73135370988377701 0 0.68199835119979291 0.68199835119979291 0 -0.73135370988377701 1 I I #
point $-1 73.277686795826682 31.20047233261981 11.636031344706003 #
edge $-1 $799 1 $799 0 $514 $-1 forward 7 unknown #
vertex $-1 $515 $800 #
ellipse-curve $-1 69.838676685662875 35.414585614896481 9.7964300591598672 0.73135370988377701 0 0.68199835119979291 0.68199835119979291 0 -0.73135370988377701 1 I I #
point $-1 73.277686795826682 35.414585614896481 11.636031344706003 #
plane-surface $-1 77.86614581743828 0 0 -1 0 0 0 0 1 forward_v I I I I #
coedge $-1 $523 $521 $525 $704 reversed $361 $-1 #
edge $-1 $536 -18.019258766027377 $706 18.019258766027377 $535 $801 forward 7 unknown #
vertex $-1 $704 $802 #
straight-curve $-1 -77.86614581743828 -40.846279305326078 0 0 0 -1 I I #
edge $-1 $702 -40.846279305326078 $706 40.846279305326078 $700 $803 forward 7 unknown #
straight-curve $-1 0 -40.846279305326078 -18.019258766027377 -1 0 0 I I #
vertex $-1 $528 $804 #
straight-curve $-1 0 40.846279305326078 -18.019258766027377 1 0 0 I I #
point $-1 77.86614581743828 40.846279305326078 -18.019258766027377 #
point $-1 77.86614581743828 -40.846279305326078 -18.019258766027377 #
straight-curve $-1 -77.86614581743828 0 18.019258766027377 0 -1 0 I I #
point $-1 -77.86614581743828 40.846279305326078 18.019258766027377 #
point $-1 -77.86614581743828 -40.846279305326078 18.019258766027377 #
straight-curve $-1 77.86614581743828 -40.846279305326078 0 0 0 -1 I I #
straight-curve $-1 77.86614581743828 40.846279305326078 0 0 0 -1 I I #
plane-surface $-1 77.86614581743828 0 0 -1 0 0 0 0 1 forward_v I I I I #
coedge $-1 $549 $548 $559 $727 reversed $236 $-1 #
coedge $-1 $805 $552 $549 $718 forward $546 $-1 #
edge $-1 $719 21.826725385325844 $806 40.846279305326078 $549 $807 forward 7 unknown #
vertex $-1 $718 $808 #
straight-curve $-1 -77.86614581743828 -21.826725385325844 6.5873102211882042 0 0 -1 I I #
coedge $-1 $552 $805 $554 $723 forward $546 $-1 #
straight-curve $-1 0 -21.826725385325844 18.019258766027377 -1 0 0 I I #
edge $-1 $730 -40.846279305326078 $555 -21.826725385325844 $554 $809 forward 7 unknown #
point $-1 77.86614581743828 -21.826725385325844 18.019258766027377 #
straight-curve $-1 -77.86614581743828 -15.668251172662981 8.3299821187254377 0 -1 0 I I #
coedge $-1 $559 $558 $805 $810 reversed $380 $-1 #
edge $-1 $806 -18.019258766027377 $560 -8.3299821187254377 $716 $811 forward 7 unknown #
point $-1 -77.86614581743828 -40.846279305326078 8.3299821187254377 #
point $-1 -77.86614581743828 -21.826725385325844 8.3299821187254377 #
vertex $-1 $723 $812 #
straight-curve $-1 77.86614581743828 -40.846279305326078 0 0 0 -1 I I #
coedge $-1 $733 $569 $739 $813 reversed $397 $-1 #
coedge $-1 $569 $732 $572 $737 reversed $397 $-1 #
edge $-1 $735 -23.828630482662383 $577 -10.206667162665006 $576 $814 forward 7 unknown #
vertex $-1 $571 $815 #
straight-curve $-1 -64.404748451023721 40.846279305326078 20.524689269379223 -0.60181501223851219 0 -0.79863551827123203 I I #
edge $-1 $573 66.292725700396886 $741 77.86614581743828 $733 $816 forward 7 unknown #
point $-1 -66.292725700396886 40.846279305326078 18.019258766027377 #
coedge $-1 $576 $575 $732 $813 forward $567 $-1 #
point $-1 -77.86614581743828 27.224315985328701 2.6608110946009305 #
vertex $-1 $737 $817 #
straight-curve $-1 -77.86614581743828 0 18.019258766027377 0 -1 0 I I #
vertex $-1 $583 $818 #
point $-1 -68.555302560540511 29.948708649328182 8.9365458063421137 #
vertex $-1 $587 $819 #
point $-1 -68.555302560540511 34.03529764532739 8.9365458063421137 #
vertex $-1 $591 $820 #
point $-1 -68.555302560540511 38.121886641326597 8.9365458063421137 #
edge $-1 $750 95.390774585258882 $753 106.69452200813411 $596 $821 forward 7 unknown #
vertex $-1 $610 $822 #
straight-curve $-1 42.776184464878213 -19.204440549747368 18.019258766027377 1 0 0 I I #
edge $-1 $753 -12.060453022868408 $607 -2.2275220308895118 $606 $823 forward 7 unknown #
vertex $-1 $752 $824 #
straight-curve $-1 -28.343020306112834 -19.204440549747368 120.6109005790214 -0.68199835119979291 0 0.73135370988377701 I I #
point $-1 67.325231071815509 -19.204440549747368 18.019258766027392 #
point $-1 77.86614581743828 -9.3715095577684711 6.7155113431521443 #
straight-curve $-1 77.86614581743828 0 18.019258766027377 0 1 0 I I #
vertex $-1 $613 $825 #
point $-1 70.52067503686267 -16.39503169489625 9.0650763492760902 #
vertex $-1 $617 $826 #
point $-1 70.52067503686267 -12.180918412619583 9.0650763492760902 #
edge $-1 $763 95.390774585258882 $766 106.69452200813411 $622 $827 forward 7 unknown #
vertex $-1 $636 $828 #
straight-curve $-1 42.776184464878213 -3.3392725405753421 18.019258766027377 1 0 0 I I #
edge $-1 $766 -4.1278690182823947 $633 5.7050619736965 $632 $829 forward 7 unknown #
vertex $-1 $765 $830 #
straight-curve $-1 -28.343020306112834 -3.3392725405753421 120.6109005790214 -0.68199835119979291 0 0.73135370988377701 I I #
point $-1 67.325231071815509 -3.3392725405753421 18.019258766027392 #
point $-1 77.86614581743828 6.4936584514035527 6.7155113431521443 #
straight-curve $-1 77.86614581743828 0 18.019258766027377 0 1 0 I I #
vertex $-1 $639 $831 #
point $-1 70.52067503686267 -0.52986368572423004 9.0650763492760902 #
vertex $-1 $643 $832 #
point $-1 70.52067503686267 3.6842495965524336 9.0650763492760902 #
edge $-1 $776 95.390774585258882 $779 106.69452200813411 $648 $833 forward 7 unknown #
vertex $-1 $662 $834 #
straight-curve $-1 42.776184464878213 12.525895468596682 18.019258766027377 1 0 0 I I #
edge $-1 $779 3.8047149863036172 $659 13.637645978282514 $658 $835 forward 7 unknown #
vertex $-1 $778 $836 #
straight-curve $-1 -28.343020306112834 12.525895468596682 120.6109005790214 -0.68199835119979291 0 0.73135370988377701 I I #
point $-1 67.325231071815509 12.525895468596682 18.019258766027392 #
point $-1 77.86614581743828 22.358826460575578 6.7155113431521443 #
straight-curve $-1 77.86614581743828 0 18.019258766027377 0 1 0 I I #
vertex $-1 $665 $837 #
point $-1 70.52067503686267 15.335304323447787 9.0650763492760902 #
vertex $-1 $669 $838 #
point $-1 70.52067503686267 19.549417605724457 9.0650763492760902 #
edge $-1 $789 95.390774585258882 $792 106.69452200813411 $674 $839 forward 7 unknown #
vertex $-1 $688 $840 #
straight-curve $-1 42.776184464878213 28.391063477768704 18.019258766027377 1 0 0 I I #
edge $-1 $792 11.737298990889627 $685 21.570229982868526 $684 $841 forward 7 unknown #
vertex $-1 $791 $842 #
straight-curve $-1 -28.343020306112834 28.391063477768704 120.6109005790214 -0.68199835119979291 0 0.73135370988377701 I I #
point $-1 67.325231071815509 28.391063477768704 18.019258766027392 #
point $-1 77.86614581743828 38.223994469747602 6.7155113431521443 #
straight-curve $-1 77.86614581743828 0 18.019258766027377 0 1 0 I I #
vertex $-1 $691 $843 #
point $-1 70.52067503686267 31.20047233261981 9.0650763492760902 #
vertex $-1 $695 $844 #
point $-1 70.52067503686267 35.414585614896481 9.0650763492760902 #
straight-curve $-1 -77.86614581743828 40.846279305326078 0 0 0 -1 I I #
point $-1 -77.86614581743828 -40.846279305326078 -18.019258766027377 #
straight-curve $-1 -77.86614581743828 0 -18.019258766027377 0 1 0 I I #
point $-1 -77.86614581743828 40.846279305326078 -18.019258766027377 #
coedge $-1 $721 $717 $726 $810 forward $546 $-1 #
vertex $-1 $718 $845 #
straight-curve $-1 -77.86614581743828 0 18.019258766027377 0 -1 0 I I #
point $-1 -77.86614581743828 -21.826725385325844 18.019258766027377 #
straight-curve $-1 77.86614581743828 0 18.019258766027377 0 1 0 I I #
edge $-1 $806 -77.86614581743828 $730 77.86614581743828 $726 $846 forward 7 unknown #
straight-curve $-1 -77.86614581743828 -40.846279305326078 0 0 0 -1 I I #
point $-1 77.86614581743828 -40.846279305326078 18.019258766027377 #
edge $-1 $741 -18.019258766027377 $735 -2.6608110946009305 $732 $847 forward 7 unknown #
straight-curve $-1 -77.86614581743828 17.017648822663695 2.6608110946009234 0 -1 0 I I #
point $-1 -77.86614581743828 40.846279305326078 2.6608110946009305 #
straight-curve $-1 0 40.846279305326078 18.019258766027377 -1 0 0 I I #
point $-1 -77.86614581743828 40.846279305326078 18.019258766027377 #
point $-1 -68.358482054507789 29.948708649328182 7.5360952758323689 #
point $-1 -68.358482054507789 34.03529764532739 7.5360952758323689 #
point $-1 -68.358482054507789 38.121886641326597 7.5360952758323689 #
straight-curve $-1 77.86614581743828 -19.204440549747368 113.41003335128626 0 0 -1 I I #
point $-1 77.86614581743828 -19.204440549747368 18.019258766027377 #
straight-curve $-1 77.86614581743828 -7.1439875268789592 6.7155113431521443 0 1 0 I I #
point $-1 77.86614581743828 -19.204440549747368 6.7155113431521443 #
point $-1 69.107322975779113 -16.39503169489625 9.1144317079600725 #
point $-1 69.107322975779113 -12.180918412619583 9.1144317079600725 #
straight-curve $-1 77.86614581743828 -3.3392725405753421 113.41003335128626 0 0 -1 I I #
point $-1 77.86614581743828 -3.3392725405753421 18.019258766027377 #
straight-curve $-1 77.86614581743828 0.78859647770705266 6.7155113431521443 0 1 0 I I #
point $-1 77.86614581743828 -3.3392725405753421 6.7155113431521443 #
point $-1 69.107322975779113 -0.52986368572423004 9.1144317079600725 #
point $-1 69.107322975779113 3.6842495965524336 9.1144317079600725 #
straight-curve $-1 77.86614581743828 12.525895468596682 113.41003335128626 0 0 -1 I I #
point $-1 77.86614581743828 12.525895468596682 18.019258766027377 #
straight-curve $-1 77.86614581743828 8.7211804822930645 6.7155113431521443 0 1 0 I I #
point $-1 77.86614581743828 12.525895468596682 6.7155113431521443 #
point $-1 69.107322975779113 15.335304323447787 9.1144317079600725 #
point $-1 69.107322975779113 19.549417605724457 9.1144317079600725 #
straight-curve $-1 77.86614581743828 28.391063477768704 113.41003335128626 0 0 -1 I I #
point $-1 77.86614581743828 28.391063477768704 18.019258766027377 #
straight-curve $-1 77.86614581743828 16.653764486879076 6.7155113431521443 0 1 0 I I #
point $-1 77.86614581743828 28.391063477768704 6.7155113431521443 #
point $-1 69.107322975779113 31.20047233261981 9.1144317079600725 #
point $-1 69.107322975779113 35.414585614896481 9.1144317079600725 #
point $-1 -77.86614581743828 -40.846279305326078 18.019258766027377 #
straight-curve $-1 0 -40.846279305326078 18.019258766027377 1 0 0 I I #
straight-curve $-1 -77.86614581743828 40.846279305326078 0 0 0 -1 I I #
End-of-ACIS-data 