500 0 17 0           
7 Unknown 11 ACIS 5.0 NT 24 Fri Mar 26 18:22:03 1999 
-1 9.9999999999999995e-007 1e-010 
body $-1 $17 $-1 $18 #
body $-1 $19 $-1 $20 #
body $-1 $21 $-1 $22 #
body $-1 $23 $-1 $24 #
body $-1 $25 $-1 $26 #
body $-1 $27 $-1 $28 #
body $-1 $29 $-1 $30 #
body $-1 $31 $-1 $32 #
body $-1 $33 $-1 $34 #
body $-1 $35 $-1 $36 #
body $-1 $37 $-1 $38 #
body $-1 $39 $-1 $40 #
body $-1 $41 $-1 $42 #
body $-1 $43 $-1 $44 #
body $-1 $45 $-1 $46 #
body $-1 $47 $-1 $48 #
body $-1 $49 $-1 $50 #
lump $-1 $-1 $51 $0 #
transform $-1 1 0 0 0 1 0 0 0 1 72.123783074434641 29.002710510635112 13.216427283629912 1 rotate no_reflect no_shear #
lump $-1 $-1 $52 $1 #
transform $-1 1 0 0 0 1 0 0 0 1 72.123783074434641 29.002710510635112 13.216427283629912 1 rotate no_reflect no_shear #
lump $-1 $-1 $53 $2 #
transform $-1 1 0 0 0 1 0 0 0 1 72.123783074434641 29.002710510635112 13.216427283629912 1 rotate no_reflect no_shear #
lump $-1 $-1 $54 $3 #
transform $-1 1 0 0 0 1 0 0 0 1 72.123783074434641 29.002710510635112 13.216427283629912 1 rotate no_reflect no_shear #
lump $-1 $-1 $55 $4 #
transform $-1 1 0 0 0 1 0 0 0 1 72.123783074434641 29.002710510635112 13.216427283629912 1 rotate no_reflect no_shear #
lump $-1 $-1 $56 $5 #
transform $-1 1 0 0 0 1 0 0 0 1 72.123783074434641 29.002710510635112 13.216427283629912 1 rotate no_reflect no_shear #
lump $-1 $-1 $57 $6 #
transform $-1 1 0 0 0 1 0 0 0 1 72.123783074434641 29.002710510635112 13.216427283629912 1 rotate no_reflect no_shear #
lump $-1 $-1 $58 $7 #
transform $-1 1 0 0 0 1 0 0 0 1 72.123783074434641 29.002710510635112 13.216427283629912 1 rotate no_reflect no_shear #
lump $-1 $-1 $59 $8 #
transform $-1 1 0 0 0 1 0 0 0 1 72.123783074434641 29.002710510635112 13.216427283629912 1 rotate no_reflect no_shear #
lump $-1 $-1 $60 $9 #
transform $-1 1 0 0 0 1 0 0 0 1 72.123783074434641 29.002710510635112 13.216427283629912 1 rotate no_reflect no_shear #
lump $-1 $-1 $61 $10 #
transform $-1 1 0 0 0 1 0 0 0 1 72.123783074434641 29.002710510635112 13.216427283629912 1 rotate no_reflect no_shear #
lump $-1 $-1 $62 $11 #
transform $-1 1 0 0 0 1 0 0 0 1 72.123783074434641 29.002710510635112 13.216427283629912 1 rotate no_reflect no_shear #
lump $-1 $-1 $63 $12 #
transform $-1 1 0 0 0 1 0 0 0 1 72.123783074434641 29.002710510635112 13.216427283629912 1 rotate no_reflect no_shear #
lump $-1 $-1 $64 $13 #
transform $-1 1 0 0 0 1 0 0 0 1 72.123783074434641 29.002710510635112 13.216427283629912 1 rotate no_reflect no_shear #
lump $-1 $-1 $65 $14 #
transform $-1 1 0 0 0 1 0 0 0 1 72.123783074434641 29.002710510635112 13.216427283629912 1 rotate no_reflect no_shear #
lump $-1 $-1 $66 $15 #
transform $-1 1 0 0 0 1 0 0 0 1 72.123783074434641 29.002710510635112 13.216427283629912 1 rotate no_reflect no_shear #
lump $-1 $-1 $67 $16 #
transform $-1 1 0 0 0 1 0 0 0 1 72.123783074434641 29.002710510635112 13.216427283629912 1 rotate no_reflect no_shear #
shell $-1 $-1 $-1 $68 $-1 $17 #
shell $-1 $-1 $-1 $69 $-1 $19 #
shell $-1 $-1 $-1 $70 $-1 $21 #
shell $-1 $-1 $-1 $71 $-1 $23 #
shell $-1 $-1 $-1 $72 $-1 $25 #
shell $-1 $-1 $-1 $73 $-1 $27 #
shell $-1 $-1 $-1 $74 $-1 $29 #
shell $-1 $-1 $-1 $75 $-1 $31 #
shell $-1 $-1 $-1 $76 $-1 $33 #
shell $-1 $-1 $-1 $77 $-1 $35 #
shell $-1 $-1 $-1 $78 $-1 $37 #
shell $-1 $-1 $-1 $79 $-1 $39 #
shell $-1 $-1 $-1 $80 $-1 $41 #
shell $-1 $-1 $-1 $81 $-1 $43 #
shell $-1 $-1 $-1 $82 $-1 $45 #
shell $-1 $-1 $-1 $83 $-1 $47 #
shell $-1 $-1 $-1 $84 $-1 $49 #
face $-1 $85 $86 $51 $-1 $87 forward single #
face $-1 $88 $89 $52 $-1 $90 reversed single #
face $-1 $91 $92 $53 $-1 $93 reversed single #
face $-1 $94 $95 $54 $-1 $96 reversed single #
face $-1 $97 $98 $55 $-1 $99 forward single #
face $-1 $100 $101 $56 $-1 $102 forward single #
face $-1 $103 $104 $57 $-1 $105 forward single #
face $-1 $106 $107 $58 $-1 $108 reversed single #
face $-1 $109 $110 $59 $-1 $111 forward single #
face $-1 $112 $113 $60 $-1 $114 forward single #
face $-1 $115 $116 $61 $-1 $117 forward single #
face $-1 $118 $119 $62 $-1 $120 reversed single #
face $-1 $121 $122 $63 $-1 $123 forward single #
face $-1 $124 $125 $64 $-1 $126 forward single #
face $-1 $127 $128 $65 $-1 $129 reversed single #
face $-1 $130 $131 $66 $-1 $132 forward single #
face $-1 $133 $134 $67 $-1 $135 forward single #
face $-1 $136 $137 $51 $-1 $138 reversed single #
loop $-1 $-1 $139 $68 #
plane-surface $-1 0 0 13.216427283629912 0 0 1 1 0 0 forward_v I I I I #
face $-1 $140 $141 $52 $-1 $142 reversed single #
loop $-1 $-1 $143 $69 #
plane-surface $-1 -66.076599046740355 0 6.8768821868030798 0 0 1 1 0 0 forward_v I I I I #
face $-1 $144 $145 $53 $-1 $146 reversed single #
loop $-1 $-1 $147 $70 #
plane-surface $-1 66.076599046740341 0 6.8768821868030798 0 0 1 1 0 0 forward_v I I I I #
face $-1 $148 $149 $54 $-1 $150 reversed single #
loop $-1 $-1 $151 $71 #
plane-surface $-1 -37.567155665215296 -144.20394026130117 92.664522321954934 -1 0 0 0 -0.79863551827123203 0.60181501223851219 forward_v I I I I #
face $-1 $152 $153 $55 $-1 $154 forward single #
loop $-1 $155 $156 $72 #
cone-surface $-1 -48.81451396445938 -25.179431684205635 8.7445574239526778 0 0.79863551827123203 -0.60181501223851219 1 0 0 1 I I 0 1 1 forward I I I I #
face $-1 $157 $158 $56 $-1 $159 forward single #
loop $-1 $160 $161 $73 #
cone-surface $-1 -44.596754602242846 -25.179431684205635 8.7445574239526778 0 0.79863551827123203 -0.60181501223851219 1 0 0 1 I I 0 1 1 forward I I I I #
face $-1 $162 $163 $57 $-1 $164 forward single #
loop $-1 $165 $166 $74 #
cone-surface $-1 -40.378995240026313 -25.179431684205635 8.7445574239526778 0 0.79863551827123203 -0.60181501223851219 1 0 0 1 I I 0 1 1 forward I I I I #
face $-1 $167 $168 $58 $-1 $169 reversed single #
loop $-1 $-1 $170 $75 #
plane-surface $-1 22.462259353830781 -144.20394026130117 92.664522321954934 -1 0 0 0 -0.79863551827123203 0.60181501223851219 forward_v I I I I #
face $-1 $171 $172 $59 $-1 $173 forward single #
loop $-1 $174 $175 $76 #
cone-surface $-1 11.214901054586704 -25.179431684205635 8.7445574239526778 0 0.79863551827123203 -0.60181501223851219 1 0 0 1 I I 0 1 1 forward I I I I #
face $-1 $176 $177 $60 $-1 $178 forward single #
loop $-1 $179 $180 $77 #
cone-surface $-1 15.43266041680323 -25.179431684205635 8.7445574239526778 0 0.79863551827123203 -0.60181501223851219 1 0 0 1 I I 0 1 1 forward I I I I #
face $-1 $181 $182 $61 $-1 $183 forward single #
loop $-1 $184 $185 $78 #
cone-surface $-1 19.650419779019757 -25.179431684205635 8.7445574239526778 0 0.79863551827123203 -0.60181501223851219 1 0 0 1 I I 0 1 1 forward I I I I #
face $-1 $186 $187 $62 $-1 $188 reversed single #
loop $-1 $-1 $189 $79 #
plane-surface $-1 -51.126496024407956 -9.8104914959407665 48.980243275017074 0 0.74314483375859142 0.66913059716165679 1 0 0 forward_v I I I I #
face $-1 $190 $191 $63 $-1 $192 forward single #
loop $-1 $193 $194 $80 #
cone-surface $-1 -54.942032736395724 24.745854574880603 8.6886593642763827 0 -0.74314483375859142 -0.66913059716165679 1 0 0 1 I I 0 1 1 forward I I I I #
face $-1 $195 $196 $64 $-1 $197 forward single #
loop $-1 $198 $199 $81 #
cone-surface $-1 -47.310959312420195 24.745854574880603 8.6886593642763827 0 -0.74314483375859142 -0.66913059716165679 1 0 0 1 I I 0 1 1 forward I I I I #
face $-1 $200 $201 $65 $-1 $202 reversed single #
loop $-1 $-1 $203 $82 #
plane-surface $-1 -7.1054273576010019e-015 97.386342069842115 145.50070335132557 1 0 0 0 -0.74314483375859142 -0.66913059716165679 forward_v I I I I #
face $-1 $204 $205 $66 $-1 $206 forward single #
loop $-1 $207 $208 $83 #
cone-surface $-1 5.0873822826503527 24.745854574880603 8.6886593642763827 0 -0.74314483375859142 -0.66913059716165679 1 0 0 1 I I 0 1 1 forward I I I I #
face $-1 $209 $210 $67 $-1 $211 forward single #
loop $-1 $212 $213 $84 #
cone-surface $-1 12.718455706625889 24.745854574880603 8.6886593642763827 0 -0.74314483375859142 -0.66913059716165679 1 0 0 1 I I 0 1 1 forward I I I I #
face $-1 $214 $215 $51 $-1 $216 reversed single #
loop $-1 $-1 $217 $85 #
plane-surface $-1 0 0 -13.216427283629912 0 0 1 1 0 0 forward_v I I I I #
coedge $-1 $218 $219 $220 $221 forward $86 $-1 #
face $-1 $222 $223 $52 $-1 $224 reversed single #
loop $-1 $-1 $225 $88 #
plane-surface $-1 -60.029415019046077 0 10.046654735216496 -1 0 0 0 0 1 forward_v I I I I #
coedge $-1 $226 $227 $228 $229 forward $89 $-1 #
face $-1 $230 $231 $53 $-1 $232 forward single #
loop $-1 $-1 $233 $91 #
plane-surface $-1 60.029415019046056 0 10.046654735216496 1 0 0 0 0 -1 forward_v I I I I #
coedge $-1 $234 $235 $236 $237 reversed $92 $-1 #
face $-1 $238 $239 $54 $-1 $240 reversed single #
loop $-1 $-1 $241 $94 #
plane-surface $-1 -44.596754602242846 -29.002710510635126 5.8541715346975707 0 -0.79863551827123203 0.60181501223851219 1 0 0 forward_v I I I I #
coedge $-1 $242 $243 $244 $245 reversed $95 $-1 #
face $-1 $-1 $246 $55 $-1 $247 forward single #
loop $-1 $248 $249 $97 #
cone-surface $-1 -48.81451396445938 -23.730763838522869 7.6529079326223624 0 0.79863551827123203 -0.60181501223851219 0.5 0 0 1 I I -0.70710678118654746 0.70710678118654746 0.5 forward I I I I #
loop $-1 $-1 $250 $72 #
coedge $-1 $156 $156 $251 $252 reversed $98 $-1 #
face $-1 $-1 $253 $56 $-1 $254 forward single #
loop $-1 $255 $256 $100 #
cone-surface $-1 -44.596754602242846 -23.730763838522869 7.6529079326223624 0 0.79863551827123203 -0.60181501223851219 0.5 0 0 1 I I -0.70710678118654746 0.70710678118654746 0.5 forward I I I I #
loop $-1 $-1 $257 $73 #
coedge $-1 $161 $161 $258 $259 reversed $101 $-1 #
face $-1 $-1 $260 $57 $-1 $261 forward single #
loop $-1 $262 $263 $103 #
cone-surface $-1 -40.378995240026313 -23.730763838522869 7.6529079326223624 0 0.79863551827123203 -0.60181501223851219 0.5 0 0 1 I I -0.70710678118654746 0.70710678118654746 0.5 forward I I I I #
loop $-1 $-1 $264 $74 #
coedge $-1 $166 $166 $265 $266 reversed $104 $-1 #
face $-1 $267 $268 $58 $-1 $269 reversed single #
loop $-1 $-1 $270 $106 #
plane-surface $-1 15.43266041680323 -29.002710510635126 5.8541715346975707 0 -0.79863551827123203 0.60181501223851219 1 0 0 forward_v I I I I #
coedge $-1 $271 $272 $273 $274 reversed $107 $-1 #
face $-1 $-1 $275 $59 $-1 $276 forward single #
loop $-1 $277 $278 $109 #
cone-surface $-1 11.214901054586704 -23.730763838522869 7.6529079326223624 0 0.79863551827123203 -0.60181501223851219 0.5 0 0 1 I I -0.70710678118654746 0.70710678118654746 0.5 forward I I I I #
loop $-1 $-1 $279 $76 #
coedge $-1 $175 $175 $280 $281 reversed $110 $-1 #
face $-1 $-1 $282 $60 $-1 $283 forward single #
loop $-1 $284 $285 $112 #
cone-surface $-1 15.43266041680323 -23.730763838522869 7.6529079326223624 0 0.79863551827123203 -0.60181501223851219 0.5 0 0 1 I I -0.70710678118654746 0.70710678118654746 0.5 forward I I I I #
loop $-1 $-1 $286 $77 #
coedge $-1 $180 $180 $287 $288 reversed $113 $-1 #
face $-1 $-1 $289 $61 $-1 $290 forward single #
loop $-1 $291 $292 $115 #
cone-surface $-1 19.650419779019757 -23.730763838522869 7.6529079326223624 0 0.79863551827123203 -0.60181501223851219 0.5 0 0 1 I I -0.70710678118654746 0.70710678118654746 0.5 forward I I I I #
loop $-1 $-1 $293 $78 #
coedge $-1 $185 $185 $294 $295 reversed $116 $-1 #
face $-1 $296 $297 $62 $-1 $298 reversed single #
loop $-1 $-1 $299 $118 #
plane-surface $-1 -42.223577029769835 97.386342069842115 145.50070335132557 -1 0 0 0 0.74314483375859142 0.66913059716165679 forward_v I I I I #
coedge $-1 $300 $301 $302 $303 reversed $119 $-1 #
face $-1 $-1 $304 $63 $-1 $305 forward single #
loop $-1 $306 $307 $121 #
cone-surface $-1 -54.942032736395724 23.423085347177853 7.4976326316229063 0 -0.74314483375859142 -0.66913059716165679 0.5 0 0 1 I I -0.70710678118654691 0.70710678118654813 0.5 forward I I I I #
loop $-1 $-1 $308 $80 #
coedge $-1 $194 $194 $309 $310 reversed $122 $-1 #
face $-1 $-1 $311 $64 $-1 $312 forward single #
loop $-1 $313 $314 $124 #
cone-surface $-1 -47.310959312420195 23.423085347177853 7.4976326316229063 0 -0.74314483375859142 -0.66913059716165679 0.5 0 0 1 I I -0.70710678118654691 0.70710678118654813 0.5 forward I I I I #
loop $-1 $-1 $315 $81 #
coedge $-1 $199 $199 $316 $317 reversed $125 $-1 #
face $-1 $318 $319 $65 $-1 $320 reversed single #
loop $-1 $-1 $321 $127 #
plane-surface $-1 8.9029189946381138 -9.8104914959407665 48.980243275017074 0 0.74314483375859142 0.66913059716165679 1 0 0 forward_v I I I I #
coedge $-1 $322 $323 $324 $325 reversed $128 $-1 #
face $-1 $-1 $326 $66 $-1 $327 forward single #
loop $-1 $328 $329 $130 #
cone-surface $-1 5.0873822826503527 23.423085347177853 7.4976326316229063 0 -0.74314483375859142 -0.66913059716165679 0.5 0 0 1 I I -0.70710678118654691 0.70710678118654813 0.5 forward I I I I #
loop $-1 $-1 $330 $83 #
coedge $-1 $208 $208 $331 $332 reversed $131 $-1 #
face $-1 $-1 $333 $67 $-1 $334 forward single #
loop $-1 $335 $336 $133 #
cone-surface $-1 12.718455706625889 23.423085347177853 7.4976326316229063 0 -0.74314483375859142 -0.66913059716165679 0.5 0 0 1 I I -0.70710678118654691 0.70710678118654813 0.5 forward I I I I #
loop $-1 $-1 $337 $84 #
coedge $-1 $213 $213 $338 $339 reversed $134 $-1 #
face $-1 $340 $341 $51 $-1 $342 reversed single #
loop $-1 $-1 $343 $136 #
plane-surface $-1 0 -29.002710510635112 0 0 1 0 0 0 1 forward_v I I I I #
coedge $-1 $344 $345 $346 $347 forward $137 $-1 #
coedge $-1 $348 $139 $349 $350 forward $86 $-1 #
coedge $-1 $139 $348 $351 $352 forward $86 $-1 #
coedge $-1 $353 $354 $139 $221 reversed $355 $-1 #
edge $-1 $356 -29.002710510635112 $357 29.002710510635112 $220 $358 forward 7 unknown #
face $-1 $359 $360 $52 $-1 $361 reversed single #
loop $-1 $-1 $362 $140 #
plane-surface $-1 0 29.002710510635112 0 0 -1 0 0 0 -1 forward_v I I I I #
coedge $-1 $228 $363 $364 $365 reversed $141 $-1 #
coedge $-1 $366 $143 $367 $368 reversed $89 $-1 #
coedge $-1 $143 $366 $369 $370 reversed $89 $-1 #
coedge $-1 $371 $225 $143 $229 reversed $141 $-1 #
edge $-1 $372 -29.002710510635112 $373 29.002710510635112 $228 $374 forward 7 unknown #
face $-1 $375 $376 $53 $-1 $377 reversed single #
loop $-1 $-1 $378 $144 #
plane-surface $-1 0 0 13.216427283629912 0 0 1 1 0 0 forward_v I I I I #
coedge $-1 $379 $380 $381 $382 reversed $145 $-1 #
coedge $-1 $383 $147 $384 $385 reversed $92 $-1 #
coedge $-1 $147 $383 $386 $387 reversed $92 $-1 #
coedge $-1 $388 $389 $147 $237 forward $390 $-1 #
edge $-1 $391 -29.002710510635112 $392 29.002710510635112 $236 $393 forward 7 unknown #
face $-1 $394 $395 $54 $-1 $396 forward single #
loop $-1 $-1 $397 $148 #
plane-surface $-1 -51.626353539270397 -144.20394026130117 92.664522321954934 1 0 0 0 0.79863551827123203 -0.60181501223851219 forward_v I I I I #
coedge $-1 $398 $399 $400 $401 reversed $149 $-1 #
coedge $-1 $243 $151 $402 $403 reversed $95 $-1 #
coedge $-1 $151 $242 $398 $404 reversed $95 $-1 #
coedge $-1 $400 $405 $151 $245 forward $395 $-1 #
edge $-1 $406 43.099259620015474 $407 48.647117099780111 $244 $408 forward 7 unknown #
loop $-1 $-1 $251 $152 #
plane-surface $-1 -44.596754602242846 -29.002710510635126 5.8541715346975707 0 -0.79863551827123203 0.60181501223851219 1 0 0 forward_v I I I I #
loop $-1 $-1 $409 $97 #
coedge $-1 $249 $249 $250 $410 reversed $153 $-1 #
coedge $-1 $250 $250 $249 $410 forward $155 $-1 #
coedge $-1 $251 $251 $156 $252 forward $246 $-1 #
edge $-1 $411 -6.7907904708357448e-016 $411 6.2831853071795996 $251 $412 forward 7 unknown #
loop $-1 $-1 $258 $157 #
plane-surface $-1 -44.596754602242846 -29.002710510635126 5.8541715346975707 0 -0.79863551827123203 0.60181501223851219 1 0 0 forward_v I I I I #
loop $-1 $-1 $413 $100 #
coedge $-1 $256 $256 $257 $414 reversed $158 $-1 #
coedge $-1 $257 $257 $256 $414 forward $160 $-1 #
coedge $-1 $258 $258 $161 $259 forward $253 $-1 #
edge $-1 $415 -6.7907904708357448e-016 $415 6.2831853071795996 $258 $416 forward 7 unknown #
loop $-1 $-1 $265 $162 #
plane-surface $-1 -44.596754602242846 -29.002710510635126 5.8541715346975707 0 -0.79863551827123203 0.60181501223851219 1 0 0 forward_v I I I I #
loop $-1 $-1 $417 $103 #
coedge $-1 $263 $263 $264 $418 reversed $163 $-1 #
coedge $-1 $264 $264 $263 $418 forward $165 $-1 #
coedge $-1 $265 $265 $166 $266 forward $260 $-1 #
edge $-1 $419 -6.7907904708357448e-016 $419 6.2831853071795996 $265 $420 forward 7 unknown #
face $-1 $421 $422 $58 $-1 $423 reversed single #
loop $-1 $-1 $424 $167 #
plane-surface $-1 8.4030614797756797 -144.20394026130117 92.664522321954934 1 0 0 0 0.79863551827123203 -0.60181501223851219 forward_v I I I I #
coedge $-1 $425 $426 $427 $428 reversed $168 $-1 #
coedge $-1 $272 $170 $429 $430 reversed $107 $-1 #
coedge $-1 $170 $271 $425 $431 reversed $107 $-1 #
coedge $-1 $427 $432 $170 $274 forward $433 $-1 #
edge $-1 $434 43.099259620015474 $435 48.647117099780111 $273 $436 forward 7 unknown #
loop $-1 $-1 $280 $171 #
plane-surface $-1 15.43266041680323 -29.002710510635126 5.8541715346975707 0 -0.79863551827123203 0.60181501223851219 1 0 0 forward_v I I I I #
loop $-1 $-1 $437 $109 #
coedge $-1 $278 $278 $279 $438 reversed $172 $-1 #
coedge $-1 $279 $279 $278 $438 forward $174 $-1 #
coedge $-1 $280 $280 $175 $281 forward $275 $-1 #
edge $-1 $439 -6.7907904708357448e-016 $439 6.2831853071795996 $280 $440 forward 7 unknown #
loop $-1 $-1 $287 $176 #
plane-surface $-1 15.43266041680323 -29.002710510635126 5.8541715346975707 0 -0.79863551827123203 0.60181501223851219 1 0 0 forward_v I I I I #
loop $-1 $-1 $441 $112 #
coedge $-1 $285 $285 $286 $442 reversed $177 $-1 #
coedge $-1 $286 $286 $285 $442 forward $179 $-1 #
coedge $-1 $287 $287 $180 $288 forward $282 $-1 #
edge $-1 $443 -6.7907904708357448e-016 $443 6.2831853071795996 $287 $444 forward 7 unknown #
loop $-1 $-1 $294 $181 #
plane-surface $-1 15.43266041680323 -29.002710510635126 5.8541715346975707 0 -0.79863551827123203 0.60181501223851219 1 0 0 forward_v I I I I #
loop $-1 $-1 $445 $115 #
coedge $-1 $292 $292 $293 $446 reversed $182 $-1 #
coedge $-1 $293 $293 $292 $446 forward $184 $-1 #
coedge $-1 $294 $294 $185 $295 forward $289 $-1 #
edge $-1 $447 -6.7907904708357448e-016 $447 6.2831853071795996 $294 $448 forward 7 unknown #
face $-1 $449 $450 $62 $-1 $451 forward single #
loop $-1 $-1 $452 $186 #
plane-surface $-1 0 29.002710510635112 0 0 -1 0 0 0 -1 forward_v I I I I #
coedge $-1 $453 $454 $455 $456 reversed $187 $-1 #
coedge $-1 $457 $189 $458 $459 reversed $119 $-1 #
coedge $-1 $189 $457 $453 $460 forward $119 $-1 #
coedge $-1 $455 $461 $189 $303 forward $450 $-1 #
edge $-1 $462 -34.466167006842099 $463 -16.660329017565857 $302 $464 forward 7 unknown #
loop $-1 $-1 $309 $190 #
plane-surface $-1 -51.126496024407956 -9.8104914959407665 48.980243275017074 0 0.74314483375859142 0.66913059716165679 1 0 0 forward_v I I I I #
loop $-1 $-1 $465 $121 #
coedge $-1 $307 $307 $308 $466 reversed $191 $-1 #
coedge $-1 $308 $308 $307 $466 forward $193 $-1 #
coedge $-1 $309 $309 $194 $310 forward $304 $-1 #
edge $-1 $467 1.5937087072809521e-015 $467 6.2831853071796022 $309 $468 forward 7 unknown #
loop $-1 $-1 $316 $195 #
plane-surface $-1 -51.126496024407956 -9.8104914959407665 48.980243275017074 0 0.74314483375859142 0.66913059716165679 1 0 0 forward_v I I I I #
loop $-1 $-1 $469 $124 #
coedge $-1 $314 $314 $315 $470 reversed $196 $-1 #
coedge $-1 $315 $315 $314 $470 forward $198 $-1 #
coedge $-1 $316 $316 $199 $317 forward $311 $-1 #
edge $-1 $471 1.5937087072809521e-015 $471 6.2831853071796022 $316 $472 forward 7 unknown #
face $-1 $473 $474 $65 $-1 $475 forward single #
loop $-1 $-1 $476 $200 #
plane-surface $-1 17.805837989276235 97.386342069842115 145.50070335132557 -1 0 0 0 0.74314483375859142 0.66913059716165679 forward_v I I I I #
coedge $-1 $477 $478 $479 $480 reversed $201 $-1 #
coedge $-1 $323 $203 $481 $482 reversed $128 $-1 #
coedge $-1 $203 $322 $477 $483 reversed $128 $-1 #
coedge $-1 $479 $484 $203 $325 forward $474 $-1 #
edge $-1 $485 19.690460524285946 $486 26.301778774148104 $324 $487 forward 7 unknown #
loop $-1 $-1 $331 $204 #
plane-surface $-1 8.9029189946381138 -9.8104914959407665 48.980243275017074 0 0.74314483375859142 0.66913059716165679 1 0 0 forward_v I I I I #
loop $-1 $-1 $488 $130 #
coedge $-1 $329 $329 $330 $489 reversed $205 $-1 #
coedge $-1 $330 $330 $329 $489 forward $207 $-1 #
coedge $-1 $331 $331 $208 $332 forward $326 $-1 #
edge $-1 $490 1.5937087072809521e-015 $490 6.2831853071796022 $331 $491 forward 7 unknown #
loop $-1 $-1 $338 $209 #
plane-surface $-1 8.9029189946381138 -9.8104914959407665 48.980243275017074 0 0.74314483375859142 0.66913059716165679 1 0 0 forward_v I I I I #
loop $-1 $-1 $492 $133 #
coedge $-1 $336 $336 $337 $493 reversed $210 $-1 #
coedge $-1 $337 $337 $336 $493 forward $212 $-1 #
coedge $-1 $338 $338 $213 $339 forward $333 $-1 #
edge $-1 $494 1.5937087072809521e-015 $494 6.2831853071796022 $338 $495 forward 7 unknown #
face $-1 $496 $497 $51 $-1 $498 reversed single #
loop $-1 $-1 $499 $214 #
plane-surface $-1 -72.123783074434641 0 0 1 0 0 0 0 -1 forward_v I I I I #
coedge $-1 $500 $351 $501 $502 forward $215 $-1 #
coedge $-1 $503 $217 $500 $504 forward $137 $-1 #
coedge $-1 $217 $503 $505 $506 forward $137 $-1 #
coedge $-1 $354 $353 $217 $347 reversed $355 $-1 #
edge $-1 $507 -29.002710510635112 $508 29.002710510635112 $346 $509 forward 7 unknown #
coedge $-1 $219 $218 $510 $511 forward $86 $-1 #
coedge $-1 $512 $513 $218 $350 reversed $497 $-1 #
edge $-1 $357 -72.123783074434641 $514 72.123783074434641 $349 $515 forward 7 unknown #
coedge $-1 $343 $516 $219 $352 reversed $215 $-1 #
edge $-1 $517 -72.123783074434641 $356 72.123783074434641 $351 $518 forward 7 unknown #
coedge $-1 $346 $220 $516 $519 forward $355 $-1 #
coedge $-1 $220 $346 $512 $520 reversed $355 $-1 #
loop $-1 $-1 $353 $496 #
vertex $-1 $221 $521 #
vertex $-1 $221 $522 #
straight-curve $-1 72.123783074434641 0 13.216427283629912 0 1 0 I I #
face $-1 $523 $524 $52 $-1 $525 forward single #
loop $-1 $-1 $526 $222 #
plane-surface $-1 -72.123783074434641 0 0 1 0 0 0 0 -1 forward_v I I I I #
coedge $-1 $369 $527 $371 $528 forward $223 $-1 #
coedge $-1 $225 $371 $529 $530 reversed $141 $-1 #
coedge $-1 $531 $367 $225 $365 forward $532 $-1 #
edge $-1 $373 1.8535548191948319 $533 8.193099916021664 $364 $534 forward 7 unknown #
coedge $-1 $227 $226 $526 $535 reversed $89 $-1 #
coedge $-1 $364 $536 $226 $368 forward $532 $-1 #
edge $-1 $537 -39.085483551064463 $373 -26.991115495675899 $367 $538 forward 7 unknown #
coedge $-1 $539 $362 $227 $370 forward $223 $-1 #
edge $-1 $372 26.991115495675899 $540 39.085483551064463 $369 $541 forward 7 unknown #
coedge $-1 $363 $228 $362 $528 reversed $141 $-1 #
vertex $-1 $370 $542 #
vertex $-1 $368 $543 #
straight-curve $-1 -60.029415019046077 0 6.8768821868030798 0 -1 0 I I #
face $-1 $544 $545 $53 $-1 $546 reversed single #
loop $-1 $-1 $547 $230 #
plane-surface $-1 0 -29.002710510635112 0 0 1 0 0 0 1 forward_v I I I I #
coedge $-1 $548 $549 $380 $550 forward $231 $-1 #
coedge $-1 $551 $233 $383 $552 reversed $145 $-1 #
coedge $-1 $233 $551 $378 $550 reversed $145 $-1 #
coedge $-1 $553 $386 $233 $382 forward $545 $-1 #
edge $-1 $554 1.8535548191948319 $555 8.193099916021664 $381 $556 forward 7 unknown #
coedge $-1 $235 $234 $379 $552 forward $92 $-1 #
coedge $-1 $557 $547 $234 $385 forward $376 $-1 #
edge $-1 $558 26.991115495675885 $391 39.085483551064456 $384 $559 forward 7 unknown #
coedge $-1 $381 $560 $235 $387 forward $545 $-1 #
edge $-1 $392 -39.085483551064456 $554 -26.991115495675885 $386 $561 forward 7 unknown #
coedge $-1 $562 $236 $560 $563 reversed $390 $-1 #
coedge $-1 $236 $562 $557 $564 forward $390 $-1 #
loop $-1 $-1 $236 $544 #
vertex $-1 $385 $565 #
vertex $-1 $237 $566 #
straight-curve $-1 72.123783074434641 0 6.8768821868030798 0 1 0 I I #
face $-1 $-1 $567 $54 $-1 $568 reversed single #
loop $-1 $-1 $244 $238 #
plane-surface $-1 0 0 13.216427283629912 0 0 1 1 0 0 forward_v I I I I #
coedge $-1 $569 $570 $571 $572 reversed $239 $-1 #
coedge $-1 $573 $241 $243 $404 forward $149 $-1 #
coedge $-1 $241 $573 $569 $574 forward $149 $-1 #
coedge $-1 $571 $244 $241 $401 forward $395 $-1 #
edge $-1 $407 15.268778364093873 $575 29.327976238148974 $400 $576 forward 7 unknown #
coedge $-1 $577 $578 $242 $403 forward $567 $-1 #
edge $-1 $579 -40.478089626279875 $406 -33.115833877347555 $402 $580 forward 7 unknown #
edge $-1 $407 -9.2185428527760234 $579 -2.3448253187574213e-014 $243 $581 forward 7 unknown #
coedge $-1 $244 $571 $577 $582 forward $395 $-1 #
vertex $-1 $403 $583 #
vertex $-1 $245 $584 #
straight-curve $-1 -37.567155665215296 -72.101970130650585 13.216427283629912 0 1 0 I I #
coedge $-1 $409 $409 $-1 $585 reversed $248 $-1 #
edge $-1 $586 0 $586 6.2831853071796004 $249 $587 forward 7 unknown #
vertex $-1 $252 $588 #
ellipse-curve $-1 -48.81451396445938 -26.228781770752796 9.5352994091637449 0 -0.79863551827123203 0.60181501223851219 1 0 0 1 I I #
coedge $-1 $413 $413 $-1 $589 reversed $255 $-1 #
edge $-1 $590 0 $590 6.2831853071796004 $256 $591 forward 7 unknown #
vertex $-1 $259 $592 #
ellipse-curve $-1 -44.596754602242846 -26.228781770752796 9.5352994091637449 0 -0.79863551827123203 0.60181501223851219 1 0 0 1 I I #
coedge $-1 $417 $417 $-1 $593 reversed $262 $-1 #
edge $-1 $594 0 $594 6.2831853071796004 $263 $595 forward 7 unknown #
vertex $-1 $266 $596 #
ellipse-curve $-1 -40.378995240026313 -26.228781770752796 9.5352994091637449 0 -0.79863551827123203 0.60181501223851219 1 0 0 1 I I #
face $-1 $-1 $433 $58 $-1 $597 forward single #
loop $-1 $-1 $598 $267 #
plane-surface $-1 0 -29.002710510635112 0 0 1 0 0 0 1 forward_v I I I I #
coedge $-1 $599 $600 $601 $602 reversed $268 $-1 #
coedge $-1 $603 $270 $272 $431 forward $168 $-1 #
coedge $-1 $270 $603 $599 $604 forward $168 $-1 #
coedge $-1 $601 $273 $270 $428 forward $433 $-1 #
edge $-1 $435 -14.745929145429166 $605 -0.68673127137406453 $427 $606 forward 7 unknown #
coedge $-1 $607 $608 $271 $430 forward $422 $-1 #
edge $-1 $609 -40.478089626279875 $434 -33.115833877347555 $429 $610 forward 7 unknown #
edge $-1 $435 -9.2185428527760234 $609 -2.3448253187574213e-014 $272 $611 forward 7 unknown #
coedge $-1 $273 $601 $607 $612 forward $433 $-1 #
loop $-1 $-1 $601 $421 #
vertex $-1 $430 $613 #
vertex $-1 $274 $614 #
straight-curve $-1 22.462259353830781 -72.101970130650585 13.216427283629912 0 1 0 I I #
coedge $-1 $437 $437 $-1 $615 reversed $277 $-1 #
edge $-1 $616 0 $616 6.2831853071796004 $278 $617 forward 7 unknown #
vertex $-1 $281 $618 #
ellipse-curve $-1 11.214901054586704 -26.228781770752796 9.5352994091637449 0 -0.79863551827123203 0.60181501223851219 1 0 0 1 I I #
coedge $-1 $441 $441 $-1 $619 reversed $284 $-1 #
edge $-1 $620 0 $620 6.2831853071796004 $285 $621 forward 7 unknown #
vertex $-1 $288 $622 #
ellipse-curve $-1 15.43266041680323 -26.228781770752796 9.5352994091637449 0 -0.79863551827123203 0.60181501223851219 1 0 0 1 I I #
coedge $-1 $445 $445 $-1 $623 reversed $291 $-1 #
edge $-1 $624 0 $624 6.2831853071796004 $292 $625 forward 7 unknown #
vertex $-1 $295 $626 #
ellipse-curve $-1 19.650419779019757 -26.228781770752796 9.5352994091637449 0 -0.79863551827123203 0.60181501223851219 1 0 0 1 I I #
face $-1 $-1 $627 $62 $-1 $628 forward single #
loop $-1 $-1 $455 $296 #
plane-surface $-1 0 0 13.216427283629912 0 0 1 1 0 0 forward_v I I I I #
coedge $-1 $629 $630 $454 $631 forward $297 $-1 #
coedge $-1 $454 $299 $301 $460 reversed $187 $-1 #
coedge $-1 $299 $453 $452 $631 reversed $187 $-1 #
coedge $-1 $632 $302 $299 $456 forward $450 $-1 #
edge $-1 $463 -26.301778774148104 $633 -19.690460524285946 $455 $634 forward 7 unknown #
coedge $-1 $301 $300 $629 $635 reversed $119 $-1 #
coedge $-1 $636 $637 $300 $459 forward $627 $-1 #
edge $-1 $638 -40.256523413188383 $462 -30.376063189270518 $458 $639 forward 7 unknown #
edge $-1 $640 -58.005421021270237 $463 -48.124960797352372 $453 $641 forward 7 unknown #
coedge $-1 $302 $632 $636 $642 forward $450 $-1 #
vertex $-1 $459 $643 #
vertex $-1 $303 $644 #
straight-curve $-1 -25.563248012203978 22.391392260772953 13.216427283629908 1 0 0 I I #
coedge $-1 $465 $465 $-1 $645 reversed $306 $-1 #
edge $-1 $646 0 $646 6.2831853071796004 $307 $647 forward 7 unknown #
vertex $-1 $310 $648 #
ellipse-curve $-1 -54.942032736395724 25.697051385704029 9.5451207983490036 0 0.74314483375859142 0.66913059716165679 1 0 0 1 I I #
coedge $-1 $469 $469 $-1 $649 reversed $313 $-1 #
edge $-1 $650 0 $650 6.2831853071796004 $314 $651 forward 7 unknown #
vertex $-1 $317 $652 #
ellipse-curve $-1 -47.310959312420195 25.697051385704029 9.5451207983490036 0 0.74314483375859142 0.66913059716165679 1 0 0 1 I I #
face $-1 $-1 $653 $65 $-1 $654 reversed single #
loop $-1 $-1 $324 $318 #
plane-surface $-1 0 0 13.216427283629912 0 0 1 1 0 0 forward_v I I I I #
coedge $-1 $655 $656 $657 $658 reversed $319 $-1 #
coedge $-1 $659 $321 $323 $483 forward $201 $-1 #
coedge $-1 $321 $659 $655 $660 forward $201 $-1 #
coedge $-1 $657 $324 $321 $480 forward $474 $-1 #
edge $-1 $486 -4.451459497319064 $661 13.354378491957178 $479 $662 forward 7 unknown #
coedge $-1 $663 $664 $322 $482 forward $653 $-1 #
edge $-1 $665 -66.876537362594689 $485 -59.533924392032873 $481 $666 forward 7 unknown #
edge $-1 $486 48.124960797352372 $665 58.005421021270237 $323 $667 forward 7 unknown #
coedge $-1 $324 $657 $663 $668 forward $474 $-1 #
vertex $-1 $482 $669 #
vertex $-1 $325 $670 #
straight-curve $-1 -7.1054273576010019e-015 48.693171034921058 13.216427283629912 0 -1 0 I I #
coedge $-1 $488 $488 $-1 $671 reversed $328 $-1 #
edge $-1 $672 0 $672 6.2831853071796004 $329 $673 forward 7 unknown #
vertex $-1 $332 $674 #
ellipse-curve $-1 5.0873822826503527 25.697051385704029 9.5451207983490036 0 0.74314483375859142 0.66913059716165679 1 0 0 1 I I #
coedge $-1 $492 $492 $-1 $675 reversed $335 $-1 #
edge $-1 $676 0 $676 6.2831853071796004 $336 $677 forward 7 unknown #
vertex $-1 $339 $678 #
ellipse-curve $-1 12.718455706625889 25.697051385704029 9.5451207983490036 0 0.74314483375859142 0.66913059716165679 1 0 0 1 I I #
face $-1 $-1 $355 $51 $-1 $679 reversed single #
loop $-1 $-1 $512 $340 #
plane-surface $-1 0 29.002710510635112 0 0 -1 0 0 0 -1 forward_v I I I I #
coedge $-1 $680 $510 $513 $681 forward $341 $-1 #
coedge $-1 $516 $343 $344 $504 reversed $215 $-1 #
coedge $-1 $510 $680 $343 $502 reversed $341 $-1 #
edge $-1 $517 -13.216427283629912 $682 13.216427283629912 $501 $683 forward 7 unknown #
coedge $-1 $345 $344 $680 $684 forward $137 $-1 #
edge $-1 $508 -72.123783074434641 $682 72.123783074434641 $500 $685 forward 7 unknown #
coedge $-1 $513 $512 $345 $506 reversed $497 $-1 #
edge $-1 $686 -72.123783074434641 $507 72.123783074434641 $505 $687 forward 7 unknown #
vertex $-1 $347 $688 #
vertex $-1 $519 $689 #
straight-curve $-1 72.123783074434641 0 -13.216427283629912 0 -1 0 I I #
coedge $-1 $499 $501 $348 $511 reversed $341 $-1 #
edge $-1 $514 -29.002710510635112 $517 29.002710510635112 $510 $690 forward 7 unknown #
coedge $-1 $505 $349 $354 $520 forward $497 $-1 #
coedge $-1 $349 $505 $499 $681 reversed $497 $-1 #
vertex $-1 $350 $691 #
straight-curve $-1 0 29.002710510635112 13.216427283629912 -1 0 0 I I #
coedge $-1 $351 $500 $353 $519 reversed $215 $-1 #
vertex $-1 $511 $692 #
straight-curve $-1 0 -29.002710510635112 13.216427283629912 1 0 0 I I #
edge $-1 $356 -13.216427283629912 $508 13.216427283629912 $353 $693 forward 7 unknown #
edge $-1 $357 -13.216427283629912 $507 13.216427283629912 $354 $694 forward 7 unknown #
point $-1 72.123783074434641 -29.002710510635112 13.216427283629912 #
point $-1 72.123783074434641 29.002710510635112 13.216427283629912 #
face $-1 $-1 $532 $52 $-1 $695 reversed single #
loop $-1 $-1 $529 $359 #
plane-surface $-1 0 0 13.216427283629912 0 0 1 1 0 0 forward_v I I I I #
coedge $-1 $696 $697 $366 $535 forward $360 $-1 #
coedge $-1 $362 $539 $698 $699 reversed $223 $-1 #
edge $-1 $700 -8.193099916021664 $372 -1.8535548191948319 $362 $701 forward 7 unknown #
coedge $-1 $698 $702 $363 $530 forward $524 $-1 #
edge $-1 $533 -29.002710510635112 $700 29.002710510635112 $529 $703 forward 7 unknown #
coedge $-1 $536 $364 $702 $704 reversed $532 $-1 #
loop $-1 $-1 $364 $523 #
vertex $-1 $365 $705 #
straight-curve $-1 -60.029415019046077 -29.002710510635112 5.0233273676082479 0 0 1 I I #
edge $-1 $540 -29.002710510635112 $537 29.002710510635112 $526 $706 forward 7 unknown #
coedge $-1 $367 $531 $696 $707 forward $532 $-1 #
vertex $-1 $535 $708 #
straight-curve $-1 -33.038299523370178 -29.002710510635112 6.8768821868030798 1 0 0 I I #
coedge $-1 $527 $369 $697 $709 reversed $223 $-1 #
vertex $-1 $535 $710 #
straight-curve $-1 -33.038299523370178 29.002710510635112 6.8768821868030798 -1 0 0 I I #
point $-1 -60.029415019046077 29.002710510635112 6.8768821868030798 #
point $-1 -60.029415019046077 -29.002710510635112 6.8768821868030798 #
face $-1 $-1 $390 $53 $-1 $711 reversed single #
loop $-1 $-1 $381 $375 #
plane-surface $-1 0 29.002710510635112 0 0 -1 0 0 0 -1 forward_v I I I I #
coedge $-1 $384 $712 $551 $713 forward $376 $-1 #
coedge $-1 $714 $378 $712 $715 forward $231 $-1 #
coedge $-1 $378 $714 $553 $716 forward $231 $-1 #
edge $-1 $555 -29.002710510635112 $717 29.002710510635112 $378 $718 forward 7 unknown #
coedge $-1 $380 $379 $547 $713 reversed $145 $-1 #
edge $-1 $558 -29.002710510635112 $554 29.002710510635112 $379 $719 forward 7 unknown #
coedge $-1 $560 $381 $549 $716 reversed $545 $-1 #
vertex $-1 $387 $720 #
vertex $-1 $382 $721 #
straight-curve $-1 60.029415019046056 29.002710510635112 5.0233273676082479 0 0 1 I I #
coedge $-1 $712 $384 $389 $564 reversed $376 $-1 #
vertex $-1 $385 $722 #
straight-curve $-1 33.038299523370171 -29.002710510635112 6.8768821868030798 1 0 0 I I #
coedge $-1 $386 $553 $388 $563 forward $545 $-1 #
straight-curve $-1 33.038299523370171 29.002710510635112 6.8768821868030798 -1 0 0 I I #
coedge $-1 $389 $388 $714 $723 reversed $390 $-1 #
edge $-1 $724 -13.216427283629912 $392 -6.8768821868030798 $388 $725 forward 7 unknown #
edge $-1 $726 -13.216427283629912 $391 -6.8768821868030798 $389 $727 forward 7 unknown #
point $-1 72.123783074434627 -29.002710510635112 6.8768821868030798 #
point $-1 72.123783074434627 29.002710510635112 6.8768821868030798 #
loop $-1 $-1 $402 $394 #
plane-surface $-1 0 -29.002710510635112 0 0 1 0 0 0 1 forward_v I I I I #
coedge $-1 $570 $397 $399 $574 reversed $239 $-1 #
coedge $-1 $397 $569 $728 $729 reversed $239 $-1 #
coedge $-1 $405 $400 $397 $572 forward $395 $-1 #
edge $-1 $575 -48.647117099780111 $730 -43.099259620015474 $571 $731 forward 7 unknown #
coedge $-1 $399 $398 $578 $732 reversed $149 $-1 #
edge $-1 $733 2.3448253187574213e-014 $575 9.2185428527760234 $569 $734 forward 7 unknown #
vertex $-1 $401 $735 #
straight-curve $-1 -22.298377301121423 -23.454853030870474 13.216427283629912 -1 0 0 I I #
coedge $-1 $728 $402 $405 $582 reversed $567 $-1 #
coedge $-1 $402 $728 $573 $732 forward $567 $-1 #
vertex $-1 $403 $736 #
straight-curve $-1 -37.567155665215296 -29.002710510635112 46.332261160977467 0 0 1 I I #
straight-curve $-1 -37.567155665215296 -29.002710510635126 5.8541715346975707 0 -0.60181501223851219 -0.79863551827123203 I I #
edge $-1 $730 -51.626353539270397 $406 -37.567155665215296 $577 $737 forward 7 unknown #
point $-1 -37.567155665215296 -29.002710510635112 13.216427283629912 #
point $-1 -37.567155665215296 -23.454853030870474 13.216427283629912 #
edge $-1 $738 1 $738 0 $409 $-1 forward 7 unknown #
vertex $-1 $410 $739 #
ellipse-curve $-1 -48.81451396445938 -24.130081597658485 7.9538154387416187 0 -0.79863551827123203 0.60181501223851219 1 0 0 1 I I #
point $-1 -47.81451396445938 -26.228781770752786 9.535299409163736 #
edge $-1 $740 1 $740 0 $413 $-1 forward 7 unknown #
vertex $-1 $414 $741 #
ellipse-curve $-1 -44.596754602242846 -24.130081597658485 7.9538154387416187 0 -0.79863551827123203 0.60181501223851219 1 0 0 1 I I #
point $-1 -43.596754602242846 -26.228781770752786 9.535299409163736 #
edge $-1 $742 1 $742 0 $417 $-1 forward 7 unknown #
vertex $-1 $418 $743 #
ellipse-curve $-1 -40.378995240026313 -24.130081597658485 7.9538154387416187 0 -0.79863551827123203 0.60181501223851219 1 0 0 1 I I #
point $-1 -39.378995240026313 -26.228781770752786 9.535299409163736 #
plane-surface $-1 0 0 13.216427283629912 0 0 1 1 0 0 forward_v I I I I #
coedge $-1 $608 $607 $600 $744 forward $422 $-1 #
coedge $-1 $600 $424 $426 $604 reversed $268 $-1 #
coedge $-1 $424 $599 $598 $744 reversed $268 $-1 #
coedge $-1 $432 $427 $424 $602 forward $433 $-1 #
edge $-1 $605 -48.647117099780111 $745 -43.099259620015474 $601 $746 forward 7 unknown #
coedge $-1 $426 $425 $608 $747 reversed $168 $-1 #
edge $-1 $748 2.3448253187574213e-014 $605 9.2185428527760234 $599 $749 forward 7 unknown #
vertex $-1 $428 $750 #
straight-curve $-1 7.7163302084016152 -23.454853030870474 13.216427283629912 -1 0 0 I I #
coedge $-1 $598 $429 $432 $612 reversed $422 $-1 #
coedge $-1 $429 $598 $603 $747 forward $422 $-1 #
vertex $-1 $430 $751 #
straight-curve $-1 22.462259353830781 -29.002710510635112 46.332261160977467 0 0 1 I I #
straight-curve $-1 22.462259353830781 -29.002710510635126 5.8541715346975707 0 -0.60181501223851219 -0.79863551827123203 I I #
edge $-1 $745 8.4030614797756797 $434 22.462259353830781 $607 $752 forward 7 unknown #
point $-1 22.462259353830781 -29.002710510635112 13.216427283629912 #
point $-1 22.462259353830781 -23.454853030870474 13.216427283629912 #
edge $-1 $753 1 $753 0 $437 $-1 forward 7 unknown #
vertex $-1 $438 $754 #
ellipse-curve $-1 11.214901054586704 -24.130081597658485 7.9538154387416187 0 -0.79863551827123203 0.60181501223851219 1 0 0 1 I I #
point $-1 12.214901054586704 -26.228781770752786 9.535299409163736 #
edge $-1 $755 1 $755 0 $441 $-1 forward 7 unknown #
vertex $-1 $442 $756 #
ellipse-curve $-1 15.43266041680323 -24.130081597658485 7.9538154387416187 0 -0.79863551827123203 0.60181501223851219 1 0 0 1 I I #
point $-1 16.43266041680323 -26.228781770752786 9.535299409163736 #
edge $-1 $757 1 $757 0 $445 $-1 forward 7 unknown #
vertex $-1 $446 $758 #
ellipse-curve $-1 19.650419779019757 -24.130081597658485 7.9538154387416187 0 -0.79863551827123203 0.60181501223851219 1 0 0 1 I I #
point $-1 20.650419779019757 -26.228781770752786 9.535299409163736 #
loop $-1 $-1 $458 $449 #
plane-surface $-1 -60.029415019046077 0 10.046654735216496 -1 0 0 0 0 1 forward_v I I I I #
coedge $-1 $759 $452 $457 $635 forward $297 $-1 #
coedge $-1 $452 $759 $632 $760 reversed $297 $-1 #
edge $-1 $633 59.533924392032873 $640 66.876537362594689 $452 $761 forward 7 unknown #
coedge $-1 $461 $455 $630 $760 forward $450 $-1 #
vertex $-1 $760 $762 #
straight-curve $-1 -42.223577029769835 48.693171034921058 13.216427283629912 0 1 0 I I #
edge $-1 $640 16.660329017565857 $638 34.466167006842099 $629 $763 forward 7 unknown #
coedge $-1 $637 $458 $461 $642 reversed $627 $-1 #
coedge $-1 $458 $636 $759 $764 reversed $627 $-1 #
vertex $-1 $764 $765 #
straight-curve $-1 -60.029415019046077 2.065838959516145 35.790241712660823 0 -0.66913059716165679 0.74314483375859142 I I #
vertex $-1 $635 $766 #
straight-curve $-1 -42.223577029769835 -9.8104914959407665 48.980243275017074 0 -0.66913059716165679 0.74314483375859142 I I #
edge $-1 $767 -29.002710510635112 $462 -22.391392260772953 $461 $768 forward 7 unknown #
point $-1 -60.029415019046077 22.391392260772953 13.216427283629912 #
point $-1 -42.223577029769835 22.391392260772953 13.216427283629912 #
edge $-1 $769 1 $769 0 $465 $-1 forward 7 unknown #
vertex $-1 $466 $770 #
ellipse-curve $-1 -54.942032736395724 23.794657764057149 7.8321979302037352 0 0.74314483375859142 0.66913059716165679 1 0 0 1 I I #
point $-1 -53.942032736395724 25.697051385704061 9.5451207983490303 #
edge $-1 $771 1 $771 0 $469 $-1 forward 7 unknown #
vertex $-1 $470 $772 #
ellipse-curve $-1 -47.310959312420195 23.794657764057149 7.8321979302037352 0 0.74314483375859142 0.66913059716165679 1 0 0 1 I I #
point $-1 -46.310959312420195 25.697051385704061 9.5451207983490303 #
loop $-1 $-1 $481 $473 #
plane-surface $-1 0 29.002710510635112 0 0 -1 0 0 0 -1 forward_v I I I I #
coedge $-1 $656 $476 $478 $660 reversed $319 $-1 #
coedge $-1 $476 $655 $773 $774 reversed $319 $-1 #
coedge $-1 $484 $479 $476 $658 forward $474 $-1 #
edge $-1 $661 -26.301778774148104 $775 -19.690460524285946 $657 $776 forward 7 unknown #
coedge $-1 $478 $477 $664 $777 reversed $201 $-1 #
edge $-1 $778 -58.005421021270237 $661 -48.124960797352372 $655 $779 forward 7 unknown #
vertex $-1 $480 $780 #
straight-curve $-1 4.4514594973190569 22.391392260772953 13.216427283629908 1 0 0 I I #
coedge $-1 $773 $481 $484 $668 reversed $653 $-1 #
coedge $-1 $481 $773 $659 $777 forward $653 $-1 #
vertex $-1 $482 $781 #
straight-curve $-1 -7.1054273576010019e-015 29.002710510635112 72.750351675662785 0 0 1 I I #
straight-curve $-1 -7.1054273576010019e-015 -9.8104914959407665 48.980243275017074 0 0.66913059716165679 -0.74314483375859142 I I #
edge $-1 $775 -17.805837989276235 $485 7.1054273576010019e-015 $663 $782 forward 7 unknown #
point $-1 -7.1054273576010019e-015 29.002710510635112 13.216427283629912 #
point $-1 -7.1054273576010019e-015 22.391392260772953 13.216427283629912 #
edge $-1 $783 1 $783 0 $488 $-1 forward 7 unknown #
vertex $-1 $489 $784 #
ellipse-curve $-1 5.0873822826503527 23.794657764057149 7.8321979302037352 0 0.74314483375859142 0.66913059716165679 1 0 0 1 I I #
point $-1 6.0873822826503527 25.697051385704061 9.5451207983490303 #
edge $-1 $785 1 $785 0 $492 $-1 forward 7 unknown #
vertex $-1 $493 $786 #
ellipse-curve $-1 12.718455706625889 23.794657764057149 7.8321979302037352 0 0.74314483375859142 0.66913059716165679 1 0 0 1 I I #
point $-1 13.718455706625889 25.697051385704061 9.5451207983490303 #
plane-surface $-1 72.123783074434641 0 0 -1 0 0 0 0 1 forward_v I I I I #
coedge $-1 $501 $499 $503 $684 reversed $341 $-1 #
edge $-1 $514 -13.216427283629912 $686 13.216427283629912 $513 $787 forward 7 unknown #
vertex $-1 $684 $788 #
straight-curve $-1 -72.123783074434641 -29.002710510635112 0 0 0 -1 I I #
edge $-1 $682 -29.002710510635112 $686 29.002710510635112 $680 $789 forward 7 unknown #
straight-curve $-1 0 -29.002710510635112 -13.216427283629912 -1 0 0 I I #
vertex $-1 $506 $790 #
straight-curve $-1 0 29.002710510635112 -13.216427283629912 1 0 0 I I #
point $-1 72.123783074434641 29.002710510635112 -13.216427283629912 #
point $-1 72.123783074434641 -29.002710510635112 -13.216427283629912 #
straight-curve $-1 -72.123783074434641 0 13.216427283629912 0 -1 0 I I #
point $-1 -72.123783074434641 29.002710510635112 13.216427283629912 #
point $-1 -72.123783074434641 -29.002710510635112 13.216427283629912 #
straight-curve $-1 72.123783074434641 -29.002710510635112 0 0 0 -1 I I #
straight-curve $-1 72.123783074434641 29.002710510635112 0 0 0 -1 I I #
plane-surface $-1 0 -29.002710510635112 0 0 1 0 0 0 1 forward_v I I I I #
coedge $-1 $791 $526 $536 $707 reversed $360 $-1 #
coedge $-1 $526 $791 $539 $709 forward $360 $-1 #
coedge $-1 $792 $529 $527 $699 forward $524 $-1 #
edge $-1 $700 60.029415019046077 $793 72.123783074434641 $527 $794 forward 7 unknown #
vertex $-1 $699 $795 #
straight-curve $-1 -60.029415019046077 29.002710510635112 5.0233273676082479 0 0 -1 I I #
coedge $-1 $529 $792 $531 $704 forward $524 $-1 #
straight-curve $-1 -60.029415019046077 0 13.216427283629912 0 1 0 I I #
edge $-1 $796 -72.123783074434641 $533 -60.029415019046077 $531 $797 forward 7 unknown #
point $-1 -60.029415019046077 -29.002710510635112 13.216427283629912 #
straight-curve $-1 -72.123783074434641 0 6.8768821868030798 0 -1 0 I I #
edge $-1 $796 -13.216427283629912 $537 -6.8768821868030798 $696 $798 forward 7 unknown #
point $-1 -72.123783074434641 -29.002710510635112 6.8768821868030798 #
edge $-1 $793 -13.216427283629912 $540 -6.8768821868030798 $539 $799 forward 7 unknown #
point $-1 -72.123783074434641 29.002710510635112 6.8768821868030798 #
plane-surface $-1 72.123783074434641 0 0 -1 0 0 0 0 1 forward_v I I I I #
coedge $-1 $547 $557 $548 $715 reversed $376 $-1 #
edge $-1 $717 -8.193099916021664 $558 -1.8535548191948319 $547 $800 forward 7 unknown #
coedge $-1 $549 $548 $562 $723 forward $231 $-1 #
edge $-1 $717 60.029415019046056 $726 72.123783074434641 $712 $801 forward 7 unknown #
edge $-1 $724 -72.123783074434641 $555 -60.029415019046056 $553 $802 forward 7 unknown #
vertex $-1 $715 $803 #
straight-curve $-1 60.029415019046056 0 13.216427283629912 0 -1 0 I I #
straight-curve $-1 60.029415019046056 0 6.8768821868030798 0 1 0 I I #
point $-1 60.029415019046056 29.002710510635112 6.8768821868030798 #
point $-1 60.029415019046056 29.002710510635112 13.216427283629912 #
point $-1 60.029415019046056 -29.002710510635112 6.8768821868030798 #
edge $-1 $726 -29.002710510635112 $724 29.002710510635112 $562 $804 forward 7 unknown #
vertex $-1 $723 $805 #
straight-curve $-1 72.123783074434641 29.002710510635112 0 0 0 -1 I I #
vertex $-1 $723 $806 #
straight-curve $-1 72.123783074434641 -29.002710510635112 0 0 0 -1 I I #
coedge $-1 $578 $577 $570 $729 forward $567 $-1 #
edge $-1 $730 33.115833877347555 $733 40.478089626279875 $728 $807 forward 7 unknown #
vertex $-1 $582 $808 #
straight-curve $-1 -51.626353539270397 -72.101970130650585 13.216427283629912 0 -1 0 I I #
edge $-1 $733 -29.327976238148974 $579 -15.268778364093873 $578 $809 forward 7 unknown #
vertex $-1 $732 $810 #
straight-curve $-1 -51.626353539270397 -29.002710510635126 5.8541715346975707 0 0.60181501223851219 0.79863551827123203 I I #
point $-1 -51.626353539270397 -23.454853030870474 13.216427283629912 #
point $-1 -37.567155665215296 -29.002710510635112 5.8541715346975893 #
straight-curve $-1 0 -29.002710510635112 13.216427283629912 1 0 0 I I #
vertex $-1 $585 $811 #
point $-1 -47.81451396445938 -24.130081597658485 7.9538154387416187 #
vertex $-1 $589 $812 #
point $-1 -43.596754602242846 -24.130081597658485 7.9538154387416187 #
vertex $-1 $593 $813 #
point $-1 -39.378995240026313 -24.130081597658485 7.9538154387416187 #
edge $-1 $745 33.115833877347555 $748 40.478089626279875 $598 $814 forward 7 unknown #
vertex $-1 $612 $815 #
straight-curve $-1 8.4030614797756797 -72.101970130650585 13.216427283629912 0 -1 0 I I #
edge $-1 $748 0.68673127137406453 $609 14.745929145429166 $608 $816 forward 7 unknown #
vertex $-1 $747 $817 #
straight-curve $-1 8.4030614797756797 -29.002710510635126 5.8541715346975707 0 0.60181501223851219 0.79863551827123203 I I #
point $-1 8.4030614797756797 -23.454853030870474 13.216427283629912 #
point $-1 22.462259353830781 -29.002710510635112 5.8541715346975893 #
straight-curve $-1 0 -29.002710510635112 13.216427283629912 1 0 0 I I #
vertex $-1 $615 $818 #
point $-1 12.214901054586704 -24.130081597658485 7.9538154387416187 #
vertex $-1 $619 $819 #
point $-1 16.43266041680323 -24.130081597658485 7.9538154387416187 #
vertex $-1 $623 $820 #
point $-1 20.650419779019757 -24.130081597658485 7.9538154387416187 #
coedge $-1 $630 $629 $637 $764 forward $297 $-1 #
edge $-1 $633 42.223577029769835 $767 60.029415019046077 $630 $821 forward 7 unknown #
straight-curve $-1 -42.223577029769835 29.002710510635112 72.750351675662785 0 0 -1 I I #
point $-1 -42.223577029769835 29.002710510635112 13.216427283629912 #
straight-curve $-1 -25.563248012203978 29.002710510635112 5.8738143130680882 -1 0 0 I I #
edge $-1 $638 -66.876537362594689 $767 -59.533924392032873 $759 $822 forward 7 unknown #
point $-1 -60.029415019046077 29.002710510635112 5.8738143130680953 #
point $-1 -42.223577029769835 29.002710510635112 5.8738143130680953 #
vertex $-1 $642 $823 #
straight-curve $-1 -60.029415019046077 0 13.216427283629912 0 -1 0 I I #
vertex $-1 $645 $824 #
point $-1 -53.942032736395724 23.794657764057149 7.8321979302037352 #
vertex $-1 $649 $825 #
point $-1 -46.310959312420195 23.794657764057149 7.8321979302037352 #
coedge $-1 $664 $663 $656 $774 forward $653 $-1 #
edge $-1 $775 59.533924392032873 $778 66.876537362594689 $773 $826 forward 7 unknown #
vertex $-1 $668 $827 #
straight-curve $-1 17.805837989276235 48.693171034921058 13.216427283629912 0 1 0 I I #
edge $-1 $778 -13.354378491957178 $665 4.451459497319064 $664 $828 forward 7 unknown #
vertex $-1 $777 $829 #
straight-curve $-1 17.805837989276235 -9.8104914959407665 48.980243275017074 0 -0.66913059716165679 0.74314483375859142 I I #
point $-1 17.805837989276235 22.391392260772953 13.216427283629912 #
point $-1 -7.1054273576010019e-015 29.002710510635112 5.8738143130680953 #
straight-curve $-1 0 29.002710510635112 13.216427283629912 -1 0 0 I I #
vertex $-1 $671 $830 #
point $-1 6.0873822826503527 23.794657764057149 7.8321979302037352 #
vertex $-1 $675 $831 #
point $-1 13.718455706625889 23.794657764057149 7.8321979302037352 #
straight-curve $-1 -72.123783074434641 29.002710510635112 0 0 0 -1 I I #
point $-1 -72.123783074434641 -29.002710510635112 -13.216427283629912 #
straight-curve $-1 -72.123783074434641 0 -13.216427283629912 0 1 0 I I #
point $-1 -72.123783074434641 29.002710510635112 -13.216427283629912 #
coedge $-1 $697 $696 $792 $832 reversed $360 $-1 #
coedge $-1 $702 $698 $791 $832 forward $524 $-1 #
vertex $-1 $699 $833 #
straight-curve $-1 0 29.002710510635112 13.216427283629912 -1 0 0 I I #
point $-1 -60.029415019046077 29.002710510635112 13.216427283629912 #
vertex $-1 $832 $834 #
straight-curve $-1 0 -29.002710510635112 13.216427283629912 1 0 0 I I #
straight-curve $-1 -72.123783074434641 -29.002710510635112 0 0 0 -1 I I #
straight-curve $-1 -72.123783074434641 29.002710510635112 0 0 0 -1 I I #
straight-curve $-1 60.029415019046056 -29.002710510635112 5.0233273676082479 0 0 -1 I I #
straight-curve $-1 0 -29.002710510635112 13.216427283629912 1 0 0 I I #
straight-curve $-1 0 29.002710510635112 13.216427283629912 -1 0 0 I I #
point $-1 60.029415019046056 -29.002710510635112 13.216427283629912 #
straight-curve $-1 72.123783074434641 0 13.216427283629912 0 1 0 I I #
point $-1 72.123783074434641 29.002710510635112 13.216427283629912 #
point $-1 72.123783074434641 -29.002710510635112 13.216427283629912 #
straight-curve $-1 -51.626353539270397 -29.002710510635112 46.332261160977467 0 0 -1 I I #
point $-1 -51.626353539270397 -29.002710510635112 13.216427283629912 #
straight-curve $-1 -22.298377301121423 -29.002710510635112 5.8541715346975893 1 0 0 I I #
point $-1 -51.626353539270397 -29.002710510635112 5.8541715346975893 #
point $-1 -48.81451396445938 -23.331446079387252 7.352000426503106 #
point $-1 -44.596754602242846 -23.331446079387252 7.352000426503106 #
point $-1 -40.378995240026313 -23.331446079387252 7.352000426503106 #
straight-curve $-1 8.4030614797756797 -29.002710510635112 46.332261160977467 0 0 -1 I I #
point $-1 8.4030614797756797 -29.002710510635112 13.216427283629912 #
straight-curve $-1 7.7163302084016152 -29.002710510635112 5.8541715346975893 1 0 0 I I #
point $-1 8.4030614797756797 -29.002710510635112 5.8541715346975893 #
point $-1 11.214901054586704 -23.331446079387252 7.352000426503106 #
point $-1 15.43266041680323 -23.331446079387252 7.352000426503106 #
point $-1 19.650419779019757 -23.331446079387252 7.352000426503106 #
straight-curve $-1 0 29.002710510635112 13.216427283629912 -1 0 0 I I #
straight-curve $-1 -60.029415019046077 29.002710510635112 72.750351675662785 0 0 1 I I #
point $-1 -60.029415019046077 29.002710510635112 13.216427283629912 #
point $-1 -54.942032736395724 23.051512930298557 7.1630673330420773 #
point $-1 -47.310959312420195 23.051512930298557 7.1630673330420773 #
straight-curve $-1 17.805837989276235 29.002710510635112 72.750351675662785 0 0 -1 I I #
point $-1 17.805837989276235 29.002710510635112 13.216427283629912 #
straight-curve $-1 4.4514594973190569 29.002710510635112 5.8738143130680882 -1 0 0 I I #
point $-1 17.805837989276235 29.002710510635112 5.8738143130680953 #
point $-1 5.0873822826503527 23.051512930298557 7.1630673330420773 #
point $-1 12.718455706625889 23.051512930298557 7.1630673330420773 #
edge $-1 $793 -29.002710510635112 $796 29.002710510635112 $791 $835 forward 7 unknown #
point $-1 -72.123783074434641 29.002710510635112 13.216427283629912 #
point $-1 -72.123783074434641 -29.002710510635112 13.216427283629912 #
straight-curve $-1 -72.123783074434641 0 13.216427283629912 0 -1 0 I I #
End-of-ACIS-data 