500 0 9 0           
7 Unknown 11 ACIS 5.0 NT 24 Fri Mar 26 20:14:42 1999 
-1 9.9999999999999995e-007 1e-010 
body $-1 $9 $-1 $10 #
body $-1 $11 $-1 $12 #
body $-1 $13 $-1 $14 #
body $-1 $15 $-1 $16 #
body $-1 $17 $-1 $18 #
body $-1 $19 $-1 $20 #
body $-1 $21 $-1 $22 #
body $-1 $23 $-1 $24 #
body $-1 $25 $-1 $26 #
lump $-1 $-1 $27 $0 #
transform $-1 1 0 0 0 1 0 0 0 1 71.225318155461281 40.322611755096695 8.2528020103879047 1 rotate no_reflect no_shear #
lump $-1 $-1 $28 $1 #
transform $-1 1 0 0 0 1 0 0 0 1 71.225318155461281 40.322611755096695 8.2528020103879047 1 rotate no_reflect no_shear #
lump $-1 $-1 $29 $2 #
transform $-1 1 0 0 0 1 0 0 0 1 71.225318155461281 40.322611755096695 8.2528020103879047 1 rotate no_reflect no_shear #
lump $-1 $-1 $30 $3 #
transform $-1 1 0 0 0 1 0 0 0 1 71.225318155461281 40.322611755096695 8.2528020103879047 1 rotate no_reflect no_shear #
lump $-1 $-1 $31 $4 #
transform $-1 1 0 0 0 1 0 0 0 1 71.225318155461281 40.322611755096695 8.2528020103879047 1 rotate no_reflect no_shear #
lump $-1 $-1 $32 $5 #
transform $-1 1 0 0 0 1 0 0 0 1 71.225318155461281 40.322611755096695 8.2528020103879047 1 rotate no_reflect no_shear #
lump $-1 $-1 $33 $6 #
transform $-1 1 0 0 0 1 0 0 0 1 71.225318155461281 40.322611755096695 8.2528020103879047 1 rotate no_reflect no_shear #
lump $-1 $-1 $34 $7 #
transform $-1 1 0 0 0 1 0 0 0 1 71.225318155461281 40.322611755096695 8.2528020103879047 1 rotate no_reflect no_shear #
lump $-1 $-1 $35 $8 #
transform $-1 1 0 0 0 1 0 0 0 1 71.225318155461281 40.322611755096695 8.2528020103879047 1 rotate no_reflect no_shear #
shell $-1 $-1 $-1 $36 $-1 $9 #
shell $-1 $-1 $-1 $37 $-1 $11 #
shell $-1 $-1 $-1 $38 $-1 $13 #
shell $-1 $-1 $-1 $39 $-1 $15 #
shell $-1 $-1 $-1 $40 $-1 $17 #
shell $-1 $-1 $-1 $41 $-1 $19 #
shell $-1 $-1 $-1 $42 $-1 $21 #
shell $-1 $-1 $-1 $43 $-1 $23 #
shell $-1 $-1 $-1 $44 $-1 $25 #
face $-1 $45 $46 $27 $-1 $47 forward single #
face $-1 $48 $49 $28 $-1 $50 forward single #
face $-1 $51 $52 $29 $-1 $53 forward single #
face $-1 $54 $55 $30 $-1 $56 reversed single #
face $-1 $57 $58 $31 $-1 $59 forward single #
face $-1 $60 $61 $32 $-1 $62 forward single #
face $-1 $63 $64 $33 $-1 $65 reversed single #
face $-1 $66 $67 $34 $-1 $68 forward single #
face $-1 $69 $70 $35 $-1 $71 forward single #
face $-1 $72 $73 $27 $-1 $74 reversed single #
loop $-1 $-1 $75 $36 #
plane-surface $-1 0 0 8.2528020103879047 0 0 1 1 0 0 forward_v I I I I #
face $-1 $76 $77 $28 $-1 $78 forward single #
loop $-1 $-1 $79 $37 #
plane-surface $-1 0 -40.322611755096695 0 0 1 0 0 0 1 forward_v I I I I #
face $-1 $80 $81 $29 $-1 $82 reversed single #
loop $-1 $-1 $83 $38 #
plane-surface $-1 0 40.322611755096695 0 0 -1 0 0 0 -1 forward_v I I I I #
face $-1 $84 $85 $30 $-1 $86 reversed single #
loop $-1 $-1 $87 $39 #
plane-surface $-1 116.54297562720862 31.97721475184709 199.99976252423386 0 -1 0 -0.84804810408105047 0 -0.52991925155115449 forward_v I I I I #
face $-1 $88 $89 $31 $-1 $90 forward single #
loop $-1 $91 $92 $40 #
cone-surface $-1 68.665640559187537 20.520045363126094 5.2680505733974385 -0.84804810408105047 0 -0.52991925155115449 0.52991925155115449 0 -0.84804810408105047 1 I I 0 1 1 forward I I I I #
face $-1 $93 $94 $32 $-1 $95 forward single #
loop $-1 $96 $97 $41 #
cone-surface $-1 68.665640559187537 27.394346996358699 5.2680505733974385 -0.84804810408105047 0 -0.52991925155115449 0.52991925155115449 0 -0.84804810408105047 1 I I 0 1 1 forward I I I I #
face $-1 $98 $99 $33 $-1 $100 reversed single #
loop $-1 $-1 $101 $42 #
plane-surface $-1 -183.47795260243515 -31.9772147518471 92.294022358740165 0 1 0 -0.78801076186113728 0 0.61566146476048833 forward_v I I I I #
face $-1 $102 $103 $34 $-1 $104 forward single #
loop $-1 $105 $106 $43 #
cone-surface $-1 -69.213632554626557 -28.65475970744215 5.9681175317966062 0.78801076186113728 0 -0.61566146476048833 0.61566146476048833 0 0.78801076186113728 1 I I 0 1 1 forward I I I I #
face $-1 $107 $108 $35 $-1 $109 forward single #
loop $-1 $110 $111 $44 #
cone-surface $-1 -69.213632554626557 -23.671077140834722 5.9681175317966062 0.78801076186113728 0 -0.61566146476048833 0.61566146476048833 0 0.78801076186113728 1 I I 0 1 1 forward I I I I #
face $-1 $112 $113 $27 $-1 $114 reversed single #
loop $-1 $-1 $115 $45 #
plane-surface $-1 0 0 -8.2528020103879047 0 0 1 1 0 0 forward_v I I I I #
coedge $-1 $116 $117 $118 $119 forward $46 $-1 #
face $-1 $120 $121 $28 $-1 $122 reversed single #
loop $-1 $-1 $123 $48 #
plane-surface $-1 0 0 8.2528020103879047 0 0 1 1 0 0 forward_v I I I I #
coedge $-1 $124 $125 $126 $127 forward $49 $-1 #
face $-1 $128 $129 $29 $-1 $130 reversed single #
loop $-1 $-1 $131 $51 #
plane-surface $-1 71.225318155461281 0 0 -1 0 0 0 0 1 forward_v I I I I #
coedge $-1 $132 $133 $134 $135 forward $52 $-1 #
face $-1 $136 $137 $30 $-1 $138 reversed single #
loop $-1 $-1 $139 $54 #
plane-surface $-1 -4.2620164214085037 23.95719617974239 124.51242794736406 0.84804810408105047 0 0.52991925155115449 0.52991925155115449 0 -0.84804810408105047 forward_v I I I I #
coedge $-1 $140 $141 $142 $143 reversed $55 $-1 #
face $-1 $-1 $144 $31 $-1 $145 forward single #
loop $-1 $146 $147 $57 #
cone-surface $-1 67.102068851802045 20.520045363126094 4.2910225664518631 -0.84804810408105047 0 -0.52991925155115449 0.26495962577557725 0 -0.42402405204052523 1 I I -0.70710678118654746 0.70710678118654746 0.5 forward I I I I #
loop $-1 $-1 $148 $40 #
coedge $-1 $92 $92 $149 $150 reversed $58 $-1 #
face $-1 $-1 $151 $32 $-1 $152 forward single #
loop $-1 $153 $154 $60 #
cone-surface $-1 67.102068851802045 27.394346996358699 4.2910225664518631 -0.84804810408105047 0 -0.52991925155115449 0.26495962577557725 0 -0.42402405204052523 1 I I -0.70710678118654746 0.70710678118654746 0.5 forward I I I I #
loop $-1 $-1 $155 $41 #
coedge $-1 $97 $97 $156 $157 reversed $61 $-1 #
face $-1 $158 $159 $33 $-1 $160 reversed single #
loop $-1 $-1 $161 $63 #
plane-surface $-1 -71.225318155461281 -26.162918424138436 4.5926549514939694 -0.78801076186113728 0 0.61566146476048833 0.61566146476048833 0 0.78801076186113728 forward_v I I I I #
coedge $-1 $162 $163 $164 $165 reversed $64 $-1 #
face $-1 $-1 $166 $34 $-1 $167 forward single #
loop $-1 $168 $169 $66 #
cone-surface $-1 -68.237751677354822 -28.65475970744215 5.2056758502720282 0.78801076186113728 0 -0.61566146476048833 0.30783073238024417 0 0.39400538093056864 1 I I -0.70710678118654746 0.70710678118654746 0.5 forward I I I I #
loop $-1 $-1 $170 $43 #
coedge $-1 $106 $106 $171 $172 reversed $67 $-1 #
face $-1 $-1 $173 $35 $-1 $174 forward single #
loop $-1 $175 $176 $69 #
cone-surface $-1 -68.237751677354822 -23.671077140834722 5.2056758502720282 0.78801076186113728 0 -0.61566146476048833 0.30783073238024417 0 0.39400538093056864 1 I I -0.70710678118654746 0.70710678118654746 0.5 forward I I I I #
loop $-1 $-1 $177 $44 #
coedge $-1 $111 $111 $178 $179 reversed $70 $-1 #
face $-1 $180 $181 $27 $-1 $182 reversed single #
loop $-1 $-1 $183 $72 #
plane-surface $-1 0 -40.322611755096695 0 0 1 0 0 0 1 forward_v I I I I #
coedge $-1 $184 $185 $186 $187 forward $73 $-1 #
coedge $-1 $188 $75 $189 $190 forward $46 $-1 #
coedge $-1 $75 $188 $191 $192 forward $46 $-1 #
coedge $-1 $193 $194 $75 $119 reversed $195 $-1 #
edge $-1 $196 -40.322611755096695 $197 40.322611755096695 $118 $198 forward 7 unknown #
face $-1 $199 $200 $28 $-1 $201 reversed single #
loop $-1 $-1 $202 $76 #
plane-surface $-1 -71.225318155461281 0 0 1 0 0 0 0 -1 forward_v I I I I #
coedge $-1 $203 $204 $205 $206 forward $77 $-1 #
coedge $-1 $205 $79 $202 $207 reversed $49 $-1 #
coedge $-1 $79 $205 $208 $209 reversed $49 $-1 #
coedge $-1 $210 $211 $79 $127 reversed $200 $-1 #
edge $-1 $212 -71.225318155461281 $213 71.225318155461281 $126 $214 forward 7 unknown #
face $-1 $215 $216 $29 $-1 $217 reversed single #
loop $-1 $-1 $218 $80 #
plane-surface $-1 0 44.495310256721488 3.6374085706357651 0 0 1 1 0 0 forward_v I I I I #
coedge $-1 $219 $220 $132 $221 forward $81 $-1 #
coedge $-1 $222 $83 $131 $221 reversed $52 $-1 #
coedge $-1 $83 $222 $223 $224 reversed $52 $-1 #
coedge $-1 $225 $218 $83 $135 reversed $129 $-1 #
edge $-1 $226 -71.225318155461281 $227 71.225318155461281 $134 $228 forward 7 unknown #
face $-1 $229 $230 $30 $-1 $231 forward single #
loop $-1 $-1 $232 $84 #
plane-surface $-1 116.54297562720862 15.93717760763769 199.99976252423386 0 1 0 0.84804810408105047 0 0.52991925155115449 forward_v I I I I #
coedge $-1 $233 $234 $235 $236 reversed $85 $-1 #
coedge $-1 $141 $87 $237 $238 reversed $55 $-1 #
coedge $-1 $87 $140 $233 $239 reversed $55 $-1 #
coedge $-1 $235 $240 $87 $143 forward $230 $-1 #
edge $-1 $241 -12.953830341856971 $242 -10.113570459999423 $142 $243 forward 7 unknown #
loop $-1 $-1 $149 $88 #
plane-surface $-1 -4.2620164214085037 23.95719617974239 124.51242794736406 0.84804810408105047 0 0.52991925155115449 0.52991925155115449 0 -0.84804810408105047 forward_v I I I I #
loop $-1 $-1 $244 $57 #
coedge $-1 $147 $147 $148 $245 reversed $89 $-1 #
coedge $-1 $148 $148 $147 $245 forward $91 $-1 #
coedge $-1 $149 $149 $92 $150 forward $144 $-1 #
edge $-1 $246 0 $246 6.2831853071796004 $149 $247 forward 7 unknown #
loop $-1 $-1 $156 $93 #
plane-surface $-1 -4.2620164214085037 23.95719617974239 124.51242794736406 0.84804810408105047 0 0.52991925155115449 0.52991925155115449 0 -0.84804810408105047 forward_v I I I I #
loop $-1 $-1 $248 $60 #
coedge $-1 $154 $154 $155 $249 reversed $94 $-1 #
coedge $-1 $155 $155 $154 $249 forward $96 $-1 #
coedge $-1 $156 $156 $97 $157 forward $151 $-1 #
edge $-1 $250 0 $250 6.2831853071796004 $156 $251 forward 7 unknown #
face $-1 $252 $253 $33 $-1 $254 reversed single #
loop $-1 $-1 $255 $98 #
plane-surface $-1 -183.47795260243515 -20.348622096429771 92.294022358740165 0 -1 0 0.78801076186113728 0 -0.61566146476048833 forward_v I I I I #
coedge $-1 $256 $257 $258 $259 reversed $99 $-1 #
coedge $-1 $163 $101 $260 $261 reversed $64 $-1 #
coedge $-1 $101 $162 $256 $262 reversed $64 $-1 #
coedge $-1 $258 $263 $101 $165 forward $264 $-1 #
edge $-1 $265 20.513658145756295 $266 23.373278354743405 $164 $267 forward 7 unknown #
loop $-1 $-1 $171 $102 #
plane-surface $-1 -71.225318155461281 -26.162918424138436 4.5926549514939694 -0.78801076186113728 0 0.61566146476048833 0.61566146476048833 0 0.78801076186113728 forward_v I I I I #
loop $-1 $-1 $268 $66 #
coedge $-1 $169 $169 $170 $269 reversed $103 $-1 #
coedge $-1 $170 $170 $169 $269 forward $105 $-1 #
coedge $-1 $171 $171 $106 $172 forward $166 $-1 #
edge $-1 $270 0 $270 6.2831853071796004 $171 $271 forward 7 unknown #
loop $-1 $-1 $178 $107 #
plane-surface $-1 -71.225318155461281 -26.162918424138436 4.5926549514939694 -0.78801076186113728 0 0.61566146476048833 0.61566146476048833 0 0.78801076186113728 forward_v I I I I #
loop $-1 $-1 $272 $69 #
coedge $-1 $176 $176 $177 $273 reversed $108 $-1 #
coedge $-1 $177 $177 $176 $273 forward $110 $-1 #
coedge $-1 $178 $178 $111 $179 forward $173 $-1 #
edge $-1 $274 0 $274 6.2831853071796004 $178 $275 forward 7 unknown #
face $-1 $276 $277 $27 $-1 $278 reversed single #
loop $-1 $-1 $279 $112 #
plane-surface $-1 -71.225318155461281 0 0 1 0 0 0 0 -1 forward_v I I I I #
coedge $-1 $280 $191 $281 $282 forward $113 $-1 #
coedge $-1 $283 $115 $280 $284 forward $73 $-1 #
coedge $-1 $115 $283 $285 $286 forward $73 $-1 #
coedge $-1 $194 $193 $115 $187 reversed $195 $-1 #
edge $-1 $287 -40.322611755096695 $288 40.322611755096695 $186 $289 forward 7 unknown #
coedge $-1 $117 $116 $290 $291 forward $46 $-1 #
coedge $-1 $292 $293 $116 $190 reversed $277 $-1 #
edge $-1 $197 -71.225318155461281 $294 71.225318155461281 $189 $295 forward 7 unknown #
coedge $-1 $183 $296 $117 $192 reversed $113 $-1 #
edge $-1 $297 -71.225318155461281 $196 71.225318155461281 $191 $298 forward 7 unknown #
coedge $-1 $186 $118 $296 $299 forward $195 $-1 #
coedge $-1 $118 $186 $292 $300 reversed $195 $-1 #
loop $-1 $-1 $193 $276 #
vertex $-1 $119 $301 #
vertex $-1 $119 $302 #
straight-curve $-1 71.225318155461281 0 8.2528020103879047 0 1 0 I I #
face $-1 $303 $304 $28 $-1 $305 reversed single #
loop $-1 $-1 $210 $120 #
plane-surface $-1 0 -44.495310256721496 3.6374085706357651 0 0 1 1 0 0 forward_v I I I I #
coedge $-1 $306 $307 $124 $207 forward $121 $-1 #
coedge $-1 $308 $123 $307 $309 forward $77 $-1 #
coedge $-1 $123 $308 $310 $311 forward $77 $-1 #
coedge $-1 $125 $124 $123 $206 reversed $49 $-1 #
edge $-1 $312 -71.225318155461281 $313 71.225318155461281 $123 $314 forward 7 unknown #
edge $-1 $313 -8.2528020103879047 $213 -3.6374085706357651 $202 $315 forward 7 unknown #
coedge $-1 $310 $316 $125 $209 forward $317 $-1 #
edge $-1 $212 3.6374085706357651 $312 8.2528020103879047 $208 $318 forward 7 unknown #
coedge $-1 $319 $126 $316 $320 forward $200 $-1 #
coedge $-1 $126 $319 $306 $321 forward $200 $-1 #
vertex $-1 $209 $322 #
vertex $-1 $207 $323 #
straight-curve $-1 0 -40.322611755096695 3.6374085706357651 -1 0 0 I I #
face $-1 $324 $325 $29 $-1 $326 forward single #
loop $-1 $-1 $327 $128 #
plane-surface $-1 0 48.668008758346289 5.9451052905118349 0 -1 0 0 0 -1 forward_v I I I I #
coedge $-1 $134 $328 $219 $329 forward $129 $-1 #
coedge $-1 $330 $131 $218 $329 reversed $81 $-1 #
coedge $-1 $131 $330 $331 $332 reversed $81 $-1 #
edge $-1 $333 -8.2528020103879047 $227 -3.6374085706357651 $131 $334 forward 7 unknown #
coedge $-1 $133 $132 $335 $336 reversed $52 $-1 #
coedge $-1 $337 $338 $133 $224 forward $339 $-1 #
edge $-1 $226 3.6374085706357651 $340 8.2528020103879047 $223 $341 forward 7 unknown #
coedge $-1 $328 $134 $338 $342 forward $129 $-1 #
vertex $-1 $224 $343 #
vertex $-1 $221 $344 #
straight-curve $-1 0 40.322611755096695 3.6374085706357651 1 0 0 I I #
face $-1 $-1 $345 $30 $-1 $346 reversed single #
loop $-1 $-1 $142 $136 #
plane-surface $-1 0 0 8.2528020103879047 0 0 1 1 0 0 forward_v I I I I #
coedge $-1 $347 $348 $349 $350 reversed $137 $-1 #
coedge $-1 $351 $139 $141 $239 forward $85 $-1 #
coedge $-1 $139 $351 $347 $352 forward $85 $-1 #
coedge $-1 $349 $142 $139 $236 forward $230 $-1 #
edge $-1 $242 -19.998616661975895 $353 -3.9585795177664949 $235 $354 forward 7 unknown #
coedge $-1 $355 $356 $140 $238 forward $345 $-1 #
edge $-1 $357 -96.292445363369964 $241 -91.747079251729019 $237 $358 forward 7 unknown #
edge $-1 $242 137.09083880678645 $357 142.45063631092253 $141 $359 forward 7 unknown #
coedge $-1 $142 $349 $355 $360 forward $230 $-1 #
vertex $-1 $238 $361 #
vertex $-1 $143 $362 #
straight-curve $-1 58.27148781360431 31.97721475184709 8.2528020103879101 -1 0 0 I I #
coedge $-1 $244 $244 $-1 $363 reversed $146 $-1 #
edge $-1 $364 0 $364 6.2831853071796004 $147 $365 forward 7 unknown #
vertex $-1 $150 $366 #
ellipse-curve $-1 69.805188214532507 20.520045363126094 5.9801189545674358 0.84804810408105047 0 0.52991925155115449 0.52991925155115449 0 -0.84804810408105047 1 I I #
coedge $-1 $248 $248 $-1 $367 reversed $153 $-1 #
edge $-1 $368 0 $368 6.2831853071796004 $154 $369 forward 7 unknown #
vertex $-1 $157 $370 #
ellipse-curve $-1 69.805188214532507 27.394346996358699 5.9801189545674358 0.84804810408105047 0 0.52991925155115449 0.52991925155115449 0 -0.84804810408105047 1 I I #
face $-1 $-1 $264 $33 $-1 $371 forward single #
loop $-1 $-1 $372 $158 #
plane-surface $-1 -71.225318155461281 0 0 1 0 0 0 0 -1 forward_v I I I I #
coedge $-1 $373 $374 $375 $376 reversed $159 $-1 #
coedge $-1 $377 $161 $163 $262 forward $99 $-1 #
coedge $-1 $161 $377 $373 $378 forward $99 $-1 #
coedge $-1 $375 $164 $161 $259 forward $264 $-1 #
edge $-1 $266 -18.89575553977788 $379 -7.2671628843605536 $258 $380 forward 7 unknown #
coedge $-1 $381 $382 $162 $261 forward $253 $-1 #
edge $-1 $383 -41.554356227876113 $265 -37.894209168982179 $260 $384 forward 7 unknown #
edge $-1 $266 -4.6447932389265087 $383 0 $163 $385 forward 7 unknown #
coedge $-1 $164 $375 $381 $386 forward $264 $-1 #
loop $-1 $-1 $375 $252 #
vertex $-1 $261 $387 #
vertex $-1 $165 $388 #
straight-curve $-1 -91.738976301217576 -31.9772147518471 8.252802010387903 1 0 0 I I #
coedge $-1 $268 $268 $-1 $389 reversed $168 $-1 #
edge $-1 $390 0 $390 6.2831853071796004 $169 $391 forward 7 unknown #
vertex $-1 $172 $392 #
ellipse-curve $-1 -69.795508050967726 -28.65475970744215 6.4227284809409397 -0.78801076186113728 0 0.61566146476048833 0.61566146476048833 0 0.78801076186113728 1 I I #
coedge $-1 $272 $272 $-1 $393 reversed $175 $-1 #
edge $-1 $394 0 $394 6.2831853071796004 $176 $395 forward 7 unknown #
vertex $-1 $179 $396 #
ellipse-curve $-1 -69.795508050967726 -23.671077140834722 6.4227284809409397 -0.78801076186113728 0 0.61566146476048833 0.61566146476048833 0 0.78801076186113728 1 I I #
face $-1 $-1 $195 $27 $-1 $397 reversed single #
loop $-1 $-1 $292 $180 #
plane-surface $-1 0 40.322611755096695 0 0 -1 0 0 0 -1 forward_v I I I I #
coedge $-1 $398 $290 $293 $399 forward $181 $-1 #
coedge $-1 $296 $183 $184 $284 reversed $113 $-1 #
coedge $-1 $290 $398 $183 $282 reversed $181 $-1 #
edge $-1 $297 -8.2528020103879047 $400 8.2528020103879047 $281 $401 forward 7 unknown #
coedge $-1 $185 $184 $398 $402 forward $73 $-1 #
edge $-1 $288 -71.225318155461281 $400 71.225318155461281 $280 $403 forward 7 unknown #
coedge $-1 $293 $292 $185 $286 reversed $277 $-1 #
edge $-1 $404 -71.225318155461281 $287 71.225318155461281 $285 $405 forward 7 unknown #
vertex $-1 $187 $406 #
vertex $-1 $299 $407 #
straight-curve $-1 71.225318155461281 0 -8.2528020103879047 0 -1 0 I I #
coedge $-1 $279 $281 $188 $291 reversed $181 $-1 #
edge $-1 $294 -40.322611755096695 $297 40.322611755096695 $290 $408 forward 7 unknown #
coedge $-1 $285 $189 $194 $300 forward $277 $-1 #
coedge $-1 $189 $285 $279 $399 reversed $277 $-1 #
vertex $-1 $190 $409 #
straight-curve $-1 0 40.322611755096695 8.2528020103879047 -1 0 0 I I #
coedge $-1 $191 $280 $193 $299 reversed $113 $-1 #
vertex $-1 $291 $410 #
straight-curve $-1 0 -40.322611755096695 8.2528020103879047 1 0 0 I I #
edge $-1 $196 -8.2528020103879047 $288 8.2528020103879047 $193 $411 forward 7 unknown #
edge $-1 $197 -8.2528020103879047 $287 8.2528020103879047 $194 $412 forward 7 unknown #
point $-1 71.225318155461281 -40.322611755096695 8.2528020103879047 #
point $-1 71.225318155461281 40.322611755096695 8.2528020103879047 #
face $-1 $-1 $317 $28 $-1 $413 reversed single #
loop $-1 $-1 $414 $199 #
plane-surface $-1 0 -48.668008758346289 5.9451052905118349 0 1 0 0 0 1 forward_v I I I I #
coedge $-1 $415 $202 $211 $321 reversed $121 $-1 #
coedge $-1 $202 $415 $203 $309 reversed $121 $-1 #
coedge $-1 $204 $203 $416 $417 forward $77 $-1 #
edge $-1 $313 40.322611755096695 $418 48.668008758346289 $307 $419 forward 7 unknown #
coedge $-1 $420 $208 $204 $311 reversed $317 $-1 #
edge $-1 $421 -48.668008758346289 $312 -40.322611755096695 $310 $422 forward 7 unknown #
vertex $-1 $209 $423 #
vertex $-1 $309 $424 #
straight-curve $-1 0 -40.322611755096695 8.2528020103879047 -1 0 0 I I #
straight-curve $-1 -71.225318155461281 -40.322611755096695 0 0 0 -1 I I #
coedge $-1 $208 $420 $210 $320 reversed $317 $-1 #
loop $-1 $-1 $208 $303 #
straight-curve $-1 71.225318155461281 -40.322611755096695 0 0 0 1 I I #
coedge $-1 $211 $210 $425 $426 forward $200 $-1 #
edge $-1 $212 -4.1726985016247937 $427 4.1726985016247937 $316 $428 forward 7 unknown #
edge $-1 $429 -4.1726985016247937 $213 4.1726985016247937 $306 $430 forward 7 unknown #
point $-1 71.225318155461281 -40.322611755096702 3.6374085706357651 #
point $-1 -71.225318155461281 -40.322611755096702 3.6374085706357651 #
face $-1 $-1 $339 $29 $-1 $431 reversed single #
loop $-1 $-1 $335 $215 #
plane-surface $-1 0 0 8.2528020103879047 0 0 1 1 0 0 forward_v I I I I #
coedge $-1 $432 $433 $330 $434 forward $216 $-1 #
coedge $-1 $218 $225 $432 $435 forward $129 $-1 #
edge $-1 $436 -4.1726985016248008 $227 4.1726985016248008 $219 $437 forward 7 unknown #
coedge $-1 $220 $219 $327 $434 reversed $81 $-1 #
coedge $-1 $438 $335 $220 $332 forward $325 $-1 #
edge $-1 $333 40.322611755096695 $439 48.668008758346289 $220 $440 forward 7 unknown #
vertex $-1 $332 $441 #
straight-curve $-1 71.225318155461281 40.322611755096695 0 0 0 -1 I I #
coedge $-1 $331 $442 $222 $336 forward $325 $-1 #
edge $-1 $340 -71.225318155461281 $333 71.225318155461281 $335 $443 forward 7 unknown #
coedge $-1 $444 $223 $442 $445 reversed $339 $-1 #
coedge $-1 $223 $444 $225 $342 reversed $339 $-1 #
loop $-1 $-1 $223 $324 #
vertex $-1 $224 $446 #
straight-curve $-1 -71.225318155461281 40.322611755096695 0 0 0 1 I I #
edge $-1 $226 -4.1726985016248008 $447 4.1726985016248008 $338 $448 forward 7 unknown #
point $-1 -71.225318155461281 40.322611755096688 3.6374085706357651 #
point $-1 71.225318155461281 40.322611755096688 3.6374085706357651 #
loop $-1 $-1 $237 $229 #
plane-surface $-1 71.225318155461281 0 0 -1 0 0 0 0 1 forward_v I I I I #
coedge $-1 $348 $232 $234 $352 reversed $137 $-1 #
coedge $-1 $232 $347 $449 $450 reversed $137 $-1 #
coedge $-1 $240 $235 $232 $350 forward $230 $-1 #
edge $-1 $353 10.113570459999423 $451 12.953830341856971 $349 $452 forward 7 unknown #
coedge $-1 $234 $233 $356 $453 reversed $85 $-1 #
edge $-1 $454 -142.45063631092253 $353 -137.09083880678645 $347 $455 forward 7 unknown #
vertex $-1 $236 $456 #
straight-curve $-1 68.385058273603732 11.978598089871195 8.2528020103879101 0 -1 0 I I #
coedge $-1 $449 $237 $240 $360 reversed $345 $-1 #
coedge $-1 $237 $449 $351 $453 forward $345 $-1 #
vertex $-1 $238 $457 #
straight-curve $-1 71.225318155461281 31.97721475184709 99.999881262116929 0 0 1 I I #
straight-curve $-1 -4.2620164214085037 31.97721475184709 124.51242794736406 0.52991925155115449 0 -0.84804810408105047 I I #
edge $-1 $451 15.93717760763769 $241 31.97721475184709 $355 $458 forward 7 unknown #
point $-1 71.225318155461281 31.97721475184709 8.2528020103879047 #
point $-1 68.385058273603732 31.97721475184709 8.2528020103879101 #
edge $-1 $459 1 $459 0 $244 $-1 forward 7 unknown #
vertex $-1 $245 $460 #
ellipse-curve $-1 67.526092903842567 20.520045363126094 4.5559821922274404 0.84804810408105047 0 0.52991925155115449 0.52991925155115449 0 -0.84804810408105047 1 I I #
point $-1 70.33510746608367 20.520045363126094 5.1320708504863859 #
edge $-1 $461 1 $461 0 $248 $-1 forward 7 unknown #
vertex $-1 $249 $462 #
ellipse-curve $-1 67.526092903842567 27.394346996358699 4.5559821922274404 0.84804810408105047 0 0.52991925155115449 0.52991925155115449 0 -0.84804810408105047 1 I I #
point $-1 70.33510746608367 27.394346996358699 5.1320708504863859 #
plane-surface $-1 0 0 8.2528020103879047 0 0 1 1 0 0 forward_v I I I I #
coedge $-1 $382 $381 $374 $463 forward $253 $-1 #
coedge $-1 $374 $255 $257 $378 reversed $159 $-1 #
coedge $-1 $255 $373 $372 $463 reversed $159 $-1 #
coedge $-1 $263 $258 $255 $376 forward $264 $-1 #
edge $-1 $379 -23.373278354743405 $464 -20.513658145756295 $375 $465 forward 7 unknown #
coedge $-1 $257 $256 $382 $466 reversed $99 $-1 #
edge $-1 $467 0 $379 4.6447932389265087 $373 $468 forward 7 unknown #
vertex $-1 $259 $469 #
straight-curve $-1 -68.365697946474171 -13.081459212069218 8.252802010387903 0 1 0 I I #
coedge $-1 $372 $260 $263 $386 reversed $253 $-1 #
coedge $-1 $260 $372 $377 $466 forward $253 $-1 #
vertex $-1 $261 $470 #
straight-curve $-1 -71.225318155461281 -31.9772147518471 46.147011179370082 0 0 1 I I #
straight-curve $-1 -71.225318155461281 -31.9772147518471 4.5926549514939694 -0.61566146476048833 0 -0.78801076186113728 I I #
edge $-1 $464 20.348622096429771 $265 31.9772147518471 $381 $471 forward 7 unknown #
point $-1 -71.225318155461281 -31.9772147518471 8.2528020103879047 #
point $-1 -68.365697946474171 -31.9772147518471 8.2528020103879047 #
edge $-1 $472 1 $472 0 $268 $-1 forward 7 unknown #
vertex $-1 $269 $473 #
ellipse-curve $-1 -68.631757058285388 -28.65475970744215 5.5135065826522727 -0.78801076186113728 0 0.61566146476048833 0.61566146476048833 0 0.78801076186113728 1 I I #
point $-1 -69.179846586207248 -28.65475970744215 7.2107392428020782 #
edge $-1 $474 1 $474 0 $272 $-1 forward 7 unknown #
vertex $-1 $273 $475 #
ellipse-curve $-1 -68.631757058285388 -23.671077140834722 5.5135065826522727 -0.78801076186113728 0 0.61566146476048833 0.61566146476048833 0 0.78801076186113728 1 I I #
point $-1 -69.179846586207248 -23.671077140834722 7.2107392428020782 #
plane-surface $-1 71.225318155461281 0 0 -1 0 0 0 0 1 forward_v I I I I #
coedge $-1 $281 $279 $283 $402 reversed $181 $-1 #
edge $-1 $294 -8.2528020103879047 $404 8.2528020103879047 $293 $476 forward 7 unknown #
vertex $-1 $402 $477 #
straight-curve $-1 -71.225318155461281 -40.322611755096695 0 0 0 -1 I I #
edge $-1 $400 -40.322611755096695 $404 40.322611755096695 $398 $478 forward 7 unknown #
straight-curve $-1 0 -40.322611755096695 -8.2528020103879047 -1 0 0 I I #
vertex $-1 $286 $479 #
straight-curve $-1 0 40.322611755096695 -8.2528020103879047 1 0 0 I I #
point $-1 71.225318155461281 40.322611755096695 -8.2528020103879047 #
point $-1 71.225318155461281 -40.322611755096695 -8.2528020103879047 #
straight-curve $-1 -71.225318155461281 0 8.2528020103879047 0 -1 0 I I #
point $-1 -71.225318155461281 40.322611755096695 8.2528020103879047 #
point $-1 -71.225318155461281 -40.322611755096695 8.2528020103879047 #
straight-curve $-1 71.225318155461281 -40.322611755096695 0 0 0 -1 I I #
straight-curve $-1 71.225318155461281 40.322611755096695 0 0 0 -1 I I #
plane-surface $-1 71.225318155461281 0 0 -1 0 0 0 0 1 forward_v I I I I #
coedge $-1 $425 $416 $415 $480 forward $304 $-1 #
coedge $-1 $307 $306 $414 $480 reversed $121 $-1 #
coedge $-1 $414 $481 $308 $417 reversed $304 $-1 #
edge $-1 $418 -71.225318155461281 $421 71.225318155461281 $416 $482 forward 7 unknown #
vertex $-1 $309 $483 #
straight-curve $-1 -71.225318155461281 0 8.2528020103879047 0 -1 0 I I #
coedge $-1 $316 $310 $481 $484 forward $317 $-1 #
vertex $-1 $311 $485 #
straight-curve $-1 71.225318155461281 0 8.2528020103879047 0 1 0 I I #
point $-1 71.225318155461281 -40.322611755096695 8.2528020103879047 #
point $-1 -71.225318155461281 -40.322611755096695 8.2528020103879047 #
coedge $-1 $481 $414 $319 $426 reversed $304 $-1 #
edge $-1 $427 -71.225318155461281 $429 71.225318155461281 $425 $486 forward 7 unknown #
vertex $-1 $484 $487 #
straight-curve $-1 71.225318155461281 -44.495310256721496 3.6374085706357651 0 -1 0 I I #
vertex $-1 $321 $488 #
straight-curve $-1 -71.225318155461281 -44.495310256721496 3.6374085706357651 0 1 0 I I #
plane-surface $-1 -71.225318155461281 0 0 1 0 0 0 0 -1 forward_v I I I I #
coedge $-1 $489 $327 $328 $435 reversed $216 $-1 #
coedge $-1 $327 $489 $438 $490 reversed $216 $-1 #
edge $-1 $439 -2.3076967198760698 $436 2.3076967198760698 $330 $491 forward 7 unknown #
edge $-1 $447 -71.225318155461281 $436 71.225318155461281 $432 $492 forward 7 unknown #
vertex $-1 $329 $493 #
straight-curve $-1 71.225318155461281 44.495310256721488 3.6374085706357651 0 -1 0 I I #
coedge $-1 $442 $331 $433 $490 forward $325 $-1 #
vertex $-1 $332 $494 #
straight-curve $-1 71.225318155461281 0 8.2528020103879047 0 1 0 I I #
point $-1 71.225318155461281 40.322611755096695 8.2528020103879047 #
coedge $-1 $335 $438 $337 $445 forward $325 $-1 #
straight-curve $-1 0 40.322611755096695 8.2528020103879047 1 0 0 I I #
coedge $-1 $338 $337 $489 $495 forward $339 $-1 #
edge $-1 $496 -48.668008758346289 $340 -40.322611755096695 $337 $497 forward 7 unknown #
point $-1 -71.225318155461281 40.322611755096695 8.2528020103879047 #
vertex $-1 $435 $498 #
straight-curve $-1 -71.225318155461281 44.495310256721488 3.6374085706357651 0 1 0 I I #
coedge $-1 $356 $355 $348 $450 forward $345 $-1 #
edge $-1 $451 91.747079251729019 $454 96.292445363369964 $449 $499 forward 7 unknown #
vertex $-1 $360 $500 #
straight-curve $-1 58.27148781360431 15.93717760763769 8.2528020103879101 1 0 0 I I #
edge $-1 $454 3.9585795177664949 $357 19.998616661975895 $356 $501 forward 7 unknown #
vertex $-1 $453 $502 #
straight-curve $-1 -4.2620164214085037 15.93717760763769 124.51242794736406 -0.52991925155115449 0 0.84804810408105047 I I #
point $-1 68.385058273603732 15.93717760763769 8.2528020103879101 #
point $-1 71.225318155461281 31.97721475184709 3.7074358987469651 #
straight-curve $-1 71.225318155461281 0 8.2528020103879047 0 1 0 I I #
vertex $-1 $363 $503 #
point $-1 68.056012155393731 20.520045363126094 3.7079340881463896 #
vertex $-1 $367 $504 #
point $-1 68.056012155393731 27.394346996358699 3.7079340881463896 #
edge $-1 $464 37.894209168982179 $467 41.554356227876113 $372 $505 forward 7 unknown #
vertex $-1 $386 $506 #
straight-curve $-1 -91.738976301217576 -20.348622096429771 8.252802010387903 -1 0 0 I I #
edge $-1 $467 7.2671628843605536 $383 18.89575553977788 $382 $507 forward 7 unknown #
vertex $-1 $466 $508 #
straight-curve $-1 -71.225318155461281 -20.348622096429771 4.5926549514939694 0.61566146476048833 0 0.78801076186113728 I I #
point $-1 -68.365697946474171 -20.348622096429771 8.2528020103879047 #
point $-1 -71.225318155461281 -31.9772147518471 4.5926549514939694 #
straight-curve $-1 -71.225318155461281 0 8.2528020103879047 0 -1 0 I I #
vertex $-1 $389 $509 #
point $-1 -68.016095593524909 -28.65475970744215 6.3015173445134094 #
vertex $-1 $393 $510 #
point $-1 -68.016095593524909 -23.671077140834722 6.3015173445134094 #
straight-curve $-1 -71.225318155461281 40.322611755096695 0 0 0 -1 I I #
point $-1 -71.225318155461281 -40.322611755096695 -8.2528020103879047 #
straight-curve $-1 -71.225318155461281 0 -8.2528020103879047 0 1 0 I I #
point $-1 -71.225318155461281 40.322611755096695 -8.2528020103879047 #
edge $-1 $418 -2.3076967198760698 $429 2.3076967198760698 $415 $511 forward 7 unknown #
coedge $-1 $416 $425 $420 $484 reversed $304 $-1 #
straight-curve $-1 0 -48.668008758346289 8.2528020103879047 1 0 0 I I #
point $-1 -71.225318155461281 -48.668008758346289 8.2528020103879047 #
edge $-1 $421 -2.3076967198760698 $427 2.3076967198760698 $420 $512 forward 7 unknown #
point $-1 71.225318155461281 -48.668008758346289 8.2528020103879047 #
straight-curve $-1 0 -48.668008758346289 3.6374085706357651 -1 0 0 I I #
point $-1 71.225318155461281 -48.668008758346289 3.6374085706357651 #
point $-1 -71.225318155461281 -48.668008758346289 3.6374085706357651 #
coedge $-1 $433 $432 $444 $495 reversed $216 $-1 #
edge $-1 $439 -71.225318155461281 $496 71.225318155461281 $433 $513 forward 7 unknown #
straight-curve $-1 71.225318155461281 48.668008758346289 5.9451052905118349 0 0 -1 I I #
straight-curve $-1 0 48.668008758346289 3.6374085706357651 1 0 0 I I #
point $-1 71.225318155461281 48.668008758346289 3.6374085706357651 #
point $-1 71.225318155461281 48.668008758346289 8.2528020103879047 #
edge $-1 $496 -2.3076967198760698 $447 2.3076967198760698 $489 $514 forward 7 unknown #
vertex $-1 $490 $515 #
straight-curve $-1 -71.225318155461281 0 8.2528020103879047 0 -1 0 I I #
point $-1 -71.225318155461281 48.668008758346289 3.6374085706357651 #
straight-curve $-1 71.225318155461281 15.93717760763769 99.999881262116929 0 0 -1 I I #
point $-1 71.225318155461281 15.93717760763769 8.2528020103879047 #
straight-curve $-1 71.225318155461281 11.978598089871195 3.7074358987469651 0 1 0 I I #
point $-1 71.225318155461281 15.93717760763769 3.7074358987469651 #
point $-1 66.678044799761523 20.520045363126094 4.0260629406762858 #
point $-1 66.678044799761523 27.394346996358699 4.0260629406762858 #
straight-curve $-1 -71.225318155461281 -20.348622096429771 46.147011179370082 0 0 -1 I I #
point $-1 -71.225318155461281 -20.348622096429771 8.2528020103879047 #
straight-curve $-1 -71.225318155461281 -13.081459212069218 4.5926549514939623 0 -1 0 I I #
point $-1 -71.225318155461281 -20.348622096429771 4.5926549514939694 #
point $-1 -67.843746296424257 -28.65475970744215 4.8978451178917837 #
point $-1 -67.843746296424257 -23.671077140834722 4.8978451178917837 #
straight-curve $-1 -71.225318155461281 -48.668008758346289 5.9451052905118349 0 0 -1 I I #
straight-curve $-1 71.225318155461281 -48.668008758346289 5.9451052905118349 0 0 -1 I I #
straight-curve $-1 0 48.668008758346289 8.2528020103879047 -1 0 0 I I #
straight-curve $-1 -71.225318155461281 48.668008758346289 5.9451052905118349 0 0 -1 I I #
point $-1 -71.225318155461281 48.668008758346289 8.2528020103879047 #
End-of-ACIS-data 