500 0 5 0           
7 Unknown 11 ACIS 5.0 NT 24 Thu Mar 25 18:43:57 1999 
-1 9.9999999999999995e-007 1e-010 
body $-1 $5 $-1 $6 #
body $-1 $7 $-1 $8 #
body $-1 $9 $-1 $10 #
body $-1 $11 $-1 $12 #
body $-1 $13 $-1 $14 #
lump $-1 $-1 $15 $0 #
transform $-1 1 0 0 0 1 0 0 0 1 72.303231910153499 41.423372641882004 20.236101958995263 1 rotate no_reflect no_shear #
lump $-1 $-1 $16 $1 #
transform $-1 1 0 0 0 1 0 0 0 1 72.303231910153499 41.423372641882004 20.236101958995263 1 rotate no_reflect no_shear #
lump $-1 $-1 $17 $2 #
transform $-1 1 0 0 0 1 0 0 0 1 72.303231910153499 41.423372641882004 20.236101958995263 1 rotate no_reflect no_shear #
lump $-1 $-1 $18 $3 #
transform $-1 1 0 0 0 1 0 0 0 1 72.303231910153499 41.423372641882004 20.236101958995263 1 rotate no_reflect no_shear #
lump $-1 $-1 $19 $4 #
transform $-1 1 0 0 0 1 0 0 0 1 72.303231910153499 41.423372641882004 20.236101958995263 1 rotate no_reflect no_shear #
shell $-1 $-1 $-1 $20 $-1 $5 #
shell $-1 $-1 $-1 $21 $-1 $7 #
shell $-1 $-1 $-1 $22 $-1 $9 #
shell $-1 $-1 $-1 $23 $-1 $11 #
shell $-1 $-1 $-1 $24 $-1 $13 #
face $-1 $25 $26 $15 $-1 $27 forward single #
face $-1 $28 $29 $16 $-1 $30 reversed single #
face $-1 $31 $32 $17 $-1 $33 forward single #
face $-1 $34 $35 $18 $-1 $36 reversed single #
face $-1 $37 $38 $19 $-1 $39 reversed single #
face $-1 $40 $41 $15 $-1 $42 reversed single #
loop $-1 $-1 $43 $20 #
plane-surface $-1 0 0 20.236101958995263 0 0 1 1 0 0 forward_v I I I I #
face $-1 $44 $45 $16 $-1 $46 forward single #
loop $-1 $-1 $47 $21 #
plane-surface $-1 -60.101116252479471 0 -13.319872037464821 0 0 1 1 0 0 forward_v I I I I #
face $-1 $48 $49 $17 $-1 $50 forward single #
loop $-1 $-1 $51 $22 #
plane-surface $-1 61.600299622553877 -1.4614261948759051 221.23354353227944 0 -1 0 -0.66913061440640931 0 -0.74314481823134659 forward_v I I I I #
face $-1 $52 $53 $18 $-1 $54 reversed single #
loop $-1 $55 $56 $23 #
cone-surface $-1 69.924817423702009 -8.0425645459295438 17.971259695490268 -0.66913061440640931 0 -0.74314481823134659 0.74314481823134659 0 -0.66913061440640931 1 I I 0 1 1 forward I I I I #
face $-1 $57 $58 $19 $-1 $59 reversed single #
loop $-1 $60 $61 $24 #
cone-surface $-1 69.924817423702009 -4.0938815352973634 17.971259695490268 -0.66913061440640931 0 -0.74314481823134659 0.74314481823134659 0 -0.66913061440640931 1 I I 0 1 1 forward I I I I #
face $-1 $62 $63 $15 $-1 $64 reversed single #
loop $-1 $-1 $65 $25 #
plane-surface $-1 0 0 -20.236101958995263 0 0 1 1 0 0 forward_v I I I I #
coedge $-1 $66 $67 $68 $69 forward $26 $-1 #
face $-1 $70 $71 $16 $-1 $72 reversed single #
loop $-1 $-1 $73 $28 #
plane-surface $-1 -47.899000594805443 0 -16.777986998230041 -1 0 0 0 0 1 forward_v I I I I #
coedge $-1 $74 $75 $76 $77 reversed $29 $-1 #
face $-1 $78 $79 $17 $-1 $80 forward single #
loop $-1 $-1 $81 $31 #
plane-surface $-1 -35.160312360666339 -6.0682230406134536 113.7699992614596 0.66913061440640931 0 0.74314481823134659 0.74314481823134659 0 -0.66913061440640931 forward_v I I I I #
coedge $-1 $82 $83 $84 $85 reversed $32 $-1 #
face $-1 $86 $87 $18 $-1 $88 forward single #
loop $-1 $89 $90 $34 #
cone-surface $-1 69.003652444141522 -8.0425645459295438 16.948202363247532 -0.66913061440640931 0 -0.74314481823134659 0.3715724091156733 0 -0.33456530720320465 1 I I -0.70710678118654746 0.70710678118654746 0.5 forward I I I I #
loop $-1 $-1 $91 $23 #
coedge $-1 $56 $56 $92 $93 reversed $35 $-1 #
face $-1 $94 $95 $19 $-1 $96 reversed single #
loop $-1 $97 $98 $37 #
cone-surface $-1 69.003652444141522 -4.0938815352973634 16.948202363247532 -0.66913061440640931 0 -0.74314481823134659 0.3715724091156733 0 -0.33456530720320465 1 I I -0.70710678118654746 0.70710678118654746 0.5 forward I I I I #
loop $-1 $-1 $99 $24 #
coedge $-1 $61 $61 $100 $101 reversed $38 $-1 #
face $-1 $102 $103 $15 $-1 $104 reversed single #
loop $-1 $-1 $105 $40 #
plane-surface $-1 0 -41.423372641882004 0 0 1 0 0 0 1 forward_v I I I I #
coedge $-1 $106 $107 $108 $109 forward $41 $-1 #
coedge $-1 $110 $43 $111 $112 forward $26 $-1 #
coedge $-1 $43 $110 $113 $114 forward $26 $-1 #
coedge $-1 $115 $116 $43 $69 reversed $117 $-1 #
edge $-1 $118 -41.423372641882004 $119 41.423372641882004 $68 $120 forward 7 unknown #
face $-1 $121 $122 $16 $-1 $123 reversed single #
loop $-1 $-1 $124 $44 #
plane-surface $-1 -72.303231910153499 0 0 1 0 0 0 0 -1 forward_v I I I I #
coedge $-1 $76 $125 $126 $127 reversed $45 $-1 #
coedge $-1 $128 $47 $129 $130 reversed $29 $-1 #
coedge $-1 $47 $128 $131 $132 reversed $29 $-1 #
coedge $-1 $133 $73 $47 $77 forward $45 $-1 #
edge $-1 $134 -41.423372641882004 $135 41.423372641882004 $76 $136 forward 7 unknown #
face $-1 $137 $138 $17 $-1 $139 forward single #
loop $-1 $-1 $140 $48 #
plane-surface $-1 61.600299622553877 -10.675019886351002 221.23354353227944 0 1 0 0.66913061440640931 0 0.74314481823134659 forward_v I I I I #
coedge $-1 $141 $142 $143 $144 reversed $49 $-1 #
coedge $-1 $83 $51 $142 $145 forward $32 $-1 #
coedge $-1 $51 $82 $146 $147 reversed $32 $-1 #
coedge $-1 $148 $143 $51 $85 forward $138 $-1 #
edge $-1 $149 37.919452470688128 $150 41.503082098876561 $84 $151 forward 7 unknown #
face $-1 $152 $153 $18 $-1 $154 forward single #
loop $-1 $-1 $155 $52 #
plane-surface $-1 61.600299622553877 -1.4614261948759051 221.23354353227944 0 -1 0 -0.66913061440640931 0 -0.74314481823134659 forward_v I I I I #
loop $-1 $-1 $156 $34 #
coedge $-1 $90 $90 $91 $157 forward $53 $-1 #
coedge $-1 $91 $91 $90 $157 reversed $55 $-1 #
coedge $-1 $92 $92 $56 $93 forward $153 $-1 #
edge $-1 $158 0 $158 6.2831853071796004 $92 $159 forward 7 unknown #
face $-1 $160 $161 $19 $-1 $162 reversed single #
loop $-1 $163 $164 $57 #
cone-surface $-1 69.924817423702009 -8.0425645459295438 17.971259695490268 -0.66913061440640931 0 -0.74314481823134659 0.74314481823134659 0 -0.66913061440640931 1 I I 0 1 1 forward I I I I #
loop $-1 $-1 $165 $37 #
coedge $-1 $98 $98 $99 $166 forward $58 $-1 #
coedge $-1 $99 $99 $98 $166 reversed $60 $-1 #
coedge $-1 $100 $100 $61 $101 forward $167 $-1 #
edge $-1 $168 0 $168 6.2831853071796004 $100 $169 forward 7 unknown #
face $-1 $170 $171 $15 $-1 $172 reversed single #
loop $-1 $-1 $173 $62 #
plane-surface $-1 -72.303231910153499 0 0 1 0 0 0 0 -1 forward_v I I I I #
coedge $-1 $174 $113 $175 $176 forward $63 $-1 #
coedge $-1 $177 $65 $174 $178 forward $41 $-1 #
coedge $-1 $65 $177 $179 $180 forward $41 $-1 #
coedge $-1 $116 $115 $65 $109 reversed $117 $-1 #
edge $-1 $181 -41.423372641882004 $182 41.423372641882004 $108 $183 forward 7 unknown #
coedge $-1 $67 $66 $184 $185 forward $26 $-1 #
coedge $-1 $186 $187 $66 $112 reversed $171 $-1 #
edge $-1 $119 -72.303231910153499 $188 72.303231910153499 $111 $189 forward 7 unknown #
coedge $-1 $105 $190 $67 $114 reversed $63 $-1 #
edge $-1 $191 -72.303231910153499 $118 72.303231910153499 $113 $192 forward 7 unknown #
coedge $-1 $108 $68 $190 $193 forward $117 $-1 #
coedge $-1 $68 $108 $186 $194 reversed $117 $-1 #
loop $-1 $-1 $115 $170 #
vertex $-1 $69 $195 #
vertex $-1 $69 $196 #
straight-curve $-1 72.303231910153499 0 20.236101958995263 0 1 0 I I #
face $-1 $197 $198 $16 $-1 $199 forward single #
loop $-1 $-1 $129 $70 #
plane-surface $-1 0 -41.423372641882004 0 0 1 0 0 0 1 forward_v I I I I #
coedge $-1 $200 $201 $128 $202 forward $71 $-1 #
coedge $-1 $73 $133 $203 $204 reversed $45 $-1 #
coedge $-1 $205 $129 $73 $127 forward $122 $-1 #
edge $-1 $134 4.9308785383498002 $206 11.847108459880243 $126 $207 forward 7 unknown #
coedge $-1 $75 $74 $124 $202 reversed $29 $-1 #
coedge $-1 $126 $208 $74 $130 forward $122 $-1 #
edge $-1 $209 -42.252673783913764 $134 -17.848442468565707 $129 $210 forward 7 unknown #
coedge $-1 $211 $212 $75 $132 forward $213 $-1 #
edge $-1 $135 17.848442468565707 $214 42.252673783913764 $131 $215 forward 7 unknown #
coedge $-1 $125 $76 $212 $216 reversed $45 $-1 #
vertex $-1 $130 $217 #
vertex $-1 $132 $218 #
straight-curve $-1 -47.899000594805443 0 -13.319872037464821 0 1 0 I I #
face $-1 $219 $220 $17 $-1 $221 reversed single #
loop $-1 $-1 $222 $78 #
plane-surface $-1 0 0 20.236101958995263 0 0 1 1 0 0 forward_v I I I I #
coedge $-1 $223 $224 $222 $225 reversed $79 $-1 #
coedge $-1 $226 $81 $224 $227 reversed $49 $-1 #
coedge $-1 $81 $226 $82 $145 reversed $49 $-1 #
coedge $-1 $84 $222 $81 $144 forward $138 $-1 #
edge $-1 $228 -7.6409083660442754 $149 1.5726853254308217 $143 $229 forward 7 unknown #
edge $-1 $149 139.78421445481007 $230 144.606463820307 $82 $231 forward 7 unknown #
coedge $-1 $232 $233 $83 $147 forward $234 $-1 #
edge $-1 $150 90.380669807144457 $230 93.607384487900333 $146 $235 forward 7 unknown #
coedge $-1 $236 $84 $233 $237 forward $138 $-1 #
vertex $-1 $144 $238 #
vertex $-1 $237 $239 #
straight-curve $-1 30.800149811276938 -1.4614261948759051 20.236101958995263 1 0 0 I I #
face $-1 $240 $241 $18 $-1 $242 forward single #
loop $-1 $243 $92 $86 #
plane-surface $-1 -35.160312360666339 -6.0682230406134536 113.7699992614596 0.66913061440640931 0 0.74314481823134659 0.74314481823134659 0 -0.66913061440640931 forward_v I I I I #
coedge $-1 $244 $245 $246 $247 reversed $87 $-1 #
coedge $-1 $156 $156 $-1 $248 forward $89 $-1 #
edge $-1 $249 0 $249 6.2831853071796004 $90 $250 forward 7 unknown #
vertex $-1 $93 $251 #
ellipse-curve $-1 70.511417096059276 -8.0425645459295438 18.622744618617315 -0.66913061440640931 0 -0.74314481823134659 0.74314481823134659 0 -0.66913061440640931 1 I I #
face $-1 $252 $253 $19 $-1 $254 forward single #
loop $-1 $255 $256 $94 #
cone-surface $-1 69.003652444141522 -8.0425645459295438 16.948202363247532 -0.66913061440640931 0 -0.74314481823134659 0.3715724091156733 0 -0.33456530720320465 1 I I -0.70710678118654746 0.70710678118654746 0.5 forward I I I I #
loop $-1 $-1 $257 $57 #
coedge $-1 $164 $164 $258 $259 reversed $95 $-1 #
coedge $-1 $165 $165 $-1 $260 forward $97 $-1 #
edge $-1 $261 0 $261 6.2831853071796004 $98 $262 forward 7 unknown #
loop $-1 $263 $100 $252 #
vertex $-1 $101 $264 #
ellipse-curve $-1 70.511417096059276 -4.0938815352973634 18.622744618617315 -0.66913061440640931 0 -0.74314481823134659 0.74314481823134659 0 -0.66913061440640931 1 I I #
face $-1 $-1 $117 $15 $-1 $265 reversed single #
loop $-1 $-1 $186 $102 #
plane-surface $-1 0 41.423372641882004 0 0 -1 0 0 0 -1 forward_v I I I I #
coedge $-1 $266 $184 $187 $267 forward $103 $-1 #
coedge $-1 $190 $105 $106 $178 reversed $63 $-1 #
coedge $-1 $184 $266 $105 $176 reversed $103 $-1 #
edge $-1 $191 -20.236101958995263 $268 20.236101958995263 $175 $269 forward 7 unknown #
coedge $-1 $107 $106 $266 $270 forward $41 $-1 #
edge $-1 $182 -72.303231910153499 $268 72.303231910153499 $174 $271 forward 7 unknown #
coedge $-1 $187 $186 $107 $180 reversed $171 $-1 #
edge $-1 $272 -72.303231910153499 $181 72.303231910153499 $179 $273 forward 7 unknown #
vertex $-1 $109 $274 #
vertex $-1 $193 $275 #
straight-curve $-1 72.303231910153499 0 -20.236101958995263 0 -1 0 I I #
coedge $-1 $173 $175 $110 $185 reversed $103 $-1 #
edge $-1 $188 -41.423372641882004 $191 41.423372641882004 $184 $276 forward 7 unknown #
coedge $-1 $179 $111 $116 $194 forward $171 $-1 #
coedge $-1 $111 $179 $173 $267 reversed $171 $-1 #
vertex $-1 $112 $277 #
straight-curve $-1 0 41.423372641882004 20.236101958995263 -1 0 0 I I #
coedge $-1 $113 $174 $115 $193 reversed $63 $-1 #
vertex $-1 $185 $278 #
straight-curve $-1 0 -41.423372641882004 20.236101958995263 1 0 0 I I #
edge $-1 $118 -20.236101958995263 $182 20.236101958995263 $115 $279 forward 7 unknown #
edge $-1 $119 -20.236101958995263 $181 20.236101958995263 $116 $280 forward 7 unknown #
point $-1 72.303231910153499 -41.423372641882004 20.236101958995263 #
point $-1 72.303231910153499 41.423372641882004 20.236101958995263 #
face $-1 $281 $282 $16 $-1 $283 reversed single #
loop $-1 $-1 $284 $121 #
plane-surface $-1 0 0 20.236101958995263 0 0 1 1 0 0 forward_v I I I I #
coedge $-1 $285 $124 $208 $286 reversed $71 $-1 #
coedge $-1 $124 $285 $211 $287 forward $71 $-1 #
edge $-1 $214 -41.423372641882004 $209 41.423372641882004 $124 $288 forward 7 unknown #
coedge $-1 $289 $290 $125 $204 forward $282 $-1 #
edge $-1 $206 -41.423372641882004 $291 41.423372641882004 $203 $292 forward 7 unknown #
coedge $-1 $293 $126 $290 $294 reversed $122 $-1 #
vertex $-1 $127 $295 #
straight-curve $-1 -47.899000594805443 -41.423372641882004 -8.3889934991150206 0 0 -1 I I #
coedge $-1 $129 $296 $200 $286 forward $122 $-1 #
vertex $-1 $130 $297 #
straight-curve $-1 -30.050558126239736 -41.423372641882004 -13.319872037464821 1 0 0 I I #
coedge $-1 $298 $131 $201 $287 reversed $213 $-1 #
coedge $-1 $131 $299 $133 $216 forward $213 $-1 #
loop $-1 $-1 $131 $281 #
vertex $-1 $202 $300 #
straight-curve $-1 -30.050558126239736 41.423372641882004 -13.319872037464821 -1 0 0 I I #
edge $-1 $291 -11.847108459880243 $135 -4.9308785383498002 $212 $301 forward 7 unknown #
point $-1 -47.899000594805443 -41.423372641882004 -13.319872037464821 #
point $-1 -47.899000594805443 41.423372641882004 -13.319872037464821 #
face $-1 $302 $303 $17 $-1 $304 forward single #
loop $-1 $-1 $305 $137 #
plane-surface $-1 -60.101116252479471 0 -13.319872037464821 0 0 1 1 0 0 forward_v I I I I #
coedge $-1 $143 $306 $140 $225 forward $138 $-1 #
coedge $-1 $224 $140 $307 $308 reversed $79 $-1 #
coedge $-1 $140 $223 $141 $227 forward $79 $-1 #
edge $-1 $309 -41.503082098876561 $228 -37.919452470688128 $222 $310 forward 7 unknown #
coedge $-1 $142 $141 $232 $311 reversed $49 $-1 #
edge $-1 $312 -144.606463820307 $228 -139.78421445481007 $224 $313 forward 7 unknown #
vertex $-1 $144 $314 #
straight-curve $-1 68.719602281965052 -3.0341115203067268 20.236101958995256 0 1 0 I I #
vertex $-1 $311 $315 #
straight-curve $-1 -35.160312360666339 -1.4614261948759051 113.7699992614596 0.74314481823134659 0 -0.66913061440640931 I I #
coedge $-1 $307 $146 $226 $311 forward $234 $-1 #
coedge $-1 $146 $316 $148 $237 reversed $234 $-1 #
loop $-1 $-1 $307 $317 #
straight-curve $-1 72.303231910153499 -1.4614261948759051 110.61677176613972 0 0 -1 I I #
coedge $-1 $318 $148 $319 $320 forward $138 $-1 #
edge $-1 $150 -1.4614261948759051 $321 41.423372641882004 $233 $322 forward 7 unknown #
point $-1 68.719602281965066 -1.4614261948759051 20.236101958995263 #
point $-1 72.303231910153499 -1.4614261948759051 20.236101958995263 #
face $-1 $323 $324 $18 $-1 $325 forward single #
loop $-1 $-1 $326 $152 #
plane-surface $-1 61.600299622553877 -10.675019886351002 221.23354353227944 0 1 0 0.66913061440640931 0 0.74314481823134659 forward_v I I I I #
loop $-1 $-1 $327 $86 #
coedge $-1 $245 $155 $328 $329 forward $87 $-1 #
coedge $-1 $155 $244 $330 $331 reversed $87 $-1 #
coedge $-1 $332 $333 $155 $247 forward $324 $-1 #
edge $-1 $334 37.919452470688128 $335 41.503082098876561 $246 $336 forward 7 unknown #
edge $-1 $337 1 $337 0 $156 $-1 forward 7 unknown #
vertex $-1 $157 $338 #
ellipse-curve $-1 69.338217751344729 -8.0425645459295438 17.319774772363203 0.66913061440640931 0 0.74314481823134659 0.74314481823134659 0 -0.66913061440640931 1 I I #
point $-1 71.254561914290647 -8.0425645459295438 17.953614004210923 #
face $-1 $339 $167 $19 $-1 $340 forward single #
loop $-1 $-1 $341 $160 #
plane-surface $-1 61.600299622553877 -1.4614261948759051 221.23354353227944 0 -1 0 -0.66913061440640931 0 -0.74314481823134659 forward_v I I I I #
loop $-1 $-1 $342 $94 #
coedge $-1 $256 $256 $257 $343 forward $161 $-1 #
coedge $-1 $257 $257 $256 $343 reversed $163 $-1 #
coedge $-1 $258 $258 $164 $259 forward $263 $-1 #
edge $-1 $344 0 $344 6.2831853071796004 $258 $345 forward 7 unknown #
edge $-1 $346 1 $346 0 $165 $-1 forward 7 unknown #
vertex $-1 $166 $347 #
ellipse-curve $-1 69.338217751344729 -4.0938815352973634 17.319774772363203 0.66913061440640931 0 0.74314481823134659 0.74314481823134659 0 -0.66913061440640931 1 I I #
loop $-1 $348 $258 $252 #
point $-1 71.254561914290647 -4.0938815352973634 17.953614004210923 #
plane-surface $-1 72.303231910153499 0 0 -1 0 0 0 0 1 forward_v I I I I #
coedge $-1 $175 $173 $177 $270 reversed $103 $-1 #
edge $-1 $188 -20.236101958995263 $272 20.236101958995263 $187 $349 forward 7 unknown #
vertex $-1 $270 $350 #
straight-curve $-1 -72.303231910153499 -41.423372641882004 0 0 0 -1 I I #
edge $-1 $268 -41.423372641882004 $272 41.423372641882004 $266 $351 forward 7 unknown #
straight-curve $-1 0 -41.423372641882004 -20.236101958995263 -1 0 0 I I #
vertex $-1 $180 $352 #
straight-curve $-1 0 41.423372641882004 -20.236101958995263 1 0 0 I I #
point $-1 72.303231910153499 41.423372641882004 -20.236101958995263 #
point $-1 72.303231910153499 -41.423372641882004 -20.236101958995263 #
straight-curve $-1 -72.303231910153499 0 20.236101958995263 0 -1 0 I I #
point $-1 -72.303231910153499 41.423372641882004 20.236101958995263 #
point $-1 -72.303231910153499 -41.423372641882004 20.236101958995263 #
straight-curve $-1 72.303231910153499 -41.423372641882004 0 0 0 -1 I I #
straight-curve $-1 72.303231910153499 41.423372641882004 0 0 0 -1 I I #
face $-1 $353 $213 $16 $-1 $354 reversed single #
loop $-1 $-1 $203 $197 #
plane-surface $-1 0 0 -20.236101958995263 0 0 1 1 0 0 forward_v I I I I #
coedge $-1 $355 $356 $357 $358 forward $198 $-1 #
coedge $-1 $201 $200 $359 $360 reversed $71 $-1 #
edge $-1 $361 -20.236101958995263 $209 13.319872037464821 $200 $362 forward 7 unknown #
edge $-1 $363 -20.236101958995263 $214 13.319872037464821 $211 $364 forward 7 unknown #
straight-curve $-1 -72.303231910153499 0 -13.319872037464821 0 -1 0 I I #
coedge $-1 $365 $203 $299 $366 forward $282 $-1 #
coedge $-1 $203 $365 $205 $294 forward $282 $-1 #
vertex $-1 $366 $367 #
straight-curve $-1 -47.899000594805443 0 -20.236101958995263 0 1 0 I I #
coedge $-1 $296 $205 $368 $369 reversed $122 $-1 #
edge $-1 $370 -72.303231910153499 $206 47.899000594805443 $205 $371 forward 7 unknown #
point $-1 -47.899000594805443 -41.423372641882004 -20.236101958995263 #
coedge $-1 $208 $293 $356 $372 reversed $122 $-1 #
point $-1 -72.303231910153499 -41.423372641882004 -13.319872037464821 #
coedge $-1 $373 $211 $355 $374 reversed $213 $-1 #
coedge $-1 $212 $373 $289 $366 reversed $213 $-1 #
point $-1 -72.303231910153499 41.423372641882004 -13.319872037464821 #
straight-curve $-1 -47.899000594805443 41.423372641882004 -8.3889934991150206 0 0 1 I I #
face $-1 $375 $376 $17 $-1 $377 reversed single #
loop $-1 $-1 $378 $219 #
plane-surface $-1 -47.899000594805443 0 -16.777986998230041 -1 0 0 0 0 1 forward_v I I I I #
coedge $-1 $379 $380 $381 $382 reversed $220 $-1 #
coedge $-1 $222 $383 $384 $385 forward $138 $-1 #
coedge $-1 $384 $232 $223 $308 forward $234 $-1 #
edge $-1 $312 -93.607384487900333 $309 -90.380669807144457 $307 $386 forward 7 unknown #
vertex $-1 $308 $387 #
straight-curve $-1 30.800149811276938 -10.675019886351002 20.236101958995263 -1 0 0 I I #
edge $-1 $230 -1.5726853254308217 $312 7.6409083660442754 $232 $388 forward 7 unknown #
vertex $-1 $311 $389 #
straight-curve $-1 -35.160312360666339 -10.675019886351002 113.7699992614596 -0.74314481823134659 0 0.66913061440640931 I I #
point $-1 68.719602281965066 -10.675019886351002 20.236101958995263 #
point $-1 72.303231910153499 -1.4614261948759051 17.009387278239387 #
coedge $-1 $233 $390 $391 $392 reversed $234 $-1 #
face $-1 $-1 $234 $17 $-1 $393 reversed single #
coedge $-1 $383 $236 $394 $395 forward $138 $-1 #
coedge $-1 $391 $396 $236 $320 reversed $397 $-1 #
edge $-1 $321 -72.303231910153499 $398 72.303231910153499 $319 $399 forward 7 unknown #
vertex $-1 $237 $400 #
straight-curve $-1 72.303231910153499 0 20.236101958995263 0 1 0 I I #
face $-1 $401 $402 $18 $-1 $403 reversed single #
loop $-1 $-1 $404 $240 #
plane-surface $-1 0 0 20.236101958995263 0 0 1 1 0 0 forward_v I I I I #
coedge $-1 $405 $406 $404 $407 reversed $241 $-1 #
coedge $-1 $408 $328 $333 $409 reversed $243 $-1 #
coedge $-1 $327 $410 $244 $329 reversed $243 $-1 #
edge $-1 $334 139.78421445481007 $411 144.606463820307 $244 $412 forward 7 unknown #
coedge $-1 $413 $414 $245 $331 forward $415 $-1 #
edge $-1 $335 90.380669807144457 $411 93.607384487900333 $330 $416 forward 7 unknown #
coedge $-1 $417 $246 $414 $418 forward $324 $-1 #
coedge $-1 $246 $404 $327 $409 forward $324 $-1 #
vertex $-1 $409 $419 #
vertex $-1 $418 $420 #
straight-curve $-1 30.800149811276938 -1.4614261948759051 20.236101958995263 1 0 0 I I #
vertex $-1 $248 $421 #
point $-1 70.081362569576072 -8.0425645459295438 16.650644157956794 #
face $-1 $422 $423 $19 $-1 $424 forward single #
plane-surface $-1 -35.160312360666339 -6.0682230406134536 113.7699992614596 0.66913061440640931 0 0.74314481823134659 0.74314481823134659 0 -0.66913061440640931 forward_v I I I I #
coedge $-1 $425 $426 $427 $428 reversed $253 $-1 #
coedge $-1 $342 $342 $-1 $429 forward $255 $-1 #
edge $-1 $430 0 $430 6.2831853071796004 $256 $431 forward 7 unknown #
vertex $-1 $259 $432 #
ellipse-curve $-1 70.511417096059276 -8.0425645459295438 18.622744618617315 -0.66913061440640931 0 -0.74314481823134659 0.74314481823134659 0 -0.66913061440640931 1 I I #
vertex $-1 $260 $433 #
point $-1 70.081362569576072 -4.0938815352973634 16.650644157956794 #
loop $-1 $-1 $434 $252 #
straight-curve $-1 -72.303231910153499 41.423372641882004 0 0 0 -1 I I #
point $-1 -72.303231910153499 -41.423372641882004 -20.236101958995263 #
straight-curve $-1 -72.303231910153499 0 -20.236101958995263 0 1 0 I I #
point $-1 -72.303231910153499 41.423372641882004 -20.236101958995263 #
face $-1 $-1 $435 $16 $-1 $436 reversed single #
plane-surface $-1 0 41.423372641882004 0 0 -1 0 0 0 -1 forward_v I I I I #
coedge $-1 $359 $284 $298 $374 forward $198 $-1 #
coedge $-1 $284 $359 $296 $372 forward $198 $-1 #
coedge $-1 $368 $437 $284 $358 reversed $435 $-1 #
edge $-1 $438 -41.423372641882004 $439 41.423372641882004 $357 $440 forward 7 unknown #
coedge $-1 $356 $355 $285 $360 forward $198 $-1 #
edge $-1 $363 -41.423372641882004 $361 41.423372641882004 $285 $441 forward 7 unknown #
vertex $-1 $360 $442 #
straight-curve $-1 -72.303231910153499 -41.423372641882004 0 0 0 -1 I I #
vertex $-1 $374 $443 #
straight-curve $-1 -72.303231910153499 41.423372641882004 0 0 0 -1 I I #
coedge $-1 $290 $289 $444 $445 forward $282 $-1 #
edge $-1 $291 -47.899000594805443 $446 72.303231910153499 $299 $447 forward 7 unknown #
point $-1 -47.899000594805443 41.423372641882004 -20.236101958995263 #
coedge $-1 $444 $357 $293 $369 forward $435 $-1 #
edge $-1 $438 -20.236101958995263 $370 20.236101958995263 $368 $448 forward 7 unknown #
vertex $-1 $369 $449 #
straight-curve $-1 0 -41.423372641882004 -20.236101958995263 -1 0 0 I I #
edge $-1 $361 -72.303231910153499 $438 72.303231910153499 $296 $450 forward 7 unknown #
coedge $-1 $299 $298 $437 $451 forward $213 $-1 #
edge $-1 $439 -72.303231910153499 $363 72.303231910153499 $298 $452 forward 7 unknown #
face $-1 $453 $454 $17 $-1 $455 reversed single #
loop $-1 $-1 $456 $302 #
plane-surface $-1 -72.303231910153499 0 0 1 0 0 0 0 -1 forward_v I I I I #
coedge $-1 $381 $457 $458 $459 reversed $303 $-1 #
coedge $-1 $460 $305 $461 $462 reversed $220 $-1 #
coedge $-1 $305 $460 $463 $464 reversed $220 $-1 #
coedge $-1 $465 $378 $305 $382 forward $303 $-1 #
edge $-1 $466 -41.423372641882004 $467 41.423372641882004 $381 $468 forward 7 unknown #
coedge $-1 $306 $318 $469 $470 forward $138 $-1 #
coedge $-1 $471 $307 $306 $385 reversed $234 $-1 #
edge $-1 $472 -41.423372641882004 $309 -10.675019886351002 $384 $322 forward 7 unknown #
straight-curve $-1 72.303231910153499 -10.675019886351002 110.61677176613972 0 0 1 I I #
point $-1 72.303231910153499 -10.675019886351002 20.236101958995263 #
straight-curve $-1 72.303231910153499 -3.0341115203067268 17.00938727823938 0 -1 0 I I #
point $-1 72.303231910153499 -10.675019886351002 17.009387278239387 #
coedge $-1 $316 $471 $473 $474 reversed $234 $-1 #
coedge $-1 $475 $319 $316 $392 forward $397 $-1 #
edge $-1 $321 -20.236101958995263 $476 20.236101958995263 $316 $477 forward 7 unknown #
plane-surface $-1 72.303231910153499 0 0 -1 0 0 0 0 1 forward_v I I I I #
coedge $-1 $478 $479 $318 $395 reversed $376 $-1 #
edge $-1 $398 -41.423372641882004 $480 41.423372641882004 $394 $481 forward 7 unknown #
coedge $-1 $319 $463 $478 $482 reversed $397 $-1 #
loop $-1 $-1 $463 $483 #
vertex $-1 $320 $484 #
straight-curve $-1 0 41.423372641882004 20.236101958995263 -1 0 0 I I #
point $-1 72.303231910153499 41.423372641882004 20.236101958995263 #
face $-1 $485 $486 $18 $-1 $487 forward single #
loop $-1 $-1 $488 $323 #
plane-surface $-1 -60.101116252479471 0 -13.319872037464821 0 0 1 1 0 0 forward_v I I I I #
coedge $-1 $333 $489 $326 $407 forward $324 $-1 #
coedge $-1 $406 $326 $490 $491 reversed $241 $-1 #
coedge $-1 $326 $405 $408 $492 forward $241 $-1 #
edge $-1 $493 -41.503082098876561 $494 -37.919452470688128 $404 $495 forward 7 unknown #
coedge $-1 $410 $327 $406 $492 reversed $243 $-1 #
edge $-1 $494 -7.6409083660442754 $334 1.5726853254308217 $333 $496 forward 7 unknown #
coedge $-1 $328 $408 $413 $497 reversed $243 $-1 #
vertex $-1 $497 $498 #
straight-curve $-1 -35.160312360666339 -1.4614261948759051 113.7699992614596 0.74314481823134659 0 -0.66913061440640931 I I #
coedge $-1 $490 $330 $410 $497 forward $415 $-1 #
coedge $-1 $330 $499 $332 $418 reversed $415 $-1 #
loop $-1 $-1 $490 $500 #
straight-curve $-1 72.303231910153499 -1.4614261948759051 110.61677176613972 0 0 -1 I I #
coedge $-1 $501 $332 $502 $503 forward $324 $-1 #
edge $-1 $335 -1.4614261948759051 $504 41.423372641882004 $414 $505 forward 7 unknown #
point $-1 68.719602281965066 -1.4614261948759051 20.236101958995263 #
point $-1 72.303231910153499 -1.4614261948759051 20.236101958995263 #
point $-1 68.669087136938316 -8.0425645459295438 16.57662995413186 #
face $-1 $506 $507 $19 $-1 $508 forward single #
loop $-1 $-1 $509 $339 #
plane-surface $-1 61.600299622553877 -10.675019886351002 221.23354353227944 0 1 0 0.66913061440640931 0 0.74314481823134659 forward_v I I I I #
coedge $-1 $426 $341 $510 $511 forward $253 $-1 #
coedge $-1 $341 $425 $512 $513 reversed $253 $-1 #
coedge $-1 $514 $515 $341 $428 forward $507 $-1 #
edge $-1 $516 37.919452470688128 $517 41.503082098876561 $427 $518 forward 7 unknown #
edge $-1 $519 1 $519 0 $342 $-1 forward 7 unknown #
vertex $-1 $343 $520 #
ellipse-curve $-1 69.338217751344729 -8.0425645459295438 17.319774772363203 0.66913061440640931 0 0.74314481823134659 0.74314481823134659 0 -0.66913061440640931 1 I I #
point $-1 71.254561914290647 -8.0425645459295438 17.953614004210923 #
point $-1 68.669087136938316 -4.0938815352973634 16.57662995413186 #
coedge $-1 $521 $510 $515 $522 reversed $348 $-1 #
loop $-1 $-1 $368 $353 #
plane-surface $-1 72.303231910153499 0 0 -1 0 0 0 0 1 forward_v I I I I #
coedge $-1 $357 $444 $373 $451 reversed $435 $-1 #
vertex $-1 $358 $523 #
vertex $-1 $358 $524 #
straight-curve $-1 72.303231910153499 0 20.236101958995263 0 1 0 I I #
straight-curve $-1 -72.303231910153499 0 20.236101958995263 0 -1 0 I I #
point $-1 -72.303231910153499 -41.423372641882004 20.236101958995263 #
point $-1 -72.303231910153499 41.423372641882004 20.236101958995263 #
coedge $-1 $437 $368 $365 $445 reversed $435 $-1 #
edge $-1 $446 -41.423372641882004 $370 41.423372641882004 $444 $525 forward 7 unknown #
vertex $-1 $445 $526 #
straight-curve $-1 0 41.423372641882004 -20.236101958995263 1 0 0 I I #
straight-curve $-1 72.303231910153499 -41.423372641882004 0 0 0 -1 I I #
point $-1 72.303231910153499 -41.423372641882004 -20.236101958995263 #
straight-curve $-1 0 -41.423372641882004 20.236101958995263 1 0 0 I I #
edge $-1 $439 -20.236101958995263 $446 20.236101958995263 $437 $527 forward 7 unknown #
straight-curve $-1 0 41.423372641882004 20.236101958995263 -1 0 0 I I #
face $-1 $483 $528 $17 $-1 $529 reversed single #
loop $-1 $-1 $461 $375 #
plane-surface $-1 0 -41.423372641882004 0 0 1 0 0 0 1 forward_v I I I I #
coedge $-1 $479 $478 $460 $530 forward $376 $-1 #
coedge $-1 $378 $465 $531 $532 reversed $303 $-1 #
coedge $-1 $533 $461 $378 $459 forward $454 $-1 #
edge $-1 $466 4.9308785383498002 $534 11.847108459880243 $458 $535 forward 7 unknown #
coedge $-1 $380 $379 $456 $530 reversed $220 $-1 #
coedge $-1 $458 $536 $379 $462 forward $454 $-1 #
edge $-1 $537 -42.252673783913764 $466 -17.848442468565707 $461 $538 forward 7 unknown #
coedge $-1 $396 $539 $380 $464 forward $397 $-1 #
edge $-1 $467 17.848442468565707 $540 42.252673783913764 $463 $541 forward 7 unknown #
coedge $-1 $457 $381 $539 $542 reversed $303 $-1 #
vertex $-1 $462 $543 #
vertex $-1 $464 $544 #
straight-curve $-1 -47.899000594805443 0 -13.319872037464821 0 1 0 I I #
coedge $-1 $536 $545 $383 $470 reversed $454 $-1 #
edge $-1 $480 -72.303231910153499 $472 72.303231910153499 $469 $546 forward 7 unknown #
coedge $-1 $390 $384 $545 $547 forward $234 $-1 #
vertex $-1 $385 $548 #
coedge $-1 $549 $550 $390 $474 forward $528 $-1 #
edge $-1 $476 -41.423372641882004 $551 41.423372641882004 $390 $552 forward 7 unknown #
coedge $-1 $539 $391 $550 $553 reversed $397 $-1 #
vertex $-1 $474 $554 #
straight-curve $-1 72.303231910153499 41.423372641882004 0 0 0 -1 I I #
coedge $-1 $456 $394 $396 $482 forward $376 $-1 #
coedge $-1 $394 $456 $536 $555 reversed $376 $-1 #
vertex $-1 $395 $556 #
straight-curve $-1 -72.303231910153499 0 20.236101958995263 0 -1 0 I I #
edge $-1 $398 -20.236101958995263 $540 13.319872037464821 $396 $557 forward 7 unknown #
face $-1 $317 $397 $17 $-1 $558 reversed single #
point $-1 -72.303231910153499 41.423372641882004 20.236101958995263 #
face $-1 $559 $560 $18 $-1 $561 reversed single #
loop $-1 $-1 $562 $401 #
plane-surface $-1 -47.899000594805443 0 -16.777986998230041 -1 0 0 0 0 1 forward_v I I I I #
coedge $-1 $563 $564 $565 $566 reversed $402 $-1 #
coedge $-1 $404 $567 $568 $569 forward $324 $-1 #
coedge $-1 $568 $413 $405 $491 forward $415 $-1 #
edge $-1 $570 -93.607384487900333 $493 -90.380669807144457 $490 $571 forward 7 unknown #
edge $-1 $570 -144.606463820307 $494 -139.78421445481007 $406 $572 forward 7 unknown #
vertex $-1 $491 $573 #
vertex $-1 $409 $574 #
straight-curve $-1 30.800149811276938 -10.675019886351002 20.236101958995263 -1 0 0 I I #
straight-curve $-1 68.719602281965052 -3.0341115203067268 20.236101958995256 0 1 0 I I #
edge $-1 $411 -1.5726853254308217 $570 7.6409083660442754 $413 $575 forward 7 unknown #
point $-1 72.303231910153499 -1.4614261948759051 17.009387278239387 #
coedge $-1 $414 $576 $577 $578 reversed $415 $-1 #
face $-1 $-1 $415 $18 $-1 $579 reversed single #
coedge $-1 $567 $417 $580 $581 forward $324 $-1 #
coedge $-1 $577 $582 $417 $503 reversed $583 $-1 #
edge $-1 $504 -72.303231910153499 $584 72.303231910153499 $502 $585 forward 7 unknown #
vertex $-1 $418 $586 #
straight-curve $-1 72.303231910153499 0 20.236101958995263 0 1 0 I I #
face $-1 $587 $588 $19 $-1 $589 reversed single #
loop $-1 $-1 $590 $422 #
plane-surface $-1 0 0 20.236101958995263 0 0 1 1 0 0 forward_v I I I I #
coedge $-1 $591 $592 $590 $593 reversed $423 $-1 #
coedge $-1 $434 $594 $425 $511 reversed $348 $-1 #
edge $-1 $516 139.78421445481007 $595 144.606463820307 $425 $596 forward 7 unknown #
coedge $-1 $597 $598 $426 $513 forward $599 $-1 #
edge $-1 $517 90.380669807144457 $595 93.607384487900333 $512 $600 forward 7 unknown #
coedge $-1 $601 $427 $598 $602 forward $507 $-1 #
coedge $-1 $427 $590 $434 $522 forward $507 $-1 #
vertex $-1 $522 $603 #
vertex $-1 $602 $604 #
straight-curve $-1 30.800149811276938 -1.4614261948759051 20.236101958995263 1 0 0 I I #
vertex $-1 $429 $605 #
point $-1 70.081362569576072 -8.0425645459295438 16.650644157956794 #
coedge $-1 $594 $434 $592 $606 reversed $348 $-1 #
edge $-1 $607 -7.6409083660442754 $516 1.5726853254308217 $515 $608 forward 7 unknown #
point $-1 72.303231910153499 -41.423372641882004 20.236101958995263 #
point $-1 72.303231910153499 41.423372641882004 20.236101958995263 #
straight-curve $-1 72.303231910153499 0 -20.236101958995263 0 -1 0 I I #
point $-1 72.303231910153499 41.423372641882004 -20.236101958995263 #
straight-curve $-1 72.303231910153499 41.423372641882004 0 0 0 -1 I I #
loop $-1 $-1 $531 $453 #
plane-surface $-1 0 0 -20.236101958995263 0 0 1 1 0 0 forward_v I I I I #
edge $-1 $540 -41.423372641882004 $537 41.423372641882004 $456 $609 forward 7 unknown #
coedge $-1 $550 $549 $457 $532 forward $528 $-1 #
edge $-1 $534 -41.423372641882004 $610 41.423372641882004 $531 $611 forward 7 unknown #
coedge $-1 $545 $458 $549 $612 reversed $454 $-1 #
vertex $-1 $459 $613 #
straight-curve $-1 -47.899000594805443 -41.423372641882004 -8.3889934991150206 0 0 -1 I I #
coedge $-1 $461 $469 $479 $555 forward $454 $-1 #
vertex $-1 $462 $614 #
straight-curve $-1 -30.050558126239736 -41.423372641882004 -13.319872037464821 1 0 0 I I #
coedge $-1 $463 $475 $465 $542 forward $397 $-1 #
vertex $-1 $530 $615 #
straight-curve $-1 -30.050558126239736 41.423372641882004 -13.319872037464821 -1 0 0 I I #
edge $-1 $610 -11.847108459880243 $467 -4.9308785383498002 $539 $616 forward 7 unknown #
point $-1 -47.899000594805443 -41.423372641882004 -13.319872037464821 #
point $-1 -47.899000594805443 41.423372641882004 -13.319872037464821 #
coedge $-1 $469 $533 $471 $547 reversed $454 $-1 #
straight-curve $-1 0 -41.423372641882004 20.236101958995263 1 0 0 I I #
edge $-1 $472 -20.236101958995263 $551 20.236101958995263 $471 $617 forward 7 unknown #
point $-1 72.303231910153499 -41.423372641882004 20.236101958995263 #
coedge $-1 $531 $473 $533 $612 forward $528 $-1 #
coedge $-1 $473 $531 $475 $553 forward $528 $-1 #
vertex $-1 $547 $618 #
straight-curve $-1 72.303231910153499 0 -20.236101958995263 0 -1 0 I I #
edge $-1 $610 -47.899000594805443 $476 72.303231910153499 $475 $619 forward 7 unknown #
point $-1 72.303231910153499 41.423372641882004 -20.236101958995263 #
edge $-1 $480 -20.236101958995263 $537 13.319872037464821 $479 $620 forward 7 unknown #
point $-1 -72.303231910153499 -41.423372641882004 20.236101958995263 #
straight-curve $-1 -72.303231910153499 41.423372641882004 0 0 0 -1 I I #
plane-surface $-1 0 41.423372641882004 0 0 -1 0 0 0 -1 forward_v I I I I #
face $-1 $621 $622 $18 $-1 $623 reversed single #
loop $-1 $-1 $624 $485 #
plane-surface $-1 -72.303231910153499 0 0 1 0 0 0 0 -1 forward_v I I I I #
coedge $-1 $565 $625 $626 $627 reversed $486 $-1 #
coedge $-1 $628 $488 $629 $630 reversed $402 $-1 #
coedge $-1 $488 $628 $631 $632 reversed $402 $-1 #
coedge $-1 $633 $562 $488 $566 forward $486 $-1 #
edge $-1 $634 -41.423372641882004 $635 41.423372641882004 $565 $636 forward 7 unknown #
coedge $-1 $489 $501 $637 $638 forward $324 $-1 #
coedge $-1 $639 $490 $489 $569 reversed $415 $-1 #
edge $-1 $640 -41.423372641882004 $493 -10.675019886351002 $568 $505 forward 7 unknown #
vertex $-1 $497 $641 #
straight-curve $-1 72.303231910153499 -10.675019886351002 110.61677176613972 0 0 1 I I #
straight-curve $-1 -35.160312360666339 -10.675019886351002 113.7699992614596 -0.74314481823134659 0 0.66913061440640931 I I #
point $-1 72.303231910153499 -10.675019886351002 20.236101958995263 #
point $-1 68.719602281965066 -10.675019886351002 20.236101958995263 #
straight-curve $-1 72.303231910153499 -3.0341115203067268 17.00938727823938 0 -1 0 I I #
coedge $-1 $499 $639 $642 $643 reversed $415 $-1 #
coedge $-1 $644 $502 $499 $578 forward $583 $-1 #
edge $-1 $504 -20.236101958995263 $645 20.236101958995263 $499 $646 forward 7 unknown #
plane-surface $-1 72.303231910153499 0 0 -1 0 0 0 0 1 forward_v I I I I #
coedge $-1 $647 $648 $501 $581 reversed $560 $-1 #
edge $-1 $584 -41.423372641882004 $649 41.423372641882004 $580 $650 forward 7 unknown #
coedge $-1 $502 $631 $647 $651 reversed $583 $-1 #
loop $-1 $-1 $631 $652 #
vertex $-1 $503 $653 #
straight-curve $-1 0 41.423372641882004 20.236101958995263 -1 0 0 I I #
point $-1 72.303231910153499 41.423372641882004 20.236101958995263 #
face $-1 $654 $655 $19 $-1 $656 forward single #
loop $-1 $-1 $657 $506 #
plane-surface $-1 -60.101116252479471 0 -13.319872037464821 0 0 1 1 0 0 forward_v I I I I #
coedge $-1 $515 $658 $509 $593 forward $507 $-1 #
coedge $-1 $592 $509 $659 $660 reversed $423 $-1 #
coedge $-1 $509 $591 $521 $606 forward $423 $-1 #
edge $-1 $661 -41.503082098876561 $607 -37.919452470688128 $590 $662 forward 7 unknown #
coedge $-1 $510 $521 $597 $663 reversed $348 $-1 #
vertex $-1 $663 $664 #
straight-curve $-1 -35.160312360666339 -1.4614261948759051 113.7699992614596 0.74314481823134659 0 -0.66913061440640931 I I #
coedge $-1 $659 $512 $594 $663 forward $599 $-1 #
coedge $-1 $512 $665 $514 $602 reversed $599 $-1 #
loop $-1 $-1 $659 $666 #
straight-curve $-1 72.303231910153499 -1.4614261948759051 110.61677176613972 0 0 -1 I I #
coedge $-1 $667 $514 $668 $669 forward $507 $-1 #
edge $-1 $517 -1.4614261948759051 $670 41.423372641882004 $598 $671 forward 7 unknown #
point $-1 68.719602281965066 -1.4614261948759051 20.236101958995263 #
point $-1 72.303231910153499 -1.4614261948759051 20.236101958995263 #
point $-1 68.669087136938316 -8.0425645459295438 16.57662995413186 #
edge $-1 $672 -144.606463820307 $607 -139.78421445481007 $592 $673 forward 7 unknown #
vertex $-1 $522 $674 #
straight-curve $-1 68.719602281965052 -3.0341115203067268 20.236101958995256 0 1 0 I I #
straight-curve $-1 -72.303231910153499 0 -13.319872037464821 0 -1 0 I I #
vertex $-1 $553 $675 #
straight-curve $-1 -47.899000594805443 0 -20.236101958995263 0 1 0 I I #
edge $-1 $551 -72.303231910153499 $534 47.899000594805443 $533 $676 forward 7 unknown #
point $-1 -47.899000594805443 -41.423372641882004 -20.236101958995263 #
point $-1 -72.303231910153499 -41.423372641882004 -13.319872037464821 #
point $-1 -72.303231910153499 41.423372641882004 -13.319872037464821 #
straight-curve $-1 -47.899000594805443 41.423372641882004 -8.3889934991150206 0 0 1 I I #
straight-curve $-1 72.303231910153499 -41.423372641882004 0 0 0 -1 I I #
point $-1 72.303231910153499 -41.423372641882004 -20.236101958995263 #
straight-curve $-1 0 41.423372641882004 -20.236101958995263 1 0 0 I I #
straight-curve $-1 -72.303231910153499 -41.423372641882004 0 0 0 -1 I I #
face $-1 $652 $677 $18 $-1 $678 reversed single #
loop $-1 $-1 $629 $559 #
plane-surface $-1 0 -41.423372641882004 0 0 1 0 0 0 1 forward_v I I I I #
coedge $-1 $648 $647 $628 $679 forward $560 $-1 #
coedge $-1 $562 $633 $680 $681 reversed $486 $-1 #
coedge $-1 $682 $629 $562 $627 forward $622 $-1 #
edge $-1 $634 4.9308785383498002 $683 11.847108459880243 $626 $684 forward 7 unknown #
coedge $-1 $564 $563 $624 $679 reversed $402 $-1 #
coedge $-1 $626 $685 $563 $630 forward $622 $-1 #
edge $-1 $686 -42.252673783913764 $634 -17.848442468565707 $629 $687 forward 7 unknown #
coedge $-1 $582 $688 $564 $632 forward $583 $-1 #
edge $-1 $635 17.848442468565707 $689 42.252673783913764 $631 $690 forward 7 unknown #
coedge $-1 $625 $565 $688 $691 reversed $486 $-1 #
vertex $-1 $630 $692 #
vertex $-1 $632 $693 #
straight-curve $-1 -47.899000594805443 0 -13.319872037464821 0 1 0 I I #
coedge $-1 $685 $694 $567 $638 reversed $622 $-1 #
edge $-1 $649 -72.303231910153499 $640 72.303231910153499 $637 $695 forward 7 unknown #
coedge $-1 $576 $568 $694 $696 forward $415 $-1 #
vertex $-1 $569 $697 #
point $-1 72.303231910153499 -10.675019886351002 17.009387278239387 #
coedge $-1 $698 $699 $576 $643 forward $677 $-1 #
edge $-1 $645 -41.423372641882004 $700 41.423372641882004 $576 $701 forward 7 unknown #
coedge $-1 $688 $577 $699 $702 reversed $583 $-1 #
vertex $-1 $643 $703 #
straight-curve $-1 72.303231910153499 41.423372641882004 0 0 0 -1 I I #
coedge $-1 $624 $580 $582 $651 forward $560 $-1 #
coedge $-1 $580 $624 $685 $704 reversed $560 $-1 #
vertex $-1 $581 $705 #
straight-curve $-1 -72.303231910153499 0 20.236101958995263 0 -1 0 I I #
edge $-1 $584 -20.236101958995263 $689 13.319872037464821 $582 $706 forward 7 unknown #
face $-1 $500 $583 $18 $-1 $707 reversed single #
point $-1 -72.303231910153499 41.423372641882004 20.236101958995263 #
face $-1 $708 $709 $19 $-1 $710 reversed single #
loop $-1 $-1 $711 $587 #
plane-surface $-1 -47.899000594805443 0 -16.777986998230041 -1 0 0 0 0 1 forward_v I I I I #
coedge $-1 $712 $713 $714 $715 reversed $588 $-1 #
coedge $-1 $590 $716 $717 $718 forward $507 $-1 #
coedge $-1 $717 $597 $591 $660 forward $599 $-1 #
edge $-1 $672 -93.607384487900333 $661 -90.380669807144457 $659 $719 forward 7 unknown #
vertex $-1 $660 $720 #
straight-curve $-1 30.800149811276938 -10.675019886351002 20.236101958995263 -1 0 0 I I #
edge $-1 $595 -1.5726853254308217 $672 7.6409083660442754 $597 $721 forward 7 unknown #
point $-1 72.303231910153499 -1.4614261948759051 17.009387278239387 #
coedge $-1 $598 $722 $723 $724 reversed $599 $-1 #
face $-1 $-1 $599 $19 $-1 $725 reversed single #
coedge $-1 $716 $601 $726 $727 forward $507 $-1 #
coedge $-1 $723 $728 $601 $669 reversed $729 $-1 #
edge $-1 $670 -72.303231910153499 $730 72.303231910153499 $668 $731 forward 7 unknown #
vertex $-1 $602 $732 #
straight-curve $-1 72.303231910153499 0 20.236101958995263 0 1 0 I I #
vertex $-1 $663 $733 #
straight-curve $-1 -35.160312360666339 -10.675019886351002 113.7699992614596 -0.74314481823134659 0 0.66913061440640931 I I #
point $-1 68.719602281965066 -10.675019886351002 20.236101958995263 #
point $-1 -47.899000594805443 41.423372641882004 -20.236101958995263 #
straight-curve $-1 0 -41.423372641882004 -20.236101958995263 -1 0 0 I I #
loop $-1 $-1 $680 $621 #
plane-surface $-1 0 0 -20.236101958995263 0 0 1 1 0 0 forward_v I I I I #
edge $-1 $689 -41.423372641882004 $686 41.423372641882004 $624 $734 forward 7 unknown #
coedge $-1 $699 $698 $625 $681 forward $677 $-1 #
edge $-1 $683 -41.423372641882004 $735 41.423372641882004 $680 $736 forward 7 unknown #
coedge $-1 $694 $626 $698 $737 reversed $622 $-1 #
vertex $-1 $627 $738 #
straight-curve $-1 -47.899000594805443 -41.423372641882004 -8.3889934991150206 0 0 -1 I I #
coedge $-1 $629 $637 $648 $704 forward $622 $-1 #
vertex $-1 $630 $739 #
straight-curve $-1 -30.050558126239736 -41.423372641882004 -13.319872037464821 1 0 0 I I #
coedge $-1 $631 $644 $633 $691 forward $583 $-1 #
vertex $-1 $679 $740 #
straight-curve $-1 -30.050558126239736 41.423372641882004 -13.319872037464821 -1 0 0 I I #
edge $-1 $735 -11.847108459880243 $635 -4.9308785383498002 $688 $741 forward 7 unknown #
point $-1 -47.899000594805443 -41.423372641882004 -13.319872037464821 #
point $-1 -47.899000594805443 41.423372641882004 -13.319872037464821 #
coedge $-1 $637 $682 $639 $696 reversed $622 $-1 #
straight-curve $-1 0 -41.423372641882004 20.236101958995263 1 0 0 I I #
edge $-1 $640 -20.236101958995263 $700 20.236101958995263 $639 $742 forward 7 unknown #
point $-1 72.303231910153499 -41.423372641882004 20.236101958995263 #
coedge $-1 $680 $642 $682 $737 forward $677 $-1 #
coedge $-1 $642 $680 $644 $702 forward $677 $-1 #
vertex $-1 $696 $743 #
straight-curve $-1 72.303231910153499 0 -20.236101958995263 0 -1 0 I I #
edge $-1 $735 -47.899000594805443 $645 72.303231910153499 $644 $744 forward 7 unknown #
point $-1 72.303231910153499 41.423372641882004 -20.236101958995263 #
edge $-1 $649 -20.236101958995263 $686 13.319872037464821 $648 $745 forward 7 unknown #
point $-1 -72.303231910153499 -41.423372641882004 20.236101958995263 #
straight-curve $-1 -72.303231910153499 41.423372641882004 0 0 0 -1 I I #
plane-surface $-1 0 41.423372641882004 0 0 -1 0 0 0 -1 forward_v I I I I #
face $-1 $746 $747 $19 $-1 $748 reversed single #
loop $-1 $-1 $749 $654 #
plane-surface $-1 -72.303231910153499 0 0 1 0 0 0 0 -1 forward_v I I I I #
coedge $-1 $714 $750 $751 $752 reversed $655 $-1 #
coedge $-1 $753 $657 $754 $755 reversed $588 $-1 #
coedge $-1 $657 $753 $756 $757 reversed $588 $-1 #
coedge $-1 $758 $711 $657 $715 forward $655 $-1 #
edge $-1 $759 -41.423372641882004 $760 41.423372641882004 $714 $761 forward 7 unknown #
coedge $-1 $658 $667 $762 $763 forward $507 $-1 #
coedge $-1 $764 $659 $658 $718 reversed $599 $-1 #
edge $-1 $765 -41.423372641882004 $661 -10.675019886351002 $717 $671 forward 7 unknown #
straight-curve $-1 72.303231910153499 -10.675019886351002 110.61677176613972 0 0 1 I I #
point $-1 72.303231910153499 -10.675019886351002 20.236101958995263 #
straight-curve $-1 72.303231910153499 -3.0341115203067268 17.00938727823938 0 -1 0 I I #
coedge $-1 $665 $764 $766 $767 reversed $599 $-1 #
coedge $-1 $768 $668 $665 $724 forward $729 $-1 #
edge $-1 $670 -20.236101958995263 $769 20.236101958995263 $665 $770 forward 7 unknown #
plane-surface $-1 72.303231910153499 0 0 -1 0 0 0 0 1 forward_v I I I I #
coedge $-1 $771 $772 $667 $727 reversed $709 $-1 #
edge $-1 $730 -41.423372641882004 $773 41.423372641882004 $726 $774 forward 7 unknown #
coedge $-1 $668 $756 $771 $775 reversed $729 $-1 #
loop $-1 $-1 $756 $776 #
vertex $-1 $669 $777 #
straight-curve $-1 0 41.423372641882004 20.236101958995263 -1 0 0 I I #
point $-1 72.303231910153499 41.423372641882004 20.236101958995263 #
point $-1 72.303231910153499 -10.675019886351002 17.009387278239387 #
straight-curve $-1 -72.303231910153499 0 -13.319872037464821 0 -1 0 I I #
vertex $-1 $702 $778 #
straight-curve $-1 -47.899000594805443 0 -20.236101958995263 0 1 0 I I #
edge $-1 $700 -72.303231910153499 $683 47.899000594805443 $682 $779 forward 7 unknown #
point $-1 -47.899000594805443 -41.423372641882004 -20.236101958995263 #
point $-1 -72.303231910153499 -41.423372641882004 -13.319872037464821 #
point $-1 -72.303231910153499 41.423372641882004 -13.319872037464821 #
straight-curve $-1 -47.899000594805443 41.423372641882004 -8.3889934991150206 0 0 1 I I #
straight-curve $-1 72.303231910153499 -41.423372641882004 0 0 0 -1 I I #
point $-1 72.303231910153499 -41.423372641882004 -20.236101958995263 #
straight-curve $-1 0 41.423372641882004 -20.236101958995263 1 0 0 I I #
straight-curve $-1 -72.303231910153499 -41.423372641882004 0 0 0 -1 I I #
face $-1 $776 $780 $19 $-1 $781 reversed single #
loop $-1 $-1 $754 $708 #
plane-surface $-1 0 -41.423372641882004 0 0 1 0 0 0 1 forward_v I I I I #
coedge $-1 $772 $771 $753 $782 forward $709 $-1 #
coedge $-1 $711 $758 $783 $784 reversed $655 $-1 #
coedge $-1 $785 $754 $711 $752 forward $747 $-1 #
edge $-1 $759 4.9308785383498002 $786 11.847108459880243 $751 $787 forward 7 unknown #
coedge $-1 $713 $712 $749 $782 reversed $588 $-1 #
coedge $-1 $751 $788 $712 $755 forward $747 $-1 #
edge $-1 $789 -42.252673783913764 $759 -17.848442468565707 $754 $790 forward 7 unknown #
coedge $-1 $728 $791 $713 $757 forward $729 $-1 #
edge $-1 $760 17.848442468565707 $792 42.252673783913764 $756 $793 forward 7 unknown #
coedge $-1 $750 $714 $791 $794 reversed $655 $-1 #
vertex $-1 $755 $795 #
vertex $-1 $757 $796 #
straight-curve $-1 -47.899000594805443 0 -13.319872037464821 0 1 0 I I #
coedge $-1 $788 $797 $716 $763 reversed $747 $-1 #
edge $-1 $773 -72.303231910153499 $765 72.303231910153499 $762 $798 forward 7 unknown #
coedge $-1 $722 $717 $797 $799 forward $599 $-1 #
vertex $-1 $718 $800 #
coedge $-1 $801 $802 $722 $767 forward $780 $-1 #
edge $-1 $769 -41.423372641882004 $803 41.423372641882004 $722 $804 forward 7 unknown #
coedge $-1 $791 $723 $802 $805 reversed $729 $-1 #
vertex $-1 $767 $806 #
straight-curve $-1 72.303231910153499 41.423372641882004 0 0 0 -1 I I #
coedge $-1 $749 $726 $728 $775 forward $709 $-1 #
coedge $-1 $726 $749 $788 $807 reversed $709 $-1 #
vertex $-1 $727 $808 #
straight-curve $-1 -72.303231910153499 0 20.236101958995263 0 -1 0 I I #
edge $-1 $730 -20.236101958995263 $792 13.319872037464821 $728 $809 forward 7 unknown #
face $-1 $666 $729 $19 $-1 $810 reversed single #
point $-1 -72.303231910153499 41.423372641882004 20.236101958995263 #
point $-1 -47.899000594805443 41.423372641882004 -20.236101958995263 #
straight-curve $-1 0 -41.423372641882004 -20.236101958995263 -1 0 0 I I #
loop $-1 $-1 $783 $746 #
plane-surface $-1 0 0 -20.236101958995263 0 0 1 1 0 0 forward_v I I I I #
edge $-1 $792 -41.423372641882004 $789 41.423372641882004 $749 $811 forward 7 unknown #
coedge $-1 $802 $801 $750 $784 forward $780 $-1 #
edge $-1 $786 -41.423372641882004 $812 41.423372641882004 $783 $813 forward 7 unknown #
coedge $-1 $797 $751 $801 $814 reversed $747 $-1 #
vertex $-1 $752 $815 #
straight-curve $-1 -47.899000594805443 -41.423372641882004 -8.3889934991150206 0 0 -1 I I #
coedge $-1 $754 $762 $772 $807 forward $747 $-1 #
vertex $-1 $755 $816 #
straight-curve $-1 -30.050558126239736 -41.423372641882004 -13.319872037464821 1 0 0 I I #
coedge $-1 $756 $768 $758 $794 forward $729 $-1 #
vertex $-1 $782 $817 #
straight-curve $-1 -30.050558126239736 41.423372641882004 -13.319872037464821 -1 0 0 I I #
edge $-1 $812 -11.847108459880243 $760 -4.9308785383498002 $791 $818 forward 7 unknown #
point $-1 -47.899000594805443 -41.423372641882004 -13.319872037464821 #
point $-1 -47.899000594805443 41.423372641882004 -13.319872037464821 #
coedge $-1 $762 $785 $764 $799 reversed $747 $-1 #
straight-curve $-1 0 -41.423372641882004 20.236101958995263 1 0 0 I I #
edge $-1 $765 -20.236101958995263 $803 20.236101958995263 $764 $819 forward 7 unknown #
point $-1 72.303231910153499 -41.423372641882004 20.236101958995263 #
coedge $-1 $783 $766 $785 $814 forward $780 $-1 #
coedge $-1 $766 $783 $768 $805 forward $780 $-1 #
vertex $-1 $799 $820 #
straight-curve $-1 72.303231910153499 0 -20.236101958995263 0 -1 0 I I #
edge $-1 $812 -47.899000594805443 $769 72.303231910153499 $768 $821 forward 7 unknown #
point $-1 72.303231910153499 41.423372641882004 -20.236101958995263 #
edge $-1 $773 -20.236101958995263 $789 13.319872037464821 $772 $822 forward 7 unknown #
point $-1 -72.303231910153499 -41.423372641882004 20.236101958995263 #
straight-curve $-1 -72.303231910153499 41.423372641882004 0 0 0 -1 I I #
plane-surface $-1 0 41.423372641882004 0 0 -1 0 0 0 -1 forward_v I I I I #
straight-curve $-1 -72.303231910153499 0 -13.319872037464821 0 -1 0 I I #
vertex $-1 $805 $823 #
straight-curve $-1 -47.899000594805443 0 -20.236101958995263 0 1 0 I I #
edge $-1 $803 -72.303231910153499 $786 47.899000594805443 $785 $824 forward 7 unknown #
point $-1 -47.899000594805443 -41.423372641882004 -20.236101958995263 #
point $-1 -72.303231910153499 -41.423372641882004 -13.319872037464821 #
point $-1 -72.303231910153499 41.423372641882004 -13.319872037464821 #
straight-curve $-1 -47.899000594805443 41.423372641882004 -8.3889934991150206 0 0 1 I I #
straight-curve $-1 72.303231910153499 -41.423372641882004 0 0 0 -1 I I #
point $-1 72.303231910153499 -41.423372641882004 -20.236101958995263 #
straight-curve $-1 0 41.423372641882004 -20.236101958995263 1 0 0 I I #
straight-curve $-1 -72.303231910153499 -41.423372641882004 0 0 0 -1 I I #
point $-1 -47.899000594805443 41.423372641882004 -20.236101958995263 #
straight-curve $-1 0 -41.423372641882004 -20.236101958995263 -1 0 0 I I #
End-of-ACIS-data 