500 0 9 0           
7 Unknown 11 ACIS 5.0 NT 24 Thu Mar 25 22:35:35 1999 
-1 9.9999999999999995e-007 1e-010 
body $-1 $9 $-1 $10 #
body $-1 $11 $-1 $12 #
body $-1 $13 $-1 $14 #
body $-1 $15 $-1 $16 #
body $-1 $17 $-1 $18 #
body $-1 $19 $-1 $20 #
body $-1 $21 $-1 $22 #
body $-1 $23 $-1 $24 #
body $-1 $25 $-1 $26 #
lump $-1 $-1 $27 $0 #
transform $-1 1 0 0 0 1 0 0 0 1 66.23493148594622 37.438594104968629 16.517678748066334 1 rotate no_reflect no_shear #
lump $-1 $-1 $28 $1 #
transform $-1 1 0 0 0 1 0 0 0 1 66.23493148594622 37.438594104968629 16.517678748066334 1 rotate no_reflect no_shear #
lump $-1 $-1 $29 $2 #
transform $-1 1 0 0 0 1 0 0 0 1 66.23493148594622 37.438594104968629 16.517678748066334 1 rotate no_reflect no_shear #
lump $-1 $-1 $30 $3 #
transform $-1 1 0 0 0 1 0 0 0 1 66.23493148594622 37.438594104968629 16.517678748066334 1 rotate no_reflect no_shear #
lump $-1 $-1 $31 $4 #
transform $-1 1 0 0 0 1 0 0 0 1 66.23493148594622 37.438594104968629 16.517678748066334 1 rotate no_reflect no_shear #
lump $-1 $-1 $32 $5 #
transform $-1 1 0 0 0 1 0 0 0 1 66.23493148594622 37.438594104968629 16.517678748066334 1 rotate no_reflect no_shear #
lump $-1 $-1 $33 $6 #
transform $-1 1 0 0 0 1 0 0 0 1 66.23493148594622 37.438594104968629 16.517678748066334 1 rotate no_reflect no_shear #
lump $-1 $-1 $34 $7 #
transform $-1 1 0 0 0 1 0 0 0 1 66.23493148594622 37.438594104968629 16.517678748066334 1 rotate no_reflect no_shear #
lump $-1 $-1 $35 $8 #
transform $-1 1 0 0 0 1 0 0 0 1 66.23493148594622 37.438594104968629 16.517678748066334 1 rotate no_reflect no_shear #
shell $-1 $-1 $-1 $36 $-1 $9 #
shell $-1 $-1 $-1 $37 $-1 $11 #
shell $-1 $-1 $-1 $38 $-1 $13 #
shell $-1 $-1 $-1 $39 $-1 $15 #
shell $-1 $-1 $-1 $40 $-1 $17 #
shell $-1 $-1 $-1 $41 $-1 $19 #
shell $-1 $-1 $-1 $42 $-1 $21 #
shell $-1 $-1 $-1 $43 $-1 $23 #
shell $-1 $-1 $-1 $44 $-1 $25 #
face $-1 $45 $46 $27 $-1 $47 forward single #
face $-1 $48 $49 $28 $-1 $50 reversed single #
face $-1 $51 $52 $29 $-1 $53 reversed single #
face $-1 $54 $55 $30 $-1 $56 reversed single #
face $-1 $57 $58 $31 $-1 $59 forward single #
face $-1 $60 $61 $32 $-1 $62 forward single #
face $-1 $63 $64 $33 $-1 $65 reversed single #
face $-1 $66 $67 $34 $-1 $68 forward single #
face $-1 $69 $70 $35 $-1 $71 forward single #
face $-1 $72 $73 $27 $-1 $74 reversed single #
loop $-1 $-1 $75 $36 #
plane-surface $-1 0 0 16.517678748066334 0 0 1 1 0 0 forward_v I I I I #
face $-1 $76 $77 $28 $-1 $78 reversed single #
loop $-1 $-1 $79 $37 #
plane-surface $-1 -57.871951139209941 -13.046347552120231 0 0 1 0 0 0 1 forward_v I I I I #
face $-1 $80 $81 $29 $-1 $82 reversed single #
loop $-1 $-1 $83 $38 #
plane-surface $-1 57.871951139209941 -13.046347552120231 0 0 1 0 0 0 1 forward_v I I I I #
face $-1 $84 $85 $30 $-1 $86 reversed single #
loop $-1 $-1 $87 $39 #
plane-surface $-1 -12.519871534222887 98.171515835896273 147.61471976485817 1 0 0 0 -0.79863551827123203 -0.60181501223851219 forward_v I I I I #
face $-1 $88 $89 $31 $-1 $90 forward single #
loop $-1 $91 $92 $40 #
cone-surface $-1 -5.4066250594516205 32.369225624105617 10.877200260560466 0 -0.79863551827123203 -0.60181501223851219 2 0 0 1 I I 0 1 2 forward I I I I #
face $-1 $93 $94 $32 $-1 $95 forward single #
loop $-1 $96 $97 $41 #
cone-surface $-1 5.2632446527052821 32.369225624105617 10.877200260560466 0 -0.79863551827123203 -0.60181501223851219 2 0 0 1 I I 0 1 2 forward I I I I #
face $-1 $98 $99 $33 $-1 $100 reversed single #
loop $-1 $-1 $101 $42 #
plane-surface $-1 -38.364579582685536 -126.07823490568387 111.23218877652128 -1 0 0 0 -0.66913061440640931 0.74314481823134659 forward_v I I I I #
face $-1 $102 $103 $34 $-1 $104 forward single #
loop $-1 $105 $106 $43 #
cone-surface $-1 -46.324859018248475 -34.507071117864797 13.697270374105656 0 0.66913061440640931 -0.74314481823134659 1 0 0 1 I I 0 1 1 forward I I I I #
face $-1 $107 $108 $35 $-1 $109 forward single #
loop $-1 $110 $111 $44 #
cone-surface $-1 -41.548691356910716 -34.507071117864797 13.697270374105656 0 0.66913061440640931 -0.74314481823134659 1 0 0 1 I I 0 1 1 forward I I I I #
face $-1 $112 $113 $27 $-1 $114 reversed single #
loop $-1 $-1 $115 $45 #
plane-surface $-1 0 0 -16.517678748066334 0 0 1 1 0 0 forward_v I I I I #
coedge $-1 $116 $117 $118 $119 forward $46 $-1 #
face $-1 $120 $121 $28 $-1 $122 reversed single #
loop $-1 $-1 $123 $48 #
plane-surface $-1 -57.871951139209941 -4.4032366088359609 0 0 -1 0 0 0 -1 forward_v I I I I #
coedge $-1 $124 $125 $126 $127 reversed $49 $-1 #
face $-1 $128 $129 $29 $-1 $130 reversed single #
loop $-1 $-1 $131 $51 #
plane-surface $-1 49.508970792473662 -8.7247920804780961 0 1 0 0 0 0 -1 forward_v I I I I #
coedge $-1 $132 $133 $134 $135 forward $52 $-1 #
face $-1 $136 $137 $30 $-1 $138 reversed single #
loop $-1 $-1 $139 $54 #
plane-surface $-1 -0.071690203373165673 -7.6236218339801383 67.892367559194682 0 0.79863551827123203 0.60181501223851219 1 0 0 forward_v I I I I #
coedge $-1 $140 $141 $142 $143 reversed $55 $-1 #
face $-1 $-1 $144 $31 $-1 $145 forward single #
loop $-1 $146 $147 $57 #
cone-surface $-1 -5.4066250594516205 29.675527731597356 8.8473533616198203 0 -0.79863551827123203 -0.60181501223851219 1 0 0 1 I I -0.70710678118654746 0.70710678118654746 1 forward I I I I #
loop $-1 $-1 $148 $40 #
coedge $-1 $92 $92 $149 $150 reversed $58 $-1 #
face $-1 $-1 $151 $32 $-1 $152 forward single #
loop $-1 $153 $154 $60 #
cone-surface $-1 5.2632446527052821 29.675527731597356 8.8473533616198203 0 -0.79863551827123203 -0.60181501223851219 1 0 0 1 I I -0.70710678118654746 0.70710678118654746 1 forward I I I I #
loop $-1 $-1 $155 $41 #
coedge $-1 $97 $97 $156 $157 reversed $61 $-1 #
face $-1 $158 $159 $33 $-1 $160 reversed single #
loop $-1 $-1 $161 $63 #
plane-surface $-1 -43.936775187579599 -37.438594104968629 12.787896537142885 0 -0.66913061440640931 0.74314481823134659 1 0 0 forward_v I I I I #
coedge $-1 $162 $163 $164 $165 reversed $64 $-1 #
face $-1 $-1 $166 $34 $-1 $167 forward single #
loop $-1 $168 $169 $66 #
cone-surface $-1 -46.324859018248475 -33.312154178972506 12.37018069649104 0 0.66913061440640931 -0.74314481823134659 0.5 0 0 1 I I -0.70710678118654746 0.70710678118654746 0.5 forward I I I I #
loop $-1 $-1 $170 $43 #
coedge $-1 $106 $106 $171 $172 reversed $67 $-1 #
face $-1 $-1 $173 $35 $-1 $174 forward single #
loop $-1 $175 $176 $69 #
cone-surface $-1 -41.548691356910716 -33.312154178972506 12.37018069649104 0 0.66913061440640931 -0.74314481823134659 0.5 0 0 1 I I -0.70710678118654746 0.70710678118654746 0.5 forward I I I I #
loop $-1 $-1 $177 $44 #
coedge $-1 $111 $111 $178 $179 reversed $70 $-1 #
face $-1 $180 $181 $27 $-1 $182 reversed single #
loop $-1 $-1 $183 $72 #
plane-surface $-1 0 -37.438594104968629 0 0 1 0 0 0 1 forward_v I I I I #
coedge $-1 $184 $185 $186 $187 forward $73 $-1 #
coedge $-1 $188 $75 $189 $190 forward $46 $-1 #
coedge $-1 $75 $188 $191 $192 forward $46 $-1 #
coedge $-1 $193 $194 $75 $119 reversed $195 $-1 #
edge $-1 $196 -37.438594104968629 $197 37.438594104968629 $118 $198 forward 7 unknown #
face $-1 $199 $200 $28 $-1 $201 reversed single #
loop $-1 $-1 $202 $76 #
plane-surface $-1 -49.508970792473662 -8.7247920804780961 0 -1 0 0 0 0 1 forward_v I I I I #
coedge $-1 $203 $204 $205 $206 forward $77 $-1 #
coedge $-1 $207 $79 $208 $209 reversed $49 $-1 #
coedge $-1 $79 $207 $210 $211 reversed $49 $-1 #
coedge $-1 $212 $213 $79 $127 forward $214 $-1 #
edge $-1 $215 -16.517678748066334 $216 16.517678748066334 $126 $217 forward 7 unknown #
face $-1 $218 $219 $29 $-1 $220 reversed single #
loop $-1 $-1 $221 $80 #
plane-surface $-1 57.871951139209941 -4.4032366088359609 0 0 -1 0 0 0 -1 forward_v I I I I #
coedge $-1 $222 $223 $224 $225 forward $81 $-1 #
coedge $-1 $226 $83 $227 $228 reversed $52 $-1 #
coedge $-1 $83 $226 $229 $230 reversed $52 $-1 #
coedge $-1 $223 $222 $83 $135 reversed $81 $-1 #
edge $-1 $231 -16.517678748066334 $232 16.517678748066334 $134 $233 forward 7 unknown #
face $-1 $234 $235 $30 $-1 $236 reversed single #
loop $-1 $-1 $237 $84 #
plane-surface $-1 12.376491127476555 98.171515835896273 147.61471976485817 -1 0 0 0 0.79863551827123203 0.60181501223851219 forward_v I I I I #
coedge $-1 $238 $239 $240 $241 reversed $85 $-1 #
coedge $-1 $141 $87 $242 $243 reversed $55 $-1 #
coedge $-1 $87 $140 $238 $244 reversed $55 $-1 #
coedge $-1 $240 $245 $87 $143 forward $246 $-1 #
edge $-1 $247 11.647163812979507 $248 17.995776026231468 $142 $249 forward 7 unknown #
loop $-1 $-1 $149 $88 #
plane-surface $-1 -0.071690203373165673 -7.6236218339801383 67.892367559194682 0 0.79863551827123203 0.60181501223851219 1 0 0 forward_v I I I I #
loop $-1 $-1 $250 $57 #
coedge $-1 $147 $147 $148 $251 reversed $89 $-1 #
coedge $-1 $148 $148 $147 $251 forward $91 $-1 #
coedge $-1 $149 $149 $92 $150 forward $144 $-1 #
edge $-1 $252 0 $252 6.2831853071796004 $149 $253 forward 7 unknown #
loop $-1 $-1 $156 $93 #
plane-surface $-1 -0.071690203373165673 -7.6236218339801383 67.892367559194682 0 0.79863551827123203 0.60181501223851219 1 0 0 forward_v I I I I #
loop $-1 $-1 $254 $60 #
coedge $-1 $154 $154 $155 $255 reversed $94 $-1 #
coedge $-1 $155 $155 $154 $255 forward $96 $-1 #
coedge $-1 $156 $156 $97 $157 forward $151 $-1 #
edge $-1 $256 0 $256 6.2831853071796004 $156 $257 forward 7 unknown #
face $-1 $258 $259 $33 $-1 $260 forward single #
loop $-1 $-1 $261 $98 #
plane-surface $-1 -49.508970792473662 -126.07823490568387 111.23218877652128 1 0 0 0 0.66913061440640931 -0.74314481823134659 forward_v I I I I #
coedge $-1 $262 $263 $264 $265 reversed $99 $-1 #
coedge $-1 $163 $101 $266 $267 reversed $64 $-1 #
coedge $-1 $101 $162 $262 $268 reversed $64 $-1 #
coedge $-1 $264 $269 $101 $165 forward $259 $-1 #
edge $-1 $270 25.600523347873306 $271 29.742866058702752 $164 $272 forward 7 unknown #
loop $-1 $-1 $171 $102 #
plane-surface $-1 -43.936775187579599 -37.438594104968629 12.787896537142885 0 -0.66913061440640931 0.74314481823134659 1 0 0 forward_v I I I I #
loop $-1 $-1 $273 $66 #
coedge $-1 $169 $169 $170 $274 reversed $103 $-1 #
coedge $-1 $170 $170 $169 $274 forward $105 $-1 #
coedge $-1 $171 $171 $106 $172 forward $166 $-1 #
edge $-1 $275 -1.3680964593538434e-016 $275 6.2831853071796004 $171 $276 forward 7 unknown #
loop $-1 $-1 $178 $107 #
plane-surface $-1 -43.936775187579599 -37.438594104968629 12.787896537142885 0 -0.66913061440640931 0.74314481823134659 1 0 0 forward_v I I I I #
loop $-1 $-1 $277 $69 #
coedge $-1 $176 $176 $177 $278 reversed $108 $-1 #
coedge $-1 $177 $177 $176 $278 forward $110 $-1 #
coedge $-1 $178 $178 $111 $179 forward $173 $-1 #
edge $-1 $279 -1.3680964593538434e-016 $279 6.2831853071796004 $178 $280 forward 7 unknown #
face $-1 $281 $282 $27 $-1 $283 reversed single #
loop $-1 $-1 $284 $112 #
plane-surface $-1 -66.23493148594622 0 0 1 0 0 0 0 -1 forward_v I I I I #
coedge $-1 $285 $191 $286 $287 forward $113 $-1 #
coedge $-1 $288 $115 $285 $289 forward $73 $-1 #
coedge $-1 $115 $288 $290 $291 forward $73 $-1 #
coedge $-1 $194 $193 $115 $187 reversed $195 $-1 #
edge $-1 $292 -37.438594104968629 $293 37.438594104968629 $186 $294 forward 7 unknown #
coedge $-1 $117 $116 $295 $296 forward $46 $-1 #
coedge $-1 $297 $298 $116 $190 reversed $282 $-1 #
edge $-1 $197 -66.23493148594622 $299 66.23493148594622 $189 $300 forward 7 unknown #
coedge $-1 $183 $301 $117 $192 reversed $113 $-1 #
edge $-1 $302 -66.23493148594622 $196 66.23493148594622 $191 $303 forward 7 unknown #
coedge $-1 $186 $118 $301 $304 forward $195 $-1 #
coedge $-1 $118 $186 $297 $305 reversed $195 $-1 #
loop $-1 $-1 $193 $281 #
vertex $-1 $119 $306 #
vertex $-1 $119 $307 #
straight-curve $-1 66.23493148594622 0 16.517678748066334 0 1 0 I I #
face $-1 $308 $309 $28 $-1 $310 forward single #
loop $-1 $-1 $311 $120 #
plane-surface $-1 0 0 -16.517678748066334 0 0 1 1 0 0 forward_v I I I I #
coedge $-1 $312 $313 $207 $314 forward $121 $-1 #
coedge $-1 $315 $123 $311 $316 reversed $77 $-1 #
coedge $-1 $123 $315 $317 $318 reversed $77 $-1 #
coedge $-1 $313 $312 $123 $206 reversed $121 $-1 #
edge $-1 $319 -16.517678748066334 $320 16.517678748066334 $205 $321 forward 7 unknown #
coedge $-1 $125 $124 $202 $314 reversed $49 $-1 #
coedge $-1 $322 $323 $124 $209 forward $200 $-1 #
edge $-1 $324 20.572995222868691 $215 37.298955916341249 $208 $325 forward 7 unknown #
coedge $-1 $326 $327 $125 $211 forward $309 $-1 #
edge $-1 $216 -37.298955916341249 $328 -20.572995222868691 $210 $329 forward 7 unknown #
coedge $-1 $330 $126 $327 $331 reversed $214 $-1 #
coedge $-1 $126 $330 $322 $332 reversed $214 $-1 #
loop $-1 $-1 $330 $308 #
vertex $-1 $332 $333 #
vertex $-1 $127 $334 #
straight-curve $-1 -66.23493148594622 -13.046347552120231 0 0 0 1 I I #
face $-1 $335 $336 $29 $-1 $337 forward single #
loop $-1 $-1 $227 $128 #
plane-surface $-1 0 0 -16.517678748066334 0 0 1 1 0 0 forward_v I I I I #
coedge $-1 $338 $339 $340 $341 reversed $129 $-1 #
coedge $-1 $134 $131 $342 $343 reversed $81 $-1 #
coedge $-1 $131 $134 $344 $345 reversed $81 $-1 #
coedge $-1 $339 $338 $131 $225 reversed $129 $-1 #
edge $-1 $346 -16.517678748066334 $347 16.517678748066334 $224 $348 forward 7 unknown #
coedge $-1 $133 $132 $349 $350 reversed $52 $-1 #
coedge $-1 $342 $351 $132 $228 forward $219 $-1 #
edge $-1 $352 -37.298955916341249 $232 -20.572995222868691 $227 $353 forward 7 unknown #
coedge $-1 $354 $344 $133 $230 forward $336 $-1 #
edge $-1 $231 20.572995222868691 $355 37.298955916341249 $229 $356 forward 7 unknown #
vertex $-1 $230 $357 #
vertex $-1 $228 $358 #
straight-curve $-1 49.508970792473662 -13.046347552120231 0 0 0 -1 I I #
face $-1 $-1 $246 $30 $-1 $359 forward single #
loop $-1 $-1 $360 $136 #
plane-surface $-1 0 37.438594104968629 0 0 -1 0 0 0 -1 forward_v I I I I #
coedge $-1 $361 $362 $363 $364 reversed $137 $-1 #
coedge $-1 $365 $139 $141 $244 forward $85 $-1 #
coedge $-1 $139 $365 $361 $366 forward $85 $-1 #
coedge $-1 $363 $142 $139 $241 forward $246 $-1 #
edge $-1 $248 -12.484026432536304 $367 12.412336229163138 $240 $368 forward 7 unknown #
coedge $-1 $369 $370 $140 $243 forward $235 $-1 #
edge $-1 $371 -65.714574335970212 $247 -57.289681134362752 $242 $372 forward 7 unknown #
edge $-1 $248 64.328079124675895 $371 74.877188209937231 $141 $373 forward 7 unknown #
coedge $-1 $142 $363 $369 $374 forward $246 $-1 #
loop $-1 $-1 $363 $234 #
vertex $-1 $243 $375 #
vertex $-1 $143 $376 #
straight-curve $-1 -12.519871534222887 49.085757917948136 16.517678748066331 0 -1 0 I I #
coedge $-1 $250 $250 $-1 $377 reversed $146 $-1 #
edge $-1 $378 0 $378 6.2831853071796004 $147 $379 forward 7 unknown #
vertex $-1 $150 $380 #
ellipse-curve $-1 -5.4066250594516205 34.264287998342652 12.305232147262599 0 0.79863551827123203 0.60181501223851219 2 0 0 1 I I #
coedge $-1 $254 $254 $-1 $381 reversed $153 $-1 #
edge $-1 $382 0 $382 6.2831853071796004 $154 $383 forward 7 unknown #
vertex $-1 $157 $384 #
ellipse-curve $-1 5.2632446527052821 34.264287998342652 12.305232147262599 0 0.79863551827123203 0.60181501223851219 2 0 0 1 I I #
face $-1 $-1 $385 $33 $-1 $386 reversed single #
loop $-1 $-1 $164 $158 #
plane-surface $-1 0 0 16.517678748066334 0 0 1 1 0 0 forward_v I I I I #
coedge $-1 $387 $388 $389 $390 reversed $159 $-1 #
coedge $-1 $391 $161 $163 $268 forward $99 $-1 #
coedge $-1 $161 $391 $387 $392 forward $99 $-1 #
coedge $-1 $389 $164 $161 $265 forward $259 $-1 #
edge $-1 $271 16.396191988895737 $393 27.540583198683862 $264 $394 forward 7 unknown #
coedge $-1 $395 $396 $162 $267 forward $385 $-1 #
edge $-1 $397 -42.828197851117757 $270 -39.098415640194304 $266 $398 forward 7 unknown #
edge $-1 $271 -5.5740719832885954 $397 0 $163 $399 forward 7 unknown #
coedge $-1 $164 $389 $395 $400 forward $259 $-1 #
vertex $-1 $165 $401 #
vertex $-1 $165 $402 #
straight-curve $-1 -38.364579582685536 -63.039117452841936 16.517678748066331 0 1 0 I I #
coedge $-1 $273 $273 $-1 $403 reversed $168 $-1 #
edge $-1 $404 0 $404 6.2831853071796004 $169 $405 forward 7 unknown #
vertex $-1 $172 $406 #
ellipse-curve $-1 -46.324859018248475 -35.367422749553903 14.652787642604615 0 -0.66913061440640931 0.74314481823134659 1 0 0 1 I I #
coedge $-1 $277 $277 $-1 $407 reversed $175 $-1 #
edge $-1 $408 0 $408 6.2831853071796004 $176 $409 forward 7 unknown #
vertex $-1 $179 $410 #
ellipse-curve $-1 -41.548691356910716 -35.367422749553903 14.652787642604615 0 -0.66913061440640931 0.74314481823134659 1 0 0 1 I I #
face $-1 $-1 $195 $27 $-1 $411 reversed single #
loop $-1 $-1 $297 $180 #
plane-surface $-1 0 37.438594104968629 0 0 -1 0 0 0 -1 forward_v I I I I #
coedge $-1 $412 $295 $298 $413 forward $181 $-1 #
coedge $-1 $301 $183 $184 $289 reversed $113 $-1 #
coedge $-1 $295 $412 $183 $287 reversed $181 $-1 #
edge $-1 $302 -16.517678748066334 $414 16.517678748066334 $286 $415 forward 7 unknown #
coedge $-1 $185 $184 $412 $416 forward $73 $-1 #
edge $-1 $293 -66.23493148594622 $414 66.23493148594622 $285 $417 forward 7 unknown #
coedge $-1 $298 $297 $185 $291 reversed $282 $-1 #
edge $-1 $418 -66.23493148594622 $292 66.23493148594622 $290 $419 forward 7 unknown #
vertex $-1 $187 $420 #
vertex $-1 $304 $421 #
straight-curve $-1 66.23493148594622 0 -16.517678748066334 0 -1 0 I I #
coedge $-1 $284 $286 $188 $296 reversed $181 $-1 #
edge $-1 $299 -37.438594104968629 $302 37.438594104968629 $295 $422 forward 7 unknown #
coedge $-1 $290 $189 $194 $305 forward $282 $-1 #
coedge $-1 $189 $290 $284 $413 reversed $282 $-1 #
vertex $-1 $190 $423 #
straight-curve $-1 0 37.438594104968629 16.517678748066334 -1 0 0 I I #
coedge $-1 $191 $285 $193 $304 reversed $113 $-1 #
vertex $-1 $296 $424 #
straight-curve $-1 0 -37.438594104968629 16.517678748066334 1 0 0 I I #
edge $-1 $196 -16.517678748066334 $293 16.517678748066334 $193 $425 forward 7 unknown #
edge $-1 $197 -16.517678748066334 $292 16.517678748066334 $194 $426 forward 7 unknown #
point $-1 66.23493148594622 -37.438594104968629 16.517678748066334 #
point $-1 66.23493148594622 37.438594104968629 16.517678748066334 #
face $-1 $-1 $214 $28 $-1 $427 reversed single #
loop $-1 $-1 $317 $199 #
plane-surface $-1 0 0 16.517678748066334 0 0 1 1 0 0 forward_v I I I I #
coedge $-1 $323 $322 $203 $316 forward $200 $-1 #
coedge $-1 $205 $202 $323 $428 reversed $121 $-1 #
coedge $-1 $202 $205 $326 $429 reversed $121 $-1 #
edge $-1 $328 -16.517678748066334 $324 16.517678748066334 $202 $430 forward 7 unknown #
coedge $-1 $204 $203 $330 $431 reversed $77 $-1 #
edge $-1 $432 -37.298955916341249 $320 -20.572995222868691 $311 $433 forward 7 unknown #
coedge $-1 $327 $326 $204 $318 forward $309 $-1 #
edge $-1 $319 20.572995222868691 $434 37.298955916341249 $317 $435 forward 7 unknown #
vertex $-1 $318 $436 #
vertex $-1 $316 $437 #
straight-curve $-1 -49.508970792473662 -4.4032366088359609 0 0 0 -1 I I #
coedge $-1 $311 $208 $213 $332 forward $200 $-1 #
coedge $-1 $208 $311 $312 $428 forward $200 $-1 #
vertex $-1 $209 $438 #
straight-curve $-1 -28.93597556960497 -13.046347552120231 -16.517678748066334 -1 0 0 I I #
coedge $-1 $317 $210 $313 $429 forward $309 $-1 #
coedge $-1 $210 $317 $212 $331 forward $309 $-1 #
vertex $-1 $211 $439 #
straight-curve $-1 -28.93597556960497 -13.046347552120231 16.517678748066334 1 0 0 I I #
coedge $-1 $213 $212 $315 $431 forward $214 $-1 #
edge $-1 $434 4.4032366088359609 $216 13.046347552120231 $212 $440 forward 7 unknown #
edge $-1 $215 -13.046347552120231 $432 -4.4032366088359609 $213 $441 forward 7 unknown #
point $-1 -66.23493148594622 -13.046347552120231 -16.517678748066334 #
point $-1 -66.23493148594622 -13.046347552120231 16.517678748066334 #
face $-1 $-1 $442 $29 $-1 $443 reversed single #
loop $-1 $-1 $229 $218 #
plane-surface $-1 0 0 16.517678748066334 0 0 1 1 0 0 forward_v I I I I #
coedge $-1 $224 $221 $444 $445 reversed $129 $-1 #
coedge $-1 $221 $224 $446 $447 reversed $129 $-1 #
coedge $-1 $448 $449 $221 $341 forward $442 $-1 #
edge $-1 $450 -16.517678748066334 $451 16.517678748066334 $340 $452 forward 7 unknown #
coedge $-1 $444 $227 $222 $343 forward $219 $-1 #
edge $-1 $232 -8.6839515118811832 $347 -0.040840568596912874 $342 $453 forward 7 unknown #
coedge $-1 $229 $446 $223 $345 forward $336 $-1 #
edge $-1 $346 0.040840568596912874 $231 8.6839515118811832 $344 $454 forward 7 unknown #
vertex $-1 $345 $455 #
vertex $-1 $343 $456 #
straight-curve $-1 49.508970792473662 -4.4032366088359609 0 0 0 -1 I I #
coedge $-1 $449 $448 $226 $350 forward $442 $-1 #
edge $-1 $355 -16.517678748066334 $352 16.517678748066334 $349 $457 forward 7 unknown #
coedge $-1 $227 $444 $449 $458 forward $219 $-1 #
vertex $-1 $350 $459 #
straight-curve $-1 28.93597556960497 -13.046347552120231 -16.517678748066334 -1 0 0 I I #
coedge $-1 $446 $229 $448 $460 forward $336 $-1 #
vertex $-1 $460 $461 #
straight-curve $-1 28.93597556960497 -13.046347552120231 16.517678748066334 1 0 0 I I #
point $-1 49.508970792473662 -13.046347552120231 16.517678748066334 #
point $-1 49.508970792473662 -13.046347552120231 -16.517678748066334 #
plane-surface $-1 0 0 16.517678748066334 0 0 1 1 0 0 forward_v I I I I #
coedge $-1 $370 $369 $362 $462 forward $235 $-1 #
coedge $-1 $362 $237 $239 $366 reversed $137 $-1 #
coedge $-1 $237 $361 $360 $462 reversed $137 $-1 #
coedge $-1 $245 $240 $237 $364 forward $246 $-1 #
edge $-1 $367 -17.995776026231468 $463 -11.647163812979507 $363 $464 forward 7 unknown #
coedge $-1 $239 $238 $370 $465 reversed $85 $-1 #
edge $-1 $466 -74.877188209937231 $367 -64.328079124675895 $361 $467 forward 7 unknown #
vertex $-1 $241 $468 #
straight-curve $-1 -0.035845101686582836 31.089981891716661 16.517678748066338 1 0 0 I I #
coedge $-1 $360 $242 $245 $374 reversed $235 $-1 #
coedge $-1 $242 $360 $365 $465 forward $235 $-1 #
vertex $-1 $243 $469 #
straight-curve $-1 -12.519871534222887 37.438594104968629 73.807359882429083 0 0 1 I I #
straight-curve $-1 -12.519871534222887 -7.6236218339801383 67.892367559194682 0 0.60181501223851219 -0.79863551827123203 I I #
edge $-1 $463 -12.376491127476555 $247 12.519871534222887 $369 $470 forward 7 unknown #
point $-1 -12.519871534222887 37.438594104968629 16.517678748066334 #
point $-1 -12.519871534222887 31.089981891716668 16.517678748066324 #
edge $-1 $471 1 $471 0 $250 $-1 forward 7 unknown #
vertex $-1 $251 $472 #
ellipse-curve $-1 -5.4066250594516205 30.474163249868589 9.449168373858333 0 0.79863551827123203 0.60181501223851219 2 0 0 1 I I #
point $-1 -3.4066250594516205 34.264287998342652 12.305232147262599 #
edge $-1 $473 1 $473 0 $254 $-1 forward 7 unknown #
vertex $-1 $255 $474 #
ellipse-curve $-1 5.2632446527052821 30.474163249868589 9.449168373858333 0 0.79863551827123203 0.60181501223851219 2 0 0 1 I I #
point $-1 7.2632446527052821 34.264287998342652 12.305232147262599 #
loop $-1 $-1 $266 $258 #
plane-surface $-1 0 -37.438594104968629 0 0 1 0 0 0 1 forward_v I I I I #
coedge $-1 $388 $261 $263 $392 reversed $159 $-1 #
coedge $-1 $261 $387 $475 $476 reversed $159 $-1 #
coedge $-1 $269 $264 $261 $390 forward $259 $-1 #
edge $-1 $393 -29.742866058702752 $477 -25.600523347873306 $389 $478 forward 7 unknown #
coedge $-1 $263 $262 $396 $479 reversed $99 $-1 #
edge $-1 $480 0 $393 5.5740719832885954 $387 $481 forward 7 unknown #
vertex $-1 $265 $482 #
straight-curve $-1 -21.968387593789799 -33.29625139413919 16.517678748066331 -1 0 0 I I #
coedge $-1 $475 $266 $269 $400 reversed $385 $-1 #
coedge $-1 $266 $475 $391 $479 forward $385 $-1 #
vertex $-1 $267 $483 #
straight-curve $-1 -38.364579582685536 -37.438594104968629 55.616094388260642 0 0 1 I I #
straight-curve $-1 -38.364579582685536 -37.438594104968629 12.787896537142885 0 -0.74314481823134659 -0.66913061440640931 I I #
edge $-1 $477 -49.508970792473662 $270 -38.364579582685536 $395 $484 forward 7 unknown #
point $-1 -38.364579582685536 -37.438594104968629 16.517678748066334 #
point $-1 -38.364579582685536 -33.296251394139183 16.517678748066334 #
edge $-1 $485 1 $485 0 $273 $-1 forward 7 unknown #
vertex $-1 $274 $486 #
ellipse-curve $-1 -46.324859018248475 -33.646719486175712 12.741753105606714 0 -0.66913061440640931 0.74314481823134659 1 0 0 1 I I #
point $-1 -45.324859018248475 -35.367422749553889 14.652787642604599 #
edge $-1 $487 1 $487 0 $277 $-1 forward 7 unknown #
vertex $-1 $278 $488 #
ellipse-curve $-1 -41.548691356910716 -33.646719486175712 12.741753105606714 0 -0.66913061440640931 0.74314481823134659 1 0 0 1 I I #
point $-1 -40.548691356910716 -35.367422749553889 14.652787642604599 #
plane-surface $-1 66.23493148594622 0 0 -1 0 0 0 0 1 forward_v I I I I #
coedge $-1 $286 $284 $288 $416 reversed $181 $-1 #
edge $-1 $299 -16.517678748066334 $418 16.517678748066334 $298 $489 forward 7 unknown #
vertex $-1 $416 $490 #
straight-curve $-1 -66.23493148594622 -37.438594104968629 0 0 0 -1 I I #
edge $-1 $414 -37.438594104968629 $418 37.438594104968629 $412 $491 forward 7 unknown #
straight-curve $-1 0 -37.438594104968629 -16.517678748066334 -1 0 0 I I #
vertex $-1 $291 $492 #
straight-curve $-1 0 37.438594104968629 -16.517678748066334 1 0 0 I I #
point $-1 66.23493148594622 37.438594104968629 -16.517678748066334 #
point $-1 66.23493148594622 -37.438594104968629 -16.517678748066334 #
straight-curve $-1 -66.23493148594622 0 16.517678748066334 0 -1 0 I I #
point $-1 -66.23493148594622 37.438594104968629 16.517678748066334 #
point $-1 -66.23493148594622 -37.438594104968629 16.517678748066334 #
straight-curve $-1 66.23493148594622 -37.438594104968629 0 0 0 -1 I I #
straight-curve $-1 66.23493148594622 37.438594104968629 0 0 0 -1 I I #
plane-surface $-1 -66.23493148594622 0 0 1 0 0 0 0 -1 forward_v I I I I #
edge $-1 $320 0.040840568596912874 $324 8.6839515118811832 $323 $493 forward 7 unknown #
edge $-1 $328 -8.6839515118811832 $319 -0.040840568596912874 $326 $494 forward 7 unknown #
straight-curve $-1 -49.508970792473662 -13.046347552120231 0 0 0 -1 I I #
edge $-1 $434 -16.517678748066334 $432 16.517678748066334 $330 $495 forward 7 unknown #
vertex $-1 $431 $496 #
straight-curve $-1 -28.93597556960497 -4.4032366088359609 -16.517678748066334 1 0 0 I I #
vertex $-1 $331 $497 #
straight-curve $-1 -28.93597556960497 -4.4032366088359609 16.517678748066334 -1 0 0 I I #
point $-1 -49.508970792473662 -4.4032366088359609 16.517678748066334 #
point $-1 -49.508970792473662 -4.4032366088359609 -16.517678748066334 #
point $-1 -49.508970792473662 -13.046347552120231 -16.517678748066334 #
point $-1 -49.508970792473662 -13.046347552120231 16.517678748066334 #
straight-curve $-1 -66.23493148594622 0 16.517678748066334 0 -1 0 I I #
straight-curve $-1 -66.23493148594622 0 -16.517678748066334 0 1 0 I I #
loop $-1 $-1 $349 $335 #
plane-surface $-1 66.23493148594622 0 0 -1 0 0 0 0 1 forward_v I I I I #
coedge $-1 $351 $342 $338 $445 forward $219 $-1 #
edge $-1 $347 20.572995222868691 $450 37.298955916341249 $444 $498 forward 7 unknown #
coedge $-1 $344 $354 $339 $447 forward $336 $-1 #
edge $-1 $451 -37.298955916341249 $346 -20.572995222868691 $446 $499 forward 7 unknown #
coedge $-1 $349 $340 $354 $460 reversed $442 $-1 #
coedge $-1 $340 $349 $351 $458 reversed $442 $-1 #
vertex $-1 $458 $500 #
vertex $-1 $341 $501 #
straight-curve $-1 66.23493148594622 -4.4032366088359609 0 0 0 1 I I #
straight-curve $-1 49.508970792473662 -4.362396040239048 -16.517678748066334 0 1 0 I I #
straight-curve $-1 49.508970792473662 -4.362396040239048 16.517678748066334 0 -1 0 I I #
point $-1 49.508970792473662 -4.4032366088359609 16.517678748066334 #
point $-1 49.508970792473662 -4.4032366088359609 -16.517678748066334 #
straight-curve $-1 66.23493148594622 -13.046347552120231 0 0 0 -1 I I #
edge $-1 $450 4.4032366088359609 $352 13.046347552120231 $449 $502 forward 7 unknown #
point $-1 66.23493148594622 -13.046347552120231 -16.517678748066334 #
edge $-1 $355 -13.046347552120231 $451 -4.4032366088359609 $448 $503 forward 7 unknown #
point $-1 66.23493148594622 -13.046347552120231 16.517678748066334 #
edge $-1 $463 57.289681134362752 $466 65.714574335970212 $360 $504 forward 7 unknown #
vertex $-1 $374 $505 #
straight-curve $-1 12.376491127476555 49.085757917948136 16.517678748066331 0 1 0 I I #
edge $-1 $466 -12.412336229163138 $371 12.484026432536304 $370 $506 forward 7 unknown #
vertex $-1 $465 $507 #
straight-curve $-1 12.376491127476555 -7.6236218339801383 67.892367559194682 0 -0.60181501223851219 0.79863551827123203 I I #
point $-1 12.376491127476555 31.089981891716668 16.517678748066324 #
point $-1 -12.519871534222887 37.438594104968622 8.0927855464588632 #
straight-curve $-1 0 37.438594104968629 16.517678748066334 -1 0 0 I I #
vertex $-1 $377 $508 #
point $-1 -3.4066250594516205 30.474163249868589 9.449168373858333 #
vertex $-1 $381 $509 #
point $-1 7.2632446527052821 30.474163249868589 9.449168373858333 #
coedge $-1 $396 $395 $388 $476 forward $385 $-1 #
edge $-1 $477 39.098415640194304 $480 42.828197851117757 $475 $510 forward 7 unknown #
vertex $-1 $400 $511 #
straight-curve $-1 -49.508970792473662 -63.039117452841936 16.517678748066331 0 -1 0 I I #
edge $-1 $480 -27.540583198683862 $397 -16.396191988895737 $396 $512 forward 7 unknown #
vertex $-1 $479 $513 #
straight-curve $-1 -49.508970792473662 -37.438594104968629 12.787896537142885 0 0.74314481823134659 0.66913061440640931 I I #
point $-1 -49.508970792473662 -33.296251394139183 16.517678748066334 #
point $-1 -38.364579582685536 -37.438594104968629 12.787896537142885 #
straight-curve $-1 0 -37.438594104968629 16.517678748066334 1 0 0 I I #
vertex $-1 $403 $514 #
point $-1 -45.324859018248475 -33.646719486175712 12.741753105606714 #
vertex $-1 $407 $515 #
point $-1 -40.548691356910716 -33.646719486175712 12.741753105606714 #
straight-curve $-1 -66.23493148594622 37.438594104968629 0 0 0 -1 I I #
point $-1 -66.23493148594622 -37.438594104968629 -16.517678748066334 #
straight-curve $-1 -66.23493148594622 0 -16.517678748066334 0 1 0 I I #
point $-1 -66.23493148594622 37.438594104968629 -16.517678748066334 #
straight-curve $-1 -49.508970792473662 -4.362396040239048 -16.517678748066334 0 -1 0 I I #
straight-curve $-1 -49.508970792473662 -4.362396040239048 16.517678748066334 0 1 0 I I #
straight-curve $-1 -66.23493148594622 -4.4032366088359609 0 0 0 -1 I I #
point $-1 -66.23493148594622 -4.4032366088359609 -16.517678748066334 #
point $-1 -66.23493148594622 -4.4032366088359609 16.517678748066334 #
straight-curve $-1 28.93597556960497 -4.4032366088359609 -16.517678748066334 1 0 0 I I #
straight-curve $-1 28.93597556960497 -4.4032366088359609 16.517678748066334 -1 0 0 I I #
point $-1 66.23493148594622 -4.4032366088359609 -16.517678748066334 #
point $-1 66.23493148594622 -4.4032366088359609 16.517678748066334 #
straight-curve $-1 66.23493148594622 0 -16.517678748066334 0 -1 0 I I #
straight-curve $-1 66.23493148594622 0 16.517678748066334 0 1 0 I I #
straight-curve $-1 12.376491127476555 37.438594104968629 73.807359882429083 0 0 -1 I I #
point $-1 12.376491127476555 37.438594104968629 16.517678748066334 #
straight-curve $-1 -0.035845101686582836 37.438594104968629 8.0927855464588596 -1 0 0 I I #
point $-1 12.376491127476555 37.438594104968622 8.0927855464588632 #
point $-1 -5.4066250594516205 28.876892213326123 8.2455383493813077 #
point $-1 5.2632446527052821 28.876892213326123 8.2455383493813077 #
straight-curve $-1 -49.508970792473662 -37.438594104968629 55.616094388260642 0 0 -1 I I #
point $-1 -49.508970792473662 -37.438594104968629 16.517678748066334 #
straight-curve $-1 -21.968387593789799 -37.438594104968629 12.787896537142885 1 0 0 I I #
point $-1 -49.508970792473662 -37.438594104968629 12.787896537142885 #
point $-1 -46.324859018248475 -32.977588871769299 11.998608287375367 #
point $-1 -41.548691356910716 -32.977588871769299 11.998608287375367 #
End-of-ACIS-data 