500 0 6 0           
7 Unknown 11 ACIS 5.0 NT 24 Fri Mar 26 19:19:48 1999 
-1 9.9999999999999995e-007 1e-010 
body $-1 $6 $-1 $7 #
body $-1 $8 $-1 $9 #
body $-1 $10 $-1 $11 #
body $-1 $12 $-1 $13 #
body $-1 $14 $-1 $15 #
body $-1 $16 $-1 $17 #
lump $-1 $-1 $18 $0 #
transform $-1 1 0 0 0 1 0 0 0 1 77.571947386089661 40.68840043090492 12.115499903080941 1 rotate no_reflect no_shear #
lump $-1 $-1 $19 $1 #
transform $-1 1 0 0 0 1 0 0 0 1 77.571947386089661 40.68840043090492 12.115499903080941 1 rotate no_reflect no_shear #
lump $-1 $-1 $20 $2 #
transform $-1 1 0 0 0 1 0 0 0 1 77.571947386089661 40.68840043090492 12.115499903080941 1 rotate no_reflect no_shear #
lump $-1 $-1 $21 $3 #
transform $-1 1 0 0 0 1 0 0 0 1 77.571947386089661 40.68840043090492 12.115499903080941 1 rotate no_reflect no_shear #
lump $-1 $-1 $22 $4 #
transform $-1 1 0 0 0 1 0 0 0 1 77.571947386089661 40.68840043090492 12.115499903080941 1 rotate no_reflect no_shear #
lump $-1 $-1 $23 $5 #
transform $-1 1 0 0 0 1 0 0 0 1 77.571947386089661 40.68840043090492 12.115499903080941 1 rotate no_reflect no_shear #
shell $-1 $-1 $-1 $24 $-1 $6 #
shell $-1 $-1 $-1 $25 $-1 $8 #
shell $-1 $-1 $-1 $26 $-1 $10 #
shell $-1 $-1 $-1 $27 $-1 $12 #
shell $-1 $-1 $-1 $28 $-1 $14 #
shell $-1 $-1 $-1 $29 $-1 $16 #
face $-1 $30 $31 $18 $-1 $32 forward single #
face $-1 $33 $34 $19 $-1 $35 forward single #
face $-1 $36 $37 $20 $-1 $38 reversed single #
face $-1 $39 $40 $21 $-1 $41 forward single #
face $-1 $42 $43 $22 $-1 $44 reversed single #
face $-1 $45 $46 $23 $-1 $47 forward single #
face $-1 $48 $49 $18 $-1 $50 reversed single #
loop $-1 $-1 $51 $24 #
plane-surface $-1 0 0 12.115499903080941 0 0 1 1 0 0 forward_v I I I I #
face $-1 $52 $53 $19 $-1 $54 reversed single #
loop $-1 $-1 $55 $25 #
plane-surface $-1 -72.572564940807865 0 2.9423223540381969 0 0 1 1 0 0 forward_v I I I I #
face $-1 $56 $57 $20 $-1 $58 reversed single #
loop $-1 $-1 $59 $26 #
plane-surface $-1 31.954752007468215 -14.317222479160007 217.46016413878391 0 -1 0 -0.54463904215088732 0 -0.83867056331134215 forward_v I I I I #
face $-1 $60 $61 $21 $-1 $62 forward single #
loop $-1 $63 $64 $27 #
cone-surface $-1 68.82066168306433 -22.534498697657682 4.9933405910841033 -0.54463904215088732 0 -0.83867056331134215 1.6773411266226843 0 -1.0892780843017746 1 I I 0 1 2 forward I I I I #
face $-1 $65 $66 $22 $-1 $67 reversed single #
loop $-1 $-1 $68 $28 #
plane-surface $-1 31.954752007468215 26.371177951744912 217.46016413878391 0 -1 0 -0.54463904215088732 0 -0.83867056331134215 forward_v I I I I #
face $-1 $69 $70 $23 $-1 $71 forward single #
loop $-1 $72 $73 $29 #
cone-surface $-1 68.82066168306433 18.153901733247238 4.9933405910841033 -0.54463904215088732 0 -0.83867056331134215 1.6773411266226843 0 -1.0892780843017746 1 I I 0 1 2 forward I I I I #
face $-1 $74 $75 $18 $-1 $76 reversed single #
loop $-1 $-1 $77 $30 #
plane-surface $-1 0 0 -12.115499903080941 0 0 1 1 0 0 forward_v I I I I #
coedge $-1 $78 $79 $80 $81 forward $31 $-1 #
face $-1 $82 $83 $19 $-1 $84 reversed single #
loop $-1 $-1 $85 $33 #
plane-surface $-1 -72.572564940807865 0 -2.5739331180545975 0 0 1 1 0 0 forward_v I I I I #
coedge $-1 $86 $87 $88 $89 forward $34 $-1 #
face $-1 $90 $91 $20 $-1 $92 reversed single #
loop $-1 $-1 $93 $36 #
plane-surface $-1 -52.542670236809585 -22.534498697657682 87.345546515884678 0.54463904215088732 0 0.83867056331134215 0.83867056331134215 0 -0.54463904215088732 forward_v I I I I #
coedge $-1 $94 $95 $96 $97 reversed $37 $-1 #
face $-1 $-1 $98 $21 $-1 $99 forward single #
loop $-1 $100 $101 $39 #
cone-surface $-1 66.659990325684092 -22.534498697657682 1.6661985315129506 -0.54463904215088732 0 -0.83867056331134215 0.83867056331134215 0 -0.54463904215088732 1 I I -0.70710678118654746 0.70710678118654746 1 forward I I I I #
loop $-1 $-1 $102 $27 #
coedge $-1 $64 $64 $103 $104 reversed $40 $-1 #
face $-1 $105 $106 $22 $-1 $107 reversed single #
loop $-1 $-1 $108 $42 #
plane-surface $-1 -52.542670236809585 18.153901733247238 87.345546515884678 0.54463904215088732 0 0.83867056331134215 0.83867056331134215 0 -0.54463904215088732 forward_v I I I I #
coedge $-1 $109 $110 $111 $112 reversed $43 $-1 #
face $-1 $-1 $113 $23 $-1 $114 forward single #
loop $-1 $115 $116 $45 #
cone-surface $-1 66.659990325684092 18.153901733247238 1.6661985315129506 -0.54463904215088732 0 -0.83867056331134215 0.83867056331134215 0 -0.54463904215088732 1 I I -0.70710678118654746 0.70710678118654746 1 forward I I I I #
loop $-1 $-1 $117 $29 #
coedge $-1 $73 $73 $118 $119 reversed $46 $-1 #
face $-1 $120 $121 $18 $-1 $122 reversed single #
loop $-1 $-1 $123 $48 #
plane-surface $-1 0 -40.68840043090492 0 0 1 0 0 0 1 forward_v I I I I #
coedge $-1 $124 $125 $126 $127 forward $49 $-1 #
coedge $-1 $128 $51 $129 $130 forward $31 $-1 #
coedge $-1 $51 $128 $131 $132 forward $31 $-1 #
coedge $-1 $133 $134 $51 $81 reversed $135 $-1 #
edge $-1 $136 -40.68840043090492 $137 40.68840043090492 $80 $138 forward 7 unknown #
face $-1 $139 $140 $19 $-1 $141 reversed single #
loop $-1 $-1 $142 $52 #
plane-surface $-1 -67.573182495526069 0 0.1841946179917997 -1 0 0 0 0 1 forward_v I I I I #
coedge $-1 $143 $144 $145 $146 forward $53 $-1 #
coedge $-1 $147 $55 $148 $149 reversed $34 $-1 #
coedge $-1 $55 $147 $150 $151 reversed $34 $-1 #
coedge $-1 $142 $152 $55 $89 reversed $83 $-1 #
edge $-1 $153 -40.68840043090492 $154 40.68840043090492 $88 $155 forward 7 unknown #
face $-1 $156 $157 $20 $-1 $158 reversed single #
loop $-1 $-1 $159 $56 #
plane-surface $-1 31.954752007468215 -30.751774916155355 217.46016413878391 0 1 0 0.54463904215088732 0 0.83867056331134215 forward_v I I I I #
coedge $-1 $160 $161 $162 $163 reversed $57 $-1 #
coedge $-1 $95 $59 $164 $165 reversed $37 $-1 #
coedge $-1 $59 $94 $160 $166 reversed $37 $-1 #
coedge $-1 $162 $167 $59 $97 forward $168 $-1 #
edge $-1 $169 -61.594571382355554 $170 -47.324064606763557 $96 $171 forward 7 unknown #
loop $-1 $-1 $103 $60 #
plane-surface $-1 -52.542670236809585 -22.534498697657682 87.345546515884678 0.54463904215088732 0 0.83867056331134215 0.83867056331134215 0 -0.54463904215088732 forward_v I I I I #
loop $-1 $-1 $172 $39 #
coedge $-1 $101 $101 $102 $173 reversed $61 $-1 #
coedge $-1 $102 $102 $101 $173 forward $63 $-1 #
coedge $-1 $103 $103 $64 $104 forward $98 $-1 #
edge $-1 $174 0 $174 6.2831853071796004 $103 $175 forward 7 unknown #
face $-1 $176 $177 $22 $-1 $178 reversed single #
loop $-1 $-1 $179 $65 #
plane-surface $-1 31.954752007468215 9.9366255147495632 217.46016413878391 0 1 0 0.54463904215088732 0 0.83867056331134215 forward_v I I I I #
coedge $-1 $180 $181 $182 $183 reversed $66 $-1 #
coedge $-1 $110 $68 $184 $185 reversed $43 $-1 #
coedge $-1 $68 $109 $180 $186 reversed $43 $-1 #
coedge $-1 $182 $187 $68 $112 forward $188 $-1 #
edge $-1 $189 -61.594571382355554 $190 -47.324064606763557 $111 $191 forward 7 unknown #
loop $-1 $-1 $118 $69 #
plane-surface $-1 -52.542670236809585 18.153901733247238 87.345546515884678 0.54463904215088732 0 0.83867056331134215 0.83867056331134215 0 -0.54463904215088732 forward_v I I I I #
loop $-1 $-1 $192 $45 #
coedge $-1 $116 $116 $117 $193 reversed $70 $-1 #
coedge $-1 $117 $117 $116 $193 forward $72 $-1 #
coedge $-1 $118 $118 $73 $119 forward $113 $-1 #
edge $-1 $194 0 $194 6.2831853071796004 $118 $195 forward 7 unknown #
face $-1 $196 $197 $18 $-1 $198 reversed single #
loop $-1 $-1 $199 $74 #
plane-surface $-1 -77.571947386089661 0 0 1 0 0 0 0 -1 forward_v I I I I #
coedge $-1 $200 $131 $201 $202 forward $75 $-1 #
coedge $-1 $203 $77 $200 $204 forward $49 $-1 #
coedge $-1 $77 $203 $205 $206 forward $49 $-1 #
coedge $-1 $134 $133 $77 $127 reversed $135 $-1 #
edge $-1 $207 -40.68840043090492 $208 40.68840043090492 $126 $209 forward 7 unknown #
coedge $-1 $79 $78 $210 $211 forward $31 $-1 #
coedge $-1 $212 $213 $78 $130 reversed $197 $-1 #
edge $-1 $137 -77.571947386089661 $214 77.571947386089661 $129 $215 forward 7 unknown #
coedge $-1 $123 $216 $79 $132 reversed $75 $-1 #
edge $-1 $217 -77.571947386089661 $136 77.571947386089661 $131 $218 forward 7 unknown #
coedge $-1 $126 $80 $216 $219 forward $135 $-1 #
coedge $-1 $80 $126 $212 $220 reversed $135 $-1 #
loop $-1 $-1 $133 $196 #
vertex $-1 $81 $221 #
vertex $-1 $81 $222 #
straight-curve $-1 77.571947386089661 0 12.115499903080941 0 1 0 I I #
face $-1 $223 $224 $19 $-1 $225 reversed single #
loop $-1 $-1 $226 $82 #
plane-surface $-1 0 -40.68840043090492 0 0 1 0 0 0 1 forward_v I I I I #
coedge $-1 $145 $88 $227 $228 reversed $83 $-1 #
coedge $-1 $229 $85 $226 $230 reversed $53 $-1 #
coedge $-1 $85 $229 $231 $232 reversed $53 $-1 #
coedge $-1 $152 $142 $85 $146 reversed $83 $-1 #
edge $-1 $233 -40.68840043090492 $234 40.68840043090492 $145 $235 forward 7 unknown #
coedge $-1 $87 $86 $236 $237 reversed $34 $-1 #
coedge $-1 $238 $239 $86 $149 forward $240 $-1 #
edge $-1 $241 -41.285664915685729 $154 -31.286900025122137 $148 $242 forward 7 unknown #
coedge $-1 $243 $227 $87 $151 forward $140 $-1 #
edge $-1 $153 31.286900025122137 $244 41.285664915685729 $150 $245 forward 7 unknown #
coedge $-1 $88 $145 $238 $246 reversed $83 $-1 #
vertex $-1 $151 $247 #
vertex $-1 $149 $248 #
straight-curve $-1 -67.573182495526069 0 2.9423223540381969 0 1 0 I I #
face $-1 $-1 $168 $20 $-1 $249 forward single #
loop $-1 $-1 $250 $90 #
plane-surface $-1 77.571947386089661 0 0 -1 0 0 0 0 1 forward_v I I I I #
coedge $-1 $251 $252 $253 $254 reversed $91 $-1 #
coedge $-1 $255 $93 $95 $166 forward $57 $-1 #
coedge $-1 $93 $255 $251 $256 forward $57 $-1 #
coedge $-1 $253 $96 $93 $163 forward $168 $-1 #
edge $-1 $170 3.0499731303311659 $257 19.484525567326514 $162 $258 forward 7 unknown #
coedge $-1 $259 $260 $94 $165 forward $157 $-1 #
edge $-1 $261 -105.88195779778508 $169 -96.61458216631101 $164 $262 forward 7 unknown #
edge $-1 $170 138.12826622877677 $261 155.14389477217932 $95 $263 forward 7 unknown #
coedge $-1 $96 $253 $259 $264 forward $168 $-1 #
loop $-1 $-1 $253 $156 #
vertex $-1 $165 $265 #
vertex $-1 $97 $266 #
straight-curve $-1 15.977376003734108 -14.317222479160007 12.115499903080945 -1 0 0 I I #
coedge $-1 $172 $172 $-1 $267 reversed $100 $-1 #
edge $-1 $268 0 $268 6.2831853071796004 $101 $269 forward 7 unknown #
vertex $-1 $104 $270 #
ellipse-curve $-1 70.436693998293663 -22.534498697657682 7.4818120873438918 0.54463904215088732 0 0.83867056331134215 1.6773411266226843 0 -1.0892780843017746 1 I I #
face $-1 $-1 $188 $22 $-1 $271 forward single #
loop $-1 $-1 $272 $105 #
plane-surface $-1 77.571947386089661 0 0 -1 0 0 0 0 1 forward_v I I I I #
coedge $-1 $273 $274 $275 $276 reversed $106 $-1 #
coedge $-1 $277 $108 $110 $186 forward $66 $-1 #
coedge $-1 $108 $277 $273 $278 forward $66 $-1 #
coedge $-1 $275 $111 $108 $183 forward $188 $-1 #
edge $-1 $190 -17.294227085121292 $279 -0.85967464812594407 $182 $280 forward 7 unknown #
coedge $-1 $281 $282 $109 $185 forward $177 $-1 #
edge $-1 $283 -105.88195779778508 $189 -96.61458216631101 $184 $284 forward 7 unknown #
edge $-1 $190 138.12826622877677 $283 155.14389477217932 $110 $285 forward 7 unknown #
coedge $-1 $111 $275 $281 $286 forward $188 $-1 #
loop $-1 $-1 $275 $176 #
vertex $-1 $185 $287 #
vertex $-1 $112 $288 #
straight-curve $-1 15.977376003734108 26.371177951744912 12.115499903080945 -1 0 0 I I #
coedge $-1 $192 $192 $-1 $289 reversed $115 $-1 #
edge $-1 $290 0 $290 6.2831853071796004 $116 $291 forward 7 unknown #
vertex $-1 $119 $292 #
ellipse-curve $-1 70.436693998293663 18.153901733247238 7.4818120873438918 0.54463904215088732 0 0.83867056331134215 1.6773411266226843 0 -1.0892780843017746 1 I I #
face $-1 $-1 $135 $18 $-1 $293 reversed single #
loop $-1 $-1 $212 $120 #
plane-surface $-1 0 40.68840043090492 0 0 -1 0 0 0 -1 forward_v I I I I #
coedge $-1 $294 $210 $213 $295 forward $121 $-1 #
coedge $-1 $216 $123 $124 $204 reversed $75 $-1 #
coedge $-1 $210 $294 $123 $202 reversed $121 $-1 #
edge $-1 $217 -12.115499903080941 $296 12.115499903080941 $201 $297 forward 7 unknown #
coedge $-1 $125 $124 $294 $298 forward $49 $-1 #
edge $-1 $208 -77.571947386089661 $296 77.571947386089661 $200 $299 forward 7 unknown #
coedge $-1 $213 $212 $125 $206 reversed $197 $-1 #
edge $-1 $300 -77.571947386089661 $207 77.571947386089661 $205 $301 forward 7 unknown #
vertex $-1 $127 $302 #
vertex $-1 $219 $303 #
straight-curve $-1 77.571947386089661 0 -12.115499903080941 0 -1 0 I I #
coedge $-1 $199 $201 $128 $211 reversed $121 $-1 #
edge $-1 $214 -40.68840043090492 $217 40.68840043090492 $210 $304 forward 7 unknown #
coedge $-1 $205 $129 $134 $220 forward $197 $-1 #
coedge $-1 $129 $205 $199 $295 reversed $197 $-1 #
vertex $-1 $130 $305 #
straight-curve $-1 0 40.68840043090492 12.115499903080941 -1 0 0 I I #
coedge $-1 $131 $200 $133 $219 reversed $75 $-1 #
vertex $-1 $211 $306 #
straight-curve $-1 0 -40.68840043090492 12.115499903080941 1 0 0 I I #
edge $-1 $136 -12.115499903080941 $208 12.115499903080941 $133 $307 forward 7 unknown #
edge $-1 $137 -12.115499903080941 $207 12.115499903080941 $134 $308 forward 7 unknown #
point $-1 77.571947386089661 -40.68840043090492 12.115499903080941 #
point $-1 77.571947386089661 40.68840043090492 12.115499903080941 #
face $-1 $-1 $240 $19 $-1 $309 reversed single #
loop $-1 $-1 $310 $139 #
plane-surface $-1 -77.571947386089661 0 0 1 0 0 0 0 -1 forward_v I I I I #
coedge $-1 $227 $243 $143 $230 forward $140 $-1 #
coedge $-1 $150 $226 $142 $228 forward $140 $-1 #
edge $-1 $234 -2.6660304270504973 $153 2.850225045042297 $227 $311 forward 7 unknown #
coedge $-1 $144 $143 $310 $312 reversed $53 $-1 #
edge $-1 $313 -41.285664915685729 $234 -31.286900025122137 $226 $314 forward 7 unknown #
coedge $-1 $239 $238 $144 $232 forward $240 $-1 #
edge $-1 $233 31.286900025122137 $315 41.285664915685729 $231 $316 forward 7 unknown #
vertex $-1 $232 $317 #
vertex $-1 $230 $318 #
straight-curve $-1 -67.573182495526069 0 -2.5739331180545975 0 -1 0 I I #
coedge $-1 $319 $320 $147 $237 forward $224 $-1 #
edge $-1 $244 -40.68840043090492 $241 40.68840043090492 $236 $321 forward 7 unknown #
coedge $-1 $231 $148 $152 $246 forward $240 $-1 #
coedge $-1 $148 $231 $319 $322 reversed $240 $-1 #
loop $-1 $-1 $231 $223 #
vertex $-1 $322 $323 #
straight-curve $-1 -36.286282470403933 40.68840043090492 2.9423223540381969 1 0 0 I I #
coedge $-1 $226 $150 $320 $324 forward $140 $-1 #
vertex $-1 $324 $325 #
straight-curve $-1 -36.286282470403933 -40.68840043090492 2.9423223540381969 -1 0 0 I I #
edge $-1 $154 -2.850225045042297 $233 2.6660304270504973 $238 $326 forward 7 unknown #
point $-1 -67.573182495526069 -40.68840043090492 2.9423223540381969 #
point $-1 -67.573182495526069 40.68840043090492 2.9423223540381969 #
plane-surface $-1 0 0 12.115499903080941 0 0 1 1 0 0 forward_v I I I I #
coedge $-1 $260 $259 $252 $327 forward $157 $-1 #
coedge $-1 $252 $159 $161 $256 reversed $91 $-1 #
coedge $-1 $159 $251 $250 $327 reversed $91 $-1 #
coedge $-1 $167 $162 $159 $254 forward $168 $-1 #
edge $-1 $257 47.324064606763557 $328 61.594571382355554 $253 $329 forward 7 unknown #
coedge $-1 $161 $160 $260 $330 reversed $57 $-1 #
edge $-1 $331 -155.14389477217932 $257 -138.12826622877677 $251 $332 forward 7 unknown #
vertex $-1 $163 $333 #
straight-curve $-1 63.301440610497671 -11.267249348828841 12.115499903080938 0 -1 0 I I #
coedge $-1 $250 $164 $167 $264 reversed $157 $-1 #
coedge $-1 $164 $250 $255 $330 forward $157 $-1 #
vertex $-1 $165 $334 #
straight-curve $-1 77.571947386089661 -14.317222479160007 108.73008206939195 0 0 1 I I #
straight-curve $-1 -52.542670236809585 -14.317222479160007 87.345546515884678 0.83867056331134215 0 -0.54463904215088732 I I #
edge $-1 $328 -30.751774916155355 $169 -14.317222479160007 $259 $335 forward 7 unknown #
point $-1 77.571947386089661 -14.317222479160007 12.115499903080941 #
point $-1 63.301440610497664 -14.317222479160007 12.115499903080945 #
edge $-1 $336 1 $336 0 $172 $-1 forward 7 unknown #
vertex $-1 $173 $337 #
ellipse-curve $-1 67.204629367834983 -22.534498697657682 2.5048690948242927 0.54463904215088732 0 0.83867056331134215 1.6773411266226843 0 -1.0892780843017746 1 I I #
point $-1 72.114035124916356 -22.534498697657682 6.3925340030421403 #
plane-surface $-1 0 0 12.115499903080941 0 0 1 1 0 0 forward_v I I I I #
coedge $-1 $282 $281 $274 $338 forward $177 $-1 #
coedge $-1 $274 $179 $181 $278 reversed $106 $-1 #
coedge $-1 $179 $273 $272 $338 reversed $106 $-1 #
coedge $-1 $187 $182 $179 $276 forward $188 $-1 #
edge $-1 $279 47.324064606763557 $339 61.594571382355554 $275 $340 forward 7 unknown #
coedge $-1 $181 $180 $282 $341 reversed $66 $-1 #
edge $-1 $342 -155.14389477217932 $279 -138.12826622877677 $273 $343 forward 7 unknown #
vertex $-1 $183 $344 #
straight-curve $-1 63.301440610497671 9.0769508666236192 12.115499903080938 0 -1 0 I I #
coedge $-1 $272 $184 $187 $286 reversed $177 $-1 #
coedge $-1 $184 $272 $277 $341 forward $177 $-1 #
vertex $-1 $185 $345 #
straight-curve $-1 77.571947386089661 26.371177951744912 108.73008206939195 0 0 1 I I #
straight-curve $-1 -52.542670236809585 26.371177951744912 87.345546515884678 0.83867056331134215 0 -0.54463904215088732 I I #
edge $-1 $339 9.9366255147495632 $189 26.371177951744912 $281 $346 forward 7 unknown #
point $-1 77.571947386089661 26.371177951744912 12.115499903080941 #
point $-1 63.301440610497664 26.371177951744912 12.115499903080945 #
edge $-1 $347 1 $347 0 $192 $-1 forward 7 unknown #
vertex $-1 $193 $348 #
ellipse-curve $-1 67.204629367834983 18.153901733247238 2.5048690948242927 0.54463904215088732 0 0.83867056331134215 1.6773411266226843 0 -1.0892780843017746 1 I I #
point $-1 72.114035124916356 18.153901733247238 6.3925340030421403 #
plane-surface $-1 77.571947386089661 0 0 -1 0 0 0 0 1 forward_v I I I I #
coedge $-1 $201 $199 $203 $298 reversed $121 $-1 #
edge $-1 $214 -12.115499903080941 $300 12.115499903080941 $213 $349 forward 7 unknown #
vertex $-1 $298 $350 #
straight-curve $-1 -77.571947386089661 -40.68840043090492 0 0 0 -1 I I #
edge $-1 $296 -40.68840043090492 $300 40.68840043090492 $294 $351 forward 7 unknown #
straight-curve $-1 0 -40.68840043090492 -12.115499903080941 -1 0 0 I I #
vertex $-1 $206 $352 #
straight-curve $-1 0 40.68840043090492 -12.115499903080941 1 0 0 I I #
point $-1 77.571947386089661 40.68840043090492 -12.115499903080941 #
point $-1 77.571947386089661 -40.68840043090492 -12.115499903080941 #
straight-curve $-1 -77.571947386089661 0 12.115499903080941 0 -1 0 I I #
point $-1 -77.571947386089661 40.68840043090492 12.115499903080941 #
point $-1 -77.571947386089661 -40.68840043090492 12.115499903080941 #
straight-curve $-1 77.571947386089661 -40.68840043090492 0 0 0 -1 I I #
straight-curve $-1 77.571947386089661 40.68840043090492 0 0 0 -1 I I #
plane-surface $-1 0 40.68840043090492 0 0 -1 0 0 0 -1 forward_v I I I I #
coedge $-1 $320 $319 $229 $312 forward $224 $-1 #
straight-curve $-1 -67.573182495526069 -40.68840043090492 0.092097308995899851 0 0 1 I I #
edge $-1 $315 -40.68840043090492 $313 40.68840043090492 $310 $353 forward 7 unknown #
vertex $-1 $230 $354 #
straight-curve $-1 -36.286282470403933 -40.68840043090492 -2.5739331180545975 1 0 0 I I #
vertex $-1 $232 $355 #
straight-curve $-1 -36.286282470403933 40.68840043090492 -2.5739331180545975 -1 0 0 I I #
point $-1 -67.573182495526069 40.68840043090492 -2.5739331180545975 #
point $-1 -67.573182495526069 -40.68840043090492 -2.5739331180545975 #
coedge $-1 $310 $236 $239 $322 forward $224 $-1 #
coedge $-1 $236 $310 $243 $324 reversed $224 $-1 #
straight-curve $-1 -77.571947386089661 0 2.9423223540381969 0 1 0 I I #
edge $-1 $241 -2.9423223540381969 $315 2.5739331180545975 $239 $356 forward 7 unknown #
point $-1 -77.571947386089661 40.68840043090492 2.9423223540381969 #
edge $-1 $244 -2.9423223540381969 $313 2.5739331180545975 $320 $357 forward 7 unknown #
point $-1 -77.571947386089661 -40.68840043090492 2.9423223540381969 #
straight-curve $-1 -67.573182495526069 40.68840043090492 0.092097308995899851 0 0 -1 I I #
edge $-1 $328 96.61458216631101 $331 105.88195779778508 $250 $358 forward 7 unknown #
vertex $-1 $264 $359 #
straight-curve $-1 15.977376003734108 -30.751774916155355 12.115499903080945 1 0 0 I I #
edge $-1 $331 -19.484525567326514 $261 -3.0499731303311659 $260 $360 forward 7 unknown #
vertex $-1 $330 $361 #
straight-curve $-1 -52.542670236809585 -30.751774916155355 87.345546515884678 -0.83867056331134215 0 0.54463904215088732 I I #
point $-1 63.301440610497664 -30.751774916155355 12.115499903080945 #
point $-1 77.571947386089647 -14.317222479160007 2.8481242716068778 #
straight-curve $-1 77.571947386089661 0 12.115499903080941 0 1 0 I I #
vertex $-1 $267 $362 #
point $-1 68.881970494457661 -22.534498697657682 1.415591010522518 #
edge $-1 $339 96.61458216631101 $342 105.88195779778508 $272 $363 forward 7 unknown #
vertex $-1 $286 $364 #
straight-curve $-1 15.977376003734108 9.9366255147495632 12.115499903080945 1 0 0 I I #
edge $-1 $342 0.85967464812594407 $283 17.294227085121292 $282 $365 forward 7 unknown #
vertex $-1 $341 $366 #
straight-curve $-1 -52.542670236809585 9.9366255147495632 87.345546515884678 -0.83867056331134215 0 0.54463904215088732 I I #
point $-1 63.301440610497664 9.9366255147495632 12.115499903080945 #
point $-1 77.571947386089647 26.371177951744912 2.8481242716068778 #
straight-curve $-1 77.571947386089661 0 12.115499903080941 0 1 0 I I #
vertex $-1 $289 $367 #
point $-1 68.881970494457661 18.153901733247238 1.415591010522518 #
straight-curve $-1 -77.571947386089661 40.68840043090492 0 0 0 -1 I I #
point $-1 -77.571947386089661 -40.68840043090492 -12.115499903080941 #
straight-curve $-1 -77.571947386089661 0 -12.115499903080941 0 1 0 I I #
point $-1 -77.571947386089661 40.68840043090492 -12.115499903080941 #
straight-curve $-1 -77.571947386089661 0 -2.5739331180545975 0 -1 0 I I #
point $-1 -77.571947386089661 -40.68840043090492 -2.5739331180545975 #
point $-1 -77.571947386089661 40.68840043090492 -2.5739331180545975 #
straight-curve $-1 -77.571947386089661 40.68840043090492 0 0 0 -1 I I #
straight-curve $-1 -77.571947386089661 -40.68840043090492 0 0 0 -1 I I #
straight-curve $-1 77.571947386089661 -30.751774916155355 108.73008206939195 0 0 -1 I I #
point $-1 77.571947386089661 -30.751774916155355 12.115499903080941 #
straight-curve $-1 77.571947386089661 -11.267249348828841 2.8481242716068635 0 1 0 I I #
point $-1 77.571947386089647 -30.751774916155355 2.8481242716068778 #
point $-1 66.115351283533201 -22.534498697657682 0.82752796820160845 #
straight-curve $-1 77.571947386089661 9.9366255147495632 108.73008206939195 0 0 -1 I I #
point $-1 77.571947386089661 9.9366255147495632 12.115499903080941 #
straight-curve $-1 77.571947386089661 9.0769508666236192 2.8481242716068635 0 1 0 I I #
point $-1 77.571947386089647 9.9366255147495632 2.8481242716068778 #
point $-1 66.115351283533201 18.153901733247238 0.82752796820160845 #
End-of-ACIS-data 