500 0 9 0           
7 Unknown 11 ACIS 5.0 NT 24 Fri Mar 26 19:00:31 1999 
-1 9.9999999999999995e-007 1e-010 
body $-1 $9 $-1 $10 #
body $-1 $11 $-1 $12 #
body $-1 $13 $-1 $14 #
body $-1 $15 $-1 $16 #
body $-1 $17 $-1 $18 #
body $-1 $19 $-1 $20 #
body $-1 $21 $-1 $22 #
body $-1 $23 $-1 $24 #
body $-1 $25 $-1 $26 #
lump $-1 $-1 $27 $0 #
transform $-1 1 0 0 0 1 0 0 0 1 43.588976714377267 24.933527889428877 9.1587551006422281 1 rotate no_reflect no_shear #
lump $-1 $-1 $28 $1 #
transform $-1 1 0 0 0 1 0 0 0 1 43.588976714377267 24.933527889428877 9.1587551006422281 1 rotate no_reflect no_shear #
lump $-1 $-1 $29 $2 #
transform $-1 1 0 0 0 1 0 0 0 1 43.588976714377267 24.933527889428877 9.1587551006422281 1 rotate no_reflect no_shear #
lump $-1 $-1 $30 $3 #
transform $-1 1 0 0 0 1 0 0 0 1 43.588976714377267 24.933527889428877 9.1587551006422281 1 rotate no_reflect no_shear #
lump $-1 $-1 $31 $4 #
transform $-1 1 0 0 0 1 0 0 0 1 43.588976714377267 24.933527889428877 9.1587551006422281 1 rotate no_reflect no_shear #
lump $-1 $-1 $32 $5 #
transform $-1 1 0 0 0 1 0 0 0 1 43.588976714377267 24.933527889428877 9.1587551006422281 1 rotate no_reflect no_shear #
lump $-1 $-1 $33 $6 #
transform $-1 1 0 0 0 1 0 0 0 1 43.588976714377267 24.933527889428877 9.1587551006422281 1 rotate no_reflect no_shear #
lump $-1 $-1 $34 $7 #
transform $-1 1 0 0 0 1 0 0 0 1 43.588976714377267 24.933527889428877 9.1587551006422281 1 rotate no_reflect no_shear #
lump $-1 $-1 $35 $8 #
transform $-1 1 0 0 0 1 0 0 0 1 43.588976714377267 24.933527889428877 9.1587551006422281 1 rotate no_reflect no_shear #
shell $-1 $-1 $-1 $36 $-1 $9 #
shell $-1 $-1 $-1 $37 $-1 $11 #
shell $-1 $-1 $-1 $38 $-1 $13 #
shell $-1 $-1 $-1 $39 $-1 $15 #
shell $-1 $-1 $-1 $40 $-1 $17 #
shell $-1 $-1 $-1 $41 $-1 $19 #
shell $-1 $-1 $-1 $42 $-1 $21 #
shell $-1 $-1 $-1 $43 $-1 $23 #
shell $-1 $-1 $-1 $44 $-1 $25 #
face $-1 $45 $46 $27 $-1 $47 forward single #
face $-1 $48 $49 $28 $-1 $50 forward single #
face $-1 $51 $52 $29 $-1 $53 forward single #
face $-1 $54 $55 $30 $-1 $56 reversed single #
face $-1 $57 $58 $31 $-1 $59 forward single #
face $-1 $60 $61 $32 $-1 $62 forward single #
face $-1 $63 $64 $33 $-1 $65 reversed single #
face $-1 $66 $67 $34 $-1 $68 forward single #
face $-1 $69 $70 $35 $-1 $71 forward single #
face $-1 $72 $73 $27 $-1 $74 reversed single #
loop $-1 $-1 $75 $36 #
plane-surface $-1 0 0 9.1587551006422281 0 0 1 1 0 0 forward_v I I I I #
face $-1 $76 $77 $28 $-1 $78 reversed single #
loop $-1 $-1 $79 $37 #
plane-surface $-1 -43.588976714377267 0 0 1 0 0 0 0 -1 forward_v I I I I #
face $-1 $80 $81 $29 $-1 $82 forward single #
loop $-1 $-1 $83 $38 #
plane-surface $-1 43.588976714377267 0 0 -1 0 0 0 0 1 forward_v I I I I #
face $-1 $84 $85 $30 $-1 $86 reversed single #
loop $-1 $-1 $87 $39 #
plane-surface $-1 -18.771327683768462 -96.345527366614164 56.054463097184154 -1 0 0 0 -0.81915205242281985 0.57357642473473569 forward_v I I I I #
face $-1 $88 $89 $31 $-1 $90 forward single #
loop $-1 $91 $92 $40 #
cone-surface $-1 -24.24363803316427 -23.213206877354047 7.1622096002710869 0 0.81915205242281985 -0.57357642473473569 0.5 0 0 1 I I 0 1 0.5 forward I I I I #
face $-1 $93 $94 $32 $-1 $95 forward single #
loop $-1 $96 $97 $41 #
cone-surface $-1 -20.960251823526789 -23.213206877354047 7.1622096002710869 0 0.81915205242281985 -0.57357642473473569 0.5 0 0 1 I I 0 1 0.5 forward I I I I #
face $-1 $98 $99 $33 $-1 $100 reversed single #
loop $-1 $-1 $101 $42 #
plane-surface $-1 -26.432562172922587 67.742959800929285 96.903164186718726 1 0 0 0 -0.81915205242281985 -0.57357642473473569 forward_v I I I I #
face $-1 $102 $103 $34 $-1 $104 forward single #
loop $-1 $105 $106 $43 #
cone-surface $-1 -24.24363803316427 23.213206877354043 7.1622096002710904 0 -0.81915205242281985 -0.57357642473473569 0.5 0 0 1 I I 0 1 0.5 forward I I I I #
face $-1 $107 $108 $35 $-1 $109 forward single #
loop $-1 $110 $111 $44 #
cone-surface $-1 -20.960251823526789 23.213206877354043 7.1622096002710904 0 -0.81915205242281985 -0.57357642473473569 0.5 0 0 1 I I 0 1 0.5 forward I I I I #
face $-1 $112 $113 $27 $-1 $114 reversed single #
loop $-1 $-1 $115 $45 #
plane-surface $-1 0 0 -9.1587551006422281 0 0 1 1 0 0 forward_v I I I I #
coedge $-1 $116 $117 $118 $119 forward $46 $-1 #
face $-1 $120 $121 $28 $-1 $122 reversed single #
loop $-1 $-1 $123 $48 #
plane-surface $-1 0 24.933527889428877 0 0 -1 0 0 0 -1 forward_v I I I I #
coedge $-1 $124 $125 $126 $127 forward $49 $-1 #
face $-1 $128 $129 $29 $-1 $130 reversed single #
loop $-1 $-1 $131 $51 #
plane-surface $-1 0 0 9.1587551006422281 0 0 1 1 0 0 forward_v I I I I #
coedge $-1 $132 $133 $134 $135 forward $52 $-1 #
face $-1 $136 $137 $30 $-1 $138 reversed single #
loop $-1 $-1 $139 $54 #
plane-surface $-1 -22.601944928345524 -24.933527889428888 6.0512442538278322 0 -0.81915205242281985 0.57357642473473569 1 0 0 forward_v I I I I #
coedge $-1 $140 $141 $142 $143 reversed $55 $-1 #
face $-1 $-1 $144 $31 $-1 $145 forward single #
loop $-1 $146 $147 $57 #
cone-surface $-1 -24.24363803316427 -22.376049079340923 6.5760254171234607 0 0.81915205242281985 -0.57357642473473569 0.25 0 0 1 I I -0.70710678118654746 0.70710678118654746 0.25 forward I I I I #
loop $-1 $-1 $148 $40 #
coedge $-1 $92 $92 $149 $150 reversed $58 $-1 #
face $-1 $-1 $151 $32 $-1 $152 forward single #
loop $-1 $153 $154 $60 #
cone-surface $-1 -20.960251823526789 -22.376049079340923 6.5760254171234607 0 0.81915205242281985 -0.57357642473473569 0.25 0 0 1 I I -0.70710678118654746 0.70710678118654746 0.25 forward I I I I #
loop $-1 $-1 $155 $41 #
coedge $-1 $97 $97 $156 $157 reversed $61 $-1 #
face $-1 $158 $159 $33 $-1 $160 reversed single #
loop $-1 $-1 $161 $63 #
plane-surface $-1 -22.601944928345524 -3.6690396762559914 46.899945343362404 0 0.81915205242281985 0.57357642473473569 1 0 0 forward_v I I I I #
coedge $-1 $162 $163 $164 $165 reversed $64 $-1 #
face $-1 $-1 $166 $34 $-1 $167 forward single #
loop $-1 $168 $169 $66 #
cone-surface $-1 -24.24363803316427 22.37604907934092 6.5760254171234642 0 -0.81915205242281985 -0.57357642473473569 0.25 0 0 1 I I -0.70710678118654746 0.70710678118654746 0.25 forward I I I I #
loop $-1 $-1 $170 $43 #
coedge $-1 $106 $106 $171 $172 reversed $67 $-1 #
face $-1 $-1 $173 $35 $-1 $174 forward single #
loop $-1 $175 $176 $69 #
cone-surface $-1 -20.960251823526789 22.37604907934092 6.5760254171234642 0 -0.81915205242281985 -0.57357642473473569 0.25 0 0 1 I I -0.70710678118654746 0.70710678118654746 0.25 forward I I I I #
loop $-1 $-1 $177 $44 #
coedge $-1 $111 $111 $178 $179 reversed $70 $-1 #
face $-1 $180 $181 $27 $-1 $182 reversed single #
loop $-1 $-1 $183 $72 #
plane-surface $-1 0 -24.933527889428877 0 0 1 0 0 0 1 forward_v I I I I #
coedge $-1 $184 $185 $186 $187 forward $73 $-1 #
coedge $-1 $188 $75 $189 $190 forward $46 $-1 #
coedge $-1 $75 $188 $191 $192 forward $46 $-1 #
coedge $-1 $193 $194 $75 $119 reversed $195 $-1 #
edge $-1 $196 -24.933527889428877 $197 24.933527889428877 $118 $198 forward 7 unknown #
face $-1 $199 $200 $28 $-1 $201 reversed single #
loop $-1 $-1 $126 $76 #
plane-surface $-1 -47.286369530596346 0 5.9208373530040639 0 0 1 1 0 0 forward_v I I I I #
coedge $-1 $202 $203 $124 $204 forward $77 $-1 #
coedge $-1 $205 $79 $123 $204 reversed $49 $-1 #
coedge $-1 $79 $205 $206 $207 reversed $49 $-1 #
coedge $-1 $208 $209 $79 $127 reversed $121 $-1 #
edge $-1 $210 -24.933527889428877 $211 24.933527889428877 $126 $212 forward 7 unknown #
face $-1 $213 $214 $29 $-1 $215 reversed single #
loop $-1 $-1 $216 $80 #
plane-surface $-1 0 -24.933527889428877 0 0 1 0 0 0 1 forward_v I I I I #
coedge $-1 $217 $218 $219 $220 forward $81 $-1 #
coedge $-1 $219 $83 $216 $221 reversed $52 $-1 #
coedge $-1 $83 $219 $222 $223 reversed $52 $-1 #
coedge $-1 $224 $225 $83 $135 reversed $214 $-1 #
edge $-1 $226 -24.933527889428877 $227 24.933527889428877 $134 $228 forward 7 unknown #
face $-1 $229 $230 $30 $-1 $231 reversed single #
loop $-1 $-1 $232 $84 #
plane-surface $-1 -26.432562172922587 -96.345527366614164 56.054463097184154 1 0 0 0 0.81915205242281985 -0.57357642473473569 forward_v I I I I #
coedge $-1 $233 $234 $235 $236 reversed $85 $-1 #
coedge $-1 $141 $87 $237 $238 reversed $55 $-1 #
coedge $-1 $87 $140 $233 $239 reversed $55 $-1 #
coedge $-1 $235 $240 $87 $143 forward $241 $-1 #
edge $-1 $242 23.239235793878205 $243 25.415138248213005 $142 $244 forward 7 unknown #
loop $-1 $-1 $149 $88 #
plane-surface $-1 -22.601944928345524 -24.933527889428888 6.0512442538278322 0 -0.81915205242281985 0.57357642473473569 1 0 0 forward_v I I I I #
loop $-1 $-1 $245 $57 #
coedge $-1 $147 $147 $148 $246 reversed $89 $-1 #
coedge $-1 $148 $148 $147 $246 forward $91 $-1 #
coedge $-1 $149 $149 $92 $150 forward $144 $-1 #
edge $-1 $247 5.8566605331526036e-016 $247 6.2831853071796013 $149 $248 forward 7 unknown #
loop $-1 $-1 $156 $93 #
plane-surface $-1 -22.601944928345524 -24.933527889428888 6.0512442538278322 0 -0.81915205242281985 0.57357642473473569 1 0 0 forward_v I I I I #
loop $-1 $-1 $249 $60 #
coedge $-1 $154 $154 $155 $250 reversed $94 $-1 #
coedge $-1 $155 $155 $154 $250 forward $96 $-1 #
coedge $-1 $156 $156 $97 $157 forward $151 $-1 #
edge $-1 $251 5.8566605331526036e-016 $251 6.2831853071796013 $156 $252 forward 7 unknown #
face $-1 $253 $254 $33 $-1 $255 reversed single #
loop $-1 $-1 $256 $98 #
plane-surface $-1 -18.771327683768462 67.742959800929285 96.903164186718726 -1 0 0 0 0.81915205242281985 0.57357642473473569 forward_v I I I I #
coedge $-1 $257 $258 $259 $260 reversed $99 $-1 #
coedge $-1 $163 $101 $261 $262 reversed $64 $-1 #
coedge $-1 $101 $162 $257 $263 reversed $64 $-1 #
coedge $-1 $259 $264 $101 $165 forward $265 $-1 #
edge $-1 $266 8.9379520110357653 $267 11.113854465370572 $164 $268 forward 7 unknown #
loop $-1 $-1 $171 $102 #
plane-surface $-1 -22.601944928345524 -3.6690396762559914 46.899945343362404 0 0.81915205242281985 0.57357642473473569 1 0 0 forward_v I I I I #
loop $-1 $-1 $269 $66 #
coedge $-1 $169 $169 $170 $270 reversed $103 $-1 #
coedge $-1 $170 $170 $169 $270 forward $105 $-1 #
coedge $-1 $171 $171 $106 $172 forward $166 $-1 #
edge $-1 $271 2.0347332158398754e-015 $271 6.2831853071796022 $171 $272 forward 7 unknown #
loop $-1 $-1 $178 $107 #
plane-surface $-1 -22.601944928345524 -3.6690396762559914 46.899945343362404 0 0.81915205242281985 0.57357642473473569 1 0 0 forward_v I I I I #
loop $-1 $-1 $273 $69 #
coedge $-1 $176 $176 $177 $274 reversed $108 $-1 #
coedge $-1 $177 $177 $176 $274 forward $110 $-1 #
coedge $-1 $178 $178 $111 $179 forward $173 $-1 #
edge $-1 $275 2.0347332158398754e-015 $275 6.2831853071796022 $178 $276 forward 7 unknown #
face $-1 $277 $278 $27 $-1 $279 reversed single #
loop $-1 $-1 $280 $112 #
plane-surface $-1 -43.588976714377267 0 0 1 0 0 0 0 -1 forward_v I I I I #
coedge $-1 $281 $191 $282 $283 forward $113 $-1 #
coedge $-1 $284 $115 $281 $285 forward $73 $-1 #
coedge $-1 $115 $284 $286 $287 forward $73 $-1 #
coedge $-1 $194 $193 $115 $187 reversed $195 $-1 #
edge $-1 $288 -24.933527889428877 $289 24.933527889428877 $186 $290 forward 7 unknown #
coedge $-1 $117 $116 $291 $292 forward $46 $-1 #
coedge $-1 $293 $294 $116 $190 reversed $278 $-1 #
edge $-1 $197 -43.588976714377267 $295 43.588976714377267 $189 $296 forward 7 unknown #
coedge $-1 $183 $297 $117 $192 reversed $113 $-1 #
edge $-1 $298 -43.588976714377267 $196 43.588976714377267 $191 $299 forward 7 unknown #
coedge $-1 $186 $118 $297 $300 forward $195 $-1 #
coedge $-1 $118 $186 $293 $301 reversed $195 $-1 #
loop $-1 $-1 $193 $277 #
vertex $-1 $119 $302 #
vertex $-1 $119 $303 #
straight-curve $-1 43.588976714377267 0 9.1587551006422281 0 1 0 I I #
face $-1 $304 $305 $28 $-1 $306 forward single #
loop $-1 $-1 $307 $120 #
plane-surface $-1 -50.983762346815425 0 7.539796226823146 1 0 0 0 0 -1 forward_v I I I I #
coedge $-1 $308 $123 $209 $309 reversed $77 $-1 #
coedge $-1 $123 $308 $310 $311 reversed $77 $-1 #
edge $-1 $312 -9.1587551006422281 $211 -5.9208373530040639 $123 $313 forward 7 unknown #
coedge $-1 $125 $124 $314 $315 reversed $49 $-1 #
coedge $-1 $316 $317 $125 $207 forward $318 $-1 #
edge $-1 $210 5.9208373530040639 $319 9.1587551006422281 $206 $320 forward 7 unknown #
coedge $-1 $321 $126 $317 $322 forward $121 $-1 #
coedge $-1 $126 $321 $202 $309 forward $121 $-1 #
vertex $-1 $207 $323 #
vertex $-1 $204 $324 #
straight-curve $-1 -43.588976714377267 0 5.9208373530040639 0 1 0 I I #
face $-1 $325 $326 $29 $-1 $327 reversed single #
loop $-1 $-1 $328 $128 #
plane-surface $-1 47.286369530596346 0 5.9208373530040639 0 0 1 1 0 0 forward_v I I I I #
coedge $-1 $329 $330 $132 $221 forward $129 $-1 #
coedge $-1 $331 $131 $330 $332 forward $81 $-1 #
coedge $-1 $131 $331 $333 $334 forward $81 $-1 #
coedge $-1 $133 $132 $131 $220 reversed $52 $-1 #
edge $-1 $335 -24.933527889428877 $336 24.933527889428877 $131 $337 forward 7 unknown #
edge $-1 $336 -9.1587551006422281 $227 -5.9208373530040639 $216 $338 forward 7 unknown #
coedge $-1 $333 $339 $133 $223 forward $340 $-1 #
edge $-1 $226 5.9208373530040639 $335 9.1587551006422281 $222 $341 forward 7 unknown #
coedge $-1 $328 $134 $339 $342 forward $214 $-1 #
coedge $-1 $134 $328 $329 $343 forward $214 $-1 #
vertex $-1 $223 $344 #
vertex $-1 $221 $345 #
straight-curve $-1 43.588976714377267 0 5.9208373530040639 0 -1 0 I I #
face $-1 $-1 $241 $30 $-1 $346 forward single #
loop $-1 $-1 $347 $136 #
plane-surface $-1 0 -24.933527889428877 0 0 1 0 0 0 1 forward_v I I I I #
coedge $-1 $348 $349 $350 $351 reversed $137 $-1 #
coedge $-1 $352 $139 $141 $239 forward $85 $-1 #
coedge $-1 $139 $352 $348 $353 forward $85 $-1 #
coedge $-1 $350 $142 $139 $236 forward $241 $-1 #
edge $-1 $243 7.4703552195956995 $354 15.131589708749825 $235 $355 forward 7 unknown #
coedge $-1 $356 $357 $140 $238 forward $230 $-1 #
edge $-1 $358 -21.975987294764231 $242 -18.868476447949849 $237 $359 forward 7 unknown #
edge $-1 $243 -3.7935702384230843 $358 -1.8481662412032989e-014 $141 $360 forward 7 unknown #
coedge $-1 $142 $350 $356 $361 forward $241 $-1 #
loop $-1 $-1 $350 $229 #
vertex $-1 $238 $362 #
vertex $-1 $143 $363 #
straight-curve $-1 -18.771327683768462 -48.172763683307082 9.1587551006422281 0 1 0 I I #
coedge $-1 $245 $245 $-1 $364 reversed $146 $-1 #
edge $-1 $365 0 $365 6.2831853071796004 $147 $366 forward 7 unknown #
vertex $-1 $150 $367 #
ellipse-curve $-1 -24.24363803316427 -23.845576662261479 7.6049996772350363 0 -0.81915205242281985 0.57357642473473569 0.5 0 0 1 I I #
coedge $-1 $249 $249 $-1 $368 reversed $153 $-1 #
edge $-1 $369 0 $369 6.2831853071796004 $154 $370 forward 7 unknown #
vertex $-1 $157 $371 #
ellipse-curve $-1 -20.960251823526789 -23.845576662261479 7.6049996772350363 0 -0.81915205242281985 0.57357642473473569 0.5 0 0 1 I I #
face $-1 $-1 $265 $33 $-1 $372 forward single #
loop $-1 $-1 $373 $158 #
plane-surface $-1 0 24.933527889428877 0 0 -1 0 0 0 -1 forward_v I I I I #
coedge $-1 $374 $375 $376 $377 reversed $159 $-1 #
coedge $-1 $378 $161 $163 $263 forward $99 $-1 #
coedge $-1 $161 $378 $374 $379 forward $99 $-1 #
coedge $-1 $376 $164 $161 $260 forward $265 $-1 #
edge $-1 $267 -15.131589708749825 $380 -7.4703552195956995 $259 $381 forward 7 unknown #
coedge $-1 $382 $383 $162 $262 forward $254 $-1 #
edge $-1 $384 -42.400337839531524 $266 -39.292826992717139 $261 $385 forward 7 unknown #
edge $-1 $267 46.073485540434682 $384 49.867055778857754 $163 $386 forward 7 unknown #
coedge $-1 $164 $376 $382 $387 forward $265 $-1 #
loop $-1 $-1 $376 $253 #
vertex $-1 $262 $388 #
vertex $-1 $165 $389 #
straight-curve $-1 -26.432562172922587 33.871479900464642 9.1587551006422245 0 -1 0 I I #
coedge $-1 $269 $269 $-1 $390 reversed $168 $-1 #
edge $-1 $391 0 $391 6.2831853071796004 $169 $392 forward 7 unknown #
vertex $-1 $172 $393 #
ellipse-curve $-1 -24.24363803316427 23.845576662261472 7.604999677235039 0 0.81915205242281985 0.57357642473473569 0.5 0 0 1 I I #
coedge $-1 $273 $273 $-1 $394 reversed $175 $-1 #
edge $-1 $395 0 $395 6.2831853071796004 $176 $396 forward 7 unknown #
vertex $-1 $179 $397 #
ellipse-curve $-1 -20.960251823526789 23.845576662261472 7.604999677235039 0 0.81915205242281985 0.57357642473473569 0.5 0 0 1 I I #
face $-1 $-1 $195 $27 $-1 $398 reversed single #
loop $-1 $-1 $293 $180 #
plane-surface $-1 0 24.933527889428877 0 0 -1 0 0 0 -1 forward_v I I I I #
coedge $-1 $399 $291 $294 $400 forward $181 $-1 #
coedge $-1 $297 $183 $184 $285 reversed $113 $-1 #
coedge $-1 $291 $399 $183 $283 reversed $181 $-1 #
edge $-1 $298 -9.1587551006422281 $401 9.1587551006422281 $282 $402 forward 7 unknown #
coedge $-1 $185 $184 $399 $403 forward $73 $-1 #
edge $-1 $289 -43.588976714377267 $401 43.588976714377267 $281 $404 forward 7 unknown #
coedge $-1 $294 $293 $185 $287 reversed $278 $-1 #
edge $-1 $405 -43.588976714377267 $288 43.588976714377267 $286 $406 forward 7 unknown #
vertex $-1 $187 $407 #
vertex $-1 $300 $408 #
straight-curve $-1 43.588976714377267 0 -9.1587551006422281 0 -1 0 I I #
coedge $-1 $280 $282 $188 $292 reversed $181 $-1 #
edge $-1 $295 -24.933527889428877 $298 24.933527889428877 $291 $409 forward 7 unknown #
coedge $-1 $286 $189 $194 $301 forward $278 $-1 #
coedge $-1 $189 $286 $280 $400 reversed $278 $-1 #
vertex $-1 $190 $410 #
straight-curve $-1 0 24.933527889428877 9.1587551006422281 -1 0 0 I I #
coedge $-1 $191 $281 $193 $300 reversed $113 $-1 #
vertex $-1 $292 $411 #
straight-curve $-1 0 -24.933527889428877 9.1587551006422281 1 0 0 I I #
edge $-1 $196 -9.1587551006422281 $289 9.1587551006422281 $193 $412 forward 7 unknown #
edge $-1 $197 -9.1587551006422281 $288 9.1587551006422281 $194 $413 forward 7 unknown #
point $-1 43.588976714377267 -24.933527889428877 9.1587551006422281 #
point $-1 43.588976714377267 24.933527889428877 9.1587551006422281 #
face $-1 $-1 $318 $28 $-1 $414 reversed single #
loop $-1 $-1 $314 $199 #
plane-surface $-1 0 0 9.1587551006422281 0 0 1 1 0 0 forward_v I I I I #
coedge $-1 $415 $416 $308 $417 forward $200 $-1 #
coedge $-1 $203 $202 $307 $417 reversed $77 $-1 #
edge $-1 $418 -3.6973928162190788 $211 3.6973928162190788 $202 $419 forward 7 unknown #
coedge $-1 $420 $314 $203 $311 forward $305 $-1 #
edge $-1 $312 43.588976714377267 $421 50.983762346815425 $203 $422 forward 7 unknown #
vertex $-1 $311 $423 #
straight-curve $-1 -43.588976714377267 24.933527889428877 0 0 0 -1 I I #
coedge $-1 $310 $424 $205 $315 forward $305 $-1 #
edge $-1 $319 -24.933527889428877 $312 24.933527889428877 $314 $425 forward 7 unknown #
coedge $-1 $426 $206 $424 $427 reversed $318 $-1 #
coedge $-1 $206 $426 $208 $322 reversed $318 $-1 #
loop $-1 $-1 $206 $304 #
vertex $-1 $207 $428 #
straight-curve $-1 -43.588976714377267 -24.933527889428877 0 0 0 1 I I #
coedge $-1 $209 $208 $415 $429 forward $121 $-1 #
edge $-1 $210 -3.6973928162190788 $430 3.6973928162190788 $317 $431 forward 7 unknown #
point $-1 -43.588976714377267 -24.933527889428877 5.9208373530040639 #
point $-1 -43.588976714377267 24.933527889428877 5.9208373530040639 #
face $-1 $-1 $340 $29 $-1 $432 reversed single #
loop $-1 $-1 $433 $213 #
plane-surface $-1 50.983762346815425 0 7.539796226823146 -1 0 0 0 0 1 forward_v I I I I #
coedge $-1 $225 $224 $434 $435 forward $214 $-1 #
coedge $-1 $436 $216 $225 $343 reversed $129 $-1 #
coedge $-1 $216 $436 $217 $332 reversed $129 $-1 #
coedge $-1 $218 $217 $437 $438 forward $81 $-1 #
edge $-1 $336 -3.6973928162190788 $439 3.6973928162190788 $330 $440 forward 7 unknown #
coedge $-1 $441 $222 $218 $334 reversed $340 $-1 #
edge $-1 $442 -50.983762346815425 $335 -43.588976714377267 $333 $443 forward 7 unknown #
vertex $-1 $223 $444 #
vertex $-1 $332 $445 #
straight-curve $-1 43.588976714377267 0 9.1587551006422281 0 -1 0 I I #
straight-curve $-1 43.588976714377267 -24.933527889428877 0 0 0 -1 I I #
coedge $-1 $222 $441 $224 $342 reversed $340 $-1 #
loop $-1 $-1 $222 $325 #
straight-curve $-1 43.588976714377267 24.933527889428877 0 0 0 1 I I #
edge $-1 $226 -3.6973928162190788 $446 3.6973928162190788 $339 $447 forward 7 unknown #
edge $-1 $448 -3.6973928162190788 $227 3.6973928162190788 $329 $449 forward 7 unknown #
point $-1 43.588976714377267 24.933527889428877 5.9208373530040639 #
point $-1 43.588976714377267 -24.933527889428877 5.9208373530040639 #
plane-surface $-1 0 0 9.1587551006422281 0 0 1 1 0 0 forward_v I I I I #
coedge $-1 $357 $356 $349 $450 forward $230 $-1 #
coedge $-1 $349 $232 $234 $353 reversed $137 $-1 #
coedge $-1 $232 $348 $347 $450 reversed $137 $-1 #
coedge $-1 $240 $235 $232 $351 forward $241 $-1 #
edge $-1 $354 -25.415138248213005 $451 -23.239235793878205 $350 $452 forward 7 unknown #
coedge $-1 $234 $233 $357 $453 reversed $85 $-1 #
edge $-1 $454 1.8481662412032989e-014 $354 3.7935702384230843 $348 $455 forward 7 unknown #
vertex $-1 $236 $456 #
straight-curve $-1 -11.300972464172762 -22.757625435094077 9.1587551006422281 -1 0 0 I I #
coedge $-1 $347 $237 $240 $361 reversed $230 $-1 #
coedge $-1 $237 $347 $352 $453 forward $230 $-1 #
vertex $-1 $238 $457 #
straight-curve $-1 -18.771327683768462 -24.933527889428881 28.027231548592077 0 0 1 I I #
straight-curve $-1 -18.771327683768462 -24.933527889428888 6.0512442538278322 0 -0.57357642473473569 -0.81915205242281985 I I #
edge $-1 $451 -73.718931703518933 $242 -66.057697214364808 $356 $458 forward 7 unknown #
point $-1 -18.771327683768462 -24.933527889428877 9.1587551006422281 #
point $-1 -18.771327683768462 -22.757625435094077 9.1587551006422281 #
edge $-1 $459 1 $459 0 $245 $-1 forward 7 unknown #
vertex $-1 $246 $460 #
ellipse-curve $-1 -24.24363803316427 -22.580837092446629 6.7194195233071445 0 -0.81915205242281985 0.57357642473473569 0.5 0 0 1 I I #
point $-1 -23.74363803316427 -23.845576662261468 7.6049996772350292 #
edge $-1 $461 1 $461 0 $249 $-1 forward 7 unknown #
vertex $-1 $250 $462 #
ellipse-curve $-1 -20.960251823526789 -22.580837092446629 6.7194195233071445 0 -0.81915205242281985 0.57357642473473569 0.5 0 0 1 I I #
point $-1 -20.460251823526789 -23.845576662261468 7.6049996772350292 #
plane-surface $-1 0 0 9.1587551006422281 0 0 1 1 0 0 forward_v I I I I #
coedge $-1 $383 $382 $375 $463 forward $254 $-1 #
coedge $-1 $375 $256 $258 $379 reversed $159 $-1 #
coedge $-1 $256 $374 $373 $463 reversed $159 $-1 #
coedge $-1 $264 $259 $256 $377 forward $265 $-1 #
edge $-1 $380 -11.113854465370572 $464 -8.9379520110357653 $376 $465 forward 7 unknown #
coedge $-1 $258 $257 $383 $466 reversed $99 $-1 #
edge $-1 $467 -49.867055778857754 $380 -46.073485540434682 $374 $468 forward 7 unknown #
vertex $-1 $260 $469 #
straight-curve $-1 -11.300972464172762 22.757625435094074 9.1587551006422245 1 0 0 I I #
coedge $-1 $373 $261 $264 $387 reversed $254 $-1 #
coedge $-1 $261 $373 $378 $466 forward $254 $-1 #
vertex $-1 $262 $470 #
straight-curve $-1 -26.432562172922587 24.933527889428877 48.451582093359363 0 0 1 I I #
straight-curve $-1 -26.432562172922587 -3.6690396762559914 46.899945343362404 0 0.57357642473473569 -0.81915205242281985 I I #
edge $-1 $464 18.771327683768462 $266 26.432562172922587 $382 $471 forward 7 unknown #
point $-1 -26.432562172922587 24.933527889428877 9.1587551006422281 #
point $-1 -26.432562172922587 22.75762543509407 9.1587551006422245 #
edge $-1 $472 1 $472 0 $269 $-1 forward 7 unknown #
vertex $-1 $270 $473 #
ellipse-curve $-1 -24.24363803316427 22.580837092446625 6.7194195233071481 0 0.81915205242281985 0.57357642473473569 0.5 0 0 1 I I #
point $-1 -23.74363803316427 23.845576662261465 7.6049996772350328 #
edge $-1 $474 1 $474 0 $273 $-1 forward 7 unknown #
vertex $-1 $274 $475 #
ellipse-curve $-1 -20.960251823526789 22.580837092446625 6.7194195233071481 0 0.81915205242281985 0.57357642473473569 0.5 0 0 1 I I #
point $-1 -20.460251823526789 23.845576662261465 7.6049996772350328 #
plane-surface $-1 43.588976714377267 0 0 -1 0 0 0 0 1 forward_v I I I I #
coedge $-1 $282 $280 $284 $403 reversed $181 $-1 #
edge $-1 $295 -9.1587551006422281 $405 9.1587551006422281 $294 $476 forward 7 unknown #
vertex $-1 $403 $477 #
straight-curve $-1 -43.588976714377267 -24.933527889428877 0 0 0 -1 I I #
edge $-1 $401 -24.933527889428877 $405 24.933527889428877 $399 $478 forward 7 unknown #
straight-curve $-1 0 -24.933527889428877 -9.1587551006422281 -1 0 0 I I #
vertex $-1 $287 $479 #
straight-curve $-1 0 24.933527889428877 -9.1587551006422281 1 0 0 I I #
point $-1 43.588976714377267 24.933527889428877 -9.1587551006422281 #
point $-1 43.588976714377267 -24.933527889428877 -9.1587551006422281 #
straight-curve $-1 -43.588976714377267 0 9.1587551006422281 0 -1 0 I I #
point $-1 -43.588976714377267 24.933527889428877 9.1587551006422281 #
point $-1 -43.588976714377267 -24.933527889428877 9.1587551006422281 #
straight-curve $-1 43.588976714377267 -24.933527889428877 0 0 0 -1 I I #
straight-curve $-1 43.588976714377267 24.933527889428877 0 0 0 -1 I I #
plane-surface $-1 0 -24.933527889428877 0 0 1 0 0 0 1 forward_v I I I I #
coedge $-1 $480 $307 $321 $429 reversed $200 $-1 #
coedge $-1 $307 $480 $420 $481 reversed $200 $-1 #
edge $-1 $421 -1.6189588738190821 $418 1.6189588738190821 $308 $482 forward 7 unknown #
vertex $-1 $309 $483 #
straight-curve $-1 -47.286369530596346 24.933527889428877 5.9208373530040639 1 0 0 I I #
coedge $-1 $424 $310 $416 $481 forward $305 $-1 #
vertex $-1 $311 $484 #
straight-curve $-1 0 24.933527889428877 9.1587551006422281 -1 0 0 I I #
point $-1 -43.588976714377267 24.933527889428877 9.1587551006422281 #
coedge $-1 $314 $420 $316 $427 forward $305 $-1 #
straight-curve $-1 -43.588976714377267 0 9.1587551006422281 0 1 0 I I #
coedge $-1 $317 $316 $480 $485 forward $318 $-1 #
edge $-1 $486 -50.983762346815425 $319 -43.588976714377267 $316 $487 forward 7 unknown #
point $-1 -43.588976714377267 -24.933527889428877 9.1587551006422281 #
edge $-1 $430 -24.933527889428877 $418 24.933527889428877 $415 $488 forward 7 unknown #
vertex $-1 $429 $489 #
straight-curve $-1 -47.286369530596346 -24.933527889428877 5.9208373530040639 -1 0 0 I I #
plane-surface $-1 0 24.933527889428877 0 0 -1 0 0 0 -1 forward_v I I I I #
coedge $-1 $434 $437 $436 $490 forward $326 $-1 #
coedge $-1 $491 $433 $328 $435 reversed $326 $-1 #
edge $-1 $446 -24.933527889428877 $448 24.933527889428877 $434 $492 forward 7 unknown #
coedge $-1 $330 $329 $433 $490 reversed $129 $-1 #
coedge $-1 $433 $491 $331 $438 reversed $326 $-1 #
edge $-1 $439 -24.933527889428877 $442 24.933527889428877 $437 $493 forward 7 unknown #
vertex $-1 $438 $494 #
straight-curve $-1 47.286369530596346 -24.933527889428877 9.1587551006422281 1 0 0 I I #
coedge $-1 $339 $333 $491 $495 forward $340 $-1 #
vertex $-1 $438 $496 #
straight-curve $-1 0 24.933527889428877 9.1587551006422281 -1 0 0 I I #
point $-1 43.588976714377267 24.933527889428877 9.1587551006422281 #
point $-1 43.588976714377267 -24.933527889428877 9.1587551006422281 #
vertex $-1 $435 $497 #
straight-curve $-1 47.286369530596346 24.933527889428877 5.9208373530040639 1 0 0 I I #
vertex $-1 $490 $498 #
straight-curve $-1 47.286369530596346 -24.933527889428877 5.9208373530040639 -1 0 0 I I #
edge $-1 $451 18.868476447949849 $454 21.975987294764231 $347 $499 forward 7 unknown #
vertex $-1 $361 $500 #
straight-curve $-1 -26.432562172922587 -48.172763683307082 9.1587551006422281 0 -1 0 I I #
edge $-1 $454 -15.131589708749825 $358 -7.4703552195956995 $357 $501 forward 7 unknown #
vertex $-1 $453 $502 #
straight-curve $-1 -26.432562172922587 -24.933527889428888 6.0512442538278322 0 0.57357642473473569 0.81915205242281985 I I #
point $-1 -26.432562172922587 -22.757625435094077 9.1587551006422281 #
point $-1 -18.771327683768462 -24.933527889428877 6.0512442538278473 #
straight-curve $-1 47.286369530596346 -24.933527889428877 9.1587551006422281 1 0 0 I I #
vertex $-1 $364 $503 #
point $-1 -23.74363803316427 -22.580837092446629 6.7194195233071445 #
vertex $-1 $368 $504 #
point $-1 -20.460251823526789 -22.580837092446629 6.7194195233071445 #
edge $-1 $464 39.292826992717139 $467 42.400337839531524 $373 $505 forward 7 unknown #
vertex $-1 $387 $506 #
straight-curve $-1 -18.771327683768462 33.871479900464642 9.1587551006422245 0 1 0 I I #
edge $-1 $467 7.4703552195956995 $384 15.131589708749825 $383 $507 forward 7 unknown #
vertex $-1 $466 $508 #
straight-curve $-1 -18.771327683768462 -3.6690396762559914 46.899945343362404 0 -0.57357642473473569 0.81915205242281985 I I #
point $-1 -18.771327683768462 22.75762543509407 9.1587551006422245 #
point $-1 -26.432562172922587 24.933527889428877 6.0512442538278393 #
straight-curve $-1 0 24.933527889428877 9.1587551006422281 -1 0 0 I I #
vertex $-1 $390 $509 #
point $-1 -23.74363803316427 22.580837092446625 6.7194195233071481 #
vertex $-1 $394 $510 #
point $-1 -20.460251823526789 22.580837092446625 6.7194195233071481 #
straight-curve $-1 -43.588976714377267 24.933527889428877 0 0 0 -1 I I #
point $-1 -43.588976714377267 -24.933527889428877 -9.1587551006422281 #
straight-curve $-1 -43.588976714377267 0 -9.1587551006422281 0 1 0 I I #
point $-1 -43.588976714377267 24.933527889428877 -9.1587551006422281 #
coedge $-1 $416 $415 $426 $485 reversed $200 $-1 #
edge $-1 $421 -24.933527889428877 $486 24.933527889428877 $416 $511 forward 7 unknown #
straight-curve $-1 -50.983762346815425 24.933527889428877 7.539796226823146 0 0 -1 I I #
point $-1 -50.983762346815425 24.933527889428877 5.9208373530040639 #
point $-1 -50.983762346815425 24.933527889428877 9.1587551006422281 #
edge $-1 $486 -1.6189588738190821 $430 1.6189588738190821 $480 $512 forward 7 unknown #
vertex $-1 $481 $513 #
straight-curve $-1 0 -24.933527889428877 9.1587551006422281 1 0 0 I I #
straight-curve $-1 -50.983762346815425 0 5.9208373530040639 0 1 0 I I #
point $-1 -50.983762346815425 -24.933527889428877 5.9208373530040639 #
edge $-1 $439 -1.6189588738190821 $448 1.6189588738190821 $433 $514 forward 7 unknown #
coedge $-1 $437 $434 $441 $495 reversed $326 $-1 #
straight-curve $-1 50.983762346815425 0 5.9208373530040639 0 -1 0 I I #
straight-curve $-1 50.983762346815425 0 9.1587551006422281 0 1 0 I I #
point $-1 50.983762346815425 -24.933527889428877 9.1587551006422281 #
edge $-1 $442 -1.6189588738190821 $446 1.6189588738190821 $491 $515 forward 7 unknown #
point $-1 50.983762346815425 24.933527889428877 9.1587551006422281 #
point $-1 50.983762346815425 24.933527889428877 5.9208373530040639 #
point $-1 50.983762346815425 -24.933527889428877 5.9208373530040639 #
straight-curve $-1 -26.432562172922587 -24.933527889428881 28.027231548592077 0 0 -1 I I #
point $-1 -26.432562172922587 -24.933527889428877 9.1587551006422281 #
straight-curve $-1 -11.300972464172762 -24.933527889428877 6.0512442538278481 1 0 0 I I #
point $-1 -26.432562172922587 -24.933527889428877 6.0512442538278473 #
point $-1 -24.24363803316427 -22.171261066235218 6.4326313109397768 #
point $-1 -20.960251823526789 -22.171261066235218 6.4326313109397768 #
straight-curve $-1 -18.771327683768462 24.933527889428877 48.451582093359363 0 0 -1 I I #
point $-1 -18.771327683768462 24.933527889428877 9.1587551006422281 #
straight-curve $-1 -11.300972464172762 24.933527889428881 6.0512442538278393 -1 0 0 I I #
point $-1 -18.771327683768462 24.933527889428877 6.0512442538278393 #
point $-1 -24.24363803316427 22.171261066235214 6.4326313109397804 #
point $-1 -20.960251823526789 22.171261066235214 6.4326313109397804 #
straight-curve $-1 -50.983762346815425 0 9.1587551006422281 0 -1 0 I I #
straight-curve $-1 -50.983762346815425 -24.933527889428877 7.539796226823146 0 0 -1 I I #
point $-1 -50.983762346815425 -24.933527889428877 9.1587551006422281 #
straight-curve $-1 50.983762346815425 -24.933527889428877 7.539796226823146 0 0 -1 I I #
straight-curve $-1 50.983762346815425 24.933527889428877 7.539796226823146 0 0 -1 I I #
End-of-ACIS-data 