500 0 11 0           
7 Unknown 11 ACIS 5.0 NT 24 Fri Mar 26 00:41:11 1999 
-1 9.9999999999999995e-007 1e-010 
body $-1 $11 $-1 $12 #
body $-1 $13 $-1 $14 #
body $-1 $15 $-1 $16 #
body $-1 $17 $-1 $18 #
body $-1 $19 $-1 $20 #
body $-1 $21 $-1 $22 #
body $-1 $23 $-1 $24 #
body $-1 $25 $-1 $26 #
body $-1 $27 $-1 $28 #
body $-1 $29 $-1 $30 #
body $-1 $31 $-1 $32 #
lump $-1 $-1 $33 $0 #
transform $-1 1 0 0 0 1 0 0 0 1 54.685506759849851 24.73106022740901 11.268040728753933 1 rotate no_reflect no_shear #
lump $-1 $-1 $34 $1 #
transform $-1 1 0 0 0 1 0 0 0 1 54.685506759849851 24.73106022740901 11.268040728753933 1 rotate no_reflect no_shear #
lump $-1 $-1 $35 $2 #
transform $-1 1 0 0 0 1 0 0 0 1 54.685506759849851 24.73106022740901 11.268040728753933 1 rotate no_reflect no_shear #
lump $-1 $-1 $36 $3 #
transform $-1 1 0 0 0 1 0 0 0 1 54.685506759849851 24.73106022740901 11.268040728753933 1 rotate no_reflect no_shear #
lump $-1 $-1 $37 $4 #
transform $-1 1 0 0 0 1 0 0 0 1 54.685506759849851 24.73106022740901 11.268040728753933 1 rotate no_reflect no_shear #
lump $-1 $-1 $38 $5 #
transform $-1 1 0 0 0 1 0 0 0 1 54.685506759849851 24.73106022740901 11.268040728753933 1 rotate no_reflect no_shear #
lump $-1 $-1 $39 $6 #
transform $-1 1 0 0 0 1 0 0 0 1 54.685506759849851 24.73106022740901 11.268040728753933 1 rotate no_reflect no_shear #
lump $-1 $-1 $40 $7 #
transform $-1 1 0 0 0 1 0 0 0 1 54.685506759849851 24.73106022740901 11.268040728753933 1 rotate no_reflect no_shear #
lump $-1 $-1 $41 $8 #
transform $-1 1 0 0 0 1 0 0 0 1 54.685506759849851 24.73106022740901 11.268040728753933 1 rotate no_reflect no_shear #
lump $-1 $-1 $42 $9 #
transform $-1 1 0 0 0 1 0 0 0 1 54.685506759849851 24.73106022740901 11.268040728753933 1 rotate no_reflect no_shear #
lump $-1 $-1 $43 $10 #
transform $-1 1 0 0 0 1 0 0 0 1 54.685506759849851 24.73106022740901 11.268040728753933 1 rotate no_reflect no_shear #
shell $-1 $-1 $-1 $44 $-1 $11 #
shell $-1 $-1 $-1 $45 $-1 $13 #
shell $-1 $-1 $-1 $46 $-1 $15 #
shell $-1 $-1 $-1 $47 $-1 $17 #
shell $-1 $-1 $-1 $48 $-1 $19 #
shell $-1 $-1 $-1 $49 $-1 $21 #
shell $-1 $-1 $-1 $50 $-1 $23 #
shell $-1 $-1 $-1 $51 $-1 $25 #
shell $-1 $-1 $-1 $52 $-1 $27 #
shell $-1 $-1 $-1 $53 $-1 $29 #
shell $-1 $-1 $-1 $54 $-1 $31 #
face $-1 $55 $56 $33 $-1 $57 forward single #
face $-1 $58 $59 $34 $-1 $60 reversed single #
face $-1 $61 $62 $35 $-1 $63 reversed single #
face $-1 $64 $65 $36 $-1 $66 reversed single #
face $-1 $67 $68 $37 $-1 $69 forward single #
face $-1 $70 $71 $38 $-1 $72 forward single #
face $-1 $73 $74 $39 $-1 $75 forward single #
face $-1 $76 $77 $40 $-1 $78 reversed single #
face $-1 $79 $80 $41 $-1 $81 forward single #
face $-1 $82 $83 $42 $-1 $84 forward single #
face $-1 $85 $86 $43 $-1 $87 forward single #
face $-1 $88 $89 $33 $-1 $90 reversed single #
loop $-1 $-1 $91 $44 #
plane-surface $-1 0 0 11.268040728753933 0 0 1 1 0 0 forward_v I I I I #
face $-1 $92 $93 $34 $-1 $94 reversed single #
loop $-1 $-1 $95 $45 #
plane-surface $-1 -48.077356416727099 0 8.2680407287539328 0 0 1 1 0 0 forward_v I I I I #
face $-1 $96 $97 $35 $-1 $98 reversed single #
loop $-1 $-1 $99 $46 #
plane-surface $-1 48.077356416727106 0 8.2680407287539328 0 0 1 1 0 0 forward_v I I I I #
face $-1 $100 $101 $36 $-1 $102 reversed single #
loop $-1 $-1 $103 $47 #
plane-surface $-1 -30.168730352549002 -9.6282153451881101 43.146135715471672 0 0.71933980857756763 0.69465836192734942 1 0 0 forward_v I I I I #
face $-1 $104 $105 $37 $-1 $106 forward single #
loop $-1 $107 $108 $48 #
cone-surface $-1 -36.949015785182212 21.516163684778572 8.0386109364453571 0 -0.71933980857756763 -0.69465836192734942 1 0 0 1 I I 0 1 1 forward I I I I #
face $-1 $109 $110 $38 $-1 $111 forward single #
loop $-1 $112 $113 $49 #
cone-surface $-1 -30.168730352549005 21.516163684778572 8.0386109364453571 0 -0.71933980857756763 -0.69465836192734942 1 0 0 1 I I 0 1 1 forward I I I I #
face $-1 $114 $115 $39 $-1 $116 forward single #
loop $-1 $117 $118 $50 #
cone-surface $-1 -23.388444919915798 21.516163684778572 8.0386109364453571 0 -0.71933980857756763 -0.69465836192734942 1 0 0 1 I I 0 1 1 forward I I I I #
face $-1 $119 $120 $40 $-1 $121 reversed single #
loop $-1 $-1 $122 $51 #
plane-surface $-1 -18.868254631493656 -103.40598415660435 83.541552549590875 -1 0 0 0 -0.71933980857756763 0.69465836192734942 forward_v I I I I #
face $-1 $123 $124 $41 $-1 $125 forward single #
loop $-1 $126 $127 $52 #
cone-surface $-1 -36.949015785182212 -21.516163684778565 8.0386109364453642 0 0.71933980857756763 -0.69465836192734942 1 0 0 1 I I 0 1 1 forward I I I I #
face $-1 $128 $129 $42 $-1 $130 forward single #
loop $-1 $131 $132 $53 #
cone-surface $-1 -30.168730352549005 -21.516163684778565 8.0386109364453642 0 0.71933980857756763 -0.69465836192734942 1 0 0 1 I I 0 1 1 forward I I I I #
face $-1 $133 $134 $43 $-1 $135 forward single #
loop $-1 $136 $137 $54 #
cone-surface $-1 -23.388444919915798 -21.516163684778565 8.0386109364453642 0 0.71933980857756763 -0.69465836192734942 1 0 0 1 I I 0 1 1 forward I I I I #
face $-1 $138 $139 $33 $-1 $140 reversed single #
loop $-1 $-1 $141 $55 #
plane-surface $-1 0 0 -11.268040728753933 0 0 1 1 0 0 forward_v I I I I #
coedge $-1 $142 $143 $144 $145 forward $56 $-1 #
face $-1 $146 $147 $34 $-1 $148 reversed single #
loop $-1 $-1 $149 $58 #
plane-surface $-1 -41.469206073604347 0 9.7680407287539328 -1 0 0 0 0 1 forward_v I I I I #
coedge $-1 $150 $151 $152 $153 forward $59 $-1 #
face $-1 $154 $155 $35 $-1 $156 forward single #
loop $-1 $-1 $157 $61 #
plane-surface $-1 41.469206073604354 0 9.7680407287539328 1 0 0 0 0 -1 forward_v I I I I #
coedge $-1 $158 $159 $160 $161 reversed $62 $-1 #
face $-1 $162 $163 $36 $-1 $164 reversed single #
loop $-1 $-1 $165 $64 #
plane-surface $-1 -18.868254631493656 69.046708584007234 119.12162480940026 -1 0 0 0 0.71933980857756763 0.69465836192734942 forward_v I I I I #
coedge $-1 $166 $167 $168 $169 reversed $65 $-1 #
face $-1 $-1 $170 $37 $-1 $171 forward single #
loop $-1 $172 $173 $67 #
cone-surface $-1 -36.949015785182212 19.72907614404086 6.3128405997189265 0 -0.71933980857756763 -0.69465836192734942 0.5 0 0 1 I I -0.70710678118654746 0.70710678118654746 0.5 forward I I I I #
loop $-1 $-1 $174 $48 #
coedge $-1 $108 $108 $175 $176 reversed $68 $-1 #
face $-1 $-1 $177 $38 $-1 $178 forward single #
loop $-1 $179 $180 $70 #
cone-surface $-1 -30.168730352549005 19.72907614404086 6.3128405997189265 0 -0.71933980857756763 -0.69465836192734942 0.5 0 0 1 I I -0.70710678118654746 0.70710678118654746 0.5 forward I I I I #
loop $-1 $-1 $181 $49 #
coedge $-1 $113 $113 $182 $183 reversed $71 $-1 #
face $-1 $-1 $184 $39 $-1 $185 forward single #
loop $-1 $186 $187 $73 #
cone-surface $-1 -23.388444919915798 19.72907614404086 6.3128405997189265 0 -0.71933980857756763 -0.69465836192734942 0.5 0 0 1 I I -0.70710678118654746 0.70710678118654746 0.5 forward I I I I #
loop $-1 $-1 $188 $50 #
coedge $-1 $118 $118 $189 $190 reversed $74 $-1 #
face $-1 $191 $192 $40 $-1 $193 forward single #
loop $-1 $-1 $194 $76 #
plane-surface $-1 -30.168730352549002 -24.731060227409003 7.5660634556622881 0 -0.71933980857756763 0.69465836192734942 1 0 0 forward_v I I I I #
coedge $-1 $195 $196 $197 $198 reversed $77 $-1 #
face $-1 $-1 $199 $41 $-1 $200 forward single #
loop $-1 $201 $202 $79 #
cone-surface $-1 -36.949015785182212 -19.729076144040853 6.3128405997189336 0 0.71933980857756763 -0.69465836192734942 0.5 0 0 1 I I -0.70710678118654746 0.70710678118654746 0.5 forward I I I I #
loop $-1 $-1 $203 $52 #
coedge $-1 $127 $127 $204 $205 reversed $80 $-1 #
face $-1 $-1 $206 $42 $-1 $207 forward single #
loop $-1 $208 $209 $82 #
cone-surface $-1 -30.168730352549005 -19.729076144040853 6.3128405997189336 0 0.71933980857756763 -0.69465836192734942 0.5 0 0 1 I I -0.70710678118654746 0.70710678118654746 0.5 forward I I I I #
loop $-1 $-1 $210 $53 #
coedge $-1 $132 $132 $211 $212 reversed $83 $-1 #
face $-1 $-1 $213 $43 $-1 $214 forward single #
loop $-1 $215 $216 $85 #
cone-surface $-1 -23.388444919915798 -19.729076144040853 6.3128405997189336 0 0.71933980857756763 -0.69465836192734942 0.5 0 0 1 I I -0.70710678118654746 0.70710678118654746 0.5 forward I I I I #
loop $-1 $-1 $217 $54 #
coedge $-1 $137 $137 $218 $219 reversed $86 $-1 #
face $-1 $220 $221 $33 $-1 $222 reversed single #
loop $-1 $-1 $223 $88 #
plane-surface $-1 0 -24.73106022740901 0 0 1 0 0 0 1 forward_v I I I I #
coedge $-1 $224 $225 $226 $227 forward $89 $-1 #
coedge $-1 $228 $91 $229 $230 forward $56 $-1 #
coedge $-1 $91 $228 $231 $232 forward $56 $-1 #
coedge $-1 $233 $234 $91 $145 reversed $235 $-1 #
edge $-1 $236 -24.73106022740901 $237 24.73106022740901 $144 $238 forward 7 unknown #
face $-1 $239 $240 $34 $-1 $241 reversed single #
loop $-1 $-1 $242 $92 #
plane-surface $-1 0 24.73106022740901 0 0 -1 0 0 0 -1 forward_v I I I I #
coedge $-1 $152 $243 $244 $245 reversed $93 $-1 #
coedge $-1 $246 $95 $247 $248 reversed $59 $-1 #
coedge $-1 $95 $246 $249 $250 reversed $59 $-1 #
coedge $-1 $251 $149 $95 $153 reversed $93 $-1 #
edge $-1 $252 -24.73106022740901 $253 24.73106022740901 $152 $254 forward 7 unknown #
face $-1 $255 $256 $35 $-1 $257 reversed single #
loop $-1 $-1 $258 $96 #
plane-surface $-1 0 0 11.268040728753933 0 0 1 1 0 0 forward_v I I I I #
coedge $-1 $259 $260 $261 $262 reversed $97 $-1 #
coedge $-1 $263 $99 $264 $265 reversed $62 $-1 #
coedge $-1 $99 $263 $266 $267 reversed $62 $-1 #
coedge $-1 $268 $269 $99 $161 forward $270 $-1 #
edge $-1 $271 -24.73106022740901 $272 24.73106022740901 $160 $273 forward 7 unknown #
face $-1 $274 $275 $36 $-1 $276 forward single #
loop $-1 $-1 $277 $100 #
plane-surface $-1 0 24.73106022740901 0 0 -1 0 0 0 -1 forward_v I I I I #
coedge $-1 $278 $279 $280 $281 reversed $101 $-1 #
coedge $-1 $282 $103 $283 $284 reversed $65 $-1 #
coedge $-1 $103 $282 $278 $285 forward $65 $-1 #
coedge $-1 $280 $286 $103 $169 forward $275 $-1 #
edge $-1 $287 -26.384840897329845 $288 -3.7838894552191551 $168 $289 forward 7 unknown #
loop $-1 $-1 $175 $104 #
plane-surface $-1 -30.168730352549002 -9.6282153451881101 43.146135715471672 0 0.71933980857756763 0.69465836192734942 1 0 0 forward_v I I I I #
loop $-1 $-1 $290 $67 #
coedge $-1 $173 $173 $174 $291 reversed $105 $-1 #
coedge $-1 $174 $174 $173 $291 forward $107 $-1 #
coedge $-1 $175 $175 $108 $176 forward $170 $-1 #
edge $-1 $292 -1.7537222625362957e-016 $292 6.2831853071796004 $175 $293 forward 7 unknown #
loop $-1 $-1 $182 $109 #
plane-surface $-1 -30.168730352549002 -9.6282153451881101 43.146135715471672 0 0.71933980857756763 0.69465836192734942 1 0 0 forward_v I I I I #
loop $-1 $-1 $294 $70 #
coedge $-1 $180 $180 $181 $295 reversed $110 $-1 #
coedge $-1 $181 $181 $180 $295 forward $112 $-1 #
coedge $-1 $182 $182 $113 $183 forward $177 $-1 #
edge $-1 $296 -1.7537222625362957e-016 $296 6.2831853071796004 $182 $297 forward 7 unknown #
loop $-1 $-1 $189 $114 #
plane-surface $-1 -30.168730352549002 -9.6282153451881101 43.146135715471672 0 0.71933980857756763 0.69465836192734942 1 0 0 forward_v I I I I #
loop $-1 $-1 $298 $73 #
coedge $-1 $187 $187 $188 $299 reversed $115 $-1 #
coedge $-1 $188 $188 $187 $299 forward $117 $-1 #
coedge $-1 $189 $189 $118 $190 forward $184 $-1 #
edge $-1 $300 -1.7537222625362957e-016 $300 6.2831853071796004 $189 $301 forward 7 unknown #
face $-1 $302 $303 $40 $-1 $304 forward single #
loop $-1 $-1 $197 $119 #
plane-surface $-1 0 0 11.268040728753933 0 0 1 1 0 0 forward_v I I I I #
coedge $-1 $305 $306 $307 $308 reversed $120 $-1 #
coedge $-1 $196 $122 $309 $310 reversed $77 $-1 #
coedge $-1 $122 $195 $305 $311 reversed $77 $-1 #
coedge $-1 $307 $312 $122 $198 forward $192 $-1 #
edge $-1 $313 26.971931850893164 $314 30.546889663256223 $197 $315 forward 7 unknown #
loop $-1 $-1 $204 $123 #
plane-surface $-1 -30.168730352549002 -24.731060227409003 7.5660634556622881 0 -0.71933980857756763 0.69465836192734942 1 0 0 forward_v I I I I #
loop $-1 $-1 $316 $79 #
coedge $-1 $202 $202 $203 $317 reversed $124 $-1 #
coedge $-1 $203 $203 $202 $317 forward $126 $-1 #
coedge $-1 $204 $204 $127 $205 forward $199 $-1 #
edge $-1 $318 -9.2705973631236988e-016 $318 6.2831853071795996 $204 $319 forward 7 unknown #
loop $-1 $-1 $211 $128 #
plane-surface $-1 -30.168730352549002 -24.731060227409003 7.5660634556622881 0 -0.71933980857756763 0.69465836192734942 1 0 0 forward_v I I I I #
loop $-1 $-1 $320 $82 #
coedge $-1 $209 $209 $210 $321 reversed $129 $-1 #
coedge $-1 $210 $210 $209 $321 forward $131 $-1 #
coedge $-1 $211 $211 $132 $212 forward $206 $-1 #
edge $-1 $322 -9.2705973631236988e-016 $322 6.2831853071795996 $211 $323 forward 7 unknown #
loop $-1 $-1 $218 $133 #
plane-surface $-1 -30.168730352549002 -24.731060227409003 7.5660634556622881 0 -0.71933980857756763 0.69465836192734942 1 0 0 forward_v I I I I #
loop $-1 $-1 $324 $85 #
coedge $-1 $216 $216 $217 $325 reversed $134 $-1 #
coedge $-1 $217 $217 $216 $325 forward $136 $-1 #
coedge $-1 $218 $218 $137 $219 forward $213 $-1 #
edge $-1 $326 -9.2705973631236988e-016 $326 6.2831853071795996 $218 $327 forward 7 unknown #
face $-1 $328 $329 $33 $-1 $330 reversed single #
loop $-1 $-1 $331 $138 #
plane-surface $-1 -54.685506759849851 0 0 1 0 0 0 0 -1 forward_v I I I I #
coedge $-1 $332 $231 $333 $334 forward $139 $-1 #
coedge $-1 $335 $141 $332 $336 forward $89 $-1 #
coedge $-1 $141 $335 $337 $338 forward $89 $-1 #
coedge $-1 $234 $233 $141 $227 reversed $235 $-1 #
edge $-1 $339 -24.73106022740901 $340 24.73106022740901 $226 $341 forward 7 unknown #
coedge $-1 $143 $142 $342 $343 forward $56 $-1 #
coedge $-1 $344 $345 $142 $230 reversed $329 $-1 #
edge $-1 $237 -54.685506759849851 $346 54.685506759849851 $229 $347 forward 7 unknown #
coedge $-1 $223 $348 $143 $232 reversed $139 $-1 #
edge $-1 $349 -54.685506759849851 $236 54.685506759849851 $231 $350 forward 7 unknown #
coedge $-1 $226 $144 $348 $351 forward $235 $-1 #
coedge $-1 $144 $226 $344 $352 reversed $235 $-1 #
loop $-1 $-1 $233 $328 #
vertex $-1 $145 $353 #
vertex $-1 $145 $354 #
straight-curve $-1 54.685506759849851 0 11.268040728753933 0 1 0 I I #
face $-1 $355 $356 $34 $-1 $357 forward single #
loop $-1 $-1 $358 $146 #
plane-surface $-1 -54.685506759849851 0 0 1 0 0 0 0 -1 forward_v I I I I #
coedge $-1 $249 $359 $251 $360 forward $147 $-1 #
coedge $-1 $149 $251 $361 $362 reversed $93 $-1 #
coedge $-1 $363 $247 $149 $245 forward $364 $-1 #
edge $-1 $253 3.3840203643769664 $365 6.3840203643769664 $244 $366 forward 7 unknown #
coedge $-1 $151 $150 $358 $367 reversed $59 $-1 #
coedge $-1 $244 $368 $150 $248 forward $364 $-1 #
edge $-1 $369 -30.646828551486301 $253 -17.430527865240798 $247 $370 forward 7 unknown #
coedge $-1 $371 $242 $151 $250 forward $147 $-1 #
edge $-1 $252 17.430527865240798 $372 30.646828551486301 $249 $373 forward 7 unknown #
coedge $-1 $243 $152 $242 $360 reversed $93 $-1 #
vertex $-1 $250 $374 #
vertex $-1 $248 $375 #
straight-curve $-1 -41.469206073604347 0 8.2680407287539328 0 -1 0 I I #
face $-1 $376 $377 $35 $-1 $378 reversed single #
loop $-1 $-1 $379 $154 #
plane-surface $-1 0 -24.73106022740901 0 0 1 0 0 0 1 forward_v I I I I #
coedge $-1 $380 $381 $260 $382 forward $155 $-1 #
coedge $-1 $383 $157 $263 $384 reversed $97 $-1 #
coedge $-1 $157 $383 $258 $382 reversed $97 $-1 #
coedge $-1 $385 $266 $157 $262 forward $377 $-1 #
edge $-1 $386 3.3840203643769664 $387 6.3840203643769664 $261 $388 forward 7 unknown #
coedge $-1 $159 $158 $259 $384 forward $62 $-1 #
coedge $-1 $389 $379 $158 $265 forward $256 $-1 #
edge $-1 $390 17.430527865240801 $271 30.646828551486305 $264 $391 forward 7 unknown #
coedge $-1 $261 $392 $159 $267 forward $377 $-1 #
edge $-1 $272 -30.646828551486305 $386 -17.430527865240801 $266 $393 forward 7 unknown #
coedge $-1 $394 $160 $392 $395 reversed $270 $-1 #
coedge $-1 $160 $394 $389 $396 forward $270 $-1 #
loop $-1 $-1 $160 $376 #
vertex $-1 $265 $397 #
vertex $-1 $161 $398 #
straight-curve $-1 54.685506759849851 0 8.2680407287539328 0 1 0 I I #
face $-1 $-1 $399 $36 $-1 $400 forward single #
loop $-1 $-1 $280 $162 #
plane-surface $-1 0 0 11.268040728753933 0 0 1 1 0 0 forward_v I I I I #
coedge $-1 $401 $402 $279 $403 forward $163 $-1 #
coedge $-1 $279 $165 $167 $285 reversed $101 $-1 #
coedge $-1 $165 $278 $277 $403 reversed $101 $-1 #
coedge $-1 $404 $168 $165 $281 forward $275 $-1 #
edge $-1 $288 -13.367251876957653 $405 -9.7922940645946071 $280 $406 forward 7 unknown #
coedge $-1 $167 $166 $401 $407 reversed $65 $-1 #
coedge $-1 $408 $409 $166 $284 forward $399 $-1 #
edge $-1 $410 -34.112864075617232 $287 -28.966510114737495 $283 $411 forward 7 unknown #
edge $-1 $412 -49.462120454818006 $288 -44.31576649393827 $278 $413 forward 7 unknown #
coedge $-1 $168 $404 $408 $414 forward $275 $-1 #
vertex $-1 $284 $415 #
vertex $-1 $169 $416 #
straight-curve $-1 -15.084365176274501 21.156102415045964 11.268040728753935 1 0 0 I I #
coedge $-1 $290 $290 $-1 $417 reversed $172 $-1 #
edge $-1 $418 0 $418 6.2831853071796004 $173 $419 forward 7 unknown #
vertex $-1 $176 $420 #
ellipse-curve $-1 -36.949015785182212 22.943581321227494 9.4170520922081042 0 0.71933980857756763 0.69465836192734942 1 0 0 1 I I #
coedge $-1 $294 $294 $-1 $421 reversed $179 $-1 #
edge $-1 $422 0 $422 6.2831853071796004 $180 $423 forward 7 unknown #
vertex $-1 $183 $424 #
ellipse-curve $-1 -30.168730352549005 22.943581321227494 9.4170520922081042 0 0.71933980857756763 0.69465836192734942 1 0 0 1 I I #
coedge $-1 $298 $298 $-1 $425 reversed $186 $-1 #
edge $-1 $426 0 $426 6.2831853071796004 $187 $427 forward 7 unknown #
vertex $-1 $190 $428 #
ellipse-curve $-1 -23.388444919915798 22.943581321227494 9.4170520922081042 0 0.71933980857756763 0.69465836192734942 1 0 0 1 I I #
face $-1 $-1 $429 $40 $-1 $430 reversed single #
loop $-1 $-1 $431 $191 #
plane-surface $-1 -41.469206073604347 0 9.7680407287539328 -1 0 0 0 0 1 forward_v I I I I #
coedge $-1 $432 $194 $196 $311 forward $120 $-1 #
coedge $-1 $194 $432 $431 $433 forward $120 $-1 #
coedge $-1 $434 $197 $194 $308 forward $192 $-1 #
edge $-1 $314 3.7838894552191551 $435 26.384840897329845 $307 $436 forward 7 unknown #
coedge $-1 $437 $438 $195 $310 forward $429 $-1 #
edge $-1 $439 -34.204712819133157 $313 -30.502735546041507 $309 $440 forward 7 unknown #
edge $-1 $314 -5.1463539608797486 $439 1.0047061284303404e-014 $196 $441 forward 7 unknown #
coedge $-1 $197 $434 $437 $442 forward $192 $-1 #
vertex $-1 $310 $443 #
vertex $-1 $198 $444 #
straight-curve $-1 -18.868254631493656 -51.702992078302174 11.268040728753931 0 1 0 I I #
coedge $-1 $316 $316 $-1 $445 reversed $201 $-1 #
edge $-1 $446 0 $446 6.2831853071796004 $202 $447 forward 7 unknown #
vertex $-1 $205 $448 #
ellipse-curve $-1 -36.949015785182212 -22.94358132122748 9.417052092208106 0 -0.71933980857756763 0.69465836192734942 1 0 0 1 I I #
coedge $-1 $320 $320 $-1 $449 reversed $208 $-1 #
edge $-1 $450 0 $450 6.2831853071796004 $209 $451 forward 7 unknown #
vertex $-1 $212 $452 #
ellipse-curve $-1 -30.168730352549005 -22.94358132122748 9.417052092208106 0 -0.71933980857756763 0.69465836192734942 1 0 0 1 I I #
coedge $-1 $324 $324 $-1 $453 reversed $215 $-1 #
edge $-1 $454 0 $454 6.2831853071796004 $216 $455 forward 7 unknown #
vertex $-1 $219 $456 #
ellipse-curve $-1 -23.388444919915798 -22.94358132122748 9.417052092208106 0 -0.71933980857756763 0.69465836192734942 1 0 0 1 I I #
face $-1 $-1 $235 $33 $-1 $457 reversed single #
loop $-1 $-1 $344 $220 #
plane-surface $-1 0 24.73106022740901 0 0 -1 0 0 0 -1 forward_v I I I I #
coedge $-1 $458 $342 $345 $459 forward $221 $-1 #
coedge $-1 $348 $223 $224 $336 reversed $139 $-1 #
coedge $-1 $342 $458 $223 $334 reversed $221 $-1 #
edge $-1 $349 -11.268040728753933 $460 11.268040728753933 $333 $461 forward 7 unknown #
coedge $-1 $225 $224 $458 $462 forward $89 $-1 #
edge $-1 $340 -54.685506759849851 $460 54.685506759849851 $332 $463 forward 7 unknown #
coedge $-1 $345 $344 $225 $338 reversed $329 $-1 #
edge $-1 $464 -54.685506759849851 $339 54.685506759849851 $337 $465 forward 7 unknown #
vertex $-1 $227 $466 #
vertex $-1 $351 $467 #
straight-curve $-1 54.685506759849851 0 -11.268040728753933 0 -1 0 I I #
coedge $-1 $331 $333 $228 $343 reversed $221 $-1 #
edge $-1 $346 -24.73106022740901 $349 24.73106022740901 $342 $468 forward 7 unknown #
coedge $-1 $337 $229 $234 $352 forward $329 $-1 #
coedge $-1 $229 $337 $331 $459 reversed $329 $-1 #
vertex $-1 $230 $469 #
straight-curve $-1 0 24.73106022740901 11.268040728753933 -1 0 0 I I #
coedge $-1 $231 $332 $233 $351 reversed $139 $-1 #
vertex $-1 $343 $470 #
straight-curve $-1 0 -24.73106022740901 11.268040728753933 1 0 0 I I #
edge $-1 $236 -11.268040728753933 $340 11.268040728753933 $233 $471 forward 7 unknown #
edge $-1 $237 -11.268040728753933 $339 11.268040728753933 $234 $472 forward 7 unknown #
point $-1 54.685506759849851 -24.73106022740901 11.268040728753933 #
point $-1 54.685506759849851 24.73106022740901 11.268040728753933 #
face $-1 $-1 $364 $34 $-1 $473 reversed single #
loop $-1 $-1 $361 $239 #
plane-surface $-1 0 0 11.268040728753933 0 0 1 1 0 0 forward_v I I I I #
coedge $-1 $474 $475 $246 $367 forward $240 $-1 #
coedge $-1 $242 $371 $476 $477 reversed $147 $-1 #
edge $-1 $478 -6.3840203643769664 $252 -3.3840203643769664 $242 $479 forward 7 unknown #
coedge $-1 $476 $480 $243 $362 forward $356 $-1 #
edge $-1 $365 -24.73106022740901 $478 24.73106022740901 $361 $481 forward 7 unknown #
coedge $-1 $368 $244 $480 $482 reversed $364 $-1 #
loop $-1 $-1 $244 $355 #
vertex $-1 $245 $483 #
straight-curve $-1 -41.469206073604347 -24.73106022740901 4.8840203643769664 0 0 1 I I #
edge $-1 $372 -24.73106022740901 $369 24.73106022740901 $358 $484 forward 7 unknown #
coedge $-1 $247 $363 $474 $485 forward $364 $-1 #
vertex $-1 $367 $486 #
straight-curve $-1 -24.03867820836355 -24.73106022740901 8.2680407287539328 1 0 0 I I #
coedge $-1 $359 $249 $475 $487 reversed $147 $-1 #
vertex $-1 $367 $488 #
straight-curve $-1 -24.03867820836355 24.73106022740901 8.2680407287539328 -1 0 0 I I #
point $-1 -41.469206073604347 24.73106022740901 8.2680407287539328 #
point $-1 -41.469206073604347 -24.73106022740901 8.2680407287539328 #
face $-1 $-1 $270 $35 $-1 $489 reversed single #
loop $-1 $-1 $261 $255 #
plane-surface $-1 0 24.73106022740901 0 0 -1 0 0 0 -1 forward_v I I I I #
coedge $-1 $264 $490 $383 $491 forward $256 $-1 #
coedge $-1 $492 $258 $490 $493 forward $155 $-1 #
coedge $-1 $258 $492 $385 $494 forward $155 $-1 #
edge $-1 $387 -24.73106022740901 $495 24.73106022740901 $258 $496 forward 7 unknown #
coedge $-1 $260 $259 $379 $491 reversed $97 $-1 #
edge $-1 $390 -24.73106022740901 $386 24.73106022740901 $259 $497 forward 7 unknown #
coedge $-1 $392 $261 $381 $494 reversed $377 $-1 #
vertex $-1 $267 $498 #
vertex $-1 $262 $499 #
straight-curve $-1 41.469206073604354 24.73106022740901 4.8840203643769664 0 0 1 I I #
coedge $-1 $490 $264 $269 $396 reversed $256 $-1 #
vertex $-1 $265 $500 #
straight-curve $-1 24.038678208363553 -24.73106022740901 8.2680407287539328 1 0 0 I I #
coedge $-1 $266 $385 $268 $395 forward $377 $-1 #
straight-curve $-1 24.038678208363553 24.73106022740901 8.2680407287539328 -1 0 0 I I #
coedge $-1 $269 $268 $492 $501 reversed $270 $-1 #
edge $-1 $502 -11.268040728753933 $272 -8.2680407287539328 $268 $503 forward 7 unknown #
edge $-1 $504 -11.268040728753933 $271 -8.2680407287539328 $269 $505 forward 7 unknown #
point $-1 54.685506759849858 -24.73106022740901 8.2680407287539328 #
point $-1 54.685506759849858 24.73106022740901 8.2680407287539328 #
loop $-1 $-1 $283 $274 #
plane-surface $-1 -41.469206073604347 0 9.7680407287539328 -1 0 0 0 0 1 forward_v I I I I #
coedge $-1 $506 $277 $282 $407 forward $163 $-1 #
coedge $-1 $277 $506 $404 $507 reversed $163 $-1 #
edge $-1 $405 48.292771675946199 $412 51.994748949037835 $277 $508 forward 7 unknown #
coedge $-1 $286 $280 $402 $507 forward $275 $-1 #
vertex $-1 $507 $509 #
straight-curve $-1 -18.868254631493656 34.523354292003617 11.268040728753931 0 1 0 I I #
edge $-1 $412 3.7838894552191551 $410 26.384840897329845 $401 $510 forward 7 unknown #
coedge $-1 $409 $283 $286 $414 reversed $399 $-1 #
coedge $-1 $283 $408 $506 $511 reversed $399 $-1 #
vertex $-1 $511 $512 #
straight-curve $-1 -41.469206073604347 1.0342739479904202 32.104804569849378 0 -0.69465836192734942 0.71933980857756763 I I #
vertex $-1 $407 $513 #
straight-curve $-1 -18.868254631493656 -9.6282153451881101 43.146135715471672 0 -0.69465836192734942 0.71933980857756763 I I #
edge $-1 $514 -24.73106022740901 $287 -21.156102415045964 $286 $515 forward 7 unknown #
point $-1 -41.469206073604347 21.156102415045964 11.268040728753931 #
point $-1 -18.868254631493656 21.156102415045964 11.268040728753931 #
edge $-1 $516 1 $516 0 $290 $-1 forward 7 unknown #
vertex $-1 $291 $517 #
ellipse-curve $-1 -36.949015785182212 20.088746048329643 6.660169780682601 0 0.71933980857756763 0.69465836192734942 1 0 0 1 I I #
point $-1 -35.949015785182212 22.943581321227501 9.4170520922081113 #
edge $-1 $518 1 $518 0 $294 $-1 forward 7 unknown #
vertex $-1 $295 $519 #
ellipse-curve $-1 -30.168730352549005 20.088746048329643 6.660169780682601 0 0.71933980857756763 0.69465836192734942 1 0 0 1 I I #
point $-1 -29.168730352549005 22.943581321227501 9.4170520922081113 #
edge $-1 $520 1 $520 0 $298 $-1 forward 7 unknown #
vertex $-1 $299 $521 #
ellipse-curve $-1 -23.388444919915798 20.088746048329643 6.660169780682601 0 0.71933980857756763 0.69465836192734942 1 0 0 1 I I #
point $-1 -22.388444919915798 22.943581321227501 9.4170520922081113 #
loop $-1 $-1 $309 $302 #
plane-surface $-1 0 -24.73106022740901 0 0 1 0 0 0 1 forward_v I I I I #
coedge $-1 $522 $523 $306 $433 reversed $303 $-1 #
coedge $-1 $306 $305 $438 $524 reversed $120 $-1 #
edge $-1 $525 -1.0047061284303404e-014 $435 5.1463539608797486 $431 $526 forward 7 unknown #
coedge $-1 $312 $307 $523 $527 forward $192 $-1 #
vertex $-1 $527 $528 #
straight-curve $-1 -15.084365176274501 -21.15610241504595 11.268040728753933 -1 0 0 I I #
coedge $-1 $529 $309 $312 $442 reversed $429 $-1 #
coedge $-1 $309 $529 $432 $524 forward $429 $-1 #
vertex $-1 $310 $530 #
straight-curve $-1 -18.868254631493656 -24.73106022740901 41.770776274795438 0 0 1 I I #
straight-curve $-1 -18.868254631493656 -24.731060227409003 7.5660634556622881 0 -0.69465836192734942 -0.71933980857756763 I I #
edge $-1 $531 -41.469206073604347 $313 -18.868254631493656 $437 $532 forward 7 unknown #
point $-1 -18.868254631493656 -24.73106022740901 11.268040728753933 #
point $-1 -18.868254631493656 -21.15610241504595 11.268040728753933 #
edge $-1 $533 1 $533 0 $316 $-1 forward 7 unknown #
vertex $-1 $317 $534 #
ellipse-curve $-1 -36.949015785182212 -20.088746048329636 6.6601697806826081 0 -0.71933980857756763 0.69465836192734942 1 0 0 1 I I #
point $-1 -35.949015785182212 -22.943581321227494 9.4170520922081185 #
edge $-1 $535 1 $535 0 $320 $-1 forward 7 unknown #
vertex $-1 $321 $536 #
ellipse-curve $-1 -30.168730352549005 -20.088746048329636 6.6601697806826081 0 -0.71933980857756763 0.69465836192734942 1 0 0 1 I I #
point $-1 -29.168730352549005 -22.943581321227494 9.4170520922081185 #
edge $-1 $537 1 $537 0 $324 $-1 forward 7 unknown #
vertex $-1 $325 $538 #
ellipse-curve $-1 -23.388444919915798 -20.088746048329636 6.6601697806826081 0 -0.71933980857756763 0.69465836192734942 1 0 0 1 I I #
point $-1 -22.388444919915798 -22.943581321227494 9.4170520922081185 #
plane-surface $-1 54.685506759849851 0 0 -1 0 0 0 0 1 forward_v I I I I #
coedge $-1 $333 $331 $335 $462 reversed $221 $-1 #
edge $-1 $346 -11.268040728753933 $464 11.268040728753933 $345 $539 forward 7 unknown #
vertex $-1 $462 $540 #
straight-curve $-1 -54.685506759849851 -24.73106022740901 0 0 0 -1 I I #
edge $-1 $460 -24.73106022740901 $464 24.73106022740901 $458 $541 forward 7 unknown #
straight-curve $-1 0 -24.73106022740901 -11.268040728753933 -1 0 0 I I #
vertex $-1 $338 $542 #
straight-curve $-1 0 24.73106022740901 -11.268040728753933 1 0 0 I I #
point $-1 54.685506759849851 24.73106022740901 -11.268040728753933 #
point $-1 54.685506759849851 -24.73106022740901 -11.268040728753933 #
straight-curve $-1 -54.685506759849851 0 11.268040728753933 0 -1 0 I I #
point $-1 -54.685506759849851 24.73106022740901 11.268040728753933 #
point $-1 -54.685506759849851 -24.73106022740901 11.268040728753933 #
straight-curve $-1 54.685506759849851 -24.73106022740901 0 0 0 -1 I I #
straight-curve $-1 54.685506759849851 24.73106022740901 0 0 0 -1 I I #
plane-surface $-1 0 -24.73106022740901 0 0 1 0 0 0 1 forward_v I I I I #
coedge $-1 $543 $358 $368 $485 reversed $240 $-1 #
coedge $-1 $358 $543 $371 $487 forward $240 $-1 #
coedge $-1 $544 $361 $359 $477 forward $356 $-1 #
edge $-1 $478 41.469206073604347 $545 54.685506759849851 $359 $546 forward 7 unknown #
vertex $-1 $477 $547 #
straight-curve $-1 -41.469206073604347 24.73106022740901 4.8840203643769664 0 0 -1 I I #
coedge $-1 $361 $544 $363 $482 forward $356 $-1 #
straight-curve $-1 -41.469206073604347 0 11.268040728753933 0 1 0 I I #
edge $-1 $548 -54.685506759849851 $365 -41.469206073604347 $363 $549 forward 7 unknown #
point $-1 -41.469206073604347 -24.73106022740901 11.268040728753933 #
straight-curve $-1 -54.685506759849851 0 8.2680407287539328 0 -1 0 I I #
edge $-1 $548 -11.268040728753933 $369 -8.2680407287539328 $474 $550 forward 7 unknown #
point $-1 -54.685506759849851 -24.73106022740901 8.2680407287539328 #
edge $-1 $545 -11.268040728753933 $372 -8.2680407287539328 $371 $551 forward 7 unknown #
point $-1 -54.685506759849851 24.73106022740901 8.2680407287539328 #
plane-surface $-1 54.685506759849851 0 0 -1 0 0 0 0 1 forward_v I I I I #
coedge $-1 $379 $389 $380 $493 reversed $256 $-1 #
edge $-1 $495 -6.3840203643769664 $390 -3.3840203643769664 $379 $552 forward 7 unknown #
coedge $-1 $381 $380 $394 $501 forward $155 $-1 #
edge $-1 $495 41.469206073604354 $504 54.685506759849851 $490 $553 forward 7 unknown #
edge $-1 $502 -54.685506759849851 $387 -41.469206073604354 $385 $554 forward 7 unknown #
vertex $-1 $493 $555 #
straight-curve $-1 41.469206073604354 0 11.268040728753933 0 -1 0 I I #
straight-curve $-1 41.469206073604354 0 8.2680407287539328 0 1 0 I I #
point $-1 41.469206073604354 24.73106022740901 8.2680407287539328 #
point $-1 41.469206073604354 24.73106022740901 11.268040728753933 #
point $-1 41.469206073604354 -24.73106022740901 8.2680407287539328 #
edge $-1 $504 -24.73106022740901 $502 24.73106022740901 $394 $556 forward 7 unknown #
vertex $-1 $501 $557 #
straight-curve $-1 54.685506759849851 24.73106022740901 0 0 0 -1 I I #
vertex $-1 $501 $558 #
straight-curve $-1 54.685506759849851 -24.73106022740901 0 0 0 -1 I I #
coedge $-1 $402 $401 $409 $511 forward $163 $-1 #
edge $-1 $405 18.868254631493656 $514 41.469206073604347 $402 $559 forward 7 unknown #
straight-curve $-1 -18.868254631493656 24.73106022740901 59.56081240470013 0 0 -1 I I #
point $-1 -18.868254631493656 24.73106022740901 11.268040728753933 #
straight-curve $-1 -15.084365176274501 24.73106022740901 7.566063455662297 -1 0 0 I I #
edge $-1 $410 -51.994748949037835 $514 -48.292771675946199 $506 $560 forward 7 unknown #
point $-1 -41.469206073604347 24.73106022740901 7.5660634556622952 #
point $-1 -18.868254631493656 24.73106022740901 7.5660634556622952 #
vertex $-1 $414 $561 #
straight-curve $-1 -41.469206073604347 0 11.268040728753933 0 -1 0 I I #
vertex $-1 $417 $562 #
point $-1 -35.949015785182212 20.088746048329643 6.660169780682601 #
vertex $-1 $421 $563 #
point $-1 -29.168730352549005 20.088746048329643 6.660169780682601 #
vertex $-1 $425 $564 #
point $-1 -22.388444919915798 20.088746048329643 6.660169780682601 #
coedge $-1 $523 $431 $529 $565 reversed $303 $-1 #
coedge $-1 $431 $522 $434 $527 reversed $303 $-1 #
edge $-1 $525 -26.384840897329845 $439 -3.7838894552191551 $438 $566 forward 7 unknown #
vertex $-1 $565 $567 #
straight-curve $-1 -41.469206073604347 -24.731060227409003 7.5660634556622881 0 0.69465836192734942 0.71933980857756763 I I #
edge $-1 $435 21.15610241504595 $531 24.73106022740901 $434 $568 forward 7 unknown #
point $-1 -41.469206073604347 -21.15610241504595 11.268040728753933 #
coedge $-1 $438 $437 $522 $565 forward $429 $-1 #
point $-1 -18.868254631493656 -24.73106022740901 7.566063455662281 #
vertex $-1 $442 $569 #
straight-curve $-1 0 -24.73106022740901 11.268040728753933 1 0 0 I I #
vertex $-1 $445 $570 #
point $-1 -35.949015785182212 -20.088746048329636 6.6601697806826081 #
vertex $-1 $449 $571 #
point $-1 -29.168730352549005 -20.088746048329636 6.6601697806826081 #
vertex $-1 $453 $572 #
point $-1 -22.388444919915798 -20.088746048329636 6.6601697806826081 #
straight-curve $-1 -54.685506759849851 24.73106022740901 0 0 0 -1 I I #
point $-1 -54.685506759849851 -24.73106022740901 -11.268040728753933 #
straight-curve $-1 -54.685506759849851 0 -11.268040728753933 0 1 0 I I #
point $-1 -54.685506759849851 24.73106022740901 -11.268040728753933 #
coedge $-1 $475 $474 $544 $573 reversed $240 $-1 #
coedge $-1 $480 $476 $543 $573 forward $356 $-1 #
vertex $-1 $477 $574 #
straight-curve $-1 0 24.73106022740901 11.268040728753933 -1 0 0 I I #
point $-1 -41.469206073604347 24.73106022740901 11.268040728753933 #
vertex $-1 $573 $575 #
straight-curve $-1 0 -24.73106022740901 11.268040728753933 1 0 0 I I #
straight-curve $-1 -54.685506759849851 -24.73106022740901 0 0 0 -1 I I #
straight-curve $-1 -54.685506759849851 24.73106022740901 0 0 0 -1 I I #
straight-curve $-1 41.469206073604354 -24.73106022740901 4.8840203643769664 0 0 -1 I I #
straight-curve $-1 0 -24.73106022740901 11.268040728753933 1 0 0 I I #
straight-curve $-1 0 24.73106022740901 11.268040728753933 -1 0 0 I I #
point $-1 41.469206073604354 -24.73106022740901 11.268040728753933 #
straight-curve $-1 54.685506759849851 0 11.268040728753933 0 1 0 I I #
point $-1 54.685506759849851 24.73106022740901 11.268040728753933 #
point $-1 54.685506759849851 -24.73106022740901 11.268040728753933 #
straight-curve $-1 0 24.73106022740901 11.268040728753933 -1 0 0 I I #
straight-curve $-1 -41.469206073604347 24.73106022740901 59.56081240470013 0 0 1 I I #
point $-1 -41.469206073604347 24.73106022740901 11.268040728753933 #
point $-1 -36.949015785182212 19.369406239752077 5.965511418755252 #
point $-1 -30.168730352549005 19.369406239752077 5.965511418755252 #
point $-1 -23.388444919915798 19.369406239752077 5.965511418755252 #
edge $-1 $531 30.502735546041507 $525 34.204712819133157 $529 $576 forward 7 unknown #
straight-curve $-1 -15.084365176274501 -24.73106022740901 7.5660634556622828 1 0 0 I I #
point $-1 -41.469206073604347 -24.73106022740901 7.566063455662281 #
straight-curve $-1 -41.469206073604347 0 11.268040728753933 0 -1 0 I I #
point $-1 -41.469206073604347 -24.73106022740901 11.268040728753933 #
point $-1 -36.949015785182212 -19.36940623975207 5.9655114187552591 #
point $-1 -30.168730352549005 -19.36940623975207 5.9655114187552591 #
point $-1 -23.388444919915798 -19.36940623975207 5.9655114187552591 #
edge $-1 $545 -24.73106022740901 $548 24.73106022740901 $543 $577 forward 7 unknown #
point $-1 -54.685506759849851 24.73106022740901 11.268040728753933 #
point $-1 -54.685506759849851 -24.73106022740901 11.268040728753933 #
straight-curve $-1 -41.469206073604347 -24.73106022740901 41.770776274795438 0 0 -1 I I #
straight-curve $-1 -54.685506759849851 0 11.268040728753933 0 -1 0 I I #
End-of-ACIS-data 