500 0 15 0           
7 Unknown 11 ACIS 5.0 NT 24 Fri Mar 26 19:30:26 1999 
-1 9.9999999999999995e-007 1e-010 
body $-1 $15 $-1 $16 #
body $-1 $17 $-1 $18 #
body $-1 $19 $-1 $20 #
body $-1 $21 $-1 $22 #
body $-1 $23 $-1 $24 #
body $-1 $25 $-1 $26 #
body $-1 $27 $-1 $28 #
body $-1 $29 $-1 $30 #
body $-1 $31 $-1 $32 #
body $-1 $33 $-1 $34 #
body $-1 $35 $-1 $36 #
body $-1 $37 $-1 $38 #
body $-1 $39 $-1 $40 #
body $-1 $41 $-1 $42 #
body $-1 $43 $-1 $44 #
lump $-1 $-1 $45 $0 #
transform $-1 1 0 0 0 1 0 0 0 1 59.69420453505051 24.816626270862912 10.941673016606845 1 rotate no_reflect no_shear #
lump $-1 $-1 $46 $1 #
transform $-1 1 0 0 0 1 0 0 0 1 59.69420453505051 24.816626270862912 10.941673016606845 1 rotate no_reflect no_shear #
lump $-1 $-1 $47 $2 #
transform $-1 1 0 0 0 1 0 0 0 1 59.69420453505051 24.816626270862912 10.941673016606845 1 rotate no_reflect no_shear #
lump $-1 $-1 $48 $3 #
transform $-1 1 0 0 0 1 0 0 0 1 59.69420453505051 24.816626270862912 10.941673016606845 1 rotate no_reflect no_shear #
lump $-1 $-1 $49 $4 #
transform $-1 1 0 0 0 1 0 0 0 1 59.69420453505051 24.816626270862912 10.941673016606845 1 rotate no_reflect no_shear #
lump $-1 $-1 $50 $5 #
transform $-1 1 0 0 0 1 0 0 0 1 59.69420453505051 24.816626270862912 10.941673016606845 1 rotate no_reflect no_shear #
lump $-1 $-1 $51 $6 #
transform $-1 1 0 0 0 1 0 0 0 1 59.69420453505051 24.816626270862912 10.941673016606845 1 rotate no_reflect no_shear #
lump $-1 $-1 $52 $7 #
transform $-1 1 0 0 0 1 0 0 0 1 59.69420453505051 24.816626270862912 10.941673016606845 1 rotate no_reflect no_shear #
lump $-1 $-1 $53 $8 #
transform $-1 1 0 0 0 1 0 0 0 1 59.69420453505051 24.816626270862912 10.941673016606845 1 rotate no_reflect no_shear #
lump $-1 $-1 $54 $9 #
transform $-1 1 0 0 0 1 0 0 0 1 59.69420453505051 24.816626270862912 10.941673016606845 1 rotate no_reflect no_shear #
lump $-1 $-1 $55 $10 #
transform $-1 1 0 0 0 1 0 0 0 1 59.69420453505051 24.816626270862912 10.941673016606845 1 rotate no_reflect no_shear #
lump $-1 $-1 $56 $11 #
transform $-1 1 0 0 0 1 0 0 0 1 59.69420453505051 24.816626270862912 10.941673016606845 1 rotate no_reflect no_shear #
lump $-1 $-1 $57 $12 #
transform $-1 1 0 0 0 1 0 0 0 1 59.69420453505051 24.816626270862912 10.941673016606845 1 rotate no_reflect no_shear #
lump $-1 $-1 $58 $13 #
transform $-1 1 0 0 0 1 0 0 0 1 59.69420453505051 24.816626270862912 10.941673016606845 1 rotate no_reflect no_shear #
lump $-1 $-1 $59 $14 #
transform $-1 1 0 0 0 1 0 0 0 1 59.69420453505051 24.816626270862912 10.941673016606845 1 rotate no_reflect no_shear #
shell $-1 $-1 $-1 $60 $-1 $15 #
shell $-1 $-1 $-1 $61 $-1 $17 #
shell $-1 $-1 $-1 $62 $-1 $19 #
shell $-1 $-1 $-1 $63 $-1 $21 #
shell $-1 $-1 $-1 $64 $-1 $23 #
shell $-1 $-1 $-1 $65 $-1 $25 #
shell $-1 $-1 $-1 $66 $-1 $27 #
shell $-1 $-1 $-1 $67 $-1 $29 #
shell $-1 $-1 $-1 $68 $-1 $31 #
shell $-1 $-1 $-1 $69 $-1 $33 #
shell $-1 $-1 $-1 $70 $-1 $35 #
shell $-1 $-1 $-1 $71 $-1 $37 #
shell $-1 $-1 $-1 $72 $-1 $39 #
shell $-1 $-1 $-1 $73 $-1 $41 #
shell $-1 $-1 $-1 $74 $-1 $43 #
face $-1 $75 $76 $45 $-1 $77 forward single #
face $-1 $78 $79 $46 $-1 $80 reversed single #
face $-1 $81 $82 $47 $-1 $83 reversed single #
face $-1 $84 $85 $48 $-1 $86 reversed single #
face $-1 $87 $88 $49 $-1 $89 forward single #
face $-1 $90 $91 $50 $-1 $92 reversed single #
face $-1 $93 $94 $51 $-1 $95 forward single #
face $-1 $96 $97 $52 $-1 $98 reversed single #
face $-1 $99 $100 $53 $-1 $101 forward single #
face $-1 $102 $103 $54 $-1 $104 reversed single #
face $-1 $105 $106 $55 $-1 $107 forward single #
face $-1 $108 $109 $56 $-1 $110 reversed single #
face $-1 $111 $112 $57 $-1 $113 forward single #
face $-1 $114 $115 $58 $-1 $116 reversed single #
face $-1 $117 $118 $59 $-1 $119 forward single #
face $-1 $120 $121 $45 $-1 $122 reversed single #
loop $-1 $-1 $123 $60 #
plane-surface $-1 0 0 10.941673016606845 0 0 1 1 0 0 forward_v I I I I #
face $-1 $124 $125 $46 $-1 $126 reversed single #
loop $-1 $-1 $127 $61 #
plane-surface $-1 -56.453109150471889 -12.477676866300198 0 0 -1 0 0 0 -1 forward_v I I I I #
face $-1 $128 $129 $47 $-1 $130 reversed single #
loop $-1 $-1 $131 $62 #
plane-surface $-1 -56.453109150471889 12.4776768663002 0 0 1 0 0 0 1 forward_v I I I I #
face $-1 $132 $133 $48 $-1 $134 reversed single #
loop $-1 $-1 $135 $63 #
plane-surface $-1 -59.694204535050531 -10.064091784740246 0.031265474994427223 -0.62932039886446345 0 0.77714595512881146 0.77714595512881146 0 0.62932039886446345 forward_v I I I I #
face $-1 $136 $137 $49 $-1 $138 forward single #
loop $-1 $139 $140 $64 #
cone-surface $-1 -52.363098586734203 -10.064091784740246 4.7523346798629635 0.62932039886446345 0 -0.77714595512881146 0.38857297756440573 0 0.31466019943223172 1 I I 0 1 0.5 forward I I I I #
face $-1 $141 $142 $50 $-1 $143 reversed single #
loop $-1 $-1 $144 $65 #
plane-surface $-1 -134.82776575084023 -4.1592256221000667 92.813484673087345 0 1 0 -0.62932039886446345 0 0.77714595512881146 forward_v I I I I #
face $-1 $145 $146 $51 $-1 $147 forward single #
loop $-1 $148 $149 $66 #
cone-surface $-1 -52.363098586734203 -1.7456405405401156 4.7523346798629635 0.62932039886446345 0 -0.77714595512881146 0.38857297756440573 0 0.31466019943223172 1 I I 0 1 0.5 forward I I I I #
face $-1 $150 $151 $52 $-1 $152 reversed single #
loop $-1 $-1 $153 $67 #
plane-surface $-1 -134.82776575084023 4.1592256221000667 92.813484673087345 0 1 0 -0.62932039886446345 0 0.77714595512881146 forward_v I I I I #
face $-1 $154 $155 $53 $-1 $156 forward single #
loop $-1 $157 $158 $68 #
cone-surface $-1 -52.363098586734203 6.5728107036600179 4.7523346798629635 0.62932039886446345 0 -0.77714595512881146 0.38857297756440573 0 0.31466019943223172 1 I I 0 1 0.5 forward I I I I #
face $-1 $159 $160 $54 $-1 $161 reversed single #
loop $-1 $-1 $162 $69 #
plane-surface $-1 42.045546552747304 -7.6505067031802945 167.94704588887703 0 -1 0 -0.62932039886446345 0 -0.77714595512881146 forward_v I I I I #
face $-1 $163 $164 $55 $-1 $165 forward single #
loop $-1 $166 $167 $70 #
cone-surface $-1 52.363098586734203 -10.064091784740246 4.7523346798629547 -0.62932039886446345 0 -0.77714595512881146 0.38857297756440573 0 -0.31466019943223172 1 I I 0 1 0.5 forward I I I I #
face $-1 $168 $169 $56 $-1 $170 reversed single #
loop $-1 $-1 $171 $71 #
plane-surface $-1 42.045546552747304 0.66794454101983547 167.94704588887703 0 -1 0 -0.62932039886446345 0 -0.77714595512881146 forward_v I I I I #
face $-1 $172 $173 $57 $-1 $174 forward single #
loop $-1 $175 $176 $72 #
cone-surface $-1 52.363098586734203 -1.7456405405401156 4.7523346798629547 -0.62932039886446345 0 -0.77714595512881146 0.38857297756440573 0 -0.31466019943223172 1 I I 0 1 0.5 forward I I I I #
face $-1 $177 $178 $58 $-1 $179 reversed single #
loop $-1 $-1 $180 $73 #
plane-surface $-1 42.045546552747304 8.986395785219969 167.94704588887703 0 -1 0 -0.62932039886446345 0 -0.77714595512881146 forward_v I I I I #
face $-1 $181 $182 $59 $-1 $183 forward single #
loop $-1 $184 $185 $74 #
cone-surface $-1 52.363098586734203 6.5728107036600179 4.7523346798629547 -0.62932039886446345 0 -0.77714595512881146 0.38857297756440573 0 -0.31466019943223172 1 I I 0 1 0.5 forward I I I I #
face $-1 $186 $187 $45 $-1 $188 reversed single #
loop $-1 $-1 $189 $75 #
plane-surface $-1 0 0 -10.941673016606845 0 0 1 1 0 0 forward_v I I I I #
coedge $-1 $190 $191 $192 $193 forward $76 $-1 #
face $-1 $194 $195 $46 $-1 $196 forward single #
loop $-1 $-1 $197 $78 #
plane-surface $-1 -53.212013765893268 -18.647151568581556 0 -1 0 0 0 0 1 forward_v I I I I #
coedge $-1 $198 $199 $200 $201 forward $79 $-1 #
face $-1 $202 $203 $47 $-1 $204 reversed single #
loop $-1 $-1 $205 $81 #
plane-surface $-1 -53.212013765893268 18.647151568581556 0 -1 0 0 0 0 1 forward_v I I I I #
coedge $-1 $206 $207 $208 $209 reversed $82 $-1 #
face $-1 $210 $211 $48 $-1 $212 forward single #
loop $-1 $-1 $213 $84 #
plane-surface $-1 -134.82776575084023 -7.6505067031802945 92.813484673087345 0 -1 0 0.62932039886446345 0 -0.77714595512881146 forward_v I I I I #
coedge $-1 $214 $215 $216 $217 reversed $85 $-1 #
face $-1 $-1 $218 $49 $-1 $219 forward single #
loop $-1 $220 $221 $87 #
cone-surface $-1 -51.611278025082264 -10.064091784740246 3.8239136251430903 0.62932039886446345 0 -0.77714595512881146 0.19428648878220287 0 0.15733009971611586 1 I I -0.70710678118654746 0.70710678118654746 0.25 forward I I I I #
loop $-1 $-1 $222 $64 #
coedge $-1 $140 $140 $223 $224 reversed $88 $-1 #
face $-1 $225 $226 $50 $-1 $227 reversed single #
loop $-1 $-1 $228 $90 #
plane-surface $-1 -59.694204535050531 -1.7456405405401156 0.031265474994427223 -0.62932039886446345 0 0.77714595512881146 0.77714595512881146 0 0.62932039886446345 forward_v I I I I #
coedge $-1 $229 $230 $231 $232 reversed $91 $-1 #
face $-1 $-1 $233 $51 $-1 $234 forward single #
loop $-1 $235 $236 $93 #
cone-surface $-1 -51.611278025082264 -1.7456405405401156 3.8239136251430903 0.62932039886446345 0 -0.77714595512881146 0.19428648878220287 0 0.15733009971611586 1 I I -0.70710678118654746 0.70710678118654746 0.25 forward I I I I #
loop $-1 $-1 $237 $66 #
coedge $-1 $149 $149 $238 $239 reversed $94 $-1 #
face $-1 $240 $241 $52 $-1 $242 reversed single #
loop $-1 $-1 $243 $96 #
plane-surface $-1 -59.694204535050531 6.5728107036600179 0.031265474994427223 -0.62932039886446345 0 0.77714595512881146 0.77714595512881146 0 0.62932039886446345 forward_v I I I I #
coedge $-1 $244 $245 $246 $247 reversed $97 $-1 #
face $-1 $-1 $248 $53 $-1 $249 forward single #
loop $-1 $250 $251 $99 #
cone-surface $-1 -51.611278025082264 6.5728107036600179 3.8239136251430903 0.62932039886446345 0 -0.77714595512881146 0.19428648878220287 0 0.15733009971611586 1 I I -0.70710678118654746 0.70710678118654746 0.25 forward I I I I #
loop $-1 $-1 $252 $68 #
coedge $-1 $158 $158 $253 $254 reversed $100 $-1 #
face $-1 $255 $256 $54 $-1 $257 reversed single #
loop $-1 $-1 $258 $102 #
plane-surface $-1 -33.088014663042394 -10.064091784740246 75.16482669078411 0.62932039886446345 0 0.77714595512881146 0.77714595512881146 0 -0.62932039886446345 forward_v I I I I #
coedge $-1 $259 $260 $261 $262 reversed $103 $-1 #
face $-1 $-1 $263 $55 $-1 $264 forward single #
loop $-1 $265 $266 $105 #
cone-surface $-1 51.611278025082264 -10.064091784740246 3.8239136251430814 -0.62932039886446345 0 -0.77714595512881146 0.19428648878220287 0 -0.15733009971611586 1 I I -0.70710678118654746 0.70710678118654746 0.25 forward I I I I #
loop $-1 $-1 $267 $70 #
coedge $-1 $167 $167 $268 $269 reversed $106 $-1 #
face $-1 $270 $271 $56 $-1 $272 reversed single #
loop $-1 $-1 $273 $108 #
plane-surface $-1 -33.088014663042394 -1.7456405405401156 75.16482669078411 0.62932039886446345 0 0.77714595512881146 0.77714595512881146 0 -0.62932039886446345 forward_v I I I I #
coedge $-1 $274 $275 $276 $277 reversed $109 $-1 #
face $-1 $-1 $278 $57 $-1 $279 forward single #
loop $-1 $280 $281 $111 #
cone-surface $-1 51.611278025082264 -1.7456405405401156 3.8239136251430814 -0.62932039886446345 0 -0.77714595512881146 0.19428648878220287 0 -0.15733009971611586 1 I I -0.70710678118654746 0.70710678118654746 0.25 forward I I I I #
loop $-1 $-1 $282 $72 #
coedge $-1 $176 $176 $283 $284 reversed $112 $-1 #
face $-1 $285 $286 $58 $-1 $287 reversed single #
loop $-1 $-1 $288 $114 #
plane-surface $-1 -33.088014663042394 6.5728107036600179 75.16482669078411 0.62932039886446345 0 0.77714595512881146 0.77714595512881146 0 -0.62932039886446345 forward_v I I I I #
coedge $-1 $289 $290 $291 $292 reversed $115 $-1 #
face $-1 $-1 $293 $59 $-1 $294 forward single #
loop $-1 $295 $296 $117 #
cone-surface $-1 51.611278025082264 6.5728107036600179 3.8239136251430814 -0.62932039886446345 0 -0.77714595512881146 0.19428648878220287 0 -0.15733009971611586 1 I I -0.70710678118654746 0.70710678118654746 0.25 forward I I I I #
loop $-1 $-1 $297 $74 #
coedge $-1 $185 $185 $298 $299 reversed $118 $-1 #
face $-1 $300 $301 $45 $-1 $302 reversed single #
loop $-1 $-1 $303 $120 #
plane-surface $-1 0 -24.816626270862912 0 0 1 0 0 0 1 forward_v I I I I #
coedge $-1 $304 $305 $306 $307 forward $121 $-1 #
coedge $-1 $308 $123 $309 $310 forward $76 $-1 #
coedge $-1 $123 $308 $311 $312 forward $76 $-1 #
coedge $-1 $313 $314 $123 $193 reversed $315 $-1 #
edge $-1 $316 -24.816626270862912 $317 24.816626270862912 $192 $318 forward 7 unknown #
face $-1 $319 $320 $46 $-1 $321 reversed single #
loop $-1 $-1 $322 $124 #
plane-surface $-1 0 0 10.941673016606845 0 0 1 1 0 0 forward_v I I I I #
coedge $-1 $323 $324 $325 $326 reversed $125 $-1 #
coedge $-1 $327 $127 $328 $329 reversed $79 $-1 #
coedge $-1 $127 $327 $330 $331 reversed $79 $-1 #
coedge $-1 $324 $323 $127 $201 reversed $125 $-1 #
edge $-1 $332 -10.941673016606845 $333 10.941673016606845 $200 $334 forward 7 unknown #
face $-1 $335 $336 $47 $-1 $337 reversed single #
loop $-1 $-1 $338 $128 #
plane-surface $-1 0 0 -10.941673016606845 0 0 1 1 0 0 forward_v I I I I #
coedge $-1 $339 $340 $341 $342 forward $129 $-1 #
coedge $-1 $341 $131 $343 $344 reversed $82 $-1 #
coedge $-1 $131 $341 $345 $346 reversed $82 $-1 #
coedge $-1 $347 $348 $131 $209 forward $336 $-1 #
edge $-1 $349 -10.941673016606845 $350 10.941673016606845 $208 $351 forward 7 unknown #
face $-1 $352 $353 $48 $-1 $354 reversed single #
loop $-1 $-1 $355 $132 #
plane-surface $-1 0 0 10.941673016606845 0 0 1 1 0 0 forward_v I I I I #
coedge $-1 $356 $357 $358 $359 reversed $133 $-1 #
coedge $-1 $360 $135 $361 $362 reversed $85 $-1 #
coedge $-1 $135 $360 $356 $363 forward $85 $-1 #
coedge $-1 $358 $355 $135 $217 forward $211 $-1 #
edge $-1 $364 -7.4456309739300739 $365 -2.6184608108101717 $216 $366 forward 7 unknown #
loop $-1 $-1 $223 $136 #
plane-surface $-1 -59.694204535050531 -10.064091784740246 0.031265474994427223 -0.62932039886446345 0 0.77714595512881146 0.77714595512881146 0 0.62932039886446345 forward_v I I I I #
loop $-1 $-1 $367 $87 #
coedge $-1 $221 $221 $222 $368 reversed $137 $-1 #
coedge $-1 $222 $222 $221 $368 forward $139 $-1 #
coedge $-1 $223 $223 $140 $224 forward $218 $-1 #
edge $-1 $369 0 $369 6.2831853071796004 $223 $370 forward 7 unknown #
face $-1 $371 $372 $50 $-1 $373 forward single #
loop $-1 $-1 $374 $141 #
plane-surface $-1 -134.82776575084023 0.66794454101983547 92.813484673087345 0 -1 0 0.62932039886446345 0 -0.77714595512881146 forward_v I I I I #
coedge $-1 $375 $376 $377 $378 reversed $142 $-1 #
coedge $-1 $230 $144 $379 $380 reversed $91 $-1 #
coedge $-1 $144 $229 $375 $381 reversed $91 $-1 #
coedge $-1 $377 $382 $144 $232 forward $372 $-1 #
edge $-1 $383 7.7196783403696045 $384 21.192909313130542 $231 $385 forward 7 unknown #
loop $-1 $-1 $238 $145 #
plane-surface $-1 -59.694204535050531 -1.7456405405401156 0.031265474994427223 -0.62932039886446345 0 0.77714595512881146 0.77714595512881146 0 0.62932039886446345 forward_v I I I I #
loop $-1 $-1 $386 $93 #
coedge $-1 $236 $236 $237 $387 reversed $146 $-1 #
coedge $-1 $237 $237 $236 $387 forward $148 $-1 #
coedge $-1 $238 $238 $149 $239 forward $233 $-1 #
edge $-1 $388 0 $388 6.2831853071796004 $238 $389 forward 7 unknown #
face $-1 $390 $391 $52 $-1 $392 forward single #
loop $-1 $-1 $393 $150 #
plane-surface $-1 -134.82776575084023 8.986395785219969 92.813484673087345 0 -1 0 0.62932039886446345 0 -0.77714595512881146 forward_v I I I I #
coedge $-1 $394 $395 $396 $397 reversed $151 $-1 #
coedge $-1 $245 $153 $398 $399 reversed $97 $-1 #
coedge $-1 $153 $244 $394 $400 reversed $97 $-1 #
coedge $-1 $396 $401 $153 $247 forward $391 $-1 #
edge $-1 $402 7.7196783403696045 $403 21.192909313130542 $246 $404 forward 7 unknown #
loop $-1 $-1 $253 $154 #
plane-surface $-1 -59.694204535050531 6.5728107036600179 0.031265474994427223 -0.62932039886446345 0 0.77714595512881146 0.77714595512881146 0 0.62932039886446345 forward_v I I I I #
loop $-1 $-1 $405 $99 #
coedge $-1 $251 $251 $252 $406 reversed $155 $-1 #
coedge $-1 $252 $252 $251 $406 forward $157 $-1 #
coedge $-1 $253 $253 $158 $254 forward $248 $-1 #
edge $-1 $407 0 $407 6.2831853071796004 $253 $408 forward 7 unknown #
face $-1 $409 $410 $54 $-1 $411 reversed single #
loop $-1 $-1 $412 $159 #
plane-surface $-1 42.045546552747304 -12.477676866300197 167.94704588887703 0 1 0 0.62932039886446345 0 0.77714595512881146 forward_v I I I I #
coedge $-1 $413 $414 $415 $416 reversed $160 $-1 #
coedge $-1 $260 $162 $417 $418 reversed $103 $-1 #
coedge $-1 $162 $259 $413 $419 reversed $103 $-1 #
coedge $-1 $415 $420 $162 $262 forward $421 $-1 #
edge $-1 $422 -38.671431258676861 $423 -25.198200285915899 $261 $424 forward 7 unknown #
loop $-1 $-1 $268 $163 #
plane-surface $-1 -33.088014663042394 -10.064091784740246 75.16482669078411 0.62932039886446345 0 0.77714595512881146 0.77714595512881146 0 -0.62932039886446345 forward_v I I I I #
loop $-1 $-1 $425 $105 #
coedge $-1 $266 $266 $267 $426 reversed $164 $-1 #
coedge $-1 $267 $267 $266 $426 forward $166 $-1 #
coedge $-1 $268 $268 $167 $269 forward $263 $-1 #
edge $-1 $427 0 $427 6.2831853071796004 $268 $428 forward 7 unknown #
face $-1 $429 $430 $56 $-1 $431 reversed single #
loop $-1 $-1 $432 $168 #
plane-surface $-1 42.045546552747304 -4.1592256221000667 167.94704588887703 0 1 0 0.62932039886446345 0 0.77714595512881146 forward_v I I I I #
coedge $-1 $433 $434 $435 $436 reversed $169 $-1 #
coedge $-1 $275 $171 $437 $438 reversed $109 $-1 #
coedge $-1 $171 $274 $433 $439 reversed $109 $-1 #
coedge $-1 $435 $440 $171 $277 forward $441 $-1 #
edge $-1 $442 -38.671431258676861 $443 -25.198200285915899 $276 $444 forward 7 unknown #
loop $-1 $-1 $283 $172 #
plane-surface $-1 -33.088014663042394 -1.7456405405401156 75.16482669078411 0.62932039886446345 0 0.77714595512881146 0.77714595512881146 0 -0.62932039886446345 forward_v I I I I #
loop $-1 $-1 $445 $111 #
coedge $-1 $281 $281 $282 $446 reversed $173 $-1 #
coedge $-1 $282 $282 $281 $446 forward $175 $-1 #
coedge $-1 $283 $283 $176 $284 forward $278 $-1 #
edge $-1 $447 0 $447 6.2831853071796004 $283 $448 forward 7 unknown #
face $-1 $449 $450 $58 $-1 $451 reversed single #
loop $-1 $-1 $452 $177 #
plane-surface $-1 42.045546552747304 4.1592256221000667 167.94704588887703 0 1 0 0.62932039886446345 0 0.77714595512881146 forward_v I I I I #
coedge $-1 $453 $454 $455 $456 reversed $178 $-1 #
coedge $-1 $290 $180 $457 $458 reversed $115 $-1 #
coedge $-1 $180 $289 $453 $459 reversed $115 $-1 #
coedge $-1 $455 $460 $180 $292 forward $461 $-1 #
edge $-1 $462 -38.671431258676861 $463 -25.198200285915899 $291 $464 forward 7 unknown #
loop $-1 $-1 $298 $181 #
plane-surface $-1 -33.088014663042394 6.5728107036600179 75.16482669078411 0.62932039886446345 0 0.77714595512881146 0.77714595512881146 0 -0.62932039886446345 forward_v I I I I #
loop $-1 $-1 $465 $117 #
coedge $-1 $296 $296 $297 $466 reversed $182 $-1 #
coedge $-1 $297 $297 $296 $466 forward $184 $-1 #
coedge $-1 $298 $298 $185 $299 forward $293 $-1 #
edge $-1 $467 0 $467 6.2831853071796004 $298 $468 forward 7 unknown #
face $-1 $469 $470 $45 $-1 $471 reversed single #
loop $-1 $-1 $472 $186 #
plane-surface $-1 -59.69420453505051 0 0 1 0 0 0 0 -1 forward_v I I I I #
coedge $-1 $473 $311 $474 $475 forward $187 $-1 #
coedge $-1 $476 $189 $473 $477 forward $121 $-1 #
coedge $-1 $189 $476 $478 $479 forward $121 $-1 #
coedge $-1 $314 $313 $189 $307 reversed $315 $-1 #
edge $-1 $480 -24.816626270862912 $481 24.816626270862912 $306 $482 forward 7 unknown #
coedge $-1 $191 $190 $483 $484 forward $76 $-1 #
coedge $-1 $485 $486 $190 $310 reversed $470 $-1 #
edge $-1 $317 -59.69420453505051 $487 59.69420453505051 $309 $488 forward 7 unknown #
coedge $-1 $303 $489 $191 $312 reversed $187 $-1 #
edge $-1 $490 -59.69420453505051 $316 59.69420453505051 $311 $491 forward 7 unknown #
coedge $-1 $306 $192 $489 $492 forward $315 $-1 #
coedge $-1 $192 $306 $485 $493 reversed $315 $-1 #
loop $-1 $-1 $313 $469 #
vertex $-1 $193 $494 #
vertex $-1 $193 $495 #
straight-curve $-1 59.69420453505051 0 10.941673016606845 0 1 0 I I #
face $-1 $496 $497 $46 $-1 $498 reversed single #
loop $-1 $-1 $499 $194 #
plane-surface $-1 -59.69420453505051 0 0 1 0 0 0 0 -1 forward_v I I I I #
coedge $-1 $330 $500 $324 $501 forward $195 $-1 #
coedge $-1 $200 $197 $502 $503 reversed $125 $-1 #
coedge $-1 $197 $200 $322 $501 reversed $125 $-1 #
coedge $-1 $504 $505 $197 $326 forward $506 $-1 #
edge $-1 $507 -10.941673016606845 $508 10.941673016606845 $325 $509 forward 7 unknown #
coedge $-1 $199 $198 $499 $510 reversed $79 $-1 #
coedge $-1 $502 $511 $198 $329 forward $497 $-1 #
edge $-1 $512 -31.467649959814565 $333 -24.985459190657323 $328 $513 forward 7 unknown #
coedge $-1 $514 $322 $199 $331 forward $195 $-1 #
edge $-1 $332 24.985459190657323 $515 31.467649959814565 $330 $516 forward 7 unknown #
vertex $-1 $331 $517 #
vertex $-1 $329 $518 #
straight-curve $-1 -53.212013765893268 -12.477676866300198 0 0 0 -1 I I #
face $-1 $519 $520 $47 $-1 $521 forward single #
loop $-1 $-1 $208 $202 #
plane-surface $-1 -59.69420453505051 0 0 1 0 0 0 0 -1 forward_v I I I I #
coedge $-1 $343 $522 $339 $523 forward $203 $-1 #
coedge $-1 $524 $205 $338 $523 reversed $129 $-1 #
coedge $-1 $205 $524 $525 $526 reversed $129 $-1 #
coedge $-1 $207 $206 $205 $342 reversed $82 $-1 #
edge $-1 $527 -10.941673016606845 $528 10.941673016606845 $205 $529 forward 7 unknown #
coedge $-1 $530 $338 $206 $344 forward $203 $-1 #
edge $-1 $528 24.985459190657323 $349 31.467649959814565 $343 $531 forward 7 unknown #
coedge $-1 $525 $532 $207 $346 forward $520 $-1 #
edge $-1 $350 -31.467649959814565 $527 -24.985459190657323 $345 $533 forward 7 unknown #
coedge $-1 $534 $208 $532 $535 reversed $336 $-1 #
coedge $-1 $208 $534 $530 $536 reversed $336 $-1 #
vertex $-1 $536 $537 #
vertex $-1 $209 $538 #
straight-curve $-1 -59.69420453505051 12.4776768663002 0 0 0 1 I I #
face $-1 $-1 $539 $48 $-1 $540 forward single #
loop $-1 $-1 $541 $210 #
plane-surface $-1 -59.69420453505051 0 0 1 0 0 0 0 -1 forward_v I I I I #
coedge $-1 $216 $542 $543 $544 forward $211 $-1 #
coedge $-1 $357 $213 $215 $363 reversed $133 $-1 #
coedge $-1 $213 $356 $545 $546 reversed $133 $-1 #
coedge $-1 $542 $216 $213 $359 forward $211 $-1 #
edge $-1 $365 -21.192909313130542 $547 -7.7196783403696045 $358 $548 forward 7 unknown #
coedge $-1 $215 $214 $541 $549 reversed $85 $-1 #
coedge $-1 $543 $550 $214 $362 forward $539 $-1 #
edge $-1 $551 -1.2495640835588611 $364 16.087244895299889 $361 $552 forward 7 unknown #
edge $-1 $553 2.743042963972496e-014 $365 17.336808978858777 $356 $554 forward 7 unknown #
vertex $-1 $544 $555 #
vertex $-1 $217 $556 #
straight-curve $-1 -46.220973562289572 -5.0320458923701228 10.941673016606845 0 1 0 I I #
coedge $-1 $367 $367 $-1 $557 reversed $220 $-1 #
edge $-1 $558 0 $558 6.2831853071796004 $221 $559 forward 7 unknown #
vertex $-1 $224 $560 #
ellipse-curve $-1 -52.957589048670037 -10.064091784740246 5.4864692458006461 -0.62932039886446345 0 0.77714595512881146 0.38857297756440573 0 0.31466019943223172 1 I I #
face $-1 $-1 $561 $50 $-1 $562 reversed single #
loop $-1 $-1 $231 $225 #
plane-surface $-1 0 0 10.941673016606845 0 0 1 1 0 0 forward_v I I I I #
coedge $-1 $563 $564 $565 $566 reversed $226 $-1 #
coedge $-1 $567 $228 $230 $381 forward $142 $-1 #
coedge $-1 $228 $567 $563 $568 forward $142 $-1 #
coedge $-1 $565 $231 $228 $378 forward $372 $-1 #
edge $-1 $384 -3.2864053518300089 $569 1.5407648112898933 $377 $570 forward 7 unknown #
coedge $-1 $571 $572 $229 $380 forward $561 $-1 #
edge $-1 $573 -46.375476861549231 $383 -35.465069319936831 $379 $574 forward 7 unknown #
edge $-1 $384 -17.336808978858777 $573 -2.743042963972496e-014 $230 $575 forward 7 unknown #
coedge $-1 $231 $565 $571 $576 forward $372 $-1 #
vertex $-1 $232 $577 #
vertex $-1 $232 $578 #
straight-curve $-1 -67.413882875420114 -4.1592256221000667 10.941673016606842 1 0 0 I I #
coedge $-1 $386 $386 $-1 $579 reversed $235 $-1 #
edge $-1 $580 0 $580 6.2831853071796004 $236 $581 forward 7 unknown #
vertex $-1 $239 $582 #
ellipse-curve $-1 -52.957589048670037 -1.7456405405401156 5.4864692458006461 -0.62932039886446345 0 0.77714595512881146 0.38857297756440573 0 0.31466019943223172 1 I I #
face $-1 $-1 $583 $52 $-1 $584 reversed single #
loop $-1 $-1 $246 $240 #
plane-surface $-1 0 0 10.941673016606845 0 0 1 1 0 0 forward_v I I I I #
coedge $-1 $585 $586 $587 $588 reversed $241 $-1 #
coedge $-1 $589 $243 $245 $400 forward $151 $-1 #
coedge $-1 $243 $589 $585 $590 forward $151 $-1 #
coedge $-1 $587 $246 $243 $397 forward $391 $-1 #
edge $-1 $403 0.87282027027005782 $591 5.69999043338996 $396 $592 forward 7 unknown #
coedge $-1 $593 $594 $244 $399 forward $583 $-1 #
edge $-1 $595 -46.375476861549231 $402 -35.465069319936831 $398 $596 forward 7 unknown #
edge $-1 $403 -17.336808978858777 $595 -2.743042963972496e-014 $245 $597 forward 7 unknown #
coedge $-1 $246 $587 $593 $598 forward $391 $-1 #
vertex $-1 $247 $599 #
vertex $-1 $247 $600 #
straight-curve $-1 -67.413882875420114 4.1592256221000667 10.941673016606842 1 0 0 I I #
coedge $-1 $405 $405 $-1 $601 reversed $250 $-1 #
edge $-1 $602 0 $602 6.2831853071796004 $251 $603 forward 7 unknown #
vertex $-1 $254 $604 #
ellipse-curve $-1 -52.957589048670037 6.5728107036600179 5.4864692458006461 -0.62932039886446345 0 0.77714595512881146 0.38857297756440573 0 0.31466019943223172 1 I I #
face $-1 $-1 $421 $54 $-1 $605 forward single #
loop $-1 $-1 $606 $255 #
plane-surface $-1 59.69420453505051 0 0 -1 0 0 0 0 1 forward_v I I I I #
coedge $-1 $607 $608 $609 $610 reversed $256 $-1 #
coedge $-1 $611 $258 $260 $419 forward $160 $-1 #
coedge $-1 $258 $611 $607 $612 forward $160 $-1 #
coedge $-1 $609 $261 $258 $416 forward $421 $-1 #
edge $-1 $423 2.6184608108101717 $613 7.4456309739300739 $415 $614 forward 7 unknown #
coedge $-1 $615 $616 $259 $418 forward $410 $-1 #
edge $-1 $617 -83.942257469444087 $422 -73.031849927831672 $417 $618 forward 7 unknown #
edge $-1 $423 102.05160009124222 $617 119.38840907010101 $260 $619 forward 7 unknown #
coedge $-1 $261 $609 $615 $620 forward $421 $-1 #
loop $-1 $-1 $609 $409 #
vertex $-1 $418 $621 #
vertex $-1 $262 $622 #
straight-curve $-1 21.022773276373652 -7.6505067031802945 10.941673016606842 -1 0 0 I I #
coedge $-1 $425 $425 $-1 $623 reversed $265 $-1 #
edge $-1 $624 0 $624 6.2831853071796004 $266 $625 forward 7 unknown #
vertex $-1 $269 $626 #
ellipse-curve $-1 52.95758904867003 -10.064091784740246 5.4864692458006266 0.62932039886446345 0 0.77714595512881146 0.38857297756440573 0 -0.31466019943223172 1 I I #
face $-1 $-1 $441 $56 $-1 $627 forward single #
loop $-1 $-1 $628 $270 #
plane-surface $-1 59.69420453505051 0 0 -1 0 0 0 0 1 forward_v I I I I #
coedge $-1 $629 $630 $631 $632 reversed $271 $-1 #
coedge $-1 $633 $273 $275 $439 forward $169 $-1 #
coedge $-1 $273 $633 $629 $634 forward $169 $-1 #
coedge $-1 $631 $276 $273 $436 forward $441 $-1 #
edge $-1 $443 -1.5407648112898933 $635 3.2864053518300089 $435 $636 forward 7 unknown #
coedge $-1 $637 $638 $274 $438 forward $430 $-1 #
edge $-1 $639 -83.942257469444087 $442 -73.031849927831672 $437 $640 forward 7 unknown #
edge $-1 $443 102.05160009124222 $639 119.38840907010101 $275 $641 forward 7 unknown #
coedge $-1 $276 $631 $637 $642 forward $441 $-1 #
loop $-1 $-1 $631 $429 #
vertex $-1 $438 $643 #
vertex $-1 $277 $644 #
straight-curve $-1 21.022773276373652 0.66794454101983547 10.941673016606842 -1 0 0 I I #
coedge $-1 $445 $445 $-1 $645 reversed $280 $-1 #
edge $-1 $646 0 $646 6.2831853071796004 $281 $647 forward 7 unknown #
vertex $-1 $284 $648 #
ellipse-curve $-1 52.95758904867003 -1.7456405405401156 5.4864692458006266 0.62932039886446345 0 0.77714595512881146 0.38857297756440573 0 -0.31466019943223172 1 I I #
face $-1 $-1 $461 $58 $-1 $649 forward single #
loop $-1 $-1 $650 $285 #
plane-surface $-1 59.69420453505051 0 0 -1 0 0 0 0 1 forward_v I I I I #
coedge $-1 $651 $652 $653 $654 reversed $286 $-1 #
coedge $-1 $655 $288 $290 $459 forward $178 $-1 #
coedge $-1 $288 $655 $651 $656 forward $178 $-1 #
coedge $-1 $653 $291 $288 $456 forward $461 $-1 #
edge $-1 $463 -5.69999043338996 $657 -0.87282027027005782 $455 $658 forward 7 unknown #
coedge $-1 $659 $660 $289 $458 forward $450 $-1 #
edge $-1 $661 -83.942257469444087 $462 -73.031849927831672 $457 $662 forward 7 unknown #
edge $-1 $463 102.05160009124222 $661 119.38840907010101 $290 $663 forward 7 unknown #
coedge $-1 $291 $653 $659 $664 forward $461 $-1 #
loop $-1 $-1 $653 $449 #
vertex $-1 $458 $665 #
vertex $-1 $292 $666 #
straight-curve $-1 21.022773276373652 8.986395785219969 10.941673016606842 -1 0 0 I I #
coedge $-1 $465 $465 $-1 $667 reversed $295 $-1 #
edge $-1 $668 0 $668 6.2831853071796004 $296 $669 forward 7 unknown #
vertex $-1 $299 $670 #
ellipse-curve $-1 52.95758904867003 6.5728107036600179 5.4864692458006266 0.62932039886446345 0 0.77714595512881146 0.38857297756440573 0 -0.31466019943223172 1 I I #
face $-1 $-1 $315 $45 $-1 $671 reversed single #
loop $-1 $-1 $485 $300 #
plane-surface $-1 0 24.816626270862912 0 0 -1 0 0 0 -1 forward_v I I I I #
coedge $-1 $672 $483 $486 $673 forward $301 $-1 #
coedge $-1 $489 $303 $304 $477 reversed $187 $-1 #
coedge $-1 $483 $672 $303 $475 reversed $301 $-1 #
edge $-1 $490 -10.941673016606845 $674 10.941673016606845 $474 $675 forward 7 unknown #
coedge $-1 $305 $304 $672 $676 forward $121 $-1 #
edge $-1 $481 -59.69420453505051 $674 59.69420453505051 $473 $677 forward 7 unknown #
coedge $-1 $486 $485 $305 $479 reversed $470 $-1 #
edge $-1 $678 -59.69420453505051 $480 59.69420453505051 $478 $679 forward 7 unknown #
vertex $-1 $307 $680 #
vertex $-1 $492 $681 #
straight-curve $-1 59.69420453505051 0 -10.941673016606845 0 -1 0 I I #
coedge $-1 $472 $474 $308 $484 reversed $301 $-1 #
edge $-1 $487 -24.816626270862912 $490 24.816626270862912 $483 $682 forward 7 unknown #
coedge $-1 $478 $309 $314 $493 forward $470 $-1 #
coedge $-1 $309 $478 $472 $673 reversed $470 $-1 #
vertex $-1 $310 $683 #
straight-curve $-1 0 24.816626270862912 10.941673016606845 -1 0 0 I I #
coedge $-1 $311 $473 $313 $492 reversed $187 $-1 #
vertex $-1 $484 $684 #
straight-curve $-1 0 -24.816626270862912 10.941673016606845 1 0 0 I I #
edge $-1 $316 -10.941673016606845 $481 10.941673016606845 $313 $685 forward 7 unknown #
edge $-1 $317 -10.941673016606845 $480 10.941673016606845 $314 $686 forward 7 unknown #
point $-1 59.69420453505051 -24.816626270862912 10.941673016606845 #
point $-1 59.69420453505051 24.816626270862912 10.941673016606845 #
face $-1 $-1 $506 $46 $-1 $687 reversed single #
loop $-1 $-1 $502 $319 #
plane-surface $-1 0 0 -10.941673016606845 0 0 1 1 0 0 forward_v I I I I #
coedge $-1 $688 $689 $327 $510 forward $320 $-1 #
coedge $-1 $322 $514 $504 $690 forward $195 $-1 #
edge $-1 $508 -15.493050486572134 $332 -3.1541010820094204 $322 $691 forward 7 unknown #
coedge $-1 $692 $328 $323 $503 forward $497 $-1 #
edge $-1 $333 3.1541010820094204 $507 15.493050486572134 $502 $693 forward 7 unknown #
coedge $-1 $694 $325 $500 $690 reversed $506 $-1 #
coedge $-1 $325 $694 $692 $695 reversed $506 $-1 #
loop $-1 $-1 $325 $496 #
vertex $-1 $695 $696 #
vertex $-1 $326 $697 #
straight-curve $-1 -53.212013765893268 -24.816626270862912 0 0 0 1 I I #
edge $-1 $515 -10.941673016606845 $512 10.941673016606845 $499 $698 forward 7 unknown #
coedge $-1 $328 $692 $688 $699 forward $497 $-1 #
vertex $-1 $329 $700 #
straight-curve $-1 -28.226554575235944 -12.477676866300198 -10.941673016606845 1 0 0 I I #
coedge $-1 $500 $330 $689 $701 forward $195 $-1 #
vertex $-1 $701 $702 #
straight-curve $-1 -28.226554575235944 -12.477676866300198 10.941673016606845 -1 0 0 I I #
point $-1 -53.212013765893268 -12.477676866300198 10.941673016606845 #
point $-1 -53.212013765893268 -12.477676866300198 -10.941673016606845 #
face $-1 $-1 $703 $47 $-1 $704 reversed single #
loop $-1 $-1 $525 $335 #
plane-surface $-1 0 0 10.941673016606845 0 0 1 1 0 0 forward_v I I I I #
coedge $-1 $338 $530 $705 $706 forward $203 $-1 #
edge $-1 $707 -15.493050486572134 $528 -3.1541010820094222 $338 $708 forward 7 unknown #
coedge $-1 $340 $339 $709 $710 reversed $129 $-1 #
coedge $-1 $711 $345 $340 $526 forward $520 $-1 #
edge $-1 $527 3.1541010820094222 $712 15.493050486572134 $525 $713 forward 7 unknown #
vertex $-1 $346 $714 #
vertex $-1 $344 $715 #
straight-curve $-1 -53.212013765893268 12.4776768663002 0 0 0 -1 I I #
coedge $-1 $522 $343 $348 $536 forward $203 $-1 #
straight-curve $-1 -28.226554575235944 12.4776768663002 -10.941673016606845 -1 0 0 I I #
coedge $-1 $345 $711 $347 $535 forward $520 $-1 #
straight-curve $-1 -28.226554575235944 12.4776768663002 10.941673016606845 1 0 0 I I #
coedge $-1 $348 $347 $716 $717 forward $336 $-1 #
edge $-1 $718 -24.816626270862912 $350 -12.4776768663002 $347 $719 forward 7 unknown #
edge $-1 $349 12.4776768663002 $720 24.816626270862912 $348 $721 forward 7 unknown #
point $-1 -59.69420453505051 12.4776768663002 -10.941673016606845 #
point $-1 -59.69420453505051 12.4776768663002 10.941673016606845 #
loop $-1 $-1 $361 $352 #
plane-surface $-1 -56.453109150471889 -12.477676866300198 0 0 -1 0 0 0 -1 forward_v I I I I #
coedge $-1 $722 $545 $360 $549 forward $353 $-1 #
coedge $-1 $355 $358 $723 $724 forward $211 $-1 #
coedge $-1 $550 $361 $355 $544 reversed $539 $-1 #
edge $-1 $725 -31.467649959814565 $364 -17.994418987053628 $355 $726 forward 7 unknown #
coedge $-1 $541 $723 $357 $546 forward $353 $-1 #
edge $-1 $547 35.465069319936831 $553 46.375476861549231 $545 $727 forward 7 unknown #
vertex $-1 $724 $728 #
straight-curve $-1 -67.413882875420114 -7.6505067031802945 10.941673016606842 -1 0 0 I I #
edge $-1 $553 2.6184608108101717 $551 7.4456309739300739 $541 $729 forward 7 unknown #
coedge $-1 $361 $543 $722 $730 reversed $539 $-1 #
vertex $-1 $730 $731 #
straight-curve $-1 -58.723110861838499 -12.477676866300198 0.81764164246641291 0.77714595512881146 0 0.62932039886446345 I I #
vertex $-1 $549 $732 #
straight-curve $-1 -59.694204535050531 -7.6505067031802945 0.031265474994427223 0.77714595512881146 0 0.62932039886446345 I I #
point $-1 -46.220973562289572 -12.477676866300197 10.941673016606845 #
point $-1 -46.220973562289572 -7.6505067031802945 10.941673016606845 #
edge $-1 $733 1 $733 0 $367 $-1 forward 7 unknown #
vertex $-1 $368 $734 #
ellipse-curve $-1 -51.768608124798376 -10.064091784740246 4.0182001139252934 -0.62932039886446345 0 0.77714595512881146 0.38857297756440573 0 0.31466019943223172 1 I I #
point $-1 -52.569016071105622 -10.064091784740246 5.801129445232867 #
loop $-1 $-1 $379 $371 #
plane-surface $-1 -59.69420453505051 0 0 1 0 0 0 0 -1 forward_v I I I I #
coedge $-1 $564 $374 $376 $568 reversed $226 $-1 #
coedge $-1 $374 $563 $735 $736 reversed $226 $-1 #
coedge $-1 $382 $377 $374 $566 forward $372 $-1 #
edge $-1 $569 -21.192909313130542 $737 -7.7196783403696045 $565 $738 forward 7 unknown #
coedge $-1 $376 $375 $572 $739 reversed $142 $-1 #
edge $-1 $740 2.743042963972496e-014 $569 17.336808978858777 $563 $741 forward 7 unknown #
vertex $-1 $378 $742 #
straight-curve $-1 -46.220973562289572 -0.87282027027005782 10.941673016606845 0 1 0 I I #
coedge $-1 $735 $379 $382 $576 reversed $561 $-1 #
coedge $-1 $379 $735 $567 $739 forward $561 $-1 #
vertex $-1 $380 $743 #
straight-curve $-1 -59.69420453505051 -4.1592256221000667 46.406742336543672 0 0 1 I I #
straight-curve $-1 -59.694204535050531 -4.1592256221000667 0.031265474994427223 -0.77714595512881146 0 -0.62932039886446345 I I #
edge $-1 $737 -0.66794454101983547 $383 4.1592256221000667 $571 $744 forward 7 unknown #
point $-1 -59.69420453505051 -4.1592256221000667 10.941673016606845 #
point $-1 -46.220973562289572 -4.1592256221000667 10.941673016606845 #
edge $-1 $745 1 $745 0 $386 $-1 forward 7 unknown #
vertex $-1 $387 $746 #
ellipse-curve $-1 -51.768608124798376 -1.7456405405401156 4.0182001139252934 -0.62932039886446345 0 0.77714595512881146 0.38857297756440573 0 0.31466019943223172 1 I I #
point $-1 -52.569016071105622 -1.7456405405401156 5.801129445232867 #
loop $-1 $-1 $398 $390 #
plane-surface $-1 -59.69420453505051 0 0 1 0 0 0 0 -1 forward_v I I I I #
coedge $-1 $586 $393 $395 $590 reversed $241 $-1 #
coedge $-1 $393 $585 $747 $748 reversed $241 $-1 #
coedge $-1 $401 $396 $393 $588 forward $391 $-1 #
edge $-1 $591 -21.192909313130542 $749 -7.7196783403696045 $587 $750 forward 7 unknown #
coedge $-1 $395 $394 $594 $751 reversed $151 $-1 #
edge $-1 $752 2.743042963972496e-014 $591 17.336808978858777 $585 $753 forward 7 unknown #
vertex $-1 $397 $754 #
straight-curve $-1 -46.220973562289572 3.2864053518300089 10.941673016606845 0 1 0 I I #
coedge $-1 $747 $398 $401 $598 reversed $583 $-1 #
coedge $-1 $398 $747 $589 $751 forward $583 $-1 #
vertex $-1 $399 $755 #
straight-curve $-1 -59.69420453505051 4.1592256221000667 46.406742336543672 0 0 1 I I #
straight-curve $-1 -59.694204535050531 4.1592256221000667 0.031265474994427223 -0.77714595512881146 0 -0.62932039886446345 I I #
edge $-1 $749 -8.986395785219969 $402 -4.1592256221000667 $593 $756 forward 7 unknown #
point $-1 -59.69420453505051 4.1592256221000667 10.941673016606845 #
point $-1 -46.220973562289572 4.1592256221000667 10.941673016606845 #
edge $-1 $757 1 $757 0 $405 $-1 forward 7 unknown #
vertex $-1 $406 $758 #
ellipse-curve $-1 -51.768608124798376 6.5728107036600179 4.0182001139252934 -0.62932039886446345 0 0.77714595512881146 0.38857297756440573 0 0.31466019943223172 1 I I #
point $-1 -52.569016071105622 6.5728107036600179 5.801129445232867 #
plane-surface $-1 0 0 10.941673016606845 0 0 1 1 0 0 forward_v I I I I #
coedge $-1 $616 $615 $608 $759 forward $410 $-1 #
coedge $-1 $608 $412 $414 $612 reversed $256 $-1 #
coedge $-1 $412 $607 $606 $759 reversed $256 $-1 #
coedge $-1 $420 $415 $412 $610 forward $421 $-1 #
edge $-1 $613 25.198200285915899 $760 38.671431258676861 $609 $761 forward 7 unknown #
coedge $-1 $414 $413 $616 $762 reversed $160 $-1 #
edge $-1 $763 -119.38840907010101 $613 -102.05160009124222 $607 $764 forward 7 unknown #
vertex $-1 $416 $765 #
straight-curve $-1 46.220973562289544 -5.0320458923701228 10.941673016606842 0 -1 0 I I #
coedge $-1 $606 $417 $420 $620 reversed $410 $-1 #
coedge $-1 $417 $606 $611 $762 forward $410 $-1 #
vertex $-1 $418 $766 #
straight-curve $-1 59.69420453505051 -7.6505067031802945 83.973522944438514 0 0 1 I I #
straight-curve $-1 -33.088014663042394 -7.6505067031802945 75.16482669078411 0.77714595512881146 0 -0.62932039886446345 I I #
edge $-1 $760 -12.477676866300197 $422 -7.6505067031802945 $615 $767 forward 7 unknown #
point $-1 59.69420453505051 -7.6505067031802945 10.941673016606845 #
point $-1 46.220973562289551 -7.6505067031802945 10.941673016606842 #
edge $-1 $768 1 $768 0 $425 $-1 forward 7 unknown #
vertex $-1 $426 $769 #
ellipse-curve $-1 51.768608124798376 -10.064091784740246 4.0182001139252845 0.62932039886446345 0 0.77714595512881146 0.38857297756440573 0 -0.31466019943223172 1 I I #
point $-1 53.346162026234438 -10.064091784740246 5.1718090463683941 #
plane-surface $-1 0 0 10.941673016606845 0 0 1 1 0 0 forward_v I I I I #
coedge $-1 $638 $637 $630 $770 forward $430 $-1 #
coedge $-1 $630 $432 $434 $634 reversed $271 $-1 #
coedge $-1 $432 $629 $628 $770 reversed $271 $-1 #
coedge $-1 $440 $435 $432 $632 forward $441 $-1 #
edge $-1 $635 25.198200285915899 $771 38.671431258676861 $631 $772 forward 7 unknown #
coedge $-1 $434 $433 $638 $773 reversed $169 $-1 #
edge $-1 $774 -119.38840907010101 $635 -102.05160009124222 $629 $775 forward 7 unknown #
vertex $-1 $436 $776 #
straight-curve $-1 46.220973562289544 -0.87282027027005782 10.941673016606842 0 -1 0 I I #
coedge $-1 $628 $437 $440 $642 reversed $430 $-1 #
coedge $-1 $437 $628 $633 $773 forward $430 $-1 #
vertex $-1 $438 $777 #
straight-curve $-1 59.69420453505051 0.66794454101983547 83.973522944438514 0 0 1 I I #
straight-curve $-1 -33.088014663042394 0.66794454101983547 75.16482669078411 0.77714595512881146 0 -0.62932039886446345 I I #
edge $-1 $771 -4.1592256221000667 $442 0.66794454101983547 $637 $778 forward 7 unknown #
point $-1 59.69420453505051 0.66794454101983547 10.941673016606845 #
point $-1 46.220973562289551 0.66794454101983547 10.941673016606842 #
edge $-1 $779 1 $779 0 $445 $-1 forward 7 unknown #
vertex $-1 $446 $780 #
ellipse-curve $-1 51.768608124798376 -1.7456405405401156 4.0182001139252845 0.62932039886446345 0 0.77714595512881146 0.38857297756440573 0 -0.31466019943223172 1 I I #
point $-1 53.346162026234438 -1.7456405405401156 5.1718090463683941 #
plane-surface $-1 0 0 10.941673016606845 0 0 1 1 0 0 forward_v I I I I #
coedge $-1 $660 $659 $652 $781 forward $450 $-1 #
coedge $-1 $652 $452 $454 $656 reversed $286 $-1 #
coedge $-1 $452 $651 $650 $781 reversed $286 $-1 #
coedge $-1 $460 $455 $452 $654 forward $461 $-1 #
edge $-1 $657 25.198200285915899 $782 38.671431258676861 $653 $783 forward 7 unknown #
coedge $-1 $454 $453 $660 $784 reversed $178 $-1 #
edge $-1 $785 -119.38840907010101 $657 -102.05160009124222 $651 $786 forward 7 unknown #
vertex $-1 $456 $787 #
straight-curve $-1 46.220973562289544 3.2864053518300089 10.941673016606842 0 -1 0 I I #
coedge $-1 $650 $457 $460 $664 reversed $450 $-1 #
coedge $-1 $457 $650 $655 $784 forward $450 $-1 #
vertex $-1 $458 $788 #
straight-curve $-1 59.69420453505051 8.986395785219969 83.973522944438514 0 0 1 I I #
straight-curve $-1 -33.088014663042394 8.986395785219969 75.16482669078411 0.77714595512881146 0 -0.62932039886446345 I I #
edge $-1 $782 4.1592256221000667 $462 8.986395785219969 $659 $789 forward 7 unknown #
point $-1 59.69420453505051 8.986395785219969 10.941673016606845 #
point $-1 46.220973562289551 8.986395785219969 10.941673016606842 #
edge $-1 $790 1 $790 0 $465 $-1 forward 7 unknown #
vertex $-1 $466 $791 #
ellipse-curve $-1 51.768608124798376 6.5728107036600179 4.0182001139252845 0.62932039886446345 0 0.77714595512881146 0.38857297756440573 0 -0.31466019943223172 1 I I #
point $-1 53.346162026234438 6.5728107036600179 5.1718090463683941 #
plane-surface $-1 59.69420453505051 0 0 -1 0 0 0 0 1 forward_v I I I I #
coedge $-1 $474 $472 $476 $676 reversed $301 $-1 #
edge $-1 $487 -10.941673016606845 $678 10.941673016606845 $486 $792 forward 7 unknown #
vertex $-1 $676 $793 #
straight-curve $-1 -59.69420453505051 -24.816626270862912 0 0 0 -1 I I #
edge $-1 $674 -24.816626270862912 $678 24.816626270862912 $672 $794 forward 7 unknown #
straight-curve $-1 0 -24.816626270862912 -10.941673016606845 -1 0 0 I I #
vertex $-1 $479 $795 #
straight-curve $-1 0 24.816626270862912 -10.941673016606845 1 0 0 I I #
point $-1 59.69420453505051 24.816626270862912 -10.941673016606845 #
point $-1 59.69420453505051 -24.816626270862912 -10.941673016606845 #
straight-curve $-1 -59.69420453505051 0 10.941673016606845 0 -1 0 I I #
point $-1 -59.69420453505051 24.816626270862912 10.941673016606845 #
point $-1 -59.69420453505051 -24.816626270862912 10.941673016606845 #
straight-curve $-1 59.69420453505051 -24.816626270862912 0 0 0 -1 I I #
straight-curve $-1 59.69420453505051 24.816626270862912 0 0 0 -1 I I #
plane-surface $-1 0 -24.816626270862912 0 0 1 0 0 0 1 forward_v I I I I #
coedge $-1 $796 $499 $511 $699 reversed $320 $-1 #
coedge $-1 $499 $796 $514 $701 reversed $320 $-1 #
edge $-1 $797 -59.69420453505051 $508 -53.212013765893268 $504 $798 forward 7 unknown #
straight-curve $-1 -53.212013765893268 -9.323575784290778 10.941673016606845 0 1 0 I I #
coedge $-1 $511 $502 $505 $695 forward $497 $-1 #
straight-curve $-1 -53.212013765893268 -9.323575784290778 -10.941673016606845 0 -1 0 I I #
coedge $-1 $505 $504 $796 $799 forward $506 $-1 #
edge $-1 $507 53.212013765893268 $800 59.69420453505051 $505 $801 forward 7 unknown #
point $-1 -53.212013765893268 -24.816626270862912 -10.941673016606845 #
point $-1 -53.212013765893268 -24.816626270862912 10.941673016606845 #
straight-curve $-1 -59.69420453505051 -12.477676866300198 0 0 0 -1 I I #
edge $-1 $800 -24.816626270862912 $512 -12.477676866300198 $688 $802 forward 7 unknown #
point $-1 -59.69420453505051 -12.477676866300198 -10.941673016606845 #
edge $-1 $515 12.477676866300198 $797 24.816626270862912 $689 $803 forward 7 unknown #
point $-1 -59.69420453505051 -12.477676866300198 10.941673016606845 #
loop $-1 $-1 $709 $519 #
plane-surface $-1 0 24.816626270862912 0 0 -1 0 0 0 -1 forward_v I I I I #
coedge $-1 $716 $709 $522 $706 reversed $703 $-1 #
edge $-1 $720 -59.69420453505051 $707 -53.212013765893268 $705 $804 forward 7 unknown #
vertex $-1 $523 $805 #
straight-curve $-1 -53.212013765893268 9.323575784290778 -10.941673016606845 0 -1 0 I I #
coedge $-1 $705 $806 $524 $710 forward $703 $-1 #
edge $-1 $712 -10.941673016606845 $707 10.941673016606845 $709 $807 forward 7 unknown #
coedge $-1 $532 $525 $806 $808 forward $520 $-1 #
vertex $-1 $808 $809 #
straight-curve $-1 -53.212013765893268 9.323575784290778 10.941673016606845 0 1 0 I I #
point $-1 -53.212013765893268 12.4776768663002 10.941673016606845 #
point $-1 -53.212013765893268 12.4776768663002 -10.941673016606845 #
coedge $-1 $806 $705 $534 $717 reversed $703 $-1 #
edge $-1 $718 -10.941673016606845 $720 10.941673016606845 $716 $810 forward 7 unknown #
vertex $-1 $808 $811 #
straight-curve $-1 -59.69420453505051 0 10.941673016606845 0 -1 0 I I #
vertex $-1 $706 $812 #
straight-curve $-1 -59.69420453505051 0 -10.941673016606845 0 1 0 I I #
coedge $-1 $723 $541 $550 $730 forward $353 $-1 #
coedge $-1 $545 $722 $542 $724 reversed $353 $-1 #
edge $-1 $547 7.6505067031802945 $725 12.477676866300198 $723 $813 forward 7 unknown #
vertex $-1 $730 $814 #
straight-curve $-1 -28.226554575235944 -12.477676866300198 10.941673016606845 1 0 0 I I #
straight-curve $-1 -59.69420453505051 -7.6505067031802945 46.406742336543672 0 0 -1 I I #
point $-1 -59.69420453505051 -7.6505067031802945 10.941673016606845 #
straight-curve $-1 -59.69420453505051 -5.0320458923701228 0.03126547499443879 0 -1 0 I I #
edge $-1 $551 0.031265474994444487 $725 10.941673016606845 $722 $815 forward 7 unknown #
point $-1 -59.69420453505051 -12.477676866300197 0.031265474994444487 #
point $-1 -59.69420453505051 -7.6505067031802945 0.031265474994444487 #
vertex $-1 $557 $816 #
point $-1 -51.380035147233976 -10.064091784740246 4.332860313357525 #
coedge $-1 $572 $571 $564 $736 forward $561 $-1 #
edge $-1 $737 35.465069319936831 $740 46.375476861549231 $735 $817 forward 7 unknown #
vertex $-1 $576 $818 #
straight-curve $-1 -67.413882875420114 0.66794454101983547 10.941673016606842 -1 0 0 I I #
edge $-1 $740 -1.5407648112898933 $573 3.2864053518300089 $572 $819 forward 7 unknown #
vertex $-1 $739 $820 #
straight-curve $-1 -59.694204535050531 0.66794454101983547 0.031265474994427223 0.77714595512881146 0 0.62932039886446345 I I #
point $-1 -46.220973562289572 0.66794454101983547 10.941673016606845 #
point $-1 -59.69420453505051 -4.1592256221000667 0.031265474994444487 #
straight-curve $-1 -59.69420453505051 0 10.941673016606845 0 -1 0 I I #
vertex $-1 $579 $821 #
point $-1 -51.380035147233976 -1.7456405405401156 4.332860313357525 #
coedge $-1 $594 $593 $586 $748 forward $583 $-1 #
edge $-1 $749 35.465069319936831 $752 46.375476861549231 $747 $822 forward 7 unknown #
vertex $-1 $598 $823 #
straight-curve $-1 -67.413882875420114 8.986395785219969 10.941673016606842 -1 0 0 I I #
edge $-1 $752 -5.69999043338996 $595 -0.87282027027005782 $594 $824 forward 7 unknown #
vertex $-1 $751 $825 #
straight-curve $-1 -59.694204535050531 8.986395785219969 0.031265474994427223 0.77714595512881146 0 0.62932039886446345 I I #
point $-1 -46.220973562289572 8.986395785219969 10.941673016606845 #
point $-1 -59.69420453505051 4.1592256221000667 0.031265474994444487 #
straight-curve $-1 -59.69420453505051 0 10.941673016606845 0 -1 0 I I #
vertex $-1 $601 $826 #
point $-1 -51.380035147233976 6.5728107036600179 4.332860313357525 #
edge $-1 $760 73.031849927831672 $763 83.942257469444087 $606 $827 forward 7 unknown #
vertex $-1 $620 $828 #
straight-curve $-1 21.022773276373652 -12.477676866300197 10.941673016606842 1 0 0 I I #
edge $-1 $763 -7.4456309739300739 $617 -2.6184608108101717 $616 $829 forward 7 unknown #
vertex $-1 $762 $830 #
straight-curve $-1 -33.088014663042394 -12.477676866300197 75.16482669078411 -0.77714595512881146 0 0.62932039886446345 I I #
point $-1 46.220973562289551 -12.477676866300197 10.941673016606842 #
point $-1 59.69420453505051 -7.6505067031802945 0.031265474994427223 #
straight-curve $-1 59.69420453505051 0 10.941673016606845 0 1 0 I I #
vertex $-1 $623 $831 #
point $-1 52.157181102362784 -10.064091784740246 3.7035399144930525 #
edge $-1 $771 73.031849927831672 $774 83.942257469444087 $628 $832 forward 7 unknown #
vertex $-1 $642 $833 #
straight-curve $-1 21.022773276373652 -4.1592256221000667 10.941673016606842 1 0 0 I I #
edge $-1 $774 -3.2864053518300089 $639 1.5407648112898933 $638 $834 forward 7 unknown #
vertex $-1 $773 $835 #
straight-curve $-1 -33.088014663042394 -4.1592256221000667 75.16482669078411 -0.77714595512881146 0 0.62932039886446345 I I #
point $-1 46.220973562289551 -4.1592256221000667 10.941673016606842 #
point $-1 59.69420453505051 0.66794454101983547 0.031265474994427223 #
straight-curve $-1 59.69420453505051 0 10.941673016606845 0 1 0 I I #
vertex $-1 $645 $836 #
point $-1 52.157181102362784 -1.7456405405401156 3.7035399144930525 #
edge $-1 $782 73.031849927831672 $785 83.942257469444087 $650 $837 forward 7 unknown #
vertex $-1 $664 $838 #
straight-curve $-1 21.022773276373652 4.1592256221000667 10.941673016606842 1 0 0 I I #
edge $-1 $785 0.87282027027005782 $661 5.69999043338996 $660 $839 forward 7 unknown #
vertex $-1 $784 $840 #
straight-curve $-1 -33.088014663042394 4.1592256221000667 75.16482669078411 -0.77714595512881146 0 0.62932039886446345 I I #
point $-1 46.220973562289551 4.1592256221000667 10.941673016606842 #
point $-1 59.69420453505051 8.986395785219969 0.031265474994427223 #
straight-curve $-1 59.69420453505051 0 10.941673016606845 0 1 0 I I #
vertex $-1 $667 $841 #
point $-1 52.157181102362784 6.5728107036600179 3.7035399144930525 #
straight-curve $-1 -59.69420453505051 24.816626270862912 0 0 0 -1 I I #
point $-1 -59.69420453505051 -24.816626270862912 -10.941673016606845 #
straight-curve $-1 -59.69420453505051 0 -10.941673016606845 0 1 0 I I #
point $-1 -59.69420453505051 24.816626270862912 -10.941673016606845 #
coedge $-1 $689 $688 $694 $799 reversed $320 $-1 #
vertex $-1 $701 $842 #
straight-curve $-1 0 -24.816626270862912 10.941673016606845 1 0 0 I I #
edge $-1 $797 -10.941673016606845 $800 10.941673016606845 $796 $843 forward 7 unknown #
vertex $-1 $699 $844 #
straight-curve $-1 0 -24.816626270862912 -10.941673016606845 -1 0 0 I I #
straight-curve $-1 -59.69420453505051 0 -10.941673016606845 0 1 0 I I #
straight-curve $-1 -59.69420453505051 0 10.941673016606845 0 -1 0 I I #
straight-curve $-1 0 24.816626270862912 -10.941673016606845 1 0 0 I I #
point $-1 -53.212013765893268 24.816626270862912 -10.941673016606845 #
coedge $-1 $709 $716 $711 $808 reversed $703 $-1 #
straight-curve $-1 -53.212013765893268 24.816626270862912 0 0 0 -1 I I #
edge $-1 $712 53.212013765893268 $718 59.69420453505051 $806 $845 forward 7 unknown #
point $-1 -53.212013765893268 24.816626270862912 10.941673016606845 #
straight-curve $-1 -59.69420453505051 24.816626270862912 0 0 0 -1 I I #
point $-1 -59.69420453505051 24.816626270862912 10.941673016606845 #
point $-1 -59.69420453505051 24.816626270862912 -10.941673016606845 #
straight-curve $-1 -59.69420453505051 0 10.941673016606845 0 -1 0 I I #
point $-1 -59.69420453505051 -12.477676866300198 10.941673016606845 #
straight-curve $-1 -59.69420453505051 -12.477676866300198 0 0 0 1 I I #
point $-1 -51.453947925366151 -10.064091784740246 3.6296271363608876 #
straight-curve $-1 -59.69420453505051 0.66794454101983547 46.406742336543672 0 0 -1 I I #
point $-1 -59.69420453505051 0.66794454101983547 10.941673016606845 #
straight-curve $-1 -59.69420453505051 -0.87282027027005782 0.03126547499443879 0 -1 0 I I #
point $-1 -59.69420453505051 0.66794454101983547 0.031265474994444487 #
point $-1 -51.453947925366151 -1.7456405405401156 3.6296271363608876 #
straight-curve $-1 -59.69420453505051 8.986395785219969 46.406742336543672 0 0 -1 I I #
point $-1 -59.69420453505051 8.986395785219969 10.941673016606845 #
straight-curve $-1 -59.69420453505051 3.2864053518300089 0.03126547499443879 0 -1 0 I I #
point $-1 -59.69420453505051 8.986395785219969 0.031265474994444487 #
point $-1 -51.453947925366151 6.5728107036600179 3.6296271363608876 #
straight-curve $-1 59.69420453505051 -12.477676866300197 83.973522944438514 0 0 -1 I I #
point $-1 59.69420453505051 -12.477676866300197 10.941673016606845 #
straight-curve $-1 59.69420453505051 -5.0320458923701228 0.031265474994420117 0 1 0 I I #
point $-1 59.69420453505051 -12.477676866300197 0.031265474994427223 #
point $-1 51.453947925366151 -10.064091784740246 3.6296271363608787 #
straight-curve $-1 59.69420453505051 -4.1592256221000667 83.973522944438514 0 0 -1 I I #
point $-1 59.69420453505051 -4.1592256221000667 10.941673016606845 #
straight-curve $-1 59.69420453505051 -0.87282027027005782 0.031265474994420117 0 1 0 I I #
point $-1 59.69420453505051 -4.1592256221000667 0.031265474994427223 #
point $-1 51.453947925366151 -1.7456405405401156 3.6296271363608787 #
straight-curve $-1 59.69420453505051 4.1592256221000667 83.973522944438514 0 0 -1 I I #
point $-1 59.69420453505051 4.1592256221000667 10.941673016606845 #
straight-curve $-1 59.69420453505051 3.2864053518300089 0.031265474994420117 0 1 0 I I #
point $-1 59.69420453505051 4.1592256221000667 0.031265474994427223 #
point $-1 51.453947925366151 6.5728107036600179 3.6296271363608787 #
point $-1 -59.69420453505051 -24.816626270862912 10.941673016606845 #
straight-curve $-1 -59.69420453505051 -24.816626270862912 0 0 0 -1 I I #
point $-1 -59.69420453505051 -24.816626270862912 -10.941673016606845 #
straight-curve $-1 0 24.816626270862912 10.941673016606845 -1 0 0 I I #
End-of-ACIS-data 