500 0 21 0           
7 Unknown 11 ACIS 5.0 NT 24 Thu Mar 25 22:20:04 1999 
-1 9.9999999999999995e-007 1e-010 
body $-1 $21 $-1 $22 #
body $-1 $23 $-1 $24 #
body $-1 $25 $-1 $26 #
body $-1 $27 $-1 $28 #
body $-1 $29 $-1 $30 #
body $-1 $31 $-1 $32 #
body $-1 $33 $-1 $34 #
body $-1 $35 $-1 $36 #
body $-1 $37 $-1 $38 #
body $-1 $39 $-1 $40 #
body $-1 $41 $-1 $42 #
body $-1 $43 $-1 $44 #
body $-1 $45 $-1 $46 #
body $-1 $47 $-1 $48 #
body $-1 $49 $-1 $50 #
body $-1 $51 $-1 $52 #
body $-1 $53 $-1 $54 #
body $-1 $55 $-1 $56 #
body $-1 $57 $-1 $58 #
body $-1 $59 $-1 $60 #
body $-1 $61 $-1 $62 #
lump $-1 $-1 $63 $0 #
transform $-1 1 0 0 0 1 0 0 0 1 50.387279885250408 28.037083627912732 9.6493362068147075 1 rotate no_reflect no_shear #
lump $-1 $-1 $64 $1 #
transform $-1 1 0 0 0 1 0 0 0 1 50.387279885250408 28.037083627912732 9.6493362068147075 1 rotate no_reflect no_shear #
lump $-1 $-1 $65 $2 #
transform $-1 1 0 0 0 1 0 0 0 1 50.387279885250408 28.037083627912732 9.6493362068147075 1 rotate no_reflect no_shear #
lump $-1 $-1 $66 $3 #
transform $-1 1 0 0 0 1 0 0 0 1 50.387279885250408 28.037083627912732 9.6493362068147075 1 rotate no_reflect no_shear #
lump $-1 $-1 $67 $4 #
transform $-1 1 0 0 0 1 0 0 0 1 50.387279885250408 28.037083627912732 9.6493362068147075 1 rotate no_reflect no_shear #
lump $-1 $-1 $68 $5 #
transform $-1 1 0 0 0 1 0 0 0 1 50.387279885250408 28.037083627912732 9.6493362068147075 1 rotate no_reflect no_shear #
lump $-1 $-1 $69 $6 #
transform $-1 1 0 0 0 1 0 0 0 1 50.387279885250408 28.037083627912732 9.6493362068147075 1 rotate no_reflect no_shear #
lump $-1 $-1 $70 $7 #
transform $-1 1 0 0 0 1 0 0 0 1 50.387279885250408 28.037083627912732 9.6493362068147075 1 rotate no_reflect no_shear #
lump $-1 $-1 $71 $8 #
transform $-1 1 0 0 0 1 0 0 0 1 50.387279885250408 28.037083627912732 9.6493362068147075 1 rotate no_reflect no_shear #
lump $-1 $-1 $72 $9 #
transform $-1 1 0 0 0 1 0 0 0 1 50.387279885250408 28.037083627912732 9.6493362068147075 1 rotate no_reflect no_shear #
lump $-1 $-1 $73 $10 #
transform $-1 1 0 0 0 1 0 0 0 1 50.387279885250408 28.037083627912732 9.6493362068147075 1 rotate no_reflect no_shear #
lump $-1 $-1 $74 $11 #
transform $-1 1 0 0 0 1 0 0 0 1 50.387279885250408 28.037083627912732 9.6493362068147075 1 rotate no_reflect no_shear #
lump $-1 $-1 $75 $12 #
transform $-1 1 0 0 0 1 0 0 0 1 50.387279885250408 28.037083627912732 9.6493362068147075 1 rotate no_reflect no_shear #
lump $-1 $-1 $76 $13 #
transform $-1 1 0 0 0 1 0 0 0 1 50.387279885250408 28.037083627912732 9.6493362068147075 1 rotate no_reflect no_shear #
lump $-1 $-1 $77 $14 #
transform $-1 1 0 0 0 1 0 0 0 1 50.387279885250408 28.037083627912732 9.6493362068147075 1 rotate no_reflect no_shear #
lump $-1 $-1 $78 $15 #
transform $-1 1 0 0 0 1 0 0 0 1 50.387279885250408 28.037083627912732 9.6493362068147075 1 rotate no_reflect no_shear #
lump $-1 $-1 $79 $16 #
transform $-1 1 0 0 0 1 0 0 0 1 50.387279885250408 28.037083627912732 9.6493362068147075 1 rotate no_reflect no_shear #
lump $-1 $-1 $80 $17 #
transform $-1 1 0 0 0 1 0 0 0 1 50.387279885250408 28.037083627912732 9.6493362068147075 1 rotate no_reflect no_shear #
lump $-1 $-1 $81 $18 #
transform $-1 1 0 0 0 1 0 0 0 1 50.387279885250408 28.037083627912732 9.6493362068147075 1 rotate no_reflect no_shear #
lump $-1 $-1 $82 $19 #
transform $-1 1 0 0 0 1 0 0 0 1 50.387279885250408 28.037083627912732 9.6493362068147075 1 rotate no_reflect no_shear #
lump $-1 $-1 $83 $20 #
transform $-1 1 0 0 0 1 0 0 0 1 50.387279885250408 28.037083627912732 9.6493362068147075 1 rotate no_reflect no_shear #
shell $-1 $-1 $-1 $84 $-1 $21 #
shell $-1 $-1 $-1 $85 $-1 $23 #
shell $-1 $-1 $-1 $86 $-1 $25 #
shell $-1 $-1 $-1 $87 $-1 $27 #
shell $-1 $-1 $-1 $88 $-1 $29 #
shell $-1 $-1 $-1 $89 $-1 $31 #
shell $-1 $-1 $-1 $90 $-1 $33 #
shell $-1 $-1 $-1 $91 $-1 $35 #
shell $-1 $-1 $-1 $92 $-1 $37 #
shell $-1 $-1 $-1 $93 $-1 $39 #
shell $-1 $-1 $-1 $94 $-1 $41 #
shell $-1 $-1 $-1 $95 $-1 $43 #
shell $-1 $-1 $-1 $96 $-1 $45 #
shell $-1 $-1 $-1 $97 $-1 $47 #
shell $-1 $-1 $-1 $98 $-1 $49 #
shell $-1 $-1 $-1 $99 $-1 $51 #
shell $-1 $-1 $-1 $100 $-1 $53 #
shell $-1 $-1 $-1 $101 $-1 $55 #
shell $-1 $-1 $-1 $102 $-1 $57 #
shell $-1 $-1 $-1 $103 $-1 $59 #
shell $-1 $-1 $-1 $104 $-1 $61 #
face $-1 $105 $106 $63 $-1 $107 forward single #
face $-1 $108 $109 $64 $-1 $110 forward single #
face $-1 $111 $112 $65 $-1 $113 reversed single #
face $-1 $114 $115 $66 $-1 $116 forward single #
face $-1 $117 $118 $67 $-1 $119 forward single #
face $-1 $120 $121 $68 $-1 $122 forward single #
face $-1 $123 $124 $69 $-1 $125 reversed single #
face $-1 $126 $127 $70 $-1 $128 forward single #
face $-1 $129 $130 $71 $-1 $131 forward single #
face $-1 $132 $133 $72 $-1 $134 forward single #
face $-1 $135 $136 $73 $-1 $137 reversed single #
face $-1 $138 $139 $74 $-1 $140 forward single #
face $-1 $141 $142 $75 $-1 $143 forward single #
face $-1 $144 $145 $76 $-1 $146 forward single #
face $-1 $147 $148 $77 $-1 $149 reversed single #
face $-1 $150 $151 $78 $-1 $152 forward single #
face $-1 $153 $154 $79 $-1 $155 forward single #
face $-1 $156 $157 $80 $-1 $158 forward single #
face $-1 $159 $160 $81 $-1 $161 reversed single #
face $-1 $162 $163 $82 $-1 $164 forward single #
face $-1 $165 $166 $83 $-1 $167 forward single #
face $-1 $168 $169 $63 $-1 $170 reversed single #
loop $-1 $-1 $171 $84 #
plane-surface $-1 0 0 9.6493362068147075 0 0 1 1 0 0 forward_v I I I I #
face $-1 $172 $173 $64 $-1 $174 reversed single #
loop $-1 $-1 $175 $85 #
plane-surface $-1 -45.299835446584197 0 -6.0180619135857842 0 0 1 1 0 0 forward_v I I I I #
face $-1 $176 $177 $65 $-1 $178 reversed single #
loop $-1 $-1 $179 $86 #
plane-surface $-1 -32.253299165302209 -112.55374171172087 56.854360624551802 1 0 0 0 0.83867057594974714 -0.54463902268945019 forward_v I I I I #
face $-1 $180 $181 $66 $-1 $182 forward single #
loop $-1 $183 $184 $87 #
cone-surface $-1 -30.409536277589222 -25.093499892780592 5.5169825575632068 0 0.83867057594974714 -0.54463902268945019 0.5 0 0 1 I I 0 1 0.5 forward I I I I #
face $-1 $185 $186 $67 $-1 $187 forward single #
loop $-1 $188 $189 $88 #
cone-surface $-1 -27.643891946019739 -25.093499892780592 5.5169825575632068 0 0.83867057594974714 -0.54463902268945019 0.5 0 0 1 I I 0 1 0.5 forward I I I I #
face $-1 $190 $191 $68 $-1 $192 forward single #
loop $-1 $193 $194 $89 #
cone-surface $-1 -24.878247614450256 -25.093499892780592 5.5169825575632068 0 0.83867057594974714 -0.54463902268945019 0.5 0 0 1 I I 0 1 0.5 forward I I I I #
face $-1 $195 $196 $69 $-1 $197 reversed single #
loop $-1 $-1 $198 $90 #
plane-surface $-1 -10.432408242178244 -112.55374171172087 56.854360624551802 1 0 0 0 0.83867057594974714 -0.54463902268945019 forward_v I I I I #
face $-1 $199 $200 $70 $-1 $201 forward single #
loop $-1 $202 $203 $91 #
cone-surface $-1 -8.5886453544652568 -25.093499892780592 5.5169825575632068 0 0.83867057594974714 -0.54463902268945019 0.5 0 0 1 I I 0 1 0.5 forward I I I I #
face $-1 $204 $205 $71 $-1 $206 forward single #
loop $-1 $207 $208 $92 #
cone-surface $-1 -5.8230010228957738 -25.093499892780592 5.5169825575632068 0 0.83867057594974714 -0.54463902268945019 0.5 0 0 1 I I 0 1 0.5 forward I I I I #
face $-1 $209 $210 $72 $-1 $211 forward single #
loop $-1 $212 $213 $93 #
cone-surface $-1 -3.0573566913262908 -25.093499892780592 5.5169825575632068 0 0.83867057594974714 -0.54463902268945019 0.5 0 0 1 I I 0 1 0.5 forward I I I I #
face $-1 $214 $215 $73 $-1 $216 reversed single #
loop $-1 $-1 $217 $94 #
plane-surface $-1 11.388482680945717 -112.55374171172087 56.854360624551802 1 0 0 0 0.83867057594974714 -0.54463902268945019 forward_v I I I I #
face $-1 $218 $219 $74 $-1 $220 forward single #
loop $-1 $221 $222 $95 #
cone-surface $-1 13.232245568658712 -25.093499892780592 5.5169825575632068 0 0.83867057594974714 -0.54463902268945019 0.5 0 0 1 I I 0 1 0.5 forward I I I I #
face $-1 $223 $224 $75 $-1 $225 forward single #
loop $-1 $226 $227 $96 #
cone-surface $-1 15.997889900228188 -25.093499892780592 5.5169825575632068 0 0.83867057594974714 -0.54463902268945019 0.5 0 0 1 I I 0 1 0.5 forward I I I I #
face $-1 $228 $229 $76 $-1 $230 forward single #
loop $-1 $231 $232 $97 #
cone-surface $-1 18.763534231797678 -25.093499892780592 5.5169825575632068 0 0.83867057594974714 -0.54463902268945019 0.5 0 0 1 I I 0 1 0.5 forward I I I I #
face $-1 $233 $234 $77 $-1 $235 reversed single #
loop $-1 $-1 $236 $98 #
plane-surface $-1 33.209373604069683 -112.55374171172087 56.854360624551802 1 0 0 0 0.83867057594974714 -0.54463902268945019 forward_v I I I I #
face $-1 $237 $238 $78 $-1 $239 forward single #
loop $-1 $240 $241 $99 #
cone-surface $-1 35.053136491782681 -25.093499892780592 5.5169825575632068 0 0.83867057594974714 -0.54463902268945019 0.5 0 0 1 I I 0 1 0.5 forward I I I I #
face $-1 $242 $243 $79 $-1 $244 forward single #
loop $-1 $245 $246 $100 #
cone-surface $-1 37.818780823352157 -25.093499892780592 5.5169825575632068 0 0.83867057594974714 -0.54463902268945019 0.5 0 0 1 I I 0 1 0.5 forward I I I I #
face $-1 $247 $248 $80 $-1 $249 forward single #
loop $-1 $250 $251 $101 #
cone-surface $-1 40.584425154921647 -25.093499892780592 5.5169825575632068 0 0.83867057594974714 -0.54463902268945019 0.5 0 0 1 I I 0 1 0.5 forward I I I I #
face $-1 $252 $253 $81 $-1 $254 reversed single #
loop $-1 $-1 $255 $102 #
plane-surface $-1 26.408821977787397 72.92581730093967 107.80193931035656 1 0 0 0 -0.78801076186113728 -0.61566146476048833 forward_v I I I I #
face $-1 $256 $257 $82 $-1 $258 forward single #
loop $-1 $259 $260 $103 #
cone-surface $-1 30.618602603962728 22.000262477470031 3.3593951375793942 0 -0.78801076186113728 -0.61566146476048833 2 0 0 1 I I 0 1 2 forward I I I I #
face $-1 $261 $262 $83 $-1 $263 forward single #
loop $-1 $264 $265 $104 #
cone-surface $-1 36.933273543225724 22.000262477470031 3.3593951375793942 0 -0.78801076186113728 -0.61566146476048833 2 0 0 1 I I 0 1 2 forward I I I I #
face $-1 $266 $267 $63 $-1 $268 reversed single #
loop $-1 $-1 $269 $105 #
plane-surface $-1 0 0 -9.6493362068147075 0 0 1 1 0 0 forward_v I I I I #
coedge $-1 $270 $271 $272 $273 forward $106 $-1 #
face $-1 $274 $275 $64 $-1 $276 reversed single #
loop $-1 $-1 $277 $108 #
plane-surface $-1 -40.212391007917986 0 -7.8336990602002459 -1 0 0 0 0 1 forward_v I I I I #
coedge $-1 $278 $279 $280 $281 forward $109 $-1 #
face $-1 $282 $283 $65 $-1 $284 reversed single #
loop $-1 $-1 $285 $111 #
plane-surface $-1 -27.643891946019739 -28.037083627912736 1.9686028791866548 0 -0.83867057594974714 0.54463902268945019 1 0 0 forward_v I I I I #
coedge $-1 $286 $287 $288 $289 reversed $112 $-1 #
face $-1 $-1 $290 $66 $-1 $291 forward single #
loop $-1 $292 $293 $114 #
cone-surface $-1 -30.409536277589222 -24.434211705561697 5.0888358164533649 0 0.83867057594974714 -0.54463902268945019 0.25 0 0 1 I I -0.70710678118654746 0.70710678118654746 0.25 forward I I I I #
loop $-1 $-1 $294 $87 #
coedge $-1 $184 $184 $295 $296 reversed $115 $-1 #
face $-1 $-1 $297 $67 $-1 $298 forward single #
loop $-1 $299 $300 $117 #
cone-surface $-1 -27.643891946019739 -24.434211705561697 5.0888358164533649 0 0.83867057594974714 -0.54463902268945019 0.25 0 0 1 I I -0.70710678118654746 0.70710678118654746 0.25 forward I I I I #
loop $-1 $-1 $301 $88 #
coedge $-1 $189 $189 $302 $303 reversed $118 $-1 #
face $-1 $-1 $304 $68 $-1 $305 forward single #
loop $-1 $306 $307 $120 #
cone-surface $-1 -24.878247614450256 -24.434211705561697 5.0888358164533649 0 0.83867057594974714 -0.54463902268945019 0.25 0 0 1 I I -0.70710678118654746 0.70710678118654746 0.25 forward I I I I #
loop $-1 $-1 $308 $89 #
coedge $-1 $194 $194 $309 $310 reversed $121 $-1 #
face $-1 $311 $312 $69 $-1 $313 reversed single #
loop $-1 $-1 $314 $123 #
plane-surface $-1 -5.8230010228957738 -28.037083627912736 1.9686028791866548 0 -0.83867057594974714 0.54463902268945019 1 0 0 forward_v I I I I #
coedge $-1 $315 $316 $317 $318 reversed $124 $-1 #
face $-1 $-1 $319 $70 $-1 $320 forward single #
loop $-1 $321 $322 $126 #
cone-surface $-1 -8.5886453544652568 -24.434211705561697 5.0888358164533649 0 0.83867057594974714 -0.54463902268945019 0.25 0 0 1 I I -0.70710678118654746 0.70710678118654746 0.25 forward I I I I #
loop $-1 $-1 $323 $91 #
coedge $-1 $203 $203 $324 $325 reversed $127 $-1 #
face $-1 $-1 $326 $71 $-1 $327 forward single #
loop $-1 $328 $329 $129 #
cone-surface $-1 -5.8230010228957738 -24.434211705561697 5.0888358164533649 0 0.83867057594974714 -0.54463902268945019 0.25 0 0 1 I I -0.70710678118654746 0.70710678118654746 0.25 forward I I I I #
loop $-1 $-1 $330 $92 #
coedge $-1 $208 $208 $331 $332 reversed $130 $-1 #
face $-1 $-1 $333 $72 $-1 $334 forward single #
loop $-1 $335 $336 $132 #
cone-surface $-1 -3.0573566913262908 -24.434211705561697 5.0888358164533649 0 0.83867057594974714 -0.54463902268945019 0.25 0 0 1 I I -0.70710678118654746 0.70710678118654746 0.25 forward I I I I #
loop $-1 $-1 $337 $93 #
coedge $-1 $213 $213 $338 $339 reversed $133 $-1 #
face $-1 $340 $341 $73 $-1 $342 reversed single #
loop $-1 $-1 $343 $135 #
plane-surface $-1 15.997889900228188 -28.037083627912736 1.9686028791866548 0 -0.83867057594974714 0.54463902268945019 1 0 0 forward_v I I I I #
coedge $-1 $344 $345 $346 $347 reversed $136 $-1 #
face $-1 $-1 $348 $74 $-1 $349 forward single #
loop $-1 $350 $351 $138 #
cone-surface $-1 13.232245568658712 -24.434211705561697 5.0888358164533649 0 0.83867057594974714 -0.54463902268945019 0.25 0 0 1 I I -0.70710678118654746 0.70710678118654746 0.25 forward I I I I #
loop $-1 $-1 $352 $95 #
coedge $-1 $222 $222 $353 $354 reversed $139 $-1 #
face $-1 $-1 $355 $75 $-1 $356 forward single #
loop $-1 $357 $358 $141 #
cone-surface $-1 15.997889900228188 -24.434211705561697 5.0888358164533649 0 0.83867057594974714 -0.54463902268945019 0.25 0 0 1 I I -0.70710678118654746 0.70710678118654746 0.25 forward I I I I #
loop $-1 $-1 $359 $96 #
coedge $-1 $227 $227 $360 $361 reversed $142 $-1 #
face $-1 $-1 $362 $76 $-1 $363 forward single #
loop $-1 $364 $365 $144 #
cone-surface $-1 18.763534231797678 -24.434211705561697 5.0888358164533649 0 0.83867057594974714 -0.54463902268945019 0.25 0 0 1 I I -0.70710678118654746 0.70710678118654746 0.25 forward I I I I #
loop $-1 $-1 $366 $97 #
coedge $-1 $232 $232 $367 $368 reversed $145 $-1 #
face $-1 $369 $370 $77 $-1 $371 reversed single #
loop $-1 $-1 $372 $147 #
plane-surface $-1 37.818780823352157 -28.037083627912736 1.9686028791866548 0 -0.83867057594974714 0.54463902268945019 1 0 0 forward_v I I I I #
coedge $-1 $373 $374 $375 $376 reversed $148 $-1 #
face $-1 $-1 $377 $78 $-1 $378 forward single #
loop $-1 $379 $380 $150 #
cone-surface $-1 35.053136491782681 -24.434211705561697 5.0888358164533649 0 0.83867057594974714 -0.54463902268945019 0.25 0 0 1 I I -0.70710678118654746 0.70710678118654746 0.25 forward I I I I #
loop $-1 $-1 $381 $99 #
coedge $-1 $241 $241 $382 $383 reversed $151 $-1 #
face $-1 $-1 $384 $79 $-1 $385 forward single #
loop $-1 $386 $387 $153 #
cone-surface $-1 37.818780823352157 -24.434211705561697 5.0888358164533649 0 0.83867057594974714 -0.54463902268945019 0.25 0 0 1 I I -0.70710678118654746 0.70710678118654746 0.25 forward I I I I #
loop $-1 $-1 $388 $100 #
coedge $-1 $246 $246 $389 $390 reversed $154 $-1 #
face $-1 $-1 $391 $80 $-1 $392 forward single #
loop $-1 $393 $394 $156 #
cone-surface $-1 40.584425154921647 -24.434211705561697 5.0888358164533649 0 0.83867057594974714 -0.54463902268945019 0.25 0 0 1 I I -0.70710678118654746 0.70710678118654746 0.25 forward I I I I #
loop $-1 $-1 $395 $101 #
coedge $-1 $251 $251 $396 $397 reversed $157 $-1 #
face $-1 $398 $399 $81 $-1 $400 reversed single #
loop $-1 $-1 $401 $159 #
plane-surface $-1 33.775938073594233 -6.4856203200333908 45.758926231456648 0 0.78801076186113728 0.61566146476048833 1 0 0 forward_v I I I I #
coedge $-1 $402 $403 $404 $405 reversed $160 $-1 #
face $-1 $-1 $406 $82 $-1 $407 forward single #
loop $-1 $408 $409 $162 #
cone-surface $-1 30.618602603962728 18.330831096315332 0.49252122125855813 0 -0.78801076186113728 -0.61566146476048833 1 0 0 1 I I -0.70710678118654746 0.70710678118654746 1 forward I I I I #
loop $-1 $-1 $410 $103 #
coedge $-1 $260 $260 $411 $412 reversed $163 $-1 #
face $-1 $-1 $413 $83 $-1 $414 forward single #
loop $-1 $415 $416 $165 #
cone-surface $-1 36.933273543225724 18.330831096315332 0.49252122125855813 0 -0.78801076186113728 -0.61566146476048833 1 0 0 1 I I -0.70710678118654746 0.70710678118654746 1 forward I I I I #
loop $-1 $-1 $417 $104 #
coedge $-1 $265 $265 $418 $419 reversed $166 $-1 #
face $-1 $420 $421 $63 $-1 $422 reversed single #
loop $-1 $-1 $423 $168 #
plane-surface $-1 0 -28.037083627912732 0 0 1 0 0 0 1 forward_v I I I I #
coedge $-1 $424 $425 $426 $427 forward $169 $-1 #
coedge $-1 $428 $171 $429 $430 forward $106 $-1 #
coedge $-1 $171 $428 $431 $432 forward $106 $-1 #
coedge $-1 $433 $434 $171 $273 reversed $435 $-1 #
edge $-1 $436 -28.037083627912732 $437 28.037083627912732 $272 $438 forward 7 unknown #
face $-1 $439 $440 $64 $-1 $441 reversed single #
loop $-1 $-1 $442 $172 #
plane-surface $-1 0 0 -9.6493362068147075 0 0 1 1 0 0 forward_v I I I I #
coedge $-1 $443 $280 $444 $445 reversed $173 $-1 #
coedge $-1 $446 $175 $447 $448 reversed $109 $-1 #
coedge $-1 $175 $446 $449 $450 reversed $109 $-1 #
coedge $-1 $277 $451 $175 $281 reversed $173 $-1 #
edge $-1 $452 -28.037083627912732 $453 28.037083627912732 $280 $454 forward 7 unknown #
face $-1 $455 $456 $65 $-1 $457 forward single #
loop $-1 $-1 $458 $176 #
plane-surface $-1 -23.034484726737269 -112.55374171172087 56.854360624551802 -1 0 0 0 -0.83867057594974714 0.54463902268945019 forward_v I I I I #
coedge $-1 $459 $460 $461 $462 reversed $177 $-1 #
coedge $-1 $287 $179 $463 $464 reversed $112 $-1 #
coedge $-1 $179 $286 $459 $465 reversed $112 $-1 #
coedge $-1 $461 $466 $179 $289 forward $467 $-1 #
edge $-1 $468 18.777844105461192 $469 26.458577433089239 $288 $470 forward 7 unknown #
loop $-1 $-1 $295 $180 #
plane-surface $-1 -27.643891946019739 -28.037083627912736 1.9686028791866548 0 -0.83867057594974714 0.54463902268945019 1 0 0 forward_v I I I I #
loop $-1 $-1 $471 $114 #
coedge $-1 $293 $293 $294 $472 reversed $181 $-1 #
coedge $-1 $294 $294 $293 $472 forward $183 $-1 #
coedge $-1 $295 $295 $184 $296 forward $290 $-1 #
edge $-1 $473 -2.3801147982426114e-015 $473 6.2831853071795978 $295 $474 forward 7 unknown #
loop $-1 $-1 $302 $185 #
plane-surface $-1 -27.643891946019739 -28.037083627912736 1.9686028791866548 0 -0.83867057594974714 0.54463902268945019 1 0 0 forward_v I I I I #
loop $-1 $-1 $475 $117 #
coedge $-1 $300 $300 $301 $476 reversed $186 $-1 #
coedge $-1 $301 $301 $300 $476 forward $188 $-1 #
coedge $-1 $302 $302 $189 $303 forward $297 $-1 #
edge $-1 $477 -2.3801147982426114e-015 $477 6.2831853071795978 $302 $478 forward 7 unknown #
loop $-1 $-1 $309 $190 #
plane-surface $-1 -27.643891946019739 -28.037083627912736 1.9686028791866548 0 -0.83867057594974714 0.54463902268945019 1 0 0 forward_v I I I I #
loop $-1 $-1 $479 $120 #
coedge $-1 $307 $307 $308 $480 reversed $191 $-1 #
coedge $-1 $308 $308 $307 $480 forward $193 $-1 #
coedge $-1 $309 $309 $194 $310 forward $304 $-1 #
edge $-1 $481 -2.3801147982426114e-015 $481 6.2831853071795978 $309 $482 forward 7 unknown #
face $-1 $483 $484 $69 $-1 $485 reversed single #
loop $-1 $-1 $486 $195 #
plane-surface $-1 -1.2135938036133034 -112.55374171172087 56.854360624551802 -1 0 0 0 -0.83867057594974714 0.54463902268945019 forward_v I I I I #
coedge $-1 $487 $488 $489 $490 reversed $196 $-1 #
coedge $-1 $316 $198 $491 $492 reversed $124 $-1 #
coedge $-1 $198 $315 $487 $493 reversed $124 $-1 #
coedge $-1 $489 $494 $198 $318 forward $484 $-1 #
edge $-1 $495 18.777844105461192 $496 26.458577433089239 $317 $497 forward 7 unknown #
loop $-1 $-1 $324 $199 #
plane-surface $-1 -5.8230010228957738 -28.037083627912736 1.9686028791866548 0 -0.83867057594974714 0.54463902268945019 1 0 0 forward_v I I I I #
loop $-1 $-1 $498 $126 #
coedge $-1 $322 $322 $323 $499 reversed $200 $-1 #
coedge $-1 $323 $323 $322 $499 forward $202 $-1 #
coedge $-1 $324 $324 $203 $325 forward $319 $-1 #
edge $-1 $500 -2.3801147982426114e-015 $500 6.2831853071795978 $324 $501 forward 7 unknown #
loop $-1 $-1 $331 $204 #
plane-surface $-1 -5.8230010228957738 -28.037083627912736 1.9686028791866548 0 -0.83867057594974714 0.54463902268945019 1 0 0 forward_v I I I I #
loop $-1 $-1 $502 $129 #
coedge $-1 $329 $329 $330 $503 reversed $205 $-1 #
coedge $-1 $330 $330 $329 $503 forward $207 $-1 #
coedge $-1 $331 $331 $208 $332 forward $326 $-1 #
edge $-1 $504 -2.3801147982426114e-015 $504 6.2831853071795978 $331 $505 forward 7 unknown #
loop $-1 $-1 $338 $209 #
plane-surface $-1 -5.8230010228957738 -28.037083627912736 1.9686028791866548 0 -0.83867057594974714 0.54463902268945019 1 0 0 forward_v I I I I #
loop $-1 $-1 $506 $132 #
coedge $-1 $336 $336 $337 $507 reversed $210 $-1 #
coedge $-1 $337 $337 $336 $507 forward $212 $-1 #
coedge $-1 $338 $338 $213 $339 forward $333 $-1 #
edge $-1 $508 -2.3801147982426114e-015 $508 6.2831853071795978 $338 $509 forward 7 unknown #
face $-1 $510 $511 $73 $-1 $512 reversed single #
loop $-1 $-1 $513 $214 #
plane-surface $-1 20.607297119510658 -112.55374171172087 56.854360624551802 -1 0 0 0 -0.83867057594974714 0.54463902268945019 forward_v I I I I #
coedge $-1 $514 $515 $516 $517 reversed $215 $-1 #
coedge $-1 $345 $217 $518 $519 reversed $136 $-1 #
coedge $-1 $217 $344 $514 $520 reversed $136 $-1 #
coedge $-1 $516 $521 $217 $347 forward $511 $-1 #
edge $-1 $522 18.777844105461192 $523 26.458577433089239 $346 $524 forward 7 unknown #
loop $-1 $-1 $353 $218 #
plane-surface $-1 15.997889900228188 -28.037083627912736 1.9686028791866548 0 -0.83867057594974714 0.54463902268945019 1 0 0 forward_v I I I I #
loop $-1 $-1 $525 $138 #
coedge $-1 $351 $351 $352 $526 reversed $219 $-1 #
coedge $-1 $352 $352 $351 $526 forward $221 $-1 #
coedge $-1 $353 $353 $222 $354 forward $348 $-1 #
edge $-1 $527 -2.3801147982426114e-015 $527 6.2831853071795978 $353 $528 forward 7 unknown #
loop $-1 $-1 $360 $223 #
plane-surface $-1 15.997889900228188 -28.037083627912736 1.9686028791866548 0 -0.83867057594974714 0.54463902268945019 1 0 0 forward_v I I I I #
loop $-1 $-1 $529 $141 #
coedge $-1 $358 $358 $359 $530 reversed $224 $-1 #
coedge $-1 $359 $359 $358 $530 forward $226 $-1 #
coedge $-1 $360 $360 $227 $361 forward $355 $-1 #
edge $-1 $531 -2.3801147982426114e-015 $531 6.2831853071795978 $360 $532 forward 7 unknown #
loop $-1 $-1 $367 $228 #
plane-surface $-1 15.997889900228188 -28.037083627912736 1.9686028791866548 0 -0.83867057594974714 0.54463902268945019 1 0 0 forward_v I I I I #
loop $-1 $-1 $533 $144 #
coedge $-1 $365 $365 $366 $534 reversed $229 $-1 #
coedge $-1 $366 $366 $365 $534 forward $231 $-1 #
coedge $-1 $367 $367 $232 $368 forward $362 $-1 #
edge $-1 $535 -2.3801147982426114e-015 $535 6.2831853071795978 $367 $536 forward 7 unknown #
face $-1 $537 $538 $77 $-1 $539 reversed single #
loop $-1 $-1 $540 $233 #
plane-surface $-1 42.428188042634631 -112.55374171172087 56.854360624551802 -1 0 0 0 -0.83867057594974714 0.54463902268945019 forward_v I I I I #
coedge $-1 $541 $542 $543 $544 reversed $234 $-1 #
coedge $-1 $374 $236 $545 $546 reversed $148 $-1 #
coedge $-1 $236 $373 $541 $547 reversed $148 $-1 #
coedge $-1 $543 $548 $236 $376 forward $538 $-1 #
edge $-1 $549 18.777844105461192 $550 26.458577433089239 $375 $551 forward 7 unknown #
loop $-1 $-1 $382 $237 #
plane-surface $-1 37.818780823352157 -28.037083627912736 1.9686028791866548 0 -0.83867057594974714 0.54463902268945019 1 0 0 forward_v I I I I #
loop $-1 $-1 $552 $150 #
coedge $-1 $380 $380 $381 $553 reversed $238 $-1 #
coedge $-1 $381 $381 $380 $553 forward $240 $-1 #
coedge $-1 $382 $382 $241 $383 forward $377 $-1 #
edge $-1 $554 -2.3801147982426114e-015 $554 6.2831853071795978 $382 $555 forward 7 unknown #
loop $-1 $-1 $389 $242 #
plane-surface $-1 37.818780823352157 -28.037083627912736 1.9686028791866548 0 -0.83867057594974714 0.54463902268945019 1 0 0 forward_v I I I I #
loop $-1 $-1 $556 $153 #
coedge $-1 $387 $387 $388 $557 reversed $243 $-1 #
coedge $-1 $388 $388 $387 $557 forward $245 $-1 #
coedge $-1 $389 $389 $246 $390 forward $384 $-1 #
edge $-1 $558 -2.3801147982426114e-015 $558 6.2831853071795978 $389 $559 forward 7 unknown #
loop $-1 $-1 $396 $247 #
plane-surface $-1 37.818780823352157 -28.037083627912736 1.9686028791866548 0 -0.83867057594974714 0.54463902268945019 1 0 0 forward_v I I I I #
loop $-1 $-1 $560 $156 #
coedge $-1 $394 $394 $395 $561 reversed $248 $-1 #
coedge $-1 $395 $395 $394 $561 forward $250 $-1 #
coedge $-1 $396 $396 $251 $397 forward $391 $-1 #
edge $-1 $562 -2.3801147982426114e-015 $562 6.2831853071795978 $396 $563 forward 7 unknown #
face $-1 $564 $565 $81 $-1 $566 reversed single #
loop $-1 $-1 $567 $252 #
plane-surface $-1 41.143054169401069 72.92581730093967 107.80193931035656 -1 0 0 0 0.78801076186113728 0.61566146476048833 forward_v I I I I #
coedge $-1 $568 $569 $570 $571 reversed $253 $-1 #
coedge $-1 $403 $255 $572 $573 reversed $160 $-1 #
coedge $-1 $255 $402 $568 $574 reversed $160 $-1 #
coedge $-1 $570 $575 $255 $405 forward $576 $-1 #
edge $-1 $577 8.4258250225571025 $578 14.736626084855384 $404 $579 forward 7 unknown #
loop $-1 $-1 $411 $256 #
plane-surface $-1 33.775938073594233 -6.4856203200333908 45.758926231456648 0 0.78801076186113728 0.61566146476048833 1 0 0 forward_v I I I I #
loop $-1 $-1 $580 $162 #
coedge $-1 $409 $409 $410 $581 reversed $257 $-1 #
coedge $-1 $410 $410 $409 $581 forward $259 $-1 #
coedge $-1 $411 $411 $260 $412 forward $406 $-1 #
edge $-1 $582 6.9989415317651662e-016 $582 6.2831853071796013 $411 $583 forward 7 unknown #
loop $-1 $-1 $418 $261 #
plane-surface $-1 33.775938073594233 -6.4856203200333908 45.758926231456648 0 0.78801076186113728 0.61566146476048833 1 0 0 forward_v I I I I #
loop $-1 $-1 $584 $165 #
coedge $-1 $416 $416 $417 $585 reversed $262 $-1 #
coedge $-1 $417 $417 $416 $585 forward $264 $-1 #
coedge $-1 $418 $418 $265 $419 forward $413 $-1 #
edge $-1 $586 6.9989415317651662e-016 $586 6.2831853071796013 $418 $587 forward 7 unknown #
face $-1 $588 $589 $63 $-1 $590 reversed single #
loop $-1 $-1 $591 $266 #
plane-surface $-1 -50.387279885250408 0 0 1 0 0 0 0 -1 forward_v I I I I #
coedge $-1 $592 $431 $593 $594 forward $267 $-1 #
coedge $-1 $595 $269 $592 $596 forward $169 $-1 #
coedge $-1 $269 $595 $597 $598 forward $169 $-1 #
coedge $-1 $434 $433 $269 $427 reversed $435 $-1 #
edge $-1 $599 -28.037083627912732 $600 28.037083627912732 $426 $601 forward 7 unknown #
coedge $-1 $271 $270 $602 $603 forward $106 $-1 #
coedge $-1 $604 $605 $270 $430 reversed $589 $-1 #
edge $-1 $437 -50.387279885250408 $606 50.387279885250408 $429 $607 forward 7 unknown #
coedge $-1 $423 $608 $271 $432 reversed $267 $-1 #
edge $-1 $609 -50.387279885250408 $436 50.387279885250408 $431 $610 forward 7 unknown #
coedge $-1 $426 $272 $608 $611 forward $435 $-1 #
coedge $-1 $272 $426 $604 $612 reversed $435 $-1 #
loop $-1 $-1 $433 $588 #
vertex $-1 $273 $613 #
vertex $-1 $273 $614 #
straight-curve $-1 50.387279885250408 0 9.6493362068147075 0 1 0 I I #
face $-1 $615 $616 $64 $-1 $617 reversed single #
loop $-1 $-1 $444 $274 #
plane-surface $-1 0 -28.037083627912732 0 0 1 0 0 0 1 forward_v I I I I #
coedge $-1 $618 $619 $443 $620 forward $275 $-1 #
coedge $-1 $451 $277 $442 $620 reversed $173 $-1 #
coedge $-1 $449 $621 $277 $445 forward $440 $-1 #
edge $-1 $622 -5.7324866767145846 $452 -2.1012123834856613 $444 $623 forward 7 unknown #
coedge $-1 $279 $278 $624 $625 reversed $109 $-1 #
coedge $-1 $626 $627 $278 $448 forward $628 $-1 #
edge $-1 $629 -27.737362161958309 $453 -17.562473284625888 $447 $630 forward 7 unknown #
coedge $-1 $631 $444 $279 $450 forward $440 $-1 #
edge $-1 $452 17.562473284625888 $632 27.737362161958309 $449 $633 forward 7 unknown #
coedge $-1 $280 $443 $626 $634 reversed $173 $-1 #
vertex $-1 $450 $635 #
vertex $-1 $448 $636 #
straight-curve $-1 -40.212391007917986 0 -6.0180619135857842 0 1 0 I I #
face $-1 $-1 $467 $65 $-1 $637 reversed single #
loop $-1 $-1 $638 $282 #
plane-surface $-1 0 0 9.6493362068147075 0 0 1 1 0 0 forward_v I I I I #
coedge $-1 $639 $640 $641 $642 reversed $283 $-1 #
coedge $-1 $643 $285 $287 $465 forward $177 $-1 #
coedge $-1 $285 $643 $639 $644 forward $177 $-1 #
coedge $-1 $641 $288 $285 $462 forward $467 $-1 #
edge $-1 $469 -18.431353192292342 $645 -9.2125387537273991 $461 $646 forward 7 unknown #
coedge $-1 $647 $648 $286 $464 forward $456 $-1 #
edge $-1 $649 -33.227713611749067 $468 -28.239787227947705 $463 $650 forward 7 unknown #
edge $-1 $469 6.5905034233925976e-015 $649 9.1582243945187365 $287 $651 forward 7 unknown #
coedge $-1 $288 $641 $647 $652 reversed $467 $-1 #
loop $-1 $-1 $641 $455 #
vertex $-1 $652 $653 #
vertex $-1 $289 $654 #
straight-curve $-1 -32.253299165302209 -28.037083627912736 28.427180312275901 0 0 -1 I I #
coedge $-1 $471 $471 $-1 $655 reversed $292 $-1 #
edge $-1 $656 0 $656 6.2831853071796004 $293 $657 forward 7 unknown #
vertex $-1 $296 $658 #
ellipse-curve $-1 -30.409536277589222 -25.54312043601205 5.8089695430006856 0 -0.83867057594974714 0.54463902268945019 0.5 0 0 1 I I #
coedge $-1 $475 $475 $-1 $659 reversed $299 $-1 #
edge $-1 $660 0 $660 6.2831853071796004 $300 $661 forward 7 unknown #
vertex $-1 $303 $662 #
ellipse-curve $-1 -27.643891946019739 -25.54312043601205 5.8089695430006856 0 -0.83867057594974714 0.54463902268945019 0.5 0 0 1 I I #
coedge $-1 $479 $479 $-1 $663 reversed $306 $-1 #
edge $-1 $664 0 $664 6.2831853071796004 $307 $665 forward 7 unknown #
vertex $-1 $310 $666 #
ellipse-curve $-1 -24.878247614450256 -25.54312043601205 5.8089695430006856 0 -0.83867057594974714 0.54463902268945019 0.5 0 0 1 I I #
face $-1 $-1 $667 $69 $-1 $668 forward single #
loop $-1 $-1 $317 $311 #
plane-surface $-1 0 -28.037083627912732 0 0 1 0 0 0 1 forward_v I I I I #
coedge $-1 $669 $670 $671 $672 reversed $312 $-1 #
coedge $-1 $673 $314 $316 $493 forward $196 $-1 #
coedge $-1 $314 $673 $669 $674 forward $196 $-1 #
coedge $-1 $671 $317 $314 $490 forward $484 $-1 #
edge $-1 $496 -7.5209077307303573 $675 1.6979067078345835 $489 $676 forward 7 unknown #
coedge $-1 $677 $678 $315 $492 forward $667 $-1 #
edge $-1 $679 -33.227713611749067 $495 -28.239787227947705 $491 $680 forward 7 unknown #
edge $-1 $496 6.5905034233925976e-015 $679 9.1582243945187365 $316 $681 forward 7 unknown #
coedge $-1 $317 $671 $677 $682 reversed $484 $-1 #
vertex $-1 $682 $683 #
vertex $-1 $318 $684 #
straight-curve $-1 -10.432408242178244 -28.037083627912736 28.427180312275901 0 0 -1 I I #
coedge $-1 $498 $498 $-1 $685 reversed $321 $-1 #
edge $-1 $686 0 $686 6.2831853071796004 $322 $687 forward 7 unknown #
vertex $-1 $325 $688 #
ellipse-curve $-1 -8.5886453544652568 -25.54312043601205 5.8089695430006856 0 -0.83867057594974714 0.54463902268945019 0.5 0 0 1 I I #
coedge $-1 $502 $502 $-1 $689 reversed $328 $-1 #
edge $-1 $690 0 $690 6.2831853071796004 $329 $691 forward 7 unknown #
vertex $-1 $332 $692 #
ellipse-curve $-1 -5.8230010228957738 -25.54312043601205 5.8089695430006856 0 -0.83867057594974714 0.54463902268945019 0.5 0 0 1 I I #
coedge $-1 $506 $506 $-1 $693 reversed $335 $-1 #
edge $-1 $694 0 $694 6.2831853071796004 $336 $695 forward 7 unknown #
vertex $-1 $339 $696 #
ellipse-curve $-1 -3.0573566913262908 -25.54312043601205 5.8089695430006856 0 -0.83867057594974714 0.54463902268945019 0.5 0 0 1 I I #
face $-1 $-1 $697 $73 $-1 $698 forward single #
loop $-1 $-1 $346 $340 #
plane-surface $-1 0 -28.037083627912732 0 0 1 0 0 0 1 forward_v I I I I #
coedge $-1 $699 $700 $701 $702 reversed $341 $-1 #
coedge $-1 $703 $343 $345 $520 forward $215 $-1 #
coedge $-1 $343 $703 $699 $704 forward $215 $-1 #
coedge $-1 $701 $346 $343 $517 forward $511 $-1 #
edge $-1 $523 3.3895377308316235 $705 12.608352169396564 $516 $706 forward 7 unknown #
coedge $-1 $707 $708 $344 $519 forward $697 $-1 #
edge $-1 $709 -33.227713611749067 $522 -28.239787227947705 $518 $710 forward 7 unknown #
edge $-1 $523 6.5905034233925976e-015 $709 9.1582243945187365 $345 $711 forward 7 unknown #
coedge $-1 $346 $701 $707 $712 reversed $511 $-1 #
vertex $-1 $712 $713 #
vertex $-1 $347 $714 #
straight-curve $-1 11.388482680945717 -28.037083627912736 28.427180312275901 0 0 -1 I I #
coedge $-1 $525 $525 $-1 $715 reversed $350 $-1 #
edge $-1 $716 0 $716 6.2831853071796004 $351 $717 forward 7 unknown #
vertex $-1 $354 $718 #
ellipse-curve $-1 13.232245568658712 -25.54312043601205 5.8089695430006856 0 -0.83867057594974714 0.54463902268945019 0.5 0 0 1 I I #
coedge $-1 $529 $529 $-1 $719 reversed $357 $-1 #
edge $-1 $720 0 $720 6.2831853071796004 $358 $721 forward 7 unknown #
vertex $-1 $361 $722 #
ellipse-curve $-1 15.997889900228188 -25.54312043601205 5.8089695430006856 0 -0.83867057594974714 0.54463902268945019 0.5 0 0 1 I I #
coedge $-1 $533 $533 $-1 $723 reversed $364 $-1 #
edge $-1 $724 0 $724 6.2831853071796004 $365 $725 forward 7 unknown #
vertex $-1 $368 $726 #
ellipse-curve $-1 18.763534231797678 -25.54312043601205 5.8089695430006856 0 -0.83867057594974714 0.54463902268945019 0.5 0 0 1 I I #
face $-1 $-1 $727 $77 $-1 $728 forward single #
loop $-1 $-1 $375 $369 #
plane-surface $-1 0 -28.037083627912732 0 0 1 0 0 0 1 forward_v I I I I #
coedge $-1 $729 $730 $731 $732 reversed $370 $-1 #
coedge $-1 $733 $372 $374 $547 forward $234 $-1 #
coedge $-1 $372 $733 $729 $734 forward $234 $-1 #
coedge $-1 $731 $375 $372 $544 forward $538 $-1 #
edge $-1 $550 14.299983192393604 $735 23.518797630958552 $543 $736 forward 7 unknown #
coedge $-1 $737 $738 $373 $546 forward $727 $-1 #
edge $-1 $739 -33.227713611749067 $549 -28.239787227947705 $545 $740 forward 7 unknown #
edge $-1 $550 6.5905034233925976e-015 $739 9.1582243945187365 $374 $741 forward 7 unknown #
coedge $-1 $375 $731 $737 $742 reversed $538 $-1 #
vertex $-1 $742 $743 #
vertex $-1 $376 $744 #
straight-curve $-1 33.209373604069683 -28.037083627912736 28.427180312275901 0 0 -1 I I #
coedge $-1 $552 $552 $-1 $745 reversed $379 $-1 #
edge $-1 $746 0 $746 6.2831853071796004 $380 $747 forward 7 unknown #
vertex $-1 $383 $748 #
ellipse-curve $-1 35.053136491782681 -25.54312043601205 5.8089695430006856 0 -0.83867057594974714 0.54463902268945019 0.5 0 0 1 I I #
coedge $-1 $556 $556 $-1 $749 reversed $386 $-1 #
edge $-1 $750 0 $750 6.2831853071796004 $387 $751 forward 7 unknown #
vertex $-1 $390 $752 #
ellipse-curve $-1 37.818780823352157 -25.54312043601205 5.8089695430006856 0 -0.83867057594974714 0.54463902268945019 0.5 0 0 1 I I #
coedge $-1 $560 $560 $-1 $753 reversed $393 $-1 #
edge $-1 $754 0 $754 6.2831853071796004 $394 $755 forward 7 unknown #
vertex $-1 $397 $756 #
ellipse-curve $-1 40.584425154921647 -25.54312043601205 5.8089695430006856 0 -0.83867057594974714 0.54463902268945019 0.5 0 0 1 I I #
face $-1 $-1 $576 $81 $-1 $757 forward single #
loop $-1 $-1 $758 $398 #
plane-surface $-1 0 28.037083627912732 0 0 -1 0 0 0 -1 forward_v I I I I #
coedge $-1 $759 $760 $761 $762 reversed $399 $-1 #
coedge $-1 $763 $401 $403 $574 forward $253 $-1 #
coedge $-1 $401 $763 $759 $764 forward $253 $-1 #
coedge $-1 $761 $404 $401 $571 forward $576 $-1 #
edge $-1 $578 9.5208529409902809 $765 24.255085132603952 $570 $766 forward 7 unknown #
coedge $-1 $767 $768 $402 $573 forward $565 $-1 #
edge $-1 $769 -52.329090683713503 $577 -44.25163344836357 $572 $770 forward 7 unknown #
edge $-1 $578 45.823727000070015 $769 56.074167255825486 $403 $771 forward 7 unknown #
coedge $-1 $404 $761 $767 $772 forward $576 $-1 #
loop $-1 $-1 $761 $564 #
vertex $-1 $573 $773 #
vertex $-1 $405 $774 #
straight-curve $-1 26.408821977787397 36.462908650469835 9.6493362068147093 0 -1 0 I I #
coedge $-1 $580 $580 $-1 $775 reversed $408 $-1 #
edge $-1 $776 0 $776 6.2831853071796004 $409 $777 forward 7 unknown #
vertex $-1 $412 $778 #
ellipse-curve $-1 30.618602603962728 24.881683096763595 5.6106075891397431 0 0.78801076186113728 0.61566146476048833 2 0 0 1 I I #
coedge $-1 $584 $584 $-1 $779 reversed $415 $-1 #
edge $-1 $780 0 $780 6.2831853071796004 $416 $781 forward 7 unknown #
vertex $-1 $419 $782 #
ellipse-curve $-1 36.933273543225724 24.881683096763595 5.6106075891397431 0 0.78801076186113728 0.61566146476048833 2 0 0 1 I I #
face $-1 $-1 $435 $63 $-1 $783 reversed single #
loop $-1 $-1 $604 $420 #
plane-surface $-1 0 28.037083627912732 0 0 -1 0 0 0 -1 forward_v I I I I #
coedge $-1 $784 $602 $605 $785 forward $421 $-1 #
coedge $-1 $608 $423 $424 $596 reversed $267 $-1 #
coedge $-1 $602 $784 $423 $594 reversed $421 $-1 #
edge $-1 $609 -9.6493362068147075 $786 9.6493362068147075 $593 $787 forward 7 unknown #
coedge $-1 $425 $424 $784 $788 forward $169 $-1 #
edge $-1 $600 -50.387279885250408 $786 50.387279885250408 $592 $789 forward 7 unknown #
coedge $-1 $605 $604 $425 $598 reversed $589 $-1 #
edge $-1 $790 -50.387279885250408 $599 50.387279885250408 $597 $791 forward 7 unknown #
vertex $-1 $427 $792 #
vertex $-1 $611 $793 #
straight-curve $-1 50.387279885250408 0 -9.6493362068147075 0 -1 0 I I #
coedge $-1 $591 $593 $428 $603 reversed $421 $-1 #
edge $-1 $606 -28.037083627912732 $609 28.037083627912732 $602 $794 forward 7 unknown #
coedge $-1 $597 $429 $434 $612 forward $589 $-1 #
coedge $-1 $429 $597 $591 $785 reversed $589 $-1 #
vertex $-1 $430 $795 #
straight-curve $-1 0 28.037083627912732 9.6493362068147075 -1 0 0 I I #
coedge $-1 $431 $592 $433 $611 reversed $267 $-1 #
vertex $-1 $603 $796 #
straight-curve $-1 0 -28.037083627912732 9.6493362068147075 1 0 0 I I #
edge $-1 $436 -9.6493362068147075 $600 9.6493362068147075 $433 $797 forward 7 unknown #
edge $-1 $437 -9.6493362068147075 $599 9.6493362068147075 $434 $798 forward 7 unknown #
point $-1 50.387279885250408 -28.037083627912732 9.6493362068147075 #
point $-1 50.387279885250408 28.037083627912732 9.6493362068147075 #
face $-1 $-1 $628 $64 $-1 $799 reversed single #
loop $-1 $-1 $624 $439 #
plane-surface $-1 -50.387279885250408 0 0 1 0 0 0 0 -1 forward_v I I I I #
coedge $-1 $800 $442 $621 $801 forward $275 $-1 #
coedge $-1 $442 $800 $802 $803 forward $275 $-1 #
edge $-1 $804 -28.037083627912732 $622 28.037083627912732 $442 $805 forward 7 unknown #
coedge $-1 $444 $631 $618 $801 reversed $440 $-1 #
vertex $-1 $801 $806 #
straight-curve $-1 -40.212391007917986 -28.037083627912732 -3.9168495301001229 0 0 1 I I #
coedge $-1 $807 $808 $446 $625 forward $616 $-1 #
edge $-1 $632 -28.037083627912732 $629 28.037083627912732 $624 $809 forward 7 unknown #
coedge $-1 $802 $447 $451 $634 forward $628 $-1 #
coedge $-1 $447 $802 $807 $810 reversed $628 $-1 #
loop $-1 $-1 $626 $615 #
vertex $-1 $810 $811 #
straight-curve $-1 -22.649917723292099 28.037083627912732 -6.0180619135857842 1 0 0 I I #
coedge $-1 $621 $449 $808 $812 forward $440 $-1 #
vertex $-1 $812 $813 #
straight-curve $-1 -22.649917723292099 -28.037083627912732 -6.0180619135857842 -1 0 0 I I #
edge $-1 $453 2.1012123834856613 $804 5.7324866767145846 $626 $814 forward 7 unknown #
point $-1 -40.212391007917986 -28.037083627912732 -6.0180619135857842 #
point $-1 -40.212391007917986 28.037083627912732 -6.0180619135857842 #
plane-surface $-1 0 -28.037083627912732 0 0 1 0 0 0 1 forward_v I I I I #
coedge $-1 $648 $647 $640 $815 forward $456 $-1 #
coedge $-1 $640 $458 $460 $644 reversed $283 $-1 #
coedge $-1 $458 $639 $638 $815 reversed $283 $-1 #
coedge $-1 $466 $461 $458 $642 forward $467 $-1 #
edge $-1 $645 -26.458577433089239 $816 -18.777844105461192 $641 $817 forward 7 unknown #
coedge $-1 $460 $459 $648 $818 reversed $177 $-1 #
edge $-1 $819 -9.1582243945187365 $645 -6.5905034233925976e-015 $639 $820 forward 7 unknown #
vertex $-1 $462 $821 #
straight-curve $-1 -13.821945973009869 -28.037083627912732 1.968602879186661 1 0 0 I I #
coedge $-1 $638 $463 $466 $652 forward $456 $-1 #
coedge $-1 $463 $638 $643 $818 forward $456 $-1 #
vertex $-1 $464 $822 #
straight-curve $-1 -32.253299165302209 -56.276870855860437 9.6493362068147093 0 -1 0 I I #
straight-curve $-1 -32.253299165302209 -28.037083627912736 1.9686028791866548 0 0.54463902268945019 0.83867057594974714 I I #
edge $-1 $468 -32.253299165302209 $816 -23.034484726737269 $466 $823 forward 7 unknown #
point $-1 -32.253299165302209 -28.037083627912732 9.6493362068147075 #
point $-1 -32.253299165302209 -28.037083627912732 1.9686028791866603 #
edge $-1 $824 1 $824 0 $471 $-1 forward 7 unknown #
vertex $-1 $472 $825 #
ellipse-curve $-1 -30.409536277589222 -24.643879349549135 5.2249955721257271 0 -0.83867057594974714 0.54463902268945019 0.5 0 0 1 I I #
point $-1 -29.909536277589222 -25.543120436012053 5.8089695430006865 #
edge $-1 $826 1 $826 0 $475 $-1 forward 7 unknown #
vertex $-1 $476 $827 #
ellipse-curve $-1 -27.643891946019739 -24.643879349549135 5.2249955721257271 0 -0.83867057594974714 0.54463902268945019 0.5 0 0 1 I I #
point $-1 -27.143891946019739 -25.543120436012053 5.8089695430006865 #
edge $-1 $828 1 $828 0 $479 $-1 forward 7 unknown #
vertex $-1 $480 $829 #
ellipse-curve $-1 -24.878247614450256 -24.643879349549135 5.2249955721257271 0 -0.83867057594974714 0.54463902268945019 0.5 0 0 1 I I #
point $-1 -24.378247614450256 -25.543120436012053 5.8089695430006865 #
loop $-1 $-1 $491 $483 #
plane-surface $-1 0 0 9.6493362068147075 0 0 1 1 0 0 forward_v I I I I #
coedge $-1 $670 $486 $488 $674 reversed $312 $-1 #
coedge $-1 $486 $669 $830 $831 reversed $312 $-1 #
coedge $-1 $494 $489 $486 $672 forward $484 $-1 #
edge $-1 $675 -26.458577433089239 $832 -18.777844105461192 $671 $833 forward 7 unknown #
coedge $-1 $488 $487 $678 $834 reversed $196 $-1 #
edge $-1 $835 -9.1582243945187365 $675 -6.5905034233925976e-015 $669 $836 forward 7 unknown #
vertex $-1 $490 $837 #
straight-curve $-1 -2.9115005114478869 -28.037083627912732 1.968602879186661 1 0 0 I I #
coedge $-1 $830 $491 $494 $682 forward $667 $-1 #
coedge $-1 $491 $830 $673 $834 forward $667 $-1 #
vertex $-1 $492 $838 #
straight-curve $-1 -10.432408242178244 -56.276870855860437 9.6493362068147093 0 -1 0 I I #
straight-curve $-1 -10.432408242178244 -28.037083627912736 1.9686028791866548 0 0.54463902268945019 0.83867057594974714 I I #
edge $-1 $495 -10.432408242178244 $832 -1.2135938036133034 $494 $839 forward 7 unknown #
point $-1 -10.432408242178244 -28.037083627912732 9.6493362068147075 #
point $-1 -10.432408242178244 -28.037083627912732 1.9686028791866603 #
edge $-1 $840 1 $840 0 $498 $-1 forward 7 unknown #
vertex $-1 $499 $841 #
ellipse-curve $-1 -8.5886453544652568 -24.643879349549135 5.2249955721257271 0 -0.83867057594974714 0.54463902268945019 0.5 0 0 1 I I #
point $-1 -8.0886453544652568 -25.543120436012053 5.8089695430006865 #
edge $-1 $842 1 $842 0 $502 $-1 forward 7 unknown #
vertex $-1 $503 $843 #
ellipse-curve $-1 -5.8230010228957738 -24.643879349549135 5.2249955721257271 0 -0.83867057594974714 0.54463902268945019 0.5 0 0 1 I I #
point $-1 -5.3230010228957738 -25.543120436012053 5.8089695430006865 #
edge $-1 $844 1 $844 0 $506 $-1 forward 7 unknown #
vertex $-1 $507 $845 #
ellipse-curve $-1 -3.0573566913262908 -24.643879349549135 5.2249955721257271 0 -0.83867057594974714 0.54463902268945019 0.5 0 0 1 I I #
point $-1 -2.5573566913262908 -25.543120436012053 5.8089695430006865 #
loop $-1 $-1 $518 $510 #
plane-surface $-1 0 0 9.6493362068147075 0 0 1 1 0 0 forward_v I I I I #
coedge $-1 $700 $513 $515 $704 reversed $341 $-1 #
coedge $-1 $513 $699 $846 $847 reversed $341 $-1 #
coedge $-1 $521 $516 $513 $702 forward $511 $-1 #
edge $-1 $705 -26.458577433089239 $848 -18.777844105461192 $701 $849 forward 7 unknown #
coedge $-1 $515 $514 $708 $850 reversed $215 $-1 #
edge $-1 $851 -9.1582243945187365 $705 -6.5905034233925976e-015 $699 $852 forward 7 unknown #
vertex $-1 $517 $853 #
straight-curve $-1 7.9989449501140939 -28.037083627912732 1.968602879186661 1 0 0 I I #
coedge $-1 $846 $518 $521 $712 forward $697 $-1 #
coedge $-1 $518 $846 $703 $850 forward $697 $-1 #
vertex $-1 $519 $854 #
straight-curve $-1 11.388482680945717 -56.276870855860437 9.6493362068147093 0 -1 0 I I #
straight-curve $-1 11.388482680945717 -28.037083627912736 1.9686028791866548 0 0.54463902268945019 0.83867057594974714 I I #
edge $-1 $522 11.388482680945717 $848 20.607297119510658 $521 $855 forward 7 unknown #
point $-1 11.388482680945717 -28.037083627912732 9.6493362068147075 #
point $-1 11.388482680945717 -28.037083627912732 1.9686028791866603 #
edge $-1 $856 1 $856 0 $525 $-1 forward 7 unknown #
vertex $-1 $526 $857 #
ellipse-curve $-1 13.232245568658712 -24.643879349549135 5.2249955721257271 0 -0.83867057594974714 0.54463902268945019 0.5 0 0 1 I I #
point $-1 13.732245568658712 -25.543120436012053 5.8089695430006865 #
edge $-1 $858 1 $858 0 $529 $-1 forward 7 unknown #
vertex $-1 $530 $859 #
ellipse-curve $-1 15.997889900228188 -24.643879349549135 5.2249955721257271 0 -0.83867057594974714 0.54463902268945019 0.5 0 0 1 I I #
point $-1 16.497889900228188 -25.543120436012053 5.8089695430006865 #
edge $-1 $860 1 $860 0 $533 $-1 forward 7 unknown #
vertex $-1 $534 $861 #
ellipse-curve $-1 18.763534231797678 -24.643879349549135 5.2249955721257271 0 -0.83867057594974714 0.54463902268945019 0.5 0 0 1 I I #
point $-1 19.263534231797678 -25.543120436012053 5.8089695430006865 #
loop $-1 $-1 $545 $537 #
plane-surface $-1 0 0 9.6493362068147075 0 0 1 1 0 0 forward_v I I I I #
coedge $-1 $730 $540 $542 $734 reversed $370 $-1 #
coedge $-1 $540 $729 $862 $863 reversed $370 $-1 #
coedge $-1 $548 $543 $540 $732 forward $538 $-1 #
edge $-1 $735 -26.458577433089239 $864 -18.777844105461192 $731 $865 forward 7 unknown #
coedge $-1 $542 $541 $738 $866 reversed $234 $-1 #
edge $-1 $867 -9.1582243945187365 $735 -6.5905034233925976e-015 $729 $868 forward 7 unknown #
vertex $-1 $544 $869 #
straight-curve $-1 18.909390411676078 -28.037083627912732 1.968602879186661 1 0 0 I I #
coedge $-1 $862 $545 $548 $742 forward $727 $-1 #
coedge $-1 $545 $862 $733 $866 forward $727 $-1 #
vertex $-1 $546 $870 #
straight-curve $-1 33.209373604069683 -56.276870855860437 9.6493362068147093 0 -1 0 I I #
straight-curve $-1 33.209373604069683 -28.037083627912736 1.9686028791866548 0 0.54463902268945019 0.83867057594974714 I I #
edge $-1 $549 33.209373604069683 $864 42.428188042634631 $548 $871 forward 7 unknown #
point $-1 33.209373604069683 -28.037083627912732 9.6493362068147075 #
point $-1 33.209373604069683 -28.037083627912732 1.9686028791866603 #
edge $-1 $872 1 $872 0 $552 $-1 forward 7 unknown #
vertex $-1 $553 $873 #
ellipse-curve $-1 35.053136491782681 -24.643879349549135 5.2249955721257271 0 -0.83867057594974714 0.54463902268945019 0.5 0 0 1 I I #
point $-1 35.553136491782681 -25.543120436012053 5.8089695430006865 #
edge $-1 $874 1 $874 0 $556 $-1 forward 7 unknown #
vertex $-1 $557 $875 #
ellipse-curve $-1 37.818780823352157 -24.643879349549135 5.2249955721257271 0 -0.83867057594974714 0.54463902268945019 0.5 0 0 1 I I #
point $-1 38.318780823352157 -25.543120436012053 5.8089695430006865 #
edge $-1 $876 1 $876 0 $560 $-1 forward 7 unknown #
vertex $-1 $561 $877 #
ellipse-curve $-1 40.584425154921647 -24.643879349549135 5.2249955721257271 0 -0.83867057594974714 0.54463902268945019 0.5 0 0 1 I I #
point $-1 41.084425154921647 -25.543120436012053 5.8089695430006865 #
plane-surface $-1 0 0 9.6493362068147075 0 0 1 1 0 0 forward_v I I I I #
coedge $-1 $768 $767 $760 $878 forward $565 $-1 #
coedge $-1 $760 $567 $569 $764 reversed $399 $-1 #
coedge $-1 $567 $759 $758 $878 reversed $399 $-1 #
coedge $-1 $575 $570 $567 $762 forward $576 $-1 #
edge $-1 $765 -14.736626084855384 $879 -8.4258250225571025 $761 $880 forward 7 unknown #
coedge $-1 $569 $568 $768 $881 reversed $253 $-1 #
edge $-1 $882 -56.074167255825486 $765 -45.823727000070015 $759 $883 forward 7 unknown #
vertex $-1 $571 $884 #
straight-curve $-1 16.887969036797116 21.726282565614454 9.6493362068147093 1 0 0 I I #
coedge $-1 $758 $572 $575 $772 reversed $565 $-1 #
coedge $-1 $572 $758 $763 $881 forward $565 $-1 #
vertex $-1 $573 $885 #
straight-curve $-1 26.408821977787397 28.037083627912732 53.90096965517828 0 0 1 I I #
straight-curve $-1 26.408821977787397 -6.4856203200333908 45.758926231456648 0 0.61566146476048833 -0.78801076186113728 I I #
edge $-1 $879 -41.143054169401069 $577 -26.408821977787397 $767 $886 forward 7 unknown #
point $-1 26.408821977787397 28.037083627912732 9.6493362068147075 #
point $-1 26.408821977787397 21.726282565614451 9.6493362068147093 #
edge $-1 $887 1 $887 0 $580 $-1 forward 7 unknown #
vertex $-1 $581 $888 #
ellipse-curve $-1 30.618602603962728 19.11884185817647 1.1081826860190465 0 0.78801076186113728 0.61566146476048833 2 0 0 1 I I #
point $-1 32.618602603962728 24.881683096763595 5.6106075891397413 #
edge $-1 $889 1 $889 0 $584 $-1 forward 7 unknown #
vertex $-1 $585 $890 #
ellipse-curve $-1 36.933273543225724 19.11884185817647 1.1081826860190465 0 0.78801076186113728 0.61566146476048833 2 0 0 1 I I #
point $-1 38.933273543225724 24.881683096763595 5.6106075891397413 #
plane-surface $-1 50.387279885250408 0 0 -1 0 0 0 0 1 forward_v I I I I #
coedge $-1 $593 $591 $595 $788 reversed $421 $-1 #
edge $-1 $606 -9.6493362068147075 $790 9.6493362068147075 $605 $891 forward 7 unknown #
vertex $-1 $788 $892 #
straight-curve $-1 -50.387279885250408 -28.037083627912732 0 0 0 -1 I I #
edge $-1 $786 -28.037083627912732 $790 28.037083627912732 $784 $893 forward 7 unknown #
straight-curve $-1 0 -28.037083627912732 -9.6493362068147075 -1 0 0 I I #
vertex $-1 $598 $894 #
straight-curve $-1 0 28.037083627912732 -9.6493362068147075 1 0 0 I I #
point $-1 50.387279885250408 28.037083627912732 -9.6493362068147075 #
point $-1 50.387279885250408 -28.037083627912732 -9.6493362068147075 #
straight-curve $-1 -50.387279885250408 0 9.6493362068147075 0 -1 0 I I #
point $-1 -50.387279885250408 28.037083627912732 9.6493362068147075 #
point $-1 -50.387279885250408 -28.037083627912732 9.6493362068147075 #
straight-curve $-1 50.387279885250408 -28.037083627912732 0 0 0 -1 I I #
straight-curve $-1 50.387279885250408 28.037083627912732 0 0 0 -1 I I #
plane-surface $-1 0 28.037083627912732 0 0 -1 0 0 0 -1 forward_v I I I I #
coedge $-1 $619 $618 $895 $896 forward $275 $-1 #
edge $-1 $622 40.212391007917986 $897 50.387279885250408 $621 $898 forward 7 unknown #
coedge $-1 $627 $626 $619 $803 reversed $628 $-1 #
edge $-1 $899 -50.387279885250408 $804 -40.212391007917986 $802 $900 forward 7 unknown #
vertex $-1 $634 $901 #
straight-curve $-1 -40.212391007917986 0 -9.6493362068147075 0 -1 0 I I #
point $-1 -40.212391007917986 -28.037083627912732 -9.6493362068147075 #
coedge $-1 $895 $624 $627 $810 forward $616 $-1 #
coedge $-1 $624 $895 $631 $812 reversed $616 $-1 #
straight-curve $-1 -50.387279885250408 0 -6.0180619135857842 0 1 0 I I #
edge $-1 $629 6.0180619135857842 $899 9.6493362068147075 $627 $902 forward 7 unknown #
point $-1 -50.387279885250408 28.037083627912732 -6.0180619135857842 #
edge $-1 $632 6.0180619135857842 $897 9.6493362068147075 $808 $903 forward 7 unknown #
point $-1 -50.387279885250408 -28.037083627912732 -6.0180619135857842 #
straight-curve $-1 -40.212391007917986 28.037083627912732 -3.9168495301001229 0 0 -1 I I #
edge $-1 $816 28.239787227947705 $819 33.227713611749067 $638 $904 forward 7 unknown #
vertex $-1 $642 $905 #
straight-curve $-1 -23.034484726737269 -28.037083627912736 28.427180312275901 0 0 1 I I #
edge $-1 $819 9.2125387537273991 $649 18.431353192292342 $648 $906 forward 7 unknown #
vertex $-1 $818 $907 #
straight-curve $-1 -23.034484726737269 -28.037083627912736 1.9686028791866548 0 -0.54463902268945019 -0.83867057594974714 I I #
point $-1 -23.034484726737269 -28.037083627912732 1.9686028791866603 #
point $-1 -32.253299165302209 -23.04915724411137 9.6493362068147075 #
straight-curve $-1 0 -28.037083627912732 9.6493362068147075 1 0 0 I I #
vertex $-1 $655 $908 #
point $-1 -29.909536277589222 -24.643879349549135 5.2249955721257271 #
vertex $-1 $659 $909 #
point $-1 -27.143891946019739 -24.643879349549135 5.2249955721257271 #
vertex $-1 $663 $910 #
point $-1 -24.378247614450256 -24.643879349549135 5.2249955721257271 #
coedge $-1 $678 $677 $670 $831 forward $667 $-1 #
edge $-1 $832 28.239787227947705 $835 33.227713611749067 $830 $911 forward 7 unknown #
vertex $-1 $831 $912 #
straight-curve $-1 -1.2135938036133034 -28.037083627912736 28.427180312275901 0 0 1 I I #
edge $-1 $835 -1.6979067078345835 $679 7.5209077307303573 $678 $913 forward 7 unknown #
vertex $-1 $834 $914 #
straight-curve $-1 -1.2135938036133034 -28.037083627912736 1.9686028791866548 0 -0.54463902268945019 -0.83867057594974714 I I #
point $-1 -1.2135938036133034 -28.037083627912732 1.9686028791866603 #
point $-1 -10.432408242178244 -23.04915724411137 9.6493362068147075 #
straight-curve $-1 0 -28.037083627912732 9.6493362068147075 1 0 0 I I #
vertex $-1 $685 $915 #
point $-1 -8.0886453544652568 -24.643879349549135 5.2249955721257271 #
vertex $-1 $689 $916 #
point $-1 -5.3230010228957738 -24.643879349549135 5.2249955721257271 #
vertex $-1 $693 $917 #
point $-1 -2.5573566913262908 -24.643879349549135 5.2249955721257271 #
coedge $-1 $708 $707 $700 $847 forward $697 $-1 #
edge $-1 $848 28.239787227947705 $851 33.227713611749067 $846 $918 forward 7 unknown #
vertex $-1 $847 $919 #
straight-curve $-1 20.607297119510658 -28.037083627912736 28.427180312275901 0 0 1 I I #
edge $-1 $851 -12.608352169396564 $709 -3.3895377308316235 $708 $920 forward 7 unknown #
vertex $-1 $850 $921 #
straight-curve $-1 20.607297119510658 -28.037083627912736 1.9686028791866548 0 -0.54463902268945019 -0.83867057594974714 I I #
point $-1 20.607297119510658 -28.037083627912732 1.9686028791866603 #
point $-1 11.388482680945717 -23.04915724411137 9.6493362068147075 #
straight-curve $-1 0 -28.037083627912732 9.6493362068147075 1 0 0 I I #
vertex $-1 $715 $922 #
point $-1 13.732245568658712 -24.643879349549135 5.2249955721257271 #
vertex $-1 $719 $923 #
point $-1 16.497889900228188 -24.643879349549135 5.2249955721257271 #
vertex $-1 $723 $924 #
point $-1 19.263534231797678 -24.643879349549135 5.2249955721257271 #
coedge $-1 $738 $737 $730 $863 forward $727 $-1 #
edge $-1 $864 28.239787227947705 $867 33.227713611749067 $862 $925 forward 7 unknown #
vertex $-1 $863 $926 #
straight-curve $-1 42.428188042634631 -28.037083627912736 28.427180312275901 0 0 1 I I #
edge $-1 $867 -23.518797630958552 $739 -14.299983192393604 $738 $927 forward 7 unknown #
vertex $-1 $866 $928 #
straight-curve $-1 42.428188042634631 -28.037083627912736 1.9686028791866548 0 -0.54463902268945019 -0.83867057594974714 I I #
point $-1 42.428188042634631 -28.037083627912732 1.9686028791866603 #
point $-1 33.209373604069683 -23.04915724411137 9.6493362068147075 #
straight-curve $-1 0 -28.037083627912732 9.6493362068147075 1 0 0 I I #
vertex $-1 $745 $929 #
point $-1 35.553136491782681 -24.643879349549135 5.2249955721257271 #
vertex $-1 $749 $930 #
point $-1 38.318780823352157 -24.643879349549135 5.2249955721257271 #
vertex $-1 $753 $931 #
point $-1 41.084425154921647 -24.643879349549135 5.2249955721257271 #
edge $-1 $879 44.25163344836357 $882 52.329090683713503 $758 $932 forward 7 unknown #
vertex $-1 $772 $933 #
straight-curve $-1 41.143054169401069 36.462908650469835 9.6493362068147093 0 1 0 I I #
edge $-1 $882 -24.255085132603952 $769 -9.5208529409902809 $768 $934 forward 7 unknown #
vertex $-1 $881 $935 #
straight-curve $-1 41.143054169401069 -6.4856203200333908 45.758926231456648 0 -0.61566146476048833 0.78801076186113728 I I #
point $-1 41.143054169401069 21.726282565614451 9.6493362068147093 #
point $-1 26.408821977787397 28.037083627912736 1.571878971464777 #
straight-curve $-1 0 28.037083627912732 9.6493362068147075 -1 0 0 I I #
vertex $-1 $775 $936 #
point $-1 32.618602603962728 19.11884185817647 1.1081826860190465 #
vertex $-1 $779 $937 #
point $-1 38.933273543225724 19.11884185817647 1.1081826860190465 #
straight-curve $-1 -50.387279885250408 28.037083627912732 0 0 0 -1 I I #
point $-1 -50.387279885250408 -28.037083627912732 -9.6493362068147075 #
straight-curve $-1 -50.387279885250408 0 -9.6493362068147075 0 1 0 I I #
point $-1 -50.387279885250408 28.037083627912732 -9.6493362068147075 #
coedge $-1 $808 $807 $800 $896 reversed $616 $-1 #
edge $-1 $897 -28.037083627912732 $899 28.037083627912732 $895 $938 forward 7 unknown #
vertex $-1 $896 $939 #
straight-curve $-1 0 -28.037083627912732 -9.6493362068147075 -1 0 0 I I #
vertex $-1 $803 $940 #
straight-curve $-1 0 28.037083627912732 -9.6493362068147075 1 0 0 I I #
point $-1 -40.212391007917986 28.037083627912732 -9.6493362068147075 #
straight-curve $-1 -50.387279885250408 28.037083627912732 0 0 0 -1 I I #
straight-curve $-1 -50.387279885250408 -28.037083627912732 0 0 0 -1 I I #
straight-curve $-1 -23.034484726737269 -56.276870855860437 9.6493362068147093 0 1 0 I I #
point $-1 -23.034484726737269 -28.037083627912732 9.6493362068147075 #
straight-curve $-1 -13.821945973009869 -23.04915724411137 9.6493362068147075 -1 0 0 I I #
point $-1 -23.034484726737269 -23.04915724411137 9.6493362068147075 #
point $-1 -30.409536277589222 -24.22454406157426 4.9526760607810028 #
point $-1 -27.643891946019739 -24.22454406157426 4.9526760607810028 #
point $-1 -24.878247614450256 -24.22454406157426 4.9526760607810028 #
straight-curve $-1 -1.2135938036133034 -56.276870855860437 9.6493362068147093 0 1 0 I I #
point $-1 -1.2135938036133034 -28.037083627912732 9.6493362068147075 #
straight-curve $-1 -2.9115005114478869 -23.04915724411137 9.6493362068147075 -1 0 0 I I #
point $-1 -1.2135938036133034 -23.04915724411137 9.6493362068147075 #
point $-1 -8.5886453544652568 -24.22454406157426 4.9526760607810028 #
point $-1 -5.8230010228957738 -24.22454406157426 4.9526760607810028 #
point $-1 -3.0573566913262908 -24.22454406157426 4.9526760607810028 #
straight-curve $-1 20.607297119510658 -56.276870855860437 9.6493362068147093 0 1 0 I I #
point $-1 20.607297119510658 -28.037083627912732 9.6493362068147075 #
straight-curve $-1 7.9989449501140939 -23.04915724411137 9.6493362068147075 -1 0 0 I I #
point $-1 20.607297119510658 -23.04915724411137 9.6493362068147075 #
point $-1 13.232245568658712 -24.22454406157426 4.9526760607810028 #
point $-1 15.997889900228188 -24.22454406157426 4.9526760607810028 #
point $-1 18.763534231797678 -24.22454406157426 4.9526760607810028 #
straight-curve $-1 42.428188042634631 -56.276870855860437 9.6493362068147093 0 1 0 I I #
point $-1 42.428188042634631 -28.037083627912732 9.6493362068147075 #
straight-curve $-1 18.909390411676078 -23.04915724411137 9.6493362068147075 -1 0 0 I I #
point $-1 42.428188042634631 -23.04915724411137 9.6493362068147075 #
point $-1 35.053136491782681 -24.22454406157426 4.9526760607810028 #
point $-1 37.818780823352157 -24.22454406157426 4.9526760607810028 #
point $-1 40.584425154921647 -24.22454406157426 4.9526760607810028 #
straight-curve $-1 41.143054169401069 28.037083627912732 53.90096965517828 0 0 -1 I I #
point $-1 41.143054169401069 28.037083627912732 9.6493362068147075 #
straight-curve $-1 16.887969036797116 28.037083627912736 1.5718789714647734 -1 0 0 I I #
point $-1 41.143054169401069 28.037083627912736 1.571878971464777 #
point $-1 30.618602603962728 17.542820334454195 -0.1231402435019302 #
point $-1 36.933273543225724 17.542820334454195 -0.1231402435019302 #
straight-curve $-1 -50.387279885250408 0 -9.6493362068147075 0 1 0 I I #
point $-1 -50.387279885250408 -28.037083627912732 -9.6493362068147075 #
point $-1 -50.387279885250408 28.037083627912732 -9.6493362068147075 #
End-of-ACIS-data 