500 0 8 0           
7 Unknown 11 ACIS 5.0 NT 24 Thu Mar 25 23:41:39 1999 
-1 9.9999999999999995e-007 1e-010 
body $-1 $8 $-1 $9 #
body $-1 $10 $-1 $11 #
body $-1 $12 $-1 $13 #
body $-1 $14 $-1 $15 #
body $-1 $16 $-1 $17 #
body $-1 $18 $-1 $19 #
body $-1 $20 $-1 $21 #
body $-1 $22 $-1 $23 #
lump $-1 $-1 $24 $0 #
transform $-1 1 0 0 0 1 0 0 0 1 51.535996581926938 30.629685935068647 8.8147164046299729 1 rotate no_reflect no_shear #
lump $-1 $-1 $25 $1 #
transform $-1 1 0 0 0 1 0 0 0 1 51.535996581926938 30.629685935068647 8.8147164046299729 1 rotate no_reflect no_shear #
lump $-1 $-1 $26 $2 #
transform $-1 1 0 0 0 1 0 0 0 1 51.535996581926938 30.629685935068647 8.8147164046299729 1 rotate no_reflect no_shear #
lump $-1 $-1 $27 $3 #
transform $-1 1 0 0 0 1 0 0 0 1 51.535996581926938 30.629685935068647 8.8147164046299729 1 rotate no_reflect no_shear #
lump $-1 $-1 $28 $4 #
transform $-1 1 0 0 0 1 0 0 0 1 51.535996581926938 30.629685935068647 8.8147164046299729 1 rotate no_reflect no_shear #
lump $-1 $-1 $29 $5 #
transform $-1 1 0 0 0 1 0 0 0 1 51.535996581926938 30.629685935068647 8.8147164046299729 1 rotate no_reflect no_shear #
lump $-1 $-1 $30 $6 #
transform $-1 1 0 0 0 1 0 0 0 1 51.535996581926938 30.629685935068647 8.8147164046299729 1 rotate no_reflect no_shear #
lump $-1 $-1 $31 $7 #
transform $-1 1 0 0 0 1 0 0 0 1 51.535996581926938 30.629685935068647 8.8147164046299729 1 rotate no_reflect no_shear #
shell $-1 $-1 $-1 $32 $-1 $8 #
shell $-1 $-1 $-1 $33 $-1 $10 #
shell $-1 $-1 $-1 $34 $-1 $12 #
shell $-1 $-1 $-1 $35 $-1 $14 #
shell $-1 $-1 $-1 $36 $-1 $16 #
shell $-1 $-1 $-1 $37 $-1 $18 #
shell $-1 $-1 $-1 $38 $-1 $20 #
shell $-1 $-1 $-1 $39 $-1 $22 #
face $-1 $40 $41 $24 $-1 $42 forward single #
face $-1 $43 $44 $25 $-1 $45 reversed single #
face $-1 $46 $47 $26 $-1 $48 reversed single #
face $-1 $49 $50 $27 $-1 $51 forward single #
face $-1 $52 $53 $28 $-1 $54 forward single #
face $-1 $55 $56 $29 $-1 $57 reversed single #
face $-1 $58 $59 $30 $-1 $60 forward single #
face $-1 $61 $62 $31 $-1 $63 forward single #
face $-1 $64 $65 $24 $-1 $66 reversed single #
loop $-1 $-1 $67 $32 #
plane-surface $-1 0 0 8.8147164046299729 0 0 1 1 0 0 forward_v I I I I #
face $-1 $68 $69 $25 $-1 $70 reversed single #
loop $-1 $-1 $71 $33 #
plane-surface $-1 -47.828707153986073 0 4.9998571458007355 0 0 1 1 0 0 forward_v I I I I #
face $-1 $72 $73 $26 $-1 $74 reversed single #
loop $-1 $-1 $75 $34 #
plane-surface $-1 -36.763491818344079 89.262966116579619 108.93585163780872 1 0 0 0 -0.86602541151947299 -0.49999998660252726 forward_v I I I I #
face $-1 $76 $77 $27 $-1 $78 forward single #
loop $-1 $79 $80 $35 #
cone-surface $-1 -30.386442076734696 28.550230711200392 6.1251314606889835 0 -0.86602541151947299 -0.49999998660252726 1 0 0 1 I I 0 1 1 forward I I I I #
face $-1 $81 $82 $28 $-1 $83 forward single #
loop $-1 $84 $85 $36 #
cone-surface $-1 -20.820867464320624 28.550230711200392 6.1251314606889835 0 -0.86602541151947299 -0.49999998660252726 1 0 0 1 I I 0 1 1 forward I I I I #
face $-1 $86 $87 $29 $-1 $88 reversed single #
loop $-1 $-1 $89 $37 #
plane-surface $-1 -19.396222545486417 -104.77347376726367 75.359237411756908 -1 0 0 0 -0.71933980857756763 0.69465836192734942 forward_v I I I I #
face $-1 $90 $91 $30 $-1 $92 forward single #
loop $-1 $93 $94 $38 #
cone-surface $-1 -37.057076245885554 -27.369881305504542 5.496281762396789 0 0.71933980857756763 -0.69465836192734942 1.5 0 0 1 I I 0 1 1.5 forward I I I I #
face $-1 $95 $96 $31 $-1 $97 forward single #
loop $-1 $98 $99 $39 #
cone-surface $-1 -26.460564025646072 -27.369881305504542 5.496281762396789 0 0.71933980857756763 -0.69465836192734942 1.5 0 0 1 I I 0 1 1.5 forward I I I I #
face $-1 $100 $101 $24 $-1 $102 reversed single #
loop $-1 $-1 $103 $40 #
plane-surface $-1 0 0 -8.8147164046299729 0 0 1 1 0 0 forward_v I I I I #
coedge $-1 $104 $105 $106 $107 forward $41 $-1 #
face $-1 $108 $109 $25 $-1 $110 reversed single #
loop $-1 $-1 $111 $43 #
plane-surface $-1 -44.121417726045209 0 6.9072867752153542 -1 0 0 0 0 1 forward_v I I I I #
coedge $-1 $112 $113 $111 $114 forward $44 $-1 #
face $-1 $115 $116 $26 $-1 $117 reversed single #
loop $-1 $-1 $118 $46 #
plane-surface $-1 -25.603654770527662 8.2072075713313097e-007 57.399856436786003 0 0.86602541151947299 0.49999998660252726 1 0 0 forward_v I I I I #
coedge $-1 $119 $120 $121 $122 reversed $47 $-1 #
face $-1 $-1 $123 $27 $-1 $124 forward single #
loop $-1 $125 $126 $49 #
cone-surface $-1 -30.386442076734696 27.327284001732838 5.419062873998751 0 -0.86602541151947299 -0.49999998660252726 0.5 0 0 1 I I -0.70710678118654746 0.70710678118654746 0.5 forward I I I I #
loop $-1 $-1 $127 $35 #
coedge $-1 $80 $80 $128 $129 reversed $50 $-1 #
face $-1 $-1 $130 $28 $-1 $131 forward single #
loop $-1 $132 $133 $52 #
cone-surface $-1 -20.820867464320624 27.327284001732838 5.419062873998751 0 -0.86602541151947299 -0.49999998660252726 0.5 0 0 1 I I -0.70710678118654746 0.70710678118654746 0.5 forward I I I I #
loop $-1 $-1 $134 $36 #
coedge $-1 $85 $85 $135 $136 reversed $53 $-1 #
face $-1 $137 $138 $29 $-1 $139 forward single #
loop $-1 $-1 $140 $55 #
plane-surface $-1 -31.758820135765813 -30.629685935068665 3.7594154799672168 0 -0.71933980857756763 0.69465836192734942 1 0 0 forward_v I I I I #
coedge $-1 $141 $142 $143 $144 reversed $56 $-1 #
face $-1 $-1 $145 $30 $-1 $146 forward single #
loop $-1 $147 $148 $58 #
cone-surface $-1 -37.057076245885554 -26.011495439680701 4.1845038110494688 0 0.71933980857756763 -0.69465836192734942 0.75 0 0 1 I I -0.70710678118654757 0.70710678118654757 0.75 forward I I I I #
loop $-1 $-1 $149 $38 #
coedge $-1 $94 $94 $150 $151 reversed $59 $-1 #
face $-1 $-1 $152 $31 $-1 $153 forward single #
loop $-1 $154 $155 $61 #
cone-surface $-1 -26.460564025646072 -26.011495439680701 4.1845038110494688 0 0.71933980857756763 -0.69465836192734942 0.75 0 0 1 I I -0.70710678118654757 0.70710678118654757 0.75 forward I I I I #
loop $-1 $-1 $156 $39 #
coedge $-1 $99 $99 $157 $158 reversed $62 $-1 #
face $-1 $159 $160 $24 $-1 $161 reversed single #
loop $-1 $-1 $162 $64 #
plane-surface $-1 0 -30.629685935068647 0 0 1 0 0 0 1 forward_v I I I I #
coedge $-1 $163 $164 $165 $166 forward $65 $-1 #
coedge $-1 $167 $67 $168 $169 forward $41 $-1 #
coedge $-1 $67 $167 $170 $171 forward $41 $-1 #
coedge $-1 $172 $173 $67 $107 reversed $174 $-1 #
edge $-1 $175 -30.629685935068647 $176 30.629685935068647 $106 $177 forward 7 unknown #
face $-1 $178 $179 $25 $-1 $180 reversed single #
loop $-1 $-1 $181 $68 #
plane-surface $-1 0 30.629685935068647 0 0 -1 0 0 0 -1 forward_v I I I I #
coedge $-1 $182 $183 $71 $114 reversed $69 $-1 #
coedge $-1 $184 $71 $185 $186 reversed $44 $-1 #
coedge $-1 $71 $184 $187 $188 reversed $44 $-1 #
edge $-1 $189 -30.629685935068647 $190 30.629685935068647 $111 $191 forward 7 unknown #
face $-1 $192 $193 $26 $-1 $194 forward single #
loop $-1 $-1 $195 $72 #
plane-surface $-1 -14.443817722711247 89.262966116579619 108.93585163780872 -1 0 0 0 0.86602541151947299 0.49999998660252726 forward_v I I I I #
coedge $-1 $196 $197 $198 $199 reversed $73 $-1 #
coedge $-1 $120 $75 $200 $201 reversed $47 $-1 #
coedge $-1 $75 $119 $196 $202 reversed $47 $-1 #
coedge $-1 $198 $203 $75 $122 forward $193 $-1 #
edge $-1 $204 14.001797123221163 $205 16.580839563542046 $121 $206 forward 7 unknown #
loop $-1 $-1 $128 $76 #
plane-surface $-1 -25.603654770527662 8.2072075713313097e-007 57.399856436786003 0 0.86602541151947299 0.49999998660252726 1 0 0 forward_v I I I I #
loop $-1 $-1 $207 $49 #
coedge $-1 $126 $126 $127 $208 reversed $77 $-1 #
coedge $-1 $127 $127 $126 $208 forward $79 $-1 #
coedge $-1 $128 $128 $80 $129 forward $123 $-1 #
edge $-1 $209 4.7597325791166719e-016 $209 6.2831853071796013 $128 $210 forward 7 unknown #
loop $-1 $-1 $135 $81 #
plane-surface $-1 -25.603654770527662 8.2072075713313097e-007 57.399856436786003 0 0.86602541151947299 0.49999998660252726 1 0 0 forward_v I I I I #
loop $-1 $-1 $211 $52 #
coedge $-1 $133 $133 $134 $212 reversed $82 $-1 #
coedge $-1 $134 $134 $133 $212 forward $84 $-1 #
coedge $-1 $135 $135 $85 $136 forward $130 $-1 #
edge $-1 $213 4.7597325791166719e-016 $213 6.2831853071796013 $135 $214 forward 7 unknown #
face $-1 $215 $216 $29 $-1 $217 forward single #
loop $-1 $-1 $218 $86 #
plane-surface $-1 -44.121417726045209 0 6.9072867752153542 -1 0 0 0 0 1 forward_v I I I I #
coedge $-1 $219 $220 $221 $222 reversed $87 $-1 #
coedge $-1 $142 $89 $223 $224 reversed $56 $-1 #
coedge $-1 $89 $141 $219 $225 reversed $56 $-1 #
coedge $-1 $221 $226 $89 $144 forward $216 $-1 #
edge $-1 $227 21.757050948563187 $228 26.638898188910041 $143 $229 forward 7 unknown #
loop $-1 $-1 $150 $90 #
plane-surface $-1 -31.758820135765813 -30.629685935068665 3.7594154799672168 0 -0.71933980857756763 0.69465836192734942 1 0 0 forward_v I I I I #
loop $-1 $-1 $230 $58 #
coedge $-1 $148 $148 $149 $231 reversed $91 $-1 #
coedge $-1 $149 $149 $148 $231 forward $93 $-1 #
coedge $-1 $150 $150 $94 $151 forward $145 $-1 #
edge $-1 $232 -1.3947190063220489e-015 $232 6.2831853071795987 $150 $233 forward 7 unknown #
loop $-1 $-1 $157 $95 #
plane-surface $-1 -31.758820135765813 -30.629685935068665 3.7594154799672168 0 -0.71933980857756763 0.69465836192734942 1 0 0 forward_v I I I I #
loop $-1 $-1 $234 $61 #
coedge $-1 $155 $155 $156 $235 reversed $96 $-1 #
coedge $-1 $156 $156 $155 $235 forward $98 $-1 #
coedge $-1 $157 $157 $99 $158 forward $152 $-1 #
edge $-1 $236 -1.3947190063220489e-015 $236 6.2831853071795987 $157 $237 forward 7 unknown #
face $-1 $238 $239 $24 $-1 $240 reversed single #
loop $-1 $-1 $241 $100 #
plane-surface $-1 -51.535996581926938 0 0 1 0 0 0 0 -1 forward_v I I I I #
coedge $-1 $242 $170 $243 $244 forward $101 $-1 #
coedge $-1 $245 $103 $242 $246 forward $65 $-1 #
coedge $-1 $103 $245 $247 $248 forward $65 $-1 #
coedge $-1 $173 $172 $103 $166 reversed $174 $-1 #
edge $-1 $249 -30.629685935068647 $250 30.629685935068647 $165 $251 forward 7 unknown #
coedge $-1 $105 $104 $252 $253 forward $41 $-1 #
coedge $-1 $254 $255 $104 $169 reversed $239 $-1 #
edge $-1 $176 -51.535996581926938 $256 51.535996581926938 $168 $257 forward 7 unknown #
coedge $-1 $162 $258 $105 $171 reversed $101 $-1 #
edge $-1 $259 -51.535996581926938 $175 51.535996581926938 $170 $260 forward 7 unknown #
coedge $-1 $165 $106 $258 $261 forward $174 $-1 #
coedge $-1 $106 $165 $254 $262 reversed $174 $-1 #
loop $-1 $-1 $172 $238 #
vertex $-1 $107 $263 #
vertex $-1 $107 $264 #
straight-curve $-1 51.535996581926938 0 8.8147164046299729 0 1 0 I I #
face $-1 $265 $266 $25 $-1 $267 forward single #
loop $-1 $-1 $268 $108 #
plane-surface $-1 -51.535996581926938 0 0 1 0 0 0 0 -1 forward_v I I I I #
coedge $-1 $187 $269 $182 $270 forward $109 $-1 #
coedge $-1 $271 $111 $181 $270 reversed $69 $-1 #
coedge $-1 $111 $271 $272 $273 reversed $69 $-1 #
coedge $-1 $113 $112 $268 $274 reversed $44 $-1 #
coedge $-1 $272 $275 $112 $186 forward $276 $-1 #
edge $-1 $277 -27.621643004933901 $190 -20.207064149052172 $185 $278 forward 7 unknown #
coedge $-1 $279 $181 $113 $188 forward $109 $-1 #
edge $-1 $189 20.207064149052172 $280 27.621643004933901 $187 $281 forward 7 unknown #
vertex $-1 $188 $282 #
vertex $-1 $186 $283 #
straight-curve $-1 -44.121417726045209 0 4.9998571458007355 0 -1 0 I I #
face $-1 $-1 $284 $26 $-1 $285 reversed single #
loop $-1 $-1 $121 $115 #
plane-surface $-1 0 0 8.8147164046299729 0 0 1 1 0 0 forward_v I I I I #
coedge $-1 $286 $287 $288 $289 reversed $116 $-1 #
coedge $-1 $290 $118 $120 $202 forward $73 $-1 #
coedge $-1 $118 $290 $286 $291 forward $73 $-1 #
coedge $-1 $288 $121 $118 $199 forward $193 $-1 #
edge $-1 $205 -23.961664433080248 $292 -1.6419903374474156 $198 $293 forward 7 unknown #
coedge $-1 $294 $295 $119 $201 forward $284 $-1 #
edge $-1 $296 -50.120242115378446 $204 -45.653209414274386 $200 $297 forward 7 unknown #
edge $-1 $205 56.101286851284925 $296 61.259371870137308 $120 $298 forward 7 unknown #
coedge $-1 $121 $288 $294 $299 forward $193 $-1 #
vertex $-1 $201 $300 #
vertex $-1 $122 $301 #
straight-curve $-1 -36.763491818344079 44.63148305828981 8.8147164046299693 0 -1 0 I I #
coedge $-1 $207 $207 $-1 $302 reversed $125 $-1 #
edge $-1 $303 0 $303 6.2831853071796004 $126 $304 forward 7 unknown #
vertex $-1 $129 $305 #
ellipse-curve $-1 -30.386442076734696 29.340164714908202 6.5812000540779483 0 0.86602541151947299 0.49999998660252726 1 0 0 1 I I #
coedge $-1 $211 $211 $-1 $306 reversed $132 $-1 #
edge $-1 $307 0 $307 6.2831853071796004 $133 $308 forward 7 unknown #
vertex $-1 $136 $309 #
ellipse-curve $-1 -20.820867464320624 29.340164714908202 6.5812000540779483 0 0.86602541151947299 0.49999998660252726 1 0 0 1 I I #
face $-1 $-1 $310 $29 $-1 $311 reversed single #
loop $-1 $-1 $221 $137 #
plane-surface $-1 0 0 8.8147164046299729 0 0 1 1 0 0 forward_v I I I I #
coedge $-1 $312 $313 $220 $314 reversed $138 $-1 #
coedge $-1 $315 $140 $142 $225 forward $87 $-1 #
coedge $-1 $140 $315 $218 $314 forward $87 $-1 #
coedge $-1 $316 $143 $140 $222 forward $216 $-1 #
edge $-1 $228 3.5168124776035103 $317 28.242007658162301 $221 $318 forward 7 unknown #
coedge $-1 $319 $320 $141 $224 forward $310 $-1 #
edge $-1 $321 -33.920203225911216 $227 -28.864902301248481 $223 $322 forward 7 unknown #
edge $-1 $228 -7.0276952066078167 $321 -2.5437104257963417e-014 $142 $323 forward 7 unknown #
coedge $-1 $143 $316 $319 $324 forward $216 $-1 #
vertex $-1 $224 $325 #
vertex $-1 $144 $326 #
straight-curve $-1 -19.396222545486417 -52.386736883631833 8.8147164046299693 0 1 0 I I #
coedge $-1 $230 $230 $-1 $327 reversed $147 $-1 #
edge $-1 $328 0 $328 6.2831853071796004 $148 $329 forward 7 unknown #
vertex $-1 $151 $330 #
ellipse-curve $-1 -37.057076245885554 -28.188762314895218 6.2870659422986064 0 -0.71933980857756763 0.69465836192734942 1.5 0 0 1 I I #
coedge $-1 $234 $234 $-1 $331 reversed $154 $-1 #
edge $-1 $332 0 $332 6.2831853071796004 $155 $333 forward 7 unknown #
vertex $-1 $158 $334 #
ellipse-curve $-1 -26.460564025646072 -28.188762314895218 6.2870659422986064 0 -0.71933980857756763 0.69465836192734942 1.5 0 0 1 I I #
face $-1 $-1 $174 $24 $-1 $335 reversed single #
loop $-1 $-1 $254 $159 #
plane-surface $-1 0 30.629685935068647 0 0 -1 0 0 0 -1 forward_v I I I I #
coedge $-1 $336 $252 $255 $337 forward $160 $-1 #
coedge $-1 $258 $162 $163 $246 reversed $101 $-1 #
coedge $-1 $252 $336 $162 $244 reversed $160 $-1 #
edge $-1 $259 -8.8147164046299729 $338 8.8147164046299729 $243 $339 forward 7 unknown #
coedge $-1 $164 $163 $336 $340 forward $65 $-1 #
edge $-1 $250 -51.535996581926938 $338 51.535996581926938 $242 $341 forward 7 unknown #
coedge $-1 $255 $254 $164 $248 reversed $239 $-1 #
edge $-1 $342 -51.535996581926938 $249 51.535996581926938 $247 $343 forward 7 unknown #
vertex $-1 $166 $344 #
vertex $-1 $261 $345 #
straight-curve $-1 51.535996581926938 0 -8.8147164046299729 0 -1 0 I I #
coedge $-1 $241 $243 $167 $253 reversed $160 $-1 #
edge $-1 $256 -30.629685935068647 $259 30.629685935068647 $252 $346 forward 7 unknown #
coedge $-1 $247 $168 $173 $262 forward $239 $-1 #
coedge $-1 $168 $247 $241 $337 reversed $239 $-1 #
vertex $-1 $169 $347 #
straight-curve $-1 0 30.629685935068647 8.8147164046299729 -1 0 0 I I #
coedge $-1 $170 $242 $172 $261 reversed $101 $-1 #
vertex $-1 $253 $348 #
straight-curve $-1 0 -30.629685935068647 8.8147164046299729 1 0 0 I I #
edge $-1 $175 -8.8147164046299729 $250 8.8147164046299729 $172 $349 forward 7 unknown #
edge $-1 $176 -8.8147164046299729 $249 8.8147164046299729 $173 $350 forward 7 unknown #
point $-1 51.535996581926938 -30.629685935068647 8.8147164046299729 #
point $-1 51.535996581926938 30.629685935068647 8.8147164046299729 #
face $-1 $-1 $276 $25 $-1 $351 reversed single #
loop $-1 $-1 $352 $178 #
plane-surface $-1 0 0 8.8147164046299729 0 0 1 1 0 0 forward_v I I I I #
coedge $-1 $353 $354 $184 $274 forward $179 $-1 #
coedge $-1 $181 $279 $355 $356 reversed $109 $-1 #
edge $-1 $357 -5.3610730170222958 $189 -1.5462137581930584 $181 $358 forward 7 unknown #
coedge $-1 $183 $182 $352 $359 reversed $69 $-1 #
coedge $-1 $360 $185 $183 $273 forward $276 $-1 #
edge $-1 $190 1.5462137581930584 $361 5.3610730170222958 $272 $362 forward 7 unknown #
edge $-1 $280 -30.629685935068647 $277 30.629685935068647 $268 $363 forward 7 unknown #
coedge $-1 $185 $360 $353 $364 forward $276 $-1 #
loop $-1 $-1 $272 $265 #
vertex $-1 $274 $365 #
straight-curve $-1 -23.914353576993037 -30.629685935068647 4.9998571458007355 1 0 0 I I #
coedge $-1 $269 $187 $354 $366 reversed $109 $-1 #
vertex $-1 $274 $367 #
straight-curve $-1 -23.914353576993037 30.629685935068647 4.9998571458007355 -1 0 0 I I #
point $-1 -44.121417726045209 30.629685935068647 4.9998571458007355 #
point $-1 -44.121417726045209 -30.629685935068647 4.9998571458007355 #
loop $-1 $-1 $200 $192 #
plane-surface $-1 0 30.629685935068647 0 0 -1 0 0 0 -1 forward_v I I I I #
coedge $-1 $287 $195 $197 $291 reversed $116 $-1 #
coedge $-1 $195 $286 $368 $369 reversed $116 $-1 #
coedge $-1 $203 $198 $195 $289 forward $193 $-1 #
edge $-1 $292 -16.580839563542046 $370 -14.001797123221163 $288 $371 forward 7 unknown #
coedge $-1 $197 $196 $295 $372 reversed $73 $-1 #
edge $-1 $373 -61.259371870137308 $292 -56.101286851284925 $286 $374 forward 7 unknown #
vertex $-1 $199 $375 #
straight-curve $-1 -12.801827385263831 28.05064349474776 8.8147164046299729 1 0 0 I I #
coedge $-1 $368 $200 $203 $299 reversed $284 $-1 #
coedge $-1 $200 $368 $290 $372 forward $284 $-1 #
vertex $-1 $201 $376 #
straight-curve $-1 -36.763491818344079 30.629685935068647 54.467925818904362 0 0 1 I I #
straight-curve $-1 -36.763491818344079 8.2072075713313097e-007 57.399856436786003 0 0.49999998660252726 -0.86602541151947299 I I #
edge $-1 $370 14.443817722711247 $204 36.763491818344079 $294 $377 forward 7 unknown #
point $-1 -36.763491818344079 30.629685935068647 8.8147164046299729 #
point $-1 -36.763491818344079 28.050643494747764 8.8147164046299693 #
edge $-1 $378 1 $378 0 $207 $-1 forward 7 unknown #
vertex $-1 $208 $379 #
ellipse-curve $-1 -30.386442076734696 27.760296707492575 5.6690628673000143 0 0.86602541151947299 0.49999998660252726 1 0 0 1 I I #
point $-1 -29.386442076734696 29.340164714908209 6.5812000540779518 #
edge $-1 $380 1 $380 0 $211 $-1 forward 7 unknown #
vertex $-1 $212 $381 #
ellipse-curve $-1 -20.820867464320624 27.760296707492575 5.6690628673000143 0 0.86602541151947299 0.49999998660252726 1 0 0 1 I I #
point $-1 -19.820867464320624 29.340164714908209 6.5812000540779518 #
loop $-1 $-1 $223 $215 #
plane-surface $-1 0 -30.629685935068647 0 0 1 0 0 0 1 forward_v I I I I #
coedge $-1 $313 $218 $382 $383 reversed $138 $-1 #
coedge $-1 $218 $312 $316 $384 reversed $138 $-1 #
edge $-1 $385 2.5437104257963417e-014 $317 7.0276952066078167 $218 $386 forward 7 unknown #
coedge $-1 $220 $219 $320 $387 reversed $87 $-1 #
coedge $-1 $226 $221 $313 $384 forward $216 $-1 #
vertex $-1 $384 $388 #
straight-curve $-1 -15.879410067882906 -25.747838694721796 8.8147164046299729 -1 0 0 I I #
coedge $-1 $382 $223 $226 $324 reversed $310 $-1 #
coedge $-1 $223 $382 $315 $387 forward $310 $-1 #
vertex $-1 $224 $389 #
straight-curve $-1 -19.396222545486417 -30.62968593506865 37.679618705878454 0 0 1 I I #
straight-curve $-1 -19.396222545486417 -30.629685935068665 3.7594154799672168 0 -0.69465836192734942 -0.71933980857756763 I I #
edge $-1 $390 -44.121417726045209 $227 -19.396222545486417 $319 $391 forward 7 unknown #
point $-1 -19.396222545486417 -30.629685935068647 8.8147164046299729 #
point $-1 -19.396222545486417 -25.747838694721793 8.8147164046299729 #
edge $-1 $392 1 $392 0 $230 $-1 forward 7 unknown #
vertex $-1 $231 $393 #
ellipse-curve $-1 -37.057076245885554 -26.551000296113877 4.7054975824949805 0 -0.71933980857756763 0.69465836192734942 1.5 0 0 1 I I #
point $-1 -35.557076245885554 -28.188762314895211 6.2870659422985966 #
edge $-1 $394 1 $394 0 $234 $-1 forward 7 unknown #
vertex $-1 $235 $395 #
ellipse-curve $-1 -26.460564025646072 -26.551000296113877 4.7054975824949805 0 -0.71933980857756763 0.69465836192734942 1.5 0 0 1 I I #
point $-1 -24.960564025646072 -28.188762314895211 6.2870659422985966 #
plane-surface $-1 51.535996581926938 0 0 -1 0 0 0 0 1 forward_v I I I I #
coedge $-1 $243 $241 $245 $340 reversed $160 $-1 #
edge $-1 $256 -8.8147164046299729 $342 8.8147164046299729 $255 $396 forward 7 unknown #
vertex $-1 $340 $397 #
straight-curve $-1 -51.535996581926938 -30.629685935068647 0 0 0 -1 I I #
edge $-1 $338 -30.629685935068647 $342 30.629685935068647 $336 $398 forward 7 unknown #
straight-curve $-1 0 -30.629685935068647 -8.8147164046299729 -1 0 0 I I #
vertex $-1 $248 $399 #
straight-curve $-1 0 30.629685935068647 -8.8147164046299729 1 0 0 I I #
point $-1 51.535996581926938 30.629685935068647 -8.8147164046299729 #
point $-1 51.535996581926938 -30.629685935068647 -8.8147164046299729 #
straight-curve $-1 -51.535996581926938 0 8.8147164046299729 0 -1 0 I I #
point $-1 -51.535996581926938 30.629685935068647 8.8147164046299729 #
point $-1 -51.535996581926938 -30.629685935068647 8.8147164046299729 #
straight-curve $-1 51.535996581926938 -30.629685935068647 0 0 0 -1 I I #
straight-curve $-1 51.535996581926938 30.629685935068647 0 0 0 -1 I I #
plane-surface $-1 0 -30.629685935068647 0 0 1 0 0 0 1 forward_v I I I I #
coedge $-1 $355 $400 $271 $359 forward $266 $-1 #
coedge $-1 $401 $268 $275 $364 reversed $179 $-1 #
coedge $-1 $268 $401 $279 $366 forward $179 $-1 #
coedge $-1 $402 $352 $269 $356 forward $266 $-1 #
edge $-1 $357 44.121417726045209 $403 51.535996581926938 $269 $404 forward 7 unknown #
vertex $-1 $356 $405 #
straight-curve $-1 -44.121417726045209 30.629685935068647 3.4536433876076771 0 0 -1 I I #
edge $-1 $361 -30.629685935068647 $357 30.629685935068647 $352 $406 forward 7 unknown #
coedge $-1 $275 $272 $400 $407 reversed $276 $-1 #
vertex $-1 $273 $408 #
straight-curve $-1 -44.121417726045209 -30.629685935068647 3.4536433876076771 0 0 1 I I #
straight-curve $-1 -51.535996581926938 0 4.9998571458007355 0 -1 0 I I #
edge $-1 $409 -8.8147164046299729 $277 -4.9998571458007355 $353 $410 forward 7 unknown #
point $-1 -51.535996581926938 -30.629685935068647 4.9998571458007355 #
edge $-1 $403 -8.8147164046299729 $280 -4.9998571458007355 $279 $411 forward 7 unknown #
point $-1 -51.535996581926938 30.629685935068647 4.9998571458007355 #
coedge $-1 $295 $294 $287 $369 forward $284 $-1 #
edge $-1 $370 45.653209414274386 $373 50.120242115378446 $368 $412 forward 7 unknown #
vertex $-1 $299 $413 #
straight-curve $-1 -14.443817722711247 44.63148305828981 8.8147164046299693 0 1 0 I I #
edge $-1 $373 1.6419903374474156 $296 23.961664433080248 $295 $414 forward 7 unknown #
vertex $-1 $372 $415 #
straight-curve $-1 -14.443817722711247 8.2072075713313097e-007 57.399856436786003 0 -0.49999998660252726 0.86602541151947299 I I #
point $-1 -14.443817722711247 28.050643494747764 8.8147164046299693 #
point $-1 -36.763491818344079 30.629685935068647 4.3476837035259166 #
straight-curve $-1 0 30.629685935068647 8.8147164046299729 -1 0 0 I I #
vertex $-1 $302 $416 #
point $-1 -29.386442076734696 27.760296707492575 5.6690628673000143 #
vertex $-1 $306 $417 #
point $-1 -19.820867464320624 27.760296707492575 5.6690628673000143 #
coedge $-1 $320 $319 $312 $383 forward $310 $-1 #
edge $-1 $390 28.864902301248481 $385 33.920203225911216 $382 $418 forward 7 unknown #
edge $-1 $317 25.747838694721793 $390 30.629685935068647 $316 $419 forward 7 unknown #
vertex $-1 $383 $420 #
straight-curve $-1 -44.121417726045209 -30.629685935068665 3.7594154799672168 0 0.69465836192734942 0.71933980857756763 I I #
edge $-1 $385 -28.242007658162301 $321 -3.5168124776035103 $320 $421 forward 7 unknown #
point $-1 -44.121417726045209 -25.747838694721793 8.8147164046299729 #
point $-1 -19.396222545486417 -30.629685935068647 3.759415479967235 #
vertex $-1 $324 $422 #
straight-curve $-1 0 -30.629685935068647 8.8147164046299729 1 0 0 I I #
vertex $-1 $327 $423 #
point $-1 -35.557076245885554 -26.551000296113877 4.7054975824949805 #
vertex $-1 $331 $424 #
point $-1 -24.960564025646072 -26.551000296113877 4.7054975824949805 #
straight-curve $-1 -51.535996581926938 30.629685935068647 0 0 0 -1 I I #
point $-1 -51.535996581926938 -30.629685935068647 -8.8147164046299729 #
straight-curve $-1 -51.535996581926938 0 -8.8147164046299729 0 1 0 I I #
point $-1 -51.535996581926938 30.629685935068647 -8.8147164046299729 #
coedge $-1 $352 $402 $360 $407 forward $266 $-1 #
coedge $-1 $354 $353 $402 $425 reversed $179 $-1 #
coedge $-1 $400 $355 $401 $425 forward $266 $-1 #
vertex $-1 $356 $426 #
straight-curve $-1 0 30.629685935068647 8.8147164046299729 -1 0 0 I I #
point $-1 -44.121417726045209 30.629685935068647 8.8147164046299729 #
straight-curve $-1 -44.121417726045209 0 8.8147164046299729 0 1 0 I I #
edge $-1 $409 -51.535996581926938 $361 -44.121417726045209 $360 $427 forward 7 unknown #
point $-1 -44.121417726045209 -30.629685935068647 8.8147164046299729 #
vertex $-1 $425 $428 #
straight-curve $-1 -51.535996581926938 -30.629685935068647 0 0 0 -1 I I #
straight-curve $-1 -51.535996581926938 30.629685935068647 0 0 0 -1 I I #
straight-curve $-1 -14.443817722711247 30.629685935068647 54.467925818904362 0 0 -1 I I #
point $-1 -14.443817722711247 30.629685935068647 8.8147164046299729 #
straight-curve $-1 -12.801827385263831 30.62968593506865 4.3476837035259059 -1 0 0 I I #
point $-1 -14.443817722711247 30.629685935068647 4.3476837035259166 #
point $-1 -30.386442076734696 26.894271295973102 5.1690628806974876 #
point $-1 -20.820867464320624 26.894271295973102 5.1690628806974876 #
straight-curve $-1 -44.121417726045209 -30.62968593506865 37.679618705878454 0 0 -1 I I #
straight-curve $-1 -44.121417726045209 0 8.8147164046299729 0 -1 0 I I #
point $-1 -44.121417726045209 -30.629685935068647 3.759415479967235 #
straight-curve $-1 -15.879410067882906 -30.629685935068647 3.7594154799672372 1 0 0 I I #
point $-1 -44.121417726045209 -30.629685935068647 8.8147164046299729 #
point $-1 -37.057076245885554 -25.471990583247525 3.6635100396039566 #
point $-1 -26.460564025646072 -25.471990583247525 3.6635100396039566 #
edge $-1 $403 -30.629685935068647 $409 30.629685935068647 $401 $429 forward 7 unknown #
point $-1 -51.535996581926938 30.629685935068647 8.8147164046299729 #
straight-curve $-1 0 -30.629685935068647 8.8147164046299729 1 0 0 I I #
point $-1 -51.535996581926938 -30.629685935068647 8.8147164046299729 #
straight-curve $-1 -51.535996581926938 0 8.8147164046299729 0 -1 0 I I #
End-of-ACIS-data 