500 0 6 0           
7 Unknown 11 ACIS 5.0 NT 24 Fri Mar 26 18:52:43 1999 
-1 9.9999999999999995e-007 1e-010 
body $-1 $6 $-1 $7 #
body $-1 $8 $-1 $9 #
body $-1 $10 $-1 $11 #
body $-1 $12 $-1 $13 #
body $-1 $14 $-1 $15 #
body $-1 $16 $-1 $17 #
lump $-1 $-1 $18 $0 #
transform $-1 1 0 0 0 1 0 0 0 1 46.906949064607687 24.850791130770702 9.050778413510681 1 rotate no_reflect no_shear #
lump $-1 $-1 $19 $1 #
transform $-1 1 0 0 0 1 0 0 0 1 46.906949064607687 24.850791130770702 9.050778413510681 1 rotate no_reflect no_shear #
lump $-1 $-1 $20 $2 #
transform $-1 1 0 0 0 1 0 0 0 1 46.906949064607687 24.850791130770702 9.050778413510681 1 rotate no_reflect no_shear #
lump $-1 $-1 $21 $3 #
transform $-1 1 0 0 0 1 0 0 0 1 46.906949064607687 24.850791130770702 9.050778413510681 1 rotate no_reflect no_shear #
lump $-1 $-1 $22 $4 #
transform $-1 1 0 0 0 1 0 0 0 1 46.906949064607687 24.850791130770702 9.050778413510681 1 rotate no_reflect no_shear #
lump $-1 $-1 $23 $5 #
transform $-1 1 0 0 0 1 0 0 0 1 46.906949064607687 24.850791130770702 9.050778413510681 1 rotate no_reflect no_shear #
shell $-1 $-1 $-1 $24 $-1 $6 #
shell $-1 $-1 $-1 $25 $-1 $8 #
shell $-1 $-1 $-1 $26 $-1 $10 #
shell $-1 $-1 $-1 $27 $-1 $12 #
shell $-1 $-1 $-1 $28 $-1 $14 #
shell $-1 $-1 $-1 $29 $-1 $16 #
face $-1 $30 $31 $18 $-1 $32 forward single #
face $-1 $33 $34 $19 $-1 $35 forward single #
face $-1 $36 $37 $20 $-1 $38 forward single #
face $-1 $39 $40 $21 $-1 $41 reversed single #
face $-1 $42 $43 $22 $-1 $44 forward single #
face $-1 $45 $46 $23 $-1 $47 forward single #
face $-1 $48 $49 $18 $-1 $50 reversed single #
loop $-1 $-1 $51 $24 #
plane-surface $-1 0 0 9.050778413510681 0 0 1 1 0 0 forward_v I I I I #
face $-1 $52 $53 $19 $-1 $54 reversed single #
loop $-1 $-1 $55 $25 #
plane-surface $-1 0 -24.850791130770702 0 0 1 0 0 0 1 forward_v I I I I #
face $-1 $56 $57 $20 $-1 $58 reversed single #
loop $-1 $-1 $59 $26 #
plane-surface $-1 0 24.850791130770702 0 0 -1 0 0 0 -1 forward_v I I I I #
face $-1 $60 $61 $21 $-1 $62 reversed single #
loop $-1 $-1 $63 $27 #
plane-surface $-1 -128.15216879820736 3.8058600268483325 51.582927024234323 0 1 0 -0.86602541151947299 0 0.49999998660252726 forward_v I I I I #
face $-1 $64 $65 $22 $-1 $66 forward single #
loop $-1 $67 $68 $28 #
cone-surface $-1 -45.046561374670382 5.7439811376451111 6.5184166671982258 0.86602541151947299 0 -0.49999998660252726 0.24999999330126363 0 0.43301270575973649 1 I I 0 1 0.5 forward I I I I #
face $-1 $69 $70 $23 $-1 $71 forward single #
loop $-1 $72 $73 $29 #
cone-surface $-1 -45.046561374670382 8.6511628038402719 6.5184166671982258 0.86602541151947299 0 -0.49999998660252726 0.24999999330126363 0 0.43301270575973649 1 I I 0 1 0.5 forward I I I I #
face $-1 $74 $75 $18 $-1 $76 reversed single #
loop $-1 $-1 $77 $30 #
plane-surface $-1 0 0 -9.050778413510681 0 0 1 1 0 0 forward_v I I I I #
coedge $-1 $78 $79 $80 $81 forward $31 $-1 #
face $-1 $82 $83 $19 $-1 $84 forward single #
loop $-1 $-1 $85 $33 #
plane-surface $-1 -46.906949064607687 0 0 1 0 0 0 0 -1 forward_v I I I I #
coedge $-1 $86 $87 $88 $89 forward $34 $-1 #
face $-1 $90 $91 $20 $-1 $92 forward single #
loop $-1 $-1 $93 $36 #
plane-surface $-1 46.906949064607687 0 0 -1 0 0 0 0 1 forward_v I I I I #
coedge $-1 $94 $95 $96 $97 forward $37 $-1 #
face $-1 $98 $99 $21 $-1 $100 reversed single #
loop $-1 $-1 $101 $39 #
plane-surface $-1 -46.906949064607687 7.1975719707426862 4.6759792164957759 -0.86602541151947299 0 0.49999998660252726 0.49999998660252726 0 0.86602541151947299 forward_v I I I I #
coedge $-1 $102 $103 $104 $105 reversed $40 $-1 #
face $-1 $-1 $106 $22 $-1 $107 forward single #
loop $-1 $108 $109 $42 #
cone-surface $-1 -44.232563033757806 5.7439811376451111 6.0484545227425865 0.86602541151947299 0 -0.49999998660252726 0.12499999665063181 0 0.21650635287986825 1 I I -0.70710678118654746 0.70710678118654746 0.25 forward I I I I #
loop $-1 $-1 $110 $28 #
coedge $-1 $68 $68 $111 $112 reversed $43 $-1 #
face $-1 $-1 $113 $23 $-1 $114 forward single #
loop $-1 $115 $116 $45 #
cone-surface $-1 -44.232563033757806 8.6511628038402719 6.0484545227425865 0.86602541151947299 0 -0.49999998660252726 0.12499999665063181 0 0.21650635287986825 1 I I -0.70710678118654746 0.70710678118654746 0.25 forward I I I I #
loop $-1 $-1 $117 $29 #
coedge $-1 $73 $73 $118 $119 reversed $46 $-1 #
face $-1 $120 $121 $18 $-1 $122 reversed single #
loop $-1 $-1 $123 $48 #
plane-surface $-1 0 -24.850791130770702 0 0 1 0 0 0 1 forward_v I I I I #
coedge $-1 $124 $125 $126 $127 forward $49 $-1 #
coedge $-1 $128 $51 $129 $130 forward $31 $-1 #
coedge $-1 $51 $128 $131 $132 forward $31 $-1 #
coedge $-1 $133 $134 $51 $81 reversed $135 $-1 #
edge $-1 $136 -24.850791130770702 $137 24.850791130770702 $80 $138 forward 7 unknown #
face $-1 $139 $140 $19 $-1 $141 reversed single #
loop $-1 $-1 $142 $52 #
plane-surface $-1 0 -29.536427204697226 -1.2349465363522416 0 0 1 1 0 0 forward_v I I I I #
coedge $-1 $143 $144 $87 $145 forward $53 $-1 #
coedge $-1 $146 $55 $147 $148 reversed $34 $-1 #
coedge $-1 $55 $146 $85 $145 reversed $34 $-1 #
coedge $-1 $149 $142 $55 $89 reversed $83 $-1 #
edge $-1 $150 -46.906949064607687 $151 46.906949064607687 $88 $152 forward 7 unknown #
face $-1 $153 $154 $20 $-1 $155 reversed single #
loop $-1 $-1 $156 $56 #
plane-surface $-1 0 29.536427204697226 -1.2349465363522416 0 0 1 1 0 0 forward_v I I I I #
coedge $-1 $157 $158 $95 $159 forward $57 $-1 #
coedge $-1 $160 $59 $161 $162 reversed $37 $-1 #
coedge $-1 $59 $160 $93 $159 reversed $37 $-1 #
coedge $-1 $156 $163 $59 $97 reversed $91 $-1 #
edge $-1 $164 -46.906949064607687 $165 46.906949064607687 $96 $166 forward 7 unknown #
face $-1 $167 $168 $21 $-1 $169 reversed single #
loop $-1 $-1 $170 $60 #
plane-surface $-1 -128.15216879820736 10.58928391463704 51.582927024234323 0 -1 0 0.86602541151947299 0 -0.49999998660252726 forward_v I I I I #
coedge $-1 $171 $172 $173 $174 reversed $61 $-1 #
coedge $-1 $103 $63 $175 $176 reversed $40 $-1 #
coedge $-1 $63 $102 $171 $177 reversed $40 $-1 #
coedge $-1 $173 $178 $63 $105 forward $179 $-1 #
edge $-1 $180 17.169135334495991 $181 19.694926738305178 $104 $182 forward 7 unknown #
loop $-1 $-1 $111 $64 #
plane-surface $-1 -46.906949064607687 7.1975719707426862 4.6759792164957759 -0.86602541151947299 0 0.49999998660252726 0.49999998660252726 0 0.86602541151947299 forward_v I I I I #
loop $-1 $-1 $183 $42 #
coedge $-1 $109 $109 $110 $184 reversed $65 $-1 #
coedge $-1 $110 $110 $109 $184 forward $67 $-1 #
coedge $-1 $111 $111 $68 $112 forward $106 $-1 #
edge $-1 $185 0 $185 6.2831853071796004 $111 $186 forward 7 unknown #
loop $-1 $-1 $118 $69 #
plane-surface $-1 -46.906949064607687 7.1975719707426862 4.6759792164957759 -0.86602541151947299 0 0.49999998660252726 0.49999998660252726 0 0.86602541151947299 forward_v I I I I #
loop $-1 $-1 $187 $45 #
coedge $-1 $116 $116 $117 $188 reversed $70 $-1 #
coedge $-1 $117 $117 $116 $188 forward $72 $-1 #
coedge $-1 $118 $118 $73 $119 forward $113 $-1 #
edge $-1 $189 0 $189 6.2831853071796004 $118 $190 forward 7 unknown #
face $-1 $191 $192 $18 $-1 $193 reversed single #
loop $-1 $-1 $194 $74 #
plane-surface $-1 -46.906949064607687 0 0 1 0 0 0 0 -1 forward_v I I I I #
coedge $-1 $195 $131 $196 $197 forward $75 $-1 #
coedge $-1 $198 $77 $195 $199 forward $49 $-1 #
coedge $-1 $77 $198 $200 $201 forward $49 $-1 #
coedge $-1 $134 $133 $77 $127 reversed $135 $-1 #
edge $-1 $202 -24.850791130770702 $203 24.850791130770702 $126 $204 forward 7 unknown #
coedge $-1 $79 $78 $205 $206 forward $31 $-1 #
coedge $-1 $207 $208 $78 $130 reversed $192 $-1 #
edge $-1 $137 -46.906949064607687 $209 46.906949064607687 $129 $210 forward 7 unknown #
coedge $-1 $123 $211 $79 $132 reversed $75 $-1 #
edge $-1 $212 -46.906949064607687 $136 46.906949064607687 $131 $213 forward 7 unknown #
coedge $-1 $126 $80 $211 $214 forward $135 $-1 #
coedge $-1 $80 $126 $207 $215 reversed $135 $-1 #
loop $-1 $-1 $133 $191 #
vertex $-1 $81 $216 #
vertex $-1 $81 $217 #
straight-curve $-1 46.906949064607687 0 9.050778413510681 0 1 0 I I #
face $-1 $218 $219 $19 $-1 $220 reversed single #
loop $-1 $-1 $221 $82 #
plane-surface $-1 0 -29.536427204697226 -5.8987477143899749 0 0 1 1 0 0 forward_v I I I I #
coedge $-1 $88 $222 $223 $224 forward $83 $-1 #
coedge $-1 $225 $85 $226 $227 reversed $53 $-1 #
coedge $-1 $85 $225 $149 $228 reversed $53 $-1 #
edge $-1 $150 1.2349465363522416 $229 5.8987477143899749 $85 $230 forward 7 unknown #
coedge $-1 $87 $86 $231 $232 forward $34 $-1 #
coedge $-1 $223 $233 $86 $148 forward $234 $-1 #
edge $-1 $235 -5.8987477143899749 $151 -1.2349465363522416 $147 $236 forward 7 unknown #
coedge $-1 $222 $88 $144 $228 forward $83 $-1 #
vertex $-1 $145 $237 #
vertex $-1 $224 $238 #
straight-curve $-1 0 -24.850791130770702 -1.2349465363522416 1 0 0 I I #
face $-1 $239 $240 $20 $-1 $241 reversed single #
loop $-1 $-1 $242 $90 #
plane-surface $-1 0 29.536427204697226 -5.8987477143899749 0 0 1 1 0 0 forward_v I I I I #
coedge $-1 $243 $96 $158 $244 forward $91 $-1 #
coedge $-1 $245 $93 $242 $246 reversed $57 $-1 #
coedge $-1 $93 $245 $156 $244 reversed $57 $-1 #
edge $-1 $164 1.2349465363522416 $247 5.8987477143899749 $93 $248 forward 7 unknown #
coedge $-1 $95 $94 $249 $250 forward $37 $-1 #
coedge $-1 $251 $252 $94 $162 forward $253 $-1 #
edge $-1 $254 -5.8987477143899749 $165 -1.2349465363522416 $161 $255 forward 7 unknown #
coedge $-1 $96 $243 $251 $256 forward $91 $-1 #
vertex $-1 $159 $257 #
vertex $-1 $256 $258 #
straight-curve $-1 0 24.850791130770702 -1.2349465363522416 -1 0 0 I I #
face $-1 $-1 $179 $21 $-1 $259 forward single #
loop $-1 $-1 $260 $98 #
plane-surface $-1 -46.906949064607687 0 0 1 0 0 0 0 -1 forward_v I I I I #
coedge $-1 $261 $262 $263 $264 reversed $99 $-1 #
coedge $-1 $265 $101 $103 $177 forward $61 $-1 #
coedge $-1 $101 $265 $261 $266 forward $61 $-1 #
coedge $-1 $263 $104 $101 $174 forward $179 $-1 #
edge $-1 $181 0.20707404147698938 $267 6.9904979292656968 $173 $268 forward 7 unknown #
coedge $-1 $269 $270 $102 $176 forward $168 $-1 #
edge $-1 $271 -21.115484295621386 $180 -16.74068509860648 $175 $272 forward 7 unknown #
edge $-1 $181 -5.0515829429752657 $271 0 $103 $273 forward 7 unknown #
coedge $-1 $104 $263 $269 $274 forward $179 $-1 #
loop $-1 $-1 $263 $167 #
vertex $-1 $176 $275 #
vertex $-1 $105 $276 #
straight-curve $-1 -64.076084399103678 3.8058600268483325 9.050778413510681 1 0 0 I I #
coedge $-1 $183 $183 $-1 $277 reversed $108 $-1 #
edge $-1 $278 0 $278 6.2831853071796004 $109 $279 forward 7 unknown #
vertex $-1 $112 $280 #
ellipse-curve $-1 -45.64405336270309 5.7439811376451111 6.863378815003232 -0.86602541151947299 0 0.49999998660252726 0.24999999330126363 0 0.43301270575973649 1 I I #
coedge $-1 $187 $187 $-1 $281 reversed $115 $-1 #
edge $-1 $282 0 $282 6.2831853071796004 $116 $283 forward 7 unknown #
vertex $-1 $119 $284 #
ellipse-curve $-1 -45.64405336270309 8.6511628038402719 6.863378815003232 -0.86602541151947299 0 0.49999998660252726 0.24999999330126363 0 0.43301270575973649 1 I I #
face $-1 $-1 $135 $18 $-1 $285 reversed single #
loop $-1 $-1 $208 $120 #
plane-surface $-1 0 24.850791130770702 0 0 -1 0 0 0 -1 forward_v I I I I #
coedge $-1 $286 $205 $208 $287 forward $121 $-1 #
coedge $-1 $211 $123 $124 $199 reversed $75 $-1 #
coedge $-1 $205 $286 $123 $197 reversed $121 $-1 #
edge $-1 $212 -9.050778413510681 $288 9.050778413510681 $196 $289 forward 7 unknown #
coedge $-1 $125 $124 $286 $290 forward $49 $-1 #
edge $-1 $203 -46.906949064607687 $288 46.906949064607687 $195 $291 forward 7 unknown #
coedge $-1 $208 $207 $125 $201 reversed $192 $-1 #
edge $-1 $292 -46.906949064607687 $202 46.906949064607687 $200 $293 forward 7 unknown #
vertex $-1 $127 $294 #
vertex $-1 $214 $295 #
straight-curve $-1 46.906949064607687 0 -9.050778413510681 0 -1 0 I I #
coedge $-1 $194 $196 $128 $206 reversed $121 $-1 #
edge $-1 $209 -24.850791130770702 $212 24.850791130770702 $205 $296 forward 7 unknown #
coedge $-1 $200 $129 $134 $215 forward $192 $-1 #
coedge $-1 $129 $200 $194 $287 reversed $192 $-1 #
vertex $-1 $130 $297 #
straight-curve $-1 0 24.850791130770702 9.050778413510681 -1 0 0 I I #
coedge $-1 $131 $195 $133 $214 reversed $75 $-1 #
vertex $-1 $206 $298 #
straight-curve $-1 0 -24.850791130770702 9.050778413510681 1 0 0 I I #
edge $-1 $136 -9.050778413510681 $203 9.050778413510681 $133 $299 forward 7 unknown #
edge $-1 $137 -9.050778413510681 $202 9.050778413510681 $134 $300 forward 7 unknown #
point $-1 46.906949064607687 -24.850791130770702 9.050778413510681 #
point $-1 46.906949064607687 24.850791130770702 9.050778413510681 #
face $-1 $-1 $234 $19 $-1 $301 reversed single #
loop $-1 $-1 $302 $139 #
plane-surface $-1 0 -34.22206327862375 -3.5668471253711083 0 1 0 0 0 1 forward_v I I I I #
coedge $-1 $303 $231 $233 $304 forward $140 $-1 #
coedge $-1 $142 $149 $305 $306 forward $83 $-1 #
coedge $-1 $307 $147 $142 $224 reversed $234 $-1 #
edge $-1 $308 -4.6856360739265241 $151 4.6856360739265241 $223 $309 forward 7 unknown #
coedge $-1 $144 $143 $302 $310 reversed $53 $-1 #
coedge $-1 $231 $303 $143 $227 forward $140 $-1 #
edge $-1 $311 -4.6856360739265241 $229 4.6856360739265241 $143 $312 forward 7 unknown #
edge $-1 $150 -4.6856360739265241 $313 4.6856360739265241 $144 $314 forward 7 unknown #
vertex $-1 $145 $315 #
straight-curve $-1 -46.906949064607687 -24.850791130770702 0 0 0 -1 I I #
coedge $-1 $221 $226 $146 $232 reversed $140 $-1 #
edge $-1 $235 -46.906949064607687 $229 46.906949064607687 $231 $316 forward 7 unknown #
coedge $-1 $147 $307 $221 $304 reversed $234 $-1 #
loop $-1 $-1 $147 $218 #
vertex $-1 $148 $317 #
straight-curve $-1 46.906949064607687 -24.850791130770702 0 0 0 1 I I #
point $-1 -46.906949064607687 -24.850791130770702 -1.2349465363522416 #
point $-1 46.906949064607687 -24.850791130770702 -1.2349465363522416 #
face $-1 $-1 $253 $20 $-1 $318 reversed single #
loop $-1 $-1 $319 $153 #
plane-surface $-1 0 34.22206327862375 -3.5668471253711083 0 -1 0 0 0 -1 forward_v I I I I #
coedge $-1 $249 $320 $157 $246 forward $154 $-1 #
coedge $-1 $163 $156 $321 $322 forward $91 $-1 #
edge $-1 $164 -4.6856360739265241 $323 4.6856360739265241 $158 $324 forward 7 unknown #
coedge $-1 $158 $157 $319 $325 reversed $57 $-1 #
edge $-1 $326 -4.6856360739265241 $247 4.6856360739265241 $157 $327 forward 7 unknown #
vertex $-1 $159 $328 #
straight-curve $-1 46.906949064607687 24.850791130770702 0 0 0 -1 I I #
coedge $-1 $329 $242 $160 $250 reversed $154 $-1 #
edge $-1 $254 -46.906949064607687 $247 46.906949064607687 $249 $330 forward 7 unknown #
coedge $-1 $331 $161 $163 $256 reversed $253 $-1 #
coedge $-1 $161 $331 $329 $332 reversed $253 $-1 #
loop $-1 $-1 $161 $239 #
vertex $-1 $162 $333 #
straight-curve $-1 -46.906949064607687 24.850791130770702 0 0 0 1 I I #
edge $-1 $334 -4.6856360739265241 $165 4.6856360739265241 $251 $335 forward 7 unknown #
point $-1 46.906949064607687 24.850791130770702 -1.2349465363522416 #
point $-1 -46.906949064607687 24.850791130770702 -1.2349465363522416 #
plane-surface $-1 0 0 9.050778413510681 0 0 1 1 0 0 forward_v I I I I #
coedge $-1 $270 $269 $262 $336 forward $168 $-1 #
coedge $-1 $262 $170 $172 $266 reversed $99 $-1 #
coedge $-1 $170 $261 $260 $336 reversed $99 $-1 #
coedge $-1 $178 $173 $170 $264 forward $179 $-1 #
edge $-1 $267 -19.694926738305178 $337 -17.169135334495991 $263 $338 forward 7 unknown #
coedge $-1 $172 $171 $270 $339 reversed $61 $-1 #
edge $-1 $340 0 $267 5.0515829429752657 $261 $341 forward 7 unknown #
vertex $-1 $174 $342 #
straight-curve $-1 -44.3811576607985 3.5987859853713431 9.050778413510681 0 1 0 I I #
coedge $-1 $260 $175 $178 $274 reversed $168 $-1 #
coedge $-1 $175 $260 $265 $339 forward $168 $-1 #
vertex $-1 $176 $343 #
straight-curve $-1 -46.906949064607687 3.8058600268483325 25.791463512117161 0 0 1 I I #
straight-curve $-1 -46.906949064607687 3.8058600268483325 4.6759792164957759 -0.49999998660252726 0 -0.86602541151947299 I I #
edge $-1 $337 -10.58928391463704 $180 -3.8058600268483325 $269 $344 forward 7 unknown #
point $-1 -46.906949064607687 3.8058600268483325 9.050778413510681 #
point $-1 -44.3811576607985 3.8058600268483325 9.050778413510681 #
edge $-1 $345 1 $345 0 $183 $-1 forward 7 unknown #
vertex $-1 $184 $346 #
ellipse-curve $-1 -44.449069386637674 5.7439811376451111 6.1734545193932187 -0.86602541151947299 0 0.49999998660252726 0.24999999330126363 0 0.43301270575973649 1 I I #
point $-1 -45.394053369401831 5.7439811376451111 7.2963915207629704 #
edge $-1 $347 1 $347 0 $187 $-1 forward 7 unknown #
vertex $-1 $188 $348 #
ellipse-curve $-1 -44.449069386637674 8.6511628038402719 6.1734545193932187 -0.86602541151947299 0 0.49999998660252726 0.24999999330126363 0 0.43301270575973649 1 I I #
point $-1 -45.394053369401831 8.6511628038402719 7.2963915207629704 #
plane-surface $-1 46.906949064607687 0 0 -1 0 0 0 0 1 forward_v I I I I #
coedge $-1 $196 $194 $198 $290 reversed $121 $-1 #
edge $-1 $209 -9.050778413510681 $292 9.050778413510681 $208 $349 forward 7 unknown #
vertex $-1 $290 $350 #
straight-curve $-1 -46.906949064607687 -24.850791130770702 0 0 0 -1 I I #
edge $-1 $288 -24.850791130770702 $292 24.850791130770702 $286 $351 forward 7 unknown #
straight-curve $-1 0 -24.850791130770702 -9.050778413510681 -1 0 0 I I #
vertex $-1 $201 $352 #
straight-curve $-1 0 24.850791130770702 -9.050778413510681 1 0 0 I I #
point $-1 46.906949064607687 24.850791130770702 -9.050778413510681 #
point $-1 46.906949064607687 -24.850791130770702 -9.050778413510681 #
straight-curve $-1 -46.906949064607687 0 9.050778413510681 0 -1 0 I I #
point $-1 -46.906949064607687 24.850791130770702 9.050778413510681 #
point $-1 -46.906949064607687 -24.850791130770702 9.050778413510681 #
straight-curve $-1 46.906949064607687 -24.850791130770702 0 0 0 -1 I I #
straight-curve $-1 46.906949064607687 24.850791130770702 0 0 0 -1 I I #
plane-surface $-1 46.906949064607687 0 0 -1 0 0 0 0 1 forward_v I I I I #
coedge $-1 $353 $305 $225 $310 forward $219 $-1 #
coedge $-1 $226 $221 $353 $354 forward $140 $-1 #
edge $-1 $235 -4.6856360739265241 $355 4.6856360739265241 $233 $356 forward 7 unknown #
coedge $-1 $302 $357 $222 $306 reversed $219 $-1 #
edge $-1 $313 -46.906949064607687 $308 46.906949064607687 $305 $358 forward 7 unknown #
coedge $-1 $233 $223 $357 $359 forward $234 $-1 #
vertex $-1 $224 $360 #
straight-curve $-1 46.906949064607687 -29.536427204697226 -1.2349465363522416 0 1 0 I I #
edge $-1 $313 -2.3319005890188667 $311 2.3319005890188667 $225 $361 forward 7 unknown #
vertex $-1 $227 $362 #
straight-curve $-1 -46.906949064607687 -29.536427204697226 -5.8987477143899749 0 1 0 I I #
vertex $-1 $228 $363 #
straight-curve $-1 -46.906949064607687 -29.536427204697226 -1.2349465363522416 0 -1 0 I I #
point $-1 -46.906949064607687 -24.850791130770702 -5.8987477143899749 #
straight-curve $-1 0 -24.850791130770702 -5.8987477143899749 -1 0 0 I I #
point $-1 46.906949064607687 -24.850791130770702 -5.8987477143899749 #
plane-surface $-1 -46.906949064607687 0 0 1 0 0 0 0 -1 forward_v I I I I #
coedge $-1 $364 $321 $245 $325 forward $240 $-1 #
coedge $-1 $242 $329 $364 $365 forward $154 $-1 #
coedge $-1 $319 $366 $243 $322 reversed $240 $-1 #
edge $-1 $323 -46.906949064607687 $334 46.906949064607687 $321 $367 forward 7 unknown #
vertex $-1 $244 $368 #
straight-curve $-1 46.906949064607687 29.536427204697226 -1.2349465363522416 0 1 0 I I #
edge $-1 $323 -2.3319005890188667 $326 2.3319005890188667 $245 $369 forward 7 unknown #
vertex $-1 $246 $370 #
straight-curve $-1 46.906949064607687 29.536427204697226 -5.8987477143899749 0 -1 0 I I #
point $-1 46.906949064607687 24.850791130770702 -5.8987477143899749 #
coedge $-1 $320 $249 $252 $332 forward $154 $-1 #
straight-curve $-1 0 24.850791130770702 -5.8987477143899749 1 0 0 I I #
coedge $-1 $252 $251 $366 $371 forward $253 $-1 #
edge $-1 $254 -4.6856360739265241 $372 4.6856360739265241 $252 $373 forward 7 unknown #
point $-1 -46.906949064607687 24.850791130770702 -5.8987477143899749 #
vertex $-1 $322 $374 #
straight-curve $-1 -46.906949064607687 29.536427204697226 -1.2349465363522416 0 -1 0 I I #
edge $-1 $337 16.74068509860648 $340 21.115484295621386 $260 $375 forward 7 unknown #
vertex $-1 $274 $376 #
straight-curve $-1 -64.076084399103678 10.58928391463704 9.050778413510681 -1 0 0 I I #
edge $-1 $340 -6.9904979292656968 $271 -0.20707404147698938 $270 $377 forward 7 unknown #
vertex $-1 $339 $378 #
straight-curve $-1 -46.906949064607687 10.58928391463704 4.6759792164957759 0.49999998660252726 0 0.86602541151947299 I I #
point $-1 -44.3811576607985 10.58928391463704 9.050778413510681 #
point $-1 -46.906949064607687 3.8058600268483325 4.6759792164957759 #
straight-curve $-1 -46.906949064607687 0 9.050778413510681 0 -1 0 I I #
vertex $-1 $277 $379 #
point $-1 -44.199069393336408 5.7439811376451111 6.6064672251529544 #
vertex $-1 $281 $380 #
point $-1 -44.199069393336408 8.6511628038402719 6.6064672251529544 #
straight-curve $-1 -46.906949064607687 24.850791130770702 0 0 0 -1 I I #
point $-1 -46.906949064607687 -24.850791130770702 -9.050778413510681 #
straight-curve $-1 -46.906949064607687 0 -9.050778413510681 0 1 0 I I #
point $-1 -46.906949064607687 24.850791130770702 -9.050778413510681 #
coedge $-1 $357 $302 $303 $354 reversed $219 $-1 #
edge $-1 $355 -46.906949064607687 $311 46.906949064607687 $353 $381 forward 7 unknown #
vertex $-1 $359 $382 #
straight-curve $-1 46.906949064607687 -29.536427204697226 -5.8987477143899749 0 -1 0 I I #
coedge $-1 $305 $353 $307 $359 reversed $219 $-1 #
straight-curve $-1 0 -34.22206327862375 -1.2349465363522416 1 0 0 I I #
edge $-1 $308 -2.3319005890188667 $355 2.3319005890188667 $307 $383 forward 7 unknown #
point $-1 46.906949064607687 -34.22206327862375 -1.2349465363522416 #
straight-curve $-1 -46.906949064607687 -34.22206327862375 -3.5668471253711083 0 0 -1 I I #
point $-1 -46.906949064607687 -34.22206327862375 -5.8987477143899749 #
point $-1 -46.906949064607687 -34.22206327862375 -1.2349465363522416 #
coedge $-1 $366 $319 $320 $365 reversed $240 $-1 #
edge $-1 $372 -46.906949064607687 $326 46.906949064607687 $364 $384 forward 7 unknown #
coedge $-1 $321 $364 $331 $371 reversed $240 $-1 #
straight-curve $-1 0 34.22206327862375 -1.2349465363522416 -1 0 0 I I #
point $-1 46.906949064607687 34.22206327862375 -1.2349465363522416 #
straight-curve $-1 46.906949064607687 34.22206327862375 -3.5668471253711083 0 0 -1 I I #
point $-1 46.906949064607687 34.22206327862375 -5.8987477143899749 #
edge $-1 $334 -2.3319005890188667 $372 2.3319005890188667 $366 $385 forward 7 unknown #
vertex $-1 $365 $386 #
straight-curve $-1 -46.906949064607687 29.536427204697226 -5.8987477143899749 0 1 0 I I #
point $-1 -46.906949064607687 34.22206327862375 -1.2349465363522416 #
straight-curve $-1 -46.906949064607687 10.58928391463704 25.791463512117161 0 0 -1 I I #
point $-1 -46.906949064607687 10.58928391463704 9.050778413510681 #
straight-curve $-1 -46.906949064607687 3.5987859853713431 4.6759792164957812 0 -1 0 I I #
point $-1 -46.906949064607687 10.58928391463704 4.6759792164957759 #
point $-1 -44.016056680877938 5.7439811376451111 5.9234545260919544 #
point $-1 -44.016056680877938 8.6511628038402719 5.9234545260919544 #
straight-curve $-1 0 -34.22206327862375 -5.8987477143899749 -1 0 0 I I #
point $-1 46.906949064607687 -34.22206327862375 -5.8987477143899749 #
straight-curve $-1 46.906949064607687 -34.22206327862375 -3.5668471253711083 0 0 -1 I I #
straight-curve $-1 0 34.22206327862375 -5.8987477143899749 1 0 0 I I #
straight-curve $-1 -46.906949064607687 34.22206327862375 -3.5668471253711083 0 0 -1 I I #
point $-1 -46.906949064607687 34.22206327862375 -5.8987477143899749 #
End-of-ACIS-data 