500 0 6 0           
7 Unknown 11 ACIS 5.0 NT 24 Fri Mar 26 00:40:10 1999 
-1 9.9999999999999995e-007 1e-010 
body $-1 $6 $-1 $7 #
body $-1 $8 $-1 $9 #
body $-1 $10 $-1 $11 #
body $-1 $12 $-1 $13 #
body $-1 $14 $-1 $15 #
body $-1 $16 $-1 $17 #
lump $-1 $-1 $18 $0 #
transform $-1 1 0 0 0 1 0 0 0 1 46.239204077272866 25.749283022492076 8.2770660465592449 1 rotate no_reflect no_shear #
lump $-1 $-1 $19 $1 #
transform $-1 1 0 0 0 1 0 0 0 1 46.239204077272866 25.749283022492076 8.2770660465592449 1 rotate no_reflect no_shear #
lump $-1 $-1 $20 $2 #
transform $-1 1 0 0 0 1 0 0 0 1 46.239204077272866 25.749283022492076 8.2770660465592449 1 rotate no_reflect no_shear #
lump $-1 $-1 $21 $3 #
transform $-1 1 0 0 0 1 0 0 0 1 46.239204077272866 25.749283022492076 8.2770660465592449 1 rotate no_reflect no_shear #
lump $-1 $-1 $22 $4 #
transform $-1 1 0 0 0 1 0 0 0 1 46.239204077272866 25.749283022492076 8.2770660465592449 1 rotate no_reflect no_shear #
lump $-1 $-1 $23 $5 #
transform $-1 1 0 0 0 1 0 0 0 1 46.239204077272866 25.749283022492076 8.2770660465592449 1 rotate no_reflect no_shear #
shell $-1 $-1 $-1 $24 $-1 $6 #
shell $-1 $-1 $-1 $25 $-1 $8 #
shell $-1 $-1 $-1 $26 $-1 $10 #
shell $-1 $-1 $-1 $27 $-1 $12 #
shell $-1 $-1 $-1 $28 $-1 $14 #
shell $-1 $-1 $-1 $29 $-1 $16 #
face $-1 $30 $31 $18 $-1 $32 forward single #
face $-1 $33 $34 $19 $-1 $35 forward single #
face $-1 $36 $37 $20 $-1 $38 reversed single #
face $-1 $39 $40 $21 $-1 $41 forward single #
face $-1 $42 $43 $22 $-1 $44 reversed single #
face $-1 $45 $46 $23 $-1 $47 forward single #
face $-1 $48 $49 $18 $-1 $50 reversed single #
loop $-1 $-1 $51 $24 #
plane-surface $-1 0 0 8.2770660465592449 0 0 1 1 0 0 forward_v I I I I #
face $-1 $52 $53 $19 $-1 $54 forward single #
loop $-1 $-1 $55 $25 #
plane-surface $-1 -46.239204077272866 0 0 1 0 0 0 0 -1 forward_v I I I I #
face $-1 $56 $57 $20 $-1 $58 reversed single #
loop $-1 $-1 $59 $26 #
plane-surface $-1 31.121326475605606 54.726408451339182 103.3961569471838 1 0 0 0 -0.70710678939079041 -0.70710677298230451 forward_v I I I I #
face $-1 $60 $61 $21 $-1 $62 forward single #
loop $-1 $63 $64 $27 #
cone-surface $-1 38.680265276439236 20.53694148062592 3.0647244704501921 0 -0.70710678939079041 -0.70710677298230451 2 0 0 1 I I 0 1 2 forward I I I I #
face $-1 $65 $66 $22 $-1 $67 reversed single #
loop $-1 $-1 $68 $28 #
plane-surface $-1 38.680265276439236 -25.749283022492079 1.589062492184226 0 -0.70710678939079041 0.70710677298230451 1 0 0 forward_v I I I I #
face $-1 $69 $70 $23 $-1 $71 forward single #
loop $-1 $72 $73 $29 #
cone-surface $-1 38.680265276439236 -20.536941480625909 3.0647244704501921 0 0.70710678939079041 -0.70710677298230451 2 0 0 1 I I 0 1 2 forward I I I I #
face $-1 $74 $75 $18 $-1 $76 reversed single #
loop $-1 $-1 $77 $30 #
plane-surface $-1 0 0 -8.2770660465592449 0 0 1 1 0 0 forward_v I I I I #
coedge $-1 $78 $79 $80 $81 forward $31 $-1 #
face $-1 $82 $83 $19 $-1 $84 reversed single #
loop $-1 $-1 $85 $33 #
plane-surface $-1 0 0 8.2770660465592449 0 0 1 1 0 0 forward_v I I I I #
coedge $-1 $86 $87 $88 $89 forward $34 $-1 #
face $-1 $90 $91 $20 $-1 $92 forward single #
loop $-1 $-1 $93 $36 #
plane-surface $-1 38.680265276439236 -10.665701826792741 38.004048186482535 0 0.70710678939079041 0.70710677298230451 1 0 0 forward_v I I I I #
coedge $-1 $94 $95 $96 $97 reversed $37 $-1 #
face $-1 $-1 $98 $21 $-1 $99 forward single #
loop $-1 $100 $101 $39 #
cone-surface $-1 38.680265276439236 17.961494848958576 0.48927789854635151 0 -0.70710678939079041 -0.70710677298230451 1 0 0 1 I I -0.70710678118654746 0.70710678118654746 1 forward I I I I #
loop $-1 $-1 $102 $27 #
coedge $-1 $64 $64 $103 $104 reversed $40 $-1 #
face $-1 $105 $106 $22 $-1 $107 reversed single #
loop $-1 $-1 $108 $42 #
plane-surface $-1 31.121326475605606 -91.141393300624003 66.981171252885488 1 0 0 0 0.70710678939079041 -0.70710677298230451 forward_v I I I I #
coedge $-1 $109 $110 $111 $112 reversed $43 $-1 #
face $-1 $-1 $113 $23 $-1 $114 forward single #
loop $-1 $115 $116 $45 #
cone-surface $-1 38.680265276439236 -17.961494848958566 0.48927789854635151 0 0.70710678939079041 -0.70710677298230451 1 0 0 1 I I -0.70710678118654746 0.70710678118654746 1 forward I I I I #
loop $-1 $-1 $117 $29 #
coedge $-1 $73 $73 $118 $119 reversed $46 $-1 #
face $-1 $120 $121 $18 $-1 $122 reversed single #
loop $-1 $-1 $123 $48 #
plane-surface $-1 0 -25.749283022492076 0 0 1 0 0 0 1 forward_v I I I I #
coedge $-1 $124 $125 $126 $127 forward $49 $-1 #
coedge $-1 $128 $51 $129 $130 forward $31 $-1 #
coedge $-1 $51 $128 $131 $132 forward $31 $-1 #
coedge $-1 $133 $134 $51 $81 reversed $135 $-1 #
edge $-1 $136 -25.749283022492076 $137 25.749283022492076 $80 $138 forward 7 unknown #
face $-1 $139 $140 $19 $-1 $141 reversed single #
loop $-1 $-1 $142 $52 #
plane-surface $-1 -55.033602539474479 -24.202262068820918 0 1 0 0 0 0 -1 forward_v I I I I #
coedge $-1 $143 $144 $86 $145 forward $53 $-1 #
coedge $-1 $146 $55 $85 $145 reversed $34 $-1 #
coedge $-1 $55 $146 $147 $148 reversed $34 $-1 #
coedge $-1 $149 $150 $55 $89 reversed $140 $-1 #
edge $-1 $151 -8.2770660465592449 $152 8.2770660465592449 $88 $153 forward 7 unknown #
face $-1 $154 $155 $20 $-1 $156 reversed single #
loop $-1 $-1 $96 $56 #
plane-surface $-1 0 0 8.2770660465592449 0 0 1 1 0 0 forward_v I I I I #
coedge $-1 $157 $158 $159 $160 reversed $57 $-1 #
coedge $-1 $95 $59 $161 $162 reversed $37 $-1 #
coedge $-1 $59 $94 $157 $163 reversed $37 $-1 #
coedge $-1 $159 $164 $59 $97 forward $91 $-1 #
edge $-1 $165 1.6139212031775152 $166 8.3019246023567241 $96 $167 forward 7 unknown #
loop $-1 $-1 $103 $60 #
plane-surface $-1 38.680265276439236 -10.665701826792741 38.004048186482535 0 0.70710678939079041 0.70710677298230451 1 0 0 forward_v I I I I #
loop $-1 $-1 $168 $39 #
coedge $-1 $101 $101 $102 $169 reversed $61 $-1 #
coedge $-1 $102 $102 $101 $169 forward $63 $-1 #
coedge $-1 $103 $103 $64 $104 forward $98 $-1 #
edge $-1 $170 -3.1401849538017075e-016 $170 6.2831853071796004 $103 $171 forward 7 unknown #
face $-1 $172 $173 $22 $-1 $174 forward single #
loop $-1 $-1 $175 $65 #
plane-surface $-1 46.239204077272866 0 0 -1 0 0 0 0 1 forward_v I I I I #
coedge $-1 $176 $177 $178 $179 reversed $66 $-1 #
coedge $-1 $180 $68 $175 $181 reversed $43 $-1 #
coedge $-1 $68 $180 $176 $182 forward $43 $-1 #
coedge $-1 $178 $183 $68 $112 forward $173 $-1 #
edge $-1 $184 -26.899071439053248 $185 -11.781193837385988 $111 $186 forward 7 unknown #
loop $-1 $-1 $118 $69 #
plane-surface $-1 38.680265276439236 -25.749283022492079 1.589062492184226 0 -0.70710678939079041 0.70710677298230451 1 0 0 forward_v I I I I #
loop $-1 $-1 $187 $45 #
coedge $-1 $116 $116 $117 $188 reversed $70 $-1 #
coedge $-1 $117 $117 $116 $188 forward $72 $-1 #
coedge $-1 $118 $118 $73 $119 forward $113 $-1 #
edge $-1 $189 6.2803690331836313e-016 $189 6.2831853071796013 $118 $190 forward 7 unknown #
face $-1 $191 $192 $18 $-1 $193 reversed single #
loop $-1 $-1 $194 $74 #
plane-surface $-1 -46.239204077272866 0 0 1 0 0 0 0 -1 forward_v I I I I #
coedge $-1 $195 $131 $196 $197 forward $75 $-1 #
coedge $-1 $198 $77 $195 $199 forward $49 $-1 #
coedge $-1 $77 $198 $200 $201 forward $49 $-1 #
coedge $-1 $134 $133 $77 $127 reversed $135 $-1 #
edge $-1 $202 -25.749283022492076 $203 25.749283022492076 $126 $204 forward 7 unknown #
coedge $-1 $79 $78 $194 $205 forward $31 $-1 #
coedge $-1 $206 $207 $78 $130 reversed $192 $-1 #
edge $-1 $137 -46.239204077272866 $208 46.239204077272866 $129 $209 forward 7 unknown #
coedge $-1 $123 $210 $79 $132 reversed $75 $-1 #
edge $-1 $211 -46.239204077272866 $136 46.239204077272866 $131 $212 forward 7 unknown #
coedge $-1 $126 $80 $210 $213 forward $135 $-1 #
coedge $-1 $80 $126 $206 $214 reversed $135 $-1 #
loop $-1 $-1 $133 $191 #
vertex $-1 $81 $215 #
vertex $-1 $81 $216 #
straight-curve $-1 46.239204077272866 0 8.2770660465592449 0 1 0 I I #
face $-1 $217 $218 $19 $-1 $219 reversed single #
loop $-1 $-1 $88 $82 #
plane-surface $-1 -50.636403308373673 -22.65524111514976 0 0 -1 0 0 0 -1 forward_v I I I I #
coedge $-1 $220 $221 $222 $223 forward $83 $-1 #
coedge $-1 $224 $85 $150 $225 forward $53 $-1 #
coedge $-1 $85 $224 $226 $227 forward $53 $-1 #
edge $-1 $228 -25.749283022492076 $152 -22.65524111514976 $85 $229 forward 7 unknown #
coedge $-1 $87 $86 $230 $231 reversed $34 $-1 #
coedge $-1 $232 $233 $87 $148 forward $218 $-1 #
edge $-1 $151 22.65524111514976 $234 25.749283022492076 $147 $235 forward 7 unknown #
coedge $-1 $222 $88 $233 $236 reversed $140 $-1 #
coedge $-1 $88 $222 $143 $225 reversed $140 $-1 #
vertex $-1 $148 $237 #
vertex $-1 $225 $238 #
straight-curve $-1 -46.239204077272866 -22.65524111514976 0 0 0 1 I I #
face $-1 $-1 $239 $20 $-1 $240 reversed single #
loop $-1 $-1 $241 $90 #
plane-surface $-1 46.239204077272866 0 0 -1 0 0 0 0 1 forward_v I I I I #
coedge $-1 $242 $93 $95 $163 forward $57 $-1 #
coedge $-1 $93 $242 $241 $243 reversed $57 $-1 #
coedge $-1 $244 $96 $93 $160 forward $91 $-1 #
edge $-1 $166 11.781193837385988 $245 26.899071439053248 $159 $246 forward 7 unknown #
coedge $-1 $247 $248 $94 $162 forward $239 $-1 #
edge $-1 $249 -50.10901598140768 $165 -43.42101242703265 $161 $250 forward 7 unknown #
edge $-1 $166 42.040300822927549 $249 51.498566044984159 $95 $251 forward 7 unknown #
coedge $-1 $96 $244 $247 $252 forward $91 $-1 #
vertex $-1 $162 $253 #
vertex $-1 $97 $254 #
straight-curve $-1 31.121326475605606 27.363204225669591 8.2770660465592485 0 -1 0 I I #
coedge $-1 $168 $168 $-1 $255 reversed $100 $-1 #
edge $-1 $256 0 $256 6.2831853071796004 $101 $257 forward 7 unknown #
vertex $-1 $104 $258 #
ellipse-curve $-1 38.680265276439236 22.405281322902475 4.9330642693717275 0 0.70710678939079041 0.70710677298230451 2 0 0 1 I I #
face $-1 $-1 $259 $22 $-1 $260 reversed single #
loop $-1 $-1 $111 $105 #
plane-surface $-1 0 0 8.2770660465592449 0 0 1 1 0 0 forward_v I I I I #
coedge $-1 $261 $262 $109 $181 forward $106 $-1 #
coedge $-1 $177 $108 $110 $182 reversed $66 $-1 #
coedge $-1 $108 $176 $263 $264 reversed $66 $-1 #
coedge $-1 $265 $111 $108 $179 forward $173 $-1 #
edge $-1 $185 -26.509417026999131 $266 -19.821413627819926 $178 $267 forward 7 unknown #
coedge $-1 $110 $109 $268 $269 reversed $43 $-1 #
edge $-1 $270 -8.5419277738263446 $184 0.91633744823025887 $175 $271 forward 7 unknown #
edge $-1 $272 5.0242958677880813e-015 $185 9.4582652220566121 $176 $273 forward 7 unknown #
coedge $-1 $111 $265 $261 $274 forward $173 $-1 #
vertex $-1 $112 $275 #
vertex $-1 $112 $276 #
straight-curve $-1 19.340132638219618 -19.061279623312871 8.2770660465592449 -1 0 0 I I #
coedge $-1 $187 $187 $-1 $277 reversed $115 $-1 #
edge $-1 $278 0 $278 6.2831853071796004 $116 $279 forward 7 unknown #
vertex $-1 $119 $280 #
ellipse-curve $-1 38.680265276439236 -22.405281322902475 4.9330642693717373 0 -0.70710678939079041 0.70710677298230451 2 0 0 1 I I #
face $-1 $-1 $135 $18 $-1 $281 reversed single #
loop $-1 $-1 $206 $120 #
plane-surface $-1 0 25.749283022492076 0 0 -1 0 0 0 -1 forward_v I I I I #
coedge $-1 $282 $196 $128 $205 reversed $121 $-1 #
coedge $-1 $210 $123 $124 $199 reversed $75 $-1 #
coedge $-1 $194 $283 $123 $197 reversed $121 $-1 #
edge $-1 $211 -8.2770660465592449 $284 8.2770660465592449 $196 $285 forward 7 unknown #
coedge $-1 $125 $124 $283 $286 forward $49 $-1 #
edge $-1 $203 -46.239204077272866 $284 46.239204077272866 $195 $287 forward 7 unknown #
coedge $-1 $207 $206 $125 $201 reversed $192 $-1 #
edge $-1 $288 -46.239204077272866 $202 46.239204077272866 $200 $289 forward 7 unknown #
vertex $-1 $127 $290 #
vertex $-1 $213 $291 #
straight-curve $-1 46.239204077272866 0 -8.2770660465592449 0 -1 0 I I #
edge $-1 $208 -25.749283022492076 $211 25.749283022492076 $194 $292 forward 7 unknown #
coedge $-1 $200 $129 $134 $214 forward $192 $-1 #
coedge $-1 $129 $200 $282 $293 reversed $192 $-1 #
vertex $-1 $130 $294 #
straight-curve $-1 0 25.749283022492076 8.2770660465592449 -1 0 0 I I #
coedge $-1 $131 $195 $133 $213 reversed $75 $-1 #
vertex $-1 $205 $295 #
straight-curve $-1 0 -25.749283022492076 8.2770660465592449 1 0 0 I I #
edge $-1 $136 -8.2770660465592449 $203 8.2770660465592449 $133 $296 forward 7 unknown #
edge $-1 $137 -8.2770660465592449 $202 8.2770660465592449 $134 $297 forward 7 unknown #
point $-1 46.239204077272866 -25.749283022492076 8.2770660465592449 #
point $-1 46.239204077272866 25.749283022492076 8.2770660465592449 #
face $-1 $-1 $298 $19 $-1 $299 reversed single #
loop $-1 $-1 $147 $139 #
plane-surface $-1 0 0 -8.2770660465592449 0 0 1 1 0 0 forward_v I I I I #
coedge $-1 $300 $142 $301 $302 reversed $83 $-1 #
coedge $-1 $142 $300 $224 $303 reversed $83 $-1 #
coedge $-1 $150 $149 $142 $223 reversed $140 $-1 #
edge $-1 $304 -8.2770660465592449 $305 8.2770660465592449 $222 $306 forward 7 unknown #
coedge $-1 $144 $143 $221 $303 forward $53 $-1 #
edge $-1 $152 -4.3971992311008066 $304 4.3971992311008066 $150 $307 forward 7 unknown #
coedge $-1 $308 $230 $144 $227 reversed $298 $-1 #
edge $-1 $309 -55.033602539474479 $228 -46.239204077272866 $226 $310 forward 7 unknown #
vertex $-1 $231 $311 #
straight-curve $-1 -46.239204077272866 0 8.2770660465592449 0 1 0 I I #
coedge $-1 $226 $312 $146 $231 forward $298 $-1 #
edge $-1 $234 -8.2770660465592449 $228 8.2770660465592449 $230 $313 forward 7 unknown #
coedge $-1 $301 $147 $312 $314 forward $218 $-1 #
coedge $-1 $147 $301 $149 $236 forward $218 $-1 #
vertex $-1 $314 $315 #
straight-curve $-1 -46.239204077272866 0 -8.2770660465592449 0 -1 0 I I #
edge $-1 $305 -4.3971992311008066 $151 4.3971992311008066 $149 $316 forward 7 unknown #
point $-1 -46.239204077272866 -22.65524111514976 -8.2770660465592449 #
point $-1 -46.239204077272866 -22.65524111514976 8.2770660465592449 #
loop $-1 $-1 $161 $154 #
plane-surface $-1 0 25.749283022492076 0 0 -1 0 0 0 -1 forward_v I I I I #
coedge $-1 $317 $318 $158 $243 forward $155 $-1 #
coedge $-1 $158 $157 $248 $319 reversed $57 $-1 #
edge $-1 $245 24.832945574261814 $320 34.291210796318431 $241 $321 forward 7 unknown #
coedge $-1 $164 $159 $318 $322 forward $91 $-1 #
vertex $-1 $322 $323 #
straight-curve $-1 19.340132638219618 19.061279623312867 8.2770660465592414 1 0 0 I I #
coedge $-1 $324 $161 $164 $252 reversed $239 $-1 #
coedge $-1 $161 $324 $242 $319 forward $239 $-1 #
vertex $-1 $162 $325 #
straight-curve $-1 31.121326475605606 25.749283022492076 51.698078473591899 0 0 1 I I #
straight-curve $-1 31.121326475605606 -10.665701826792741 38.004048186482535 0 0.70710677298230451 -0.70710678939079041 I I #
edge $-1 $326 -46.239204077272866 $165 -31.121326475605606 $247 $327 forward 7 unknown #
point $-1 31.121326475605606 25.749283022492076 8.2770660465592449 #
point $-1 31.121326475605606 19.061279623312867 8.2770660465592414 #
edge $-1 $328 1 $328 0 $168 $-1 forward 7 unknown #
vertex $-1 $169 $329 #
ellipse-curve $-1 38.680265276439236 18.668601638349365 1.1963846715286559 0 0.70710678939079041 0.70710677298230451 2 0 0 1 I I #
point $-1 40.680265276439236 22.405281322902475 4.9330642693717284 #
loop $-1 $-1 $268 $172 #
plane-surface $-1 0 -25.749283022492076 0 0 1 0 0 0 1 forward_v I I I I #
coedge $-1 $262 $175 $183 $274 reversed $106 $-1 #
coedge $-1 $175 $261 $330 $331 forward $106 $-1 #
coedge $-1 $268 $332 $177 $264 forward $259 $-1 #
edge $-1 $266 25.213519579883499 $272 31.901523134258515 $263 $333 forward 7 unknown #
coedge $-1 $183 $178 $332 $334 forward $173 $-1 #
vertex $-1 $334 $335 #
straight-curve $-1 31.121326475605606 -45.570696650312001 8.2770660465592449 0 -1 0 I I #
coedge $-1 $330 $263 $180 $269 forward $259 $-1 #
edge $-1 $272 11.781193837385988 $270 26.899071439053248 $268 $336 forward 7 unknown #
vertex $-1 $269 $337 #
straight-curve $-1 46.239204077272866 -19.709228039293809 7.6291176155425973 0 0.70710677298230462 0.70710678939079052 I I #
vertex $-1 $269 $338 #
straight-curve $-1 31.121326475605606 -25.749283022492079 1.589062492184226 0 0.70710677298230451 0.70710678939079041 I I #
edge $-1 $339 -25.749283022492076 $184 -19.061279623312871 $261 $340 forward 7 unknown #
point $-1 46.239204077272866 -19.061279623312871 8.2770660465592449 #
point $-1 31.121326475605606 -19.061279623312871 8.2770660465592449 #
edge $-1 $341 1 $341 0 $187 $-1 forward 7 unknown #
vertex $-1 $188 $342 #
ellipse-curve $-1 38.680265276439236 -18.668601638349354 1.1963846715286559 0 -0.70710678939079041 0.70710677298230451 2 0 0 1 I I #
point $-1 40.680265276439236 -22.405281322902464 4.9330642693717284 #
plane-surface $-1 46.239204077272866 0 0 -1 0 0 0 0 1 forward_v I I I I #
coedge $-1 $283 $194 $207 $293 forward $121 $-1 #
coedge $-1 $196 $282 $198 $286 reversed $121 $-1 #
vertex $-1 $286 $343 #
straight-curve $-1 -46.239204077272866 -25.749283022492076 0 0 0 -1 I I #
edge $-1 $284 -25.749283022492076 $288 25.749283022492076 $283 $344 forward 7 unknown #
straight-curve $-1 0 -25.749283022492076 -8.2770660465592449 -1 0 0 I I #
vertex $-1 $201 $345 #
straight-curve $-1 0 25.749283022492076 -8.2770660465592449 1 0 0 I I #
point $-1 46.239204077272866 25.749283022492076 -8.2770660465592449 #
point $-1 46.239204077272866 -25.749283022492076 -8.2770660465592449 #
straight-curve $-1 -46.239204077272866 0 8.2770660465592449 0 -1 0 I I #
edge $-1 $208 -8.2770660465592449 $288 8.2770660465592449 $207 $346 forward 7 unknown #
point $-1 -46.239204077272866 25.749283022492076 8.2770660465592449 #
point $-1 -46.239204077272866 -25.749283022492076 8.2770660465592449 #
straight-curve $-1 46.239204077272866 -25.749283022492076 0 0 0 -1 I I #
straight-curve $-1 46.239204077272866 25.749283022492076 0 0 0 -1 I I #
loop $-1 $-1 $230 $217 #
plane-surface $-1 0 -25.749283022492076 0 0 1 0 0 0 1 forward_v I I I I #
coedge $-1 $221 $220 $308 $347 reversed $83 $-1 #
coedge $-1 $233 $232 $220 $302 forward $218 $-1 #
edge $-1 $348 -1.5470209536711579 $305 1.5470209536711579 $220 $349 forward 7 unknown #
edge $-1 $304 -1.5470209536711579 $309 1.5470209536711579 $221 $350 forward 7 unknown #
vertex $-1 $225 $351 #
vertex $-1 $236 $352 #
straight-curve $-1 -55.033602539474479 -22.65524111514976 0 0 0 -1 I I #
straight-curve $-1 -50.636403308373673 -22.65524111514976 8.2770660465592449 -1 0 0 I I #
coedge $-1 $312 $226 $300 $347 forward $298 $-1 #
vertex $-1 $303 $353 #
straight-curve $-1 0 -25.749283022492076 8.2770660465592449 1 0 0 I I #
point $-1 -46.239204077272866 -25.749283022492076 8.2770660465592449 #
coedge $-1 $230 $308 $232 $314 reversed $298 $-1 #
straight-curve $-1 -46.239204077272866 -25.749283022492076 0 0 0 1 I I #
edge $-1 $234 -4.3971992311008066 $348 4.3971992311008066 $312 $354 forward 7 unknown #
point $-1 -46.239204077272866 -25.749283022492076 -8.2770660465592449 #
straight-curve $-1 -50.636403308373673 -22.65524111514976 -8.2770660465592449 1 0 0 I I #
coedge $-1 $318 $241 $324 $355 reversed $155 $-1 #
coedge $-1 $241 $317 $244 $322 reversed $155 $-1 #
edge $-1 $320 -26.899071439053248 $249 -11.781193837385988 $248 $356 forward 7 unknown #
vertex $-1 $243 $357 #
straight-curve $-1 46.239204077272866 1.5017356146513965 25.836610462691752 0 0.70710677298230462 -0.70710678939079052 I I #
edge $-1 $245 19.061279623312867 $326 25.749283022492076 $318 $358 forward 7 unknown #
point $-1 46.239204077272866 19.061279623312867 8.2770660465592414 #
coedge $-1 $248 $247 $317 $355 forward $239 $-1 #
point $-1 31.121326475605606 25.749283022492079 1.5890624921842189 #
vertex $-1 $322 $359 #
straight-curve $-1 0 25.749283022492076 8.2770660465592449 -1 0 0 I I #
vertex $-1 $255 $360 #
point $-1 40.680265276439236 18.668601638349365 1.1963846715286559 #
coedge $-1 $332 $268 $262 $331 reversed $259 $-1 #
edge $-1 $339 -8.2770660465592449 $270 -1.5890624921842296 $262 $361 forward 7 unknown #
coedge $-1 $263 $330 $265 $334 reversed $259 $-1 #
straight-curve $-1 31.121326475605606 -25.749283022492079 33.490585626442744 0 0 -1 I I #
edge $-1 $266 31.121326475605606 $339 46.239204077272866 $332 $362 forward 7 unknown #
point $-1 31.121326475605606 -25.749283022492076 8.2770660465592449 #
straight-curve $-1 19.340132638219618 -25.749283022492076 1.5890624921842305 1 0 0 I I #
point $-1 46.239204077272866 -25.749283022492076 1.5890624921842296 #
point $-1 31.121326475605606 -25.749283022492076 1.5890624921842296 #
vertex $-1 $274 $363 #
straight-curve $-1 46.239204077272866 0 8.2770660465592449 0 1 0 I I #
vertex $-1 $277 $364 #
point $-1 40.680265276439236 -18.668601638349354 1.1963846715286559 #
point $-1 -46.239204077272866 -25.749283022492076 -8.2770660465592449 #
straight-curve $-1 -46.239204077272866 0 -8.2770660465592449 0 1 0 I I #
point $-1 -46.239204077272866 25.749283022492076 -8.2770660465592449 #
straight-curve $-1 -46.239204077272866 25.749283022492076 0 0 0 -1 I I #
edge $-1 $309 -8.2770660465592449 $348 8.2770660465592449 $300 $365 forward 7 unknown #
vertex $-1 $302 $366 #
straight-curve $-1 -55.033602539474479 -24.202262068820918 -8.2770660465592449 0 1 0 I I #
straight-curve $-1 -55.033602539474479 -24.202262068820918 8.2770660465592449 0 -1 0 I I #
point $-1 -55.033602539474479 -22.65524111514976 8.2770660465592449 #
point $-1 -55.033602539474479 -22.65524111514976 -8.2770660465592449 #
point $-1 -55.033602539474479 -25.749283022492076 8.2770660465592449 #
straight-curve $-1 -50.636403308373673 -25.749283022492076 -8.2770660465592449 -1 0 0 I I #
edge $-1 $326 -8.2770660465592449 $320 -1.5890624921842189 $317 $367 forward 7 unknown #
straight-curve $-1 19.340132638219618 25.749283022492076 1.5890624921842189 -1 0 0 I I #
point $-1 46.239204077272866 25.749283022492079 1.5890624921842189 #
straight-curve $-1 46.239204077272866 0 8.2770660465592449 0 1 0 I I #
point $-1 46.239204077272866 25.749283022492076 8.2770660465592449 #
point $-1 38.680265276439236 17.254388059567788 -0.217828874435953 #
straight-curve $-1 46.239204077272866 -25.749283022492076 0 0 0 -1 I I #
straight-curve $-1 0 -25.749283022492076 8.2770660465592449 1 0 0 I I #
point $-1 46.239204077272866 -25.749283022492076 8.2770660465592449 #
point $-1 38.680265276439236 -17.254388059567777 -0.217828874435953 #
straight-curve $-1 -55.033602539474479 -25.749283022492076 0 0 0 -1 I I #
point $-1 -55.033602539474479 -25.749283022492076 -8.2770660465592449 #
straight-curve $-1 46.239204077272866 25.749283022492076 0 0 0 -1 I I #
End-of-ACIS-data 