500 0 9 0           
7 Unknown 11 ACIS 5.0 NT 24 Thu Mar 25 15:20:26 1999 
-1 9.9999999999999995e-007 1e-010 
body $-1 $9 $-1 $10 #
body $-1 $11 $-1 $12 #
body $-1 $13 $-1 $14 #
body $-1 $15 $-1 $16 #
body $-1 $17 $-1 $18 #
body $-1 $19 $-1 $20 #
body $-1 $21 $-1 $22 #
body $-1 $23 $-1 $24 #
body $-1 $25 $-1 $26 #
lump $-1 $-1 $27 $0 #
transform $-1 1 0 0 0 1 0 0 0 1 43.896603289895324 24.626011861197021 8.354972193393575 1 rotate no_reflect no_shear #
lump $-1 $-1 $28 $1 #
transform $-1 1 0 0 0 1 0 0 0 1 43.896603289895324 24.626011861197021 8.354972193393575 1 rotate no_reflect no_shear #
lump $-1 $-1 $29 $2 #
transform $-1 1 0 0 0 1 0 0 0 1 43.896603289895324 24.626011861197021 8.354972193393575 1 rotate no_reflect no_shear #
lump $-1 $-1 $30 $3 #
transform $-1 1 0 0 0 1 0 0 0 1 43.896603289895324 24.626011861197021 8.354972193393575 1 rotate no_reflect no_shear #
lump $-1 $-1 $31 $4 #
transform $-1 1 0 0 0 1 0 0 0 1 43.896603289895324 24.626011861197021 8.354972193393575 1 rotate no_reflect no_shear #
lump $-1 $-1 $32 $5 #
transform $-1 1 0 0 0 1 0 0 0 1 43.896603289895324 24.626011861197021 8.354972193393575 1 rotate no_reflect no_shear #
lump $-1 $-1 $33 $6 #
transform $-1 1 0 0 0 1 0 0 0 1 43.896603289895324 24.626011861197021 8.354972193393575 1 rotate no_reflect no_shear #
lump $-1 $-1 $34 $7 #
transform $-1 1 0 0 0 1 0 0 0 1 43.896603289895324 24.626011861197021 8.354972193393575 1 rotate no_reflect no_shear #
lump $-1 $-1 $35 $8 #
transform $-1 1 0 0 0 1 0 0 0 1 43.896603289895324 24.626011861197021 8.354972193393575 1 rotate no_reflect no_shear #
shell $-1 $-1 $-1 $36 $-1 $9 #
shell $-1 $-1 $-1 $37 $-1 $11 #
shell $-1 $-1 $-1 $38 $-1 $13 #
shell $-1 $-1 $-1 $39 $-1 $15 #
shell $-1 $-1 $-1 $40 $-1 $17 #
shell $-1 $-1 $-1 $41 $-1 $19 #
shell $-1 $-1 $-1 $42 $-1 $21 #
shell $-1 $-1 $-1 $43 $-1 $23 #
shell $-1 $-1 $-1 $44 $-1 $25 #
face $-1 $45 $46 $27 $-1 $47 forward single #
face $-1 $48 $49 $28 $-1 $50 forward single #
face $-1 $51 $52 $29 $-1 $53 reversed single #
face $-1 $54 $55 $30 $-1 $56 forward single #
face $-1 $57 $58 $31 $-1 $59 forward single #
face $-1 $60 $61 $32 $-1 $62 forward single #
face $-1 $63 $64 $33 $-1 $65 reversed single #
face $-1 $66 $67 $34 $-1 $68 forward single #
face $-1 $69 $70 $35 $-1 $71 forward single #
face $-1 $72 $73 $27 $-1 $74 reversed single #
loop $-1 $-1 $75 $36 #
plane-surface $-1 0 0 8.354972193393575 0 0 1 1 0 0 forward_v I I I I #
face $-1 $76 $77 $28 $-1 $78 reversed single #
loop $-1 $-1 $79 $37 #
plane-surface $-1 -39.615028727706211 0 -2.8769392226185202 0 0 1 1 0 0 forward_v I I I I #
face $-1 $80 $81 $29 $-1 $82 reversed single #
loop $-1 $-1 $83 $38 #
plane-surface $-1 24.756573204754545 -86.70518429615521 62.965428943096057 1 0 0 0 0.70710678939079041 -0.70710677298230451 forward_v I I I I #
face $-1 $84 $85 $30 $-1 $86 forward single #
loop $-1 $87 $88 $39 #
cone-surface $-1 28.584579221782704 -18.99354019173833 2.7225004813246865 0 0.70710678939079041 -0.70710677298230451 1.5 0 0 1 I I 0 1 1.5 forward I I I I #
face $-1 $89 $90 $31 $-1 $91 forward single #
loop $-1 $92 $93 $40 #
cone-surface $-1 34.326588247324935 -18.99354019173833 2.7225004813246865 0 0.70710678939079041 -0.70710677298230451 1.5 0 0 1 I I 0 1 1.5 forward I I I I #
face $-1 $94 $95 $32 $-1 $96 forward single #
loop $-1 $97 $98 $41 #
cone-surface $-1 40.068597272867166 -18.99354019173833 2.7225004813246865 0 0.70710678939079041 -0.70710677298230451 1.5 0 0 1 I I 0 1 1.5 forward I I I I #
face $-1 $99 $100 $33 $-1 $101 reversed single #
loop $-1 $-1 $102 $42 #
plane-surface $-1 34.603084633018675 61.858846198892486 95.989709413297973 1 0 0 0 -0.77714596973225614 -0.62932038083071107 forward_v I I I I #
face $-1 $103 $104 $34 $-1 $105 forward single #
loop $-1 $106 $107 $43 #
cone-surface $-1 37.258375677840576 21.625289944467454 4.9109910347951935 0 -0.77714596973225614 -0.62932038083071107 1 0 0 1 I I 0 1 1 forward I I I I #
face $-1 $108 $109 $35 $-1 $110 forward single #
loop $-1 $111 $112 $44 #
cone-surface $-1 41.241312245073431 21.625289944467454 4.9109910347951935 0 -0.77714596973225614 -0.62932038083071107 1 0 0 1 I I 0 1 1 forward I I I I #
face $-1 $113 $114 $27 $-1 $115 reversed single #
loop $-1 $-1 $116 $45 #
plane-surface $-1 0 0 -8.354972193393575 0 0 1 1 0 0 forward_v I I I I #
coedge $-1 $117 $118 $119 $120 forward $46 $-1 #
face $-1 $121 $122 $28 $-1 $123 reversed single #
loop $-1 $-1 $124 $48 #
plane-surface $-1 -39.615028727706211 0 -5.9720552071983493 0 0 1 1 0 0 forward_v I I I I #
coedge $-1 $125 $126 $127 $128 forward $49 $-1 #
face $-1 $129 $130 $29 $-1 $131 forward single #
loop $-1 $-1 $132 $51 #
plane-surface $-1 34.326588247324935 -24.626011861197028 0.88625794869146546 0 -0.70710678939079041 0.70710677298230451 1 0 0 forward_v I I I I #
coedge $-1 $133 $134 $135 $136 reversed $52 $-1 #
face $-1 $-1 $137 $30 $-1 $138 forward single #
loop $-1 $139 $140 $54 #
cone-surface $-1 28.584579221782704 -16.565095465931456 0.29405581187012331 0 0.70710678939079041 -0.70710677298230451 0.75 0 0 1 I I -0.70710678118654757 0.70710678118654757 0.75 forward I I I I #
loop $-1 $-1 $141 $39 #
coedge $-1 $88 $88 $142 $143 reversed $55 $-1 #
face $-1 $-1 $144 $31 $-1 $145 forward single #
loop $-1 $146 $147 $57 #
cone-surface $-1 34.326588247324935 -16.565095465931456 0.29405581187012331 0 0.70710678939079041 -0.70710677298230451 0.75 0 0 1 I I -0.70710678118654757 0.70710678118654757 0.75 forward I I I I #
loop $-1 $-1 $148 $40 #
coedge $-1 $93 $93 $149 $150 reversed $58 $-1 #
face $-1 $-1 $151 $32 $-1 $152 forward single #
loop $-1 $153 $154 $60 #
cone-surface $-1 40.068597272867166 -16.565095465931456 0.29405581187012331 0 0.70710678939079041 -0.70710677298230451 0.75 0 0 1 I I -0.70710678118654757 0.70710678118654757 0.75 forward I I I I #
loop $-1 $-1 $155 $41 #
coedge $-1 $98 $98 $156 $157 reversed $61 $-1 #
face $-1 $158 $159 $33 $-1 $160 reversed single #
loop $-1 $-1 $161 $63 #
plane-surface $-1 39.249843961457003 -6.3692904644632122 40.73965521415483 0 0.77714596973225614 0.62932038083071107 1 0 0 forward_v I I I I #
coedge $-1 $162 $163 $164 $165 reversed $64 $-1 #
face $-1 $-1 $166 $34 $-1 $167 forward single #
loop $-1 $168 $169 $66 #
cone-surface $-1 37.258375677840576 20.621346943100789 4.098014043908826 0 -0.77714596973225614 -0.62932038083071107 0.5 0 0 1 I I -0.70710678118654746 0.70710678118654746 0.5 forward I I I I #
loop $-1 $-1 $170 $43 #
coedge $-1 $107 $107 $171 $172 reversed $67 $-1 #
face $-1 $-1 $173 $35 $-1 $174 forward single #
loop $-1 $175 $176 $69 #
cone-surface $-1 41.241312245073431 20.621346943100789 4.098014043908826 0 -0.77714596973225614 -0.62932038083071107 0.5 0 0 1 I I -0.70710678118654746 0.70710678118654746 0.5 forward I I I I #
loop $-1 $-1 $177 $44 #
coedge $-1 $112 $112 $178 $179 reversed $70 $-1 #
face $-1 $180 $181 $27 $-1 $182 reversed single #
loop $-1 $-1 $183 $72 #
plane-surface $-1 0 -24.626011861197021 0 0 1 0 0 0 1 forward_v I I I I #
coedge $-1 $184 $185 $186 $187 forward $73 $-1 #
coedge $-1 $188 $75 $189 $190 forward $46 $-1 #
coedge $-1 $75 $188 $191 $192 forward $46 $-1 #
coedge $-1 $193 $194 $75 $120 reversed $195 $-1 #
edge $-1 $196 -24.626011861197021 $197 24.626011861197021 $119 $198 forward 7 unknown #
face $-1 $199 $200 $28 $-1 $201 reversed single #
loop $-1 $-1 $202 $76 #
plane-surface $-1 -35.333454165517097 0 -4.4244972149084347 -1 0 0 0 0 1 forward_v I I I I #
coedge $-1 $203 $204 $205 $206 forward $77 $-1 #
coedge $-1 $207 $79 $208 $209 reversed $49 $-1 #
coedge $-1 $79 $207 $210 $211 reversed $49 $-1 #
coedge $-1 $202 $212 $79 $128 reversed $122 $-1 #
edge $-1 $213 -24.626011861197021 $214 24.626011861197021 $127 $215 forward 7 unknown #
face $-1 $216 $217 $29 $-1 $218 reversed single #
loop $-1 $-1 $219 $80 #
plane-surface $-1 0 0 8.354972193393575 0 0 1 1 0 0 forward_v I I I I #
coedge $-1 $220 $221 $222 $223 reversed $81 $-1 #
coedge $-1 $134 $83 $224 $225 reversed $52 $-1 #
coedge $-1 $83 $133 $220 $226 reversed $52 $-1 #
coedge $-1 $222 $227 $83 $136 forward $217 $-1 #
edge $-1 $228 23.127742278154454 $229 30.596456522856556 $135 $230 forward 7 unknown #
loop $-1 $-1 $142 $84 #
plane-surface $-1 34.326588247324935 -24.626011861197028 0.88625794869146546 0 -0.70710678939079041 0.70710677298230451 1 0 0 forward_v I I I I #
loop $-1 $-1 $231 $54 #
coedge $-1 $140 $140 $141 $232 reversed $85 $-1 #
coedge $-1 $141 $141 $140 $232 forward $87 $-1 #
coedge $-1 $142 $142 $88 $143 forward $137 $-1 #
edge $-1 $233 4.1869128831045944e-016 $233 6.2831853071796004 $142 $234 forward 7 unknown #
loop $-1 $-1 $149 $89 #
plane-surface $-1 34.326588247324935 -24.626011861197028 0.88625794869146546 0 -0.70710678939079041 0.70710677298230451 1 0 0 forward_v I I I I #
loop $-1 $-1 $235 $57 #
coedge $-1 $147 $147 $148 $236 reversed $90 $-1 #
coedge $-1 $148 $148 $147 $236 forward $92 $-1 #
coedge $-1 $149 $149 $93 $150 forward $144 $-1 #
edge $-1 $237 4.1869128831045944e-016 $237 6.2831853071796004 $149 $238 forward 7 unknown #
loop $-1 $-1 $156 $94 #
plane-surface $-1 34.326588247324935 -24.626011861197028 0.88625794869146546 0 -0.70710678939079041 0.70710677298230451 1 0 0 forward_v I I I I #
loop $-1 $-1 $239 $60 #
coedge $-1 $154 $154 $155 $240 reversed $95 $-1 #
coedge $-1 $155 $155 $154 $240 forward $97 $-1 #
coedge $-1 $156 $156 $98 $157 forward $151 $-1 #
edge $-1 $241 4.1869128831045944e-016 $241 6.2831853071796004 $156 $242 forward 7 unknown #
face $-1 $243 $244 $33 $-1 $245 forward single #
loop $-1 $-1 $246 $99 #
plane-surface $-1 43.896603289895324 0 0 -1 0 0 0 0 1 forward_v I I I I #
coedge $-1 $247 $248 $249 $250 reversed $100 $-1 #
coedge $-1 $163 $102 $251 $252 reversed $64 $-1 #
coedge $-1 $102 $162 $247 $253 reversed $64 $-1 #
coedge $-1 $249 $254 $102 $165 forward $244 $-1 #
edge $-1 $255 6.3034112382492218 $256 11.074115038707284 $164 $257 forward 7 unknown #
loop $-1 $-1 $171 $103 #
plane-surface $-1 39.249843961457003 -6.3692904644632122 40.73965521415483 0 0.77714596973225614 0.62932038083071107 1 0 0 forward_v I I I I #
loop $-1 $-1 $258 $66 #
coedge $-1 $169 $169 $170 $259 reversed $104 $-1 #
coedge $-1 $170 $170 $169 $259 forward $106 $-1 #
coedge $-1 $171 $171 $107 $172 forward $166 $-1 #
edge $-1 $260 -6.9024427927311651e-016 $260 6.2831853071795996 $171 $261 forward 7 unknown #
loop $-1 $-1 $178 $108 #
plane-surface $-1 39.249843961457003 -6.3692904644632122 40.73965521415483 0 0.77714596973225614 0.62932038083071107 1 0 0 forward_v I I I I #
loop $-1 $-1 $262 $69 #
coedge $-1 $176 $176 $177 $263 reversed $109 $-1 #
coedge $-1 $177 $177 $176 $263 forward $111 $-1 #
coedge $-1 $178 $178 $112 $179 forward $173 $-1 #
edge $-1 $264 -6.9024427927311651e-016 $264 6.2831853071795996 $178 $265 forward 7 unknown #
face $-1 $266 $267 $27 $-1 $268 reversed single #
loop $-1 $-1 $269 $113 #
plane-surface $-1 -43.896603289895324 0 0 1 0 0 0 0 -1 forward_v I I I I #
coedge $-1 $270 $191 $271 $272 forward $114 $-1 #
coedge $-1 $273 $116 $270 $274 forward $73 $-1 #
coedge $-1 $116 $273 $275 $276 forward $73 $-1 #
coedge $-1 $194 $193 $116 $187 reversed $195 $-1 #
edge $-1 $277 -24.626011861197021 $278 24.626011861197021 $186 $279 forward 7 unknown #
coedge $-1 $118 $117 $280 $281 forward $46 $-1 #
coedge $-1 $282 $283 $117 $190 reversed $267 $-1 #
edge $-1 $197 -43.896603289895324 $284 43.896603289895324 $189 $285 forward 7 unknown #
coedge $-1 $183 $286 $118 $192 reversed $114 $-1 #
edge $-1 $287 -43.896603289895324 $196 43.896603289895324 $191 $288 forward 7 unknown #
coedge $-1 $186 $119 $286 $289 forward $195 $-1 #
coedge $-1 $119 $186 $282 $290 reversed $195 $-1 #
loop $-1 $-1 $193 $266 #
vertex $-1 $120 $291 #
vertex $-1 $120 $292 #
straight-curve $-1 43.896603289895324 0 8.354972193393575 0 1 0 I I #
face $-1 $293 $294 $28 $-1 $295 reversed single #
loop $-1 $-1 $296 $121 #
plane-surface $-1 0 -24.626011861197021 0 0 1 0 0 0 1 forward_v I I I I #
coedge $-1 $205 $127 $297 $298 reversed $122 $-1 #
coedge $-1 $299 $124 $296 $300 reversed $77 $-1 #
coedge $-1 $124 $299 $301 $302 reversed $77 $-1 #
coedge $-1 $212 $202 $124 $206 reversed $122 $-1 #
edge $-1 $303 -24.626011861197021 $304 24.626011861197021 $205 $305 forward 7 unknown #
coedge $-1 $126 $125 $306 $307 reversed $49 $-1 #
coedge $-1 $308 $309 $125 $209 forward $310 $-1 #
edge $-1 $311 -24.089088926042219 $214 -15.525939801663991 $208 $312 forward 7 unknown #
coedge $-1 $313 $297 $126 $211 forward $200 $-1 #
edge $-1 $213 15.525939801663991 $314 24.089088926042219 $210 $315 forward 7 unknown #
coedge $-1 $127 $205 $308 $316 reversed $122 $-1 #
vertex $-1 $211 $317 #
vertex $-1 $209 $318 #
straight-curve $-1 -35.333454165517097 0 -2.8769392226185202 0 1 0 I I #
face $-1 $-1 $319 $29 $-1 $320 reversed single #
loop $-1 $-1 $135 $129 #
plane-surface $-1 0 -24.626011861197021 0 0 1 0 0 0 1 forward_v I I I I #
coedge $-1 $224 $321 $322 $323 forward $130 $-1 #
coedge $-1 $322 $132 $134 $226 forward $81 $-1 #
coedge $-1 $132 $322 $324 $325 reversed $81 $-1 #
coedge $-1 $326 $135 $132 $223 forward $217 $-1 #
edge $-1 $229 7.5932790810920778 $327 26.733309166232857 $222 $328 forward 7 unknown #
coedge $-1 $329 $219 $133 $225 forward $130 $-1 #
edge $-1 $330 -26.195294358270402 $228 -18.726580286880584 $224 $331 forward 7 unknown #
edge $-1 $229 1.0048591735576163e-014 $330 10.562356855796564 $134 $332 forward 7 unknown #
coedge $-1 $135 $326 $329 $333 reversed $217 $-1 #
vertex $-1 $333 $334 #
vertex $-1 $136 $335 #
straight-curve $-1 24.756573204754545 -24.626011861197021 31.482714471548029 0 0 -1 I I #
coedge $-1 $231 $231 $-1 $336 reversed $139 $-1 #
edge $-1 $337 0 $337 6.2831853071796004 $140 $338 forward 7 unknown #
vertex $-1 $143 $339 #
ellipse-curve $-1 28.584579221782704 -20.891654825502112 4.6206150710425238 0 -0.70710678939079041 0.70710677298230451 1.5 0 0 1 I I #
coedge $-1 $235 $235 $-1 $340 reversed $146 $-1 #
edge $-1 $341 0 $341 6.2831853071796004 $147 $342 forward 7 unknown #
vertex $-1 $150 $343 #
ellipse-curve $-1 34.326588247324935 -20.891654825502112 4.6206150710425238 0 -0.70710678939079041 0.70710677298230451 1.5 0 0 1 I I #
coedge $-1 $239 $239 $-1 $344 reversed $153 $-1 #
edge $-1 $345 0 $345 6.2831853071796004 $154 $346 forward 7 unknown #
vertex $-1 $157 $347 #
ellipse-curve $-1 40.068597272867166 -20.891654825502112 4.6206150710425238 0 -0.70710678939079041 0.70710677298230451 1.5 0 0 1 I I #
face $-1 $-1 $348 $33 $-1 $349 reversed single #
loop $-1 $-1 $249 $158 #
plane-surface $-1 0 0 8.354972193393575 0 0 1 1 0 0 forward_v I I I I #
coedge $-1 $350 $351 $248 $352 forward $159 $-1 #
coedge $-1 $353 $161 $163 $253 forward $100 $-1 #
coedge $-1 $161 $353 $246 $352 reversed $100 $-1 #
coedge $-1 $354 $164 $161 $250 forward $244 $-1 #
edge $-1 $256 14.978162652290173 $355 24.27168130916683 $249 $356 forward 7 unknown #
coedge $-1 $357 $358 $162 $252 forward $348 $-1 #
edge $-1 $359 -45.531211229510156 $255 -39.639882513255415 $251 $360 forward 7 unknown #
edge $-1 $256 41.671300221653972 $359 49.252023722394043 $163 $361 forward 7 unknown #
coedge $-1 $164 $354 $357 $362 forward $244 $-1 #
vertex $-1 $252 $363 #
vertex $-1 $165 $364 #
straight-curve $-1 34.603084633018675 30.929423099446243 8.3549721933935786 0 -1 0 I I #
coedge $-1 $258 $258 $-1 $365 reversed $168 $-1 #
edge $-1 $366 0 $366 6.2831853071796004 $169 $367 forward 7 unknown #
vertex $-1 $172 $368 #
ellipse-curve $-1 37.258375677840576 22.240659960967992 5.4093078352662038 0 0.77714596973225614 0.62932038083071107 1 0 0 1 I I #
coedge $-1 $262 $262 $-1 $369 reversed $175 $-1 #
edge $-1 $370 0 $370 6.2831853071796004 $176 $371 forward 7 unknown #
vertex $-1 $179 $372 #
ellipse-curve $-1 41.241312245073431 22.240659960967992 5.4093078352662038 0 0.77714596973225614 0.62932038083071107 1 0 0 1 I I #
face $-1 $-1 $195 $27 $-1 $373 reversed single #
loop $-1 $-1 $282 $180 #
plane-surface $-1 0 24.626011861197021 0 0 -1 0 0 0 -1 forward_v I I I I #
coedge $-1 $374 $280 $283 $375 forward $181 $-1 #
coedge $-1 $286 $183 $184 $274 reversed $114 $-1 #
coedge $-1 $280 $374 $183 $272 reversed $181 $-1 #
edge $-1 $287 -8.354972193393575 $376 8.354972193393575 $271 $377 forward 7 unknown #
coedge $-1 $185 $184 $374 $378 forward $73 $-1 #
edge $-1 $278 -43.896603289895324 $376 43.896603289895324 $270 $379 forward 7 unknown #
coedge $-1 $283 $282 $185 $276 reversed $267 $-1 #
edge $-1 $380 -43.896603289895324 $277 43.896603289895324 $275 $381 forward 7 unknown #
vertex $-1 $187 $382 #
vertex $-1 $289 $383 #
straight-curve $-1 43.896603289895324 0 -8.354972193393575 0 -1 0 I I #
coedge $-1 $269 $271 $188 $281 reversed $181 $-1 #
edge $-1 $284 -24.626011861197021 $287 24.626011861197021 $280 $384 forward 7 unknown #
coedge $-1 $275 $189 $194 $290 forward $267 $-1 #
coedge $-1 $189 $275 $269 $375 reversed $267 $-1 #
vertex $-1 $190 $385 #
straight-curve $-1 0 24.626011861197021 8.354972193393575 -1 0 0 I I #
coedge $-1 $191 $270 $193 $289 reversed $114 $-1 #
vertex $-1 $281 $386 #
straight-curve $-1 0 -24.626011861197021 8.354972193393575 1 0 0 I I #
edge $-1 $196 -8.354972193393575 $278 8.354972193393575 $193 $387 forward 7 unknown #
edge $-1 $197 -8.354972193393575 $277 8.354972193393575 $194 $388 forward 7 unknown #
point $-1 43.896603289895324 -24.626011861197021 8.354972193393575 #
point $-1 43.896603289895324 24.626011861197021 8.354972193393575 #
face $-1 $-1 $310 $28 $-1 $389 reversed single #
loop $-1 $-1 $390 $199 #
plane-surface $-1 -43.896603289895324 0 0 1 0 0 0 0 -1 forward_v I I I I #
coedge $-1 $297 $313 $203 $300 forward $200 $-1 #
coedge $-1 $210 $296 $202 $298 forward $200 $-1 #
edge $-1 $304 -3.7598065997441319 $213 -0.66469061516430283 $297 $391 forward 7 unknown #
coedge $-1 $204 $203 $390 $392 reversed $77 $-1 #
edge $-1 $393 -24.089088926042219 $304 -15.525939801663991 $296 $394 forward 7 unknown #
coedge $-1 $309 $308 $204 $302 forward $310 $-1 #
edge $-1 $303 15.525939801663991 $395 24.089088926042219 $301 $396 forward 7 unknown #
vertex $-1 $302 $397 #
vertex $-1 $300 $398 #
straight-curve $-1 -35.333454165517097 0 -5.9720552071983493 0 -1 0 I I #
coedge $-1 $399 $400 $207 $307 forward $294 $-1 #
edge $-1 $314 -24.626011861197021 $311 24.626011861197021 $306 $401 forward 7 unknown #
coedge $-1 $301 $208 $212 $316 forward $310 $-1 #
coedge $-1 $208 $301 $399 $402 reversed $310 $-1 #
loop $-1 $-1 $301 $293 #
vertex $-1 $402 $403 #
straight-curve $-1 -19.807514363853105 24.626011861197021 -2.8769392226185202 1 0 0 I I #
coedge $-1 $296 $210 $400 $404 forward $200 $-1 #
vertex $-1 $404 $405 #
straight-curve $-1 -19.807514363853105 -24.626011861197021 -2.8769392226185202 -1 0 0 I I #
edge $-1 $214 0.66469061516430283 $303 3.7598065997441319 $308 $406 forward 7 unknown #
point $-1 -35.333454165517097 -24.626011861197021 -2.8769392226185202 #
point $-1 -35.333454165517097 24.626011861197021 -2.8769392226185202 #
loop $-1 $-1 $324 $216 #
plane-surface $-1 43.896603289895324 0 0 -1 0 0 0 0 1 forward_v I I I I #
coedge $-1 $219 $329 $407 $408 forward $130 $-1 #
coedge $-1 $221 $220 $219 $323 reversed $81 $-1 #
edge $-1 $409 -26.733309166232857 $330 -7.5932790810920778 $219 $410 forward 7 unknown #
coedge $-1 $407 $411 $221 $325 forward $319 $-1 #
edge $-1 $327 -8.3932703829618376 $409 2.1690864728347128 $324 $412 forward 7 unknown #
coedge $-1 $227 $222 $411 $413 reversed $217 $-1 #
vertex $-1 $223 $414 #
straight-curve $-1 17.163294123662467 -24.626011861197021 0.88625794869147079 1 0 0 I I #
coedge $-1 $321 $224 $227 $333 forward $130 $-1 #
vertex $-1 $225 $415 #
straight-curve $-1 24.756573204754545 -43.352592148077605 8.354972193393575 0 -1 0 I I #
straight-curve $-1 24.756573204754545 -24.626011861197028 0.88625794869146546 0 0.70710677298230451 0.70710678939079041 I I #
edge $-1 $228 24.756573204754545 $416 43.896603289895324 $227 $417 forward 7 unknown #
point $-1 24.756573204754545 -24.626011861197021 8.354972193393575 #
point $-1 24.756573204754545 -24.626011861197021 0.88625794869147256 #
edge $-1 $418 1 $418 0 $231 $-1 forward 7 unknown #
vertex $-1 $232 $419 #
ellipse-curve $-1 28.584579221782704 -17.095425557974551 0.82438589160685172 0 -0.70710678939079041 0.70710677298230451 1.5 0 0 1 I I #
point $-1 30.084579221782704 -20.891654825502108 4.6206150710425211 #
edge $-1 $420 1 $420 0 $235 $-1 forward 7 unknown #
vertex $-1 $236 $421 #
ellipse-curve $-1 34.326588247324935 -17.095425557974551 0.82438589160685172 0 -0.70710678939079041 0.70710677298230451 1.5 0 0 1 I I #
point $-1 35.826588247324935 -20.891654825502108 4.6206150710425211 #
edge $-1 $422 1 $422 0 $239 $-1 forward 7 unknown #
vertex $-1 $240 $423 #
ellipse-curve $-1 40.068597272867166 -17.095425557974551 0.82438589160685172 0 -0.70710678939079041 0.70710677298230451 1.5 0 0 1 I I #
point $-1 41.568597272867166 -20.891654825502108 4.6206150710425211 #
loop $-1 $-1 $251 $243 #
plane-surface $-1 0 24.626011861197021 0 0 -1 0 0 0 -1 forward_v I I I I #
coedge $-1 $351 $246 $424 $425 reversed $159 $-1 #
coedge $-1 $246 $350 $354 $426 reversed $159 $-1 #
edge $-1 $355 23.83680864231421 $427 31.417532143054277 $246 $428 forward 7 unknown #
coedge $-1 $248 $247 $358 $429 reversed $100 $-1 #
coedge $-1 $254 $249 $351 $426 forward $244 $-1 #
vertex $-1 $426 $430 #
straight-curve $-1 19.624921980728502 19.855308060738956 8.354972193393575 1 0 0 I I #
coedge $-1 $424 $251 $254 $362 reversed $348 $-1 #
coedge $-1 $251 $424 $353 $429 forward $348 $-1 #
vertex $-1 $252 $431 #
straight-curve $-1 34.603084633018675 24.626011861197021 47.994854706648987 0 0 1 I I #
straight-curve $-1 34.603084633018675 -6.3692904644632122 40.73965521415483 0 0.62932038083071107 -0.77714596973225614 I I #
edge $-1 $432 -43.896603289895324 $255 -34.603084633018675 $357 $433 forward 7 unknown #
point $-1 34.603084633018675 24.626011861197021 8.354972193393575 #
point $-1 34.603084633018675 19.85530806073896 8.3549721933935714 #
edge $-1 $434 1 $434 0 $258 $-1 forward 7 unknown #
vertex $-1 $259 $435 #
ellipse-curve $-1 37.258375677840576 21.009919927966916 4.4126742343241814 0 0.77714596973225614 0.62932038083071107 1 0 0 1 I I #
point $-1 38.258375677840576 22.240659960967992 5.4093078352662047 #
edge $-1 $436 1 $436 0 $262 $-1 forward 7 unknown #
vertex $-1 $263 $437 #
ellipse-curve $-1 41.241312245073431 21.009919927966916 4.4126742343241814 0 0.77714596973225614 0.62932038083071107 1 0 0 1 I I #
point $-1 42.241312245073431 22.240659960967992 5.4093078352662047 #
plane-surface $-1 43.896603289895324 0 0 -1 0 0 0 0 1 forward_v I I I I #
coedge $-1 $271 $269 $273 $378 reversed $181 $-1 #
edge $-1 $284 -8.354972193393575 $380 8.354972193393575 $283 $438 forward 7 unknown #
vertex $-1 $378 $439 #
straight-curve $-1 -43.896603289895324 -24.626011861197021 0 0 0 -1 I I #
edge $-1 $376 -24.626011861197021 $380 24.626011861197021 $374 $440 forward 7 unknown #
straight-curve $-1 0 -24.626011861197021 -8.354972193393575 -1 0 0 I I #
vertex $-1 $276 $441 #
straight-curve $-1 0 24.626011861197021 -8.354972193393575 1 0 0 I I #
point $-1 43.896603289895324 24.626011861197021 -8.354972193393575 #
point $-1 43.896603289895324 -24.626011861197021 -8.354972193393575 #
straight-curve $-1 -43.896603289895324 0 8.354972193393575 0 -1 0 I I #
point $-1 -43.896603289895324 24.626011861197021 8.354972193393575 #
point $-1 -43.896603289895324 -24.626011861197021 8.354972193393575 #
straight-curve $-1 43.896603289895324 -24.626011861197021 0 0 0 -1 I I #
straight-curve $-1 43.896603289895324 24.626011861197021 0 0 0 -1 I I #
plane-surface $-1 0 24.626011861197021 0 0 -1 0 0 0 -1 forward_v I I I I #
coedge $-1 $400 $399 $299 $392 forward $294 $-1 #
straight-curve $-1 -35.333454165517097 -24.626011861197021 -2.2122486074542174 0 0 1 I I #
edge $-1 $395 -24.626011861197021 $393 24.626011861197021 $390 $442 forward 7 unknown #
vertex $-1 $300 $443 #
straight-curve $-1 -19.807514363853105 -24.626011861197021 -5.9720552071983493 1 0 0 I I #
vertex $-1 $302 $444 #
straight-curve $-1 -19.807514363853105 24.626011861197021 -5.9720552071983493 -1 0 0 I I #
point $-1 -35.333454165517097 24.626011861197021 -5.9720552071983493 #
point $-1 -35.333454165517097 -24.626011861197021 -5.9720552071983493 #
coedge $-1 $390 $306 $309 $402 forward $294 $-1 #
coedge $-1 $306 $390 $313 $404 reversed $294 $-1 #
straight-curve $-1 -43.896603289895324 0 -2.8769392226185202 0 1 0 I I #
edge $-1 $311 2.8769392226185202 $395 5.9720552071983493 $309 $445 forward 7 unknown #
point $-1 -43.896603289895324 24.626011861197021 -2.8769392226185202 #
edge $-1 $314 2.8769392226185202 $393 5.9720552071983493 $400 $446 forward 7 unknown #
point $-1 -43.896603289895324 -24.626011861197021 -2.8769392226185202 #
straight-curve $-1 -35.333454165517097 24.626011861197021 -2.2122486074542174 0 0 -1 I I #
coedge $-1 $411 $324 $321 $408 reversed $319 $-1 #
edge $-1 $416 -24.626011861197021 $409 -17.157297789807203 $407 $447 forward 7 unknown #
vertex $-1 $325 $448 #
straight-curve $-1 17.163294123662467 -17.157297789807199 8.354972193393575 -1 0 0 I I #
coedge $-1 $324 $407 $326 $413 forward $319 $-1 #
straight-curve $-1 43.896603289895324 -18.691073525932925 6.8211964216764276 0 0.70710677298230462 0.70710678939079052 I I #
edge $-1 $416 -8.354972193393575 $327 -0.88625794869147256 $411 $449 forward 7 unknown #
point $-1 43.896603289895324 -24.626011861197021 0.88625794869147256 #
point $-1 24.756573204754545 -17.157297789807203 8.354972193393575 #
vertex $-1 $408 $450 #
straight-curve $-1 0 -24.626011861197021 8.354972193393575 1 0 0 I I #
vertex $-1 $336 $451 #
point $-1 30.084579221782704 -17.095425557974551 0.82438589160685172 #
vertex $-1 $340 $452 #
point $-1 35.826588247324935 -17.095425557974551 0.82438589160685172 #
vertex $-1 $344 $453 #
point $-1 41.568597272867166 -17.095425557974551 0.82438589160685172 #
coedge $-1 $358 $357 $350 $425 forward $348 $-1 #
edge $-1 $432 -8.354972193393575 $427 -2.4636434771388309 $350 $454 forward 7 unknown #
edge $-1 $355 19.85530806073896 $432 24.626011861197021 $351 $455 forward 7 unknown #
vertex $-1 $352 $456 #
straight-curve $-1 43.896603289895324 4.8543185681689973 26.879651961047074 0 0.62932038083071107 -0.77714596973225614 I I #
edge $-1 $427 -24.27168130916683 $359 -14.978162652290173 $358 $457 forward 7 unknown #
point $-1 43.896603289895332 19.85530806073896 8.3549721933935714 #
point $-1 34.603084633018675 24.626011861197021 2.4636434771388309 #
vertex $-1 $426 $458 #
straight-curve $-1 0 24.626011861197021 8.354972193393575 -1 0 0 I I #
vertex $-1 $365 $459 #
point $-1 38.258375677840576 21.009919927966916 4.4126742343241814 #
vertex $-1 $369 $460 #
point $-1 42.241312245073431 21.009919927966916 4.4126742343241814 #
straight-curve $-1 -43.896603289895324 24.626011861197021 0 0 0 -1 I I #
point $-1 -43.896603289895324 -24.626011861197021 -8.354972193393575 #
straight-curve $-1 -43.896603289895324 0 -8.354972193393575 0 1 0 I I #
point $-1 -43.896603289895324 24.626011861197021 -8.354972193393575 #
straight-curve $-1 -43.896603289895324 0 -5.9720552071983493 0 -1 0 I I #
point $-1 -43.896603289895324 -24.626011861197021 -5.9720552071983493 #
point $-1 -43.896603289895324 24.626011861197021 -5.9720552071983493 #
straight-curve $-1 -43.896603289895324 24.626011861197021 0 0 0 -1 I I #
straight-curve $-1 -43.896603289895324 -24.626011861197021 0 0 0 -1 I I #
straight-curve $-1 43.896603289895324 0 8.354972193393575 0 1 0 I I #
point $-1 43.896603289895324 -17.157297789807203 8.354972193393575 #
straight-curve $-1 43.896603289895324 -24.626011861197021 0 0 0 -1 I I #
point $-1 43.896603289895324 -24.626011861197021 8.354972193393575 #
point $-1 28.584579221782704 -16.034765373888362 -0.2362742678666051 #
point $-1 34.326588247324935 -16.034765373888362 -0.2362742678666051 #
point $-1 40.068597272867166 -16.034765373888362 -0.2362742678666051 #
straight-curve $-1 43.896603289895324 24.626011861197021 0 0 0 -1 I I #
straight-curve $-1 43.896603289895324 0 8.354972193393575 0 1 0 I I #
point $-1 43.896603289895332 24.626011861197021 2.4636434771388309 #
straight-curve $-1 19.624921980728502 24.626011861197021 2.4636434771388309 -1 0 0 I I #
point $-1 43.896603289895324 24.626011861197021 8.354972193393575 #
point $-1 37.258375677840576 20.232773958234663 3.7833538534934705 #
point $-1 41.241312245073431 20.232773958234663 3.7833538534934705 #
End-of-ACIS-data 