500 0 8 0           
7 Unknown 11 ACIS 5.0 NT 24 Thu Mar 25 23:23:15 1999 
-1 9.9999999999999995e-007 1e-010 
body $-1 $8 $-1 $9 #
body $-1 $10 $-1 $11 #
body $-1 $12 $-1 $13 #
body $-1 $14 $-1 $15 #
body $-1 $16 $-1 $17 #
body $-1 $18 $-1 $19 #
body $-1 $20 $-1 $21 #
body $-1 $22 $-1 $23 #
lump $-1 $-1 $24 $0 #
transform $-1 1 0 0 0 1 0 0 0 1 59.407330545976137 40.89165001575256 14.627123040547936 1 rotate no_reflect no_shear #
lump $-1 $-1 $25 $1 #
transform $-1 1 0 0 0 1 0 0 0 1 59.407330545976137 40.89165001575256 14.627123040547936 1 rotate no_reflect no_shear #
lump $-1 $-1 $26 $2 #
transform $-1 1 0 0 0 1 0 0 0 1 59.407330545976137 40.89165001575256 14.627123040547936 1 rotate no_reflect no_shear #
lump $-1 $-1 $27 $3 #
transform $-1 1 0 0 0 1 0 0 0 1 59.407330545976137 40.89165001575256 14.627123040547936 1 rotate no_reflect no_shear #
lump $-1 $-1 $28 $4 #
transform $-1 1 0 0 0 1 0 0 0 1 59.407330545976137 40.89165001575256 14.627123040547936 1 rotate no_reflect no_shear #
lump $-1 $-1 $29 $5 #
transform $-1 1 0 0 0 1 0 0 0 1 59.407330545976137 40.89165001575256 14.627123040547936 1 rotate no_reflect no_shear #
lump $-1 $-1 $30 $6 #
transform $-1 1 0 0 0 1 0 0 0 1 59.407330545976137 40.89165001575256 14.627123040547936 1 rotate no_reflect no_shear #
lump $-1 $-1 $31 $7 #
transform $-1 1 0 0 0 1 0 0 0 1 59.407330545976137 40.89165001575256 14.627123040547936 1 rotate no_reflect no_shear #
shell $-1 $-1 $-1 $32 $-1 $8 #
shell $-1 $-1 $-1 $33 $-1 $10 #
shell $-1 $-1 $-1 $34 $-1 $12 #
shell $-1 $-1 $-1 $35 $-1 $14 #
shell $-1 $-1 $-1 $36 $-1 $16 #
shell $-1 $-1 $-1 $37 $-1 $18 #
shell $-1 $-1 $-1 $38 $-1 $20 #
shell $-1 $-1 $-1 $39 $-1 $22 #
face $-1 $40 $41 $24 $-1 $42 reversed single #
face $-1 $43 $44 $25 $-1 $45 forward single #
face $-1 $46 $47 $26 $-1 $48 reversed single #
face $-1 $49 $50 $27 $-1 $51 forward single #
face $-1 $52 $53 $28 $-1 $54 forward single #
face $-1 $55 $56 $29 $-1 $57 reversed single #
face $-1 $58 $59 $30 $-1 $60 forward single #
face $-1 $61 $62 $31 $-1 $63 forward single #
face $-1 $64 $65 $24 $-1 $66 forward single #
loop $-1 $-1 $67 $32 #
plane-surface $-1 -59.407330545976137 0 0 1 0 0 0 0 -1 forward_v I I I I #
face $-1 $68 $69 $25 $-1 $70 reversed single #
loop $-1 $-1 $71 $33 #
plane-surface $-1 -59.407330545976137 0 0 1 0 0 0 0 -1 forward_v I I I I #
face $-1 $72 $73 $26 $-1 $74 reversed single #
loop $-1 $-1 $75 $34 #
plane-surface $-1 43.921269494876569 -40.89165001575256 9.8727818951129365 0 -0.61566148304635926 0.78801074757464917 1 0 0 forward_v I I I I #
face $-1 $76 $77 $27 $-1 $78 forward single #
loop $-1 $79 $80 $35 #
cone-surface $-1 37.28438618726247 -37.467864798552426 11.762108233694699 0 0.61566148304635926 -0.78801074757464917 0.5 0 0 1 I I 0 1 0.5 forward I I I I #
face $-1 $81 $82 $28 $-1 $83 forward single #
loop $-1 $84 $85 $36 #
cone-surface $-1 50.558152802490682 -37.467864798552426 11.762108233694699 0 0.61566148304635926 -0.78801074757464917 0.5 0 0 1 I I 0 1 0.5 forward I I I I #
face $-1 $86 $87 $29 $-1 $88 reversed single #
loop $-1 $-1 $89 $37 #
plane-surface $-1 43.921269494876569 -23.554469381195617 60.223609680934757 0 0.61566148304635926 0.78801074757464917 1 0 0 forward_v I I I I #
face $-1 $90 $91 $30 $-1 $92 forward single #
loop $-1 $93 $94 $38 #
cone-surface $-1 37.28438618726247 37.467864798552426 11.762108233694702 0 -0.61566148304635926 -0.78801074757464917 0.5 0 0 1 I I 0 1 0.5 forward I I I I #
face $-1 $95 $96 $31 $-1 $97 forward single #
loop $-1 $98 $99 $39 #
cone-surface $-1 50.558152802490682 37.467864798552426 11.762108233694702 0 -0.61566148304635926 -0.78801074757464917 0.5 0 0 1 I I 0 1 0.5 forward I I I I #
face $-1 $100 $101 $24 $-1 $102 reversed single #
loop $-1 $-1 $103 $40 #
plane-surface $-1 0 0 14.627123040547936 0 0 1 1 0 0 forward_v I I I I #
coedge $-1 $104 $105 $106 $107 reversed $41 $-1 #
face $-1 $108 $109 $25 $-1 $110 reversed single #
loop $-1 $-1 $111 $43 #
plane-surface $-1 0 0 -14.627123040547936 0 0 1 1 0 0 forward_v I I I I #
coedge $-1 $112 $113 $114 $115 forward $44 $-1 #
face $-1 $116 $117 $26 $-1 $118 reversed single #
loop $-1 $-1 $119 $46 #
plane-surface $-1 28.435208443777 -114.04126047127447 103.50001180501084 1 0 0 0 0.61566148304635926 -0.78801074757464917 forward_v I I I I #
coedge $-1 $120 $121 $122 $123 reversed $47 $-1 #
face $-1 $-1 $124 $27 $-1 $125 forward single #
loop $-1 $126 $127 $49 #
cone-surface $-1 37.28438618726247 -36.932803731989054 11.077261312665303 0 0.61566148304635926 -0.78801074757464917 0.25 0 0 1 I I -0.70710678118654746 0.70710678118654746 0.25 forward I I I I #
loop $-1 $-1 $128 $35 #
coedge $-1 $80 $80 $129 $130 reversed $50 $-1 #
face $-1 $-1 $131 $28 $-1 $132 forward single #
loop $-1 $133 $134 $52 #
cone-surface $-1 50.558152802490682 -36.932803731989054 11.077261312665303 0 0.61566148304635926 -0.78801074757464917 0.25 0 0 1 I I -0.70710678118654746 0.70710678118654746 0.25 forward I I I I #
loop $-1 $-1 $135 $36 #
coedge $-1 $85 $85 $136 $137 reversed $53 $-1 #
face $-1 $138 $139 $29 $-1 $140 reversed single #
loop $-1 $-1 $141 $55 #
plane-surface $-1 28.435208443777 49.595141074326293 153.85083959083266 1 0 0 0 -0.61566148304635926 -0.78801074757464917 forward_v I I I I #
coedge $-1 $142 $143 $144 $145 reversed $56 $-1 #
face $-1 $-1 $146 $30 $-1 $147 forward single #
loop $-1 $148 $149 $58 #
cone-surface $-1 37.28438618726247 36.932803731989054 11.077261312665307 0 -0.61566148304635926 -0.78801074757464917 0.25 0 0 1 I I -0.70710678118654746 0.70710678118654746 0.25 forward I I I I #
loop $-1 $-1 $150 $38 #
coedge $-1 $94 $94 $151 $152 reversed $59 $-1 #
face $-1 $-1 $153 $31 $-1 $154 forward single #
loop $-1 $155 $156 $61 #
cone-surface $-1 50.558152802490682 36.932803731989054 11.077261312665307 0 -0.61566148304635926 -0.78801074757464917 0.25 0 0 1 I I -0.70710678118654746 0.70710678118654746 0.25 forward I I I I #
loop $-1 $-1 $157 $39 #
coedge $-1 $99 $99 $158 $159 reversed $62 $-1 #
face $-1 $160 $161 $24 $-1 $162 reversed single #
loop $-1 $-1 $163 $64 #
plane-surface $-1 0 0 -14.627123040547936 0 0 1 1 0 0 forward_v I I I I #
coedge $-1 $164 $165 $166 $167 forward $65 $-1 #
coedge $-1 $168 $67 $169 $170 reversed $41 $-1 #
coedge $-1 $67 $168 $171 $172 forward $41 $-1 #
coedge $-1 $173 $174 $67 $107 forward $101 $-1 #
edge $-1 $175 -40.89165001575256 $176 40.89165001575256 $67 $177 forward 7 unknown #
face $-1 $178 $179 $25 $-1 $180 reversed single #
loop $-1 $-1 $181 $68 #
plane-surface $-1 -64.762981540467948 -29.647115586537986 0 0 1 0 0 0 1 forward_v I I I I #
coedge $-1 $182 $183 $113 $184 forward $69 $-1 #
coedge $-1 $185 $71 $186 $187 reversed $44 $-1 #
coedge $-1 $71 $185 $111 $184 reversed $44 $-1 #
coedge $-1 $188 $189 $71 $115 reversed $190 $-1 #
edge $-1 $191 -14.627123040547936 $192 14.627123040547936 $114 $193 forward 7 unknown #
face $-1 $194 $195 $26 $-1 $196 forward single #
loop $-1 $-1 $197 $72 #
plane-surface $-1 0 -40.89165001575256 0 0 1 0 0 0 1 forward_v I I I I #
coedge $-1 $198 $199 $200 $201 reversed $73 $-1 #
coedge $-1 $202 $75 $203 $204 reversed $47 $-1 #
coedge $-1 $75 $202 $198 $205 forward $47 $-1 #
coedge $-1 $200 $206 $75 $123 forward $195 $-1 #
edge $-1 $207 -37.446695798537853 $208 -6.4745736963387159 $122 $209 forward 7 unknown #
loop $-1 $-1 $129 $76 #
plane-surface $-1 43.921269494876569 -40.89165001575256 9.8727818951129365 0 -0.61566148304635926 0.78801074757464917 1 0 0 forward_v I I I I #
loop $-1 $-1 $210 $49 #
coedge $-1 $127 $127 $128 $211 reversed $77 $-1 #
coedge $-1 $128 $128 $127 $211 forward $79 $-1 #
coedge $-1 $129 $129 $80 $130 forward $124 $-1 #
edge $-1 $212 4.636499330812849e-015 $212 6.2831853071796049 $129 $213 forward 7 unknown #
loop $-1 $-1 $136 $81 #
plane-surface $-1 43.921269494876569 -40.89165001575256 9.8727818951129365 0 -0.61566148304635926 0.78801074757464917 1 0 0 forward_v I I I I #
loop $-1 $-1 $214 $52 #
coedge $-1 $134 $134 $135 $215 reversed $82 $-1 #
coedge $-1 $135 $135 $134 $215 forward $84 $-1 #
coedge $-1 $136 $136 $85 $137 forward $131 $-1 #
edge $-1 $216 4.636499330812849e-015 $216 6.2831853071796049 $136 $217 forward 7 unknown #
face $-1 $218 $219 $29 $-1 $220 forward single #
loop $-1 $-1 $144 $86 #
plane-surface $-1 0 40.89165001575256 0 0 -1 0 0 0 -1 forward_v I I I I #
coedge $-1 $221 $222 $223 $224 reversed $87 $-1 #
coedge $-1 $225 $89 $226 $227 reversed $56 $-1 #
coedge $-1 $89 $225 $221 $228 forward $56 $-1 #
coedge $-1 $223 $229 $89 $145 forward $139 $-1 #
edge $-1 $230 -37.446695798537853 $231 -6.4745736963387159 $144 $232 forward 7 unknown #
loop $-1 $-1 $151 $90 #
plane-surface $-1 43.921269494876569 -23.554469381195617 60.223609680934757 0 0.61566148304635926 0.78801074757464917 1 0 0 forward_v I I I I #
loop $-1 $-1 $233 $58 #
coedge $-1 $149 $149 $150 $234 reversed $91 $-1 #
coedge $-1 $150 $150 $149 $234 forward $93 $-1 #
coedge $-1 $151 $151 $94 $152 forward $146 $-1 #
edge $-1 $235 -4.8984607169668923e-015 $235 6.2831853071795951 $151 $236 forward 7 unknown #
loop $-1 $-1 $158 $95 #
plane-surface $-1 43.921269494876569 -23.554469381195617 60.223609680934757 0 0.61566148304635926 0.78801074757464917 1 0 0 forward_v I I I I #
loop $-1 $-1 $237 $61 #
coedge $-1 $156 $156 $157 $238 reversed $96 $-1 #
coedge $-1 $157 $157 $156 $238 forward $98 $-1 #
coedge $-1 $158 $158 $99 $159 forward $153 $-1 #
edge $-1 $239 -4.8984607169668923e-015 $239 6.2831853071795951 $158 $240 forward 7 unknown #
face $-1 $241 $242 $24 $-1 $243 reversed single #
loop $-1 $-1 $169 $100 #
plane-surface $-1 0 -40.89165001575256 0 0 1 0 0 0 1 forward_v I I I I #
coedge $-1 $174 $173 $244 $245 forward $101 $-1 #
coedge $-1 $246 $103 $247 $248 forward $65 $-1 #
coedge $-1 $103 $246 $249 $250 forward $65 $-1 #
coedge $-1 $251 $252 $103 $167 reversed $253 $-1 #
edge $-1 $254 -40.89165001575256 $255 40.89165001575256 $166 $256 forward 7 unknown #
coedge $-1 $105 $104 $246 $257 reversed $41 $-1 #
coedge $-1 $258 $249 $104 $170 forward $161 $-1 #
edge $-1 $259 -14.627123040547936 $175 14.627123040547936 $104 $260 forward 7 unknown #
coedge $-1 $247 $261 $105 $172 reversed $242 $-1 #
edge $-1 $262 -14.627123040547936 $176 14.627123040547936 $171 $263 forward 7 unknown #
coedge $-1 $163 $106 $261 $264 forward $101 $-1 #
coedge $-1 $106 $163 $258 $265 forward $101 $-1 #
vertex $-1 $107 $266 #
vertex $-1 $264 $267 #
straight-curve $-1 -59.407330545976137 0 -14.627123040547936 0 1 0 I I #
face $-1 $268 $190 $25 $-1 $269 reversed single #
loop $-1 $-1 $270 $108 #
plane-surface $-1 -70.118632534959758 -25.732606945073435 0 1 0 0 0 0 -1 forward_v I I I I #
coedge $-1 $271 $272 $273 $274 forward $109 $-1 #
coedge $-1 $275 $111 $271 $276 forward $69 $-1 #
coedge $-1 $111 $275 $188 $277 forward $69 $-1 #
edge $-1 $191 21.818098303608885 $278 29.647115586537986 $111 $279 forward 7 unknown #
coedge $-1 $113 $112 $280 $281 forward $44 $-1 #
coedge $-1 $282 $283 $112 $187 forward $284 $-1 #
edge $-1 $285 -29.647115586537986 $192 -21.818098303608885 $186 $286 forward 7 unknown #
coedge $-1 $287 $114 $183 $277 reversed $190 $-1 #
coedge $-1 $114 $287 $282 $288 reversed $190 $-1 #
loop $-1 $-1 $114 $178 #
vertex $-1 $184 $289 #
vertex $-1 $288 $290 #
straight-curve $-1 -59.407330545976137 -21.818098303608885 0 0 0 1 I I #
face $-1 $-1 $291 $26 $-1 $292 reversed single #
loop $-1 $-1 $200 $116 #
plane-surface $-1 0 0 14.627123040547936 0 0 1 1 0 0 forward_v I I I I #
coedge $-1 $293 $294 $199 $295 forward $117 $-1 #
coedge $-1 $199 $119 $121 $205 reversed $73 $-1 #
coedge $-1 $119 $198 $197 $295 reversed $73 $-1 #
coedge $-1 $296 $122 $119 $201 forward $195 $-1 #
edge $-1 $208 -22.214259262681374 $297 -16.128980219884674 $200 $298 forward 7 unknown #
coedge $-1 $121 $120 $293 $299 reversed $47 $-1 #
coedge $-1 $300 $301 $120 $204 forward $291 $-1 #
edge $-1 $302 -13.072384077567808 $207 -5.3500540693463989 $203 $303 forward 7 unknown #
edge $-1 $304 0 $208 7.7223300082214106 $198 $305 forward 7 unknown #
coedge $-1 $122 $296 $300 $306 forward $195 $-1 #
vertex $-1 $204 $307 #
vertex $-1 $123 $308 #
straight-curve $-1 21.960634747438284 -34.806370972955861 14.627123040547936 -1 0 0 I I #
coedge $-1 $210 $210 $-1 $309 reversed $126 $-1 #
edge $-1 $310 0 $310 6.2831853071796004 $127 $311 forward 7 unknown #
vertex $-1 $130 $312 #
ellipse-curve $-1 37.28438618726247 -37.849010494354211 12.249952467830436 0 -0.61566148304635926 0.78801074757464917 0.5 0 0 1 I I #
coedge $-1 $214 $214 $-1 $313 reversed $133 $-1 #
edge $-1 $314 0 $314 6.2831853071796004 $134 $315 forward 7 unknown #
vertex $-1 $137 $316 #
ellipse-curve $-1 50.558152802490682 -37.849010494354211 12.249952467830436 0 -0.61566148304635926 0.78801074757464917 0.5 0 0 1 I I #
face $-1 $-1 $317 $29 $-1 $318 reversed single #
loop $-1 $-1 $319 $138 #
plane-surface $-1 0 0 14.627123040547936 0 0 1 1 0 0 forward_v I I I I #
coedge $-1 $222 $141 $143 $228 reversed $87 $-1 #
coedge $-1 $141 $221 $320 $321 reversed $87 $-1 #
coedge $-1 $322 $144 $141 $224 forward $139 $-1 #
edge $-1 $231 -67.052637900303381 $323 -62.298296754868396 $223 $324 forward 7 unknown #
coedge $-1 $143 $142 $319 $325 reversed $56 $-1 #
coedge $-1 $326 $327 $142 $227 forward $317 $-1 #
edge $-1 $328 46.241704085098966 $230 53.964034093320365 $226 $329 forward 7 unknown #
edge $-1 $330 74.060970023283716 $231 81.783300031505121 $221 $331 forward 7 unknown #
coedge $-1 $144 $322 $326 $332 forward $139 $-1 #
vertex $-1 $227 $333 #
vertex $-1 $145 $334 #
straight-curve $-1 21.960634747438284 40.89165001575256 9.8727818951129507 -1 0 0 I I #
coedge $-1 $233 $233 $-1 $335 reversed $148 $-1 #
edge $-1 $336 0 $336 6.2831853071796004 $149 $337 forward 7 unknown #
vertex $-1 $152 $338 #
ellipse-curve $-1 37.28438618726247 37.849010494354218 12.249952467830449 0 0.61566148304635926 0.78801074757464917 0.5 0 0 1 I I #
coedge $-1 $237 $237 $-1 $339 reversed $155 $-1 #
edge $-1 $340 0 $340 6.2831853071796004 $156 $341 forward 7 unknown #
vertex $-1 $159 $342 #
ellipse-curve $-1 50.558152802490682 37.849010494354218 12.249952467830449 0 0.61566148304635926 0.78801074757464917 0.5 0 0 1 I I #
face $-1 $-1 $253 $24 $-1 $343 reversed single #
loop $-1 $-1 $344 $160 #
plane-surface $-1 0 40.89165001575256 0 0 -1 0 0 0 -1 forward_v I I I I #
coedge $-1 $252 $251 $163 $245 reversed $253 $-1 #
edge $-1 $345 -40.89165001575256 $346 40.89165001575256 $244 $347 forward 7 unknown #
coedge $-1 $165 $164 $168 $257 forward $65 $-1 #
coedge $-1 $344 $171 $164 $248 reversed $242 $-1 #
edge $-1 $255 -59.407330545976137 $262 59.407330545976137 $247 $348 forward 7 unknown #
coedge $-1 $169 $349 $165 $250 reversed $161 $-1 #
edge $-1 $259 -59.407330545976137 $254 59.407330545976137 $249 $350 forward 7 unknown #
coedge $-1 $244 $166 $349 $351 forward $253 $-1 #
coedge $-1 $166 $244 $344 $352 reversed $253 $-1 #
loop $-1 $-1 $251 $241 #
vertex $-1 $167 $353 #
vertex $-1 $167 $354 #
straight-curve $-1 59.407330545976137 0 14.627123040547936 0 1 0 I I #
edge $-1 $262 -40.89165001575256 $259 40.89165001575256 $168 $355 forward 7 unknown #
coedge $-1 $349 $169 $174 $265 reversed $161 $-1 #
vertex $-1 $257 $356 #
straight-curve $-1 -59.407330545976137 -40.89165001575256 0 0 0 -1 I I #
coedge $-1 $171 $344 $173 $264 reversed $242 $-1 #
vertex $-1 $248 $357 #
straight-curve $-1 -59.407330545976137 40.89165001575256 0 0 0 -1 I I #
edge $-1 $176 -59.407330545976137 $345 59.407330545976137 $261 $358 forward 7 unknown #
edge $-1 $346 -59.407330545976137 $175 59.407330545976137 $258 $359 forward 7 unknown #
point $-1 -59.407330545976137 -40.89165001575256 -14.627123040547936 #
point $-1 -59.407330545976137 40.89165001575256 -14.627123040547936 #
face $-1 $-1 $284 $25 $-1 $360 forward single #
plane-surface $-1 -64.762981540467948 -21.818098303608885 0 0 -1 0 0 0 -1 forward_v I I I I #
coedge $-1 $361 $362 $287 $363 forward $179 $-1 #
coedge $-1 $280 $181 $182 $276 reversed $109 $-1 #
coedge $-1 $181 $280 $283 $364 reversed $109 $-1 #
coedge $-1 $362 $361 $181 $274 reversed $179 $-1 #
edge $-1 $365 -14.627123040547936 $366 14.627123040547936 $273 $367 forward 7 unknown #
coedge $-1 $183 $182 $361 $368 forward $69 $-1 #
edge $-1 $278 -5.3556509944918105 $366 5.3556509944918105 $271 $369 forward 7 unknown #
edge $-1 $370 -5.3556509944918105 $191 5.3556509944918105 $188 $371 forward 7 unknown #
vertex $-1 $276 $372 #
straight-curve $-1 -59.407330545976137 0 -14.627123040547936 0 -1 0 I I #
coedge $-1 $272 $271 $185 $281 reversed $109 $-1 #
edge $-1 $285 -14.627123040547936 $278 14.627123040547936 $280 $373 forward 7 unknown #
coedge $-1 $374 $186 $189 $288 forward $284 $-1 #
coedge $-1 $186 $374 $272 $364 forward $284 $-1 #
loop $-1 $-1 $186 $268 #
vertex $-1 $187 $375 #
straight-curve $-1 -59.407330545976137 0 14.627123040547936 0 1 0 I I #
coedge $-1 $189 $188 $270 $363 reversed $190 $-1 #
edge $-1 $192 -5.3556509944918105 $376 5.3556509944918105 $189 $377 forward 7 unknown #
point $-1 -59.407330545976137 -21.818098303608885 -14.627123040547936 #
point $-1 -59.407330545976137 -21.818098303608885 14.627123040547936 #
loop $-1 $-1 $203 $194 #
plane-surface $-1 59.407330545976137 0 0 -1 0 0 0 0 1 forward_v I I I I #
coedge $-1 $378 $197 $202 $299 forward $117 $-1 #
coedge $-1 $197 $378 $296 $379 reversed $117 $-1 #
edge $-1 $297 37.122882861957486 $304 41.877224007392485 $197 $380 forward 7 unknown #
coedge $-1 $206 $200 $294 $379 forward $195 $-1 #
vertex $-1 $379 $381 #
straight-curve $-1 28.435208443777 -57.020630235637235 14.627123040547936 0 -1 0 I I #
edge $-1 $304 6.4745736963387159 $302 37.446695798537853 $293 $382 forward 7 unknown #
coedge $-1 $301 $203 $206 $306 reversed $291 $-1 #
coedge $-1 $203 $300 $378 $383 forward $291 $-1 #
vertex $-1 $299 $384 #
straight-curve $-1 59.407330545976137 -30.590470866205408 17.920945263259945 0 0.78801074757464917 0.61566148304635926 I I #
vertex $-1 $299 $385 #
straight-curve $-1 28.435208443777 -40.89165001575256 9.8727818951129365 0 0.78801074757464917 0.61566148304635926 I I #
edge $-1 $386 -40.89165001575256 $207 -34.806370972955861 $300 $387 forward 7 unknown #
point $-1 59.407330545976137 -34.806370972955861 14.627123040547936 #
point $-1 28.435208443777 -34.806370972955861 14.627123040547936 #
edge $-1 $388 1 $388 0 $210 $-1 forward 7 unknown #
vertex $-1 $211 $389 #
ellipse-curve $-1 37.28438618726247 -37.086719102750642 11.274263999558965 0 -0.61566148304635926 0.78801074757464917 0.5 0 0 1 I I #
point $-1 37.78438618726247 -37.849010494354204 12.249952467830431 #
edge $-1 $390 1 $390 0 $214 $-1 forward 7 unknown #
vertex $-1 $215 $391 #
ellipse-curve $-1 50.558152802490682 -37.086719102750642 11.274263999558965 0 -0.61566148304635926 0.78801074757464917 0.5 0 0 1 I I #
point $-1 51.058152802490682 -37.849010494354204 12.249952467830431 #
loop $-1 $-1 $226 $218 #
plane-surface $-1 59.407330545976137 0 0 -1 0 0 0 0 1 forward_v I I I I #
coedge $-1 $392 $320 $225 $325 forward $219 $-1 #
coedge $-1 $319 $393 $222 $321 forward $219 $-1 #
edge $-1 $323 -16.094079478589414 $330 -10.008800435792729 $320 $394 forward 7 unknown #
coedge $-1 $229 $223 $393 $395 reversed $139 $-1 #
vertex $-1 $224 $396 #
straight-curve $-1 28.435208443777 40.89165001575256 76.925419795416332 0 0 1 I I #
edge $-1 $330 6.4745736963387159 $328 37.446695798537853 $319 $397 forward 7 unknown #
coedge $-1 $327 $226 $229 $332 reversed $317 $-1 #
coedge $-1 $226 $326 $392 $398 reversed $317 $-1 #
vertex $-1 $398 $399 #
straight-curve $-1 59.407330545976137 -1.6325888322686719 43.096359156170863 0 0.78801074757464917 -0.61566148304635926 I I #
vertex $-1 $325 $400 #
straight-curve $-1 28.435208443777 -23.554469381195617 60.223609680934757 0 0.78801074757464917 -0.61566148304635926 I I #
edge $-1 $401 -14.627123040547936 $230 -9.8727818951129542 $326 $402 forward 7 unknown #
point $-1 59.407330545976137 40.89165001575256 9.8727818951129542 #
point $-1 28.435208443777 40.89165001575256 9.8727818951129578 #
edge $-1 $403 1 $403 0 $233 $-1 forward 7 unknown #
vertex $-1 $234 $404 #
ellipse-curve $-1 37.28438618726247 37.086719102750642 11.274263999558968 0 0.61566148304635926 0.78801074757464917 0.5 0 0 1 I I #
point $-1 37.78438618726247 37.849010494354204 12.249952467830434 #
edge $-1 $405 1 $405 0 $237 $-1 forward 7 unknown #
vertex $-1 $238 $406 #
ellipse-curve $-1 50.558152802490682 37.086719102750642 11.274263999558968 0 0.61566148304635926 0.78801074757464917 0.5 0 0 1 I I #
point $-1 51.058152802490682 37.849010494354204 12.249952467830434 #
plane-surface $-1 59.407330545976137 0 0 -1 0 0 0 0 1 forward_v I I I I #
coedge $-1 $261 $247 $252 $352 forward $242 $-1 #
vertex $-1 $245 $407 #
vertex $-1 $351 $408 #
straight-curve $-1 59.407330545976137 0 -14.627123040547936 0 -1 0 I I #
straight-curve $-1 0 40.89165001575256 14.627123040547936 -1 0 0 I I #
coedge $-1 $249 $258 $251 $351 reversed $161 $-1 #
straight-curve $-1 0 -40.89165001575256 14.627123040547936 1 0 0 I I #
edge $-1 $254 -14.627123040547936 $346 14.627123040547936 $251 $409 forward 7 unknown #
edge $-1 $255 -14.627123040547936 $345 14.627123040547936 $252 $410 forward 7 unknown #
point $-1 59.407330545976137 -40.89165001575256 14.627123040547936 #
point $-1 59.407330545976137 40.89165001575256 14.627123040547936 #
straight-curve $-1 -59.407330545976137 0 14.627123040547936 0 -1 0 I I #
point $-1 -59.407330545976137 -40.89165001575256 14.627123040547936 #
point $-1 -59.407330545976137 40.89165001575256 14.627123040547936 #
straight-curve $-1 0 40.89165001575256 -14.627123040547936 1 0 0 I I #
straight-curve $-1 0 -40.89165001575256 -14.627123040547936 -1 0 0 I I #
plane-surface $-1 0 0 14.627123040547936 0 0 1 1 0 0 forward_v I I I I #
coedge $-1 $273 $270 $275 $368 reversed $179 $-1 #
coedge $-1 $270 $273 $374 $411 reversed $179 $-1 #
edge $-1 $376 -14.627123040547936 $370 14.627123040547936 $287 $412 forward 7 unknown #
edge $-1 $365 -5.3556509944918105 $285 5.3556509944918105 $272 $413 forward 7 unknown #
vertex $-1 $411 $414 #
vertex $-1 $368 $415 #
straight-curve $-1 -70.118632534959758 -29.647115586537986 0 0 0 -1 I I #
edge $-1 $366 -3.9145086414645505 $370 3.9145086414645505 $361 $416 forward 7 unknown #
straight-curve $-1 -64.762981540467948 -29.647115586537986 -14.627123040547936 -1 0 0 I I #
vertex $-1 $277 $417 #
straight-curve $-1 -64.762981540467948 -21.818098303608885 -14.627123040547936 1 0 0 I I #
point $-1 -59.407330545976137 -29.647115586537986 -14.627123040547936 #
straight-curve $-1 -59.407330545976137 -29.647115586537986 0 0 0 -1 I I #
coedge $-1 $283 $282 $362 $411 forward $284 $-1 #
point $-1 -59.407330545976137 -29.647115586537986 14.627123040547936 #
vertex $-1 $288 $418 #
straight-curve $-1 -64.762981540467948 -21.818098303608885 14.627123040547936 -1 0 0 I I #
coedge $-1 $294 $293 $301 $383 reversed $117 $-1 #
edge $-1 $297 28.435208443777 $386 59.407330545976137 $294 $419 forward 7 unknown #
straight-curve $-1 28.435208443777 -40.89165001575256 51.750005902505421 0 0 -1 I I #
point $-1 28.435208443777 -40.89165001575256 14.627123040547936 #
straight-curve $-1 21.960634747438284 -40.89165001575256 9.8727818951129365 1 0 0 I I #
edge $-1 $386 -14.627123040547936 $302 -9.8727818951129365 $301 $420 forward 7 unknown #
point $-1 59.407330545976137 -40.89165001575256 9.8727818951129365 #
point $-1 28.435208443777 -40.89165001575256 9.8727818951129365 #
vertex $-1 $306 $421 #
straight-curve $-1 59.407330545976137 0 14.627123040547936 0 1 0 I I #
vertex $-1 $309 $422 #
point $-1 37.78438618726247 -37.086719102750642 11.274263999558965 #
vertex $-1 $313 $423 #
point $-1 51.058152802490682 -37.086719102750642 11.274263999558965 #
coedge $-1 $393 $319 $327 $398 forward $219 $-1 #
coedge $-1 $320 $392 $322 $395 forward $219 $-1 #
straight-curve $-1 28.435208443777 24.797570537163146 14.627123040547929 0 -1 0 I I #
edge $-1 $401 -59.407330545976137 $323 -28.435208443777 $322 $424 forward 7 unknown #
point $-1 28.435208443777 40.89165001575256 14.627123040547936 #
straight-curve $-1 21.960634747438284 34.806370972955889 14.627123040547932 1 0 0 I I #
edge $-1 $328 34.806370972955875 $401 40.89165001575256 $327 $425 forward 7 unknown #
point $-1 59.407330545976137 34.806370972955875 14.627123040547943 #
point $-1 28.435208443777 34.806370972955875 14.627123040547943 #
vertex $-1 $398 $426 #
straight-curve $-1 59.407330545976137 40.89165001575256 0 0 0 -1 I I #
vertex $-1 $335 $427 #
point $-1 37.78438618726247 37.086719102750642 11.274263999558968 #
vertex $-1 $339 $428 #
point $-1 51.058152802490682 37.086719102750642 11.274263999558968 #
point $-1 59.407330545976137 40.89165001575256 -14.627123040547936 #
point $-1 59.407330545976137 -40.89165001575256 -14.627123040547936 #
straight-curve $-1 59.407330545976137 -40.89165001575256 0 0 0 -1 I I #
straight-curve $-1 59.407330545976137 40.89165001575256 0 0 0 -1 I I #
edge $-1 $376 -3.9145086414645505 $365 3.9145086414645505 $362 $429 forward 7 unknown #
straight-curve $-1 -70.118632534959758 -21.818098303608885 0 0 0 -1 I I #
straight-curve $-1 -64.762981540467948 -29.647115586537986 14.627123040547936 1 0 0 I I #
point $-1 -70.118632534959758 -29.647115586537986 14.627123040547936 #
point $-1 -70.118632534959758 -29.647115586537986 -14.627123040547936 #
straight-curve $-1 -70.118632534959758 -25.732606945073435 -14.627123040547936 0 1 0 I I #
point $-1 -70.118632534959758 -21.818098303608885 -14.627123040547936 #
point $-1 -70.118632534959758 -21.818098303608885 14.627123040547936 #
straight-curve $-1 0 -40.89165001575256 14.627123040547936 1 0 0 I I #
straight-curve $-1 59.407330545976137 -40.89165001575256 0 0 0 -1 I I #
point $-1 59.407330545976137 -40.89165001575256 14.627123040547936 #
point $-1 37.28438618726247 -36.778888361227466 10.880258625771642 #
point $-1 50.558152802490682 -36.778888361227466 10.880258625771642 #
straight-curve $-1 0 40.89165001575256 14.627123040547936 -1 0 0 I I #
straight-curve $-1 59.407330545976137 0 14.627123040547936 0 1 0 I I #
point $-1 59.407330545976137 40.89165001575256 14.627123040547936 #
point $-1 37.28438618726247 36.778888361227466 10.880258625771646 #
point $-1 50.558152802490682 36.778888361227466 10.880258625771646 #
straight-curve $-1 -70.118632534959758 -25.732606945073435 14.627123040547936 0 -1 0 I I #
End-of-ACIS-data 