500 0 8 0           
7 Unknown 11 ACIS 5.0 NT 24 Thu Mar 25 19:24:47 1999 
-1 9.9999999999999995e-007 1e-010 
body $-1 $8 $-1 $9 #
body $-1 $10 $-1 $11 #
body $-1 $12 $-1 $13 #
body $-1 $14 $-1 $15 #
body $-1 $16 $-1 $17 #
body $-1 $18 $-1 $19 #
body $-1 $20 $-1 $21 #
body $-1 $22 $-1 $23 #
lump $-1 $-1 $24 $0 #
transform $-1 1 0 0 0 1 0 0 0 1 48.539078951384013 33.176987079762178 12.37664531287237 1 rotate no_reflect no_shear #
lump $-1 $-1 $25 $1 #
transform $-1 1 0 0 0 1 0 0 0 1 48.539078951384013 33.176987079762178 12.37664531287237 1 rotate no_reflect no_shear #
lump $-1 $-1 $26 $2 #
transform $-1 1 0 0 0 1 0 0 0 1 48.539078951384013 33.176987079762178 12.37664531287237 1 rotate no_reflect no_shear #
lump $-1 $-1 $27 $3 #
transform $-1 1 0 0 0 1 0 0 0 1 48.539078951384013 33.176987079762178 12.37664531287237 1 rotate no_reflect no_shear #
lump $-1 $-1 $28 $4 #
transform $-1 1 0 0 0 1 0 0 0 1 48.539078951384013 33.176987079762178 12.37664531287237 1 rotate no_reflect no_shear #
lump $-1 $-1 $29 $5 #
transform $-1 1 0 0 0 1 0 0 0 1 48.539078951384013 33.176987079762178 12.37664531287237 1 rotate no_reflect no_shear #
lump $-1 $-1 $30 $6 #
transform $-1 1 0 0 0 1 0 0 0 1 48.539078951384013 33.176987079762178 12.37664531287237 1 rotate no_reflect no_shear #
lump $-1 $-1 $31 $7 #
transform $-1 1 0 0 0 1 0 0 0 1 48.539078951384013 33.176987079762178 12.37664531287237 1 rotate no_reflect no_shear #
shell $-1 $-1 $-1 $32 $-1 $8 #
shell $-1 $-1 $-1 $33 $-1 $10 #
shell $-1 $-1 $-1 $34 $-1 $12 #
shell $-1 $-1 $-1 $35 $-1 $14 #
shell $-1 $-1 $-1 $36 $-1 $16 #
shell $-1 $-1 $-1 $37 $-1 $18 #
shell $-1 $-1 $-1 $38 $-1 $20 #
shell $-1 $-1 $-1 $39 $-1 $22 #
face $-1 $40 $41 $24 $-1 $42 forward single #
face $-1 $43 $44 $25 $-1 $45 forward single #
face $-1 $46 $47 $26 $-1 $48 reversed single #
face $-1 $49 $50 $27 $-1 $51 forward single #
face $-1 $52 $53 $28 $-1 $54 forward single #
face $-1 $55 $56 $29 $-1 $57 reversed single #
face $-1 $58 $59 $30 $-1 $60 forward single #
face $-1 $61 $62 $31 $-1 $63 forward single #
face $-1 $64 $65 $24 $-1 $66 reversed single #
loop $-1 $-1 $67 $32 #
plane-surface $-1 0 0 12.37664531287237 0 0 1 1 0 0 forward_v I I I I #
face $-1 $68 $69 $25 $-1 $70 forward single #
loop $-1 $-1 $71 $33 #
plane-surface $-1 0 -33.176987079762178 0 0 1 0 0 0 1 forward_v I I I I #
face $-1 $72 $73 $26 $-1 $74 reversed single #
loop $-1 $-1 $75 $34 #
plane-surface $-1 15.32580501153025 7.964414885119993 137.17135577839753 0 -1 0 -0.51503808176128008 0 -0.85716729658548041 forward_v I I I I #
face $-1 $76 $77 $27 $-1 $78 forward single #
loop $-1 $79 $80 $35 #
cone-surface $-1 41.235450125303942 1.8932645763470788 7.6692011359439647 -0.51503808176128008 0 -0.85716729658548041 0.85716729658548041 0 -0.51503808176128008 1 I I 0 1 1 forward I I I I #
face $-1 $81 $82 $28 $-1 $83 forward single #
loop $-1 $84 $85 $36 #
cone-surface $-1 41.235450125303942 5.5359547616108244 7.6692011359439647 -0.51503808176128008 0 -0.85716729658548041 0.85716729658548041 0 -0.51503808176128008 1 I I 0 1 1 forward I I I I #
face $-1 $86 $87 $29 $-1 $88 reversed single #
loop $-1 $-1 $89 $37 #
plane-surface $-1 15.32580501153025 24.677376647480095 137.17135577839753 0 1 0 0.51503808176128008 0 0.85716729658548041 forward_v I I I I #
face $-1 $90 $91 $30 $-1 $92 forward single #
loop $-1 $93 $94 $38 #
cone-surface $-1 41.235450125303942 27.105836770989264 7.6692011359439647 -0.51503808176128008 0 -0.85716729658548041 0.85716729658548041 0 -0.51503808176128008 1 I I 0 1 1 forward I I I I #
face $-1 $95 $96 $31 $-1 $97 forward single #
loop $-1 $98 $99 $39 #
cone-surface $-1 41.235450125303942 30.748526956253009 7.6692011359439647 -0.51503808176128008 0 -0.85716729658548041 0.85716729658548041 0 -0.51503808176128008 1 I I 0 1 1 forward I I I I #
face $-1 $100 $101 $24 $-1 $102 reversed single #
loop $-1 $-1 $103 $40 #
plane-surface $-1 0 0 -12.37664531287237 0 0 1 1 0 0 forward_v I I I I #
coedge $-1 $104 $105 $106 $107 forward $41 $-1 #
face $-1 $108 $109 $25 $-1 $110 reversed single #
loop $-1 $-1 $111 $43 #
plane-surface $-1 0 0 12.37664531287237 0 0 1 1 0 0 forward_v I I I I #
coedge $-1 $112 $113 $114 $115 forward $44 $-1 #
face $-1 $116 $117 $26 $-1 $118 reversed single #
loop $-1 $-1 $119 $46 #
plane-surface $-1 -34.673143215630049 3.7146096689789516 53.959133611383464 0.51503808176128008 0 0.85716729658548041 0.85716729658548041 0 -0.51503808176128008 forward_v I I I I #
coedge $-1 $120 $121 $122 $123 reversed $47 $-1 #
face $-1 $-1 $124 $27 $-1 $125 forward single #
loop $-1 $126 $127 $49 #
cone-surface $-1 40.677972918180089 1.8932645763470788 6.7414032750474178 -0.51503808176128008 0 -0.85716729658548041 0.4285836482927402 0 -0.25751904088064004 1 I I -0.70710678118654813 0.70710678118654691 0.5 forward I I I I #
loop $-1 $-1 $128 $35 #
coedge $-1 $80 $80 $129 $130 reversed $50 $-1 #
face $-1 $-1 $131 $28 $-1 $132 forward single #
loop $-1 $133 $134 $52 #
cone-surface $-1 40.677972918180089 5.5359547616108244 6.7414032750474178 -0.51503808176128008 0 -0.85716729658548041 0.4285836482927402 0 -0.25751904088064004 1 I I -0.70710678118654813 0.70710678118654691 0.5 forward I I I I #
loop $-1 $-1 $135 $36 #
coedge $-1 $85 $85 $136 $137 reversed $53 $-1 #
face $-1 $138 $139 $29 $-1 $140 reversed single #
loop $-1 $-1 $141 $55 #
plane-surface $-1 -34.673143215630049 28.927181863621136 53.959133611383464 0.51503808176128008 0 0.85716729658548041 0.85716729658548041 0 -0.51503808176128008 forward_v I I I I #
coedge $-1 $142 $143 $144 $145 reversed $56 $-1 #
face $-1 $-1 $146 $30 $-1 $147 forward single #
loop $-1 $148 $149 $58 #
cone-surface $-1 40.677972918180089 27.105836770989264 6.7414032750474178 -0.51503808176128008 0 -0.85716729658548041 0.4285836482927402 0 -0.25751904088064004 1 I I -0.70710678118654813 0.70710678118654691 0.5 forward I I I I #
loop $-1 $-1 $150 $38 #
coedge $-1 $94 $94 $151 $152 reversed $59 $-1 #
face $-1 $-1 $153 $31 $-1 $154 forward single #
loop $-1 $155 $156 $61 #
cone-surface $-1 40.677972918180089 30.748526956253009 6.7414032750474178 -0.51503808176128008 0 -0.85716729658548041 0.4285836482927402 0 -0.25751904088064004 1 I I -0.70710678118654813 0.70710678118654691 0.5 forward I I I I #
loop $-1 $-1 $157 $39 #
coedge $-1 $99 $99 $158 $159 reversed $62 $-1 #
face $-1 $160 $161 $24 $-1 $162 reversed single #
loop $-1 $-1 $163 $64 #
plane-surface $-1 0 -33.176987079762178 0 0 1 0 0 0 1 forward_v I I I I #
coedge $-1 $164 $165 $166 $167 forward $65 $-1 #
coedge $-1 $168 $67 $169 $170 forward $41 $-1 #
coedge $-1 $67 $168 $171 $172 forward $41 $-1 #
coedge $-1 $173 $174 $67 $107 reversed $175 $-1 #
edge $-1 $176 -33.176987079762178 $177 33.176987079762178 $106 $178 forward 7 unknown #
face $-1 $179 $180 $25 $-1 $181 reversed single #
loop $-1 $-1 $182 $68 #
plane-surface $-1 -48.539078951384013 0 0 1 0 0 0 0 -1 forward_v I I I I #
coedge $-1 $183 $184 $113 $185 forward $69 $-1 #
coedge $-1 $186 $71 $187 $188 reversed $44 $-1 #
coedge $-1 $71 $186 $111 $185 reversed $44 $-1 #
coedge $-1 $189 $190 $71 $115 reversed $191 $-1 #
edge $-1 $192 -12.37664531287237 $193 12.37664531287237 $114 $194 forward 7 unknown #
face $-1 $195 $196 $26 $-1 $197 forward single #
loop $-1 $-1 $198 $72 #
plane-surface $-1 15.32580501153025 -0.53519554716208972 137.17135577839753 0 1 0 0.51503808176128008 0 0.85716729658548041 forward_v I I I I #
coedge $-1 $199 $200 $201 $202 reversed $73 $-1 #
coedge $-1 $121 $75 $203 $204 reversed $47 $-1 #
coedge $-1 $75 $120 $199 $205 reversed $47 $-1 #
coedge $-1 $201 $206 $75 $123 forward $196 $-1 #
edge $-1 $207 -40.876176445618889 $208 -26.868835125945175 $122 $209 forward 7 unknown #
loop $-1 $-1 $129 $76 #
plane-surface $-1 -34.673143215630049 3.7146096689789516 53.959133611383464 0.51503808176128008 0 0.85716729658548041 0.85716729658548041 0 -0.51503808176128008 forward_v I I I I #
loop $-1 $-1 $210 $49 #
coedge $-1 $127 $127 $128 $211 reversed $77 $-1 #
coedge $-1 $128 $128 $127 $211 forward $79 $-1 #
coedge $-1 $129 $129 $80 $130 forward $124 $-1 #
edge $-1 $212 0 $212 6.2831853071796004 $129 $213 forward 7 unknown #
loop $-1 $-1 $136 $81 #
plane-surface $-1 -34.673143215630049 3.7146096689789516 53.959133611383464 0.51503808176128008 0 0.85716729658548041 0.85716729658548041 0 -0.51503808176128008 forward_v I I I I #
loop $-1 $-1 $214 $52 #
coedge $-1 $134 $134 $135 $215 reversed $82 $-1 #
coedge $-1 $135 $135 $134 $215 forward $84 $-1 #
coedge $-1 $136 $136 $85 $137 forward $131 $-1 #
edge $-1 $216 0 $216 6.2831853071796004 $136 $217 forward 7 unknown #
face $-1 $218 $219 $29 $-1 $220 reversed single #
loop $-1 $-1 $144 $86 #
plane-surface $-1 48.539078951384013 0 0 -1 0 0 0 0 1 forward_v I I I I #
coedge $-1 $221 $222 $223 $224 reversed $87 $-1 #
coedge $-1 $143 $89 $225 $226 reversed $56 $-1 #
coedge $-1 $89 $142 $221 $227 reversed $56 $-1 #
coedge $-1 $223 $228 $89 $145 forward $139 $-1 #
edge $-1 $229 56.209032576326393 $230 64.625492504975597 $144 $231 forward 7 unknown #
loop $-1 $-1 $151 $90 #
plane-surface $-1 -34.673143215630049 28.927181863621136 53.959133611383464 0.51503808176128008 0 0.85716729658548041 0.85716729658548041 0 -0.51503808176128008 forward_v I I I I #
loop $-1 $-1 $232 $58 #
coedge $-1 $149 $149 $150 $233 reversed $91 $-1 #
coedge $-1 $150 $150 $149 $233 forward $93 $-1 #
coedge $-1 $151 $151 $94 $152 forward $146 $-1 #
edge $-1 $234 0 $234 6.2831853071796004 $151 $235 forward 7 unknown #
loop $-1 $-1 $158 $95 #
plane-surface $-1 -34.673143215630049 28.927181863621136 53.959133611383464 0.51503808176128008 0 0.85716729658548041 0.85716729658548041 0 -0.51503808176128008 forward_v I I I I #
loop $-1 $-1 $236 $61 #
coedge $-1 $156 $156 $157 $237 reversed $96 $-1 #
coedge $-1 $157 $157 $156 $237 forward $98 $-1 #
coedge $-1 $158 $158 $99 $159 forward $153 $-1 #
edge $-1 $238 0 $238 6.2831853071796004 $158 $239 forward 7 unknown #
face $-1 $240 $241 $24 $-1 $242 reversed single #
loop $-1 $-1 $243 $100 #
plane-surface $-1 -48.539078951384013 0 0 1 0 0 0 0 -1 forward_v I I I I #
coedge $-1 $244 $171 $245 $246 forward $101 $-1 #
coedge $-1 $247 $103 $244 $248 forward $65 $-1 #
coedge $-1 $103 $247 $249 $250 forward $65 $-1 #
coedge $-1 $174 $173 $103 $167 reversed $175 $-1 #
edge $-1 $251 -33.176987079762178 $252 33.176987079762178 $166 $253 forward 7 unknown #
coedge $-1 $105 $104 $254 $255 forward $41 $-1 #
coedge $-1 $256 $257 $104 $170 reversed $241 $-1 #
edge $-1 $177 -48.539078951384013 $258 48.539078951384013 $169 $259 forward 7 unknown #
coedge $-1 $163 $260 $105 $172 reversed $101 $-1 #
edge $-1 $261 -48.539078951384013 $176 48.539078951384013 $171 $262 forward 7 unknown #
coedge $-1 $166 $106 $260 $263 forward $175 $-1 #
coedge $-1 $106 $166 $256 $264 reversed $175 $-1 #
loop $-1 $-1 $173 $240 #
vertex $-1 $107 $265 #
vertex $-1 $107 $266 #
straight-curve $-1 48.539078951384013 0 12.37664531287237 0 1 0 I I #
face $-1 $267 $191 $25 $-1 $268 reversed single #
loop $-1 $-1 $269 $108 #
plane-surface $-1 -46.77374409623183 -49.105816850002149 0 0 1 0 0 0 1 forward_v I I I I #
coedge $-1 $270 $271 $186 $272 forward $109 $-1 #
coedge $-1 $273 $111 $271 $274 forward $69 $-1 #
coedge $-1 $111 $273 $189 $275 forward $69 $-1 #
edge $-1 $192 45.008409241079647 $276 48.539078951384013 $111 $277 forward 7 unknown #
coedge $-1 $113 $112 $182 $272 reversed $44 $-1 #
coedge $-1 $278 $279 $112 $188 forward $280 $-1 #
edge $-1 $281 -48.539078951384013 $193 -45.008409241079647 $187 $282 forward 7 unknown #
coedge $-1 $283 $114 $184 $275 reversed $191 $-1 #
coedge $-1 $114 $283 $278 $284 reversed $191 $-1 #
loop $-1 $-1 $283 $179 #
vertex $-1 $185 $285 #
vertex $-1 $284 $286 #
straight-curve $-1 -45.008409241079647 -33.176987079762178 0 0 0 -1 I I #
face $-1 $-1 $287 $26 $-1 $288 reversed single #
loop $-1 $-1 $122 $116 #
plane-surface $-1 0 0 12.37664531287237 0 0 1 1 0 0 forward_v I I I I #
coedge $-1 $289 $290 $291 $292 reversed $117 $-1 #
coedge $-1 $293 $119 $121 $205 forward $73 $-1 #
coedge $-1 $119 $293 $289 $294 forward $73 $-1 #
coedge $-1 $291 $122 $119 $202 forward $196 $-1 #
edge $-1 $208 -6.1071100506305172 $295 2.3925003816515655 $201 $296 forward 7 unknown #
coedge $-1 $297 $298 $120 $204 forward $287 $-1 #
edge $-1 $299 -64.625492504975597 $207 -56.209032576326393 $203 $300 forward 7 unknown #
edge $-1 $208 80.736725634561054 $299 97.078157902768027 $121 $301 forward 7 unknown #
coedge $-1 $122 $291 $297 $302 forward $196 $-1 #
vertex $-1 $204 $303 #
vertex $-1 $123 $304 #
straight-curve $-1 7.6629025057651248 7.964414885119993 12.37664531287237 -1 0 0 I I #
coedge $-1 $210 $210 $-1 $305 reversed $126 $-1 #
edge $-1 $306 0 $306 6.2831853071796004 $127 $307 forward 7 unknown #
vertex $-1 $130 $308 #
ellipse-curve $-1 41.535408291547157 1.8932645763470788 8.1684153485477715 0.51503808176128008 0 0.85716729658548041 0.85716729658548041 0 -0.51503808176128008 1 I I #
coedge $-1 $214 $214 $-1 $309 reversed $133 $-1 #
edge $-1 $310 0 $310 6.2831853071796004 $134 $311 forward 7 unknown #
vertex $-1 $137 $312 #
ellipse-curve $-1 41.535408291547157 5.5359547616108244 8.1684153485477715 0.51503808176128008 0 0.85716729658548041 0.85716729658548041 0 -0.51503808176128008 1 I I #
face $-1 $-1 $313 $29 $-1 $314 forward single #
loop $-1 $-1 $315 $138 #
plane-surface $-1 0 33.176987079762178 0 0 -1 0 0 0 -1 forward_v I I I I #
coedge $-1 $316 $141 $143 $227 forward $87 $-1 #
coedge $-1 $141 $316 $315 $317 reversed $87 $-1 #
coedge $-1 $318 $144 $141 $224 forward $139 $-1 #
edge $-1 $230 10.213785715669527 $319 18.71339614795161 $223 $320 forward 7 unknown #
coedge $-1 $321 $322 $142 $226 forward $313 $-1 #
edge $-1 $323 26.868835125945175 $229 40.876176445618889 $225 $324 forward 7 unknown #
edge $-1 $230 -97.078157902768027 $323 -80.736725634561054 $143 $325 forward 7 unknown #
coedge $-1 $144 $318 $321 $326 reversed $139 $-1 #
vertex $-1 $326 $327 #
vertex $-1 $145 $328 #
straight-curve $-1 48.539078951384013 24.677376647480095 68.585677889198763 0 0 -1 I I #
coedge $-1 $232 $232 $-1 $329 reversed $148 $-1 #
edge $-1 $330 0 $330 6.2831853071796004 $149 $331 forward 7 unknown #
vertex $-1 $152 $332 #
ellipse-curve $-1 41.535408291547157 27.105836770989264 8.1684153485477715 0.51503808176128008 0 0.85716729658548041 0.85716729658548041 0 -0.51503808176128008 1 I I #
coedge $-1 $236 $236 $-1 $333 reversed $155 $-1 #
edge $-1 $334 0 $334 6.2831853071796004 $156 $335 forward 7 unknown #
vertex $-1 $159 $336 #
ellipse-curve $-1 41.535408291547157 30.748526956253009 8.1684153485477715 0.51503808176128008 0 0.85716729658548041 0.85716729658548041 0 -0.51503808176128008 1 I I #
face $-1 $-1 $175 $24 $-1 $337 reversed single #
loop $-1 $-1 $256 $160 #
plane-surface $-1 0 33.176987079762178 0 0 -1 0 0 0 -1 forward_v I I I I #
coedge $-1 $338 $254 $257 $339 forward $161 $-1 #
coedge $-1 $260 $163 $164 $248 reversed $101 $-1 #
coedge $-1 $254 $338 $163 $246 reversed $161 $-1 #
edge $-1 $261 -12.37664531287237 $340 12.37664531287237 $245 $341 forward 7 unknown #
coedge $-1 $165 $164 $338 $342 forward $65 $-1 #
edge $-1 $252 -48.539078951384013 $340 48.539078951384013 $244 $343 forward 7 unknown #
coedge $-1 $257 $256 $165 $250 reversed $241 $-1 #
edge $-1 $344 -48.539078951384013 $251 48.539078951384013 $249 $345 forward 7 unknown #
vertex $-1 $167 $346 #
vertex $-1 $263 $347 #
straight-curve $-1 48.539078951384013 0 -12.37664531287237 0 -1 0 I I #
coedge $-1 $243 $245 $168 $255 reversed $161 $-1 #
edge $-1 $258 -33.176987079762178 $261 33.176987079762178 $254 $348 forward 7 unknown #
coedge $-1 $249 $169 $174 $264 forward $241 $-1 #
coedge $-1 $169 $249 $243 $339 reversed $241 $-1 #
vertex $-1 $170 $349 #
straight-curve $-1 0 33.176987079762178 12.37664531287237 -1 0 0 I I #
coedge $-1 $171 $244 $173 $263 reversed $101 $-1 #
vertex $-1 $255 $350 #
straight-curve $-1 0 -33.176987079762178 12.37664531287237 1 0 0 I I #
edge $-1 $176 -12.37664531287237 $252 12.37664531287237 $173 $351 forward 7 unknown #
edge $-1 $177 -12.37664531287237 $251 12.37664531287237 $174 $352 forward 7 unknown #
point $-1 48.539078951384013 -33.176987079762178 12.37664531287237 #
point $-1 48.539078951384013 33.176987079762178 12.37664531287237 #
face $-1 $-1 $280 $25 $-1 $353 reversed single #
plane-surface $-1 -45.008409241079647 -41.141401964882164 0 -1 0 0 0 0 1 forward_v I I I I #
coedge $-1 $354 $355 $356 $357 forward $180 $-1 #
coedge $-1 $356 $182 $279 $358 reversed $109 $-1 #
coedge $-1 $182 $356 $183 $274 reversed $109 $-1 #
edge $-1 $276 -12.37664531287237 $281 12.37664531287237 $182 $359 forward 7 unknown #
coedge $-1 $184 $183 $355 $360 forward $69 $-1 #
edge $-1 $276 33.176987079762178 $361 49.105816850002149 $271 $362 forward 7 unknown #
edge $-1 $363 -7.9644148851199859 $192 7.9644148851199859 $189 $364 forward 7 unknown #
vertex $-1 $274 $365 #
straight-curve $-1 0 -33.176987079762178 12.37664531287237 -1 0 0 I I #
coedge $-1 $366 $187 $190 $284 forward $280 $-1 #
coedge $-1 $187 $366 $270 $358 forward $280 $-1 #
loop $-1 $-1 $187 $267 #
vertex $-1 $272 $367 #
straight-curve $-1 0 -33.176987079762178 -12.37664531287237 1 0 0 I I #
coedge $-1 $190 $189 $368 $369 forward $191 $-1 #
edge $-1 $193 -7.9644148851199859 $370 7.9644148851199859 $190 $371 forward 7 unknown #
point $-1 -45.008409241079647 -33.176987079762178 12.37664531287237 #
point $-1 -45.008409241079647 -33.176987079762178 -12.37664531287237 #
loop $-1 $-1 $203 $195 #
plane-surface $-1 48.539078951384013 0 0 -1 0 0 0 0 1 forward_v I I I I #
coedge $-1 $290 $198 $200 $294 reversed $117 $-1 #
coedge $-1 $198 $289 $372 $373 reversed $117 $-1 #
coedge $-1 $206 $201 $198 $292 forward $196 $-1 #
edge $-1 $295 26.868835125945175 $374 40.876176445618889 $291 $375 forward 7 unknown #
coedge $-1 $200 $199 $298 $376 reversed $73 $-1 #
edge $-1 $377 -97.078157902768027 $295 -80.736725634561054 $289 $378 forward 7 unknown #
vertex $-1 $202 $379 #
straight-curve $-1 34.531737631710307 1.8573048344894758 12.37664531287237 0 -1 0 I I #
coedge $-1 $372 $203 $206 $302 reversed $287 $-1 #
coedge $-1 $203 $372 $293 $376 forward $287 $-1 #
vertex $-1 $204 $380 #
straight-curve $-1 48.539078951384013 7.964414885119993 68.585677889198763 0 0 1 I I #
straight-curve $-1 -34.673143215630049 7.964414885119993 53.959133611383464 0.85716729658548041 0 -0.51503808176128008 I I #
edge $-1 $374 -0.53519554716208972 $207 7.964414885119993 $297 $381 forward 7 unknown #
point $-1 48.539078951384013 7.964414885119993 12.37664531287237 #
point $-1 34.5317376317103 7.964414885119993 12.37664531287237 #
edge $-1 $382 1 $382 0 $210 $-1 forward 7 unknown #
vertex $-1 $211 $383 #
ellipse-curve $-1 40.935491959060727 1.8932645763470788 7.169986923340157 0.51503808176128008 0 0.85716729658548041 0.85716729658548041 0 -0.51503808176128008 1 I I #
point $-1 42.392575588132637 1.8932645763470788 7.6533772667864941 #
edge $-1 $384 1 $384 0 $214 $-1 forward 7 unknown #
vertex $-1 $215 $385 #
ellipse-curve $-1 40.935491959060727 5.5359547616108244 7.169986923340157 0.51503808176128008 0 0.85716729658548041 0.85716729658548041 0 -0.51503808176128008 1 I I #
point $-1 42.392575588132637 5.5359547616108244 7.6533772667864941 #
loop $-1 $-1 $225 $218 #
plane-surface $-1 0 0 12.37664531287237 0 0 1 1 0 0 forward_v I I I I #
coedge $-1 $386 $387 $222 $317 forward $219 $-1 #
coedge $-1 $222 $221 $322 $388 reversed $87 $-1 #
edge $-1 $319 -68.322311351282849 $389 -51.98087908307587 $315 $390 forward 7 unknown #
coedge $-1 $228 $223 $387 $391 reversed $139 $-1 #
vertex $-1 $317 $392 #
straight-curve $-1 48.539078951384013 14.463590931810568 3.9601853842231698 0 1 0 I I #
coedge $-1 $393 $225 $228 $326 forward $313 $-1 #
coedge $-1 $225 $393 $316 $388 forward $313 $-1 #
vertex $-1 $226 $394 #
straight-curve $-1 7.6629025057651248 24.677376647480095 12.37664531287237 1 0 0 I I #
straight-curve $-1 -34.673143215630049 24.677376647480095 53.959133611383464 -0.85716729658548041 0 0.51503808176128008 I I #
edge $-1 $229 24.677376647480095 $395 33.176987079762178 $228 $396 forward 7 unknown #
point $-1 48.539078951384013 24.677376647480095 12.37664531287237 #
point $-1 48.539078951384013 24.677376647480095 3.9601853842231662 #
edge $-1 $397 1 $397 0 $232 $-1 forward 7 unknown #
vertex $-1 $233 $398 #
ellipse-curve $-1 40.935491959060727 27.105836770989264 7.169986923340157 0.51503808176128008 0 0.85716729658548041 0.85716729658548041 0 -0.51503808176128008 1 I I #
point $-1 42.392575588132637 27.105836770989264 7.6533772667864941 #
edge $-1 $399 1 $399 0 $236 $-1 forward 7 unknown #
vertex $-1 $237 $400 #
ellipse-curve $-1 40.935491959060727 30.748526956253009 7.169986923340157 0.51503808176128008 0 0.85716729658548041 0.85716729658548041 0 -0.51503808176128008 1 I I #
point $-1 42.392575588132637 30.748526956253009 7.6533772667864941 #
plane-surface $-1 48.539078951384013 0 0 -1 0 0 0 0 1 forward_v I I I I #
coedge $-1 $245 $243 $247 $342 reversed $161 $-1 #
edge $-1 $258 -12.37664531287237 $344 12.37664531287237 $257 $401 forward 7 unknown #
vertex $-1 $342 $402 #
straight-curve $-1 -48.539078951384013 -33.176987079762178 0 0 0 -1 I I #
edge $-1 $340 -33.176987079762178 $344 33.176987079762178 $338 $403 forward 7 unknown #
straight-curve $-1 0 -33.176987079762178 -12.37664531287237 -1 0 0 I I #
vertex $-1 $250 $404 #
straight-curve $-1 0 33.176987079762178 -12.37664531287237 1 0 0 I I #
point $-1 48.539078951384013 33.176987079762178 -12.37664531287237 #
point $-1 48.539078951384013 -33.176987079762178 -12.37664531287237 #
straight-curve $-1 -48.539078951384013 0 12.37664531287237 0 -1 0 I I #
point $-1 -48.539078951384013 33.176987079762178 12.37664531287237 #
point $-1 -48.539078951384013 -33.176987079762178 12.37664531287237 #
straight-curve $-1 48.539078951384013 -33.176987079762178 0 0 0 -1 I I #
straight-curve $-1 48.539078951384013 33.176987079762178 0 0 0 -1 I I #
plane-surface $-1 0 0 -12.37664531287237 0 0 1 1 0 0 forward_v I I I I #
coedge $-1 $368 $269 $366 $405 reversed $180 $-1 #
coedge $-1 $269 $368 $273 $360 reversed $180 $-1 #
coedge $-1 $271 $270 $269 $357 reversed $109 $-1 #
edge $-1 $361 -12.37664531287237 $406 12.37664531287237 $356 $407 forward 7 unknown #
edge $-1 $406 -49.105816850002149 $281 -33.176987079762178 $270 $408 forward 7 unknown #
straight-curve $-1 -48.539078951384013 -33.176987079762178 0 0 0 -1 I I #
edge $-1 $361 -1.765334855152183 $363 1.765334855152183 $355 $409 forward 7 unknown #
vertex $-1 $274 $410 #
straight-curve $-1 -48.539078951384013 0 12.37664531287237 0 -1 0 I I #
vertex $-1 $275 $411 #
straight-curve $-1 -45.008409241079647 -41.141401964882164 12.37664531287237 0 1 0 I I #
point $-1 -48.539078951384013 -33.176987079762178 12.37664531287237 #
coedge $-1 $279 $278 $354 $405 forward $280 $-1 #
point $-1 -48.539078951384013 -33.176987079762178 -12.37664531287237 #
coedge $-1 $355 $354 $283 $369 reversed $180 $-1 #
edge $-1 $363 -12.37664531287237 $370 12.37664531287237 $283 $412 forward 7 unknown #
vertex $-1 $369 $413 #
straight-curve $-1 -45.008409241079647 -41.141401964882164 -12.37664531287237 0 -1 0 I I #
coedge $-1 $298 $297 $290 $373 forward $287 $-1 #
edge $-1 $374 56.209032576326393 $377 64.625492504975597 $372 $414 forward 7 unknown #
vertex $-1 $302 $415 #
straight-curve $-1 7.6629025057651248 -0.53519554716208972 12.37664531287237 1 0 0 I I #
edge $-1 $377 -2.3925003816515655 $299 6.1071100506305172 $298 $416 forward 7 unknown #
vertex $-1 $376 $417 #
straight-curve $-1 -34.673143215630049 -0.53519554716208972 53.959133611383464 -0.85716729658548041 0 0.51503808176128008 I I #
point $-1 34.5317376317103 -0.53519554716208972 12.37664531287237 #
point $-1 48.539078951384013 7.964414885119993 3.9601853842231662 #
straight-curve $-1 48.539078951384013 0 12.37664531287237 0 1 0 I I #
vertex $-1 $305 $418 #
point $-1 41.792659255646207 1.8932645763470788 6.6549488415788769 #
vertex $-1 $309 $419 #
point $-1 41.792659255646207 5.5359547616108244 6.6549488415788769 #
coedge $-1 $387 $315 $393 $420 reversed $219 $-1 #
coedge $-1 $315 $386 $318 $391 forward $219 $-1 #
edge $-1 $389 -18.71339614795161 $323 -10.213785715669527 $322 $421 forward 7 unknown #
vertex $-1 $317 $422 #
straight-curve $-1 -10.024571966066588 33.176987079762178 39.148777564084817 -0.85716729658548041 0 0.51503808176128008 I I #
edge $-1 $395 -12.37664531287237 $319 -3.9601853842231738 $318 $423 forward 7 unknown #
point $-1 48.539078951384013 33.176987079762178 3.9601853842231738 #
coedge $-1 $322 $321 $386 $420 forward $313 $-1 #
point $-1 34.5317376317103 24.677376647480095 12.37664531287237 #
vertex $-1 $326 $424 #
straight-curve $-1 48.539078951384013 0 12.37664531287237 0 1 0 I I #
vertex $-1 $329 $425 #
point $-1 41.792659255646207 27.105836770989264 6.6549488415788769 #
vertex $-1 $333 $426 #
point $-1 41.792659255646207 30.748526956253009 6.6549488415788769 #
straight-curve $-1 -48.539078951384013 33.176987079762178 0 0 0 -1 I I #
point $-1 -48.539078951384013 -33.176987079762178 -12.37664531287237 #
straight-curve $-1 -48.539078951384013 0 -12.37664531287237 0 1 0 I I #
point $-1 -48.539078951384013 33.176987079762178 -12.37664531287237 #
edge $-1 $370 -1.765334855152183 $406 1.765334855152183 $354 $427 forward 7 unknown #
vertex $-1 $358 $428 #
straight-curve $-1 -48.539078951384013 -49.105816850002149 0 0 0 -1 I I #
straight-curve $-1 -48.539078951384013 0 -12.37664531287237 0 1 0 I I #
straight-curve $-1 -46.77374409623183 -49.105816850002149 12.37664531287237 1 0 0 I I #
point $-1 -48.539078951384013 -49.105816850002149 12.37664531287237 #
point $-1 -45.008409241079647 -49.105816850002149 12.37664531287237 #
straight-curve $-1 -45.008409241079647 -49.105816850002149 0 0 0 -1 I I #
point $-1 -45.008409241079647 -49.105816850002149 -12.37664531287237 #
straight-curve $-1 48.539078951384013 -0.53519554716208972 68.585677889198763 0 0 -1 I I #
point $-1 48.539078951384013 -0.53519554716208972 12.37664531287237 #
straight-curve $-1 48.539078951384013 1.8573048344894758 3.9601853842231698 0 1 0 I I #
point $-1 48.539078951384013 -0.53519554716208972 3.9601853842231662 #
point $-1 40.420453877299451 1.8932645763470788 6.3128196267546786 #
point $-1 40.420453877299451 5.5359547616108244 6.3128196267546786 #
edge $-1 $395 -48.539078951384013 $389 -34.5317376317103 $386 $429 forward 7 unknown #
straight-curve $-1 34.531737631710307 14.463590931810568 12.37664531287237 0 -1 0 I I #
point $-1 34.5317376317103 33.176987079762178 12.37664531287237 #
straight-curve $-1 48.539078951384013 33.176987079762178 0 0 0 -1 I I #
point $-1 48.539078951384013 33.176987079762178 12.37664531287237 #
point $-1 40.420453877299451 27.105836770989264 6.3128196267546786 #
point $-1 40.420453877299451 30.748526956253009 6.3128196267546786 #
straight-curve $-1 -46.77374409623183 -49.105816850002149 -12.37664531287237 -1 0 0 I I #
point $-1 -48.539078951384013 -49.105816850002149 -12.37664531287237 #
straight-curve $-1 0 33.176987079762178 12.37664531287237 -1 0 0 I I #
End-of-ACIS-data 