500 0 14 0           
7 Unknown 11 ACIS 5.0 NT 24 Fri Mar 26 18:54:31 1999 
-1 9.9999999999999995e-007 1e-010 
body $-1 $14 $-1 $15 #
body $-1 $16 $-1 $17 #
body $-1 $18 $-1 $19 #
body $-1 $20 $-1 $21 #
body $-1 $22 $-1 $23 #
body $-1 $24 $-1 $25 #
body $-1 $26 $-1 $27 #
body $-1 $28 $-1 $29 #
body $-1 $30 $-1 $31 #
body $-1 $32 $-1 $33 #
body $-1 $34 $-1 $35 #
body $-1 $36 $-1 $37 #
body $-1 $38 $-1 $39 #
body $-1 $40 $-1 $41 #
lump $-1 $-1 $42 $0 #
transform $-1 1 0 0 0 1 0 0 0 1 66.029847102267524 35.163860864585047 14.416571259765893 1 rotate no_reflect no_shear #
lump $-1 $-1 $43 $1 #
transform $-1 1 0 0 0 1 0 0 0 1 66.029847102267524 5.7642218556080413 3.0367325813174895 1 rotate no_reflect no_shear #
lump $-1 $-1 $44 $2 #
transform $-1 0.70710677298230451 0 -0.70710678939079041 0 1 0 0.70710678939079041 0 0.70710677298230451 132.05969637143471 33.880670605107483 208.24272488010493 1 rotate no_reflect no_shear #
lump $-1 $-1 $45 $3 #
transform $-1 0.70710677298230451 0 -0.70710678939079041 0 -1 0 -0.70710678939079041 0 -0.70710677298230451 126.72040647745891 29.122324824289695 23.493854745772992 1 rotate no_reflect no_shear #
lump $-1 $-1 $46 $4 #
transform $-1 0.70710677298230451 0 -0.70710678939079041 0 -1 0 -0.70710678939079041 0 -0.70710677298230451 126.72040647745891 33.880670605107483 23.493854745772992 1 rotate no_reflect no_shear #
lump $-1 $-1 $47 $5 #
transform $-1 0.70710677298230451 0 -0.70710678939079041 0 -1 0 -0.70710678939079041 0 -0.70710677298230451 126.72040647745891 38.639016385925267 23.493854745772992 1 rotate no_reflect no_shear #
lump $-1 $-1 $48 $6 #
transform $-1 0.81915203911291934 0 0.57357644374324357 0 1 0 -0.57357644374324357 0 0.81915203911291934 -75.746329763657442 29.068295245904739 124.33910691029389 1 rotate no_reflect no_shear #
lump $-1 $-1 $49 $7 #
transform $-1 0.81915203911291934 0 0.57357644374324357 0 -1 0 0.57357644374324357 0 -0.81915203911291934 9.7650045065414748 25.491824335458798 21.473700769884967 1 rotate no_reflect no_shear #
lump $-1 $-1 $50 $8 #
transform $-1 0.81915203911291934 0 0.57357644374324357 0 -1 0 0.57357644374324357 0 -0.81915203911291934 9.7650045065414748 29.068295245904736 21.473700769884967 1 rotate no_reflect no_shear #
lump $-1 $-1 $51 $9 #
transform $-1 0.81915203911291934 0 0.57357644374324357 0 -1 0 0.57357644374324357 0 -0.81915203911291934 9.7650045065414748 32.644766156350677 21.473700769884967 1 rotate no_reflect no_shear #
lump $-1 $-1 $52 $10 #
transform $-1 0.81915203911291934 0 0.57357644374324357 0 1 0 -0.57357644374324357 0 0.81915203911291934 -75.746329763657442 52.787870194481442 124.33910691029389 1 rotate no_reflect no_shear #
lump $-1 $-1 $53 $11 #
transform $-1 0.81915203911291934 0 0.57357644374324357 0 -1 0 0.57357644374324357 0 -0.81915203911291934 9.7650045065414748 49.211399284035494 21.473700769884967 1 rotate no_reflect no_shear #
lump $-1 $-1 $54 $12 #
transform $-1 0.81915203911291934 0 0.57357644374324357 0 -1 0 0.57357644374324357 0 -0.81915203911291934 9.7650045065414748 52.787870194481435 21.473700769884967 1 rotate no_reflect no_shear #
lump $-1 $-1 $55 $13 #
transform $-1 0.81915203911291934 0 0.57357644374324357 0 -1 0 0.57357644374324357 0 -0.81915203911291934 9.7650045065414748 56.364341104927377 21.473700769884967 1 rotate no_reflect no_shear #
shell $-1 $-1 $-1 $56 $-1 $14 #
shell $-1 $-1 $-1 $57 $-1 $16 #
shell $-1 $-1 $-1 $58 $-1 $18 #
shell $-1 $-1 $-1 $59 $-1 $20 #
shell $-1 $-1 $-1 $60 $-1 $22 #
shell $-1 $-1 $-1 $61 $-1 $24 #
shell $-1 $-1 $-1 $62 $-1 $26 #
shell $-1 $-1 $-1 $63 $-1 $28 #
shell $-1 $-1 $-1 $64 $-1 $30 #
shell $-1 $-1 $-1 $65 $-1 $32 #
shell $-1 $-1 $-1 $66 $-1 $34 #
shell $-1 $-1 $-1 $67 $-1 $36 #
shell $-1 $-1 $-1 $68 $-1 $38 #
shell $-1 $-1 $-1 $69 $-1 $40 #
face $-1 $70 $71 $42 $-1 $72 forward single #
face $-1 $73 $74 $43 $-1 $75 forward single #
face $-1 $76 $77 $44 $-1 $78 forward single #
face $-1 $79 $80 $45 $-1 $81 forward single #
face $-1 $82 $83 $46 $-1 $84 forward single #
face $-1 $85 $86 $47 $-1 $87 forward single #
face $-1 $88 $89 $48 $-1 $90 forward single #
face $-1 $91 $92 $49 $-1 $93 forward single #
face $-1 $94 $95 $50 $-1 $96 forward single #
face $-1 $97 $98 $51 $-1 $99 forward single #
face $-1 $100 $101 $52 $-1 $102 forward single #
face $-1 $103 $104 $53 $-1 $105 forward single #
face $-1 $106 $107 $54 $-1 $108 forward single #
face $-1 $109 $110 $55 $-1 $111 forward single #
face $-1 $112 $113 $42 $-1 $114 reversed single #
loop $-1 $-1 $115 $56 #
plane-surface $-1 0 0 14.416571259765893 0 0 1 1 0 0 forward_v I I I I #
face $-1 $116 $117 $43 $-1 $118 reversed single #
loop $-1 $-1 $119 $57 #
plane-surface $-1 0 0 3.0367325813174895 0 0 1 1 0 0 forward_v I I I I #
face $-1 $120 $121 $44 $-1 $122 reversed single #
loop $-1 $-1 $123 $58 #
plane-surface $-1 0 0 132.05969420453505 0 0 1 1 0 0 forward_v I I I I #
face $-1 $124 $125 $45 $-1 $126 forward single #
loop $-1 $127 $128 $59 #
cone-surface $-1 0 0 -1.4264656514175833 0 0 1 1 0 0 1 I I 0 1 1 forward I I I I #
face $-1 $129 $130 $46 $-1 $131 forward single #
loop $-1 $132 $133 $60 #
cone-surface $-1 0 0 -1.4264656514175833 0 0 1 1 0 0 1 I I 0 1 1 forward I I I I #
face $-1 $134 $135 $47 $-1 $136 forward single #
loop $-1 $137 $138 $61 #
cone-surface $-1 0 0 -1.4264656514175833 0 0 1 1 0 0 1 I I 0 1 1 forward I I I I #
face $-1 $139 $140 $48 $-1 $141 reversed single #
loop $-1 $-1 $142 $62 #
plane-surface $-1 0 0 132.05969420453505 0 0 1 1 0 0 forward_v I I I I #
face $-1 $143 $144 $49 $-1 $145 forward single #
loop $-1 $146 $147 $63 #
cone-surface $-1 0 0 -0.75 0 0 1 0.5 0 0 1 I I 0 1 0.5 forward I I I I #
face $-1 $148 $149 $50 $-1 $150 forward single #
loop $-1 $151 $152 $64 #
cone-surface $-1 0 0 -0.75 0 0 1 0.5 0 0 1 I I 0 1 0.5 forward I I I I #
face $-1 $153 $154 $51 $-1 $155 forward single #
loop $-1 $156 $157 $65 #
cone-surface $-1 0 0 -0.75 0 0 1 0.5 0 0 1 I I 0 1 0.5 forward I I I I #
face $-1 $158 $159 $52 $-1 $160 reversed single #
loop $-1 $-1 $161 $66 #
plane-surface $-1 0 0 132.05969420453505 0 0 1 1 0 0 forward_v I I I I #
face $-1 $162 $163 $53 $-1 $164 forward single #
loop $-1 $165 $166 $67 #
cone-surface $-1 0 0 -0.75 0 0 1 0.5 0 0 1 I I 0 1 0.5 forward I I I I #
face $-1 $167 $168 $54 $-1 $169 forward single #
loop $-1 $170 $171 $68 #
cone-surface $-1 0 0 -0.75 0 0 1 0.5 0 0 1 I I 0 1 0.5 forward I I I I #
face $-1 $172 $173 $55 $-1 $174 forward single #
loop $-1 $175 $176 $69 #
cone-surface $-1 0 0 -0.75 0 0 1 0.5 0 0 1 I I 0 1 0.5 forward I I I I #
face $-1 $177 $178 $42 $-1 $179 reversed single #
loop $-1 $-1 $180 $70 #
plane-surface $-1 0 0 -14.416571259765893 0 0 1 1 0 0 forward_v I I I I #
coedge $-1 $181 $182 $183 $184 forward $71 $-1 #
face $-1 $185 $186 $43 $-1 $187 reversed single #
loop $-1 $-1 $188 $73 #
plane-surface $-1 0 0 -3.0367325813174895 0 0 1 1 0 0 forward_v I I I I #
coedge $-1 $189 $190 $191 $192 forward $74 $-1 #
face $-1 $193 $194 $44 $-1 $195 reversed single #
loop $-1 $-1 $196 $76 #
plane-surface $-1 0 0 -132.05969420453505 0 0 1 1 0 0 forward_v I I I I #
coedge $-1 $197 $198 $199 $200 forward $77 $-1 #
face $-1 $-1 $201 $45 $-1 $202 forward single #
loop $-1 $-1 $203 $79 #
plane-surface $-1 0 0 -2.3529313028351684 0 0 -1 -1 0 0 forward_v I I I I #
loop $-1 $-1 $204 $59 #
coedge $-1 $128 $128 $203 $205 reversed $80 $-1 #
face $-1 $-1 $206 $46 $-1 $207 forward single #
loop $-1 $-1 $208 $82 #
plane-surface $-1 0 0 -2.3529313028351684 0 0 -1 -1 0 0 forward_v I I I I #
loop $-1 $-1 $209 $60 #
coedge $-1 $133 $133 $208 $210 reversed $83 $-1 #
face $-1 $-1 $211 $47 $-1 $212 forward single #
loop $-1 $-1 $213 $85 #
plane-surface $-1 0 0 -2.3529313028351684 0 0 -1 -1 0 0 forward_v I I I I #
loop $-1 $-1 $214 $61 #
coedge $-1 $138 $138 $213 $215 reversed $86 $-1 #
face $-1 $216 $217 $48 $-1 $218 reversed single #
loop $-1 $-1 $219 $88 #
plane-surface $-1 0 0 -132.05969420453505 0 0 1 1 0 0 forward_v I I I I #
coedge $-1 $220 $221 $222 $223 forward $89 $-1 #
face $-1 $-1 $224 $49 $-1 $225 forward single #
loop $-1 $-1 $226 $91 #
plane-surface $-1 0 0 -1.25 0 0 -1 -1 0 0 forward_v I I I I #
loop $-1 $-1 $227 $63 #
coedge $-1 $147 $147 $226 $228 reversed $92 $-1 #
face $-1 $-1 $229 $50 $-1 $230 forward single #
loop $-1 $-1 $231 $94 #
plane-surface $-1 0 0 -1.25 0 0 -1 -1 0 0 forward_v I I I I #
loop $-1 $-1 $232 $64 #
coedge $-1 $152 $152 $231 $233 reversed $95 $-1 #
face $-1 $-1 $234 $51 $-1 $235 forward single #
loop $-1 $-1 $236 $97 #
plane-surface $-1 0 0 -1.25 0 0 -1 -1 0 0 forward_v I I I I #
loop $-1 $-1 $237 $65 #
coedge $-1 $157 $157 $236 $238 reversed $98 $-1 #
face $-1 $239 $240 $52 $-1 $241 reversed single #
loop $-1 $-1 $242 $100 #
plane-surface $-1 0 0 -132.05969420453505 0 0 1 1 0 0 forward_v I I I I #
coedge $-1 $243 $244 $245 $246 forward $101 $-1 #
face $-1 $-1 $247 $53 $-1 $248 forward single #
loop $-1 $-1 $249 $103 #
plane-surface $-1 0 0 -1.25 0 0 -1 -1 0 0 forward_v I I I I #
loop $-1 $-1 $250 $67 #
coedge $-1 $166 $166 $249 $251 reversed $104 $-1 #
face $-1 $-1 $252 $54 $-1 $253 forward single #
loop $-1 $-1 $254 $106 #
plane-surface $-1 0 0 -1.25 0 0 -1 -1 0 0 forward_v I I I I #
loop $-1 $-1 $255 $68 #
coedge $-1 $171 $171 $254 $256 reversed $107 $-1 #
face $-1 $-1 $257 $55 $-1 $258 forward single #
loop $-1 $-1 $259 $109 #
plane-surface $-1 0 0 -1.25 0 0 -1 -1 0 0 forward_v I I I I #
loop $-1 $-1 $260 $69 #
coedge $-1 $176 $176 $259 $261 reversed $110 $-1 #
face $-1 $262 $263 $42 $-1 $264 reversed single #
loop $-1 $-1 $265 $112 #
plane-surface $-1 0 -35.163860864585047 0 0 1 0 0 0 1 forward_v I I I I #
coedge $-1 $266 $267 $268 $269 forward $113 $-1 #
coedge $-1 $270 $115 $271 $272 forward $71 $-1 #
coedge $-1 $115 $270 $273 $274 forward $71 $-1 #
coedge $-1 $275 $276 $115 $184 reversed $277 $-1 #
edge $-1 $278 -35.163860864585047 $279 35.163860864585047 $183 $280 forward 7 unknown #
face $-1 $281 $282 $43 $-1 $283 reversed single #
loop $-1 $-1 $284 $116 #
plane-surface $-1 0 -5.7642218556080413 0 0 1 0 0 0 1 forward_v I I I I #
coedge $-1 $285 $286 $287 $288 forward $117 $-1 #
coedge $-1 $289 $119 $290 $291 forward $74 $-1 #
coedge $-1 $119 $289 $292 $293 forward $74 $-1 #
coedge $-1 $294 $295 $119 $192 reversed $296 $-1 #
edge $-1 $297 -5.7642218556080413 $298 5.7642218556080413 $191 $299 forward 7 unknown #
face $-1 $300 $301 $44 $-1 $302 reversed single #
loop $-1 $-1 $303 $120 #
plane-surface $-1 0 -7.9305763013629722 0 0 1 0 0 0 1 forward_v I I I I #
coedge $-1 $304 $305 $306 $307 forward $121 $-1 #
coedge $-1 $308 $123 $309 $310 forward $77 $-1 #
coedge $-1 $123 $308 $311 $312 forward $77 $-1 #
coedge $-1 $313 $314 $123 $200 reversed $315 $-1 #
edge $-1 $316 -7.9305763013629722 $317 7.9305763013629722 $199 $318 forward 7 unknown #
loop $-1 $319 $320 $124 #
cone-surface $-1 0 0 0 0 0 1 0.5 0 0 1 I I -0.70710678118654746 0.70710678118654746 0.5 forward I I I I #
coedge $-1 $203 $203 $128 $205 forward $125 $-1 #
coedge $-1 $204 $204 $320 $321 forward $127 $-1 #
edge $-1 $322 0 $322 6.2831853071796004 $203 $323 forward 7 unknown #
loop $-1 $324 $325 $129 #
cone-surface $-1 0 0 0 0 0 1 0.5 0 0 1 I I -0.70710678118654746 0.70710678118654746 0.5 forward I I I I #
coedge $-1 $208 $208 $133 $210 forward $130 $-1 #
coedge $-1 $209 $209 $325 $326 forward $132 $-1 #
edge $-1 $327 0 $327 6.2831853071796004 $208 $328 forward 7 unknown #
loop $-1 $329 $330 $134 #
cone-surface $-1 0 0 0 0 0 1 0.5 0 0 1 I I -0.70710678118654746 0.70710678118654746 0.5 forward I I I I #
coedge $-1 $213 $213 $138 $215 forward $135 $-1 #
coedge $-1 $214 $214 $330 $331 forward $137 $-1 #
edge $-1 $332 0 $332 6.2831853071796004 $213 $333 forward 7 unknown #
face $-1 $334 $335 $48 $-1 $336 reversed single #
loop $-1 $-1 $337 $139 #
plane-surface $-1 0 -5.9607848507432344 0 0 1 0 0 0 1 forward_v I I I I #
coedge $-1 $338 $339 $340 $341 forward $140 $-1 #
coedge $-1 $342 $142 $343 $344 forward $89 $-1 #
coedge $-1 $142 $342 $345 $346 forward $89 $-1 #
coedge $-1 $347 $348 $142 $223 reversed $349 $-1 #
edge $-1 $350 -5.9607848507432344 $351 5.9607848507432344 $222 $352 forward 7 unknown #
loop $-1 $353 $354 $143 #
cone-surface $-1 0 0 0 0 0 1 0.25 0 0 1 I I -0.70710678118654746 0.70710678118654746 0.25 forward I I I I #
coedge $-1 $226 $226 $147 $228 forward $144 $-1 #
coedge $-1 $227 $227 $354 $355 forward $146 $-1 #
edge $-1 $356 0 $356 6.2831853071796004 $226 $357 forward 7 unknown #
loop $-1 $358 $359 $148 #
cone-surface $-1 0 0 0 0 0 1 0.25 0 0 1 I I -0.70710678118654746 0.70710678118654746 0.25 forward I I I I #
coedge $-1 $231 $231 $152 $233 forward $149 $-1 #
coedge $-1 $232 $232 $359 $360 forward $151 $-1 #
edge $-1 $361 0 $361 6.2831853071796004 $231 $362 forward 7 unknown #
loop $-1 $363 $364 $153 #
cone-surface $-1 0 0 0 0 0 1 0.25 0 0 1 I I -0.70710678118654746 0.70710678118654746 0.25 forward I I I I #
coedge $-1 $236 $236 $157 $238 forward $154 $-1 #
coedge $-1 $237 $237 $364 $365 forward $156 $-1 #
edge $-1 $366 0 $366 6.2831853071796004 $236 $367 forward 7 unknown #
face $-1 $368 $369 $52 $-1 $370 reversed single #
loop $-1 $-1 $371 $158 #
plane-surface $-1 0 -5.9607848507432344 0 0 1 0 0 0 1 forward_v I I I I #
coedge $-1 $372 $373 $374 $375 forward $159 $-1 #
coedge $-1 $376 $161 $377 $378 forward $101 $-1 #
coedge $-1 $161 $376 $379 $380 forward $101 $-1 #
coedge $-1 $381 $382 $161 $246 reversed $383 $-1 #
edge $-1 $384 -5.9607848507432344 $385 5.9607848507432344 $245 $386 forward 7 unknown #
loop $-1 $387 $388 $162 #
cone-surface $-1 0 0 0 0 0 1 0.25 0 0 1 I I -0.70710678118654746 0.70710678118654746 0.25 forward I I I I #
coedge $-1 $249 $249 $166 $251 forward $163 $-1 #
coedge $-1 $250 $250 $388 $389 forward $165 $-1 #
edge $-1 $390 0 $390 6.2831853071796004 $249 $391 forward 7 unknown #
loop $-1 $392 $393 $167 #
cone-surface $-1 0 0 0 0 0 1 0.25 0 0 1 I I -0.70710678118654746 0.70710678118654746 0.25 forward I I I I #
coedge $-1 $254 $254 $171 $256 forward $168 $-1 #
coedge $-1 $255 $255 $393 $394 forward $170 $-1 #
edge $-1 $395 0 $395 6.2831853071796004 $254 $396 forward 7 unknown #
loop $-1 $397 $398 $172 #
cone-surface $-1 0 0 0 0 0 1 0.25 0 0 1 I I -0.70710678118654746 0.70710678118654746 0.25 forward I I I I #
coedge $-1 $259 $259 $176 $261 forward $173 $-1 #
coedge $-1 $260 $260 $398 $399 forward $175 $-1 #
edge $-1 $400 0 $400 6.2831853071796004 $259 $401 forward 7 unknown #
face $-1 $402 $403 $42 $-1 $404 reversed single #
loop $-1 $-1 $405 $177 #
plane-surface $-1 -66.029847102267524 0 0 1 0 0 0 0 -1 forward_v I I I I #
coedge $-1 $406 $273 $407 $408 forward $178 $-1 #
coedge $-1 $409 $180 $406 $410 forward $113 $-1 #
coedge $-1 $180 $409 $411 $412 forward $113 $-1 #
coedge $-1 $276 $275 $180 $269 reversed $277 $-1 #
edge $-1 $413 -35.163860864585047 $414 35.163860864585047 $268 $415 forward 7 unknown #
coedge $-1 $182 $181 $416 $417 forward $71 $-1 #
coedge $-1 $418 $419 $181 $272 reversed $403 $-1 #
edge $-1 $279 -66.029847102267524 $420 66.029847102267524 $271 $421 forward 7 unknown #
coedge $-1 $265 $422 $182 $274 reversed $178 $-1 #
edge $-1 $423 -66.029847102267524 $278 66.029847102267524 $273 $424 forward 7 unknown #
coedge $-1 $268 $183 $422 $425 forward $277 $-1 #
coedge $-1 $183 $268 $418 $426 reversed $277 $-1 #
loop $-1 $-1 $275 $402 #
vertex $-1 $184 $427 #
vertex $-1 $184 $428 #
straight-curve $-1 66.029847102267524 0 14.416571259765893 0 1 0 I I #
face $-1 $429 $430 $43 $-1 $431 reversed single #
loop $-1 $-1 $432 $185 #
plane-surface $-1 -66.029847102267524 0 0 1 0 0 0 0 -1 forward_v I I I I #
coedge $-1 $433 $292 $434 $435 forward $186 $-1 #
coedge $-1 $436 $188 $433 $437 forward $117 $-1 #
coedge $-1 $188 $436 $438 $439 forward $117 $-1 #
coedge $-1 $295 $294 $188 $288 reversed $296 $-1 #
edge $-1 $440 -5.7642218556080413 $441 5.7642218556080413 $287 $442 forward 7 unknown #
coedge $-1 $190 $189 $443 $444 forward $74 $-1 #
coedge $-1 $445 $446 $189 $291 reversed $430 $-1 #
edge $-1 $298 -66.029847102267524 $447 66.029847102267524 $290 $448 forward 7 unknown #
coedge $-1 $284 $449 $190 $293 reversed $186 $-1 #
edge $-1 $450 -66.029847102267524 $297 66.029847102267524 $292 $451 forward 7 unknown #
coedge $-1 $287 $191 $449 $452 forward $296 $-1 #
coedge $-1 $191 $287 $445 $453 reversed $296 $-1 #
loop $-1 $-1 $294 $429 #
vertex $-1 $192 $454 #
vertex $-1 $192 $455 #
straight-curve $-1 66.029847102267524 0 3.0367325813174895 0 1 0 I I #
face $-1 $456 $457 $44 $-1 $458 reversed single #
loop $-1 $-1 $459 $193 #
plane-surface $-1 -264.1193884090701 0 0 1 0 0 0 0 -1 forward_v I I I I #
coedge $-1 $460 $311 $461 $462 forward $194 $-1 #
coedge $-1 $463 $196 $460 $464 forward $121 $-1 #
coedge $-1 $196 $463 $465 $466 forward $121 $-1 #
coedge $-1 $314 $313 $196 $307 reversed $315 $-1 #
edge $-1 $467 -7.9305763013629722 $468 7.9305763013629722 $306 $469 forward 7 unknown #
coedge $-1 $198 $197 $470 $471 forward $77 $-1 #
coedge $-1 $472 $473 $197 $310 reversed $457 $-1 #
edge $-1 $317 -264.1193884090701 $474 264.1193884090701 $309 $475 forward 7 unknown #
coedge $-1 $303 $476 $198 $312 reversed $194 $-1 #
edge $-1 $477 -264.1193884090701 $316 264.1193884090701 $311 $478 forward 7 unknown #
coedge $-1 $306 $199 $476 $479 forward $315 $-1 #
coedge $-1 $199 $306 $472 $480 reversed $315 $-1 #
loop $-1 $-1 $313 $456 #
vertex $-1 $200 $481 #
vertex $-1 $200 $482 #
straight-curve $-1 264.1193884090701 0 132.05969420453505 0 1 0 I I #
loop $-1 $-1 $483 $124 #
coedge $-1 $320 $320 $204 $321 reversed $201 $-1 #
edge $-1 $484 0 $484 6.2831853071796004 $320 $485 forward 7 unknown #
vertex $-1 $205 $486 #
ellipse-curve $-1 0 0 -2.3529313028351684 0 0 -1 1 0 0 1 I I #
loop $-1 $-1 $487 $129 #
coedge $-1 $325 $325 $209 $326 reversed $206 $-1 #
edge $-1 $488 0 $488 6.2831853071796004 $325 $489 forward 7 unknown #
vertex $-1 $210 $490 #
ellipse-curve $-1 0 0 -2.3529313028351684 0 0 -1 1 0 0 1 I I #
loop $-1 $-1 $491 $134 #
coedge $-1 $330 $330 $214 $331 reversed $211 $-1 #
edge $-1 $492 0 $492 6.2831853071796004 $330 $493 forward 7 unknown #
vertex $-1 $215 $494 #
ellipse-curve $-1 0 0 -2.3529313028351684 0 0 -1 1 0 0 1 I I #
face $-1 $495 $496 $48 $-1 $497 reversed single #
loop $-1 $-1 $498 $216 #
plane-surface $-1 -264.1193884090701 0 0 1 0 0 0 0 -1 forward_v I I I I #
coedge $-1 $499 $345 $500 $501 forward $217 $-1 #
coedge $-1 $502 $219 $499 $503 forward $140 $-1 #
coedge $-1 $219 $502 $504 $505 forward $140 $-1 #
coedge $-1 $348 $347 $219 $341 reversed $349 $-1 #
edge $-1 $506 -5.9607848507432344 $507 5.9607848507432344 $340 $508 forward 7 unknown #
coedge $-1 $221 $220 $509 $510 forward $89 $-1 #
coedge $-1 $511 $512 $220 $344 reversed $496 $-1 #
edge $-1 $351 -264.1193884090701 $513 264.1193884090701 $343 $514 forward 7 unknown #
coedge $-1 $337 $515 $221 $346 reversed $217 $-1 #
edge $-1 $516 -264.1193884090701 $350 264.1193884090701 $345 $517 forward 7 unknown #
coedge $-1 $340 $222 $515 $518 forward $349 $-1 #
coedge $-1 $222 $340 $511 $519 reversed $349 $-1 #
loop $-1 $-1 $347 $495 #
vertex $-1 $223 $520 #
vertex $-1 $223 $521 #
straight-curve $-1 264.1193884090701 0 132.05969420453505 0 1 0 I I #
loop $-1 $-1 $522 $143 #
coedge $-1 $354 $354 $227 $355 reversed $224 $-1 #
edge $-1 $523 0 $523 6.2831853071796004 $354 $524 forward 7 unknown #
vertex $-1 $228 $525 #
ellipse-curve $-1 0 0 -1.25 0 0 -1 0.5 0 0 1 I I #
loop $-1 $-1 $526 $148 #
coedge $-1 $359 $359 $232 $360 reversed $229 $-1 #
edge $-1 $527 0 $527 6.2831853071796004 $359 $528 forward 7 unknown #
vertex $-1 $233 $529 #
ellipse-curve $-1 0 0 -1.25 0 0 -1 0.5 0 0 1 I I #
loop $-1 $-1 $530 $153 #
coedge $-1 $364 $364 $237 $365 reversed $234 $-1 #
edge $-1 $531 0 $531 6.2831853071796004 $364 $532 forward 7 unknown #
vertex $-1 $238 $533 #
ellipse-curve $-1 0 0 -1.25 0 0 -1 0.5 0 0 1 I I #
face $-1 $534 $535 $52 $-1 $536 reversed single #
loop $-1 $-1 $537 $239 #
plane-surface $-1 -264.1193884090701 0 0 1 0 0 0 0 -1 forward_v I I I I #
coedge $-1 $538 $379 $539 $540 forward $240 $-1 #
coedge $-1 $541 $242 $538 $542 forward $159 $-1 #
coedge $-1 $242 $541 $543 $544 forward $159 $-1 #
coedge $-1 $382 $381 $242 $375 reversed $383 $-1 #
edge $-1 $545 -5.9607848507432344 $546 5.9607848507432344 $374 $547 forward 7 unknown #
coedge $-1 $244 $243 $548 $549 forward $101 $-1 #
coedge $-1 $550 $551 $243 $378 reversed $535 $-1 #
edge $-1 $385 -264.1193884090701 $552 264.1193884090701 $377 $553 forward 7 unknown #
coedge $-1 $371 $554 $244 $380 reversed $240 $-1 #
edge $-1 $555 -264.1193884090701 $384 264.1193884090701 $379 $556 forward 7 unknown #
coedge $-1 $374 $245 $554 $557 forward $383 $-1 #
coedge $-1 $245 $374 $550 $558 reversed $383 $-1 #
loop $-1 $-1 $381 $534 #
vertex $-1 $246 $559 #
vertex $-1 $246 $560 #
straight-curve $-1 264.1193884090701 0 132.05969420453505 0 1 0 I I #
loop $-1 $-1 $561 $162 #
coedge $-1 $388 $388 $250 $389 reversed $247 $-1 #
edge $-1 $562 0 $562 6.2831853071796004 $388 $563 forward 7 unknown #
vertex $-1 $251 $564 #
ellipse-curve $-1 0 0 -1.25 0 0 -1 0.5 0 0 1 I I #
loop $-1 $-1 $565 $167 #
coedge $-1 $393 $393 $255 $394 reversed $252 $-1 #
edge $-1 $566 0 $566 6.2831853071796004 $393 $567 forward 7 unknown #
vertex $-1 $256 $568 #
ellipse-curve $-1 0 0 -1.25 0 0 -1 0.5 0 0 1 I I #
loop $-1 $-1 $569 $172 #
coedge $-1 $398 $398 $260 $399 reversed $257 $-1 #
edge $-1 $570 0 $570 6.2831853071796004 $398 $571 forward 7 unknown #
vertex $-1 $261 $572 #
ellipse-curve $-1 0 0 -1.25 0 0 -1 0.5 0 0 1 I I #
face $-1 $-1 $277 $42 $-1 $573 reversed single #
loop $-1 $-1 $418 $262 #
plane-surface $-1 0 35.163860864585047 0 0 -1 0 0 0 -1 forward_v I I I I #
coedge $-1 $574 $416 $419 $575 forward $263 $-1 #
coedge $-1 $422 $265 $266 $410 reversed $178 $-1 #
coedge $-1 $416 $574 $265 $408 reversed $263 $-1 #
edge $-1 $423 -14.416571259765893 $576 14.416571259765893 $407 $577 forward 7 unknown #
coedge $-1 $267 $266 $574 $578 forward $113 $-1 #
edge $-1 $414 -66.029847102267524 $576 66.029847102267524 $406 $579 forward 7 unknown #
coedge $-1 $419 $418 $267 $412 reversed $403 $-1 #
edge $-1 $580 -66.029847102267524 $413 66.029847102267524 $411 $581 forward 7 unknown #
vertex $-1 $269 $582 #
vertex $-1 $425 $583 #
straight-curve $-1 66.029847102267524 0 -14.416571259765893 0 -1 0 I I #
coedge $-1 $405 $407 $270 $417 reversed $263 $-1 #
edge $-1 $420 -35.163860864585047 $423 35.163860864585047 $416 $584 forward 7 unknown #
coedge $-1 $411 $271 $276 $426 forward $403 $-1 #
coedge $-1 $271 $411 $405 $575 reversed $403 $-1 #
vertex $-1 $272 $585 #
straight-curve $-1 0 35.163860864585047 14.416571259765893 -1 0 0 I I #
coedge $-1 $273 $406 $275 $425 reversed $178 $-1 #
vertex $-1 $417 $586 #
straight-curve $-1 0 -35.163860864585047 14.416571259765893 1 0 0 I I #
edge $-1 $278 -14.416571259765893 $414 14.416571259765893 $275 $587 forward 7 unknown #
edge $-1 $279 -14.416571259765893 $413 14.416571259765893 $276 $588 forward 7 unknown #
point $-1 66.029847102267524 -35.163860864585047 14.416571259765893 #
point $-1 66.029847102267524 35.163860864585047 14.416571259765893 #
face $-1 $-1 $296 $43 $-1 $589 reversed single #
loop $-1 $-1 $445 $281 #
plane-surface $-1 0 5.7642218556080413 0 0 -1 0 0 0 -1 forward_v I I I I #
coedge $-1 $590 $443 $446 $591 forward $282 $-1 #
coedge $-1 $449 $284 $285 $437 reversed $186 $-1 #
coedge $-1 $443 $590 $284 $435 reversed $282 $-1 #
edge $-1 $450 -3.0367325813174895 $592 3.0367325813174895 $434 $593 forward 7 unknown #
coedge $-1 $286 $285 $590 $594 forward $117 $-1 #
edge $-1 $441 -66.029847102267524 $592 66.029847102267524 $433 $595 forward 7 unknown #
coedge $-1 $446 $445 $286 $439 reversed $430 $-1 #
edge $-1 $596 -66.029847102267524 $440 66.029847102267524 $438 $597 forward 7 unknown #
vertex $-1 $288 $598 #
vertex $-1 $452 $599 #
straight-curve $-1 66.029847102267524 0 -3.0367325813174895 0 -1 0 I I #
coedge $-1 $432 $434 $289 $444 reversed $282 $-1 #
edge $-1 $447 -5.7642218556080413 $450 5.7642218556080413 $443 $600 forward 7 unknown #
coedge $-1 $438 $290 $295 $453 forward $430 $-1 #
coedge $-1 $290 $438 $432 $591 reversed $430 $-1 #
vertex $-1 $291 $601 #
straight-curve $-1 0 5.7642218556080413 3.0367325813174895 -1 0 0 I I #
coedge $-1 $292 $433 $294 $452 reversed $186 $-1 #
vertex $-1 $444 $602 #
straight-curve $-1 0 -5.7642218556080413 3.0367325813174895 1 0 0 I I #
edge $-1 $297 -3.0367325813174895 $441 3.0367325813174895 $294 $603 forward 7 unknown #
edge $-1 $298 -3.0367325813174895 $440 3.0367325813174895 $295 $604 forward 7 unknown #
point $-1 66.029847102267524 -5.7642218556080413 3.0367325813174895 #
point $-1 66.029847102267524 5.7642218556080413 3.0367325813174895 #
face $-1 $-1 $315 $44 $-1 $605 reversed single #
loop $-1 $-1 $472 $300 #
plane-surface $-1 0 7.9305763013629722 0 0 -1 0 0 0 -1 forward_v I I I I #
coedge $-1 $606 $470 $473 $607 forward $301 $-1 #
coedge $-1 $476 $303 $304 $464 reversed $194 $-1 #
coedge $-1 $470 $606 $303 $462 reversed $301 $-1 #
edge $-1 $477 -132.05969420453505 $608 132.05969420453505 $461 $609 forward 7 unknown #
coedge $-1 $305 $304 $606 $610 forward $121 $-1 #
edge $-1 $468 -264.1193884090701 $608 264.1193884090701 $460 $611 forward 7 unknown #
coedge $-1 $473 $472 $305 $466 reversed $457 $-1 #
edge $-1 $612 -264.1193884090701 $467 264.1193884090701 $465 $613 forward 7 unknown #
vertex $-1 $307 $614 #
vertex $-1 $479 $615 #
straight-curve $-1 264.1193884090701 0 -132.05969420453505 0 -1 0 I I #
coedge $-1 $459 $461 $308 $471 reversed $301 $-1 #
edge $-1 $474 -7.9305763013629722 $477 7.9305763013629722 $470 $616 forward 7 unknown #
coedge $-1 $465 $309 $314 $480 forward $457 $-1 #
coedge $-1 $309 $465 $459 $607 reversed $457 $-1 #
vertex $-1 $310 $617 #
straight-curve $-1 0 7.9305763013629722 132.05969420453505 -1 0 0 I I #
coedge $-1 $311 $460 $313 $479 reversed $194 $-1 #
vertex $-1 $471 $618 #
straight-curve $-1 0 -7.9305763013629722 132.05969420453505 1 0 0 I I #
edge $-1 $316 -132.05969420453505 $468 132.05969420453505 $313 $619 forward 7 unknown #
edge $-1 $317 -132.05969420453505 $467 132.05969420453505 $314 $620 forward 7 unknown #
point $-1 264.1193884090701 -7.9305763013629722 132.05969420453505 #
point $-1 264.1193884090701 7.9305763013629722 132.05969420453505 #
coedge $-1 $483 $483 $-1 $621 reversed $319 $-1 #
vertex $-1 $321 $622 #
ellipse-curve $-1 0 0 -0.5 0 0 -1 1 0 0 1 I I #
point $-1 1 0 -2.3529313028351684 #
coedge $-1 $487 $487 $-1 $623 reversed $324 $-1 #
vertex $-1 $326 $624 #
ellipse-curve $-1 0 0 -0.5 0 0 -1 1 0 0 1 I I #
point $-1 1 0 -2.3529313028351684 #
coedge $-1 $491 $491 $-1 $625 reversed $329 $-1 #
vertex $-1 $331 $626 #
ellipse-curve $-1 0 0 -0.5 0 0 -1 1 0 0 1 I I #
point $-1 1 0 -2.3529313028351684 #
face $-1 $-1 $349 $48 $-1 $627 reversed single #
loop $-1 $-1 $511 $334 #
plane-surface $-1 0 5.9607848507432344 0 0 -1 0 0 0 -1 forward_v I I I I #
coedge $-1 $628 $509 $512 $629 forward $335 $-1 #
coedge $-1 $515 $337 $338 $503 reversed $217 $-1 #
coedge $-1 $509 $628 $337 $501 reversed $335 $-1 #
edge $-1 $516 -132.05969420453505 $630 132.05969420453505 $500 $631 forward 7 unknown #
coedge $-1 $339 $338 $628 $632 forward $140 $-1 #
edge $-1 $507 -264.1193884090701 $630 264.1193884090701 $499 $633 forward 7 unknown #
coedge $-1 $512 $511 $339 $505 reversed $496 $-1 #
edge $-1 $634 -264.1193884090701 $506 264.1193884090701 $504 $635 forward 7 unknown #
vertex $-1 $341 $636 #
vertex $-1 $518 $637 #
straight-curve $-1 264.1193884090701 0 -132.05969420453505 0 -1 0 I I #
coedge $-1 $498 $500 $342 $510 reversed $335 $-1 #
edge $-1 $513 -5.9607848507432344 $516 5.9607848507432344 $509 $638 forward 7 unknown #
coedge $-1 $504 $343 $348 $519 forward $496 $-1 #
coedge $-1 $343 $504 $498 $629 reversed $496 $-1 #
vertex $-1 $344 $639 #
straight-curve $-1 0 5.9607848507432344 132.05969420453505 -1 0 0 I I #
coedge $-1 $345 $499 $347 $518 reversed $217 $-1 #
vertex $-1 $510 $640 #
straight-curve $-1 0 -5.9607848507432344 132.05969420453505 1 0 0 I I #
edge $-1 $350 -132.05969420453505 $507 132.05969420453505 $347 $641 forward 7 unknown #
edge $-1 $351 -132.05969420453505 $506 132.05969420453505 $348 $642 forward 7 unknown #
point $-1 264.1193884090701 -5.9607848507432344 132.05969420453505 #
point $-1 264.1193884090701 5.9607848507432344 132.05969420453505 #
coedge $-1 $522 $522 $-1 $643 reversed $353 $-1 #
vertex $-1 $355 $644 #
ellipse-curve $-1 0 0 -0.25 0 0 -1 0.5 0 0 1 I I #
point $-1 0.5 0 -1.25 #
coedge $-1 $526 $526 $-1 $645 reversed $358 $-1 #
vertex $-1 $360 $646 #
ellipse-curve $-1 0 0 -0.25 0 0 -1 0.5 0 0 1 I I #
point $-1 0.5 0 -1.25 #
coedge $-1 $530 $530 $-1 $647 reversed $363 $-1 #
vertex $-1 $365 $648 #
ellipse-curve $-1 0 0 -0.25 0 0 -1 0.5 0 0 1 I I #
point $-1 0.5 0 -1.25 #
face $-1 $-1 $383 $52 $-1 $649 reversed single #
loop $-1 $-1 $550 $368 #
plane-surface $-1 0 5.9607848507432344 0 0 -1 0 0 0 -1 forward_v I I I I #
coedge $-1 $650 $548 $551 $651 forward $369 $-1 #
coedge $-1 $554 $371 $372 $542 reversed $240 $-1 #
coedge $-1 $548 $650 $371 $540 reversed $369 $-1 #
edge $-1 $555 -132.05969420453505 $652 132.05969420453505 $539 $653 forward 7 unknown #
coedge $-1 $373 $372 $650 $654 forward $159 $-1 #
edge $-1 $546 -264.1193884090701 $652 264.1193884090701 $538 $655 forward 7 unknown #
coedge $-1 $551 $550 $373 $544 reversed $535 $-1 #
edge $-1 $656 -264.1193884090701 $545 264.1193884090701 $543 $657 forward 7 unknown #
vertex $-1 $375 $658 #
vertex $-1 $557 $659 #
straight-curve $-1 264.1193884090701 0 -132.05969420453505 0 -1 0 I I #
coedge $-1 $537 $539 $376 $549 reversed $369 $-1 #
edge $-1 $552 -5.9607848507432344 $555 5.9607848507432344 $548 $660 forward 7 unknown #
coedge $-1 $543 $377 $382 $558 forward $535 $-1 #
coedge $-1 $377 $543 $537 $651 reversed $535 $-1 #
vertex $-1 $378 $661 #
straight-curve $-1 0 5.9607848507432344 132.05969420453505 -1 0 0 I I #
coedge $-1 $379 $538 $381 $557 reversed $240 $-1 #
vertex $-1 $549 $662 #
straight-curve $-1 0 -5.9607848507432344 132.05969420453505 1 0 0 I I #
edge $-1 $384 -132.05969420453505 $546 132.05969420453505 $381 $663 forward 7 unknown #
edge $-1 $385 -132.05969420453505 $545 132.05969420453505 $382 $664 forward 7 unknown #
point $-1 264.1193884090701 -5.9607848507432344 132.05969420453505 #
point $-1 264.1193884090701 5.9607848507432344 132.05969420453505 #
coedge $-1 $561 $561 $-1 $665 reversed $387 $-1 #
vertex $-1 $389 $666 #
ellipse-curve $-1 0 0 -0.25 0 0 -1 0.5 0 0 1 I I #
point $-1 0.5 0 -1.25 #
coedge $-1 $565 $565 $-1 $667 reversed $392 $-1 #
vertex $-1 $394 $668 #
ellipse-curve $-1 0 0 -0.25 0 0 -1 0.5 0 0 1 I I #
point $-1 0.5 0 -1.25 #
coedge $-1 $569 $569 $-1 $669 reversed $397 $-1 #
vertex $-1 $399 $670 #
ellipse-curve $-1 0 0 -0.25 0 0 -1 0.5 0 0 1 I I #
point $-1 0.5 0 -1.25 #
plane-surface $-1 66.029847102267524 0 0 -1 0 0 0 0 1 forward_v I I I I #
coedge $-1 $407 $405 $409 $578 reversed $263 $-1 #
edge $-1 $420 -14.416571259765893 $580 14.416571259765893 $419 $671 forward 7 unknown #
vertex $-1 $578 $672 #
straight-curve $-1 -66.029847102267524 -35.163860864585047 0 0 0 -1 I I #
edge $-1 $576 -35.163860864585047 $580 35.163860864585047 $574 $673 forward 7 unknown #
straight-curve $-1 0 -35.163860864585047 -14.416571259765893 -1 0 0 I I #
vertex $-1 $412 $674 #
straight-curve $-1 0 35.163860864585047 -14.416571259765893 1 0 0 I I #
point $-1 66.029847102267524 35.163860864585047 -14.416571259765893 #
point $-1 66.029847102267524 -35.163860864585047 -14.416571259765893 #
straight-curve $-1 -66.029847102267524 0 14.416571259765893 0 -1 0 I I #
point $-1 -66.029847102267524 35.163860864585047 14.416571259765893 #
point $-1 -66.029847102267524 -35.163860864585047 14.416571259765893 #
straight-curve $-1 66.029847102267524 -35.163860864585047 0 0 0 -1 I I #
straight-curve $-1 66.029847102267524 35.163860864585047 0 0 0 -1 I I #
plane-surface $-1 66.029847102267524 0 0 -1 0 0 0 0 1 forward_v I I I I #
coedge $-1 $434 $432 $436 $594 reversed $282 $-1 #
edge $-1 $447 -3.0367325813174895 $596 3.0367325813174895 $446 $675 forward 7 unknown #
vertex $-1 $594 $676 #
straight-curve $-1 -66.029847102267524 -5.7642218556080413 0 0 0 -1 I I #
edge $-1 $592 -5.7642218556080413 $596 5.7642218556080413 $590 $677 forward 7 unknown #
straight-curve $-1 0 -5.7642218556080413 -3.0367325813174895 -1 0 0 I I #
vertex $-1 $439 $678 #
straight-curve $-1 0 5.7642218556080413 -3.0367325813174895 1 0 0 I I #
point $-1 66.029847102267524 5.7642218556080413 -3.0367325813174895 #
point $-1 66.029847102267524 -5.7642218556080413 -3.0367325813174895 #
straight-curve $-1 -66.029847102267524 0 3.0367325813174895 0 -1 0 I I #
point $-1 -66.029847102267524 5.7642218556080413 3.0367325813174895 #
point $-1 -66.029847102267524 -5.7642218556080413 3.0367325813174895 #
straight-curve $-1 66.029847102267524 -5.7642218556080413 0 0 0 -1 I I #
straight-curve $-1 66.029847102267524 5.7642218556080413 0 0 0 -1 I I #
plane-surface $-1 264.1193884090701 0 0 -1 0 0 0 0 1 forward_v I I I I #
coedge $-1 $461 $459 $463 $610 reversed $301 $-1 #
edge $-1 $474 -132.05969420453505 $612 132.05969420453505 $473 $679 forward 7 unknown #
vertex $-1 $610 $680 #
straight-curve $-1 -264.1193884090701 -7.9305763013629722 0 0 0 -1 I I #
edge $-1 $608 -7.9305763013629722 $612 7.9305763013629722 $606 $681 forward 7 unknown #
straight-curve $-1 0 -7.9305763013629722 -132.05969420453505 -1 0 0 I I #
vertex $-1 $466 $682 #
straight-curve $-1 0 7.9305763013629722 -132.05969420453505 1 0 0 I I #
point $-1 264.1193884090701 7.9305763013629722 -132.05969420453505 #
point $-1 264.1193884090701 -7.9305763013629722 -132.05969420453505 #
straight-curve $-1 -264.1193884090701 0 132.05969420453505 0 -1 0 I I #
point $-1 -264.1193884090701 7.9305763013629722 132.05969420453505 #
point $-1 -264.1193884090701 -7.9305763013629722 132.05969420453505 #
straight-curve $-1 264.1193884090701 -7.9305763013629722 0 0 0 -1 I I #
straight-curve $-1 264.1193884090701 7.9305763013629722 0 0 0 -1 I I #
edge $-1 $683 1 $683 0 $483 $-1 forward 7 unknown #
point $-1 1 0 -0.5 #
edge $-1 $684 1 $684 0 $487 $-1 forward 7 unknown #
point $-1 1 0 -0.5 #
edge $-1 $685 1 $685 0 $491 $-1 forward 7 unknown #
point $-1 1 0 -0.5 #
plane-surface $-1 264.1193884090701 0 0 -1 0 0 0 0 1 forward_v I I I I #
coedge $-1 $500 $498 $502 $632 reversed $335 $-1 #
edge $-1 $513 -132.05969420453505 $634 132.05969420453505 $512 $686 forward 7 unknown #
vertex $-1 $632 $687 #
straight-curve $-1 -264.1193884090701 -5.9607848507432344 0 0 0 -1 I I #
edge $-1 $630 -5.9607848507432344 $634 5.9607848507432344 $628 $688 forward 7 unknown #
straight-curve $-1 0 -5.9607848507432344 -132.05969420453505 -1 0 0 I I #
vertex $-1 $505 $689 #
straight-curve $-1 0 5.9607848507432344 -132.05969420453505 1 0 0 I I #
point $-1 264.1193884090701 5.9607848507432344 -132.05969420453505 #
point $-1 264.1193884090701 -5.9607848507432344 -132.05969420453505 #
straight-curve $-1 -264.1193884090701 0 132.05969420453505 0 -1 0 I I #
point $-1 -264.1193884090701 5.9607848507432344 132.05969420453505 #
point $-1 -264.1193884090701 -5.9607848507432344 132.05969420453505 #
straight-curve $-1 264.1193884090701 -5.9607848507432344 0 0 0 -1 I I #
straight-curve $-1 264.1193884090701 5.9607848507432344 0 0 0 -1 I I #
edge $-1 $690 1 $690 0 $522 $-1 forward 7 unknown #
point $-1 0.5 0 -0.25 #
edge $-1 $691 1 $691 0 $526 $-1 forward 7 unknown #
point $-1 0.5 0 -0.25 #
edge $-1 $692 1 $692 0 $530 $-1 forward 7 unknown #
point $-1 0.5 0 -0.25 #
plane-surface $-1 264.1193884090701 0 0 -1 0 0 0 0 1 forward_v I I I I #
coedge $-1 $539 $537 $541 $654 reversed $369 $-1 #
edge $-1 $552 -132.05969420453505 $656 132.05969420453505 $551 $693 forward 7 unknown #
vertex $-1 $654 $694 #
straight-curve $-1 -264.1193884090701 -5.9607848507432344 0 0 0 -1 I I #
edge $-1 $652 -5.9607848507432344 $656 5.9607848507432344 $650 $695 forward 7 unknown #
straight-curve $-1 0 -5.9607848507432344 -132.05969420453505 -1 0 0 I I #
vertex $-1 $544 $696 #
straight-curve $-1 0 5.9607848507432344 -132.05969420453505 1 0 0 I I #
point $-1 264.1193884090701 5.9607848507432344 -132.05969420453505 #
point $-1 264.1193884090701 -5.9607848507432344 -132.05969420453505 #
straight-curve $-1 -264.1193884090701 0 132.05969420453505 0 -1 0 I I #
point $-1 -264.1193884090701 5.9607848507432344 132.05969420453505 #
point $-1 -264.1193884090701 -5.9607848507432344 132.05969420453505 #
straight-curve $-1 264.1193884090701 -5.9607848507432344 0 0 0 -1 I I #
straight-curve $-1 264.1193884090701 5.9607848507432344 0 0 0 -1 I I #
edge $-1 $697 1 $697 0 $561 $-1 forward 7 unknown #
point $-1 0.5 0 -0.25 #
edge $-1 $698 1 $698 0 $565 $-1 forward 7 unknown #
point $-1 0.5 0 -0.25 #
edge $-1 $699 1 $699 0 $569 $-1 forward 7 unknown #
point $-1 0.5 0 -0.25 #
straight-curve $-1 -66.029847102267524 35.163860864585047 0 0 0 -1 I I #
point $-1 -66.029847102267524 -35.163860864585047 -14.416571259765893 #
straight-curve $-1 -66.029847102267524 0 -14.416571259765893 0 1 0 I I #
point $-1 -66.029847102267524 35.163860864585047 -14.416571259765893 #
straight-curve $-1 -66.029847102267524 5.7642218556080413 0 0 0 -1 I I #
point $-1 -66.029847102267524 -5.7642218556080413 -3.0367325813174895 #
straight-curve $-1 -66.029847102267524 0 -3.0367325813174895 0 1 0 I I #
point $-1 -66.029847102267524 5.7642218556080413 -3.0367325813174895 #
straight-curve $-1 -264.1193884090701 7.9305763013629722 0 0 0 -1 I I #
point $-1 -264.1193884090701 -7.9305763013629722 -132.05969420453505 #
straight-curve $-1 -264.1193884090701 0 -132.05969420453505 0 1 0 I I #
point $-1 -264.1193884090701 7.9305763013629722 -132.05969420453505 #
vertex $-1 $621 $700 #
vertex $-1 $623 $701 #
vertex $-1 $625 $702 #
straight-curve $-1 -264.1193884090701 5.9607848507432344 0 0 0 -1 I I #
point $-1 -264.1193884090701 -5.9607848507432344 -132.05969420453505 #
straight-curve $-1 -264.1193884090701 0 -132.05969420453505 0 1 0 I I #
point $-1 -264.1193884090701 5.9607848507432344 -132.05969420453505 #
vertex $-1 $643 $703 #
vertex $-1 $645 $704 #
vertex $-1 $647 $705 #
straight-curve $-1 -264.1193884090701 5.9607848507432344 0 0 0 -1 I I #
point $-1 -264.1193884090701 -5.9607848507432344 -132.05969420453505 #
straight-curve $-1 -264.1193884090701 0 -132.05969420453505 0 1 0 I I #
point $-1 -264.1193884090701 5.9607848507432344 -132.05969420453505 #
vertex $-1 $665 $706 #
vertex $-1 $667 $707 #
vertex $-1 $669 $708 #
point $-1 0 0 0.5 #
point $-1 0 0 0.5 #
point $-1 0 0 0.5 #
point $-1 0 0 0.25 #
point $-1 0 0 0.25 #
point $-1 0 0 0.25 #
point $-1 0 0 0.25 #
point $-1 0 0 0.25 #
point $-1 0 0 0.25 #
End-of-ACIS-data 