500 0 18 0           
7 Unknown 11 ACIS 5.0 NT 24 Thu Mar 25 17:17:57 1999 
-1 9.9999999999999995e-007 1e-010 
body $-1 $18 $-1 $19 #
body $-1 $20 $-1 $21 #
body $-1 $22 $-1 $23 #
body $-1 $24 $-1 $25 #
body $-1 $26 $-1 $27 #
body $-1 $28 $-1 $29 #
body $-1 $30 $-1 $31 #
body $-1 $32 $-1 $33 #
body $-1 $34 $-1 $35 #
body $-1 $36 $-1 $37 #
body $-1 $38 $-1 $39 #
body $-1 $40 $-1 $41 #
body $-1 $42 $-1 $43 #
body $-1 $44 $-1 $45 #
body $-1 $46 $-1 $47 #
body $-1 $48 $-1 $49 #
body $-1 $50 $-1 $51 #
body $-1 $52 $-1 $53 #
lump $-1 $-1 $54 $0 #
transform $-1 1 0 0 0 1 0 0 0 1 61.663258766441849 35.823856100821466 9.3396543935205401 1 rotate no_reflect no_shear #
lump $-1 $-1 $55 $1 #
transform $-1 1 0 0 0 1 0 0 0 1 61.663258766441849 35.823856100821466 9.3396543935205401 1 rotate no_reflect no_shear #
lump $-1 $-1 $56 $2 #
transform $-1 1 0 0 0 1 0 0 0 1 61.663258766441849 35.823856100821466 9.3396543935205401 1 rotate no_reflect no_shear #
lump $-1 $-1 $57 $3 #
transform $-1 1 0 0 0 1 0 0 0 1 61.663258766441849 35.823856100821466 9.3396543935205401 1 rotate no_reflect no_shear #
lump $-1 $-1 $58 $4 #
transform $-1 1 0 0 0 1 0 0 0 1 61.663258766441849 35.823856100821466 9.3396543935205401 1 rotate no_reflect no_shear #
lump $-1 $-1 $59 $5 #
transform $-1 1 0 0 0 1 0 0 0 1 61.663258766441849 35.823856100821466 9.3396543935205401 1 rotate no_reflect no_shear #
lump $-1 $-1 $60 $6 #
transform $-1 1 0 0 0 1 0 0 0 1 61.663258766441849 35.823856100821466 9.3396543935205401 1 rotate no_reflect no_shear #
lump $-1 $-1 $61 $7 #
transform $-1 1 0 0 0 1 0 0 0 1 61.663258766441849 35.823856100821466 9.3396543935205401 1 rotate no_reflect no_shear #
lump $-1 $-1 $62 $8 #
transform $-1 1 0 0 0 1 0 0 0 1 61.663258766441849 35.823856100821466 9.3396543935205401 1 rotate no_reflect no_shear #
lump $-1 $-1 $63 $9 #
transform $-1 1 0 0 0 1 0 0 0 1 61.663258766441849 35.823856100821466 9.3396543935205401 1 rotate no_reflect no_shear #
lump $-1 $-1 $64 $10 #
transform $-1 1 0 0 0 1 0 0 0 1 61.663258766441849 35.823856100821466 9.3396543935205401 1 rotate no_reflect no_shear #
lump $-1 $-1 $65 $11 #
transform $-1 1 0 0 0 1 0 0 0 1 61.663258766441849 35.823856100821466 9.3396543935205401 1 rotate no_reflect no_shear #
lump $-1 $-1 $66 $12 #
transform $-1 1 0 0 0 1 0 0 0 1 61.663258766441849 35.823856100821466 9.3396543935205401 1 rotate no_reflect no_shear #
lump $-1 $-1 $67 $13 #
transform $-1 1 0 0 0 1 0 0 0 1 61.663258766441849 35.823856100821466 9.3396543935205401 1 rotate no_reflect no_shear #
lump $-1 $-1 $68 $14 #
transform $-1 1 0 0 0 1 0 0 0 1 61.663258766441849 35.823856100821466 9.3396543935205401 1 rotate no_reflect no_shear #
lump $-1 $-1 $69 $15 #
transform $-1 1 0 0 0 1 0 0 0 1 61.663258766441849 35.823856100821466 9.3396543935205401 1 rotate no_reflect no_shear #
lump $-1 $-1 $70 $16 #
transform $-1 1 0 0 0 1 0 0 0 1 61.663258766441849 35.823856100821466 9.3396543935205401 1 rotate no_reflect no_shear #
lump $-1 $-1 $71 $17 #
transform $-1 1 0 0 0 1 0 0 0 1 61.663258766441849 35.823856100821466 9.3396543935205401 1 rotate no_reflect no_shear #
shell $-1 $-1 $-1 $72 $-1 $18 #
shell $-1 $-1 $-1 $73 $-1 $20 #
shell $-1 $-1 $-1 $74 $-1 $22 #
shell $-1 $-1 $-1 $75 $-1 $24 #
shell $-1 $-1 $-1 $76 $-1 $26 #
shell $-1 $-1 $-1 $77 $-1 $28 #
shell $-1 $-1 $-1 $78 $-1 $30 #
shell $-1 $-1 $-1 $79 $-1 $32 #
shell $-1 $-1 $-1 $80 $-1 $34 #
shell $-1 $-1 $-1 $81 $-1 $36 #
shell $-1 $-1 $-1 $82 $-1 $38 #
shell $-1 $-1 $-1 $83 $-1 $40 #
shell $-1 $-1 $-1 $84 $-1 $42 #
shell $-1 $-1 $-1 $85 $-1 $44 #
shell $-1 $-1 $-1 $86 $-1 $46 #
shell $-1 $-1 $-1 $87 $-1 $48 #
shell $-1 $-1 $-1 $88 $-1 $50 #
shell $-1 $-1 $-1 $89 $-1 $52 #
face $-1 $90 $91 $54 $-1 $92 forward single #
face $-1 $93 $94 $55 $-1 $95 forward single #
face $-1 $96 $97 $56 $-1 $98 reversed single #
face $-1 $99 $100 $57 $-1 $101 forward single #
face $-1 $102 $103 $58 $-1 $104 forward single #
face $-1 $105 $106 $59 $-1 $107 forward single #
face $-1 $108 $109 $60 $-1 $110 reversed single #
face $-1 $111 $112 $61 $-1 $113 forward single #
face $-1 $114 $115 $62 $-1 $116 forward single #
face $-1 $117 $118 $63 $-1 $119 forward single #
face $-1 $120 $121 $64 $-1 $122 reversed single #
face $-1 $123 $124 $65 $-1 $125 forward single #
face $-1 $126 $127 $66 $-1 $128 forward single #
face $-1 $129 $130 $67 $-1 $131 forward single #
face $-1 $132 $133 $68 $-1 $134 reversed single #
face $-1 $135 $136 $69 $-1 $137 forward single #
face $-1 $138 $139 $70 $-1 $140 forward single #
face $-1 $141 $142 $71 $-1 $143 forward single #
face $-1 $144 $145 $54 $-1 $146 reversed single #
loop $-1 $-1 $147 $72 #
plane-surface $-1 0 0 9.3396543935205401 0 0 1 1 0 0 forward_v I I I I #
face $-1 $148 $149 $55 $-1 $150 reversed single #
loop $-1 $-1 $151 $73 #
plane-surface $-1 -61.663258766441849 0 0 1 0 0 0 0 -1 forward_v I I I I #
face $-1 $152 $153 $56 $-1 $154 reversed single #
loop $-1 $-1 $155 $74 #
plane-surface $-1 -51.312634598996254 106.80389905757738 125.60671488671139 1 0 0 0 -0.86602541151947299 -0.49999998660252726 forward_v I I I I #
face $-1 $156 $157 $57 $-1 $158 forward single #
loop $-1 $159 $160 $75 #
cone-surface $-1 -48.713951149535994 32.530290927219134 4.9564682782745004 0 -0.86602541151947299 -0.49999998660252726 1 0 0 1 I I 0 1 1 forward I I I I #
face $-1 $161 $162 $58 $-1 $163 forward single #
loop $-1 $164 $165 $76 #
cone-surface $-1 -44.8159259753456 32.530290927219134 4.9564682782745004 0 -0.86602541151947299 -0.49999998660252726 1 0 0 1 I I 0 1 1 forward I I I I #
face $-1 $166 $167 $59 $-1 $168 forward single #
loop $-1 $169 $170 $77 #
cone-surface $-1 -40.917900801155213 32.530290927219134 4.9564682782745004 0 -0.86602541151947299 -0.49999998660252726 1 0 0 1 I I 0 1 1 forward I I I I #
face $-1 $171 $172 $60 $-1 $173 reversed single #
loop $-1 $-1 $174 $78 #
plane-surface $-1 -23.06866125763673 106.80389905757738 125.60671488671139 1 0 0 0 -0.86602541151947299 -0.49999998660252726 forward_v I I I I #
face $-1 $175 $176 $61 $-1 $177 forward single #
loop $-1 $178 $179 $79 #
cone-surface $-1 -20.469977808176466 32.530290927219134 4.9564682782745004 0 -0.86602541151947299 -0.49999998660252726 1 0 0 1 I I 0 1 1 forward I I I I #
face $-1 $180 $181 $62 $-1 $182 forward single #
loop $-1 $183 $184 $80 #
cone-surface $-1 -16.571952633986079 32.530290927219134 4.9564682782745004 0 -0.86602541151947299 -0.49999998660252726 1 0 0 1 I I 0 1 1 forward I I I I #
face $-1 $185 $186 $63 $-1 $187 forward single #
loop $-1 $188 $189 $81 #
cone-surface $-1 -12.673927459795685 32.530290927219134 4.9564682782745004 0 -0.86602541151947299 -0.49999998660252726 1 0 0 1 I I 0 1 1 forward I I I I #
face $-1 $190 $191 $64 $-1 $192 reversed single #
loop $-1 $-1 $193 $82 #
plane-surface $-1 5.1753120837227913 106.80389905757738 125.60671488671139 1 0 0 0 -0.86602541151947299 -0.49999998660252726 forward_v I I I I #
face $-1 $194 $195 $65 $-1 $196 forward single #
loop $-1 $197 $198 $83 #
cone-surface $-1 7.7739955331830615 32.530290927219134 4.9564682782745004 0 -0.86602541151947299 -0.49999998660252726 1 0 0 1 I I 0 1 1 forward I I I I #
face $-1 $199 $200 $66 $-1 $201 forward single #
loop $-1 $202 $203 $84 #
cone-surface $-1 11.672020707373441 32.530290927219134 4.9564682782745004 0 -0.86602541151947299 -0.49999998660252726 1 0 0 1 I I 0 1 1 forward I I I I #
face $-1 $204 $205 $67 $-1 $206 forward single #
loop $-1 $207 $208 $85 #
cone-surface $-1 15.570045881563836 32.530290927219134 4.9564682782745004 0 -0.86602541151947299 -0.49999998660252726 1 0 0 1 I I 0 1 1 forward I I I I #
face $-1 $209 $210 $68 $-1 $211 reversed single #
loop $-1 $-1 $212 $86 #
plane-surface $-1 33.419285425082315 106.80389905757738 125.60671488671139 1 0 0 0 -0.86602541151947299 -0.49999998660252726 forward_v I I I I #
face $-1 $213 $214 $69 $-1 $215 forward single #
loop $-1 $216 $217 $87 #
cone-surface $-1 36.017968874542582 32.530290927219134 4.9564682782745004 0 -0.86602541151947299 -0.49999998660252726 1 0 0 1 I I 0 1 1 forward I I I I #
face $-1 $218 $219 $70 $-1 $220 forward single #
loop $-1 $221 $222 $88 #
cone-surface $-1 39.915994048732962 32.530290927219134 4.9564682782745004 0 -0.86602541151947299 -0.49999998660252726 1 0 0 1 I I 0 1 1 forward I I I I #
face $-1 $223 $224 $71 $-1 $225 forward single #
loop $-1 $226 $227 $89 #
cone-surface $-1 43.814019222923356 32.530290927219134 4.9564682782745004 0 -0.86602541151947299 -0.49999998660252726 1 0 0 1 I I 0 1 1 forward I I I I #
face $-1 $228 $229 $54 $-1 $230 reversed single #
loop $-1 $-1 $231 $90 #
plane-surface $-1 0 0 -9.3396543935205401 0 0 1 1 0 0 forward_v I I I I #
coedge $-1 $232 $233 $234 $235 forward $91 $-1 #
face $-1 $236 $237 $55 $-1 $238 forward single #
loop $-1 $-1 $239 $93 #
plane-surface $-1 0 35.823856100821466 0 0 -1 0 0 0 -1 forward_v I I I I #
coedge $-1 $240 $241 $242 $243 forward $94 $-1 #
face $-1 $244 $245 $56 $-1 $246 reversed single #
loop $-1 $-1 $247 $96 #
plane-surface $-1 -44.815925975345607 9.5989827286757645e-007 63.943457772533193 0 0.86602541151947299 0.49999998660252726 1 0 0 forward_v I I I I #
coedge $-1 $248 $249 $250 $251 reversed $97 $-1 #
face $-1 $-1 $252 $57 $-1 $253 forward single #
loop $-1 $254 $255 $99 #
cone-surface $-1 -48.713951149535994 30.952880891643197 4.045750202149172 0 -0.86602541151947299 -0.49999998660252726 0.5 0 0 1 I I -0.70710678118654746 0.70710678118654746 0.5 forward I I I I #
loop $-1 $-1 $256 $75 #
coedge $-1 $160 $160 $257 $258 reversed $100 $-1 #
face $-1 $-1 $259 $58 $-1 $260 forward single #
loop $-1 $261 $262 $102 #
cone-surface $-1 -44.8159259753456 30.952880891643197 4.045750202149172 0 -0.86602541151947299 -0.49999998660252726 0.5 0 0 1 I I -0.70710678118654746 0.70710678118654746 0.5 forward I I I I #
loop $-1 $-1 $263 $76 #
coedge $-1 $165 $165 $264 $265 reversed $103 $-1 #
face $-1 $-1 $266 $59 $-1 $267 forward single #
loop $-1 $268 $269 $105 #
cone-surface $-1 -40.917900801155213 30.952880891643197 4.045750202149172 0 -0.86602541151947299 -0.49999998660252726 0.5 0 0 1 I I -0.70710678118654746 0.70710678118654746 0.5 forward I I I I #
loop $-1 $-1 $270 $77 #
coedge $-1 $170 $170 $271 $272 reversed $106 $-1 #
face $-1 $273 $274 $60 $-1 $275 reversed single #
loop $-1 $-1 $276 $108 #
plane-surface $-1 -16.571952633986079 9.5989827286757645e-007 63.943457772533193 0 0.86602541151947299 0.49999998660252726 1 0 0 forward_v I I I I #
coedge $-1 $277 $278 $279 $280 reversed $109 $-1 #
face $-1 $-1 $281 $61 $-1 $282 forward single #
loop $-1 $283 $284 $111 #
cone-surface $-1 -20.469977808176466 30.952880891643197 4.045750202149172 0 -0.86602541151947299 -0.49999998660252726 0.5 0 0 1 I I -0.70710678118654746 0.70710678118654746 0.5 forward I I I I #
loop $-1 $-1 $285 $79 #
coedge $-1 $179 $179 $286 $287 reversed $112 $-1 #
face $-1 $-1 $288 $62 $-1 $289 forward single #
loop $-1 $290 $291 $114 #
cone-surface $-1 -16.571952633986079 30.952880891643197 4.045750202149172 0 -0.86602541151947299 -0.49999998660252726 0.5 0 0 1 I I -0.70710678118654746 0.70710678118654746 0.5 forward I I I I #
loop $-1 $-1 $292 $80 #
coedge $-1 $184 $184 $293 $294 reversed $115 $-1 #
face $-1 $-1 $295 $63 $-1 $296 forward single #
loop $-1 $297 $298 $117 #
cone-surface $-1 -12.673927459795685 30.952880891643197 4.045750202149172 0 -0.86602541151947299 -0.49999998660252726 0.5 0 0 1 I I -0.70710678118654746 0.70710678118654746 0.5 forward I I I I #
loop $-1 $-1 $299 $81 #
coedge $-1 $189 $189 $300 $301 reversed $118 $-1 #
face $-1 $302 $303 $64 $-1 $304 reversed single #
loop $-1 $-1 $305 $120 #
plane-surface $-1 11.672020707373441 9.5989827286757645e-007 63.943457772533193 0 0.86602541151947299 0.49999998660252726 1 0 0 forward_v I I I I #
coedge $-1 $306 $307 $308 $309 reversed $121 $-1 #
face $-1 $-1 $310 $65 $-1 $311 forward single #
loop $-1 $312 $313 $123 #
cone-surface $-1 7.7739955331830615 30.952880891643197 4.045750202149172 0 -0.86602541151947299 -0.49999998660252726 0.5 0 0 1 I I -0.70710678118654746 0.70710678118654746 0.5 forward I I I I #
loop $-1 $-1 $314 $83 #
coedge $-1 $198 $198 $315 $316 reversed $124 $-1 #
face $-1 $-1 $317 $66 $-1 $318 forward single #
loop $-1 $319 $320 $126 #
cone-surface $-1 11.672020707373441 30.952880891643197 4.045750202149172 0 -0.86602541151947299 -0.49999998660252726 0.5 0 0 1 I I -0.70710678118654746 0.70710678118654746 0.5 forward I I I I #
loop $-1 $-1 $321 $84 #
coedge $-1 $203 $203 $322 $323 reversed $127 $-1 #
face $-1 $-1 $324 $67 $-1 $325 forward single #
loop $-1 $326 $327 $129 #
cone-surface $-1 15.570045881563836 30.952880891643197 4.045750202149172 0 -0.86602541151947299 -0.49999998660252726 0.5 0 0 1 I I -0.70710678118654746 0.70710678118654746 0.5 forward I I I I #
loop $-1 $-1 $328 $85 #
coedge $-1 $208 $208 $329 $330 reversed $130 $-1 #
face $-1 $331 $332 $68 $-1 $333 reversed single #
loop $-1 $-1 $334 $132 #
plane-surface $-1 39.915994048732962 9.5989827286757645e-007 63.943457772533193 0 0.86602541151947299 0.49999998660252726 1 0 0 forward_v I I I I #
coedge $-1 $335 $336 $337 $338 reversed $133 $-1 #
face $-1 $-1 $339 $69 $-1 $340 forward single #
loop $-1 $341 $342 $135 #
cone-surface $-1 36.017968874542582 30.952880891643197 4.045750202149172 0 -0.86602541151947299 -0.49999998660252726 0.5 0 0 1 I I -0.70710678118654746 0.70710678118654746 0.5 forward I I I I #
loop $-1 $-1 $343 $87 #
coedge $-1 $217 $217 $344 $345 reversed $136 $-1 #
face $-1 $-1 $346 $70 $-1 $347 forward single #
loop $-1 $348 $349 $138 #
cone-surface $-1 39.915994048732962 30.952880891643197 4.045750202149172 0 -0.86602541151947299 -0.49999998660252726 0.5 0 0 1 I I -0.70710678118654746 0.70710678118654746 0.5 forward I I I I #
loop $-1 $-1 $350 $88 #
coedge $-1 $222 $222 $351 $352 reversed $139 $-1 #
face $-1 $-1 $353 $71 $-1 $354 forward single #
loop $-1 $355 $356 $141 #
cone-surface $-1 43.814019222923356 30.952880891643197 4.045750202149172 0 -0.86602541151947299 -0.49999998660252726 0.5 0 0 1 I I -0.70710678118654746 0.70710678118654746 0.5 forward I I I I #
loop $-1 $-1 $357 $89 #
coedge $-1 $227 $227 $358 $359 reversed $142 $-1 #
face $-1 $360 $361 $54 $-1 $362 reversed single #
loop $-1 $-1 $363 $144 #
plane-surface $-1 0 -35.823856100821466 0 0 1 0 0 0 1 forward_v I I I I #
coedge $-1 $364 $365 $366 $367 forward $145 $-1 #
coedge $-1 $368 $147 $369 $370 forward $91 $-1 #
coedge $-1 $147 $368 $371 $372 forward $91 $-1 #
coedge $-1 $373 $374 $147 $235 reversed $375 $-1 #
edge $-1 $376 -35.823856100821466 $377 35.823856100821466 $234 $378 forward 7 unknown #
face $-1 $379 $380 $55 $-1 $381 reversed single #
loop $-1 $-1 $242 $148 #
plane-surface $-1 -66.838570850164643 0 -0.64539570136718893 0 0 1 1 0 0 forward_v I I I I #
coedge $-1 $382 $383 $241 $384 forward $149 $-1 #
coedge $-1 $385 $151 $386 $387 reversed $94 $-1 #
coedge $-1 $151 $385 $239 $384 reversed $94 $-1 #
coedge $-1 $388 $389 $151 $243 reversed $237 $-1 #
edge $-1 $390 -35.823856100821466 $391 35.823856100821466 $242 $392 forward 7 unknown #
face $-1 $393 $394 $56 $-1 $395 forward single #
loop $-1 $-1 $396 $152 #
plane-surface $-1 -38.319217351694959 106.80389905757738 125.60671488671139 -1 0 0 0 0.86602541151947299 0.49999998660252726 forward_v I I I I #
coedge $-1 $397 $398 $399 $400 reversed $153 $-1 #
coedge $-1 $249 $155 $401 $402 reversed $97 $-1 #
coedge $-1 $155 $248 $397 $403 reversed $97 $-1 #
coedge $-1 $399 $404 $155 $251 forward $394 $-1 #
edge $-1 $405 17.578093427967225 $406 21.876429115539523 $250 $407 forward 7 unknown #
loop $-1 $-1 $257 $156 #
plane-surface $-1 -44.815925975345607 9.5989827286757645e-007 63.943457772533193 0 0.86602541151947299 0.49999998660252726 1 0 0 forward_v I I I I #
loop $-1 $-1 $408 $99 #
coedge $-1 $255 $255 $256 $409 reversed $157 $-1 #
coedge $-1 $256 $256 $255 $409 forward $159 $-1 #
coedge $-1 $257 $257 $160 $258 forward $252 $-1 #
edge $-1 $410 4.7597325791166719e-016 $410 6.2831853071796013 $257 $411 forward 7 unknown #
loop $-1 $-1 $264 $161 #
plane-surface $-1 -44.815925975345607 9.5989827286757645e-007 63.943457772533193 0 0.86602541151947299 0.49999998660252726 1 0 0 forward_v I I I I #
loop $-1 $-1 $412 $102 #
coedge $-1 $262 $262 $263 $413 reversed $162 $-1 #
coedge $-1 $263 $263 $262 $413 forward $164 $-1 #
coedge $-1 $264 $264 $165 $265 forward $259 $-1 #
edge $-1 $414 4.7597325791166719e-016 $414 6.2831853071796013 $264 $415 forward 7 unknown #
loop $-1 $-1 $271 $166 #
plane-surface $-1 -44.815925975345607 9.5989827286757645e-007 63.943457772533193 0 0.86602541151947299 0.49999998660252726 1 0 0 forward_v I I I I #
loop $-1 $-1 $416 $105 #
coedge $-1 $269 $269 $270 $417 reversed $167 $-1 #
coedge $-1 $270 $270 $269 $417 forward $169 $-1 #
coedge $-1 $271 $271 $170 $272 forward $266 $-1 #
edge $-1 $418 4.7597325791166719e-016 $418 6.2831853071796013 $271 $419 forward 7 unknown #
face $-1 $420 $421 $60 $-1 $422 forward single #
loop $-1 $-1 $423 $171 #
plane-surface $-1 -10.075244010335428 106.80389905757738 125.60671488671139 -1 0 0 0 0.86602541151947299 0.49999998660252726 forward_v I I I I #
coedge $-1 $424 $425 $426 $427 reversed $172 $-1 #
coedge $-1 $278 $174 $428 $429 reversed $109 $-1 #
coedge $-1 $174 $277 $424 $430 reversed $109 $-1 #
coedge $-1 $426 $431 $174 $280 forward $421 $-1 #
edge $-1 $432 17.578093427967225 $433 21.876429115539523 $279 $434 forward 7 unknown #
loop $-1 $-1 $286 $175 #
plane-surface $-1 -16.571952633986079 9.5989827286757645e-007 63.943457772533193 0 0.86602541151947299 0.49999998660252726 1 0 0 forward_v I I I I #
loop $-1 $-1 $435 $111 #
coedge $-1 $284 $284 $285 $436 reversed $176 $-1 #
coedge $-1 $285 $285 $284 $436 forward $178 $-1 #
coedge $-1 $286 $286 $179 $287 forward $281 $-1 #
edge $-1 $437 4.7597325791166719e-016 $437 6.2831853071796013 $286 $438 forward 7 unknown #
loop $-1 $-1 $293 $180 #
plane-surface $-1 -16.571952633986079 9.5989827286757645e-007 63.943457772533193 0 0.86602541151947299 0.49999998660252726 1 0 0 forward_v I I I I #
loop $-1 $-1 $439 $114 #
coedge $-1 $291 $291 $292 $440 reversed $181 $-1 #
coedge $-1 $292 $292 $291 $440 forward $183 $-1 #
coedge $-1 $293 $293 $184 $294 forward $288 $-1 #
edge $-1 $441 4.7597325791166719e-016 $441 6.2831853071796013 $293 $442 forward 7 unknown #
loop $-1 $-1 $300 $185 #
plane-surface $-1 -16.571952633986079 9.5989827286757645e-007 63.943457772533193 0 0.86602541151947299 0.49999998660252726 1 0 0 forward_v I I I I #
loop $-1 $-1 $443 $117 #
coedge $-1 $298 $298 $299 $444 reversed $186 $-1 #
coedge $-1 $299 $299 $298 $444 forward $188 $-1 #
coedge $-1 $300 $300 $189 $301 forward $295 $-1 #
edge $-1 $445 4.7597325791166719e-016 $445 6.2831853071796013 $300 $446 forward 7 unknown #
face $-1 $447 $448 $64 $-1 $449 forward single #
loop $-1 $-1 $450 $190 #
plane-surface $-1 18.168729331024092 106.80389905757738 125.60671488671139 -1 0 0 0 0.86602541151947299 0.49999998660252726 forward_v I I I I #
coedge $-1 $451 $452 $453 $454 reversed $191 $-1 #
coedge $-1 $307 $193 $455 $456 reversed $121 $-1 #
coedge $-1 $193 $306 $451 $457 reversed $121 $-1 #
coedge $-1 $453 $458 $193 $309 forward $448 $-1 #
edge $-1 $459 17.578093427967225 $460 21.876429115539523 $308 $461 forward 7 unknown #
loop $-1 $-1 $315 $194 #
plane-surface $-1 11.672020707373441 9.5989827286757645e-007 63.943457772533193 0 0.86602541151947299 0.49999998660252726 1 0 0 forward_v I I I I #
loop $-1 $-1 $462 $123 #
coedge $-1 $313 $313 $314 $463 reversed $195 $-1 #
coedge $-1 $314 $314 $313 $463 forward $197 $-1 #
coedge $-1 $315 $315 $198 $316 forward $310 $-1 #
edge $-1 $464 4.7597325791166719e-016 $464 6.2831853071796013 $315 $465 forward 7 unknown #
loop $-1 $-1 $322 $199 #
plane-surface $-1 11.672020707373441 9.5989827286757645e-007 63.943457772533193 0 0.86602541151947299 0.49999998660252726 1 0 0 forward_v I I I I #
loop $-1 $-1 $466 $126 #
coedge $-1 $320 $320 $321 $467 reversed $200 $-1 #
coedge $-1 $321 $321 $320 $467 forward $202 $-1 #
coedge $-1 $322 $322 $203 $323 forward $317 $-1 #
edge $-1 $468 4.7597325791166719e-016 $468 6.2831853071796013 $322 $469 forward 7 unknown #
loop $-1 $-1 $329 $204 #
plane-surface $-1 11.672020707373441 9.5989827286757645e-007 63.943457772533193 0 0.86602541151947299 0.49999998660252726 1 0 0 forward_v I I I I #
loop $-1 $-1 $470 $129 #
coedge $-1 $327 $327 $328 $471 reversed $205 $-1 #
coedge $-1 $328 $328 $327 $471 forward $207 $-1 #
coedge $-1 $329 $329 $208 $330 forward $324 $-1 #
edge $-1 $472 4.7597325791166719e-016 $472 6.2831853071796013 $329 $473 forward 7 unknown #
face $-1 $474 $475 $68 $-1 $476 forward single #
loop $-1 $-1 $477 $209 #
plane-surface $-1 46.41270267238361 106.80389905757738 125.60671488671139 -1 0 0 0 0.86602541151947299 0.49999998660252726 forward_v I I I I #
coedge $-1 $478 $479 $480 $481 reversed $210 $-1 #
coedge $-1 $336 $212 $482 $483 reversed $133 $-1 #
coedge $-1 $212 $335 $478 $484 reversed $133 $-1 #
coedge $-1 $480 $485 $212 $338 forward $475 $-1 #
edge $-1 $486 17.578093427967225 $487 21.876429115539523 $337 $488 forward 7 unknown #
loop $-1 $-1 $344 $213 #
plane-surface $-1 39.915994048732962 9.5989827286757645e-007 63.943457772533193 0 0.86602541151947299 0.49999998660252726 1 0 0 forward_v I I I I #
loop $-1 $-1 $489 $135 #
coedge $-1 $342 $342 $343 $490 reversed $214 $-1 #
coedge $-1 $343 $343 $342 $490 forward $216 $-1 #
coedge $-1 $344 $344 $217 $345 forward $339 $-1 #
edge $-1 $491 4.7597325791166719e-016 $491 6.2831853071796013 $344 $492 forward 7 unknown #
loop $-1 $-1 $351 $218 #
plane-surface $-1 39.915994048732962 9.5989827286757645e-007 63.943457772533193 0 0.86602541151947299 0.49999998660252726 1 0 0 forward_v I I I I #
loop $-1 $-1 $493 $138 #
coedge $-1 $349 $349 $350 $494 reversed $219 $-1 #
coedge $-1 $350 $350 $349 $494 forward $221 $-1 #
coedge $-1 $351 $351 $222 $352 forward $346 $-1 #
edge $-1 $495 4.7597325791166719e-016 $495 6.2831853071796013 $351 $496 forward 7 unknown #
loop $-1 $-1 $358 $223 #
plane-surface $-1 39.915994048732962 9.5989827286757645e-007 63.943457772533193 0 0.86602541151947299 0.49999998660252726 1 0 0 forward_v I I I I #
loop $-1 $-1 $497 $141 #
coedge $-1 $356 $356 $357 $498 reversed $224 $-1 #
coedge $-1 $357 $357 $356 $498 forward $226 $-1 #
coedge $-1 $358 $358 $227 $359 forward $353 $-1 #
edge $-1 $499 4.7597325791166719e-016 $499 6.2831853071796013 $358 $500 forward 7 unknown #
face $-1 $501 $502 $54 $-1 $503 reversed single #
loop $-1 $-1 $504 $228 #
plane-surface $-1 -61.663258766441849 0 0 1 0 0 0 0 -1 forward_v I I I I #
coedge $-1 $505 $371 $504 $506 forward $229 $-1 #
coedge $-1 $507 $231 $505 $508 forward $145 $-1 #
coedge $-1 $231 $507 $509 $510 forward $145 $-1 #
coedge $-1 $374 $373 $231 $367 reversed $375 $-1 #
edge $-1 $511 -35.823856100821466 $512 35.823856100821466 $366 $513 forward 7 unknown #
coedge $-1 $233 $232 $514 $515 forward $91 $-1 #
coedge $-1 $516 $517 $232 $370 reversed $502 $-1 #
edge $-1 $377 -61.663258766441849 $518 61.663258766441849 $369 $519 forward 7 unknown #
coedge $-1 $363 $520 $233 $372 reversed $229 $-1 #
edge $-1 $521 -61.663258766441849 $376 61.663258766441849 $371 $522 forward 7 unknown #
coedge $-1 $366 $234 $520 $523 forward $375 $-1 #
coedge $-1 $234 $366 $516 $524 reversed $375 $-1 #
loop $-1 $-1 $373 $501 #
vertex $-1 $235 $525 #
vertex $-1 $235 $526 #
straight-curve $-1 61.663258766441849 0 9.3396543935205401 0 1 0 I I #
face $-1 $527 $528 $55 $-1 $529 reversed single #
loop $-1 $-1 $530 $236 #
plane-surface $-1 -66.838570850164643 0 -3.6453957013671889 0 0 1 1 0 0 forward_v I I I I #
coedge $-1 $531 $239 $532 $533 reversed $149 $-1 #
coedge $-1 $239 $531 $388 $534 reversed $149 $-1 #
edge $-1 $390 0.64539570136718893 $535 3.6453957013671889 $239 $536 forward 7 unknown #
coedge $-1 $241 $240 $530 $537 forward $94 $-1 #
coedge $-1 $538 $539 $240 $387 forward $540 $-1 #
edge $-1 $541 -3.6453957013671889 $391 -0.64539570136718893 $386 $542 forward 7 unknown #
coedge $-1 $543 $242 $383 $534 forward $237 $-1 #
coedge $-1 $242 $543 $538 $544 forward $237 $-1 #
vertex $-1 $384 $545 #
vertex $-1 $544 $546 #
straight-curve $-1 -61.663258766441849 0 -0.64539570136718893 0 -1 0 I I #
face $-1 $-1 $547 $56 $-1 $548 reversed single #
loop $-1 $-1 $250 $244 #
plane-surface $-1 0 0 9.3396543935205401 0 0 1 1 0 0 forward_v I I I I #
coedge $-1 $549 $550 $551 $552 reversed $245 $-1 #
coedge $-1 $553 $247 $249 $403 forward $153 $-1 #
coedge $-1 $247 $553 $549 $554 forward $153 $-1 #
coedge $-1 $551 $250 $247 $400 forward $394 $-1 #
edge $-1 $406 -28.904671611323451 $555 -15.911254364022156 $399 $556 forward 7 unknown #
coedge $-1 $557 $558 $248 $402 forward $547 $-1 #
edge $-1 $559 -60.908639114679083 $405 -53.463703049835154 $401 $560 forward 7 unknown #
edge $-1 $406 63.051040596150983 $559 71.647712201642932 $249 $561 forward 7 unknown #
coedge $-1 $250 $551 $557 $562 forward $394 $-1 #
vertex $-1 $402 $563 #
vertex $-1 $251 $564 #
straight-curve $-1 -51.312634598996254 53.401949528788691 9.3396543935205401 0 -1 0 I I #
coedge $-1 $408 $408 $-1 $565 reversed $254 $-1 #
edge $-1 $566 0 $566 6.2831853071796004 $255 $567 forward 7 unknown #
vertex $-1 $258 $568 #
ellipse-curve $-1 -48.713951149535994 33.674688257035328 5.6171863610985611 0 0.86602541151947299 0.49999998660252726 1 0 0 1 I I #
coedge $-1 $412 $412 $-1 $569 reversed $261 $-1 #
edge $-1 $570 0 $570 6.2831853071796004 $262 $571 forward 7 unknown #
vertex $-1 $265 $572 #
ellipse-curve $-1 -44.8159259753456 33.674688257035328 5.6171863610985611 0 0.86602541151947299 0.49999998660252726 1 0 0 1 I I #
coedge $-1 $416 $416 $-1 $573 reversed $268 $-1 #
edge $-1 $574 0 $574 6.2831853071796004 $269 $575 forward 7 unknown #
vertex $-1 $272 $576 #
ellipse-curve $-1 -40.917900801155213 33.674688257035328 5.6171863610985611 0 0.86602541151947299 0.49999998660252726 1 0 0 1 I I #
face $-1 $-1 $577 $60 $-1 $578 reversed single #
loop $-1 $-1 $279 $273 #
plane-surface $-1 0 0 9.3396543935205401 0 0 1 1 0 0 forward_v I I I I #
coedge $-1 $579 $580 $581 $582 reversed $274 $-1 #
coedge $-1 $583 $276 $278 $430 forward $172 $-1 #
coedge $-1 $276 $583 $579 $584 forward $172 $-1 #
coedge $-1 $581 $279 $276 $427 forward $421 $-1 #
edge $-1 $433 -14.782684940643691 $585 -1.7892676933423886 $426 $586 forward 7 unknown #
coedge $-1 $587 $588 $277 $429 forward $577 $-1 #
edge $-1 $589 -60.908639114679083 $432 -53.463703049835154 $428 $590 forward 7 unknown #
edge $-1 $433 63.051040596150983 $589 71.647712201642932 $278 $591 forward 7 unknown #
coedge $-1 $279 $581 $587 $592 forward $421 $-1 #
vertex $-1 $280 $593 #
vertex $-1 $280 $594 #
straight-curve $-1 -23.06866125763673 53.401949528788691 9.3396543935205401 0 -1 0 I I #
coedge $-1 $435 $435 $-1 $595 reversed $283 $-1 #
edge $-1 $596 0 $596 6.2831853071796004 $284 $597 forward 7 unknown #
vertex $-1 $287 $598 #
ellipse-curve $-1 -20.469977808176466 33.674688257035328 5.6171863610985611 0 0.86602541151947299 0.49999998660252726 1 0 0 1 I I #
coedge $-1 $439 $439 $-1 $599 reversed $290 $-1 #
edge $-1 $600 0 $600 6.2831853071796004 $291 $601 forward 7 unknown #
vertex $-1 $294 $602 #
ellipse-curve $-1 -16.571952633986079 33.674688257035328 5.6171863610985611 0 0.86602541151947299 0.49999998660252726 1 0 0 1 I I #
coedge $-1 $443 $443 $-1 $603 reversed $297 $-1 #
edge $-1 $604 0 $604 6.2831853071796004 $298 $605 forward 7 unknown #
vertex $-1 $301 $606 #
ellipse-curve $-1 -12.673927459795685 33.674688257035328 5.6171863610985611 0 0.86602541151947299 0.49999998660252726 1 0 0 1 I I #
face $-1 $-1 $607 $64 $-1 $608 reversed single #
loop $-1 $-1 $308 $302 #
plane-surface $-1 0 0 9.3396543935205401 0 0 1 1 0 0 forward_v I I I I #
coedge $-1 $609 $610 $611 $612 reversed $303 $-1 #
coedge $-1 $613 $305 $307 $457 forward $191 $-1 #
coedge $-1 $305 $613 $609 $614 forward $191 $-1 #
coedge $-1 $611 $308 $305 $454 forward $448 $-1 #
edge $-1 $460 -0.66069826996392944 $615 12.332718977337372 $453 $616 forward 7 unknown #
coedge $-1 $617 $618 $306 $456 forward $607 $-1 #
edge $-1 $619 -60.908639114679083 $459 -53.463703049835154 $455 $620 forward 7 unknown #
edge $-1 $460 63.051040596150983 $619 71.647712201642932 $307 $621 forward 7 unknown #
coedge $-1 $308 $611 $617 $622 forward $448 $-1 #
vertex $-1 $309 $623 #
vertex $-1 $309 $624 #
straight-curve $-1 5.1753120837227913 53.401949528788691 9.3396543935205401 0 -1 0 I I #
coedge $-1 $462 $462 $-1 $625 reversed $312 $-1 #
edge $-1 $626 0 $626 6.2831853071796004 $313 $627 forward 7 unknown #
vertex $-1 $316 $628 #
ellipse-curve $-1 7.7739955331830615 33.674688257035328 5.6171863610985611 0 0.86602541151947299 0.49999998660252726 1 0 0 1 I I #
coedge $-1 $466 $466 $-1 $629 reversed $319 $-1 #
edge $-1 $630 0 $630 6.2831853071796004 $320 $631 forward 7 unknown #
vertex $-1 $323 $632 #
ellipse-curve $-1 11.672020707373441 33.674688257035328 5.6171863610985611 0 0.86602541151947299 0.49999998660252726 1 0 0 1 I I #
coedge $-1 $470 $470 $-1 $633 reversed $326 $-1 #
edge $-1 $634 0 $634 6.2831853071796004 $327 $635 forward 7 unknown #
vertex $-1 $330 $636 #
ellipse-curve $-1 15.570045881563836 33.674688257035328 5.6171863610985611 0 0.86602541151947299 0.49999998660252726 1 0 0 1 I I #
face $-1 $-1 $637 $68 $-1 $638 reversed single #
loop $-1 $-1 $337 $331 #
plane-surface $-1 0 0 9.3396543935205401 0 0 1 1 0 0 forward_v I I I I #
coedge $-1 $639 $640 $641 $642 reversed $332 $-1 #
coedge $-1 $643 $334 $336 $484 forward $210 $-1 #
coedge $-1 $334 $643 $639 $644 forward $210 $-1 #
coedge $-1 $641 $337 $334 $481 forward $475 $-1 #
edge $-1 $487 13.461288400715834 $645 26.454705648017129 $480 $646 forward 7 unknown #
coedge $-1 $647 $648 $335 $483 forward $637 $-1 #
edge $-1 $649 -60.908639114679083 $486 -53.463703049835154 $482 $650 forward 7 unknown #
edge $-1 $487 63.051040596150983 $649 71.647712201642932 $336 $651 forward 7 unknown #
coedge $-1 $337 $641 $647 $652 forward $475 $-1 #
vertex $-1 $338 $653 #
vertex $-1 $338 $654 #
straight-curve $-1 33.419285425082315 53.401949528788691 9.3396543935205401 0 -1 0 I I #
coedge $-1 $489 $489 $-1 $655 reversed $341 $-1 #
edge $-1 $656 0 $656 6.2831853071796004 $342 $657 forward 7 unknown #
vertex $-1 $345 $658 #
ellipse-curve $-1 36.017968874542582 33.674688257035328 5.6171863610985611 0 0.86602541151947299 0.49999998660252726 1 0 0 1 I I #
coedge $-1 $493 $493 $-1 $659 reversed $348 $-1 #
edge $-1 $660 0 $660 6.2831853071796004 $349 $661 forward 7 unknown #
vertex $-1 $352 $662 #
ellipse-curve $-1 39.915994048732962 33.674688257035328 5.6171863610985611 0 0.86602541151947299 0.49999998660252726 1 0 0 1 I I #
coedge $-1 $497 $497 $-1 $663 reversed $355 $-1 #
edge $-1 $664 0 $664 6.2831853071796004 $356 $665 forward 7 unknown #
vertex $-1 $359 $666 #
ellipse-curve $-1 43.814019222923356 33.674688257035328 5.6171863610985611 0 0.86602541151947299 0.49999998660252726 1 0 0 1 I I #
face $-1 $-1 $375 $54 $-1 $667 reversed single #
loop $-1 $-1 $516 $360 #
plane-surface $-1 0 35.823856100821466 0 0 -1 0 0 0 -1 forward_v I I I I #
coedge $-1 $514 $668 $363 $506 reversed $361 $-1 #
coedge $-1 $520 $363 $364 $508 reversed $229 $-1 #
edge $-1 $521 -9.3396543935205401 $669 9.3396543935205401 $504 $670 forward 7 unknown #
coedge $-1 $365 $364 $668 $671 forward $145 $-1 #
edge $-1 $512 -61.663258766441849 $669 61.663258766441849 $505 $672 forward 7 unknown #
coedge $-1 $517 $516 $365 $510 reversed $502 $-1 #
edge $-1 $673 -61.663258766441849 $511 61.663258766441849 $509 $674 forward 7 unknown #
vertex $-1 $367 $675 #
vertex $-1 $523 $676 #
straight-curve $-1 61.663258766441849 0 -9.3396543935205401 0 -1 0 I I #
coedge $-1 $677 $504 $368 $515 reversed $361 $-1 #
edge $-1 $518 -35.823856100821466 $521 35.823856100821466 $514 $678 forward 7 unknown #
coedge $-1 $509 $369 $374 $524 forward $502 $-1 #
coedge $-1 $369 $509 $677 $679 reversed $502 $-1 #
vertex $-1 $370 $680 #
straight-curve $-1 0 35.823856100821466 9.3396543935205401 -1 0 0 I I #
coedge $-1 $371 $505 $373 $523 reversed $229 $-1 #
vertex $-1 $515 $681 #
straight-curve $-1 0 -35.823856100821466 9.3396543935205401 1 0 0 I I #
edge $-1 $376 -9.3396543935205401 $512 9.3396543935205401 $373 $682 forward 7 unknown #
edge $-1 $377 -9.3396543935205401 $511 9.3396543935205401 $374 $683 forward 7 unknown #
point $-1 61.663258766441849 -35.823856100821466 9.3396543935205401 #
point $-1 61.663258766441849 35.823856100821466 9.3396543935205401 #
face $-1 $-1 $540 $55 $-1 $684 reversed single #
loop $-1 $-1 $685 $379 #
plane-surface $-1 -72.013882933887444 0 -2.1453957013671889 1 0 0 0 0 -1 forward_v I I I I #
coedge $-1 $686 $532 $385 $537 reversed $380 $-1 #
coedge $-1 $383 $382 $685 $687 reversed $149 $-1 #
coedge $-1 $530 $688 $382 $533 forward $380 $-1 #
edge $-1 $689 -5.175312083722801 $535 5.175312083722801 $382 $690 forward 7 unknown #
edge $-1 $390 -5.175312083722801 $691 5.175312083722801 $383 $692 forward 7 unknown #
vertex $-1 $384 $693 #
straight-curve $-1 -61.663258766441849 35.823856100821466 0 0 0 -1 I I #
edge $-1 $541 -35.823856100821466 $535 35.823856100821466 $530 $694 forward 7 unknown #
coedge $-1 $695 $386 $389 $544 reversed $540 $-1 #
coedge $-1 $386 $695 $686 $696 reversed $540 $-1 #
loop $-1 $-1 $386 $527 #
vertex $-1 $387 $697 #
straight-curve $-1 -61.663258766441849 -35.823856100821466 0 0 0 1 I I #
coedge $-1 $389 $388 $698 $699 forward $237 $-1 #
edge $-1 $700 -5.175312083722801 $391 5.175312083722801 $538 $701 forward 7 unknown #
point $-1 -61.663258766441842 35.823856100821466 -0.64539570136718893 #
point $-1 -61.663258766441842 -35.823856100821466 -0.64539570136718893 #
loop $-1 $-1 $401 $393 #
plane-surface $-1 0 35.823856100821466 0 0 -1 0 0 0 -1 forward_v I I I I #
coedge $-1 $550 $396 $398 $554 reversed $245 $-1 #
coedge $-1 $396 $549 $702 $703 reversed $245 $-1 #
coedge $-1 $404 $399 $396 $552 forward $394 $-1 #
edge $-1 $555 -21.876429115539523 $704 -17.578093427967225 $551 $705 forward 7 unknown #
coedge $-1 $398 $397 $558 $706 reversed $153 $-1 #
edge $-1 $707 -71.647712201642932 $555 -63.051040596150983 $549 $708 forward 7 unknown #
vertex $-1 $400 $709 #
straight-curve $-1 -22.407962987672803 31.525520413249168 9.3396543935205401 1 0 0 I I #
coedge $-1 $702 $401 $404 $562 reversed $547 $-1 #
coedge $-1 $401 $702 $553 $706 forward $547 $-1 #
vertex $-1 $402 $710 #
straight-curve $-1 -51.312634598996254 35.823856100821466 62.803357443355694 0 0 1 I I #
straight-curve $-1 -51.312634598996254 9.5989827286757645e-007 63.943457772533193 0 0.49999998660252726 -0.86602541151947299 I I #
edge $-1 $704 38.319217351694959 $405 51.312634598996254 $557 $711 forward 7 unknown #
point $-1 -51.312634598996254 35.823856100821466 9.3396543935205401 #
point $-1 -51.312634598996254 31.525520413249168 9.3396543935205401 #
edge $-1 $712 1 $712 0 $408 $-1 forward 7 unknown #
vertex $-1 $409 $713 #
ellipse-curve $-1 -48.713951149535994 31.385893597402934 4.2957501954504353 0 0.86602541151947299 0.49999998660252726 1 0 0 1 I I #
point $-1 -47.713951149535994 33.674688257035335 5.6171863610985646 #
edge $-1 $714 1 $714 0 $412 $-1 forward 7 unknown #
vertex $-1 $413 $715 #
ellipse-curve $-1 -44.8159259753456 31.385893597402934 4.2957501954504353 0 0.86602541151947299 0.49999998660252726 1 0 0 1 I I #
point $-1 -43.8159259753456 33.674688257035335 5.6171863610985646 #
edge $-1 $716 1 $716 0 $416 $-1 forward 7 unknown #
vertex $-1 $417 $717 #
ellipse-curve $-1 -40.917900801155213 31.385893597402934 4.2957501954504353 0 0.86602541151947299 0.49999998660252726 1 0 0 1 I I #
point $-1 -39.917900801155213 33.674688257035335 5.6171863610985646 #
loop $-1 $-1 $428 $420 #
plane-surface $-1 0 35.823856100821466 0 0 -1 0 0 0 -1 forward_v I I I I #
coedge $-1 $580 $423 $425 $584 reversed $274 $-1 #
coedge $-1 $423 $579 $718 $719 reversed $274 $-1 #
coedge $-1 $431 $426 $423 $582 forward $421 $-1 #
edge $-1 $585 -21.876429115539523 $720 -17.578093427967225 $581 $721 forward 7 unknown #
coedge $-1 $425 $424 $588 $722 reversed $172 $-1 #
edge $-1 $723 -71.647712201642932 $585 -63.051040596150983 $579 $724 forward 7 unknown #
vertex $-1 $427 $725 #
straight-curve $-1 -8.2859763169930396 31.525520413249168 9.3396543935205401 1 0 0 I I #
coedge $-1 $718 $428 $431 $592 reversed $577 $-1 #
coedge $-1 $428 $718 $583 $722 forward $577 $-1 #
vertex $-1 $429 $726 #
straight-curve $-1 -23.06866125763673 35.823856100821466 62.803357443355694 0 0 1 I I #
straight-curve $-1 -23.06866125763673 9.5989827286757645e-007 63.943457772533193 0 0.49999998660252726 -0.86602541151947299 I I #
edge $-1 $720 10.075244010335428 $432 23.06866125763673 $587 $727 forward 7 unknown #
point $-1 -23.06866125763673 35.823856100821466 9.3396543935205401 #
point $-1 -23.06866125763673 31.525520413249168 9.3396543935205401 #
edge $-1 $728 1 $728 0 $435 $-1 forward 7 unknown #
vertex $-1 $436 $729 #
ellipse-curve $-1 -20.469977808176466 31.385893597402934 4.2957501954504353 0 0.86602541151947299 0.49999998660252726 1 0 0 1 I I #
point $-1 -19.469977808176466 33.674688257035335 5.6171863610985646 #
edge $-1 $730 1 $730 0 $439 $-1 forward 7 unknown #
vertex $-1 $440 $731 #
ellipse-curve $-1 -16.571952633986079 31.385893597402934 4.2957501954504353 0 0.86602541151947299 0.49999998660252726 1 0 0 1 I I #
point $-1 -15.571952633986079 33.674688257035335 5.6171863610985646 #
edge $-1 $732 1 $732 0 $443 $-1 forward 7 unknown #
vertex $-1 $444 $733 #
ellipse-curve $-1 -12.673927459795685 31.385893597402934 4.2957501954504353 0 0.86602541151947299 0.49999998660252726 1 0 0 1 I I #
point $-1 -11.673927459795685 33.674688257035335 5.6171863610985646 #
loop $-1 $-1 $455 $447 #
plane-surface $-1 0 35.823856100821466 0 0 -1 0 0 0 -1 forward_v I I I I #
coedge $-1 $610 $450 $452 $614 reversed $303 $-1 #
coedge $-1 $450 $609 $734 $735 reversed $303 $-1 #
coedge $-1 $458 $453 $450 $612 forward $448 $-1 #
edge $-1 $615 -21.876429115539523 $736 -17.578093427967225 $611 $737 forward 7 unknown #
coedge $-1 $452 $451 $618 $738 reversed $191 $-1 #
edge $-1 $739 -71.647712201642932 $615 -63.051040596150983 $609 $740 forward 7 unknown #
vertex $-1 $454 $741 #
straight-curve $-1 5.8360103536867207 31.525520413249168 9.3396543935205401 1 0 0 I I #
coedge $-1 $734 $455 $458 $622 reversed $607 $-1 #
coedge $-1 $455 $734 $613 $738 forward $607 $-1 #
vertex $-1 $456 $742 #
straight-curve $-1 5.1753120837227913 35.823856100821466 62.803357443355694 0 0 1 I I #
straight-curve $-1 5.1753120837227913 9.5989827286757645e-007 63.943457772533193 0 0.49999998660252726 -0.86602541151947299 I I #
edge $-1 $736 -18.168729331024092 $459 -5.1753120837227913 $617 $743 forward 7 unknown #
point $-1 5.1753120837227913 35.823856100821466 9.3396543935205401 #
point $-1 5.1753120837227913 31.525520413249168 9.3396543935205401 #
edge $-1 $744 1 $744 0 $462 $-1 forward 7 unknown #
vertex $-1 $463 $745 #
ellipse-curve $-1 7.7739955331830615 31.385893597402934 4.2957501954504353 0 0.86602541151947299 0.49999998660252726 1 0 0 1 I I #
point $-1 8.7739955331830615 33.674688257035335 5.6171863610985646 #
edge $-1 $746 1 $746 0 $466 $-1 forward 7 unknown #
vertex $-1 $467 $747 #
ellipse-curve $-1 11.672020707373441 31.385893597402934 4.2957501954504353 0 0.86602541151947299 0.49999998660252726 1 0 0 1 I I #
point $-1 12.672020707373441 33.674688257035335 5.6171863610985646 #
edge $-1 $748 1 $748 0 $470 $-1 forward 7 unknown #
vertex $-1 $471 $749 #
ellipse-curve $-1 15.570045881563836 31.385893597402934 4.2957501954504353 0 0.86602541151947299 0.49999998660252726 1 0 0 1 I I #
point $-1 16.570045881563836 33.674688257035335 5.6171863610985646 #
loop $-1 $-1 $482 $474 #
plane-surface $-1 0 35.823856100821466 0 0 -1 0 0 0 -1 forward_v I I I I #
coedge $-1 $640 $477 $479 $644 reversed $332 $-1 #
coedge $-1 $477 $639 $750 $751 reversed $332 $-1 #
coedge $-1 $485 $480 $477 $642 forward $475 $-1 #
edge $-1 $645 -21.876429115539523 $752 -17.578093427967225 $641 $753 forward 7 unknown #
coedge $-1 $479 $478 $648 $754 reversed $210 $-1 #
edge $-1 $755 -71.647712201642932 $645 -63.051040596150983 $639 $756 forward 7 unknown #
vertex $-1 $481 $757 #
straight-curve $-1 19.957997024366481 31.525520413249168 9.3396543935205401 1 0 0 I I #
coedge $-1 $750 $482 $485 $652 reversed $637 $-1 #
coedge $-1 $482 $750 $643 $754 forward $637 $-1 #
vertex $-1 $483 $758 #
straight-curve $-1 33.419285425082315 35.823856100821466 62.803357443355694 0 0 1 I I #
straight-curve $-1 33.419285425082315 9.5989827286757645e-007 63.943457772533193 0 0.49999998660252726 -0.86602541151947299 I I #
edge $-1 $752 -46.41270267238361 $486 -33.419285425082315 $647 $759 forward 7 unknown #
point $-1 33.419285425082315 35.823856100821466 9.3396543935205401 #
point $-1 33.419285425082315 31.525520413249168 9.3396543935205401 #
edge $-1 $760 1 $760 0 $489 $-1 forward 7 unknown #
vertex $-1 $490 $761 #
ellipse-curve $-1 36.017968874542582 31.385893597402934 4.2957501954504353 0 0.86602541151947299 0.49999998660252726 1 0 0 1 I I #
point $-1 37.017968874542582 33.674688257035335 5.6171863610985646 #
edge $-1 $762 1 $762 0 $493 $-1 forward 7 unknown #
vertex $-1 $494 $763 #
ellipse-curve $-1 39.915994048732962 31.385893597402934 4.2957501954504353 0 0.86602541151947299 0.49999998660252726 1 0 0 1 I I #
point $-1 40.915994048732962 33.674688257035335 5.6171863610985646 #
edge $-1 $764 1 $764 0 $497 $-1 forward 7 unknown #
vertex $-1 $498 $765 #
ellipse-curve $-1 43.814019222923356 31.385893597402934 4.2957501954504353 0 0.86602541151947299 0.49999998660252726 1 0 0 1 I I #
point $-1 44.814019222923356 33.674688257035335 5.6171863610985646 #
plane-surface $-1 61.663258766441849 0 0 -1 0 0 0 0 1 forward_v I I I I #
coedge $-1 $504 $677 $507 $671 reversed $361 $-1 #
vertex $-1 $671 $766 #
straight-curve $-1 -61.663258766441849 -35.823856100821466 0 0 0 -1 I I #
edge $-1 $669 -35.823856100821466 $673 35.823856100821466 $668 $767 forward 7 unknown #
straight-curve $-1 0 -35.823856100821466 -9.3396543935205401 -1 0 0 I I #
vertex $-1 $510 $768 #
straight-curve $-1 0 35.823856100821466 -9.3396543935205401 1 0 0 I I #
point $-1 61.663258766441849 35.823856100821466 -9.3396543935205401 #
point $-1 61.663258766441849 -35.823856100821466 -9.3396543935205401 #
coedge $-1 $668 $514 $517 $679 forward $361 $-1 #
straight-curve $-1 -61.663258766441849 0 9.3396543935205401 0 -1 0 I I #
edge $-1 $518 -9.3396543935205401 $673 9.3396543935205401 $517 $769 forward 7 unknown #
point $-1 -61.663258766441849 35.823856100821466 9.3396543935205401 #
point $-1 -61.663258766441849 -35.823856100821466 9.3396543935205401 #
straight-curve $-1 61.663258766441849 -35.823856100821466 0 0 0 -1 I I #
straight-curve $-1 61.663258766441849 35.823856100821466 0 0 0 -1 I I #
plane-surface $-1 0 -35.823856100821466 0 0 1 0 0 0 1 forward_v I I I I #
coedge $-1 $770 $698 $531 $687 forward $528 $-1 #
coedge $-1 $688 $530 $539 $696 forward $380 $-1 #
edge $-1 $691 -1.5 $689 1.5 $531 $771 forward 7 unknown #
coedge $-1 $532 $686 $770 $772 forward $380 $-1 #
vertex $-1 $533 $773 #
straight-curve $-1 -66.838570850164643 35.823856100821466 -3.6453957013671889 1 0 0 I I #
vertex $-1 $534 $774 #
straight-curve $-1 -66.838570850164643 35.823856100821466 -0.64539570136718893 -1 0 0 I I #
point $-1 -61.663258766441842 35.823856100821466 -3.6453957013671889 #
straight-curve $-1 -61.663258766441849 0 -3.6453957013671889 0 1 0 I I #
coedge $-1 $539 $538 $775 $776 forward $540 $-1 #
edge $-1 $541 -5.175312083722801 $777 5.175312083722801 $539 $778 forward 7 unknown #
point $-1 -61.663258766441842 -35.823856100821466 -3.6453957013671889 #
coedge $-1 $685 $775 $543 $699 reversed $528 $-1 #
edge $-1 $691 -35.823856100821466 $700 35.823856100821466 $698 $779 forward 7 unknown #
vertex $-1 $699 $780 #
straight-curve $-1 -66.838570850164643 -35.823856100821466 -0.64539570136718893 1 0 0 I I #
coedge $-1 $558 $557 $550 $703 forward $547 $-1 #
edge $-1 $704 53.463703049835154 $707 60.908639114679083 $702 $781 forward 7 unknown #
vertex $-1 $562 $782 #
straight-curve $-1 -38.319217351694959 53.401949528788691 9.3396543935205401 0 1 0 I I #
edge $-1 $707 15.911254364022156 $559 28.904671611323451 $558 $783 forward 7 unknown #
vertex $-1 $706 $784 #
straight-curve $-1 -38.319217351694959 9.5989827286757645e-007 63.943457772533193 0 -0.49999998660252726 0.86602541151947299 I I #
point $-1 -38.319217351694959 31.525520413249168 9.3396543935205401 #
point $-1 -51.312634598996254 35.823856100821466 1.8947183286766105 #
straight-curve $-1 0 35.823856100821466 9.3396543935205401 -1 0 0 I I #
vertex $-1 $565 $785 #
point $-1 -47.713951149535994 31.385893597402934 4.2957501954504353 #
vertex $-1 $569 $786 #
point $-1 -43.8159259753456 31.385893597402934 4.2957501954504353 #
vertex $-1 $573 $787 #
point $-1 -39.917900801155213 31.385893597402934 4.2957501954504353 #
coedge $-1 $588 $587 $580 $719 forward $577 $-1 #
edge $-1 $720 53.463703049835154 $723 60.908639114679083 $718 $788 forward 7 unknown #
vertex $-1 $592 $789 #
straight-curve $-1 -10.075244010335428 53.401949528788691 9.3396543935205401 0 1 0 I I #
edge $-1 $723 1.7892676933423886 $589 14.782684940643691 $588 $790 forward 7 unknown #
vertex $-1 $722 $791 #
straight-curve $-1 -10.075244010335428 9.5989827286757645e-007 63.943457772533193 0 -0.49999998660252726 0.86602541151947299 I I #
point $-1 -10.075244010335428 31.525520413249168 9.3396543935205401 #
point $-1 -23.06866125763673 35.823856100821466 1.8947183286766105 #
straight-curve $-1 0 35.823856100821466 9.3396543935205401 -1 0 0 I I #
vertex $-1 $595 $792 #
point $-1 -19.469977808176466 31.385893597402934 4.2957501954504353 #
vertex $-1 $599 $793 #
point $-1 -15.571952633986079 31.385893597402934 4.2957501954504353 #
vertex $-1 $603 $794 #
point $-1 -11.673927459795685 31.385893597402934 4.2957501954504353 #
coedge $-1 $618 $617 $610 $735 forward $607 $-1 #
edge $-1 $736 53.463703049835154 $739 60.908639114679083 $734 $795 forward 7 unknown #
vertex $-1 $622 $796 #
straight-curve $-1 18.168729331024092 53.401949528788691 9.3396543935205401 0 1 0 I I #
edge $-1 $739 -12.332718977337372 $619 0.66069826996392944 $618 $797 forward 7 unknown #
vertex $-1 $738 $798 #
straight-curve $-1 18.168729331024092 9.5989827286757645e-007 63.943457772533193 0 -0.49999998660252726 0.86602541151947299 I I #
point $-1 18.168729331024092 31.525520413249168 9.3396543935205401 #
point $-1 5.1753120837227913 35.823856100821466 1.8947183286766105 #
straight-curve $-1 0 35.823856100821466 9.3396543935205401 -1 0 0 I I #
vertex $-1 $625 $799 #
point $-1 8.7739955331830615 31.385893597402934 4.2957501954504353 #
vertex $-1 $629 $800 #
point $-1 12.672020707373441 31.385893597402934 4.2957501954504353 #
vertex $-1 $633 $801 #
point $-1 16.570045881563836 31.385893597402934 4.2957501954504353 #
coedge $-1 $648 $647 $640 $751 forward $637 $-1 #
edge $-1 $752 53.463703049835154 $755 60.908639114679083 $750 $802 forward 7 unknown #
vertex $-1 $652 $803 #
straight-curve $-1 46.41270267238361 53.401949528788691 9.3396543935205401 0 1 0 I I #
edge $-1 $755 -26.454705648017129 $649 -13.461288400715834 $648 $804 forward 7 unknown #
vertex $-1 $754 $805 #
straight-curve $-1 46.41270267238361 9.5989827286757645e-007 63.943457772533193 0 -0.49999998660252726 0.86602541151947299 I I #
point $-1 46.41270267238361 31.525520413249168 9.3396543935205401 #
point $-1 33.419285425082315 35.823856100821466 1.8947183286766105 #
straight-curve $-1 0 35.823856100821466 9.3396543935205401 -1 0 0 I I #
vertex $-1 $655 $806 #
point $-1 37.017968874542582 31.385893597402934 4.2957501954504353 #
vertex $-1 $659 $807 #
point $-1 40.915994048732962 31.385893597402934 4.2957501954504353 #
vertex $-1 $663 $808 #
point $-1 44.814019222923356 31.385893597402934 4.2957501954504353 #
point $-1 -61.663258766441849 -35.823856100821466 -9.3396543935205401 #
straight-curve $-1 -61.663258766441849 0 -9.3396543935205401 0 1 0 I I #
point $-1 -61.663258766441849 35.823856100821466 -9.3396543935205401 #
straight-curve $-1 -61.663258766441849 35.823856100821466 0 0 0 -1 I I #
coedge $-1 $775 $685 $688 $772 reversed $528 $-1 #
straight-curve $-1 -72.013882933887444 35.823856100821466 -2.1453957013671889 0 0 -1 I I #
edge $-1 $777 -35.823856100821466 $689 35.823856100821466 $770 $809 forward 7 unknown #
point $-1 -72.013882933887444 35.823856100821466 -3.6453957013671889 #
point $-1 -72.013882933887444 35.823856100821466 -0.64539570136718893 #
coedge $-1 $698 $770 $695 $776 reversed $528 $-1 #
edge $-1 $700 -1.5 $777 1.5 $775 $810 forward 7 unknown #
vertex $-1 $772 $811 #
straight-curve $-1 -66.838570850164643 -35.823856100821466 -3.6453957013671889 -1 0 0 I I #
straight-curve $-1 -72.013882933887444 0 -0.64539570136718893 0 -1 0 I I #
point $-1 -72.013882933887444 -35.823856100821466 -0.64539570136718893 #
straight-curve $-1 -38.319217351694959 35.823856100821466 62.803357443355694 0 0 -1 I I #
point $-1 -38.319217351694959 35.823856100821466 9.3396543935205401 #
straight-curve $-1 -22.407962987672803 35.823856100821466 1.8947183286766069 -1 0 0 I I #
point $-1 -38.319217351694959 35.823856100821466 1.8947183286766105 #
point $-1 -48.713951149535994 30.51986818588346 3.7957502088479083 #
point $-1 -44.8159259753456 30.51986818588346 3.7957502088479083 #
point $-1 -40.917900801155213 30.51986818588346 3.7957502088479083 #
straight-curve $-1 -10.075244010335428 35.823856100821466 62.803357443355694 0 0 -1 I I #
point $-1 -10.075244010335428 35.823856100821466 9.3396543935205401 #
straight-curve $-1 -8.2859763169930396 35.823856100821466 1.8947183286766069 -1 0 0 I I #
point $-1 -10.075244010335428 35.823856100821466 1.8947183286766105 #
point $-1 -20.469977808176466 30.51986818588346 3.7957502088479083 #
point $-1 -16.571952633986079 30.51986818588346 3.7957502088479083 #
point $-1 -12.673927459795685 30.51986818588346 3.7957502088479083 #
straight-curve $-1 18.168729331024092 35.823856100821466 62.803357443355694 0 0 -1 I I #
point $-1 18.168729331024092 35.823856100821466 9.3396543935205401 #
straight-curve $-1 5.8360103536867207 35.823856100821466 1.8947183286766069 -1 0 0 I I #
point $-1 18.168729331024092 35.823856100821466 1.8947183286766105 #
point $-1 7.7739955331830615 30.51986818588346 3.7957502088479083 #
point $-1 11.672020707373441 30.51986818588346 3.7957502088479083 #
point $-1 15.570045881563836 30.51986818588346 3.7957502088479083 #
straight-curve $-1 46.41270267238361 35.823856100821466 62.803357443355694 0 0 -1 I I #
point $-1 46.41270267238361 35.823856100821466 9.3396543935205401 #
straight-curve $-1 19.957997024366481 35.823856100821466 1.8947183286766069 -1 0 0 I I #
point $-1 46.41270267238361 35.823856100821466 1.8947183286766105 #
point $-1 36.017968874542582 30.51986818588346 3.7957502088479083 #
point $-1 39.915994048732962 30.51986818588346 3.7957502088479083 #
point $-1 43.814019222923356 30.51986818588346 3.7957502088479083 #
straight-curve $-1 -72.013882933887444 0 -3.6453957013671889 0 1 0 I I #
straight-curve $-1 -72.013882933887444 -35.823856100821466 -2.1453957013671889 0 0 -1 I I #
point $-1 -72.013882933887444 -35.823856100821466 -3.6453957013671889 #
End-of-ACIS-data 