500 0 16 0           
7 Unknown 11 ACIS 5.0 NT 24 Fri Mar 26 02:14:26 1999 
-1 9.9999999999999995e-007 1e-010 
body $-1 $16 $-1 $17 #
body $-1 $18 $-1 $19 #
body $-1 $20 $-1 $21 #
body $-1 $22 $-1 $23 #
body $-1 $24 $-1 $25 #
body $-1 $26 $-1 $27 #
body $-1 $28 $-1 $29 #
body $-1 $30 $-1 $31 #
body $-1 $32 $-1 $33 #
body $-1 $34 $-1 $35 #
body $-1 $36 $-1 $37 #
body $-1 $38 $-1 $39 #
body $-1 $40 $-1 $41 #
body $-1 $42 $-1 $43 #
body $-1 $44 $-1 $45 #
body $-1 $46 $-1 $47 #
lump $-1 $-1 $48 $0 #
transform $-1 1 0 0 0 1 0 0 0 1 69.147618030335394 39.578765394529448 14.294110223055561 1 rotate no_reflect no_shear #
lump $-1 $-1 $49 $1 #
transform $-1 1 0 0 0 1 0 0 0 1 69.147618030335394 39.578765394529448 14.294110223055561 1 rotate no_reflect no_shear #
lump $-1 $-1 $50 $2 #
transform $-1 1 0 0 0 1 0 0 0 1 69.147618030335394 39.578765394529448 14.294110223055561 1 rotate no_reflect no_shear #
lump $-1 $-1 $51 $3 #
transform $-1 1 0 0 0 1 0 0 0 1 69.147618030335394 39.578765394529448 14.294110223055561 1 rotate no_reflect no_shear #
lump $-1 $-1 $52 $4 #
transform $-1 1 0 0 0 1 0 0 0 1 69.147618030335394 39.578765394529448 14.294110223055561 1 rotate no_reflect no_shear #
lump $-1 $-1 $53 $5 #
transform $-1 1 0 0 0 1 0 0 0 1 69.147618030335394 39.578765394529448 14.294110223055561 1 rotate no_reflect no_shear #
lump $-1 $-1 $54 $6 #
transform $-1 1 0 0 0 1 0 0 0 1 69.147618030335394 39.578765394529448 14.294110223055561 1 rotate no_reflect no_shear #
lump $-1 $-1 $55 $7 #
transform $-1 1 0 0 0 1 0 0 0 1 69.147618030335394 39.578765394529448 14.294110223055561 1 rotate no_reflect no_shear #
lump $-1 $-1 $56 $8 #
transform $-1 1 0 0 0 1 0 0 0 1 69.147618030335394 39.578765394529448 14.294110223055561 1 rotate no_reflect no_shear #
lump $-1 $-1 $57 $9 #
transform $-1 1 0 0 0 1 0 0 0 1 69.147618030335394 39.578765394529448 14.294110223055561 1 rotate no_reflect no_shear #
lump $-1 $-1 $58 $10 #
transform $-1 1 0 0 0 1 0 0 0 1 69.147618030335394 39.578765394529448 14.294110223055561 1 rotate no_reflect no_shear #
lump $-1 $-1 $59 $11 #
transform $-1 1 0 0 0 1 0 0 0 1 69.147618030335394 39.578765394529448 14.294110223055561 1 rotate no_reflect no_shear #
lump $-1 $-1 $60 $12 #
transform $-1 1 0 0 0 1 0 0 0 1 69.147618030335394 39.578765394529448 14.294110223055561 1 rotate no_reflect no_shear #
lump $-1 $-1 $61 $13 #
transform $-1 1 0 0 0 1 0 0 0 1 69.147618030335394 39.578765394529448 14.294110223055561 1 rotate no_reflect no_shear #
lump $-1 $-1 $62 $14 #
transform $-1 1 0 0 0 1 0 0 0 1 69.147618030335394 39.578765394529448 14.294110223055561 1 rotate no_reflect no_shear #
lump $-1 $-1 $63 $15 #
transform $-1 1 0 0 0 1 0 0 0 1 69.147618030335394 39.578765394529448 14.294110223055561 1 rotate no_reflect no_shear #
shell $-1 $-1 $-1 $64 $-1 $16 #
shell $-1 $-1 $-1 $65 $-1 $18 #
shell $-1 $-1 $-1 $66 $-1 $20 #
shell $-1 $-1 $-1 $67 $-1 $22 #
shell $-1 $-1 $-1 $68 $-1 $24 #
shell $-1 $-1 $-1 $69 $-1 $26 #
shell $-1 $-1 $-1 $70 $-1 $28 #
shell $-1 $-1 $-1 $71 $-1 $30 #
shell $-1 $-1 $-1 $72 $-1 $32 #
shell $-1 $-1 $-1 $73 $-1 $34 #
shell $-1 $-1 $-1 $74 $-1 $36 #
shell $-1 $-1 $-1 $75 $-1 $38 #
shell $-1 $-1 $-1 $76 $-1 $40 #
shell $-1 $-1 $-1 $77 $-1 $42 #
shell $-1 $-1 $-1 $78 $-1 $44 #
shell $-1 $-1 $-1 $79 $-1 $46 #
face $-1 $80 $81 $48 $-1 $82 forward single #
face $-1 $83 $84 $49 $-1 $85 forward single #
face $-1 $86 $87 $50 $-1 $88 reversed single #
face $-1 $89 $90 $51 $-1 $91 forward single #
face $-1 $92 $93 $52 $-1 $94 reversed single #
face $-1 $95 $96 $53 $-1 $97 forward single #
face $-1 $98 $99 $54 $-1 $100 forward single #
face $-1 $101 $102 $55 $-1 $103 reversed single #
face $-1 $104 $105 $56 $-1 $106 forward single #
face $-1 $107 $108 $57 $-1 $109 forward single #
face $-1 $110 $111 $58 $-1 $112 reversed single #
face $-1 $113 $114 $59 $-1 $115 forward single #
face $-1 $116 $117 $60 $-1 $118 forward single #
face $-1 $119 $120 $61 $-1 $121 reversed single #
face $-1 $122 $123 $62 $-1 $124 forward single #
face $-1 $125 $126 $63 $-1 $127 forward single #
face $-1 $128 $129 $48 $-1 $130 reversed single #
loop $-1 $-1 $131 $64 #
plane-surface $-1 0 0 14.294110223055561 0 0 1 1 0 0 forward_v I I I I #
face $-1 $132 $133 $49 $-1 $134 reversed single #
loop $-1 $-1 $135 $65 #
plane-surface $-1 0 -33.110465672889696 7.6481561508821727 0 0 1 1 0 0 forward_v I I I I #
face $-1 $136 $137 $50 $-1 $138 reversed single #
loop $-1 $-1 $139 $66 #
plane-surface $-1 28.484459402172206 -21.217592203454231 199.27377170906777 0 1 0 0.54463904215088732 0 0.83867056331134215 forward_v I I I I #
face $-1 $140 $141 $51 $-1 $142 forward single #
loop $-1 $143 $144 $67 #
cone-surface $-1 62.994300179963489 -14.682905767100266 9.1555214235937292 -0.54463904215088732 0 -0.83867056331134215 1.6773411266226843 0 -1.0892780843017746 1 I I 0 1 2 forward I I I I #
face $-1 $145 $146 $52 $-1 $147 reversed single #
loop $-1 $-1 $148 $68 #
plane-surface $-1 -181.03081537628958 -21.569946016662158 82.58182516564608 0 1 0 -0.80901700255871778 0 0.5877852410284794 forward_v I I I I #
face $-1 $149 $150 $53 $-1 $151 forward single #
loop $-1 $152 $153 $69 #
cone-surface $-1 -63.658635267408272 -19.063531878605939 7.237203648608709 0.80901700255871778 0 -0.5877852410284794 0.2938926205142397 0 0.40450850127935889 1 I I 0 1 0.5 forward I I I I #
face $-1 $154 $155 $54 $-1 $156 forward single #
loop $-1 $157 $158 $70 #
cone-surface $-1 -63.658635267408272 -15.303910671521614 7.237203648608709 0.80901700255871778 0 -0.5877852410284794 0.2938926205142397 0 0.40450850127935889 1 I I 0 1 0.5 forward I I I I #
face $-1 $159 $160 $55 $-1 $161 reversed single #
loop $-1 $-1 $162 $71 #
plane-surface $-1 -181.03081537628958 -5.8019320188598051 82.58182516564608 0 1 0 -0.80901700255871778 0 0.5877852410284794 forward_v I I I I #
face $-1 $163 $164 $56 $-1 $165 forward single #
loop $-1 $166 $167 $72 #
cone-surface $-1 -63.658635267408272 -3.2955178808035939 7.237203648608709 0.80901700255871778 0 -0.5877852410284794 0.2938926205142397 0 0.40450850127935889 1 I I 0 1 0.5 forward I I I I #
face $-1 $168 $169 $57 $-1 $170 forward single #
loop $-1 $171 $172 $73 #
cone-surface $-1 -63.658635267408272 0.46410332628073547 7.237203648608709 0.80901700255871778 0 -0.5877852410284794 0.2938926205142397 0 0.40450850127935889 1 I I 0 1 0.5 forward I I I I #
face $-1 $173 $174 $58 $-1 $175 reversed single #
loop $-1 $-1 $176 $74 #
plane-surface $-1 -181.03081537628958 9.9660819789425439 82.58182516564608 0 1 0 -0.80901700255871778 0 0.5877852410284794 forward_v I I I I #
face $-1 $177 $178 $59 $-1 $179 forward single #
loop $-1 $180 $181 $75 #
cone-surface $-1 -63.658635267408272 12.472496116998755 7.237203648608709 0.80901700255871778 0 -0.5877852410284794 0.2938926205142397 0 0.40450850127935889 1 I I 0 1 0.5 forward I I I I #
face $-1 $182 $183 $60 $-1 $184 forward single #
loop $-1 $185 $186 $76 #
cone-surface $-1 -63.658635267408272 16.232117324083084 7.237203648608709 0.80901700255871778 0 -0.5877852410284794 0.2938926205142397 0 0.40450850127935889 1 I I 0 1 0.5 forward I I I I #
face $-1 $187 $188 $61 $-1 $189 reversed single #
loop $-1 $-1 $190 $77 #
plane-surface $-1 -181.03081537628958 25.734095976744893 82.58182516564608 0 1 0 -0.80901700255871778 0 0.5877852410284794 forward_v I I I I #
face $-1 $191 $192 $62 $-1 $193 forward single #
loop $-1 $194 $195 $78 #
cone-surface $-1 -63.658635267408272 28.240510114801104 7.237203648608709 0.80901700255871778 0 -0.5877852410284794 0.2938926205142397 0 0.40450850127935889 1 I I 0 1 0.5 forward I I I I #
face $-1 $196 $197 $63 $-1 $198 forward single #
loop $-1 $199 $200 $79 #
cone-surface $-1 -63.658635267408272 32.000131321885426 7.237203648608709 0.80901700255871778 0 -0.5877852410284794 0.2938926205142397 0 0.40450850127935889 1 I I 0 1 0.5 forward I I I I #
face $-1 $201 $202 $48 $-1 $203 reversed single #
loop $-1 $-1 $204 $80 #
plane-surface $-1 0 0 -14.294110223055561 0 0 1 1 0 0 forward_v I I I I #
coedge $-1 $205 $206 $207 $208 forward $81 $-1 #
face $-1 $209 $210 $49 $-1 $211 reversed single #
loop $-1 $-1 $212 $83 #
plane-surface $-1 0 -33.110465672889696 1.7299312370327016 0 0 1 1 0 0 forward_v I I I I #
coedge $-1 $213 $214 $215 $216 reversed $84 $-1 #
face $-1 $217 $218 $50 $-1 $219 reversed single #
loop $-1 $-1 $220 $86 #
plane-surface $-1 -46.836525499942383 -14.682905767100266 83.289628178789968 0.54463904215088732 0 0.83867056331134215 0.83867056331134215 0 -0.54463904215088732 forward_v I I I I #
coedge $-1 $221 $222 $223 $224 reversed $87 $-1 #
face $-1 $-1 $225 $51 $-1 $226 forward single #
loop $-1 $227 $228 $89 #
cone-surface $-1 61.166525661970383 -14.682905767100266 6.3409955340106592 -0.54463904215088732 0 -0.83867056331134215 0.83867056331134215 0 -0.54463904215088732 1 I I -0.70710678118654779 0.70710678118654713 1 forward I I I I #
loop $-1 $-1 $229 $67 #
coedge $-1 $144 $144 $230 $231 reversed $90 $-1 #
face $-1 $232 $233 $52 $-1 $234 reversed single #
loop $-1 $-1 $235 $92 #
plane-surface $-1 -69.147618030335408 -17.183721275063778 1.2939265046342427 -0.80901700255871778 0 0.5877852410284794 0.5877852410284794 0 0.80901700255871778 forward_v I I I I #
coedge $-1 $236 $237 $238 $239 reversed $93 $-1 #
face $-1 $-1 $240 $53 $-1 $241 forward single #
loop $-1 $242 $243 $95 #
cone-surface $-1 -62.689991287225943 -19.063531878605939 6.5334426231153913 0.80901700255871778 0 -0.5877852410284794 0.14694631025711985 0 0.20225425063967944 1 I I -0.70710678118654746 0.70710678118654746 0.25 forward I I I I #
loop $-1 $-1 $244 $69 #
coedge $-1 $153 $153 $245 $246 reversed $96 $-1 #
face $-1 $-1 $247 $54 $-1 $248 forward single #
loop $-1 $249 $250 $98 #
cone-surface $-1 -62.689991287225943 -15.303910671521614 6.5334426231153913 0.80901700255871778 0 -0.5877852410284794 0.14694631025711985 0 0.20225425063967944 1 I I -0.70710678118654746 0.70710678118654746 0.25 forward I I I I #
loop $-1 $-1 $251 $70 #
coedge $-1 $158 $158 $252 $253 reversed $99 $-1 #
face $-1 $254 $255 $55 $-1 $256 reversed single #
loop $-1 $-1 $257 $101 #
plane-surface $-1 -69.147618030335408 -1.4157072772614256 1.2939265046342427 -0.80901700255871778 0 0.5877852410284794 0.5877852410284794 0 0.80901700255871778 forward_v I I I I #
coedge $-1 $258 $259 $260 $261 reversed $102 $-1 #
face $-1 $-1 $262 $56 $-1 $263 forward single #
loop $-1 $264 $265 $104 #
cone-surface $-1 -62.689991287225943 -3.2955178808035939 6.5334426231153913 0.80901700255871778 0 -0.5877852410284794 0.14694631025711985 0 0.20225425063967944 1 I I -0.70710678118654746 0.70710678118654746 0.25 forward I I I I #
loop $-1 $-1 $266 $72 #
coedge $-1 $167 $167 $267 $268 reversed $105 $-1 #
face $-1 $-1 $269 $57 $-1 $270 forward single #
loop $-1 $271 $272 $107 #
cone-surface $-1 -62.689991287225943 0.46410332628073547 6.5334426231153913 0.80901700255871778 0 -0.5877852410284794 0.14694631025711985 0 0.20225425063967944 1 I I -0.70710678118654746 0.70710678118654746 0.25 forward I I I I #
loop $-1 $-1 $273 $73 #
coedge $-1 $172 $172 $274 $275 reversed $108 $-1 #
face $-1 $276 $277 $58 $-1 $278 reversed single #
loop $-1 $-1 $279 $110 #
plane-surface $-1 -69.147618030335408 14.352306720540923 1.2939265046342427 -0.80901700255871778 0 0.5877852410284794 0.5877852410284794 0 0.80901700255871778 forward_v I I I I #
coedge $-1 $280 $281 $282 $283 reversed $111 $-1 #
face $-1 $-1 $284 $59 $-1 $285 forward single #
loop $-1 $286 $287 $113 #
cone-surface $-1 -62.689991287225943 12.472496116998755 6.5334426231153913 0.80901700255871778 0 -0.5877852410284794 0.14694631025711985 0 0.20225425063967944 1 I I -0.70710678118654746 0.70710678118654746 0.25 forward I I I I #
loop $-1 $-1 $288 $75 #
coedge $-1 $181 $181 $289 $290 reversed $114 $-1 #
face $-1 $-1 $291 $60 $-1 $292 forward single #
loop $-1 $293 $294 $116 #
cone-surface $-1 -62.689991287225943 16.232117324083084 6.5334426231153913 0.80901700255871778 0 -0.5877852410284794 0.14694631025711985 0 0.20225425063967944 1 I I -0.70710678118654746 0.70710678118654746 0.25 forward I I I I #
loop $-1 $-1 $295 $76 #
coedge $-1 $186 $186 $296 $297 reversed $117 $-1 #
face $-1 $298 $299 $61 $-1 $300 reversed single #
loop $-1 $-1 $301 $119 #
plane-surface $-1 -69.147618030335408 30.120320718343272 1.2939265046342427 -0.80901700255871778 0 0.5877852410284794 0.5877852410284794 0 0.80901700255871778 forward_v I I I I #
coedge $-1 $302 $303 $304 $305 reversed $120 $-1 #
face $-1 $-1 $306 $62 $-1 $307 forward single #
loop $-1 $308 $309 $122 #
cone-surface $-1 -62.689991287225943 28.240510114801104 6.5334426231153913 0.80901700255871778 0 -0.5877852410284794 0.14694631025711985 0 0.20225425063967944 1 I I -0.70710678118654746 0.70710678118654746 0.25 forward I I I I #
loop $-1 $-1 $310 $78 #
coedge $-1 $195 $195 $311 $312 reversed $123 $-1 #
face $-1 $-1 $313 $63 $-1 $314 forward single #
loop $-1 $315 $316 $125 #
cone-surface $-1 -62.689991287225943 32.000131321885426 6.5334426231153913 0.80901700255871778 0 -0.5877852410284794 0.14694631025711985 0 0.20225425063967944 1 I I -0.70710678118654746 0.70710678118654746 0.25 forward I I I I #
loop $-1 $-1 $317 $79 #
coedge $-1 $200 $200 $318 $319 reversed $126 $-1 #
face $-1 $320 $321 $48 $-1 $322 reversed single #
loop $-1 $-1 $323 $128 #
plane-surface $-1 0 -39.578765394529448 0 0 1 0 0 0 1 forward_v I I I I #
coedge $-1 $324 $325 $326 $327 forward $129 $-1 #
coedge $-1 $328 $131 $329 $330 forward $81 $-1 #
coedge $-1 $131 $328 $331 $332 forward $81 $-1 #
coedge $-1 $333 $334 $131 $208 reversed $335 $-1 #
edge $-1 $336 -39.578765394529448 $337 39.578765394529448 $207 $338 forward 7 unknown #
face $-1 $339 $340 $49 $-1 $341 reversed single #
loop $-1 $-1 $342 $132 #
plane-surface $-1 0 -26.642165951249943 4.6890436939574371 0 -1 0 0 0 -1 forward_v I I I I #
coedge $-1 $343 $344 $345 $346 reversed $133 $-1 #
coedge $-1 $347 $135 $348 $349 forward $84 $-1 #
coedge $-1 $135 $347 $350 $351 reversed $84 $-1 #
coedge $-1 $352 $353 $135 $216 forward $354 $-1 #
edge $-1 $355 10.086933114805095 $356 23.0235325580846 $215 $357 forward 7 unknown #
face $-1 $358 $359 $50 $-1 $360 forward single #
loop $-1 $-1 $361 $136 #
plane-surface $-1 28.484459402172206 -8.1482193307463007 199.27377170906777 0 -1 0 -0.54463904215088732 0 -0.83867056331134215 forward_v I I I I #
coedge $-1 $362 $363 $364 $365 reversed $137 $-1 #
coedge $-1 $222 $139 $366 $367 reversed $87 $-1 #
coedge $-1 $139 $221 $362 $368 reversed $87 $-1 #
coedge $-1 $364 $369 $139 $224 forward $370 $-1 #
edge $-1 $371 85.342775631478332 $372 91.668242577858493 $223 $373 forward 7 unknown #
loop $-1 $-1 $230 $140 #
plane-surface $-1 -46.836525499942383 -14.682905767100266 83.289628178789968 0.54463904215088732 0 0.83867056331134215 0.83867056331134215 0 -0.54463904215088732 forward_v I I I I #
loop $-1 $-1 $374 $89 #
coedge $-1 $228 $228 $229 $375 reversed $141 $-1 #
coedge $-1 $229 $229 $228 $375 forward $143 $-1 #
coedge $-1 $230 $230 $144 $231 forward $225 $-1 #
edge $-1 $376 0 $376 6.2831853071796004 $230 $377 forward 7 unknown #
face $-1 $378 $379 $52 $-1 $380 reversed single #
loop $-1 $-1 $381 $145 #
plane-surface $-1 -181.03081537628958 -12.797496533465399 82.58182516564608 0 -1 0 0.80901700255871778 0 -0.5877852410284794 forward_v I I I I #
coedge $-1 $382 $383 $384 $385 reversed $146 $-1 #
coedge $-1 $237 $148 $386 $387 reversed $93 $-1 #
coedge $-1 $148 $236 $382 $388 reversed $93 $-1 #
coedge $-1 $384 $389 $148 $239 forward $390 $-1 #
edge $-1 $391 21.367789657809396 $392 30.812975724578337 $238 $393 forward 7 unknown #
loop $-1 $-1 $245 $149 #
plane-surface $-1 -69.147618030335408 -17.183721275063778 1.2939265046342427 -0.80901700255871778 0 0.5877852410284794 0.5877852410284794 0 0.80901700255871778 forward_v I I I I #
loop $-1 $-1 $394 $95 #
coedge $-1 $243 $243 $244 $395 reversed $150 $-1 #
coedge $-1 $244 $244 $243 $395 forward $152 $-1 #
coedge $-1 $245 $245 $153 $246 forward $240 $-1 #
edge $-1 $396 0 $396 6.2831853071796004 $245 $397 forward 7 unknown #
loop $-1 $-1 $252 $154 #
plane-surface $-1 -69.147618030335408 -17.183721275063778 1.2939265046342427 -0.80901700255871778 0 0.5877852410284794 0.5877852410284794 0 0.80901700255871778 forward_v I I I I #
loop $-1 $-1 $398 $98 #
coedge $-1 $250 $250 $251 $399 reversed $155 $-1 #
coedge $-1 $251 $251 $250 $399 forward $157 $-1 #
coedge $-1 $252 $252 $158 $253 forward $247 $-1 #
edge $-1 $400 0 $400 6.2831853071796004 $252 $401 forward 7 unknown #
face $-1 $402 $403 $55 $-1 $404 forward single #
loop $-1 $-1 $405 $159 #
plane-surface $-1 -181.03081537628958 2.9705174643369539 82.58182516564608 0 -1 0 0.80901700255871778 0 -0.5877852410284794 forward_v I I I I #
coedge $-1 $406 $407 $408 $409 reversed $160 $-1 #
coedge $-1 $259 $162 $410 $411 reversed $102 $-1 #
coedge $-1 $162 $258 $406 $412 reversed $102 $-1 #
coedge $-1 $408 $413 $162 $261 forward $403 $-1 #
edge $-1 $414 21.367789657809396 $415 30.812975724578337 $260 $416 forward 7 unknown #
loop $-1 $-1 $267 $163 #
plane-surface $-1 -69.147618030335408 -1.4157072772614256 1.2939265046342427 -0.80901700255871778 0 0.5877852410284794 0.5877852410284794 0 0.80901700255871778 forward_v I I I I #
loop $-1 $-1 $417 $104 #
coedge $-1 $265 $265 $266 $418 reversed $164 $-1 #
coedge $-1 $266 $266 $265 $418 forward $166 $-1 #
coedge $-1 $267 $267 $167 $268 forward $262 $-1 #
edge $-1 $419 0 $419 6.2831853071796004 $267 $420 forward 7 unknown #
loop $-1 $-1 $274 $168 #
plane-surface $-1 -69.147618030335408 -1.4157072772614256 1.2939265046342427 -0.80901700255871778 0 0.5877852410284794 0.5877852410284794 0 0.80901700255871778 forward_v I I I I #
loop $-1 $-1 $421 $107 #
coedge $-1 $272 $272 $273 $422 reversed $169 $-1 #
coedge $-1 $273 $273 $272 $422 forward $171 $-1 #
coedge $-1 $274 $274 $172 $275 forward $269 $-1 #
edge $-1 $423 0 $423 6.2831853071796004 $274 $424 forward 7 unknown #
face $-1 $425 $426 $58 $-1 $427 forward single #
loop $-1 $-1 $428 $173 #
plane-surface $-1 -181.03081537628958 18.738531462139303 82.58182516564608 0 -1 0 0.80901700255871778 0 -0.5877852410284794 forward_v I I I I #
coedge $-1 $429 $430 $431 $432 reversed $174 $-1 #
coedge $-1 $281 $176 $433 $434 reversed $111 $-1 #
coedge $-1 $176 $280 $429 $435 reversed $111 $-1 #
coedge $-1 $431 $436 $176 $283 forward $426 $-1 #
edge $-1 $437 21.367789657809396 $438 30.812975724578337 $282 $439 forward 7 unknown #
loop $-1 $-1 $289 $177 #
plane-surface $-1 -69.147618030335408 14.352306720540923 1.2939265046342427 -0.80901700255871778 0 0.5877852410284794 0.5877852410284794 0 0.80901700255871778 forward_v I I I I #
loop $-1 $-1 $440 $113 #
coedge $-1 $287 $287 $288 $441 reversed $178 $-1 #
coedge $-1 $288 $288 $287 $441 forward $180 $-1 #
coedge $-1 $289 $289 $181 $290 forward $284 $-1 #
edge $-1 $442 0 $442 6.2831853071796004 $289 $443 forward 7 unknown #
loop $-1 $-1 $296 $182 #
plane-surface $-1 -69.147618030335408 14.352306720540923 1.2939265046342427 -0.80901700255871778 0 0.5877852410284794 0.5877852410284794 0 0.80901700255871778 forward_v I I I I #
loop $-1 $-1 $444 $116 #
coedge $-1 $294 $294 $295 $445 reversed $183 $-1 #
coedge $-1 $295 $295 $294 $445 forward $185 $-1 #
coedge $-1 $296 $296 $186 $297 forward $291 $-1 #
edge $-1 $446 0 $446 6.2831853071796004 $296 $447 forward 7 unknown #
face $-1 $448 $449 $61 $-1 $450 forward single #
loop $-1 $-1 $451 $187 #
plane-surface $-1 -181.03081537628958 34.506545459941648 82.58182516564608 0 -1 0 0.80901700255871778 0 -0.5877852410284794 forward_v I I I I #
coedge $-1 $452 $453 $454 $455 reversed $188 $-1 #
coedge $-1 $303 $190 $456 $457 reversed $120 $-1 #
coedge $-1 $190 $302 $452 $458 reversed $120 $-1 #
coedge $-1 $454 $459 $190 $305 forward $449 $-1 #
edge $-1 $460 21.367789657809396 $461 30.812975724578337 $304 $462 forward 7 unknown #
loop $-1 $-1 $311 $191 #
plane-surface $-1 -69.147618030335408 30.120320718343272 1.2939265046342427 -0.80901700255871778 0 0.5877852410284794 0.5877852410284794 0 0.80901700255871778 forward_v I I I I #
loop $-1 $-1 $463 $122 #
coedge $-1 $309 $309 $310 $464 reversed $192 $-1 #
coedge $-1 $310 $310 $309 $464 forward $194 $-1 #
coedge $-1 $311 $311 $195 $312 forward $306 $-1 #
edge $-1 $465 0 $465 6.2831853071796004 $311 $466 forward 7 unknown #
loop $-1 $-1 $318 $196 #
plane-surface $-1 -69.147618030335408 30.120320718343272 1.2939265046342427 -0.80901700255871778 0 0.5877852410284794 0.5877852410284794 0 0.80901700255871778 forward_v I I I I #
loop $-1 $-1 $467 $125 #
coedge $-1 $316 $316 $317 $468 reversed $197 $-1 #
coedge $-1 $317 $317 $316 $468 forward $199 $-1 #
coedge $-1 $318 $318 $200 $319 forward $313 $-1 #
edge $-1 $469 0 $469 6.2831853071796004 $318 $470 forward 7 unknown #
face $-1 $471 $472 $48 $-1 $473 reversed single #
loop $-1 $-1 $474 $201 #
plane-surface $-1 -69.147618030335394 0 0 1 0 0 0 0 -1 forward_v I I I I #
coedge $-1 $475 $331 $476 $477 forward $202 $-1 #
coedge $-1 $478 $204 $475 $479 forward $129 $-1 #
coedge $-1 $204 $478 $480 $481 forward $129 $-1 #
coedge $-1 $334 $333 $204 $327 reversed $335 $-1 #
edge $-1 $482 -39.578765394529448 $483 39.578765394529448 $326 $484 forward 7 unknown #
coedge $-1 $206 $205 $485 $486 forward $81 $-1 #
coedge $-1 $487 $488 $205 $330 reversed $472 $-1 #
edge $-1 $337 -69.147618030335394 $489 69.147618030335394 $329 $490 forward 7 unknown #
coedge $-1 $323 $491 $206 $332 reversed $202 $-1 #
edge $-1 $492 -69.147618030335394 $336 69.147618030335394 $331 $493 forward 7 unknown #
coedge $-1 $326 $207 $491 $494 forward $335 $-1 #
coedge $-1 $207 $326 $487 $495 reversed $335 $-1 #
loop $-1 $-1 $333 $471 #
vertex $-1 $208 $496 #
vertex $-1 $208 $497 #
straight-curve $-1 69.147618030335394 0 14.294110223055561 0 1 0 I I #
face $-1 $498 $499 $49 $-1 $500 reversed single #
loop $-1 $-1 $501 $209 #
plane-surface $-1 -69.147618030335394 0 0 1 0 0 0 0 -1 forward_v I I I I #
coedge $-1 $502 $348 $353 $503 reversed $210 $-1 #
coedge $-1 $504 $212 $505 $506 reversed $133 $-1 #
coedge $-1 $212 $504 $502 $507 forward $133 $-1 #
coedge $-1 $353 $352 $212 $346 forward $354 $-1 #
edge $-1 $508 -23.0235325580846 $509 -10.086933114805095 $345 $510 forward 7 unknown #
coedge $-1 $214 $213 $501 $511 reversed $84 $-1 #
coedge $-1 $342 $512 $213 $349 reversed $210 $-1 #
edge $-1 $355 -69.147618030335394 $513 69.147618030335394 $348 $514 forward 7 unknown #
coedge $-1 $515 $516 $214 $351 forward $499 $-1 #
edge $-1 $356 -69.147618030335394 $517 69.147618030335394 $350 $518 forward 7 unknown #
coedge $-1 $345 $215 $516 $519 forward $354 $-1 #
coedge $-1 $215 $345 $342 $503 forward $354 $-1 #
loop $-1 $-1 $215 $498 #
vertex $-1 $216 $520 #
vertex $-1 $519 $521 #
straight-curve $-1 69.147618030335394 -16.555232836444848 7.6481561508821727 0 -1 0 I I #
face $-1 $-1 $370 $50 $-1 $522 reversed single #
loop $-1 $-1 $523 $217 #
plane-surface $-1 0 0 14.294110223055561 0 0 1 1 0 0 forward_v I I I I #
coedge $-1 $524 $525 $526 $527 reversed $218 $-1 #
coedge $-1 $528 $220 $222 $368 forward $137 $-1 #
coedge $-1 $220 $528 $524 $529 forward $137 $-1 #
coedge $-1 $526 $223 $220 $365 forward $370 $-1 #
edge $-1 $372 -13.876139319904098 $530 -0.80676644719616775 $364 $531 forward 7 unknown #
coedge $-1 $532 $533 $221 $367 forward $359 $-1 #
edge $-1 $534 45.165023580189995 $371 54.905388329249291 $366 $535 forward 7 unknown #
edge $-1 $372 -138.29523606067076 $534 -126.68118261088566 $222 $536 forward 7 unknown #
coedge $-1 $223 $526 $532 $537 reversed $370 $-1 #
loop $-1 $-1 $526 $358 #
vertex $-1 $537 $538 #
vertex $-1 $224 $539 #
straight-curve $-1 69.147618030335394 -21.217592203454231 99.636885854533887 0 0 -1 I I #
coedge $-1 $374 $374 $-1 $540 reversed $227 $-1 #
edge $-1 $541 0 $541 6.2831853071796004 $228 $542 forward 7 unknown #
vertex $-1 $231 $543 #
ellipse-curve $-1 64.277435655805732 -14.682905767100266 11.13137674986549 0.54463904215088732 0 0.83867056331134215 1.6773411266226843 0 -1.0892780843017746 1 I I #
face $-1 $-1 $390 $52 $-1 $544 forward single #
loop $-1 $-1 $545 $232 #
plane-surface $-1 -69.147618030335394 0 0 1 0 0 0 0 -1 forward_v I I I I #
coedge $-1 $546 $547 $548 $549 reversed $233 $-1 #
coedge $-1 $550 $235 $237 $388 forward $146 $-1 #
coedge $-1 $235 $550 $546 $551 forward $146 $-1 #
coedge $-1 $548 $238 $235 $385 forward $390 $-1 #
edge $-1 $392 -12.978085379130269 $552 -4.2056358959335096 $384 $553 forward 7 unknown #
coedge $-1 $554 $555 $236 $387 forward $379 $-1 #
edge $-1 $556 -39.996986078188776 $391 -26.996802359767479 $386 $557 forward 7 unknown #
edge $-1 $392 -16.069110633404485 $556 -2.4161062406544664e-014 $237 $558 forward 7 unknown #
coedge $-1 $238 $548 $554 $559 forward $390 $-1 #
loop $-1 $-1 $548 $378 #
vertex $-1 $387 $560 #
vertex $-1 $239 $561 #
straight-curve $-1 -90.515407688144791 -21.569946016662158 14.294110223055561 1 0 0 I I #
coedge $-1 $394 $394 $-1 $562 reversed $242 $-1 #
edge $-1 $563 0 $563 6.2831853071796004 $243 $564 forward 7 unknown #
vertex $-1 $246 $565 #
ellipse-curve $-1 -64.425024996950924 -19.063531878605939 7.794018363844911 -0.80901700255871778 0 0.5877852410284794 0.2938926205142397 0 0.40450850127935889 1 I I #
coedge $-1 $398 $398 $-1 $566 reversed $249 $-1 #
edge $-1 $567 0 $567 6.2831853071796004 $250 $568 forward 7 unknown #
vertex $-1 $253 $569 #
ellipse-curve $-1 -64.425024996950924 -15.303910671521614 7.794018363844911 -0.80901700255871778 0 0.5877852410284794 0.2938926205142397 0 0.40450850127935889 1 I I #
face $-1 $-1 $570 $55 $-1 $571 reversed single #
loop $-1 $-1 $260 $254 #
plane-surface $-1 0 0 14.294110223055561 0 0 1 1 0 0 forward_v I I I I #
coedge $-1 $572 $573 $574 $575 reversed $255 $-1 #
coedge $-1 $576 $257 $259 $412 forward $160 $-1 #
coedge $-1 $257 $576 $572 $577 forward $160 $-1 #
coedge $-1 $574 $260 $257 $409 forward $403 $-1 #
edge $-1 $415 -5.0940783802290923 $578 3.6783711029676667 $408 $579 forward 7 unknown #
coedge $-1 $580 $581 $258 $411 forward $570 $-1 #
edge $-1 $582 -39.996986078188776 $414 -26.996802359767479 $410 $583 forward 7 unknown #
edge $-1 $415 -16.069110633404485 $582 -2.4161062406544664e-014 $259 $584 forward 7 unknown #
coedge $-1 $260 $574 $580 $585 forward $403 $-1 #
vertex $-1 $261 $586 #
vertex $-1 $261 $587 #
straight-curve $-1 -90.515407688144791 -5.8019320188598051 14.294110223055561 1 0 0 I I #
coedge $-1 $417 $417 $-1 $588 reversed $264 $-1 #
edge $-1 $589 0 $589 6.2831853071796004 $265 $590 forward 7 unknown #
vertex $-1 $268 $591 #
ellipse-curve $-1 -64.425024996950924 -3.2955178808035939 7.794018363844911 -0.80901700255871778 0 0.5877852410284794 0.2938926205142397 0 0.40450850127935889 1 I I #
coedge $-1 $421 $421 $-1 $592 reversed $271 $-1 #
edge $-1 $593 0 $593 6.2831853071796004 $272 $594 forward 7 unknown #
vertex $-1 $275 $595 #
ellipse-curve $-1 -64.425024996950924 0.46410332628073547 7.794018363844911 -0.80901700255871778 0 0.5877852410284794 0.2938926205142397 0 0.40450850127935889 1 I I #
face $-1 $-1 $596 $58 $-1 $597 reversed single #
loop $-1 $-1 $282 $276 #
plane-surface $-1 0 0 14.294110223055561 0 0 1 1 0 0 forward_v I I I I #
coedge $-1 $598 $599 $600 $601 reversed $277 $-1 #
coedge $-1 $602 $279 $281 $435 forward $174 $-1 #
coedge $-1 $279 $602 $598 $603 forward $174 $-1 #
coedge $-1 $600 $282 $279 $432 forward $426 $-1 #
edge $-1 $438 2.7899286186720822 $604 11.562378101868841 $431 $605 forward 7 unknown #
coedge $-1 $606 $607 $280 $434 forward $596 $-1 #
edge $-1 $608 -39.996986078188776 $437 -26.996802359767479 $433 $609 forward 7 unknown #
edge $-1 $438 -16.069110633404485 $608 -2.4161062406544664e-014 $281 $610 forward 7 unknown #
coedge $-1 $282 $600 $606 $611 forward $426 $-1 #
vertex $-1 $283 $612 #
vertex $-1 $283 $613 #
straight-curve $-1 -90.515407688144791 9.9660819789425439 14.294110223055561 1 0 0 I I #
coedge $-1 $440 $440 $-1 $614 reversed $286 $-1 #
edge $-1 $615 0 $615 6.2831853071796004 $287 $616 forward 7 unknown #
vertex $-1 $290 $617 #
ellipse-curve $-1 -64.425024996950924 12.472496116998755 7.794018363844911 -0.80901700255871778 0 0.5877852410284794 0.2938926205142397 0 0.40450850127935889 1 I I #
coedge $-1 $444 $444 $-1 $618 reversed $293 $-1 #
edge $-1 $619 0 $619 6.2831853071796004 $294 $620 forward 7 unknown #
vertex $-1 $297 $621 #
ellipse-curve $-1 -64.425024996950924 16.232117324083084 7.794018363844911 -0.80901700255871778 0 0.5877852410284794 0.2938926205142397 0 0.40450850127935889 1 I I #
face $-1 $-1 $622 $61 $-1 $623 reversed single #
loop $-1 $-1 $304 $298 #
plane-surface $-1 0 0 14.294110223055561 0 0 1 1 0 0 forward_v I I I I #
coedge $-1 $624 $625 $626 $627 reversed $299 $-1 #
coedge $-1 $628 $301 $303 $458 forward $188 $-1 #
coedge $-1 $301 $628 $624 $629 forward $188 $-1 #
coedge $-1 $626 $304 $301 $455 forward $449 $-1 #
edge $-1 $461 10.673935617573257 $630 19.446385100770012 $454 $631 forward 7 unknown #
coedge $-1 $632 $633 $302 $457 forward $622 $-1 #
edge $-1 $634 -39.996986078188776 $460 -26.996802359767479 $456 $635 forward 7 unknown #
edge $-1 $461 -16.069110633404485 $634 -2.4161062406544664e-014 $303 $636 forward 7 unknown #
coedge $-1 $304 $626 $632 $637 forward $449 $-1 #
vertex $-1 $305 $638 #
vertex $-1 $305 $639 #
straight-curve $-1 -90.515407688144791 25.734095976744893 14.294110223055561 1 0 0 I I #
coedge $-1 $463 $463 $-1 $640 reversed $308 $-1 #
edge $-1 $641 0 $641 6.2831853071796004 $309 $642 forward 7 unknown #
vertex $-1 $312 $643 #
ellipse-curve $-1 -64.425024996950924 28.240510114801104 7.794018363844911 -0.80901700255871778 0 0.5877852410284794 0.2938926205142397 0 0.40450850127935889 1 I I #
coedge $-1 $467 $467 $-1 $644 reversed $315 $-1 #
edge $-1 $645 0 $645 6.2831853071796004 $316 $646 forward 7 unknown #
vertex $-1 $319 $647 #
ellipse-curve $-1 -64.425024996950924 32.000131321885426 7.794018363844911 -0.80901700255871778 0 0.5877852410284794 0.2938926205142397 0 0.40450850127935889 1 I I #
face $-1 $-1 $335 $48 $-1 $648 reversed single #
loop $-1 $-1 $487 $320 #
plane-surface $-1 0 39.578765394529448 0 0 -1 0 0 0 -1 forward_v I I I I #
coedge $-1 $649 $485 $488 $650 forward $321 $-1 #
coedge $-1 $491 $323 $324 $479 reversed $202 $-1 #
coedge $-1 $485 $649 $323 $477 reversed $321 $-1 #
edge $-1 $492 -14.294110223055561 $651 14.294110223055561 $476 $652 forward 7 unknown #
coedge $-1 $325 $324 $649 $653 forward $129 $-1 #
edge $-1 $483 -69.147618030335394 $651 69.147618030335394 $475 $654 forward 7 unknown #
coedge $-1 $488 $487 $325 $481 reversed $472 $-1 #
edge $-1 $655 -69.147618030335394 $482 69.147618030335394 $480 $656 forward 7 unknown #
vertex $-1 $327 $657 #
vertex $-1 $494 $658 #
straight-curve $-1 69.147618030335394 0 -14.294110223055561 0 -1 0 I I #
coedge $-1 $474 $476 $328 $486 reversed $321 $-1 #
edge $-1 $489 -39.578765394529448 $492 39.578765394529448 $485 $659 forward 7 unknown #
coedge $-1 $480 $329 $334 $495 forward $472 $-1 #
coedge $-1 $329 $480 $474 $650 reversed $472 $-1 #
vertex $-1 $330 $660 #
straight-curve $-1 0 39.578765394529448 14.294110223055561 -1 0 0 I I #
coedge $-1 $331 $475 $333 $494 reversed $202 $-1 #
vertex $-1 $486 $661 #
straight-curve $-1 0 -39.578765394529448 14.294110223055561 1 0 0 I I #
edge $-1 $336 -14.294110223055561 $483 14.294110223055561 $333 $662 forward 7 unknown #
edge $-1 $337 -14.294110223055561 $482 14.294110223055561 $334 $663 forward 7 unknown #
point $-1 69.147618030335394 -39.578765394529448 14.294110223055561 #
point $-1 69.147618030335394 39.578765394529448 14.294110223055561 #
face $-1 $-1 $354 $49 $-1 $664 reversed single #
loop $-1 $-1 $350 $339 #
plane-surface $-1 0 -39.578765394529448 0 0 1 0 0 0 1 forward_v I I I I #
coedge $-1 $665 $666 $347 $511 forward $340 $-1 #
coedge $-1 $512 $342 $344 $507 reversed $210 $-1 #
edge $-1 $509 -0.614590609946017 $355 5.3036343039034541 $353 $667 forward 7 unknown #
coedge $-1 $344 $343 $668 $669 reversed $133 $-1 #
coedge $-1 $516 $515 $343 $506 forward $499 $-1 #
edge $-1 $670 -69.147618030335394 $508 69.147618030335394 $505 $671 forward 7 unknown #
edge $-1 $672 -69.147618030335394 $509 69.147618030335394 $502 $673 forward 7 unknown #
vertex $-1 $506 $674 #
vertex $-1 $346 $675 #
straight-curve $-1 69.147618030335394 -16.555232836444848 1.7299312370327016 0 1 0 I I #
edge $-1 $517 -23.0235325580846 $513 -10.086933114805095 $501 $676 forward 7 unknown #
coedge $-1 $348 $502 $665 $677 reversed $210 $-1 #
vertex $-1 $511 $678 #
straight-curve $-1 0 -26.642165951249943 7.6481561508821727 -1 0 0 I I #
coedge $-1 $505 $350 $666 $679 forward $499 $-1 #
coedge $-1 $350 $505 $352 $519 reversed $499 $-1 #
vertex $-1 $679 $680 #
straight-curve $-1 0 -39.578765394529448 7.6481561508821727 -1 0 0 I I #
edge $-1 $356 -7.6481561508821727 $508 -1.7299312370327016 $352 $681 forward 7 unknown #
point $-1 69.147618030335394 -26.642165951249943 7.6481561508821727 #
point $-1 69.147618030335394 -39.578765394529448 7.6481561508821727 #
plane-surface $-1 69.147618030335394 0 0 -1 0 0 0 0 1 forward_v I I I I #
coedge $-1 $533 $532 $525 $682 forward $359 $-1 #
coedge $-1 $525 $361 $363 $529 reversed $218 $-1 #
coedge $-1 $361 $524 $523 $682 reversed $218 $-1 #
coedge $-1 $369 $364 $361 $527 forward $370 $-1 #
edge $-1 $530 -91.668242577858493 $683 -85.342775631478332 $526 $684 forward 7 unknown #
coedge $-1 $363 $362 $533 $685 reversed $137 $-1 #
edge $-1 $686 126.68118261088566 $530 138.29523606067076 $524 $687 forward 7 unknown #
vertex $-1 $365 $688 #
straight-curve $-1 69.147618030335394 -7.3414528835501329 7.968643276675401 0 1 0 I I #
coedge $-1 $523 $366 $369 $537 forward $359 $-1 #
coedge $-1 $366 $523 $528 $685 forward $359 $-1 #
vertex $-1 $367 $689 #
straight-curve $-1 14.242229701086103 -21.217592203454231 14.294110223055554 1 0 0 I I #
straight-curve $-1 -46.836525499942383 -21.217592203454231 83.289628178789968 -0.83867056331134215 0 0.54463904215088732 I I #
edge $-1 $371 -21.217592203454231 $683 -8.1482193307463007 $369 $690 forward 7 unknown #
point $-1 69.147618030335394 -21.217592203454231 14.294110223055561 #
point $-1 69.147618030335408 -21.217592203454231 7.9686432766753938 #
edge $-1 $691 1 $691 0 $374 $-1 forward 7 unknown #
vertex $-1 $375 $692 #
ellipse-curve $-1 61.711164704121266 -14.682905767100266 7.1796660973220003 0.54463904215088732 0 0.83867056331134215 1.6773411266226843 0 -1.0892780843017746 1 I I #
point $-1 65.954776782428397 -14.682905767100266 10.042098665563682 #
plane-surface $-1 0 0 14.294110223055561 0 0 1 1 0 0 forward_v I I I I #
coedge $-1 $555 $554 $547 $693 forward $379 $-1 #
coedge $-1 $547 $381 $383 $551 reversed $233 $-1 #
coedge $-1 $381 $546 $545 $693 reversed $233 $-1 #
coedge $-1 $389 $384 $381 $549 forward $390 $-1 #
edge $-1 $552 -30.812975724578337 $694 -21.367789657809396 $548 $695 forward 7 unknown #
coedge $-1 $383 $382 $555 $696 reversed $146 $-1 #
edge $-1 $697 2.4161062406544664e-014 $552 16.069110633404485 $546 $698 forward 7 unknown #
vertex $-1 $385 $699 #
straight-curve $-1 -59.702431963566447 -8.5918606375318891 14.294110223055561 0 1 0 I I #
coedge $-1 $545 $386 $389 $559 reversed $379 $-1 #
coedge $-1 $386 $545 $550 $696 forward $379 $-1 #
vertex $-1 $387 $700 #
straight-curve $-1 -69.147618030335394 -21.569946016662158 41.29091258282304 0 0 1 I I #
straight-curve $-1 -69.147618030335408 -21.569946016662158 1.2939265046342427 -0.5877852410284794 0 -0.80901700255871778 I I #
edge $-1 $694 12.797496533465399 $391 21.569946016662158 $554 $701 forward 7 unknown #
point $-1 -69.147618030335394 -21.569946016662158 14.294110223055561 #
point $-1 -59.702431963566454 -21.569946016662158 14.294110223055561 #
edge $-1 $702 1 $702 0 $394 $-1 forward 7 unknown #
vertex $-1 $395 $703 #
ellipse-curve $-1 -62.89224553786562 -19.063531878605939 6.6803889333725115 -0.80901700255871778 0 0.5877852410284794 0.2938926205142397 0 0.40450850127935889 1 I I #
point $-1 -64.131132376436682 -19.063531878605939 8.1985268651242666 #
edge $-1 $704 1 $704 0 $398 $-1 forward 7 unknown #
vertex $-1 $399 $705 #
ellipse-curve $-1 -62.89224553786562 -15.303910671521614 6.6803889333725115 -0.80901700255871778 0 0.5877852410284794 0.2938926205142397 0 0.40450850127935889 1 I I #
point $-1 -64.131132376436682 -15.303910671521614 8.1985268651242666 #
loop $-1 $-1 $410 $402 #
plane-surface $-1 -69.147618030335394 0 0 1 0 0 0 0 -1 forward_v I I I I #
coedge $-1 $573 $405 $407 $577 reversed $255 $-1 #
coedge $-1 $405 $572 $706 $707 reversed $255 $-1 #
coedge $-1 $413 $408 $405 $575 forward $403 $-1 #
edge $-1 $578 -30.812975724578337 $708 -21.367789657809396 $574 $709 forward 7 unknown #
coedge $-1 $407 $406 $581 $710 reversed $160 $-1 #
edge $-1 $711 2.4161062406544664e-014 $578 16.069110633404485 $572 $712 forward 7 unknown #
vertex $-1 $409 $713 #
straight-curve $-1 -59.702431963566447 -0.70785363863071282 14.294110223055561 0 1 0 I I #
coedge $-1 $706 $410 $413 $585 reversed $570 $-1 #
coedge $-1 $410 $706 $576 $710 forward $570 $-1 #
vertex $-1 $411 $714 #
straight-curve $-1 -69.147618030335394 -5.8019320188598051 41.29091258282304 0 0 1 I I #
straight-curve $-1 -69.147618030335408 -5.8019320188598051 1.2939265046342427 -0.5877852410284794 0 -0.80901700255871778 I I #
edge $-1 $708 -2.9705174643369539 $414 5.8019320188598051 $580 $715 forward 7 unknown #
point $-1 -69.147618030335394 -5.8019320188598051 14.294110223055561 #
point $-1 -59.702431963566454 -5.8019320188598051 14.294110223055561 #
edge $-1 $716 1 $716 0 $417 $-1 forward 7 unknown #
vertex $-1 $418 $717 #
ellipse-curve $-1 -62.89224553786562 -3.2955178808035939 6.6803889333725115 -0.80901700255871778 0 0.5877852410284794 0.2938926205142397 0 0.40450850127935889 1 I I #
point $-1 -64.131132376436682 -3.2955178808035939 8.1985268651242666 #
edge $-1 $718 1 $718 0 $421 $-1 forward 7 unknown #
vertex $-1 $422 $719 #
ellipse-curve $-1 -62.89224553786562 0.46410332628073547 6.6803889333725115 -0.80901700255871778 0 0.5877852410284794 0.2938926205142397 0 0.40450850127935889 1 I I #
point $-1 -64.131132376436682 0.46410332628073547 8.1985268651242666 #
loop $-1 $-1 $433 $425 #
plane-surface $-1 -69.147618030335394 0 0 1 0 0 0 0 -1 forward_v I I I I #
coedge $-1 $599 $428 $430 $603 reversed $277 $-1 #
coedge $-1 $428 $598 $720 $721 reversed $277 $-1 #
coedge $-1 $436 $431 $428 $601 forward $426 $-1 #
edge $-1 $604 -30.812975724578337 $722 -21.367789657809396 $600 $723 forward 7 unknown #
coedge $-1 $430 $429 $607 $724 reversed $174 $-1 #
edge $-1 $725 2.4161062406544664e-014 $604 16.069110633404485 $598 $726 forward 7 unknown #
vertex $-1 $432 $727 #
straight-curve $-1 -59.702431963566447 7.1761533602704617 14.294110223055561 0 1 0 I I #
coedge $-1 $720 $433 $436 $611 reversed $596 $-1 #
coedge $-1 $433 $720 $602 $724 forward $596 $-1 #
vertex $-1 $434 $728 #
straight-curve $-1 -69.147618030335394 9.9660819789425439 41.29091258282304 0 0 1 I I #
straight-curve $-1 -69.147618030335408 9.9660819789425439 1.2939265046342427 -0.5877852410284794 0 -0.80901700255871778 I I #
edge $-1 $722 -18.738531462139303 $437 -9.9660819789425439 $606 $729 forward 7 unknown #
point $-1 -69.147618030335394 9.9660819789425439 14.294110223055561 #
point $-1 -59.702431963566454 9.9660819789425439 14.294110223055561 #
edge $-1 $730 1 $730 0 $440 $-1 forward 7 unknown #
vertex $-1 $441 $731 #
ellipse-curve $-1 -62.89224553786562 12.472496116998755 6.6803889333725115 -0.80901700255871778 0 0.5877852410284794 0.2938926205142397 0 0.40450850127935889 1 I I #
point $-1 -64.131132376436682 12.472496116998755 8.1985268651242666 #
edge $-1 $732 1 $732 0 $444 $-1 forward 7 unknown #
vertex $-1 $445 $733 #
ellipse-curve $-1 -62.89224553786562 16.232117324083084 6.6803889333725115 -0.80901700255871778 0 0.5877852410284794 0.2938926205142397 0 0.40450850127935889 1 I I #
point $-1 -64.131132376436682 16.232117324083084 8.1985268651242666 #
loop $-1 $-1 $456 $448 #
plane-surface $-1 -69.147618030335394 0 0 1 0 0 0 0 -1 forward_v I I I I #
coedge $-1 $625 $451 $453 $629 reversed $299 $-1 #
coedge $-1 $451 $624 $734 $735 reversed $299 $-1 #
coedge $-1 $459 $454 $451 $627 forward $449 $-1 #
edge $-1 $630 -30.812975724578337 $736 -21.367789657809396 $626 $737 forward 7 unknown #
coedge $-1 $453 $452 $633 $738 reversed $188 $-1 #
edge $-1 $739 2.4161062406544664e-014 $630 16.069110633404485 $624 $740 forward 7 unknown #
vertex $-1 $455 $741 #
straight-curve $-1 -59.702431963566447 15.060160359171636 14.294110223055561 0 1 0 I I #
coedge $-1 $734 $456 $459 $637 reversed $622 $-1 #
coedge $-1 $456 $734 $628 $738 forward $622 $-1 #
vertex $-1 $457 $742 #
straight-curve $-1 -69.147618030335394 25.734095976744893 41.29091258282304 0 0 1 I I #
straight-curve $-1 -69.147618030335408 25.734095976744893 1.2939265046342427 -0.5877852410284794 0 -0.80901700255871778 I I #
edge $-1 $736 -34.506545459941648 $460 -25.734095976744893 $632 $743 forward 7 unknown #
point $-1 -69.147618030335394 25.734095976744893 14.294110223055561 #
point $-1 -59.702431963566454 25.734095976744893 14.294110223055561 #
edge $-1 $744 1 $744 0 $463 $-1 forward 7 unknown #
vertex $-1 $464 $745 #
ellipse-curve $-1 -62.89224553786562 28.240510114801104 6.6803889333725115 -0.80901700255871778 0 0.5877852410284794 0.2938926205142397 0 0.40450850127935889 1 I I #
point $-1 -64.131132376436682 28.240510114801104 8.1985268651242666 #
edge $-1 $746 1 $746 0 $467 $-1 forward 7 unknown #
vertex $-1 $468 $747 #
ellipse-curve $-1 -62.89224553786562 32.000131321885426 6.6803889333725115 -0.80901700255871778 0 0.5877852410284794 0.2938926205142397 0 0.40450850127935889 1 I I #
point $-1 -64.131132376436682 32.000131321885426 8.1985268651242666 #
plane-surface $-1 69.147618030335394 0 0 -1 0 0 0 0 1 forward_v I I I I #
coedge $-1 $476 $474 $478 $653 reversed $321 $-1 #
edge $-1 $489 -14.294110223055561 $655 14.294110223055561 $488 $748 forward 7 unknown #
vertex $-1 $653 $749 #
straight-curve $-1 -69.147618030335394 -39.578765394529448 0 0 0 -1 I I #
edge $-1 $651 -39.578765394529448 $655 39.578765394529448 $649 $750 forward 7 unknown #
straight-curve $-1 0 -39.578765394529448 -14.294110223055561 -1 0 0 I I #
vertex $-1 $481 $751 #
straight-curve $-1 0 39.578765394529448 -14.294110223055561 1 0 0 I I #
point $-1 69.147618030335394 39.578765394529448 -14.294110223055561 #
point $-1 69.147618030335394 -39.578765394529448 -14.294110223055561 #
straight-curve $-1 -69.147618030335394 0 14.294110223055561 0 -1 0 I I #
point $-1 -69.147618030335394 39.578765394529448 14.294110223055561 #
point $-1 -69.147618030335394 -39.578765394529448 14.294110223055561 #
straight-curve $-1 69.147618030335394 -39.578765394529448 0 0 0 -1 I I #
straight-curve $-1 69.147618030335394 39.578765394529448 0 0 0 -1 I I #
plane-surface $-1 69.147618030335394 0 0 -1 0 0 0 0 1 forward_v I I I I #
coedge $-1 $668 $501 $512 $677 forward $340 $-1 #
coedge $-1 $501 $668 $515 $679 reversed $340 $-1 #
straight-curve $-1 69.147618030335394 -26.642165951249943 2.3445218469787186 0 0 1 I I #
coedge $-1 $666 $665 $504 $669 forward $340 $-1 #
edge $-1 $672 10.086933114805095 $670 23.0235325580846 $668 $752 forward 7 unknown #
vertex $-1 $506 $753 #
straight-curve $-1 0 -39.578765394529448 1.7299312370327016 1 0 0 I I #
vertex $-1 $669 $754 #
straight-curve $-1 0 -26.642165951249943 1.7299312370327016 1 0 0 I I #
point $-1 69.147618030335394 -39.578765394529448 1.7299312370327016 #
point $-1 69.147618030335394 -26.642165951249943 1.7299312370327016 #
straight-curve $-1 -69.147618030335394 -16.555232836444848 7.6481561508821727 0 1 0 I I #
edge $-1 $513 -5.3036343039034541 $672 0.614590609946017 $665 $755 forward 7 unknown #
point $-1 -69.147618030335394 -26.642165951249943 7.6481561508821727 #
edge $-1 $517 -7.6481561508821727 $670 -1.7299312370327016 $666 $756 forward 7 unknown #
point $-1 -69.147618030335394 -39.578765394529448 7.6481561508821727 #
straight-curve $-1 69.147618030335394 -39.578765394529448 0 0 0 -1 I I #
edge $-1 $683 -54.905388329249291 $686 -45.165023580189995 $523 $757 forward 7 unknown #
vertex $-1 $682 $758 #
straight-curve $-1 69.147618030335394 -8.1482193307463007 99.636885854533887 0 0 1 I I #
edge $-1 $686 0.80676644719616775 $534 13.876139319904098 $533 $759 forward 7 unknown #
vertex $-1 $685 $760 #
straight-curve $-1 -46.836525499942383 -8.1482193307463007 83.289628178789968 0.83867056331134215 0 -0.54463904215088732 I I #
point $-1 69.147618030335408 -8.1482193307463007 7.9686432766753938 #
point $-1 59.407253281276098 -21.217592203454231 14.294110223055554 #
straight-curve $-1 69.147618030335394 0 14.294110223055561 0 1 0 I I #
vertex $-1 $540 $761 #
point $-1 63.388505830743952 -14.682905767100266 6.0903880130202257 #
edge $-1 $694 26.996802359767479 $697 39.996986078188776 $545 $762 forward 7 unknown #
vertex $-1 $559 $763 #
straight-curve $-1 -90.515407688144791 -12.797496533465399 14.294110223055561 -1 0 0 I I #
edge $-1 $697 4.2056358959335096 $556 12.978085379130269 $555 $764 forward 7 unknown #
vertex $-1 $696 $765 #
straight-curve $-1 -69.147618030335408 -12.797496533465399 1.2939265046342427 0.5877852410284794 0 0.80901700255871778 I I #
point $-1 -59.702431963566454 -12.797496533465399 14.294110223055561 #
point $-1 -69.147618030335394 -21.569946016662158 1.2939265046342623 #
straight-curve $-1 -69.147618030335394 0 14.294110223055561 0 -1 0 I I #
vertex $-1 $562 $766 #
point $-1 -62.598352917351384 -19.063531878605939 7.0848974346518698 #
vertex $-1 $566 $767 #
point $-1 -62.598352917351384 -15.303910671521614 7.0848974346518698 #
coedge $-1 $581 $580 $573 $707 forward $570 $-1 #
edge $-1 $708 26.996802359767479 $711 39.996986078188776 $706 $768 forward 7 unknown #
vertex $-1 $585 $769 #
straight-curve $-1 -90.515407688144791 2.9705174643369539 14.294110223055561 -1 0 0 I I #
edge $-1 $711 -3.6783711029676667 $582 5.0940783802290923 $581 $770 forward 7 unknown #
vertex $-1 $710 $771 #
straight-curve $-1 -69.147618030335408 2.9705174643369539 1.2939265046342427 0.5877852410284794 0 0.80901700255871778 I I #
point $-1 -59.702431963566454 2.9705174643369539 14.294110223055561 #
point $-1 -69.147618030335394 -5.8019320188598051 1.2939265046342623 #
straight-curve $-1 -69.147618030335394 0 14.294110223055561 0 -1 0 I I #
vertex $-1 $588 $772 #
point $-1 -62.598352917351384 -3.2955178808035939 7.0848974346518698 #
vertex $-1 $592 $773 #
point $-1 -62.598352917351384 0.46410332628073547 7.0848974346518698 #
coedge $-1 $607 $606 $599 $721 forward $596 $-1 #
edge $-1 $722 26.996802359767479 $725 39.996986078188776 $720 $774 forward 7 unknown #
vertex $-1 $611 $775 #
straight-curve $-1 -90.515407688144791 18.738531462139303 14.294110223055561 -1 0 0 I I #
edge $-1 $725 -11.562378101868841 $608 -2.7899286186720822 $607 $776 forward 7 unknown #
vertex $-1 $724 $777 #
straight-curve $-1 -69.147618030335408 18.738531462139303 1.2939265046342427 0.5877852410284794 0 0.80901700255871778 I I #
point $-1 -59.702431963566454 18.738531462139303 14.294110223055561 #
point $-1 -69.147618030335394 9.9660819789425439 1.2939265046342623 #
straight-curve $-1 -69.147618030335394 0 14.294110223055561 0 -1 0 I I #
vertex $-1 $614 $778 #
point $-1 -62.598352917351384 12.472496116998755 7.0848974346518698 #
vertex $-1 $618 $779 #
point $-1 -62.598352917351384 16.232117324083084 7.0848974346518698 #
coedge $-1 $633 $632 $625 $735 forward $622 $-1 #
edge $-1 $736 26.996802359767479 $739 39.996986078188776 $734 $780 forward 7 unknown #
vertex $-1 $637 $781 #
straight-curve $-1 -90.515407688144791 34.506545459941648 14.294110223055561 -1 0 0 I I #
edge $-1 $739 -19.446385100770012 $634 -10.673935617573257 $633 $782 forward 7 unknown #
vertex $-1 $738 $783 #
straight-curve $-1 -69.147618030335408 34.506545459941648 1.2939265046342427 0.5877852410284794 0 0.80901700255871778 I I #
point $-1 -59.702431963566454 34.506545459941648 14.294110223055561 #
point $-1 -69.147618030335394 25.734095976744893 1.2939265046342623 #
straight-curve $-1 -69.147618030335394 0 14.294110223055561 0 -1 0 I I #
vertex $-1 $640 $784 #
point $-1 -62.598352917351384 28.240510114801104 7.0848974346518698 #
vertex $-1 $644 $785 #
point $-1 -62.598352917351384 32.000131321885426 7.0848974346518698 #
straight-curve $-1 -69.147618030335394 39.578765394529448 0 0 0 -1 I I #
point $-1 -69.147618030335394 -39.578765394529448 -14.294110223055561 #
straight-curve $-1 -69.147618030335394 0 -14.294110223055561 0 1 0 I I #
point $-1 -69.147618030335394 39.578765394529448 -14.294110223055561 #
straight-curve $-1 -69.147618030335394 -16.555232836444848 1.7299312370327016 0 -1 0 I I #
point $-1 -69.147618030335394 -39.578765394529448 1.7299312370327016 #
point $-1 -69.147618030335394 -26.642165951249943 1.7299312370327016 #
straight-curve $-1 -69.147618030335394 -26.642165951249943 2.3445218469787186 0 0 -1 I I #
straight-curve $-1 -69.147618030335394 -39.578765394529448 0 0 0 -1 I I #
straight-curve $-1 14.242229701086103 -8.1482193307463007 14.294110223055554 -1 0 0 I I #
point $-1 69.147618030335394 -8.1482193307463007 14.294110223055561 #
straight-curve $-1 59.407253281276098 -7.3414528835501329 14.294110223055561 0 -1 0 I I #
point $-1 59.407253281276098 -8.1482193307463007 14.294110223055554 #
point $-1 60.621886619819499 -14.682905767100266 5.502324970699318 #
straight-curve $-1 -69.147618030335394 -12.797496533465399 41.29091258282304 0 0 -1 I I #
point $-1 -69.147618030335394 -12.797496533465399 14.294110223055561 #
straight-curve $-1 -69.147618030335394 -8.5918606375318891 1.2939265046342525 0 -1 0 I I #
point $-1 -69.147618030335394 -12.797496533465399 1.2939265046342623 #
point $-1 -62.487737036586267 -19.063531878605939 6.386496312858271 #
point $-1 -62.487737036586267 -15.303910671521614 6.386496312858271 #
straight-curve $-1 -69.147618030335394 2.9705174643369539 41.29091258282304 0 0 -1 I I #
point $-1 -69.147618030335394 2.9705174643369539 14.294110223055561 #
straight-curve $-1 -69.147618030335394 -0.70785363863071282 1.2939265046342525 0 -1 0 I I #
point $-1 -69.147618030335394 2.9705174643369539 1.2939265046342623 #
point $-1 -62.487737036586267 -3.2955178808035939 6.386496312858271 #
point $-1 -62.487737036586267 0.46410332628073547 6.386496312858271 #
straight-curve $-1 -69.147618030335394 18.738531462139303 41.29091258282304 0 0 -1 I I #
point $-1 -69.147618030335394 18.738531462139303 14.294110223055561 #
straight-curve $-1 -69.147618030335394 7.1761533602704617 1.2939265046342525 0 -1 0 I I #
point $-1 -69.147618030335394 18.738531462139303 1.2939265046342623 #
point $-1 -62.487737036586267 12.472496116998755 6.386496312858271 #
point $-1 -62.487737036586267 16.232117324083084 6.386496312858271 #
straight-curve $-1 -69.147618030335394 34.506545459941648 41.29091258282304 0 0 -1 I I #
point $-1 -69.147618030335394 34.506545459941648 14.294110223055561 #
straight-curve $-1 -69.147618030335394 15.060160359171636 1.2939265046342525 0 -1 0 I I #
point $-1 -69.147618030335394 34.506545459941648 1.2939265046342623 #
point $-1 -62.487737036586267 28.240510114801104 6.386496312858271 #
point $-1 -62.487737036586267 32.000131321885426 6.386496312858271 #
End-of-ACIS-data 