500 0 5 0           
7 Unknown 11 ACIS 5.0 NT 24 Thu Mar 25 15:40:16 1999 
-1 9.9999999999999995e-007 1e-010 
body $-1 $5 $-1 $6 #
body $-1 $7 $-1 $8 #
body $-1 $9 $-1 $10 #
body $-1 $11 $-1 $12 #
body $-1 $13 $-1 $14 #
lump $-1 $-1 $15 $0 #
transform $-1 1 0 0 0 1 0 0 0 1 65.930967131565296 37.706227352479047 16.685813996816353 1 rotate no_reflect no_shear #
lump $-1 $-1 $16 $1 #
transform $-1 1 0 0 0 1 0 0 0 1 65.930967131565296 37.706227352479047 16.685813996816353 1 rotate no_reflect no_shear #
lump $-1 $-1 $17 $2 #
transform $-1 1 0 0 0 1 0 0 0 1 65.930967131565296 37.706227352479047 16.685813996816353 1 rotate no_reflect no_shear #
lump $-1 $-1 $18 $3 #
transform $-1 1 0 0 0 1 0 0 0 1 65.930967131565296 37.706227352479047 16.685813996816353 1 rotate no_reflect no_shear #
lump $-1 $-1 $19 $4 #
transform $-1 1 0 0 0 1 0 0 0 1 65.930967131565296 37.706227352479047 16.685813996816353 1 rotate no_reflect no_shear #
shell $-1 $-1 $-1 $20 $-1 $5 #
shell $-1 $-1 $-1 $21 $-1 $7 #
shell $-1 $-1 $-1 $22 $-1 $9 #
shell $-1 $-1 $-1 $23 $-1 $11 #
shell $-1 $-1 $-1 $24 $-1 $13 #
face $-1 $25 $26 $15 $-1 $27 forward single #
face $-1 $28 $29 $16 $-1 $30 reversed single #
face $-1 $31 $32 $17 $-1 $33 reversed single #
face $-1 $34 $35 $18 $-1 $36 reversed single #
face $-1 $37 $38 $19 $-1 $39 forward single #
face $-1 $40 $41 $15 $-1 $42 reversed single #
loop $-1 $-1 $43 $20 #
plane-surface $-1 0 0 16.685813996816353 0 0 1 1 0 0 forward_v I I I I #
face $-1 $44 $45 $16 $-1 $46 reversed single #
loop $-1 $-1 $47 $21 #
plane-surface $-1 0 -30.347888789700757 9.9447797694822828 0 0 1 1 0 0 forward_v I I I I #
face $-1 $48 $49 $17 $-1 $50 reversed single #
loop $-1 $-1 $51 $22 #
plane-surface $-1 0 28.910939099139028 12.59336693828752 0 0 1 1 0 0 forward_v I I I I #
face $-1 $52 $53 $18 $-1 $54 reversed single #
loop $-1 $-1 $55 $23 #
plane-surface $-1 39.977838788639033 -16.852894812392808 187.60735307118159 0 -1 0 -0.6018150307709319 0 -0.79863550430605224 forward_v I I I I #
face $-1 $56 $57 $19 $-1 $58 forward single #
loop $-1 $59 $60 $24 #
cone-surface $-1 55.878812075937802 -19.92122251965764 8.5762947242667114 -0.6018150307709319 0 -0.79863550430605224 0.79863550430605224 0 -0.6018150307709319 1 I I 0 1 1 forward I I I I #
face $-1 $61 $62 $15 $-1 $63 reversed single #
loop $-1 $-1 $64 $25 #
plane-surface $-1 0 0 -16.685813996816353 0 0 1 1 0 0 forward_v I I I I #
coedge $-1 $65 $66 $67 $68 forward $26 $-1 #
face $-1 $69 $70 $16 $-1 $71 reversed single #
loop $-1 $-1 $72 $28 #
plane-surface $-1 0 -22.989550226922468 13.315296883149319 0 -1 0 0 0 -1 forward_v I I I I #
coedge $-1 $73 $74 $75 $76 reversed $29 $-1 #
face $-1 $77 $78 $17 $-1 $79 forward single #
loop $-1 $-1 $80 $31 #
plane-surface $-1 0 20.115650845799006 14.639590467551937 0 1 0 0 0 1 forward_v I I I I #
coedge $-1 $81 $82 $83 $84 reversed $32 $-1 #
face $-1 $85 $86 $18 $-1 $87 forward single #
loop $-1 $-1 $88 $34 #
plane-surface $-1 -39.378655237441507 -19.92122251965764 82.297730702174789 0.6018150307709319 0 0.79863550430605224 0.79863550430605224 0 -0.6018150307709319 forward_v I I I I #
coedge $-1 $89 $90 $91 $92 reversed $35 $-1 #
face $-1 $-1 $93 $19 $-1 $94 forward single #
loop $-1 $95 $96 $37 #
cone-surface $-1 54.645584403321152 -19.92122251965764 6.9397463599250848 -0.6018150307709319 0 -0.79863550430605224 0.39931775215302612 0 -0.30090751538546595 1 I I -0.70710678118654746 0.70710678118654746 0.5 forward I I I I #
loop $-1 $-1 $97 $24 #
coedge $-1 $60 $60 $98 $99 reversed $38 $-1 #
face $-1 $100 $101 $15 $-1 $102 reversed single #
loop $-1 $-1 $103 $40 #
plane-surface $-1 0 -37.706227352479047 0 0 1 0 0 0 1 forward_v I I I I #
coedge $-1 $104 $105 $106 $107 forward $41 $-1 #
coedge $-1 $108 $43 $109 $110 forward $26 $-1 #
coedge $-1 $43 $108 $111 $112 forward $26 $-1 #
coedge $-1 $113 $114 $43 $68 reversed $115 $-1 #
edge $-1 $116 -37.706227352479047 $117 37.706227352479047 $67 $118 forward 7 unknown #
face $-1 $119 $120 $16 $-1 $121 reversed single #
loop $-1 $-1 $122 $44 #
plane-surface $-1 -65.930967131565296 0 0 1 0 0 0 0 -1 forward_v I I I I #
coedge $-1 $123 $124 $74 $125 reversed $45 $-1 #
coedge $-1 $126 $47 $127 $128 reversed $29 $-1 #
coedge $-1 $47 $126 $72 $125 forward $29 $-1 #
coedge $-1 $129 $130 $47 $76 forward $131 $-1 #
edge $-1 $132 -22.532282957628667 $133 -7.8156058320720891 $75 $134 forward 7 unknown #
face $-1 $135 $136 $17 $-1 $137 reversed single #
loop $-1 $-1 $138 $48 #
plane-surface $-1 0 0 16.685813996816353 0 0 1 1 0 0 forward_v I I I I #
coedge $-1 $139 $140 $141 $142 reversed $49 $-1 #
coedge $-1 $143 $51 $139 $144 forward $32 $-1 #
coedge $-1 $51 $143 $145 $146 reversed $32 $-1 #
coedge $-1 $147 $148 $51 $84 forward $136 $-1 #
edge $-1 $149 5.6601812962294922 $150 23.250757802909533 $83 $151 forward 7 unknown #
face $-1 $152 $153 $18 $-1 $154 forward single #
loop $-1 $-1 $91 $52 #
plane-surface $-1 0 0 16.685813996816353 0 0 1 1 0 0 forward_v I I I I #
coedge $-1 $155 $156 $157 $158 reversed $53 $-1 #
coedge $-1 $90 $55 $159 $160 reversed $35 $-1 #
coedge $-1 $55 $89 $155 $161 reversed $35 $-1 #
coedge $-1 $157 $162 $55 $92 forward $86 $-1 #
edge $-1 $163 -45.94204773724578 $164 -27.702377940453111 $91 $165 forward 7 unknown #
loop $-1 $-1 $98 $56 #
plane-surface $-1 -39.378655237441507 -19.92122251965764 82.297730702174789 0.6018150307709319 0 0.79863550430605224 0.79863550430605224 0 -0.6018150307709319 forward_v I I I I #
loop $-1 $-1 $166 $37 #
coedge $-1 $96 $96 $97 $167 reversed $57 $-1 #
coedge $-1 $97 $97 $96 $167 forward $59 $-1 #
coedge $-1 $98 $98 $60 $99 forward $93 $-1 #
edge $-1 $168 0 $168 6.2831853071796004 $98 $169 forward 7 unknown #
face $-1 $170 $171 $15 $-1 $172 reversed single #
loop $-1 $-1 $173 $61 #
plane-surface $-1 -65.930967131565296 0 0 1 0 0 0 0 -1 forward_v I I I I #
coedge $-1 $174 $111 $175 $176 forward $62 $-1 #
coedge $-1 $177 $64 $174 $178 forward $41 $-1 #
coedge $-1 $64 $177 $179 $180 forward $41 $-1 #
coedge $-1 $114 $113 $64 $107 reversed $115 $-1 #
edge $-1 $181 -37.706227352479047 $182 37.706227352479047 $106 $183 forward 7 unknown #
coedge $-1 $66 $65 $184 $185 forward $26 $-1 #
coedge $-1 $186 $187 $65 $110 reversed $171 $-1 #
edge $-1 $117 -65.930967131565296 $188 65.930967131565296 $109 $189 forward 7 unknown #
coedge $-1 $103 $190 $66 $112 reversed $62 $-1 #
edge $-1 $191 -65.930967131565296 $116 65.930967131565296 $111 $192 forward 7 unknown #
coedge $-1 $106 $67 $190 $193 forward $115 $-1 #
coedge $-1 $67 $106 $186 $194 reversed $115 $-1 #
loop $-1 $-1 $113 $170 #
vertex $-1 $68 $195 #
vertex $-1 $68 $196 #
straight-curve $-1 65.930967131565296 0 16.685813996816353 0 1 0 I I #
face $-1 $197 $198 $16 $-1 $199 forward single #
loop $-1 $-1 $127 $69 #
plane-surface $-1 0 -37.706227352479047 0 0 1 0 0 0 1 forward_v I I I I #
coedge $-1 $200 $201 $123 $202 forward $70 $-1 #
coedge $-1 $203 $72 $122 $202 reversed $45 $-1 #
coedge $-1 $72 $203 $129 $204 reversed $45 $-1 #
edge $-1 $205 -65.930967131565296 $133 65.930967131565296 $72 $206 forward 7 unknown #
coedge $-1 $74 $73 $200 $207 reversed $29 $-1 #
coedge $-1 $208 $209 $73 $128 forward $120 $-1 #
edge $-1 $210 -65.930967131565296 $132 65.930967131565296 $127 $211 forward 7 unknown #
coedge $-1 $212 $75 $124 $204 forward $131 $-1 #
coedge $-1 $75 $212 $208 $213 forward $131 $-1 #
loop $-1 $-1 $129 $197 #
vertex $-1 $128 $214 #
vertex $-1 $76 $215 #
straight-curve $-1 65.930967131565296 -15.173944394850379 9.9447797694822828 0 1 0 I I #
face $-1 $216 $217 $17 $-1 $218 reversed single #
loop $-1 $-1 $148 $77 #
plane-surface $-1 65.930967131565296 0 0 -1 0 0 0 0 1 forward_v I I I I #
coedge $-1 $219 $220 $140 $221 forward $78 $-1 #
coedge $-1 $222 $80 $81 $144 reversed $49 $-1 #
coedge $-1 $80 $222 $138 $221 reversed $49 $-1 #
coedge $-1 $223 $224 $80 $142 forward $217 $-1 #
edge $-1 $225 5.2735717045115518 $226 9.3660187630403851 $141 $227 forward 7 unknown #
coedge $-1 $82 $81 $224 $228 reversed $32 $-1 #
edge $-1 $149 -65.930967131565296 $225 65.930967131565296 $139 $229 forward 7 unknown #
coedge $-1 $230 $231 $82 $146 forward $232 $-1 #
edge $-1 $150 -65.930967131565296 $233 65.930967131565296 $145 $234 forward 7 unknown #
coedge $-1 $235 $83 $231 $236 reversed $136 $-1 #
coedge $-1 $83 $235 $222 $237 forward $136 $-1 #
vertex $-1 $84 $238 #
vertex $-1 $146 $239 #
straight-curve $-1 65.930967131565296 14.455469549569514 12.59336693828752 0 1 0 I I #
face $-1 $-1 $240 $18 $-1 $241 reversed single #
loop $-1 $-1 $242 $85 #
plane-surface $-1 0 -22.989550226922468 13.315296883149319 0 -1 0 0 0 -1 forward_v I I I I #
coedge $-1 $243 $88 $90 $161 forward $53 $-1 #
coedge $-1 $88 $243 $242 $244 forward $53 $-1 #
coedge $-1 $245 $91 $88 $158 forward $86 $-1 #
edge $-1 $164 6.8922835525639883 $246 13.028938967093652 $157 $247 forward 7 unknown #
coedge $-1 $248 $249 $89 $160 forward $240 $-1 #
edge $-1 $250 -90.862439859496547 $163 -77.117862538774446 $159 $251 forward 7 unknown #
edge $-1 $164 109.02339315338941 $250 131.86193426313059 $90 $252 forward 7 unknown #
coedge $-1 $91 $245 $248 $253 forward $86 $-1 #
vertex $-1 $160 $254 #
vertex $-1 $92 $255 #
straight-curve $-1 19.988919394319517 -16.852894812392808 16.68581399681635 -1 0 0 I I #
coedge $-1 $166 $166 $-1 $256 reversed $95 $-1 #
edge $-1 $257 0 $257 6.2831853071796004 $96 $258 forward 7 unknown #
vertex $-1 $99 $259 #
ellipse-curve $-1 56.811132233168969 -19.92122251965764 9.8135253364552923 0.6018150307709319 0 0.79863550430605224 0.79863550430605224 0 -0.6018150307709319 1 I I #
face $-1 $-1 $115 $15 $-1 $260 reversed single #
loop $-1 $-1 $186 $100 #
plane-surface $-1 0 37.706227352479047 0 0 -1 0 0 0 -1 forward_v I I I I #
coedge $-1 $261 $184 $187 $262 forward $101 $-1 #
coedge $-1 $190 $103 $104 $178 reversed $62 $-1 #
coedge $-1 $184 $261 $103 $176 reversed $101 $-1 #
edge $-1 $191 -16.685813996816353 $263 16.685813996816353 $175 $264 forward 7 unknown #
coedge $-1 $105 $104 $261 $265 forward $41 $-1 #
edge $-1 $182 -65.930967131565296 $263 65.930967131565296 $174 $266 forward 7 unknown #
coedge $-1 $187 $186 $105 $180 reversed $171 $-1 #
edge $-1 $267 -65.930967131565296 $181 65.930967131565296 $179 $268 forward 7 unknown #
vertex $-1 $107 $269 #
vertex $-1 $193 $270 #
straight-curve $-1 65.930967131565296 0 -16.685813996816353 0 -1 0 I I #
coedge $-1 $173 $175 $108 $185 reversed $101 $-1 #
edge $-1 $188 -37.706227352479047 $191 37.706227352479047 $184 $271 forward 7 unknown #
coedge $-1 $179 $109 $114 $194 forward $171 $-1 #
coedge $-1 $109 $179 $173 $262 reversed $171 $-1 #
vertex $-1 $110 $272 #
straight-curve $-1 0 37.706227352479047 16.685813996816353 -1 0 0 I I #
coedge $-1 $111 $174 $113 $193 reversed $62 $-1 #
vertex $-1 $185 $273 #
straight-curve $-1 0 -37.706227352479047 16.685813996816353 1 0 0 I I #
edge $-1 $116 -16.685813996816353 $182 16.685813996816353 $113 $274 forward 7 unknown #
edge $-1 $117 -16.685813996816353 $181 16.685813996816353 $114 $275 forward 7 unknown #
point $-1 65.930967131565296 -37.706227352479047 16.685813996816353 #
point $-1 65.930967131565296 37.706227352479047 16.685813996816353 #
face $-1 $-1 $131 $16 $-1 $276 reversed single #
loop $-1 $-1 $277 $119 #
plane-surface $-1 0 0 16.685813996816353 0 0 1 1 0 0 forward_v I I I I #
coedge $-1 $278 $122 $126 $207 forward $70 $-1 #
coedge $-1 $122 $278 $279 $280 reversed $70 $-1 #
edge $-1 $281 -10.028165555241698 $205 -3.2871313279076233 $122 $282 forward 7 unknown #
coedge $-1 $124 $123 $277 $283 reversed $45 $-1 #
edge $-1 $133 3.2871313279076233 $284 10.028165555241698 $129 $285 forward 7 unknown #
vertex $-1 $207 $286 #
straight-curve $-1 0 -22.989550226922468 9.9447797694822828 1 0 0 I I #
edge $-1 $205 7.8156058320720891 $210 22.532282957628667 $200 $287 forward 7 unknown #
coedge $-1 $288 $127 $130 $213 reversed $120 $-1 #
coedge $-1 $127 $288 $278 $289 forward $120 $-1 #
vertex $-1 $128 $290 #
straight-curve $-1 0 -37.706227352479047 9.9447797694822828 1 0 0 I I #
coedge $-1 $130 $129 $291 $292 reversed $131 $-1 #
edge $-1 $293 -16.685813996816353 $132 -9.9447797694822828 $130 $294 forward 7 unknown #
point $-1 65.930967131565296 -37.706227352479047 9.9447797694822828 #
point $-1 65.930967131565296 -22.989550226922468 9.9447797694822828 #
face $-1 $-1 $232 $17 $-1 $295 reversed single #
loop $-1 $-1 $141 $135 #
plane-surface $-1 -65.930967131565296 0 0 1 0 0 0 0 -1 forward_v I I I I #
coedge $-1 $296 $138 $235 $297 forward $78 $-1 #
coedge $-1 $138 $296 $223 $298 forward $78 $-1 #
edge $-1 $226 -65.930967131565296 $299 65.930967131565296 $138 $300 forward 7 unknown #
coedge $-1 $140 $139 $148 $237 reversed $49 $-1 #
coedge $-1 $301 $141 $220 $298 reversed $217 $-1 #
coedge $-1 $141 $301 $143 $228 forward $217 $-1 #
vertex $-1 $228 $302 #
vertex $-1 $142 $303 #
straight-curve $-1 -65.930967131565296 20.115650845799006 7.3197952337759684 0 0 1 I I #
edge $-1 $233 -23.250757802909533 $225 -5.6601812962294922 $224 $304 forward 7 unknown #
straight-curve $-1 0 20.115650845799006 12.59336693828752 -1 0 0 I I #
coedge $-1 $305 $145 $301 $306 reversed $232 $-1 #
coedge $-1 $145 $305 $147 $236 forward $232 $-1 #
loop $-1 $-1 $145 $216 #
vertex $-1 $146 $307 #
straight-curve $-1 0 37.706227352479047 12.59336693828752 -1 0 0 I I #
coedge $-1 $148 $147 $219 $297 reversed $136 $-1 #
edge $-1 $308 -16.685813996816353 $150 -12.59336693828752 $147 $309 forward 7 unknown #
edge $-1 $299 -9.3660187630403851 $149 -5.2735717045115518 $148 $310 forward 7 unknown #
point $-1 65.930967131565296 20.115650845799006 12.59336693828752 #
point $-1 65.930967131565296 37.706227352479047 12.59336693828752 #
loop $-1 $-1 $159 $152 #
plane-surface $-1 65.930967131565296 0 0 -1 0 0 0 0 1 forward_v I I I I #
coedge $-1 $311 $312 $156 $244 reversed $153 $-1 #
coedge $-1 $156 $155 $249 $313 reversed $53 $-1 #
edge $-1 $314 -131.86193426313059 $246 -109.02339315338941 $242 $315 forward 7 unknown #
coedge $-1 $162 $157 $312 $316 forward $86 $-1 #
vertex $-1 $316 $317 #
straight-curve $-1 47.691297334772621 -9.9606112598288199 16.685813996816357 0 -1 0 I I #
coedge $-1 $318 $159 $162 $253 reversed $240 $-1 #
coedge $-1 $159 $318 $243 $313 forward $240 $-1 #
vertex $-1 $160 $319 #
straight-curve $-1 65.930967131565296 -16.852894812392808 93.803676535590796 0 0 1 I I #
straight-curve $-1 -39.378655237441507 -16.852894812392808 82.297730702174789 0.79863550430605224 0 -0.6018150307709319 I I #
edge $-1 $320 -22.989550226922468 $163 -16.852894812392808 $248 $321 forward 7 unknown #
point $-1 65.930967131565296 -16.852894812392808 16.685813996816353 #
point $-1 47.691297334772628 -16.852894812392808 16.68581399681635 #
edge $-1 $322 1 $322 0 $166 $-1 forward 7 unknown #
vertex $-1 $167 $323 #
ellipse-curve $-1 54.94649191870662 -19.92122251965764 7.3390641120781108 0.6018150307709319 0 0.79863550430605224 0.79863550430605224 0 -0.6018150307709319 1 I I #
point $-1 57.609767737475032 -19.92122251965764 9.2117103056843792 #
plane-surface $-1 65.930967131565296 0 0 -1 0 0 0 0 1 forward_v I I I I #
coedge $-1 $175 $173 $177 $265 reversed $101 $-1 #
edge $-1 $188 -16.685813996816353 $267 16.685813996816353 $187 $324 forward 7 unknown #
vertex $-1 $265 $325 #
straight-curve $-1 -65.930967131565296 -37.706227352479047 0 0 0 -1 I I #
edge $-1 $263 -37.706227352479047 $267 37.706227352479047 $261 $326 forward 7 unknown #
straight-curve $-1 0 -37.706227352479047 -16.685813996816353 -1 0 0 I I #
vertex $-1 $180 $327 #
straight-curve $-1 0 37.706227352479047 -16.685813996816353 1 0 0 I I #
point $-1 65.930967131565296 37.706227352479047 -16.685813996816353 #
point $-1 65.930967131565296 -37.706227352479047 -16.685813996816353 #
straight-curve $-1 -65.930967131565296 0 16.685813996816353 0 -1 0 I I #
point $-1 -65.930967131565296 37.706227352479047 16.685813996816353 #
point $-1 -65.930967131565296 -37.706227352479047 16.685813996816353 #
straight-curve $-1 65.930967131565296 -37.706227352479047 0 0 0 -1 I I #
straight-curve $-1 65.930967131565296 37.706227352479047 0 0 0 -1 I I #
plane-surface $-1 65.930967131565296 0 0 -1 0 0 0 0 1 forward_v I I I I #
coedge $-1 $279 $291 $203 $283 forward $198 $-1 #
coedge $-1 $201 $200 $209 $289 reversed $70 $-1 #
coedge $-1 $328 $277 $201 $280 forward $198 $-1 #
edge $-1 $281 22.989550226922468 $329 37.706227352479047 $201 $330 forward 7 unknown #
vertex $-1 $280 $331 #
straight-curve $-1 -65.930967131565296 -22.989550226922468 6.6576484415746595 0 0 -1 I I #
edge $-1 $284 -65.930967131565296 $281 65.930967131565296 $277 $332 forward 7 unknown #
vertex $-1 $204 $333 #
straight-curve $-1 65.930967131565296 -22.989550226922468 6.6576484415746595 0 0 1 I I #
point $-1 -65.930967131565296 -22.989550226922468 9.9447797694822828 #
straight-curve $-1 -65.930967131565296 -15.173944394850379 9.9447797694822828 0 -1 0 I I #
coedge $-1 $209 $208 $328 $334 reversed $120 $-1 #
edge $-1 $329 -16.685813996816353 $210 -9.9447797694822828 $278 $335 forward 7 unknown #
point $-1 -65.930967131565296 -37.706227352479047 9.9447797694822828 #
coedge $-1 $277 $328 $212 $292 forward $198 $-1 #
edge $-1 $293 -37.706227352479047 $284 -22.989550226922468 $212 $336 forward 7 unknown #
vertex $-1 $292 $337 #
straight-curve $-1 65.930967131565296 -37.706227352479047 0 0 0 -1 I I #
plane-surface $-1 0 37.706227352479047 0 0 -1 0 0 0 -1 forward_v I I I I #
coedge $-1 $220 $219 $305 $338 forward $78 $-1 #
edge $-1 $299 20.115650845799006 $308 37.706227352479047 $235 $339 forward 7 unknown #
edge $-1 $340 -37.706227352479047 $226 -20.115650845799006 $223 $341 forward 7 unknown #
vertex $-1 $297 $342 #
straight-curve $-1 0 20.115650845799006 16.685813996816353 1 0 0 I I #
coedge $-1 $224 $223 $230 $306 forward $217 $-1 #
point $-1 -65.930967131565296 20.115650845799006 12.59336693828752 #
point $-1 -65.930967131565296 20.115650845799006 16.685813996816353 #
straight-curve $-1 -65.930967131565296 14.455469549569514 12.59336693828752 0 -1 0 I I #
coedge $-1 $231 $230 $296 $338 reversed $232 $-1 #
edge $-1 $340 -16.685813996816353 $233 -12.59336693828752 $230 $343 forward 7 unknown #
point $-1 -65.930967131565296 37.706227352479047 12.59336693828752 #
vertex $-1 $297 $344 #
straight-curve $-1 65.930967131565296 37.706227352479047 0 0 0 -1 I I #
straight-curve $-1 65.930967131565296 20.115650845799006 7.3197952337759684 0 0 -1 I I #
coedge $-1 $312 $242 $318 $345 reversed $153 $-1 #
coedge $-1 $242 $311 $245 $316 reversed $153 $-1 #
edge $-1 $314 -13.028938967093652 $250 -6.8922835525639883 $249 $346 forward 7 unknown #
vertex $-1 $345 $347 #
straight-curve $-1 -39.378655237441507 -22.989550226922471 82.297730702174789 -0.79863550430605224 0 0.6018150307709319 I I #
edge $-1 $246 47.691297334772628 $320 65.930967131565296 $245 $348 forward 7 unknown #
point $-1 47.691297334772628 -22.989550226922471 16.68581399681635 #
coedge $-1 $249 $248 $311 $345 forward $240 $-1 #
point $-1 65.930967131565296 -16.852894812392808 2.941236676094249 #
vertex $-1 $253 $349 #
straight-curve $-1 65.930967131565296 0 16.685813996816353 0 1 0 I I #
vertex $-1 $256 $350 #
point $-1 55.745127423012669 -19.92122251965764 6.737249081307179 #
straight-curve $-1 -65.930967131565296 37.706227352479047 0 0 0 -1 I I #
point $-1 -65.930967131565296 -37.706227352479047 -16.685813996816353 #
straight-curve $-1 -65.930967131565296 0 -16.685813996816353 0 1 0 I I #
point $-1 -65.930967131565296 37.706227352479047 -16.685813996816353 #
coedge $-1 $291 $279 $288 $334 forward $198 $-1 #
vertex $-1 $280 $351 #
straight-curve $-1 -65.930967131565296 0 16.685813996816353 0 -1 0 I I #
point $-1 -65.930967131565296 -22.989550226922468 16.685813996816357 #
straight-curve $-1 0 -22.989550226922468 16.685813996816353 -1 0 0 I I #
point $-1 65.930967131565296 -22.989550226922468 16.685813996816357 #
edge $-1 $329 -65.930967131565296 $293 65.930967131565296 $288 $352 forward 7 unknown #
straight-curve $-1 -65.930967131565296 -37.706227352479047 0 0 0 -1 I I #
straight-curve $-1 65.930967131565296 0 16.685813996816353 0 1 0 I I #
point $-1 65.930967131565296 -37.706227352479047 16.685813996816353 #
edge $-1 $308 -65.930967131565296 $340 65.930967131565296 $305 $353 forward 7 unknown #
straight-curve $-1 65.930967131565296 0 16.685813996816353 0 1 0 I I #
vertex $-1 $338 $354 #
straight-curve $-1 -65.930967131565296 0 16.685813996816353 0 -1 0 I I #
point $-1 65.930967131565296 20.115650845799006 16.685813996816353 #
straight-curve $-1 -65.930967131565296 37.706227352479047 0 0 0 -1 I I #
point $-1 65.930967131565296 37.706227352479047 16.685813996816353 #
edge $-1 $320 77.117862538774432 $314 90.862439859496547 $318 $355 forward 7 unknown #
straight-curve $-1 65.930967131565282 -9.9606112598288199 2.9412366760942632 0 1 0 I I #
point $-1 65.930967131565296 -22.989550226922471 2.941236676094249 #
straight-curve $-1 0 -22.989550226922468 16.685813996816353 1 0 0 I I #
point $-1 65.930967131565296 -22.989550226922468 16.685813996816357 #
point $-1 54.344676887935684 -19.92122251965764 6.5404286077720588 #
point $-1 -65.930967131565296 -37.706227352479047 16.685813996816353 #
straight-curve $-1 0 -37.706227352479047 16.685813996816353 1 0 0 I I #
straight-curve $-1 0 37.706227352479047 16.685813996816353 -1 0 0 I I #
point $-1 -65.930967131565296 37.706227352479047 16.685813996816353 #
straight-curve $-1 65.930967131565296 -22.989550226922471 93.803676535590796 0 0 -1 I I #
End-of-ACIS-data 