500 0 15 0           
7 Unknown 11 ACIS 5.0 NT 24 Thu Mar 25 20:25:13 1999 
-1 9.9999999999999995e-007 1e-010 
body $-1 $15 $-1 $16 #
body $-1 $17 $-1 $18 #
body $-1 $19 $-1 $20 #
body $-1 $21 $-1 $22 #
body $-1 $23 $-1 $24 #
body $-1 $25 $-1 $26 #
body $-1 $27 $-1 $28 #
body $-1 $29 $-1 $30 #
body $-1 $31 $-1 $32 #
body $-1 $33 $-1 $34 #
body $-1 $35 $-1 $36 #
body $-1 $37 $-1 $38 #
body $-1 $39 $-1 $40 #
body $-1 $41 $-1 $42 #
body $-1 $43 $-1 $44 #
lump $-1 $-1 $45 $0 #
transform $-1 1 0 0 0 1 0 0 0 1 41.364787743766591 21.493859235257823 9.7659406199688252 1 rotate no_reflect no_shear #
lump $-1 $-1 $46 $1 #
transform $-1 1 0 0 0 1 0 0 0 1 41.364787743766591 21.493859235257823 9.7659406199688252 1 rotate no_reflect no_shear #
lump $-1 $-1 $47 $2 #
transform $-1 1 0 0 0 1 0 0 0 1 41.364787743766591 21.493859235257823 9.7659406199688252 1 rotate no_reflect no_shear #
lump $-1 $-1 $48 $3 #
transform $-1 1 0 0 0 1 0 0 0 1 41.364787743766591 21.493859235257823 9.7659406199688252 1 rotate no_reflect no_shear #
lump $-1 $-1 $49 $4 #
transform $-1 1 0 0 0 1 0 0 0 1 41.364787743766591 21.493859235257823 9.7659406199688252 1 rotate no_reflect no_shear #
lump $-1 $-1 $50 $5 #
transform $-1 1 0 0 0 1 0 0 0 1 41.364787743766591 21.493859235257823 9.7659406199688252 1 rotate no_reflect no_shear #
lump $-1 $-1 $51 $6 #
transform $-1 1 0 0 0 1 0 0 0 1 41.364787743766591 21.493859235257823 9.7659406199688252 1 rotate no_reflect no_shear #
lump $-1 $-1 $52 $7 #
transform $-1 1 0 0 0 1 0 0 0 1 41.364787743766591 21.493859235257823 9.7659406199688252 1 rotate no_reflect no_shear #
lump $-1 $-1 $53 $8 #
transform $-1 1 0 0 0 1 0 0 0 1 41.364787743766591 21.493859235257823 9.7659406199688252 1 rotate no_reflect no_shear #
lump $-1 $-1 $54 $9 #
transform $-1 1 0 0 0 1 0 0 0 1 41.364787743766591 21.493859235257823 9.7659406199688252 1 rotate no_reflect no_shear #
lump $-1 $-1 $55 $10 #
transform $-1 1 0 0 0 1 0 0 0 1 41.364787743766591 21.493859235257823 9.7659406199688252 1 rotate no_reflect no_shear #
lump $-1 $-1 $56 $11 #
transform $-1 1 0 0 0 1 0 0 0 1 41.364787743766591 21.493859235257823 9.7659406199688252 1 rotate no_reflect no_shear #
lump $-1 $-1 $57 $12 #
transform $-1 1 0 0 0 1 0 0 0 1 41.364787743766591 21.493859235257823 9.7659406199688252 1 rotate no_reflect no_shear #
lump $-1 $-1 $58 $13 #
transform $-1 1 0 0 0 1 0 0 0 1 41.364787743766591 21.493859235257823 9.7659406199688252 1 rotate no_reflect no_shear #
lump $-1 $-1 $59 $14 #
transform $-1 1 0 0 0 1 0 0 0 1 41.364787743766591 21.493859235257823 9.7659406199688252 1 rotate no_reflect no_shear #
shell $-1 $-1 $-1 $60 $-1 $15 #
shell $-1 $-1 $-1 $61 $-1 $17 #
shell $-1 $-1 $-1 $62 $-1 $19 #
shell $-1 $-1 $-1 $63 $-1 $21 #
shell $-1 $-1 $-1 $64 $-1 $23 #
shell $-1 $-1 $-1 $65 $-1 $25 #
shell $-1 $-1 $-1 $66 $-1 $27 #
shell $-1 $-1 $-1 $67 $-1 $29 #
shell $-1 $-1 $-1 $68 $-1 $31 #
shell $-1 $-1 $-1 $69 $-1 $33 #
shell $-1 $-1 $-1 $70 $-1 $35 #
shell $-1 $-1 $-1 $71 $-1 $37 #
shell $-1 $-1 $-1 $72 $-1 $39 #
shell $-1 $-1 $-1 $73 $-1 $41 #
shell $-1 $-1 $-1 $74 $-1 $43 #
face $-1 $75 $76 $45 $-1 $77 forward single #
face $-1 $78 $79 $46 $-1 $80 forward single #
face $-1 $81 $82 $47 $-1 $83 reversed single #
face $-1 $84 $85 $48 $-1 $86 reversed single #
face $-1 $87 $88 $49 $-1 $89 forward single #
face $-1 $90 $91 $50 $-1 $92 forward single #
face $-1 $93 $94 $51 $-1 $95 reversed single #
face $-1 $96 $97 $52 $-1 $98 forward single #
face $-1 $99 $100 $53 $-1 $101 forward single #
face $-1 $102 $103 $54 $-1 $104 reversed single #
face $-1 $105 $106 $55 $-1 $107 forward single #
face $-1 $108 $109 $56 $-1 $110 forward single #
face $-1 $111 $112 $57 $-1 $113 reversed single #
face $-1 $114 $115 $58 $-1 $116 forward single #
face $-1 $117 $118 $59 $-1 $119 forward single #
face $-1 $120 $121 $45 $-1 $122 reversed single #
loop $-1 $-1 $123 $60 #
plane-surface $-1 0 0 9.7659406199688252 0 0 1 1 0 0 forward_v I I I I #
face $-1 $124 $125 $46 $-1 $126 forward single #
loop $-1 $-1 $127 $61 #
plane-surface $-1 0 -21.493859235257823 0 0 1 0 0 0 1 forward_v I I I I #
face $-1 $128 $129 $47 $-1 $130 reversed single #
loop $-1 $-1 $131 $62 #
plane-surface $-1 -39.804508324240885 12.069593908319554 0 0 1 0 0 0 1 forward_v I I I I #
face $-1 $132 $133 $48 $-1 $134 reversed single #
loop $-1 $-1 $135 $63 #
plane-surface $-1 -83.973669607790697 -6.7942188356094437 75.08865501269355 0 1 0 -0.51503808176128008 0 0.85716729658548041 forward_v I I I I #
face $-1 $136 $137 $49 $-1 $138 forward single #
loop $-1 $139 $140 $64 #
cone-surface $-1 -36.455297931842132 -5.173236322125895 6.5421708838818269 0.51503808176128008 0 -0.85716729658548041 0.4285836482927402 0 0.25751904088064004 1 I I 0 1 0.5 forward I I I I #
face $-1 $141 $142 $50 $-1 $143 forward single #
loop $-1 $144 $145 $65 #
cone-surface $-1 -36.455297931842132 -2.7417625519005711 6.5421708838818269 0.51503808176128008 0 -0.85716729658548041 0.4285836482927402 0 0.25751904088064004 1 I I 0 1 0.5 forward I I I I #
face $-1 $146 $147 $51 $-1 $148 reversed single #
loop $-1 $-1 $149 $66 #
plane-surface $-1 -83.973669607790697 4.2067302460773792 75.08865501269355 0 1 0 -0.51503808176128008 0 0.85716729658548041 forward_v I I I I #
face $-1 $150 $151 $52 $-1 $152 forward single #
loop $-1 $153 $154 $67 #
cone-surface $-1 -36.455297931842132 5.8277127595609279 6.5421708838818269 0.51503808176128008 0 -0.85716729658548041 0.4285836482927402 0 0.25751904088064004 1 I I 0 1 0.5 forward I I I I #
face $-1 $155 $156 $53 $-1 $157 forward single #
loop $-1 $158 $159 $68 #
cone-surface $-1 -36.455297931842132 8.2591865297862519 6.5421708838818269 0.51503808176128008 0 -0.85716729658548041 0.4285836482927402 0 0.25751904088064004 1 I I 0 1 0.5 forward I I I I #
face $-1 $160 $161 $54 $-1 $162 reversed single #
loop $-1 $-1 $163 $69 #
plane-surface $-1 13.060583039477457 -1.1207800384170223 117.69753687671766 0 -1 0 -0.51503808176128008 0 -0.85716729658548041 forward_v I I I I #
face $-1 $164 $165 $55 $-1 $166 forward single #
loop $-1 $167 $168 $70 #
cone-surface $-1 36.455297931842125 -5.173236322125895 6.5421708838818304 -0.51503808176128008 0 -0.85716729658548041 0.4285836482927402 0 -0.25751904088064004 1 I I 0 1 0.5 forward I I I I #
face $-1 $169 $170 $56 $-1 $171 forward single #
loop $-1 $172 $173 $71 #
cone-surface $-1 36.455297931842125 -2.7417625519005711 6.5421708838818304 -0.51503808176128008 0 -0.85716729658548041 0.4285836482927402 0 -0.25751904088064004 1 I I 0 1 0.5 forward I I I I #
face $-1 $174 $175 $57 $-1 $176 reversed single #
loop $-1 $-1 $177 $72 #
plane-surface $-1 13.060583039477457 9.8801690432698006 117.69753687671766 0 -1 0 -0.51503808176128008 0 -0.85716729658548041 forward_v I I I I #
face $-1 $178 $179 $58 $-1 $180 forward single #
loop $-1 $181 $182 $73 #
cone-surface $-1 36.455297931842125 5.8277127595609279 6.5421708838818304 -0.51503808176128008 0 -0.85716729658548041 0.4285836482927402 0 -0.25751904088064004 1 I I 0 1 0.5 forward I I I I #
face $-1 $183 $184 $59 $-1 $185 forward single #
loop $-1 $186 $187 $74 #
cone-surface $-1 36.455297931842125 8.2591865297862519 6.5421708838818304 -0.51503808176128008 0 -0.85716729658548041 0.4285836482927402 0 -0.25751904088064004 1 I I 0 1 0.5 forward I I I I #
face $-1 $188 $189 $45 $-1 $190 reversed single #
loop $-1 $-1 $191 $75 #
plane-surface $-1 0 0 -9.7659406199688252 0 0 1 1 0 0 forward_v I I I I #
coedge $-1 $192 $193 $194 $195 forward $76 $-1 #
face $-1 $196 $197 $46 $-1 $198 reversed single #
loop $-1 $-1 $199 $78 #
plane-surface $-1 0 0 9.7659406199688252 0 0 1 1 0 0 forward_v I I I I #
coedge $-1 $200 $201 $202 $203 forward $79 $-1 #
face $-1 $204 $205 $47 $-1 $206 reversed single #
loop $-1 $-1 $207 $81 #
plane-surface $-1 -38.244228904715179 16.781726571788688 0 -1 0 0 0 0 1 forward_v I I I I #
coedge $-1 $208 $209 $210 $211 reversed $82 $-1 #
face $-1 $212 $213 $48 $-1 $214 reversed single #
loop $-1 $-1 $215 $84 #
plane-surface $-1 -41.364787743766591 -3.957499437013233 4.1755684443803034 -0.51503808176128008 0 0.85716729658548041 0.85716729658548041 0 0.51503808176128008 forward_v I I I I #
coedge $-1 $216 $217 $218 $219 reversed $85 $-1 #
face $-1 $-1 $220 $49 $-1 $221 forward single #
loop $-1 $222 $223 $87 #
cone-surface $-1 -36.069019370521175 -5.173236322125895 5.8992954114427167 0.51503808176128008 0 -0.85716729658548041 0.2142918241463701 0 0.12875952044032002 1 I I -0.70710678118654746 0.70710678118654746 0.25 forward I I I I #
loop $-1 $-1 $224 $64 #
coedge $-1 $140 $140 $225 $226 reversed $88 $-1 #
face $-1 $-1 $227 $50 $-1 $228 forward single #
loop $-1 $229 $230 $90 #
cone-surface $-1 -36.069019370521175 -2.7417625519005711 5.8992954114427167 0.51503808176128008 0 -0.85716729658548041 0.2142918241463701 0 0.12875952044032002 1 I I -0.70710678118654746 0.70710678118654746 0.25 forward I I I I #
loop $-1 $-1 $231 $65 #
coedge $-1 $145 $145 $232 $233 reversed $91 $-1 #
face $-1 $234 $235 $51 $-1 $236 reversed single #
loop $-1 $-1 $237 $93 #
plane-surface $-1 -41.364787743766591 7.0434496446735899 4.1755684443803034 -0.51503808176128008 0 0.85716729658548041 0.85716729658548041 0 0.51503808176128008 forward_v I I I I #
coedge $-1 $238 $239 $240 $241 reversed $94 $-1 #
face $-1 $-1 $242 $52 $-1 $243 forward single #
loop $-1 $244 $245 $96 #
cone-surface $-1 -36.069019370521175 5.8277127595609279 5.8992954114427167 0.51503808176128008 0 -0.85716729658548041 0.2142918241463701 0 0.12875952044032002 1 I I -0.70710678118654746 0.70710678118654746 0.25 forward I I I I #
loop $-1 $-1 $246 $67 #
coedge $-1 $154 $154 $247 $248 reversed $97 $-1 #
face $-1 $-1 $249 $53 $-1 $250 forward single #
loop $-1 $251 $252 $99 #
cone-surface $-1 -36.069019370521175 8.2591865297862519 5.8992954114427167 0.51503808176128008 0 -0.85716729658548041 0.2142918241463701 0 0.12875952044032002 1 I I -0.70710678118654746 0.70710678118654746 0.25 forward I I I I #
loop $-1 $-1 $253 $68 #
coedge $-1 $159 $159 $254 $255 reversed $100 $-1 #
face $-1 $256 $257 $54 $-1 $258 reversed single #
loop $-1 $-1 $259 $102 #
plane-surface $-1 -29.548298824546649 -3.957499437013233 46.784450308404416 0.51503808176128008 0 0.85716729658548041 0.85716729658548041 0 -0.51503808176128008 forward_v I I I I #
coedge $-1 $260 $261 $262 $263 reversed $103 $-1 #
face $-1 $-1 $264 $55 $-1 $265 forward single #
loop $-1 $266 $267 $105 #
cone-surface $-1 36.069019370521168 -5.173236322125895 5.8992954114427203 -0.51503808176128008 0 -0.85716729658548041 0.2142918241463701 0 -0.12875952044032002 1 I I -0.70710678118654746 0.70710678118654746 0.25 forward I I I I #
loop $-1 $-1 $268 $70 #
coedge $-1 $168 $168 $269 $270 reversed $106 $-1 #
face $-1 $-1 $271 $56 $-1 $272 forward single #
loop $-1 $273 $274 $108 #
cone-surface $-1 36.069019370521168 -2.7417625519005711 5.8992954114427203 -0.51503808176128008 0 -0.85716729658548041 0.2142918241463701 0 -0.12875952044032002 1 I I -0.70710678118654746 0.70710678118654746 0.25 forward I I I I #
loop $-1 $-1 $275 $71 #
coedge $-1 $173 $173 $276 $277 reversed $109 $-1 #
face $-1 $278 $279 $57 $-1 $280 reversed single #
loop $-1 $-1 $281 $111 #
plane-surface $-1 -29.548298824546649 7.0434496446735899 46.784450308404416 0.51503808176128008 0 0.85716729658548041 0.85716729658548041 0 -0.51503808176128008 forward_v I I I I #
coedge $-1 $282 $283 $284 $285 reversed $112 $-1 #
face $-1 $-1 $286 $58 $-1 $287 forward single #
loop $-1 $288 $289 $114 #
cone-surface $-1 36.069019370521168 5.8277127595609279 5.8992954114427203 -0.51503808176128008 0 -0.85716729658548041 0.2142918241463701 0 -0.12875952044032002 1 I I -0.70710678118654746 0.70710678118654746 0.25 forward I I I I #
loop $-1 $-1 $290 $73 #
coedge $-1 $182 $182 $291 $292 reversed $115 $-1 #
face $-1 $-1 $293 $59 $-1 $294 forward single #
loop $-1 $295 $296 $117 #
cone-surface $-1 36.069019370521168 8.2591865297862519 5.8992954114427203 -0.51503808176128008 0 -0.85716729658548041 0.2142918241463701 0 -0.12875952044032002 1 I I -0.70710678118654746 0.70710678118654746 0.25 forward I I I I #
loop $-1 $-1 $297 $74 #
coedge $-1 $187 $187 $298 $299 reversed $118 $-1 #
face $-1 $300 $301 $45 $-1 $302 reversed single #
loop $-1 $-1 $303 $120 #
plane-surface $-1 0 -21.493859235257823 0 0 1 0 0 0 1 forward_v I I I I #
coedge $-1 $304 $305 $306 $307 forward $121 $-1 #
coedge $-1 $308 $123 $309 $310 forward $76 $-1 #
coedge $-1 $123 $308 $311 $312 forward $76 $-1 #
coedge $-1 $313 $314 $123 $195 reversed $315 $-1 #
edge $-1 $316 -21.493859235257823 $317 21.493859235257823 $194 $318 forward 7 unknown #
face $-1 $319 $320 $46 $-1 $321 reversed single #
loop $-1 $-1 $322 $124 #
plane-surface $-1 -41.364787743766591 0 0 1 0 0 0 0 -1 forward_v I I I I #
coedge $-1 $323 $324 $325 $326 forward $125 $-1 #
coedge $-1 $325 $127 $322 $327 reversed $79 $-1 #
coedge $-1 $127 $325 $328 $329 reversed $79 $-1 #
coedge $-1 $330 $331 $127 $203 reversed $320 $-1 #
edge $-1 $332 -41.364787743766591 $333 41.364787743766591 $202 $334 forward 7 unknown #
face $-1 $335 $336 $47 $-1 $337 reversed single #
loop $-1 $-1 $338 $128 #
plane-surface $-1 0 21.493859235257823 0 0 -1 0 0 0 -1 forward_v I I I I #
coedge $-1 $339 $340 $341 $342 forward $129 $-1 #
coedge $-1 $341 $131 $343 $344 reversed $82 $-1 #
coedge $-1 $131 $341 $345 $346 reversed $82 $-1 #
coedge $-1 $347 $348 $131 $211 forward $349 $-1 #
edge $-1 $350 -9.7659406199688252 $351 9.7659406199688252 $210 $352 forward 7 unknown #
face $-1 $353 $354 $48 $-1 $355 reversed single #
loop $-1 $-1 $356 $132 #
plane-surface $-1 -83.973669607790697 -1.1207800384170223 75.08865501269355 0 -1 0 0.51503808176128008 0 -0.85716729658548041 forward_v I I I I #
coedge $-1 $357 $358 $359 $360 reversed $133 $-1 #
coedge $-1 $217 $135 $361 $362 reversed $85 $-1 #
coedge $-1 $135 $216 $357 $363 reversed $85 $-1 #
coedge $-1 $359 $364 $135 $219 forward $365 $-1 #
edge $-1 $366 0.62204706012875732 $367 9.9259886022163926 $218 $368 forward 7 unknown #
loop $-1 $-1 $225 $136 #
plane-surface $-1 -41.364787743766591 -3.957499437013233 4.1755684443803034 -0.51503808176128008 0 0.85716729658548041 0.85716729658548041 0 0.51503808176128008 forward_v I I I I #
loop $-1 $-1 $369 $87 #
coedge $-1 $223 $223 $224 $370 reversed $137 $-1 #
coedge $-1 $224 $224 $223 $370 forward $139 $-1 #
coedge $-1 $225 $225 $140 $226 forward $220 $-1 #
edge $-1 $371 0 $371 6.2831853071796004 $225 $372 forward 7 unknown #
loop $-1 $-1 $232 $141 #
plane-surface $-1 -41.364787743766591 -3.957499437013233 4.1755684443803034 -0.51503808176128008 0 0.85716729658548041 0.85716729658548041 0 0.51503808176128008 forward_v I I I I #
loop $-1 $-1 $373 $90 #
coedge $-1 $230 $230 $231 $374 reversed $142 $-1 #
coedge $-1 $231 $231 $230 $374 forward $144 $-1 #
coedge $-1 $232 $232 $145 $233 forward $227 $-1 #
edge $-1 $375 0 $375 6.2831853071796004 $232 $376 forward 7 unknown #
face $-1 $377 $378 $51 $-1 $379 forward single #
loop $-1 $-1 $380 $146 #
plane-surface $-1 -83.973669607790697 9.8801690432698006 75.08865501269355 0 -1 0 0.51503808176128008 0 -0.85716729658548041 forward_v I I I I #
coedge $-1 $381 $382 $383 $384 reversed $147 $-1 #
coedge $-1 $239 $149 $385 $386 reversed $94 $-1 #
coedge $-1 $149 $238 $381 $387 reversed $94 $-1 #
coedge $-1 $383 $388 $149 $241 forward $378 $-1 #
edge $-1 $389 0.62204706012875732 $390 9.9259886022163926 $240 $391 forward 7 unknown #
loop $-1 $-1 $247 $150 #
plane-surface $-1 -41.364787743766591 7.0434496446735899 4.1755684443803034 -0.51503808176128008 0 0.85716729658548041 0.85716729658548041 0 0.51503808176128008 forward_v I I I I #
loop $-1 $-1 $392 $96 #
coedge $-1 $245 $245 $246 $393 reversed $151 $-1 #
coedge $-1 $246 $246 $245 $393 forward $153 $-1 #
coedge $-1 $247 $247 $154 $248 forward $242 $-1 #
edge $-1 $394 0 $394 6.2831853071796004 $247 $395 forward 7 unknown #
loop $-1 $-1 $254 $155 #
plane-surface $-1 -41.364787743766591 7.0434496446735899 4.1755684443803034 -0.51503808176128008 0 0.85716729658548041 0.85716729658548041 0 0.51503808176128008 forward_v I I I I #
loop $-1 $-1 $396 $99 #
coedge $-1 $252 $252 $253 $397 reversed $156 $-1 #
coedge $-1 $253 $253 $252 $397 forward $158 $-1 #
coedge $-1 $254 $254 $159 $255 forward $249 $-1 #
edge $-1 $398 0 $398 6.2831853071796004 $254 $399 forward 7 unknown #
face $-1 $400 $401 $54 $-1 $402 forward single #
loop $-1 $-1 $403 $160 #
plane-surface $-1 13.060583039477457 -6.7942188356094437 117.69753687671766 0 1 0 0.51503808176128008 0 0.85716729658548041 forward_v I I I I #
coedge $-1 $404 $405 $406 $407 reversed $161 $-1 #
coedge $-1 $261 $163 $408 $409 reversed $103 $-1 #
coedge $-1 $163 $260 $404 $410 reversed $103 $-1 #
coedge $-1 $406 $411 $163 $263 forward $401 $-1 #
edge $-1 $412 -34.834496224027859 $413 -25.530554681940242 $262 $414 forward 7 unknown #
loop $-1 $-1 $269 $164 #
plane-surface $-1 -29.548298824546649 -3.957499437013233 46.784450308404416 0.51503808176128008 0 0.85716729658548041 0.85716729658548041 0 -0.51503808176128008 forward_v I I I I #
loop $-1 $-1 $415 $105 #
coedge $-1 $267 $267 $268 $416 reversed $165 $-1 #
coedge $-1 $268 $268 $267 $416 forward $167 $-1 #
coedge $-1 $269 $269 $168 $270 forward $264 $-1 #
edge $-1 $417 0 $417 6.2831853071796004 $269 $418 forward 7 unknown #
loop $-1 $-1 $276 $169 #
plane-surface $-1 -29.548298824546649 -3.957499437013233 46.784450308404416 0.51503808176128008 0 0.85716729658548041 0.85716729658548041 0 -0.51503808176128008 forward_v I I I I #
loop $-1 $-1 $419 $108 #
coedge $-1 $274 $274 $275 $420 reversed $170 $-1 #
coedge $-1 $275 $275 $274 $420 forward $172 $-1 #
coedge $-1 $276 $276 $173 $277 forward $271 $-1 #
edge $-1 $421 0 $421 6.2831853071796004 $276 $422 forward 7 unknown #
face $-1 $423 $424 $57 $-1 $425 reversed single #
loop $-1 $-1 $426 $174 #
plane-surface $-1 13.060583039477457 4.2067302460773792 117.69753687671766 0 1 0 0.51503808176128008 0 0.85716729658548041 forward_v I I I I #
coedge $-1 $427 $428 $429 $430 reversed $175 $-1 #
coedge $-1 $283 $177 $431 $432 reversed $112 $-1 #
coedge $-1 $177 $282 $427 $433 reversed $112 $-1 #
coedge $-1 $429 $434 $177 $285 forward $435 $-1 #
edge $-1 $436 -34.834496224027859 $437 -25.530554681940242 $284 $438 forward 7 unknown #
loop $-1 $-1 $291 $178 #
plane-surface $-1 -29.548298824546649 7.0434496446735899 46.784450308404416 0.51503808176128008 0 0.85716729658548041 0.85716729658548041 0 -0.51503808176128008 forward_v I I I I #
loop $-1 $-1 $439 $114 #
coedge $-1 $289 $289 $290 $440 reversed $179 $-1 #
coedge $-1 $290 $290 $289 $440 forward $181 $-1 #
coedge $-1 $291 $291 $182 $292 forward $286 $-1 #
edge $-1 $441 0 $441 6.2831853071796004 $291 $442 forward 7 unknown #
loop $-1 $-1 $298 $183 #
plane-surface $-1 -29.548298824546649 7.0434496446735899 46.784450308404416 0.51503808176128008 0 0.85716729658548041 0.85716729658548041 0 -0.51503808176128008 forward_v I I I I #
loop $-1 $-1 $443 $117 #
coedge $-1 $296 $296 $297 $444 reversed $184 $-1 #
coedge $-1 $297 $297 $296 $444 forward $186 $-1 #
coedge $-1 $298 $298 $187 $299 forward $293 $-1 #
edge $-1 $445 0 $445 6.2831853071796004 $298 $446 forward 7 unknown #
face $-1 $447 $448 $45 $-1 $449 reversed single #
loop $-1 $-1 $450 $188 #
plane-surface $-1 -41.364787743766591 0 0 1 0 0 0 0 -1 forward_v I I I I #
coedge $-1 $451 $311 $452 $453 forward $189 $-1 #
coedge $-1 $454 $191 $451 $455 forward $121 $-1 #
coedge $-1 $191 $454 $456 $457 forward $121 $-1 #
coedge $-1 $314 $313 $191 $307 reversed $315 $-1 #
edge $-1 $458 -21.493859235257823 $459 21.493859235257823 $306 $460 forward 7 unknown #
coedge $-1 $193 $192 $461 $462 forward $76 $-1 #
coedge $-1 $463 $464 $192 $310 reversed $448 $-1 #
edge $-1 $317 -41.364787743766591 $465 41.364787743766591 $309 $466 forward 7 unknown #
coedge $-1 $303 $467 $193 $312 reversed $189 $-1 #
edge $-1 $468 -41.364787743766591 $316 41.364787743766591 $311 $469 forward 7 unknown #
coedge $-1 $306 $194 $467 $470 forward $315 $-1 #
coedge $-1 $194 $306 $463 $471 reversed $315 $-1 #
loop $-1 $-1 $313 $447 #
vertex $-1 $195 $472 #
vertex $-1 $195 $473 #
straight-curve $-1 41.364787743766591 0 9.7659406199688252 0 1 0 I I #
face $-1 $474 $475 $46 $-1 $476 reversed single #
loop $-1 $-1 $330 $196 #
plane-surface $-1 0 -27.748967002557134 6.2544699575234155 0 0 1 1 0 0 forward_v I I I I #
coedge $-1 $477 $478 $200 $327 forward $197 $-1 #
coedge $-1 $479 $199 $478 $480 forward $125 $-1 #
coedge $-1 $199 $479 $481 $482 forward $125 $-1 #
coedge $-1 $201 $200 $199 $326 reversed $79 $-1 #
edge $-1 $483 -41.364787743766591 $484 41.364787743766591 $199 $485 forward 7 unknown #
edge $-1 $484 -9.7659406199688252 $333 -6.2544699575234155 $322 $486 forward 7 unknown #
coedge $-1 $481 $487 $201 $329 forward $488 $-1 #
edge $-1 $332 6.2544699575234155 $483 9.7659406199688252 $328 $489 forward 7 unknown #
coedge $-1 $490 $202 $487 $491 forward $320 $-1 #
coedge $-1 $202 $490 $477 $492 forward $320 $-1 #
vertex $-1 $329 $493 #
vertex $-1 $327 $494 #
straight-curve $-1 0 -21.493859235257823 6.2544699575234155 -1 0 0 I I #
face $-1 $495 $496 $47 $-1 $497 forward single #
loop $-1 $-1 $498 $204 #
plane-surface $-1 0 0 -9.7659406199688252 0 0 1 1 0 0 forward_v I I I I #
coedge $-1 $499 $500 $501 $502 forward $205 $-1 #
coedge $-1 $501 $207 $498 $503 reversed $129 $-1 #
coedge $-1 $207 $501 $504 $505 reversed $129 $-1 #
coedge $-1 $209 $208 $207 $342 reversed $82 $-1 #
edge $-1 $506 -9.7659406199688252 $507 9.7659406199688252 $207 $508 forward 7 unknown #
coedge $-1 $509 $498 $208 $344 forward $336 $-1 #
edge $-1 $507 18.341974742594736 $350 21.462533581646149 $343 $510 forward 7 unknown #
coedge $-1 $504 $511 $209 $346 forward $496 $-1 #
edge $-1 $351 -21.462533581646149 $506 -18.341974742594736 $345 $512 forward 7 unknown #
coedge $-1 $513 $210 $511 $514 reversed $349 $-1 #
coedge $-1 $210 $513 $509 $515 reversed $349 $-1 #
loop $-1 $-1 $210 $495 #
vertex $-1 $515 $516 #
vertex $-1 $211 $517 #
straight-curve $-1 -41.364787743766591 12.069593908319554 0 0 0 1 I I #
face $-1 $-1 $365 $48 $-1 $518 forward single #
loop $-1 $-1 $519 $212 #
plane-surface $-1 -41.364787743766591 0 0 1 0 0 0 0 -1 forward_v I I I I #
coedge $-1 $520 $521 $522 $523 reversed $213 $-1 #
coedge $-1 $524 $215 $217 $363 forward $133 $-1 #
coedge $-1 $215 $524 $520 $525 forward $133 $-1 #
coedge $-1 $522 $218 $215 $360 forward $365 $-1 #
edge $-1 $367 -4.8154691171028272 $526 0.85796968008959418 $359 $527 forward 7 unknown #
coedge $-1 $528 $529 $216 $362 forward $354 $-1 #
edge $-1 $530 -33.368759061966472 $366 -27.778386886377952 $361 $531 forward 7 unknown #
edge $-1 $367 -10.85428898086735 $530 0 $217 $532 forward 7 unknown #
coedge $-1 $218 $522 $528 $533 forward $365 $-1 #
loop $-1 $-1 $522 $353 #
vertex $-1 $362 $534 #
vertex $-1 $219 $535 #
straight-curve $-1 -41.986834803895349 -6.7942188356094437 9.7659406199688235 1 0 0 I I #
coedge $-1 $369 $369 $-1 $536 reversed $222 $-1 #
edge $-1 $537 0 $537 6.2831853071796004 $223 $538 forward 7 unknown #
vertex $-1 $226 $539 #
ellipse-curve $-1 -36.71281697272277 -5.173236322125895 6.9707545321745652 -0.51503808176128008 0 0.85716729658548041 0.4285836482927402 0 0.25751904088064004 1 I I #
coedge $-1 $373 $373 $-1 $540 reversed $229 $-1 #
edge $-1 $541 0 $541 6.2831853071796004 $230 $542 forward 7 unknown #
vertex $-1 $233 $543 #
ellipse-curve $-1 -36.71281697272277 -2.7417625519005711 6.9707545321745652 -0.51503808176128008 0 0.85716729658548041 0.4285836482927402 0 0.25751904088064004 1 I I #
face $-1 $-1 $544 $51 $-1 $545 reversed single #
loop $-1 $-1 $240 $234 #
plane-surface $-1 0 0 9.7659406199688252 0 0 1 1 0 0 forward_v I I I I #
coedge $-1 $546 $547 $548 $549 reversed $235 $-1 #
coedge $-1 $550 $237 $239 $387 forward $147 $-1 #
coedge $-1 $237 $550 $546 $551 forward $147 $-1 #
coedge $-1 $548 $240 $237 $384 forward $378 $-1 #
edge $-1 $390 0.68500542374058426 $552 6.3584442209330057 $383 $553 forward 7 unknown #
coedge $-1 $554 $555 $238 $386 forward $544 $-1 #
edge $-1 $556 -33.368759061966472 $389 -27.778386886377952 $385 $557 forward 7 unknown #
edge $-1 $390 -10.85428898086735 $556 0 $239 $558 forward 7 unknown #
coedge $-1 $240 $548 $554 $559 forward $378 $-1 #
vertex $-1 $241 $560 #
vertex $-1 $241 $561 #
straight-curve $-1 -41.986834803895349 4.2067302460773792 9.7659406199688235 1 0 0 I I #
coedge $-1 $392 $392 $-1 $562 reversed $244 $-1 #
edge $-1 $563 0 $563 6.2831853071796004 $245 $564 forward 7 unknown #
vertex $-1 $248 $565 #
ellipse-curve $-1 -36.71281697272277 5.8277127595609279 6.9707545321745652 -0.51503808176128008 0 0.85716729658548041 0.4285836482927402 0 0.25751904088064004 1 I I #
coedge $-1 $396 $396 $-1 $566 reversed $251 $-1 #
edge $-1 $567 0 $567 6.2831853071796004 $252 $568 forward 7 unknown #
vertex $-1 $255 $569 #
ellipse-curve $-1 -36.71281697272277 8.2591865297862519 6.9707545321745652 -0.51503808176128008 0 0.85716729658548041 0.4285836482927402 0 0.25751904088064004 1 I I #
face $-1 $-1 $570 $54 $-1 $571 reversed single #
loop $-1 $-1 $262 $256 #
plane-surface $-1 0 0 9.7659406199688252 0 0 1 1 0 0 forward_v I I I I #
coedge $-1 $572 $573 $574 $575 reversed $257 $-1 #
coedge $-1 $576 $259 $261 $410 forward $161 $-1 #
coedge $-1 $259 $576 $572 $577 forward $161 $-1 #
coedge $-1 $574 $262 $259 $407 forward $401 $-1 #
edge $-1 $413 -0.85796968008959418 $578 4.8154691171028272 $406 $579 forward 7 unknown #
coedge $-1 $580 $581 $260 $409 forward $570 $-1 #
edge $-1 $582 -54.673199993978521 $412 -49.082827818390008 $408 $583 forward 7 unknown #
edge $-1 $413 71.875286506665844 $582 82.729575487533182 $261 $584 forward 7 unknown #
coedge $-1 $262 $574 $580 $585 forward $401 $-1 #
vertex $-1 $409 $586 #
vertex $-1 $263 $587 #
straight-curve $-1 6.5302915197387286 -1.1207800384170223 9.7659406199688235 -1 0 0 I I #
coedge $-1 $415 $415 $-1 $588 reversed $266 $-1 #
edge $-1 $589 0 $589 6.2831853071796004 $267 $590 forward 7 unknown #
vertex $-1 $270 $591 #
ellipse-curve $-1 36.71281697272277 -5.173236322125895 6.9707545321745767 0.51503808176128008 0 0.85716729658548041 0.4285836482927402 0 -0.25751904088064004 1 I I #
coedge $-1 $419 $419 $-1 $592 reversed $273 $-1 #
edge $-1 $593 0 $593 6.2831853071796004 $274 $594 forward 7 unknown #
vertex $-1 $277 $595 #
ellipse-curve $-1 36.71281697272277 -2.7417625519005711 6.9707545321745767 0.51503808176128008 0 0.85716729658548041 0.4285836482927402 0 -0.25751904088064004 1 I I #
face $-1 $-1 $435 $57 $-1 $596 forward single #
loop $-1 $-1 $597 $278 #
plane-surface $-1 41.364787743766591 0 0 -1 0 0 0 0 1 forward_v I I I I #
coedge $-1 $598 $599 $600 $601 reversed $279 $-1 #
coedge $-1 $602 $281 $283 $433 forward $175 $-1 #
coedge $-1 $281 $602 $598 $603 forward $175 $-1 #
coedge $-1 $600 $284 $281 $430 forward $435 $-1 #
edge $-1 $437 -6.3584442209330057 $604 -0.68500542374058426 $429 $605 forward 7 unknown #
coedge $-1 $606 $607 $282 $432 forward $424 $-1 #
edge $-1 $608 -54.673199993978521 $436 -49.082827818390008 $431 $609 forward 7 unknown #
edge $-1 $437 71.875286506665844 $608 82.729575487533182 $283 $610 forward 7 unknown #
coedge $-1 $284 $600 $606 $611 forward $435 $-1 #
loop $-1 $-1 $600 $423 #
vertex $-1 $432 $612 #
vertex $-1 $285 $613 #
straight-curve $-1 6.5302915197387286 9.8801690432698006 9.7659406199688235 -1 0 0 I I #
coedge $-1 $439 $439 $-1 $614 reversed $288 $-1 #
edge $-1 $615 0 $615 6.2831853071796004 $289 $616 forward 7 unknown #
vertex $-1 $292 $617 #
ellipse-curve $-1 36.71281697272277 5.8277127595609279 6.9707545321745767 0.51503808176128008 0 0.85716729658548041 0.4285836482927402 0 -0.25751904088064004 1 I I #
coedge $-1 $443 $443 $-1 $618 reversed $295 $-1 #
edge $-1 $619 0 $619 6.2831853071796004 $296 $620 forward 7 unknown #
vertex $-1 $299 $621 #
ellipse-curve $-1 36.71281697272277 8.2591865297862519 6.9707545321745767 0.51503808176128008 0 0.85716729658548041 0.4285836482927402 0 -0.25751904088064004 1 I I #
face $-1 $-1 $315 $45 $-1 $622 reversed single #
loop $-1 $-1 $463 $300 #
plane-surface $-1 0 21.493859235257823 0 0 -1 0 0 0 -1 forward_v I I I I #
coedge $-1 $623 $461 $464 $624 forward $301 $-1 #
coedge $-1 $467 $303 $304 $455 reversed $189 $-1 #
coedge $-1 $461 $623 $303 $453 reversed $301 $-1 #
edge $-1 $468 -9.7659406199688252 $625 9.7659406199688252 $452 $626 forward 7 unknown #
coedge $-1 $305 $304 $623 $627 forward $121 $-1 #
edge $-1 $459 -41.364787743766591 $625 41.364787743766591 $451 $628 forward 7 unknown #
coedge $-1 $464 $463 $305 $457 reversed $448 $-1 #
edge $-1 $629 -41.364787743766591 $458 41.364787743766591 $456 $630 forward 7 unknown #
vertex $-1 $307 $631 #
vertex $-1 $470 $632 #
straight-curve $-1 41.364787743766591 0 -9.7659406199688252 0 -1 0 I I #
coedge $-1 $450 $452 $308 $462 reversed $301 $-1 #
edge $-1 $465 -21.493859235257823 $468 21.493859235257823 $461 $633 forward 7 unknown #
coedge $-1 $456 $309 $314 $471 forward $448 $-1 #
coedge $-1 $309 $456 $450 $624 reversed $448 $-1 #
vertex $-1 $310 $634 #
straight-curve $-1 0 21.493859235257823 9.7659406199688252 -1 0 0 I I #
coedge $-1 $311 $451 $313 $470 reversed $189 $-1 #
vertex $-1 $462 $635 #
straight-curve $-1 0 -21.493859235257823 9.7659406199688252 1 0 0 I I #
edge $-1 $316 -9.7659406199688252 $459 9.7659406199688252 $313 $636 forward 7 unknown #
edge $-1 $317 -9.7659406199688252 $458 9.7659406199688252 $314 $637 forward 7 unknown #
point $-1 41.364787743766591 -21.493859235257823 9.7659406199688252 #
point $-1 41.364787743766591 21.493859235257823 9.7659406199688252 #
face $-1 $-1 $488 $46 $-1 $638 reversed single #
loop $-1 $-1 $639 $319 #
plane-surface $-1 0 -34.004074769856445 8.0102052887461195 0 1 0 0 0 1 forward_v I I I I #
coedge $-1 $640 $322 $331 $492 reversed $197 $-1 #
coedge $-1 $322 $640 $323 $480 reversed $197 $-1 #
coedge $-1 $324 $323 $641 $642 forward $125 $-1 #
edge $-1 $484 21.493859235257823 $643 34.004074769856445 $478 $644 forward 7 unknown #
coedge $-1 $645 $328 $324 $482 reversed $488 $-1 #
edge $-1 $646 -34.004074769856445 $483 -21.493859235257823 $481 $647 forward 7 unknown #
vertex $-1 $329 $648 #
vertex $-1 $480 $649 #
straight-curve $-1 0 -21.493859235257823 9.7659406199688252 -1 0 0 I I #
straight-curve $-1 -41.364787743766591 -21.493859235257823 0 0 0 -1 I I #
coedge $-1 $328 $645 $330 $491 reversed $488 $-1 #
loop $-1 $-1 $328 $474 #
straight-curve $-1 41.364787743766591 -21.493859235257823 0 0 0 1 I I #
coedge $-1 $331 $330 $650 $651 forward $320 $-1 #
edge $-1 $332 -6.255107767299311 $652 6.255107767299311 $487 $653 forward 7 unknown #
edge $-1 $654 -6.255107767299311 $333 6.255107767299311 $477 $655 forward 7 unknown #
point $-1 41.364787743766591 -21.493859235257823 6.2544699575234155 #
point $-1 -41.364787743766591 -21.493859235257823 6.2544699575234155 #
face $-1 $-1 $349 $47 $-1 $656 reversed single #
loop $-1 $-1 $504 $335 #
plane-surface $-1 0 0 9.7659406199688252 0 0 1 1 0 0 forward_v I I I I #
coedge $-1 $343 $657 $339 $503 forward $336 $-1 #
coedge $-1 $658 $338 $657 $659 reversed $205 $-1 #
coedge $-1 $338 $658 $660 $661 reversed $205 $-1 #
coedge $-1 $340 $339 $338 $502 reversed $129 $-1 #
edge $-1 $662 -9.7659406199688252 $663 9.7659406199688252 $338 $664 forward 7 unknown #
edge $-1 $663 -13.102995949363478 $507 -3.6787306224252099 $498 $665 forward 7 unknown #
coedge $-1 $660 $345 $340 $505 forward $496 $-1 #
edge $-1 $506 3.6787306224252099 $662 13.102995949363478 $504 $666 forward 7 unknown #
vertex $-1 $346 $667 #
vertex $-1 $344 $668 #
straight-curve $-1 -38.244228904715179 12.069593908319554 0 0 0 -1 I I #
coedge $-1 $657 $343 $348 $515 forward $336 $-1 #
straight-curve $-1 -19.902254162120443 12.069593908319554 -9.7659406199688252 -1 0 0 I I #
coedge $-1 $345 $660 $347 $514 forward $496 $-1 #
straight-curve $-1 -19.902254162120443 12.069593908319554 9.7659406199688252 1 0 0 I I #
coedge $-1 $348 $347 $658 $669 forward $349 $-1 #
edge $-1 $670 -21.493859235257823 $351 -12.069593908319554 $347 $671 forward 7 unknown #
edge $-1 $350 12.069593908319554 $672 21.493859235257823 $348 $673 forward 7 unknown #
point $-1 -41.364787743766591 12.069593908319554 -9.7659406199688252 #
point $-1 -41.364787743766591 12.069593908319554 9.7659406199688252 #
plane-surface $-1 0 0 9.7659406199688252 0 0 1 1 0 0 forward_v I I I I #
coedge $-1 $529 $528 $521 $674 forward $354 $-1 #
coedge $-1 $521 $356 $358 $525 reversed $213 $-1 #
coedge $-1 $356 $520 $519 $674 reversed $213 $-1 #
coedge $-1 $364 $359 $356 $523 forward $365 $-1 #
edge $-1 $526 -9.9259886022163926 $675 -0.62204706012875732 $522 $676 forward 7 unknown #
coedge $-1 $358 $357 $529 $677 reversed $133 $-1 #
edge $-1 $678 0 $526 10.85428898086735 $520 $679 forward 7 unknown #
vertex $-1 $360 $680 #
straight-curve $-1 -32.060846201678949 -1.9787497185066165 9.7659406199688252 0 1 0 I I #
coedge $-1 $519 $361 $364 $533 reversed $354 $-1 #
coedge $-1 $361 $519 $524 $677 forward $354 $-1 #
vertex $-1 $362 $681 #
straight-curve $-1 -41.364787743766591 -6.7942188356094437 37.544327506346775 0 0 1 I I #
straight-curve $-1 -41.364787743766591 -6.7942188356094437 4.1755684443803034 -0.85716729658548041 0 -0.51503808176128008 I I #
edge $-1 $675 1.1207800384170223 $366 6.7942188356094437 $528 $682 forward 7 unknown #
point $-1 -41.364787743766591 -6.7942188356094437 9.7659406199688252 #
point $-1 -32.060846201678956 -6.7942188356094437 9.7659406199688252 #
edge $-1 $683 1 $683 0 $369 $-1 forward 7 unknown #
vertex $-1 $370 $684 #
ellipse-curve $-1 -36.197778890961494 -5.173236322125895 6.1135872355890868 -0.51503808176128008 0 0.85716729658548041 0.4285836482927402 0 0.25751904088064004 1 I I #
point $-1 -36.284233324430033 -5.173236322125895 7.2282735730552075 #
edge $-1 $685 1 $685 0 $373 $-1 forward 7 unknown #
vertex $-1 $374 $686 #
ellipse-curve $-1 -36.197778890961494 -2.7417625519005711 6.1135872355890868 -0.51503808176128008 0 0.85716729658548041 0.4285836482927402 0 0.25751904088064004 1 I I #
point $-1 -36.284233324430033 -2.7417625519005711 7.2282735730552075 #
loop $-1 $-1 $385 $377 #
plane-surface $-1 -41.364787743766591 0 0 1 0 0 0 0 -1 forward_v I I I I #
coedge $-1 $547 $380 $382 $551 reversed $235 $-1 #
coedge $-1 $380 $546 $687 $688 reversed $235 $-1 #
coedge $-1 $388 $383 $380 $549 forward $378 $-1 #
edge $-1 $552 -9.9259886022163926 $689 -0.62204706012875732 $548 $690 forward 7 unknown #
coedge $-1 $382 $381 $555 $691 reversed $147 $-1 #
edge $-1 $692 0 $552 10.85428898086735 $546 $693 forward 7 unknown #
vertex $-1 $384 $694 #
straight-curve $-1 -32.060846201678949 3.521724822336795 9.7659406199688252 0 1 0 I I #
coedge $-1 $687 $385 $388 $559 reversed $544 $-1 #
coedge $-1 $385 $687 $550 $691 forward $544 $-1 #
vertex $-1 $386 $695 #
straight-curve $-1 -41.364787743766591 4.2067302460773792 37.544327506346775 0 0 1 I I #
straight-curve $-1 -41.364787743766591 4.2067302460773792 4.1755684443803034 -0.85716729658548041 0 -0.51503808176128008 I I #
edge $-1 $689 -9.8801690432698006 $389 -4.2067302460773792 $554 $696 forward 7 unknown #
point $-1 -41.364787743766591 4.2067302460773792 9.7659406199688252 #
point $-1 -32.060846201678956 4.2067302460773792 9.7659406199688252 #
edge $-1 $697 1 $697 0 $392 $-1 forward 7 unknown #
vertex $-1 $393 $698 #
ellipse-curve $-1 -36.197778890961494 5.8277127595609279 6.1135872355890868 -0.51503808176128008 0 0.85716729658548041 0.4285836482927402 0 0.25751904088064004 1 I I #
point $-1 -36.284233324430033 5.8277127595609279 7.2282735730552075 #
edge $-1 $699 1 $699 0 $396 $-1 forward 7 unknown #
vertex $-1 $397 $700 #
ellipse-curve $-1 -36.197778890961494 8.2591865297862519 6.1135872355890868 -0.51503808176128008 0 0.85716729658548041 0.4285836482927402 0 0.25751904088064004 1 I I #
point $-1 -36.284233324430033 8.2591865297862519 7.2282735730552075 #
loop $-1 $-1 $408 $400 #
plane-surface $-1 41.364787743766591 0 0 -1 0 0 0 0 1 forward_v I I I I #
coedge $-1 $573 $403 $405 $577 reversed $257 $-1 #
coedge $-1 $403 $572 $701 $702 reversed $257 $-1 #
coedge $-1 $411 $406 $403 $575 forward $401 $-1 #
edge $-1 $578 25.530554681940242 $703 34.834496224027859 $574 $704 forward 7 unknown #
coedge $-1 $405 $404 $581 $705 reversed $161 $-1 #
edge $-1 $706 -82.729575487533182 $578 -71.875286506665844 $572 $707 forward 7 unknown #
vertex $-1 $407 $708 #
straight-curve $-1 32.060846201678977 -1.9787497185066165 9.7659406199688235 0 -1 0 I I #
coedge $-1 $701 $408 $411 $585 reversed $570 $-1 #
coedge $-1 $408 $701 $576 $705 forward $570 $-1 #
vertex $-1 $409 $709 #
straight-curve $-1 41.364787743766591 -1.1207800384170223 58.848768438358832 0 0 1 I I #
straight-curve $-1 -29.548298824546649 -1.1207800384170223 46.784450308404416 0.85716729658548041 0 -0.51503808176128008 I I #
edge $-1 $703 -6.7942188356094437 $412 -1.1207800384170223 $580 $710 forward 7 unknown #
point $-1 41.364787743766591 -1.1207800384170223 9.7659406199688252 #
point $-1 32.06084620167897 -1.1207800384170223 9.7659406199688235 #
edge $-1 $711 1 $711 0 $415 $-1 forward 7 unknown #
vertex $-1 $416 $712 #
ellipse-curve $-1 36.197778890961487 -5.173236322125895 6.1135872355890903 0.51503808176128008 0 0.85716729658548041 0.4285836482927402 0 -0.25751904088064004 1 I I #
point $-1 37.141400621015507 -5.173236322125895 6.7132354912939309 #
edge $-1 $713 1 $713 0 $419 $-1 forward 7 unknown #
vertex $-1 $420 $714 #
ellipse-curve $-1 36.197778890961487 -2.7417625519005711 6.1135872355890903 0.51503808176128008 0 0.85716729658548041 0.4285836482927402 0 -0.25751904088064004 1 I I #
point $-1 37.141400621015507 -2.7417625519005711 6.7132354912939309 #
plane-surface $-1 0 0 9.7659406199688252 0 0 1 1 0 0 forward_v I I I I #
coedge $-1 $607 $606 $599 $715 forward $424 $-1 #
coedge $-1 $599 $426 $428 $603 reversed $279 $-1 #
coedge $-1 $426 $598 $597 $715 reversed $279 $-1 #
coedge $-1 $434 $429 $426 $601 forward $435 $-1 #
edge $-1 $604 25.530554681940242 $716 34.834496224027859 $600 $717 forward 7 unknown #
coedge $-1 $428 $427 $607 $718 reversed $175 $-1 #
edge $-1 $719 -82.729575487533182 $604 -71.875286506665844 $598 $720 forward 7 unknown #
vertex $-1 $430 $721 #
straight-curve $-1 32.060846201678977 3.521724822336795 9.7659406199688235 0 -1 0 I I #
coedge $-1 $597 $431 $434 $611 reversed $424 $-1 #
coedge $-1 $431 $597 $602 $718 forward $424 $-1 #
vertex $-1 $432 $722 #
straight-curve $-1 41.364787743766591 9.8801690432698006 58.848768438358832 0 0 1 I I #
straight-curve $-1 -29.548298824546649 9.8801690432698006 46.784450308404416 0.85716729658548041 0 -0.51503808176128008 I I #
edge $-1 $716 4.2067302460773792 $436 9.8801690432698006 $606 $723 forward 7 unknown #
point $-1 41.364787743766591 9.8801690432698006 9.7659406199688252 #
point $-1 32.06084620167897 9.8801690432698006 9.7659406199688235 #
edge $-1 $724 1 $724 0 $439 $-1 forward 7 unknown #
vertex $-1 $440 $725 #
ellipse-curve $-1 36.197778890961487 5.8277127595609279 6.1135872355890903 0.51503808176128008 0 0.85716729658548041 0.4285836482927402 0 -0.25751904088064004 1 I I #
point $-1 37.141400621015507 5.8277127595609279 6.7132354912939309 #
edge $-1 $726 1 $726 0 $443 $-1 forward 7 unknown #
vertex $-1 $444 $727 #
ellipse-curve $-1 36.197778890961487 8.2591865297862519 6.1135872355890903 0.51503808176128008 0 0.85716729658548041 0.4285836482927402 0 -0.25751904088064004 1 I I #
point $-1 37.141400621015507 8.2591865297862519 6.7132354912939309 #
plane-surface $-1 41.364787743766591 0 0 -1 0 0 0 0 1 forward_v I I I I #
coedge $-1 $452 $450 $454 $627 reversed $301 $-1 #
edge $-1 $465 -9.7659406199688252 $629 9.7659406199688252 $464 $728 forward 7 unknown #
vertex $-1 $627 $729 #
straight-curve $-1 -41.364787743766591 -21.493859235257823 0 0 0 -1 I I #
edge $-1 $625 -21.493859235257823 $629 21.493859235257823 $623 $730 forward 7 unknown #
straight-curve $-1 0 -21.493859235257823 -9.7659406199688252 -1 0 0 I I #
vertex $-1 $457 $731 #
straight-curve $-1 0 21.493859235257823 -9.7659406199688252 1 0 0 I I #
point $-1 41.364787743766591 21.493859235257823 -9.7659406199688252 #
point $-1 41.364787743766591 -21.493859235257823 -9.7659406199688252 #
straight-curve $-1 -41.364787743766591 0 9.7659406199688252 0 -1 0 I I #
point $-1 -41.364787743766591 21.493859235257823 9.7659406199688252 #
point $-1 -41.364787743766591 -21.493859235257823 9.7659406199688252 #
straight-curve $-1 41.364787743766591 -21.493859235257823 0 0 0 -1 I I #
straight-curve $-1 41.364787743766591 21.493859235257823 0 0 0 -1 I I #
plane-surface $-1 41.364787743766591 0 0 -1 0 0 0 0 1 forward_v I I I I #
coedge $-1 $650 $641 $640 $732 forward $475 $-1 #
coedge $-1 $478 $477 $639 $732 reversed $197 $-1 #
coedge $-1 $639 $733 $479 $642 reversed $475 $-1 #
edge $-1 $643 -41.364787743766591 $646 41.364787743766591 $641 $734 forward 7 unknown #
vertex $-1 $480 $735 #
straight-curve $-1 -41.364787743766591 0 9.7659406199688252 0 -1 0 I I #
coedge $-1 $487 $481 $733 $736 forward $488 $-1 #
vertex $-1 $482 $737 #
straight-curve $-1 41.364787743766591 0 9.7659406199688252 0 1 0 I I #
point $-1 41.364787743766591 -21.493859235257823 9.7659406199688252 #
point $-1 -41.364787743766591 -21.493859235257823 9.7659406199688252 #
coedge $-1 $733 $639 $490 $651 reversed $475 $-1 #
edge $-1 $652 -41.364787743766591 $654 41.364787743766591 $650 $738 forward 7 unknown #
vertex $-1 $736 $739 #
straight-curve $-1 41.364787743766591 -27.748967002557134 6.2544699575234155 0 -1 0 I I #
vertex $-1 $492 $740 #
straight-curve $-1 -41.364787743766591 -27.748967002557134 6.2544699575234155 0 1 0 I I #
plane-surface $-1 -41.364787743766591 0 0 1 0 0 0 0 -1 forward_v I I I I #
coedge $-1 $498 $509 $499 $659 forward $336 $-1 #
coedge $-1 $500 $499 $513 $669 reversed $205 $-1 #
edge $-1 $672 -41.364787743766591 $663 -38.244228904715179 $499 $741 forward 7 unknown #
coedge $-1 $511 $504 $500 $661 forward $496 $-1 #
edge $-1 $662 38.244228904715179 $670 41.364787743766591 $500 $742 forward 7 unknown #
vertex $-1 $661 $743 #
vertex $-1 $503 $744 #
straight-curve $-1 -38.244228904715179 21.493859235257823 0 0 0 -1 I I #
straight-curve $-1 -38.244228904715179 8.3908632858943442 -9.7659406199688252 0 -1 0 I I #
straight-curve $-1 -38.244228904715179 8.3908632858943442 9.7659406199688252 0 1 0 I I #
point $-1 -38.244228904715179 12.069593908319554 9.7659406199688252 #
point $-1 -38.244228904715179 12.069593908319554 -9.7659406199688252 #
edge $-1 $670 -9.7659406199688252 $672 9.7659406199688252 $658 $745 forward 7 unknown #
vertex $-1 $661 $746 #
straight-curve $-1 -41.364787743766591 0 9.7659406199688252 0 -1 0 I I #
vertex $-1 $659 $747 #
straight-curve $-1 -41.364787743766591 0 -9.7659406199688252 0 1 0 I I #
edge $-1 $675 27.778386886377952 $678 33.368759061966472 $519 $748 forward 7 unknown #
vertex $-1 $533 $749 #
straight-curve $-1 -41.986834803895349 -1.1207800384170223 9.7659406199688235 -1 0 0 I I #
edge $-1 $678 -0.85796968008959418 $530 4.8154691171028272 $529 $750 forward 7 unknown #
vertex $-1 $677 $751 #
straight-curve $-1 -41.364787743766591 -1.1207800384170223 4.1755684443803034 0.85716729658548041 0 0.51503808176128008 I I #
point $-1 -32.060846201678956 -1.1207800384170223 9.7659406199688252 #
point $-1 -41.364787743766591 -6.7942188356094437 4.1755684443803034 #
straight-curve $-1 -41.364787743766591 0 9.7659406199688252 0 -1 0 I I #
vertex $-1 $536 $752 #
point $-1 -35.769195242668758 -5.173236322125895 6.3711062764697273 #
vertex $-1 $540 $753 #
point $-1 -35.769195242668758 -2.7417625519005711 6.3711062764697273 #
coedge $-1 $555 $554 $547 $688 forward $544 $-1 #
edge $-1 $689 27.778386886377952 $692 33.368759061966472 $687 $754 forward 7 unknown #
vertex $-1 $559 $755 #
straight-curve $-1 -41.986834803895349 9.8801690432698006 9.7659406199688235 -1 0 0 I I #
edge $-1 $692 -6.3584442209330057 $556 -0.68500542374058426 $555 $756 forward 7 unknown #
vertex $-1 $691 $757 #
straight-curve $-1 -41.364787743766591 9.8801690432698006 4.1755684443803034 0.85716729658548041 0 0.51503808176128008 I I #
point $-1 -32.060846201678956 9.8801690432698006 9.7659406199688252 #
point $-1 -41.364787743766591 4.2067302460773792 4.1755684443803034 #
straight-curve $-1 -41.364787743766591 0 9.7659406199688252 0 -1 0 I I #
vertex $-1 $562 $758 #
point $-1 -35.769195242668758 5.8277127595609279 6.3711062764697273 #
vertex $-1 $566 $759 #
point $-1 -35.769195242668758 8.2591865297862519 6.3711062764697273 #
coedge $-1 $581 $580 $573 $702 forward $570 $-1 #
edge $-1 $703 49.082827818390008 $706 54.673199993978521 $701 $760 forward 7 unknown #
vertex $-1 $585 $761 #
straight-curve $-1 6.5302915197387286 -6.7942188356094437 9.7659406199688235 1 0 0 I I #
edge $-1 $706 -4.8154691171028272 $582 0.85796968008959418 $581 $762 forward 7 unknown #
vertex $-1 $705 $763 #
straight-curve $-1 -29.548298824546649 -6.7942188356094437 46.784450308404416 -0.85716729658548041 0 0.51503808176128008 I I #
point $-1 32.06084620167897 -6.7942188356094437 9.7659406199688235 #
point $-1 41.364787743766598 -1.1207800384170223 4.1755684443803105 #
straight-curve $-1 41.364787743766591 0 9.7659406199688252 0 1 0 I I #
vertex $-1 $588 $764 #
point $-1 36.626362539254231 -5.173236322125895 5.8560681947084507 #
vertex $-1 $592 $765 #
point $-1 36.626362539254231 -2.7417625519005711 5.8560681947084507 #
edge $-1 $716 49.082827818390008 $719 54.673199993978521 $597 $766 forward 7 unknown #
vertex $-1 $611 $767 #
straight-curve $-1 6.5302915197387286 4.2067302460773792 9.7659406199688235 1 0 0 I I #
edge $-1 $719 0.68500542374058426 $608 6.3584442209330057 $607 $768 forward 7 unknown #
vertex $-1 $718 $769 #
straight-curve $-1 -29.548298824546649 4.2067302460773792 46.784450308404416 -0.85716729658548041 0 0.51503808176128008 I I #
point $-1 32.06084620167897 4.2067302460773792 9.7659406199688235 #
point $-1 41.364787743766598 9.8801690432698006 4.1755684443803105 #
straight-curve $-1 41.364787743766591 0 9.7659406199688252 0 1 0 I I #
vertex $-1 $614 $770 #
point $-1 36.626362539254231 5.8277127595609279 5.8560681947084507 #
vertex $-1 $618 $771 #
point $-1 36.626362539254231 8.2591865297862519 5.8560681947084507 #
straight-curve $-1 -41.364787743766591 21.493859235257823 0 0 0 -1 I I #
point $-1 -41.364787743766591 -21.493859235257823 -9.7659406199688252 #
straight-curve $-1 -41.364787743766591 0 -9.7659406199688252 0 1 0 I I #
point $-1 -41.364787743766591 21.493859235257823 -9.7659406199688252 #
edge $-1 $643 -1.755735331222704 $654 1.755735331222704 $640 $772 forward 7 unknown #
coedge $-1 $641 $650 $645 $736 reversed $475 $-1 #
straight-curve $-1 0 -34.004074769856445 9.7659406199688235 1 0 0 I I #
point $-1 -41.364787743766591 -34.004074769856445 9.7659406199688235 #
edge $-1 $646 -1.755735331222704 $652 1.755735331222704 $645 $773 forward 7 unknown #
point $-1 41.364787743766591 -34.004074769856445 9.7659406199688235 #
straight-curve $-1 0 -34.004074769856445 6.2544699575234155 -1 0 0 I I #
point $-1 41.364787743766591 -34.004074769856445 6.2544699575234155 #
point $-1 -41.364787743766591 -34.004074769856445 6.2544699575234155 #
straight-curve $-1 0 21.493859235257823 -9.7659406199688252 1 0 0 I I #
straight-curve $-1 0 21.493859235257823 9.7659406199688252 -1 0 0 I I #
point $-1 -38.244228904715179 21.493859235257823 9.7659406199688252 #
point $-1 -38.244228904715179 21.493859235257823 -9.7659406199688252 #
straight-curve $-1 -41.364787743766591 21.493859235257823 0 0 0 -1 I I #
point $-1 -41.364787743766591 21.493859235257823 9.7659406199688252 #
point $-1 -41.364787743766591 21.493859235257823 -9.7659406199688252 #
straight-curve $-1 -41.364787743766591 -1.1207800384170223 37.544327506346775 0 0 -1 I I #
point $-1 -41.364787743766591 -1.1207800384170223 9.7659406199688252 #
straight-curve $-1 -41.364787743766591 -1.9787497185066165 4.1755684443803016 0 -1 0 I I #
point $-1 -41.364787743766591 -1.1207800384170223 4.1755684443803034 #
point $-1 -35.940259850080857 -5.173236322125895 5.6850035872963467 #
point $-1 -35.940259850080857 -2.7417625519005711 5.6850035872963467 #
straight-curve $-1 -41.364787743766591 9.8801690432698006 37.544327506346775 0 0 -1 I I #
point $-1 -41.364787743766591 9.8801690432698006 9.7659406199688252 #
straight-curve $-1 -41.364787743766591 3.521724822336795 4.1755684443803016 0 -1 0 I I #
point $-1 -41.364787743766591 9.8801690432698006 4.1755684443803034 #
point $-1 -35.940259850080857 5.8277127595609279 5.6850035872963467 #
point $-1 -35.940259850080857 8.2591865297862519 5.6850035872963467 #
straight-curve $-1 41.364787743766591 -6.7942188356094437 58.848768438358832 0 0 -1 I I #
point $-1 41.364787743766591 -6.7942188356094437 9.7659406199688252 #
straight-curve $-1 41.364787743766591 -1.9787497185066165 4.175568444380314 0 1 0 I I #
point $-1 41.364787743766598 -6.7942188356094437 4.1755684443803105 #
point $-1 35.940259850080849 -5.173236322125895 5.6850035872963502 #
point $-1 35.940259850080849 -2.7417625519005711 5.6850035872963502 #
straight-curve $-1 41.364787743766591 4.2067302460773792 58.848768438358832 0 0 -1 I I #
point $-1 41.364787743766591 4.2067302460773792 9.7659406199688252 #
straight-curve $-1 41.364787743766591 3.521724822336795 4.175568444380314 0 1 0 I I #
point $-1 41.364787743766598 4.2067302460773792 4.1755684443803105 #
point $-1 35.940259850080849 5.8277127595609279 5.6850035872963502 #
point $-1 35.940259850080849 8.2591865297862519 5.6850035872963502 #
straight-curve $-1 -41.364787743766591 -34.004074769856445 8.0102052887461195 0 0 -1 I I #
straight-curve $-1 41.364787743766591 -34.004074769856445 8.0102052887461195 0 0 -1 I I #
End-of-ACIS-data 