500 0 4 0           
7 Unknown 11 ACIS 5.0 NT 24 Fri Mar 26 15:09:36 1999 
-1 9.9999999999999995e-007 1e-010 
body $-1 $4 $-1 $5 #
body $-1 $6 $-1 $7 #
body $-1 $8 $-1 $9 #
body $-1 $10 $-1 $11 #
lump $-1 $-1 $12 $0 #
transform $-1 1 0 0 0 1 0 0 0 1 44.444715720084233 23.650904098525736 6.8414175666819155 1 rotate no_reflect no_shear #
lump $-1 $-1 $13 $1 #
transform $-1 1 0 0 0 1 0 0 0 1 44.444715720084233 23.650904098525736 6.8414175666819155 1 rotate no_reflect no_shear #
lump $-1 $-1 $14 $2 #
transform $-1 1 0 0 0 1 0 0 0 1 44.444715720084233 23.650904098525736 6.8414175666819155 1 rotate no_reflect no_shear #
lump $-1 $-1 $15 $3 #
transform $-1 1 0 0 0 1 0 0 0 1 44.444715720084233 23.650904098525736 6.8414175666819155 1 rotate no_reflect no_shear #
shell $-1 $-1 $-1 $16 $-1 $4 #
shell $-1 $-1 $-1 $17 $-1 $6 #
shell $-1 $-1 $-1 $18 $-1 $8 #
shell $-1 $-1 $-1 $19 $-1 $10 #
face $-1 $20 $21 $12 $-1 $22 forward single #
face $-1 $23 $24 $13 $-1 $25 forward single #
face $-1 $26 $27 $14 $-1 $28 forward single #
face $-1 $29 $30 $15 $-1 $31 reversed single #
face $-1 $32 $33 $12 $-1 $34 reversed single #
loop $-1 $-1 $35 $16 #
plane-surface $-1 0 0 6.8414175666819155 0 0 1 1 0 0 forward_v I I I I #
face $-1 $36 $37 $13 $-1 $38 forward single #
loop $-1 $-1 $39 $17 #
plane-surface $-1 0 -19.34061685693997 3.8414175666819155 0 0 1 1 0 0 forward_v I I I I #
face $-1 $40 $41 $14 $-1 $42 forward single #
loop $-1 $-1 $43 $18 #
plane-surface $-1 -90.22615797787941 13.062835971677121 78.103798889996497 0 1 0 -0.51503808176128008 0 0.85716729658548041 forward_v I I I I #
face $-1 $44 $45 $15 $-1 $46 reversed single #
loop $-1 $47 $48 $19 #
cone-surface $-1 -39.836624027492057 18.35687003510143 3.5355346120085533 0.51503808176128008 0 -0.85716729658548041 0.85716729658548041 0 0.51503808176128008 1 I I 0 1 1 forward I I I I #
face $-1 $49 $50 $12 $-1 $51 reversed single #
loop $-1 $-1 $52 $20 #
plane-surface $-1 0 0 -6.8414175666819155 0 0 1 1 0 0 forward_v I I I I #
coedge $-1 $53 $54 $55 $56 forward $21 $-1 #
face $-1 $57 $58 $13 $-1 $59 forward single #
loop $-1 $-1 $60 $23 #
plane-surface $-1 0 -15.030329615354205 5.3414175666819155 0 -1 0 0 0 -1 forward_v I I I I #
coedge $-1 $61 $62 $63 $64 reversed $24 $-1 #
face $-1 $65 $66 $14 $-1 $67 forward single #
loop $-1 $-1 $68 $26 #
plane-surface $-1 -44.444715720084226 18.35687003510143 1.9106852474068887 -0.51503808176128008 0 0.85716729658548041 0.85716729658548041 0 0.51503808176128008 forward_v I I I I #
coedge $-1 $69 $70 $71 $72 reversed $27 $-1 #
face $-1 $73 $74 $15 $-1 $75 forward single #
loop $-1 $76 $77 $29 #
cone-surface $-1 -39.074071535699503 18.35687003510143 2.2664341686799609 0.51503808176128008 0 -0.85716729658548041 0.4285836482927402 0 0.25751904088064004 1 I I -0.70710678118654746 0.70710678118654746 0.5 forward I I I I #
loop $-1 $-1 $78 $19 #
coedge $-1 $48 $48 $79 $80 reversed $30 $-1 #
face $-1 $81 $82 $12 $-1 $83 reversed single #
loop $-1 $-1 $84 $32 #
plane-surface $-1 0 -23.650904098525736 0 0 1 0 0 0 1 forward_v I I I I #
coedge $-1 $85 $86 $87 $88 forward $33 $-1 #
coedge $-1 $89 $35 $90 $91 forward $21 $-1 #
coedge $-1 $35 $89 $92 $93 forward $21 $-1 #
coedge $-1 $94 $95 $35 $56 reversed $96 $-1 #
edge $-1 $97 -23.650904098525736 $98 23.650904098525736 $55 $99 forward 7 unknown #
face $-1 $100 $101 $13 $-1 $102 reversed single #
loop $-1 $-1 $103 $36 #
plane-surface $-1 0 0 6.8414175666819155 0 0 1 1 0 0 forward_v I I I I #
coedge $-1 $104 $105 $106 $107 reversed $37 $-1 #
coedge $-1 $108 $39 $105 $109 reversed $24 $-1 #
coedge $-1 $39 $108 $110 $111 reversed $24 $-1 #
coedge $-1 $112 $106 $39 $64 forward $101 $-1 #
edge $-1 $113 5.3600211868842198 $114 13.980595670055751 $63 $115 forward 7 unknown #
face $-1 $116 $117 $14 $-1 $118 reversed single #
loop $-1 $-1 $119 $40 #
plane-surface $-1 0 0 6.8414175666819155 0 0 1 1 0 0 forward_v I I I I #
coedge $-1 $120 $121 $119 $122 reversed $41 $-1 #
coedge $-1 $70 $43 $121 $123 forward $27 $-1 #
coedge $-1 $43 $69 $124 $125 reversed $27 $-1 #
coedge $-1 $126 $119 $43 $72 forward $66 $-1 #
edge $-1 $127 -8.8744797522160113 $128 -0.66836326885547237 $71 $129 forward 7 unknown #
face $-1 $130 $131 $15 $-1 $132 forward single #
loop $-1 $-1 $133 $44 #
plane-surface $-1 -90.22615797787941 13.062835971677121 78.103798889996497 0 1 0 -0.51503808176128008 0 0.85716729658548041 forward_v I I I I #
loop $-1 $-1 $134 $29 #
coedge $-1 $77 $77 $78 $135 forward $45 $-1 #
coedge $-1 $78 $78 $77 $135 reversed $47 $-1 #
coedge $-1 $79 $79 $48 $80 forward $131 $-1 #
edge $-1 $136 0 $136 6.2831853071796004 $79 $137 forward 7 unknown #
face $-1 $138 $139 $12 $-1 $140 reversed single #
loop $-1 $-1 $141 $49 #
plane-surface $-1 -44.444715720084233 0 0 1 0 0 0 0 -1 forward_v I I I I #
coedge $-1 $142 $92 $143 $144 forward $50 $-1 #
coedge $-1 $145 $52 $142 $146 forward $33 $-1 #
coedge $-1 $52 $145 $147 $148 forward $33 $-1 #
coedge $-1 $95 $94 $52 $88 reversed $96 $-1 #
edge $-1 $149 -23.650904098525736 $150 23.650904098525736 $87 $151 forward 7 unknown #
coedge $-1 $54 $53 $152 $153 forward $21 $-1 #
coedge $-1 $154 $155 $53 $91 reversed $139 $-1 #
edge $-1 $98 -44.444715720084233 $156 44.444715720084233 $90 $157 forward 7 unknown #
coedge $-1 $84 $158 $54 $93 reversed $50 $-1 #
edge $-1 $159 -44.444715720084233 $97 44.444715720084233 $92 $160 forward 7 unknown #
coedge $-1 $87 $55 $158 $161 forward $96 $-1 #
coedge $-1 $55 $87 $154 $162 reversed $96 $-1 #
loop $-1 $-1 $94 $138 #
vertex $-1 $56 $163 #
vertex $-1 $56 $164 #
straight-curve $-1 44.444715720084233 0 6.8414175666819155 0 1 0 I I #
face $-1 $165 $166 $13 $-1 $167 reversed single #
loop $-1 $-1 $106 $57 #
plane-surface $-1 44.444715720084233 0 0 -1 0 0 0 0 1 forward_v I I I I #
coedge $-1 $168 $169 $104 $170 forward $58 $-1 #
coedge $-1 $171 $60 $103 $170 reversed $37 $-1 #
coedge $-1 $60 $171 $61 $109 forward $37 $-1 #
coedge $-1 $63 $172 $60 $107 forward $101 $-1 #
edge $-1 $173 -4.1707087833409577 $113 -1.1707087833409577 $106 $174 forward 7 unknown #
coedge $-1 $62 $61 $175 $176 reversed $24 $-1 #
edge $-1 $177 -44.444715720084233 $113 44.444715720084233 $105 $178 forward 7 unknown #
coedge $-1 $179 $180 $62 $111 forward $181 $-1 #
edge $-1 $114 -44.444715720084233 $182 44.444715720084233 $110 $183 forward 7 unknown #
coedge $-1 $184 $63 $180 $185 forward $101 $-1 #
vertex $-1 $64 $186 #
vertex $-1 $185 $187 #
straight-curve $-1 44.444715720084233 -9.6703084284699852 3.8414175666819155 0 -1 0 I I #
face $-1 $188 $189 $14 $-1 $190 forward single #
loop $-1 $-1 $124 $65 #
plane-surface $-1 -44.444715720084233 0 0 1 0 0 0 0 -1 forward_v I I I I #
coedge $-1 $71 $191 $68 $122 forward $66 $-1 #
coedge $-1 $192 $68 $193 $194 reversed $41 $-1 #
coedge $-1 $68 $192 $69 $123 reversed $41 $-1 #
edge $-1 $195 -14.472469080975024 $127 -3.8844009541264057 $119 $196 forward 7 unknown #
edge $-1 $127 -9.5735295969054537 $197 8.2634070795339233e-015 $69 $198 forward 7 unknown #
coedge $-1 $199 $200 $70 $125 forward $117 $-1 #
edge $-1 $128 32.21048187831633 $197 37.141214197591367 $124 $201 forward 7 unknown #
coedge $-1 $202 $71 $200 $203 forward $66 $-1 #
vertex $-1 $122 $204 #
vertex $-1 $203 $205 #
straight-curve $-1 -45.113078988939705 13.062835971677121 6.841417566681919 -1 0 0 I I #
face $-1 $206 $207 $15 $-1 $208 forward single #
loop $-1 $209 $79 $73 #
plane-surface $-1 -44.444715720084226 18.35687003510143 1.9106852474068887 -0.51503808176128008 0 0.85716729658548041 0.85716729658548041 0 0.51503808176128008 forward_v I I I I #
coedge $-1 $210 $211 $212 $213 reversed $74 $-1 #
coedge $-1 $134 $134 $-1 $214 forward $76 $-1 #
edge $-1 $215 0 $215 6.2831853071796004 $77 $216 forward 7 unknown #
vertex $-1 $80 $217 #
ellipse-curve $-1 -40.341657478403967 18.35687003510143 4.3760514070443959 0.51503808176128008 0 -0.85716729658548041 0.85716729658548041 0 0.51503808176128008 1 I I #
face $-1 $-1 $96 $12 $-1 $218 reversed single #
loop $-1 $-1 $154 $81 #
plane-surface $-1 0 23.650904098525736 0 0 -1 0 0 0 -1 forward_v I I I I #
coedge $-1 $219 $152 $155 $220 forward $82 $-1 #
coedge $-1 $158 $84 $85 $146 reversed $50 $-1 #
coedge $-1 $152 $219 $84 $144 reversed $82 $-1 #
edge $-1 $159 -6.8414175666819155 $221 6.8414175666819155 $143 $222 forward 7 unknown #
coedge $-1 $86 $85 $219 $223 forward $33 $-1 #
edge $-1 $150 -44.444715720084233 $221 44.444715720084233 $142 $224 forward 7 unknown #
coedge $-1 $155 $154 $86 $148 reversed $139 $-1 #
edge $-1 $225 -44.444715720084233 $149 44.444715720084233 $147 $226 forward 7 unknown #
vertex $-1 $88 $227 #
vertex $-1 $161 $228 #
straight-curve $-1 44.444715720084233 0 -6.8414175666819155 0 -1 0 I I #
coedge $-1 $141 $143 $89 $153 reversed $82 $-1 #
edge $-1 $156 -23.650904098525736 $159 23.650904098525736 $152 $229 forward 7 unknown #
coedge $-1 $147 $90 $95 $162 forward $139 $-1 #
coedge $-1 $90 $147 $141 $220 reversed $139 $-1 #
vertex $-1 $91 $230 #
straight-curve $-1 0 23.650904098525736 6.8414175666819155 -1 0 0 I I #
coedge $-1 $92 $142 $94 $161 reversed $50 $-1 #
vertex $-1 $153 $231 #
straight-curve $-1 0 -23.650904098525736 6.8414175666819155 1 0 0 I I #
edge $-1 $97 -6.8414175666819155 $150 6.8414175666819155 $94 $232 forward 7 unknown #
edge $-1 $98 -6.8414175666819155 $149 6.8414175666819155 $95 $233 forward 7 unknown #
point $-1 44.444715720084233 -23.650904098525736 6.8414175666819155 #
point $-1 44.444715720084233 23.650904098525736 6.8414175666819155 #
face $-1 $234 $181 $13 $-1 $235 reversed single #
loop $-1 $-1 $236 $100 #
plane-surface $-1 0 0 -6.8414175666819155 0 0 1 1 0 0 forward_v I I I I #
coedge $-1 $237 $103 $172 $238 forward $58 $-1 #
coedge $-1 $103 $237 $239 $240 forward $58 $-1 #
edge $-1 $241 -44.444715720084233 $173 44.444715720084233 $103 $242 forward 7 unknown #
coedge $-1 $105 $104 $243 $244 reversed $37 $-1 #
coedge $-1 $106 $245 $168 $238 reversed $101 $-1 #
vertex $-1 $238 $246 #
straight-curve $-1 44.444715720084233 -15.030329615354205 2.6707087833409577 0 0 -1 I I #
coedge $-1 $243 $247 $108 $176 forward $248 $-1 #
edge $-1 $182 -13.980595670055751 $177 -5.3600211868842198 $175 $249 forward 7 unknown #
vertex $-1 $176 $250 #
straight-curve $-1 0 -15.030329615354205 3.8414175666819155 1 0 0 I I #
coedge $-1 $251 $110 $247 $252 forward $181 $-1 #
coedge $-1 $110 $251 $112 $185 reversed $181 $-1 #
loop $-1 $-1 $110 $165 #
vertex $-1 $252 $253 #
straight-curve $-1 0 -23.650904098525736 3.8414175666819155 -1 0 0 I I #
coedge $-1 $245 $112 $236 $254 reversed $101 $-1 #
edge $-1 $114 -3.8414175666819155 $255 6.8414175666819155 $112 $256 forward 7 unknown #
point $-1 44.444715720084233 -15.030329615354205 3.8414175666819155 #
point $-1 44.444715720084233 -23.650904098525736 3.8414175666819155 #
face $-1 $257 $258 $14 $-1 $259 forward single #
loop $-1 $-1 $260 $116 #
plane-surface $-1 0 -19.34061685693997 3.8414175666819155 0 0 1 1 0 0 forward_v I I I I #
coedge $-1 $119 $261 $262 $263 forward $66 $-1 #
coedge $-1 $121 $120 $199 $264 reversed $41 $-1 #
coedge $-1 $262 $265 $120 $194 forward $266 $-1 #
edge $-1 $267 -18.556240578310394 $195 -8.9827109814049333 $193 $268 forward 7 unknown #
vertex $-1 $194 $269 #
straight-curve $-1 -36.238599236723687 9.178435017550715 6.8414175666819155 0 -1 0 I I #
vertex $-1 $264 $270 #
straight-curve $-1 -44.444715720084226 13.062835971677121 1.9106852474068887 -0.85716729658548041 0 -0.51503808176128008 I I #
coedge $-1 $271 $124 $192 $264 forward $117 $-1 #
coedge $-1 $124 $272 $126 $203 reversed $117 $-1 #
straight-curve $-1 -44.444715720084233 13.062835971677121 39.051899444998249 0 0 -1 I I #
coedge $-1 $261 $126 $273 $274 forward $66 $-1 #
edge $-1 $128 -13.062835971677121 $275 15.030329615354205 $200 $276 forward 7 unknown #
point $-1 -36.238599236723694 13.062835971677121 6.8414175666819155 #
point $-1 -44.444715720084233 13.062835971677121 6.8414175666819155 #
face $-1 $277 $278 $15 $-1 $279 reversed single #
loop $-1 $-1 $280 $130 #
plane-surface $-1 0 0 6.8414175666819155 0 0 1 1 0 0 forward_v I I I I #
loop $-1 $-1 $281 $73 #
coedge $-1 $211 $133 $282 $283 forward $74 $-1 #
coedge $-1 $133 $210 $284 $285 reversed $74 $-1 #
coedge $-1 $286 $280 $133 $213 forward $207 $-1 #
edge $-1 $287 -8.8744797522160113 $288 -0.66836326885547237 $212 $289 forward 7 unknown #
edge $-1 $290 1 $290 0 $134 $-1 forward 7 unknown #
vertex $-1 $135 $291 #
ellipse-curve $-1 -39.33159057658014 18.35687003510143 2.695017816972701 -0.51503808176128008 0 0.85716729658548041 0.85716729658548041 0 0.51503808176128008 1 I I #
point $-1 -39.484490181818501 18.35687003510143 4.8910894888056866 #
plane-surface $-1 44.444715720084233 0 0 -1 0 0 0 0 1 forward_v I I I I #
coedge $-1 $143 $141 $145 $223 reversed $82 $-1 #
edge $-1 $156 -6.8414175666819155 $225 6.8414175666819155 $155 $292 forward 7 unknown #
vertex $-1 $223 $293 #
straight-curve $-1 -44.444715720084233 -23.650904098525736 0 0 0 -1 I I #
edge $-1 $221 -23.650904098525736 $225 23.650904098525736 $219 $294 forward 7 unknown #
straight-curve $-1 0 -23.650904098525736 -6.8414175666819155 -1 0 0 I I #
vertex $-1 $148 $295 #
straight-curve $-1 0 23.650904098525736 -6.8414175666819155 1 0 0 I I #
point $-1 44.444715720084233 23.650904098525736 -6.8414175666819155 #
point $-1 44.444715720084233 -23.650904098525736 -6.8414175666819155 #
straight-curve $-1 -44.444715720084233 0 6.8414175666819155 0 -1 0 I I #
point $-1 -44.444715720084233 23.650904098525736 6.8414175666819155 #
point $-1 -44.444715720084233 -23.650904098525736 6.8414175666819155 #
straight-curve $-1 44.444715720084233 -23.650904098525736 0 0 0 -1 I I #
straight-curve $-1 44.444715720084233 23.650904098525736 0 0 0 -1 I I #
face $-1 $296 $248 $13 $-1 $297 reversed single #
plane-surface $-1 0 -23.650904098525736 0 0 1 0 0 0 1 forward_v I I I I #
coedge $-1 $298 $299 $184 $254 forward $166 $-1 #
coedge $-1 $169 $168 $300 $301 forward $58 $-1 #
edge $-1 $173 -15.030329615354205 $302 23.650904098525736 $172 $303 forward 7 unknown #
coedge $-1 $304 $243 $169 $240 reversed $248 $-1 #
edge $-1 $305 -23.650904098525736 $241 15.030329615354205 $239 $306 forward 7 unknown #
vertex $-1 $244 $307 #
straight-curve $-1 0 -15.030329615354205 6.8414175666819155 1 0 0 I I #
coedge $-1 $239 $175 $171 $244 forward $248 $-1 #
edge $-1 $177 1.1707087833409577 $241 4.1707087833409577 $243 $308 forward 7 unknown #
coedge $-1 $172 $184 $309 $310 reversed $101 $-1 #
point $-1 44.444715720084233 -15.030329615354205 6.8414175666819155 #
coedge $-1 $175 $311 $179 $252 reversed $248 $-1 #
loop $-1 $-1 $243 $234 #
straight-curve $-1 -44.444715720084233 -9.6703084284699852 3.8414175666819155 0 1 0 I I #
point $-1 -44.444715720084233 -15.030329615354205 3.8414175666819155 #
coedge $-1 $180 $179 $298 $312 reversed $181 $-1 #
edge $-1 $182 -3.8414175666819155 $313 6.8414175666819155 $247 $314 forward 7 unknown #
point $-1 -44.444715720084233 -23.650904098525736 3.8414175666819155 #
edge $-1 $315 -23.650904098525736 $255 23.650904098525736 $184 $316 forward 7 unknown #
vertex $-1 $185 $317 #
straight-curve $-1 44.444715720084233 -23.650904098525736 0 0 0 -1 I I #
face $-1 $318 $319 $14 $-1 $320 reversed single #
loop $-1 $-1 $321 $188 #
plane-surface $-1 0 -15.030329615354205 5.3414175666819155 0 -1 0 0 0 -1 forward_v I I I I #
coedge $-1 $322 $323 $324 $325 reversed $189 $-1 #
coedge $-1 $191 $202 $326 $327 forward $66 $-1 #
coedge $-1 $328 $193 $191 $263 reversed $266 $-1 #
edge $-1 $329 -44.444715720084233 $195 36.238599236723694 $262 $330 forward 7 unknown #
edge $-1 $197 3.8844009541264057 $267 14.472469080975024 $199 $331 forward 7 unknown #
coedge $-1 $193 $332 $271 $333 reversed $266 $-1 #
loop $-1 $-1 $193 $334 #
vertex $-1 $333 $335 #
straight-curve $-1 -28.538913148784118 23.650904098525736 11.467855799560697 0.85716729658548041 0 0.51503808176128008 I I #
point $-1 -36.238599236723694 23.650904098525739 6.8414175666819155 #
point $-1 -44.444715720084233 13.062835971677121 1.9106852474068845 #
coedge $-1 $336 $199 $265 $333 forward $117 $-1 #
coedge $-1 $200 $337 $338 $339 forward $117 $-1 #
coedge $-1 $338 $321 $202 $274 reversed $258 $-1 #
edge $-1 $275 -44.444715720084233 $340 44.444715720084233 $202 $341 forward 7 unknown #
vertex $-1 $339 $342 #
straight-curve $-1 -44.444715720084233 0 6.8414175666819155 0 -1 0 I I #
face $-1 $343 $344 $15 $-1 $345 forward single #
loop $-1 $-1 $284 $206 #
plane-surface $-1 -44.444715720084233 0 0 1 0 0 0 0 -1 forward_v I I I I #
coedge $-1 $212 $346 $281 $347 forward $207 $-1 #
coedge $-1 $348 $282 $280 $347 reversed $209 $-1 #
coedge $-1 $281 $349 $210 $283 reversed $209 $-1 #
edge $-1 $287 -9.5735295969054537 $350 8.2634070795339233e-015 $210 $351 forward 7 unknown #
coedge $-1 $352 $353 $211 $285 forward $278 $-1 #
edge $-1 $288 32.21048187831633 $350 37.141214197591367 $284 $354 forward 7 unknown #
coedge $-1 $355 $212 $353 $356 forward $207 $-1 #
vertex $-1 $347 $357 #
vertex $-1 $356 $358 #
straight-curve $-1 -45.113078988939705 13.062835971677121 6.841417566681919 -1 0 0 I I #
vertex $-1 $214 $359 #
point $-1 -38.47442327999466 18.35687003510143 3.2100558987339811 #
straight-curve $-1 -44.444715720084233 23.650904098525736 0 0 0 -1 I I #
point $-1 -44.444715720084233 -23.650904098525736 -6.8414175666819155 #
straight-curve $-1 -44.444715720084233 0 -6.8414175666819155 0 1 0 I I #
point $-1 -44.444715720084233 23.650904098525736 -6.8414175666819155 #
face $-1 $-1 $360 $13 $-1 $361 reversed single #
plane-surface $-1 -44.444715720084233 0 0 1 0 0 0 0 -1 forward_v I I I I #
coedge $-1 $362 $236 $251 $312 forward $166 $-1 #
coedge $-1 $236 $362 $363 $364 forward $166 $-1 #
coedge $-1 $309 $365 $237 $301 reversed $360 $-1 #
edge $-1 $302 -44.444715720084233 $305 44.444715720084233 $300 $366 forward 7 unknown #
vertex $-1 $238 $367 #
straight-curve $-1 44.444715720084233 0 6.8414175666819155 0 1 0 I I #
coedge $-1 $311 $239 $365 $368 forward $248 $-1 #
vertex $-1 $301 $369 #
straight-curve $-1 -44.444715720084233 0 6.8414175666819155 0 -1 0 I I #
point $-1 -44.444715720084233 -15.030329615354205 6.8414175666819155 #
straight-curve $-1 -44.444715720084233 -15.030329615354205 2.6707087833409577 0 0 1 I I #
coedge $-1 $363 $300 $245 $310 forward $360 $-1 #
edge $-1 $302 -6.8414175666819155 $315 6.8414175666819155 $245 $370 forward 7 unknown #
coedge $-1 $247 $304 $362 $371 reversed $248 $-1 #
edge $-1 $255 -44.444715720084233 $313 44.444715720084233 $251 $372 forward 7 unknown #
vertex $-1 $371 $373 #
straight-curve $-1 -44.444715720084233 -23.650904098525736 0 0 0 -1 I I #
vertex $-1 $254 $374 #
straight-curve $-1 44.444715720084233 0 -6.8414175666819155 0 -1 0 I I #
point $-1 44.444715720084233 -23.650904098525736 -6.8414175666819155 #
face $-1 $375 $376 $14 $-1 $377 reversed single #
loop $-1 $-1 $378 $257 #
plane-surface $-1 44.444715720084233 0 0 -1 0 0 0 0 1 forward_v I I I I #
coedge $-1 $273 $379 $378 $380 reversed $258 $-1 #
coedge $-1 $381 $260 $379 $382 reversed $189 $-1 #
coedge $-1 $260 $381 $383 $384 reversed $189 $-1 #
coedge $-1 $385 $378 $260 $325 forward $319 $-1 #
edge $-1 $386 5.3600211868842198 $387 13.980595670055751 $324 $388 forward 7 unknown #
coedge $-1 $378 $389 $261 $327 reversed $319 $-1 #
edge $-1 $340 -15.030329615354205 $329 23.650904098525736 $326 $390 forward 7 unknown #
coedge $-1 $332 $262 $389 $391 forward $266 $-1 #
vertex $-1 $327 $392 #
straight-curve $-1 0 23.650904098525736 6.8414175666819155 -1 0 0 I I #
straight-curve $-1 -44.444715720084233 9.178435017550715 1.9106852474068887 0 1 0 I I #
coedge $-1 $265 $328 $393 $394 reversed $266 $-1 #
edge $-1 $267 -1.9106852474068845 $395 6.8414175666819155 $265 $396 forward 7 unknown #
face $-1 $-1 $266 $14 $-1 $397 reversed single #
point $-1 -44.444715720084233 23.650904098525739 1.9106852474068845 #
coedge $-1 $398 $271 $399 $400 reversed $117 $-1 #
coedge $-1 $272 $398 $381 $401 forward $117 $-1 #
coedge $-1 $379 $273 $272 $339 reversed $258 $-1 #
edge $-1 $402 1.1707087833409577 $275 4.1707087833409577 $272 $403 forward 7 unknown #
vertex $-1 $327 $404 #
straight-curve $-1 0 -15.030329615354205 6.8414175666819155 1 0 0 I I #
point $-1 -44.444715720084233 -15.030329615354205 6.8414175666819155 #
face $-1 $405 $406 $15 $-1 $407 forward single #
loop $-1 $-1 $408 $277 #
plane-surface $-1 0 -19.34061685693997 3.8414175666819155 0 0 1 1 0 0 forward_v I I I I #
coedge $-1 $280 $409 $410 $411 forward $207 $-1 #
edge $-1 $412 -14.472469080975024 $287 -3.8844009541264057 $280 $413 forward 7 unknown #
coedge $-1 $349 $281 $414 $415 reversed $209 $-1 #
coedge $-1 $282 $348 $352 $416 reversed $209 $-1 #
vertex $-1 $416 $417 #
straight-curve $-1 -44.444715720084226 13.062835971677121 1.9106852474068887 -0.85716729658548041 0 -0.51503808176128008 I I #
coedge $-1 $418 $284 $349 $416 forward $278 $-1 #
coedge $-1 $284 $419 $286 $356 reversed $278 $-1 #
straight-curve $-1 -44.444715720084233 13.062835971677121 39.051899444998249 0 0 -1 I I #
coedge $-1 $409 $286 $420 $421 forward $207 $-1 #
edge $-1 $288 -13.062835971677121 $422 15.030329615354205 $353 $423 forward 7 unknown #
point $-1 -36.238599236723694 13.062835971677121 6.8414175666819155 #
point $-1 -44.444715720084233 13.062835971677121 6.8414175666819155 #
point $-1 -38.816552494818865 18.35687003510143 1.8378505203872209 #
loop $-1 $-1 $309 $296 #
plane-surface $-1 0 23.650904098525736 0 0 -1 0 0 0 -1 forward_v I I I I #
coedge $-1 $299 $298 $311 $371 forward $166 $-1 #
coedge $-1 $365 $309 $299 $364 reversed $360 $-1 #
edge $-1 $424 -44.444715720084233 $315 44.444715720084233 $363 $425 forward 7 unknown #
coedge $-1 $300 $363 $304 $368 reversed $360 $-1 #
straight-curve $-1 0 23.650904098525736 6.8414175666819155 -1 0 0 I I #
point $-1 44.444715720084233 23.650904098525736 6.8414175666819155 #
edge $-1 $305 -6.8414175666819155 $424 6.8414175666819155 $365 $426 forward 7 unknown #
point $-1 -44.444715720084233 23.650904098525736 6.8414175666819155 #
straight-curve $-1 44.444715720084233 23.650904098525736 0 0 0 -1 I I #
edge $-1 $313 -23.650904098525736 $424 23.650904098525736 $311 $427 forward 7 unknown #
straight-curve $-1 0 -23.650904098525736 -6.8414175666819155 -1 0 0 I I #
point $-1 -44.444715720084233 -23.650904098525736 -6.8414175666819155 #
point $-1 44.444715720084233 23.650904098525736 -6.8414175666819155 #
face $-1 $334 $428 $14 $-1 $429 reversed single #
loop $-1 $-1 $430 $318 #
plane-surface $-1 0 0 -6.8414175666819155 0 0 1 1 0 0 forward_v I I I I #
coedge $-1 $324 $326 $321 $380 forward $319 $-1 #
coedge $-1 $321 $338 $322 $382 forward $258 $-1 #
edge $-1 $340 -4.1707087833409577 $386 -1.1707087833409577 $378 $431 forward 7 unknown #
coedge $-1 $323 $322 $337 $401 reversed $189 $-1 #
edge $-1 $402 -44.444715720084233 $386 44.444715720084233 $379 $432 forward 7 unknown #
coedge $-1 $433 $434 $323 $384 forward $428 $-1 #
edge $-1 $387 -44.444715720084233 $435 44.444715720084233 $383 $436 forward 7 unknown #
coedge $-1 $437 $324 $434 $438 forward $319 $-1 #
vertex $-1 $325 $439 #
vertex $-1 $438 $440 #
straight-curve $-1 44.444715720084233 -9.6703084284699852 3.8414175666819155 0 -1 0 I I #
coedge $-1 $326 $437 $328 $391 reversed $319 $-1 #
straight-curve $-1 44.444715720084233 0 6.8414175666819155 0 1 0 I I #
edge $-1 $329 -6.8414175666819155 $441 6.8414175666819155 $389 $442 forward 7 unknown #
point $-1 44.444715720084233 23.650904098525736 6.8414175666819155 #
coedge $-1 $430 $399 $332 $394 forward $376 $-1 #
edge $-1 $395 -44.444715720084233 $441 44.444715720084233 $332 $443 forward 7 unknown #
vertex $-1 $394 $444 #
straight-curve $-1 -44.444715720084233 23.650904098525736 0 0 0 -1 I I #
plane-surface $-1 0 23.650904098525736 0 0 -1 0 0 0 -1 forward_v I I I I #
coedge $-1 $337 $336 $433 $445 reversed $117 $-1 #
coedge $-1 $393 $446 $336 $400 forward $376 $-1 #
edge $-1 $447 -23.650904098525736 $395 23.650904098525736 $336 $448 forward 7 unknown #
edge $-1 $435 -13.980595670055751 $402 -5.3600211868842198 $337 $449 forward 7 unknown #
vertex $-1 $401 $450 #
straight-curve $-1 -44.444715720084233 -15.030329615354205 2.6707087833409577 0 0 1 I I #
point $-1 44.444715720084233 -15.030329615354205 6.8414175666819155 #
face $-1 $451 $452 $15 $-1 $453 reversed single #
loop $-1 $-1 $454 $343 #
plane-surface $-1 0 -15.030329615354205 5.3414175666819155 0 -1 0 0 0 -1 forward_v I I I I #
coedge $-1 $455 $456 $457 $458 reversed $344 $-1 #
coedge $-1 $346 $355 $459 $460 forward $207 $-1 #
coedge $-1 $461 $414 $346 $411 reversed $462 $-1 #
edge $-1 $463 -44.444715720084233 $412 36.238599236723694 $410 $464 forward 7 unknown #
vertex $-1 $415 $465 #
straight-curve $-1 -36.238599236723687 9.178435017550715 6.8414175666819155 0 -1 0 I I #
coedge $-1 $410 $466 $348 $415 forward $462 $-1 #
edge $-1 $467 -18.556240578310394 $412 -8.9827109814049333 $414 $468 forward 7 unknown #
edge $-1 $350 3.8844009541264057 $467 14.472469080975024 $352 $469 forward 7 unknown #
point $-1 -44.444715720084233 13.062835971677121 1.9106852474068845 #
coedge $-1 $470 $352 $466 $471 forward $278 $-1 #
coedge $-1 $353 $472 $473 $474 forward $278 $-1 #
coedge $-1 $473 $454 $355 $421 reversed $406 $-1 #
edge $-1 $422 -44.444715720084233 $475 44.444715720084233 $355 $476 forward 7 unknown #
vertex $-1 $474 $477 #
straight-curve $-1 -44.444715720084233 0 6.8414175666819155 0 -1 0 I I #
vertex $-1 $364 $478 #
straight-curve $-1 0 23.650904098525736 -6.8414175666819155 1 0 0 I I #
straight-curve $-1 -44.444715720084233 23.650904098525736 0 0 0 -1 I I #
straight-curve $-1 -44.444715720084233 0 -6.8414175666819155 0 1 0 I I #
loop $-1 $-1 $383 $375 #
plane-surface $-1 0 -23.650904098525736 0 0 1 0 0 0 1 forward_v I I I I #
coedge $-1 $446 $393 $437 $479 forward $376 $-1 #
straight-curve $-1 44.444715720084233 -15.030329615354205 2.6707087833409577 0 0 -1 I I #
straight-curve $-1 0 -15.030329615354205 3.8414175666819155 1 0 0 I I #
coedge $-1 $480 $383 $398 $445 forward $428 $-1 #
coedge $-1 $383 $480 $385 $438 reversed $428 $-1 #
vertex $-1 $445 $481 #
straight-curve $-1 0 -23.650904098525736 3.8414175666819155 -1 0 0 I I #
coedge $-1 $389 $385 $430 $479 reversed $319 $-1 #
edge $-1 $387 -3.8414175666819155 $482 6.8414175666819155 $385 $483 forward 7 unknown #
point $-1 44.444715720084233 -15.030329615354205 3.8414175666819155 #
point $-1 44.444715720084233 -23.650904098525736 3.8414175666819155 #
vertex $-1 $479 $484 #
straight-curve $-1 44.444715720084233 23.650904098525736 0 0 0 -1 I I #
straight-curve $-1 0 23.650904098525736 -6.8414175666819155 1 0 0 I I #
point $-1 -44.444715720084233 23.650904098525736 -6.8414175666819155 #
edge $-1 $435 -3.8414175666819155 $447 6.8414175666819155 $398 $485 forward 7 unknown #
coedge $-1 $399 $430 $480 $486 forward $376 $-1 #
vertex $-1 $400 $487 #
straight-curve $-1 -44.444715720084233 0 -6.8414175666819155 0 1 0 I I #
straight-curve $-1 -44.444715720084233 -9.6703084284699852 3.8414175666819155 0 1 0 I I #
point $-1 -44.444715720084233 -15.030329615354205 3.8414175666819155 #
face $-1 $488 $489 $15 $-1 $490 reversed single #
loop $-1 $-1 $491 $405 #
plane-surface $-1 44.444715720084233 0 0 -1 0 0 0 0 1 forward_v I I I I #
coedge $-1 $420 $492 $491 $493 reversed $406 $-1 #
coedge $-1 $494 $408 $492 $495 reversed $344 $-1 #
coedge $-1 $408 $494 $496 $497 reversed $344 $-1 #
coedge $-1 $498 $491 $408 $458 forward $452 $-1 #
edge $-1 $499 5.3600211868842198 $500 13.980595670055751 $457 $501 forward 7 unknown #
coedge $-1 $491 $502 $409 $460 reversed $452 $-1 #
edge $-1 $475 -15.030329615354205 $463 23.650904098525736 $459 $503 forward 7 unknown #
coedge $-1 $504 $410 $502 $505 forward $462 $-1 #
loop $-1 $-1 $414 $506 #
vertex $-1 $460 $507 #
straight-curve $-1 0 23.650904098525736 6.8414175666819155 -1 0 0 I I #
point $-1 -36.238599236723694 23.650904098525739 6.8414175666819155 #
coedge $-1 $414 $504 $418 $471 reversed $462 $-1 #
vertex $-1 $471 $508 #
straight-curve $-1 -28.538913148784118 23.650904098525736 11.467855799560697 0.85716729658548041 0 0.51503808176128008 I I #
straight-curve $-1 -44.444715720084233 9.178435017550715 1.9106852474068887 0 1 0 I I #
coedge $-1 $509 $418 $510 $511 reversed $278 $-1 #
edge $-1 $467 -1.9106852474068845 $512 6.8414175666819155 $466 $513 forward 7 unknown #
coedge $-1 $419 $509 $494 $514 forward $278 $-1 #
coedge $-1 $492 $420 $419 $474 reversed $406 $-1 #
edge $-1 $515 1.1707087833409577 $422 4.1707087833409577 $419 $516 forward 7 unknown #
vertex $-1 $460 $517 #
straight-curve $-1 0 -15.030329615354205 6.8414175666819155 1 0 0 I I #
point $-1 -44.444715720084233 -15.030329615354205 6.8414175666819155 #
point $-1 -44.444715720084233 23.650904098525736 -6.8414175666819155 #
edge $-1 $441 -23.650904098525736 $482 23.650904098525736 $437 $518 forward 7 unknown #
coedge $-1 $434 $433 $446 $486 reversed $428 $-1 #
point $-1 -44.444715720084233 -23.650904098525736 3.8414175666819155 #
vertex $-1 $438 $519 #
straight-curve $-1 44.444715720084233 -23.650904098525736 0 0 0 -1 I I #
point $-1 44.444715720084233 23.650904098525736 -6.8414175666819155 #
straight-curve $-1 -44.444715720084233 -23.650904098525736 0 0 0 -1 I I #
edge $-1 $482 -44.444715720084233 $447 44.444715720084233 $480 $520 forward 7 unknown #
point $-1 -44.444715720084233 -23.650904098525736 -6.8414175666819155 #
face $-1 $506 $521 $15 $-1 $522 reversed single #
loop $-1 $-1 $523 $451 #
plane-surface $-1 0 0 -6.8414175666819155 0 0 1 1 0 0 forward_v I I I I #
coedge $-1 $457 $459 $454 $493 forward $452 $-1 #
coedge $-1 $454 $473 $455 $495 forward $406 $-1 #
edge $-1 $475 -4.1707087833409577 $499 -1.1707087833409577 $491 $524 forward 7 unknown #
coedge $-1 $456 $455 $472 $514 reversed $344 $-1 #
edge $-1 $515 -44.444715720084233 $499 44.444715720084233 $492 $525 forward 7 unknown #
coedge $-1 $526 $527 $456 $497 forward $521 $-1 #
edge $-1 $500 -44.444715720084233 $528 44.444715720084233 $496 $529 forward 7 unknown #
coedge $-1 $530 $457 $527 $531 forward $452 $-1 #
vertex $-1 $458 $532 #
vertex $-1 $531 $533 #
straight-curve $-1 44.444715720084233 -9.6703084284699852 3.8414175666819155 0 -1 0 I I #
coedge $-1 $459 $530 $461 $505 reversed $452 $-1 #
straight-curve $-1 44.444715720084233 0 6.8414175666819155 0 1 0 I I #
coedge $-1 $466 $461 $534 $535 reversed $462 $-1 #
edge $-1 $463 -6.8414175666819155 $536 6.8414175666819155 $502 $537 forward 7 unknown #
face $-1 $-1 $462 $15 $-1 $538 reversed single #
point $-1 44.444715720084233 23.650904098525736 6.8414175666819155 #
point $-1 -44.444715720084233 23.650904098525739 1.9106852474068845 #
coedge $-1 $472 $470 $526 $539 reversed $278 $-1 #
coedge $-1 $534 $540 $470 $511 forward $489 $-1 #
edge $-1 $541 -23.650904098525736 $512 23.650904098525736 $470 $542 forward 7 unknown #
vertex $-1 $535 $543 #
straight-curve $-1 -44.444715720084233 23.650904098525736 0 0 0 -1 I I #
edge $-1 $528 -13.980595670055751 $515 -5.3600211868842198 $472 $544 forward 7 unknown #
vertex $-1 $514 $545 #
straight-curve $-1 -44.444715720084233 -15.030329615354205 2.6707087833409577 0 0 1 I I #
point $-1 44.444715720084233 -15.030329615354205 6.8414175666819155 #
straight-curve $-1 44.444715720084233 0 -6.8414175666819155 0 -1 0 I I #
point $-1 44.444715720084233 -23.650904098525736 -6.8414175666819155 #
straight-curve $-1 0 -23.650904098525736 -6.8414175666819155 -1 0 0 I I #
loop $-1 $-1 $496 $488 #
plane-surface $-1 0 -23.650904098525736 0 0 1 0 0 0 1 forward_v I I I I #
coedge $-1 $540 $534 $530 $546 forward $489 $-1 #
straight-curve $-1 44.444715720084233 -15.030329615354205 2.6707087833409577 0 0 -1 I I #
straight-curve $-1 0 -15.030329615354205 3.8414175666819155 1 0 0 I I #
coedge $-1 $547 $496 $509 $539 forward $521 $-1 #
coedge $-1 $496 $547 $498 $531 reversed $521 $-1 #
vertex $-1 $539 $548 #
straight-curve $-1 0 -23.650904098525736 3.8414175666819155 -1 0 0 I I #
coedge $-1 $502 $498 $523 $546 reversed $452 $-1 #
edge $-1 $500 -3.8414175666819155 $549 6.8414175666819155 $498 $550 forward 7 unknown #
point $-1 44.444715720084233 -15.030329615354205 3.8414175666819155 #
point $-1 44.444715720084233 -23.650904098525736 3.8414175666819155 #
coedge $-1 $523 $510 $504 $535 forward $489 $-1 #
edge $-1 $512 -44.444715720084233 $536 44.444715720084233 $504 $551 forward 7 unknown #
vertex $-1 $546 $552 #
straight-curve $-1 44.444715720084233 23.650904098525736 0 0 0 -1 I I #
plane-surface $-1 0 23.650904098525736 0 0 -1 0 0 0 -1 forward_v I I I I #
edge $-1 $528 -3.8414175666819155 $541 6.8414175666819155 $509 $553 forward 7 unknown #
coedge $-1 $510 $523 $547 $554 forward $489 $-1 #
vertex $-1 $511 $555 #
straight-curve $-1 -44.444715720084233 0 -6.8414175666819155 0 1 0 I I #
point $-1 -44.444715720084233 23.650904098525736 -6.8414175666819155 #
straight-curve $-1 -44.444715720084233 -9.6703084284699852 3.8414175666819155 0 1 0 I I #
point $-1 -44.444715720084233 -15.030329615354205 3.8414175666819155 #
edge $-1 $536 -23.650904098525736 $549 23.650904098525736 $530 $556 forward 7 unknown #
coedge $-1 $527 $526 $540 $554 reversed $521 $-1 #
point $-1 -44.444715720084233 -23.650904098525736 3.8414175666819155 #
vertex $-1 $531 $557 #
straight-curve $-1 44.444715720084233 -23.650904098525736 0 0 0 -1 I I #
straight-curve $-1 0 23.650904098525736 -6.8414175666819155 1 0 0 I I #
point $-1 44.444715720084233 23.650904098525736 -6.8414175666819155 #
straight-curve $-1 -44.444715720084233 -23.650904098525736 0 0 0 -1 I I #
edge $-1 $549 -44.444715720084233 $541 44.444715720084233 $547 $558 forward 7 unknown #
point $-1 -44.444715720084233 -23.650904098525736 -6.8414175666819155 #
straight-curve $-1 44.444715720084233 0 -6.8414175666819155 0 -1 0 I I #
point $-1 44.444715720084233 -23.650904098525736 -6.8414175666819155 #
straight-curve $-1 0 -23.650904098525736 -6.8414175666819155 -1 0 0 I I #
End-of-ACIS-data 