500 0 12 0           
7 Unknown 11 ACIS 5.0 NT 24 Thu Mar 25 20:45:47 1999 
-1 9.9999999999999995e-007 1e-010 
body $-1 $12 $-1 $13 #
body $-1 $14 $-1 $15 #
body $-1 $16 $-1 $17 #
body $-1 $18 $-1 $19 #
body $-1 $20 $-1 $21 #
body $-1 $22 $-1 $23 #
body $-1 $24 $-1 $25 #
body $-1 $26 $-1 $27 #
body $-1 $28 $-1 $29 #
body $-1 $30 $-1 $31 #
body $-1 $32 $-1 $33 #
body $-1 $34 $-1 $35 #
lump $-1 $-1 $36 $0 #
transform $-1 1 0 0 0 1 0 0 0 1 52.261116367076632 21.843223154199695 7.6964247140262207 1 rotate no_reflect no_shear #
lump $-1 $-1 $37 $1 #
transform $-1 1 0 0 0 1 0 0 0 1 52.261116367076632 21.843223154199695 7.6964247140262207 1 rotate no_reflect no_shear #
lump $-1 $-1 $38 $2 #
transform $-1 1 0 0 0 1 0 0 0 1 52.261116367076632 21.843223154199695 7.6964247140262207 1 rotate no_reflect no_shear #
lump $-1 $-1 $39 $3 #
transform $-1 1 0 0 0 1 0 0 0 1 52.261116367076632 21.843223154199695 7.6964247140262207 1 rotate no_reflect no_shear #
lump $-1 $-1 $40 $4 #
transform $-1 1 0 0 0 1 0 0 0 1 52.261116367076632 21.843223154199695 7.6964247140262207 1 rotate no_reflect no_shear #
lump $-1 $-1 $41 $5 #
transform $-1 1 0 0 0 1 0 0 0 1 52.261116367076632 21.843223154199695 7.6964247140262207 1 rotate no_reflect no_shear #
lump $-1 $-1 $42 $6 #
transform $-1 1 0 0 0 1 0 0 0 1 52.261116367076632 21.843223154199695 7.6964247140262207 1 rotate no_reflect no_shear #
lump $-1 $-1 $43 $7 #
transform $-1 1 0 0 0 1 0 0 0 1 52.261116367076632 21.843223154199695 7.6964247140262207 1 rotate no_reflect no_shear #
lump $-1 $-1 $44 $8 #
transform $-1 1 0 0 0 1 0 0 0 1 52.261116367076632 21.843223154199695 7.6964247140262207 1 rotate no_reflect no_shear #
lump $-1 $-1 $45 $9 #
transform $-1 1 0 0 0 1 0 0 0 1 52.261116367076632 21.843223154199695 7.6964247140262207 1 rotate no_reflect no_shear #
lump $-1 $-1 $46 $10 #
transform $-1 1 0 0 0 1 0 0 0 1 52.261116367076632 21.843223154199695 7.6964247140262207 1 rotate no_reflect no_shear #
lump $-1 $-1 $47 $11 #
transform $-1 1 0 0 0 1 0 0 0 1 52.261116367076632 21.843223154199695 7.6964247140262207 1 rotate no_reflect no_shear #
shell $-1 $-1 $-1 $48 $-1 $12 #
shell $-1 $-1 $-1 $49 $-1 $14 #
shell $-1 $-1 $-1 $50 $-1 $16 #
shell $-1 $-1 $-1 $51 $-1 $18 #
shell $-1 $-1 $-1 $52 $-1 $20 #
shell $-1 $-1 $-1 $53 $-1 $22 #
shell $-1 $-1 $-1 $54 $-1 $24 #
shell $-1 $-1 $-1 $55 $-1 $26 #
shell $-1 $-1 $-1 $56 $-1 $28 #
shell $-1 $-1 $-1 $57 $-1 $30 #
shell $-1 $-1 $-1 $58 $-1 $32 #
shell $-1 $-1 $-1 $59 $-1 $34 #
face $-1 $60 $61 $36 $-1 $62 forward single #
face $-1 $63 $64 $37 $-1 $65 forward single #
face $-1 $66 $67 $38 $-1 $68 reversed single #
face $-1 $69 $70 $39 $-1 $71 forward single #
face $-1 $72 $73 $40 $-1 $74 reversed single #
face $-1 $75 $76 $41 $-1 $77 forward single #
face $-1 $78 $79 $42 $-1 $80 reversed single #
face $-1 $81 $82 $43 $-1 $83 forward single #
face $-1 $84 $85 $44 $-1 $86 forward single #
face $-1 $87 $88 $45 $-1 $89 reversed single #
face $-1 $90 $91 $46 $-1 $92 forward single #
face $-1 $93 $94 $47 $-1 $95 forward single #
face $-1 $96 $97 $36 $-1 $98 reversed single #
loop $-1 $-1 $99 $48 #
plane-surface $-1 0 0 7.6964247140262207 0 0 1 1 0 0 forward_v I I I I #
face $-1 $100 $101 $37 $-1 $102 reversed single #
loop $-1 $-1 $103 $49 #
plane-surface $-1 -48.01604265073658 0 1.6992249299944975 0 0 1 1 0 0 forward_v I I I I #
face $-1 $104 $105 $38 $-1 $106 reversed single #
loop $-1 $-1 $107 $50 #
plane-surface $-1 -15.319585481112377 87.332815528039973 96.215104263627211 1 0 0 0 -0.84804810408105047 -0.52991925155115449 forward_v I I I I #
face $-1 $108 $109 $39 $-1 $110 forward single #
loop $-1 $111 $112 $51 #
cone-surface $-1 -9.8346021611917394 19.305985697904731 4.9169363592938815 0 -0.84804810408105047 -0.52991925155115449 1 0 0 1 I I 0 1 1 forward I I I I #
face $-1 $113 $114 $40 $-1 $115 reversed single #
loop $-1 $-1 $116 $52 #
plane-surface $-1 32.69645716962421 87.332815528039973 96.215104263627211 1 0 0 0 -0.84804810408105047 -0.52991925155115449 forward_v I I I I #
face $-1 $117 $118 $41 $-1 $119 forward single #
loop $-1 $120 $121 $53 #
cone-surface $-1 38.181440489544848 19.305985697904731 4.9169363592938815 0 -0.84804810408105047 -0.52991925155115449 1 0 0 1 I I 0 1 1 forward I I I I #
face $-1 $122 $123 $42 $-1 $124 reversed single #
loop $-1 $-1 $125 $54 #
plane-surface $-1 4.2450737163400483 -84.746273863350652 85.019810636639676 -1 0 0 0 -0.6018150307709319 0.79863550430605224 forward_v I I I I #
face $-1 $126 $127 $43 $-1 $128 forward single #
loop $-1 $129 $130 $55 #
cone-surface $-1 -5.0620656452581798 -17.455926030195897 4.2151845393739107 0 0.6018150307709319 -0.79863550430605224 1 0 0 1 I I 0 1 1 forward I I I I #
face $-1 $131 $132 $44 $-1 $133 forward single #
loop $-1 $134 $135 $56 #
cone-surface $-1 0.5222179717007549 -17.455926030195897 4.2151845393739107 0 0.6018150307709319 -0.79863550430605224 1 0 0 1 I I 0 1 1 forward I I I I #
face $-1 $136 $137 $45 $-1 $138 reversed single #
loop $-1 $-1 $139 $57 #
plane-surface $-1 45.746118813957871 -21.843223154199698 1.5446445858046189 0 -0.6018150307709319 0.79863550430605224 1 0 0 forward_v I I I I #
face $-1 $140 $141 $46 $-1 $142 forward single #
loop $-1 $143 $144 $58 #
cone-surface $-1 42.9539770054784 -17.455926030195897 4.2151845393739107 0 0.6018150307709319 -0.79863550430605224 1 0 0 1 I I 0 1 1 forward I I I I #
face $-1 $145 $146 $47 $-1 $147 forward single #
loop $-1 $148 $149 $59 #
cone-surface $-1 48.538260622437328 -17.455926030195897 4.2151845393739107 0 0.6018150307709319 -0.79863550430605224 1 0 0 1 I I 0 1 1 forward I I I I #
face $-1 $150 $151 $36 $-1 $152 reversed single #
loop $-1 $-1 $153 $60 #
plane-surface $-1 0 0 -7.6964247140262207 0 0 1 1 0 0 forward_v I I I I #
coedge $-1 $154 $155 $156 $157 forward $61 $-1 #
face $-1 $158 $159 $37 $-1 $160 reversed single #
loop $-1 $-1 $161 $63 #
plane-surface $-1 -48.01604265073658 0 -1.913140994468983 0 0 1 1 0 0 forward_v I I I I #
coedge $-1 $162 $163 $164 $165 forward $64 $-1 #
face $-1 $166 $167 $38 $-1 $168 reversed single #
loop $-1 $-1 $169 $66 #
plane-surface $-1 -9.8346021611917394 -1.3070657764770175 40.826760922689132 0 0.84804810408105047 0.52991925155115449 1 0 0 forward_v I I I I #
coedge $-1 $170 $171 $172 $173 reversed $67 $-1 #
face $-1 $-1 $174 $39 $-1 $175 forward single #
loop $-1 $176 $177 $69 #
cone-surface $-1 -9.8346021611917394 17.568803141733088 3.8314242573928583 0 -0.84804810408105047 -0.52991925155115449 0.5 0 0 1 I I -0.70710678118654779 0.70710678118654713 0.5 forward I I I I #
loop $-1 $-1 $178 $51 #
coedge $-1 $112 $112 $179 $180 reversed $70 $-1 #
face $-1 $181 $182 $40 $-1 $183 reversed single #
loop $-1 $-1 $184 $72 #
plane-surface $-1 38.181440489544848 -1.3070657764770175 40.826760922689132 0 0.84804810408105047 0.52991925155115449 1 0 0 forward_v I I I I #
coedge $-1 $185 $186 $187 $188 reversed $73 $-1 #
face $-1 $-1 $189 $41 $-1 $190 forward single #
loop $-1 $191 $192 $75 #
cone-surface $-1 38.181440489544848 17.568803141733088 3.8314242573928583 0 -0.84804810408105047 -0.52991925155115449 0.5 0 0 1 I I -0.70710678118654779 0.70710678118654713 0.5 forward I I I I #
loop $-1 $-1 $193 $53 #
coedge $-1 $121 $121 $194 $195 reversed $76 $-1 #
face $-1 $196 $197 $42 $-1 $198 reversed single #
loop $-1 $-1 $199 $78 #
plane-surface $-1 -2.2699238367787089 -21.843223154199698 1.5446445858046189 0 -0.6018150307709319 0.79863550430605224 1 0 0 forward_v I I I I #
coedge $-1 $200 $201 $202 $203 reversed $79 $-1 #
face $-1 $-1 $204 $43 $-1 $205 forward single #
loop $-1 $206 $207 $81 #
cone-surface $-1 -5.0620656452581798 -16.849565291239418 3.4105166766793653 0 0.6018150307709319 -0.79863550430605224 0.5 0 0 1 I I -0.70710678118654746 0.70710678118654746 0.5 forward I I I I #
loop $-1 $-1 $208 $55 #
coedge $-1 $130 $130 $209 $210 reversed $82 $-1 #
face $-1 $-1 $211 $44 $-1 $212 forward single #
loop $-1 $213 $214 $84 #
cone-surface $-1 0.5222179717007549 -16.849565291239418 3.4105166766793653 0 0.6018150307709319 -0.79863550430605224 0.5 0 0 1 I I -0.70710678118654746 0.70710678118654746 0.5 forward I I I I #
loop $-1 $-1 $215 $56 #
coedge $-1 $135 $135 $216 $217 reversed $85 $-1 #
face $-1 $218 $219 $45 $-1 $220 reversed single #
loop $-1 $-1 $221 $87 #
plane-surface $-1 39.231121260839117 -84.746273863350652 85.019810636639676 1 0 0 0 0.6018150307709319 -0.79863550430605224 forward_v I I I I #
coedge $-1 $222 $223 $224 $225 reversed $88 $-1 #
face $-1 $-1 $226 $46 $-1 $227 forward single #
loop $-1 $228 $229 $90 #
cone-surface $-1 42.9539770054784 -16.849565291239418 3.4105166766793653 0 0.6018150307709319 -0.79863550430605224 0.5 0 0 1 I I -0.70710678118654746 0.70710678118654746 0.5 forward I I I I #
loop $-1 $-1 $230 $58 #
coedge $-1 $144 $144 $231 $232 reversed $91 $-1 #
face $-1 $-1 $233 $47 $-1 $234 forward single #
loop $-1 $235 $236 $93 #
cone-surface $-1 48.538260622437328 -16.849565291239418 3.4105166766793653 0 0.6018150307709319 -0.79863550430605224 0.5 0 0 1 I I -0.70710678118654746 0.70710678118654746 0.5 forward I I I I #
loop $-1 $-1 $237 $59 #
coedge $-1 $149 $149 $238 $239 reversed $94 $-1 #
face $-1 $240 $241 $36 $-1 $242 reversed single #
loop $-1 $-1 $243 $96 #
plane-surface $-1 0 -21.843223154199695 0 0 1 0 0 0 1 forward_v I I I I #
coedge $-1 $244 $245 $246 $247 forward $97 $-1 #
coedge $-1 $248 $99 $249 $250 forward $61 $-1 #
coedge $-1 $99 $248 $251 $252 forward $61 $-1 #
coedge $-1 $253 $254 $99 $157 reversed $255 $-1 #
edge $-1 $256 -21.843223154199695 $257 21.843223154199695 $156 $258 forward 7 unknown #
face $-1 $259 $260 $37 $-1 $261 reversed single #
loop $-1 $-1 $262 $100 #
plane-surface $-1 -43.770968934396528 0 -0.10695803223724276 -1 0 0 0 0 1 forward_v I I I I #
coedge $-1 $263 $264 $265 $266 forward $101 $-1 #
coedge $-1 $267 $103 $268 $269 reversed $64 $-1 #
coedge $-1 $103 $267 $270 $271 reversed $64 $-1 #
coedge $-1 $262 $272 $103 $165 reversed $159 $-1 #
edge $-1 $273 -21.843223154199695 $274 21.843223154199695 $164 $275 forward 7 unknown #
face $-1 $276 $277 $38 $-1 $278 forward single #
loop $-1 $-1 $279 $104 #
plane-surface $-1 -4.3496188412711021 87.332815528039973 96.215104263627211 -1 0 0 0 0.84804810408105047 0.52991925155115449 forward_v I I I I #
coedge $-1 $280 $281 $282 $283 reversed $105 $-1 #
coedge $-1 $171 $107 $284 $285 reversed $67 $-1 #
coedge $-1 $107 $170 $280 $286 reversed $67 $-1 #
coedge $-1 $282 $287 $107 $173 forward $277 $-1 #
edge $-1 $288 21.823184609820292 $289 24.271342514148003 $172 $290 forward 7 unknown #
loop $-1 $-1 $179 $108 #
plane-surface $-1 -9.8346021611917394 -1.3070657764770175 40.826760922689132 0 0.84804810408105047 0.52991925155115449 1 0 0 forward_v I I I I #
loop $-1 $-1 $291 $69 #
coedge $-1 $177 $177 $178 $292 reversed $109 $-1 #
coedge $-1 $178 $178 $177 $292 forward $111 $-1 #
coedge $-1 $179 $179 $112 $180 forward $174 $-1 #
edge $-1 $293 -1.8842261281874163e-015 $293 6.2831853071795987 $179 $294 forward 7 unknown #
face $-1 $295 $296 $40 $-1 $297 forward single #
loop $-1 $-1 $298 $113 #
plane-surface $-1 43.666423809465485 87.332815528039973 96.215104263627211 -1 0 0 0 0.84804810408105047 0.52991925155115449 forward_v I I I I #
coedge $-1 $299 $300 $301 $302 reversed $114 $-1 #
coedge $-1 $186 $116 $303 $304 reversed $73 $-1 #
coedge $-1 $116 $185 $299 $305 reversed $73 $-1 #
coedge $-1 $301 $306 $116 $188 forward $296 $-1 #
edge $-1 $307 21.823184609820292 $308 24.271342514148003 $187 $309 forward 7 unknown #
loop $-1 $-1 $194 $117 #
plane-surface $-1 38.181440489544848 -1.3070657764770175 40.826760922689132 0 0.84804810408105047 0.52991925155115449 1 0 0 forward_v I I I I #
loop $-1 $-1 $310 $75 #
coedge $-1 $192 $192 $193 $311 reversed $118 $-1 #
coedge $-1 $193 $193 $192 $311 forward $120 $-1 #
coedge $-1 $194 $194 $121 $195 forward $189 $-1 #
edge $-1 $312 -1.8842261281874163e-015 $312 6.2831853071795987 $194 $313 forward 7 unknown #
face $-1 $314 $315 $42 $-1 $316 reversed single #
loop $-1 $-1 $317 $122 #
plane-surface $-1 -8.7849213898974661 -84.746273863350652 85.019810636639676 1 0 0 0 0.6018150307709319 -0.79863550430605224 forward_v I I I I #
coedge $-1 $318 $319 $320 $321 reversed $123 $-1 #
coedge $-1 $201 $125 $322 $323 reversed $79 $-1 #
coedge $-1 $125 $200 $318 $324 reversed $79 $-1 #
coedge $-1 $320 $325 $125 $203 forward $326 $-1 #
edge $-1 $327 20.529913777475631 $328 28.693601578341223 $202 $329 forward 7 unknown #
loop $-1 $-1 $209 $126 #
plane-surface $-1 -2.2699238367787089 -21.843223154199698 1.5446445858046189 0 -0.6018150307709319 0.79863550430605224 1 0 0 forward_v I I I I #
loop $-1 $-1 $330 $81 #
coedge $-1 $207 $207 $208 $331 reversed $127 $-1 #
coedge $-1 $208 $208 $207 $331 forward $129 $-1 #
coedge $-1 $209 $209 $130 $210 forward $204 $-1 #
edge $-1 $332 7.3958291473520646e-016 $332 6.2831853071796013 $209 $333 forward 7 unknown #
loop $-1 $-1 $216 $131 #
plane-surface $-1 -2.2699238367787089 -21.843223154199698 1.5446445858046189 0 -0.6018150307709319 0.79863550430605224 1 0 0 forward_v I I I I #
loop $-1 $-1 $334 $84 #
coedge $-1 $214 $214 $215 $335 reversed $132 $-1 #
coedge $-1 $215 $215 $214 $335 forward $134 $-1 #
coedge $-1 $216 $216 $135 $217 forward $211 $-1 #
edge $-1 $336 7.3958291473520646e-016 $336 6.2831853071796013 $216 $337 forward 7 unknown #
face $-1 $338 $339 $45 $-1 $340 forward single #
loop $-1 $-1 $341 $136 #
plane-surface $-1 0 -21.843223154199695 0 0 1 0 0 0 1 forward_v I I I I #
coedge $-1 $342 $343 $344 $345 reversed $137 $-1 #
coedge $-1 $346 $139 $347 $348 reversed $88 $-1 #
coedge $-1 $139 $346 $342 $349 forward $88 $-1 #
coedge $-1 $344 $350 $139 $225 forward $339 $-1 #
edge $-1 $351 -29.388056960097689 $352 -16.358061853860182 $224 $353 forward 7 unknown #
loop $-1 $-1 $231 $140 #
plane-surface $-1 45.746118813957871 -21.843223154199698 1.5446445858046189 0 -0.6018150307709319 0.79863550430605224 1 0 0 forward_v I I I I #
loop $-1 $-1 $354 $90 #
coedge $-1 $229 $229 $230 $355 reversed $141 $-1 #
coedge $-1 $230 $230 $229 $355 forward $143 $-1 #
coedge $-1 $231 $231 $144 $232 forward $226 $-1 #
edge $-1 $356 7.3958291473520646e-016 $356 6.2831853071796013 $231 $357 forward 7 unknown #
loop $-1 $-1 $238 $145 #
plane-surface $-1 45.746118813957871 -21.843223154199698 1.5446445858046189 0 -0.6018150307709319 0.79863550430605224 1 0 0 forward_v I I I I #
loop $-1 $-1 $358 $93 #
coedge $-1 $236 $236 $237 $359 reversed $146 $-1 #
coedge $-1 $237 $237 $236 $359 forward $148 $-1 #
coedge $-1 $238 $238 $149 $239 forward $233 $-1 #
edge $-1 $360 7.3958291473520646e-016 $360 6.2831853071796013 $238 $361 forward 7 unknown #
face $-1 $362 $363 $36 $-1 $364 reversed single #
loop $-1 $-1 $365 $150 #
plane-surface $-1 -52.261116367076632 0 0 1 0 0 0 0 -1 forward_v I I I I #
coedge $-1 $366 $251 $367 $368 forward $151 $-1 #
coedge $-1 $369 $153 $366 $370 forward $97 $-1 #
coedge $-1 $153 $369 $371 $372 forward $97 $-1 #
coedge $-1 $254 $253 $153 $247 reversed $255 $-1 #
edge $-1 $373 -21.843223154199695 $374 21.843223154199695 $246 $375 forward 7 unknown #
coedge $-1 $155 $154 $376 $377 forward $61 $-1 #
coedge $-1 $378 $379 $154 $250 reversed $363 $-1 #
edge $-1 $257 -52.261116367076632 $380 52.261116367076632 $249 $381 forward 7 unknown #
coedge $-1 $243 $382 $155 $252 reversed $151 $-1 #
edge $-1 $383 -52.261116367076632 $256 52.261116367076632 $251 $384 forward 7 unknown #
coedge $-1 $246 $156 $382 $385 forward $255 $-1 #
coedge $-1 $156 $246 $378 $386 reversed $255 $-1 #
loop $-1 $-1 $253 $362 #
vertex $-1 $157 $387 #
vertex $-1 $157 $388 #
straight-curve $-1 52.261116367076632 0 7.6964247140262207 0 1 0 I I #
face $-1 $389 $390 $37 $-1 $391 reversed single #
loop $-1 $-1 $392 $158 #
plane-surface $-1 0 -21.843223154199695 0 0 1 0 0 0 1 forward_v I I I I #
coedge $-1 $265 $164 $393 $394 reversed $159 $-1 #
coedge $-1 $395 $161 $392 $396 reversed $101 $-1 #
coedge $-1 $161 $395 $397 $398 reversed $101 $-1 #
coedge $-1 $272 $262 $161 $266 reversed $159 $-1 #
edge $-1 $399 -21.843223154199695 $400 21.843223154199695 $265 $401 forward 7 unknown #
coedge $-1 $163 $162 $402 $403 reversed $64 $-1 #
coedge $-1 $404 $405 $162 $269 forward $406 $-1 #
edge $-1 $407 -28.253095041708342 $274 -19.762947609028238 $268 $408 forward 7 unknown #
coedge $-1 $409 $393 $163 $271 forward $260 $-1 #
edge $-1 $273 19.762947609028238 $410 28.253095041708342 $270 $411 forward 7 unknown #
coedge $-1 $164 $265 $404 $412 reversed $159 $-1 #
vertex $-1 $271 $413 #
vertex $-1 $269 $414 #
straight-curve $-1 -43.770968934396528 0 1.6992249299944975 0 1 0 I I #
face $-1 $-1 $415 $38 $-1 $416 reversed single #
loop $-1 $-1 $172 $166 #
plane-surface $-1 0 0 7.6964247140262207 0 0 1 1 0 0 forward_v I I I I #
coedge $-1 $417 $418 $419 $420 reversed $167 $-1 #
coedge $-1 $421 $169 $171 $286 forward $105 $-1 #
coedge $-1 $169 $421 $417 $422 forward $105 $-1 #
coedge $-1 $419 $172 $169 $283 forward $277 $-1 #
edge $-1 $289 -10.402284400516507 $423 0.56768223932476758 $282 $424 forward 7 unknown #
coedge $-1 $425 $426 $170 $285 forward $415 $-1 #
edge $-1 $427 -44.328999175001201 $288 -40.411127417787384 $284 $428 forward 7 unknown #
edge $-1 $289 39.066576588321155 $427 43.686446308399411 $171 $429 forward 7 unknown #
coedge $-1 $172 $419 $425 $430 forward $277 $-1 #
vertex $-1 $285 $431 #
vertex $-1 $173 $432 #
straight-curve $-1 -15.319585481112377 43.666407764019986 7.6964247140262216 0 -1 0 I I #
coedge $-1 $291 $291 $-1 $433 reversed $176 $-1 #
edge $-1 $434 0 $434 6.2831853071796004 $177 $435 forward 7 unknown #
vertex $-1 $180 $436 #
ellipse-curve $-1 -9.8346021611917394 20.619144202035837 5.7374888354193185 0 0.84804810408105047 0.52991925155115449 1 0 0 1 I I #
face $-1 $-1 $437 $40 $-1 $438 reversed single #
loop $-1 $-1 $187 $181 #
plane-surface $-1 0 0 7.6964247140262207 0 0 1 1 0 0 forward_v I I I I #
coedge $-1 $439 $440 $441 $442 reversed $182 $-1 #
coedge $-1 $443 $184 $186 $305 forward $114 $-1 #
coedge $-1 $184 $443 $439 $444 forward $114 $-1 #
coedge $-1 $441 $187 $184 $302 forward $296 $-1 #
edge $-1 $308 13.605736924851787 $445 24.575703564693061 $301 $446 forward 7 unknown #
coedge $-1 $447 $448 $185 $304 forward $437 $-1 #
edge $-1 $449 -44.328999175001201 $307 -40.411127417787384 $303 $450 forward 7 unknown #
edge $-1 $308 39.066576588321155 $449 43.686446308399411 $186 $451 forward 7 unknown #
coedge $-1 $187 $441 $447 $452 forward $296 $-1 #
vertex $-1 $188 $453 #
vertex $-1 $188 $454 #
straight-curve $-1 32.69645716962421 43.666407764019986 7.6964247140262216 0 -1 0 I I #
coedge $-1 $310 $310 $-1 $455 reversed $191 $-1 #
edge $-1 $456 0 $456 6.2831853071796004 $192 $457 forward 7 unknown #
vertex $-1 $195 $458 #
ellipse-curve $-1 38.181440489544848 20.619144202035837 5.7374888354193185 0 0.84804810408105047 0.52991925155115449 1 0 0 1 I I #
face $-1 $-1 $326 $42 $-1 $459 forward single #
loop $-1 $-1 $460 $196 #
plane-surface $-1 0 -21.843223154199695 0 0 1 0 0 0 1 forward_v I I I I #
coedge $-1 $461 $462 $463 $464 reversed $197 $-1 #
coedge $-1 $465 $199 $201 $324 forward $123 $-1 #
coedge $-1 $199 $465 $461 $466 forward $123 $-1 #
coedge $-1 $463 $202 $199 $321 forward $326 $-1 #
edge $-1 $328 -5.3800356347294027 $467 7.6499594715081116 $320 $468 forward 7 unknown #
coedge $-1 $469 $470 $200 $323 forward $315 $-1 #
edge $-1 $471 -40.965260732515219 $327 -34.813480604293616 $322 $472 forward 7 unknown #
edge $-1 $328 -10.222044671003152 $471 -4.4408806494695735e-015 $201 $473 forward 7 unknown #
coedge $-1 $202 $463 $469 $474 forward $326 $-1 #
loop $-1 $-1 $463 $314 #
vertex $-1 $323 $475 #
vertex $-1 $203 $476 #
straight-curve $-1 4.2450737163400483 -42.373136931675326 7.6964247140262216 0 1 0 I I #
coedge $-1 $330 $330 $-1 $477 reversed $206 $-1 #
edge $-1 $478 0 $478 6.2831853071796004 $207 $479 forward 7 unknown #
vertex $-1 $210 $480 #
ellipse-curve $-1 -5.0620656452581798 -17.761379253766901 4.6205346499154185 0 -0.6018150307709319 0.79863550430605224 1 0 0 1 I I #
coedge $-1 $334 $334 $-1 $481 reversed $213 $-1 #
edge $-1 $482 0 $482 6.2831853071796004 $214 $483 forward 7 unknown #
vertex $-1 $217 $484 #
ellipse-curve $-1 0.5222179717007549 -17.761379253766901 4.6205346499154185 0 -0.6018150307709319 0.79863550430605224 1 0 0 1 I I #
face $-1 $-1 $485 $45 $-1 $486 reversed single #
loop $-1 $-1 $344 $218 #
plane-surface $-1 0 0 7.6964247140262207 0 0 1 1 0 0 forward_v I I I I #
coedge $-1 $487 $488 $343 $489 forward $219 $-1 #
coedge $-1 $343 $221 $223 $349 reversed $137 $-1 #
coedge $-1 $221 $342 $341 $489 reversed $137 $-1 #
coedge $-1 $490 $224 $221 $345 forward $339 $-1 #
edge $-1 $352 -28.693601578341223 $491 -20.529913777475631 $344 $492 forward 7 unknown #
coedge $-1 $223 $222 $487 $493 reversed $88 $-1 #
coedge $-1 $494 $495 $222 $348 forward $485 $-1 #
edge $-1 $496 -8.2575916052438725 $351 1.9644530657592763 $347 $497 forward 7 unknown #
edge $-1 $498 4.4408806494695735e-015 $352 10.222044671003152 $342 $499 forward 7 unknown #
coedge $-1 $224 $490 $494 $500 forward $339 $-1 #
vertex $-1 $348 $501 #
vertex $-1 $225 $502 #
straight-curve $-1 22.873059406978935 -13.679535353334105 7.6964247140262207 -1 0 0 I I #
coedge $-1 $354 $354 $-1 $503 reversed $228 $-1 #
edge $-1 $504 0 $504 6.2831853071796004 $229 $505 forward 7 unknown #
vertex $-1 $232 $506 #
ellipse-curve $-1 42.9539770054784 -17.761379253766901 4.6205346499154185 0 -0.6018150307709319 0.79863550430605224 1 0 0 1 I I #
coedge $-1 $358 $358 $-1 $507 reversed $235 $-1 #
edge $-1 $508 0 $508 6.2831853071796004 $236 $509 forward 7 unknown #
vertex $-1 $239 $510 #
ellipse-curve $-1 48.538260622437328 -17.761379253766901 4.6205346499154185 0 -0.6018150307709319 0.79863550430605224 1 0 0 1 I I #
face $-1 $-1 $255 $36 $-1 $511 reversed single #
loop $-1 $-1 $378 $240 #
plane-surface $-1 0 21.843223154199695 0 0 -1 0 0 0 -1 forward_v I I I I #
coedge $-1 $512 $376 $379 $513 forward $241 $-1 #
coedge $-1 $382 $243 $244 $370 reversed $151 $-1 #
coedge $-1 $376 $512 $243 $368 reversed $241 $-1 #
edge $-1 $383 -7.6964247140262207 $514 7.6964247140262207 $367 $515 forward 7 unknown #
coedge $-1 $245 $244 $512 $516 forward $97 $-1 #
edge $-1 $374 -52.261116367076632 $514 52.261116367076632 $366 $517 forward 7 unknown #
coedge $-1 $379 $378 $245 $372 reversed $363 $-1 #
edge $-1 $518 -52.261116367076632 $373 52.261116367076632 $371 $519 forward 7 unknown #
vertex $-1 $247 $520 #
vertex $-1 $385 $521 #
straight-curve $-1 52.261116367076632 0 -7.6964247140262207 0 -1 0 I I #
coedge $-1 $365 $367 $248 $377 reversed $241 $-1 #
edge $-1 $380 -21.843223154199695 $383 21.843223154199695 $376 $522 forward 7 unknown #
coedge $-1 $371 $249 $254 $386 forward $363 $-1 #
coedge $-1 $249 $371 $365 $513 reversed $363 $-1 #
vertex $-1 $250 $523 #
straight-curve $-1 0 21.843223154199695 7.6964247140262207 -1 0 0 I I #
coedge $-1 $251 $366 $253 $385 reversed $151 $-1 #
vertex $-1 $377 $524 #
straight-curve $-1 0 -21.843223154199695 7.6964247140262207 1 0 0 I I #
edge $-1 $256 -7.6964247140262207 $374 7.6964247140262207 $253 $525 forward 7 unknown #
edge $-1 $257 -7.6964247140262207 $373 7.6964247140262207 $254 $526 forward 7 unknown #
point $-1 52.261116367076632 -21.843223154199695 7.6964247140262207 #
point $-1 52.261116367076632 21.843223154199695 7.6964247140262207 #
face $-1 $-1 $406 $37 $-1 $527 reversed single #
loop $-1 $-1 $528 $259 #
plane-surface $-1 -52.261116367076632 0 0 1 0 0 0 0 -1 forward_v I I I I #
coedge $-1 $393 $409 $263 $396 forward $260 $-1 #
coedge $-1 $270 $392 $262 $394 forward $260 $-1 #
edge $-1 $400 -1.8596619783503616 $273 1.7527039461131189 $393 $529 forward 7 unknown #
coedge $-1 $264 $263 $528 $530 reversed $101 $-1 #
edge $-1 $531 -28.253095041708342 $400 -19.762947609028238 $392 $532 forward 7 unknown #
coedge $-1 $405 $404 $264 $398 forward $406 $-1 #
edge $-1 $399 19.762947609028238 $533 28.253095041708342 $397 $534 forward 7 unknown #
vertex $-1 $398 $535 #
vertex $-1 $396 $536 #
straight-curve $-1 -43.770968934396528 0 -1.913140994468983 0 -1 0 I I #
coedge $-1 $537 $538 $267 $403 forward $390 $-1 #
edge $-1 $410 -21.843223154199695 $407 21.843223154199695 $402 $539 forward 7 unknown #
coedge $-1 $397 $268 $272 $412 forward $406 $-1 #
coedge $-1 $268 $397 $537 $540 reversed $406 $-1 #
loop $-1 $-1 $397 $389 #
vertex $-1 $540 $541 #
straight-curve $-1 -24.00802132536829 21.843223154199695 1.6992249299944975 1 0 0 I I #
coedge $-1 $392 $270 $538 $542 forward $260 $-1 #
vertex $-1 $542 $543 #
straight-curve $-1 -24.00802132536829 -21.843223154199695 1.6992249299944975 -1 0 0 I I #
edge $-1 $274 -1.7527039461131189 $399 1.8596619783503616 $404 $544 forward 7 unknown #
point $-1 -43.770968934396528 -21.843223154199695 1.6992249299944975 #
point $-1 -43.770968934396528 21.843223154199695 1.6992249299944975 #
loop $-1 $-1 $284 $276 #
plane-surface $-1 0 21.843223154199695 0 0 -1 0 0 0 -1 forward_v I I I I #
coedge $-1 $418 $279 $281 $422 reversed $167 $-1 #
coedge $-1 $279 $417 $545 $546 reversed $167 $-1 #
coedge $-1 $287 $282 $279 $420 forward $277 $-1 #
edge $-1 $423 -24.271342514148003 $547 -21.823184609820292 $419 $548 forward 7 unknown #
coedge $-1 $281 $280 $426 $549 reversed $105 $-1 #
edge $-1 $550 -43.686446308399411 $423 -39.066576588321155 $417 $551 forward 7 unknown #
vertex $-1 $283 $552 #
straight-curve $-1 -4.9173010805958697 19.395065249871983 7.6964247140262216 1 0 0 I I #
coedge $-1 $545 $284 $287 $430 reversed $415 $-1 #
coedge $-1 $284 $545 $421 $549 forward $415 $-1 #
vertex $-1 $285 $553 #
straight-curve $-1 -15.319585481112377 21.843223154199691 48.107552131813605 0 0 1 I I #
straight-curve $-1 -15.319585481112377 -1.3070657764770175 40.826760922689132 0 0.52991925155115449 -0.84804810408105047 I I #
edge $-1 $547 4.3496188412711021 $288 15.319585481112377 $425 $554 forward 7 unknown #
point $-1 -15.319585481112377 21.843223154199695 7.6964247140262207 #
point $-1 -15.319585481112377 19.395065249871983 7.6964247140262216 #
edge $-1 $555 1 $555 0 $291 $-1 forward 7 unknown #
vertex $-1 $292 $556 #
ellipse-curve $-1 -9.8346021611917394 17.992827193773614 4.0963838831684356 0 0.84804810408105047 0.52991925155115449 1 0 0 1 I I #
point $-1 -8.8346021611917394 20.619144202035848 5.7374888354193274 #
loop $-1 $-1 $303 $295 #
plane-surface $-1 0 21.843223154199695 0 0 -1 0 0 0 -1 forward_v I I I I #
coedge $-1 $440 $298 $300 $444 reversed $182 $-1 #
coedge $-1 $298 $439 $557 $558 reversed $182 $-1 #
coedge $-1 $306 $301 $298 $442 forward $296 $-1 #
edge $-1 $445 -24.271342514148003 $559 -21.823184609820292 $441 $560 forward 7 unknown #
coedge $-1 $300 $299 $448 $561 reversed $114 $-1 #
edge $-1 $562 -43.686446308399411 $445 -39.066576588321155 $439 $563 forward 7 unknown #
vertex $-1 $302 $564 #
straight-curve $-1 19.090720244772424 19.395065249871983 7.6964247140262216 1 0 0 I I #
coedge $-1 $557 $303 $306 $452 reversed $437 $-1 #
coedge $-1 $303 $557 $443 $561 forward $437 $-1 #
vertex $-1 $304 $565 #
straight-curve $-1 32.69645716962421 21.843223154199691 48.107552131813605 0 0 1 I I #
straight-curve $-1 32.69645716962421 -1.3070657764770175 40.826760922689132 0 0.52991925155115449 -0.84804810408105047 I I #
edge $-1 $559 -43.666423809465485 $307 -32.69645716962421 $447 $566 forward 7 unknown #
point $-1 32.69645716962421 21.843223154199695 7.6964247140262207 #
point $-1 32.69645716962421 19.395065249871983 7.6964247140262216 #
edge $-1 $567 1 $567 0 $310 $-1 forward 7 unknown #
vertex $-1 $311 $568 #
ellipse-curve $-1 38.181440489544848 17.992827193773614 4.0963838831684356 0 0.84804810408105047 0.52991925155115449 1 0 0 1 I I #
point $-1 39.181440489544848 20.619144202035848 5.7374888354193274 #
plane-surface $-1 0 0 7.6964247140262207 0 0 1 1 0 0 forward_v I I I I #
coedge $-1 $470 $469 $462 $569 forward $315 $-1 #
coedge $-1 $462 $317 $319 $466 reversed $197 $-1 #
coedge $-1 $317 $461 $460 $569 reversed $197 $-1 #
coedge $-1 $325 $320 $317 $464 forward $326 $-1 #
edge $-1 $467 -28.693601578341223 $570 -20.529913777475631 $463 $571 forward 7 unknown #
coedge $-1 $319 $318 $470 $572 reversed $123 $-1 #
edge $-1 $573 4.4408806494695735e-015 $467 10.222044671003152 $461 $574 forward 7 unknown #
vertex $-1 $321 $575 #
straight-curve $-1 -1.1349619183893545 -13.679535353334105 7.6964247140262207 -1 0 0 I I #
coedge $-1 $460 $322 $325 $474 reversed $315 $-1 #
coedge $-1 $322 $460 $465 $572 forward $315 $-1 #
vertex $-1 $323 $576 #
straight-curve $-1 4.2450737163400483 -21.843223154199695 42.509905318319838 0 0 1 I I #
straight-curve $-1 4.2450737163400483 -21.843223154199698 1.5446445858046189 0 -0.79863550430605224 -0.6018150307709319 I I #
edge $-1 $570 -8.7849213898974661 $327 4.2450737163400483 $469 $577 forward 7 unknown #
point $-1 4.2450737163400483 -21.843223154199695 7.6964247140262207 #
point $-1 4.2450737163400483 -13.679535353334103 7.6964247140262207 #
edge $-1 $578 1 $578 0 $330 $-1 forward 7 unknown #
vertex $-1 $331 $579 #
ellipse-curve $-1 -5.0620656452581798 -17.150472806624883 3.8098344288323913 0 -0.6018150307709319 0.79863550430605224 1 0 0 1 I I #
point $-1 -4.0620656452581798 -17.761379253766908 4.6205346499154292 #
edge $-1 $580 1 $580 0 $334 $-1 forward 7 unknown #
vertex $-1 $335 $581 #
ellipse-curve $-1 0.5222179717007549 -17.150472806624883 3.8098344288323913 0 -0.6018150307709319 0.79863550430605224 1 0 0 1 I I #
point $-1 1.5222179717007549 -17.761379253766908 4.6205346499154292 #
loop $-1 $-1 $347 $338 #
plane-surface $-1 52.261116367076632 0 0 -1 0 0 0 0 1 forward_v I I I I #
coedge $-1 $582 $341 $346 $493 forward $219 $-1 #
coedge $-1 $341 $582 $490 $583 reversed $219 $-1 #
edge $-1 $491 34.813480604293616 $498 40.965260732515219 $341 $584 forward 7 unknown #
coedge $-1 $350 $344 $488 $583 forward $339 $-1 #
vertex $-1 $583 $585 #
straight-curve $-1 39.231121260839117 -42.373136931675326 7.6964247140262216 0 -1 0 I I #
edge $-1 $498 16.358061853860182 $496 29.388056960097689 $487 $586 forward 7 unknown #
coedge $-1 $495 $347 $350 $500 reversed $485 $-1 #
coedge $-1 $347 $494 $582 $587 forward $485 $-1 #
vertex $-1 $493 $588 #
straight-curve $-1 52.261116367076632 -15.248417318192333 6.5141873318082508 0 0.79863550430605224 0.6018150307709319 I I #
vertex $-1 $493 $589 #
straight-curve $-1 39.231121260839117 -21.843223154199698 1.5446445858046189 0 0.79863550430605224 0.6018150307709319 I I #
edge $-1 $590 -21.843223154199695 $351 -13.679535353334103 $494 $591 forward 7 unknown #
point $-1 52.261116367076625 -13.679535353334103 7.6964247140262207 #
point $-1 39.231121260839117 -13.679535353334103 7.6964247140262207 #
edge $-1 $592 1 $592 0 $354 $-1 forward 7 unknown #
vertex $-1 $355 $593 #
ellipse-curve $-1 42.9539770054784 -17.150472806624883 3.8098344288323913 0 -0.6018150307709319 0.79863550430605224 1 0 0 1 I I #
point $-1 43.9539770054784 -17.761379253766908 4.6205346499154292 #
edge $-1 $594 1 $594 0 $358 $-1 forward 7 unknown #
vertex $-1 $359 $595 #
ellipse-curve $-1 48.538260622437328 -17.150472806624883 3.8098344288323913 0 -0.6018150307709319 0.79863550430605224 1 0 0 1 I I #
point $-1 49.538260622437328 -17.761379253766908 4.6205346499154292 #
plane-surface $-1 52.261116367076632 0 0 -1 0 0 0 0 1 forward_v I I I I #
coedge $-1 $367 $365 $369 $516 reversed $241 $-1 #
edge $-1 $380 -7.6964247140262207 $518 7.6964247140262207 $379 $596 forward 7 unknown #
vertex $-1 $516 $597 #
straight-curve $-1 -52.261116367076632 -21.843223154199695 0 0 0 -1 I I #
edge $-1 $514 -21.843223154199695 $518 21.843223154199695 $512 $598 forward 7 unknown #
straight-curve $-1 0 -21.843223154199695 -7.6964247140262207 -1 0 0 I I #
vertex $-1 $372 $599 #
straight-curve $-1 0 21.843223154199695 -7.6964247140262207 1 0 0 I I #
point $-1 52.261116367076632 21.843223154199695 -7.6964247140262207 #
point $-1 52.261116367076632 -21.843223154199695 -7.6964247140262207 #
straight-curve $-1 -52.261116367076632 0 7.6964247140262207 0 -1 0 I I #
point $-1 -52.261116367076632 21.843223154199695 7.6964247140262207 #
point $-1 -52.261116367076632 -21.843223154199695 7.6964247140262207 #
straight-curve $-1 52.261116367076632 -21.843223154199695 0 0 0 -1 I I #
straight-curve $-1 52.261116367076632 21.843223154199695 0 0 0 -1 I I #
plane-surface $-1 0 21.843223154199695 0 0 -1 0 0 0 -1 forward_v I I I I #
coedge $-1 $538 $537 $395 $530 forward $390 $-1 #
straight-curve $-1 -43.770968934396528 -21.843223154199695 -0.053479016118621381 0 0 1 I I #
edge $-1 $533 -21.843223154199695 $531 21.843223154199695 $528 $600 forward 7 unknown #
vertex $-1 $396 $601 #
straight-curve $-1 -24.00802132536829 -21.843223154199695 -1.913140994468983 1 0 0 I I #
vertex $-1 $398 $602 #
straight-curve $-1 -24.00802132536829 21.843223154199695 -1.913140994468983 -1 0 0 I I #
point $-1 -43.770968934396528 21.843223154199695 -1.913140994468983 #
point $-1 -43.770968934396528 -21.843223154199695 -1.913140994468983 #
coedge $-1 $528 $402 $405 $540 forward $390 $-1 #
coedge $-1 $402 $528 $409 $542 reversed $390 $-1 #
straight-curve $-1 -52.261116367076632 0 1.6992249299944975 0 1 0 I I #
edge $-1 $407 -1.6992249299944975 $533 1.913140994468983 $405 $603 forward 7 unknown #
point $-1 -52.261116367076632 21.843223154199695 1.6992249299944975 #
edge $-1 $410 -1.6992249299944975 $531 1.913140994468983 $538 $604 forward 7 unknown #
point $-1 -52.261116367076632 -21.843223154199695 1.6992249299944975 #
straight-curve $-1 -43.770968934396528 21.843223154199695 -0.053479016118621381 0 0 -1 I I #
coedge $-1 $426 $425 $418 $546 forward $415 $-1 #
edge $-1 $547 40.411127417787384 $550 44.328999175001201 $545 $605 forward 7 unknown #
vertex $-1 $430 $606 #
straight-curve $-1 -4.3496188412711021 43.666407764019986 7.6964247140262216 0 1 0 I I #
edge $-1 $550 -0.56768223932476758 $427 10.402284400516507 $426 $607 forward 7 unknown #
vertex $-1 $549 $608 #
straight-curve $-1 -4.3496188412711021 -1.3070657764770175 40.826760922689132 0 -0.52991925155115449 0.84804810408105047 I I #
point $-1 -4.3496188412711021 19.395065249871983 7.6964247140262216 #
point $-1 -15.319585481112377 21.843223154199695 3.7785529568124048 #
straight-curve $-1 0 21.843223154199695 7.6964247140262207 -1 0 0 I I #
vertex $-1 $433 $609 #
point $-1 -8.8346021611917394 17.992827193773614 4.0963838831684356 #
coedge $-1 $448 $447 $440 $558 forward $437 $-1 #
edge $-1 $559 40.411127417787384 $562 44.328999175001201 $557 $610 forward 7 unknown #
vertex $-1 $452 $611 #
straight-curve $-1 43.666423809465485 43.666407764019986 7.6964247140262216 0 1 0 I I #
edge $-1 $562 -24.575703564693061 $449 -13.605736924851787 $448 $612 forward 7 unknown #
vertex $-1 $561 $613 #
straight-curve $-1 43.666423809465485 -1.3070657764770175 40.826760922689132 0 -0.52991925155115449 0.84804810408105047 I I #
point $-1 43.666423809465485 19.395065249871983 7.6964247140262216 #
point $-1 32.69645716962421 21.843223154199695 3.7785529568124048 #
straight-curve $-1 0 21.843223154199695 7.6964247140262207 -1 0 0 I I #
vertex $-1 $455 $614 #
point $-1 39.181440489544848 17.992827193773614 4.0963838831684356 #
edge $-1 $570 34.813480604293616 $573 40.965260732515219 $460 $615 forward 7 unknown #
vertex $-1 $474 $616 #
straight-curve $-1 -8.7849213898974661 -42.373136931675326 7.6964247140262216 0 -1 0 I I #
edge $-1 $573 -7.6499594715081116 $471 5.3800356347294027 $470 $617 forward 7 unknown #
vertex $-1 $572 $618 #
straight-curve $-1 -8.7849213898974661 -21.843223154199698 1.5446445858046189 0 0.79863550430605224 0.6018150307709319 I I #
point $-1 -8.7849213898974661 -13.679535353334103 7.6964247140262207 #
point $-1 4.2450737163400483 -21.843223154199695 1.5446445858046216 #
straight-curve $-1 0 -21.843223154199695 7.6964247140262207 1 0 0 I I #
vertex $-1 $477 $619 #
point $-1 -4.0620656452581798 -17.150472806624883 3.8098344288323913 #
vertex $-1 $481 $620 #
point $-1 1.5222179717007549 -17.150472806624883 3.8098344288323913 #
coedge $-1 $488 $487 $495 $587 reversed $219 $-1 #
edge $-1 $491 39.231121260839117 $590 52.261116367076632 $488 $621 forward 7 unknown #
straight-curve $-1 39.231121260839117 -21.843223154199695 42.509905318319838 0 0 -1 I I #
point $-1 39.231121260839117 -21.843223154199695 7.6964247140262207 #
straight-curve $-1 22.873059406978935 -21.843223154199695 1.5446445858046234 1 0 0 I I #
edge $-1 $590 -7.6964247140262207 $496 -1.5446445858046216 $495 $622 forward 7 unknown #
point $-1 52.261116367076625 -21.843223154199695 1.5446445858046216 #
point $-1 39.231121260839117 -21.843223154199695 1.5446445858046216 #
vertex $-1 $500 $623 #
straight-curve $-1 52.261116367076632 0 7.6964247140262207 0 1 0 I I #
vertex $-1 $503 $624 #
point $-1 43.9539770054784 -17.150472806624883 3.8098344288323913 #
vertex $-1 $507 $625 #
point $-1 49.538260622437328 -17.150472806624883 3.8098344288323913 #
straight-curve $-1 -52.261116367076632 21.843223154199695 0 0 0 -1 I I #
point $-1 -52.261116367076632 -21.843223154199695 -7.6964247140262207 #
straight-curve $-1 -52.261116367076632 0 -7.6964247140262207 0 1 0 I I #
point $-1 -52.261116367076632 21.843223154199695 -7.6964247140262207 #
straight-curve $-1 -52.261116367076632 0 -1.913140994468983 0 -1 0 I I #
point $-1 -52.261116367076632 -21.843223154199695 -1.913140994468983 #
point $-1 -52.261116367076632 21.843223154199695 -1.913140994468983 #
straight-curve $-1 -52.261116367076632 21.843223154199695 0 0 0 -1 I I #
straight-curve $-1 -52.261116367076632 -21.843223154199695 0 0 0 -1 I I #
straight-curve $-1 -4.3496188412711021 21.843223154199691 48.107552131813605 0 0 -1 I I #
point $-1 -4.3496188412711021 21.843223154199695 7.6964247140262207 #
straight-curve $-1 -4.9173010805958697 21.843223154199691 3.7785529568124119 -1 0 0 I I #
point $-1 -4.3496188412711021 21.843223154199695 3.7785529568124048 #
point $-1 -9.8346021611917394 17.144779089692562 3.5664646316172814 #
straight-curve $-1 43.666423809465485 21.843223154199691 48.107552131813605 0 0 -1 I I #
point $-1 43.666423809465485 21.843223154199695 7.6964247140262207 #
straight-curve $-1 19.090720244772424 21.843223154199691 3.7785529568124119 -1 0 0 I I #
point $-1 43.666423809465485 21.843223154199695 3.7785529568124048 #
point $-1 38.181440489544848 17.144779089692562 3.5664646316172814 #
straight-curve $-1 -8.7849213898974661 -21.843223154199695 42.509905318319838 0 0 -1 I I #
point $-1 -8.7849213898974661 -21.843223154199695 7.6964247140262207 #
straight-curve $-1 -1.1349619183893545 -21.843223154199695 1.5446445858046234 1 0 0 I I #
point $-1 -8.7849213898974661 -21.843223154199695 1.5446445858046216 #
point $-1 -5.0620656452581798 -16.548657775853954 3.0111989245263393 #
point $-1 0.5222179717007549 -16.548657775853954 3.0111989245263393 #
straight-curve $-1 0 -21.843223154199695 7.6964247140262207 1 0 0 I I #
straight-curve $-1 52.261116367076632 -21.843223154199695 0 0 0 -1 I I #
point $-1 52.261116367076632 -21.843223154199695 7.6964247140262207 #
point $-1 42.9539770054784 -16.548657775853954 3.0111989245263393 #
point $-1 48.538260622437328 -16.548657775853954 3.0111989245263393 #
End-of-ACIS-data 