500 0 20 0           
7 Unknown 11 ACIS 5.0 NT 24 Fri Mar 26 03:26:55 1999 
-1 9.9999999999999995e-007 1e-010 
body $-1 $20 $-1 $21 #
body $-1 $22 $-1 $23 #
body $-1 $24 $-1 $25 #
body $-1 $26 $-1 $27 #
body $-1 $28 $-1 $29 #
body $-1 $30 $-1 $31 #
body $-1 $32 $-1 $33 #
body $-1 $34 $-1 $35 #
body $-1 $36 $-1 $37 #
body $-1 $38 $-1 $39 #
body $-1 $40 $-1 $41 #
body $-1 $42 $-1 $43 #
body $-1 $44 $-1 $45 #
body $-1 $46 $-1 $47 #
body $-1 $48 $-1 $49 #
body $-1 $50 $-1 $51 #
body $-1 $52 $-1 $53 #
body $-1 $54 $-1 $55 #
body $-1 $56 $-1 $57 #
body $-1 $58 $-1 $59 #
lump $-1 $-1 $60 $0 #
transform $-1 1 0 0 0 1 0 0 0 1 73.043000579851679 46.945737590000917 14.184154524018894 1 rotate no_reflect no_shear #
lump $-1 $-1 $61 $1 #
transform $-1 1 0 0 0 1 0 0 0 1 73.043000579851679 46.945737590000917 14.184154524018894 1 rotate no_reflect no_shear #
lump $-1 $-1 $62 $2 #
transform $-1 1 0 0 0 1 0 0 0 1 73.043000579851679 46.945737590000917 14.184154524018894 1 rotate no_reflect no_shear #
lump $-1 $-1 $63 $3 #
transform $-1 1 0 0 0 1 0 0 0 1 73.043000579851679 46.945737590000917 14.184154524018894 1 rotate no_reflect no_shear #
lump $-1 $-1 $64 $4 #
transform $-1 1 0 0 0 1 0 0 0 1 73.043000579851679 46.945737590000917 14.184154524018894 1 rotate no_reflect no_shear #
lump $-1 $-1 $65 $5 #
transform $-1 1 0 0 0 1 0 0 0 1 73.043000579851679 46.945737590000917 14.184154524018894 1 rotate no_reflect no_shear #
lump $-1 $-1 $66 $6 #
transform $-1 1 0 0 0 1 0 0 0 1 73.043000579851679 46.945737590000917 14.184154524018894 1 rotate no_reflect no_shear #
lump $-1 $-1 $67 $7 #
transform $-1 1 0 0 0 1 0 0 0 1 73.043000579851679 46.945737590000917 14.184154524018894 1 rotate no_reflect no_shear #
lump $-1 $-1 $68 $8 #
transform $-1 1 0 0 0 1 0 0 0 1 73.043000579851679 46.945737590000917 14.184154524018894 1 rotate no_reflect no_shear #
lump $-1 $-1 $69 $9 #
transform $-1 1 0 0 0 1 0 0 0 1 73.043000579851679 46.945737590000917 14.184154524018894 1 rotate no_reflect no_shear #
lump $-1 $-1 $70 $10 #
transform $-1 1 0 0 0 1 0 0 0 1 73.043000579851679 46.945737590000917 14.184154524018894 1 rotate no_reflect no_shear #
lump $-1 $-1 $71 $11 #
transform $-1 1 0 0 0 1 0 0 0 1 73.043000579851679 46.945737590000917 14.184154524018894 1 rotate no_reflect no_shear #
lump $-1 $-1 $72 $12 #
transform $-1 1 0 0 0 1 0 0 0 1 73.043000579851679 46.945737590000917 14.184154524018894 1 rotate no_reflect no_shear #
lump $-1 $-1 $73 $13 #
transform $-1 1 0 0 0 1 0 0 0 1 73.043000579851679 46.945737590000917 14.184154524018894 1 rotate no_reflect no_shear #
lump $-1 $-1 $74 $14 #
transform $-1 1 0 0 0 1 0 0 0 1 73.043000579851679 46.945737590000917 14.184154524018894 1 rotate no_reflect no_shear #
lump $-1 $-1 $75 $15 #
transform $-1 1 0 0 0 1 0 0 0 1 73.043000579851679 46.945737590000917 14.184154524018894 1 rotate no_reflect no_shear #
lump $-1 $-1 $76 $16 #
transform $-1 1 0 0 0 1 0 0 0 1 73.043000579851679 46.945737590000917 14.184154524018894 1 rotate no_reflect no_shear #
lump $-1 $-1 $77 $17 #
transform $-1 1 0 0 0 1 0 0 0 1 73.043000579851679 46.945737590000917 14.184154524018894 1 rotate no_reflect no_shear #
lump $-1 $-1 $78 $18 #
transform $-1 1 0 0 0 1 0 0 0 1 73.043000579851679 46.945737590000917 14.184154524018894 1 rotate no_reflect no_shear #
lump $-1 $-1 $79 $19 #
transform $-1 1 0 0 0 1 0 0 0 1 73.043000579851679 46.945737590000917 14.184154524018894 1 rotate no_reflect no_shear #
shell $-1 $-1 $-1 $80 $-1 $20 #
shell $-1 $-1 $-1 $81 $-1 $22 #
shell $-1 $-1 $-1 $82 $-1 $24 #
shell $-1 $-1 $-1 $83 $-1 $26 #
shell $-1 $-1 $-1 $84 $-1 $28 #
shell $-1 $-1 $-1 $85 $-1 $30 #
shell $-1 $-1 $-1 $86 $-1 $32 #
shell $-1 $-1 $-1 $87 $-1 $34 #
shell $-1 $-1 $-1 $88 $-1 $36 #
shell $-1 $-1 $-1 $89 $-1 $38 #
shell $-1 $-1 $-1 $90 $-1 $40 #
shell $-1 $-1 $-1 $91 $-1 $42 #
shell $-1 $-1 $-1 $92 $-1 $44 #
shell $-1 $-1 $-1 $93 $-1 $46 #
shell $-1 $-1 $-1 $94 $-1 $48 #
shell $-1 $-1 $-1 $95 $-1 $50 #
shell $-1 $-1 $-1 $96 $-1 $52 #
shell $-1 $-1 $-1 $97 $-1 $54 #
shell $-1 $-1 $-1 $98 $-1 $56 #
shell $-1 $-1 $-1 $99 $-1 $58 #
face $-1 $100 $101 $60 $-1 $102 forward single #
face $-1 $103 $104 $61 $-1 $105 reversed single #
face $-1 $106 $107 $62 $-1 $108 reversed single #
face $-1 $109 $110 $63 $-1 $111 forward single #
face $-1 $112 $113 $64 $-1 $114 reversed single #
face $-1 $115 $116 $65 $-1 $117 forward single #
face $-1 $118 $119 $66 $-1 $120 forward single #
face $-1 $121 $122 $67 $-1 $123 forward single #
face $-1 $124 $125 $68 $-1 $126 reversed single #
face $-1 $127 $128 $69 $-1 $129 forward single #
face $-1 $130 $131 $70 $-1 $132 forward single #
face $-1 $133 $134 $71 $-1 $135 forward single #
face $-1 $136 $137 $72 $-1 $138 reversed single #
face $-1 $139 $140 $73 $-1 $141 forward single #
face $-1 $142 $143 $74 $-1 $144 forward single #
face $-1 $145 $146 $75 $-1 $147 forward single #
face $-1 $148 $149 $76 $-1 $150 reversed single #
face $-1 $151 $152 $77 $-1 $153 forward single #
face $-1 $154 $155 $78 $-1 $156 forward single #
face $-1 $157 $158 $79 $-1 $159 forward single #
face $-1 $160 $161 $60 $-1 $162 reversed single #
loop $-1 $-1 $163 $80 #
plane-surface $-1 0 0 14.184154524018894 0 0 1 1 0 0 forward_v I I I I #
face $-1 $164 $165 $61 $-1 $166 reversed single #
loop $-1 $-1 $167 $81 #
plane-surface $-1 -67.959820703381837 0 9.9004679998089813 0 0 1 1 0 0 forward_v I I I I #
face $-1 $168 $169 $62 $-1 $170 reversed single #
loop $-1 $-1 $171 $82 #
plane-surface $-1 39.602200992202043 -172.16588201899572 77.048184003129833 -1 0 0 0 -0.85716730853699208 0.51503806187062418 forward_v I I I I #
face $-1 $172 $173 $63 $-1 $174 forward single #
loop $-1 $175 $176 $83 #
cone-surface $-1 20.952293959306758 -41.479611684898458 6.9459069359419212 0 0.85716730853699208 -0.51503806187062418 2 0 0 1 I I 0 1 2 forward I I I I #
face $-1 $177 $178 $64 $-1 $179 reversed single #
loop $-1 $-1 $180 $84 #
plane-surface $-1 -52.773629761844944 129.19594512055744 159.73011294098785 1 0 0 0 -0.87461971476443456 -0.48480960649040278 forward_v I I I I #
face $-1 $181 $182 $65 $-1 $183 forward single #
loop $-1 $184 $185 $85 #
cone-surface $-1 -48.399536843145704 44.187995897797393 10.093314214704183 0 -0.87461971476443456 -0.48480960649040278 1.5 0 0 1 I I 0 1 1.5 forward I I I I #
face $-1 $186 $187 $66 $-1 $188 forward single #
loop $-1 $189 $190 $86 #
cone-surface $-1 -41.838397465096833 44.187995897797393 10.093314214704183 0 -0.87461971476443456 -0.48480960649040278 1.5 0 0 1 I I 0 1 1.5 forward I I I I #
face $-1 $191 $192 $67 $-1 $193 forward single #
loop $-1 $194 $195 $87 #
cone-surface $-1 -35.277258087047962 44.187995897797393 10.093314214704183 0 -0.87461971476443456 -0.48480960649040278 1.5 0 0 1 I I 0 1 1.5 forward I I I I #
face $-1 $196 $197 $68 $-1 $198 reversed single #
loop $-1 $-1 $199 $88 #
plane-surface $-1 -18.793719410154029 129.19594512055744 159.73011294098785 1 0 0 0 -0.87461971476443456 -0.48480960649040278 forward_v I I I I #
face $-1 $200 $201 $69 $-1 $202 forward single #
loop $-1 $203 $204 $89 #
cone-surface $-1 -14.419626491454785 44.187995897797393 10.093314214704183 0 -0.87461971476443456 -0.48480960649040278 1.5 0 0 1 I I 0 1 1.5 forward I I I I #
face $-1 $205 $206 $70 $-1 $207 forward single #
loop $-1 $208 $209 $90 #
cone-surface $-1 -7.8584871134059142 44.187995897797393 10.093314214704183 0 -0.87461971476443456 -0.48480960649040278 1.5 0 0 1 I I 0 1 1.5 forward I I I I #
face $-1 $210 $211 $71 $-1 $212 forward single #
loop $-1 $213 $214 $91 #
cone-surface $-1 -1.2973477353570502 44.187995897797393 10.093314214704183 0 -0.87461971476443456 -0.48480960649040278 1.5 0 0 1 I I 0 1 1.5 forward I I I I #
face $-1 $215 $216 $72 $-1 $217 reversed single #
loop $-1 $-1 $218 $92 #
plane-surface $-1 15.186190941536889 129.19594512055744 159.73011294098785 1 0 0 0 -0.87461971476443456 -0.48480960649040278 forward_v I I I I #
face $-1 $219 $220 $73 $-1 $221 forward single #
loop $-1 $222 $223 $93 #
cone-surface $-1 19.560283860236126 44.187995897797393 10.093314214704183 0 -0.87461971476443456 -0.48480960649040278 1.5 0 0 1 I I 0 1 1.5 forward I I I I #
face $-1 $224 $225 $74 $-1 $226 forward single #
loop $-1 $227 $228 $94 #
cone-surface $-1 26.121423238285004 44.187995897797393 10.093314214704183 0 -0.87461971476443456 -0.48480960649040278 1.5 0 0 1 I I 0 1 1.5 forward I I I I #
face $-1 $229 $230 $75 $-1 $231 forward single #
loop $-1 $232 $233 $95 #
cone-surface $-1 32.682562616333868 44.187995897797393 10.093314214704183 0 -0.87461971476443456 -0.48480960649040278 1.5 0 0 1 I I 0 1 1.5 forward I I I I #
face $-1 $234 $235 $76 $-1 $236 reversed single #
loop $-1 $-1 $237 $96 #
plane-surface $-1 49.166101293227811 129.19594512055744 159.73011294098785 1 0 0 0 -0.87461971476443456 -0.48480960649040278 forward_v I I I I #
face $-1 $238 $239 $77 $-1 $240 forward single #
loop $-1 $241 $242 $97 #
cone-surface $-1 53.540194211927044 44.187995897797393 10.093314214704183 0 -0.87461971476443456 -0.48480960649040278 1.5 0 0 1 I I 0 1 1.5 forward I I I I #
face $-1 $243 $244 $78 $-1 $245 forward single #
loop $-1 $246 $247 $98 #
cone-surface $-1 60.101333589975923 44.187995897797393 10.093314214704183 0 -0.87461971476443456 -0.48480960649040278 1.5 0 0 1 I I 0 1 1.5 forward I I I I #
face $-1 $248 $249 $79 $-1 $250 forward single #
loop $-1 $251 $252 $99 #
cone-surface $-1 66.662472968024787 44.187995897797393 10.093314214704183 0 -0.87461971476443456 -0.48480960649040278 1.5 0 0 1 I I 0 1 1.5 forward I I I I #
face $-1 $253 $254 $60 $-1 $255 reversed single #
loop $-1 $-1 $256 $100 #
plane-surface $-1 0 0 -14.184154524018894 0 0 1 1 0 0 forward_v I I I I #
coedge $-1 $257 $258 $259 $260 forward $101 $-1 #
face $-1 $261 $262 $61 $-1 $263 reversed single #
loop $-1 $-1 $264 $103 #
plane-surface $-1 -62.876640826912002 0 12.042311261913937 -1 0 0 0 0 1 forward_v I I I I #
coedge $-1 $265 $266 $267 $268 forward $104 $-1 #
face $-1 $269 $270 $62 $-1 $271 reversed single #
loop $-1 $-1 $272 $106 #
plane-surface $-1 20.952293959306758 -46.945737590000888 1.8083330994064539 0 -0.85716730853699208 0.51503806187062418 1 0 0 forward_v I I I I #
coedge $-1 $273 $274 $275 $276 reversed $107 $-1 #
face $-1 $-1 $277 $63 $-1 $278 forward single #
loop $-1 $279 $280 $109 #
cone-surface $-1 20.952293959306758 -38.874390204225861 5.3805319983005298 0 0.85716730853699208 -0.51503806187062418 1 0 0 1 I I -0.70710678118654746 0.70710678118654746 1 forward I I I I #
loop $-1 $-1 $281 $83 #
coedge $-1 $176 $176 $282 $283 reversed $110 $-1 #
face $-1 $284 $285 $64 $-1 $286 reversed single #
loop $-1 $-1 $287 $112 #
plane-surface $-1 -41.838397465096833 1.4262484551808257 88.906216204995545 0 0.87461971476443456 0.48480960649040278 1 0 0 forward_v I I I I #
coedge $-1 $288 $289 $290 $291 reversed $113 $-1 #
face $-1 $-1 $292 $65 $-1 $293 forward single #
loop $-1 $294 $295 $115 #
cone-surface $-1 -48.399536843145704 42.824477188600937 9.3375034804059283 0 -0.87461971476443456 -0.48480960649040278 0.75 0 0 1 I I -0.70710678118654757 0.70710678118654757 0.75 forward I I I I #
loop $-1 $-1 $296 $85 #
coedge $-1 $185 $185 $297 $298 reversed $116 $-1 #
face $-1 $-1 $299 $66 $-1 $300 forward single #
loop $-1 $301 $302 $118 #
cone-surface $-1 -41.838397465096833 42.824477188600937 9.3375034804059283 0 -0.87461971476443456 -0.48480960649040278 0.75 0 0 1 I I -0.70710678118654757 0.70710678118654757 0.75 forward I I I I #
loop $-1 $-1 $303 $86 #
coedge $-1 $190 $190 $304 $305 reversed $119 $-1 #
face $-1 $-1 $306 $67 $-1 $307 forward single #
loop $-1 $308 $309 $121 #
cone-surface $-1 -35.277258087047962 42.824477188600937 9.3375034804059283 0 -0.87461971476443456 -0.48480960649040278 0.75 0 0 1 I I -0.70710678118654757 0.70710678118654757 0.75 forward I I I I #
loop $-1 $-1 $310 $87 #
coedge $-1 $195 $195 $311 $312 reversed $122 $-1 #
face $-1 $313 $314 $68 $-1 $315 reversed single #
loop $-1 $-1 $316 $124 #
plane-surface $-1 -7.8584871134059142 1.4262484551808257 88.906216204995545 0 0.87461971476443456 0.48480960649040278 1 0 0 forward_v I I I I #
coedge $-1 $317 $318 $319 $320 reversed $125 $-1 #
face $-1 $-1 $321 $69 $-1 $322 forward single #
loop $-1 $323 $324 $127 #
cone-surface $-1 -14.419626491454785 42.824477188600937 9.3375034804059283 0 -0.87461971476443456 -0.48480960649040278 0.75 0 0 1 I I -0.70710678118654757 0.70710678118654757 0.75 forward I I I I #
loop $-1 $-1 $325 $89 #
coedge $-1 $204 $204 $326 $327 reversed $128 $-1 #
face $-1 $-1 $328 $70 $-1 $329 forward single #
loop $-1 $330 $331 $130 #
cone-surface $-1 -7.8584871134059142 42.824477188600937 9.3375034804059283 0 -0.87461971476443456 -0.48480960649040278 0.75 0 0 1 I I -0.70710678118654757 0.70710678118654757 0.75 forward I I I I #
loop $-1 $-1 $332 $90 #
coedge $-1 $209 $209 $333 $334 reversed $131 $-1 #
face $-1 $-1 $335 $71 $-1 $336 forward single #
loop $-1 $337 $338 $133 #
cone-surface $-1 -1.2973477353570502 42.824477188600937 9.3375034804059283 0 -0.87461971476443456 -0.48480960649040278 0.75 0 0 1 I I -0.70710678118654757 0.70710678118654757 0.75 forward I I I I #
loop $-1 $-1 $339 $91 #
coedge $-1 $214 $214 $340 $341 reversed $134 $-1 #
face $-1 $342 $343 $72 $-1 $344 reversed single #
loop $-1 $-1 $345 $136 #
plane-surface $-1 26.121423238285004 1.4262484551808257 88.906216204995545 0 0.87461971476443456 0.48480960649040278 1 0 0 forward_v I I I I #
coedge $-1 $346 $347 $348 $349 reversed $137 $-1 #
face $-1 $-1 $350 $73 $-1 $351 forward single #
loop $-1 $352 $353 $139 #
cone-surface $-1 19.560283860236126 42.824477188600937 9.3375034804059283 0 -0.87461971476443456 -0.48480960649040278 0.75 0 0 1 I I -0.70710678118654757 0.70710678118654757 0.75 forward I I I I #
loop $-1 $-1 $354 $93 #
coedge $-1 $223 $223 $355 $356 reversed $140 $-1 #
face $-1 $-1 $357 $74 $-1 $358 forward single #
loop $-1 $359 $360 $142 #
cone-surface $-1 26.121423238285004 42.824477188600937 9.3375034804059283 0 -0.87461971476443456 -0.48480960649040278 0.75 0 0 1 I I -0.70710678118654757 0.70710678118654757 0.75 forward I I I I #
loop $-1 $-1 $361 $94 #
coedge $-1 $228 $228 $362 $363 reversed $143 $-1 #
face $-1 $-1 $364 $75 $-1 $365 forward single #
loop $-1 $366 $367 $145 #
cone-surface $-1 32.682562616333868 42.824477188600937 9.3375034804059283 0 -0.87461971476443456 -0.48480960649040278 0.75 0 0 1 I I -0.70710678118654757 0.70710678118654757 0.75 forward I I I I #
loop $-1 $-1 $368 $95 #
coedge $-1 $233 $233 $369 $370 reversed $146 $-1 #
face $-1 $371 $372 $76 $-1 $373 reversed single #
loop $-1 $-1 $374 $148 #
plane-surface $-1 60.101333589975923 1.4262484551808257 88.906216204995545 0 0.87461971476443456 0.48480960649040278 1 0 0 forward_v I I I I #
coedge $-1 $375 $376 $377 $378 reversed $149 $-1 #
face $-1 $-1 $379 $77 $-1 $380 forward single #
loop $-1 $381 $382 $151 #
cone-surface $-1 53.540194211927044 42.824477188600937 9.3375034804059283 0 -0.87461971476443456 -0.48480960649040278 0.75 0 0 1 I I -0.70710678118654757 0.70710678118654757 0.75 forward I I I I #
loop $-1 $-1 $383 $97 #
coedge $-1 $242 $242 $384 $385 reversed $152 $-1 #
face $-1 $-1 $386 $78 $-1 $387 forward single #
loop $-1 $388 $389 $154 #
cone-surface $-1 60.101333589975923 42.824477188600937 9.3375034804059283 0 -0.87461971476443456 -0.48480960649040278 0.75 0 0 1 I I -0.70710678118654757 0.70710678118654757 0.75 forward I I I I #
loop $-1 $-1 $390 $98 #
coedge $-1 $247 $247 $391 $392 reversed $155 $-1 #
face $-1 $-1 $393 $79 $-1 $394 forward single #
loop $-1 $395 $396 $157 #
cone-surface $-1 66.662472968024787 42.824477188600937 9.3375034804059283 0 -0.87461971476443456 -0.48480960649040278 0.75 0 0 1 I I -0.70710678118654757 0.70710678118654757 0.75 forward I I I I #
loop $-1 $-1 $397 $99 #
coedge $-1 $252 $252 $398 $399 reversed $158 $-1 #
face $-1 $400 $401 $60 $-1 $402 reversed single #
loop $-1 $-1 $403 $160 #
plane-surface $-1 0 -46.945737590000917 0 0 1 0 0 0 1 forward_v I I I I #
coedge $-1 $404 $405 $406 $407 forward $161 $-1 #
coedge $-1 $408 $163 $409 $410 forward $101 $-1 #
coedge $-1 $163 $408 $411 $412 forward $101 $-1 #
coedge $-1 $413 $414 $163 $260 reversed $415 $-1 #
edge $-1 $416 -46.945737590000917 $417 46.945737590000917 $259 $418 forward 7 unknown #
face $-1 $419 $420 $61 $-1 $421 reversed single #
loop $-1 $-1 $422 $164 #
plane-surface $-1 0 46.945737590000917 0 0 -1 0 0 0 -1 forward_v I I I I #
coedge $-1 $267 $423 $424 $425 reversed $165 $-1 #
coedge $-1 $426 $167 $427 $428 reversed $104 $-1 #
coedge $-1 $167 $426 $429 $430 reversed $104 $-1 #
coedge $-1 $431 $264 $167 $268 reversed $165 $-1 #
edge $-1 $432 -46.945737590000917 $433 46.945737590000917 $267 $434 forward 7 unknown #
face $-1 $435 $436 $62 $-1 $437 reversed single #
loop $-1 $-1 $438 $168 #
plane-surface $-1 2.3023869264114722 -172.16588201899572 77.048184003129833 1 0 0 0 0.85716730853699208 -0.51503806187062418 forward_v I I I I #
coedge $-1 $439 $440 $441 $442 reversed $169 $-1 #
coedge $-1 $274 $171 $443 $444 reversed $107 $-1 #
coedge $-1 $171 $273 $439 $445 reversed $107 $-1 #
coedge $-1 $441 $446 $171 $276 forward $447 $-1 #
edge $-1 $448 39.137203419496942 $449 46.573346885430681 $275 $450 forward 7 unknown #
loop $-1 $-1 $282 $172 #
plane-surface $-1 20.952293959306758 -46.945737590000888 1.8083330994064539 0 -0.85716730853699208 0.51503806187062418 1 0 0 forward_v I I I I #
loop $-1 $-1 $451 $109 #
coedge $-1 $280 $280 $281 $452 reversed $173 $-1 #
coedge $-1 $281 $281 $280 $452 forward $175 $-1 #
coedge $-1 $282 $282 $176 $283 forward $277 $-1 #
edge $-1 $453 -1.5357387824033732e-015 $453 6.2831853071795987 $282 $454 forward 7 unknown #
face $-1 $455 $456 $64 $-1 $457 forward single #
loop $-1 $-1 $458 $177 #
plane-surface $-1 -30.903165168348718 129.19594512055744 159.73011294098785 -1 0 0 0 0.87461971476443456 0.48480960649040278 forward_v I I I I #
coedge $-1 $459 $460 $461 $462 reversed $178 $-1 #
coedge $-1 $289 $180 $463 $464 reversed $113 $-1 #
coedge $-1 $180 $288 $459 $465 reversed $113 $-1 #
coedge $-1 $461 $466 $180 $291 forward $456 $-1 #
edge $-1 $467 17.652234970277803 $468 21.752610508438565 $290 $469 forward 7 unknown #
loop $-1 $-1 $297 $181 #
plane-surface $-1 -41.838397465096833 1.4262484551808257 88.906216204995545 0 0.87461971476443456 0.48480960649040278 1 0 0 forward_v I I I I #
loop $-1 $-1 $470 $115 #
coedge $-1 $295 $295 $296 $471 reversed $182 $-1 #
coedge $-1 $296 $296 $295 $471 forward $184 $-1 #
coedge $-1 $297 $297 $185 $298 forward $292 $-1 #
edge $-1 $472 8.10753796935743e-016 $472 6.2831853071796013 $297 $473 forward 7 unknown #
loop $-1 $-1 $304 $186 #
plane-surface $-1 -41.838397465096833 1.4262484551808257 88.906216204995545 0 0.87461971476443456 0.48480960649040278 1 0 0 forward_v I I I I #
loop $-1 $-1 $474 $118 #
coedge $-1 $302 $302 $303 $475 reversed $187 $-1 #
coedge $-1 $303 $303 $302 $475 forward $189 $-1 #
coedge $-1 $304 $304 $190 $305 forward $299 $-1 #
edge $-1 $476 8.10753796935743e-016 $476 6.2831853071796013 $304 $477 forward 7 unknown #
loop $-1 $-1 $311 $191 #
plane-surface $-1 -41.838397465096833 1.4262484551808257 88.906216204995545 0 0.87461971476443456 0.48480960649040278 1 0 0 forward_v I I I I #
loop $-1 $-1 $478 $121 #
coedge $-1 $309 $309 $310 $479 reversed $192 $-1 #
coedge $-1 $310 $310 $309 $479 forward $194 $-1 #
coedge $-1 $311 $311 $195 $312 forward $306 $-1 #
edge $-1 $480 8.10753796935743e-016 $480 6.2831853071796013 $311 $481 forward 7 unknown #
face $-1 $482 $483 $68 $-1 $484 forward single #
loop $-1 $-1 $485 $196 #
plane-surface $-1 3.0767451833422008 129.19594512055744 159.73011294098785 -1 0 0 0 0.87461971476443456 0.48480960649040278 forward_v I I I I #
coedge $-1 $486 $487 $488 $489 reversed $197 $-1 #
coedge $-1 $318 $199 $490 $491 reversed $125 $-1 #
coedge $-1 $199 $317 $486 $492 reversed $125 $-1 #
coedge $-1 $488 $493 $199 $320 forward $483 $-1 #
edge $-1 $494 17.652234970277803 $495 21.752610508438565 $319 $496 forward 7 unknown #
loop $-1 $-1 $326 $200 #
plane-surface $-1 -7.8584871134059142 1.4262484551808257 88.906216204995545 0 0.87461971476443456 0.48480960649040278 1 0 0 forward_v I I I I #
loop $-1 $-1 $497 $127 #
coedge $-1 $324 $324 $325 $498 reversed $201 $-1 #
coedge $-1 $325 $325 $324 $498 forward $203 $-1 #
coedge $-1 $326 $326 $204 $327 forward $321 $-1 #
edge $-1 $499 8.10753796935743e-016 $499 6.2831853071796013 $326 $500 forward 7 unknown #
loop $-1 $-1 $333 $205 #
plane-surface $-1 -7.8584871134059142 1.4262484551808257 88.906216204995545 0 0.87461971476443456 0.48480960649040278 1 0 0 forward_v I I I I #
loop $-1 $-1 $501 $130 #
coedge $-1 $331 $331 $332 $502 reversed $206 $-1 #
coedge $-1 $332 $332 $331 $502 forward $208 $-1 #
coedge $-1 $333 $333 $209 $334 forward $328 $-1 #
edge $-1 $503 8.10753796935743e-016 $503 6.2831853071796013 $333 $504 forward 7 unknown #
loop $-1 $-1 $340 $210 #
plane-surface $-1 -7.8584871134059142 1.4262484551808257 88.906216204995545 0 0.87461971476443456 0.48480960649040278 1 0 0 forward_v I I I I #
loop $-1 $-1 $505 $133 #
coedge $-1 $338 $338 $339 $506 reversed $211 $-1 #
coedge $-1 $339 $339 $338 $506 forward $213 $-1 #
coedge $-1 $340 $340 $214 $341 forward $335 $-1 #
edge $-1 $507 8.10753796935743e-016 $507 6.2831853071796013 $340 $508 forward 7 unknown #
face $-1 $509 $510 $72 $-1 $511 forward single #
loop $-1 $-1 $512 $215 #
plane-surface $-1 37.056655535033116 129.19594512055744 159.73011294098785 -1 0 0 0 0.87461971476443456 0.48480960649040278 forward_v I I I I #
coedge $-1 $513 $514 $515 $516 reversed $216 $-1 #
coedge $-1 $347 $218 $517 $518 reversed $137 $-1 #
coedge $-1 $218 $346 $513 $519 reversed $137 $-1 #
coedge $-1 $515 $520 $218 $349 forward $510 $-1 #
edge $-1 $521 17.652234970277803 $522 21.752610508438565 $348 $523 forward 7 unknown #
loop $-1 $-1 $355 $219 #
plane-surface $-1 26.121423238285004 1.4262484551808257 88.906216204995545 0 0.87461971476443456 0.48480960649040278 1 0 0 forward_v I I I I #
loop $-1 $-1 $524 $139 #
coedge $-1 $353 $353 $354 $525 reversed $220 $-1 #
coedge $-1 $354 $354 $353 $525 forward $222 $-1 #
coedge $-1 $355 $355 $223 $356 forward $350 $-1 #
edge $-1 $526 8.10753796935743e-016 $526 6.2831853071796013 $355 $527 forward 7 unknown #
loop $-1 $-1 $362 $224 #
plane-surface $-1 26.121423238285004 1.4262484551808257 88.906216204995545 0 0.87461971476443456 0.48480960649040278 1 0 0 forward_v I I I I #
loop $-1 $-1 $528 $142 #
coedge $-1 $360 $360 $361 $529 reversed $225 $-1 #
coedge $-1 $361 $361 $360 $529 forward $227 $-1 #
coedge $-1 $362 $362 $228 $363 forward $357 $-1 #
edge $-1 $530 8.10753796935743e-016 $530 6.2831853071796013 $362 $531 forward 7 unknown #
loop $-1 $-1 $369 $229 #
plane-surface $-1 26.121423238285004 1.4262484551808257 88.906216204995545 0 0.87461971476443456 0.48480960649040278 1 0 0 forward_v I I I I #
loop $-1 $-1 $532 $145 #
coedge $-1 $367 $367 $368 $533 reversed $230 $-1 #
coedge $-1 $368 $368 $367 $533 forward $232 $-1 #
coedge $-1 $369 $369 $233 $370 forward $364 $-1 #
edge $-1 $534 8.10753796935743e-016 $534 6.2831853071796013 $369 $535 forward 7 unknown #
face $-1 $536 $537 $76 $-1 $538 forward single #
loop $-1 $-1 $539 $234 #
plane-surface $-1 71.036565886724034 129.19594512055744 159.73011294098785 -1 0 0 0 0.87461971476443456 0.48480960649040278 forward_v I I I I #
coedge $-1 $540 $541 $542 $543 reversed $235 $-1 #
coedge $-1 $376 $237 $544 $545 reversed $149 $-1 #
coedge $-1 $237 $375 $540 $546 reversed $149 $-1 #
coedge $-1 $542 $547 $237 $378 forward $537 $-1 #
edge $-1 $548 17.652234970277803 $549 21.752610508438565 $377 $550 forward 7 unknown #
loop $-1 $-1 $384 $238 #
plane-surface $-1 60.101333589975923 1.4262484551808257 88.906216204995545 0 0.87461971476443456 0.48480960649040278 1 0 0 forward_v I I I I #
loop $-1 $-1 $551 $151 #
coedge $-1 $382 $382 $383 $552 reversed $239 $-1 #
coedge $-1 $383 $383 $382 $552 forward $241 $-1 #
coedge $-1 $384 $384 $242 $385 forward $379 $-1 #
edge $-1 $553 8.10753796935743e-016 $553 6.2831853071796013 $384 $554 forward 7 unknown #
loop $-1 $-1 $391 $243 #
plane-surface $-1 60.101333589975923 1.4262484551808257 88.906216204995545 0 0.87461971476443456 0.48480960649040278 1 0 0 forward_v I I I I #
loop $-1 $-1 $555 $154 #
coedge $-1 $389 $389 $390 $556 reversed $244 $-1 #
coedge $-1 $390 $390 $389 $556 forward $246 $-1 #
coedge $-1 $391 $391 $247 $392 forward $386 $-1 #
edge $-1 $557 8.10753796935743e-016 $557 6.2831853071796013 $391 $558 forward 7 unknown #
loop $-1 $-1 $398 $248 #
plane-surface $-1 60.101333589975923 1.4262484551808257 88.906216204995545 0 0.87461971476443456 0.48480960649040278 1 0 0 forward_v I I I I #
loop $-1 $-1 $559 $157 #
coedge $-1 $396 $396 $397 $560 reversed $249 $-1 #
coedge $-1 $397 $397 $396 $560 forward $251 $-1 #
coedge $-1 $398 $398 $252 $399 forward $393 $-1 #
edge $-1 $561 8.10753796935743e-016 $561 6.2831853071796013 $398 $562 forward 7 unknown #
face $-1 $563 $564 $60 $-1 $565 reversed single #
loop $-1 $-1 $566 $253 #
plane-surface $-1 -73.043000579851679 0 0 1 0 0 0 0 -1 forward_v I I I I #
coedge $-1 $567 $411 $568 $569 forward $254 $-1 #
coedge $-1 $570 $256 $567 $571 forward $161 $-1 #
coedge $-1 $256 $570 $572 $573 forward $161 $-1 #
coedge $-1 $414 $413 $256 $407 reversed $415 $-1 #
edge $-1 $574 -46.945737590000917 $575 46.945737590000917 $406 $576 forward 7 unknown #
coedge $-1 $258 $257 $577 $578 forward $101 $-1 #
coedge $-1 $579 $580 $257 $410 reversed $564 $-1 #
edge $-1 $417 -73.043000579851679 $581 73.043000579851679 $409 $582 forward 7 unknown #
coedge $-1 $403 $583 $258 $412 reversed $254 $-1 #
edge $-1 $584 -73.043000579851679 $416 73.043000579851679 $411 $585 forward 7 unknown #
coedge $-1 $406 $259 $583 $586 forward $415 $-1 #
coedge $-1 $259 $406 $579 $587 reversed $415 $-1 #
loop $-1 $-1 $413 $563 #
vertex $-1 $260 $588 #
vertex $-1 $260 $589 #
straight-curve $-1 73.043000579851679 0 14.184154524018894 0 1 0 I I #
face $-1 $590 $591 $61 $-1 $592 forward single #
loop $-1 $-1 $593 $261 #
plane-surface $-1 -73.043000579851679 0 0 1 0 0 0 0 -1 forward_v I I I I #
coedge $-1 $429 $594 $431 $595 forward $262 $-1 #
coedge $-1 $264 $431 $596 $597 reversed $165 $-1 #
coedge $-1 $598 $427 $264 $425 forward $599 $-1 #
edge $-1 $433 3.8793123688520126 $600 8.1629988930619248 $424 $601 forward 7 unknown #
coedge $-1 $266 $265 $593 $602 reversed $104 $-1 #
coedge $-1 $424 $603 $265 $428 forward $599 $-1 #
edge $-1 $604 -39.06309022816076 $433 -28.896730475221084 $427 $605 forward 7 unknown #
coedge $-1 $606 $422 $266 $430 forward $262 $-1 #
edge $-1 $432 28.896730475221084 $607 39.06309022816076 $429 $608 forward 7 unknown #
coedge $-1 $423 $267 $422 $595 reversed $165 $-1 #
vertex $-1 $430 $609 #
vertex $-1 $428 $610 #
straight-curve $-1 -62.876640826912002 0 9.9004679998089813 0 -1 0 I I #
face $-1 $-1 $447 $62 $-1 $611 forward single #
loop $-1 $-1 $612 $269 #
plane-surface $-1 0 -46.945737590000917 0 0 1 0 0 0 1 forward_v I I I I #
coedge $-1 $613 $614 $615 $616 reversed $270 $-1 #
coedge $-1 $617 $272 $274 $445 forward $169 $-1 #
coedge $-1 $272 $617 $613 $618 forward $169 $-1 #
coedge $-1 $615 $275 $272 $442 forward $447 $-1 #
edge $-1 $449 -29.126054012548664 $619 8.1737600532419066 $441 $620 forward 7 unknown #
coedge $-1 $621 $622 $273 $444 forward $436 $-1 #
edge $-1 $623 -36.715758902158512 $448 -24.339937477546023 $443 $624 forward 7 unknown #
edge $-1 $449 -14.438046459955896 $623 5.5178419308758838e-014 $274 $625 forward 7 unknown #
coedge $-1 $275 $615 $621 $626 forward $447 $-1 #
loop $-1 $-1 $615 $435 #
vertex $-1 $444 $627 #
vertex $-1 $276 $628 #
straight-curve $-1 39.602200992202043 -86.082941009497858 14.184154524018894 0 1 0 I I #
coedge $-1 $451 $451 $-1 $629 reversed $279 $-1 #
edge $-1 $630 0 $630 6.2831853071796004 $280 $631 forward 7 unknown #
vertex $-1 $283 $632 #
ellipse-curve $-1 20.952293959306758 -43.227665857034033 7.9962438117126702 0 -0.85716730853699208 0.51503806187062418 2 0 0 1 I I #
face $-1 $-1 $633 $64 $-1 $634 reversed single #
loop $-1 $-1 $290 $284 #
plane-surface $-1 0 0 14.184154524018894 0 0 1 1 0 0 forward_v I I I I #
coedge $-1 $635 $636 $637 $638 reversed $285 $-1 #
coedge $-1 $639 $287 $289 $465 forward $178 $-1 #
coedge $-1 $287 $639 $635 $640 forward $178 $-1 #
coedge $-1 $637 $290 $287 $462 forward $456 $-1 #
edge $-1 $468 -31.854431029296528 $641 -9.9839664358003013 $461 $642 forward 7 unknown #
coedge $-1 $643 $644 $288 $464 forward $633 $-1 #
edge $-1 $645 -73.078175506243554 $467 -65.680901946475032 $463 $646 forward 7 unknown #
edge $-1 $468 85.433772438003984 $645 93.891475180001805 $289 $647 forward 7 unknown #
coedge $-1 $290 $637 $643 $648 forward $456 $-1 #
vertex $-1 $464 $649 #
vertex $-1 $291 $650 #
straight-curve $-1 -52.773629761844944 64.59797256027872 14.184154524018894 0 -1 0 I I #
coedge $-1 $470 $470 $-1 $651 reversed $294 $-1 #
edge $-1 $652 0 $652 6.2831853071796004 $295 $653 forward 7 unknown #
vertex $-1 $298 $654 #
ellipse-curve $-1 -48.399536843145704 44.895549820920536 10.48551774413464 0 0.87461971476443456 0.48480960649040278 1.5 0 0 1 I I #
coedge $-1 $474 $474 $-1 $655 reversed $301 $-1 #
edge $-1 $656 0 $656 6.2831853071796004 $302 $657 forward 7 unknown #
vertex $-1 $305 $658 #
ellipse-curve $-1 -41.838397465096833 44.895549820920536 10.48551774413464 0 0.87461971476443456 0.48480960649040278 1.5 0 0 1 I I #
coedge $-1 $478 $478 $-1 $659 reversed $308 $-1 #
edge $-1 $660 0 $660 6.2831853071796004 $309 $661 forward 7 unknown #
vertex $-1 $312 $662 #
ellipse-curve $-1 -35.277258087047962 44.895549820920536 10.48551774413464 0 0.87461971476443456 0.48480960649040278 1.5 0 0 1 I I #
face $-1 $-1 $663 $68 $-1 $664 reversed single #
loop $-1 $-1 $319 $313 #
plane-surface $-1 0 0 14.184154524018894 0 0 1 1 0 0 forward_v I I I I #
coedge $-1 $665 $666 $667 $668 reversed $314 $-1 #
coedge $-1 $669 $316 $318 $492 forward $197 $-1 #
coedge $-1 $316 $669 $665 $670 forward $197 $-1 #
coedge $-1 $667 $319 $316 $489 forward $483 $-1 #
edge $-1 $495 -14.864475853451072 $671 7.0059887400451579 $488 $672 forward 7 unknown #
coedge $-1 $673 $674 $317 $491 forward $663 $-1 #
edge $-1 $675 -73.078175506243554 $494 -65.680901946475032 $490 $676 forward 7 unknown #
edge $-1 $495 85.433772438003984 $675 93.891475180001805 $318 $677 forward 7 unknown #
coedge $-1 $319 $667 $673 $678 forward $483 $-1 #
vertex $-1 $320 $679 #
vertex $-1 $320 $680 #
straight-curve $-1 -18.793719410154029 64.59797256027872 14.184154524018894 0 -1 0 I I #
coedge $-1 $497 $497 $-1 $681 reversed $323 $-1 #
edge $-1 $682 0 $682 6.2831853071796004 $324 $683 forward 7 unknown #
vertex $-1 $327 $684 #
ellipse-curve $-1 -14.419626491454785 44.895549820920536 10.48551774413464 0 0.87461971476443456 0.48480960649040278 1.5 0 0 1 I I #
coedge $-1 $501 $501 $-1 $685 reversed $330 $-1 #
edge $-1 $686 0 $686 6.2831853071796004 $331 $687 forward 7 unknown #
vertex $-1 $334 $688 #
ellipse-curve $-1 -7.8584871134059142 44.895549820920536 10.48551774413464 0 0.87461971476443456 0.48480960649040278 1.5 0 0 1 I I #
coedge $-1 $505 $505 $-1 $689 reversed $337 $-1 #
edge $-1 $690 0 $690 6.2831853071796004 $338 $691 forward 7 unknown #
vertex $-1 $341 $692 #
ellipse-curve $-1 -1.2973477353570502 44.895549820920536 10.48551774413464 0 0.87461971476443456 0.48480960649040278 1.5 0 0 1 I I #
face $-1 $-1 $693 $72 $-1 $694 reversed single #
loop $-1 $-1 $348 $342 #
plane-surface $-1 0 0 14.184154524018894 0 0 1 1 0 0 forward_v I I I I #
coedge $-1 $695 $696 $697 $698 reversed $343 $-1 #
coedge $-1 $699 $345 $347 $519 forward $216 $-1 #
coedge $-1 $345 $699 $695 $700 forward $216 $-1 #
coedge $-1 $697 $348 $345 $516 forward $510 $-1 #
edge $-1 $522 2.1254793223943871 $701 23.995943915890614 $515 $702 forward 7 unknown #
coedge $-1 $703 $704 $346 $518 forward $693 $-1 #
edge $-1 $705 -73.078175506243554 $521 -65.680901946475032 $517 $706 forward 7 unknown #
edge $-1 $522 85.433772438003984 $705 93.891475180001805 $347 $707 forward 7 unknown #
coedge $-1 $348 $697 $703 $708 forward $510 $-1 #
vertex $-1 $349 $709 #
vertex $-1 $349 $710 #
straight-curve $-1 15.186190941536889 64.59797256027872 14.184154524018894 0 -1 0 I I #
coedge $-1 $524 $524 $-1 $711 reversed $352 $-1 #
edge $-1 $712 0 $712 6.2831853071796004 $353 $713 forward 7 unknown #
vertex $-1 $356 $714 #
ellipse-curve $-1 19.560283860236126 44.895549820920536 10.48551774413464 0 0.87461971476443456 0.48480960649040278 1.5 0 0 1 I I #
coedge $-1 $528 $528 $-1 $715 reversed $359 $-1 #
edge $-1 $716 0 $716 6.2831853071796004 $360 $717 forward 7 unknown #
vertex $-1 $363 $718 #
ellipse-curve $-1 26.121423238285004 44.895549820920536 10.48551774413464 0 0.87461971476443456 0.48480960649040278 1.5 0 0 1 I I #
coedge $-1 $532 $532 $-1 $719 reversed $366 $-1 #
edge $-1 $720 0 $720 6.2831853071796004 $367 $721 forward 7 unknown #
vertex $-1 $370 $722 #
ellipse-curve $-1 32.682562616333868 44.895549820920536 10.48551774413464 0 0.87461971476443456 0.48480960649040278 1.5 0 0 1 I I #
face $-1 $-1 $723 $76 $-1 $724 reversed single #
loop $-1 $-1 $377 $371 #
plane-surface $-1 0 0 14.184154524018894 0 0 1 1 0 0 forward_v I I I I #
coedge $-1 $725 $726 $727 $728 reversed $372 $-1 #
coedge $-1 $729 $374 $376 $546 forward $235 $-1 #
coedge $-1 $374 $729 $725 $730 forward $235 $-1 #
coedge $-1 $727 $377 $374 $543 forward $537 $-1 #
edge $-1 $549 19.11543449823985 $731 40.985899091736073 $542 $732 forward 7 unknown #
coedge $-1 $733 $734 $375 $545 forward $723 $-1 #
edge $-1 $735 -73.078175506243554 $548 -65.680901946475032 $544 $736 forward 7 unknown #
edge $-1 $549 85.433772438003984 $735 93.891475180001805 $376 $737 forward 7 unknown #
coedge $-1 $377 $727 $733 $738 forward $537 $-1 #
vertex $-1 $378 $739 #
vertex $-1 $378 $740 #
straight-curve $-1 49.166101293227811 64.59797256027872 14.184154524018894 0 -1 0 I I #
coedge $-1 $551 $551 $-1 $741 reversed $381 $-1 #
edge $-1 $742 0 $742 6.2831853071796004 $382 $743 forward 7 unknown #
vertex $-1 $385 $744 #
ellipse-curve $-1 53.540194211927044 44.895549820920536 10.48551774413464 0 0.87461971476443456 0.48480960649040278 1.5 0 0 1 I I #
coedge $-1 $555 $555 $-1 $745 reversed $388 $-1 #
edge $-1 $746 0 $746 6.2831853071796004 $389 $747 forward 7 unknown #
vertex $-1 $392 $748 #
ellipse-curve $-1 60.101333589975923 44.895549820920536 10.48551774413464 0 0.87461971476443456 0.48480960649040278 1.5 0 0 1 I I #
coedge $-1 $559 $559 $-1 $749 reversed $395 $-1 #
edge $-1 $750 0 $750 6.2831853071796004 $396 $751 forward 7 unknown #
vertex $-1 $399 $752 #
ellipse-curve $-1 66.662472968024787 44.895549820920536 10.48551774413464 0 0.87461971476443456 0.48480960649040278 1.5 0 0 1 I I #
face $-1 $-1 $415 $60 $-1 $753 reversed single #
loop $-1 $-1 $579 $400 #
plane-surface $-1 0 46.945737590000917 0 0 -1 0 0 0 -1 forward_v I I I I #
coedge $-1 $754 $577 $580 $755 forward $401 $-1 #
coedge $-1 $583 $403 $404 $571 reversed $254 $-1 #
coedge $-1 $577 $754 $403 $569 reversed $401 $-1 #
edge $-1 $584 -14.184154524018894 $756 14.184154524018894 $568 $757 forward 7 unknown #
coedge $-1 $405 $404 $754 $758 forward $161 $-1 #
edge $-1 $575 -73.043000579851679 $756 73.043000579851679 $567 $759 forward 7 unknown #
coedge $-1 $580 $579 $405 $573 reversed $564 $-1 #
edge $-1 $760 -73.043000579851679 $574 73.043000579851679 $572 $761 forward 7 unknown #
vertex $-1 $407 $762 #
vertex $-1 $586 $763 #
straight-curve $-1 73.043000579851679 0 -14.184154524018894 0 -1 0 I I #
coedge $-1 $566 $568 $408 $578 reversed $401 $-1 #
edge $-1 $581 -46.945737590000917 $584 46.945737590000917 $577 $764 forward 7 unknown #
coedge $-1 $572 $409 $414 $587 forward $564 $-1 #
coedge $-1 $409 $572 $566 $755 reversed $564 $-1 #
vertex $-1 $410 $765 #
straight-curve $-1 0 46.945737590000917 14.184154524018894 -1 0 0 I I #
coedge $-1 $411 $567 $413 $586 reversed $254 $-1 #
vertex $-1 $578 $766 #
straight-curve $-1 0 -46.945737590000917 14.184154524018894 1 0 0 I I #
edge $-1 $416 -14.184154524018894 $575 14.184154524018894 $413 $767 forward 7 unknown #
edge $-1 $417 -14.184154524018894 $574 14.184154524018894 $414 $768 forward 7 unknown #
point $-1 73.043000579851679 -46.945737590000917 14.184154524018894 #
point $-1 73.043000579851679 46.945737590000917 14.184154524018894 #
face $-1 $-1 $599 $61 $-1 $769 reversed single #
loop $-1 $-1 $596 $419 #
plane-surface $-1 0 0 14.184154524018894 0 0 1 1 0 0 forward_v I I I I #
coedge $-1 $770 $771 $426 $602 forward $420 $-1 #
coedge $-1 $422 $606 $772 $773 reversed $262 $-1 #
edge $-1 $774 -8.1629988930619248 $432 -3.8793123688520126 $422 $775 forward 7 unknown #
coedge $-1 $772 $776 $423 $597 forward $591 $-1 #
edge $-1 $600 -46.945737590000917 $774 46.945737590000917 $596 $777 forward 7 unknown #
coedge $-1 $603 $424 $776 $778 reversed $599 $-1 #
loop $-1 $-1 $424 $590 #
vertex $-1 $425 $779 #
straight-curve $-1 -62.876640826912002 -46.945737590000917 6.0211556309569687 0 0 1 I I #
edge $-1 $607 -46.945737590000917 $604 46.945737590000917 $593 $780 forward 7 unknown #
coedge $-1 $427 $598 $770 $781 forward $599 $-1 #
vertex $-1 $602 $782 #
straight-curve $-1 -33.979910351690918 -46.945737590000917 9.9004679998089813 1 0 0 I I #
coedge $-1 $594 $429 $771 $783 reversed $262 $-1 #
vertex $-1 $602 $784 #
straight-curve $-1 -33.979910351690918 46.945737590000917 9.9004679998089813 -1 0 0 I I #
point $-1 -62.876640826912002 46.945737590000917 9.9004679998089813 #
point $-1 -62.876640826912002 -46.945737590000917 9.9004679998089813 #
plane-surface $-1 0 0 14.184154524018894 0 0 1 1 0 0 forward_v I I I I #
coedge $-1 $622 $621 $614 $785 forward $436 $-1 #
coedge $-1 $614 $438 $440 $618 reversed $270 $-1 #
coedge $-1 $438 $613 $612 $785 reversed $270 $-1 #
coedge $-1 $446 $441 $438 $616 forward $447 $-1 #
edge $-1 $619 -46.573346885430681 $786 -39.137203419496942 $615 $787 forward 7 unknown #
coedge $-1 $440 $439 $622 $788 reversed $169 $-1 #
edge $-1 $789 -5.5178419308758838e-014 $619 14.438046459955896 $613 $790 forward 7 unknown #
vertex $-1 $442 $791 #
straight-curve $-1 10.476146979653379 -39.509594124067178 14.184154524018894 -1 0 0 I I #
coedge $-1 $612 $443 $446 $626 reversed $436 $-1 #
coedge $-1 $443 $612 $617 $788 forward $436 $-1 #
vertex $-1 $444 $792 #
straight-curve $-1 39.602200992202043 -46.945737590000917 38.524092001564917 0 0 1 I I #
straight-curve $-1 39.602200992202043 -46.945737590000888 1.8083330994064539 0 -0.51503806187062418 -0.85716730853699208 I I #
edge $-1 $786 2.3023869264114722 $448 39.602200992202043 $621 $793 forward 7 unknown #
point $-1 39.602200992202043 -46.945737590000917 14.184154524018894 #
point $-1 39.602200992202043 -39.509594124067178 14.184154524018894 #
edge $-1 $794 1 $794 0 $451 $-1 forward 7 unknown #
vertex $-1 $452 $795 #
ellipse-curve $-1 20.952293959306758 -39.731557512762855 5.8955700601711536 0 -0.85716730853699208 0.51503806187062418 2 0 0 1 I I #
point $-1 22.952293959306758 -43.227665857034069 7.9962438117126879 #
loop $-1 $-1 $463 $455 #
plane-surface $-1 0 46.945737590000917 0 0 -1 0 0 0 -1 forward_v I I I I #
coedge $-1 $636 $458 $460 $640 reversed $285 $-1 #
coedge $-1 $458 $635 $796 $797 reversed $285 $-1 #
coedge $-1 $466 $461 $458 $638 forward $456 $-1 #
edge $-1 $641 -21.752610508438565 $798 -17.652234970277803 $637 $799 forward 7 unknown #
coedge $-1 $460 $459 $644 $800 reversed $178 $-1 #
edge $-1 $801 -93.891475180001805 $641 -85.433772438003984 $635 $802 forward 7 unknown #
vertex $-1 $462 $803 #
straight-curve $-1 -20.919198732548416 42.845362051840155 14.184154524018901 1 0 0 I I #
coedge $-1 $796 $463 $466 $648 reversed $633 $-1 #
coedge $-1 $463 $796 $639 $800 forward $633 $-1 #
vertex $-1 $464 $804 #
straight-curve $-1 -52.773629761844944 46.945737590000917 79.865056470493926 0 0 1 I I #
straight-curve $-1 -52.773629761844944 1.4262484551808257 88.906216204995545 0 0.48480960649040278 -0.87461971476443456 I I #
edge $-1 $798 30.903165168348718 $467 52.773629761844944 $643 $805 forward 7 unknown #
point $-1 -52.773629761844944 46.945737590000917 14.184154524018894 #
point $-1 -52.773629761844944 42.845362051840155 14.184154524018894 #
edge $-1 $806 1 $806 0 $470 $-1 forward 7 unknown #
vertex $-1 $471 $807 #
ellipse-curve $-1 -48.399536843145704 43.480441974674264 9.701110685273731 0 0.87461971476443456 0.48480960649040278 1.5 0 0 1 I I #
point $-1 -46.899536843145704 44.895549820920529 10.485517744134635 #
edge $-1 $808 1 $808 0 $474 $-1 forward 7 unknown #
vertex $-1 $475 $809 #
ellipse-curve $-1 -41.838397465096833 43.480441974674264 9.701110685273731 0 0.87461971476443456 0.48480960649040278 1.5 0 0 1 I I #
point $-1 -40.338397465096833 44.895549820920529 10.485517744134635 #
edge $-1 $810 1 $810 0 $478 $-1 forward 7 unknown #
vertex $-1 $479 $811 #
ellipse-curve $-1 -35.277258087047962 43.480441974674264 9.701110685273731 0 0.87461971476443456 0.48480960649040278 1.5 0 0 1 I I #
point $-1 -33.777258087047962 44.895549820920529 10.485517744134635 #
loop $-1 $-1 $490 $482 #
plane-surface $-1 0 46.945737590000917 0 0 -1 0 0 0 -1 forward_v I I I I #
coedge $-1 $666 $485 $487 $670 reversed $314 $-1 #
coedge $-1 $485 $665 $812 $813 reversed $314 $-1 #
coedge $-1 $493 $488 $485 $668 forward $483 $-1 #
edge $-1 $671 -21.752610508438565 $814 -17.652234970277803 $667 $815 forward 7 unknown #
coedge $-1 $487 $486 $674 $816 reversed $197 $-1 #
edge $-1 $817 -93.891475180001805 $671 -85.433772438003984 $665 $818 forward 7 unknown #
vertex $-1 $489 $819 #
straight-curve $-1 -3.9292435567029571 42.845362051840155 14.184154524018901 1 0 0 I I #
coedge $-1 $812 $490 $493 $678 reversed $663 $-1 #
coedge $-1 $490 $812 $669 $816 forward $663 $-1 #
vertex $-1 $491 $820 #
straight-curve $-1 -18.793719410154029 46.945737590000917 79.865056470493926 0 0 1 I I #
straight-curve $-1 -18.793719410154029 1.4262484551808257 88.906216204995545 0 0.48480960649040278 -0.87461971476443456 I I #
edge $-1 $814 -3.0767451833422008 $494 18.793719410154029 $673 $821 forward 7 unknown #
point $-1 -18.793719410154029 46.945737590000917 14.184154524018894 #
point $-1 -18.793719410154029 42.845362051840155 14.184154524018894 #
edge $-1 $822 1 $822 0 $497 $-1 forward 7 unknown #
vertex $-1 $498 $823 #
ellipse-curve $-1 -14.419626491454785 43.480441974674264 9.701110685273731 0 0.87461971476443456 0.48480960649040278 1.5 0 0 1 I I #
point $-1 -12.919626491454785 44.895549820920529 10.485517744134635 #
edge $-1 $824 1 $824 0 $501 $-1 forward 7 unknown #
vertex $-1 $502 $825 #
ellipse-curve $-1 -7.8584871134059142 43.480441974674264 9.701110685273731 0 0.87461971476443456 0.48480960649040278 1.5 0 0 1 I I #
point $-1 -6.3584871134059142 44.895549820920529 10.485517744134635 #
edge $-1 $826 1 $826 0 $505 $-1 forward 7 unknown #
vertex $-1 $506 $827 #
ellipse-curve $-1 -1.2973477353570502 43.480441974674264 9.701110685273731 0 0.87461971476443456 0.48480960649040278 1.5 0 0 1 I I #
point $-1 0.20265226464294983 44.895549820920529 10.485517744134635 #
loop $-1 $-1 $517 $509 #
plane-surface $-1 0 46.945737590000917 0 0 -1 0 0 0 -1 forward_v I I I I #
coedge $-1 $696 $512 $514 $700 reversed $343 $-1 #
coedge $-1 $512 $695 $828 $829 reversed $343 $-1 #
coedge $-1 $520 $515 $512 $698 forward $510 $-1 #
edge $-1 $701 -21.752610508438565 $830 -17.652234970277803 $697 $831 forward 7 unknown #
coedge $-1 $514 $513 $704 $832 reversed $216 $-1 #
edge $-1 $833 -93.891475180001805 $701 -85.433772438003984 $695 $834 forward 7 unknown #
vertex $-1 $516 $835 #
straight-curve $-1 13.060711619142502 42.845362051840155 14.184154524018901 1 0 0 I I #
coedge $-1 $828 $517 $520 $708 reversed $693 $-1 #
coedge $-1 $517 $828 $699 $832 forward $693 $-1 #
vertex $-1 $518 $836 #
straight-curve $-1 15.186190941536889 46.945737590000917 79.865056470493926 0 0 1 I I #
straight-curve $-1 15.186190941536889 1.4262484551808257 88.906216204995545 0 0.48480960649040278 -0.87461971476443456 I I #
edge $-1 $830 -37.056655535033116 $521 -15.186190941536889 $703 $837 forward 7 unknown #
point $-1 15.186190941536889 46.945737590000917 14.184154524018894 #
point $-1 15.186190941536889 42.845362051840155 14.184154524018894 #
edge $-1 $838 1 $838 0 $524 $-1 forward 7 unknown #
vertex $-1 $525 $839 #
ellipse-curve $-1 19.560283860236126 43.480441974674264 9.701110685273731 0 0.87461971476443456 0.48480960649040278 1.5 0 0 1 I I #
point $-1 21.060283860236126 44.895549820920529 10.485517744134635 #
edge $-1 $840 1 $840 0 $528 $-1 forward 7 unknown #
vertex $-1 $529 $841 #
ellipse-curve $-1 26.121423238285004 43.480441974674264 9.701110685273731 0 0.87461971476443456 0.48480960649040278 1.5 0 0 1 I I #
point $-1 27.621423238285004 44.895549820920529 10.485517744134635 #
edge $-1 $842 1 $842 0 $532 $-1 forward 7 unknown #
vertex $-1 $533 $843 #
ellipse-curve $-1 32.682562616333868 43.480441974674264 9.701110685273731 0 0.87461971476443456 0.48480960649040278 1.5 0 0 1 I I #
point $-1 34.182562616333868 44.895549820920529 10.485517744134635 #
loop $-1 $-1 $544 $536 #
plane-surface $-1 0 46.945737590000917 0 0 -1 0 0 0 -1 forward_v I I I I #
coedge $-1 $726 $539 $541 $730 reversed $372 $-1 #
coedge $-1 $539 $725 $844 $845 reversed $372 $-1 #
coedge $-1 $547 $542 $539 $728 forward $537 $-1 #
edge $-1 $731 -21.752610508438565 $846 -17.652234970277803 $727 $847 forward 7 unknown #
coedge $-1 $541 $540 $734 $848 reversed $235 $-1 #
edge $-1 $849 -93.891475180001805 $731 -85.433772438003984 $725 $850 forward 7 unknown #
vertex $-1 $543 $851 #
straight-curve $-1 30.050666794987961 42.845362051840155 14.184154524018901 1 0 0 I I #
coedge $-1 $844 $544 $547 $738 reversed $723 $-1 #
coedge $-1 $544 $844 $729 $848 forward $723 $-1 #
vertex $-1 $545 $852 #
straight-curve $-1 49.166101293227811 46.945737590000917 79.865056470493926 0 0 1 I I #
straight-curve $-1 49.166101293227811 1.4262484551808257 88.906216204995545 0 0.48480960649040278 -0.87461971476443456 I I #
edge $-1 $846 -71.036565886724034 $548 -49.166101293227811 $733 $853 forward 7 unknown #
point $-1 49.166101293227811 46.945737590000917 14.184154524018894 #
point $-1 49.166101293227811 42.845362051840155 14.184154524018894 #
edge $-1 $854 1 $854 0 $551 $-1 forward 7 unknown #
vertex $-1 $552 $855 #
ellipse-curve $-1 53.540194211927044 43.480441974674264 9.701110685273731 0 0.87461971476443456 0.48480960649040278 1.5 0 0 1 I I #
point $-1 55.040194211927044 44.895549820920529 10.485517744134635 #
edge $-1 $856 1 $856 0 $555 $-1 forward 7 unknown #
vertex $-1 $556 $857 #
ellipse-curve $-1 60.101333589975923 43.480441974674264 9.701110685273731 0 0.87461971476443456 0.48480960649040278 1.5 0 0 1 I I #
point $-1 61.601333589975923 44.895549820920529 10.485517744134635 #
edge $-1 $858 1 $858 0 $559 $-1 forward 7 unknown #
vertex $-1 $560 $859 #
ellipse-curve $-1 66.662472968024787 43.480441974674264 9.701110685273731 0 0.87461971476443456 0.48480960649040278 1.5 0 0 1 I I #
point $-1 68.162472968024787 44.895549820920529 10.485517744134635 #
plane-surface $-1 73.043000579851679 0 0 -1 0 0 0 0 1 forward_v I I I I #
coedge $-1 $568 $566 $570 $758 reversed $401 $-1 #
edge $-1 $581 -14.184154524018894 $760 14.184154524018894 $580 $860 forward 7 unknown #
vertex $-1 $758 $861 #
straight-curve $-1 -73.043000579851679 -46.945737590000917 0 0 0 -1 I I #
edge $-1 $756 -46.945737590000917 $760 46.945737590000917 $754 $862 forward 7 unknown #
straight-curve $-1 0 -46.945737590000917 -14.184154524018894 -1 0 0 I I #
vertex $-1 $573 $863 #
straight-curve $-1 0 46.945737590000917 -14.184154524018894 1 0 0 I I #
point $-1 73.043000579851679 46.945737590000917 -14.184154524018894 #
point $-1 73.043000579851679 -46.945737590000917 -14.184154524018894 #
straight-curve $-1 -73.043000579851679 0 14.184154524018894 0 -1 0 I I #
point $-1 -73.043000579851679 46.945737590000917 14.184154524018894 #
point $-1 -73.043000579851679 -46.945737590000917 14.184154524018894 #
straight-curve $-1 73.043000579851679 -46.945737590000917 0 0 0 -1 I I #
straight-curve $-1 73.043000579851679 46.945737590000917 0 0 0 -1 I I #
plane-surface $-1 0 -46.945737590000917 0 0 1 0 0 0 1 forward_v I I I I #
coedge $-1 $864 $593 $603 $781 reversed $420 $-1 #
coedge $-1 $593 $864 $606 $783 forward $420 $-1 #
coedge $-1 $865 $596 $594 $773 forward $591 $-1 #
edge $-1 $774 62.876640826912002 $866 73.043000579851679 $594 $867 forward 7 unknown #
vertex $-1 $773 $868 #
straight-curve $-1 -62.876640826912002 46.945737590000917 6.0211556309569687 0 0 -1 I I #
coedge $-1 $596 $865 $598 $778 forward $591 $-1 #
straight-curve $-1 -62.876640826912002 0 14.184154524018894 0 1 0 I I #
edge $-1 $869 -73.043000579851679 $600 -62.876640826912002 $598 $870 forward 7 unknown #
point $-1 -62.876640826912002 -46.945737590000917 14.184154524018894 #
straight-curve $-1 -73.043000579851679 0 9.9004679998089813 0 -1 0 I I #
edge $-1 $869 -14.184154524018894 $604 -9.9004679998089813 $770 $871 forward 7 unknown #
point $-1 -73.043000579851679 -46.945737590000917 9.9004679998089813 #
edge $-1 $866 -14.184154524018894 $607 -9.9004679998089813 $606 $872 forward 7 unknown #
point $-1 -73.043000579851679 46.945737590000917 9.9004679998089813 #
edge $-1 $786 24.339937477546023 $789 36.715758902158512 $612 $873 forward 7 unknown #
vertex $-1 $626 $874 #
straight-curve $-1 2.3023869264114722 -86.082941009497858 14.184154524018894 0 -1 0 I I #
edge $-1 $789 -8.1737600532419066 $623 29.126054012548664 $622 $875 forward 7 unknown #
vertex $-1 $788 $876 #
straight-curve $-1 2.3023869264114722 -46.945737590000888 1.8083330994064539 0 0.51503806187062418 0.85716730853699208 I I #
point $-1 2.3023869264114722 -39.509594124067178 14.184154524018894 #
point $-1 39.602200992202043 -46.945737590000917 1.8083330994064066 #
straight-curve $-1 0 -46.945737590000917 14.184154524018894 1 0 0 I I #
vertex $-1 $629 $877 #
point $-1 22.952293959306758 -39.731557512762855 5.8955700601711536 #
coedge $-1 $644 $643 $636 $797 forward $633 $-1 #
edge $-1 $798 65.680901946475032 $801 73.078175506243554 $796 $878 forward 7 unknown #
vertex $-1 $648 $879 #
straight-curve $-1 -30.903165168348718 64.59797256027872 14.184154524018894 0 1 0 I I #
edge $-1 $801 9.9839664358003013 $645 31.854431029296528 $644 $880 forward 7 unknown #
vertex $-1 $800 $881 #
straight-curve $-1 -30.903165168348718 1.4262484551808257 88.906216204995545 0 -0.48480960649040278 0.87461971476443456 I I #
point $-1 -30.903165168348718 42.845362051840155 14.184154524018894 #
point $-1 -52.773629761844944 46.945737590000917 6.786880964250372 #
straight-curve $-1 0 46.945737590000917 14.184154524018894 -1 0 0 I I #
vertex $-1 $651 $882 #
point $-1 -46.899536843145704 43.480441974674264 9.701110685273731 #
vertex $-1 $655 $883 #
point $-1 -40.338397465096833 43.480441974674264 9.701110685273731 #
vertex $-1 $659 $884 #
point $-1 -33.777258087047962 43.480441974674264 9.701110685273731 #
coedge $-1 $674 $673 $666 $813 forward $663 $-1 #
edge $-1 $814 65.680901946475032 $817 73.078175506243554 $812 $885 forward 7 unknown #
vertex $-1 $678 $886 #
straight-curve $-1 3.0767451833422008 64.59797256027872 14.184154524018894 0 1 0 I I #
edge $-1 $817 -7.0059887400451579 $675 14.864475853451072 $674 $887 forward 7 unknown #
vertex $-1 $816 $888 #
straight-curve $-1 3.0767451833422008 1.4262484551808257 88.906216204995545 0 -0.48480960649040278 0.87461971476443456 I I #
point $-1 3.0767451833422008 42.845362051840155 14.184154524018894 #
point $-1 -18.793719410154029 46.945737590000917 6.786880964250372 #
straight-curve $-1 0 46.945737590000917 14.184154524018894 -1 0 0 I I #
vertex $-1 $681 $889 #
point $-1 -12.919626491454785 43.480441974674264 9.701110685273731 #
vertex $-1 $685 $890 #
point $-1 -6.3584871134059142 43.480441974674264 9.701110685273731 #
vertex $-1 $689 $891 #
point $-1 0.20265226464294983 43.480441974674264 9.701110685273731 #
coedge $-1 $704 $703 $696 $829 forward $693 $-1 #
edge $-1 $830 65.680901946475032 $833 73.078175506243554 $828 $892 forward 7 unknown #
vertex $-1 $708 $893 #
straight-curve $-1 37.056655535033116 64.59797256027872 14.184154524018894 0 1 0 I I #
edge $-1 $833 -23.995943915890614 $705 -2.1254793223943871 $704 $894 forward 7 unknown #
vertex $-1 $832 $895 #
straight-curve $-1 37.056655535033116 1.4262484551808257 88.906216204995545 0 -0.48480960649040278 0.87461971476443456 I I #
point $-1 37.056655535033116 42.845362051840155 14.184154524018894 #
point $-1 15.186190941536889 46.945737590000917 6.786880964250372 #
straight-curve $-1 0 46.945737590000917 14.184154524018894 -1 0 0 I I #
vertex $-1 $711 $896 #
point $-1 21.060283860236126 43.480441974674264 9.701110685273731 #
vertex $-1 $715 $897 #
point $-1 27.621423238285004 43.480441974674264 9.701110685273731 #
vertex $-1 $719 $898 #
point $-1 34.182562616333868 43.480441974674264 9.701110685273731 #
coedge $-1 $734 $733 $726 $845 forward $723 $-1 #
edge $-1 $846 65.680901946475032 $849 73.078175506243554 $844 $899 forward 7 unknown #
vertex $-1 $738 $900 #
straight-curve $-1 71.036565886724034 64.59797256027872 14.184154524018894 0 1 0 I I #
edge $-1 $849 -40.985899091736073 $735 -19.11543449823985 $734 $901 forward 7 unknown #
vertex $-1 $848 $902 #
straight-curve $-1 71.036565886724034 1.4262484551808257 88.906216204995545 0 -0.48480960649040278 0.87461971476443456 I I #
point $-1 71.036565886724034 42.845362051840155 14.184154524018894 #
point $-1 49.166101293227811 46.945737590000917 6.786880964250372 #
straight-curve $-1 0 46.945737590000917 14.184154524018894 -1 0 0 I I #
vertex $-1 $741 $903 #
point $-1 55.040194211927044 43.480441974674264 9.701110685273731 #
vertex $-1 $745 $904 #
point $-1 61.601333589975923 43.480441974674264 9.701110685273731 #
vertex $-1 $749 $905 #
point $-1 68.162472968024787 43.480441974674264 9.701110685273731 #
straight-curve $-1 -73.043000579851679 46.945737590000917 0 0 0 -1 I I #
point $-1 -73.043000579851679 -46.945737590000917 -14.184154524018894 #
straight-curve $-1 -73.043000579851679 0 -14.184154524018894 0 1 0 I I #
point $-1 -73.043000579851679 46.945737590000917 -14.184154524018894 #
coedge $-1 $771 $770 $865 $906 reversed $420 $-1 #
coedge $-1 $776 $772 $864 $906 forward $591 $-1 #
vertex $-1 $773 $907 #
straight-curve $-1 0 46.945737590000917 14.184154524018894 -1 0 0 I I #
point $-1 -62.876640826912002 46.945737590000917 14.184154524018894 #
vertex $-1 $906 $908 #
straight-curve $-1 0 -46.945737590000917 14.184154524018894 1 0 0 I I #
straight-curve $-1 -73.043000579851679 -46.945737590000917 0 0 0 -1 I I #
straight-curve $-1 -73.043000579851679 46.945737590000917 0 0 0 -1 I I #
straight-curve $-1 2.3023869264114722 -46.945737590000917 38.524092001564917 0 0 -1 I I #
point $-1 2.3023869264114722 -46.945737590000917 14.184154524018894 #
straight-curve $-1 10.476146979653379 -46.945737590000917 1.8083330994064122 1 0 0 I I #
point $-1 2.3023869264114722 -46.945737590000917 1.8083330994064066 #
point $-1 20.952293959306758 -38.017222895688867 4.8654939364299059 #
straight-curve $-1 -30.903165168348718 46.945737590000917 79.865056470493926 0 0 -1 I I #
point $-1 -30.903165168348718 46.945737590000917 14.184154524018894 #
straight-curve $-1 -20.919198732548416 46.945737590000917 6.7868809642503862 -1 0 0 I I #
point $-1 -30.903165168348718 46.945737590000917 6.786880964250372 #
point $-1 -48.399536843145704 42.168512402527611 8.9738962755381255 #
point $-1 -41.838397465096833 42.168512402527611 8.9738962755381255 #
point $-1 -35.277258087047962 42.168512402527611 8.9738962755381255 #
straight-curve $-1 3.0767451833422008 46.945737590000917 79.865056470493926 0 0 -1 I I #
point $-1 3.0767451833422008 46.945737590000917 14.184154524018894 #
straight-curve $-1 -3.9292435567029571 46.945737590000917 6.7868809642503862 -1 0 0 I I #
point $-1 3.0767451833422008 46.945737590000917 6.786880964250372 #
point $-1 -14.419626491454785 42.168512402527611 8.9738962755381255 #
point $-1 -7.8584871134059142 42.168512402527611 8.9738962755381255 #
point $-1 -1.2973477353570502 42.168512402527611 8.9738962755381255 #
straight-curve $-1 37.056655535033116 46.945737590000917 79.865056470493926 0 0 -1 I I #
point $-1 37.056655535033116 46.945737590000917 14.184154524018894 #
straight-curve $-1 13.060711619142502 46.945737590000917 6.7868809642503862 -1 0 0 I I #
point $-1 37.056655535033116 46.945737590000917 6.786880964250372 #
point $-1 19.560283860236126 42.168512402527611 8.9738962755381255 #
point $-1 26.121423238285004 42.168512402527611 8.9738962755381255 #
point $-1 32.682562616333868 42.168512402527611 8.9738962755381255 #
straight-curve $-1 71.036565886724034 46.945737590000917 79.865056470493926 0 0 -1 I I #
point $-1 71.036565886724034 46.945737590000917 14.184154524018894 #
straight-curve $-1 30.050666794987961 46.945737590000917 6.7868809642503862 -1 0 0 I I #
point $-1 71.036565886724034 46.945737590000917 6.786880964250372 #
point $-1 53.540194211927044 42.168512402527611 8.9738962755381255 #
point $-1 60.101333589975923 42.168512402527611 8.9738962755381255 #
point $-1 66.662472968024787 42.168512402527611 8.9738962755381255 #
edge $-1 $866 -46.945737590000917 $869 46.945737590000917 $864 $909 forward 7 unknown #
point $-1 -73.043000579851679 46.945737590000917 14.184154524018894 #
point $-1 -73.043000579851679 -46.945737590000917 14.184154524018894 #
straight-curve $-1 -73.043000579851679 0 14.184154524018894 0 -1 0 I I #
End-of-ACIS-data 