500 0 5 0           
7 Unknown 11 ACIS 5.0 NT 24 Thu Mar 25 16:29:38 1999 
-1 9.9999999999999995e-007 1e-010 
body $-1 $5 $-1 $6 #
body $-1 $7 $-1 $8 #
body $-1 $9 $-1 $10 #
body $-1 $11 $-1 $12 #
body $-1 $13 $-1 $14 #
lump $-1 $-1 $15 $0 #
transform $-1 1 0 0 0 1 0 0 0 1 44.210333567308574 21.352969116373959 7.8755813153180299 1 rotate no_reflect no_shear #
lump $-1 $-1 $16 $1 #
transform $-1 1 0 0 0 1 0 0 0 1 44.210333567308574 21.352969116373959 7.8755813153180299 1 rotate no_reflect no_shear #
lump $-1 $-1 $17 $2 #
transform $-1 1 0 0 0 1 0 0 0 1 44.210333567308574 21.352969116373959 7.8755813153180299 1 rotate no_reflect no_shear #
lump $-1 $-1 $18 $3 #
transform $-1 1 0 0 0 1 0 0 0 1 44.210333567308574 21.352969116373959 7.8755813153180299 1 rotate no_reflect no_shear #
lump $-1 $-1 $19 $4 #
transform $-1 1 0 0 0 1 0 0 0 1 44.210333567308574 21.352969116373959 7.8755813153180299 1 rotate no_reflect no_shear #
shell $-1 $-1 $-1 $20 $-1 $5 #
shell $-1 $-1 $-1 $21 $-1 $7 #
shell $-1 $-1 $-1 $22 $-1 $9 #
shell $-1 $-1 $-1 $23 $-1 $11 #
shell $-1 $-1 $-1 $24 $-1 $13 #
face $-1 $25 $26 $15 $-1 $27 forward single #
face $-1 $28 $29 $16 $-1 $30 reversed single #
face $-1 $31 $32 $17 $-1 $33 forward single #
face $-1 $34 $35 $18 $-1 $36 forward single #
face $-1 $37 $38 $19 $-1 $39 forward single #
face $-1 $40 $41 $15 $-1 $42 reversed single #
loop $-1 $-1 $43 $20 #
plane-surface $-1 0 0 7.8755813153180299 0 0 1 1 0 0 forward_v I I I I #
face $-1 $44 $45 $16 $-1 $46 reversed single #
loop $-1 $-1 $47 $21 #
plane-surface $-1 74.461629803812826 12.990424585246474 125.44297964600854 0 -1 0 -0.85716730853699208 0 -0.51503806187062418 forward_v I I I I #
face $-1 $48 $49 $17 $-1 $50 forward single #
loop $-1 $51 $52 $22 #
cone-surface $-1 41.970155342172447 4.0115950801400686 5.32703830304159 -0.85716730853699208 0 -0.51503806187062418 0.51503806187062418 0 -0.85716730853699208 1 I I 0 1 1 forward I I I I #
face $-1 $53 $54 $18 $-1 $55 forward single #
loop $-1 $56 $57 $23 #
cone-surface $-1 41.970155342172447 7.3786561445549701 5.32703830304159 -0.85716730853699208 0 -0.51503806187062418 0.51503806187062418 0 -0.85716730853699208 1 I I 0 1 1 forward I I I I #
face $-1 $58 $59 $19 $-1 $60 forward single #
loop $-1 $61 $62 $24 #
cone-surface $-1 41.970155342172447 10.745717208969875 5.32703830304159 -0.85716730853699208 0 -0.51503806187062418 0.51503806187062418 0 -0.85716730853699208 1 I I 0 1 1 forward I I I I #
face $-1 $63 $64 $15 $-1 $65 reversed single #
loop $-1 $-1 $66 $25 #
plane-surface $-1 0 0 -7.8755813153180299 0 0 1 1 0 0 forward_v I I I I #
coedge $-1 $67 $68 $69 $70 forward $26 $-1 #
face $-1 $71 $72 $16 $-1 $73 reversed single #
loop $-1 $-1 $74 $28 #
plane-surface $-1 -1.3296754630122223 7.3786561445549701 79.902970615687735 0.85716730853699208 0 0.51503806187062418 0.51503806187062418 0 -0.85716730853699208 forward_v I I I I #
coedge $-1 $75 $76 $77 $78 reversed $29 $-1 #
face $-1 $-1 $79 $17 $-1 $80 forward single #
loop $-1 $81 $82 $31 #
cone-surface $-1 40.432187862589124 4.0115950801400686 4.4029342430575298 -0.85716730853699208 0 -0.51503806187062418 0.25751903093531209 0 -0.42858365426849604 1 I I -0.70710678118654746 0.70710678118654746 0.5 forward I I I I #
loop $-1 $-1 $83 $22 #
coedge $-1 $52 $52 $84 $85 reversed $32 $-1 #
face $-1 $-1 $86 $18 $-1 $87 forward single #
loop $-1 $88 $89 $34 #
cone-surface $-1 40.432187862589124 7.3786561445549701 4.4029342430575298 -0.85716730853699208 0 -0.51503806187062418 0.25751903093531209 0 -0.42858365426849604 1 I I -0.70710678118654746 0.70710678118654746 0.5 forward I I I I #
loop $-1 $-1 $90 $23 #
coedge $-1 $57 $57 $91 $92 reversed $35 $-1 #
face $-1 $-1 $93 $19 $-1 $94 forward single #
loop $-1 $95 $96 $37 #
cone-surface $-1 40.432187862589124 10.745717208969875 4.4029342430575298 -0.85716730853699208 0 -0.51503806187062418 0.25751903093531209 0 -0.42858365426849604 1 I I -0.70710678118654746 0.70710678118654746 0.5 forward I I I I #
loop $-1 $-1 $97 $24 #
coedge $-1 $62 $62 $98 $99 reversed $38 $-1 #
face $-1 $100 $101 $15 $-1 $102 reversed single #
loop $-1 $-1 $103 $40 #
plane-surface $-1 0 -21.352969116373959 0 0 1 0 0 0 1 forward_v I I I I #
coedge $-1 $104 $105 $106 $107 forward $41 $-1 #
coedge $-1 $108 $43 $109 $110 forward $26 $-1 #
coedge $-1 $43 $108 $111 $112 forward $26 $-1 #
coedge $-1 $113 $114 $43 $70 reversed $115 $-1 #
edge $-1 $116 -21.352969116373959 $117 21.352969116373959 $69 $118 forward 7 unknown #
face $-1 $119 $120 $16 $-1 $121 forward single #
loop $-1 $-1 $122 $44 #
plane-surface $-1 74.461629803812826 1.7668877038634658 125.44297964600854 0 1 0 0.85716730853699208 0 0.51503806187062418 forward_v I I I I #
coedge $-1 $123 $124 $125 $126 reversed $45 $-1 #
coedge $-1 $76 $47 $127 $128 reversed $29 $-1 #
coedge $-1 $47 $75 $123 $129 reversed $29 $-1 #
coedge $-1 $125 $130 $47 $78 forward $120 $-1 #
edge $-1 $131 -6.9795186654021606 $132 -4.7179298657595723 $77 $133 forward 7 unknown #
loop $-1 $-1 $84 $48 #
plane-surface $-1 -1.3296754630122223 7.3786561445549701 79.902970615687735 0.85716730853699208 0 0.51503806187062418 0.51503806187062418 0 -0.85716730853699208 forward_v I I I I #
loop $-1 $-1 $134 $31 #
coedge $-1 $82 $82 $83 $135 reversed $49 $-1 #
coedge $-1 $83 $83 $82 $135 forward $51 $-1 #
coedge $-1 $84 $84 $52 $85 forward $79 $-1 #
edge $-1 $136 0 $136 6.2831853071796004 $84 $137 forward 7 unknown #
loop $-1 $-1 $91 $53 #
plane-surface $-1 -1.3296754630122223 7.3786561445549701 79.902970615687735 0.85716730853699208 0 0.51503806187062418 0.51503806187062418 0 -0.85716730853699208 forward_v I I I I #
loop $-1 $-1 $138 $34 #
coedge $-1 $89 $89 $90 $139 reversed $54 $-1 #
coedge $-1 $90 $90 $89 $139 forward $56 $-1 #
coedge $-1 $91 $91 $57 $92 forward $86 $-1 #
edge $-1 $140 0 $140 6.2831853071796004 $91 $141 forward 7 unknown #
loop $-1 $-1 $98 $58 #
plane-surface $-1 -1.3296754630122223 7.3786561445549701 79.902970615687735 0.85716730853699208 0 0.51503806187062418 0.51503806187062418 0 -0.85716730853699208 forward_v I I I I #
loop $-1 $-1 $142 $37 #
coedge $-1 $96 $96 $97 $143 reversed $59 $-1 #
coedge $-1 $97 $97 $96 $143 forward $61 $-1 #
coedge $-1 $98 $98 $62 $99 forward $93 $-1 #
edge $-1 $144 0 $144 6.2831853071796004 $98 $145 forward 7 unknown #
face $-1 $146 $147 $15 $-1 $148 reversed single #
loop $-1 $-1 $149 $63 #
plane-surface $-1 -44.210333567308574 0 0 1 0 0 0 0 -1 forward_v I I I I #
coedge $-1 $150 $111 $151 $152 forward $64 $-1 #
coedge $-1 $153 $66 $150 $154 forward $41 $-1 #
coedge $-1 $66 $153 $155 $156 forward $41 $-1 #
coedge $-1 $114 $113 $66 $107 reversed $115 $-1 #
edge $-1 $157 -21.352969116373959 $158 21.352969116373959 $106 $159 forward 7 unknown #
coedge $-1 $68 $67 $160 $161 forward $26 $-1 #
coedge $-1 $162 $163 $67 $110 reversed $147 $-1 #
edge $-1 $117 -44.210333567308574 $164 44.210333567308574 $109 $165 forward 7 unknown #
coedge $-1 $103 $166 $68 $112 reversed $64 $-1 #
edge $-1 $167 -44.210333567308574 $116 44.210333567308574 $111 $168 forward 7 unknown #
coedge $-1 $106 $69 $166 $169 forward $115 $-1 #
coedge $-1 $69 $106 $162 $170 reversed $115 $-1 #
loop $-1 $-1 $113 $146 #
vertex $-1 $70 $171 #
vertex $-1 $70 $172 #
straight-curve $-1 44.210333567308574 0 7.8755813153180299 0 1 0 I I #
face $-1 $-1 $173 $16 $-1 $174 reversed single #
loop $-1 $-1 $77 $71 #
plane-surface $-1 0 0 7.8755813153180299 0 0 1 1 0 0 forward_v I I I I #
coedge $-1 $175 $176 $177 $178 reversed $72 $-1 #
coedge $-1 $179 $74 $76 $129 forward $45 $-1 #
coedge $-1 $74 $179 $175 $180 forward $45 $-1 #
coedge $-1 $177 $77 $74 $126 forward $120 $-1 #
edge $-1 $132 -9.3010965129689893 $181 1.9224403684140192 $125 $182 forward 7 unknown #
coedge $-1 $183 $184 $75 $128 forward $173 $-1 #
edge $-1 $185 -58.60982447414154 $131 -54.845908507686239 $127 $186 forward 7 unknown #
edge $-1 $132 84.02955710397498 $185 88.420667134617119 $76 $187 forward 7 unknown #
coedge $-1 $77 $177 $183 $188 forward $120 $-1 #
vertex $-1 $128 $189 #
vertex $-1 $78 $190 #
straight-curve $-1 37.230814901906413 12.990424585246474 7.8755813153180299 -1 0 0 I I #
coedge $-1 $134 $134 $-1 $191 reversed $81 $-1 #
edge $-1 $192 0 $192 6.2831853071796004 $82 $193 forward 7 unknown #
vertex $-1 $85 $194 #
ellipse-curve $-1 43.079539167487297 4.0115950801400686 5.9936233320903494 0.85716730853699208 0 0.51503806187062418 0.51503806187062418 0 -0.85716730853699208 1 I I #
coedge $-1 $138 $138 $-1 $195 reversed $88 $-1 #
edge $-1 $196 0 $196 6.2831853071796004 $89 $197 forward 7 unknown #
vertex $-1 $92 $198 #
ellipse-curve $-1 43.079539167487297 7.3786561445549701 5.9936233320903494 0.85716730853699208 0 0.51503806187062418 0.51503806187062418 0 -0.85716730853699208 1 I I #
coedge $-1 $142 $142 $-1 $199 reversed $95 $-1 #
edge $-1 $200 0 $200 6.2831853071796004 $96 $201 forward 7 unknown #
vertex $-1 $99 $202 #
ellipse-curve $-1 43.079539167487297 10.745717208969875 5.9936233320903494 0.85716730853699208 0 0.51503806187062418 0.51503806187062418 0 -0.85716730853699208 1 I I #
face $-1 $-1 $115 $15 $-1 $203 reversed single #
loop $-1 $-1 $162 $100 #
plane-surface $-1 0 21.352969116373959 0 0 -1 0 0 0 -1 forward_v I I I I #
coedge $-1 $204 $160 $163 $205 forward $101 $-1 #
coedge $-1 $166 $103 $104 $154 reversed $64 $-1 #
coedge $-1 $160 $204 $103 $152 reversed $101 $-1 #
edge $-1 $167 -7.8755813153180299 $206 7.8755813153180299 $151 $207 forward 7 unknown #
coedge $-1 $105 $104 $204 $208 forward $41 $-1 #
edge $-1 $158 -44.210333567308574 $206 44.210333567308574 $150 $209 forward 7 unknown #
coedge $-1 $163 $162 $105 $156 reversed $147 $-1 #
edge $-1 $210 -44.210333567308574 $157 44.210333567308574 $155 $211 forward 7 unknown #
vertex $-1 $107 $212 #
vertex $-1 $169 $213 #
straight-curve $-1 44.210333567308574 0 -7.8755813153180299 0 -1 0 I I #
coedge $-1 $149 $151 $108 $161 reversed $101 $-1 #
edge $-1 $164 -21.352969116373959 $167 21.352969116373959 $160 $214 forward 7 unknown #
coedge $-1 $155 $109 $114 $170 forward $147 $-1 #
coedge $-1 $109 $155 $149 $205 reversed $147 $-1 #
vertex $-1 $110 $215 #
straight-curve $-1 0 21.352969116373959 7.8755813153180299 -1 0 0 I I #
coedge $-1 $111 $150 $113 $169 reversed $64 $-1 #
vertex $-1 $161 $216 #
straight-curve $-1 0 -21.352969116373959 7.8755813153180299 1 0 0 I I #
edge $-1 $116 -7.8755813153180299 $158 7.8755813153180299 $113 $217 forward 7 unknown #
edge $-1 $117 -7.8755813153180299 $157 7.8755813153180299 $114 $218 forward 7 unknown #
point $-1 44.210333567308574 -21.352969116373959 7.8755813153180299 #
point $-1 44.210333567308574 21.352969116373959 7.8755813153180299 #
loop $-1 $-1 $127 $119 #
plane-surface $-1 44.210333567308574 0 0 -1 0 0 0 0 1 forward_v I I I I #
coedge $-1 $176 $122 $124 $180 reversed $72 $-1 #
coedge $-1 $122 $175 $219 $220 reversed $72 $-1 #
coedge $-1 $130 $125 $122 $178 forward $120 $-1 #
edge $-1 $181 4.7179298657595723 $221 6.9795186654021606 $177 $222 forward 7 unknown #
coedge $-1 $124 $123 $184 $223 reversed $45 $-1 #
edge $-1 $224 -88.420667134617119 $181 -84.02955710397498 $175 $225 forward 7 unknown #
vertex $-1 $126 $226 #
straight-curve $-1 41.948744767665985 3.689328072277485 7.8755813153180299 0 -1 0 I I #
coedge $-1 $219 $127 $130 $188 reversed $173 $-1 #
coedge $-1 $127 $219 $179 $223 forward $173 $-1 #
vertex $-1 $128 $227 #
straight-curve $-1 44.210333567308574 12.990424585246474 62.721489823004269 0 0 1 I I #
straight-curve $-1 -1.3296754630122223 12.990424585246474 79.902970615687735 0.51503806187062418 0 -0.85716730853699208 I I #
edge $-1 $221 1.7668877038634658 $131 12.990424585246474 $183 $228 forward 7 unknown #
point $-1 44.210333567308574 12.990424585246474 7.8755813153180299 #
point $-1 41.948744767665985 12.990424585246474 7.8755813153180299 #
edge $-1 $229 1 $229 0 $134 $-1 forward 7 unknown #
vertex $-1 $135 $230 #
ellipse-curve $-1 40.860771516857618 4.0115950801400686 4.6604532739928421 0.85716730853699208 0 0.51503806187062418 0.51503806187062418 0 -0.85716730853699208 1 I I #
point $-1 43.594577229357903 4.0115950801400686 5.1364560235533476 #
edge $-1 $231 1 $231 0 $138 $-1 forward 7 unknown #
vertex $-1 $139 $232 #
ellipse-curve $-1 40.860771516857618 7.3786561445549701 4.6604532739928421 0.85716730853699208 0 0.51503806187062418 0.51503806187062418 0 -0.85716730853699208 1 I I #
point $-1 43.594577229357903 7.3786561445549701 5.1364560235533476 #
edge $-1 $233 1 $233 0 $142 $-1 forward 7 unknown #
vertex $-1 $143 $234 #
ellipse-curve $-1 40.860771516857618 10.745717208969875 4.6604532739928421 0.85716730853699208 0 0.51503806187062418 0.51503806187062418 0 -0.85716730853699208 1 I I #
point $-1 43.594577229357903 10.745717208969875 5.1364560235533476 #
plane-surface $-1 44.210333567308574 0 0 -1 0 0 0 0 1 forward_v I I I I #
coedge $-1 $151 $149 $153 $208 reversed $101 $-1 #
edge $-1 $164 -7.8755813153180299 $210 7.8755813153180299 $163 $235 forward 7 unknown #
vertex $-1 $208 $236 #
straight-curve $-1 -44.210333567308574 -21.352969116373959 0 0 0 -1 I I #
edge $-1 $206 -21.352969116373959 $210 21.352969116373959 $204 $237 forward 7 unknown #
straight-curve $-1 0 -21.352969116373959 -7.8755813153180299 -1 0 0 I I #
vertex $-1 $156 $238 #
straight-curve $-1 0 21.352969116373959 -7.8755813153180299 1 0 0 I I #
point $-1 44.210333567308574 21.352969116373959 -7.8755813153180299 #
point $-1 44.210333567308574 -21.352969116373959 -7.8755813153180299 #
straight-curve $-1 -44.210333567308574 0 7.8755813153180299 0 -1 0 I I #
point $-1 -44.210333567308574 21.352969116373959 7.8755813153180299 #
point $-1 -44.210333567308574 -21.352969116373959 7.8755813153180299 #
straight-curve $-1 44.210333567308574 -21.352969116373959 0 0 0 -1 I I #
straight-curve $-1 44.210333567308574 21.352969116373959 0 0 0 -1 I I #
coedge $-1 $184 $183 $176 $220 forward $173 $-1 #
edge $-1 $221 54.845908507686239 $224 58.60982447414154 $219 $239 forward 7 unknown #
vertex $-1 $188 $240 #
straight-curve $-1 37.230814901906413 1.7668877038634658 7.8755813153180299 1 0 0 I I #
edge $-1 $224 -1.9224403684140192 $185 9.3010965129689893 $184 $241 forward 7 unknown #
vertex $-1 $223 $242 #
straight-curve $-1 -1.3296754630122223 1.7668877038634658 79.902970615687735 -0.51503806187062418 0 0.85716730853699208 I I #
point $-1 41.948744767665985 1.7668877038634658 7.8755813153180299 #
point $-1 44.210333567308574 12.990424585246474 4.1116653488627293 #
straight-curve $-1 44.210333567308574 0 7.8755813153180299 0 1 0 I I #
vertex $-1 $191 $243 #
point $-1 41.375809578728244 4.0115950801400686 3.8032859654558497 #
vertex $-1 $195 $244 #
point $-1 41.375809578728244 7.3786561445549701 3.8032859654558497 #
vertex $-1 $199 $245 #
point $-1 41.375809578728244 10.745717208969875 3.8032859654558497 #
straight-curve $-1 -44.210333567308574 21.352969116373959 0 0 0 -1 I I #
point $-1 -44.210333567308574 -21.352969116373959 -7.8755813153180299 #
straight-curve $-1 -44.210333567308574 0 -7.8755813153180299 0 1 0 I I #
point $-1 -44.210333567308574 21.352969116373959 -7.8755813153180299 #
straight-curve $-1 44.210333567308574 1.7668877038634658 62.721489823004269 0 0 -1 I I #
point $-1 44.210333567308574 1.7668877038634658 7.8755813153180299 #
straight-curve $-1 44.210333567308574 3.689328072277485 4.111665348862708 0 1 0 I I #
point $-1 44.210333567308574 1.7668877038634658 4.1116653488627293 #
point $-1 40.003604208320631 4.0115950801400686 4.1454152121222174 #
point $-1 40.003604208320631 7.3786561445549701 4.1454152121222174 #
point $-1 40.003604208320631 10.745717208969875 4.1454152121222174 #
End-of-ACIS-data 