500 0 7 0           
7 Unknown 11 ACIS 5.0 NT 24 Thu Mar 25 18:58:52 1999 
-1 9.9999999999999995e-007 1e-010 
body $-1 $7 $-1 $8 #
body $-1 $9 $-1 $10 #
body $-1 $11 $-1 $12 #
body $-1 $13 $-1 $14 #
body $-1 $15 $-1 $16 #
body $-1 $17 $-1 $18 #
body $-1 $19 $-1 $20 #
lump $-1 $-1 $21 $0 #
transform $-1 1 0 0 0 1 0 0 0 1 74.030579546494948 51.438453833639606 10.428033116431202 1 rotate no_reflect no_shear #
lump $-1 $-1 $22 $1 #
transform $-1 1 0 0 0 1 0 0 0 1 74.030579546494948 51.438453833639606 10.428033116431202 1 rotate no_reflect no_shear #
lump $-1 $-1 $23 $2 #
transform $-1 1 0 0 0 1 0 0 0 1 74.030579546494948 51.438453833639606 10.428033116431202 1 rotate no_reflect no_shear #
lump $-1 $-1 $24 $3 #
transform $-1 1 0 0 0 1 0 0 0 1 74.030579546494948 51.438453833639606 10.428033116431202 1 rotate no_reflect no_shear #
lump $-1 $-1 $25 $4 #
transform $-1 1 0 0 0 1 0 0 0 1 74.030579546494948 51.438453833639606 10.428033116431202 1 rotate no_reflect no_shear #
lump $-1 $-1 $26 $5 #
transform $-1 1 0 0 0 1 0 0 0 1 74.030579546494948 51.438453833639606 10.428033116431202 1 rotate no_reflect no_shear #
lump $-1 $-1 $27 $6 #
transform $-1 1 0 0 0 1 0 0 0 1 74.030579546494948 51.438453833639606 10.428033116431202 1 rotate no_reflect no_shear #
shell $-1 $-1 $-1 $28 $-1 $7 #
shell $-1 $-1 $-1 $29 $-1 $9 #
shell $-1 $-1 $-1 $30 $-1 $11 #
shell $-1 $-1 $-1 $31 $-1 $13 #
shell $-1 $-1 $-1 $32 $-1 $15 #
shell $-1 $-1 $-1 $33 $-1 $17 #
shell $-1 $-1 $-1 $34 $-1 $19 #
face $-1 $35 $36 $21 $-1 $37 forward single #
face $-1 $38 $39 $22 $-1 $40 reversed single #
face $-1 $41 $42 $23 $-1 $43 reversed single #
face $-1 $44 $45 $24 $-1 $46 forward single #
face $-1 $47 $48 $25 $-1 $49 reversed single #
face $-1 $50 $51 $26 $-1 $52 forward single #
face $-1 $53 $54 $27 $-1 $55 forward single #
face $-1 $56 $57 $21 $-1 $58 reversed single #
loop $-1 $-1 $59 $28 #
plane-surface $-1 0 0 10.428033116431202 0 0 1 1 0 0 forward_v I I I I #
face $-1 $60 $61 $22 $-1 $62 reversed single #
loop $-1 $-1 $63 $29 #
plane-surface $-1 -71.550631792358459 -42.087518436292747 0 0 -1 0 0 0 -1 forward_v I I I I #
face $-1 $64 $65 $23 $-1 $66 reversed single #
loop $-1 $-1 $67 $30 #
plane-surface $-1 37.670372251109697 15.988952890454605 210.71133319717313 0 -1 0 -0.57357644374324357 0 -0.81915203911291934 forward_v I I I I #
face $-1 $68 $69 $24 $-1 $70 forward single #
loop $-1 $71 $72 $31 #
cone-surface $-1 68.471298375981505 6.7931979797012687 5.5687520772327153 -0.57357644374324357 0 -0.81915203911291934 1.228728058669379 0 -0.86036466561486535 1 I I 0 1 1.5 forward I I I I #
face $-1 $73 $74 $25 $-1 $75 reversed single #
loop $-1 $-1 $76 $32 #
plane-surface $-1 -178.72563038621806 23.104030755658187 105.27130074285341 0 1 0 -0.70710678939079041 0 0.70710677298230451 forward_v I I I I #
face $-1 $77 $78 $26 $-1 $79 forward single #
loop $-1 $80 $81 $33 #
cone-surface $-1 -66.302611102370236 27.284562489653233 2.7000646230232062 0.70710678939079041 0 -0.70710677298230451 1.414213545964609 0 1.4142135787815808 1 I I 0 1 2 forward I I I I #
face $-1 $82 $83 $27 $-1 $84 forward single #
loop $-1 $85 $86 $34 #
cone-surface $-1 -66.302611102370236 33.555360090645799 2.7000646230232062 0.70710678939079041 0 -0.70710677298230451 1.414213545964609 0 1.4142135787815808 1 I I 0 1 2 forward I I I I #
face $-1 $87 $88 $21 $-1 $89 reversed single #
loop $-1 $-1 $90 $35 #
plane-surface $-1 0 0 -10.428033116431202 0 0 1 1 0 0 forward_v I I I I #
coedge $-1 $91 $92 $93 $94 forward $36 $-1 #
face $-1 $95 $96 $22 $-1 $97 forward single #
loop $-1 $-1 $98 $38 #
plane-surface $-1 -69.07068403822197 -46.762986134966177 0 -1 0 0 0 0 1 forward_v I I I I #
coedge $-1 $99 $100 $101 $102 forward $39 $-1 #
face $-1 $103 $104 $23 $-1 $105 reversed single #
loop $-1 $-1 $106 $41 #
plane-surface $-1 -47.254020837950065 6.7931979797012687 89.426732812728105 0.57357644374324357 0 0.81915203911291934 0.81915203911291934 0 -0.57357644374324357 forward_v I I I I #
coedge $-1 $107 $108 $109 $110 reversed $42 $-1 #
face $-1 $-1 $111 $24 $-1 $112 forward single #
loop $-1 $113 $114 $44 #
cone-surface $-1 66.713218395109237 6.7931979797012687 3.0579537050809691 -0.57357644374324357 0 -0.81915203911291934 0.61436402933468948 0 -0.43018233280743268 1 I I -0.70710678118654757 0.70710678118654757 0.75 forward I I I I #
loop $-1 $-1 $115 $31 #
coedge $-1 $72 $72 $116 $117 reversed $45 $-1 #
face $-1 $118 $119 $25 $-1 $120 reversed single #
loop $-1 $-1 $121 $47 #
plane-surface $-1 -74.030579546494934 30.419961290149509 0.57625233258973196 -0.70710678939079041 0 0.70710677298230451 0.70710677298230451 0 0.70710678939079041 forward_v I I I I #
coedge $-1 $122 $123 $124 $125 reversed $48 $-1 #
face $-1 $-1 $126 $26 $-1 $127 forward single #
loop $-1 $128 $129 $50 #
cone-surface $-1 -62.793426146469663 27.284562489653233 -0.80912025144636601 0.70710678939079041 0 -0.70710677298230451 0.70710677298230451 0 0.70710678939079041 1 I I -0.70710678118654746 0.70710678118654746 1 forward I I I I #
loop $-1 $-1 $130 $33 #
coedge $-1 $81 $81 $131 $132 reversed $51 $-1 #
face $-1 $-1 $133 $27 $-1 $134 forward single #
loop $-1 $135 $136 $53 #
cone-surface $-1 -62.793426146469663 33.555360090645799 -0.80912025144636601 0.70710678939079041 0 -0.70710677298230451 0.70710677298230451 0 0.70710678939079041 1 I I -0.70710678118654746 0.70710678118654746 1 forward I I I I #
loop $-1 $-1 $137 $34 #
coedge $-1 $86 $86 $138 $139 reversed $54 $-1 #
face $-1 $140 $141 $21 $-1 $142 reversed single #
loop $-1 $-1 $143 $56 #
plane-surface $-1 0 -51.438453833639606 0 0 1 0 0 0 1 forward_v I I I I #
coedge $-1 $144 $145 $146 $147 forward $57 $-1 #
coedge $-1 $148 $59 $149 $150 forward $36 $-1 #
coedge $-1 $59 $148 $151 $152 forward $36 $-1 #
coedge $-1 $153 $154 $59 $94 reversed $155 $-1 #
edge $-1 $156 -51.438453833639606 $157 51.438453833639606 $93 $158 forward 7 unknown #
face $-1 $159 $160 $22 $-1 $161 reversed single #
loop $-1 $-1 $162 $60 #
plane-surface $-1 0 0 10.428033116431202 0 0 1 1 0 0 forward_v I I I I #
coedge $-1 $163 $164 $165 $166 reversed $61 $-1 #
coedge $-1 $167 $63 $168 $169 reversed $39 $-1 #
coedge $-1 $63 $167 $170 $171 reversed $39 $-1 #
coedge $-1 $164 $163 $63 $102 reversed $61 $-1 #
edge $-1 $172 -10.428033116431202 $173 10.428033116431202 $101 $174 forward 7 unknown #
face $-1 $175 $176 $23 $-1 $177 reversed single #
loop $-1 $-1 $178 $64 #
plane-surface $-1 37.670372251109697 -2.402556931052068 210.71133319717313 0 1 0 0.57357644374324357 0 0.81915203911291934 forward_v I I I I #
coedge $-1 $179 $180 $181 $182 reversed $65 $-1 #
coedge $-1 $108 $67 $183 $184 reversed $42 $-1 #
coedge $-1 $67 $107 $179 $185 reversed $42 $-1 #
coedge $-1 $181 $186 $67 $110 forward $187 $-1 #
edge $-1 $188 -55.1953934209401 $189 -46.732626376042951 $109 $190 forward 7 unknown #
loop $-1 $-1 $116 $68 #
plane-surface $-1 -47.254020837950065 6.7931979797012687 89.426732812728105 0.57357644374324357 0 0.81915203911291934 0.81915203911291934 0 -0.57357644374324357 forward_v I I I I #
loop $-1 $-1 $191 $44 #
coedge $-1 $114 $114 $115 $192 reversed $69 $-1 #
coedge $-1 $115 $115 $114 $192 forward $71 $-1 #
coedge $-1 $116 $116 $72 $117 forward $111 $-1 #
edge $-1 $193 0 $193 6.2831853071796004 $116 $194 forward 7 unknown #
face $-1 $195 $196 $25 $-1 $197 reversed single #
loop $-1 $-1 $198 $73 #
plane-surface $-1 -178.72563038621806 37.735891824640831 105.27130074285341 0 -1 0 0.70710678939079041 0 -0.70710677298230451 forward_v I I I I #
coedge $-1 $199 $200 $201 $202 reversed $74 $-1 #
coedge $-1 $123 $76 $203 $204 reversed $48 $-1 #
coedge $-1 $76 $122 $199 $205 reversed $48 $-1 #
coedge $-1 $201 $206 $76 $125 forward $207 $-1 #
edge $-1 $208 15.33223564661408 $209 25.184016201843974 $124 $210 forward 7 unknown #
loop $-1 $-1 $131 $77 #
plane-surface $-1 -74.030579546494934 30.419961290149509 0.57625233258973196 -0.70710678939079041 0 0.70710677298230451 0.70710677298230451 0 0.70710678939079041 forward_v I I I I #
loop $-1 $-1 $211 $50 #
coedge $-1 $129 $129 $130 $212 reversed $78 $-1 #
coedge $-1 $130 $130 $129 $212 forward $80 $-1 #
coedge $-1 $131 $131 $81 $132 forward $126 $-1 #
edge $-1 $213 0 $213 6.2831853071796004 $131 $214 forward 7 unknown #
loop $-1 $-1 $138 $82 #
plane-surface $-1 -74.030579546494934 30.419961290149509 0.57625233258973196 -0.70710678939079041 0 0.70710677298230451 0.70710677298230451 0 0.70710678939079041 forward_v I I I I #
loop $-1 $-1 $215 $53 #
coedge $-1 $136 $136 $137 $216 reversed $83 $-1 #
coedge $-1 $137 $137 $136 $216 forward $85 $-1 #
coedge $-1 $138 $138 $86 $139 forward $133 $-1 #
edge $-1 $217 0 $217 6.2831853071796004 $138 $218 forward 7 unknown #
face $-1 $219 $220 $21 $-1 $221 reversed single #
loop $-1 $-1 $222 $87 #
plane-surface $-1 -74.030579546494948 0 0 1 0 0 0 0 -1 forward_v I I I I #
coedge $-1 $223 $151 $224 $225 forward $88 $-1 #
coedge $-1 $226 $90 $223 $227 forward $57 $-1 #
coedge $-1 $90 $226 $228 $229 forward $57 $-1 #
coedge $-1 $154 $153 $90 $147 reversed $155 $-1 #
edge $-1 $230 -51.438453833639606 $231 51.438453833639606 $146 $232 forward 7 unknown #
coedge $-1 $92 $91 $233 $234 forward $36 $-1 #
coedge $-1 $235 $236 $91 $150 reversed $220 $-1 #
edge $-1 $157 -74.030579546494948 $237 74.030579546494948 $149 $238 forward 7 unknown #
coedge $-1 $143 $239 $92 $152 reversed $88 $-1 #
edge $-1 $240 -74.030579546494948 $156 74.030579546494948 $151 $241 forward 7 unknown #
coedge $-1 $146 $93 $239 $242 forward $155 $-1 #
coedge $-1 $93 $146 $235 $243 reversed $155 $-1 #
loop $-1 $-1 $153 $219 #
vertex $-1 $94 $244 #
vertex $-1 $94 $245 #
straight-curve $-1 74.030579546494948 0 10.428033116431202 0 1 0 I I #
face $-1 $246 $247 $22 $-1 $248 reversed single #
loop $-1 $-1 $249 $95 #
plane-surface $-1 -74.030579546494948 0 0 1 0 0 0 0 -1 forward_v I I I I #
coedge $-1 $170 $250 $164 $251 forward $96 $-1 #
coedge $-1 $101 $98 $252 $253 reversed $61 $-1 #
coedge $-1 $98 $101 $162 $251 reversed $61 $-1 #
coedge $-1 $254 $255 $98 $166 forward $256 $-1 #
edge $-1 $257 -10.428033116431202 $258 10.428033116431202 $165 $259 forward 7 unknown #
coedge $-1 $100 $99 $249 $260 reversed $39 $-1 #
coedge $-1 $252 $261 $99 $169 forward $247 $-1 #
edge $-1 $262 -38.255263650315719 $173 -33.29536814204274 $168 $263 forward 7 unknown #
coedge $-1 $264 $162 $100 $171 forward $96 $-1 #
edge $-1 $172 33.29536814204274 $265 38.255263650315719 $170 $266 forward 7 unknown #
vertex $-1 $171 $267 #
vertex $-1 $169 $268 #
straight-curve $-1 -69.07068403822197 -42.087518436292747 0 0 0 -1 I I #
face $-1 $-1 $187 $23 $-1 $269 forward single #
loop $-1 $-1 $270 $103 #
plane-surface $-1 74.030579546494948 0 0 -1 0 0 0 0 1 forward_v I I I I #
coedge $-1 $271 $272 $273 $274 reversed $104 $-1 #
coedge $-1 $275 $106 $108 $185 forward $65 $-1 #
coedge $-1 $106 $275 $271 $276 forward $65 $-1 #
coedge $-1 $273 $109 $106 $182 forward $187 $-1 #
edge $-1 $189 -12.592353900603971 $277 5.7991559209027024 $181 $278 forward 7 unknown #
coedge $-1 $279 $280 $107 $184 forward $176 $-1 #
edge $-1 $281 -100.8533268749182 $188 -94.927633482155358 $183 $282 forward 7 unknown #
edge $-1 $189 137.73002806869101 $281 148.06115909298987 $108 $283 forward 7 unknown #
coedge $-1 $109 $273 $279 $284 forward $187 $-1 #
loop $-1 $-1 $273 $175 #
vertex $-1 $184 $285 #
vertex $-1 $110 $286 #
straight-curve $-1 18.835186125554849 15.988952890454605 10.428033116431209 -1 0 0 I I #
coedge $-1 $191 $191 $-1 $287 reversed $113 $-1 #
edge $-1 $288 0 $288 6.2831853071796004 $114 $289 forward 7 unknown #
vertex $-1 $117 $290 #
ellipse-curve $-1 69.799196024046353 6.7931979797012687 7.4651864200497879 0.57357644374324357 0 0.81915203911291934 1.228728058669379 0 -0.86036466561486535 1 I I #
face $-1 $-1 $207 $25 $-1 $291 forward single #
loop $-1 $-1 $292 $118 #
plane-surface $-1 -74.030579546494948 0 0 1 0 0 0 0 -1 forward_v I I I I #
coedge $-1 $293 $294 $295 $296 reversed $119 $-1 #
coedge $-1 $297 $121 $123 $205 forward $74 $-1 #
coedge $-1 $121 $297 $293 $298 forward $74 $-1 #
coedge $-1 $295 $124 $121 $202 forward $207 $-1 #
edge $-1 $209 7.8940501105834322 $299 22.525911179566076 $201 $300 forward 7 unknown #
coedge $-1 $301 $302 $122 $204 forward $196 $-1 #
edge $-1 $303 -52.059398038836989 $208 -42.207617254995505 $203 $304 forward 7 unknown #
edge $-1 $209 -13.932521836382447 $303 2.0097183471152325e-014 $123 $305 forward 7 unknown #
coedge $-1 $124 $295 $301 $306 forward $207 $-1 #
loop $-1 $-1 $295 $195 #
vertex $-1 $204 $307 #
vertex $-1 $125 $308 #
straight-curve $-1 -89.362815193109029 23.104030755658187 10.428033116431202 1 0 0 I I #
coedge $-1 $211 $211 $-1 $309 reversed $128 $-1 #
edge $-1 $310 0 $310 6.2831853071796004 $129 $311 forward 7 unknown #
vertex $-1 $132 $312 #
ellipse-curve $-1 -69.104689268879994 27.284562489653233 5.5021427245104588 -0.70710678939079041 0 0.70710677298230451 1.414213545964609 0 1.4142135787815808 1 I I #
coedge $-1 $215 $215 $-1 $313 reversed $135 $-1 #
edge $-1 $314 0 $314 6.2831853071796004 $136 $315 forward 7 unknown #
vertex $-1 $139 $316 #
ellipse-curve $-1 -69.104689268879994 33.555360090645799 5.5021427245104588 -0.70710678939079041 0 0.70710677298230451 1.414213545964609 0 1.4142135787815808 1 I I #
face $-1 $-1 $155 $21 $-1 $317 reversed single #
loop $-1 $-1 $235 $140 #
plane-surface $-1 0 51.438453833639606 0 0 -1 0 0 0 -1 forward_v I I I I #
coedge $-1 $318 $233 $236 $319 forward $141 $-1 #
coedge $-1 $239 $143 $144 $227 reversed $88 $-1 #
coedge $-1 $233 $318 $143 $225 reversed $141 $-1 #
edge $-1 $240 -10.428033116431202 $320 10.428033116431202 $224 $321 forward 7 unknown #
coedge $-1 $145 $144 $318 $322 forward $57 $-1 #
edge $-1 $231 -74.030579546494948 $320 74.030579546494948 $223 $323 forward 7 unknown #
coedge $-1 $236 $235 $145 $229 reversed $220 $-1 #
edge $-1 $324 -74.030579546494948 $230 74.030579546494948 $228 $325 forward 7 unknown #
vertex $-1 $147 $326 #
vertex $-1 $242 $327 #
straight-curve $-1 74.030579546494948 0 -10.428033116431202 0 -1 0 I I #
coedge $-1 $222 $224 $148 $234 reversed $141 $-1 #
edge $-1 $237 -51.438453833639606 $240 51.438453833639606 $233 $328 forward 7 unknown #
coedge $-1 $228 $149 $154 $243 forward $220 $-1 #
coedge $-1 $149 $228 $222 $319 reversed $220 $-1 #
vertex $-1 $150 $329 #
straight-curve $-1 0 51.438453833639606 10.428033116431202 -1 0 0 I I #
coedge $-1 $151 $223 $153 $242 reversed $88 $-1 #
vertex $-1 $234 $330 #
straight-curve $-1 0 -51.438453833639606 10.428033116431202 1 0 0 I I #
edge $-1 $156 -10.428033116431202 $231 10.428033116431202 $153 $331 forward 7 unknown #
edge $-1 $157 -10.428033116431202 $230 10.428033116431202 $154 $332 forward 7 unknown #
point $-1 74.030579546494948 -51.438453833639606 10.428033116431202 #
point $-1 74.030579546494948 51.438453833639606 10.428033116431202 #
face $-1 $-1 $256 $22 $-1 $333 reversed single #
loop $-1 $-1 $252 $159 #
plane-surface $-1 0 0 -10.428033116431202 0 0 1 1 0 0 forward_v I I I I #
coedge $-1 $334 $335 $167 $260 forward $160 $-1 #
coedge $-1 $162 $264 $254 $336 forward $96 $-1 #
edge $-1 $258 -28.056960766156518 $172 -18.706025368809659 $162 $337 forward 7 unknown #
coedge $-1 $338 $168 $163 $253 forward $247 $-1 #
edge $-1 $173 18.706025368809659 $257 28.056960766156518 $252 $339 forward 7 unknown #
coedge $-1 $340 $165 $250 $336 reversed $256 $-1 #
coedge $-1 $165 $340 $338 $341 reversed $256 $-1 #
loop $-1 $-1 $165 $246 #
vertex $-1 $341 $342 #
vertex $-1 $166 $343 #
straight-curve $-1 -69.07068403822197 -51.438453833639606 0 0 0 1 I I #
edge $-1 $265 -10.428033116431202 $262 10.428033116431202 $249 $344 forward 7 unknown #
coedge $-1 $168 $338 $334 $345 forward $247 $-1 #
vertex $-1 $169 $346 #
straight-curve $-1 -35.775315896179229 -42.087518436292747 -10.428033116431202 1 0 0 I I #
coedge $-1 $250 $170 $335 $347 forward $96 $-1 #
vertex $-1 $347 $348 #
straight-curve $-1 -35.775315896179229 -42.087518436292747 10.428033116431202 -1 0 0 I I #
point $-1 -69.07068403822197 -42.087518436292747 10.428033116431202 #
point $-1 -69.07068403822197 -42.087518436292747 -10.428033116431202 #
plane-surface $-1 0 0 10.428033116431202 0 0 1 1 0 0 forward_v I I I I #
coedge $-1 $280 $279 $272 $349 forward $176 $-1 #
coedge $-1 $272 $178 $180 $276 reversed $104 $-1 #
coedge $-1 $178 $271 $270 $349 reversed $104 $-1 #
coedge $-1 $186 $181 $178 $274 forward $187 $-1 #
edge $-1 $277 46.732626376042951 $350 55.1953934209401 $273 $351 forward 7 unknown #
coedge $-1 $180 $179 $280 $352 reversed $65 $-1 #
edge $-1 $353 -148.06115909298987 $277 -137.73002806869101 $271 $354 forward 7 unknown #
vertex $-1 $182 $355 #
straight-curve $-1 65.567812501597786 3.3965989898506344 10.428033116431202 0 -1 0 I I #
coedge $-1 $270 $183 $186 $284 reversed $176 $-1 #
coedge $-1 $183 $270 $275 $352 forward $176 $-1 #
vertex $-1 $184 $356 #
straight-curve $-1 74.030579546494948 15.988952890454605 105.35566659858657 0 0 1 I I #
straight-curve $-1 -47.254020837950065 15.988952890454605 89.426732812728105 0.81915203911291934 0 -0.57357644374324357 I I #
edge $-1 $350 -2.402556931052068 $188 15.988952890454605 $279 $357 forward 7 unknown #
point $-1 74.030579546494948 15.988952890454605 10.428033116431202 #
point $-1 65.5678125015978 15.988952890454605 10.428033116431195 #
edge $-1 $358 1 $358 0 $191 $-1 forward 7 unknown #
vertex $-1 $192 $359 #
ellipse-curve $-1 67.143400727916671 6.7931979797012687 3.6723177344156586 0.57357644374324357 0 0.81915203911291934 1.228728058669379 0 -0.86036466561486535 1 I I #
point $-1 71.027924082715728 6.7931979797012687 6.6048217544349068 #
plane-surface $-1 0 0 10.428033116431202 0 0 1 1 0 0 forward_v I I I I #
coedge $-1 $302 $301 $294 $360 forward $196 $-1 #
coedge $-1 $294 $198 $200 $298 reversed $119 $-1 #
coedge $-1 $198 $293 $292 $360 reversed $119 $-1 #
coedge $-1 $206 $201 $198 $296 forward $207 $-1 #
edge $-1 $299 -25.184016201843974 $361 -15.33223564661408 $295 $362 forward 7 unknown #
coedge $-1 $200 $199 $302 $363 reversed $74 $-1 #
edge $-1 $364 -2.0097183471152325e-014 $299 13.932521836382447 $293 $365 forward 7 unknown #
vertex $-1 $202 $366 #
straight-curve $-1 -64.178798991265054 15.209980645074754 10.428033116431202 0 1 0 I I #
coedge $-1 $292 $203 $206 $306 reversed $196 $-1 #
coedge $-1 $203 $292 $297 $363 forward $196 $-1 #
vertex $-1 $204 $367 #
straight-curve $-1 -74.030579546494948 23.104030755658187 52.635650371426706 0 0 1 I I #
straight-curve $-1 -74.030579546494934 23.104030755658187 0.57625233258973196 -0.70710677298230451 0 -0.70710678939079041 I I #
edge $-1 $361 -37.735891824640831 $208 -23.104030755658187 $301 $368 forward 7 unknown #
point $-1 -74.030579546494948 23.104030755658187 10.428033116431202 #
point $-1 -64.178798991265054 23.104030755658187 10.428033116431202 #
edge $-1 $369 1 $369 0 $211 $-1 forward 7 unknown #
vertex $-1 $212 $370 #
ellipse-curve $-1 -63.500532935860456 27.284562489653233 -0.1020134784640615 -0.70710678939079041 0 0.70710677298230451 1.414213545964609 0 1.4142135787815808 1 I I #
point $-1 -67.690475722915409 27.284562489653233 6.916356303292055 #
edge $-1 $371 1 $371 0 $215 $-1 forward 7 unknown #
vertex $-1 $216 $372 #
ellipse-curve $-1 -63.500532935860456 33.555360090645799 -0.1020134784640615 -0.70710678939079041 0 0.70710677298230451 1.414213545964609 0 1.4142135787815808 1 I I #
point $-1 -67.690475722915409 33.555360090645799 6.916356303292055 #
plane-surface $-1 74.030579546494948 0 0 -1 0 0 0 0 1 forward_v I I I I #
coedge $-1 $224 $222 $226 $322 reversed $141 $-1 #
edge $-1 $237 -10.428033116431202 $324 10.428033116431202 $236 $373 forward 7 unknown #
vertex $-1 $322 $374 #
straight-curve $-1 -74.030579546494948 -51.438453833639606 0 0 0 -1 I I #
edge $-1 $320 -51.438453833639606 $324 51.438453833639606 $318 $375 forward 7 unknown #
straight-curve $-1 0 -51.438453833639606 -10.428033116431202 -1 0 0 I I #
vertex $-1 $229 $376 #
straight-curve $-1 0 51.438453833639606 -10.428033116431202 1 0 0 I I #
point $-1 74.030579546494948 51.438453833639606 -10.428033116431202 #
point $-1 74.030579546494948 -51.438453833639606 -10.428033116431202 #
straight-curve $-1 -74.030579546494948 0 10.428033116431202 0 -1 0 I I #
point $-1 -74.030579546494948 51.438453833639606 10.428033116431202 #
point $-1 -74.030579546494948 -51.438453833639606 10.428033116431202 #
straight-curve $-1 74.030579546494948 -51.438453833639606 0 0 0 -1 I I #
straight-curve $-1 74.030579546494948 51.438453833639606 0 0 0 -1 I I #
plane-surface $-1 0 -51.438453833639606 0 0 1 0 0 0 1 forward_v I I I I #
coedge $-1 $377 $249 $261 $345 reversed $160 $-1 #
coedge $-1 $249 $377 $264 $347 reversed $160 $-1 #
edge $-1 $378 -74.030579546494948 $258 -69.07068403822197 $254 $379 forward 7 unknown #
straight-curve $-1 -69.07068403822197 -23.381493067483088 10.428033116431202 0 1 0 I I #
coedge $-1 $261 $252 $255 $341 forward $247 $-1 #
straight-curve $-1 -69.07068403822197 -23.381493067483088 -10.428033116431202 0 -1 0 I I #
coedge $-1 $255 $254 $377 $380 forward $256 $-1 #
edge $-1 $257 69.07068403822197 $381 74.030579546494948 $255 $382 forward 7 unknown #
point $-1 -69.07068403822197 -51.438453833639606 -10.428033116431202 #
point $-1 -69.07068403822197 -51.438453833639606 10.428033116431202 #
straight-curve $-1 -74.030579546494948 -42.087518436292747 0 0 0 -1 I I #
edge $-1 $381 -51.438453833639606 $262 -42.087518436292747 $334 $383 forward 7 unknown #
point $-1 -74.030579546494948 -42.087518436292747 -10.428033116431202 #
edge $-1 $265 42.087518436292747 $378 51.438453833639606 $335 $384 forward 7 unknown #
point $-1 -74.030579546494948 -42.087518436292747 10.428033116431202 #
edge $-1 $350 94.927633482155358 $353 100.8533268749182 $270 $385 forward 7 unknown #
vertex $-1 $284 $386 #
straight-curve $-1 18.835186125554849 -2.402556931052068 10.428033116431209 1 0 0 I I #
edge $-1 $353 -5.7991559209027024 $281 12.592353900603971 $280 $387 forward 7 unknown #
vertex $-1 $352 $388 #
straight-curve $-1 -47.254020837950065 -2.402556931052068 89.426732812728105 -0.81915203911291934 0 0.57357644374324357 I I #
point $-1 65.5678125015978 -2.402556931052068 10.428033116431195 #
point $-1 74.030579546494948 15.988952890454605 4.5023397236683707 #
straight-curve $-1 74.030579546494948 0 10.428033116431202 0 1 0 I I #
vertex $-1 $287 $389 #
point $-1 68.372128786586046 6.7931979797012687 2.8119530688007934 #
edge $-1 $361 42.207617254995505 $364 52.059398038836989 $292 $390 forward 7 unknown #
vertex $-1 $306 $391 #
straight-curve $-1 -89.362815193109029 37.735891824640831 10.428033116431202 -1 0 0 I I #
edge $-1 $364 -22.525911179566076 $303 -7.8940501105834322 $302 $392 forward 7 unknown #
vertex $-1 $363 $393 #
straight-curve $-1 -74.030579546494934 37.735891824640831 0.57625233258973196 0.70710677298230451 0 0.70710678939079041 I I #
point $-1 -64.178798991265054 37.735891824640831 10.428033116431202 #
point $-1 -74.030579546494948 23.104030755658187 0.57625233258971775 #
straight-curve $-1 -74.030579546494948 0 10.428033116431202 0 -1 0 I I #
vertex $-1 $309 $394 #
point $-1 -62.086319389895841 27.284562489653233 1.3122001003175194 #
vertex $-1 $313 $395 #
point $-1 -62.086319389895841 33.555360090645799 1.3122001003175194 #
straight-curve $-1 -74.030579546494948 51.438453833639606 0 0 0 -1 I I #
point $-1 -74.030579546494948 -51.438453833639606 -10.428033116431202 #
straight-curve $-1 -74.030579546494948 0 -10.428033116431202 0 1 0 I I #
point $-1 -74.030579546494948 51.438453833639606 -10.428033116431202 #
coedge $-1 $335 $334 $340 $380 reversed $160 $-1 #
vertex $-1 $347 $396 #
straight-curve $-1 0 -51.438453833639606 10.428033116431202 1 0 0 I I #
edge $-1 $378 -10.428033116431202 $381 10.428033116431202 $377 $397 forward 7 unknown #
vertex $-1 $345 $398 #
straight-curve $-1 0 -51.438453833639606 -10.428033116431202 -1 0 0 I I #
straight-curve $-1 -74.030579546494948 0 -10.428033116431202 0 1 0 I I #
straight-curve $-1 -74.030579546494948 0 10.428033116431202 0 -1 0 I I #
straight-curve $-1 74.030579546494948 -2.402556931052068 105.35566659858657 0 0 -1 I I #
point $-1 74.030579546494948 -2.402556931052068 10.428033116431202 #
straight-curve $-1 74.030579546494948 3.3965989898506344 4.5023397236683564 0 1 0 I I #
point $-1 74.030579546494948 -2.402556931052068 4.5023397236683707 #
point $-1 66.283036062301804 6.7931979797012687 2.4435896757462796 #
straight-curve $-1 -74.030579546494948 37.735891824640831 52.635650371426706 0 0 -1 I I #
point $-1 -74.030579546494948 37.735891824640831 10.428033116431202 #
straight-curve $-1 -74.030579546494948 15.209980645074754 0.57625233258972486 0 -1 0 I I #
point $-1 -74.030579546494948 37.735891824640831 0.57625233258971775 #
point $-1 -62.086319357078871 27.284562489653233 -1.5162270244286704 #
point $-1 -62.086319357078871 33.555360090645799 -1.5162270244286704 #
point $-1 -74.030579546494948 -51.438453833639606 10.428033116431202 #
straight-curve $-1 -74.030579546494948 -51.438453833639606 0 0 0 -1 I I #
point $-1 -74.030579546494948 -51.438453833639606 -10.428033116431202 #
End-of-ACIS-data 