500 0 6 0           
7 Unknown 11 ACIS 5.0 NT 24 Fri Mar 26 16:37:02 1999 
-1 9.9999999999999995e-007 1e-010 
body $-1 $6 $-1 $7 #
body $-1 $8 $-1 $9 #
body $-1 $10 $-1 $11 #
body $-1 $12 $-1 $13 #
body $-1 $14 $-1 $15 #
body $-1 $16 $-1 $17 #
lump $-1 $-1 $18 $0 #
transform $-1 1 0 0 0 1 0 0 0 1 40.515152439954832 16.374467109052457 5.5512376881502767 1 rotate no_reflect no_shear #
lump $-1 $-1 $19 $1 #
transform $-1 1 0 0 0 1 0 0 0 1 40.515152439954832 16.374467109052457 5.5512376881502767 1 rotate no_reflect no_shear #
lump $-1 $-1 $20 $2 #
transform $-1 1 0 0 0 1 0 0 0 1 40.515152439954832 16.374467109052457 5.5512376881502767 1 rotate no_reflect no_shear #
lump $-1 $-1 $21 $3 #
transform $-1 1 0 0 0 1 0 0 0 1 40.515152439954832 16.374467109052457 5.5512376881502767 1 rotate no_reflect no_shear #
lump $-1 $-1 $22 $4 #
transform $-1 1 0 0 0 1 0 0 0 1 40.515152439954832 16.374467109052457 5.5512376881502767 1 rotate no_reflect no_shear #
lump $-1 $-1 $23 $5 #
transform $-1 1 0 0 0 1 0 0 0 1 40.515152439954832 16.374467109052457 5.5512376881502767 1 rotate no_reflect no_shear #
shell $-1 $-1 $-1 $24 $-1 $6 #
shell $-1 $-1 $-1 $25 $-1 $8 #
shell $-1 $-1 $-1 $26 $-1 $10 #
shell $-1 $-1 $-1 $27 $-1 $12 #
shell $-1 $-1 $-1 $28 $-1 $14 #
shell $-1 $-1 $-1 $29 $-1 $16 #
face $-1 $30 $31 $18 $-1 $32 forward single #
face $-1 $33 $34 $19 $-1 $35 reversed single #
face $-1 $36 $37 $20 $-1 $38 forward single #
face $-1 $39 $40 $21 $-1 $41 reversed single #
face $-1 $42 $43 $22 $-1 $44 forward single #
face $-1 $45 $46 $23 $-1 $47 forward single #
face $-1 $48 $49 $18 $-1 $50 reversed single #
loop $-1 $-1 $51 $24 #
plane-surface $-1 0 0 5.5512376881502767 0 0 1 1 0 0 forward_v I I I I #
face $-1 $52 $53 $19 $-1 $54 reversed single #
loop $-1 $-1 $55 $25 #
plane-surface $-1 -25.266854978484119 38.985260938971336 85.342939839821952 -1 0 0 0 0.6018150307709319 0.79863550430605224 forward_v I I I I #
face $-1 $56 $57 $20 $-1 $58 forward single #
loop $-1 $59 $60 $26 #
cone-surface $-1 -32.891003709219476 12.267184499311902 1.8628112472575831 0 -0.6018150307709319 -0.79863550430605224 1.5 0 0 1 I I 0 1 1.5 forward I I I I #
face $-1 $61 $62 $21 $-1 $63 reversed single #
loop $-1 $-1 $64 $27 #
plane-surface $-1 18.640988477221498 -77.52881516191826 54.521732528564726 -1 0 0 0 -0.75470958851134928 0.65605901945558964 forward_v I I I I #
face $-1 $65 $66 $22 $-1 $67 forward single #
loop $-1 $68 $69 $28 #
cone-surface $-1 5.5516244338766114 -13.548095450206658 2.5823963154407061 0 0.75470958851134928 -0.65605901945558964 1 0 0 1 I I 0 1 1 forward I I I I #
face $-1 $70 $71 $23 $-1 $72 forward single #
loop $-1 $73 $74 $29 #
cone-surface $-1 13.405242859883543 -13.548095450206658 2.5823963154407061 0 0.75470958851134928 -0.65605901945558964 1 0 0 1 I I 0 1 1 forward I I I I #
face $-1 $75 $76 $18 $-1 $77 reversed single #
loop $-1 $-1 $78 $30 #
plane-surface $-1 0 0 -5.5512376881502767 0 0 1 1 0 0 forward_v I I I I #
coedge $-1 $79 $80 $81 $82 forward $31 $-1 #
face $-1 $83 $84 $19 $-1 $85 reversed single #
loop $-1 $-1 $86 $33 #
plane-surface $-1 -32.891003709219476 -9.7799944857094943 20.629261437982137 0 0.6018150307709319 0.79863550430605224 1 0 0 forward_v I I I I #
coedge $-1 $87 $88 $89 $90 reversed $34 $-1 #
face $-1 $-1 $91 $20 $-1 $92 forward single #
loop $-1 $93 $94 $36 #
cone-surface $-1 -32.891003709219476 10.781164943710138 -0.10920326968856564 0 -0.6018150307709319 -0.79863550430605224 0.75 0 0 1 I I -0.70710678118654757 0.70710678118654757 0.75 forward I I I I #
loop $-1 $-1 $95 $26 #
coedge $-1 $60 $60 $96 $97 reversed $37 $-1 #
face $-1 $98 $99 $21 $-1 $100 reversed single #
loop $-1 $-1 $101 $39 #
plane-surface $-1 9.4784336468800774 -16.374467109052461 1.3610701628637116 0 -0.75470958851134928 0.65605901945558964 1 0 0 forward_v I I I I #
coedge $-1 $102 $103 $104 $105 reversed $40 $-1 #
face $-1 $-1 $106 $22 $-1 $107 forward single #
loop $-1 $108 $109 $42 #
cone-surface $-1 5.5516244338766114 -12.165597480114462 1.3806091956466275 0 0.75470958851134928 -0.65605901945558964 0.5 0 0 1 I I -0.70710678118654746 0.70710678118654746 0.5 forward I I I I #
loop $-1 $-1 $110 $28 #
coedge $-1 $69 $69 $111 $112 reversed $43 $-1 #
face $-1 $-1 $113 $23 $-1 $114 forward single #
loop $-1 $115 $116 $45 #
cone-surface $-1 13.405242859883543 -12.165597480114462 1.3806091956466275 0 0.75470958851134928 -0.65605901945558964 0.5 0 0 1 I I -0.70710678118654746 0.70710678118654746 0.5 forward I I I I #
loop $-1 $-1 $117 $29 #
coedge $-1 $74 $74 $118 $119 reversed $46 $-1 #
face $-1 $120 $121 $18 $-1 $122 reversed single #
loop $-1 $-1 $123 $48 #
plane-surface $-1 0 -16.374467109052457 0 0 1 0 0 0 1 forward_v I I I I #
coedge $-1 $124 $125 $126 $127 forward $49 $-1 #
coedge $-1 $128 $51 $129 $130 forward $31 $-1 #
coedge $-1 $51 $128 $131 $132 forward $31 $-1 #
coedge $-1 $133 $134 $51 $82 reversed $135 $-1 #
edge $-1 $136 -16.374467109052457 $137 16.374467109052457 $81 $138 forward 7 unknown #
face $-1 $139 $140 $19 $-1 $141 forward single #
loop $-1 $-1 $89 $52 #
plane-surface $-1 0 16.374467109052457 0 0 -1 0 0 0 -1 forward_v I I I I #
coedge $-1 $142 $143 $144 $145 reversed $53 $-1 #
coedge $-1 $88 $55 $146 $147 reversed $34 $-1 #
coedge $-1 $55 $87 $142 $148 reversed $34 $-1 #
coedge $-1 $144 $149 $55 $90 forward $84 $-1 #
edge $-1 $150 37.120232231760696 $151 41.751009336112872 $89 $152 forward 7 unknown #
loop $-1 $-1 $96 $56 #
plane-surface $-1 -32.891003709219476 -9.7799944857094943 20.629261437982137 0 0.6018150307709319 0.79863550430605224 1 0 0 forward_v I I I I #
loop $-1 $-1 $153 $36 #
coedge $-1 $94 $94 $95 $154 reversed $57 $-1 #
coedge $-1 $95 $95 $94 $154 forward $59 $-1 #
coedge $-1 $96 $96 $60 $97 forward $91 $-1 #
edge $-1 $155 -2.4652763824506879e-016 $155 6.2831853071796004 $96 $156 forward 7 unknown #
face $-1 $157 $158 $21 $-1 $159 reversed single #
loop $-1 $-1 $160 $61 #
plane-surface $-1 0.31587881653865679 -77.52881516191826 54.521732528564726 1 0 0 0 0.75470958851134928 -0.65605901945558964 forward_v I I I I #
coedge $-1 $161 $162 $163 $164 reversed $62 $-1 #
coedge $-1 $103 $64 $165 $166 reversed $40 $-1 #
coedge $-1 $64 $102 $161 $167 reversed $40 $-1 #
coedge $-1 $163 $168 $64 $105 forward $169 $-1 #
edge $-1 $170 22.389940471906673 $171 26.032397437925219 $104 $172 forward 7 unknown #
loop $-1 $-1 $111 $65 #
plane-surface $-1 9.4784336468800774 -16.374467109052461 1.3610701628637116 0 -0.75470958851134928 0.65605901945558964 1 0 0 forward_v I I I I #
loop $-1 $-1 $173 $42 #
coedge $-1 $109 $109 $110 $174 reversed $66 $-1 #
coedge $-1 $110 $110 $109 $174 forward $68 $-1 #
coedge $-1 $111 $111 $69 $112 forward $106 $-1 #
edge $-1 $175 -1.9055745433050509e-016 $175 6.2831853071796004 $111 $176 forward 7 unknown #
loop $-1 $-1 $118 $70 #
plane-surface $-1 9.4784336468800774 -16.374467109052461 1.3610701628637116 0 -0.75470958851134928 0.65605901945558964 1 0 0 forward_v I I I I #
loop $-1 $-1 $177 $45 #
coedge $-1 $116 $116 $117 $178 reversed $71 $-1 #
coedge $-1 $117 $117 $116 $178 forward $73 $-1 #
coedge $-1 $118 $118 $74 $119 forward $113 $-1 #
edge $-1 $179 -1.9055745433050509e-016 $179 6.2831853071796004 $118 $180 forward 7 unknown #
face $-1 $181 $182 $18 $-1 $183 reversed single #
loop $-1 $-1 $184 $75 #
plane-surface $-1 -40.515152439954832 0 0 1 0 0 0 0 -1 forward_v I I I I #
coedge $-1 $185 $131 $186 $187 forward $76 $-1 #
coedge $-1 $188 $78 $185 $189 forward $49 $-1 #
coedge $-1 $78 $188 $190 $191 forward $49 $-1 #
coedge $-1 $134 $133 $78 $127 reversed $135 $-1 #
edge $-1 $192 -16.374467109052457 $193 16.374467109052457 $126 $194 forward 7 unknown #
coedge $-1 $80 $79 $195 $196 forward $31 $-1 #
coedge $-1 $197 $198 $79 $130 reversed $182 $-1 #
edge $-1 $137 -40.515152439954832 $199 40.515152439954832 $129 $200 forward 7 unknown #
coedge $-1 $123 $201 $80 $132 reversed $76 $-1 #
edge $-1 $202 -40.515152439954832 $136 40.515152439954832 $131 $203 forward 7 unknown #
coedge $-1 $126 $81 $201 $204 forward $135 $-1 #
coedge $-1 $81 $126 $197 $205 reversed $135 $-1 #
loop $-1 $-1 $133 $181 #
vertex $-1 $82 $206 #
vertex $-1 $82 $207 #
straight-curve $-1 40.515152439954832 0 5.5512376881502767 0 1 0 I I #
face $-1 $-1 $208 $19 $-1 $209 reversed single #
loop $-1 $-1 $146 $83 #
plane-surface $-1 0 0 5.5512376881502767 0 0 1 1 0 0 forward_v I I I I #
coedge $-1 $210 $86 $88 $148 forward $53 $-1 #
coedge $-1 $86 $210 $211 $212 reversed $53 $-1 #
coedge $-1 $213 $89 $86 $145 forward $84 $-1 #
edge $-1 $151 8.8213531238743812 $214 24.069650585345094 $144 $215 forward 7 unknown #
coedge $-1 $216 $217 $87 $147 forward $140 $-1 #
edge $-1 $218 -9.2634120148671997 $150 -3.1181633604332113 $146 $219 forward 7 unknown #
edge $-1 $151 -32.748934218104928 $218 -25.05424919433591 $88 $220 forward 7 unknown #
coedge $-1 $89 $213 $216 $221 reversed $84 $-1 #
vertex $-1 $221 $222 #
vertex $-1 $90 $223 #
straight-curve $-1 -25.266854978484119 16.374467109052457 42.671469919910976 0 0 -1 I I #
coedge $-1 $153 $153 $-1 $224 reversed $93 $-1 #
edge $-1 $225 0 $225 6.2831853071796004 $94 $226 forward 7 unknown #
vertex $-1 $97 $227 #
ellipse-curve $-1 -32.891003709219476 13.301842781835465 3.2358491359741874 0 0.6018150307709319 0.79863550430605224 1.5 0 0 1 I I #
face $-1 $-1 $169 $21 $-1 $228 forward single #
loop $-1 $-1 $229 $98 #
plane-surface $-1 0 -16.374467109052457 0 0 1 0 0 0 1 forward_v I I I I #
coedge $-1 $230 $231 $232 $233 reversed $99 $-1 #
coedge $-1 $234 $101 $103 $167 forward $62 $-1 #
coedge $-1 $101 $234 $230 $235 forward $62 $-1 #
coedge $-1 $232 $104 $101 $164 forward $169 $-1 #
edge $-1 $171 -13.901771653781459 $236 4.4233380069013819 $163 $237 forward 7 unknown #
coedge $-1 $238 $239 $102 $166 forward $158 $-1 #
edge $-1 $240 -25.899796101418648 $170 -21.709628576132086 $165 $241 forward 7 unknown #
edge $-1 $171 -5.5520263543379569 $240 -5.3472153159747578e-015 $103 $242 forward 7 unknown #
coedge $-1 $104 $232 $238 $243 forward $169 $-1 #
loop $-1 $-1 $232 $157 #
vertex $-1 $166 $244 #
vertex $-1 $105 $245 #
straight-curve $-1 18.640988477221498 -38.76440758095913 5.5512376881502767 0 1 0 I I #
coedge $-1 $173 $173 $-1 $246 reversed $108 $-1 #
edge $-1 $247 0 $247 6.2831853071796004 $109 $248 forward 7 unknown #
vertex $-1 $112 $249 #
ellipse-curve $-1 5.5516244338766114 -14.553238626043184 3.4561539255069951 0 -0.75470958851134928 0.65605901945558964 1 0 0 1 I I #
coedge $-1 $177 $177 $-1 $250 reversed $115 $-1 #
edge $-1 $251 0 $251 6.2831853071796004 $116 $252 forward 7 unknown #
vertex $-1 $119 $253 #
ellipse-curve $-1 13.405242859883543 -14.553238626043184 3.4561539255069951 0 -0.75470958851134928 0.65605901945558964 1 0 0 1 I I #
face $-1 $-1 $135 $18 $-1 $254 reversed single #
loop $-1 $-1 $197 $120 #
plane-surface $-1 0 16.374467109052457 0 0 -1 0 0 0 -1 forward_v I I I I #
coedge $-1 $255 $195 $198 $256 forward $121 $-1 #
coedge $-1 $201 $123 $124 $189 reversed $76 $-1 #
coedge $-1 $195 $255 $123 $187 reversed $121 $-1 #
edge $-1 $202 -5.5512376881502767 $257 5.5512376881502767 $186 $258 forward 7 unknown #
coedge $-1 $125 $124 $255 $259 forward $49 $-1 #
edge $-1 $193 -40.515152439954832 $257 40.515152439954832 $185 $260 forward 7 unknown #
coedge $-1 $198 $197 $125 $191 reversed $182 $-1 #
edge $-1 $261 -40.515152439954832 $192 40.515152439954832 $190 $262 forward 7 unknown #
vertex $-1 $127 $263 #
vertex $-1 $204 $264 #
straight-curve $-1 40.515152439954832 0 -5.5512376881502767 0 -1 0 I I #
coedge $-1 $184 $186 $128 $196 reversed $121 $-1 #
edge $-1 $199 -16.374467109052457 $202 16.374467109052457 $195 $265 forward 7 unknown #
coedge $-1 $190 $129 $134 $205 forward $182 $-1 #
coedge $-1 $129 $190 $184 $256 reversed $182 $-1 #
vertex $-1 $130 $266 #
straight-curve $-1 0 16.374467109052457 5.5512376881502767 -1 0 0 I I #
coedge $-1 $131 $185 $133 $204 reversed $76 $-1 #
vertex $-1 $196 $267 #
straight-curve $-1 0 -16.374467109052457 5.5512376881502767 1 0 0 I I #
edge $-1 $136 -5.5512376881502767 $193 5.5512376881502767 $133 $268 forward 7 unknown #
edge $-1 $137 -5.5512376881502767 $192 5.5512376881502767 $134 $269 forward 7 unknown #
point $-1 40.515152439954832 -16.374467109052457 5.5512376881502767 #
point $-1 40.515152439954832 16.374467109052457 5.5512376881502767 #
loop $-1 $-1 $211 $139 #
plane-surface $-1 -40.515152439954832 0 0 1 0 0 0 0 -1 forward_v I I I I #
coedge $-1 $143 $142 $217 $270 reversed $53 $-1 #
coedge $-1 $271 $272 $143 $212 forward $208 $-1 #
edge $-1 $214 -22.636109000462007 $273 -14.941423976692997 $211 $274 forward 7 unknown #
coedge $-1 $149 $144 $272 $275 reversed $84 $-1 #
vertex $-1 $145 $276 #
straight-curve $-1 -16.445501854609738 16.374467109052457 0.92046058379810347 -1 0 0 I I #
coedge $-1 $277 $146 $149 $221 forward $140 $-1 #
coedge $-1 $146 $277 $210 $270 forward $140 $-1 #
vertex $-1 $147 $278 #
straight-curve $-1 -25.266854978484119 19.492630469485668 5.5512376881502803 0 1 0 I I #
straight-curve $-1 -25.266854978484119 -9.7799944857094943 20.629261437982137 0 -0.79863550430605224 0.6018150307709319 I I #
edge $-1 $150 25.266854978484119 $279 40.515152439954832 $149 $280 forward 7 unknown #
point $-1 -25.266854978484119 16.374467109052457 5.5512376881502767 #
point $-1 -25.266854978484119 16.374467109052461 0.92046058379809992 #
edge $-1 $281 1 $281 0 $153 $-1 forward 7 unknown #
vertex $-1 $154 $282 #
ellipse-curve $-1 -32.891003709219476 11.232526216788337 0.48977335854097359 0 0.6018150307709319 0.79863550430605224 1.5 0 0 1 I I #
point $-1 -31.391003709219476 13.301842781835468 3.2358491359741928 #
plane-surface $-1 0 0 5.5512376881502767 0 0 1 1 0 0 forward_v I I I I #
coedge $-1 $239 $238 $231 $283 forward $158 $-1 #
coedge $-1 $231 $160 $162 $235 reversed $99 $-1 #
coedge $-1 $160 $230 $229 $283 reversed $99 $-1 #
coedge $-1 $168 $163 $160 $233 forward $169 $-1 #
edge $-1 $236 -26.032397437925219 $284 -22.389940471906673 $232 $285 forward 7 unknown #
coedge $-1 $162 $161 $239 $286 reversed $62 $-1 #
edge $-1 $287 5.3472153159747578e-015 $236 5.5520263543379569 $230 $288 forward 7 unknown #
vertex $-1 $164 $289 #
straight-curve $-1 4.7392168234400387 -12.732010143033909 5.5512376881502767 -1 0 0 I I #
coedge $-1 $229 $165 $168 $243 reversed $158 $-1 #
coedge $-1 $165 $229 $234 $286 forward $158 $-1 #
vertex $-1 $166 $290 #
straight-curve $-1 18.640988477221498 -16.374467109052457 27.260866264282363 0 0 1 I I #
straight-curve $-1 18.640988477221498 -16.374467109052461 1.3610701628637116 0 -0.65605901945558964 -0.75470958851134928 I I #
edge $-1 $284 0.31587881653865679 $170 18.640988477221498 $238 $291 forward 7 unknown #
point $-1 18.640988477221498 -16.374467109052457 5.5512376881502767 #
point $-1 18.640988477221498 -12.732010143033909 5.5512376881502767 #
edge $-1 $292 1 $292 0 $173 $-1 forward 7 unknown #
vertex $-1 $174 $293 #
ellipse-curve $-1 5.5516244338766114 -12.542952274370137 1.7086387053744223 0 -0.75470958851134928 0.65605901945558964 1 0 0 1 I I #
point $-1 6.5516244338766114 -14.553238626043179 3.4561539255069902 #
edge $-1 $294 1 $294 0 $177 $-1 forward 7 unknown #
vertex $-1 $178 $295 #
ellipse-curve $-1 13.405242859883543 -12.542952274370137 1.7086387053744223 0 -0.75470958851134928 0.65605901945558964 1 0 0 1 I I #
point $-1 14.405242859883543 -14.553238626043179 3.4561539255069902 #
plane-surface $-1 40.515152439954832 0 0 -1 0 0 0 0 1 forward_v I I I I #
coedge $-1 $186 $184 $188 $259 reversed $121 $-1 #
edge $-1 $199 -5.5512376881502767 $261 5.5512376881502767 $198 $296 forward 7 unknown #
vertex $-1 $259 $297 #
straight-curve $-1 -40.515152439954832 -16.374467109052457 0 0 0 -1 I I #
edge $-1 $257 -16.374467109052457 $261 16.374467109052457 $255 $298 forward 7 unknown #
straight-curve $-1 0 -16.374467109052457 -5.5512376881502767 -1 0 0 I I #
vertex $-1 $191 $299 #
straight-curve $-1 0 16.374467109052457 -5.5512376881502767 1 0 0 I I #
point $-1 40.515152439954832 16.374467109052457 -5.5512376881502767 #
point $-1 40.515152439954832 -16.374467109052457 -5.5512376881502767 #
straight-curve $-1 -40.515152439954832 0 5.5512376881502767 0 -1 0 I I #
point $-1 -40.515152439954832 16.374467109052457 5.5512376881502767 #
point $-1 -40.515152439954832 -16.374467109052457 5.5512376881502767 #
straight-curve $-1 40.515152439954832 -16.374467109052457 0 0 0 -1 I I #
straight-curve $-1 40.515152439954832 16.374467109052457 0 0 0 -1 I I #
edge $-1 $273 -24.069650585345094 $218 -8.8213531238743812 $217 $300 forward 7 unknown #
coedge $-1 $272 $211 $277 $301 reversed $208 $-1 #
coedge $-1 $211 $271 $213 $275 forward $208 $-1 #
vertex $-1 $212 $302 #
straight-curve $-1 -40.515152439954832 -1.7035332180582827 14.543211218445311 0 -0.79863550430605224 0.6018150307709319 I I #
edge $-1 $279 -5.5512376881502767 $214 -0.92046058379810136 $213 $303 forward 7 unknown #
point $-1 -40.515152439954832 16.374467109052457 0.92046058379810136 #
coedge $-1 $217 $216 $271 $301 forward $140 $-1 #
point $-1 -25.266854978484119 10.229218454618469 5.5512376881502767 #
vertex $-1 $221 $304 #
straight-curve $-1 0 16.374467109052457 5.5512376881502767 -1 0 0 I I #
vertex $-1 $224 $305 #
point $-1 -31.391003709219476 11.232526216788337 0.48977335854097359 #
edge $-1 $284 21.709628576132086 $287 25.899796101418648 $229 $306 forward 7 unknown #
vertex $-1 $243 $307 #
straight-curve $-1 0.31587881653865679 -38.76440758095913 5.5512376881502767 0 -1 0 I I #
edge $-1 $287 -4.4233380069013819 $240 13.901771653781459 $239 $308 forward 7 unknown #
vertex $-1 $286 $309 #
straight-curve $-1 0.31587881653865679 -16.374467109052461 1.3610701628637116 0 0.65605901945558964 0.75470958851134928 I I #
point $-1 0.31587881653865679 -12.732010143033909 5.5512376881502767 #
point $-1 18.640988477221498 -16.374467109052457 1.3610701628637156 #
straight-curve $-1 0 -16.374467109052457 5.5512376881502767 1 0 0 I I #
vertex $-1 $246 $310 #
point $-1 6.5516244338766114 -12.542952274370137 1.7086387053744223 #
vertex $-1 $250 $311 #
point $-1 14.405242859883543 -12.542952274370137 1.7086387053744223 #
straight-curve $-1 -40.515152439954832 16.374467109052457 0 0 0 -1 I I #
point $-1 -40.515152439954832 -16.374467109052457 -5.5512376881502767 #
straight-curve $-1 -40.515152439954832 0 -5.5512376881502767 0 1 0 I I #
point $-1 -40.515152439954832 16.374467109052457 -5.5512376881502767 #
straight-curve $-1 -16.445501854609738 10.229218454618465 5.5512376881502767 1 0 0 I I #
edge $-1 $279 -16.374467109052457 $273 -10.229218454618469 $271 $312 forward 7 unknown #
point $-1 -40.515152439954832 10.229218454618469 5.5512376881502767 #
straight-curve $-1 -40.515152439954832 16.374467109052457 0 0 0 -1 I I #
point $-1 -40.515152439954832 16.374467109052457 5.5512376881502767 #
point $-1 -32.891003709219476 10.329803670631939 -0.70817989791810487 #
straight-curve $-1 0.31587881653865679 -16.374467109052457 27.260866264282363 0 0 -1 I I #
point $-1 0.31587881653865679 -16.374467109052457 5.5512376881502767 #
straight-curve $-1 4.7392168234400387 -16.374467109052457 1.3610701628637185 1 0 0 I I #
point $-1 0.31587881653865679 -16.374467109052457 1.3610701628637156 #
point $-1 5.5516244338766114 -11.788242685858787 1.0525796859188328 #
point $-1 13.405242859883543 -11.788242685858787 1.0525796859188328 #
straight-curve $-1 -40.515152439954832 0 5.5512376881502767 0 -1 0 I I #
End-of-ACIS-data 