500 0 7 0           
7 Unknown 11 ACIS 5.0 NT 24 Thu Mar 25 19:08:52 1999 
-1 9.9999999999999995e-007 1e-010 
body $-1 $7 $-1 $8 #
body $-1 $9 $-1 $10 #
body $-1 $11 $-1 $12 #
body $-1 $13 $-1 $14 #
body $-1 $15 $-1 $16 #
body $-1 $17 $-1 $18 #
body $-1 $19 $-1 $20 #
lump $-1 $-1 $21 $0 #
transform $-1 1 0 0 0 1 0 0 0 1 59.752800073244423 27.962567104804531 8.3848446024432182 1 rotate no_reflect no_shear #
lump $-1 $-1 $22 $1 #
transform $-1 1 0 0 0 1 0 0 0 1 59.752800073244423 27.962567104804531 8.3848446024432182 1 rotate no_reflect no_shear #
lump $-1 $-1 $23 $2 #
transform $-1 1 0 0 0 1 0 0 0 1 59.752800073244423 27.962567104804531 8.3848446024432182 1 rotate no_reflect no_shear #
lump $-1 $-1 $24 $3 #
transform $-1 1 0 0 0 1 0 0 0 1 59.752800073244423 27.962567104804531 8.3848446024432182 1 rotate no_reflect no_shear #
lump $-1 $-1 $25 $4 #
transform $-1 1 0 0 0 1 0 0 0 1 59.752800073244423 27.962567104804531 8.3848446024432182 1 rotate no_reflect no_shear #
lump $-1 $-1 $26 $5 #
transform $-1 1 0 0 0 1 0 0 0 1 59.752800073244423 27.962567104804531 8.3848446024432182 1 rotate no_reflect no_shear #
lump $-1 $-1 $27 $6 #
transform $-1 1 0 0 0 1 0 0 0 1 59.752800073244423 27.962567104804531 8.3848446024432182 1 rotate no_reflect no_shear #
shell $-1 $-1 $-1 $28 $-1 $7 #
shell $-1 $-1 $-1 $29 $-1 $9 #
shell $-1 $-1 $-1 $30 $-1 $11 #
shell $-1 $-1 $-1 $31 $-1 $13 #
shell $-1 $-1 $-1 $32 $-1 $15 #
shell $-1 $-1 $-1 $33 $-1 $17 #
shell $-1 $-1 $-1 $34 $-1 $19 #
face $-1 $35 $36 $21 $-1 $37 forward single #
face $-1 $38 $39 $22 $-1 $40 forward single #
face $-1 $41 $42 $23 $-1 $43 reversed single #
face $-1 $44 $45 $24 $-1 $46 forward single #
face $-1 $47 $48 $25 $-1 $49 reversed single #
face $-1 $50 $51 $26 $-1 $52 forward single #
face $-1 $53 $54 $27 $-1 $55 forward single #
face $-1 $56 $57 $21 $-1 $58 reversed single #
loop $-1 $-1 $59 $28 #
plane-surface $-1 0 0 8.3848446024432182 0 0 1 1 0 0 forward_v I I I I #
face $-1 $60 $61 $22 $-1 $62 reversed single #
loop $-1 $-1 $63 $29 #
plane-surface $-1 0 -27.962567104804531 0 0 1 0 0 0 1 forward_v I I I I #
face $-1 $64 $65 $23 $-1 $66 reversed single #
loop $-1 $-1 $67 $30 #
plane-surface $-1 21.734624449041483 5.4828532850448504 166.27776400154445 0 -1 0 -0.52991927123019833 0 -0.84804809178421925 forward_v I I I I #
face $-1 $68 $69 $24 $-1 $70 forward single #
loop $-1 $71 $72 $31 #
cone-surface $-1 51.857702099753837 -0.1256490031226889 1.0435568785935301 -0.52991927123019833 0 -0.84804809178421925 2.1201202294605483 0 -1.3247981780754958 1 I I 0 1 2.5 forward I I I I #
face $-1 $73 $74 $25 $-1 $75 reversed single #
loop $-1 $-1 $76 $32 #
plane-surface $-1 -141.25542436043762 9.5953077620593561 90.314729117274794 0 1 0 -0.68199836817093118 0 0.7313536940579346 forward_v I I I I #
face $-1 $77 $78 $26 $-1 $79 forward single #
loop $-1 $80 $81 $33 #
cone-surface $-1 -55.382617766279509 13.104221996706062 4.108651780657695 0.68199836817093118 0 -0.7313536940579346 1.0970305410869019 0 1.0229975522563968 1 I I 0 1 1.5 forward I I I I #
face $-1 $82 $83 $27 $-1 $84 forward single #
loop $-1 $85 $86 $34 #
cone-surface $-1 -55.382617766279509 18.367593348676127 4.108651780657695 0.68199836817093118 0 -0.7313536940579346 1.0970305410869019 0 1.0229975522563968 1 I I 0 1 1.5 forward I I I I #
face $-1 $87 $88 $21 $-1 $89 reversed single #
loop $-1 $-1 $90 $35 #
plane-surface $-1 0 0 -8.3848446024432182 0 0 1 1 0 0 forward_v I I I I #
coedge $-1 $91 $92 $93 $94 forward $36 $-1 #
face $-1 $95 $96 $22 $-1 $97 reversed single #
loop $-1 $-1 $98 $38 #
plane-surface $-1 0 0 -8.3848446024432182 0 0 1 1 0 0 forward_v I I I I #
coedge $-1 $99 $100 $101 $102 forward $39 $-1 #
face $-1 $103 $104 $23 $-1 $105 reversed single #
loop $-1 $-1 $106 $41 #
plane-surface $-1 -41.593696088513369 -0.1256490031226889 64.93126783978667 0.52991927123019833 0 0.84804809178421925 0.84804809178421925 0 -0.52991927123019833 forward_v I I I I #
coedge $-1 $107 $108 $109 $110 reversed $42 $-1 #
face $-1 $-1 $111 $24 $-1 $112 forward single #
loop $-1 $113 $114 $44 #
cone-surface $-1 48.726857148564157 -0.1256490031226889 -3.9668423098807413 -0.52991927123019833 0 -0.84804809178421925 1.0600601147302742 0 -0.66239908903774791 1 I I -0.70710678118654746 0.70710678118654746 1.25 forward I I I I #
loop $-1 $-1 $115 $31 #
coedge $-1 $72 $72 $116 $117 reversed $45 $-1 #
face $-1 $118 $119 $25 $-1 $120 reversed single #
loop $-1 $-1 $121 $47 #
plane-surface $-1 -59.75280007324443 15.735907672691102 2.9138669895297227 -0.68199836817093118 0 0.7313536940579346 0.7313536940579346 0 0.68199836817093118 forward_v I I I I #
coedge $-1 $122 $123 $124 $125 reversed $48 $-1 #
face $-1 $-1 $126 $26 $-1 $127 forward single #
loop $-1 $128 $129 $50 #
cone-surface $-1 -53.434389220648853 13.104221996706062 2.0194324947854643 0.68199836817093118 0 -0.7313536940579346 0.54851527054345095 0 0.51149877612819838 1 I I -0.70710678118654757 0.70710678118654757 0.75 forward I I I I #
loop $-1 $-1 $130 $33 #
coedge $-1 $81 $81 $131 $132 reversed $51 $-1 #
face $-1 $-1 $133 $27 $-1 $134 forward single #
loop $-1 $135 $136 $53 #
cone-surface $-1 -53.434389220648853 18.367593348676127 2.0194324947854643 0.68199836817093118 0 -0.7313536940579346 0.54851527054345095 0 0.51149877612819838 1 I I -0.70710678118654757 0.70710678118654757 0.75 forward I I I I #
loop $-1 $-1 $137 $34 #
coedge $-1 $86 $86 $138 $139 reversed $54 $-1 #
face $-1 $140 $141 $21 $-1 $142 reversed single #
loop $-1 $-1 $143 $56 #
plane-surface $-1 0 -27.962567104804531 0 0 1 0 0 0 1 forward_v I I I I #
coedge $-1 $144 $145 $146 $147 forward $57 $-1 #
coedge $-1 $148 $59 $149 $150 forward $36 $-1 #
coedge $-1 $59 $148 $151 $152 forward $36 $-1 #
coedge $-1 $153 $154 $59 $94 reversed $155 $-1 #
edge $-1 $156 -27.962567104804531 $157 27.962567104804531 $93 $158 forward 7 unknown #
face $-1 $159 $160 $22 $-1 $161 forward single #
loop $-1 $-1 $162 $60 #
plane-surface $-1 59.752800073244423 0 0 -1 0 0 0 0 1 forward_v I I I I #
coedge $-1 $163 $164 $165 $166 forward $61 $-1 #
coedge $-1 $165 $63 $162 $167 reversed $39 $-1 #
coedge $-1 $63 $165 $168 $169 reversed $39 $-1 #
coedge $-1 $170 $171 $63 $102 reversed $160 $-1 #
edge $-1 $172 -59.752800073244423 $173 59.752800073244423 $101 $174 forward 7 unknown #
face $-1 $175 $176 $23 $-1 $177 reversed single #
loop $-1 $-1 $178 $64 #
plane-surface $-1 21.734624449041483 -5.7341512912902282 166.27776400154445 0 1 0 0.52991927123019833 0 0.84804809178421925 forward_v I I I I #
coedge $-1 $179 $180 $181 $182 reversed $65 $-1 #
coedge $-1 $108 $67 $183 $184 reversed $42 $-1 #
coedge $-1 $67 $107 $179 $185 reversed $42 $-1 #
coedge $-1 $181 $186 $67 $110 forward $187 $-1 #
edge $-1 $188 -48.885487848723685 $189 -38.032183626046304 $109 $190 forward 7 unknown #
loop $-1 $-1 $116 $68 #
plane-surface $-1 -41.593696088513369 -0.1256490031226889 64.93126783978667 0.52991927123019833 0 0.84804809178421925 0.84804809178421925 0 -0.52991927123019833 forward_v I I I I #
loop $-1 $-1 $191 $44 #
coedge $-1 $114 $114 $115 $192 reversed $69 $-1 #
coedge $-1 $115 $115 $114 $192 forward $71 $-1 #
coedge $-1 $116 $116 $72 $117 forward $111 $-1 #
edge $-1 $193 0 $193 6.2831853071796004 $116 $194 forward 7 unknown #
face $-1 $195 $196 $25 $-1 $197 forward single #
loop $-1 $-1 $198 $73 #
plane-surface $-1 -141.25542436043762 21.876507583322848 90.314729117274794 0 -1 0 0.68199836817093118 0 -0.7313536940579346 forward_v I I I I #
coedge $-1 $199 $200 $201 $202 reversed $74 $-1 #
coedge $-1 $123 $76 $203 $204 reversed $48 $-1 #
coedge $-1 $76 $122 $199 $205 reversed $48 $-1 #
coedge $-1 $201 $206 $76 $125 forward $196 $-1 #
edge $-1 $207 10.874912106974385 $208 16.741817181899293 $124 $209 forward 7 unknown #
loop $-1 $-1 $131 $77 #
plane-surface $-1 -59.75280007324443 15.735907672691102 2.9138669895297227 -0.68199836817093118 0 0.7313536940579346 0.7313536940579346 0 0.68199836817093118 forward_v I I I I #
loop $-1 $-1 $210 $50 #
coedge $-1 $129 $129 $130 $211 reversed $78 $-1 #
coedge $-1 $130 $130 $129 $211 forward $80 $-1 #
coedge $-1 $131 $131 $81 $132 forward $126 $-1 #
edge $-1 $212 0 $212 6.2831853071796004 $131 $213 forward 7 unknown #
loop $-1 $-1 $138 $82 #
plane-surface $-1 -59.75280007324443 15.735907672691102 2.9138669895297227 -0.68199836817093118 0 0.7313536940579346 0.7313536940579346 0 0.68199836817093118 forward_v I I I I #
loop $-1 $-1 $214 $53 #
coedge $-1 $136 $136 $137 $215 reversed $83 $-1 #
coedge $-1 $137 $137 $136 $215 forward $85 $-1 #
coedge $-1 $138 $138 $86 $139 forward $133 $-1 #
edge $-1 $216 0 $216 6.2831853071796004 $138 $217 forward 7 unknown #
face $-1 $218 $219 $21 $-1 $220 reversed single #
loop $-1 $-1 $221 $87 #
plane-surface $-1 -59.752800073244423 0 0 1 0 0 0 0 -1 forward_v I I I I #
coedge $-1 $151 $222 $153 $223 reversed $88 $-1 #
coedge $-1 $224 $90 $222 $225 forward $57 $-1 #
coedge $-1 $90 $224 $226 $227 forward $57 $-1 #
coedge $-1 $154 $153 $90 $147 reversed $155 $-1 #
edge $-1 $228 -27.962567104804531 $229 27.962567104804531 $146 $230 forward 7 unknown #
coedge $-1 $92 $91 $231 $232 forward $36 $-1 #
coedge $-1 $233 $234 $91 $150 reversed $219 $-1 #
edge $-1 $157 -59.752800073244423 $235 59.752800073244423 $149 $236 forward 7 unknown #
coedge $-1 $237 $143 $92 $152 reversed $88 $-1 #
edge $-1 $238 -59.752800073244423 $156 59.752800073244423 $151 $239 forward 7 unknown #
coedge $-1 $146 $93 $143 $223 forward $155 $-1 #
coedge $-1 $93 $146 $233 $240 reversed $155 $-1 #
loop $-1 $-1 $153 $218 #
vertex $-1 $94 $241 #
vertex $-1 $94 $242 #
straight-curve $-1 59.752800073244423 0 8.3848446024432182 0 1 0 I I #
face $-1 $243 $244 $22 $-1 $245 reversed single #
loop $-1 $-1 $171 $95 #
plane-surface $-1 0 -32.143423044258803 -5.3848446024432182 0 0 1 1 0 0 forward_v I I I I #
coedge $-1 $246 $247 $99 $167 forward $96 $-1 #
coedge $-1 $248 $98 $247 $249 forward $61 $-1 #
coedge $-1 $98 $248 $250 $251 forward $61 $-1 #
coedge $-1 $100 $99 $98 $166 reversed $39 $-1 #
edge $-1 $252 -59.752800073244423 $253 59.752800073244423 $98 $254 forward 7 unknown #
edge $-1 $253 -8.3848446024432182 $173 -5.3848446024432182 $162 $255 forward 7 unknown #
coedge $-1 $250 $256 $100 $169 forward $257 $-1 #
edge $-1 $172 5.3848446024432182 $252 8.3848446024432182 $168 $258 forward 7 unknown #
coedge $-1 $259 $101 $256 $260 forward $160 $-1 #
coedge $-1 $101 $259 $246 $261 forward $160 $-1 #
vertex $-1 $169 $262 #
vertex $-1 $261 $263 #
straight-curve $-1 0 -27.962567104804531 -5.3848446024432182 1 0 0 I I #
face $-1 $-1 $187 $23 $-1 $264 forward single #
loop $-1 $-1 $265 $103 #
plane-surface $-1 59.752800073244423 0 0 -1 0 0 0 0 1 forward_v I I I I #
coedge $-1 $266 $267 $268 $269 reversed $104 $-1 #
coedge $-1 $270 $106 $108 $185 forward $65 $-1 #
coedge $-1 $106 $270 $266 $271 forward $65 $-1 #
coedge $-1 $268 $109 $106 $182 forward $187 $-1 #
edge $-1 $189 -5.5456777866061948 $272 5.6713267897288837 $181 $273 forward 7 unknown #
coedge $-1 $274 $275 $107 $184 forward $176 $-1 #
edge $-1 $276 -81.535934698540416 $188 -74.754037398329004 $183 $277 forward 7 unknown #
edge $-1 $189 106.70761813600764 $276 119.50560014648886 $108 $278 forward 7 unknown #
coedge $-1 $109 $268 $274 $279 forward $187 $-1 #
loop $-1 $-1 $268 $175 #
vertex $-1 $184 $280 #
vertex $-1 $110 $281 #
straight-curve $-1 10.867312224520742 5.4828532850448504 8.3848446024432235 -1 0 0 I I #
coedge $-1 $191 $191 $-1 $282 reversed $113 $-1 #
edge $-1 $283 0 $283 6.2831853071796004 $114 $284 forward 7 unknown #
vertex $-1 $117 $285 #
ellipse-curve $-1 54.326147961905754 -0.1256490031226889 4.9938959523375059 0.52991927123019833 0 0.84804809178421925 2.1201202294605483 0 -1.3247981780754958 1 I I #
face $-1 $-1 $286 $25 $-1 $287 reversed single #
loop $-1 $-1 $124 $118 #
plane-surface $-1 0 0 8.3848446024432182 0 0 1 1 0 0 forward_v I I I I #
coedge $-1 $288 $289 $290 $291 reversed $119 $-1 #
coedge $-1 $292 $121 $123 $205 forward $74 $-1 #
coedge $-1 $121 $292 $288 $293 forward $74 $-1 #
coedge $-1 $290 $124 $121 $202 forward $196 $-1 #
edge $-1 $208 1.7273539257138051 $294 14.008553746977297 $201 $295 forward 7 unknown #
coedge $-1 $296 $297 $122 $204 forward $286 $-1 #
edge $-1 $298 -42.243497569107667 $207 -36.772519956194181 $203 $299 forward 7 unknown #
edge $-1 $208 -8.0219805035402789 $298 -9.739602292442716e-015 $123 $300 forward 7 unknown #
coedge $-1 $124 $290 $296 $301 forward $196 $-1 #
vertex $-1 $204 $302 #
vertex $-1 $125 $303 #
straight-curve $-1 -70.627712180218808 9.5953077620593561 8.3848446024432164 1 0 0 I I #
coedge $-1 $210 $210 $-1 $304 reversed $128 $-1 #
edge $-1 $305 0 $305 6.2831853071796004 $129 $306 forward 7 unknown #
vertex $-1 $132 $307 #
ellipse-curve $-1 -56.819347535781972 13.104221996706062 5.6493557959864749 -0.68199836817093118 0 0.7313536940579346 1.0970305410869019 0 1.0229975522563968 1 I I #
coedge $-1 $214 $214 $-1 $308 reversed $135 $-1 #
edge $-1 $309 0 $309 6.2831853071796004 $136 $310 forward 7 unknown #
vertex $-1 $139 $311 #
ellipse-curve $-1 -56.819347535781972 18.367593348676127 5.6493557959864749 -0.68199836817093118 0 0.7313536940579346 1.0970305410869019 0 1.0229975522563968 1 I I #
face $-1 $-1 $155 $21 $-1 $312 reversed single #
loop $-1 $-1 $233 $140 #
plane-surface $-1 0 27.962567104804531 0 0 -1 0 0 0 -1 forward_v I I I I #
coedge $-1 $313 $231 $234 $314 forward $141 $-1 #
coedge $-1 $143 $237 $144 $225 reversed $88 $-1 #
edge $-1 $156 -8.3848446024432182 $229 8.3848446024432182 $153 $315 forward 7 unknown #
coedge $-1 $145 $144 $313 $316 forward $57 $-1 #
edge $-1 $229 -59.752800073244423 $317 59.752800073244423 $222 $318 forward 7 unknown #
coedge $-1 $234 $233 $145 $227 reversed $219 $-1 #
edge $-1 $319 -59.752800073244423 $228 59.752800073244423 $226 $320 forward 7 unknown #
vertex $-1 $147 $321 #
vertex $-1 $223 $322 #
straight-curve $-1 59.752800073244423 0 -8.3848446024432182 0 -1 0 I I #
coedge $-1 $221 $323 $148 $232 reversed $141 $-1 #
edge $-1 $235 -27.962567104804531 $238 27.962567104804531 $231 $324 forward 7 unknown #
coedge $-1 $226 $149 $154 $240 forward $219 $-1 #
coedge $-1 $149 $226 $221 $314 reversed $219 $-1 #
vertex $-1 $150 $325 #
straight-curve $-1 0 27.962567104804531 8.3848446024432182 -1 0 0 I I #
coedge $-1 $222 $151 $323 $326 forward $88 $-1 #
vertex $-1 $232 $327 #
straight-curve $-1 0 -27.962567104804531 8.3848446024432182 1 0 0 I I #
edge $-1 $157 -8.3848446024432182 $228 8.3848446024432182 $154 $328 forward 7 unknown #
point $-1 59.752800073244423 -27.962567104804531 8.3848446024432182 #
point $-1 59.752800073244423 27.962567104804531 8.3848446024432182 #
face $-1 $-1 $257 $22 $-1 $329 reversed single #
loop $-1 $-1 $330 $159 #
plane-surface $-1 0 -36.324278983713072 -6.8848446024432182 0 1 0 0 0 1 forward_v I I I I #
coedge $-1 $331 $162 $171 $261 reversed $96 $-1 #
coedge $-1 $162 $331 $163 $249 reversed $96 $-1 #
coedge $-1 $164 $163 $332 $333 forward $61 $-1 #
edge $-1 $253 27.962567104804531 $334 36.324278983713072 $247 $335 forward 7 unknown #
coedge $-1 $336 $168 $164 $251 reversed $257 $-1 #
edge $-1 $337 -36.324278983713072 $252 -27.962567104804531 $250 $338 forward 7 unknown #
vertex $-1 $169 $339 #
vertex $-1 $249 $340 #
straight-curve $-1 0 -27.962567104804531 -8.3848446024432182 1 0 0 I I #
straight-curve $-1 59.752800073244423 -27.962567104804531 0 0 0 1 I I #
coedge $-1 $168 $336 $170 $260 reversed $257 $-1 #
loop $-1 $-1 $168 $243 #
straight-curve $-1 -59.752800073244423 -27.962567104804531 0 0 0 -1 I I #
coedge $-1 $171 $170 $341 $342 forward $160 $-1 #
edge $-1 $172 -4.1808559394542684 $343 4.1808559394542684 $256 $344 forward 7 unknown #
edge $-1 $345 -4.1808559394542684 $173 4.1808559394542684 $246 $346 forward 7 unknown #
point $-1 -59.752800073244423 -27.962567104804535 -5.3848446024432182 #
point $-1 59.752800073244423 -27.962567104804535 -5.3848446024432182 #
plane-surface $-1 0 0 8.3848446024432182 0 0 1 1 0 0 forward_v I I I I #
coedge $-1 $275 $274 $267 $347 forward $176 $-1 #
coedge $-1 $267 $178 $180 $271 reversed $104 $-1 #
coedge $-1 $178 $266 $265 $347 reversed $104 $-1 #
coedge $-1 $186 $181 $178 $269 forward $187 $-1 #
edge $-1 $272 38.032183626046304 $348 48.885487848723685 $268 $349 forward 7 unknown #
coedge $-1 $180 $179 $275 $350 reversed $65 $-1 #
edge $-1 $351 -119.50560014648886 $272 -106.70761813600764 $266 $352 forward 7 unknown #
vertex $-1 $182 $353 #
straight-curve $-1 48.899495850567057 -0.062824501561344448 8.3848446024432164 0 -1 0 I I #
coedge $-1 $265 $183 $186 $279 reversed $176 $-1 #
coedge $-1 $183 $265 $270 $350 forward $176 $-1 #
vertex $-1 $184 $354 #
straight-curve $-1 59.752800073244423 5.4828532850448504 83.138882000772227 0 0 1 I I #
straight-curve $-1 -41.593696088513369 5.4828532850448504 64.93126783978667 0.84804809178421925 0 -0.52991927123019833 I I #
edge $-1 $348 -5.7341512912902282 $188 5.4828532850448504 $274 $355 forward 7 unknown #
point $-1 59.752800073244423 5.4828532850448504 8.3848446024432182 #
point $-1 48.89949585056705 5.4828532850448504 8.3848446024432164 #
edge $-1 $356 1 $356 0 $191 $-1 forward 7 unknown #
vertex $-1 $192 $357 #
ellipse-curve $-1 49.389256237601906 -0.1256490031226889 -2.9067821951504671 0.52991927123019833 0 0.84804809178421925 2.1201202294605483 0 -1.3247981780754958 1 I I #
point $-1 56.446268191366315 -0.1256490031226889 3.6690977742620321 #
loop $-1 $-1 $203 $195 #
plane-surface $-1 -59.752800073244423 0 0 1 0 0 0 0 -1 forward_v I I I I #
coedge $-1 $289 $198 $200 $293 reversed $119 $-1 #
coedge $-1 $198 $288 $358 $359 reversed $119 $-1 #
coedge $-1 $206 $201 $198 $291 forward $196 $-1 #
edge $-1 $294 -16.741817181899293 $360 -10.874912106974385 $290 $361 forward 7 unknown #
coedge $-1 $200 $199 $297 $362 reversed $74 $-1 #
edge $-1 $363 9.739602292442716e-015 $294 8.0219805035402789 $288 $364 forward 7 unknown #
vertex $-1 $202 $365 #
straight-curve $-1 -53.885894998319515 7.867953836345551 8.3848446024432182 0 1 0 I I #
coedge $-1 $358 $203 $206 $301 reversed $286 $-1 #
coedge $-1 $203 $358 $292 $362 forward $286 $-1 #
vertex $-1 $204 $366 #
straight-curve $-1 -59.752800073244423 9.5953077620593561 45.157364558637397 0 0 1 I I #
straight-curve $-1 -59.75280007324443 9.5953077620593561 2.9138669895297227 -0.7313536940579346 0 -0.68199836817093118 I I #
edge $-1 $360 -21.876507583322848 $207 -9.5953077620593561 $296 $367 forward 7 unknown #
point $-1 -59.752800073244423 9.5953077620593561 8.3848446024432182 #
point $-1 -53.885894998319515 9.5953077620593561 8.3848446024432164 #
edge $-1 $368 1 $368 0 $210 $-1 forward 7 unknown #
vertex $-1 $211 $369 #
ellipse-curve $-1 -53.945887996777053 13.104221996706062 2.5679477653289151 -0.68199836817093118 0 0.7313536940579346 1.0970305410869019 0 1.0229975522563968 1 I I #
point $-1 -55.72231699469507 13.104221996706062 6.6723533482428721 #
edge $-1 $370 1 $370 0 $214 $-1 forward 7 unknown #
vertex $-1 $215 $371 #
ellipse-curve $-1 -53.945887996777053 18.367593348676127 2.5679477653289151 -0.68199836817093118 0 0.7313536940579346 1.0970305410869019 0 1.0229975522563968 1 I I #
point $-1 -55.72231699469507 18.367593348676127 6.6723533482428721 #
plane-surface $-1 59.752800073244423 0 0 -1 0 0 0 0 1 forward_v I I I I #
coedge $-1 $323 $221 $224 $316 reversed $141 $-1 #
edge $-1 $235 -8.3848446024432182 $319 8.3848446024432182 $234 $372 forward 7 unknown #
straight-curve $-1 59.752800073244423 -27.962567104804531 0 0 0 -1 I I #
edge $-1 $317 -27.962567104804531 $319 27.962567104804531 $313 $373 forward 7 unknown #
vertex $-1 $316 $374 #
straight-curve $-1 0 -27.962567104804531 -8.3848446024432182 -1 0 0 I I #
vertex $-1 $227 $375 #
straight-curve $-1 0 27.962567104804531 -8.3848446024432182 1 0 0 I I #
point $-1 59.752800073244423 27.962567104804531 -8.3848446024432182 #
point $-1 59.752800073244423 -27.962567104804531 -8.3848446024432182 #
coedge $-1 $231 $313 $237 $326 reversed $141 $-1 #
straight-curve $-1 -59.752800073244423 0 8.3848446024432182 0 -1 0 I I #
point $-1 -59.752800073244423 27.962567104804531 8.3848446024432182 #
edge $-1 $238 -8.3848446024432182 $317 8.3848446024432182 $323 $376 forward 7 unknown #
point $-1 -59.752800073244423 -27.962567104804531 8.3848446024432182 #
straight-curve $-1 59.752800073244423 27.962567104804531 0 0 0 -1 I I #
plane-surface $-1 -59.752800073244423 0 0 1 0 0 0 0 -1 forward_v I I I I #
coedge $-1 $332 $341 $336 $377 forward $244 $-1 #
coedge $-1 $247 $246 $378 $379 forward $96 $-1 #
coedge $-1 $378 $330 $248 $333 reversed $244 $-1 #
edge $-1 $334 -59.752800073244423 $337 59.752800073244423 $332 $380 forward 7 unknown #
vertex $-1 $379 $381 #
straight-curve $-1 59.752800073244423 0 -8.3848446024432182 0 -1 0 I I #
coedge $-1 $256 $250 $330 $377 reversed $257 $-1 #
vertex $-1 $251 $382 #
straight-curve $-1 -59.752800073244423 0 -8.3848446024432182 0 1 0 I I #
point $-1 -59.752800073244423 -27.962567104804531 -8.3848446024432182 #
point $-1 59.752800073244423 -27.962567104804531 -8.3848446024432182 #
coedge $-1 $330 $378 $259 $342 reversed $244 $-1 #
edge $-1 $343 -59.752800073244423 $345 59.752800073244423 $341 $383 forward 7 unknown #
vertex $-1 $260 $384 #
straight-curve $-1 -59.752800073244423 -32.143423044258803 -5.3848446024432182 0 -1 0 I I #
vertex $-1 $261 $385 #
straight-curve $-1 59.752800073244423 -32.143423044258803 -5.3848446024432182 0 1 0 I I #
edge $-1 $348 74.754037398329004 $351 81.535934698540416 $265 $386 forward 7 unknown #
vertex $-1 $279 $387 #
straight-curve $-1 10.867312224520742 -5.7341512912902282 8.3848446024432235 1 0 0 I I #
edge $-1 $351 -5.6713267897288837 $276 5.5456777866061948 $275 $388 forward 7 unknown #
vertex $-1 $350 $389 #
straight-curve $-1 -41.593696088513369 -5.7341512912902282 64.93126783978667 -0.84804809178421925 0 0.52991927123019833 I I #
point $-1 48.89949585056705 -5.7341512912902282 8.3848446024432164 #
point $-1 59.752800073244416 5.4828532850448504 1.6029473022318115 #
straight-curve $-1 59.752800073244423 0 8.3848446024432182 0 1 0 I I #
vertex $-1 $282 $390 #
point $-1 51.509376467062452 -0.1256490031226889 -4.2315803732259631 #
coedge $-1 $297 $296 $289 $359 forward $286 $-1 #
edge $-1 $360 36.772519956194181 $363 42.243497569107667 $358 $391 forward 7 unknown #
vertex $-1 $301 $392 #
straight-curve $-1 -70.627712180218808 21.876507583322848 8.3848446024432164 -1 0 0 I I #
edge $-1 $363 -14.008553746977297 $298 -1.7273539257138051 $297 $393 forward 7 unknown #
vertex $-1 $362 $394 #
straight-curve $-1 -59.75280007324443 21.876507583322848 2.9138669895297227 0.7313536940579346 0 0.68199836817093118 I I #
point $-1 -53.885894998319515 21.876507583322848 8.3848446024432164 #
point $-1 -59.752800073244423 9.5953077620593561 2.9138669895297293 #
straight-curve $-1 -59.752800073244423 0 8.3848446024432182 0 -1 0 I I #
vertex $-1 $304 $395 #
point $-1 -52.848857455690151 13.104221996706062 3.5909453175853119 #
vertex $-1 $308 $396 #
point $-1 -52.848857455690151 18.367593348676127 3.5909453175853119 #
straight-curve $-1 -59.752800073244423 27.962567104804531 0 0 0 -1 I I #
straight-curve $-1 -59.752800073244423 0 -8.3848446024432182 0 1 0 I I #
point $-1 -59.752800073244423 -27.962567104804531 -8.3848446024432182 #
point $-1 -59.752800073244423 27.962567104804531 -8.3848446024432182 #
straight-curve $-1 -59.752800073244423 -27.962567104804531 0 0 0 -1 I I #
edge $-1 $343 -1.5 $337 1.5 $336 $397 forward 7 unknown #
coedge $-1 $341 $332 $331 $379 reversed $244 $-1 #
edge $-1 $345 -1.5 $334 1.5 $331 $398 forward 7 unknown #
straight-curve $-1 0 -36.324278983713072 -8.3848446024432182 -1 0 0 I I #
point $-1 59.752800073244423 -36.324278983713072 -8.3848446024432182 #
point $-1 -59.752800073244423 -36.324278983713072 -8.3848446024432182 #
straight-curve $-1 0 -36.324278983713072 -5.3848446024432182 1 0 0 I I #
point $-1 -59.752800073244423 -36.324278983713072 -5.3848446024432182 #
point $-1 59.752800073244423 -36.324278983713072 -5.3848446024432182 #
straight-curve $-1 59.752800073244423 -5.7341512912902282 83.138882000772227 0 0 -1 I I #
point $-1 59.752800073244423 -5.7341512912902282 8.3848446024432182 #
straight-curve $-1 59.75280007324443 -0.062824501561344448 1.6029473022318115 0 1 0 I I #
point $-1 59.752800073244416 -5.7341512912902282 1.6029473022318115 #
point $-1 48.064458059526409 -0.1256490031226889 -5.0269024246110154 #
straight-curve $-1 -59.752800073244423 21.876507583322848 45.157364558637397 0 0 -1 I I #
point $-1 -59.752800073244423 21.876507583322848 8.3848446024432182 #
straight-curve $-1 -59.752800073244423 7.867953836345551 2.9138669895297293 0 -1 0 I I #
point $-1 -59.752800073244423 21.876507583322848 2.9138669895297293 #
point $-1 -52.922890444520654 13.104221996706062 1.4709172242420134 #
point $-1 -52.922890444520654 18.367593348676127 1.4709172242420134 #
straight-curve $-1 -59.752800073244423 -36.324278983713072 -6.8848446024432182 0 0 -1 I I #
straight-curve $-1 59.752800073244423 -36.324278983713072 -6.8848446024432182 0 0 -1 I I #
End-of-ACIS-data 