500 0 5 0           
7 Unknown 11 ACIS 5.0 NT 24 Fri Mar 26 02:41:12 1999 
-1 9.9999999999999995e-007 1e-010 
body $-1 $5 $-1 $6 #
body $-1 $7 $-1 $8 #
body $-1 $9 $-1 $10 #
body $-1 $11 $-1 $12 #
body $-1 $13 $-1 $14 #
lump $-1 $-1 $15 $0 #
transform $-1 1 0 0 0 1 0 0 0 1 56.049073763237402 29.334977123630978 8.6588630403163691 1 rotate no_reflect no_shear #
lump $-1 $-1 $16 $1 #
transform $-1 1 0 0 0 1 0 0 0 1 56.049073763237402 29.334977123630978 8.6588630403163691 1 rotate no_reflect no_shear #
lump $-1 $-1 $17 $2 #
transform $-1 1 0 0 0 1 0 0 0 1 56.049073763237402 29.334977123630978 8.6588630403163691 1 rotate no_reflect no_shear #
lump $-1 $-1 $18 $3 #
transform $-1 1 0 0 0 1 0 0 0 1 56.049073763237402 29.334977123630978 8.6588630403163691 1 rotate no_reflect no_shear #
lump $-1 $-1 $19 $4 #
transform $-1 1 0 0 0 1 0 0 0 1 56.049073763237402 29.334977123630978 8.6588630403163691 1 rotate no_reflect no_shear #
shell $-1 $-1 $-1 $20 $-1 $5 #
shell $-1 $-1 $-1 $21 $-1 $7 #
shell $-1 $-1 $-1 $22 $-1 $9 #
shell $-1 $-1 $-1 $23 $-1 $11 #
shell $-1 $-1 $-1 $24 $-1 $13 #
face $-1 $25 $26 $15 $-1 $27 forward single #
face $-1 $28 $29 $16 $-1 $30 forward single #
face $-1 $31 $32 $17 $-1 $33 reversed single #
face $-1 $34 $35 $18 $-1 $36 forward single #
face $-1 $37 $38 $19 $-1 $39 forward single #
face $-1 $40 $41 $15 $-1 $42 reversed single #
loop $-1 $-1 $43 $20 #
plane-surface $-1 0 0 8.6588630403163691 0 0 1 1 0 0 forward_v I I I I #
face $-1 $44 $45 $16 $-1 $46 reversed single #
loop $-1 $-1 $47 $21 #
plane-surface $-1 0 -25.016269095467056 -2.2226437374172372 0 0 1 1 0 0 forward_v I I I I #
face $-1 $48 $49 $17 $-1 $50 reversed single #
loop $-1 $-1 $51 $22 #
plane-surface $-1 -153.12891810542334 -20.697561067303138 60.955481117125863 0 1 0 -0.86602541151947299 0 0.49999998660252726 forward_v I I I I #
face $-1 $52 $53 $18 $-1 $54 forward single #
loop $-1 $55 $56 $23 #
cone-surface $-1 -53.886215706710665 -17.621729757787694 6.1593182975549752 0.86602541151947299 0 -0.49999998660252726 0.49999998660252726 0 0.86602541151947299 1 I I 0 1 1 forward I I I I #
face $-1 $57 $58 $19 $-1 $59 forward single #
loop $-1 $60 $61 $24 #
cone-surface $-1 -53.886215706710665 -13.007982793514529 6.1593182975549752 0.86602541151947299 0 -0.49999998660252726 0.49999998660252726 0 0.86602541151947299 1 I I 0 1 1 forward I I I I #
face $-1 $62 $63 $15 $-1 $64 reversed single #
loop $-1 $-1 $65 $25 #
plane-surface $-1 0 0 -8.6588630403163691 0 0 1 1 0 0 forward_v I I I I #
coedge $-1 $66 $67 $68 $69 forward $26 $-1 #
face $-1 $70 $71 $16 $-1 $72 reversed single #
loop $-1 $-1 $73 $28 #
plane-surface $-1 0 -25.016269095467056 -5.2226437374172372 0 0 1 1 0 0 forward_v I I I I #
coedge $-1 $74 $75 $76 $77 reversed $29 $-1 #
face $-1 $78 $79 $17 $-1 $80 reversed single #
loop $-1 $-1 $81 $31 #
plane-surface $-1 -56.049073763237402 -15.314856275651113 4.9064088557203362 -0.86602541151947299 0 0.49999998660252726 0.49999998660252726 0 0.86602541151947299 forward_v I I I I #
coedge $-1 $82 $83 $84 $85 reversed $32 $-1 #
face $-1 $-1 $86 $18 $-1 $87 forward single #
loop $-1 $88 $89 $34 #
cone-surface $-1 -52.37358512252284 -17.621729757787694 5.2860006537903388 0.86602541151947299 0 -0.49999998660252726 0.24999999330126363 0 0.43301270575973649 1 I I -0.70710678118654746 0.70710678118654746 0.5 forward I I I I #
loop $-1 $-1 $90 $23 #
coedge $-1 $56 $56 $91 $92 reversed $35 $-1 #
face $-1 $-1 $93 $19 $-1 $94 forward single #
loop $-1 $95 $96 $37 #
cone-surface $-1 -52.37358512252284 -13.007982793514529 5.2860006537903388 0.86602541151947299 0 -0.49999998660252726 0.24999999330126363 0 0.43301270575973649 1 I I -0.70710678118654746 0.70710678118654746 0.5 forward I I I I #
loop $-1 $-1 $97 $24 #
coedge $-1 $61 $61 $98 $99 reversed $38 $-1 #
face $-1 $100 $101 $15 $-1 $102 reversed single #
loop $-1 $-1 $103 $40 #
plane-surface $-1 0 -29.334977123630978 0 0 1 0 0 0 1 forward_v I I I I #
coedge $-1 $104 $105 $106 $107 forward $41 $-1 #
coedge $-1 $108 $43 $109 $110 forward $26 $-1 #
coedge $-1 $43 $108 $111 $112 forward $26 $-1 #
coedge $-1 $113 $114 $43 $69 reversed $115 $-1 #
edge $-1 $116 -29.334977123630978 $117 29.334977123630978 $68 $118 forward 7 unknown #
face $-1 $119 $120 $16 $-1 $121 reversed single #
loop $-1 $-1 $122 $44 #
plane-surface $-1 0 -20.697561067303134 -3.7226437374172372 0 -1 0 0 0 -1 forward_v I I I I #
coedge $-1 $123 $124 $125 $126 reversed $45 $-1 #
coedge $-1 $127 $47 $128 $129 forward $29 $-1 #
coedge $-1 $47 $127 $130 $131 reversed $29 $-1 #
coedge $-1 $132 $133 $47 $77 forward $134 $-1 #
edge $-1 $135 8.1894265195696061 $136 16.826842575897452 $76 $137 forward 7 unknown #
face $-1 $138 $139 $17 $-1 $140 reversed single #
loop $-1 $-1 $141 $48 #
plane-surface $-1 -153.12891810542334 -9.932151483999089 60.955481117125863 0 -1 0 0.86602541151947299 0 -0.49999998660252726 forward_v I I I I #
coedge $-1 $142 $143 $144 $145 reversed $49 $-1 #
coedge $-1 $83 $51 $146 $147 reversed $32 $-1 #
coedge $-1 $51 $82 $142 $148 reversed $32 $-1 #
coedge $-1 $144 $149 $51 $85 forward $150 $-1 #
edge $-1 $151 20.515385289474267 $152 22.681865645671557 $84 $153 forward 7 unknown #
loop $-1 $-1 $91 $52 #
plane-surface $-1 -56.049073763237402 -15.314856275651113 4.9064088557203362 -0.86602541151947299 0 0.49999998660252726 0.49999998660252726 0 0.86602541151947299 forward_v I I I I #
loop $-1 $-1 $154 $34 #
coedge $-1 $89 $89 $90 $155 reversed $53 $-1 #
coedge $-1 $90 $90 $89 $155 forward $55 $-1 #
coedge $-1 $91 $91 $56 $92 forward $86 $-1 #
edge $-1 $156 0 $156 6.2831853071796004 $91 $157 forward 7 unknown #
loop $-1 $-1 $98 $57 #
plane-surface $-1 -56.049073763237402 -15.314856275651113 4.9064088557203362 -0.86602541151947299 0 0.49999998660252726 0.49999998660252726 0 0.86602541151947299 forward_v I I I I #
loop $-1 $-1 $158 $37 #
coedge $-1 $96 $96 $97 $159 reversed $58 $-1 #
coedge $-1 $97 $97 $96 $159 forward $60 $-1 #
coedge $-1 $98 $98 $61 $99 forward $93 $-1 #
edge $-1 $160 0 $160 6.2831853071796004 $98 $161 forward 7 unknown #
face $-1 $162 $163 $15 $-1 $164 reversed single #
loop $-1 $-1 $165 $62 #
plane-surface $-1 -56.049073763237402 0 0 1 0 0 0 0 -1 forward_v I I I I #
coedge $-1 $166 $111 $167 $168 forward $63 $-1 #
coedge $-1 $169 $65 $166 $170 forward $41 $-1 #
coedge $-1 $65 $169 $171 $172 forward $41 $-1 #
coedge $-1 $114 $113 $65 $107 reversed $115 $-1 #
edge $-1 $173 -29.334977123630978 $174 29.334977123630978 $106 $175 forward 7 unknown #
coedge $-1 $67 $66 $176 $177 forward $26 $-1 #
coedge $-1 $178 $179 $66 $110 reversed $163 $-1 #
edge $-1 $117 -56.049073763237402 $180 56.049073763237402 $109 $181 forward 7 unknown #
coedge $-1 $103 $182 $67 $112 reversed $63 $-1 #
edge $-1 $183 -56.049073763237402 $116 56.049073763237402 $111 $184 forward 7 unknown #
coedge $-1 $106 $68 $182 $185 forward $115 $-1 #
coedge $-1 $68 $106 $178 $186 reversed $115 $-1 #
loop $-1 $-1 $113 $162 #
vertex $-1 $69 $187 #
vertex $-1 $69 $188 #
straight-curve $-1 56.049073763237402 0 8.6588630403163691 0 1 0 I I #
face $-1 $189 $190 $16 $-1 $191 reversed single #
loop $-1 $-1 $192 $70 #
plane-surface $-1 -56.049073763237402 0 0 1 0 0 0 0 -1 forward_v I I I I #
coedge $-1 $193 $128 $133 $194 reversed $71 $-1 #
coedge $-1 $195 $73 $196 $197 reversed $45 $-1 #
coedge $-1 $73 $195 $193 $198 forward $45 $-1 #
coedge $-1 $133 $132 $73 $126 forward $134 $-1 #
edge $-1 $199 -16.826842575897452 $200 -8.1894265195696061 $125 $201 forward 7 unknown #
coedge $-1 $75 $74 $192 $202 reversed $29 $-1 #
coedge $-1 $122 $203 $74 $129 reversed $71 $-1 #
edge $-1 $135 -56.049073763237402 $204 56.049073763237402 $128 $205 forward 7 unknown #
coedge $-1 $206 $207 $75 $131 forward $190 $-1 #
edge $-1 $136 -56.049073763237402 $208 56.049073763237402 $130 $209 forward 7 unknown #
coedge $-1 $125 $76 $207 $210 forward $134 $-1 #
coedge $-1 $76 $125 $122 $194 forward $134 $-1 #
loop $-1 $-1 $76 $189 #
vertex $-1 $77 $211 #
vertex $-1 $210 $212 #
straight-curve $-1 56.049073763237402 -12.508134547733528 -2.2226437374172372 0 -1 0 I I #
face $-1 $-1 $150 $17 $-1 $213 forward single #
loop $-1 $-1 $214 $78 #
plane-surface $-1 -56.049073763237402 0 0 1 0 0 0 0 -1 forward_v I I I I #
coedge $-1 $215 $216 $217 $218 reversed $79 $-1 #
coedge $-1 $219 $81 $83 $148 forward $49 $-1 #
coedge $-1 $81 $219 $215 $220 forward $49 $-1 #
coedge $-1 $217 $84 $81 $145 forward $150 $-1 #
edge $-1 $152 -13.040132929477581 $221 -2.2747233461735323 $144 $222 forward 7 unknown #
coedge $-1 $223 $224 $82 $147 forward $139 $-1 #
edge $-1 $225 -25.571331702842595 $151 -21.818877518246563 $146 $226 forward 7 unknown #
edge $-1 $152 -4.3329608284960317 $225 0 $83 $227 forward 7 unknown #
coedge $-1 $84 $217 $223 $228 forward $150 $-1 #
loop $-1 $-1 $217 $138 #
vertex $-1 $147 $229 #
vertex $-1 $85 $230 #
straight-curve $-1 -76.564459052711669 -20.697561067303138 8.6588630403163691 1 0 0 I I #
coedge $-1 $154 $154 $-1 $231 reversed $88 $-1 #
edge $-1 $232 0 $232 6.2831853071796004 $89 $233 forward 7 unknown #
vertex $-1 $92 $234 #
ellipse-curve $-1 -54.96583358513876 -17.621729757787694 6.78263594801835 -0.86602541151947299 0 0.49999998660252726 0.49999998660252726 0 0.86602541151947299 1 I I #
coedge $-1 $158 $158 $-1 $235 reversed $95 $-1 #
edge $-1 $236 0 $236 6.2831853071796004 $96 $237 forward 7 unknown #
vertex $-1 $99 $238 #
ellipse-curve $-1 -54.96583358513876 -13.007982793514529 6.78263594801835 -0.86602541151947299 0 0.49999998660252726 0.49999998660252726 0 0.86602541151947299 1 I I #
face $-1 $-1 $115 $15 $-1 $239 reversed single #
loop $-1 $-1 $178 $100 #
plane-surface $-1 0 29.334977123630978 0 0 -1 0 0 0 -1 forward_v I I I I #
coedge $-1 $240 $176 $179 $241 forward $101 $-1 #
coedge $-1 $182 $103 $104 $170 reversed $63 $-1 #
coedge $-1 $176 $240 $103 $168 reversed $101 $-1 #
edge $-1 $183 -8.6588630403163691 $242 8.6588630403163691 $167 $243 forward 7 unknown #
coedge $-1 $105 $104 $240 $244 forward $41 $-1 #
edge $-1 $174 -56.049073763237402 $242 56.049073763237402 $166 $245 forward 7 unknown #
coedge $-1 $179 $178 $105 $172 reversed $163 $-1 #
edge $-1 $246 -56.049073763237402 $173 56.049073763237402 $171 $247 forward 7 unknown #
vertex $-1 $107 $248 #
vertex $-1 $185 $249 #
straight-curve $-1 56.049073763237402 0 -8.6588630403163691 0 -1 0 I I #
coedge $-1 $165 $167 $108 $177 reversed $101 $-1 #
edge $-1 $180 -29.334977123630978 $183 29.334977123630978 $176 $250 forward 7 unknown #
coedge $-1 $171 $109 $114 $186 forward $163 $-1 #
coedge $-1 $109 $171 $165 $241 reversed $163 $-1 #
vertex $-1 $110 $251 #
straight-curve $-1 0 29.334977123630978 8.6588630403163691 -1 0 0 I I #
coedge $-1 $111 $166 $113 $185 reversed $63 $-1 #
vertex $-1 $177 $252 #
straight-curve $-1 0 -29.334977123630978 8.6588630403163691 1 0 0 I I #
edge $-1 $116 -8.6588630403163691 $174 8.6588630403163691 $113 $253 forward 7 unknown #
edge $-1 $117 -8.6588630403163691 $173 8.6588630403163691 $114 $254 forward 7 unknown #
point $-1 56.049073763237402 -29.334977123630978 8.6588630403163691 #
point $-1 56.049073763237402 29.334977123630978 8.6588630403163691 #
face $-1 $-1 $134 $16 $-1 $255 reversed single #
loop $-1 $-1 $130 $119 #
plane-surface $-1 0 -29.334977123630978 0 0 1 0 0 0 1 forward_v I I I I #
coedge $-1 $256 $257 $127 $202 forward $120 $-1 #
coedge $-1 $203 $122 $124 $198 reversed $71 $-1 #
edge $-1 $200 -3.3613218687086186 $135 -0.3613218687086186 $133 $258 forward 7 unknown #
coedge $-1 $124 $123 $259 $260 reversed $45 $-1 #
coedge $-1 $207 $206 $123 $197 forward $190 $-1 #
edge $-1 $261 -56.049073763237402 $199 56.049073763237402 $196 $262 forward 7 unknown #
edge $-1 $263 -56.049073763237402 $200 56.049073763237402 $193 $264 forward 7 unknown #
vertex $-1 $197 $265 #
vertex $-1 $126 $266 #
straight-curve $-1 56.049073763237402 -12.508134547733528 -5.2226437374172372 0 1 0 I I #
edge $-1 $208 -16.826842575897452 $204 -8.1894265195696061 $192 $267 forward 7 unknown #
coedge $-1 $128 $193 $256 $268 reversed $71 $-1 #
vertex $-1 $202 $269 #
straight-curve $-1 0 -20.697561067303134 -2.2226437374172372 -1 0 0 I I #
coedge $-1 $196 $130 $257 $270 forward $190 $-1 #
coedge $-1 $130 $196 $132 $210 reversed $190 $-1 #
vertex $-1 $270 $271 #
straight-curve $-1 0 -29.334977123630978 -2.2226437374172372 -1 0 0 I I #
edge $-1 $136 2.2226437374172372 $199 5.2226437374172372 $132 $272 forward 7 unknown #
point $-1 56.049073763237402 -20.697561067303134 -2.2226437374172372 #
point $-1 56.049073763237402 -29.334977123630978 -2.2226437374172372 #
plane-surface $-1 0 0 8.6588630403163691 0 0 1 1 0 0 forward_v I I I I #
coedge $-1 $224 $223 $216 $273 forward $139 $-1 #
coedge $-1 $216 $141 $143 $220 reversed $79 $-1 #
coedge $-1 $141 $215 $214 $273 reversed $79 $-1 #
coedge $-1 $149 $144 $141 $218 forward $150 $-1 #
edge $-1 $221 -22.681865645671557 $274 -20.515385289474267 $217 $275 forward 7 unknown #
coedge $-1 $143 $142 $224 $276 reversed $49 $-1 #
edge $-1 $277 0 $221 4.3329608284960317 $215 $278 forward 7 unknown #
vertex $-1 $145 $279 #
straight-curve $-1 -53.882593407040105 -7.6574281378255566 8.6588630403163709 0 1 0 I I #
coedge $-1 $214 $146 $149 $228 reversed $139 $-1 #
coedge $-1 $146 $214 $219 $276 forward $139 $-1 #
vertex $-1 $147 $280 #
straight-curve $-1 -56.049073763237402 -20.697561067303138 30.477740558562932 0 0 1 I I #
straight-curve $-1 -56.049073763237402 -20.697561067303138 4.9064088557203362 -0.49999998660252726 0 -0.86602541151947299 I I #
edge $-1 $274 9.932151483999089 $151 20.697561067303138 $223 $281 forward 7 unknown #
point $-1 -56.049073763237402 -20.697561067303138 8.6588630403163691 #
point $-1 -53.882593407040112 -20.697561067303138 8.6588630403163691 #
edge $-1 $282 1 $282 0 $154 $-1 forward 7 unknown #
vertex $-1 $155 $283 #
ellipse-curve $-1 -52.806597828282577 -17.621729757787694 5.5360006470916021 -0.86602541151947299 0 0.49999998660252726 0.49999998660252726 0 0.86602541151947299 1 I I #
point $-1 -54.465833598536229 -17.621729757787694 7.6486613595378206 #
edge $-1 $284 1 $284 0 $158 $-1 forward 7 unknown #
vertex $-1 $159 $285 #
ellipse-curve $-1 -52.806597828282577 -13.007982793514529 5.5360006470916021 -0.86602541151947299 0 0.49999998660252726 0.49999998660252726 0 0.86602541151947299 1 I I #
point $-1 -54.465833598536229 -13.007982793514529 7.6486613595378206 #
plane-surface $-1 56.049073763237402 0 0 -1 0 0 0 0 1 forward_v I I I I #
coedge $-1 $167 $165 $169 $244 reversed $101 $-1 #
edge $-1 $180 -8.6588630403163691 $246 8.6588630403163691 $179 $286 forward 7 unknown #
vertex $-1 $244 $287 #
straight-curve $-1 -56.049073763237402 -29.334977123630978 0 0 0 -1 I I #
edge $-1 $242 -29.334977123630978 $246 29.334977123630978 $240 $288 forward 7 unknown #
straight-curve $-1 0 -29.334977123630978 -8.6588630403163691 -1 0 0 I I #
vertex $-1 $172 $289 #
straight-curve $-1 0 29.334977123630978 -8.6588630403163691 1 0 0 I I #
point $-1 56.049073763237402 29.334977123630978 -8.6588630403163691 #
point $-1 56.049073763237402 -29.334977123630978 -8.6588630403163691 #
straight-curve $-1 -56.049073763237402 0 8.6588630403163691 0 -1 0 I I #
point $-1 -56.049073763237402 29.334977123630978 8.6588630403163691 #
point $-1 -56.049073763237402 -29.334977123630978 8.6588630403163691 #
straight-curve $-1 56.049073763237402 -29.334977123630978 0 0 0 -1 I I #
straight-curve $-1 56.049073763237402 29.334977123630978 0 0 0 -1 I I #
plane-surface $-1 56.049073763237402 0 0 -1 0 0 0 0 1 forward_v I I I I #
coedge $-1 $259 $192 $203 $268 forward $120 $-1 #
coedge $-1 $192 $259 $206 $270 reversed $120 $-1 #
straight-curve $-1 56.049073763237402 -20.697561067303134 -1.8613218687086186 0 0 1 I I #
coedge $-1 $257 $256 $195 $260 forward $120 $-1 #
edge $-1 $263 8.1894265195696061 $261 16.826842575897452 $259 $290 forward 7 unknown #
vertex $-1 $197 $291 #
straight-curve $-1 0 -29.334977123630978 -5.2226437374172372 1 0 0 I I #
vertex $-1 $260 $292 #
straight-curve $-1 0 -20.697561067303134 -5.2226437374172372 1 0 0 I I #
point $-1 56.049073763237402 -29.334977123630978 -5.2226437374172372 #
point $-1 56.049073763237402 -20.697561067303134 -5.2226437374172372 #
straight-curve $-1 -56.049073763237402 -12.508134547733528 -2.2226437374172372 0 1 0 I I #
edge $-1 $204 0.3613218687086186 $263 3.3613218687086186 $256 $293 forward 7 unknown #
point $-1 -56.049073763237402 -20.697561067303134 -2.2226437374172372 #
edge $-1 $208 2.2226437374172372 $261 5.2226437374172372 $257 $294 forward 7 unknown #
point $-1 -56.049073763237402 -29.334977123630978 -2.2226437374172372 #
straight-curve $-1 56.049073763237402 -29.334977123630978 0 0 0 -1 I I #
edge $-1 $274 21.818877518246563 $277 25.571331702842595 $214 $295 forward 7 unknown #
vertex $-1 $228 $296 #
straight-curve $-1 -76.564459052711669 -9.932151483999089 8.6588630403163691 -1 0 0 I I #
edge $-1 $277 2.2747233461735323 $225 13.040132929477581 $224 $297 forward 7 unknown #
vertex $-1 $276 $298 #
straight-curve $-1 -56.049073763237402 -9.932151483999089 4.9064088557203362 0.49999998660252726 0 0.86602541151947299 I I #
point $-1 -53.882593407040112 -9.932151483999089 8.6588630403163691 #
point $-1 -56.049073763237402 -20.697561067303138 4.9064088557203362 #
straight-curve $-1 -56.049073763237402 0 8.6588630403163691 0 -1 0 I I #
vertex $-1 $231 $299 #
point $-1 -52.306597841680052 -17.621729757787694 6.4020260586110753 #
vertex $-1 $235 $300 #
point $-1 -52.306597841680052 -13.007982793514529 6.4020260586110753 #
straight-curve $-1 -56.049073763237402 29.334977123630978 0 0 0 -1 I I #
point $-1 -56.049073763237402 -29.334977123630978 -8.6588630403163691 #
straight-curve $-1 -56.049073763237402 0 -8.6588630403163691 0 1 0 I I #
point $-1 -56.049073763237402 29.334977123630978 -8.6588630403163691 #
straight-curve $-1 -56.049073763237402 -12.508134547733528 -5.2226437374172372 0 -1 0 I I #
point $-1 -56.049073763237402 -29.334977123630978 -5.2226437374172372 #
point $-1 -56.049073763237402 -20.697561067303134 -5.2226437374172372 #
straight-curve $-1 -56.049073763237402 -20.697561067303134 -1.8613218687086186 0 0 -1 I I #
straight-curve $-1 -56.049073763237402 -29.334977123630978 0 0 0 -1 I I #
straight-curve $-1 -56.049073763237402 -9.932151483999089 30.477740558562932 0 0 -1 I I #
point $-1 -56.049073763237402 -9.932151483999089 8.6588630403163691 #
straight-curve $-1 -56.049073763237402 -7.6574281378255566 4.906408855720338 0 -1 0 I I #
point $-1 -56.049073763237402 -9.932151483999089 4.9064088557203362 #
point $-1 -51.940572416763104 -17.621729757787694 5.0360006604890755 #
point $-1 -51.940572416763104 -13.007982793514529 5.0360006604890755 #
End-of-ACIS-data 