500 0 5 0           
7 Unknown 11 ACIS 5.0 NT 24 Fri Mar 26 16:59:44 1999 
-1 9.9999999999999995e-007 1e-010 
body $-1 $5 $-1 $6 #
body $-1 $7 $-1 $8 #
body $-1 $9 $-1 $10 #
body $-1 $11 $-1 $12 #
body $-1 $13 $-1 $14 #
lump $-1 $-1 $15 $0 #
transform $-1 1 0 0 0 1 0 0 0 1 45.802179021576585 18.579607023434974 8.5005090088145216 1 rotate no_reflect no_shear #
lump $-1 $-1 $16 $1 #
transform $-1 1 0 0 0 1 0 0 0 1 45.802179021576585 18.579607023434974 8.5005090088145216 1 rotate no_reflect no_shear #
lump $-1 $-1 $17 $2 #
transform $-1 1 0 0 0 1 0 0 0 1 45.802179021576585 18.579607023434974 8.5005090088145216 1 rotate no_reflect no_shear #
lump $-1 $-1 $18 $3 #
transform $-1 1 0 0 0 1 0 0 0 1 45.802179021576585 18.579607023434974 8.5005090088145216 1 rotate no_reflect no_shear #
lump $-1 $-1 $19 $4 #
transform $-1 1 0 0 0 1 0 0 0 1 45.802179021576585 18.579607023434974 8.5005090088145216 1 rotate no_reflect no_shear #
shell $-1 $-1 $-1 $20 $-1 $5 #
shell $-1 $-1 $-1 $21 $-1 $7 #
shell $-1 $-1 $-1 $22 $-1 $9 #
shell $-1 $-1 $-1 $23 $-1 $11 #
shell $-1 $-1 $-1 $24 $-1 $13 #
face $-1 $25 $26 $15 $-1 $27 forward single #
face $-1 $28 $29 $16 $-1 $30 forward single #
face $-1 $31 $32 $17 $-1 $33 forward single #
face $-1 $34 $35 $18 $-1 $36 reversed single #
face $-1 $37 $38 $19 $-1 $39 reversed single #
face $-1 $40 $41 $15 $-1 $42 reversed single #
loop $-1 $-1 $43 $20 #
plane-surface $-1 0 0 8.5005090088145216 0 0 1 1 0 0 forward_v I I I I #
face $-1 $44 $45 $16 $-1 $46 reversed single #
loop $-1 $-1 $47 $21 #
plane-surface $-1 -49.403686985451827 0 -5.5005090088145216 0 0 1 1 0 0 forward_v I I I I #
face $-1 $48 $49 $17 $-1 $50 forward single #
loop $-1 $-1 $51 $22 #
plane-surface $-1 50.323344969812517 8.6011536722926536 132.45892550417889 0 1 0 0.73135370988377701 0 0.68199835119979291 forward_v I I I I #
face $-1 $52 $53 $18 $-1 $54 reversed single #
loop $-1 $55 $56 $23 #
cone-surface $-1 41.79663983436847 11.452140344047603 4.4059366178070816 -0.73135370988377701 0 -0.68199835119979291 0.68199835119979291 0 -0.73135370988377701 1 I I 0 1 1 forward I I I I #
face $-1 $57 $58 $19 $-1 $59 reversed single #
loop $-1 $60 $61 $24 #
cone-surface $-1 41.79663983436847 15.728620351680021 4.4059366178070816 -0.73135370988377701 0 -0.68199835119979291 0.68199835119979291 0 -0.73135370988377701 1 I I 0 1 1 forward I I I I #
face $-1 $62 $63 $15 $-1 $64 reversed single #
loop $-1 $-1 $65 $25 #
plane-surface $-1 0 0 -8.5005090088145216 0 0 1 1 0 0 forward_v I I I I #
coedge $-1 $66 $67 $68 $69 forward $26 $-1 #
face $-1 $70 $71 $16 $-1 $72 forward single #
loop $-1 $-1 $73 $28 #
plane-surface $-1 -53.00519494932707 0 -7.0005090088145216 1 0 0 0 0 -1 forward_v I I I I #
coedge $-1 $74 $75 $76 $77 reversed $29 $-1 #
face $-1 $78 $79 $17 $-1 $80 reversed single #
loop $-1 $-1 $81 $31 #
plane-surface $-1 -16.671842126569366 13.590380347863814 69.984904356032942 0.73135370988377701 0 0.68199835119979291 0.68199835119979291 0 -0.73135370988377701 forward_v I I I I #
coedge $-1 $82 $83 $84 $85 reversed $32 $-1 #
face $-1 $86 $87 $18 $-1 $88 forward single #
loop $-1 $89 $90 $34 #
cone-surface $-1 39.994871951121063 11.452140344047603 2.7257609257814686 -0.73135370988377701 0 -0.68199835119979291 0.34099917559989645 0 -0.36567685494188851 1 I I -0.70710678118654746 0.70710678118654746 0.5 forward I I I I #
loop $-1 $-1 $91 $23 #
coedge $-1 $56 $56 $92 $93 reversed $35 $-1 #
face $-1 $94 $95 $19 $-1 $96 reversed single #
loop $-1 $97 $98 $37 #
cone-surface $-1 39.994871951121063 15.728620351680021 2.7257609257814686 -0.73135370988377701 0 -0.68199835119979291 0.34099917559989645 0 -0.36567685494188851 1 I I -0.70710678118654746 0.70710678118654746 0.5 forward I I I I #
loop $-1 $-1 $99 $24 #
coedge $-1 $61 $61 $100 $101 reversed $38 $-1 #
face $-1 $102 $103 $15 $-1 $104 reversed single #
loop $-1 $-1 $105 $40 #
plane-surface $-1 0 -18.579607023434974 0 0 1 0 0 0 1 forward_v I I I I #
coedge $-1 $106 $107 $108 $109 forward $41 $-1 #
coedge $-1 $110 $43 $111 $112 forward $26 $-1 #
coedge $-1 $43 $110 $113 $114 forward $26 $-1 #
coedge $-1 $115 $116 $43 $69 reversed $117 $-1 #
edge $-1 $118 -18.579607023434974 $119 18.579607023434974 $68 $120 forward 7 unknown #
face $-1 $121 $122 $16 $-1 $123 reversed single #
loop $-1 $-1 $124 $44 #
plane-surface $-1 0 0 8.5005090088145216 0 0 1 1 0 0 forward_v I I I I #
coedge $-1 $125 $126 $127 $128 forward $45 $-1 #
coedge $-1 $129 $47 $130 $131 forward $29 $-1 #
coedge $-1 $47 $129 $132 $133 forward $29 $-1 #
coedge $-1 $134 $135 $47 $77 forward $136 $-1 #
edge $-1 $137 -18.579607023434974 $138 18.579607023434974 $76 $139 forward 7 unknown #
face $-1 $140 $141 $17 $-1 $142 forward single #
loop $-1 $-1 $143 $48 #
plane-surface $-1 45.802179021576585 0 0 -1 0 0 0 0 1 forward_v I I I I #
coedge $-1 $144 $145 $143 $146 reversed $49 $-1 #
coedge $-1 $83 $51 $145 $147 forward $32 $-1 #
coedge $-1 $51 $82 $148 $149 reversed $32 $-1 #
coedge $-1 $150 $143 $51 $85 forward $79 $-1 #
edge $-1 $151 -63.239745492438388 $152 -57.728953743274928 $84 $153 forward 7 unknown #
face $-1 $154 $155 $18 $-1 $156 forward single #
loop $-1 $-1 $157 $52 #
plane-surface $-1 50.323344969812517 8.6011536722926536 132.45892550417889 0 1 0 0.73135370988377701 0 0.68199835119979291 forward_v I I I I #
loop $-1 $-1 $158 $34 #
coedge $-1 $90 $90 $91 $159 forward $53 $-1 #
coedge $-1 $91 $91 $90 $159 reversed $55 $-1 #
coedge $-1 $92 $92 $56 $93 forward $155 $-1 #
edge $-1 $160 0 $160 6.2831853071796004 $92 $161 forward 7 unknown #
face $-1 $162 $163 $19 $-1 $164 reversed single #
loop $-1 $165 $166 $57 #
cone-surface $-1 41.79663983436847 11.452140344047603 4.4059366178070816 -0.73135370988377701 0 -0.68199835119979291 0.68199835119979291 0 -0.73135370988377701 1 I I 0 1 1 forward I I I I #
loop $-1 $-1 $167 $37 #
coedge $-1 $98 $98 $99 $168 forward $58 $-1 #
coedge $-1 $99 $99 $98 $168 reversed $60 $-1 #
coedge $-1 $100 $100 $61 $101 forward $169 $-1 #
edge $-1 $170 0 $170 6.2831853071796004 $100 $171 forward 7 unknown #
face $-1 $172 $173 $15 $-1 $174 reversed single #
loop $-1 $-1 $175 $62 #
plane-surface $-1 -45.802179021576585 0 0 1 0 0 0 0 -1 forward_v I I I I #
coedge $-1 $176 $113 $177 $178 forward $63 $-1 #
coedge $-1 $179 $65 $176 $180 forward $41 $-1 #
coedge $-1 $65 $179 $181 $182 forward $41 $-1 #
coedge $-1 $116 $115 $65 $109 reversed $117 $-1 #
edge $-1 $183 -18.579607023434974 $184 18.579607023434974 $108 $185 forward 7 unknown #
coedge $-1 $67 $66 $186 $187 forward $26 $-1 #
coedge $-1 $188 $189 $66 $112 reversed $173 $-1 #
edge $-1 $119 -45.802179021576585 $190 45.802179021576585 $111 $191 forward 7 unknown #
coedge $-1 $105 $192 $67 $114 reversed $63 $-1 #
edge $-1 $193 -45.802179021576585 $118 45.802179021576585 $113 $194 forward 7 unknown #
coedge $-1 $108 $68 $192 $195 forward $117 $-1 #
coedge $-1 $68 $108 $188 $196 reversed $117 $-1 #
loop $-1 $-1 $115 $172 #
vertex $-1 $69 $197 #
vertex $-1 $69 $198 #
straight-curve $-1 45.802179021576585 0 8.5005090088145216 0 1 0 I I #
face $-1 $199 $200 $16 $-1 $201 reversed single #
loop $-1 $-1 $202 $70 #
plane-surface $-1 0 0 -8.5005090088145216 0 0 1 1 0 0 forward_v I I I I #
coedge $-1 $203 $204 $205 $206 forward $71 $-1 #
coedge $-1 $207 $73 $208 $209 reversed $45 $-1 #
coedge $-1 $73 $207 $129 $210 reversed $45 $-1 #
coedge $-1 $130 $211 $73 $128 reversed $212 $-1 #
edge $-1 $213 -1.5 $214 1.5 $127 $215 forward 7 unknown #
coedge $-1 $75 $74 $126 $210 forward $29 $-1 #
coedge $-1 $216 $127 $74 $131 reversed $212 $-1 #
edge $-1 $137 -3.6015079638752425 $213 3.6015079638752425 $130 $217 forward 7 unknown #
coedge $-1 $218 $219 $75 $133 reversed $200 $-1 #
edge $-1 $220 -3.6015079638752425 $138 3.6015079638752425 $132 $221 forward 7 unknown #
coedge $-1 $222 $76 $219 $223 reversed $136 $-1 #
coedge $-1 $76 $222 $216 $224 forward $136 $-1 #
loop $-1 $-1 $76 $199 #
vertex $-1 $224 $225 #
vertex $-1 $133 $226 #
straight-curve $-1 -45.802179021576585 0 -5.5005090088145216 0 -1 0 I I #
face $-1 $227 $228 $17 $-1 $229 forward single #
loop $-1 $-1 $148 $78 #
plane-surface $-1 0 0 8.5005090088145216 0 0 1 1 0 0 forward_v I I I I #
coedge $-1 $84 $230 $81 $146 forward $79 $-1 #
coedge $-1 $231 $81 $232 $233 reversed $49 $-1 #
coedge $-1 $81 $231 $82 $147 reversed $49 $-1 #
edge $-1 $234 -11.784416849503067 $151 -1.8059634983607467 $143 $235 forward 7 unknown #
edge $-1 $151 -91.604358043153155 $236 -84.069301237275738 $82 $237 forward 7 unknown #
coedge $-1 $238 $239 $83 $149 forward $141 $-1 #
edge $-1 $152 -20.640506536670326 $236 -15.501610218865149 $148 $240 forward 7 unknown #
coedge $-1 $241 $84 $239 $242 reversed $79 $-1 #
vertex $-1 $146 $243 #
vertex $-1 $149 $244 #
straight-curve $-1 45.802179021576585 8.6011536722926536 66.229462752089447 0 0 1 I I #
face $-1 $245 $246 $18 $-1 $247 reversed single #
loop $-1 $248 $92 $86 #
plane-surface $-1 -16.671842126569366 13.590380347863814 69.984904356032942 0.73135370988377701 0 0.68199835119979291 0.68199835119979291 0 -0.73135370988377701 forward_v I I I I #
coedge $-1 $249 $250 $251 $252 reversed $87 $-1 #
coedge $-1 $158 $158 $-1 $253 forward $89 $-1 #
edge $-1 $254 0 $254 6.2831853071796004 $90 $255 forward 7 unknown #
vertex $-1 $93 $256 #
ellipse-curve $-1 43.232730862673982 11.452140344047603 5.7451131342327901 -0.73135370988377701 0 -0.68199835119979291 0.68199835119979291 0 -0.73135370988377701 1 I I #
face $-1 $257 $258 $19 $-1 $259 forward single #
loop $-1 $260 $261 $94 #
cone-surface $-1 39.994871951121063 11.452140344047603 2.7257609257814686 -0.73135370988377701 0 -0.68199835119979291 0.34099917559989645 0 -0.36567685494188851 1 I I -0.70710678118654746 0.70710678118654746 0.5 forward I I I I #
loop $-1 $-1 $262 $57 #
coedge $-1 $166 $166 $263 $264 reversed $95 $-1 #
coedge $-1 $167 $167 $-1 $265 forward $97 $-1 #
edge $-1 $266 0 $266 6.2831853071796004 $98 $267 forward 7 unknown #
loop $-1 $268 $100 $257 #
vertex $-1 $101 $269 #
ellipse-curve $-1 43.232730862673982 15.728620351680021 5.7451131342327901 -0.73135370988377701 0 -0.68199835119979291 0.68199835119979291 0 -0.73135370988377701 1 I I #
face $-1 $-1 $117 $15 $-1 $270 reversed single #
loop $-1 $-1 $188 $102 #
plane-surface $-1 0 18.579607023434974 0 0 -1 0 0 0 -1 forward_v I I I I #
coedge $-1 $271 $186 $189 $272 forward $103 $-1 #
coedge $-1 $192 $105 $106 $180 reversed $63 $-1 #
coedge $-1 $186 $271 $105 $178 reversed $103 $-1 #
edge $-1 $193 -8.5005090088145216 $273 8.5005090088145216 $177 $274 forward 7 unknown #
coedge $-1 $107 $106 $271 $275 forward $41 $-1 #
edge $-1 $184 -45.802179021576585 $273 45.802179021576585 $176 $276 forward 7 unknown #
coedge $-1 $189 $188 $107 $182 reversed $173 $-1 #
edge $-1 $277 -45.802179021576585 $183 45.802179021576585 $181 $278 forward 7 unknown #
vertex $-1 $109 $279 #
vertex $-1 $195 $280 #
straight-curve $-1 45.802179021576585 0 -8.5005090088145216 0 -1 0 I I #
coedge $-1 $175 $177 $110 $187 reversed $103 $-1 #
edge $-1 $190 -18.579607023434974 $193 18.579607023434974 $186 $281 forward 7 unknown #
coedge $-1 $181 $111 $116 $196 forward $173 $-1 #
coedge $-1 $111 $181 $175 $272 reversed $173 $-1 #
vertex $-1 $112 $282 #
straight-curve $-1 0 18.579607023434974 8.5005090088145216 -1 0 0 I I #
coedge $-1 $113 $176 $115 $195 reversed $63 $-1 #
vertex $-1 $187 $283 #
straight-curve $-1 0 -18.579607023434974 8.5005090088145216 1 0 0 I I #
edge $-1 $118 -8.5005090088145216 $184 8.5005090088145216 $115 $284 forward 7 unknown #
edge $-1 $119 -8.5005090088145216 $183 8.5005090088145216 $116 $285 forward 7 unknown #
point $-1 45.802179021576585 -18.579607023434974 8.5005090088145216 #
point $-1 45.802179021576585 18.579607023434974 8.5005090088145216 #
face $-1 $286 $136 $16 $-1 $287 reversed single #
loop $-1 $-1 $219 $121 #
plane-surface $-1 0 -18.579607023434974 0 0 1 0 0 0 1 forward_v I I I I #
coedge $-1 $288 $289 $290 $291 forward $122 $-1 #
coedge $-1 $292 $124 $293 $294 forward $71 $-1 #
coedge $-1 $124 $292 $295 $296 forward $71 $-1 #
coedge $-1 $297 $298 $124 $206 reversed $299 $-1 #
edge $-1 $300 -18.579607023434974 $301 18.579607023434974 $205 $302 forward 7 unknown #
coedge $-1 $126 $125 $218 $303 reversed $45 $-1 #
coedge $-1 $289 $288 $125 $209 forward $122 $-1 #
edge $-1 $304 -18.579607023434974 $214 18.579607023434974 $125 $305 forward 7 unknown #
edge $-1 $213 -18.579607023434974 $220 18.579607023434974 $126 $306 forward 7 unknown #
coedge $-1 $127 $307 $289 $308 reversed $212 $-1 #
loop $-1 $-1 $307 $286 #
vertex $-1 $131 $309 #
vertex $-1 $308 $310 #
straight-curve $-1 -53.00519494932707 18.579607023434974 -7.0005090088145216 0 0 -1 I I #
coedge $-1 $293 $130 $135 $224 reversed $212 $-1 #
straight-curve $-1 -49.403686985451827 18.579607023434974 -5.5005090088145216 -1 0 0 I I #
coedge $-1 $311 $132 $207 $303 forward $200 $-1 #
coedge $-1 $132 $295 $134 $223 forward $200 $-1 #
vertex $-1 $210 $312 #
straight-curve $-1 -49.403686985451827 -18.579607023434974 -5.5005090088145216 1 0 0 I I #
coedge $-1 $135 $134 $292 $313 reversed $136 $-1 #
edge $-1 $314 -8.5005090088145216 $138 5.5005090088145216 $134 $315 forward 7 unknown #
edge $-1 $316 -8.5005090088145216 $137 5.5005090088145216 $216 $317 forward 7 unknown #
point $-1 -45.802179021576585 18.579607023434974 -5.5005090088145216 #
point $-1 -45.802179021576585 -18.579607023434974 -5.5005090088145216 #
face $-1 $318 $319 $17 $-1 $320 reversed single #
loop $-1 $-1 $321 $140 #
plane-surface $-1 -49.403686985451827 0 -5.5005090088145216 0 0 1 1 0 0 forward_v I I I I #
coedge $-1 $143 $322 $323 $324 reversed $79 $-1 #
coedge $-1 $145 $144 $238 $325 reversed $49 $-1 #
coedge $-1 $323 $326 $144 $233 forward $327 $-1 #
edge $-1 $328 52.792357098060968 $234 60.327413903938385 $232 $329 forward 7 unknown #
vertex $-1 $324 $330 #
straight-curve $-1 45.802179021576585 6.7951901739319069 2.9897172596510586 0 -1 0 I I #
vertex $-1 $325 $331 #
straight-curve $-1 -16.671842126569366 8.6011536722926536 69.984904356032942 -0.68199835119979291 0 0.73135370988377701 I I #
coedge $-1 $332 $148 $231 $325 forward $141 $-1 #
coedge $-1 $148 $333 $150 $242 forward $141 $-1 #
straight-curve $-1 25.161672484906259 8.6011536722926536 8.5005090088145181 -1 0 0 I I #
coedge $-1 $322 $150 $334 $335 forward $79 $-1 #
edge $-1 $336 -18.579607023434974 $152 8.6011536722926536 $150 $337 forward 7 unknown #
point $-1 45.802179021576585 8.6011536722926536 2.9897172596510586 #
point $-1 45.802179021576585 8.6011536722926536 8.5005090088145216 #
face $-1 $338 $339 $18 $-1 $340 forward single #
loop $-1 $-1 $341 $154 #
plane-surface $-1 45.802179021576585 0 0 -1 0 0 0 0 1 forward_v I I I I #
loop $-1 $-1 $342 $86 #
coedge $-1 $250 $157 $343 $344 forward $87 $-1 #
coedge $-1 $157 $249 $345 $346 reversed $87 $-1 #
coedge $-1 $347 $341 $157 $252 forward $246 $-1 #
edge $-1 $348 -63.239745492438388 $349 -57.728953743274928 $251 $350 forward 7 unknown #
edge $-1 $351 1 $351 0 $158 $-1 forward 7 unknown #
vertex $-1 $159 $352 #
ellipse-curve $-1 40.360548806062951 11.452140344047603 3.066760101381365 0.73135370988377701 0 0.68199835119979291 0.68199835119979291 0 -0.73135370988377701 1 I I #
point $-1 43.914729213873784 11.452140344047603 5.013759424349022 #
face $-1 $353 $169 $19 $-1 $354 forward single #
loop $-1 $-1 $355 $162 #
plane-surface $-1 50.323344969812517 8.6011536722926536 132.45892550417889 0 1 0 0.73135370988377701 0 0.68199835119979291 forward_v I I I I #
loop $-1 $-1 $356 $94 #
coedge $-1 $261 $261 $262 $357 forward $163 $-1 #
coedge $-1 $262 $262 $261 $357 reversed $165 $-1 #
coedge $-1 $263 $263 $166 $264 forward $268 $-1 #
edge $-1 $358 0 $358 6.2831853071796004 $263 $359 forward 7 unknown #
edge $-1 $360 1 $360 0 $167 $-1 forward 7 unknown #
vertex $-1 $168 $361 #
ellipse-curve $-1 40.360548806062951 15.728620351680021 3.066760101381365 0.73135370988377701 0 0.68199835119979291 0.68199835119979291 0 -0.73135370988377701 1 I I #
loop $-1 $362 $263 $257 #
point $-1 43.914729213873784 15.728620351680021 5.013759424349022 #
plane-surface $-1 45.802179021576585 0 0 -1 0 0 0 0 1 forward_v I I I I #
coedge $-1 $177 $175 $179 $275 reversed $103 $-1 #
edge $-1 $190 -8.5005090088145216 $277 8.5005090088145216 $189 $363 forward 7 unknown #
vertex $-1 $275 $364 #
straight-curve $-1 -45.802179021576585 -18.579607023434974 0 0 0 -1 I I #
edge $-1 $273 -18.579607023434974 $277 18.579607023434974 $271 $365 forward 7 unknown #
straight-curve $-1 0 -18.579607023434974 -8.5005090088145216 -1 0 0 I I #
vertex $-1 $182 $366 #
straight-curve $-1 0 18.579607023434974 -8.5005090088145216 1 0 0 I I #
point $-1 45.802179021576585 18.579607023434974 -8.5005090088145216 #
point $-1 45.802179021576585 -18.579607023434974 -8.5005090088145216 #
straight-curve $-1 -45.802179021576585 0 8.5005090088145216 0 -1 0 I I #
point $-1 -45.802179021576585 18.579607023434974 8.5005090088145216 #
point $-1 -45.802179021576585 -18.579607023434974 8.5005090088145216 #
straight-curve $-1 45.802179021576585 -18.579607023434974 0 0 0 -1 I I #
straight-curve $-1 45.802179021576585 18.579607023434974 0 0 0 -1 I I #
face $-1 $367 $212 $16 $-1 $368 reversed single #
plane-surface $-1 -45.802179021576585 0 0 1 0 0 0 0 -1 forward_v I I I I #
coedge $-1 $208 $202 $311 $369 forward $122 $-1 #
coedge $-1 $202 $208 $211 $308 forward $122 $-1 #
coedge $-1 $298 $297 $202 $291 reversed $299 $-1 #
edge $-1 $370 -18.579607023434974 $371 18.579607023434974 $290 $372 forward 7 unknown #
coedge $-1 $204 $203 $222 $313 forward $71 $-1 #
coedge $-1 $307 $216 $203 $294 reversed $212 $-1 #
edge $-1 $301 -45.802179021576585 $316 45.802179021576585 $293 $373 forward 7 unknown #
coedge $-1 $219 $374 $204 $296 reversed $200 $-1 #
edge $-1 $314 -45.802179021576585 $300 45.802179021576585 $295 $375 forward 7 unknown #
coedge $-1 $290 $205 $374 $376 forward $299 $-1 #
coedge $-1 $205 $290 $307 $377 reversed $299 $-1 #
loop $-1 $-1 $297 $367 #
vertex $-1 $206 $378 #
vertex $-1 $206 $379 #
straight-curve $-1 45.802179021576585 0 8.5005090088145216 0 1 0 I I #
edge $-1 $220 -1.5 $304 1.5 $207 $380 forward 7 unknown #
vertex $-1 $209 $381 #
straight-curve $-1 -53.00519494932707 0 -8.5005090088145216 0 1 0 I I #
straight-curve $-1 -53.00519494932707 0 -5.5005090088145216 0 -1 0 I I #
coedge $-1 $211 $293 $298 $377 forward $212 $-1 #
edge $-1 $214 -53.00519494932707 $370 45.802179021576585 $211 $382 forward 7 unknown #
point $-1 -53.00519494932707 18.579607023434974 -5.5005090088145216 #
point $-1 -53.00519494932707 18.579607023434974 -8.5005090088145216 #
coedge $-1 $374 $218 $288 $369 reversed $200 $-1 #
point $-1 -53.00519494932707 -18.579607023434974 -5.5005090088145216 #
edge $-1 $316 -18.579607023434974 $314 18.579607023434974 $222 $383 forward 7 unknown #
vertex $-1 $313 $384 #
straight-curve $-1 -45.802179021576585 -18.579607023434974 0 0 0 -1 I I #
vertex $-1 $294 $385 #
straight-curve $-1 -45.802179021576585 18.579607023434974 0 0 0 -1 I I #
face $-1 $386 $387 $17 $-1 $388 reversed single #
loop $-1 $-1 $389 $227 #
plane-surface $-1 -53.00519494932707 0 -7.0005090088145216 1 0 0 0 0 -1 forward_v I I I I #
coedge $-1 $390 $391 $392 $393 reversed $228 $-1 #
coedge $-1 $230 $241 $394 $395 reversed $79 $-1 #
coedge $-1 $396 $232 $230 $324 forward $327 $-1 #
edge $-1 $234 -2.9897172596510613 $397 8.5005090088145216 $230 $398 forward 7 unknown #
edge $-1 $236 1.8059634983607467 $328 11.784416849503067 $238 $399 forward 7 unknown #
coedge $-1 $232 $400 $332 $401 reversed $327 $-1 #
loop $-1 $-1 $232 $402 #
vertex $-1 $401 $403 #
straight-curve $-1 4.6589822069431399 18.579607023434974 47.110395225990558 0.68199835119979291 0 -0.73135370988377701 I I #
point $-1 45.802179021576585 18.579607023434974 2.9897172596510613 #
point $-1 40.663282703771408 8.6011536722926536 8.5005090088145181 #
coedge $-1 $404 $238 $326 $401 forward $141 $-1 #
coedge $-1 $239 $404 $405 $406 forward $141 $-1 #
coedge $-1 $405 $407 $241 $335 reversed $408 $-1 #
edge $-1 $336 -8.5005090088145216 $409 8.5005090088145216 $241 $410 forward 7 unknown #
vertex $-1 $242 $411 #
straight-curve $-1 45.802179021576585 0 8.5005090088145216 0 1 0 I I #
face $-1 $412 $413 $18 $-1 $414 forward single #
loop $-1 $-1 $345 $245 #
plane-surface $-1 0 0 8.5005090088145216 0 0 1 1 0 0 forward_v I I I I #
coedge $-1 $251 $415 $342 $416 forward $246 $-1 #
coedge $-1 $417 $343 $341 $416 reversed $248 $-1 #
coedge $-1 $342 $418 $249 $344 reversed $248 $-1 #
edge $-1 $348 -91.604358043153155 $419 -84.069301237275738 $249 $420 forward 7 unknown #
coedge $-1 $421 $422 $250 $346 forward $339 $-1 #
edge $-1 $349 -20.640506536670326 $419 -15.501610218865149 $345 $423 forward 7 unknown #
coedge $-1 $424 $251 $422 $425 reversed $246 $-1 #
vertex $-1 $416 $426 #
vertex $-1 $346 $427 #
straight-curve $-1 45.802179021576585 8.6011536722926536 66.229462752089447 0 0 1 I I #
vertex $-1 $253 $428 #
point $-1 41.042547157262746 11.452140344047603 2.335406391497588 #
face $-1 $429 $430 $19 $-1 $431 reversed single #
plane-surface $-1 -16.671842126569366 13.590380347863814 69.984904356032942 0.73135370988377701 0 0.68199835119979291 0.68199835119979291 0 -0.73135370988377701 forward_v I I I I #
coedge $-1 $432 $433 $434 $435 reversed $258 $-1 #
coedge $-1 $356 $356 $-1 $436 forward $260 $-1 #
edge $-1 $437 0 $437 6.2831853071796004 $261 $438 forward 7 unknown #
vertex $-1 $264 $439 #
ellipse-curve $-1 43.232730862673982 11.452140344047603 5.7451131342327901 -0.73135370988377701 0 -0.68199835119979291 0.68199835119979291 0 -0.73135370988377701 1 I I #
vertex $-1 $265 $440 #
point $-1 41.042547157262746 15.728620351680021 2.335406391497588 #
loop $-1 $-1 $441 $257 #
straight-curve $-1 -45.802179021576585 18.579607023434974 0 0 0 -1 I I #
point $-1 -45.802179021576585 -18.579607023434974 -8.5005090088145216 #
straight-curve $-1 -45.802179021576585 0 -8.5005090088145216 0 1 0 I I #
point $-1 -45.802179021576585 18.579607023434974 -8.5005090088145216 #
face $-1 $-1 $299 $16 $-1 $442 reversed single #
plane-surface $-1 0 18.579607023434974 0 0 -1 0 0 0 -1 forward_v I I I I #
edge $-1 $371 -95.205866007028419 $304 3.6015079638752425 $311 $443 forward 7 unknown #
vertex $-1 $291 $444 #
vertex $-1 $376 $445 #
straight-curve $-1 45.802179021576585 0 -8.5005090088145216 0 -1 0 I I #
straight-curve $-1 0 18.579607023434974 8.5005090088145216 -1 0 0 I I #
coedge $-1 $295 $311 $297 $376 reversed $200 $-1 #
straight-curve $-1 0 -18.579607023434974 8.5005090088145216 1 0 0 I I #
edge $-1 $300 -8.5005090088145216 $371 8.5005090088145216 $297 $446 forward 7 unknown #
edge $-1 $301 -8.5005090088145216 $370 8.5005090088145216 $298 $447 forward 7 unknown #
point $-1 45.802179021576585 -18.579607023434974 8.5005090088145216 #
point $-1 45.802179021576585 18.579607023434974 8.5005090088145216 #
straight-curve $-1 -53.00519494932707 -18.579607023434974 -7.0005090088145216 0 0 -1 I I #
point $-1 -53.00519494932707 -18.579607023434974 -8.5005090088145216 #
straight-curve $-1 0 18.579607023434974 -8.5005090088145216 1 0 0 I I #
straight-curve $-1 -45.802179021576585 0 8.5005090088145216 0 -1 0 I I #
point $-1 -45.802179021576585 -18.579607023434974 8.5005090088145216 #
point $-1 -45.802179021576585 18.579607023434974 8.5005090088145216 #
face $-1 $448 $408 $17 $-1 $449 reversed single #
loop $-1 $-1 $394 $318 #
plane-surface $-1 0 0 -8.5005090088145216 0 0 1 1 0 0 forward_v I I I I #
coedge $-1 $450 $451 $452 $453 forward $319 $-1 #
coedge $-1 $454 $321 $455 $456 forward $228 $-1 #
coedge $-1 $321 $454 $457 $458 forward $228 $-1 #
coedge $-1 $459 $460 $321 $393 forward $461 $-1 #
edge $-1 $462 -18.579607023434974 $463 18.579607023434974 $392 $464 forward 7 unknown #
coedge $-1 $465 $466 $322 $395 forward $387 $-1 #
edge $-1 $397 -18.579607023434974 $409 18.579607023434974 $322 $467 forward 7 unknown #
coedge $-1 $452 $323 $466 $468 reversed $327 $-1 #
vertex $-1 $395 $469 #
straight-curve $-1 45.802179021576585 18.579607023434974 0 0 0 -1 I I #
straight-curve $-1 40.663282703771408 6.7951901739319069 8.5005090088145181 0 1 0 I I #
coedge $-1 $326 $455 $460 $470 reversed $327 $-1 #
edge $-1 $328 -40.663282703771408 $471 45.802179021576585 $326 $472 forward 7 unknown #
face $-1 $-1 $327 $17 $-1 $473 reversed single #
point $-1 40.663282703771408 18.579607023434974 8.5005090088145181 #
coedge $-1 $333 $332 $474 $475 forward $141 $-1 #
coedge $-1 $476 $334 $333 $406 reversed $408 $-1 #
edge $-1 $477 -45.802179021576585 $336 45.802179021576585 $405 $478 forward 7 unknown #
coedge $-1 $334 $479 $465 $480 reversed $408 $-1 #
loop $-1 $-1 $476 $386 #
vertex $-1 $335 $481 #
straight-curve $-1 45.802179021576585 -18.579607023434974 0 0 0 -1 I I #
point $-1 45.802179021576585 -18.579607023434974 8.5005090088145216 #
face $-1 $482 $483 $18 $-1 $484 reversed single #
loop $-1 $-1 $485 $338 #
plane-surface $-1 -49.403686985451827 0 -5.5005090088145216 0 0 1 1 0 0 forward_v I I I I #
coedge $-1 $341 $486 $487 $488 reversed $246 $-1 #
edge $-1 $489 -11.784416849503067 $348 -1.8059634983607467 $341 $490 forward 7 unknown #
coedge $-1 $418 $342 $491 $492 reversed $248 $-1 #
coedge $-1 $343 $417 $421 $493 reversed $248 $-1 #
vertex $-1 $493 $494 #
straight-curve $-1 -16.671842126569366 8.6011536722926536 69.984904356032942 -0.68199835119979291 0 0.73135370988377701 I I #
coedge $-1 $495 $345 $418 $493 forward $339 $-1 #
coedge $-1 $345 $496 $347 $425 forward $339 $-1 #
straight-curve $-1 25.161672484906259 8.6011536722926536 8.5005090088145181 -1 0 0 I I #
coedge $-1 $486 $347 $497 $498 forward $246 $-1 #
edge $-1 $499 -18.579607023434974 $349 8.6011536722926536 $347 $500 forward 7 unknown #
point $-1 45.802179021576585 8.6011536722926536 2.9897172596510586 #
point $-1 45.802179021576585 8.6011536722926536 8.5005090088145216 #
point $-1 39.629195096179174 11.452140344047603 2.3847617501815721 #
face $-1 $501 $502 $19 $-1 $503 forward single #
loop $-1 $-1 $504 $353 #
plane-surface $-1 45.802179021576585 0 0 -1 0 0 0 0 1 forward_v I I I I #
coedge $-1 $433 $355 $505 $506 forward $258 $-1 #
coedge $-1 $355 $432 $507 $508 reversed $258 $-1 #
coedge $-1 $509 $504 $355 $435 forward $430 $-1 #
edge $-1 $510 -63.239745492438388 $511 -57.728953743274928 $434 $512 forward 7 unknown #
edge $-1 $513 1 $513 0 $356 $-1 forward 7 unknown #
vertex $-1 $357 $514 #
ellipse-curve $-1 40.360548806062951 11.452140344047603 3.066760101381365 0.73135370988377701 0 0.68199835119979291 0.68199835119979291 0 -0.73135370988377701 1 I I #
point $-1 43.914729213873784 11.452140344047603 5.013759424349022 #
point $-1 39.629195096179174 15.728620351680021 2.3847617501815721 #
coedge $-1 $515 $505 $504 $516 reversed $362 $-1 #
plane-surface $-1 45.802179021576585 0 0 -1 0 0 0 0 1 forward_v I I I I #
straight-curve $-1 -49.403686985451827 -18.579607023434974 -8.5005090088145216 -1 0 0 I I #
point $-1 45.802179021576585 18.579607023434974 -8.5005090088145216 #
point $-1 45.802179021576585 -18.579607023434974 -8.5005090088145216 #
straight-curve $-1 45.802179021576585 -18.579607023434974 0 0 0 -1 I I #
straight-curve $-1 45.802179021576585 18.579607023434974 0 0 0 -1 I I #
face $-1 $402 $461 $17 $-1 $517 reversed single #
plane-surface $-1 0 -18.579607023434974 0 0 1 0 0 0 1 forward_v I I I I #
coedge $-1 $518 $389 $519 $520 reversed $319 $-1 #
coedge $-1 $389 $518 $454 $521 reversed $319 $-1 #
coedge $-1 $455 $396 $389 $453 reversed $327 $-1 #
edge $-1 $522 -1.5 $523 1.5 $452 $524 forward 7 unknown #
coedge $-1 $391 $390 $451 $521 forward $228 $-1 #
coedge $-1 $400 $452 $390 $456 reversed $327 $-1 #
edge $-1 $462 -3.6015079638752425 $522 3.6015079638752425 $455 $525 forward 7 unknown #
coedge $-1 $479 $476 $391 $458 reversed $408 $-1 #
edge $-1 $526 -3.6015079638752425 $463 3.6015079638752425 $457 $527 forward 7 unknown #
coedge $-1 $474 $392 $476 $528 reversed $461 $-1 #
coedge $-1 $392 $474 $400 $470 forward $461 $-1 #
loop $-1 $-1 $392 $448 #
vertex $-1 $470 $529 #
vertex $-1 $458 $530 #
straight-curve $-1 -45.802179021576585 0 -5.5005090088145216 0 -1 0 I I #
coedge $-1 $519 $394 $407 $480 forward $387 $-1 #
coedge $-1 $394 $519 $396 $468 forward $387 $-1 #
straight-curve $-1 45.802179021576585 0 -8.5005090088145216 0 -1 0 I I #
edge $-1 $523 -53.00519494932707 $397 45.802179021576585 $396 $531 forward 7 unknown #
point $-1 45.802179021576585 18.579607023434974 -8.5005090088145216 #
edge $-1 $471 -8.5005090088145216 $462 5.5005090088145216 $400 $532 forward 7 unknown #
vertex $-1 $401 $533 #
straight-curve $-1 0 18.579607023434974 8.5005090088145216 -1 0 0 I I #
plane-surface $-1 0 18.579607023434974 0 0 -1 0 0 0 -1 forward_v I I I I #
coedge $-1 $460 $459 $404 $475 reversed $461 $-1 #
edge $-1 $471 -18.579607023434974 $477 18.579607023434974 $474 $534 forward 7 unknown #
coedge $-1 $457 $405 $459 $528 forward $408 $-1 #
vertex $-1 $475 $535 #
straight-curve $-1 0 -18.579607023434974 8.5005090088145216 1 0 0 I I #
coedge $-1 $407 $457 $518 $536 forward $408 $-1 #
edge $-1 $409 -95.205866007028419 $537 3.6015079638752425 $407 $538 forward 7 unknown #
point $-1 45.802179021576585 -18.579607023434974 -8.5005090088145216 #
face $-1 $539 $540 $18 $-1 $541 reversed single #
loop $-1 $-1 $542 $412 #
plane-surface $-1 -53.00519494932707 0 -7.0005090088145216 1 0 0 0 0 -1 forward_v I I I I #
coedge $-1 $543 $544 $545 $546 reversed $413 $-1 #
coedge $-1 $415 $424 $547 $548 reversed $246 $-1 #
coedge $-1 $549 $491 $415 $488 forward $550 $-1 #
edge $-1 $489 -2.9897172596510613 $551 8.5005090088145216 $415 $552 forward 7 unknown #
vertex $-1 $488 $553 #
straight-curve $-1 45.802179021576585 6.7951901739319069 2.9897172596510586 0 -1 0 I I #
coedge $-1 $487 $554 $417 $492 forward $550 $-1 #
edge $-1 $555 52.792357098060968 $489 60.327413903938385 $491 $556 forward 7 unknown #
edge $-1 $419 1.8059634983607467 $555 11.784416849503067 $421 $557 forward 7 unknown #
point $-1 40.663282703771408 8.6011536722926536 8.5005090088145181 #
coedge $-1 $558 $421 $554 $559 forward $339 $-1 #
coedge $-1 $422 $558 $560 $561 forward $339 $-1 #
coedge $-1 $560 $562 $424 $498 reversed $563 $-1 #
edge $-1 $499 -8.5005090088145216 $564 8.5005090088145216 $424 $565 forward 7 unknown #
vertex $-1 $425 $566 #
straight-curve $-1 45.802179021576585 0 8.5005090088145216 0 1 0 I I #
face $-1 $567 $568 $19 $-1 $569 forward single #
loop $-1 $-1 $507 $429 #
plane-surface $-1 0 0 8.5005090088145216 0 0 1 1 0 0 forward_v I I I I #
coedge $-1 $434 $570 $441 $516 forward $430 $-1 #
coedge $-1 $441 $571 $432 $506 reversed $362 $-1 #
edge $-1 $510 -91.604358043153155 $572 -84.069301237275738 $432 $573 forward 7 unknown #
coedge $-1 $574 $575 $433 $508 forward $502 $-1 #
edge $-1 $511 -20.640506536670326 $572 -15.501610218865149 $507 $576 forward 7 unknown #
coedge $-1 $577 $434 $575 $578 reversed $430 $-1 #
vertex $-1 $516 $579 #
vertex $-1 $508 $580 #
straight-curve $-1 45.802179021576585 8.6011536722926536 66.229462752089447 0 0 1 I I #
vertex $-1 $436 $581 #
point $-1 41.042547157262746 11.452140344047603 2.335406391497588 #
coedge $-1 $571 $441 $582 $583 reversed $362 $-1 #
edge $-1 $584 -11.784416849503067 $510 -1.8059634983607467 $504 $585 forward 7 unknown #
plane-surface $-1 -45.802179021576585 0 0 1 0 0 0 0 -1 forward_v I I I I #
coedge $-1 $451 $450 $479 $536 reversed $319 $-1 #
coedge $-1 $466 $465 $450 $520 forward $387 $-1 #
edge $-1 $537 -18.579607023434974 $523 18.579607023434974 $450 $586 forward 7 unknown #
edge $-1 $522 -18.579607023434974 $526 18.579607023434974 $451 $587 forward 7 unknown #
vertex $-1 $456 $588 #
vertex $-1 $468 $589 #
straight-curve $-1 -53.00519494932707 18.579607023434974 -7.0005090088145216 0 0 -1 I I #
straight-curve $-1 -49.403686985451827 18.579607023434974 -5.5005090088145216 -1 0 0 I I #
vertex $-1 $521 $590 #
straight-curve $-1 -49.403686985451827 -18.579607023434974 -5.5005090088145216 1 0 0 I I #
edge $-1 $477 -8.5005090088145216 $463 5.5005090088145216 $459 $591 forward 7 unknown #
point $-1 -45.802179021576585 18.579607023434974 -5.5005090088145216 #
point $-1 -45.802179021576585 -18.579607023434974 -5.5005090088145216 #
straight-curve $-1 0 18.579607023434974 -8.5005090088145216 1 0 0 I I #
straight-curve $-1 -45.802179021576585 18.579607023434974 0 0 0 -1 I I #
point $-1 -45.802179021576585 18.579607023434974 8.5005090088145216 #
straight-curve $-1 -45.802179021576585 0 8.5005090088145216 0 -1 0 I I #
point $-1 -45.802179021576585 -18.579607023434974 8.5005090088145216 #
edge $-1 $526 -1.5 $537 1.5 $518 $592 forward 7 unknown #
vertex $-1 $520 $593 #
straight-curve $-1 -49.403686985451827 -18.579607023434974 -8.5005090088145216 -1 0 0 I I #
face $-1 $594 $563 $18 $-1 $595 reversed single #
loop $-1 $-1 $547 $482 #
plane-surface $-1 0 0 -8.5005090088145216 0 0 1 1 0 0 forward_v I I I I #
coedge $-1 $596 $597 $598 $599 forward $483 $-1 #
coedge $-1 $600 $485 $601 $602 forward $413 $-1 #
coedge $-1 $485 $600 $603 $604 forward $413 $-1 #
coedge $-1 $605 $606 $485 $546 forward $607 $-1 #
edge $-1 $608 -18.579607023434974 $609 18.579607023434974 $545 $610 forward 7 unknown #
coedge $-1 $611 $612 $486 $548 forward $540 $-1 #
edge $-1 $551 -18.579607023434974 $564 18.579607023434974 $486 $613 forward 7 unknown #
coedge $-1 $598 $487 $612 $614 reversed $550 $-1 #
loop $-1 $-1 $491 $615 #
vertex $-1 $548 $616 #
straight-curve $-1 45.802179021576585 18.579607023434974 0 0 0 -1 I I #
point $-1 45.802179021576585 18.579607023434974 2.9897172596510613 #
coedge $-1 $491 $617 $495 $559 reversed $550 $-1 #
vertex $-1 $559 $618 #
straight-curve $-1 4.6589822069431399 18.579607023434974 47.110395225990558 0.68199835119979291 0 -0.73135370988377701 I I #
straight-curve $-1 40.663282703771408 6.7951901739319069 8.5005090088145181 0 1 0 I I #
coedge $-1 $496 $495 $619 $620 forward $339 $-1 #
edge $-1 $555 -40.663282703771408 $621 45.802179021576585 $554 $622 forward 7 unknown #
coedge $-1 $623 $497 $496 $561 reversed $563 $-1 #
edge $-1 $624 -45.802179021576585 $499 45.802179021576585 $560 $625 forward 7 unknown #
coedge $-1 $497 $626 $611 $627 reversed $563 $-1 #
loop $-1 $-1 $623 $539 #
vertex $-1 $498 $628 #
straight-curve $-1 45.802179021576585 -18.579607023434974 0 0 0 -1 I I #
point $-1 45.802179021576585 -18.579607023434974 8.5005090088145216 #
face $-1 $629 $630 $19 $-1 $631 reversed single #
loop $-1 $-1 $632 $501 #
plane-surface $-1 -49.403686985451827 0 -5.5005090088145216 0 0 1 1 0 0 forward_v I I I I #
coedge $-1 $504 $633 $634 $635 reversed $430 $-1 #
coedge $-1 $505 $515 $574 $636 reversed $362 $-1 #
vertex $-1 $636 $637 #
straight-curve $-1 -16.671842126569366 8.6011536722926536 69.984904356032942 -0.68199835119979291 0 0.73135370988377701 I I #
coedge $-1 $638 $507 $571 $636 forward $502 $-1 #
coedge $-1 $507 $639 $509 $578 forward $502 $-1 #
straight-curve $-1 25.161672484906259 8.6011536722926536 8.5005090088145181 -1 0 0 I I #
coedge $-1 $633 $509 $640 $641 forward $430 $-1 #
edge $-1 $642 -18.579607023434974 $511 8.6011536722926536 $509 $643 forward 7 unknown #
point $-1 45.802179021576585 8.6011536722926536 2.9897172596510586 #
point $-1 45.802179021576585 8.6011536722926536 8.5005090088145216 #
point $-1 39.629195096179174 11.452140344047603 2.3847617501815721 #
coedge $-1 $634 $644 $515 $583 forward $645 $-1 #
edge $-1 $646 52.792357098060968 $584 60.327413903938385 $582 $647 forward 7 unknown #
vertex $-1 $635 $648 #
straight-curve $-1 45.802179021576585 6.7951901739319069 2.9897172596510586 0 -1 0 I I #
straight-curve $-1 -53.00519494932707 0 -8.5005090088145216 0 1 0 I I #
straight-curve $-1 -53.00519494932707 0 -5.5005090088145216 0 -1 0 I I #
point $-1 -53.00519494932707 18.579607023434974 -5.5005090088145216 #
point $-1 -53.00519494932707 18.579607023434974 -8.5005090088145216 #
point $-1 -53.00519494932707 -18.579607023434974 -5.5005090088145216 #
straight-curve $-1 -45.802179021576585 -18.579607023434974 0 0 0 -1 I I #
straight-curve $-1 -53.00519494932707 -18.579607023434974 -7.0005090088145216 0 0 -1 I I #
point $-1 -53.00519494932707 -18.579607023434974 -8.5005090088145216 #
face $-1 $615 $607 $18 $-1 $649 reversed single #
plane-surface $-1 0 -18.579607023434974 0 0 1 0 0 0 1 forward_v I I I I #
coedge $-1 $650 $542 $651 $652 reversed $483 $-1 #
coedge $-1 $542 $650 $600 $653 reversed $483 $-1 #
coedge $-1 $601 $549 $542 $599 reversed $550 $-1 #
edge $-1 $654 -1.5 $655 1.5 $598 $656 forward 7 unknown #
coedge $-1 $544 $543 $597 $653 forward $413 $-1 #
coedge $-1 $617 $598 $543 $602 reversed $550 $-1 #
edge $-1 $608 -3.6015079638752425 $654 3.6015079638752425 $601 $657 forward 7 unknown #
coedge $-1 $626 $623 $544 $604 reversed $563 $-1 #
edge $-1 $658 -3.6015079638752425 $609 3.6015079638752425 $603 $659 forward 7 unknown #
coedge $-1 $619 $545 $623 $660 reversed $607 $-1 #
coedge $-1 $545 $619 $617 $661 forward $607 $-1 #
loop $-1 $-1 $545 $594 #
vertex $-1 $661 $662 #
vertex $-1 $604 $663 #
straight-curve $-1 -45.802179021576585 0 -5.5005090088145216 0 -1 0 I I #
coedge $-1 $651 $547 $562 $627 forward $540 $-1 #
coedge $-1 $547 $651 $549 $614 forward $540 $-1 #
straight-curve $-1 45.802179021576585 0 -8.5005090088145216 0 -1 0 I I #
edge $-1 $655 -53.00519494932707 $551 45.802179021576585 $549 $664 forward 7 unknown #
face $-1 $-1 $550 $18 $-1 $665 reversed single #
point $-1 45.802179021576585 18.579607023434974 -8.5005090088145216 #
coedge $-1 $554 $601 $606 $661 reversed $550 $-1 #
point $-1 40.663282703771408 18.579607023434974 8.5005090088145181 #
coedge $-1 $606 $605 $558 $620 reversed $607 $-1 #
edge $-1 $621 -18.579607023434974 $624 18.579607023434974 $619 $666 forward 7 unknown #
vertex $-1 $559 $667 #
straight-curve $-1 0 18.579607023434974 8.5005090088145216 -1 0 0 I I #
coedge $-1 $603 $560 $605 $660 forward $563 $-1 #
vertex $-1 $620 $668 #
straight-curve $-1 0 -18.579607023434974 8.5005090088145216 1 0 0 I I #
coedge $-1 $562 $603 $650 $669 forward $563 $-1 #
edge $-1 $564 -95.205866007028419 $670 3.6015079638752425 $562 $671 forward 7 unknown #
point $-1 45.802179021576585 -18.579607023434974 -8.5005090088145216 #
face $-1 $672 $673 $19 $-1 $674 reversed single #
loop $-1 $-1 $675 $567 #
plane-surface $-1 -53.00519494932707 0 -7.0005090088145216 1 0 0 0 0 -1 forward_v I I I I #
coedge $-1 $676 $677 $678 $679 reversed $568 $-1 #
coedge $-1 $570 $577 $680 $681 reversed $430 $-1 #
coedge $-1 $682 $582 $570 $635 forward $645 $-1 #
edge $-1 $584 -2.9897172596510613 $683 8.5005090088145216 $570 $684 forward 7 unknown #
edge $-1 $572 1.8059634983607467 $646 11.784416849503067 $574 $685 forward 7 unknown #
point $-1 40.663282703771408 8.6011536722926536 8.5005090088145181 #
coedge $-1 $686 $574 $644 $687 forward $502 $-1 #
coedge $-1 $575 $686 $688 $689 forward $502 $-1 #
coedge $-1 $688 $690 $577 $641 reversed $691 $-1 #
edge $-1 $642 -8.5005090088145216 $692 8.5005090088145216 $577 $693 forward 7 unknown #
vertex $-1 $578 $694 #
straight-curve $-1 45.802179021576585 0 8.5005090088145216 0 1 0 I I #
coedge $-1 $582 $695 $638 $687 reversed $645 $-1 #
loop $-1 $-1 $582 $696 #
vertex $-1 $687 $697 #
straight-curve $-1 4.6589822069431399 18.579607023434974 47.110395225990558 0.68199835119979291 0 -0.73135370988377701 I I #
point $-1 45.802179021576585 18.579607023434974 2.9897172596510613 #
plane-surface $-1 -45.802179021576585 0 0 1 0 0 0 0 -1 forward_v I I I I #
coedge $-1 $597 $596 $626 $669 reversed $483 $-1 #
coedge $-1 $612 $611 $596 $652 forward $540 $-1 #
edge $-1 $670 -18.579607023434974 $655 18.579607023434974 $596 $698 forward 7 unknown #
edge $-1 $654 -18.579607023434974 $658 18.579607023434974 $597 $699 forward 7 unknown #
vertex $-1 $602 $700 #
vertex $-1 $614 $701 #
straight-curve $-1 -53.00519494932707 18.579607023434974 -7.0005090088145216 0 0 -1 I I #
straight-curve $-1 -49.403686985451827 18.579607023434974 -5.5005090088145216 -1 0 0 I I #
vertex $-1 $653 $702 #
straight-curve $-1 -49.403686985451827 -18.579607023434974 -5.5005090088145216 1 0 0 I I #
edge $-1 $624 -8.5005090088145216 $609 5.5005090088145216 $605 $703 forward 7 unknown #
edge $-1 $621 -8.5005090088145216 $608 5.5005090088145216 $617 $704 forward 7 unknown #
point $-1 -45.802179021576585 18.579607023434974 -5.5005090088145216 #
point $-1 -45.802179021576585 -18.579607023434974 -5.5005090088145216 #
straight-curve $-1 0 18.579607023434974 -8.5005090088145216 1 0 0 I I #
plane-surface $-1 0 18.579607023434974 0 0 -1 0 0 0 -1 forward_v I I I I #
straight-curve $-1 -45.802179021576585 0 8.5005090088145216 0 -1 0 I I #
point $-1 -45.802179021576585 18.579607023434974 8.5005090088145216 #
point $-1 -45.802179021576585 -18.579607023434974 8.5005090088145216 #
edge $-1 $658 -1.5 $670 1.5 $650 $705 forward 7 unknown #
vertex $-1 $652 $706 #
straight-curve $-1 -49.403686985451827 -18.579607023434974 -8.5005090088145216 -1 0 0 I I #
face $-1 $707 $691 $19 $-1 $708 reversed single #
loop $-1 $-1 $680 $629 #
plane-surface $-1 0 0 -8.5005090088145216 0 0 1 1 0 0 forward_v I I I I #
coedge $-1 $709 $710 $711 $712 forward $630 $-1 #
coedge $-1 $713 $632 $714 $715 forward $568 $-1 #
coedge $-1 $632 $713 $716 $717 forward $568 $-1 #
coedge $-1 $718 $719 $632 $679 forward $720 $-1 #
edge $-1 $721 -18.579607023434974 $722 18.579607023434974 $678 $723 forward 7 unknown #
coedge $-1 $724 $725 $633 $681 forward $673 $-1 #
edge $-1 $683 -18.579607023434974 $692 18.579607023434974 $633 $726 forward 7 unknown #
coedge $-1 $711 $634 $725 $727 reversed $645 $-1 #
vertex $-1 $681 $728 #
straight-curve $-1 45.802179021576585 18.579607023434974 0 0 0 -1 I I #
straight-curve $-1 40.663282703771408 6.7951901739319069 8.5005090088145181 0 1 0 I I #
coedge $-1 $639 $638 $729 $730 forward $502 $-1 #
edge $-1 $646 -40.663282703771408 $731 45.802179021576585 $644 $732 forward 7 unknown #
coedge $-1 $733 $640 $639 $689 reversed $691 $-1 #
edge $-1 $734 -45.802179021576585 $642 45.802179021576585 $688 $735 forward 7 unknown #
coedge $-1 $640 $736 $724 $737 reversed $691 $-1 #
loop $-1 $-1 $733 $672 #
vertex $-1 $641 $738 #
straight-curve $-1 45.802179021576585 -18.579607023434974 0 0 0 -1 I I #
point $-1 45.802179021576585 -18.579607023434974 8.5005090088145216 #
coedge $-1 $644 $714 $719 $739 reversed $645 $-1 #
face $-1 $-1 $645 $19 $-1 $740 reversed single #
point $-1 40.663282703771408 18.579607023434974 8.5005090088145181 #
straight-curve $-1 -53.00519494932707 0 -8.5005090088145216 0 1 0 I I #
straight-curve $-1 -53.00519494932707 0 -5.5005090088145216 0 -1 0 I I #
point $-1 -53.00519494932707 18.579607023434974 -5.5005090088145216 #
point $-1 -53.00519494932707 18.579607023434974 -8.5005090088145216 #
point $-1 -53.00519494932707 -18.579607023434974 -5.5005090088145216 #
straight-curve $-1 -45.802179021576585 -18.579607023434974 0 0 0 -1 I I #
straight-curve $-1 -45.802179021576585 18.579607023434974 0 0 0 -1 I I #
straight-curve $-1 -53.00519494932707 -18.579607023434974 -7.0005090088145216 0 0 -1 I I #
point $-1 -53.00519494932707 -18.579607023434974 -8.5005090088145216 #
face $-1 $696 $720 $19 $-1 $741 reversed single #
plane-surface $-1 0 -18.579607023434974 0 0 1 0 0 0 1 forward_v I I I I #
coedge $-1 $742 $675 $743 $744 reversed $630 $-1 #
coedge $-1 $675 $742 $713 $745 reversed $630 $-1 #
coedge $-1 $714 $682 $675 $712 reversed $645 $-1 #
edge $-1 $746 -1.5 $747 1.5 $711 $748 forward 7 unknown #
coedge $-1 $677 $676 $710 $745 forward $568 $-1 #
coedge $-1 $695 $711 $676 $715 reversed $645 $-1 #
edge $-1 $721 -3.6015079638752425 $746 3.6015079638752425 $714 $749 forward 7 unknown #
coedge $-1 $736 $733 $677 $717 reversed $691 $-1 #
edge $-1 $750 -3.6015079638752425 $722 3.6015079638752425 $716 $751 forward 7 unknown #
coedge $-1 $729 $678 $733 $752 reversed $720 $-1 #
coedge $-1 $678 $729 $695 $739 forward $720 $-1 #
loop $-1 $-1 $678 $707 #
vertex $-1 $739 $753 #
vertex $-1 $717 $754 #
straight-curve $-1 -45.802179021576585 0 -5.5005090088145216 0 -1 0 I I #
coedge $-1 $743 $680 $690 $737 forward $673 $-1 #
coedge $-1 $680 $743 $682 $727 forward $673 $-1 #
straight-curve $-1 45.802179021576585 0 -8.5005090088145216 0 -1 0 I I #
edge $-1 $747 -53.00519494932707 $683 45.802179021576585 $682 $755 forward 7 unknown #
point $-1 45.802179021576585 18.579607023434974 -8.5005090088145216 #
coedge $-1 $719 $718 $686 $730 reversed $720 $-1 #
edge $-1 $731 -18.579607023434974 $734 18.579607023434974 $729 $756 forward 7 unknown #
vertex $-1 $687 $757 #
straight-curve $-1 0 18.579607023434974 8.5005090088145216 -1 0 0 I I #
coedge $-1 $716 $688 $718 $752 forward $691 $-1 #
vertex $-1 $730 $758 #
straight-curve $-1 0 -18.579607023434974 8.5005090088145216 1 0 0 I I #
coedge $-1 $690 $716 $742 $759 forward $691 $-1 #
edge $-1 $692 -95.205866007028419 $760 3.6015079638752425 $690 $761 forward 7 unknown #
point $-1 45.802179021576585 -18.579607023434974 -8.5005090088145216 #
edge $-1 $731 -8.5005090088145216 $721 5.5005090088145216 $695 $762 forward 7 unknown #
plane-surface $-1 0 18.579607023434974 0 0 -1 0 0 0 -1 forward_v I I I I #
plane-surface $-1 -45.802179021576585 0 0 1 0 0 0 0 -1 forward_v I I I I #
coedge $-1 $710 $709 $736 $759 reversed $630 $-1 #
coedge $-1 $725 $724 $709 $744 forward $673 $-1 #
edge $-1 $760 -18.579607023434974 $747 18.579607023434974 $709 $763 forward 7 unknown #
edge $-1 $746 -18.579607023434974 $750 18.579607023434974 $710 $764 forward 7 unknown #
vertex $-1 $715 $765 #
vertex $-1 $727 $766 #
straight-curve $-1 -53.00519494932707 18.579607023434974 -7.0005090088145216 0 0 -1 I I #
straight-curve $-1 -49.403686985451827 18.579607023434974 -5.5005090088145216 -1 0 0 I I #
vertex $-1 $745 $767 #
straight-curve $-1 -49.403686985451827 -18.579607023434974 -5.5005090088145216 1 0 0 I I #
edge $-1 $734 -8.5005090088145216 $722 5.5005090088145216 $718 $768 forward 7 unknown #
point $-1 -45.802179021576585 18.579607023434974 -5.5005090088145216 #
point $-1 -45.802179021576585 -18.579607023434974 -5.5005090088145216 #
straight-curve $-1 0 18.579607023434974 -8.5005090088145216 1 0 0 I I #
straight-curve $-1 -45.802179021576585 0 8.5005090088145216 0 -1 0 I I #
point $-1 -45.802179021576585 18.579607023434974 8.5005090088145216 #
point $-1 -45.802179021576585 -18.579607023434974 8.5005090088145216 #
edge $-1 $750 -1.5 $760 1.5 $742 $769 forward 7 unknown #
vertex $-1 $744 $770 #
straight-curve $-1 -49.403686985451827 -18.579607023434974 -8.5005090088145216 -1 0 0 I I #
straight-curve $-1 -45.802179021576585 18.579607023434974 0 0 0 -1 I I #
straight-curve $-1 -53.00519494932707 0 -8.5005090088145216 0 1 0 I I #
straight-curve $-1 -53.00519494932707 0 -5.5005090088145216 0 -1 0 I I #
point $-1 -53.00519494932707 18.579607023434974 -5.5005090088145216 #
point $-1 -53.00519494932707 18.579607023434974 -8.5005090088145216 #
point $-1 -53.00519494932707 -18.579607023434974 -5.5005090088145216 #
straight-curve $-1 -45.802179021576585 -18.579607023434974 0 0 0 -1 I I #
straight-curve $-1 -53.00519494932707 -18.579607023434974 -7.0005090088145216 0 0 -1 I I #
point $-1 -53.00519494932707 -18.579607023434974 -8.5005090088145216 #
End-of-ACIS-data 