500 0 3 0           
7 Unknown 11 ACIS 5.0 NT 24 Fri Mar 26 18:56:01 1999 
-1 9.9999999999999995e-007 1e-010 
body $-1 $3 $-1 $4 #
body $-1 $5 $-1 $6 #
body $-1 $7 $-1 $8 #
lump $-1 $-1 $9 $0 #
transform $-1 1 0 0 0 1 0 0 0 1 50.389721366008487 21.150088652092794 10.332606101682675 1 rotate no_reflect no_shear #
lump $-1 $-1 $10 $1 #
transform $-1 1 0 0 0 1 0 0 0 1 50.389721366008487 21.150088652092794 10.332606101682675 1 rotate no_reflect no_shear #
lump $-1 $-1 $11 $2 #
transform $-1 1 0 0 0 1 0 0 0 1 50.389721366008487 21.150088652092794 10.332606101682675 1 rotate no_reflect no_shear #
shell $-1 $-1 $-1 $12 $-1 $3 #
shell $-1 $-1 $-1 $13 $-1 $5 #
shell $-1 $-1 $-1 $14 $-1 $7 #
face $-1 $15 $16 $9 $-1 $17 forward single #
face $-1 $18 $19 $10 $-1 $20 reversed single #
face $-1 $21 $22 $11 $-1 $23 forward single #
face $-1 $24 $25 $9 $-1 $26 reversed single #
loop $-1 $-1 $27 $12 #
plane-surface $-1 0 0 10.332606101682675 0 0 1 1 0 0 forward_v I I I I #
face $-1 $28 $29 $10 $-1 $30 forward single #
loop $-1 $-1 $31 $13 #
plane-surface $-1 0 -17.198380027111504 -5.8699845401198161 0 0 1 1 0 0 forward_v I I I I #
face $-1 $32 $33 $11 $-1 $34 forward single #
loop $-1 $-1 $35 $14 #
plane-surface $-1 0 16.017185962538431 6.4711938650560388 0 0 1 1 0 0 forward_v I I I I #
face $-1 $36 $37 $9 $-1 $38 reversed single #
loop $-1 $-1 $39 $15 #
plane-surface $-1 0 0 -10.332606101682675 0 0 1 1 0 0 forward_v I I I I #
coedge $-1 $40 $41 $42 $43 forward $16 $-1 #
face $-1 $44 $45 $10 $-1 $46 forward single #
loop $-1 $-1 $47 $18 #
plane-surface $-1 0 -17.198380027111504 -8.8699845401198161 0 0 1 1 0 0 forward_v I I I I #
coedge $-1 $48 $49 $50 $51 reversed $19 $-1 #
face $-1 $52 $53 $11 $-1 $54 forward single #
loop $-1 $-1 $55 $21 #
plane-surface $-1 0 10.884283272984064 8.4018999833693577 0 1 0 0 0 1 forward_v I I I I #
coedge $-1 $56 $57 $58 $59 reversed $22 $-1 #
face $-1 $60 $61 $9 $-1 $62 reversed single #
loop $-1 $-1 $63 $24 #
plane-surface $-1 0 -21.150088652092794 0 0 1 0 0 0 1 forward_v I I I I #
coedge $-1 $64 $65 $66 $67 forward $25 $-1 #
coedge $-1 $68 $27 $69 $70 forward $16 $-1 #
coedge $-1 $27 $68 $71 $72 forward $16 $-1 #
coedge $-1 $73 $74 $27 $43 reversed $75 $-1 #
edge $-1 $76 -21.150088652092794 $77 21.150088652092794 $42 $78 forward 7 unknown #
face $-1 $79 $80 $10 $-1 $81 reversed single #
loop $-1 $-1 $82 $28 #
plane-surface $-1 0 -13.246671402130216 -7.3699845401198161 0 -1 0 0 0 -1 forward_v I I I I #
coedge $-1 $83 $84 $85 $86 reversed $29 $-1 #
coedge $-1 $87 $31 $88 $89 reversed $19 $-1 #
coedge $-1 $31 $87 $90 $91 reversed $19 $-1 #
coedge $-1 $92 $93 $31 $51 forward $80 $-1 #
edge $-1 $94 -12.550898638537038 $95 -4.6474813885744641 $50 $96 forward 7 unknown #
face $-1 $97 $98 $11 $-1 $99 reversed single #
loop $-1 $-1 $100 $32 #
plane-surface $-1 0 0 10.332606101682675 0 0 1 1 0 0 forward_v I I I I #
coedge $-1 $101 $102 $103 $104 reversed $33 $-1 #
coedge $-1 $105 $35 $106 $107 reversed $22 $-1 #
coedge $-1 $35 $105 $102 $108 reversed $22 $-1 #
coedge $-1 $109 $110 $35 $59 forward $111 $-1 #
edge $-1 $112 -13.141495670823582 $113 -2.8756902917148484 $58 $114 forward 7 unknown #
face $-1 $115 $116 $9 $-1 $117 reversed single #
loop $-1 $-1 $118 $36 #
plane-surface $-1 -50.389721366008487 0 0 1 0 0 0 0 -1 forward_v I I I I #
coedge $-1 $119 $71 $120 $121 forward $37 $-1 #
coedge $-1 $122 $39 $119 $123 forward $25 $-1 #
coedge $-1 $39 $122 $124 $125 forward $25 $-1 #
coedge $-1 $74 $73 $39 $67 reversed $75 $-1 #
edge $-1 $126 -21.150088652092794 $127 21.150088652092794 $66 $128 forward 7 unknown #
coedge $-1 $41 $40 $129 $130 forward $16 $-1 #
coedge $-1 $131 $132 $40 $70 reversed $116 $-1 #
edge $-1 $77 -50.389721366008487 $133 50.389721366008487 $69 $134 forward 7 unknown #
coedge $-1 $63 $135 $41 $72 reversed $37 $-1 #
edge $-1 $136 -50.389721366008487 $76 50.389721366008487 $71 $137 forward 7 unknown #
coedge $-1 $66 $42 $135 $138 forward $75 $-1 #
coedge $-1 $42 $66 $131 $139 reversed $75 $-1 #
loop $-1 $-1 $73 $115 #
vertex $-1 $43 $140 #
vertex $-1 $43 $141 #
straight-curve $-1 50.389721366008487 0 10.332606101682675 0 1 0 I I #
face $-1 $142 $143 $10 $-1 $144 reversed single #
loop $-1 $-1 $50 $44 #
plane-surface $-1 50.389721366008487 0 0 -1 0 0 0 0 1 forward_v I I I I #
coedge $-1 $90 $145 $92 $146 reversed $45 $-1 #
coedge $-1 $147 $47 $145 $148 reversed $29 $-1 #
coedge $-1 $47 $147 $149 $150 reversed $29 $-1 #
coedge $-1 $151 $92 $47 $86 forward $80 $-1 #
edge $-1 $152 4.6474813885744641 $153 12.550898638537038 $85 $154 forward 7 unknown #
coedge $-1 $49 $48 $155 $156 reversed $19 $-1 #
coedge $-1 $157 $158 $48 $89 forward $159 $-1 #
edge $-1 $160 -50.389721366008487 $94 50.389721366008487 $88 $161 forward 7 unknown #
coedge $-1 $162 $82 $49 $91 forward $45 $-1 #
edge $-1 $95 -50.389721366008487 $163 50.389721366008487 $90 $164 forward 7 unknown #
coedge $-1 $85 $50 $82 $146 forward $80 $-1 #
coedge $-1 $50 $165 $157 $166 forward $80 $-1 #
vertex $-1 $89 $167 #
vertex $-1 $51 $168 #
straight-curve $-1 50.389721366008487 -8.5991900135557522 -5.8699845401198161 0 1 0 I I #
face $-1 $169 $170 $11 $-1 $171 reversed single #
loop $-1 $-1 $103 $52 #
plane-surface $-1 -50.389721366008487 0 0 1 0 0 0 0 -1 forward_v I I I I #
coedge $-1 $172 $173 $101 $174 forward $53 $-1 #
coedge $-1 $175 $55 $100 $174 reversed $33 $-1 #
coedge $-1 $55 $175 $57 $108 forward $33 $-1 #
coedge $-1 $176 $177 $55 $104 forward $98 $-1 #
edge $-1 $178 -6.1316561099979978 $179 -2.2702438733713599 $103 $180 forward 7 unknown #
coedge $-1 $57 $56 $176 $181 reversed $22 $-1 #
coedge $-1 $182 $183 $56 $107 forward $184 $-1 #
edge $-1 $185 -50.389721366008487 $112 50.389721366008487 $106 $186 forward 7 unknown #
edge $-1 $113 -50.389721366008487 $179 50.389721366008487 $102 $187 forward 7 unknown #
coedge $-1 $188 $58 $175 $189 forward $111 $-1 #
coedge $-1 $58 $190 $182 $191 reversed $111 $-1 #
loop $-1 $-1 $109 $192 #
vertex $-1 $191 $193 #
vertex $-1 $59 $194 #
straight-curve $-1 50.389721366008487 8.0085929812692154 6.4711938650560388 0 -1 0 I I #
face $-1 $-1 $75 $9 $-1 $195 reversed single #
loop $-1 $-1 $131 $60 #
plane-surface $-1 0 21.150088652092794 0 0 -1 0 0 0 -1 forward_v I I I I #
coedge $-1 $196 $129 $132 $197 forward $61 $-1 #
coedge $-1 $135 $63 $64 $123 reversed $37 $-1 #
coedge $-1 $129 $196 $63 $121 reversed $61 $-1 #
edge $-1 $136 -10.332606101682675 $198 10.332606101682675 $120 $199 forward 7 unknown #
coedge $-1 $65 $64 $196 $200 forward $25 $-1 #
edge $-1 $127 -50.389721366008487 $198 50.389721366008487 $119 $201 forward 7 unknown #
coedge $-1 $132 $131 $65 $125 reversed $116 $-1 #
edge $-1 $202 -50.389721366008487 $126 50.389721366008487 $124 $203 forward 7 unknown #
vertex $-1 $67 $204 #
vertex $-1 $138 $205 #
straight-curve $-1 50.389721366008487 0 -10.332606101682675 0 -1 0 I I #
coedge $-1 $118 $120 $68 $130 reversed $61 $-1 #
edge $-1 $133 -21.150088652092794 $136 21.150088652092794 $129 $206 forward 7 unknown #
coedge $-1 $124 $69 $74 $139 forward $116 $-1 #
coedge $-1 $69 $124 $118 $197 reversed $116 $-1 #
vertex $-1 $70 $207 #
straight-curve $-1 0 21.150088652092794 10.332606101682675 -1 0 0 I I #
coedge $-1 $71 $119 $73 $138 reversed $37 $-1 #
vertex $-1 $130 $208 #
straight-curve $-1 0 -21.150088652092794 10.332606101682675 1 0 0 I I #
edge $-1 $76 -10.332606101682675 $127 10.332606101682675 $73 $209 forward 7 unknown #
edge $-1 $77 -10.332606101682675 $126 10.332606101682675 $74 $210 forward 7 unknown #
point $-1 50.389721366008487 -21.150088652092794 10.332606101682675 #
point $-1 50.389721366008487 21.150088652092794 10.332606101682675 #
face $-1 $211 $212 $10 $-1 $213 forward single #
loop $-1 $-1 $149 $79 #
plane-surface $-1 0 -21.150088652092794 0 0 1 0 0 0 1 forward_v I I I I #
coedge $-1 $82 $162 $83 $148 forward $45 $-1 #
edge $-1 $95 2.184992270059908 $152 5.184992270059908 $92 $214 forward 7 unknown #
coedge $-1 $84 $83 $215 $216 reversed $29 $-1 #
edge $-1 $217 -50.389721366008487 $152 50.389721366008487 $145 $218 forward 7 unknown #
coedge $-1 $219 $220 $84 $150 forward $143 $-1 #
edge $-1 $153 -50.389721366008487 $221 50.389721366008487 $149 $222 forward 7 unknown #
coedge $-1 $223 $85 $220 $224 forward $80 $-1 #
vertex $-1 $86 $225 #
vertex $-1 $224 $226 #
straight-curve $-1 50.389721366008487 -8.5991900135557522 -8.8699845401198161 0 -1 0 I I #
coedge $-1 $227 $228 $87 $156 forward $229 $-1 #
edge $-1 $163 4.6474813885744641 $160 12.550898638537038 $155 $230 forward 7 unknown #
coedge $-1 $231 $88 $93 $166 reversed $159 $-1 #
coedge $-1 $88 $231 $227 $232 forward $159 $-1 #
loop $-1 $-1 $88 $233 #
vertex $-1 $156 $234 #
straight-curve $-1 0 -21.150088652092794 -5.8699845401198161 1 0 0 I I #
coedge $-1 $145 $90 $228 $235 reversed $45 $-1 #
vertex $-1 $156 $236 #
straight-curve $-1 0 -13.246671402130216 -5.8699845401198161 -1 0 0 I I #
coedge $-1 $93 $237 $238 $239 reversed $80 $-1 #
edge $-1 $240 -10.332606101682675 $94 5.8699845401198161 $93 $241 forward 7 unknown #
point $-1 50.389721366008487 -21.150088652092791 -5.8699845401198161 #
point $-1 50.389721366008487 -13.246671402130216 -5.8699845401198161 #
face $-1 $242 $243 $11 $-1 $244 forward single #
loop $-1 $-1 $245 $97 #
plane-surface $-1 0 -17.198380027111504 -5.8699845401198161 0 0 1 1 0 0 forward_v I I I I #
coedge $-1 $246 $100 $177 $247 forward $53 $-1 #
coedge $-1 $100 $246 $188 $248 forward $53 $-1 #
edge $-1 $249 -50.389721366008487 $178 50.389721366008487 $100 $250 forward 7 unknown #
coedge $-1 $102 $101 $109 $189 reversed $33 $-1 #
coedge $-1 $251 $103 $105 $181 forward $98 $-1 #
coedge $-1 $103 $252 $172 $247 reversed $98 $-1 #
vertex $-1 $247 $253 #
vertex $-1 $181 $254 #
straight-curve $-1 -50.389721366008487 10.884283272984064 4.2009499916846789 0 0 -1 I I #
edge $-1 $179 2.8756902917148484 $185 13.141495670823582 $176 $255 forward 7 unknown #
coedge $-1 $256 $106 $110 $191 forward $184 $-1 #
coedge $-1 $106 $256 $251 $257 reversed $184 $-1 #
loop $-1 $-1 $106 $258 #
vertex $-1 $257 $259 #
straight-curve $-1 0 21.150088652092794 6.4711938650560388 1 0 0 I I #
straight-curve $-1 0 10.884283272984064 6.4711938650560388 -1 0 0 I I #
coedge $-1 $260 $109 $173 $248 reversed $111 $-1 #
edge $-1 $113 2.2702438733713599 $249 6.1316561099979978 $109 $261 forward 7 unknown #
coedge $-1 $110 $262 $263 $264 reversed $111 $-1 #
edge $-1 $112 -6.4711938650560388 $265 10.332606101682675 $110 $266 forward 7 unknown #
face $-1 $267 $111 $11 $-1 $268 reversed single #
point $-1 50.389721366008487 21.150088652092798 6.4711938650560388 #
point $-1 50.389721366008487 10.884283272984064 6.4711938650560388 #
plane-surface $-1 50.389721366008487 0 0 -1 0 0 0 0 1 forward_v I I I I #
coedge $-1 $120 $118 $122 $200 reversed $61 $-1 #
edge $-1 $133 -10.332606101682675 $202 10.332606101682675 $132 $269 forward 7 unknown #
vertex $-1 $200 $270 #
straight-curve $-1 -50.389721366008487 -21.150088652092794 0 0 0 -1 I I #
edge $-1 $198 -21.150088652092794 $202 21.150088652092794 $196 $271 forward 7 unknown #
straight-curve $-1 0 -21.150088652092794 -10.332606101682675 -1 0 0 I I #
vertex $-1 $125 $272 #
straight-curve $-1 0 21.150088652092794 -10.332606101682675 1 0 0 I I #
point $-1 50.389721366008487 21.150088652092794 -10.332606101682675 #
point $-1 50.389721366008487 -21.150088652092794 -10.332606101682675 #
straight-curve $-1 -50.389721366008487 0 10.332606101682675 0 -1 0 I I #
point $-1 -50.389721366008487 21.150088652092794 10.332606101682675 #
point $-1 -50.389721366008487 -21.150088652092794 10.332606101682675 #
straight-curve $-1 50.389721366008487 -21.150088652092794 0 0 0 -1 I I #
straight-curve $-1 50.389721366008487 21.150088652092794 0 0 0 -1 I I #
face $-1 $233 $273 $10 $-1 $274 reversed single #
loop $-1 $-1 $238 $142 #
plane-surface $-1 0 0 10.332606101682675 0 0 1 1 0 0 forward_v I I I I #
straight-curve $-1 50.389721366008487 -13.246671402130216 -3.684992270059908 0 0 -1 I I #
coedge $-1 $228 $275 $147 $216 forward $229 $-1 #
edge $-1 $221 -12.550898638537038 $217 -4.6474813885744641 $215 $276 forward 7 unknown #
vertex $-1 $216 $277 #
straight-curve $-1 0 -13.246671402130216 -8.8699845401198161 1 0 0 I I #
coedge $-1 $278 $149 $275 $279 forward $143 $-1 #
coedge $-1 $149 $278 $151 $224 reversed $143 $-1 #
vertex $-1 $279 $280 #
straight-curve $-1 0 -21.150088652092794 -8.8699845401198161 -1 0 0 I I #
coedge $-1 $237 $151 $281 $282 reversed $80 $-1 #
edge $-1 $153 8.8699845401198161 $283 10.332606101682675 $151 $241 forward 7 unknown #
point $-1 50.389721366008487 -13.246671402130216 -8.8699845401198161 #
point $-1 50.389721366008487 -21.150088652092791 -8.8699845401198161 #
coedge $-1 $284 $155 $158 $232 reversed $229 $-1 #
coedge $-1 $155 $215 $162 $235 forward $229 $-1 #
loop $-1 $-1 $155 $285 #
straight-curve $-1 -50.389721366008487 -8.5991900135557522 -5.8699845401198161 0 -1 0 I I #
coedge $-1 $158 $157 $286 $287 reversed $159 $-1 #
edge $-1 $288 -10.332606101682675 $160 5.8699845401198161 $227 $289 forward 7 unknown #
face $-1 $285 $159 $10 $-1 $144 reversed single #
point $-1 -50.389721366008487 -21.150088652092791 -5.8699845401198161 #
edge $-1 $217 -5.184992270059908 $163 -2.184992270059908 $228 $290 forward 7 unknown #
point $-1 -50.389721366008487 -13.246671402130216 -5.8699845401198161 #
coedge $-1 $165 $223 $291 $292 reversed $80 $-1 #
coedge $-1 $293 $286 $165 $239 forward $212 $-1 #
edge $-1 $240 -21.150088652092794 $294 21.150088652092794 $165 $295 forward 7 unknown #
vertex $-1 $239 $296 #
straight-curve $-1 50.389721366008487 -21.150088652092794 0 0 0 -1 I I #
face $-1 $192 $297 $11 $-1 $298 forward single #
loop $-1 $-1 $299 $169 #
plane-surface $-1 0 -17.198380027111504 -8.8699845401198161 0 0 1 1 0 0 forward_v I I I I #
coedge $-1 $300 $301 $302 $303 reversed $170 $-1 #
coedge $-1 $173 $172 $304 $305 forward $53 $-1 #
edge $-1 $178 -10.884283272984064 $306 21.150088652092794 $177 $307 forward 7 unknown #
edge $-1 $308 -21.150088652092794 $249 10.884283272984064 $188 $309 forward 7 unknown #
vertex $-1 $174 $310 #
straight-curve $-1 0 10.884283272984064 10.332606101682675 -1 0 0 I I #
coedge $-1 $311 $176 $183 $257 forward $98 $-1 #
coedge $-1 $177 $312 $313 $314 reversed $98 $-1 #
point $-1 -50.389721366008487 10.884283272984064 10.332606101682677 #
point $-1 -50.389721366008487 10.884283272984064 6.4711938650560388 #
straight-curve $-1 -50.389721366008487 8.0085929812692154 6.4711938650560388 0 1 0 I I #
coedge $-1 $183 $182 $315 $316 reversed $184 $-1 #
edge $-1 $185 -6.4711938650560388 $317 10.332606101682675 $183 $318 forward 7 unknown #
face $-1 $-1 $184 $11 $-1 $319 reversed single #
point $-1 -50.389721366008487 21.150088652092798 6.4711938650560388 #
coedge $-1 $302 $188 $320 $321 forward $111 $-1 #
straight-curve $-1 50.389721366008487 10.884283272984064 4.2009499916846789 0 0 1 I I #
coedge $-1 $190 $322 $323 $324 forward $111 $-1 #
coedge $-1 $325 $315 $190 $264 forward $326 $-1 #
edge $-1 $265 -21.150088652092794 $327 21.150088652092794 $190 $328 forward 7 unknown #
vertex $-1 $264 $329 #
straight-curve $-1 50.389721366008487 21.150088652092794 0 0 0 -1 I I #
face $-1 $330 $331 $11 $-1 $332 reversed single #
plane-surface $-1 50.389721366008487 0 0 -1 0 0 0 0 1 forward_v I I I I #
straight-curve $-1 -50.389721366008487 21.150088652092794 0 0 0 -1 I I #
point $-1 -50.389721366008487 -21.150088652092794 -10.332606101682675 #
straight-curve $-1 -50.389721366008487 0 -10.332606101682675 0 1 0 I I #
point $-1 -50.389721366008487 21.150088652092794 -10.332606101682675 #
loop $-1 $-1 $281 $211 #
plane-surface $-1 0 0 -10.332606101682675 0 0 1 1 0 0 forward_v I I I I #
coedge $-1 $215 $333 $219 $279 reversed $229 $-1 #
straight-curve $-1 -50.389721366008487 -8.5991900135557522 -8.8699845401198161 0 1 0 I I #
point $-1 -50.389721366008487 -13.246671402130216 -8.8699845401198161 #
coedge $-1 $220 $219 $334 $335 reversed $143 $-1 #
edge $-1 $221 8.8699845401198161 $336 10.332606101682675 $275 $289 forward 7 unknown #
point $-1 -50.389721366008487 -21.150088652092791 -8.8699845401198161 #
coedge $-1 $334 $337 $223 $282 forward $273 $-1 #
edge $-1 $338 -21.150088652092794 $283 21.150088652092794 $223 $339 forward 7 unknown #
vertex $-1 $224 $340 #
coedge $-1 $341 $227 $342 $343 reversed $229 $-1 #
face $-1 $344 $229 $10 $-1 $345 reversed single #
coedge $-1 $238 $342 $231 $287 forward $212 $-1 #
edge $-1 $288 -50.389721366008487 $240 50.389721366008487 $231 $346 forward 7 unknown #
vertex $-1 $343 $347 #
straight-curve $-1 -50.389721366008487 -21.150088652092794 0 0 0 -1 I I #
straight-curve $-1 -50.389721366008487 -13.246671402130216 -3.684992270059908 0 0 1 I I #
coedge $-1 $348 $349 $237 $292 forward $350 $-1 #
edge $-1 $294 -10.332606101682675 $338 10.332606101682675 $237 $351 forward 7 unknown #
coedge $-1 $342 $238 $349 $352 forward $212 $-1 #
vertex $-1 $239 $353 #
straight-curve $-1 50.389721366008487 0 10.332606101682675 0 1 0 I I #
point $-1 50.389721366008487 -21.150088652092794 10.332606101682675 #
loop $-1 $-1 $354 $242 #
plane-surface $-1 0 -13.246671402130216 -7.3699845401198161 0 -1 0 0 0 -1 forward_v I I I I #
coedge $-1 $355 $356 $322 $357 reversed $243 $-1 #
coedge $-1 $358 $245 $359 $360 reversed $170 $-1 #
coedge $-1 $245 $358 $361 $362 reversed $170 $-1 #
coedge $-1 $363 $260 $245 $303 forward $111 $-1 #
edge $-1 $364 -12.550898638537038 $365 -4.6474813885744641 $302 $366 forward 7 unknown #
coedge $-1 $313 $320 $246 $305 reversed $367 $-1 #
edge $-1 $306 -50.389721366008487 $308 50.389721366008487 $304 $368 forward 7 unknown #
vertex $-1 $247 $369 #
straight-curve $-1 -50.389721366008487 0 10.332606101682675 0 -1 0 I I #
vertex $-1 $248 $370 #
straight-curve $-1 50.389721366008487 0 10.332606101682675 0 1 0 I I #
point $-1 50.389721366008487 10.884283272984064 10.332606101682677 #
coedge $-1 $371 $251 $372 $373 reversed $98 $-1 #
coedge $-1 $252 $374 $358 $375 forward $98 $-1 #
coedge $-1 $359 $304 $252 $314 forward $367 $-1 #
edge $-1 $306 -10.332606101682675 $376 5.8699845401198161 $252 $377 forward 7 unknown #
coedge $-1 $263 $372 $256 $316 forward $326 $-1 #
edge $-1 $317 -50.389721366008487 $265 50.389721366008487 $256 $378 forward 7 unknown #
vertex $-1 $316 $379 #
straight-curve $-1 -50.389721366008487 21.150088652092794 0 0 0 -1 I I #
plane-surface $-1 0 21.150088652092794 0 0 -1 0 0 0 -1 forward_v I I I I #
coedge $-1 $304 $359 $260 $321 reversed $367 $-1 #
edge $-1 $308 -10.332606101682675 $364 5.8699845401198161 $260 $380 forward 7 unknown #
coedge $-1 $262 $363 $299 $357 forward $111 $-1 #
coedge $-1 $381 $382 $262 $324 reversed $331 $-1 #
edge $-1 $383 8.8699845401198161 $327 10.332606101682675 $262 $380 forward 7 unknown #
coedge $-1 $372 $263 $382 $384 forward $326 $-1 #
loop $-1 $-1 $263 $330 #
vertex $-1 $324 $385 #
straight-curve $-1 50.389721366008487 0 -10.332606101682675 0 -1 0 I I #
point $-1 50.389721366008487 21.150088652092794 -10.332606101682675 #
face $-1 $386 $326 $11 $-1 $387 reversed single #
loop $-1 $-1 $381 $267 #
plane-surface $-1 0 -21.150088652092794 0 0 1 0 0 0 1 forward_v I I I I #
coedge $-1 $275 $341 $388 $389 reversed $229 $-1 #
coedge $-1 $388 $281 $278 $335 forward $273 $-1 #
edge $-1 $283 -50.389721366008487 $336 50.389721366008487 $278 $390 forward 7 unknown #
vertex $-1 $389 $391 #
coedge $-1 $281 $388 $348 $392 forward $273 $-1 #
vertex $-1 $282 $393 #
straight-curve $-1 50.389721366008487 0 -10.332606101682675 0 -1 0 I I #
point $-1 50.389721366008487 -21.150088652092794 -10.332606101682675 #
coedge $-1 $333 $284 $394 $395 forward $229 $-1 #
coedge $-1 $286 $293 $284 $343 forward $212 $-1 #
edge $-1 $396 -21.150088652092794 $288 21.150088652092794 $284 $397 forward 7 unknown #
face $-1 $-1 $350 $10 $-1 $398 reversed single #
plane-surface $-1 -50.389721366008487 0 0 1 0 0 0 0 -1 forward_v I I I I #
straight-curve $-1 0 -21.150088652092794 10.332606101682675 1 0 0 I I #
point $-1 -50.389721366008487 -21.150088652092794 10.332606101682675 #
coedge $-1 $394 $291 $337 $392 reversed $350 $-1 #
coedge $-1 $291 $394 $293 $352 reversed $350 $-1 #
loop $-1 $-1 $291 $344 #
straight-curve $-1 50.389721366008487 21.150088652092794 0 0 0 -1 I I #
edge $-1 $294 -50.389721366008487 $396 50.389721366008487 $349 $399 forward 7 unknown #
point $-1 50.389721366008487 21.150088652092794 10.332606101682675 #
coedge $-1 $361 $400 $363 $401 reversed $297 $-1 #
coedge $-1 $402 $299 $400 $403 reversed $243 $-1 #
coedge $-1 $299 $402 $381 $404 reversed $243 $-1 #
edge $-1 $405 4.6474813885744641 $383 12.550898638537038 $322 $406 forward 7 unknown #
coedge $-1 $301 $300 $312 $375 reversed $170 $-1 #
coedge $-1 $320 $313 $300 $360 forward $367 $-1 #
edge $-1 $376 -50.389721366008487 $364 50.389721366008487 $359 $407 forward 7 unknown #
coedge $-1 $408 $354 $301 $362 forward $297 $-1 #
edge $-1 $365 -50.389721366008487 $409 50.389721366008487 $361 $410 forward 7 unknown #
coedge $-1 $322 $302 $354 $401 forward $111 $-1 #
vertex $-1 $360 $411 #
vertex $-1 $303 $412 #
straight-curve $-1 50.389721366008487 -8.5991900135557522 -5.8699845401198161 0 1 0 I I #
loop $-1 $-1 $359 $386 #
straight-curve $-1 0 -21.150088652092794 10.332606101682675 1 0 0 I I #
point $-1 -50.389721366008487 -21.150088652092794 10.332606101682675 #
point $-1 50.389721366008487 -21.150088652092794 10.332606101682675 #
coedge $-1 $413 $311 $414 $415 reversed $98 $-1 #
coedge $-1 $315 $325 $311 $373 forward $326 $-1 #
edge $-1 $416 -21.150088652092794 $317 21.150088652092794 $311 $417 forward 7 unknown #
coedge $-1 $312 $413 $408 $418 forward $98 $-1 #
edge $-1 $409 4.6474813885744641 $376 12.550898638537038 $312 $419 forward 7 unknown #
vertex $-1 $375 $420 #
straight-curve $-1 -50.389721366008487 -21.150088652092794 0 0 0 -1 I I #
straight-curve $-1 0 21.150088652092794 -10.332606101682675 1 0 0 I I #
point $-1 -50.389721366008487 21.150088652092794 -10.332606101682675 #
straight-curve $-1 50.389721366008487 -21.150088652092794 0 0 0 -1 I I #
coedge $-1 $414 $323 $356 $404 forward $331 $-1 #
coedge $-1 $323 $414 $325 $384 reversed $331 $-1 #
vertex $-1 $324 $421 #
edge $-1 $327 -50.389721366008487 $416 50.389721366008487 $382 $422 forward 7 unknown #
point $-1 50.389721366008487 -21.150088652092794 -10.332606101682675 #
face $-1 $258 $367 $11 $-1 $332 reversed single #
plane-surface $-1 0 0 -10.332606101682675 0 0 1 1 0 0 forward_v I I I I #
coedge $-1 $337 $334 $333 $389 forward $273 $-1 #
edge $-1 $336 -21.150088652092794 $423 21.150088652092794 $333 $424 forward 7 unknown #
straight-curve $-1 0 -21.150088652092794 -10.332606101682675 -1 0 0 I I #
point $-1 -50.389721366008487 -21.150088652092794 -10.332606101682675 #
edge $-1 $423 -50.389721366008487 $338 50.389721366008487 $348 $425 forward 7 unknown #
point $-1 50.389721366008487 21.150088652092794 -10.332606101682675 #
coedge $-1 $349 $348 $341 $395 reversed $350 $-1 #
edge $-1 $396 -10.332606101682675 $423 10.332606101682675 $394 $426 forward 7 unknown #
vertex $-1 $352 $427 #
straight-curve $-1 -50.389721366008487 0 10.332606101682675 0 -1 0 I I #
plane-surface $-1 0 21.150088652092794 0 0 -1 0 0 0 -1 forward_v I I I I #
straight-curve $-1 0 21.150088652092794 10.332606101682675 -1 0 0 I I #
coedge $-1 $354 $408 $355 $403 forward $297 $-1 #
edge $-1 $365 2.184992270059908 $405 5.184992270059908 $363 $428 forward 7 unknown #
coedge $-1 $356 $355 $413 $429 reversed $243 $-1 #
edge $-1 $430 -50.389721366008487 $405 50.389721366008487 $400 $431 forward 7 unknown #
edge $-1 $383 -50.389721366008487 $432 50.389721366008487 $381 $433 forward 7 unknown #
vertex $-1 $357 $434 #
straight-curve $-1 50.389721366008487 -8.5991900135557522 -8.8699845401198161 0 -1 0 I I #
straight-curve $-1 0 -21.150088652092794 -5.8699845401198161 1 0 0 I I #
coedge $-1 $400 $361 $374 $418 reversed $297 $-1 #
vertex $-1 $375 $435 #
straight-curve $-1 0 -13.246671402130216 -5.8699845401198161 -1 0 0 I I #
point $-1 50.389721366008487 -21.150088652092791 -5.8699845401198161 #
point $-1 50.389721366008487 -13.246671402130216 -5.8699845401198161 #
coedge $-1 $374 $371 $402 $429 forward $98 $-1 #
coedge $-1 $382 $381 $371 $415 forward $331 $-1 #
edge $-1 $432 8.8699845401198161 $416 10.332606101682675 $371 $377 forward 7 unknown #
vertex $-1 $373 $436 #
straight-curve $-1 -50.389721366008487 0 -10.332606101682675 0 1 0 I I #
edge $-1 $430 -5.184992270059908 $409 -2.184992270059908 $374 $437 forward 7 unknown #
straight-curve $-1 -50.389721366008487 -8.5991900135557522 -5.8699845401198161 0 -1 0 I I #
point $-1 -50.389721366008487 -21.150088652092791 -5.8699845401198161 #
point $-1 50.389721366008487 -21.150088652092791 -8.8699845401198161 #
straight-curve $-1 0 -21.150088652092794 -10.332606101682675 -1 0 0 I I #
vertex $-1 $392 $438 #
straight-curve $-1 -50.389721366008487 0 -10.332606101682675 0 1 0 I I #
straight-curve $-1 0 21.150088652092794 -10.332606101682675 1 0 0 I I #
straight-curve $-1 -50.389721366008487 21.150088652092794 0 0 0 -1 I I #
point $-1 -50.389721366008487 21.150088652092794 10.332606101682675 #
straight-curve $-1 50.389721366008487 -13.246671402130216 -3.684992270059908 0 0 -1 I I #
edge $-1 $432 -12.550898638537038 $430 -4.6474813885744641 $413 $439 forward 7 unknown #
vertex $-1 $429 $440 #
straight-curve $-1 0 -13.246671402130216 -8.8699845401198161 1 0 0 I I #
vertex $-1 $415 $441 #
straight-curve $-1 0 -21.150088652092794 -8.8699845401198161 -1 0 0 I I #
point $-1 50.389721366008487 -13.246671402130216 -8.8699845401198161 #
point $-1 -50.389721366008487 -13.246671402130216 -5.8699845401198161 #
point $-1 -50.389721366008487 -21.150088652092794 -10.332606101682675 #
straight-curve $-1 -50.389721366008487 -13.246671402130216 -3.684992270059908 0 0 1 I I #
point $-1 -50.389721366008487 21.150088652092794 -10.332606101682675 #
straight-curve $-1 -50.389721366008487 -8.5991900135557522 -8.8699845401198161 0 1 0 I I #
point $-1 -50.389721366008487 -13.246671402130216 -8.8699845401198161 #
point $-1 -50.389721366008487 -21.150088652092791 -8.8699845401198161 #
End-of-ACIS-data 