500 0 12 0           
7 Unknown 11 ACIS 5.0 NT 24 Fri Mar 26 01:08:08 1999 
-1 9.9999999999999995e-007 1e-010 
body $-1 $12 $-1 $13 #
body $-1 $14 $-1 $15 #
body $-1 $16 $-1 $17 #
body $-1 $18 $-1 $19 #
body $-1 $20 $-1 $21 #
body $-1 $22 $-1 $23 #
body $-1 $24 $-1 $25 #
body $-1 $26 $-1 $27 #
body $-1 $28 $-1 $29 #
body $-1 $30 $-1 $31 #
body $-1 $32 $-1 $33 #
body $-1 $34 $-1 $35 #
lump $-1 $-1 $36 $0 #
transform $-1 1 0 0 0 1 0 0 0 1 43.733024079103977 19.488002496067043 7.6262934783949854 1 rotate no_reflect no_shear #
lump $-1 $-1 $37 $1 #
transform $-1 1 0 0 0 1 0 0 0 1 43.733024079103977 19.488002496067043 7.6262934783949854 1 rotate no_reflect no_shear #
lump $-1 $-1 $38 $2 #
transform $-1 1 0 0 0 1 0 0 0 1 43.733024079103977 19.488002496067043 7.6262934783949854 1 rotate no_reflect no_shear #
lump $-1 $-1 $39 $3 #
transform $-1 1 0 0 0 1 0 0 0 1 43.733024079103977 19.488002496067043 7.6262934783949854 1 rotate no_reflect no_shear #
lump $-1 $-1 $40 $4 #
transform $-1 1 0 0 0 1 0 0 0 1 43.733024079103977 19.488002496067043 7.6262934783949854 1 rotate no_reflect no_shear #
lump $-1 $-1 $41 $5 #
transform $-1 1 0 0 0 1 0 0 0 1 43.733024079103977 19.488002496067043 7.6262934783949854 1 rotate no_reflect no_shear #
lump $-1 $-1 $42 $6 #
transform $-1 1 0 0 0 1 0 0 0 1 43.733024079103977 19.488002496067043 7.6262934783949854 1 rotate no_reflect no_shear #
lump $-1 $-1 $43 $7 #
transform $-1 1 0 0 0 1 0 0 0 1 43.733024079103977 19.488002496067043 7.6262934783949854 1 rotate no_reflect no_shear #
lump $-1 $-1 $44 $8 #
transform $-1 1 0 0 0 1 0 0 0 1 43.733024079103977 19.488002496067043 7.6262934783949854 1 rotate no_reflect no_shear #
lump $-1 $-1 $45 $9 #
transform $-1 1 0 0 0 1 0 0 0 1 43.733024079103977 19.488002496067043 7.6262934783949854 1 rotate no_reflect no_shear #
lump $-1 $-1 $46 $10 #
transform $-1 1 0 0 0 1 0 0 0 1 43.733024079103977 19.488002496067043 7.6262934783949854 1 rotate no_reflect no_shear #
lump $-1 $-1 $47 $11 #
transform $-1 1 0 0 0 1 0 0 0 1 43.733024079103977 19.488002496067043 7.6262934783949854 1 rotate no_reflect no_shear #
shell $-1 $-1 $-1 $48 $-1 $12 #
shell $-1 $-1 $-1 $49 $-1 $14 #
shell $-1 $-1 $-1 $50 $-1 $16 #
shell $-1 $-1 $-1 $51 $-1 $18 #
shell $-1 $-1 $-1 $52 $-1 $20 #
shell $-1 $-1 $-1 $53 $-1 $22 #
shell $-1 $-1 $-1 $54 $-1 $24 #
shell $-1 $-1 $-1 $55 $-1 $26 #
shell $-1 $-1 $-1 $56 $-1 $28 #
shell $-1 $-1 $-1 $57 $-1 $30 #
shell $-1 $-1 $-1 $58 $-1 $32 #
shell $-1 $-1 $-1 $59 $-1 $34 #
face $-1 $60 $61 $36 $-1 $62 forward single #
face $-1 $63 $64 $37 $-1 $65 forward single #
face $-1 $66 $67 $38 $-1 $68 reversed single #
face $-1 $69 $70 $39 $-1 $71 forward single #
face $-1 $72 $73 $40 $-1 $74 forward single #
face $-1 $75 $76 $41 $-1 $77 reversed single #
face $-1 $78 $79 $42 $-1 $80 forward single #
face $-1 $81 $82 $43 $-1 $83 forward single #
face $-1 $84 $85 $44 $-1 $86 reversed single #
face $-1 $87 $88 $45 $-1 $89 forward single #
face $-1 $90 $91 $46 $-1 $92 forward single #
face $-1 $93 $94 $47 $-1 $95 forward single #
face $-1 $96 $97 $36 $-1 $98 reversed single #
loop $-1 $-1 $99 $48 #
plane-surface $-1 0 0 7.6262934783949854 0 0 1 1 0 0 forward_v I I I I #
face $-1 $100 $101 $37 $-1 $102 forward single #
loop $-1 $-1 $103 $49 #
plane-surface $-1 0 -19.488002496067043 0 0 1 0 0 0 1 forward_v I I I I #
face $-1 $104 $105 $38 $-1 $106 reversed single #
loop $-1 $-1 $107 $50 #
plane-surface $-1 -115.38101694521322 -4.2246150721367588 51.615494709610971 0 1 0 -0.81915205242281985 0 0.57357642473473569 forward_v I I I I #
face $-1 $108 $109 $39 $-1 $110 forward single #
loop $-1 $111 $112 $51 #
cone-surface $-1 -40.993369886512802 -1.9829719083679116 4.1331529642184712 0.81915205242281985 0 -0.57357642473473569 0.28678821236736785 0 0.40957602621140993 1 I I 0 1 0.5 forward I I I I #
face $-1 $113 $114 $40 $-1 $115 forward single #
loop $-1 $116 $117 $52 #
cone-surface $-1 -40.993369886512802 1.3794928372853583 4.1331529642184712 0.81915205242281985 0 -0.57357642473473569 0.28678821236736785 0 0.40957602621140993 1 I I 0 1 0.5 forward I I I I #
face $-1 $118 $119 $41 $-1 $120 reversed single #
loop $-1 $-1 $121 $53 #
plane-surface $-1 -43.733024079103984 -0.30173953554127664 1.4470315213498495 -0.81915205242281985 0 0.57357642473473569 0.57357642473473569 0 0.81915205242281985 forward_v I I I I #
face $-1 $122 $123 $42 $-1 $124 forward single #
loop $-1 $125 $126 $54 #
cone-surface $-1 -40.993369886512802 5.8627791648230527 4.1331529642184712 0.81915205242281985 0 -0.57357642473473569 0.28678821236736785 0 0.40957602621140993 1 I I 0 1 0.5 forward I I I I #
face $-1 $127 $128 $43 $-1 $129 forward single #
loop $-1 $130 $131 $55 #
cone-surface $-1 -40.993369886512802 9.2252439104763226 4.1331529642184712 0.81915205242281985 0 -0.57357642473473569 0.28678821236736785 0 0.40957602621140993 1 I I 0 1 0.5 forward I I I I #
face $-1 $132 $133 $44 $-1 $134 reversed single #
loop $-1 $-1 $135 $56 #
plane-surface $-1 50.206756861684461 10.141272702326972 125.75154951090713 0 1 0 0.74314483375859142 0 0.66913059716165679 forward_v I I I I #
face $-1 $136 $137 $45 $-1 $138 forward single #
loop $-1 $139 $140 $57 #
cone-surface $-1 40.624604510251231 12.010618661074982 4.3163393014429765 -0.74314483375859142 0 -0.66913059716165679 0.3345652985808284 0 -0.37157241687929571 1 I I 0 1 0.5 forward I I I I #
face $-1 $141 $142 $46 $-1 $143 forward single #
loop $-1 $144 $145 $58 #
cone-surface $-1 40.624604510251231 14.814637599197003 4.3163393014429765 -0.74314483375859142 0 -0.66913059716165679 0.3345652985808284 0 -0.37157241687929571 1 I I 0 1 0.5 forward I I I I #
face $-1 $146 $147 $47 $-1 $148 forward single #
loop $-1 $149 $150 $59 #
cone-surface $-1 40.624604510251231 17.618656537319023 4.3163393014429765 -0.74314483375859142 0 -0.66913059716165679 0.3345652985808284 0 -0.37157241687929571 1 I I 0 1 0.5 forward I I I I #
face $-1 $151 $152 $36 $-1 $153 reversed single #
loop $-1 $-1 $154 $60 #
plane-surface $-1 0 0 -7.6262934783949854 0 0 1 1 0 0 forward_v I I I I #
coedge $-1 $155 $156 $157 $158 forward $61 $-1 #
face $-1 $159 $160 $37 $-1 $161 reversed single #
loop $-1 $-1 $162 $63 #
plane-surface $-1 0 0 7.6262934783949854 0 0 1 1 0 0 forward_v I I I I #
coedge $-1 $163 $164 $165 $166 forward $64 $-1 #
face $-1 $167 $168 $38 $-1 $169 reversed single #
loop $-1 $-1 $170 $66 #
plane-surface $-1 -43.733024079103984 -0.30173953554127664 1.4470315213498495 -0.81915205242281985 0 0.57357642473473569 0.57357642473473569 0 0.81915205242281985 forward_v I I I I #
coedge $-1 $171 $172 $173 $174 reversed $67 $-1 #
face $-1 $-1 $175 $39 $-1 $176 forward single #
loop $-1 $177 $178 $69 #
cone-surface $-1 -40.212310516968465 -1.9829719083679116 3.5862493223808434 0.81915205242281985 0 -0.57357642473473569 0.14339410618368392 0 0.20478801310570496 1 I I -0.70710678118654746 0.70710678118654746 0.25 forward I I I I #
loop $-1 $-1 $179 $51 #
coedge $-1 $112 $112 $180 $181 reversed $70 $-1 #
face $-1 $-1 $182 $40 $-1 $183 forward single #
loop $-1 $184 $185 $72 #
cone-surface $-1 -40.212310516968465 1.3794928372853583 3.5862493223808434 0.81915205242281985 0 -0.57357642473473569 0.14339410618368392 0 0.20478801310570496 1 I I -0.70710678118654746 0.70710678118654746 0.25 forward I I I I #
loop $-1 $-1 $186 $52 #
coedge $-1 $117 $117 $187 $188 reversed $73 $-1 #
face $-1 $189 $190 $41 $-1 $191 forward single #
loop $-1 $-1 $192 $75 #
plane-surface $-1 -115.38101694521322 11.46688707424517 51.615494709610971 0 -1 0 0.81915205242281985 0 -0.57357642473473569 forward_v I I I I #
coedge $-1 $193 $194 $195 $196 reversed $76 $-1 #
face $-1 $-1 $197 $42 $-1 $198 forward single #
loop $-1 $199 $200 $78 #
cone-surface $-1 -40.212310516968465 5.8627791648230527 3.5862493223808434 0.81915205242281985 0 -0.57357642473473569 0.14339410618368392 0 0.20478801310570496 1 I I -0.70710678118654746 0.70710678118654746 0.25 forward I I I I #
loop $-1 $-1 $201 $54 #
coedge $-1 $126 $126 $202 $203 reversed $79 $-1 #
face $-1 $-1 $204 $43 $-1 $205 forward single #
loop $-1 $206 $207 $81 #
cone-surface $-1 -40.212310516968465 9.2252439104763226 3.5862493223808434 0.81915205242281985 0 -0.57357642473473569 0.14339410618368392 0 0.20478801310570496 1 I I -0.70710678118654746 0.70710678118654746 0.25 forward I I I I #
loop $-1 $-1 $208 $55 #
coedge $-1 $131 $131 $209 $210 reversed $82 $-1 #
face $-1 $211 $212 $44 $-1 $213 reversed single #
loop $-1 $-1 $214 $84 #
plane-surface $-1 -14.793184956367945 14.81463759919701 67.225340475435203 0.74314483375859142 0 0.66913059716165679 0.66913059716165679 0 -0.74314483375859142 forward_v I I I I #
coedge $-1 $215 $216 $217 $218 reversed $85 $-1 #
face $-1 $-1 $219 $45 $-1 $220 forward single #
loop $-1 $221 $222 $87 #
cone-surface $-1 39.761892442276043 12.010618661074982 3.5395498857066476 -0.74314483375859142 0 -0.66913059716165679 0.1672826492904142 0 -0.18578620843964785 1 I I -0.70710678118654746 0.70710678118654746 0.25 forward I I I I #
loop $-1 $-1 $223 $57 #
coedge $-1 $140 $140 $224 $225 reversed $88 $-1 #
face $-1 $-1 $226 $46 $-1 $227 forward single #
loop $-1 $228 $229 $90 #
cone-surface $-1 39.761892442276043 14.814637599197003 3.5395498857066476 -0.74314483375859142 0 -0.66913059716165679 0.1672826492904142 0 -0.18578620843964785 1 I I -0.70710678118654746 0.70710678118654746 0.25 forward I I I I #
loop $-1 $-1 $230 $58 #
coedge $-1 $145 $145 $231 $232 reversed $91 $-1 #
face $-1 $-1 $233 $47 $-1 $234 forward single #
loop $-1 $235 $236 $93 #
cone-surface $-1 39.761892442276043 17.618656537319023 3.5395498857066476 -0.74314483375859142 0 -0.66913059716165679 0.1672826492904142 0 -0.18578620843964785 1 I I -0.70710678118654746 0.70710678118654746 0.25 forward I I I I #
loop $-1 $-1 $237 $59 #
coedge $-1 $150 $150 $238 $239 reversed $94 $-1 #
face $-1 $240 $241 $36 $-1 $242 reversed single #
loop $-1 $-1 $243 $96 #
plane-surface $-1 0 -19.488002496067043 0 0 1 0 0 0 1 forward_v I I I I #
coedge $-1 $244 $245 $246 $247 forward $97 $-1 #
coedge $-1 $248 $99 $249 $250 forward $61 $-1 #
coedge $-1 $99 $248 $251 $252 forward $61 $-1 #
coedge $-1 $253 $254 $99 $158 reversed $255 $-1 #
edge $-1 $256 -19.488002496067043 $257 19.488002496067043 $157 $258 forward 7 unknown #
face $-1 $259 $260 $37 $-1 $261 reversed single #
loop $-1 $-1 $262 $100 #
plane-surface $-1 -43.733024079103977 0 0 1 0 0 0 0 -1 forward_v I I I I #
coedge $-1 $263 $264 $265 $266 forward $101 $-1 #
coedge $-1 $265 $103 $262 $267 reversed $64 $-1 #
coedge $-1 $103 $265 $268 $269 reversed $64 $-1 #
coedge $-1 $270 $271 $103 $166 reversed $260 $-1 #
edge $-1 $272 -43.733024079103977 $273 43.733024079103977 $165 $274 forward 7 unknown #
face $-1 $275 $276 $38 $-1 $277 forward single #
loop $-1 $-1 $278 $104 #
plane-surface $-1 -115.38101694521322 3.6211360010542055 51.615494709610971 0 -1 0 0.81915205242281985 0 -0.57357642473473569 forward_v I I I I #
coedge $-1 $279 $280 $281 $282 reversed $105 $-1 #
coedge $-1 $172 $107 $283 $284 reversed $67 $-1 #
coedge $-1 $107 $171 $279 $285 reversed $67 $-1 #
coedge $-1 $281 $286 $107 $174 forward $276 $-1 #
edge $-1 $287 13.957484393502632 $288 18.284250065807711 $173 $289 forward 7 unknown #
loop $-1 $-1 $180 $108 #
plane-surface $-1 -43.733024079103984 -0.30173953554127664 1.4470315213498495 -0.81915205242281985 0 0.57357642473473569 0.57357642473473569 0 0.81915205242281985 forward_v I I I I #
loop $-1 $-1 $290 $69 #
coedge $-1 $178 $178 $179 $291 reversed $109 $-1 #
coedge $-1 $179 $179 $178 $291 forward $111 $-1 #
coedge $-1 $180 $180 $112 $181 forward $175 $-1 #
edge $-1 $292 0 $292 6.2831853071796004 $180 $293 forward 7 unknown #
loop $-1 $-1 $187 $113 #
plane-surface $-1 -43.733024079103984 -0.30173953554127664 1.4470315213498495 -0.81915205242281985 0 0.57357642473473569 0.57357642473473569 0 0.81915205242281985 forward_v I I I I #
loop $-1 $-1 $294 $72 #
coedge $-1 $185 $185 $186 $295 reversed $114 $-1 #
coedge $-1 $186 $186 $185 $295 forward $116 $-1 #
coedge $-1 $187 $187 $117 $188 forward $182 $-1 #
edge $-1 $296 0 $296 6.2831853071796004 $187 $297 forward 7 unknown #
face $-1 $298 $299 $41 $-1 $300 forward single #
loop $-1 $-1 $301 $118 #
plane-surface $-1 0 0 7.6262934783949854 0 0 1 1 0 0 forward_v I I I I #
coedge $-1 $302 $303 $304 $305 reversed $119 $-1 #
coedge $-1 $306 $121 $307 $308 reversed $76 $-1 #
coedge $-1 $121 $306 $301 $309 reversed $76 $-1 #
coedge $-1 $310 $311 $121 $196 forward $299 $-1 #
edge $-1 $312 1.2442367137257826e-014 $313 7.5434858995575098 $195 $314 forward 7 unknown #
loop $-1 $-1 $202 $122 #
plane-surface $-1 -43.733024079103984 -0.30173953554127664 1.4470315213498495 -0.81915205242281985 0 0.57357642473473569 0.57357642473473569 0 0.81915205242281985 forward_v I I I I #
loop $-1 $-1 $315 $78 #
coedge $-1 $200 $200 $201 $316 reversed $123 $-1 #
coedge $-1 $201 $201 $200 $316 forward $125 $-1 #
coedge $-1 $202 $202 $126 $203 forward $197 $-1 #
edge $-1 $317 0 $317 6.2831853071796004 $202 $318 forward 7 unknown #
loop $-1 $-1 $209 $127 #
plane-surface $-1 -43.733024079103984 -0.30173953554127664 1.4470315213498495 -0.81915205242281985 0 0.57357642473473569 0.57357642473473569 0 0.81915205242281985 forward_v I I I I #
loop $-1 $-1 $319 $81 #
coedge $-1 $207 $207 $208 $320 reversed $128 $-1 #
coedge $-1 $208 $208 $207 $320 forward $130 $-1 #
coedge $-1 $209 $209 $131 $210 forward $204 $-1 #
edge $-1 $321 0 $321 6.2831853071796004 $209 $322 forward 7 unknown #
face $-1 $323 $324 $44 $-1 $325 forward single #
loop $-1 $-1 $326 $132 #
plane-surface $-1 0 19.488002496067043 0 0 -1 0 0 0 -1 forward_v I I I I #
coedge $-1 $327 $328 $329 $330 reversed $133 $-1 #
coedge $-1 $216 $135 $331 $332 reversed $85 $-1 #
coedge $-1 $135 $215 $327 $333 reversed $85 $-1 #
coedge $-1 $329 $334 $135 $218 forward $335 $-1 #
edge $-1 $336 55.249481277058578 $337 60.650376098070765 $217 $338 forward 7 unknown #
loop $-1 $-1 $224 $136 #
plane-surface $-1 -14.793184956367945 14.81463759919701 67.225340475435203 0.74314483375859142 0 0.66913059716165679 0.66913059716165679 0 -0.74314483375859142 forward_v I I I I #
loop $-1 $-1 $339 $87 #
coedge $-1 $222 $222 $223 $340 reversed $137 $-1 #
coedge $-1 $223 $223 $222 $340 forward $139 $-1 #
coedge $-1 $224 $224 $140 $225 forward $219 $-1 #
edge $-1 $341 0 $341 6.2831853071796004 $224 $342 forward 7 unknown #
loop $-1 $-1 $231 $141 #
plane-surface $-1 -14.793184956367945 14.81463759919701 67.225340475435203 0.74314483375859142 0 0.66913059716165679 0.66913059716165679 0 -0.74314483375859142 forward_v I I I I #
loop $-1 $-1 $343 $90 #
coedge $-1 $229 $229 $230 $344 reversed $142 $-1 #
coedge $-1 $230 $230 $229 $344 forward $144 $-1 #
coedge $-1 $231 $231 $145 $232 forward $226 $-1 #
edge $-1 $345 0 $345 6.2831853071796004 $231 $346 forward 7 unknown #
loop $-1 $-1 $238 $146 #
plane-surface $-1 -14.793184956367945 14.81463759919701 67.225340475435203 0.74314483375859142 0 0.66913059716165679 0.66913059716165679 0 -0.74314483375859142 forward_v I I I I #
loop $-1 $-1 $347 $93 #
coedge $-1 $236 $236 $237 $348 reversed $147 $-1 #
coedge $-1 $237 $237 $236 $348 forward $149 $-1 #
coedge $-1 $238 $238 $150 $239 forward $233 $-1 #
edge $-1 $349 0 $349 6.2831853071796004 $238 $350 forward 7 unknown #
face $-1 $351 $352 $36 $-1 $353 reversed single #
loop $-1 $-1 $354 $151 #
plane-surface $-1 -43.733024079103977 0 0 1 0 0 0 0 -1 forward_v I I I I #
coedge $-1 $355 $251 $356 $357 forward $152 $-1 #
coedge $-1 $358 $154 $355 $359 forward $97 $-1 #
coedge $-1 $154 $358 $360 $361 forward $97 $-1 #
coedge $-1 $254 $253 $154 $247 reversed $255 $-1 #
edge $-1 $362 -19.488002496067043 $363 19.488002496067043 $246 $364 forward 7 unknown #
coedge $-1 $156 $155 $365 $366 forward $61 $-1 #
coedge $-1 $367 $368 $155 $250 reversed $352 $-1 #
edge $-1 $257 -43.733024079103977 $369 43.733024079103977 $249 $370 forward 7 unknown #
coedge $-1 $243 $371 $156 $252 reversed $152 $-1 #
edge $-1 $372 -43.733024079103977 $256 43.733024079103977 $251 $373 forward 7 unknown #
coedge $-1 $246 $157 $371 $374 forward $255 $-1 #
coedge $-1 $157 $246 $367 $375 reversed $255 $-1 #
loop $-1 $-1 $253 $351 #
vertex $-1 $158 $376 #
vertex $-1 $158 $377 #
straight-curve $-1 43.733024079103977 0 7.6262934783949854 0 1 0 I I #
face $-1 $378 $379 $37 $-1 $380 reversed single #
loop $-1 $-1 $270 $159 #
plane-surface $-1 0 -23.109138497121251 4.3205499928444224 0 0 1 1 0 0 forward_v I I I I #
coedge $-1 $381 $382 $163 $267 forward $160 $-1 #
coedge $-1 $383 $162 $382 $384 forward $101 $-1 #
coedge $-1 $162 $383 $385 $386 forward $101 $-1 #
coedge $-1 $164 $163 $162 $266 reversed $64 $-1 #
edge $-1 $387 -43.733024079103977 $388 43.733024079103977 $162 $389 forward 7 unknown #
edge $-1 $388 -7.6262934783949854 $273 -4.3205499928444224 $262 $390 forward 7 unknown #
coedge $-1 $385 $391 $164 $269 forward $392 $-1 #
edge $-1 $272 4.3205499928444224 $387 7.6262934783949854 $268 $393 forward 7 unknown #
coedge $-1 $394 $165 $391 $395 forward $260 $-1 #
coedge $-1 $165 $394 $381 $396 forward $260 $-1 #
vertex $-1 $269 $397 #
vertex $-1 $267 $398 #
straight-curve $-1 0 -19.488002496067043 4.3205499928444224 -1 0 0 I I #
face $-1 $-1 $399 $38 $-1 $400 reversed single #
loop $-1 $-1 $173 $167 #
plane-surface $-1 0 0 7.6262934783949854 0 0 1 1 0 0 forward_v I I I I #
coedge $-1 $401 $402 $403 $404 reversed $168 $-1 #
coedge $-1 $405 $170 $172 $285 forward $105 $-1 #
coedge $-1 $170 $405 $401 $406 forward $105 $-1 #
coedge $-1 $403 $173 $170 $282 forward $276 $-1 #
edge $-1 $288 -4.0737453043661205 $407 3.7720057688248438 $281 $408 forward 7 unknown #
coedge $-1 $409 $410 $171 $284 forward $399 $-1 #
edge $-1 $411 -24.360715833455625 $287 -18.181453876410501 $283 $412 forward 7 unknown #
edge $-1 $288 -7.5434858995575098 $411 -1.2442367137257826e-014 $172 $413 forward 7 unknown #
coedge $-1 $173 $403 $409 $414 forward $276 $-1 #
vertex $-1 $284 $415 #
vertex $-1 $174 $416 #
straight-curve $-1 -57.690508472606609 -4.2246150721367588 7.6262934783949845 1 0 0 I I #
coedge $-1 $290 $290 $-1 $417 reversed $177 $-1 #
edge $-1 $418 0 $418 6.2831853071796004 $178 $419 forward 7 unknown #
vertex $-1 $181 $420 #
ellipse-curve $-1 -41.569641242951441 -1.9829719083679116 4.5366624998724188 -0.81915205242281985 0 0.57357642473473569 0.28678821236736785 0 0.40957602621140993 1 I I #
coedge $-1 $294 $294 $-1 $421 reversed $184 $-1 #
edge $-1 $422 0 $422 6.2831853071796004 $185 $423 forward 7 unknown #
vertex $-1 $188 $424 #
ellipse-curve $-1 -41.569641242951441 1.3794928372853583 4.5366624998724188 -0.81915205242281985 0 0.57357642473473569 0.28678821236736785 0 0.40957602621140993 1 I I #
face $-1 $-1 $425 $41 $-1 $426 reversed single #
loop $-1 $-1 $310 $189 #
plane-surface $-1 -115.38101694521322 3.6211360010542055 51.615494709610971 0 -1 0 0.81915205242281985 0 -0.57357642473473569 forward_v I I I I #
coedge $-1 $304 $427 $194 $309 forward $190 $-1 #
coedge $-1 $303 $192 $306 $428 reversed $119 $-1 #
coedge $-1 $192 $302 $429 $430 reversed $119 $-1 #
coedge $-1 $431 $301 $192 $305 forward $190 $-1 #
edge $-1 $432 -18.284250065807711 $433 -13.957484393502632 $304 $434 forward 7 unknown #
coedge $-1 $194 $193 $302 $428 forward $76 $-1 #
coedge $-1 $435 $429 $193 $308 forward $425 $-1 #
edge $-1 $436 -11.617756842015808 $312 -3.7720057688248438 $307 $437 forward 7 unknown #
edge $-1 $313 3.7720057688248438 $432 11.617756842015808 $301 $438 forward 7 unknown #
coedge $-1 $311 $195 $427 $439 reversed $299 $-1 #
coedge $-1 $195 $310 $435 $440 reversed $299 $-1 #
vertex $-1 $308 $441 #
vertex $-1 $309 $442 #
straight-curve $-1 -43.733024079103984 3.6211360010542055 1.4470315213498495 0.57357642473473569 0 0.81915205242281985 I I #
coedge $-1 $315 $315 $-1 $443 reversed $199 $-1 #
edge $-1 $444 0 $444 6.2831853071796004 $200 $445 forward 7 unknown #
vertex $-1 $203 $446 #
ellipse-curve $-1 -41.569641242951441 5.8627791648230527 4.5366624998724188 -0.81915205242281985 0 0.57357642473473569 0.28678821236736785 0 0.40957602621140993 1 I I #
coedge $-1 $319 $319 $-1 $447 reversed $206 $-1 #
edge $-1 $448 0 $448 6.2831853071796004 $207 $449 forward 7 unknown #
vertex $-1 $210 $450 #
ellipse-curve $-1 -41.569641242951441 9.2252439104763226 4.5366624998724188 -0.81915205242281985 0 0.57357642473473569 0.28678821236736785 0 0.40957602621140993 1 I I #
face $-1 $-1 $335 $44 $-1 $451 reversed single #
loop $-1 $-1 $452 $211 #
plane-surface $-1 0 0 7.6262934783949854 0 0 1 1 0 0 forward_v I I I I #
coedge $-1 $453 $454 $328 $455 forward $212 $-1 #
coedge $-1 $456 $214 $216 $333 forward $133 $-1 #
coedge $-1 $214 $456 $326 $455 reversed $133 $-1 #
coedge $-1 $457 $217 $214 $330 forward $335 $-1 #
edge $-1 $337 2.7339539027284676 $458 12.080683696468538 $329 $459 forward 7 unknown #
coedge $-1 $460 $452 $215 $332 forward $324 $-1 #
edge $-1 $461 13.76665822962735 $336 18.629645648261747 $331 $462 forward 7 unknown #
edge $-1 $337 -87.46604815820794 $461 -80.198427398878749 $216 $463 forward 7 unknown #
coedge $-1 $217 $457 $460 $464 reversed $335 $-1 #
loop $-1 $-1 $329 $323 #
vertex $-1 $464 $465 #
vertex $-1 $218 $466 #
straight-curve $-1 43.733024079103977 10.141272702326972 62.875774755453563 0 0 -1 I I #
coedge $-1 $339 $339 $-1 $467 reversed $221 $-1 #
edge $-1 $468 0 $468 6.2831853071796004 $222 $469 forward 7 unknown #
vertex $-1 $225 $470 #
ellipse-curve $-1 41.301530369786775 12.010618661074982 4.9258460678888918 0.74314483375859142 0 0.66913059716165679 0.3345652985808284 0 -0.37157241687929571 1 I I #
coedge $-1 $343 $343 $-1 $471 reversed $228 $-1 #
edge $-1 $472 0 $472 6.2831853071796004 $229 $473 forward 7 unknown #
vertex $-1 $232 $474 #
ellipse-curve $-1 41.301530369786775 14.814637599197003 4.9258460678888918 0.74314483375859142 0 0.66913059716165679 0.3345652985808284 0 -0.37157241687929571 1 I I #
coedge $-1 $347 $347 $-1 $475 reversed $235 $-1 #
edge $-1 $476 0 $476 6.2831853071796004 $236 $477 forward 7 unknown #
vertex $-1 $239 $478 #
ellipse-curve $-1 41.301530369786775 17.618656537319023 4.9258460678888918 0.74314483375859142 0 0.66913059716165679 0.3345652985808284 0 -0.37157241687929571 1 I I #
face $-1 $-1 $255 $36 $-1 $479 reversed single #
loop $-1 $-1 $367 $240 #
plane-surface $-1 0 19.488002496067043 0 0 -1 0 0 0 -1 forward_v I I I I #
coedge $-1 $480 $365 $368 $481 forward $241 $-1 #
coedge $-1 $371 $243 $244 $359 reversed $152 $-1 #
coedge $-1 $365 $480 $243 $357 reversed $241 $-1 #
edge $-1 $372 -7.6262934783949854 $482 7.6262934783949854 $356 $483 forward 7 unknown #
coedge $-1 $245 $244 $480 $484 forward $97 $-1 #
edge $-1 $363 -43.733024079103977 $482 43.733024079103977 $355 $485 forward 7 unknown #
coedge $-1 $368 $367 $245 $361 reversed $352 $-1 #
edge $-1 $486 -43.733024079103977 $362 43.733024079103977 $360 $487 forward 7 unknown #
vertex $-1 $247 $488 #
vertex $-1 $374 $489 #
straight-curve $-1 43.733024079103977 0 -7.6262934783949854 0 -1 0 I I #
coedge $-1 $354 $356 $248 $366 reversed $241 $-1 #
edge $-1 $369 -19.488002496067043 $372 19.488002496067043 $365 $490 forward 7 unknown #
coedge $-1 $360 $249 $254 $375 forward $352 $-1 #
coedge $-1 $249 $360 $354 $481 reversed $352 $-1 #
vertex $-1 $250 $491 #
straight-curve $-1 0 19.488002496067043 7.6262934783949854 -1 0 0 I I #
coedge $-1 $251 $355 $253 $374 reversed $152 $-1 #
vertex $-1 $366 $492 #
straight-curve $-1 0 -19.488002496067043 7.6262934783949854 1 0 0 I I #
edge $-1 $256 -7.6262934783949854 $363 7.6262934783949854 $253 $493 forward 7 unknown #
edge $-1 $257 -7.6262934783949854 $362 7.6262934783949854 $254 $494 forward 7 unknown #
point $-1 43.733024079103977 -19.488002496067043 7.6262934783949854 #
point $-1 43.733024079103977 19.488002496067043 7.6262934783949854 #
face $-1 $-1 $392 $37 $-1 $495 reversed single #
loop $-1 $-1 $496 $259 #
plane-surface $-1 0 -26.730274498175458 5.9734217356197048 0 1 0 0 0 1 forward_v I I I I #
coedge $-1 $497 $262 $271 $396 reversed $160 $-1 #
coedge $-1 $262 $497 $263 $384 reversed $160 $-1 #
coedge $-1 $264 $263 $498 $499 forward $101 $-1 #
edge $-1 $388 19.488002496067043 $500 26.730274498175458 $382 $501 forward 7 unknown #
coedge $-1 $502 $268 $264 $386 reversed $392 $-1 #
edge $-1 $503 -26.730274498175458 $387 -19.488002496067043 $385 $504 forward 7 unknown #
vertex $-1 $269 $505 #
vertex $-1 $384 $506 #
straight-curve $-1 0 -19.488002496067043 7.6262934783949854 -1 0 0 I I #
straight-curve $-1 -43.733024079103977 -19.488002496067043 0 0 0 -1 I I #
coedge $-1 $268 $502 $270 $395 reversed $392 $-1 #
loop $-1 $-1 $268 $378 #
straight-curve $-1 43.733024079103977 -19.488002496067043 0 0 0 1 I I #
coedge $-1 $271 $270 $507 $508 forward $260 $-1 #
edge $-1 $272 -3.6211360010542073 $509 3.6211360010542073 $391 $510 forward 7 unknown #
edge $-1 $511 -3.6211360010542073 $273 3.6211360010542073 $381 $512 forward 7 unknown #
point $-1 43.733024079103977 -19.488002496067043 4.3205499928444224 #
point $-1 -43.733024079103977 -19.488002496067043 4.3205499928444224 #
loop $-1 $-1 $283 $275 #
plane-surface $-1 -43.733024079103977 0 0 1 0 0 0 0 -1 forward_v I I I I #
coedge $-1 $402 $278 $280 $406 reversed $168 $-1 #
coedge $-1 $278 $401 $513 $514 reversed $168 $-1 #
coedge $-1 $286 $281 $278 $404 forward $276 $-1 #
edge $-1 $407 -18.284250065807711 $515 -13.957484393502632 $403 $516 forward 7 unknown #
coedge $-1 $280 $279 $410 $517 reversed $105 $-1 #
edge $-1 $518 1.2442367137257826e-014 $407 7.5434858995575098 $401 $519 forward 7 unknown #
vertex $-1 $282 $520 #
straight-curve $-1 -39.406258406798898 -0.15086976777063832 7.6262934783949854 0 1 0 I I #
coedge $-1 $513 $283 $286 $414 reversed $399 $-1 #
coedge $-1 $283 $513 $405 $517 forward $399 $-1 #
vertex $-1 $284 $521 #
straight-curve $-1 -43.733024079103977 -4.2246150721367588 25.807747354805485 0 0 1 I I #
straight-curve $-1 -43.733024079103984 -4.2246150721367588 1.4470315213498495 -0.57357642473473569 0 -0.81915205242281985 I I #
edge $-1 $515 -3.6211360010542055 $287 4.2246150721367588 $409 $522 forward 7 unknown #
point $-1 -43.733024079103977 -4.2246150721367588 7.6262934783949854 #
point $-1 -39.406258406798898 -4.2246150721367588 7.6262934783949854 #
edge $-1 $523 1 $523 0 $290 $-1 forward 7 unknown #
vertex $-1 $291 $524 #
ellipse-curve $-1 -40.417098530074171 -1.9829719083679116 3.7296434285645272 -0.81915205242281985 0 0.57357642473473569 0.28678821236736785 0 0.40957602621140993 1 I I #
point $-1 -41.282853030584064 -1.9829719083679116 4.9462385260838237 #
edge $-1 $525 1 $525 0 $294 $-1 forward 7 unknown #
vertex $-1 $295 $526 #
ellipse-curve $-1 -40.417098530074171 1.3794928372853583 3.7296434285645272 -0.81915205242281985 0 0.57357642473473569 0.28678821236736785 0 0.40957602621140993 1 I I #
point $-1 -41.282853030584064 1.3794928372853583 4.9462385260838237 #
loop $-1 $-1 $307 $298 #
plane-surface $-1 -43.733024079103977 0 0 1 0 0 0 0 -1 forward_v I I I I #
coedge $-1 $301 $431 $310 $439 forward $190 $-1 #
edge $-1 $436 1.2442367137257826e-014 $432 7.5434858995575098 $302 $527 forward 7 unknown #
coedge $-1 $307 $528 $303 $430 forward $425 $-1 #
edge $-1 $433 18.181453876410501 $436 24.360715833455625 $429 $529 forward 7 unknown #
coedge $-1 $427 $304 $528 $530 forward $190 $-1 #
vertex $-1 $305 $531 #
vertex $-1 $530 $532 #
straight-curve $-1 -57.690508472606609 11.46688707424517 7.6262934783949845 -1 0 0 I I #
coedge $-1 $528 $307 $311 $440 forward $425 $-1 #
vertex $-1 $430 $533 #
straight-curve $-1 -43.733024079103977 -0.15086976777063832 1.4470315213498666 0 -1 0 I I #
straight-curve $-1 -39.406258406798898 -0.15086976777063832 7.6262934783949854 0 1 0 I I #
edge $-1 $534 13.957484393502632 $313 18.284250065807711 $427 $535 forward 7 unknown #
edge $-1 $312 -24.360715833455625 $534 -18.181453876410501 $435 $536 forward 7 unknown #
point $-1 -43.733024079103977 3.6211360010542055 1.4470315213498597 #
point $-1 -39.406258406798898 3.6211360010542055 7.6262934783949854 #
edge $-1 $537 1 $537 0 $315 $-1 forward 7 unknown #
vertex $-1 $316 $538 #
ellipse-curve $-1 -40.417098530074171 5.8627791648230527 3.7296434285645272 -0.81915205242281985 0 0.57357642473473569 0.28678821236736785 0 0.40957602621140993 1 I I #
point $-1 -41.282853030584064 5.8627791648230527 4.9462385260838237 #
edge $-1 $539 1 $539 0 $319 $-1 forward 7 unknown #
vertex $-1 $320 $540 #
ellipse-curve $-1 -40.417098530074171 9.2252439104763226 3.7296434285645272 -0.81915205242281985 0 0.57357642473473569 0.28678821236736785 0 0.40957602621140993 1 I I #
point $-1 -41.282853030584064 9.2252439104763226 4.9462385260838237 #
plane-surface $-1 43.733024079103977 0 0 -1 0 0 0 0 1 forward_v I I I I #
coedge $-1 $331 $541 $456 $542 forward $324 $-1 #
coedge $-1 $454 $326 $541 $543 reversed $212 $-1 #
coedge $-1 $326 $453 $457 $544 forward $212 $-1 #
edge $-1 $458 -57.537679580328287 $545 -50.270058820999097 $326 $546 forward 7 unknown #
coedge $-1 $328 $327 $452 $542 reversed $133 $-1 #
coedge $-1 $334 $329 $454 $544 reversed $335 $-1 #
vertex $-1 $455 $547 #
straight-curve $-1 43.733024079103977 7.4073187995985048 2.2253986573827937 0 1 0 I I #
coedge $-1 $541 $331 $334 $464 forward $324 $-1 #
vertex $-1 $332 $548 #
straight-curve $-1 25.103378430842231 10.141272702326972 7.6262934783949845 1 0 0 I I #
straight-curve $-1 -14.793184956367945 10.141272702326972 67.225340475435203 -0.66913059716165679 0 0.74314483375859142 I I #
edge $-1 $336 10.141272702326972 $549 19.488002496067043 $334 $550 forward 7 unknown #
point $-1 43.733024079103977 10.141272702326972 7.6262934783949854 #
point $-1 43.733024079103977 10.141272702326972 2.2253986573827973 #
edge $-1 $551 1 $551 0 $339 $-1 forward 7 unknown #
vertex $-1 $340 $552 #
ellipse-curve $-1 39.947678650715687 12.010618661074982 3.7068325349970617 0.74314483375859142 0 0.66913059716165679 0.3345652985808284 0 -0.37157241687929571 1 I I #
point $-1 41.636095668367602 12.010618661074982 4.554273651009594 #
edge $-1 $553 1 $553 0 $343 $-1 forward 7 unknown #
vertex $-1 $344 $554 #
ellipse-curve $-1 39.947678650715687 14.814637599197003 3.7068325349970617 0.74314483375859142 0 0.66913059716165679 0.3345652985808284 0 -0.37157241687929571 1 I I #
point $-1 41.636095668367602 14.814637599197003 4.554273651009594 #
edge $-1 $555 1 $555 0 $347 $-1 forward 7 unknown #
vertex $-1 $348 $556 #
ellipse-curve $-1 39.947678650715687 17.618656537319023 3.7068325349970617 0.74314483375859142 0 0.66913059716165679 0.3345652985808284 0 -0.37157241687929571 1 I I #
point $-1 41.636095668367602 17.618656537319023 4.554273651009594 #
plane-surface $-1 43.733024079103977 0 0 -1 0 0 0 0 1 forward_v I I I I #
coedge $-1 $356 $354 $358 $484 reversed $241 $-1 #
edge $-1 $369 -7.6262934783949854 $486 7.6262934783949854 $368 $557 forward 7 unknown #
vertex $-1 $484 $558 #
straight-curve $-1 -43.733024079103977 -19.488002496067043 0 0 0 -1 I I #
edge $-1 $482 -19.488002496067043 $486 19.488002496067043 $480 $559 forward 7 unknown #
straight-curve $-1 0 -19.488002496067043 -7.6262934783949854 -1 0 0 I I #
vertex $-1 $361 $560 #
straight-curve $-1 0 19.488002496067043 -7.6262934783949854 1 0 0 I I #
point $-1 43.733024079103977 19.488002496067043 -7.6262934783949854 #
point $-1 43.733024079103977 -19.488002496067043 -7.6262934783949854 #
straight-curve $-1 -43.733024079103977 0 7.6262934783949854 0 -1 0 I I #
point $-1 -43.733024079103977 19.488002496067043 7.6262934783949854 #
point $-1 -43.733024079103977 -19.488002496067043 7.6262934783949854 #
straight-curve $-1 43.733024079103977 -19.488002496067043 0 0 0 -1 I I #
straight-curve $-1 43.733024079103977 19.488002496067043 0 0 0 -1 I I #
plane-surface $-1 43.733024079103977 0 0 -1 0 0 0 0 1 forward_v I I I I #
coedge $-1 $507 $498 $497 $561 forward $379 $-1 #
coedge $-1 $382 $381 $496 $561 reversed $160 $-1 #
coedge $-1 $496 $562 $383 $499 reversed $379 $-1 #
edge $-1 $500 -43.733024079103977 $503 43.733024079103977 $498 $563 forward 7 unknown #
vertex $-1 $384 $564 #
straight-curve $-1 -43.733024079103977 0 7.6262934783949854 0 -1 0 I I #
coedge $-1 $391 $385 $562 $565 forward $392 $-1 #
vertex $-1 $386 $566 #
straight-curve $-1 43.733024079103977 0 7.6262934783949854 0 1 0 I I #
point $-1 43.733024079103977 -19.488002496067043 7.6262934783949854 #
point $-1 -43.733024079103977 -19.488002496067043 7.6262934783949854 #
coedge $-1 $562 $496 $394 $508 reversed $379 $-1 #
edge $-1 $509 -43.733024079103977 $511 43.733024079103977 $507 $567 forward 7 unknown #
vertex $-1 $565 $568 #
straight-curve $-1 43.733024079103977 -23.109138497121251 4.3205499928444224 0 -1 0 I I #
vertex $-1 $396 $569 #
straight-curve $-1 -43.733024079103977 -23.109138497121251 4.3205499928444224 0 1 0 I I #
coedge $-1 $410 $409 $402 $514 forward $399 $-1 #
edge $-1 $515 18.181453876410501 $518 24.360715833455625 $513 $570 forward 7 unknown #
vertex $-1 $414 $571 #
straight-curve $-1 -57.690508472606609 3.6211360010542055 7.6262934783949845 -1 0 0 I I #
edge $-1 $518 -3.7720057688248438 $411 4.0737453043661205 $410 $572 forward 7 unknown #
vertex $-1 $517 $573 #
straight-curve $-1 -43.733024079103984 3.6211360010542055 1.4470315213498495 0.57357642473473569 0 0.81915205242281985 I I #
point $-1 -39.406258406798898 3.6211360010542055 7.6262934783949854 #
point $-1 -43.733024079103977 -4.2246150721367588 1.4470315213498597 #
straight-curve $-1 -43.733024079103977 0 7.6262934783949854 0 -1 0 I I #
vertex $-1 $417 $574 #
point $-1 -40.130310317706801 -1.9829719083679116 4.1392194547759376 #
vertex $-1 $421 $575 #
point $-1 -40.130310317706801 1.3794928372853583 4.1392194547759376 #
straight-curve $-1 -43.733024079103984 11.46688707424517 1.4470315213498495 0.57357642473473569 0 0.81915205242281985 I I #
coedge $-1 $429 $435 $431 $530 reversed $425 $-1 #
straight-curve $-1 -43.733024079103977 11.46688707424517 25.807747354805485 0 0 -1 I I #
edge $-1 $433 -11.46688707424517 $534 -3.6211360010542055 $528 $576 forward 7 unknown #
point $-1 -39.406258406798898 11.46688707424517 7.6262934783949854 #
point $-1 -43.733024079103977 11.46688707424517 7.6262934783949854 #
point $-1 -43.733024079103977 11.46688707424517 1.4470315213498597 #
vertex $-1 $440 $577 #
straight-curve $-1 -57.690508472606609 3.6211360010542055 7.6262934783949845 1 0 0 I I #
straight-curve $-1 -43.733024079103977 3.6211360010542055 25.807747354805485 0 0 1 I I #
vertex $-1 $443 $578 #
point $-1 -40.130310317706801 5.8627791648230527 4.1392194547759376 #
vertex $-1 $447 $579 #
point $-1 -40.130310317706801 9.2252439104763226 4.1392194547759376 #
coedge $-1 $452 $460 $453 $543 forward $324 $-1 #
edge $-1 $545 -12.080683696468542 $461 -2.7339539027284676 $452 $580 forward 7 unknown #
edge $-1 $549 -43.733024079103977 $545 -38.87003666046958 $453 $581 forward 7 unknown #
edge $-1 $549 -7.6262934783949854 $458 -2.2253986573827977 $457 $582 forward 7 unknown #
vertex $-1 $455 $583 #
straight-curve $-1 5.232802182222839 19.488002496067043 44.98422798396097 -0.66913059716165679 0 0.74314483375859142 I I #
point $-1 43.733024079103977 19.488002496067043 2.2253986573827977 #
point $-1 38.87003666046958 10.141272702326972 7.6262934783949845 #
vertex $-1 $464 $584 #
straight-curve $-1 43.733024079103977 0 7.6262934783949854 0 1 0 I I #
vertex $-1 $467 $585 #
point $-1 40.282243949296522 12.010618661074982 3.3352601181177661 #
vertex $-1 $471 $586 #
point $-1 40.282243949296522 14.814637599197003 3.3352601181177661 #
vertex $-1 $475 $587 #
point $-1 40.282243949296522 17.618656537319023 3.3352601181177661 #
straight-curve $-1 -43.733024079103977 19.488002496067043 0 0 0 -1 I I #
point $-1 -43.733024079103977 -19.488002496067043 -7.6262934783949854 #
straight-curve $-1 -43.733024079103977 0 -7.6262934783949854 0 1 0 I I #
point $-1 -43.733024079103977 19.488002496067043 -7.6262934783949854 #
edge $-1 $500 -1.6528717427752824 $511 1.6528717427752824 $497 $588 forward 7 unknown #
coedge $-1 $498 $507 $502 $565 reversed $379 $-1 #
straight-curve $-1 0 -26.730274498175458 7.6262934783949872 1 0 0 I I #
point $-1 -43.733024079103977 -26.730274498175458 7.6262934783949872 #
edge $-1 $503 -1.6528717427752824 $509 1.6528717427752824 $502 $589 forward 7 unknown #
point $-1 43.733024079103977 -26.730274498175458 7.6262934783949872 #
straight-curve $-1 0 -26.730274498175458 4.3205499928444224 -1 0 0 I I #
point $-1 43.733024079103977 -26.730274498175458 4.3205499928444224 #
point $-1 -43.733024079103977 -26.730274498175458 4.3205499928444224 #
straight-curve $-1 -43.733024079103977 3.6211360010542055 25.807747354805485 0 0 -1 I I #
point $-1 -43.733024079103977 3.6211360010542055 7.6262934783949854 #
straight-curve $-1 -43.733024079103977 -0.15086976777063832 1.4470315213498666 0 -1 0 I I #
point $-1 -43.733024079103977 3.6211360010542055 1.4470315213498597 #
point $-1 -40.007522503862759 -1.9829719083679116 3.4428552161971595 #
point $-1 -40.007522503862759 1.3794928372853583 3.4428552161971595 #
straight-curve $-1 -43.733024079103977 0 7.6262934783949854 0 -1 0 I I #
point $-1 -43.733024079103977 3.6211360010542055 7.6262934783949854 #
point $-1 -40.007522503862759 5.8627791648230527 3.4428552161971595 #
point $-1 -40.007522503862759 9.2252439104763226 3.4428552161971595 #
straight-curve $-1 38.87003666046958 7.4073187995985048 7.6262934783949845 0 -1 0 I I #
straight-curve $-1 0 19.488002496067043 7.6262934783949854 -1 0 0 I I #
straight-curve $-1 43.733024079103977 19.488002496067043 0 0 0 -1 I I #
point $-1 38.87003666046958 19.488002496067047 7.6262934783949845 #
point $-1 43.733024079103977 19.488002496067043 7.6262934783949854 #
point $-1 39.576106233836398 12.010618661074982 3.3722672364162336 #
point $-1 39.576106233836398 14.814637599197003 3.3722672364162336 #
point $-1 39.576106233836398 17.618656537319023 3.3722672364162336 #
straight-curve $-1 -43.733024079103977 -26.730274498175458 5.9734217356197048 0 0 -1 I I #
straight-curve $-1 43.733024079103977 -26.730274498175458 5.9734217356197048 0 0 -1 I I #
End-of-ACIS-data 