500 0 8 0           
7 Unknown 11 ACIS 5.0 NT 24 Thu Mar 25 23:03:13 1999 
-1 9.9999999999999995e-007 1e-010 
body $-1 $8 $-1 $9 #
body $-1 $10 $-1 $11 #
body $-1 $12 $-1 $13 #
body $-1 $14 $-1 $15 #
body $-1 $16 $-1 $17 #
body $-1 $18 $-1 $19 #
body $-1 $20 $-1 $21 #
body $-1 $22 $-1 $23 #
lump $-1 $-1 $24 $0 #
transform $-1 1 0 0 0 1 0 0 0 1 69.770195623645748 32.530963216605038 11.88605764696678 1 rotate no_reflect no_shear #
lump $-1 $-1 $25 $1 #
transform $-1 1 0 0 0 1 0 0 0 1 69.770195623645748 32.530963216605038 11.88605764696678 1 rotate no_reflect no_shear #
lump $-1 $-1 $26 $2 #
transform $-1 1 0 0 0 1 0 0 0 1 69.770195623645748 32.530963216605038 11.88605764696678 1 rotate no_reflect no_shear #
lump $-1 $-1 $27 $3 #
transform $-1 1 0 0 0 1 0 0 0 1 69.770195623645748 32.530963216605038 11.88605764696678 1 rotate no_reflect no_shear #
lump $-1 $-1 $28 $4 #
transform $-1 1 0 0 0 1 0 0 0 1 69.770195623645748 32.530963216605038 11.88605764696678 1 rotate no_reflect no_shear #
lump $-1 $-1 $29 $5 #
transform $-1 1 0 0 0 1 0 0 0 1 69.770195623645748 32.530963216605038 11.88605764696678 1 rotate no_reflect no_shear #
lump $-1 $-1 $30 $6 #
transform $-1 1 0 0 0 1 0 0 0 1 69.770195623645748 32.530963216605038 11.88605764696678 1 rotate no_reflect no_shear #
lump $-1 $-1 $31 $7 #
transform $-1 1 0 0 0 1 0 0 0 1 69.770195623645748 32.530963216605038 11.88605764696678 1 rotate no_reflect no_shear #
shell $-1 $-1 $-1 $32 $-1 $8 #
shell $-1 $-1 $-1 $33 $-1 $10 #
shell $-1 $-1 $-1 $34 $-1 $12 #
shell $-1 $-1 $-1 $35 $-1 $14 #
shell $-1 $-1 $-1 $36 $-1 $16 #
shell $-1 $-1 $-1 $37 $-1 $18 #
shell $-1 $-1 $-1 $38 $-1 $20 #
shell $-1 $-1 $-1 $39 $-1 $22 #
face $-1 $40 $41 $24 $-1 $42 forward single #
face $-1 $43 $44 $25 $-1 $45 reversed single #
face $-1 $46 $47 $26 $-1 $48 reversed single #
face $-1 $49 $50 $27 $-1 $51 forward single #
face $-1 $52 $53 $28 $-1 $54 reversed single #
face $-1 $55 $56 $29 $-1 $57 forward single #
face $-1 $58 $59 $30 $-1 $60 reversed single #
face $-1 $61 $62 $31 $-1 $63 forward single #
face $-1 $64 $65 $24 $-1 $66 reversed single #
loop $-1 $-1 $67 $32 #
plane-surface $-1 0 0 11.88605764696678 0 0 1 1 0 0 forward_v I I I I #
face $-1 $68 $69 $25 $-1 $70 reversed single #
loop $-1 $-1 $71 $33 #
plane-surface $-1 -52.875648485935237 -25.031516321155618 0 1 0 0 0 0 -1 forward_v I I I I #
face $-1 $72 $73 $26 $-1 $74 reversed single #
loop $-1 $-1 $75 $34 #
plane-surface $-1 120.84552662301249 19.603079691042975 197.83206403781156 0 1 0 0.86602541151947299 0 0.49999998660252726 forward_v I I I I #
face $-1 $76 $77 $27 $-1 $78 forward single #
loop $-1 $79 $80 $35 #
cone-surface $-1 67.587909111722993 26.067021453824012 9.0695432256497295 -0.86602541151947299 0 -0.49999998660252726 0.49999998660252726 0 -0.86602541151947299 1 I I 0 1 1 forward I I I I #
face $-1 $81 $82 $28 $-1 $83 reversed single #
loop $-1 $-1 $84 $36 #
plane-surface $-1 -184.07499350974788 -17.532069425706197 85.365675986461298 0 1 0 -0.81915205242281985 0 0.57357642473473569 forward_v I I I I #
face $-1 $85 $86 $29 $-1 $87 forward single #
loop $-1 $88 $89 $37 #
cone-surface $-1 -66.563273373020209 -13.734676004766929 7.9693468746518459 0.81915205242281985 0 -0.57357642473473569 0.86036463710210354 0 1.2287280786342298 1 I I 0 1 1.5 forward I I I I #
face $-1 $90 $91 $30 $-1 $92 reversed single #
loop $-1 $-1 $93 $38 #
plane-surface $-1 -184.07499350974788 7.4994468954494211 85.365675986461298 0 1 0 -0.81915205242281985 0 0.57357642473473569 forward_v I I I I #
face $-1 $94 $95 $31 $-1 $96 forward single #
loop $-1 $97 $98 $39 #
cone-surface $-1 -66.563273373020209 11.296840316388689 7.9693468746518459 0.81915205242281985 0 -0.57357642473473569 0.86036463710210354 0 1.2287280786342298 1 I I 0 1 1.5 forward I I I I #
face $-1 $99 $100 $24 $-1 $101 reversed single #
loop $-1 $-1 $102 $40 #
plane-surface $-1 0 0 -11.88605764696678 0 0 1 1 0 0 forward_v I I I I #
coedge $-1 $103 $104 $105 $106 forward $41 $-1 #
face $-1 $107 $108 $25 $-1 $109 reversed single #
loop $-1 $-1 $110 $43 #
plane-surface $-1 -49.436864407823712 -17.532069425706197 0 0 -1 0 0 0 -1 forward_v I I I I #
coedge $-1 $111 $112 $113 $114 forward $44 $-1 #
face $-1 $115 $116 $26 $-1 $117 reversed single #
loop $-1 $-1 $118 $46 #
plane-surface $-1 1.8694885994818833e-006 26.067021453824005 128.0618702836544 0.86602541151947299 0 0.49999998660252726 0.49999998660252726 0 -0.86602541151947299 forward_v I I I I #
coedge $-1 $119 $120 $121 $122 reversed $47 $-1 #
face $-1 $-1 $123 $27 $-1 $124 forward single #
loop $-1 $125 $126 $49 #
cone-surface $-1 66.320639619726734 26.067021453824012 8.3378848694495495 -0.86602541151947299 0 -0.49999998660252726 0.24999999330126363 0 -0.43301270575973649 1 I I -0.70710678118654746 0.70710678118654746 0.5 forward I I I I #
loop $-1 $-1 $127 $35 #
coedge $-1 $80 $80 $128 $129 reversed $50 $-1 #
face $-1 $130 $131 $28 $-1 $132 reversed single #
loop $-1 $-1 $133 $52 #
plane-surface $-1 -69.770195623645762 -13.734676004766929 5.32859726875364 -0.81915205242281985 0 0.57357642473473569 0.57357642473473569 0 0.81915205242281985 forward_v I I I I #
coedge $-1 $134 $135 $136 $137 reversed $53 $-1 #
face $-1 $-1 $138 $29 $-1 $139 forward single #
loop $-1 $140 $141 $55 #
cone-surface $-1 -65.037778607954166 -13.734676004766929 6.9011839728924329 0.81915205242281985 0 -0.57357642473473569 0.43018231855105177 0 0.61436403931711492 1 I I -0.70710678118654757 0.70710678118654757 0.75 forward I I I I #
loop $-1 $-1 $142 $37 #
coedge $-1 $89 $89 $143 $144 reversed $56 $-1 #
face $-1 $145 $146 $30 $-1 $147 reversed single #
loop $-1 $-1 $148 $58 #
plane-surface $-1 -69.770195623645762 11.296840316388689 5.32859726875364 -0.81915205242281985 0 0.57357642473473569 0.57357642473473569 0 0.81915205242281985 forward_v I I I I #
coedge $-1 $149 $150 $151 $152 reversed $59 $-1 #
face $-1 $-1 $153 $31 $-1 $154 forward single #
loop $-1 $155 $156 $61 #
cone-surface $-1 -65.037778607954166 11.296840316388689 6.9011839728924329 0.81915205242281985 0 -0.57357642473473569 0.43018231855105177 0 0.61436403931711492 1 I I -0.70710678118654757 0.70710678118654757 0.75 forward I I I I #
loop $-1 $-1 $157 $39 #
coedge $-1 $98 $98 $158 $159 reversed $62 $-1 #
face $-1 $160 $161 $24 $-1 $162 reversed single #
loop $-1 $-1 $163 $64 #
plane-surface $-1 0 -32.530963216605038 0 0 1 0 0 0 1 forward_v I I I I #
coedge $-1 $164 $165 $166 $167 forward $65 $-1 #
coedge $-1 $168 $67 $169 $170 forward $41 $-1 #
coedge $-1 $67 $168 $171 $172 forward $41 $-1 #
coedge $-1 $173 $174 $67 $106 reversed $175 $-1 #
edge $-1 $176 -32.530963216605038 $177 32.530963216605038 $105 $178 forward 7 unknown #
face $-1 $179 $180 $25 $-1 $181 forward single #
loop $-1 $-1 $182 $68 #
plane-surface $-1 -45.998080329712188 -25.031516321155618 0 -1 0 0 0 0 1 forward_v I I I I #
coedge $-1 $183 $184 $185 $186 forward $69 $-1 #
coedge $-1 $187 $71 $188 $189 reversed $44 $-1 #
coedge $-1 $71 $187 $190 $191 reversed $44 $-1 #
coedge $-1 $184 $183 $71 $114 reversed $69 $-1 #
edge $-1 $192 -11.88605764696678 $193 11.88605764696678 $113 $194 forward 7 unknown #
face $-1 $195 $196 $26 $-1 $197 reversed single #
loop $-1 $-1 $121 $72 #
plane-surface $-1 69.770195623645748 0 0 -1 0 0 0 0 1 forward_v I I I I #
coedge $-1 $198 $199 $200 $201 reversed $73 $-1 #
coedge $-1 $120 $75 $202 $203 reversed $47 $-1 #
coedge $-1 $75 $119 $198 $204 reversed $47 $-1 #
coedge $-1 $200 $205 $75 $122 forward $116 $-1 #
edge $-1 $206 87.029974371939005 $207 91.699686488775242 $121 $208 forward 7 unknown #
loop $-1 $-1 $128 $76 #
plane-surface $-1 1.8694885994818833e-006 26.067021453824005 128.0618702836544 0.86602541151947299 0 0.49999998660252726 0.49999998660252726 0 -0.86602541151947299 forward_v I I I I #
loop $-1 $-1 $209 $49 #
coedge $-1 $126 $126 $127 $210 reversed $77 $-1 #
coedge $-1 $127 $127 $126 $210 forward $79 $-1 #
coedge $-1 $128 $128 $80 $129 forward $123 $-1 #
edge $-1 $211 0 $211 6.2831853071796004 $128 $212 forward 7 unknown #
face $-1 $213 $214 $28 $-1 $215 reversed single #
loop $-1 $-1 $216 $81 #
plane-surface $-1 -184.07499350974788 -9.9372825838276597 85.365675986461298 0 -1 0 0.81915205242281985 0 -0.57357642473473569 forward_v I I I I #
coedge $-1 $217 $218 $219 $220 reversed $82 $-1 #
coedge $-1 $135 $84 $221 $222 reversed $53 $-1 #
coedge $-1 $84 $134 $217 $223 reversed $53 $-1 #
coedge $-1 $219 $224 $84 $137 forward $225 $-1 #
edge $-1 $226 22.267301131228194 $227 26.858884180981406 $136 $228 forward 7 unknown #
loop $-1 $-1 $143 $85 #
plane-surface $-1 -69.770195623645762 -13.734676004766929 5.32859726875364 -0.81915205242281985 0 0.57357642473473569 0.57357642473473569 0 0.81915205242281985 forward_v I I I I #
loop $-1 $-1 $229 $55 #
coedge $-1 $141 $141 $142 $230 reversed $86 $-1 #
coedge $-1 $142 $142 $141 $230 forward $88 $-1 #
coedge $-1 $143 $143 $89 $144 forward $138 $-1 #
edge $-1 $231 0 $231 6.2831853071796004 $143 $232 forward 7 unknown #
face $-1 $233 $234 $30 $-1 $235 forward single #
loop $-1 $-1 $236 $90 #
plane-surface $-1 -184.07499350974788 15.094233737327958 85.365675986461298 0 -1 0 0.81915205242281985 0 -0.57357642473473569 forward_v I I I I #
coedge $-1 $237 $238 $239 $240 reversed $91 $-1 #
coedge $-1 $150 $93 $241 $242 reversed $59 $-1 #
coedge $-1 $93 $149 $237 $243 reversed $59 $-1 #
coedge $-1 $239 $244 $93 $152 forward $234 $-1 #
edge $-1 $245 22.267301131228194 $246 26.858884180981406 $151 $247 forward 7 unknown #
loop $-1 $-1 $158 $94 #
plane-surface $-1 -69.770195623645762 11.296840316388689 5.32859726875364 -0.81915205242281985 0 0.57357642473473569 0.57357642473473569 0 0.81915205242281985 forward_v I I I I #
loop $-1 $-1 $248 $61 #
coedge $-1 $156 $156 $157 $249 reversed $95 $-1 #
coedge $-1 $157 $157 $156 $249 forward $97 $-1 #
coedge $-1 $158 $158 $98 $159 forward $153 $-1 #
edge $-1 $250 0 $250 6.2831853071796004 $158 $251 forward 7 unknown #
face $-1 $252 $253 $24 $-1 $254 reversed single #
loop $-1 $-1 $255 $99 #
plane-surface $-1 -69.770195623645748 0 0 1 0 0 0 0 -1 forward_v I I I I #
coedge $-1 $256 $171 $257 $258 forward $100 $-1 #
coedge $-1 $259 $102 $256 $260 forward $65 $-1 #
coedge $-1 $102 $259 $261 $262 forward $65 $-1 #
coedge $-1 $174 $173 $102 $167 reversed $175 $-1 #
edge $-1 $263 -32.530963216605038 $264 32.530963216605038 $166 $265 forward 7 unknown #
coedge $-1 $104 $103 $266 $267 forward $41 $-1 #
coedge $-1 $268 $269 $103 $170 reversed $253 $-1 #
edge $-1 $177 -69.770195623645748 $270 69.770195623645748 $169 $271 forward 7 unknown #
coedge $-1 $163 $272 $104 $172 reversed $100 $-1 #
edge $-1 $273 -69.770195623645748 $176 69.770195623645748 $171 $274 forward 7 unknown #
coedge $-1 $166 $105 $272 $275 forward $175 $-1 #
coedge $-1 $105 $166 $268 $276 reversed $175 $-1 #
loop $-1 $-1 $173 $252 #
vertex $-1 $106 $277 #
vertex $-1 $106 $278 #
straight-curve $-1 69.770195623645748 0 11.88605764696678 0 1 0 I I #
face $-1 $279 $280 $25 $-1 $281 reversed single #
loop $-1 $-1 $282 $107 #
plane-surface $-1 0 0 11.88605764696678 0 0 1 1 0 0 forward_v I I I I #
coedge $-1 $283 $284 $285 $286 reversed $108 $-1 #
coedge $-1 $113 $110 $287 $288 reversed $69 $-1 #
coedge $-1 $110 $113 $289 $290 reversed $69 $-1 #
coedge $-1 $284 $283 $110 $186 reversed $108 $-1 #
edge $-1 $291 -11.88605764696678 $292 11.88605764696678 $185 $293 forward 7 unknown #
coedge $-1 $112 $111 $294 $295 reversed $44 $-1 #
coedge $-1 $287 $296 $111 $189 forward $280 $-1 #
edge $-1 $297 -20.015205056027227 $193 -5.0163112651283885 $188 $298 forward 7 unknown #
coedge $-1 $299 $289 $112 $191 forward $180 $-1 #
edge $-1 $192 5.0163112651283885 $300 20.015205056027227 $190 $301 forward 7 unknown #
vertex $-1 $191 $302 #
vertex $-1 $189 $303 #
straight-curve $-1 -52.875648485935237 -17.532069425706197 0 0 0 -1 I I #
face $-1 $-1 $304 $26 $-1 $305 forward single #
loop $-1 $-1 $306 $115 #
plane-surface $-1 0 32.530963216605038 0 0 -1 0 0 0 -1 forward_v I I I I #
coedge $-1 $307 $118 $120 $204 forward $73 $-1 #
coedge $-1 $118 $307 $306 $308 reversed $73 $-1 #
coedge $-1 $309 $121 $118 $201 forward $116 $-1 #
edge $-1 $207 6.5695689641309727 $310 19.497452489693035 $200 $311 forward 7 unknown #
coedge $-1 $312 $313 $119 $203 forward $304 $-1 #
edge $-1 $314 6.6513728607670686 $206 9.3474323121395031 $202 $315 forward 7 unknown #
edge $-1 $207 -139.54039124729147 $314 -134.14827220006507 $120 $316 forward 7 unknown #
coedge $-1 $121 $309 $312 $317 reversed $116 $-1 #
vertex $-1 $317 $318 #
vertex $-1 $122 $319 #
straight-curve $-1 69.770195623645748 19.603079691042975 98.916032018905781 0 0 -1 I I #
coedge $-1 $209 $209 $-1 $320 reversed $125 $-1 #
edge $-1 $321 0 $321 6.2831853071796004 $126 $322 forward 7 unknown #
vertex $-1 $129 $323 #
ellipse-curve $-1 68.42216589795953 26.067021453824012 9.5512015885486559 0.86602541151947299 0 0.49999998660252726 0.49999998660252726 0 -0.86602541151947299 1 I I #
face $-1 $-1 $225 $28 $-1 $324 forward single #
loop $-1 $-1 $325 $130 #
plane-surface $-1 -69.770195623645748 0 0 1 0 0 0 0 -1 forward_v I I I I #
coedge $-1 $326 $327 $328 $329 reversed $131 $-1 #
coedge $-1 $330 $133 $135 $223 forward $82 $-1 #
coedge $-1 $133 $330 $326 $331 forward $82 $-1 #
coedge $-1 $328 $136 $133 $220 forward $225 $-1 #
edge $-1 $227 -10.664731423322733 $332 -3.0699445814441955 $219 $333 forward 7 unknown #
coedge $-1 $334 $335 $134 $222 forward $214 $-1 #
edge $-1 $336 -37.354240724476988 $226 -30.796780346263869 $221 $337 forward 7 unknown #
edge $-1 $227 -8.005180917044683 $336 -2.4884734274515653e-014 $135 $338 forward 7 unknown #
coedge $-1 $136 $328 $334 $339 forward $225 $-1 #
loop $-1 $-1 $328 $213 #
vertex $-1 $222 $340 #
vertex $-1 $137 $341 #
straight-curve $-1 -92.037496754873942 -17.532069425706197 11.886057646966776 1 0 0 I I #
coedge $-1 $229 $229 $-1 $342 reversed $140 $-1 #
edge $-1 $343 0 $343 6.2831853071796004 $141 $344 forward 7 unknown #
vertex $-1 $144 $345 #
ellipse-curve $-1 -67.474404098769156 -13.734676004766929 8.6073274578602135 -0.81915205242281985 0 0.57357642473473569 0.86036463710210354 0 1.2287280786342298 1 I I #
face $-1 $-1 $346 $30 $-1 $347 reversed single #
loop $-1 $-1 $151 $145 #
plane-surface $-1 0 0 11.88605764696678 0 0 1 1 0 0 forward_v I I I I #
coedge $-1 $348 $349 $350 $351 reversed $146 $-1 #
coedge $-1 $352 $148 $150 $243 forward $91 $-1 #
coedge $-1 $148 $352 $348 $353 forward $91 $-1 #
coedge $-1 $350 $151 $148 $240 forward $234 $-1 #
edge $-1 $246 1.8510267372550766 $354 9.4458135791336133 $239 $355 forward 7 unknown #
coedge $-1 $356 $357 $149 $242 forward $346 $-1 #
edge $-1 $358 -37.354240724476988 $245 -30.796780346263869 $241 $359 forward 7 unknown #
edge $-1 $246 -8.005180917044683 $358 -2.4884734274515653e-014 $150 $360 forward 7 unknown #
coedge $-1 $151 $350 $356 $361 forward $234 $-1 #
vertex $-1 $242 $362 #
vertex $-1 $152 $363 #
straight-curve $-1 -92.037496754873942 7.4994468954494211 11.886057646966776 1 0 0 I I #
coedge $-1 $248 $248 $-1 $364 reversed $155 $-1 #
edge $-1 $365 0 $365 6.2831853071796004 $156 $366 forward 7 unknown #
vertex $-1 $159 $367 #
ellipse-curve $-1 -67.474404098769156 11.296840316388689 8.6073274578602135 -0.81915205242281985 0 0.57357642473473569 0.86036463710210354 0 1.2287280786342298 1 I I #
face $-1 $-1 $175 $24 $-1 $368 reversed single #
loop $-1 $-1 $268 $160 #
plane-surface $-1 0 32.530963216605038 0 0 -1 0 0 0 -1 forward_v I I I I #
coedge $-1 $369 $266 $269 $370 forward $161 $-1 #
coedge $-1 $272 $163 $164 $260 reversed $100 $-1 #
coedge $-1 $266 $369 $163 $258 reversed $161 $-1 #
edge $-1 $273 -11.88605764696678 $371 11.88605764696678 $257 $372 forward 7 unknown #
coedge $-1 $165 $164 $369 $373 forward $65 $-1 #
edge $-1 $264 -69.770195623645748 $371 69.770195623645748 $256 $374 forward 7 unknown #
coedge $-1 $269 $268 $165 $262 reversed $253 $-1 #
edge $-1 $375 -69.770195623645748 $263 69.770195623645748 $261 $376 forward 7 unknown #
vertex $-1 $167 $377 #
vertex $-1 $275 $378 #
straight-curve $-1 69.770195623645748 0 -11.88605764696678 0 -1 0 I I #
coedge $-1 $255 $257 $168 $267 reversed $161 $-1 #
edge $-1 $270 -32.530963216605038 $273 32.530963216605038 $266 $379 forward 7 unknown #
coedge $-1 $261 $169 $174 $276 forward $253 $-1 #
coedge $-1 $169 $261 $255 $370 reversed $253 $-1 #
vertex $-1 $170 $380 #
straight-curve $-1 0 32.530963216605038 11.88605764696678 -1 0 0 I I #
coedge $-1 $171 $256 $173 $275 reversed $100 $-1 #
vertex $-1 $267 $381 #
straight-curve $-1 0 -32.530963216605038 11.88605764696678 1 0 0 I I #
edge $-1 $176 -11.88605764696678 $264 11.88605764696678 $173 $382 forward 7 unknown #
edge $-1 $177 -11.88605764696678 $263 11.88605764696678 $174 $383 forward 7 unknown #
point $-1 69.770195623645748 -32.530963216605038 11.88605764696678 #
point $-1 69.770195623645748 32.530963216605038 11.88605764696678 #
face $-1 $-1 $384 $25 $-1 $385 reversed single #
loop $-1 $-1 $386 $179 #
plane-surface $-1 0 0 -11.88605764696678 0 0 1 1 0 0 forward_v I I I I #
coedge $-1 $289 $299 $284 $387 forward $180 $-1 #
coedge $-1 $185 $182 $386 $388 reversed $108 $-1 #
coedge $-1 $182 $185 $282 $387 reversed $108 $-1 #
coedge $-1 $389 $390 $182 $286 forward $384 $-1 #
edge $-1 $391 -11.88605764696678 $392 11.88605764696678 $285 $393 forward 7 unknown #
coedge $-1 $386 $188 $183 $288 forward $280 $-1 #
edge $-1 $193 -28.157216282023381 $292 -21.279648125800332 $287 $394 forward 7 unknown #
coedge $-1 $190 $282 $184 $290 forward $180 $-1 #
edge $-1 $291 21.279648125800332 $192 28.157216282023381 $289 $395 forward 7 unknown #
vertex $-1 $290 $396 #
vertex $-1 $288 $397 #
straight-curve $-1 -45.998080329712188 -17.532069425706197 0 0 0 -1 I I #
coedge $-1 $390 $389 $187 $295 forward $384 $-1 #
edge $-1 $300 -11.88605764696678 $297 11.88605764696678 $294 $398 forward 7 unknown #
coedge $-1 $188 $386 $390 $399 forward $280 $-1 #
vertex $-1 $189 $400 #
straight-curve $-1 -52.875648485935237 -12.515758160577809 -11.88605764696678 0 1 0 I I #
coedge $-1 $282 $190 $389 $401 forward $180 $-1 #
vertex $-1 $401 $402 #
straight-curve $-1 -52.875648485935237 -12.515758160577809 11.88605764696678 0 -1 0 I I #
point $-1 -52.875648485935237 -17.532069425706197 11.88605764696678 #
point $-1 -52.875648485935237 -17.532069425706197 -11.88605764696678 #
loop $-1 $-1 $202 $195 #
plane-surface $-1 0 0 11.88605764696678 0 0 1 1 0 0 forward_v I I I I #
coedge $-1 $403 $404 $199 $308 forward $196 $-1 #
coedge $-1 $199 $198 $313 $405 reversed $73 $-1 #
edge $-1 $310 -84.087974758486027 $406 -78.695855711259611 $306 $407 forward 7 unknown #
coedge $-1 $205 $200 $404 $408 reversed $116 $-1 #
vertex $-1 $308 $409 #
straight-curve $-1 69.770195623645748 13.033510726912002 7.2163455301305177 0 1 0 I I #
coedge $-1 $410 $202 $205 $317 forward $304 $-1 #
coedge $-1 $202 $410 $307 $405 forward $304 $-1 #
vertex $-1 $203 $411 #
straight-curve $-1 60.422763311506245 19.603079691042975 11.886057646966776 1 0 0 I I #
straight-curve $-1 1.8694885994818833e-006 19.603079691042975 128.0618702836544 -0.49999998660252726 0 0.86602541151947299 I I #
edge $-1 $206 19.603079691042975 $412 32.530963216605038 $205 $413 forward 7 unknown #
point $-1 69.770195623645748 19.603079691042975 11.88605764696678 #
point $-1 69.770195623645748 19.603079691042975 7.216345530130539 #
edge $-1 $414 1 $414 0 $209 $-1 forward 7 unknown #
vertex $-1 $210 $415 #
ellipse-curve $-1 66.75365232548647 26.067021453824012 8.5878848627508138 0.86602541151947299 0 0.49999998660252726 0.49999998660252726 0 -0.86602541151947299 1 I I #
point $-1 68.922165884562048 26.067021453824012 8.685176177029172 #
plane-surface $-1 0 0 11.88605764696678 0 0 1 1 0 0 forward_v I I I I #
coedge $-1 $335 $334 $327 $416 forward $214 $-1 #
coedge $-1 $327 $216 $218 $331 reversed $131 $-1 #
coedge $-1 $216 $326 $325 $416 reversed $131 $-1 #
coedge $-1 $224 $219 $216 $329 forward $225 $-1 #
edge $-1 $332 -26.858884180981406 $417 -22.267301131228194 $328 $418 forward 7 unknown #
coedge $-1 $218 $217 $335 $419 reversed $82 $-1 #
edge $-1 $420 2.4884734274515653e-014 $332 8.005180917044683 $326 $421 forward 7 unknown #
vertex $-1 $220 $422 #
straight-curve $-1 -65.178612573892551 -6.8673380023834643 11.88605764696678 0 1 0 I I #
coedge $-1 $325 $221 $224 $339 reversed $214 $-1 #
coedge $-1 $221 $325 $330 $419 forward $214 $-1 #
vertex $-1 $222 $423 #
straight-curve $-1 -69.770195623645748 -17.532069425706197 42.682837993230649 0 0 1 I I #
straight-curve $-1 -69.770195623645762 -17.532069425706197 5.32859726875364 -0.57357642473473569 0 -0.81915205242281985 I I #
edge $-1 $417 9.9372825838276597 $226 17.532069425706197 $334 $424 forward 7 unknown #
point $-1 -69.770195623645748 -17.532069425706197 11.88605764696678 #
point $-1 -65.178612573892536 -17.532069425706197 11.88605764696678 #
edge $-1 $425 1 $425 0 $229 $-1 forward 7 unknown #
vertex $-1 $230 $426 #
ellipse-curve $-1 -65.652142647271276 -13.734676004766929 7.3313662914434845 -0.81915205242281985 0 0.57357642473473569 0.86036463710210354 0 1.2287280786342298 1 I I #
point $-1 -66.614039461667033 -13.734676004766929 9.8360555364944364 #
loop $-1 $-1 $241 $233 #
plane-surface $-1 -69.770195623645748 0 0 1 0 0 0 0 -1 forward_v I I I I #
coedge $-1 $349 $236 $238 $353 reversed $146 $-1 #
coedge $-1 $236 $348 $427 $428 reversed $146 $-1 #
coedge $-1 $244 $239 $236 $351 forward $234 $-1 #
edge $-1 $354 -26.858884180981406 $429 -22.267301131228194 $350 $430 forward 7 unknown #
coedge $-1 $238 $237 $357 $431 reversed $91 $-1 #
edge $-1 $432 2.4884734274515653e-014 $354 8.005180917044683 $348 $433 forward 7 unknown #
vertex $-1 $240 $434 #
straight-curve $-1 -65.178612573892551 5.6484201581943445 11.88605764696678 0 1 0 I I #
coedge $-1 $427 $241 $244 $361 reversed $346 $-1 #
coedge $-1 $241 $427 $352 $431 forward $346 $-1 #
vertex $-1 $242 $435 #
straight-curve $-1 -69.770195623645748 7.4994468954494211 42.682837993230649 0 0 1 I I #
straight-curve $-1 -69.770195623645762 7.4994468954494211 5.32859726875364 -0.57357642473473569 0 -0.81915205242281985 I I #
edge $-1 $429 -15.094233737327958 $245 -7.4994468954494211 $356 $436 forward 7 unknown #
point $-1 -69.770195623645748 7.4994468954494211 11.88605764696678 #
point $-1 -65.178612573892536 7.4994468954494211 11.88605764696678 #
edge $-1 $437 1 $437 0 $248 $-1 forward 7 unknown #
vertex $-1 $249 $438 #
ellipse-curve $-1 -65.652142647271276 11.296840316388689 7.3313662914434845 -0.81915205242281985 0 0.57357642473473569 0.86036463710210354 0 1.2287280786342298 1 I I #
point $-1 -66.614039461667033 11.296840316388689 9.8360555364944364 #
plane-surface $-1 69.770195623645748 0 0 -1 0 0 0 0 1 forward_v I I I I #
coedge $-1 $257 $255 $259 $373 reversed $161 $-1 #
edge $-1 $270 -11.88605764696678 $375 11.88605764696678 $269 $439 forward 7 unknown #
vertex $-1 $373 $440 #
straight-curve $-1 -69.770195623645748 -32.530963216605038 0 0 0 -1 I I #
edge $-1 $371 -32.530963216605038 $375 32.530963216605038 $369 $441 forward 7 unknown #
straight-curve $-1 0 -32.530963216605038 -11.88605764696678 -1 0 0 I I #
vertex $-1 $262 $442 #
straight-curve $-1 0 32.530963216605038 -11.88605764696678 1 0 0 I I #
point $-1 69.770195623645748 32.530963216605038 -11.88605764696678 #
point $-1 69.770195623645748 -32.530963216605038 -11.88605764696678 #
straight-curve $-1 -69.770195623645748 0 11.88605764696678 0 -1 0 I I #
point $-1 -69.770195623645748 32.530963216605038 11.88605764696678 #
point $-1 -69.770195623645748 -32.530963216605038 11.88605764696678 #
straight-curve $-1 69.770195623645748 -32.530963216605038 0 0 0 -1 I I #
straight-curve $-1 69.770195623645748 32.530963216605038 0 0 0 -1 I I #
loop $-1 $-1 $285 $279 #
plane-surface $-1 0 -32.530963216605038 0 0 1 0 0 0 1 forward_v I I I I #
coedge $-1 $296 $287 $283 $388 forward $280 $-1 #
edge $-1 $392 -20.015205056027227 $291 -5.0163112651283885 $282 $443 forward 7 unknown #
edge $-1 $292 5.0163112651283885 $391 20.015205056027227 $386 $444 forward 7 unknown #
coedge $-1 $294 $285 $299 $401 reversed $384 $-1 #
coedge $-1 $285 $294 $296 $399 reversed $384 $-1 #
vertex $-1 $399 $445 #
vertex $-1 $286 $446 #
straight-curve $-1 -45.998080329712188 -32.530963216605038 0 0 0 1 I I #
straight-curve $-1 -24.718432203911856 -17.532069425706197 -11.88605764696678 1 0 0 I I #
straight-curve $-1 -24.718432203911856 -17.532069425706197 11.88605764696678 -1 0 0 I I #
point $-1 -45.998080329712188 -17.532069425706197 11.88605764696678 #
point $-1 -45.998080329712188 -17.532069425706197 -11.88605764696678 #
straight-curve $-1 -52.875648485935237 -32.530963216605038 0 0 0 -1 I I #
edge $-1 $391 45.998080329712188 $297 52.875648485935237 $390 $447 forward 7 unknown #
point $-1 -52.875648485935237 -32.530963216605038 -11.88605764696678 #
edge $-1 $300 -52.875648485935237 $392 -45.998080329712188 $389 $448 forward 7 unknown #
point $-1 -52.875648485935237 -32.530963216605038 11.88605764696678 #
coedge $-1 $404 $306 $410 $449 reversed $196 $-1 #
coedge $-1 $306 $403 $309 $408 forward $196 $-1 #
edge $-1 $406 -19.497452489693028 $314 -6.5695689641309727 $313 $450 forward 7 unknown #
vertex $-1 $308 $451 #
straight-curve $-1 27.72620937096908 32.530963216605038 80.038668474187446 -0.49999998660252726 0 0.86602541151947299 I I #
edge $-1 $412 -11.88605764696678 $310 -7.2163455301305239 $309 $452 forward 7 unknown #
point $-1 69.770195623645748 32.530963216605038 7.2163455301305239 #
coedge $-1 $313 $312 $403 $449 forward $304 $-1 #
point $-1 67.074136172273313 19.603079691042975 11.886057646966776 #
vertex $-1 $317 $453 #
straight-curve $-1 69.770195623645748 0 11.88605764696678 0 1 0 I I #
vertex $-1 $320 $454 #
point $-1 67.253652312089002 26.067021453824012 7.7218594512313405 #
edge $-1 $417 30.796780346263869 $420 37.354240724476988 $325 $455 forward 7 unknown #
vertex $-1 $339 $456 #
straight-curve $-1 -92.037496754873942 -9.9372825838276597 11.886057646966776 -1 0 0 I I #
edge $-1 $420 3.0699445814441955 $336 10.664731423322733 $335 $457 forward 7 unknown #
vertex $-1 $419 $458 #
straight-curve $-1 -69.770195623645762 -9.9372825838276597 5.32859726875364 0.57357642473473569 0 0.81915205242281985 I I #
point $-1 -65.178612573892536 -9.9372825838276597 11.88605764696678 #
point $-1 -69.770195623645748 -17.532069425706197 5.3285972687536605 #
straight-curve $-1 -69.770195623645748 0 11.88605764696678 0 -1 0 I I #
vertex $-1 $342 $459 #
point $-1 -64.791778010169182 -13.734676004766929 8.5600943700777137 #
coedge $-1 $357 $356 $349 $428 forward $346 $-1 #
edge $-1 $429 30.796780346263869 $432 37.354240724476988 $427 $460 forward 7 unknown #
vertex $-1 $361 $461 #
straight-curve $-1 -92.037496754873942 15.094233737327958 11.886057646966776 -1 0 0 I I #
edge $-1 $432 -9.4458135791336133 $358 -1.8510267372550766 $357 $462 forward 7 unknown #
vertex $-1 $431 $463 #
straight-curve $-1 -69.770195623645762 15.094233737327958 5.32859726875364 0.57357642473473569 0 0.81915205242281985 I I #
point $-1 -65.178612573892536 15.094233737327958 11.88605764696678 #
point $-1 -69.770195623645748 7.4994468954494211 5.3285972687536605 #
straight-curve $-1 -69.770195623645748 0 11.88605764696678 0 -1 0 I I #
vertex $-1 $364 $464 #
point $-1 -64.791778010169182 11.296840316388689 8.5600943700777137 #
straight-curve $-1 -69.770195623645748 32.530963216605038 0 0 0 -1 I I #
point $-1 -69.770195623645748 -32.530963216605038 -11.88605764696678 #
straight-curve $-1 -69.770195623645748 0 -11.88605764696678 0 1 0 I I #
point $-1 -69.770195623645748 32.530963216605038 -11.88605764696678 #
straight-curve $-1 -45.998080329712188 -12.515758160577809 11.88605764696678 0 1 0 I I #
straight-curve $-1 -45.998080329712188 -12.515758160577809 -11.88605764696678 0 -1 0 I I #
point $-1 -45.998080329712188 -32.530963216605038 -11.88605764696678 #
point $-1 -45.998080329712188 -32.530963216605038 11.88605764696678 #
straight-curve $-1 0 -32.530963216605038 -11.88605764696678 -1 0 0 I I #
straight-curve $-1 0 -32.530963216605038 11.88605764696678 1 0 0 I I #
edge $-1 $412 -69.770195623645748 $406 -67.074136172273313 $403 $465 forward 7 unknown #
straight-curve $-1 67.074136172273313 13.033510726912002 11.886057646966776 0 -1 0 I I #
point $-1 67.074136172273313 32.530963216605031 11.886057646966776 #
straight-curve $-1 69.770195623645748 32.530963216605038 0 0 0 -1 I I #
point $-1 69.770195623645748 32.530963216605038 11.88605764696678 #
point $-1 65.887626913966997 26.067021453824012 8.0878848761482853 #
straight-curve $-1 -69.770195623645748 -9.9372825838276597 42.682837993230649 0 0 -1 I I #
point $-1 -69.770195623645748 -9.9372825838276597 11.88605764696678 #
straight-curve $-1 -69.770195623645748 -6.8673380023834643 5.3285972687536542 0 -1 0 I I #
point $-1 -69.770195623645748 -9.9372825838276597 5.3285972687536605 #
point $-1 -64.423414568637057 -13.734676004766929 6.4710016543413813 #
straight-curve $-1 -69.770195623645748 15.094233737327958 42.682837993230649 0 0 -1 I I #
point $-1 -69.770195623645748 15.094233737327958 11.88605764696678 #
straight-curve $-1 -69.770195623645748 5.6484201581943445 5.3285972687536542 0 -1 0 I I #
point $-1 -69.770195623645748 15.094233737327958 5.3285972687536605 #
point $-1 -64.423414568637057 11.296840316388689 6.4710016543413813 #
straight-curve $-1 0 32.530963216605038 11.88605764696678 -1 0 0 I I #
End-of-ACIS-data 