500 0 9 0           
7 Unknown 11 ACIS 5.0 NT 24 Thu Mar 25 16:59:10 1999 
-1 9.9999999999999995e-007 1e-010 
body $-1 $9 $-1 $10 #
body $-1 $11 $-1 $12 #
body $-1 $13 $-1 $14 #
body $-1 $15 $-1 $16 #
body $-1 $17 $-1 $18 #
body $-1 $19 $-1 $20 #
body $-1 $21 $-1 $22 #
body $-1 $23 $-1 $24 #
body $-1 $25 $-1 $26 #
lump $-1 $-1 $27 $0 #
transform $-1 1 0 0 0 1 0 0 0 1 75.274513992736587 49.397880395959824 16.639579603576969 1 rotate no_reflect no_shear #
lump $-1 $-1 $28 $1 #
transform $-1 1 0 0 0 1 0 0 0 1 75.274513992736587 49.397880395959824 16.639579603576969 1 rotate no_reflect no_shear #
lump $-1 $-1 $29 $2 #
transform $-1 1 0 0 0 1 0 0 0 1 75.274513992736587 49.397880395959824 16.639579603576969 1 rotate no_reflect no_shear #
lump $-1 $-1 $30 $3 #
transform $-1 1 0 0 0 1 0 0 0 1 75.274513992736587 49.397880395959824 16.639579603576969 1 rotate no_reflect no_shear #
lump $-1 $-1 $31 $4 #
transform $-1 1 0 0 0 1 0 0 0 1 75.274513992736587 49.397880395959824 16.639579603576969 1 rotate no_reflect no_shear #
lump $-1 $-1 $32 $5 #
transform $-1 1 0 0 0 1 0 0 0 1 75.274513992736587 49.397880395959824 16.639579603576969 1 rotate no_reflect no_shear #
lump $-1 $-1 $33 $6 #
transform $-1 1 0 0 0 1 0 0 0 1 75.274513992736587 49.397880395959824 16.639579603576969 1 rotate no_reflect no_shear #
lump $-1 $-1 $34 $7 #
transform $-1 1 0 0 0 1 0 0 0 1 75.274513992736587 49.397880395959824 16.639579603576969 1 rotate no_reflect no_shear #
lump $-1 $-1 $35 $8 #
transform $-1 1 0 0 0 1 0 0 0 1 75.274513992736587 49.397880395959824 16.639579603576969 1 rotate no_reflect no_shear #
shell $-1 $-1 $-1 $36 $-1 $9 #
shell $-1 $-1 $-1 $37 $-1 $11 #
shell $-1 $-1 $-1 $38 $-1 $13 #
shell $-1 $-1 $-1 $39 $-1 $15 #
shell $-1 $-1 $-1 $40 $-1 $17 #
shell $-1 $-1 $-1 $41 $-1 $19 #
shell $-1 $-1 $-1 $42 $-1 $21 #
shell $-1 $-1 $-1 $43 $-1 $23 #
shell $-1 $-1 $-1 $44 $-1 $25 #
face $-1 $45 $46 $27 $-1 $47 forward single #
face $-1 $48 $49 $28 $-1 $50 reversed single #
face $-1 $51 $52 $29 $-1 $53 reversed single #
face $-1 $54 $55 $30 $-1 $56 reversed single #
face $-1 $57 $58 $31 $-1 $59 forward single #
face $-1 $60 $61 $32 $-1 $62 forward single #
face $-1 $63 $64 $33 $-1 $65 reversed single #
face $-1 $66 $67 $34 $-1 $68 forward single #
face $-1 $69 $70 $35 $-1 $71 forward single #
face $-1 $72 $73 $27 $-1 $74 reversed single #
loop $-1 $-1 $75 $36 #
plane-surface $-1 0 0 16.639579603576969 0 0 1 1 0 0 forward_v I I I I #
face $-1 $76 $77 $28 $-1 $78 reversed single #
loop $-1 $-1 $79 $37 #
plane-surface $-1 0 -42.896820461373672 11.360028429940435 0 0 1 1 0 0 forward_v I I I I #
face $-1 $80 $81 $29 $-1 $82 reversed single #
loop $-1 $-1 $83 $38 #
plane-surface $-1 -66.227247485558195 37.644559274855155 0 0 1 0 0 0 1 forward_v I I I I #
face $-1 $84 $85 $30 $-1 $86 reversed single #
loop $-1 $-1 $87 $39 #
plane-surface $-1 -187.15424636751857 -32.327590653792775 107.20188945724337 0 1 0 -0.74314483375859142 0 0.66913059716165679 forward_v I I I I #
face $-1 $88 $89 $31 $-1 $90 forward single #
loop $-1 $91 $92 $40 #
cone-surface $-1 -67.103078064814824 -26.225701709731233 8.319094504773533 0.74314483375859142 0 -0.66913059716165679 1.6728264929041421 0 1.8578620843964786 1 I I 0 1 2.5 forward I I I I #
face $-1 $93 $94 $32 $-1 $95 forward single #
loop $-1 $96 $97 $41 #
cone-surface $-1 -67.103078064814824 -17.072868293638919 8.319094504773533 0.74314483375859142 0 -0.66913059716165679 1.6728264929041421 0 1.8578620843964786 1 I I 0 1 2.5 forward I I I I #
face $-1 $98 $99 $33 $-1 $100 reversed single #
loop $-1 $-1 $101 $42 #
plane-surface $-1 86.417285369491935 -10.970979349577384 219.08162183202535 0 -1 0 -0.74314483375859142 0 -0.66913059716165679 forward_v I I I I #
face $-1 $102 $103 $34 $-1 $104 forward single #
loop $-1 $105 $106 $43 #
cone-surface $-1 67.10307806481481 -26.225701709731233 8.3190945047735472 -0.74314483375859142 0 -0.66913059716165679 1.6728264929041421 0 -1.8578620843964786 1 I I 0 1 2.5 forward I I I I #
face $-1 $107 $108 $35 $-1 $109 forward single #
loop $-1 $110 $111 $44 #
cone-surface $-1 67.10307806481481 -17.072868293638919 8.3190945047735472 -0.74314483375859142 0 -0.66913059716165679 1.6728264929041421 0 -1.8578620843964786 1 I I 0 1 2.5 forward I I I I #
face $-1 $112 $113 $27 $-1 $114 reversed single #
loop $-1 $-1 $115 $45 #
plane-surface $-1 0 0 -16.639579603576969 0 0 1 1 0 0 forward_v I I I I #
coedge $-1 $116 $117 $118 $119 forward $46 $-1 #
face $-1 $120 $121 $28 $-1 $122 reversed single #
loop $-1 $-1 $123 $48 #
plane-surface $-1 0 -36.395760526787519 13.999804016758702 0 -1 0 0 0 -1 forward_v I I I I #
coedge $-1 $124 $125 $126 $127 reversed $49 $-1 #
face $-1 $128 $129 $29 $-1 $130 reversed single #
loop $-1 $-1 $131 $51 #
plane-surface $-1 -68.575029350886652 43.521219835407486 0 1 0 0 0 0 -1 forward_v I I I I #
coedge $-1 $132 $133 $134 $135 forward $52 $-1 #
face $-1 $136 $137 $30 $-1 $138 reversed single #
loop $-1 $-1 $139 $54 #
plane-surface $-1 -75.274513992736573 -21.64928500168508 6.464928459216722 -0.74314483375859142 0 0.66913059716165679 0.66913059716165679 0 0.74314483375859142 forward_v I I I I #
coedge $-1 $140 $141 $142 $143 reversed $55 $-1 #
face $-1 $-1 $144 $31 $-1 $145 forward single #
loop $-1 $146 $147 $57 #
cone-surface $-1 -62.583359500540368 -26.225701709731233 4.2495217316981595 0.74314483375859142 0 -0.66913059716165679 0.83641324645207105 0 0.9289310421982393 1 I I -0.70710678118654746 0.70710678118654746 1.25 forward I I I I #
loop $-1 $-1 $148 $40 #
coedge $-1 $92 $92 $149 $150 reversed $58 $-1 #
face $-1 $-1 $151 $32 $-1 $152 forward single #
loop $-1 $153 $154 $60 #
cone-surface $-1 -62.583359500540368 -17.072868293638919 4.2495217316981595 0.74314483375859142 0 -0.66913059716165679 0.83641324645207105 0 0.9289310421982393 1 I I -0.70710678118654746 0.70710678118654746 1.25 forward I I I I #
loop $-1 $-1 $155 $41 #
coedge $-1 $97 $97 $156 $157 reversed $61 $-1 #
face $-1 $158 $159 $33 $-1 $160 reversed single #
loop $-1 $-1 $161 $63 #
plane-surface $-1 -25.462447005290059 -21.64928500168508 118.3446608339987 0.74314483375859142 0 0.66913059716165679 0.66913059716165679 0 -0.74314483375859142 forward_v I I I I #
coedge $-1 $162 $163 $164 $165 reversed $64 $-1 #
face $-1 $-1 $166 $34 $-1 $167 forward single #
loop $-1 $168 $169 $66 #
cone-surface $-1 62.583359500540354 -26.225701709731233 4.2495217316981737 -0.74314483375859142 0 -0.66913059716165679 0.83641324645207105 0 -0.9289310421982393 1 I I -0.70710678118654746 0.70710678118654746 1.25 forward I I I I #
loop $-1 $-1 $170 $43 #
coedge $-1 $106 $106 $171 $172 reversed $67 $-1 #
face $-1 $-1 $173 $35 $-1 $174 forward single #
loop $-1 $175 $176 $69 #
cone-surface $-1 62.583359500540354 -17.072868293638919 4.2495217316981737 -0.74314483375859142 0 -0.66913059716165679 0.83641324645207105 0 -0.9289310421982393 1 I I -0.70710678118654746 0.70710678118654746 1.25 forward I I I I #
loop $-1 $-1 $177 $44 #
coedge $-1 $111 $111 $178 $179 reversed $70 $-1 #
face $-1 $180 $181 $27 $-1 $182 reversed single #
loop $-1 $-1 $183 $72 #
plane-surface $-1 0 -49.397880395959824 0 0 1 0 0 0 1 forward_v I I I I #
coedge $-1 $184 $185 $186 $187 forward $73 $-1 #
coedge $-1 $188 $75 $189 $190 forward $46 $-1 #
coedge $-1 $75 $188 $191 $192 forward $46 $-1 #
coedge $-1 $193 $194 $75 $119 reversed $195 $-1 #
edge $-1 $196 -49.397880395959824 $197 49.397880395959824 $118 $198 forward 7 unknown #
face $-1 $199 $200 $28 $-1 $201 reversed single #
loop $-1 $-1 $202 $76 #
plane-surface $-1 -75.274513992736587 0 0 1 0 0 0 0 -1 forward_v I I I I #
coedge $-1 $203 $204 $205 $206 reversed $77 $-1 #
coedge $-1 $207 $79 $208 $209 reversed $49 $-1 #
coedge $-1 $79 $207 $203 $210 forward $49 $-1 #
coedge $-1 $205 $211 $79 $127 forward $212 $-1 #
edge $-1 $213 -27.949470165272988 $214 -14.947350296100684 $126 $215 forward 7 unknown #
face $-1 $216 $217 $29 $-1 $218 forward single #
loop $-1 $-1 $219 $80 #
plane-surface $-1 -63.879465620229745 43.521219835407486 0 -1 0 0 0 0 1 forward_v I I I I #
coedge $-1 $220 $221 $222 $223 reversed $81 $-1 #
coedge $-1 $224 $83 $225 $226 reversed $52 $-1 #
coedge $-1 $83 $224 $227 $228 reversed $52 $-1 #
coedge $-1 $221 $220 $83 $135 reversed $81 $-1 #
edge $-1 $229 -16.639579603576969 $230 16.639579603576969 $134 $231 forward 7 unknown #
face $-1 $232 $233 $30 $-1 $234 reversed single #
loop $-1 $-1 $235 $84 #
plane-surface $-1 -187.15424636751857 -10.970979349577384 107.20188945724337 0 -1 0 0.74314483375859142 0 -0.66913059716165679 forward_v I I I I #
coedge $-1 $236 $237 $238 $239 reversed $85 $-1 #
coedge $-1 $141 $87 $240 $241 reversed $55 $-1 #
coedge $-1 $87 $140 $236 $242 reversed $55 $-1 #
coedge $-1 $238 $243 $87 $143 forward $244 $-1 #
edge $-1 $245 18.302609191022697 $246 27.463906002713827 $142 $247 forward 7 unknown #
loop $-1 $-1 $149 $88 #
plane-surface $-1 -75.274513992736573 -21.64928500168508 6.464928459216722 -0.74314483375859142 0 0.66913059716165679 0.66913059716165679 0 0.74314483375859142 forward_v I I I I #
loop $-1 $-1 $248 $57 #
coedge $-1 $147 $147 $148 $249 reversed $89 $-1 #
coedge $-1 $148 $148 $147 $249 forward $91 $-1 #
coedge $-1 $149 $149 $92 $150 forward $144 $-1 #
edge $-1 $250 0 $250 6.2831853071796004 $149 $251 forward 7 unknown #
loop $-1 $-1 $156 $93 #
plane-surface $-1 -75.274513992736573 -21.64928500168508 6.464928459216722 -0.74314483375859142 0 0.66913059716165679 0.66913059716165679 0 0.74314483375859142 forward_v I I I I #
loop $-1 $-1 $252 $60 #
coedge $-1 $154 $154 $155 $253 reversed $94 $-1 #
coedge $-1 $155 $155 $154 $253 forward $96 $-1 #
coedge $-1 $156 $156 $97 $157 forward $151 $-1 #
edge $-1 $254 0 $254 6.2831853071796004 $156 $255 forward 7 unknown #
face $-1 $256 $257 $33 $-1 $258 reversed single #
loop $-1 $-1 $259 $98 #
plane-surface $-1 86.417285369491935 -32.327590653792775 219.08162183202535 0 1 0 0.74314483375859142 0 0.66913059716165679 forward_v I I I I #
coedge $-1 $260 $261 $262 $263 reversed $99 $-1 #
coedge $-1 $163 $101 $264 $265 reversed $64 $-1 #
coedge $-1 $101 $162 $260 $266 reversed $64 $-1 #
coedge $-1 $262 $267 $101 $165 forward $268 $-1 #
edge $-1 $269 -32.065871307990619 $270 -22.904574496299503 $164 $271 forward 7 unknown #
loop $-1 $-1 $171 $102 #
plane-surface $-1 -25.462447005290059 -21.64928500168508 118.3446608339987 0.74314483375859142 0 0.66913059716165679 0.66913059716165679 0 -0.74314483375859142 forward_v I I I I #
loop $-1 $-1 $272 $66 #
coedge $-1 $169 $169 $170 $273 reversed $103 $-1 #
coedge $-1 $170 $170 $169 $273 forward $105 $-1 #
coedge $-1 $171 $171 $106 $172 forward $166 $-1 #
edge $-1 $274 0 $274 6.2831853071796004 $171 $275 forward 7 unknown #
loop $-1 $-1 $178 $107 #
plane-surface $-1 -25.462447005290059 -21.64928500168508 118.3446608339987 0.74314483375859142 0 0.66913059716165679 0.66913059716165679 0 -0.74314483375859142 forward_v I I I I #
loop $-1 $-1 $276 $69 #
coedge $-1 $176 $176 $177 $277 reversed $108 $-1 #
coedge $-1 $177 $177 $176 $277 forward $110 $-1 #
coedge $-1 $178 $178 $111 $179 forward $173 $-1 #
edge $-1 $278 0 $278 6.2831853071796004 $178 $279 forward 7 unknown #
face $-1 $280 $281 $27 $-1 $282 reversed single #
loop $-1 $-1 $283 $112 #
plane-surface $-1 -75.274513992736587 0 0 1 0 0 0 0 -1 forward_v I I I I #
coedge $-1 $284 $191 $285 $286 forward $113 $-1 #
coedge $-1 $287 $115 $284 $288 forward $73 $-1 #
coedge $-1 $115 $287 $289 $290 forward $73 $-1 #
coedge $-1 $194 $193 $115 $187 reversed $195 $-1 #
edge $-1 $291 -49.397880395959824 $292 49.397880395959824 $186 $293 forward 7 unknown #
coedge $-1 $117 $116 $294 $295 forward $46 $-1 #
coedge $-1 $296 $297 $116 $190 reversed $281 $-1 #
edge $-1 $197 -75.274513992736587 $298 75.274513992736587 $189 $299 forward 7 unknown #
coedge $-1 $183 $300 $117 $192 reversed $113 $-1 #
edge $-1 $301 -75.274513992736587 $196 75.274513992736587 $191 $302 forward 7 unknown #
coedge $-1 $186 $118 $300 $303 forward $195 $-1 #
coedge $-1 $118 $186 $296 $304 reversed $195 $-1 #
loop $-1 $-1 $193 $280 #
vertex $-1 $119 $305 #
vertex $-1 $119 $306 #
straight-curve $-1 75.274513992736587 0 16.639579603576969 0 1 0 I I #
face $-1 $307 $308 $28 $-1 $309 forward single #
loop $-1 $-1 $208 $120 #
plane-surface $-1 0 -49.397880395959824 0 0 1 0 0 0 1 forward_v I I I I #
coedge $-1 $310 $311 $312 $313 forward $121 $-1 #
coedge $-1 $312 $123 $125 $210 reversed $77 $-1 #
coedge $-1 $123 $312 $314 $315 reversed $77 $-1 #
coedge $-1 $316 $126 $123 $206 forward $212 $-1 #
edge $-1 $214 4.360126421561084 $317 9.6396775951976181 $205 $318 forward 7 unknown #
coedge $-1 $125 $124 $310 $319 reversed $49 $-1 #
coedge $-1 $320 $321 $124 $209 forward $200 $-1 #
edge $-1 $322 -75.274513992736587 $213 75.274513992736587 $208 $323 forward 7 unknown #
edge $-1 $324 -75.274513992736587 $214 75.274513992736587 $203 $325 forward 7 unknown #
coedge $-1 $126 $316 $320 $326 forward $212 $-1 #
loop $-1 $-1 $205 $307 #
vertex $-1 $209 $327 #
vertex $-1 $127 $328 #
straight-curve $-1 75.274513992736587 -21.448410230686836 11.360028429940435 0 1 0 I I #
face $-1 $329 $330 $29 $-1 $331 reversed single #
loop $-1 $-1 $332 $128 #
plane-surface $-1 0 0 16.639579603576969 0 0 1 1 0 0 forward_v I I I I #
coedge $-1 $333 $334 $224 $335 forward $129 $-1 #
coedge $-1 $134 $131 $336 $337 reversed $81 $-1 #
coedge $-1 $131 $134 $332 $338 reversed $81 $-1 #
coedge $-1 $339 $340 $131 $223 forward $341 $-1 #
edge $-1 $342 -16.639579603576969 $343 16.639579603576969 $222 $344 forward 7 unknown #
coedge $-1 $133 $132 $219 $335 reversed $52 $-1 #
coedge $-1 $336 $345 $132 $226 forward $330 $-1 #
edge $-1 $346 30.765841877450647 $230 35.461405608107555 $225 $347 forward 7 unknown #
coedge $-1 $348 $332 $133 $228 forward $217 $-1 #
edge $-1 $229 -35.461405608107555 $349 -30.765841877450647 $227 $350 forward 7 unknown #
vertex $-1 $228 $351 #
vertex $-1 $226 $352 #
straight-curve $-1 -68.575029350886652 37.644559274855155 0 0 0 -1 I I #
face $-1 $-1 $244 $30 $-1 $353 forward single #
loop $-1 $-1 $354 $136 #
plane-surface $-1 -75.274513992736587 0 0 1 0 0 0 0 -1 forward_v I I I I #
coedge $-1 $355 $356 $357 $358 reversed $137 $-1 #
coedge $-1 $359 $139 $141 $242 forward $85 $-1 #
coedge $-1 $139 $359 $355 $360 forward $85 $-1 #
coedge $-1 $357 $142 $139 $239 forward $244 $-1 #
edge $-1 $246 -21.502948152950236 $361 -0.14633684873484398 $238 $362 forward 7 unknown #
coedge $-1 $363 $364 $140 $241 forward $233 $-1 #
edge $-1 $365 -47.136016269404976 $245 -36.961365125044715 $240 $366 forward 7 unknown #
edge $-1 $246 -13.691343439609316 $365 2.1389731374768986e-014 $141 $367 forward 7 unknown #
coedge $-1 $142 $357 $363 $368 forward $244 $-1 #
loop $-1 $-1 $357 $232 #
vertex $-1 $241 $369 #
vertex $-1 $143 $370 #
straight-curve $-1 -93.577123183759284 -32.327590653792775 16.639579603576969 1 0 0 I I #
coedge $-1 $248 $248 $-1 $371 reversed $146 $-1 #
edge $-1 $372 0 $372 6.2831853071796004 $147 $373 forward 7 unknown #
vertex $-1 $150 $374 #
ellipse-curve $-1 -70.693865586891022 -26.225701709731233 11.552254031396831 -0.74314483375859142 0 0.66913059716165679 1.6728264929041421 0 1.8578620843964786 1 I I #
coedge $-1 $252 $252 $-1 $375 reversed $153 $-1 #
edge $-1 $376 0 $376 6.2831853071796004 $154 $377 forward 7 unknown #
vertex $-1 $157 $378 #
ellipse-curve $-1 -70.693865586891022 -17.072868293638919 11.552254031396831 -0.74314483375859142 0 0.66913059716165679 1.6728264929041421 0 1.8578620843964786 1 I I #
face $-1 $-1 $268 $33 $-1 $379 forward single #
loop $-1 $-1 $380 $158 #
plane-surface $-1 75.274513992736587 0 0 -1 0 0 0 0 1 forward_v I I I I #
coedge $-1 $381 $382 $383 $384 reversed $159 $-1 #
coedge $-1 $385 $161 $163 $266 forward $99 $-1 #
coedge $-1 $161 $385 $381 $386 forward $99 $-1 #
coedge $-1 $383 $164 $161 $263 forward $268 $-1 #
edge $-1 $270 0.14633684873484398 $387 21.502948152950236 $262 $388 forward 7 unknown #
coedge $-1 $389 $390 $162 $265 forward $257 $-1 #
edge $-1 $391 -103.07588245679597 $269 -92.901231312435698 $264 $392 forward 7 unknown #
edge $-1 $270 136.85768454586383 $391 150.54902798547317 $163 $393 forward 7 unknown #
coedge $-1 $164 $383 $389 $394 forward $268 $-1 #
loop $-1 $-1 $383 $256 #
vertex $-1 $265 $395 #
vertex $-1 $165 $396 #
straight-curve $-1 43.208642684745968 -10.970979349577384 16.639579603576976 -1 0 0 I I #
coedge $-1 $272 $272 $-1 $397 reversed $168 $-1 #
edge $-1 $398 0 $398 6.2831853071796004 $169 $399 forward 7 unknown #
vertex $-1 $172 $400 #
ellipse-curve $-1 70.693865586891022 -26.225701709731233 11.552254031396849 0.74314483375859142 0 0.66913059716165679 1.6728264929041421 0 -1.8578620843964786 1 I I #
coedge $-1 $276 $276 $-1 $401 reversed $175 $-1 #
edge $-1 $402 0 $402 6.2831853071796004 $176 $403 forward 7 unknown #
vertex $-1 $179 $404 #
ellipse-curve $-1 70.693865586891022 -17.072868293638919 11.552254031396849 0.74314483375859142 0 0.66913059716165679 1.6728264929041421 0 -1.8578620843964786 1 I I #
face $-1 $-1 $195 $27 $-1 $405 reversed single #
loop $-1 $-1 $296 $180 #
plane-surface $-1 0 49.397880395959824 0 0 -1 0 0 0 -1 forward_v I I I I #
coedge $-1 $406 $294 $297 $407 forward $181 $-1 #
coedge $-1 $300 $183 $184 $288 reversed $113 $-1 #
coedge $-1 $294 $406 $183 $286 reversed $181 $-1 #
edge $-1 $301 -16.639579603576969 $408 16.639579603576969 $285 $409 forward 7 unknown #
coedge $-1 $185 $184 $406 $410 forward $73 $-1 #
edge $-1 $292 -75.274513992736587 $408 75.274513992736587 $284 $411 forward 7 unknown #
coedge $-1 $297 $296 $185 $290 reversed $281 $-1 #
edge $-1 $412 -75.274513992736587 $291 75.274513992736587 $289 $413 forward 7 unknown #
vertex $-1 $187 $414 #
vertex $-1 $303 $415 #
straight-curve $-1 75.274513992736587 0 -16.639579603576969 0 -1 0 I I #
coedge $-1 $283 $285 $188 $295 reversed $181 $-1 #
edge $-1 $298 -49.397880395959824 $301 49.397880395959824 $294 $416 forward 7 unknown #
coedge $-1 $289 $189 $194 $304 forward $281 $-1 #
coedge $-1 $189 $289 $283 $407 reversed $281 $-1 #
vertex $-1 $190 $417 #
straight-curve $-1 0 49.397880395959824 16.639579603576969 -1 0 0 I I #
coedge $-1 $191 $284 $193 $303 reversed $113 $-1 #
vertex $-1 $295 $418 #
straight-curve $-1 0 -49.397880395959824 16.639579603576969 1 0 0 I I #
edge $-1 $196 -16.639579603576969 $292 16.639579603576969 $193 $419 forward 7 unknown #
edge $-1 $197 -16.639579603576969 $291 16.639579603576969 $194 $420 forward 7 unknown #
point $-1 75.274513992736587 -49.397880395959824 16.639579603576969 #
point $-1 75.274513992736587 49.397880395959824 16.639579603576969 #
face $-1 $-1 $212 $28 $-1 $421 reversed single #
loop $-1 $-1 $314 $199 #
plane-surface $-1 0 0 16.639579603576969 0 0 1 1 0 0 forward_v I I I I #
coedge $-1 $422 $202 $207 $319 forward $121 $-1 #
coedge $-1 $202 $422 $423 $424 reversed $121 $-1 #
coedge $-1 $204 $203 $202 $313 reversed $77 $-1 #
edge $-1 $425 -9.6396775951976181 $324 -4.360126421561084 $202 $426 forward 7 unknown #
coedge $-1 $423 $427 $204 $315 forward $308 $-1 #
edge $-1 $317 -75.274513992736587 $425 75.274513992736587 $314 $428 forward 7 unknown #
coedge $-1 $211 $205 $427 $429 reversed $212 $-1 #
vertex $-1 $206 $430 #
straight-curve $-1 75.274513992736587 -36.395760526787519 6.9999020083793511 0 0 1 I I #
edge $-1 $324 14.947350296100684 $322 27.949470165272988 $310 $431 forward 7 unknown #
coedge $-1 $432 $208 $211 $326 reversed $200 $-1 #
coedge $-1 $208 $432 $422 $433 forward $200 $-1 #
vertex $-1 $209 $434 #
straight-curve $-1 0 -49.397880395959824 11.360028429940435 1 0 0 I I #
vertex $-1 $319 $435 #
straight-curve $-1 0 -36.395760526787519 11.360028429940435 1 0 0 I I #
edge $-1 $436 -16.639579603576969 $213 -11.360028429940435 $211 $437 forward 7 unknown #
point $-1 75.274513992736587 -49.397880395959824 11.360028429940435 #
point $-1 75.274513992736587 -36.395760526787519 11.360028429940435 #
face $-1 $-1 $341 $29 $-1 $438 reversed single #
loop $-1 $-1 $336 $216 #
plane-surface $-1 0 0 -16.639579603576969 0 0 1 1 0 0 forward_v I I I I #
coedge $-1 $227 $439 $221 $338 forward $217 $-1 #
coedge $-1 $440 $219 $345 $441 reversed $129 $-1 #
coedge $-1 $219 $440 $348 $442 reversed $129 $-1 #
edge $-1 $349 -16.639579603576969 $346 16.639579603576969 $219 $443 forward 7 unknown #
coedge $-1 $444 $225 $220 $337 forward $330 $-1 #
edge $-1 $230 15.883949357151412 $342 27.637270478256074 $336 $445 forward 7 unknown #
edge $-1 $343 -27.637270478256074 $229 -15.883949357151412 $332 $446 forward 7 unknown #
coedge $-1 $447 $222 $439 $448 reversed $341 $-1 #
coedge $-1 $222 $447 $444 $449 reversed $341 $-1 #
loop $-1 $-1 $222 $329 #
vertex $-1 $449 $450 #
vertex $-1 $223 $451 #
straight-curve $-1 -68.575029350886652 49.397880395959824 0 0 0 1 I I #
coedge $-1 $225 $444 $333 $441 forward $330 $-1 #
vertex $-1 $226 $452 #
straight-curve $-1 -33.113623742779097 37.644559274855155 -16.639579603576969 -1 0 0 I I #
coedge $-1 $439 $227 $334 $442 forward $217 $-1 #
vertex $-1 $228 $453 #
straight-curve $-1 -33.113623742779097 37.644559274855155 16.639579603576969 1 0 0 I I #
point $-1 -68.575029350886652 37.644559274855155 16.639579603576969 #
point $-1 -68.575029350886652 37.644559274855155 -16.639579603576969 #
plane-surface $-1 0 0 16.639579603576969 0 0 1 1 0 0 forward_v I I I I #
coedge $-1 $364 $363 $356 $454 forward $233 $-1 #
coedge $-1 $356 $235 $237 $360 reversed $137 $-1 #
coedge $-1 $235 $355 $354 $454 reversed $137 $-1 #
coedge $-1 $243 $238 $235 $358 forward $244 $-1 #
edge $-1 $361 -27.463906002713827 $455 -18.302609191022697 $357 $456 forward 7 unknown #
coedge $-1 $237 $236 $364 $457 reversed $85 $-1 #
edge $-1 $458 -2.1389731374768986e-014 $361 13.691343439609316 $355 $459 forward 7 unknown #
vertex $-1 $239 $460 #
straight-curve $-1 -66.113217181045457 -10.82464250084254 16.639579603576969 0 1 0 I I #
coedge $-1 $354 $240 $243 $368 reversed $233 $-1 #
coedge $-1 $240 $354 $359 $457 forward $233 $-1 #
vertex $-1 $241 $461 #
straight-curve $-1 -75.274513992736587 -32.327590653792775 53.600944728621684 0 0 1 I I #
straight-curve $-1 -75.274513992736573 -32.327590653792775 6.464928459216722 -0.66913059716165679 0 -0.74314483375859142 I I #
edge $-1 $455 10.970979349577384 $245 32.327590653792775 $363 $462 forward 7 unknown #
point $-1 -75.274513992736587 -32.327590653792775 16.639579603576969 #
point $-1 -66.113217181045457 -32.327590653792775 16.639579603576969 #
edge $-1 $463 1 $463 0 $248 $-1 forward 7 unknown #
vertex $-1 $249 $464 #
ellipse-curve $-1 -63.512290542738604 -26.225701709731233 5.085934978150231 -0.74314483375859142 0 0.66913059716165679 1.6728264929041421 0 1.8578620843964786 1 I I #
point $-1 -69.021039093986886 -26.225701709731233 13.410116115793315 #
edge $-1 $465 1 $465 0 $252 $-1 forward 7 unknown #
vertex $-1 $253 $466 #
ellipse-curve $-1 -63.512290542738604 -17.072868293638919 5.085934978150231 -0.74314483375859142 0 0.66913059716165679 1.6728264929041421 0 1.8578620843964786 1 I I #
point $-1 -69.021039093986886 -17.072868293638919 13.410116115793315 #
plane-surface $-1 0 0 16.639579603576969 0 0 1 1 0 0 forward_v I I I I #
coedge $-1 $390 $389 $382 $467 forward $257 $-1 #
coedge $-1 $382 $259 $261 $386 reversed $159 $-1 #
coedge $-1 $259 $381 $380 $467 reversed $159 $-1 #
coedge $-1 $267 $262 $259 $384 forward $268 $-1 #
edge $-1 $387 22.904574496299503 $468 32.065871307990619 $383 $469 forward 7 unknown #
coedge $-1 $261 $260 $390 $470 reversed $99 $-1 #
edge $-1 $471 -150.54902798547317 $387 -136.85768454586383 $381 $472 forward 7 unknown #
vertex $-1 $263 $473 #
straight-curve $-1 66.113217181045471 -10.82464250084254 16.639579603576962 0 -1 0 I I #
coedge $-1 $380 $264 $267 $394 reversed $257 $-1 #
coedge $-1 $264 $380 $385 $470 forward $257 $-1 #
vertex $-1 $265 $474 #
straight-curve $-1 75.274513992736587 -10.970979349577384 109.54081091601267 0 0 1 I I #
straight-curve $-1 -25.462447005290059 -10.970979349577384 118.3446608339987 0.66913059716165679 0 -0.74314483375859142 I I #
edge $-1 $468 -32.327590653792775 $269 -10.970979349577384 $389 $475 forward 7 unknown #
point $-1 75.274513992736587 -10.970979349577384 16.639579603576969 #
point $-1 66.113217181045471 -10.970979349577384 16.639579603576962 #
edge $-1 $476 1 $476 0 $272 $-1 forward 7 unknown #
vertex $-1 $273 $477 #
ellipse-curve $-1 63.51229054273859 -26.225701709731233 5.0859349781502452 0.74314483375859142 0 0.66913059716165679 1.6728264929041421 0 -1.8578620843964786 1 I I #
point $-1 72.366692079795158 -26.225701709731233 9.694391947000371 #
edge $-1 $478 1 $478 0 $276 $-1 forward 7 unknown #
vertex $-1 $277 $479 #
ellipse-curve $-1 63.51229054273859 -17.072868293638919 5.0859349781502452 0.74314483375859142 0 0.66913059716165679 1.6728264929041421 0 -1.8578620843964786 1 I I #
point $-1 72.366692079795158 -17.072868293638919 9.694391947000371 #
plane-surface $-1 75.274513992736587 0 0 -1 0 0 0 0 1 forward_v I I I I #
coedge $-1 $285 $283 $287 $410 reversed $181 $-1 #
edge $-1 $298 -16.639579603576969 $412 16.639579603576969 $297 $480 forward 7 unknown #
vertex $-1 $410 $481 #
straight-curve $-1 -75.274513992736587 -49.397880395959824 0 0 0 -1 I I #
edge $-1 $408 -49.397880395959824 $412 49.397880395959824 $406 $482 forward 7 unknown #
straight-curve $-1 0 -49.397880395959824 -16.639579603576969 -1 0 0 I I #
vertex $-1 $290 $483 #
straight-curve $-1 0 49.397880395959824 -16.639579603576969 1 0 0 I I #
point $-1 75.274513992736587 49.397880395959824 -16.639579603576969 #
point $-1 75.274513992736587 -49.397880395959824 -16.639579603576969 #
straight-curve $-1 -75.274513992736587 0 16.639579603576969 0 -1 0 I I #
point $-1 -75.274513992736587 49.397880395959824 16.639579603576969 #
point $-1 -75.274513992736587 -49.397880395959824 16.639579603576969 #
straight-curve $-1 75.274513992736587 -49.397880395959824 0 0 0 -1 I I #
straight-curve $-1 75.274513992736587 49.397880395959824 0 0 0 -1 I I #
plane-surface $-1 75.274513992736587 0 0 -1 0 0 0 0 1 forward_v I I I I #
coedge $-1 $311 $310 $321 $433 reversed $121 $-1 #
coedge $-1 $484 $314 $311 $424 forward $308 $-1 #
edge $-1 $425 36.395760526787519 $485 49.397880395959824 $311 $486 forward 7 unknown #
vertex $-1 $424 $487 #
straight-curve $-1 -75.274513992736587 -36.395760526787519 6.9999020083793511 0 0 -1 I I #
coedge $-1 $314 $484 $316 $429 forward $308 $-1 #
straight-curve $-1 0 -36.395760526787519 16.639579603576969 -1 0 0 I I #
edge $-1 $436 -49.397880395959824 $317 -36.395760526787519 $316 $488 forward 7 unknown #
point $-1 75.274513992736587 -36.395760526787519 16.639579603576969 #
straight-curve $-1 -75.274513992736587 -21.448410230686836 11.360028429940435 0 -1 0 I I #
coedge $-1 $321 $320 $484 $489 reversed $200 $-1 #
edge $-1 $485 -16.639579603576969 $322 -11.360028429940435 $422 $490 forward 7 unknown #
point $-1 -75.274513992736587 -49.397880395959824 11.360028429940435 #
point $-1 -75.274513992736587 -36.395760526787519 11.360028429940435 #
vertex $-1 $429 $491 #
straight-curve $-1 75.274513992736587 -49.397880395959824 0 0 0 -1 I I #
plane-surface $-1 0 49.397880395959824 0 0 -1 0 0 0 -1 forward_v I I I I #
coedge $-1 $332 $348 $339 $448 forward $217 $-1 #
coedge $-1 $334 $333 $447 $492 reversed $129 $-1 #
edge $-1 $493 -27.637270478256074 $346 -15.883949357151412 $345 $494 forward 7 unknown #
edge $-1 $349 15.883949357151412 $495 27.637270478256074 $348 $496 forward 7 unknown #
straight-curve $-1 -63.879465620229745 37.644559274855155 0 0 0 -1 I I #
coedge $-1 $345 $336 $340 $449 forward $330 $-1 #
straight-curve $-1 -68.575029350886652 21.760609917703743 -16.639579603576969 0 1 0 I I #
straight-curve $-1 -68.575029350886652 21.760609917703743 16.639579603576969 0 -1 0 I I #
coedge $-1 $340 $339 $440 $492 forward $341 $-1 #
edge $-1 $495 63.879465620229745 $343 68.575029350886652 $339 $497 forward 7 unknown #
edge $-1 $342 -68.575029350886652 $493 -63.879465620229745 $340 $498 forward 7 unknown #
point $-1 -68.575029350886652 49.397880395959817 -16.639579603576969 #
point $-1 -68.575029350886652 49.397880395959817 16.639579603576969 #
point $-1 -63.879465620229745 37.644559274855155 -16.639579603576969 #
point $-1 -63.879465620229745 37.644559274855155 16.639579603576969 #
edge $-1 $455 36.961365125044715 $458 47.136016269404976 $354 $499 forward 7 unknown #
vertex $-1 $368 $500 #
straight-curve $-1 -93.577123183759284 -10.970979349577384 16.639579603576969 -1 0 0 I I #
edge $-1 $458 0.14633684873484398 $365 21.502948152950236 $364 $501 forward 7 unknown #
vertex $-1 $457 $502 #
straight-curve $-1 -75.274513992736573 -10.970979349577384 6.464928459216722 0.66913059716165679 0 0.74314483375859142 I I #
point $-1 -66.113217181045457 -10.970979349577384 16.639579603576969 #
point $-1 -75.274513992736587 -32.327590653792775 6.464928459216706 #
straight-curve $-1 -75.274513992736587 0 16.639579603576969 0 -1 0 I I #
vertex $-1 $371 $503 #
point $-1 -61.839464049834469 -26.225701709731233 6.9437970625467091 #
vertex $-1 $375 $504 #
point $-1 -61.839464049834469 -17.072868293638919 6.9437970625467091 #
edge $-1 $468 92.901231312435698 $471 103.07588245679597 $380 $505 forward 7 unknown #
vertex $-1 $394 $506 #
straight-curve $-1 43.208642684745968 -32.327590653792775 16.639579603576976 1 0 0 I I #
edge $-1 $471 -21.502948152950236 $391 -0.14633684873484398 $390 $507 forward 7 unknown #
vertex $-1 $470 $508 #
straight-curve $-1 -25.462447005290059 -32.327590653792775 118.3446608339987 -0.66913059716165679 0 0.74314483375859142 I I #
point $-1 66.113217181045471 -32.327590653792775 16.639579603576962 #
point $-1 75.274513992736587 -10.970979349577384 6.4649284592167078 #
straight-curve $-1 75.274513992736587 0 16.639579603576969 0 1 0 I I #
vertex $-1 $397 $509 #
point $-1 65.185117035642733 -26.225701709731233 3.2280728937537662 #
vertex $-1 $401 $510 #
point $-1 65.185117035642733 -17.072868293638919 3.2280728937537662 #
straight-curve $-1 -75.274513992736587 49.397880395959824 0 0 0 -1 I I #
point $-1 -75.274513992736587 -49.397880395959824 -16.639579603576969 #
straight-curve $-1 -75.274513992736587 0 -16.639579603576969 0 1 0 I I #
point $-1 -75.274513992736587 49.397880395959824 -16.639579603576969 #
coedge $-1 $427 $423 $432 $489 forward $308 $-1 #
vertex $-1 $424 $511 #
straight-curve $-1 -75.274513992736587 0 16.639579603576969 0 -1 0 I I #
point $-1 -75.274513992736587 -36.395760526787519 16.639579603576969 #
straight-curve $-1 75.274513992736587 0 16.639579603576969 0 1 0 I I #
edge $-1 $485 -75.274513992736587 $436 75.274513992736587 $432 $512 forward 7 unknown #
straight-curve $-1 -75.274513992736587 -49.397880395959824 0 0 0 -1 I I #
point $-1 75.274513992736587 -49.397880395959824 16.639579603576969 #
edge $-1 $495 -16.639579603576969 $493 16.639579603576969 $447 $513 forward 7 unknown #
vertex $-1 $492 $514 #
straight-curve $-1 -63.879465620229745 21.760609917703743 -16.639579603576969 0 -1 0 I I #
vertex $-1 $448 $515 #
straight-curve $-1 -63.879465620229745 21.760609917703743 16.639579603576969 0 1 0 I I #
straight-curve $-1 0 49.397880395959824 16.639579603576969 -1 0 0 I I #
straight-curve $-1 0 49.397880395959824 -16.639579603576969 1 0 0 I I #
straight-curve $-1 -75.274513992736587 -10.970979349577384 53.600944728621684 0 0 -1 I I #
point $-1 -75.274513992736587 -10.970979349577384 16.639579603576969 #
straight-curve $-1 -75.274513992736587 -10.82464250084254 6.4649284592167096 0 -1 0 I I #
point $-1 -75.274513992736587 -10.970979349577384 6.464928459216706 #
point $-1 -61.654428458342132 -26.225701709731233 3.4131084852460885 #
point $-1 -61.654428458342132 -17.072868293638919 3.4131084852460885 #
straight-curve $-1 75.274513992736587 -32.327590653792775 109.54081091601267 0 0 -1 I I #
point $-1 75.274513992736587 -32.327590653792775 16.639579603576969 #
straight-curve $-1 75.274513992736587 -10.82464250084254 6.4649284592167149 0 1 0 I I #
point $-1 75.274513992736587 -32.327590653792775 6.4649284592167078 #
point $-1 61.654428458342117 -26.225701709731233 3.4131084852461027 #
point $-1 61.654428458342117 -17.072868293638919 3.4131084852461027 #
point $-1 -75.274513992736587 -49.397880395959824 16.639579603576969 #
straight-curve $-1 0 -49.397880395959824 16.639579603576969 1 0 0 I I #
straight-curve $-1 -63.879465620229745 49.397880395959824 0 0 0 -1 I I #
point $-1 -63.879465620229745 49.397880395959817 -16.639579603576969 #
point $-1 -63.879465620229745 49.397880395959817 16.639579603576969 #
End-of-ACIS-data 