500 0 7 0           
7 Unknown 11 ACIS 5.0 NT 24 Fri Mar 26 16:34:07 1999 
-1 9.9999999999999995e-007 1e-010 
body $-1 $7 $-1 $8 #
body $-1 $9 $-1 $10 #
body $-1 $11 $-1 $12 #
body $-1 $13 $-1 $14 #
body $-1 $15 $-1 $16 #
body $-1 $17 $-1 $18 #
body $-1 $19 $-1 $20 #
lump $-1 $-1 $21 $0 #
transform $-1 1 0 0 0 1 0 0 0 1 74.127018036439097 45.098102275405651 16.324200007870839 1 rotate no_reflect no_shear #
lump $-1 $-1 $22 $1 #
transform $-1 1 0 0 0 1 0 0 0 1 74.127018036439097 45.098102275405651 16.324200007870839 1 rotate no_reflect no_shear #
lump $-1 $-1 $23 $2 #
transform $-1 1 0 0 0 1 0 0 0 1 74.127018036439097 45.098102275405651 16.324200007870839 1 rotate no_reflect no_shear #
lump $-1 $-1 $24 $3 #
transform $-1 1 0 0 0 1 0 0 0 1 74.127018036439097 45.098102275405651 16.324200007870839 1 rotate no_reflect no_shear #
lump $-1 $-1 $25 $4 #
transform $-1 1 0 0 0 1 0 0 0 1 74.127018036439097 45.098102275405651 16.324200007870839 1 rotate no_reflect no_shear #
lump $-1 $-1 $26 $5 #
transform $-1 1 0 0 0 1 0 0 0 1 74.127018036439097 45.098102275405651 16.324200007870839 1 rotate no_reflect no_shear #
lump $-1 $-1 $27 $6 #
transform $-1 1 0 0 0 1 0 0 0 1 74.127018036439097 45.098102275405651 16.324200007870839 1 rotate no_reflect no_shear #
shell $-1 $-1 $-1 $28 $-1 $7 #
shell $-1 $-1 $-1 $29 $-1 $9 #
shell $-1 $-1 $-1 $30 $-1 $11 #
shell $-1 $-1 $-1 $31 $-1 $13 #
shell $-1 $-1 $-1 $32 $-1 $15 #
shell $-1 $-1 $-1 $33 $-1 $17 #
shell $-1 $-1 $-1 $34 $-1 $19 #
face $-1 $35 $36 $21 $-1 $37 forward single #
face $-1 $38 $39 $22 $-1 $40 reversed single #
face $-1 $41 $42 $23 $-1 $43 reversed single #
face $-1 $44 $45 $24 $-1 $46 forward single #
face $-1 $47 $48 $25 $-1 $49 reversed single #
face $-1 $50 $51 $26 $-1 $52 forward single #
face $-1 $53 $54 $27 $-1 $55 forward single #
face $-1 $56 $57 $21 $-1 $58 reversed single #
loop $-1 $-1 $59 $28 #
plane-surface $-1 0 0 16.324200007870839 0 0 1 1 0 0 forward_v I I I I #
face $-1 $60 $61 $22 $-1 $62 reversed single #
loop $-1 $-1 $63 $29 #
plane-surface $-1 -65.0703975062995 -41.5921381915594 0 0 -1 0 0 0 -1 forward_v I I I I #
face $-1 $64 $65 $23 $-1 $66 reversed single #
loop $-1 $-1 $67 $30 #
plane-surface $-1 -23.201838124655236 50.198136797967166 186.74624010769196 1 0 0 0 -0.54463904215088732 -0.83867056331134215 forward_v I I I I #
face $-1 $68 $69 $24 $-1 $70 forward single #
loop $-1 $71 $72 $31 #
cone-surface $-1 -11.511328676740121 42.31894651050321 14.127936148069393 0 -0.54463904215088732 -0.83867056331134215 1 0 0 1 I I 0 1 1 forward I I I I #
face $-1 $73 $74 $25 $-1 $75 reversed single #
loop $-1 $-1 $76 $32 #
plane-surface $-1 -16.941979228153798 -121.45457662774845 128.42406561085403 -1 0 0 0 -0.51503808176128008 0.85716729658548041 forward_v I I I I #
face $-1 $77 $78 $26 $-1 $79 forward single #
loop $-1 $80 $81 $33 #
cone-surface $-1 -42.956350747104302 -30.161461315259182 4.7202543919810802 0 0.51503808176128008 -0.85716729658548041 3 0 0 1 I I 0 1 3 forward I I I I #
face $-1 $82 $83 $27 $-1 $84 forward single #
loop $-1 $85 $86 $34 #
cone-surface $-1 -27.347727835733998 -30.161461315259182 4.7202543919810802 0 0.51503808176128008 -0.85716729658548041 3 0 0 1 I I 0 1 3 forward I I I I #
face $-1 $87 $88 $21 $-1 $89 reversed single #
loop $-1 $-1 $90 $35 #
plane-surface $-1 0 0 -16.324200007870839 0 0 1 1 0 0 forward_v I I I I #
coedge $-1 $91 $92 $93 $94 forward $36 $-1 #
face $-1 $95 $96 $22 $-1 $97 forward single #
loop $-1 $-1 $98 $38 #
plane-surface $-1 -56.013776976159903 -43.345120233482525 0 -1 0 0 0 0 1 forward_v I I I I #
coedge $-1 $99 $100 $101 $102 forward $39 $-1 #
face $-1 $103 $104 $23 $-1 $105 reversed single #
loop $-1 $-1 $106 $41 #
plane-surface $-1 -11.511328676740121 -30.546799403768304 62.40994416127117 0 0.54463904215088732 0.83867056331134215 1 0 0 forward_v I I I I #
coedge $-1 $107 $108 $109 $110 reversed $42 $-1 #
face $-1 $-1 $111 $24 $-1 $112 forward single #
loop $-1 $113 $114 $44 #
cone-surface $-1 -11.511328676740121 41.607011348498546 13.031652156011791 0 -0.54463904215088732 -0.83867056331134215 0.5 0 0 1 I I -0.70710678118654746 0.70710678118654746 0.5 forward I I I I #
loop $-1 $-1 $115 $31 #
coedge $-1 $72 $72 $116 $117 reversed $45 $-1 #
face $-1 $118 $119 $25 $-1 $120 reversed single #
loop $-1 $-1 $121 $47 #
plane-surface $-1 -35.15203929141915 -45.098102275405651 1.34555430237873 0 -0.51503808176128008 0.85716729658548041 1 0 0 forward_v I I I I #
coedge $-1 $122 $123 $124 $125 reversed $48 $-1 #
face $-1 $-1 $126 $26 $-1 $127 forward single #
loop $-1 $128 $129 $50 #
cone-surface $-1 -42.956350747104302 -26.916589367328655 -0.68011931604085873 0 0.51503808176128008 -0.85716729658548041 1.5 0 0 1 I I -0.70710678118654757 0.70710678118654757 1.5 forward I I I I #
loop $-1 $-1 $130 $33 #
coedge $-1 $81 $81 $131 $132 reversed $51 $-1 #
face $-1 $-1 $133 $27 $-1 $134 forward single #
loop $-1 $135 $136 $53 #
cone-surface $-1 -27.347727835733998 -26.916589367328655 -0.68011931604085873 0 0.51503808176128008 -0.85716729658548041 1.5 0 0 1 I I -0.70710678118654757 0.70710678118654757 1.5 forward I I I I #
loop $-1 $-1 $137 $34 #
coedge $-1 $86 $86 $138 $139 reversed $54 $-1 #
face $-1 $140 $141 $21 $-1 $142 reversed single #
loop $-1 $-1 $143 $56 #
plane-surface $-1 0 -45.098102275405651 0 0 1 0 0 0 1 forward_v I I I I #
coedge $-1 $144 $145 $146 $147 forward $57 $-1 #
coedge $-1 $148 $59 $149 $150 forward $36 $-1 #
coedge $-1 $59 $148 $151 $152 forward $36 $-1 #
coedge $-1 $153 $154 $59 $94 reversed $155 $-1 #
edge $-1 $156 -45.098102275405651 $157 45.098102275405651 $93 $158 forward 7 unknown #
face $-1 $159 $160 $22 $-1 $161 reversed single #
loop $-1 $-1 $162 $60 #
plane-surface $-1 0 0 16.324200007870839 0 0 1 1 0 0 forward_v I I I I #
coedge $-1 $163 $164 $165 $166 reversed $61 $-1 #
coedge $-1 $167 $63 $168 $169 reversed $39 $-1 #
coedge $-1 $63 $167 $170 $171 reversed $39 $-1 #
coedge $-1 $164 $163 $63 $102 reversed $61 $-1 #
edge $-1 $172 -16.324200007870839 $173 16.324200007870839 $101 $174 forward 7 unknown #
face $-1 $175 $176 $23 $-1 $177 reversed single #
loop $-1 $-1 $178 $64 #
plane-surface $-1 0.17918077117499465 50.198136797967166 186.74624010769196 -1 0 0 0 0.54463904215088732 0.83867056331134215 forward_v I I I I #
coedge $-1 $179 $180 $181 $182 reversed $65 $-1 #
coedge $-1 $108 $67 $183 $184 reversed $42 $-1 #
coedge $-1 $67 $107 $179 $185 reversed $42 $-1 #
coedge $-1 $181 $186 $67 $110 forward $187 $-1 #
edge $-1 $188 -19.999033876422068 $189 -15.319953628475595 $109 $190 forward 7 unknown #
loop $-1 $-1 $116 $68 #
plane-surface $-1 -11.511328676740121 -30.546799403768304 62.40994416127117 0 0.54463904215088732 0.83867056331134215 1 0 0 forward_v I I I I #
loop $-1 $-1 $191 $44 #
coedge $-1 $114 $114 $115 $192 reversed $69 $-1 #
coedge $-1 $115 $115 $114 $192 forward $71 $-1 #
coedge $-1 $116 $116 $72 $117 forward $111 $-1 #
edge $-1 $193 -1.7806735356659859e-015 $193 6.2831853071795987 $116 $194 forward 7 unknown #
face $-1 $195 $196 $25 $-1 $197 forward single #
loop $-1 $-1 $198 $73 #
plane-surface $-1 -53.362099354684503 -121.45457662774845 128.42406561085403 1 0 0 0 0.51503808176128008 -0.85716729658548041 forward_v I I I I #
coedge $-1 $199 $200 $201 $202 reversed $74 $-1 #
coedge $-1 $123 $76 $203 $204 reversed $48 $-1 #
coedge $-1 $76 $122 $199 $205 reversed $48 $-1 #
coedge $-1 $201 $206 $76 $125 forward $196 $-1 #
edge $-1 $207 15.629186038468575 $208 40.557838308184337 $124 $209 forward 7 unknown #
loop $-1 $-1 $131 $77 #
plane-surface $-1 -35.15203929141915 -45.098102275405651 1.34555430237873 0 -0.51503808176128008 0.85716729658548041 1 0 0 forward_v I I I I #
loop $-1 $-1 $210 $50 #
coedge $-1 $129 $129 $130 $211 reversed $78 $-1 #
coedge $-1 $130 $130 $129 $211 forward $80 $-1 #
coedge $-1 $131 $131 $81 $132 forward $126 $-1 #
edge $-1 $212 -7.057581028093804e-016 $212 6.2831853071795996 $131 $213 forward 7 unknown #
loop $-1 $-1 $138 $82 #
plane-surface $-1 -35.15203929141915 -45.098102275405651 1.34555430237873 0 -0.51503808176128008 0.85716729658548041 1 0 0 forward_v I I I I #
loop $-1 $-1 $214 $53 #
coedge $-1 $136 $136 $137 $215 reversed $83 $-1 #
coedge $-1 $137 $137 $136 $215 forward $85 $-1 #
coedge $-1 $138 $138 $86 $139 forward $133 $-1 #
edge $-1 $216 -7.057581028093804e-016 $216 6.2831853071795996 $138 $217 forward 7 unknown #
face $-1 $218 $219 $21 $-1 $220 reversed single #
loop $-1 $-1 $221 $87 #
plane-surface $-1 -74.127018036439097 0 0 1 0 0 0 0 -1 forward_v I I I I #
coedge $-1 $222 $151 $223 $224 forward $88 $-1 #
coedge $-1 $225 $90 $222 $226 forward $57 $-1 #
coedge $-1 $90 $225 $227 $228 forward $57 $-1 #
coedge $-1 $154 $153 $90 $147 reversed $155 $-1 #
edge $-1 $229 -45.098102275405651 $230 45.098102275405651 $146 $231 forward 7 unknown #
coedge $-1 $92 $91 $232 $233 forward $36 $-1 #
coedge $-1 $234 $235 $91 $150 reversed $219 $-1 #
edge $-1 $157 -74.127018036439097 $236 74.127018036439097 $149 $237 forward 7 unknown #
coedge $-1 $143 $238 $92 $152 reversed $88 $-1 #
edge $-1 $239 -74.127018036439097 $156 74.127018036439097 $151 $240 forward 7 unknown #
coedge $-1 $146 $93 $238 $241 forward $155 $-1 #
coedge $-1 $93 $146 $234 $242 reversed $155 $-1 #
loop $-1 $-1 $153 $218 #
vertex $-1 $94 $243 #
vertex $-1 $94 $244 #
straight-curve $-1 74.127018036439097 0 16.324200007870839 0 1 0 I I #
face $-1 $245 $246 $22 $-1 $247 reversed single #
loop $-1 $-1 $248 $95 #
plane-surface $-1 -74.127018036439097 0 0 1 0 0 0 0 -1 forward_v I I I I #
coedge $-1 $170 $249 $164 $250 forward $96 $-1 #
coedge $-1 $101 $98 $251 $252 reversed $61 $-1 #
coedge $-1 $98 $101 $162 $250 reversed $61 $-1 #
coedge $-1 $253 $254 $98 $166 forward $255 $-1 #
edge $-1 $256 -16.324200007870839 $257 16.324200007870839 $165 $258 forward 7 unknown #
coedge $-1 $100 $99 $248 $259 reversed $39 $-1 #
coedge $-1 $251 $260 $99 $169 forward $246 $-1 #
edge $-1 $261 -41.591819283289347 $173 -23.478578223010153 $168 $262 forward 7 unknown #
coedge $-1 $263 $162 $100 $171 forward $96 $-1 #
edge $-1 $172 23.478578223010153 $264 41.591819283289347 $170 $265 forward 7 unknown #
vertex $-1 $171 $266 #
vertex $-1 $169 $267 #
straight-curve $-1 -56.013776976159903 -41.5921381915594 0 0 0 -1 I I #
face $-1 $-1 $187 $23 $-1 $268 forward single #
loop $-1 $-1 $269 $103 #
plane-surface $-1 0 45.098102275405651 0 0 -1 0 0 0 -1 forward_v I I I I #
coedge $-1 $270 $271 $272 $273 reversed $104 $-1 #
coedge $-1 $274 $106 $108 $185 forward $65 $-1 #
coedge $-1 $106 $274 $270 $275 forward $65 $-1 #
coedge $-1 $272 $109 $106 $182 forward $187 $-1 #
edge $-1 $189 -17.446173786285176 $276 5.934845109545055 $181 $277 forward 7 unknown #
coedge $-1 $278 $279 $107 $184 forward $176 $-1 #
edge $-1 $280 -80.087550344774172 $188 -77.048920045975137 $183 $281 forward 7 unknown #
edge $-1 $189 84.617040988098481 $280 90.196204550811302 $108 $282 forward 7 unknown #
coedge $-1 $109 $272 $278 $283 forward $187 $-1 #
loop $-1 $-1 $272 $175 #
vertex $-1 $184 $284 #
vertex $-1 $110 $285 #
straight-curve $-1 -23.201838124655236 25.099068398983583 16.324200007870843 0 -1 0 I I #
coedge $-1 $191 $191 $-1 $286 reversed $113 $-1 #
edge $-1 $287 0 $287 6.2831853071796004 $114 $288 forward 7 unknown #
vertex $-1 $117 $289 #
ellipse-curve $-1 -11.511328676740121 42.758562151432422 14.80488485847131 0 0.54463904215088732 0.83867056331134215 1 0 0 1 I I #
face $-1 $-1 $290 $25 $-1 $291 reversed single #
loop $-1 $-1 $124 $118 #
plane-surface $-1 0 0 16.324200007870839 0 0 1 1 0 0 forward_v I I I I #
coedge $-1 $292 $293 $294 $295 reversed $119 $-1 #
coedge $-1 $296 $121 $123 $205 forward $74 $-1 #
coedge $-1 $121 $296 $292 $297 forward $74 $-1 #
coedge $-1 $294 $124 $121 $202 forward $196 $-1 #
edge $-1 $208 -0.63404041755577722 $298 35.786079708974924 $201 $299 forward 7 unknown #
coedge $-1 $300 $301 $122 $204 forward $290 $-1 #
edge $-1 $302 -62.866478503048285 $207 -47.887832797556172 $203 $303 forward 7 unknown #
edge $-1 $208 -29.082598425090254 $302 0 $123 $304 forward 7 unknown #
coedge $-1 $124 $294 $300 $305 forward $196 $-1 #
vertex $-1 $125 $306 #
vertex $-1 $125 $307 #
straight-curve $-1 -16.941979228153798 -60.727288313874226 16.324200007870843 0 1 0 I I #
coedge $-1 $210 $210 $-1 $308 reversed $128 $-1 #
edge $-1 $309 0 $309 6.2831853071796004 $129 $310 forward 7 unknown #
vertex $-1 $132 $311 #
ellipse-curve $-1 -42.956350747104302 -32.633776140547774 8.8348771551247793 0 -0.51503808176128008 0.85716729658548041 3 0 0 1 I I #
coedge $-1 $214 $214 $-1 $312 reversed $135 $-1 #
edge $-1 $313 0 $313 6.2831853071796004 $136 $314 forward 7 unknown #
vertex $-1 $139 $315 #
ellipse-curve $-1 -27.347727835733998 -32.633776140547774 8.8348771551247793 0 -0.51503808176128008 0.85716729658548041 3 0 0 1 I I #
face $-1 $-1 $155 $21 $-1 $316 reversed single #
loop $-1 $-1 $234 $140 #
plane-surface $-1 0 45.098102275405651 0 0 -1 0 0 0 -1 forward_v I I I I #
coedge $-1 $317 $232 $235 $318 forward $141 $-1 #
coedge $-1 $238 $143 $144 $226 reversed $88 $-1 #
coedge $-1 $232 $317 $143 $224 reversed $141 $-1 #
edge $-1 $239 -16.324200007870839 $319 16.324200007870839 $223 $320 forward 7 unknown #
coedge $-1 $145 $144 $317 $321 forward $57 $-1 #
edge $-1 $230 -74.127018036439097 $319 74.127018036439097 $222 $322 forward 7 unknown #
coedge $-1 $235 $234 $145 $228 reversed $219 $-1 #
edge $-1 $323 -74.127018036439097 $229 74.127018036439097 $227 $324 forward 7 unknown #
vertex $-1 $147 $325 #
vertex $-1 $241 $326 #
straight-curve $-1 74.127018036439097 0 -16.324200007870839 0 -1 0 I I #
coedge $-1 $221 $223 $148 $233 reversed $141 $-1 #
edge $-1 $236 -45.098102275405651 $239 45.098102275405651 $232 $327 forward 7 unknown #
coedge $-1 $227 $149 $154 $242 forward $219 $-1 #
coedge $-1 $149 $227 $221 $318 reversed $219 $-1 #
vertex $-1 $150 $328 #
straight-curve $-1 0 45.098102275405651 16.324200007870839 -1 0 0 I I #
coedge $-1 $151 $222 $153 $241 reversed $88 $-1 #
vertex $-1 $233 $329 #
straight-curve $-1 0 -45.098102275405651 16.324200007870839 1 0 0 I I #
edge $-1 $156 -16.324200007870839 $230 16.324200007870839 $153 $330 forward 7 unknown #
edge $-1 $157 -16.324200007870839 $229 16.324200007870839 $154 $331 forward 7 unknown #
point $-1 74.127018036439097 -45.098102275405651 16.324200007870839 #
point $-1 74.127018036439097 45.098102275405651 16.324200007870839 #
face $-1 $-1 $255 $22 $-1 $332 reversed single #
loop $-1 $-1 $251 $159 #
plane-surface $-1 0 0 -16.324200007870839 0 0 1 1 0 0 forward_v I I I I #
coedge $-1 $333 $334 $167 $259 forward $160 $-1 #
coedge $-1 $162 $263 $253 $335 forward $96 $-1 #
edge $-1 $257 -23.425542158664388 $172 -19.919578074818137 $162 $336 forward 7 unknown #
coedge $-1 $337 $168 $163 $252 forward $246 $-1 #
edge $-1 $173 19.919578074818137 $256 23.425542158664388 $251 $338 forward 7 unknown #
coedge $-1 $339 $165 $249 $335 reversed $255 $-1 #
coedge $-1 $165 $339 $337 $340 reversed $255 $-1 #
loop $-1 $-1 $165 $245 #
vertex $-1 $340 $341 #
vertex $-1 $166 $342 #
straight-curve $-1 -56.013776976159903 -45.098102275405651 0 0 0 1 I I #
edge $-1 $264 -16.324200007870839 $261 16.324200007870839 $248 $343 forward 7 unknown #
coedge $-1 $168 $337 $333 $344 forward $246 $-1 #
vertex $-1 $169 $345 #
straight-curve $-1 -32.53519875314975 -41.5921381915594 -16.324200007870839 1 0 0 I I #
coedge $-1 $249 $170 $334 $346 forward $96 $-1 #
vertex $-1 $346 $347 #
straight-curve $-1 -32.53519875314975 -41.5921381915594 16.324200007870839 -1 0 0 I I #
point $-1 -56.013776976159903 -41.5921381915594 16.324200007870839 #
point $-1 -56.013776976159903 -41.5921381915594 -16.324200007870839 #
plane-surface $-1 0 0 16.324200007870839 0 0 1 1 0 0 forward_v I I I I #
coedge $-1 $279 $278 $271 $348 forward $176 $-1 #
coedge $-1 $271 $178 $180 $275 reversed $104 $-1 #
coedge $-1 $178 $270 $269 $348 reversed $104 $-1 #
coedge $-1 $186 $181 $178 $273 forward $187 $-1 #
edge $-1 $276 15.319953628475595 $349 19.999033876422068 $272 $350 forward 7 unknown #
coedge $-1 $180 $179 $279 $351 reversed $65 $-1 #
edge $-1 $352 -90.196204550811302 $276 -84.617040988098481 $270 $353 forward 7 unknown #
vertex $-1 $182 $354 #
straight-curve $-1 -5.7556643383700603 40.419022027459178 16.324200007870843 1 0 0 I I #
coedge $-1 $269 $183 $186 $283 reversed $176 $-1 #
coedge $-1 $183 $269 $274 $351 forward $176 $-1 #
vertex $-1 $184 $355 #
straight-curve $-1 -23.201838124655236 45.098102275405651 93.37312005384598 0 0 1 I I #
straight-curve $-1 -23.201838124655236 -30.546799403768304 62.40994416127117 0 0.83867056331134215 -0.54463904215088732 I I #
edge $-1 $349 -0.17918077117499465 $188 23.201838124655236 $278 $356 forward 7 unknown #
point $-1 -23.201838124655236 45.098102275405651 16.324200007870839 #
point $-1 -23.201838124655236 40.419022027459178 16.324200007870843 #
edge $-1 $357 1 $357 0 $191 $-1 forward 7 unknown #
vertex $-1 $192 $358 #
ellipse-curve $-1 -11.511328676740121 41.879330869573991 13.450987437667463 0 0.54463904215088732 0.83867056331134215 1 0 0 1 I I #
point $-1 -10.511328676740121 42.758562151432429 14.804884858471324 #
loop $-1 $-1 $203 $195 #
plane-surface $-1 0 -45.098102275405651 0 0 1 0 0 0 1 forward_v I I I I #
coedge $-1 $293 $198 $200 $297 reversed $119 $-1 #
coedge $-1 $198 $292 $359 $360 reversed $119 $-1 #
coedge $-1 $206 $201 $198 $295 forward $196 $-1 #
edge $-1 $298 -40.557838308184337 $361 -15.629186038468575 $294 $362 forward 7 unknown #
coedge $-1 $200 $199 $301 $363 reversed $74 $-1 #
edge $-1 $364 0 $298 29.082598425090254 $292 $365 forward 7 unknown #
vertex $-1 $202 $366 #
straight-curve $-1 -17.576019645709575 -20.169450005689889 16.324200007870839 -1 0 0 I I #
coedge $-1 $359 $203 $206 $305 reversed $290 $-1 #
coedge $-1 $203 $359 $296 $363 forward $290 $-1 #
vertex $-1 $204 $367 #
straight-curve $-1 -16.941979228153798 -45.098102275405651 64.212032805427015 0 0 1 I I #
straight-curve $-1 -16.941979228153798 -45.098102275405651 1.34555430237873 0 -0.85716729658548041 -0.51503808176128008 I I #
edge $-1 $361 -53.362099354684503 $207 -16.941979228153798 $300 $368 forward 7 unknown #
point $-1 -16.941979228153798 -45.098102275405651 16.324200007870839 #
point $-1 -16.941979228153798 -20.169450005689889 16.324200007870839 #
edge $-1 $369 1 $369 0 $210 $-1 forward 7 unknown #
vertex $-1 $211 $370 #
ellipse-curve $-1 -42.956350747104302 -27.689146489970575 0.60563162883736199 0 -0.51503808176128008 0.85716729658548041 3 0 0 1 I I #
point $-1 -39.956350747104302 -32.633776140547788 8.8348771551247989 #
edge $-1 $371 1 $371 0 $214 $-1 forward 7 unknown #
vertex $-1 $215 $372 #
ellipse-curve $-1 -27.347727835733998 -27.689146489970575 0.60563162883736199 0 -0.51503808176128008 0.85716729658548041 3 0 0 1 I I #
point $-1 -24.347727835733998 -32.633776140547788 8.8348771551247989 #
plane-surface $-1 74.127018036439097 0 0 -1 0 0 0 0 1 forward_v I I I I #
coedge $-1 $223 $221 $225 $321 reversed $141 $-1 #
edge $-1 $236 -16.324200007870839 $323 16.324200007870839 $235 $373 forward 7 unknown #
vertex $-1 $321 $374 #
straight-curve $-1 -74.127018036439097 -45.098102275405651 0 0 0 -1 I I #
edge $-1 $319 -45.098102275405651 $323 45.098102275405651 $317 $375 forward 7 unknown #
straight-curve $-1 0 -45.098102275405651 -16.324200007870839 -1 0 0 I I #
vertex $-1 $228 $376 #
straight-curve $-1 0 45.098102275405651 -16.324200007870839 1 0 0 I I #
point $-1 74.127018036439097 45.098102275405651 -16.324200007870839 #
point $-1 74.127018036439097 -45.098102275405651 -16.324200007870839 #
straight-curve $-1 -74.127018036439097 0 16.324200007870839 0 -1 0 I I #
point $-1 -74.127018036439097 45.098102275405651 16.324200007870839 #
point $-1 -74.127018036439097 -45.098102275405651 16.324200007870839 #
straight-curve $-1 74.127018036439097 -45.098102275405651 0 0 0 -1 I I #
straight-curve $-1 74.127018036439097 45.098102275405651 0 0 0 -1 I I #
plane-surface $-1 0 -45.098102275405651 0 0 1 0 0 0 1 forward_v I I I I #
coedge $-1 $377 $248 $260 $344 reversed $160 $-1 #
coedge $-1 $248 $377 $263 $346 reversed $160 $-1 #
edge $-1 $378 -74.127018036439097 $257 -56.013776976159903 $253 $379 forward 7 unknown #
straight-curve $-1 -56.013776976159903 -21.672560116741263 16.324200007870839 0 1 0 I I #
coedge $-1 $260 $251 $254 $340 forward $246 $-1 #
straight-curve $-1 -56.013776976159903 -21.672560116741263 -16.324200007870839 0 -1 0 I I #
coedge $-1 $254 $253 $377 $380 forward $255 $-1 #
edge $-1 $256 56.013776976159903 $381 74.127018036439097 $254 $382 forward 7 unknown #
point $-1 -56.013776976159903 -45.098102275405651 -16.324200007870839 #
point $-1 -56.013776976159903 -45.098102275405651 16.324200007870839 #
straight-curve $-1 -74.127018036439097 -41.5921381915594 0 0 0 -1 I I #
edge $-1 $381 -45.098102275405651 $261 -41.5921381915594 $333 $383 forward 7 unknown #
point $-1 -74.127018036439097 -41.5921381915594 -16.324200007870839 #
edge $-1 $264 41.5921381915594 $378 45.098102275405651 $334 $384 forward 7 unknown #
point $-1 -74.127018036439097 -41.5921381915594 16.324200007870839 #
edge $-1 $349 77.048920045975137 $352 80.087550344774172 $269 $385 forward 7 unknown #
vertex $-1 $283 $386 #
straight-curve $-1 0.17918077117499465 25.099068398983583 16.324200007870843 0 1 0 I I #
edge $-1 $352 -5.934845109545055 $280 17.446173786285176 $279 $387 forward 7 unknown #
vertex $-1 $351 $388 #
straight-curve $-1 0.17918077117499465 -30.546799403768304 62.40994416127117 0 -0.83867056331134215 0.54463904215088732 I I #
point $-1 0.17918077117499465 40.419022027459178 16.324200007870843 #
point $-1 -23.201838124655236 45.098102275405651 13.285569709071801 #
straight-curve $-1 0 45.098102275405651 16.324200007870839 -1 0 0 I I #
vertex $-1 $286 $389 #
point $-1 -10.511328676740121 41.879330869573991 13.450987437667463 #
coedge $-1 $301 $300 $293 $360 forward $290 $-1 #
edge $-1 $361 47.887832797556172 $364 62.866478503048285 $359 $390 forward 7 unknown #
vertex $-1 $305 $391 #
straight-curve $-1 -53.362099354684503 -60.727288313874226 16.324200007870843 0 -1 0 I I #
edge $-1 $364 -35.786079708974924 $302 0.63404041755577722 $301 $392 forward 7 unknown #
vertex $-1 $363 $393 #
straight-curve $-1 -53.362099354684503 -45.098102275405651 1.34555430237873 0 0.85716729658548041 0.51503808176128008 I I #
point $-1 -53.362099354684503 -20.169450005689889 16.324200007870839 #
point $-1 -16.941979228153798 -45.098102275405651 1.34555430237873 #
straight-curve $-1 0 -45.098102275405651 16.324200007870839 1 0 0 I I #
vertex $-1 $308 $394 #
point $-1 -39.956350747104302 -27.689146489970575 0.60563162883736199 #
vertex $-1 $312 $395 #
point $-1 -24.347727835733998 -27.689146489970575 0.60563162883736199 #
straight-curve $-1 -74.127018036439097 45.098102275405651 0 0 0 -1 I I #
point $-1 -74.127018036439097 -45.098102275405651 -16.324200007870839 #
straight-curve $-1 -74.127018036439097 0 -16.324200007870839 0 1 0 I I #
point $-1 -74.127018036439097 45.098102275405651 -16.324200007870839 #
coedge $-1 $334 $333 $339 $380 reversed $160 $-1 #
vertex $-1 $346 $396 #
straight-curve $-1 0 -45.098102275405651 16.324200007870839 1 0 0 I I #
edge $-1 $378 -16.324200007870839 $381 16.324200007870839 $377 $397 forward 7 unknown #
vertex $-1 $344 $398 #
straight-curve $-1 0 -45.098102275405651 -16.324200007870839 -1 0 0 I I #
straight-curve $-1 -74.127018036439097 0 -16.324200007870839 0 1 0 I I #
straight-curve $-1 -74.127018036439097 0 16.324200007870839 0 -1 0 I I #
straight-curve $-1 0.17918077117499465 45.098102275405651 93.37312005384598 0 0 -1 I I #
point $-1 0.17918077117499465 45.098102275405651 16.324200007870839 #
straight-curve $-1 -5.7556643383700603 45.098102275405651 13.285569709071801 -1 0 0 I I #
point $-1 0.17918077117499465 45.098102275405651 13.285569709071801 #
point $-1 -11.511328676740121 41.3346918274231 12.61231687435612 #
straight-curve $-1 -53.362099354684503 -45.098102275405651 64.212032805427015 0 0 -1 I I #
point $-1 -53.362099354684503 -45.098102275405651 16.324200007870839 #
straight-curve $-1 -17.576019645709575 -45.098102275405651 1.3455543023787278 1 0 0 I I #
point $-1 -53.362099354684503 -45.098102275405651 1.34555430237873 #
point $-1 -42.956350747104302 -26.144032244686734 -1.9658702609190795 #
point $-1 -27.347727835733998 -26.144032244686734 -1.9658702609190795 #
point $-1 -74.127018036439097 -45.098102275405651 16.324200007870839 #
straight-curve $-1 -74.127018036439097 -45.098102275405651 0 0 0 -1 I I #
point $-1 -74.127018036439097 -45.098102275405651 -16.324200007870839 #
End-of-ACIS-data 