500 0 11 0           
7 Unknown 11 ACIS 5.0 NT 24 Fri Mar 26 17:23:40 1999 
-1 9.9999999999999995e-007 1e-010 
body $-1 $11 $-1 $12 #
body $-1 $13 $-1 $14 #
body $-1 $15 $-1 $16 #
body $-1 $17 $-1 $18 #
body $-1 $19 $-1 $20 #
body $-1 $21 $-1 $22 #
body $-1 $23 $-1 $24 #
body $-1 $25 $-1 $26 #
body $-1 $27 $-1 $28 #
body $-1 $29 $-1 $30 #
body $-1 $31 $-1 $32 #
lump $-1 $-1 $33 $0 #
transform $-1 1 0 0 0 1 0 0 0 1 73.532517471846674 44.932997759439203 18.290515174259223 1 rotate no_reflect no_shear #
lump $-1 $-1 $34 $1 #
transform $-1 1 0 0 0 1 0 0 0 1 73.532517471846674 44.932997759439203 18.290515174259223 1 rotate no_reflect no_shear #
lump $-1 $-1 $35 $2 #
transform $-1 1 0 0 0 1 0 0 0 1 73.532517471846674 44.932997759439203 18.290515174259223 1 rotate no_reflect no_shear #
lump $-1 $-1 $36 $3 #
transform $-1 1 0 0 0 1 0 0 0 1 73.532517471846674 44.932997759439203 18.290515174259223 1 rotate no_reflect no_shear #
lump $-1 $-1 $37 $4 #
transform $-1 1 0 0 0 1 0 0 0 1 73.532517471846674 44.932997759439203 18.290515174259223 1 rotate no_reflect no_shear #
lump $-1 $-1 $38 $5 #
transform $-1 1 0 0 0 1 0 0 0 1 73.532517471846674 44.932997759439203 18.290515174259223 1 rotate no_reflect no_shear #
lump $-1 $-1 $39 $6 #
transform $-1 1 0 0 0 1 0 0 0 1 73.532517471846674 44.932997759439203 18.290515174259223 1 rotate no_reflect no_shear #
lump $-1 $-1 $40 $7 #
transform $-1 1 0 0 0 1 0 0 0 1 73.532517471846674 44.932997759439203 18.290515174259223 1 rotate no_reflect no_shear #
lump $-1 $-1 $41 $8 #
transform $-1 1 0 0 0 1 0 0 0 1 73.532517471846674 44.932997759439203 18.290515174259223 1 rotate no_reflect no_shear #
lump $-1 $-1 $42 $9 #
transform $-1 1 0 0 0 1 0 0 0 1 73.532517471846674 44.932997759439203 18.290515174259223 1 rotate no_reflect no_shear #
lump $-1 $-1 $43 $10 #
transform $-1 1 0 0 0 1 0 0 0 1 73.532517471846674 44.932997759439203 18.290515174259223 1 rotate no_reflect no_shear #
shell $-1 $-1 $-1 $44 $-1 $11 #
shell $-1 $-1 $-1 $45 $-1 $13 #
shell $-1 $-1 $-1 $46 $-1 $15 #
shell $-1 $-1 $-1 $47 $-1 $17 #
shell $-1 $-1 $-1 $48 $-1 $19 #
shell $-1 $-1 $-1 $49 $-1 $21 #
shell $-1 $-1 $-1 $50 $-1 $23 #
shell $-1 $-1 $-1 $51 $-1 $25 #
shell $-1 $-1 $-1 $52 $-1 $27 #
shell $-1 $-1 $-1 $53 $-1 $29 #
shell $-1 $-1 $-1 $54 $-1 $31 #
face $-1 $55 $56 $33 $-1 $57 forward single #
face $-1 $58 $59 $34 $-1 $60 reversed single #
face $-1 $61 $62 $35 $-1 $63 reversed single #
face $-1 $64 $65 $36 $-1 $66 forward single #
face $-1 $67 $68 $37 $-1 $69 forward single #
face $-1 $70 $71 $38 $-1 $72 reversed single #
face $-1 $73 $74 $39 $-1 $75 forward single #
face $-1 $76 $77 $40 $-1 $78 forward single #
face $-1 $79 $80 $41 $-1 $81 reversed single #
face $-1 $82 $83 $42 $-1 $84 forward single #
face $-1 $85 $86 $43 $-1 $87 forward single #
face $-1 $88 $89 $33 $-1 $90 reversed single #
loop $-1 $-1 $91 $44 #
plane-surface $-1 0 0 18.290515174259223 0 0 1 1 0 0 forward_v I I I I #
face $-1 $92 $93 $34 $-1 $94 reversed single #
loop $-1 $-1 $95 $45 #
plane-surface $-1 -69.18743860689257 -31.540870885277148 0 0 -1 0 0 0 -1 forward_v I I I I #
face $-1 $96 $97 $35 $-1 $98 reversed single #
loop $-1 $-1 $99 $46 #
plane-surface $-1 -182.8231384167791 2.0389971588435252 102.30965611738081 0 1 0 -0.74314483375859142 0 0.66913059716165679 forward_v I I I I #
face $-1 $100 $101 $36 $-1 $102 forward single #
loop $-1 $103 $104 $47 #
cone-surface $-1 -65.992872256584036 6.3825931370691649 10.140296212137473 0.74314483375859142 0 -0.66913059716165679 0.66913059716165679 0 0.74314483375859142 1 I I 0 1 1 forward I I I I #
face $-1 $105 $106 $37 $-1 $107 forward single #
loop $-1 $108 $109 $48 #
cone-surface $-1 -65.992872256584036 12.897987104407619 10.140296212137473 0.74314483375859142 0 -0.66913059716165679 0.66913059716165679 0 0.74314483375859142 1 I I 0 1 1 forward I I I I #
face $-1 $110 $111 $38 $-1 $112 reversed single #
loop $-1 $-1 $113 $49 #
plane-surface $-1 26.74689136047364 -3.3396717553839075 211.71443960425287 0 -1 0 -0.52991927123019833 0 -0.84804809178421925 forward_v I I I I #
face $-1 $114 $115 $39 $-1 $116 forward single #
loop $-1 $117 $118 $50 #
cone-surface $-1 65.291645512534814 -12.042834040467561 12.304279506450884 -0.52991927123019833 0 -0.84804809178421925 0.84804809178421925 0 -0.52991927123019833 1 I I 0 1 1 forward I I I I #
face $-1 $119 $120 $40 $-1 $121 forward single #
loop $-1 $122 $123 $51 #
cone-surface $-1 65.291645512534814 -6.8209366694173639 12.304279506450884 -0.52991927123019833 0 -0.84804809178421925 0.84804809178421925 0 -0.52991927123019833 1 I I 0 1 1 forward I I I I #
face $-1 $124 $125 $41 $-1 $126 reversed single #
loop $-1 $-1 $127 $52 #
plane-surface $-1 26.74689136047364 28.916225828663055 211.71443960425287 0 -1 0 -0.52991927123019833 0 -0.84804809178421925 forward_v I I I I #
face $-1 $128 $129 $42 $-1 $130 forward single #
loop $-1 $131 $132 $53 #
cone-surface $-1 65.291645512534814 20.213063543579395 12.304279506450884 -0.52991927123019833 0 -0.84804809178421925 0.84804809178421925 0 -0.52991927123019833 1 I I 0 1 1 forward I I I I #
face $-1 $133 $134 $43 $-1 $135 forward single #
loop $-1 $136 $137 $54 #
cone-surface $-1 65.291645512534814 25.434960914629599 12.304279506450884 -0.52991927123019833 0 -0.84804809178421925 0.84804809178421925 0 -0.52991927123019833 1 I I 0 1 1 forward I I I I #
face $-1 $138 $139 $33 $-1 $140 reversed single #
loop $-1 $-1 $141 $55 #
plane-surface $-1 0 0 -18.290515174259223 0 0 1 1 0 0 forward_v I I I I #
coedge $-1 $142 $143 $144 $145 forward $56 $-1 #
face $-1 $146 $147 $34 $-1 $148 forward single #
loop $-1 $-1 $149 $58 #
plane-surface $-1 -64.842359741938466 -38.236934322358174 0 -1 0 0 0 0 1 forward_v I I I I #
coedge $-1 $150 $151 $152 $153 forward $59 $-1 #
face $-1 $154 $155 $35 $-1 $156 reversed single #
loop $-1 $-1 $157 $61 #
plane-surface $-1 -73.532517471846674 9.6402901207383849 3.9039414639073584 -0.74314483375859142 0 0.66913059716165679 0.66913059716165679 0 0.74314483375859142 forward_v I I I I #
coedge $-1 $158 $159 $160 $161 reversed $62 $-1 #
face $-1 $-1 $162 $36 $-1 $163 forward single #
loop $-1 $164 $165 $64 #
cone-surface $-1 -64.558519039437869 6.3825931370691649 8.8487988066108194 0.74314483375859142 0 -0.66913059716165679 0.3345652985808284 0 0.37157241687929571 1 I I -0.70710678118654746 0.70710678118654746 0.5 forward I I I I #
loop $-1 $-1 $166 $47 #
coedge $-1 $104 $104 $167 $168 reversed $65 $-1 #
face $-1 $-1 $169 $37 $-1 $170 forward single #
loop $-1 $171 $172 $67 #
cone-surface $-1 -64.558519039437869 12.897987104407619 8.8487988066108194 0.74314483375859142 0 -0.66913059716165679 0.3345652985808284 0 0.37157241687929571 1 I I -0.70710678118654746 0.70710678118654746 0.5 forward I I I I #
loop $-1 $-1 $173 $48 #
coedge $-1 $109 $109 $174 $175 reversed $68 $-1 #
face $-1 $176 $177 $38 $-1 $178 reversed single #
loop $-1 $-1 $179 $70 #
plane-surface $-1 -51.185704780331989 -9.4318853549424659 86.996217352074211 0.52991927123019833 0 0.84804809178421925 0.84804809178421925 0 -0.52991927123019833 forward_v I I I I #
coedge $-1 $180 $181 $182 $183 reversed $71 $-1 #
face $-1 $-1 $184 $39 $-1 $185 forward single #
loop $-1 $186 $187 $73 #
cone-surface $-1 64.168872284445811 -12.042834040467561 10.50746677424576 -0.52991927123019833 0 -0.84804809178421925 0.42402404589210962 0 -0.26495963561509916 1 I I -0.70710678118654746 0.70710678118654746 0.5 forward I I I I #
loop $-1 $-1 $188 $50 #
coedge $-1 $118 $118 $189 $190 reversed $74 $-1 #
face $-1 $-1 $191 $40 $-1 $192 forward single #
loop $-1 $193 $194 $76 #
cone-surface $-1 64.168872284445811 -6.8209366694173639 10.50746677424576 -0.52991927123019833 0 -0.84804809178421925 0.42402404589210962 0 -0.26495963561509916 1 I I -0.70710678118654746 0.70710678118654746 0.5 forward I I I I #
loop $-1 $-1 $195 $51 #
coedge $-1 $123 $123 $196 $197 reversed $77 $-1 #
face $-1 $198 $199 $41 $-1 $200 reversed single #
loop $-1 $-1 $201 $79 #
plane-surface $-1 -51.185704780331989 22.824012229104497 86.996217352074211 0.52991927123019833 0 0.84804809178421925 0.84804809178421925 0 -0.52991927123019833 forward_v I I I I #
coedge $-1 $202 $203 $204 $205 reversed $80 $-1 #
face $-1 $-1 $206 $42 $-1 $207 forward single #
loop $-1 $208 $209 $82 #
cone-surface $-1 64.168872284445811 20.213063543579395 10.50746677424576 -0.52991927123019833 0 -0.84804809178421925 0.42402404589210962 0 -0.26495963561509916 1 I I -0.70710678118654746 0.70710678118654746 0.5 forward I I I I #
loop $-1 $-1 $210 $53 #
coedge $-1 $132 $132 $211 $212 reversed $83 $-1 #
face $-1 $-1 $213 $43 $-1 $214 forward single #
loop $-1 $215 $216 $85 #
cone-surface $-1 64.168872284445811 25.434960914629599 10.50746677424576 -0.52991927123019833 0 -0.84804809178421925 0.42402404589210962 0 -0.26495963561509916 1 I I -0.70710678118654746 0.70710678118654746 0.5 forward I I I I #
loop $-1 $-1 $217 $54 #
coedge $-1 $137 $137 $218 $219 reversed $86 $-1 #
face $-1 $220 $221 $33 $-1 $222 reversed single #
loop $-1 $-1 $223 $88 #
plane-surface $-1 0 -44.932997759439203 0 0 1 0 0 0 1 forward_v I I I I #
coedge $-1 $224 $225 $226 $227 forward $89 $-1 #
coedge $-1 $228 $91 $229 $230 forward $56 $-1 #
coedge $-1 $91 $228 $231 $232 forward $56 $-1 #
coedge $-1 $233 $234 $91 $145 reversed $235 $-1 #
edge $-1 $236 -44.932997759439203 $237 44.932997759439203 $144 $238 forward 7 unknown #
face $-1 $239 $240 $34 $-1 $241 reversed single #
loop $-1 $-1 $242 $92 #
plane-surface $-1 0 0 18.290515174259223 0 0 1 1 0 0 forward_v I I I I #
coedge $-1 $243 $244 $245 $246 reversed $93 $-1 #
coedge $-1 $247 $95 $248 $249 reversed $59 $-1 #
coedge $-1 $95 $247 $250 $251 reversed $59 $-1 #
coedge $-1 $244 $243 $95 $153 reversed $93 $-1 #
edge $-1 $252 -18.290515174259223 $253 18.290515174259223 $152 $254 forward 7 unknown #
face $-1 $255 $256 $35 $-1 $257 reversed single #
loop $-1 $-1 $258 $96 #
plane-surface $-1 -182.8231384167791 17.241583082633245 102.30965611738081 0 -1 0 0.74314483375859142 0 -0.66913059716165679 forward_v I I I I #
coedge $-1 $259 $260 $261 $262 reversed $97 $-1 #
coedge $-1 $159 $99 $263 $264 reversed $62 $-1 #
coedge $-1 $99 $158 $259 $265 reversed $62 $-1 #
coedge $-1 $261 $266 $99 $161 forward $267 $-1 #
edge $-1 $268 17.879051736542877 $269 30.832780566534417 $160 $270 forward 7 unknown #
loop $-1 $-1 $167 $100 #
plane-surface $-1 -73.532517471846674 9.6402901207383849 3.9039414639073584 -0.74314483375859142 0 0.66913059716165679 0.66913059716165679 0 0.74314483375859142 forward_v I I I I #
loop $-1 $-1 $271 $64 #
coedge $-1 $165 $165 $166 $272 reversed $101 $-1 #
coedge $-1 $166 $166 $165 $272 forward $103 $-1 #
coedge $-1 $167 $167 $104 $168 forward $162 $-1 #
edge $-1 $273 0 $273 6.2831853071796004 $167 $274 forward 7 unknown #
loop $-1 $-1 $174 $105 #
plane-surface $-1 -73.532517471846674 9.6402901207383849 3.9039414639073584 -0.74314483375859142 0 0.66913059716165679 0.66913059716165679 0 0.74314483375859142 forward_v I I I I #
loop $-1 $-1 $275 $67 #
coedge $-1 $172 $172 $173 $276 reversed $106 $-1 #
coedge $-1 $173 $173 $172 $276 forward $108 $-1 #
coedge $-1 $174 $174 $109 $175 forward $169 $-1 #
edge $-1 $277 0 $277 6.2831853071796004 $174 $278 forward 7 unknown #
face $-1 $279 $280 $38 $-1 $281 forward single #
loop $-1 $-1 $282 $110 #
plane-surface $-1 26.74689136047364 -15.524098954501024 211.71443960425287 0 1 0 0.52991927123019833 0 0.84804809178421925 forward_v I I I I #
coedge $-1 $283 $284 $285 $286 reversed $111 $-1 #
coedge $-1 $181 $113 $287 $288 reversed $71 $-1 #
coedge $-1 $113 $180 $283 $289 reversed $71 $-1 #
coedge $-1 $285 $290 $113 $183 forward $280 $-1 #
edge $-1 $291 -60.159071791609854 $292 -45.392955057933996 $182 $293 forward 7 unknown #
loop $-1 $-1 $189 $114 #
plane-surface $-1 -51.185704780331989 -9.4318853549424659 86.996217352074211 0.52991927123019833 0 0.84804809178421925 0.84804809178421925 0 -0.52991927123019833 forward_v I I I I #
loop $-1 $-1 $294 $73 #
coedge $-1 $187 $187 $188 $295 reversed $115 $-1 #
coedge $-1 $188 $188 $187 $295 forward $117 $-1 #
coedge $-1 $189 $189 $118 $190 forward $184 $-1 #
edge $-1 $296 0 $296 6.2831853071796004 $189 $297 forward 7 unknown #
loop $-1 $-1 $196 $119 #
plane-surface $-1 -51.185704780331989 -9.4318853549424659 86.996217352074211 0.52991927123019833 0 0.84804809178421925 0.84804809178421925 0 -0.52991927123019833 forward_v I I I I #
loop $-1 $-1 $298 $76 #
coedge $-1 $194 $194 $195 $299 reversed $120 $-1 #
coedge $-1 $195 $195 $194 $299 forward $122 $-1 #
coedge $-1 $196 $196 $123 $197 forward $191 $-1 #
edge $-1 $300 0 $300 6.2831853071796004 $196 $301 forward 7 unknown #
face $-1 $302 $303 $41 $-1 $304 reversed single #
loop $-1 $-1 $305 $124 #
plane-surface $-1 26.74689136047364 16.731798629545938 211.71443960425287 0 1 0 0.52991927123019833 0 0.84804809178421925 forward_v I I I I #
coedge $-1 $306 $307 $308 $309 reversed $125 $-1 #
coedge $-1 $203 $127 $310 $311 reversed $80 $-1 #
coedge $-1 $127 $202 $306 $312 reversed $80 $-1 #
coedge $-1 $308 $313 $127 $205 forward $314 $-1 #
edge $-1 $315 -60.159071791609854 $316 -45.392955057933996 $204 $317 forward 7 unknown #
loop $-1 $-1 $211 $128 #
plane-surface $-1 -51.185704780331989 22.824012229104497 86.996217352074211 0.52991927123019833 0 0.84804809178421925 0.84804809178421925 0 -0.52991927123019833 forward_v I I I I #
loop $-1 $-1 $318 $82 #
coedge $-1 $209 $209 $210 $319 reversed $129 $-1 #
coedge $-1 $210 $210 $209 $319 forward $131 $-1 #
coedge $-1 $211 $211 $132 $212 forward $206 $-1 #
edge $-1 $320 0 $320 6.2831853071796004 $211 $321 forward 7 unknown #
loop $-1 $-1 $218 $133 #
plane-surface $-1 -51.185704780331989 22.824012229104497 86.996217352074211 0.52991927123019833 0 0.84804809178421925 0.84804809178421925 0 -0.52991927123019833 forward_v I I I I #
loop $-1 $-1 $322 $85 #
coedge $-1 $216 $216 $217 $323 reversed $134 $-1 #
coedge $-1 $217 $217 $216 $323 forward $136 $-1 #
coedge $-1 $218 $218 $137 $219 forward $213 $-1 #
edge $-1 $324 0 $324 6.2831853071796004 $218 $325 forward 7 unknown #
face $-1 $326 $327 $33 $-1 $328 reversed single #
loop $-1 $-1 $329 $138 #
plane-surface $-1 -73.532517471846674 0 0 1 0 0 0 0 -1 forward_v I I I I #
coedge $-1 $330 $231 $331 $332 forward $139 $-1 #
coedge $-1 $333 $141 $330 $334 forward $89 $-1 #
coedge $-1 $141 $333 $335 $336 forward $89 $-1 #
coedge $-1 $234 $233 $141 $227 reversed $235 $-1 #
edge $-1 $337 -44.932997759439203 $338 44.932997759439203 $226 $339 forward 7 unknown #
coedge $-1 $143 $142 $340 $341 forward $56 $-1 #
coedge $-1 $342 $343 $142 $230 reversed $327 $-1 #
edge $-1 $237 -73.532517471846674 $344 73.532517471846674 $229 $345 forward 7 unknown #
coedge $-1 $223 $346 $143 $232 reversed $139 $-1 #
edge $-1 $347 -73.532517471846674 $236 73.532517471846674 $231 $348 forward 7 unknown #
coedge $-1 $226 $144 $346 $349 forward $235 $-1 #
coedge $-1 $144 $226 $342 $350 reversed $235 $-1 #
loop $-1 $-1 $233 $326 #
vertex $-1 $145 $351 #
vertex $-1 $145 $352 #
straight-curve $-1 73.532517471846674 0 18.290515174259223 0 1 0 I I #
face $-1 $353 $354 $34 $-1 $355 reversed single #
loop $-1 $-1 $356 $146 #
plane-surface $-1 -73.532517471846674 0 0 1 0 0 0 0 -1 forward_v I I I I #
coedge $-1 $250 $357 $244 $358 forward $147 $-1 #
coedge $-1 $152 $149 $359 $360 reversed $93 $-1 #
coedge $-1 $149 $152 $242 $358 reversed $93 $-1 #
coedge $-1 $361 $362 $149 $246 forward $363 $-1 #
edge $-1 $364 -18.290515174259223 $365 18.290515174259223 $245 $366 forward 7 unknown #
coedge $-1 $151 $150 $356 $367 reversed $59 $-1 #
coedge $-1 $359 $368 $150 $249 forward $354 $-1 #
edge $-1 $369 -38.938798168400389 $253 -30.248640438492181 $248 $370 forward 7 unknown #
coedge $-1 $371 $242 $151 $251 forward $147 $-1 #
edge $-1 $252 30.248640438492181 $372 38.938798168400389 $250 $373 forward 7 unknown #
vertex $-1 $251 $374 #
vertex $-1 $249 $375 #
straight-curve $-1 -64.842359741938466 -31.540870885277148 0 0 0 -1 I I #
face $-1 $-1 $267 $35 $-1 $376 forward single #
loop $-1 $-1 $377 $154 #
plane-surface $-1 -73.532517471846674 0 0 1 0 0 0 0 -1 forward_v I I I I #
coedge $-1 $378 $379 $380 $381 reversed $155 $-1 #
coedge $-1 $382 $157 $159 $265 forward $97 $-1 #
coedge $-1 $157 $382 $378 $383 forward $97 $-1 #
coedge $-1 $380 $160 $157 $262 forward $267 $-1 #
edge $-1 $269 -2.7811479015256673 $384 12.421438022264052 $261 $385 forward 7 unknown #
coedge $-1 $386 $387 $158 $264 forward $256 $-1 #
edge $-1 $388 -47.250886594783047 $268 -32.864312884431186 $263 $389 forward 7 unknown #
edge $-1 $269 -19.359044235817571 $388 0 $159 $390 forward 7 unknown #
coedge $-1 $160 $380 $386 $391 forward $267 $-1 #
loop $-1 $-1 $380 $255 #
vertex $-1 $264 $392 #
vertex $-1 $161 $393 #
straight-curve $-1 -91.411569208389551 2.0389971588435252 18.290515174259227 1 0 0 I I #
coedge $-1 $271 $271 $-1 $394 reversed $164 $-1 #
edge $-1 $395 0 $395 6.2831853071796004 $165 $396 forward 7 unknown #
vertex $-1 $168 $397 #
ellipse-curve $-1 -67.0556530568509 6.3825931370691649 11.097228319083294 -0.74314483375859142 0 0.66913059716165679 0.66913059716165679 0 0.74314483375859142 1 I I #
coedge $-1 $275 $275 $-1 $398 reversed $171 $-1 #
edge $-1 $399 0 $399 6.2831853071796004 $172 $400 forward 7 unknown #
vertex $-1 $175 $401 #
ellipse-curve $-1 -67.0556530568509 12.897987104407619 11.097228319083294 -0.74314483375859142 0 0.66913059716165679 0.66913059716165679 0 0.74314483375859142 1 I I #
face $-1 $-1 $402 $38 $-1 $403 reversed single #
loop $-1 $-1 $182 $176 #
plane-surface $-1 0 0 18.290515174259223 0 0 1 1 0 0 forward_v I I I I #
coedge $-1 $404 $405 $406 $407 reversed $177 $-1 #
coedge $-1 $408 $179 $181 $289 forward $111 $-1 #
coedge $-1 $179 $408 $404 $409 forward $111 $-1 #
coedge $-1 $406 $182 $179 $286 forward $280 $-1 #
edge $-1 $292 -1.3762709220873255 $410 10.808156277029791 $285 $411 forward 7 unknown #
coedge $-1 $412 $413 $180 $288 forward $402 $-1 #
edge $-1 $414 -96.793598590857854 $291 -87.56670462786721 $287 $415 forward 7 unknown #
edge $-1 $292 129.65314890005021 $414 147.06503494369335 $181 $416 forward 7 unknown #
coedge $-1 $182 $406 $412 $417 forward $280 $-1 #
vertex $-1 $183 $418 #
vertex $-1 $183 $419 #
straight-curve $-1 13.37344568023682 -3.3396717553839075 18.290515174259227 -1 0 0 I I #
coedge $-1 $294 $294 $-1 $420 reversed $186 $-1 #
edge $-1 $421 0 $421 6.2831853071796004 $187 $422 forward 7 unknown #
vertex $-1 $190 $423 #
ellipse-curve $-1 66.149459105008731 -12.042834040467561 13.677068192763921 0.52991927123019833 0 0.84804809178421925 0.84804809178421925 0 -0.52991927123019833 1 I I #
coedge $-1 $298 $298 $-1 $424 reversed $193 $-1 #
edge $-1 $425 0 $425 6.2831853071796004 $194 $426 forward 7 unknown #
vertex $-1 $197 $427 #
ellipse-curve $-1 66.149459105008731 -6.8209366694173639 13.677068192763921 0.52991927123019833 0 0.84804809178421925 0.84804809178421925 0 -0.52991927123019833 1 I I #
face $-1 $-1 $314 $41 $-1 $428 forward single #
loop $-1 $-1 $429 $198 #
plane-surface $-1 73.532517471846674 0 0 -1 0 0 0 0 1 forward_v I I I I #
coedge $-1 $430 $431 $432 $433 reversed $199 $-1 #
coedge $-1 $434 $201 $203 $312 forward $125 $-1 #
coedge $-1 $201 $434 $430 $435 forward $125 $-1 #
coedge $-1 $432 $204 $201 $309 forward $314 $-1 #
edge $-1 $316 -17.504219714110807 $436 -5.31979251499369 $308 $437 forward 7 unknown #
coedge $-1 $438 $439 $202 $311 forward $303 $-1 #
edge $-1 $440 -96.793598590857854 $315 -87.56670462786721 $310 $441 forward 7 unknown #
edge $-1 $316 129.65314890005021 $440 147.06503494369335 $203 $442 forward 7 unknown #
coedge $-1 $204 $432 $438 $443 forward $314 $-1 #
loop $-1 $-1 $432 $302 #
vertex $-1 $311 $444 #
vertex $-1 $205 $445 #
straight-curve $-1 13.37344568023682 28.916225828663055 18.290515174259227 -1 0 0 I I #
coedge $-1 $318 $318 $-1 $446 reversed $208 $-1 #
edge $-1 $447 0 $447 6.2831853071796004 $209 $448 forward 7 unknown #
vertex $-1 $212 $449 #
ellipse-curve $-1 66.149459105008731 20.213063543579395 13.677068192763921 0.52991927123019833 0 0.84804809178421925 0.84804809178421925 0 -0.52991927123019833 1 I I #
coedge $-1 $322 $322 $-1 $450 reversed $215 $-1 #
edge $-1 $451 0 $451 6.2831853071796004 $216 $452 forward 7 unknown #
vertex $-1 $219 $453 #
ellipse-curve $-1 66.149459105008731 25.434960914629599 13.677068192763921 0.52991927123019833 0 0.84804809178421925 0.84804809178421925 0 -0.52991927123019833 1 I I #
face $-1 $-1 $235 $33 $-1 $454 reversed single #
loop $-1 $-1 $342 $220 #
plane-surface $-1 0 44.932997759439203 0 0 -1 0 0 0 -1 forward_v I I I I #
coedge $-1 $455 $340 $343 $456 forward $221 $-1 #
coedge $-1 $346 $223 $224 $334 reversed $139 $-1 #
coedge $-1 $340 $455 $223 $332 reversed $221 $-1 #
edge $-1 $347 -18.290515174259223 $457 18.290515174259223 $331 $458 forward 7 unknown #
coedge $-1 $225 $224 $455 $459 forward $89 $-1 #
edge $-1 $338 -73.532517471846674 $457 73.532517471846674 $330 $460 forward 7 unknown #
coedge $-1 $343 $342 $225 $336 reversed $327 $-1 #
edge $-1 $461 -73.532517471846674 $337 73.532517471846674 $335 $462 forward 7 unknown #
vertex $-1 $227 $463 #
vertex $-1 $349 $464 #
straight-curve $-1 73.532517471846674 0 -18.290515174259223 0 -1 0 I I #
coedge $-1 $329 $331 $228 $341 reversed $221 $-1 #
edge $-1 $344 -44.932997759439203 $347 44.932997759439203 $340 $465 forward 7 unknown #
coedge $-1 $335 $229 $234 $350 forward $327 $-1 #
coedge $-1 $229 $335 $329 $456 reversed $327 $-1 #
vertex $-1 $230 $466 #
straight-curve $-1 0 44.932997759439203 18.290515174259223 -1 0 0 I I #
coedge $-1 $231 $330 $233 $349 reversed $139 $-1 #
vertex $-1 $341 $467 #
straight-curve $-1 0 -44.932997759439203 18.290515174259223 1 0 0 I I #
edge $-1 $236 -18.290515174259223 $338 18.290515174259223 $233 $468 forward 7 unknown #
edge $-1 $237 -18.290515174259223 $337 18.290515174259223 $234 $469 forward 7 unknown #
point $-1 73.532517471846674 -44.932997759439203 18.290515174259223 #
point $-1 73.532517471846674 44.932997759439203 18.290515174259223 #
face $-1 $-1 $363 $34 $-1 $470 reversed single #
loop $-1 $-1 $359 $239 #
plane-surface $-1 0 0 -18.290515174259223 0 0 1 1 0 0 forward_v I I I I #
coedge $-1 $471 $472 $247 $367 forward $240 $-1 #
coedge $-1 $242 $371 $361 $473 forward $147 $-1 #
edge $-1 $365 -25.814530598260117 $252 -12.422403724098061 $242 $474 forward 7 unknown #
coedge $-1 $475 $248 $243 $360 forward $354 $-1 #
edge $-1 $253 12.422403724098061 $364 25.814530598260117 $359 $476 forward 7 unknown #
coedge $-1 $477 $245 $357 $473 reversed $363 $-1 #
coedge $-1 $245 $477 $475 $478 reversed $363 $-1 #
loop $-1 $-1 $245 $353 #
vertex $-1 $478 $479 #
vertex $-1 $246 $480 #
straight-curve $-1 -64.842359741938466 -44.932997759439203 0 0 0 1 I I #
edge $-1 $372 -18.290515174259223 $369 18.290515174259223 $356 $481 forward 7 unknown #
coedge $-1 $248 $475 $471 $482 forward $354 $-1 #
vertex $-1 $249 $483 #
straight-curve $-1 -34.593719303446285 -31.540870885277148 -18.290515174259223 1 0 0 I I #
coedge $-1 $357 $250 $472 $484 forward $147 $-1 #
vertex $-1 $484 $485 #
straight-curve $-1 -34.593719303446285 -31.540870885277148 18.290515174259223 -1 0 0 I I #
point $-1 -64.842359741938466 -31.540870885277148 18.290515174259223 #
point $-1 -64.842359741938466 -31.540870885277148 -18.290515174259223 #
plane-surface $-1 0 0 18.290515174259223 0 0 1 1 0 0 forward_v I I I I #
coedge $-1 $387 $386 $379 $486 forward $256 $-1 #
coedge $-1 $379 $258 $260 $383 reversed $155 $-1 #
coedge $-1 $258 $378 $377 $486 reversed $155 $-1 #
coedge $-1 $266 $261 $258 $381 forward $267 $-1 #
edge $-1 $384 -30.832780566534417 $487 -17.879051736542877 $380 $488 forward 7 unknown #
coedge $-1 $260 $259 $387 $489 reversed $97 $-1 #
edge $-1 $490 0 $384 19.359044235817571 $378 $491 forward 7 unknown #
vertex $-1 $262 $492 #
straight-curve $-1 -60.578788641855127 4.8201450603691924 18.290515174259223 0 1 0 I I #
coedge $-1 $377 $263 $266 $391 reversed $256 $-1 #
coedge $-1 $263 $377 $382 $489 forward $256 $-1 #
vertex $-1 $264 $493 #
straight-curve $-1 -73.532517471846674 2.0389971588435252 51.154828058690406 0 0 1 I I #
straight-curve $-1 -73.532517471846674 2.0389971588435252 3.9039414639073584 -0.66913059716165679 0 -0.74314483375859142 I I #
edge $-1 $487 -17.241583082633245 $268 -2.0389971588435252 $386 $494 forward 7 unknown #
point $-1 -73.532517471846674 2.0389971588435252 18.290515174259223 #
point $-1 -60.578788641855134 2.0389971588435252 18.290515174259227 #
edge $-1 $495 1 $495 0 $271 $-1 forward 7 unknown #
vertex $-1 $272 $496 #
ellipse-curve $-1 -64.930091456317157 6.3825931370691649 9.1833641051916484 -0.74314483375859142 0 0.66913059716165679 0.66913059716165679 0 0.74314483375859142 1 I I #
point $-1 -66.386522459689246 6.3825931370691649 11.840373152841888 #
edge $-1 $497 1 $497 0 $275 $-1 forward 7 unknown #
vertex $-1 $276 $498 #
ellipse-curve $-1 -64.930091456317157 12.897987104407619 9.1833641051916484 -0.74314483375859142 0 0.66913059716165679 0.66913059716165679 0 0.74314483375859142 1 I I #
point $-1 -66.386522459689246 12.897987104407619 11.840373152841888 #
loop $-1 $-1 $287 $279 #
plane-surface $-1 73.532517471846674 0 0 -1 0 0 0 0 1 forward_v I I I I #
coedge $-1 $405 $282 $284 $409 reversed $177 $-1 #
coedge $-1 $282 $404 $499 $500 reversed $177 $-1 #
coedge $-1 $290 $285 $282 $407 forward $280 $-1 #
edge $-1 $410 45.392955057933996 $501 60.159071791609854 $406 $502 forward 7 unknown #
coedge $-1 $284 $283 $413 $503 reversed $111 $-1 #
edge $-1 $504 -147.06503494369335 $410 -129.65314890005021 $404 $505 forward 7 unknown #
vertex $-1 $286 $506 #
straight-curve $-1 58.76640073817083 -4.715942677471233 18.29051517425922 0 -1 0 I I #
coedge $-1 $499 $287 $290 $417 reversed $402 $-1 #
coedge $-1 $287 $499 $408 $503 forward $402 $-1 #
vertex $-1 $288 $507 #
straight-curve $-1 73.532517471846674 -3.3396717553839075 105.85721980212644 0 0 1 I I #
straight-curve $-1 -51.185704780331989 -3.3396717553839075 86.996217352074211 0.84804809178421925 0 -0.52991927123019833 I I #
edge $-1 $501 -15.524098954501024 $291 -3.3396717553839075 $412 $508 forward 7 unknown #
point $-1 73.532517471846674 -3.3396717553839075 18.290515174259223 #
point $-1 58.766400738170816 -3.3396717553839075 18.290515174259227 #
edge $-1 $509 1 $509 0 $294 $-1 forward 7 unknown #
vertex $-1 $295 $510 #
ellipse-curve $-1 64.433831920060911 -12.042834040467561 10.931490820137869 0.52991927123019833 0 0.84804809178421925 0.84804809178421925 0 -0.52991927123019833 1 I I #
point $-1 66.997507196792924 -12.042834040467561 13.147148921533702 #
edge $-1 $511 1 $511 0 $298 $-1 forward 7 unknown #
vertex $-1 $299 $512 #
ellipse-curve $-1 64.433831920060911 -6.8209366694173639 10.931490820137869 0.52991927123019833 0 0.84804809178421925 0.84804809178421925 0 -0.52991927123019833 1 I I #
point $-1 66.997507196792924 -6.8209366694173639 13.147148921533702 #
plane-surface $-1 0 0 18.290515174259223 0 0 1 1 0 0 forward_v I I I I #
coedge $-1 $439 $438 $431 $513 forward $303 $-1 #
coedge $-1 $431 $305 $307 $435 reversed $199 $-1 #
coedge $-1 $305 $430 $429 $513 reversed $199 $-1 #
coedge $-1 $313 $308 $305 $433 forward $314 $-1 #
edge $-1 $436 45.392955057933996 $514 60.159071791609854 $432 $515 forward 7 unknown #
coedge $-1 $307 $306 $439 $516 reversed $125 $-1 #
edge $-1 $517 -147.06503494369335 $436 -129.65314890005021 $430 $518 forward 7 unknown #
vertex $-1 $309 $519 #
straight-curve $-1 58.76640073817083 11.412006114552248 18.29051517425922 0 -1 0 I I #
coedge $-1 $429 $310 $313 $443 reversed $303 $-1 #
coedge $-1 $310 $429 $434 $516 forward $303 $-1 #
vertex $-1 $311 $520 #
straight-curve $-1 73.532517471846674 28.916225828663055 105.85721980212644 0 0 1 I I #
straight-curve $-1 -51.185704780331989 28.916225828663055 86.996217352074211 0.84804809178421925 0 -0.52991927123019833 I I #
edge $-1 $514 16.731798629545938 $315 28.916225828663055 $438 $521 forward 7 unknown #
point $-1 73.532517471846674 28.916225828663055 18.290515174259223 #
point $-1 58.766400738170816 28.916225828663055 18.290515174259227 #
edge $-1 $522 1 $522 0 $318 $-1 forward 7 unknown #
vertex $-1 $319 $523 #
ellipse-curve $-1 64.433831920060911 20.213063543579395 10.931490820137869 0.52991927123019833 0 0.84804809178421925 0.84804809178421925 0 -0.52991927123019833 1 I I #
point $-1 66.997507196792924 20.213063543579395 13.147148921533702 #
edge $-1 $524 1 $524 0 $322 $-1 forward 7 unknown #
vertex $-1 $323 $525 #
ellipse-curve $-1 64.433831920060911 25.434960914629599 10.931490820137869 0.52991927123019833 0 0.84804809178421925 0.84804809178421925 0 -0.52991927123019833 1 I I #
point $-1 66.997507196792924 25.434960914629599 13.147148921533702 #
plane-surface $-1 73.532517471846674 0 0 -1 0 0 0 0 1 forward_v I I I I #
coedge $-1 $331 $329 $333 $459 reversed $221 $-1 #
edge $-1 $344 -18.290515174259223 $461 18.290515174259223 $343 $526 forward 7 unknown #
vertex $-1 $459 $527 #
straight-curve $-1 -73.532517471846674 -44.932997759439203 0 0 0 -1 I I #
edge $-1 $457 -44.932997759439203 $461 44.932997759439203 $455 $528 forward 7 unknown #
straight-curve $-1 0 -44.932997759439203 -18.290515174259223 -1 0 0 I I #
vertex $-1 $336 $529 #
straight-curve $-1 0 44.932997759439203 -18.290515174259223 1 0 0 I I #
point $-1 73.532517471846674 44.932997759439203 -18.290515174259223 #
point $-1 73.532517471846674 -44.932997759439203 -18.290515174259223 #
straight-curve $-1 -73.532517471846674 0 18.290515174259223 0 -1 0 I I #
point $-1 -73.532517471846674 44.932997759439203 18.290515174259223 #
point $-1 -73.532517471846674 -44.932997759439203 18.290515174259223 #
straight-curve $-1 73.532517471846674 -44.932997759439203 0 0 0 -1 I I #
straight-curve $-1 73.532517471846674 44.932997759439203 0 0 0 -1 I I #
plane-surface $-1 0 -44.932997759439203 0 0 1 0 0 0 1 forward_v I I I I #
coedge $-1 $530 $356 $368 $482 reversed $240 $-1 #
coedge $-1 $356 $530 $371 $484 reversed $240 $-1 #
edge $-1 $531 -73.532517471846674 $365 -64.842359741938466 $361 $532 forward 7 unknown #
straight-curve $-1 -64.842359741938466 -19.118467161179087 18.290515174259223 0 1 0 I I #
coedge $-1 $368 $359 $362 $478 forward $354 $-1 #
straight-curve $-1 -64.842359741938466 -19.118467161179087 -18.290515174259223 0 -1 0 I I #
coedge $-1 $362 $361 $530 $533 forward $363 $-1 #
edge $-1 $364 64.842359741938466 $534 73.532517471846674 $362 $535 forward 7 unknown #
point $-1 -64.842359741938466 -44.932997759439203 -18.290515174259223 #
point $-1 -64.842359741938466 -44.932997759439203 18.290515174259223 #
straight-curve $-1 -73.532517471846674 -31.540870885277148 0 0 0 -1 I I #
edge $-1 $534 -44.932997759439203 $369 -31.540870885277148 $471 $536 forward 7 unknown #
point $-1 -73.532517471846674 -31.540870885277148 -18.290515174259223 #
edge $-1 $372 31.540870885277148 $531 44.932997759439203 $472 $537 forward 7 unknown #
point $-1 -73.532517471846674 -31.540870885277148 18.290515174259223 #
edge $-1 $487 32.864312884431186 $490 47.250886594783047 $377 $538 forward 7 unknown #
vertex $-1 $391 $539 #
straight-curve $-1 -91.411569208389551 17.241583082633245 18.290515174259227 -1 0 0 I I #
edge $-1 $490 -12.421438022264052 $388 2.7811479015256673 $387 $540 forward 7 unknown #
vertex $-1 $489 $541 #
straight-curve $-1 -73.532517471846674 17.241583082633245 3.9039414639073584 0.66913059716165679 0 0.74314483375859142 I I #
point $-1 -60.578788641855134 17.241583082633245 18.290515174259227 #
point $-1 -73.532517471846674 2.0389971588435252 3.9039414639073584 #
straight-curve $-1 -73.532517471846674 0 18.290515174259223 0 -1 0 I I #
vertex $-1 $394 $542 #
point $-1 -64.260960859155503 6.3825931370691649 9.9265089389502386 #
vertex $-1 $398 $543 #
point $-1 -64.260960859155503 12.897987104407619 9.9265089389502386 #
coedge $-1 $413 $412 $405 $500 forward $402 $-1 #
edge $-1 $501 87.56670462786721 $504 96.793598590857854 $499 $544 forward 7 unknown #
vertex $-1 $417 $545 #
straight-curve $-1 13.37344568023682 -15.524098954501024 18.290515174259227 1 0 0 I I #
edge $-1 $504 -10.808156277029791 $414 1.3762709220873255 $413 $546 forward 7 unknown #
vertex $-1 $503 $547 #
straight-curve $-1 -51.185704780331989 -15.524098954501024 86.996217352074211 -0.84804809178421925 0 0.52991927123019833 I I #
point $-1 58.766400738170816 -15.524098954501024 18.290515174259227 #
point $-1 73.532517471846674 -3.3396717553839075 9.0636212112685826 #
straight-curve $-1 73.532517471846674 0 18.290515174259223 0 1 0 I I #
vertex $-1 $420 $548 #
point $-1 65.281880011845132 -12.042834040467561 10.401571548907672 #
vertex $-1 $424 $549 #
point $-1 65.281880011845132 -6.8209366694173639 10.401571548907672 #
edge $-1 $514 87.56670462786721 $517 96.793598590857854 $429 $550 forward 7 unknown #
vertex $-1 $443 $551 #
straight-curve $-1 13.37344568023682 16.731798629545938 18.290515174259227 1 0 0 I I #
edge $-1 $517 5.31979251499369 $440 17.504219714110807 $439 $552 forward 7 unknown #
vertex $-1 $516 $553 #
straight-curve $-1 -51.185704780331989 16.731798629545938 86.996217352074211 -0.84804809178421925 0 0.52991927123019833 I I #
point $-1 58.766400738170816 16.731798629545938 18.290515174259227 #
point $-1 73.532517471846674 28.916225828663055 9.0636212112685826 #
straight-curve $-1 73.532517471846674 0 18.290515174259223 0 1 0 I I #
vertex $-1 $446 $554 #
point $-1 65.281880011845132 20.213063543579395 10.401571548907672 #
vertex $-1 $450 $555 #
point $-1 65.281880011845132 25.434960914629599 10.401571548907672 #
straight-curve $-1 -73.532517471846674 44.932997759439203 0 0 0 -1 I I #
point $-1 -73.532517471846674 -44.932997759439203 -18.290515174259223 #
straight-curve $-1 -73.532517471846674 0 -18.290515174259223 0 1 0 I I #
point $-1 -73.532517471846674 44.932997759439203 -18.290515174259223 #
coedge $-1 $472 $471 $477 $533 reversed $240 $-1 #
vertex $-1 $484 $556 #
straight-curve $-1 0 -44.932997759439203 18.290515174259223 1 0 0 I I #
edge $-1 $531 -18.290515174259223 $534 18.290515174259223 $530 $557 forward 7 unknown #
vertex $-1 $482 $558 #
straight-curve $-1 0 -44.932997759439203 -18.290515174259223 -1 0 0 I I #
straight-curve $-1 -73.532517471846674 0 -18.290515174259223 0 1 0 I I #
straight-curve $-1 -73.532517471846674 0 18.290515174259223 0 -1 0 I I #
straight-curve $-1 -73.532517471846674 17.241583082633245 51.154828058690406 0 0 -1 I I #
point $-1 -73.532517471846674 17.241583082633245 18.290515174259223 #
straight-curve $-1 -73.532517471846674 4.8201450603691924 3.9039414639073549 0 -1 0 I I #
point $-1 -73.532517471846674 17.241583082633245 3.9039414639073584 #
point $-1 -64.18694662255858 6.3825931370691649 8.5142335080299905 #
point $-1 -64.18694662255858 12.897987104407619 8.5142335080299905 #
straight-curve $-1 73.532517471846674 -15.524098954501024 105.85721980212644 0 0 -1 I I #
point $-1 73.532517471846674 -15.524098954501024 18.290515174259223 #
straight-curve $-1 73.532517471846674 -4.715942677471233 9.0636212112685826 0 1 0 I I #
point $-1 73.532517471846674 -15.524098954501024 9.0636212112685826 #
point $-1 63.903912648830712 -12.042834040467561 10.083442728353651 #
point $-1 63.903912648830712 -6.8209366694173639 10.083442728353651 #
straight-curve $-1 73.532517471846674 16.731798629545938 105.85721980212644 0 0 -1 I I #
point $-1 73.532517471846674 16.731798629545938 18.290515174259223 #
straight-curve $-1 73.532517471846674 11.412006114552248 9.0636212112685826 0 1 0 I I #
point $-1 73.532517471846674 16.731798629545938 9.0636212112685826 #
point $-1 63.903912648830712 20.213063543579395 10.083442728353651 #
point $-1 63.903912648830712 25.434960914629599 10.083442728353651 #
point $-1 -73.532517471846674 -44.932997759439203 18.290515174259223 #
straight-curve $-1 -73.532517471846674 -44.932997759439203 0 0 0 -1 I I #
point $-1 -73.532517471846674 -44.932997759439203 -18.290515174259223 #
End-of-ACIS-data 