500 0 8 0           
7 Unknown 11 ACIS 5.0 NT 24 Thu Mar 25 22:10:44 1999 
-1 9.9999999999999995e-007 1e-010 
body $-1 $8 $-1 $9 #
body $-1 $10 $-1 $11 #
body $-1 $12 $-1 $13 #
body $-1 $14 $-1 $15 #
body $-1 $16 $-1 $17 #
body $-1 $18 $-1 $19 #
body $-1 $20 $-1 $21 #
body $-1 $22 $-1 $23 #
lump $-1 $-1 $24 $0 #
transform $-1 1 0 0 0 1 0 0 0 1 71.670888393810856 30.358692054528557 14.110625934338509 1 rotate no_reflect no_shear #
lump $-1 $-1 $25 $1 #
transform $-1 1 0 0 0 1 0 0 0 1 71.670888393810856 30.358692054528557 14.110625934338509 1 rotate no_reflect no_shear #
lump $-1 $-1 $26 $2 #
transform $-1 1 0 0 0 1 0 0 0 1 71.670888393810856 30.358692054528557 14.110625934338509 1 rotate no_reflect no_shear #
lump $-1 $-1 $27 $3 #
transform $-1 1 0 0 0 1 0 0 0 1 71.670888393810856 30.358692054528557 14.110625934338509 1 rotate no_reflect no_shear #
lump $-1 $-1 $28 $4 #
transform $-1 1 0 0 0 1 0 0 0 1 71.670888393810856 30.358692054528557 14.110625934338509 1 rotate no_reflect no_shear #
lump $-1 $-1 $29 $5 #
transform $-1 1 0 0 0 1 0 0 0 1 71.670888393810856 30.358692054528557 14.110625934338509 1 rotate no_reflect no_shear #
lump $-1 $-1 $30 $6 #
transform $-1 1 0 0 0 1 0 0 0 1 71.670888393810856 30.358692054528557 14.110625934338509 1 rotate no_reflect no_shear #
lump $-1 $-1 $31 $7 #
transform $-1 1 0 0 0 1 0 0 0 1 71.670888393810856 30.358692054528557 14.110625934338509 1 rotate no_reflect no_shear #
shell $-1 $-1 $-1 $32 $-1 $8 #
shell $-1 $-1 $-1 $33 $-1 $10 #
shell $-1 $-1 $-1 $34 $-1 $12 #
shell $-1 $-1 $-1 $35 $-1 $14 #
shell $-1 $-1 $-1 $36 $-1 $16 #
shell $-1 $-1 $-1 $37 $-1 $18 #
shell $-1 $-1 $-1 $38 $-1 $20 #
shell $-1 $-1 $-1 $39 $-1 $22 #
face $-1 $40 $41 $24 $-1 $42 forward single #
face $-1 $43 $44 $25 $-1 $45 forward single #
face $-1 $46 $47 $26 $-1 $48 reversed single #
face $-1 $49 $50 $27 $-1 $51 forward single #
face $-1 $52 $53 $28 $-1 $54 forward single #
face $-1 $55 $56 $29 $-1 $57 reversed single #
face $-1 $58 $59 $30 $-1 $60 forward single #
face $-1 $61 $62 $31 $-1 $63 forward single #
face $-1 $64 $65 $24 $-1 $66 reversed single #
loop $-1 $-1 $67 $32 #
plane-surface $-1 0 0 14.110625934338509 0 0 1 1 0 0 forward_v I I I I #
face $-1 $68 $69 $25 $-1 $70 forward single #
loop $-1 $-1 $71 $33 #
plane-surface $-1 0 -30.358692054528557 0 0 1 0 0 0 1 forward_v I I I I #
face $-1 $72 $73 $26 $-1 $74 reversed single #
loop $-1 $-1 $75 $34 #
plane-surface $-1 120.71230250197857 20.886417565047157 198.42976603570878 0 1 0 0.85716730853699208 0 0.51503806187062418 forward_v I I I I #
face $-1 $76 $77 $27 $-1 $78 forward single #
loop $-1 $79 $80 $35 #
cone-surface $-1 66.386791979743464 23.592781704898986 6.9819461787749875 -0.85716730853699208 0 -0.51503806187062418 0.51503806187062418 0 -0.85716730853699208 1 I I 0 1 1 forward I I I I #
face $-1 $81 $82 $28 $-1 $83 forward single #
loop $-1 $84 $85 $36 #
cone-surface $-1 66.386791979743464 27.652327914676729 6.9819461787749875 -0.85716730853699208 0 -0.51503806187062418 0.51503806187062418 0 -0.85716730853699208 1 I I 0 1 1 forward I I I I #
face $-1 $86 $87 $29 $-1 $88 reversed single #
loop $-1 $-1 $89 $37 #
plane-surface $-1 -194.53877340376687 20.886417565047157 75.561881025752797 0 1 0 -0.85716730853699208 0 0.51503806187062418 forward_v I I I I #
face $-1 $90 $91 $30 $-1 $92 forward single #
loop $-1 $93 $94 $38 #
cone-surface $-1 -66.386791979743464 23.592781704898986 6.9819461787749946 0.85716730853699208 0 -0.51503806187062418 0.51503806187062418 0 0.85716730853699208 1 I I 0 1 1 forward I I I I #
face $-1 $95 $96 $31 $-1 $97 forward single #
loop $-1 $98 $99 $39 #
cone-surface $-1 -66.386791979743464 27.652327914676729 6.9819461787749946 0.85716730853699208 0 -0.51503806187062418 0.51503806187062418 0 0.85716730853699208 1 I I 0 1 1 forward I I I I #
face $-1 $100 $101 $24 $-1 $102 reversed single #
loop $-1 $-1 $103 $40 #
plane-surface $-1 0 0 -14.110625934338509 0 0 1 1 0 0 forward_v I I I I #
coedge $-1 $104 $105 $106 $107 forward $41 $-1 #
face $-1 $108 $109 $25 $-1 $110 reversed single #
loop $-1 $-1 $111 $43 #
plane-surface $-1 0 0 14.110625934338509 0 0 1 1 0 0 forward_v I I I I #
coedge $-1 $112 $113 $114 $115 forward $44 $-1 #
face $-1 $116 $117 $26 $-1 $118 reversed single #
loop $-1 $-1 $119 $46 #
plane-surface $-1 -2.1555825079774138 25.622554809787854 124.60329513392047 0.85716730853699208 0 0.51503806187062418 0.51503806187062418 0 -0.85716730853699208 forward_v I I I I #
coedge $-1 $120 $121 $122 $123 reversed $47 $-1 #
face $-1 $-1 $124 $27 $-1 $125 forward single #
loop $-1 $126 $127 $49 #
cone-surface $-1 64.392001699507603 23.592781704898986 5.7833552974631655 -0.85716730853699208 0 -0.51503806187062418 0.25751903093531209 0 -0.42858365426849604 1 I I -0.70710678118654746 0.70710678118654746 0.5 forward I I I I #
loop $-1 $-1 $128 $35 #
coedge $-1 $80 $80 $129 $130 reversed $50 $-1 #
face $-1 $-1 $131 $28 $-1 $132 forward single #
loop $-1 $133 $134 $52 #
cone-surface $-1 64.392001699507603 27.652327914676729 5.7833552974631655 -0.85716730853699208 0 -0.51503806187062418 0.25751903093531209 0 -0.42858365426849604 1 I I -0.70710678118654746 0.70710678118654746 0.5 forward I I I I #
loop $-1 $-1 $135 $36 #
coedge $-1 $85 $85 $136 $137 reversed $53 $-1 #
face $-1 $138 $139 $29 $-1 $140 forward single #
loop $-1 $-1 $141 $55 #
plane-surface $-1 -71.670888393810884 25.622554809787854 1.7354101239644848 -0.85716730853699208 0 0.51503806187062418 0.51503806187062418 0 0.85716730853699208 forward_v I I I I #
coedge $-1 $142 $143 $144 $145 reversed $56 $-1 #
face $-1 $-1 $146 $30 $-1 $147 forward single #
loop $-1 $148 $149 $58 #
cone-surface $-1 -64.392001699507603 23.592781704898986 5.7833552974631726 0.85716730853699208 0 -0.51503806187062418 0.25751903093531209 0 0.42858365426849604 1 I I -0.70710678118654746 0.70710678118654746 0.5 forward I I I I #
loop $-1 $-1 $150 $38 #
coedge $-1 $94 $94 $151 $152 reversed $59 $-1 #
face $-1 $-1 $153 $31 $-1 $154 forward single #
loop $-1 $155 $156 $61 #
cone-surface $-1 -64.392001699507603 27.652327914676729 5.7833552974631726 0.85716730853699208 0 -0.51503806187062418 0.25751903093531209 0 0.42858365426849604 1 I I -0.70710678118654746 0.70710678118654746 0.5 forward I I I I #
loop $-1 $-1 $157 $39 #
coedge $-1 $99 $99 $158 $159 reversed $62 $-1 #
face $-1 $160 $161 $24 $-1 $162 reversed single #
loop $-1 $-1 $163 $64 #
plane-surface $-1 0 -30.358692054528557 0 0 1 0 0 0 1 forward_v I I I I #
coedge $-1 $164 $165 $166 $167 forward $65 $-1 #
coedge $-1 $168 $67 $169 $170 forward $41 $-1 #
coedge $-1 $67 $168 $171 $172 forward $41 $-1 #
coedge $-1 $173 $174 $67 $107 reversed $175 $-1 #
edge $-1 $176 -30.358692054528557 $177 30.358692054528557 $106 $178 forward 7 unknown #
face $-1 $179 $180 $25 $-1 $181 reversed single #
loop $-1 $-1 $182 $68 #
plane-surface $-1 -71.670888393810856 0 0 1 0 0 0 0 -1 forward_v I I I I #
coedge $-1 $183 $184 $185 $186 forward $69 $-1 #
coedge $-1 $185 $71 $182 $187 reversed $44 $-1 #
coedge $-1 $71 $185 $188 $189 reversed $44 $-1 #
coedge $-1 $190 $191 $71 $115 reversed $180 $-1 #
edge $-1 $192 -71.670888393810856 $193 71.670888393810856 $114 $194 forward 7 unknown #
face $-1 $195 $196 $26 $-1 $197 forward single #
loop $-1 $-1 $122 $72 #
plane-surface $-1 71.670888393810856 0 0 -1 0 0 0 0 1 forward_v I I I I #
coedge $-1 $198 $199 $200 $201 reversed $73 $-1 #
coedge $-1 $121 $75 $202 $203 reversed $47 $-1 #
coedge $-1 $75 $120 $198 $204 reversed $47 $-1 #
coedge $-1 $200 $205 $75 $123 forward $117 $-1 #
edge $-1 $206 85.104257083515876 $207 97.479472893889834 $122 $208 forward 7 unknown #
loop $-1 $-1 $129 $76 #
plane-surface $-1 -2.1555825079774138 25.622554809787854 124.60329513392047 0.85716730853699208 0 0.51503806187062418 0.51503806187062418 0 -0.85716730853699208 forward_v I I I I #
loop $-1 $-1 $209 $49 #
coedge $-1 $127 $127 $128 $210 reversed $77 $-1 #
coedge $-1 $128 $128 $127 $210 forward $79 $-1 #
coedge $-1 $129 $129 $80 $130 forward $124 $-1 #
edge $-1 $211 0 $211 6.2831853071796004 $129 $212 forward 7 unknown #
loop $-1 $-1 $136 $81 #
plane-surface $-1 -2.1555825079774138 25.622554809787854 124.60329513392047 0.85716730853699208 0 0.51503806187062418 0.51503806187062418 0 -0.85716730853699208 forward_v I I I I #
loop $-1 $-1 $213 $52 #
coedge $-1 $134 $134 $135 $214 reversed $82 $-1 #
coedge $-1 $135 $135 $134 $214 forward $84 $-1 #
coedge $-1 $136 $136 $85 $137 forward $131 $-1 #
edge $-1 $215 0 $215 6.2831853071796004 $136 $216 forward 7 unknown #
face $-1 $217 $218 $29 $-1 $219 reversed single #
loop $-1 $-1 $144 $86 #
plane-surface $-1 0 0 14.110625934338509 0 0 1 1 0 0 forward_v I I I I #
coedge $-1 $220 $221 $222 $223 reversed $87 $-1 #
coedge $-1 $143 $89 $224 $225 reversed $56 $-1 #
coedge $-1 $89 $142 $220 $226 reversed $56 $-1 #
coedge $-1 $222 $227 $89 $145 forward $139 $-1 #
edge $-1 $228 25.598498308072578 $229 33.034277884272612 $144 $230 forward 7 unknown #
loop $-1 $-1 $151 $90 #
plane-surface $-1 -71.670888393810884 25.622554809787854 1.7354101239644848 -0.85716730853699208 0 0.51503806187062418 0.51503806187062418 0 0.85716730853699208 forward_v I I I I #
loop $-1 $-1 $231 $58 #
coedge $-1 $149 $149 $150 $232 reversed $91 $-1 #
coedge $-1 $150 $150 $149 $232 forward $93 $-1 #
coedge $-1 $151 $151 $94 $152 forward $146 $-1 #
edge $-1 $233 0 $233 6.2831853071796004 $151 $234 forward 7 unknown #
loop $-1 $-1 $158 $95 #
plane-surface $-1 -71.670888393810884 25.622554809787854 1.7354101239644848 -0.85716730853699208 0 0.51503806187062418 0.51503806187062418 0 0.85716730853699208 forward_v I I I I #
loop $-1 $-1 $235 $61 #
coedge $-1 $156 $156 $157 $236 reversed $96 $-1 #
coedge $-1 $157 $157 $156 $236 forward $98 $-1 #
coedge $-1 $158 $158 $99 $159 forward $153 $-1 #
edge $-1 $237 0 $237 6.2831853071796004 $158 $238 forward 7 unknown #
face $-1 $239 $240 $24 $-1 $241 reversed single #
loop $-1 $-1 $242 $100 #
plane-surface $-1 -71.670888393810856 0 0 1 0 0 0 0 -1 forward_v I I I I #
coedge $-1 $243 $171 $244 $245 forward $101 $-1 #
coedge $-1 $246 $103 $243 $247 forward $65 $-1 #
coedge $-1 $103 $246 $248 $249 forward $65 $-1 #
coedge $-1 $174 $173 $103 $167 reversed $175 $-1 #
edge $-1 $250 -30.358692054528557 $251 30.358692054528557 $166 $252 forward 7 unknown #
coedge $-1 $105 $104 $253 $254 forward $41 $-1 #
coedge $-1 $255 $256 $104 $170 reversed $240 $-1 #
edge $-1 $177 -71.670888393810856 $257 71.670888393810856 $169 $258 forward 7 unknown #
coedge $-1 $163 $259 $105 $172 reversed $101 $-1 #
edge $-1 $260 -71.670888393810856 $176 71.670888393810856 $171 $261 forward 7 unknown #
coedge $-1 $166 $106 $259 $262 forward $175 $-1 #
coedge $-1 $106 $166 $255 $263 reversed $175 $-1 #
loop $-1 $-1 $173 $239 #
vertex $-1 $107 $264 #
vertex $-1 $107 $265 #
straight-curve $-1 71.670888393810856 0 14.110625934338509 0 1 0 I I #
face $-1 $266 $267 $25 $-1 $268 reversed single #
loop $-1 $-1 $190 $108 #
plane-surface $-1 0 -36.172113188237276 7.2105569824690718 0 0 1 1 0 0 forward_v I I I I #
coedge $-1 $269 $270 $112 $187 forward $109 $-1 #
coedge $-1 $271 $111 $270 $272 forward $69 $-1 #
coedge $-1 $111 $271 $273 $274 forward $69 $-1 #
coedge $-1 $113 $112 $111 $186 reversed $44 $-1 #
edge $-1 $275 -71.670888393810856 $276 71.670888393810856 $111 $277 forward 7 unknown #
edge $-1 $276 -14.110625934338509 $193 -7.2105569824690718 $182 $278 forward 7 unknown #
coedge $-1 $273 $279 $113 $189 forward $280 $-1 #
edge $-1 $192 7.2105569824690718 $275 14.110625934338509 $188 $281 forward 7 unknown #
coedge $-1 $282 $114 $279 $283 forward $180 $-1 #
coedge $-1 $114 $282 $269 $284 forward $180 $-1 #
vertex $-1 $189 $285 #
vertex $-1 $187 $286 #
straight-curve $-1 0 -30.358692054528557 7.2105569824690718 -1 0 0 I I #
face $-1 $-1 $287 $26 $-1 $288 reversed single #
loop $-1 $-1 $202 $116 #
plane-surface $-1 0 0 14.110625934338509 0 0 1 1 0 0 forward_v I I I I #
coedge $-1 $289 $119 $121 $204 forward $73 $-1 #
coedge $-1 $119 $289 $290 $291 reversed $73 $-1 #
coedge $-1 $292 $122 $119 $201 forward $117 $-1 #
edge $-1 $207 8.0751401601532304 $293 17.547414649634632 $200 $294 forward 7 unknown #
coedge $-1 $295 $296 $120 $203 forward $196 $-1 #
edge $-1 $297 3.8789575666215512 $206 11.314737142821571 $202 $298 forward 7 unknown #
edge $-1 $207 -143.34177678762165 $297 -128.90443685745575 $121 $299 forward 7 unknown #
coedge $-1 $122 $292 $295 $300 reversed $117 $-1 #
vertex $-1 $300 $301 #
vertex $-1 $123 $302 #
straight-curve $-1 71.670888393810856 20.886417565047157 99.21488301785439 0 0 -1 I I #
coedge $-1 $209 $209 $-1 $303 reversed $126 $-1 #
edge $-1 $304 0 $304 6.2831853071796004 $127 $305 forward 7 unknown #
vertex $-1 $130 $306 #
ellipse-curve $-1 67.952998605710846 23.592781704898986 7.9230180291515104 0.85716730853699208 0 0.51503806187062418 0.51503806187062418 0 -0.85716730853699208 1 I I #
coedge $-1 $213 $213 $-1 $307 reversed $133 $-1 #
edge $-1 $308 0 $308 6.2831853071796004 $134 $309 forward 7 unknown #
vertex $-1 $137 $310 #
ellipse-curve $-1 67.952998605710846 27.652327914676729 7.9230180291515104 0.85716730853699208 0 0.51503806187062418 0.51503806187062418 0 -0.85716730853699208 1 I I #
face $-1 $-1 $311 $29 $-1 $312 reversed single #
loop $-1 $-1 $313 $138 #
plane-surface $-1 0 30.358692054528557 0 0 -1 0 0 0 -1 forward_v I I I I #
coedge $-1 $314 $141 $143 $226 forward $87 $-1 #
coedge $-1 $141 $314 $313 $315 reversed $87 $-1 #
coedge $-1 $316 $144 $141 $223 forward $139 $-1 #
edge $-1 $229 8.0751401601532304 $317 17.547414649634625 $222 $318 forward 7 unknown #
coedge $-1 $319 $320 $142 $225 forward $311 $-1 #
edge $-1 $321 -36.045530388911864 $228 -23.670314578537891 $224 $322 forward 7 unknown #
edge $-1 $229 -14.43733993016599 $321 -5.5178419308758838e-014 $143 $323 forward 7 unknown #
coedge $-1 $144 $316 $319 $324 forward $139 $-1 #
vertex $-1 $225 $325 #
vertex $-1 $145 $326 #
straight-curve $-1 -97.269386701883434 20.886417565047157 14.110625934338508 1 0 0 I I #
coedge $-1 $231 $231 $-1 $327 reversed $148 $-1 #
edge $-1 $328 0 $328 6.2831853071796004 $149 $329 forward 7 unknown #
vertex $-1 $152 $330 #
ellipse-curve $-1 -67.952998605710846 23.592781704898986 7.923018029151514 -0.85716730853699208 0 0.51503806187062418 0.51503806187062418 0 0.85716730853699208 1 I I #
coedge $-1 $235 $235 $-1 $331 reversed $155 $-1 #
edge $-1 $332 0 $332 6.2831853071796004 $156 $333 forward 7 unknown #
vertex $-1 $159 $334 #
ellipse-curve $-1 -67.952998605710846 27.652327914676729 7.923018029151514 -0.85716730853699208 0 0.51503806187062418 0.51503806187062418 0 0.85716730853699208 1 I I #
face $-1 $-1 $175 $24 $-1 $335 reversed single #
loop $-1 $-1 $255 $160 #
plane-surface $-1 0 30.358692054528557 0 0 -1 0 0 0 -1 forward_v I I I I #
coedge $-1 $336 $253 $256 $337 forward $161 $-1 #
coedge $-1 $259 $163 $164 $247 reversed $101 $-1 #
coedge $-1 $253 $336 $163 $245 reversed $161 $-1 #
edge $-1 $260 -14.110625934338509 $338 14.110625934338509 $244 $339 forward 7 unknown #
coedge $-1 $165 $164 $336 $340 forward $65 $-1 #
edge $-1 $251 -71.670888393810856 $338 71.670888393810856 $243 $341 forward 7 unknown #
coedge $-1 $256 $255 $165 $249 reversed $240 $-1 #
edge $-1 $342 -71.670888393810856 $250 71.670888393810856 $248 $343 forward 7 unknown #
vertex $-1 $167 $344 #
vertex $-1 $262 $345 #
straight-curve $-1 71.670888393810856 0 -14.110625934338509 0 -1 0 I I #
coedge $-1 $242 $244 $168 $254 reversed $161 $-1 #
edge $-1 $257 -30.358692054528557 $260 30.358692054528557 $253 $346 forward 7 unknown #
coedge $-1 $248 $169 $174 $263 forward $240 $-1 #
coedge $-1 $169 $248 $242 $337 reversed $240 $-1 #
vertex $-1 $170 $347 #
straight-curve $-1 0 30.358692054528557 14.110625934338509 -1 0 0 I I #
coedge $-1 $171 $243 $173 $262 reversed $101 $-1 #
vertex $-1 $254 $348 #
straight-curve $-1 0 -30.358692054528557 14.110625934338509 1 0 0 I I #
edge $-1 $176 -14.110625934338509 $251 14.110625934338509 $173 $349 forward 7 unknown #
edge $-1 $177 -14.110625934338509 $250 14.110625934338509 $174 $350 forward 7 unknown #
point $-1 71.670888393810856 -30.358692054528557 14.110625934338509 #
point $-1 71.670888393810856 30.358692054528557 14.110625934338509 #
face $-1 $-1 $280 $25 $-1 $351 reversed single #
loop $-1 $-1 $352 $179 #
plane-surface $-1 0 -41.985534321945991 10.660591458403792 0 1 0 0 0 1 forward_v I I I I #
coedge $-1 $353 $182 $191 $284 reversed $109 $-1 #
coedge $-1 $182 $353 $183 $272 reversed $109 $-1 #
coedge $-1 $184 $183 $354 $355 forward $69 $-1 #
edge $-1 $276 30.358692054528557 $356 41.985534321945991 $270 $357 forward 7 unknown #
coedge $-1 $358 $188 $184 $274 reversed $280 $-1 #
edge $-1 $359 -41.985534321945991 $275 -30.358692054528557 $273 $360 forward 7 unknown #
vertex $-1 $189 $361 #
vertex $-1 $272 $362 #
straight-curve $-1 0 -30.358692054528557 14.110625934338509 -1 0 0 I I #
straight-curve $-1 -71.670888393810856 -30.358692054528557 0 0 0 -1 I I #
coedge $-1 $188 $358 $190 $283 reversed $280 $-1 #
loop $-1 $-1 $188 $266 #
straight-curve $-1 71.670888393810856 -30.358692054528557 0 0 0 1 I I #
coedge $-1 $191 $190 $363 $364 forward $180 $-1 #
edge $-1 $192 -5.8134211337087152 $365 5.8134211337087152 $279 $366 forward 7 unknown #
edge $-1 $367 -5.8134211337087152 $193 5.8134211337087152 $269 $368 forward 7 unknown #
point $-1 71.670888393810856 -30.358692054528561 7.2105569824690718 #
point $-1 -71.670888393810856 -30.358692054528561 7.2105569824690718 #
loop $-1 $-1 $290 $195 #
plane-surface $-1 0 30.358692054528557 0 0 -1 0 0 0 -1 forward_v I I I I #
coedge $-1 $199 $198 $296 $369 reversed $73 $-1 #
coedge $-1 $370 $371 $199 $291 forward $287 $-1 #
edge $-1 $293 -89.383737706674623 $372 -74.946397776508704 $290 $373 forward 7 unknown #
coedge $-1 $205 $200 $371 $374 reversed $117 $-1 #
vertex $-1 $201 $375 #
straight-curve $-1 71.670888393810856 12.811277404893927 1.7354101239645345 0 1 0 I I #
coedge $-1 $376 $202 $205 $300 forward $196 $-1 #
coedge $-1 $202 $376 $289 $369 forward $196 $-1 #
vertex $-1 $203 $377 #
straight-curve $-1 60.356151250989285 20.886417565047157 14.110625934338515 1 0 0 I I #
straight-curve $-1 -2.1555825079774138 20.886417565047157 124.60329513392047 -0.51503806187062418 0 0.85716730853699208 I I #
edge $-1 $206 20.886417565047157 $378 30.358692054528557 $205 $379 forward 7 unknown #
point $-1 71.670888393810856 20.886417565047157 14.110625934338509 #
point $-1 71.670888393810856 20.886417565047157 1.7354101239645559 #
edge $-1 $380 1 $380 0 $209 $-1 forward 7 unknown #
vertex $-1 $210 $381 #
ellipse-curve $-1 64.820585353776096 23.592781704898986 6.0408743283984778 0.85716730853699208 0 0.51503806187062418 0.51503806187062418 0 -0.85716730853699208 1 I I #
point $-1 68.468036667581444 23.592781704898986 7.0658507206145043 #
edge $-1 $382 1 $382 0 $213 $-1 forward 7 unknown #
vertex $-1 $214 $383 #
ellipse-curve $-1 64.820585353776096 27.652327914676729 6.0408743283984778 0.85716730853699208 0 0.51503806187062418 0.51503806187062418 0 -0.85716730853699208 1 I I #
point $-1 68.468036667581444 27.652327914676729 7.0658507206145043 #
loop $-1 $-1 $224 $217 #
plane-surface $-1 -71.670888393810856 0 0 1 0 0 0 0 -1 forward_v I I I I #
coedge $-1 $384 $385 $221 $315 forward $218 $-1 #
coedge $-1 $221 $220 $320 $386 reversed $87 $-1 #
edge $-1 $317 3.275509382697857 $387 17.712849312863788 $313 $388 forward 7 unknown #
coedge $-1 $227 $222 $385 $389 forward $139 $-1 #
vertex $-1 $389 $390 #
straight-curve $-1 -64.235108817610822 12.811277404893927 14.110625934338511 0 1 0 I I #
coedge $-1 $391 $224 $227 $324 reversed $311 $-1 #
coedge $-1 $224 $391 $314 $386 forward $311 $-1 #
vertex $-1 $225 $392 #
straight-curve $-1 -71.670888393810856 20.886417565047157 37.780940512876398 0 0 1 I I #
straight-curve $-1 -71.670888393810884 20.886417565047157 1.7354101239644848 -0.51503806187062418 0 -0.85716730853699208 I I #
edge $-1 $393 -30.358692054528557 $228 -20.886417565047157 $319 $394 forward 7 unknown #
point $-1 -71.670888393810856 20.886417565047157 14.110625934338509 #
point $-1 -64.235108817610822 20.886417565047157 14.110625934338509 #
edge $-1 $395 1 $395 0 $231 $-1 forward 7 unknown #
vertex $-1 $232 $396 #
ellipse-curve $-1 -64.820585353776096 23.592781704898986 6.0408743283984849 -0.85716730853699208 0 0.51503806187062418 0.51503806187062418 0 0.85716730853699208 1 I I #
point $-1 -67.437960543840205 23.592781704898986 8.7801853376884953 #
edge $-1 $397 1 $397 0 $235 $-1 forward 7 unknown #
vertex $-1 $236 $398 #
ellipse-curve $-1 -64.820585353776096 27.652327914676729 6.0408743283984849 -0.85716730853699208 0 0.51503806187062418 0.51503806187062418 0 0.85716730853699208 1 I I #
point $-1 -67.437960543840205 27.652327914676729 8.7801853376884953 #
plane-surface $-1 71.670888393810856 0 0 -1 0 0 0 0 1 forward_v I I I I #
coedge $-1 $244 $242 $246 $340 reversed $161 $-1 #
edge $-1 $257 -14.110625934338509 $342 14.110625934338509 $256 $399 forward 7 unknown #
vertex $-1 $340 $400 #
straight-curve $-1 -71.670888393810856 -30.358692054528557 0 0 0 -1 I I #
edge $-1 $338 -30.358692054528557 $342 30.358692054528557 $336 $401 forward 7 unknown #
straight-curve $-1 0 -30.358692054528557 -14.110625934338509 -1 0 0 I I #
vertex $-1 $249 $402 #
straight-curve $-1 0 30.358692054528557 -14.110625934338509 1 0 0 I I #
point $-1 71.670888393810856 30.358692054528557 -14.110625934338509 #
point $-1 71.670888393810856 -30.358692054528557 -14.110625934338509 #
straight-curve $-1 -71.670888393810856 0 14.110625934338509 0 -1 0 I I #
point $-1 -71.670888393810856 30.358692054528557 14.110625934338509 #
point $-1 -71.670888393810856 -30.358692054528557 14.110625934338509 #
straight-curve $-1 71.670888393810856 -30.358692054528557 0 0 0 -1 I I #
straight-curve $-1 71.670888393810856 30.358692054528557 0 0 0 -1 I I #
plane-surface $-1 71.670888393810856 0 0 -1 0 0 0 0 1 forward_v I I I I #
coedge $-1 $363 $354 $353 $403 forward $267 $-1 #
coedge $-1 $270 $269 $352 $403 reversed $109 $-1 #
coedge $-1 $352 $404 $271 $355 reversed $267 $-1 #
edge $-1 $356 -71.670888393810856 $359 71.670888393810856 $354 $405 forward 7 unknown #
vertex $-1 $272 $406 #
straight-curve $-1 -71.670888393810856 0 14.110625934338509 0 -1 0 I I #
coedge $-1 $279 $273 $404 $407 forward $280 $-1 #
vertex $-1 $274 $408 #
straight-curve $-1 71.670888393810856 0 14.110625934338509 0 1 0 I I #
point $-1 71.670888393810856 -30.358692054528557 14.110625934338509 #
point $-1 -71.670888393810856 -30.358692054528557 14.110625934338509 #
coedge $-1 $404 $352 $282 $364 reversed $267 $-1 #
edge $-1 $365 -71.670888393810856 $367 71.670888393810856 $363 $409 forward 7 unknown #
vertex $-1 $407 $410 #
straight-curve $-1 71.670888393810856 -36.172113188237276 7.2105569824690718 0 -1 0 I I #
vertex $-1 $284 $411 #
straight-curve $-1 -71.670888393810856 -36.172113188237276 7.2105569824690718 0 1 0 I I #
edge $-1 $372 -17.547414649634625 $297 -8.0751401601532304 $296 $412 forward 7 unknown #
coedge $-1 $371 $290 $376 $413 reversed $287 $-1 #
coedge $-1 $290 $370 $292 $374 forward $287 $-1 #
vertex $-1 $291 $414 #
straight-curve $-1 25.63486136261292 30.358692054528557 78.35222800097128 -0.51503806187062429 0 0.85716730853699219 I I #
edge $-1 $378 -14.110625934338509 $293 -1.7354101239645441 $292 $415 forward 7 unknown #
point $-1 71.670888393810856 30.358692054528557 1.7354101239645441 #
coedge $-1 $296 $295 $370 $413 forward $196 $-1 #
point $-1 64.235108817610836 20.886417565047157 14.110625934338515 #
vertex $-1 $300 $416 #
straight-curve $-1 71.670888393810856 0 14.110625934338509 0 1 0 I I #
vertex $-1 $303 $417 #
point $-1 65.335623415646722 23.592781704898986 5.183707019861485 #
vertex $-1 $307 $418 #
point $-1 65.335623415646722 27.652327914676729 5.183707019861485 #
coedge $-1 $385 $313 $391 $419 reversed $218 $-1 #
coedge $-1 $313 $384 $316 $389 reversed $218 $-1 #
edge $-1 $387 -17.547414649634625 $321 -8.0751401601532304 $320 $420 forward 7 unknown #
vertex $-1 $315 $421 #
straight-curve $-1 -62.548096813507073 30.358692054528557 16.918285495993295 -0.51503806187062429 0 -0.85716730853699219 I I #
edge $-1 $317 64.235108817610822 $393 71.670888393810856 $385 $422 forward 7 unknown #
point $-1 -64.235108817610822 30.35869205452855 14.110625934338509 #
coedge $-1 $320 $319 $384 $419 forward $311 $-1 #
point $-1 -71.670888393810856 20.886417565047157 1.7354101239645321 #
vertex $-1 $389 $423 #
straight-curve $-1 -71.670888393810856 0 14.110625934338509 0 -1 0 I I #
vertex $-1 $327 $424 #
point $-1 -64.305547291905469 23.592781704898986 6.8980416369354769 #
vertex $-1 $331 $425 #
point $-1 -64.305547291905469 27.652327914676729 6.8980416369354769 #
straight-curve $-1 -71.670888393810856 30.358692054528557 0 0 0 -1 I I #
point $-1 -71.670888393810856 -30.358692054528557 -14.110625934338509 #
straight-curve $-1 -71.670888393810856 0 -14.110625934338509 0 1 0 I I #
point $-1 -71.670888393810856 30.358692054528557 -14.110625934338509 #
edge $-1 $356 -3.4500344759347197 $367 3.4500344759347197 $353 $426 forward 7 unknown #
coedge $-1 $354 $363 $358 $407 reversed $267 $-1 #
straight-curve $-1 0 -41.985534321945991 14.110625934338511 1 0 0 I I #
point $-1 -71.670888393810856 -41.985534321945991 14.110625934338511 #
edge $-1 $359 -3.4500344759347197 $365 3.4500344759347197 $358 $427 forward 7 unknown #
point $-1 71.670888393810856 -41.985534321945991 14.110625934338511 #
straight-curve $-1 0 -41.985534321945991 7.2105569824690718 -1 0 0 I I #
point $-1 71.670888393810856 -41.985534321945991 7.2105569824690718 #
point $-1 -71.670888393810856 -41.985534321945991 7.2105569824690718 #
straight-curve $-1 64.235108817610822 12.811277404893927 14.110625934338515 0 -1 0 I I #
edge $-1 $378 -71.670888393810856 $372 -64.235108817610836 $370 $428 forward 7 unknown #
point $-1 64.235108817610836 30.35869205452855 14.110625934338515 #
straight-curve $-1 71.670888393810856 30.358692054528557 0 0 0 -1 I I #
point $-1 71.670888393810856 30.358692054528557 14.110625934338509 #
point $-1 63.963418045239109 23.592781704898986 5.5258362665278531 #
point $-1 63.963418045239109 27.652327914676729 5.5258362665278531 #
edge $-1 $393 -14.110625934338509 $387 -1.7354101239645321 $384 $429 forward 7 unknown #
straight-curve $-1 -71.670888393810856 12.811277404893927 1.7354101239645205 0 -1 0 I I #
point $-1 -71.670888393810856 30.35869205452855 1.7354101239645321 #
straight-curve $-1 0 30.358692054528557 14.110625934338509 -1 0 0 I I #
point $-1 -71.670888393810856 30.358692054528557 14.110625934338509 #
point $-1 -63.963418045239109 23.592781704898986 5.5258362665278602 #
point $-1 -63.963418045239109 27.652327914676729 5.5258362665278602 #
straight-curve $-1 -71.670888393810856 -41.985534321945991 10.660591458403792 0 0 -1 I I #
straight-curve $-1 71.670888393810856 -41.985534321945991 10.660591458403792 0 0 -1 I I #
straight-curve $-1 0 30.358692054528557 14.110625934338509 -1 0 0 I I #
straight-curve $-1 -71.670888393810856 30.358692054528557 0 0 0 -1 I I #
End-of-ACIS-data 