600 0 9 0           
108 GICL ACIS Healer - Source: /gicl/data5/repository/Drexel/CICIRELLO-THESISDATA/Part10001.smdg.delta.sat - 6 0 18 ACIS 6.0.3 Solaris 24 Fri Apr 12 10:12:33 2002 
1 9.999999999999999547e-07 1.000000000000000036e-10 
body $-1 $9 $-1 $-1 #
body $-1 $10 $-1 $-1 #
body $-1 $11 $-1 $-1 #
body $-1 $12 $-1 $-1 #
body $-1 $13 $-1 $-1 #
body $-1 $14 $-1 $-1 #
body $-1 $15 $-1 $-1 #
body $-1 $16 $-1 $-1 #
body $-1 $17 $-1 $-1 #
lump $-1 $-1 $18 $0 #
lump $-1 $-1 $19 $1 #
lump $-1 $-1 $20 $2 #
lump $-1 $-1 $21 $3 #
lump $-1 $-1 $22 $4 #
lump $-1 $-1 $23 $5 #
lump $-1 $-1 $24 $6 #
lump $-1 $-1 $25 $7 #
lump $-1 $-1 $26 $8 #
shell $-1 $-1 $-1 $27 $-1 $9 #
shell $-1 $-1 $-1 $28 $-1 $10 #
shell $-1 $-1 $-1 $29 $-1 $11 #
shell $-1 $-1 $-1 $30 $-1 $12 #
shell $-1 $-1 $-1 $31 $-1 $13 #
shell $-1 $-1 $-1 $32 $-1 $14 #
shell $-1 $-1 $-1 $33 $-1 $15 #
shell $-1 $-1 $-1 $34 $-1 $16 #
shell $-1 $-1 $-1 $35 $-1 $17 #
face $-1 $36 $37 $18 $-1 $38 forward single #
face $-1 $39 $40 $19 $-1 $41 reversed single #
face $-1 $42 $43 $20 $-1 $44 reversed single #
face $-1 $45 $46 $21 $-1 $47 forward single #
face $-1 $48 $49 $22 $-1 $50 forward single #
face $-1 $51 $52 $23 $-1 $53 forward single #
face $-1 $54 $55 $24 $-1 $56 reversed single #
face $-1 $57 $58 $25 $-1 $59 forward single #
face $-1 $60 $61 $26 $-1 $62 forward single #
face $-1 $63 $64 $18 $-1 $65 reversed single #
loop $-1 $-1 $66 $27 #
plane-surface $-1 61.20303964354381066 29.82581187279996016 18.42178749981611929 0 0 1 1 0 0 forward_v I I I I #
face $-1 $67 $68 $19 $-1 $69 reversed single #
loop $-1 $-1 $70 $28 #
plane-surface $-1 15.42178749981611929 6.063698302486624669 9.210893749908059647 1 0 0 0 0 -1 forward_v I I I I #
face $-1 $71 $72 $20 $-1 $73 reversed single #
loop $-1 $-1 $74 $29 #
plane-surface $-1 -85.0304085707631998 17.65687649894095301 102.7024626270129772 0 1 0 -0.6946583786197038091 0 0.7193397924579483238 forward_v I I I I #
face $-1 $75 $76 $21 $-1 $77 forward single #
loop $-1 $78 $79 $30 #
cone-surface $-1 2.299763842964068772 19.50632965168752619 16.17667333220319392 0.6946583786197038091 0 -0.7193397924579483238 0.3596698962289741619 0 0.3473291893098519045 1 I I 0 1 0.5 forward I I I I #
face $-1 $80 $81 $22 $-1 $82 forward single #
loop $-1 $83 $84 $31 #
cone-surface $-1 2.299763842964068772 22.28050938080738419 16.17667333220319392 0.6946583786197038091 0 -0.7193397924579483238 0.3596698962289741619 0 0.3473291893098519045 1 I I 0 1 0.5 forward I I I I #
face $-1 $85 $86 $23 $-1 $87 forward single #
loop $-1 $88 $89 $32 #
cone-surface $-1 2.299763842964068772 25.05468910992724219 16.17667333220319392 0.6946583786197038091 0 -0.7193397924579483238 0.3596698962289741619 0 0.3473291893098519045 1 I I 0 1 0.5 forward I I I I #
face $-1 $90 $91 $24 $-1 $92 reversed single #
loop $-1 $-1 $93 $33 #
plane-surface $-1 158.3973289083730549 18.40888006439352154 179.3304114631057473 0 -1 0 -0.8386705759497471435 0 -0.5446390226894501918 forward_v I I I I #
face $-1 $94 $95 $25 $-1 $96 forward single #
loop $-1 $97 $98 $34 #
cone-surface $-1 118.9216434405635709 13.92210616480761409 13.72535456852623881 -0.8386705759497471435 0 -0.5446390226894501918 0.2723195113447250959 0 -0.4193352879748735718 1 I I 0 1 0.5 forward I I I I #
face $-1 $99 $100 $26 $-1 $101 forward single #
loop $-1 $102 $103 $35 #
cone-surface $-1 118.9216434405635709 16.61417050455915856 13.72535456852623881 -0.8386705759497471435 0 -0.5446390226894501918 0.2723195113447250959 0 -0.4193352879748735718 1 I I 0 1 0.5 forward I I I I #
face $-1 $104 $105 $18 $-1 $106 reversed single #
loop $-1 $-1 $107 $36 #
plane-surface $-1 61.20303964354381066 29.82581187279996016 0 0 0 1 1 0 0 forward_v I I I I #
coedge $-1 $108 $109 $110 $111 forward $37 $-1 #
face $-1 $112 $113 $19 $-1 $114 reversed single #
loop $-1 $-1 $115 $39 #
plane-surface $-1 16.92178749981611929 12.12739660497324934 9.210893749908059647 0 -1 0 0 0 -1 forward_v I I I I #
coedge $-1 $116 $117 $118 $119 forward $40 $-1 #
face $-1 $120 $121 $20 $-1 $122 reversed single #
loop $-1 $-1 $123 $42 #
plane-surface $-1 7.105427357601001859e-15 22.28050938080738064 14.65089895704820577 -0.6946583786197038091 0 0.7193397924579483238 0.7193397924579483238 0 0.6946583786197038091 forward_v I I I I #
coedge $-1 $124 $125 $126 $127 reversed $43 $-1 #
face $-1 $-1 $128 $21 $-1 $129 forward single #
loop $-1 $130 $131 $45 #
cone-surface $-1 2.820757626928845241 19.50632965168752619 15.63716848785973212 0.6946583786197038091 0 -0.7193397924579483238 0.179834948114487081 0 0.1736645946549259523 1 I I -0.7071067811865474617 0.7071067811865474617 0.25 forward I I I I #
loop $-1 $-1 $132 $30 #
coedge $-1 $79 $79 $133 $134 reversed $46 $-1 #
face $-1 $-1 $135 $22 $-1 $136 forward single #
loop $-1 $137 $138 $48 #
cone-surface $-1 2.820757626928845241 22.28050938080738419 15.63716848785973212 0.6946583786197038091 0 -0.7193397924579483238 0.179834948114487081 0 0.1736645946549259523 1 I I -0.7071067811865474617 0.7071067811865474617 0.25 forward I I I I #
loop $-1 $-1 $139 $31 #
coedge $-1 $84 $84 $140 $141 reversed $49 $-1 #
face $-1 $-1 $142 $23 $-1 $143 forward single #
loop $-1 $144 $145 $51 #
cone-surface $-1 2.820757626928845241 25.05468910992724219 15.63716848785973212 0.6946583786197038091 0 -0.7193397924579483238 0.179834948114487081 0 0.1736645946549259523 1 I I -0.7071067811865474617 0.7071067811865474617 0.25 forward I I I I #
loop $-1 $-1 $146 $32 #
coedge $-1 $89 $89 $147 $148 reversed $52 $-1 #
face $-1 $149 $150 $24 $-1 $151 reversed single #
loop $-1 $-1 $152 $54 #
plane-surface $-1 55.73895189292087338 15.26813833468338544 112.6632840689389923 0.8386705759497471435 0 0.5446390226894501918 0.5446390226894501918 0 -0.8386705759497471435 forward_v I I I I #
coedge $-1 $153 $154 $155 $156 reversed $55 $-1 #
face $-1 $-1 $157 $25 $-1 $158 forward single #
loop $-1 $159 $160 $57 #
cone-surface $-1 117.9605328985595776 13.92210616480761409 13.10120210472864244 -0.8386705759497471435 0 -0.5446390226894501918 0.136159755672362548 0 -0.2096676439874367859 1 I I -0.7071067811865481278 0.7071067811865469066 0.25 forward I I I I #
loop $-1 $-1 $161 $34 #
coedge $-1 $98 $98 $162 $163 reversed $58 $-1 #
face $-1 $-1 $164 $26 $-1 $165 forward single #
loop $-1 $166 $167 $60 #
cone-surface $-1 117.9605328985595776 16.61417050455915856 13.10120210472864244 -0.8386705759497471435 0 -0.5446390226894501918 0.136159755672362548 0 -0.2096676439874367859 1 I I -0.7071067811865481278 0.7071067811865469066 0.25 forward I I I I #
loop $-1 $-1 $168 $35 #
coedge $-1 $103 $103 $169 $170 reversed $61 $-1 #
face $-1 $171 $172 $18 $-1 $173 reversed single #
loop $-1 $-1 $174 $63 #
plane-surface $-1 61.20303964354381066 0 9.210893749908059647 0 1 0 0 0 1 forward_v I I I I #
coedge $-1 $175 $176 $177 $178 forward $64 $-1 #
coedge $-1 $179 $66 $180 $181 forward $37 $-1 #
coedge $-1 $66 $179 $182 $183 forward $37 $-1 #
coedge $-1 $184 $185 $66 $111 reversed $186 $-1 #
edge $-1 $187 -29.82581187279996016 $188 29.82581187279996016 $110 $189 forward 7 unknown #
face $-1 $190 $191 $19 $-1 $192 forward single #
loop $-1 $-1 $193 $67 #
plane-surface $-1 18.42178749981611929 6.063698302486624669 9.210893749908059647 -1 0 0 0 0 1 forward_v I I I I #
coedge $-1 $194 $195 $196 $197 forward $68 $-1 #
coedge $-1 $198 $70 $199 $200 reversed $40 $-1 #
coedge $-1 $70 $198 $201 $202 reversed $40 $-1 #
coedge $-1 $195 $194 $70 $119 reversed $68 $-1 #
edge $-1 $203 -9.210893749908059647 $204 9.210893749908059647 $118 $205 forward 7 unknown #
face $-1 $206 $207 $20 $-1 $208 reversed single #
loop $-1 $-1 $209 $71 #
plane-surface $-1 -85.0304085707631998 26.90414226267380826 102.7024626270129772 0 -1 0 0.6946583786197038091 0 -0.7193397924579483238 forward_v I I I I #
coedge $-1 $210 $211 $212 $213 reversed $72 $-1 #
coedge $-1 $125 $74 $214 $215 reversed $43 $-1 #
coedge $-1 $74 $124 $210 $216 reversed $43 $-1 #
coedge $-1 $212 $217 $74 $127 forward $218 $-1 #
edge $-1 $219 11.91368446360969102 $220 15.81855377091813608 $126 $221 forward 7 unknown #
loop $-1 $-1 $133 $75 #
plane-surface $-1 7.105427357601001859e-15 22.28050938080738064 14.65089895704820577 -0.6946583786197038091 0 0.7193397924579483238 0.7193397924579483238 0 0.6946583786197038091 forward_v I I I I #
loop $-1 $-1 $222 $45 #
coedge $-1 $131 $131 $132 $223 reversed $76 $-1 #
coedge $-1 $132 $132 $131 $223 forward $78 $-1 #
coedge $-1 $133 $133 $79 $134 forward $128 $-1 #
edge $-1 $224 0 $224 6.283185307179586232 $133 $225 forward 7 unknown #
loop $-1 $-1 $140 $80 #
plane-surface $-1 7.105427357601001859e-15 22.28050938080738064 14.65089895704820577 -0.6946583786197038091 0 0.7193397924579483238 0.7193397924579483238 0 0.6946583786197038091 forward_v I I I I #
loop $-1 $-1 $226 $48 #
coedge $-1 $138 $138 $139 $227 reversed $81 $-1 #
coedge $-1 $139 $139 $138 $227 forward $83 $-1 #
coedge $-1 $140 $140 $84 $141 forward $135 $-1 #
edge $-1 $228 0 $228 6.283185307179586232 $140 $229 forward 7 unknown #
loop $-1 $-1 $147 $85 #
plane-surface $-1 7.105427357601001859e-15 22.28050938080738064 14.65089895704820577 -0.6946583786197038091 0 0.7193397924579483238 0.7193397924579483238 0 0.6946583786197038091 forward_v I I I I #
loop $-1 $-1 $230 $51 #
coedge $-1 $145 $145 $146 $231 reversed $86 $-1 #
coedge $-1 $146 $146 $145 $231 forward $88 $-1 #
coedge $-1 $147 $147 $89 $148 forward $142 $-1 #
edge $-1 $232 0 $232 6.283185307179586232 $147 $233 forward 7 unknown #
face $-1 $234 $235 $24 $-1 $236 forward single #
loop $-1 $-1 $237 $90 #
plane-surface $-1 158.3973289083730549 12.12739660497324934 179.3304114631057473 0 1 0 0.8386705759497471435 0 0.5446390226894501918 forward_v I I I I #
coedge $-1 $238 $239 $240 $241 reversed $91 $-1 #
coedge $-1 $154 $93 $242 $243 reversed $55 $-1 #
coedge $-1 $93 $153 $238 $244 reversed $55 $-1 #
coedge $-1 $240 $245 $93 $156 forward $235 $-1 #
edge $-1 $246 -12.60589501112919208 $247 -7.139909114114232125 $155 $248 forward 7 unknown #
loop $-1 $-1 $162 $94 #
plane-surface $-1 55.73895189292087338 15.26813833468338544 112.6632840689389923 0.8386705759497471435 0 0.5446390226894501918 0.5446390226894501918 0 -0.8386705759497471435 forward_v I I I I #
loop $-1 $-1 $249 $57 #
coedge $-1 $160 $160 $161 $250 reversed $95 $-1 #
coedge $-1 $161 $161 $160 $250 forward $97 $-1 #
coedge $-1 $162 $162 $98 $163 forward $157 $-1 #
edge $-1 $251 0 $251 6.283185307179586232 $162 $252 forward 7 unknown #
loop $-1 $-1 $169 $99 #
plane-surface $-1 55.73895189292087338 15.26813833468338544 112.6632840689389923 0.8386705759497471435 0 0.5446390226894501918 0.5446390226894501918 0 -0.8386705759497471435 forward_v I I I I #
loop $-1 $-1 $253 $60 #
coedge $-1 $167 $167 $168 $254 reversed $100 $-1 #
coedge $-1 $168 $168 $167 $254 forward $102 $-1 #
coedge $-1 $169 $169 $103 $170 forward $164 $-1 #
edge $-1 $255 0 $255 6.283185307179586232 $169 $256 forward 7 unknown #
face $-1 $257 $258 $18 $-1 $259 reversed single #
loop $-1 $-1 $260 $104 #
plane-surface $-1 0 29.82581187279996016 9.210893749908059647 1 0 0 0 0 -1 forward_v I I I I #
coedge $-1 $261 $182 $262 $263 forward $105 $-1 #
coedge $-1 $264 $107 $261 $265 forward $64 $-1 #
coedge $-1 $107 $264 $266 $267 forward $64 $-1 #
coedge $-1 $185 $184 $107 $178 reversed $186 $-1 #
edge $-1 $268 -29.82581187279996016 $269 29.82581187279996016 $177 $270 forward 7 unknown #
coedge $-1 $109 $108 $271 $272 forward $37 $-1 #
coedge $-1 $273 $274 $108 $181 reversed $258 $-1 #
edge $-1 $188 -61.20303964354381066 $275 61.20303964354381066 $180 $276 forward 7 unknown #
coedge $-1 $174 $277 $109 $183 reversed $105 $-1 #
edge $-1 $278 -61.20303964354381066 $187 61.20303964354381066 $182 $279 forward 7 unknown #
coedge $-1 $177 $110 $277 $280 forward $186 $-1 #
coedge $-1 $110 $177 $273 $281 reversed $186 $-1 #
loop $-1 $-1 $184 $257 #
vertex $-1 $111 $282 #
vertex $-1 $111 $283 #
straight-curve $-1 122.4060792870876213 29.82581187279996016 18.42178749981611929 0 1 0 I I #
face $-1 $284 $285 $19 $-1 $286 reversed single #
loop $-1 $-1 $287 $112 #
plane-surface $-1 61.20303964354381066 29.82581187279996016 18.42178749981611929 0 0 1 1 0 0 forward_v I I I I #
coedge $-1 $288 $289 $290 $291 reversed $113 $-1 #
coedge $-1 $118 $115 $292 $293 reversed $68 $-1 #
coedge $-1 $115 $118 $294 $295 reversed $68 $-1 #
coedge $-1 $289 $288 $115 $197 reversed $113 $-1 #
edge $-1 $296 -9.210893749908059647 $297 9.210893749908059647 $196 $298 forward 7 unknown #
coedge $-1 $117 $116 $299 $300 reversed $40 $-1 #
coedge $-1 $292 $301 $116 $200 forward $285 $-1 #
edge $-1 $302 -17.94475508764329419 $204 -5.81735848267004485 $199 $303 forward 7 unknown #
coedge $-1 $304 $294 $117 $202 forward $191 $-1 #
edge $-1 $203 5.81735848267004485 $305 17.94475508764329419 $201 $306 forward 7 unknown #
vertex $-1 $202 $307 #
vertex $-1 $200 $308 #
straight-curve $-1 15.42178749981611929 12.12739660497324934 9.210893749908059647 0 0 -1 I I #
face $-1 $-1 $218 $20 $-1 $309 forward single #
loop $-1 $-1 $310 $120 #
plane-surface $-1 0 29.82581187279996016 9.210893749908059647 1 0 0 0 0 -1 forward_v I I I I #
coedge $-1 $311 $312 $313 $314 reversed $121 $-1 #
coedge $-1 $315 $123 $125 $216 forward $72 $-1 #
coedge $-1 $123 $315 $311 $316 forward $72 $-1 #
coedge $-1 $313 $126 $123 $213 forward $218 $-1 #
edge $-1 $220 -8.396284127862717384 $317 0.8509816358701378647 $212 $318 forward 7 unknown #
coedge $-1 $319 $320 $124 $215 forward $207 $-1 #
edge $-1 $321 -41.30577923141232333 $219 -37.5348906886444027 $214 $322 forward 7 unknown #
edge $-1 $220 -5.428407198169439951 $321 1.004706128837293117e-14 $125 $323 forward 7 unknown #
coedge $-1 $126 $313 $319 $324 forward $218 $-1 #
loop $-1 $-1 $313 $206 #
vertex $-1 $215 $325 #
vertex $-1 $127 $326 #
straight-curve $-1 -11.91368446360969102 17.65687649894095301 18.42178749981611929 1 0 0 I I #
coedge $-1 $222 $222 $-1 $327 reversed $130 $-1 #
edge $-1 $328 0 $328 6.283185307179586232 $131 $329 forward 7 unknown #
vertex $-1 $134 $330 #
ellipse-curve $-1 1.952434653654222529 19.50632965168752619 16.53634322843215898 -0.6946583786197038091 0 0.7193397924579483238 0.3596698962289741619 0 0.3473291893098519045 1 I I #
coedge $-1 $226 $226 $-1 $331 reversed $137 $-1 #
edge $-1 $332 0 $332 6.283185307179586232 $138 $333 forward 7 unknown #
vertex $-1 $141 $334 #
ellipse-curve $-1 1.952434653654222529 22.28050938080738419 16.53634322843215898 -0.6946583786197038091 0 0.7193397924579483238 0.3596698962289741619 0 0.3473291893098519045 1 I I #
coedge $-1 $230 $230 $-1 $335 reversed $144 $-1 #
edge $-1 $336 0 $336 6.283185307179586232 $145 $337 forward 7 unknown #
vertex $-1 $148 $338 #
ellipse-curve $-1 1.952434653654222529 25.05468910992724219 16.53634322843215898 -0.6946583786197038091 0 0.7193397924579483238 0.3596698962289741619 0 0.3473291893098519045 1 I I #
face $-1 $-1 $339 $24 $-1 $340 reversed single #
loop $-1 $-1 $155 $149 #
plane-surface $-1 61.20303964354381066 29.82581187279996016 18.42178749981611929 0 0 1 1 0 0 forward_v I I I I #
coedge $-1 $341 $342 $343 $344 reversed $150 $-1 #
coedge $-1 $345 $152 $154 $244 forward $91 $-1 #
coedge $-1 $152 $345 $341 $346 forward $91 $-1 #
coedge $-1 $343 $155 $152 $241 forward $235 $-1 #
edge $-1 $247 4.138095039348151261 $347 10.41957849876842346 $240 $348 forward 7 unknown #
coedge $-1 $349 $350 $153 $243 forward $339 $-1 #
edge $-1 $351 -84.26574555302008207 $246 -75.84886510669078064 $242 $352 forward 7 unknown #
edge $-1 $247 112.3701000984799236 $351 122.4060792870876071 $154 $353 forward 7 unknown #
coedge $-1 $155 $343 $349 $354 forward $235 $-1 #
vertex $-1 $243 $355 #
vertex $-1 $156 $356 #
straight-curve $-1 109.8001842759584292 18.40888006439352154 18.42178749981611219 -1 0 0 I I #
coedge $-1 $249 $249 $-1 $357 reversed $159 $-1 #
edge $-1 $358 0 $358 6.283185307179586232 $160 $359 forward 7 unknown #
vertex $-1 $163 $360 #
ellipse-curve $-1 119.6730863385801342 13.92210616480761409 14.21334727665147923 0.8386705759497471435 0 0.5446390226894501918 0.2723195113447250959 0 -0.4193352879748735718 1 I I #
coedge $-1 $253 $253 $-1 $361 reversed $166 $-1 #
edge $-1 $362 0 $362 6.283185307179586232 $167 $363 forward 7 unknown #
vertex $-1 $170 $364 #
ellipse-curve $-1 119.6730863385801342 16.61417050455915856 14.21334727665147923 0.8386705759497471435 0 0.5446390226894501918 0.2723195113447250959 0 -0.4193352879748735718 1 I I #
face $-1 $-1 $186 $18 $-1 $365 reversed single #
loop $-1 $-1 $273 $171 #
plane-surface $-1 61.20303964354381066 59.65162374559992031 9.210893749908059647 0 -1 0 0 0 -1 forward_v I I I I #
coedge $-1 $366 $271 $274 $367 forward $172 $-1 #
coedge $-1 $277 $174 $175 $265 reversed $105 $-1 #
coedge $-1 $271 $366 $174 $263 reversed $172 $-1 #
edge $-1 $278 -9.210893749908059647 $368 9.210893749908059647 $262 $369 forward 7 unknown #
coedge $-1 $176 $175 $366 $370 forward $64 $-1 #
edge $-1 $269 -61.20303964354381066 $368 61.20303964354381066 $261 $371 forward 7 unknown #
coedge $-1 $274 $273 $176 $267 reversed $258 $-1 #
edge $-1 $372 -61.20303964354381066 $268 61.20303964354381066 $266 $373 forward 7 unknown #
vertex $-1 $178 $374 #
vertex $-1 $280 $375 #
straight-curve $-1 122.4060792870876213 29.82581187279996016 0 0 -1 0 I I #
coedge $-1 $260 $262 $179 $272 reversed $172 $-1 #
edge $-1 $275 -29.82581187279996016 $278 29.82581187279996016 $271 $376 forward 7 unknown #
coedge $-1 $266 $180 $185 $281 forward $258 $-1 #
coedge $-1 $180 $266 $260 $367 reversed $258 $-1 #
vertex $-1 $181 $377 #
straight-curve $-1 61.20303964354381066 59.65162374559992031 18.42178749981611929 -1 0 0 I I #
coedge $-1 $182 $261 $184 $280 reversed $105 $-1 #
vertex $-1 $272 $378 #
straight-curve $-1 61.20303964354381066 0 18.42178749981611929 1 0 0 I I #
edge $-1 $187 -9.210893749908059647 $269 9.210893749908059647 $184 $379 forward 7 unknown #
edge $-1 $188 -9.210893749908059647 $268 9.210893749908059647 $185 $380 forward 7 unknown #
point $-1 122.4060792870876213 0 18.42178749981611929 #
point $-1 122.4060792870876213 59.65162374559992031 18.42178749981611929 #
face $-1 $-1 $381 $19 $-1 $382 reversed single #
loop $-1 $-1 $383 $190 #
plane-surface $-1 61.20303964354381066 29.82581187279996016 0 0 0 1 1 0 0 forward_v I I I I #
coedge $-1 $294 $304 $289 $384 forward $191 $-1 #
coedge $-1 $196 $193 $383 $385 reversed $113 $-1 #
coedge $-1 $193 $196 $287 $384 reversed $113 $-1 #
coedge $-1 $386 $387 $193 $291 forward $381 $-1 #
edge $-1 $388 -9.210893749908059647 $389 9.210893749908059647 $290 $390 forward 7 unknown #
coedge $-1 $383 $199 $194 $293 forward $285 $-1 #
edge $-1 $204 -23.64062607186384923 $297 -20.64062607186384923 $292 $391 forward 7 unknown #
coedge $-1 $201 $287 $195 $295 forward $191 $-1 #
edge $-1 $296 20.64062607186384923 $203 23.64062607186384923 $294 $392 forward 7 unknown #
vertex $-1 $295 $393 #
vertex $-1 $293 $394 #
straight-curve $-1 18.42178749981611929 12.12739660497324934 9.210893749908059647 0 0 -1 I I #
coedge $-1 $387 $386 $198 $300 forward $381 $-1 #
edge $-1 $305 -9.210893749908059647 $302 9.210893749908059647 $299 $395 forward 7 unknown #
coedge $-1 $199 $383 $387 $396 forward $285 $-1 #
vertex $-1 $200 $397 #
straight-curve $-1 15.42178749981611929 17.94475508764329419 0 0 1 0 I I #
coedge $-1 $287 $201 $386 $398 forward $191 $-1 #
vertex $-1 $398 $399 #
straight-curve $-1 15.42178749981611929 17.94475508764329419 18.42178749981611929 0 -1 0 I I #
point $-1 15.42178749981611929 12.12739660497324934 18.42178749981611929 #
point $-1 15.42178749981611929 12.12739660497324934 0 #
plane-surface $-1 61.20303964354381066 29.82581187279996016 18.42178749981611929 0 0 1 1 0 0 forward_v I I I I #
coedge $-1 $320 $319 $312 $400 forward $207 $-1 #
coedge $-1 $312 $209 $211 $316 reversed $121 $-1 #
coedge $-1 $209 $311 $310 $400 reversed $121 $-1 #
coedge $-1 $217 $212 $209 $314 forward $218 $-1 #
edge $-1 $317 -15.81855377091813608 $401 -11.91368446360969102 $313 $402 forward 7 unknown #
coedge $-1 $211 $210 $320 $403 reversed $72 $-1 #
edge $-1 $404 -1.004706128837293117e-14 $317 5.428407198169439951 $311 $405 forward 7 unknown #
vertex $-1 $213 $406 #
straight-curve $-1 3.904869307308445059 26.0531606268036704 18.42178749981611929 0 1 0 I I #
coedge $-1 $310 $214 $217 $324 reversed $207 $-1 #
coedge $-1 $214 $310 $315 $403 forward $207 $-1 #
vertex $-1 $215 $407 #
straight-curve $-1 0 17.65687649894095301 55.95667818846052199 0 0 1 I I #
straight-curve $-1 7.105427357601001859e-15 17.65687649894095301 14.65089895704820577 -0.7193397924579483238 0 -0.6946583786197038091 I I #
edge $-1 $401 2.921669610126151895 $219 12.16893537385900714 $319 $408 forward 7 unknown #
point $-1 0 17.65687649894095301 18.42178749981611929 #
point $-1 3.904869307308445059 17.65687649894095301 18.42178749981611929 #
edge $-1 $409 1 $409 0 $222 $-1 forward 7 unknown #
vertex $-1 $223 $410 #
ellipse-curve $-1 2.64709303227392212 19.50632965168752619 15.81700343597421821 -0.6946583786197038091 0 0.7193397924579483238 0.3596698962289741619 0 0.3473291893098519045 1 I I #
point $-1 2.312104549883187588 19.50632965168752619 16.88367241774201943 #
edge $-1 $411 1 $411 0 $226 $-1 forward 7 unknown #
vertex $-1 $227 $412 #
ellipse-curve $-1 2.64709303227392212 22.28050938080738419 15.81700343597421821 -0.6946583786197038091 0 0.7193397924579483238 0.3596698962289741619 0 0.3473291893098519045 1 I I #
point $-1 2.312104549883187588 22.28050938080738419 16.88367241774201943 #
edge $-1 $413 1 $413 0 $230 $-1 forward 7 unknown #
vertex $-1 $231 $414 #
ellipse-curve $-1 2.64709303227392212 25.05468910992724219 15.81700343597421821 -0.6946583786197038091 0 0.7193397924579483238 0.3596698962289741619 0 0.3473291893098519045 1 I I #
point $-1 2.312104549883187588 25.05468910992724219 16.88367241774201943 #
loop $-1 $-1 $242 $234 #
plane-surface $-1 122.4060792870876213 29.82581187279996016 9.210893749908059647 -1 0 0 0 0 1 forward_v I I I I #
coedge $-1 $342 $237 $239 $346 reversed $150 $-1 #
coedge $-1 $237 $341 $415 $416 reversed $150 $-1 #
coedge $-1 $245 $240 $237 $344 forward $235 $-1 #
edge $-1 $347 7.139909114114232125 $417 12.60589501112919208 $343 $418 forward 7 unknown #
coedge $-1 $239 $238 $350 $419 reversed $91 $-1 #
edge $-1 $420 -122.4060792870876071 $347 -112.3701000984799236 $341 $421 forward 7 unknown #
vertex $-1 $241 $422 #
straight-curve $-1 116.9400933900726614 22.5469751037416728 18.42178749981611929 0 -1 0 I I #
coedge $-1 $415 $242 $245 $354 reversed $339 $-1 #
coedge $-1 $242 $415 $345 $419 forward $339 $-1 #
vertex $-1 $243 $423 #
straight-curve $-1 122.4060792870876213 18.40888006439352154 94.27065260650689993 0 0 1 I I #
straight-curve $-1 55.73895189292087338 18.40888006439352154 112.6632840689389923 0.5446390226894501918 0 -0.8386705759497471435 I I #
edge $-1 $417 -17.69841526782671082 $246 -11.41693180840643862 $349 $424 forward 7 unknown #
point $-1 122.4060792870876213 18.40888006439352154 18.42178749981611929 #
point $-1 116.9400933900726614 18.40888006439352154 18.42178749981611219 #
edge $-1 $425 1 $425 0 $249 $-1 forward 7 unknown #
vertex $-1 $250 $426 #
ellipse-curve $-1 118.1702005425470077 13.92210616480761409 13.23736186040100549 0.8386705759497471435 0 0.5446390226894501918 0.2723195113447250959 0 -0.4193352879748735718 1 I I #
point $-1 119.9454058499248674 13.92210616480761409 13.79401198867660128 #
edge $-1 $427 1 $427 0 $253 $-1 forward 7 unknown #
vertex $-1 $254 $428 #
ellipse-curve $-1 118.1702005425470077 16.61417050455915856 13.23736186040100549 0.8386705759497471435 0 0.5446390226894501918 0.2723195113447250959 0 -0.4193352879748735718 1 I I #
point $-1 119.9454058499248674 16.61417050455915856 13.79401198867660128 #
plane-surface $-1 122.4060792870876213 29.82581187279996016 9.210893749908059647 -1 0 0 0 0 1 forward_v I I I I #
coedge $-1 $262 $260 $264 $370 reversed $172 $-1 #
edge $-1 $275 -9.210893749908059647 $372 9.210893749908059647 $274 $429 forward 7 unknown #
vertex $-1 $370 $430 #
straight-curve $-1 0 0 9.210893749908059647 0 0 -1 I I #
edge $-1 $368 -29.82581187279996016 $372 29.82581187279996016 $366 $431 forward 7 unknown #
straight-curve $-1 61.20303964354381066 0 0 -1 0 0 I I #
vertex $-1 $267 $432 #
straight-curve $-1 61.20303964354381066 59.65162374559992031 0 1 0 0 I I #
point $-1 122.4060792870876213 59.65162374559992031 0 #
point $-1 122.4060792870876213 0 0 #
straight-curve $-1 0 29.82581187279996016 18.42178749981611929 0 -1 0 I I #
point $-1 0 59.65162374559992031 18.42178749981611929 #
point $-1 0 0 18.42178749981611929 #
straight-curve $-1 122.4060792870876213 0 9.210893749908059647 0 0 -1 I I #
straight-curve $-1 122.4060792870876213 59.65162374559992031 9.210893749908059647 0 0 -1 I I #
loop $-1 $-1 $290 $284 #
plane-surface $-1 61.20303964354381066 0 9.210893749908059647 0 1 0 0 0 1 forward_v I I I I #
coedge $-1 $301 $292 $288 $385 forward $285 $-1 #
edge $-1 $389 -17.94475508764329419 $296 -5.81735848267004485 $287 $433 forward 7 unknown #
edge $-1 $297 5.81735848267004485 $388 17.94475508764329419 $383 $434 forward 7 unknown #
coedge $-1 $299 $290 $304 $398 reversed $381 $-1 #
coedge $-1 $290 $299 $301 $396 reversed $381 $-1 #
vertex $-1 $396 $435 #
vertex $-1 $291 $436 #
straight-curve $-1 18.42178749981611929 0 9.210893749908059647 0 0 1 I I #
straight-curve $-1 39.06241357167996853 12.12739660497324934 0 1 0 0 I I #
straight-curve $-1 39.06241357167996853 12.12739660497324934 18.42178749981611929 -1 0 0 I I #
point $-1 18.42178749981611929 12.12739660497324934 18.42178749981611929 #
point $-1 18.42178749981611929 12.12739660497324934 0 #
straight-curve $-1 15.42178749981611929 0 9.210893749908059647 0 0 -1 I I #
edge $-1 $388 42.78125214372769136 $302 45.78125214372769136 $387 $437 forward 7 unknown #
point $-1 15.42178749981611929 0 0 #
edge $-1 $305 -45.78125214372769136 $389 -42.78125214372769136 $386 $438 forward 7 unknown #
point $-1 15.42178749981611929 0 18.42178749981611929 #
edge $-1 $401 37.5348906886444027 $404 41.30577923141232333 $310 $439 forward 7 unknown #
vertex $-1 $324 $440 #
straight-curve $-1 -11.91368446360969102 26.90414226267380826 18.42178749981611929 -1 0 0 I I #
edge $-1 $404 -0.8509816358701378647 $321 8.396284127862717384 $320 $441 forward 7 unknown #
vertex $-1 $403 $442 #
straight-curve $-1 7.105427357601001859e-15 26.90414226267380826 14.65089895704820577 0.7193397924579483238 0 0.6946583786197038091 I I #
point $-1 3.904869307308445059 26.90414226267380826 18.42178749981611929 #
point $-1 0 17.65687649894095301 14.65089895704819867 #
straight-curve $-1 0 29.82581187279996016 18.42178749981611929 0 -1 0 I I #
vertex $-1 $327 $443 #
point $-1 3.006762928502894283 19.50632965168752619 16.16433262528407155 #
vertex $-1 $331 $444 #
point $-1 3.006762928502894283 22.28050938080738419 16.16433262528407155 #
vertex $-1 $335 $445 #
point $-1 3.006762928502894283 25.05468910992724219 16.16433262528407155 #
coedge $-1 $350 $349 $342 $416 forward $339 $-1 #
edge $-1 $417 75.84886510669078064 $420 84.26574555302008207 $415 $446 forward 7 unknown #
vertex $-1 $354 $447 #
straight-curve $-1 109.8001842759584292 12.12739660497324934 18.42178749981611219 1 0 0 I I #
edge $-1 $420 -10.41957849876842346 $351 -4.138095039348151261 $350 $448 forward 7 unknown #
vertex $-1 $419 $449 #
straight-curve $-1 55.73895189292087338 12.12739660497324934 112.6632840689389923 -0.5446390226894501918 0 0.8386705759497471435 I I #
point $-1 116.9400933900726614 12.12739660497324934 18.42178749981611219 #
point $-1 122.4060792870876355 18.40888006439352154 10.00490705348681075 #
straight-curve $-1 122.4060792870876213 29.82581187279996016 18.42178749981611929 0 1 0 I I #
vertex $-1 $357 $450 #
point $-1 118.4425200538917409 13.92210616480761409 12.81802657242613108 #
vertex $-1 $361 $451 #
point $-1 118.4425200538917409 16.61417050455915856 12.81802657242613108 #
straight-curve $-1 0 59.65162374559992031 9.210893749908059647 0 0 -1 I I #
point $-1 0 0 0 #
straight-curve $-1 0 29.82581187279996016 0 0 1 0 I I #
point $-1 0 59.65162374559992031 0 #
straight-curve $-1 18.42178749981611929 17.94475508764329419 18.42178749981611929 0 1 0 I I #
straight-curve $-1 18.42178749981611929 17.94475508764329419 0 0 -1 0 I I #
point $-1 18.42178749981611929 0 0 #
point $-1 18.42178749981611929 0 18.42178749981611929 #
straight-curve $-1 61.20303964354381066 0 0 -1 0 0 I I #
straight-curve $-1 61.20303964354381066 0 18.42178749981611929 1 0 0 I I #
straight-curve $-1 0 26.90414226267380826 55.95667818846052199 0 0 -1 I I #
point $-1 0 26.90414226267380826 18.42178749981611929 #
straight-curve $-1 0 26.0531606268036704 14.65089895704819867 0 -1 0 I I #
point $-1 0 26.90414226267380826 14.65089895704819867 #
point $-1 2.994422221583768362 19.50632965168752619 15.45733353974524604 #
point $-1 2.994422221583768362 22.28050938080738419 15.45733353974524604 #
point $-1 2.994422221583768362 25.05468910992724219 15.45733353974524604 #
straight-curve $-1 122.4060792870876213 12.12739660497324934 94.27065260650689993 0 0 -1 I I #
point $-1 122.4060792870876213 12.12739660497324934 18.42178749981611929 #
straight-curve $-1 122.4060792870876213 22.5469751037416728 10.00490705348681786 0 1 0 I I #
point $-1 122.4060792870876355 12.12739660497324934 10.00490705348681075 #
point $-1 117.7508652545721475 13.92210616480761409 12.96504234905627939 #
point $-1 117.7508652545721475 16.61417050455915856 12.96504234905627939 #
End-of-ACIS-data 