500 0 5 0           
7 Unknown 11 ACIS 5.0 NT 24 Fri Mar 26 19:00:33 1999 
-1 9.9999999999999995e-007 1e-010 
body $-1 $5 $-1 $6 #
body $-1 $7 $-1 $8 #
body $-1 $9 $-1 $10 #
body $-1 $11 $-1 $12 #
body $-1 $13 $-1 $14 #
lump $-1 $-1 $15 $0 #
transform $-1 1 0 0 0 1 0 0 0 1 62.760704367198706 31.510596877863989 11.156368800911761 1 rotate no_reflect no_shear #
lump $-1 $-1 $16 $1 #
transform $-1 1 0 0 0 1 0 0 0 1 62.760704367198706 31.510596877863989 11.156368800911761 1 rotate no_reflect no_shear #
lump $-1 $-1 $17 $2 #
transform $-1 1 0 0 0 1 0 0 0 1 62.760704367198706 31.510596877863989 11.156368800911761 1 rotate no_reflect no_shear #
lump $-1 $-1 $18 $3 #
transform $-1 1 0 0 0 1 0 0 0 1 62.760704367198706 31.510596877863989 11.156368800911761 1 rotate no_reflect no_shear #
lump $-1 $-1 $19 $4 #
transform $-1 1 0 0 0 1 0 0 0 1 62.760704367198706 31.510596877863989 11.156368800911761 1 rotate no_reflect no_shear #
shell $-1 $-1 $-1 $20 $-1 $5 #
shell $-1 $-1 $-1 $21 $-1 $7 #
shell $-1 $-1 $-1 $22 $-1 $9 #
shell $-1 $-1 $-1 $23 $-1 $11 #
shell $-1 $-1 $-1 $24 $-1 $13 #
face $-1 $25 $26 $15 $-1 $27 forward single #
face $-1 $28 $29 $16 $-1 $30 forward single #
face $-1 $31 $32 $17 $-1 $33 forward single #
face $-1 $34 $35 $18 $-1 $36 reversed single #
face $-1 $37 $38 $19 $-1 $39 reversed single #
face $-1 $40 $41 $15 $-1 $42 reversed single #
loop $-1 $-1 $43 $20 #
plane-surface $-1 0 0 11.156368800911761 0 0 1 1 0 0 forward_v I I I I #
face $-1 $44 $45 $16 $-1 $46 forward single #
loop $-1 $-1 $47 $21 #
plane-surface $-1 -60.335393478819093 -19.514240361606625 0 0 -1 0 0 0 -1 forward_v I I I I #
face $-1 $48 $49 $17 $-1 $50 forward single #
loop $-1 $-1 $51 $22 #
plane-surface $-1 -143.44431164375186 -11.36313321953218 103.51729012509848 0 -1 0 0.64278761758704617 0 -0.76604443648966558 forward_v I I I I #
face $-1 $52 $53 $18 $-1 $54 reversed single #
loop $-1 $55 $56 $23 #
cone-surface $-1 -60.178520971145907 -17.185352606728213 8.8763188340950627 0.64278761758704617 0 -0.76604443648966558 0.1915111091224164 0 0.16069690439676154 1 I I 0 1 0.25 forward I I I I #
face $-1 $57 $58 $19 $-1 $59 reversed single #
loop $-1 $60 $61 $24 #
cone-surface $-1 -60.178520971145907 -13.692020974410596 8.8763188340950627 0.64278761758704617 0 -0.76604443648966558 0.1915111091224164 0 0.16069690439676154 1 I I 0 1 0.25 forward I I I I #
face $-1 $62 $63 $15 $-1 $64 reversed single #
loop $-1 $-1 $65 $25 #
plane-surface $-1 0 0 -11.156368800911761 0 0 1 1 0 0 forward_v I I I I #
coedge $-1 $66 $67 $68 $69 forward $26 $-1 #
face $-1 $70 $71 $16 $-1 $72 forward single #
loop $-1 $-1 $73 $28 #
plane-surface $-1 -57.91008259043948 -25.512418619735307 0 -1 0 0 0 0 1 forward_v I I I I #
coedge $-1 $74 $75 $76 $77 reversed $29 $-1 #
face $-1 $78 $79 $17 $-1 $80 forward single #
loop $-1 $-1 $81 $31 #
plane-surface $-1 -62.760704367198684 -15.438686790569403 7.3623133037680191 -0.64278761758704617 0 0.76604443648966558 0.76604443648966558 0 0.64278761758704617 forward_v I I I I #
coedge $-1 $82 $83 $84 $85 reversed $32 $-1 #
face $-1 $86 $87 $18 $-1 $88 forward single #
loop $-1 $89 $90 $34 #
cone-surface $-1 -59.776778710154005 -17.185352606728213 8.3975410612890222 0.64278761758704617 0 -0.76604443648966558 0.095755554561208198 0 0.080348452198380771 1 I I -0.70710678118654746 0.70710678118654746 0.125 forward I I I I #
loop $-1 $-1 $91 $23 #
coedge $-1 $56 $56 $92 $93 reversed $35 $-1 #
face $-1 $94 $95 $19 $-1 $96 reversed single #
loop $-1 $97 $98 $37 #
cone-surface $-1 -59.776778710154005 -13.692020974410596 8.3975410612890222 0.64278761758704617 0 -0.76604443648966558 0.095755554561208198 0 0.080348452198380771 1 I I -0.70710678118654746 0.70710678118654746 0.125 forward I I I I #
loop $-1 $-1 $99 $24 #
coedge $-1 $61 $61 $100 $101 reversed $38 $-1 #
face $-1 $102 $103 $15 $-1 $104 reversed single #
loop $-1 $-1 $105 $40 #
plane-surface $-1 0 -31.510596877863989 0 0 1 0 0 0 1 forward_v I I I I #
coedge $-1 $106 $107 $108 $109 forward $41 $-1 #
coedge $-1 $110 $43 $111 $112 forward $26 $-1 #
coedge $-1 $43 $110 $113 $114 forward $26 $-1 #
coedge $-1 $115 $116 $43 $69 reversed $117 $-1 #
edge $-1 $118 -31.510596877863989 $119 31.510596877863989 $68 $120 forward 7 unknown #
face $-1 $121 $122 $16 $-1 $123 reversed single #
loop $-1 $-1 $124 $44 #
plane-surface $-1 0 0 11.156368800911761 0 0 1 1 0 0 forward_v I I I I #
coedge $-1 $125 $126 $127 $128 reversed $45 $-1 #
coedge $-1 $129 $47 $124 $130 reversed $29 $-1 #
coedge $-1 $47 $129 $131 $132 reversed $29 $-1 #
coedge $-1 $126 $125 $47 $77 forward $45 $-1 #
edge $-1 $133 -11.156368800911761 $134 11.156368800911761 $76 $135 forward 7 unknown #
face $-1 $136 $137 $17 $-1 $138 forward single #
loop $-1 $-1 $139 $48 #
plane-surface $-1 0 0 11.156368800911761 0 0 1 1 0 0 forward_v I I I I #
coedge $-1 $140 $141 $142 $143 reversed $49 $-1 #
coedge $-1 $83 $51 $141 $144 forward $32 $-1 #
coedge $-1 $51 $82 $139 $145 reversed $32 $-1 #
coedge $-1 $146 $142 $51 $85 forward $147 $-1 #
edge $-1 $148 -44.396331758781244 $149 -40.602276261637485 $84 $150 forward 7 unknown #
face $-1 $151 $152 $18 $-1 $153 forward single #
loop $-1 $-1 $154 $52 #
plane-surface $-1 -143.44431164375186 -11.36313321953218 103.51729012509848 0 -1 0 0.64278761758704617 0 -0.76604443648966558 forward_v I I I I #
loop $-1 $-1 $155 $34 #
coedge $-1 $90 $90 $91 $156 forward $53 $-1 #
coedge $-1 $91 $91 $90 $156 reversed $55 $-1 #
coedge $-1 $92 $92 $56 $93 forward $152 $-1 #
edge $-1 $157 0 $157 6.2831853071796004 $92 $158 forward 7 unknown #
face $-1 $159 $160 $19 $-1 $161 reversed single #
loop $-1 $162 $163 $57 #
cone-surface $-1 -60.178520971145907 -17.185352606728213 8.8763188340950627 0.64278761758704617 0 -0.76604443648966558 0.1915111091224164 0 0.16069690439676154 1 I I 0 1 0.25 forward I I I I #
loop $-1 $-1 $164 $37 #
coedge $-1 $98 $98 $99 $165 forward $58 $-1 #
coedge $-1 $99 $99 $98 $165 reversed $60 $-1 #
coedge $-1 $100 $100 $61 $101 forward $166 $-1 #
edge $-1 $167 0 $167 6.2831853071796004 $100 $168 forward 7 unknown #
face $-1 $169 $170 $15 $-1 $171 reversed single #
loop $-1 $-1 $172 $62 #
plane-surface $-1 -62.760704367198706 0 0 1 0 0 0 0 -1 forward_v I I I I #
coedge $-1 $173 $113 $174 $175 forward $63 $-1 #
coedge $-1 $176 $65 $173 $177 forward $41 $-1 #
coedge $-1 $65 $176 $178 $179 forward $41 $-1 #
coedge $-1 $116 $115 $65 $109 reversed $117 $-1 #
edge $-1 $180 -31.510596877863989 $181 31.510596877863989 $108 $182 forward 7 unknown #
coedge $-1 $67 $66 $183 $184 forward $26 $-1 #
coedge $-1 $185 $186 $66 $112 reversed $170 $-1 #
edge $-1 $119 -62.760704367198706 $187 62.760704367198706 $111 $188 forward 7 unknown #
coedge $-1 $105 $189 $67 $114 reversed $63 $-1 #
edge $-1 $190 -62.760704367198706 $118 62.760704367198706 $113 $191 forward 7 unknown #
coedge $-1 $108 $68 $189 $192 forward $117 $-1 #
coedge $-1 $68 $108 $185 $193 reversed $117 $-1 #
loop $-1 $-1 $115 $169 #
vertex $-1 $69 $194 #
vertex $-1 $69 $195 #
straight-curve $-1 62.760704367198706 0 11.156368800911761 0 1 0 I I #
face $-1 $196 $197 $16 $-1 $198 reversed single #
loop $-1 $-1 $127 $70 #
plane-surface $-1 0 -31.510596877863989 0 0 1 0 0 0 1 forward_v I I I I #
coedge $-1 $199 $200 $74 $130 forward $71 $-1 #
coedge $-1 $76 $73 $199 $201 reversed $45 $-1 #
coedge $-1 $73 $76 $202 $203 reversed $45 $-1 #
coedge $-1 $204 $205 $73 $128 forward $122 $-1 #
edge $-1 $206 -11.156368800911761 $207 11.156368800911761 $127 $208 forward 7 unknown #
coedge $-1 $75 $74 $209 $210 reversed $29 $-1 #
edge $-1 $211 -32.593007627789163 $133 -27.742385851029933 $124 $212 forward 7 unknown #
coedge $-1 $213 $202 $75 $132 forward $197 $-1 #
edge $-1 $134 27.742385851029933 $214 32.593007627789163 $131 $215 forward 7 unknown #
vertex $-1 $130 $216 #
vertex $-1 $132 $217 #
straight-curve $-1 -57.91008259043948 -19.514240361606625 0 0 0 -1 I I #
face $-1 $218 $219 $17 $-1 $220 forward single #
loop $-1 $-1 $221 $78 #
plane-surface $-1 -60.335393478819093 -19.514240361606625 0 0 -1 0 0 0 -1 forward_v I I I I #
coedge $-1 $222 $223 $83 $145 forward $79 $-1 #
coedge $-1 $224 $81 $221 $225 reversed $49 $-1 #
coedge $-1 $81 $224 $82 $144 reversed $49 $-1 #
coedge $-1 $84 $226 $81 $143 forward $147 $-1 #
edge $-1 $227 -11.794896966321923 $148 -3.6437898242474791 $142 $228 forward 7 unknown #
edge $-1 $148 -2.7747421096340558e-014 $229 5.9025024647895474 $82 $230 forward 7 unknown #
edge $-1 $149 8.9614514546772241 $229 13.483030629195817 $139 $231 forward 7 unknown #
coedge $-1 $232 $84 $223 $233 reversed $147 $-1 #
loop $-1 $-1 $84 $234 #
vertex $-1 $143 $235 #
vertex $-1 $145 $236 #
straight-curve $-1 -62.760704367198706 -11.36313321953218 51.758645062549242 0 0 1 I I #
face $-1 $237 $238 $18 $-1 $239 forward single #
loop $-1 $240 $92 $86 #
plane-surface $-1 -62.760704367198684 -15.438686790569403 7.3623133037680191 -0.64278761758704617 0 0.76604443648966558 0.76604443648966558 0 0.64278761758704617 forward_v I I I I #
coedge $-1 $241 $242 $243 $244 reversed $87 $-1 #
coedge $-1 $155 $155 $-1 $245 forward $89 $-1 #
edge $-1 $246 0 $246 6.2831853071796004 $90 $247 forward 7 unknown #
vertex $-1 $93 $248 #
ellipse-curve $-1 -60.499914779939417 -17.185352606728213 9.2593410523398774 0.64278761758704617 0 -0.76604443648966558 0.1915111091224164 0 0.16069690439676154 1 I I #
face $-1 $249 $250 $19 $-1 $251 forward single #
loop $-1 $252 $253 $94 #
cone-surface $-1 -59.776778710154005 -17.185352606728213 8.3975410612890222 0.64278761758704617 0 -0.76604443648966558 0.095755554561208198 0 0.080348452198380771 1 I I -0.70710678118654746 0.70710678118654746 0.125 forward I I I I #
loop $-1 $-1 $254 $57 #
coedge $-1 $163 $163 $255 $256 reversed $95 $-1 #
coedge $-1 $164 $164 $-1 $257 forward $97 $-1 #
edge $-1 $258 0 $258 6.2831853071796004 $98 $259 forward 7 unknown #
loop $-1 $260 $100 $249 #
vertex $-1 $101 $261 #
ellipse-curve $-1 -60.499914779939417 -13.692020974410596 9.2593410523398774 0.64278761758704617 0 -0.76604443648966558 0.1915111091224164 0 0.16069690439676154 1 I I #
face $-1 $-1 $117 $15 $-1 $262 reversed single #
loop $-1 $-1 $185 $102 #
plane-surface $-1 0 31.510596877863989 0 0 -1 0 0 0 -1 forward_v I I I I #
coedge $-1 $263 $183 $186 $264 forward $103 $-1 #
coedge $-1 $189 $105 $106 $177 reversed $63 $-1 #
coedge $-1 $183 $263 $105 $175 reversed $103 $-1 #
edge $-1 $190 -11.156368800911761 $265 11.156368800911761 $174 $266 forward 7 unknown #
coedge $-1 $107 $106 $263 $267 forward $41 $-1 #
edge $-1 $181 -62.760704367198706 $265 62.760704367198706 $173 $268 forward 7 unknown #
coedge $-1 $186 $185 $107 $179 reversed $170 $-1 #
edge $-1 $269 -62.760704367198706 $180 62.760704367198706 $178 $270 forward 7 unknown #
vertex $-1 $109 $271 #
vertex $-1 $192 $272 #
straight-curve $-1 62.760704367198706 0 -11.156368800911761 0 -1 0 I I #
coedge $-1 $172 $174 $110 $184 reversed $103 $-1 #
edge $-1 $187 -31.510596877863989 $190 31.510596877863989 $183 $273 forward 7 unknown #
coedge $-1 $178 $111 $116 $193 forward $170 $-1 #
coedge $-1 $111 $178 $172 $264 reversed $170 $-1 #
vertex $-1 $112 $274 #
straight-curve $-1 0 31.510596877863989 11.156368800911761 -1 0 0 I I #
coedge $-1 $113 $173 $115 $192 reversed $63 $-1 #
vertex $-1 $184 $275 #
straight-curve $-1 0 -31.510596877863989 11.156368800911761 1 0 0 I I #
edge $-1 $118 -11.156368800911761 $181 11.156368800911761 $115 $276 forward 7 unknown #
edge $-1 $119 -11.156368800911761 $180 11.156368800911761 $116 $277 forward 7 unknown #
point $-1 62.760704367198706 -31.510596877863989 11.156368800911761 #
point $-1 62.760704367198706 31.510596877863989 11.156368800911761 #
face $-1 $278 $279 $16 $-1 $280 reversed single #
loop $-1 $-1 $131 $121 #
plane-surface $-1 0 0 -11.156368800911761 0 0 1 1 0 0 forward_v I I I I #
coedge $-1 $281 $124 $125 $201 forward $71 $-1 #
coedge $-1 $124 $282 $283 $284 forward $71 $-1 #
edge $-1 $133 6.7580310517389712 $206 18.754387567996336 $199 $285 forward 7 unknown #
coedge $-1 $131 $286 $126 $203 forward $197 $-1 #
edge $-1 $207 -18.754387567996336 $134 -6.7580310517389712 $202 $287 forward 7 unknown #
coedge $-1 $288 $127 $286 $289 reversed $122 $-1 #
coedge $-1 $127 $288 $281 $290 reversed $122 $-1 #
vertex $-1 $290 $291 #
vertex $-1 $128 $292 #
straight-curve $-1 -57.91008259043948 -31.510596877863989 0 0 0 -1 I I #
coedge $-1 $283 $293 $129 $210 forward $279 $-1 #
edge $-1 $214 -11.156368800911761 $211 11.156368800911761 $209 $294 forward 7 unknown #
vertex $-1 $210 $295 #
straight-curve $-1 -30.167696739409546 -19.514240361606625 11.156368800911761 1 0 0 I I #
coedge $-1 $296 $131 $293 $297 forward $197 $-1 #
vertex $-1 $297 $298 #
straight-curve $-1 -30.167696739409546 -19.514240361606625 -11.156368800911761 -1 0 0 I I #
point $-1 -57.91008259043948 -19.514240361606625 11.156368800911761 #
point $-1 -57.91008259043948 -19.514240361606625 -11.156368800911761 #
face $-1 $299 $300 $17 $-1 $301 reversed single #
loop $-1 $-1 $302 $136 #
plane-surface $-1 -57.91008259043948 -25.512418619735307 0 -1 0 0 0 0 1 forward_v I I I I #
coedge $-1 $303 $304 $140 $225 forward $137 $-1 #
coedge $-1 $305 $139 $224 $306 forward $79 $-1 #
coedge $-1 $139 $307 $146 $233 forward $79 $-1 #
coedge $-1 $141 $140 $222 $306 reversed $49 $-1 #
edge $-1 $308 -7.3397564226182883 $227 -1.4372539578287089 $221 $309 forward 7 unknown #
coedge $-1 $142 $310 $303 $311 forward $147 $-1 #
vertex $-1 $225 $312 #
straight-curve $-1 -62.760704367198706 -7.7193433952847013 7.3623133037680084 0 1 0 I I #
vertex $-1 $306 $313 #
straight-curve $-1 -62.760704367198684 -11.36313321953218 7.3623133037680191 0.76604443648966558 0 0.64278761758704617 I I #
straight-curve $-1 -71.72215582187593 -11.36313321953218 11.156368800911757 1 0 0 I I #
coedge $-1 $310 $146 $314 $315 forward $147 $-1 #
edge $-1 $316 -31.510596877863989 $149 11.36313321953218 $146 $317 forward 7 unknown #
face $-1 $318 $147 $17 $-1 $319 reversed single #
point $-1 -62.760704367198706 -11.36313321953218 7.3623133037680013 #
point $-1 -62.760704367198706 -11.36313321953218 11.156368800911761 #
face $-1 $320 $321 $18 $-1 $322 forward single #
loop $-1 $-1 $323 $151 #
plane-surface $-1 0 0 11.156368800911761 0 0 1 1 0 0 forward_v I I I I #
loop $-1 $-1 $324 $86 #
coedge $-1 $242 $154 $325 $326 forward $87 $-1 #
coedge $-1 $154 $241 $323 $327 reversed $87 $-1 #
coedge $-1 $328 $329 $154 $244 forward $330 $-1 #
edge $-1 $331 -44.396331758781244 $332 -40.602276261637485 $243 $333 forward 7 unknown #
edge $-1 $334 1 $334 0 $155 $-1 forward 7 unknown #
vertex $-1 $156 $335 #
ellipse-curve $-1 -59.857127162352384 -17.185352606728213 8.4932966158502303 -0.64278761758704617 0 0.76604443648966558 0.1915111091224164 0 0.16069690439676154 1 I I #
point $-1 -60.308403670817015 -17.185352606728213 9.4200379567366568 #
face $-1 $336 $166 $19 $-1 $337 forward single #
loop $-1 $-1 $338 $159 #
plane-surface $-1 -143.44431164375186 -11.36313321953218 103.51729012509848 0 -1 0 0.64278761758704617 0 -0.76604443648966558 forward_v I I I I #
loop $-1 $-1 $339 $94 #
coedge $-1 $253 $253 $254 $340 forward $160 $-1 #
coedge $-1 $254 $254 $253 $340 reversed $162 $-1 #
coedge $-1 $255 $255 $163 $256 forward $260 $-1 #
edge $-1 $341 0 $341 6.2831853071796004 $255 $342 forward 7 unknown #
edge $-1 $343 1 $343 0 $164 $-1 forward 7 unknown #
vertex $-1 $165 $344 #
ellipse-curve $-1 -59.857127162352384 -13.692020974410596 8.4932966158502303 -0.64278761758704617 0 0.76604443648966558 0.1915111091224164 0 0.16069690439676154 1 I I #
loop $-1 $345 $255 $249 #
point $-1 -60.308403670817015 -13.692020974410596 9.4200379567366568 #
plane-surface $-1 62.760704367198706 0 0 -1 0 0 0 0 1 forward_v I I I I #
coedge $-1 $174 $172 $176 $267 reversed $103 $-1 #
edge $-1 $187 -11.156368800911761 $269 11.156368800911761 $186 $346 forward 7 unknown #
vertex $-1 $267 $347 #
straight-curve $-1 -62.760704367198706 -31.510596877863989 0 0 0 -1 I I #
edge $-1 $265 -31.510596877863989 $269 31.510596877863989 $263 $348 forward 7 unknown #
straight-curve $-1 0 -31.510596877863989 -11.156368800911761 -1 0 0 I I #
vertex $-1 $179 $349 #
straight-curve $-1 0 31.510596877863989 -11.156368800911761 1 0 0 I I #
point $-1 62.760704367198706 31.510596877863989 -11.156368800911761 #
point $-1 62.760704367198706 -31.510596877863989 -11.156368800911761 #
straight-curve $-1 -62.760704367198706 0 11.156368800911761 0 -1 0 I I #
point $-1 -62.760704367198706 31.510596877863989 11.156368800911761 #
point $-1 -62.760704367198706 -31.510596877863989 11.156368800911761 #
straight-curve $-1 62.760704367198706 -31.510596877863989 0 0 0 -1 I I #
straight-curve $-1 62.760704367198706 31.510596877863989 0 0 0 -1 I I #
face $-1 $350 $351 $16 $-1 $352 reversed single #
loop $-1 $-1 $209 $196 #
plane-surface $-1 -62.760704367198706 0 0 1 0 0 0 0 -1 forward_v I I I I #
coedge $-1 $353 $199 $205 $290 forward $71 $-1 #
coedge $-1 $200 $353 $354 $355 forward $71 $-1 #
coedge $-1 $356 $209 $200 $284 reversed $279 $-1 #
edge $-1 $357 -31.510596877863989 $211 19.514240361606625 $283 $358 forward 7 unknown #
straight-curve $-1 -57.91008259043948 -12.756209309867653 11.156368800911761 0 -1 0 I I #
coedge $-1 $202 $359 $204 $289 forward $197 $-1 #
straight-curve $-1 -57.91008259043948 -12.756209309867653 -11.156368800911761 0 1 0 I I #
coedge $-1 $205 $204 $360 $361 reversed $122 $-1 #
edge $-1 $362 -62.760704367198706 $207 57.91008259043948 $204 $363 forward 7 unknown #
edge $-1 $206 -57.91008259043948 $364 62.760704367198706 $205 $365 forward 7 unknown #
point $-1 -57.91008259043948 -31.510596877863989 11.156368800911761 #
point $-1 -57.91008259043948 -31.510596877863989 -11.156368800911761 #
coedge $-1 $209 $356 $213 $297 reversed $279 $-1 #
straight-curve $-1 -62.760704367198706 -19.514240361606625 0 0 0 1 I I #
point $-1 -62.760704367198706 -19.514240361606625 11.156368800911761 #
coedge $-1 $359 $213 $366 $367 forward $197 $-1 #
edge $-1 $214 -19.514240361606625 $368 31.510596877863989 $293 $369 forward 7 unknown #
point $-1 -62.760704367198706 -19.514240361606625 -11.156368800911761 #
face $-1 $234 $370 $17 $-1 $371 reversed single #
loop $-1 $-1 $372 $218 #
plane-surface $-1 0 -31.510596877863989 0 0 1 0 0 0 1 forward_v I I I I #
coedge $-1 $373 $374 $372 $375 reversed $219 $-1 #
coedge $-1 $376 $221 $226 $311 reversed $137 $-1 #
coedge $-1 $221 $377 $305 $378 reversed $137 $-1 #
coedge $-1 $379 $222 $304 $378 forward $79 $-1 #
edge $-1 $229 3.6437898242474791 $308 11.794896966321923 $222 $380 forward 7 unknown #
coedge $-1 $223 $381 $382 $383 forward $79 $-1 #
vertex $-1 $378 $384 #
straight-curve $-1 -63.861704765416142 -19.514240361606625 6.4384642563477357 -0.76604443648966558 0 -0.64278761758704617 I I #
coedge $-1 $226 $232 $385 $386 reversed $147 $-1 #
edge $-1 $387 -11.156368800911761 $227 7.3623133037680022 $226 $388 forward 7 unknown #
point $-1 -62.760704367198706 -19.514240361606625 7.3623133037680022 #
point $-1 -58.239125192680113 -11.36313321953218 11.156368800911761 #
coedge $-1 $382 $389 $232 $315 reversed $390 $-1 #
edge $-1 $316 -11.156368800911761 $391 11.156368800911761 $314 $392 forward 7 unknown #
vertex $-1 $383 $393 #
straight-curve $-1 -62.760704367198706 0 11.156368800911761 0 -1 0 I I #
face $-1 $394 $390 $17 $-1 $395 reversed single #
plane-surface $-1 -62.760704367198706 0 0 1 0 0 0 0 -1 forward_v I I I I #
face $-1 $396 $397 $18 $-1 $398 forward single #
loop $-1 $-1 $399 $237 #
plane-surface $-1 -60.335393478819093 -19.514240361606625 0 0 -1 0 0 0 -1 forward_v I I I I #
coedge $-1 $400 $401 $242 $327 forward $238 $-1 #
coedge $-1 $402 $325 $329 $403 reversed $240 $-1 #
coedge $-1 $324 $404 $241 $326 reversed $240 $-1 #
edge $-1 $331 -2.7747421096340558e-014 $405 5.9025024647895474 $241 $406 forward 7 unknown #
edge $-1 $332 8.9614514546772241 $405 13.483030629195817 $323 $407 forward 7 unknown #
coedge $-1 $408 $243 $401 $409 reversed $330 $-1 #
coedge $-1 $243 $410 $324 $403 forward $330 $-1 #
loop $-1 $-1 $243 $411 #
vertex $-1 $403 $412 #
vertex $-1 $327 $413 #
straight-curve $-1 -62.760704367198706 -11.36313321953218 51.758645062549242 0 0 1 I I #
vertex $-1 $245 $414 #
point $-1 -59.665616053229968 -17.185352606728213 8.653993520246992 #
face $-1 $415 $416 $19 $-1 $417 forward single #
plane-surface $-1 -62.760704367198684 -15.438686790569403 7.3623133037680191 -0.64278761758704617 0 0.76604443648966558 0.76604443648966558 0 0.64278761758704617 forward_v I I I I #
coedge $-1 $418 $419 $420 $421 reversed $250 $-1 #
coedge $-1 $339 $339 $-1 $422 forward $252 $-1 #
edge $-1 $423 0 $423 6.2831853071796004 $253 $424 forward 7 unknown #
vertex $-1 $256 $425 #
ellipse-curve $-1 -60.499914779939417 -17.185352606728213 9.2593410523398774 0.64278761758704617 0 -0.76604443648966558 0.1915111091224164 0 0.16069690439676154 1 I I #
vertex $-1 $257 $426 #
point $-1 -59.665616053229968 -13.692020974410596 8.653993520246992 #
loop $-1 $-1 $427 $249 #
straight-curve $-1 -62.760704367198706 31.510596877863989 0 0 0 -1 I I #
point $-1 -62.760704367198706 -31.510596877863989 -11.156368800911761 #
straight-curve $-1 -62.760704367198706 0 -11.156368800911761 0 1 0 I I #
point $-1 -62.760704367198706 31.510596877863989 -11.156368800911761 #
face $-1 $-1 $428 $16 $-1 $429 reversed single #
loop $-1 $-1 $430 $278 #
plane-surface $-1 0 31.510596877863989 0 0 -1 0 0 0 -1 forward_v I I I I #
coedge $-1 $282 $281 $431 $432 forward $71 $-1 #
coedge $-1 $430 $433 $282 $355 reversed $351 $-1 #
edge $-1 $434 -62.760704367198706 $357 62.760704367198706 $354 $435 forward 7 unknown #
coedge $-1 $293 $283 $433 $436 forward $279 $-1 #
vertex $-1 $355 $437 #
straight-curve $-1 -62.760704367198706 0 11.156368800911761 0 -1 0 I I #
coedge $-1 $286 $296 $438 $439 forward $197 $-1 #
coedge $-1 $438 $431 $288 $361 forward $428 $-1 #
edge $-1 $364 -11.156368800911761 $362 11.156368800911761 $360 $440 forward 7 unknown #
vertex $-1 $361 $441 #
straight-curve $-1 0 -31.510596877863989 -11.156368800911761 -1 0 0 I I #
vertex $-1 $432 $442 #
straight-curve $-1 0 -31.510596877863989 11.156368800911761 1 0 0 I I #
coedge $-1 $433 $430 $296 $367 reversed $351 $-1 #
edge $-1 $368 -62.760704367198706 $443 62.760704367198706 $366 $444 forward 7 unknown #
vertex $-1 $367 $445 #
straight-curve $-1 -62.760704367198706 0 -11.156368800911761 0 1 0 I I #
loop $-1 $-1 $446 $299 #
plane-surface $-1 0 0 -11.156368800911761 0 0 1 1 0 0 forward_v I I I I #
coedge $-1 $447 $448 $302 $375 forward $300 $-1 #
coedge $-1 $449 $302 $379 $450 reversed $219 $-1 #
coedge $-1 $302 $449 $451 $452 reversed $219 $-1 #
edge $-1 $453 -11.156368800911761 $454 11.156368800911761 $372 $455 forward 7 unknown #
coedge $-1 $377 $303 $446 $456 reversed $137 $-1 #
coedge $-1 $304 $376 $449 $457 reversed $137 $-1 #
edge $-1 $308 -28.07142845327056 $458 -27.742385851029933 $305 $459 forward 7 unknown #
coedge $-1 $460 $305 $373 $450 forward $79 $-1 #
straight-curve $-1 -58.239125192680113 -7.7193433952847013 11.156368800911762 0 -1 0 I I #
coedge $-1 $307 $460 $461 $462 forward $79 $-1 #
coedge $-1 $463 $314 $307 $383 reversed $390 $-1 #
edge $-1 $464 -62.760704367198706 $316 62.760704367198706 $382 $465 forward 7 unknown #
point $-1 -58.239125192680106 -19.514240361606625 11.156368800911761 #
coedge $-1 $466 $446 $310 $386 forward $370 $-1 #
edge $-1 $387 -19.514240361606625 $391 31.510596877863989 $310 $467 forward 7 unknown #
vertex $-1 $386 $468 #
straight-curve $-1 -62.760704367198706 -19.514240361606625 0 0 0 1 I I #
coedge $-1 $314 $463 $466 $469 reversed $390 $-1 #
loop $-1 $-1 $463 $318 #
vertex $-1 $469 $470 #
straight-curve $-1 -62.760704367198706 31.510596877863989 0 0 0 -1 I I #
point $-1 -62.760704367198706 31.510596877863989 11.156368800911761 #
face $-1 $-1 $471 $17 $-1 $472 reversed single #
plane-surface $-1 0 31.510596877863989 0 0 -1 0 0 0 -1 forward_v I I I I #
face $-1 $473 $474 $18 $-1 $475 reversed single #
loop $-1 $-1 $476 $320 #
plane-surface $-1 -57.91008259043948 -25.512418619735307 0 -1 0 0 0 0 1 forward_v I I I I #
coedge $-1 $477 $478 $402 $479 forward $321 $-1 #
coedge $-1 $480 $323 $404 $481 forward $238 $-1 #
coedge $-1 $323 $482 $328 $409 forward $238 $-1 #
coedge $-1 $404 $324 $399 $479 reversed $240 $-1 #
edge $-1 $483 -11.794896966321923 $331 -3.6437898242474791 $329 $484 forward 7 unknown #
coedge $-1 $325 $402 $400 $481 reversed $240 $-1 #
vertex $-1 $481 $485 #
straight-curve $-1 -62.760704367198684 -11.36313321953218 7.3623133037680191 0.76604443648966558 0 0.64278761758704617 I I #
straight-curve $-1 -71.72215582187593 -11.36313321953218 11.156368800911757 1 0 0 I I #
coedge $-1 $486 $328 $487 $488 forward $330 $-1 #
edge $-1 $489 -31.510596877863989 $332 11.36313321953218 $328 $490 forward 7 unknown #
coedge $-1 $329 $486 $477 $491 forward $330 $-1 #
face $-1 $492 $330 $18 $-1 $493 reversed single #
point $-1 -62.760704367198706 -11.36313321953218 7.3623133037680013 #
point $-1 -62.760704367198706 -11.36313321953218 11.156368800911761 #
point $-1 -59.696430257955626 -17.185352606728213 8.3017855067278141 #
face $-1 $494 $495 $19 $-1 $496 forward single #
loop $-1 $-1 $497 $336 #
plane-surface $-1 0 0 11.156368800911761 0 0 1 1 0 0 forward_v I I I I #
coedge $-1 $419 $338 $498 $499 forward $250 $-1 #
coedge $-1 $338 $418 $497 $500 reversed $250 $-1 #
coedge $-1 $501 $502 $338 $421 forward $503 $-1 #
edge $-1 $504 -44.396331758781244 $505 -40.602276261637485 $420 $506 forward 7 unknown #
edge $-1 $507 1 $507 0 $339 $-1 forward 7 unknown #
vertex $-1 $340 $508 #
ellipse-curve $-1 -59.857127162352384 -17.185352606728213 8.4932966158502303 -0.64278761758704617 0 0.76604443648966558 0.1915111091224164 0 0.16069690439676154 1 I I #
point $-1 -60.308403670817015 -17.185352606728213 9.4200379567366568 #
point $-1 -59.696430257955626 -13.692020974410596 8.3017855067278141 #
coedge $-1 $509 $498 $502 $510 reversed $345 $-1 #
loop $-1 $-1 $360 $350 #
plane-surface $-1 62.760704367198706 0 0 -1 0 0 0 0 1 forward_v I I I I #
coedge $-1 $366 $354 $511 $512 forward $351 $-1 #
coedge $-1 $360 $511 $353 $432 reversed $428 $-1 #
edge $-1 $364 -31.510596877863989 $434 31.510596877863989 $431 $513 forward 7 unknown #
coedge $-1 $354 $366 $356 $436 reversed $351 $-1 #
vertex $-1 $432 $514 #
straight-curve $-1 0 31.510596877863989 11.156368800911761 -1 0 0 I I #
edge $-1 $357 -11.156368800911761 $368 11.156368800911761 $433 $515 forward 7 unknown #
point $-1 -62.760704367198706 31.510596877863989 11.156368800911761 #
coedge $-1 $511 $360 $359 $439 reversed $428 $-1 #
edge $-1 $443 -31.510596877863989 $362 31.510596877863989 $438 $516 forward 7 unknown #
straight-curve $-1 62.760704367198706 -31.510596877863989 0 0 0 -1 I I #
point $-1 62.760704367198706 -31.510596877863989 -11.156368800911761 #
point $-1 62.760704367198706 -31.510596877863989 11.156368800911761 #
vertex $-1 $439 $517 #
straight-curve $-1 0 31.510596877863989 -11.156368800911761 1 0 0 I I #
point $-1 -62.760704367198706 31.510596877863989 -11.156368800911761 #
coedge $-1 $385 $451 $376 $456 forward $370 $-1 #
coedge $-1 $518 $372 $519 $520 reversed $300 $-1 #
coedge $-1 $372 $518 $460 $521 reversed $300 $-1 #
coedge $-1 $374 $373 $377 $457 forward $219 $-1 #
edge $-1 $458 6.7580310517389712 $453 18.754387567996336 $379 $522 forward 7 unknown #
coedge $-1 $446 $519 $374 $452 forward $370 $-1 #
edge $-1 $454 -18.754387567996336 $523 -6.7580310517389712 $451 $524 forward 7 unknown #
vertex $-1 $521 $525 #
vertex $-1 $375 $526 #
straight-curve $-1 -57.91008259043948 -31.510596877863989 0 0 0 -1 I I #
edge $-1 $523 27.742385851029933 $387 32.593007627789163 $446 $527 forward 7 unknown #
edge $-1 $458 -11.156368800911761 $523 11.156368800911761 $449 $528 forward 7 unknown #
vertex $-1 $378 $529 #
straight-curve $-1 -30.167696739409546 -19.514240361606625 11.156368800911761 1 0 0 I I #
coedge $-1 $381 $379 $448 $521 forward $79 $-1 #
coedge $-1 $530 $531 $381 $462 reversed $471 $-1 #
edge $-1 $532 -31.510596877863989 $464 31.510596877863989 $461 $533 forward 7 unknown #
coedge $-1 $389 $382 $531 $534 forward $390 $-1 #
vertex $-1 $462 $535 #
straight-curve $-1 0 31.510596877863989 11.156368800911761 -1 0 0 I I #
coedge $-1 $536 $385 $389 $469 forward $370 $-1 #
straight-curve $-1 -62.760704367198706 0 -11.156368800911761 0 1 0 I I #
point $-1 -62.760704367198706 -19.514240361606625 -11.156368800911761 #
edge $-1 $391 -62.760704367198706 $537 62.760704367198706 $389 $538 forward 7 unknown #
point $-1 -62.760704367198706 31.510596877863989 -11.156368800911761 #
loop $-1 $-1 $530 $394 #
plane-surface $-1 62.760704367198706 0 0 -1 0 0 0 0 1 forward_v I I I I #
face $-1 $411 $539 $18 $-1 $540 reversed single #
loop $-1 $-1 $541 $396 #
plane-surface $-1 0 -31.510596877863989 0 0 1 0 0 0 1 forward_v I I I I #
coedge $-1 $542 $543 $541 $544 reversed $397 $-1 #
coedge $-1 $545 $399 $410 $491 reversed $321 $-1 #
coedge $-1 $399 $546 $480 $547 reversed $321 $-1 #
edge $-1 $548 -7.3397564226182883 $483 -1.4372539578287089 $399 $549 forward 7 unknown #
coedge $-1 $550 $400 $478 $547 forward $238 $-1 #
edge $-1 $405 3.6437898242474791 $548 11.794896966321923 $400 $551 forward 7 unknown #
coedge $-1 $401 $552 $553 $554 forward $238 $-1 #
vertex $-1 $479 $555 #
straight-curve $-1 -62.760704367198706 -7.7193433952847013 7.3623133037680084 0 1 0 I I #
point $-1 -58.239125192680113 -11.36313321953218 11.156368800911761 #
coedge $-1 $410 $408 $556 $557 reversed $330 $-1 #
coedge $-1 $553 $558 $408 $488 reversed $559 $-1 #
edge $-1 $489 -11.156368800911761 $560 11.156368800911761 $487 $561 forward 7 unknown #
vertex $-1 $554 $562 #
straight-curve $-1 -62.760704367198706 0 11.156368800911761 0 -1 0 I I #
edge $-1 $563 -11.156368800911761 $483 7.3623133037680022 $410 $564 forward 7 unknown #
face $-1 $565 $559 $18 $-1 $566 reversed single #
plane-surface $-1 -62.760704367198706 0 0 1 0 0 0 0 -1 forward_v I I I I #
face $-1 $567 $568 $19 $-1 $569 forward single #
loop $-1 $-1 $570 $415 #
plane-surface $-1 -60.335393478819093 -19.514240361606625 0 0 -1 0 0 0 -1 forward_v I I I I #
coedge $-1 $571 $572 $419 $500 forward $416 $-1 #
coedge $-1 $427 $573 $418 $499 reversed $345 $-1 #
edge $-1 $504 -2.7747421096340558e-014 $574 5.9025024647895474 $418 $575 forward 7 unknown #
edge $-1 $505 8.9614514546772241 $574 13.483030629195817 $497 $576 forward 7 unknown #
coedge $-1 $577 $420 $572 $578 reversed $503 $-1 #
coedge $-1 $420 $579 $427 $510 forward $503 $-1 #
loop $-1 $-1 $420 $580 #
vertex $-1 $510 $581 #
vertex $-1 $500 $582 #
straight-curve $-1 -62.760704367198706 -11.36313321953218 51.758645062549242 0 0 1 I I #
vertex $-1 $422 $583 #
point $-1 -59.665616053229968 -17.185352606728213 8.653993520246992 #
coedge $-1 $573 $427 $570 $584 reversed $345 $-1 #
edge $-1 $585 -11.794896966321923 $504 -3.6437898242474791 $502 $586 forward 7 unknown #
coedge $-1 $431 $438 $430 $512 reversed $428 $-1 #
edge $-1 $434 -11.156368800911761 $443 11.156368800911761 $511 $587 forward 7 unknown #
straight-curve $-1 62.760704367198706 0 11.156368800911761 0 1 0 I I #
point $-1 62.760704367198706 31.510596877863989 11.156368800911761 #
straight-curve $-1 -62.760704367198706 31.510596877863989 0 0 0 -1 I I #
straight-curve $-1 62.760704367198706 0 -11.156368800911761 0 -1 0 I I #
point $-1 62.760704367198706 31.510596877863989 -11.156368800911761 #
coedge $-1 $448 $447 $530 $588 reversed $300 $-1 #
coedge $-1 $451 $536 $447 $520 forward $370 $-1 #
edge $-1 $589 -62.760704367198706 $454 57.91008259043948 $447 $590 forward 7 unknown #
edge $-1 $453 -57.91008259043948 $532 62.760704367198706 $448 $591 forward 7 unknown #
straight-curve $-1 -57.91008259043948 -12.756209309867653 11.156368800911761 0 -1 0 I I #
vertex $-1 $456 $592 #
straight-curve $-1 -57.91008259043948 -12.756209309867653 -11.156368800911761 0 1 0 I I #
point $-1 -57.91008259043948 -31.510596877863989 11.156368800911761 #
point $-1 -57.91008259043948 -31.510596877863989 -11.156368800911761 #
straight-curve $-1 -30.167696739409546 -19.514240361606625 -11.156368800911761 -1 0 0 I I #
straight-curve $-1 -57.91008259043948 -19.514240361606625 0 0 0 -1 I I #
point $-1 -57.91008259043948 -19.514240361606625 11.156368800911761 #
coedge $-1 $593 $461 $518 $588 forward $471 $-1 #
coedge $-1 $461 $593 $463 $534 reversed $471 $-1 #
vertex $-1 $462 $594 #
straight-curve $-1 62.760704367198706 0 11.156368800911761 0 1 0 I I #
edge $-1 $464 -11.156368800911761 $537 11.156368800911761 $531 $595 forward 7 unknown #
point $-1 62.760704367198706 31.510596877863989 11.156368800911761 #
coedge $-1 $519 $466 $593 $596 forward $370 $-1 #
vertex $-1 $596 $597 #
straight-curve $-1 0 31.510596877863989 -11.156368800911761 1 0 0 I I #
loop $-1 $-1 $598 $473 #
plane-surface $-1 0 0 -11.156368800911761 0 0 1 1 0 0 forward_v I I I I #
coedge $-1 $599 $600 $476 $544 forward $474 $-1 #
coedge $-1 $601 $476 $550 $602 reversed $397 $-1 #
coedge $-1 $476 $601 $603 $604 reversed $397 $-1 #
edge $-1 $605 -11.156368800911761 $606 11.156368800911761 $541 $607 forward 7 unknown #
coedge $-1 $546 $477 $598 $608 reversed $321 $-1 #
coedge $-1 $478 $545 $601 $609 reversed $321 $-1 #
edge $-1 $548 -28.07142845327056 $610 -27.742385851029933 $480 $611 forward 7 unknown #
vertex $-1 $547 $612 #
straight-curve $-1 -63.861704765416142 -19.514240361606625 6.4384642563477357 -0.76604443648966558 0 -0.64278761758704617 I I #
coedge $-1 $613 $480 $542 $602 forward $238 $-1 #
straight-curve $-1 -58.239125192680113 -7.7193433952847013 11.156368800911762 0 -1 0 I I #
coedge $-1 $482 $613 $614 $615 forward $238 $-1 #
coedge $-1 $616 $487 $482 $554 reversed $559 $-1 #
edge $-1 $617 -62.760704367198706 $489 62.760704367198706 $553 $618 forward 7 unknown #
point $-1 -62.760704367198706 -19.514240361606625 7.3623133037680022 #
coedge $-1 $619 $598 $486 $557 forward $539 $-1 #
edge $-1 $563 -19.514240361606625 $560 31.510596877863989 $486 $620 forward 7 unknown #
coedge $-1 $487 $616 $619 $621 reversed $559 $-1 #
loop $-1 $-1 $616 $492 #
vertex $-1 $621 $622 #
straight-curve $-1 -62.760704367198706 31.510596877863989 0 0 0 -1 I I #
point $-1 -62.760704367198706 31.510596877863989 11.156368800911761 #
vertex $-1 $557 $623 #
straight-curve $-1 -62.760704367198706 -19.514240361606625 0 0 0 1 I I #
face $-1 $-1 $624 $18 $-1 $625 reversed single #
plane-surface $-1 0 31.510596877863989 0 0 -1 0 0 0 -1 forward_v I I I I #
face $-1 $626 $627 $19 $-1 $628 reversed single #
loop $-1 $-1 $629 $494 #
plane-surface $-1 -57.91008259043948 -25.512418619735307 0 -1 0 0 0 0 1 forward_v I I I I #
coedge $-1 $630 $631 $509 $584 forward $495 $-1 #
coedge $-1 $632 $497 $573 $633 forward $416 $-1 #
coedge $-1 $497 $634 $501 $578 forward $416 $-1 #
coedge $-1 $498 $509 $571 $633 reversed $345 $-1 #
vertex $-1 $633 $635 #
straight-curve $-1 -62.760704367198684 -11.36313321953218 7.3623133037680191 0.76604443648966558 0 0.64278761758704617 I I #
straight-curve $-1 -71.72215582187593 -11.36313321953218 11.156368800911757 1 0 0 I I #
coedge $-1 $636 $501 $637 $638 forward $503 $-1 #
edge $-1 $639 -31.510596877863989 $505 11.36313321953218 $501 $640 forward 7 unknown #
coedge $-1 $502 $636 $630 $641 forward $503 $-1 #
face $-1 $642 $503 $19 $-1 $643 reversed single #
point $-1 -62.760704367198706 -11.36313321953218 7.3623133037680013 #
point $-1 -62.760704367198706 -11.36313321953218 11.156368800911761 #
point $-1 -59.696430257955626 -17.185352606728213 8.3017855067278141 #
edge $-1 $644 -7.3397564226182883 $585 -1.4372539578287089 $570 $645 forward 7 unknown #
vertex $-1 $584 $646 #
straight-curve $-1 -62.760704367198706 -7.7193433952847013 7.3623133037680084 0 1 0 I I #
straight-curve $-1 62.760704367198706 31.510596877863989 0 0 0 -1 I I #
edge $-1 $532 -11.156368800911761 $589 11.156368800911761 $530 $647 forward 7 unknown #
vertex $-1 $588 $648 #
straight-curve $-1 0 -31.510596877863989 -11.156368800911761 -1 0 0 I I #
straight-curve $-1 0 -31.510596877863989 11.156368800911761 1 0 0 I I #
point $-1 -57.91008259043948 -19.514240361606625 -11.156368800911761 #
coedge $-1 $531 $530 $536 $596 reversed $471 $-1 #
point $-1 62.760704367198706 -31.510596877863989 11.156368800911761 #
straight-curve $-1 62.760704367198706 31.510596877863989 0 0 0 -1 I I #
edge $-1 $537 -31.510596877863989 $589 31.510596877863989 $593 $649 forward 7 unknown #
point $-1 62.760704367198706 31.510596877863989 -11.156368800911761 #
coedge $-1 $556 $603 $545 $608 forward $539 $-1 #
coedge $-1 $650 $541 $651 $652 reversed $474 $-1 #
coedge $-1 $541 $650 $613 $653 reversed $474 $-1 #
coedge $-1 $543 $542 $546 $609 forward $397 $-1 #
edge $-1 $610 6.7580310517389712 $605 18.754387567996336 $550 $654 forward 7 unknown #
coedge $-1 $598 $651 $543 $604 forward $539 $-1 #
edge $-1 $606 -18.754387567996336 $655 -6.7580310517389712 $603 $656 forward 7 unknown #
vertex $-1 $653 $657 #
vertex $-1 $544 $658 #
straight-curve $-1 -57.91008259043948 -31.510596877863989 0 0 0 -1 I I #
edge $-1 $655 27.742385851029933 $563 32.593007627789163 $598 $659 forward 7 unknown #
edge $-1 $610 -11.156368800911761 $655 11.156368800911761 $601 $660 forward 7 unknown #
vertex $-1 $547 $661 #
straight-curve $-1 -30.167696739409546 -19.514240361606625 11.156368800911761 1 0 0 I I #
point $-1 -58.239125192680106 -19.514240361606625 11.156368800911761 #
coedge $-1 $552 $550 $600 $653 forward $238 $-1 #
coedge $-1 $662 $663 $552 $615 reversed $624 $-1 #
edge $-1 $664 -31.510596877863989 $617 31.510596877863989 $614 $665 forward 7 unknown #
coedge $-1 $558 $553 $663 $666 forward $559 $-1 #
vertex $-1 $615 $667 #
straight-curve $-1 0 31.510596877863989 11.156368800911761 -1 0 0 I I #
coedge $-1 $668 $556 $558 $621 forward $539 $-1 #
straight-curve $-1 -62.760704367198706 0 -11.156368800911761 0 1 0 I I #
edge $-1 $560 -62.760704367198706 $669 62.760704367198706 $558 $670 forward 7 unknown #
point $-1 -62.760704367198706 31.510596877863989 -11.156368800911761 #
point $-1 -62.760704367198706 -19.514240361606625 -11.156368800911761 #
loop $-1 $-1 $662 $565 #
plane-surface $-1 62.760704367198706 0 0 -1 0 0 0 0 1 forward_v I I I I #
face $-1 $580 $671 $19 $-1 $672 reversed single #
loop $-1 $-1 $673 $567 #
plane-surface $-1 0 -31.510596877863989 0 0 1 0 0 0 1 forward_v I I I I #
coedge $-1 $674 $675 $673 $676 reversed $568 $-1 #
coedge $-1 $677 $570 $579 $641 reversed $495 $-1 #
coedge $-1 $570 $678 $632 $679 reversed $495 $-1 #
coedge $-1 $680 $571 $631 $679 forward $416 $-1 #
edge $-1 $574 3.6437898242474791 $644 11.794896966321923 $571 $681 forward 7 unknown #
coedge $-1 $572 $682 $683 $684 forward $416 $-1 #
point $-1 -58.239125192680113 -11.36313321953218 11.156368800911761 #
coedge $-1 $579 $577 $685 $686 reversed $503 $-1 #
coedge $-1 $683 $687 $577 $638 reversed $688 $-1 #
edge $-1 $639 -11.156368800911761 $689 11.156368800911761 $637 $690 forward 7 unknown #
vertex $-1 $684 $691 #
straight-curve $-1 -62.760704367198706 0 11.156368800911761 0 -1 0 I I #
edge $-1 $692 -11.156368800911761 $585 7.3623133037680022 $579 $693 forward 7 unknown #
face $-1 $694 $688 $19 $-1 $695 reversed single #
plane-surface $-1 -62.760704367198706 0 0 1 0 0 0 0 -1 forward_v I I I I #
vertex $-1 $679 $696 #
straight-curve $-1 -63.861704765416142 -19.514240361606625 6.4384642563477357 -0.76604443648966558 0 -0.64278761758704617 I I #
point $-1 -62.760704367198706 -19.514240361606625 7.3623133037680022 #
straight-curve $-1 62.760704367198706 -31.510596877863989 0 0 0 -1 I I #
point $-1 62.760704367198706 -31.510596877863989 -11.156368800911761 #
straight-curve $-1 62.760704367198706 0 -11.156368800911761 0 -1 0 I I #
coedge $-1 $600 $599 $662 $697 reversed $474 $-1 #
coedge $-1 $603 $668 $599 $652 forward $539 $-1 #
edge $-1 $698 -62.760704367198706 $606 57.91008259043948 $599 $699 forward 7 unknown #
edge $-1 $605 -57.91008259043948 $664 62.760704367198706 $600 $700 forward 7 unknown #
straight-curve $-1 -57.91008259043948 -12.756209309867653 11.156368800911761 0 -1 0 I I #
vertex $-1 $608 $701 #
straight-curve $-1 -57.91008259043948 -12.756209309867653 -11.156368800911761 0 1 0 I I #
point $-1 -57.91008259043948 -31.510596877863989 11.156368800911761 #
point $-1 -57.91008259043948 -31.510596877863989 -11.156368800911761 #
straight-curve $-1 -30.167696739409546 -19.514240361606625 -11.156368800911761 -1 0 0 I I #
straight-curve $-1 -57.91008259043948 -19.514240361606625 0 0 0 -1 I I #
point $-1 -57.91008259043948 -19.514240361606625 11.156368800911761 #
coedge $-1 $702 $614 $650 $697 forward $624 $-1 #
coedge $-1 $614 $702 $616 $666 reversed $624 $-1 #
vertex $-1 $615 $703 #
straight-curve $-1 62.760704367198706 0 11.156368800911761 0 1 0 I I #
edge $-1 $617 -11.156368800911761 $669 11.156368800911761 $663 $704 forward 7 unknown #
point $-1 62.760704367198706 31.510596877863989 11.156368800911761 #
coedge $-1 $651 $619 $702 $705 forward $539 $-1 #
vertex $-1 $705 $706 #
straight-curve $-1 0 31.510596877863989 -11.156368800911761 1 0 0 I I #
loop $-1 $-1 $707 $626 #
plane-surface $-1 0 0 -11.156368800911761 0 0 1 1 0 0 forward_v I I I I #
coedge $-1 $708 $709 $629 $676 forward $627 $-1 #
coedge $-1 $710 $629 $680 $711 reversed $568 $-1 #
coedge $-1 $629 $710 $712 $713 reversed $568 $-1 #
edge $-1 $714 -11.156368800911761 $715 11.156368800911761 $673 $716 forward 7 unknown #
coedge $-1 $678 $630 $707 $717 reversed $495 $-1 #
coedge $-1 $631 $677 $710 $718 reversed $495 $-1 #
edge $-1 $644 -28.07142845327056 $719 -27.742385851029933 $632 $720 forward 7 unknown #
coedge $-1 $721 $632 $674 $711 forward $416 $-1 #
straight-curve $-1 -58.239125192680113 -7.7193433952847013 11.156368800911762 0 -1 0 I I #
coedge $-1 $634 $721 $722 $723 forward $416 $-1 #
coedge $-1 $724 $637 $634 $684 reversed $688 $-1 #
edge $-1 $725 -62.760704367198706 $639 62.760704367198706 $683 $726 forward 7 unknown #
coedge $-1 $727 $707 $636 $686 forward $671 $-1 #
edge $-1 $692 -19.514240361606625 $689 31.510596877863989 $636 $728 forward 7 unknown #
coedge $-1 $637 $724 $727 $729 reversed $688 $-1 #
loop $-1 $-1 $724 $642 #
vertex $-1 $729 $730 #
straight-curve $-1 -62.760704367198706 31.510596877863989 0 0 0 -1 I I #
point $-1 -62.760704367198706 31.510596877863989 11.156368800911761 #
vertex $-1 $686 $731 #
straight-curve $-1 -62.760704367198706 -19.514240361606625 0 0 0 1 I I #
face $-1 $-1 $732 $19 $-1 $733 reversed single #
plane-surface $-1 0 31.510596877863989 0 0 -1 0 0 0 -1 forward_v I I I I #
point $-1 -58.239125192680106 -19.514240361606625 11.156368800911761 #
edge $-1 $664 -11.156368800911761 $698 11.156368800911761 $662 $734 forward 7 unknown #
vertex $-1 $697 $735 #
straight-curve $-1 0 -31.510596877863989 -11.156368800911761 -1 0 0 I I #
straight-curve $-1 0 -31.510596877863989 11.156368800911761 1 0 0 I I #
point $-1 -57.91008259043948 -19.514240361606625 -11.156368800911761 #
coedge $-1 $663 $662 $668 $705 reversed $624 $-1 #
point $-1 62.760704367198706 -31.510596877863989 11.156368800911761 #
straight-curve $-1 62.760704367198706 31.510596877863989 0 0 0 -1 I I #
edge $-1 $669 -31.510596877863989 $698 31.510596877863989 $702 $736 forward 7 unknown #
point $-1 62.760704367198706 31.510596877863989 -11.156368800911761 #
coedge $-1 $685 $712 $677 $717 forward $671 $-1 #
coedge $-1 $737 $673 $738 $739 reversed $627 $-1 #
coedge $-1 $673 $737 $721 $740 reversed $627 $-1 #
coedge $-1 $675 $674 $678 $718 forward $568 $-1 #
edge $-1 $719 6.7580310517389712 $714 18.754387567996336 $680 $741 forward 7 unknown #
coedge $-1 $707 $738 $675 $713 forward $671 $-1 #
edge $-1 $715 -18.754387567996336 $742 -6.7580310517389712 $712 $743 forward 7 unknown #
vertex $-1 $740 $744 #
vertex $-1 $676 $745 #
straight-curve $-1 -57.91008259043948 -31.510596877863989 0 0 0 -1 I I #
edge $-1 $742 27.742385851029933 $692 32.593007627789163 $707 $746 forward 7 unknown #
edge $-1 $719 -11.156368800911761 $742 11.156368800911761 $710 $747 forward 7 unknown #
vertex $-1 $679 $748 #
straight-curve $-1 -30.167696739409546 -19.514240361606625 11.156368800911761 1 0 0 I I #
coedge $-1 $682 $680 $709 $740 forward $416 $-1 #
coedge $-1 $749 $750 $682 $723 reversed $732 $-1 #
edge $-1 $751 -31.510596877863989 $725 31.510596877863989 $722 $752 forward 7 unknown #
coedge $-1 $687 $683 $750 $753 forward $688 $-1 #
vertex $-1 $723 $754 #
straight-curve $-1 0 31.510596877863989 11.156368800911761 -1 0 0 I I #
coedge $-1 $755 $685 $687 $729 forward $671 $-1 #
straight-curve $-1 -62.760704367198706 0 -11.156368800911761 0 1 0 I I #
edge $-1 $689 -62.760704367198706 $756 62.760704367198706 $687 $757 forward 7 unknown #
point $-1 -62.760704367198706 31.510596877863989 -11.156368800911761 #
point $-1 -62.760704367198706 -19.514240361606625 -11.156368800911761 #
loop $-1 $-1 $749 $694 #
plane-surface $-1 62.760704367198706 0 0 -1 0 0 0 0 1 forward_v I I I I #
straight-curve $-1 62.760704367198706 -31.510596877863989 0 0 0 -1 I I #
point $-1 62.760704367198706 -31.510596877863989 -11.156368800911761 #
straight-curve $-1 62.760704367198706 0 -11.156368800911761 0 -1 0 I I #
coedge $-1 $709 $708 $749 $758 reversed $627 $-1 #
coedge $-1 $712 $755 $708 $739 forward $671 $-1 #
edge $-1 $759 -62.760704367198706 $715 57.91008259043948 $708 $760 forward 7 unknown #
edge $-1 $714 -57.91008259043948 $751 62.760704367198706 $709 $761 forward 7 unknown #
straight-curve $-1 -57.91008259043948 -12.756209309867653 11.156368800911761 0 -1 0 I I #
vertex $-1 $717 $762 #
straight-curve $-1 -57.91008259043948 -12.756209309867653 -11.156368800911761 0 1 0 I I #
point $-1 -57.91008259043948 -31.510596877863989 11.156368800911761 #
point $-1 -57.91008259043948 -31.510596877863989 -11.156368800911761 #
straight-curve $-1 -30.167696739409546 -19.514240361606625 -11.156368800911761 -1 0 0 I I #
straight-curve $-1 -57.91008259043948 -19.514240361606625 0 0 0 -1 I I #
point $-1 -57.91008259043948 -19.514240361606625 11.156368800911761 #
coedge $-1 $763 $722 $737 $758 forward $732 $-1 #
coedge $-1 $722 $763 $724 $753 reversed $732 $-1 #
vertex $-1 $723 $764 #
straight-curve $-1 62.760704367198706 0 11.156368800911761 0 1 0 I I #
edge $-1 $725 -11.156368800911761 $756 11.156368800911761 $750 $765 forward 7 unknown #
point $-1 62.760704367198706 31.510596877863989 11.156368800911761 #
coedge $-1 $738 $727 $763 $766 forward $671 $-1 #
vertex $-1 $766 $767 #
straight-curve $-1 0 31.510596877863989 -11.156368800911761 1 0 0 I I #
edge $-1 $751 -11.156368800911761 $759 11.156368800911761 $749 $768 forward 7 unknown #
vertex $-1 $758 $769 #
straight-curve $-1 0 -31.510596877863989 -11.156368800911761 -1 0 0 I I #
straight-curve $-1 0 -31.510596877863989 11.156368800911761 1 0 0 I I #
point $-1 -57.91008259043948 -19.514240361606625 -11.156368800911761 #
coedge $-1 $750 $749 $755 $766 reversed $732 $-1 #
point $-1 62.760704367198706 -31.510596877863989 11.156368800911761 #
straight-curve $-1 62.760704367198706 31.510596877863989 0 0 0 -1 I I #
edge $-1 $756 -31.510596877863989 $759 31.510596877863989 $763 $770 forward 7 unknown #
point $-1 62.760704367198706 31.510596877863989 -11.156368800911761 #
straight-curve $-1 62.760704367198706 -31.510596877863989 0 0 0 -1 I I #
point $-1 62.760704367198706 -31.510596877863989 -11.156368800911761 #
straight-curve $-1 62.760704367198706 0 -11.156368800911761 0 -1 0 I I #
End-of-ACIS-data 