500 0 15 0           
7 Unknown 11 ACIS 5.0 NT 24 Thu Mar 25 20:33:54 1999 
-1 9.9999999999999995e-007 1e-010 
body $-1 $15 $-1 $16 #
body $-1 $17 $-1 $18 #
body $-1 $19 $-1 $20 #
body $-1 $21 $-1 $22 #
body $-1 $23 $-1 $24 #
body $-1 $25 $-1 $26 #
body $-1 $27 $-1 $28 #
body $-1 $29 $-1 $30 #
body $-1 $31 $-1 $32 #
body $-1 $33 $-1 $34 #
body $-1 $35 $-1 $36 #
body $-1 $37 $-1 $38 #
body $-1 $39 $-1 $40 #
body $-1 $41 $-1 $42 #
body $-1 $43 $-1 $44 #
lump $-1 $-1 $45 $0 #
transform $-1 1 0 0 0 1 0 0 0 1 68.860744041261029 45.598098083732573 19.709728147494317 1 rotate no_reflect no_shear #
lump $-1 $-1 $46 $1 #
transform $-1 1 0 0 0 1 0 0 0 1 68.860744041261029 45.598098083732573 19.709728147494317 1 rotate no_reflect no_shear #
lump $-1 $-1 $47 $2 #
transform $-1 1 0 0 0 1 0 0 0 1 68.860744041261029 45.598098083732573 19.709728147494317 1 rotate no_reflect no_shear #
lump $-1 $-1 $48 $3 #
transform $-1 1 0 0 0 1 0 0 0 1 68.860744041261029 45.598098083732573 19.709728147494317 1 rotate no_reflect no_shear #
lump $-1 $-1 $49 $4 #
transform $-1 1 0 0 0 1 0 0 0 1 68.860744041261029 45.598098083732573 19.709728147494317 1 rotate no_reflect no_shear #
lump $-1 $-1 $50 $5 #
transform $-1 1 0 0 0 1 0 0 0 1 68.860744041261029 45.598098083732573 19.709728147494317 1 rotate no_reflect no_shear #
lump $-1 $-1 $51 $6 #
transform $-1 1 0 0 0 1 0 0 0 1 68.860744041261029 45.598098083732573 19.709728147494317 1 rotate no_reflect no_shear #
lump $-1 $-1 $52 $7 #
transform $-1 1 0 0 0 1 0 0 0 1 68.860744041261029 45.598098083732573 19.709728147494317 1 rotate no_reflect no_shear #
lump $-1 $-1 $53 $8 #
transform $-1 1 0 0 0 1 0 0 0 1 68.860744041261029 45.598098083732573 19.709728147494317 1 rotate no_reflect no_shear #
lump $-1 $-1 $54 $9 #
transform $-1 1 0 0 0 1 0 0 0 1 68.860744041261029 45.598098083732573 19.709728147494317 1 rotate no_reflect no_shear #
lump $-1 $-1 $55 $10 #
transform $-1 1 0 0 0 1 0 0 0 1 68.860744041261029 45.598098083732573 19.709728147494317 1 rotate no_reflect no_shear #
lump $-1 $-1 $56 $11 #
transform $-1 1 0 0 0 1 0 0 0 1 68.860744041261029 45.598098083732573 19.709728147494317 1 rotate no_reflect no_shear #
lump $-1 $-1 $57 $12 #
transform $-1 1 0 0 0 1 0 0 0 1 68.860744041261029 45.598098083732573 19.709728147494317 1 rotate no_reflect no_shear #
lump $-1 $-1 $58 $13 #
transform $-1 1 0 0 0 1 0 0 0 1 68.860744041261029 45.598098083732573 19.709728147494317 1 rotate no_reflect no_shear #
lump $-1 $-1 $59 $14 #
transform $-1 1 0 0 0 1 0 0 0 1 68.860744041261029 45.598098083732573 19.709728147494317 1 rotate no_reflect no_shear #
shell $-1 $-1 $-1 $60 $-1 $15 #
shell $-1 $-1 $-1 $61 $-1 $17 #
shell $-1 $-1 $-1 $62 $-1 $19 #
shell $-1 $-1 $-1 $63 $-1 $21 #
shell $-1 $-1 $-1 $64 $-1 $23 #
shell $-1 $-1 $-1 $65 $-1 $25 #
shell $-1 $-1 $-1 $66 $-1 $27 #
shell $-1 $-1 $-1 $67 $-1 $29 #
shell $-1 $-1 $-1 $68 $-1 $31 #
shell $-1 $-1 $-1 $69 $-1 $33 #
shell $-1 $-1 $-1 $70 $-1 $35 #
shell $-1 $-1 $-1 $71 $-1 $37 #
shell $-1 $-1 $-1 $72 $-1 $39 #
shell $-1 $-1 $-1 $73 $-1 $41 #
shell $-1 $-1 $-1 $74 $-1 $43 #
face $-1 $75 $76 $45 $-1 $77 forward single #
face $-1 $78 $79 $46 $-1 $80 reversed single #
face $-1 $81 $82 $47 $-1 $83 reversed single #
face $-1 $84 $85 $48 $-1 $86 reversed single #
face $-1 $87 $88 $49 $-1 $89 forward single #
face $-1 $90 $91 $50 $-1 $92 forward single #
face $-1 $93 $94 $51 $-1 $95 reversed single #
face $-1 $96 $97 $52 $-1 $98 forward single #
face $-1 $99 $100 $53 $-1 $101 forward single #
face $-1 $102 $103 $54 $-1 $104 reversed single #
face $-1 $105 $106 $55 $-1 $107 forward single #
face $-1 $108 $109 $56 $-1 $110 forward single #
face $-1 $111 $112 $57 $-1 $113 reversed single #
face $-1 $114 $115 $58 $-1 $116 forward single #
face $-1 $117 $118 $59 $-1 $119 forward single #
face $-1 $120 $121 $45 $-1 $122 reversed single #
loop $-1 $-1 $123 $60 #
plane-surface $-1 0 0 19.709728147494317 0 0 1 1 0 0 forward_v I I I I #
face $-1 $124 $125 $46 $-1 $126 reversed single #
loop $-1 $-1 $127 $61 #
plane-surface $-1 -62.114960708936813 0 11.225648688613479 0 0 1 1 0 0 forward_v I I I I #
face $-1 $128 $129 $47 $-1 $130 reversed single #
loop $-1 $-1 $131 $62 #
plane-surface $-1 62.11496070893682 0 11.225648688613479 0 0 1 1 0 0 forward_v I I I I #
face $-1 $132 $133 $48 $-1 $134 reversed single #
loop $-1 $-1 $135 $63 #
plane-surface $-1 -42.35935549666393 -141.26748369623022 103.94627576377501 -1 0 0 0 -0.69465837861970381 0.71933979245794832 forward_v I I I I #
face $-1 $136 $137 $49 $-1 $138 forward single #
loop $-1 $139 $140 $64 #
cone-surface $-1 -51.652085410912981 -35.837969803525858 10.139166876698143 0 0.69465837861970381 -0.71933979245794832 1.5 0 0 1 I I 0 1 1.5 forward I I I I #
face $-1 $141 $142 $50 $-1 $143 forward single #
loop $-1 $144 $145 $65 #
cone-surface $-1 -46.076447462363554 -35.837969803525858 10.139166876698143 0 0.69465837861970381 -0.71933979245794832 1.5 0 0 1 I I 0 1 1.5 forward I I I I #
face $-1 $146 $147 $51 $-1 $148 reversed single #
loop $-1 $-1 $149 $66 #
plane-surface $-1 -14.674766808357635 -141.26748369623022 103.94627576377501 -1 0 0 0 -0.69465837861970381 0.71933979245794832 forward_v I I I I #
face $-1 $150 $151 $52 $-1 $152 forward single #
loop $-1 $153 $154 $67 #
cone-surface $-1 -23.967496722606683 -35.837969803525858 10.139166876698143 0 0.69465837861970381 -0.71933979245794832 1.5 0 0 1 I I 0 1 1.5 forward I I I I #
face $-1 $155 $156 $53 $-1 $157 forward single #
loop $-1 $158 $159 $68 #
cone-surface $-1 -18.391858774057255 -35.837969803525858 10.139166876698143 0 0.69465837861970381 -0.71933979245794832 1.5 0 0 1 I I 0 1 1.5 forward I I I I #
face $-1 $160 $161 $54 $-1 $162 reversed single #
loop $-1 $-1 $163 $69 #
plane-surface $-1 13.009821879948671 -141.26748369623022 103.94627576377501 -1 0 0 0 -0.69465837861970381 0.71933979245794832 forward_v I I I I #
face $-1 $164 $165 $55 $-1 $166 forward single #
loop $-1 $167 $168 $70 #
cone-surface $-1 3.7170919656996091 -35.837969803525858 10.139166876698143 0 0.69465837861970381 -0.71933979245794832 1.5 0 0 1 I I 0 1 1.5 forward I I I I #
face $-1 $169 $170 $56 $-1 $171 forward single #
loop $-1 $172 $173 $71 #
cone-surface $-1 9.2927299142490369 -35.837969803525858 10.139166876698143 0 0.69465837861970381 -0.71933979245794832 1.5 0 0 1 I I 0 1 1.5 forward I I I I #
face $-1 $174 $175 $57 $-1 $176 reversed single #
loop $-1 $-1 $177 $72 #
plane-surface $-1 40.694410568254966 -141.26748369623022 103.94627576377501 -1 0 0 0 -0.69465837861970381 0.71933979245794832 forward_v I I I I #
face $-1 $178 $179 $58 $-1 $180 forward single #
loop $-1 $181 $182 $73 #
cone-surface $-1 31.401680654005901 -35.837969803525858 10.139166876698143 0 0.69465837861970381 -0.71933979245794832 1.5 0 0 1 I I 0 1 1.5 forward I I I I #
face $-1 $183 $184 $59 $-1 $185 forward single #
loop $-1 $186 $187 $74 #
cone-surface $-1 36.977318602555329 -35.837969803525858 10.139166876698143 0 0.69465837861970381 -0.71933979245794832 1.5 0 0 1 I I 0 1 1.5 forward I I I I #
face $-1 $188 $189 $45 $-1 $190 reversed single #
loop $-1 $-1 $191 $75 #
plane-surface $-1 0 0 -19.709728147494317 0 0 1 1 0 0 forward_v I I I I #
coedge $-1 $192 $193 $194 $195 forward $76 $-1 #
face $-1 $196 $197 $46 $-1 $198 reversed single #
loop $-1 $-1 $199 $78 #
plane-surface $-1 -55.369177376612598 0 15.467688418053896 -1 0 0 0 0 1 forward_v I I I I #
coedge $-1 $200 $201 $199 $202 forward $79 $-1 #
face $-1 $203 $204 $47 $-1 $205 forward single #
loop $-1 $-1 $206 $81 #
plane-surface $-1 55.369177376612605 0 15.467688418053896 1 0 0 0 0 -1 forward_v I I I I #
coedge $-1 $207 $208 $209 $210 reversed $82 $-1 #
face $-1 $211 $212 $48 $-1 $213 forward single #
loop $-1 $-1 $214 $84 #
plane-surface $-1 -48.864266436638268 -45.59809808373258 4.8777291094937851 0 -0.69465837861970381 0.71933979245794832 1 0 0 forward_v I I I I #
coedge $-1 $215 $216 $217 $218 reversed $85 $-1 #
face $-1 $-1 $219 $49 $-1 $220 forward single #
loop $-1 $221 $222 $87 #
cone-surface $-1 -51.652085410912981 -33.23633987398587 7.4451002805587692 0 0.69465837861970381 -0.71933979245794832 0.75 0 0 1 I I -0.70710678118654757 0.70710678118654757 0.75 forward I I I I #
loop $-1 $-1 $223 $64 #
coedge $-1 $140 $140 $224 $225 reversed $88 $-1 #
face $-1 $-1 $226 $50 $-1 $227 forward single #
loop $-1 $228 $229 $90 #
cone-surface $-1 -46.076447462363554 -33.23633987398587 7.4451002805587692 0 0.69465837861970381 -0.71933979245794832 0.75 0 0 1 I I -0.70710678118654757 0.70710678118654757 0.75 forward I I I I #
loop $-1 $-1 $230 $65 #
coedge $-1 $145 $145 $231 $232 reversed $91 $-1 #
face $-1 $233 $234 $51 $-1 $235 reversed single #
loop $-1 $-1 $236 $93 #
plane-surface $-1 -21.179677748331969 -45.59809808373258 4.8777291094937851 0 -0.69465837861970381 0.71933979245794832 1 0 0 forward_v I I I I #
coedge $-1 $237 $238 $239 $240 reversed $94 $-1 #
face $-1 $-1 $241 $52 $-1 $242 forward single #
loop $-1 $243 $244 $96 #
cone-surface $-1 -23.967496722606683 -33.23633987398587 7.4451002805587692 0 0.69465837861970381 -0.71933979245794832 0.75 0 0 1 I I -0.70710678118654757 0.70710678118654757 0.75 forward I I I I #
loop $-1 $-1 $245 $67 #
coedge $-1 $154 $154 $246 $247 reversed $97 $-1 #
face $-1 $-1 $248 $53 $-1 $249 forward single #
loop $-1 $250 $251 $99 #
cone-surface $-1 -18.391858774057255 -33.23633987398587 7.4451002805587692 0 0.69465837861970381 -0.71933979245794832 0.75 0 0 1 I I -0.70710678118654757 0.70710678118654757 0.75 forward I I I I #
loop $-1 $-1 $252 $68 #
coedge $-1 $159 $159 $253 $254 reversed $100 $-1 #
face $-1 $255 $256 $54 $-1 $257 reversed single #
loop $-1 $-1 $258 $102 #
plane-surface $-1 6.5049109399743372 -45.59809808373258 4.8777291094937851 0 -0.69465837861970381 0.71933979245794832 1 0 0 forward_v I I I I #
coedge $-1 $259 $260 $261 $262 reversed $103 $-1 #
face $-1 $-1 $263 $55 $-1 $264 forward single #
loop $-1 $265 $266 $105 #
cone-surface $-1 3.7170919656996091 -33.23633987398587 7.4451002805587692 0 0.69465837861970381 -0.71933979245794832 0.75 0 0 1 I I -0.70710678118654757 0.70710678118654757 0.75 forward I I I I #
loop $-1 $-1 $267 $70 #
coedge $-1 $168 $168 $268 $269 reversed $106 $-1 #
face $-1 $-1 $270 $56 $-1 $271 forward single #
loop $-1 $272 $273 $108 #
cone-surface $-1 9.2927299142490369 -33.23633987398587 7.4451002805587692 0 0.69465837861970381 -0.71933979245794832 0.75 0 0 1 I I -0.70710678118654757 0.70710678118654757 0.75 forward I I I I #
loop $-1 $-1 $274 $71 #
coedge $-1 $173 $173 $275 $276 reversed $109 $-1 #
face $-1 $277 $278 $57 $-1 $279 reversed single #
loop $-1 $-1 $280 $111 #
plane-surface $-1 34.189499628280629 -45.59809808373258 4.8777291094937851 0 -0.69465837861970381 0.71933979245794832 1 0 0 forward_v I I I I #
coedge $-1 $281 $282 $283 $284 reversed $112 $-1 #
face $-1 $-1 $285 $58 $-1 $286 forward single #
loop $-1 $287 $288 $114 #
cone-surface $-1 31.401680654005901 -33.23633987398587 7.4451002805587692 0 0.69465837861970381 -0.71933979245794832 0.75 0 0 1 I I -0.70710678118654757 0.70710678118654757 0.75 forward I I I I #
loop $-1 $-1 $289 $73 #
coedge $-1 $182 $182 $290 $291 reversed $115 $-1 #
face $-1 $-1 $292 $59 $-1 $293 forward single #
loop $-1 $294 $295 $117 #
cone-surface $-1 36.977318602555329 -33.23633987398587 7.4451002805587692 0 0.69465837861970381 -0.71933979245794832 0.75 0 0 1 I I -0.70710678118654757 0.70710678118654757 0.75 forward I I I I #
loop $-1 $-1 $296 $74 #
coedge $-1 $187 $187 $297 $298 reversed $118 $-1 #
face $-1 $299 $300 $45 $-1 $301 reversed single #
loop $-1 $-1 $302 $120 #
plane-surface $-1 0 -45.598098083732573 0 0 1 0 0 0 1 forward_v I I I I #
coedge $-1 $303 $304 $305 $306 forward $121 $-1 #
coedge $-1 $307 $123 $308 $309 forward $76 $-1 #
coedge $-1 $123 $307 $310 $311 forward $76 $-1 #
coedge $-1 $312 $313 $123 $195 reversed $314 $-1 #
edge $-1 $315 -45.598098083732573 $316 45.598098083732573 $194 $317 forward 7 unknown #
face $-1 $318 $319 $46 $-1 $320 reversed single #
loop $-1 $-1 $321 $124 #
plane-surface $-1 0 45.598098083732573 0 0 -1 0 0 0 -1 forward_v I I I I #
coedge $-1 $322 $323 $127 $202 reversed $125 $-1 #
coedge $-1 $324 $127 $325 $326 reversed $79 $-1 #
coedge $-1 $127 $324 $327 $328 reversed $79 $-1 #
edge $-1 $329 -45.598098083732573 $330 45.598098083732573 $199 $331 forward 7 unknown #
face $-1 $332 $333 $47 $-1 $334 reversed single #
loop $-1 $-1 $335 $128 #
plane-surface $-1 0 0 19.709728147494317 0 0 1 1 0 0 forward_v I I I I #
coedge $-1 $336 $337 $338 $339 reversed $129 $-1 #
coedge $-1 $340 $131 $341 $342 reversed $82 $-1 #
coedge $-1 $131 $340 $343 $344 reversed $82 $-1 #
coedge $-1 $345 $346 $131 $210 forward $347 $-1 #
edge $-1 $348 -45.598098083732573 $349 45.598098083732573 $209 $350 forward 7 unknown #
face $-1 $351 $352 $48 $-1 $353 forward single #
loop $-1 $-1 $217 $132 #
plane-surface $-1 0 0 19.709728147494317 0 0 1 1 0 0 forward_v I I I I #
coedge $-1 $354 $355 $356 $357 reversed $133 $-1 #
coedge $-1 $216 $135 $358 $359 reversed $85 $-1 #
coedge $-1 $135 $215 $354 $360 reversed $85 $-1 #
coedge $-1 $356 $361 $135 $218 forward $212 $-1 #
edge $-1 $362 25.035643764382534 $363 40.39462803364556 $217 $364 forward 7 unknown #
loop $-1 $-1 $224 $136 #
plane-surface $-1 -48.864266436638268 -45.59809808373258 4.8777291094937851 0 -0.69465837861970381 0.71933979245794832 1 0 0 forward_v I I I I #
loop $-1 $-1 $365 $87 #
coedge $-1 $222 $222 $223 $366 reversed $137 $-1 #
coedge $-1 $223 $223 $222 $366 forward $139 $-1 #
coedge $-1 $224 $224 $140 $225 forward $219 $-1 #
edge $-1 $367 1.6452815492103992e-015 $367 6.2831853071796022 $224 $368 forward 7 unknown #
loop $-1 $-1 $231 $141 #
plane-surface $-1 -48.864266436638268 -45.59809808373258 4.8777291094937851 0 -0.69465837861970381 0.71933979245794832 1 0 0 forward_v I I I I #
loop $-1 $-1 $369 $90 #
coedge $-1 $229 $229 $230 $370 reversed $142 $-1 #
coedge $-1 $230 $230 $229 $370 forward $144 $-1 #
coedge $-1 $231 $231 $145 $232 forward $226 $-1 #
edge $-1 $371 1.6452815492103992e-015 $371 6.2831853071796022 $231 $372 forward 7 unknown #
face $-1 $373 $374 $51 $-1 $375 reversed single #
loop $-1 $-1 $376 $146 #
plane-surface $-1 -27.684588688306302 -141.26748369623022 103.94627576377501 1 0 0 0 0.69465837861970381 -0.71933979245794832 forward_v I I I I #
coedge $-1 $377 $378 $379 $380 reversed $147 $-1 #
coedge $-1 $238 $149 $381 $382 reversed $94 $-1 #
coedge $-1 $149 $237 $377 $383 reversed $94 $-1 #
coedge $-1 $379 $384 $149 $240 forward $385 $-1 #
edge $-1 $386 25.035643764382534 $387 40.39462803364556 $239 $388 forward 7 unknown #
loop $-1 $-1 $246 $150 #
plane-surface $-1 -21.179677748331969 -45.59809808373258 4.8777291094937851 0 -0.69465837861970381 0.71933979245794832 1 0 0 forward_v I I I I #
loop $-1 $-1 $389 $96 #
coedge $-1 $244 $244 $245 $390 reversed $151 $-1 #
coedge $-1 $245 $245 $244 $390 forward $153 $-1 #
coedge $-1 $246 $246 $154 $247 forward $241 $-1 #
edge $-1 $391 1.6452815492103992e-015 $391 6.2831853071796022 $246 $392 forward 7 unknown #
loop $-1 $-1 $253 $155 #
plane-surface $-1 -21.179677748331969 -45.59809808373258 4.8777291094937851 0 -0.69465837861970381 0.71933979245794832 1 0 0 forward_v I I I I #
loop $-1 $-1 $393 $99 #
coedge $-1 $251 $251 $252 $394 reversed $156 $-1 #
coedge $-1 $252 $252 $251 $394 forward $158 $-1 #
coedge $-1 $253 $253 $159 $254 forward $248 $-1 #
edge $-1 $395 1.6452815492103992e-015 $395 6.2831853071796022 $253 $396 forward 7 unknown #
face $-1 $397 $398 $54 $-1 $399 reversed single #
loop $-1 $-1 $400 $160 #
plane-surface $-1 2.6645352591003757e-015 -141.26748369623022 103.94627576377501 1 0 0 0 0.69465837861970381 -0.71933979245794832 forward_v I I I I #
coedge $-1 $401 $402 $403 $404 reversed $161 $-1 #
coedge $-1 $260 $163 $405 $406 reversed $103 $-1 #
coedge $-1 $163 $259 $401 $407 reversed $103 $-1 #
coedge $-1 $403 $408 $163 $262 forward $409 $-1 #
edge $-1 $410 25.035643764382534 $411 40.39462803364556 $261 $412 forward 7 unknown #
loop $-1 $-1 $268 $164 #
plane-surface $-1 6.5049109399743372 -45.59809808373258 4.8777291094937851 0 -0.69465837861970381 0.71933979245794832 1 0 0 forward_v I I I I #
loop $-1 $-1 $413 $105 #
coedge $-1 $266 $266 $267 $414 reversed $165 $-1 #
coedge $-1 $267 $267 $266 $414 forward $167 $-1 #
coedge $-1 $268 $268 $168 $269 forward $263 $-1 #
edge $-1 $415 1.6452815492103992e-015 $415 6.2831853071796022 $268 $416 forward 7 unknown #
loop $-1 $-1 $275 $169 #
plane-surface $-1 6.5049109399743372 -45.59809808373258 4.8777291094937851 0 -0.69465837861970381 0.71933979245794832 1 0 0 forward_v I I I I #
loop $-1 $-1 $417 $108 #
coedge $-1 $273 $273 $274 $418 reversed $170 $-1 #
coedge $-1 $274 $274 $273 $418 forward $172 $-1 #
coedge $-1 $275 $275 $173 $276 forward $270 $-1 #
edge $-1 $419 1.6452815492103992e-015 $419 6.2831853071796022 $275 $420 forward 7 unknown #
face $-1 $421 $422 $57 $-1 $423 reversed single #
loop $-1 $-1 $424 $174 #
plane-surface $-1 27.684588688306295 -141.26748369623022 103.94627576377501 1 0 0 0 0.69465837861970381 -0.71933979245794832 forward_v I I I I #
coedge $-1 $425 $426 $427 $428 reversed $175 $-1 #
coedge $-1 $282 $177 $429 $430 reversed $112 $-1 #
coedge $-1 $177 $281 $425 $431 reversed $112 $-1 #
coedge $-1 $427 $432 $177 $284 forward $433 $-1 #
edge $-1 $434 25.035643764382534 $435 40.39462803364556 $283 $436 forward 7 unknown #
loop $-1 $-1 $290 $178 #
plane-surface $-1 34.189499628280629 -45.59809808373258 4.8777291094937851 0 -0.69465837861970381 0.71933979245794832 1 0 0 forward_v I I I I #
loop $-1 $-1 $437 $114 #
coedge $-1 $288 $288 $289 $438 reversed $179 $-1 #
coedge $-1 $289 $289 $288 $438 forward $181 $-1 #
coedge $-1 $290 $290 $182 $291 forward $285 $-1 #
edge $-1 $439 1.6452815492103992e-015 $439 6.2831853071796022 $290 $440 forward 7 unknown #
loop $-1 $-1 $297 $183 #
plane-surface $-1 34.189499628280629 -45.59809808373258 4.8777291094937851 0 -0.69465837861970381 0.71933979245794832 1 0 0 forward_v I I I I #
loop $-1 $-1 $441 $117 #
coedge $-1 $295 $295 $296 $442 reversed $184 $-1 #
coedge $-1 $296 $296 $295 $442 forward $186 $-1 #
coedge $-1 $297 $297 $187 $298 forward $292 $-1 #
edge $-1 $443 1.6452815492103992e-015 $443 6.2831853071796022 $297 $444 forward 7 unknown #
face $-1 $445 $446 $45 $-1 $447 reversed single #
loop $-1 $-1 $448 $188 #
plane-surface $-1 -68.860744041261029 0 0 1 0 0 0 0 -1 forward_v I I I I #
coedge $-1 $449 $310 $450 $451 forward $189 $-1 #
coedge $-1 $452 $191 $449 $453 forward $121 $-1 #
coedge $-1 $191 $452 $454 $455 forward $121 $-1 #
coedge $-1 $313 $312 $191 $306 reversed $314 $-1 #
edge $-1 $456 -45.598098083732573 $457 45.598098083732573 $305 $458 forward 7 unknown #
coedge $-1 $193 $192 $459 $460 forward $76 $-1 #
coedge $-1 $461 $462 $192 $309 reversed $446 $-1 #
edge $-1 $316 -68.860744041261029 $463 68.860744041261029 $308 $464 forward 7 unknown #
coedge $-1 $302 $465 $193 $311 reversed $189 $-1 #
edge $-1 $466 -68.860744041261029 $315 68.860744041261029 $310 $467 forward 7 unknown #
coedge $-1 $305 $194 $465 $468 forward $314 $-1 #
coedge $-1 $194 $305 $461 $469 reversed $314 $-1 #
loop $-1 $-1 $312 $445 #
vertex $-1 $195 $470 #
vertex $-1 $195 $471 #
straight-curve $-1 68.860744041261029 0 19.709728147494317 0 1 0 I I #
face $-1 $472 $473 $46 $-1 $474 forward single #
loop $-1 $-1 $475 $196 #
plane-surface $-1 -68.860744041261029 0 0 1 0 0 0 0 -1 forward_v I I I I #
coedge $-1 $327 $476 $322 $477 forward $197 $-1 #
coedge $-1 $478 $199 $321 $477 reversed $125 $-1 #
coedge $-1 $199 $478 $479 $480 reversed $125 $-1 #
coedge $-1 $201 $200 $475 $481 reversed $79 $-1 #
coedge $-1 $479 $482 $200 $326 forward $483 $-1 #
edge $-1 $484 -37.803263686792619 $330 -24.311697022144191 $325 $485 forward 7 unknown #
coedge $-1 $486 $321 $201 $328 forward $197 $-1 #
edge $-1 $329 24.311697022144191 $487 37.803263686792619 $327 $488 forward 7 unknown #
vertex $-1 $328 $489 #
vertex $-1 $326 $490 #
straight-curve $-1 -55.369177376612598 0 11.225648688613479 0 -1 0 I I #
face $-1 $491 $492 $47 $-1 $493 reversed single #
loop $-1 $-1 $494 $203 #
plane-surface $-1 0 -45.598098083732573 0 0 1 0 0 0 1 forward_v I I I I #
coedge $-1 $495 $496 $337 $497 forward $204 $-1 #
coedge $-1 $498 $206 $340 $499 reversed $129 $-1 #
coedge $-1 $206 $498 $335 $497 reversed $129 $-1 #
coedge $-1 $500 $343 $206 $339 forward $492 $-1 #
edge $-1 $501 3.4918044795865306 $502 11.975883938467366 $338 $503 forward 7 unknown #
coedge $-1 $208 $207 $336 $499 forward $82 $-1 #
coedge $-1 $504 $494 $207 $342 forward $333 $-1 #
edge $-1 $505 24.311697022144195 $348 37.803263686792619 $341 $506 forward 7 unknown #
coedge $-1 $338 $507 $208 $344 forward $492 $-1 #
edge $-1 $349 -37.803263686792619 $501 -24.311697022144195 $343 $508 forward 7 unknown #
coedge $-1 $509 $209 $507 $510 reversed $347 $-1 #
coedge $-1 $209 $509 $504 $511 forward $347 $-1 #
loop $-1 $-1 $209 $491 #
vertex $-1 $342 $512 #
vertex $-1 $210 $513 #
straight-curve $-1 68.860744041261029 0 11.225648688613479 0 1 0 I I #
face $-1 $-1 $514 $48 $-1 $515 reversed single #
loop $-1 $-1 $516 $211 #
plane-surface $-1 -55.369177376612598 0 15.467688418053896 -1 0 0 0 0 1 forward_v I I I I #
coedge $-1 $517 $214 $216 $360 forward $133 $-1 #
coedge $-1 $214 $517 $516 $518 forward $133 $-1 #
coedge $-1 $519 $217 $214 $357 forward $212 $-1 #
edge $-1 $363 17.927222278344797 $520 30.937044158293471 $356 $521 forward 7 unknown #
coedge $-1 $522 $523 $215 $359 forward $514 $-1 #
edge $-1 $524 -47.095408772393711 $362 -32.263409734393186 $358 $525 forward 7 unknown #
edge $-1 $363 -21.351500960043019 $524 -1.0047061288372931e-014 $216 $526 forward 7 unknown #
coedge $-1 $217 $519 $522 $527 forward $212 $-1 #
vertex $-1 $359 $528 #
vertex $-1 $218 $529 #
straight-curve $-1 -42.35935549666393 -70.633741848115108 19.709728147494317 0 1 0 I I #
coedge $-1 $365 $365 $-1 $530 reversed $221 $-1 #
edge $-1 $531 0 $531 6.2831853071796004 $222 $532 forward 7 unknown #
vertex $-1 $225 $533 #
ellipse-curve $-1 -51.652085410912981 -37.918605949101064 12.293728628494051 0 -0.69465837861970381 0.71933979245794832 1.5 0 0 1 I I #
coedge $-1 $369 $369 $-1 $534 reversed $228 $-1 #
edge $-1 $535 0 $535 6.2831853071796004 $229 $536 forward 7 unknown #
vertex $-1 $232 $537 #
ellipse-curve $-1 -46.076447462363554 -37.918605949101064 12.293728628494051 0 -0.69465837861970381 0.71933979245794832 1.5 0 0 1 I I #
face $-1 $-1 $385 $51 $-1 $538 forward single #
loop $-1 $-1 $539 $233 #
plane-surface $-1 0 -45.598098083732573 0 0 1 0 0 0 1 forward_v I I I I #
coedge $-1 $540 $541 $542 $543 reversed $234 $-1 #
coedge $-1 $544 $236 $238 $383 forward $147 $-1 #
coedge $-1 $236 $544 $540 $545 forward $147 $-1 #
coedge $-1 $542 $239 $236 $380 forward $385 $-1 #
edge $-1 $387 4.0849279341916507 $546 17.094749814140318 $379 $547 forward 7 unknown #
coedge $-1 $548 $549 $237 $382 forward $374 $-1 #
edge $-1 $550 -47.095408772393711 $386 -32.263409734393186 $381 $551 forward 7 unknown #
edge $-1 $387 -21.351500960043019 $550 -1.0047061288372931e-014 $238 $552 forward 7 unknown #
coedge $-1 $239 $542 $548 $553 forward $385 $-1 #
loop $-1 $-1 $542 $373 #
vertex $-1 $382 $554 #
vertex $-1 $240 $555 #
straight-curve $-1 -14.674766808357635 -70.633741848115108 19.709728147494317 0 1 0 I I #
coedge $-1 $389 $389 $-1 $556 reversed $243 $-1 #
edge $-1 $557 0 $557 6.2831853071796004 $244 $558 forward 7 unknown #
vertex $-1 $247 $559 #
ellipse-curve $-1 -23.967496722606683 -37.918605949101064 12.293728628494051 0 -0.69465837861970381 0.71933979245794832 1.5 0 0 1 I I #
coedge $-1 $393 $393 $-1 $560 reversed $250 $-1 #
edge $-1 $561 0 $561 6.2831853071796004 $251 $562 forward 7 unknown #
vertex $-1 $254 $563 #
ellipse-curve $-1 -18.391858774057255 -37.918605949101064 12.293728628494051 0 -0.69465837861970381 0.71933979245794832 1.5 0 0 1 I I #
face $-1 $-1 $409 $54 $-1 $564 forward single #
loop $-1 $-1 $565 $255 #
plane-surface $-1 0 -45.598098083732573 0 0 1 0 0 0 1 forward_v I I I I #
coedge $-1 $566 $567 $568 $569 reversed $256 $-1 #
coedge $-1 $570 $258 $260 $407 forward $161 $-1 #
coedge $-1 $258 $570 $566 $571 forward $161 $-1 #
coedge $-1 $568 $261 $258 $404 forward $409 $-1 #
edge $-1 $411 -9.7573664099615023 $572 3.2524554699871659 $403 $573 forward 7 unknown #
coedge $-1 $574 $575 $259 $406 forward $398 $-1 #
edge $-1 $576 -47.095408772393711 $410 -32.263409734393186 $405 $577 forward 7 unknown #
edge $-1 $411 -21.351500960043019 $576 -1.0047061288372931e-014 $260 $578 forward 7 unknown #
coedge $-1 $261 $568 $574 $579 forward $409 $-1 #
loop $-1 $-1 $568 $397 #
vertex $-1 $406 $580 #
vertex $-1 $262 $581 #
straight-curve $-1 13.009821879948671 -70.633741848115108 19.709728147494317 0 1 0 I I #
coedge $-1 $413 $413 $-1 $582 reversed $265 $-1 #
edge $-1 $583 0 $583 6.2831853071796004 $266 $584 forward 7 unknown #
vertex $-1 $269 $585 #
ellipse-curve $-1 3.7170919656996091 -37.918605949101064 12.293728628494051 0 -0.69465837861970381 0.71933979245794832 1.5 0 0 1 I I #
coedge $-1 $417 $417 $-1 $586 reversed $272 $-1 #
edge $-1 $587 0 $587 6.2831853071796004 $273 $588 forward 7 unknown #
vertex $-1 $276 $589 #
ellipse-curve $-1 9.2927299142490369 -37.918605949101064 12.293728628494051 0 -0.69465837861970381 0.71933979245794832 1.5 0 0 1 I I #
face $-1 $-1 $433 $57 $-1 $590 forward single #
loop $-1 $-1 $591 $277 #
plane-surface $-1 0 -45.598098083732573 0 0 1 0 0 0 1 forward_v I I I I #
coedge $-1 $592 $593 $594 $595 reversed $278 $-1 #
coedge $-1 $596 $280 $282 $431 forward $175 $-1 #
coedge $-1 $280 $596 $592 $597 forward $175 $-1 #
coedge $-1 $594 $283 $280 $428 forward $433 $-1 #
edge $-1 $435 -23.599660754114652 $598 -10.589838874165981 $427 $599 forward 7 unknown #
coedge $-1 $600 $601 $281 $430 forward $422 $-1 #
edge $-1 $602 -47.095408772393711 $434 -32.263409734393186 $429 $603 forward 7 unknown #
edge $-1 $435 -21.351500960043019 $602 -1.0047061288372931e-014 $282 $604 forward 7 unknown #
coedge $-1 $283 $594 $600 $605 forward $433 $-1 #
loop $-1 $-1 $594 $421 #
vertex $-1 $430 $606 #
vertex $-1 $284 $607 #
straight-curve $-1 40.694410568254966 -70.633741848115108 19.709728147494317 0 1 0 I I #
coedge $-1 $437 $437 $-1 $608 reversed $287 $-1 #
edge $-1 $609 0 $609 6.2831853071796004 $288 $610 forward 7 unknown #
vertex $-1 $291 $611 #
ellipse-curve $-1 31.401680654005901 -37.918605949101064 12.293728628494051 0 -0.69465837861970381 0.71933979245794832 1.5 0 0 1 I I #
coedge $-1 $441 $441 $-1 $612 reversed $294 $-1 #
edge $-1 $613 0 $613 6.2831853071796004 $295 $614 forward 7 unknown #
vertex $-1 $298 $615 #
ellipse-curve $-1 36.977318602555329 -37.918605949101064 12.293728628494051 0 -0.69465837861970381 0.71933979245794832 1.5 0 0 1 I I #
face $-1 $-1 $314 $45 $-1 $616 reversed single #
loop $-1 $-1 $461 $299 #
plane-surface $-1 0 45.598098083732573 0 0 -1 0 0 0 -1 forward_v I I I I #
coedge $-1 $617 $459 $462 $618 forward $300 $-1 #
coedge $-1 $465 $302 $303 $453 reversed $189 $-1 #
coedge $-1 $459 $617 $302 $451 reversed $300 $-1 #
edge $-1 $466 -19.709728147494317 $619 19.709728147494317 $450 $620 forward 7 unknown #
coedge $-1 $304 $303 $617 $621 forward $121 $-1 #
edge $-1 $457 -68.860744041261029 $619 68.860744041261029 $449 $622 forward 7 unknown #
coedge $-1 $462 $461 $304 $455 reversed $446 $-1 #
edge $-1 $623 -68.860744041261029 $456 68.860744041261029 $454 $624 forward 7 unknown #
vertex $-1 $306 $625 #
vertex $-1 $468 $626 #
straight-curve $-1 68.860744041261029 0 -19.709728147494317 0 -1 0 I I #
coedge $-1 $448 $450 $307 $460 reversed $300 $-1 #
edge $-1 $463 -45.598098083732573 $466 45.598098083732573 $459 $627 forward 7 unknown #
coedge $-1 $454 $308 $313 $469 forward $446 $-1 #
coedge $-1 $308 $454 $448 $618 reversed $446 $-1 #
vertex $-1 $309 $628 #
straight-curve $-1 0 45.598098083732573 19.709728147494317 -1 0 0 I I #
coedge $-1 $310 $449 $312 $468 reversed $189 $-1 #
vertex $-1 $460 $629 #
straight-curve $-1 0 -45.598098083732573 19.709728147494317 1 0 0 I I #
edge $-1 $315 -19.709728147494317 $457 19.709728147494317 $312 $630 forward 7 unknown #
edge $-1 $316 -19.709728147494317 $456 19.709728147494317 $313 $631 forward 7 unknown #
point $-1 68.860744041261029 -45.598098083732573 19.709728147494317 #
point $-1 68.860744041261029 45.598098083732573 19.709728147494317 #
face $-1 $-1 $483 $46 $-1 $632 reversed single #
loop $-1 $-1 $633 $318 #
plane-surface $-1 0 0 19.709728147494317 0 0 1 1 0 0 forward_v I I I I #
coedge $-1 $634 $635 $324 $481 forward $319 $-1 #
coedge $-1 $321 $486 $636 $637 reversed $197 $-1 #
edge $-1 $638 -11.975883938467366 $329 -3.4918044795865306 $321 $639 forward 7 unknown #
coedge $-1 $323 $322 $633 $640 reversed $125 $-1 #
coedge $-1 $641 $325 $323 $480 forward $483 $-1 #
edge $-1 $330 3.4918044795865306 $642 11.975883938467366 $479 $643 forward 7 unknown #
edge $-1 $487 -45.598098083732573 $484 45.598098083732573 $475 $644 forward 7 unknown #
coedge $-1 $325 $641 $634 $645 forward $483 $-1 #
loop $-1 $-1 $479 $472 #
vertex $-1 $481 $646 #
straight-curve $-1 -31.057480354468407 -45.598098083732573 11.225648688613479 1 0 0 I I #
coedge $-1 $476 $327 $635 $647 reversed $197 $-1 #
vertex $-1 $481 $648 #
straight-curve $-1 -31.057480354468407 45.598098083732573 11.225648688613479 -1 0 0 I I #
point $-1 -55.369177376612598 45.598098083732573 11.225648688613479 #
point $-1 -55.369177376612598 -45.598098083732573 11.225648688613479 #
face $-1 $-1 $347 $47 $-1 $649 reversed single #
loop $-1 $-1 $338 $332 #
plane-surface $-1 0 45.598098083732573 0 0 -1 0 0 0 -1 forward_v I I I I #
coedge $-1 $341 $650 $498 $651 forward $333 $-1 #
coedge $-1 $652 $335 $650 $653 forward $204 $-1 #
coedge $-1 $335 $652 $500 $654 forward $204 $-1 #
edge $-1 $502 -45.598098083732573 $655 45.598098083732573 $335 $656 forward 7 unknown #
coedge $-1 $337 $336 $494 $651 reversed $129 $-1 #
edge $-1 $505 -45.598098083732573 $501 45.598098083732573 $336 $657 forward 7 unknown #
coedge $-1 $507 $338 $496 $654 reversed $492 $-1 #
vertex $-1 $344 $658 #
vertex $-1 $339 $659 #
straight-curve $-1 55.369177376612605 45.598098083732573 7.7338442090269481 0 0 1 I I #
coedge $-1 $650 $341 $346 $511 reversed $333 $-1 #
vertex $-1 $342 $660 #
straight-curve $-1 31.05748035446841 -45.598098083732573 11.225648688613479 1 0 0 I I #
coedge $-1 $343 $500 $345 $510 forward $492 $-1 #
straight-curve $-1 31.05748035446841 45.598098083732573 11.225648688613479 -1 0 0 I I #
coedge $-1 $346 $345 $652 $661 reversed $347 $-1 #
edge $-1 $662 -19.709728147494317 $349 -11.225648688613479 $345 $663 forward 7 unknown #
edge $-1 $664 -19.709728147494317 $348 -11.225648688613479 $346 $665 forward 7 unknown #
point $-1 68.860744041261029 -45.598098083732573 11.225648688613479 #
point $-1 68.860744041261029 45.598098083732573 11.225648688613479 #
loop $-1 $-1 $358 $351 #
plane-surface $-1 0 -45.598098083732573 0 0 1 0 0 0 1 forward_v I I I I #
coedge $-1 $666 $667 $355 $518 reversed $352 $-1 #
coedge $-1 $355 $354 $523 $668 reversed $133 $-1 #
edge $-1 $669 1.0047061288372931e-014 $520 21.351500960043019 $516 $670 forward 7 unknown #
coedge $-1 $361 $356 $667 $671 forward $212 $-1 #
vertex $-1 $671 $672 #
straight-curve $-1 -24.432133218319134 -30.239113814469551 19.709728147494317 -1 0 0 I I #
coedge $-1 $673 $358 $361 $527 reversed $514 $-1 #
coedge $-1 $358 $673 $517 $668 forward $514 $-1 #
vertex $-1 $359 $674 #
straight-curve $-1 -42.35935549666393 -45.598098083732573 51.973137881887503 0 0 1 I I #
straight-curve $-1 -42.35935549666393 -45.59809808373258 4.8777291094937851 0 -0.71933979245794832 -0.69465837861970381 I I #
edge $-1 $675 -55.369177376612598 $362 -42.35935549666393 $522 $676 forward 7 unknown #
point $-1 -42.35935549666393 -45.598098083732573 19.709728147494317 #
point $-1 -42.35935549666393 -30.239113814469551 19.709728147494317 #
edge $-1 $677 1 $677 0 $365 $-1 forward 7 unknown #
vertex $-1 $366 $678 #
ellipse-curve $-1 -51.652085410912981 -33.757333657950646 7.9846051249022301 0 -0.69465837861970381 0.71933979245794832 1.5 0 0 1 I I #
point $-1 -50.152085410912981 -37.918605949101064 12.293728628494055 #
edge $-1 $679 1 $679 0 $369 $-1 forward 7 unknown #
vertex $-1 $370 $680 #
ellipse-curve $-1 -46.076447462363554 -33.757333657950646 7.9846051249022301 0 -0.69465837861970381 0.71933979245794832 1.5 0 0 1 I I #
point $-1 -44.576447462363554 -37.918605949101064 12.293728628494055 #
plane-surface $-1 0 0 19.709728147494317 0 0 1 1 0 0 forward_v I I I I #
coedge $-1 $549 $548 $541 $681 forward $374 $-1 #
coedge $-1 $541 $376 $378 $545 reversed $234 $-1 #
coedge $-1 $376 $540 $539 $681 reversed $234 $-1 #
coedge $-1 $384 $379 $376 $543 forward $385 $-1 #
edge $-1 $546 -40.39462803364556 $682 -25.035643764382534 $542 $683 forward 7 unknown #
coedge $-1 $378 $377 $549 $684 reversed $147 $-1 #
edge $-1 $685 1.0047061288372931e-014 $546 21.351500960043019 $540 $686 forward 7 unknown #
vertex $-1 $380 $687 #
straight-curve $-1 -10.589838874165984 -30.239113814469551 19.709728147494317 -1 0 0 I I #
coedge $-1 $539 $381 $384 $553 reversed $374 $-1 #
coedge $-1 $381 $539 $544 $684 forward $374 $-1 #
vertex $-1 $382 $688 #
straight-curve $-1 -14.674766808357635 -45.598098083732573 51.973137881887503 0 0 1 I I #
straight-curve $-1 -14.674766808357635 -45.59809808373258 4.8777291094937851 0 -0.71933979245794832 -0.69465837861970381 I I #
edge $-1 $682 -27.684588688306302 $386 -14.674766808357635 $548 $689 forward 7 unknown #
point $-1 -14.674766808357635 -45.598098083732573 19.709728147494317 #
point $-1 -14.674766808357635 -30.239113814469551 19.709728147494317 #
edge $-1 $690 1 $690 0 $389 $-1 forward 7 unknown #
vertex $-1 $390 $691 #
ellipse-curve $-1 -23.967496722606683 -33.757333657950646 7.9846051249022301 0 -0.69465837861970381 0.71933979245794832 1.5 0 0 1 I I #
point $-1 -22.467496722606683 -37.918605949101064 12.293728628494055 #
edge $-1 $692 1 $692 0 $393 $-1 forward 7 unknown #
vertex $-1 $394 $693 #
ellipse-curve $-1 -18.391858774057255 -33.757333657950646 7.9846051249022301 0 -0.69465837861970381 0.71933979245794832 1.5 0 0 1 I I #
point $-1 -16.891858774057255 -37.918605949101064 12.293728628494055 #
plane-surface $-1 0 0 19.709728147494317 0 0 1 1 0 0 forward_v I I I I #
coedge $-1 $575 $574 $567 $694 forward $398 $-1 #
coedge $-1 $567 $400 $402 $571 reversed $256 $-1 #
coedge $-1 $400 $566 $565 $694 reversed $256 $-1 #
coedge $-1 $408 $403 $400 $569 forward $409 $-1 #
edge $-1 $572 -40.39462803364556 $695 -25.035643764382534 $568 $696 forward 7 unknown #
coedge $-1 $402 $401 $575 $697 reversed $161 $-1 #
edge $-1 $698 1.0047061288372931e-014 $572 21.351500960043019 $566 $699 forward 7 unknown #
vertex $-1 $404 $700 #
straight-curve $-1 3.2524554699871686 -30.239113814469551 19.709728147494317 -1 0 0 I I #
coedge $-1 $565 $405 $408 $579 reversed $398 $-1 #
coedge $-1 $405 $565 $570 $697 forward $398 $-1 #
vertex $-1 $406 $701 #
straight-curve $-1 13.009821879948671 -45.598098083732573 51.973137881887503 0 0 1 I I #
straight-curve $-1 13.009821879948671 -45.59809808373258 4.8777291094937851 0 -0.71933979245794832 -0.69465837861970381 I I #
edge $-1 $695 2.6645352591003757e-015 $410 13.009821879948671 $574 $702 forward 7 unknown #
point $-1 13.009821879948671 -45.598098083732573 19.709728147494317 #
point $-1 13.009821879948671 -30.239113814469551 19.709728147494317 #
edge $-1 $703 1 $703 0 $413 $-1 forward 7 unknown #
vertex $-1 $414 $704 #
ellipse-curve $-1 3.7170919656996091 -33.757333657950646 7.9846051249022301 0 -0.69465837861970381 0.71933979245794832 1.5 0 0 1 I I #
point $-1 5.2170919656996091 -37.918605949101064 12.293728628494055 #
edge $-1 $705 1 $705 0 $417 $-1 forward 7 unknown #
vertex $-1 $418 $706 #
ellipse-curve $-1 9.2927299142490369 -33.757333657950646 7.9846051249022301 0 -0.69465837861970381 0.71933979245794832 1.5 0 0 1 I I #
point $-1 10.792729914249037 -37.918605949101064 12.293728628494055 #
plane-surface $-1 0 0 19.709728147494317 0 0 1 1 0 0 forward_v I I I I #
coedge $-1 $601 $600 $593 $707 forward $422 $-1 #
coedge $-1 $593 $424 $426 $597 reversed $278 $-1 #
coedge $-1 $424 $592 $591 $707 reversed $278 $-1 #
coedge $-1 $432 $427 $424 $595 forward $433 $-1 #
edge $-1 $598 -40.39462803364556 $708 -25.035643764382534 $594 $709 forward 7 unknown #
coedge $-1 $426 $425 $601 $710 reversed $175 $-1 #
edge $-1 $711 1.0047061288372931e-014 $598 21.351500960043019 $592 $712 forward 7 unknown #
vertex $-1 $428 $713 #
straight-curve $-1 17.094749814140314 -30.239113814469551 19.709728147494317 -1 0 0 I I #
coedge $-1 $591 $429 $432 $605 reversed $422 $-1 #
coedge $-1 $429 $591 $596 $710 forward $422 $-1 #
vertex $-1 $430 $714 #
straight-curve $-1 40.694410568254966 -45.598098083732573 51.973137881887503 0 0 1 I I #
straight-curve $-1 40.694410568254966 -45.59809808373258 4.8777291094937851 0 -0.71933979245794832 -0.69465837861970381 I I #
edge $-1 $708 27.684588688306295 $434 40.694410568254966 $600 $715 forward 7 unknown #
point $-1 40.694410568254966 -45.598098083732573 19.709728147494317 #
point $-1 40.694410568254966 -30.239113814469551 19.709728147494317 #
edge $-1 $716 1 $716 0 $437 $-1 forward 7 unknown #
vertex $-1 $438 $717 #
ellipse-curve $-1 31.401680654005901 -33.757333657950646 7.9846051249022301 0 -0.69465837861970381 0.71933979245794832 1.5 0 0 1 I I #
point $-1 32.901680654005901 -37.918605949101064 12.293728628494055 #
edge $-1 $718 1 $718 0 $441 $-1 forward 7 unknown #
vertex $-1 $442 $719 #
ellipse-curve $-1 36.977318602555329 -33.757333657950646 7.9846051249022301 0 -0.69465837861970381 0.71933979245794832 1.5 0 0 1 I I #
point $-1 38.477318602555329 -37.918605949101064 12.293728628494055 #
plane-surface $-1 68.860744041261029 0 0 -1 0 0 0 0 1 forward_v I I I I #
coedge $-1 $450 $448 $452 $621 reversed $300 $-1 #
edge $-1 $463 -19.709728147494317 $623 19.709728147494317 $462 $720 forward 7 unknown #
vertex $-1 $621 $721 #
straight-curve $-1 -68.860744041261029 -45.598098083732573 0 0 0 -1 I I #
edge $-1 $619 -45.598098083732573 $623 45.598098083732573 $617 $722 forward 7 unknown #
straight-curve $-1 0 -45.598098083732573 -19.709728147494317 -1 0 0 I I #
vertex $-1 $455 $723 #
straight-curve $-1 0 45.598098083732573 -19.709728147494317 1 0 0 I I #
point $-1 68.860744041261029 45.598098083732573 -19.709728147494317 #
point $-1 68.860744041261029 -45.598098083732573 -19.709728147494317 #
straight-curve $-1 -68.860744041261029 0 19.709728147494317 0 -1 0 I I #
point $-1 -68.860744041261029 45.598098083732573 19.709728147494317 #
point $-1 -68.860744041261029 -45.598098083732573 19.709728147494317 #
straight-curve $-1 68.860744041261029 -45.598098083732573 0 0 0 -1 I I #
straight-curve $-1 68.860744041261029 45.598098083732573 0 0 0 -1 I I #
plane-surface $-1 0 -45.598098083732573 0 0 1 0 0 0 1 forward_v I I I I #
coedge $-1 $636 $724 $478 $640 forward $473 $-1 #
coedge $-1 $725 $475 $482 $645 reversed $319 $-1 #
coedge $-1 $475 $725 $486 $647 forward $319 $-1 #
coedge $-1 $726 $633 $476 $637 forward $473 $-1 #
edge $-1 $638 55.369177376612598 $727 68.860744041261029 $476 $728 forward 7 unknown #
vertex $-1 $637 $729 #
straight-curve $-1 -55.369177376612598 45.598098083732573 7.7338442090269481 0 0 -1 I I #
edge $-1 $642 -45.598098083732573 $638 45.598098083732573 $633 $730 forward 7 unknown #
coedge $-1 $482 $479 $724 $731 reversed $483 $-1 #
vertex $-1 $480 $732 #
straight-curve $-1 -55.369177376612598 -45.598098083732573 7.7338442090269481 0 0 1 I I #
straight-curve $-1 -68.860744041261029 0 11.225648688613479 0 -1 0 I I #
edge $-1 $733 -19.709728147494317 $484 -11.225648688613479 $634 $734 forward 7 unknown #
point $-1 -68.860744041261029 -45.598098083732573 11.225648688613479 #
edge $-1 $727 -19.709728147494317 $487 -11.225648688613479 $486 $735 forward 7 unknown #
point $-1 -68.860744041261029 45.598098083732573 11.225648688613479 #
plane-surface $-1 68.860744041261029 0 0 -1 0 0 0 0 1 forward_v I I I I #
coedge $-1 $494 $504 $495 $653 reversed $333 $-1 #
edge $-1 $655 -11.975883938467366 $505 -3.4918044795865306 $494 $736 forward 7 unknown #
coedge $-1 $496 $495 $509 $661 forward $204 $-1 #
edge $-1 $655 55.369177376612605 $664 68.860744041261029 $650 $737 forward 7 unknown #
edge $-1 $662 -68.860744041261029 $502 -55.369177376612605 $500 $738 forward 7 unknown #
vertex $-1 $653 $739 #
straight-curve $-1 55.369177376612605 0 19.709728147494317 0 -1 0 I I #
straight-curve $-1 55.369177376612605 0 11.225648688613479 0 1 0 I I #
point $-1 55.369177376612605 45.598098083732573 11.225648688613479 #
point $-1 55.369177376612605 45.598098083732573 19.709728147494314 #
point $-1 55.369177376612605 -45.598098083732573 11.225648688613479 #
edge $-1 $664 -45.598098083732573 $662 45.598098083732573 $509 $740 forward 7 unknown #
vertex $-1 $661 $741 #
straight-curve $-1 68.860744041261029 45.598098083732573 0 0 0 -1 I I #
vertex $-1 $661 $742 #
straight-curve $-1 68.860744041261029 -45.598098083732573 0 0 0 -1 I I #
coedge $-1 $667 $516 $673 $743 reversed $352 $-1 #
coedge $-1 $516 $666 $519 $671 reversed $352 $-1 #
edge $-1 $669 -30.937044158293471 $524 -17.927222278344797 $523 $744 forward 7 unknown #
vertex $-1 $743 $745 #
straight-curve $-1 -55.369177376612605 -45.59809808373258 4.8777291094937851 0 0.71933979245794832 0.69465837861970381 I I #
edge $-1 $520 30.239113814469551 $675 45.598098083732573 $519 $746 forward 7 unknown #
point $-1 -55.369177376612605 -30.239113814469551 19.709728147494317 #
coedge $-1 $523 $522 $666 $743 forward $514 $-1 #
point $-1 -42.35935549666393 -45.598098083732573 4.8777291094937922 #
vertex $-1 $527 $747 #
straight-curve $-1 0 -45.598098083732573 19.709728147494317 1 0 0 I I #
vertex $-1 $530 $748 #
point $-1 -50.152085410912981 -33.757333657950646 7.9846051249022301 #
vertex $-1 $534 $749 #
point $-1 -44.576447462363554 -33.757333657950646 7.9846051249022301 #
edge $-1 $682 32.263409734393186 $685 47.095408772393711 $539 $750 forward 7 unknown #
vertex $-1 $553 $751 #
straight-curve $-1 -27.684588688306302 -70.633741848115108 19.709728147494317 0 -1 0 I I #
edge $-1 $685 -17.094749814140318 $550 -4.0849279341916507 $549 $752 forward 7 unknown #
vertex $-1 $684 $753 #
straight-curve $-1 -27.684588688306302 -45.59809808373258 4.8777291094937851 0 0.71933979245794832 0.69465837861970381 I I #
point $-1 -27.684588688306302 -30.239113814469551 19.709728147494317 #
point $-1 -14.674766808357635 -45.598098083732573 4.8777291094937922 #
straight-curve $-1 0 -45.598098083732573 19.709728147494317 1 0 0 I I #
vertex $-1 $556 $754 #
point $-1 -22.467496722606683 -33.757333657950646 7.9846051249022301 #
vertex $-1 $560 $755 #
point $-1 -16.891858774057255 -33.757333657950646 7.9846051249022301 #
edge $-1 $695 32.263409734393186 $698 47.095408772393711 $565 $756 forward 7 unknown #
vertex $-1 $579 $757 #
straight-curve $-1 2.6645352591003757e-015 -70.633741848115108 19.709728147494317 0 -1 0 I I #
edge $-1 $698 -3.2524554699871659 $576 9.7573664099615023 $575 $758 forward 7 unknown #
vertex $-1 $697 $759 #
straight-curve $-1 2.6645352591003757e-015 -45.59809808373258 4.8777291094937851 0 0.71933979245794832 0.69465837861970381 I I #
point $-1 2.6645352591003757e-015 -30.239113814469551 19.709728147494317 #
point $-1 13.009821879948671 -45.598098083732573 4.8777291094937922 #
straight-curve $-1 0 -45.598098083732573 19.709728147494317 1 0 0 I I #
vertex $-1 $582 $760 #
point $-1 5.2170919656996091 -33.757333657950646 7.9846051249022301 #
vertex $-1 $586 $761 #
point $-1 10.792729914249037 -33.757333657950646 7.9846051249022301 #
edge $-1 $708 32.263409734393186 $711 47.095408772393711 $591 $762 forward 7 unknown #
vertex $-1 $605 $763 #
straight-curve $-1 27.684588688306295 -70.633741848115108 19.709728147494317 0 -1 0 I I #
edge $-1 $711 10.589838874165981 $602 23.599660754114652 $601 $764 forward 7 unknown #
vertex $-1 $710 $765 #
straight-curve $-1 27.684588688306295 -45.59809808373258 4.8777291094937851 0 0.71933979245794832 0.69465837861970381 I I #
point $-1 27.684588688306295 -30.239113814469551 19.709728147494317 #
point $-1 40.694410568254966 -45.598098083732573 4.8777291094937922 #
straight-curve $-1 0 -45.598098083732573 19.709728147494317 1 0 0 I I #
vertex $-1 $608 $766 #
point $-1 32.901680654005901 -33.757333657950646 7.9846051249022301 #
vertex $-1 $612 $767 #
point $-1 38.477318602555329 -33.757333657950646 7.9846051249022301 #
straight-curve $-1 -68.860744041261029 45.598098083732573 0 0 0 -1 I I #
point $-1 -68.860744041261029 -45.598098083732573 -19.709728147494317 #
straight-curve $-1 -68.860744041261029 0 -19.709728147494317 0 1 0 I I #
point $-1 -68.860744041261029 45.598098083732573 -19.709728147494317 #
coedge $-1 $633 $726 $641 $731 forward $473 $-1 #
coedge $-1 $635 $634 $726 $768 reversed $319 $-1 #
coedge $-1 $724 $636 $725 $768 forward $473 $-1 #
vertex $-1 $637 $769 #
straight-curve $-1 0 45.598098083732573 19.709728147494317 -1 0 0 I I #
point $-1 -55.369177376612598 45.598098083732573 19.709728147494314 #
straight-curve $-1 -55.369177376612598 0 19.709728147494317 0 1 0 I I #
edge $-1 $733 -68.860744041261029 $642 -55.369177376612598 $641 $770 forward 7 unknown #
point $-1 -55.369177376612598 -45.598098083732573 19.709728147494314 #
vertex $-1 $768 $771 #
straight-curve $-1 -68.860744041261029 -45.598098083732573 0 0 0 -1 I I #
straight-curve $-1 -68.860744041261029 45.598098083732573 0 0 0 -1 I I #
straight-curve $-1 55.369177376612605 -45.598098083732573 7.7338442090269481 0 0 -1 I I #
straight-curve $-1 0 -45.598098083732573 19.709728147494317 1 0 0 I I #
straight-curve $-1 0 45.598098083732573 19.709728147494317 -1 0 0 I I #
point $-1 55.369177376612605 -45.598098083732573 19.709728147494314 #
straight-curve $-1 68.860744041261029 0 19.709728147494317 0 1 0 I I #
point $-1 68.860744041261029 45.598098083732573 19.709728147494317 #
point $-1 68.860744041261029 -45.598098083732573 19.709728147494317 #
edge $-1 $675 32.263409734393193 $669 47.095408772393711 $673 $772 forward 7 unknown #
straight-curve $-1 -24.432133218319134 -45.598098083732573 4.8777291094937958 1 0 0 I I #
point $-1 -55.369177376612605 -45.598098083732573 4.8777291094937922 #
straight-curve $-1 -55.369177376612598 0 19.709728147494317 0 -1 0 I I #
point $-1 -55.369177376612598 -45.598098083732573 19.709728147494314 #
point $-1 -51.652085410912981 -32.715346090021093 6.9055954362153082 #
point $-1 -46.076447462363554 -32.715346090021093 6.9055954362153082 #
straight-curve $-1 -27.684588688306302 -45.598098083732573 51.973137881887503 0 0 -1 I I #
point $-1 -27.684588688306302 -45.598098083732573 19.709728147494317 #
straight-curve $-1 -10.589838874165984 -45.598098083732573 4.8777291094937958 1 0 0 I I #
point $-1 -27.684588688306302 -45.598098083732573 4.8777291094937922 #
point $-1 -23.967496722606683 -32.715346090021093 6.9055954362153082 #
point $-1 -18.391858774057255 -32.715346090021093 6.9055954362153082 #
straight-curve $-1 2.6645352591003757e-015 -45.598098083732573 51.973137881887503 0 0 -1 I I #
point $-1 2.6645352591003757e-015 -45.598098083732573 19.709728147494317 #
straight-curve $-1 3.2524554699871686 -45.598098083732573 4.8777291094937958 1 0 0 I I #
point $-1 2.6645352591003757e-015 -45.598098083732573 4.8777291094937922 #
point $-1 3.7170919656996091 -32.715346090021093 6.9055954362153082 #
point $-1 9.2927299142490369 -32.715346090021093 6.9055954362153082 #
straight-curve $-1 27.684588688306295 -45.598098083732573 51.973137881887503 0 0 -1 I I #
point $-1 27.684588688306295 -45.598098083732573 19.709728147494317 #
straight-curve $-1 17.094749814140314 -45.598098083732573 4.8777291094937958 1 0 0 I I #
point $-1 27.684588688306295 -45.598098083732573 4.8777291094937922 #
point $-1 31.401680654005901 -32.715346090021093 6.9055954362153082 #
point $-1 36.977318602555329 -32.715346090021093 6.9055954362153082 #
edge $-1 $727 -45.598098083732573 $733 45.598098083732573 $725 $773 forward 7 unknown #
point $-1 -68.860744041261029 45.598098083732573 19.709728147494317 #
straight-curve $-1 0 -45.598098083732573 19.709728147494317 1 0 0 I I #
point $-1 -68.860744041261029 -45.598098083732573 19.709728147494317 #
straight-curve $-1 -55.369177376612605 -45.598098083732573 51.973137881887503 0 0 -1 I I #
straight-curve $-1 -68.860744041261029 0 19.709728147494317 0 -1 0 I I #
End-of-ACIS-data 