500 0 8 0           
7 Unknown 11 ACIS 5.0 NT 24 Fri Mar 26 18:45:39 1999 
-1 9.9999999999999995e-007 1e-010 
body $-1 $8 $-1 $9 #
body $-1 $10 $-1 $11 #
body $-1 $12 $-1 $13 #
body $-1 $14 $-1 $15 #
body $-1 $16 $-1 $17 #
body $-1 $18 $-1 $19 #
body $-1 $20 $-1 $21 #
body $-1 $22 $-1 $23 #
lump $-1 $-1 $24 $0 #
transform $-1 1 0 0 0 1 0 0 0 1 57.50175481429487 34.431209148179292 13.120048655758898 1 rotate no_reflect no_shear #
lump $-1 $-1 $25 $1 #
transform $-1 1 0 0 0 1 0 0 0 1 57.50175481429487 34.431209148179292 13.120048655758898 1 rotate no_reflect no_shear #
lump $-1 $-1 $26 $2 #
transform $-1 1 0 0 0 1 0 0 0 1 57.50175481429487 34.431209148179292 13.120048655758898 1 rotate no_reflect no_shear #
lump $-1 $-1 $27 $3 #
transform $-1 1 0 0 0 1 0 0 0 1 57.50175481429487 34.431209148179292 13.120048655758898 1 rotate no_reflect no_shear #
lump $-1 $-1 $28 $4 #
transform $-1 1 0 0 0 1 0 0 0 1 57.50175481429487 34.431209148179292 13.120048655758898 1 rotate no_reflect no_shear #
lump $-1 $-1 $29 $5 #
transform $-1 1 0 0 0 1 0 0 0 1 57.50175481429487 34.431209148179292 13.120048655758898 1 rotate no_reflect no_shear #
lump $-1 $-1 $30 $6 #
transform $-1 1 0 0 0 1 0 0 0 1 57.50175481429487 34.431209148179292 13.120048655758898 1 rotate no_reflect no_shear #
lump $-1 $-1 $31 $7 #
transform $-1 1 0 0 0 1 0 0 0 1 57.50175481429487 34.431209148179292 13.120048655758898 1 rotate no_reflect no_shear #
shell $-1 $-1 $-1 $32 $-1 $8 #
shell $-1 $-1 $-1 $33 $-1 $10 #
shell $-1 $-1 $-1 $34 $-1 $12 #
shell $-1 $-1 $-1 $35 $-1 $14 #
shell $-1 $-1 $-1 $36 $-1 $16 #
shell $-1 $-1 $-1 $37 $-1 $18 #
shell $-1 $-1 $-1 $38 $-1 $20 #
shell $-1 $-1 $-1 $39 $-1 $22 #
face $-1 $40 $41 $24 $-1 $42 forward single #
face $-1 $43 $44 $25 $-1 $45 forward single #
face $-1 $46 $47 $26 $-1 $48 reversed single #
face $-1 $49 $50 $27 $-1 $51 forward single #
face $-1 $52 $53 $28 $-1 $54 forward single #
face $-1 $55 $56 $29 $-1 $57 reversed single #
face $-1 $58 $59 $30 $-1 $60 forward single #
face $-1 $61 $62 $31 $-1 $63 forward single #
face $-1 $64 $65 $24 $-1 $66 reversed single #
loop $-1 $-1 $67 $32 #
plane-surface $-1 0 0 13.120048655758898 0 0 1 1 0 0 forward_v I I I I #
face $-1 $68 $69 $25 $-1 $70 reversed single #
loop $-1 $-1 $71 $33 #
plane-surface $-1 0 -27.165324040436637 -5.0621246595102294 0 0 1 1 0 0 forward_v I I I I #
face $-1 $72 $73 $26 $-1 $74 reversed single #
loop $-1 $-1 $75 $34 #
plane-surface $-1 -157.09771656657796 -4.5895211576336106 66.701432502918365 0 1 0 -0.86602541151947299 0 0.49999998660252726 forward_v I I I I #
face $-1 $76 $77 $27 $-1 $78 forward single #
loop $-1 $79 $80 $35 #
cone-surface $-1 -55.888147053301758 -1.2022622246689636 10.8816419583864 0.86602541151947299 0 -0.49999998660252726 0.49999998660252726 0 0.86602541151947299 1 I I 0 1 1 forward I I I I #
face $-1 $81 $82 $28 $-1 $83 forward single #
loop $-1 $84 $85 $36 #
cone-surface $-1 -55.888147053301758 3.878626174778006 10.8816419583864 0.86602541151947299 0 -0.49999998660252726 0.49999998660252726 0 0.86602541151947299 1 I I 0 1 1 forward I I I I #
face $-1 $86 $87 $29 $-1 $88 reversed single #
loop $-1 $-1 $89 $37 #
plane-surface $-1 -57.501754814294856 1.3381819750545247 9.1996792293798819 -0.86602541151947299 0 0.49999998660252726 0.49999998660252726 0 0.86602541151947299 forward_v I I I I #
face $-1 $90 $91 $30 $-1 $92 forward single #
loop $-1 $93 $94 $38 #
cone-surface $-1 -55.888147053301758 10.653144040707303 10.8816419583864 0.86602541151947299 0 -0.49999998660252726 0.49999998660252726 0 0.86602541151947299 1 I I 0 1 1 forward I I I I #
face $-1 $95 $96 $31 $-1 $97 forward single #
loop $-1 $98 $99 $39 #
cone-surface $-1 -55.888147053301758 15.734032440154273 10.8816419583864 0.86602541151947299 0 -0.49999998660252726 0.49999998660252726 0 0.86602541151947299 1 I I 0 1 1 forward I I I I #
face $-1 $100 $101 $24 $-1 $102 reversed single #
loop $-1 $-1 $103 $40 #
plane-surface $-1 0 0 -13.120048655758898 0 0 1 1 0 0 forward_v I I I I #
coedge $-1 $104 $105 $106 $107 forward $41 $-1 #
face $-1 $108 $109 $25 $-1 $110 reversed single #
loop $-1 $-1 $111 $43 #
plane-surface $-1 0 -27.165324040436637 -11.692740270632282 0 0 1 1 0 0 forward_v I I I I #
coedge $-1 $112 $113 $114 $115 reversed $44 $-1 #
face $-1 $116 $117 $26 $-1 $118 reversed single #
loop $-1 $-1 $119 $46 #
plane-surface $-1 -57.501754814294856 1.3381819750545247 9.1996792293798819 -0.86602541151947299 0 0.49999998660252726 0.49999998660252726 0 0.86602541151947299 forward_v I I I I #
coedge $-1 $120 $121 $122 $123 reversed $47 $-1 #
face $-1 $-1 $124 $27 $-1 $125 forward single #
loop $-1 $126 $127 $49 #
cone-surface $-1 -54.973239717938014 -1.2022622246689636 10.353419980902151 0.86602541151947299 0 -0.49999998660252726 0.24999999330126363 0 0.43301270575973649 1 I I -0.70710678118654746 0.70710678118654746 0.5 forward I I I I #
loop $-1 $-1 $128 $35 #
coedge $-1 $80 $80 $129 $130 reversed $50 $-1 #
face $-1 $-1 $131 $28 $-1 $132 forward single #
loop $-1 $133 $134 $52 #
cone-surface $-1 -54.973239717938014 3.878626174778006 10.353419980902151 0.86602541151947299 0 -0.49999998660252726 0.24999999330126363 0 0.43301270575973649 1 I I -0.70710678118654746 0.70710678118654746 0.5 forward I I I I #
loop $-1 $-1 $135 $36 #
coedge $-1 $85 $85 $136 $137 reversed $53 $-1 #
face $-1 $138 $139 $29 $-1 $140 forward single #
loop $-1 $-1 $141 $55 #
plane-surface $-1 -157.09771656657796 19.121291373118929 66.701432502918365 0 -1 0 0.86602541151947299 0 -0.49999998660252726 forward_v I I I I #
coedge $-1 $142 $143 $144 $145 reversed $56 $-1 #
face $-1 $-1 $146 $30 $-1 $147 forward single #
loop $-1 $148 $149 $58 #
cone-surface $-1 -54.973239717938014 10.653144040707303 10.353419980902151 0.86602541151947299 0 -0.49999998660252726 0.24999999330126363 0 0.43301270575973649 1 I I -0.70710678118654746 0.70710678118654746 0.5 forward I I I I #
loop $-1 $-1 $150 $38 #
coedge $-1 $94 $94 $151 $152 reversed $59 $-1 #
face $-1 $-1 $153 $31 $-1 $154 forward single #
loop $-1 $155 $156 $61 #
cone-surface $-1 -54.973239717938014 15.734032440154273 10.353419980902151 0.86602541151947299 0 -0.49999998660252726 0.24999999330126363 0 0.43301270575973649 1 I I -0.70710678118654746 0.70710678118654746 0.5 forward I I I I #
loop $-1 $-1 $157 $39 #
coedge $-1 $99 $99 $158 $159 reversed $62 $-1 #
face $-1 $160 $161 $24 $-1 $162 reversed single #
loop $-1 $-1 $163 $64 #
plane-surface $-1 0 -34.431209148179292 0 0 1 0 0 0 1 forward_v I I I I #
coedge $-1 $164 $165 $166 $167 forward $65 $-1 #
coedge $-1 $168 $67 $169 $170 forward $41 $-1 #
coedge $-1 $67 $168 $171 $172 forward $41 $-1 #
coedge $-1 $173 $174 $67 $107 reversed $175 $-1 #
edge $-1 $176 -34.431209148179292 $177 34.431209148179292 $106 $178 forward 7 unknown #
face $-1 $179 $180 $25 $-1 $181 reversed single #
loop $-1 $-1 $182 $68 #
plane-surface $-1 0 -19.899438932693982 -8.3774324650712551 0 -1 0 0 0 -1 forward_v I I I I #
coedge $-1 $183 $184 $185 $186 reversed $69 $-1 #
coedge $-1 $187 $71 $188 $189 forward $44 $-1 #
coedge $-1 $71 $187 $190 $191 reversed $44 $-1 #
coedge $-1 $192 $193 $71 $115 forward $194 $-1 #
edge $-1 $195 6.3167769124756639 $196 20.848547127960973 $114 $197 forward 7 unknown #
face $-1 $198 $199 $26 $-1 $200 reversed single #
loop $-1 $-1 $201 $72 #
plane-surface $-1 -157.09771656657796 7.2658851077426601 66.701432502918365 0 -1 0 0.86602541151947299 0 -0.49999998660252726 forward_v I I I I #
coedge $-1 $202 $203 $204 $205 reversed $73 $-1 #
coedge $-1 $121 $75 $206 $207 reversed $47 $-1 #
coedge $-1 $75 $120 $202 $208 reversed $47 $-1 #
coedge $-1 $204 $209 $75 $123 forward $210 $-1 #
edge $-1 $211 21.047103468994109 $212 23.310529731772313 $122 $213 forward 7 unknown #
loop $-1 $-1 $129 $76 #
plane-surface $-1 -57.501754814294856 1.3381819750545247 9.1996792293798819 -0.86602541151947299 0 0.49999998660252726 0.49999998660252726 0 0.86602541151947299 forward_v I I I I #
loop $-1 $-1 $214 $49 #
coedge $-1 $127 $127 $128 $215 reversed $77 $-1 #
coedge $-1 $128 $128 $127 $215 forward $79 $-1 #
coedge $-1 $129 $129 $80 $130 forward $124 $-1 #
edge $-1 $216 0 $216 6.2831853071796004 $129 $217 forward 7 unknown #
loop $-1 $-1 $136 $81 #
plane-surface $-1 -57.501754814294856 1.3381819750545247 9.1996792293798819 -0.86602541151947299 0 0.49999998660252726 0.49999998660252726 0 0.86602541151947299 forward_v I I I I #
loop $-1 $-1 $218 $52 #
coedge $-1 $134 $134 $135 $219 reversed $82 $-1 #
coedge $-1 $135 $135 $134 $219 forward $84 $-1 #
coedge $-1 $136 $136 $85 $137 forward $131 $-1 #
edge $-1 $220 0 $220 6.2831853071796004 $136 $221 forward 7 unknown #
face $-1 $222 $223 $29 $-1 $224 forward single #
loop $-1 $-1 $225 $86 #
plane-surface $-1 0 0 13.120048655758898 0 0 1 1 0 0 forward_v I I I I #
coedge $-1 $226 $227 $228 $229 reversed $87 $-1 #
coedge $-1 $230 $89 $231 $232 reversed $56 $-1 #
coedge $-1 $89 $230 $225 $233 reversed $56 $-1 #
coedge $-1 $234 $235 $89 $145 forward $223 $-1 #
edge $-1 $236 -2.8642609447069912e-014 $237 4.5268526468531505 $144 $238 forward 7 unknown #
loop $-1 $-1 $151 $90 #
plane-surface $-1 -57.501754814294856 1.3381819750545247 9.1996792293798819 -0.86602541151947299 0 0.49999998660252726 0.49999998660252726 0 0.86602541151947299 forward_v I I I I #
loop $-1 $-1 $239 $58 #
coedge $-1 $149 $149 $150 $240 reversed $91 $-1 #
coedge $-1 $150 $150 $149 $240 forward $93 $-1 #
coedge $-1 $151 $151 $94 $152 forward $146 $-1 #
edge $-1 $241 0 $241 6.2831853071796004 $151 $242 forward 7 unknown #
loop $-1 $-1 $158 $95 #
plane-surface $-1 -57.501754814294856 1.3381819750545247 9.1996792293798819 -0.86602541151947299 0 0.49999998660252726 0.49999998660252726 0 0.86602541151947299 forward_v I I I I #
loop $-1 $-1 $243 $61 #
coedge $-1 $156 $156 $157 $244 reversed $96 $-1 #
coedge $-1 $157 $157 $156 $244 forward $98 $-1 #
coedge $-1 $158 $158 $99 $159 forward $153 $-1 #
edge $-1 $245 0 $245 6.2831853071796004 $158 $246 forward 7 unknown #
face $-1 $247 $248 $24 $-1 $249 reversed single #
loop $-1 $-1 $250 $100 #
plane-surface $-1 -57.50175481429487 0 0 1 0 0 0 0 -1 forward_v I I I I #
coedge $-1 $251 $171 $252 $253 forward $101 $-1 #
coedge $-1 $254 $103 $251 $255 forward $65 $-1 #
coedge $-1 $103 $254 $256 $257 forward $65 $-1 #
coedge $-1 $174 $173 $103 $167 reversed $175 $-1 #
edge $-1 $258 -34.431209148179292 $259 34.431209148179292 $166 $260 forward 7 unknown #
coedge $-1 $105 $104 $261 $262 forward $41 $-1 #
coedge $-1 $263 $264 $104 $170 reversed $248 $-1 #
edge $-1 $177 -57.50175481429487 $265 57.50175481429487 $169 $266 forward 7 unknown #
coedge $-1 $163 $267 $105 $172 reversed $101 $-1 #
edge $-1 $268 -57.50175481429487 $176 57.50175481429487 $171 $269 forward 7 unknown #
coedge $-1 $166 $106 $267 $270 forward $175 $-1 #
coedge $-1 $106 $166 $263 $271 reversed $175 $-1 #
loop $-1 $-1 $173 $247 #
vertex $-1 $107 $272 #
vertex $-1 $107 $273 #
straight-curve $-1 57.50175481429487 0 13.120048655758898 0 1 0 I I #
face $-1 $274 $275 $25 $-1 $276 reversed single #
loop $-1 $-1 $277 $108 #
plane-surface $-1 -57.50175481429487 0 0 1 0 0 0 0 -1 forward_v I I I I #
coedge $-1 $278 $188 $193 $279 reversed $109 $-1 #
coedge $-1 $280 $111 $281 $282 reversed $69 $-1 #
coedge $-1 $111 $280 $278 $283 forward $69 $-1 #
coedge $-1 $193 $192 $111 $186 forward $194 $-1 #
edge $-1 $284 -20.848547127960973 $285 -6.3167769124756639 $185 $286 forward 7 unknown #
coedge $-1 $113 $112 $277 $287 reversed $44 $-1 #
coedge $-1 $182 $288 $112 $189 reversed $109 $-1 #
edge $-1 $195 -57.50175481429487 $289 57.50175481429487 $188 $290 forward 7 unknown #
coedge $-1 $291 $292 $113 $191 forward $275 $-1 #
edge $-1 $196 -57.50175481429487 $293 57.50175481429487 $190 $294 forward 7 unknown #
coedge $-1 $185 $114 $292 $295 forward $194 $-1 #
coedge $-1 $114 $185 $182 $279 forward $194 $-1 #
loop $-1 $-1 $114 $274 #
vertex $-1 $115 $296 #
vertex $-1 $295 $297 #
straight-curve $-1 57.50175481429487 -13.582662020218319 -5.0621246595102294 0 -1 0 I I #
face $-1 $-1 $210 $26 $-1 $298 forward single #
loop $-1 $-1 $299 $116 #
plane-surface $-1 -57.50175481429487 0 0 1 0 0 0 0 -1 forward_v I I I I #
coedge $-1 $300 $301 $302 $303 reversed $117 $-1 #
coedge $-1 $304 $119 $121 $208 forward $73 $-1 #
coedge $-1 $119 $304 $300 $305 forward $73 $-1 #
coedge $-1 $302 $122 $119 $205 forward $210 $-1 #
edge $-1 $212 -5.2586121451608729 $306 6.5967941202153977 $204 $307 forward 7 unknown #
coedge $-1 $308 $309 $120 $207 forward $199 $-1 #
edge $-1 $310 -24.151037022079326 $211 -20.230667595700282 $206 $311 forward 7 unknown #
edge $-1 $212 -4.5268526468531505 $310 2.8642609447069912e-014 $121 $312 forward 7 unknown #
coedge $-1 $122 $302 $308 $313 forward $210 $-1 #
loop $-1 $-1 $302 $198 #
vertex $-1 $207 $314 #
vertex $-1 $123 $315 #
straight-curve $-1 -78.548858283288979 -4.5895211576336106 13.1200486557589 1 0 0 I I #
coedge $-1 $214 $214 $-1 $316 reversed $126 $-1 #
edge $-1 $317 0 $317 6.2831853071796004 $127 $318 forward 7 unknown #
vertex $-1 $130 $319 #
ellipse-curve $-1 -56.370041682905764 -1.2022622246689636 11.159863942569384 -0.86602541151947299 0 0.49999998660252726 0.49999998660252726 0 0.86602541151947299 1 I I #
coedge $-1 $218 $218 $-1 $320 reversed $133 $-1 #
edge $-1 $321 0 $321 6.2831853071796004 $134 $322 forward 7 unknown #
vertex $-1 $137 $323 #
ellipse-curve $-1 -56.370041682905764 3.878626174778006 11.159863942569384 -0.86602541151947299 0 0.49999998660252726 0.49999998660252726 0 0.86602541151947299 1 I I #
face $-1 $-1 $324 $29 $-1 $325 reversed single #
loop $-1 $-1 $234 $138 #
plane-surface $-1 -157.09771656657796 7.2658851077426601 66.701432502918365 0 -1 0 0.86602541151947299 0 -0.49999998660252726 forward_v I I I I #
coedge $-1 $228 $326 $143 $233 forward $139 $-1 #
coedge $-1 $227 $141 $230 $327 reversed $87 $-1 #
coedge $-1 $141 $226 $328 $329 reversed $87 $-1 #
coedge $-1 $330 $225 $141 $229 forward $139 $-1 #
edge $-1 $331 -23.310529731772313 $332 -21.047103468994109 $228 $333 forward 7 unknown #
coedge $-1 $143 $142 $226 $327 forward $56 $-1 #
coedge $-1 $334 $328 $142 $232 forward $324 $-1 #
edge $-1 $335 -18.452200385591667 $236 -6.5967941202153977 $231 $336 forward 7 unknown #
edge $-1 $237 6.5967941202153977 $331 18.452200385591667 $225 $337 forward 7 unknown #
coedge $-1 $235 $144 $326 $338 reversed $223 $-1 #
coedge $-1 $144 $234 $334 $339 reversed $223 $-1 #
vertex $-1 $232 $340 #
vertex $-1 $233 $341 #
straight-curve $-1 -57.501754814294856 7.2658851077426601 9.1996792293798819 0.49999998660252726 0 0.86602541151947299 I I #
coedge $-1 $239 $239 $-1 $342 reversed $148 $-1 #
edge $-1 $343 0 $343 6.2831853071796004 $149 $344 forward 7 unknown #
vertex $-1 $152 $345 #
ellipse-curve $-1 -56.370041682905764 10.653144040707303 11.159863942569384 -0.86602541151947299 0 0.49999998660252726 0.49999998660252726 0 0.86602541151947299 1 I I #
coedge $-1 $243 $243 $-1 $346 reversed $155 $-1 #
edge $-1 $347 0 $347 6.2831853071796004 $156 $348 forward 7 unknown #
vertex $-1 $159 $349 #
ellipse-curve $-1 -56.370041682905764 15.734032440154273 11.159863942569384 -0.86602541151947299 0 0.49999998660252726 0.49999998660252726 0 0.86602541151947299 1 I I #
face $-1 $-1 $175 $24 $-1 $350 reversed single #
loop $-1 $-1 $263 $160 #
plane-surface $-1 0 34.431209148179292 0 0 -1 0 0 0 -1 forward_v I I I I #
coedge $-1 $351 $261 $264 $352 forward $161 $-1 #
coedge $-1 $267 $163 $164 $255 reversed $101 $-1 #
coedge $-1 $261 $351 $163 $253 reversed $161 $-1 #
edge $-1 $268 -13.120048655758898 $353 13.120048655758898 $252 $354 forward 7 unknown #
coedge $-1 $165 $164 $351 $355 forward $65 $-1 #
edge $-1 $259 -57.50175481429487 $353 57.50175481429487 $251 $356 forward 7 unknown #
coedge $-1 $264 $263 $165 $257 reversed $248 $-1 #
edge $-1 $357 -57.50175481429487 $258 57.50175481429487 $256 $358 forward 7 unknown #
vertex $-1 $167 $359 #
vertex $-1 $270 $360 #
straight-curve $-1 57.50175481429487 0 -13.120048655758898 0 -1 0 I I #
coedge $-1 $250 $252 $168 $262 reversed $161 $-1 #
edge $-1 $265 -34.431209148179292 $268 34.431209148179292 $261 $361 forward 7 unknown #
coedge $-1 $256 $169 $174 $271 forward $248 $-1 #
coedge $-1 $169 $256 $250 $352 reversed $248 $-1 #
vertex $-1 $170 $362 #
straight-curve $-1 0 34.431209148179292 13.120048655758898 -1 0 0 I I #
coedge $-1 $171 $251 $173 $270 reversed $101 $-1 #
vertex $-1 $262 $363 #
straight-curve $-1 0 -34.431209148179292 13.120048655758898 1 0 0 I I #
edge $-1 $176 -13.120048655758898 $259 13.120048655758898 $173 $364 forward 7 unknown #
edge $-1 $177 -13.120048655758898 $258 13.120048655758898 $174 $365 forward 7 unknown #
point $-1 57.50175481429487 -34.431209148179292 13.120048655758898 #
point $-1 57.50175481429487 34.431209148179292 13.120048655758898 #
face $-1 $-1 $194 $25 $-1 $366 reversed single #
loop $-1 $-1 $190 $179 #
plane-surface $-1 0 -34.431209148179292 0 0 1 0 0 0 1 forward_v I I I I #
coedge $-1 $367 $368 $187 $287 forward $180 $-1 #
coedge $-1 $288 $182 $184 $283 reversed $109 $-1 #
edge $-1 $285 -7.5040240380966541 $195 -0.87340842697460186 $193 $369 forward 7 unknown #
coedge $-1 $184 $183 $370 $371 reversed $69 $-1 #
coedge $-1 $292 $291 $183 $282 forward $275 $-1 #
edge $-1 $372 -57.50175481429487 $284 57.50175481429487 $281 $373 forward 7 unknown #
edge $-1 $374 -57.50175481429487 $285 57.50175481429487 $278 $375 forward 7 unknown #
vertex $-1 $282 $376 #
vertex $-1 $186 $377 #
straight-curve $-1 57.50175481429487 -13.582662020218319 -11.692740270632282 0 1 0 I I #
edge $-1 $293 -20.848547127960973 $289 -6.3167769124756639 $277 $378 forward 7 unknown #
coedge $-1 $188 $278 $367 $379 reversed $109 $-1 #
vertex $-1 $287 $380 #
straight-curve $-1 0 -19.899438932693982 -5.0621246595102294 -1 0 0 I I #
coedge $-1 $281 $190 $368 $381 forward $275 $-1 #
coedge $-1 $190 $281 $192 $295 reversed $275 $-1 #
vertex $-1 $381 $382 #
straight-curve $-1 0 -34.431209148179292 -5.0621246595102294 -1 0 0 I I #
edge $-1 $196 5.0621246595102294 $284 11.692740270632282 $192 $383 forward 7 unknown #
point $-1 57.50175481429487 -19.899438932693982 -5.0621246595102294 #
point $-1 57.50175481429487 -34.431209148179292 -5.0621246595102294 #
plane-surface $-1 0 0 13.120048655758898 0 0 1 1 0 0 forward_v I I I I #
coedge $-1 $309 $308 $301 $384 forward $199 $-1 #
coedge $-1 $301 $201 $203 $305 reversed $117 $-1 #
coedge $-1 $201 $300 $299 $384 reversed $117 $-1 #
coedge $-1 $209 $204 $201 $303 forward $210 $-1 #
edge $-1 $306 -23.310529731772313 $385 -21.047103468994109 $302 $386 forward 7 unknown #
coedge $-1 $203 $202 $309 $387 reversed $73 $-1 #
edge $-1 $388 -2.8642609447069912e-014 $306 4.5268526468531505 $300 $389 forward 7 unknown #
vertex $-1 $205 $390 #
straight-curve $-1 -55.238328551516666 0.66909098752726237 13.120048655758898 0 1 0 I I #
coedge $-1 $299 $206 $209 $313 reversed $199 $-1 #
coedge $-1 $206 $299 $304 $387 forward $199 $-1 #
vertex $-1 $207 $391 #
straight-curve $-1 -57.50175481429487 -4.5895211576336106 33.350716251459183 0 0 1 I I #
straight-curve $-1 -57.501754814294856 -4.5895211576336106 9.1996792293798819 -0.49999998660252726 0 -0.86602541151947299 I I #
edge $-1 $385 -7.2658851077426601 $211 4.5895211576336106 $308 $392 forward 7 unknown #
point $-1 -57.50175481429487 -4.5895211576336106 13.120048655758898 #
point $-1 -55.238328551516666 -4.5895211576336106 13.120048655758898 #
edge $-1 $393 1 $393 0 $214 $-1 forward 7 unknown #
vertex $-1 $215 $394 #
ellipse-curve $-1 -55.406252423697751 -1.2022622246689636 10.603419974203415 -0.86602541151947299 0 0.49999998660252726 0.49999998660252726 0 0.86602541151947299 1 I I #
point $-1 -55.87004169630324 -1.2022622246689636 12.025889354088857 #
edge $-1 $395 1 $395 0 $218 $-1 forward 7 unknown #
vertex $-1 $219 $396 #
ellipse-curve $-1 -55.406252423697751 3.878626174778006 10.603419974203415 -0.86602541151947299 0 0.49999998660252726 0.49999998660252726 0 0.86602541151947299 1 I I #
point $-1 -55.87004169630324 3.878626174778006 12.025889354088857 #
loop $-1 $-1 $231 $222 #
plane-surface $-1 -57.50175481429487 0 0 1 0 0 0 0 -1 forward_v I I I I #
coedge $-1 $225 $330 $234 $338 forward $139 $-1 #
edge $-1 $335 -2.8642609447069912e-014 $331 4.5268526468531505 $226 $397 forward 7 unknown #
coedge $-1 $231 $398 $227 $329 forward $324 $-1 #
edge $-1 $332 20.230667595700282 $335 24.151037022079326 $328 $399 forward 7 unknown #
coedge $-1 $326 $228 $398 $400 forward $139 $-1 #
vertex $-1 $229 $401 #
vertex $-1 $400 $402 #
straight-curve $-1 -78.548858283288979 19.121291373118929 13.1200486557589 -1 0 0 I I #
coedge $-1 $398 $231 $235 $339 forward $324 $-1 #
vertex $-1 $329 $403 #
straight-curve $-1 -57.50175481429487 0.66909098752726237 9.1996792293798535 0 -1 0 I I #
straight-curve $-1 -55.238328551516666 0.66909098752726237 13.120048655758898 0 1 0 I I #
edge $-1 $404 21.047103468994109 $237 23.310529731772313 $326 $405 forward 7 unknown #
edge $-1 $236 -24.151037022079326 $404 -20.230667595700282 $334 $406 forward 7 unknown #
point $-1 -57.50175481429487 7.2658851077426601 9.199679229379857 #
point $-1 -55.238328551516666 7.2658851077426601 13.120048655758898 #
edge $-1 $407 1 $407 0 $239 $-1 forward 7 unknown #
vertex $-1 $240 $408 #
ellipse-curve $-1 -55.406252423697751 10.653144040707303 10.603419974203415 -0.86602541151947299 0 0.49999998660252726 0.49999998660252726 0 0.86602541151947299 1 I I #
point $-1 -55.87004169630324 10.653144040707303 12.025889354088857 #
edge $-1 $409 1 $409 0 $243 $-1 forward 7 unknown #
vertex $-1 $244 $410 #
ellipse-curve $-1 -55.406252423697751 15.734032440154273 10.603419974203415 -0.86602541151947299 0 0.49999998660252726 0.49999998660252726 0 0.86602541151947299 1 I I #
point $-1 -55.87004169630324 15.734032440154273 12.025889354088857 #
plane-surface $-1 57.50175481429487 0 0 -1 0 0 0 0 1 forward_v I I I I #
coedge $-1 $252 $250 $254 $355 reversed $161 $-1 #
edge $-1 $265 -13.120048655758898 $357 13.120048655758898 $264 $411 forward 7 unknown #
vertex $-1 $355 $412 #
straight-curve $-1 -57.50175481429487 -34.431209148179292 0 0 0 -1 I I #
edge $-1 $353 -34.431209148179292 $357 34.431209148179292 $351 $413 forward 7 unknown #
straight-curve $-1 0 -34.431209148179292 -13.120048655758898 -1 0 0 I I #
vertex $-1 $257 $414 #
straight-curve $-1 0 34.431209148179292 -13.120048655758898 1 0 0 I I #
point $-1 57.50175481429487 34.431209148179292 -13.120048655758898 #
point $-1 57.50175481429487 -34.431209148179292 -13.120048655758898 #
straight-curve $-1 -57.50175481429487 0 13.120048655758898 0 -1 0 I I #
point $-1 -57.50175481429487 34.431209148179292 13.120048655758898 #
point $-1 -57.50175481429487 -34.431209148179292 13.120048655758898 #
straight-curve $-1 57.50175481429487 -34.431209148179292 0 0 0 -1 I I #
straight-curve $-1 57.50175481429487 34.431209148179292 0 0 0 -1 I I #
plane-surface $-1 57.50175481429487 0 0 -1 0 0 0 0 1 forward_v I I I I #
coedge $-1 $370 $277 $288 $379 forward $180 $-1 #
coedge $-1 $277 $370 $291 $381 reversed $180 $-1 #
straight-curve $-1 57.50175481429487 -19.899438932693982 -4.1887162325356275 0 0 1 I I #
coedge $-1 $368 $367 $280 $371 forward $180 $-1 #
edge $-1 $374 6.3167769124756639 $372 20.848547127960973 $370 $415 forward 7 unknown #
vertex $-1 $282 $416 #
straight-curve $-1 0 -34.431209148179292 -11.692740270632282 1 0 0 I I #
vertex $-1 $371 $417 #
straight-curve $-1 0 -19.899438932693982 -11.692740270632282 1 0 0 I I #
point $-1 57.50175481429487 -34.431209148179292 -11.692740270632282 #
point $-1 57.50175481429487 -19.899438932693982 -11.692740270632282 #
straight-curve $-1 -57.50175481429487 -13.582662020218319 -5.0621246595102294 0 1 0 I I #
edge $-1 $289 0.87340842697460186 $374 7.5040240380966541 $367 $418 forward 7 unknown #
point $-1 -57.50175481429487 -19.899438932693982 -5.0621246595102294 #
edge $-1 $293 5.0621246595102294 $372 11.692740270632282 $368 $419 forward 7 unknown #
point $-1 -57.50175481429487 -34.431209148179292 -5.0621246595102294 #
straight-curve $-1 57.50175481429487 -34.431209148179292 0 0 0 -1 I I #
edge $-1 $385 20.230667595700282 $388 24.151037022079326 $299 $420 forward 7 unknown #
vertex $-1 $313 $421 #
straight-curve $-1 -78.548858283288979 7.2658851077426601 13.1200486557589 -1 0 0 I I #
edge $-1 $388 -6.5967941202153977 $310 5.2586121451608729 $309 $422 forward 7 unknown #
vertex $-1 $387 $423 #
straight-curve $-1 -57.501754814294856 7.2658851077426601 9.1996792293798819 0.49999998660252726 0 0.86602541151947299 I I #
point $-1 -55.238328551516666 7.2658851077426601 13.120048655758898 #
point $-1 -57.50175481429487 -4.5895211576336106 9.199679229379857 #
straight-curve $-1 -57.50175481429487 0 13.120048655758898 0 -1 0 I I #
vertex $-1 $316 $424 #
point $-1 -54.906252437095226 -1.2022622246689636 11.469445385722889 #
vertex $-1 $320 $425 #
point $-1 -54.906252437095226 3.878626174778006 11.469445385722889 #
straight-curve $-1 -57.501754814294856 19.121291373118929 9.1996792293798819 0.49999998660252726 0 0.86602541151947299 I I #
coedge $-1 $328 $334 $330 $400 reversed $324 $-1 #
straight-curve $-1 -57.50175481429487 19.121291373118929 33.350716251459183 0 0 -1 I I #
edge $-1 $332 -19.121291373118929 $404 -7.2658851077426601 $398 $426 forward 7 unknown #
point $-1 -55.238328551516666 19.121291373118929 13.120048655758898 #
point $-1 -57.50175481429487 19.121291373118929 13.120048655758898 #
point $-1 -57.50175481429487 19.121291373118929 9.199679229379857 #
vertex $-1 $339 $427 #
straight-curve $-1 -78.548858283288979 7.2658851077426601 13.1200486557589 1 0 0 I I #
straight-curve $-1 -57.50175481429487 7.2658851077426601 33.350716251459183 0 0 1 I I #
vertex $-1 $342 $428 #
point $-1 -54.906252437095226 10.653144040707303 11.469445385722889 #
vertex $-1 $346 $429 #
point $-1 -54.906252437095226 15.734032440154273 11.469445385722889 #
straight-curve $-1 -57.50175481429487 34.431209148179292 0 0 0 -1 I I #
point $-1 -57.50175481429487 -34.431209148179292 -13.120048655758898 #
straight-curve $-1 -57.50175481429487 0 -13.120048655758898 0 1 0 I I #
point $-1 -57.50175481429487 34.431209148179292 -13.120048655758898 #
straight-curve $-1 -57.50175481429487 -13.582662020218319 -11.692740270632282 0 -1 0 I I #
point $-1 -57.50175481429487 -34.431209148179292 -11.692740270632282 #
point $-1 -57.50175481429487 -19.899438932693982 -11.692740270632282 #
straight-curve $-1 -57.50175481429487 -19.899438932693982 -4.1887162325356275 0 0 -1 I I #
straight-curve $-1 -57.50175481429487 -34.431209148179292 0 0 0 -1 I I #
straight-curve $-1 -57.50175481429487 7.2658851077426601 33.350716251459183 0 0 -1 I I #
point $-1 -57.50175481429487 7.2658851077426601 13.120048655758898 #
straight-curve $-1 -57.50175481429487 0.66909098752726237 9.1996792293798535 0 -1 0 I I #
point $-1 -57.50175481429487 7.2658851077426601 9.199679229379857 #
point $-1 -54.540227012178278 -1.2022622246689636 10.103419987600887 #
point $-1 -54.540227012178278 3.878626174778006 10.103419987600887 #
straight-curve $-1 -57.50175481429487 0 13.120048655758898 0 -1 0 I I #
point $-1 -57.50175481429487 7.2658851077426601 13.120048655758898 #
point $-1 -54.540227012178278 10.653144040707303 10.103419987600887 #
point $-1 -54.540227012178278 15.734032440154273 10.103419987600887 #
End-of-ACIS-data 