500 0 8 0           
7 Unknown 11 ACIS 5.0 NT 24 Thu Mar 25 23:21:26 1999 
-1 9.9999999999999995e-007 1e-010 
body $-1 $8 $-1 $9 #
body $-1 $10 $-1 $11 #
body $-1 $12 $-1 $13 #
body $-1 $14 $-1 $15 #
body $-1 $16 $-1 $17 #
body $-1 $18 $-1 $19 #
body $-1 $20 $-1 $21 #
body $-1 $22 $-1 $23 #
lump $-1 $-1 $24 $0 #
transform $-1 1 0 0 0 1 0 0 0 1 55.481429486983856 25.815873011236818 6.8904831745864739 1 rotate no_reflect no_shear #
lump $-1 $-1 $25 $1 #
transform $-1 1 0 0 0 1 0 0 0 1 55.481429486983856 25.815873011236818 6.8904831745864739 1 rotate no_reflect no_shear #
lump $-1 $-1 $26 $2 #
transform $-1 1 0 0 0 1 0 0 0 1 55.481429486983856 25.815873011236818 6.8904831745864739 1 rotate no_reflect no_shear #
lump $-1 $-1 $27 $3 #
transform $-1 1 0 0 0 1 0 0 0 1 55.481429486983856 25.815873011236818 6.8904831745864739 1 rotate no_reflect no_shear #
lump $-1 $-1 $28 $4 #
transform $-1 1 0 0 0 1 0 0 0 1 55.481429486983856 25.815873011236818 6.8904831745864739 1 rotate no_reflect no_shear #
lump $-1 $-1 $29 $5 #
transform $-1 1 0 0 0 1 0 0 0 1 55.481429486983856 25.815873011236818 6.8904831745864739 1 rotate no_reflect no_shear #
lump $-1 $-1 $30 $6 #
transform $-1 1 0 0 0 1 0 0 0 1 55.481429486983856 25.815873011236818 6.8904831745864739 1 rotate no_reflect no_shear #
lump $-1 $-1 $31 $7 #
transform $-1 1 0 0 0 1 0 0 0 1 55.481429486983856 25.815873011236818 6.8904831745864739 1 rotate no_reflect no_shear #
shell $-1 $-1 $-1 $32 $-1 $8 #
shell $-1 $-1 $-1 $33 $-1 $10 #
shell $-1 $-1 $-1 $34 $-1 $12 #
shell $-1 $-1 $-1 $35 $-1 $14 #
shell $-1 $-1 $-1 $36 $-1 $16 #
shell $-1 $-1 $-1 $37 $-1 $18 #
shell $-1 $-1 $-1 $38 $-1 $20 #
shell $-1 $-1 $-1 $39 $-1 $22 #
face $-1 $40 $41 $24 $-1 $42 forward single #
face $-1 $43 $44 $25 $-1 $45 reversed single #
face $-1 $46 $47 $26 $-1 $48 forward single #
face $-1 $49 $50 $27 $-1 $51 forward single #
face $-1 $52 $53 $28 $-1 $54 reversed single #
face $-1 $55 $56 $29 $-1 $57 forward single #
face $-1 $58 $59 $30 $-1 $60 forward single #
face $-1 $61 $62 $31 $-1 $63 forward single #
face $-1 $64 $65 $24 $-1 $66 reversed single #
loop $-1 $-1 $67 $32 #
plane-surface $-1 0 0 6.8904831745864739 0 0 1 1 0 0 forward_v I I I I #
face $-1 $68 $69 $25 $-1 $70 reversed single #
loop $-1 $-1 $71 $33 #
plane-surface $-1 21.814057168791422 -86.250578237142577 95.46465147785743 -1 0 0 0 -0.54463904215088732 0.83867056331134215 forward_v I I I I #
face $-1 $72 $73 $26 $-1 $74 forward single #
loop $-1 $75 $76 $34 #
cone-surface $-1 -0.98453886396229962 -21.217774255059407 2.8863624154843244 0 0.54463904215088732 -0.83867056331134215 1.5 0 0 1 I I 0 1 1.5 forward I I I I #
face $-1 $77 $78 $27 $-1 $79 forward single #
loop $-1 $80 $81 $35 #
cone-surface $-1 12.69461875568993 -21.217774255059407 2.8863624154843244 0 0.54463904215088732 -0.83867056331134215 1.5 0 0 1 I I 0 1 1.5 forward I I I I #
face $-1 $82 $83 $28 $-1 $84 reversed single #
loop $-1 $-1 $85 $36 #
plane-surface $-1 -50.495147467973027 57.589212984997573 122.06363866757786 1 0 0 0 -0.64278761758704617 -0.76604443648966558 forward_v I I I I #
face $-1 $86 $87 $29 $-1 $88 forward single #
loop $-1 $89 $90 $37 #
cone-surface $-1 -47.392576218399675 23.696377926190465 4.9986748070170375 0 -0.64278761758704617 -0.76604443648966558 0.25 0 0 1 I I 0 1 0.25 forward I I I I #
face $-1 $91 $92 $30 $-1 $93 forward single #
loop $-1 $94 $95 $38 #
cone-surface $-1 -42.738719344039659 23.696377926190465 4.9986748070170375 0 -0.64278761758704617 -0.76604443648966558 0.25 0 0 1 I I 0 1 0.25 forward I I I I #
face $-1 $96 $97 $31 $-1 $98 forward single #
loop $-1 $99 $100 $39 #
cone-surface $-1 -38.084862469679649 23.696377926190465 4.9986748070170375 0 -0.64278761758704617 -0.76604443648966558 0.25 0 0 1 I I 0 1 0.25 forward I I I I #
face $-1 $101 $102 $24 $-1 $103 reversed single #
loop $-1 $-1 $104 $40 #
plane-surface $-1 0 0 -6.8904831745864739 0 0 1 1 0 0 forward_v I I I I #
coedge $-1 $105 $106 $107 $108 forward $41 $-1 #
face $-1 $109 $110 $25 $-1 $111 reversed single #
loop $-1 $-1 $112 $43 #
plane-surface $-1 5.8550399458638154 -25.81587301123681 2.4033680355229166 0 -0.54463904215088732 0.83867056331134215 1 0 0 forward_v I I I I #
coedge $-1 $113 $114 $115 $116 reversed $44 $-1 #
face $-1 $-1 $117 $26 $-1 $118 forward single #
loop $-1 $119 $120 $46 #
cone-surface $-1 -0.98453886396229962 -19.665971848537954 0.49679630343044767 0 0.54463904215088732 -0.83867056331134215 0.75 0 0 1 I I -0.70710678118654757 0.70710678118654757 0.75 forward I I I I #
loop $-1 $-1 $121 $34 #
coedge $-1 $76 $76 $122 $123 reversed $47 $-1 #
face $-1 $-1 $124 $27 $-1 $125 forward single #
loop $-1 $126 $127 $49 #
cone-surface $-1 12.69461875568993 -19.665971848537954 0.49679630343044767 0 0.54463904215088732 -0.83867056331134215 0.75 0 0 1 I I -0.70710678118654757 0.70710678118654757 0.75 forward I I I I #
loop $-1 $-1 $128 $35 #
coedge $-1 $81 $81 $129 $130 reversed $50 $-1 #
face $-1 $131 $132 $28 $-1 $133 reversed single #
loop $-1 $-1 $134 $52 #
plane-surface $-1 -42.738719344039666 -13.736338775526519 37.061157893582532 0 0.64278761758704617 0.76604443648966558 1 0 0 forward_v I I I I #
coedge $-1 $135 $136 $137 $138 reversed $53 $-1 #
face $-1 $-1 $139 $29 $-1 $140 forward single #
loop $-1 $141 $142 $55 #
cone-surface $-1 -47.392576218399675 23.294635665198562 4.5198970342109961 0 -0.64278761758704617 -0.76604443648966558 0.125 0 0 1 I I -0.70710678118654746 0.70710678118654746 0.125 forward I I I I #
loop $-1 $-1 $143 $37 #
coedge $-1 $90 $90 $144 $145 reversed $56 $-1 #
face $-1 $-1 $146 $30 $-1 $147 forward single #
loop $-1 $148 $149 $58 #
cone-surface $-1 -42.738719344039659 23.294635665198562 4.5198970342109961 0 -0.64278761758704617 -0.76604443648966558 0.125 0 0 1 I I -0.70710678118654746 0.70710678118654746 0.125 forward I I I I #
loop $-1 $-1 $150 $38 #
coedge $-1 $95 $95 $151 $152 reversed $59 $-1 #
face $-1 $-1 $153 $31 $-1 $154 forward single #
loop $-1 $155 $156 $61 #
cone-surface $-1 -38.084862469679649 23.294635665198562 4.5198970342109961 0 -0.64278761758704617 -0.76604443648966558 0.125 0 0 1 I I -0.70710678118654746 0.70710678118654746 0.125 forward I I I I #
loop $-1 $-1 $157 $39 #
coedge $-1 $100 $100 $158 $159 reversed $62 $-1 #
face $-1 $160 $161 $24 $-1 $162 reversed single #
loop $-1 $-1 $163 $64 #
plane-surface $-1 0 -25.815873011236818 0 0 1 0 0 0 1 forward_v I I I I #
coedge $-1 $164 $165 $166 $167 forward $65 $-1 #
coedge $-1 $168 $67 $169 $170 forward $41 $-1 #
coedge $-1 $67 $168 $171 $172 forward $41 $-1 #
coedge $-1 $173 $174 $67 $108 reversed $175 $-1 #
edge $-1 $176 -25.815873011236818 $177 25.815873011236818 $107 $178 forward 7 unknown #
face $-1 $179 $180 $25 $-1 $181 reversed single #
loop $-1 $-1 $182 $68 #
plane-surface $-1 -10.103977277063791 -86.250578237142577 95.46465147785743 1 0 0 0 0.54463904215088732 -0.83867056331134215 forward_v I I I I #
coedge $-1 $183 $184 $185 $186 reversed $69 $-1 #
coedge $-1 $114 $71 $187 $188 reversed $44 $-1 #
coedge $-1 $71 $113 $183 $189 reversed $44 $-1 #
coedge $-1 $185 $190 $71 $116 forward $191 $-1 #
edge $-1 $192 17.309416107334471 $193 24.218967369872725 $115 $194 forward 7 unknown #
loop $-1 $-1 $122 $72 #
plane-surface $-1 5.8550399458638154 -25.81587301123681 2.4033680355229166 0 -0.54463904215088732 0.83867056331134215 1 0 0 forward_v I I I I #
loop $-1 $-1 $195 $46 #
coedge $-1 $120 $120 $121 $196 reversed $73 $-1 #
coedge $-1 $121 $121 $120 $196 forward $75 $-1 #
coedge $-1 $122 $122 $76 $123 forward $117 $-1 #
edge $-1 $197 -1.0188976339932213e-015 $197 6.2831853071795996 $122 $198 forward 7 unknown #
loop $-1 $-1 $129 $77 #
plane-surface $-1 5.8550399458638154 -25.81587301123681 2.4033680355229166 0 -0.54463904215088732 0.83867056331134215 1 0 0 forward_v I I I I #
loop $-1 $-1 $199 $49 #
coedge $-1 $127 $127 $128 $200 reversed $78 $-1 #
coedge $-1 $128 $128 $127 $200 forward $80 $-1 #
coedge $-1 $129 $129 $81 $130 forward $124 $-1 #
edge $-1 $201 -1.0188976339932213e-015 $201 6.2831853071795996 $129 $202 forward 7 unknown #
face $-1 $203 $204 $28 $-1 $205 reversed single #
loop $-1 $-1 $206 $82 #
plane-surface $-1 -34.982291220106305 57.589212984997573 122.06363866757786 -1 0 0 0 0.64278761758704617 0.76604443648966558 forward_v I I I I #
coedge $-1 $207 $208 $209 $210 reversed $83 $-1 #
coedge $-1 $136 $85 $211 $212 reversed $53 $-1 #
coedge $-1 $85 $135 $207 $213 reversed $53 $-1 #
coedge $-1 $209 $214 $85 $138 forward $215 $-1 #
edge $-1 $216 2.978733481261969 $217 6.5749360337676137 $137 $218 forward 7 unknown #
loop $-1 $-1 $144 $86 #
plane-surface $-1 -42.738719344039666 -13.736338775526519 37.061157893582532 0 0.64278761758704617 0.76604443648966558 1 0 0 forward_v I I I I #
loop $-1 $-1 $219 $55 #
coedge $-1 $142 $142 $143 $220 reversed $87 $-1 #
coedge $-1 $143 $143 $142 $220 forward $89 $-1 #
coedge $-1 $144 $144 $90 $145 forward $139 $-1 #
edge $-1 $221 -1.7515847460830893e-015 $221 6.2831853071795987 $144 $222 forward 7 unknown #
loop $-1 $-1 $151 $91 #
plane-surface $-1 -42.738719344039666 -13.736338775526519 37.061157893582532 0 0.64278761758704617 0.76604443648966558 1 0 0 forward_v I I I I #
loop $-1 $-1 $223 $58 #
coedge $-1 $149 $149 $150 $224 reversed $92 $-1 #
coedge $-1 $150 $150 $149 $224 forward $94 $-1 #
coedge $-1 $151 $151 $95 $152 forward $146 $-1 #
edge $-1 $225 -1.7515847460830893e-015 $225 6.2831853071795987 $151 $226 forward 7 unknown #
loop $-1 $-1 $158 $96 #
plane-surface $-1 -42.738719344039666 -13.736338775526519 37.061157893582532 0 0.64278761758704617 0.76604443648966558 1 0 0 forward_v I I I I #
loop $-1 $-1 $227 $61 #
coedge $-1 $156 $156 $157 $228 reversed $97 $-1 #
coedge $-1 $157 $157 $156 $228 forward $99 $-1 #
coedge $-1 $158 $158 $100 $159 forward $153 $-1 #
edge $-1 $229 -1.7515847460830893e-015 $229 6.2831853071795987 $158 $230 forward 7 unknown #
face $-1 $231 $232 $24 $-1 $233 reversed single #
loop $-1 $-1 $234 $101 #
plane-surface $-1 -55.481429486983856 0 0 1 0 0 0 0 -1 forward_v I I I I #
coedge $-1 $235 $171 $236 $237 forward $102 $-1 #
coedge $-1 $238 $104 $235 $239 forward $65 $-1 #
coedge $-1 $104 $238 $240 $241 forward $65 $-1 #
coedge $-1 $174 $173 $104 $167 reversed $175 $-1 #
edge $-1 $242 -25.815873011236818 $243 25.815873011236818 $166 $244 forward 7 unknown #
coedge $-1 $106 $105 $245 $246 forward $41 $-1 #
coedge $-1 $247 $248 $105 $170 reversed $232 $-1 #
edge $-1 $177 -55.481429486983856 $249 55.481429486983856 $169 $250 forward 7 unknown #
coedge $-1 $163 $251 $106 $172 reversed $102 $-1 #
edge $-1 $252 -55.481429486983856 $176 55.481429486983856 $171 $253 forward 7 unknown #
coedge $-1 $166 $107 $251 $254 forward $175 $-1 #
coedge $-1 $107 $166 $247 $255 reversed $175 $-1 #
loop $-1 $-1 $173 $231 #
vertex $-1 $108 $256 #
vertex $-1 $108 $257 #
straight-curve $-1 55.481429486983856 0 6.8904831745864739 0 1 0 I I #
face $-1 $-1 $191 $25 $-1 $258 forward single #
loop $-1 $-1 $259 $109 #
plane-surface $-1 0 -25.815873011236818 0 0 1 0 0 0 1 forward_v I I I I #
coedge $-1 $260 $261 $262 $263 reversed $110 $-1 #
coedge $-1 $264 $112 $114 $189 forward $69 $-1 #
coedge $-1 $112 $264 $260 $265 forward $69 $-1 #
coedge $-1 $262 $115 $112 $186 forward $191 $-1 #
edge $-1 $193 -18.886537195859514 $266 13.031497249995699 $185 $267 forward 7 unknown #
coedge $-1 $268 $269 $113 $188 forward $180 $-1 #
edge $-1 $270 -45.328957703405806 $192 -40.841842564342244 $187 $271 forward 7 unknown #
edge $-1 $193 -8.2386953409418702 $270 8.3777959833898778e-015 $114 $272 forward 7 unknown #
coedge $-1 $115 $262 $268 $273 forward $191 $-1 #
loop $-1 $-1 $262 $179 #
vertex $-1 $188 $274 #
vertex $-1 $116 $275 #
straight-curve $-1 21.814057168791422 -43.125289118571288 6.8904831745864712 0 1 0 I I #
coedge $-1 $195 $195 $-1 $276 reversed $119 $-1 #
edge $-1 $277 0 $277 6.2831853071796004 $120 $278 forward 7 unknown #
vertex $-1 $123 $279 #
ellipse-curve $-1 -0.98453886396229962 -22.361097379967692 4.6469256050546921 0 -0.54463904215088732 0.83867056331134215 1.5 0 0 1 I I #
coedge $-1 $199 $199 $-1 $280 reversed $126 $-1 #
edge $-1 $281 0 $281 6.2831853071796004 $127 $282 forward 7 unknown #
vertex $-1 $130 $283 #
ellipse-curve $-1 12.69461875568993 -22.361097379967692 4.6469256050546921 0 -0.54463904215088732 0.83867056331134215 1.5 0 0 1 I I #
face $-1 $-1 $215 $28 $-1 $284 forward single #
loop $-1 $-1 $285 $131 #
plane-surface $-1 0 25.815873011236818 0 0 -1 0 0 0 -1 forward_v I I I I #
coedge $-1 $286 $287 $288 $289 reversed $132 $-1 #
coedge $-1 $290 $134 $136 $213 forward $83 $-1 #
coedge $-1 $134 $290 $286 $291 forward $83 $-1 #
coedge $-1 $288 $137 $134 $210 forward $215 $-1 #
edge $-1 $217 -29.125787795953194 $292 -13.612931548086472 $209 $293 forward 7 unknown #
coedge $-1 $294 $295 $135 $212 forward $204 $-1 #
edge $-1 $296 -57.158908457851666 $216 -54.14133615920246 $211 $297 forward 7 unknown #
edge $-1 $217 46.93723695589135 $296 51.631746022473621 $136 $298 forward 7 unknown #
coedge $-1 $137 $288 $294 $299 forward $215 $-1 #
loop $-1 $-1 $288 $203 #
vertex $-1 $212 $300 #
vertex $-1 $138 $301 #
straight-curve $-1 -50.495147467973027 28.794606492498787 6.8904831745864712 0 -1 0 I I #
coedge $-1 $219 $219 $-1 $302 reversed $141 $-1 #
edge $-1 $303 0 $303 6.2831853071796004 $142 $304 forward 7 unknown #
vertex $-1 $145 $305 #
ellipse-curve $-1 -47.392576218399675 24.017771734983992 5.3816970252618734 0 0.64278761758704617 0.76604443648966558 0.25 0 0 1 I I #
coedge $-1 $223 $223 $-1 $306 reversed $148 $-1 #
edge $-1 $307 0 $307 6.2831853071796004 $149 $308 forward 7 unknown #
vertex $-1 $152 $309 #
ellipse-curve $-1 -42.738719344039659 24.017771734983992 5.3816970252618734 0 0.64278761758704617 0.76604443648966558 0.25 0 0 1 I I #
coedge $-1 $227 $227 $-1 $310 reversed $155 $-1 #
edge $-1 $311 0 $311 6.2831853071796004 $156 $312 forward 7 unknown #
vertex $-1 $159 $313 #
ellipse-curve $-1 -38.084862469679649 24.017771734983992 5.3816970252618734 0 0.64278761758704617 0.76604443648966558 0.25 0 0 1 I I #
face $-1 $-1 $175 $24 $-1 $314 reversed single #
loop $-1 $-1 $247 $160 #
plane-surface $-1 0 25.815873011236818 0 0 -1 0 0 0 -1 forward_v I I I I #
coedge $-1 $315 $245 $248 $316 forward $161 $-1 #
coedge $-1 $251 $163 $164 $239 reversed $102 $-1 #
coedge $-1 $245 $315 $163 $237 reversed $161 $-1 #
edge $-1 $252 -6.8904831745864739 $317 6.8904831745864739 $236 $318 forward 7 unknown #
coedge $-1 $165 $164 $315 $319 forward $65 $-1 #
edge $-1 $243 -55.481429486983856 $317 55.481429486983856 $235 $320 forward 7 unknown #
coedge $-1 $248 $247 $165 $241 reversed $232 $-1 #
edge $-1 $321 -55.481429486983856 $242 55.481429486983856 $240 $322 forward 7 unknown #
vertex $-1 $167 $323 #
vertex $-1 $254 $324 #
straight-curve $-1 55.481429486983856 0 -6.8904831745864739 0 -1 0 I I #
coedge $-1 $234 $236 $168 $246 reversed $161 $-1 #
edge $-1 $249 -25.815873011236818 $252 25.815873011236818 $245 $325 forward 7 unknown #
coedge $-1 $240 $169 $174 $255 forward $232 $-1 #
coedge $-1 $169 $240 $234 $316 reversed $232 $-1 #
vertex $-1 $170 $326 #
straight-curve $-1 0 25.815873011236818 6.8904831745864739 -1 0 0 I I #
coedge $-1 $171 $235 $173 $254 reversed $102 $-1 #
vertex $-1 $246 $327 #
straight-curve $-1 0 -25.815873011236818 6.8904831745864739 1 0 0 I I #
edge $-1 $176 -6.8904831745864739 $243 6.8904831745864739 $173 $328 forward 7 unknown #
edge $-1 $177 -6.8904831745864739 $242 6.8904831745864739 $174 $329 forward 7 unknown #
point $-1 55.481429486983856 -25.815873011236818 6.8904831745864739 #
point $-1 55.481429486983856 25.815873011236818 6.8904831745864739 #
plane-surface $-1 0 0 6.8904831745864739 0 0 1 1 0 0 forward_v I I I I #
coedge $-1 $269 $268 $261 $330 forward $180 $-1 #
coedge $-1 $261 $182 $184 $265 reversed $110 $-1 #
coedge $-1 $182 $260 $259 $330 reversed $110 $-1 #
coedge $-1 $190 $185 $182 $263 forward $191 $-1 #
edge $-1 $266 -24.218967369872725 $331 -17.309416107334471 $262 $332 forward 7 unknown #
coedge $-1 $184 $183 $269 $333 reversed $69 $-1 #
edge $-1 $334 -8.3777959833898778e-015 $266 8.2386953409418702 $260 $335 forward 7 unknown #
vertex $-1 $186 $336 #
straight-curve $-1 2.9275199729319077 -18.906321748698563 6.8904831745864739 -1 0 0 I I #
coedge $-1 $259 $187 $190 $273 reversed $180 $-1 #
coedge $-1 $187 $259 $264 $333 forward $180 $-1 #
vertex $-1 $188 $337 #
straight-curve $-1 21.814057168791422 -25.815873011236818 47.732325738928715 0 0 1 I I #
straight-curve $-1 21.814057168791422 -25.81587301123681 2.4033680355229166 0 -0.83867056331134215 -0.54463904215088732 I I #
edge $-1 $331 -10.103977277063791 $192 21.814057168791422 $268 $338 forward 7 unknown #
point $-1 21.814057168791422 -25.815873011236818 6.8904831745864739 #
point $-1 21.814057168791422 -18.906321748698563 6.8904831745864739 #
edge $-1 $339 1 $339 0 $195 $-1 forward 7 unknown #
vertex $-1 $196 $340 #
ellipse-curve $-1 -0.98453886396229962 -20.074451130151118 1.1257992259139544 0 -0.54463904215088732 0.83867056331134215 1.5 0 0 1 I I #
point $-1 0.51546113603770038 -22.361097379967696 4.6469256050546948 #
edge $-1 $341 1 $341 0 $199 $-1 forward 7 unknown #
vertex $-1 $200 $342 #
ellipse-curve $-1 12.69461875568993 -20.074451130151118 1.1257992259139544 0 -0.54463904215088732 0.83867056331134215 1.5 0 0 1 I I #
point $-1 14.19461875568993 -22.361097379967696 4.6469256050546948 #
plane-surface $-1 0 0 6.8904831745864739 0 0 1 1 0 0 forward_v I I I I #
coedge $-1 $295 $294 $287 $343 forward $204 $-1 #
coedge $-1 $287 $206 $208 $291 reversed $132 $-1 #
coedge $-1 $206 $286 $285 $343 reversed $132 $-1 #
coedge $-1 $214 $209 $206 $289 forward $215 $-1 #
edge $-1 $292 -6.5749360337676137 $344 -2.978733481261969 $288 $345 forward 7 unknown #
coedge $-1 $208 $207 $295 $346 reversed $83 $-1 #
edge $-1 $347 -51.631746022473621 $292 -46.93723695589135 $286 $348 forward 7 unknown #
vertex $-1 $210 $349 #
straight-curve $-1 -21.369359672019833 22.219670458731166 6.8904831745864783 1 0 0 I I #
coedge $-1 $285 $211 $214 $299 reversed $204 $-1 #
coedge $-1 $211 $285 $290 $346 forward $204 $-1 #
vertex $-1 $212 $350 #
straight-curve $-1 -50.495147467973027 25.815873011236818 61.031819333788931 0 0 1 I I #
straight-curve $-1 -50.495147467973027 -13.736338775526519 37.061157893582532 0 0.76604443648966558 -0.64278761758704617 I I #
edge $-1 $344 34.982291220106305 $216 50.495147467973027 $294 $351 forward 7 unknown #
point $-1 -50.495147467973027 25.815873011236818 6.8904831745864739 #
point $-1 -50.495147467973027 22.219670458731173 6.8904831745864747 #
edge $-1 $352 1 $352 0 $219 $-1 forward 7 unknown #
vertex $-1 $220 $353 #
ellipse-curve $-1 -47.392576218399675 23.374984117396941 4.6156525887722042 0 0.64278761758704617 0.76604443648966558 0.25 0 0 1 I I #
point $-1 -47.142576218399675 24.017771734983988 5.3816970252618699 #
edge $-1 $354 1 $354 0 $223 $-1 forward 7 unknown #
vertex $-1 $224 $355 #
ellipse-curve $-1 -42.738719344039659 23.374984117396941 4.6156525887722042 0 0.64278761758704617 0.76604443648966558 0.25 0 0 1 I I #
point $-1 -42.488719344039659 24.017771734983988 5.3816970252618699 #
edge $-1 $356 1 $356 0 $227 $-1 forward 7 unknown #
vertex $-1 $228 $357 #
ellipse-curve $-1 -38.084862469679649 23.374984117396941 4.6156525887722042 0 0.64278761758704617 0.76604443648966558 0.25 0 0 1 I I #
point $-1 -37.834862469679649 24.017771734983988 5.3816970252618699 #
plane-surface $-1 55.481429486983856 0 0 -1 0 0 0 0 1 forward_v I I I I #
coedge $-1 $236 $234 $238 $319 reversed $161 $-1 #
edge $-1 $249 -6.8904831745864739 $321 6.8904831745864739 $248 $358 forward 7 unknown #
vertex $-1 $319 $359 #
straight-curve $-1 -55.481429486983856 -25.815873011236818 0 0 0 -1 I I #
edge $-1 $317 -25.815873011236818 $321 25.815873011236818 $315 $360 forward 7 unknown #
straight-curve $-1 0 -25.815873011236818 -6.8904831745864739 -1 0 0 I I #
vertex $-1 $241 $361 #
straight-curve $-1 0 25.815873011236818 -6.8904831745864739 1 0 0 I I #
point $-1 55.481429486983856 25.815873011236818 -6.8904831745864739 #
point $-1 55.481429486983856 -25.815873011236818 -6.8904831745864739 #
straight-curve $-1 -55.481429486983856 0 6.8904831745864739 0 -1 0 I I #
point $-1 -55.481429486983856 25.815873011236818 6.8904831745864739 #
point $-1 -55.481429486983856 -25.815873011236818 6.8904831745864739 #
straight-curve $-1 55.481429486983856 -25.815873011236818 0 0 0 -1 I I #
straight-curve $-1 55.481429486983856 25.815873011236818 0 0 0 -1 I I #
edge $-1 $331 40.841842564342244 $334 45.328957703405806 $259 $362 forward 7 unknown #
vertex $-1 $273 $363 #
straight-curve $-1 -10.103977277063791 -43.125289118571288 6.8904831745864712 0 -1 0 I I #
edge $-1 $334 -13.031497249995699 $270 18.886537195859514 $269 $364 forward 7 unknown #
vertex $-1 $333 $365 #
straight-curve $-1 -10.103977277063791 -25.81587301123681 2.4033680355229166 0 0.83867056331134215 0.54463904215088732 I I #
point $-1 -10.103977277063791 -18.906321748698563 6.8904831745864739 #
point $-1 21.814057168791422 -25.815873011236818 2.4033680355229121 #
straight-curve $-1 0 -25.815873011236818 6.8904831745864739 1 0 0 I I #
vertex $-1 $276 $366 #
point $-1 0.51546113603770038 -20.074451130151118 1.1257992259139544 #
vertex $-1 $280 $367 #
point $-1 14.19461875568993 -20.074451130151118 1.1257992259139544 #
edge $-1 $344 54.14133615920246 $347 57.158908457851666 $285 $368 forward 7 unknown #
vertex $-1 $299 $369 #
straight-curve $-1 -34.982291220106305 28.794606492498787 6.8904831745864712 0 1 0 I I #
edge $-1 $347 13.612931548086472 $296 29.125787795953194 $295 $370 forward 7 unknown #
vertex $-1 $346 $371 #
straight-curve $-1 -34.982291220106305 -13.736338775526519 37.061157893582532 0 -0.76604443648966558 0.64278761758704617 I I #
point $-1 -34.982291220106305 22.219670458731173 6.8904831745864747 #
point $-1 -50.495147467973027 25.815873011236818 3.872910875937265 #
straight-curve $-1 0 25.815873011236818 6.8904831745864739 -1 0 0 I I #
vertex $-1 $302 $372 #
point $-1 -47.142576218399675 23.374984117396941 4.6156525887722042 #
vertex $-1 $306 $373 #
point $-1 -42.488719344039659 23.374984117396941 4.6156525887722042 #
vertex $-1 $310 $374 #
point $-1 -37.834862469679649 23.374984117396941 4.6156525887722042 #
straight-curve $-1 -55.481429486983856 25.815873011236818 0 0 0 -1 I I #
point $-1 -55.481429486983856 -25.815873011236818 -6.8904831745864739 #
straight-curve $-1 -55.481429486983856 0 -6.8904831745864739 0 1 0 I I #
point $-1 -55.481429486983856 25.815873011236818 -6.8904831745864739 #
straight-curve $-1 -10.103977277063791 -25.815873011236818 47.732325738928715 0 0 -1 I I #
point $-1 -10.103977277063791 -25.815873011236818 6.8904831745864739 #
straight-curve $-1 2.9275199729319077 -25.815873011236818 2.4033680355229117 1 0 0 I I #
point $-1 -10.103977277063791 -25.815873011236818 2.4033680355229121 #
point $-1 -0.98453886396229962 -19.257492566924789 -0.13220661905305897 #
point $-1 12.69461875568993 -19.257492566924789 -0.13220661905305897 #
straight-curve $-1 -34.982291220106305 25.815873011236818 61.031819333788931 0 0 -1 I I #
point $-1 -34.982291220106305 25.815873011236818 6.8904831745864739 #
straight-curve $-1 -21.369359672019833 25.815873011236814 3.8729108759372721 -1 0 0 I I #
point $-1 -34.982291220106305 25.815873011236818 3.872910875937265 #
point $-1 -47.392576218399675 23.214287213000183 4.424141479649788 #
point $-1 -42.738719344039659 23.214287213000183 4.424141479649788 #
point $-1 -38.084862469679649 23.214287213000183 4.424141479649788 #
End-of-ACIS-data 