500 0 8 0           
7 Unknown 11 ACIS 5.0 NT 24 Fri Mar 26 02:45:20 1999 
-1 9.9999999999999995e-007 1e-010 
body $-1 $8 $-1 $9 #
body $-1 $10 $-1 $11 #
body $-1 $12 $-1 $13 #
body $-1 $14 $-1 $15 #
body $-1 $16 $-1 $17 #
body $-1 $18 $-1 $19 #
body $-1 $20 $-1 $21 #
body $-1 $22 $-1 $23 #
lump $-1 $-1 $24 $0 #
transform $-1 1 0 0 0 1 0 0 0 1 58.488113040559099 36.250242393124132 7.3725162612390074 1 rotate no_reflect no_shear #
lump $-1 $-1 $25 $1 #
transform $-1 1 0 0 0 1 0 0 0 1 58.488113040559099 36.250242393124132 7.3725162612390074 1 rotate no_reflect no_shear #
lump $-1 $-1 $26 $2 #
transform $-1 1 0 0 0 1 0 0 0 1 58.488113040559099 36.250242393124132 7.3725162612390074 1 rotate no_reflect no_shear #
lump $-1 $-1 $27 $3 #
transform $-1 1 0 0 0 1 0 0 0 1 58.488113040559099 36.250242393124132 7.3725162612390074 1 rotate no_reflect no_shear #
lump $-1 $-1 $28 $4 #
transform $-1 1 0 0 0 1 0 0 0 1 58.488113040559099 36.250242393124132 7.3725162612390074 1 rotate no_reflect no_shear #
lump $-1 $-1 $29 $5 #
transform $-1 1 0 0 0 1 0 0 0 1 58.488113040559099 36.250242393124132 7.3725162612390074 1 rotate no_reflect no_shear #
lump $-1 $-1 $30 $6 #
transform $-1 1 0 0 0 1 0 0 0 1 58.488113040559099 36.250242393124132 7.3725162612390074 1 rotate no_reflect no_shear #
lump $-1 $-1 $31 $7 #
transform $-1 1 0 0 0 1 0 0 0 1 58.488113040559099 36.250242393124132 7.3725162612390074 1 rotate no_reflect no_shear #
shell $-1 $-1 $-1 $32 $-1 $8 #
shell $-1 $-1 $-1 $33 $-1 $10 #
shell $-1 $-1 $-1 $34 $-1 $12 #
shell $-1 $-1 $-1 $35 $-1 $14 #
shell $-1 $-1 $-1 $36 $-1 $16 #
shell $-1 $-1 $-1 $37 $-1 $18 #
shell $-1 $-1 $-1 $38 $-1 $20 #
shell $-1 $-1 $-1 $39 $-1 $22 #
face $-1 $40 $41 $24 $-1 $42 forward single #
face $-1 $43 $44 $25 $-1 $45 forward single #
face $-1 $46 $47 $26 $-1 $48 reversed single #
face $-1 $49 $50 $27 $-1 $51 forward single #
face $-1 $52 $53 $28 $-1 $54 forward single #
face $-1 $55 $56 $29 $-1 $57 reversed single #
face $-1 $58 $59 $30 $-1 $60 forward single #
face $-1 $61 $62 $31 $-1 $63 forward single #
face $-1 $64 $65 $24 $-1 $66 reversed single #
loop $-1 $-1 $67 $32 #
plane-surface $-1 0 0 7.3725162612390074 0 0 1 1 0 0 forward_v I I I I #
face $-1 $68 $69 $25 $-1 $70 forward single #
loop $-1 $-1 $71 $33 #
plane-surface $-1 0 -36.250242393124132 0 0 1 0 0 0 1 forward_v I I I I #
face $-1 $72 $73 $26 $-1 $74 reversed single #
loop $-1 $-1 $75 $34 #
plane-surface $-1 72.90623437874909 -6.1398023720824995 166.21648401319015 0 -1 0 -0.7660444514056185 0 -0.64278759981090561 forward_v I I I I #
face $-1 $76 $77 $27 $-1 $78 forward single #
loop $-1 $79 $80 $35 #
cone-surface $-1 54.53508268428152 -16.678803851080772 3.1743210126660388 -0.7660444514056185 0 -0.64278759981090561 0.64278759981090561 0 -0.7660444514056185 1 I I 0 1 1 forward I I I I #
face $-1 $81 $82 $28 $-1 $83 forward single #
loop $-1 $84 $85 $36 #
cone-surface $-1 54.53508268428152 -10.355402963681808 3.1743210126660388 -0.7660444514056185 0 -0.64278759981090561 0.64278759981090561 0 -0.7660444514056185 1 I I 0 1 1 forward I I I I #
face $-1 $86 $87 $29 $-1 $88 reversed single #
loop $-1 $-1 $89 $37 #
plane-surface $-1 -148.09710197636889 -20.894404442680084 76.607495077380349 0 1 0 -0.7660444514056185 0 0.64278759981090561 forward_v I I I I #
face $-1 $90 $91 $30 $-1 $92 forward single #
loop $-1 $93 $94 $38 #
cone-surface $-1 -54.53508268428152 -16.678803851080772 3.1743210126660459 0.7660444514056185 0 -0.64278759981090561 0.64278759981090561 0 0.7660444514056185 1 I I 0 1 1 forward I I I I #
face $-1 $95 $96 $31 $-1 $97 forward single #
loop $-1 $98 $99 $39 #
cone-surface $-1 -54.53508268428152 -10.355402963681808 3.1743210126660459 0.7660444514056185 0 -0.64278759981090561 0.64278759981090561 0 0.7660444514056185 1 I I 0 1 1 forward I I I I #
face $-1 $100 $101 $24 $-1 $102 reversed single #
loop $-1 $-1 $103 $40 #
plane-surface $-1 0 0 -7.3725162612390074 0 0 1 1 0 0 forward_v I I I I #
coedge $-1 $104 $105 $106 $107 forward $41 $-1 #
face $-1 $108 $109 $25 $-1 $110 reversed single #
loop $-1 $-1 $111 $43 #
plane-surface $-1 0 0 7.3725162612390074 0 0 1 1 0 0 forward_v I I I I #
coedge $-1 $112 $113 $114 $115 forward $44 $-1 #
face $-1 $116 $117 $26 $-1 $118 reversed single #
loop $-1 $-1 $119 $46 #
plane-surface $-1 -16.7027545570607 -13.517103407381292 91.025616415570326 0.7660444514056185 0 0.64278759981090561 0.64278759981090561 0 -0.7660444514056185 forward_v I I I I #
coedge $-1 $120 $121 $122 $123 reversed $47 $-1 #
face $-1 $-1 $124 $27 $-1 $125 forward single #
loop $-1 $126 $127 $49 #
cone-surface $-1 52.697822076815498 -16.678803851080772 1.6326763549268639 -0.7660444514056185 0 -0.64278759981090561 0.3213937999054528 0 -0.38302222570280925 1 I I -0.70710678118654746 0.70710678118654746 0.5 forward I I I I #
loop $-1 $-1 $128 $35 #
coedge $-1 $80 $80 $129 $130 reversed $50 $-1 #
face $-1 $-1 $131 $28 $-1 $132 forward single #
loop $-1 $133 $134 $52 #
cone-surface $-1 52.697822076815498 -10.355402963681808 1.6326763549268639 -0.7660444514056185 0 -0.64278759981090561 0.3213937999054528 0 -0.38302222570280925 1 I I -0.70710678118654746 0.70710678118654746 0.5 forward I I I I #
loop $-1 $-1 $135 $36 #
coedge $-1 $85 $85 $136 $137 reversed $53 $-1 #
face $-1 $138 $139 $29 $-1 $140 reversed single #
loop $-1 $-1 $141 $55 #
plane-surface $-1 -58.488113040559099 -13.517103407381292 1.4166274797605212 -0.7660444514056185 0 0.64278759981090561 0.64278759981090561 0 0.7660444514056185 forward_v I I I I #
coedge $-1 $142 $143 $144 $145 reversed $56 $-1 #
face $-1 $-1 $146 $30 $-1 $147 forward single #
loop $-1 $148 $149 $58 #
cone-surface $-1 -52.697822076815498 -16.678803851080772 1.632676354926871 0.7660444514056185 0 -0.64278759981090561 0.3213937999054528 0 0.38302222570280925 1 I I -0.70710678118654746 0.70710678118654746 0.5 forward I I I I #
loop $-1 $-1 $150 $38 #
coedge $-1 $94 $94 $151 $152 reversed $59 $-1 #
face $-1 $-1 $153 $31 $-1 $154 forward single #
loop $-1 $155 $156 $61 #
cone-surface $-1 -52.697822076815498 -10.355402963681808 1.632676354926871 0.7660444514056185 0 -0.64278759981090561 0.3213937999054528 0 0.38302222570280925 1 I I -0.70710678118654746 0.70710678118654746 0.5 forward I I I I #
loop $-1 $-1 $157 $39 #
coedge $-1 $99 $99 $158 $159 reversed $62 $-1 #
face $-1 $160 $161 $24 $-1 $162 reversed single #
loop $-1 $-1 $163 $64 #
plane-surface $-1 0 -36.250242393124132 0 0 1 0 0 0 1 forward_v I I I I #
coedge $-1 $164 $165 $166 $167 forward $65 $-1 #
coedge $-1 $168 $67 $169 $170 forward $41 $-1 #
coedge $-1 $67 $168 $171 $172 forward $41 $-1 #
coedge $-1 $173 $174 $67 $107 reversed $175 $-1 #
edge $-1 $176 -36.250242393124132 $177 36.250242393124132 $106 $178 forward 7 unknown #
face $-1 $179 $180 $25 $-1 $181 reversed single #
loop $-1 $-1 $182 $68 #
plane-surface $-1 -58.488113040559099 0 0 1 0 0 0 0 -1 forward_v I I I I #
coedge $-1 $183 $184 $185 $186 forward $69 $-1 #
coedge $-1 $185 $71 $182 $187 reversed $44 $-1 #
coedge $-1 $71 $185 $188 $189 reversed $44 $-1 #
coedge $-1 $190 $191 $71 $115 reversed $180 $-1 #
edge $-1 $192 -58.488113040559099 $193 58.488113040559099 $114 $194 forward 7 unknown #
face $-1 $195 $196 $26 $-1 $197 reversed single #
loop $-1 $-1 $198 $72 #
plane-surface $-1 72.90623437874909 -20.894404442680084 166.21648401319015 0 1 0 0.7660444514056185 0 0.64278759981090561 forward_v I I I I #
coedge $-1 $199 $200 $201 $202 reversed $73 $-1 #
coedge $-1 $121 $75 $203 $204 reversed $47 $-1 #
coedge $-1 $75 $120 $199 $205 reversed $47 $-1 #
coedge $-1 $201 $206 $75 $123 forward $207 $-1 #
edge $-1 $208 -22.034995851184554 $209 -17.037411902155831 $122 $210 forward 7 unknown #
loop $-1 $-1 $129 $76 #
plane-surface $-1 -16.7027545570607 -13.517103407381292 91.025616415570326 0.7660444514056185 0 0.64278759981090561 0.64278759981090561 0 -0.7660444514056185 forward_v I I I I #
loop $-1 $-1 $211 $49 #
coedge $-1 $127 $127 $128 $212 reversed $77 $-1 #
coedge $-1 $128 $128 $127 $212 forward $79 $-1 #
coedge $-1 $129 $129 $80 $130 forward $124 $-1 #
edge $-1 $213 0 $213 6.2831853071796004 $129 $214 forward 7 unknown #
loop $-1 $-1 $136 $81 #
plane-surface $-1 -16.7027545570607 -13.517103407381292 91.025616415570326 0.7660444514056185 0 0.64278759981090561 0.64278759981090561 0 -0.7660444514056185 forward_v I I I I #
loop $-1 $-1 $215 $52 #
coedge $-1 $134 $134 $135 $216 reversed $82 $-1 #
coedge $-1 $135 $135 $134 $216 forward $84 $-1 #
coedge $-1 $136 $136 $85 $137 forward $131 $-1 #
edge $-1 $217 0 $217 6.2831853071796004 $136 $218 forward 7 unknown #
face $-1 $219 $220 $29 $-1 $221 forward single #
loop $-1 $-1 $222 $86 #
plane-surface $-1 -148.09710197636889 -6.1398023720824995 76.607495077380349 0 -1 0 0.7660444514056185 0 -0.64278759981090561 forward_v I I I I #
coedge $-1 $223 $224 $225 $226 reversed $87 $-1 #
coedge $-1 $143 $89 $227 $228 reversed $56 $-1 #
coedge $-1 $89 $142 $223 $229 reversed $56 $-1 #
coedge $-1 $225 $230 $89 $145 forward $220 $-1 #
edge $-1 $231 15.560437947625346 $232 20.558021896654097 $144 $233 forward 7 unknown #
loop $-1 $-1 $151 $90 #
plane-surface $-1 -58.488113040559099 -13.517103407381292 1.4166274797605212 -0.7660444514056185 0 0.64278759981090561 0.64278759981090561 0 0.7660444514056185 forward_v I I I I #
loop $-1 $-1 $234 $58 #
coedge $-1 $149 $149 $150 $235 reversed $91 $-1 #
coedge $-1 $150 $150 $149 $235 forward $93 $-1 #
coedge $-1 $151 $151 $94 $152 forward $146 $-1 #
edge $-1 $236 0 $236 6.2831853071796004 $151 $237 forward 7 unknown #
loop $-1 $-1 $158 $95 #
plane-surface $-1 -58.488113040559099 -13.517103407381292 1.4166274797605212 -0.7660444514056185 0 0.64278759981090561 0.64278759981090561 0 0.7660444514056185 forward_v I I I I #
loop $-1 $-1 $238 $61 #
coedge $-1 $156 $156 $157 $239 reversed $96 $-1 #
coedge $-1 $157 $157 $156 $239 forward $98 $-1 #
coedge $-1 $158 $158 $99 $159 forward $153 $-1 #
edge $-1 $240 0 $240 6.2831853071796004 $158 $241 forward 7 unknown #
face $-1 $242 $243 $24 $-1 $244 reversed single #
loop $-1 $-1 $245 $100 #
plane-surface $-1 -58.488113040559099 0 0 1 0 0 0 0 -1 forward_v I I I I #
coedge $-1 $246 $171 $247 $248 forward $101 $-1 #
coedge $-1 $249 $103 $246 $250 forward $65 $-1 #
coedge $-1 $103 $249 $251 $252 forward $65 $-1 #
coedge $-1 $174 $173 $103 $167 reversed $175 $-1 #
edge $-1 $253 -36.250242393124132 $254 36.250242393124132 $166 $255 forward 7 unknown #
coedge $-1 $105 $104 $256 $257 forward $41 $-1 #
coedge $-1 $258 $259 $104 $170 reversed $243 $-1 #
edge $-1 $177 -58.488113040559099 $260 58.488113040559099 $169 $261 forward 7 unknown #
coedge $-1 $163 $262 $105 $172 reversed $101 $-1 #
edge $-1 $263 -58.488113040559099 $176 58.488113040559099 $171 $264 forward 7 unknown #
coedge $-1 $166 $106 $262 $265 forward $175 $-1 #
coedge $-1 $106 $166 $258 $266 reversed $175 $-1 #
loop $-1 $-1 $173 $242 #
vertex $-1 $107 $267 #
vertex $-1 $107 $268 #
straight-curve $-1 58.488113040559099 0 7.3725162612390074 0 1 0 I I #
face $-1 $269 $270 $25 $-1 $271 reversed single #
loop $-1 $-1 $190 $108 #
plane-surface $-1 0 -39.56651797149118 3.0453057372544849 0 0 1 1 0 0 forward_v I I I I #
coedge $-1 $272 $273 $112 $187 forward $109 $-1 #
coedge $-1 $274 $111 $273 $275 forward $69 $-1 #
coedge $-1 $111 $274 $276 $277 forward $69 $-1 #
coedge $-1 $113 $112 $111 $186 reversed $44 $-1 #
edge $-1 $278 -58.488113040559099 $279 58.488113040559099 $111 $280 forward 7 unknown #
edge $-1 $279 -7.3725162612390074 $193 -3.0453057372544849 $182 $281 forward 7 unknown #
coedge $-1 $276 $282 $113 $189 forward $283 $-1 #
edge $-1 $192 3.0453057372544849 $278 7.3725162612390074 $188 $284 forward 7 unknown #
coedge $-1 $285 $114 $282 $286 forward $180 $-1 #
coedge $-1 $114 $285 $272 $287 forward $180 $-1 #
vertex $-1 $189 $288 #
vertex $-1 $187 $289 #
straight-curve $-1 0 -36.250242393124132 3.0453057372544849 -1 0 0 I I #
face $-1 $-1 $207 $26 $-1 $290 forward single #
loop $-1 $-1 $291 $116 #
plane-surface $-1 58.488113040559099 0 0 -1 0 0 0 0 1 forward_v I I I I #
coedge $-1 $292 $293 $294 $295 reversed $117 $-1 #
coedge $-1 $296 $119 $121 $205 forward $73 $-1 #
coedge $-1 $119 $296 $292 $297 forward $73 $-1 #
coedge $-1 $294 $122 $119 $202 forward $207 $-1 #
edge $-1 $209 -0.61874933160814649 $298 14.135852738989438 $201 $299 forward 7 unknown #
coedge $-1 $300 $301 $120 $204 forward $196 $-1 #
edge $-1 $302 -81.691614526834513 $208 -75.735725745356063 $203 $303 forward 7 unknown #
edge $-1 $209 109.20136553542797 $302 116.97622608111818 $121 $304 forward 7 unknown #
coedge $-1 $122 $294 $300 $305 forward $207 $-1 #
loop $-1 $-1 $294 $195 #
vertex $-1 $204 $306 #
vertex $-1 $123 $307 #
straight-curve $-1 36.453117189374545 -6.1398023720824995 7.3725162612390136 -1 0 0 I I #
coedge $-1 $211 $211 $-1 $308 reversed $126 $-1 #
edge $-1 $309 0 $309 6.2831853071796004 $127 $310 forward 7 unknown #
vertex $-1 $130 $311 #
ellipse-curve $-1 55.989321066044745 -16.678803851080772 4.3945718704997763 0.7660444514056185 0 0.64278759981090561 0.64278759981090561 0 -0.7660444514056185 1 I I #
coedge $-1 $215 $215 $-1 $312 reversed $133 $-1 #
edge $-1 $313 0 $313 6.2831853071796004 $134 $314 forward 7 unknown #
vertex $-1 $137 $315 #
ellipse-curve $-1 55.989321066044745 -10.355402963681808 4.3945718704997763 0.7660444514056185 0 0.64278759981090561 0.64278759981090561 0 -0.7660444514056185 1 I I #
face $-1 $-1 $316 $29 $-1 $317 reversed single #
loop $-1 $-1 $144 $138 #
plane-surface $-1 0 0 7.3725162612390074 0 0 1 1 0 0 forward_v I I I I #
coedge $-1 $318 $319 $320 $321 reversed $139 $-1 #
coedge $-1 $322 $141 $143 $229 forward $87 $-1 #
coedge $-1 $141 $322 $318 $323 forward $87 $-1 #
coedge $-1 $320 $144 $141 $226 forward $220 $-1 #
edge $-1 $232 -14.135852738989438 $324 0.61874933160814649 $225 $325 forward 7 unknown #
coedge $-1 $326 $327 $142 $228 forward $316 $-1 #
edge $-1 $328 -36.887120058929654 $231 -30.931231277451168 $227 $329 forward 7 unknown #
edge $-1 $232 -7.7748605456902657 $328 0 $143 $330 forward 7 unknown #
coedge $-1 $144 $320 $326 $331 forward $220 $-1 #
vertex $-1 $228 $332 #
vertex $-1 $145 $333 #
straight-curve $-1 -74.048550988184445 -20.894404442680084 7.3725162612390065 1 0 0 I I #
coedge $-1 $234 $234 $-1 $334 reversed $148 $-1 #
edge $-1 $335 0 $335 6.2831853071796004 $149 $336 forward 7 unknown #
vertex $-1 $152 $337 #
ellipse-curve $-1 -55.989321066044724 -16.678803851080772 4.3945718704997638 -0.7660444514056185 0 0.64278759981090561 0.64278759981090561 0 0.7660444514056185 1 I I #
coedge $-1 $238 $238 $-1 $338 reversed $155 $-1 #
edge $-1 $339 0 $339 6.2831853071796004 $156 $340 forward 7 unknown #
vertex $-1 $159 $341 #
ellipse-curve $-1 -55.989321066044724 -10.355402963681808 4.3945718704997638 -0.7660444514056185 0 0.64278759981090561 0.64278759981090561 0 0.7660444514056185 1 I I #
face $-1 $-1 $175 $24 $-1 $342 reversed single #
loop $-1 $-1 $258 $160 #
plane-surface $-1 0 36.250242393124132 0 0 -1 0 0 0 -1 forward_v I I I I #
coedge $-1 $343 $256 $259 $344 forward $161 $-1 #
coedge $-1 $262 $163 $164 $250 reversed $101 $-1 #
coedge $-1 $256 $343 $163 $248 reversed $161 $-1 #
edge $-1 $263 -7.3725162612390074 $345 7.3725162612390074 $247 $346 forward 7 unknown #
coedge $-1 $165 $164 $343 $347 forward $65 $-1 #
edge $-1 $254 -58.488113040559099 $345 58.488113040559099 $246 $348 forward 7 unknown #
coedge $-1 $259 $258 $165 $252 reversed $243 $-1 #
edge $-1 $349 -58.488113040559099 $253 58.488113040559099 $251 $350 forward 7 unknown #
vertex $-1 $167 $351 #
vertex $-1 $265 $352 #
straight-curve $-1 58.488113040559099 0 -7.3725162612390074 0 -1 0 I I #
coedge $-1 $245 $247 $168 $257 reversed $161 $-1 #
edge $-1 $260 -36.250242393124132 $263 36.250242393124132 $256 $353 forward 7 unknown #
coedge $-1 $251 $169 $174 $266 forward $243 $-1 #
coedge $-1 $169 $251 $245 $344 reversed $243 $-1 #
vertex $-1 $170 $354 #
straight-curve $-1 0 36.250242393124132 7.3725162612390074 -1 0 0 I I #
coedge $-1 $171 $246 $173 $265 reversed $101 $-1 #
vertex $-1 $257 $355 #
straight-curve $-1 0 -36.250242393124132 7.3725162612390074 1 0 0 I I #
edge $-1 $176 -7.3725162612390074 $254 7.3725162612390074 $173 $356 forward 7 unknown #
edge $-1 $177 -7.3725162612390074 $253 7.3725162612390074 $174 $357 forward 7 unknown #
point $-1 58.488113040559099 -36.250242393124132 7.3725162612390074 #
point $-1 58.488113040559099 36.250242393124132 7.3725162612390074 #
face $-1 $-1 $283 $25 $-1 $358 reversed single #
loop $-1 $-1 $359 $179 #
plane-surface $-1 0 -42.882793549858228 5.2089109992467462 0 1 0 0 0 1 forward_v I I I I #
coedge $-1 $360 $182 $191 $287 reversed $109 $-1 #
coedge $-1 $182 $360 $183 $275 reversed $109 $-1 #
coedge $-1 $184 $183 $361 $362 forward $69 $-1 #
edge $-1 $279 36.250242393124132 $363 42.882793549858228 $273 $364 forward 7 unknown #
coedge $-1 $365 $188 $184 $277 reversed $283 $-1 #
edge $-1 $366 -42.882793549858228 $278 -36.250242393124132 $276 $367 forward 7 unknown #
vertex $-1 $189 $368 #
vertex $-1 $275 $369 #
straight-curve $-1 0 -36.250242393124132 7.3725162612390074 -1 0 0 I I #
straight-curve $-1 -58.488113040559099 -36.250242393124132 0 0 0 -1 I I #
coedge $-1 $188 $365 $190 $286 reversed $283 $-1 #
loop $-1 $-1 $188 $269 #
straight-curve $-1 58.488113040559099 -36.250242393124132 0 0 0 1 I I #
coedge $-1 $191 $190 $370 $371 forward $180 $-1 #
edge $-1 $192 -3.3162755783670477 $372 3.3162755783670477 $282 $373 forward 7 unknown #
edge $-1 $374 -3.3162755783670477 $193 3.3162755783670477 $272 $375 forward 7 unknown #
point $-1 58.488113040559099 -36.250242393124132 3.0453057372544849 #
point $-1 -58.488113040559099 -36.250242393124132 3.0453057372544849 #
plane-surface $-1 0 0 7.3725162612390074 0 0 1 1 0 0 forward_v I I I I #
coedge $-1 $301 $300 $293 $376 forward $196 $-1 #
coedge $-1 $293 $198 $200 $297 reversed $117 $-1 #
coedge $-1 $198 $292 $291 $376 reversed $117 $-1 #
coedge $-1 $206 $201 $198 $295 forward $207 $-1 #
edge $-1 $298 17.037411902155831 $377 22.034995851184554 $294 $378 forward 7 unknown #
coedge $-1 $200 $199 $301 $379 reversed $73 $-1 #
edge $-1 $380 -116.97622608111818 $298 -109.20136553542797 $292 $381 forward 7 unknown #
vertex $-1 $202 $382 #
straight-curve $-1 53.490529091530384 -6.758551703690646 7.3725162612389994 0 -1 0 I I #
coedge $-1 $291 $203 $206 $305 reversed $196 $-1 #
coedge $-1 $203 $291 $296 $379 forward $196 $-1 #
vertex $-1 $204 $383 #
straight-curve $-1 58.488113040559099 -6.1398023720824995 83.108242006595077 0 0 1 I I #
straight-curve $-1 -16.7027545570607 -6.1398023720824995 91.025616415570326 0.64278759981090561 0 -0.7660444514056185 I I #
edge $-1 $377 -20.894404442680084 $208 -6.1398023720824995 $300 $384 forward 7 unknown #
point $-1 58.488113040559099 -6.1398023720824995 7.3725162612390074 #
point $-1 53.490529091530377 -6.1398023720824995 7.3725162612390136 #
edge $-1 $385 1 $385 0 $211 $-1 forward 7 unknown #
vertex $-1 $212 $386 #
ellipse-curve $-1 53.080844302518308 -16.678803851080772 1.9540701548323167 0.7660444514056185 0 0.64278759981090561 0.64278759981090561 0 -0.7660444514056185 1 I I #
point $-1 56.632108665855633 -16.678803851080772 3.6285274190941426 #
edge $-1 $387 1 $387 0 $215 $-1 forward 7 unknown #
vertex $-1 $216 $388 #
ellipse-curve $-1 53.080844302518308 -10.355402963681808 1.9540701548323167 0.7660444514056185 0 0.64278759981090561 0.64278759981090561 0 -0.7660444514056185 1 I I #
point $-1 56.632108665855633 -10.355402963681808 3.6285274190941426 #
loop $-1 $-1 $227 $219 #
plane-surface $-1 -58.488113040559099 0 0 1 0 0 0 0 -1 forward_v I I I I #
coedge $-1 $319 $222 $224 $323 reversed $139 $-1 #
coedge $-1 $222 $318 $389 $390 reversed $139 $-1 #
coedge $-1 $230 $225 $222 $321 forward $220 $-1 #
edge $-1 $324 -20.558021896654097 $391 -15.560437947625346 $320 $392 forward 7 unknown #
coedge $-1 $224 $223 $327 $393 reversed $87 $-1 #
edge $-1 $394 0 $324 7.7748605456902657 $318 $395 forward 7 unknown #
vertex $-1 $226 $396 #
straight-curve $-1 -53.490529091530348 -6.758551703690646 7.3725162612390065 0 1 0 I I #
coedge $-1 $389 $227 $230 $331 reversed $316 $-1 #
coedge $-1 $227 $389 $322 $393 forward $316 $-1 #
vertex $-1 $228 $397 #
straight-curve $-1 -58.488113040559099 -20.894404442680084 38.303747538690175 0 0 1 I I #
straight-curve $-1 -58.488113040559099 -20.894404442680084 1.4166274797605212 -0.64278759981090561 0 -0.7660444514056185 I I #
edge $-1 $391 6.1398023720824995 $231 20.894404442680084 $326 $398 forward 7 unknown #
point $-1 -58.488113040559099 -20.894404442680084 7.3725162612390074 #
point $-1 -53.490529091530348 -20.894404442680084 7.3725162612390074 #
edge $-1 $399 1 $399 0 $234 $-1 forward 7 unknown #
vertex $-1 $235 $400 #
ellipse-curve $-1 -53.080844302518308 -16.678803851080772 1.9540701548323238 -0.7660444514056185 0 0.64278759981090561 0.64278759981090561 0 0.7660444514056185 1 I I #
point $-1 -55.346533466233822 -16.678803851080772 5.1606163219053869 #
edge $-1 $401 1 $401 0 $238 $-1 forward 7 unknown #
vertex $-1 $239 $402 #
ellipse-curve $-1 -53.080844302518308 -10.355402963681808 1.9540701548323238 -0.7660444514056185 0 0.64278759981090561 0.64278759981090561 0 0.7660444514056185 1 I I #
point $-1 -55.346533466233822 -10.355402963681808 5.1606163219053869 #
plane-surface $-1 58.488113040559099 0 0 -1 0 0 0 0 1 forward_v I I I I #
coedge $-1 $247 $245 $249 $347 reversed $161 $-1 #
edge $-1 $260 -7.3725162612390074 $349 7.3725162612390074 $259 $403 forward 7 unknown #
vertex $-1 $347 $404 #
straight-curve $-1 -58.488113040559099 -36.250242393124132 0 0 0 -1 I I #
edge $-1 $345 -36.250242393124132 $349 36.250242393124132 $343 $405 forward 7 unknown #
straight-curve $-1 0 -36.250242393124132 -7.3725162612390074 -1 0 0 I I #
vertex $-1 $252 $406 #
straight-curve $-1 0 36.250242393124132 -7.3725162612390074 1 0 0 I I #
point $-1 58.488113040559099 36.250242393124132 -7.3725162612390074 #
point $-1 58.488113040559099 -36.250242393124132 -7.3725162612390074 #
straight-curve $-1 -58.488113040559099 0 7.3725162612390074 0 -1 0 I I #
point $-1 -58.488113040559099 36.250242393124132 7.3725162612390074 #
point $-1 -58.488113040559099 -36.250242393124132 7.3725162612390074 #
straight-curve $-1 58.488113040559099 -36.250242393124132 0 0 0 -1 I I #
straight-curve $-1 58.488113040559099 36.250242393124132 0 0 0 -1 I I #
plane-surface $-1 58.488113040559099 0 0 -1 0 0 0 0 1 forward_v I I I I #
coedge $-1 $370 $361 $360 $407 forward $270 $-1 #
coedge $-1 $273 $272 $359 $407 reversed $109 $-1 #
coedge $-1 $359 $408 $274 $362 reversed $270 $-1 #
edge $-1 $363 -58.488113040559099 $366 58.488113040559099 $361 $409 forward 7 unknown #
vertex $-1 $275 $410 #
straight-curve $-1 -58.488113040559099 0 7.3725162612390074 0 -1 0 I I #
coedge $-1 $282 $276 $408 $411 forward $283 $-1 #
vertex $-1 $277 $412 #
straight-curve $-1 58.488113040559099 0 7.3725162612390074 0 1 0 I I #
point $-1 58.488113040559099 -36.250242393124132 7.3725162612390074 #
point $-1 -58.488113040559099 -36.250242393124132 7.3725162612390074 #
coedge $-1 $408 $359 $285 $371 reversed $270 $-1 #
edge $-1 $372 -58.488113040559099 $374 58.488113040559099 $370 $413 forward 7 unknown #
vertex $-1 $411 $414 #
straight-curve $-1 58.488113040559099 -39.56651797149118 3.0453057372544849 0 -1 0 I I #
vertex $-1 $287 $415 #
straight-curve $-1 -58.488113040559099 -39.56651797149118 3.0453057372544849 0 1 0 I I #
edge $-1 $377 75.735725745356063 $380 81.691614526834513 $291 $416 forward 7 unknown #
vertex $-1 $305 $417 #
straight-curve $-1 36.453117189374545 -20.894404442680084 7.3725162612390136 1 0 0 I I #
edge $-1 $380 -14.135852738989438 $302 0.61874933160814649 $301 $418 forward 7 unknown #
vertex $-1 $379 $419 #
straight-curve $-1 -16.7027545570607 -20.894404442680084 91.025616415570326 -0.64278759981090561 0 0.7660444514056185 I I #
point $-1 53.490529091530377 -20.894404442680084 7.3725162612390136 #
point $-1 58.488113040559099 -6.1398023720824995 1.4166274797605638 #
straight-curve $-1 58.488113040559099 0 7.3725162612390074 0 1 0 I I #
vertex $-1 $308 $420 #
point $-1 53.723631902329217 -16.678803851080772 1.1880257034266983 #
vertex $-1 $312 $421 #
point $-1 53.723631902329217 -10.355402963681808 1.1880257034266983 #
coedge $-1 $327 $326 $319 $390 forward $316 $-1 #
edge $-1 $391 30.931231277451168 $394 36.887120058929654 $389 $422 forward 7 unknown #
vertex $-1 $331 $423 #
straight-curve $-1 -74.048550988184445 -6.1398023720824995 7.3725162612390065 -1 0 0 I I #
edge $-1 $394 -0.61874933160814649 $328 14.135852738989438 $327 $424 forward 7 unknown #
vertex $-1 $393 $425 #
straight-curve $-1 -58.488113040559099 -6.1398023720824995 1.4166274797605212 0.64278759981090561 0 0.7660444514056185 I I #
point $-1 -53.490529091530348 -6.1398023720824995 7.3725162612390074 #
point $-1 -58.488113040559099 -20.894404442680084 1.4166274797605212 #
straight-curve $-1 -58.488113040559099 0 7.3725162612390074 0 -1 0 I I #
vertex $-1 $334 $426 #
point $-1 -52.438056702707399 -16.678803851080772 2.7201146062379422 #
vertex $-1 $338 $427 #
point $-1 -52.438056702707399 -10.355402963681808 2.7201146062379422 #
straight-curve $-1 -58.488113040559099 36.250242393124132 0 0 0 -1 I I #
point $-1 -58.488113040559099 -36.250242393124132 -7.3725162612390074 #
straight-curve $-1 -58.488113040559099 0 -7.3725162612390074 0 1 0 I I #
point $-1 -58.488113040559099 36.250242393124132 -7.3725162612390074 #
edge $-1 $363 -2.1636052619922612 $374 2.1636052619922612 $360 $428 forward 7 unknown #
coedge $-1 $361 $370 $365 $411 reversed $270 $-1 #
straight-curve $-1 0 -42.882793549858228 7.3725162612390074 1 0 0 I I #
point $-1 -58.488113040559099 -42.882793549858228 7.3725162612390074 #
edge $-1 $366 -2.1636052619922612 $372 2.1636052619922612 $365 $429 forward 7 unknown #
point $-1 58.488113040559099 -42.882793549858228 7.3725162612390074 #
straight-curve $-1 0 -42.882793549858228 3.0453057372544849 -1 0 0 I I #
point $-1 58.488113040559099 -42.882793549858228 3.0453057372544849 #
point $-1 -58.488113040559099 -42.882793549858228 3.0453057372544849 #
straight-curve $-1 58.488113040559099 -20.894404442680084 83.108242006595077 0 0 -1 I I #
point $-1 58.488113040559099 -20.894404442680084 7.3725162612390074 #
straight-curve $-1 58.488113040559092 -6.758551703690646 1.4166274797605567 0 1 0 I I #
point $-1 58.488113040559099 -20.894404442680084 1.4166274797605638 #
point $-1 52.314799851112689 -16.678803851080772 1.3112825550214111 #
point $-1 52.314799851112689 -10.355402963681808 1.3112825550214111 #
straight-curve $-1 -58.488113040559099 -6.1398023720824995 38.303747538690175 0 0 -1 I I #
point $-1 -58.488113040559099 -6.1398023720824995 7.3725162612390074 #
straight-curve $-1 -58.488113040559099 -6.758551703690646 1.4166274797605229 0 -1 0 I I #
point $-1 -58.488113040559099 -6.1398023720824995 1.4166274797605212 #
point $-1 -52.314799851112689 -16.678803851080772 1.3112825550214182 #
point $-1 -52.314799851112689 -10.355402963681808 1.3112825550214182 #
straight-curve $-1 -58.488113040559099 -42.882793549858228 5.2089109992467462 0 0 -1 I I #
straight-curve $-1 58.488113040559099 -42.882793549858228 5.2089109992467462 0 0 -1 I I #
End-of-ACIS-data 