500 0 8 0           
7 Unknown 11 ACIS 5.0 NT 24 Fri Mar 26 16:35:13 1999 
-1 9.9999999999999995e-007 1e-010 
body $-1 $8 $-1 $9 #
body $-1 $10 $-1 $11 #
body $-1 $12 $-1 $13 #
body $-1 $14 $-1 $15 #
body $-1 $16 $-1 $17 #
body $-1 $18 $-1 $19 #
body $-1 $20 $-1 $21 #
body $-1 $22 $-1 $23 #
lump $-1 $-1 $24 $0 #
transform $-1 1 0 0 0 1 0 0 0 1 46.82638019959105 19.126261930517497 6.2029163574090802 1 rotate no_reflect no_shear #
lump $-1 $-1 $25 $1 #
transform $-1 1 0 0 0 1 0 0 0 1 46.82638019959105 19.126261930517497 6.2029163574090802 1 rotate no_reflect no_shear #
lump $-1 $-1 $26 $2 #
transform $-1 1 0 0 0 1 0 0 0 1 46.82638019959105 19.126261930517497 6.2029163574090802 1 rotate no_reflect no_shear #
lump $-1 $-1 $27 $3 #
transform $-1 1 0 0 0 1 0 0 0 1 46.82638019959105 19.126261930517497 6.2029163574090802 1 rotate no_reflect no_shear #
lump $-1 $-1 $28 $4 #
transform $-1 1 0 0 0 1 0 0 0 1 46.82638019959105 19.126261930517497 6.2029163574090802 1 rotate no_reflect no_shear #
lump $-1 $-1 $29 $5 #
transform $-1 1 0 0 0 1 0 0 0 1 46.82638019959105 19.126261930517497 6.2029163574090802 1 rotate no_reflect no_shear #
lump $-1 $-1 $30 $6 #
transform $-1 1 0 0 0 1 0 0 0 1 46.82638019959105 19.126261930517497 6.2029163574090802 1 rotate no_reflect no_shear #
lump $-1 $-1 $31 $7 #
transform $-1 1 0 0 0 1 0 0 0 1 46.82638019959105 19.126261930517497 6.2029163574090802 1 rotate no_reflect no_shear #
shell $-1 $-1 $-1 $32 $-1 $8 #
shell $-1 $-1 $-1 $33 $-1 $10 #
shell $-1 $-1 $-1 $34 $-1 $12 #
shell $-1 $-1 $-1 $35 $-1 $14 #
shell $-1 $-1 $-1 $36 $-1 $16 #
shell $-1 $-1 $-1 $37 $-1 $18 #
shell $-1 $-1 $-1 $38 $-1 $20 #
shell $-1 $-1 $-1 $39 $-1 $22 #
face $-1 $40 $41 $24 $-1 $42 forward single #
face $-1 $43 $44 $25 $-1 $45 forward single #
face $-1 $46 $47 $26 $-1 $48 reversed single #
face $-1 $49 $50 $27 $-1 $51 forward single #
face $-1 $52 $53 $28 $-1 $54 forward single #
face $-1 $55 $56 $29 $-1 $57 reversed single #
face $-1 $58 $59 $30 $-1 $60 forward single #
face $-1 $61 $62 $31 $-1 $63 forward single #
face $-1 $64 $65 $24 $-1 $66 reversed single #
loop $-1 $-1 $67 $32 #
plane-surface $-1 0 0 6.2029163574090802 0 0 1 1 0 0 forward_v I I I I #
face $-1 $68 $69 $25 $-1 $70 reversed single #
loop $-1 $-1 $71 $33 #
plane-surface $-1 0 -15.863878517086864 -3.2029163574090802 0 0 1 1 0 0 forward_v I I I I #
face $-1 $72 $73 $26 $-1 $74 reversed single #
loop $-1 $-1 $75 $34 #
plane-surface $-1 35.283038871338654 -2.7772669501782623 133.85697392217355 0 -1 0 -0.64278761758704617 0 -0.76604443648966558 forward_v I I I I #
face $-1 $76 $77 $27 $-1 $78 forward single #
loop $-1 $79 $80 $35 #
cone-surface $-1 43.633893010892422 -8.2154368382198228 3.2991113533940801 -0.64278761758704617 0 -0.76604443648966558 0.38302221824483279 0 -0.32139380879352308 1 I I 0 1 0.5 forward I I I I #
face $-1 $81 $82 $28 $-1 $83 forward single #
loop $-1 $84 $85 $36 #
cone-surface $-1 43.633893010892422 -4.9525349053948862 3.2991113533940801 -0.64278761758704617 0 -0.76604443648966558 0.38302221824483279 0 -0.32139380879352308 1 I I 0 1 0.5 forward I I I I #
face $-1 $86 $87 $29 $-1 $88 reversed single #
loop $-1 $-1 $89 $37 #
plane-surface $-1 35.283038871338654 13.0866115669086 133.85697392217355 0 -1 0 -0.64278761758704617 0 -0.76604443648966558 forward_v I I I I #
face $-1 $90 $91 $30 $-1 $92 forward single #
loop $-1 $93 $94 $38 #
cone-surface $-1 43.633893010892422 7.6484416788670408 3.2991113533940801 -0.64278761758704617 0 -0.76604443648966558 0.38302221824483279 0 -0.32139380879352308 1 I I 0 1 0.5 forward I I I I #
face $-1 $95 $96 $31 $-1 $97 forward single #
loop $-1 $98 $99 $39 #
cone-surface $-1 43.633893010892422 10.911343611691979 3.2991113533940801 -0.64278761758704617 0 -0.76604443648966558 0.38302221824483279 0 -0.32139380879352308 1 I I 0 1 0.5 forward I I I I #
face $-1 $100 $101 $24 $-1 $102 reversed single #
loop $-1 $-1 $103 $40 #
plane-surface $-1 0 0 -6.2029163574090802 0 0 1 1 0 0 forward_v I I I I #
coedge $-1 $104 $105 $106 $107 forward $41 $-1 #
face $-1 $108 $109 $25 $-1 $110 reversed single #
loop $-1 $-1 $111 $43 #
plane-surface $-1 0 -12.60149510365623 -4.7029163574090802 0 -1 0 0 0 -1 forward_v I I I I #
coedge $-1 $112 $113 $114 $115 reversed $44 $-1 #
face $-1 $116 $117 $26 $-1 $118 reversed single #
loop $-1 $-1 $119 $46 #
plane-surface $-1 -24.915795866102073 -6.5839858718073554 62.114797856480436 0.64278761758704617 0 0.76604443648966558 0.76604443648966558 0 -0.64278761758704617 forward_v I I I I #
coedge $-1 $120 $121 $122 $123 reversed $47 $-1 #
face $-1 $-1 $124 $27 $-1 $125 forward single #
loop $-1 $126 $127 $49 #
cone-surface $-1 42.835204825848216 -8.2154368382198228 2.3472718594413422 -0.64278761758704617 0 -0.76604443648966558 0.1915111091224164 0 -0.16069690439676154 1 I I -0.70710678118654746 0.70710678118654746 0.25 forward I I I I #
loop $-1 $-1 $128 $35 #
coedge $-1 $80 $80 $129 $130 reversed $50 $-1 #
face $-1 $-1 $131 $28 $-1 $132 forward single #
loop $-1 $133 $134 $52 #
cone-surface $-1 42.835204825848216 -4.9525349053948862 2.3472718594413422 -0.64278761758704617 0 -0.76604443648966558 0.1915111091224164 0 -0.16069690439676154 1 I I -0.70710678118654746 0.70710678118654746 0.25 forward I I I I #
loop $-1 $-1 $135 $36 #
coedge $-1 $85 $85 $136 $137 reversed $53 $-1 #
face $-1 $138 $139 $29 $-1 $140 reversed single #
loop $-1 $-1 $141 $55 #
plane-surface $-1 -24.915795866102073 9.2798926452795065 62.114797856480436 0.64278761758704617 0 0.76604443648966558 0.76604443648966558 0 -0.64278761758704617 forward_v I I I I #
coedge $-1 $142 $143 $144 $145 reversed $56 $-1 #
face $-1 $-1 $146 $30 $-1 $147 forward single #
loop $-1 $148 $149 $58 #
cone-surface $-1 42.835204825848216 7.6484416788670408 2.3472718594413422 -0.64278761758704617 0 -0.76604443648966558 0.1915111091224164 0 -0.16069690439676154 1 I I -0.70710678118654746 0.70710678118654746 0.25 forward I I I I #
loop $-1 $-1 $150 $38 #
coedge $-1 $94 $94 $151 $152 reversed $59 $-1 #
face $-1 $-1 $153 $31 $-1 $154 forward single #
loop $-1 $155 $156 $61 #
cone-surface $-1 42.835204825848216 10.911343611691979 2.3472718594413422 -0.64278761758704617 0 -0.76604443648966558 0.1915111091224164 0 -0.16069690439676154 1 I I -0.70710678118654746 0.70710678118654746 0.25 forward I I I I #
loop $-1 $-1 $157 $39 #
coedge $-1 $99 $99 $158 $159 reversed $62 $-1 #
face $-1 $160 $161 $24 $-1 $162 reversed single #
loop $-1 $-1 $163 $64 #
plane-surface $-1 0 -19.126261930517497 0 0 1 0 0 0 1 forward_v I I I I #
coedge $-1 $164 $165 $166 $167 forward $65 $-1 #
coedge $-1 $168 $67 $169 $170 forward $41 $-1 #
coedge $-1 $67 $168 $171 $172 forward $41 $-1 #
coedge $-1 $173 $174 $67 $107 reversed $175 $-1 #
edge $-1 $176 -19.126261930517497 $177 19.126261930517497 $106 $178 forward 7 unknown #
face $-1 $179 $180 $25 $-1 $181 reversed single #
loop $-1 $-1 $182 $68 #
plane-surface $-1 0 0 -6.2029163574090802 0 0 1 1 0 0 forward_v I I I I #
coedge $-1 $183 $184 $185 $186 reversed $69 $-1 #
coedge $-1 $187 $71 $184 $188 forward $44 $-1 #
coedge $-1 $71 $187 $189 $190 reversed $44 $-1 #
coedge $-1 $191 $185 $71 $115 forward $180 $-1 #
edge $-1 $192 4.6695558451127983 $193 11.194322671974065 $114 $194 forward 7 unknown #
face $-1 $195 $196 $26 $-1 $197 reversed single #
loop $-1 $-1 $198 $72 #
plane-surface $-1 35.283038871338654 -10.390704793436448 133.85697392217355 0 1 0 0.64278761758704617 0 0.76604443648966558 forward_v I I I I #
coedge $-1 $199 $200 $201 $202 reversed $73 $-1 #
coedge $-1 $121 $75 $203 $204 reversed $47 $-1 #
coedge $-1 $75 $120 $199 $205 reversed $47 $-1 #
coedge $-1 $201 $206 $75 $123 forward $207 $-1 #
edge $-1 $208 -29.184860763921723 $209 -24.07586894781927 $122 $210 forward 7 unknown #
loop $-1 $-1 $129 $76 #
plane-surface $-1 -24.915795866102073 -6.5839858718073554 62.114797856480436 0.64278761758704617 0 0.76604443648966558 0.76604443648966558 0 -0.64278761758704617 forward_v I I I I #
loop $-1 $-1 $211 $49 #
coedge $-1 $127 $127 $128 $212 reversed $77 $-1 #
coedge $-1 $128 $128 $127 $212 forward $79 $-1 #
coedge $-1 $129 $129 $80 $130 forward $124 $-1 #
edge $-1 $213 0 $213 6.2831853071796004 $129 $214 forward 7 unknown #
loop $-1 $-1 $136 $81 #
plane-surface $-1 -24.915795866102073 -6.5839858718073554 62.114797856480436 0.64278761758704617 0 0.76604443648966558 0.76604443648966558 0 -0.64278761758704617 forward_v I I I I #
loop $-1 $-1 $215 $52 #
coedge $-1 $134 $134 $135 $216 reversed $82 $-1 #
coedge $-1 $135 $135 $134 $216 forward $84 $-1 #
coedge $-1 $136 $136 $85 $137 forward $131 $-1 #
edge $-1 $217 0 $217 6.2831853071796004 $136 $218 forward 7 unknown #
face $-1 $219 $220 $29 $-1 $221 reversed single #
loop $-1 $-1 $222 $86 #
plane-surface $-1 35.283038871338654 5.4731737236504134 133.85697392217355 0 1 0 0.64278761758704617 0 0.76604443648966558 forward_v I I I I #
coedge $-1 $223 $224 $225 $226 reversed $87 $-1 #
coedge $-1 $143 $89 $227 $228 reversed $56 $-1 #
coedge $-1 $89 $142 $223 $229 reversed $56 $-1 #
coedge $-1 $225 $230 $89 $145 forward $231 $-1 #
edge $-1 $232 -29.184860763921723 $233 -24.07586894781927 $144 $234 forward 7 unknown #
loop $-1 $-1 $151 $90 #
plane-surface $-1 -24.915795866102073 9.2798926452795065 62.114797856480436 0.64278761758704617 0 0.76604443648966558 0.76604443648966558 0 -0.64278761758704617 forward_v I I I I #
loop $-1 $-1 $235 $58 #
coedge $-1 $149 $149 $150 $236 reversed $91 $-1 #
coedge $-1 $150 $150 $149 $236 forward $93 $-1 #
coedge $-1 $151 $151 $94 $152 forward $146 $-1 #
edge $-1 $237 0 $237 6.2831853071796004 $151 $238 forward 7 unknown #
loop $-1 $-1 $158 $95 #
plane-surface $-1 -24.915795866102073 9.2798926452795065 62.114797856480436 0.64278761758704617 0 0.76604443648966558 0.76604443648966558 0 -0.64278761758704617 forward_v I I I I #
loop $-1 $-1 $239 $61 #
coedge $-1 $156 $156 $157 $240 reversed $96 $-1 #
coedge $-1 $157 $157 $156 $240 forward $98 $-1 #
coedge $-1 $158 $158 $99 $159 forward $153 $-1 #
edge $-1 $241 0 $241 6.2831853071796004 $158 $242 forward 7 unknown #
face $-1 $243 $244 $24 $-1 $245 reversed single #
loop $-1 $-1 $246 $100 #
plane-surface $-1 -46.82638019959105 0 0 1 0 0 0 0 -1 forward_v I I I I #
coedge $-1 $247 $171 $248 $249 forward $101 $-1 #
coedge $-1 $250 $103 $247 $251 forward $65 $-1 #
coedge $-1 $103 $250 $252 $253 forward $65 $-1 #
coedge $-1 $174 $173 $103 $167 reversed $175 $-1 #
edge $-1 $254 -19.126261930517497 $255 19.126261930517497 $166 $256 forward 7 unknown #
coedge $-1 $105 $104 $257 $258 forward $41 $-1 #
coedge $-1 $259 $260 $104 $170 reversed $244 $-1 #
edge $-1 $177 -46.82638019959105 $261 46.82638019959105 $169 $262 forward 7 unknown #
coedge $-1 $163 $263 $105 $172 reversed $101 $-1 #
edge $-1 $264 -46.82638019959105 $176 46.82638019959105 $171 $265 forward 7 unknown #
coedge $-1 $166 $106 $263 $266 forward $175 $-1 #
coedge $-1 $106 $166 $259 $267 reversed $175 $-1 #
loop $-1 $-1 $173 $243 #
vertex $-1 $107 $268 #
vertex $-1 $107 $269 #
straight-curve $-1 46.82638019959105 0 6.2029163574090802 0 1 0 I I #
face $-1 $270 $271 $25 $-1 $272 reversed single #
loop $-1 $-1 $185 $108 #
plane-surface $-1 46.82638019959105 0 0 -1 0 0 0 0 1 forward_v I I I I #
coedge $-1 $273 $274 $183 $275 forward $109 $-1 #
coedge $-1 $276 $111 $182 $275 reversed $69 $-1 #
coedge $-1 $111 $276 $112 $188 reversed $69 $-1 #
coedge $-1 $114 $277 $111 $186 forward $180 $-1 #
edge $-1 $278 -3.8514581787045401 $192 -0.8514581787045401 $185 $279 forward 7 unknown #
coedge $-1 $113 $112 $280 $281 reversed $44 $-1 #
edge $-1 $192 -46.82638019959105 $282 46.82638019959105 $184 $283 forward 7 unknown #
coedge $-1 $284 $285 $113 $190 forward $271 $-1 #
edge $-1 $193 -46.82638019959105 $286 46.82638019959105 $189 $287 forward 7 unknown #
coedge $-1 $277 $114 $285 $288 forward $180 $-1 #
vertex $-1 $115 $289 #
vertex $-1 $288 $290 #
straight-curve $-1 46.82638019959105 -7.9319392585434318 -3.2029163574090802 0 -1 0 I I #
face $-1 $-1 $207 $26 $-1 $291 forward single #
loop $-1 $-1 $292 $116 #
plane-surface $-1 46.82638019959105 0 0 -1 0 0 0 0 1 forward_v I I I I #
coedge $-1 $293 $294 $295 $296 reversed $117 $-1 #
coedge $-1 $297 $119 $121 $205 forward $73 $-1 #
coedge $-1 $119 $297 $293 $298 forward $73 $-1 #
coedge $-1 $295 $122 $119 $202 forward $207 $-1 #
edge $-1 $209 -0.51472598572541539 $299 7.0987118575327708 $201 $300 forward 7 unknown #
coedge $-1 $301 $302 $120 $204 forward $196 $-1 #
edge $-1 $303 -65.012523842047074 $208 -60.725570603677696 $203 $304 forward 7 unknown #
edge $-1 $209 86.983445183587065 $303 93.652760399182085 $121 $305 forward 7 unknown #
coedge $-1 $122 $295 $301 $306 forward $207 $-1 #
loop $-1 $-1 $295 $195 #
vertex $-1 $204 $307 #
vertex $-1 $123 $308 #
straight-curve $-1 17.641519435669327 -2.7772669501782623 6.2029163574090802 -1 0 0 I I #
coedge $-1 $211 $211 $-1 $309 reversed $126 $-1 #
edge $-1 $310 0 $310 6.2831853071796004 $127 $311 forward 7 unknown #
vertex $-1 $130 $312 #
ellipse-curve $-1 44.271884291539848 -8.2154368382198228 4.0594397382243805 0.64278761758704617 0 0.76604443648966558 0.38302221824483279 0 -0.32139380879352308 1 I I #
coedge $-1 $215 $215 $-1 $313 reversed $133 $-1 #
edge $-1 $314 0 $314 6.2831853071796004 $134 $315 forward 7 unknown #
vertex $-1 $137 $316 #
ellipse-curve $-1 44.271884291539848 -4.9525349053948862 4.0594397382243805 0.64278761758704617 0 0.76604443648966558 0.38302221824483279 0 -0.32139380879352308 1 I I #
face $-1 $-1 $231 $29 $-1 $317 forward single #
loop $-1 $-1 $318 $138 #
plane-surface $-1 46.82638019959105 0 0 -1 0 0 0 0 1 forward_v I I I I #
coedge $-1 $319 $320 $321 $322 reversed $139 $-1 #
coedge $-1 $323 $141 $143 $229 forward $87 $-1 #
coedge $-1 $141 $323 $319 $324 forward $87 $-1 #
coedge $-1 $321 $144 $141 $226 forward $231 $-1 #
edge $-1 $233 -8.4466652442688464 $325 -0.83322740101066017 $225 $326 forward 7 unknown #
coedge $-1 $327 $328 $142 $228 forward $220 $-1 #
edge $-1 $329 -65.012523842047074 $232 -60.725570603677696 $227 $330 forward 7 unknown #
edge $-1 $233 86.983445183587065 $329 93.652760399182085 $143 $331 forward 7 unknown #
coedge $-1 $144 $321 $327 $332 forward $231 $-1 #
loop $-1 $-1 $321 $219 #
vertex $-1 $228 $333 #
vertex $-1 $145 $334 #
straight-curve $-1 17.641519435669327 13.0866115669086 6.2029163574090802 -1 0 0 I I #
coedge $-1 $235 $235 $-1 $335 reversed $148 $-1 #
edge $-1 $336 0 $336 6.2831853071796004 $149 $337 forward 7 unknown #
vertex $-1 $152 $338 #
ellipse-curve $-1 44.271884291539848 7.6484416788670408 4.0594397382243805 0.64278761758704617 0 0.76604443648966558 0.38302221824483279 0 -0.32139380879352308 1 I I #
coedge $-1 $239 $239 $-1 $339 reversed $155 $-1 #
edge $-1 $340 0 $340 6.2831853071796004 $156 $341 forward 7 unknown #
vertex $-1 $159 $342 #
ellipse-curve $-1 44.271884291539848 10.911343611691979 4.0594397382243805 0.64278761758704617 0 0.76604443648966558 0.38302221824483279 0 -0.32139380879352308 1 I I #
face $-1 $-1 $175 $24 $-1 $343 reversed single #
loop $-1 $-1 $259 $160 #
plane-surface $-1 0 19.126261930517497 0 0 -1 0 0 0 -1 forward_v I I I I #
coedge $-1 $344 $257 $260 $345 forward $161 $-1 #
coedge $-1 $263 $163 $164 $251 reversed $101 $-1 #
coedge $-1 $257 $344 $163 $249 reversed $161 $-1 #
edge $-1 $264 -6.2029163574090802 $346 6.2029163574090802 $248 $347 forward 7 unknown #
coedge $-1 $165 $164 $344 $348 forward $65 $-1 #
edge $-1 $255 -46.82638019959105 $346 46.82638019959105 $247 $349 forward 7 unknown #
coedge $-1 $260 $259 $165 $253 reversed $244 $-1 #
edge $-1 $350 -46.82638019959105 $254 46.82638019959105 $252 $351 forward 7 unknown #
vertex $-1 $167 $352 #
vertex $-1 $266 $353 #
straight-curve $-1 46.82638019959105 0 -6.2029163574090802 0 -1 0 I I #
coedge $-1 $246 $248 $168 $258 reversed $161 $-1 #
edge $-1 $261 -19.126261930517497 $264 19.126261930517497 $257 $354 forward 7 unknown #
coedge $-1 $252 $169 $174 $267 forward $244 $-1 #
coedge $-1 $169 $252 $246 $345 reversed $244 $-1 #
vertex $-1 $170 $355 #
straight-curve $-1 0 19.126261930517497 6.2029163574090802 -1 0 0 I I #
coedge $-1 $171 $247 $173 $266 reversed $101 $-1 #
vertex $-1 $258 $356 #
straight-curve $-1 0 -19.126261930517497 6.2029163574090802 1 0 0 I I #
edge $-1 $176 -6.2029163574090802 $255 6.2029163574090802 $173 $357 forward 7 unknown #
edge $-1 $177 -6.2029163574090802 $254 6.2029163574090802 $174 $358 forward 7 unknown #
point $-1 46.82638019959105 -19.126261930517497 6.2029163574090802 #
point $-1 46.82638019959105 19.126261930517497 6.2029163574090802 #
face $-1 $-1 $359 $25 $-1 $360 reversed single #
loop $-1 $-1 $189 $179 #
plane-surface $-1 0 -19.126261930517497 0 0 1 0 0 0 1 forward_v I I I I #
coedge $-1 $361 $182 $277 $362 forward $109 $-1 #
coedge $-1 $182 $361 $363 $364 forward $109 $-1 #
edge $-1 $365 -46.82638019959105 $278 46.82638019959105 $182 $366 forward 7 unknown #
coedge $-1 $184 $183 $367 $368 reversed $69 $-1 #
coedge $-1 $185 $191 $273 $362 reversed $180 $-1 #
vertex $-1 $362 $369 #
straight-curve $-1 46.82638019959105 -12.60149510365623 -2.3514581787045401 0 0 1 I I #
coedge $-1 $367 $370 $187 $281 forward $359 $-1 #
edge $-1 $286 -11.194322671974065 $282 -4.6695558451127983 $280 $371 forward 7 unknown #
vertex $-1 $281 $372 #
straight-curve $-1 0 -12.60149510365623 -3.2029163574090802 -1 0 0 I I #
coedge $-1 $373 $189 $370 $374 forward $271 $-1 #
coedge $-1 $189 $373 $191 $288 reversed $271 $-1 #
vertex $-1 $374 $375 #
straight-curve $-1 0 -19.126261930517497 -3.2029163574090802 -1 0 0 I I #
edge $-1 $193 3.2029163574090802 $376 6.2029163574090802 $191 $377 forward 7 unknown #
point $-1 46.82638019959105 -12.60149510365623 -3.2029163574090802 #
point $-1 46.82638019959105 -19.126261930517497 -3.2029163574090802 #
plane-surface $-1 0 0 6.2029163574090802 0 0 1 1 0 0 forward_v I I I I #
coedge $-1 $302 $301 $294 $378 forward $196 $-1 #
coedge $-1 $294 $198 $200 $298 reversed $117 $-1 #
coedge $-1 $198 $293 $292 $378 reversed $117 $-1 #
coedge $-1 $206 $201 $198 $296 forward $207 $-1 #
edge $-1 $299 24.07586894781927 $379 29.184860763921723 $295 $380 forward 7 unknown #
coedge $-1 $200 $199 $302 $381 reversed $73 $-1 #
edge $-1 $382 -93.652760399182085 $299 -86.983445183587065 $293 $383 forward 7 unknown #
vertex $-1 $202 $384 #
straight-curve $-1 41.717388383488597 -3.2919929359036777 6.2029163574090802 0 -1 0 I I #
coedge $-1 $292 $203 $206 $306 reversed $196 $-1 #
coedge $-1 $203 $292 $297 $381 forward $196 $-1 #
vertex $-1 $204 $385 #
straight-curve $-1 46.82638019959105 -2.7772669501782623 66.928486961086776 0 0 1 I I #
straight-curve $-1 -24.915795866102073 -2.7772669501782623 62.114797856480436 0.76604443648966558 0 -0.64278761758704617 I I #
edge $-1 $379 -10.390704793436448 $208 -2.7772669501782623 $301 $386 forward 7 unknown #
point $-1 46.82638019959105 -2.7772669501782623 6.2029163574090802 #
point $-1 41.717388383488597 -2.7772669501782623 6.2029163574090802 #
edge $-1 $387 1 $387 0 $211 $-1 forward 7 unknown #
vertex $-1 $212 $388 #
ellipse-curve $-1 42.995901730244974 -8.2154368382198228 2.5387829685637584 0.64278761758704617 0 0.76604443648966558 0.38302221824483279 0 -0.32139380879352308 1 I I #
point $-1 44.654906509784695 -8.2154368382198228 3.738045929430879 #
edge $-1 $389 1 $389 0 $215 $-1 forward 7 unknown #
vertex $-1 $216 $390 #
ellipse-curve $-1 42.995901730244974 -4.9525349053948862 2.5387829685637584 0.64278761758704617 0 0.76604443648966558 0.38302221824483279 0 -0.32139380879352308 1 I I #
point $-1 44.654906509784695 -4.9525349053948862 3.738045929430879 #
plane-surface $-1 0 0 6.2029163574090802 0 0 1 1 0 0 forward_v I I I I #
coedge $-1 $328 $327 $320 $391 forward $220 $-1 #
coedge $-1 $320 $222 $224 $324 reversed $139 $-1 #
coedge $-1 $222 $319 $318 $391 reversed $139 $-1 #
coedge $-1 $230 $225 $222 $322 forward $231 $-1 #
edge $-1 $325 24.07586894781927 $392 29.184860763921723 $321 $393 forward 7 unknown #
coedge $-1 $224 $223 $328 $394 reversed $87 $-1 #
edge $-1 $395 -93.652760399182085 $325 -86.983445183587065 $319 $396 forward 7 unknown #
vertex $-1 $226 $397 #
straight-curve $-1 41.717388383488597 4.6399463226397533 6.2029163574090802 0 -1 0 I I #
coedge $-1 $318 $227 $230 $332 reversed $220 $-1 #
coedge $-1 $227 $318 $323 $394 forward $220 $-1 #
vertex $-1 $228 $398 #
straight-curve $-1 46.82638019959105 13.0866115669086 66.928486961086776 0 0 1 I I #
straight-curve $-1 -24.915795866102073 13.0866115669086 62.114797856480436 0.76604443648966558 0 -0.64278761758704617 I I #
edge $-1 $392 5.4731737236504134 $232 13.0866115669086 $327 $399 forward 7 unknown #
point $-1 46.82638019959105 13.0866115669086 6.2029163574090802 #
point $-1 41.717388383488597 13.0866115669086 6.2029163574090802 #
edge $-1 $400 1 $400 0 $235 $-1 forward 7 unknown #
vertex $-1 $236 $401 #
ellipse-curve $-1 42.995901730244974 7.6484416788670408 2.5387829685637584 0.64278761758704617 0 0.76604443648966558 0.38302221824483279 0 -0.32139380879352308 1 I I #
point $-1 44.654906509784695 7.6484416788670408 3.738045929430879 #
edge $-1 $402 1 $402 0 $239 $-1 forward 7 unknown #
vertex $-1 $240 $403 #
ellipse-curve $-1 42.995901730244974 10.911343611691979 2.5387829685637584 0.64278761758704617 0 0.76604443648966558 0.38302221824483279 0 -0.32139380879352308 1 I I #
point $-1 44.654906509784695 10.911343611691979 3.738045929430879 #
plane-surface $-1 46.82638019959105 0 0 -1 0 0 0 0 1 forward_v I I I I #
coedge $-1 $248 $246 $250 $348 reversed $161 $-1 #
edge $-1 $261 -6.2029163574090802 $350 6.2029163574090802 $260 $404 forward 7 unknown #
vertex $-1 $348 $405 #
straight-curve $-1 -46.82638019959105 -19.126261930517497 0 0 0 -1 I I #
edge $-1 $346 -19.126261930517497 $350 19.126261930517497 $344 $406 forward 7 unknown #
straight-curve $-1 0 -19.126261930517497 -6.2029163574090802 -1 0 0 I I #
vertex $-1 $253 $407 #
straight-curve $-1 0 19.126261930517497 -6.2029163574090802 1 0 0 I I #
point $-1 46.82638019959105 19.126261930517497 -6.2029163574090802 #
point $-1 46.82638019959105 -19.126261930517497 -6.2029163574090802 #
straight-curve $-1 -46.82638019959105 0 6.2029163574090802 0 -1 0 I I #
point $-1 -46.82638019959105 19.126261930517497 6.2029163574090802 #
point $-1 -46.82638019959105 -19.126261930517497 6.2029163574090802 #
straight-curve $-1 46.82638019959105 -19.126261930517497 0 0 0 -1 I I #
straight-curve $-1 46.82638019959105 19.126261930517497 0 0 0 -1 I I #
loop $-1 $-1 $367 $270 #
plane-surface $-1 -46.82638019959105 0 0 1 0 0 0 0 -1 forward_v I I I I #
coedge $-1 $274 $273 $373 $408 forward $109 $-1 #
edge $-1 $278 12.60149510365623 $376 19.126261930517497 $277 $409 forward 7 unknown #
coedge $-1 $370 $367 $274 $364 reversed $359 $-1 #
edge $-1 $410 -19.126261930517497 $365 -12.60149510365623 $363 $411 forward 7 unknown #
vertex $-1 $368 $412 #
straight-curve $-1 0 -12.60149510365623 -6.2029163574090802 1 0 0 I I #
coedge $-1 $363 $280 $276 $368 forward $359 $-1 #
edge $-1 $282 0.8514581787045401 $365 3.8514581787045401 $367 $413 forward 7 unknown #
point $-1 46.82638019959105 -12.60149510365623 -6.2029163574090802 #
coedge $-1 $280 $363 $284 $374 reversed $359 $-1 #
straight-curve $-1 -46.82638019959105 -7.9319392585434318 -3.2029163574090802 0 1 0 I I #
point $-1 -46.82638019959105 -12.60149510365623 -3.2029163574090802 #
coedge $-1 $285 $284 $361 $408 reversed $271 $-1 #
edge $-1 $286 3.2029163574090802 $410 6.2029163574090802 $370 $414 forward 7 unknown #
point $-1 -46.82638019959105 -19.126261930517497 -3.2029163574090802 #
vertex $-1 $288 $415 #
straight-curve $-1 46.82638019959105 -19.126261930517497 0 0 0 -1 I I #
edge $-1 $379 60.725570603677696 $382 65.012523842047074 $292 $416 forward 7 unknown #
vertex $-1 $306 $417 #
straight-curve $-1 17.641519435669327 -10.390704793436448 6.2029163574090802 1 0 0 I I #
edge $-1 $382 -7.0987118575327708 $303 0.51472598572541539 $302 $418 forward 7 unknown #
vertex $-1 $381 $419 #
straight-curve $-1 -24.915795866102073 -10.390704793436448 62.114797856480436 -0.76604443648966558 0 0.64278761758704617 I I #
point $-1 41.717388383488597 -10.390704793436448 6.2029163574090802 #
point $-1 46.826380199591043 -2.7772669501782623 1.9159631190397093 #
straight-curve $-1 46.82638019959105 0 6.2029163574090802 0 1 0 I I #
vertex $-1 $309 $420 #
point $-1 43.378923948489813 -8.2154368382198228 2.2173891597702355 #
vertex $-1 $313 $421 #
point $-1 43.378923948489813 -4.9525349053948862 2.2173891597702355 #
edge $-1 $392 60.725570603677696 $395 65.012523842047074 $318 $422 forward 7 unknown #
vertex $-1 $332 $423 #
straight-curve $-1 17.641519435669327 5.4731737236504134 6.2029163574090802 1 0 0 I I #
edge $-1 $395 0.83322740101066017 $329 8.4466652442688464 $328 $424 forward 7 unknown #
vertex $-1 $394 $425 #
straight-curve $-1 -24.915795866102073 5.4731737236504134 62.114797856480436 -0.76604443648966558 0 0.64278761758704617 I I #
point $-1 41.717388383488597 5.4731737236504134 6.2029163574090802 #
point $-1 46.826380199591043 13.0866115669086 1.9159631190397093 #
straight-curve $-1 46.82638019959105 0 6.2029163574090802 0 1 0 I I #
vertex $-1 $335 $426 #
point $-1 43.378923948489813 7.6484416788670408 2.2173891597702355 #
vertex $-1 $339 $427 #
point $-1 43.378923948489813 10.911343611691979 2.2173891597702355 #
straight-curve $-1 -46.82638019959105 19.126261930517497 0 0 0 -1 I I #
point $-1 -46.82638019959105 -19.126261930517497 -6.2029163574090802 #
straight-curve $-1 -46.82638019959105 0 -6.2029163574090802 0 1 0 I I #
point $-1 -46.82638019959105 19.126261930517497 -6.2029163574090802 #
edge $-1 $376 -46.82638019959105 $410 46.82638019959105 $373 $428 forward 7 unknown #
straight-curve $-1 46.82638019959105 0 -6.2029163574090802 0 -1 0 I I #
vertex $-1 $364 $429 #
straight-curve $-1 -46.82638019959105 0 -6.2029163574090802 0 1 0 I I #
point $-1 -46.82638019959105 -12.60149510365623 -6.2029163574090802 #
straight-curve $-1 -46.82638019959105 -12.60149510365623 -2.3514581787045401 0 0 -1 I I #
straight-curve $-1 -46.82638019959105 -19.126261930517497 0 0 0 -1 I I #
point $-1 46.82638019959105 -19.126261930517497 -6.2029163574090802 #
straight-curve $-1 46.82638019959105 -10.390704793436448 66.928486961086776 0 0 -1 I I #
point $-1 46.82638019959105 -10.390704793436448 6.2029163574090802 #
straight-curve $-1 46.82638019959105 -3.2919929359036777 1.9159631190397093 0 1 0 I I #
point $-1 46.826380199591043 -10.390704793436448 1.9159631190397093 #
point $-1 42.674507921451458 -8.2154368382198228 2.155760750318926 #
point $-1 42.674507921451458 -4.9525349053948862 2.155760750318926 #
straight-curve $-1 46.82638019959105 5.4731737236504134 66.928486961086776 0 0 -1 I I #
point $-1 46.82638019959105 5.4731737236504134 6.2029163574090802 #
straight-curve $-1 46.82638019959105 4.6399463226397533 1.9159631190397093 0 1 0 I I #
point $-1 46.826380199591043 5.4731737236504134 1.9159631190397093 #
point $-1 42.674507921451458 7.6484416788670408 2.155760750318926 #
point $-1 42.674507921451458 10.911343611691979 2.155760750318926 #
straight-curve $-1 0 -19.126261930517497 -6.2029163574090802 -1 0 0 I I #
point $-1 -46.82638019959105 -19.126261930517497 -6.2029163574090802 #
End-of-ACIS-data 