500 0 14 0           
7 Unknown 11 ACIS 5.0 NT 24 Fri Mar 26 19:26:56 1999 
-1 9.9999999999999995e-007 1e-010 
body $-1 $14 $-1 $15 #
body $-1 $16 $-1 $17 #
body $-1 $18 $-1 $19 #
body $-1 $20 $-1 $21 #
body $-1 $22 $-1 $23 #
body $-1 $24 $-1 $25 #
body $-1 $26 $-1 $27 #
body $-1 $28 $-1 $29 #
body $-1 $30 $-1 $31 #
body $-1 $32 $-1 $33 #
body $-1 $34 $-1 $35 #
body $-1 $36 $-1 $37 #
body $-1 $38 $-1 $39 #
body $-1 $40 $-1 $41 #
lump $-1 $-1 $42 $0 #
transform $-1 1 0 0 0 1 0 0 0 1 49.156773583178193 29.045056845806897 14.418552313768856 1 rotate no_reflect no_shear #
lump $-1 $-1 $43 $1 #
transform $-1 1 0 0 0 1 0 0 0 1 49.156773583178193 29.045056845806897 14.418552313768856 1 rotate no_reflect no_shear #
lump $-1 $-1 $44 $2 #
transform $-1 1 0 0 0 1 0 0 0 1 49.156773583178193 29.045056845806897 14.418552313768856 1 rotate no_reflect no_shear #
lump $-1 $-1 $45 $3 #
transform $-1 1 0 0 0 1 0 0 0 1 49.156773583178193 29.045056845806897 14.418552313768856 1 rotate no_reflect no_shear #
lump $-1 $-1 $46 $4 #
transform $-1 1 0 0 0 1 0 0 0 1 49.156773583178193 29.045056845806897 14.418552313768856 1 rotate no_reflect no_shear #
lump $-1 $-1 $47 $5 #
transform $-1 1 0 0 0 1 0 0 0 1 49.156773583178193 29.045056845806897 14.418552313768856 1 rotate no_reflect no_shear #
lump $-1 $-1 $48 $6 #
transform $-1 1 0 0 0 1 0 0 0 1 49.156773583178193 29.045056845806897 14.418552313768856 1 rotate no_reflect no_shear #
lump $-1 $-1 $49 $7 #
transform $-1 1 0 0 0 1 0 0 0 1 49.156773583178193 29.045056845806897 14.418552313768856 1 rotate no_reflect no_shear #
lump $-1 $-1 $50 $8 #
transform $-1 1 0 0 0 1 0 0 0 1 49.156773583178193 29.045056845806897 14.418552313768856 1 rotate no_reflect no_shear #
lump $-1 $-1 $51 $9 #
transform $-1 1 0 0 0 1 0 0 0 1 49.156773583178193 29.045056845806897 14.418552313768856 1 rotate no_reflect no_shear #
lump $-1 $-1 $52 $10 #
transform $-1 1 0 0 0 1 0 0 0 1 49.156773583178193 29.045056845806897 14.418552313768856 1 rotate no_reflect no_shear #
lump $-1 $-1 $53 $11 #
transform $-1 1 0 0 0 1 0 0 0 1 49.156773583178193 29.045056845806897 14.418552313768856 1 rotate no_reflect no_shear #
lump $-1 $-1 $54 $12 #
transform $-1 1 0 0 0 1 0 0 0 1 49.156773583178193 29.045056845806897 14.418552313768856 1 rotate no_reflect no_shear #
lump $-1 $-1 $55 $13 #
transform $-1 1 0 0 0 1 0 0 0 1 49.156773583178193 29.045056845806897 14.418552313768856 1 rotate no_reflect no_shear #
shell $-1 $-1 $-1 $56 $-1 $14 #
shell $-1 $-1 $-1 $57 $-1 $16 #
shell $-1 $-1 $-1 $58 $-1 $18 #
shell $-1 $-1 $-1 $59 $-1 $20 #
shell $-1 $-1 $-1 $60 $-1 $22 #
shell $-1 $-1 $-1 $61 $-1 $24 #
shell $-1 $-1 $-1 $62 $-1 $26 #
shell $-1 $-1 $-1 $63 $-1 $28 #
shell $-1 $-1 $-1 $64 $-1 $30 #
shell $-1 $-1 $-1 $65 $-1 $32 #
shell $-1 $-1 $-1 $66 $-1 $34 #
shell $-1 $-1 $-1 $67 $-1 $36 #
shell $-1 $-1 $-1 $68 $-1 $38 #
shell $-1 $-1 $-1 $69 $-1 $40 #
face $-1 $70 $71 $42 $-1 $72 forward single #
face $-1 $73 $74 $43 $-1 $75 forward single #
face $-1 $76 $77 $44 $-1 $78 reversed single #
face $-1 $79 $80 $45 $-1 $81 forward single #
face $-1 $82 $83 $46 $-1 $84 forward single #
face $-1 $85 $86 $47 $-1 $87 forward single #
face $-1 $88 $89 $48 $-1 $90 reversed single #
face $-1 $91 $92 $49 $-1 $93 forward single #
face $-1 $94 $95 $50 $-1 $96 forward single #
face $-1 $97 $98 $51 $-1 $99 forward single #
face $-1 $100 $101 $52 $-1 $102 reversed single #
face $-1 $103 $104 $53 $-1 $105 forward single #
face $-1 $106 $107 $54 $-1 $108 reversed single #
face $-1 $109 $110 $55 $-1 $111 forward single #
face $-1 $112 $113 $42 $-1 $114 reversed single #
loop $-1 $-1 $115 $56 #
plane-surface $-1 0 0 14.418552313768856 0 0 1 1 0 0 forward_v I I I I #
face $-1 $116 $117 $43 $-1 $118 reversed single #
loop $-1 $-1 $119 $57 #
plane-surface $-1 0 -22.492709945026128 -10.159475564448847 0 0 1 1 0 0 forward_v I I I I #
face $-1 $120 $121 $44 $-1 $122 reversed single #
loop $-1 $-1 $123 $58 #
plane-surface $-1 13.171518822938026 1.5043109390633216 144.88763135148548 0 -1 0 -0.50000000669873634 0 -0.8660253999169214 forward_v I I I I #
face $-1 $124 $125 $45 $-1 $126 forward single #
loop $-1 $127 $128 $59 #
cone-surface $-1 45.482927476750341 -6.9641507794406436 11.88498831271454 -0.50000000669873634 0 -0.8660253999169214 0.4330126999584607 0 -0.25000000334936817 1 I I 0 1 0.5 forward I I I I #
face $-1 $129 $130 $46 $-1 $131 forward single #
loop $-1 $132 $133 $60 #
cone-surface $-1 45.482927476750341 -3.7884776350016587 11.88498831271454 -0.50000000669873634 0 -0.8660253999169214 0.4330126999584607 0 -0.25000000334936817 1 I I 0 1 0.5 forward I I I I #
face $-1 $134 $135 $47 $-1 $136 forward single #
loop $-1 $137 $138 $61 #
cone-surface $-1 45.482927476750341 -0.61280449056267372 11.88498831271454 -0.50000000669873634 0 -0.8660253999169214 0.4330126999584607 0 -0.25000000334936817 1 I I 0 1 0.5 forward I I I I #
face $-1 $139 $140 $48 $-1 $141 reversed single #
loop $-1 $-1 $142 $62 #
plane-surface $-1 13.171518822938026 23.997020884089451 144.88763135148548 0 -1 0 -0.50000000669873634 0 -0.8660253999169214 forward_v I I I I #
face $-1 $143 $144 $49 $-1 $145 forward single #
loop $-1 $146 $147 $63 #
cone-surface $-1 45.482927476750341 15.528559165585484 11.88498831271454 -0.50000000669873634 0 -0.8660253999169214 0.4330126999584607 0 -0.25000000334936817 1 I I 0 1 0.5 forward I I I I #
face $-1 $148 $149 $50 $-1 $150 forward single #
loop $-1 $151 $152 $64 #
cone-surface $-1 45.482927476750341 18.704232310024466 11.88498831271454 -0.50000000669873634 0 -0.8660253999169214 0.4330126999584607 0 -0.25000000334936817 1 I I 0 1 0.5 forward I I I I #
face $-1 $153 $154 $51 $-1 $155 forward single #
loop $-1 $156 $157 $65 #
cone-surface $-1 45.482927476750341 21.879905454463454 11.88498831271454 -0.50000000669873634 0 -0.8660253999169214 0.4330126999584607 0 -0.25000000334936817 1 I I 0 1 0.5 forward I I I I #
face $-1 $158 $159 $52 $-1 $160 reversed single #
loop $-1 $-1 $161 $66 #
plane-surface $-1 -111.02749429968985 -15.940363044245363 77.558131991130125 0 1 0 -0.62932039886446345 0 0.77714595512881146 forward_v I I I I #
face $-1 $162 $163 $53 $-1 $164 forward single #
loop $-1 $165 $166 $67 #
cone-surface $-1 -40.505941366084407 -11.277050606977625 7.2173754997617481 0.62932039886446345 0 -0.77714595512881146 0.77714595512881146 0 0.62932039886446345 1 I I 0 1 1 forward I I I I #
face $-1 $167 $168 $54 $-1 $169 reversed single #
loop $-1 $-1 $170 $68 #
plane-surface $-1 -111.02749429968985 19.718431971271418 77.558131991130125 0 1 0 -0.62932039886446345 0 0.77714595512881146 forward_v I I I I #
face $-1 $171 $172 $55 $-1 $173 forward single #
loop $-1 $174 $175 $69 #
cone-surface $-1 -40.505941366084407 24.381744408539156 7.2173754997617481 0.62932039886446345 0 -0.77714595512881146 0.77714595512881146 0 0.62932039886446345 1 I I 0 1 1 forward I I I I #
face $-1 $176 $177 $42 $-1 $178 reversed single #
loop $-1 $-1 $179 $70 #
plane-surface $-1 0 0 -14.418552313768856 0 0 1 1 0 0 forward_v I I I I #
coedge $-1 $180 $181 $182 $183 forward $71 $-1 #
face $-1 $184 $185 $43 $-1 $186 reversed single #
loop $-1 $-1 $187 $73 #
plane-surface $-1 0 -15.940363044245361 -12.289013939108852 0 -1 0 0 0 -1 forward_v I I I I #
coedge $-1 $188 $189 $190 $191 reversed $74 $-1 #
face $-1 $192 $193 $44 $-1 $194 reversed single #
loop $-1 $-1 $195 $76 #
plane-surface $-1 -35.985255418816699 -3.7884776350016551 59.745602349490582 0.50000000669873634 0 0.8660253999169214 0.8660253999169214 0 -0.50000000669873634 forward_v I I I I #
coedge $-1 $196 $197 $198 $199 reversed $77 $-1 #
face $-1 $-1 $200 $45 $-1 $201 forward single #
loop $-1 $202 $203 $79 #
cone-surface $-1 45.000719761314485 -6.9641507794406436 11.04978006469749 -0.50000000669873634 0 -0.8660253999169214 0.21650634997923035 0 -0.12500000167468409 1 I I -0.70710678118654746 0.70710678118654746 0.25 forward I I I I #
loop $-1 $-1 $204 $59 #
coedge $-1 $128 $128 $205 $206 reversed $80 $-1 #
face $-1 $-1 $207 $46 $-1 $208 forward single #
loop $-1 $209 $210 $82 #
cone-surface $-1 45.000719761314485 -3.7884776350016587 11.04978006469749 -0.50000000669873634 0 -0.8660253999169214 0.21650634997923035 0 -0.12500000167468409 1 I I -0.70710678118654746 0.70710678118654746 0.25 forward I I I I #
loop $-1 $-1 $211 $60 #
coedge $-1 $133 $133 $212 $213 reversed $83 $-1 #
face $-1 $-1 $214 $47 $-1 $215 forward single #
loop $-1 $216 $217 $85 #
cone-surface $-1 45.000719761314485 -0.61280449056267372 11.04978006469749 -0.50000000669873634 0 -0.8660253999169214 0.21650634997923035 0 -0.12500000167468409 1 I I -0.70710678118654746 0.70710678118654746 0.25 forward I I I I #
loop $-1 $-1 $218 $61 #
coedge $-1 $138 $138 $219 $220 reversed $86 $-1 #
face $-1 $221 $222 $48 $-1 $223 reversed single #
loop $-1 $-1 $224 $88 #
plane-surface $-1 -35.985255418816699 18.704232310024473 59.745602349490582 0.50000000669873634 0 0.8660253999169214 0.8660253999169214 0 -0.50000000669873634 forward_v I I I I #
coedge $-1 $225 $226 $227 $228 reversed $89 $-1 #
face $-1 $-1 $229 $49 $-1 $230 forward single #
loop $-1 $231 $232 $91 #
cone-surface $-1 45.000719761314485 15.528559165585484 11.04978006469749 -0.50000000669873634 0 -0.8660253999169214 0.21650634997923035 0 -0.12500000167468409 1 I I -0.70710678118654746 0.70710678118654746 0.25 forward I I I I #
loop $-1 $-1 $233 $63 #
coedge $-1 $147 $147 $234 $235 reversed $92 $-1 #
face $-1 $-1 $236 $50 $-1 $237 forward single #
loop $-1 $238 $239 $94 #
cone-surface $-1 45.000719761314485 18.704232310024466 11.04978006469749 -0.50000000669873634 0 -0.8660253999169214 0.21650634997923035 0 -0.12500000167468409 1 I I -0.70710678118654746 0.70710678118654746 0.25 forward I I I I #
loop $-1 $-1 $240 $64 #
coedge $-1 $152 $152 $241 $242 reversed $95 $-1 #
face $-1 $-1 $243 $51 $-1 $244 forward single #
loop $-1 $245 $246 $97 #
cone-surface $-1 45.000719761314485 21.879905454463454 11.04978006469749 -0.50000000669873634 0 -0.8660253999169214 0.21650634997923035 0 -0.12500000167468409 1 I I -0.70710678118654746 0.70710678118654746 0.25 forward I I I I #
loop $-1 $-1 $247 $65 #
coedge $-1 $157 $157 $248 $249 reversed $98 $-1 #
face $-1 $250 $251 $52 $-1 $252 reversed single #
loop $-1 $-1 $253 $100 #
plane-surface $-1 -49.156773583178207 -11.277050606977625 1.1541564764306287 -0.62932039886446345 0 0.77714595512881146 0.77714595512881146 0 0.62932039886446345 forward_v I I I I #
coedge $-1 $254 $255 $256 $257 reversed $101 $-1 #
face $-1 $-1 $258 $53 $-1 $259 forward single #
loop $-1 $260 $261 $103 #
cone-surface $-1 -39.730531132509334 -11.277050606977625 6.2598236268593439 0.62932039886446345 0 -0.77714595512881146 0.38857297756440573 0 0.31466019943223172 1 I I -0.70710678118654746 0.70710678118654746 0.5 forward I I I I #
loop $-1 $-1 $262 $67 #
coedge $-1 $166 $166 $263 $264 reversed $104 $-1 #
face $-1 $265 $266 $54 $-1 $267 forward single #
loop $-1 $-1 $268 $106 #
plane-surface $-1 -49.156773583178207 24.381744408539156 1.1541564764306287 -0.62932039886446345 0 0.77714595512881146 0.77714595512881146 0 0.62932039886446345 forward_v I I I I #
coedge $-1 $269 $270 $271 $272 reversed $107 $-1 #
face $-1 $-1 $273 $55 $-1 $274 forward single #
loop $-1 $275 $276 $109 #
cone-surface $-1 -39.730531132509334 24.381744408539156 6.2598236268593439 0.62932039886446345 0 -0.77714595512881146 0.38857297756440573 0 0.31466019943223172 1 I I -0.70710678118654746 0.70710678118654746 0.5 forward I I I I #
loop $-1 $-1 $277 $69 #
coedge $-1 $175 $175 $278 $279 reversed $110 $-1 #
face $-1 $280 $281 $42 $-1 $282 reversed single #
loop $-1 $-1 $283 $112 #
plane-surface $-1 0 -29.045056845806897 0 0 1 0 0 0 1 forward_v I I I I #
coedge $-1 $284 $285 $286 $287 forward $113 $-1 #
coedge $-1 $288 $115 $289 $290 forward $71 $-1 #
coedge $-1 $115 $288 $291 $292 forward $71 $-1 #
coedge $-1 $293 $294 $115 $183 reversed $295 $-1 #
edge $-1 $296 -29.045056845806897 $297 29.045056845806897 $182 $298 forward 7 unknown #
face $-1 $299 $300 $43 $-1 $301 reversed single #
loop $-1 $-1 $302 $116 #
plane-surface $-1 0 0 -14.418552313768856 0 0 1 1 0 0 forward_v I I I I #
coedge $-1 $303 $304 $305 $306 reversed $117 $-1 #
coedge $-1 $307 $119 $304 $308 forward $74 $-1 #
coedge $-1 $119 $307 $309 $310 reversed $74 $-1 #
coedge $-1 $311 $305 $119 $191 forward $300 $-1 #
edge $-1 $312 4.6940080717322967 $313 17.798701873293833 $190 $314 forward 7 unknown #
face $-1 $315 $316 $44 $-1 $317 reversed single #
loop $-1 $-1 $318 $120 #
plane-surface $-1 13.171518822938026 -9.0812662090666318 144.88763135148548 0 1 0 0.50000000669873634 0 0.8660253999169214 forward_v I I I I #
coedge $-1 $319 $320 $321 $322 reversed $121 $-1 #
coedge $-1 $197 $123 $323 $324 reversed $77 $-1 #
coedge $-1 $123 $196 $319 $325 reversed $77 $-1 #
coedge $-1 $321 $326 $123 $199 forward $327 $-1 #
edge $-1 $328 -42.57101417170918 $329 -35.937737386375851 $198 $330 forward 7 unknown #
loop $-1 $-1 $205 $124 #
plane-surface $-1 -35.985255418816699 -3.7884776350016551 59.745602349490582 0.50000000669873634 0 0.8660253999169214 0.8660253999169214 0 -0.50000000669873634 forward_v I I I I #
loop $-1 $-1 $331 $79 #
coedge $-1 $203 $203 $204 $332 reversed $125 $-1 #
coedge $-1 $204 $204 $203 $332 forward $127 $-1 #
coedge $-1 $205 $205 $128 $206 forward $200 $-1 #
edge $-1 $333 0 $333 6.2831853071796004 $205 $334 forward 7 unknown #
loop $-1 $-1 $212 $129 #
plane-surface $-1 -35.985255418816699 -3.7884776350016551 59.745602349490582 0.50000000669873634 0 0.8660253999169214 0.8660253999169214 0 -0.50000000669873634 forward_v I I I I #
loop $-1 $-1 $335 $82 #
coedge $-1 $210 $210 $211 $336 reversed $130 $-1 #
coedge $-1 $211 $211 $210 $336 forward $132 $-1 #
coedge $-1 $212 $212 $133 $213 forward $207 $-1 #
edge $-1 $337 0 $337 6.2831853071796004 $212 $338 forward 7 unknown #
loop $-1 $-1 $219 $134 #
plane-surface $-1 -35.985255418816699 -3.7884776350016551 59.745602349490582 0.50000000669873634 0 0.8660253999169214 0.8660253999169214 0 -0.50000000669873634 forward_v I I I I #
loop $-1 $-1 $339 $85 #
coedge $-1 $217 $217 $218 $340 reversed $135 $-1 #
coedge $-1 $218 $218 $217 $340 forward $137 $-1 #
coedge $-1 $219 $219 $138 $220 forward $214 $-1 #
edge $-1 $341 0 $341 6.2831853071796004 $219 $342 forward 7 unknown #
face $-1 $343 $344 $48 $-1 $345 reversed single #
loop $-1 $-1 $346 $139 #
plane-surface $-1 13.171518822938026 13.411443735959496 144.88763135148548 0 1 0 0.50000000669873634 0 0.8660253999169214 forward_v I I I I #
coedge $-1 $347 $348 $349 $350 reversed $140 $-1 #
coedge $-1 $226 $142 $351 $352 reversed $89 $-1 #
coedge $-1 $142 $225 $347 $353 reversed $89 $-1 #
coedge $-1 $349 $354 $142 $228 forward $355 $-1 #
edge $-1 $356 -42.57101417170918 $357 -35.937737386375851 $227 $358 forward 7 unknown #
loop $-1 $-1 $234 $143 #
plane-surface $-1 -35.985255418816699 18.704232310024473 59.745602349490582 0.50000000669873634 0 0.8660253999169214 0.8660253999169214 0 -0.50000000669873634 forward_v I I I I #
loop $-1 $-1 $359 $91 #
coedge $-1 $232 $232 $233 $360 reversed $144 $-1 #
coedge $-1 $233 $233 $232 $360 forward $146 $-1 #
coedge $-1 $234 $234 $147 $235 forward $229 $-1 #
edge $-1 $361 0 $361 6.2831853071796004 $234 $362 forward 7 unknown #
loop $-1 $-1 $241 $148 #
plane-surface $-1 -35.985255418816699 18.704232310024473 59.745602349490582 0.50000000669873634 0 0.8660253999169214 0.8660253999169214 0 -0.50000000669873634 forward_v I I I I #
loop $-1 $-1 $363 $94 #
coedge $-1 $239 $239 $240 $364 reversed $149 $-1 #
coedge $-1 $240 $240 $239 $364 forward $151 $-1 #
coedge $-1 $241 $241 $152 $242 forward $236 $-1 #
edge $-1 $365 0 $365 6.2831853071796004 $241 $366 forward 7 unknown #
loop $-1 $-1 $248 $153 #
plane-surface $-1 -35.985255418816699 18.704232310024473 59.745602349490582 0.50000000669873634 0 0.8660253999169214 0.8660253999169214 0 -0.50000000669873634 forward_v I I I I #
loop $-1 $-1 $367 $97 #
coedge $-1 $246 $246 $247 $368 reversed $154 $-1 #
coedge $-1 $247 $247 $246 $368 forward $156 $-1 #
coedge $-1 $248 $248 $157 $249 forward $243 $-1 #
edge $-1 $369 0 $369 6.2831853071796004 $248 $370 forward 7 unknown #
face $-1 $371 $372 $52 $-1 $373 forward single #
loop $-1 $-1 $374 $158 #
plane-surface $-1 -111.02749429968985 -6.6137381697098867 77.558131991130125 0 -1 0 0.62932039886446345 0 -0.77714595512881146 forward_v I I I I #
coedge $-1 $375 $376 $377 $378 reversed $159 $-1 #
coedge $-1 $255 $161 $379 $380 reversed $101 $-1 #
coedge $-1 $161 $254 $375 $381 reversed $101 $-1 #
coedge $-1 $377 $382 $161 $257 forward $372 $-1 #
edge $-1 $383 6.3569735666667313 $384 22.737137932568608 $256 $385 forward 7 unknown #
loop $-1 $-1 $263 $162 #
plane-surface $-1 -49.156773583178207 -11.277050606977625 1.1541564764306287 -0.62932039886446345 0 0.77714595512881146 0.77714595512881146 0 0.62932039886446345 forward_v I I I I #
loop $-1 $-1 $386 $103 #
coedge $-1 $261 $261 $262 $387 reversed $163 $-1 #
coedge $-1 $262 $262 $261 $387 forward $165 $-1 #
coedge $-1 $263 $263 $166 $264 forward $258 $-1 #
edge $-1 $388 0 $388 6.2831853071796004 $263 $389 forward 7 unknown #
face $-1 $390 $391 $54 $-1 $392 reversed single #
loop $-1 $-1 $271 $167 #
plane-surface $-1 0 0 14.418552313768856 0 0 1 1 0 0 forward_v I I I I #
coedge $-1 $393 $394 $395 $396 reversed $168 $-1 #
coedge $-1 $270 $170 $397 $398 reversed $107 $-1 #
coedge $-1 $170 $269 $393 $399 reversed $107 $-1 #
coedge $-1 $395 $400 $170 $272 forward $266 $-1 #
edge $-1 $401 6.3569735666667313 $402 22.737137932568608 $271 $403 forward 7 unknown #
loop $-1 $-1 $278 $171 #
plane-surface $-1 -49.156773583178207 24.381744408539156 1.1541564764306287 -0.62932039886446345 0 0.77714595512881146 0.77714595512881146 0 0.62932039886446345 forward_v I I I I #
loop $-1 $-1 $404 $109 #
coedge $-1 $276 $276 $277 $405 reversed $172 $-1 #
coedge $-1 $277 $277 $276 $405 forward $174 $-1 #
coedge $-1 $278 $278 $175 $279 forward $273 $-1 #
edge $-1 $406 0 $406 6.2831853071796004 $278 $407 forward 7 unknown #
face $-1 $408 $409 $42 $-1 $410 reversed single #
loop $-1 $-1 $411 $176 #
plane-surface $-1 -49.156773583178193 0 0 1 0 0 0 0 -1 forward_v I I I I #
coedge $-1 $412 $291 $413 $414 forward $177 $-1 #
coedge $-1 $415 $179 $412 $416 forward $113 $-1 #
coedge $-1 $179 $415 $417 $418 forward $113 $-1 #
coedge $-1 $294 $293 $179 $287 reversed $295 $-1 #
edge $-1 $419 -29.045056845806897 $420 29.045056845806897 $286 $421 forward 7 unknown #
coedge $-1 $181 $180 $422 $423 forward $71 $-1 #
coedge $-1 $424 $425 $180 $290 reversed $409 $-1 #
edge $-1 $297 -49.156773583178193 $426 49.156773583178193 $289 $427 forward 7 unknown #
coedge $-1 $283 $428 $181 $292 reversed $177 $-1 #
edge $-1 $429 -49.156773583178193 $296 49.156773583178193 $291 $430 forward 7 unknown #
coedge $-1 $286 $182 $428 $431 forward $295 $-1 #
coedge $-1 $182 $286 $424 $432 reversed $295 $-1 #
loop $-1 $-1 $293 $408 #
vertex $-1 $183 $433 #
vertex $-1 $183 $434 #
straight-curve $-1 49.156773583178193 0 14.418552313768856 0 1 0 I I #
face $-1 $435 $436 $43 $-1 $437 reversed single #
loop $-1 $-1 $305 $184 #
plane-surface $-1 49.156773583178193 0 0 -1 0 0 0 0 1 forward_v I I I I #
coedge $-1 $438 $439 $303 $440 forward $185 $-1 #
coedge $-1 $441 $187 $302 $440 reversed $117 $-1 #
coedge $-1 $187 $441 $188 $308 reversed $117 $-1 #
coedge $-1 $190 $442 $187 $306 forward $300 $-1 #
edge $-1 $443 -8.2740453442144304 $312 -4.0149685948944214 $305 $444 forward 7 unknown #
coedge $-1 $189 $188 $445 $446 reversed $74 $-1 #
edge $-1 $312 -49.156773583178193 $447 49.156773583178193 $304 $448 forward 7 unknown #
coedge $-1 $449 $450 $189 $310 forward $436 $-1 #
edge $-1 $313 -49.156773583178193 $451 49.156773583178193 $309 $452 forward 7 unknown #
coedge $-1 $442 $190 $450 $453 forward $300 $-1 #
vertex $-1 $191 $454 #
vertex $-1 $453 $455 #
straight-curve $-1 49.156773583178193 -11.246354972513064 -10.159475564448847 0 -1 0 I I #
face $-1 $-1 $327 $44 $-1 $456 forward single #
loop $-1 $-1 $457 $192 #
plane-surface $-1 49.156773583178193 0 0 -1 0 0 0 0 1 forward_v I I I I #
coedge $-1 $458 $459 $460 $461 reversed $193 $-1 #
coedge $-1 $462 $195 $197 $325 forward $121 $-1 #
coedge $-1 $195 $462 $458 $463 forward $121 $-1 #
coedge $-1 $460 $198 $195 $322 forward $327 $-1 #
edge $-1 $329 -3.3985497565641491 $464 7.1870273915658043 $321 $465 forward 7 unknown #
coedge $-1 $466 $467 $196 $324 forward $316 $-1 #
edge $-1 $468 -61.854987568006884 $328 -58.025263361973884 $323 $469 forward 7 unknown #
edge $-1 $329 90.654098856907638 $468 98.313547166356386 $197 $470 forward 7 unknown #
coedge $-1 $198 $460 $466 $471 forward $327 $-1 #
loop $-1 $-1 $460 $315 #
vertex $-1 $324 $472 #
vertex $-1 $199 $473 #
straight-curve $-1 6.585759411469013 1.5043109390633216 14.418552313768856 -1 0 0 I I #
coedge $-1 $331 $331 $-1 $474 reversed $202 $-1 #
edge $-1 $475 0 $475 6.2831853071796004 $203 $476 forward 7 unknown #
vertex $-1 $206 $477 #
ellipse-curve $-1 45.840135190511518 -6.9641507794406436 12.503690210752366 0.50000000669873634 0 0.8660253999169214 0.4330126999584607 0 -0.25000000334936817 1 I I #
coedge $-1 $335 $335 $-1 $478 reversed $209 $-1 #
edge $-1 $479 0 $479 6.2831853071796004 $210 $480 forward 7 unknown #
vertex $-1 $213 $481 #
ellipse-curve $-1 45.840135190511518 -3.7884776350016587 12.503690210752366 0.50000000669873634 0 0.8660253999169214 0.4330126999584607 0 -0.25000000334936817 1 I I #
coedge $-1 $339 $339 $-1 $482 reversed $216 $-1 #
edge $-1 $483 0 $483 6.2831853071796004 $217 $484 forward 7 unknown #
vertex $-1 $220 $485 #
ellipse-curve $-1 45.840135190511518 -0.61280449056267372 12.503690210752366 0.50000000669873634 0 0.8660253999169214 0.4330126999584607 0 -0.25000000334936817 1 I I #
face $-1 $-1 $355 $48 $-1 $486 forward single #
loop $-1 $-1 $487 $221 #
plane-surface $-1 49.156773583178193 0 0 -1 0 0 0 0 1 forward_v I I I I #
coedge $-1 $488 $489 $490 $491 reversed $222 $-1 #
coedge $-1 $492 $224 $226 $353 forward $140 $-1 #
coedge $-1 $224 $492 $488 $493 forward $140 $-1 #
coedge $-1 $490 $227 $224 $350 forward $355 $-1 #
edge $-1 $357 -14.644904729077215 $494 -4.0593275809472598 $349 $495 forward 7 unknown #
coedge $-1 $496 $497 $225 $352 forward $344 $-1 #
edge $-1 $498 -61.854987568006884 $356 -58.025263361973884 $351 $499 forward 7 unknown #
edge $-1 $357 90.654098856907638 $498 98.313547166356386 $226 $500 forward 7 unknown #
coedge $-1 $227 $490 $496 $501 forward $355 $-1 #
loop $-1 $-1 $490 $343 #
vertex $-1 $352 $502 #
vertex $-1 $228 $503 #
straight-curve $-1 6.585759411469013 23.997020884089451 14.418552313768856 -1 0 0 I I #
coedge $-1 $359 $359 $-1 $504 reversed $231 $-1 #
edge $-1 $505 0 $505 6.2831853071796004 $232 $506 forward 7 unknown #
vertex $-1 $235 $507 #
ellipse-curve $-1 45.840135190511518 15.528559165585484 12.503690210752366 0.50000000669873634 0 0.8660253999169214 0.4330126999584607 0 -0.25000000334936817 1 I I #
coedge $-1 $363 $363 $-1 $508 reversed $238 $-1 #
edge $-1 $509 0 $509 6.2831853071796004 $239 $510 forward 7 unknown #
vertex $-1 $242 $511 #
ellipse-curve $-1 45.840135190511518 18.704232310024466 12.503690210752366 0.50000000669873634 0 0.8660253999169214 0.4330126999584607 0 -0.25000000334936817 1 I I #
coedge $-1 $367 $367 $-1 $512 reversed $245 $-1 #
edge $-1 $513 0 $513 6.2831853071796004 $246 $514 forward 7 unknown #
vertex $-1 $249 $515 #
ellipse-curve $-1 45.840135190511518 21.879905454463454 12.503690210752366 0.50000000669873634 0 0.8660253999169214 0.4330126999584607 0 -0.25000000334936817 1 I I #
face $-1 $-1 $516 $52 $-1 $517 reversed single #
loop $-1 $-1 $256 $250 #
plane-surface $-1 0 0 14.418552313768856 0 0 1 1 0 0 forward_v I I I I #
coedge $-1 $518 $519 $520 $521 reversed $251 $-1 #
coedge $-1 $522 $253 $255 $381 forward $159 $-1 #
coedge $-1 $253 $522 $518 $523 forward $159 $-1 #
coedge $-1 $520 $256 $253 $378 forward $372 $-1 #
edge $-1 $384 -10.30183774075655 $524 -0.97521286622107439 $377 $525 forward 7 unknown #
coedge $-1 $526 $527 $254 $380 forward $516 $-1 #
edge $-1 $528 -37.62490951913442 $383 -24.360513681796206 $379 $529 forward 7 unknown #
edge $-1 $384 -21.077333360355567 $528 -1.8310242626372826e-014 $255 $530 forward 7 unknown #
coedge $-1 $256 $520 $526 $531 forward $372 $-1 #
vertex $-1 $380 $532 #
vertex $-1 $257 $533 #
straight-curve $-1 -55.513747149844924 -15.940363044245363 14.418552313768856 1 0 0 I I #
coedge $-1 $386 $386 $-1 $534 reversed $260 $-1 #
edge $-1 $535 0 $535 6.2831853071796004 $261 $536 forward 7 unknown #
vertex $-1 $264 $537 #
ellipse-curve $-1 -40.966691400227255 -11.277050606977625 7.7863543950997514 -0.62932039886446345 0 0.77714595512881146 0.77714595512881146 0 0.62932039886446345 1 I I #
face $-1 $-1 $538 $54 $-1 $539 reversed single #
loop $-1 $-1 $540 $265 #
plane-surface $-1 0 29.045056845806897 0 0 -1 0 0 0 -1 forward_v I I I I #
coedge $-1 $541 $268 $270 $399 forward $168 $-1 #
coedge $-1 $268 $541 $540 $542 reversed $168 $-1 #
coedge $-1 $543 $271 $268 $396 forward $266 $-1 #
edge $-1 $402 7.5275597670018399 $544 16.854184641537316 $395 $545 forward 7 unknown #
coedge $-1 $546 $547 $269 $398 forward $538 $-1 #
edge $-1 $548 -37.62490951913442 $401 -24.360513681796206 $397 $549 forward 7 unknown #
edge $-1 $402 -21.077333360355567 $548 -1.8310242626372826e-014 $270 $550 forward 7 unknown #
coedge $-1 $271 $543 $546 $551 forward $266 $-1 #
vertex $-1 $398 $552 #
vertex $-1 $272 $553 #
straight-curve $-1 -55.513747149844924 19.718431971271418 14.418552313768856 1 0 0 I I #
coedge $-1 $404 $404 $-1 $554 reversed $275 $-1 #
edge $-1 $555 0 $555 6.2831853071796004 $276 $556 forward 7 unknown #
vertex $-1 $279 $557 #
ellipse-curve $-1 -40.966691400227255 24.381744408539156 7.7863543950997514 -0.62932039886446345 0 0.77714595512881146 0.77714595512881146 0 0.62932039886446345 1 I I #
face $-1 $-1 $295 $42 $-1 $558 reversed single #
loop $-1 $-1 $424 $280 #
plane-surface $-1 0 29.045056845806897 0 0 -1 0 0 0 -1 forward_v I I I I #
coedge $-1 $559 $422 $425 $560 forward $281 $-1 #
coedge $-1 $428 $283 $284 $416 reversed $177 $-1 #
coedge $-1 $422 $559 $283 $414 reversed $281 $-1 #
edge $-1 $429 -14.418552313768856 $561 14.418552313768856 $413 $562 forward 7 unknown #
coedge $-1 $285 $284 $559 $563 forward $113 $-1 #
edge $-1 $420 -49.156773583178193 $561 49.156773583178193 $412 $564 forward 7 unknown #
coedge $-1 $425 $424 $285 $418 reversed $409 $-1 #
edge $-1 $565 -49.156773583178193 $419 49.156773583178193 $417 $566 forward 7 unknown #
vertex $-1 $287 $567 #
vertex $-1 $431 $568 #
straight-curve $-1 49.156773583178193 0 -14.418552313768856 0 -1 0 I I #
coedge $-1 $411 $413 $288 $423 reversed $281 $-1 #
edge $-1 $426 -29.045056845806897 $429 29.045056845806897 $422 $569 forward 7 unknown #
coedge $-1 $417 $289 $294 $432 forward $409 $-1 #
coedge $-1 $289 $417 $411 $560 reversed $409 $-1 #
vertex $-1 $290 $570 #
straight-curve $-1 0 29.045056845806897 14.418552313768856 -1 0 0 I I #
coedge $-1 $291 $412 $293 $431 reversed $177 $-1 #
vertex $-1 $423 $571 #
straight-curve $-1 0 -29.045056845806897 14.418552313768856 1 0 0 I I #
edge $-1 $296 -14.418552313768856 $420 14.418552313768856 $293 $572 forward 7 unknown #
edge $-1 $297 -14.418552313768856 $419 14.418552313768856 $294 $573 forward 7 unknown #
point $-1 49.156773583178193 -29.045056845806897 14.418552313768856 #
point $-1 49.156773583178193 29.045056845806897 14.418552313768856 #
face $-1 $-1 $574 $43 $-1 $575 reversed single #
loop $-1 $-1 $309 $299 #
plane-surface $-1 0 -29.045056845806897 0 0 1 0 0 0 1 forward_v I I I I #
coedge $-1 $576 $302 $442 $577 forward $185 $-1 #
coedge $-1 $302 $576 $578 $579 forward $185 $-1 #
edge $-1 $580 -49.156773583178193 $443 49.156773583178193 $302 $581 forward 7 unknown #
coedge $-1 $304 $303 $582 $583 reversed $117 $-1 #
coedge $-1 $305 $311 $438 $577 reversed $300 $-1 #
vertex $-1 $577 $584 #
straight-curve $-1 49.156773583178193 -15.940363044245361 -6.1445069695544259 0 0 1 I I #
coedge $-1 $582 $585 $307 $446 forward $574 $-1 #
edge $-1 $451 -17.798701873293833 $447 -4.6940080717322967 $445 $586 forward 7 unknown #
vertex $-1 $446 $587 #
straight-curve $-1 0 -15.940363044245361 -10.159475564448847 -1 0 0 I I #
coedge $-1 $588 $309 $585 $589 forward $436 $-1 #
coedge $-1 $309 $588 $311 $453 reversed $436 $-1 #
vertex $-1 $589 $590 #
straight-curve $-1 0 -29.045056845806897 -10.159475564448847 -1 0 0 I I #
edge $-1 $313 10.159475564448847 $591 14.418552313768856 $311 $592 forward 7 unknown #
point $-1 49.156773583178193 -15.940363044245361 -10.159475564448847 #
point $-1 49.156773583178193 -29.045056845806897 -10.159475564448847 #
plane-surface $-1 0 0 14.418552313768856 0 0 1 1 0 0 forward_v I I I I #
coedge $-1 $467 $466 $459 $593 forward $316 $-1 #
coedge $-1 $459 $318 $320 $463 reversed $193 $-1 #
coedge $-1 $318 $458 $457 $593 reversed $193 $-1 #
coedge $-1 $326 $321 $318 $461 forward $327 $-1 #
edge $-1 $464 35.937737386375851 $594 42.57101417170918 $460 $595 forward 7 unknown #
coedge $-1 $320 $319 $467 $596 reversed $121 $-1 #
edge $-1 $597 -98.313547166356386 $464 -90.654098856907638 $458 $598 forward 7 unknown #
vertex $-1 $322 $599 #
straight-curve $-1 42.523496797844871 -1.8942388175008276 14.41855231376886 0 -1 0 I I #
coedge $-1 $457 $323 $326 $471 reversed $316 $-1 #
coedge $-1 $323 $457 $462 $596 forward $316 $-1 #
vertex $-1 $324 $600 #
straight-curve $-1 49.156773583178193 1.5043109390633216 72.443815675742741 0 0 1 I I #
straight-curve $-1 -35.985255418816699 1.5043109390633216 59.745602349490582 0.8660253999169214 0 -0.50000000669873634 I I #
edge $-1 $594 -9.0812662090666318 $328 1.5043109390633216 $466 $601 forward 7 unknown #
point $-1 49.156773583178193 1.5043109390633216 14.418552313768856 #
point $-1 42.523496797844864 1.5043109390633216 14.418552313768856 #
edge $-1 $602 1 $602 0 $331 $-1 forward 7 unknown #
vertex $-1 $332 $603 #
ellipse-curve $-1 45.125719762989171 -6.9641507794406436 11.266286414676721 0.50000000669873634 0 0.8660253999169214 0.4330126999584607 0 -0.25000000334936817 1 I I #
point $-1 46.273147890469978 -6.9641507794406436 12.25369020740299 #
edge $-1 $604 1 $604 0 $335 $-1 forward 7 unknown #
vertex $-1 $336 $605 #
ellipse-curve $-1 45.125719762989171 -3.7884776350016587 11.266286414676721 0.50000000669873634 0 0.8660253999169214 0.4330126999584607 0 -0.25000000334936817 1 I I #
point $-1 46.273147890469978 -3.7884776350016587 12.25369020740299 #
edge $-1 $606 1 $606 0 $339 $-1 forward 7 unknown #
vertex $-1 $340 $607 #
ellipse-curve $-1 45.125719762989171 -0.61280449056267372 11.266286414676721 0.50000000669873634 0 0.8660253999169214 0.4330126999584607 0 -0.25000000334936817 1 I I #
point $-1 46.273147890469978 -0.61280449056267372 12.25369020740299 #
plane-surface $-1 0 0 14.418552313768856 0 0 1 1 0 0 forward_v I I I I #
coedge $-1 $497 $496 $489 $608 forward $344 $-1 #
coedge $-1 $489 $346 $348 $493 reversed $222 $-1 #
coedge $-1 $346 $488 $487 $608 reversed $222 $-1 #
coedge $-1 $354 $349 $346 $491 forward $355 $-1 #
edge $-1 $494 35.937737386375851 $609 42.57101417170918 $490 $610 forward 7 unknown #
coedge $-1 $348 $347 $497 $611 reversed $140 $-1 #
edge $-1 $612 -98.313547166356386 $494 -90.654098856907638 $488 $613 forward 7 unknown #
vertex $-1 $350 $614 #
straight-curve $-1 42.523496797844871 9.3521161550122365 14.41855231376886 0 -1 0 I I #
coedge $-1 $487 $351 $354 $501 reversed $344 $-1 #
coedge $-1 $351 $487 $492 $611 forward $344 $-1 #
vertex $-1 $352 $615 #
straight-curve $-1 49.156773583178193 23.997020884089451 72.443815675742741 0 0 1 I I #
straight-curve $-1 -35.985255418816699 23.997020884089451 59.745602349490582 0.8660253999169214 0 -0.50000000669873634 I I #
edge $-1 $609 13.411443735959496 $356 23.997020884089451 $496 $616 forward 7 unknown #
point $-1 49.156773583178193 23.997020884089451 14.418552313768856 #
point $-1 42.523496797844864 23.997020884089451 14.418552313768856 #
edge $-1 $617 1 $617 0 $359 $-1 forward 7 unknown #
vertex $-1 $360 $618 #
ellipse-curve $-1 45.125719762989171 15.528559165585484 11.266286414676721 0.50000000669873634 0 0.8660253999169214 0.4330126999584607 0 -0.25000000334936817 1 I I #
point $-1 46.273147890469978 15.528559165585484 12.25369020740299 #
edge $-1 $619 1 $619 0 $363 $-1 forward 7 unknown #
vertex $-1 $364 $620 #
ellipse-curve $-1 45.125719762989171 18.704232310024466 11.266286414676721 0.50000000669873634 0 0.8660253999169214 0.4330126999584607 0 -0.25000000334936817 1 I I #
point $-1 46.273147890469978 18.704232310024466 12.25369020740299 #
edge $-1 $621 1 $621 0 $367 $-1 forward 7 unknown #
vertex $-1 $368 $622 #
ellipse-curve $-1 45.125719762989171 21.879905454463454 11.266286414676721 0.50000000669873634 0 0.8660253999169214 0.4330126999584607 0 -0.25000000334936817 1 I I #
point $-1 46.273147890469978 21.879905454463454 12.25369020740299 #
loop $-1 $-1 $379 $371 #
plane-surface $-1 -49.156773583178193 0 0 1 0 0 0 0 -1 forward_v I I I I #
coedge $-1 $519 $374 $376 $523 reversed $251 $-1 #
coedge $-1 $374 $518 $623 $624 reversed $251 $-1 #
coedge $-1 $382 $377 $374 $521 forward $372 $-1 #
edge $-1 $524 -22.737137932568608 $625 -6.3569735666667313 $520 $626 forward 7 unknown #
coedge $-1 $376 $375 $527 $627 reversed $159 $-1 #
edge $-1 $628 1.8310242626372826e-014 $524 21.077333360355567 $518 $629 forward 7 unknown #
vertex $-1 $378 $630 #
straight-curve $-1 -32.776609217276317 -5.6385253034888123 14.418552313768856 0 1 0 I I #
coedge $-1 $623 $379 $382 $531 reversed $516 $-1 #
coedge $-1 $379 $623 $522 $627 forward $516 $-1 #
vertex $-1 $380 $631 #
straight-curve $-1 -49.156773583178193 -15.940363044245363 38.779065995565063 0 0 1 I I #
straight-curve $-1 -49.156773583178207 -15.940363044245363 1.1541564764306287 -0.77714595512881146 0 -0.62932039886446345 I I #
edge $-1 $625 6.6137381697098867 $383 15.940363044245363 $526 $632 forward 7 unknown #
point $-1 -49.156773583178193 -15.940363044245363 14.418552313768856 #
point $-1 -32.776609217276317 -15.940363044245363 14.418552313768856 #
edge $-1 $633 1 $633 0 $386 $-1 forward 7 unknown #
vertex $-1 $387 $634 #
ellipse-curve $-1 -40.045191331941567 -11.277050606977625 6.6483966044237492 -0.62932039886446345 0 0.77714595512881146 0.77714595512881146 0 0.62932039886446345 1 I I #
point $-1 -40.189545445098439 -11.277050606977625 8.4156747939642091 #
loop $-1 $-1 $397 $390 #
plane-surface $-1 -49.156773583178193 0 0 1 0 0 0 0 -1 forward_v I I I I #
coedge $-1 $635 $636 $394 $542 forward $391 $-1 #
coedge $-1 $394 $393 $547 $637 reversed $168 $-1 #
edge $-1 $544 -2.3395065887303566 $638 18.737826771625194 $540 $639 forward 7 unknown #
coedge $-1 $400 $395 $636 $640 forward $266 $-1 #
vertex $-1 $640 $641 #
straight-curve $-1 -32.776609217276317 12.190872204269578 14.418552313768856 0 1 0 I I #
coedge $-1 $642 $397 $400 $551 reversed $538 $-1 #
coedge $-1 $397 $642 $541 $637 forward $538 $-1 #
vertex $-1 $398 $643 #
straight-curve $-1 -49.156773583178193 19.718431971271418 38.779065995565063 0 0 1 I I #
straight-curve $-1 -49.156773583178207 19.718431971271418 1.1541564764306287 -0.77714595512881146 0 -0.62932039886446345 I I #
edge $-1 $644 -29.045056845806897 $401 -19.718431971271418 $546 $645 forward 7 unknown #
point $-1 -49.156773583178193 19.718431971271418 14.418552313768856 #
point $-1 -32.776609217276317 19.718431971271418 14.418552313768856 #
edge $-1 $646 1 $646 0 $404 $-1 forward 7 unknown #
vertex $-1 $405 $647 #
ellipse-curve $-1 -40.045191331941567 24.381744408539156 6.6483966044237492 -0.62932039886446345 0 0.77714595512881146 0.77714595512881146 0 0.62932039886446345 1 I I #
point $-1 -40.189545445098439 24.381744408539156 8.4156747939642091 #
plane-surface $-1 49.156773583178193 0 0 -1 0 0 0 0 1 forward_v I I I I #
coedge $-1 $413 $411 $415 $563 reversed $281 $-1 #
edge $-1 $426 -14.418552313768856 $565 14.418552313768856 $425 $648 forward 7 unknown #
vertex $-1 $563 $649 #
straight-curve $-1 -49.156773583178193 -29.045056845806897 0 0 0 -1 I I #
edge $-1 $561 -29.045056845806897 $565 29.045056845806897 $559 $650 forward 7 unknown #
straight-curve $-1 0 -29.045056845806897 -14.418552313768856 -1 0 0 I I #
vertex $-1 $418 $651 #
straight-curve $-1 0 29.045056845806897 -14.418552313768856 1 0 0 I I #
point $-1 49.156773583178193 29.045056845806897 -14.418552313768856 #
point $-1 49.156773583178193 -29.045056845806897 -14.418552313768856 #
straight-curve $-1 -49.156773583178193 0 14.418552313768856 0 -1 0 I I #
point $-1 -49.156773583178193 29.045056845806897 14.418552313768856 #
point $-1 -49.156773583178193 -29.045056845806897 14.418552313768856 #
straight-curve $-1 49.156773583178193 -29.045056845806897 0 0 0 -1 I I #
straight-curve $-1 49.156773583178193 29.045056845806897 0 0 0 -1 I I #
loop $-1 $-1 $582 $435 #
plane-surface $-1 -49.156773583178193 0 0 1 0 0 0 0 -1 forward_v I I I I #
coedge $-1 $439 $438 $588 $652 forward $185 $-1 #
edge $-1 $443 15.940363044245361 $591 29.045056845806897 $442 $653 forward 7 unknown #
coedge $-1 $585 $582 $439 $579 reversed $574 $-1 #
edge $-1 $654 -29.045056845806897 $580 -15.940363044245361 $578 $655 forward 7 unknown #
vertex $-1 $583 $656 #
straight-curve $-1 0 -15.940363044245361 -14.418552313768856 1 0 0 I I #
coedge $-1 $578 $445 $441 $583 forward $574 $-1 #
edge $-1 $447 4.0149685948944214 $580 8.2740453442144304 $582 $657 forward 7 unknown #
point $-1 49.156773583178193 -15.940363044245361 -14.418552313768856 #
coedge $-1 $445 $578 $449 $589 reversed $574 $-1 #
straight-curve $-1 -49.156773583178193 -11.246354972513064 -10.159475564448847 0 1 0 I I #
point $-1 -49.156773583178193 -15.940363044245361 -10.159475564448847 #
coedge $-1 $450 $449 $576 $652 reversed $436 $-1 #
edge $-1 $451 10.159475564448847 $654 14.418552313768856 $585 $658 forward 7 unknown #
point $-1 -49.156773583178193 -29.045056845806897 -10.159475564448847 #
vertex $-1 $453 $659 #
straight-curve $-1 49.156773583178193 -29.045056845806897 0 0 0 -1 I I #
edge $-1 $594 58.025263361973884 $597 61.854987568006884 $457 $660 forward 7 unknown #
vertex $-1 $471 $661 #
straight-curve $-1 6.585759411469013 -9.0812662090666318 14.418552313768856 1 0 0 I I #
edge $-1 $597 -7.1870273915658043 $468 3.3985497565641491 $467 $662 forward 7 unknown #
vertex $-1 $596 $663 #
straight-curve $-1 -35.985255418816699 -9.0812662090666318 59.745602349490582 -0.8660253999169214 0 0.50000000669873634 I I #
point $-1 42.523496797844864 -9.0812662090666318 14.418552313768856 #
point $-1 49.1567735831782 1.5043109390633216 10.588828107735857 #
straight-curve $-1 49.156773583178193 0 14.418552313768856 0 1 0 I I #
vertex $-1 $474 $664 #
point $-1 45.558732462947631 -6.9641507794406436 11.016286411327352 #
vertex $-1 $478 $665 #
point $-1 45.558732462947631 -3.7884776350016587 11.016286411327352 #
vertex $-1 $482 $666 #
point $-1 45.558732462947631 -0.61280449056267372 11.016286411327352 #
edge $-1 $609 58.025263361973884 $612 61.854987568006884 $487 $667 forward 7 unknown #
vertex $-1 $501 $668 #
straight-curve $-1 6.585759411469013 13.411443735959496 14.418552313768856 1 0 0 I I #
edge $-1 $612 4.0593275809472598 $498 14.644904729077215 $497 $669 forward 7 unknown #
vertex $-1 $611 $670 #
straight-curve $-1 -35.985255418816699 13.411443735959496 59.745602349490582 -0.8660253999169214 0 0.50000000669873634 I I #
point $-1 42.523496797844864 13.411443735959496 14.418552313768856 #
point $-1 49.1567735831782 23.997020884089451 10.588828107735857 #
straight-curve $-1 49.156773583178193 0 14.418552313768856 0 1 0 I I #
vertex $-1 $504 $671 #
point $-1 45.558732462947631 15.528559165585484 11.016286411327352 #
vertex $-1 $508 $672 #
point $-1 45.558732462947631 18.704232310024466 11.016286411327352 #
vertex $-1 $512 $673 #
point $-1 45.558732462947631 21.879905454463454 11.016286411327352 #
coedge $-1 $527 $526 $519 $624 forward $516 $-1 #
edge $-1 $625 24.360513681796206 $628 37.62490951913442 $623 $674 forward 7 unknown #
vertex $-1 $531 $675 #
straight-curve $-1 -55.513747149844924 -6.6137381697098867 14.418552313768856 -1 0 0 I I #
edge $-1 $628 0.97521286622107439 $528 10.30183774075655 $527 $676 forward 7 unknown #
vertex $-1 $627 $677 #
straight-curve $-1 -49.156773583178207 -6.6137381697098867 1.1541564764306287 0.77714595512881146 0 0.62932039886446345 I I #
point $-1 -32.776609217276317 -6.6137381697098867 14.418552313768856 #
point $-1 -49.156773583178193 -15.940363044245363 1.1541564764306402 #
straight-curve $-1 -49.156773583178193 0 14.418552313768856 0 -1 0 I I #
vertex $-1 $534 $678 #
point $-1 -39.268045376812758 -11.277050606977625 7.2777170032882132 #
coedge $-1 $636 $540 $642 $679 reversed $391 $-1 #
coedge $-1 $540 $635 $543 $640 reversed $391 $-1 #
edge $-1 $638 -16.854184641537316 $548 -7.5275597670018399 $547 $680 forward 7 unknown #
vertex $-1 $542 $681 #
straight-curve $-1 -34.594747299705318 29.045056845806897 12.94625309420303 -0.77714595512881146 0 -0.62932039886446345 I I #
edge $-1 $544 32.776609217276317 $644 49.156773583178193 $636 $682 forward 7 unknown #
point $-1 -32.776609217276317 29.045056845806894 14.418552313768856 #
coedge $-1 $547 $546 $635 $679 forward $538 $-1 #
point $-1 -49.156773583178193 19.718431971271418 1.1541564764306402 #
vertex $-1 $640 $683 #
straight-curve $-1 -49.156773583178193 0 14.418552313768856 0 -1 0 I I #
vertex $-1 $554 $684 #
point $-1 -39.268045376812758 24.381744408539156 7.2777170032882132 #
straight-curve $-1 -49.156773583178193 29.045056845806897 0 0 0 -1 I I #
point $-1 -49.156773583178193 -29.045056845806897 -14.418552313768856 #
straight-curve $-1 -49.156773583178193 0 -14.418552313768856 0 1 0 I I #
point $-1 -49.156773583178193 29.045056845806897 -14.418552313768856 #
edge $-1 $591 -49.156773583178193 $654 49.156773583178193 $588 $685 forward 7 unknown #
straight-curve $-1 49.156773583178193 0 -14.418552313768856 0 -1 0 I I #
vertex $-1 $579 $686 #
straight-curve $-1 -49.156773583178193 0 -14.418552313768856 0 1 0 I I #
point $-1 -49.156773583178193 -15.940363044245361 -14.418552313768856 #
straight-curve $-1 -49.156773583178193 -15.940363044245361 -6.1445069695544259 0 0 -1 I I #
straight-curve $-1 -49.156773583178193 -29.045056845806897 0 0 0 -1 I I #
point $-1 49.156773583178193 -29.045056845806897 -14.418552313768856 #
straight-curve $-1 49.156773583178193 -9.0812662090666318 72.443815675742741 0 0 -1 I I #
point $-1 49.156773583178193 -9.0812662090666318 14.418552313768856 #
straight-curve $-1 49.156773583178193 -1.8942388175008276 10.588828107735853 0 1 0 I I #
point $-1 49.1567735831782 -9.0812662090666318 10.588828107735857 #
point $-1 44.8757197596398 -6.9641507794406436 10.83327371471826 #
point $-1 44.8757197596398 -3.7884776350016587 10.83327371471826 #
point $-1 44.8757197596398 -0.61280449056267372 10.83327371471826 #
straight-curve $-1 49.156773583178193 13.411443735959496 72.443815675742741 0 0 -1 I I #
point $-1 49.156773583178193 13.411443735959496 14.418552313768856 #
straight-curve $-1 49.156773583178193 9.3521161550122365 10.588828107735853 0 1 0 I I #
point $-1 49.1567735831782 13.411443735959496 10.588828107735857 #
point $-1 44.8757197596398 15.528559165585484 10.83327371471826 #
point $-1 44.8757197596398 18.704232310024466 10.83327371471826 #
point $-1 44.8757197596398 21.879905454463454 10.83327371471826 #
straight-curve $-1 -49.156773583178193 -6.6137381697098867 38.779065995565063 0 0 -1 I I #
point $-1 -49.156773583178193 -6.6137381697098867 14.418552313768856 #
straight-curve $-1 -49.156773583178193 -5.6385253034888123 1.1541564764306411 0 -1 0 I I #
point $-1 -49.156773583178193 -6.6137381697098867 1.1541564764306402 #
point $-1 -39.415870933077102 -11.277050606977625 5.8712506492949386 #
edge $-1 $644 -14.418552313768856 $638 -1.1541564764306402 $635 $687 forward 7 unknown #
straight-curve $-1 -49.156773583178193 12.190872204269578 1.1541564764306411 0 -1 0 I I #
point $-1 -49.156773583178193 29.045056845806894 1.1541564764306402 #
straight-curve $-1 0 29.045056845806897 14.418552313768856 -1 0 0 I I #
point $-1 -49.156773583178193 29.045056845806897 14.418552313768856 #
point $-1 -39.415870933077102 24.381744408539156 5.8712506492949386 #
straight-curve $-1 0 -29.045056845806897 -14.418552313768856 -1 0 0 I I #
point $-1 -49.156773583178193 -29.045056845806897 -14.418552313768856 #
straight-curve $-1 -49.156773583178193 29.045056845806897 0 0 0 -1 I I #
End-of-ACIS-data 