500 0 6 0           
7 Unknown 11 ACIS 5.0 NT 24 Thu Mar 25 17:16:11 1999 
-1 9.9999999999999995e-007 1e-010 
body $-1 $6 $-1 $7 #
body $-1 $8 $-1 $9 #
body $-1 $10 $-1 $11 #
body $-1 $12 $-1 $13 #
body $-1 $14 $-1 $15 #
body $-1 $16 $-1 $17 #
lump $-1 $-1 $18 $0 #
transform $-1 1 0 0 0 1 0 0 0 1 62.472609637745293 41.839889698821501 16.613118958570727 1 rotate no_reflect no_shear #
lump $-1 $-1 $19 $1 #
transform $-1 1 0 0 0 1 0 0 0 1 62.472609637745293 41.839889698821501 16.613118958570727 1 rotate no_reflect no_shear #
lump $-1 $-1 $20 $2 #
transform $-1 1 0 0 0 1 0 0 0 1 62.472609637745293 41.839889698821501 16.613118958570727 1 rotate no_reflect no_shear #
lump $-1 $-1 $21 $3 #
transform $-1 1 0 0 0 1 0 0 0 1 62.472609637745293 41.839889698821501 16.613118958570727 1 rotate no_reflect no_shear #
lump $-1 $-1 $22 $4 #
transform $-1 1 0 0 0 1 0 0 0 1 62.472609637745293 41.839889698821501 16.613118958570727 1 rotate no_reflect no_shear #
lump $-1 $-1 $23 $5 #
transform $-1 1 0 0 0 1 0 0 0 1 62.472609637745293 41.839889698821501 16.613118958570727 1 rotate no_reflect no_shear #
shell $-1 $-1 $-1 $24 $-1 $6 #
shell $-1 $-1 $-1 $25 $-1 $8 #
shell $-1 $-1 $-1 $26 $-1 $10 #
shell $-1 $-1 $-1 $27 $-1 $12 #
shell $-1 $-1 $-1 $28 $-1 $14 #
shell $-1 $-1 $-1 $29 $-1 $16 #
face $-1 $30 $31 $18 $-1 $32 forward single #
face $-1 $33 $34 $19 $-1 $35 forward single #
face $-1 $36 $37 $20 $-1 $38 reversed single #
face $-1 $39 $40 $21 $-1 $41 forward single #
face $-1 $42 $43 $22 $-1 $44 reversed single #
face $-1 $45 $46 $23 $-1 $47 forward single #
face $-1 $48 $49 $18 $-1 $50 reversed single #
loop $-1 $-1 $51 $24 #
plane-surface $-1 0 0 16.613118958570727 0 0 1 1 0 0 forward_v I I I I #
face $-1 $52 $53 $19 $-1 $54 reversed single #
loop $-1 $-1 $55 $25 #
plane-surface $-1 0 -34.618179512020752 -11.924819419097979 0 0 1 1 0 0 forward_v I I I I #
face $-1 $56 $57 $20 $-1 $58 reversed single #
loop $-1 $-1 $59 $26 #
plane-surface $-1 -44.698792807186592 73.589101332326464 160.12544869832459 -1 0 0 0 0.71933980857756763 0.69465836192734942 forward_v I I I I #
face $-1 $60 $61 $21 $-1 $62 forward single #
loop $-1 $63 $64 $27 #
cone-surface $-1 -53.585701222465943 39.801800545126603 14.527735724344293 0 -0.71933980857756763 -0.69465836192734942 0.25 0 0 1 I I 0 1 0.25 forward I I I I #
face $-1 $65 $66 $22 $-1 $67 reversed single #
loop $-1 $-1 $68 $28 #
plane-surface $-1 17.773816830558697 73.589101332326464 160.12544869832459 -1 0 0 0 0.71933980857756763 0.69465836192734942 forward_v I I I I #
face $-1 $69 $70 $23 $-1 $71 forward single #
loop $-1 $72 $73 $29 #
cone-surface $-1 8.8869084152793505 39.801800545126603 14.527735724344293 0 -0.71933980857756763 -0.69465836192734942 0.25 0 0 1 I I 0 1 0.25 forward I I I I #
face $-1 $74 $75 $18 $-1 $76 reversed single #
loop $-1 $-1 $77 $30 #
plane-surface $-1 0 0 -16.613118958570727 0 0 1 1 0 0 forward_v I I I I #
coedge $-1 $78 $79 $80 $81 forward $31 $-1 #
face $-1 $82 $83 $19 $-1 $84 reversed single #
loop $-1 $-1 $85 $33 #
plane-surface $-1 0 -27.396469325220004 -14.268969188834353 0 -1 0 0 0 -1 forward_v I I I I #
coedge $-1 $86 $87 $88 $89 reversed $34 $-1 #
face $-1 $90 $91 $20 $-1 $92 reversed single #
loop $-1 $-1 $93 $36 #
plane-surface $-1 -53.585701222465943 -16.288968783987144 73.331207345758813 0 0.71933980857756763 0.69465836192734942 1 0 0 forward_v I I I I #
coedge $-1 $94 $95 $96 $97 reversed $37 $-1 #
face $-1 $-1 $98 $21 $-1 $99 forward single #
loop $-1 $100 $101 $39 #
cone-surface $-1 -53.585701222465943 39.352213164765622 14.093574248139699 0 -0.71933980857756763 -0.69465836192734942 0.125 0 0 1 I I -0.70710678118654746 0.70710678118654746 0.125 forward I I I I #
loop $-1 $-1 $102 $27 #
coedge $-1 $64 $64 $103 $104 reversed $40 $-1 #
face $-1 $105 $106 $22 $-1 $107 reversed single #
loop $-1 $-1 $108 $42 #
plane-surface $-1 8.8869084152793505 -16.288968783987144 73.331207345758813 0 0.71933980857756763 0.69465836192734942 1 0 0 forward_v I I I I #
coedge $-1 $109 $110 $111 $112 reversed $43 $-1 #
face $-1 $-1 $113 $23 $-1 $114 forward single #
loop $-1 $115 $116 $45 #
cone-surface $-1 8.8869084152793505 39.352213164765622 14.093574248139699 0 -0.71933980857756763 -0.69465836192734942 0.125 0 0 1 I I -0.70710678118654746 0.70710678118654746 0.125 forward I I I I #
loop $-1 $-1 $117 $29 #
coedge $-1 $73 $73 $118 $119 reversed $46 $-1 #
face $-1 $120 $121 $18 $-1 $122 reversed single #
loop $-1 $-1 $123 $48 #
plane-surface $-1 0 -41.839889698821501 0 0 1 0 0 0 1 forward_v I I I I #
coedge $-1 $124 $125 $126 $127 forward $49 $-1 #
coedge $-1 $128 $51 $129 $130 forward $31 $-1 #
coedge $-1 $51 $128 $131 $132 forward $31 $-1 #
coedge $-1 $133 $134 $51 $81 reversed $135 $-1 #
edge $-1 $136 -41.839889698821501 $137 41.839889698821501 $80 $138 forward 7 unknown #
face $-1 $139 $140 $19 $-1 $141 reversed single #
loop $-1 $-1 $142 $52 #
plane-surface $-1 0 0 -16.613118958570727 0 0 1 1 0 0 forward_v I I I I #
coedge $-1 $143 $144 $145 $146 reversed $53 $-1 #
coedge $-1 $147 $55 $144 $148 forward $34 $-1 #
coedge $-1 $55 $147 $149 $150 reversed $34 $-1 #
coedge $-1 $151 $145 $55 $89 forward $140 $-1 #
edge $-1 $152 10.087379569209627 $153 24.530799942811125 $88 $154 forward 7 unknown #
face $-1 $155 $156 $20 $-1 $157 forward single #
loop $-1 $-1 $96 $56 #
plane-surface $-1 0 41.839889698821501 0 0 -1 0 0 0 -1 forward_v I I I I #
coedge $-1 $158 $159 $160 $161 reversed $57 $-1 #
coedge $-1 $95 $59 $162 $163 reversed $37 $-1 #
coedge $-1 $59 $94 $158 $164 reversed $37 $-1 #
coedge $-1 $160 $165 $59 $97 forward $91 $-1 #
edge $-1 $166 63.449605390591572 $167 66.925713497117073 $96 $168 forward 7 unknown #
loop $-1 $-1 $103 $60 #
plane-surface $-1 -53.585701222465943 -16.288968783987144 73.331207345758813 0 0.71933980857756763 0.69465836192734942 1 0 0 forward_v I I I I #
loop $-1 $-1 $169 $39 #
coedge $-1 $101 $101 $102 $170 reversed $61 $-1 #
coedge $-1 $102 $102 $101 $170 forward $63 $-1 #
coedge $-1 $103 $103 $64 $104 forward $98 $-1 #
edge $-1 $171 -1.9743378116099547e-014 $171 6.2831853071795809 $103 $172 forward 7 unknown #
face $-1 $173 $174 $22 $-1 $175 forward single #
loop $-1 $-1 $176 $65 #
plane-surface $-1 3.5527136788005009e-015 73.589101332326464 160.12544869832459 1 0 0 0 -0.71933980857756763 -0.69465836192734942 forward_v I I I I #
coedge $-1 $177 $178 $179 $180 reversed $66 $-1 #
coedge $-1 $110 $68 $181 $182 reversed $43 $-1 #
coedge $-1 $68 $109 $177 $183 reversed $43 $-1 #
coedge $-1 $179 $184 $68 $112 forward $185 $-1 #
edge $-1 $186 63.449605390591572 $187 66.925713497117073 $111 $188 forward 7 unknown #
loop $-1 $-1 $118 $69 #
plane-surface $-1 8.8869084152793505 -16.288968783987144 73.331207345758813 0 0.71933980857756763 0.69465836192734942 1 0 0 forward_v I I I I #
loop $-1 $-1 $189 $45 #
coedge $-1 $116 $116 $117 $190 reversed $70 $-1 #
coedge $-1 $117 $117 $116 $190 forward $72 $-1 #
coedge $-1 $118 $118 $73 $119 forward $113 $-1 #
edge $-1 $191 -1.9743378116099547e-014 $191 6.2831853071795809 $118 $192 forward 7 unknown #
face $-1 $193 $194 $18 $-1 $195 reversed single #
loop $-1 $-1 $196 $74 #
plane-surface $-1 -62.472609637745293 0 0 1 0 0 0 0 -1 forward_v I I I I #
coedge $-1 $197 $131 $198 $199 forward $75 $-1 #
coedge $-1 $200 $77 $197 $201 forward $49 $-1 #
coedge $-1 $77 $200 $202 $203 forward $49 $-1 #
coedge $-1 $134 $133 $77 $127 reversed $135 $-1 #
edge $-1 $204 -41.839889698821501 $205 41.839889698821501 $126 $206 forward 7 unknown #
coedge $-1 $79 $78 $207 $208 forward $31 $-1 #
coedge $-1 $209 $210 $78 $130 reversed $194 $-1 #
edge $-1 $137 -62.472609637745293 $211 62.472609637745293 $129 $212 forward 7 unknown #
coedge $-1 $123 $213 $79 $132 reversed $75 $-1 #
edge $-1 $214 -62.472609637745293 $136 62.472609637745293 $131 $215 forward 7 unknown #
coedge $-1 $126 $80 $213 $216 forward $135 $-1 #
coedge $-1 $80 $126 $209 $217 reversed $135 $-1 #
loop $-1 $-1 $133 $193 #
vertex $-1 $81 $218 #
vertex $-1 $81 $219 #
straight-curve $-1 62.472609637745293 0 16.613118958570727 0 1 0 I I #
face $-1 $220 $221 $19 $-1 $222 reversed single #
loop $-1 $-1 $145 $82 #
plane-surface $-1 62.472609637745293 0 0 -1 0 0 0 0 1 forward_v I I I I #
coedge $-1 $223 $224 $143 $225 forward $83 $-1 #
coedge $-1 $226 $85 $142 $225 reversed $53 $-1 #
coedge $-1 $85 $226 $86 $148 reversed $53 $-1 #
coedge $-1 $88 $227 $85 $146 forward $140 $-1 #
edge $-1 $228 -9.4786343641535495 $152 -4.7903348246808024 $145 $229 forward 7 unknown #
coedge $-1 $87 $86 $230 $231 reversed $34 $-1 #
edge $-1 $152 -62.472609637745293 $232 62.472609637745293 $144 $233 forward 7 unknown #
coedge $-1 $234 $235 $87 $150 forward $221 $-1 #
edge $-1 $153 -62.472609637745293 $236 62.472609637745293 $149 $237 forward 7 unknown #
coedge $-1 $227 $88 $235 $238 forward $140 $-1 #
vertex $-1 $89 $239 #
vertex $-1 $238 $240 #
straight-curve $-1 62.472609637745293 -17.309089756010376 -11.924819419097979 0 -1 0 I I #
face $-1 $-1 $241 $20 $-1 $242 reversed single #
loop $-1 $-1 $162 $90 #
plane-surface $-1 0 0 16.613118958570727 0 0 1 1 0 0 forward_v I I I I #
coedge $-1 $243 $93 $95 $164 forward $57 $-1 #
coedge $-1 $93 $243 $244 $245 reversed $57 $-1 #
coedge $-1 $246 $96 $93 $161 forward $91 $-1 #
edge $-1 $167 17.905942195953621 $247 35.679759026512322 $160 $248 forward 7 unknown #
coedge $-1 $249 $250 $94 $163 forward $156 $-1 #
edge $-1 $251 1.6885005338460459 $166 5.0453390326582692 $162 $252 forward 7 unknown #
edge $-1 $167 -83.679779397642989 $251 -78.847420524860439 $95 $253 forward 7 unknown #
coedge $-1 $96 $246 $249 $254 reversed $91 $-1 #
vertex $-1 $254 $255 #
vertex $-1 $97 $256 #
straight-curve $-1 -44.698792807186592 41.839889698821501 80.062724349162295 0 0 -1 I I #
coedge $-1 $169 $169 $-1 $257 reversed $100 $-1 #
edge $-1 $258 0 $258 6.2831853071796004 $101 $259 forward 7 unknown #
vertex $-1 $104 $260 #
ellipse-curve $-1 -53.585701222465943 40.16147044941539 14.875064905307967 0 0.71933980857756763 0.69465836192734942 0.25 0 0 1 I I #
face $-1 $-1 $185 $22 $-1 $261 reversed single #
loop $-1 $-1 $262 $105 #
plane-surface $-1 0 0 16.613118958570727 0 0 1 1 0 0 forward_v I I I I #
coedge $-1 $263 $264 $265 $266 reversed $106 $-1 #
coedge $-1 $267 $108 $110 $183 forward $66 $-1 #
coedge $-1 $108 $267 $263 $268 forward $66 $-1 #
coedge $-1 $265 $111 $108 $180 forward $185 $-1 #
edge $-1 $187 -13.330362622919022 $269 4.4434542076396717 $179 $270 forward 7 unknown #
coedge $-1 $271 $272 $109 $182 forward $174 $-1 #
edge $-1 $273 1.6885005338460459 $186 5.0453390326582692 $181 $274 forward 7 unknown #
edge $-1 $187 -83.679779397642989 $273 -78.847420524860439 $110 $275 forward 7 unknown #
coedge $-1 $111 $265 $271 $276 reversed $185 $-1 #
loop $-1 $-1 $265 $173 #
vertex $-1 $276 $277 #
vertex $-1 $112 $278 #
straight-curve $-1 17.773816830558697 41.839889698821501 80.062724349162295 0 0 -1 I I #
coedge $-1 $189 $189 $-1 $279 reversed $115 $-1 #
edge $-1 $280 0 $280 6.2831853071796004 $116 $281 forward 7 unknown #
vertex $-1 $119 $282 #
ellipse-curve $-1 8.8869084152793505 40.16147044941539 14.875064905307967 0 0.71933980857756763 0.69465836192734942 0.25 0 0 1 I I #
face $-1 $-1 $135 $18 $-1 $283 reversed single #
loop $-1 $-1 $209 $120 #
plane-surface $-1 0 41.839889698821501 0 0 -1 0 0 0 -1 forward_v I I I I #
coedge $-1 $284 $207 $210 $285 forward $121 $-1 #
coedge $-1 $213 $123 $124 $201 reversed $75 $-1 #
coedge $-1 $207 $284 $123 $199 reversed $121 $-1 #
edge $-1 $214 -16.613118958570727 $286 16.613118958570727 $198 $287 forward 7 unknown #
coedge $-1 $125 $124 $284 $288 forward $49 $-1 #
edge $-1 $205 -62.472609637745293 $286 62.472609637745293 $197 $289 forward 7 unknown #
coedge $-1 $210 $209 $125 $203 reversed $194 $-1 #
edge $-1 $290 -62.472609637745293 $204 62.472609637745293 $202 $291 forward 7 unknown #
vertex $-1 $127 $292 #
vertex $-1 $216 $293 #
straight-curve $-1 62.472609637745293 0 -16.613118958570727 0 -1 0 I I #
coedge $-1 $196 $198 $128 $208 reversed $121 $-1 #
edge $-1 $211 -41.839889698821501 $214 41.839889698821501 $207 $294 forward 7 unknown #
coedge $-1 $202 $129 $134 $217 forward $194 $-1 #
coedge $-1 $129 $202 $196 $285 reversed $194 $-1 #
vertex $-1 $130 $295 #
straight-curve $-1 0 41.839889698821501 16.613118958570727 -1 0 0 I I #
coedge $-1 $131 $197 $133 $216 reversed $75 $-1 #
vertex $-1 $208 $296 #
straight-curve $-1 0 -41.839889698821501 16.613118958570727 1 0 0 I I #
edge $-1 $136 -16.613118958570727 $205 16.613118958570727 $133 $297 forward 7 unknown #
edge $-1 $137 -16.613118958570727 $204 16.613118958570727 $134 $298 forward 7 unknown #
point $-1 62.472609637745293 -41.839889698821501 16.613118958570727 #
point $-1 62.472609637745293 41.839889698821501 16.613118958570727 #
face $-1 $-1 $299 $19 $-1 $300 reversed single #
loop $-1 $-1 $149 $139 #
plane-surface $-1 0 -41.839889698821501 0 0 1 0 0 0 1 forward_v I I I I #
coedge $-1 $301 $142 $227 $302 forward $83 $-1 #
coedge $-1 $142 $301 $303 $304 forward $83 $-1 #
edge $-1 $305 -62.472609637745293 $228 62.472609637745293 $142 $306 forward 7 unknown #
coedge $-1 $144 $143 $307 $308 reversed $53 $-1 #
coedge $-1 $145 $151 $223 $302 reversed $140 $-1 #
vertex $-1 $302 $309 #
straight-curve $-1 62.472609637745293 -27.396469325220004 -7.1344845944171764 0 0 1 I I #
coedge $-1 $307 $310 $147 $231 forward $299 $-1 #
edge $-1 $236 -24.530799942811125 $232 -10.087379569209627 $230 $311 forward 7 unknown #
vertex $-1 $231 $312 #
straight-curve $-1 0 -27.396469325220004 -11.924819419097979 -1 0 0 I I #
coedge $-1 $313 $149 $310 $314 forward $221 $-1 #
coedge $-1 $149 $313 $151 $238 reversed $221 $-1 #
vertex $-1 $314 $315 #
straight-curve $-1 0 -41.839889698821501 -11.924819419097979 -1 0 0 I I #
edge $-1 $153 11.924819419097979 $316 16.613118958570727 $151 $317 forward 7 unknown #
point $-1 62.472609637745293 -27.396469325220004 -11.924819419097979 #
point $-1 62.472609637745293 -41.839889698821501 -11.924819419097979 #
loop $-1 $-1 $244 $155 #
plane-surface $-1 -62.472609637745293 0 0 1 0 0 0 0 -1 forward_v I I I I #
coedge $-1 $159 $158 $250 $318 reversed $57 $-1 #
coedge $-1 $319 $320 $159 $245 forward $241 $-1 #
edge $-1 $247 -51.647116883727847 $321 -46.814758010945283 $244 $322 forward 7 unknown #
coedge $-1 $165 $160 $320 $323 reversed $91 $-1 #
vertex $-1 $161 $324 #
straight-curve $-1 -26.792850611232971 41.839889698821494 13.137010852045215 -1 0 0 I I #
coedge $-1 $325 $162 $165 $254 forward $156 $-1 #
coedge $-1 $162 $325 $243 $318 forward $156 $-1 #
vertex $-1 $163 $326 #
straight-curve $-1 -44.698792807186592 36.794550666163232 16.613118958570723 0 1 0 I I #
straight-curve $-1 -44.698792807186592 -16.288968783987144 73.331207345758813 0 -0.69465836192734942 0.71933980857756763 I I #
edge $-1 $166 44.698792807186592 $327 62.472609637745293 $165 $328 forward 7 unknown #
point $-1 -44.698792807186592 41.839889698821501 16.613118958570727 #
point $-1 -44.698792807186592 41.839889698821494 13.137010852045215 #
edge $-1 $329 1 $329 0 $169 $-1 forward 7 unknown #
vertex $-1 $170 $330 #
ellipse-curve $-1 -53.585701222465943 39.442130640837817 14.180406543380618 0 0.71933980857756763 0.69465836192734942 0.25 0 0 1 I I #
point $-1 -53.335701222465943 40.161470449415383 14.875064905307967 #
plane-surface $-1 0 41.839889698821501 0 0 -1 0 0 0 -1 forward_v I I I I #
coedge $-1 $272 $271 $264 $331 forward $174 $-1 #
coedge $-1 $264 $176 $178 $268 reversed $106 $-1 #
coedge $-1 $176 $263 $262 $331 reversed $106 $-1 #
coedge $-1 $184 $179 $176 $266 forward $185 $-1 #
edge $-1 $269 -66.925713497117073 $332 -63.449605390591572 $265 $333 forward 7 unknown #
coedge $-1 $178 $177 $272 $334 reversed $66 $-1 #
edge $-1 $335 78.847420524860439 $269 83.679779397642989 $263 $336 forward 7 unknown #
vertex $-1 $180 $337 #
straight-curve $-1 4.4434542076396752 41.839889698821494 13.137010852045215 -1 0 0 I I #
coedge $-1 $262 $181 $184 $276 forward $174 $-1 #
coedge $-1 $181 $262 $267 $334 forward $174 $-1 #
vertex $-1 $182 $338 #
straight-curve $-1 17.773816830558697 36.794550666163232 16.613118958570723 0 1 0 I I #
straight-curve $-1 17.773816830558697 -16.288968783987144 73.331207345758813 0 -0.69465836192734942 0.71933980857756763 I I #
edge $-1 $186 -17.773816830558697 $332 -3.5527136788005009e-015 $184 $339 forward 7 unknown #
point $-1 17.773816830558697 41.839889698821501 16.613118958570727 #
point $-1 17.773816830558697 41.839889698821494 13.137010852045215 #
edge $-1 $340 1 $340 0 $189 $-1 forward 7 unknown #
vertex $-1 $190 $341 #
ellipse-curve $-1 8.8869084152793505 39.442130640837817 14.180406543380618 0 0.71933980857756763 0.69465836192734942 0.25 0 0 1 I I #
point $-1 9.1369084152793505 40.161470449415383 14.875064905307967 #
plane-surface $-1 62.472609637745293 0 0 -1 0 0 0 0 1 forward_v I I I I #
coedge $-1 $198 $196 $200 $288 reversed $121 $-1 #
edge $-1 $211 -16.613118958570727 $290 16.613118958570727 $210 $342 forward 7 unknown #
vertex $-1 $288 $343 #
straight-curve $-1 -62.472609637745293 -41.839889698821501 0 0 0 -1 I I #
edge $-1 $286 -41.839889698821501 $290 41.839889698821501 $284 $344 forward 7 unknown #
straight-curve $-1 0 -41.839889698821501 -16.613118958570727 -1 0 0 I I #
vertex $-1 $203 $345 #
straight-curve $-1 0 41.839889698821501 -16.613118958570727 1 0 0 I I #
point $-1 62.472609637745293 41.839889698821501 -16.613118958570727 #
point $-1 62.472609637745293 -41.839889698821501 -16.613118958570727 #
straight-curve $-1 -62.472609637745293 0 16.613118958570727 0 -1 0 I I #
point $-1 -62.472609637745293 41.839889698821501 16.613118958570727 #
point $-1 -62.472609637745293 -41.839889698821501 16.613118958570727 #
straight-curve $-1 62.472609637745293 -41.839889698821501 0 0 0 -1 I I #
straight-curve $-1 62.472609637745293 41.839889698821501 0 0 0 -1 I I #
loop $-1 $-1 $307 $220 #
plane-surface $-1 -62.472609637745293 0 0 1 0 0 0 0 -1 forward_v I I I I #
coedge $-1 $224 $223 $313 $346 forward $83 $-1 #
edge $-1 $228 27.396469325220004 $316 41.839889698821501 $227 $347 forward 7 unknown #
coedge $-1 $310 $307 $224 $304 reversed $299 $-1 #
edge $-1 $348 -41.839889698821501 $305 -27.396469325220004 $303 $349 forward 7 unknown #
vertex $-1 $308 $350 #
straight-curve $-1 0 -27.396469325220004 -16.613118958570727 1 0 0 I I #
coedge $-1 $303 $230 $226 $308 forward $299 $-1 #
edge $-1 $232 4.7903348246808024 $305 9.4786343641535495 $307 $351 forward 7 unknown #
point $-1 62.472609637745293 -27.396469325220004 -16.613118958570727 #
coedge $-1 $230 $303 $234 $314 reversed $299 $-1 #
straight-curve $-1 -62.472609637745293 -17.309089756010376 -11.924819419097979 0 1 0 I I #
point $-1 -62.472609637745293 -27.396469325220004 -11.924819419097979 #
coedge $-1 $235 $234 $301 $346 reversed $221 $-1 #
edge $-1 $236 11.924819419097979 $348 16.613118958570727 $310 $352 forward 7 unknown #
point $-1 -62.472609637745293 -41.839889698821501 -11.924819419097979 #
vertex $-1 $238 $353 #
straight-curve $-1 62.472609637745293 -41.839889698821501 0 0 0 -1 I I #
edge $-1 $321 -35.679759026512322 $251 -17.905942195953621 $250 $354 forward 7 unknown #
coedge $-1 $320 $244 $325 $355 reversed $241 $-1 #
coedge $-1 $244 $319 $246 $323 forward $241 $-1 #
vertex $-1 $245 $356 #
straight-curve $-1 -62.472609637745293 5.9627880861007654 50.288838024769262 0 -0.69465836192734942 0.71933980857756763 I I #
edge $-1 $327 -16.613118958570727 $247 -13.137010852045211 $246 $357 forward 7 unknown #
point $-1 -62.472609637745293 41.839889698821501 13.137010852045211 #
coedge $-1 $250 $249 $319 $355 forward $156 $-1 #
point $-1 -44.698792807186592 38.483051200009278 16.61311895857073 #
vertex $-1 $254 $358 #
straight-curve $-1 0 41.839889698821501 16.613118958570727 -1 0 0 I I #
vertex $-1 $257 $359 #
point $-1 -53.335701222465943 39.442130640837817 14.180406543380618 #
edge $-1 $332 -5.0453390326582692 $335 -1.6885005338460459 $262 $360 forward 7 unknown #
vertex $-1 $331 $361 #
straight-curve $-1 3.5527136788005009e-015 41.839889698821501 80.062724349162295 0 0 1 I I #
edge $-1 $335 -4.4434542076396717 $273 13.330362622919022 $272 $362 forward 7 unknown #
vertex $-1 $334 $363 #
straight-curve $-1 3.5527136788005009e-015 -16.288968783987144 73.331207345758813 0 0.69465836192734942 -0.71933980857756763 I I #
point $-1 3.5527136788005009e-015 41.839889698821494 13.137010852045215 #
point $-1 17.773816830558697 38.483051200009278 16.61311895857073 #
straight-curve $-1 0 41.839889698821501 16.613118958570727 -1 0 0 I I #
vertex $-1 $279 $364 #
point $-1 9.1369084152793505 39.442130640837817 14.180406543380618 #
straight-curve $-1 -62.472609637745293 41.839889698821501 0 0 0 -1 I I #
point $-1 -62.472609637745293 -41.839889698821501 -16.613118958570727 #
straight-curve $-1 -62.472609637745293 0 -16.613118958570727 0 1 0 I I #
point $-1 -62.472609637745293 41.839889698821501 -16.613118958570727 #
edge $-1 $316 -62.472609637745293 $348 62.472609637745293 $313 $365 forward 7 unknown #
straight-curve $-1 62.472609637745293 0 -16.613118958570727 0 -1 0 I I #
vertex $-1 $304 $366 #
straight-curve $-1 -62.472609637745293 0 -16.613118958570727 0 1 0 I I #
point $-1 -62.472609637745293 -27.396469325220004 -16.613118958570727 #
straight-curve $-1 -62.472609637745293 -27.396469325220004 -7.1344845944171764 0 0 -1 I I #
straight-curve $-1 -62.472609637745293 -41.839889698821501 0 0 0 -1 I I #
point $-1 62.472609637745293 -41.839889698821501 -16.613118958570727 #
straight-curve $-1 -26.792850611232971 38.483051200009271 16.613118958570738 1 0 0 I I #
edge $-1 $327 -41.839889698821501 $321 -38.483051200009278 $319 $367 forward 7 unknown #
point $-1 -62.472609637745293 38.483051200009278 16.61311895857073 #
straight-curve $-1 -62.472609637745293 41.839889698821501 0 0 0 -1 I I #
point $-1 -62.472609637745293 41.839889698821501 16.613118958570727 #
point $-1 -53.585701222465943 39.262295688693428 14.00674195289878 #
straight-curve $-1 3.5527136788005009e-015 36.794550666163232 16.613118958570723 0 -1 0 I I #
point $-1 3.5527136788005009e-015 41.839889698821501 16.613118958570727 #
straight-curve $-1 4.4434542076396752 38.483051200009271 16.613118958570738 1 0 0 I I #
point $-1 3.5527136788005009e-015 38.483051200009278 16.61311895857073 #
point $-1 8.8869084152793505 39.262295688693428 14.00674195289878 #
straight-curve $-1 0 -41.839889698821501 -16.613118958570727 -1 0 0 I I #
point $-1 -62.472609637745293 -41.839889698821501 -16.613118958570727 #
straight-curve $-1 -62.472609637745293 0 16.613118958570727 0 -1 0 I I #
End-of-ACIS-data 