500 0 9 0           
7 Unknown 11 ACIS 5.0 NT 24 Thu Mar 25 22:04:24 1999 
-1 9.9999999999999995e-007 1e-010 
body $-1 $9 $-1 $10 #
body $-1 $11 $-1 $12 #
body $-1 $13 $-1 $14 #
body $-1 $15 $-1 $16 #
body $-1 $17 $-1 $18 #
body $-1 $19 $-1 $20 #
body $-1 $21 $-1 $22 #
body $-1 $23 $-1 $24 #
body $-1 $25 $-1 $26 #
lump $-1 $-1 $27 $0 #
transform $-1 1 0 0 0 1 0 0 0 1 50.928067873165077 26.213181820577582 13.050671802367455 1 rotate no_reflect no_shear #
lump $-1 $-1 $28 $1 #
transform $-1 1 0 0 0 1 0 0 0 1 50.928067873165077 26.213181820577582 13.050671802367455 1 rotate no_reflect no_shear #
lump $-1 $-1 $29 $2 #
transform $-1 1 0 0 0 1 0 0 0 1 50.928067873165077 26.213181820577582 13.050671802367455 1 rotate no_reflect no_shear #
lump $-1 $-1 $30 $3 #
transform $-1 1 0 0 0 1 0 0 0 1 50.928067873165077 26.213181820577582 13.050671802367455 1 rotate no_reflect no_shear #
lump $-1 $-1 $31 $4 #
transform $-1 1 0 0 0 1 0 0 0 1 50.928067873165077 26.213181820577582 13.050671802367455 1 rotate no_reflect no_shear #
lump $-1 $-1 $32 $5 #
transform $-1 1 0 0 0 1 0 0 0 1 50.928067873165077 26.213181820577582 13.050671802367455 1 rotate no_reflect no_shear #
lump $-1 $-1 $33 $6 #
transform $-1 1 0 0 0 1 0 0 0 1 50.928067873165077 26.213181820577582 13.050671802367455 1 rotate no_reflect no_shear #
lump $-1 $-1 $34 $7 #
transform $-1 1 0 0 0 1 0 0 0 1 50.928067873165077 26.213181820577582 13.050671802367455 1 rotate no_reflect no_shear #
lump $-1 $-1 $35 $8 #
transform $-1 1 0 0 0 1 0 0 0 1 50.928067873165077 26.213181820577582 13.050671802367455 1 rotate no_reflect no_shear #
shell $-1 $-1 $-1 $36 $-1 $9 #
shell $-1 $-1 $-1 $37 $-1 $11 #
shell $-1 $-1 $-1 $38 $-1 $13 #
shell $-1 $-1 $-1 $39 $-1 $15 #
shell $-1 $-1 $-1 $40 $-1 $17 #
shell $-1 $-1 $-1 $41 $-1 $19 #
shell $-1 $-1 $-1 $42 $-1 $21 #
shell $-1 $-1 $-1 $43 $-1 $23 #
shell $-1 $-1 $-1 $44 $-1 $25 #
face $-1 $45 $46 $27 $-1 $47 forward single #
face $-1 $48 $49 $28 $-1 $50 forward single #
face $-1 $51 $52 $29 $-1 $53 forward single #
face $-1 $54 $55 $30 $-1 $56 reversed single #
face $-1 $57 $58 $31 $-1 $59 forward single #
face $-1 $60 $61 $32 $-1 $62 forward single #
face $-1 $63 $64 $33 $-1 $65 reversed single #
face $-1 $66 $67 $34 $-1 $68 forward single #
face $-1 $69 $70 $35 $-1 $71 forward single #
face $-1 $72 $73 $27 $-1 $74 reversed single #
loop $-1 $-1 $75 $36 #
plane-surface $-1 0 0 13.050671802367455 0 0 1 1 0 0 forward_v I I I I #
face $-1 $76 $77 $28 $-1 $78 reversed single #
loop $-1 $-1 $79 $37 #
plane-surface $-1 -50.928067873165077 0 0 1 0 0 0 0 -1 forward_v I I I I #
face $-1 $80 $81 $29 $-1 $82 reversed single #
loop $-1 $-1 $83 $38 #
plane-surface $-1 50.928067873165077 0 0 -1 0 0 0 0 1 forward_v I I I I #
face $-1 $84 $85 $30 $-1 $86 reversed single #
loop $-1 $-1 $87 $39 #
plane-surface $-1 10.008581629668384 51.524120460892924 121.6125273952626 1 0 0 0 -0.64278761758704617 -0.76604443648966558 forward_v I I I I #
face $-1 $88 $89 $31 $-1 $90 forward single #
loop $-1 $91 $92 $40 #
cone-surface $-1 14.898594405292158 23.133334886267601 10.045023146512824 0 -0.64278761758704617 -0.76604443648966558 1 0 0 1 I I 0 1 1 forward I I I I #
face $-1 $93 $94 $32 $-1 $95 forward single #
loop $-1 $96 $97 $41 #
cone-surface $-1 22.233613568727804 23.133334886267601 10.045023146512824 0 -0.64278761758704617 -0.76604443648966558 1 0 0 1 I I 0 1 1 forward I I I I #
face $-1 $98 $99 $33 $-1 $100 reversed single #
loop $-1 $-1 $101 $42 #
plane-surface $-1 27.123626344351578 -91.68504465358393 87.913510011612331 -1 0 0 0 -0.64278761758704617 0.76604443648966558 forward_v I I I I #
face $-1 $102 $103 $34 $-1 $104 forward single #
loop $-1 $105 $106 $43 #
cone-surface $-1 14.898594405292158 -23.133334886267601 10.04502314651282 0 0.64278761758704617 -0.76604443648966558 1 0 0 1 I I 0 1 1 forward I I I I #
face $-1 $107 $108 $35 $-1 $109 forward single #
loop $-1 $110 $111 $44 #
cone-surface $-1 22.233613568727804 -23.133334886267601 10.04502314651282 0 0.64278761758704617 -0.76604443648966558 1 0 0 1 I I 0 1 1 forward I I I I #
face $-1 $112 $113 $27 $-1 $114 reversed single #
loop $-1 $-1 $115 $45 #
plane-surface $-1 0 0 -13.050671802367455 0 0 1 1 0 0 forward_v I I I I #
coedge $-1 $116 $117 $118 $119 forward $46 $-1 #
face $-1 $120 $121 $28 $-1 $122 forward single #
loop $-1 $-1 $123 $48 #
plane-surface $-1 0 26.213181820577582 0 0 -1 0 0 0 -1 forward_v I I I I #
coedge $-1 $124 $125 $126 $127 forward $49 $-1 #
face $-1 $128 $129 $29 $-1 $130 forward single #
loop $-1 $-1 $131 $51 #
plane-surface $-1 0 26.213181820577582 0 0 -1 0 0 0 -1 forward_v I I I I #
coedge $-1 $132 $133 $134 $135 forward $52 $-1 #
face $-1 $136 $137 $30 $-1 $138 reversed single #
loop $-1 $-1 $139 $54 #
plane-surface $-1 18.566103987009981 -13.947742372113403 43.58620128445024 0 0.64278761758704617 0.76604443648966558 1 0 0 forward_v I I I I #
coedge $-1 $140 $141 $142 $143 reversed $55 $-1 #
face $-1 $-1 $144 $31 $-1 $145 forward single #
loop $-1 $146 $147 $57 #
cone-surface $-1 14.898594405292158 21.617143139592507 8.2380962231971022 0 -0.64278761758704617 -0.76604443648966558 0.5 0 0 1 I I -0.70710678118654746 0.70710678118654746 0.5 forward I I I I #
loop $-1 $-1 $148 $40 #
coedge $-1 $92 $92 $149 $150 reversed $58 $-1 #
face $-1 $-1 $151 $32 $-1 $152 forward single #
loop $-1 $153 $154 $60 #
cone-surface $-1 22.233613568727804 21.617143139592507 8.2380962231971022 0 -0.64278761758704617 -0.76604443648966558 0.5 0 0 1 I I -0.70710678118654746 0.70710678118654746 0.5 forward I I I I #
loop $-1 $-1 $155 $41 #
coedge $-1 $97 $97 $156 $157 reversed $61 $-1 #
face $-1 $158 $159 $33 $-1 $160 reversed single #
loop $-1 $-1 $161 $63 #
plane-surface $-1 18.566103987009981 -26.213181820577603 9.8871839007999682 0 -0.64278761758704617 0.76604443648966558 1 0 0 forward_v I I I I #
coedge $-1 $162 $163 $164 $165 reversed $64 $-1 #
face $-1 $-1 $166 $34 $-1 $167 forward single #
loop $-1 $168 $169 $66 #
cone-surface $-1 14.898594405292158 -21.617143139592507 8.2380962231970987 0 0.64278761758704617 -0.76604443648966558 0.5 0 0 1 I I -0.70710678118654746 0.70710678118654746 0.5 forward I I I I #
loop $-1 $-1 $170 $43 #
coedge $-1 $106 $106 $171 $172 reversed $67 $-1 #
face $-1 $-1 $173 $35 $-1 $174 forward single #
loop $-1 $175 $176 $69 #
cone-surface $-1 22.233613568727804 -21.617143139592507 8.2380962231970987 0 0.64278761758704617 -0.76604443648966558 0.5 0 0 1 I I -0.70710678118654746 0.70710678118654746 0.5 forward I I I I #
loop $-1 $-1 $177 $44 #
coedge $-1 $111 $111 $178 $179 reversed $70 $-1 #
face $-1 $180 $181 $27 $-1 $182 reversed single #
loop $-1 $-1 $183 $72 #
plane-surface $-1 0 -26.213181820577582 0 0 1 0 0 0 1 forward_v I I I I #
coedge $-1 $184 $185 $186 $187 forward $73 $-1 #
coedge $-1 $188 $75 $189 $190 forward $46 $-1 #
coedge $-1 $75 $188 $191 $192 forward $46 $-1 #
coedge $-1 $193 $194 $75 $119 reversed $195 $-1 #
edge $-1 $196 -26.213181820577582 $197 26.213181820577582 $118 $198 forward 7 unknown #
face $-1 $199 $200 $28 $-1 $201 reversed single #
loop $-1 $-1 $126 $76 #
plane-surface $-1 -56.125522711826846 0 -8.7707588089936284 0 0 1 1 0 0 forward_v I I I I #
coedge $-1 $202 $203 $125 $204 forward $77 $-1 #
coedge $-1 $205 $79 $206 $207 reversed $49 $-1 #
coedge $-1 $79 $205 $123 $204 reversed $49 $-1 #
coedge $-1 $208 $209 $79 $127 reversed $121 $-1 #
edge $-1 $210 -26.213181820577582 $211 26.213181820577582 $126 $212 forward 7 unknown #
face $-1 $213 $214 $29 $-1 $215 reversed single #
loop $-1 $-1 $216 $80 #
plane-surface $-1 56.125522711826846 0 -8.7707588089936284 0 0 1 1 0 0 forward_v I I I I #
coedge $-1 $217 $218 $132 $219 forward $81 $-1 #
coedge $-1 $220 $83 $131 $219 reversed $52 $-1 #
coedge $-1 $83 $220 $221 $222 reversed $52 $-1 #
coedge $-1 $223 $224 $83 $135 reversed $129 $-1 #
edge $-1 $225 -26.213181820577582 $226 26.213181820577582 $134 $227 forward 7 unknown #
face $-1 $228 $229 $30 $-1 $230 reversed single #
loop $-1 $-1 $231 $84 #
plane-surface $-1 27.123626344351578 51.524120460892924 121.6125273952626 -1 0 0 0 0.64278761758704617 0.76604443648966558 forward_v I I I I #
coedge $-1 $232 $233 $234 $235 reversed $85 $-1 #
coedge $-1 $141 $87 $236 $237 reversed $55 $-1 #
coedge $-1 $87 $140 $232 $238 reversed $55 $-1 #
coedge $-1 $234 $239 $87 $143 forward $240 $-1 #
edge $-1 $241 -0.45112159013111963 $242 3.3189764027256778 $142 $243 forward 7 unknown #
loop $-1 $-1 $149 $88 #
plane-surface $-1 18.566103987009981 -13.947742372113403 43.58620128445024 0 0.64278761758704617 0.76604443648966558 1 0 0 forward_v I I I I #
loop $-1 $-1 $244 $57 #
coedge $-1 $147 $147 $148 $245 reversed $89 $-1 #
coedge $-1 $148 $148 $147 $245 forward $91 $-1 #
coedge $-1 $149 $149 $92 $150 forward $144 $-1 #
edge $-1 $246 -2.4555087403448582e-015 $246 6.2831853071795978 $149 $247 forward 7 unknown #
loop $-1 $-1 $156 $93 #
plane-surface $-1 18.566103987009981 -13.947742372113403 43.58620128445024 0 0.64278761758704617 0.76604443648966558 1 0 0 forward_v I I I I #
loop $-1 $-1 $248 $60 #
coedge $-1 $154 $154 $155 $249 reversed $94 $-1 #
coedge $-1 $155 $155 $154 $249 forward $96 $-1 #
coedge $-1 $156 $156 $97 $157 forward $151 $-1 #
edge $-1 $250 -2.4555087403448582e-015 $250 6.2831853071795978 $156 $251 forward 7 unknown #
face $-1 $252 $253 $33 $-1 $254 forward single #
loop $-1 $-1 $255 $98 #
plane-surface $-1 10.008581629668384 -91.68504465358393 87.913510011612331 1 0 0 0 0.64278761758704617 -0.76604443648966558 forward_v I I I I #
coedge $-1 $256 $257 $258 $259 reversed $99 $-1 #
coedge $-1 $163 $101 $260 $261 reversed $64 $-1 #
coedge $-1 $101 $162 $256 $262 reversed $64 $-1 #
coedge $-1 $258 $263 $101 $165 forward $253 $-1 #
edge $-1 $264 19.629340506214383 $265 23.399438499071184 $164 $266 forward 7 unknown #
loop $-1 $-1 $171 $102 #
plane-surface $-1 18.566103987009981 -26.213181820577603 9.8871839007999682 0 -0.64278761758704617 0.76604443648966558 1 0 0 forward_v I I I I #
loop $-1 $-1 $267 $66 #
coedge $-1 $169 $169 $170 $268 reversed $103 $-1 #
coedge $-1 $170 $170 $169 $268 forward $105 $-1 #
coedge $-1 $171 $171 $106 $172 forward $166 $-1 #
edge $-1 $269 1.3136885595623172e-015 $269 6.2831853071796013 $171 $270 forward 7 unknown #
loop $-1 $-1 $178 $107 #
plane-surface $-1 18.566103987009981 -26.213181820577603 9.8871839007999682 0 -0.64278761758704617 0.76604443648966558 1 0 0 forward_v I I I I #
loop $-1 $-1 $271 $69 #
coedge $-1 $176 $176 $177 $272 reversed $108 $-1 #
coedge $-1 $177 $177 $176 $272 forward $110 $-1 #
coedge $-1 $178 $178 $111 $179 forward $173 $-1 #
edge $-1 $273 1.3136885595623172e-015 $273 6.2831853071796013 $178 $274 forward 7 unknown #
face $-1 $275 $276 $27 $-1 $277 reversed single #
loop $-1 $-1 $278 $112 #
plane-surface $-1 -50.928067873165077 0 0 1 0 0 0 0 -1 forward_v I I I I #
coedge $-1 $279 $191 $280 $281 forward $113 $-1 #
coedge $-1 $282 $115 $279 $283 forward $73 $-1 #
coedge $-1 $115 $282 $284 $285 forward $73 $-1 #
coedge $-1 $194 $193 $115 $187 reversed $195 $-1 #
edge $-1 $286 -26.213181820577582 $287 26.213181820577582 $186 $288 forward 7 unknown #
coedge $-1 $117 $116 $289 $290 forward $46 $-1 #
coedge $-1 $291 $292 $116 $190 reversed $276 $-1 #
edge $-1 $197 -50.928067873165077 $293 50.928067873165077 $189 $294 forward 7 unknown #
coedge $-1 $183 $295 $117 $192 reversed $113 $-1 #
edge $-1 $296 -50.928067873165077 $196 50.928067873165077 $191 $297 forward 7 unknown #
coedge $-1 $186 $118 $295 $298 forward $195 $-1 #
coedge $-1 $118 $186 $291 $299 reversed $195 $-1 #
loop $-1 $-1 $193 $275 #
vertex $-1 $119 $300 #
vertex $-1 $119 $301 #
straight-curve $-1 50.928067873165077 0 13.050671802367455 0 1 0 I I #
face $-1 $302 $303 $28 $-1 $304 reversed single #
loop $-1 $-1 $305 $120 #
plane-surface $-1 -61.322977550488616 0 -10.910715305680542 1 0 0 0 0 -1 forward_v I I I I #
coedge $-1 $306 $123 $307 $308 reversed $77 $-1 #
coedge $-1 $123 $306 $208 $309 reversed $77 $-1 #
edge $-1 $210 8.7707588089936284 $310 13.050671802367455 $123 $311 forward 7 unknown #
coedge $-1 $125 $124 $312 $313 reversed $49 $-1 #
coedge $-1 $314 $315 $124 $207 forward $316 $-1 #
edge $-1 $317 -13.050671802367455 $211 -8.7707588089936284 $206 $318 forward 7 unknown #
coedge $-1 $319 $126 $203 $309 forward $121 $-1 #
coedge $-1 $126 $319 $314 $320 forward $121 $-1 #
vertex $-1 $204 $321 #
vertex $-1 $320 $322 #
straight-curve $-1 -50.928067873165077 0 -8.7707588089936284 0 -1 0 I I #
face $-1 $323 $324 $29 $-1 $325 reversed single #
loop $-1 $-1 $326 $128 #
plane-surface $-1 61.322977550488616 0 -10.910715305680542 -1 0 0 0 0 1 forward_v I I I I #
coedge $-1 $224 $223 $327 $328 forward $129 $-1 #
coedge $-1 $329 $131 $224 $330 reversed $81 $-1 #
coedge $-1 $131 $329 $331 $332 reversed $81 $-1 #
edge $-1 $333 -13.050671802367455 $226 -8.7707588089936284 $131 $334 forward 7 unknown #
coedge $-1 $133 $132 $335 $336 reversed $52 $-1 #
coedge $-1 $337 $338 $133 $222 forward $339 $-1 #
edge $-1 $225 8.7707588089936284 $340 13.050671802367455 $221 $341 forward 7 unknown #
coedge $-1 $216 $134 $338 $342 forward $129 $-1 #
coedge $-1 $134 $216 $217 $330 forward $129 $-1 #
vertex $-1 $222 $343 #
vertex $-1 $330 $344 #
straight-curve $-1 50.928067873165077 0 -8.7707588089936284 0 1 0 I I #
face $-1 $-1 $240 $30 $-1 $345 forward single #
loop $-1 $-1 $346 $136 #
plane-surface $-1 0 26.213181820577582 0 0 -1 0 0 0 -1 forward_v I I I I #
coedge $-1 $347 $348 $349 $350 reversed $137 $-1 #
coedge $-1 $351 $139 $141 $238 forward $85 $-1 #
coedge $-1 $139 $351 $347 $352 forward $85 $-1 #
coedge $-1 $349 $142 $139 $235 forward $240 $-1 #
edge $-1 $242 0.72552963616339383 $353 17.840574350846587 $234 $354 forward 7 unknown #
coedge $-1 $355 $356 $140 $237 forward $229 $-1 #
edge $-1 $357 -50.919079796831312 $241 -47.755591895263848 $236 $358 forward 7 unknown #
edge $-1 $242 47.50485019719234 $357 52.426363641155142 $141 $359 forward 7 unknown #
coedge $-1 $142 $349 $355 $360 forward $240 $-1 #
loop $-1 $-1 $349 $228 #
vertex $-1 $237 $361 #
vertex $-1 $143 $362 #
straight-curve $-1 10.008581629668384 25.762060230446462 13.050671802367454 0 -1 0 I I #
coedge $-1 $244 $244 $-1 $363 reversed $146 $-1 #
edge $-1 $364 0 $364 6.2831853071796004 $147 $365 forward 7 unknown #
vertex $-1 $150 $366 #
ellipse-curve $-1 14.898594405292158 24.328132824149183 11.468927851583723 0 0.64278761758704617 0.76604443648966558 1 0 0 1 I I #
coedge $-1 $248 $248 $-1 $367 reversed $153 $-1 #
edge $-1 $368 0 $368 6.2831853071796004 $154 $369 forward 7 unknown #
vertex $-1 $157 $370 #
ellipse-curve $-1 22.233613568727804 24.328132824149183 11.468927851583723 0 0.64278761758704617 0.76604443648966558 1 0 0 1 I I #
face $-1 $-1 $371 $33 $-1 $372 reversed single #
loop $-1 $-1 $164 $158 #
plane-surface $-1 0 0 13.050671802367455 0 0 1 1 0 0 forward_v I I I I #
coedge $-1 $373 $374 $375 $376 reversed $159 $-1 #
coedge $-1 $377 $161 $163 $262 forward $99 $-1 #
coedge $-1 $161 $377 $373 $378 forward $99 $-1 #
coedge $-1 $375 $164 $161 $259 forward $253 $-1 #
edge $-1 $265 -17.840574350846587 $379 -0.72552963616339383 $258 $380 forward 7 unknown #
coedge $-1 $381 $382 $162 $261 forward $371 $-1 #
edge $-1 $383 -34.069571105006176 $264 -30.906083203438712 $260 $384 forward 7 unknown #
edge $-1 $265 -4.9215134439628336 $383 -2.7747421096340558e-014 $163 $385 forward 7 unknown #
coedge $-1 $164 $375 $381 $386 forward $253 $-1 #
vertex $-1 $261 $387 #
vertex $-1 $165 $388 #
straight-curve $-1 27.123626344351578 -45.842522326791965 13.050671802367454 0 1 0 I I #
coedge $-1 $267 $267 $-1 $389 reversed $168 $-1 #
edge $-1 $390 0 $390 6.2831853071796004 $169 $391 forward 7 unknown #
vertex $-1 $172 $392 #
ellipse-curve $-1 14.898594405292158 -24.328132824149183 11.468927851583722 0 -0.64278761758704617 0.76604443648966558 1 0 0 1 I I #
coedge $-1 $271 $271 $-1 $393 reversed $175 $-1 #
edge $-1 $394 0 $394 6.2831853071796004 $176 $395 forward 7 unknown #
vertex $-1 $179 $396 #
ellipse-curve $-1 22.233613568727804 -24.328132824149183 11.468927851583722 0 -0.64278761758704617 0.76604443648966558 1 0 0 1 I I #
face $-1 $-1 $195 $27 $-1 $397 reversed single #
loop $-1 $-1 $291 $180 #
plane-surface $-1 0 26.213181820577582 0 0 -1 0 0 0 -1 forward_v I I I I #
coedge $-1 $398 $289 $292 $399 forward $181 $-1 #
coedge $-1 $295 $183 $184 $283 reversed $113 $-1 #
coedge $-1 $289 $398 $183 $281 reversed $181 $-1 #
edge $-1 $296 -13.050671802367455 $400 13.050671802367455 $280 $401 forward 7 unknown #
coedge $-1 $185 $184 $398 $402 forward $73 $-1 #
edge $-1 $287 -50.928067873165077 $400 50.928067873165077 $279 $403 forward 7 unknown #
coedge $-1 $292 $291 $185 $285 reversed $276 $-1 #
edge $-1 $404 -50.928067873165077 $286 50.928067873165077 $284 $405 forward 7 unknown #
vertex $-1 $187 $406 #
vertex $-1 $298 $407 #
straight-curve $-1 50.928067873165077 0 -13.050671802367455 0 -1 0 I I #
coedge $-1 $278 $280 $188 $290 reversed $181 $-1 #
edge $-1 $293 -26.213181820577582 $296 26.213181820577582 $289 $408 forward 7 unknown #
coedge $-1 $284 $189 $194 $299 forward $276 $-1 #
coedge $-1 $189 $284 $278 $399 reversed $276 $-1 #
vertex $-1 $190 $409 #
straight-curve $-1 0 26.213181820577582 13.050671802367455 -1 0 0 I I #
coedge $-1 $191 $279 $193 $298 reversed $113 $-1 #
vertex $-1 $290 $410 #
straight-curve $-1 0 -26.213181820577582 13.050671802367455 1 0 0 I I #
edge $-1 $196 -13.050671802367455 $287 13.050671802367455 $193 $411 forward 7 unknown #
edge $-1 $197 -13.050671802367455 $286 13.050671802367455 $194 $412 forward 7 unknown #
point $-1 50.928067873165077 -26.213181820577582 13.050671802367455 #
point $-1 50.928067873165077 26.213181820577582 13.050671802367455 #
face $-1 $-1 $316 $28 $-1 $413 reversed single #
loop $-1 $-1 $312 $199 #
plane-surface $-1 0 0 -13.050671802367455 0 0 1 1 0 0 forward_v I I I I #
coedge $-1 $414 $415 $306 $416 forward $200 $-1 #
coedge $-1 $203 $202 $305 $416 reversed $77 $-1 #
coedge $-1 $312 $417 $202 $308 forward $303 $-1 #
edge $-1 $418 -61.322977550488616 $310 -50.928067873165077 $202 $419 forward 7 unknown #
edge $-1 $210 -5.1974548386617698 $420 5.1974548386617698 $203 $421 forward 7 unknown #
vertex $-1 $204 $422 #
straight-curve $-1 -50.928067873165077 26.213181820577582 0 0 0 -1 I I #
coedge $-1 $423 $307 $205 $313 forward $303 $-1 #
edge $-1 $310 -26.213181820577582 $317 26.213181820577582 $312 $424 forward 7 unknown #
coedge $-1 $425 $206 $209 $320 reversed $316 $-1 #
coedge $-1 $206 $425 $423 $426 reversed $316 $-1 #
loop $-1 $-1 $206 $302 #
vertex $-1 $426 $427 #
straight-curve $-1 -50.928067873165077 -26.213181820577582 0 0 0 1 I I #
coedge $-1 $209 $208 $415 $428 forward $121 $-1 #
edge $-1 $429 -5.1974548386617698 $211 5.1974548386617698 $314 $430 forward 7 unknown #
point $-1 -50.928067873165077 26.213181820577582 -8.7707588089936284 #
point $-1 -50.928067873165077 -26.213181820577582 -8.7707588089936284 #
face $-1 $-1 $339 $29 $-1 $431 reversed single #
loop $-1 $-1 $335 $213 #
plane-surface $-1 0 0 -13.050671802367455 0 0 1 1 0 0 forward_v I I I I #
coedge $-1 $432 $327 $433 $434 forward $214 $-1 #
coedge $-1 $326 $435 $216 $328 reversed $214 $-1 #
edge $-1 $436 -26.213181820577582 $437 26.213181820577582 $327 $438 forward 7 unknown #
coedge $-1 $218 $217 $435 $439 forward $81 $-1 #
edge $-1 $437 -5.1974548386617698 $226 5.1974548386617698 $217 $440 forward 7 unknown #
coedge $-1 $441 $335 $218 $332 forward $324 $-1 #
edge $-1 $333 -5.1974548386617698 $442 5.1974548386617698 $218 $443 forward 7 unknown #
vertex $-1 $332 $444 #
straight-curve $-1 50.928067873165077 26.213181820577582 0 0 0 1 I I #
coedge $-1 $331 $445 $220 $336 forward $324 $-1 #
edge $-1 $340 -26.213181820577582 $333 26.213181820577582 $335 $446 forward 7 unknown #
coedge $-1 $433 $221 $445 $447 reversed $339 $-1 #
coedge $-1 $221 $433 $223 $342 reversed $339 $-1 #
loop $-1 $-1 $221 $323 #
vertex $-1 $222 $448 #
straight-curve $-1 50.928067873165077 -26.213181820577582 0 0 0 -1 I I #
edge $-1 $225 -5.1974548386617698 $436 5.1974548386617698 $338 $449 forward 7 unknown #
point $-1 50.928067873165077 -26.213181820577582 -8.7707588089936284 #
point $-1 50.928067873165077 26.213181820577582 -8.7707588089936284 #
plane-surface $-1 0 0 13.050671802367455 0 0 1 1 0 0 forward_v I I I I #
coedge $-1 $356 $355 $348 $450 forward $229 $-1 #
coedge $-1 $348 $231 $233 $352 reversed $137 $-1 #
coedge $-1 $231 $347 $346 $450 reversed $137 $-1 #
coedge $-1 $239 $234 $231 $350 forward $240 $-1 #
edge $-1 $353 -3.3189764027256778 $451 0.45112159013111963 $349 $452 forward 7 unknown #
coedge $-1 $233 $232 $356 $453 reversed $85 $-1 #
edge $-1 $454 -52.426363641155142 $353 -47.50485019719234 $347 $455 forward 7 unknown #
vertex $-1 $235 $456 #
straight-curve $-1 9.2830519935049907 22.443083827720777 13.050671802367457 1 0 0 I I #
coedge $-1 $346 $236 $239 $360 reversed $229 $-1 #
coedge $-1 $236 $346 $351 $453 forward $229 $-1 #
vertex $-1 $237 $457 #
straight-curve $-1 10.008581629668384 26.213181820577582 60.806263697631302 0 0 1 I I #
straight-curve $-1 10.008581629668384 -13.947742372113403 43.58620128445024 0 0.76604443648966558 -0.64278761758704617 I I #
edge $-1 $451 -27.123626344351578 $241 -10.008581629668384 $355 $458 forward 7 unknown #
point $-1 10.008581629668384 26.213181820577582 13.050671802367455 #
point $-1 10.008581629668384 22.443083827720784 13.050671802367457 #
edge $-1 $459 1 $459 0 $244 $-1 forward 7 unknown #
vertex $-1 $245 $460 #
ellipse-curve $-1 14.898594405292158 21.93853694838603 8.6211184414419346 0 0.64278761758704617 0.76604443648966558 1 0 0 1 I I #
point $-1 15.898594405292158 24.328132824149172 11.468927851583715 #
edge $-1 $461 1 $461 0 $248 $-1 forward 7 unknown #
vertex $-1 $249 $462 #
ellipse-curve $-1 22.233613568727804 21.93853694838603 8.6211184414419346 0 0.64278761758704617 0.76604443648966558 1 0 0 1 I I #
point $-1 23.233613568727804 24.328132824149172 11.468927851583715 #
loop $-1 $-1 $260 $252 #
plane-surface $-1 0 -26.213181820577582 0 0 1 0 0 0 1 forward_v I I I I #
coedge $-1 $374 $255 $257 $378 reversed $159 $-1 #
coedge $-1 $255 $373 $463 $464 reversed $159 $-1 #
coedge $-1 $263 $258 $255 $376 forward $253 $-1 #
edge $-1 $379 -23.399438499071184 $465 -19.629340506214383 $375 $466 forward 7 unknown #
coedge $-1 $257 $256 $382 $467 reversed $99 $-1 #
edge $-1 $468 2.7747421096340558e-014 $379 4.9215134439628336 $373 $469 forward 7 unknown #
vertex $-1 $259 $470 #
straight-curve $-1 9.2830519935049907 -22.443083827720777 13.050671802367455 -1 0 0 I I #
coedge $-1 $463 $260 $263 $386 reversed $371 $-1 #
coedge $-1 $260 $463 $377 $467 forward $371 $-1 #
vertex $-1 $261 $471 #
straight-curve $-1 27.123626344351578 -26.213181820577582 43.956755005806166 0 0 1 I I #
straight-curve $-1 27.123626344351578 -26.213181820577603 9.8871839007999682 0 -0.76604443648966558 -0.64278761758704617 I I #
edge $-1 $465 10.008581629668384 $264 27.123626344351578 $381 $472 forward 7 unknown #
point $-1 27.123626344351578 -26.213181820577582 13.050671802367455 #
point $-1 27.123626344351578 -22.44308382772078 13.050671802367455 #
edge $-1 $473 1 $473 0 $267 $-1 forward 7 unknown #
vertex $-1 $268 $474 #
ellipse-curve $-1 14.898594405292158 -21.93853694838603 8.6211184414419311 0 -0.64278761758704617 0.76604443648966558 1 0 0 1 I I #
point $-1 15.898594405292158 -24.328132824149172 11.468927851583711 #
edge $-1 $475 1 $475 0 $271 $-1 forward 7 unknown #
vertex $-1 $272 $476 #
ellipse-curve $-1 22.233613568727804 -21.93853694838603 8.6211184414419311 0 -0.64278761758704617 0.76604443648966558 1 0 0 1 I I #
point $-1 23.233613568727804 -24.328132824149172 11.468927851583711 #
plane-surface $-1 50.928067873165077 0 0 -1 0 0 0 0 1 forward_v I I I I #
coedge $-1 $280 $278 $282 $402 reversed $181 $-1 #
edge $-1 $293 -13.050671802367455 $404 13.050671802367455 $292 $477 forward 7 unknown #
vertex $-1 $402 $478 #
straight-curve $-1 -50.928067873165077 -26.213181820577582 0 0 0 -1 I I #
edge $-1 $400 -26.213181820577582 $404 26.213181820577582 $398 $479 forward 7 unknown #
straight-curve $-1 0 -26.213181820577582 -13.050671802367455 -1 0 0 I I #
vertex $-1 $285 $480 #
straight-curve $-1 0 26.213181820577582 -13.050671802367455 1 0 0 I I #
point $-1 50.928067873165077 26.213181820577582 -13.050671802367455 #
point $-1 50.928067873165077 -26.213181820577582 -13.050671802367455 #
straight-curve $-1 -50.928067873165077 0 13.050671802367455 0 -1 0 I I #
point $-1 -50.928067873165077 26.213181820577582 13.050671802367455 #
point $-1 -50.928067873165077 -26.213181820577582 13.050671802367455 #
straight-curve $-1 50.928067873165077 -26.213181820577582 0 0 0 -1 I I #
straight-curve $-1 50.928067873165077 26.213181820577582 0 0 0 -1 I I #
plane-surface $-1 0 -26.213181820577582 0 0 1 0 0 0 1 forward_v I I I I #
coedge $-1 $481 $305 $417 $482 reversed $200 $-1 #
coedge $-1 $305 $481 $319 $428 reversed $200 $-1 #
edge $-1 $420 -2.1399564966869136 $418 2.1399564966869136 $306 $483 forward 7 unknown #
coedge $-1 $307 $423 $414 $482 forward $303 $-1 #
vertex $-1 $308 $484 #
straight-curve $-1 0 26.213181820577582 -13.050671802367455 1 0 0 I I #
vertex $-1 $309 $485 #
straight-curve $-1 -56.125522711826846 26.213181820577582 -8.7707588089936284 -1 0 0 I I #
point $-1 -50.928067873165077 26.213181820577582 -13.050671802367455 #
coedge $-1 $417 $312 $315 $426 forward $303 $-1 #
straight-curve $-1 -50.928067873165077 0 -13.050671802367455 0 -1 0 I I #
coedge $-1 $315 $314 $481 $486 forward $316 $-1 #
edge $-1 $317 -5.1974548386617698 $487 5.1974548386617698 $315 $488 forward 7 unknown #
point $-1 -50.928067873165077 -26.213181820577582 -13.050671802367455 #
edge $-1 $420 -26.213181820577582 $429 26.213181820577582 $415 $489 forward 7 unknown #
vertex $-1 $428 $490 #
straight-curve $-1 -56.125522711826846 -26.213181820577582 -8.7707588089936284 1 0 0 I I #
plane-surface $-1 0 -26.213181820577582 0 0 1 0 0 0 1 forward_v I I I I #
coedge $-1 $435 $326 $441 $491 reversed $214 $-1 #
coedge $-1 $338 $337 $326 $434 reversed $339 $-1 #
edge $-1 $436 -2.1399564966869136 $492 2.1399564966869136 $326 $493 forward 7 unknown #
coedge $-1 $327 $432 $329 $439 reversed $214 $-1 #
vertex $-1 $328 $494 #
vertex $-1 $328 $495 #
straight-curve $-1 61.322977550488616 0 -8.7707588089936284 0 1 0 I I #
edge $-1 $437 -2.1399564966869136 $442 2.1399564966869136 $435 $496 forward 7 unknown #
straight-curve $-1 56.125522711826846 26.213181820577582 -8.7707588089936284 -1 0 0 I I #
coedge $-1 $445 $331 $432 $491 forward $324 $-1 #
vertex $-1 $491 $497 #
straight-curve $-1 56.125522711826846 26.213181820577582 -13.050671802367455 1 0 0 I I #
point $-1 50.928067873165077 26.213181820577582 -13.050671802367455 #
coedge $-1 $335 $441 $337 $447 forward $324 $-1 #
straight-curve $-1 50.928067873165077 0 -13.050671802367455 0 1 0 I I #
edge $-1 $492 -5.1974548386617698 $340 5.1974548386617698 $337 $498 forward 7 unknown #
point $-1 50.928067873165077 -26.213181820577582 -13.050671802367455 #
straight-curve $-1 56.125522711826846 -26.213181820577582 -8.7707588089936284 1 0 0 I I #
edge $-1 $451 47.755591895263848 $454 50.919079796831312 $346 $499 forward 7 unknown #
vertex $-1 $360 $500 #
straight-curve $-1 27.123626344351578 25.762060230446462 13.050671802367454 0 1 0 I I #
edge $-1 $454 -17.840574350846587 $357 -0.72552963616339383 $356 $501 forward 7 unknown #
vertex $-1 $453 $502 #
straight-curve $-1 27.123626344351578 -13.947742372113403 43.58620128445024 0 -0.76604443648966558 0.64278761758704617 I I #
point $-1 27.123626344351578 22.443083827720784 13.050671802367457 #
point $-1 10.008581629668384 26.213181820577582 9.8871839007999895 #
straight-curve $-1 0 26.213181820577582 13.050671802367455 -1 0 0 I I #
vertex $-1 $363 $503 #
point $-1 15.898594405292158 21.93853694838603 8.6211184414419346 #
vertex $-1 $367 $504 #
point $-1 23.233613568727804 21.93853694838603 8.6211184414419346 #
coedge $-1 $382 $381 $374 $464 forward $371 $-1 #
edge $-1 $465 30.906083203438712 $468 34.069571105006176 $463 $505 forward 7 unknown #
vertex $-1 $386 $506 #
straight-curve $-1 10.008581629668384 -45.842522326791965 13.050671802367454 0 -1 0 I I #
edge $-1 $468 0.72552963616339383 $383 17.840574350846587 $382 $507 forward 7 unknown #
vertex $-1 $467 $508 #
straight-curve $-1 10.008581629668384 -26.213181820577603 9.8871839007999682 0 0.76604443648966558 0.64278761758704617 I I #
point $-1 10.008581629668384 -22.44308382772078 13.050671802367455 #
point $-1 27.123626344351578 -26.213181820577582 9.887183900799986 #
straight-curve $-1 0 -26.213181820577582 13.050671802367455 1 0 0 I I #
vertex $-1 $389 $509 #
point $-1 15.898594405292158 -21.93853694838603 8.6211184414419311 #
vertex $-1 $393 $510 #
point $-1 23.233613568727804 -21.93853694838603 8.6211184414419311 #
straight-curve $-1 -50.928067873165077 26.213181820577582 0 0 0 -1 I I #
point $-1 -50.928067873165077 -26.213181820577582 -13.050671802367455 #
straight-curve $-1 -50.928067873165077 0 -13.050671802367455 0 1 0 I I #
point $-1 -50.928067873165077 26.213181820577582 -13.050671802367455 #
coedge $-1 $415 $414 $425 $486 reversed $200 $-1 #
edge $-1 $487 -26.213181820577582 $418 26.213181820577582 $414 $511 forward 7 unknown #
straight-curve $-1 -61.322977550488616 26.213181820577582 -10.910715305680542 0 0 -1 I I #
point $-1 -61.322977550488616 26.213181820577582 -13.050671802367455 #
point $-1 -61.322977550488616 26.213181820577582 -8.7707588089936284 #
edge $-1 $429 -2.1399564966869136 $487 2.1399564966869136 $481 $512 forward 7 unknown #
vertex $-1 $482 $513 #
straight-curve $-1 -56.125522711826846 -26.213181820577582 -13.050671802367455 -1 0 0 I I #
straight-curve $-1 -61.322977550488616 0 -8.7707588089936284 0 -1 0 I I #
point $-1 -61.322977550488616 -26.213181820577582 -8.7707588089936284 #
edge $-1 $442 -26.213181820577582 $492 26.213181820577582 $432 $514 forward 7 unknown #
vertex $-1 $434 $515 #
straight-curve $-1 61.322977550488616 -26.213181820577582 -10.910715305680542 0 0 -1 I I #
point $-1 61.322977550488616 -26.213181820577582 -8.7707588089936284 #
point $-1 61.322977550488616 26.213181820577582 -8.7707588089936284 #
straight-curve $-1 61.322977550488616 26.213181820577582 -10.910715305680542 0 0 -1 I I #
point $-1 61.322977550488616 26.213181820577582 -13.050671802367455 #
straight-curve $-1 56.125522711826846 -26.213181820577582 -13.050671802367455 -1 0 0 I I #
straight-curve $-1 27.123626344351578 26.213181820577582 60.806263697631302 0 0 -1 I I #
point $-1 27.123626344351578 26.213181820577582 13.050671802367455 #
straight-curve $-1 9.2830519935049907 26.213181820577582 9.8871839007999913 -1 0 0 I I #
point $-1 27.123626344351578 26.213181820577582 9.8871839007999895 #
point $-1 14.898594405292158 21.295749330798984 7.8550740049522698 #
point $-1 22.233613568727804 21.295749330798984 7.8550740049522698 #
straight-curve $-1 10.008581629668384 -26.213181820577582 43.956755005806166 0 0 -1 I I #
point $-1 10.008581629668384 -26.213181820577582 13.050671802367455 #
straight-curve $-1 9.2830519935049907 -26.213181820577582 9.8871839007999842 1 0 0 I I #
point $-1 10.008581629668384 -26.213181820577582 9.887183900799986 #
point $-1 14.898594405292158 -21.295749330798984 7.8550740049522663 #
point $-1 22.233613568727804 -21.295749330798984 7.8550740049522663 #
straight-curve $-1 -61.322977550488616 0 -13.050671802367455 0 1 0 I I #
straight-curve $-1 -61.322977550488616 -26.213181820577582 -10.910715305680542 0 0 -1 I I #
point $-1 -61.322977550488616 -26.213181820577582 -13.050671802367455 #
straight-curve $-1 61.322977550488616 0 -13.050671802367455 0 -1 0 I I #
point $-1 61.322977550488616 -26.213181820577582 -13.050671802367455 #
End-of-ACIS-data 