500 0 13 0           
7 Unknown 11 ACIS 5.0 NT 24 Fri Mar 26 02:49:27 1999 
-1 9.9999999999999995e-007 1e-010 
body $-1 $13 $-1 $14 #
body $-1 $15 $-1 $16 #
body $-1 $17 $-1 $18 #
body $-1 $19 $-1 $20 #
body $-1 $21 $-1 $22 #
body $-1 $23 $-1 $24 #
body $-1 $25 $-1 $26 #
body $-1 $27 $-1 $28 #
body $-1 $29 $-1 $30 #
body $-1 $31 $-1 $32 #
body $-1 $33 $-1 $34 #
body $-1 $35 $-1 $36 #
body $-1 $37 $-1 $38 #
lump $-1 $-1 $39 $0 #
transform $-1 1 0 0 0 1 0 0 0 1 40.408948026978365 23.965057713964288 9.1027286082949157 1 rotate no_reflect no_shear #
lump $-1 $-1 $40 $1 #
transform $-1 1 0 0 0 1 0 0 0 1 5.0562189064737781 23.965057713964288 10.748949375895595 1 rotate no_reflect no_shear #
lump $-1 $-1 $41 $2 #
transform $-1 1 0 0 0 1 0 0 0 1 75.761677147482942 23.965057713964288 10.748949375895595 1 rotate no_reflect no_shear #
lump $-1 $-1 $42 $3 #
transform $-1 1 0 0 0 0.65605901945558964 -0.75470958851134928 0 0.75470958851134928 0.65605901945558964 31.245115561235451 77.479171973123186 101.72838308366499 1 rotate no_reflect no_shear #
lump $-1 $-1 $43 $4 #
transform $-1 1 0 0 0 -0.65605901945558964 0.75470958851134928 0 -0.75470958851134928 -0.65605901945558964 31.245115561235451 41.302649937410514 11.75137602085546 1 rotate no_reflect no_shear #
lump $-1 $-1 $44 $5 #
transform $-1 1 0 0 0 0.65605901945558964 -0.75470958851134928 0 0.75470958851134928 0.65605901945558964 49.572780492721272 77.479171973123186 101.72838308366499 1 rotate no_reflect no_shear #
lump $-1 $-1 $45 $6 #
transform $-1 1 0 0 0 -0.65605901945558964 0.75470958851134928 0 -0.75470958851134928 -0.65605901945558964 49.572780492721272 41.302649937410514 11.75137602085546 1 rotate no_reflect no_shear #
lump $-1 $-1 $46 $7 #
transform $-1 1 0 0 0 0.81915203911291934 0.57357644374324357 0 -0.57357644374324357 0.81915203911291934 34.12852685768258 -46.355241409439614 80.178935510859901 1 rotate no_reflect no_shear #
lump $-1 $-1 $47 $8 #
transform $-1 1 0 0 0 -0.81915203911291934 -0.57357644374324357 0 0.57357644374324357 -0.81915203911291934 31.436917785127243 5.351403160167914 12.760936284409844 1 rotate no_reflect no_shear #
lump $-1 $-1 $48 $9 #
transform $-1 1 0 0 0 -0.81915203911291934 -0.57357644374324357 0 0.57357644374324357 -0.81915203911291934 36.820135930237917 5.351403160167914 12.760936284409844 1 rotate no_reflect no_shear #
lump $-1 $-1 $49 $10 #
transform $-1 1 0 0 0 0.81915203911291934 0.57357644374324357 0 -0.57357644374324357 0.81915203911291934 64.425037071713376 -46.355241409439614 80.178935510859901 1 rotate no_reflect no_shear #
lump $-1 $-1 $50 $11 #
transform $-1 1 0 0 0 -0.81915203911291934 -0.57357644374324357 0 0.57357644374324357 -0.81915203911291934 61.733427999158046 5.351403160167914 12.760936284409844 1 rotate no_reflect no_shear #
lump $-1 $-1 $51 $12 #
transform $-1 1 0 0 0 -0.81915203911291934 -0.57357644374324357 0 0.57357644374324357 -0.81915203911291934 67.116646144268714 5.351403160167914 12.760936284409844 1 rotate no_reflect no_shear #
shell $-1 $-1 $-1 $52 $-1 $13 #
shell $-1 $-1 $-1 $53 $-1 $15 #
shell $-1 $-1 $-1 $54 $-1 $17 #
shell $-1 $-1 $-1 $55 $-1 $19 #
shell $-1 $-1 $-1 $56 $-1 $21 #
shell $-1 $-1 $-1 $57 $-1 $23 #
shell $-1 $-1 $-1 $58 $-1 $25 #
shell $-1 $-1 $-1 $59 $-1 $27 #
shell $-1 $-1 $-1 $60 $-1 $29 #
shell $-1 $-1 $-1 $61 $-1 $31 #
shell $-1 $-1 $-1 $62 $-1 $33 #
shell $-1 $-1 $-1 $63 $-1 $35 #
shell $-1 $-1 $-1 $64 $-1 $37 #
face $-1 $65 $66 $39 $-1 $67 forward single #
face $-1 $68 $69 $40 $-1 $70 forward single #
face $-1 $71 $72 $41 $-1 $73 forward single #
face $-1 $74 $75 $42 $-1 $76 forward single #
face $-1 $77 $78 $43 $-1 $79 forward single #
face $-1 $80 $81 $44 $-1 $82 forward single #
face $-1 $83 $84 $45 $-1 $85 forward single #
face $-1 $86 $87 $46 $-1 $88 forward single #
face $-1 $89 $90 $47 $-1 $91 forward single #
face $-1 $92 $93 $48 $-1 $94 forward single #
face $-1 $95 $96 $49 $-1 $97 forward single #
face $-1 $98 $99 $50 $-1 $100 forward single #
face $-1 $101 $102 $51 $-1 $103 forward single #
face $-1 $104 $105 $39 $-1 $106 reversed single #
loop $-1 $-1 $107 $52 #
plane-surface $-1 0 0 9.1027286082949157 0 0 1 1 0 0 forward_v I I I I #
face $-1 $108 $109 $40 $-1 $110 reversed single #
loop $-1 $-1 $111 $53 #
plane-surface $-1 0 0 1.8064056146561382 0 0 1 1 0 0 forward_v I I I I #
face $-1 $112 $113 $41 $-1 $114 reversed single #
loop $-1 $-1 $115 $54 #
plane-surface $-1 0 0 1.8064056146561382 0 0 1 1 0 0 forward_v I I I I #
face $-1 $116 $117 $42 $-1 $118 reversed single #
loop $-1 $-1 $119 $55 #
plane-surface $-1 0 0 80.81789605395673 0 0 1 1 0 0 forward_v I I I I #
face $-1 $120 $121 $43 $-1 $122 forward single #
loop $-1 $123 $124 $56 #
cone-surface $-1 0 0 -3.1325495162816255 0 0 1 1.5 0 0 1 I I 0 1 1.5 forward I I I I #
face $-1 $125 $126 $44 $-1 $127 reversed single #
loop $-1 $-1 $128 $57 #
plane-surface $-1 0 0 80.81789605395673 0 0 1 1 0 0 forward_v I I I I #
face $-1 $129 $130 $45 $-1 $131 forward single #
loop $-1 $132 $133 $58 #
cone-surface $-1 0 0 -3.1325495162816255 0 0 1 1.5 0 0 1 I I 0 1 1.5 forward I I I I #
face $-1 $134 $135 $46 $-1 $136 reversed single #
loop $-1 $-1 $137 $59 #
plane-surface $-1 0 0 80.81789605395673 0 0 1 1 0 0 forward_v I I I I #
face $-1 $138 $139 $47 $-1 $140 forward single #
loop $-1 $141 $142 $60 #
cone-surface $-1 0 0 -2.4077043977172146 0 0 1 1.5 0 0 1 I I 0 1 1.5 forward I I I I #
face $-1 $143 $144 $48 $-1 $145 forward single #
loop $-1 $146 $147 $61 #
cone-surface $-1 0 0 -2.4077043977172146 0 0 1 1.5 0 0 1 I I 0 1 1.5 forward I I I I #
face $-1 $148 $149 $49 $-1 $150 reversed single #
loop $-1 $-1 $151 $62 #
plane-surface $-1 0 0 80.81789605395673 0 0 1 1 0 0 forward_v I I I I #
face $-1 $152 $153 $50 $-1 $154 forward single #
loop $-1 $155 $156 $63 #
cone-surface $-1 0 0 -2.4077043977172146 0 0 1 1.5 0 0 1 I I 0 1 1.5 forward I I I I #
face $-1 $157 $158 $51 $-1 $159 forward single #
loop $-1 $160 $161 $64 #
cone-surface $-1 0 0 -2.4077043977172146 0 0 1 1.5 0 0 1 I I 0 1 1.5 forward I I I I #
face $-1 $162 $163 $39 $-1 $164 reversed single #
loop $-1 $-1 $165 $65 #
plane-surface $-1 0 0 -9.1027286082949157 0 0 1 1 0 0 forward_v I I I I #
coedge $-1 $166 $167 $168 $169 forward $66 $-1 #
face $-1 $170 $171 $40 $-1 $172 reversed single #
loop $-1 $-1 $173 $68 #
plane-surface $-1 0 0 -1.8064056146561382 0 0 1 1 0 0 forward_v I I I I #
coedge $-1 $174 $175 $176 $177 forward $69 $-1 #
face $-1 $178 $179 $41 $-1 $180 reversed single #
loop $-1 $-1 $181 $71 #
plane-surface $-1 0 0 -1.8064056146561382 0 0 1 1 0 0 forward_v I I I I #
coedge $-1 $182 $183 $184 $185 forward $72 $-1 #
face $-1 $186 $187 $42 $-1 $188 reversed single #
loop $-1 $-1 $189 $74 #
plane-surface $-1 0 0 -80.81789605395673 0 0 1 1 0 0 forward_v I I I I #
coedge $-1 $190 $191 $192 $193 forward $75 $-1 #
face $-1 $-1 $194 $43 $-1 $195 forward single #
loop $-1 $-1 $196 $77 #
plane-surface $-1 0 0 -5.515099032563251 0 0 -1 -1 0 0 forward_v I I I I #
loop $-1 $-1 $197 $56 #
coedge $-1 $124 $124 $196 $198 reversed $78 $-1 #
face $-1 $199 $200 $44 $-1 $201 reversed single #
loop $-1 $-1 $202 $80 #
plane-surface $-1 0 0 -80.81789605395673 0 0 1 1 0 0 forward_v I I I I #
coedge $-1 $203 $204 $205 $206 forward $81 $-1 #
face $-1 $-1 $207 $45 $-1 $208 forward single #
loop $-1 $-1 $209 $83 #
plane-surface $-1 0 0 -5.515099032563251 0 0 -1 -1 0 0 forward_v I I I I #
loop $-1 $-1 $210 $58 #
coedge $-1 $133 $133 $209 $211 reversed $84 $-1 #
face $-1 $212 $213 $46 $-1 $214 reversed single #
loop $-1 $-1 $215 $86 #
plane-surface $-1 0 0 -80.81789605395673 0 0 1 1 0 0 forward_v I I I I #
coedge $-1 $216 $217 $218 $219 forward $87 $-1 #
face $-1 $-1 $220 $47 $-1 $221 forward single #
loop $-1 $-1 $222 $89 #
plane-surface $-1 0 0 -4.06540879543443 0 0 -1 -1 0 0 forward_v I I I I #
loop $-1 $-1 $223 $60 #
coedge $-1 $142 $142 $222 $224 reversed $90 $-1 #
face $-1 $-1 $225 $48 $-1 $226 forward single #
loop $-1 $-1 $227 $92 #
plane-surface $-1 0 0 -4.06540879543443 0 0 -1 -1 0 0 forward_v I I I I #
loop $-1 $-1 $228 $61 #
coedge $-1 $147 $147 $227 $229 reversed $93 $-1 #
face $-1 $230 $231 $49 $-1 $232 reversed single #
loop $-1 $-1 $233 $95 #
plane-surface $-1 0 0 -80.81789605395673 0 0 1 1 0 0 forward_v I I I I #
coedge $-1 $234 $235 $236 $237 forward $96 $-1 #
face $-1 $-1 $238 $50 $-1 $239 forward single #
loop $-1 $-1 $240 $98 #
plane-surface $-1 0 0 -4.06540879543443 0 0 -1 -1 0 0 forward_v I I I I #
loop $-1 $-1 $241 $63 #
coedge $-1 $156 $156 $240 $242 reversed $99 $-1 #
face $-1 $-1 $243 $51 $-1 $244 forward single #
loop $-1 $-1 $245 $101 #
plane-surface $-1 0 0 -4.06540879543443 0 0 -1 -1 0 0 forward_v I I I I #
loop $-1 $-1 $246 $64 #
coedge $-1 $161 $161 $245 $247 reversed $102 $-1 #
face $-1 $248 $249 $39 $-1 $250 reversed single #
loop $-1 $-1 $251 $104 #
plane-surface $-1 0 -23.965057713964288 0 0 1 0 0 0 1 forward_v I I I I #
coedge $-1 $252 $253 $254 $255 forward $105 $-1 #
coedge $-1 $256 $107 $257 $258 forward $66 $-1 #
coedge $-1 $107 $256 $259 $260 forward $66 $-1 #
coedge $-1 $261 $262 $107 $169 reversed $263 $-1 #
edge $-1 $264 -23.965057713964288 $265 23.965057713964288 $168 $266 forward 7 unknown #
face $-1 $267 $268 $40 $-1 $269 reversed single #
loop $-1 $-1 $270 $108 #
plane-surface $-1 0 -23.965057713964288 0 0 1 0 0 0 1 forward_v I I I I #
coedge $-1 $271 $272 $273 $274 forward $109 $-1 #
coedge $-1 $275 $111 $276 $277 forward $69 $-1 #
coedge $-1 $111 $275 $278 $279 forward $69 $-1 #
coedge $-1 $280 $281 $111 $177 reversed $282 $-1 #
edge $-1 $283 -23.965057713964288 $284 23.965057713964288 $176 $285 forward 7 unknown #
face $-1 $286 $287 $41 $-1 $288 reversed single #
loop $-1 $-1 $289 $112 #
plane-surface $-1 0 -23.965057713964288 0 0 1 0 0 0 1 forward_v I I I I #
coedge $-1 $290 $291 $292 $293 forward $113 $-1 #
coedge $-1 $294 $115 $295 $296 forward $72 $-1 #
coedge $-1 $115 $294 $297 $298 forward $72 $-1 #
coedge $-1 $299 $300 $115 $185 reversed $301 $-1 #
edge $-1 $302 -23.965057713964288 $303 23.965057713964288 $184 $304 forward 7 unknown #
face $-1 $305 $306 $42 $-1 $307 reversed single #
loop $-1 $-1 $308 $116 #
plane-surface $-1 0 -161.63579210791346 0 0 1 0 0 0 1 forward_v I I I I #
coedge $-1 $309 $310 $311 $312 forward $117 $-1 #
coedge $-1 $313 $119 $314 $315 forward $75 $-1 #
coedge $-1 $119 $313 $316 $317 forward $75 $-1 #
coedge $-1 $318 $319 $119 $193 reversed $320 $-1 #
edge $-1 $321 -161.63579210791346 $322 161.63579210791346 $192 $323 forward 7 unknown #
loop $-1 $324 $325 $120 #
cone-surface $-1 0 0 0 0 0 1 0.75 0 0 1 I I -0.70710678118654757 0.70710678118654757 0.75 forward I I I I #
coedge $-1 $196 $196 $124 $198 forward $121 $-1 #
coedge $-1 $197 $197 $325 $326 forward $123 $-1 #
edge $-1 $327 0 $327 6.2831853071796004 $196 $328 forward 7 unknown #
face $-1 $329 $330 $44 $-1 $331 reversed single #
loop $-1 $-1 $332 $125 #
plane-surface $-1 0 -161.63579210791346 0 0 1 0 0 0 1 forward_v I I I I #
coedge $-1 $333 $334 $335 $336 forward $126 $-1 #
coedge $-1 $337 $128 $338 $339 forward $81 $-1 #
coedge $-1 $128 $337 $340 $341 forward $81 $-1 #
coedge $-1 $342 $343 $128 $206 reversed $344 $-1 #
edge $-1 $345 -161.63579210791346 $346 161.63579210791346 $205 $347 forward 7 unknown #
loop $-1 $348 $349 $129 #
cone-surface $-1 0 0 0 0 0 1 0.75 0 0 1 I I -0.70710678118654757 0.70710678118654757 0.75 forward I I I I #
coedge $-1 $209 $209 $133 $211 forward $130 $-1 #
coedge $-1 $210 $210 $349 $350 forward $132 $-1 #
edge $-1 $351 0 $351 6.2831853071796004 $209 $352 forward 7 unknown #
face $-1 $353 $354 $46 $-1 $355 reversed single #
loop $-1 $-1 $356 $134 #
plane-surface $-1 0 -161.63579210791346 0 0 1 0 0 0 1 forward_v I I I I #
coedge $-1 $357 $358 $359 $360 forward $135 $-1 #
coedge $-1 $361 $137 $362 $363 forward $87 $-1 #
coedge $-1 $137 $361 $364 $365 forward $87 $-1 #
coedge $-1 $366 $367 $137 $219 reversed $368 $-1 #
edge $-1 $369 -161.63579210791346 $370 161.63579210791346 $218 $371 forward 7 unknown #
loop $-1 $372 $373 $138 #
cone-surface $-1 0 0 0 0 0 1 0.75 0 0 1 I I -0.70710678118654757 0.70710678118654757 0.75 forward I I I I #
coedge $-1 $222 $222 $142 $224 forward $139 $-1 #
coedge $-1 $223 $223 $373 $374 forward $141 $-1 #
edge $-1 $375 0 $375 6.2831853071796004 $222 $376 forward 7 unknown #
loop $-1 $377 $378 $143 #
cone-surface $-1 0 0 0 0 0 1 0.75 0 0 1 I I -0.70710678118654757 0.70710678118654757 0.75 forward I I I I #
coedge $-1 $227 $227 $147 $229 forward $144 $-1 #
coedge $-1 $228 $228 $378 $379 forward $146 $-1 #
edge $-1 $380 0 $380 6.2831853071796004 $227 $381 forward 7 unknown #
face $-1 $382 $383 $49 $-1 $384 reversed single #
loop $-1 $-1 $385 $148 #
plane-surface $-1 0 -161.63579210791346 0 0 1 0 0 0 1 forward_v I I I I #
coedge $-1 $386 $387 $388 $389 forward $149 $-1 #
coedge $-1 $390 $151 $391 $392 forward $96 $-1 #
coedge $-1 $151 $390 $393 $394 forward $96 $-1 #
coedge $-1 $395 $396 $151 $237 reversed $397 $-1 #
edge $-1 $398 -161.63579210791346 $399 161.63579210791346 $236 $400 forward 7 unknown #
loop $-1 $401 $402 $152 #
cone-surface $-1 0 0 0 0 0 1 0.75 0 0 1 I I -0.70710678118654757 0.70710678118654757 0.75 forward I I I I #
coedge $-1 $240 $240 $156 $242 forward $153 $-1 #
coedge $-1 $241 $241 $402 $403 forward $155 $-1 #
edge $-1 $404 0 $404 6.2831853071796004 $240 $405 forward 7 unknown #
loop $-1 $406 $407 $157 #
cone-surface $-1 0 0 0 0 0 1 0.75 0 0 1 I I -0.70710678118654757 0.70710678118654757 0.75 forward I I I I #
coedge $-1 $245 $245 $161 $247 forward $158 $-1 #
coedge $-1 $246 $246 $407 $408 forward $160 $-1 #
edge $-1 $409 0 $409 6.2831853071796004 $245 $410 forward 7 unknown #
face $-1 $411 $412 $39 $-1 $413 reversed single #
loop $-1 $-1 $414 $162 #
plane-surface $-1 -40.408948026978365 0 0 1 0 0 0 0 -1 forward_v I I I I #
coedge $-1 $415 $259 $416 $417 forward $163 $-1 #
coedge $-1 $418 $165 $415 $419 forward $105 $-1 #
coedge $-1 $165 $418 $420 $421 forward $105 $-1 #
coedge $-1 $262 $261 $165 $255 reversed $263 $-1 #
edge $-1 $422 -23.965057713964288 $423 23.965057713964288 $254 $424 forward 7 unknown #
coedge $-1 $167 $166 $425 $426 forward $66 $-1 #
coedge $-1 $427 $428 $166 $258 reversed $412 $-1 #
edge $-1 $265 -40.408948026978365 $429 40.408948026978365 $257 $430 forward 7 unknown #
coedge $-1 $251 $431 $167 $260 reversed $163 $-1 #
edge $-1 $432 -40.408948026978365 $264 40.408948026978365 $259 $433 forward 7 unknown #
coedge $-1 $254 $168 $431 $434 forward $263 $-1 #
coedge $-1 $168 $254 $427 $435 reversed $263 $-1 #
loop $-1 $-1 $261 $411 #
vertex $-1 $169 $436 #
vertex $-1 $169 $437 #
straight-curve $-1 40.408948026978365 0 9.1027286082949157 0 1 0 I I #
face $-1 $438 $439 $40 $-1 $440 reversed single #
loop $-1 $-1 $441 $170 #
plane-surface $-1 -5.0562189064737781 0 0 1 0 0 0 0 -1 forward_v I I I I #
coedge $-1 $442 $278 $443 $444 forward $171 $-1 #
coedge $-1 $445 $173 $442 $446 forward $109 $-1 #
coedge $-1 $173 $445 $447 $448 forward $109 $-1 #
coedge $-1 $281 $280 $173 $274 reversed $282 $-1 #
edge $-1 $449 -23.965057713964288 $450 23.965057713964288 $273 $451 forward 7 unknown #
coedge $-1 $175 $174 $452 $453 forward $69 $-1 #
coedge $-1 $454 $455 $174 $277 reversed $439 $-1 #
edge $-1 $284 -5.0562189064737781 $456 5.0562189064737781 $276 $457 forward 7 unknown #
coedge $-1 $270 $458 $175 $279 reversed $171 $-1 #
edge $-1 $459 -5.0562189064737781 $283 5.0562189064737781 $278 $460 forward 7 unknown #
coedge $-1 $273 $176 $458 $461 forward $282 $-1 #
coedge $-1 $176 $273 $454 $462 reversed $282 $-1 #
loop $-1 $-1 $280 $438 #
vertex $-1 $177 $463 #
vertex $-1 $177 $464 #
straight-curve $-1 5.0562189064737781 0 1.8064056146561382 0 1 0 I I #
face $-1 $465 $466 $41 $-1 $467 reversed single #
loop $-1 $-1 $468 $178 #
plane-surface $-1 -5.0562189064737808 0 0 1 0 0 0 0 -1 forward_v I I I I #
coedge $-1 $469 $297 $470 $471 forward $179 $-1 #
coedge $-1 $472 $181 $469 $473 forward $113 $-1 #
coedge $-1 $181 $472 $474 $475 forward $113 $-1 #
coedge $-1 $300 $299 $181 $293 reversed $301 $-1 #
edge $-1 $476 -23.965057713964288 $477 23.965057713964288 $292 $478 forward 7 unknown #
coedge $-1 $183 $182 $479 $480 forward $72 $-1 #
coedge $-1 $481 $482 $182 $296 reversed $466 $-1 #
edge $-1 $303 -5.0562189064737808 $483 5.0562189064737808 $295 $484 forward 7 unknown #
coedge $-1 $289 $485 $183 $298 reversed $179 $-1 #
edge $-1 $486 -5.0562189064737808 $302 5.0562189064737808 $297 $487 forward 7 unknown #
coedge $-1 $292 $184 $485 $488 forward $301 $-1 #
coedge $-1 $184 $292 $481 $489 reversed $301 $-1 #
loop $-1 $-1 $299 $465 #
vertex $-1 $185 $490 #
vertex $-1 $185 $491 #
straight-curve $-1 5.0562189064737808 0 1.8064056146561382 0 1 0 I I #
face $-1 $492 $493 $42 $-1 $494 reversed single #
loop $-1 $-1 $495 $186 #
plane-surface $-1 -6.9347636565075987 0 0 1 0 0 0 0 -1 forward_v I I I I #
coedge $-1 $496 $316 $497 $498 forward $187 $-1 #
coedge $-1 $499 $189 $496 $500 forward $117 $-1 #
coedge $-1 $189 $499 $501 $502 forward $117 $-1 #
coedge $-1 $319 $318 $189 $312 reversed $320 $-1 #
edge $-1 $503 -161.63579210791346 $504 161.63579210791346 $311 $505 forward 7 unknown #
coedge $-1 $191 $190 $506 $507 forward $75 $-1 #
coedge $-1 $508 $509 $190 $315 reversed $493 $-1 #
edge $-1 $322 -6.9347636565075987 $510 6.9347636565075987 $314 $511 forward 7 unknown #
coedge $-1 $308 $512 $191 $317 reversed $187 $-1 #
edge $-1 $513 -6.9347636565075987 $321 6.9347636565075987 $316 $514 forward 7 unknown #
coedge $-1 $311 $192 $512 $515 forward $320 $-1 #
coedge $-1 $192 $311 $508 $516 reversed $320 $-1 #
loop $-1 $-1 $318 $492 #
vertex $-1 $193 $517 #
vertex $-1 $193 $518 #
straight-curve $-1 6.9347636565075987 0 80.81789605395673 0 1 0 I I #
loop $-1 $-1 $519 $120 #
coedge $-1 $325 $325 $197 $326 reversed $194 $-1 #
edge $-1 $520 0 $520 6.2831853071796004 $325 $521 forward 7 unknown #
vertex $-1 $198 $522 #
ellipse-curve $-1 0 0 -5.515099032563251 0 0 -1 1.5 0 0 1 I I #
face $-1 $523 $524 $44 $-1 $525 reversed single #
loop $-1 $-1 $526 $199 #
plane-surface $-1 -6.9347636565075987 0 0 1 0 0 0 0 -1 forward_v I I I I #
coedge $-1 $527 $340 $528 $529 forward $200 $-1 #
coedge $-1 $530 $202 $527 $531 forward $126 $-1 #
coedge $-1 $202 $530 $532 $533 forward $126 $-1 #
coedge $-1 $343 $342 $202 $336 reversed $344 $-1 #
edge $-1 $534 -161.63579210791346 $535 161.63579210791346 $335 $536 forward 7 unknown #
coedge $-1 $204 $203 $537 $538 forward $81 $-1 #
coedge $-1 $539 $540 $203 $339 reversed $524 $-1 #
edge $-1 $346 -6.9347636565075987 $541 6.9347636565075987 $338 $542 forward 7 unknown #
coedge $-1 $332 $543 $204 $341 reversed $200 $-1 #
edge $-1 $544 -6.9347636565075987 $345 6.9347636565075987 $340 $545 forward 7 unknown #
coedge $-1 $335 $205 $543 $546 forward $344 $-1 #
coedge $-1 $205 $335 $539 $547 reversed $344 $-1 #
loop $-1 $-1 $342 $523 #
vertex $-1 $206 $548 #
vertex $-1 $206 $549 #
straight-curve $-1 6.9347636565075987 0 80.81789605395673 0 1 0 I I #
loop $-1 $-1 $550 $129 #
coedge $-1 $349 $349 $210 $350 reversed $207 $-1 #
edge $-1 $551 0 $551 6.2831853071796004 $349 $552 forward 7 unknown #
vertex $-1 $211 $553 #
ellipse-curve $-1 0 0 -5.515099032563251 0 0 -1 1.5 0 0 1 I I #
face $-1 $554 $555 $46 $-1 $556 reversed single #
loop $-1 $-1 $557 $212 #
plane-surface $-1 -6.280421169295785 0 0 1 0 0 0 0 -1 forward_v I I I I #
coedge $-1 $558 $364 $559 $560 forward $213 $-1 #
coedge $-1 $561 $215 $558 $562 forward $135 $-1 #
coedge $-1 $215 $561 $563 $564 forward $135 $-1 #
coedge $-1 $367 $366 $215 $360 reversed $368 $-1 #
edge $-1 $565 -161.63579210791346 $566 161.63579210791346 $359 $567 forward 7 unknown #
coedge $-1 $217 $216 $568 $569 forward $87 $-1 #
coedge $-1 $570 $571 $216 $363 reversed $555 $-1 #
edge $-1 $370 -6.280421169295785 $572 6.280421169295785 $362 $573 forward 7 unknown #
coedge $-1 $356 $574 $217 $365 reversed $213 $-1 #
edge $-1 $575 -6.280421169295785 $369 6.280421169295785 $364 $576 forward 7 unknown #
coedge $-1 $359 $218 $574 $577 forward $368 $-1 #
coedge $-1 $218 $359 $570 $578 reversed $368 $-1 #
loop $-1 $-1 $366 $554 #
vertex $-1 $219 $579 #
vertex $-1 $219 $580 #
straight-curve $-1 6.280421169295785 0 80.81789605395673 0 1 0 I I #
loop $-1 $-1 $581 $138 #
coedge $-1 $373 $373 $223 $374 reversed $220 $-1 #
edge $-1 $582 0 $582 6.2831853071796004 $373 $583 forward 7 unknown #
vertex $-1 $224 $584 #
ellipse-curve $-1 0 0 -4.06540879543443 0 0 -1 1.5 0 0 1 I I #
loop $-1 $-1 $585 $143 #
coedge $-1 $378 $378 $228 $379 reversed $225 $-1 #
edge $-1 $586 0 $586 6.2831853071796004 $378 $587 forward 7 unknown #
vertex $-1 $229 $588 #
ellipse-curve $-1 0 0 -4.06540879543443 0 0 -1 1.5 0 0 1 I I #
face $-1 $589 $590 $49 $-1 $591 reversed single #
loop $-1 $-1 $592 $230 #
plane-surface $-1 -6.280421169295785 0 0 1 0 0 0 0 -1 forward_v I I I I #
coedge $-1 $593 $393 $594 $595 forward $231 $-1 #
coedge $-1 $596 $233 $593 $597 forward $149 $-1 #
coedge $-1 $233 $596 $598 $599 forward $149 $-1 #
coedge $-1 $396 $395 $233 $389 reversed $397 $-1 #
edge $-1 $600 -161.63579210791346 $601 161.63579210791346 $388 $602 forward 7 unknown #
coedge $-1 $235 $234 $603 $604 forward $96 $-1 #
coedge $-1 $605 $606 $234 $392 reversed $590 $-1 #
edge $-1 $399 -6.280421169295785 $607 6.280421169295785 $391 $608 forward 7 unknown #
coedge $-1 $385 $609 $235 $394 reversed $231 $-1 #
edge $-1 $610 -6.280421169295785 $398 6.280421169295785 $393 $611 forward 7 unknown #
coedge $-1 $388 $236 $609 $612 forward $397 $-1 #
coedge $-1 $236 $388 $605 $613 reversed $397 $-1 #
loop $-1 $-1 $395 $589 #
vertex $-1 $237 $614 #
vertex $-1 $237 $615 #
straight-curve $-1 6.280421169295785 0 80.81789605395673 0 1 0 I I #
loop $-1 $-1 $616 $152 #
coedge $-1 $402 $402 $241 $403 reversed $238 $-1 #
edge $-1 $617 0 $617 6.2831853071796004 $402 $618 forward 7 unknown #
vertex $-1 $242 $619 #
ellipse-curve $-1 0 0 -4.06540879543443 0 0 -1 1.5 0 0 1 I I #
loop $-1 $-1 $620 $157 #
coedge $-1 $407 $407 $246 $408 reversed $243 $-1 #
edge $-1 $621 0 $621 6.2831853071796004 $407 $622 forward 7 unknown #
vertex $-1 $247 $623 #
ellipse-curve $-1 0 0 -4.06540879543443 0 0 -1 1.5 0 0 1 I I #
face $-1 $-1 $263 $39 $-1 $624 reversed single #
loop $-1 $-1 $427 $248 #
plane-surface $-1 0 23.965057713964288 0 0 -1 0 0 0 -1 forward_v I I I I #
coedge $-1 $625 $425 $428 $626 forward $249 $-1 #
coedge $-1 $431 $251 $252 $419 reversed $163 $-1 #
coedge $-1 $425 $625 $251 $417 reversed $249 $-1 #
edge $-1 $432 -9.1027286082949157 $627 9.1027286082949157 $416 $628 forward 7 unknown #
coedge $-1 $253 $252 $625 $629 forward $105 $-1 #
edge $-1 $423 -40.408948026978365 $627 40.408948026978365 $415 $630 forward 7 unknown #
coedge $-1 $428 $427 $253 $421 reversed $412 $-1 #
edge $-1 $631 -40.408948026978365 $422 40.408948026978365 $420 $632 forward 7 unknown #
vertex $-1 $255 $633 #
vertex $-1 $434 $634 #
straight-curve $-1 40.408948026978365 0 -9.1027286082949157 0 -1 0 I I #
coedge $-1 $414 $416 $256 $426 reversed $249 $-1 #
edge $-1 $429 -23.965057713964288 $432 23.965057713964288 $425 $635 forward 7 unknown #
coedge $-1 $420 $257 $262 $435 forward $412 $-1 #
coedge $-1 $257 $420 $414 $626 reversed $412 $-1 #
vertex $-1 $258 $636 #
straight-curve $-1 0 23.965057713964288 9.1027286082949157 -1 0 0 I I #
coedge $-1 $259 $415 $261 $434 reversed $163 $-1 #
vertex $-1 $426 $637 #
straight-curve $-1 0 -23.965057713964288 9.1027286082949157 1 0 0 I I #
edge $-1 $264 -9.1027286082949157 $423 9.1027286082949157 $261 $638 forward 7 unknown #
edge $-1 $265 -9.1027286082949157 $422 9.1027286082949157 $262 $639 forward 7 unknown #
point $-1 40.408948026978365 -23.965057713964288 9.1027286082949157 #
point $-1 40.408948026978365 23.965057713964288 9.1027286082949157 #
face $-1 $-1 $282 $40 $-1 $640 reversed single #
loop $-1 $-1 $454 $267 #
plane-surface $-1 0 23.965057713964288 0 0 -1 0 0 0 -1 forward_v I I I I #
coedge $-1 $641 $452 $455 $642 forward $268 $-1 #
coedge $-1 $458 $270 $271 $446 reversed $171 $-1 #
coedge $-1 $452 $641 $270 $444 reversed $268 $-1 #
edge $-1 $459 -1.8064056146561382 $643 1.8064056146561382 $443 $644 forward 7 unknown #
coedge $-1 $272 $271 $641 $645 forward $109 $-1 #
edge $-1 $450 -5.0562189064737781 $643 5.0562189064737781 $442 $646 forward 7 unknown #
coedge $-1 $455 $454 $272 $448 reversed $439 $-1 #
edge $-1 $647 -5.0562189064737781 $449 5.0562189064737781 $447 $648 forward 7 unknown #
vertex $-1 $274 $649 #
vertex $-1 $461 $650 #
straight-curve $-1 5.0562189064737781 0 -1.8064056146561382 0 -1 0 I I #
coedge $-1 $441 $443 $275 $453 reversed $268 $-1 #
edge $-1 $456 -23.965057713964288 $459 23.965057713964288 $452 $651 forward 7 unknown #
coedge $-1 $447 $276 $281 $462 forward $439 $-1 #
coedge $-1 $276 $447 $441 $642 reversed $439 $-1 #
vertex $-1 $277 $652 #
straight-curve $-1 0 23.965057713964288 1.8064056146561382 -1 0 0 I I #
coedge $-1 $278 $442 $280 $461 reversed $171 $-1 #
vertex $-1 $453 $653 #
straight-curve $-1 0 -23.965057713964288 1.8064056146561382 1 0 0 I I #
edge $-1 $283 -1.8064056146561382 $450 1.8064056146561382 $280 $654 forward 7 unknown #
edge $-1 $284 -1.8064056146561382 $449 1.8064056146561382 $281 $655 forward 7 unknown #
point $-1 5.0562189064737781 -23.965057713964288 1.8064056146561382 #
point $-1 5.0562189064737781 23.965057713964288 1.8064056146561382 #
face $-1 $-1 $301 $41 $-1 $656 reversed single #
loop $-1 $-1 $481 $286 #
plane-surface $-1 0 23.965057713964288 0 0 -1 0 0 0 -1 forward_v I I I I #
coedge $-1 $657 $479 $482 $658 forward $287 $-1 #
coedge $-1 $485 $289 $290 $473 reversed $179 $-1 #
coedge $-1 $479 $657 $289 $471 reversed $287 $-1 #
edge $-1 $486 -1.8064056146561382 $659 1.8064056146561382 $470 $660 forward 7 unknown #
coedge $-1 $291 $290 $657 $661 forward $113 $-1 #
edge $-1 $477 -5.0562189064737808 $659 5.0562189064737808 $469 $662 forward 7 unknown #
coedge $-1 $482 $481 $291 $475 reversed $466 $-1 #
edge $-1 $663 -5.0562189064737808 $476 5.0562189064737808 $474 $664 forward 7 unknown #
vertex $-1 $293 $665 #
vertex $-1 $488 $666 #
straight-curve $-1 5.0562189064737808 0 -1.8064056146561382 0 -1 0 I I #
coedge $-1 $468 $470 $294 $480 reversed $287 $-1 #
edge $-1 $483 -23.965057713964288 $486 23.965057713964288 $479 $667 forward 7 unknown #
coedge $-1 $474 $295 $300 $489 forward $466 $-1 #
coedge $-1 $295 $474 $468 $658 reversed $466 $-1 #
vertex $-1 $296 $668 #
straight-curve $-1 0 23.965057713964288 1.8064056146561382 -1 0 0 I I #
coedge $-1 $297 $469 $299 $488 reversed $179 $-1 #
vertex $-1 $480 $669 #
straight-curve $-1 0 -23.965057713964288 1.8064056146561382 1 0 0 I I #
edge $-1 $302 -1.8064056146561382 $477 1.8064056146561382 $299 $670 forward 7 unknown #
edge $-1 $303 -1.8064056146561382 $476 1.8064056146561382 $300 $671 forward 7 unknown #
point $-1 5.0562189064737808 -23.965057713964288 1.8064056146561382 #
point $-1 5.0562189064737808 23.965057713964288 1.8064056146561382 #
face $-1 $-1 $320 $42 $-1 $672 reversed single #
loop $-1 $-1 $508 $305 #
plane-surface $-1 0 161.63579210791346 0 0 -1 0 0 0 -1 forward_v I I I I #
coedge $-1 $673 $506 $509 $674 forward $306 $-1 #
coedge $-1 $512 $308 $309 $500 reversed $187 $-1 #
coedge $-1 $506 $673 $308 $498 reversed $306 $-1 #
edge $-1 $513 -80.81789605395673 $675 80.81789605395673 $497 $676 forward 7 unknown #
coedge $-1 $310 $309 $673 $677 forward $117 $-1 #
edge $-1 $504 -6.9347636565075987 $675 6.9347636565075987 $496 $678 forward 7 unknown #
coedge $-1 $509 $508 $310 $502 reversed $493 $-1 #
edge $-1 $679 -6.9347636565075987 $503 6.9347636565075987 $501 $680 forward 7 unknown #
vertex $-1 $312 $681 #
vertex $-1 $515 $682 #
straight-curve $-1 6.9347636565075987 0 -80.81789605395673 0 -1 0 I I #
coedge $-1 $495 $497 $313 $507 reversed $306 $-1 #
edge $-1 $510 -161.63579210791346 $513 161.63579210791346 $506 $683 forward 7 unknown #
coedge $-1 $501 $314 $319 $516 forward $493 $-1 #
coedge $-1 $314 $501 $495 $674 reversed $493 $-1 #
vertex $-1 $315 $684 #
straight-curve $-1 0 161.63579210791346 80.81789605395673 -1 0 0 I I #
coedge $-1 $316 $496 $318 $515 reversed $187 $-1 #
vertex $-1 $507 $685 #
straight-curve $-1 0 -161.63579210791346 80.81789605395673 1 0 0 I I #
edge $-1 $321 -80.81789605395673 $504 80.81789605395673 $318 $686 forward 7 unknown #
edge $-1 $322 -80.81789605395673 $503 80.81789605395673 $319 $687 forward 7 unknown #
point $-1 6.9347636565075987 -161.63579210791346 80.81789605395673 #
point $-1 6.9347636565075987 161.63579210791346 80.81789605395673 #
coedge $-1 $519 $519 $-1 $688 reversed $324 $-1 #
vertex $-1 $326 $689 #
ellipse-curve $-1 0 0 -0.75 0 0 -1 1.5 0 0 1 I I #
point $-1 1.5 0 -5.515099032563251 #
face $-1 $-1 $344 $44 $-1 $690 reversed single #
loop $-1 $-1 $539 $329 #
plane-surface $-1 0 161.63579210791346 0 0 -1 0 0 0 -1 forward_v I I I I #
coedge $-1 $691 $537 $540 $692 forward $330 $-1 #
coedge $-1 $543 $332 $333 $531 reversed $200 $-1 #
coedge $-1 $537 $691 $332 $529 reversed $330 $-1 #
edge $-1 $544 -80.81789605395673 $693 80.81789605395673 $528 $694 forward 7 unknown #
coedge $-1 $334 $333 $691 $695 forward $126 $-1 #
edge $-1 $535 -6.9347636565075987 $693 6.9347636565075987 $527 $696 forward 7 unknown #
coedge $-1 $540 $539 $334 $533 reversed $524 $-1 #
edge $-1 $697 -6.9347636565075987 $534 6.9347636565075987 $532 $698 forward 7 unknown #
vertex $-1 $336 $699 #
vertex $-1 $546 $700 #
straight-curve $-1 6.9347636565075987 0 -80.81789605395673 0 -1 0 I I #
coedge $-1 $526 $528 $337 $538 reversed $330 $-1 #
edge $-1 $541 -161.63579210791346 $544 161.63579210791346 $537 $701 forward 7 unknown #
coedge $-1 $532 $338 $343 $547 forward $524 $-1 #
coedge $-1 $338 $532 $526 $692 reversed $524 $-1 #
vertex $-1 $339 $702 #
straight-curve $-1 0 161.63579210791346 80.81789605395673 -1 0 0 I I #
coedge $-1 $340 $527 $342 $546 reversed $200 $-1 #
vertex $-1 $538 $703 #
straight-curve $-1 0 -161.63579210791346 80.81789605395673 1 0 0 I I #
edge $-1 $345 -80.81789605395673 $535 80.81789605395673 $342 $704 forward 7 unknown #
edge $-1 $346 -80.81789605395673 $534 80.81789605395673 $343 $705 forward 7 unknown #
point $-1 6.9347636565075987 -161.63579210791346 80.81789605395673 #
point $-1 6.9347636565075987 161.63579210791346 80.81789605395673 #
coedge $-1 $550 $550 $-1 $706 reversed $348 $-1 #
vertex $-1 $350 $707 #
ellipse-curve $-1 0 0 -0.75 0 0 -1 1.5 0 0 1 I I #
point $-1 1.5 0 -5.515099032563251 #
face $-1 $-1 $368 $46 $-1 $708 reversed single #
loop $-1 $-1 $570 $353 #
plane-surface $-1 0 161.63579210791346 0 0 -1 0 0 0 -1 forward_v I I I I #
coedge $-1 $709 $568 $571 $710 forward $354 $-1 #
coedge $-1 $574 $356 $357 $562 reversed $213 $-1 #
coedge $-1 $568 $709 $356 $560 reversed $354 $-1 #
edge $-1 $575 -80.81789605395673 $711 80.81789605395673 $559 $712 forward 7 unknown #
coedge $-1 $358 $357 $709 $713 forward $135 $-1 #
edge $-1 $566 -6.280421169295785 $711 6.280421169295785 $558 $714 forward 7 unknown #
coedge $-1 $571 $570 $358 $564 reversed $555 $-1 #
edge $-1 $715 -6.280421169295785 $565 6.280421169295785 $563 $716 forward 7 unknown #
vertex $-1 $360 $717 #
vertex $-1 $577 $718 #
straight-curve $-1 6.280421169295785 0 -80.81789605395673 0 -1 0 I I #
coedge $-1 $557 $559 $361 $569 reversed $354 $-1 #
edge $-1 $572 -161.63579210791346 $575 161.63579210791346 $568 $719 forward 7 unknown #
coedge $-1 $563 $362 $367 $578 forward $555 $-1 #
coedge $-1 $362 $563 $557 $710 reversed $555 $-1 #
vertex $-1 $363 $720 #
straight-curve $-1 0 161.63579210791346 80.81789605395673 -1 0 0 I I #
coedge $-1 $364 $558 $366 $577 reversed $213 $-1 #
vertex $-1 $569 $721 #
straight-curve $-1 0 -161.63579210791346 80.81789605395673 1 0 0 I I #
edge $-1 $369 -80.81789605395673 $566 80.81789605395673 $366 $722 forward 7 unknown #
edge $-1 $370 -80.81789605395673 $565 80.81789605395673 $367 $723 forward 7 unknown #
point $-1 6.280421169295785 -161.63579210791346 80.81789605395673 #
point $-1 6.280421169295785 161.63579210791346 80.81789605395673 #
coedge $-1 $581 $581 $-1 $724 reversed $372 $-1 #
vertex $-1 $374 $725 #
ellipse-curve $-1 0 0 -0.75 0 0 -1 1.5 0 0 1 I I #
point $-1 1.5 0 -4.06540879543443 #
coedge $-1 $585 $585 $-1 $726 reversed $377 $-1 #
vertex $-1 $379 $727 #
ellipse-curve $-1 0 0 -0.75 0 0 -1 1.5 0 0 1 I I #
point $-1 1.5 0 -4.06540879543443 #
face $-1 $-1 $397 $49 $-1 $728 reversed single #
loop $-1 $-1 $605 $382 #
plane-surface $-1 0 161.63579210791346 0 0 -1 0 0 0 -1 forward_v I I I I #
coedge $-1 $729 $603 $606 $730 forward $383 $-1 #
coedge $-1 $609 $385 $386 $597 reversed $231 $-1 #
coedge $-1 $603 $729 $385 $595 reversed $383 $-1 #
edge $-1 $610 -80.81789605395673 $731 80.81789605395673 $594 $732 forward 7 unknown #
coedge $-1 $387 $386 $729 $733 forward $149 $-1 #
edge $-1 $601 -6.280421169295785 $731 6.280421169295785 $593 $734 forward 7 unknown #
coedge $-1 $606 $605 $387 $599 reversed $590 $-1 #
edge $-1 $735 -6.280421169295785 $600 6.280421169295785 $598 $736 forward 7 unknown #
vertex $-1 $389 $737 #
vertex $-1 $612 $738 #
straight-curve $-1 6.280421169295785 0 -80.81789605395673 0 -1 0 I I #
coedge $-1 $592 $594 $390 $604 reversed $383 $-1 #
edge $-1 $607 -161.63579210791346 $610 161.63579210791346 $603 $739 forward 7 unknown #
coedge $-1 $598 $391 $396 $613 forward $590 $-1 #
coedge $-1 $391 $598 $592 $730 reversed $590 $-1 #
vertex $-1 $392 $740 #
straight-curve $-1 0 161.63579210791346 80.81789605395673 -1 0 0 I I #
coedge $-1 $393 $593 $395 $612 reversed $231 $-1 #
vertex $-1 $604 $741 #
straight-curve $-1 0 -161.63579210791346 80.81789605395673 1 0 0 I I #
edge $-1 $398 -80.81789605395673 $601 80.81789605395673 $395 $742 forward 7 unknown #
edge $-1 $399 -80.81789605395673 $600 80.81789605395673 $396 $743 forward 7 unknown #
point $-1 6.280421169295785 -161.63579210791346 80.81789605395673 #
point $-1 6.280421169295785 161.63579210791346 80.81789605395673 #
coedge $-1 $616 $616 $-1 $744 reversed $401 $-1 #
vertex $-1 $403 $745 #
ellipse-curve $-1 0 0 -0.75 0 0 -1 1.5 0 0 1 I I #
point $-1 1.5 0 -4.06540879543443 #
coedge $-1 $620 $620 $-1 $746 reversed $406 $-1 #
vertex $-1 $408 $747 #
ellipse-curve $-1 0 0 -0.75 0 0 -1 1.5 0 0 1 I I #
point $-1 1.5 0 -4.06540879543443 #
plane-surface $-1 40.408948026978365 0 0 -1 0 0 0 0 1 forward_v I I I I #
coedge $-1 $416 $414 $418 $629 reversed $249 $-1 #
edge $-1 $429 -9.1027286082949157 $631 9.1027286082949157 $428 $748 forward 7 unknown #
vertex $-1 $629 $749 #
straight-curve $-1 -40.408948026978365 -23.965057713964288 0 0 0 -1 I I #
edge $-1 $627 -23.965057713964288 $631 23.965057713964288 $625 $750 forward 7 unknown #
straight-curve $-1 0 -23.965057713964288 -9.1027286082949157 -1 0 0 I I #
vertex $-1 $421 $751 #
straight-curve $-1 0 23.965057713964288 -9.1027286082949157 1 0 0 I I #
point $-1 40.408948026978365 23.965057713964288 -9.1027286082949157 #
point $-1 40.408948026978365 -23.965057713964288 -9.1027286082949157 #
straight-curve $-1 -40.408948026978365 0 9.1027286082949157 0 -1 0 I I #
point $-1 -40.408948026978365 23.965057713964288 9.1027286082949157 #
point $-1 -40.408948026978365 -23.965057713964288 9.1027286082949157 #
straight-curve $-1 40.408948026978365 -23.965057713964288 0 0 0 -1 I I #
straight-curve $-1 40.408948026978365 23.965057713964288 0 0 0 -1 I I #
plane-surface $-1 5.0562189064737781 0 0 -1 0 0 0 0 1 forward_v I I I I #
coedge $-1 $443 $441 $445 $645 reversed $268 $-1 #
edge $-1 $456 -1.8064056146561382 $647 1.8064056146561382 $455 $752 forward 7 unknown #
vertex $-1 $645 $753 #
straight-curve $-1 -5.0562189064737781 -23.965057713964288 0 0 0 -1 I I #
edge $-1 $643 -23.965057713964288 $647 23.965057713964288 $641 $754 forward 7 unknown #
straight-curve $-1 0 -23.965057713964288 -1.8064056146561382 -1 0 0 I I #
vertex $-1 $448 $755 #
straight-curve $-1 0 23.965057713964288 -1.8064056146561382 1 0 0 I I #
point $-1 5.0562189064737781 23.965057713964288 -1.8064056146561382 #
point $-1 5.0562189064737781 -23.965057713964288 -1.8064056146561382 #
straight-curve $-1 -5.0562189064737781 0 1.8064056146561382 0 -1 0 I I #
point $-1 -5.0562189064737781 23.965057713964288 1.8064056146561382 #
point $-1 -5.0562189064737781 -23.965057713964288 1.8064056146561382 #
straight-curve $-1 5.0562189064737781 -23.965057713964288 0 0 0 -1 I I #
straight-curve $-1 5.0562189064737781 23.965057713964288 0 0 0 -1 I I #
plane-surface $-1 5.0562189064737808 0 0 -1 0 0 0 0 1 forward_v I I I I #
coedge $-1 $470 $468 $472 $661 reversed $287 $-1 #
edge $-1 $483 -1.8064056146561382 $663 1.8064056146561382 $482 $756 forward 7 unknown #
vertex $-1 $661 $757 #
straight-curve $-1 -5.0562189064737808 -23.965057713964288 0 0 0 -1 I I #
edge $-1 $659 -23.965057713964288 $663 23.965057713964288 $657 $758 forward 7 unknown #
straight-curve $-1 0 -23.965057713964288 -1.8064056146561382 -1 0 0 I I #
vertex $-1 $475 $759 #
straight-curve $-1 0 23.965057713964288 -1.8064056146561382 1 0 0 I I #
point $-1 5.0562189064737808 23.965057713964288 -1.8064056146561382 #
point $-1 5.0562189064737808 -23.965057713964288 -1.8064056146561382 #
straight-curve $-1 -5.0562189064737808 0 1.8064056146561382 0 -1 0 I I #
point $-1 -5.0562189064737808 23.965057713964288 1.8064056146561382 #
point $-1 -5.0562189064737808 -23.965057713964288 1.8064056146561382 #
straight-curve $-1 5.0562189064737808 -23.965057713964288 0 0 0 -1 I I #
straight-curve $-1 5.0562189064737808 23.965057713964288 0 0 0 -1 I I #
plane-surface $-1 6.9347636565075987 0 0 -1 0 0 0 0 1 forward_v I I I I #
coedge $-1 $497 $495 $499 $677 reversed $306 $-1 #
edge $-1 $510 -80.81789605395673 $679 80.81789605395673 $509 $760 forward 7 unknown #
vertex $-1 $677 $761 #
straight-curve $-1 -6.9347636565075987 -161.63579210791346 0 0 0 -1 I I #
edge $-1 $675 -161.63579210791346 $679 161.63579210791346 $673 $762 forward 7 unknown #
straight-curve $-1 0 -161.63579210791346 -80.81789605395673 -1 0 0 I I #
vertex $-1 $502 $763 #
straight-curve $-1 0 161.63579210791346 -80.81789605395673 1 0 0 I I #
point $-1 6.9347636565075987 161.63579210791346 -80.81789605395673 #
point $-1 6.9347636565075987 -161.63579210791346 -80.81789605395673 #
straight-curve $-1 -6.9347636565075987 0 80.81789605395673 0 -1 0 I I #
point $-1 -6.9347636565075987 161.63579210791346 80.81789605395673 #
point $-1 -6.9347636565075987 -161.63579210791346 80.81789605395673 #
straight-curve $-1 6.9347636565075987 -161.63579210791346 0 0 0 -1 I I #
straight-curve $-1 6.9347636565075987 161.63579210791346 0 0 0 -1 I I #
edge $-1 $764 1 $764 0 $519 $-1 forward 7 unknown #
point $-1 1.5 0 -0.75 #
plane-surface $-1 6.9347636565075987 0 0 -1 0 0 0 0 1 forward_v I I I I #
coedge $-1 $528 $526 $530 $695 reversed $330 $-1 #
edge $-1 $541 -80.81789605395673 $697 80.81789605395673 $540 $765 forward 7 unknown #
vertex $-1 $695 $766 #
straight-curve $-1 -6.9347636565075987 -161.63579210791346 0 0 0 -1 I I #
edge $-1 $693 -161.63579210791346 $697 161.63579210791346 $691 $767 forward 7 unknown #
straight-curve $-1 0 -161.63579210791346 -80.81789605395673 -1 0 0 I I #
vertex $-1 $533 $768 #
straight-curve $-1 0 161.63579210791346 -80.81789605395673 1 0 0 I I #
point $-1 6.9347636565075987 161.63579210791346 -80.81789605395673 #
point $-1 6.9347636565075987 -161.63579210791346 -80.81789605395673 #
straight-curve $-1 -6.9347636565075987 0 80.81789605395673 0 -1 0 I I #
point $-1 -6.9347636565075987 161.63579210791346 80.81789605395673 #
point $-1 -6.9347636565075987 -161.63579210791346 80.81789605395673 #
straight-curve $-1 6.9347636565075987 -161.63579210791346 0 0 0 -1 I I #
straight-curve $-1 6.9347636565075987 161.63579210791346 0 0 0 -1 I I #
edge $-1 $769 1 $769 0 $550 $-1 forward 7 unknown #
point $-1 1.5 0 -0.75 #
plane-surface $-1 6.280421169295785 0 0 -1 0 0 0 0 1 forward_v I I I I #
coedge $-1 $559 $557 $561 $713 reversed $354 $-1 #
edge $-1 $572 -80.81789605395673 $715 80.81789605395673 $571 $770 forward 7 unknown #
vertex $-1 $713 $771 #
straight-curve $-1 -6.280421169295785 -161.63579210791346 0 0 0 -1 I I #
edge $-1 $711 -161.63579210791346 $715 161.63579210791346 $709 $772 forward 7 unknown #
straight-curve $-1 0 -161.63579210791346 -80.81789605395673 -1 0 0 I I #
vertex $-1 $564 $773 #
straight-curve $-1 0 161.63579210791346 -80.81789605395673 1 0 0 I I #
point $-1 6.280421169295785 161.63579210791346 -80.81789605395673 #
point $-1 6.280421169295785 -161.63579210791346 -80.81789605395673 #
straight-curve $-1 -6.280421169295785 0 80.81789605395673 0 -1 0 I I #
point $-1 -6.280421169295785 161.63579210791346 80.81789605395673 #
point $-1 -6.280421169295785 -161.63579210791346 80.81789605395673 #
straight-curve $-1 6.280421169295785 -161.63579210791346 0 0 0 -1 I I #
straight-curve $-1 6.280421169295785 161.63579210791346 0 0 0 -1 I I #
edge $-1 $774 1 $774 0 $581 $-1 forward 7 unknown #
point $-1 1.5 0 -0.75 #
edge $-1 $775 1 $775 0 $585 $-1 forward 7 unknown #
point $-1 1.5 0 -0.75 #
plane-surface $-1 6.280421169295785 0 0 -1 0 0 0 0 1 forward_v I I I I #
coedge $-1 $594 $592 $596 $733 reversed $383 $-1 #
edge $-1 $607 -80.81789605395673 $735 80.81789605395673 $606 $776 forward 7 unknown #
vertex $-1 $733 $777 #
straight-curve $-1 -6.280421169295785 -161.63579210791346 0 0 0 -1 I I #
edge $-1 $731 -161.63579210791346 $735 161.63579210791346 $729 $778 forward 7 unknown #
straight-curve $-1 0 -161.63579210791346 -80.81789605395673 -1 0 0 I I #
vertex $-1 $599 $779 #
straight-curve $-1 0 161.63579210791346 -80.81789605395673 1 0 0 I I #
point $-1 6.280421169295785 161.63579210791346 -80.81789605395673 #
point $-1 6.280421169295785 -161.63579210791346 -80.81789605395673 #
straight-curve $-1 -6.280421169295785 0 80.81789605395673 0 -1 0 I I #
point $-1 -6.280421169295785 161.63579210791346 80.81789605395673 #
point $-1 -6.280421169295785 -161.63579210791346 80.81789605395673 #
straight-curve $-1 6.280421169295785 -161.63579210791346 0 0 0 -1 I I #
straight-curve $-1 6.280421169295785 161.63579210791346 0 0 0 -1 I I #
edge $-1 $780 1 $780 0 $616 $-1 forward 7 unknown #
point $-1 1.5 0 -0.75 #
edge $-1 $781 1 $781 0 $620 $-1 forward 7 unknown #
point $-1 1.5 0 -0.75 #
straight-curve $-1 -40.408948026978365 23.965057713964288 0 0 0 -1 I I #
point $-1 -40.408948026978365 -23.965057713964288 -9.1027286082949157 #
straight-curve $-1 -40.408948026978365 0 -9.1027286082949157 0 1 0 I I #
point $-1 -40.408948026978365 23.965057713964288 -9.1027286082949157 #
straight-curve $-1 -5.0562189064737781 23.965057713964288 0 0 0 -1 I I #
point $-1 -5.0562189064737781 -23.965057713964288 -1.8064056146561382 #
straight-curve $-1 -5.0562189064737781 0 -1.8064056146561382 0 1 0 I I #
point $-1 -5.0562189064737781 23.965057713964288 -1.8064056146561382 #
straight-curve $-1 -5.0562189064737808 23.965057713964288 0 0 0 -1 I I #
point $-1 -5.0562189064737808 -23.965057713964288 -1.8064056146561382 #
straight-curve $-1 -5.0562189064737808 0 -1.8064056146561382 0 1 0 I I #
point $-1 -5.0562189064737808 23.965057713964288 -1.8064056146561382 #
straight-curve $-1 -6.9347636565075987 161.63579210791346 0 0 0 -1 I I #
point $-1 -6.9347636565075987 -161.63579210791346 -80.81789605395673 #
straight-curve $-1 -6.9347636565075987 0 -80.81789605395673 0 1 0 I I #
point $-1 -6.9347636565075987 161.63579210791346 -80.81789605395673 #
vertex $-1 $688 $782 #
straight-curve $-1 -6.9347636565075987 161.63579210791346 0 0 0 -1 I I #
point $-1 -6.9347636565075987 -161.63579210791346 -80.81789605395673 #
straight-curve $-1 -6.9347636565075987 0 -80.81789605395673 0 1 0 I I #
point $-1 -6.9347636565075987 161.63579210791346 -80.81789605395673 #
vertex $-1 $706 $783 #
straight-curve $-1 -6.280421169295785 161.63579210791346 0 0 0 -1 I I #
point $-1 -6.280421169295785 -161.63579210791346 -80.81789605395673 #
straight-curve $-1 -6.280421169295785 0 -80.81789605395673 0 1 0 I I #
point $-1 -6.280421169295785 161.63579210791346 -80.81789605395673 #
vertex $-1 $724 $784 #
vertex $-1 $726 $785 #
straight-curve $-1 -6.280421169295785 161.63579210791346 0 0 0 -1 I I #
point $-1 -6.280421169295785 -161.63579210791346 -80.81789605395673 #
straight-curve $-1 -6.280421169295785 0 -80.81789605395673 0 1 0 I I #
point $-1 -6.280421169295785 161.63579210791346 -80.81789605395673 #
vertex $-1 $744 $786 #
vertex $-1 $746 $787 #
point $-1 0 0 0.75 #
point $-1 0 0 0.75 #
point $-1 0 0 0.75 #
point $-1 0 0 0.75 #
point $-1 0 0 0.75 #
point $-1 0 0 0.75 #
End-of-ACIS-data 