500 0 16 0           
7 Unknown 11 ACIS 5.0 NT 24 Thu Mar 25 15:55:35 1999 
-1 9.9999999999999995e-007 1e-010 
body $-1 $16 $-1 $17 #
body $-1 $18 $-1 $19 #
body $-1 $20 $-1 $21 #
body $-1 $22 $-1 $23 #
body $-1 $24 $-1 $25 #
body $-1 $26 $-1 $27 #
body $-1 $28 $-1 $29 #
body $-1 $30 $-1 $31 #
body $-1 $32 $-1 $33 #
body $-1 $34 $-1 $35 #
body $-1 $36 $-1 $37 #
body $-1 $38 $-1 $39 #
body $-1 $40 $-1 $41 #
body $-1 $42 $-1 $43 #
body $-1 $44 $-1 $45 #
body $-1 $46 $-1 $47 #
lump $-1 $-1 $48 $0 #
transform $-1 1 0 0 0 1 0 0 0 1 72.925809503463853 35.761622285392576 10.059136334727205 1 rotate no_reflect no_shear #
lump $-1 $-1 $49 $1 #
transform $-1 1 0 0 0 1 0 0 0 1 72.925809503463853 35.761622285392576 10.059136334727205 1 rotate no_reflect no_shear #
lump $-1 $-1 $50 $2 #
transform $-1 1 0 0 0 1 0 0 0 1 72.925809503463853 35.761622285392576 10.059136334727205 1 rotate no_reflect no_shear #
lump $-1 $-1 $51 $3 #
transform $-1 1 0 0 0 1 0 0 0 1 72.925809503463853 35.761622285392576 10.059136334727205 1 rotate no_reflect no_shear #
lump $-1 $-1 $52 $4 #
transform $-1 1 0 0 0 1 0 0 0 1 72.925809503463853 35.761622285392576 10.059136334727205 1 rotate no_reflect no_shear #
lump $-1 $-1 $53 $5 #
transform $-1 1 0 0 0 1 0 0 0 1 72.925809503463853 35.761622285392576 10.059136334727205 1 rotate no_reflect no_shear #
lump $-1 $-1 $54 $6 #
transform $-1 1 0 0 0 1 0 0 0 1 72.925809503463853 35.761622285392576 10.059136334727205 1 rotate no_reflect no_shear #
lump $-1 $-1 $55 $7 #
transform $-1 1 0 0 0 1 0 0 0 1 72.925809503463853 35.761622285392576 10.059136334727205 1 rotate no_reflect no_shear #
lump $-1 $-1 $56 $8 #
transform $-1 1 0 0 0 1 0 0 0 1 72.925809503463853 35.761622285392576 10.059136334727205 1 rotate no_reflect no_shear #
lump $-1 $-1 $57 $9 #
transform $-1 1 0 0 0 1 0 0 0 1 72.925809503463853 35.761622285392576 10.059136334727205 1 rotate no_reflect no_shear #
lump $-1 $-1 $58 $10 #
transform $-1 1 0 0 0 1 0 0 0 1 72.925809503463853 35.761622285392576 10.059136334727205 1 rotate no_reflect no_shear #
lump $-1 $-1 $59 $11 #
transform $-1 1 0 0 0 1 0 0 0 1 72.925809503463853 35.761622285392576 10.059136334727205 1 rotate no_reflect no_shear #
lump $-1 $-1 $60 $12 #
transform $-1 1 0 0 0 1 0 0 0 1 72.925809503463853 35.761622285392576 10.059136334727205 1 rotate no_reflect no_shear #
lump $-1 $-1 $61 $13 #
transform $-1 1 0 0 0 1 0 0 0 1 72.925809503463853 35.761622285392576 10.059136334727205 1 rotate no_reflect no_shear #
lump $-1 $-1 $62 $14 #
transform $-1 1 0 0 0 1 0 0 0 1 72.925809503463853 35.761622285392576 10.059136334727205 1 rotate no_reflect no_shear #
lump $-1 $-1 $63 $15 #
transform $-1 1 0 0 0 1 0 0 0 1 72.925809503463853 35.761622285392576 10.059136334727205 1 rotate no_reflect no_shear #
shell $-1 $-1 $-1 $64 $-1 $16 #
shell $-1 $-1 $-1 $65 $-1 $18 #
shell $-1 $-1 $-1 $66 $-1 $20 #
shell $-1 $-1 $-1 $67 $-1 $22 #
shell $-1 $-1 $-1 $68 $-1 $24 #
shell $-1 $-1 $-1 $69 $-1 $26 #
shell $-1 $-1 $-1 $70 $-1 $28 #
shell $-1 $-1 $-1 $71 $-1 $30 #
shell $-1 $-1 $-1 $72 $-1 $32 #
shell $-1 $-1 $-1 $73 $-1 $34 #
shell $-1 $-1 $-1 $74 $-1 $36 #
shell $-1 $-1 $-1 $75 $-1 $38 #
shell $-1 $-1 $-1 $76 $-1 $40 #
shell $-1 $-1 $-1 $77 $-1 $42 #
shell $-1 $-1 $-1 $78 $-1 $44 #
shell $-1 $-1 $-1 $79 $-1 $46 #
face $-1 $80 $81 $48 $-1 $82 forward single #
face $-1 $83 $84 $49 $-1 $85 forward single #
face $-1 $86 $87 $50 $-1 $88 reversed single #
face $-1 $89 $90 $51 $-1 $91 forward single #
face $-1 $92 $93 $52 $-1 $94 forward single #
face $-1 $95 $96 $53 $-1 $97 forward single #
face $-1 $98 $99 $54 $-1 $100 reversed single #
face $-1 $101 $102 $55 $-1 $103 forward single #
face $-1 $104 $105 $56 $-1 $106 forward single #
face $-1 $107 $108 $57 $-1 $109 forward single #
face $-1 $110 $111 $58 $-1 $112 reversed single #
face $-1 $113 $114 $59 $-1 $115 forward single #
face $-1 $116 $117 $60 $-1 $118 forward single #
face $-1 $119 $120 $61 $-1 $121 reversed single #
face $-1 $122 $123 $62 $-1 $124 forward single #
face $-1 $125 $126 $63 $-1 $127 forward single #
face $-1 $128 $129 $48 $-1 $130 reversed single #
loop $-1 $-1 $131 $64 #
plane-surface $-1 0 0 10.059136334727205 0 0 1 1 0 0 forward_v I I I I #
face $-1 $132 $133 $49 $-1 $134 reversed single #
loop $-1 $-1 $135 $65 #
plane-surface $-1 -66.467814505543629 0 6.3959979586196605 0 0 1 1 0 0 forward_v I I I I #
face $-1 $136 $137 $50 $-1 $138 reversed single #
loop $-1 $-1 $139 $66 #
plane-surface $-1 -52.34067474914356 -35.761622285392562 5.7831188625573446 0 -0.81915205242281985 0.57357642473473569 1 0 0 forward_v I I I I #
face $-1 $140 $141 $51 $-1 $142 forward single #
loop $-1 $143 $144 $67 #
cone-surface $-1 -56.942161604231458 -33.093355307077793 7.1010325182619516 0 0.81915205242281985 -0.57357642473473569 1 0 0 1 I I 0 1 1 forward I I I I #
face $-1 $145 $146 $52 $-1 $147 forward single #
loop $-1 $148 $149 $68 #
cone-surface $-1 -52.34067474914356 -33.093355307077793 7.1010325182619516 0 0.81915205242281985 -0.57357642473473569 1 0 0 1 I I 0 1 1 forward I I I I #
face $-1 $150 $151 $53 $-1 $152 forward single #
loop $-1 $153 $154 $69 #
cone-surface $-1 -47.739187894055654 -33.093355307077793 7.1010325182619516 0 0.81915205242281985 -0.57357642473473569 1 0 0 1 I I 0 1 1 forward I I I I #
face $-1 $155 $156 $54 $-1 $157 reversed single #
loop $-1 $-1 $158 $70 #
plane-surface $-1 57.587519986504184 -155.23627534410855 89.440169034323759 1 0 0 0 0.81915205242281985 -0.57357642473473569 forward_v I I I I #
face $-1 $159 $160 $55 $-1 $161 forward single #
loop $-1 $162 $163 $71 #
cone-surface $-1 60.655177889896123 -33.093355307077793 7.1010325182619516 0 0.81915205242281985 -0.57357642473473569 1 0 0 1 I I 0 1 1 forward I I I I #
face $-1 $164 $165 $56 $-1 $166 forward single #
loop $-1 $167 $168 $72 #
cone-surface $-1 65.256664744984022 -33.093355307077793 7.1010325182619516 0 0.81915205242281985 -0.57357642473473569 1 0 0 1 I I 0 1 1 forward I I I I #
face $-1 $169 $170 $57 $-1 $171 forward single #
loop $-1 $172 $173 $73 #
cone-surface $-1 69.85815160007192 -33.093355307077793 7.1010325182619516 0 0.81915205242281985 -0.57357642473473569 1 0 0 1 I I 0 1 1 forward I I I I #
face $-1 $174 $175 $58 $-1 $176 reversed single #
loop $-1 $-1 $177 $74 #
plane-surface $-1 -17.063460829559567 85.629155558336095 160.83317843687249 1 0 0 0 -0.69465837861970381 -0.71933979245794832 forward_v I I I I #
face $-1 $178 $179 $59 $-1 $180 forward single #
loop $-1 $181 $182 $75 #
cone-surface $-1 -10.343044878851053 33.300204965822907 7.6486560626125915 0 -0.69465837861970381 -0.71933979245794832 1 0 0 1 I I 0 1 1 forward I I I I #
face $-1 $183 $184 $60 $-1 $185 forward single #
loop $-1 $186 $187 $76 #
cone-surface $-1 -0.26242095278827549 33.300204965822907 7.6486560626125915 0 -0.69465837861970381 -0.71933979245794832 1 0 0 1 I I 0 1 1 forward I I I I #
face $-1 $188 $189 $61 $-1 $190 reversed single #
loop $-1 $-1 $191 $77 #
plane-surface $-1 -5.3027329158196608 -15.687893620075087 55.916305090773363 0 0.69465837861970381 0.71933979245794832 1 0 0 forward_v I I I I #
face $-1 $192 $193 $62 $-1 $194 forward single #
loop $-1 $195 $196 $78 #
cone-surface $-1 13.178410948628766 33.300204965822907 7.6486560626125915 0 -0.69465837861970381 -0.71933979245794832 1 0 0 1 I I 0 1 1 forward I I I I #
face $-1 $197 $198 $63 $-1 $199 forward single #
loop $-1 $200 $201 $79 #
cone-surface $-1 23.259034874691537 33.300204965822907 7.6486560626125915 0 -0.69465837861970381 -0.71933979245794832 1 0 0 1 I I 0 1 1 forward I I I I #
face $-1 $202 $203 $48 $-1 $204 reversed single #
loop $-1 $-1 $205 $80 #
plane-surface $-1 0 0 -10.059136334727205 0 0 1 1 0 0 forward_v I I I I #
coedge $-1 $206 $207 $208 $209 forward $81 $-1 #
face $-1 $210 $211 $49 $-1 $212 reversed single #
loop $-1 $-1 $213 $83 #
plane-surface $-1 -66.467814505543629 0 0.84801603569546824 0 0 1 1 0 0 forward_v I I I I #
coedge $-1 $214 $215 $216 $217 forward $84 $-1 #
face $-1 $218 $219 $50 $-1 $220 reversed single #
loop $-1 $-1 $221 $86 #
plane-surface $-1 -44.671529990663721 -155.23627534410855 89.440169034323759 -1 0 0 0 -0.81915205242281985 0.57357642473473569 forward_v I I I I #
coedge $-1 $222 $223 $224 $225 reversed $87 $-1 #
face $-1 $-1 $226 $51 $-1 $227 forward single #
loop $-1 $228 $229 $89 #
cone-surface $-1 -56.942161604231458 -31.51256209113253 5.994149225514251 0 0.81915205242281985 -0.57357642473473569 0.5 0 0 1 I I -0.70710678118654746 0.70710678118654746 0.5 forward I I I I #
loop $-1 $-1 $230 $67 #
coedge $-1 $144 $144 $231 $232 reversed $90 $-1 #
face $-1 $-1 $233 $52 $-1 $234 forward single #
loop $-1 $235 $236 $92 #
cone-surface $-1 -52.34067474914356 -31.51256209113253 5.994149225514251 0 0.81915205242281985 -0.57357642473473569 0.5 0 0 1 I I -0.70710678118654746 0.70710678118654746 0.5 forward I I I I #
loop $-1 $-1 $237 $68 #
coedge $-1 $149 $149 $238 $239 reversed $93 $-1 #
face $-1 $-1 $240 $53 $-1 $241 forward single #
loop $-1 $242 $243 $95 #
cone-surface $-1 -47.739187894055654 -31.51256209113253 5.994149225514251 0 0.81915205242281985 -0.57357642473473569 0.5 0 0 1 I I -0.70710678118654746 0.70710678118654746 0.5 forward I I I I #
loop $-1 $-1 $244 $69 #
coedge $-1 $154 $154 $245 $246 reversed $96 $-1 #
face $-1 $247 $248 $54 $-1 $249 reversed single #
loop $-1 $-1 $250 $98 #
plane-surface $-1 65.256664744984022 -35.761622285392562 5.7831188625573446 0 -0.81915205242281985 0.57357642473473569 1 0 0 forward_v I I I I #
coedge $-1 $251 $252 $253 $254 reversed $99 $-1 #
face $-1 $-1 $255 $55 $-1 $256 forward single #
loop $-1 $257 $258 $101 #
cone-surface $-1 60.655177889896123 -31.51256209113253 5.994149225514251 0 0.81915205242281985 -0.57357642473473569 0.5 0 0 1 I I -0.70710678118654746 0.70710678118654746 0.5 forward I I I I #
loop $-1 $-1 $259 $71 #
coedge $-1 $163 $163 $260 $261 reversed $102 $-1 #
face $-1 $-1 $262 $56 $-1 $263 forward single #
loop $-1 $264 $265 $104 #
cone-surface $-1 65.256664744984022 -31.51256209113253 5.994149225514251 0 0.81915205242281985 -0.57357642473473569 0.5 0 0 1 I I -0.70710678118654746 0.70710678118654746 0.5 forward I I I I #
loop $-1 $-1 $266 $72 #
coedge $-1 $168 $168 $267 $268 reversed $105 $-1 #
face $-1 $-1 $269 $57 $-1 $270 forward single #
loop $-1 $271 $272 $107 #
cone-surface $-1 69.85815160007192 -31.51256209113253 5.994149225514251 0 0.81915205242281985 -0.57357642473473569 0.5 0 0 1 I I -0.70710678118654746 0.70710678118654746 0.5 forward I I I I #
loop $-1 $-1 $273 $73 #
coedge $-1 $173 $173 $274 $275 reversed $108 $-1 #
face $-1 $276 $277 $58 $-1 $278 reversed single #
loop $-1 $-1 $279 $110 #
plane-surface $-1 -5.3027329158196608 -15.687893620075087 55.916305090773363 0 0.69465837861970381 0.71933979245794832 1 0 0 forward_v I I I I #
coedge $-1 $280 $281 $282 $283 reversed $111 $-1 #
face $-1 $-1 $284 $59 $-1 $285 forward single #
loop $-1 $286 $287 $113 #
cone-surface $-1 -10.343044878851053 32.472972772978579 6.7920320698270036 0 -0.69465837861970381 -0.71933979245794832 0.5 0 0 1 I I -0.70710678118654746 0.70710678118654746 0.5 forward I I I I #
loop $-1 $-1 $288 $75 #
coedge $-1 $182 $182 $289 $290 reversed $114 $-1 #
face $-1 $-1 $291 $60 $-1 $292 forward single #
loop $-1 $293 $294 $116 #
cone-surface $-1 -0.26242095278827549 32.472972772978579 6.7920320698270036 0 -0.69465837861970381 -0.71933979245794832 0.5 0 0 1 I I -0.70710678118654746 0.70710678118654746 0.5 forward I I I I #
loop $-1 $-1 $295 $76 #
coedge $-1 $187 $187 $296 $297 reversed $117 $-1 #
face $-1 $298 $299 $61 $-1 $300 forward single #
loop $-1 $-1 $301 $119 #
plane-surface $-1 29.979450825400058 85.629155558336095 160.83317843687249 -1 0 0 0 0.69465837861970381 0.71933979245794832 forward_v I I I I #
coedge $-1 $302 $303 $304 $305 reversed $120 $-1 #
face $-1 $-1 $306 $62 $-1 $307 forward single #
loop $-1 $308 $309 $122 #
cone-surface $-1 13.178410948628766 32.472972772978579 6.7920320698270036 0 -0.69465837861970381 -0.71933979245794832 0.5 0 0 1 I I -0.70710678118654746 0.70710678118654746 0.5 forward I I I I #
loop $-1 $-1 $310 $78 #
coedge $-1 $196 $196 $311 $312 reversed $123 $-1 #
face $-1 $-1 $313 $63 $-1 $314 forward single #
loop $-1 $315 $316 $125 #
cone-surface $-1 23.259034874691537 32.472972772978579 6.7920320698270036 0 -0.69465837861970381 -0.71933979245794832 0.5 0 0 1 I I -0.70710678118654746 0.70710678118654746 0.5 forward I I I I #
loop $-1 $-1 $317 $79 #
coedge $-1 $201 $201 $318 $319 reversed $126 $-1 #
face $-1 $320 $321 $48 $-1 $322 reversed single #
loop $-1 $-1 $323 $128 #
plane-surface $-1 0 -35.761622285392576 0 0 1 0 0 0 1 forward_v I I I I #
coedge $-1 $324 $325 $326 $327 forward $129 $-1 #
coedge $-1 $328 $131 $329 $330 forward $81 $-1 #
coedge $-1 $131 $328 $331 $332 forward $81 $-1 #
coedge $-1 $333 $334 $131 $209 reversed $335 $-1 #
edge $-1 $336 -35.761622285392576 $337 35.761622285392576 $208 $338 forward 7 unknown #
face $-1 $339 $340 $49 $-1 $341 reversed single #
loop $-1 $-1 $342 $132 #
plane-surface $-1 -60.009819507623398 0 3.6220069971575644 -1 0 0 0 0 1 forward_v I I I I #
coedge $-1 $343 $344 $345 $346 forward $133 $-1 #
coedge $-1 $347 $135 $348 $349 reversed $84 $-1 #
coedge $-1 $135 $347 $350 $351 reversed $84 $-1 #
coedge $-1 $342 $352 $135 $217 reversed $211 $-1 #
edge $-1 $353 -35.761622285392576 $354 35.761622285392576 $216 $355 forward 7 unknown #
face $-1 $356 $357 $50 $-1 $358 forward single #
loop $-1 $-1 $359 $136 #
plane-surface $-1 0 -35.761622285392576 0 0 1 0 0 0 1 forward_v I I I I #
coedge $-1 $360 $361 $362 $363 reversed $137 $-1 #
coedge $-1 $364 $139 $365 $366 reversed $87 $-1 #
coedge $-1 $139 $364 $360 $367 forward $87 $-1 #
coedge $-1 $362 $359 $139 $225 forward $219 $-1 #
edge $-1 $368 -33.839482133051618 $369 -18.501192616091942 $224 $370 forward 7 unknown #
loop $-1 $-1 $231 $140 #
plane-surface $-1 -52.34067474914356 -35.761622285392562 5.7831188625573446 0 -0.81915205242281985 0.57357642473473569 1 0 0 forward_v I I I I #
loop $-1 $-1 $371 $89 #
coedge $-1 $229 $229 $230 $372 reversed $141 $-1 #
coedge $-1 $230 $230 $229 $372 forward $143 $-1 #
coedge $-1 $231 $231 $144 $232 forward $226 $-1 #
edge $-1 $373 -1.3132192287302738e-015 $373 6.2831853071795996 $231 $374 forward 7 unknown #
loop $-1 $-1 $238 $145 #
plane-surface $-1 -52.34067474914356 -35.761622285392562 5.7831188625573446 0 -0.81915205242281985 0.57357642473473569 1 0 0 forward_v I I I I #
loop $-1 $-1 $375 $92 #
coedge $-1 $236 $236 $237 $376 reversed $146 $-1 #
coedge $-1 $237 $237 $236 $376 forward $148 $-1 #
coedge $-1 $238 $238 $149 $239 forward $233 $-1 #
edge $-1 $377 -1.3132192287302738e-015 $377 6.2831853071795996 $238 $378 forward 7 unknown #
loop $-1 $-1 $245 $150 #
plane-surface $-1 -52.34067474914356 -35.761622285392562 5.7831188625573446 0 -0.81915205242281985 0.57357642473473569 1 0 0 forward_v I I I I #
loop $-1 $-1 $379 $95 #
coedge $-1 $243 $243 $244 $380 reversed $151 $-1 #
coedge $-1 $244 $244 $243 $380 forward $153 $-1 #
coedge $-1 $245 $245 $154 $246 forward $240 $-1 #
edge $-1 $381 -1.3132192287302738e-015 $381 6.2831853071795996 $245 $382 forward 7 unknown #
face $-1 $383 $384 $54 $-1 $385 forward single #
loop $-1 $-1 $386 $155 #
plane-surface $-1 72.925809503463853 0 0 -1 0 0 0 0 1 forward_v I I I I #
coedge $-1 $387 $388 $389 $390 reversed $156 $-1 #
coedge $-1 $252 $158 $391 $392 reversed $99 $-1 #
coedge $-1 $158 $251 $387 $393 reversed $99 $-1 #
coedge $-1 $389 $394 $158 $254 forward $395 $-1 #
edge $-1 $396 34.660948182434673 $397 38.936965654604556 $253 $398 forward 7 unknown #
loop $-1 $-1 $260 $159 #
plane-surface $-1 65.256664744984022 -35.761622285392562 5.7831188625573446 0 -0.81915205242281985 0.57357642473473569 1 0 0 forward_v I I I I #
loop $-1 $-1 $399 $101 #
coedge $-1 $258 $258 $259 $400 reversed $160 $-1 #
coedge $-1 $259 $259 $258 $400 forward $162 $-1 #
coedge $-1 $260 $260 $163 $261 forward $255 $-1 #
edge $-1 $401 -1.3132192287302738e-015 $401 6.2831853071795996 $260 $402 forward 7 unknown #
loop $-1 $-1 $267 $164 #
plane-surface $-1 65.256664744984022 -35.761622285392562 5.7831188625573446 0 -0.81915205242281985 0.57357642473473569 1 0 0 forward_v I I I I #
loop $-1 $-1 $403 $104 #
coedge $-1 $265 $265 $266 $404 reversed $165 $-1 #
coedge $-1 $266 $266 $265 $404 forward $167 $-1 #
coedge $-1 $267 $267 $168 $268 forward $262 $-1 #
edge $-1 $405 -1.3132192287302738e-015 $405 6.2831853071795996 $267 $406 forward 7 unknown #
loop $-1 $-1 $274 $169 #
plane-surface $-1 65.256664744984022 -35.761622285392562 5.7831188625573446 0 -0.81915205242281985 0.57357642473473569 1 0 0 forward_v I I I I #
loop $-1 $-1 $407 $107 #
coedge $-1 $272 $272 $273 $408 reversed $170 $-1 #
coedge $-1 $273 $273 $272 $408 forward $172 $-1 #
coedge $-1 $274 $274 $173 $275 forward $269 $-1 #
edge $-1 $409 -1.3132192287302738e-015 $409 6.2831853071795996 $274 $410 forward 7 unknown #
face $-1 $411 $412 $58 $-1 $413 reversed single #
loop $-1 $-1 $414 $174 #
plane-surface $-1 6.4579949979202453 85.629155558336095 160.83317843687249 -1 0 0 0 0.69465837861970381 0.71933979245794832 forward_v I I I I #
coedge $-1 $415 $416 $417 $418 reversed $175 $-1 #
coedge $-1 $281 $177 $419 $420 reversed $111 $-1 #
coedge $-1 $177 $280 $415 $421 reversed $111 $-1 #
coedge $-1 $417 $422 $177 $283 forward $423 $-1 #
edge $-1 $424 7.052955493775471 $425 11.015984125845847 $282 $426 forward 7 unknown #
loop $-1 $-1 $289 $178 #
plane-surface $-1 -5.3027329158196608 -15.687893620075087 55.916305090773363 0 0.69465837861970381 0.71933979245794832 1 0 0 forward_v I I I I #
loop $-1 $-1 $427 $113 #
coedge $-1 $287 $287 $288 $428 reversed $179 $-1 #
coedge $-1 $288 $288 $287 $428 forward $181 $-1 #
coedge $-1 $289 $289 $182 $290 forward $284 $-1 #
edge $-1 $429 4.9358446476311983e-015 $429 6.2831853071796058 $289 $430 forward 7 unknown #
loop $-1 $-1 $296 $183 #
plane-surface $-1 -5.3027329158196608 -15.687893620075087 55.916305090773363 0 0.69465837861970381 0.71933979245794832 1 0 0 forward_v I I I I #
loop $-1 $-1 $431 $116 #
coedge $-1 $294 $294 $295 $432 reversed $184 $-1 #
coedge $-1 $295 $295 $294 $432 forward $186 $-1 #
coedge $-1 $296 $296 $187 $297 forward $291 $-1 #
edge $-1 $433 4.9358446476311983e-015 $433 6.2831853071796058 $296 $434 forward 7 unknown #
face $-1 $435 $436 $61 $-1 $437 forward single #
loop $-1 $-1 $438 $188 #
plane-surface $-1 0 0 10.059136334727205 0 0 1 1 0 0 forward_v I I I I #
coedge $-1 $439 $440 $441 $442 reversed $189 $-1 #
coedge $-1 $443 $191 $444 $445 reversed $120 $-1 #
coedge $-1 $191 $443 $438 $446 reversed $120 $-1 #
coedge $-1 $447 $448 $191 $305 forward $436 $-1 #
edge $-1 $449 -71.523244570785138 $450 -66.013986395967777 $304 $451 forward 7 unknown #
loop $-1 $-1 $311 $192 #
plane-surface $-1 -5.3027329158196608 -15.687893620075087 55.916305090773363 0 0.69465837861970381 0.71933979245794832 1 0 0 forward_v I I I I #
loop $-1 $-1 $452 $122 #
coedge $-1 $309 $309 $310 $453 reversed $193 $-1 #
coedge $-1 $310 $310 $309 $453 forward $195 $-1 #
coedge $-1 $311 $311 $196 $312 forward $306 $-1 #
edge $-1 $454 4.9358446476311983e-015 $454 6.2831853071796058 $311 $455 forward 7 unknown #
loop $-1 $-1 $318 $197 #
plane-surface $-1 -5.3027329158196608 -15.687893620075087 55.916305090773363 0 0.69465837861970381 0.71933979245794832 1 0 0 forward_v I I I I #
loop $-1 $-1 $456 $125 #
coedge $-1 $316 $316 $317 $457 reversed $198 $-1 #
coedge $-1 $317 $317 $316 $457 forward $200 $-1 #
coedge $-1 $318 $318 $201 $319 forward $313 $-1 #
edge $-1 $458 4.9358446476311983e-015 $458 6.2831853071796058 $318 $459 forward 7 unknown #
face $-1 $460 $461 $48 $-1 $462 reversed single #
loop $-1 $-1 $463 $202 #
plane-surface $-1 -72.925809503463853 0 0 1 0 0 0 0 -1 forward_v I I I I #
coedge $-1 $464 $331 $465 $466 forward $203 $-1 #
coedge $-1 $467 $205 $464 $468 forward $129 $-1 #
coedge $-1 $205 $467 $469 $470 forward $129 $-1 #
coedge $-1 $334 $333 $205 $327 reversed $335 $-1 #
edge $-1 $471 -35.761622285392576 $472 35.761622285392576 $326 $473 forward 7 unknown #
coedge $-1 $207 $206 $474 $475 forward $81 $-1 #
coedge $-1 $476 $477 $206 $330 reversed $461 $-1 #
edge $-1 $337 -72.925809503463853 $478 72.925809503463853 $329 $479 forward 7 unknown #
coedge $-1 $323 $480 $207 $332 reversed $203 $-1 #
edge $-1 $481 -72.925809503463853 $336 72.925809503463853 $331 $482 forward 7 unknown #
coedge $-1 $326 $208 $480 $483 forward $335 $-1 #
coedge $-1 $208 $326 $476 $484 reversed $335 $-1 #
loop $-1 $-1 $333 $460 #
vertex $-1 $209 $485 #
vertex $-1 $209 $486 #
straight-curve $-1 72.925809503463853 0 10.059136334727205 0 1 0 I I #
face $-1 $487 $488 $49 $-1 $489 reversed single #
loop $-1 $-1 $490 $210 #
plane-surface $-1 0 -35.761622285392576 0 0 1 0 0 0 1 forward_v I I I I #
coedge $-1 $345 $216 $491 $492 reversed $211 $-1 #
coedge $-1 $493 $213 $490 $494 reversed $133 $-1 #
coedge $-1 $213 $493 $495 $496 reversed $133 $-1 #
coedge $-1 $352 $342 $213 $346 reversed $211 $-1 #
edge $-1 $497 -35.761622285392576 $498 35.761622285392576 $345 $499 forward 7 unknown #
coedge $-1 $215 $214 $500 $501 reversed $84 $-1 #
coedge $-1 $502 $503 $214 $349 forward $504 $-1 #
edge $-1 $505 -39.691902250692038 $354 -26.775912254851583 $348 $506 forward 7 unknown #
coedge $-1 $507 $491 $215 $351 forward $340 $-1 #
edge $-1 $353 26.775912254851583 $508 39.691902250692038 $350 $509 forward 7 unknown #
coedge $-1 $216 $345 $502 $510 reversed $211 $-1 #
vertex $-1 $351 $511 #
vertex $-1 $349 $512 #
straight-curve $-1 -60.009819507623398 0 6.3959979586196605 0 1 0 I I #
face $-1 $-1 $513 $50 $-1 $514 forward single #
loop $-1 $-1 $365 $218 #
plane-surface $-1 -60.009819507623398 0 3.6220069971575644 -1 0 0 0 0 1 forward_v I I I I #
coedge $-1 $224 $515 $516 $517 forward $219 $-1 #
coedge $-1 $361 $221 $223 $367 reversed $137 $-1 #
coedge $-1 $221 $360 $518 $519 reversed $137 $-1 #
coedge $-1 $515 $224 $221 $363 forward $219 $-1 #
edge $-1 $369 -38.936965654604556 $520 -34.660948182434673 $362 $521 forward 7 unknown #
coedge $-1 $223 $222 $522 $523 reversed $87 $-1 #
coedge $-1 $516 $524 $222 $366 forward $357 $-1 #
edge $-1 $525 4.1508186972639152 $368 9.3708721165560114 $365 $526 forward 7 unknown #
edge $-1 $527 -5.2200534192920713 $369 2.4884734274515653e-014 $360 $528 forward 7 unknown #
vertex $-1 $366 $529 #
vertex $-1 $225 $530 #
straight-curve $-1 -26.17033737457178 -35.761622285392576 5.7831188625573251 1 0 0 I I #
coedge $-1 $371 $371 $-1 $531 reversed $228 $-1 #
edge $-1 $532 0 $532 6.2831853071796004 $229 $533 forward 7 unknown #
vertex $-1 $232 $534 #
ellipse-curve $-1 -56.942161604231458 -34.264572496811624 7.9211275986422711 0 -0.81915205242281985 0.57357642473473569 1 0 0 1 I I #
coedge $-1 $375 $375 $-1 $535 reversed $235 $-1 #
edge $-1 $536 0 $536 6.2831853071796004 $236 $537 forward 7 unknown #
vertex $-1 $239 $538 #
ellipse-curve $-1 -52.34067474914356 -34.264572496811624 7.9211275986422711 0 -0.81915205242281985 0.57357642473473569 1 0 0 1 I I #
coedge $-1 $379 $379 $-1 $539 reversed $242 $-1 #
edge $-1 $540 0 $540 6.2831853071796004 $243 $541 forward 7 unknown #
vertex $-1 $246 $542 #
ellipse-curve $-1 -47.739187894055654 -34.264572496811624 7.9211275986422711 0 -0.81915205242281985 0.57357642473473569 1 0 0 1 I I #
face $-1 $-1 $395 $54 $-1 $543 reversed single #
loop $-1 $-1 $544 $247 #
plane-surface $-1 0 0 10.059136334727205 0 0 1 1 0 0 forward_v I I I I #
coedge $-1 $545 $546 $388 $547 forward $248 $-1 #
coedge $-1 $548 $250 $252 $393 forward $156 $-1 #
coedge $-1 $250 $548 $386 $547 reversed $156 $-1 #
coedge $-1 $549 $253 $250 $390 forward $395 $-1 #
edge $-1 $397 24.959187614012173 $550 40.297477130971842 $389 $551 forward 7 unknown #
coedge $-1 $552 $544 $251 $392 forward $384 $-1 #
edge $-1 $553 -44.850614963823588 $396 -41.856515386661698 $391 $554 forward 7 unknown #
edge $-1 $397 -2.4884734274515653e-014 $553 5.2200534192920713 $252 $555 forward 7 unknown #
coedge $-1 $253 $549 $552 $556 reversed $395 $-1 #
loop $-1 $-1 $389 $383 #
vertex $-1 $556 $557 #
vertex $-1 $254 $558 #
straight-curve $-1 57.587519986504184 -35.761622285392576 44.720084517161879 0 0 -1 I I #
coedge $-1 $399 $399 $-1 $559 reversed $257 $-1 #
edge $-1 $560 0 $560 6.2831853071796004 $258 $561 forward 7 unknown #
vertex $-1 $261 $562 #
ellipse-curve $-1 60.655177889896123 -34.264572496811624 7.9211275986422711 0 -0.81915205242281985 0.57357642473473569 1 0 0 1 I I #
coedge $-1 $403 $403 $-1 $563 reversed $264 $-1 #
edge $-1 $564 0 $564 6.2831853071796004 $265 $565 forward 7 unknown #
vertex $-1 $268 $566 #
ellipse-curve $-1 65.256664744984022 -34.264572496811624 7.9211275986422711 0 -0.81915205242281985 0.57357642473473569 1 0 0 1 I I #
coedge $-1 $407 $407 $-1 $567 reversed $271 $-1 #
edge $-1 $568 0 $568 6.2831853071796004 $272 $569 forward 7 unknown #
vertex $-1 $275 $570 #
ellipse-curve $-1 69.85815160007192 -34.264572496811624 7.9211275986422711 0 -0.81915205242281985 0.57357642473473569 1 0 0 1 I I #
face $-1 $-1 $423 $58 $-1 $571 forward single #
loop $-1 $-1 $572 $276 #
plane-surface $-1 0 35.761622285392576 0 0 -1 0 0 0 -1 forward_v I I I I #
coedge $-1 $573 $574 $575 $576 reversed $277 $-1 #
coedge $-1 $577 $279 $281 $421 forward $175 $-1 #
coedge $-1 $279 $577 $573 $578 forward $175 $-1 #
coedge $-1 $575 $282 $279 $418 forward $423 $-1 #
edge $-1 $425 -14.412094371649737 $579 9.1093614558300757 $417 $580 forward 7 unknown #
coedge $-1 $581 $582 $280 $420 forward $412 $-1 #
edge $-1 $583 -74.184505234825025 $424 -70.357452883709044 $419 $584 forward 7 unknown #
edge $-1 $425 66.013986395967777 $583 71.523244570785138 $281 $585 forward 7 unknown #
coedge $-1 $282 $575 $581 $586 forward $423 $-1 #
loop $-1 $-1 $575 $411 #
vertex $-1 $420 $587 #
vertex $-1 $283 $588 #
straight-curve $-1 -17.063460829559567 42.814577779168047 10.059136334727199 0 -1 0 I I #
coedge $-1 $427 $427 $-1 $589 reversed $286 $-1 #
edge $-1 $590 0 $590 6.2831853071796004 $287 $591 forward 7 unknown #
vertex $-1 $290 $592 #
ellipse-curve $-1 -10.343044878851053 33.780107969357388 8.1456101591692125 0 0.69465837861970381 0.71933979245794832 1 0 0 1 I I #
coedge $-1 $431 $431 $-1 $593 reversed $293 $-1 #
edge $-1 $594 0 $594 6.2831853071796004 $294 $595 forward 7 unknown #
vertex $-1 $297 $596 #
ellipse-curve $-1 -0.26242095278827549 33.780107969357388 8.1456101591692125 0 0.69465837861970381 0.71933979245794832 1 0 0 1 I I #
face $-1 $-1 $597 $61 $-1 $598 reversed single #
loop $-1 $-1 $447 $298 #
plane-surface $-1 6.4579949979202453 85.629155558336095 160.83317843687249 -1 0 0 0 0.69465837861970381 0.71933979245794832 forward_v I I I I #
coedge $-1 $441 $599 $303 $446 forward $299 $-1 #
coedge $-1 $440 $301 $443 $600 reversed $189 $-1 #
coedge $-1 $301 $439 $601 $602 reversed $189 $-1 #
coedge $-1 $603 $438 $301 $442 forward $299 $-1 #
edge $-1 $604 -11.015984125845847 $605 -7.052955493775471 $441 $606 forward 7 unknown #
coedge $-1 $303 $302 $439 $600 forward $120 $-1 #
coedge $-1 $607 $601 $302 $445 forward $597 $-1 #
edge $-1 $608 -32.630817283309888 $449 -9.1093614558300757 $444 $609 forward 7 unknown #
edge $-1 $450 9.1093614558300757 $604 32.630817283309888 $438 $610 forward 7 unknown #
coedge $-1 $448 $304 $599 $611 reversed $436 $-1 #
coedge $-1 $304 $447 $607 $612 reversed $436 $-1 #
vertex $-1 $445 $613 #
vertex $-1 $446 $614 #
straight-curve $-1 6.4579949979202453 -15.687893620075087 55.916305090773363 0 -0.71933979245794832 0.69465837861970381 I I #
coedge $-1 $452 $452 $-1 $615 reversed $308 $-1 #
edge $-1 $616 0 $616 6.2831853071796004 $309 $617 forward 7 unknown #
vertex $-1 $312 $618 #
ellipse-curve $-1 13.178410948628766 33.780107969357388 8.1456101591692125 0 0.69465837861970381 0.71933979245794832 1 0 0 1 I I #
coedge $-1 $456 $456 $-1 $619 reversed $315 $-1 #
edge $-1 $620 0 $620 6.2831853071796004 $316 $621 forward 7 unknown #
vertex $-1 $319 $622 #
ellipse-curve $-1 23.259034874691537 33.780107969357388 8.1456101591692125 0 0.69465837861970381 0.71933979245794832 1 0 0 1 I I #
face $-1 $-1 $335 $48 $-1 $623 reversed single #
loop $-1 $-1 $476 $320 #
plane-surface $-1 0 35.761622285392576 0 0 -1 0 0 0 -1 forward_v I I I I #
coedge $-1 $624 $474 $477 $625 forward $321 $-1 #
coedge $-1 $480 $323 $324 $468 reversed $203 $-1 #
coedge $-1 $474 $624 $323 $466 reversed $321 $-1 #
edge $-1 $481 -10.059136334727205 $626 10.059136334727205 $465 $627 forward 7 unknown #
coedge $-1 $325 $324 $624 $628 forward $129 $-1 #
edge $-1 $472 -72.925809503463853 $626 72.925809503463853 $464 $629 forward 7 unknown #
coedge $-1 $477 $476 $325 $470 reversed $461 $-1 #
edge $-1 $630 -72.925809503463853 $471 72.925809503463853 $469 $631 forward 7 unknown #
vertex $-1 $327 $632 #
vertex $-1 $483 $633 #
straight-curve $-1 72.925809503463853 0 -10.059136334727205 0 -1 0 I I #
coedge $-1 $463 $465 $328 $475 reversed $321 $-1 #
edge $-1 $478 -35.761622285392576 $481 35.761622285392576 $474 $634 forward 7 unknown #
coedge $-1 $469 $329 $334 $484 forward $461 $-1 #
coedge $-1 $329 $469 $463 $625 reversed $461 $-1 #
vertex $-1 $330 $635 #
straight-curve $-1 0 35.761622285392576 10.059136334727205 -1 0 0 I I #
coedge $-1 $331 $464 $333 $483 reversed $203 $-1 #
vertex $-1 $475 $636 #
straight-curve $-1 0 -35.761622285392576 10.059136334727205 1 0 0 I I #
edge $-1 $336 -10.059136334727205 $472 10.059136334727205 $333 $637 forward 7 unknown #
edge $-1 $337 -10.059136334727205 $471 10.059136334727205 $334 $638 forward 7 unknown #
point $-1 72.925809503463853 -35.761622285392576 10.059136334727205 #
point $-1 72.925809503463853 35.761622285392576 10.059136334727205 #
face $-1 $-1 $504 $49 $-1 $639 reversed single #
loop $-1 $-1 $640 $339 #
plane-surface $-1 -72.925809503463853 0 0 1 0 0 0 0 -1 forward_v I I I I #
coedge $-1 $491 $507 $343 $494 forward $340 $-1 #
coedge $-1 $350 $490 $342 $492 forward $340 $-1 #
edge $-1 $498 -0.96298746288331394 $353 4.5849944600408783 $491 $641 forward 7 unknown #
coedge $-1 $344 $343 $640 $642 reversed $133 $-1 #
edge $-1 $643 -39.691902250692038 $498 -26.775912254851583 $490 $644 forward 7 unknown #
coedge $-1 $503 $502 $344 $496 forward $504 $-1 #
edge $-1 $497 26.775912254851583 $645 39.691902250692038 $495 $646 forward 7 unknown #
vertex $-1 $496 $647 #
vertex $-1 $494 $648 #
straight-curve $-1 -60.009819507623398 0 0.84801603569546824 0 -1 0 I I #
coedge $-1 $649 $650 $347 $501 forward $488 $-1 #
edge $-1 $508 -35.761622285392576 $505 35.761622285392576 $500 $651 forward 7 unknown #
coedge $-1 $495 $348 $352 $510 forward $504 $-1 #
coedge $-1 $348 $495 $649 $652 reversed $504 $-1 #
loop $-1 $-1 $495 $487 #
vertex $-1 $652 $653 #
straight-curve $-1 -33.233907252771814 35.761622285392576 6.3959979586196605 1 0 0 I I #
coedge $-1 $490 $350 $650 $654 forward $340 $-1 #
vertex $-1 $654 $655 #
straight-curve $-1 -33.233907252771814 -35.761622285392576 6.3959979586196605 -1 0 0 I I #
edge $-1 $354 -4.5849944600408783 $497 0.96298746288331394 $502 $656 forward 7 unknown #
point $-1 -60.009819507623398 -35.761622285392576 6.3959979586196605 #
point $-1 -60.009819507623398 35.761622285392576 6.3959979586196605 #
loop $-1 $-1 $657 $356 #
plane-surface $-1 0 0 10.059136334727205 0 0 1 1 0 0 forward_v I I I I #
coedge $-1 $359 $362 $658 $659 reversed $219 $-1 #
coedge $-1 $524 $365 $359 $517 reversed $357 $-1 #
edge $-1 $660 34.660948182434673 $368 38.936965654604556 $359 $661 forward 7 unknown #
coedge $-1 $522 $658 $361 $519 forward $513 $-1 #
edge $-1 $520 41.856515386661698 $527 44.850614963823588 $518 $662 forward 7 unknown #
vertex $-1 $363 $663 #
straight-curve $-1 -44.671529990663721 -35.761622285392576 44.720084517161879 0 0 1 I I #
coedge $-1 $657 $518 $364 $523 forward $513 $-1 #
edge $-1 $527 18.501192616091942 $525 33.839482133051618 $522 $664 forward 7 unknown #
coedge $-1 $365 $516 $657 $665 reversed $357 $-1 #
vertex $-1 $665 $666 #
straight-curve $-1 -60.009819507623398 -30.386710960131957 13.459287989825956 0 -0.57357642473473569 -0.81915205242281985 I I #
vertex $-1 $523 $667 #
straight-curve $-1 -44.671529990663721 -35.761622285392562 5.7831188625573446 0 -0.57357642473473569 -0.81915205242281985 I I #
point $-1 -60.009819507623398 -35.761622285392576 5.7831188625573242 #
point $-1 -44.671529990663721 -35.761622285392576 5.7831188625573242 #
edge $-1 $668 1 $668 0 $371 $-1 forward 7 unknown #
vertex $-1 $372 $669 #
ellipse-curve $-1 -56.942161604231458 -31.922138117343941 6.2809374378816187 0 -0.81915205242281985 0.57357642473473569 1 0 0 1 I I #
point $-1 -55.942161604231458 -34.264572496811645 7.9211275986422844 #
edge $-1 $670 1 $670 0 $375 $-1 forward 7 unknown #
vertex $-1 $376 $671 #
ellipse-curve $-1 -52.34067474914356 -31.922138117343941 6.2809374378816187 0 -0.81915205242281985 0.57357642473473569 1 0 0 1 I I #
point $-1 -51.34067474914356 -34.264572496811645 7.9211275986422844 #
edge $-1 $672 1 $672 0 $379 $-1 forward 7 unknown #
vertex $-1 $380 $673 #
ellipse-curve $-1 -47.739187894055654 -31.922138117343941 6.2809374378816187 0 -0.81915205242281985 0.57357642473473569 1 0 0 1 I I #
point $-1 -46.739187894055654 -34.264572496811645 7.9211275986422844 #
plane-surface $-1 0 -35.761622285392576 0 0 1 0 0 0 1 forward_v I I I I #
coedge $-1 $391 $674 $548 $675 forward $384 $-1 #
coedge $-1 $546 $386 $674 $676 reversed $248 $-1 #
coedge $-1 $386 $545 $549 $677 forward $248 $-1 #
edge $-1 $550 -7.8873848837502969 $678 -2.6673314644582007 $386 $679 forward 7 unknown #
coedge $-1 $388 $387 $544 $675 reversed $156 $-1 #
coedge $-1 $394 $389 $546 $677 reversed $395 $-1 #
vertex $-1 $547 $680 #
straight-curve $-1 32.628332372492011 -35.761622285392576 5.7831188625573251 1 0 0 I I #
coedge $-1 $674 $391 $394 $556 forward $384 $-1 #
vertex $-1 $392 $681 #
straight-curve $-1 57.587519986504184 -77.618137672054274 10.059136334727206 0 -1 0 I I #
straight-curve $-1 57.587519986504184 -35.761622285392562 5.7831188625573446 0 0.57357642473473569 0.81915205242281985 I I #
edge $-1 $396 57.587519986504184 $682 72.925809503463853 $394 $683 forward 7 unknown #
point $-1 57.587519986504184 -35.761622285392576 10.059136334727205 #
point $-1 57.587519986504184 -35.761622285392576 5.7831188625573242 #
edge $-1 $684 1 $684 0 $399 $-1 forward 7 unknown #
vertex $-1 $400 $685 #
ellipse-curve $-1 60.655177889896123 -31.922138117343941 6.2809374378816187 0 -0.81915205242281985 0.57357642473473569 1 0 0 1 I I #
point $-1 61.655177889896123 -34.264572496811645 7.9211275986422844 #
edge $-1 $686 1 $686 0 $403 $-1 forward 7 unknown #
vertex $-1 $404 $687 #
ellipse-curve $-1 65.256664744984022 -31.922138117343941 6.2809374378816187 0 -0.81915205242281985 0.57357642473473569 1 0 0 1 I I #
point $-1 66.256664744984022 -34.264572496811645 7.9211275986422844 #
edge $-1 $688 1 $688 0 $407 $-1 forward 7 unknown #
vertex $-1 $408 $689 #
ellipse-curve $-1 69.85815160007192 -31.922138117343941 6.2809374378816187 0 -0.81915205242281985 0.57357642473473569 1 0 0 1 I I #
point $-1 70.85815160007192 -34.264572496811645 7.9211275986422844 #
plane-surface $-1 0 0 10.059136334727205 0 0 1 1 0 0 forward_v I I I I #
coedge $-1 $582 $581 $574 $690 forward $412 $-1 #
coedge $-1 $574 $414 $416 $578 reversed $277 $-1 #
coedge $-1 $414 $573 $572 $690 reversed $277 $-1 #
coedge $-1 $422 $417 $414 $576 forward $423 $-1 #
edge $-1 $579 -11.015984125845847 $691 -7.052955493775471 $575 $692 forward 7 unknown #
coedge $-1 $416 $415 $582 $693 reversed $175 $-1 #
edge $-1 $694 -71.523244570785138 $579 -66.013986395967777 $573 $695 forward 7 unknown #
vertex $-1 $418 $696 #
straight-curve $-1 -2.6513664579098304 31.798593653322186 10.059136334727206 1 0 0 I I #
coedge $-1 $572 $419 $422 $586 reversed $412 $-1 #
coedge $-1 $419 $572 $577 $693 forward $412 $-1 #
vertex $-1 $420 $697 #
straight-curve $-1 -17.063460829559567 35.761622285392576 80.416589218436243 0 0 1 I I #
straight-curve $-1 -17.063460829559567 -15.687893620075087 55.916305090773363 0 0.71933979245794832 -0.69465837861970381 I I #
edge $-1 $691 -6.4579949979202453 $424 17.063460829559567 $581 $698 forward 7 unknown #
point $-1 -17.063460829559567 35.761622285392576 10.059136334727205 #
point $-1 -17.063460829559567 31.7985936533222 10.059136334727206 #
edge $-1 $699 1 $699 0 $427 $-1 forward 7 unknown #
vertex $-1 $428 $700 #
ellipse-curve $-1 -10.343044878851053 32.820301962288433 7.1517019660559775 0 0.69465837861970381 0.71933979245794832 1 0 0 1 I I #
point $-1 -9.3430448788510532 33.780107969357388 8.1456101591692054 #
edge $-1 $701 1 $701 0 $431 $-1 forward 7 unknown #
vertex $-1 $432 $702 #
ellipse-curve $-1 -0.26242095278827549 32.820301962288433 7.1517019660559775 0 0.69465837861970381 0.71933979245794832 1 0 0 1 I I #
point $-1 0.73757904721172451 33.780107969357388 8.1456101591692054 #
loop $-1 $-1 $444 $435 #
plane-surface $-1 0 35.761622285392576 0 0 -1 0 0 0 -1 forward_v I I I I #
coedge $-1 $438 $603 $447 $611 forward $299 $-1 #
edge $-1 $608 -71.523244570785138 $604 -66.013986395967777 $439 $703 forward 7 unknown #
coedge $-1 $444 $704 $440 $602 forward $597 $-1 #
edge $-1 $605 70.357452883709044 $608 74.184505234825025 $601 $705 forward 7 unknown #
coedge $-1 $599 $441 $704 $706 forward $299 $-1 #
vertex $-1 $442 $707 #
vertex $-1 $706 $708 #
straight-curve $-1 29.979450825400058 42.814577779168047 10.059136334727199 0 1 0 I I #
coedge $-1 $704 $444 $448 $612 forward $597 $-1 #
vertex $-1 $602 $709 #
straight-curve $-1 -2.6513664579098304 35.761622285392576 6.2320839836112292 -1 0 0 I I #
straight-curve $-1 -2.6513664579098304 31.798593653322186 10.059136334727206 1 0 0 I I #
edge $-1 $710 7.052955493775471 $450 11.015984125845847 $599 $711 forward 7 unknown #
edge $-1 $449 -74.184505234825025 $710 -70.357452883709044 $607 $712 forward 7 unknown #
point $-1 6.4579949979202453 35.761622285392576 6.2320839836112256 #
point $-1 6.4579949979202453 31.7985936533222 10.059136334727206 #
edge $-1 $713 1 $713 0 $452 $-1 forward 7 unknown #
vertex $-1 $453 $714 #
ellipse-curve $-1 13.178410948628766 32.820301962288433 7.1517019660559775 0 0.69465837861970381 0.71933979245794832 1 0 0 1 I I #
point $-1 14.178410948628766 33.780107969357388 8.1456101591692054 #
edge $-1 $715 1 $715 0 $456 $-1 forward 7 unknown #
vertex $-1 $457 $716 #
ellipse-curve $-1 23.259034874691537 32.820301962288433 7.1517019660559775 0 0.69465837861970381 0.71933979245794832 1 0 0 1 I I #
point $-1 24.259034874691537 33.780107969357388 8.1456101591692054 #
plane-surface $-1 72.925809503463853 0 0 -1 0 0 0 0 1 forward_v I I I I #
coedge $-1 $465 $463 $467 $628 reversed $321 $-1 #
edge $-1 $478 -10.059136334727205 $630 10.059136334727205 $477 $717 forward 7 unknown #
vertex $-1 $628 $718 #
straight-curve $-1 -72.925809503463853 -35.761622285392576 0 0 0 -1 I I #
edge $-1 $626 -35.761622285392576 $630 35.761622285392576 $624 $719 forward 7 unknown #
straight-curve $-1 0 -35.761622285392576 -10.059136334727205 -1 0 0 I I #
vertex $-1 $470 $720 #
straight-curve $-1 0 35.761622285392576 -10.059136334727205 1 0 0 I I #
point $-1 72.925809503463853 35.761622285392576 -10.059136334727205 #
point $-1 72.925809503463853 -35.761622285392576 -10.059136334727205 #
straight-curve $-1 -72.925809503463853 0 10.059136334727205 0 -1 0 I I #
point $-1 -72.925809503463853 35.761622285392576 10.059136334727205 #
point $-1 -72.925809503463853 -35.761622285392576 10.059136334727205 #
straight-curve $-1 72.925809503463853 -35.761622285392576 0 0 0 -1 I I #
straight-curve $-1 72.925809503463853 35.761622285392576 0 0 0 -1 I I #
plane-surface $-1 0 35.761622285392576 0 0 -1 0 0 0 -1 forward_v I I I I #
coedge $-1 $650 $649 $493 $642 forward $488 $-1 #
straight-curve $-1 -60.009819507623398 -35.761622285392576 1.8110034985787822 0 0 1 I I #
edge $-1 $645 -35.761622285392576 $643 35.761622285392576 $640 $721 forward 7 unknown #
vertex $-1 $494 $722 #
straight-curve $-1 -33.233907252771814 -35.761622285392576 0.84801603569546824 1 0 0 I I #
vertex $-1 $496 $723 #
straight-curve $-1 -33.233907252771814 35.761622285392576 0.84801603569546824 -1 0 0 I I #
point $-1 -60.009819507623398 35.761622285392576 0.84801603569546824 #
point $-1 -60.009819507623398 -35.761622285392576 0.84801603569546824 #
coedge $-1 $640 $500 $503 $652 forward $488 $-1 #
coedge $-1 $500 $640 $507 $654 reversed $488 $-1 #
straight-curve $-1 -72.925809503463853 0 6.3959979586196605 0 1 0 I I #
edge $-1 $505 -6.3959979586196605 $645 -0.84801603569546824 $503 $724 forward 7 unknown #
point $-1 -72.925809503463853 35.761622285392576 6.3959979586196605 #
edge $-1 $508 -6.3959979586196605 $643 -0.84801603569546824 $650 $725 forward 7 unknown #
point $-1 -72.925809503463853 -35.761622285392576 6.3959979586196605 #
straight-curve $-1 -60.009819507623398 35.761622285392576 1.8110034985787822 0 0 -1 I I #
coedge $-1 $658 $522 $524 $665 forward $513 $-1 #
coedge $-1 $518 $657 $515 $659 forward $513 $-1 #
edge $-1 $660 -60.009819507623398 $520 -44.671529990663721 $515 $726 forward 7 unknown #
vertex $-1 $659 $727 #
straight-curve $-1 -60.009819507623398 -35.761622285392576 44.720084517161879 0 0 -1 I I #
straight-curve $-1 -44.671529990663721 -77.618137672054274 10.059136334727206 0 1 0 I I #
point $-1 -44.671529990663721 -35.761622285392576 10.059136334727205 #
straight-curve $-1 -26.17033737457178 -32.767522708230679 10.059136334727205 -1 0 0 I I #
edge $-1 $525 -44.850614963823588 $660 -41.856515386661698 $657 $728 forward 7 unknown #
point $-1 -60.009819507623398 -32.767522708230686 10.059136334727205 #
point $-1 -44.671529990663721 -32.767522708230686 10.059136334727205 #
vertex $-1 $531 $729 #
point $-1 -55.942161604231458 -31.922138117343941 6.2809374378816187 #
vertex $-1 $535 $730 #
point $-1 -51.34067474914356 -31.922138117343941 6.2809374378816187 #
vertex $-1 $539 $731 #
point $-1 -46.739187894055654 -31.922138117343941 6.2809374378816187 #
coedge $-1 $544 $552 $545 $676 forward $384 $-1 #
edge $-1 $678 -40.297477130971842 $553 -24.959187614012173 $544 $732 forward 7 unknown #
edge $-1 $682 -35.761622285392576 $678 -32.767522708230686 $545 $733 forward 7 unknown #
edge $-1 $682 -10.059136334727205 $550 -5.7831188625573242 $546 $734 forward 7 unknown #
vertex $-1 $547 $735 #
straight-curve $-1 72.925809503463853 -31.237604263264281 12.244086378330103 0 0.57357642473473569 0.81915205242281985 I I #
point $-1 72.925809503463853 -35.761622285392576 5.7831188625573242 #
point $-1 57.587519986504184 -32.767522708230686 10.059136334727205 #
vertex $-1 $676 $736 #
straight-curve $-1 0 -35.761622285392576 10.059136334727205 1 0 0 I I #
vertex $-1 $559 $737 #
point $-1 61.655177889896123 -31.922138117343941 6.2809374378816187 #
vertex $-1 $563 $738 #
point $-1 66.256664744984022 -31.922138117343941 6.2809374378816187 #
vertex $-1 $567 $739 #
point $-1 70.85815160007192 -31.922138117343941 6.2809374378816187 #
edge $-1 $691 70.357452883709044 $694 74.184505234825025 $572 $740 forward 7 unknown #
vertex $-1 $586 $741 #
straight-curve $-1 6.4579949979202453 42.814577779168047 10.059136334727199 0 1 0 I I #
edge $-1 $694 -9.1093614558300757 $583 14.412094371649737 $582 $742 forward 7 unknown #
vertex $-1 $693 $743 #
straight-curve $-1 6.4579949979202453 -15.687893620075087 55.916305090773363 0 -0.71933979245794832 0.69465837861970381 I I #
point $-1 6.4579949979202453 31.7985936533222 10.059136334727206 #
point $-1 -17.063460829559567 35.761622285392576 6.2320839836112256 #
straight-curve $-1 0 35.761622285392576 10.059136334727205 -1 0 0 I I #
vertex $-1 $589 $744 #
point $-1 -9.3430448788510532 32.820301962288433 7.1517019660559775 #
vertex $-1 $593 $745 #
point $-1 0.73757904721172451 32.820301962288433 7.1517019660559775 #
straight-curve $-1 29.979450825400058 -15.687893620075087 55.916305090773363 0 -0.71933979245794832 0.69465837861970381 I I #
coedge $-1 $601 $607 $603 $706 reversed $597 $-1 #
straight-curve $-1 29.979450825400058 35.761622285392576 80.416589218436243 0 0 -1 I I #
edge $-1 $605 -29.979450825400058 $710 -6.4579949979202453 $704 $746 forward 7 unknown #
point $-1 29.979450825400058 31.7985936533222 10.059136334727206 #
point $-1 29.979450825400058 35.761622285392576 10.059136334727205 #
point $-1 29.979450825400058 35.761622285392576 6.2320839836112256 #
vertex $-1 $612 $747 #
straight-curve $-1 6.4579949979202453 42.814577779168047 10.059136334727199 0 -1 0 I I #
straight-curve $-1 6.4579949979202453 35.761622285392576 80.416589218436243 0 0 1 I I #
vertex $-1 $615 $748 #
point $-1 14.178410948628766 32.820301962288433 7.1517019660559775 #
vertex $-1 $619 $749 #
point $-1 24.259034874691537 32.820301962288433 7.1517019660559775 #
straight-curve $-1 -72.925809503463853 35.761622285392576 0 0 0 -1 I I #
point $-1 -72.925809503463853 -35.761622285392576 -10.059136334727205 #
straight-curve $-1 -72.925809503463853 0 -10.059136334727205 0 1 0 I I #
point $-1 -72.925809503463853 35.761622285392576 -10.059136334727205 #
straight-curve $-1 -72.925809503463853 0 0.84801603569546824 0 -1 0 I I #
point $-1 -72.925809503463853 -35.761622285392576 0.84801603569546824 #
point $-1 -72.925809503463853 35.761622285392576 0.84801603569546824 #
straight-curve $-1 -72.925809503463853 35.761622285392576 0 0 0 -1 I I #
straight-curve $-1 -72.925809503463853 -35.761622285392576 0 0 0 -1 I I #
straight-curve $-1 0 -35.761622285392576 10.059136334727205 1 0 0 I I #
point $-1 -60.009819507623398 -35.761622285392576 10.059136334727205 #
straight-curve $-1 -60.009819507623398 -77.618137672054274 10.059136334727206 0 -1 0 I I #
point $-1 -56.942161604231458 -31.102986064921119 5.7073610131468833 #
point $-1 -52.34067474914356 -31.102986064921119 5.7073610131468833 #
point $-1 -47.739187894055654 -31.102986064921119 5.7073610131468833 #
straight-curve $-1 32.628332372492011 -32.767522708230679 10.059136334727205 -1 0 0 I I #
straight-curve $-1 72.925809503463853 0 10.059136334727205 0 1 0 I I #
straight-curve $-1 72.925809503463853 -35.761622285392576 0 0 0 -1 I I #
point $-1 72.925809503463853 -32.767522708230686 10.059136334727205 #
point $-1 72.925809503463853 -35.761622285392576 10.059136334727205 #
point $-1 60.655177889896123 -31.102986064921119 5.7073610131468833 #
point $-1 65.256664744984022 -31.102986064921119 5.7073610131468833 #
point $-1 69.85815160007192 -31.102986064921119 5.7073610131468833 #
straight-curve $-1 6.4579949979202453 35.761622285392576 80.416589218436243 0 0 -1 I I #
point $-1 6.4579949979202453 35.761622285392576 10.059136334727205 #
straight-curve $-1 -2.6513664579098304 35.761622285392576 6.2320839836112292 -1 0 0 I I #
point $-1 6.4579949979202453 35.761622285392576 6.2320839836112256 #
point $-1 -10.343044878851053 32.125643583668726 6.4323621735980296 #
point $-1 -0.26242095278827549 32.125643583668726 6.4323621735980296 #
straight-curve $-1 0 35.761622285392576 10.059136334727205 -1 0 0 I I #
point $-1 6.4579949979202453 35.761622285392576 10.059136334727205 #
point $-1 13.178410948628766 32.125643583668726 6.4323621735980296 #
point $-1 23.259034874691537 32.125643583668726 6.4323621735980296 #
End-of-ACIS-data 