500 0 7 0           
7 Unknown 11 ACIS 5.0 NT 24 Fri Mar 26 19:48:01 1999 
-1 9.9999999999999995e-007 1e-010 
body $-1 $7 $-1 $8 #
body $-1 $9 $-1 $10 #
body $-1 $11 $-1 $12 #
body $-1 $13 $-1 $14 #
body $-1 $15 $-1 $16 #
body $-1 $17 $-1 $18 #
body $-1 $19 $-1 $20 #
lump $-1 $-1 $21 $0 #
transform $-1 1 0 0 0 1 0 0 0 1 66.217841120639662 29.772464501169583 10.668004568872099 1 rotate no_reflect no_shear #
lump $-1 $-1 $22 $1 #
transform $-1 1 0 0 0 1 0 0 0 1 66.217841120639662 29.772464501169583 10.668004568872099 1 rotate no_reflect no_shear #
lump $-1 $-1 $23 $2 #
transform $-1 1 0 0 0 1 0 0 0 1 66.217841120639662 29.772464501169583 10.668004568872099 1 rotate no_reflect no_shear #
lump $-1 $-1 $24 $3 #
transform $-1 1 0 0 0 1 0 0 0 1 66.217841120639662 29.772464501169583 10.668004568872099 1 rotate no_reflect no_shear #
lump $-1 $-1 $25 $4 #
transform $-1 1 0 0 0 1 0 0 0 1 66.217841120639662 29.772464501169583 10.668004568872099 1 rotate no_reflect no_shear #
lump $-1 $-1 $26 $5 #
transform $-1 1 0 0 0 1 0 0 0 1 66.217841120639662 29.772464501169583 10.668004568872099 1 rotate no_reflect no_shear #
lump $-1 $-1 $27 $6 #
transform $-1 1 0 0 0 1 0 0 0 1 66.217841120639662 29.772464501169583 10.668004568872099 1 rotate no_reflect no_shear #
shell $-1 $-1 $-1 $28 $-1 $7 #
shell $-1 $-1 $-1 $29 $-1 $9 #
shell $-1 $-1 $-1 $30 $-1 $11 #
shell $-1 $-1 $-1 $31 $-1 $13 #
shell $-1 $-1 $-1 $32 $-1 $15 #
shell $-1 $-1 $-1 $33 $-1 $17 #
shell $-1 $-1 $-1 $34 $-1 $19 #
face $-1 $35 $36 $21 $-1 $37 forward single #
face $-1 $38 $39 $22 $-1 $40 forward single #
face $-1 $41 $42 $23 $-1 $43 reversed single #
face $-1 $44 $45 $24 $-1 $46 forward single #
face $-1 $47 $48 $25 $-1 $49 forward single #
face $-1 $50 $51 $26 $-1 $52 reversed single #
face $-1 $53 $54 $27 $-1 $55 forward single #
face $-1 $56 $57 $21 $-1 $58 reversed single #
loop $-1 $-1 $59 $28 #
plane-surface $-1 0 0 10.668004568872099 0 0 1 1 0 0 forward_v I I I I #
face $-1 $60 $61 $22 $-1 $62 forward single #
loop $-1 $-1 $63 $29 #
plane-surface $-1 0 -29.772464501169583 0 0 1 0 0 0 1 forward_v I I I I #
face $-1 $64 $65 $23 $-1 $66 reversed single #
loop $-1 $-1 $67 $30 #
plane-surface $-1 98.740816915341497 -7.4823735392192221 187.59961054556715 0 -1 0 -0.81915205242281985 0 -0.57357642473473569 forward_v I I I I #
face $-1 $68 $69 $24 $-1 $70 forward single #
loop $-1 $71 $72 $31 #
cone-surface $-1 63.175166342971671 -14.413863184418604 6.6221809538336487 -0.81915205242281985 0 -0.57357642473473569 0.57357642473473569 0 -0.81915205242281985 1 I I 0 1 1 forward I I I I #
face $-1 $73 $74 $25 $-1 $75 forward single #
loop $-1 $76 $77 $32 #
cone-surface $-1 63.175166342971671 -10.254969397298975 6.6221809538336487 -0.81915205242281985 0 -0.57357642473473569 0.57357642473473569 0 -0.81915205242281985 1 I I 0 1 1 forward I I I I #
face $-1 $78 $79 $26 $-1 $80 reversed single #
loop $-1 $-1 $81 $33 #
plane-surface $-1 -178.52967035803707 -17.186459042498356 74.347809804324754 0 1 0 -0.84804810408105047 0 0.52991925155115449 forward_v I I I I #
face $-1 $82 $83 $27 $-1 $84 forward single #
loop $-1 $85 $86 $34 #
cone-surface $-1 -62.96026212183439 -13.197312467274052 6.6513181423382202 0.84804810408105047 0 -0.52991925155115449 0.52991925155115449 0 0.84804810408105047 1 I I 0 1 1 forward I I I I #
face $-1 $87 $88 $21 $-1 $89 reversed single #
loop $-1 $-1 $90 $35 #
plane-surface $-1 0 0 -10.668004568872099 0 0 1 1 0 0 forward_v I I I I #
coedge $-1 $91 $92 $93 $94 forward $36 $-1 #
face $-1 $95 $96 $22 $-1 $97 reversed single #
loop $-1 $-1 $98 $38 #
plane-surface $-1 0 0 10.668004568872099 0 0 1 1 0 0 forward_v I I I I #
coedge $-1 $99 $100 $101 $102 forward $39 $-1 #
face $-1 $103 $104 $23 $-1 $105 reversed single #
loop $-1 $-1 $106 $41 #
plane-surface $-1 -9.7441440066188534 -12.33441629085879 111.63762541830863 0.81915205242281985 0 0.57357642473473569 0.57357642473473569 0 -0.81915205242281985 forward_v I I I I #
coedge $-1 $107 $108 $109 $110 reversed $42 $-1 #
face $-1 $-1 $111 $24 $-1 $112 forward single #
loop $-1 $113 $114 $44 #
cone-surface $-1 62.354064345174265 -14.413863184418604 6.0472391626897419 -0.81915205242281985 0 -0.57357642473473569 0.28678821236736785 0 -0.40957602621140993 1 I I -0.70710678118654746 0.70710678118654746 0.5 forward I I I I #
loop $-1 $-1 $115 $31 #
coedge $-1 $72 $72 $116 $117 reversed $45 $-1 #
face $-1 $-1 $118 $25 $-1 $119 forward single #
loop $-1 $120 $121 $47 #
cone-surface $-1 62.354064345174265 -10.254969397298975 6.0472391626897419 -0.81915205242281985 0 -0.57357642473473569 0.28678821236736785 0 -0.40957602621140993 1 I I -0.70710678118654746 0.70710678118654746 0.5 forward I I I I #
loop $-1 $-1 $122 $32 #
coedge $-1 $77 $77 $123 $124 reversed $48 $-1 #
face $-1 $125 $126 $26 $-1 $127 reversed single #
loop $-1 $-1 $128 $50 #
plane-surface $-1 -66.21784112063969 -13.197312467274052 4.1675921923594927 -0.84804810408105047 0 0.52991925155115449 0.52991925155115449 0 0.84804810408105047 forward_v I I I I #
coedge $-1 $129 $130 $131 $132 reversed $51 $-1 #
face $-1 $-1 $133 $27 $-1 $134 forward single #
loop $-1 $135 $136 $53 #
cone-surface $-1 -61.309613237832764 -13.197312467274052 5.6198782782850714 0.84804810408105047 0 -0.52991925155115449 0.26495962577557725 0 0.42402405204052523 1 I I -0.70710678118654746 0.70710678118654746 0.5 forward I I I I #
loop $-1 $-1 $137 $34 #
coedge $-1 $86 $86 $138 $139 reversed $54 $-1 #
face $-1 $140 $141 $21 $-1 $142 reversed single #
loop $-1 $-1 $143 $56 #
plane-surface $-1 0 -29.772464501169583 0 0 1 0 0 0 1 forward_v I I I I #
coedge $-1 $144 $145 $146 $147 forward $57 $-1 #
coedge $-1 $148 $59 $149 $150 forward $36 $-1 #
coedge $-1 $59 $148 $151 $152 forward $36 $-1 #
coedge $-1 $153 $154 $59 $94 reversed $155 $-1 #
edge $-1 $156 -29.772464501169583 $157 29.772464501169583 $93 $158 forward 7 unknown #
face $-1 $159 $160 $22 $-1 $161 reversed single #
loop $-1 $-1 $162 $60 #
plane-surface $-1 -66.217841120639662 0 0 1 0 0 0 0 -1 forward_v I I I I #
coedge $-1 $163 $164 $165 $166 forward $61 $-1 #
coedge $-1 $165 $63 $162 $167 reversed $39 $-1 #
coedge $-1 $63 $165 $168 $169 reversed $39 $-1 #
coedge $-1 $170 $171 $63 $102 reversed $160 $-1 #
edge $-1 $172 -66.217841120639662 $173 66.217841120639662 $101 $174 forward 7 unknown #
face $-1 $175 $176 $23 $-1 $177 reversed single #
loop $-1 $-1 $178 $64 #
plane-surface $-1 98.740816915341497 -17.18645904249836 187.59961054556715 0 1 0 0.81915205242281985 0 0.57357642473473569 forward_v I I I I #
coedge $-1 $179 $180 $181 $182 reversed $65 $-1 #
coedge $-1 $108 $67 $183 $184 reversed $42 $-1 #
coedge $-1 $67 $107 $179 $185 reversed $42 $-1 #
coedge $-1 $181 $186 $67 $110 forward $187 $-1 #
edge $-1 $188 -16.847432662968913 $189 -11.585135050804837 $109 $190 forward 7 unknown #
loop $-1 $-1 $116 $68 #
plane-surface $-1 -9.7441440066188534 -12.33441629085879 111.63762541830863 0.81915205242281985 0 0.57357642473473569 0.57357642473473569 0 -0.81915205242281985 forward_v I I I I #
loop $-1 $-1 $191 $44 #
coedge $-1 $114 $114 $115 $192 reversed $69 $-1 #
coedge $-1 $115 $115 $114 $192 forward $71 $-1 #
coedge $-1 $116 $116 $72 $117 forward $111 $-1 #
edge $-1 $193 0 $193 6.2831853071796004 $116 $194 forward 7 unknown #
loop $-1 $-1 $123 $73 #
plane-surface $-1 -9.7441440066188534 -12.33441629085879 111.63762541830863 0.81915205242281985 0 0.57357642473473569 0.57357642473473569 0 -0.81915205242281985 forward_v I I I I #
loop $-1 $-1 $195 $47 #
coedge $-1 $121 $121 $122 $196 reversed $74 $-1 #
coedge $-1 $122 $122 $121 $196 forward $76 $-1 #
coedge $-1 $123 $123 $77 $124 forward $118 $-1 #
edge $-1 $197 0 $197 6.2831853071796004 $123 $198 forward 7 unknown #
face $-1 $199 $200 $26 $-1 $201 forward single #
loop $-1 $-1 $202 $78 #
plane-surface $-1 -178.52967035803707 -9.2081658920497489 74.347809804324754 0 -1 0 0.84804810408105047 0 -0.52991925155115449 forward_v I I I I #
coedge $-1 $203 $204 $205 $206 reversed $79 $-1 #
coedge $-1 $130 $81 $207 $208 reversed $51 $-1 #
coedge $-1 $81 $129 $203 $209 reversed $51 $-1 #
coedge $-1 $205 $210 $81 $132 forward $200 $-1 #
edge $-1 $211 23.046994058378871 $212 27.108902392067193 $131 $213 forward 7 unknown #
loop $-1 $-1 $138 $82 #
plane-surface $-1 -66.21784112063969 -13.197312467274052 4.1675921923594927 -0.84804810408105047 0 0.52991925155115449 0.52991925155115449 0 0.84804810408105047 forward_v I I I I #
loop $-1 $-1 $214 $53 #
coedge $-1 $136 $136 $137 $215 reversed $83 $-1 #
coedge $-1 $137 $137 $136 $215 forward $85 $-1 #
coedge $-1 $138 $138 $86 $139 forward $133 $-1 #
edge $-1 $216 0 $216 6.2831853071796004 $138 $217 forward 7 unknown #
face $-1 $218 $219 $21 $-1 $220 reversed single #
loop $-1 $-1 $221 $87 #
plane-surface $-1 -66.217841120639662 0 0 1 0 0 0 0 -1 forward_v I I I I #
coedge $-1 $222 $151 $223 $224 forward $88 $-1 #
coedge $-1 $225 $90 $222 $226 forward $57 $-1 #
coedge $-1 $90 $225 $227 $228 forward $57 $-1 #
coedge $-1 $154 $153 $90 $147 reversed $155 $-1 #
edge $-1 $229 -29.772464501169583 $230 29.772464501169583 $146 $231 forward 7 unknown #
coedge $-1 $92 $91 $232 $233 forward $36 $-1 #
coedge $-1 $234 $235 $91 $150 reversed $219 $-1 #
edge $-1 $157 -66.217841120639662 $236 66.217841120639662 $149 $237 forward 7 unknown #
coedge $-1 $143 $238 $92 $152 reversed $88 $-1 #
edge $-1 $239 -66.217841120639662 $156 66.217841120639662 $151 $240 forward 7 unknown #
coedge $-1 $146 $93 $238 $241 forward $155 $-1 #
coedge $-1 $93 $146 $234 $242 reversed $155 $-1 #
loop $-1 $-1 $153 $218 #
vertex $-1 $94 $243 #
vertex $-1 $94 $244 #
straight-curve $-1 66.217841120639662 0 10.668004568872099 0 1 0 I I #
face $-1 $245 $246 $22 $-1 $247 reversed single #
loop $-1 $-1 $170 $95 #
plane-surface $-1 0 -36.065467230505199 4.3638314779910914 0 0 1 1 0 0 forward_v I I I I #
coedge $-1 $248 $249 $99 $167 forward $96 $-1 #
coedge $-1 $250 $98 $249 $251 forward $61 $-1 #
coedge $-1 $98 $250 $252 $253 forward $61 $-1 #
coedge $-1 $100 $99 $98 $166 reversed $39 $-1 #
edge $-1 $254 -66.217841120639662 $255 66.217841120639662 $98 $256 forward 7 unknown #
edge $-1 $255 -10.668004568872099 $173 -4.3638314779910914 $162 $257 forward 7 unknown #
coedge $-1 $252 $258 $100 $169 forward $259 $-1 #
edge $-1 $172 4.3638314779910914 $254 10.668004568872099 $168 $260 forward 7 unknown #
coedge $-1 $261 $101 $258 $262 forward $160 $-1 #
coedge $-1 $101 $261 $248 $263 forward $160 $-1 #
vertex $-1 $169 $264 #
vertex $-1 $167 $265 #
straight-curve $-1 0 -29.772464501169583 4.3638314779910914 -1 0 0 I I #
face $-1 $-1 $187 $23 $-1 $266 forward single #
loop $-1 $-1 $267 $103 #
plane-surface $-1 66.217841120639662 0 0 -1 0 0 0 0 1 forward_v I I I I #
coedge $-1 $268 $269 $270 $271 reversed $104 $-1 #
coedge $-1 $272 $106 $108 $185 forward $65 $-1 #
coedge $-1 $106 $272 $268 $273 forward $65 $-1 #
coedge $-1 $270 $109 $106 $182 forward $187 $-1 #
edge $-1 $189 1.3151653937898269 $274 11.019250897068964 $181 $275 forward 7 unknown #
coedge $-1 $276 $277 $107 $184 forward $176 $-1 #
edge $-1 $278 -90.647140776435293 $188 -83.131800703911466 $183 $279 forward 7 unknown #
edge $-1 $189 123.26114614594078 $278 132.43568224127932 $108 $280 forward 7 unknown #
coedge $-1 $109 $270 $276 $281 forward $187 $-1 #
loop $-1 $-1 $270 $175 #
vertex $-1 $184 $282 #
vertex $-1 $110 $283 #
straight-curve $-1 49.370408457670749 -7.4823735392192221 10.668004568872107 -1 0 0 I I #
coedge $-1 $191 $191 $-1 $284 reversed $113 $-1 #
edge $-1 $285 0 $285 6.2831853071796004 $114 $286 forward 7 unknown #
vertex $-1 $117 $287 #
ellipse-curve $-1 63.586692314557652 -14.413863184418604 6.9103345326101797 0.81915205242281985 0 0.57357642473473569 0.57357642473473569 0 -0.81915205242281985 1 I I #
coedge $-1 $195 $195 $-1 $288 reversed $120 $-1 #
edge $-1 $289 0 $289 6.2831853071796004 $121 $290 forward 7 unknown #
vertex $-1 $124 $291 #
ellipse-curve $-1 63.586692314557652 -10.254969397298975 6.9103345326101797 0.81915205242281985 0 0.57357642473473569 0.57357642473473569 0 -0.81915205242281985 1 I I #
face $-1 $-1 $292 $26 $-1 $293 reversed single #
loop $-1 $-1 $131 $125 #
plane-surface $-1 0 0 10.668004568872099 0 0 1 1 0 0 forward_v I I I I #
coedge $-1 $294 $295 $296 $297 reversed $126 $-1 #
coedge $-1 $298 $128 $130 $209 forward $79 $-1 #
coedge $-1 $128 $298 $294 $299 forward $79 $-1 #
coedge $-1 $296 $131 $128 $206 forward $200 $-1 #
edge $-1 $212 -10.58780280886133 $300 -2.6095096584127226 $205 $301 forward 7 unknown #
coedge $-1 $302 $303 $129 $208 forward $292 $-1 #
edge $-1 $304 -33.006312709802842 $211 -26.505900333290278 $207 $305 forward 7 unknown #
edge $-1 $212 -7.6651458157040393 $304 -5.3475330259696214e-014 $130 $306 forward 7 unknown #
coedge $-1 $131 $296 $302 $307 forward $200 $-1 #
vertex $-1 $208 $308 #
vertex $-1 $132 $309 #
straight-curve $-1 -89.264835179018533 -17.186459042498356 10.668004568872099 1 0 0 I I #
coedge $-1 $214 $214 $-1 $310 reversed $135 $-1 #
edge $-1 $311 0 $311 6.2831853071796004 $136 $312 forward 7 unknown #
vertex $-1 $139 $313 #
ellipse-curve $-1 -64.186886953795508 -13.197312467274052 7.417798380615805 -0.84804810408105047 0 0.52991925155115449 0.52991925155115449 0 0.84804810408105047 1 I I #
face $-1 $-1 $155 $21 $-1 $314 reversed single #
loop $-1 $-1 $234 $140 #
plane-surface $-1 0 29.772464501169583 0 0 -1 0 0 0 -1 forward_v I I I I #
coedge $-1 $315 $232 $235 $316 forward $141 $-1 #
coedge $-1 $238 $143 $144 $226 reversed $88 $-1 #
coedge $-1 $232 $315 $143 $224 reversed $141 $-1 #
edge $-1 $239 -10.668004568872099 $317 10.668004568872099 $223 $318 forward 7 unknown #
coedge $-1 $145 $144 $315 $319 forward $57 $-1 #
edge $-1 $230 -66.217841120639662 $317 66.217841120639662 $222 $320 forward 7 unknown #
coedge $-1 $235 $234 $145 $228 reversed $219 $-1 #
edge $-1 $321 -66.217841120639662 $229 66.217841120639662 $227 $322 forward 7 unknown #
vertex $-1 $147 $323 #
vertex $-1 $241 $324 #
straight-curve $-1 66.217841120639662 0 -10.668004568872099 0 -1 0 I I #
coedge $-1 $221 $223 $148 $233 reversed $141 $-1 #
edge $-1 $236 -29.772464501169583 $239 29.772464501169583 $232 $325 forward 7 unknown #
coedge $-1 $227 $149 $154 $242 forward $219 $-1 #
coedge $-1 $149 $227 $221 $316 reversed $219 $-1 #
vertex $-1 $150 $326 #
straight-curve $-1 0 29.772464501169583 10.668004568872099 -1 0 0 I I #
coedge $-1 $151 $222 $153 $241 reversed $88 $-1 #
vertex $-1 $233 $327 #
straight-curve $-1 0 -29.772464501169583 10.668004568872099 1 0 0 I I #
edge $-1 $156 -10.668004568872099 $230 10.668004568872099 $153 $328 forward 7 unknown #
edge $-1 $157 -10.668004568872099 $229 10.668004568872099 $154 $329 forward 7 unknown #
point $-1 66.217841120639662 -29.772464501169583 10.668004568872099 #
point $-1 66.217841120639662 29.772464501169583 10.668004568872099 #
face $-1 $-1 $259 $22 $-1 $330 reversed single #
loop $-1 $-1 $331 $159 #
plane-surface $-1 0 -42.358469959840811 7.5159180234315954 0 1 0 0 0 1 forward_v I I I I #
coedge $-1 $332 $162 $171 $263 reversed $96 $-1 #
coedge $-1 $162 $332 $163 $251 reversed $96 $-1 #
coedge $-1 $164 $163 $333 $334 forward $61 $-1 #
edge $-1 $255 29.772464501169583 $335 42.358469959840811 $249 $336 forward 7 unknown #
coedge $-1 $337 $168 $164 $253 reversed $259 $-1 #
edge $-1 $338 -42.358469959840811 $254 -29.772464501169583 $252 $339 forward 7 unknown #
vertex $-1 $169 $340 #
vertex $-1 $251 $341 #
straight-curve $-1 0 -29.772464501169583 10.668004568872099 -1 0 0 I I #
straight-curve $-1 -66.217841120639662 -29.772464501169583 0 0 0 -1 I I #
coedge $-1 $168 $337 $170 $262 reversed $259 $-1 #
loop $-1 $-1 $168 $245 #
straight-curve $-1 66.217841120639662 -29.772464501169583 0 0 0 1 I I #
coedge $-1 $171 $170 $342 $343 forward $160 $-1 #
edge $-1 $172 -6.2930027293356119 $344 6.2930027293356119 $258 $345 forward 7 unknown #
edge $-1 $346 -6.2930027293356119 $173 6.2930027293356119 $248 $347 forward 7 unknown #
point $-1 66.217841120639662 -29.772464501169587 4.3638314779910914 #
point $-1 -66.217841120639662 -29.772464501169587 4.3638314779910914 #
plane-surface $-1 0 0 10.668004568872099 0 0 1 1 0 0 forward_v I I I I #
coedge $-1 $277 $276 $269 $348 forward $176 $-1 #
coedge $-1 $269 $178 $180 $273 reversed $104 $-1 #
coedge $-1 $178 $268 $267 $348 reversed $104 $-1 #
coedge $-1 $186 $181 $178 $271 forward $187 $-1 #
edge $-1 $274 11.585135050804837 $349 16.847432662968913 $270 $350 forward 7 unknown #
coedge $-1 $180 $179 $277 $351 reversed $65 $-1 #
edge $-1 $352 -132.43568224127932 $274 -123.26114614594078 $268 $353 forward 7 unknown #
vertex $-1 $182 $354 #
straight-curve $-1 60.9555435084756 -6.1672081454293952 10.668004568872107 0 -1 0 I I #
coedge $-1 $267 $183 $186 $281 reversed $176 $-1 #
coedge $-1 $183 $267 $272 $351 forward $176 $-1 #
vertex $-1 $184 $355 #
straight-curve $-1 66.217841120639662 -7.4823735392192221 93.799805272783573 0 0 1 I I #
straight-curve $-1 -9.7441440066188534 -7.4823735392192221 111.63762541830863 0.57357642473473569 0 -0.81915205242281985 I I #
edge $-1 $349 -17.18645904249836 $188 -7.4823735392192221 $276 $356 forward 7 unknown #
point $-1 66.217841120639662 -7.4823735392192221 10.668004568872099 #
point $-1 60.955543508475586 -7.4823735392192221 10.668004568872107 #
edge $-1 $357 1 $357 0 $191 $-1 forward 7 unknown #
vertex $-1 $192 $358 #
ellipse-curve $-1 62.763640371385677 -14.413863184418604 6.3340273750571097 0.81915205242281985 0 0.57357642473473569 0.57357642473473569 0 -0.81915205242281985 1 I I #
point $-1 64.160268739292391 -14.413863184418604 6.091182480187368 #
edge $-1 $359 1 $359 0 $195 $-1 forward 7 unknown #
vertex $-1 $196 $360 #
ellipse-curve $-1 62.763640371385677 -10.254969397298975 6.3340273750571097 0.81915205242281985 0 0.57357642473473569 0.57357642473473569 0 -0.81915205242281985 1 I I #
point $-1 64.160268739292391 -10.254969397298975 6.091182480187368 #
loop $-1 $-1 $207 $199 #
plane-surface $-1 -66.217841120639662 0 0 1 0 0 0 0 -1 forward_v I I I I #
coedge $-1 $295 $202 $204 $299 reversed $126 $-1 #
coedge $-1 $202 $294 $361 $362 reversed $126 $-1 #
coedge $-1 $210 $205 $202 $297 forward $200 $-1 #
edge $-1 $300 -27.108902392067193 $363 -23.046994058378871 $296 $364 forward 7 unknown #
coedge $-1 $204 $203 $303 $365 reversed $79 $-1 #
edge $-1 $366 5.3475330259696214e-014 $300 7.6651458157040393 $294 $367 forward 7 unknown #
vertex $-1 $206 $368 #
straight-curve $-1 -62.15593278695134 -6.5986562336370262 10.668004568872099 0 1 0 I I #
coedge $-1 $361 $207 $210 $307 reversed $292 $-1 #
coedge $-1 $207 $361 $298 $365 forward $292 $-1 #
vertex $-1 $208 $369 #
straight-curve $-1 -66.217841120639662 -17.186459042498356 37.173904902162377 0 0 1 I I #
straight-curve $-1 -66.21784112063969 -17.186459042498356 4.1675921923594927 -0.52991925155115449 0 -0.84804810408105047 I I #
edge $-1 $363 9.2081658920497489 $211 17.186459042498356 $302 $370 forward 7 unknown #
point $-1 -66.217841120639662 -17.186459042498356 10.668004568872099 #
point $-1 -62.15593278695134 -17.186459042498356 10.668004568872099 #
edge $-1 $371 1 $371 0 $214 $-1 forward 7 unknown #
vertex $-1 $215 $372 #
ellipse-curve $-1 -61.733637289873286 -13.197312467274052 5.8848379040606487 -0.84804810408105047 0 0.52991925155115449 0.52991925155115449 0 0.84804810408105047 1 I I #
point $-1 -63.65696770224433 -13.197312467274052 8.2658464846968425 #
plane-surface $-1 66.217841120639662 0 0 -1 0 0 0 0 1 forward_v I I I I #
coedge $-1 $223 $221 $225 $319 reversed $141 $-1 #
edge $-1 $236 -10.668004568872099 $321 10.668004568872099 $235 $373 forward 7 unknown #
vertex $-1 $319 $374 #
straight-curve $-1 -66.217841120639662 -29.772464501169583 0 0 0 -1 I I #
edge $-1 $317 -29.772464501169583 $321 29.772464501169583 $315 $375 forward 7 unknown #
straight-curve $-1 0 -29.772464501169583 -10.668004568872099 -1 0 0 I I #
vertex $-1 $228 $376 #
straight-curve $-1 0 29.772464501169583 -10.668004568872099 1 0 0 I I #
point $-1 66.217841120639662 29.772464501169583 -10.668004568872099 #
point $-1 66.217841120639662 -29.772464501169583 -10.668004568872099 #
straight-curve $-1 -66.217841120639662 0 10.668004568872099 0 -1 0 I I #
point $-1 -66.217841120639662 29.772464501169583 10.668004568872099 #
point $-1 -66.217841120639662 -29.772464501169583 10.668004568872099 #
straight-curve $-1 66.217841120639662 -29.772464501169583 0 0 0 -1 I I #
straight-curve $-1 66.217841120639662 29.772464501169583 0 0 0 -1 I I #
plane-surface $-1 66.217841120639662 0 0 -1 0 0 0 0 1 forward_v I I I I #
coedge $-1 $342 $333 $332 $377 forward $246 $-1 #
coedge $-1 $249 $248 $331 $377 reversed $96 $-1 #
coedge $-1 $331 $378 $250 $334 reversed $246 $-1 #
edge $-1 $335 -66.217841120639662 $338 66.217841120639662 $333 $379 forward 7 unknown #
vertex $-1 $251 $380 #
straight-curve $-1 -66.217841120639662 0 10.668004568872099 0 -1 0 I I #
coedge $-1 $258 $252 $378 $381 forward $259 $-1 #
vertex $-1 $253 $382 #
straight-curve $-1 66.217841120639662 0 10.668004568872099 0 1 0 I I #
point $-1 66.217841120639662 -29.772464501169583 10.668004568872099 #
point $-1 -66.217841120639662 -29.772464501169583 10.668004568872099 #
coedge $-1 $378 $331 $261 $343 reversed $246 $-1 #
edge $-1 $344 -66.217841120639662 $346 66.217841120639662 $342 $383 forward 7 unknown #
vertex $-1 $381 $384 #
straight-curve $-1 66.217841120639662 -36.065467230505199 4.3638314779910914 0 -1 0 I I #
vertex $-1 $263 $385 #
straight-curve $-1 -66.217841120639662 -36.065467230505199 4.3638314779910914 0 1 0 I I #
edge $-1 $349 83.131800703911466 $352 90.647140776435293 $267 $386 forward 7 unknown #
vertex $-1 $281 $387 #
straight-curve $-1 49.370408457670749 -17.18645904249836 10.668004568872107 1 0 0 I I #
edge $-1 $352 -11.019250897068964 $278 -1.3151653937898269 $277 $388 forward 7 unknown #
vertex $-1 $351 $389 #
straight-curve $-1 -9.7441440066188534 -17.18645904249836 111.63762541830863 -0.57357642473473569 0 0.81915205242281985 I I #
point $-1 60.955543508475586 -17.18645904249836 10.668004568872107 #
point $-1 66.217841120639662 -7.4823735392192221 3.1526644963482795 #
straight-curve $-1 66.217841120639662 0 10.668004568872099 0 1 0 I I #
vertex $-1 $284 $390 #
point $-1 63.337216796120408 -14.413863184418604 5.5148753226342899 #
vertex $-1 $288 $391 #
point $-1 63.337216796120408 -10.254969397298975 5.5148753226342899 #
coedge $-1 $303 $302 $295 $362 forward $292 $-1 #
edge $-1 $363 26.505900333290278 $366 33.006312709802842 $361 $392 forward 7 unknown #
vertex $-1 $307 $393 #
straight-curve $-1 -89.264835179018533 -9.2081658920497489 10.668004568872099 -1 0 0 I I #
edge $-1 $366 2.6095096584127226 $304 10.58780280886133 $303 $394 forward 7 unknown #
vertex $-1 $365 $395 #
straight-curve $-1 -66.21784112063969 -9.2081658920497489 4.1675921923594927 0.52991925155115449 0 0.84804810408105047 I I #
point $-1 -62.15593278695134 -9.2081658920497489 10.668004568872099 #
point $-1 -66.217841120639662 -17.186459042498356 4.167592192359538 #
straight-curve $-1 -66.217841120639662 0 10.668004568872099 0 -1 0 I I #
vertex $-1 $310 $396 #
point $-1 -61.203718038322137 -13.197312467274052 6.7328860081416995 #
straight-curve $-1 -66.217841120639662 29.772464501169583 0 0 0 -1 I I #
point $-1 -66.217841120639662 -29.772464501169583 -10.668004568872099 #
straight-curve $-1 -66.217841120639662 0 -10.668004568872099 0 1 0 I I #
point $-1 -66.217841120639662 29.772464501169583 -10.668004568872099 #
edge $-1 $335 -3.152086545440504 $346 3.152086545440504 $332 $397 forward 7 unknown #
coedge $-1 $333 $342 $337 $381 reversed $246 $-1 #
straight-curve $-1 0 -42.358469959840811 10.668004568872099 1 0 0 I I #
point $-1 -66.217841120639662 -42.358469959840811 10.668004568872099 #
edge $-1 $338 -3.152086545440504 $344 3.152086545440504 $337 $398 forward 7 unknown #
point $-1 66.217841120639662 -42.358469959840811 10.668004568872099 #
straight-curve $-1 0 -42.358469959840811 4.3638314779910914 -1 0 0 I I #
point $-1 66.217841120639662 -42.358469959840811 4.3638314779910914 #
point $-1 -66.217841120639662 -42.358469959840811 4.3638314779910914 #
straight-curve $-1 66.217841120639662 -17.18645904249836 93.799805272783573 0 0 -1 I I #
point $-1 66.217841120639662 -17.18645904249836 10.668004568872099 #
straight-curve $-1 66.217841120639662 -6.1672081454293952 3.1526644963482724 0 1 0 I I #
point $-1 66.217841120639662 -17.18645904249836 3.1526644963482795 #
point $-1 61.944488318962854 -14.413863184418604 5.7604509503223742 #
point $-1 61.944488318962854 -10.254969397298975 5.7604509503223742 #
straight-curve $-1 -66.217841120639662 -9.2081658920497489 37.173904902162377 0 0 -1 I I #
point $-1 -66.217841120639662 -9.2081658920497489 10.668004568872099 #
straight-curve $-1 -66.217841120639662 -6.5986562336370262 4.1675921923595398 0 -1 0 I I #
point $-1 -66.217841120639662 -9.2081658920497489 4.167592192359538 #
point $-1 -60.885589185792242 -13.197312467274052 5.3549186525094941 #
straight-curve $-1 -66.217841120639662 -42.358469959840811 7.5159180234315954 0 0 -1 I I #
straight-curve $-1 66.217841120639662 -42.358469959840811 7.5159180234315954 0 0 -1 I I #
End-of-ACIS-data 