500 0 16 0           
7 Unknown 11 ACIS 5.0 NT 24 Fri Mar 26 01:46:45 1999 
-1 9.9999999999999995e-007 1e-010 
body $-1 $16 $-1 $17 #
body $-1 $18 $-1 $19 #
body $-1 $20 $-1 $21 #
body $-1 $22 $-1 $23 #
body $-1 $24 $-1 $25 #
body $-1 $26 $-1 $27 #
body $-1 $28 $-1 $29 #
body $-1 $30 $-1 $31 #
body $-1 $32 $-1 $33 #
body $-1 $34 $-1 $35 #
body $-1 $36 $-1 $37 #
body $-1 $38 $-1 $39 #
body $-1 $40 $-1 $41 #
body $-1 $42 $-1 $43 #
body $-1 $44 $-1 $45 #
body $-1 $46 $-1 $47 #
lump $-1 $-1 $48 $0 #
transform $-1 1 0 0 0 1 0 0 0 1 66.166570024719988 26.778610646956363 9.0112513332804234 1 rotate no_reflect no_shear #
lump $-1 $-1 $49 $1 #
transform $-1 1 0 0 0 1 0 0 0 1 66.166570024719988 26.778610646956363 9.0112513332804234 1 rotate no_reflect no_shear #
lump $-1 $-1 $50 $2 #
transform $-1 1 0 0 0 1 0 0 0 1 66.166570024719988 26.778610646956363 9.0112513332804234 1 rotate no_reflect no_shear #
lump $-1 $-1 $51 $3 #
transform $-1 1 0 0 0 1 0 0 0 1 66.166570024719988 26.778610646956363 9.0112513332804234 1 rotate no_reflect no_shear #
lump $-1 $-1 $52 $4 #
transform $-1 1 0 0 0 1 0 0 0 1 66.166570024719988 26.778610646956363 9.0112513332804234 1 rotate no_reflect no_shear #
lump $-1 $-1 $53 $5 #
transform $-1 1 0 0 0 1 0 0 0 1 66.166570024719988 26.778610646956363 9.0112513332804234 1 rotate no_reflect no_shear #
lump $-1 $-1 $54 $6 #
transform $-1 1 0 0 0 1 0 0 0 1 66.166570024719988 26.778610646956363 9.0112513332804234 1 rotate no_reflect no_shear #
lump $-1 $-1 $55 $7 #
transform $-1 1 0 0 0 1 0 0 0 1 66.166570024719988 26.778610646956363 9.0112513332804234 1 rotate no_reflect no_shear #
lump $-1 $-1 $56 $8 #
transform $-1 1 0 0 0 1 0 0 0 1 66.166570024719988 26.778610646956363 9.0112513332804234 1 rotate no_reflect no_shear #
lump $-1 $-1 $57 $9 #
transform $-1 1 0 0 0 1 0 0 0 1 66.166570024719988 26.778610646956363 9.0112513332804234 1 rotate no_reflect no_shear #
lump $-1 $-1 $58 $10 #
transform $-1 1 0 0 0 1 0 0 0 1 66.166570024719988 26.778610646956363 9.0112513332804234 1 rotate no_reflect no_shear #
lump $-1 $-1 $59 $11 #
transform $-1 1 0 0 0 1 0 0 0 1 66.166570024719988 26.778610646956363 9.0112513332804234 1 rotate no_reflect no_shear #
lump $-1 $-1 $60 $12 #
transform $-1 1 0 0 0 1 0 0 0 1 66.166570024719988 26.778610646956363 9.0112513332804234 1 rotate no_reflect no_shear #
lump $-1 $-1 $61 $13 #
transform $-1 1 0 0 0 1 0 0 0 1 66.166570024719988 26.778610646956363 9.0112513332804234 1 rotate no_reflect no_shear #
lump $-1 $-1 $62 $14 #
transform $-1 1 0 0 0 1 0 0 0 1 66.166570024719988 26.778610646956363 9.0112513332804234 1 rotate no_reflect no_shear #
lump $-1 $-1 $63 $15 #
transform $-1 1 0 0 0 1 0 0 0 1 66.166570024719988 26.778610646956363 9.0112513332804234 1 rotate no_reflect no_shear #
shell $-1 $-1 $-1 $64 $-1 $16 #
shell $-1 $-1 $-1 $65 $-1 $18 #
shell $-1 $-1 $-1 $66 $-1 $20 #
shell $-1 $-1 $-1 $67 $-1 $22 #
shell $-1 $-1 $-1 $68 $-1 $24 #
shell $-1 $-1 $-1 $69 $-1 $26 #
shell $-1 $-1 $-1 $70 $-1 $28 #
shell $-1 $-1 $-1 $71 $-1 $30 #
shell $-1 $-1 $-1 $72 $-1 $32 #
shell $-1 $-1 $-1 $73 $-1 $34 #
shell $-1 $-1 $-1 $74 $-1 $36 #
shell $-1 $-1 $-1 $75 $-1 $38 #
shell $-1 $-1 $-1 $76 $-1 $40 #
shell $-1 $-1 $-1 $77 $-1 $42 #
shell $-1 $-1 $-1 $78 $-1 $44 #
shell $-1 $-1 $-1 $79 $-1 $46 #
face $-1 $80 $81 $48 $-1 $82 forward single #
face $-1 $83 $84 $49 $-1 $85 reversed single #
face $-1 $86 $87 $50 $-1 $88 reversed single #
face $-1 $89 $90 $51 $-1 $91 forward single #
face $-1 $92 $93 $52 $-1 $94 reversed single #
face $-1 $95 $96 $53 $-1 $97 forward single #
face $-1 $98 $99 $54 $-1 $100 forward single #
face $-1 $101 $102 $55 $-1 $103 reversed single #
face $-1 $104 $105 $56 $-1 $106 forward single #
face $-1 $107 $108 $57 $-1 $109 forward single #
face $-1 $110 $111 $58 $-1 $112 reversed single #
face $-1 $113 $114 $59 $-1 $115 forward single #
face $-1 $116 $117 $60 $-1 $118 forward single #
face $-1 $119 $120 $61 $-1 $121 reversed single #
face $-1 $122 $123 $62 $-1 $124 forward single #
face $-1 $125 $126 $63 $-1 $127 forward single #
face $-1 $128 $129 $48 $-1 $130 reversed single #
loop $-1 $-1 $131 $64 #
plane-surface $-1 0 0 9.0112513332804234 0 0 1 1 0 0 forward_v I I I I #
face $-1 $132 $133 $49 $-1 $134 reversed single #
loop $-1 $-1 $135 $65 #
plane-surface $-1 -59.12356455318443 -21.15835036495988 0 1 0 0 0 0 -1 forward_v I I I I #
face $-1 $136 $137 $50 $-1 $138 reversed single #
loop $-1 $-1 $139 $66 #
plane-surface $-1 62.900401030645412 -5.2794073057203894 191.41330277293719 0 -1 0 -0.69465837861970381 0 -0.71933979245794832 forward_v I I I I #
face $-1 $140 $141 $51 $-1 $142 forward single #
loop $-1 $143 $144 $67 #
cone-surface $-1 63.220152167809474 -9.1971183686352234 6.1307117064597936 -0.69465837861970381 0 -0.71933979245794832 0.35966989622897416 0 -0.3473291893098519 1 I I 0 1 0.5 forward I I I I #
face $-1 $145 $146 $52 $-1 $147 reversed single #
loop $-1 $-1 $148 $68 #
plane-surface $-1 -66.166570024719988 -12.43356563941974 0.33443742730702297 -0.74314483375859142 0 0.66913059716165679 0.66913059716165679 0 0.74314483375859142 forward_v I I I I #
face $-1 $149 $150 $53 $-1 $151 forward single #
loop $-1 $152 $153 $69 #
cone-surface $-1 -61.88867853878385 -13.764076115224166 4.3382790817129102 0.74314483375859142 0 -0.66913059716165679 0.1672826492904142 0 0.18578620843964785 1 I I 0 1 0.25 forward I I I I #
face $-1 $154 $155 $54 $-1 $156 forward single #
loop $-1 $157 $158 $70 #
cone-surface $-1 -61.88867853878385 -11.103055163615313 4.3382790817129102 0.74314483375859142 0 -0.66913059716165679 0.1672826492904142 0 0.18578620843964785 1 I I 0 1 0.25 forward I I I I #
face $-1 $159 $160 $55 $-1 $161 reversed single #
loop $-1 $-1 $162 $71 #
plane-surface $-1 -164.50925938751345 -3.5022061353525871 88.882590452865955 0 1 0 -0.74314483375859142 0 0.66913059716165679 forward_v I I I I #
face $-1 $163 $164 $56 $-1 $165 forward single #
loop $-1 $166 $167 $72 #
cone-surface $-1 -61.88867853878385 -1.7281921676133543 4.3382790817129102 0.74314483375859142 0 -0.66913059716165679 0.1672826492904142 0 0.18578620843964785 1 I I 0 1 0.25 forward I I I I #
face $-1 $168 $169 $57 $-1 $170 forward single #
loop $-1 $171 $172 $73 #
cone-surface $-1 -61.88867853878385 0.93282878399550029 4.3382790817129102 0.74314483375859142 0 -0.66913059716165679 0.1672826492904142 0 0.18578620843964785 1 I I 0 1 0.25 forward I I I I #
face $-1 $173 $174 $58 $-1 $175 reversed single #
loop $-1 $-1 $176 $74 #
plane-surface $-1 -164.50925938751345 8.5336778122582295 88.882590452865955 0 1 0 -0.74314483375859142 0 0.66913059716165679 forward_v I I I I #
face $-1 $177 $178 $59 $-1 $179 forward single #
loop $-1 $180 $181 $75 #
cone-surface $-1 -61.88867853878385 10.307691779997459 4.3382790817129102 0.74314483375859142 0 -0.66913059716165679 0.1672826492904142 0 0.18578620843964785 1 I I 0 1 0.25 forward I I I I #
face $-1 $182 $183 $60 $-1 $184 forward single #
loop $-1 $185 $186 $76 #
cone-surface $-1 -61.88867853878385 12.968712731606313 4.3382790817129102 0.74314483375859142 0 -0.66913059716165679 0.1672826492904142 0 0.18578620843964785 1 I I 0 1 0.25 forward I I I I #
face $-1 $187 $188 $61 $-1 $189 reversed single #
loop $-1 $-1 $190 $77 #
plane-surface $-1 -164.50925938751345 20.569561759869043 88.882590452865955 0 1 0 -0.74314483375859142 0 0.66913059716165679 forward_v I I I I #
face $-1 $191 $192 $62 $-1 $193 forward single #
loop $-1 $194 $195 $78 #
cone-surface $-1 -61.88867853878385 22.343575727608272 4.3382790817129102 0.74314483375859142 0 -0.66913059716165679 0.1672826492904142 0 0.18578620843964785 1 I I 0 1 0.25 forward I I I I #
face $-1 $196 $197 $63 $-1 $198 forward single #
loop $-1 $199 $200 $79 #
cone-surface $-1 -61.88867853878385 25.004596679217126 4.3382790817129102 0.74314483375859142 0 -0.66913059716165679 0.1672826492904142 0 0.18578620843964785 1 I I 0 1 0.25 forward I I I I #
face $-1 $201 $202 $48 $-1 $203 reversed single #
loop $-1 $-1 $204 $80 #
plane-surface $-1 0 0 -9.0112513332804234 0 0 1 1 0 0 forward_v I I I I #
coedge $-1 $205 $206 $207 $208 forward $81 $-1 #
face $-1 $209 $210 $49 $-1 $211 reversed single #
loop $-1 $-1 $212 $83 #
plane-surface $-1 -56.565119401701502 -15.538090082963398 0 0 -1 0 0 0 -1 forward_v I I I I #
coedge $-1 $213 $214 $215 $216 forward $84 $-1 #
face $-1 $217 $218 $50 $-1 $219 reversed single #
loop $-1 $-1 $220 $86 #
plane-surface $-1 -29.025923473752755 -9.1971183686352234 96.220809274464429 0.69465837861970381 0 0.71933979245794832 0.71933979245794832 0 -0.69465837861970381 forward_v I I I I #
coedge $-1 $221 $222 $223 $224 reversed $87 $-1 #
face $-1 $-1 $225 $51 $-1 $226 forward single #
loop $-1 $227 $228 $89 #
cone-surface $-1 62.542247040439634 -9.1971183686352234 5.4287204131317601 -0.69465837861970381 0 -0.71933979245794832 0.17983494811448708 0 -0.17366459465492595 1 I I -0.70710678118654746 0.70710678118654746 0.25 forward I I I I #
loop $-1 $-1 $229 $67 #
coedge $-1 $144 $144 $230 $231 reversed $90 $-1 #
face $-1 $232 $233 $52 $-1 $234 forward single #
loop $-1 $-1 $235 $92 #
plane-surface $-1 -164.50925938751345 -9.3290411958760799 88.882590452865955 0 -1 0 0.74314483375859142 0 -0.66913059716165679 forward_v I I I I #
coedge $-1 $236 $237 $238 $239 reversed $93 $-1 #
face $-1 $-1 $240 $53 $-1 $241 forward single #
loop $-1 $242 $243 $95 #
cone-surface $-1 -61.424213017684728 -13.764076115224166 3.9200724584868745 0.74314483375859142 0 -0.66913059716165679 0.083641324645207099 0 0.092893104219823927 1 I I -0.70710678118654746 0.70710678118654746 0.125 forward I I I I #
loop $-1 $-1 $244 $69 #
coedge $-1 $153 $153 $245 $246 reversed $96 $-1 #
face $-1 $-1 $247 $54 $-1 $248 forward single #
loop $-1 $249 $250 $98 #
cone-surface $-1 -61.424213017684728 -11.103055163615313 3.9200724584868745 0.74314483375859142 0 -0.66913059716165679 0.083641324645207099 0 0.092893104219823927 1 I I -0.70710678118654746 0.70710678118654746 0.125 forward I I I I #
loop $-1 $-1 $251 $70 #
coedge $-1 $158 $158 $252 $253 reversed $99 $-1 #
face $-1 $254 $255 $55 $-1 $256 reversed single #
loop $-1 $-1 $257 $101 #
plane-surface $-1 -66.166570024719988 -0.39768169180892698 0.33443742730702297 -0.74314483375859142 0 0.66913059716165679 0.66913059716165679 0 0.74314483375859142 forward_v I I I I #
coedge $-1 $258 $259 $260 $261 reversed $102 $-1 #
face $-1 $-1 $262 $56 $-1 $263 forward single #
loop $-1 $264 $265 $104 #
cone-surface $-1 -61.424213017684728 -1.7281921676133543 3.9200724584868745 0.74314483375859142 0 -0.66913059716165679 0.083641324645207099 0 0.092893104219823927 1 I I -0.70710678118654746 0.70710678118654746 0.125 forward I I I I #
loop $-1 $-1 $266 $72 #
coedge $-1 $167 $167 $267 $268 reversed $105 $-1 #
face $-1 $-1 $269 $57 $-1 $270 forward single #
loop $-1 $271 $272 $107 #
cone-surface $-1 -61.424213017684728 0.93282878399550029 3.9200724584868745 0.74314483375859142 0 -0.66913059716165679 0.083641324645207099 0 0.092893104219823927 1 I I -0.70710678118654746 0.70710678118654746 0.125 forward I I I I #
loop $-1 $-1 $273 $73 #
coedge $-1 $172 $172 $274 $275 reversed $108 $-1 #
face $-1 $276 $277 $58 $-1 $278 reversed single #
loop $-1 $-1 $279 $110 #
plane-surface $-1 -66.166570024719988 11.63820225580189 0.33443742730702297 -0.74314483375859142 0 0.66913059716165679 0.66913059716165679 0 0.74314483375859142 forward_v I I I I #
coedge $-1 $280 $281 $282 $283 reversed $111 $-1 #
face $-1 $-1 $284 $59 $-1 $285 forward single #
loop $-1 $286 $287 $113 #
cone-surface $-1 -61.424213017684728 10.307691779997459 3.9200724584868745 0.74314483375859142 0 -0.66913059716165679 0.083641324645207099 0 0.092893104219823927 1 I I -0.70710678118654746 0.70710678118654746 0.125 forward I I I I #
loop $-1 $-1 $288 $75 #
coedge $-1 $181 $181 $289 $290 reversed $114 $-1 #
face $-1 $-1 $291 $60 $-1 $292 forward single #
loop $-1 $293 $294 $116 #
cone-surface $-1 -61.424213017684728 12.968712731606313 3.9200724584868745 0.74314483375859142 0 -0.66913059716165679 0.083641324645207099 0 0.092893104219823927 1 I I -0.70710678118654746 0.70710678118654746 0.125 forward I I I I #
loop $-1 $-1 $295 $76 #
coedge $-1 $186 $186 $296 $297 reversed $117 $-1 #
face $-1 $298 $299 $61 $-1 $300 forward single #
loop $-1 $-1 $301 $119 #
plane-surface $-1 -66.166570024719988 23.674086203412703 0.33443742730702297 -0.74314483375859142 0 0.66913059716165679 0.66913059716165679 0 0.74314483375859142 forward_v I I I I #
coedge $-1 $302 $303 $304 $305 reversed $120 $-1 #
face $-1 $-1 $306 $62 $-1 $307 forward single #
loop $-1 $308 $309 $122 #
cone-surface $-1 -61.424213017684728 22.343575727608272 3.9200724584868745 0.74314483375859142 0 -0.66913059716165679 0.083641324645207099 0 0.092893104219823927 1 I I -0.70710678118654746 0.70710678118654746 0.125 forward I I I I #
loop $-1 $-1 $310 $78 #
coedge $-1 $195 $195 $311 $312 reversed $123 $-1 #
face $-1 $-1 $313 $63 $-1 $314 forward single #
loop $-1 $315 $316 $125 #
cone-surface $-1 -61.424213017684728 25.004596679217126 3.9200724584868745 0.74314483375859142 0 -0.66913059716165679 0.083641324645207099 0 0.092893104219823927 1 I I -0.70710678118654746 0.70710678118654746 0.125 forward I I I I #
loop $-1 $-1 $317 $79 #
coedge $-1 $200 $200 $318 $319 reversed $126 $-1 #
face $-1 $320 $321 $48 $-1 $322 reversed single #
loop $-1 $-1 $323 $128 #
plane-surface $-1 0 -26.778610646956363 0 0 1 0 0 0 1 forward_v I I I I #
coedge $-1 $324 $325 $326 $327 forward $129 $-1 #
coedge $-1 $328 $131 $329 $330 forward $81 $-1 #
coedge $-1 $131 $328 $331 $332 forward $81 $-1 #
coedge $-1 $333 $334 $131 $208 reversed $335 $-1 #
edge $-1 $336 -26.778610646956363 $337 26.778610646956363 $207 $338 forward 7 unknown #
face $-1 $339 $340 $49 $-1 $341 forward single #
loop $-1 $-1 $342 $132 #
plane-surface $-1 -54.006674250218573 -21.15835036495988 0 -1 0 0 0 0 1 forward_v I I I I #
coedge $-1 $343 $344 $345 $346 forward $133 $-1 #
coedge $-1 $347 $135 $348 $349 reversed $84 $-1 #
coedge $-1 $135 $347 $350 $351 reversed $84 $-1 #
coedge $-1 $344 $343 $135 $216 reversed $133 $-1 #
edge $-1 $352 -9.0112513332804234 $353 9.0112513332804234 $215 $354 forward 7 unknown #
face $-1 $355 $356 $50 $-1 $357 reversed single #
loop $-1 $-1 $358 $136 #
plane-surface $-1 62.900401030645412 -13.114829431550056 191.41330277293719 0 1 0 0.69465837861970381 0 0.71933979245794832 forward_v I I I I #
coedge $-1 $359 $360 $361 $362 reversed $137 $-1 #
coedge $-1 $222 $139 $363 $364 reversed $87 $-1 #
coedge $-1 $139 $221 $359 $365 reversed $87 $-1 #
coedge $-1 $361 $366 $139 $224 forward $367 $-1 #
edge $-1 $368 -34.716369509397282 $369 -29.832014861006073 $223 $370 forward 7 unknown #
loop $-1 $-1 $230 $140 #
plane-surface $-1 -29.025923473752755 -9.1971183686352234 96.220809274464429 0.69465837861970381 0 0.71933979245794832 0.71933979245794832 0 -0.69465837861970381 forward_v I I I I #
loop $-1 $-1 $371 $89 #
coedge $-1 $228 $228 $229 $372 reversed $141 $-1 #
coedge $-1 $229 $229 $228 $372 forward $143 $-1 #
coedge $-1 $230 $230 $144 $231 forward $225 $-1 #
edge $-1 $373 0 $373 6.2831853071796004 $230 $374 forward 7 unknown #
face $-1 $375 $376 $52 $-1 $377 forward single #
loop $-1 $-1 $378 $145 #
plane-surface $-1 -56.565119401701502 -15.538090082963398 0 0 -1 0 0 0 -1 forward_v I I I I #
coedge $-1 $379 $380 $381 $382 reversed $146 $-1 #
coedge $-1 $383 $148 $378 $384 reversed $93 $-1 #
coedge $-1 $148 $383 $379 $385 forward $93 $-1 #
coedge $-1 $381 $386 $148 $239 forward $376 $-1 #
edge $-1 $387 -9.3213072632535301 $388 -3.1122583761662099 $238 $389 forward 7 unknown #
loop $-1 $-1 $245 $149 #
plane-surface $-1 -66.166570024719988 -12.43356563941974 0.33443742730702297 -0.74314483375859142 0 0.66913059716165679 0.66913059716165679 0 0.74314483375859142 forward_v I I I I #
loop $-1 $-1 $390 $95 #
coedge $-1 $243 $243 $244 $391 reversed $150 $-1 #
coedge $-1 $244 $244 $243 $391 forward $152 $-1 #
coedge $-1 $245 $245 $153 $246 forward $240 $-1 #
edge $-1 $392 0 $392 6.2831853071796004 $245 $393 forward 7 unknown #
loop $-1 $-1 $252 $154 #
plane-surface $-1 -66.166570024719988 -12.43356563941974 0.33443742730702297 -0.74314483375859142 0 0.66913059716165679 0.66913059716165679 0 0.74314483375859142 forward_v I I I I #
loop $-1 $-1 $394 $98 #
coedge $-1 $250 $250 $251 $395 reversed $155 $-1 #
coedge $-1 $251 $251 $250 $395 forward $157 $-1 #
coedge $-1 $252 $252 $158 $253 forward $247 $-1 #
edge $-1 $396 0 $396 6.2831853071796004 $252 $397 forward 7 unknown #
face $-1 $398 $399 $55 $-1 $400 reversed single #
loop $-1 $-1 $401 $159 #
plane-surface $-1 -164.50925938751345 2.7068427517347331 88.882590452865955 0 -1 0 0.74314483375859142 0 -0.66913059716165679 forward_v I I I I #
coedge $-1 $402 $403 $404 $405 reversed $160 $-1 #
coedge $-1 $259 $162 $406 $407 reversed $102 $-1 #
coedge $-1 $162 $258 $402 $408 reversed $102 $-1 #
coedge $-1 $404 $409 $162 $261 forward $410 $-1 #
edge $-1 $411 16.088059669036738 $412 23.900697807150458 $260 $413 forward 7 unknown #
loop $-1 $-1 $267 $163 #
plane-surface $-1 -66.166570024719988 -0.39768169180892698 0.33443742730702297 -0.74314483375859142 0 0.66913059716165679 0.66913059716165679 0 0.74314483375859142 forward_v I I I I #
loop $-1 $-1 $414 $104 #
coedge $-1 $265 $265 $266 $415 reversed $164 $-1 #
coedge $-1 $266 $266 $265 $415 forward $166 $-1 #
coedge $-1 $267 $267 $167 $268 forward $262 $-1 #
edge $-1 $416 0 $416 6.2831853071796004 $267 $417 forward 7 unknown #
loop $-1 $-1 $274 $168 #
plane-surface $-1 -66.166570024719988 -0.39768169180892698 0.33443742730702297 -0.74314483375859142 0 0.66913059716165679 0.66913059716165679 0 0.74314483375859142 forward_v I I I I #
loop $-1 $-1 $418 $107 #
coedge $-1 $272 $272 $273 $419 reversed $169 $-1 #
coedge $-1 $273 $273 $272 $419 forward $171 $-1 #
coedge $-1 $274 $274 $172 $275 forward $269 $-1 #
edge $-1 $420 0 $420 6.2831853071796004 $274 $421 forward 7 unknown #
face $-1 $422 $423 $58 $-1 $424 forward single #
loop $-1 $-1 $425 $173 #
plane-surface $-1 -164.50925938751345 14.74272669934555 88.882590452865955 0 -1 0 0.74314483375859142 0 -0.66913059716165679 forward_v I I I I #
coedge $-1 $426 $427 $428 $429 reversed $174 $-1 #
coedge $-1 $281 $176 $430 $431 reversed $111 $-1 #
coedge $-1 $176 $280 $426 $432 reversed $111 $-1 #
coedge $-1 $428 $433 $176 $283 forward $423 $-1 #
edge $-1 $434 16.088059669036738 $435 23.900697807150458 $282 $436 forward 7 unknown #
loop $-1 $-1 $289 $177 #
plane-surface $-1 -66.166570024719988 11.63820225580189 0.33443742730702297 -0.74314483375859142 0 0.66913059716165679 0.66913059716165679 0 0.74314483375859142 forward_v I I I I #
loop $-1 $-1 $437 $113 #
coedge $-1 $287 $287 $288 $438 reversed $178 $-1 #
coedge $-1 $288 $288 $287 $438 forward $180 $-1 #
coedge $-1 $289 $289 $181 $290 forward $284 $-1 #
edge $-1 $439 0 $439 6.2831853071796004 $289 $440 forward 7 unknown #
loop $-1 $-1 $296 $182 #
plane-surface $-1 -66.166570024719988 11.63820225580189 0.33443742730702297 -0.74314483375859142 0 0.66913059716165679 0.66913059716165679 0 0.74314483375859142 forward_v I I I I #
loop $-1 $-1 $441 $116 #
coedge $-1 $294 $294 $295 $442 reversed $183 $-1 #
coedge $-1 $295 $295 $294 $442 forward $185 $-1 #
coedge $-1 $296 $296 $186 $297 forward $291 $-1 #
edge $-1 $443 0 $443 6.2831853071796004 $296 $444 forward 7 unknown #
face $-1 $445 $446 $61 $-1 $447 reversed single #
loop $-1 $-1 $304 $187 #
plane-surface $-1 0 0 9.0112513332804234 0 0 1 1 0 0 forward_v I I I I #
coedge $-1 $448 $449 $450 $451 reversed $188 $-1 #
coedge $-1 $303 $190 $452 $453 reversed $120 $-1 #
coedge $-1 $190 $302 $448 $454 reversed $120 $-1 #
coedge $-1 $450 $455 $190 $305 forward $299 $-1 #
edge $-1 $456 16.088059669036738 $457 23.900697807150458 $304 $458 forward 7 unknown #
loop $-1 $-1 $311 $191 #
plane-surface $-1 -66.166570024719988 23.674086203412703 0.33443742730702297 -0.74314483375859142 0 0.66913059716165679 0.66913059716165679 0 0.74314483375859142 forward_v I I I I #
loop $-1 $-1 $459 $122 #
coedge $-1 $309 $309 $310 $460 reversed $192 $-1 #
coedge $-1 $310 $310 $309 $460 forward $194 $-1 #
coedge $-1 $311 $311 $195 $312 forward $306 $-1 #
edge $-1 $461 0 $461 6.2831853071796004 $311 $462 forward 7 unknown #
loop $-1 $-1 $318 $196 #
plane-surface $-1 -66.166570024719988 23.674086203412703 0.33443742730702297 -0.74314483375859142 0 0.66913059716165679 0.66913059716165679 0 0.74314483375859142 forward_v I I I I #
loop $-1 $-1 $463 $125 #
coedge $-1 $316 $316 $317 $464 reversed $197 $-1 #
coedge $-1 $317 $317 $316 $464 forward $199 $-1 #
coedge $-1 $318 $318 $200 $319 forward $313 $-1 #
edge $-1 $465 0 $465 6.2831853071796004 $318 $466 forward 7 unknown #
face $-1 $467 $468 $48 $-1 $469 reversed single #
loop $-1 $-1 $470 $201 #
plane-surface $-1 -66.166570024719988 0 0 1 0 0 0 0 -1 forward_v I I I I #
coedge $-1 $471 $331 $472 $473 forward $202 $-1 #
coedge $-1 $474 $204 $471 $475 forward $129 $-1 #
coedge $-1 $204 $474 $476 $477 forward $129 $-1 #
coedge $-1 $334 $333 $204 $327 reversed $335 $-1 #
edge $-1 $478 -26.778610646956363 $479 26.778610646956363 $326 $480 forward 7 unknown #
coedge $-1 $206 $205 $481 $482 forward $81 $-1 #
coedge $-1 $483 $484 $205 $330 reversed $468 $-1 #
edge $-1 $337 -66.166570024719988 $485 66.166570024719988 $329 $486 forward 7 unknown #
coedge $-1 $323 $487 $206 $332 reversed $202 $-1 #
edge $-1 $488 -66.166570024719988 $336 66.166570024719988 $331 $489 forward 7 unknown #
coedge $-1 $326 $207 $487 $490 forward $335 $-1 #
coedge $-1 $207 $326 $483 $491 reversed $335 $-1 #
loop $-1 $-1 $333 $467 #
vertex $-1 $208 $492 #
vertex $-1 $208 $493 #
straight-curve $-1 66.166570024719988 0 9.0112513332804234 0 1 0 I I #
face $-1 $494 $495 $49 $-1 $496 reversed single #
loop $-1 $-1 $497 $209 #
plane-surface $-1 0 0 9.0112513332804234 0 0 1 1 0 0 forward_v I I I I #
coedge $-1 $498 $499 $500 $501 reversed $210 $-1 #
coedge $-1 $215 $212 $502 $503 reversed $133 $-1 #
coedge $-1 $212 $215 $504 $505 reversed $133 $-1 #
coedge $-1 $499 $498 $212 $346 reversed $210 $-1 #
edge $-1 $506 -9.0112513332804234 $507 9.0112513332804234 $345 $508 forward 7 unknown #
coedge $-1 $214 $213 $509 $510 reversed $84 $-1 #
coedge $-1 $502 $511 $213 $349 forward $495 $-1 #
edge $-1 $512 -16.199435464476419 $353 -4.9589149004834585 $348 $513 forward 7 unknown #
coedge $-1 $514 $504 $214 $351 forward $340 $-1 #
edge $-1 $352 4.9589149004834585 $515 16.199435464476419 $350 $516 forward 7 unknown #
vertex $-1 $351 $517 #
vertex $-1 $349 $518 #
straight-curve $-1 -59.12356455318443 -15.538090082963398 0 0 0 -1 I I #
face $-1 $-1 $367 $50 $-1 $519 forward single #
loop $-1 $-1 $520 $217 #
plane-surface $-1 66.166570024719988 0 0 -1 0 0 0 0 1 forward_v I I I I #
coedge $-1 $521 $522 $523 $524 reversed $218 $-1 #
coedge $-1 $525 $220 $222 $365 forward $137 $-1 #
coedge $-1 $220 $525 $521 $526 forward $137 $-1 #
coedge $-1 $523 $223 $220 $362 forward $367 $-1 #
edge $-1 $369 0.68084812140277773 $527 8.5162702472324447 $361 $528 forward 7 unknown #
coedge $-1 $529 $530 $221 $364 forward $356 $-1 #
edge $-1 $531 -91.412166616402303 $368 -86.695400053188166 $363 $532 forward 7 unknown #
edge $-1 $369 125.54308797724522 $531 132.33314004943995 $222 $533 forward 7 unknown #
coedge $-1 $223 $523 $529 $534 forward $367 $-1 #
loop $-1 $-1 $523 $355 #
vertex $-1 $364 $535 #
vertex $-1 $224 $536 #
straight-curve $-1 31.450200515322706 -5.2794073057203894 9.0112513332804269 -1 0 0 I I #
coedge $-1 $371 $371 $-1 $537 reversed $227 $-1 #
edge $-1 $538 0 $538 6.2831853071796004 $228 $539 forward 7 unknown #
vertex $-1 $231 $540 #
ellipse-curve $-1 63.724392700524398 -9.1971183686352234 6.6528680516733463 0.69465837861970381 0 0.71933979245794832 0.35966989622897416 0 -0.3473291893098519 1 I I #
face $-1 $-1 $541 $52 $-1 $542 reversed single #
loop $-1 $-1 $386 $232 #
plane-surface $-1 0 0 9.0112513332804234 0 0 1 1 0 0 forward_v I I I I #
coedge $-1 $543 $544 $236 $384 forward $233 $-1 #
coedge $-1 $380 $235 $237 $385 reversed $146 $-1 #
coedge $-1 $235 $379 $545 $546 reversed $146 $-1 #
coedge $-1 $547 $238 $235 $382 forward $376 $-1 #
edge $-1 $388 -23.900697807150458 $548 -16.088059669036738 $381 $549 forward 7 unknown #
coedge $-1 $237 $236 $550 $551 reversed $93 $-1 #
edge $-1 $552 -3.0880444713398942 $387 8.5877601791329106 $378 $553 forward 7 unknown #
edge $-1 $554 0 $388 11.675804650472806 $379 $555 forward 7 unknown #
coedge $-1 $238 $547 $543 $556 forward $376 $-1 #
vertex $-1 $239 $557 #
vertex $-1 $239 $558 #
straight-curve $-1 -58.353931886606269 -6.21678281970987 9.0112513332804234 0 1 0 I I #
coedge $-1 $390 $390 $-1 $559 reversed $242 $-1 #
edge $-1 $560 0 $560 6.2831853071796004 $243 $561 forward 7 unknown #
vertex $-1 $246 $562 #
ellipse-curve $-1 -62.260250955663132 -13.764076115224166 4.6728443802937241 -0.74314483375859142 0 0.66913059716165679 0.1672826492904142 0 0.18578620843964785 1 I I #
coedge $-1 $394 $394 $-1 $563 reversed $249 $-1 #
edge $-1 $564 0 $564 6.2831853071796004 $250 $565 forward 7 unknown #
vertex $-1 $253 $566 #
ellipse-curve $-1 -62.260250955663132 -11.103055163615313 4.6728443802937241 -0.74314483375859142 0 0.66913059716165679 0.1672826492904142 0 0.18578620843964785 1 I I #
face $-1 $-1 $410 $55 $-1 $567 forward single #
loop $-1 $-1 $568 $254 #
plane-surface $-1 -66.166570024719988 0 0 1 0 0 0 0 -1 forward_v I I I I #
coedge $-1 $569 $570 $571 $572 reversed $255 $-1 #
coedge $-1 $573 $257 $259 $408 forward $160 $-1 #
coedge $-1 $257 $573 $569 $574 forward $160 $-1 #
coedge $-1 $571 $260 $257 $405 forward $410 $-1 #
edge $-1 $412 -3.3033652894481236 $575 2.9056835976391966 $404 $576 forward 7 unknown #
coedge $-1 $577 $578 $258 $407 forward $399 $-1 #
edge $-1 $579 -44.106857799125955 $411 -35.430043893152558 $406 $580 forward 7 unknown #
edge $-1 $412 -11.675804650472806 $579 0 $259 $581 forward 7 unknown #
coedge $-1 $260 $571 $577 $582 forward $410 $-1 #
loop $-1 $-1 $571 $398 #
vertex $-1 $407 $583 #
vertex $-1 $261 $584 #
straight-curve $-1 -82.254629693756726 -3.5022061353525871 9.0112513332804198 1 0 0 I I #
coedge $-1 $414 $414 $-1 $585 reversed $264 $-1 #
edge $-1 $586 0 $586 6.2831853071796004 $265 $587 forward 7 unknown #
vertex $-1 $268 $588 #
ellipse-curve $-1 -62.260250955663132 -1.7281921676133543 4.6728443802937241 -0.74314483375859142 0 0.66913059716165679 0.1672826492904142 0 0.18578620843964785 1 I I #
coedge $-1 $418 $418 $-1 $589 reversed $271 $-1 #
edge $-1 $590 0 $590 6.2831853071796004 $272 $591 forward 7 unknown #
vertex $-1 $275 $592 #
ellipse-curve $-1 -62.260250955663132 0.93282878399550029 4.6728443802937241 -0.74314483375859142 0 0.66913059716165679 0.1672826492904142 0 0.18578620843964785 1 I I #
face $-1 $-1 $593 $58 $-1 $594 reversed single #
loop $-1 $-1 $282 $276 #
plane-surface $-1 0 0 9.0112513332804234 0 0 1 1 0 0 forward_v I I I I #
coedge $-1 $595 $596 $597 $598 reversed $277 $-1 #
coedge $-1 $599 $279 $281 $432 forward $174 $-1 #
coedge $-1 $279 $599 $595 $600 forward $174 $-1 #
coedge $-1 $597 $282 $279 $429 forward $423 $-1 #
edge $-1 $435 2.7145766843572847 $601 8.9236255714446049 $428 $602 forward 7 unknown #
coedge $-1 $603 $604 $280 $431 forward $593 $-1 #
edge $-1 $605 -44.106857799125955 $434 -35.430043893152558 $430 $606 forward 7 unknown #
edge $-1 $435 -11.675804650472806 $605 0 $281 $607 forward 7 unknown #
coedge $-1 $282 $597 $603 $608 forward $423 $-1 #
vertex $-1 $283 $609 #
vertex $-1 $283 $610 #
straight-curve $-1 -82.254629693756726 8.5336778122582295 9.0112513332804198 1 0 0 I I #
coedge $-1 $437 $437 $-1 $611 reversed $286 $-1 #
edge $-1 $612 0 $612 6.2831853071796004 $287 $613 forward 7 unknown #
vertex $-1 $290 $614 #
ellipse-curve $-1 -62.260250955663132 10.307691779997459 4.6728443802937241 -0.74314483375859142 0 0.66913059716165679 0.1672826492904142 0 0.18578620843964785 1 I I #
coedge $-1 $441 $441 $-1 $615 reversed $293 $-1 #
edge $-1 $616 0 $616 6.2831853071796004 $294 $617 forward 7 unknown #
vertex $-1 $297 $618 #
ellipse-curve $-1 -62.260250955663132 12.968712731606313 4.6728443802937241 -0.74314483375859142 0 0.66913059716165679 0.1672826492904142 0 0.18578620843964785 1 I I #
face $-1 $-1 $619 $61 $-1 $620 reversed single #
loop $-1 $-1 $621 $298 #
plane-surface $-1 0 26.778610646956363 0 0 -1 0 0 0 -1 forward_v I I I I #
coedge $-1 $622 $301 $303 $454 forward $188 $-1 #
coedge $-1 $301 $622 $621 $623 reversed $188 $-1 #
coedge $-1 $624 $304 $301 $451 forward $299 $-1 #
edge $-1 $457 8.7325186581626912 $625 14.941567545250011 $450 $626 forward 7 unknown #
coedge $-1 $627 $628 $302 $453 forward $619 $-1 #
edge $-1 $629 -44.106857799125955 $456 -35.430043893152558 $452 $630 forward 7 unknown #
edge $-1 $457 -11.675804650472806 $629 0 $303 $631 forward 7 unknown #
coedge $-1 $304 $624 $627 $632 forward $299 $-1 #
vertex $-1 $453 $633 #
vertex $-1 $305 $634 #
straight-curve $-1 -82.254629693756726 20.569561759869043 9.0112513332804198 1 0 0 I I #
coedge $-1 $459 $459 $-1 $635 reversed $308 $-1 #
edge $-1 $636 0 $636 6.2831853071796004 $309 $637 forward 7 unknown #
vertex $-1 $312 $638 #
ellipse-curve $-1 -62.260250955663132 22.343575727608272 4.6728443802937241 -0.74314483375859142 0 0.66913059716165679 0.1672826492904142 0 0.18578620843964785 1 I I #
coedge $-1 $463 $463 $-1 $639 reversed $315 $-1 #
edge $-1 $640 0 $640 6.2831853071796004 $316 $641 forward 7 unknown #
vertex $-1 $319 $642 #
ellipse-curve $-1 -62.260250955663132 25.004596679217126 4.6728443802937241 -0.74314483375859142 0 0.66913059716165679 0.1672826492904142 0 0.18578620843964785 1 I I #
face $-1 $-1 $335 $48 $-1 $643 reversed single #
loop $-1 $-1 $483 $320 #
plane-surface $-1 0 26.778610646956363 0 0 -1 0 0 0 -1 forward_v I I I I #
coedge $-1 $644 $481 $484 $645 forward $321 $-1 #
coedge $-1 $487 $323 $324 $475 reversed $202 $-1 #
coedge $-1 $481 $644 $323 $473 reversed $321 $-1 #
edge $-1 $488 -9.0112513332804234 $646 9.0112513332804234 $472 $647 forward 7 unknown #
coedge $-1 $325 $324 $644 $648 forward $129 $-1 #
edge $-1 $479 -66.166570024719988 $646 66.166570024719988 $471 $649 forward 7 unknown #
coedge $-1 $484 $483 $325 $477 reversed $468 $-1 #
edge $-1 $650 -66.166570024719988 $478 66.166570024719988 $476 $651 forward 7 unknown #
vertex $-1 $327 $652 #
vertex $-1 $490 $653 #
straight-curve $-1 66.166570024719988 0 -9.0112513332804234 0 -1 0 I I #
coedge $-1 $470 $472 $328 $482 reversed $321 $-1 #
edge $-1 $485 -26.778610646956363 $488 26.778610646956363 $481 $654 forward 7 unknown #
coedge $-1 $476 $329 $334 $491 forward $468 $-1 #
coedge $-1 $329 $476 $470 $645 reversed $468 $-1 #
vertex $-1 $330 $655 #
straight-curve $-1 0 26.778610646956363 9.0112513332804234 -1 0 0 I I #
coedge $-1 $331 $471 $333 $490 reversed $202 $-1 #
vertex $-1 $482 $656 #
straight-curve $-1 0 -26.778610646956363 9.0112513332804234 1 0 0 I I #
edge $-1 $336 -9.0112513332804234 $479 9.0112513332804234 $333 $657 forward 7 unknown #
edge $-1 $337 -9.0112513332804234 $478 9.0112513332804234 $334 $658 forward 7 unknown #
point $-1 66.166570024719988 -26.778610646956363 9.0112513332804234 #
point $-1 66.166570024719988 26.778610646956363 9.0112513332804234 #
face $-1 $-1 $659 $49 $-1 $660 reversed single #
loop $-1 $-1 $661 $339 #
plane-surface $-1 0 0 -9.0112513332804234 0 0 1 1 0 0 forward_v I I I I #
coedge $-1 $504 $514 $499 $662 forward $340 $-1 #
coedge $-1 $345 $342 $661 $663 reversed $210 $-1 #
coedge $-1 $342 $345 $497 $662 reversed $210 $-1 #
coedge $-1 $664 $665 $342 $501 forward $659 $-1 #
edge $-1 $666 -9.0112513332804234 $667 9.0112513332804234 $500 $668 forward 7 unknown #
coedge $-1 $661 $348 $343 $503 forward $495 $-1 #
edge $-1 $353 -30.841004852333679 $507 -25.724114549367822 $502 $669 forward 7 unknown #
coedge $-1 $350 $497 $344 $505 forward $340 $-1 #
edge $-1 $506 25.724114549367822 $352 30.841004852333679 $504 $670 forward 7 unknown #
vertex $-1 $505 $671 #
vertex $-1 $503 $672 #
straight-curve $-1 -54.006674250218573 -15.538090082963398 0 0 0 -1 I I #
coedge $-1 $665 $664 $347 $510 forward $659 $-1 #
edge $-1 $515 -9.0112513332804234 $512 9.0112513332804234 $509 $673 forward 7 unknown #
coedge $-1 $348 $661 $665 $674 forward $495 $-1 #
vertex $-1 $349 $675 #
straight-curve $-1 -59.12356455318443 -10.57917518247994 -9.0112513332804234 0 1 0 I I #
coedge $-1 $497 $350 $664 $676 forward $340 $-1 #
vertex $-1 $676 $677 #
straight-curve $-1 -59.12356455318443 -10.57917518247994 9.0112513332804234 0 -1 0 I I #
point $-1 -59.12356455318443 -15.538090082963398 9.0112513332804234 #
point $-1 -59.12356455318443 -15.538090082963398 -9.0112513332804234 #
plane-surface $-1 0 0 9.0112513332804234 0 0 1 1 0 0 forward_v I I I I #
coedge $-1 $530 $529 $522 $678 forward $356 $-1 #
coedge $-1 $522 $358 $360 $526 reversed $218 $-1 #
coedge $-1 $358 $521 $520 $678 reversed $218 $-1 #
coedge $-1 $366 $361 $358 $524 forward $367 $-1 #
edge $-1 $527 29.832014861006073 $679 34.716369509397282 $523 $680 forward 7 unknown #
coedge $-1 $360 $359 $530 $681 reversed $137 $-1 #
edge $-1 $682 -132.33314004943995 $527 -125.54308797724522 $521 $683 forward 7 unknown #
vertex $-1 $362 $684 #
straight-curve $-1 61.282215376328779 -4.5985591843176117 9.0112513332804269 0 -1 0 I I #
coedge $-1 $520 $363 $366 $534 reversed $356 $-1 #
coedge $-1 $363 $520 $525 $681 forward $356 $-1 #
vertex $-1 $364 $685 #
straight-curve $-1 66.166570024719988 -5.2794073057203894 95.706651386468593 0 0 1 I I #
straight-curve $-1 -29.025923473752755 -5.2794073057203894 96.220809274464429 0.71933979245794832 0 -0.69465837861970381 I I #
edge $-1 $679 -13.114829431550056 $368 -5.2794073057203894 $529 $686 forward 7 unknown #
point $-1 66.166570024719988 -5.2794073057203894 9.0112513332804234 #
point $-1 61.282215376328779 -5.2794073057203894 9.0112513332804269 #
edge $-1 $687 1 $687 0 $371 $-1 forward 7 unknown #
vertex $-1 $372 $688 #
ellipse-curve $-1 62.715911635094557 -9.1971183686352234 5.6085553612462471 0.69465837861970381 0 0.71933979245794832 0.35966989622897416 0 -0.3473291893098519 1 I I #
point $-1 64.08406259675337 -9.1971183686352234 6.3055388623634885 #
loop $-1 $-1 $689 $375 #
plane-surface $-1 -66.166570024719988 0 0 1 0 0 0 0 -1 forward_v I I I I #
coedge $-1 $544 $378 $386 $556 reversed $233 $-1 #
coedge $-1 $378 $543 $689 $690 reversed $233 $-1 #
coedge $-1 $550 $691 $380 $546 forward $541 $-1 #
edge $-1 $548 35.430043893152558 $554 44.106857799125955 $545 $692 forward 7 unknown #
coedge $-1 $386 $381 $691 $693 forward $376 $-1 #
vertex $-1 $693 $694 #
straight-curve $-1 -82.254629693756726 -9.3290411958760799 9.0112513332804198 -1 0 0 I I #
coedge $-1 $689 $545 $383 $551 forward $541 $-1 #
edge $-1 $554 3.1122583761662099 $552 9.3213072632535301 $550 $695 forward 7 unknown #
vertex $-1 $690 $696 #
straight-curve $-1 -64.100264983550574 -15.538090082963398 2.6293017226000477 0.66913059716165679 0 0.74314483375859142 I I #
vertex $-1 $551 $697 #
straight-curve $-1 -66.166570024719988 -9.3290411958760799 0.33443742730702297 0.66913059716165679 0 0.74314483375859142 I I #
edge $-1 $698 16.088059669036738 $387 23.900697807150458 $386 $699 forward 7 unknown #
point $-1 -58.353931886606269 -15.5380900829634 9.0112513332804234 #
point $-1 -58.353931886606269 -9.3290411958760799 9.0112513332804234 #
edge $-1 $700 1 $700 0 $390 $-1 forward 7 unknown #
vertex $-1 $391 $701 #
ellipse-curve $-1 -61.517106121904554 -13.764076115224166 4.0037137831320813 -0.74314483375859142 0 0.66913059716165679 0.1672826492904142 0 0.18578620843964785 1 I I #
point $-1 -62.092968306372732 -13.764076115224166 4.8586305887333863 #
edge $-1 $702 1 $702 0 $394 $-1 forward 7 unknown #
vertex $-1 $395 $703 #
ellipse-curve $-1 -61.517106121904554 -11.103055163615313 4.0037137831320813 -0.74314483375859142 0 0.66913059716165679 0.1672826492904142 0 0.18578620843964785 1 I I #
point $-1 -62.092968306372732 -11.103055163615313 4.8586305887333863 #
plane-surface $-1 0 0 9.0112513332804234 0 0 1 1 0 0 forward_v I I I I #
coedge $-1 $578 $577 $570 $704 forward $399 $-1 #
coedge $-1 $570 $401 $403 $574 reversed $255 $-1 #
coedge $-1 $401 $569 $568 $704 reversed $255 $-1 #
coedge $-1 $409 $404 $401 $572 forward $410 $-1 #
edge $-1 $575 -23.900697807150458 $705 -16.088059669036738 $571 $706 forward 7 unknown #
coedge $-1 $403 $402 $578 $707 reversed $160 $-1 #
edge $-1 $708 0 $575 11.675804650472806 $569 $709 forward 7 unknown #
vertex $-1 $405 $710 #
straight-curve $-1 -58.353931886606269 -0.19884084590446349 9.0112513332804234 0 1 0 I I #
coedge $-1 $568 $406 $409 $582 reversed $399 $-1 #
coedge $-1 $406 $568 $573 $707 forward $399 $-1 #
vertex $-1 $407 $711 #
straight-curve $-1 -66.166570024719988 -3.5022061353525871 44.441295226432977 0 0 1 I I #
straight-curve $-1 -66.166570024719988 -3.5022061353525871 0.33443742730702297 -0.66913059716165679 0 -0.74314483375859142 I I #
edge $-1 $705 -2.7068427517347331 $411 3.5022061353525871 $577 $712 forward 7 unknown #
point $-1 -66.166570024719988 -3.5022061353525871 9.0112513332804234 #
point $-1 -58.353931886606269 -3.5022061353525871 9.0112513332804234 #
edge $-1 $713 1 $713 0 $414 $-1 forward 7 unknown #
vertex $-1 $415 $714 #
ellipse-curve $-1 -61.517106121904554 -1.7281921676133543 4.0037137831320813 -0.74314483375859142 0 0.66913059716165679 0.1672826492904142 0 0.18578620843964785 1 I I #
point $-1 -62.092968306372732 -1.7281921676133543 4.8586305887333863 #
edge $-1 $715 1 $715 0 $418 $-1 forward 7 unknown #
vertex $-1 $419 $716 #
ellipse-curve $-1 -61.517106121904554 0.93282878399550029 4.0037137831320813 -0.74314483375859142 0 0.66913059716165679 0.1672826492904142 0 0.18578620843964785 1 I I #
point $-1 -62.092968306372732 0.93282878399550029 4.8586305887333863 #
loop $-1 $-1 $430 $422 #
plane-surface $-1 -66.166570024719988 0 0 1 0 0 0 0 -1 forward_v I I I I #
coedge $-1 $596 $425 $427 $600 reversed $277 $-1 #
coedge $-1 $425 $595 $717 $718 reversed $277 $-1 #
coedge $-1 $433 $428 $425 $598 forward $423 $-1 #
edge $-1 $601 -23.900697807150458 $719 -16.088059669036738 $597 $720 forward 7 unknown #
coedge $-1 $427 $426 $604 $721 reversed $174 $-1 #
edge $-1 $722 0 $601 11.675804650472806 $595 $723 forward 7 unknown #
vertex $-1 $429 $724 #
straight-curve $-1 -58.353931886606269 5.8191011279009448 9.0112513332804234 0 1 0 I I #
coedge $-1 $717 $430 $433 $608 reversed $593 $-1 #
coedge $-1 $430 $717 $599 $721 forward $593 $-1 #
vertex $-1 $431 $725 #
straight-curve $-1 -66.166570024719988 8.5336778122582295 44.441295226432977 0 0 1 I I #
straight-curve $-1 -66.166570024719988 8.5336778122582295 0.33443742730702297 -0.66913059716165679 0 -0.74314483375859142 I I #
edge $-1 $719 -14.74272669934555 $434 -8.5336778122582295 $603 $726 forward 7 unknown #
point $-1 -66.166570024719988 8.5336778122582295 9.0112513332804234 #
point $-1 -58.353931886606269 8.5336778122582295 9.0112513332804234 #
edge $-1 $727 1 $727 0 $437 $-1 forward 7 unknown #
vertex $-1 $438 $728 #
ellipse-curve $-1 -61.517106121904554 10.307691779997459 4.0037137831320813 -0.74314483375859142 0 0.66913059716165679 0.1672826492904142 0 0.18578620843964785 1 I I #
point $-1 -62.092968306372732 10.307691779997459 4.8586305887333863 #
edge $-1 $729 1 $729 0 $441 $-1 forward 7 unknown #
vertex $-1 $442 $730 #
ellipse-curve $-1 -61.517106121904554 12.968712731606313 4.0037137831320813 -0.74314483375859142 0 0.66913059716165679 0.1672826492904142 0 0.18578620843964785 1 I I #
point $-1 -62.092968306372732 12.968712731606313 4.8586305887333863 #
loop $-1 $-1 $452 $445 #
plane-surface $-1 -66.166570024719988 0 0 1 0 0 0 0 -1 forward_v I I I I #
coedge $-1 $731 $732 $449 $623 forward $446 $-1 #
coedge $-1 $449 $448 $628 $733 reversed $188 $-1 #
edge $-1 $625 10.336965882757564 $734 22.01277053323037 $621 $735 forward 7 unknown #
coedge $-1 $455 $450 $732 $736 forward $299 $-1 #
vertex $-1 $736 $737 #
straight-curve $-1 -58.353931886606269 11.837043101706351 9.0112513332804234 0 1 0 I I #
coedge $-1 $738 $452 $455 $632 reversed $619 $-1 #
coedge $-1 $452 $738 $622 $733 forward $619 $-1 #
vertex $-1 $453 $739 #
straight-curve $-1 -66.166570024719988 20.569561759869043 44.441295226432977 0 0 1 I I #
straight-curve $-1 -66.166570024719988 20.569561759869043 0.33443742730702297 -0.66913059716165679 0 -0.74314483375859142 I I #
edge $-1 $740 -26.778610646956363 $456 -20.569561759869043 $627 $741 forward 7 unknown #
point $-1 -66.166570024719988 20.569561759869043 9.0112513332804234 #
point $-1 -58.353931886606269 20.569561759869043 9.0112513332804234 #
edge $-1 $742 1 $742 0 $459 $-1 forward 7 unknown #
vertex $-1 $460 $743 #
ellipse-curve $-1 -61.517106121904554 22.343575727608272 4.0037137831320813 -0.74314483375859142 0 0.66913059716165679 0.1672826492904142 0 0.18578620843964785 1 I I #
point $-1 -62.092968306372732 22.343575727608272 4.8586305887333863 #
edge $-1 $744 1 $744 0 $463 $-1 forward 7 unknown #
vertex $-1 $464 $745 #
ellipse-curve $-1 -61.517106121904554 25.004596679217126 4.0037137831320813 -0.74314483375859142 0 0.66913059716165679 0.1672826492904142 0 0.18578620843964785 1 I I #
point $-1 -62.092968306372732 25.004596679217126 4.8586305887333863 #
plane-surface $-1 66.166570024719988 0 0 -1 0 0 0 0 1 forward_v I I I I #
coedge $-1 $472 $470 $474 $648 reversed $321 $-1 #
edge $-1 $485 -9.0112513332804234 $650 9.0112513332804234 $484 $746 forward 7 unknown #
vertex $-1 $648 $747 #
straight-curve $-1 -66.166570024719988 -26.778610646956363 0 0 0 -1 I I #
edge $-1 $646 -26.778610646956363 $650 26.778610646956363 $644 $748 forward 7 unknown #
straight-curve $-1 0 -26.778610646956363 -9.0112513332804234 -1 0 0 I I #
vertex $-1 $477 $749 #
straight-curve $-1 0 26.778610646956363 -9.0112513332804234 1 0 0 I I #
point $-1 66.166570024719988 26.778610646956363 -9.0112513332804234 #
point $-1 66.166570024719988 -26.778610646956363 -9.0112513332804234 #
straight-curve $-1 -66.166570024719988 0 9.0112513332804234 0 -1 0 I I #
point $-1 -66.166570024719988 26.778610646956363 9.0112513332804234 #
point $-1 -66.166570024719988 -26.778610646956363 9.0112513332804234 #
straight-curve $-1 66.166570024719988 -26.778610646956363 0 0 0 -1 I I #
straight-curve $-1 66.166570024719988 26.778610646956363 0 0 0 -1 I I #
loop $-1 $-1 $500 $494 #
plane-surface $-1 0 -26.778610646956363 0 0 1 0 0 0 1 forward_v I I I I #
coedge $-1 $511 $502 $498 $663 forward $495 $-1 #
edge $-1 $667 -16.199435464476419 $506 -4.9589149004834585 $497 $750 forward 7 unknown #
edge $-1 $507 4.9589149004834585 $666 16.199435464476419 $661 $751 forward 7 unknown #
coedge $-1 $509 $500 $514 $676 reversed $659 $-1 #
coedge $-1 $500 $509 $511 $674 reversed $659 $-1 #
vertex $-1 $674 $752 #
vertex $-1 $501 $753 #
straight-curve $-1 -54.006674250218573 -26.778610646956363 0 0 0 1 I I #
straight-curve $-1 -28.282559700850751 -15.538090082963398 -9.0112513332804234 1 0 0 I I #
straight-curve $-1 -28.282559700850751 -15.538090082963398 9.0112513332804234 -1 0 0 I I #
point $-1 -54.006674250218573 -15.538090082963398 9.0112513332804234 #
point $-1 -54.006674250218573 -15.538090082963398 -9.0112513332804234 #
straight-curve $-1 -59.12356455318443 -26.778610646956363 0 0 0 -1 I I #
edge $-1 $666 54.006674250218573 $512 59.12356455318443 $665 $754 forward 7 unknown #
point $-1 -59.12356455318443 -26.778610646956359 -9.0112513332804234 #
edge $-1 $515 -59.12356455318443 $667 -54.006674250218573 $664 $755 forward 7 unknown #
point $-1 -59.12356455318443 -26.778610646956359 9.0112513332804234 #
edge $-1 $679 86.695400053188166 $682 91.412166616402303 $520 $756 forward 7 unknown #
vertex $-1 $534 $757 #
straight-curve $-1 31.450200515322706 -13.114829431550056 9.0112513332804269 1 0 0 I I #
edge $-1 $682 -8.5162702472324447 $531 -0.68084812140277773 $530 $758 forward 7 unknown #
vertex $-1 $681 $759 #
straight-curve $-1 -29.025923473752755 -13.114829431550056 96.220809274464429 -0.71933979245794832 0 0.69465837861970381 I I #
point $-1 61.282215376328779 -13.114829431550056 9.0112513332804269 #
point $-1 66.166570024719988 -5.2794073057203894 4.2944847700662905 #
straight-curve $-1 66.166570024719988 0 9.0112513332804234 0 1 0 I I #
vertex $-1 $537 $760 #
point $-1 63.075581531323536 -9.1971183686352234 5.2612261719363955 #
coedge $-1 $691 $550 $544 $690 forward $541 $-1 #
edge $-1 $552 -44.106857799125955 $698 -35.430043893152558 $689 $761 forward 7 unknown #
coedge $-1 $545 $689 $547 $693 reversed $541 $-1 #
straight-curve $-1 -66.166570024719988 -9.3290411958760799 44.441295226432977 0 0 -1 I I #
edge $-1 $548 9.3290411958760799 $698 15.5380900829634 $691 $762 forward 7 unknown #
point $-1 -66.166570024719988 -9.3290411958760799 9.0112513332804234 #
straight-curve $-1 -66.166570024719988 -6.21678281970987 0.33443742730701631 0 -1 0 I I #
point $-1 -66.166570024719988 -15.5380900829634 0.33443742730702297 #
point $-1 -66.166570024719988 -9.3290411958760799 0.33443742730702297 #
vertex $-1 $690 $763 #
straight-curve $-1 -82.254629693756726 -15.5380900829634 9.0112513332804198 1 0 0 I I #
vertex $-1 $559 $764 #
point $-1 -61.34982347261414 -13.764076115224166 4.1894999915717293 #
vertex $-1 $563 $765 #
point $-1 -61.34982347261414 -11.103055163615313 4.1894999915717293 #
edge $-1 $705 35.430043893152558 $708 44.106857799125955 $568 $766 forward 7 unknown #
vertex $-1 $582 $767 #
straight-curve $-1 -82.254629693756726 2.7068427517347331 9.0112513332804198 -1 0 0 I I #
edge $-1 $708 -2.9056835976391966 $579 3.3033652894481236 $578 $768 forward 7 unknown #
vertex $-1 $707 $769 #
straight-curve $-1 -66.166570024719988 2.7068427517347331 0.33443742730702297 0.66913059716165679 0 0.74314483375859142 I I #
point $-1 -58.353931886606269 2.7068427517347331 9.0112513332804234 #
point $-1 -66.166570024719988 -3.5022061353525871 0.33443742730702297 #
straight-curve $-1 -66.166570024719988 0 9.0112513332804234 0 -1 0 I I #
vertex $-1 $585 $770 #
point $-1 -61.34982347261414 -1.7281921676133543 4.1894999915717293 #
vertex $-1 $589 $771 #
point $-1 -61.34982347261414 0.93282878399550029 4.1894999915717293 #
coedge $-1 $604 $603 $596 $718 forward $593 $-1 #
edge $-1 $719 35.430043893152558 $722 44.106857799125955 $717 $772 forward 7 unknown #
vertex $-1 $608 $773 #
straight-curve $-1 -82.254629693756726 14.74272669934555 9.0112513332804198 -1 0 0 I I #
edge $-1 $722 -8.9236255714446049 $605 -2.7145766843572847 $604 $774 forward 7 unknown #
vertex $-1 $721 $775 #
straight-curve $-1 -66.166570024719988 14.74272669934555 0.33443742730702297 0.66913059716165679 0 0.74314483375859142 I I #
point $-1 -58.353931886606269 14.74272669934555 9.0112513332804234 #
point $-1 -66.166570024719988 8.5336778122582295 0.33443742730702297 #
straight-curve $-1 -66.166570024719988 0 9.0112513332804234 0 -1 0 I I #
vertex $-1 $611 $776 #
point $-1 -61.34982347261414 10.307691779997459 4.1894999915717293 #
vertex $-1 $615 $777 #
point $-1 -61.34982347261414 12.968712731606313 4.1894999915717293 #
coedge $-1 $732 $621 $738 $778 reversed $446 $-1 #
coedge $-1 $621 $731 $624 $736 reversed $446 $-1 #
edge $-1 $734 -14.941567545250011 $629 -8.7325186581626912 $628 $779 forward 7 unknown #
vertex $-1 $623 $780 #
straight-curve $-1 -51.437151732637027 26.778610646956363 16.693114125790526 -0.66913059716165679 0 -0.74314483375859142 I I #
edge $-1 $625 58.353931886606269 $740 66.166570024719988 $732 $781 forward 7 unknown #
point $-1 -58.353931886606269 26.778610646956363 9.0112513332804234 #
coedge $-1 $628 $627 $731 $778 forward $619 $-1 #
point $-1 -66.166570024719988 20.569561759869043 0.33443742730702297 #
vertex $-1 $736 $782 #
straight-curve $-1 -66.166570024719988 0 9.0112513332804234 0 -1 0 I I #
vertex $-1 $635 $783 #
point $-1 -61.34982347261414 22.343575727608272 4.1894999915717293 #
vertex $-1 $639 $784 #
point $-1 -61.34982347261414 25.004596679217126 4.1894999915717293 #
straight-curve $-1 -66.166570024719988 26.778610646956363 0 0 0 -1 I I #
point $-1 -66.166570024719988 -26.778610646956363 -9.0112513332804234 #
straight-curve $-1 -66.166570024719988 0 -9.0112513332804234 0 1 0 I I #
point $-1 -66.166570024719988 26.778610646956363 -9.0112513332804234 #
straight-curve $-1 -54.006674250218573 -10.57917518247994 9.0112513332804234 0 1 0 I I #
straight-curve $-1 -54.006674250218573 -10.57917518247994 -9.0112513332804234 0 -1 0 I I #
point $-1 -54.006674250218573 -26.778610646956359 -9.0112513332804234 #
point $-1 -54.006674250218573 -26.778610646956359 9.0112513332804234 #
straight-curve $-1 0 -26.778610646956363 -9.0112513332804234 -1 0 0 I I #
straight-curve $-1 0 -26.778610646956363 9.0112513332804234 1 0 0 I I #
straight-curve $-1 66.166570024719988 -13.114829431550056 95.706651386468593 0 0 -1 I I #
point $-1 66.166570024719988 -13.114829431550056 9.0112513332804234 #
straight-curve $-1 66.166570024719988 -4.5985591843176117 4.2944847700662976 0 1 0 I I #
point $-1 66.166570024719988 -13.114829431550056 4.2944847700662905 #
point $-1 62.36858244578471 -9.1971183686352234 5.2488854650172732 #
straight-curve $-1 -66.166570024719988 -15.5380900829634 44.441295226432977 0 0 1 I I #
straight-curve $-1 -66.166570024719988 0 9.0112513332804234 0 -1 0 I I #
point $-1 -66.166570024719988 -15.5380900829634 9.0112513332804234 #
point $-1 -61.331319913464903 -13.764076115224166 3.8364311338416672 #
point $-1 -61.331319913464903 -11.103055163615313 3.8364311338416672 #
straight-curve $-1 -66.166570024719988 2.7068427517347331 44.441295226432977 0 0 -1 I I #
point $-1 -66.166570024719988 2.7068427517347331 9.0112513332804234 #
straight-curve $-1 -66.166570024719988 -0.19884084590446349 0.33443742730701631 0 -1 0 I I #
point $-1 -66.166570024719988 2.7068427517347331 0.33443742730702297 #
point $-1 -61.331319913464903 -1.7281921676133543 3.8364311338416672 #
point $-1 -61.331319913464903 0.93282878399550029 3.8364311338416672 #
straight-curve $-1 -66.166570024719988 14.74272669934555 44.441295226432977 0 0 -1 I I #
point $-1 -66.166570024719988 14.74272669934555 9.0112513332804234 #
straight-curve $-1 -66.166570024719988 5.8191011279009448 0.33443742730701631 0 -1 0 I I #
point $-1 -66.166570024719988 14.74272669934555 0.33443742730702297 #
point $-1 -61.331319913464903 10.307691779997459 3.8364311338416672 #
point $-1 -61.331319913464903 12.968712731606313 3.8364311338416672 #
edge $-1 $740 -9.0112513332804234 $734 -0.33443742730702297 $731 $785 forward 7 unknown #
straight-curve $-1 -66.166570024719988 11.837043101706351 0.33443742730701631 0 -1 0 I I #
point $-1 -66.166570024719988 26.778610646956363 0.33443742730702297 #
straight-curve $-1 0 26.778610646956363 9.0112513332804234 -1 0 0 I I #
point $-1 -66.166570024719988 26.778610646956363 9.0112513332804234 #
point $-1 -61.331319913464903 22.343575727608272 3.8364311338416672 #
point $-1 -61.331319913464903 25.004596679217126 3.8364311338416672 #
straight-curve $-1 -66.166570024719988 26.778610646956363 0 0 0 -1 I I #
End-of-ACIS-data 