500 0 10 0           
7 Unknown 11 ACIS 5.0 NT 24 Fri Mar 26 18:13:05 1999 
-1 9.9999999999999995e-007 1e-010 
body $-1 $10 $-1 $11 #
body $-1 $12 $-1 $13 #
body $-1 $14 $-1 $15 #
body $-1 $16 $-1 $17 #
body $-1 $18 $-1 $19 #
body $-1 $20 $-1 $21 #
body $-1 $22 $-1 $23 #
body $-1 $24 $-1 $25 #
body $-1 $26 $-1 $27 #
body $-1 $28 $-1 $29 #
lump $-1 $-1 $30 $0 #
transform $-1 1 0 0 0 1 0 0 0 1 75.692007202368231 48.410590708313563 19.547436248162942 1 rotate no_reflect no_shear #
lump $-1 $-1 $31 $1 #
transform $-1 1 0 0 0 1 0 0 0 1 75.692007202368231 48.410590708313563 19.547436248162942 1 rotate no_reflect no_shear #
lump $-1 $-1 $32 $2 #
transform $-1 1 0 0 0 1 0 0 0 1 75.692007202368231 48.410590708313563 19.547436248162942 1 rotate no_reflect no_shear #
lump $-1 $-1 $33 $3 #
transform $-1 1 0 0 0 1 0 0 0 1 75.692007202368231 48.410590708313563 19.547436248162942 1 rotate no_reflect no_shear #
lump $-1 $-1 $34 $4 #
transform $-1 1 0 0 0 1 0 0 0 1 75.692007202368231 48.410590708313563 19.547436248162942 1 rotate no_reflect no_shear #
lump $-1 $-1 $35 $5 #
transform $-1 1 0 0 0 1 0 0 0 1 75.692007202368231 48.410590708313563 19.547436248162942 1 rotate no_reflect no_shear #
lump $-1 $-1 $36 $6 #
transform $-1 1 0 0 0 1 0 0 0 1 75.692007202368231 48.410590708313563 19.547436248162942 1 rotate no_reflect no_shear #
lump $-1 $-1 $37 $7 #
transform $-1 1 0 0 0 1 0 0 0 1 75.692007202368231 48.410590708313563 19.547436248162942 1 rotate no_reflect no_shear #
lump $-1 $-1 $38 $8 #
transform $-1 1 0 0 0 1 0 0 0 1 75.692007202368231 48.410590708313563 19.547436248162942 1 rotate no_reflect no_shear #
lump $-1 $-1 $39 $9 #
transform $-1 1 0 0 0 1 0 0 0 1 75.692007202368231 48.410590708313563 19.547436248162942 1 rotate no_reflect no_shear #
shell $-1 $-1 $-1 $40 $-1 $10 #
shell $-1 $-1 $-1 $41 $-1 $12 #
shell $-1 $-1 $-1 $42 $-1 $14 #
shell $-1 $-1 $-1 $43 $-1 $16 #
shell $-1 $-1 $-1 $44 $-1 $18 #
shell $-1 $-1 $-1 $45 $-1 $20 #
shell $-1 $-1 $-1 $46 $-1 $22 #
shell $-1 $-1 $-1 $47 $-1 $24 #
shell $-1 $-1 $-1 $48 $-1 $26 #
shell $-1 $-1 $-1 $49 $-1 $28 #
face $-1 $50 $51 $30 $-1 $52 forward single #
face $-1 $53 $54 $31 $-1 $55 reversed single #
face $-1 $56 $57 $32 $-1 $58 reversed single #
face $-1 $59 $60 $33 $-1 $61 forward single #
face $-1 $62 $63 $34 $-1 $64 forward single #
face $-1 $65 $66 $35 $-1 $67 forward single #
face $-1 $68 $69 $36 $-1 $70 reversed single #
face $-1 $71 $72 $37 $-1 $73 forward single #
face $-1 $74 $75 $38 $-1 $76 forward single #
face $-1 $77 $78 $39 $-1 $79 forward single #
face $-1 $80 $81 $30 $-1 $82 reversed single #
loop $-1 $-1 $83 $40 #
plane-surface $-1 0 0 19.547436248162942 0 0 1 1 0 0 forward_v I I I I #
face $-1 $84 $85 $31 $-1 $86 reversed single #
loop $-1 $-1 $87 $41 #
plane-surface $-1 -58.265841052613183 -38.509495388037514 0 1 0 0 0 0 -1 forward_v I I I I #
face $-1 $88 $89 $32 $-1 $90 reversed single #
loop $-1 $-1 $91 $42 #
plane-surface $-1 -191.6588914686248 -20.316752003391404 111.67409517165916 0 1 0 -0.7660444514056185 0 0.64278759981090561 forward_v I I I I #
face $-1 $92 $93 $33 $-1 $94 forward single #
loop $-1 $95 $96 $43 #
cone-surface $-1 -73.081639157649164 -18.020919945204092 16.590501774983331 0.7660444514056185 0 -0.64278759981090561 0.3213937999054528 0 0.38302222570280925 1 I I 0 1 0.5 forward I I I I #
face $-1 $97 $98 $34 $-1 $99 forward single #
loop $-1 $100 $101 $44 #
cone-surface $-1 -73.081639157649164 -14.577171857923133 16.590501774983331 0.7660444514056185 0 -0.64278759981090561 0.3213937999054528 0 0.38302222570280925 1 I I 0 1 0.5 forward I I I I #
face $-1 $102 $103 $35 $-1 $104 forward single #
loop $-1 $105 $106 $45 #
cone-surface $-1 -73.081639157649164 -11.133423770642167 16.590501774983331 0.7660444514056185 0 -0.64278759981090561 0.3213937999054528 0 0.38302222570280925 1 I I 0 1 0.5 forward I I I I #
face $-1 $107 $108 $36 $-1 $109 reversed single #
loop $-1 $-1 $110 $46 #
plane-surface $-1 68.220399837339656 37.594272770929472 214.36291141937303 0 1 0 0.68199836817093118 0 0.7313536940579346 forward_v I I I I #
face $-1 $111 $112 $37 $-1 $113 forward single #
loop $-1 $114 $115 $47 #
cone-surface $-1 64.779452647896505 39.757536358406298 9.2806688607816206 -0.68199836817093118 0 -0.7313536940579346 0.7313536940579346 0 -0.68199836817093118 1 I I 0 1 1 forward I I I I #
face $-1 $116 $117 $38 $-1 $118 forward single #
loop $-1 $119 $120 $48 #
cone-surface $-1 64.779452647896505 43.002431739621528 9.2806688607816206 -0.68199836817093118 0 -0.7313536940579346 0.7313536940579346 0 -0.68199836817093118 1 I I 0 1 1 forward I I I I #
face $-1 $121 $122 $39 $-1 $123 forward single #
loop $-1 $124 $125 $49 #
cone-surface $-1 64.779452647896505 46.247327120836758 9.2806688607816206 -0.68199836817093118 0 -0.7313536940579346 0.7313536940579346 0 -0.68199836817093118 1 I I 0 1 1 forward I I I I #
face $-1 $126 $127 $30 $-1 $128 reversed single #
loop $-1 $-1 $129 $50 #
plane-surface $-1 0 0 -19.547436248162942 0 0 1 1 0 0 forward_v I I I I #
coedge $-1 $130 $131 $132 $133 forward $51 $-1 #
face $-1 $134 $135 $31 $-1 $136 reversed single #
loop $-1 $-1 $137 $53 #
plane-surface $-1 -54.519035338210372 -28.608400067761465 0 0 -1 0 0 0 -1 forward_v I I I I #
coedge $-1 $138 $139 $140 $141 forward $54 $-1 #
face $-1 $142 $143 $32 $-1 $144 reversed single #
loop $-1 $-1 $145 $56 #
plane-surface $-1 -75.692007202368217 -14.577171857923133 14.366327902699055 -0.7660444514056185 0 0.64278759981090561 0.64278759981090561 0 0.7660444514056185 forward_v I I I I #
coedge $-1 $146 $147 $148 $149 reversed $57 $-1 #
face $-1 $-1 $150 $33 $-1 $151 forward single #
loop $-1 $152 $153 $59 #
cone-surface $-1 -72.453492994051885 -18.020919945204092 16.06342457458295 0.7660444514056185 0 -0.64278759981090561 0.1606968999527264 0 0.19151111285140462 1 I I -0.70710678118654746 0.70710678118654746 0.25 forward I I I I #
loop $-1 $-1 $154 $43 #
coedge $-1 $96 $96 $155 $156 reversed $60 $-1 #
face $-1 $-1 $157 $34 $-1 $158 forward single #
loop $-1 $159 $160 $62 #
cone-surface $-1 -72.453492994051885 -14.577171857923133 16.06342457458295 0.7660444514056185 0 -0.64278759981090561 0.1606968999527264 0 0.19151111285140462 1 I I -0.70710678118654746 0.70710678118654746 0.25 forward I I I I #
loop $-1 $-1 $161 $44 #
coedge $-1 $101 $101 $162 $163 reversed $63 $-1 #
face $-1 $-1 $164 $35 $-1 $165 forward single #
loop $-1 $166 $167 $65 #
cone-surface $-1 -72.453492994051885 -11.133423770642167 16.06342457458295 0.7660444514056185 0 -0.64278759981090561 0.1606968999527264 0 0.19151111285140462 1 I I -0.70710678118654746 0.70710678118654746 0.25 forward I I I I #
loop $-1 $-1 $168 $45 #
coedge $-1 $106 $106 $169 $170 reversed $66 $-1 #
face $-1 $171 $172 $36 $-1 $173 forward single #
loop $-1 $-1 $174 $68 #
plane-surface $-1 -35.023250953855353 43.002431739621514 103.64765326314944 0.68199836817093118 0 0.7313536940579346 0.7313536940579346 0 -0.68199836817093118 forward_v I I I I #
coedge $-1 $175 $176 $177 $178 reversed $69 $-1 #
face $-1 $-1 $179 $37 $-1 $180 forward single #
loop $-1 $181 $182 $71 #
cone-surface $-1 63.790308373200773 39.757536358406298 8.2199415144756038 -0.68199836817093118 0 -0.7313536940579346 0.3656768470289673 0 -0.34099918408546559 1 I I -0.70710678118654746 0.70710678118654746 0.5 forward I I I I #
loop $-1 $-1 $183 $47 #
coedge $-1 $115 $115 $184 $185 reversed $72 $-1 #
face $-1 $-1 $186 $38 $-1 $187 forward single #
loop $-1 $188 $189 $74 #
cone-surface $-1 63.790308373200773 43.002431739621528 8.2199415144756038 -0.68199836817093118 0 -0.7313536940579346 0.3656768470289673 0 -0.34099918408546559 1 I I -0.70710678118654746 0.70710678118654746 0.5 forward I I I I #
loop $-1 $-1 $190 $48 #
coedge $-1 $120 $120 $191 $192 reversed $75 $-1 #
face $-1 $-1 $193 $39 $-1 $194 forward single #
loop $-1 $195 $196 $77 #
cone-surface $-1 63.790308373200773 46.247327120836758 8.2199415144756038 -0.68199836817093118 0 -0.7313536940579346 0.3656768470289673 0 -0.34099918408546559 1 I I -0.70710678118654746 0.70710678118654746 0.5 forward I I I I #
loop $-1 $-1 $197 $49 #
coedge $-1 $125 $125 $198 $199 reversed $78 $-1 #
face $-1 $200 $201 $30 $-1 $202 reversed single #
loop $-1 $-1 $203 $80 #
plane-surface $-1 0 -48.410590708313563 0 0 1 0 0 0 1 forward_v I I I I #
coedge $-1 $204 $205 $206 $207 forward $81 $-1 #
coedge $-1 $208 $83 $209 $210 forward $51 $-1 #
coedge $-1 $83 $208 $211 $212 forward $51 $-1 #
coedge $-1 $213 $214 $83 $133 reversed $215 $-1 #
edge $-1 $216 -48.410590708313563 $217 48.410590708313563 $132 $218 forward 7 unknown #
face $-1 $219 $220 $31 $-1 $221 forward single #
loop $-1 $-1 $222 $84 #
plane-surface $-1 -50.772229623807561 -38.509495388037514 0 -1 0 0 0 0 1 forward_v I I I I #
coedge $-1 $223 $224 $225 $226 forward $85 $-1 #
coedge $-1 $227 $87 $228 $229 reversed $54 $-1 #
coedge $-1 $87 $227 $230 $231 reversed $54 $-1 #
coedge $-1 $224 $223 $87 $141 reversed $85 $-1 #
edge $-1 $232 -19.547436248162942 $233 19.547436248162942 $140 $234 forward 7 unknown #
face $-1 $235 $236 $32 $-1 $237 reversed single #
loop $-1 $-1 $238 $88 #
plane-surface $-1 -191.6588914686248 -8.8375917124548629 111.67409517165916 0 -1 0 0.7660444514056185 0 -0.64278759981090561 forward_v I I I I #
coedge $-1 $239 $240 $241 $242 reversed $89 $-1 #
coedge $-1 $147 $91 $243 $244 reversed $57 $-1 #
coedge $-1 $91 $146 $239 $245 reversed $57 $-1 #
coedge $-1 $241 $246 $91 $149 forward $247 $-1 #
edge $-1 $248 20.13743853194417 $249 24.484904519890577 $148 $250 forward 7 unknown #
loop $-1 $-1 $155 $92 #
plane-surface $-1 -75.692007202368217 -14.577171857923133 14.366327902699055 -0.7660444514056185 0 0.64278759981090561 0.64278759981090561 0 0.7660444514056185 forward_v I I I I #
loop $-1 $-1 $251 $59 #
coedge $-1 $153 $153 $154 $252 reversed $93 $-1 #
coedge $-1 $154 $154 $153 $252 forward $95 $-1 #
coedge $-1 $155 $155 $96 $156 forward $150 $-1 #
edge $-1 $253 0 $253 6.2831853071796004 $155 $254 forward 7 unknown #
loop $-1 $-1 $162 $97 #
plane-surface $-1 -75.692007202368217 -14.577171857923133 14.366327902699055 -0.7660444514056185 0 0.64278759981090561 0.64278759981090561 0 0.7660444514056185 forward_v I I I I #
loop $-1 $-1 $255 $62 #
coedge $-1 $160 $160 $161 $256 reversed $98 $-1 #
coedge $-1 $161 $161 $160 $256 forward $100 $-1 #
coedge $-1 $162 $162 $101 $163 forward $157 $-1 #
edge $-1 $257 0 $257 6.2831853071796004 $162 $258 forward 7 unknown #
loop $-1 $-1 $169 $102 #
plane-surface $-1 -75.692007202368217 -14.577171857923133 14.366327902699055 -0.7660444514056185 0 0.64278759981090561 0.64278759981090561 0 0.7660444514056185 forward_v I I I I #
loop $-1 $-1 $259 $65 #
coedge $-1 $167 $167 $168 $260 reversed $103 $-1 #
coedge $-1 $168 $168 $167 $260 forward $105 $-1 #
coedge $-1 $169 $169 $106 $170 forward $164 $-1 #
edge $-1 $261 0 $261 6.2831853071796004 $169 $262 forward 7 unknown #
face $-1 $263 $264 $36 $-1 $265 reversed single #
loop $-1 $-1 $266 $107 #
plane-surface $-1 0 0 19.547436248162942 0 0 1 1 0 0 forward_v I I I I #
coedge $-1 $267 $268 $269 $270 reversed $108 $-1 #
coedge $-1 $176 $110 $271 $272 reversed $69 $-1 #
coedge $-1 $110 $175 $267 $273 reversed $69 $-1 #
coedge $-1 $269 $274 $110 $178 forward $275 $-1 #
edge $-1 $276 87.634019461523579 $277 106.77745323773206 $177 $278 forward 7 unknown #
loop $-1 $-1 $184 $111 #
plane-surface $-1 -35.023250953855353 43.002431739621514 103.64765326314944 0.68199836817093118 0 0.7313536940579346 0.7313536940579346 0 -0.68199836817093118 forward_v I I I I #
loop $-1 $-1 $279 $71 #
coedge $-1 $182 $182 $183 $280 reversed $112 $-1 #
coedge $-1 $183 $183 $182 $280 forward $114 $-1 #
coedge $-1 $184 $184 $115 $185 forward $179 $-1 #
edge $-1 $281 0 $281 6.2831853071796004 $184 $282 forward 7 unknown #
loop $-1 $-1 $191 $116 #
plane-surface $-1 -35.023250953855353 43.002431739621514 103.64765326314944 0.68199836817093118 0 0.7313536940579346 0.7313536940579346 0 -0.68199836817093118 forward_v I I I I #
loop $-1 $-1 $283 $74 #
coedge $-1 $189 $189 $190 $284 reversed $117 $-1 #
coedge $-1 $190 $190 $189 $284 forward $119 $-1 #
coedge $-1 $191 $191 $120 $192 forward $186 $-1 #
edge $-1 $285 0 $285 6.2831853071796004 $191 $286 forward 7 unknown #
loop $-1 $-1 $198 $121 #
plane-surface $-1 -35.023250953855353 43.002431739621514 103.64765326314944 0.68199836817093118 0 0.7313536940579346 0.7313536940579346 0 -0.68199836817093118 forward_v I I I I #
loop $-1 $-1 $287 $77 #
coedge $-1 $196 $196 $197 $288 reversed $122 $-1 #
coedge $-1 $197 $197 $196 $288 forward $124 $-1 #
coedge $-1 $198 $198 $125 $199 forward $193 $-1 #
edge $-1 $289 0 $289 6.2831853071796004 $198 $290 forward 7 unknown #
face $-1 $291 $292 $30 $-1 $293 reversed single #
loop $-1 $-1 $294 $126 #
plane-surface $-1 -75.692007202368231 0 0 1 0 0 0 0 -1 forward_v I I I I #
coedge $-1 $295 $211 $296 $297 forward $127 $-1 #
coedge $-1 $298 $129 $295 $299 forward $81 $-1 #
coedge $-1 $129 $298 $300 $301 forward $81 $-1 #
coedge $-1 $214 $213 $129 $207 reversed $215 $-1 #
edge $-1 $302 -48.410590708313563 $303 48.410590708313563 $206 $304 forward 7 unknown #
coedge $-1 $131 $130 $305 $306 forward $51 $-1 #
coedge $-1 $307 $308 $130 $210 reversed $292 $-1 #
edge $-1 $217 -75.692007202368231 $309 75.692007202368231 $209 $310 forward 7 unknown #
coedge $-1 $203 $311 $131 $212 reversed $127 $-1 #
edge $-1 $312 -75.692007202368231 $216 75.692007202368231 $211 $313 forward 7 unknown #
coedge $-1 $206 $132 $311 $314 forward $215 $-1 #
coedge $-1 $132 $206 $307 $315 reversed $215 $-1 #
loop $-1 $-1 $213 $291 #
vertex $-1 $133 $316 #
vertex $-1 $133 $317 #
straight-curve $-1 75.692007202368231 0 19.547436248162942 0 1 0 I I #
face $-1 $318 $319 $31 $-1 $320 reversed single #
loop $-1 $-1 $321 $134 #
plane-surface $-1 0 0 19.547436248162942 0 0 1 1 0 0 forward_v I I I I #
coedge $-1 $322 $323 $324 $325 reversed $135 $-1 #
coedge $-1 $140 $137 $326 $327 reversed $85 $-1 #
coedge $-1 $137 $140 $328 $329 reversed $85 $-1 #
coedge $-1 $323 $322 $137 $226 reversed $135 $-1 #
edge $-1 $330 -19.547436248162942 $331 19.547436248162942 $225 $332 forward 7 unknown #
coedge $-1 $139 $138 $333 $334 reversed $54 $-1 #
coedge $-1 $326 $335 $138 $229 forward $319 $-1 #
edge $-1 $336 -29.155843014294806 $233 -9.3536523737427082 $228 $337 forward 7 unknown #
coedge $-1 $338 $328 $139 $231 forward $220 $-1 #
edge $-1 $232 9.3536523737427082 $339 29.155843014294806 $230 $340 forward 7 unknown #
vertex $-1 $231 $341 #
vertex $-1 $229 $342 #
straight-curve $-1 -58.265841052613183 -28.608400067761465 0 0 0 -1 I I #
face $-1 $-1 $247 $32 $-1 $343 forward single #
loop $-1 $-1 $344 $142 #
plane-surface $-1 -75.692007202368231 0 0 1 0 0 0 0 -1 forward_v I I I I #
coedge $-1 $345 $346 $347 $348 reversed $143 $-1 #
coedge $-1 $349 $145 $147 $245 forward $89 $-1 #
coedge $-1 $145 $349 $345 $350 forward $89 $-1 #
coedge $-1 $347 $148 $145 $242 forward $247 $-1 #
edge $-1 $249 -13.028166074429837 $351 -1.5490057834932962 $241 $352 forward 7 unknown #
coedge $-1 $353 $354 $146 $244 forward $236 $-1 #
edge $-1 $355 -41.47071968313054 $248 -36.289611337666642 $243 $356 forward 7 unknown #
edge $-1 $249 -6.7634565278255661 $355 2.2742244199036027e-014 $147 $357 forward 7 unknown #
coedge $-1 $148 $347 $353 $358 forward $247 $-1 #
loop $-1 $-1 $347 $235 #
vertex $-1 $244 $359 #
vertex $-1 $149 $360 #
straight-curve $-1 -95.829445734312401 -20.316752003391404 19.547436248162938 1 0 0 I I #
coedge $-1 $251 $251 $-1 $361 reversed $152 $-1 #
edge $-1 $362 0 $362 6.2831853071796004 $153 $363 forward 7 unknown #
vertex $-1 $156 $364 #
ellipse-curve $-1 -73.518274208395027 -18.020919945204092 16.956882075430983 -0.7660444514056185 0 0.64278759981090561 0.3213937999054528 0 0.38302222570280925 1 I I #
coedge $-1 $255 $255 $-1 $365 reversed $159 $-1 #
edge $-1 $366 0 $366 6.2831853071796004 $160 $367 forward 7 unknown #
vertex $-1 $163 $368 #
ellipse-curve $-1 -73.518274208395027 -14.577171857923133 16.956882075430983 -0.7660444514056185 0 0.64278759981090561 0.3213937999054528 0 0.38302222570280925 1 I I #
coedge $-1 $259 $259 $-1 $369 reversed $166 $-1 #
edge $-1 $370 0 $370 6.2831853071796004 $167 $371 forward 7 unknown #
vertex $-1 $170 $372 #
ellipse-curve $-1 -73.518274208395027 -11.133423770642167 16.956882075430983 -0.7660444514056185 0 0.64278759981090561 0.3213937999054528 0 0.38302222570280925 1 I I #
face $-1 $-1 $275 $36 $-1 $373 reversed single #
loop $-1 $-1 $374 $171 #
plane-surface $-1 0 48.410590708313563 0 0 -1 0 0 0 -1 forward_v I I I I #
coedge $-1 $271 $375 $376 $377 forward $172 $-1 #
coedge $-1 $376 $174 $176 $273 forward $108 $-1 #
coedge $-1 $174 $376 $374 $378 reversed $108 $-1 #
coedge $-1 $379 $177 $174 $270 forward $275 $-1 #
edge $-1 $277 16.093056901118715 $380 26.909374838502806 $269 $381 forward 7 unknown #
coedge $-1 $382 $266 $175 $272 forward $172 $-1 #
edge $-1 $383 21.052988355975536 $276 41.581807283698403 $271 $384 forward 7 unknown #
edge $-1 $277 -151.38401440473643 $383 -123.3143962507374 $176 $385 forward 7 unknown #
coedge $-1 $177 $379 $382 $386 reversed $275 $-1 #
loop $-1 $-1 $269 $263 #
vertex $-1 $386 $387 #
vertex $-1 $178 $388 #
straight-curve $-1 75.692007202368231 37.594272770929472 107.18145570968652 0 0 -1 I I #
coedge $-1 $279 $279 $-1 $389 reversed $181 $-1 #
edge $-1 $390 0 $390 6.2831853071796004 $182 $391 forward 7 unknown #
vertex $-1 $185 $392 #
ellipse-curve $-1 65.427597738506805 39.757536358406298 9.9757193600586938 0.68199836817093118 0 0.7313536940579346 0.7313536940579346 0 -0.68199836817093118 1 I I #
coedge $-1 $283 $283 $-1 $393 reversed $188 $-1 #
edge $-1 $394 0 $394 6.2831853071796004 $189 $395 forward 7 unknown #
vertex $-1 $192 $396 #
ellipse-curve $-1 65.427597738506805 43.002431739621528 9.9757193600586938 0.68199836817093118 0 0.7313536940579346 0.7313536940579346 0 -0.68199836817093118 1 I I #
coedge $-1 $287 $287 $-1 $397 reversed $195 $-1 #
edge $-1 $398 0 $398 6.2831853071796004 $196 $399 forward 7 unknown #
vertex $-1 $199 $400 #
ellipse-curve $-1 65.427597738506805 46.247327120836758 9.9757193600586938 0.68199836817093118 0 0.7313536940579346 0.7313536940579346 0 -0.68199836817093118 1 I I #
face $-1 $-1 $215 $30 $-1 $401 reversed single #
loop $-1 $-1 $307 $200 #
plane-surface $-1 0 48.410590708313563 0 0 -1 0 0 0 -1 forward_v I I I I #
coedge $-1 $402 $305 $308 $403 forward $201 $-1 #
coedge $-1 $311 $203 $204 $299 reversed $127 $-1 #
coedge $-1 $305 $402 $203 $297 reversed $201 $-1 #
edge $-1 $312 -19.547436248162942 $404 19.547436248162942 $296 $405 forward 7 unknown #
coedge $-1 $205 $204 $402 $406 forward $81 $-1 #
edge $-1 $303 -75.692007202368231 $404 75.692007202368231 $295 $407 forward 7 unknown #
coedge $-1 $308 $307 $205 $301 reversed $292 $-1 #
edge $-1 $408 -75.692007202368231 $302 75.692007202368231 $300 $409 forward 7 unknown #
vertex $-1 $207 $410 #
vertex $-1 $314 $411 #
straight-curve $-1 75.692007202368231 0 -19.547436248162942 0 -1 0 I I #
coedge $-1 $294 $296 $208 $306 reversed $201 $-1 #
edge $-1 $309 -48.410590708313563 $312 48.410590708313563 $305 $412 forward 7 unknown #
coedge $-1 $300 $209 $214 $315 forward $292 $-1 #
coedge $-1 $209 $300 $294 $403 reversed $292 $-1 #
vertex $-1 $210 $413 #
straight-curve $-1 0 48.410590708313563 19.547436248162942 -1 0 0 I I #
coedge $-1 $211 $295 $213 $314 reversed $127 $-1 #
vertex $-1 $306 $414 #
straight-curve $-1 0 -48.410590708313563 19.547436248162942 1 0 0 I I #
edge $-1 $216 -19.547436248162942 $303 19.547436248162942 $213 $415 forward 7 unknown #
edge $-1 $217 -19.547436248162942 $302 19.547436248162942 $214 $416 forward 7 unknown #
point $-1 75.692007202368231 -48.410590708313563 19.547436248162942 #
point $-1 75.692007202368231 48.410590708313563 19.547436248162942 #
face $-1 $-1 $417 $31 $-1 $418 reversed single #
loop $-1 $-1 $419 $219 #
plane-surface $-1 0 0 -19.547436248162942 0 0 1 1 0 0 forward_v I I I I #
coedge $-1 $328 $338 $323 $420 forward $220 $-1 #
coedge $-1 $225 $222 $419 $421 reversed $135 $-1 #
coedge $-1 $222 $225 $321 $420 reversed $135 $-1 #
coedge $-1 $422 $423 $222 $325 forward $417 $-1 #
edge $-1 $424 -19.547436248162942 $425 19.547436248162942 $324 $426 forward 7 unknown #
coedge $-1 $419 $228 $223 $327 forward $319 $-1 #
edge $-1 $233 -31.006323383507997 $331 -23.512711954702375 $326 $427 forward 7 unknown #
coedge $-1 $230 $321 $224 $329 forward $220 $-1 #
edge $-1 $330 23.512711954702375 $232 31.006323383507997 $328 $428 forward 7 unknown #
vertex $-1 $329 $429 #
vertex $-1 $327 $430 #
straight-curve $-1 -50.772229623807561 -28.608400067761465 0 0 0 -1 I I #
coedge $-1 $423 $422 $227 $334 forward $417 $-1 #
edge $-1 $339 -19.547436248162942 $336 19.547436248162942 $333 $431 forward 7 unknown #
coedge $-1 $228 $419 $423 $432 forward $319 $-1 #
vertex $-1 $229 $433 #
straight-curve $-1 -58.265841052613183 -19.254747694018757 -19.547436248162942 0 1 0 I I #
coedge $-1 $321 $230 $422 $434 forward $220 $-1 #
vertex $-1 $434 $435 #
straight-curve $-1 -58.265841052613183 -19.254747694018757 19.547436248162942 0 -1 0 I I #
point $-1 -58.265841052613183 -28.608400067761465 19.547436248162942 #
point $-1 -58.265841052613183 -28.608400067761465 -19.547436248162942 #
plane-surface $-1 0 0 19.547436248162942 0 0 1 1 0 0 forward_v I I I I #
coedge $-1 $354 $353 $346 $436 forward $236 $-1 #
coedge $-1 $346 $238 $240 $350 reversed $143 $-1 #
coedge $-1 $238 $345 $344 $436 reversed $143 $-1 #
coedge $-1 $246 $241 $238 $348 forward $247 $-1 #
edge $-1 $351 -24.484904519890577 $437 -20.13743853194417 $347 $438 forward 7 unknown #
coedge $-1 $240 $239 $354 $439 reversed $89 $-1 #
edge $-1 $440 -2.2742244199036027e-014 $351 6.7634565278255661 $345 $441 forward 7 unknown #
vertex $-1 $242 $442 #
straight-curve $-1 -71.34454121442181 -7.2885859289615667 19.547436248162942 0 1 0 I I #
coedge $-1 $344 $243 $246 $358 reversed $236 $-1 #
coedge $-1 $243 $344 $349 $439 forward $236 $-1 #
vertex $-1 $244 $443 #
straight-curve $-1 -75.692007202368231 -20.316752003391404 55.83704758582958 0 0 1 I I #
straight-curve $-1 -75.692007202368217 -20.316752003391404 14.366327902699055 -0.64278759981090561 0 -0.7660444514056185 I I #
edge $-1 $437 8.8375917124548629 $248 20.316752003391404 $353 $444 forward 7 unknown #
point $-1 -75.692007202368231 -20.316752003391404 19.547436248162942 #
point $-1 -71.344541214421824 -20.316752003391404 19.547436248162942 #
edge $-1 $445 1 $445 0 $251 $-1 forward 7 unknown #
vertex $-1 $252 $446 #
ellipse-curve $-1 -72.645004106903286 -18.020919945204092 16.224121474535675 -0.7660444514056185 0 0.64278759981090561 0.3213937999054528 0 0.38302222570280925 1 I I #
point $-1 -73.196880408489577 -18.020919945204092 17.339904301133796 #
edge $-1 $447 1 $447 0 $255 $-1 forward 7 unknown #
vertex $-1 $256 $448 #
ellipse-curve $-1 -72.645004106903286 -14.577171857923133 16.224121474535675 -0.7660444514056185 0 0.64278759981090561 0.3213937999054528 0 0.38302222570280925 1 I I #
point $-1 -73.196880408489577 -14.577171857923133 17.339904301133796 #
edge $-1 $449 1 $449 0 $259 $-1 forward 7 unknown #
vertex $-1 $260 $450 #
ellipse-curve $-1 -72.645004106903286 -11.133423770642167 16.224121474535675 -0.7660444514056185 0 0.64278759981090561 0.3213937999054528 0 0.38302222570280925 1 I I #
point $-1 -73.196880408489577 -11.133423770642167 17.339904301133796 #
plane-surface $-1 75.692007202368231 0 0 -1 0 0 0 0 1 forward_v I I I I #
coedge $-1 $451 $452 $268 $378 forward $264 $-1 #
coedge $-1 $266 $382 $451 $453 forward $172 $-1 #
coedge $-1 $268 $267 $266 $377 reversed $108 $-1 #
edge $-1 $454 -26.909374838502799 $383 -16.093056901118715 $266 $455 forward 7 unknown #
edge $-1 $380 -103.23305722811915 $454 -75.163439074120106 $374 $456 forward 7 unknown #
coedge $-1 $274 $269 $452 $457 reversed $275 $-1 #
vertex $-1 $270 $458 #
straight-curve $-1 75.692007202368231 21.501215869810757 0.40400247195444905 0 1 0 I I #
coedge $-1 $375 $271 $274 $386 forward $172 $-1 #
vertex $-1 $272 $459 #
straight-curve $-1 34.110199918669828 37.594272770929472 19.547436248162938 1 0 0 I I #
straight-curve $-1 -35.023250953855353 37.594272770929472 103.64765326314944 -0.7313536940579346 0 0.68199836817093118 I I #
edge $-1 $276 37.594272770929472 $460 48.410590708313563 $274 $461 forward 7 unknown #
point $-1 75.692007202368231 37.594272770929472 19.547436248162942 #
point $-1 75.692007202368217 37.594272770929472 0.40400247195445615 #
edge $-1 $462 1 $462 0 $279 $-1 forward 7 unknown #
vertex $-1 $280 $463 #
ellipse-curve $-1 64.131307557286235 39.757536358406298 8.5856183615045705 0.68199836817093118 0 0.7313536940579346 0.7313536940579346 0 -0.68199836817093118 1 I I #
point $-1 66.15895143256472 39.757536358406298 9.2937209918877386 #
edge $-1 $464 1 $464 0 $283 $-1 forward 7 unknown #
vertex $-1 $284 $465 #
ellipse-curve $-1 64.131307557286235 43.002431739621528 8.5856183615045705 0.68199836817093118 0 0.7313536940579346 0.7313536940579346 0 -0.68199836817093118 1 I I #
point $-1 66.15895143256472 43.002431739621528 9.2937209918877386 #
edge $-1 $466 1 $466 0 $287 $-1 forward 7 unknown #
vertex $-1 $288 $467 #
ellipse-curve $-1 64.131307557286235 46.247327120836758 8.5856183615045705 0.68199836817093118 0 0.7313536940579346 0.7313536940579346 0 -0.68199836817093118 1 I I #
point $-1 66.15895143256472 46.247327120836758 9.2937209918877386 #
plane-surface $-1 75.692007202368231 0 0 -1 0 0 0 0 1 forward_v I I I I #
coedge $-1 $296 $294 $298 $406 reversed $201 $-1 #
edge $-1 $309 -19.547436248162942 $408 19.547436248162942 $308 $468 forward 7 unknown #
vertex $-1 $406 $469 #
straight-curve $-1 -75.692007202368231 -48.410590708313563 0 0 0 -1 I I #
edge $-1 $404 -48.410590708313563 $408 48.410590708313563 $402 $470 forward 7 unknown #
straight-curve $-1 0 -48.410590708313563 -19.547436248162942 -1 0 0 I I #
vertex $-1 $301 $471 #
straight-curve $-1 0 48.410590708313563 -19.547436248162942 1 0 0 I I #
point $-1 75.692007202368231 48.410590708313563 -19.547436248162942 #
point $-1 75.692007202368231 -48.410590708313563 -19.547436248162942 #
straight-curve $-1 -75.692007202368231 0 19.547436248162942 0 -1 0 I I #
point $-1 -75.692007202368231 48.410590708313563 19.547436248162942 #
point $-1 -75.692007202368231 -48.410590708313563 19.547436248162942 #
straight-curve $-1 75.692007202368231 -48.410590708313563 0 0 0 -1 I I #
straight-curve $-1 75.692007202368231 48.410590708313563 0 0 0 -1 I I #
loop $-1 $-1 $324 $318 #
plane-surface $-1 0 -48.410590708313563 0 0 1 0 0 0 1 forward_v I I I I #
coedge $-1 $335 $326 $322 $421 forward $319 $-1 #
edge $-1 $425 -29.155843014294806 $330 -9.3536523737427082 $321 $472 forward 7 unknown #
edge $-1 $331 9.3536523737427082 $424 29.155843014294806 $419 $473 forward 7 unknown #
coedge $-1 $333 $324 $338 $434 reversed $417 $-1 #
coedge $-1 $324 $333 $335 $432 reversed $417 $-1 #
vertex $-1 $432 $474 #
vertex $-1 $325 $475 #
straight-curve $-1 -50.772229623807561 -48.410590708313563 0 0 0 1 I I #
straight-curve $-1 -27.259517669105186 -28.608400067761465 -19.547436248162942 1 0 0 I I #
straight-curve $-1 -27.259517669105186 -28.608400067761465 19.547436248162942 -1 0 0 I I #
point $-1 -50.772229623807561 -28.608400067761465 19.547436248162942 #
point $-1 -50.772229623807561 -28.608400067761465 -19.547436248162942 #
straight-curve $-1 -58.265841052613183 -48.410590708313563 0 0 0 -1 I I #
edge $-1 $424 50.772229623807561 $336 58.265841052613183 $423 $476 forward 7 unknown #
point $-1 -58.265841052613183 -48.410590708313563 -19.547436248162942 #
edge $-1 $339 -58.265841052613183 $425 -50.772229623807561 $422 $477 forward 7 unknown #
point $-1 -58.265841052613183 -48.410590708313563 19.547436248162942 #
edge $-1 $437 36.289611337666642 $440 41.47071968313054 $344 $478 forward 7 unknown #
vertex $-1 $358 $479 #
straight-curve $-1 -95.829445734312401 -8.8375917124548629 19.547436248162938 -1 0 0 I I #
edge $-1 $440 1.5490057834932962 $355 13.028166074429837 $354 $480 forward 7 unknown #
vertex $-1 $439 $481 #
straight-curve $-1 -75.692007202368217 -8.8375917124548629 14.366327902699055 0.64278759981090561 0 0.7660444514056185 I I #
point $-1 -71.344541214421824 -8.8375917124548629 19.547436248162942 #
point $-1 -75.692007202368231 -20.316752003391404 14.366327902699037 #
straight-curve $-1 -75.692007202368231 0 19.547436248162942 0 -1 0 I I #
vertex $-1 $361 $482 #
point $-1 -72.323610306997836 -18.020919945204092 16.607143700238485 #
vertex $-1 $365 $483 #
point $-1 -72.323610306997836 -14.577171857923133 16.607143700238485 #
vertex $-1 $369 $484 #
point $-1 -72.323610306997836 -11.133423770642167 16.607143700238485 #
coedge $-1 $452 $374 $375 $453 reversed $264 $-1 #
coedge $-1 $374 $451 $379 $457 forward $264 $-1 #
edge $-1 $460 -75.692007202368231 $454 -55.163188274645364 $451 $485 forward 7 unknown #
vertex $-1 $378 $486 #
straight-curve $-1 55.163188274645364 21.501215869810757 19.547436248162938 0 -1 0 I I #
straight-curve $-1 0.19212944968912637 48.410590708313563 70.80877904282805 -0.7313536940579346 0 0.68199836817093118 I I #
edge $-1 $460 -19.547436248162942 $380 -0.40400247195444816 $379 $487 forward 7 unknown #
point $-1 75.692007202368231 48.410590708313563 0.40400247195444816 #
point $-1 55.163188274645364 37.594272770929472 19.547436248162938 #
vertex $-1 $386 $488 #
straight-curve $-1 75.692007202368231 0 19.547436248162942 0 1 0 I I #
vertex $-1 $389 $489 #
point $-1 64.862661251344178 39.757536358406298 7.9036199933336402 #
vertex $-1 $393 $490 #
point $-1 64.862661251344178 43.002431739621528 7.9036199933336402 #
vertex $-1 $397 $491 #
point $-1 64.862661251344178 46.247327120836758 7.9036199933336402 #
straight-curve $-1 -75.692007202368231 48.410590708313563 0 0 0 -1 I I #
point $-1 -75.692007202368231 -48.410590708313563 -19.547436248162942 #
straight-curve $-1 -75.692007202368231 0 -19.547436248162942 0 1 0 I I #
point $-1 -75.692007202368231 48.410590708313563 -19.547436248162942 #
straight-curve $-1 -50.772229623807561 -19.254747694018757 19.547436248162942 0 1 0 I I #
straight-curve $-1 -50.772229623807561 -19.254747694018757 -19.547436248162942 0 -1 0 I I #
point $-1 -50.772229623807561 -48.410590708313563 -19.547436248162942 #
point $-1 -50.772229623807561 -48.410590708313563 19.547436248162942 #
straight-curve $-1 0 -48.410590708313563 -19.547436248162942 -1 0 0 I I #
straight-curve $-1 0 -48.410590708313563 19.547436248162942 1 0 0 I I #
straight-curve $-1 -75.692007202368231 -8.8375917124548629 55.83704758582958 0 0 -1 I I #
point $-1 -75.692007202368231 -8.8375917124548629 19.547436248162942 #
straight-curve $-1 -75.692007202368231 -7.2885859289615667 14.366327902699027 0 -1 0 I I #
point $-1 -75.692007202368231 -8.8375917124548629 14.366327902699037 #
point $-1 -72.261981881200484 -18.020919945204092 15.902727674630222 #
point $-1 -72.261981881200484 -14.577171857923133 15.902727674630222 #
point $-1 -72.261981881200484 -11.133423770642167 15.902727674630222 #
straight-curve $-1 0 48.410590708313563 19.547436248162942 -1 0 0 I I #
point $-1 55.163188274645364 48.410590708313556 19.547436248162938 #
straight-curve $-1 75.692007202368231 48.410590708313563 0 0 0 -1 I I #
point $-1 75.692007202368231 48.410590708313563 19.547436248162942 #
point $-1 63.449309189115304 39.757536358406298 7.8542646674466363 #
point $-1 63.449309189115304 43.002431739621528 7.8542646674466363 #
point $-1 63.449309189115304 46.247327120836758 7.8542646674466363 #
End-of-ACIS-data 