500 0 6 0           
7 Unknown 11 ACIS 5.0 NT 24 Thu Mar 25 17:41:49 1999 
-1 9.9999999999999995e-007 1e-010 
body $-1 $6 $-1 $7 #
body $-1 $8 $-1 $9 #
body $-1 $10 $-1 $11 #
body $-1 $12 $-1 $13 #
body $-1 $14 $-1 $15 #
body $-1 $16 $-1 $17 #
lump $-1 $-1 $18 $0 #
transform $-1 1 0 0 0 1 0 0 0 1 76.266975920896016 39.068233818470773 10.274920455868269 1 rotate no_reflect no_shear #
lump $-1 $-1 $19 $1 #
transform $-1 1 0 0 0 1 0 0 0 1 76.266975920896016 39.068233818470773 10.274920455868269 1 rotate no_reflect no_shear #
lump $-1 $-1 $20 $2 #
transform $-1 1 0 0 0 1 0 0 0 1 76.266975920896016 39.068233818470773 10.274920455868269 1 rotate no_reflect no_shear #
lump $-1 $-1 $21 $3 #
transform $-1 1 0 0 0 1 0 0 0 1 76.266975920896016 39.068233818470773 10.274920455868269 1 rotate no_reflect no_shear #
lump $-1 $-1 $22 $4 #
transform $-1 1 0 0 0 1 0 0 0 1 76.266975920896016 39.068233818470773 10.274920455868269 1 rotate no_reflect no_shear #
lump $-1 $-1 $23 $5 #
transform $-1 1 0 0 0 1 0 0 0 1 76.266975920896016 39.068233818470773 10.274920455868269 1 rotate no_reflect no_shear #
shell $-1 $-1 $-1 $24 $-1 $6 #
shell $-1 $-1 $-1 $25 $-1 $8 #
shell $-1 $-1 $-1 $26 $-1 $10 #
shell $-1 $-1 $-1 $27 $-1 $12 #
shell $-1 $-1 $-1 $28 $-1 $14 #
shell $-1 $-1 $-1 $29 $-1 $16 #
face $-1 $30 $31 $18 $-1 $32 forward single #
face $-1 $33 $34 $19 $-1 $35 forward single #
face $-1 $36 $37 $20 $-1 $38 forward single #
face $-1 $39 $40 $21 $-1 $41 reversed single #
face $-1 $42 $43 $22 $-1 $44 forward single #
face $-1 $45 $46 $23 $-1 $47 forward single #
face $-1 $48 $49 $18 $-1 $50 reversed single #
loop $-1 $-1 $51 $24 #
plane-surface $-1 0 0 10.274920455868269 0 0 1 1 0 0 forward_v I I I I #
face $-1 $52 $53 $19 $-1 $54 reversed single #
loop $-1 $-1 $55 $25 #
plane-surface $-1 0 -39.068233818470773 0 0 1 0 0 0 1 forward_v I I I I #
face $-1 $56 $57 $20 $-1 $58 reversed single #
loop $-1 $-1 $59 $26 #
plane-surface $-1 0 39.068233818470773 0 0 -1 0 0 0 -1 forward_v I I I I #
face $-1 $60 $61 $21 $-1 $62 reversed single #
loop $-1 $-1 $63 $27 #
plane-surface $-1 106.28878550956804 -7.7551965780527041 214.52498052784847 0 -1 0 -0.79863551827123203 0 -0.60181501223851219 forward_v I I I I #
face $-1 $64 $65 $22 $-1 $66 forward single #
loop $-1 $67 $68 $28 #
cone-surface $-1 72.3386916616424 -12.261210687473081 5.2909160969463924 -0.79863551827123203 0 -0.60181501223851219 0.3009075061192561 0 -0.39931775913561601 1 I I 0 1 0.5 forward I I I I #
face $-1 $69 $70 $23 $-1 $71 forward single #
loop $-1 $72 $73 $29 #
cone-surface $-1 72.3386916616424 -9.5576022218208543 5.2909160969463924 -0.79863551827123203 0 -0.60181501223851219 0.3009075061192561 0 -0.39931775913561601 1 I I 0 1 0.5 forward I I I I #
face $-1 $74 $75 $18 $-1 $76 reversed single #
loop $-1 $-1 $77 $30 #
plane-surface $-1 0 0 -10.274920455868269 0 0 1 1 0 0 forward_v I I I I #
coedge $-1 $78 $79 $80 $81 forward $31 $-1 #
face $-1 $82 $83 $19 $-1 $84 reversed single #
loop $-1 $-1 $85 $33 #
plane-surface $-1 0 0 -10.274920455868269 0 0 1 1 0 0 forward_v I I I I #
coedge $-1 $86 $87 $88 $89 forward $34 $-1 #
face $-1 $90 $91 $20 $-1 $92 forward single #
loop $-1 $-1 $93 $36 #
plane-surface $-1 -76.266975920896016 0 0 1 0 0 0 0 -1 forward_v I I I I #
coedge $-1 $94 $95 $96 $97 forward $37 $-1 #
face $-1 $98 $99 $21 $-1 $100 reversed single #
loop $-1 $-1 $101 $39 #
plane-surface $-1 -15.530246173560684 -10.90940645464697 122.72775843339177 0.79863551827123203 0 0.60181501223851219 0.60181501223851219 0 -0.79863551827123203 forward_v I I I I #
coedge $-1 $102 $103 $104 $105 reversed $40 $-1 #
face $-1 $-1 $106 $22 $-1 $107 forward single #
loop $-1 $108 $109 $42 #
cone-surface $-1 71.739715022938981 -12.261210687473081 4.8395548377675084 -0.79863551827123203 0 -0.60181501223851219 0.15045375305962805 0 -0.19965887956780801 1 I I -0.70710678118654746 0.70710678118654746 0.25 forward I I I I #
loop $-1 $-1 $110 $28 #
coedge $-1 $68 $68 $111 $112 reversed $43 $-1 #
face $-1 $-1 $113 $23 $-1 $114 forward single #
loop $-1 $115 $116 $45 #
cone-surface $-1 71.739715022938981 -9.5576022218208543 4.8395548377675084 -0.79863551827123203 0 -0.60181501223851219 0.15045375305962805 0 -0.19965887956780801 1 I I -0.70710678118654746 0.70710678118654746 0.25 forward I I I I #
loop $-1 $-1 $117 $29 #
coedge $-1 $73 $73 $118 $119 reversed $46 $-1 #
face $-1 $120 $121 $18 $-1 $122 reversed single #
loop $-1 $-1 $123 $48 #
plane-surface $-1 0 -39.068233818470773 0 0 1 0 0 0 1 forward_v I I I I #
coedge $-1 $124 $125 $126 $127 forward $49 $-1 #
coedge $-1 $128 $51 $129 $130 forward $31 $-1 #
coedge $-1 $51 $128 $131 $132 forward $31 $-1 #
coedge $-1 $133 $134 $51 $81 reversed $135 $-1 #
edge $-1 $136 -39.068233818470773 $137 39.068233818470773 $80 $138 forward 7 unknown #
face $-1 $139 $140 $19 $-1 $141 forward single #
loop $-1 $-1 $142 $52 #
plane-surface $-1 76.266975920896016 0 0 -1 0 0 0 0 1 forward_v I I I I #
coedge $-1 $143 $144 $145 $146 forward $53 $-1 #
coedge $-1 $145 $55 $142 $147 reversed $34 $-1 #
coedge $-1 $55 $145 $148 $149 reversed $34 $-1 #
coedge $-1 $150 $151 $55 $89 reversed $140 $-1 #
edge $-1 $152 -76.266975920896016 $153 76.266975920896016 $88 $154 forward 7 unknown #
face $-1 $155 $156 $20 $-1 $157 reversed single #
loop $-1 $-1 $158 $56 #
plane-surface $-1 0 43.832445417643655 -5.0900790065564774 0 0 1 1 0 0 forward_v I I I I #
coedge $-1 $159 $160 $94 $161 forward $57 $-1 #
coedge $-1 $162 $59 $93 $161 reversed $37 $-1 #
coedge $-1 $59 $162 $163 $164 reversed $37 $-1 #
coedge $-1 $158 $165 $59 $97 reversed $91 $-1 #
edge $-1 $166 -76.266975920896016 $167 76.266975920896016 $96 $168 forward 7 unknown #
face $-1 $169 $170 $21 $-1 $171 forward single #
loop $-1 $-1 $172 $60 #
plane-surface $-1 106.28878550956804 -14.063616331241235 214.52498052784847 0 1 0 0.79863551827123203 0 0.60181501223851219 forward_v I I I I #
coedge $-1 $173 $174 $175 $176 reversed $61 $-1 #
coedge $-1 $103 $63 $177 $178 reversed $40 $-1 #
coedge $-1 $63 $102 $173 $179 reversed $40 $-1 #
coedge $-1 $175 $180 $63 $105 forward $170 $-1 #
edge $-1 $181 -23.122583166111994 $182 -16.064650165876031 $104 $183 forward 7 unknown #
loop $-1 $-1 $111 $64 #
plane-surface $-1 -15.530246173560684 -10.90940645464697 122.72775843339177 0.79863551827123203 0 0.60181501223851219 0.60181501223851219 0 -0.79863551827123203 forward_v I I I I #
loop $-1 $-1 $184 $42 #
coedge $-1 $109 $109 $110 $185 reversed $65 $-1 #
coedge $-1 $110 $110 $109 $185 forward $67 $-1 #
coedge $-1 $111 $111 $68 $112 forward $106 $-1 #
edge $-1 $186 0 $186 6.2831853071796004 $111 $187 forward 7 unknown #
loop $-1 $-1 $118 $69 #
plane-surface $-1 -15.530246173560684 -10.90940645464697 122.72775843339177 0.79863551827123203 0 0.60181501223851219 0.60181501223851219 0 -0.79863551827123203 forward_v I I I I #
loop $-1 $-1 $188 $45 #
coedge $-1 $116 $116 $117 $189 reversed $70 $-1 #
coedge $-1 $117 $117 $116 $189 forward $72 $-1 #
coedge $-1 $118 $118 $73 $119 forward $113 $-1 #
edge $-1 $190 0 $190 6.2831853071796004 $118 $191 forward 7 unknown #
face $-1 $192 $193 $18 $-1 $194 reversed single #
loop $-1 $-1 $195 $74 #
plane-surface $-1 -76.266975920896016 0 0 1 0 0 0 0 -1 forward_v I I I I #
coedge $-1 $196 $131 $197 $198 forward $75 $-1 #
coedge $-1 $199 $77 $196 $200 forward $49 $-1 #
coedge $-1 $77 $199 $201 $202 forward $49 $-1 #
coedge $-1 $134 $133 $77 $127 reversed $135 $-1 #
edge $-1 $203 -39.068233818470773 $204 39.068233818470773 $126 $205 forward 7 unknown #
coedge $-1 $79 $78 $206 $207 forward $31 $-1 #
coedge $-1 $208 $209 $78 $130 reversed $193 $-1 #
edge $-1 $137 -76.266975920896016 $210 76.266975920896016 $129 $211 forward 7 unknown #
coedge $-1 $123 $212 $79 $132 reversed $75 $-1 #
edge $-1 $213 -76.266975920896016 $136 76.266975920896016 $131 $214 forward 7 unknown #
coedge $-1 $126 $80 $212 $215 forward $135 $-1 #
coedge $-1 $80 $126 $208 $216 reversed $135 $-1 #
loop $-1 $-1 $133 $192 #
vertex $-1 $81 $217 #
vertex $-1 $81 $218 #
straight-curve $-1 76.266975920896016 0 10.274920455868269 0 1 0 I I #
face $-1 $219 $220 $19 $-1 $221 reversed single #
loop $-1 $-1 $151 $82 #
plane-surface $-1 0 -43.832445417643655 -5.0900790065564774 0 0 1 1 0 0 forward_v I I I I #
coedge $-1 $222 $223 $86 $147 forward $83 $-1 #
coedge $-1 $224 $85 $223 $225 forward $53 $-1 #
coedge $-1 $85 $224 $226 $227 forward $53 $-1 #
coedge $-1 $87 $86 $85 $146 reversed $34 $-1 #
edge $-1 $228 -76.266975920896016 $229 76.266975920896016 $85 $230 forward 7 unknown #
edge $-1 $229 -10.274920455868269 $153 -5.0900790065564774 $142 $231 forward 7 unknown #
coedge $-1 $226 $232 $87 $149 forward $233 $-1 #
edge $-1 $152 5.0900790065564774 $228 10.274920455868269 $148 $234 forward 7 unknown #
coedge $-1 $235 $88 $232 $236 forward $140 $-1 #
coedge $-1 $88 $235 $222 $237 forward $140 $-1 #
vertex $-1 $149 $238 #
vertex $-1 $237 $239 #
straight-curve $-1 0 -39.068233818470773 -5.0900790065564774 1 0 0 I I #
face $-1 $240 $241 $20 $-1 $242 reversed single #
loop $-1 $-1 $243 $90 #
plane-surface $-1 0 48.596657016816536 -7.6824997312123733 0 -1 0 0 0 -1 forward_v I I I I #
coedge $-1 $244 $96 $245 $246 forward $91 $-1 #
coedge $-1 $247 $93 $165 $248 reversed $57 $-1 #
coedge $-1 $93 $247 $249 $250 reversed $57 $-1 #
edge $-1 $251 -10.274920455868269 $167 -5.0900790065564774 $93 $252 forward 7 unknown #
coedge $-1 $95 $94 $253 $254 reversed $37 $-1 #
coedge $-1 $255 $245 $95 $164 forward $256 $-1 #
edge $-1 $166 5.0900790065564774 $257 10.274920455868269 $163 $258 forward 7 unknown #
coedge $-1 $96 $244 $159 $248 forward $91 $-1 #
vertex $-1 $164 $259 #
vertex $-1 $248 $260 #
straight-curve $-1 0 39.068233818470773 -5.0900790065564774 -1 0 0 I I #
face $-1 $-1 $261 $21 $-1 $262 reversed single #
loop $-1 $-1 $104 $98 #
plane-surface $-1 0 0 10.274920455868269 0 0 1 1 0 0 forward_v I I I I #
coedge $-1 $263 $264 $265 $266 reversed $99 $-1 #
coedge $-1 $267 $101 $103 $179 forward $61 $-1 #
coedge $-1 $101 $267 $263 $268 forward $61 $-1 #
coedge $-1 $265 $104 $101 $176 forward $170 $-1 #
edge $-1 $182 2.3004933507292193 $269 8.6089131039177502 $175 $270 forward 7 unknown #
coedge $-1 $271 $272 $102 $178 forward $261 $-1 #
edge $-1 $273 -106.35376351366119 $181 -96.987569808055966 $177 $274 forward 7 unknown #
edge $-1 $182 140.80620684257164 $273 152.53395184179203 $103 $275 forward 7 unknown #
coedge $-1 $104 $265 $271 $276 forward $170 $-1 #
vertex $-1 $178 $277 #
vertex $-1 $105 $278 #
straight-curve $-1 53.144392754784022 -7.7551965780527041 10.274920455868269 -1 0 0 I I #
coedge $-1 $184 $184 $-1 $279 reversed $108 $-1 #
edge $-1 $280 0 $280 6.2831853071796004 $109 $281 forward 7 unknown #
vertex $-1 $112 $282 #
ellipse-curve $-1 72.738009420778042 -12.261210687473081 5.5918236030656656 0.79863551827123203 0 0.60181501223851219 0.3009075061192561 0 -0.39931775913561601 1 I I #
coedge $-1 $188 $188 $-1 $283 reversed $115 $-1 #
edge $-1 $284 0 $284 6.2831853071796004 $116 $285 forward 7 unknown #
vertex $-1 $119 $286 #
ellipse-curve $-1 72.738009420778042 -9.5576022218208543 5.5918236030656656 0.79863551827123203 0 0.60181501223851219 0.3009075061192561 0 -0.39931775913561601 1 I I #
face $-1 $-1 $135 $18 $-1 $287 reversed single #
loop $-1 $-1 $208 $120 #
plane-surface $-1 0 39.068233818470773 0 0 -1 0 0 0 -1 forward_v I I I I #
coedge $-1 $288 $206 $209 $289 forward $121 $-1 #
coedge $-1 $212 $123 $124 $200 reversed $75 $-1 #
coedge $-1 $206 $288 $123 $198 reversed $121 $-1 #
edge $-1 $213 -10.274920455868269 $290 10.274920455868269 $197 $291 forward 7 unknown #
coedge $-1 $125 $124 $288 $292 forward $49 $-1 #
edge $-1 $204 -76.266975920896016 $290 76.266975920896016 $196 $293 forward 7 unknown #
coedge $-1 $209 $208 $125 $202 reversed $193 $-1 #
edge $-1 $294 -76.266975920896016 $203 76.266975920896016 $201 $295 forward 7 unknown #
vertex $-1 $127 $296 #
vertex $-1 $215 $297 #
straight-curve $-1 76.266975920896016 0 -10.274920455868269 0 -1 0 I I #
coedge $-1 $195 $197 $128 $207 reversed $121 $-1 #
edge $-1 $210 -39.068233818470773 $213 39.068233818470773 $206 $298 forward 7 unknown #
coedge $-1 $201 $129 $134 $216 forward $193 $-1 #
coedge $-1 $129 $201 $195 $289 reversed $193 $-1 #
vertex $-1 $130 $299 #
straight-curve $-1 0 39.068233818470773 10.274920455868269 -1 0 0 I I #
coedge $-1 $131 $196 $133 $215 reversed $75 $-1 #
vertex $-1 $207 $300 #
straight-curve $-1 0 -39.068233818470773 10.274920455868269 1 0 0 I I #
edge $-1 $136 -10.274920455868269 $204 10.274920455868269 $133 $301 forward 7 unknown #
edge $-1 $137 -10.274920455868269 $203 10.274920455868269 $134 $302 forward 7 unknown #
point $-1 76.266975920896016 -39.068233818470773 10.274920455868269 #
point $-1 76.266975920896016 39.068233818470773 10.274920455868269 #
face $-1 $-1 $233 $19 $-1 $303 reversed single #
loop $-1 $-1 $304 $139 #
plane-surface $-1 0 -48.596657016816536 -7.6824997312123733 0 1 0 0 0 1 forward_v I I I I #
coedge $-1 $305 $142 $151 $237 reversed $83 $-1 #
coedge $-1 $142 $305 $143 $225 reversed $83 $-1 #
coedge $-1 $144 $143 $306 $307 forward $53 $-1 #
edge $-1 $229 39.068233818470773 $308 48.596657016816536 $223 $309 forward 7 unknown #
coedge $-1 $310 $148 $144 $227 reversed $233 $-1 #
edge $-1 $311 -48.596657016816536 $228 -39.068233818470773 $226 $312 forward 7 unknown #
vertex $-1 $149 $313 #
vertex $-1 $225 $314 #
straight-curve $-1 0 -39.068233818470773 -10.274920455868269 1 0 0 I I #
straight-curve $-1 76.266975920896016 -39.068233818470773 0 0 0 1 I I #
coedge $-1 $148 $310 $150 $236 reversed $233 $-1 #
loop $-1 $-1 $148 $219 #
straight-curve $-1 -76.266975920896016 -39.068233818470773 0 0 0 -1 I I #
coedge $-1 $151 $150 $315 $316 forward $140 $-1 #
edge $-1 $152 -4.7642115991728815 $317 4.7642115991728815 $232 $318 forward 7 unknown #
edge $-1 $319 -4.7642115991728815 $153 4.7642115991728815 $222 $320 forward 7 unknown #
point $-1 -76.266975920896016 -39.068233818470773 -5.0900790065564774 #
point $-1 76.266975920896016 -39.068233818470773 -5.0900790065564774 #
face $-1 $-1 $256 $20 $-1 $321 reversed single #
loop $-1 $-1 $253 $155 #
plane-surface $-1 0 0 -10.274920455868269 0 0 1 1 0 0 forward_v I I I I #
coedge $-1 $322 $323 $324 $325 forward $156 $-1 #
coedge $-1 $165 $158 $323 $326 forward $91 $-1 #
coedge $-1 $163 $324 $158 $246 reversed $256 $-1 #
edge $-1 $166 -4.7642115991728815 $327 4.7642115991728815 $245 $328 forward 7 unknown #
coedge $-1 $160 $159 $329 $330 forward $57 $-1 #
edge $-1 $331 -4.7642115991728815 $167 4.7642115991728815 $159 $332 forward 7 unknown #
coedge $-1 $333 $253 $160 $250 forward $241 $-1 #
edge $-1 $251 -4.7642115991728815 $334 4.7642115991728815 $160 $335 forward 7 unknown #
vertex $-1 $250 $336 #
straight-curve $-1 -76.266975920896016 39.068233818470773 0 0 0 1 I I #
coedge $-1 $249 $337 $162 $254 forward $241 $-1 #
edge $-1 $257 -76.266975920896016 $251 76.266975920896016 $253 $338 forward 7 unknown #
coedge $-1 $324 $163 $337 $339 reversed $256 $-1 #
loop $-1 $-1 $163 $240 #
vertex $-1 $164 $340 #
straight-curve $-1 76.266975920896016 39.068233818470773 0 0 0 -1 I I #
point $-1 76.266975920896016 39.068233818470773 -5.0900790065564774 #
point $-1 -76.266975920896016 39.068233818470773 -5.0900790065564774 #
loop $-1 $-1 $177 $169 #
plane-surface $-1 76.266975920896016 0 0 -1 0 0 0 0 1 forward_v I I I I #
coedge $-1 $264 $172 $174 $268 reversed $99 $-1 #
coedge $-1 $172 $263 $341 $342 reversed $99 $-1 #
coedge $-1 $180 $175 $172 $266 forward $170 $-1 #
edge $-1 $269 16.064650165876031 $343 23.122583166111994 $265 $344 forward 7 unknown #
coedge $-1 $174 $173 $272 $345 reversed $61 $-1 #
edge $-1 $346 -152.53395184179203 $269 -140.80620684257164 $263 $347 forward 7 unknown #
vertex $-1 $176 $348 #
straight-curve $-1 69.209042920660039 -5.4547032273234848 10.274920455868269 0 -1 0 I I #
coedge $-1 $341 $177 $180 $276 reversed $261 $-1 #
coedge $-1 $177 $341 $267 $345 forward $261 $-1 #
vertex $-1 $178 $349 #
straight-curve $-1 76.266975920896016 -7.7551965780527041 107.26249026392424 0 0 1 I I #
straight-curve $-1 -15.530246173560684 -7.7551965780527041 122.72775843339177 0.60181501223851219 0 -0.79863551827123203 I I #
edge $-1 $343 -14.063616331241235 $181 -7.7551965780527041 $271 $350 forward 7 unknown #
point $-1 76.266975920896016 -7.7551965780527041 10.274920455868269 #
point $-1 69.209042920660053 -7.7551965780527041 10.274920455868269 #
edge $-1 $351 1 $351 0 $184 $-1 forward 7 unknown #
vertex $-1 $185 $352 #
ellipse-curve $-1 71.939373902506787 -12.261210687473081 4.9900085908271361 0.79863551827123203 0 0.60181501223851219 0.3009075061192561 0 -0.39931775913561601 1 I I #
point $-1 73.038916926897272 -12.261210687473081 5.1925058439300322 #
edge $-1 $353 1 $353 0 $188 $-1 forward 7 unknown #
vertex $-1 $189 $354 #
ellipse-curve $-1 71.939373902506787 -9.5576022218208543 4.9900085908271361 0.79863551827123203 0 0.60181501223851219 0.3009075061192561 0 -0.39931775913561601 1 I I #
point $-1 73.038916926897272 -9.5576022218208543 5.1925058439300322 #
plane-surface $-1 76.266975920896016 0 0 -1 0 0 0 0 1 forward_v I I I I #
coedge $-1 $197 $195 $199 $292 reversed $121 $-1 #
edge $-1 $210 -10.274920455868269 $294 10.274920455868269 $209 $355 forward 7 unknown #
vertex $-1 $292 $356 #
straight-curve $-1 -76.266975920896016 -39.068233818470773 0 0 0 -1 I I #
edge $-1 $290 -39.068233818470773 $294 39.068233818470773 $288 $357 forward 7 unknown #
straight-curve $-1 0 -39.068233818470773 -10.274920455868269 -1 0 0 I I #
vertex $-1 $202 $358 #
straight-curve $-1 0 39.068233818470773 -10.274920455868269 1 0 0 I I #
point $-1 76.266975920896016 39.068233818470773 -10.274920455868269 #
point $-1 76.266975920896016 -39.068233818470773 -10.274920455868269 #
straight-curve $-1 -76.266975920896016 0 10.274920455868269 0 -1 0 I I #
point $-1 -76.266975920896016 39.068233818470773 10.274920455868269 #
point $-1 -76.266975920896016 -39.068233818470773 10.274920455868269 #
straight-curve $-1 76.266975920896016 -39.068233818470773 0 0 0 -1 I I #
straight-curve $-1 76.266975920896016 39.068233818470773 0 0 0 -1 I I #
plane-surface $-1 -76.266975920896016 0 0 1 0 0 0 0 -1 forward_v I I I I #
coedge $-1 $306 $315 $310 $359 forward $220 $-1 #
coedge $-1 $223 $222 $360 $361 forward $83 $-1 #
coedge $-1 $360 $304 $224 $307 reversed $220 $-1 #
edge $-1 $308 -76.266975920896016 $311 76.266975920896016 $306 $362 forward 7 unknown #
vertex $-1 $361 $363 #
straight-curve $-1 76.266975920896016 0 -10.274920455868269 0 -1 0 I I #
coedge $-1 $232 $226 $304 $359 reversed $233 $-1 #
vertex $-1 $227 $364 #
straight-curve $-1 -76.266975920896016 0 -10.274920455868269 0 1 0 I I #
point $-1 -76.266975920896016 -39.068233818470773 -10.274920455868269 #
point $-1 76.266975920896016 -39.068233818470773 -10.274920455868269 #
coedge $-1 $304 $360 $235 $316 reversed $220 $-1 #
edge $-1 $317 -76.266975920896016 $319 76.266975920896016 $315 $365 forward 7 unknown #
vertex $-1 $236 $366 #
straight-curve $-1 -76.266975920896016 -43.832445417643655 -5.0900790065564774 0 -1 0 I I #
vertex $-1 $237 $367 #
straight-curve $-1 76.266975920896016 -43.832445417643655 -5.0900790065564774 0 1 0 I I #
plane-surface $-1 76.266975920896016 0 0 -1 0 0 0 0 1 forward_v I I I I #
coedge $-1 $329 $243 $333 $368 reversed $156 $-1 #
coedge $-1 $243 $329 $244 $326 reversed $156 $-1 #
coedge $-1 $245 $255 $243 $325 reversed $256 $-1 #
edge $-1 $327 -2.5924207246558959 $369 2.5924207246558959 $324 $370 forward 7 unknown #
edge $-1 $327 -76.266975920896016 $331 76.266975920896016 $323 $371 forward 7 unknown #
vertex $-1 $246 $372 #
straight-curve $-1 76.266975920896016 43.832445417643655 -5.0900790065564774 0 1 0 I I #
coedge $-1 $323 $322 $247 $330 reversed $156 $-1 #
edge $-1 $331 -2.5924207246558959 $334 2.5924207246558959 $329 $373 forward 7 unknown #
vertex $-1 $326 $374 #
straight-curve $-1 -76.266975920896016 43.832445417643655 -5.0900790065564774 0 -1 0 I I #
coedge $-1 $337 $249 $322 $368 forward $241 $-1 #
vertex $-1 $368 $375 #
straight-curve $-1 -76.266975920896016 43.832445417643655 -10.274920455868269 0 1 0 I I #
point $-1 -76.266975920896016 39.068233818470773 -10.274920455868269 #
coedge $-1 $253 $333 $255 $339 forward $241 $-1 #
straight-curve $-1 0 39.068233818470773 -10.274920455868269 -1 0 0 I I #
edge $-1 $369 -48.596657016816536 $257 -39.068233818470773 $255 $376 forward 7 unknown #
point $-1 76.266975920896016 39.068233818470773 -10.274920455868269 #
coedge $-1 $272 $271 $264 $342 forward $261 $-1 #
edge $-1 $343 96.987569808055966 $346 106.35376351366119 $341 $377 forward 7 unknown #
vertex $-1 $276 $378 #
straight-curve $-1 53.144392754784022 -14.063616331241235 10.274920455868269 1 0 0 I I #
edge $-1 $346 -8.6089131039177502 $273 -2.3004933507292193 $272 $379 forward 7 unknown #
vertex $-1 $345 $380 #
straight-curve $-1 -15.530246173560684 -14.063616331241235 122.72775843339177 -0.60181501223851219 0 0.79863551827123203 I I #
point $-1 69.209042920660053 -14.063616331241235 10.274920455868269 #
point $-1 76.266975920896016 -7.7551965780527041 0.9087267502630425 #
straight-curve $-1 76.266975920896016 0 10.274920455868269 0 1 0 I I #
vertex $-1 $279 $381 #
point $-1 72.240281408626046 -12.261210687473081 4.5906908316915205 #
vertex $-1 $283 $382 #
point $-1 72.240281408626046 -9.5576022218208543 4.5906908316915205 #
straight-curve $-1 -76.266975920896016 39.068233818470773 0 0 0 -1 I I #
point $-1 -76.266975920896016 -39.068233818470773 -10.274920455868269 #
straight-curve $-1 -76.266975920896016 0 -10.274920455868269 0 1 0 I I #
point $-1 -76.266975920896016 39.068233818470773 -10.274920455868269 #
edge $-1 $317 -2.5924207246558959 $311 2.5924207246558959 $310 $383 forward 7 unknown #
coedge $-1 $315 $306 $305 $361 reversed $220 $-1 #
edge $-1 $319 -2.5924207246558959 $308 2.5924207246558959 $305 $384 forward 7 unknown #
straight-curve $-1 0 -48.596657016816536 -10.274920455868269 -1 0 0 I I #
point $-1 76.266975920896016 -48.596657016816536 -10.274920455868269 #
point $-1 -76.266975920896016 -48.596657016816536 -10.274920455868269 #
straight-curve $-1 0 -48.596657016816536 -5.0900790065564774 1 0 0 I I #
point $-1 -76.266975920896016 -48.596657016816536 -5.0900790065564774 #
point $-1 76.266975920896016 -48.596657016816536 -5.0900790065564774 #
edge $-1 $334 -76.266975920896016 $369 76.266975920896016 $322 $385 forward 7 unknown #
vertex $-1 $339 $386 #
straight-curve $-1 76.266975920896016 48.596657016816536 -7.6824997312123733 0 0 -1 I I #
straight-curve $-1 0 48.596657016816536 -5.0900790065564774 -1 0 0 I I #
point $-1 76.266975920896016 48.596657016816536 -5.0900790065564774 #
straight-curve $-1 -76.266975920896016 48.596657016816536 -7.6824997312123733 0 0 -1 I I #
point $-1 -76.266975920896016 48.596657016816536 -5.0900790065564774 #
point $-1 -76.266975920896016 48.596657016816536 -10.274920455868269 #
straight-curve $-1 76.266975920896016 0 -10.274920455868269 0 -1 0 I I #
straight-curve $-1 76.266975920896016 -14.063616331241235 107.26249026392424 0 0 -1 I I #
point $-1 76.266975920896016 -14.063616331241235 10.274920455868269 #
straight-curve $-1 76.266975920896016 -5.4547032273234848 0.90872675026304961 0 1 0 I I #
point $-1 76.266975920896016 -14.063616331241235 0.9087267502630425 #
point $-1 71.540056143371174 -12.261210687473081 4.6891010847078807 #
point $-1 71.540056143371174 -9.5576022218208543 4.6891010847078807 #
straight-curve $-1 -76.266975920896016 -48.596657016816536 -7.6824997312123733 0 0 -1 I I #
straight-curve $-1 76.266975920896016 -48.596657016816536 -7.6824997312123733 0 0 -1 I I #
straight-curve $-1 0 48.596657016816536 -10.274920455868269 1 0 0 I I #
point $-1 76.266975920896016 48.596657016816536 -10.274920455868269 #
End-of-ACIS-data 