500 0 4 0           
7 Unknown 11 ACIS 5.0 NT 24 Fri Mar 26 01:27:45 1999 
-1 9.9999999999999995e-007 1e-010 
body $-1 $4 $-1 $5 #
body $-1 $6 $-1 $7 #
body $-1 $8 $-1 $9 #
body $-1 $10 $-1 $11 #
lump $-1 $-1 $12 $0 #
transform $-1 1 0 0 0 1 0 0 0 1 41.555223242896815 17.710968800206036 4.062382864119038 1 rotate no_reflect no_shear #
lump $-1 $-1 $13 $1 #
transform $-1 1 0 0 0 1 0 0 0 1 41.555223242896815 17.710968800206036 4.062382864119038 1 rotate no_reflect no_shear #
lump $-1 $-1 $14 $2 #
transform $-1 1 0 0 0 1 0 0 0 1 41.555223242896815 17.710968800206036 4.062382864119038 1 rotate no_reflect no_shear #
lump $-1 $-1 $15 $3 #
transform $-1 1 0 0 0 1 0 0 0 1 41.555223242896815 17.710968800206036 4.062382864119038 1 rotate no_reflect no_shear #
shell $-1 $-1 $-1 $16 $-1 $4 #
shell $-1 $-1 $-1 $17 $-1 $6 #
shell $-1 $-1 $-1 $18 $-1 $8 #
shell $-1 $-1 $-1 $19 $-1 $10 #
face $-1 $20 $21 $12 $-1 $22 forward single #
face $-1 $23 $24 $13 $-1 $25 forward single #
face $-1 $26 $27 $14 $-1 $28 forward single #
face $-1 $29 $30 $15 $-1 $31 reversed single #
face $-1 $32 $33 $12 $-1 $34 reversed single #
loop $-1 $-1 $35 $16 #
plane-surface $-1 0 0 4.062382864119038 0 0 1 1 0 0 forward_v I I I I #
face $-1 $36 $37 $13 $-1 $38 reversed single #
loop $-1 $-1 $39 $17 #
plane-surface $-1 -44.047747486988094 0 2.8060199656255396 0 0 1 1 0 0 forward_v I I I I #
face $-1 $40 $41 $14 $-1 $42 forward single #
loop $-1 $-1 $43 $18 #
plane-surface $-1 -12.885080809206436 -64.185741283364905 69.28942118320019 -1 0 0 0 -0.55919291073839883 0.82903756765294845 forward_v I I I I #
face $-1 $44 $45 $15 $-1 $46 reversed single #
loop $-1 $47 $48 $19 #
cone-surface $-1 -18.614602512693459 -13.813727819579007 0.48557342443343776 0 0.55919291073839883 -0.82903756765294845 1.5 0 0 1 I I 0 1 1.5 forward I I I I #
face $-1 $49 $50 $12 $-1 $51 reversed single #
loop $-1 $-1 $52 $20 #
plane-surface $-1 0 0 -4.062382864119038 0 0 1 1 0 0 forward_v I I I I #
coedge $-1 $53 $54 $55 $56 forward $21 $-1 #
face $-1 $57 $58 $13 $-1 $59 reversed single #
loop $-1 $-1 $60 $23 #
plane-surface $-1 -44.047747486988094 0 -0.19398003437446043 0 0 1 1 0 0 forward_v I I I I #
coedge $-1 $61 $62 $63 $64 reversed $24 $-1 #
face $-1 $65 $66 $14 $-1 $67 forward single #
loop $-1 $-1 $68 $26 #
plane-surface $-1 -18.614602512693459 -17.710968800206032 0.38773878206730217 0 -0.55919291073839883 0.82903756765294845 1 0 0 forward_v I I I I #
coedge $-1 $69 $70 $71 $72 reversed $27 $-1 #
face $-1 $73 $74 $15 $-1 $75 forward single #
loop $-1 $76 $77 $29 #
cone-surface $-1 -18.614602512693459 -12.221034049002435 -1.8756921499660102 0 0.55919291073839883 -0.82903756765294845 0.75 0 0 1 I I -0.70710678118654757 0.70710678118654757 0.75 forward I I I I #
loop $-1 $-1 $78 $19 #
coedge $-1 $48 $48 $79 $80 reversed $30 $-1 #
face $-1 $81 $82 $12 $-1 $83 reversed single #
loop $-1 $-1 $84 $32 #
plane-surface $-1 0 -17.710968800206036 0 0 1 0 0 0 1 forward_v I I I I #
coedge $-1 $85 $86 $87 $88 forward $33 $-1 #
coedge $-1 $89 $35 $90 $91 forward $21 $-1 #
coedge $-1 $35 $89 $92 $93 forward $21 $-1 #
coedge $-1 $94 $95 $35 $56 reversed $96 $-1 #
edge $-1 $97 -17.710968800206036 $98 17.710968800206036 $55 $99 forward 7 unknown #
face $-1 $100 $101 $13 $-1 $102 reversed single #
loop $-1 $-1 $103 $36 #
plane-surface $-1 -46.540271731079372 0 1.3060199656255396 1 0 0 0 0 -1 forward_v I I I I #
coedge $-1 $104 $105 $106 $107 reversed $37 $-1 #
coedge $-1 $108 $39 $109 $110 forward $24 $-1 #
coedge $-1 $39 $108 $111 $112 forward $24 $-1 #
coedge $-1 $113 $114 $39 $64 forward $115 $-1 #
edge $-1 $116 -17.710968800206036 $117 17.710968800206036 $63 $118 forward 7 unknown #
face $-1 $119 $120 $14 $-1 $121 forward single #
loop $-1 $-1 $122 $40 #
plane-surface $-1 -24.344124216180482 -64.185741283364905 69.28942118320019 1 0 0 0 0.55919291073839883 -0.82903756765294845 forward_v I I I I #
coedge $-1 $123 $124 $125 $126 reversed $41 $-1 #
coedge $-1 $70 $43 $124 $127 forward $27 $-1 #
coedge $-1 $43 $69 $128 $129 reversed $27 $-1 #
coedge $-1 $130 $125 $43 $72 forward $120 $-1 #
edge $-1 $131 -19.829785627684942 $132 -14.381901841476417 $71 $133 forward 7 unknown #
face $-1 $134 $135 $15 $-1 $136 forward single #
loop $-1 $-1 $137 $44 #
plane-surface $-1 -12.885080809206436 -64.185741283364905 69.28942118320019 -1 0 0 0 -0.55919291073839883 0.82903756765294845 forward_v I I I I #
loop $-1 $-1 $138 $29 #
coedge $-1 $77 $77 $78 $139 forward $45 $-1 #
coedge $-1 $78 $78 $77 $139 reversed $47 $-1 #
coedge $-1 $79 $79 $48 $80 forward $135 $-1 #
edge $-1 $140 -3.4645347762739991e-017 $140 6.2831853071796004 $79 $141 forward 7 unknown #
face $-1 $142 $143 $12 $-1 $144 reversed single #
loop $-1 $-1 $145 $49 #
plane-surface $-1 -41.555223242896815 0 0 1 0 0 0 0 -1 forward_v I I I I #
coedge $-1 $146 $92 $147 $148 forward $50 $-1 #
coedge $-1 $149 $52 $146 $150 forward $33 $-1 #
coedge $-1 $52 $149 $151 $152 forward $33 $-1 #
coedge $-1 $95 $94 $52 $88 reversed $96 $-1 #
edge $-1 $153 -17.710968800206036 $154 17.710968800206036 $87 $155 forward 7 unknown #
coedge $-1 $54 $53 $156 $157 forward $21 $-1 #
coedge $-1 $158 $159 $53 $91 reversed $143 $-1 #
edge $-1 $98 -41.555223242896815 $160 41.555223242896815 $90 $161 forward 7 unknown #
coedge $-1 $84 $162 $54 $93 reversed $50 $-1 #
edge $-1 $163 -41.555223242896815 $97 41.555223242896815 $92 $164 forward 7 unknown #
coedge $-1 $87 $55 $162 $165 forward $96 $-1 #
coedge $-1 $55 $87 $158 $166 reversed $96 $-1 #
loop $-1 $-1 $94 $142 #
vertex $-1 $56 $167 #
vertex $-1 $56 $168 #
straight-curve $-1 41.555223242896815 0 4.062382864119038 0 1 0 I I #
face $-1 $169 $115 $13 $-1 $102 reversed single #
loop $-1 $-1 $106 $57 #
plane-surface $-1 -41.555223242896815 0 0 1 0 0 0 0 -1 forward_v I I I I #
coedge $-1 $170 $171 $172 $173 forward $58 $-1 #
coedge $-1 $174 $60 $175 $176 forward $37 $-1 #
coedge $-1 $60 $174 $177 $178 forward $37 $-1 #
coedge $-1 $179 $180 $60 $107 forward $101 $-1 #
edge $-1 $181 -17.710968800206036 $182 17.710968800206036 $106 $183 forward 7 unknown #
coedge $-1 $62 $61 $171 $184 forward $24 $-1 #
coedge $-1 $185 $172 $61 $110 reversed $186 $-1 #
edge $-1 $116 -2.4925242440912783 $187 2.4925242440912783 $109 $188 forward 7 unknown #
coedge $-1 $189 $190 $62 $112 reversed $191 $-1 #
edge $-1 $192 -2.4925242440912783 $117 2.4925242440912783 $111 $193 forward 7 unknown #
coedge $-1 $194 $63 $190 $195 reversed $115 $-1 #
coedge $-1 $63 $194 $185 $196 forward $115 $-1 #
loop $-1 $-1 $63 $100 #
vertex $-1 $196 $197 #
vertex $-1 $112 $198 #
straight-curve $-1 -41.555223242896815 0 2.8060199656255396 0 -1 0 I I #
face $-1 $199 $200 $14 $-1 $201 forward single #
loop $-1 $-1 $202 $65 #
plane-surface $-1 0 0 4.062382864119038 0 0 1 1 0 0 forward_v I I I I #
coedge $-1 $203 $204 $202 $205 reversed $66 $-1 #
coedge $-1 $206 $68 $204 $207 reversed $41 $-1 #
coedge $-1 $68 $206 $69 $127 reversed $41 $-1 #
coedge $-1 $71 $202 $68 $126 forward $120 $-1 #
edge $-1 $208 -15.036822959833753 $131 -3.5777795528597061 $125 $209 forward 7 unknown #
edge $-1 $131 -6.5713352431443894 $210 4.2801151229643262e-015 $69 $211 forward 7 unknown #
coedge $-1 $212 $213 $70 $129 forward $214 $-1 #
edge $-1 $132 30.582327727481058 $210 34.256971809532793 $128 $215 forward 7 unknown #
coedge $-1 $216 $71 $213 $217 forward $120 $-1 #
vertex $-1 $126 $218 #
vertex $-1 $217 $219 #
straight-curve $-1 -12.885080809206436 -32.092870641682453 4.0623828641190372 0 -1 0 I I #
face $-1 $220 $221 $15 $-1 $222 forward single #
loop $-1 $223 $79 $73 #
plane-surface $-1 -18.614602512693459 -17.710968800206032 0.38773878206730217 0 -0.55919291073839883 0.82903756765294845 1 0 0 forward_v I I I I #
coedge $-1 $224 $225 $226 $227 reversed $74 $-1 #
coedge $-1 $138 $138 $-1 $228 forward $76 $-1 #
edge $-1 $229 0 $229 6.2831853071796004 $77 $230 forward 7 unknown #
vertex $-1 $80 $231 #
ellipse-curve $-1 -18.614602512693459 -14.987026907101775 2.225060823093167 0 0.55919291073839883 -0.82903756765294845 1.5 0 0 1 I I #
face $-1 $-1 $96 $12 $-1 $232 reversed single #
loop $-1 $-1 $158 $81 #
plane-surface $-1 0 17.710968800206036 0 0 -1 0 0 0 -1 forward_v I I I I #
coedge $-1 $233 $156 $159 $234 forward $82 $-1 #
coedge $-1 $162 $84 $85 $150 reversed $50 $-1 #
coedge $-1 $156 $233 $84 $148 reversed $82 $-1 #
edge $-1 $163 -4.062382864119038 $235 4.062382864119038 $147 $236 forward 7 unknown #
coedge $-1 $86 $85 $233 $237 forward $33 $-1 #
edge $-1 $154 -41.555223242896815 $235 41.555223242896815 $146 $238 forward 7 unknown #
coedge $-1 $159 $158 $86 $152 reversed $143 $-1 #
edge $-1 $239 -41.555223242896815 $153 41.555223242896815 $151 $240 forward 7 unknown #
vertex $-1 $88 $241 #
vertex $-1 $165 $242 #
straight-curve $-1 41.555223242896815 0 -4.062382864119038 0 -1 0 I I #
coedge $-1 $145 $147 $89 $157 reversed $82 $-1 #
edge $-1 $160 -17.710968800206036 $163 17.710968800206036 $156 $243 forward 7 unknown #
coedge $-1 $151 $90 $95 $166 forward $143 $-1 #
coedge $-1 $90 $151 $145 $234 reversed $143 $-1 #
vertex $-1 $91 $244 #
straight-curve $-1 0 17.710968800206036 4.062382864119038 -1 0 0 I I #
coedge $-1 $92 $146 $94 $165 reversed $50 $-1 #
vertex $-1 $157 $245 #
straight-curve $-1 0 -17.710968800206036 4.062382864119038 1 0 0 I I #
edge $-1 $97 -4.062382864119038 $154 4.062382864119038 $94 $246 forward 7 unknown #
edge $-1 $98 -4.062382864119038 $153 4.062382864119038 $95 $247 forward 7 unknown #
point $-1 41.555223242896815 -17.710968800206036 4.062382864119038 #
point $-1 41.555223242896815 17.710968800206036 4.062382864119038 #
face $-1 $248 $249 $13 $-1 $250 forward single #
coedge $-1 $251 $103 $174 $252 reversed $58 $-1 #
coedge $-1 $103 $251 $108 $184 reversed $58 $-1 #
coedge $-1 $109 $177 $103 $173 reversed $186 $-1 #
edge $-1 $187 -1.5 $253 1.5 $172 $254 forward 7 unknown #
coedge $-1 $105 $104 $170 $252 forward $37 $-1 #
coedge $-1 $255 $189 $104 $176 reversed $191 $-1 #
edge $-1 $181 -2.4925242440912783 $256 2.4925242440912783 $175 $257 forward 7 unknown #
coedge $-1 $172 $258 $105 $178 reversed $186 $-1 #
edge $-1 $253 -2.4925242440912783 $182 2.4925242440912783 $177 $259 forward 7 unknown #
coedge $-1 $260 $106 $258 $261 forward $101 $-1 #
coedge $-1 $106 $260 $255 $262 reversed $101 $-1 #
vertex $-1 $262 $263 #
vertex $-1 $261 $264 #
straight-curve $-1 -41.555223242896815 0 -0.19398003437446043 0 1 0 I I #
edge $-1 $187 -17.710968800206036 $192 17.710968800206036 $171 $265 forward 7 unknown #
coedge $-1 $266 $109 $114 $196 reversed $186 $-1 #
loop $-1 $-1 $267 $268 #
vertex $-1 $110 $269 #
straight-curve $-1 -44.047747486988094 17.710968800206036 2.8060199656255396 -1 0 0 I I #
coedge $-1 $175 $111 $251 $270 forward $191 $-1 #
coedge $-1 $111 $271 $113 $195 forward $191 $-1 #
loop $-1 $-1 $190 $272 #
vertex $-1 $184 $273 #
straight-curve $-1 -44.047747486988094 -17.710968800206036 2.8060199656255396 1 0 0 I I #
coedge $-1 $114 $113 $274 $275 reversed $115 $-1 #
edge $-1 $276 -4.062382864119038 $117 -2.8060199656255396 $113 $277 forward 7 unknown #
edge $-1 $278 -4.062382864119038 $116 -2.8060199656255396 $185 $279 forward 7 unknown #
point $-1 -41.555223242896815 17.710968800206036 2.8060199656255396 #
point $-1 -41.555223242896815 -17.710968800206036 2.8060199656255396 #
face $-1 $280 $281 $14 $-1 $282 reversed single #
loop $-1 $-1 $283 $119 #
plane-surface $-1 -44.047747486988094 0 2.8060199656255396 0 0 1 1 0 0 forward_v I I I I #
coedge $-1 $125 $284 $122 $205 forward $120 $-1 #
coedge $-1 $204 $122 $285 $286 reversed $66 $-1 #
coedge $-1 $122 $203 $123 $207 forward $66 $-1 #
edge $-1 $287 14.381901841476417 $208 19.829785627684942 $202 $288 forward 7 unknown #
coedge $-1 $124 $123 $212 $289 reversed $41 $-1 #
edge $-1 $290 -4.2801151229643262e-015 $208 6.5713352431443894 $204 $291 forward 7 unknown #
vertex $-1 $126 $292 #
straight-curve $-1 -9.3073012563467294 -12.263085013997509 4.062382864119038 1 0 0 I I #
vertex $-1 $289 $293 #
straight-curve $-1 -12.885080809206436 -17.710968800206032 0.38773878206730217 0 -0.82903756765294845 -0.55919291073839883 I I #
coedge $-1 $285 $128 $206 $289 forward $214 $-1 #
coedge $-1 $128 $294 $130 $217 reversed $214 $-1 #
loop $-1 $-1 $285 $295 #
straight-curve $-1 -12.885080809206436 -17.710968800206036 34.644710591600095 0 0 -1 I I #
coedge $-1 $296 $130 $297 $298 forward $120 $-1 #
edge $-1 $132 -12.885080809206436 $299 41.555223242896815 $213 $300 forward 7 unknown #
point $-1 -12.885080809206436 -12.263085013997511 4.062382864119038 #
point $-1 -12.885080809206436 -17.710968800206036 4.062382864119038 #
face $-1 $301 $302 $15 $-1 $303 forward single #
loop $-1 $-1 $304 $134 #
plane-surface $-1 -24.344124216180482 -64.185741283364905 69.28942118320019 1 0 0 0 0.55919291073839883 -0.82903756765294845 forward_v I I I I #
loop $-1 $-1 $305 $73 #
coedge $-1 $225 $137 $306 $307 forward $74 $-1 #
coedge $-1 $137 $224 $308 $309 reversed $74 $-1 #
coedge $-1 $310 $311 $137 $227 forward $302 $-1 #
edge $-1 $312 -19.829785627684942 $313 -14.381901841476417 $226 $314 forward 7 unknown #
edge $-1 $315 1 $315 0 $138 $-1 forward 7 unknown #
vertex $-1 $139 $316 #
ellipse-curve $-1 -18.614602512693459 -12.640428732056234 -1.2539139742262988 0 -0.55919291073839883 0.82903756765294845 1.5 0 0 1 I I #
point $-1 -17.114602512693459 -14.987026907101781 2.225060823093175 #
plane-surface $-1 41.555223242896815 0 0 -1 0 0 0 0 1 forward_v I I I I #
coedge $-1 $147 $145 $149 $237 reversed $82 $-1 #
edge $-1 $160 -4.062382864119038 $239 4.062382864119038 $159 $317 forward 7 unknown #
vertex $-1 $237 $318 #
straight-curve $-1 -41.555223242896815 -17.710968800206036 0 0 0 -1 I I #
edge $-1 $235 -17.710968800206036 $239 17.710968800206036 $233 $319 forward 7 unknown #
straight-curve $-1 0 -17.710968800206036 -4.062382864119038 -1 0 0 I I #
vertex $-1 $152 $320 #
straight-curve $-1 0 17.710968800206036 -4.062382864119038 1 0 0 I I #
point $-1 41.555223242896815 17.710968800206036 -4.062382864119038 #
point $-1 41.555223242896815 -17.710968800206036 -4.062382864119038 #
straight-curve $-1 -41.555223242896815 0 4.062382864119038 0 -1 0 I I #
point $-1 -41.555223242896815 17.710968800206036 4.062382864119038 #
point $-1 -41.555223242896815 -17.710968800206036 4.062382864119038 #
straight-curve $-1 41.555223242896815 -17.710968800206036 0 0 0 -1 I I #
straight-curve $-1 41.555223242896815 17.710968800206036 0 0 0 -1 I I #
face $-1 $272 $321 $13 $-1 $322 reversed single #
loop $-1 $-1 $323 $169 #
plane-surface $-1 0 0 4.062382864119038 0 0 1 1 0 0 forward_v I I I I #
coedge $-1 $171 $170 $189 $270 reversed $58 $-1 #
edge $-1 $256 -17.710968800206036 $253 17.710968800206036 $170 $324 forward 7 unknown #
vertex $-1 $178 $325 #
straight-curve $-1 -46.540271731079372 17.710968800206036 1.3060199656255396 0 0 -1 I I #
coedge $-1 $326 $175 $180 $262 forward $191 $-1 #
vertex $-1 $252 $327 #
straight-curve $-1 -44.047747486988094 -17.710968800206036 -0.19398003437446043 -1 0 0 I I #
coedge $-1 $177 $328 $179 $261 reversed $186 $-1 #
straight-curve $-1 -44.047747486988094 17.710968800206036 -0.19398003437446043 1 0 0 I I #
coedge $-1 $180 $179 $329 $330 reversed $101 $-1 #
edge $-1 $182 0.19398003437446043 $331 4.062382864119038 $258 $279 forward 7 unknown #
edge $-1 $181 0.19398003437446043 $332 4.062382864119038 $180 $277 forward 7 unknown #
point $-1 -41.555223242896815 -17.710968800206036 -0.19398003437446043 #
point $-1 -41.555223242896815 17.710968800206036 -0.19398003437446043 #
straight-curve $-1 -46.540271731079372 0 2.8060199656255396 0 -1 0 I I #
coedge $-1 $267 $185 $333 $334 reversed $186 $-1 #
coedge $-1 $328 $266 $335 $336 forward $186 $-1 #
face $-1 $337 $186 $13 $-1 $338 reversed single #
point $-1 -46.540271731079372 17.710968800206036 2.8060199656255396 #
edge $-1 $192 -1.5 $256 1.5 $251 $339 forward 7 unknown #
coedge $-1 $190 $340 $341 $342 reversed $191 $-1 #
face $-1 $268 $191 $13 $-1 $343 reversed single #
point $-1 -46.540271731079372 -17.710968800206036 2.8060199656255396 #
coedge $-1 $341 $333 $194 $275 forward $249 $-1 #
edge $-1 $278 -17.710968800206036 $276 17.710968800206036 $194 $344 forward 7 unknown #
vertex $-1 $275 $345 #
straight-curve $-1 -41.555223242896815 -17.710968800206036 0 0 0 -1 I I #
vertex $-1 $334 $346 #
straight-curve $-1 -41.555223242896815 17.710968800206036 0 0 0 -1 I I #
face $-1 $347 $348 $14 $-1 $349 reversed single #
loop $-1 $-1 $350 $199 #
plane-surface $-1 -44.047747486988094 0 -0.19398003437446043 0 0 1 1 0 0 forward_v I I I I #
coedge $-1 $351 $352 $353 $354 reversed $200 $-1 #
coedge $-1 $202 $355 $356 $357 forward $120 $-1 #
coedge $-1 $356 $212 $203 $286 forward $214 $-1 #
edge $-1 $290 -34.256971809532793 $287 -30.582327727481058 $285 $358 forward 7 unknown #
vertex $-1 $286 $359 #
straight-curve $-1 -24.344124216180482 -32.092870641682453 4.0623828641190372 0 1 0 I I #
edge $-1 $210 3.5777795528597061 $290 15.036822959833753 $212 $360 forward 7 unknown #
vertex $-1 $289 $361 #
straight-curve $-1 -24.344124216180482 -17.710968800206032 0.38773878206730217 0 0.82903756765294845 0.55919291073839883 I I #
point $-1 -24.344124216180482 -12.263085013997511 4.062382864119038 #
point $-1 -12.885080809206436 -17.710968800206036 0.38773878206729978 #
coedge $-1 $213 $362 $363 $364 reversed $214 $-1 #
face $-1 $365 $214 $14 $-1 $366 reversed single #
coedge $-1 $355 $216 $367 $368 forward $120 $-1 #
coedge $-1 $363 $369 $216 $298 reversed $370 $-1 #
edge $-1 $299 -17.710968800206036 $371 17.710968800206036 $297 $372 forward 7 unknown #
vertex $-1 $298 $373 #
straight-curve $-1 0 -17.710968800206036 4.062382864119038 1 0 0 I I #
face $-1 $374 $375 $15 $-1 $376 forward single #
loop $-1 $-1 $377 $220 #
plane-surface $-1 0 0 4.062382864119038 0 0 1 1 0 0 forward_v I I I I #
coedge $-1 $378 $379 $377 $380 reversed $221 $-1 #
coedge $-1 $381 $306 $311 $382 reversed $223 $-1 #
coedge $-1 $305 $383 $224 $307 reversed $223 $-1 #
edge $-1 $312 -6.5713352431443894 $384 4.2801151229643262e-015 $224 $385 forward 7 unknown #
coedge $-1 $386 $387 $225 $309 forward $388 $-1 #
edge $-1 $313 30.582327727481058 $384 34.256971809532793 $308 $389 forward 7 unknown #
coedge $-1 $390 $226 $387 $391 forward $302 $-1 #
coedge $-1 $226 $377 $305 $382 forward $302 $-1 #
vertex $-1 $382 $392 #
vertex $-1 $391 $393 #
straight-curve $-1 -12.885080809206436 -32.092870641682453 4.0623828641190372 0 -1 0 I I #
vertex $-1 $228 $394 #
point $-1 -17.114602512693459 -12.640428732056234 -1.2539139742262988 #
straight-curve $-1 -41.555223242896815 17.710968800206036 0 0 0 -1 I I #
point $-1 -41.555223242896815 -17.710968800206036 -4.062382864119038 #
straight-curve $-1 -41.555223242896815 0 -4.062382864119038 0 1 0 I I #
point $-1 -41.555223242896815 17.710968800206036 -4.062382864119038 #
loop $-1 $-1 $395 $248 #
plane-surface $-1 0 0 -4.062382864119038 0 0 1 1 0 0 forward_v I I I I #
coedge $-1 $333 $341 $396 $397 forward $249 $-1 #
straight-curve $-1 -46.540271731079372 0 -0.19398003437446043 0 1 0 I I #
point $-1 -46.540271731079372 17.710968800206036 -0.19398003437446043 #
coedge $-1 $340 $255 $398 $399 reversed $191 $-1 #
point $-1 -46.540271731079372 -17.710968800206036 -0.19398003437446043 #
coedge $-1 $258 $267 $400 $401 reversed $186 $-1 #
coedge $-1 $400 $398 $260 $330 forward $321 $-1 #
edge $-1 $332 -17.710968800206036 $331 17.710968800206036 $260 $402 forward 7 unknown #
vertex $-1 $401 $403 #
vertex $-1 $330 $404 #
coedge $-1 $274 $323 $266 $334 forward $249 $-1 #
edge $-1 $405 -41.555223242896815 $278 41.555223242896815 $266 $406 forward 7 unknown #
coedge $-1 $396 $407 $267 $336 reversed $408 $-1 #
edge $-1 $405 -4.062382864119038 $409 4.062382864119038 $335 $410 forward 7 unknown #
face $-1 $-1 $408 $13 $-1 $411 reversed single #
plane-surface $-1 0 17.710968800206036 0 0 -1 0 0 0 -1 forward_v I I I I #
straight-curve $-1 -46.540271731079372 -17.710968800206036 1.3060199656255396 0 0 -1 I I #
coedge $-1 $271 $326 $412 $413 reversed $191 $-1 #
coedge $-1 $323 $274 $271 $342 forward $249 $-1 #
edge $-1 $276 -41.555223242896815 $414 41.555223242896815 $271 $415 forward 7 unknown #
plane-surface $-1 0 -17.710968800206036 0 0 1 0 0 0 1 forward_v I I I I #
straight-curve $-1 -41.555223242896815 0 4.062382864119038 0 -1 0 I I #
point $-1 -41.555223242896815 -17.710968800206036 4.062382864119038 #
point $-1 -41.555223242896815 17.710968800206036 4.062382864119038 #
face $-1 $416 $417 $14 $-1 $418 reversed single #
loop $-1 $-1 $419 $280 #
plane-surface $-1 -46.540271731079372 0 1.3060199656255396 1 0 0 0 0 -1 forward_v I I I I #
coedge $-1 $420 $421 $422 $423 reversed $281 $-1 #
coedge $-1 $424 $283 $425 $426 forward $200 $-1 #
coedge $-1 $283 $424 $427 $428 forward $200 $-1 #
coedge $-1 $429 $430 $283 $354 forward $431 $-1 #
edge $-1 $432 -17.710968800206036 $433 17.710968800206036 $353 $434 forward 7 unknown #
coedge $-1 $284 $296 $435 $436 forward $120 $-1 #
coedge $-1 $437 $285 $284 $357 reversed $214 $-1 #
edge $-1 $438 -41.555223242896815 $287 -24.344124216180482 $356 $300 forward 7 unknown #
straight-curve $-1 -24.344124216180482 -17.710968800206036 34.644710591600095 0 0 1 I I #
point $-1 -24.344124216180482 -17.710968800206036 4.062382864119038 #
straight-curve $-1 -9.3073012563467294 -17.710968800206036 0.38773878206729784 -1 0 0 I I #
point $-1 -24.344124216180482 -17.710968800206036 0.38773878206729978 #
coedge $-1 $294 $439 $440 $441 reversed $214 $-1 #
coedge $-1 $442 $297 $294 $364 forward $370 $-1 #
edge $-1 $299 -4.062382864119038 $443 4.062382864119038 $363 $444 forward 7 unknown #
face $-1 $445 $446 $14 $-1 $447 reversed single #
plane-surface $-1 0 -17.710968800206036 0 0 1 0 0 0 1 forward_v I I I I #
coedge $-1 $448 $449 $296 $368 reversed $446 $-1 #
edge $-1 $371 -41.555223242896815 $450 41.555223242896815 $367 $451 forward 7 unknown #
coedge $-1 $297 $442 $448 $452 reversed $370 $-1 #
loop $-1 $-1 $363 $445 #
vertex $-1 $298 $453 #
straight-curve $-1 41.555223242896815 0 4.062382864119038 0 1 0 I I #
point $-1 41.555223242896815 -17.710968800206036 4.062382864119038 #
face $-1 $454 $455 $15 $-1 $456 reversed single #
loop $-1 $-1 $457 $301 #
plane-surface $-1 -44.047747486988094 0 2.8060199656255396 0 0 1 1 0 0 forward_v I I I I #
coedge $-1 $311 $458 $304 $380 forward $302 $-1 #
coedge $-1 $379 $304 $459 $460 reversed $221 $-1 #
coedge $-1 $304 $378 $381 $461 forward $221 $-1 #
edge $-1 $462 14.381901841476417 $463 19.829785627684942 $377 $464 forward 7 unknown #
coedge $-1 $383 $305 $379 $461 reversed $223 $-1 #
edge $-1 $463 -15.036822959833753 $312 -3.5777795528597061 $311 $465 forward 7 unknown #
coedge $-1 $306 $381 $386 $466 reversed $223 $-1 #
vertex $-1 $466 $467 #
straight-curve $-1 -12.885080809206436 -17.710968800206032 0.38773878206730217 0 -0.82903756765294845 -0.55919291073839883 I I #
coedge $-1 $459 $308 $383 $466 forward $388 $-1 #
coedge $-1 $308 $468 $310 $391 reversed $388 $-1 #
loop $-1 $-1 $459 $469 #
straight-curve $-1 -12.885080809206436 -17.710968800206036 34.644710591600095 0 0 -1 I I #
coedge $-1 $470 $310 $471 $472 forward $302 $-1 #
edge $-1 $313 -12.885080809206436 $473 41.555223242896815 $387 $474 forward 7 unknown #
point $-1 -12.885080809206436 -12.263085013997511 4.062382864119038 #
point $-1 -12.885080809206436 -17.710968800206036 4.062382864119038 #
point $-1 -18.614602512693459 -11.801639365948636 -2.4974703257057218 #
coedge $-1 $398 $400 $407 $475 forward $321 $-1 #
coedge $-1 $412 $335 $323 $397 reversed $408 $-1 #
edge $-1 $414 -17.710968800206036 $405 17.710968800206036 $396 $476 forward 7 unknown #
coedge $-1 $329 $395 $326 $399 forward $321 $-1 #
edge $-1 $477 -41.555223242896815 $332 41.555223242896815 $326 $478 forward 7 unknown #
coedge $-1 $395 $329 $328 $401 forward $321 $-1 #
edge $-1 $331 -41.555223242896815 $409 41.555223242896815 $328 $479 forward 7 unknown #
straight-curve $-1 -41.555223242896815 0 -4.062382864119038 0 1 0 I I #
point $-1 -41.555223242896815 17.710968800206036 -4.062382864119038 #
point $-1 -41.555223242896815 -17.710968800206036 -4.062382864119038 #
vertex $-1 $397 $480 #
straight-curve $-1 0 17.710968800206036 4.062382864119038 -1 0 0 I I #
coedge $-1 $335 $412 $395 $475 reversed $408 $-1 #
loop $-1 $-1 $412 $337 #
vertex $-1 $475 $481 #
straight-curve $-1 41.555223242896815 17.710968800206036 0 0 0 -1 I I #
plane-surface $-1 41.555223242896815 0 0 -1 0 0 0 0 1 forward_v I I I I #
coedge $-1 $407 $396 $340 $413 forward $408 $-1 #
edge $-1 $414 -4.062382864119038 $477 4.062382864119038 $412 $482 forward 7 unknown #
vertex $-1 $397 $483 #
straight-curve $-1 0 -17.710968800206036 4.062382864119038 1 0 0 I I #
face $-1 $484 $431 $14 $-1 $418 reversed single #
loop $-1 $-1 $422 $347 #
plane-surface $-1 -41.555223242896815 0 0 1 0 0 0 0 -1 forward_v I I I I #
coedge $-1 $485 $486 $487 $488 forward $348 $-1 #
coedge $-1 $489 $350 $490 $491 forward $281 $-1 #
coedge $-1 $350 $489 $492 $493 forward $281 $-1 #
coedge $-1 $494 $495 $350 $423 forward $417 $-1 #
edge $-1 $496 -17.710968800206036 $497 17.710968800206036 $422 $498 forward 7 unknown #
coedge $-1 $352 $351 $486 $499 forward $200 $-1 #
coedge $-1 $449 $487 $351 $426 reversed $446 $-1 #
edge $-1 $432 -2.4925242440912783 $500 2.4925242440912783 $425 $501 forward 7 unknown #
coedge $-1 $502 $437 $352 $428 reversed $214 $-1 #
edge $-1 $503 -2.4925242440912783 $433 2.4925242440912783 $427 $504 forward 7 unknown #
coedge $-1 $435 $353 $437 $505 reversed $431 $-1 #
coedge $-1 $353 $435 $449 $506 forward $431 $-1 #
loop $-1 $-1 $353 $416 #
vertex $-1 $506 $507 #
vertex $-1 $428 $508 #
straight-curve $-1 -41.555223242896815 0 2.8060199656255396 0 -1 0 I I #
coedge $-1 $430 $429 $355 $436 reversed $431 $-1 #
edge $-1 $450 -17.710968800206036 $438 17.710968800206036 $435 $509 forward 7 unknown #
coedge $-1 $427 $356 $429 $505 forward $214 $-1 #
vertex $-1 $436 $510 #
coedge $-1 $362 $490 $495 $511 forward $214 $-1 #
coedge $-1 $512 $513 $362 $441 forward $514 $-1 #
edge $-1 $443 -41.555223242896815 $515 41.555223242896815 $362 $516 forward 7 unknown #
coedge $-1 $369 $363 $513 $517 reversed $370 $-1 #
vertex $-1 $364 $518 #
straight-curve $-1 41.555223242896815 -17.710968800206036 0 0 0 -1 I I #
face $-1 $-1 $370 $14 $-1 $519 reversed single #
loop $-1 $-1 $448 $365 #
plane-surface $-1 0 17.710968800206036 0 0 -1 0 0 0 -1 forward_v I I I I #
coedge $-1 $520 $367 $369 $452 forward $446 $-1 #
coedge $-1 $367 $425 $430 $506 reversed $446 $-1 #
vertex $-1 $368 $521 #
straight-curve $-1 0 17.710968800206036 4.062382864119038 -1 0 0 I I #
edge $-1 $371 -4.062382864119038 $522 4.062382864119038 $369 $523 forward 7 unknown #
point $-1 41.555223242896815 17.710968800206036 4.062382864119038 #
face $-1 $524 $525 $15 $-1 $526 reversed single #
loop $-1 $-1 $527 $374 #
plane-surface $-1 -44.047747486988094 0 -0.19398003437446043 0 0 1 1 0 0 forward_v I I I I #
coedge $-1 $528 $529 $530 $531 reversed $375 $-1 #
coedge $-1 $377 $532 $533 $534 forward $302 $-1 #
coedge $-1 $533 $386 $378 $460 forward $388 $-1 #
edge $-1 $535 -34.256971809532793 $462 -30.582327727481058 $459 $536 forward 7 unknown #
edge $-1 $535 -4.2801151229643262e-015 $463 6.5713352431443894 $379 $537 forward 7 unknown #
vertex $-1 $460 $538 #
vertex $-1 $382 $539 #
straight-curve $-1 -24.344124216180482 -32.092870641682453 4.0623828641190372 0 1 0 I I #
straight-curve $-1 -9.3073012563467294 -12.263085013997509 4.062382864119038 1 0 0 I I #
edge $-1 $384 3.5777795528597061 $535 15.036822959833753 $386 $540 forward 7 unknown #
point $-1 -12.885080809206436 -17.710968800206036 0.38773878206729978 #
coedge $-1 $387 $541 $542 $543 reversed $388 $-1 #
face $-1 $544 $388 $15 $-1 $545 reversed single #
coedge $-1 $532 $390 $546 $547 forward $302 $-1 #
coedge $-1 $542 $548 $390 $472 reversed $549 $-1 #
edge $-1 $473 -17.710968800206036 $550 17.710968800206036 $471 $551 forward 7 unknown #
vertex $-1 $472 $552 #
straight-curve $-1 0 -17.710968800206036 4.062382864119038 1 0 0 I I #
edge $-1 $409 -17.710968800206036 $477 17.710968800206036 $407 $553 forward 7 unknown #
straight-curve $-1 41.555223242896815 0 4.062382864119038 0 1 0 I I #
vertex $-1 $413 $554 #
straight-curve $-1 0 -17.710968800206036 -4.062382864119038 -1 0 0 I I #
straight-curve $-1 0 17.710968800206036 -4.062382864119038 1 0 0 I I #
point $-1 41.555223242896815 17.710968800206036 4.062382864119038 #
point $-1 41.555223242896815 17.710968800206036 -4.062382864119038 #
straight-curve $-1 41.555223242896815 -17.710968800206036 0 0 0 -1 I I #
point $-1 41.555223242896815 -17.710968800206036 4.062382864119038 #
face $-1 $295 $514 $14 $-1 $555 reversed single #
coedge $-1 $556 $419 $489 $557 reversed $348 $-1 #
coedge $-1 $419 $556 $424 $499 reversed $348 $-1 #
coedge $-1 $425 $492 $419 $488 reversed $446 $-1 #
edge $-1 $500 -1.5 $558 1.5 $487 $559 forward 7 unknown #
coedge $-1 $421 $420 $485 $557 forward $281 $-1 #
coedge $-1 $439 $502 $420 $491 reversed $214 $-1 #
edge $-1 $496 -2.4925242440912783 $560 2.4925242440912783 $490 $561 forward 7 unknown #
coedge $-1 $487 $562 $421 $493 reversed $446 $-1 #
edge $-1 $558 -2.4925242440912783 $497 2.4925242440912783 $492 $563 forward 7 unknown #
coedge $-1 $564 $422 $562 $565 forward $417 $-1 #
coedge $-1 $422 $564 $439 $511 reversed $417 $-1 #
vertex $-1 $511 $566 #
vertex $-1 $565 $567 #
straight-curve $-1 -41.555223242896815 0 -0.19398003437446043 0 1 0 I I #
edge $-1 $500 -17.710968800206036 $503 17.710968800206036 $486 $568 forward 7 unknown #
vertex $-1 $426 $569 #
straight-curve $-1 -44.047747486988094 17.710968800206036 2.8060199656255396 -1 0 0 I I #
coedge $-1 $490 $427 $556 $570 forward $214 $-1 #
vertex $-1 $499 $571 #
straight-curve $-1 -44.047747486988094 -17.710968800206036 2.8060199656255396 1 0 0 I I #
edge $-1 $438 -4.062382864119038 $433 -2.8060199656255396 $429 $572 forward 7 unknown #
edge $-1 $450 -4.062382864119038 $432 -2.8060199656255396 $449 $573 forward 7 unknown #
point $-1 -41.555223242896815 17.710968800206036 2.8060199656255396 #
point $-1 -41.555223242896815 -17.710968800206036 2.8060199656255396 #
straight-curve $-1 -41.555223242896815 0 4.062382864119038 0 -1 0 I I #
point $-1 -41.555223242896815 -17.710968800206036 4.062382864119038 #
edge $-1 $496 0.19398003437446043 $515 4.062382864119038 $495 $572 forward 7 unknown #
coedge $-1 $574 $440 $564 $575 forward $514 $-1 #
coedge $-1 $440 $574 $442 $517 forward $514 $-1 #
loop $-1 $-1 $513 $484 #
vertex $-1 $575 $576 #
straight-curve $-1 0 -17.710968800206036 -4.062382864119038 -1 0 0 I I #
edge $-1 $522 -17.710968800206036 $443 17.710968800206036 $442 $577 forward 7 unknown #
point $-1 41.555223242896815 -17.710968800206036 -4.062382864119038 #
plane-surface $-1 41.555223242896815 0 0 -1 0 0 0 0 1 forward_v I I I I #
coedge $-1 $562 $448 $574 $578 reversed $446 $-1 #
point $-1 -41.555223242896815 17.710968800206036 4.062382864119038 #
vertex $-1 $517 $579 #
straight-curve $-1 41.555223242896815 17.710968800206036 0 0 0 -1 I I #
face $-1 $580 $581 $15 $-1 $582 reversed single #
loop $-1 $-1 $583 $454 #
plane-surface $-1 -46.540271731079372 0 1.3060199656255396 1 0 0 0 0 -1 forward_v I I I I #
coedge $-1 $584 $585 $586 $587 reversed $455 $-1 #
coedge $-1 $588 $457 $589 $590 forward $375 $-1 #
coedge $-1 $457 $588 $591 $592 forward $375 $-1 #
coedge $-1 $593 $594 $457 $531 forward $595 $-1 #
edge $-1 $596 -17.710968800206036 $597 17.710968800206036 $530 $598 forward 7 unknown #
coedge $-1 $458 $470 $599 $600 forward $302 $-1 #
coedge $-1 $601 $459 $458 $534 reversed $388 $-1 #
edge $-1 $602 -41.555223242896815 $462 -24.344124216180482 $533 $474 forward 7 unknown #
vertex $-1 $466 $603 #
straight-curve $-1 -24.344124216180482 -17.710968800206036 34.644710591600095 0 0 1 I I #
straight-curve $-1 -24.344124216180482 -17.710968800206032 0.38773878206730217 0 0.82903756765294845 0.55919291073839883 I I #
point $-1 -24.344124216180482 -17.710968800206036 4.062382864119038 #
point $-1 -24.344124216180482 -12.263085013997511 4.062382864119038 #
straight-curve $-1 -9.3073012563467294 -17.710968800206036 0.38773878206729784 -1 0 0 I I #
coedge $-1 $468 $604 $605 $606 reversed $388 $-1 #
coedge $-1 $607 $471 $468 $543 forward $549 $-1 #
edge $-1 $473 -4.062382864119038 $608 4.062382864119038 $542 $609 forward 7 unknown #
face $-1 $610 $611 $15 $-1 $612 reversed single #
plane-surface $-1 0 -17.710968800206036 0 0 1 0 0 0 1 forward_v I I I I #
coedge $-1 $613 $614 $470 $547 reversed $611 $-1 #
edge $-1 $550 -41.555223242896815 $615 41.555223242896815 $546 $616 forward 7 unknown #
coedge $-1 $471 $607 $613 $617 reversed $549 $-1 #
loop $-1 $-1 $542 $610 #
vertex $-1 $472 $618 #
straight-curve $-1 41.555223242896815 0 4.062382864119038 0 1 0 I I #
point $-1 41.555223242896815 -17.710968800206036 4.062382864119038 #
straight-curve $-1 41.555223242896815 0 -4.062382864119038 0 -1 0 I I #
point $-1 41.555223242896815 -17.710968800206036 -4.062382864119038 #
plane-surface $-1 0 0 -4.062382864119038 0 0 1 1 0 0 forward_v I I I I #
coedge $-1 $486 $485 $502 $570 reversed $348 $-1 #
edge $-1 $560 -17.710968800206036 $558 17.710968800206036 $485 $619 forward 7 unknown #
vertex $-1 $493 $620 #
straight-curve $-1 -46.540271731079372 17.710968800206036 1.3060199656255396 0 0 -1 I I #
vertex $-1 $557 $621 #
straight-curve $-1 -44.047747486988094 -17.710968800206036 -0.19398003437446043 -1 0 0 I I #
coedge $-1 $492 $520 $494 $565 reversed $446 $-1 #
straight-curve $-1 -44.047747486988094 17.710968800206036 -0.19398003437446043 1 0 0 I I #
coedge $-1 $495 $494 $512 $575 reversed $417 $-1 #
edge $-1 $497 0.19398003437446043 $622 4.062382864119038 $562 $573 forward 7 unknown #
point $-1 -41.555223242896815 -17.710968800206036 -0.19398003437446043 #
point $-1 -41.555223242896815 17.710968800206036 -0.19398003437446043 #
straight-curve $-1 -46.540271731079372 0 2.8060199656255396 0 -1 0 I I #
point $-1 -46.540271731079372 17.710968800206036 2.8060199656255396 #
edge $-1 $503 -1.5 $560 1.5 $556 $623 forward 7 unknown #
point $-1 -46.540271731079372 -17.710968800206036 2.8060199656255396 #
straight-curve $-1 -41.555223242896815 -17.710968800206036 0 0 0 -1 I I #
straight-curve $-1 -41.555223242896815 17.710968800206036 0 0 0 -1 I I #
coedge $-1 $513 $512 $520 $578 forward $514 $-1 #
edge $-1 $515 -17.710968800206036 $622 17.710968800206036 $564 $624 forward 7 unknown #
point $-1 -41.555223242896815 -17.710968800206036 -4.062382864119038 #
straight-curve $-1 41.555223242896815 0 -4.062382864119038 0 -1 0 I I #
edge $-1 $622 -41.555223242896815 $522 41.555223242896815 $520 $625 forward 7 unknown #
point $-1 41.555223242896815 17.710968800206036 -4.062382864119038 #
face $-1 $626 $595 $15 $-1 $582 reversed single #
loop $-1 $-1 $586 $524 #
plane-surface $-1 -41.555223242896815 0 0 1 0 0 0 0 -1 forward_v I I I I #
coedge $-1 $627 $628 $629 $630 forward $525 $-1 #
coedge $-1 $631 $527 $632 $633 forward $455 $-1 #
coedge $-1 $527 $631 $634 $635 forward $455 $-1 #
coedge $-1 $636 $637 $527 $587 forward $581 $-1 #
edge $-1 $638 -17.710968800206036 $639 17.710968800206036 $586 $640 forward 7 unknown #
coedge $-1 $529 $528 $628 $641 forward $375 $-1 #
coedge $-1 $614 $629 $528 $590 reversed $611 $-1 #
edge $-1 $596 -2.4925242440912783 $642 2.4925242440912783 $589 $643 forward 7 unknown #
coedge $-1 $644 $601 $529 $592 reversed $388 $-1 #
edge $-1 $645 -2.4925242440912783 $597 2.4925242440912783 $591 $646 forward 7 unknown #
coedge $-1 $599 $530 $601 $647 reversed $595 $-1 #
coedge $-1 $530 $599 $614 $648 forward $595 $-1 #
loop $-1 $-1 $530 $580 #
vertex $-1 $648 $649 #
vertex $-1 $592 $650 #
straight-curve $-1 -41.555223242896815 0 2.8060199656255396 0 -1 0 I I #
coedge $-1 $594 $593 $532 $600 reversed $595 $-1 #
edge $-1 $615 -17.710968800206036 $602 17.710968800206036 $599 $651 forward 7 unknown #
coedge $-1 $591 $533 $593 $647 forward $388 $-1 #
vertex $-1 $600 $652 #
point $-1 -24.344124216180482 -17.710968800206036 0.38773878206729978 #
coedge $-1 $541 $632 $637 $653 forward $388 $-1 #
coedge $-1 $654 $655 $541 $606 forward $656 $-1 #
edge $-1 $608 -41.555223242896815 $657 41.555223242896815 $541 $658 forward 7 unknown #
coedge $-1 $548 $542 $655 $659 reversed $549 $-1 #
vertex $-1 $543 $660 #
straight-curve $-1 41.555223242896815 -17.710968800206036 0 0 0 -1 I I #
face $-1 $-1 $549 $15 $-1 $661 reversed single #
loop $-1 $-1 $613 $544 #
plane-surface $-1 0 17.710968800206036 0 0 -1 0 0 0 -1 forward_v I I I I #
coedge $-1 $662 $546 $548 $617 forward $611 $-1 #
coedge $-1 $546 $589 $594 $648 reversed $611 $-1 #
vertex $-1 $547 $663 #
straight-curve $-1 0 17.710968800206036 4.062382864119038 -1 0 0 I I #
edge $-1 $550 -4.062382864119038 $664 4.062382864119038 $548 $665 forward 7 unknown #
point $-1 41.555223242896815 17.710968800206036 4.062382864119038 #
straight-curve $-1 -46.540271731079372 0 -0.19398003437446043 0 1 0 I I #
point $-1 -46.540271731079372 17.710968800206036 -0.19398003437446043 #
point $-1 -46.540271731079372 -17.710968800206036 -0.19398003437446043 #
vertex $-1 $578 $666 #
straight-curve $-1 -46.540271731079372 -17.710968800206036 1.3060199656255396 0 0 -1 I I #
straight-curve $-1 -41.555223242896815 0 -4.062382864119038 0 1 0 I I #
straight-curve $-1 0 17.710968800206036 -4.062382864119038 1 0 0 I I #
face $-1 $469 $656 $15 $-1 $667 reversed single #
coedge $-1 $668 $583 $631 $669 reversed $525 $-1 #
coedge $-1 $583 $668 $588 $641 reversed $525 $-1 #
coedge $-1 $589 $634 $583 $630 reversed $611 $-1 #
edge $-1 $642 -1.5 $670 1.5 $629 $671 forward 7 unknown #
coedge $-1 $585 $584 $627 $669 forward $455 $-1 #
coedge $-1 $604 $644 $584 $633 reversed $388 $-1 #
edge $-1 $638 -2.4925242440912783 $672 2.4925242440912783 $632 $673 forward 7 unknown #
coedge $-1 $629 $674 $585 $635 reversed $611 $-1 #
edge $-1 $670 -2.4925242440912783 $639 2.4925242440912783 $634 $675 forward 7 unknown #
coedge $-1 $676 $586 $674 $677 forward $581 $-1 #
coedge $-1 $586 $676 $604 $653 reversed $581 $-1 #
vertex $-1 $653 $678 #
vertex $-1 $677 $679 #
straight-curve $-1 -41.555223242896815 0 -0.19398003437446043 0 1 0 I I #
edge $-1 $642 -17.710968800206036 $645 17.710968800206036 $628 $680 forward 7 unknown #
vertex $-1 $590 $681 #
straight-curve $-1 -44.047747486988094 17.710968800206036 2.8060199656255396 -1 0 0 I I #
coedge $-1 $632 $591 $668 $682 forward $388 $-1 #
vertex $-1 $641 $683 #
straight-curve $-1 -44.047747486988094 -17.710968800206036 2.8060199656255396 1 0 0 I I #
edge $-1 $602 -4.062382864119038 $597 -2.8060199656255396 $593 $684 forward 7 unknown #
edge $-1 $615 -4.062382864119038 $596 -2.8060199656255396 $614 $685 forward 7 unknown #
point $-1 -41.555223242896815 17.710968800206036 2.8060199656255396 #
point $-1 -41.555223242896815 -17.710968800206036 2.8060199656255396 #
straight-curve $-1 -41.555223242896815 0 4.062382864119038 0 -1 0 I I #
point $-1 -41.555223242896815 -17.710968800206036 4.062382864119038 #
edge $-1 $638 0.19398003437446043 $657 4.062382864119038 $637 $684 forward 7 unknown #
coedge $-1 $686 $605 $676 $687 forward $656 $-1 #
coedge $-1 $605 $686 $607 $659 forward $656 $-1 #
loop $-1 $-1 $655 $626 #
vertex $-1 $687 $688 #
straight-curve $-1 0 -17.710968800206036 -4.062382864119038 -1 0 0 I I #
edge $-1 $664 -17.710968800206036 $608 17.710968800206036 $607 $689 forward 7 unknown #
point $-1 41.555223242896815 -17.710968800206036 -4.062382864119038 #
plane-surface $-1 41.555223242896815 0 0 -1 0 0 0 0 1 forward_v I I I I #
coedge $-1 $674 $613 $686 $690 reversed $611 $-1 #
point $-1 -41.555223242896815 17.710968800206036 4.062382864119038 #
vertex $-1 $659 $691 #
straight-curve $-1 41.555223242896815 17.710968800206036 0 0 0 -1 I I #
point $-1 -41.555223242896815 17.710968800206036 -4.062382864119038 #
plane-surface $-1 0 0 -4.062382864119038 0 0 1 1 0 0 forward_v I I I I #
coedge $-1 $628 $627 $644 $682 reversed $525 $-1 #
edge $-1 $672 -17.710968800206036 $670 17.710968800206036 $627 $692 forward 7 unknown #
vertex $-1 $635 $693 #
straight-curve $-1 -46.540271731079372 17.710968800206036 1.3060199656255396 0 0 -1 I I #
vertex $-1 $669 $694 #
straight-curve $-1 -44.047747486988094 -17.710968800206036 -0.19398003437446043 -1 0 0 I I #
coedge $-1 $634 $662 $636 $677 reversed $611 $-1 #
straight-curve $-1 -44.047747486988094 17.710968800206036 -0.19398003437446043 1 0 0 I I #
coedge $-1 $637 $636 $654 $687 reversed $581 $-1 #
edge $-1 $639 0.19398003437446043 $695 4.062382864119038 $674 $685 forward 7 unknown #
point $-1 -41.555223242896815 -17.710968800206036 -0.19398003437446043 #
point $-1 -41.555223242896815 17.710968800206036 -0.19398003437446043 #
straight-curve $-1 -46.540271731079372 0 2.8060199656255396 0 -1 0 I I #
point $-1 -46.540271731079372 17.710968800206036 2.8060199656255396 #
edge $-1 $645 -1.5 $672 1.5 $668 $696 forward 7 unknown #
point $-1 -46.540271731079372 -17.710968800206036 2.8060199656255396 #
straight-curve $-1 -41.555223242896815 -17.710968800206036 0 0 0 -1 I I #
straight-curve $-1 -41.555223242896815 17.710968800206036 0 0 0 -1 I I #
coedge $-1 $655 $654 $662 $690 forward $656 $-1 #
edge $-1 $657 -17.710968800206036 $695 17.710968800206036 $676 $697 forward 7 unknown #
point $-1 -41.555223242896815 -17.710968800206036 -4.062382864119038 #
straight-curve $-1 41.555223242896815 0 -4.062382864119038 0 -1 0 I I #
edge $-1 $695 -41.555223242896815 $664 41.555223242896815 $662 $698 forward 7 unknown #
point $-1 41.555223242896815 17.710968800206036 -4.062382864119038 #
straight-curve $-1 -46.540271731079372 0 -0.19398003437446043 0 1 0 I I #
point $-1 -46.540271731079372 17.710968800206036 -0.19398003437446043 #
point $-1 -46.540271731079372 -17.710968800206036 -0.19398003437446043 #
vertex $-1 $690 $699 #
straight-curve $-1 -46.540271731079372 -17.710968800206036 1.3060199656255396 0 0 -1 I I #
straight-curve $-1 -41.555223242896815 0 -4.062382864119038 0 1 0 I I #
straight-curve $-1 0 17.710968800206036 -4.062382864119038 1 0 0 I I #
point $-1 -41.555223242896815 17.710968800206036 -4.062382864119038 #
End-of-ACIS-data 