500 0 8 0           
7 Unknown 11 ACIS 5.0 NT 24 Thu Mar 25 18:41:01 1999 
-1 9.9999999999999995e-007 1e-010 
body $-1 $8 $-1 $9 #
body $-1 $10 $-1 $11 #
body $-1 $12 $-1 $13 #
body $-1 $14 $-1 $15 #
body $-1 $16 $-1 $17 #
body $-1 $18 $-1 $19 #
body $-1 $20 $-1 $21 #
body $-1 $22 $-1 $23 #
lump $-1 $-1 $24 $0 #
transform $-1 1 0 0 0 1 0 0 0 1 46.356395153660699 31.895186143949573 13.540488185492263 1 rotate no_reflect no_shear #
lump $-1 $-1 $25 $1 #
transform $-1 1 0 0 0 1 0 0 0 1 46.356395153660699 31.895186143949573 13.540488185492263 1 rotate no_reflect no_shear #
lump $-1 $-1 $26 $2 #
transform $-1 1 0 0 0 1 0 0 0 1 46.356395153660699 31.895186143949573 13.540488185492263 1 rotate no_reflect no_shear #
lump $-1 $-1 $27 $3 #
transform $-1 1 0 0 0 1 0 0 0 1 46.356395153660699 31.895186143949573 13.540488185492263 1 rotate no_reflect no_shear #
lump $-1 $-1 $28 $4 #
transform $-1 1 0 0 0 1 0 0 0 1 46.356395153660699 31.895186143949573 13.540488185492263 1 rotate no_reflect no_shear #
lump $-1 $-1 $29 $5 #
transform $-1 1 0 0 0 1 0 0 0 1 46.356395153660699 31.895186143949573 13.540488185492263 1 rotate no_reflect no_shear #
lump $-1 $-1 $30 $6 #
transform $-1 1 0 0 0 1 0 0 0 1 46.356395153660699 31.895186143949573 13.540488185492263 1 rotate no_reflect no_shear #
lump $-1 $-1 $31 $7 #
transform $-1 1 0 0 0 1 0 0 0 1 46.356395153660699 31.895186143949573 13.540488185492263 1 rotate no_reflect no_shear #
shell $-1 $-1 $-1 $32 $-1 $8 #
shell $-1 $-1 $-1 $33 $-1 $10 #
shell $-1 $-1 $-1 $34 $-1 $12 #
shell $-1 $-1 $-1 $35 $-1 $14 #
shell $-1 $-1 $-1 $36 $-1 $16 #
shell $-1 $-1 $-1 $37 $-1 $18 #
shell $-1 $-1 $-1 $38 $-1 $20 #
shell $-1 $-1 $-1 $39 $-1 $22 #
face $-1 $40 $41 $24 $-1 $42 forward single #
face $-1 $43 $44 $25 $-1 $45 forward single #
face $-1 $46 $47 $26 $-1 $48 forward single #
face $-1 $49 $50 $27 $-1 $51 reversed single #
face $-1 $52 $53 $28 $-1 $54 forward single #
face $-1 $55 $56 $29 $-1 $57 forward single #
face $-1 $58 $59 $30 $-1 $60 reversed single #
face $-1 $61 $62 $31 $-1 $63 forward single #
face $-1 $64 $65 $24 $-1 $66 reversed single #
loop $-1 $-1 $67 $32 #
plane-surface $-1 0 0 13.540488185492263 0 0 1 1 0 0 forward_v I I I I #
face $-1 $68 $69 $25 $-1 $70 reversed single #
loop $-1 $-1 $71 $33 #
plane-surface $-1 0 -23.55466361602954 2.0896096669296549 0 0 1 1 0 0 forward_v I I I I #
face $-1 $72 $73 $26 $-1 $74 reversed single #
loop $-1 $-1 $75 $34 #
plane-surface $-1 0 23.554663616029544 2.0896096669296549 0 0 1 1 0 0 forward_v I I I I #
face $-1 $76 $77 $27 $-1 $78 reversed single #
loop $-1 $-1 $79 $35 #
plane-surface $-1 19.095912388568706 -15.214141088109505 133.63026951017761 0 1 0 0.54463904215088732 0 0.83867056331134215 forward_v I I I I #
face $-1 $80 $81 $28 $-1 $82 forward single #
loop $-1 $83 $84 $36 #
cone-surface $-1 39.71435486988473 -13.225673603436746 8.9075622303772164 -0.54463904215088732 0 -0.83867056331134215 0.41933528165567108 0 -0.27231952107544366 1 I I 0 1 0.5 forward I I I I #
face $-1 $85 $86 $29 $-1 $87 forward single #
loop $-1 $88 $89 $37 #
cone-surface $-1 39.71435486988473 -10.242972376427605 8.9075622303772164 -0.54463904215088732 0 -0.83867056331134215 0.41933528165567108 0 -0.27231952107544366 1 I I 0 1 0.5 forward I I I I #
face $-1 $90 $91 $30 $-1 $92 reversed single #
loop $-1 $-1 $93 $38 #
plane-surface $-1 -108.39336149533125 8.7470211713327757 72.739888764188052 0 -1 0 0.66913061440640931 0 -0.74314481823134659 forward_v I I I I #
face $-1 $94 $95 $31 $-1 $96 forward single #
loop $-1 $97 $98 $39 #
cone-surface $-1 -39.905039260687133 4.6527628441592839 7.5077699627646384 0.66913061440640931 0 -0.74314481823134659 0.74314481823134659 0 0.66913061440640931 1 I I 0 1 1 forward I I I I #
face $-1 $99 $100 $24 $-1 $101 reversed single #
loop $-1 $-1 $102 $40 #
plane-surface $-1 0 0 -13.540488185492263 0 0 1 1 0 0 forward_v I I I I #
coedge $-1 $103 $104 $105 $106 forward $41 $-1 #
face $-1 $107 $108 $25 $-1 $109 reversed single #
loop $-1 $-1 $110 $43 #
plane-surface $-1 0 -23.55466361602954 -3.1195546132509664 0 0 1 1 0 0 forward_v I I I I #
coedge $-1 $111 $112 $113 $114 reversed $44 $-1 #
face $-1 $115 $116 $26 $-1 $117 reversed single #
loop $-1 $-1 $118 $46 #
plane-surface $-1 0 23.554663616029544 -3.1195546132509664 0 0 1 1 0 0 forward_v I I I I #
coedge $-1 $119 $120 $121 $122 reversed $47 $-1 #
face $-1 $123 $124 $27 $-1 $125 reversed single #
loop $-1 $-1 $126 $49 #
plane-surface $-1 -31.399092919546888 -11.734322989932174 55.874781436970025 0.54463904215088732 0 0.83867056331134215 0.83867056331134215 0 -0.54463904215088732 forward_v I I I I #
coedge $-1 $127 $128 $129 $130 reversed $50 $-1 #
face $-1 $-1 $131 $28 $-1 $132 forward single #
loop $-1 $133 $134 $52 #
cone-surface $-1 39.219351996428657 -13.225673603436746 8.1453246627532554 -0.54463904215088732 0 -0.83867056331134215 0.20966764082783554 0 -0.13615976053772183 1 I I -0.70710678118654746 0.70710678118654746 0.25 forward I I I I #
loop $-1 $-1 $135 $36 #
coedge $-1 $84 $84 $136 $137 reversed $53 $-1 #
face $-1 $-1 $138 $29 $-1 $139 forward single #
loop $-1 $140 $141 $55 #
cone-surface $-1 39.219351996428657 -10.242972376427605 8.1453246627532554 -0.54463904215088732 0 -0.83867056331134215 0.20966764082783554 0 -0.13615976053772183 1 I I -0.70710678118654746 0.70710678118654746 0.25 forward I I I I #
loop $-1 $-1 $142 $37 #
coedge $-1 $89 $89 $143 $144 reversed $56 $-1 #
face $-1 $145 $146 $30 $-1 $147 reversed single #
loop $-1 $-1 $148 $58 #
plane-surface $-1 -46.356395153660692 4.6527628441592839 3.8408590635327329 -0.66913061440640931 0 0.74314481823134659 0.74314481823134659 0 0.66913061440640931 forward_v I I I I #
coedge $-1 $149 $150 $151 $152 reversed $59 $-1 #
face $-1 $-1 $153 $31 $-1 $154 forward single #
loop $-1 $155 $156 $61 #
cone-surface $-1 -38.505382689236512 4.6527628441592839 5.9532938919010991 0.66913061440640931 0 -0.74314481823134659 0.3715724091156733 0 0.33456530720320465 1 I I -0.70710678118654746 0.70710678118654746 0.5 forward I I I I #
loop $-1 $-1 $157 $39 #
coedge $-1 $98 $98 $158 $159 reversed $62 $-1 #
face $-1 $160 $161 $24 $-1 $162 reversed single #
loop $-1 $-1 $163 $64 #
plane-surface $-1 0 -31.895186143949573 0 0 1 0 0 0 1 forward_v I I I I #
coedge $-1 $164 $165 $166 $167 forward $65 $-1 #
coedge $-1 $168 $67 $169 $170 forward $41 $-1 #
coedge $-1 $67 $168 $171 $172 forward $41 $-1 #
coedge $-1 $173 $174 $67 $106 reversed $175 $-1 #
edge $-1 $176 -31.895186143949573 $177 31.895186143949573 $105 $178 forward 7 unknown #
face $-1 $179 $180 $25 $-1 $181 reversed single #
loop $-1 $-1 $182 $68 #
plane-surface $-1 0 -15.214141088109507 -0.51497247316065575 0 -1 0 0 0 -1 forward_v I I I I #
coedge $-1 $183 $184 $185 $186 reversed $69 $-1 #
coedge $-1 $187 $71 $188 $189 forward $44 $-1 #
coedge $-1 $71 $187 $190 $191 reversed $44 $-1 #
coedge $-1 $192 $193 $71 $114 forward $194 $-1 #
edge $-1 $195 3.436809280094737 $196 20.117854335934801 $113 $197 forward 7 unknown #
face $-1 $198 $199 $26 $-1 $200 reversed single #
loop $-1 $-1 $201 $72 #
plane-surface $-1 0 15.21414108810951 -0.51497247316065575 0 1 0 0 0 1 forward_v I I I I #
coedge $-1 $202 $203 $204 $205 reversed $73 $-1 #
coedge $-1 $206 $75 $207 $208 reversed $47 $-1 #
coedge $-1 $75 $206 $209 $210 forward $47 $-1 #
coedge $-1 $211 $212 $75 $122 forward $199 $-1 #
edge $-1 $213 -20.117854335934805 $214 -3.4368092800947387 $121 $215 forward 7 unknown #
face $-1 $216 $217 $27 $-1 $218 forward single #
loop $-1 $-1 $219 $76 #
plane-surface $-1 19.095912388568706 -8.2545048917548431 133.63026951017761 0 -1 0 -0.54463904215088732 0 -0.83867056331134215 forward_v I I I I #
coedge $-1 $220 $221 $222 $223 reversed $77 $-1 #
coedge $-1 $128 $79 $224 $225 reversed $50 $-1 #
coedge $-1 $79 $127 $220 $226 reversed $50 $-1 #
coedge $-1 $222 $227 $79 $130 forward $228 $-1 #
edge $-1 $229 53.274646569596541 $230 61.435358626234382 $129 $231 forward 7 unknown #
loop $-1 $-1 $136 $80 #
plane-surface $-1 -31.399092919546888 -11.734322989932174 55.874781436970025 0.54463904215088732 0 0.83867056331134215 0.83867056331134215 0 -0.54463904215088732 forward_v I I I I #
loop $-1 $-1 $232 $52 #
coedge $-1 $134 $134 $135 $233 reversed $81 $-1 #
coedge $-1 $135 $135 $134 $233 forward $83 $-1 #
coedge $-1 $136 $136 $84 $137 forward $131 $-1 #
edge $-1 $234 0 $234 6.2831853071796004 $136 $235 forward 7 unknown #
loop $-1 $-1 $143 $85 #
plane-surface $-1 -31.399092919546888 -11.734322989932174 55.874781436970025 0.54463904215088732 0 0.83867056331134215 0.83867056331134215 0 -0.54463904215088732 forward_v I I I I #
loop $-1 $-1 $236 $55 #
coedge $-1 $141 $141 $142 $237 reversed $86 $-1 #
coedge $-1 $142 $142 $141 $237 forward $88 $-1 #
coedge $-1 $143 $143 $89 $144 forward $138 $-1 #
edge $-1 $238 0 $238 6.2831853071796004 $143 $239 forward 7 unknown #
face $-1 $240 $241 $30 $-1 $242 reversed single #
loop $-1 $-1 $243 $90 #
plane-surface $-1 -108.39336149533125 0.55850451698579207 72.739888764188052 0 1 0 -0.66913061440640931 0 0.74314481823134659 forward_v I I I I #
coedge $-1 $244 $245 $246 $247 reversed $91 $-1 #
coedge $-1 $150 $93 $248 $249 reversed $59 $-1 #
coedge $-1 $93 $149 $244 $250 reversed $59 $-1 #
coedge $-1 $246 $251 $93 $152 forward $241 $-1 #
edge $-1 $252 22.829456196601761 $253 32.5290853185613 $151 $254 forward 7 unknown #
loop $-1 $-1 $158 $94 #
plane-surface $-1 -46.356395153660692 4.6527628441592839 3.8408590635327329 -0.66913061440640931 0 0.74314481823134659 0.74314481823134659 0 0.66913061440640931 forward_v I I I I #
loop $-1 $-1 $255 $61 #
coedge $-1 $156 $156 $157 $256 reversed $95 $-1 #
coedge $-1 $157 $157 $156 $256 forward $97 $-1 #
coedge $-1 $158 $158 $98 $159 forward $153 $-1 #
edge $-1 $257 0 $257 6.2831853071796004 $158 $258 forward 7 unknown #
face $-1 $259 $260 $24 $-1 $261 reversed single #
loop $-1 $-1 $262 $99 #
plane-surface $-1 -46.356395153660699 0 0 1 0 0 0 0 -1 forward_v I I I I #
coedge $-1 $263 $171 $264 $265 forward $100 $-1 #
coedge $-1 $266 $102 $263 $267 forward $65 $-1 #
coedge $-1 $102 $266 $268 $269 forward $65 $-1 #
coedge $-1 $174 $173 $102 $167 reversed $175 $-1 #
edge $-1 $270 -31.895186143949573 $271 31.895186143949573 $166 $272 forward 7 unknown #
coedge $-1 $104 $103 $273 $274 forward $41 $-1 #
coedge $-1 $275 $276 $103 $170 reversed $260 $-1 #
edge $-1 $177 -46.356395153660699 $277 46.356395153660699 $169 $278 forward 7 unknown #
coedge $-1 $163 $279 $104 $172 reversed $100 $-1 #
edge $-1 $280 -46.356395153660699 $176 46.356395153660699 $171 $281 forward 7 unknown #
coedge $-1 $166 $105 $279 $282 forward $175 $-1 #
coedge $-1 $105 $166 $275 $283 reversed $175 $-1 #
loop $-1 $-1 $173 $259 #
vertex $-1 $106 $284 #
vertex $-1 $106 $285 #
straight-curve $-1 46.356395153660699 0 13.540488185492263 0 1 0 I I #
face $-1 $286 $287 $25 $-1 $288 reversed single #
loop $-1 $-1 $289 $107 #
plane-surface $-1 -46.356395153660699 0 0 1 0 0 0 0 -1 forward_v I I I I #
coedge $-1 $290 $188 $193 $291 reversed $108 $-1 #
coedge $-1 $292 $110 $293 $294 reversed $69 $-1 #
coedge $-1 $110 $292 $290 $295 forward $69 $-1 #
coedge $-1 $193 $192 $110 $186 forward $194 $-1 #
edge $-1 $296 -20.117854335934801 $297 -3.436809280094737 $185 $298 forward 7 unknown #
coedge $-1 $112 $111 $289 $299 reversed $44 $-1 #
coedge $-1 $182 $300 $111 $189 reversed $108 $-1 #
edge $-1 $195 -46.356395153660699 $301 46.356395153660699 $188 $302 forward 7 unknown #
coedge $-1 $303 $304 $112 $191 forward $287 $-1 #
edge $-1 $196 -46.356395153660699 $305 46.356395153660699 $190 $306 forward 7 unknown #
coedge $-1 $185 $113 $304 $307 forward $194 $-1 #
coedge $-1 $113 $185 $182 $291 forward $194 $-1 #
loop $-1 $-1 $113 $286 #
vertex $-1 $114 $308 #
vertex $-1 $307 $309 #
straight-curve $-1 46.356395153660699 -11.77733180801477 2.0896096669296549 0 -1 0 I I #
face $-1 $310 $311 $26 $-1 $312 reversed single #
loop $-1 $-1 $121 $115 #
plane-surface $-1 46.356395153660699 0 0 -1 0 0 0 0 1 forward_v I I I I #
coedge $-1 $313 $209 $314 $315 reversed $116 $-1 #
coedge $-1 $316 $118 $313 $317 forward $73 $-1 #
coedge $-1 $118 $316 $318 $319 reversed $73 $-1 #
coedge $-1 $212 $211 $118 $205 forward $199 $-1 #
edge $-1 $320 3.4368092800947387 $321 20.117854335934805 $204 $322 forward 7 unknown #
coedge $-1 $120 $119 $323 $324 reversed $47 $-1 #
coedge $-1 $325 $326 $119 $208 forward $327 $-1 #
edge $-1 $328 -46.356395153660699 $213 46.356395153660699 $207 $329 forward 7 unknown #
coedge $-1 $201 $330 $120 $210 reversed $116 $-1 #
edge $-1 $331 -46.356395153660699 $214 46.356395153660699 $209 $332 forward 7 unknown #
coedge $-1 $204 $121 $330 $333 forward $199 $-1 #
coedge $-1 $121 $204 $325 $334 reversed $199 $-1 #
vertex $-1 $334 $335 #
vertex $-1 $122 $336 #
straight-curve $-1 46.356395153660699 11.777331808014772 2.0896096669296549 0 -1 0 I I #
face $-1 $-1 $228 $27 $-1 $337 reversed single #
loop $-1 $-1 $338 $123 #
plane-surface $-1 0 0 13.540488185492263 0 0 1 1 0 0 forward_v I I I I #
coedge $-1 $339 $340 $341 $342 reversed $124 $-1 #
coedge $-1 $343 $126 $128 $226 forward $77 $-1 #
coedge $-1 $126 $343 $339 $344 forward $77 $-1 #
coedge $-1 $341 $129 $126 $223 forward $228 $-1 #
edge $-1 $230 -9.3469795931434181 $345 -2.3873433967887561 $222 $346 forward 7 unknown #
coedge $-1 $347 $348 $127 $225 forward $217 $-1 #
edge $-1 $349 24.242044617661108 $229 36.808438959376346 $224 $350 forward 7 unknown #
edge $-1 $230 -92.712790307321413 $349 -77.729082888166189 $128 $351 forward 7 unknown #
coedge $-1 $129 $341 $347 $352 reversed $228 $-1 #
loop $-1 $-1 $341 $216 #
vertex $-1 $352 $353 #
vertex $-1 $130 $354 #
straight-curve $-1 46.356395153660699 -15.214141088109505 66.815134755088806 0 0 -1 I I #
coedge $-1 $232 $232 $-1 $355 reversed $133 $-1 #
edge $-1 $356 0 $356 6.2831853071796004 $134 $357 forward 7 unknown #
vertex $-1 $137 $358 #
ellipse-curve $-1 40.07319798280308 -13.225673603436746 9.4601321571733408 0.54463904215088732 0 0.83867056331134215 0.41933528165567108 0 -0.27231952107544366 1 I I #
coedge $-1 $236 $236 $-1 $359 reversed $140 $-1 #
edge $-1 $360 0 $360 6.2831853071796004 $141 $361 forward 7 unknown #
vertex $-1 $144 $362 #
ellipse-curve $-1 40.07319798280308 -10.242972376427605 9.4601321571733408 0.54463904215088732 0 0.83867056331134215 0.41933528165567108 0 -0.27231952107544366 1 I I #
face $-1 $-1 $363 $30 $-1 $364 forward single #
loop $-1 $-1 $151 $145 #
plane-surface $-1 -46.356395153660699 0 0 1 0 0 0 0 -1 forward_v I I I I #
coedge $-1 $365 $366 $367 $368 reversed $146 $-1 #
coedge $-1 $369 $148 $150 $250 forward $91 $-1 #
coedge $-1 $148 $369 $365 $370 forward $91 $-1 #
coedge $-1 $367 $151 $148 $247 forward $241 $-1 #
edge $-1 $253 -6.4206397492531337 $371 1.7678769050938499 $246 $372 forward 7 unknown #
coedge $-1 $373 $374 $149 $249 forward $363 $-1 #
edge $-1 $375 -18.612814851457252 $252 -7.840285594004925 $248 $376 forward 7 unknown #
edge $-1 $253 -9.4405131238556439e-015 $375 14.495868090812348 $150 $377 forward 7 unknown #
coedge $-1 $151 $367 $373 $378 reversed $241 $-1 #
vertex $-1 $378 $379 #
vertex $-1 $152 $380 #
straight-curve $-1 -46.356395153660699 8.7470211713327757 36.369944382094026 0 0 -1 I I #
coedge $-1 $255 $255 $-1 $381 reversed $155 $-1 #
edge $-1 $382 0 $382 6.2831853071796004 $156 $383 forward 7 unknown #
vertex $-1 $159 $384 #
ellipse-curve $-1 -40.97013052493454 4.6527628441592839 8.6906736245124918 -0.66913061440640931 0 0.74314481823134659 0.74314481823134659 0 0.66913061440640931 1 I I #
face $-1 $-1 $175 $24 $-1 $385 reversed single #
loop $-1 $-1 $275 $160 #
plane-surface $-1 0 31.895186143949573 0 0 -1 0 0 0 -1 forward_v I I I I #
coedge $-1 $386 $273 $276 $387 forward $161 $-1 #
coedge $-1 $279 $163 $164 $267 reversed $100 $-1 #
coedge $-1 $273 $386 $163 $265 reversed $161 $-1 #
edge $-1 $280 -13.540488185492263 $388 13.540488185492263 $264 $389 forward 7 unknown #
coedge $-1 $165 $164 $386 $390 forward $65 $-1 #
edge $-1 $271 -46.356395153660699 $388 46.356395153660699 $263 $391 forward 7 unknown #
coedge $-1 $276 $275 $165 $269 reversed $260 $-1 #
edge $-1 $392 -46.356395153660699 $270 46.356395153660699 $268 $393 forward 7 unknown #
vertex $-1 $167 $394 #
vertex $-1 $282 $395 #
straight-curve $-1 46.356395153660699 0 -13.540488185492263 0 -1 0 I I #
coedge $-1 $262 $264 $168 $274 reversed $161 $-1 #
edge $-1 $277 -31.895186143949573 $280 31.895186143949573 $273 $396 forward 7 unknown #
coedge $-1 $268 $169 $174 $283 forward $260 $-1 #
coedge $-1 $169 $268 $262 $387 reversed $260 $-1 #
vertex $-1 $170 $397 #
straight-curve $-1 0 31.895186143949573 13.540488185492263 -1 0 0 I I #
coedge $-1 $171 $263 $173 $282 reversed $100 $-1 #
vertex $-1 $274 $398 #
straight-curve $-1 0 -31.895186143949573 13.540488185492263 1 0 0 I I #
edge $-1 $176 -13.540488185492263 $271 13.540488185492263 $173 $399 forward 7 unknown #
edge $-1 $177 -13.540488185492263 $270 13.540488185492263 $174 $400 forward 7 unknown #
point $-1 46.356395153660699 -31.895186143949573 13.540488185492263 #
point $-1 46.356395153660699 31.895186143949573 13.540488185492263 #
face $-1 $-1 $194 $25 $-1 $401 reversed single #
loop $-1 $-1 $190 $179 #
plane-surface $-1 0 -31.895186143949573 0 0 1 0 0 0 1 forward_v I I I I #
coedge $-1 $402 $403 $187 $299 forward $180 $-1 #
coedge $-1 $300 $182 $184 $295 reversed $108 $-1 #
edge $-1 $297 -2.8620683766706385 $195 2.3470959035099828 $193 $404 forward 7 unknown #
coedge $-1 $184 $183 $405 $406 reversed $69 $-1 #
coedge $-1 $304 $303 $183 $294 forward $287 $-1 #
edge $-1 $407 -46.356395153660699 $296 46.356395153660699 $293 $408 forward 7 unknown #
edge $-1 $409 -46.356395153660699 $297 46.356395153660699 $290 $410 forward 7 unknown #
vertex $-1 $294 $411 #
vertex $-1 $186 $412 #
straight-curve $-1 46.356395153660699 -11.77733180801477 -3.1195546132509664 0 1 0 I I #
edge $-1 $305 -20.117854335934801 $301 -3.436809280094737 $289 $413 forward 7 unknown #
coedge $-1 $188 $290 $402 $414 reversed $108 $-1 #
vertex $-1 $299 $415 #
straight-curve $-1 0 -15.214141088109507 2.0896096669296549 -1 0 0 I I #
coedge $-1 $293 $190 $403 $416 forward $287 $-1 #
coedge $-1 $190 $293 $192 $307 reversed $287 $-1 #
vertex $-1 $416 $417 #
straight-curve $-1 0 -31.895186143949573 2.0896096669296549 -1 0 0 I I #
edge $-1 $196 -2.0896096669296549 $296 3.1195546132509664 $192 $418 forward 7 unknown #
point $-1 46.356395153660699 -15.214141088109507 2.0896096669296549 #
point $-1 46.356395153660699 -31.895186143949573 2.0896096669296549 #
face $-1 $-1 $327 $26 $-1 $419 reversed single #
loop $-1 $-1 $323 $198 #
plane-surface $-1 -46.356395153660699 0 0 1 0 0 0 0 -1 forward_v I I I I #
coedge $-1 $330 $201 $202 $317 reversed $116 $-1 #
coedge $-1 $323 $420 $201 $315 forward $311 $-1 #
edge $-1 $421 -2.8620683766706385 $331 2.3470959035099828 $314 $422 forward 7 unknown #
coedge $-1 $203 $202 $420 $423 reversed $73 $-1 #
edge $-1 $320 -46.356395153660699 $421 46.356395153660699 $313 $424 forward 7 unknown #
coedge $-1 $326 $325 $203 $319 forward $327 $-1 #
edge $-1 $321 -46.356395153660699 $425 46.356395153660699 $318 $426 forward 7 unknown #
vertex $-1 $205 $427 #
vertex $-1 $319 $428 #
straight-curve $-1 46.356395153660699 11.777331808014772 -3.1195546132509664 0 1 0 I I #
coedge $-1 $429 $314 $206 $324 forward $311 $-1 #
edge $-1 $331 3.4368092800947387 $328 20.117854335934805 $323 $430 forward 7 unknown #
coedge $-1 $318 $207 $212 $334 forward $327 $-1 #
coedge $-1 $207 $318 $429 $431 reversed $327 $-1 #
loop $-1 $-1 $207 $310 #
vertex $-1 $431 $432 #
straight-curve $-1 0 31.895186143949573 2.0896096669296549 1 0 0 I I #
coedge $-1 $209 $313 $211 $333 reversed $116 $-1 #
vertex $-1 $324 $433 #
straight-curve $-1 0 15.21414108810951 2.0896096669296549 1 0 0 I I #
edge $-1 $214 -2.3470959035099828 $320 2.8620683766706385 $211 $434 forward 7 unknown #
edge $-1 $213 -2.0896096669296549 $321 3.1195546132509664 $212 $435 forward 7 unknown #
point $-1 46.356395153660699 31.895186143949577 2.0896096669296549 #
point $-1 46.356395153660699 15.21414108810951 2.0896096669296549 #
plane-surface $-1 46.356395153660699 0 0 -1 0 0 0 0 1 forward_v I I I I #
coedge $-1 $348 $347 $340 $436 forward $217 $-1 #
coedge $-1 $340 $219 $221 $344 reversed $124 $-1 #
coedge $-1 $219 $339 $338 $436 reversed $124 $-1 #
coedge $-1 $227 $222 $219 $342 forward $228 $-1 #
edge $-1 $345 -61.435358626234382 $437 -53.274646569596541 $341 $438 forward 7 unknown #
coedge $-1 $221 $220 $348 $439 reversed $77 $-1 #
edge $-1 $440 77.729082888166189 $345 92.712790307321413 $339 $441 forward 7 unknown #
vertex $-1 $223 $442 #
straight-curve $-1 46.356395153660692 -5.8671614949660871 5.3797761288544308 0 1 0 I I #
coedge $-1 $338 $224 $227 $352 forward $217 $-1 #
coedge $-1 $224 $338 $343 $439 forward $217 $-1 #
vertex $-1 $225 $443 #
straight-curve $-1 9.5479561942843532 -15.214141088109505 13.540488185492265 1 0 0 I I #
straight-curve $-1 -31.399092919546888 -15.214141088109505 55.874781436970025 -0.83867056331134215 0 0.54463904215088732 I I #
edge $-1 $229 -15.214141088109505 $437 -8.2545048917548431 $227 $444 forward 7 unknown #
point $-1 46.356395153660699 -15.214141088109505 13.540488185492263 #
point $-1 46.356395153660699 -15.214141088109505 5.3797761288544237 #
edge $-1 $445 1 $445 0 $232 $-1 forward 7 unknown #
vertex $-1 $233 $446 #
ellipse-curve $-1 39.355511756966379 -13.225673603436746 8.3549923035810902 0.54463904215088732 0 0.83867056331134215 0.41933528165567108 0 -0.27231952107544366 1 I I #
point $-1 40.49253326445875 -13.225673603436746 9.1878126360978971 #
edge $-1 $447 1 $447 0 $236 $-1 forward 7 unknown #
vertex $-1 $237 $448 #
ellipse-curve $-1 39.355511756966379 -10.242972376427605 8.3549923035810902 0.54463904215088732 0 0.83867056331134215 0.41933528165567108 0 -0.27231952107544366 1 I I #
point $-1 40.49253326445875 -10.242972376427605 9.1878126360978971 #
loop $-1 $-1 $248 $240 #
plane-surface $-1 0 0 13.540488185492263 0 0 1 1 0 0 forward_v I I I I #
coedge $-1 $366 $243 $245 $370 reversed $146 $-1 #
coedge $-1 $243 $365 $449 $450 reversed $146 $-1 #
coedge $-1 $251 $246 $243 $368 forward $241 $-1 #
edge $-1 $371 -32.5290853185613 $451 -22.829456196601761 $367 $452 forward 7 unknown #
coedge $-1 $245 $244 $374 $453 reversed $91 $-1 #
edge $-1 $454 -14.495868090812348 $371 9.4405131238556439e-015 $365 $455 forward 7 unknown #
vertex $-1 $247 $456 #
straight-curve $-1 -46.356395153660699 2.3263814220796419 3.840859063532728 0 -1 0 I I #
coedge $-1 $449 $248 $251 $378 forward $363 $-1 #
coedge $-1 $248 $449 $369 $453 forward $363 $-1 #
vertex $-1 $249 $457 #
straight-curve $-1 -54.196680747665624 8.7470211713327757 13.540488185492265 -1 0 0 I I #
straight-curve $-1 -46.356395153660692 8.7470211713327757 3.8408590635327329 0.74314481823134659 0 0.66913061440640931 I I #
edge $-1 $252 -8.7470211713327757 $451 -0.55850451698579207 $251 $458 forward 7 unknown #
point $-1 -46.356395153660699 8.7470211713327757 13.540488185492263 #
point $-1 -46.356395153660699 8.7470211713327757 3.8408590635327267 #
edge $-1 $459 1 $459 0 $255 $-1 forward 7 unknown #
vertex $-1 $256 $460 #
ellipse-curve $-1 -38.839947996439719 4.6527628441592839 6.3248663010167725 -0.66913061440640931 0 0.74314481823134659 0.74314481823134659 0 0.66913061440640931 1 I I #
point $-1 -40.226985706703204 4.6527628441592839 9.3598042389189153 #
plane-surface $-1 46.356395153660699 0 0 -1 0 0 0 0 1 forward_v I I I I #
coedge $-1 $264 $262 $266 $390 reversed $161 $-1 #
edge $-1 $277 -13.540488185492263 $392 13.540488185492263 $276 $461 forward 7 unknown #
vertex $-1 $390 $462 #
straight-curve $-1 -46.356395153660699 -31.895186143949573 0 0 0 -1 I I #
edge $-1 $388 -31.895186143949573 $392 31.895186143949573 $386 $463 forward 7 unknown #
straight-curve $-1 0 -31.895186143949573 -13.540488185492263 -1 0 0 I I #
vertex $-1 $269 $464 #
straight-curve $-1 0 31.895186143949573 -13.540488185492263 1 0 0 I I #
point $-1 46.356395153660699 31.895186143949573 -13.540488185492263 #
point $-1 46.356395153660699 -31.895186143949573 -13.540488185492263 #
straight-curve $-1 -46.356395153660699 0 13.540488185492263 0 -1 0 I I #
point $-1 -46.356395153660699 31.895186143949573 13.540488185492263 #
point $-1 -46.356395153660699 -31.895186143949573 13.540488185492263 #
straight-curve $-1 46.356395153660699 -31.895186143949573 0 0 0 -1 I I #
straight-curve $-1 46.356395153660699 31.895186143949573 0 0 0 -1 I I #
plane-surface $-1 46.356395153660699 0 0 -1 0 0 0 0 1 forward_v I I I I #
coedge $-1 $405 $289 $300 $414 forward $180 $-1 #
coedge $-1 $289 $405 $303 $416 reversed $180 $-1 #
straight-curve $-1 46.356395153660699 -15.214141088109507 -0.25748623658032788 0 0 1 I I #
coedge $-1 $403 $402 $292 $406 forward $180 $-1 #
edge $-1 $409 3.436809280094737 $407 20.117854335934801 $405 $465 forward 7 unknown #
vertex $-1 $294 $466 #
straight-curve $-1 0 -31.895186143949573 -3.1195546132509664 1 0 0 I I #
vertex $-1 $406 $467 #
straight-curve $-1 0 -15.214141088109507 -3.1195546132509664 1 0 0 I I #
point $-1 46.356395153660699 -31.895186143949573 -3.1195546132509664 #
point $-1 46.356395153660699 -15.214141088109507 -3.1195546132509664 #
straight-curve $-1 -46.356395153660699 -11.77733180801477 2.0896096669296549 0 1 0 I I #
edge $-1 $301 -2.3470959035099828 $409 2.8620683766706385 $402 $468 forward 7 unknown #
point $-1 -46.356395153660699 -15.214141088109507 2.0896096669296549 #
edge $-1 $305 -2.0896096669296549 $407 3.1195546132509664 $403 $469 forward 7 unknown #
point $-1 -46.356395153660699 -31.895186143949573 2.0896096669296549 #
straight-curve $-1 46.356395153660699 -31.895186143949573 0 0 0 -1 I I #
plane-surface $-1 0 31.895186143949573 0 0 -1 0 0 0 -1 forward_v I I I I #
coedge $-1 $314 $429 $316 $423 forward $311 $-1 #
vertex $-1 $423 $470 #
straight-curve $-1 -46.356395153660699 15.21414108810951 -0.25748623658032788 0 0 1 I I #
edge $-1 $425 -20.117854335934805 $421 -3.4368092800947387 $420 $471 forward 7 unknown #
straight-curve $-1 0 15.21414108810951 -3.1195546132509664 -1 0 0 I I #
vertex $-1 $319 $472 #
straight-curve $-1 0 31.895186143949573 -3.1195546132509664 -1 0 0 I I #
point $-1 46.356395153660699 15.21414108810951 -3.1195546132509664 #
point $-1 46.356395153660699 31.895186143949577 -3.1195546132509664 #
coedge $-1 $420 $323 $326 $431 forward $311 $-1 #
straight-curve $-1 -46.356395153660699 11.777331808014772 2.0896096669296549 0 1 0 I I #
edge $-1 $328 -2.0896096669296549 $425 3.1195546132509664 $326 $473 forward 7 unknown #
point $-1 -46.356395153660699 31.895186143949577 2.0896096669296549 #
point $-1 -46.356395153660699 15.21414108810951 2.0896096669296549 #
straight-curve $-1 46.356395153660699 15.21414108810951 -0.25748623658032788 0 0 -1 I I #
straight-curve $-1 46.356395153660699 31.895186143949573 0 0 0 -1 I I #
edge $-1 $437 -36.808438959376346 $440 -24.242044617661108 $338 $474 forward 7 unknown #
vertex $-1 $436 $475 #
straight-curve $-1 46.356395153660699 -8.2545048917548431 66.815134755088806 0 0 1 I I #
edge $-1 $440 2.3873433967887561 $349 9.3469795931434181 $348 $476 forward 7 unknown #
vertex $-1 $439 $477 #
straight-curve $-1 -31.399092919546888 -8.2545048917548431 55.874781436970025 0.83867056331134215 0 -0.54463904215088732 I I #
point $-1 46.356395153660699 -8.2545048917548431 5.3797761288544237 #
point $-1 33.790000811945461 -15.214141088109505 13.540488185492265 #
straight-curve $-1 46.356395153660699 0 13.540488185492263 0 1 0 I I #
vertex $-1 $355 $478 #
point $-1 39.774847038622049 -13.225673603436746 8.0826727825056466 #
vertex $-1 $359 $479 #
point $-1 39.774847038622049 -10.242972376427605 8.0826727825056466 #
coedge $-1 $374 $373 $366 $450 forward $363 $-1 #
edge $-1 $451 7.840285594004925 $454 18.612814851457252 $449 $480 forward 7 unknown #
vertex $-1 $450 $481 #
straight-curve $-1 -46.356395153660699 0.55850451698579207 36.369944382094026 0 0 1 I I #
edge $-1 $454 -1.7678769050938499 $375 6.4206397492531337 $374 $482 forward 7 unknown #
vertex $-1 $453 $483 #
straight-curve $-1 -46.356395153660692 0.55850451698579207 3.8408590635327329 -0.74314481823134659 0 -0.66913061440640931 I I #
point $-1 -46.356395153660699 0.55850451698579207 3.8408590635327267 #
point $-1 -35.583865896208373 8.7470211713327757 13.540488185492263 #
straight-curve $-1 -46.356395153660699 0 13.540488185492263 0 -1 0 I I #
vertex $-1 $381 $484 #
point $-1 -38.096803178208368 4.6527628441592839 6.9939969154231818 #
straight-curve $-1 -46.356395153660699 31.895186143949573 0 0 0 -1 I I #
point $-1 -46.356395153660699 -31.895186143949573 -13.540488185492263 #
straight-curve $-1 -46.356395153660699 0 -13.540488185492263 0 1 0 I I #
point $-1 -46.356395153660699 31.895186143949573 -13.540488185492263 #
straight-curve $-1 -46.356395153660699 -11.77733180801477 -3.1195546132509664 0 -1 0 I I #
point $-1 -46.356395153660699 -31.895186143949573 -3.1195546132509664 #
point $-1 -46.356395153660699 -15.214141088109507 -3.1195546132509664 #
straight-curve $-1 -46.356395153660699 -15.214141088109507 -0.25748623658032788 0 0 -1 I I #
straight-curve $-1 -46.356395153660699 -31.895186143949573 0 0 0 -1 I I #
point $-1 -46.356395153660699 15.21414108810951 -3.1195546132509664 #
straight-curve $-1 -46.356395153660699 11.777331808014772 -3.1195546132509664 0 -1 0 I I #
point $-1 -46.356395153660699 31.895186143949577 -3.1195546132509664 #
straight-curve $-1 -46.356395153660699 31.895186143949573 0 0 0 -1 I I #
straight-curve $-1 9.5479561942843532 -8.2545048917548431 13.540488185492265 -1 0 0 I I #
point $-1 46.356395153660699 -8.2545048917548431 13.540488185492263 #
straight-curve $-1 33.790000811945468 -5.8671614949660871 13.540488185492261 0 -1 0 I I #
point $-1 33.790000811945461 -8.2545048917548431 13.540488185492265 #
point $-1 39.083192235890934 -13.225673603436746 7.9356570219254197 #
point $-1 39.083192235890934 -10.242972376427605 7.9356570219254197 #
straight-curve $-1 -54.196680747665624 0.55850451698579207 13.540488185492265 1 0 0 I I #
point $-1 -46.356395153660699 0.55850451698579207 13.540488185492263 #
straight-curve $-1 -35.58386589620838 2.3263814220796419 13.540488185492263 0 1 0 I I #
point $-1 -35.583865896208373 0.55850451698579207 13.540488185492263 #
point $-1 -38.170817382033306 4.6527628441592839 5.5817214827854258 #
End-of-ACIS-data 