500 0 8 0           
7 Unknown 11 ACIS 5.0 NT 24 Thu Mar 25 19:18:25 1999 
-1 9.9999999999999995e-007 1e-010 
body $-1 $8 $-1 $9 #
body $-1 $10 $-1 $11 #
body $-1 $12 $-1 $13 #
body $-1 $14 $-1 $15 #
body $-1 $16 $-1 $17 #
body $-1 $18 $-1 $19 #
body $-1 $20 $-1 $21 #
body $-1 $22 $-1 $23 #
lump $-1 $-1 $24 $0 #
transform $-1 1 0 0 0 1 0 0 0 1 48.448744163335064 21.494019868403747 5.0438495306903315 1 rotate no_reflect no_shear #
lump $-1 $-1 $25 $1 #
transform $-1 1 0 0 0 1 0 0 0 1 48.448744163335064 21.494019868403747 5.0438495306903315 1 rotate no_reflect no_shear #
lump $-1 $-1 $26 $2 #
transform $-1 1 0 0 0 1 0 0 0 1 48.448744163335064 21.494019868403747 5.0438495306903315 1 rotate no_reflect no_shear #
lump $-1 $-1 $27 $3 #
transform $-1 1 0 0 0 1 0 0 0 1 48.448744163335064 21.494019868403747 5.0438495306903315 1 rotate no_reflect no_shear #
lump $-1 $-1 $28 $4 #
transform $-1 1 0 0 0 1 0 0 0 1 48.448744163335064 21.494019868403747 5.0438495306903315 1 rotate no_reflect no_shear #
lump $-1 $-1 $29 $5 #
transform $-1 1 0 0 0 1 0 0 0 1 48.448744163335064 21.494019868403747 5.0438495306903315 1 rotate no_reflect no_shear #
lump $-1 $-1 $30 $6 #
transform $-1 1 0 0 0 1 0 0 0 1 48.448744163335064 21.494019868403747 5.0438495306903315 1 rotate no_reflect no_shear #
lump $-1 $-1 $31 $7 #
transform $-1 1 0 0 0 1 0 0 0 1 48.448744163335064 21.494019868403747 5.0438495306903315 1 rotate no_reflect no_shear #
shell $-1 $-1 $-1 $32 $-1 $8 #
shell $-1 $-1 $-1 $33 $-1 $10 #
shell $-1 $-1 $-1 $34 $-1 $12 #
shell $-1 $-1 $-1 $35 $-1 $14 #
shell $-1 $-1 $-1 $36 $-1 $16 #
shell $-1 $-1 $-1 $37 $-1 $18 #
shell $-1 $-1 $-1 $38 $-1 $20 #
shell $-1 $-1 $-1 $39 $-1 $22 #
face $-1 $40 $41 $24 $-1 $42 forward single #
face $-1 $43 $44 $25 $-1 $45 forward single #
face $-1 $46 $47 $26 $-1 $48 reversed single #
face $-1 $49 $50 $27 $-1 $51 forward single #
face $-1 $52 $53 $28 $-1 $54 reversed single #
face $-1 $55 $56 $29 $-1 $57 forward single #
face $-1 $58 $59 $30 $-1 $60 forward single #
face $-1 $61 $62 $31 $-1 $63 forward single #
face $-1 $64 $65 $24 $-1 $66 reversed single #
loop $-1 $-1 $67 $32 #
plane-surface $-1 0 0 5.0438495306903315 0 0 1 1 0 0 forward_v I I I I #
face $-1 $68 $69 $25 $-1 $70 reversed single #
loop $-1 $-1 $71 $33 #
plane-surface $-1 0 -18.908495526942509 1.1897090272667448 0 0 1 1 0 0 forward_v I I I I #
face $-1 $72 $73 $26 $-1 $74 reversed single #
loop $-1 $-1 $75 $34 #
plane-surface $-1 86.220364579436094 -16.322971185481272 133.34473517631375 0 1 0 0.87461971476443456 0 0.48480960649040278 forward_v I I I I #
face $-1 $76 $77 $27 $-1 $78 forward single #
loop $-1 $79 $80 $35 #
cone-surface $-1 47.06234606685932 -11.144852593174988 3.089244156644984 -0.87461971476443456 0 -0.48480960649040278 0.24240480324520139 0 -0.43730985738221728 1 I I 0 1 0.5 forward I I I I #
face $-1 $81 $82 $28 $-1 $83 reversed single #
loop $-1 $-1 $84 $36 #
plane-surface $-1 -122.6765274511214 -13.457298268267085 62.564693532989871 0 1 0 -0.7660444514056185 0 0.64278759981090561 forward_v I I I I #
face $-1 $85 $86 $29 $-1 $87 forward single #
loop $-1 $88 $89 $37 #
cone-surface $-1 -45.82742921989697 -11.631324683835995 2.1394934821507099 0.7660444514056185 0 -0.64278759981090561 0.3213937999054528 0 0.38302222570280925 1 I I 0 1 0.5 forward I I I I #
face $-1 $90 $91 $30 $-1 $92 forward single #
loop $-1 $93 $94 $38 #
cone-surface $-1 -45.82742921989697 -8.8923643071893608 2.1394934821507099 0.7660444514056185 0 -0.64278759981090561 0.3213937999054528 0 0.38302222570280925 1 I I 0 1 0.5 forward I I I I #
face $-1 $95 $96 $31 $-1 $97 forward single #
loop $-1 $98 $99 $39 #
cone-surface $-1 -45.82742921989697 -6.1534039305427264 2.1394934821507099 0.7660444514056185 0 -0.64278759981090561 0.3213937999054528 0 0.38302222570280925 1 I I 0 1 0.5 forward I I I I #
face $-1 $100 $101 $24 $-1 $102 reversed single #
loop $-1 $-1 $103 $40 #
plane-surface $-1 0 0 -5.0438495306903315 0 0 1 1 0 0 forward_v I I I I #
coedge $-1 $104 $105 $106 $107 forward $41 $-1 #
face $-1 $108 $109 $25 $-1 $110 reversed single #
loop $-1 $-1 $111 $43 #
plane-surface $-1 0 -18.908495526942509 -1.8102909727332548 0 0 1 1 0 0 forward_v I I I I #
coedge $-1 $112 $113 $114 $115 reversed $44 $-1 #
face $-1 $116 $117 $26 $-1 $118 reversed single #
loop $-1 $-1 $119 $46 #
plane-surface $-1 1.4719109777737316 -11.14485259317499 86.367901990752415 0.87461971476443456 0 0.48480960649040278 0.48480960649040278 0 -0.87461971476443456 forward_v I I I I #
coedge $-1 $120 $121 $122 $123 reversed $47 $-1 #
face $-1 $-1 $124 $27 $-1 $125 forward single #
loop $-1 $126 $127 $49 #
cone-surface $-1 46.406381280785993 -11.144852593174988 2.7256369517771821 -0.87461971476443456 0 -0.48480960649040278 0.12120240162260069 0 -0.21865492869110864 1 I I -0.70710678118654746 0.70710678118654746 0.25 forward I I I I #
loop $-1 $-1 $128 $35 #
coedge $-1 $80 $80 $129 $130 reversed $50 $-1 #
face $-1 $131 $132 $28 $-1 $133 reversed single #
loop $-1 $-1 $134 $52 #
plane-surface $-1 -48.448744163335064 -8.8923643071893608 0.28018958378433467 -0.7660444514056185 0 0.64278759981090561 0.64278759981090561 0 0.7660444514056185 forward_v I I I I #
coedge $-1 $135 $136 $137 $138 reversed $53 $-1 #
face $-1 $-1 $139 $29 $-1 $140 forward single #
loop $-1 $141 $142 $55 #
cone-surface $-1 -45.013195763533318 -11.631324683835995 1.4562705071113662 0.7660444514056185 0 -0.64278759981090561 0.1606968999527264 0 0.19151111285140462 1 I I -0.70710678118654746 0.70710678118654746 0.25 forward I I I I #
loop $-1 $-1 $143 $37 #
coedge $-1 $89 $89 $144 $145 reversed $56 $-1 #
face $-1 $-1 $146 $30 $-1 $147 forward single #
loop $-1 $148 $149 $58 #
cone-surface $-1 -45.013195763533318 -8.8923643071893608 1.4562705071113662 0.7660444514056185 0 -0.64278759981090561 0.1606968999527264 0 0.19151111285140462 1 I I -0.70710678118654746 0.70710678118654746 0.25 forward I I I I #
loop $-1 $-1 $150 $38 #
coedge $-1 $94 $94 $151 $152 reversed $59 $-1 #
face $-1 $-1 $153 $31 $-1 $154 forward single #
loop $-1 $155 $156 $61 #
cone-surface $-1 -45.013195763533318 -6.1534039305427264 1.4562705071113662 0.7660444514056185 0 -0.64278759981090561 0.1606968999527264 0 0.19151111285140462 1 I I -0.70710678118654746 0.70710678118654746 0.25 forward I I I I #
loop $-1 $-1 $157 $39 #
coedge $-1 $99 $99 $158 $159 reversed $62 $-1 #
face $-1 $160 $161 $24 $-1 $162 reversed single #
loop $-1 $-1 $163 $64 #
plane-surface $-1 0 -21.494019868403747 0 0 1 0 0 0 1 forward_v I I I I #
coedge $-1 $164 $165 $166 $167 forward $65 $-1 #
coedge $-1 $168 $67 $169 $170 forward $41 $-1 #
coedge $-1 $67 $168 $171 $172 forward $41 $-1 #
coedge $-1 $173 $174 $67 $107 reversed $175 $-1 #
edge $-1 $176 -21.494019868403747 $177 21.494019868403747 $106 $178 forward 7 unknown #
face $-1 $179 $180 $25 $-1 $181 reversed single #
loop $-1 $-1 $182 $68 #
plane-surface $-1 0 -16.322971185481272 -0.31029097273325501 0 -1 0 0 0 -1 forward_v I I I I #
coedge $-1 $183 $184 $185 $186 reversed $69 $-1 #
coedge $-1 $187 $71 $188 $189 forward $44 $-1 #
coedge $-1 $71 $187 $190 $191 reversed $44 $-1 #
coedge $-1 $192 $193 $71 $115 forward $194 $-1 #
edge $-1 $195 6.8687234220100173 $196 12.039772104932492 $114 $197 forward 7 unknown #
face $-1 $198 $199 $26 $-1 $200 forward single #
loop $-1 $-1 $201 $72 #
plane-surface $-1 86.220364579436094 -5.9667340008687084 133.34473517631375 0 -1 0 -0.87461971476443456 0 -0.48480960649040278 forward_v I I I I #
coedge $-1 $202 $203 $204 $205 reversed $73 $-1 #
coedge $-1 $121 $75 $206 $207 reversed $47 $-1 #
coedge $-1 $75 $120 $202 $208 reversed $47 $-1 #
coedge $-1 $204 $209 $75 $123 forward $210 $-1 #
edge $-1 $211 61.628518057466543 $212 65.052919199066807 $122 $213 forward 7 unknown #
loop $-1 $-1 $129 $76 #
plane-surface $-1 1.4719109777737316 -11.14485259317499 86.367901990752415 0.87461971476443456 0 0.48480960649040278 0.48480960649040278 0 -0.87461971476443456 forward_v I I I I #
loop $-1 $-1 $214 $49 #
coedge $-1 $127 $127 $128 $215 reversed $77 $-1 #
coedge $-1 $128 $128 $127 $215 forward $79 $-1 #
coedge $-1 $129 $129 $80 $130 forward $124 $-1 #
edge $-1 $216 0 $216 6.2831853071796004 $129 $217 forward 7 unknown #
face $-1 $218 $219 $28 $-1 $220 reversed single #
loop $-1 $-1 $221 $81 #
plane-surface $-1 -122.6765274511214 -4.3274303461116368 62.564693532989871 0 -1 0 0.7660444514056185 0 -0.64278759981090561 forward_v I I I I #
coedge $-1 $222 $223 $224 $225 reversed $82 $-1 #
coedge $-1 $136 $84 $226 $227 reversed $53 $-1 #
coedge $-1 $84 $135 $222 $228 reversed $53 $-1 #
coedge $-1 $224 $229 $84 $138 forward $230 $-1 #
edge $-1 $231 12.889519562225637 $232 16.886704762077336 $137 $233 forward 7 unknown #
loop $-1 $-1 $144 $85 #
plane-surface $-1 -48.448744163335064 -8.8923643071893608 0.28018958378433467 -0.7660444514056185 0 0.64278759981090561 0.64278759981090561 0 0.7660444514056185 forward_v I I I I #
loop $-1 $-1 $234 $55 #
coedge $-1 $142 $142 $143 $235 reversed $86 $-1 #
coedge $-1 $143 $143 $142 $235 forward $88 $-1 #
coedge $-1 $144 $144 $89 $145 forward $139 $-1 #
edge $-1 $236 0 $236 6.2831853071796004 $144 $237 forward 7 unknown #
loop $-1 $-1 $151 $90 #
plane-surface $-1 -48.448744163335064 -8.8923643071893608 0.28018958378433467 -0.7660444514056185 0 0.64278759981090561 0.64278759981090561 0 0.7660444514056185 forward_v I I I I #
loop $-1 $-1 $238 $58 #
coedge $-1 $149 $149 $150 $239 reversed $91 $-1 #
coedge $-1 $150 $150 $149 $239 forward $93 $-1 #
coedge $-1 $151 $151 $94 $152 forward $146 $-1 #
edge $-1 $240 0 $240 6.2831853071796004 $151 $241 forward 7 unknown #
loop $-1 $-1 $158 $95 #
plane-surface $-1 -48.448744163335064 -8.8923643071893608 0.28018958378433467 -0.7660444514056185 0 0.64278759981090561 0.64278759981090561 0 0.7660444514056185 forward_v I I I I #
loop $-1 $-1 $242 $61 #
coedge $-1 $156 $156 $157 $243 reversed $96 $-1 #
coedge $-1 $157 $157 $156 $243 forward $98 $-1 #
coedge $-1 $158 $158 $99 $159 forward $153 $-1 #
edge $-1 $244 0 $244 6.2831853071796004 $158 $245 forward 7 unknown #
face $-1 $246 $247 $24 $-1 $248 reversed single #
loop $-1 $-1 $249 $100 #
plane-surface $-1 -48.448744163335064 0 0 1 0 0 0 0 -1 forward_v I I I I #
coedge $-1 $250 $171 $251 $252 forward $101 $-1 #
coedge $-1 $253 $103 $250 $254 forward $65 $-1 #
coedge $-1 $103 $253 $255 $256 forward $65 $-1 #
coedge $-1 $174 $173 $103 $167 reversed $175 $-1 #
edge $-1 $257 -21.494019868403747 $258 21.494019868403747 $166 $259 forward 7 unknown #
coedge $-1 $105 $104 $260 $261 forward $41 $-1 #
coedge $-1 $262 $263 $104 $170 reversed $247 $-1 #
edge $-1 $177 -48.448744163335064 $264 48.448744163335064 $169 $265 forward 7 unknown #
coedge $-1 $163 $266 $105 $172 reversed $101 $-1 #
edge $-1 $267 -48.448744163335064 $176 48.448744163335064 $171 $268 forward 7 unknown #
coedge $-1 $166 $106 $266 $269 forward $175 $-1 #
coedge $-1 $106 $166 $262 $270 reversed $175 $-1 #
loop $-1 $-1 $173 $246 #
vertex $-1 $107 $271 #
vertex $-1 $107 $272 #
straight-curve $-1 48.448744163335064 0 5.0438495306903315 0 1 0 I I #
face $-1 $273 $274 $25 $-1 $275 reversed single #
loop $-1 $-1 $276 $108 #
plane-surface $-1 -48.448744163335064 0 0 1 0 0 0 0 -1 forward_v I I I I #
coedge $-1 $277 $188 $193 $278 reversed $109 $-1 #
coedge $-1 $279 $111 $280 $281 reversed $69 $-1 #
coedge $-1 $111 $279 $277 $282 forward $69 $-1 #
coedge $-1 $193 $192 $111 $186 forward $194 $-1 #
edge $-1 $283 -12.039772104932492 $284 -6.8687234220100173 $185 $285 forward 7 unknown #
coedge $-1 $113 $112 $276 $286 reversed $44 $-1 #
coedge $-1 $182 $287 $112 $189 reversed $109 $-1 #
edge $-1 $195 -48.448744163335064 $288 48.448744163335064 $188 $289 forward 7 unknown #
coedge $-1 $290 $291 $113 $191 forward $274 $-1 #
edge $-1 $196 -48.448744163335064 $292 48.448744163335064 $190 $293 forward 7 unknown #
coedge $-1 $185 $114 $291 $294 forward $194 $-1 #
coedge $-1 $114 $185 $182 $278 forward $194 $-1 #
loop $-1 $-1 $114 $273 #
vertex $-1 $115 $295 #
vertex $-1 $294 $296 #
straight-curve $-1 48.448744163335064 -9.4542477634712547 1.1897090272667448 0 -1 0 I I #
face $-1 $-1 $210 $26 $-1 $297 reversed single #
loop $-1 $-1 $298 $116 #
plane-surface $-1 0 0 5.0438495306903315 0 0 1 1 0 0 forward_v I I I I #
coedge $-1 $299 $300 $301 $302 reversed $117 $-1 #
coedge $-1 $303 $119 $121 $208 forward $73 $-1 #
coedge $-1 $119 $303 $299 $304 forward $73 $-1 #
coedge $-1 $301 $122 $119 $205 forward $210 $-1 #
edge $-1 $212 -10.750544888893778 $305 -0.39430770428121331 $204 $306 forward 7 unknown #
coedge $-1 $307 $308 $120 $207 forward $199 $-1 #
edge $-1 $309 3.4403853954299777 $211 5.3385618736170173 $206 $310 forward 7 unknown #
edge $-1 $212 -96.897488326670128 $309 -92.982185385525497 $121 $311 forward 7 unknown #
coedge $-1 $122 $301 $307 $312 reversed $210 $-1 #
loop $-1 $-1 $301 $198 #
vertex $-1 $312 $313 #
vertex $-1 $123 $314 #
straight-curve $-1 48.448744163335064 -16.322971185481272 66.672367588156874 0 0 -1 I I #
coedge $-1 $214 $214 $-1 $315 reversed $126 $-1 #
edge $-1 $316 0 $316 6.2831853071796004 $127 $317 forward 7 unknown #
vertex $-1 $130 $318 #
ellipse-curve $-1 47.499655924241551 -11.144852593174988 3.3316489598901922 0.87461971476443456 0 0.48480960649040278 0.24240480324520139 0 -0.43730985738221728 1 I I #
face $-1 $-1 $230 $28 $-1 $319 forward single #
loop $-1 $-1 $320 $131 #
plane-surface $-1 -48.448744163335064 0 0 1 0 0 0 0 -1 forward_v I I I I #
coedge $-1 $321 $322 $323 $324 reversed $132 $-1 #
coedge $-1 $325 $134 $136 $228 forward $82 $-1 #
coedge $-1 $134 $325 $321 $326 forward $82 $-1 #
coedge $-1 $323 $137 $134 $225 forward $230 $-1 #
edge $-1 $232 -9.0111161146724044 $327 0.11875180748304359 $224 $328 forward 7 unknown #
coedge $-1 $329 $330 $135 $227 forward $219 $-1 #
edge $-1 $331 -31.002157182710601 $231 -26.238497235804605 $226 $332 forward 7 unknown #
edge $-1 $232 -6.2185163513228732 $331 0 $136 $333 forward 7 unknown #
coedge $-1 $137 $323 $329 $334 forward $230 $-1 #
loop $-1 $-1 $323 $218 #
vertex $-1 $227 $335 #
vertex $-1 $138 $336 #
straight-curve $-1 -61.338263725560701 -13.457298268267085 5.0438495306903306 1 0 0 I I #
coedge $-1 $234 $234 $-1 $337 reversed $141 $-1 #
edge $-1 $338 0 $338 6.2831853071796004 $142 $339 forward 7 unknown #
vertex $-1 $145 $340 #
ellipse-curve $-1 -46.450151563409221 -11.631324683835995 2.6620195572373291 -0.7660444514056185 0 0.64278759981090561 0.3213937999054528 0 0.38302222570280925 1 I I #
coedge $-1 $238 $238 $-1 $341 reversed $148 $-1 #
edge $-1 $342 0 $342 6.2831853071796004 $149 $343 forward 7 unknown #
vertex $-1 $152 $344 #
ellipse-curve $-1 -46.450151563409221 -8.8923643071893608 2.6620195572373291 -0.7660444514056185 0 0.64278759981090561 0.3213937999054528 0 0.38302222570280925 1 I I #
coedge $-1 $242 $242 $-1 $345 reversed $155 $-1 #
edge $-1 $346 0 $346 6.2831853071796004 $156 $347 forward 7 unknown #
vertex $-1 $159 $348 #
ellipse-curve $-1 -46.450151563409221 -6.1534039305427264 2.6620195572373291 -0.7660444514056185 0 0.64278759981090561 0.3213937999054528 0 0.38302222570280925 1 I I #
face $-1 $-1 $175 $24 $-1 $349 reversed single #
loop $-1 $-1 $262 $160 #
plane-surface $-1 0 21.494019868403747 0 0 -1 0 0 0 -1 forward_v I I I I #
coedge $-1 $350 $260 $263 $351 forward $161 $-1 #
coedge $-1 $266 $163 $164 $254 reversed $101 $-1 #
coedge $-1 $260 $350 $163 $252 reversed $161 $-1 #
edge $-1 $267 -5.0438495306903315 $352 5.0438495306903315 $251 $353 forward 7 unknown #
coedge $-1 $165 $164 $350 $354 forward $65 $-1 #
edge $-1 $258 -48.448744163335064 $352 48.448744163335064 $250 $355 forward 7 unknown #
coedge $-1 $263 $262 $165 $256 reversed $247 $-1 #
edge $-1 $356 -48.448744163335064 $257 48.448744163335064 $255 $357 forward 7 unknown #
vertex $-1 $167 $358 #
vertex $-1 $269 $359 #
straight-curve $-1 48.448744163335064 0 -5.0438495306903315 0 -1 0 I I #
coedge $-1 $249 $251 $168 $261 reversed $161 $-1 #
edge $-1 $264 -21.494019868403747 $267 21.494019868403747 $260 $360 forward 7 unknown #
coedge $-1 $255 $169 $174 $270 forward $247 $-1 #
coedge $-1 $169 $255 $249 $351 reversed $247 $-1 #
vertex $-1 $170 $361 #
straight-curve $-1 0 21.494019868403747 5.0438495306903315 -1 0 0 I I #
coedge $-1 $171 $250 $173 $269 reversed $101 $-1 #
vertex $-1 $261 $362 #
straight-curve $-1 0 -21.494019868403747 5.0438495306903315 1 0 0 I I #
edge $-1 $176 -5.0438495306903315 $258 5.0438495306903315 $173 $363 forward 7 unknown #
edge $-1 $177 -5.0438495306903315 $257 5.0438495306903315 $174 $364 forward 7 unknown #
point $-1 48.448744163335064 -21.494019868403747 5.0438495306903315 #
point $-1 48.448744163335064 21.494019868403747 5.0438495306903315 #
face $-1 $-1 $194 $25 $-1 $365 reversed single #
loop $-1 $-1 $190 $179 #
plane-surface $-1 0 -21.494019868403747 0 0 1 0 0 0 1 forward_v I I I I #
coedge $-1 $366 $367 $187 $286 forward $180 $-1 #
coedge $-1 $287 $182 $184 $282 reversed $109 $-1 #
edge $-1 $284 -1.6551454863666273 $195 1.3448545136333723 $193 $368 forward 7 unknown #
coedge $-1 $184 $183 $369 $370 reversed $69 $-1 #
coedge $-1 $291 $290 $183 $281 forward $274 $-1 #
edge $-1 $371 -48.448744163335064 $283 48.448744163335064 $280 $372 forward 7 unknown #
edge $-1 $373 -48.448744163335064 $284 48.448744163335064 $277 $374 forward 7 unknown #
vertex $-1 $281 $375 #
vertex $-1 $186 $376 #
straight-curve $-1 48.448744163335064 -9.4542477634712547 -1.8102909727332548 0 1 0 I I #
edge $-1 $292 -12.039772104932492 $288 -6.8687234220100173 $276 $377 forward 7 unknown #
coedge $-1 $188 $277 $366 $378 reversed $109 $-1 #
vertex $-1 $286 $379 #
straight-curve $-1 0 -16.322971185481272 1.1897090272667448 -1 0 0 I I #
coedge $-1 $280 $190 $367 $380 forward $274 $-1 #
coedge $-1 $190 $280 $192 $294 reversed $274 $-1 #
vertex $-1 $380 $381 #
straight-curve $-1 0 -21.494019868403747 1.1897090272667448 -1 0 0 I I #
edge $-1 $196 -1.1897090272667448 $283 1.8102909727332548 $192 $382 forward 7 unknown #
point $-1 48.448744163335064 -16.322971185481272 1.1897090272667448 #
point $-1 48.448744163335064 -21.494019868403747 1.1897090272667448 #
plane-surface $-1 48.448744163335064 0 0 -1 0 0 0 0 1 forward_v I I I I #
coedge $-1 $308 $307 $300 $383 forward $199 $-1 #
coedge $-1 $300 $201 $203 $304 reversed $117 $-1 #
coedge $-1 $201 $299 $298 $383 reversed $117 $-1 #
coedge $-1 $209 $204 $201 $302 forward $210 $-1 #
edge $-1 $305 -65.052919199066807 $384 -61.628518057466543 $301 $385 forward 7 unknown #
coedge $-1 $203 $202 $308 $386 reversed $73 $-1 #
edge $-1 $387 92.982185385525497 $305 96.897488326670128 $299 $388 forward 7 unknown #
vertex $-1 $205 $389 #
straight-curve $-1 48.448744163335064 -5.5724262965874951 1.6194483890900742 0 1 0 I I #
coedge $-1 $298 $206 $209 $312 forward $199 $-1 #
coedge $-1 $206 $298 $303 $386 forward $199 $-1 #
vertex $-1 $207 $390 #
straight-curve $-1 43.110182289718047 -16.322971185481272 5.0438495306903377 1 0 0 I I #
straight-curve $-1 1.4719109777737316 -16.322971185481272 86.367901990752415 -0.48480960649040278 0 0.87461971476443456 I I #
edge $-1 $211 -16.322971185481272 $384 -5.9667340008687084 $209 $391 forward 7 unknown #
point $-1 48.448744163335064 -16.322971185481272 5.0438495306903315 #
point $-1 48.448744163335064 -16.322971185481272 1.6194483890900671 #
edge $-1 $392 1 $392 0 $214 $-1 forward 7 unknown #
vertex $-1 $215 $393 #
ellipse-curve $-1 46.625036209477102 -11.144852593174988 2.8468393533997829 0.87461971476443456 0 0.48480960649040278 0.24240480324520139 0 -0.43730985738221728 1 I I #
point $-1 47.742060727486738 -11.144852593174988 2.8943391025079683 #
plane-surface $-1 0 0 5.0438495306903315 0 0 1 1 0 0 forward_v I I I I #
coedge $-1 $330 $329 $322 $394 forward $219 $-1 #
coedge $-1 $322 $221 $223 $326 reversed $132 $-1 #
coedge $-1 $221 $321 $320 $394 reversed $132 $-1 #
coedge $-1 $229 $224 $221 $324 forward $230 $-1 #
edge $-1 $327 -16.886704762077336 $395 -12.889519562225637 $323 $396 forward 7 unknown #
coedge $-1 $223 $222 $330 $397 reversed $82 $-1 #
edge $-1 $398 0 $327 6.2185163513228732 $321 $399 forward 7 unknown #
vertex $-1 $225 $400 #
straight-curve $-1 -44.451558963483365 -4.4461821535946804 5.0438495306903306 0 1 0 I I #
coedge $-1 $320 $226 $229 $334 reversed $219 $-1 #
coedge $-1 $226 $320 $325 $397 forward $219 $-1 #
vertex $-1 $227 $401 #
straight-curve $-1 -48.448744163335064 -13.457298268267085 31.282346766494936 0 0 1 I I #
straight-curve $-1 -48.448744163335064 -13.457298268267085 0.28018958378433467 -0.64278759981090561 0 -0.7660444514056185 I I #
edge $-1 $395 4.3274303461116368 $231 13.457298268267085 $329 $402 forward 7 unknown #
point $-1 -48.448744163335064 -13.457298268267085 5.0438495306903315 #
point $-1 -44.451558963483365 -13.457298268267085 5.0438495306903315 #
edge $-1 $403 1 $403 0 $234 $-1 forward 7 unknown #
vertex $-1 $235 $404 #
ellipse-curve $-1 -45.204706876384719 -11.631324683835995 1.6169674070640925 -0.7660444514056185 0 0.64278759981090561 0.3213937999054528 0 0.38302222570280925 1 I I #
point $-1 -46.128757763503764 -11.631324683835995 3.0450417829401362 #
edge $-1 $405 1 $405 0 $238 $-1 forward 7 unknown #
vertex $-1 $239 $406 #
ellipse-curve $-1 -45.204706876384719 -8.8923643071893608 1.6169674070640925 -0.7660444514056185 0 0.64278759981090561 0.3213937999054528 0 0.38302222570280925 1 I I #
point $-1 -46.128757763503764 -8.8923643071893608 3.0450417829401362 #
edge $-1 $407 1 $407 0 $242 $-1 forward 7 unknown #
vertex $-1 $243 $408 #
ellipse-curve $-1 -45.204706876384719 -6.1534039305427264 1.6169674070640925 -0.7660444514056185 0 0.64278759981090561 0.3213937999054528 0 0.38302222570280925 1 I I #
point $-1 -46.128757763503764 -6.1534039305427264 3.0450417829401362 #
plane-surface $-1 48.448744163335064 0 0 -1 0 0 0 0 1 forward_v I I I I #
coedge $-1 $251 $249 $253 $354 reversed $161 $-1 #
edge $-1 $264 -5.0438495306903315 $356 5.0438495306903315 $263 $409 forward 7 unknown #
vertex $-1 $354 $410 #
straight-curve $-1 -48.448744163335064 -21.494019868403747 0 0 0 -1 I I #
edge $-1 $352 -21.494019868403747 $356 21.494019868403747 $350 $411 forward 7 unknown #
straight-curve $-1 0 -21.494019868403747 -5.0438495306903315 -1 0 0 I I #
vertex $-1 $256 $412 #
straight-curve $-1 0 21.494019868403747 -5.0438495306903315 1 0 0 I I #
point $-1 48.448744163335064 21.494019868403747 -5.0438495306903315 #
point $-1 48.448744163335064 -21.494019868403747 -5.0438495306903315 #
straight-curve $-1 -48.448744163335064 0 5.0438495306903315 0 -1 0 I I #
point $-1 -48.448744163335064 21.494019868403747 5.0438495306903315 #
point $-1 -48.448744163335064 -21.494019868403747 5.0438495306903315 #
straight-curve $-1 48.448744163335064 -21.494019868403747 0 0 0 -1 I I #
straight-curve $-1 48.448744163335064 21.494019868403747 0 0 0 -1 I I #
plane-surface $-1 48.448744163335064 0 0 -1 0 0 0 0 1 forward_v I I I I #
coedge $-1 $369 $276 $287 $378 forward $180 $-1 #
coedge $-1 $276 $369 $290 $380 reversed $180 $-1 #
straight-curve $-1 48.448744163335064 -16.322971185481272 -0.15514548636662751 0 0 1 I I #
coedge $-1 $367 $366 $279 $370 forward $180 $-1 #
edge $-1 $373 6.8687234220100173 $371 12.039772104932492 $369 $413 forward 7 unknown #
vertex $-1 $281 $414 #
straight-curve $-1 0 -21.494019868403747 -1.8102909727332548 1 0 0 I I #
vertex $-1 $370 $415 #
straight-curve $-1 0 -16.322971185481272 -1.8102909727332548 1 0 0 I I #
point $-1 48.448744163335064 -21.494019868403747 -1.8102909727332548 #
point $-1 48.448744163335064 -16.322971185481272 -1.8102909727332548 #
straight-curve $-1 -48.448744163335064 -9.4542477634712547 1.1897090272667448 0 1 0 I I #
edge $-1 $288 -1.3448545136333723 $373 1.6551454863666273 $366 $416 forward 7 unknown #
point $-1 -48.448744163335064 -16.322971185481272 1.1897090272667448 #
edge $-1 $292 -1.1897090272667448 $371 1.8102909727332548 $367 $417 forward 7 unknown #
point $-1 -48.448744163335064 -21.494019868403747 1.1897090272667448 #
straight-curve $-1 48.448744163335064 -21.494019868403747 0 0 0 -1 I I #
edge $-1 $384 -5.3385618736170173 $387 -3.4403853954299777 $298 $418 forward 7 unknown #
vertex $-1 $383 $419 #
straight-curve $-1 48.448744163335064 -5.9667340008687084 66.672367588156874 0 0 1 I I #
edge $-1 $387 0.39430770428121331 $309 10.750544888893778 $308 $420 forward 7 unknown #
vertex $-1 $386 $421 #
straight-curve $-1 1.4719109777737316 -5.9667340008687084 86.367901990752415 0.48480960649040278 0 -0.87461971476443456 I I #
point $-1 48.448744163335064 -5.9667340008687084 1.6194483890900671 #
point $-1 46.550567685148025 -16.322971185481272 5.0438495306903377 #
straight-curve $-1 48.448744163335064 0 5.0438495306903315 0 1 0 I I #
vertex $-1 $315 $422 #
point $-1 46.867441012722303 -11.144852593174988 2.4095294960175657 #
edge $-1 $395 26.238497235804605 $398 31.002157182710601 $320 $423 forward 7 unknown #
vertex $-1 $334 $424 #
straight-curve $-1 -61.338263725560701 -4.3274303461116368 5.0438495306903306 -1 0 0 I I #
edge $-1 $398 -0.11875180748304359 $331 9.0111161146724044 $330 $425 forward 7 unknown #
vertex $-1 $397 $426 #
straight-curve $-1 -48.448744163335064 -4.3274303461116368 0.28018958378433467 0.64278759981090561 0 0.7660444514056185 I I #
point $-1 -44.451558963483365 -4.3274303461116368 5.0438495306903315 #
point $-1 -48.448744163335064 -13.457298268267085 0.28018958378433467 #
straight-curve $-1 -48.448744163335064 0 5.0438495306903315 0 -1 0 I I #
vertex $-1 $337 $427 #
point $-1 -44.883313076479268 -11.631324683835995 1.9999896327669018 #
vertex $-1 $341 $428 #
point $-1 -44.883313076479268 -8.8923643071893608 1.9999896327669018 #
vertex $-1 $345 $429 #
point $-1 -44.883313076479268 -6.1534039305427264 1.9999896327669018 #
straight-curve $-1 -48.448744163335064 21.494019868403747 0 0 0 -1 I I #
point $-1 -48.448744163335064 -21.494019868403747 -5.0438495306903315 #
straight-curve $-1 -48.448744163335064 0 -5.0438495306903315 0 1 0 I I #
point $-1 -48.448744163335064 21.494019868403747 -5.0438495306903315 #
straight-curve $-1 -48.448744163335064 -9.4542477634712547 -1.8102909727332548 0 -1 0 I I #
point $-1 -48.448744163335064 -21.494019868403747 -1.8102909727332548 #
point $-1 -48.448744163335064 -16.322971185481272 -1.8102909727332548 #
straight-curve $-1 -48.448744163335064 -16.322971185481272 -0.15514548636662751 0 0 -1 I I #
straight-curve $-1 -48.448744163335064 -21.494019868403747 0 0 0 -1 I I #
straight-curve $-1 43.110182289718047 -5.9667340008687084 5.0438495306903377 -1 0 0 I I #
point $-1 48.448744163335064 -5.9667340008687084 5.0438495306903315 #
straight-curve $-1 46.550567685148032 -5.5724262965874951 5.0438495306903306 0 -1 0 I I #
point $-1 46.550567685148025 -5.9667340008687084 5.0438495306903377 #
point $-1 46.187726352094884 -11.144852593174988 2.6044345501545814 #
straight-curve $-1 -48.448744163335064 -4.3274303461116368 31.282346766494936 0 0 -1 I I #
point $-1 -48.448744163335064 -4.3274303461116368 5.0438495306903315 #
straight-curve $-1 -48.448744163335064 -4.4461821535946804 0.28018958378433789 0 -1 0 I I #
point $-1 -48.448744163335064 -4.3274303461116368 0.28018958378433467 #
point $-1 -44.821684650681917 -11.631324683835995 1.2955736071586399 #
point $-1 -44.821684650681917 -8.8923643071893608 1.2955736071586399 #
point $-1 -44.821684650681917 -6.1534039305427264 1.2955736071586399 #
End-of-ACIS-data 