500 0 9 0           
7 Unknown 11 ACIS 5.0 NT 24 Fri Mar 26 14:48:04 1999 
-1 9.9999999999999995e-007 1e-010 
body $-1 $9 $-1 $10 #
body $-1 $11 $-1 $12 #
body $-1 $13 $-1 $14 #
body $-1 $15 $-1 $16 #
body $-1 $17 $-1 $18 #
body $-1 $19 $-1 $20 #
body $-1 $21 $-1 $22 #
body $-1 $23 $-1 $24 #
body $-1 $25 $-1 $26 #
lump $-1 $-1 $27 $0 #
transform $-1 1 0 0 0 1 0 0 0 1 74.008606219672231 35.41512938822104 7.2208300402772903 1 rotate no_reflect no_shear #
lump $-1 $-1 $28 $1 #
transform $-1 1 0 0 0 1 0 0 0 1 74.008606219672231 35.41512938822104 7.2208300402772903 1 rotate no_reflect no_shear #
lump $-1 $-1 $29 $2 #
transform $-1 1 0 0 0 1 0 0 0 1 74.008606219672231 35.41512938822104 7.2208300402772903 1 rotate no_reflect no_shear #
lump $-1 $-1 $30 $3 #
transform $-1 1 0 0 0 1 0 0 0 1 74.008606219672231 35.41512938822104 7.2208300402772903 1 rotate no_reflect no_shear #
lump $-1 $-1 $31 $4 #
transform $-1 1 0 0 0 1 0 0 0 1 74.008606219672231 35.41512938822104 7.2208300402772903 1 rotate no_reflect no_shear #
lump $-1 $-1 $32 $5 #
transform $-1 1 0 0 0 1 0 0 0 1 74.008606219672231 35.41512938822104 7.2208300402772903 1 rotate no_reflect no_shear #
lump $-1 $-1 $33 $6 #
transform $-1 1 0 0 0 1 0 0 0 1 74.008606219672231 35.41512938822104 7.2208300402772903 1 rotate no_reflect no_shear #
lump $-1 $-1 $34 $7 #
transform $-1 1 0 0 0 1 0 0 0 1 74.008606219672231 35.41512938822104 7.2208300402772903 1 rotate no_reflect no_shear #
lump $-1 $-1 $35 $8 #
transform $-1 1 0 0 0 1 0 0 0 1 74.008606219672231 35.41512938822104 7.2208300402772903 1 rotate no_reflect no_shear #
shell $-1 $-1 $-1 $36 $-1 $9 #
shell $-1 $-1 $-1 $37 $-1 $11 #
shell $-1 $-1 $-1 $38 $-1 $13 #
shell $-1 $-1 $-1 $39 $-1 $15 #
shell $-1 $-1 $-1 $40 $-1 $17 #
shell $-1 $-1 $-1 $41 $-1 $19 #
shell $-1 $-1 $-1 $42 $-1 $21 #
shell $-1 $-1 $-1 $43 $-1 $23 #
shell $-1 $-1 $-1 $44 $-1 $25 #
face $-1 $45 $46 $27 $-1 $47 forward single #
face $-1 $48 $49 $28 $-1 $50 forward single #
face $-1 $51 $52 $29 $-1 $53 reversed single #
face $-1 $54 $55 $30 $-1 $56 forward single #
face $-1 $57 $58 $31 $-1 $59 forward single #
face $-1 $60 $61 $32 $-1 $62 forward single #
face $-1 $63 $64 $33 $-1 $65 reversed single #
face $-1 $66 $67 $34 $-1 $68 forward single #
face $-1 $69 $70 $35 $-1 $71 forward single #
face $-1 $72 $73 $27 $-1 $74 reversed single #
loop $-1 $-1 $75 $36 #
plane-surface $-1 0 0 7.2208300402772903 0 0 1 1 0 0 forward_v I I I I #
face $-1 $76 $77 $28 $-1 $78 reversed single #
loop $-1 $-1 $79 $37 #
plane-surface $-1 -74.008606219672231 0 0 1 0 0 0 0 -1 forward_v I I I I #
face $-1 $80 $81 $29 $-1 $82 reversed single #
loop $-1 $-1 $83 $38 #
plane-surface $-1 -0.64850432956490778 98.018662767672424 153.49239175628094 1 0 0 0 -0.74314483375859142 -0.66913059716165679 forward_v I I I I #
face $-1 $84 $85 $30 $-1 $86 forward single #
loop $-1 $87 $88 $39 #
cone-surface $-1 7.4868691961367659 31.663775665817482 3.3312627452235075 0 -0.74314483375859142 -0.66913059716165679 1.5 0 0 1 I I 0 1 1.5 forward I I I I #
face $-1 $89 $90 $31 $-1 $91 forward single #
loop $-1 $92 $93 $40 #
cone-surface $-1 19.689929484689287 31.663775665817482 3.3312627452235075 0 -0.74314483375859142 -0.66913059716165679 1.5 0 0 1 I I 0 1 1.5 forward I I I I #
face $-1 $94 $95 $32 $-1 $96 forward single #
loop $-1 $97 $98 $41 #
cone-surface $-1 31.892989773241808 31.663775665817482 3.3312627452235075 0 -0.74314483375859142 -0.66913059716165679 1.5 0 0 1 I I 0 1 1.5 forward I I I I #
face $-1 $99 $100 $33 $-1 $101 reversed single #
loop $-1 $-1 $102 $42 #
plane-surface $-1 59.889952635440011 -162.29064499200211 80.072881150476377 -1 0 0 0 -0.85716730853699208 0.51503806187062418 forward_v I I I I #
face $-1 $103 $104 $34 $-1 $105 forward single #
loop $-1 $106 $107 $43 #
cone-surface $-1 30.951196001002529 -33.600592048323584 5.049910783525366 0 0.85716730853699208 -0.51503806187062418 0.5 0 0 1 I I 0 1 0.5 forward I I I I #
face $-1 $108 $109 $35 $-1 $110 forward single #
loop $-1 $111 $112 $44 #
cone-surface $-1 48.314449981665035 -33.600592048323584 5.049910783525366 0 0.85716730853699208 -0.51503806187062418 0.5 0 0 1 I I 0 1 0.5 forward I I I I #
face $-1 $113 $114 $27 $-1 $115 reversed single #
loop $-1 $-1 $116 $45 #
plane-surface $-1 0 0 -7.2208300402772903 0 0 1 1 0 0 forward_v I I I I #
coedge $-1 $117 $118 $119 $120 forward $46 $-1 #
face $-1 $121 $122 $28 $-1 $123 reversed single #
loop $-1 $-1 $124 $48 #
plane-surface $-1 0 35.41512938822104 0 0 -1 0 0 0 -1 forward_v I I I I #
coedge $-1 $125 $126 $127 $128 forward $49 $-1 #
face $-1 $129 $130 $29 $-1 $131 reversed single #
loop $-1 $-1 $132 $51 #
plane-surface $-1 19.689929484689287 -11.979563963974329 54.449546006538569 0 0.74314483375859142 0.66913059716165679 1 0 0 forward_v I I I I #
coedge $-1 $133 $134 $135 $136 reversed $52 $-1 #
face $-1 $-1 $137 $30 $-1 $138 forward single #
loop $-1 $139 $140 $54 #
cone-surface $-1 7.4868691961367659 29.78994709187463 1.6440599609163744 0 -0.74314483375859142 -0.66913059716165679 0.75 0 0 1 I I -0.70710678118654757 0.70710678118654757 0.75 forward I I I I #
loop $-1 $-1 $141 $39 #
coedge $-1 $88 $88 $142 $143 reversed $55 $-1 #
face $-1 $-1 $144 $31 $-1 $145 forward single #
loop $-1 $146 $147 $57 #
cone-surface $-1 19.689929484689287 29.78994709187463 1.6440599609163744 0 -0.74314483375859142 -0.66913059716165679 0.75 0 0 1 I I -0.70710678118654757 0.70710678118654757 0.75 forward I I I I #
loop $-1 $-1 $148 $40 #
coedge $-1 $93 $93 $149 $150 reversed $58 $-1 #
face $-1 $-1 $151 $32 $-1 $152 forward single #
loop $-1 $153 $154 $60 #
cone-surface $-1 31.892989773241808 29.78994709187463 1.6440599609163744 0 -0.74314483375859142 -0.66913059716165679 0.75 0 0 1 I I -0.70710678118654757 0.70710678118654757 0.75 forward I I I I #
loop $-1 $-1 $155 $41 #
coedge $-1 $98 $98 $156 $157 reversed $61 $-1 #
face $-1 $158 $159 $33 $-1 $160 reversed single #
loop $-1 $-1 $161 $63 #
plane-surface $-1 39.632822991333768 -35.415129388221033 3.8383829322239649 0 -0.85716730853699208 0.51503806187062418 1 0 0 forward_v I I I I #
coedge $-1 $162 $163 $164 $165 reversed $64 $-1 #
face $-1 $-1 $166 $34 $-1 $167 forward single #
loop $-1 $168 $169 $66 #
cone-surface $-1 30.951196001002529 -32.587952477862629 4.4414555653324488 0 0.85716730853699208 -0.51503806187062418 0.25 0 0 1 I I -0.70710678118654746 0.70710678118654746 0.25 forward I I I I #
loop $-1 $-1 $170 $43 #
coedge $-1 $107 $107 $171 $172 reversed $67 $-1 #
face $-1 $-1 $173 $35 $-1 $174 forward single #
loop $-1 $175 $176 $69 #
cone-surface $-1 48.314449981665035 -32.587952477862629 4.4414555653324488 0 0.85716730853699208 -0.51503806187062418 0.25 0 0 1 I I -0.70710678118654746 0.70710678118654746 0.25 forward I I I I #
loop $-1 $-1 $177 $44 #
coedge $-1 $112 $112 $178 $179 reversed $70 $-1 #
face $-1 $180 $181 $27 $-1 $182 reversed single #
loop $-1 $-1 $183 $72 #
plane-surface $-1 0 -35.41512938822104 0 0 1 0 0 0 1 forward_v I I I I #
coedge $-1 $184 $185 $186 $187 forward $73 $-1 #
coedge $-1 $188 $75 $189 $190 forward $46 $-1 #
coedge $-1 $75 $188 $191 $192 forward $46 $-1 #
coedge $-1 $193 $194 $75 $120 reversed $195 $-1 #
edge $-1 $196 -35.41512938822104 $197 35.41512938822104 $119 $198 forward 7 unknown #
face $-1 $199 $200 $28 $-1 $201 reversed single #
loop $-1 $-1 $127 $76 #
plane-surface $-1 -76.784759411600177 0 4.2208300402772903 0 0 1 1 0 0 forward_v I I I I #
coedge $-1 $202 $203 $125 $204 forward $77 $-1 #
coedge $-1 $205 $79 $124 $204 reversed $49 $-1 #
coedge $-1 $79 $205 $206 $207 reversed $49 $-1 #
coedge $-1 $208 $209 $79 $128 reversed $122 $-1 #
edge $-1 $210 -35.41512938822104 $211 35.41512938822104 $127 $212 forward 7 unknown #
face $-1 $213 $214 $29 $-1 $215 forward single #
loop $-1 $-1 $216 $80 #
plane-surface $-1 40.028363298943482 98.018662767672424 153.49239175628094 -1 0 0 0 0.74314483375859142 0.66913059716165679 forward_v I I I I #
coedge $-1 $217 $218 $219 $220 reversed $81 $-1 #
coedge $-1 $134 $83 $221 $222 reversed $52 $-1 #
coedge $-1 $83 $133 $217 $223 reversed $52 $-1 #
coedge $-1 $219 $224 $83 $136 forward $214 $-1 #
edge $-1 $225 13.594201995615173 $226 18.4639695431745 $135 $227 forward 7 unknown #
loop $-1 $-1 $142 $84 #
plane-surface $-1 19.689929484689287 -11.979563963974329 54.449546006538569 0 0.74314483375859142 0.66913059716165679 1 0 0 forward_v I I I I #
loop $-1 $-1 $228 $54 #
coedge $-1 $140 $140 $141 $229 reversed $85 $-1 #
coedge $-1 $141 $141 $140 $229 forward $87 $-1 #
coedge $-1 $142 $142 $88 $143 forward $137 $-1 #
edge $-1 $230 5.294584176961491e-016 $230 6.2831853071796013 $142 $231 forward 7 unknown #
loop $-1 $-1 $149 $89 #
plane-surface $-1 19.689929484689287 -11.979563963974329 54.449546006538569 0 0.74314483375859142 0.66913059716165679 1 0 0 forward_v I I I I #
loop $-1 $-1 $232 $57 #
coedge $-1 $147 $147 $148 $233 reversed $90 $-1 #
coedge $-1 $148 $148 $147 $233 forward $92 $-1 #
coedge $-1 $149 $149 $93 $150 forward $144 $-1 #
edge $-1 $234 5.294584176961491e-016 $234 6.2831853071796013 $149 $235 forward 7 unknown #
loop $-1 $-1 $156 $94 #
plane-surface $-1 19.689929484689287 -11.979563963974329 54.449546006538569 0 0.74314483375859142 0.66913059716165679 1 0 0 forward_v I I I I #
loop $-1 $-1 $236 $60 #
coedge $-1 $154 $154 $155 $237 reversed $95 $-1 #
coedge $-1 $155 $155 $154 $237 forward $97 $-1 #
coedge $-1 $156 $156 $98 $157 forward $151 $-1 #
edge $-1 $238 5.294584176961491e-016 $238 6.2831853071796013 $156 $239 forward 7 unknown #
face $-1 $240 $241 $33 $-1 $242 reversed single #
loop $-1 $-1 $243 $99 #
plane-surface $-1 19.375693347227525 -162.29064499200211 80.072881150476377 1 0 0 0 0.85716730853699208 -0.51503806187062418 forward_v I I I I #
coedge $-1 $244 $245 $246 $247 reversed $100 $-1 #
coedge $-1 $163 $102 $248 $249 reversed $64 $-1 #
coedge $-1 $102 $162 $244 $250 reversed $64 $-1 #
coedge $-1 $246 $251 $102 $165 forward $252 $-1 #
edge $-1 $253 45.730193107780018 $254 47.762572300921526 $164 $255 forward 7 unknown #
loop $-1 $-1 $171 $103 #
plane-surface $-1 39.632822991333768 -35.415129388221033 3.8383829322239649 0 -0.85716730853699208 0.51503806187062418 1 0 0 forward_v I I I I #
loop $-1 $-1 $256 $66 #
coedge $-1 $169 $169 $170 $257 reversed $104 $-1 #
coedge $-1 $170 $170 $169 $257 forward $106 $-1 #
coedge $-1 $171 $171 $107 $172 forward $166 $-1 #
edge $-1 $258 2.9404398510729274e-016 $258 6.2831853071796004 $171 $259 forward 7 unknown #
loop $-1 $-1 $178 $108 #
plane-surface $-1 39.632822991333768 -35.415129388221033 3.8383829322239649 0 -0.85716730853699208 0.51503806187062418 1 0 0 forward_v I I I I #
loop $-1 $-1 $260 $69 #
coedge $-1 $176 $176 $177 $261 reversed $109 $-1 #
coedge $-1 $177 $177 $176 $261 forward $111 $-1 #
coedge $-1 $178 $178 $112 $179 forward $173 $-1 #
edge $-1 $262 2.9404398510729274e-016 $262 6.2831853071796004 $178 $263 forward 7 unknown #
face $-1 $264 $265 $27 $-1 $266 reversed single #
loop $-1 $-1 $267 $113 #
plane-surface $-1 -74.008606219672231 0 0 1 0 0 0 0 -1 forward_v I I I I #
coedge $-1 $268 $191 $269 $270 forward $114 $-1 #
coedge $-1 $271 $116 $268 $272 forward $73 $-1 #
coedge $-1 $116 $271 $273 $274 forward $73 $-1 #
coedge $-1 $194 $193 $116 $187 reversed $195 $-1 #
edge $-1 $275 -35.41512938822104 $276 35.41512938822104 $186 $277 forward 7 unknown #
coedge $-1 $118 $117 $278 $279 forward $46 $-1 #
coedge $-1 $280 $281 $117 $190 reversed $265 $-1 #
edge $-1 $197 -74.008606219672231 $282 74.008606219672231 $189 $283 forward 7 unknown #
coedge $-1 $183 $284 $118 $192 reversed $114 $-1 #
edge $-1 $285 -74.008606219672231 $196 74.008606219672231 $191 $286 forward 7 unknown #
coedge $-1 $186 $119 $284 $287 forward $195 $-1 #
coedge $-1 $119 $186 $280 $288 reversed $195 $-1 #
loop $-1 $-1 $193 $264 #
vertex $-1 $120 $289 #
vertex $-1 $120 $290 #
straight-curve $-1 74.008606219672231 0 7.2208300402772903 0 1 0 I I #
face $-1 $291 $292 $28 $-1 $293 forward single #
loop $-1 $-1 $294 $121 #
plane-surface $-1 -79.560912603528124 0 5.7208300402772903 1 0 0 0 0 -1 forward_v I I I I #
coedge $-1 $295 $124 $209 $296 reversed $77 $-1 #
coedge $-1 $124 $295 $297 $298 reversed $77 $-1 #
edge $-1 $299 -7.2208300402772903 $211 -4.2208300402772903 $124 $300 forward 7 unknown #
coedge $-1 $126 $125 $301 $302 reversed $49 $-1 #
coedge $-1 $303 $304 $126 $207 forward $305 $-1 #
edge $-1 $210 4.2208300402772903 $306 7.2208300402772903 $206 $307 forward 7 unknown #
coedge $-1 $308 $127 $304 $309 forward $122 $-1 #
coedge $-1 $127 $308 $202 $296 forward $122 $-1 #
vertex $-1 $207 $310 #
vertex $-1 $204 $311 #
straight-curve $-1 -74.008606219672231 0 4.2208300402772903 0 1 0 I I #
face $-1 $-1 $312 $29 $-1 $313 reversed single #
loop $-1 $-1 $135 $129 #
plane-surface $-1 0 0 7.2208300402772903 0 0 1 1 0 0 forward_v I I I I #
coedge $-1 $314 $315 $316 $317 reversed $130 $-1 #
coedge $-1 $318 $132 $134 $223 forward $81 $-1 #
coedge $-1 $132 $318 $314 $319 forward $81 $-1 #
coedge $-1 $316 $135 $132 $220 forward $214 $-1 #
edge $-1 $226 -10.493469071909551 $320 30.183398556598839 $219 $321 forward 7 unknown #
coedge $-1 $322 $323 $133 $222 forward $312 $-1 #
edge $-1 $324 -74.933790755098954 $225 -69.525365837863177 $221 $325 forward 7 unknown #
edge $-1 $226 63.552505273290237 $324 70.830258776442065 $134 $326 forward 7 unknown #
coedge $-1 $135 $316 $322 $327 forward $214 $-1 #
vertex $-1 $222 $328 #
vertex $-1 $136 $329 #
straight-curve $-1 -0.64850432956490778 49.009331383836212 7.220830040277292 0 -1 0 I I #
coedge $-1 $228 $228 $-1 $330 reversed $139 $-1 #
edge $-1 $331 0 $331 6.2831853071796004 $140 $332 forward 7 unknown #
vertex $-1 $143 $333 #
ellipse-curve $-1 7.4868691961367659 32.980245614441387 4.5166175816593928 0 0.74314483375859142 0.66913059716165679 1.5 0 0 1 I I #
coedge $-1 $232 $232 $-1 $334 reversed $146 $-1 #
edge $-1 $335 0 $335 6.2831853071796004 $147 $336 forward 7 unknown #
vertex $-1 $150 $337 #
ellipse-curve $-1 19.689929484689287 32.980245614441387 4.5166175816593928 0 0.74314483375859142 0.66913059716165679 1.5 0 0 1 I I #
coedge $-1 $236 $236 $-1 $338 reversed $153 $-1 #
edge $-1 $339 0 $339 6.2831853071796004 $154 $340 forward 7 unknown #
vertex $-1 $157 $341 #
ellipse-curve $-1 31.892989773241808 32.980245614441387 4.5166175816593928 0 0.74314483375859142 0.66913059716165679 1.5 0 0 1 I I #
face $-1 $-1 $252 $33 $-1 $342 forward single #
loop $-1 $-1 $343 $158 #
plane-surface $-1 0 -35.41512938822104 0 0 1 0 0 0 1 forward_v I I I I #
coedge $-1 $344 $345 $346 $347 reversed $159 $-1 #
coedge $-1 $348 $161 $163 $250 forward $100 $-1 #
coedge $-1 $161 $348 $344 $349 forward $100 $-1 #
coedge $-1 $346 $164 $161 $247 forward $252 $-1 #
edge $-1 $254 -40.073541139773127 $350 0.44071814843935897 $246 $351 forward 7 unknown #
coedge $-1 $352 $353 $162 $249 forward $241 $-1 #
edge $-1 $354 -36.198057643014238 $253 -32.815610534960896 $248 $355 forward 7 unknown #
edge $-1 $254 -3.946075724500584 $354 1.393735185947377e-014 $163 $356 forward 7 unknown #
coedge $-1 $164 $346 $352 $357 forward $252 $-1 #
loop $-1 $-1 $346 $240 #
vertex $-1 $249 $358 #
vertex $-1 $165 $359 #
straight-curve $-1 59.889952635440011 -81.145322496001057 7.220830040277292 0 1 0 I I #
coedge $-1 $256 $256 $-1 $360 reversed $168 $-1 #
edge $-1 $361 0 $361 6.2831853071796004 $169 $362 forward 7 unknown #
vertex $-1 $172 $363 #
ellipse-curve $-1 30.951196001002529 -34.398939791650285 5.529606486250624 0 -0.85716730853699208 0.51503806187062418 0.5 0 0 1 I I #
coedge $-1 $260 $260 $-1 $364 reversed $175 $-1 #
edge $-1 $365 0 $365 6.2831853071796004 $176 $366 forward 7 unknown #
vertex $-1 $179 $367 #
ellipse-curve $-1 48.314449981665035 -34.398939791650285 5.529606486250624 0 -0.85716730853699208 0.51503806187062418 0.5 0 0 1 I I #
face $-1 $-1 $195 $27 $-1 $368 reversed single #
loop $-1 $-1 $280 $180 #
plane-surface $-1 0 35.41512938822104 0 0 -1 0 0 0 -1 forward_v I I I I #
coedge $-1 $369 $278 $281 $370 forward $181 $-1 #
coedge $-1 $284 $183 $184 $272 reversed $114 $-1 #
coedge $-1 $278 $369 $183 $270 reversed $181 $-1 #
edge $-1 $285 -7.2208300402772903 $371 7.2208300402772903 $269 $372 forward 7 unknown #
coedge $-1 $185 $184 $369 $373 forward $73 $-1 #
edge $-1 $276 -74.008606219672231 $371 74.008606219672231 $268 $374 forward 7 unknown #
coedge $-1 $281 $280 $185 $274 reversed $265 $-1 #
edge $-1 $375 -74.008606219672231 $275 74.008606219672231 $273 $376 forward 7 unknown #
vertex $-1 $187 $377 #
vertex $-1 $287 $378 #
straight-curve $-1 74.008606219672231 0 -7.2208300402772903 0 -1 0 I I #
coedge $-1 $267 $269 $188 $279 reversed $181 $-1 #
edge $-1 $282 -35.41512938822104 $285 35.41512938822104 $278 $379 forward 7 unknown #
coedge $-1 $273 $189 $194 $288 forward $265 $-1 #
coedge $-1 $189 $273 $267 $370 reversed $265 $-1 #
vertex $-1 $190 $380 #
straight-curve $-1 0 35.41512938822104 7.2208300402772903 -1 0 0 I I #
coedge $-1 $191 $268 $193 $287 reversed $114 $-1 #
vertex $-1 $279 $381 #
straight-curve $-1 0 -35.41512938822104 7.2208300402772903 1 0 0 I I #
edge $-1 $196 -7.2208300402772903 $276 7.2208300402772903 $193 $382 forward 7 unknown #
edge $-1 $197 -7.2208300402772903 $275 7.2208300402772903 $194 $383 forward 7 unknown #
point $-1 74.008606219672231 -35.41512938822104 7.2208300402772903 #
point $-1 74.008606219672231 35.41512938822104 7.2208300402772903 #
face $-1 $-1 $305 $28 $-1 $384 reversed single #
loop $-1 $-1 $301 $199 #
plane-surface $-1 0 0 7.2208300402772903 0 0 1 1 0 0 forward_v I I I I #
coedge $-1 $385 $386 $295 $387 forward $200 $-1 #
coedge $-1 $203 $202 $294 $387 reversed $77 $-1 #
edge $-1 $388 -2.7761531919279463 $211 2.7761531919279463 $202 $389 forward 7 unknown #
coedge $-1 $390 $301 $203 $298 forward $292 $-1 #
edge $-1 $299 74.008606219672231 $391 79.560912603528124 $203 $392 forward 7 unknown #
vertex $-1 $298 $393 #
straight-curve $-1 -74.008606219672231 35.41512938822104 0 0 0 -1 I I #
coedge $-1 $297 $394 $205 $302 forward $292 $-1 #
edge $-1 $306 -35.41512938822104 $299 35.41512938822104 $301 $395 forward 7 unknown #
coedge $-1 $396 $206 $394 $397 reversed $305 $-1 #
coedge $-1 $206 $396 $208 $309 reversed $305 $-1 #
loop $-1 $-1 $206 $291 #
vertex $-1 $207 $398 #
straight-curve $-1 -74.008606219672231 -35.41512938822104 0 0 0 1 I I #
coedge $-1 $209 $208 $385 $399 forward $122 $-1 #
edge $-1 $210 -2.7761531919279463 $400 2.7761531919279463 $304 $401 forward 7 unknown #
point $-1 -74.008606219672231 -35.41512938822104 4.2208300402772903 #
point $-1 -74.008606219672231 35.41512938822104 4.2208300402772903 #
loop $-1 $-1 $221 $213 #
plane-surface $-1 0 35.41512938822104 0 0 -1 0 0 0 -1 forward_v I I I I #
coedge $-1 $315 $216 $218 $319 reversed $130 $-1 #
coedge $-1 $216 $314 $402 $403 reversed $130 $-1 #
coedge $-1 $224 $219 $216 $317 forward $214 $-1 #
edge $-1 $320 -18.4639695431745 $404 -13.594201995615173 $316 $405 forward 7 unknown #
coedge $-1 $218 $217 $323 $406 reversed $81 $-1 #
edge $-1 $407 -70.830258776442065 $320 -63.552505273290237 $314 $408 forward 7 unknown #
vertex $-1 $220 $409 #
straight-curve $-1 9.8449647423446436 30.545361840661705 7.2208300402772885 1 0 0 I I #
coedge $-1 $402 $221 $224 $327 reversed $312 $-1 #
coedge $-1 $221 $402 $318 $406 forward $312 $-1 #
vertex $-1 $222 $410 #
straight-curve $-1 -0.64850432956490778 35.41512938822104 76.746195878140469 0 0 1 I I #
straight-curve $-1 -0.64850432956490778 -11.979563963974329 54.449546006538569 0 0.66913059716165679 -0.74314483375859142 I I #
edge $-1 $404 -40.028363298943482 $225 0.64850432956490778 $322 $411 forward 7 unknown #
point $-1 -0.64850432956490778 35.41512938822104 7.2208300402772903 #
point $-1 -0.64850432956490778 30.545361840661712 7.220830040277292 #
edge $-1 $412 1 $412 0 $228 $-1 forward 7 unknown #
vertex $-1 $229 $413 #
ellipse-curve $-1 7.4868691961367659 30.347305717193574 2.1459079087876169 0 0.74314483375859142 0.66913059716165679 1.5 0 0 1 I I #
point $-1 8.9868691961367659 32.980245614441394 4.5166175816593981 #
edge $-1 $414 1 $414 0 $232 $-1 forward 7 unknown #
vertex $-1 $233 $415 #
ellipse-curve $-1 19.689929484689287 30.347305717193574 2.1459079087876169 0 0.74314483375859142 0.66913059716165679 1.5 0 0 1 I I #
point $-1 21.189929484689287 32.980245614441394 4.5166175816593981 #
edge $-1 $416 1 $416 0 $236 $-1 forward 7 unknown #
vertex $-1 $237 $417 #
ellipse-curve $-1 31.892989773241808 30.347305717193574 2.1459079087876169 0 0.74314483375859142 0.66913059716165679 1.5 0 0 1 I I #
point $-1 33.392989773241808 32.980245614441394 4.5166175816593981 #
plane-surface $-1 0 0 7.2208300402772903 0 0 1 1 0 0 forward_v I I I I #
coedge $-1 $353 $352 $345 $418 forward $241 $-1 #
coedge $-1 $345 $243 $245 $349 reversed $159 $-1 #
coedge $-1 $243 $344 $343 $418 reversed $159 $-1 #
coedge $-1 $251 $246 $243 $347 forward $252 $-1 #
edge $-1 $350 -47.762572300921526 $419 -45.730193107780018 $346 $420 forward 7 unknown #
coedge $-1 $245 $244 $353 $421 reversed $100 $-1 #
edge $-1 $422 -1.393735185947377e-014 $350 3.946075724500584 $344 $423 forward 7 unknown #
vertex $-1 $247 $424 #
straight-curve $-1 19.816411495666884 -33.382750195079531 7.2208300402772903 -1 0 0 I I #
coedge $-1 $343 $248 $251 $357 reversed $241 $-1 #
coedge $-1 $248 $343 $348 $421 forward $241 $-1 #
vertex $-1 $249 $425 #
straight-curve $-1 59.889952635440011 -35.41512938822104 40.036440575238188 0 0 1 I I #
straight-curve $-1 59.889952635440011 -35.415129388221033 3.8383829322239649 0 -0.51503806187062418 -0.85716730853699208 I I #
edge $-1 $419 19.375693347227525 $253 59.889952635440011 $352 $426 forward 7 unknown #
point $-1 59.889952635440011 -35.41512938822104 7.2208300402772903 #
point $-1 59.889952635440011 -33.382750195079531 7.2208300402772903 #
edge $-1 $427 1 $427 0 $256 $-1 forward 7 unknown #
vertex $-1 $257 $428 #
ellipse-curve $-1 30.951196001002529 -32.802244304996876 4.5702150808001045 0 -0.85716730853699208 0.51503806187062418 0.5 0 0 1 I I #
point $-1 31.451196001002529 -34.398939791650292 5.5296064862506284 #
edge $-1 $429 1 $429 0 $260 $-1 forward 7 unknown #
vertex $-1 $261 $430 #
ellipse-curve $-1 48.314449981665035 -32.802244304996876 4.5702150808001045 0 -0.85716730853699208 0.51503806187062418 0.5 0 0 1 I I #
point $-1 48.814449981665035 -34.398939791650292 5.5296064862506284 #
plane-surface $-1 74.008606219672231 0 0 -1 0 0 0 0 1 forward_v I I I I #
coedge $-1 $269 $267 $271 $373 reversed $181 $-1 #
edge $-1 $282 -7.2208300402772903 $375 7.2208300402772903 $281 $431 forward 7 unknown #
vertex $-1 $373 $432 #
straight-curve $-1 -74.008606219672231 -35.41512938822104 0 0 0 -1 I I #
edge $-1 $371 -35.41512938822104 $375 35.41512938822104 $369 $433 forward 7 unknown #
straight-curve $-1 0 -35.41512938822104 -7.2208300402772903 -1 0 0 I I #
vertex $-1 $274 $434 #
straight-curve $-1 0 35.41512938822104 -7.2208300402772903 1 0 0 I I #
point $-1 74.008606219672231 35.41512938822104 -7.2208300402772903 #
point $-1 74.008606219672231 -35.41512938822104 -7.2208300402772903 #
straight-curve $-1 -74.008606219672231 0 7.2208300402772903 0 -1 0 I I #
point $-1 -74.008606219672231 35.41512938822104 7.2208300402772903 #
point $-1 -74.008606219672231 -35.41512938822104 7.2208300402772903 #
straight-curve $-1 74.008606219672231 -35.41512938822104 0 0 0 -1 I I #
straight-curve $-1 74.008606219672231 35.41512938822104 0 0 0 -1 I I #
plane-surface $-1 0 -35.41512938822104 0 0 1 0 0 0 1 forward_v I I I I #
coedge $-1 $435 $294 $308 $399 reversed $200 $-1 #
coedge $-1 $294 $435 $390 $436 reversed $200 $-1 #
edge $-1 $391 -1.5 $388 1.5 $295 $437 forward 7 unknown #
vertex $-1 $296 $438 #
straight-curve $-1 -76.784759411600177 35.41512938822104 4.2208300402772903 1 0 0 I I #
coedge $-1 $394 $297 $386 $436 forward $292 $-1 #
vertex $-1 $298 $439 #
straight-curve $-1 0 35.41512938822104 7.2208300402772903 -1 0 0 I I #
point $-1 -74.008606219672231 35.41512938822104 7.2208300402772903 #
coedge $-1 $301 $390 $303 $397 forward $292 $-1 #
straight-curve $-1 -74.008606219672231 0 7.2208300402772903 0 1 0 I I #
coedge $-1 $304 $303 $435 $440 forward $305 $-1 #
edge $-1 $441 -79.560912603528124 $306 -74.008606219672231 $303 $442 forward 7 unknown #
point $-1 -74.008606219672231 -35.41512938822104 7.2208300402772903 #
edge $-1 $400 -35.41512938822104 $388 35.41512938822104 $385 $443 forward 7 unknown #
vertex $-1 $399 $444 #
straight-curve $-1 -76.784759411600177 -35.41512938822104 4.2208300402772903 -1 0 0 I I #
coedge $-1 $323 $322 $315 $403 forward $312 $-1 #
edge $-1 $404 69.525365837863177 $407 74.933790755098954 $402 $445 forward 7 unknown #
vertex $-1 $327 $446 #
straight-curve $-1 40.028363298943482 49.009331383836212 7.220830040277292 0 1 0 I I #
edge $-1 $407 -30.183398556598839 $324 10.493469071909551 $323 $447 forward 7 unknown #
vertex $-1 $406 $448 #
straight-curve $-1 40.028363298943482 -11.979563963974329 54.449546006538569 0 -0.66913059716165679 0.74314483375859142 I I #
point $-1 40.028363298943482 30.545361840661712 7.220830040277292 #
point $-1 -0.64850432956490778 35.41512938822104 1.8124051230415077 #
straight-curve $-1 0 35.41512938822104 7.2208300402772903 -1 0 0 I I #
vertex $-1 $330 $449 #
point $-1 8.9868691961367659 30.347305717193574 2.1459079087876169 #
vertex $-1 $334 $450 #
point $-1 21.189929484689287 30.347305717193574 2.1459079087876169 #
vertex $-1 $338 $451 #
point $-1 33.392989773241808 30.347305717193574 2.1459079087876169 #
edge $-1 $419 32.815610534960896 $422 36.198057643014238 $343 $452 forward 7 unknown #
vertex $-1 $357 $453 #
straight-curve $-1 19.375693347227525 -81.145322496001057 7.220830040277292 0 -1 0 I I #
edge $-1 $422 -0.44071814843935897 $354 40.073541139773127 $353 $454 forward 7 unknown #
vertex $-1 $421 $455 #
straight-curve $-1 19.375693347227525 -35.415129388221033 3.8383829322239649 0 0.51503806187062418 0.85716730853699208 I I #
point $-1 19.375693347227525 -33.382750195079531 7.2208300402772903 #
point $-1 59.889952635440011 -35.41512938822104 3.8383829322239529 #
straight-curve $-1 0 -35.41512938822104 7.2208300402772903 1 0 0 I I #
vertex $-1 $360 $456 #
point $-1 31.451196001002529 -32.802244304996876 4.5702150808001045 #
vertex $-1 $364 $457 #
point $-1 48.814449981665035 -32.802244304996876 4.5702150808001045 #
straight-curve $-1 -74.008606219672231 35.41512938822104 0 0 0 -1 I I #
point $-1 -74.008606219672231 -35.41512938822104 -7.2208300402772903 #
straight-curve $-1 -74.008606219672231 0 -7.2208300402772903 0 1 0 I I #
point $-1 -74.008606219672231 35.41512938822104 -7.2208300402772903 #
coedge $-1 $386 $385 $396 $440 reversed $200 $-1 #
edge $-1 $391 -35.41512938822104 $441 35.41512938822104 $386 $458 forward 7 unknown #
straight-curve $-1 -79.560912603528124 35.41512938822104 5.7208300402772903 0 0 -1 I I #
point $-1 -79.560912603528124 35.41512938822104 4.2208300402772903 #
point $-1 -79.560912603528124 35.41512938822104 7.2208300402772903 #
edge $-1 $441 -1.5 $400 1.5 $435 $459 forward 7 unknown #
vertex $-1 $436 $460 #
straight-curve $-1 0 -35.41512938822104 7.2208300402772903 1 0 0 I I #
straight-curve $-1 -79.560912603528124 0 4.2208300402772903 0 1 0 I I #
point $-1 -79.560912603528124 -35.41512938822104 4.2208300402772903 #
straight-curve $-1 40.028363298943482 35.41512938822104 76.746195878140469 0 0 -1 I I #
point $-1 40.028363298943482 35.41512938822104 7.2208300402772903 #
straight-curve $-1 9.8449647423446436 35.41512938822104 1.8124051230415112 -1 0 0 I I #
point $-1 40.028363298943482 35.41512938822104 1.8124051230415077 #
point $-1 7.4868691961367659 29.232588466555686 1.1422120130451319 #
point $-1 19.689929484689287 29.232588466555686 1.1422120130451319 #
point $-1 31.892989773241808 29.232588466555686 1.1422120130451319 #
straight-curve $-1 19.375693347227525 -35.41512938822104 40.036440575238188 0 0 -1 I I #
point $-1 19.375693347227525 -35.41512938822104 7.2208300402772903 #
straight-curve $-1 19.816411495666884 -35.41512938822104 3.8383829322239444 1 0 0 I I #
point $-1 19.375693347227525 -35.41512938822104 3.8383829322239529 #
point $-1 30.951196001002529 -32.373660650728382 4.312696049864793 #
point $-1 48.314449981665035 -32.373660650728382 4.312696049864793 #
straight-curve $-1 -79.560912603528124 0 7.2208300402772903 0 -1 0 I I #
straight-curve $-1 -79.560912603528124 -35.41512938822104 5.7208300402772903 0 0 -1 I I #
point $-1 -79.560912603528124 -35.41512938822104 7.2208300402772903 #
End-of-ACIS-data 