500 0 10 0           
7 Unknown 11 ACIS 5.0 NT 24 Fri Mar 26 18:53:36 1999 
-1 9.9999999999999995e-007 1e-010 
body $-1 $10 $-1 $11 #
body $-1 $12 $-1 $13 #
body $-1 $14 $-1 $15 #
body $-1 $16 $-1 $17 #
body $-1 $18 $-1 $19 #
body $-1 $20 $-1 $21 #
body $-1 $22 $-1 $23 #
body $-1 $24 $-1 $25 #
body $-1 $26 $-1 $27 #
body $-1 $28 $-1 $29 #
lump $-1 $-1 $30 $0 #
transform $-1 1 0 0 0 1 0 0 0 1 48.410901211584829 29.12602638279926 12.527293545967126 1 rotate no_reflect no_shear #
lump $-1 $-1 $31 $1 #
transform $-1 1 0 0 0 1 0 0 0 1 48.410901211584829 29.12602638279926 12.527293545967126 1 rotate no_reflect no_shear #
lump $-1 $-1 $32 $2 #
transform $-1 1 0 0 0 1 0 0 0 1 48.410901211584829 29.12602638279926 12.527293545967126 1 rotate no_reflect no_shear #
lump $-1 $-1 $33 $3 #
transform $-1 1 0 0 0 1 0 0 0 1 48.410901211584829 29.12602638279926 12.527293545967126 1 rotate no_reflect no_shear #
lump $-1 $-1 $34 $4 #
transform $-1 1 0 0 0 1 0 0 0 1 48.410901211584829 29.12602638279926 12.527293545967126 1 rotate no_reflect no_shear #
lump $-1 $-1 $35 $5 #
transform $-1 1 0 0 0 1 0 0 0 1 48.410901211584829 29.12602638279926 12.527293545967126 1 rotate no_reflect no_shear #
lump $-1 $-1 $36 $6 #
transform $-1 1 0 0 0 1 0 0 0 1 48.410901211584829 29.12602638279926 12.527293545967126 1 rotate no_reflect no_shear #
lump $-1 $-1 $37 $7 #
transform $-1 1 0 0 0 1 0 0 0 1 48.410901211584829 29.12602638279926 12.527293545967126 1 rotate no_reflect no_shear #
lump $-1 $-1 $38 $8 #
transform $-1 1 0 0 0 1 0 0 0 1 48.410901211584829 29.12602638279926 12.527293545967126 1 rotate no_reflect no_shear #
lump $-1 $-1 $39 $9 #
transform $-1 1 0 0 0 1 0 0 0 1 48.410901211584829 29.12602638279926 12.527293545967126 1 rotate no_reflect no_shear #
shell $-1 $-1 $-1 $40 $-1 $10 #
shell $-1 $-1 $-1 $41 $-1 $12 #
shell $-1 $-1 $-1 $42 $-1 $14 #
shell $-1 $-1 $-1 $43 $-1 $16 #
shell $-1 $-1 $-1 $44 $-1 $18 #
shell $-1 $-1 $-1 $45 $-1 $20 #
shell $-1 $-1 $-1 $46 $-1 $22 #
shell $-1 $-1 $-1 $47 $-1 $24 #
shell $-1 $-1 $-1 $48 $-1 $26 #
shell $-1 $-1 $-1 $49 $-1 $28 #
face $-1 $50 $51 $30 $-1 $52 forward single #
face $-1 $53 $54 $31 $-1 $55 forward single #
face $-1 $56 $57 $32 $-1 $58 forward single #
face $-1 $59 $60 $33 $-1 $61 reversed single #
face $-1 $62 $63 $34 $-1 $64 forward single #
face $-1 $65 $66 $35 $-1 $67 forward single #
face $-1 $68 $69 $36 $-1 $70 forward single #
face $-1 $71 $72 $37 $-1 $73 reversed single #
face $-1 $74 $75 $38 $-1 $76 forward single #
face $-1 $77 $78 $39 $-1 $79 forward single #
face $-1 $80 $81 $30 $-1 $82 reversed single #
loop $-1 $-1 $83 $40 #
plane-surface $-1 0 0 12.527293545967126 0 0 1 1 0 0 forward_v I I I I #
face $-1 $84 $85 $31 $-1 $86 reversed single #
loop $-1 $-1 $87 $41 #
plane-surface $-1 -43.963755968914079 0 1.5338088626590709 0 0 1 1 0 0 forward_v I I I I #
face $-1 $88 $89 $32 $-1 $90 reversed single #
loop $-1 $-1 $91 $42 #
plane-surface $-1 43.963755968914072 0 1.5338088626590709 0 0 1 1 0 0 forward_v I I I I #
face $-1 $92 $93 $33 $-1 $94 reversed single #
loop $-1 $-1 $95 $43 #
plane-surface $-1 -9.3784462350527136 -98.773803204017213 68.255086589719937 1 0 0 0 0.71933980857756763 -0.69465836192734942 forward_v I I I I #
face $-1 $96 $97 $34 $-1 $98 forward single #
loop $-1 $99 $100 $44 #
cone-surface $-1 -6.8828710249929017 -23.179601767260895 6.3960669068441165 0 0.71933980857756763 -0.69465836192734942 0.5 0 0 1 I I 0 1 0.5 forward I I I I #
face $-1 $101 $102 $35 $-1 $103 forward single #
loop $-1 $104 $105 $45 #
cone-surface $-1 -3.1395082099031839 -23.179601767260895 6.3960669068441165 0 0.71933980857756763 -0.69465836192734942 0.5 0 0 1 I I 0 1 0.5 forward I I I I #
face $-1 $106 $107 $36 $-1 $108 forward single #
loop $-1 $109 $110 $46 #
cone-surface $-1 0.60385460518653389 -23.179601767260895 6.3960669068441165 0 0.71933980857756763 -0.69465836192734942 0.5 0 0 1 I I 0 1 0.5 forward I I I I #
face $-1 $111 $112 $37 $-1 $113 reversed single #
loop $-1 $-1 $114 $47 #
plane-surface $-1 -16.932554742293981 67.711495887561227 109.59543678597922 -1 0 0 0 0.77714596973225614 0.62932038083071107 forward_v I I I I #
face $-1 $115 $116 $38 $-1 $117 forward single #
loop $-1 $118 $119 $48 #
cone-surface $-1 -33.064023302257802 24.527898460596969 7.2315901682520494 0 -0.77714596973225614 -0.62932038083071107 1.5 0 0 1 I I 0 1 1.5 forward I I I I #
face $-1 $120 $121 $39 $-1 $122 forward single #
loop $-1 $123 $124 $49 #
cone-surface $-1 -23.385142166279508 24.527898460596969 7.2315901682520494 0 -0.77714596973225614 -0.62932038083071107 1.5 0 0 1 I I 0 1 1.5 forward I I I I #
face $-1 $125 $126 $30 $-1 $127 reversed single #
loop $-1 $-1 $128 $50 #
plane-surface $-1 0 0 -12.527293545967126 0 0 1 1 0 0 forward_v I I I I #
coedge $-1 $129 $130 $131 $132 forward $51 $-1 #
face $-1 $133 $134 $31 $-1 $135 reversed single #
loop $-1 $-1 $136 $53 #
plane-surface $-1 -43.963755968914079 0 -5.2732977258581775 0 0 1 1 0 0 forward_v I I I I #
coedge $-1 $137 $138 $139 $140 forward $54 $-1 #
face $-1 $141 $142 $32 $-1 $143 reversed single #
loop $-1 $-1 $144 $56 #
plane-surface $-1 43.963755968914072 0 -5.2732977258581775 0 0 1 1 0 0 forward_v I I I I #
coedge $-1 $145 $146 $147 $148 reversed $57 $-1 #
face $-1 $149 $150 $33 $-1 $151 reversed single #
loop $-1 $-1 $152 $59 #
plane-surface $-1 -3.1395082099031839 -29.126026382799282 0.99701191958743607 0 -0.71933980857756763 0.69465836192734942 1 0 0 forward_v I I I I #
coedge $-1 $153 $154 $155 $156 reversed $60 $-1 #
face $-1 $-1 $157 $34 $-1 $158 forward single #
loop $-1 $159 $160 $62 #
cone-surface $-1 -6.8828710249929017 -22.620673835915795 5.8563164904291156 0 0.71933980857756763 -0.69465836192734942 0.25 0 0 1 I I -0.70710678118654746 0.70710678118654746 0.25 forward I I I I #
loop $-1 $-1 $161 $44 #
coedge $-1 $100 $100 $162 $163 reversed $63 $-1 #
face $-1 $-1 $164 $35 $-1 $165 forward single #
loop $-1 $166 $167 $65 #
cone-surface $-1 -3.1395082099031839 -22.620673835915795 5.8563164904291156 0 0.71933980857756763 -0.69465836192734942 0.25 0 0 1 I I -0.70710678118654746 0.70710678118654746 0.25 forward I I I I #
loop $-1 $-1 $168 $45 #
coedge $-1 $105 $105 $169 $170 reversed $66 $-1 #
face $-1 $-1 $171 $36 $-1 $172 forward single #
loop $-1 $173 $174 $68 #
cone-surface $-1 0.60385460518653389 -22.620673835915795 5.8563164904291156 0 0.71933980857756763 -0.69465836192734942 0.25 0 0 1 I I -0.70710678118654746 0.70710678118654746 0.25 forward I I I I #
loop $-1 $-1 $175 $46 #
coedge $-1 $110 $110 $176 $177 reversed $69 $-1 #
face $-1 $178 $179 $37 $-1 $180 reversed single #
loop $-1 $-1 $181 $71 #
plane-surface $-1 -28.224582734268655 -7.5331776478178654 48.663503212314225 0 0.77714596973225614 0.62932038083071107 1 0 0 forward_v I I I I #
coedge $-1 $182 $183 $184 $185 reversed $72 $-1 #
face $-1 $-1 $186 $38 $-1 $187 forward single #
loop $-1 $188 $189 $74 #
cone-surface $-1 -33.064023302257802 23.045250665792288 6.0309656894482089 0 -0.77714596973225614 -0.62932038083071107 0.75 0 0 1 I I -0.70710678118654757 0.70710678118654757 0.75 forward I I I I #
loop $-1 $-1 $190 $48 #
coedge $-1 $119 $119 $191 $192 reversed $75 $-1 #
face $-1 $-1 $193 $39 $-1 $194 forward single #
loop $-1 $195 $196 $77 #
cone-surface $-1 -23.385142166279508 23.045250665792288 6.0309656894482089 0 -0.77714596973225614 -0.62932038083071107 0.75 0 0 1 I I -0.70710678118654757 0.70710678118654757 0.75 forward I I I I #
loop $-1 $-1 $197 $49 #
coedge $-1 $124 $124 $198 $199 reversed $78 $-1 #
face $-1 $200 $201 $30 $-1 $202 reversed single #
loop $-1 $-1 $203 $80 #
plane-surface $-1 0 -29.12602638279926 0 0 1 0 0 0 1 forward_v I I I I #
coedge $-1 $204 $205 $206 $207 forward $81 $-1 #
coedge $-1 $208 $83 $209 $210 forward $51 $-1 #
coedge $-1 $83 $208 $211 $212 forward $51 $-1 #
coedge $-1 $213 $214 $83 $132 reversed $215 $-1 #
edge $-1 $216 -29.12602638279926 $217 29.12602638279926 $131 $218 forward 7 unknown #
face $-1 $219 $220 $31 $-1 $221 reversed single #
loop $-1 $-1 $222 $84 #
plane-surface $-1 -39.516610726243329 0 -1.8697444315995533 -1 0 0 0 0 1 forward_v I I I I #
coedge $-1 $223 $224 $225 $226 forward $85 $-1 #
coedge $-1 $227 $87 $228 $229 reversed $54 $-1 #
coedge $-1 $87 $227 $230 $231 reversed $54 $-1 #
coedge $-1 $222 $232 $87 $140 reversed $134 $-1 #
edge $-1 $233 -29.12602638279926 $234 29.12602638279926 $139 $235 forward 7 unknown #
face $-1 $236 $237 $32 $-1 $238 reversed single #
loop $-1 $-1 $239 $88 #
plane-surface $-1 39.516610726243321 0 -1.8697444315995533 1 0 0 0 0 -1 forward_v I I I I #
coedge $-1 $240 $241 $242 $243 reversed $89 $-1 #
coedge $-1 $244 $91 $245 $246 reversed $57 $-1 #
coedge $-1 $91 $244 $247 $248 reversed $57 $-1 #
coedge $-1 $249 $250 $91 $148 forward $251 $-1 #
edge $-1 $252 -29.12602638279926 $253 29.12602638279926 $147 $254 forward 7 unknown #
face $-1 $255 $256 $33 $-1 $257 forward single #
loop $-1 $-1 $258 $92 #
plane-surface $-1 3.0994298152463458 -98.773803204017213 68.255086589719937 -1 0 0 0 -0.71933980857756763 0.69465836192734942 forward_v I I I I #
coedge $-1 $259 $260 $261 $262 reversed $93 $-1 #
coedge $-1 $154 $95 $263 $264 reversed $60 $-1 #
coedge $-1 $95 $153 $259 $265 reversed $60 $-1 #
coedge $-1 $261 $266 $95 $156 forward $267 $-1 #
edge $-1 $268 21.600249748892843 $269 33.130531375272511 $155 $270 forward 7 unknown #
loop $-1 $-1 $162 $96 #
plane-surface $-1 -3.1395082099031839 -29.126026382799282 0.99701191958743607 0 -0.71933980857756763 0.69465836192734942 1 0 0 forward_v I I I I #
loop $-1 $-1 $271 $62 #
coedge $-1 $160 $160 $161 $272 reversed $97 $-1 #
coedge $-1 $161 $161 $160 $272 forward $99 $-1 #
coedge $-1 $162 $162 $100 $163 forward $157 $-1 #
edge $-1 $273 -4.3595292452197776e-015 $273 6.283185307179596 $162 $274 forward 7 unknown #
loop $-1 $-1 $169 $101 #
plane-surface $-1 -3.1395082099031839 -29.126026382799282 0.99701191958743607 0 -0.71933980857756763 0.69465836192734942 1 0 0 forward_v I I I I #
loop $-1 $-1 $275 $65 #
coedge $-1 $167 $167 $168 $276 reversed $102 $-1 #
coedge $-1 $168 $168 $167 $276 forward $104 $-1 #
coedge $-1 $169 $169 $105 $170 forward $164 $-1 #
edge $-1 $277 -4.3595292452197776e-015 $277 6.283185307179596 $169 $278 forward 7 unknown #
loop $-1 $-1 $176 $106 #
plane-surface $-1 -3.1395082099031839 -29.126026382799282 0.99701191958743607 0 -0.71933980857756763 0.69465836192734942 1 0 0 forward_v I I I I #
loop $-1 $-1 $279 $68 #
coedge $-1 $174 $174 $175 $280 reversed $107 $-1 #
coedge $-1 $175 $175 $174 $280 forward $109 $-1 #
coedge $-1 $176 $176 $110 $177 forward $171 $-1 #
edge $-1 $281 -4.3595292452197776e-015 $281 6.283185307179596 $176 $282 forward 7 unknown #
face $-1 $283 $284 $37 $-1 $285 reversed single #
loop $-1 $-1 $286 $111 #
plane-surface $-1 -39.516610726243329 67.711495887561227 109.59543678597922 1 0 0 0 -0.77714596973225614 -0.62932038083071107 forward_v I I I I #
coedge $-1 $287 $288 $289 $290 reversed $112 $-1 #
coedge $-1 $183 $114 $291 $292 reversed $72 $-1 #
coedge $-1 $114 $182 $287 $293 reversed $72 $-1 #
coedge $-1 $289 $294 $114 $185 forward $284 $-1 #
edge $-1 $295 42.270424847022483 $296 51.404563216090985 $184 $297 forward 7 unknown #
loop $-1 $-1 $191 $115 #
plane-surface $-1 -28.224582734268655 -7.5331776478178654 48.663503212314225 0 0.77714596973225614 0.62932038083071107 1 0 0 forward_v I I I I #
loop $-1 $-1 $298 $74 #
coedge $-1 $189 $189 $190 $299 reversed $116 $-1 #
coedge $-1 $190 $190 $189 $299 forward $118 $-1 #
coedge $-1 $191 $191 $119 $192 forward $186 $-1 #
edge $-1 $300 1.9996752833122895e-017 $300 6.2831853071796004 $191 $301 forward 7 unknown #
loop $-1 $-1 $198 $120 #
plane-surface $-1 -28.224582734268655 -7.5331776478178654 48.663503212314225 0 0.77714596973225614 0.62932038083071107 1 0 0 forward_v I I I I #
loop $-1 $-1 $302 $77 #
coedge $-1 $196 $196 $197 $303 reversed $121 $-1 #
coedge $-1 $197 $197 $196 $303 forward $123 $-1 #
coedge $-1 $198 $198 $124 $199 forward $193 $-1 #
edge $-1 $304 1.9996752833122895e-017 $304 6.2831853071796004 $198 $305 forward 7 unknown #
face $-1 $306 $307 $30 $-1 $308 reversed single #
loop $-1 $-1 $309 $125 #
plane-surface $-1 -48.410901211584829 0 0 1 0 0 0 0 -1 forward_v I I I I #
coedge $-1 $310 $211 $311 $312 forward $126 $-1 #
coedge $-1 $313 $128 $310 $314 forward $81 $-1 #
coedge $-1 $128 $313 $315 $316 forward $81 $-1 #
coedge $-1 $214 $213 $128 $207 reversed $215 $-1 #
edge $-1 $317 -29.12602638279926 $318 29.12602638279926 $206 $319 forward 7 unknown #
coedge $-1 $130 $129 $320 $321 forward $51 $-1 #
coedge $-1 $322 $323 $129 $210 reversed $307 $-1 #
edge $-1 $217 -48.410901211584829 $324 48.410901211584829 $209 $325 forward 7 unknown #
coedge $-1 $203 $326 $130 $212 reversed $126 $-1 #
edge $-1 $327 -48.410901211584829 $216 48.410901211584829 $211 $328 forward 7 unknown #
coedge $-1 $206 $131 $326 $329 forward $215 $-1 #
coedge $-1 $131 $206 $322 $330 reversed $215 $-1 #
loop $-1 $-1 $213 $306 #
vertex $-1 $132 $331 #
vertex $-1 $132 $332 #
straight-curve $-1 48.410901211584829 0 12.527293545967126 0 1 0 I I #
face $-1 $333 $334 $31 $-1 $335 reversed single #
loop $-1 $-1 $336 $133 #
plane-surface $-1 0 -29.12602638279926 0 0 1 0 0 0 1 forward_v I I I I #
coedge $-1 $225 $139 $337 $338 reversed $134 $-1 #
coedge $-1 $339 $136 $336 $340 reversed $85 $-1 #
coedge $-1 $136 $339 $341 $342 reversed $85 $-1 #
coedge $-1 $232 $222 $136 $226 reversed $134 $-1 #
edge $-1 $343 -29.12602638279926 $344 29.12602638279926 $225 $345 forward 7 unknown #
coedge $-1 $138 $137 $346 $347 reversed $54 $-1 #
coedge $-1 $348 $349 $137 $229 forward $350 $-1 #
edge $-1 $351 -26.429023227127789 $234 -17.534732741786289 $228 $352 forward 7 unknown #
coedge $-1 $353 $337 $138 $231 forward $220 $-1 #
edge $-1 $233 17.534732741786289 $354 26.429023227127789 $230 $355 forward 7 unknown #
coedge $-1 $139 $225 $348 $356 reversed $134 $-1 #
vertex $-1 $231 $357 #
vertex $-1 $229 $358 #
straight-curve $-1 -39.516610726243329 0 1.5338088626590709 0 1 0 I I #
face $-1 $359 $360 $32 $-1 $361 reversed single #
loop $-1 $-1 $247 $141 #
plane-surface $-1 0 -29.12602638279926 0 0 1 0 0 0 1 forward_v I I I I #
coedge $-1 $362 $363 $364 $365 reversed $142 $-1 #
coedge $-1 $366 $144 $367 $368 reversed $89 $-1 #
coedge $-1 $144 $366 $369 $370 reversed $89 $-1 #
coedge $-1 $250 $249 $144 $243 forward $251 $-1 #
edge $-1 $371 -29.12602638279926 $372 29.12602638279926 $242 $373 forward 7 unknown #
coedge $-1 $146 $145 $363 $374 forward $57 $-1 #
coedge $-1 $375 $364 $145 $246 forward $360 $-1 #
edge $-1 $376 17.534732741786286 $252 26.429023227127786 $245 $377 forward 7 unknown #
coedge $-1 $378 $379 $146 $248 forward $237 $-1 #
edge $-1 $253 -26.429023227127786 $380 -17.534732741786286 $247 $381 forward 7 unknown #
coedge $-1 $242 $147 $379 $382 forward $251 $-1 #
coedge $-1 $147 $242 $375 $383 reversed $251 $-1 #
loop $-1 $-1 $147 $359 #
vertex $-1 $383 $384 #
vertex $-1 $382 $385 #
straight-curve $-1 48.410901211584829 0 1.5338088626590709 0 -1 0 I I #
face $-1 $-1 $267 $33 $-1 $386 reversed single #
loop $-1 $-1 $387 $149 #
plane-surface $-1 0 0 12.527293545967126 0 0 1 1 0 0 forward_v I I I I #
coedge $-1 $388 $389 $390 $391 reversed $150 $-1 #
coedge $-1 $392 $152 $154 $265 forward $93 $-1 #
coedge $-1 $152 $392 $388 $393 forward $93 $-1 #
coedge $-1 $390 $155 $152 $262 forward $267 $-1 #
edge $-1 $269 -7.8086921301011216 $394 4.6691839201979377 $261 $395 forward 7 unknown #
coedge $-1 $396 $397 $153 $264 forward $256 $-1 #
edge $-1 $398 -31.395538491884636 $268 -20.260875219209346 $263 $399 forward 7 unknown #
edge $-1 $269 3.07002231855188e-014 $398 16.028977527574661 $154 $400 forward 7 unknown #
coedge $-1 $155 $390 $396 $401 reversed $267 $-1 #
loop $-1 $-1 $390 $255 #
vertex $-1 $401 $402 #
vertex $-1 $156 $403 #
straight-curve $-1 -9.3784462350527136 -29.12602638279926 34.127543294859969 0 0 -1 I I #
coedge $-1 $271 $271 $-1 $404 reversed $159 $-1 #
edge $-1 $405 0 $405 6.2831853071796004 $160 $406 forward 7 unknown #
vertex $-1 $163 $407 #
ellipse-curve $-1 -6.8828710249929017 -23.558694746461615 6.7621527327772926 0 -0.71933980857756763 0.69465836192734942 0.5 0 0 1 I I #
coedge $-1 $275 $275 $-1 $408 reversed $166 $-1 #
edge $-1 $409 0 $409 6.2831853071796004 $167 $410 forward 7 unknown #
vertex $-1 $170 $411 #
ellipse-curve $-1 -3.1395082099031839 -23.558694746461615 6.7621527327772926 0 -0.71933980857756763 0.69465836192734942 0.5 0 0 1 I I #
coedge $-1 $279 $279 $-1 $412 reversed $173 $-1 #
edge $-1 $413 0 $413 6.2831853071796004 $174 $414 forward 7 unknown #
vertex $-1 $177 $415 #
ellipse-curve $-1 0.60385460518653389 -23.558694746461615 6.7621527327772926 0 -0.71933980857756763 0.69465836192734942 0.5 0 0 1 I I #
face $-1 $-1 $416 $37 $-1 $417 forward single #
loop $-1 $-1 $184 $178 #
plane-surface $-1 0 29.12602638279926 0 0 -1 0 0 0 -1 forward_v I I I I #
coedge $-1 $418 $419 $420 $421 reversed $179 $-1 #
coedge $-1 $422 $181 $183 $293 forward $112 $-1 #
coedge $-1 $181 $422 $418 $423 forward $112 $-1 #
coedge $-1 $420 $184 $181 $290 forward $284 $-1 #
edge $-1 $296 2.8202633751596533 $424 25.404319359109003 $289 $425 forward 7 unknown #
coedge $-1 $426 $427 $182 $292 forward $416 $-1 #
edge $-1 $428 -12.126400770374943 $295 -4.7297215609813534 $291 $429 forward 7 unknown #
edge $-1 $296 -58.252052765598499 $428 -46.498612968161979 $183 $430 forward 7 unknown #
coedge $-1 $184 $420 $426 $431 reversed $284 $-1 #
vertex $-1 $431 $432 #
vertex $-1 $185 $433 #
straight-curve $-1 -16.932554742293981 29.12602638279926 54.797718392989609 0 0 -1 I I #
coedge $-1 $298 $298 $-1 $434 reversed $188 $-1 #
edge $-1 $435 0 $435 6.2831853071796004 $189 $436 forward 7 unknown #
vertex $-1 $192 $437 #
ellipse-curve $-1 -33.064023302257802 25.427686778102469 7.9602243614328678 0 0.77714596973225614 0.62932038083071107 1.5 0 0 1 I I #
coedge $-1 $302 $302 $-1 $438 reversed $195 $-1 #
edge $-1 $439 0 $439 6.2831853071796004 $196 $440 forward 7 unknown #
vertex $-1 $199 $441 #
ellipse-curve $-1 -23.385142166279508 25.427686778102469 7.9602243614328678 0 0.77714596973225614 0.62932038083071107 1.5 0 0 1 I I #
face $-1 $-1 $215 $30 $-1 $442 reversed single #
loop $-1 $-1 $322 $200 #
plane-surface $-1 0 29.12602638279926 0 0 -1 0 0 0 -1 forward_v I I I I #
coedge $-1 $443 $320 $323 $444 forward $201 $-1 #
coedge $-1 $326 $203 $204 $314 reversed $126 $-1 #
coedge $-1 $320 $443 $203 $312 reversed $201 $-1 #
edge $-1 $327 -12.527293545967126 $445 12.527293545967126 $311 $446 forward 7 unknown #
coedge $-1 $205 $204 $443 $447 forward $81 $-1 #
edge $-1 $318 -48.410901211584829 $445 48.410901211584829 $310 $448 forward 7 unknown #
coedge $-1 $323 $322 $205 $316 reversed $307 $-1 #
edge $-1 $449 -48.410901211584829 $317 48.410901211584829 $315 $450 forward 7 unknown #
vertex $-1 $207 $451 #
vertex $-1 $329 $452 #
straight-curve $-1 48.410901211584829 0 -12.527293545967126 0 -1 0 I I #
coedge $-1 $309 $311 $208 $321 reversed $201 $-1 #
edge $-1 $324 -29.12602638279926 $327 29.12602638279926 $320 $453 forward 7 unknown #
coedge $-1 $315 $209 $214 $330 forward $307 $-1 #
coedge $-1 $209 $315 $309 $444 reversed $307 $-1 #
vertex $-1 $210 $454 #
straight-curve $-1 0 29.12602638279926 12.527293545967126 -1 0 0 I I #
coedge $-1 $211 $310 $213 $329 reversed $126 $-1 #
vertex $-1 $321 $455 #
straight-curve $-1 0 -29.12602638279926 12.527293545967126 1 0 0 I I #
edge $-1 $216 -12.527293545967126 $318 12.527293545967126 $213 $456 forward 7 unknown #
edge $-1 $217 -12.527293545967126 $317 12.527293545967126 $214 $457 forward 7 unknown #
point $-1 48.410901211584829 -29.12602638279926 12.527293545967126 #
point $-1 48.410901211584829 29.12602638279926 12.527293545967126 #
face $-1 $-1 $350 $31 $-1 $458 reversed single #
loop $-1 $-1 $459 $219 #
plane-surface $-1 -48.410901211584829 0 0 1 0 0 0 0 -1 forward_v I I I I #
coedge $-1 $337 $353 $223 $340 forward $220 $-1 #
coedge $-1 $230 $336 $222 $338 forward $220 $-1 #
edge $-1 $344 -4.3384255100584008 $233 2.4686810784588475 $337 $460 forward 7 unknown #
coedge $-1 $224 $223 $459 $461 reversed $85 $-1 #
edge $-1 $462 -26.429023227127789 $344 -17.534732741786289 $336 $463 forward 7 unknown #
coedge $-1 $349 $348 $224 $342 forward $350 $-1 #
edge $-1 $343 17.534732741786289 $464 26.429023227127789 $341 $465 forward 7 unknown #
vertex $-1 $342 $466 #
vertex $-1 $340 $467 #
straight-curve $-1 -39.516610726243329 0 -5.2732977258581775 0 -1 0 I I #
coedge $-1 $468 $469 $227 $347 forward $334 $-1 #
edge $-1 $354 -29.12602638279926 $351 29.12602638279926 $346 $470 forward 7 unknown #
coedge $-1 $341 $228 $232 $356 forward $350 $-1 #
coedge $-1 $228 $341 $468 $471 reversed $350 $-1 #
loop $-1 $-1 $341 $333 #
vertex $-1 $471 $472 #
straight-curve $-1 -21.981877984457039 29.12602638279926 1.5338088626590709 1 0 0 I I #
coedge $-1 $336 $230 $469 $473 forward $220 $-1 #
vertex $-1 $473 $474 #
straight-curve $-1 -21.981877984457039 -29.12602638279926 1.5338088626590709 -1 0 0 I I #
edge $-1 $234 -2.4686810784588475 $343 4.3384255100584008 $348 $475 forward 7 unknown #
point $-1 -39.516610726243329 -29.12602638279926 1.5338088626590709 #
point $-1 -39.516610726243329 29.12602638279926 1.5338088626590709 #
face $-1 $-1 $251 $32 $-1 $476 reversed single #
loop $-1 $-1 $245 $236 #
plane-surface $-1 0 29.12602638279926 0 0 -1 0 0 0 -1 forward_v I I I I #
coedge $-1 $477 $239 $366 $478 reversed $142 $-1 #
coedge $-1 $239 $477 $244 $374 reversed $142 $-1 #
coedge $-1 $245 $369 $239 $365 forward $360 $-1 #
edge $-1 $479 -4.3384255100584008 $376 2.4686810784588475 $364 $480 forward 7 unknown #
coedge $-1 $241 $240 $362 $478 forward $89 $-1 #
coedge $-1 $379 $378 $240 $368 forward $237 $-1 #
edge $-1 $481 17.534732741786286 $371 26.429023227127786 $367 $482 forward 7 unknown #
coedge $-1 $364 $375 $241 $370 forward $360 $-1 #
edge $-1 $372 -26.429023227127786 $479 -17.534732741786286 $369 $483 forward 7 unknown #
vertex $-1 $243 $484 #
vertex $-1 $243 $485 #
straight-curve $-1 48.410901211584829 0 -5.2732977258581775 0 1 0 I I #
edge $-1 $376 -29.12602638279926 $380 29.12602638279926 $363 $486 forward 7 unknown #
coedge $-1 $369 $245 $250 $383 forward $360 $-1 #
vertex $-1 $246 $487 #
straight-curve $-1 21.981877984457036 29.12602638279926 1.5338088626590709 1 0 0 I I #
coedge $-1 $367 $247 $477 $488 forward $237 $-1 #
coedge $-1 $247 $367 $249 $382 reversed $237 $-1 #
vertex $-1 $248 $489 #
straight-curve $-1 21.981877984457036 -29.12602638279926 1.5338088626590709 -1 0 0 I I #
edge $-1 $253 -1.5338088626590709 $371 5.2732977258581775 $249 $490 forward 7 unknown #
edge $-1 $252 -1.5338088626590709 $372 5.2732977258581775 $250 $491 forward 7 unknown #
point $-1 48.410901211584822 29.12602638279926 1.5338088626590709 #
point $-1 48.410901211584822 -29.12602638279926 1.5338088626590709 #
plane-surface $-1 0 -29.12602638279926 0 0 1 0 0 0 1 forward_v I I I I #
coedge $-1 $397 $396 $389 $492 forward $256 $-1 #
coedge $-1 $389 $258 $260 $393 reversed $150 $-1 #
coedge $-1 $258 $388 $387 $492 reversed $150 $-1 #
coedge $-1 $266 $261 $258 $391 forward $267 $-1 #
edge $-1 $394 -33.130531375272511 $493 -21.600249748892843 $390 $494 forward 7 unknown #
coedge $-1 $260 $259 $397 $495 reversed $93 $-1 #
edge $-1 $496 -16.028977527574661 $394 -3.07002231855188e-014 $388 $497 forward 7 unknown #
vertex $-1 $262 $498 #
straight-curve $-1 -1.569754104951592 -29.12602638279926 0.99701191958745716 1 0 0 I I #
coedge $-1 $387 $263 $266 $401 forward $256 $-1 #
coedge $-1 $263 $387 $392 $495 forward $256 $-1 #
vertex $-1 $264 $499 #
straight-curve $-1 -9.3784462350527136 -49.386901602008606 12.527293545967126 0 -1 0 I I #
straight-curve $-1 -9.3784462350527136 -29.126026382799282 0.99701191958743607 0 0.69465836192734942 0.71933980857756763 I I #
edge $-1 $268 -9.3784462350527136 $493 3.0994298152463458 $266 $500 forward 7 unknown #
point $-1 -9.3784462350527136 -29.12602638279926 12.527293545967126 #
point $-1 -9.3784462350527136 -29.12602638279926 0.99701191958745816 #
edge $-1 $501 1 $501 0 $271 $-1 forward 7 unknown #
vertex $-1 $272 $502 #
ellipse-curve $-1 -6.8828710249929017 -22.800508788060188 6.0299810809109529 0 -0.71933980857756763 0.69465836192734942 0.5 0 0 1 I I #
point $-1 -6.3828710249929017 -23.558694746461605 6.7621527327772792 #
edge $-1 $503 1 $503 0 $275 $-1 forward 7 unknown #
vertex $-1 $276 $504 #
ellipse-curve $-1 -3.1395082099031839 -22.800508788060188 6.0299810809109529 0 -0.71933980857756763 0.69465836192734942 0.5 0 0 1 I I #
point $-1 -2.6395082099031839 -23.558694746461605 6.7621527327772792 #
edge $-1 $505 1 $505 0 $279 $-1 forward 7 unknown #
vertex $-1 $280 $506 #
ellipse-curve $-1 0.60385460518653389 -22.800508788060188 6.0299810809109529 0 -0.71933980857756763 0.69465836192734942 0.5 0 0 1 I I #
point $-1 1.1038546051865339 -23.558694746461605 6.7621527327772792 #
loop $-1 $-1 $291 $283 #
plane-surface $-1 0 0 12.527293545967126 0 0 1 1 0 0 forward_v I I I I #
coedge $-1 $419 $286 $288 $423 reversed $179 $-1 #
coedge $-1 $286 $418 $507 $508 reversed $179 $-1 #
coedge $-1 $294 $289 $286 $421 forward $284 $-1 #
edge $-1 $424 -51.404563216090985 $509 -42.270424847022483 $420 $510 forward 7 unknown #
coedge $-1 $288 $287 $427 $511 reversed $112 $-1 #
edge $-1 $512 46.498612968161979 $424 58.252052765598499 $418 $513 forward 7 unknown #
vertex $-1 $290 $514 #
straight-curve $-1 -14.112291367134327 29.12602638279926 3.3931551768986239 -1 0 0 I I #
coedge $-1 $507 $291 $294 $431 forward $416 $-1 #
coedge $-1 $291 $507 $422 $511 forward $416 $-1 #
vertex $-1 $292 $515 #
straight-curve $-1 -16.932554742293981 33.855747943780614 12.527293545967126 0 1 0 I I #
straight-curve $-1 -16.932554742293981 -7.5331776478178654 48.663503212314225 0 -0.62932038083071107 0.77714596973225614 I I #
edge $-1 $295 16.932554742293981 $509 39.516610726243329 $294 $516 forward 7 unknown #
point $-1 -16.932554742293981 29.12602638279926 12.527293545967126 #
point $-1 -16.932554742293981 29.12602638279926 3.3931551768986239 #
edge $-1 $517 1 $517 0 $298 $-1 forward 7 unknown #
vertex $-1 $299 $518 #
ellipse-curve $-1 -33.064023302257802 23.62811014309148 6.5029559750712425 0 0.77714596973225614 0.62932038083071107 1.5 0 0 1 I I #
point $-1 -31.564023302257802 25.427686778102455 7.9602243614328563 #
edge $-1 $519 1 $519 0 $302 $-1 forward 7 unknown #
vertex $-1 $303 $520 #
ellipse-curve $-1 -23.385142166279508 23.62811014309148 6.5029559750712425 0 0.77714596973225614 0.62932038083071107 1.5 0 0 1 I I #
point $-1 -21.885142166279508 25.427686778102455 7.9602243614328563 #
plane-surface $-1 48.410901211584829 0 0 -1 0 0 0 0 1 forward_v I I I I #
coedge $-1 $311 $309 $313 $447 reversed $201 $-1 #
edge $-1 $324 -12.527293545967126 $449 12.527293545967126 $323 $521 forward 7 unknown #
vertex $-1 $447 $522 #
straight-curve $-1 -48.410901211584829 -29.12602638279926 0 0 0 -1 I I #
edge $-1 $445 -29.12602638279926 $449 29.12602638279926 $443 $523 forward 7 unknown #
straight-curve $-1 0 -29.12602638279926 -12.527293545967126 -1 0 0 I I #
vertex $-1 $316 $524 #
straight-curve $-1 0 29.12602638279926 -12.527293545967126 1 0 0 I I #
point $-1 48.410901211584829 29.12602638279926 -12.527293545967126 #
point $-1 48.410901211584829 -29.12602638279926 -12.527293545967126 #
straight-curve $-1 -48.410901211584829 0 12.527293545967126 0 -1 0 I I #
point $-1 -48.410901211584829 29.12602638279926 12.527293545967126 #
point $-1 -48.410901211584829 -29.12602638279926 12.527293545967126 #
straight-curve $-1 48.410901211584829 -29.12602638279926 0 0 0 -1 I I #
straight-curve $-1 48.410901211584829 29.12602638279926 0 0 0 -1 I I #
plane-surface $-1 0 29.12602638279926 0 0 -1 0 0 0 -1 forward_v I I I I #
coedge $-1 $469 $468 $339 $461 forward $334 $-1 #
straight-curve $-1 -39.516610726243329 -29.12602638279926 -0.93487221579977664 0 0 1 I I #
edge $-1 $464 -29.12602638279926 $462 29.12602638279926 $459 $525 forward 7 unknown #
vertex $-1 $340 $526 #
straight-curve $-1 -21.981877984457039 -29.12602638279926 -5.2732977258581775 1 0 0 I I #
vertex $-1 $342 $527 #
straight-curve $-1 -21.981877984457039 29.12602638279926 -5.2732977258581775 -1 0 0 I I #
point $-1 -39.516610726243329 29.12602638279926 -5.2732977258581775 #
point $-1 -39.516610726243329 -29.12602638279926 -5.2732977258581775 #
coedge $-1 $459 $346 $349 $471 forward $334 $-1 #
coedge $-1 $346 $459 $353 $473 reversed $334 $-1 #
straight-curve $-1 -48.410901211584829 0 1.5338088626590709 0 1 0 I I #
edge $-1 $351 -1.5338088626590709 $464 5.2732977258581775 $349 $528 forward 7 unknown #
point $-1 -48.410901211584829 29.12602638279926 1.5338088626590709 #
edge $-1 $354 -1.5338088626590709 $462 5.2732977258581775 $469 $529 forward 7 unknown #
point $-1 -48.410901211584829 -29.12602638279926 1.5338088626590709 #
straight-curve $-1 -39.516610726243329 29.12602638279926 -0.93487221579977664 0 0 -1 I I #
plane-surface $-1 48.410901211584829 0 0 -1 0 0 0 0 1 forward_v I I I I #
coedge $-1 $363 $362 $378 $488 reversed $142 $-1 #
edge $-1 $481 -29.12602638279926 $479 29.12602638279926 $362 $530 forward 7 unknown #
vertex $-1 $370 $531 #
straight-curve $-1 39.516610726243321 29.12602638279926 -0.93487221579977664 0 0 1 I I #
vertex $-1 $368 $532 #
straight-curve $-1 21.981877984457036 -29.12602638279926 -5.2732977258581775 1 0 0 I I #
straight-curve $-1 21.981877984457036 29.12602638279926 -5.2732977258581775 -1 0 0 I I #
point $-1 48.410901211584822 -29.12602638279926 -5.2732977258581775 #
point $-1 48.410901211584822 29.12602638279926 -5.2732977258581775 #
straight-curve $-1 39.516610726243321 0 1.5338088626590709 0 -1 0 I I #
point $-1 39.516610726243321 29.12602638279926 1.5338088626590709 #
edge $-1 $380 -2.4686810784588475 $481 4.3384255100584008 $378 $533 forward 7 unknown #
point $-1 39.516610726243321 -29.12602638279926 1.5338088626590709 #
straight-curve $-1 48.410901211584829 -29.12602638279926 0 0 0 -1 I I #
straight-curve $-1 48.410901211584829 29.12602638279926 0 0 0 -1 I I #
edge $-1 $493 20.260875219209346 $496 31.395538491884636 $387 $534 forward 7 unknown #
vertex $-1 $492 $535 #
straight-curve $-1 3.0994298152463458 -29.12602638279926 34.127543294859969 0 0 1 I I #
edge $-1 $496 -4.6691839201979377 $398 7.8086921301011216 $397 $536 forward 7 unknown #
vertex $-1 $495 $537 #
straight-curve $-1 3.0994298152463458 -29.126026382799282 0.99701191958743607 0 -0.69465836192734942 -0.71933980857756763 I I #
point $-1 3.0994298152463458 -29.12602638279926 0.99701191958745816 #
point $-1 -9.3784462350527136 -17.99136311012397 12.527293545967126 #
straight-curve $-1 0 -29.12602638279926 12.527293545967126 1 0 0 I I #
vertex $-1 $404 $538 #
point $-1 -6.3828710249929017 -22.800508788060188 6.0299810809109529 #
vertex $-1 $408 $539 #
point $-1 -2.6395082099031839 -22.800508788060188 6.0299810809109529 #
vertex $-1 $412 $540 #
point $-1 1.1038546051865339 -22.800508788060188 6.0299810809109529 #
coedge $-1 $427 $426 $419 $508 forward $416 $-1 #
edge $-1 $509 4.7297215609813534 $512 12.126400770374943 $507 $541 forward 7 unknown #
vertex $-1 $508 $542 #
straight-curve $-1 -39.516610726243329 29.12602638279926 54.797718392989609 0 0 1 I I #
edge $-1 $512 -25.404319359109003 $428 -2.8202633751596533 $427 $543 forward 7 unknown #
vertex $-1 $511 $544 #
straight-curve $-1 -39.516610726243329 -7.5331776478178654 48.663503212314225 0 0.62932038083071107 -0.77714596973225614 I I #
point $-1 -39.516610726243329 29.12602638279926 3.3931551768986239 #
point $-1 -16.932554742293981 21.729347173405671 12.527293545967126 #
straight-curve $-1 0 29.12602638279926 12.527293545967126 -1 0 0 I I #
vertex $-1 $434 $545 #
point $-1 -31.564023302257802 23.62811014309148 6.5029559750712425 #
vertex $-1 $438 $546 #
point $-1 -21.885142166279508 23.62811014309148 6.5029559750712425 #
straight-curve $-1 -48.410901211584829 29.12602638279926 0 0 0 -1 I I #
point $-1 -48.410901211584829 -29.12602638279926 -12.527293545967126 #
straight-curve $-1 -48.410901211584829 0 -12.527293545967126 0 1 0 I I #
point $-1 -48.410901211584829 29.12602638279926 -12.527293545967126 #
straight-curve $-1 -48.410901211584829 0 -5.2732977258581775 0 -1 0 I I #
point $-1 -48.410901211584829 -29.12602638279926 -5.2732977258581775 #
point $-1 -48.410901211584829 29.12602638279926 -5.2732977258581775 #
straight-curve $-1 -48.410901211584829 29.12602638279926 0 0 0 -1 I I #
straight-curve $-1 -48.410901211584829 -29.12602638279926 0 0 0 -1 I I #
straight-curve $-1 39.516610726243321 0 -5.2732977258581775 0 1 0 I I #
point $-1 39.516610726243321 29.12602638279926 -5.2732977258581775 #
point $-1 39.516610726243321 -29.12602638279926 -5.2732977258581775 #
straight-curve $-1 39.516610726243321 -29.12602638279926 -0.93487221579977664 0 0 -1 I I #
straight-curve $-1 3.0994298152463458 -49.386901602008606 12.527293545967126 0 1 0 I I #
point $-1 3.0994298152463458 -29.12602638279926 12.527293545967126 #
straight-curve $-1 -1.569754104951592 -17.991363110123974 12.527293545967126 -1 0 0 I I #
point $-1 3.0994298152463458 -17.99136311012397 12.527293545967126 #
point $-1 -6.8828710249929017 -22.440838883771402 5.6826518999472784 #
point $-1 -3.1395082099031839 -22.440838883771402 5.6826518999472784 #
point $-1 0.60385460518653389 -22.440838883771402 5.6826518999472784 #
straight-curve $-1 -39.516610726243329 33.855747943780614 12.527293545967126 0 -1 0 I I #
point $-1 -39.516610726243329 29.12602638279926 12.527293545967126 #
straight-curve $-1 -14.112291367134327 21.729347173405664 12.527293545967126 1 0 0 I I #
point $-1 -39.516610726243329 21.729347173405671 12.527293545967126 #
point $-1 -33.064023302257802 22.462391188493097 5.5589754038251753 #
point $-1 -23.385142166279508 22.462391188493097 5.5589754038251753 #
End-of-ACIS-data 