500 0 5 0           
7 Unknown 11 ACIS 5.0 NT 24 Thu Mar 25 18:44:58 1999 
-1 9.9999999999999995e-007 1e-010 
body $-1 $5 $-1 $6 #
body $-1 $7 $-1 $8 #
body $-1 $9 $-1 $10 #
body $-1 $11 $-1 $12 #
body $-1 $13 $-1 $14 #
lump $-1 $-1 $15 $0 #
transform $-1 1 0 0 0 1 0 0 0 1 46.264839625232703 27.916616796964586 6.3973840713744741 1 rotate no_reflect no_shear #
lump $-1 $-1 $16 $1 #
transform $-1 1 0 0 0 1 0 0 0 1 46.264839625232703 27.916616796964586 6.3973840713744741 1 rotate no_reflect no_shear #
lump $-1 $-1 $17 $2 #
transform $-1 1 0 0 0 1 0 0 0 1 46.264839625232703 27.916616796964586 6.3973840713744741 1 rotate no_reflect no_shear #
lump $-1 $-1 $18 $3 #
transform $-1 1 0 0 0 1 0 0 0 1 46.264839625232703 27.916616796964586 6.3973840713744741 1 rotate no_reflect no_shear #
lump $-1 $-1 $19 $4 #
transform $-1 1 0 0 0 1 0 0 0 1 46.264839625232703 27.916616796964586 6.3973840713744741 1 rotate no_reflect no_shear #
shell $-1 $-1 $-1 $20 $-1 $5 #
shell $-1 $-1 $-1 $21 $-1 $7 #
shell $-1 $-1 $-1 $22 $-1 $9 #
shell $-1 $-1 $-1 $23 $-1 $11 #
shell $-1 $-1 $-1 $24 $-1 $13 #
face $-1 $25 $26 $15 $-1 $27 forward single #
face $-1 $28 $29 $16 $-1 $30 reversed single #
face $-1 $31 $32 $17 $-1 $33 forward single #
face $-1 $34 $35 $18 $-1 $36 forward single #
face $-1 $37 $38 $19 $-1 $39 reversed single #
face $-1 $40 $41 $15 $-1 $42 reversed single #
loop $-1 $-1 $43 $20 #
plane-surface $-1 0 0 6.3973840713744741 0 0 1 1 0 0 forward_v I I I I #
face $-1 $44 $45 $16 $-1 $46 forward single #
loop $-1 $-1 $47 $21 #
plane-surface $-1 -43.495241090269552 0 -2.5792353117472917 0 0 1 1 0 0 forward_v I I I I #
face $-1 $48 $49 $17 $-1 $50 forward single #
loop $-1 $-1 $51 $22 #
plane-surface $-1 43.596651937596242 0 3.3973840713744741 0 0 1 1 0 0 forward_v I I I I #
face $-1 $52 $53 $18 $-1 $54 forward single #
loop $-1 $-1 $55 $23 #
plane-surface $-1 -22.150809744375479 -100.83099983789049 59.453278550620425 -1 0 0 0 -0.78801076186113728 0.61566146476048833 forward_v I I I I #
face $-1 $56 $57 $19 $-1 $58 reversed single #
loop $-1 $59 $60 $24 #
cone-surface $-1 -31.43822614984094 -25.947514515657193 4.097091730468259 0 0.78801076186113728 -0.61566146476048833 0.5 0 0 1 I I 0 1 0.5 forward I I I I #
face $-1 $61 $62 $15 $-1 $63 reversed single #
loop $-1 $-1 $64 $25 #
plane-surface $-1 0 0 -6.3973840713744741 0 0 1 1 0 0 forward_v I I I I #
coedge $-1 $65 $66 $67 $68 forward $26 $-1 #
face $-1 $69 $70 $16 $-1 $71 forward single #
loop $-1 $-1 $72 $28 #
plane-surface $-1 -43.495241090269552 0 -5.5792353117472917 0 0 1 1 0 0 forward_v I I I I #
coedge $-1 $73 $74 $75 $76 reversed $29 $-1 #
face $-1 $77 $78 $17 $-1 $79 forward single #
loop $-1 $-1 $80 $31 #
plane-surface $-1 40.928464249959774 0 4.8973840713744741 1 0 0 0 0 -1 forward_v I I I I #
coedge $-1 $81 $82 $83 $84 reversed $32 $-1 #
face $-1 $85 $86 $18 $-1 $87 forward single #
loop $-1 $-1 $88 $34 #
plane-surface $-1 -31.43822614984094 -27.916616796964576 2.4863206894607259 0 -0.78801076186113728 0.61566146476048833 1 0 0 forward_v I I I I #
coedge $-1 $89 $90 $91 $92 reversed $35 $-1 #
face $-1 $93 $94 $19 $-1 $95 forward single #
loop $-1 $96 $97 $37 #
cone-surface $-1 -31.43822614984094 -25.309238303984902 3.5984157143287918 0 0.78801076186113728 -0.61566146476048833 0.25 0 0 1 I I -0.70710678118654746 0.70710678118654746 0.25 forward I I I I #
loop $-1 $-1 $98 $24 #
coedge $-1 $60 $60 $99 $100 reversed $38 $-1 #
face $-1 $101 $102 $15 $-1 $103 reversed single #
loop $-1 $-1 $104 $40 #
plane-surface $-1 0 -27.916616796964586 0 0 1 0 0 0 1 forward_v I I I I #
coedge $-1 $105 $106 $107 $108 forward $41 $-1 #
coedge $-1 $109 $43 $110 $111 forward $26 $-1 #
coedge $-1 $43 $109 $112 $113 forward $26 $-1 #
coedge $-1 $114 $115 $43 $68 reversed $116 $-1 #
edge $-1 $117 -27.916616796964586 $118 27.916616796964586 $67 $119 forward 7 unknown #
face $-1 $120 $121 $16 $-1 $122 reversed single #
loop $-1 $-1 $123 $44 #
plane-surface $-1 -40.725642555306401 0 -4.0792353117472917 -1 0 0 0 0 1 forward_v I I I I #
coedge $-1 $124 $125 $126 $127 reversed $45 $-1 #
coedge $-1 $128 $47 $129 $130 reversed $29 $-1 #
coedge $-1 $47 $128 $131 $132 reversed $29 $-1 #
coedge $-1 $133 $123 $47 $76 forward $70 $-1 #
edge $-1 $134 -27.916616796964586 $135 27.916616796964586 $75 $136 forward 7 unknown #
face $-1 $137 $138 $17 $-1 $139 reversed single #
loop $-1 $-1 $140 $48 #
plane-surface $-1 0 0 6.3973840713744741 0 0 1 1 0 0 forward_v I I I I #
coedge $-1 $141 $142 $143 $144 reversed $49 $-1 #
coedge $-1 $145 $51 $146 $147 reversed $32 $-1 #
coedge $-1 $51 $145 $148 $149 reversed $32 $-1 #
coedge $-1 $150 $151 $51 $84 forward $152 $-1 #
edge $-1 $153 -27.916616796964586 $154 27.916616796964586 $83 $155 forward 7 unknown #
face $-1 $156 $157 $18 $-1 $158 forward single #
loop $-1 $-1 $159 $52 #
plane-surface $-1 -40.725642555306401 -100.83099983789049 59.453278550620425 1 0 0 0 0.78801076186113728 -0.61566146476048833 forward_v I I I I #
coedge $-1 $160 $161 $162 $163 reversed $53 $-1 #
coedge $-1 $90 $55 $161 $164 forward $35 $-1 #
coedge $-1 $55 $89 $165 $166 reversed $35 $-1 #
coedge $-1 $167 $162 $55 $92 forward $157 $-1 #
edge $-1 $168 -25.554540642181443 $169 -22.498883121980658 $91 $170 forward 7 unknown #
face $-1 $171 $172 $19 $-1 $173 forward single #
loop $-1 $-1 $174 $56 #
plane-surface $-1 -22.150809744375479 -100.83099983789049 59.453278550620425 -1 0 0 0 -0.78801076186113728 0.61566146476048833 forward_v I I I I #
loop $-1 $-1 $175 $37 #
coedge $-1 $97 $97 $98 $176 forward $57 $-1 #
coedge $-1 $98 $98 $97 $176 reversed $59 $-1 #
coedge $-1 $99 $99 $60 $100 forward $172 $-1 #
edge $-1 $177 -8.7426961934069557e-016 $177 6.2831853071795996 $99 $178 forward 7 unknown #
face $-1 $179 $180 $15 $-1 $181 reversed single #
loop $-1 $-1 $182 $61 #
plane-surface $-1 -46.264839625232703 0 0 1 0 0 0 0 -1 forward_v I I I I #
coedge $-1 $183 $112 $184 $185 forward $62 $-1 #
coedge $-1 $186 $64 $183 $187 forward $41 $-1 #
coedge $-1 $64 $186 $188 $189 forward $41 $-1 #
coedge $-1 $115 $114 $64 $108 reversed $116 $-1 #
edge $-1 $190 -27.916616796964586 $191 27.916616796964586 $107 $192 forward 7 unknown #
coedge $-1 $66 $65 $193 $194 forward $26 $-1 #
coedge $-1 $195 $196 $65 $111 reversed $180 $-1 #
edge $-1 $118 -46.264839625232703 $197 46.264839625232703 $110 $198 forward 7 unknown #
coedge $-1 $104 $199 $66 $113 reversed $62 $-1 #
edge $-1 $200 -46.264839625232703 $117 46.264839625232703 $112 $201 forward 7 unknown #
coedge $-1 $107 $67 $199 $202 forward $116 $-1 #
coedge $-1 $67 $107 $195 $203 reversed $116 $-1 #
loop $-1 $-1 $114 $179 #
vertex $-1 $68 $204 #
vertex $-1 $68 $205 #
straight-curve $-1 46.264839625232703 0 6.3973840713744741 0 1 0 I I #
face $-1 $206 $207 $16 $-1 $122 reversed single #
loop $-1 $-1 $208 $69 #
plane-surface $-1 -46.264839625232703 0 0 1 0 0 0 0 -1 forward_v I I I I #
coedge $-1 $75 $126 $209 $210 reversed $70 $-1 #
coedge $-1 $211 $72 $212 $213 reversed $45 $-1 #
coedge $-1 $72 $211 $214 $215 reversed $45 $-1 #
coedge $-1 $123 $133 $72 $127 forward $70 $-1 #
edge $-1 $216 -27.916616796964586 $217 27.916616796964586 $126 $218 forward 7 unknown #
coedge $-1 $74 $73 $219 $220 reversed $29 $-1 #
coedge $-1 $209 $221 $73 $130 forward $222 $-1 #
edge $-1 $223 -24.517219080097927 $134 -18.978022010171625 $129 $224 forward 7 unknown #
coedge $-1 $225 $226 $74 $132 forward $227 $-1 #
edge $-1 $135 18.978022010171625 $228 24.517219080097927 $131 $229 forward 7 unknown #
coedge $-1 $126 $75 $226 $230 reversed $70 $-1 #
vertex $-1 $130 $231 #
vertex $-1 $132 $232 #
straight-curve $-1 -40.725642555306401 0 -2.5792353117472917 0 1 0 I I #
face $-1 $233 $234 $17 $-1 $235 reversed single #
loop $-1 $-1 $143 $77 #
plane-surface $-1 0 27.916616796964586 0 0 -1 0 0 0 -1 forward_v I I I I #
coedge $-1 $236 $237 $141 $238 forward $78 $-1 #
coedge $-1 $239 $80 $140 $238 reversed $49 $-1 #
coedge $-1 $80 $239 $145 $240 forward $49 $-1 #
coedge $-1 $146 $241 $80 $144 forward $138 $-1 #
edge $-1 $242 -3.948692035687237 $243 -0.94869203568723703 $143 $244 forward 7 unknown #
coedge $-1 $82 $81 $142 $240 reversed $32 $-1 #
coedge $-1 $245 $143 $81 $147 forward $138 $-1 #
edge $-1 $243 19.130138281161653 $153 24.466513656434589 $146 $246 forward 7 unknown #
coedge $-1 $247 $248 $82 $149 forward $249 $-1 #
edge $-1 $154 -24.466513656434589 $250 -19.130138281161653 $148 $251 forward 7 unknown #
coedge $-1 $252 $83 $248 $253 forward $152 $-1 #
coedge $-1 $83 $252 $245 $254 reversed $152 $-1 #
loop $-1 $-1 $83 $255 #
vertex $-1 $254 $256 #
vertex $-1 $253 $257 #
straight-curve $-1 46.264839625232703 0 3.3973840713744741 0 -1 0 I I #
face $-1 $258 $259 $18 $-1 $260 forward single #
loop $-1 $-1 $261 $85 #
plane-surface $-1 0 0 6.3973840713744741 0 0 1 1 0 0 forward_v I I I I #
coedge $-1 $262 $263 $261 $264 reversed $86 $-1 #
coedge $-1 $265 $88 $263 $266 reversed $53 $-1 #
coedge $-1 $88 $265 $89 $164 reversed $53 $-1 #
coedge $-1 $91 $261 $88 $163 forward $157 $-1 #
edge $-1 $267 -25.006529480385929 $168 -6.4316966694550093 $162 $268 forward 7 unknown #
edge $-1 $168 -4.9632106199622594 $269 1.7410166096330825e-014 $89 $270 forward 7 unknown #
coedge $-1 $271 $272 $90 $166 forward $273 $-1 #
edge $-1 $169 23.329255203935737 $269 27.240318585849501 $165 $274 forward 7 unknown #
coedge $-1 $275 $91 $272 $276 forward $157 $-1 #
vertex $-1 $163 $277 #
vertex $-1 $276 $278 #
straight-curve $-1 -22.150809744375479 -50.415499918945244 6.397384071374475 0 -1 0 I I #
face $-1 $279 $280 $19 $-1 $281 forward single #
loop $-1 $282 $99 $93 #
plane-surface $-1 -31.43822614984094 -27.916616796964576 2.4863206894607259 0 -0.78801076186113728 0.61566146476048833 1 0 0 forward_v I I I I #
coedge $-1 $283 $284 $285 $286 reversed $94 $-1 #
coedge $-1 $175 $175 $-1 $287 forward $96 $-1 #
edge $-1 $288 0 $288 6.2831853071796004 $97 $289 forward 7 unknown #
vertex $-1 $100 $290 #
ellipse-curve $-1 -31.43822614984094 -26.388788036864192 4.441852380417596 0 0.78801076186113728 -0.61566146476048833 0.5 0 0 1 I I #
face $-1 $-1 $116 $15 $-1 $291 reversed single #
loop $-1 $-1 $195 $101 #
plane-surface $-1 0 27.916616796964586 0 0 -1 0 0 0 -1 forward_v I I I I #
coedge $-1 $292 $193 $196 $293 forward $102 $-1 #
coedge $-1 $199 $104 $105 $187 reversed $62 $-1 #
coedge $-1 $193 $292 $104 $185 reversed $102 $-1 #
edge $-1 $200 -6.3973840713744741 $294 6.3973840713744741 $184 $295 forward 7 unknown #
coedge $-1 $106 $105 $292 $296 forward $41 $-1 #
edge $-1 $191 -46.264839625232703 $294 46.264839625232703 $183 $297 forward 7 unknown #
coedge $-1 $196 $195 $106 $189 reversed $180 $-1 #
edge $-1 $298 -46.264839625232703 $190 46.264839625232703 $188 $299 forward 7 unknown #
vertex $-1 $108 $300 #
vertex $-1 $202 $301 #
straight-curve $-1 46.264839625232703 0 -6.3973840713744741 0 -1 0 I I #
coedge $-1 $182 $184 $109 $194 reversed $102 $-1 #
edge $-1 $197 -27.916616796964586 $200 27.916616796964586 $193 $302 forward 7 unknown #
coedge $-1 $188 $110 $115 $203 forward $180 $-1 #
coedge $-1 $110 $188 $182 $293 reversed $180 $-1 #
vertex $-1 $111 $303 #
straight-curve $-1 0 27.916616796964586 6.3973840713744741 -1 0 0 I I #
coedge $-1 $112 $183 $114 $202 reversed $62 $-1 #
vertex $-1 $194 $304 #
straight-curve $-1 0 -27.916616796964586 6.3973840713744741 1 0 0 I I #
edge $-1 $117 -6.3973840713744741 $191 6.3973840713744741 $114 $305 forward 7 unknown #
edge $-1 $118 -6.3973840713744741 $190 6.3973840713744741 $115 $306 forward 7 unknown #
point $-1 46.264839625232703 -27.916616796964586 6.3973840713744741 #
point $-1 46.264839625232703 27.916616796964586 6.3973840713744741 #
face $-1 $307 $222 $16 $-1 $308 reversed single #
loop $-1 $-1 $219 $120 #
coedge $-1 $309 $310 $211 $311 forward $121 $-1 #
coedge $-1 $214 $129 $123 $210 forward $222 $-1 #
edge $-1 $134 0.53961765587364585 $217 3.5396176558736459 $209 $312 forward 7 unknown #
coedge $-1 $125 $124 $208 $311 reversed $45 $-1 #
coedge $-1 $226 $313 $124 $213 forward $227 $-1 #
edge $-1 $314 -24.517219080097927 $216 -18.978022010171625 $212 $315 forward 7 unknown #
coedge $-1 $316 $209 $125 $215 forward $222 $-1 #
edge $-1 $217 18.978022010171625 $317 24.517219080097927 $214 $318 forward 7 unknown #
vertex $-1 $213 $319 #
vertex $-1 $215 $320 #
straight-curve $-1 -40.725642555306401 0 -5.5792353117472917 0 -1 0 I I #
coedge $-1 $321 $322 $128 $220 forward $207 $-1 #
edge $-1 $228 -27.916616796964586 $223 27.916616796964586 $219 $323 forward 7 unknown #
coedge $-1 $129 $324 $321 $325 forward $222 $-1 #
loop $-1 $-1 $129 $206 #
vertex $-1 $130 $326 #
straight-curve $-1 -21.747620545134776 -27.916616796964586 -2.5792353117472917 1 0 0 I I #
coedge $-1 $327 $131 $322 $328 reversed $227 $-1 #
coedge $-1 $131 $212 $133 $230 forward $227 $-1 #
loop $-1 $-1 $131 $329 #
vertex $-1 $220 $330 #
straight-curve $-1 -21.747620545134776 27.916616796964586 -2.5792353117472917 -1 0 0 I I #
edge $-1 $216 -3.5396176558736459 $135 -0.53961765587364585 $226 $331 forward 7 unknown #
point $-1 -40.725642555306401 -27.916616796964586 -2.5792353117472917 #
point $-1 -40.725642555306401 27.916616796964586 -2.5792353117472917 #
face $-1 $332 $333 $17 $-1 $334 forward single #
loop $-1 $-1 $335 $137 #
plane-surface $-1 -43.495241090269552 0 -2.5792353117472917 0 0 1 1 0 0 forward_v I I I I #
coedge $-1 $336 $140 $241 $337 forward $78 $-1 #
coedge $-1 $140 $336 $338 $339 forward $78 $-1 #
edge $-1 $340 -27.916616796964586 $242 27.916616796964586 $140 $341 forward 7 unknown #
coedge $-1 $142 $141 $247 $342 reversed $49 $-1 #
edge $-1 $250 -27.916616796964586 $243 27.916616796964586 $142 $343 forward 7 unknown #
coedge $-1 $143 $344 $236 $337 reversed $138 $-1 #
vertex $-1 $337 $345 #
vertex $-1 $147 $346 #
straight-curve $-1 40.928464249959774 27.916616796964586 2.448692035687237 0 0 -1 I I #
coedge $-1 $347 $146 $151 $254 forward $138 $-1 #
straight-curve $-1 21.798325968798121 27.916616796964586 3.3973840713744741 1 0 0 I I #
coedge $-1 $338 $148 $239 $342 forward $249 $-1 #
coedge $-1 $148 $348 $150 $253 reversed $249 $-1 #
loop $-1 $-1 $247 $349 #
vertex $-1 $149 $350 #
straight-curve $-1 21.798325968798121 -27.916616796964586 3.3973840713744741 -1 0 0 I I #
coedge $-1 $151 $150 $351 $352 reversed $152 $-1 #
edge $-1 $154 -3.3973840713744741 $353 6.3973840713744741 $150 $354 forward 7 unknown #
edge $-1 $153 -3.3973840713744741 $355 6.3973840713744741 $151 $356 forward 7 unknown #
face $-1 $-1 $152 $17 $-1 $357 reversed single #
point $-1 46.26483962523271 27.916616796964586 3.3973840713744741 #
point $-1 46.26483962523271 -27.916616796964586 3.3973840713744741 #
face $-1 $358 $359 $18 $-1 $360 forward single #
loop $-1 $-1 $361 $156 #
plane-surface $-1 43.596651937596242 0 3.3973840713744741 0 0 1 1 0 0 forward_v I I I I #
coedge $-1 $162 $362 $159 $264 forward $157 $-1 #
coedge $-1 $263 $159 $363 $364 reversed $86 $-1 #
coedge $-1 $159 $262 $160 $266 forward $86 $-1 #
edge $-1 $365 22.498883121980658 $267 25.554540642181443 $261 $366 forward 7 unknown #
coedge $-1 $161 $160 $271 $367 reversed $53 $-1 #
edge $-1 $368 -1.7410166096330825e-014 $267 4.9632106199622594 $263 $369 forward 7 unknown #
vertex $-1 $163 $370 #
straight-curve $-1 -15.71911307492047 -24.860959276763801 6.3973840713744741 1 0 0 I I #
vertex $-1 $367 $371 #
straight-curve $-1 -22.150809744375479 -27.916616796964576 2.4863206894607259 0 -0.61566146476048833 -0.78801076186113728 I I #
coedge $-1 $363 $165 $265 $367 forward $273 $-1 #
coedge $-1 $165 $372 $167 $276 reversed $273 $-1 #
loop $-1 $-1 $363 $373 #
straight-curve $-1 -22.150809744375479 -27.91661679696459 29.726639275310212 0 0 -1 I I #
coedge $-1 $374 $167 $375 $376 forward $157 $-1 #
edge $-1 $169 -22.150809744375479 $377 40.928464249959774 $272 $378 forward 7 unknown #
point $-1 -22.150809744375479 -24.860959276763801 6.3973840713744741 #
point $-1 -22.150809744375479 -27.916616796964586 6.3973840713744741 #
face $-1 $379 $380 $19 $-1 $381 forward single #
loop $-1 $-1 $382 $171 #
plane-surface $-1 -40.725642555306401 -100.83099983789049 59.453278550620425 1 0 0 0 0.78801076186113728 -0.61566146476048833 forward_v I I I I #
loop $-1 $-1 $383 $93 #
coedge $-1 $284 $174 $384 $385 forward $94 $-1 #
coedge $-1 $174 $283 $386 $387 reversed $94 $-1 #
coedge $-1 $388 $389 $174 $286 forward $380 $-1 #
edge $-1 $390 -25.554540642181443 $391 -22.498883121980658 $285 $392 forward 7 unknown #
edge $-1 $393 1 $393 0 $175 $-1 forward 7 unknown #
vertex $-1 $176 $394 #
ellipse-curve $-1 -31.43822614984094 -25.506240994450184 3.7523310805189141 0 -0.78801076186113728 0.61566146476048833 0.5 0 0 1 I I #
point $-1 -30.93822614984094 -26.388788036864202 4.4418523804176049 #
plane-surface $-1 46.264839625232703 0 0 -1 0 0 0 0 1 forward_v I I I I #
coedge $-1 $184 $182 $186 $296 reversed $102 $-1 #
edge $-1 $197 -6.3973840713744741 $298 6.3973840713744741 $196 $395 forward 7 unknown #
vertex $-1 $296 $396 #
straight-curve $-1 -46.264839625232703 -27.916616796964586 0 0 0 -1 I I #
edge $-1 $294 -27.916616796964586 $298 27.916616796964586 $292 $397 forward 7 unknown #
straight-curve $-1 0 -27.916616796964586 -6.3973840713744741 -1 0 0 I I #
vertex $-1 $189 $398 #
straight-curve $-1 0 27.916616796964586 -6.3973840713744741 1 0 0 I I #
point $-1 46.264839625232703 27.916616796964586 -6.3973840713744741 #
point $-1 46.264839625232703 -27.916616796964586 -6.3973840713744741 #
straight-curve $-1 -46.264839625232703 0 6.3973840713744741 0 -1 0 I I #
point $-1 -46.264839625232703 27.916616796964586 6.3973840713744741 #
point $-1 -46.264839625232703 -27.916616796964586 6.3973840713744741 #
straight-curve $-1 46.264839625232703 -27.916616796964586 0 0 0 -1 I I #
straight-curve $-1 46.264839625232703 27.916616796964586 0 0 0 -1 I I #
face $-1 $399 $400 $16 $-1 $401 forward single #
plane-surface $-1 0 -27.916616796964586 0 0 1 0 0 0 1 forward_v I I I I #
coedge $-1 $402 $208 $313 $403 forward $121 $-1 #
coedge $-1 $208 $402 $316 $404 reversed $121 $-1 #
edge $-1 $317 -27.916616796964586 $314 27.916616796964586 $208 $405 forward 7 unknown #
straight-curve $-1 -40.725642555306401 -27.916616796964586 -2.0396176558736459 0 0 -1 I I #
coedge $-1 $212 $406 $309 $403 reversed $227 $-1 #
vertex $-1 $403 $407 #
straight-curve $-1 -21.747620545134776 27.916616796964586 -5.5792353117472917 1 0 0 I I #
coedge $-1 $408 $214 $310 $404 forward $222 $-1 #
vertex $-1 $404 $409 #
straight-curve $-1 -21.747620545134776 -27.916616796964586 -5.5792353117472917 -1 0 0 I I #
point $-1 -40.725642555306401 27.916616796964586 -5.5792353117472917 #
point $-1 -40.725642555306401 -27.916616796964586 -5.5792353117472917 #
coedge $-1 $410 $219 $221 $325 reversed $207 $-1 #
coedge $-1 $219 $410 $225 $328 forward $207 $-1 #
straight-curve $-1 -46.264839625232703 0 -2.5792353117472917 0 -1 0 I I #
coedge $-1 $221 $411 $412 $413 reversed $222 $-1 #
edge $-1 $414 -6.3973840713744741 $223 2.5792353117472917 $321 $415 forward 7 unknown #
point $-1 -46.264839625232703 -27.916616796964586 -2.5792353117472917 #
coedge $-1 $416 $225 $417 $418 reversed $227 $-1 #
edge $-1 $419 -6.3973840713744741 $228 2.5792353117472917 $225 $420 forward 7 unknown #
face $-1 $421 $227 $16 $-1 $422 reversed single #
point $-1 -46.264839625232703 27.916616796964586 -2.5792353117472917 #
straight-curve $-1 -40.725642555306401 27.916616796964586 -2.0396176558736459 0 0 1 I I #
face $-1 $423 $424 $17 $-1 $425 forward single #
loop $-1 $-1 $426 $233 #
plane-surface $-1 -43.495241090269552 0 -5.5792353117472917 0 0 1 1 0 0 forward_v I I I I #
coedge $-1 $427 $428 $429 $430 reversed $234 $-1 #
coedge $-1 $237 $236 $431 $432 forward $78 $-1 #
edge $-1 $242 -40.928464249959774 $433 46.264839625232703 $241 $434 forward 7 unknown #
coedge $-1 $435 $247 $237 $339 reversed $249 $-1 #
edge $-1 $436 -46.264839625232703 $340 40.928464249959774 $338 $437 forward 7 unknown #
vertex $-1 $238 $438 #
straight-curve $-1 40.928464249959774 0 6.3973840713744741 0 1 0 I I #
edge $-1 $250 0.94869203568723703 $340 3.948692035687237 $247 $439 forward 7 unknown #
straight-curve $-1 40.928464249959774 0 3.3973840713744741 0 1 0 I I #
coedge $-1 $241 $440 $441 $442 reversed $138 $-1 #
point $-1 40.928464249959774 27.916616796964586 6.3973840713744741 #
point $-1 40.928464249959774 27.916616796964586 3.3973840713744741 #
coedge $-1 $443 $245 $444 $445 reversed $138 $-1 #
coedge $-1 $248 $446 $447 $448 reversed $249 $-1 #
face $-1 $449 $249 $17 $-1 $450 reversed single #
point $-1 40.928464249959774 -27.916616796964586 3.3973840713744741 #
coedge $-1 $447 $444 $252 $352 forward $451 $-1 #
edge $-1 $355 -27.916616796964586 $353 27.916616796964586 $252 $452 forward 7 unknown #
vertex $-1 $253 $453 #
straight-curve $-1 46.264839625232703 -27.916616796964586 0 0 0 -1 I I #
vertex $-1 $352 $454 #
straight-curve $-1 46.264839625232703 27.916616796964586 0 0 0 -1 I I #
plane-surface $-1 46.264839625232703 0 0 -1 0 0 0 0 1 forward_v I I I I #
face $-1 $455 $456 $18 $-1 $457 reversed single #
loop $-1 $-1 $458 $258 #
plane-surface $-1 40.928464249959774 0 4.8973840713744741 1 0 0 0 0 -1 forward_v I I I I #
coedge $-1 $459 $460 $461 $462 reversed $259 $-1 #
coedge $-1 $261 $463 $464 $465 forward $157 $-1 #
coedge $-1 $464 $271 $262 $364 forward $273 $-1 #
edge $-1 $368 -27.240318585849501 $365 -23.329255203935737 $363 $466 forward 7 unknown #
vertex $-1 $364 $467 #
straight-curve $-1 -40.725642555306401 -50.415499918945244 6.397384071374475 0 1 0 I I #
edge $-1 $269 6.4316966694550093 $368 25.006529480385929 $271 $468 forward 7 unknown #
vertex $-1 $367 $469 #
straight-curve $-1 -40.725642555306401 -27.916616796964576 2.4863206894607259 0 0.61566146476048833 0.78801076186113728 I I #
point $-1 -40.725642555306401 -24.860959276763801 6.3973840713744741 #
point $-1 -22.150809744375479 -27.916616796964586 2.4863206894607122 #
coedge $-1 $272 $470 $471 $472 forward $273 $-1 #
face $-1 $473 $273 $18 $-1 $474 reversed single #
coedge $-1 $463 $275 $475 $476 forward $157 $-1 #
coedge $-1 $471 $458 $275 $376 reversed $359 $-1 #
edge $-1 $377 -27.916616796964586 $477 27.916616796964586 $275 $478 forward 7 unknown #
vertex $-1 $376 $479 #
straight-curve $-1 0 -27.916616796964586 6.3973840713744741 1 0 0 I I #
face $-1 $480 $481 $19 $-1 $482 forward single #
loop $-1 $-1 $483 $279 #
plane-surface $-1 0 0 6.3973840713744741 0 0 1 1 0 0 forward_v I I I I #
coedge $-1 $484 $485 $483 $486 reversed $280 $-1 #
coedge $-1 $487 $384 $389 $488 reversed $282 $-1 #
coedge $-1 $383 $489 $283 $385 reversed $282 $-1 #
edge $-1 $390 -4.9632106199622594 $490 1.7410166096330825e-014 $283 $491 forward 7 unknown #
coedge $-1 $492 $493 $284 $387 forward $494 $-1 #
edge $-1 $391 23.329255203935737 $490 27.240318585849501 $386 $495 forward 7 unknown #
coedge $-1 $496 $285 $493 $497 forward $380 $-1 #
coedge $-1 $285 $483 $383 $488 forward $380 $-1 #
vertex $-1 $488 $498 #
vertex $-1 $497 $499 #
straight-curve $-1 -22.150809744375479 -50.415499918945244 6.397384071374475 0 -1 0 I I #
vertex $-1 $287 $500 #
point $-1 -30.93822614984094 -25.506240994450184 3.7523310805189141 #
straight-curve $-1 -46.264839625232703 27.916616796964586 0 0 0 -1 I I #
point $-1 -46.264839625232703 -27.916616796964586 -6.3973840713744741 #
straight-curve $-1 -46.264839625232703 0 -6.3973840713744741 0 1 0 I I #
point $-1 -46.264839625232703 27.916616796964586 -6.3973840713744741 #
face $-1 $329 $501 $16 $-1 $502 reversed single #
loop $-1 $-1 $503 $307 #
plane-surface $-1 0 0 6.3973840713744741 0 0 1 1 0 0 forward_v I I I I #
coedge $-1 $310 $309 $504 $505 reversed $121 $-1 #
edge $-1 $314 5.5792353117472917 $506 6.3973840713744741 $313 $420 forward 7 unknown #
edge $-1 $317 5.5792353117472917 $507 6.3973840713744741 $310 $415 forward 7 unknown #
straight-curve $-1 -46.264839625232703 0 -5.5792353117472917 0 1 0 I I #
coedge $-1 $313 $416 $508 $509 reversed $227 $-1 #
point $-1 -46.264839625232703 27.916616796964586 -5.5792353117472917 #
coedge $-1 $411 $316 $510 $511 reversed $222 $-1 #
point $-1 -46.264839625232703 -27.916616796964586 -5.5792353117472917 #
coedge $-1 $322 $321 $512 $513 reversed $207 $-1 #
coedge $-1 $324 $408 $514 $515 reversed $222 $-1 #
coedge $-1 $503 $512 $324 $413 forward $400 $-1 #
edge $-1 $414 -46.264839625232703 $516 46.264839625232703 $324 $517 forward 7 unknown #
vertex $-1 $513 $518 #
straight-curve $-1 -46.264839625232703 -27.916616796964586 0 0 0 -1 I I #
coedge $-1 $406 $327 $519 $520 forward $227 $-1 #
coedge $-1 $512 $503 $327 $418 forward $400 $-1 #
edge $-1 $521 -46.264839625232703 $419 46.264839625232703 $327 $522 forward 7 unknown #
vertex $-1 $418 $523 #
straight-curve $-1 -46.264839625232703 27.916616796964586 0 0 0 -1 I I #
face $-1 $-1 $524 $16 $-1 $525 reversed single #
plane-surface $-1 0 27.916616796964586 0 0 -1 0 0 0 -1 forward_v I I I I #
face $-1 $526 $527 $17 $-1 $528 reversed single #
loop $-1 $-1 $529 $332 #
plane-surface $-1 -40.725642555306401 0 -4.0792353117472917 -1 0 0 0 0 1 forward_v I I I I #
coedge $-1 $530 $531 $532 $533 reversed $333 $-1 #
coedge $-1 $534 $335 $535 $536 reversed $234 $-1 #
coedge $-1 $335 $534 $440 $537 reversed $234 $-1 #
coedge $-1 $538 $529 $335 $430 forward $424 $-1 #
edge $-1 $539 -27.916616796964586 $540 27.916616796964586 $429 $541 forward 7 unknown #
coedge $-1 $441 $542 $336 $432 reversed $543 $-1 #
edge $-1 $433 -27.916616796964586 $436 27.916616796964586 $431 $544 forward 7 unknown #
vertex $-1 $337 $545 #
straight-curve $-1 0 27.916616796964586 6.3973840713744741 -1 0 0 I I #
coedge $-1 $535 $338 $542 $546 forward $249 $-1 #
vertex $-1 $432 $547 #
straight-curve $-1 0 -27.916616796964586 6.3973840713744741 1 0 0 I I #
point $-1 40.928464249959774 -27.916616796964586 6.3973840713744741 #
straight-curve $-1 40.928464249959774 -27.916616796964586 2.448692035687237 0 0 1 I I #
coedge $-1 $344 $548 $428 $537 forward $138 $-1 #
coedge $-1 $549 $431 $344 $442 forward $543 $-1 #
edge $-1 $433 -6.3973840713744741 $550 2.5792353117472917 $344 $551 forward 7 unknown #
coedge $-1 $552 $347 $553 $554 reversed $138 $-1 #
coedge $-1 $351 $555 $347 $445 forward $451 $-1 #
edge $-1 $556 -46.264839625232703 $355 46.264839625232703 $347 $557 forward 7 unknown #
coedge $-1 $348 $558 $559 $560 forward $249 $-1 #
coedge $-1 $555 $351 $348 $448 forward $451 $-1 #
edge $-1 $353 -46.264839625232703 $561 46.264839625232703 $348 $562 forward 7 unknown #
face $-1 $255 $451 $17 $-1 $563 reversed single #
plane-surface $-1 0 -27.916616796964586 0 0 1 0 0 0 1 forward_v I I I I #
loop $-1 $-1 $351 $449 #
straight-curve $-1 46.264839625232703 0 -6.3973840713744741 0 -1 0 I I #
point $-1 46.264839625232703 -27.916616796964586 -6.3973840713744741 #
point $-1 46.264839625232703 27.916616796964586 -6.3973840713744741 #
face $-1 $564 $565 $18 $-1 $566 reversed single #
loop $-1 $-1 $567 $358 #
plane-surface $-1 0 27.916616796964586 0 0 -1 0 0 0 -1 forward_v I I I I #
coedge $-1 $375 $568 $567 $569 reversed $359 $-1 #
coedge $-1 $570 $361 $571 $572 reversed $259 $-1 #
coedge $-1 $361 $570 $470 $573 reversed $259 $-1 #
coedge $-1 $574 $575 $361 $462 forward $576 $-1 #
edge $-1 $577 -27.916616796964586 $578 27.916616796964586 $461 $579 forward 7 unknown #
coedge $-1 $362 $374 $580 $581 forward $157 $-1 #
coedge $-1 $582 $363 $362 $465 reversed $273 $-1 #
edge $-1 $583 -46.264839625232703 $365 -40.725642555306401 $464 $378 forward 7 unknown #
straight-curve $-1 -40.725642555306401 -27.91661679696459 29.726639275310212 0 0 1 I I #
point $-1 -40.725642555306401 -27.916616796964586 6.3973840713744741 #
straight-curve $-1 -15.71911307492047 -27.916616796964586 2.4863206894607135 -1 0 0 I I #
point $-1 -40.725642555306401 -27.916616796964586 2.4863206894607122 #
coedge $-1 $372 $584 $460 $573 forward $273 $-1 #
coedge $-1 $568 $375 $372 $472 reversed $359 $-1 #
edge $-1 $585 0.94869203568723703 $377 3.948692035687237 $372 $586 forward 7 unknown #
face $-1 $587 $588 $18 $-1 $589 reversed single #
plane-surface $-1 0 -27.916616796964586 0 0 1 0 0 0 1 forward_v I I I I #
coedge $-1 $567 $590 $374 $476 reversed $456 $-1 #
edge $-1 $477 -40.928464249959774 $591 46.264839625232703 $475 $592 forward 7 unknown #
vertex $-1 $476 $593 #
straight-curve $-1 40.928464249959774 0 6.3973840713744741 0 1 0 I I #
point $-1 40.928464249959774 -27.916616796964586 6.3973840713744741 #
face $-1 $594 $595 $19 $-1 $596 forward single #
loop $-1 $-1 $597 $379 #
plane-surface $-1 43.596651937596242 0 3.3973840713744741 0 0 1 1 0 0 forward_v I I I I #
coedge $-1 $389 $598 $382 $486 forward $380 $-1 #
coedge $-1 $485 $382 $599 $600 reversed $280 $-1 #
coedge $-1 $382 $484 $487 $601 forward $280 $-1 #
edge $-1 $602 22.498883121980658 $603 25.554540642181443 $483 $604 forward 7 unknown #
coedge $-1 $489 $383 $485 $601 reversed $282 $-1 #
edge $-1 $603 -25.006529480385929 $390 -6.4316966694550093 $389 $605 forward 7 unknown #
coedge $-1 $384 $487 $492 $606 reversed $282 $-1 #
vertex $-1 $606 $607 #
straight-curve $-1 -22.150809744375479 -27.916616796964576 2.4863206894607259 0 -0.61566146476048833 -0.78801076186113728 I I #
coedge $-1 $599 $386 $489 $606 forward $494 $-1 #
coedge $-1 $386 $608 $388 $497 reversed $494 $-1 #
loop $-1 $-1 $599 $609 #
straight-curve $-1 -22.150809744375479 -27.91661679696459 29.726639275310212 0 0 -1 I I #
coedge $-1 $610 $388 $611 $612 forward $380 $-1 #
edge $-1 $391 -22.150809744375479 $613 40.928464249959774 $493 $614 forward 7 unknown #
point $-1 -22.150809744375479 -24.860959276763801 6.3973840713744741 #
point $-1 -22.150809744375479 -27.916616796964586 6.3973840713744741 #
point $-1 -31.43822614984094 -25.112235613519619 3.4445003481386696 #
loop $-1 $-1 $615 $399 #
plane-surface $-1 0 0 -6.3973840713744741 0 0 1 1 0 0 forward_v I I I I #
coedge $-1 $417 $412 $616 $617 forward $400 $-1 #
coedge $-1 $508 $510 $402 $505 forward $501 $-1 #
edge $-1 $507 -27.916616796964586 $506 27.916616796964586 $402 $618 forward 7 unknown #
vertex $-1 $509 $619 #
vertex $-1 $505 $620 #
coedge $-1 $615 $504 $406 $509 forward $501 $-1 #
edge $-1 $506 -46.264839625232703 $621 46.264839625232703 $406 $622 forward 7 unknown #
coedge $-1 $504 $615 $408 $511 forward $501 $-1 #
edge $-1 $623 -46.264839625232703 $507 46.264839625232703 $408 $624 forward 7 unknown #
coedge $-1 $412 $417 $410 $513 forward $400 $-1 #
edge $-1 $419 -27.916616796964586 $414 27.916616796964586 $410 $625 forward 7 unknown #
coedge $-1 $626 $616 $411 $515 forward $524 $-1 #
edge $-1 $516 -6.3973840713744741 $623 6.3973840713744741 $514 $627 forward 7 unknown #
vertex $-1 $617 $628 #
straight-curve $-1 0 -27.916616796964586 6.3973840713744741 1 0 0 I I #
point $-1 -46.264839625232703 -27.916616796964586 6.3973840713744741 #
coedge $-1 $616 $626 $416 $520 reversed $524 $-1 #
edge $-1 $521 -6.3973840713744741 $621 6.3973840713744741 $519 $629 forward 7 unknown #
vertex $-1 $617 $630 #
straight-curve $-1 0 27.916616796964586 6.3973840713744741 -1 0 0 I I #
point $-1 -46.264839625232703 27.916616796964586 6.3973840713744741 #
loop $-1 $-1 $514 $421 #
plane-surface $-1 46.264839625232703 0 0 -1 0 0 0 0 1 forward_v I I I I #
face $-1 $349 $543 $17 $-1 $528 reversed single #
loop $-1 $-1 $631 $423 #
plane-surface $-1 -46.264839625232703 0 0 1 0 0 0 0 -1 forward_v I I I I #
coedge $-1 $429 $532 $632 $633 reversed $424 $-1 #
coedge $-1 $634 $426 $552 $635 reversed $333 $-1 #
coedge $-1 $426 $634 $558 $636 reversed $333 $-1 #
coedge $-1 $529 $538 $426 $533 forward $424 $-1 #
edge $-1 $637 -27.916616796964586 $638 27.916616796964586 $532 $639 forward 7 unknown #
coedge $-1 $428 $427 $549 $640 reversed $234 $-1 #
coedge $-1 $632 $435 $427 $536 forward $249 $-1 #
edge $-1 $641 -24.517219080097927 $539 -18.978022010171625 $535 $642 forward 7 unknown #
edge $-1 $540 18.978022010171625 $550 24.517219080097927 $440 $643 forward 7 unknown #
coedge $-1 $532 $429 $548 $644 reversed $424 $-1 #
vertex $-1 $536 $645 #
vertex $-1 $537 $646 #
straight-curve $-1 -40.725642555306401 0 -2.5792353117472917 0 1 0 I I #
coedge $-1 $431 $549 $435 $546 reversed $543 $-1 #
loop $-1 $-1 $549 $526 #
straight-curve $-1 -46.264839625232703 0 6.3973840713744741 0 -1 0 I I #
point $-1 -46.264839625232703 27.916616796964586 6.3973840713744741 #
edge $-1 $436 -6.3973840713744741 $641 2.5792353117472917 $542 $647 forward 7 unknown #
point $-1 -46.264839625232703 -27.916616796964586 6.3973840713744741 #
coedge $-1 $440 $552 $538 $644 forward $138 $-1 #
coedge $-1 $542 $441 $534 $640 forward $543 $-1 #
vertex $-1 $640 $648 #
straight-curve $-1 -46.264839625232703 27.916616796964586 0 0 0 -1 I I #
coedge $-1 $548 $443 $530 $635 forward $138 $-1 #
coedge $-1 $649 $631 $443 $554 forward $527 $-1 #
edge $-1 $650 5.5792353117472917 $556 6.3973840713744741 $443 $551 forward 7 unknown #
coedge $-1 $444 $447 $649 $651 forward $451 $-1 #
vertex $-1 $445 $652 #
straight-curve $-1 0 27.916616796964586 -6.3973840713744741 1 0 0 I I #
coedge $-1 $446 $632 $531 $636 forward $249 $-1 #
coedge $-1 $631 $649 $446 $560 reversed $527 $-1 #
edge $-1 $653 5.5792353117472917 $561 6.3973840713744741 $559 $647 forward 7 unknown #
vertex $-1 $651 $654 #
straight-curve $-1 0 -27.916616796964586 -6.3973840713744741 -1 0 0 I I #
plane-surface $-1 0 0 -6.3973840713744741 0 0 1 1 0 0 forward_v I I I I #
face $-1 $655 $656 $18 $-1 $657 forward single #
loop $-1 $-1 $658 $455 #
plane-surface $-1 -43.495241090269552 0 -2.5792353117472917 0 0 1 1 0 0 forward_v I I I I #
coedge $-1 $571 $475 $458 $569 forward $456 $-1 #
coedge $-1 $458 $471 $570 $659 forward $359 $-1 #
edge $-1 $477 -3.948692035687237 $660 -0.94869203568723703 $567 $661 forward 7 unknown #
coedge $-1 $460 $459 $568 $659 reversed $259 $-1 #
coedge $-1 $662 $567 $459 $572 forward $456 $-1 #
edge $-1 $660 19.130138281161653 $577 24.466513656434589 $571 $663 forward 7 unknown #
edge $-1 $578 -24.466513656434589 $585 -19.130138281161653 $470 $664 forward 7 unknown #
coedge $-1 $665 $461 $584 $666 forward $576 $-1 #
coedge $-1 $461 $665 $662 $667 reversed $576 $-1 #
loop $-1 $-1 $461 $587 #
vertex $-1 $667 $668 #
vertex $-1 $666 $669 #
straight-curve $-1 46.264839625232703 0 3.3973840713744741 0 -1 0 I I #
coedge $-1 $670 $671 $463 $581 reversed $672 $-1 #
edge $-1 $591 -27.916616796964586 $583 27.916616796964586 $580 $673 forward 7 unknown #
coedge $-1 $674 $464 $671 $675 forward $273 $-1 #
vertex $-1 $581 $676 #
coedge $-1 $470 $677 $574 $666 reversed $273 $-1 #
vertex $-1 $573 $678 #
straight-curve $-1 40.928464249959774 -27.916616796964586 2.448692035687237 0 0 1 I I #
face $-1 $-1 $576 $18 $-1 $679 reversed single #
loop $-1 $-1 $680 $473 #
plane-surface $-1 0 0 -6.3973840713744741 0 0 1 1 0 0 forward_v I I I I #
coedge $-1 $475 $681 $670 $682 reversed $456 $-1 #
vertex $-1 $476 $683 #
straight-curve $-1 0 27.916616796964586 6.3973840713744741 -1 0 0 I I #
point $-1 40.928464249959774 27.916616796964586 6.3973840713744741 #
face $-1 $684 $685 $19 $-1 $686 reversed single #
loop $-1 $-1 $687 $480 #
plane-surface $-1 40.928464249959774 0 4.8973840713744741 1 0 0 0 0 -1 forward_v I I I I #
coedge $-1 $688 $689 $690 $691 reversed $481 $-1 #
coedge $-1 $483 $692 $693 $694 forward $380 $-1 #
coedge $-1 $693 $492 $484 $600 forward $494 $-1 #
edge $-1 $695 -27.240318585849501 $602 -23.329255203935737 $599 $696 forward 7 unknown #
edge $-1 $695 -1.7410166096330825e-014 $603 4.9632106199622594 $485 $697 forward 7 unknown #
vertex $-1 $600 $698 #
vertex $-1 $488 $699 #
straight-curve $-1 -40.725642555306401 -50.415499918945244 6.397384071374475 0 1 0 I I #
straight-curve $-1 -15.71911307492047 -24.860959276763801 6.3973840713744741 1 0 0 I I #
edge $-1 $490 6.4316966694550093 $695 25.006529480385929 $492 $700 forward 7 unknown #
point $-1 -22.150809744375479 -27.916616796964586 2.4863206894607122 #
coedge $-1 $493 $701 $702 $703 forward $494 $-1 #
face $-1 $704 $494 $19 $-1 $705 reversed single #
coedge $-1 $692 $496 $706 $707 forward $380 $-1 #
coedge $-1 $702 $687 $496 $612 reversed $595 $-1 #
edge $-1 $613 -27.916616796964586 $708 27.916616796964586 $496 $709 forward 7 unknown #
vertex $-1 $612 $710 #
straight-curve $-1 0 -27.916616796964586 6.3973840713744741 1 0 0 I I #
coedge $-1 $510 $508 $626 $711 forward $501 $-1 #
coedge $-1 $514 $519 $503 $617 reversed $524 $-1 #
edge $-1 $516 -27.916616796964586 $521 27.916616796964586 $616 $712 forward 7 unknown #
straight-curve $-1 -46.264839625232703 0 -6.3973840713744741 0 1 0 I I #
point $-1 -46.264839625232703 27.916616796964586 -6.3973840713744741 #
point $-1 -46.264839625232703 -27.916616796964586 -6.3973840713744741 #
vertex $-1 $711 $713 #
straight-curve $-1 0 27.916616796964586 -6.3973840713744741 1 0 0 I I #
vertex $-1 $515 $714 #
straight-curve $-1 0 -27.916616796964586 -6.3973840713744741 -1 0 0 I I #
straight-curve $-1 -46.264839625232703 0 6.3973840713744741 0 -1 0 I I #
coedge $-1 $519 $514 $615 $711 reversed $524 $-1 #
straight-curve $-1 46.264839625232703 -27.916616796964586 0 0 0 -1 I I #
point $-1 46.264839625232703 -27.916616796964586 6.3973840713744741 #
straight-curve $-1 46.264839625232703 27.916616796964586 0 0 0 -1 I I #
point $-1 46.264839625232703 27.916616796964586 6.3973840713744741 #
coedge $-1 $553 $559 $634 $715 forward $527 $-1 #
coedge $-1 $558 $535 $529 $633 forward $249 $-1 #
edge $-1 $539 0.53961765587364585 $638 3.5396176558736459 $632 $716 forward 7 unknown #
coedge $-1 $531 $530 $631 $715 reversed $333 $-1 #
edge $-1 $650 -24.517219080097927 $637 -18.978022010171625 $552 $717 forward 7 unknown #
edge $-1 $638 18.978022010171625 $653 24.517219080097927 $558 $718 forward 7 unknown #
vertex $-1 $635 $719 #
vertex $-1 $636 $720 #
straight-curve $-1 -40.725642555306401 0 -5.5792353117472917 0 -1 0 I I #
edge $-1 $550 -27.916616796964586 $641 27.916616796964586 $549 $721 forward 7 unknown #
vertex $-1 $536 $722 #
straight-curve $-1 -21.747620545134776 -27.916616796964586 -2.5792353117472917 1 0 0 I I #
straight-curve $-1 -21.747620545134776 27.916616796964586 -2.5792353117472917 -1 0 0 I I #
edge $-1 $637 -3.5396176558736459 $540 -0.53961765587364585 $548 $723 forward 7 unknown #
point $-1 -40.725642555306401 -27.916616796964586 -2.5792353117472917 #
point $-1 -40.725642555306401 27.916616796964586 -2.5792353117472917 #
straight-curve $-1 -46.264839625232703 -27.916616796964586 0 0 0 -1 I I #
point $-1 -46.264839625232703 27.916616796964586 -2.5792353117472917 #
coedge $-1 $559 $553 $555 $651 reversed $527 $-1 #
vertex $-1 $554 $724 #
edge $-1 $561 -27.916616796964586 $556 27.916616796964586 $649 $725 forward 7 unknown #
point $-1 -46.264839625232703 27.916616796964586 -6.3973840713744741 #
vertex $-1 $560 $726 #
point $-1 -46.264839625232703 -27.916616796964586 -6.3973840713744741 #
face $-1 $727 $728 $18 $-1 $729 forward single #
loop $-1 $-1 $730 $564 #
plane-surface $-1 -43.495241090269552 0 -5.5792353117472917 0 0 1 1 0 0 forward_v I I I I #
coedge $-1 $731 $732 $733 $734 reversed $565 $-1 #
edge $-1 $585 -27.916616796964586 $660 27.916616796964586 $568 $735 forward 7 unknown #
vertex $-1 $572 $736 #
straight-curve $-1 40.928464249959774 27.916616796964586 2.448692035687237 0 0 -1 I I #
coedge $-1 $737 $571 $575 $667 forward $456 $-1 #
straight-curve $-1 21.798325968798121 27.916616796964586 3.3973840713744741 1 0 0 I I #
straight-curve $-1 21.798325968798121 -27.916616796964586 3.3973840713744741 -1 0 0 I I #
coedge $-1 $575 $574 $680 $738 reversed $576 $-1 #
edge $-1 $578 -3.3973840713744741 $739 6.3973840713744741 $574 $740 forward 7 unknown #
edge $-1 $577 -3.3973840713744741 $741 6.3973840713744741 $575 $742 forward 7 unknown #
point $-1 46.26483962523271 27.916616796964586 3.3973840713744741 #
point $-1 46.26483962523271 -27.916616796964586 3.3973840713744741 #
coedge $-1 $743 $580 $590 $682 forward $672 $-1 #
coedge $-1 $580 $743 $582 $675 reversed $672 $-1 #
loop $-1 $-1 $743 $744 #
straight-curve $-1 -46.264839625232703 0 6.3973840713744741 0 -1 0 I I #
coedge $-1 $745 $582 $731 $746 forward $273 $-1 #
edge $-1 $583 -6.3973840713744741 $747 2.5792353117472917 $671 $748 forward 7 unknown #
point $-1 -46.264839625232703 -27.916616796964586 6.3973840713744741 #
coedge $-1 $584 $749 $750 $751 reversed $273 $-1 #
point $-1 40.928464249959774 -27.916616796964586 3.3973840713744741 #
plane-surface $-1 46.264839625232703 0 0 -1 0 0 0 0 1 forward_v I I I I #
coedge $-1 $750 $752 $665 $738 forward $588 $-1 #
coedge $-1 $590 $753 $732 $754 forward $456 $-1 #
edge $-1 $591 -6.3973840713744741 $755 2.5792353117472917 $590 $756 forward 7 unknown #
point $-1 -46.264839625232703 27.916616796964586 6.3973840713744741 #
face $-1 $757 $758 $19 $-1 $759 reversed single #
loop $-1 $-1 $760 $594 #
plane-surface $-1 0 27.916616796964586 0 0 -1 0 0 0 -1 forward_v I I I I #
coedge $-1 $611 $761 $760 $762 reversed $595 $-1 #
coedge $-1 $763 $597 $764 $765 reversed $481 $-1 #
coedge $-1 $597 $763 $701 $766 reversed $481 $-1 #
coedge $-1 $767 $768 $597 $691 forward $769 $-1 #
edge $-1 $770 -27.916616796964586 $771 27.916616796964586 $690 $772 forward 7 unknown #
coedge $-1 $598 $610 $773 $774 forward $380 $-1 #
coedge $-1 $775 $599 $598 $694 reversed $494 $-1 #
edge $-1 $776 -46.264839625232703 $602 -40.725642555306401 $693 $614 forward 7 unknown #
vertex $-1 $606 $777 #
straight-curve $-1 -40.725642555306401 -27.91661679696459 29.726639275310212 0 0 1 I I #
straight-curve $-1 -40.725642555306401 -27.916616796964576 2.4863206894607259 0 0.61566146476048833 0.78801076186113728 I I #
point $-1 -40.725642555306401 -27.916616796964586 6.3973840713744741 #
point $-1 -40.725642555306401 -24.860959276763801 6.3973840713744741 #
straight-curve $-1 -15.71911307492047 -27.916616796964586 2.4863206894607135 -1 0 0 I I #
coedge $-1 $608 $778 $689 $766 forward $494 $-1 #
coedge $-1 $761 $611 $608 $703 reversed $595 $-1 #
edge $-1 $779 0.94869203568723703 $613 3.948692035687237 $608 $780 forward 7 unknown #
face $-1 $781 $782 $19 $-1 $783 reversed single #
plane-surface $-1 0 -27.916616796964586 0 0 1 0 0 0 1 forward_v I I I I #
coedge $-1 $760 $784 $610 $707 reversed $685 $-1 #
edge $-1 $708 -40.928464249959774 $785 46.264839625232703 $706 $786 forward 7 unknown #
vertex $-1 $707 $787 #
straight-curve $-1 40.928464249959774 0 6.3973840713744741 0 1 0 I I #
point $-1 40.928464249959774 -27.916616796964586 6.3973840713744741 #
edge $-1 $621 -27.916616796964586 $623 27.916616796964586 $626 $788 forward 7 unknown #
straight-curve $-1 46.264839625232703 0 6.3973840713744741 0 1 0 I I #
point $-1 46.264839625232703 27.916616796964586 -6.3973840713744741 #
point $-1 46.264839625232703 -27.916616796964586 -6.3973840713744741 #
edge $-1 $653 -27.916616796964586 $650 27.916616796964586 $631 $789 forward 7 unknown #
straight-curve $-1 -40.725642555306401 -27.916616796964586 -2.0396176558736459 0 0 -1 I I #
straight-curve $-1 -21.747620545134776 27.916616796964586 -5.5792353117472917 1 0 0 I I #
straight-curve $-1 -21.747620545134776 -27.916616796964586 -5.5792353117472917 -1 0 0 I I #
point $-1 -40.725642555306401 27.916616796964586 -5.5792353117472917 #
point $-1 -40.725642555306401 -27.916616796964586 -5.5792353117472917 #
straight-curve $-1 -46.264839625232703 0 -2.5792353117472917 0 -1 0 I I #
point $-1 -46.264839625232703 -27.916616796964586 -2.5792353117472917 #
straight-curve $-1 -40.725642555306401 27.916616796964586 -2.0396176558736459 0 0 1 I I #
point $-1 -46.264839625232703 27.916616796964586 -5.5792353117472917 #
straight-curve $-1 -46.264839625232703 0 -6.3973840713744741 0 1 0 I I #
point $-1 -46.264839625232703 -27.916616796964586 -5.5792353117472917 #
face $-1 $744 $790 $18 $-1 $791 reversed single #
loop $-1 $-1 $792 $655 #
plane-surface $-1 -40.725642555306401 0 -4.0792353117472917 -1 0 0 0 0 1 forward_v I I I I #
coedge $-1 $793 $794 $795 $796 reversed $656 $-1 #
coedge $-1 $797 $658 $674 $746 reversed $565 $-1 #
coedge $-1 $658 $797 $681 $754 reversed $565 $-1 #
coedge $-1 $798 $792 $658 $734 forward $728 $-1 #
edge $-1 $799 -27.916616796964586 $800 27.916616796964586 $733 $801 forward 7 unknown #
straight-curve $-1 40.928464249959774 0 3.3973840713744741 0 1 0 I I #
point $-1 40.928464249959774 27.916616796964586 3.3973840713744741 #
coedge $-1 $802 $662 $752 $803 reversed $456 $-1 #
edge $-1 $741 -27.916616796964586 $739 27.916616796964586 $665 $804 forward 7 unknown #
vertex $-1 $666 $805 #
straight-curve $-1 46.264839625232703 -27.916616796964586 0 0 0 -1 I I #
vertex $-1 $738 $806 #
straight-curve $-1 46.264839625232703 27.916616796964586 0 0 0 -1 I I #
coedge $-1 $671 $670 $797 $807 forward $672 $-1 #
face $-1 $373 $672 $18 $-1 $791 reversed single #
coedge $-1 $808 $674 $792 $809 forward $273 $-1 #
edge $-1 $747 -24.517219080097927 $799 -18.978022010171625 $674 $810 forward 7 unknown #
vertex $-1 $746 $811 #
straight-curve $-1 -46.264839625232703 -27.916616796964586 0 0 0 -1 I I #
coedge $-1 $677 $808 $812 $813 forward $273 $-1 #
coedge $-1 $814 $680 $677 $751 forward $588 $-1 #
edge $-1 $739 -46.264839625232703 $815 46.264839625232703 $677 $816 forward 7 unknown #
coedge $-1 $680 $814 $737 $803 forward $588 $-1 #
coedge $-1 $681 $817 $798 $818 forward $456 $-1 #
edge $-1 $800 18.978022010171625 $755 24.517219080097927 $681 $819 forward 7 unknown #
vertex $-1 $807 $820 #
straight-curve $-1 -46.264839625232703 27.916616796964586 0 0 0 -1 I I #
face $-1 $821 $822 $19 $-1 $823 forward single #
loop $-1 $-1 $824 $684 #
plane-surface $-1 -43.495241090269552 0 -2.5792353117472917 0 0 1 1 0 0 forward_v I I I I #
coedge $-1 $764 $706 $687 $762 forward $685 $-1 #
coedge $-1 $687 $702 $763 $825 forward $595 $-1 #
edge $-1 $708 -3.948692035687237 $826 -0.94869203568723703 $760 $827 forward 7 unknown #
coedge $-1 $689 $688 $761 $825 reversed $481 $-1 #
coedge $-1 $828 $760 $688 $765 forward $685 $-1 #
edge $-1 $826 19.130138281161653 $770 24.466513656434589 $764 $829 forward 7 unknown #
edge $-1 $771 -24.466513656434589 $779 -19.130138281161653 $701 $830 forward 7 unknown #
coedge $-1 $831 $690 $778 $832 forward $769 $-1 #
coedge $-1 $690 $831 $828 $833 reversed $769 $-1 #
loop $-1 $-1 $690 $781 #
vertex $-1 $833 $834 #
vertex $-1 $832 $835 #
straight-curve $-1 46.264839625232703 0 3.3973840713744741 0 -1 0 I I #
coedge $-1 $836 $837 $692 $774 reversed $838 $-1 #
edge $-1 $785 -27.916616796964586 $776 27.916616796964586 $773 $839 forward 7 unknown #
coedge $-1 $840 $693 $837 $841 forward $494 $-1 #
vertex $-1 $774 $842 #
point $-1 -40.725642555306401 -27.916616796964586 2.4863206894607122 #
coedge $-1 $701 $843 $767 $832 reversed $494 $-1 #
vertex $-1 $766 $844 #
straight-curve $-1 40.928464249959774 -27.916616796964586 2.448692035687237 0 0 1 I I #
face $-1 $-1 $769 $19 $-1 $845 reversed single #
loop $-1 $-1 $846 $704 #
plane-surface $-1 0 0 -6.3973840713744741 0 0 1 1 0 0 forward_v I I I I #
coedge $-1 $706 $847 $836 $848 reversed $685 $-1 #
vertex $-1 $707 $849 #
straight-curve $-1 0 27.916616796964586 6.3973840713744741 -1 0 0 I I #
point $-1 40.928464249959774 27.916616796964586 6.3973840713744741 #
straight-curve $-1 46.264839625232703 0 -6.3973840713744741 0 -1 0 I I #
straight-curve $-1 -46.264839625232703 0 -5.5792353117472917 0 1 0 I I #
loop $-1 $-1 $850 $727 #
plane-surface $-1 -46.264839625232703 0 0 1 0 0 0 0 -1 forward_v I I I I #
coedge $-1 $733 $795 $745 $809 reversed $728 $-1 #
coedge $-1 $851 $730 $817 $852 reversed $656 $-1 #
coedge $-1 $730 $851 $808 $853 reversed $656 $-1 #
coedge $-1 $792 $798 $730 $796 forward $728 $-1 #
edge $-1 $854 -27.916616796964586 $855 27.916616796964586 $795 $856 forward 7 unknown #
coedge $-1 $732 $731 $743 $807 reversed $565 $-1 #
coedge $-1 $795 $733 $753 $818 reversed $728 $-1 #
vertex $-1 $746 $857 #
vertex $-1 $754 $858 #
straight-curve $-1 -40.725642555306401 0 -2.5792353117472917 0 1 0 I I #
coedge $-1 $817 $737 $859 $860 reversed $456 $-1 #
edge $-1 $861 -46.264839625232703 $741 46.264839625232703 $737 $862 forward 7 unknown #
straight-curve $-1 46.264839625232703 0 -6.3973840713744741 0 -1 0 I I #
point $-1 46.264839625232703 -27.916616796964586 -6.3973840713744741 #
point $-1 46.264839625232703 27.916616796964586 -6.3973840713744741 #
edge $-1 $755 -27.916616796964586 $747 27.916616796964586 $743 $863 forward 7 unknown #
coedge $-1 $749 $745 $794 $853 forward $273 $-1 #
edge $-1 $799 0.53961765587364585 $855 3.5396176558736459 $745 $864 forward 7 unknown #
straight-curve $-1 -21.747620545134776 -27.916616796964586 -2.5792353117472917 1 0 0 I I #
point $-1 -46.264839625232703 -27.916616796964586 -2.5792353117472917 #
coedge $-1 $850 $865 $749 $813 reversed $790 $-1 #
edge $-1 $866 5.5792353117472917 $815 6.3973840713744741 $812 $748 forward 7 unknown #
coedge $-1 $752 $750 $865 $867 forward $588 $-1 #
vertex $-1 $867 $868 #
straight-curve $-1 0 -27.916616796964586 -6.3973840713744741 -1 0 0 I I #
coedge $-1 $753 $802 $793 $852 forward $456 $-1 #
edge $-1 $854 -3.5396176558736459 $800 -0.53961765587364585 $753 $869 forward 7 unknown #
straight-curve $-1 -21.747620545134776 27.916616796964586 -2.5792353117472917 -1 0 0 I I #
point $-1 -46.264839625232703 27.916616796964586 -2.5792353117472917 #
face $-1 $870 $871 $19 $-1 $872 forward single #
loop $-1 $-1 $873 $757 #
plane-surface $-1 -43.495241090269552 0 -5.5792353117472917 0 0 1 1 0 0 forward_v I I I I #
coedge $-1 $874 $875 $876 $877 reversed $758 $-1 #
edge $-1 $779 -27.916616796964586 $826 27.916616796964586 $761 $878 forward 7 unknown #
vertex $-1 $765 $879 #
straight-curve $-1 40.928464249959774 27.916616796964586 2.448692035687237 0 0 -1 I I #
coedge $-1 $880 $764 $768 $833 forward $685 $-1 #
straight-curve $-1 21.798325968798121 27.916616796964586 3.3973840713744741 1 0 0 I I #
straight-curve $-1 21.798325968798121 -27.916616796964586 3.3973840713744741 -1 0 0 I I #
coedge $-1 $768 $767 $846 $881 reversed $769 $-1 #
edge $-1 $771 -3.3973840713744741 $882 6.3973840713744741 $767 $883 forward 7 unknown #
edge $-1 $770 -3.3973840713744741 $884 6.3973840713744741 $768 $885 forward 7 unknown #
point $-1 46.26483962523271 27.916616796964586 3.3973840713744741 #
point $-1 46.26483962523271 -27.916616796964586 3.3973840713744741 #
coedge $-1 $886 $773 $784 $848 forward $838 $-1 #
coedge $-1 $773 $886 $775 $841 reversed $838 $-1 #
loop $-1 $-1 $886 $887 #
straight-curve $-1 -46.264839625232703 0 6.3973840713744741 0 -1 0 I I #
coedge $-1 $888 $775 $874 $889 forward $494 $-1 #
edge $-1 $776 -6.3973840713744741 $890 2.5792353117472917 $837 $891 forward 7 unknown #
point $-1 -46.264839625232703 -27.916616796964586 6.3973840713744741 #
coedge $-1 $778 $892 $893 $894 reversed $494 $-1 #
point $-1 40.928464249959774 -27.916616796964586 3.3973840713744741 #
plane-surface $-1 46.264839625232703 0 0 -1 0 0 0 0 1 forward_v I I I I #
coedge $-1 $893 $895 $831 $881 forward $782 $-1 #
coedge $-1 $784 $896 $875 $897 forward $685 $-1 #
edge $-1 $785 -6.3973840713744741 $898 2.5792353117472917 $784 $899 forward 7 unknown #
point $-1 -46.264839625232703 27.916616796964586 6.3973840713744741 #
coedge $-1 $859 $812 $851 $900 forward $790 $-1 #
coedge $-1 $794 $793 $850 $900 reversed $656 $-1 #
edge $-1 $901 -24.517219080097927 $854 -18.978022010171625 $817 $902 forward 7 unknown #
edge $-1 $855 18.978022010171625 $866 24.517219080097927 $808 $903 forward 7 unknown #
vertex $-1 $852 $904 #
vertex $-1 $853 $905 #
straight-curve $-1 -40.725642555306401 0 -5.5792353117472917 0 -1 0 I I #
point $-1 -40.725642555306401 -27.916616796964586 -2.5792353117472917 #
point $-1 -40.725642555306401 27.916616796964586 -2.5792353117472917 #
coedge $-1 $865 $850 $802 $860 forward $790 $-1 #
edge $-1 $901 5.5792353117472917 $861 6.3973840713744741 $802 $756 forward 7 unknown #
vertex $-1 $803 $906 #
straight-curve $-1 0 27.916616796964586 -6.3973840713744741 1 0 0 I I #
straight-curve $-1 -46.264839625232703 0 -2.5792353117472917 0 -1 0 I I #
straight-curve $-1 -40.725642555306401 -27.916616796964586 -2.0396176558736459 0 0 -1 I I #
coedge $-1 $812 $859 $814 $867 reversed $790 $-1 #
vertex $-1 $813 $907 #
edge $-1 $815 -27.916616796964586 $861 27.916616796964586 $865 $908 forward 7 unknown #
point $-1 -46.264839625232703 -27.916616796964586 -6.3973840713744741 #
straight-curve $-1 -40.725642555306401 27.916616796964586 -2.0396176558736459 0 0 1 I I #
face $-1 $887 $909 $19 $-1 $910 reversed single #
loop $-1 $-1 $911 $821 #
plane-surface $-1 -40.725642555306401 0 -4.0792353117472917 -1 0 0 0 0 1 forward_v I I I I #
coedge $-1 $912 $913 $914 $915 reversed $822 $-1 #
coedge $-1 $916 $824 $840 $889 reversed $758 $-1 #
coedge $-1 $824 $916 $847 $897 reversed $758 $-1 #
coedge $-1 $917 $911 $824 $877 forward $871 $-1 #
edge $-1 $918 -27.916616796964586 $919 27.916616796964586 $876 $920 forward 7 unknown #
straight-curve $-1 40.928464249959774 0 3.3973840713744741 0 1 0 I I #
point $-1 40.928464249959774 27.916616796964586 3.3973840713744741 #
coedge $-1 $921 $828 $895 $922 reversed $685 $-1 #
edge $-1 $884 -27.916616796964586 $882 27.916616796964586 $831 $923 forward 7 unknown #
vertex $-1 $832 $924 #
straight-curve $-1 46.264839625232703 -27.916616796964586 0 0 0 -1 I I #
vertex $-1 $881 $925 #
straight-curve $-1 46.264839625232703 27.916616796964586 0 0 0 -1 I I #
coedge $-1 $837 $836 $916 $926 forward $838 $-1 #
face $-1 $609 $838 $19 $-1 $910 reversed single #
coedge $-1 $927 $840 $911 $928 forward $494 $-1 #
edge $-1 $890 -24.517219080097927 $918 -18.978022010171625 $840 $929 forward 7 unknown #
vertex $-1 $889 $930 #
straight-curve $-1 -46.264839625232703 -27.916616796964586 0 0 0 -1 I I #
coedge $-1 $843 $927 $931 $932 forward $494 $-1 #
coedge $-1 $933 $846 $843 $894 forward $782 $-1 #
edge $-1 $882 -46.264839625232703 $934 46.264839625232703 $843 $935 forward 7 unknown #
coedge $-1 $846 $933 $880 $922 forward $782 $-1 #
coedge $-1 $847 $936 $917 $937 forward $685 $-1 #
edge $-1 $919 18.978022010171625 $898 24.517219080097927 $847 $938 forward 7 unknown #
vertex $-1 $926 $939 #
straight-curve $-1 -46.264839625232703 27.916616796964586 0 0 0 -1 I I #
edge $-1 $866 -27.916616796964586 $901 27.916616796964586 $850 $940 forward 7 unknown #
vertex $-1 $860 $941 #
straight-curve $-1 -21.747620545134776 27.916616796964586 -5.5792353117472917 1 0 0 I I #
straight-curve $-1 -21.747620545134776 -27.916616796964586 -5.5792353117472917 -1 0 0 I I #
point $-1 -40.725642555306401 27.916616796964586 -5.5792353117472917 #
point $-1 -40.725642555306401 -27.916616796964586 -5.5792353117472917 #
point $-1 -46.264839625232703 27.916616796964586 -6.3973840713744741 #
point $-1 -46.264839625232703 -27.916616796964586 -5.5792353117472917 #
straight-curve $-1 -46.264839625232703 0 -6.3973840713744741 0 1 0 I I #
loop $-1 $-1 $942 $870 #
plane-surface $-1 -46.264839625232703 0 0 1 0 0 0 0 -1 forward_v I I I I #
coedge $-1 $876 $914 $888 $928 reversed $871 $-1 #
coedge $-1 $943 $873 $936 $944 reversed $822 $-1 #
coedge $-1 $873 $943 $927 $945 reversed $822 $-1 #
coedge $-1 $911 $917 $873 $915 forward $871 $-1 #
edge $-1 $946 -27.916616796964586 $947 27.916616796964586 $914 $948 forward 7 unknown #
coedge $-1 $875 $874 $886 $926 reversed $758 $-1 #
coedge $-1 $914 $876 $896 $937 reversed $871 $-1 #
vertex $-1 $889 $949 #
vertex $-1 $897 $950 #
straight-curve $-1 -40.725642555306401 0 -2.5792353117472917 0 1 0 I I #
coedge $-1 $936 $880 $951 $952 reversed $685 $-1 #
edge $-1 $953 -46.264839625232703 $884 46.264839625232703 $880 $954 forward 7 unknown #
straight-curve $-1 46.264839625232703 0 -6.3973840713744741 0 -1 0 I I #
point $-1 46.264839625232703 -27.916616796964586 -6.3973840713744741 #
point $-1 46.264839625232703 27.916616796964586 -6.3973840713744741 #
edge $-1 $898 -27.916616796964586 $890 27.916616796964586 $886 $955 forward 7 unknown #
coedge $-1 $892 $888 $913 $945 forward $494 $-1 #
edge $-1 $918 0.53961765587364585 $947 3.5396176558736459 $888 $956 forward 7 unknown #
straight-curve $-1 -21.747620545134776 -27.916616796964586 -2.5792353117472917 1 0 0 I I #
point $-1 -46.264839625232703 -27.916616796964586 -2.5792353117472917 #
coedge $-1 $942 $957 $892 $932 reversed $909 $-1 #
edge $-1 $958 5.5792353117472917 $934 6.3973840713744741 $931 $891 forward 7 unknown #
coedge $-1 $895 $893 $957 $959 forward $782 $-1 #
vertex $-1 $959 $960 #
straight-curve $-1 0 -27.916616796964586 -6.3973840713744741 -1 0 0 I I #
coedge $-1 $896 $921 $912 $944 forward $685 $-1 #
edge $-1 $946 -3.5396176558736459 $919 -0.53961765587364585 $896 $961 forward 7 unknown #
straight-curve $-1 -21.747620545134776 27.916616796964586 -2.5792353117472917 -1 0 0 I I #
point $-1 -46.264839625232703 27.916616796964586 -2.5792353117472917 #
straight-curve $-1 -46.264839625232703 0 -5.5792353117472917 0 1 0 I I #
point $-1 -46.264839625232703 27.916616796964586 -5.5792353117472917 #
coedge $-1 $951 $931 $943 $962 forward $909 $-1 #
coedge $-1 $913 $912 $942 $962 reversed $822 $-1 #
edge $-1 $963 -24.517219080097927 $946 -18.978022010171625 $936 $964 forward 7 unknown #
edge $-1 $947 18.978022010171625 $958 24.517219080097927 $927 $965 forward 7 unknown #
vertex $-1 $944 $966 #
vertex $-1 $945 $967 #
straight-curve $-1 -40.725642555306401 0 -5.5792353117472917 0 -1 0 I I #
point $-1 -40.725642555306401 -27.916616796964586 -2.5792353117472917 #
point $-1 -40.725642555306401 27.916616796964586 -2.5792353117472917 #
coedge $-1 $957 $942 $921 $952 forward $909 $-1 #
edge $-1 $963 5.5792353117472917 $953 6.3973840713744741 $921 $899 forward 7 unknown #
vertex $-1 $922 $968 #
straight-curve $-1 0 27.916616796964586 -6.3973840713744741 1 0 0 I I #
straight-curve $-1 -46.264839625232703 0 -2.5792353117472917 0 -1 0 I I #
straight-curve $-1 -40.725642555306401 -27.916616796964586 -2.0396176558736459 0 0 -1 I I #
coedge $-1 $931 $951 $933 $959 reversed $909 $-1 #
vertex $-1 $932 $969 #
edge $-1 $934 -27.916616796964586 $953 27.916616796964586 $957 $970 forward 7 unknown #
point $-1 -46.264839625232703 -27.916616796964586 -6.3973840713744741 #
straight-curve $-1 -40.725642555306401 27.916616796964586 -2.0396176558736459 0 0 1 I I #
edge $-1 $958 -27.916616796964586 $963 27.916616796964586 $942 $971 forward 7 unknown #
vertex $-1 $952 $972 #
straight-curve $-1 -21.747620545134776 27.916616796964586 -5.5792353117472917 1 0 0 I I #
straight-curve $-1 -21.747620545134776 -27.916616796964586 -5.5792353117472917 -1 0 0 I I #
point $-1 -40.725642555306401 27.916616796964586 -5.5792353117472917 #
point $-1 -40.725642555306401 -27.916616796964586 -5.5792353117472917 #
point $-1 -46.264839625232703 27.916616796964586 -6.3973840713744741 #
point $-1 -46.264839625232703 -27.916616796964586 -5.5792353117472917 #
straight-curve $-1 -46.264839625232703 0 -6.3973840713744741 0 1 0 I I #
straight-curve $-1 -46.264839625232703 0 -5.5792353117472917 0 1 0 I I #
point $-1 -46.264839625232703 27.916616796964586 -5.5792353117472917 #
End-of-ACIS-data 