500 0 17 0           
7 Unknown 11 ACIS 5.0 NT 24 Fri Mar 26 17:14:26 1999 
-1 9.9999999999999995e-007 1e-010 
body $-1 $17 $-1 $18 #
body $-1 $19 $-1 $20 #
body $-1 $21 $-1 $22 #
body $-1 $23 $-1 $24 #
body $-1 $25 $-1 $26 #
body $-1 $27 $-1 $28 #
body $-1 $29 $-1 $30 #
body $-1 $31 $-1 $32 #
body $-1 $33 $-1 $34 #
body $-1 $35 $-1 $36 #
body $-1 $37 $-1 $38 #
body $-1 $39 $-1 $40 #
body $-1 $41 $-1 $42 #
body $-1 $43 $-1 $44 #
body $-1 $45 $-1 $46 #
body $-1 $47 $-1 $48 #
body $-1 $49 $-1 $50 #
lump $-1 $-1 $51 $0 #
transform $-1 1 0 0 0 1 0 0 0 1 57.95342875453963 36.690868094601278 11.78783857556342 1 rotate no_reflect no_shear #
lump $-1 $-1 $52 $1 #
transform $-1 1 0 0 0 1 0 0 0 1 57.95342875453963 36.690868094601278 11.78783857556342 1 rotate no_reflect no_shear #
lump $-1 $-1 $53 $2 #
transform $-1 1 0 0 0 1 0 0 0 1 57.95342875453963 36.690868094601278 11.78783857556342 1 rotate no_reflect no_shear #
lump $-1 $-1 $54 $3 #
transform $-1 1 0 0 0 1 0 0 0 1 57.95342875453963 36.690868094601278 11.78783857556342 1 rotate no_reflect no_shear #
lump $-1 $-1 $55 $4 #
transform $-1 1 0 0 0 1 0 0 0 1 57.95342875453963 36.690868094601278 11.78783857556342 1 rotate no_reflect no_shear #
lump $-1 $-1 $56 $5 #
transform $-1 1 0 0 0 1 0 0 0 1 57.95342875453963 36.690868094601278 11.78783857556342 1 rotate no_reflect no_shear #
lump $-1 $-1 $57 $6 #
transform $-1 1 0 0 0 1 0 0 0 1 57.95342875453963 36.690868094601278 11.78783857556342 1 rotate no_reflect no_shear #
lump $-1 $-1 $58 $7 #
transform $-1 1 0 0 0 1 0 0 0 1 57.95342875453963 36.690868094601278 11.78783857556342 1 rotate no_reflect no_shear #
lump $-1 $-1 $59 $8 #
transform $-1 1 0 0 0 1 0 0 0 1 57.95342875453963 36.690868094601278 11.78783857556342 1 rotate no_reflect no_shear #
lump $-1 $-1 $60 $9 #
transform $-1 1 0 0 0 1 0 0 0 1 57.95342875453963 36.690868094601278 11.78783857556342 1 rotate no_reflect no_shear #
lump $-1 $-1 $61 $10 #
transform $-1 1 0 0 0 1 0 0 0 1 57.95342875453963 36.690868094601278 11.78783857556342 1 rotate no_reflect no_shear #
lump $-1 $-1 $62 $11 #
transform $-1 1 0 0 0 1 0 0 0 1 57.95342875453963 36.690868094601278 11.78783857556342 1 rotate no_reflect no_shear #
lump $-1 $-1 $63 $12 #
transform $-1 1 0 0 0 1 0 0 0 1 57.95342875453963 36.690868094601278 11.78783857556342 1 rotate no_reflect no_shear #
lump $-1 $-1 $64 $13 #
transform $-1 1 0 0 0 1 0 0 0 1 57.95342875453963 36.690868094601278 11.78783857556342 1 rotate no_reflect no_shear #
lump $-1 $-1 $65 $14 #
transform $-1 1 0 0 0 1 0 0 0 1 57.95342875453963 36.690868094601278 11.78783857556342 1 rotate no_reflect no_shear #
lump $-1 $-1 $66 $15 #
transform $-1 1 0 0 0 1 0 0 0 1 57.95342875453963 36.690868094601278 11.78783857556342 1 rotate no_reflect no_shear #
lump $-1 $-1 $67 $16 #
transform $-1 1 0 0 0 1 0 0 0 1 57.95342875453963 36.690868094601278 11.78783857556342 1 rotate no_reflect no_shear #
shell $-1 $-1 $-1 $68 $-1 $17 #
shell $-1 $-1 $-1 $69 $-1 $19 #
shell $-1 $-1 $-1 $70 $-1 $21 #
shell $-1 $-1 $-1 $71 $-1 $23 #
shell $-1 $-1 $-1 $72 $-1 $25 #
shell $-1 $-1 $-1 $73 $-1 $27 #
shell $-1 $-1 $-1 $74 $-1 $29 #
shell $-1 $-1 $-1 $75 $-1 $31 #
shell $-1 $-1 $-1 $76 $-1 $33 #
shell $-1 $-1 $-1 $77 $-1 $35 #
shell $-1 $-1 $-1 $78 $-1 $37 #
shell $-1 $-1 $-1 $79 $-1 $39 #
shell $-1 $-1 $-1 $80 $-1 $41 #
shell $-1 $-1 $-1 $81 $-1 $43 #
shell $-1 $-1 $-1 $82 $-1 $45 #
shell $-1 $-1 $-1 $83 $-1 $47 #
shell $-1 $-1 $-1 $84 $-1 $49 #
face $-1 $85 $86 $51 $-1 $87 forward single #
face $-1 $88 $89 $52 $-1 $90 reversed single #
face $-1 $91 $92 $53 $-1 $93 reversed single #
face $-1 $94 $95 $54 $-1 $96 reversed single #
face $-1 $97 $98 $55 $-1 $99 forward single #
face $-1 $100 $101 $56 $-1 $102 forward single #
face $-1 $103 $104 $57 $-1 $105 forward single #
face $-1 $106 $107 $58 $-1 $108 reversed single #
face $-1 $109 $110 $59 $-1 $111 forward single #
face $-1 $112 $113 $60 $-1 $114 forward single #
face $-1 $115 $116 $61 $-1 $117 forward single #
face $-1 $118 $119 $62 $-1 $120 reversed single #
face $-1 $121 $122 $63 $-1 $123 forward single #
face $-1 $124 $125 $64 $-1 $126 forward single #
face $-1 $127 $128 $65 $-1 $129 reversed single #
face $-1 $130 $131 $66 $-1 $132 forward single #
face $-1 $133 $134 $67 $-1 $135 forward single #
face $-1 $136 $137 $51 $-1 $138 reversed single #
loop $-1 $-1 $139 $68 #
plane-surface $-1 0 0 11.78783857556342 0 0 1 1 0 0 forward_v I I I I #
face $-1 $140 $141 $52 $-1 $142 reversed single #
loop $-1 $-1 $143 $69 #
plane-surface $-1 -44.41736237839001 0 10.030005523047915 -1 0 0 0 0 1 forward_v I I I I #
face $-1 $144 $145 $53 $-1 $146 reversed single #
loop $-1 $-1 $147 $70 #
plane-surface $-1 51.18539556646482 0 8.2721724705324107 0 0 1 1 0 0 forward_v I I I I #
face $-1 $148 $149 $54 $-1 $150 reversed single #
loop $-1 $-1 $151 $71 #
plane-surface $-1 -12.354140447405342 -121.45977833483673 84.932144184637082 -1 0 0 0 -0.73135370988377701 0.68199835119979291 forward_v I I I I #
face $-1 $152 $153 $55 $-1 $154 forward single #
loop $-1 $155 $156 $72 #
cone-surface $-1 -29.243663897852372 -32.333855472571109 7.3398729534257363 0 0.73135370988377701 -0.68199835119979291 2 0 0 1 I I 0 1 2 forward I I I I #
face $-1 $157 $158 $56 $-1 $159 forward single #
loop $-1 $160 $161 $73 #
cone-surface $-1 -22.910092603934736 -32.333855472571109 7.3398729534257363 0 0.73135370988377701 -0.68199835119979291 2 0 0 1 I I 0 1 2 forward I I I I #
face $-1 $162 $163 $57 $-1 $164 forward single #
loop $-1 $165 $166 $74 #
cone-surface $-1 -16.5765213100171 -32.333855472571109 7.3398729534257363 0 0.73135370988377701 -0.68199835119979291 2 0 0 1 I I 0 1 2 forward I I I I #
face $-1 $167 $168 $58 $-1 $169 reversed single #
loop $-1 $-1 $170 $75 #
plane-surface $-1 33.466044760464136 -121.45977833483673 84.932144184637082 -1 0 0 0 -0.73135370988377701 0.68199835119979291 forward_v I I I I #
face $-1 $171 $172 $59 $-1 $173 forward single #
loop $-1 $174 $175 $76 #
cone-surface $-1 16.576521310017114 -32.333855472571109 7.3398729534257363 0 0.73135370988377701 -0.68199835119979291 2 0 0 1 I I 0 1 2 forward I I I I #
face $-1 $176 $177 $60 $-1 $178 forward single #
loop $-1 $179 $180 $77 #
cone-surface $-1 22.910092603934743 -32.333855472571109 7.3398729534257363 0 0.73135370988377701 -0.68199835119979291 2 0 0 1 I I 0 1 2 forward I I I I #
face $-1 $181 $182 $61 $-1 $183 forward single #
loop $-1 $184 $185 $78 #
cone-surface $-1 29.243663897852372 -32.333855472571109 7.3398729534257363 0 0.73135370988377701 -0.68199835119979291 2 0 0 1 I I 0 1 2 forward I I I I #
face $-1 $186 $187 $62 $-1 $188 reversed single #
loop $-1 $-1 $189 $79 #
plane-surface $-1 -34.600728116119285 9.8312982288462081e-007 69.906860588754583 0 0.86602541151947299 0.49999998660252726 1 0 0 forward_v I I I I #
face $-1 $190 $191 $63 $-1 $192 forward single #
loop $-1 $193 $194 $80 #
cone-surface $-1 -38.807857085663883 34.212060436593781 8.5462228706990135 0 -0.86602541151947299 -0.49999998660252726 1 0 0 1 I I 0 1 1 forward I I I I #
face $-1 $195 $196 $64 $-1 $197 forward single #
loop $-1 $198 $199 $81 #
cone-surface $-1 -30.393599146574687 34.212060436593781 8.5462228706990135 0 -0.86602541151947299 -0.49999998660252726 1 0 0 1 I I 0 1 1 forward I I I I #
face $-1 $200 $201 $65 $-1 $202 reversed single #
loop $-1 $-1 $203 $82 #
plane-surface $-1 24.78409385384856 100.37828495535911 127.86028779043525 1 0 0 0 -0.86602541151947299 -0.49999998660252726 forward_v I I I I #
face $-1 $204 $205 $66 $-1 $206 forward single #
loop $-1 $207 $208 $83 #
cone-surface $-1 30.393599146574687 34.212060436593781 8.5462228706990135 0 -0.86602541151947299 -0.49999998660252726 1 0 0 1 I I 0 1 1 forward I I I I #
face $-1 $209 $210 $67 $-1 $211 forward single #
loop $-1 $212 $213 $84 #
cone-surface $-1 38.807857085663883 34.212060436593781 8.5462228706990135 0 -0.86602541151947299 -0.49999998660252726 1 0 0 1 I I 0 1 1 forward I I I I #
face $-1 $214 $215 $51 $-1 $216 reversed single #
loop $-1 $-1 $217 $85 #
plane-surface $-1 0 0 -11.78783857556342 0 0 1 1 0 0 forward_v I I I I #
coedge $-1 $218 $219 $220 $221 forward $86 $-1 #
face $-1 $222 $223 $52 $-1 $224 reversed single #
loop $-1 $-1 $225 $88 #
plane-surface $-1 -51.18539556646482 0 8.2721724705324107 0 0 1 1 0 0 forward_v I I I I #
coedge $-1 $226 $227 $228 $229 reversed $89 $-1 #
face $-1 $230 $231 $53 $-1 $232 forward single #
loop $-1 $-1 $233 $91 #
plane-surface $-1 44.41736237839001 0 10.030005523047915 1 0 0 0 0 -1 forward_v I I I I #
coedge $-1 $234 $235 $236 $237 reversed $92 $-1 #
face $-1 $238 $239 $54 $-1 $240 reversed single #
loop $-1 $-1 $241 $94 #
plane-surface $-1 -22.910092603934736 -36.690868094601299 5.8838584706956851 0 -0.73135370988377701 0.68199835119979291 1 0 0 forward_v I I I I #
coedge $-1 $242 $243 $244 $245 reversed $95 $-1 #
face $-1 $-1 $246 $55 $-1 $247 forward single #
loop $-1 $248 $249 $97 #
cone-surface $-1 -29.243663897852372 -29.998264331799657 5.1618990325221219 0 0.73135370988377701 -0.68199835119979291 1 0 0 1 I I -0.70710678118654746 0.70710678118654746 1 forward I I I I #
loop $-1 $-1 $250 $72 #
coedge $-1 $156 $156 $251 $252 reversed $98 $-1 #
face $-1 $-1 $253 $56 $-1 $254 forward single #
loop $-1 $255 $256 $100 #
cone-surface $-1 -22.910092603934736 -29.998264331799657 5.1618990325221219 0 0.73135370988377701 -0.68199835119979291 1 0 0 1 I I -0.70710678118654746 0.70710678118654746 1 forward I I I I #
loop $-1 $-1 $257 $73 #
coedge $-1 $161 $161 $258 $259 reversed $101 $-1 #
face $-1 $-1 $260 $57 $-1 $261 forward single #
loop $-1 $262 $263 $103 #
cone-surface $-1 -16.5765213100171 -29.998264331799657 5.1618990325221219 0 0.73135370988377701 -0.68199835119979291 1 0 0 1 I I -0.70710678118654746 0.70710678118654746 1 forward I I I I #
loop $-1 $-1 $264 $74 #
coedge $-1 $166 $166 $265 $266 reversed $104 $-1 #
face $-1 $267 $268 $58 $-1 $269 reversed single #
loop $-1 $-1 $270 $106 #
plane-surface $-1 22.910092603934743 -36.690868094601299 5.8838584706956851 0 -0.73135370988377701 0.68199835119979291 1 0 0 forward_v I I I I #
coedge $-1 $271 $272 $273 $274 reversed $107 $-1 #
face $-1 $-1 $275 $59 $-1 $276 forward single #
loop $-1 $277 $278 $109 #
cone-surface $-1 16.576521310017114 -29.998264331799657 5.1618990325221219 0 0.73135370988377701 -0.68199835119979291 1 0 0 1 I I -0.70710678118654746 0.70710678118654746 1 forward I I I I #
loop $-1 $-1 $279 $76 #
coedge $-1 $175 $175 $280 $281 reversed $110 $-1 #
face $-1 $-1 $282 $60 $-1 $283 forward single #
loop $-1 $284 $285 $112 #
cone-surface $-1 22.910092603934743 -29.998264331799657 5.1618990325221219 0 0.73135370988377701 -0.68199835119979291 1 0 0 1 I I -0.70710678118654746 0.70710678118654746 1 forward I I I I #
loop $-1 $-1 $286 $77 #
coedge $-1 $180 $180 $287 $288 reversed $113 $-1 #
face $-1 $-1 $289 $61 $-1 $290 forward single #
loop $-1 $291 $292 $115 #
cone-surface $-1 29.243663897852372 -29.998264331799657 5.1618990325221219 0 0.73135370988377701 -0.68199835119979291 1 0 0 1 I I -0.70710678118654746 0.70710678118654746 1 forward I I I I #
loop $-1 $-1 $293 $78 #
coedge $-1 $185 $185 $294 $295 reversed $116 $-1 #
face $-1 $296 $297 $62 $-1 $298 reversed single #
loop $-1 $-1 $299 $118 #
plane-surface $-1 -24.78409385384856 100.37828495535911 127.86028779043525 -1 0 0 0 0.86602541151947299 0.49999998660252726 forward_v I I I I #
coedge $-1 $300 $301 $302 $303 reversed $119 $-1 #
face $-1 $-1 $304 $63 $-1 $305 forward single #
loop $-1 $306 $307 $121 #
cone-surface $-1 -38.807857085663883 32.86815772578894 7.7703203065715272 0 -0.86602541151947299 -0.49999998660252726 0.5 0 0 1 I I -0.70710678118654746 0.70710678118654746 0.5 forward I I I I #
loop $-1 $-1 $308 $80 #
coedge $-1 $194 $194 $309 $310 reversed $122 $-1 #
face $-1 $-1 $311 $64 $-1 $312 forward single #
loop $-1 $313 $314 $124 #
cone-surface $-1 -30.393599146574687 32.86815772578894 7.7703203065715272 0 -0.86602541151947299 -0.49999998660252726 0.5 0 0 1 I I -0.70710678118654746 0.70710678118654746 0.5 forward I I I I #
loop $-1 $-1 $315 $81 #
coedge $-1 $199 $199 $316 $317 reversed $125 $-1 #
face $-1 $318 $319 $65 $-1 $320 forward single #
loop $-1 $-1 $321 $127 #
plane-surface $-1 34.600728116119285 9.8312982288462081e-007 69.906860588754583 0 0.86602541151947299 0.49999998660252726 1 0 0 forward_v I I I I #
coedge $-1 $322 $323 $324 $325 reversed $128 $-1 #
face $-1 $-1 $326 $66 $-1 $327 forward single #
loop $-1 $328 $329 $130 #
cone-surface $-1 30.393599146574687 32.86815772578894 7.7703203065715272 0 -0.86602541151947299 -0.49999998660252726 0.5 0 0 1 I I -0.70710678118654746 0.70710678118654746 0.5 forward I I I I #
loop $-1 $-1 $330 $83 #
coedge $-1 $208 $208 $331 $332 reversed $131 $-1 #
face $-1 $-1 $333 $67 $-1 $334 forward single #
loop $-1 $335 $336 $133 #
cone-surface $-1 38.807857085663883 32.86815772578894 7.7703203065715272 0 -0.86602541151947299 -0.49999998660252726 0.5 0 0 1 I I -0.70710678118654746 0.70710678118654746 0.5 forward I I I I #
loop $-1 $-1 $337 $84 #
coedge $-1 $213 $213 $338 $339 reversed $134 $-1 #
face $-1 $340 $341 $51 $-1 $342 reversed single #
loop $-1 $-1 $343 $136 #
plane-surface $-1 0 -36.690868094601278 0 0 1 0 0 0 1 forward_v I I I I #
coedge $-1 $344 $345 $346 $347 forward $137 $-1 #
coedge $-1 $348 $139 $349 $350 forward $86 $-1 #
coedge $-1 $139 $348 $351 $352 forward $86 $-1 #
coedge $-1 $353 $354 $139 $221 reversed $355 $-1 #
edge $-1 $356 -36.690868094601278 $357 36.690868094601278 $220 $358 forward 7 unknown #
face $-1 $359 $360 $52 $-1 $361 reversed single #
loop $-1 $-1 $362 $140 #
plane-surface $-1 0 36.690868094601278 0 0 -1 0 0 0 -1 forward_v I I I I #
coedge $-1 $363 $364 $365 $366 forward $141 $-1 #
coedge $-1 $365 $143 $367 $368 reversed $89 $-1 #
coedge $-1 $143 $365 $362 $369 reversed $89 $-1 #
coedge $-1 $370 $371 $143 $229 forward $372 $-1 #
edge $-1 $373 -36.690868094601278 $374 36.690868094601278 $228 $375 forward 7 unknown #
face $-1 $376 $377 $53 $-1 $378 reversed single #
loop $-1 $-1 $379 $144 #
plane-surface $-1 0 0 11.78783857556342 0 0 1 1 0 0 forward_v I I I I #
coedge $-1 $380 $381 $382 $383 reversed $145 $-1 #
coedge $-1 $382 $147 $384 $385 reversed $92 $-1 #
coedge $-1 $147 $382 $386 $387 reversed $92 $-1 #
coedge $-1 $388 $389 $147 $237 forward $390 $-1 #
edge $-1 $391 -36.690868094601278 $392 36.690868094601278 $236 $393 forward 7 unknown #
face $-1 $394 $395 $54 $-1 $396 forward single #
loop $-1 $-1 $397 $148 #
plane-surface $-1 -33.466044760464129 -121.45977833483673 84.932144184637082 1 0 0 0 0.73135370988377701 -0.68199835119979291 forward_v I I I I #
coedge $-1 $398 $399 $400 $401 reversed $149 $-1 #
coedge $-1 $243 $151 $402 $403 reversed $95 $-1 #
coedge $-1 $151 $242 $398 $404 reversed $95 $-1 #
coedge $-1 $400 $405 $151 $245 forward $395 $-1 #
edge $-1 $406 24.039021072817086 $407 29.544571455102059 $244 $408 forward 7 unknown #
loop $-1 $-1 $251 $152 #
plane-surface $-1 -22.910092603934736 -36.690868094601299 5.8838584706956851 0 -0.73135370988377701 0.68199835119979291 1 0 0 forward_v I I I I #
loop $-1 $-1 $409 $97 #
coedge $-1 $249 $249 $250 $410 reversed $153 $-1 #
coedge $-1 $250 $250 $249 $410 forward $155 $-1 #
coedge $-1 $251 $251 $156 $252 forward $246 $-1 #
edge $-1 $411 -1.7534545791869548e-016 $411 6.2831853071796004 $251 $412 forward 7 unknown #
loop $-1 $-1 $258 $157 #
plane-surface $-1 -22.910092603934736 -36.690868094601299 5.8838584706956851 0 -0.73135370988377701 0.68199835119979291 1 0 0 forward_v I I I I #
loop $-1 $-1 $413 $100 #
coedge $-1 $256 $256 $257 $414 reversed $158 $-1 #
coedge $-1 $257 $257 $256 $414 forward $160 $-1 #
coedge $-1 $258 $258 $161 $259 forward $253 $-1 #
edge $-1 $415 -1.7534545791869548e-016 $415 6.2831853071796004 $258 $416 forward 7 unknown #
loop $-1 $-1 $265 $162 #
plane-surface $-1 -22.910092603934736 -36.690868094601299 5.8838584706956851 0 -0.73135370988377701 0.68199835119979291 1 0 0 forward_v I I I I #
loop $-1 $-1 $417 $103 #
coedge $-1 $263 $263 $264 $418 reversed $163 $-1 #
coedge $-1 $264 $264 $263 $418 forward $165 $-1 #
coedge $-1 $265 $265 $166 $266 forward $260 $-1 #
edge $-1 $419 -1.7534545791869548e-016 $419 6.2831853071796004 $265 $420 forward 7 unknown #
face $-1 $421 $422 $58 $-1 $423 reversed single #
loop $-1 $-1 $424 $167 #
plane-surface $-1 12.354140447405349 -121.45977833483673 84.932144184637082 1 0 0 0 0.73135370988377701 -0.68199835119979291 forward_v I I I I #
coedge $-1 $425 $426 $427 $428 reversed $168 $-1 #
coedge $-1 $272 $170 $429 $430 reversed $107 $-1 #
coedge $-1 $170 $271 $425 $431 reversed $107 $-1 #
coedge $-1 $427 $432 $170 $274 forward $433 $-1 #
edge $-1 $434 24.039021072817086 $435 29.544571455102059 $273 $436 forward 7 unknown #
loop $-1 $-1 $280 $171 #
plane-surface $-1 22.910092603934743 -36.690868094601299 5.8838584706956851 0 -0.73135370988377701 0.68199835119979291 1 0 0 forward_v I I I I #
loop $-1 $-1 $437 $109 #
coedge $-1 $278 $278 $279 $438 reversed $172 $-1 #
coedge $-1 $279 $279 $278 $438 forward $174 $-1 #
coedge $-1 $280 $280 $175 $281 forward $275 $-1 #
edge $-1 $439 -1.7534545791869548e-016 $439 6.2831853071796004 $280 $440 forward 7 unknown #
loop $-1 $-1 $287 $176 #
plane-surface $-1 22.910092603934743 -36.690868094601299 5.8838584706956851 0 -0.73135370988377701 0.68199835119979291 1 0 0 forward_v I I I I #
loop $-1 $-1 $441 $112 #
coedge $-1 $285 $285 $286 $442 reversed $177 $-1 #
coedge $-1 $286 $286 $285 $442 forward $179 $-1 #
coedge $-1 $287 $287 $180 $288 forward $282 $-1 #
edge $-1 $443 -1.7534545791869548e-016 $443 6.2831853071796004 $287 $444 forward 7 unknown #
loop $-1 $-1 $294 $181 #
plane-surface $-1 22.910092603934743 -36.690868094601299 5.8838584706956851 0 -0.73135370988377701 0.68199835119979291 1 0 0 forward_v I I I I #
loop $-1 $-1 $445 $115 #
coedge $-1 $292 $292 $293 $446 reversed $182 $-1 #
coedge $-1 $293 $293 $292 $446 forward $184 $-1 #
coedge $-1 $294 $294 $185 $295 forward $289 $-1 #
edge $-1 $447 -1.7534545791869548e-016 $447 6.2831853071796004 $294 $448 forward 7 unknown #
face $-1 $449 $450 $62 $-1 $451 forward single #
loop $-1 $-1 $452 $186 #
plane-surface $-1 0 36.690868094601278 0 0 -1 0 0 0 -1 forward_v I I I I #
coedge $-1 $453 $454 $455 $456 reversed $187 $-1 #
coedge $-1 $457 $189 $458 $459 reversed $119 $-1 #
coedge $-1 $189 $457 $453 $460 forward $119 $-1 #
coedge $-1 $455 $461 $189 $303 forward $450 $-1 #
edge $-1 $462 -27.116998320330367 $463 -7.4837297957889177 $302 $464 forward 7 unknown #
loop $-1 $-1 $309 $190 #
plane-surface $-1 -34.600728116119285 9.8312982288462081e-007 69.906860588754583 0 0.86602541151947299 0.49999998660252726 1 0 0 forward_v I I I I #
loop $-1 $-1 $465 $121 #
coedge $-1 $307 $307 $308 $466 reversed $191 $-1 #
coedge $-1 $308 $308 $307 $466 forward $193 $-1 #
coedge $-1 $309 $309 $194 $310 forward $304 $-1 #
edge $-1 $467 -4.7597325791166719e-016 $467 6.2831853071795996 $309 $468 forward 7 unknown #
loop $-1 $-1 $316 $195 #
plane-surface $-1 -34.600728116119285 9.8312982288462081e-007 69.906860588754583 0 0.86602541151947299 0.49999998660252726 1 0 0 forward_v I I I I #
loop $-1 $-1 $469 $124 #
coedge $-1 $314 $314 $315 $470 reversed $196 $-1 #
coedge $-1 $315 $315 $314 $470 forward $198 $-1 #
coedge $-1 $316 $316 $199 $317 forward $311 $-1 #
edge $-1 $471 -4.7597325791166719e-016 $471 6.2831853071795996 $316 $472 forward 7 unknown #
face $-1 $473 $474 $65 $-1 $475 forward single #
loop $-1 $-1 $324 $200 #
plane-surface $-1 0 0 11.78783857556342 0 0 1 1 0 0 forward_v I I I I #
coedge $-1 $476 $477 $478 $479 reversed $201 $-1 #
coedge $-1 $323 $203 $480 $481 reversed $128 $-1 #
coedge $-1 $203 $322 $476 $482 reversed $128 $-1 #
coedge $-1 $478 $483 $203 $325 forward $319 $-1 #
edge $-1 $484 13.498274383078275 $485 16.634109689003054 $324 $486 forward 7 unknown #
loop $-1 $-1 $331 $204 #
plane-surface $-1 34.600728116119285 9.8312982288462081e-007 69.906860588754583 0 0.86602541151947299 0.49999998660252726 1 0 0 forward_v I I I I #
loop $-1 $-1 $487 $130 #
coedge $-1 $329 $329 $330 $488 reversed $205 $-1 #
coedge $-1 $330 $330 $329 $488 forward $207 $-1 #
coedge $-1 $331 $331 $208 $332 forward $326 $-1 #
edge $-1 $489 -4.7597325791166719e-016 $489 6.2831853071795996 $331 $490 forward 7 unknown #
loop $-1 $-1 $338 $209 #
plane-surface $-1 34.600728116119285 9.8312982288462081e-007 69.906860588754583 0 0.86602541151947299 0.49999998660252726 1 0 0 forward_v I I I I #
loop $-1 $-1 $491 $133 #
coedge $-1 $336 $336 $337 $492 reversed $210 $-1 #
coedge $-1 $337 $337 $336 $492 forward $212 $-1 #
coedge $-1 $338 $338 $213 $339 forward $333 $-1 #
edge $-1 $493 -4.7597325791166719e-016 $493 6.2831853071795996 $338 $494 forward 7 unknown #
face $-1 $495 $496 $51 $-1 $497 reversed single #
loop $-1 $-1 $498 $214 #
plane-surface $-1 -57.95342875453963 0 0 1 0 0 0 0 -1 forward_v I I I I #
coedge $-1 $499 $351 $500 $501 forward $215 $-1 #
coedge $-1 $502 $217 $499 $503 forward $137 $-1 #
coedge $-1 $217 $502 $504 $505 forward $137 $-1 #
coedge $-1 $354 $353 $217 $347 reversed $355 $-1 #
edge $-1 $506 -36.690868094601278 $507 36.690868094601278 $346 $508 forward 7 unknown #
coedge $-1 $219 $218 $509 $510 forward $86 $-1 #
coedge $-1 $511 $512 $218 $350 reversed $496 $-1 #
edge $-1 $357 -57.95342875453963 $513 57.95342875453963 $349 $514 forward 7 unknown #
coedge $-1 $343 $515 $219 $352 reversed $215 $-1 #
edge $-1 $516 -57.95342875453963 $356 57.95342875453963 $351 $517 forward 7 unknown #
coedge $-1 $346 $220 $515 $518 forward $355 $-1 #
coedge $-1 $220 $346 $511 $519 reversed $355 $-1 #
loop $-1 $-1 $353 $495 #
vertex $-1 $221 $520 #
vertex $-1 $221 $521 #
straight-curve $-1 57.95342875453963 0 11.78783857556342 0 1 0 I I #
face $-1 $522 $372 $52 $-1 $523 forward single #
loop $-1 $-1 $524 $222 #
plane-surface $-1 -57.95342875453963 0 0 1 0 0 0 0 -1 forward_v I I I I #
coedge $-1 $525 $526 $227 $369 forward $223 $-1 #
coedge $-1 $527 $225 $528 $529 reversed $141 $-1 #
coedge $-1 $225 $527 $525 $530 reversed $141 $-1 #
coedge $-1 $227 $226 $225 $366 reversed $89 $-1 #
edge $-1 $531 -36.690868094601278 $532 36.690868094601278 $365 $533 forward 7 unknown #
coedge $-1 $534 $528 $226 $368 forward $535 $-1 #
edge $-1 $532 3.257169709008453 $373 6.7728358140394622 $367 $536 forward 7 unknown #
edge $-1 $374 -6.7728358140394622 $531 -3.257169709008453 $362 $537 forward 7 unknown #
coedge $-1 $538 $228 $526 $539 forward $372 $-1 #
coedge $-1 $228 $538 $534 $540 forward $372 $-1 #
loop $-1 $-1 $228 $359 #
vertex $-1 $368 $541 #
vertex $-1 $539 $542 #
straight-curve $-1 -44.41736237839001 0 11.78783857556342 0 1 0 I I #
face $-1 $543 $544 $53 $-1 $545 reversed single #
loop $-1 $-1 $546 $230 #
plane-surface $-1 0 -36.690868094601278 0 0 1 0 0 0 1 forward_v I I I I #
coedge $-1 $547 $548 $549 $550 forward $231 $-1 #
coedge $-1 $549 $233 $546 $551 reversed $145 $-1 #
coedge $-1 $233 $549 $552 $553 reversed $145 $-1 #
coedge $-1 $235 $234 $233 $383 forward $92 $-1 #
edge $-1 $554 -36.690868094601278 $555 36.690868094601278 $233 $556 forward 7 unknown #
coedge $-1 $557 $546 $234 $385 forward $377 $-1 #
edge $-1 $554 18.8246645951576 $391 32.36073097130722 $384 $558 forward 7 unknown #
coedge $-1 $552 $559 $235 $387 forward $544 $-1 #
edge $-1 $392 -32.36073097130722 $555 -18.8246645951576 $386 $560 forward 7 unknown #
coedge $-1 $561 $236 $559 $562 reversed $390 $-1 #
coedge $-1 $236 $561 $557 $563 forward $390 $-1 #
loop $-1 $-1 $236 $543 #
vertex $-1 $385 $564 #
vertex $-1 $237 $565 #
straight-curve $-1 57.95342875453963 0 8.2721724705324107 0 1 0 I I #
face $-1 $-1 $566 $54 $-1 $567 reversed single #
loop $-1 $-1 $244 $238 #
plane-surface $-1 0 0 11.78783857556342 0 0 1 1 0 0 forward_v I I I I #
coedge $-1 $568 $569 $570 $571 reversed $239 $-1 #
coedge $-1 $572 $241 $243 $404 forward $149 $-1 #
coedge $-1 $241 $572 $568 $573 forward $149 $-1 #
coedge $-1 $570 $244 $241 $401 forward $395 $-1 #
edge $-1 $407 0.89909414543797439 $574 22.010998458496761 $400 $575 forward 7 unknown #
coedge $-1 $576 $577 $242 $403 forward $566 $-1 #
edge $-1 $578 -36.582213621622834 $406 -30.678233516755121 $402 $579 forward 7 unknown #
edge $-1 $407 -8.0726740359407838 $578 -3.1426556366807674e-014 $243 $580 forward 7 unknown #
coedge $-1 $244 $570 $576 $581 forward $395 $-1 #
vertex $-1 $403 $582 #
vertex $-1 $245 $583 #
straight-curve $-1 -12.354140447405342 -60.729889167418364 11.78783857556342 0 1 0 I I #
coedge $-1 $409 $409 $-1 $584 reversed $248 $-1 #
edge $-1 $585 0 $585 6.2831853071796004 $249 $586 forward 7 unknown #
vertex $-1 $252 $587 #
ellipse-curve $-1 -29.243663897852372 -33.938092903458795 8.8358485231295649 0 -0.73135370988377701 0.68199835119979291 2 0 0 1 I I #
coedge $-1 $413 $413 $-1 $588 reversed $255 $-1 #
edge $-1 $589 0 $589 6.2831853071796004 $256 $590 forward 7 unknown #
vertex $-1 $259 $591 #
ellipse-curve $-1 -22.910092603934736 -33.938092903458795 8.8358485231295649 0 -0.73135370988377701 0.68199835119979291 2 0 0 1 I I #
coedge $-1 $417 $417 $-1 $592 reversed $262 $-1 #
edge $-1 $593 0 $593 6.2831853071796004 $263 $594 forward 7 unknown #
vertex $-1 $266 $595 #
ellipse-curve $-1 -16.5765213100171 -33.938092903458795 8.8358485231295649 0 -0.73135370988377701 0.68199835119979291 2 0 0 1 I I #
face $-1 $-1 $433 $58 $-1 $596 forward single #
loop $-1 $-1 $597 $267 #
plane-surface $-1 0 -36.690868094601278 0 0 1 0 0 0 1 forward_v I I I I #
coedge $-1 $598 $599 $600 $601 reversed $268 $-1 #
coedge $-1 $602 $270 $272 $431 forward $168 $-1 #
coedge $-1 $270 $602 $598 $603 forward $168 $-1 #
coedge $-1 $600 $273 $270 $428 forward $433 $-1 #
edge $-1 $435 -22.010998458496765 $604 -0.89909414543797794 $427 $605 forward 7 unknown #
coedge $-1 $606 $607 $271 $430 forward $422 $-1 #
edge $-1 $608 -36.582213621622834 $434 -30.678233516755121 $429 $609 forward 7 unknown #
edge $-1 $435 -8.0726740359407838 $608 -3.1426556366807674e-014 $272 $610 forward 7 unknown #
coedge $-1 $273 $600 $606 $611 forward $433 $-1 #
loop $-1 $-1 $600 $421 #
vertex $-1 $430 $612 #
vertex $-1 $274 $613 #
straight-curve $-1 33.466044760464136 -60.729889167418364 11.78783857556342 0 1 0 I I #
coedge $-1 $437 $437 $-1 $614 reversed $277 $-1 #
edge $-1 $615 0 $615 6.2831853071796004 $278 $616 forward 7 unknown #
vertex $-1 $281 $617 #
ellipse-curve $-1 16.576521310017114 -33.938092903458795 8.8358485231295649 0 -0.73135370988377701 0.68199835119979291 2 0 0 1 I I #
coedge $-1 $441 $441 $-1 $618 reversed $284 $-1 #
edge $-1 $619 0 $619 6.2831853071796004 $285 $620 forward 7 unknown #
vertex $-1 $288 $621 #
ellipse-curve $-1 22.910092603934743 -33.938092903458795 8.8358485231295649 0 -0.73135370988377701 0.68199835119979291 2 0 0 1 I I #
coedge $-1 $445 $445 $-1 $622 reversed $291 $-1 #
edge $-1 $623 0 $623 6.2831853071796004 $292 $624 forward 7 unknown #
vertex $-1 $295 $625 #
ellipse-curve $-1 29.243663897852372 -33.938092903458795 8.8358485231295649 0 -0.73135370988377701 0.68199835119979291 2 0 0 1 I I #
face $-1 $-1 $626 $62 $-1 $627 forward single #
loop $-1 $-1 $455 $296 #
plane-surface $-1 0 0 11.78783857556342 0 0 1 1 0 0 forward_v I I I I #
coedge $-1 $628 $629 $454 $630 forward $297 $-1 #
coedge $-1 $454 $299 $301 $460 reversed $187 $-1 #
coedge $-1 $299 $453 $452 $630 reversed $187 $-1 #
coedge $-1 $631 $302 $299 $456 forward $450 $-1 #
edge $-1 $463 -16.634109689003054 $632 -13.498274383078275 $455 $633 forward 7 unknown #
coedge $-1 $301 $300 $628 $634 reversed $119 $-1 #
coedge $-1 $635 $636 $300 $459 forward $626 $-1 #
edge $-1 $637 -47.45429741059975 $462 -41.182626630701115 $458 $638 forward 7 unknown #
edge $-1 $639 -73.381736189202513 $463 -67.1100654093039 $453 $640 forward 7 unknown #
coedge $-1 $302 $631 $635 $641 forward $450 $-1 #
vertex $-1 $459 $642 #
vertex $-1 $303 $643 #
straight-curve $-1 -17.300364058059643 33.555032788676506 11.78783857556342 1 0 0 I I #
coedge $-1 $465 $465 $-1 $644 reversed $306 $-1 #
edge $-1 $645 0 $645 6.2831853071796004 $307 $646 forward 7 unknown #
vertex $-1 $310 $647 #
ellipse-curve $-1 -38.807857085663883 35.122950441638892 9.0721254415252393 0 0.86602541151947299 0.49999998660252726 1 0 0 1 I I #
coedge $-1 $469 $469 $-1 $648 reversed $313 $-1 #
edge $-1 $649 0 $649 6.2831853071796004 $314 $650 forward 7 unknown #
vertex $-1 $317 $651 #
ellipse-curve $-1 -30.393599146574687 35.122950441638892 9.0721254415252393 0 0.86602541151947299 0.49999998660252726 1 0 0 1 I I #
face $-1 $-1 $652 $65 $-1 $653 reversed single #
loop $-1 $-1 $654 $318 #
plane-surface $-1 44.41736237839001 0 10.030005523047915 1 0 0 0 0 -1 forward_v I I I I #
coedge $-1 $655 $321 $323 $482 forward $201 $-1 #
coedge $-1 $321 $655 $654 $656 forward $201 $-1 #
coedge $-1 $657 $324 $321 $479 forward $319 $-1 #
edge $-1 $485 7.4837297957889177 $658 27.116998320330367 $478 $659 forward 7 unknown #
coedge $-1 $660 $661 $322 $481 forward $652 $-1 #
edge $-1 $662 -57.573731587730563 $484 -52.142305319654206 $480 $663 forward 7 unknown #
edge $-1 $485 67.1100654093039 $662 73.381736189202513 $323 $664 forward 7 unknown #
coedge $-1 $324 $657 $660 $665 forward $319 $-1 #
vertex $-1 $481 $666 #
vertex $-1 $325 $667 #
straight-curve $-1 24.78409385384856 50.189142477679553 11.78783857556342 0 -1 0 I I #
coedge $-1 $487 $487 $-1 $668 reversed $328 $-1 #
edge $-1 $669 0 $669 6.2831853071796004 $329 $670 forward 7 unknown #
vertex $-1 $332 $671 #
ellipse-curve $-1 30.393599146574687 35.122950441638892 9.0721254415252393 0 0.86602541151947299 0.49999998660252726 1 0 0 1 I I #
coedge $-1 $491 $491 $-1 $672 reversed $335 $-1 #
edge $-1 $673 0 $673 6.2831853071796004 $336 $674 forward 7 unknown #
vertex $-1 $339 $675 #
ellipse-curve $-1 38.807857085663883 35.122950441638892 9.0721254415252393 0 0.86602541151947299 0.49999998660252726 1 0 0 1 I I #
face $-1 $-1 $355 $51 $-1 $676 reversed single #
loop $-1 $-1 $511 $340 #
plane-surface $-1 0 36.690868094601278 0 0 -1 0 0 0 -1 forward_v I I I I #
coedge $-1 $677 $509 $512 $678 forward $341 $-1 #
coedge $-1 $515 $343 $344 $503 reversed $215 $-1 #
coedge $-1 $509 $677 $343 $501 reversed $341 $-1 #
edge $-1 $516 -11.78783857556342 $679 11.78783857556342 $500 $680 forward 7 unknown #
coedge $-1 $345 $344 $677 $681 forward $137 $-1 #
edge $-1 $507 -57.95342875453963 $679 57.95342875453963 $499 $682 forward 7 unknown #
coedge $-1 $512 $511 $345 $505 reversed $496 $-1 #
edge $-1 $683 -57.95342875453963 $506 57.95342875453963 $504 $684 forward 7 unknown #
vertex $-1 $347 $685 #
vertex $-1 $518 $686 #
straight-curve $-1 57.95342875453963 0 -11.78783857556342 0 -1 0 I I #
coedge $-1 $498 $500 $348 $510 reversed $341 $-1 #
edge $-1 $513 -36.690868094601278 $516 36.690868094601278 $509 $687 forward 7 unknown #
coedge $-1 $504 $349 $354 $519 forward $496 $-1 #
coedge $-1 $349 $504 $498 $678 reversed $496 $-1 #
vertex $-1 $350 $688 #
straight-curve $-1 0 36.690868094601278 11.78783857556342 -1 0 0 I I #
coedge $-1 $351 $499 $353 $518 reversed $215 $-1 #
vertex $-1 $510 $689 #
straight-curve $-1 0 -36.690868094601278 11.78783857556342 1 0 0 I I #
edge $-1 $356 -11.78783857556342 $507 11.78783857556342 $353 $690 forward 7 unknown #
edge $-1 $357 -11.78783857556342 $506 11.78783857556342 $354 $691 forward 7 unknown #
point $-1 57.95342875453963 -36.690868094601278 11.78783857556342 #
point $-1 57.95342875453963 36.690868094601278 11.78783857556342 #
face $-1 $-1 $535 $52 $-1 $692 reversed single #
plane-surface $-1 0 0 11.78783857556342 0 0 1 1 0 0 forward_v I I I I #
coedge $-1 $693 $694 $527 $695 forward $360 $-1 #
coedge $-1 $696 $362 $364 $530 forward $223 $-1 #
coedge $-1 $362 $696 $370 $539 reversed $223 $-1 #
coedge $-1 $364 $363 $524 $695 reversed $141 $-1 #
coedge $-1 $367 $697 $363 $529 forward $535 $-1 #
edge $-1 $698 -32.36073097130722 $532 -18.8246645951576 $528 $699 forward 7 unknown #
edge $-1 $531 18.8246645951576 $700 32.36073097130722 $525 $701 forward 7 unknown #
vertex $-1 $530 $702 #
vertex $-1 $529 $703 #
straight-curve $-1 -44.41736237839001 0 8.2721724705324107 0 -1 0 I I #
coedge $-1 $697 $367 $371 $540 reversed $535 $-1 #
loop $-1 $-1 $367 $522 #
straight-curve $-1 -44.41736237839001 -36.690868094601278 5.0150027615239576 0 0 1 I I #
straight-curve $-1 -44.41736237839001 36.690868094601278 5.0150027615239576 0 0 -1 I I #
coedge $-1 $371 $370 $704 $705 forward $372 $-1 #
edge $-1 $374 44.41736237839001 $706 57.95342875453963 $526 $707 forward 7 unknown #
edge $-1 $708 -57.95342875453963 $373 -44.41736237839001 $534 $709 forward 7 unknown #
point $-1 -44.41736237839001 -36.690868094601278 11.78783857556342 #
point $-1 -44.41736237839001 36.690868094601278 11.78783857556342 #
face $-1 $-1 $390 $53 $-1 $710 reversed single #
loop $-1 $-1 $552 $376 #
plane-surface $-1 0 36.690868094601278 0 0 -1 0 0 0 -1 forward_v I I I I #
coedge $-1 $384 $711 $380 $551 forward $377 $-1 #
coedge $-1 $712 $379 $711 $713 forward $231 $-1 #
coedge $-1 $379 $712 $714 $715 forward $231 $-1 #
coedge $-1 $381 $380 $379 $550 reversed $145 $-1 #
edge $-1 $716 -36.690868094601278 $717 36.690868094601278 $379 $718 forward 7 unknown #
edge $-1 $717 -6.7728358140394622 $554 -3.257169709008453 $546 $719 forward 7 unknown #
coedge $-1 $714 $386 $381 $553 forward $544 $-1 #
edge $-1 $555 3.257169709008453 $716 6.7728358140394622 $552 $720 forward 7 unknown #
vertex $-1 $385 $721 #
vertex $-1 $387 $722 #
straight-curve $-1 44.41736237839001 0 8.2721724705324107 0 1 0 I I #
coedge $-1 $711 $384 $389 $563 reversed $377 $-1 #
straight-curve $-1 25.59269778323241 -36.690868094601278 8.2721724705324107 1 0 0 I I #
coedge $-1 $386 $714 $388 $562 forward $544 $-1 #
straight-curve $-1 25.59269778323241 36.690868094601278 8.2721724705324107 -1 0 0 I I #
coedge $-1 $389 $388 $712 $723 reversed $390 $-1 #
edge $-1 $724 -11.78783857556342 $392 -8.2721724705324107 $388 $725 forward 7 unknown #
edge $-1 $726 -11.78783857556342 $391 -8.2721724705324107 $389 $727 forward 7 unknown #
point $-1 57.95342875453963 -36.690868094601278 8.2721724705324107 #
point $-1 57.95342875453963 36.690868094601278 8.2721724705324107 #
loop $-1 $-1 $402 $394 #
plane-surface $-1 0 -36.690868094601278 0 0 1 0 0 0 1 forward_v I I I I #
coedge $-1 $569 $397 $399 $573 reversed $239 $-1 #
coedge $-1 $397 $568 $728 $729 reversed $239 $-1 #
coedge $-1 $405 $400 $397 $571 forward $395 $-1 #
edge $-1 $574 -29.544571455102059 $730 -24.039021072817086 $570 $731 forward 7 unknown #
coedge $-1 $399 $398 $577 $732 reversed $149 $-1 #
edge $-1 $733 3.1426556366807674e-014 $574 8.0726740359407838 $568 $734 forward 7 unknown #
vertex $-1 $401 $735 #
straight-curve $-1 -11.455046301967368 -31.185317712316309 11.78783857556342 -1 0 0 I I #
coedge $-1 $728 $402 $405 $581 reversed $566 $-1 #
coedge $-1 $402 $728 $572 $732 forward $566 $-1 #
vertex $-1 $403 $736 #
straight-curve $-1 -12.354140447405342 -36.690868094601278 42.466072092318541 0 0 1 I I #
straight-curve $-1 -12.354140447405342 -36.690868094601299 5.8838584706956851 0 -0.68199835119979291 -0.73135370988377701 I I #
edge $-1 $730 -33.466044760464129 $406 -12.354140447405342 $576 $737 forward 7 unknown #
point $-1 -12.354140447405342 -36.690868094601278 11.78783857556342 #
point $-1 -12.354140447405342 -31.185317712316305 11.78783857556342 #
edge $-1 $738 1 $738 0 $409 $-1 forward 7 unknown #
vertex $-1 $410 $739 #
ellipse-curve $-1 -29.243663897852372 -30.729618041683434 5.8438973837219148 0 -0.73135370988377701 0.68199835119979291 2 0 0 1 I I #
point $-1 -27.243663897852372 -33.938092903458788 8.8358485231295578 #
edge $-1 $740 1 $740 0 $413 $-1 forward 7 unknown #
vertex $-1 $414 $741 #
ellipse-curve $-1 -22.910092603934736 -30.729618041683434 5.8438973837219148 0 -0.73135370988377701 0.68199835119979291 2 0 0 1 I I #
point $-1 -20.910092603934736 -33.938092903458788 8.8358485231295578 #
edge $-1 $742 1 $742 0 $417 $-1 forward 7 unknown #
vertex $-1 $418 $743 #
ellipse-curve $-1 -16.5765213100171 -30.729618041683434 5.8438973837219148 0 -0.73135370988377701 0.68199835119979291 2 0 0 1 I I #
point $-1 -14.5765213100171 -33.938092903458788 8.8358485231295578 #
plane-surface $-1 0 0 11.78783857556342 0 0 1 1 0 0 forward_v I I I I #
coedge $-1 $607 $606 $599 $744 forward $422 $-1 #
coedge $-1 $599 $424 $426 $603 reversed $268 $-1 #
coedge $-1 $424 $598 $597 $744 reversed $268 $-1 #
coedge $-1 $432 $427 $424 $601 forward $433 $-1 #
edge $-1 $604 -29.544571455102059 $745 -24.039021072817086 $600 $746 forward 7 unknown #
coedge $-1 $426 $425 $607 $747 reversed $168 $-1 #
edge $-1 $748 3.1426556366807674e-014 $604 8.0726740359407838 $598 $749 forward 7 unknown #
vertex $-1 $428 $750 #
straight-curve $-1 11.455046301967371 -31.185317712316309 11.78783857556342 -1 0 0 I I #
coedge $-1 $597 $429 $432 $611 reversed $422 $-1 #
coedge $-1 $429 $597 $602 $747 forward $422 $-1 #
vertex $-1 $430 $751 #
straight-curve $-1 33.466044760464136 -36.690868094601278 42.466072092318541 0 0 1 I I #
straight-curve $-1 33.466044760464136 -36.690868094601299 5.8838584706956851 0 -0.68199835119979291 -0.73135370988377701 I I #
edge $-1 $745 12.354140447405349 $434 33.466044760464136 $606 $752 forward 7 unknown #
point $-1 33.466044760464136 -36.690868094601278 11.78783857556342 #
point $-1 33.466044760464136 -31.185317712316305 11.78783857556342 #
edge $-1 $753 1 $753 0 $437 $-1 forward 7 unknown #
vertex $-1 $438 $754 #
ellipse-curve $-1 16.576521310017114 -30.729618041683434 5.8438973837219148 0 -0.73135370988377701 0.68199835119979291 2 0 0 1 I I #
point $-1 18.576521310017114 -33.938092903458788 8.8358485231295578 #
edge $-1 $755 1 $755 0 $441 $-1 forward 7 unknown #
vertex $-1 $442 $756 #
ellipse-curve $-1 22.910092603934743 -30.729618041683434 5.8438973837219148 0 -0.73135370988377701 0.68199835119979291 2 0 0 1 I I #
point $-1 24.910092603934743 -33.938092903458788 8.8358485231295578 #
edge $-1 $757 1 $757 0 $445 $-1 forward 7 unknown #
vertex $-1 $446 $758 #
ellipse-curve $-1 29.243663897852372 -30.729618041683434 5.8438973837219148 0 -0.73135370988377701 0.68199835119979291 2 0 0 1 I I #
point $-1 31.243663897852372 -33.938092903458788 8.8358485231295578 #
loop $-1 $-1 $458 $449 #
plane-surface $-1 -44.41736237839001 0 10.030005523047915 -1 0 0 0 0 1 forward_v I I I I #
coedge $-1 $759 $452 $457 $634 forward $297 $-1 #
coedge $-1 $452 $759 $631 $760 reversed $297 $-1 #
edge $-1 $632 52.142305319654206 $639 57.573731587730563 $452 $761 forward 7 unknown #
coedge $-1 $461 $455 $629 $760 forward $450 $-1 #
vertex $-1 $760 $762 #
straight-curve $-1 -24.78409385384856 50.189142477679553 11.78783857556342 0 1 0 I I #
edge $-1 $639 7.4837297957889177 $637 27.116998320330367 $628 $763 forward 7 unknown #
coedge $-1 $636 $458 $461 $641 reversed $626 $-1 #
coedge $-1 $458 $635 $759 $764 reversed $626 $-1 #
vertex $-1 $764 $765 #
straight-curve $-1 -44.41736237839001 12.963720025069058 47.453039750869166 0 -0.49999998660252726 0.86602541151947299 I I #
vertex $-1 $634 $766 #
straight-curve $-1 -24.78409385384856 9.8312982288462081e-007 69.906860588754583 0 -0.49999998660252726 0.86602541151947299 I I #
edge $-1 $767 -36.690868094601278 $462 -33.555032788676499 $461 $768 forward 7 unknown #
point $-1 -44.41736237839001 33.555032788676499 11.787838575563427 #
point $-1 -24.78409385384856 33.555032788676499 11.787838575563427 #
edge $-1 $769 1 $769 0 $465 $-1 forward 7 unknown #
vertex $-1 $466 $770 #
ellipse-curve $-1 -38.807857085663883 33.301170431548677 8.0203202998727914 0 0.86602541151947299 0.49999998660252726 1 0 0 1 I I #
point $-1 -37.807857085663883 35.122950441638885 9.0721254415252357 #
edge $-1 $771 1 $771 0 $469 $-1 forward 7 unknown #
vertex $-1 $470 $772 #
ellipse-curve $-1 -30.393599146574687 33.301170431548677 8.0203202998727914 0 0.86602541151947299 0.49999998660252726 1 0 0 1 I I #
point $-1 -29.393599146574687 35.122950441638885 9.0721254415252357 #
loop $-1 $-1 $480 $473 #
plane-surface $-1 0 36.690868094601278 0 0 -1 0 0 0 -1 forward_v I I I I #
coedge $-1 $773 $774 $477 $656 reversed $474 $-1 #
coedge $-1 $477 $476 $661 $775 reversed $201 $-1 #
edge $-1 $776 -73.381736189202513 $658 -67.1100654093039 $654 $777 forward 7 unknown #
coedge $-1 $483 $478 $774 $778 forward $319 $-1 #
vertex $-1 $778 $779 #
straight-curve $-1 17.300364058059643 33.555032788676506 11.78783857556342 1 0 0 I I #
coedge $-1 $780 $480 $483 $665 reversed $652 $-1 #
coedge $-1 $480 $780 $655 $775 forward $652 $-1 #
vertex $-1 $481 $781 #
straight-curve $-1 24.78409385384856 36.690868094601278 63.930143895217626 0 0 1 I I #
straight-curve $-1 24.78409385384856 9.8312982288462081e-007 69.906860588754583 0 0.49999998660252726 -0.86602541151947299 I I #
edge $-1 $782 -44.41736237839001 $484 -24.78409385384856 $660 $783 forward 7 unknown #
point $-1 24.78409385384856 36.690868094601278 11.78783857556342 #
point $-1 24.78409385384856 33.555032788676499 11.787838575563427 #
edge $-1 $784 1 $784 0 $487 $-1 forward 7 unknown #
vertex $-1 $488 $785 #
ellipse-curve $-1 30.393599146574687 33.301170431548677 8.0203202998727914 0 0.86602541151947299 0.49999998660252726 1 0 0 1 I I #
point $-1 31.393599146574687 35.122950441638885 9.0721254415252357 #
edge $-1 $786 1 $786 0 $491 $-1 forward 7 unknown #
vertex $-1 $492 $787 #
ellipse-curve $-1 38.807857085663883 33.301170431548677 8.0203202998727914 0 0.86602541151947299 0.49999998660252726 1 0 0 1 I I #
point $-1 39.807857085663883 35.122950441638885 9.0721254415252357 #
plane-surface $-1 57.95342875453963 0 0 -1 0 0 0 0 1 forward_v I I I I #
coedge $-1 $500 $498 $502 $681 reversed $341 $-1 #
edge $-1 $513 -11.78783857556342 $683 11.78783857556342 $512 $788 forward 7 unknown #
vertex $-1 $681 $789 #
straight-curve $-1 -57.95342875453963 -36.690868094601278 0 0 0 -1 I I #
edge $-1 $679 -36.690868094601278 $683 36.690868094601278 $677 $790 forward 7 unknown #
straight-curve $-1 0 -36.690868094601278 -11.78783857556342 -1 0 0 I I #
vertex $-1 $505 $791 #
straight-curve $-1 0 36.690868094601278 -11.78783857556342 1 0 0 I I #
point $-1 57.95342875453963 36.690868094601278 -11.78783857556342 #
point $-1 57.95342875453963 -36.690868094601278 -11.78783857556342 #
straight-curve $-1 -57.95342875453963 0 11.78783857556342 0 -1 0 I I #
point $-1 -57.95342875453963 36.690868094601278 11.78783857556342 #
point $-1 -57.95342875453963 -36.690868094601278 11.78783857556342 #
straight-curve $-1 57.95342875453963 -36.690868094601278 0 0 0 -1 I I #
straight-curve $-1 57.95342875453963 36.690868094601278 0 0 0 -1 I I #
plane-surface $-1 0 -36.690868094601278 0 0 1 0 0 0 1 forward_v I I I I #
coedge $-1 $704 $524 $697 $792 reversed $360 $-1 #
coedge $-1 $524 $704 $696 $793 forward $360 $-1 #
edge $-1 $700 -36.690868094601278 $698 36.690868094601278 $524 $794 forward 7 unknown #
coedge $-1 $526 $525 $694 $793 reversed $223 $-1 #
coedge $-1 $528 $534 $693 $792 forward $535 $-1 #
vertex $-1 $695 $795 #
straight-curve $-1 -25.59269778323241 -36.690868094601278 8.2721724705324107 1 0 0 I I #
vertex $-1 $695 $796 #
straight-curve $-1 -25.59269778323241 36.690868094601278 8.2721724705324107 -1 0 0 I I #
point $-1 -44.41736237839001 36.690868094601278 8.2721724705324107 #
point $-1 -44.41736237839001 -36.690868094601278 8.2721724705324107 #
coedge $-1 $694 $693 $538 $705 reversed $360 $-1 #
edge $-1 $706 -36.690868094601278 $708 36.690868094601278 $704 $797 forward 7 unknown #
vertex $-1 $539 $798 #
straight-curve $-1 0 36.690868094601278 11.78783857556342 -1 0 0 I I #
vertex $-1 $705 $799 #
straight-curve $-1 0 -36.690868094601278 11.78783857556342 1 0 0 I I #
plane-surface $-1 57.95342875453963 0 0 -1 0 0 0 0 1 forward_v I I I I #
coedge $-1 $546 $557 $547 $713 reversed $377 $-1 #
coedge $-1 $548 $547 $561 $723 forward $231 $-1 #
edge $-1 $717 44.41736237839001 $726 57.95342875453963 $711 $800 forward 7 unknown #
coedge $-1 $559 $552 $548 $715 reversed $544 $-1 #
edge $-1 $724 -57.95342875453963 $716 -44.41736237839001 $714 $801 forward 7 unknown #
vertex $-1 $553 $802 #
vertex $-1 $713 $803 #
straight-curve $-1 44.41736237839001 0 11.78783857556342 0 -1 0 I I #
straight-curve $-1 44.41736237839001 -36.690868094601278 5.0150027615239576 0 0 -1 I I #
straight-curve $-1 44.41736237839001 36.690868094601278 5.0150027615239576 0 0 1 I I #
point $-1 44.41736237839001 -36.690868094601278 8.2721724705324107 #
point $-1 44.41736237839001 36.690868094601278 8.2721724705324107 #
edge $-1 $726 -36.690868094601278 $724 36.690868094601278 $561 $804 forward 7 unknown #
vertex $-1 $723 $805 #
straight-curve $-1 57.95342875453963 36.690868094601278 0 0 0 -1 I I #
vertex $-1 $723 $806 #
straight-curve $-1 57.95342875453963 -36.690868094601278 0 0 0 -1 I I #
coedge $-1 $577 $576 $569 $729 forward $566 $-1 #
edge $-1 $730 30.678233516755121 $733 36.582213621622834 $728 $807 forward 7 unknown #
vertex $-1 $581 $808 #
straight-curve $-1 -33.466044760464129 -60.729889167418364 11.78783857556342 0 -1 0 I I #
edge $-1 $733 -22.010998458496761 $578 -0.89909414543797439 $577 $809 forward 7 unknown #
vertex $-1 $732 $810 #
straight-curve $-1 -33.466044760464129 -36.690868094601299 5.8838584706956851 0 0.68199835119979291 0.73135370988377701 I I #
point $-1 -33.466044760464129 -31.185317712316305 11.78783857556342 #
point $-1 -12.354140447405342 -36.690868094601278 5.8838584706957082 #
straight-curve $-1 0 -36.690868094601278 11.78783857556342 1 0 0 I I #
vertex $-1 $584 $811 #
point $-1 -27.243663897852372 -30.729618041683434 5.8438973837219148 #
vertex $-1 $588 $812 #
point $-1 -20.910092603934736 -30.729618041683434 5.8438973837219148 #
vertex $-1 $592 $813 #
point $-1 -14.5765213100171 -30.729618041683434 5.8438973837219148 #
edge $-1 $745 30.678233516755121 $748 36.582213621622834 $597 $814 forward 7 unknown #
vertex $-1 $611 $815 #
straight-curve $-1 12.354140447405349 -60.729889167418364 11.78783857556342 0 -1 0 I I #
edge $-1 $748 0.89909414543797794 $608 22.010998458496765 $607 $816 forward 7 unknown #
vertex $-1 $747 $817 #
straight-curve $-1 12.354140447405349 -36.690868094601299 5.8838584706956851 0 0.68199835119979291 0.73135370988377701 I I #
point $-1 12.354140447405349 -31.185317712316305 11.78783857556342 #
point $-1 33.466044760464136 -36.690868094601278 5.8838584706957082 #
straight-curve $-1 0 -36.690868094601278 11.78783857556342 1 0 0 I I #
vertex $-1 $614 $818 #
point $-1 18.576521310017114 -30.729618041683434 5.8438973837219148 #
vertex $-1 $618 $819 #
point $-1 24.910092603934743 -30.729618041683434 5.8438973837219148 #
vertex $-1 $622 $820 #
point $-1 31.243663897852372 -30.729618041683434 5.8438973837219148 #
coedge $-1 $629 $628 $636 $764 forward $297 $-1 #
edge $-1 $632 24.78409385384856 $767 44.41736237839001 $629 $821 forward 7 unknown #
straight-curve $-1 -24.78409385384856 36.690868094601278 63.930143895217626 0 0 -1 I I #
point $-1 -24.78409385384856 36.690868094601278 11.78783857556342 #
straight-curve $-1 -17.300364058059643 36.690868094601278 6.356412307487048 -1 0 0 I I #
edge $-1 $637 -57.573731587730563 $767 -52.142305319654206 $759 $822 forward 7 unknown #
point $-1 -44.41736237839001 36.690868094601278 6.3564123074870622 #
point $-1 -24.78409385384856 36.690868094601278 6.3564123074870622 #
vertex $-1 $641 $823 #
straight-curve $-1 -44.41736237839001 0 11.78783857556342 0 -1 0 I I #
vertex $-1 $644 $824 #
point $-1 -37.807857085663883 33.301170431548677 8.0203202998727914 #
vertex $-1 $648 $825 #
point $-1 -29.393599146574687 33.301170431548677 8.0203202998727914 #
coedge $-1 $774 $654 $780 $826 reversed $474 $-1 #
coedge $-1 $654 $773 $657 $778 reversed $474 $-1 #
edge $-1 $776 -27.116998320330367 $662 -7.4837297957889177 $661 $827 forward 7 unknown #
vertex $-1 $826 $828 #
straight-curve $-1 44.41736237839001 9.8312982288462081e-007 69.906860588754583 0 -0.49999998660252726 0.86602541151947299 I I #
edge $-1 $658 33.555032788676499 $782 36.690868094601278 $657 $829 forward 7 unknown #
point $-1 44.41736237839001 33.555032788676499 11.787838575563427 #
coedge $-1 $661 $660 $773 $826 forward $652 $-1 #
point $-1 24.78409385384856 36.690868094601278 6.3564123074870622 #
vertex $-1 $665 $830 #
straight-curve $-1 0 36.690868094601278 11.78783857556342 -1 0 0 I I #
vertex $-1 $668 $831 #
point $-1 31.393599146574687 33.301170431548677 8.0203202998727914 #
vertex $-1 $672 $832 #
point $-1 39.807857085663883 33.301170431548677 8.0203202998727914 #
straight-curve $-1 -57.95342875453963 36.690868094601278 0 0 0 -1 I I #
point $-1 -57.95342875453963 -36.690868094601278 -11.78783857556342 #
straight-curve $-1 -57.95342875453963 0 -11.78783857556342 0 1 0 I I #
point $-1 -57.95342875453963 36.690868094601278 -11.78783857556342 #
edge $-1 $708 -11.78783857556342 $698 -8.2721724705324107 $693 $833 forward 7 unknown #
edge $-1 $706 -11.78783857556342 $700 -8.2721724705324107 $696 $834 forward 7 unknown #
straight-curve $-1 -57.95342875453963 0 8.2721724705324107 0 -1 0 I I #
point $-1 -57.95342875453963 -36.690868094601278 8.2721724705324107 #
point $-1 -57.95342875453963 36.690868094601278 8.2721724705324107 #
straight-curve $-1 -57.95342875453963 0 11.78783857556342 0 -1 0 I I #
point $-1 -57.95342875453963 36.690868094601278 11.78783857556342 #
point $-1 -57.95342875453963 -36.690868094601278 11.78783857556342 #
straight-curve $-1 0 -36.690868094601278 11.78783857556342 1 0 0 I I #
straight-curve $-1 0 36.690868094601278 11.78783857556342 -1 0 0 I I #
point $-1 44.41736237839001 36.690868094601278 11.78783857556342 #
point $-1 44.41736237839001 -36.690868094601278 11.78783857556342 #
straight-curve $-1 57.95342875453963 0 11.78783857556342 0 1 0 I I #
point $-1 57.95342875453963 36.690868094601278 11.78783857556342 #
point $-1 57.95342875453963 -36.690868094601278 11.78783857556342 #
straight-curve $-1 -33.466044760464129 -36.690868094601278 42.466072092318541 0 0 -1 I I #
point $-1 -33.466044760464129 -36.690868094601278 11.78783857556342 #
straight-curve $-1 -11.455046301967368 -36.690868094601278 5.8838584706957082 1 0 0 I I #
point $-1 -33.466044760464129 -36.690868094601278 5.8838584706957082 #
point $-1 -29.243663897852372 -29.26691062191588 4.479900681322329 #
point $-1 -22.910092603934736 -29.26691062191588 4.479900681322329 #
point $-1 -16.5765213100171 -29.26691062191588 4.479900681322329 #
straight-curve $-1 12.354140447405349 -36.690868094601278 42.466072092318541 0 0 -1 I I #
point $-1 12.354140447405349 -36.690868094601278 11.78783857556342 #
straight-curve $-1 11.455046301967371 -36.690868094601278 5.8838584706957082 1 0 0 I I #
point $-1 12.354140447405349 -36.690868094601278 5.8838584706957082 #
point $-1 16.576521310017114 -29.26691062191588 4.479900681322329 #
point $-1 22.910092603934743 -29.26691062191588 4.479900681322329 #
point $-1 29.243663897852372 -29.26691062191588 4.479900681322329 #
straight-curve $-1 0 36.690868094601278 11.78783857556342 -1 0 0 I I #
straight-curve $-1 -44.41736237839001 36.690868094601278 63.930143895217626 0 0 1 I I #
point $-1 -44.41736237839001 36.690868094601278 11.78783857556342 #
point $-1 -38.807857085663883 32.435145020029204 7.5203203132702638 #
point $-1 -30.393599146574687 32.435145020029204 7.5203203132702638 #
edge $-1 $782 52.142305319654206 $776 57.573731587730563 $780 $835 forward 7 unknown #
straight-curve $-1 17.300364058059643 36.690868094601278 6.356412307487048 -1 0 0 I I #
point $-1 44.41736237839001 36.690868094601278 6.3564123074870622 #
straight-curve $-1 44.41736237839001 0 11.78783857556342 0 1 0 I I #
point $-1 44.41736237839001 36.690868094601278 11.78783857556342 #
point $-1 30.393599146574687 32.435145020029204 7.5203203132702638 #
point $-1 38.807857085663883 32.435145020029204 7.5203203132702638 #
straight-curve $-1 -57.95342875453963 -36.690868094601278 0 0 0 -1 I I #
straight-curve $-1 -57.95342875453963 36.690868094601278 0 0 0 -1 I I #
straight-curve $-1 44.41736237839001 36.690868094601278 63.930143895217626 0 0 -1 I I #
End-of-ACIS-data 