500 0 19 0           
7 Unknown 11 ACIS 5.0 NT 24 Thu Mar 25 22:13:40 1999 
-1 9.9999999999999995e-007 1e-010 
body $-1 $19 $-1 $20 #
body $-1 $21 $-1 $22 #
body $-1 $23 $-1 $24 #
body $-1 $25 $-1 $26 #
body $-1 $27 $-1 $28 #
body $-1 $29 $-1 $30 #
body $-1 $31 $-1 $32 #
body $-1 $33 $-1 $34 #
body $-1 $35 $-1 $36 #
body $-1 $37 $-1 $38 #
body $-1 $39 $-1 $40 #
body $-1 $41 $-1 $42 #
body $-1 $43 $-1 $44 #
body $-1 $45 $-1 $46 #
body $-1 $47 $-1 $48 #
body $-1 $49 $-1 $50 #
body $-1 $51 $-1 $52 #
body $-1 $53 $-1 $54 #
body $-1 $55 $-1 $56 #
lump $-1 $-1 $57 $0 #
transform $-1 1 0 0 0 1 0 0 0 1 46.29047517319254 28.309280768702902 11.422030620157889 1 rotate no_reflect no_shear #
lump $-1 $-1 $58 $1 #
transform $-1 1 0 0 0 1 0 0 0 1 46.29047517319254 28.309280768702902 11.422030620157889 1 rotate no_reflect no_shear #
lump $-1 $-1 $59 $2 #
transform $-1 1 0 0 0 1 0 0 0 1 46.29047517319254 28.309280768702902 11.422030620157889 1 rotate no_reflect no_shear #
lump $-1 $-1 $60 $3 #
transform $-1 1 0 0 0 1 0 0 0 1 46.29047517319254 28.309280768702902 11.422030620157889 1 rotate no_reflect no_shear #
lump $-1 $-1 $61 $4 #
transform $-1 1 0 0 0 1 0 0 0 1 46.29047517319254 28.309280768702902 11.422030620157889 1 rotate no_reflect no_shear #
lump $-1 $-1 $62 $5 #
transform $-1 1 0 0 0 1 0 0 0 1 46.29047517319254 28.309280768702902 11.422030620157889 1 rotate no_reflect no_shear #
lump $-1 $-1 $63 $6 #
transform $-1 1 0 0 0 1 0 0 0 1 46.29047517319254 28.309280768702902 11.422030620157889 1 rotate no_reflect no_shear #
lump $-1 $-1 $64 $7 #
transform $-1 1 0 0 0 1 0 0 0 1 46.29047517319254 28.309280768702902 11.422030620157889 1 rotate no_reflect no_shear #
lump $-1 $-1 $65 $8 #
transform $-1 1 0 0 0 1 0 0 0 1 46.29047517319254 28.309280768702902 11.422030620157889 1 rotate no_reflect no_shear #
lump $-1 $-1 $66 $9 #
transform $-1 1 0 0 0 1 0 0 0 1 46.29047517319254 28.309280768702902 11.422030620157889 1 rotate no_reflect no_shear #
lump $-1 $-1 $67 $10 #
transform $-1 1 0 0 0 1 0 0 0 1 46.29047517319254 28.309280768702902 11.422030620157889 1 rotate no_reflect no_shear #
lump $-1 $-1 $68 $11 #
transform $-1 1 0 0 0 1 0 0 0 1 46.29047517319254 28.309280768702902 11.422030620157889 1 rotate no_reflect no_shear #
lump $-1 $-1 $69 $12 #
transform $-1 1 0 0 0 1 0 0 0 1 46.29047517319254 28.309280768702902 11.422030620157889 1 rotate no_reflect no_shear #
lump $-1 $-1 $70 $13 #
transform $-1 1 0 0 0 1 0 0 0 1 46.29047517319254 28.309280768702902 11.422030620157889 1 rotate no_reflect no_shear #
lump $-1 $-1 $71 $14 #
transform $-1 1 0 0 0 1 0 0 0 1 46.29047517319254 28.309280768702902 11.422030620157889 1 rotate no_reflect no_shear #
lump $-1 $-1 $72 $15 #
transform $-1 1 0 0 0 1 0 0 0 1 46.29047517319254 28.309280768702902 11.422030620157889 1 rotate no_reflect no_shear #
lump $-1 $-1 $73 $16 #
transform $-1 1 0 0 0 1 0 0 0 1 46.29047517319254 28.309280768702902 11.422030620157889 1 rotate no_reflect no_shear #
lump $-1 $-1 $74 $17 #
transform $-1 1 0 0 0 1 0 0 0 1 46.29047517319254 28.309280768702902 11.422030620157889 1 rotate no_reflect no_shear #
lump $-1 $-1 $75 $18 #
transform $-1 1 0 0 0 1 0 0 0 1 46.29047517319254 28.309280768702902 11.422030620157889 1 rotate no_reflect no_shear #
shell $-1 $-1 $-1 $76 $-1 $19 #
shell $-1 $-1 $-1 $77 $-1 $21 #
shell $-1 $-1 $-1 $78 $-1 $23 #
shell $-1 $-1 $-1 $79 $-1 $25 #
shell $-1 $-1 $-1 $80 $-1 $27 #
shell $-1 $-1 $-1 $81 $-1 $29 #
shell $-1 $-1 $-1 $82 $-1 $31 #
shell $-1 $-1 $-1 $83 $-1 $33 #
shell $-1 $-1 $-1 $84 $-1 $35 #
shell $-1 $-1 $-1 $85 $-1 $37 #
shell $-1 $-1 $-1 $86 $-1 $39 #
shell $-1 $-1 $-1 $87 $-1 $41 #
shell $-1 $-1 $-1 $88 $-1 $43 #
shell $-1 $-1 $-1 $89 $-1 $45 #
shell $-1 $-1 $-1 $90 $-1 $47 #
shell $-1 $-1 $-1 $91 $-1 $49 #
shell $-1 $-1 $-1 $92 $-1 $51 #
shell $-1 $-1 $-1 $93 $-1 $53 #
shell $-1 $-1 $-1 $94 $-1 $55 #
face $-1 $95 $96 $57 $-1 $97 forward single #
face $-1 $98 $99 $58 $-1 $100 forward single #
face $-1 $101 $102 $59 $-1 $103 forward single #
face $-1 $104 $105 $60 $-1 $106 reversed single #
face $-1 $107 $108 $61 $-1 $109 forward single #
face $-1 $110 $111 $62 $-1 $112 forward single #
face $-1 $113 $114 $63 $-1 $115 forward single #
face $-1 $116 $117 $64 $-1 $118 reversed single #
face $-1 $119 $120 $65 $-1 $121 forward single #
face $-1 $122 $123 $66 $-1 $124 forward single #
face $-1 $125 $126 $67 $-1 $127 forward single #
face $-1 $128 $129 $68 $-1 $130 reversed single #
face $-1 $131 $132 $69 $-1 $133 forward single #
face $-1 $134 $135 $70 $-1 $136 forward single #
face $-1 $137 $138 $71 $-1 $139 forward single #
face $-1 $140 $141 $72 $-1 $142 reversed single #
face $-1 $143 $144 $73 $-1 $145 forward single #
face $-1 $146 $147 $74 $-1 $148 forward single #
face $-1 $149 $150 $75 $-1 $151 forward single #
face $-1 $152 $153 $57 $-1 $154 reversed single #
loop $-1 $-1 $155 $76 #
plane-surface $-1 0 0 11.422030620157889 0 0 1 1 0 0 forward_v I I I I #
face $-1 $156 $157 $58 $-1 $158 reversed single #
loop $-1 $-1 $159 $77 #
plane-surface $-1 0 -28.309280768702902 0 0 1 0 0 0 1 forward_v I I I I #
face $-1 $160 $161 $59 $-1 $162 reversed single #
loop $-1 $-1 $163 $78 #
plane-surface $-1 0 28.309280768702902 0 0 -1 0 0 0 -1 forward_v I I I I #
face $-1 $164 $165 $60 $-1 $166 reversed single #
loop $-1 $-1 $167 $79 #
plane-surface $-1 75.743146673015303 -6.0079305074678686 134.62919805291335 0 -1 0 -0.84804810408105047 0 -0.52991925155115449 forward_v I I I I #
face $-1 $168 $169 $61 $-1 $170 forward single #
loop $-1 $171 $172 $80 #
cone-surface $-1 44.107380006043222 -12.929389095244083 8.7271495670531305 -0.84804810408105047 0 -0.52991925155115449 0.26495962577557725 0 -0.42402405204052523 1 I I 0 1 0.5 forward I I I I #
face $-1 $173 $174 $62 $-1 $175 forward single #
loop $-1 $176 $177 $81 #
cone-surface $-1 44.107380006043222 -10.333842124828003 8.7271495670531305 -0.84804810408105047 0 -0.52991925155115449 0.26495962577557725 0 -0.42402405204052523 1 I I 0 1 0.5 forward I I I I #
face $-1 $178 $179 $63 $-1 $180 forward single #
loop $-1 $181 $182 $82 #
cone-surface $-1 44.107380006043222 -7.7382951544119223 8.7271495670531305 -0.84804810408105047 0 -0.52991925155115449 0.26495962577557725 0 -0.42402405204052523 1 I I 0 1 0.5 forward I I I I #
face $-1 $183 $184 $64 $-1 $185 reversed single #
loop $-1 $-1 $186 $83 #
plane-surface $-1 -113.99989667358702 -10.817345344696495 64.85828647405765 0 1 0 -0.73135370988377701 0 0.68199835119979291 forward_v I I I I #
face $-1 $187 $188 $65 $-1 $189 forward single #
loop $-1 $190 $191 $84 #
cone-surface $-1 -41.400328652000539 -9.6311931919030727 6.2291316271356116 0.73135370988377701 0 -0.68199835119979291 0.34099917559989645 0 0.36567685494188851 1 I I 0 1 0.5 forward I I I I #
face $-1 $192 $193 $66 $-1 $194 forward single #
loop $-1 $195 $196 $85 #
cone-surface $-1 -41.400328652000539 -7.8519649627129375 6.2291316271356116 0.73135370988377701 0 -0.68199835119979291 0.34099917559989645 0 0.36567685494188851 1 I I 0 1 0.5 forward I I I I #
face $-1 $197 $198 $67 $-1 $199 forward single #
loop $-1 $200 $201 $86 #
cone-surface $-1 -41.400328652000539 -6.0727367335228024 6.2291316271356116 0.73135370988377701 0 -0.68199835119979291 0.34099917559989645 0 0.36567685494188851 1 I I 0 1 0.5 forward I I I I #
face $-1 $202 $203 $68 $-1 $204 reversed single #
loop $-1 $-1 $205 $87 #
plane-surface $-1 -113.99989667358702 -2.9653803819835574 64.85828647405765 0 1 0 -0.73135370988377701 0 0.68199835119979291 forward_v I I I I #
face $-1 $206 $207 $69 $-1 $208 forward single #
loop $-1 $209 $210 $88 #
cone-surface $-1 -41.400328652000539 -1.7792282291901351 6.2291316271356116 0.73135370988377701 0 -0.68199835119979291 0.34099917559989645 0 0.36567685494188851 1 I I 0 1 0.5 forward I I I I #
face $-1 $211 $212 $70 $-1 $213 forward single #
loop $-1 $214 $215 $89 #
cone-surface $-1 -41.400328652000539 0 6.2291316271356116 0.73135370988377701 0 -0.68199835119979291 0.34099917559989645 0 0.36567685494188851 1 I I 0 1 0.5 forward I I I I #
face $-1 $216 $217 $71 $-1 $218 forward single #
loop $-1 $219 $220 $90 #
cone-surface $-1 -41.400328652000539 1.7792282291901351 6.2291316271356116 0.73135370988377701 0 -0.68199835119979291 0.34099917559989645 0 0.36567685494188851 1 I I 0 1 0.5 forward I I I I #
face $-1 $221 $222 $72 $-1 $223 reversed single #
loop $-1 $-1 $224 $91 #
plane-surface $-1 -113.99989667358702 4.8865845807293802 64.85828647405765 0 1 0 -0.73135370988377701 0 0.68199835119979291 forward_v I I I I #
face $-1 $225 $226 $73 $-1 $227 forward single #
loop $-1 $228 $229 $92 #
cone-surface $-1 -41.400328652000539 6.0727367335227989 6.2291316271356116 0.73135370988377701 0 -0.68199835119979291 0.34099917559989645 0 0.36567685494188851 1 I I 0 1 0.5 forward I I I I #
face $-1 $230 $231 $74 $-1 $232 forward single #
loop $-1 $233 $234 $93 #
cone-surface $-1 -41.400328652000539 7.8519649627129375 6.2291316271356116 0.73135370988377701 0 -0.68199835119979291 0.34099917559989645 0 0.36567685494188851 1 I I 0 1 0.5 forward I I I I #
face $-1 $235 $236 $75 $-1 $237 forward single #
loop $-1 $238 $239 $94 #
cone-surface $-1 -41.400328652000539 9.6311931919030691 6.2291316271356116 0.73135370988377701 0 -0.68199835119979291 0.34099917559989645 0 0.36567685494188851 1 I I 0 1 0.5 forward I I I I #
face $-1 $240 $241 $57 $-1 $242 reversed single #
loop $-1 $-1 $243 $95 #
plane-surface $-1 0 0 -11.422030620157889 0 0 1 1 0 0 forward_v I I I I #
coedge $-1 $244 $245 $246 $247 forward $96 $-1 #
face $-1 $248 $249 $58 $-1 $250 reversed single #
loop $-1 $-1 $251 $98 #
plane-surface $-1 0 0 -11.422030620157889 0 0 1 1 0 0 forward_v I I I I #
coedge $-1 $252 $253 $254 $255 forward $99 $-1 #
face $-1 $256 $257 $59 $-1 $258 forward single #
loop $-1 $-1 $259 $101 #
plane-surface $-1 -46.29047517319254 0 0 1 0 0 0 0 -1 forward_v I I I I #
coedge $-1 $260 $261 $262 $263 forward $102 $-1 #
face $-1 $264 $265 $60 $-1 $266 reversed single #
loop $-1 $-1 $267 $104 #
plane-surface $-1 -2.7699527422584396 -10.333842124828003 85.568770137462366 0.84804810408105047 0 0.52991925155115449 0.52991925155115449 0 -0.84804810408105047 forward_v I I I I #
coedge $-1 $268 $269 $270 $271 reversed $105 $-1 #
face $-1 $-1 $272 $61 $-1 $273 forward single #
loop $-1 $274 $275 $107 #
cone-surface $-1 43.07647500730112 -12.929389095244083 8.0829686500452116 -0.84804810408105047 0 -0.52991925155115449 0.13247981288778862 0 -0.21201202602026262 1 I I -0.70710678118654502 0.70710678118655002 0.25 forward I I I I #
loop $-1 $-1 $276 $80 #
coedge $-1 $172 $172 $277 $278 reversed $108 $-1 #
face $-1 $-1 $279 $62 $-1 $280 forward single #
loop $-1 $281 $282 $110 #
cone-surface $-1 43.07647500730112 -10.333842124828003 8.0829686500452116 -0.84804810408105047 0 -0.52991925155115449 0.13247981288778862 0 -0.21201202602026262 1 I I -0.70710678118654502 0.70710678118655002 0.25 forward I I I I #
loop $-1 $-1 $283 $81 #
coedge $-1 $177 $177 $284 $285 reversed $111 $-1 #
face $-1 $-1 $286 $63 $-1 $287 forward single #
loop $-1 $288 $289 $113 #
cone-surface $-1 43.07647500730112 -7.7382951544119223 8.0829686500452116 -0.84804810408105047 0 -0.52991925155115449 0.13247981288778862 0 -0.21201202602026262 1 I I -0.70710678118654502 0.70710678118655002 0.25 forward I I I I #
loop $-1 $-1 $290 $82 #
coedge $-1 $182 $182 $291 $292 reversed $114 $-1 #
face $-1 $293 $294 $64 $-1 $295 reversed single #
loop $-1 $-1 $296 $116 #
plane-surface $-1 -46.290475173192533 -7.8519649627129375 1.7182309853131272 -0.73135370988377701 0 0.68199835119979291 0.68199835119979291 0 0.73135370988377701 forward_v I I I I #
coedge $-1 $297 $298 $299 $300 reversed $117 $-1 #
face $-1 $-1 $301 $65 $-1 $302 forward single #
loop $-1 $303 $304 $119 #
cone-surface $-1 -40.851813369587703 -9.6311931919030727 5.7176328637357674 0.73135370988377701 0 -0.68199835119979291 0.17049958779994823 0 0.18283842747094425 1 I I -0.70710678118654746 0.70710678118654746 0.25 forward I I I I #
loop $-1 $-1 $305 $84 #
coedge $-1 $191 $191 $306 $307 reversed $120 $-1 #
face $-1 $-1 $308 $66 $-1 $309 forward single #
loop $-1 $310 $311 $122 #
cone-surface $-1 -40.851813369587703 -7.8519649627129375 5.7176328637357674 0.73135370988377701 0 -0.68199835119979291 0.17049958779994823 0 0.18283842747094425 1 I I -0.70710678118654746 0.70710678118654746 0.25 forward I I I I #
loop $-1 $-1 $312 $85 #
coedge $-1 $196 $196 $313 $314 reversed $123 $-1 #
face $-1 $-1 $315 $67 $-1 $316 forward single #
loop $-1 $317 $318 $125 #
cone-surface $-1 -40.851813369587703 -6.0727367335228024 5.7176328637357674 0.73135370988377701 0 -0.68199835119979291 0.17049958779994823 0 0.18283842747094425 1 I I -0.70710678118654746 0.70710678118654746 0.25 forward I I I I #
loop $-1 $-1 $319 $86 #
coedge $-1 $201 $201 $320 $321 reversed $126 $-1 #
face $-1 $322 $323 $68 $-1 $324 reversed single #
loop $-1 $-1 $325 $128 #
plane-surface $-1 -46.290475173192533 0 1.7182309853131272 -0.73135370988377701 0 0.68199835119979291 0.68199835119979291 0 0.73135370988377701 forward_v I I I I #
coedge $-1 $326 $327 $328 $329 reversed $129 $-1 #
face $-1 $-1 $330 $69 $-1 $331 forward single #
loop $-1 $332 $333 $131 #
cone-surface $-1 -40.851813369587703 -1.7792282291901351 5.7176328637357674 0.73135370988377701 0 -0.68199835119979291 0.17049958779994823 0 0.18283842747094425 1 I I -0.70710678118654746 0.70710678118654746 0.25 forward I I I I #
loop $-1 $-1 $334 $88 #
coedge $-1 $210 $210 $335 $336 reversed $132 $-1 #
face $-1 $-1 $337 $70 $-1 $338 forward single #
loop $-1 $339 $340 $134 #
cone-surface $-1 -40.851813369587703 0 5.7176328637357674 0.73135370988377701 0 -0.68199835119979291 0.17049958779994823 0 0.18283842747094425 1 I I -0.70710678118654746 0.70710678118654746 0.25 forward I I I I #
loop $-1 $-1 $341 $89 #
coedge $-1 $215 $215 $342 $343 reversed $135 $-1 #
face $-1 $-1 $344 $71 $-1 $345 forward single #
loop $-1 $346 $347 $137 #
cone-surface $-1 -40.851813369587703 1.7792282291901351 5.7176328637357674 0.73135370988377701 0 -0.68199835119979291 0.17049958779994823 0 0.18283842747094425 1 I I -0.70710678118654746 0.70710678118654746 0.25 forward I I I I #
loop $-1 $-1 $348 $90 #
coedge $-1 $220 $220 $349 $350 reversed $138 $-1 #
face $-1 $351 $352 $72 $-1 $353 reversed single #
loop $-1 $-1 $354 $140 #
plane-surface $-1 -46.290475173192533 7.8519649627129375 1.7182309853131272 -0.73135370988377701 0 0.68199835119979291 0.68199835119979291 0 0.73135370988377701 forward_v I I I I #
coedge $-1 $355 $356 $357 $358 reversed $141 $-1 #
face $-1 $-1 $359 $73 $-1 $360 forward single #
loop $-1 $361 $362 $143 #
cone-surface $-1 -40.851813369587703 6.0727367335227989 5.7176328637357674 0.73135370988377701 0 -0.68199835119979291 0.17049958779994823 0 0.18283842747094425 1 I I -0.70710678118654746 0.70710678118654746 0.25 forward I I I I #
loop $-1 $-1 $363 $92 #
coedge $-1 $229 $229 $364 $365 reversed $144 $-1 #
face $-1 $-1 $366 $74 $-1 $367 forward single #
loop $-1 $368 $369 $146 #
cone-surface $-1 -40.851813369587703 7.8519649627129375 5.7176328637357674 0.73135370988377701 0 -0.68199835119979291 0.17049958779994823 0 0.18283842747094425 1 I I -0.70710678118654746 0.70710678118654746 0.25 forward I I I I #
loop $-1 $-1 $370 $93 #
coedge $-1 $234 $234 $371 $372 reversed $147 $-1 #
face $-1 $-1 $373 $75 $-1 $374 forward single #
loop $-1 $375 $376 $149 #
cone-surface $-1 -40.851813369587703 9.6311931919030691 5.7176328637357674 0.73135370988377701 0 -0.68199835119979291 0.17049958779994823 0 0.18283842747094425 1 I I -0.70710678118654746 0.70710678118654746 0.25 forward I I I I #
loop $-1 $-1 $377 $94 #
coedge $-1 $239 $239 $378 $379 reversed $150 $-1 #
face $-1 $380 $381 $57 $-1 $382 reversed single #
loop $-1 $-1 $383 $152 #
plane-surface $-1 0 -28.309280768702902 0 0 1 0 0 0 1 forward_v I I I I #
coedge $-1 $384 $385 $386 $387 forward $153 $-1 #
coedge $-1 $388 $155 $389 $390 forward $96 $-1 #
coedge $-1 $155 $388 $391 $392 forward $96 $-1 #
coedge $-1 $393 $394 $155 $247 reversed $395 $-1 #
edge $-1 $396 -28.309280768702902 $397 28.309280768702902 $246 $398 forward 7 unknown #
face $-1 $399 $400 $58 $-1 $401 forward single #
loop $-1 $-1 $402 $156 #
plane-surface $-1 46.29047517319254 0 0 -1 0 0 0 0 1 forward_v I I I I #
coedge $-1 $403 $404 $405 $406 forward $157 $-1 #
coedge $-1 $405 $159 $402 $407 reversed $99 $-1 #
coedge $-1 $159 $405 $408 $409 reversed $99 $-1 #
coedge $-1 $410 $411 $159 $255 reversed $400 $-1 #
edge $-1 $412 -46.29047517319254 $413 46.29047517319254 $254 $414 forward 7 unknown #
face $-1 $415 $416 $59 $-1 $417 reversed single #
loop $-1 $-1 $418 $160 #
plane-surface $-1 0 35.134044281960286 -7.0840502662769449 0 0 1 1 0 0 forward_v I I I I #
coedge $-1 $419 $420 $260 $421 forward $161 $-1 #
coedge $-1 $422 $163 $259 $421 reversed $102 $-1 #
coedge $-1 $163 $422 $423 $424 reversed $102 $-1 #
coedge $-1 $418 $425 $163 $263 reversed $257 $-1 #
edge $-1 $426 -46.29047517319254 $427 46.29047517319254 $262 $428 forward 7 unknown #
face $-1 $429 $430 $60 $-1 $431 forward single #
loop $-1 $-1 $432 $164 #
plane-surface $-1 75.743146673015303 -14.659753742188137 134.62919805291335 0 1 0 0.84804810408105047 0 0.52991925155115449 forward_v I I I I #
coedge $-1 $433 $434 $435 $436 reversed $165 $-1 #
coedge $-1 $269 $167 $437 $438 reversed $105 $-1 #
coedge $-1 $167 $268 $433 $439 reversed $105 $-1 #
coedge $-1 $435 $440 $167 $271 forward $430 $-1 #
edge $-1 $441 -8.4189018366848885 $442 -5.690497447829955 $270 $443 forward 7 unknown #
loop $-1 $-1 $277 $168 #
plane-surface $-1 -2.7699527422584396 -10.333842124828003 85.568770137462366 0.84804810408105047 0 0.52991925155115449 0.52991925155115449 0 -0.84804810408105047 forward_v I I I I #
loop $-1 $-1 $444 $107 #
coedge $-1 $275 $275 $276 $445 reversed $169 $-1 #
coedge $-1 $276 $276 $275 $445 forward $171 $-1 #
coedge $-1 $277 $277 $172 $278 forward $272 $-1 #
edge $-1 $446 0 $446 6.2831853071796004 $277 $447 forward 7 unknown #
loop $-1 $-1 $284 $173 #
plane-surface $-1 -2.7699527422584396 -10.333842124828003 85.568770137462366 0.84804810408105047 0 0.52991925155115449 0.52991925155115449 0 -0.84804810408105047 forward_v I I I I #
loop $-1 $-1 $448 $110 #
coedge $-1 $282 $282 $283 $449 reversed $174 $-1 #
coedge $-1 $283 $283 $282 $449 forward $176 $-1 #
coedge $-1 $284 $284 $177 $285 forward $279 $-1 #
edge $-1 $450 0 $450 6.2831853071796004 $284 $451 forward 7 unknown #
loop $-1 $-1 $291 $178 #
plane-surface $-1 -2.7699527422584396 -10.333842124828003 85.568770137462366 0.84804810408105047 0 0.52991925155115449 0.52991925155115449 0 -0.84804810408105047 forward_v I I I I #
loop $-1 $-1 $452 $113 #
coedge $-1 $289 $289 $290 $453 reversed $179 $-1 #
coedge $-1 $290 $290 $289 $453 forward $181 $-1 #
coedge $-1 $291 $291 $182 $292 forward $286 $-1 #
edge $-1 $454 0 $454 6.2831853071796004 $291 $455 forward 7 unknown #
face $-1 $456 $457 $64 $-1 $458 reversed single #
loop $-1 $-1 $459 $183 #
plane-surface $-1 -113.99989667358702 -4.8865845807293802 64.85828647405765 0 -1 0 0.73135370988377701 0 -0.68199835119979291 forward_v I I I I #
coedge $-1 $460 $461 $462 $463 reversed $184 $-1 #
coedge $-1 $298 $186 $464 $465 reversed $117 $-1 #
coedge $-1 $186 $297 $460 $466 reversed $117 $-1 #
coedge $-1 $462 $467 $186 $300 forward $468 $-1 #
edge $-1 $469 10.709473163600968 $470 19.758412496101215 $299 $471 forward 7 unknown #
loop $-1 $-1 $306 $187 #
plane-surface $-1 -46.290475173192533 -7.8519649627129375 1.7182309853131272 -0.73135370988377701 0 0.68199835119979291 0.68199835119979291 0 0.73135370988377701 forward_v I I I I #
loop $-1 $-1 $472 $119 #
coedge $-1 $304 $304 $305 $473 reversed $188 $-1 #
coedge $-1 $305 $305 $304 $473 forward $190 $-1 #
coedge $-1 $306 $306 $191 $307 forward $301 $-1 #
edge $-1 $474 0 $474 6.2831853071796004 $306 $475 forward 7 unknown #
loop $-1 $-1 $313 $192 #
plane-surface $-1 -46.290475173192533 -7.8519649627129375 1.7182309853131272 -0.73135370988377701 0 0.68199835119979291 0.68199835119979291 0 0.73135370988377701 forward_v I I I I #
loop $-1 $-1 $476 $122 #
coedge $-1 $311 $311 $312 $477 reversed $193 $-1 #
coedge $-1 $312 $312 $311 $477 forward $195 $-1 #
coedge $-1 $313 $313 $196 $314 forward $308 $-1 #
edge $-1 $478 0 $478 6.2831853071796004 $313 $479 forward 7 unknown #
loop $-1 $-1 $320 $197 #
plane-surface $-1 -46.290475173192533 -7.8519649627129375 1.7182309853131272 -0.73135370988377701 0 0.68199835119979291 0.68199835119979291 0 0.73135370988377701 forward_v I I I I #
loop $-1 $-1 $480 $125 #
coedge $-1 $318 $318 $319 $481 reversed $198 $-1 #
coedge $-1 $319 $319 $318 $481 forward $200 $-1 #
coedge $-1 $320 $320 $201 $321 forward $315 $-1 #
edge $-1 $482 0 $482 6.2831853071796004 $320 $483 forward 7 unknown #
face $-1 $484 $485 $68 $-1 $486 forward single #
loop $-1 $-1 $487 $202 #
plane-surface $-1 -113.99989667358702 2.9653803819835574 64.85828647405765 0 -1 0 0.73135370988377701 0 -0.68199835119979291 forward_v I I I I #
coedge $-1 $488 $489 $490 $491 reversed $203 $-1 #
coedge $-1 $327 $205 $492 $493 reversed $129 $-1 #
coedge $-1 $205 $326 $488 $494 reversed $129 $-1 #
coedge $-1 $490 $495 $205 $329 forward $485 $-1 #
edge $-1 $496 10.709473163600968 $497 19.758412496101215 $328 $498 forward 7 unknown #
loop $-1 $-1 $335 $206 #
plane-surface $-1 -46.290475173192533 0 1.7182309853131272 -0.73135370988377701 0 0.68199835119979291 0.68199835119979291 0 0.73135370988377701 forward_v I I I I #
loop $-1 $-1 $499 $131 #
coedge $-1 $333 $333 $334 $500 reversed $207 $-1 #
coedge $-1 $334 $334 $333 $500 forward $209 $-1 #
coedge $-1 $335 $335 $210 $336 forward $330 $-1 #
edge $-1 $501 0 $501 6.2831853071796004 $335 $502 forward 7 unknown #
loop $-1 $-1 $342 $211 #
plane-surface $-1 -46.290475173192533 0 1.7182309853131272 -0.73135370988377701 0 0.68199835119979291 0.68199835119979291 0 0.73135370988377701 forward_v I I I I #
loop $-1 $-1 $503 $134 #
coedge $-1 $340 $340 $341 $504 reversed $212 $-1 #
coedge $-1 $341 $341 $340 $504 forward $214 $-1 #
coedge $-1 $342 $342 $215 $343 forward $337 $-1 #
edge $-1 $505 0 $505 6.2831853071796004 $342 $506 forward 7 unknown #
loop $-1 $-1 $349 $216 #
plane-surface $-1 -46.290475173192533 0 1.7182309853131272 -0.73135370988377701 0 0.68199835119979291 0.68199835119979291 0 0.73135370988377701 forward_v I I I I #
loop $-1 $-1 $507 $137 #
coedge $-1 $347 $347 $348 $508 reversed $217 $-1 #
coedge $-1 $348 $348 $347 $508 forward $219 $-1 #
coedge $-1 $349 $349 $220 $350 forward $344 $-1 #
edge $-1 $509 0 $509 6.2831853071796004 $349 $510 forward 7 unknown #
face $-1 $511 $512 $72 $-1 $513 forward single #
loop $-1 $-1 $514 $221 #
plane-surface $-1 -113.99989667358702 10.817345344696495 64.85828647405765 0 -1 0 0.73135370988377701 0 -0.68199835119979291 forward_v I I I I #
coedge $-1 $515 $516 $517 $518 reversed $222 $-1 #
coedge $-1 $356 $224 $519 $520 reversed $141 $-1 #
coedge $-1 $224 $355 $515 $521 reversed $141 $-1 #
coedge $-1 $517 $522 $224 $358 forward $512 $-1 #
edge $-1 $523 10.709473163600968 $524 19.758412496101215 $357 $525 forward 7 unknown #
loop $-1 $-1 $364 $225 #
plane-surface $-1 -46.290475173192533 7.8519649627129375 1.7182309853131272 -0.73135370988377701 0 0.68199835119979291 0.68199835119979291 0 0.73135370988377701 forward_v I I I I #
loop $-1 $-1 $526 $143 #
coedge $-1 $362 $362 $363 $527 reversed $226 $-1 #
coedge $-1 $363 $363 $362 $527 forward $228 $-1 #
coedge $-1 $364 $364 $229 $365 forward $359 $-1 #
edge $-1 $528 0 $528 6.2831853071796004 $364 $529 forward 7 unknown #
loop $-1 $-1 $371 $230 #
plane-surface $-1 -46.290475173192533 7.8519649627129375 1.7182309853131272 -0.73135370988377701 0 0.68199835119979291 0.68199835119979291 0 0.73135370988377701 forward_v I I I I #
loop $-1 $-1 $530 $146 #
coedge $-1 $369 $369 $370 $531 reversed $231 $-1 #
coedge $-1 $370 $370 $369 $531 forward $233 $-1 #
coedge $-1 $371 $371 $234 $372 forward $366 $-1 #
edge $-1 $532 0 $532 6.2831853071796004 $371 $533 forward 7 unknown #
loop $-1 $-1 $378 $235 #
plane-surface $-1 -46.290475173192533 7.8519649627129375 1.7182309853131272 -0.73135370988377701 0 0.68199835119979291 0.68199835119979291 0 0.73135370988377701 forward_v I I I I #
loop $-1 $-1 $534 $149 #
coedge $-1 $376 $376 $377 $535 reversed $236 $-1 #
coedge $-1 $377 $377 $376 $535 forward $238 $-1 #
coedge $-1 $378 $378 $239 $379 forward $373 $-1 #
edge $-1 $536 0 $536 6.2831853071796004 $378 $537 forward 7 unknown #
face $-1 $538 $539 $57 $-1 $540 reversed single #
loop $-1 $-1 $541 $240 #
plane-surface $-1 -46.29047517319254 0 0 1 0 0 0 0 -1 forward_v I I I I #
coedge $-1 $391 $542 $393 $543 reversed $241 $-1 #
coedge $-1 $544 $243 $542 $545 forward $153 $-1 #
coedge $-1 $243 $544 $546 $547 forward $153 $-1 #
coedge $-1 $394 $393 $243 $387 reversed $395 $-1 #
edge $-1 $548 -28.309280768702902 $549 28.309280768702902 $386 $550 forward 7 unknown #
coedge $-1 $245 $244 $551 $552 forward $96 $-1 #
coedge $-1 $553 $554 $244 $390 reversed $539 $-1 #
edge $-1 $397 -46.29047517319254 $555 46.29047517319254 $389 $556 forward 7 unknown #
coedge $-1 $557 $383 $245 $392 reversed $241 $-1 #
edge $-1 $558 -46.29047517319254 $396 46.29047517319254 $391 $559 forward 7 unknown #
coedge $-1 $386 $246 $383 $543 forward $395 $-1 #
coedge $-1 $246 $386 $553 $560 reversed $395 $-1 #
loop $-1 $-1 $393 $538 #
vertex $-1 $247 $561 #
vertex $-1 $247 $562 #
straight-curve $-1 46.29047517319254 0 11.422030620157889 0 1 0 I I #
face $-1 $563 $564 $58 $-1 $565 reversed single #
loop $-1 $-1 $411 $248 #
plane-surface $-1 0 -35.134044281960286 -7.0840502662769449 0 0 1 1 0 0 forward_v I I I I #
coedge $-1 $566 $567 $252 $407 forward $249 $-1 #
coedge $-1 $568 $251 $567 $569 forward $157 $-1 #
coedge $-1 $251 $568 $570 $571 forward $157 $-1 #
coedge $-1 $253 $252 $251 $406 reversed $99 $-1 #
edge $-1 $572 -46.29047517319254 $573 46.29047517319254 $251 $574 forward 7 unknown #
edge $-1 $573 -11.422030620157889 $413 -7.0840502662769449 $402 $575 forward 7 unknown #
coedge $-1 $570 $576 $253 $409 forward $577 $-1 #
edge $-1 $412 7.0840502662769449 $572 11.422030620157889 $408 $578 forward 7 unknown #
coedge $-1 $579 $254 $576 $580 forward $400 $-1 #
coedge $-1 $254 $579 $566 $581 forward $400 $-1 #
vertex $-1 $409 $582 #
vertex $-1 $581 $583 #
straight-curve $-1 0 -28.309280768702902 -7.0840502662769449 1 0 0 I I #
face $-1 $584 $585 $59 $-1 $586 reversed single #
loop $-1 $-1 $587 $256 #
plane-surface $-1 0 41.958807795217666 -9.2530404432174169 0 -1 0 0 0 -1 forward_v I I I I #
coedge $-1 $588 $262 $589 $590 forward $257 $-1 #
coedge $-1 $591 $259 $425 $592 reversed $161 $-1 #
coedge $-1 $259 $591 $593 $594 reversed $161 $-1 #
edge $-1 $595 -11.422030620157889 $427 -7.0840502662769449 $259 $596 forward 7 unknown #
coedge $-1 $261 $260 $597 $598 reversed $102 $-1 #
coedge $-1 $599 $589 $261 $424 forward $600 $-1 #
edge $-1 $426 7.0840502662769449 $601 11.422030620157889 $423 $602 forward 7 unknown #
coedge $-1 $262 $588 $419 $592 forward $257 $-1 #
vertex $-1 $424 $603 #
vertex $-1 $592 $604 #
straight-curve $-1 0 28.309280768702902 -7.0840502662769449 -1 0 0 I I #
face $-1 $-1 $605 $60 $-1 $606 reversed single #
loop $-1 $-1 $270 $264 #
plane-surface $-1 0 0 11.422030620157889 0 0 1 1 0 0 forward_v I I I I #
coedge $-1 $607 $608 $609 $610 reversed $265 $-1 #
coedge $-1 $611 $267 $269 $439 forward $165 $-1 #
coedge $-1 $267 $611 $607 $612 forward $165 $-1 #
coedge $-1 $609 $270 $267 $436 forward $430 $-1 #
edge $-1 $442 0.84100944505386721 $613 9.4928326797741356 $435 $614 forward 7 unknown #
coedge $-1 $615 $616 $268 $438 forward $605 $-1 #
edge $-1 $617 -60.258928304268053 $441 -55.892568406298786 $437 $618 forward 7 unknown #
edge $-1 $442 87.43223310150583 $617 92.58095034638508 $269 $619 forward 7 unknown #
coedge $-1 $270 $609 $615 $620 forward $430 $-1 #
vertex $-1 $438 $621 #
vertex $-1 $271 $622 #
straight-curve $-1 37.871573336507652 -6.0079305074678686 11.422030620157891 -1 0 0 I I #
coedge $-1 $444 $444 $-1 $623 reversed $274 $-1 #
edge $-1 $624 0 $624 6.2831853071796004 $275 $625 forward 7 unknown #
vertex $-1 $278 $626 #
ellipse-curve $-1 44.926272978765063 -12.929389095244083 9.2388506711732603 0.84804810408105047 0 0.52991925155115449 0.26495962577557725 0 -0.42402405204052523 1 I I #
coedge $-1 $448 $448 $-1 $627 reversed $281 $-1 #
edge $-1 $628 0 $628 6.2831853071796004 $282 $629 forward 7 unknown #
vertex $-1 $285 $630 #
ellipse-curve $-1 44.926272978765063 -10.333842124828003 9.2388506711732603 0.84804810408105047 0 0.52991925155115449 0.26495962577557725 0 -0.42402405204052523 1 I I #
coedge $-1 $452 $452 $-1 $631 reversed $288 $-1 #
edge $-1 $632 0 $632 6.2831853071796004 $289 $633 forward 7 unknown #
vertex $-1 $292 $634 #
ellipse-curve $-1 44.926272978765063 -7.7382951544119223 9.2388506711732603 0.84804810408105047 0 0.52991925155115449 0.26495962577557725 0 -0.42402405204052523 1 I I #
face $-1 $-1 $468 $64 $-1 $635 forward single #
loop $-1 $-1 $636 $293 #
plane-surface $-1 -46.29047517319254 0 0 1 0 0 0 0 -1 forward_v I I I I #
coedge $-1 $637 $638 $639 $640 reversed $294 $-1 #
coedge $-1 $641 $296 $298 $466 forward $184 $-1 #
coedge $-1 $296 $641 $637 $642 forward $184 $-1 #
coedge $-1 $639 $299 $296 $463 forward $468 $-1 #
edge $-1 $470 -6.8913628633400261 $643 -0.96060209937291141 $462 $644 forward 7 unknown #
coedge $-1 $645 $646 $297 $465 forward $457 $-1 #
edge $-1 $647 -30.710912251715705 $469 -21.007112616870934 $464 $648 forward 7 unknown #
edge $-1 $470 -13.268271567784677 $647 1.0367256691888158e-014 $298 $649 forward 7 unknown #
coedge $-1 $299 $639 $645 $650 forward $468 $-1 #
loop $-1 $-1 $639 $456 #
vertex $-1 $465 $651 #
vertex $-1 $300 $652 #
straight-curve $-1 -56.999948336793508 -10.817345344696495 11.422030620157891 1 0 0 I I #
coedge $-1 $472 $472 $-1 $653 reversed $303 $-1 #
edge $-1 $654 0 $654 6.2831853071796004 $304 $655 forward 7 unknown #
vertex $-1 $307 $656 #
ellipse-curve $-1 -41.76600550694242 -9.6311931919030727 6.570130802735501 -0.73135370988377701 0 0.68199835119979291 0.34099917559989645 0 0.36567685494188851 1 I I #
coedge $-1 $476 $476 $-1 $657 reversed $310 $-1 #
edge $-1 $658 0 $658 6.2831853071796004 $311 $659 forward 7 unknown #
vertex $-1 $314 $660 #
ellipse-curve $-1 -41.76600550694242 -7.8519649627129375 6.570130802735501 -0.73135370988377701 0 0.68199835119979291 0.34099917559989645 0 0.36567685494188851 1 I I #
coedge $-1 $480 $480 $-1 $661 reversed $317 $-1 #
edge $-1 $662 0 $662 6.2831853071796004 $318 $663 forward 7 unknown #
vertex $-1 $321 $664 #
ellipse-curve $-1 -41.76600550694242 -6.0727367335228024 6.570130802735501 -0.73135370988377701 0 0.68199835119979291 0.34099917559989645 0 0.36567685494188851 1 I I #
face $-1 $-1 $665 $68 $-1 $666 reversed single #
loop $-1 $-1 $328 $322 #
plane-surface $-1 0 0 11.422030620157889 0 0 1 1 0 0 forward_v I I I I #
coedge $-1 $667 $668 $669 $670 reversed $323 $-1 #
coedge $-1 $671 $325 $327 $494 forward $203 $-1 #
coedge $-1 $325 $671 $667 $672 forward $203 $-1 #
coedge $-1 $669 $328 $325 $491 forward $485 $-1 #
edge $-1 $497 -2.9653803819835574 $673 2.9653803819835574 $490 $674 forward 7 unknown #
coedge $-1 $675 $676 $326 $493 forward $665 $-1 #
edge $-1 $677 -30.710912251715705 $496 -21.007112616870934 $492 $678 forward 7 unknown #
edge $-1 $497 -13.268271567784677 $677 1.0367256691888158e-014 $327 $679 forward 7 unknown #
coedge $-1 $328 $669 $675 $680 forward $485 $-1 #
vertex $-1 $329 $681 #
vertex $-1 $329 $682 #
straight-curve $-1 -56.999948336793508 -2.9653803819835574 11.422030620157891 1 0 0 I I #
coedge $-1 $499 $499 $-1 $683 reversed $332 $-1 #
edge $-1 $684 0 $684 6.2831853071796004 $333 $685 forward 7 unknown #
vertex $-1 $336 $686 #
ellipse-curve $-1 -41.76600550694242 -1.7792282291901351 6.570130802735501 -0.73135370988377701 0 0.68199835119979291 0.34099917559989645 0 0.36567685494188851 1 I I #
coedge $-1 $503 $503 $-1 $687 reversed $339 $-1 #
edge $-1 $688 0 $688 6.2831853071796004 $340 $689 forward 7 unknown #
vertex $-1 $343 $690 #
ellipse-curve $-1 -41.76600550694242 0 6.570130802735501 -0.73135370988377701 0 0.68199835119979291 0.34099917559989645 0 0.36567685494188851 1 I I #
coedge $-1 $507 $507 $-1 $691 reversed $346 $-1 #
edge $-1 $692 0 $692 6.2831853071796004 $347 $693 forward 7 unknown #
vertex $-1 $350 $694 #
ellipse-curve $-1 -41.76600550694242 1.7792282291901351 6.570130802735501 -0.73135370988377701 0 0.68199835119979291 0.34099917559989645 0 0.36567685494188851 1 I I #
face $-1 $-1 $695 $72 $-1 $696 reversed single #
loop $-1 $-1 $357 $351 #
plane-surface $-1 0 0 11.422030620157889 0 0 1 1 0 0 forward_v I I I I #
coedge $-1 $697 $698 $699 $700 reversed $352 $-1 #
coedge $-1 $701 $354 $356 $521 forward $222 $-1 #
coedge $-1 $354 $701 $697 $702 forward $222 $-1 #
coedge $-1 $699 $357 $354 $518 forward $512 $-1 #
edge $-1 $524 0.96060209937291141 $703 6.8913628633400261 $517 $704 forward 7 unknown #
coedge $-1 $705 $706 $355 $520 forward $695 $-1 #
edge $-1 $707 -30.710912251715705 $523 -21.007112616870934 $519 $708 forward 7 unknown #
edge $-1 $524 -13.268271567784677 $707 1.0367256691888158e-014 $356 $709 forward 7 unknown #
coedge $-1 $357 $699 $705 $710 forward $512 $-1 #
vertex $-1 $358 $711 #
vertex $-1 $358 $712 #
straight-curve $-1 -56.999948336793508 4.8865845807293802 11.422030620157891 1 0 0 I I #
coedge $-1 $526 $526 $-1 $713 reversed $361 $-1 #
edge $-1 $714 0 $714 6.2831853071796004 $362 $715 forward 7 unknown #
vertex $-1 $365 $716 #
ellipse-curve $-1 -41.76600550694242 6.0727367335227989 6.570130802735501 -0.73135370988377701 0 0.68199835119979291 0.34099917559989645 0 0.36567685494188851 1 I I #
coedge $-1 $530 $530 $-1 $717 reversed $368 $-1 #
edge $-1 $718 0 $718 6.2831853071796004 $369 $719 forward 7 unknown #
vertex $-1 $372 $720 #
ellipse-curve $-1 -41.76600550694242 7.8519649627129375 6.570130802735501 -0.73135370988377701 0 0.68199835119979291 0.34099917559989645 0 0.36567685494188851 1 I I #
coedge $-1 $534 $534 $-1 $721 reversed $375 $-1 #
edge $-1 $722 0 $722 6.2831853071796004 $376 $723 forward 7 unknown #
vertex $-1 $379 $724 #
ellipse-curve $-1 -41.76600550694242 9.6311931919030691 6.570130802735501 -0.73135370988377701 0 0.68199835119979291 0.34099917559989645 0 0.36567685494188851 1 I I #
face $-1 $-1 $395 $57 $-1 $725 reversed single #
loop $-1 $-1 $554 $380 #
plane-surface $-1 0 28.309280768702902 0 0 -1 0 0 0 -1 forward_v I I I I #
coedge $-1 $726 $551 $554 $727 forward $381 $-1 #
coedge $-1 $383 $557 $384 $545 reversed $241 $-1 #
edge $-1 $396 -11.422030620157889 $549 11.422030620157889 $393 $728 forward 7 unknown #
coedge $-1 $385 $384 $726 $729 forward $153 $-1 #
edge $-1 $549 -46.29047517319254 $730 46.29047517319254 $542 $731 forward 7 unknown #
coedge $-1 $554 $553 $385 $547 reversed $539 $-1 #
edge $-1 $732 -46.29047517319254 $548 46.29047517319254 $546 $733 forward 7 unknown #
vertex $-1 $387 $734 #
vertex $-1 $543 $735 #
straight-curve $-1 46.29047517319254 0 -11.422030620157889 0 -1 0 I I #
coedge $-1 $541 $736 $388 $552 reversed $381 $-1 #
edge $-1 $555 -28.309280768702902 $558 28.309280768702902 $551 $737 forward 7 unknown #
coedge $-1 $546 $389 $394 $560 forward $539 $-1 #
coedge $-1 $389 $546 $541 $727 reversed $539 $-1 #
vertex $-1 $390 $738 #
straight-curve $-1 0 28.309280768702902 11.422030620157889 -1 0 0 I I #
coedge $-1 $542 $391 $736 $739 forward $241 $-1 #
vertex $-1 $552 $740 #
straight-curve $-1 0 -28.309280768702902 11.422030620157889 1 0 0 I I #
edge $-1 $397 -11.422030620157889 $548 11.422030620157889 $394 $741 forward 7 unknown #
point $-1 46.29047517319254 -28.309280768702902 11.422030620157889 #
point $-1 46.29047517319254 28.309280768702902 11.422030620157889 #
face $-1 $-1 $577 $58 $-1 $742 reversed single #
loop $-1 $-1 $743 $399 #
plane-surface $-1 0 -41.958807795217666 -9.2530404432174169 0 1 0 0 0 1 forward_v I I I I #
coedge $-1 $744 $402 $411 $581 reversed $249 $-1 #
coedge $-1 $402 $744 $403 $569 reversed $249 $-1 #
coedge $-1 $404 $403 $745 $746 forward $157 $-1 #
edge $-1 $573 28.309280768702902 $747 41.958807795217666 $567 $748 forward 7 unknown #
coedge $-1 $749 $408 $404 $571 reversed $577 $-1 #
edge $-1 $750 -41.958807795217666 $572 -28.309280768702902 $570 $751 forward 7 unknown #
vertex $-1 $409 $752 #
vertex $-1 $569 $753 #
straight-curve $-1 0 -28.309280768702902 -11.422030620157889 1 0 0 I I #
straight-curve $-1 46.29047517319254 -28.309280768702902 0 0 0 1 I I #
coedge $-1 $408 $749 $410 $580 reversed $577 $-1 #
loop $-1 $-1 $408 $563 #
straight-curve $-1 -46.29047517319254 -28.309280768702902 0 0 0 -1 I I #
coedge $-1 $411 $410 $754 $755 forward $400 $-1 #
edge $-1 $412 -6.8247635132573805 $756 6.8247635132573805 $576 $757 forward 7 unknown #
edge $-1 $758 -6.8247635132573805 $413 6.8247635132573805 $566 $759 forward 7 unknown #
point $-1 -46.29047517319254 -28.309280768702905 -7.0840502662769449 #
point $-1 46.29047517319254 -28.309280768702905 -7.0840502662769449 #
face $-1 $-1 $600 $59 $-1 $760 reversed single #
loop $-1 $-1 $597 $415 #
plane-surface $-1 0 0 -11.422030620157889 0 0 1 1 0 0 forward_v I I I I #
coedge $-1 $761 $762 $763 $764 forward $416 $-1 #
coedge $-1 $425 $418 $762 $765 forward $257 $-1 #
coedge $-1 $423 $763 $418 $590 reversed $600 $-1 #
edge $-1 $426 -6.8247635132573841 $766 6.8247635132573805 $589 $767 forward 7 unknown #
coedge $-1 $420 $419 $768 $769 forward $161 $-1 #
edge $-1 $770 -6.8247635132573805 $427 6.8247635132573841 $419 $771 forward 7 unknown #
coedge $-1 $772 $597 $420 $594 forward $585 $-1 #
edge $-1 $595 -6.8247635132573841 $773 6.8247635132573805 $420 $774 forward 7 unknown #
vertex $-1 $594 $775 #
straight-curve $-1 -46.29047517319254 28.309280768702902 0 0 0 1 I I #
coedge $-1 $593 $776 $422 $598 forward $585 $-1 #
edge $-1 $601 -46.29047517319254 $595 46.29047517319254 $597 $777 forward 7 unknown #
coedge $-1 $763 $423 $776 $778 reversed $600 $-1 #
loop $-1 $-1 $423 $584 #
vertex $-1 $424 $779 #
straight-curve $-1 46.29047517319254 28.309280768702902 0 0 0 -1 I I #
point $-1 46.29047517319254 28.309280768702902 -7.0840502662769449 #
point $-1 -46.29047517319254 28.309280768702902 -7.0840502662769449 #
loop $-1 $-1 $437 $429 #
plane-surface $-1 46.29047517319254 0 0 -1 0 0 0 0 1 forward_v I I I I #
coedge $-1 $608 $432 $434 $612 reversed $265 $-1 #
coedge $-1 $432 $607 $780 $781 reversed $265 $-1 #
coedge $-1 $440 $435 $432 $610 forward $430 $-1 #
edge $-1 $613 5.690497447829955 $782 8.4189018366848885 $609 $783 forward 7 unknown #
coedge $-1 $434 $433 $616 $784 reversed $165 $-1 #
edge $-1 $785 -92.58095034638508 $613 -87.43223310150583 $607 $786 forward 7 unknown #
vertex $-1 $436 $787 #
straight-curve $-1 43.5620707843376 -5.1669210624140014 11.422030620157891 0 -1 0 I I #
coedge $-1 $780 $437 $440 $620 reversed $605 $-1 #
coedge $-1 $437 $780 $611 $784 forward $605 $-1 #
vertex $-1 $438 $788 #
straight-curve $-1 46.29047517319254 -6.0079305074678686 67.314599026456676 0 0 1 I I #
straight-curve $-1 -2.7699527422584396 -6.0079305074678686 85.568770137462366 0.52991925155115449 0 -0.84804810408105047 I I #
edge $-1 $782 -14.659753742188137 $441 -6.0079305074678686 $615 $789 forward 7 unknown #
point $-1 46.29047517319254 -6.0079305074678686 11.422030620157889 #
point $-1 43.562070784337607 -6.0079305074678686 11.422030620157884 #
edge $-1 $790 1 $790 0 $444 $-1 forward 7 unknown #
vertex $-1 $445 $791 #
ellipse-curve $-1 43.288487033321381 -12.929389095244083 8.2154484629330007 0.84804810408105047 0 0.52991925155115449 0.26495962577557725 0 -0.42402405204052523 1 I I #
point $-1 45.191232604540637 -12.929389095244083 8.8148266191327345 #
edge $-1 $792 1 $792 0 $448 $-1 forward 7 unknown #
vertex $-1 $449 $793 #
ellipse-curve $-1 43.288487033321381 -10.333842124828003 8.2154484629330007 0.84804810408105047 0 0.52991925155115449 0.26495962577557725 0 -0.42402405204052523 1 I I #
point $-1 45.191232604540637 -10.333842124828003 8.8148266191327345 #
edge $-1 $794 1 $794 0 $452 $-1 forward 7 unknown #
vertex $-1 $453 $795 #
ellipse-curve $-1 43.288487033321381 -7.7382951544119223 8.2154484629330007 0.84804810408105047 0 0.52991925155115449 0.26495962577557725 0 -0.42402405204052523 1 I I #
point $-1 45.191232604540637 -7.7382951544119223 8.8148266191327345 #
plane-surface $-1 0 0 11.422030620157889 0 0 1 1 0 0 forward_v I I I I #
coedge $-1 $646 $645 $638 $796 forward $457 $-1 #
coedge $-1 $638 $459 $461 $642 reversed $294 $-1 #
coedge $-1 $459 $637 $636 $796 reversed $294 $-1 #
coedge $-1 $467 $462 $459 $640 forward $468 $-1 #
edge $-1 $643 -19.758412496101215 $797 -10.709473163600968 $639 $798 forward 7 unknown #
coedge $-1 $461 $460 $646 $799 reversed $184 $-1 #
edge $-1 $800 -1.0367256691888158e-014 $643 13.268271567784677 $637 $801 forward 7 unknown #
vertex $-1 $463 $802 #
straight-curve $-1 -37.241535840692293 -3.9259824813564688 11.422030620157889 0 1 0 I I #
coedge $-1 $636 $464 $467 $650 reversed $457 $-1 #
coedge $-1 $464 $636 $641 $799 forward $457 $-1 #
vertex $-1 $465 $803 #
straight-curve $-1 -46.29047517319254 -10.817345344696495 32.429143237028825 0 0 1 I I #
straight-curve $-1 -46.290475173192533 -10.817345344696495 1.7182309853131272 -0.68199835119979291 0 -0.73135370988377701 I I #
edge $-1 $797 4.8865845807293802 $469 10.817345344696495 $645 $804 forward 7 unknown #
point $-1 -46.29047517319254 -10.817345344696495 11.422030620157889 #
point $-1 -37.241535840692293 -10.817345344696495 11.422030620157889 #
edge $-1 $805 1 $805 0 $472 $-1 forward 7 unknown #
vertex $-1 $473 $806 #
ellipse-curve $-1 -41.034651797058643 -9.6311931919030727 5.8881324515357161 -0.73135370988377701 0 0.68199835119979291 0.34099917559989645 0 0.36567685494188851 1 I I #
point $-1 -41.42500633134253 -9.6311931919030727 6.9358076576773975 #
edge $-1 $807 1 $807 0 $476 $-1 forward 7 unknown #
vertex $-1 $477 $808 #
ellipse-curve $-1 -41.034651797058643 -7.8519649627129375 5.8881324515357161 -0.73135370988377701 0 0.68199835119979291 0.34099917559989645 0 0.36567685494188851 1 I I #
point $-1 -41.42500633134253 -7.8519649627129375 6.9358076576773975 #
edge $-1 $809 1 $809 0 $480 $-1 forward 7 unknown #
vertex $-1 $481 $810 #
ellipse-curve $-1 -41.034651797058643 -6.0727367335228024 5.8881324515357161 -0.73135370988377701 0 0.68199835119979291 0.34099917559989645 0 0.36567685494188851 1 I I #
point $-1 -41.42500633134253 -6.0727367335228024 6.9358076576773975 #
loop $-1 $-1 $492 $484 #
plane-surface $-1 -46.29047517319254 0 0 1 0 0 0 0 -1 forward_v I I I I #
coedge $-1 $668 $487 $489 $672 reversed $323 $-1 #
coedge $-1 $487 $667 $811 $812 reversed $323 $-1 #
coedge $-1 $495 $490 $487 $670 forward $485 $-1 #
edge $-1 $673 -19.758412496101215 $813 -10.709473163600968 $669 $814 forward 7 unknown #
coedge $-1 $489 $488 $676 $815 reversed $203 $-1 #
edge $-1 $816 -1.0367256691888158e-014 $673 13.268271567784677 $667 $817 forward 7 unknown #
vertex $-1 $491 $818 #
straight-curve $-1 -37.241535840692293 0 11.422030620157889 0 1 0 I I #
coedge $-1 $811 $492 $495 $680 reversed $665 $-1 #
coedge $-1 $492 $811 $671 $815 forward $665 $-1 #
vertex $-1 $493 $819 #
straight-curve $-1 -46.29047517319254 -2.9653803819835574 32.429143237028825 0 0 1 I I #
straight-curve $-1 -46.290475173192533 -2.9653803819835574 1.7182309853131272 -0.68199835119979291 0 -0.73135370988377701 I I #
edge $-1 $813 -2.9653803819835574 $496 2.9653803819835574 $675 $820 forward 7 unknown #
point $-1 -46.29047517319254 -2.9653803819835574 11.422030620157889 #
point $-1 -37.241535840692293 -2.9653803819835574 11.422030620157889 #
edge $-1 $821 1 $821 0 $499 $-1 forward 7 unknown #
vertex $-1 $500 $822 #
ellipse-curve $-1 -41.034651797058643 -1.7792282291901351 5.8881324515357161 -0.73135370988377701 0 0.68199835119979291 0.34099917559989645 0 0.36567685494188851 1 I I #
point $-1 -41.42500633134253 -1.7792282291901351 6.9358076576773975 #
edge $-1 $823 1 $823 0 $503 $-1 forward 7 unknown #
vertex $-1 $504 $824 #
ellipse-curve $-1 -41.034651797058643 0 5.8881324515357161 -0.73135370988377701 0 0.68199835119979291 0.34099917559989645 0 0.36567685494188851 1 I I #
point $-1 -41.42500633134253 0 6.9358076576773975 #
edge $-1 $825 1 $825 0 $507 $-1 forward 7 unknown #
vertex $-1 $508 $826 #
ellipse-curve $-1 -41.034651797058643 1.7792282291901351 5.8881324515357161 -0.73135370988377701 0 0.68199835119979291 0.34099917559989645 0 0.36567685494188851 1 I I #
point $-1 -41.42500633134253 1.7792282291901351 6.9358076576773975 #
loop $-1 $-1 $519 $511 #
plane-surface $-1 -46.29047517319254 0 0 1 0 0 0 0 -1 forward_v I I I I #
coedge $-1 $698 $514 $516 $702 reversed $352 $-1 #
coedge $-1 $514 $697 $827 $828 reversed $352 $-1 #
coedge $-1 $522 $517 $514 $700 forward $512 $-1 #
edge $-1 $703 -19.758412496101215 $829 -10.709473163600968 $699 $830 forward 7 unknown #
coedge $-1 $516 $515 $706 $831 reversed $222 $-1 #
edge $-1 $832 -1.0367256691888158e-014 $703 13.268271567784677 $697 $833 forward 7 unknown #
vertex $-1 $518 $834 #
straight-curve $-1 -37.241535840692293 3.9259824813564688 11.422030620157889 0 1 0 I I #
coedge $-1 $827 $519 $522 $710 reversed $695 $-1 #
coedge $-1 $519 $827 $701 $831 forward $695 $-1 #
vertex $-1 $520 $835 #
straight-curve $-1 -46.29047517319254 4.8865845807293802 32.429143237028825 0 0 1 I I #
straight-curve $-1 -46.290475173192533 4.8865845807293802 1.7182309853131272 -0.68199835119979291 0 -0.73135370988377701 I I #
edge $-1 $829 -10.817345344696495 $523 -4.8865845807293802 $705 $836 forward 7 unknown #
point $-1 -46.29047517319254 4.8865845807293802 11.422030620157889 #
point $-1 -37.241535840692293 4.8865845807293802 11.422030620157889 #
edge $-1 $837 1 $837 0 $526 $-1 forward 7 unknown #
vertex $-1 $527 $838 #
ellipse-curve $-1 -41.034651797058643 6.0727367335227989 5.8881324515357161 -0.73135370988377701 0 0.68199835119979291 0.34099917559989645 0 0.36567685494188851 1 I I #
point $-1 -41.42500633134253 6.0727367335227989 6.9358076576773975 #
edge $-1 $839 1 $839 0 $530 $-1 forward 7 unknown #
vertex $-1 $531 $840 #
ellipse-curve $-1 -41.034651797058643 7.8519649627129375 5.8881324515357161 -0.73135370988377701 0 0.68199835119979291 0.34099917559989645 0 0.36567685494188851 1 I I #
point $-1 -41.42500633134253 7.8519649627129375 6.9358076576773975 #
edge $-1 $841 1 $841 0 $534 $-1 forward 7 unknown #
vertex $-1 $535 $842 #
ellipse-curve $-1 -41.034651797058643 9.6311931919030691 5.8881324515357161 -0.73135370988377701 0 0.68199835119979291 0.34099917559989645 0 0.36567685494188851 1 I I #
point $-1 -41.42500633134253 9.6311931919030691 6.9358076576773975 #
plane-surface $-1 46.29047517319254 0 0 -1 0 0 0 0 1 forward_v I I I I #
coedge $-1 $736 $541 $544 $729 reversed $381 $-1 #
edge $-1 $555 -11.422030620157889 $732 11.422030620157889 $554 $843 forward 7 unknown #
straight-curve $-1 46.29047517319254 -28.309280768702902 0 0 0 -1 I I #
edge $-1 $730 -28.309280768702902 $732 28.309280768702902 $726 $844 forward 7 unknown #
vertex $-1 $729 $845 #
straight-curve $-1 0 -28.309280768702902 -11.422030620157889 -1 0 0 I I #
vertex $-1 $547 $846 #
straight-curve $-1 0 28.309280768702902 -11.422030620157889 1 0 0 I I #
point $-1 46.29047517319254 28.309280768702902 -11.422030620157889 #
point $-1 46.29047517319254 -28.309280768702902 -11.422030620157889 #
coedge $-1 $551 $726 $557 $739 reversed $381 $-1 #
straight-curve $-1 -46.29047517319254 0 11.422030620157889 0 -1 0 I I #
point $-1 -46.29047517319254 28.309280768702902 11.422030620157889 #
edge $-1 $558 -11.422030620157889 $730 11.422030620157889 $736 $847 forward 7 unknown #
point $-1 -46.29047517319254 -28.309280768702902 11.422030620157889 #
straight-curve $-1 46.29047517319254 28.309280768702902 0 0 0 -1 I I #
plane-surface $-1 -46.29047517319254 0 0 1 0 0 0 0 -1 forward_v I I I I #
coedge $-1 $745 $754 $749 $848 forward $564 $-1 #
coedge $-1 $567 $566 $849 $850 forward $249 $-1 #
coedge $-1 $849 $743 $568 $746 reversed $564 $-1 #
edge $-1 $747 -46.29047517319254 $750 46.29047517319254 $745 $851 forward 7 unknown #
vertex $-1 $850 $852 #
straight-curve $-1 46.29047517319254 0 -11.422030620157889 0 -1 0 I I #
coedge $-1 $576 $570 $743 $848 reversed $577 $-1 #
vertex $-1 $571 $853 #
straight-curve $-1 -46.29047517319254 0 -11.422030620157889 0 1 0 I I #
point $-1 -46.29047517319254 -28.309280768702902 -11.422030620157889 #
point $-1 46.29047517319254 -28.309280768702902 -11.422030620157889 #
coedge $-1 $743 $849 $579 $755 reversed $564 $-1 #
edge $-1 $756 -46.29047517319254 $758 46.29047517319254 $754 $854 forward 7 unknown #
vertex $-1 $580 $855 #
straight-curve $-1 -46.29047517319254 -35.134044281960286 -7.0840502662769449 0 -1 0 I I #
vertex $-1 $581 $856 #
straight-curve $-1 46.29047517319254 -35.134044281960286 -7.0840502662769449 0 1 0 I I #
plane-surface $-1 46.29047517319254 0 0 -1 0 0 0 0 1 forward_v I I I I #
coedge $-1 $768 $587 $772 $857 reversed $416 $-1 #
coedge $-1 $587 $768 $588 $765 reversed $416 $-1 #
coedge $-1 $589 $599 $587 $764 reversed $600 $-1 #
edge $-1 $766 -2.168990176940472 $858 2.168990176940472 $763 $859 forward 7 unknown #
edge $-1 $766 -46.29047517319254 $770 46.29047517319254 $762 $860 forward 7 unknown #
vertex $-1 $590 $861 #
straight-curve $-1 46.29047517319254 35.134044281960286 -7.0840502662769449 0 1 0 I I #
coedge $-1 $762 $761 $591 $769 reversed $416 $-1 #
edge $-1 $770 -2.168990176940472 $773 2.168990176940472 $768 $862 forward 7 unknown #
vertex $-1 $765 $863 #
straight-curve $-1 -46.29047517319254 35.134044281960286 -7.0840502662769449 0 -1 0 I I #
coedge $-1 $776 $593 $761 $857 forward $585 $-1 #
vertex $-1 $857 $864 #
straight-curve $-1 -46.29047517319254 35.134044281960286 -11.422030620157889 0 1 0 I I #
point $-1 -46.29047517319254 28.309280768702902 -11.422030620157889 #
coedge $-1 $597 $772 $599 $778 forward $585 $-1 #
straight-curve $-1 0 28.309280768702902 -11.422030620157889 -1 0 0 I I #
edge $-1 $858 -41.958807795217666 $601 -28.309280768702902 $599 $865 forward 7 unknown #
point $-1 46.29047517319254 28.309280768702902 -11.422030620157889 #
coedge $-1 $616 $615 $608 $781 forward $605 $-1 #
edge $-1 $782 55.892568406298786 $785 60.258928304268053 $780 $866 forward 7 unknown #
vertex $-1 $620 $867 #
straight-curve $-1 37.871573336507652 -14.659753742188137 11.422030620157891 1 0 0 I I #
edge $-1 $785 -9.4928326797741356 $617 -0.84100944505386721 $616 $868 forward 7 unknown #
vertex $-1 $784 $869 #
straight-curve $-1 -2.7699527422584396 -14.659753742188137 85.568770137462366 -0.52991925155115449 0 0.84804810408105047 I I #
point $-1 43.562070784337607 -14.659753742188137 11.422030620157884 #
point $-1 46.29047517319254 -6.0079305074678686 7.0556707221886228 #
straight-curve $-1 46.29047517319254 0 11.422030620157889 0 1 0 I I #
vertex $-1 $623 $870 #
point $-1 43.553446659096963 -12.929389095244083 7.7914244108924757 #
vertex $-1 $627 $871 #
point $-1 43.553446659096963 -10.333842124828003 7.7914244108924757 #
vertex $-1 $631 $872 #
point $-1 43.553446659096963 -7.7382951544119223 7.7914244108924757 #
edge $-1 $797 21.007112616870934 $800 30.710912251715705 $636 $873 forward 7 unknown #
vertex $-1 $650 $874 #
straight-curve $-1 -56.999948336793508 -4.8865845807293802 11.422030620157891 -1 0 0 I I #
edge $-1 $800 0.96060209937291141 $647 6.8913628633400261 $646 $875 forward 7 unknown #
vertex $-1 $799 $876 #
straight-curve $-1 -46.290475173192533 -4.8865845807293802 1.7182309853131272 0.68199835119979291 0 0.73135370988377701 I I #
point $-1 -37.241535840692293 -4.8865845807293802 11.422030620157889 #
point $-1 -46.29047517319254 -10.817345344696495 1.7182309853131197 #
straight-curve $-1 -46.29047517319254 0 11.422030620157889 0 -1 0 I I #
vertex $-1 $653 $877 #
point $-1 -40.693652621458753 -9.6311931919030727 6.2538093064776046 #
vertex $-1 $657 $878 #
point $-1 -40.693652621458753 -7.8519649627129375 6.2538093064776046 #
vertex $-1 $661 $879 #
point $-1 -40.693652621458753 -6.0727367335228024 6.2538093064776046 #
coedge $-1 $676 $675 $668 $812 forward $665 $-1 #
edge $-1 $813 21.007112616870934 $816 30.710912251715705 $811 $880 forward 7 unknown #
vertex $-1 $680 $881 #
straight-curve $-1 -56.999948336793508 2.9653803819835574 11.422030620157891 -1 0 0 I I #
edge $-1 $816 -2.9653803819835574 $677 2.9653803819835574 $676 $882 forward 7 unknown #
vertex $-1 $815 $883 #
straight-curve $-1 -46.290475173192533 2.9653803819835574 1.7182309853131272 0.68199835119979291 0 0.73135370988377701 I I #
point $-1 -37.241535840692293 2.9653803819835574 11.422030620157889 #
point $-1 -46.29047517319254 -2.9653803819835574 1.7182309853131197 #
straight-curve $-1 -46.29047517319254 0 11.422030620157889 0 -1 0 I I #
vertex $-1 $683 $884 #
point $-1 -40.693652621458753 -1.7792282291901351 6.2538093064776046 #
vertex $-1 $687 $885 #
point $-1 -40.693652621458753 0 6.2538093064776046 #
vertex $-1 $691 $886 #
point $-1 -40.693652621458753 1.7792282291901351 6.2538093064776046 #
coedge $-1 $706 $705 $698 $828 forward $695 $-1 #
edge $-1 $829 21.007112616870934 $832 30.710912251715705 $827 $887 forward 7 unknown #
vertex $-1 $710 $888 #
straight-curve $-1 -56.999948336793508 10.817345344696495 11.422030620157891 -1 0 0 I I #
edge $-1 $832 -6.8913628633400261 $707 -0.96060209937291141 $706 $889 forward 7 unknown #
vertex $-1 $831 $890 #
straight-curve $-1 -46.290475173192533 10.817345344696495 1.7182309853131272 0.68199835119979291 0 0.73135370988377701 I I #
point $-1 -37.241535840692293 10.817345344696495 11.422030620157889 #
point $-1 -46.29047517319254 4.8865845807293802 1.7182309853131197 #
straight-curve $-1 -46.29047517319254 0 11.422030620157889 0 -1 0 I I #
vertex $-1 $713 $891 #
point $-1 -40.693652621458753 6.0727367335227989 6.2538093064776046 #
vertex $-1 $717 $892 #
point $-1 -40.693652621458753 7.8519649627129375 6.2538093064776046 #
vertex $-1 $721 $893 #
point $-1 -40.693652621458753 9.6311931919030691 6.2538093064776046 #
straight-curve $-1 -46.29047517319254 28.309280768702902 0 0 0 -1 I I #
straight-curve $-1 -46.29047517319254 0 -11.422030620157889 0 1 0 I I #
point $-1 -46.29047517319254 -28.309280768702902 -11.422030620157889 #
point $-1 -46.29047517319254 28.309280768702902 -11.422030620157889 #
straight-curve $-1 -46.29047517319254 -28.309280768702902 0 0 0 -1 I I #
edge $-1 $756 -2.168990176940472 $750 2.168990176940472 $749 $894 forward 7 unknown #
coedge $-1 $754 $745 $744 $850 reversed $564 $-1 #
edge $-1 $758 -2.168990176940472 $747 2.168990176940472 $744 $895 forward 7 unknown #
straight-curve $-1 0 -41.958807795217666 -11.422030620157889 -1 0 0 I I #
point $-1 46.29047517319254 -41.958807795217666 -11.422030620157889 #
point $-1 -46.29047517319254 -41.958807795217666 -11.422030620157889 #
straight-curve $-1 0 -41.958807795217666 -7.0840502662769449 1 0 0 I I #
point $-1 -46.29047517319254 -41.958807795217666 -7.0840502662769449 #
point $-1 46.29047517319254 -41.958807795217666 -7.0840502662769449 #
edge $-1 $773 -46.29047517319254 $858 46.29047517319254 $761 $896 forward 7 unknown #
vertex $-1 $778 $897 #
straight-curve $-1 46.29047517319254 41.958807795217666 -9.2530404432174169 0 0 -1 I I #
straight-curve $-1 0 41.958807795217666 -7.0840502662769449 -1 0 0 I I #
point $-1 46.29047517319254 41.958807795217666 -7.0840502662769449 #
straight-curve $-1 -46.29047517319254 41.958807795217666 -9.2530404432174169 0 0 -1 I I #
point $-1 -46.29047517319254 41.958807795217666 -7.0840502662769449 #
point $-1 -46.29047517319254 41.958807795217666 -11.422030620157889 #
straight-curve $-1 46.29047517319254 0 -11.422030620157889 0 -1 0 I I #
straight-curve $-1 46.29047517319254 -14.659753742188137 67.314599026456676 0 0 -1 I I #
point $-1 46.29047517319254 -14.659753742188137 11.422030620157889 #
straight-curve $-1 46.290475173192533 -5.1669210624140014 7.0556707221886299 0 1 0 I I #
point $-1 46.29047517319254 -14.659753742188137 7.0556707221886228 #
point $-1 42.864462981280859 -12.929389095244083 7.9504888371574216 #
point $-1 42.864462981280859 -10.333842124828003 7.9504888371574216 #
point $-1 42.864462981280859 -7.7382951544119223 7.9504888371574216 #
straight-curve $-1 -46.29047517319254 -4.8865845807293802 32.429143237028825 0 0 -1 I I #
point $-1 -46.29047517319254 -4.8865845807293802 11.422030620157889 #
straight-curve $-1 -46.29047517319254 -3.9259824813564688 1.718230985313117 0 -1 0 I I #
point $-1 -46.29047517319254 -4.8865845807293802 1.7182309853131197 #
point $-1 -40.668974942116762 -9.6311931919030727 5.5471332759358187 #
point $-1 -40.668974942116762 -7.8519649627129375 5.5471332759358187 #
point $-1 -40.668974942116762 -6.0727367335228024 5.5471332759358187 #
straight-curve $-1 -46.29047517319254 2.9653803819835574 32.429143237028825 0 0 -1 I I #
point $-1 -46.29047517319254 2.9653803819835574 11.422030620157889 #
straight-curve $-1 -46.29047517319254 0 1.718230985313117 0 -1 0 I I #
point $-1 -46.29047517319254 2.9653803819835574 1.7182309853131197 #
point $-1 -40.668974942116762 -1.7792282291901351 5.5471332759358187 #
point $-1 -40.668974942116762 0 5.5471332759358187 #
point $-1 -40.668974942116762 1.7792282291901351 5.5471332759358187 #
straight-curve $-1 -46.29047517319254 10.817345344696495 32.429143237028825 0 0 -1 I I #
point $-1 -46.29047517319254 10.817345344696495 11.422030620157889 #
straight-curve $-1 -46.29047517319254 3.9259824813564688 1.718230985313117 0 -1 0 I I #
point $-1 -46.29047517319254 10.817345344696495 1.7182309853131197 #
point $-1 -40.668974942116762 6.0727367335227989 5.5471332759358187 #
point $-1 -40.668974942116762 7.8519649627129375 5.5471332759358187 #
point $-1 -40.668974942116762 9.6311931919030691 5.5471332759358187 #
straight-curve $-1 -46.29047517319254 -41.958807795217666 -9.2530404432174169 0 0 -1 I I #
straight-curve $-1 46.29047517319254 -41.958807795217666 -9.2530404432174169 0 0 -1 I I #
straight-curve $-1 0 41.958807795217666 -11.422030620157889 1 0 0 I I #
point $-1 46.29047517319254 41.958807795217666 -11.422030620157889 #
End-of-ACIS-data 