500 0 14 0           
7 Unknown 11 ACIS 5.0 NT 24 Fri Mar 26 01:43:12 1999 
-1 9.9999999999999995e-007 1e-010 
body $-1 $14 $-1 $15 #
body $-1 $16 $-1 $17 #
body $-1 $18 $-1 $19 #
body $-1 $20 $-1 $21 #
body $-1 $22 $-1 $23 #
body $-1 $24 $-1 $25 #
body $-1 $26 $-1 $27 #
body $-1 $28 $-1 $29 #
body $-1 $30 $-1 $31 #
body $-1 $32 $-1 $33 #
body $-1 $34 $-1 $35 #
body $-1 $36 $-1 $37 #
body $-1 $38 $-1 $39 #
body $-1 $40 $-1 $41 #
lump $-1 $-1 $42 $0 #
transform $-1 1 0 0 0 1 0 0 0 1 47.350077822199161 20.110524705831519 6.6497238694501402 1 rotate no_reflect no_shear #
lump $-1 $-1 $43 $1 #
transform $-1 1 0 0 0 1 0 0 0 1 47.350077822199161 20.110524705831519 6.6497238694501402 1 rotate no_reflect no_shear #
lump $-1 $-1 $44 $2 #
transform $-1 1 0 0 0 1 0 0 0 1 47.350077822199161 20.110524705831519 6.6497238694501402 1 rotate no_reflect no_shear #
lump $-1 $-1 $45 $3 #
transform $-1 1 0 0 0 1 0 0 0 1 47.350077822199161 20.110524705831519 6.6497238694501402 1 rotate no_reflect no_shear #
lump $-1 $-1 $46 $4 #
transform $-1 1 0 0 0 1 0 0 0 1 47.350077822199161 20.110524705831519 6.6497238694501402 1 rotate no_reflect no_shear #
lump $-1 $-1 $47 $5 #
transform $-1 1 0 0 0 1 0 0 0 1 47.350077822199161 20.110524705831519 6.6497238694501402 1 rotate no_reflect no_shear #
lump $-1 $-1 $48 $6 #
transform $-1 1 0 0 0 1 0 0 0 1 47.350077822199161 20.110524705831519 6.6497238694501402 1 rotate no_reflect no_shear #
lump $-1 $-1 $49 $7 #
transform $-1 1 0 0 0 1 0 0 0 1 47.350077822199161 20.110524705831519 6.6497238694501402 1 rotate no_reflect no_shear #
lump $-1 $-1 $50 $8 #
transform $-1 1 0 0 0 1 0 0 0 1 47.350077822199161 20.110524705831519 6.6497238694501402 1 rotate no_reflect no_shear #
lump $-1 $-1 $51 $9 #
transform $-1 1 0 0 0 1 0 0 0 1 47.350077822199161 20.110524705831519 6.6497238694501402 1 rotate no_reflect no_shear #
lump $-1 $-1 $52 $10 #
transform $-1 1 0 0 0 1 0 0 0 1 47.350077822199161 20.110524705831519 6.6497238694501402 1 rotate no_reflect no_shear #
lump $-1 $-1 $53 $11 #
transform $-1 1 0 0 0 1 0 0 0 1 47.350077822199161 20.110524705831519 6.6497238694501402 1 rotate no_reflect no_shear #
lump $-1 $-1 $54 $12 #
transform $-1 1 0 0 0 1 0 0 0 1 47.350077822199161 20.110524705831519 6.6497238694501402 1 rotate no_reflect no_shear #
lump $-1 $-1 $55 $13 #
transform $-1 1 0 0 0 1 0 0 0 1 47.350077822199161 20.110524705831519 6.6497238694501402 1 rotate no_reflect no_shear #
shell $-1 $-1 $-1 $56 $-1 $14 #
shell $-1 $-1 $-1 $57 $-1 $16 #
shell $-1 $-1 $-1 $58 $-1 $18 #
shell $-1 $-1 $-1 $59 $-1 $20 #
shell $-1 $-1 $-1 $60 $-1 $22 #
shell $-1 $-1 $-1 $61 $-1 $24 #
shell $-1 $-1 $-1 $62 $-1 $26 #
shell $-1 $-1 $-1 $63 $-1 $28 #
shell $-1 $-1 $-1 $64 $-1 $30 #
shell $-1 $-1 $-1 $65 $-1 $32 #
shell $-1 $-1 $-1 $66 $-1 $34 #
shell $-1 $-1 $-1 $67 $-1 $36 #
shell $-1 $-1 $-1 $68 $-1 $38 #
shell $-1 $-1 $-1 $69 $-1 $40 #
face $-1 $70 $71 $42 $-1 $72 reversed single #
face $-1 $73 $74 $43 $-1 $75 reversed single #
face $-1 $76 $77 $44 $-1 $78 forward single #
face $-1 $79 $80 $45 $-1 $81 reversed single #
face $-1 $82 $83 $46 $-1 $84 forward single #
face $-1 $85 $86 $47 $-1 $87 reversed single #
face $-1 $88 $89 $48 $-1 $90 forward single #
face $-1 $91 $92 $49 $-1 $93 forward single #
face $-1 $94 $95 $50 $-1 $96 reversed single #
face $-1 $97 $98 $51 $-1 $99 forward single #
face $-1 $100 $101 $52 $-1 $102 forward single #
face $-1 $103 $104 $53 $-1 $105 reversed single #
face $-1 $106 $107 $54 $-1 $108 forward single #
face $-1 $109 $110 $55 $-1 $111 forward single #
face $-1 $112 $113 $42 $-1 $114 forward single #
loop $-1 $-1 $115 $56 #
plane-surface $-1 0 20.110524705831519 0 0 -1 0 0 0 -1 forward_v I I I I #
face $-1 $116 $117 $43 $-1 $118 reversed single #
loop $-1 $-1 $119 $57 #
plane-surface $-1 -37.050630083298884 -17.848007249310747 0 1 0 0 0 0 -1 forward_v I I I I #
face $-1 $120 $121 $44 $-1 $122 reversed single #
loop $-1 $-1 $123 $58 #
plane-surface $-1 0 20.110524705831519 0 0 -1 0 0 0 -1 forward_v I I I I #
face $-1 $124 $125 $45 $-1 $126 reversed single #
loop $-1 $-1 $127 $59 #
plane-surface $-1 26.39939864131167 3.214868123207312 132.64306446529483 0 -1 0 -0.5877852598018023 0 -0.80901698891910034 forward_v I I I I #
face $-1 $128 $129 $46 $-1 $130 forward single #
loop $-1 $131 $132 $60 #
cone-surface $-1 42.706077638714795 -0.87700621396139766 3.0681183592066201 -0.5877852598018023 0 -0.80901698891910034 0.80901698891910034 0 -0.5877852598018023 1 I I 0 1 1 forward I I I I #
face $-1 $133 $134 $47 $-1 $135 reversed single #
loop $-1 $-1 $136 $61 #
plane-surface $-1 -120.94592211426067 -13.672692188224863 63.163035169072046 0 1 0 -0.77714596973225614 0 0.62932038083071107 forward_v I I I I #
face $-1 $137 $138 $48 $-1 $139 forward single #
loop $-1 $140 $141 $62 #
cone-surface $-1 -45.7130500101363 -12.010692098379387 4.7933503214155611 0.77714596973225614 0 -0.62932038083071107 0.15733009520767777 0 0.19428649243306403 1 I I 0 1 0.25 forward I I I I #
face $-1 $142 $143 $49 $-1 $144 forward single #
loop $-1 $145 $146 $63 #
cone-surface $-1 -45.7130500101363 -9.5176919636111741 4.7933503214155611 0.77714596973225614 0 -0.62932038083071107 0.15733009520767777 0 0.19428649243306403 1 I I 0 1 0.25 forward I I I I #
face $-1 $147 $148 $50 $-1 $149 reversed single #
loop $-1 $-1 $150 $64 #
plane-surface $-1 -120.94592211426067 -4.2353785128430665 63.163035169072046 0 1 0 -0.77714596973225614 0 0.62932038083071107 forward_v I I I I #
face $-1 $151 $152 $51 $-1 $153 forward single #
loop $-1 $154 $155 $65 #
cone-surface $-1 -45.7130500101363 -2.5733784229975925 4.7933503214155611 0.77714596973225614 0 -0.62932038083071107 0.15733009520767777 0 0.19428649243306403 1 I I 0 1 0.25 forward I I I I #
face $-1 $156 $157 $52 $-1 $158 forward single #
loop $-1 $159 $160 $66 #
cone-surface $-1 -45.7130500101363 -0.080378288229379535 4.7933503214155611 0.77714596973225614 0 -0.62932038083071107 0.15733009520767777 0 0.19428649243306403 1 I I 0 1 0.25 forward I I I I #
face $-1 $161 $162 $53 $-1 $163 reversed single #
loop $-1 $-1 $164 $67 #
plane-surface $-1 -120.94592211426067 5.201935162538728 63.163035169072046 0 1 0 -0.77714596973225614 0 0.62932038083071107 forward_v I I I I #
face $-1 $165 $166 $54 $-1 $167 forward single #
loop $-1 $168 $169 $68 #
cone-surface $-1 -45.7130500101363 6.8639352523842021 4.7933503214155611 0.77714596973225614 0 -0.62932038083071107 0.15733009520767777 0 0.19428649243306403 1 I I 0 1 0.25 forward I I I I #
face $-1 $170 $171 $55 $-1 $172 forward single #
loop $-1 $173 $174 $69 #
cone-surface $-1 -45.7130500101363 9.356935387152415 4.7933503214155611 0.77714596973225614 0 -0.62932038083071107 0.15733009520767777 0 0.19428649243306403 1 I I 0 1 0.25 forward I I I I #
face $-1 $175 $176 $42 $-1 $177 reversed single #
loop $-1 $-1 $178 $70 #
plane-surface $-1 0 0 6.6497238694501402 0 0 1 1 0 0 forward_v I I I I #
coedge $-1 $179 $180 $181 $182 reversed $71 $-1 #
face $-1 $183 $184 $43 $-1 $185 reversed single #
loop $-1 $-1 $186 $73 #
plane-surface $-1 -35.550630083298884 -15.585489792789975 0 0 -1 0 0 0 -1 forward_v I I I I #
coedge $-1 $187 $188 $189 $190 forward $74 $-1 #
face $-1 $191 $192 $44 $-1 $193 reversed single #
loop $-1 $-1 $194 $76 #
plane-surface $-1 0 0 -6.6497238694501402 0 0 1 1 0 0 forward_v I I I I #
coedge $-1 $195 $196 $197 $198 forward $77 $-1 #
face $-1 $199 $200 $45 $-1 $201 reversed single #
loop $-1 $-1 $202 $79 #
plane-surface $-1 -29.263956947402114 -0.87700621396139766 56.029029695693552 0.5877852598018023 0 0.80901698891910034 0.80901698891910034 0 -0.5877852598018023 forward_v I I I I #
coedge $-1 $203 $204 $205 $206 reversed $80 $-1 #
face $-1 $-1 $207 $46 $-1 $208 forward single #
loop $-1 $209 $210 $82 #
cone-surface $-1 42.092810981117999 -0.87700621396139766 2.2240292357387492 -0.5877852598018023 0 -0.80901698891910034 0.40450849445955017 0 -0.29389262990090115 1 I I -0.70710678118654746 0.70710678118654746 0.5 forward I I I I #
loop $-1 $-1 $211 $60 #
coedge $-1 $132 $132 $212 $213 reversed $83 $-1 #
face $-1 $214 $215 $47 $-1 $216 reversed single #
loop $-1 $-1 $217 $85 #
plane-surface $-1 -47.35007782219914 -10.764192030995281 3.5662971542116821 -0.77714596973225614 0 0.62932038083071107 0.62932038083071107 0 0.77714596973225614 forward_v I I I I #
coedge $-1 $218 $219 $220 $221 reversed $86 $-1 #
face $-1 $-1 $222 $48 $-1 $223 forward single #
loop $-1 $224 $225 $88 #
cone-surface $-1 -45.227333779053637 -12.010692098379387 4.4000250833963666 0.77714596973225614 0 -0.62932038083071107 0.078665047603838884 0 0.097143246216532017 1 I I -0.70710678118654746 0.70710678118654746 0.125 forward I I I I #
loop $-1 $-1 $226 $62 #
coedge $-1 $141 $141 $227 $228 reversed $89 $-1 #
face $-1 $-1 $229 $49 $-1 $230 forward single #
loop $-1 $231 $232 $91 #
cone-surface $-1 -45.227333779053637 -9.5176919636111741 4.4000250833963666 0.77714596973225614 0 -0.62932038083071107 0.078665047603838884 0 0.097143246216532017 1 I I -0.70710678118654746 0.70710678118654746 0.125 forward I I I I #
loop $-1 $-1 $233 $63 #
coedge $-1 $146 $146 $234 $235 reversed $92 $-1 #
face $-1 $236 $237 $50 $-1 $238 reversed single #
loop $-1 $-1 $239 $94 #
plane-surface $-1 -47.35007782219914 -1.3268783556134842 3.5662971542116821 -0.77714596973225614 0 0.62932038083071107 0.62932038083071107 0 0.77714596973225614 forward_v I I I I #
coedge $-1 $240 $241 $242 $243 reversed $95 $-1 #
face $-1 $-1 $244 $51 $-1 $245 forward single #
loop $-1 $246 $247 $97 #
cone-surface $-1 -45.227333779053637 -2.5733784229975925 4.4000250833963666 0.77714596973225614 0 -0.62932038083071107 0.078665047603838884 0 0.097143246216532017 1 I I -0.70710678118654746 0.70710678118654746 0.125 forward I I I I #
loop $-1 $-1 $248 $65 #
coedge $-1 $155 $155 $249 $250 reversed $98 $-1 #
face $-1 $-1 $251 $52 $-1 $252 forward single #
loop $-1 $253 $254 $100 #
cone-surface $-1 -45.227333779053637 -0.080378288229379535 4.4000250833963666 0.77714596973225614 0 -0.62932038083071107 0.078665047603838884 0 0.097143246216532017 1 I I -0.70710678118654746 0.70710678118654746 0.125 forward I I I I #
loop $-1 $-1 $255 $66 #
coedge $-1 $160 $160 $256 $257 reversed $101 $-1 #
face $-1 $258 $259 $53 $-1 $260 reversed single #
loop $-1 $-1 $261 $103 #
plane-surface $-1 -47.35007782219914 8.1104353197683103 3.5662971542116821 -0.77714596973225614 0 0.62932038083071107 0.62932038083071107 0 0.77714596973225614 forward_v I I I I #
coedge $-1 $262 $263 $264 $265 reversed $104 $-1 #
face $-1 $-1 $266 $54 $-1 $267 forward single #
loop $-1 $268 $269 $106 #
cone-surface $-1 -45.227333779053637 6.8639352523842021 4.4000250833963666 0.77714596973225614 0 -0.62932038083071107 0.078665047603838884 0 0.097143246216532017 1 I I -0.70710678118654746 0.70710678118654746 0.125 forward I I I I #
loop $-1 $-1 $270 $68 #
coedge $-1 $169 $169 $271 $272 reversed $107 $-1 #
face $-1 $-1 $273 $55 $-1 $274 forward single #
loop $-1 $275 $276 $109 #
cone-surface $-1 -45.227333779053637 9.356935387152415 4.4000250833963666 0.77714596973225614 0 -0.62932038083071107 0.078665047603838884 0 0.097143246216532017 1 I I -0.70710678118654746 0.70710678118654746 0.125 forward I I I I #
loop $-1 $-1 $277 $69 #
coedge $-1 $174 $174 $278 $279 reversed $110 $-1 #
face $-1 $280 $281 $42 $-1 $282 reversed single #
loop $-1 $-1 $283 $112 #
plane-surface $-1 0 0 -6.6497238694501402 0 0 1 1 0 0 forward_v I I I I #
coedge $-1 $284 $285 $286 $287 forward $113 $-1 #
coedge $-1 $288 $115 $289 $290 reversed $71 $-1 #
coedge $-1 $115 $288 $291 $292 forward $71 $-1 #
coedge $-1 $283 $293 $115 $182 forward $176 $-1 #
edge $-1 $294 -47.350077822199161 $295 47.350077822199161 $115 $296 forward 7 unknown #
face $-1 $297 $298 $43 $-1 $299 forward single #
loop $-1 $-1 $300 $116 #
plane-surface $-1 -34.050630083298884 -17.848007249310747 0 -1 0 0 0 0 1 forward_v I I I I #
coedge $-1 $301 $302 $303 $304 forward $117 $-1 #
coedge $-1 $305 $119 $306 $307 reversed $74 $-1 #
coedge $-1 $119 $305 $308 $309 reversed $74 $-1 #
coedge $-1 $302 $301 $119 $190 reversed $117 $-1 #
edge $-1 $310 -6.6497238694501402 $311 6.6497238694501402 $189 $312 forward 7 unknown #
face $-1 $313 $314 $44 $-1 $315 reversed single #
loop $-1 $-1 $316 $120 #
plane-surface $-1 -37.050630083298884 23.699920517965783 0 1 0 0 0 0 -1 forward_v I I I I #
coedge $-1 $317 $318 $196 $319 forward $121 $-1 #
coedge $-1 $320 $123 $321 $322 reversed $77 $-1 #
coedge $-1 $123 $320 $194 $319 reversed $77 $-1 #
coedge $-1 $323 $324 $123 $198 reversed $325 $-1 #
edge $-1 $326 -6.6497238694501402 $327 6.6497238694501402 $197 $328 forward 7 unknown #
face $-1 $329 $330 $45 $-1 $331 forward single #
loop $-1 $-1 $332 $124 #
plane-surface $-1 26.39939864131167 -4.9688805511301073 132.64306446529483 0 1 0 0.5877852598018023 0 0.80901698891910034 forward_v I I I I #
coedge $-1 $333 $334 $335 $336 reversed $125 $-1 #
coedge $-1 $204 $127 $337 $338 reversed $80 $-1 #
coedge $-1 $127 $203 $333 $339 reversed $80 $-1 #
coedge $-1 $335 $340 $127 $206 forward $330 $-1 #
edge $-1 $341 -34.150378501543329 $342 -25.501126189966424 $205 $343 forward 7 unknown #
loop $-1 $-1 $212 $128 #
plane-surface $-1 -29.263956947402114 -0.87700621396139766 56.029029695693552 0.5877852598018023 0 0.80901698891910034 0.80901698891910034 0 -0.5877852598018023 forward_v I I I I #
loop $-1 $-1 $344 $82 #
coedge $-1 $210 $210 $211 $345 reversed $129 $-1 #
coedge $-1 $211 $211 $210 $345 forward $131 $-1 #
coedge $-1 $212 $212 $132 $213 forward $207 $-1 #
edge $-1 $346 0 $346 6.2831853071796004 $212 $347 forward 7 unknown #
face $-1 $348 $349 $47 $-1 $350 reversed single #
loop $-1 $-1 $351 $133 #
plane-surface $-1 -120.94592211426067 -7.8556918737656982 63.163035169072046 0 -1 0 0.77714596973225614 0 -0.62932038083071107 forward_v I I I I #
coedge $-1 $352 $353 $354 $355 reversed $134 $-1 #
coedge $-1 $219 $136 $356 $357 reversed $86 $-1 #
coedge $-1 $136 $218 $352 $358 reversed $86 $-1 #
coedge $-1 $354 $359 $136 $221 forward $360 $-1 #
edge $-1 $361 13.122883234931173 $362 15.619792889324678 $220 $363 forward 7 unknown #
loop $-1 $-1 $227 $137 #
plane-surface $-1 -47.35007782219914 -10.764192030995281 3.5662971542116821 -0.77714596973225614 0 0.62932038083071107 0.62932038083071107 0 0.77714596973225614 forward_v I I I I #
loop $-1 $-1 $364 $88 #
coedge $-1 $225 $225 $226 $365 reversed $138 $-1 #
coedge $-1 $226 $226 $225 $365 forward $140 $-1 #
coedge $-1 $227 $227 $141 $228 forward $222 $-1 #
edge $-1 $366 0 $366 6.2831853071796004 $227 $367 forward 7 unknown #
loop $-1 $-1 $234 $142 #
plane-surface $-1 -47.35007782219914 -10.764192030995281 3.5662971542116821 -0.77714596973225614 0 0.62932038083071107 0.62932038083071107 0 0.77714596973225614 forward_v I I I I #
loop $-1 $-1 $368 $91 #
coedge $-1 $232 $232 $233 $369 reversed $143 $-1 #
coedge $-1 $233 $233 $232 $369 forward $145 $-1 #
coedge $-1 $234 $234 $146 $235 forward $229 $-1 #
edge $-1 $370 0 $370 6.2831853071796004 $234 $371 forward 7 unknown #
face $-1 $372 $373 $50 $-1 $374 forward single #
loop $-1 $-1 $375 $147 #
plane-surface $-1 -120.94592211426067 1.5816218016160981 63.163035169072046 0 -1 0 0.77714596973225614 0 -0.62932038083071107 forward_v I I I I #
coedge $-1 $376 $377 $378 $379 reversed $148 $-1 #
coedge $-1 $241 $150 $380 $381 reversed $95 $-1 #
coedge $-1 $150 $240 $376 $382 reversed $95 $-1 #
coedge $-1 $378 $383 $150 $243 forward $373 $-1 #
edge $-1 $384 13.122883234931173 $385 15.619792889324678 $242 $386 forward 7 unknown #
loop $-1 $-1 $249 $151 #
plane-surface $-1 -47.35007782219914 -1.3268783556134842 3.5662971542116821 -0.77714596973225614 0 0.62932038083071107 0.62932038083071107 0 0.77714596973225614 forward_v I I I I #
loop $-1 $-1 $387 $97 #
coedge $-1 $247 $247 $248 $388 reversed $152 $-1 #
coedge $-1 $248 $248 $247 $388 forward $154 $-1 #
coedge $-1 $249 $249 $155 $250 forward $244 $-1 #
edge $-1 $389 0 $389 6.2831853071796004 $249 $390 forward 7 unknown #
loop $-1 $-1 $256 $156 #
plane-surface $-1 -47.35007782219914 -1.3268783556134842 3.5662971542116821 -0.77714596973225614 0 0.62932038083071107 0.62932038083071107 0 0.77714596973225614 forward_v I I I I #
loop $-1 $-1 $391 $100 #
coedge $-1 $254 $254 $255 $392 reversed $157 $-1 #
coedge $-1 $255 $255 $254 $392 forward $159 $-1 #
coedge $-1 $256 $256 $160 $257 forward $251 $-1 #
edge $-1 $393 0 $393 6.2831853071796004 $256 $394 forward 7 unknown #
face $-1 $395 $396 $53 $-1 $397 forward single #
loop $-1 $-1 $398 $161 #
plane-surface $-1 -120.94592211426067 11.018935476997893 63.163035169072046 0 -1 0 0.77714596973225614 0 -0.62932038083071107 forward_v I I I I #
coedge $-1 $399 $400 $401 $402 reversed $162 $-1 #
coedge $-1 $263 $164 $403 $404 reversed $104 $-1 #
coedge $-1 $164 $262 $399 $405 reversed $104 $-1 #
coedge $-1 $401 $406 $164 $265 forward $396 $-1 #
edge $-1 $407 13.122883234931173 $408 15.619792889324678 $264 $409 forward 7 unknown #
loop $-1 $-1 $271 $165 #
plane-surface $-1 -47.35007782219914 8.1104353197683103 3.5662971542116821 -0.77714596973225614 0 0.62932038083071107 0.62932038083071107 0 0.77714596973225614 forward_v I I I I #
loop $-1 $-1 $410 $106 #
coedge $-1 $269 $269 $270 $411 reversed $166 $-1 #
coedge $-1 $270 $270 $269 $411 forward $168 $-1 #
coedge $-1 $271 $271 $169 $272 forward $266 $-1 #
edge $-1 $412 0 $412 6.2831853071796004 $271 $413 forward 7 unknown #
loop $-1 $-1 $278 $170 #
plane-surface $-1 -47.35007782219914 8.1104353197683103 3.5662971542116821 -0.77714596973225614 0 0.62932038083071107 0.62932038083071107 0 0.77714596973225614 forward_v I I I I #
loop $-1 $-1 $414 $109 #
coedge $-1 $276 $276 $277 $415 reversed $171 $-1 #
coedge $-1 $277 $277 $276 $415 forward $173 $-1 #
coedge $-1 $278 $278 $174 $279 forward $273 $-1 #
edge $-1 $416 0 $416 6.2831853071796004 $278 $417 forward 7 unknown #
face $-1 $418 $419 $42 $-1 $420 reversed single #
loop $-1 $-1 $421 $175 #
plane-surface $-1 0 -20.110524705831519 0 0 1 0 0 0 1 forward_v I I I I #
coedge $-1 $422 $181 $423 $424 forward $176 $-1 #
coedge $-1 $425 $178 $288 $426 forward $113 $-1 #
coedge $-1 $178 $425 $427 $428 forward $113 $-1 #
coedge $-1 $429 $291 $178 $287 reversed $430 $-1 #
edge $-1 $431 -20.110524705831519 $432 20.110524705831519 $286 $433 forward 7 unknown #
coedge $-1 $180 $179 $284 $426 reversed $71 $-1 #
coedge $-1 $434 $435 $179 $290 forward $419 $-1 #
edge $-1 $436 -6.6497238694501402 $294 6.6497238694501402 $179 $437 forward 7 unknown #
coedge $-1 $286 $423 $180 $292 reversed $430 $-1 #
edge $-1 $432 -6.6497238694501402 $295 6.6497238694501402 $291 $438 forward 7 unknown #
coedge $-1 $181 $422 $434 $439 forward $176 $-1 #
vertex $-1 $182 $440 #
vertex $-1 $424 $441 #
straight-curve $-1 0 20.110524705831519 -6.6497238694501402 1 0 0 I I #
face $-1 $442 $443 $43 $-1 $444 reversed single #
loop $-1 $-1 $445 $183 #
plane-surface $-1 0 0 6.6497238694501402 0 0 1 1 0 0 forward_v I I I I #
coedge $-1 $446 $447 $448 $449 reversed $184 $-1 #
coedge $-1 $189 $186 $450 $451 reversed $117 $-1 #
coedge $-1 $186 $189 $452 $453 reversed $117 $-1 #
coedge $-1 $447 $446 $186 $304 reversed $184 $-1 #
edge $-1 $454 -6.6497238694501402 $455 6.6497238694501402 $303 $456 forward 7 unknown #
coedge $-1 $188 $187 $457 $458 reversed $74 $-1 #
coedge $-1 $450 $459 $187 $307 forward $443 $-1 #
edge $-1 $460 -11.186521081176146 $311 -6.6614861681346014 $306 $461 forward 7 unknown #
coedge $-1 $462 $452 $188 $309 forward $298 $-1 #
edge $-1 $310 6.6614861681346014 $463 11.186521081176146 $308 $464 forward 7 unknown #
vertex $-1 $309 $465 #
vertex $-1 $307 $466 #
straight-curve $-1 -37.050630083298884 -15.585489792789975 0 0 0 -1 I I #
face $-1 $467 $325 $44 $-1 $468 reversed single #
loop $-1 $-1 $469 $191 #
plane-surface $-1 -35.550630083298884 27.289316330100043 0 0 -1 0 0 0 -1 forward_v I I I I #
coedge $-1 $470 $471 $472 $473 forward $192 $-1 #
coedge $-1 $474 $194 $470 $475 forward $121 $-1 #
coedge $-1 $194 $474 $323 $476 forward $121 $-1 #
edge $-1 $326 34.050630083298884 $477 37.050630083298884 $194 $478 forward 7 unknown #
coedge $-1 $196 $195 $479 $480 forward $77 $-1 #
coedge $-1 $481 $482 $195 $322 forward $483 $-1 #
edge $-1 $484 -37.050630083298884 $327 -34.050630083298884 $321 $485 forward 7 unknown #
coedge $-1 $486 $197 $318 $476 reversed $325 $-1 #
coedge $-1 $197 $486 $481 $487 reversed $325 $-1 #
loop $-1 $-1 $197 $313 #
vertex $-1 $319 $488 #
vertex $-1 $487 $489 #
straight-curve $-1 -34.050630083298884 20.110524705831519 0 0 0 1 I I #
face $-1 $-1 $490 $45 $-1 $491 reversed single #
loop $-1 $-1 $205 $199 #
plane-surface $-1 0 0 6.6497238694501402 0 0 1 1 0 0 forward_v I I I I #
coedge $-1 $492 $493 $494 $495 reversed $200 $-1 #
coedge $-1 $496 $202 $204 $339 forward $125 $-1 #
coedge $-1 $202 $496 $492 $497 forward $125 $-1 #
coedge $-1 $494 $205 $202 $336 forward $330 $-1 #
edge $-1 $342 -3.6533712301880108 $498 4.5303774441494085 $335 $499 forward 7 unknown #
coedge $-1 $500 $501 $203 $338 forward $490 $-1 #
edge $-1 $502 -65.955858125667646 $341 -59.671808363197272 $337 $503 forward 7 unknown #
edge $-1 $342 84.009091760643713 $502 94.700155644398308 $204 $504 forward 7 unknown #
coedge $-1 $205 $494 $500 $505 forward $330 $-1 #
vertex $-1 $206 $506 #
vertex $-1 $206 $507 #
straight-curve $-1 13.199699320655835 3.214868123207312 6.6497238694501419 -1 0 0 I I #
coedge $-1 $344 $344 $-1 $508 reversed $209 $-1 #
edge $-1 $509 0 $509 6.2831853071796004 $210 $510 forward 7 unknown #
vertex $-1 $213 $511 #
ellipse-curve $-1 43.025451666410703 -0.87700621396139766 3.5076989882149636 0.5877852598018023 0 0.80901698891910034 0.80901698891910034 0 -0.5877852598018023 1 I I #
face $-1 $-1 $360 $47 $-1 $512 forward single #
loop $-1 $-1 $513 $214 #
plane-surface $-1 -47.350077822199161 0 0 1 0 0 0 0 -1 forward_v I I I I #
coedge $-1 $514 $515 $516 $517 reversed $215 $-1 #
coedge $-1 $518 $217 $219 $358 forward $134 $-1 #
coedge $-1 $217 $518 $514 $519 forward $134 $-1 #
coedge $-1 $516 $220 $217 $355 forward $360 $-1 #
edge $-1 $362 -8.2905961727272235 $520 -2.4735958582680579 $354 $521 forward 7 unknown #
coedge $-1 $522 $523 $218 $357 forward $349 $-1 #
edge $-1 $524 -28.015220430324366 $361 -24.931793715085881 $356 $525 forward 7 unknown #
edge $-1 $362 -3.967628779315123 $524 3.377697699050819e-014 $219 $526 forward 7 unknown #
coedge $-1 $220 $516 $522 $527 forward $360 $-1 #
loop $-1 $-1 $516 $348 #
vertex $-1 $357 $528 #
vertex $-1 $221 $529 #
straight-curve $-1 -60.472961057130334 -13.672692188224863 6.6497238694501419 1 0 0 I I #
coedge $-1 $364 $364 $-1 $530 reversed $224 $-1 #
edge $-1 $531 0 $531 6.2831853071796004 $225 $532 forward 7 unknown #
vertex $-1 $228 $533 #
ellipse-curve $-1 -46.101622995002408 -12.010692098379387 5.1080105118309005 -0.77714596973225614 0 0.62932038083071107 0.15733009520767777 0 0.19428649243306403 1 I I #
coedge $-1 $368 $368 $-1 $534 reversed $231 $-1 #
edge $-1 $535 0 $535 6.2831853071796004 $232 $536 forward 7 unknown #
vertex $-1 $235 $537 #
ellipse-curve $-1 -46.101622995002408 -9.5176919636111741 5.1080105118309005 -0.77714596973225614 0 0.62932038083071107 0.15733009520767777 0 0.19428649243306403 1 I I #
face $-1 $-1 $538 $50 $-1 $539 reversed single #
loop $-1 $-1 $242 $236 #
plane-surface $-1 0 0 6.6497238694501402 0 0 1 1 0 0 forward_v I I I I #
coedge $-1 $540 $541 $542 $543 reversed $237 $-1 #
coedge $-1 $544 $239 $241 $382 forward $148 $-1 #
coedge $-1 $239 $544 $540 $545 forward $148 $-1 #
coedge $-1 $542 $242 $239 $379 forward $373 $-1 #
edge $-1 $385 -3.5719393350363244 $546 2.2450609794228402 $378 $547 forward 7 unknown #
coedge $-1 $548 $549 $240 $381 forward $538 $-1 #
edge $-1 $550 -28.015220430324366 $384 -24.931793715085881 $380 $551 forward 7 unknown #
edge $-1 $385 -3.967628779315123 $550 3.377697699050819e-014 $241 $552 forward 7 unknown #
coedge $-1 $242 $542 $548 $553 forward $373 $-1 #
vertex $-1 $381 $554 #
vertex $-1 $243 $555 #
straight-curve $-1 -60.472961057130334 -4.2353785128430665 6.6497238694501419 1 0 0 I I #
coedge $-1 $387 $387 $-1 $556 reversed $246 $-1 #
edge $-1 $557 0 $557 6.2831853071796004 $247 $558 forward 7 unknown #
vertex $-1 $250 $559 #
ellipse-curve $-1 -46.101622995002408 -2.5733784229975925 5.1080105118309005 -0.77714596973225614 0 0.62932038083071107 0.15733009520767777 0 0.19428649243306403 1 I I #
coedge $-1 $391 $391 $-1 $560 reversed $253 $-1 #
edge $-1 $561 0 $561 6.2831853071796004 $254 $562 forward 7 unknown #
vertex $-1 $257 $563 #
ellipse-curve $-1 -46.101622995002408 -0.080378288229379535 5.1080105118309005 -0.77714596973225614 0 0.62932038083071107 0.15733009520767777 0 0.19428649243306403 1 I I #
face $-1 $-1 $564 $53 $-1 $565 reversed single #
loop $-1 $-1 $264 $258 #
plane-surface $-1 0 0 6.6497238694501402 0 0 1 1 0 0 forward_v I I I I #
coedge $-1 $566 $567 $568 $569 reversed $259 $-1 #
coedge $-1 $570 $261 $263 $405 forward $162 $-1 #
coedge $-1 $261 $570 $566 $571 forward $162 $-1 #
coedge $-1 $568 $264 $261 $402 forward $396 $-1 #
edge $-1 $408 1.1467175026545728 $572 6.9637178171137375 $401 $573 forward 7 unknown #
coedge $-1 $574 $575 $262 $404 forward $564 $-1 #
edge $-1 $576 -28.015220430324366 $407 -24.931793715085881 $403 $577 forward 7 unknown #
edge $-1 $408 -3.967628779315123 $576 3.377697699050819e-014 $263 $578 forward 7 unknown #
coedge $-1 $264 $568 $574 $579 forward $396 $-1 #
vertex $-1 $265 $580 #
vertex $-1 $265 $581 #
straight-curve $-1 -60.472961057130334 5.201935162538728 6.6497238694501419 1 0 0 I I #
coedge $-1 $410 $410 $-1 $582 reversed $268 $-1 #
edge $-1 $583 0 $583 6.2831853071796004 $269 $584 forward 7 unknown #
vertex $-1 $272 $585 #
ellipse-curve $-1 -46.101622995002408 6.8639352523842021 5.1080105118309005 -0.77714596973225614 0 0.62932038083071107 0.15733009520767777 0 0.19428649243306403 1 I I #
coedge $-1 $414 $414 $-1 $586 reversed $275 $-1 #
edge $-1 $587 0 $587 6.2831853071796004 $276 $588 forward 7 unknown #
vertex $-1 $279 $589 #
ellipse-curve $-1 -46.101622995002408 9.356935387152415 5.1080105118309005 -0.77714596973225614 0 0.62932038083071107 0.15733009520767777 0 0.19428649243306403 1 I I #
face $-1 $-1 $430 $42 $-1 $590 reversed single #
loop $-1 $-1 $289 $280 #
plane-surface $-1 -47.350077822199161 0 0 1 0 0 0 0 -1 forward_v I I I I #
coedge $-1 $591 $427 $592 $593 forward $281 $-1 #
coedge $-1 $293 $283 $591 $594 forward $176 $-1 #
coedge $-1 $291 $429 $283 $424 reversed $430 $-1 #
edge $-1 $295 -20.110524705831519 $595 20.110524705831519 $423 $596 forward 7 unknown #
coedge $-1 $285 $284 $435 $597 forward $113 $-1 #
edge $-1 $432 -47.350077822199161 $436 47.350077822199161 $288 $598 forward 7 unknown #
coedge $-1 $421 $599 $285 $428 reversed $281 $-1 #
edge $-1 $600 -47.350077822199161 $431 47.350077822199161 $427 $601 forward 7 unknown #
coedge $-1 $423 $286 $599 $602 forward $430 $-1 #
loop $-1 $-1 $429 $418 #
vertex $-1 $287 $603 #
vertex $-1 $287 $604 #
straight-curve $-1 47.350077822199161 0 6.6497238694501402 0 1 0 I I #
coedge $-1 $592 $289 $293 $439 reversed $419 $-1 #
coedge $-1 $289 $592 $425 $597 reversed $419 $-1 #
vertex $-1 $426 $605 #
straight-curve $-1 -47.350077822199161 20.110524705831519 0 0 0 -1 I I #
straight-curve $-1 47.350077822199161 20.110524705831519 0 0 0 -1 I I #
edge $-1 $606 -20.110524705831519 $294 20.110524705831519 $434 $607 forward 7 unknown #
point $-1 -47.350077822199161 20.110524705831519 -6.6497238694501402 #
point $-1 47.350077822199161 20.110524705831519 -6.6497238694501402 #
face $-1 $-1 $608 $43 $-1 $609 reversed single #
loop $-1 $-1 $610 $297 #
plane-surface $-1 0 0 -6.6497238694501402 0 0 1 1 0 0 forward_v I I I I #
coedge $-1 $452 $462 $447 $611 forward $298 $-1 #
coedge $-1 $303 $300 $610 $612 reversed $184 $-1 #
coedge $-1 $300 $303 $445 $611 reversed $184 $-1 #
coedge $-1 $613 $614 $300 $449 forward $608 $-1 #
edge $-1 $615 -6.6497238694501402 $616 6.6497238694501402 $448 $617 forward 7 unknown #
coedge $-1 $610 $306 $301 $451 forward $443 $-1 #
edge $-1 $311 -19.275315041649442 $455 -16.275315041649442 $450 $618 forward 7 unknown #
coedge $-1 $308 $445 $302 $453 forward $298 $-1 #
edge $-1 $454 16.275315041649442 $310 19.275315041649442 $452 $619 forward 7 unknown #
vertex $-1 $453 $620 #
vertex $-1 $451 $621 #
straight-curve $-1 -34.050630083298884 -15.585489792789975 0 0 0 -1 I I #
coedge $-1 $614 $613 $305 $458 forward $608 $-1 #
edge $-1 $463 -6.6497238694501402 $460 6.6497238694501402 $457 $622 forward 7 unknown #
coedge $-1 $306 $610 $614 $623 forward $443 $-1 #
vertex $-1 $307 $624 #
straight-curve $-1 -37.050630083298884 -8.9240036246553736 -6.6497238694501402 0 1 0 I I #
coedge $-1 $445 $308 $613 $625 forward $298 $-1 #
vertex $-1 $625 $626 #
straight-curve $-1 -37.050630083298884 -8.9240036246553736 6.6497238694501402 0 -1 0 I I #
point $-1 -37.050630083298884 -15.585489792789975 6.6497238694501402 #
point $-1 -37.050630083298884 -15.585489792789975 -6.6497238694501402 #
face $-1 $-1 $483 $44 $-1 $627 forward single #
plane-surface $-1 -34.050630083298884 23.699920517965783 0 -1 0 0 0 0 1 forward_v I I I I #
coedge $-1 $628 $629 $486 $630 forward $314 $-1 #
coedge $-1 $479 $316 $317 $475 reversed $192 $-1 #
coedge $-1 $316 $479 $482 $631 reversed $192 $-1 #
coedge $-1 $629 $628 $316 $473 reversed $314 $-1 #
edge $-1 $632 -6.6497238694501402 $633 6.6497238694501402 $472 $634 forward 7 unknown #
coedge $-1 $318 $317 $628 $635 forward $121 $-1 #
edge $-1 $477 -3.58939581213426 $633 3.58939581213426 $470 $636 forward 7 unknown #
edge $-1 $637 -3.58939581213426 $326 3.58939581213426 $323 $638 forward 7 unknown #
vertex $-1 $475 $639 #
straight-curve $-1 0 20.110524705831519 -6.6497238694501402 -1 0 0 I I #
coedge $-1 $471 $470 $320 $480 reversed $192 $-1 #
edge $-1 $484 -6.6497238694501402 $477 6.6497238694501402 $479 $640 forward 7 unknown #
coedge $-1 $641 $321 $324 $487 forward $483 $-1 #
coedge $-1 $321 $641 $471 $631 forward $483 $-1 #
loop $-1 $-1 $321 $467 #
vertex $-1 $322 $642 #
straight-curve $-1 0 20.110524705831519 6.6497238694501402 1 0 0 I I #
coedge $-1 $324 $323 $469 $630 reversed $325 $-1 #
edge $-1 $327 -3.58939581213426 $643 3.58939581213426 $324 $644 forward 7 unknown #
point $-1 -34.050630083298884 20.110524705831523 -6.6497238694501402 #
point $-1 -34.050630083298884 20.110524705831523 6.6497238694501402 #
loop $-1 $-1 $337 $329 #
plane-surface $-1 47.350077822199161 0 0 -1 0 0 0 0 1 forward_v I I I I #
coedge $-1 $493 $332 $334 $497 reversed $200 $-1 #
coedge $-1 $332 $492 $645 $646 reversed $200 $-1 #
coedge $-1 $340 $335 $332 $495 forward $330 $-1 #
edge $-1 $498 25.501126189966424 $647 34.150378501543329 $494 $648 forward 7 unknown #
coedge $-1 $334 $333 $501 $649 reversed $125 $-1 #
edge $-1 $650 -94.700155644398308 $498 -84.009091760643713 $492 $651 forward 7 unknown #
vertex $-1 $336 $652 #
straight-curve $-1 38.700825510622266 -0.43850310698069883 6.6497238694501419 0 -1 0 I I #
coedge $-1 $645 $337 $340 $505 reversed $490 $-1 #
coedge $-1 $337 $645 $496 $649 forward $490 $-1 #
vertex $-1 $338 $653 #
straight-curve $-1 47.350077822199161 3.214868123207312 66.321532232647414 0 0 1 I I #
straight-curve $-1 -29.263956947402114 3.214868123207312 56.029029695693552 0.80901698891910034 0 -0.5877852598018023 I I #
edge $-1 $647 -4.9688805511301073 $341 3.214868123207312 $500 $654 forward 7 unknown #
point $-1 47.350077822199161 3.214868123207312 6.6497238694501402 #
point $-1 38.700825510622259 3.214868123207312 6.6497238694501419 #
edge $-1 $655 1 $655 0 $344 $-1 forward 7 unknown #
vertex $-1 $345 $656 #
ellipse-curve $-1 42.386703611018902 -0.87700621396139766 2.6285377301982993 0.5877852598018023 0 0.80901698891910034 0.80901698891910034 0 -0.5877852598018023 1 I I #
point $-1 43.834468655329786 -0.87700621396139766 2.9199137284131393 #
plane-surface $-1 0 0 6.6497238694501402 0 0 1 1 0 0 forward_v I I I I #
coedge $-1 $523 $522 $515 $657 forward $349 $-1 #
coedge $-1 $515 $351 $353 $519 reversed $215 $-1 #
coedge $-1 $351 $514 $513 $657 reversed $215 $-1 #
coedge $-1 $359 $354 $351 $517 forward $360 $-1 #
edge $-1 $520 -15.619792889324678 $658 -13.122883234931173 $516 $659 forward 7 unknown #
coedge $-1 $353 $352 $523 $660 reversed $134 $-1 #
edge $-1 $661 -3.377697699050819e-014 $520 3.967628779315123 $514 $662 forward 7 unknown #
vertex $-1 $355 $663 #
straight-curve $-1 -44.853168167805656 -5.3820960154976403 6.6497238694501402 0 1 0 I I #
coedge $-1 $513 $356 $359 $527 reversed $349 $-1 #
coedge $-1 $356 $513 $518 $660 forward $349 $-1 #
vertex $-1 $357 $664 #
straight-curve $-1 -47.350077822199161 -13.672692188224863 31.581517584536023 0 0 1 I I #
straight-curve $-1 -47.35007782219914 -13.672692188224863 3.5662971542116821 -0.62932038083071107 0 -0.77714596973225614 I I #
edge $-1 $658 7.8556918737656982 $361 13.672692188224863 $522 $665 forward 7 unknown #
point $-1 -47.350077822199161 -13.672692188224863 6.6497238694501402 #
point $-1 -44.853168167805656 -13.672692188224863 6.6497238694501402 #
edge $-1 $666 1 $666 0 $364 $-1 forward 7 unknown #
vertex $-1 $365 $667 #
ellipse-curve $-1 -45.32447702527017 -12.010692098379387 4.4786901310002056 -0.77714596973225614 0 0.62932038083071107 0.15733009520767777 0 0.19428649243306403 1 I I #
point $-1 -45.944292899794746 -12.010692098379387 5.3022970042639805 #
edge $-1 $668 1 $668 0 $368 $-1 forward 7 unknown #
vertex $-1 $369 $669 #
ellipse-curve $-1 -45.32447702527017 -9.5176919636111741 4.4786901310002056 -0.77714596973225614 0 0.62932038083071107 0.15733009520767777 0 0.19428649243306403 1 I I #
point $-1 -45.944292899794746 -9.5176919636111741 5.3022970042639805 #
loop $-1 $-1 $380 $372 #
plane-surface $-1 -47.350077822199161 0 0 1 0 0 0 0 -1 forward_v I I I I #
coedge $-1 $541 $375 $377 $545 reversed $237 $-1 #
coedge $-1 $375 $540 $670 $671 reversed $237 $-1 #
coedge $-1 $383 $378 $375 $543 forward $373 $-1 #
edge $-1 $546 -15.619792889324678 $672 -13.122883234931173 $542 $673 forward 7 unknown #
coedge $-1 $377 $376 $549 $674 reversed $148 $-1 #
edge $-1 $675 -3.377697699050819e-014 $546 3.967628779315123 $540 $676 forward 7 unknown #
vertex $-1 $379 $677 #
straight-curve $-1 -44.853168167805656 -0.66343917780674211 6.6497238694501402 0 1 0 I I #
coedge $-1 $670 $380 $383 $553 reversed $538 $-1 #
coedge $-1 $380 $670 $544 $674 forward $538 $-1 #
vertex $-1 $381 $678 #
straight-curve $-1 -47.350077822199161 -4.2353785128430665 31.581517584536023 0 0 1 I I #
straight-curve $-1 -47.35007782219914 -4.2353785128430665 3.5662971542116821 -0.62932038083071107 0 -0.77714596973225614 I I #
edge $-1 $672 -1.5816218016160981 $384 4.2353785128430665 $548 $679 forward 7 unknown #
point $-1 -47.350077822199161 -4.2353785128430665 6.6497238694501402 #
point $-1 -44.853168167805656 -4.2353785128430665 6.6497238694501402 #
edge $-1 $680 1 $680 0 $387 $-1 forward 7 unknown #
vertex $-1 $388 $681 #
ellipse-curve $-1 -45.32447702527017 -2.5733784229975925 4.4786901310002056 -0.77714596973225614 0 0.62932038083071107 0.15733009520767777 0 0.19428649243306403 1 I I #
point $-1 -45.944292899794746 -2.5733784229975925 5.3022970042639805 #
edge $-1 $682 1 $682 0 $391 $-1 forward 7 unknown #
vertex $-1 $392 $683 #
ellipse-curve $-1 -45.32447702527017 -0.080378288229379535 4.4786901310002056 -0.77714596973225614 0 0.62932038083071107 0.15733009520767777 0 0.19428649243306403 1 I I #
point $-1 -45.944292899794746 -0.080378288229379535 5.3022970042639805 #
loop $-1 $-1 $403 $395 #
plane-surface $-1 -47.350077822199161 0 0 1 0 0 0 0 -1 forward_v I I I I #
coedge $-1 $567 $398 $400 $571 reversed $259 $-1 #
coedge $-1 $398 $566 $684 $685 reversed $259 $-1 #
coedge $-1 $406 $401 $398 $569 forward $396 $-1 #
edge $-1 $572 -15.619792889324678 $686 -13.122883234931173 $568 $687 forward 7 unknown #
coedge $-1 $400 $399 $575 $688 reversed $162 $-1 #
edge $-1 $689 -3.377697699050819e-014 $572 3.967628779315123 $566 $690 forward 7 unknown #
vertex $-1 $402 $691 #
straight-curve $-1 -44.853168167805656 4.0552176598841552 6.6497238694501402 0 1 0 I I #
coedge $-1 $684 $403 $406 $579 reversed $564 $-1 #
coedge $-1 $403 $684 $570 $688 forward $564 $-1 #
vertex $-1 $404 $692 #
straight-curve $-1 -47.350077822199161 5.201935162538728 31.581517584536023 0 0 1 I I #
straight-curve $-1 -47.35007782219914 5.201935162538728 3.5662971542116821 -0.62932038083071107 0 -0.77714596973225614 I I #
edge $-1 $686 -11.018935476997893 $407 -5.201935162538728 $574 $693 forward 7 unknown #
point $-1 -47.350077822199161 5.201935162538728 6.6497238694501402 #
point $-1 -44.853168167805656 5.201935162538728 6.6497238694501402 #
edge $-1 $694 1 $694 0 $410 $-1 forward 7 unknown #
vertex $-1 $411 $695 #
ellipse-curve $-1 -45.32447702527017 6.8639352523842021 4.4786901310002056 -0.77714596973225614 0 0.62932038083071107 0.15733009520767777 0 0.19428649243306403 1 I I #
point $-1 -45.944292899794746 6.8639352523842021 5.3022970042639805 #
edge $-1 $696 1 $696 0 $414 $-1 forward 7 unknown #
vertex $-1 $415 $697 #
ellipse-curve $-1 -45.32447702527017 9.356935387152415 4.4786901310002056 -0.77714596973225614 0 0.62932038083071107 0.15733009520767777 0 0.19428649243306403 1 I I #
point $-1 -45.944292899794746 9.356935387152415 5.3022970042639805 #
plane-surface $-1 47.350077822199161 0 0 -1 0 0 0 0 1 forward_v I I I I #
coedge $-1 $599 $421 $422 $594 reversed $281 $-1 #
coedge $-1 $435 $434 $421 $593 reversed $419 $-1 #
edge $-1 $600 -6.6497238694501402 $606 6.6497238694501402 $592 $698 forward 7 unknown #
edge $-1 $595 -47.350077822199161 $606 47.350077822199161 $591 $699 forward 7 unknown #
vertex $-1 $602 $700 #
straight-curve $-1 47.350077822199161 0 -6.6497238694501402 0 -1 0 I I #
edge $-1 $436 -20.110524705831519 $600 20.110524705831519 $435 $701 forward 7 unknown #
straight-curve $-1 0 20.110524705831519 6.6497238694501402 -1 0 0 I I #
coedge $-1 $427 $591 $429 $602 reversed $281 $-1 #
vertex $-1 $597 $702 #
straight-curve $-1 0 -20.110524705831519 6.6497238694501402 1 0 0 I I #
edge $-1 $431 -6.6497238694501402 $595 6.6497238694501402 $429 $703 forward 7 unknown #
point $-1 47.350077822199161 -20.110524705831519 6.6497238694501402 #
point $-1 47.350077822199161 20.110524705831519 6.6497238694501402 #
point $-1 -47.350077822199161 20.110524705831519 6.6497238694501402 #
vertex $-1 $439 $704 #
straight-curve $-1 -47.350077822199161 0 -6.6497238694501402 0 1 0 I I #
loop $-1 $-1 $448 $442 #
plane-surface $-1 0 -20.110524705831519 0 0 1 0 0 0 1 forward_v I I I I #
coedge $-1 $459 $450 $446 $612 forward $443 $-1 #
edge $-1 $616 -11.186521081176146 $454 -6.6614861681346014 $445 $705 forward 7 unknown #
edge $-1 $455 6.6614861681346014 $615 11.186521081176146 $610 $706 forward 7 unknown #
coedge $-1 $457 $448 $462 $625 reversed $608 $-1 #
coedge $-1 $448 $457 $459 $623 reversed $608 $-1 #
vertex $-1 $623 $707 #
vertex $-1 $449 $708 #
straight-curve $-1 -34.050630083298884 -20.110524705831519 0 0 0 1 I I #
straight-curve $-1 -17.775315041649442 -15.585489792789975 -6.6497238694501402 1 0 0 I I #
straight-curve $-1 -17.775315041649442 -15.585489792789975 6.6497238694501402 -1 0 0 I I #
point $-1 -34.050630083298884 -15.585489792789975 6.6497238694501402 #
point $-1 -34.050630083298884 -15.585489792789975 -6.6497238694501402 #
straight-curve $-1 -37.050630083298884 -20.110524705831519 0 0 0 -1 I I #
edge $-1 $615 34.050630083298884 $460 37.050630083298884 $614 $709 forward 7 unknown #
point $-1 -37.050630083298884 -20.110524705831519 -6.6497238694501402 #
edge $-1 $463 -37.050630083298884 $616 -34.050630083298884 $613 $710 forward 7 unknown #
point $-1 -37.050630083298884 -20.110524705831519 6.6497238694501402 #
plane-surface $-1 0 0 6.6497238694501402 0 0 1 1 0 0 forward_v I I I I #
coedge $-1 $472 $469 $474 $635 reversed $314 $-1 #
coedge $-1 $469 $472 $641 $711 reversed $314 $-1 #
edge $-1 $643 -6.6497238694501402 $637 6.6497238694501402 $486 $712 forward 7 unknown #
edge $-1 $632 -3.58939581213426 $484 3.58939581213426 $471 $713 forward 7 unknown #
vertex $-1 $711 $714 #
vertex $-1 $635 $715 #
straight-curve $-1 -37.050630083298884 27.289316330100043 0 0 0 -1 I I #
edge $-1 $633 -1.5 $637 1.5 $628 $716 forward 7 unknown #
straight-curve $-1 -37.050630083298884 23.699920517965783 -6.6497238694501402 0 1 0 I I #
vertex $-1 $476 $717 #
straight-curve $-1 -34.050630083298884 23.699920517965783 -6.6497238694501402 0 -1 0 I I #
point $-1 -37.050630083298884 20.110524705831523 -6.6497238694501402 #
straight-curve $-1 -37.050630083298884 20.110524705831519 0 0 0 -1 I I #
coedge $-1 $482 $481 $629 $711 forward $483 $-1 #
point $-1 -37.050630083298884 20.110524705831523 6.6497238694501402 #
vertex $-1 $487 $718 #
straight-curve $-1 -34.050630083298884 23.699920517965783 6.6497238694501402 0 1 0 I I #
coedge $-1 $501 $500 $493 $646 forward $490 $-1 #
edge $-1 $647 59.671808363197272 $650 65.955858125667646 $645 $719 forward 7 unknown #
vertex $-1 $505 $720 #
straight-curve $-1 13.199699320655835 -4.9688805511301073 6.6497238694501419 1 0 0 I I #
edge $-1 $650 -4.5303774441494085 $502 3.6533712301880108 $501 $721 forward 7 unknown #
vertex $-1 $649 $722 #
straight-curve $-1 -29.263956947402114 -4.9688805511301073 56.029029695693552 -0.80901698891910034 0 0.5877852598018023 I I #
point $-1 38.700825510622259 -4.9688805511301073 6.6497238694501419 #
point $-1 47.350077822199161 3.214868123207312 0.36567410697976754 #
straight-curve $-1 47.350077822199161 0 6.6497238694501402 0 1 0 I I #
vertex $-1 $508 $723 #
point $-1 43.195720599937999 -0.87700621396139766 2.0407524703964972 #
edge $-1 $658 24.931793715085881 $661 28.015220430324366 $513 $724 forward 7 unknown #
vertex $-1 $527 $725 #
straight-curve $-1 -60.472961057130334 -7.8556918737656982 6.6497238694501419 -1 0 0 I I #
edge $-1 $661 2.4735958582680579 $524 8.2905961727272235 $523 $726 forward 7 unknown #
vertex $-1 $660 $727 #
straight-curve $-1 -47.35007782219914 -7.8556918737656982 3.5662971542116821 0.62932038083071107 0 0.77714596973225614 I I #
point $-1 -44.853168167805656 -7.8556918737656982 6.6497238694501402 #
point $-1 -47.350077822199161 -13.672692188224863 3.5662971542116559 #
straight-curve $-1 -47.350077822199161 0 6.6497238694501402 0 -1 0 I I #
vertex $-1 $530 $728 #
point $-1 -45.167146930062493 -12.010692098379387 4.6729766234332697 #
vertex $-1 $534 $729 #
point $-1 -45.167146930062493 -9.5176919636111741 4.6729766234332697 #
coedge $-1 $549 $548 $541 $671 forward $538 $-1 #
edge $-1 $672 24.931793715085881 $675 28.015220430324366 $670 $730 forward 7 unknown #
vertex $-1 $553 $731 #
straight-curve $-1 -60.472961057130334 1.5816218016160981 6.6497238694501419 -1 0 0 I I #
edge $-1 $675 -2.2450609794228402 $550 3.5719393350363244 $549 $732 forward 7 unknown #
vertex $-1 $674 $733 #
straight-curve $-1 -47.35007782219914 1.5816218016160981 3.5662971542116821 0.62932038083071107 0 0.77714596973225614 I I #
point $-1 -44.853168167805656 1.5816218016160981 6.6497238694501402 #
point $-1 -47.350077822199161 -4.2353785128430665 3.5662971542116559 #
straight-curve $-1 -47.350077822199161 0 6.6497238694501402 0 -1 0 I I #
vertex $-1 $556 $734 #
point $-1 -45.167146930062493 -2.5733784229975925 4.6729766234332697 #
vertex $-1 $560 $735 #
point $-1 -45.167146930062493 -0.080378288229379535 4.6729766234332697 #
coedge $-1 $575 $574 $567 $685 forward $564 $-1 #
edge $-1 $686 24.931793715085881 $689 28.015220430324366 $684 $736 forward 7 unknown #
vertex $-1 $579 $737 #
straight-curve $-1 -60.472961057130334 11.018935476997893 6.6497238694501419 -1 0 0 I I #
edge $-1 $689 -6.9637178171137375 $576 -1.1467175026545728 $575 $738 forward 7 unknown #
vertex $-1 $688 $739 #
straight-curve $-1 -47.35007782219914 11.018935476997893 3.5662971542116821 0.62932038083071107 0 0.77714596973225614 I I #
point $-1 -44.853168167805656 11.018935476997893 6.6497238694501402 #
point $-1 -47.350077822199161 5.201935162538728 3.5662971542116559 #
straight-curve $-1 -47.350077822199161 0 6.6497238694501402 0 -1 0 I I #
vertex $-1 $582 $740 #
point $-1 -45.167146930062493 6.8639352523842021 4.6729766234332697 #
vertex $-1 $586 $741 #
point $-1 -45.167146930062493 9.356935387152415 4.6729766234332697 #
straight-curve $-1 -47.350077822199161 -20.110524705831519 0 0 0 -1 I I #
straight-curve $-1 0 -20.110524705831519 -6.6497238694501402 -1 0 0 I I #
point $-1 47.350077822199161 -20.110524705831519 -6.6497238694501402 #
straight-curve $-1 -47.350077822199161 0 6.6497238694501402 0 -1 0 I I #
point $-1 -47.350077822199161 -20.110524705831519 6.6497238694501402 #
straight-curve $-1 47.350077822199161 -20.110524705831519 0 0 0 -1 I I #
point $-1 -47.350077822199161 -20.110524705831519 -6.6497238694501402 #
straight-curve $-1 -34.050630083298884 -8.9240036246553736 6.6497238694501402 0 1 0 I I #
straight-curve $-1 -34.050630083298884 -8.9240036246553736 -6.6497238694501402 0 -1 0 I I #
point $-1 -34.050630083298884 -20.110524705831519 -6.6497238694501402 #
point $-1 -34.050630083298884 -20.110524705831519 6.6497238694501402 #
straight-curve $-1 0 -20.110524705831519 -6.6497238694501402 -1 0 0 I I #
straight-curve $-1 0 -20.110524705831519 6.6497238694501402 1 0 0 I I #
edge $-1 $643 -1.5 $632 1.5 $629 $742 forward 7 unknown #
straight-curve $-1 -34.050630083298884 27.289316330100043 0 0 0 -1 I I #
straight-curve $-1 -37.050630083298884 23.699920517965783 6.6497238694501402 0 -1 0 I I #
point $-1 -37.050630083298884 27.289316330100043 6.6497238694501402 #
point $-1 -37.050630083298884 27.289316330100043 -6.6497238694501402 #
straight-curve $-1 -35.550630083298884 27.289316330100043 -6.6497238694501402 1 0 0 I I #
point $-1 -34.050630083298884 27.289316330100043 -6.6497238694501402 #
point $-1 -34.050630083298884 27.289316330100043 6.6497238694501402 #
straight-curve $-1 47.350077822199161 -4.9688805511301073 66.321532232647414 0 0 -1 I I #
point $-1 47.350077822199161 -4.9688805511301073 6.6497238694501402 #
straight-curve $-1 47.350077822199168 -0.43850310698069883 0.36567410697976754 0 1 0 I I #
point $-1 47.350077822199161 -4.9688805511301073 0.36567410697976754 #
point $-1 41.798918351217097 -0.87700621396139766 1.8195207412791992 #
straight-curve $-1 -47.350077822199161 -7.8556918737656982 31.581517584536023 0 0 -1 I I #
point $-1 -47.350077822199161 -7.8556918737656982 6.6497238694501402 #
straight-curve $-1 -47.350077822199161 -5.3820960154976403 3.5662971542116635 0 -1 0 I I #
point $-1 -47.350077822199161 -7.8556918737656982 3.5662971542116559 #
point $-1 -45.130190532837105 -12.010692098379387 4.3213600357925275 #
point $-1 -45.130190532837105 -9.5176919636111741 4.3213600357925275 #
straight-curve $-1 -47.350077822199161 1.5816218016160981 31.581517584536023 0 0 -1 I I #
point $-1 -47.350077822199161 1.5816218016160981 6.6497238694501402 #
straight-curve $-1 -47.350077822199161 -0.66343917780674211 3.5662971542116635 0 -1 0 I I #
point $-1 -47.350077822199161 1.5816218016160981 3.5662971542116559 #
point $-1 -45.130190532837105 -2.5733784229975925 4.3213600357925275 #
point $-1 -45.130190532837105 -0.080378288229379535 4.3213600357925275 #
straight-curve $-1 -47.350077822199161 11.018935476997893 31.581517584536023 0 0 -1 I I #
point $-1 -47.350077822199161 11.018935476997893 6.6497238694501402 #
straight-curve $-1 -47.350077822199161 4.0552176598841552 3.5662971542116635 0 -1 0 I I #
point $-1 -47.350077822199161 11.018935476997893 3.5662971542116559 #
point $-1 -45.130190532837105 6.8639352523842021 4.3213600357925275 #
point $-1 -45.130190532837105 9.356935387152415 4.3213600357925275 #
straight-curve $-1 -35.550630083298884 27.289316330100043 6.6497238694501402 -1 0 0 I I #
End-of-ACIS-data 