500 0 6 0           
7 Unknown 11 ACIS 5.0 NT 24 Fri Mar 26 17:52:35 1999 
-1 9.9999999999999995e-007 1e-010 
body $-1 $6 $-1 $7 #
body $-1 $8 $-1 $9 #
body $-1 $10 $-1 $11 #
body $-1 $12 $-1 $13 #
body $-1 $14 $-1 $15 #
body $-1 $16 $-1 $17 #
lump $-1 $-1 $18 $0 #
transform $-1 1 0 0 0 1 0 0 0 1 51.328470717490156 34.924256776615842 10.4304868211102 1 rotate no_reflect no_shear #
lump $-1 $-1 $19 $1 #
transform $-1 1 0 0 0 1 0 0 0 1 51.328470717490156 34.924256776615842 10.4304868211102 1 rotate no_reflect no_shear #
lump $-1 $-1 $20 $2 #
transform $-1 1 0 0 0 1 0 0 0 1 51.328470717490156 34.924256776615842 10.4304868211102 1 rotate no_reflect no_shear #
lump $-1 $-1 $21 $3 #
transform $-1 1 0 0 0 1 0 0 0 1 51.328470717490156 34.924256776615842 10.4304868211102 1 rotate no_reflect no_shear #
lump $-1 $-1 $22 $4 #
transform $-1 1 0 0 0 1 0 0 0 1 51.328470717490156 34.924256776615842 10.4304868211102 1 rotate no_reflect no_shear #
lump $-1 $-1 $23 $5 #
transform $-1 1 0 0 0 1 0 0 0 1 51.328470717490156 34.924256776615842 10.4304868211102 1 rotate no_reflect no_shear #
shell $-1 $-1 $-1 $24 $-1 $6 #
shell $-1 $-1 $-1 $25 $-1 $8 #
shell $-1 $-1 $-1 $26 $-1 $10 #
shell $-1 $-1 $-1 $27 $-1 $12 #
shell $-1 $-1 $-1 $28 $-1 $14 #
shell $-1 $-1 $-1 $29 $-1 $16 #
face $-1 $30 $31 $18 $-1 $32 forward single #
face $-1 $33 $34 $19 $-1 $35 reversed single #
face $-1 $36 $37 $20 $-1 $38 forward single #
face $-1 $39 $40 $21 $-1 $41 reversed single #
face $-1 $42 $43 $22 $-1 $44 forward single #
face $-1 $45 $46 $23 $-1 $47 forward single #
face $-1 $48 $49 $18 $-1 $50 reversed single #
loop $-1 $-1 $51 $24 #
plane-surface $-1 0 0 10.4304868211102 0 0 1 1 0 0 forward_v I I I I #
face $-1 $52 $53 $19 $-1 $54 reversed single #
loop $-1 $-1 $55 $25 #
plane-surface $-1 36.153151245467605 -13.10544529553728 151.07407898429679 0 -1 0 -0.62932039886446345 0 -0.77714595512881146 forward_v I I I I #
face $-1 $56 $57 $20 $-1 $58 forward single #
loop $-1 $59 $60 $26 #
cone-surface $-1 48.04086090845118 -19.706702180390035 7.3523072961364972 -0.62932039886446345 0 -0.77714595512881146 0.77714595512881146 0 -0.62932039886446345 1 I I 0 1 1 forward I I I I #
face $-1 $61 $62 $21 $-1 $63 reversed single #
loop $-1 $-1 $64 $27 #
plane-surface $-1 -127.61744639435403 -28.599678117819064 73.178400256704748 0 1 0 -0.74314483375859142 0 0.66913059716165679 forward_v I I I I #
face $-1 $65 $66 $22 $-1 $67 forward single #
loop $-1 $68 $69 $28 #
cone-surface $-1 -47.722651165942281 -24.637873376878336 6.621370093409741 0.74314483375859142 0 -0.66913059716165679 0.66913059716165679 0 0.74314483375859142 1 I I 0 1 1 forward I I I I #
face $-1 $70 $71 $23 $-1 $72 forward single #
loop $-1 $73 $74 $29 #
cone-surface $-1 -47.722651165942281 -18.695166265467243 6.621370093409741 0.74314483375859142 0 -0.66913059716165679 0.66913059716165679 0 0.74314483375859142 1 I I 0 1 1 forward I I I I #
face $-1 $75 $76 $18 $-1 $77 reversed single #
loop $-1 $-1 $78 $30 #
plane-surface $-1 0 0 -10.4304868211102 0 0 1 1 0 0 forward_v I I I I #
coedge $-1 $79 $80 $81 $82 forward $31 $-1 #
face $-1 $83 $84 $19 $-1 $85 reversed single #
loop $-1 $-1 $86 $33 #
plane-surface $-1 -28.450956084600072 -19.706702180390035 71.294652182206562 0.62932039886446345 0 0.77714595512881146 0.77714595512881146 0 -0.62932039886446345 forward_v I I I I #
coedge $-1 $87 $88 $89 $90 reversed $34 $-1 #
face $-1 $-1 $91 $20 $-1 $92 forward single #
loop $-1 $93 $94 $36 #
cone-surface $-1 46.747812704045849 -19.706702180390035 5.7555257780840421 -0.62932039886446345 0 -0.77714595512881146 0.38857297756440573 0 -0.31466019943223172 1 I I -0.70710678118654746 0.70710678118654746 0.5 forward I I I I #
loop $-1 $-1 $95 $26 #
coedge $-1 $60 $60 $96 $97 reversed $37 $-1 #
face $-1 $98 $99 $21 $-1 $100 reversed single #
loop $-1 $-1 $101 $39 #
plane-surface $-1 -51.328470717490134 -21.666519821172791 4.4874997315271372 -0.74314483375859142 0 0.66913059716165679 0.66913059716165679 0 0.74314483375859142 forward_v I I I I #
coedge $-1 $102 $103 $104 $105 reversed $40 $-1 #
face $-1 $-1 $106 $22 $-1 $107 forward single #
loop $-1 $108 $109 $42 #
cone-surface $-1 -46.420803936260171 -24.637873376878336 5.4491816119199843 0.74314483375859142 0 -0.66913059716165679 0.3345652985808284 0 0.37157241687929571 1 I I -0.70710678118654746 0.70710678118654746 0.5 forward I I I I #
loop $-1 $-1 $110 $28 #
coedge $-1 $69 $69 $111 $112 reversed $43 $-1 #
face $-1 $-1 $113 $23 $-1 $114 forward single #
loop $-1 $115 $116 $45 #
cone-surface $-1 -46.420803936260171 -18.695166265467243 5.4491816119199843 0.74314483375859142 0 -0.66913059716165679 0.3345652985808284 0 0.37157241687929571 1 I I -0.70710678118654746 0.70710678118654746 0.5 forward I I I I #
loop $-1 $-1 $117 $29 #
coedge $-1 $74 $74 $118 $119 reversed $46 $-1 #
face $-1 $120 $121 $18 $-1 $122 reversed single #
loop $-1 $-1 $123 $48 #
plane-surface $-1 0 -34.924256776615842 0 0 1 0 0 0 1 forward_v I I I I #
coedge $-1 $124 $125 $126 $127 forward $49 $-1 #
coedge $-1 $128 $51 $129 $130 forward $31 $-1 #
coedge $-1 $51 $128 $131 $132 forward $31 $-1 #
coedge $-1 $133 $134 $51 $82 reversed $135 $-1 #
edge $-1 $136 -34.924256776615842 $137 34.924256776615842 $81 $138 forward 7 unknown #
face $-1 $139 $140 $19 $-1 $141 forward single #
loop $-1 $-1 $142 $52 #
plane-surface $-1 36.153151245467605 -26.307959065242791 151.07407898429679 0 1 0 0.62932039886446345 0 0.77714595512881146 forward_v I I I I #
coedge $-1 $143 $144 $145 $146 reversed $53 $-1 #
coedge $-1 $88 $55 $147 $148 reversed $34 $-1 #
coedge $-1 $55 $87 $143 $149 reversed $34 $-1 #
coedge $-1 $145 $150 $55 $90 forward $140 $-1 #
edge $-1 $151 -33.25189509475635 $152 -28.633451486624555 $89 $153 forward 7 unknown #
loop $-1 $-1 $96 $56 #
plane-surface $-1 -28.450956084600072 -19.706702180390035 71.294652182206562 0.62932039886446345 0 0.77714595512881146 0.77714595512881146 0 -0.62932039886446345 forward_v I I I I #
loop $-1 $-1 $154 $36 #
coedge $-1 $94 $94 $95 $155 reversed $57 $-1 #
coedge $-1 $95 $95 $94 $155 forward $59 $-1 #
coedge $-1 $96 $96 $60 $97 forward $91 $-1 #
edge $-1 $156 0 $156 6.2831853071796004 $96 $157 forward 7 unknown #
face $-1 $158 $159 $21 $-1 $160 reversed single #
loop $-1 $-1 $161 $61 #
plane-surface $-1 -127.61744639435403 -14.733361524526519 73.178400256704748 0 -1 0 0.74314483375859142 0 -0.66913059716165679 forward_v I I I I #
coedge $-1 $162 $163 $164 $165 reversed $62 $-1 #
coedge $-1 $103 $64 $166 $167 reversed $40 $-1 #
coedge $-1 $64 $102 $162 $168 reversed $40 $-1 #
coedge $-1 $164 $169 $64 $105 forward $170 $-1 #
edge $-1 $171 12.480252479686861 $172 17.831341957176988 $104 $173 forward 7 unknown #
loop $-1 $-1 $111 $65 #
plane-surface $-1 -51.328470717490134 -21.666519821172791 4.4874997315271372 -0.74314483375859142 0 0.66913059716165679 0.66913059716165679 0 0.74314483375859142 forward_v I I I I #
loop $-1 $-1 $174 $42 #
coedge $-1 $109 $109 $110 $175 reversed $66 $-1 #
coedge $-1 $110 $110 $109 $175 forward $68 $-1 #
coedge $-1 $111 $111 $69 $112 forward $106 $-1 #
edge $-1 $176 0 $176 6.2831853071796004 $111 $177 forward 7 unknown #
loop $-1 $-1 $118 $70 #
plane-surface $-1 -51.328470717490134 -21.666519821172791 4.4874997315271372 -0.74314483375859142 0 0.66913059716165679 0.66913059716165679 0 0.74314483375859142 forward_v I I I I #
loop $-1 $-1 $178 $45 #
coedge $-1 $116 $116 $117 $179 reversed $71 $-1 #
coedge $-1 $117 $117 $116 $179 forward $73 $-1 #
coedge $-1 $118 $118 $74 $119 forward $113 $-1 #
edge $-1 $180 0 $180 6.2831853071796004 $118 $181 forward 7 unknown #
face $-1 $182 $183 $18 $-1 $184 reversed single #
loop $-1 $-1 $185 $75 #
plane-surface $-1 -51.328470717490156 0 0 1 0 0 0 0 -1 forward_v I I I I #
coedge $-1 $186 $131 $187 $188 forward $76 $-1 #
coedge $-1 $189 $78 $186 $190 forward $49 $-1 #
coedge $-1 $78 $189 $191 $192 forward $49 $-1 #
coedge $-1 $134 $133 $78 $127 reversed $135 $-1 #
edge $-1 $193 -34.924256776615842 $194 34.924256776615842 $126 $195 forward 7 unknown #
coedge $-1 $80 $79 $196 $197 forward $31 $-1 #
coedge $-1 $198 $199 $79 $130 reversed $183 $-1 #
edge $-1 $137 -51.328470717490156 $200 51.328470717490156 $129 $201 forward 7 unknown #
coedge $-1 $123 $202 $80 $132 reversed $76 $-1 #
edge $-1 $203 -51.328470717490156 $136 51.328470717490156 $131 $204 forward 7 unknown #
coedge $-1 $126 $81 $202 $205 forward $135 $-1 #
coedge $-1 $81 $126 $198 $206 reversed $135 $-1 #
loop $-1 $-1 $133 $182 #
vertex $-1 $82 $207 #
vertex $-1 $82 $208 #
straight-curve $-1 51.328470717490156 0 10.4304868211102 0 1 0 I I #
face $-1 $-1 $209 $19 $-1 $210 reversed single #
loop $-1 $-1 $89 $83 #
plane-surface $-1 0 0 10.4304868211102 0 0 1 1 0 0 forward_v I I I I #
coedge $-1 $211 $212 $213 $214 reversed $84 $-1 #
coedge $-1 $215 $86 $88 $149 forward $53 $-1 #
coedge $-1 $86 $215 $211 $216 forward $53 $-1 #
coedge $-1 $213 $89 $86 $146 forward $140 $-1 #
edge $-1 $152 3.2520942053422619 $217 16.454607975047772 $145 $218 forward 7 unknown #
coedge $-1 $219 $220 $87 $148 forward $209 $-1 #
edge $-1 $221 -68.846494640009496 $151 -65.106552671038202 $147 $222 forward 7 unknown #
edge $-1 $152 96.714114894287192 $221 102.6569414349803 $88 $223 forward 7 unknown #
coedge $-1 $89 $213 $219 $224 forward $140 $-1 #
vertex $-1 $148 $225 #
vertex $-1 $90 $226 #
straight-curve $-1 18.076575622733802 -13.10544529553728 10.430486821110193 -1 0 0 I I #
coedge $-1 $154 $154 $-1 $227 reversed $93 $-1 #
edge $-1 $228 0 $228 6.2831853071796004 $94 $229 forward 7 unknown #
vertex $-1 $97 $230 #
ellipse-curve $-1 49.019248913424271 -19.706702180390035 8.5605158366245337 0.62932039886446345 0 0.77714595512881146 0.77714595512881146 0 -0.62932039886446345 1 I I #
face $-1 $-1 $170 $21 $-1 $231 forward single #
loop $-1 $-1 $232 $98 #
plane-surface $-1 -51.328470717490156 0 0 1 0 0 0 0 -1 forward_v I I I I #
coedge $-1 $233 $234 $235 $236 reversed $99 $-1 #
coedge $-1 $237 $101 $103 $168 forward $62 $-1 #
coedge $-1 $101 $237 $233 $238 forward $62 $-1 #
coedge $-1 $235 $104 $101 $165 forward $170 $-1 #
edge $-1 $172 -17.766418207232668 $239 -3.900101613940123 $164 $240 forward 7 unknown #
coedge $-1 $241 $242 $102 $167 forward $159 $-1 #
edge $-1 $243 -32.101700396825258 $171 -26.158713307242174 $166 $244 forward 7 unknown #
edge $-1 $172 -7.9970778502560735 $243 3.208459706215348e-014 $103 $245 forward 7 unknown #
coedge $-1 $104 $235 $241 $246 forward $170 $-1 #
loop $-1 $-1 $235 $158 #
vertex $-1 $167 $247 #
vertex $-1 $105 $248 #
straight-curve $-1 -63.808723197177017 -28.599678117819064 10.4304868211102 1 0 0 I I #
coedge $-1 $174 $174 $-1 $249 reversed $108 $-1 #
edge $-1 $250 0 $250 6.2831853071796004 $109 $251 forward 7 unknown #
vertex $-1 $112 $252 #
ellipse-curve $-1 -48.652925978745088 -24.637873376878336 7.4589932763186608 -0.74314483375859142 0 0.66913059716165679 0.66913059716165679 0 0.74314483375859142 1 I I #
coedge $-1 $178 $178 $-1 $253 reversed $115 $-1 #
edge $-1 $254 0 $254 6.2831853071796004 $116 $255 forward 7 unknown #
vertex $-1 $119 $256 #
ellipse-curve $-1 -48.652925978745088 -18.695166265467243 7.4589932763186608 -0.74314483375859142 0 0.66913059716165679 0.66913059716165679 0 0.74314483375859142 1 I I #
face $-1 $-1 $135 $18 $-1 $257 reversed single #
loop $-1 $-1 $198 $120 #
plane-surface $-1 0 34.924256776615842 0 0 -1 0 0 0 -1 forward_v I I I I #
coedge $-1 $258 $196 $199 $259 forward $121 $-1 #
coedge $-1 $202 $123 $124 $190 reversed $76 $-1 #
coedge $-1 $196 $258 $123 $188 reversed $121 $-1 #
edge $-1 $203 -10.4304868211102 $260 10.4304868211102 $187 $261 forward 7 unknown #
coedge $-1 $125 $124 $258 $262 forward $49 $-1 #
edge $-1 $194 -51.328470717490156 $260 51.328470717490156 $186 $263 forward 7 unknown #
coedge $-1 $199 $198 $125 $192 reversed $183 $-1 #
edge $-1 $264 -51.328470717490156 $193 51.328470717490156 $191 $265 forward 7 unknown #
vertex $-1 $127 $266 #
vertex $-1 $205 $267 #
straight-curve $-1 51.328470717490156 0 -10.4304868211102 0 -1 0 I I #
coedge $-1 $185 $187 $128 $197 reversed $121 $-1 #
edge $-1 $200 -34.924256776615842 $203 34.924256776615842 $196 $268 forward 7 unknown #
coedge $-1 $191 $129 $134 $206 forward $183 $-1 #
coedge $-1 $129 $191 $185 $259 reversed $183 $-1 #
vertex $-1 $130 $269 #
straight-curve $-1 0 34.924256776615842 10.4304868211102 -1 0 0 I I #
coedge $-1 $131 $186 $133 $205 reversed $76 $-1 #
vertex $-1 $197 $270 #
straight-curve $-1 0 -34.924256776615842 10.4304868211102 1 0 0 I I #
edge $-1 $136 -10.4304868211102 $194 10.4304868211102 $133 $271 forward 7 unknown #
edge $-1 $137 -10.4304868211102 $193 10.4304868211102 $134 $272 forward 7 unknown #
point $-1 51.328470717490156 -34.924256776615842 10.4304868211102 #
point $-1 51.328470717490156 34.924256776615842 10.4304868211102 #
loop $-1 $-1 $147 $139 #
plane-surface $-1 51.328470717490156 0 0 -1 0 0 0 0 1 forward_v I I I I #
coedge $-1 $212 $142 $144 $216 reversed $84 $-1 #
coedge $-1 $142 $211 $273 $274 reversed $84 $-1 #
coedge $-1 $150 $145 $142 $214 forward $140 $-1 #
edge $-1 $217 28.633451486624555 $275 33.25189509475635 $213 $276 forward 7 unknown #
coedge $-1 $144 $143 $220 $277 reversed $53 $-1 #
edge $-1 $278 -102.6569414349803 $217 -96.714114894287192 $211 $279 forward 7 unknown #
vertex $-1 $146 $280 #
straight-curve $-1 46.710027109358371 -9.8533510901950176 10.430486821110193 0 -1 0 I I #
coedge $-1 $273 $147 $150 $224 reversed $209 $-1 #
coedge $-1 $147 $273 $215 $277 forward $209 $-1 #
vertex $-1 $148 $281 #
straight-curve $-1 51.328470717490156 -13.10544529553728 75.537039492148395 0 0 1 I I #
straight-curve $-1 -28.450956084600072 -13.10544529553728 71.294652182206562 0.77714595512881146 0 -0.62932039886446345 I I #
edge $-1 $275 -26.307959065242791 $151 -13.10544529553728 $219 $282 forward 7 unknown #
point $-1 51.328470717490156 -13.10544529553728 10.4304868211102 #
point $-1 46.710027109358357 -13.10544529553728 10.4304868211102 #
edge $-1 $283 1 $283 0 $154 $-1 forward 7 unknown #
vertex $-1 $155 $284 #
ellipse-curve $-1 47.062472903478081 -19.706702180390035 6.1440987556484474 0.62932039886446345 0 0.77714595512881146 0.77714595512881146 0 -0.62932039886446345 1 I I #
point $-1 49.796394868553087 -19.706702180390035 7.9311954377600831 #
plane-surface $-1 0 0 10.4304868211102 0 0 1 1 0 0 forward_v I I I I #
coedge $-1 $242 $241 $234 $285 forward $159 $-1 #
coedge $-1 $234 $161 $163 $238 reversed $99 $-1 #
coedge $-1 $161 $233 $232 $285 reversed $99 $-1 #
coedge $-1 $169 $164 $161 $236 forward $170 $-1 #
edge $-1 $239 -17.831341957176988 $286 -12.480252479686861 $235 $287 forward 7 unknown #
coedge $-1 $163 $162 $242 $288 reversed $62 $-1 #
edge $-1 $289 -3.208459706215348e-014 $239 7.9970778502560735 $233 $290 forward 7 unknown #
vertex $-1 $165 $291 #
straight-curve $-1 -45.977381240000028 -10.833259910586396 10.430486821110202 0 1 0 I I #
coedge $-1 $232 $166 $169 $246 reversed $159 $-1 #
coedge $-1 $166 $232 $237 $288 forward $159 $-1 #
vertex $-1 $167 $292 #
straight-curve $-1 -51.328470717490156 -28.599678117819064 36.589200128352374 0 0 1 I I #
straight-curve $-1 -51.328470717490134 -28.599678117819064 4.4874997315271372 -0.66913059716165679 0 -0.74314483375859142 I I #
edge $-1 $286 14.733361524526519 $171 28.599678117819064 $241 $293 forward 7 unknown #
point $-1 -51.328470717490156 -28.599678117819064 10.4304868211102 #
point $-1 -45.977381240000028 -28.599678117819064 10.4304868211102 #
edge $-1 $294 1 $294 0 $174 $-1 forward 7 unknown #
vertex $-1 $175 $295 #
ellipse-curve $-1 -46.792376353139467 -24.637873376878336 5.7837469105008124 -0.74314483375859142 0 0.66913059716165679 0.66913059716165679 0 0.74314483375859142 1 I I #
point $-1 -47.983795381583441 -24.637873376878336 8.2021381100772608 #
edge $-1 $296 1 $296 0 $178 $-1 forward 7 unknown #
vertex $-1 $179 $297 #
ellipse-curve $-1 -46.792376353139467 -18.695166265467243 5.7837469105008124 -0.74314483375859142 0 0.66913059716165679 0.66913059716165679 0 0.74314483375859142 1 I I #
point $-1 -47.983795381583441 -18.695166265467243 8.2021381100772608 #
plane-surface $-1 51.328470717490156 0 0 -1 0 0 0 0 1 forward_v I I I I #
coedge $-1 $187 $185 $189 $262 reversed $121 $-1 #
edge $-1 $200 -10.4304868211102 $264 10.4304868211102 $199 $298 forward 7 unknown #
vertex $-1 $262 $299 #
straight-curve $-1 -51.328470717490156 -34.924256776615842 0 0 0 -1 I I #
edge $-1 $260 -34.924256776615842 $264 34.924256776615842 $258 $300 forward 7 unknown #
straight-curve $-1 0 -34.924256776615842 -10.4304868211102 -1 0 0 I I #
vertex $-1 $192 $301 #
straight-curve $-1 0 34.924256776615842 -10.4304868211102 1 0 0 I I #
point $-1 51.328470717490156 34.924256776615842 -10.4304868211102 #
point $-1 51.328470717490156 -34.924256776615842 -10.4304868211102 #
straight-curve $-1 -51.328470717490156 0 10.4304868211102 0 -1 0 I I #
point $-1 -51.328470717490156 34.924256776615842 10.4304868211102 #
point $-1 -51.328470717490156 -34.924256776615842 10.4304868211102 #
straight-curve $-1 51.328470717490156 -34.924256776615842 0 0 0 -1 I I #
straight-curve $-1 51.328470717490156 34.924256776615842 0 0 0 -1 I I #
coedge $-1 $220 $219 $212 $274 forward $209 $-1 #
edge $-1 $275 65.106552671038202 $278 68.846494640009496 $273 $302 forward 7 unknown #
vertex $-1 $224 $303 #
straight-curve $-1 18.076575622733802 -26.307959065242791 10.430486821110193 1 0 0 I I #
edge $-1 $278 -16.454607975047772 $221 -3.2520942053422619 $220 $304 forward 7 unknown #
vertex $-1 $277 $305 #
straight-curve $-1 -28.450956084600072 -26.307959065242791 71.294652182206562 -0.77714595512881146 0 0.62932039886446345 I I #
point $-1 46.710027109358357 -26.307959065242791 10.4304868211102 #
point $-1 51.328470717490156 -13.10544529553728 6.690544852138899 #
straight-curve $-1 51.328470717490156 0 10.4304868211102 0 1 0 I I #
vertex $-1 $227 $306 #
point $-1 47.83961885860689 -19.706702180390035 5.5147783567839843 #
edge $-1 $286 26.158713307242174 $289 32.101700396825258 $232 $307 forward 7 unknown #
vertex $-1 $246 $308 #
straight-curve $-1 -63.808723197177017 -14.733361524526519 10.4304868211102 -1 0 0 I I #
edge $-1 $289 3.900101613940123 $243 17.766418207232668 $242 $309 forward 7 unknown #
vertex $-1 $288 $310 #
straight-curve $-1 -51.328470717490134 -14.733361524526519 4.4874997315271372 0.66913059716165679 0 0.74314483375859142 I I #
point $-1 -45.977381240000028 -14.733361524526519 10.4304868211102 #
point $-1 -51.328470717490156 -28.599678117819064 4.4874997315271132 #
straight-curve $-1 -51.328470717490156 0 10.4304868211102 0 -1 0 I I #
vertex $-1 $249 $311 #
point $-1 -46.123245755977813 -24.637873376878336 6.5268917442594043 #
vertex $-1 $253 $312 #
point $-1 -46.123245755977813 -18.695166265467243 6.5268917442594043 #
straight-curve $-1 -51.328470717490156 34.924256776615842 0 0 0 -1 I I #
point $-1 -51.328470717490156 -34.924256776615842 -10.4304868211102 #
straight-curve $-1 -51.328470717490156 0 -10.4304868211102 0 1 0 I I #
point $-1 -51.328470717490156 34.924256776615842 -10.4304868211102 #
straight-curve $-1 51.328470717490156 -26.307959065242791 75.537039492148395 0 0 -1 I I #
point $-1 51.328470717490156 -26.307959065242791 10.4304868211102 #
straight-curve $-1 51.328470717490148 -9.8533510901950176 6.6905448521389026 0 1 0 I I #
point $-1 51.328470717490156 -26.307959065242791 6.690544852138899 #
point $-1 46.433152504613616 -19.706702180390035 5.3669528005196367 #
straight-curve $-1 -51.328470717490156 -14.733361524526519 36.589200128352374 0 0 -1 I I #
point $-1 -51.328470717490156 -14.733361524526519 10.4304868211102 #
straight-curve $-1 -51.328470717490156 -10.833259910586396 4.4874997315271177 0 -1 0 I I #
point $-1 -51.328470717490156 -14.733361524526519 4.4874997315271132 #
point $-1 -46.049231519380875 -24.637873376878336 5.1146163133391562 #
point $-1 -46.049231519380875 -18.695166265467243 5.1146163133391562 #
End-of-ACIS-data 