500 0 8 0           
7 Unknown 11 ACIS 5.0 NT 24 Thu Mar 25 15:24:00 1999 
-1 9.9999999999999995e-007 1e-010 
body $-1 $8 $-1 $9 #
body $-1 $10 $-1 $11 #
body $-1 $12 $-1 $13 #
body $-1 $14 $-1 $15 #
body $-1 $16 $-1 $17 #
body $-1 $18 $-1 $19 #
body $-1 $20 $-1 $21 #
body $-1 $22 $-1 $23 #
lump $-1 $-1 $24 $0 #
transform $-1 1 0 0 0 1 0 0 0 1 69.801934873500784 44.833262774977797 21.164277329505648 1 rotate no_reflect no_shear #
lump $-1 $-1 $25 $1 #
transform $-1 1 0 0 0 1 0 0 0 1 69.801934873500784 11.021868881309954 4.1384891547392666 1 rotate no_reflect no_shear #
lump $-1 $-1 $26 $2 #
transform $-1 1 0 0 0 1 0 0 0 1 69.801934873500784 78.644656668645638 4.1384891547392666 1 rotate no_reflect no_shear #
lump $-1 $-1 $27 $3 #
transform $-1 0.78801074757464917 0 0.61566148304635926 0 1 0 -0.61566148304635926 0 0.78801074757464917 -85.948725487449735 37.996592463858363 141.39799707104066 1 rotate no_reflect no_shear #
lump $-1 $-1 $28 $4 #
transform $-1 0.78801074757464917 0 0.61566148304635926 0 -1 0 0.61566148304635926 0 -0.78801074757464917 8.2859146161570081 37.996592463858363 35.214268549349214 1 rotate no_reflect no_shear #
lump $-1 $-1 $29 $5 #
transform $-1 0.85716729658548041 0 -0.51503808176128008 0 1 0 0.51503808176128008 0 0.85716729658548041 91.841307404039995 63.301837151045426 221.12115812187233 1 rotate no_reflect no_shear #
lump $-1 $-1 $30 $6 #
transform $-1 0.85716729658548041 0 -0.51503808176128008 0 -1 0 -0.51503808176128008 0 -0.85716729658548041 127.16548415162173 61.450001164063885 32.930225522968179 1 rotate no_reflect no_shear #
lump $-1 $-1 $31 $7 #
transform $-1 0.85716729658548041 0 -0.51503808176128008 0 -1 0 -0.51503808176128008 0 -0.85716729658548041 127.16548415162173 65.15367313802696 32.930225522968179 1 rotate no_reflect no_shear #
shell $-1 $-1 $-1 $32 $-1 $8 #
shell $-1 $-1 $-1 $33 $-1 $10 #
shell $-1 $-1 $-1 $34 $-1 $12 #
shell $-1 $-1 $-1 $35 $-1 $14 #
shell $-1 $-1 $-1 $36 $-1 $16 #
shell $-1 $-1 $-1 $37 $-1 $18 #
shell $-1 $-1 $-1 $38 $-1 $20 #
shell $-1 $-1 $-1 $39 $-1 $22 #
face $-1 $40 $41 $24 $-1 $42 forward single #
face $-1 $43 $44 $25 $-1 $45 forward single #
face $-1 $46 $47 $26 $-1 $48 forward single #
face $-1 $49 $50 $27 $-1 $51 forward single #
face $-1 $52 $53 $28 $-1 $54 forward single #
face $-1 $55 $56 $29 $-1 $57 forward single #
face $-1 $58 $59 $30 $-1 $60 forward single #
face $-1 $61 $62 $31 $-1 $63 forward single #
face $-1 $64 $65 $24 $-1 $66 reversed single #
loop $-1 $-1 $67 $32 #
plane-surface $-1 0 0 21.164277329505648 0 0 1 1 0 0 forward_v I I I I #
face $-1 $68 $69 $25 $-1 $70 reversed single #
loop $-1 $-1 $71 $33 #
plane-surface $-1 0 0 4.1384891547392666 0 0 1 1 0 0 forward_v I I I I #
face $-1 $72 $73 $26 $-1 $74 reversed single #
loop $-1 $-1 $75 $34 #
plane-surface $-1 0 0 4.1384891547392666 0 0 1 1 0 0 forward_v I I I I #
face $-1 $76 $77 $27 $-1 $78 reversed single #
loop $-1 $-1 $79 $35 #
plane-surface $-1 0 0 139.60386974700157 0 0 1 1 0 0 forward_v I I I I #
face $-1 $80 $81 $28 $-1 $82 forward single #
loop $-1 $83 $84 $36 #
cone-surface $-1 0 0 -1.2933439130832838 0 0 1 1 0 0 1 I I 0 1 1 forward I I I I #
face $-1 $85 $86 $29 $-1 $87 reversed single #
loop $-1 $-1 $88 $37 #
plane-surface $-1 0 0 139.60386974700157 0 0 1 1 0 0 forward_v I I I I #
face $-1 $89 $90 $30 $-1 $91 forward single #
loop $-1 $92 $93 $38 #
cone-surface $-1 0 0 -2.0069734794152652 0 0 1 1 0 0 1 I I 0 1 1 forward I I I I #
face $-1 $94 $95 $31 $-1 $96 forward single #
loop $-1 $97 $98 $39 #
cone-surface $-1 0 0 -2.0069734794152652 0 0 1 1 0 0 1 I I 0 1 1 forward I I I I #
face $-1 $99 $100 $24 $-1 $101 reversed single #
loop $-1 $-1 $102 $40 #
plane-surface $-1 0 0 -21.164277329505648 0 0 1 1 0 0 forward_v I I I I #
coedge $-1 $103 $104 $105 $106 forward $41 $-1 #
face $-1 $107 $108 $25 $-1 $109 reversed single #
loop $-1 $-1 $110 $43 #
plane-surface $-1 0 0 -4.1384891547392666 0 0 1 1 0 0 forward_v I I I I #
coedge $-1 $111 $112 $113 $114 forward $44 $-1 #
face $-1 $115 $116 $26 $-1 $117 reversed single #
loop $-1 $-1 $118 $46 #
plane-surface $-1 0 0 -4.1384891547392666 0 0 1 1 0 0 forward_v I I I I #
coedge $-1 $119 $120 $121 $122 forward $47 $-1 #
face $-1 $123 $124 $27 $-1 $125 reversed single #
loop $-1 $-1 $126 $49 #
plane-surface $-1 0 0 -139.60386974700157 0 0 1 1 0 0 forward_v I I I I #
coedge $-1 $127 $128 $129 $130 forward $50 $-1 #
face $-1 $-1 $131 $28 $-1 $132 forward single #
loop $-1 $-1 $133 $52 #
plane-surface $-1 0 0 -2.0866878261665693 0 0 -1 -1 0 0 forward_v I I I I #
loop $-1 $-1 $134 $36 #
coedge $-1 $84 $84 $133 $135 reversed $53 $-1 #
face $-1 $136 $137 $29 $-1 $138 reversed single #
loop $-1 $-1 $139 $55 #
plane-surface $-1 0 0 -139.60386974700157 0 0 1 1 0 0 forward_v I I I I #
coedge $-1 $140 $141 $142 $143 forward $56 $-1 #
face $-1 $-1 $144 $30 $-1 $145 forward single #
loop $-1 $-1 $146 $58 #
plane-surface $-1 0 0 -3.5139469588305303 0 0 -1 -1 0 0 forward_v I I I I #
loop $-1 $-1 $147 $38 #
coedge $-1 $93 $93 $146 $148 reversed $59 $-1 #
face $-1 $-1 $149 $31 $-1 $150 forward single #
loop $-1 $-1 $151 $61 #
plane-surface $-1 0 0 -3.5139469588305303 0 0 -1 -1 0 0 forward_v I I I I #
loop $-1 $-1 $152 $39 #
coedge $-1 $98 $98 $151 $153 reversed $62 $-1 #
face $-1 $154 $155 $24 $-1 $156 reversed single #
loop $-1 $-1 $157 $64 #
plane-surface $-1 0 -44.833262774977797 0 0 1 0 0 0 1 forward_v I I I I #
coedge $-1 $158 $159 $160 $161 forward $65 $-1 #
coedge $-1 $162 $67 $163 $164 forward $41 $-1 #
coedge $-1 $67 $162 $165 $166 forward $41 $-1 #
coedge $-1 $167 $168 $67 $106 reversed $169 $-1 #
edge $-1 $170 -44.833262774977797 $171 44.833262774977797 $105 $172 forward 7 unknown #
face $-1 $173 $174 $25 $-1 $175 reversed single #
loop $-1 $-1 $176 $68 #
plane-surface $-1 0 -11.021868881309954 0 0 1 0 0 0 1 forward_v I I I I #
coedge $-1 $177 $178 $179 $180 forward $69 $-1 #
coedge $-1 $181 $71 $182 $183 forward $44 $-1 #
coedge $-1 $71 $181 $184 $185 forward $44 $-1 #
coedge $-1 $186 $187 $71 $114 reversed $188 $-1 #
edge $-1 $189 -11.021868881309954 $190 11.021868881309954 $113 $191 forward 7 unknown #
face $-1 $192 $193 $26 $-1 $194 reversed single #
loop $-1 $-1 $195 $72 #
plane-surface $-1 0 -11.021868881309956 0 0 1 0 0 0 1 forward_v I I I I #
coedge $-1 $196 $197 $198 $199 forward $73 $-1 #
coedge $-1 $200 $75 $201 $202 forward $47 $-1 #
coedge $-1 $75 $200 $203 $204 forward $47 $-1 #
coedge $-1 $205 $206 $75 $122 reversed $207 $-1 #
edge $-1 $208 -11.021868881309956 $209 11.021868881309956 $121 $210 forward 7 unknown #
face $-1 $211 $212 $27 $-1 $213 reversed single #
loop $-1 $-1 $214 $76 #
plane-surface $-1 0 -5.7759752446177721 0 0 1 0 0 0 1 forward_v I I I I #
coedge $-1 $215 $216 $217 $218 forward $77 $-1 #
coedge $-1 $219 $79 $220 $221 forward $50 $-1 #
coedge $-1 $79 $219 $222 $223 forward $50 $-1 #
coedge $-1 $224 $225 $79 $130 reversed $226 $-1 #
edge $-1 $227 -5.7759752446177721 $228 5.7759752446177721 $129 $229 forward 7 unknown #
loop $-1 $230 $231 $80 #
cone-surface $-1 0 0 0 0 0 1 0.5 0 0 1 I I -0.70710678118654746 0.70710678118654746 0.5 forward I I I I #
coedge $-1 $133 $133 $84 $135 forward $81 $-1 #
coedge $-1 $134 $134 $231 $232 forward $83 $-1 #
edge $-1 $233 0 $233 6.2831853071796004 $133 $234 forward 7 unknown #
face $-1 $235 $236 $29 $-1 $237 reversed single #
loop $-1 $-1 $238 $85 #
plane-surface $-1 0 -4.3209506362902559 0 0 1 0 0 0 1 forward_v I I I I #
coedge $-1 $239 $240 $241 $242 forward $86 $-1 #
coedge $-1 $243 $88 $244 $245 forward $56 $-1 #
coedge $-1 $88 $243 $246 $247 forward $56 $-1 #
coedge $-1 $248 $249 $88 $143 reversed $250 $-1 #
edge $-1 $251 -4.3209506362902559 $252 4.3209506362902559 $142 $253 forward 7 unknown #
loop $-1 $254 $255 $89 #
cone-surface $-1 0 0 0 0 0 1 0.5 0 0 1 I I -0.70710678118654746 0.70710678118654746 0.5 forward I I I I #
coedge $-1 $146 $146 $93 $148 forward $90 $-1 #
coedge $-1 $147 $147 $255 $256 forward $92 $-1 #
edge $-1 $257 0 $257 6.2831853071796004 $146 $258 forward 7 unknown #
loop $-1 $259 $260 $94 #
cone-surface $-1 0 0 0 0 0 1 0.5 0 0 1 I I -0.70710678118654746 0.70710678118654746 0.5 forward I I I I #
coedge $-1 $151 $151 $98 $153 forward $95 $-1 #
coedge $-1 $152 $152 $260 $261 forward $97 $-1 #
edge $-1 $262 0 $262 6.2831853071796004 $151 $263 forward 7 unknown #
face $-1 $264 $265 $24 $-1 $266 reversed single #
loop $-1 $-1 $267 $99 #
plane-surface $-1 -69.801934873500784 0 0 1 0 0 0 0 -1 forward_v I I I I #
coedge $-1 $268 $165 $269 $270 forward $100 $-1 #
coedge $-1 $271 $102 $268 $272 forward $65 $-1 #
coedge $-1 $102 $271 $273 $274 forward $65 $-1 #
coedge $-1 $168 $167 $102 $161 reversed $169 $-1 #
edge $-1 $275 -44.833262774977797 $276 44.833262774977797 $160 $277 forward 7 unknown #
coedge $-1 $104 $103 $278 $279 forward $41 $-1 #
coedge $-1 $280 $281 $103 $164 reversed $265 $-1 #
edge $-1 $171 -69.801934873500784 $282 69.801934873500784 $163 $283 forward 7 unknown #
coedge $-1 $157 $284 $104 $166 reversed $100 $-1 #
edge $-1 $285 -69.801934873500784 $170 69.801934873500784 $165 $286 forward 7 unknown #
coedge $-1 $160 $105 $284 $287 forward $169 $-1 #
coedge $-1 $105 $160 $280 $288 reversed $169 $-1 #
loop $-1 $-1 $167 $264 #
vertex $-1 $106 $289 #
vertex $-1 $106 $290 #
straight-curve $-1 69.801934873500784 0 21.164277329505648 0 1 0 I I #
face $-1 $291 $292 $25 $-1 $293 reversed single #
loop $-1 $-1 $294 $107 #
plane-surface $-1 -69.801934873500784 0 0 1 0 0 0 0 -1 forward_v I I I I #
coedge $-1 $295 $184 $296 $297 forward $108 $-1 #
coedge $-1 $298 $110 $295 $299 forward $69 $-1 #
coedge $-1 $110 $298 $300 $301 forward $69 $-1 #
coedge $-1 $187 $186 $110 $180 reversed $188 $-1 #
edge $-1 $302 -11.021868881309954 $303 11.021868881309954 $179 $304 forward 7 unknown #
coedge $-1 $112 $111 $305 $306 forward $44 $-1 #
coedge $-1 $307 $308 $111 $183 reversed $292 $-1 #
edge $-1 $190 -69.801934873500784 $309 69.801934873500784 $182 $310 forward 7 unknown #
coedge $-1 $176 $311 $112 $185 reversed $108 $-1 #
edge $-1 $312 -69.801934873500784 $189 69.801934873500784 $184 $313 forward 7 unknown #
coedge $-1 $179 $113 $311 $314 forward $188 $-1 #
coedge $-1 $113 $179 $307 $315 reversed $188 $-1 #
loop $-1 $-1 $186 $291 #
vertex $-1 $114 $316 #
vertex $-1 $114 $317 #
straight-curve $-1 69.801934873500784 0 4.1384891547392666 0 1 0 I I #
face $-1 $318 $319 $26 $-1 $320 reversed single #
loop $-1 $-1 $321 $115 #
plane-surface $-1 -69.801934873500784 0 0 1 0 0 0 0 -1 forward_v I I I I #
coedge $-1 $322 $203 $323 $324 forward $116 $-1 #
coedge $-1 $325 $118 $322 $326 forward $73 $-1 #
coedge $-1 $118 $325 $327 $328 forward $73 $-1 #
coedge $-1 $206 $205 $118 $199 reversed $207 $-1 #
edge $-1 $329 -11.021868881309956 $330 11.021868881309956 $198 $331 forward 7 unknown #
coedge $-1 $120 $119 $332 $333 forward $47 $-1 #
coedge $-1 $334 $335 $119 $202 reversed $319 $-1 #
edge $-1 $209 -69.801934873500784 $336 69.801934873500784 $201 $337 forward 7 unknown #
coedge $-1 $195 $338 $120 $204 reversed $116 $-1 #
edge $-1 $339 -69.801934873500784 $208 69.801934873500784 $203 $340 forward 7 unknown #
coedge $-1 $198 $121 $338 $341 forward $207 $-1 #
coedge $-1 $121 $198 $334 $342 reversed $207 $-1 #
loop $-1 $-1 $205 $318 #
vertex $-1 $122 $343 #
vertex $-1 $122 $344 #
straight-curve $-1 69.801934873500784 0 4.1384891547392666 0 1 0 I I #
face $-1 $345 $346 $27 $-1 $347 reversed single #
loop $-1 $-1 $348 $123 #
plane-surface $-1 -279.20773949400314 0 0 1 0 0 0 0 -1 forward_v I I I I #
coedge $-1 $349 $222 $350 $351 forward $124 $-1 #
coedge $-1 $352 $126 $349 $353 forward $77 $-1 #
coedge $-1 $126 $352 $354 $355 forward $77 $-1 #
coedge $-1 $225 $224 $126 $218 reversed $226 $-1 #
edge $-1 $356 -5.7759752446177721 $357 5.7759752446177721 $217 $358 forward 7 unknown #
coedge $-1 $128 $127 $359 $360 forward $50 $-1 #
coedge $-1 $361 $362 $127 $221 reversed $346 $-1 #
edge $-1 $228 -279.20773949400314 $363 279.20773949400314 $220 $364 forward 7 unknown #
coedge $-1 $214 $365 $128 $223 reversed $124 $-1 #
edge $-1 $366 -279.20773949400314 $227 279.20773949400314 $222 $367 forward 7 unknown #
coedge $-1 $217 $129 $365 $368 forward $226 $-1 #
coedge $-1 $129 $217 $361 $369 reversed $226 $-1 #
loop $-1 $-1 $224 $345 #
vertex $-1 $130 $370 #
vertex $-1 $130 $371 #
straight-curve $-1 279.20773949400314 0 139.60386974700157 0 1 0 I I #
loop $-1 $-1 $372 $80 #
coedge $-1 $231 $231 $134 $232 reversed $131 $-1 #
edge $-1 $373 0 $373 6.2831853071796004 $231 $374 forward 7 unknown #
vertex $-1 $135 $375 #
ellipse-curve $-1 0 0 -2.0866878261665693 0 0 -1 1 0 0 1 I I #
face $-1 $376 $377 $29 $-1 $378 reversed single #
loop $-1 $-1 $379 $136 #
plane-surface $-1 -279.20773949400314 0 0 1 0 0 0 0 -1 forward_v I I I I #
coedge $-1 $380 $246 $381 $382 forward $137 $-1 #
coedge $-1 $383 $139 $380 $384 forward $86 $-1 #
coedge $-1 $139 $383 $385 $386 forward $86 $-1 #
coedge $-1 $249 $248 $139 $242 reversed $250 $-1 #
edge $-1 $387 -4.3209506362902559 $388 4.3209506362902559 $241 $389 forward 7 unknown #
coedge $-1 $141 $140 $390 $391 forward $56 $-1 #
coedge $-1 $392 $393 $140 $245 reversed $377 $-1 #
edge $-1 $252 -279.20773949400314 $394 279.20773949400314 $244 $395 forward 7 unknown #
coedge $-1 $238 $396 $141 $247 reversed $137 $-1 #
edge $-1 $397 -279.20773949400314 $251 279.20773949400314 $246 $398 forward 7 unknown #
coedge $-1 $241 $142 $396 $399 forward $250 $-1 #
coedge $-1 $142 $241 $392 $400 reversed $250 $-1 #
loop $-1 $-1 $248 $376 #
vertex $-1 $143 $401 #
vertex $-1 $143 $402 #
straight-curve $-1 279.20773949400314 0 139.60386974700157 0 1 0 I I #
loop $-1 $-1 $403 $89 #
coedge $-1 $255 $255 $147 $256 reversed $144 $-1 #
edge $-1 $404 0 $404 6.2831853071796004 $255 $405 forward 7 unknown #
vertex $-1 $148 $406 #
ellipse-curve $-1 0 0 -3.5139469588305303 0 0 -1 1 0 0 1 I I #
loop $-1 $-1 $407 $94 #
coedge $-1 $260 $260 $152 $261 reversed $149 $-1 #
edge $-1 $408 0 $408 6.2831853071796004 $260 $409 forward 7 unknown #
vertex $-1 $153 $410 #
ellipse-curve $-1 0 0 -3.5139469588305303 0 0 -1 1 0 0 1 I I #
face $-1 $-1 $169 $24 $-1 $411 reversed single #
loop $-1 $-1 $280 $154 #
plane-surface $-1 0 44.833262774977797 0 0 -1 0 0 0 -1 forward_v I I I I #
coedge $-1 $412 $278 $281 $413 forward $155 $-1 #
coedge $-1 $284 $157 $158 $272 reversed $100 $-1 #
coedge $-1 $278 $412 $157 $270 reversed $155 $-1 #
edge $-1 $285 -21.164277329505648 $414 21.164277329505648 $269 $415 forward 7 unknown #
coedge $-1 $159 $158 $412 $416 forward $65 $-1 #
edge $-1 $276 -69.801934873500784 $414 69.801934873500784 $268 $417 forward 7 unknown #
coedge $-1 $281 $280 $159 $274 reversed $265 $-1 #
edge $-1 $418 -69.801934873500784 $275 69.801934873500784 $273 $419 forward 7 unknown #
vertex $-1 $161 $420 #
vertex $-1 $287 $421 #
straight-curve $-1 69.801934873500784 0 -21.164277329505648 0 -1 0 I I #
coedge $-1 $267 $269 $162 $279 reversed $155 $-1 #
edge $-1 $282 -44.833262774977797 $285 44.833262774977797 $278 $422 forward 7 unknown #
coedge $-1 $273 $163 $168 $288 forward $265 $-1 #
coedge $-1 $163 $273 $267 $413 reversed $265 $-1 #
vertex $-1 $164 $423 #
straight-curve $-1 0 44.833262774977797 21.164277329505648 -1 0 0 I I #
coedge $-1 $165 $268 $167 $287 reversed $100 $-1 #
vertex $-1 $279 $424 #
straight-curve $-1 0 -44.833262774977797 21.164277329505648 1 0 0 I I #
edge $-1 $170 -21.164277329505648 $276 21.164277329505648 $167 $425 forward 7 unknown #
edge $-1 $171 -21.164277329505648 $275 21.164277329505648 $168 $426 forward 7 unknown #
point $-1 69.801934873500784 -44.833262774977797 21.164277329505648 #
point $-1 69.801934873500784 44.833262774977797 21.164277329505648 #
face $-1 $-1 $188 $25 $-1 $427 reversed single #
loop $-1 $-1 $307 $173 #
plane-surface $-1 0 11.021868881309954 0 0 -1 0 0 0 -1 forward_v I I I I #
coedge $-1 $428 $305 $308 $429 forward $174 $-1 #
coedge $-1 $311 $176 $177 $299 reversed $108 $-1 #
coedge $-1 $305 $428 $176 $297 reversed $174 $-1 #
edge $-1 $312 -4.1384891547392666 $430 4.1384891547392666 $296 $431 forward 7 unknown #
coedge $-1 $178 $177 $428 $432 forward $69 $-1 #
edge $-1 $303 -69.801934873500784 $430 69.801934873500784 $295 $433 forward 7 unknown #
coedge $-1 $308 $307 $178 $301 reversed $292 $-1 #
edge $-1 $434 -69.801934873500784 $302 69.801934873500784 $300 $435 forward 7 unknown #
vertex $-1 $180 $436 #
vertex $-1 $314 $437 #
straight-curve $-1 69.801934873500784 0 -4.1384891547392666 0 -1 0 I I #
coedge $-1 $294 $296 $181 $306 reversed $174 $-1 #
edge $-1 $309 -11.021868881309954 $312 11.021868881309954 $305 $438 forward 7 unknown #
coedge $-1 $300 $182 $187 $315 forward $292 $-1 #
coedge $-1 $182 $300 $294 $429 reversed $292 $-1 #
vertex $-1 $183 $439 #
straight-curve $-1 0 11.021868881309954 4.1384891547392666 -1 0 0 I I #
coedge $-1 $184 $295 $186 $314 reversed $108 $-1 #
vertex $-1 $306 $440 #
straight-curve $-1 0 -11.021868881309954 4.1384891547392666 1 0 0 I I #
edge $-1 $189 -4.1384891547392666 $303 4.1384891547392666 $186 $441 forward 7 unknown #
edge $-1 $190 -4.1384891547392666 $302 4.1384891547392666 $187 $442 forward 7 unknown #
point $-1 69.801934873500784 -11.021868881309954 4.1384891547392666 #
point $-1 69.801934873500784 11.021868881309954 4.1384891547392666 #
face $-1 $-1 $207 $26 $-1 $443 reversed single #
loop $-1 $-1 $334 $192 #
plane-surface $-1 0 11.021868881309956 0 0 -1 0 0 0 -1 forward_v I I I I #
coedge $-1 $444 $332 $335 $445 forward $193 $-1 #
coedge $-1 $338 $195 $196 $326 reversed $116 $-1 #
coedge $-1 $332 $444 $195 $324 reversed $193 $-1 #
edge $-1 $339 -4.1384891547392666 $446 4.1384891547392666 $323 $447 forward 7 unknown #
coedge $-1 $197 $196 $444 $448 forward $73 $-1 #
edge $-1 $330 -69.801934873500784 $446 69.801934873500784 $322 $449 forward 7 unknown #
coedge $-1 $335 $334 $197 $328 reversed $319 $-1 #
edge $-1 $450 -69.801934873500784 $329 69.801934873500784 $327 $451 forward 7 unknown #
vertex $-1 $199 $452 #
vertex $-1 $341 $453 #
straight-curve $-1 69.801934873500784 0 -4.1384891547392666 0 -1 0 I I #
coedge $-1 $321 $323 $200 $333 reversed $193 $-1 #
edge $-1 $336 -11.021868881309956 $339 11.021868881309956 $332 $454 forward 7 unknown #
coedge $-1 $327 $201 $206 $342 forward $319 $-1 #
coedge $-1 $201 $327 $321 $445 reversed $319 $-1 #
vertex $-1 $202 $455 #
straight-curve $-1 0 11.021868881309956 4.1384891547392666 -1 0 0 I I #
coedge $-1 $203 $322 $205 $341 reversed $116 $-1 #
vertex $-1 $333 $456 #
straight-curve $-1 0 -11.021868881309956 4.1384891547392666 1 0 0 I I #
edge $-1 $208 -4.1384891547392666 $330 4.1384891547392666 $205 $457 forward 7 unknown #
edge $-1 $209 -4.1384891547392666 $329 4.1384891547392666 $206 $458 forward 7 unknown #
point $-1 69.801934873500784 -11.021868881309956 4.1384891547392666 #
point $-1 69.801934873500784 11.021868881309956 4.1384891547392666 #
face $-1 $-1 $226 $27 $-1 $459 reversed single #
loop $-1 $-1 $361 $211 #
plane-surface $-1 0 5.7759752446177721 0 0 -1 0 0 0 -1 forward_v I I I I #
coedge $-1 $460 $359 $362 $461 forward $212 $-1 #
coedge $-1 $365 $214 $215 $353 reversed $124 $-1 #
coedge $-1 $359 $460 $214 $351 reversed $212 $-1 #
edge $-1 $366 -139.60386974700157 $462 139.60386974700157 $350 $463 forward 7 unknown #
coedge $-1 $216 $215 $460 $464 forward $77 $-1 #
edge $-1 $357 -279.20773949400314 $462 279.20773949400314 $349 $465 forward 7 unknown #
coedge $-1 $362 $361 $216 $355 reversed $346 $-1 #
edge $-1 $466 -279.20773949400314 $356 279.20773949400314 $354 $467 forward 7 unknown #
vertex $-1 $218 $468 #
vertex $-1 $368 $469 #
straight-curve $-1 279.20773949400314 0 -139.60386974700157 0 -1 0 I I #
coedge $-1 $348 $350 $219 $360 reversed $212 $-1 #
edge $-1 $363 -5.7759752446177721 $366 5.7759752446177721 $359 $470 forward 7 unknown #
coedge $-1 $354 $220 $225 $369 forward $346 $-1 #
coedge $-1 $220 $354 $348 $461 reversed $346 $-1 #
vertex $-1 $221 $471 #
straight-curve $-1 0 5.7759752446177721 139.60386974700157 -1 0 0 I I #
coedge $-1 $222 $349 $224 $368 reversed $124 $-1 #
vertex $-1 $360 $472 #
straight-curve $-1 0 -5.7759752446177721 139.60386974700157 1 0 0 I I #
edge $-1 $227 -139.60386974700157 $357 139.60386974700157 $224 $473 forward 7 unknown #
edge $-1 $228 -139.60386974700157 $356 139.60386974700157 $225 $474 forward 7 unknown #
point $-1 279.20773949400314 -5.7759752446177721 139.60386974700157 #
point $-1 279.20773949400314 5.7759752446177721 139.60386974700157 #
coedge $-1 $372 $372 $-1 $475 reversed $230 $-1 #
vertex $-1 $232 $476 #
ellipse-curve $-1 0 0 -0.5 0 0 -1 1 0 0 1 I I #
point $-1 1 0 -2.0866878261665693 #
face $-1 $-1 $250 $29 $-1 $477 reversed single #
loop $-1 $-1 $392 $235 #
plane-surface $-1 0 4.3209506362902559 0 0 -1 0 0 0 -1 forward_v I I I I #
coedge $-1 $478 $390 $393 $479 forward $236 $-1 #
coedge $-1 $396 $238 $239 $384 reversed $137 $-1 #
coedge $-1 $390 $478 $238 $382 reversed $236 $-1 #
edge $-1 $397 -139.60386974700157 $480 139.60386974700157 $381 $481 forward 7 unknown #
coedge $-1 $240 $239 $478 $482 forward $86 $-1 #
edge $-1 $388 -279.20773949400314 $480 279.20773949400314 $380 $483 forward 7 unknown #
coedge $-1 $393 $392 $240 $386 reversed $377 $-1 #
edge $-1 $484 -279.20773949400314 $387 279.20773949400314 $385 $485 forward 7 unknown #
vertex $-1 $242 $486 #
vertex $-1 $399 $487 #
straight-curve $-1 279.20773949400314 0 -139.60386974700157 0 -1 0 I I #
coedge $-1 $379 $381 $243 $391 reversed $236 $-1 #
edge $-1 $394 -4.3209506362902559 $397 4.3209506362902559 $390 $488 forward 7 unknown #
coedge $-1 $385 $244 $249 $400 forward $377 $-1 #
coedge $-1 $244 $385 $379 $479 reversed $377 $-1 #
vertex $-1 $245 $489 #
straight-curve $-1 0 4.3209506362902559 139.60386974700157 -1 0 0 I I #
coedge $-1 $246 $380 $248 $399 reversed $137 $-1 #
vertex $-1 $391 $490 #
straight-curve $-1 0 -4.3209506362902559 139.60386974700157 1 0 0 I I #
edge $-1 $251 -139.60386974700157 $388 139.60386974700157 $248 $491 forward 7 unknown #
edge $-1 $252 -139.60386974700157 $387 139.60386974700157 $249 $492 forward 7 unknown #
point $-1 279.20773949400314 -4.3209506362902559 139.60386974700157 #
point $-1 279.20773949400314 4.3209506362902559 139.60386974700157 #
coedge $-1 $403 $403 $-1 $493 reversed $254 $-1 #
vertex $-1 $256 $494 #
ellipse-curve $-1 0 0 -0.5 0 0 -1 1 0 0 1 I I #
point $-1 1 0 -3.5139469588305303 #
coedge $-1 $407 $407 $-1 $495 reversed $259 $-1 #
vertex $-1 $261 $496 #
ellipse-curve $-1 0 0 -0.5 0 0 -1 1 0 0 1 I I #
point $-1 1 0 -3.5139469588305303 #
plane-surface $-1 69.801934873500784 0 0 -1 0 0 0 0 1 forward_v I I I I #
coedge $-1 $269 $267 $271 $416 reversed $155 $-1 #
edge $-1 $282 -21.164277329505648 $418 21.164277329505648 $281 $497 forward 7 unknown #
vertex $-1 $416 $498 #
straight-curve $-1 -69.801934873500784 -44.833262774977797 0 0 0 -1 I I #
edge $-1 $414 -44.833262774977797 $418 44.833262774977797 $412 $499 forward 7 unknown #
straight-curve $-1 0 -44.833262774977797 -21.164277329505648 -1 0 0 I I #
vertex $-1 $274 $500 #
straight-curve $-1 0 44.833262774977797 -21.164277329505648 1 0 0 I I #
point $-1 69.801934873500784 44.833262774977797 -21.164277329505648 #
point $-1 69.801934873500784 -44.833262774977797 -21.164277329505648 #
straight-curve $-1 -69.801934873500784 0 21.164277329505648 0 -1 0 I I #
point $-1 -69.801934873500784 44.833262774977797 21.164277329505648 #
point $-1 -69.801934873500784 -44.833262774977797 21.164277329505648 #
straight-curve $-1 69.801934873500784 -44.833262774977797 0 0 0 -1 I I #
straight-curve $-1 69.801934873500784 44.833262774977797 0 0 0 -1 I I #
plane-surface $-1 69.801934873500784 0 0 -1 0 0 0 0 1 forward_v I I I I #
coedge $-1 $296 $294 $298 $432 reversed $174 $-1 #
edge $-1 $309 -4.1384891547392666 $434 4.1384891547392666 $308 $501 forward 7 unknown #
vertex $-1 $432 $502 #
straight-curve $-1 -69.801934873500784 -11.021868881309954 0 0 0 -1 I I #
edge $-1 $430 -11.021868881309954 $434 11.021868881309954 $428 $503 forward 7 unknown #
straight-curve $-1 0 -11.021868881309954 -4.1384891547392666 -1 0 0 I I #
vertex $-1 $301 $504 #
straight-curve $-1 0 11.021868881309954 -4.1384891547392666 1 0 0 I I #
point $-1 69.801934873500784 11.021868881309954 -4.1384891547392666 #
point $-1 69.801934873500784 -11.021868881309954 -4.1384891547392666 #
straight-curve $-1 -69.801934873500784 0 4.1384891547392666 0 -1 0 I I #
point $-1 -69.801934873500784 11.021868881309954 4.1384891547392666 #
point $-1 -69.801934873500784 -11.021868881309954 4.1384891547392666 #
straight-curve $-1 69.801934873500784 -11.021868881309954 0 0 0 -1 I I #
straight-curve $-1 69.801934873500784 11.021868881309954 0 0 0 -1 I I #
plane-surface $-1 69.801934873500784 0 0 -1 0 0 0 0 1 forward_v I I I I #
coedge $-1 $323 $321 $325 $448 reversed $193 $-1 #
edge $-1 $336 -4.1384891547392666 $450 4.1384891547392666 $335 $505 forward 7 unknown #
vertex $-1 $448 $506 #
straight-curve $-1 -69.801934873500784 -11.021868881309956 0 0 0 -1 I I #
edge $-1 $446 -11.021868881309956 $450 11.021868881309956 $444 $507 forward 7 unknown #
straight-curve $-1 0 -11.021868881309956 -4.1384891547392666 -1 0 0 I I #
vertex $-1 $328 $508 #
straight-curve $-1 0 11.021868881309956 -4.1384891547392666 1 0 0 I I #
point $-1 69.801934873500784 11.021868881309956 -4.1384891547392666 #
point $-1 69.801934873500784 -11.021868881309956 -4.1384891547392666 #
straight-curve $-1 -69.801934873500784 0 4.1384891547392666 0 -1 0 I I #
point $-1 -69.801934873500784 11.021868881309956 4.1384891547392666 #
point $-1 -69.801934873500784 -11.021868881309956 4.1384891547392666 #
straight-curve $-1 69.801934873500784 -11.021868881309956 0 0 0 -1 I I #
straight-curve $-1 69.801934873500784 11.021868881309956 0 0 0 -1 I I #
plane-surface $-1 279.20773949400314 0 0 -1 0 0 0 0 1 forward_v I I I I #
coedge $-1 $350 $348 $352 $464 reversed $212 $-1 #
edge $-1 $363 -139.60386974700157 $466 139.60386974700157 $362 $509 forward 7 unknown #
vertex $-1 $464 $510 #
straight-curve $-1 -279.20773949400314 -5.7759752446177721 0 0 0 -1 I I #
edge $-1 $462 -5.7759752446177721 $466 5.7759752446177721 $460 $511 forward 7 unknown #
straight-curve $-1 0 -5.7759752446177721 -139.60386974700157 -1 0 0 I I #
vertex $-1 $355 $512 #
straight-curve $-1 0 5.7759752446177721 -139.60386974700157 1 0 0 I I #
point $-1 279.20773949400314 5.7759752446177721 -139.60386974700157 #
point $-1 279.20773949400314 -5.7759752446177721 -139.60386974700157 #
straight-curve $-1 -279.20773949400314 0 139.60386974700157 0 -1 0 I I #
point $-1 -279.20773949400314 5.7759752446177721 139.60386974700157 #
point $-1 -279.20773949400314 -5.7759752446177721 139.60386974700157 #
straight-curve $-1 279.20773949400314 -5.7759752446177721 0 0 0 -1 I I #
straight-curve $-1 279.20773949400314 5.7759752446177721 0 0 0 -1 I I #
edge $-1 $513 1 $513 0 $372 $-1 forward 7 unknown #
point $-1 1 0 -0.5 #
plane-surface $-1 279.20773949400314 0 0 -1 0 0 0 0 1 forward_v I I I I #
coedge $-1 $381 $379 $383 $482 reversed $236 $-1 #
edge $-1 $394 -139.60386974700157 $484 139.60386974700157 $393 $514 forward 7 unknown #
vertex $-1 $482 $515 #
straight-curve $-1 -279.20773949400314 -4.3209506362902559 0 0 0 -1 I I #
edge $-1 $480 -4.3209506362902559 $484 4.3209506362902559 $478 $516 forward 7 unknown #
straight-curve $-1 0 -4.3209506362902559 -139.60386974700157 -1 0 0 I I #
vertex $-1 $386 $517 #
straight-curve $-1 0 4.3209506362902559 -139.60386974700157 1 0 0 I I #
point $-1 279.20773949400314 4.3209506362902559 -139.60386974700157 #
point $-1 279.20773949400314 -4.3209506362902559 -139.60386974700157 #
straight-curve $-1 -279.20773949400314 0 139.60386974700157 0 -1 0 I I #
point $-1 -279.20773949400314 4.3209506362902559 139.60386974700157 #
point $-1 -279.20773949400314 -4.3209506362902559 139.60386974700157 #
straight-curve $-1 279.20773949400314 -4.3209506362902559 0 0 0 -1 I I #
straight-curve $-1 279.20773949400314 4.3209506362902559 0 0 0 -1 I I #
edge $-1 $518 1 $518 0 $403 $-1 forward 7 unknown #
point $-1 1 0 -0.5 #
edge $-1 $519 1 $519 0 $407 $-1 forward 7 unknown #
point $-1 1 0 -0.5 #
straight-curve $-1 -69.801934873500784 44.833262774977797 0 0 0 -1 I I #
point $-1 -69.801934873500784 -44.833262774977797 -21.164277329505648 #
straight-curve $-1 -69.801934873500784 0 -21.164277329505648 0 1 0 I I #
point $-1 -69.801934873500784 44.833262774977797 -21.164277329505648 #
straight-curve $-1 -69.801934873500784 11.021868881309954 0 0 0 -1 I I #
point $-1 -69.801934873500784 -11.021868881309954 -4.1384891547392666 #
straight-curve $-1 -69.801934873500784 0 -4.1384891547392666 0 1 0 I I #
point $-1 -69.801934873500784 11.021868881309954 -4.1384891547392666 #
straight-curve $-1 -69.801934873500784 11.021868881309956 0 0 0 -1 I I #
point $-1 -69.801934873500784 -11.021868881309956 -4.1384891547392666 #
straight-curve $-1 -69.801934873500784 0 -4.1384891547392666 0 1 0 I I #
point $-1 -69.801934873500784 11.021868881309956 -4.1384891547392666 #
straight-curve $-1 -279.20773949400314 5.7759752446177721 0 0 0 -1 I I #
point $-1 -279.20773949400314 -5.7759752446177721 -139.60386974700157 #
straight-curve $-1 -279.20773949400314 0 -139.60386974700157 0 1 0 I I #
point $-1 -279.20773949400314 5.7759752446177721 -139.60386974700157 #
vertex $-1 $475 $520 #
straight-curve $-1 -279.20773949400314 4.3209506362902559 0 0 0 -1 I I #
point $-1 -279.20773949400314 -4.3209506362902559 -139.60386974700157 #
straight-curve $-1 -279.20773949400314 0 -139.60386974700157 0 1 0 I I #
point $-1 -279.20773949400314 4.3209506362902559 -139.60386974700157 #
vertex $-1 $493 $521 #
vertex $-1 $495 $522 #
point $-1 0 0 0.5 #
point $-1 0 0 0.5 #
point $-1 0 0 0.5 #
End-of-ACIS-data 