500 0 6 0           
7 Unknown 11 ACIS 5.0 NT 24 Thu Mar 25 15:14:01 1999 
-1 9.9999999999999995e-007 1e-010 
body $-1 $6 $-1 $7 #
body $-1 $8 $-1 $9 #
body $-1 $10 $-1 $11 #
body $-1 $12 $-1 $13 #
body $-1 $14 $-1 $15 #
body $-1 $16 $-1 $17 #
lump $-1 $-1 $18 $0 #
transform $-1 1 0 0 0 1 0 0 0 1 47.632068849757374 33.119166058066867 9.7243014230187548 1 rotate no_reflect no_shear #
lump $-1 $-1 $19 $1 #
transform $-1 1 0 0 0 1 0 0 0 1 47.632068849757374 33.119166058066867 9.7243014230187548 1 rotate no_reflect no_shear #
lump $-1 $-1 $20 $2 #
transform $-1 1 0 0 0 1 0 0 0 1 47.632068849757374 33.119166058066867 9.7243014230187548 1 rotate no_reflect no_shear #
lump $-1 $-1 $21 $3 #
transform $-1 1 0 0 0 1 0 0 0 1 47.632068849757374 33.119166058066867 9.7243014230187548 1 rotate no_reflect no_shear #
lump $-1 $-1 $22 $4 #
transform $-1 1 0 0 0 1 0 0 0 1 47.632068849757374 33.119166058066867 9.7243014230187548 1 rotate no_reflect no_shear #
lump $-1 $-1 $23 $5 #
transform $-1 1 0 0 0 1 0 0 0 1 47.632068849757374 33.119166058066867 9.7243014230187548 1 rotate no_reflect no_shear #
shell $-1 $-1 $-1 $24 $-1 $6 #
shell $-1 $-1 $-1 $25 $-1 $8 #
shell $-1 $-1 $-1 $26 $-1 $10 #
shell $-1 $-1 $-1 $27 $-1 $12 #
shell $-1 $-1 $-1 $28 $-1 $14 #
shell $-1 $-1 $-1 $29 $-1 $16 #
face $-1 $30 $31 $18 $-1 $32 forward single #
face $-1 $33 $34 $19 $-1 $35 forward single #
face $-1 $36 $37 $20 $-1 $38 reversed single #
face $-1 $39 $40 $21 $-1 $41 forward single #
face $-1 $42 $43 $22 $-1 $44 reversed single #
face $-1 $45 $46 $23 $-1 $47 forward single #
face $-1 $48 $49 $18 $-1 $50 reversed single #
loop $-1 $-1 $51 $24 #
plane-surface $-1 0 0 9.7243014230187548 0 0 1 1 0 0 forward_v I I I I #
face $-1 $52 $53 $19 $-1 $54 reversed single #
loop $-1 $-1 $55 $25 #
plane-surface $-1 -44.298182904019484 0 -4.9647445102073853 0 0 1 1 0 0 forward_v I I I I #
face $-1 $56 $57 $20 $-1 $58 reversed single #
loop $-1 $-1 $59 $26 #
plane-surface $-1 37.916940764035004 -89.114021985570815 78.908627686335393 1 0 0 0 0.5877852598018023 -0.80901698891910034 forward_v I I I I #
face $-1 $60 $61 $21 $-1 $62 forward single #
loop $-1 $63 $64 $27 #
cone-surface $-1 42.774504806896189 -26.637776479530299 4.3301511477938597 0 0.5877852598018023 -0.80901698891910034 1.5 0 0 1 I I 0 1 1.5 forward I I I I #
face $-1 $65 $66 $22 $-1 $67 reversed single #
loop $-1 $-1 $68 $28 #
plane-surface $-1 37.916940764035004 35.52608598595296 117.84254293805513 1 0 0 0 -0.5877852598018023 -0.80901698891910034 forward_v I I I I #
face $-1 $69 $70 $23 $-1 $71 forward single #
loop $-1 $72 $73 $29 #
cone-surface $-1 42.774504806896189 26.637776479530299 4.3301511477938632 0 -0.5877852598018023 -0.80901698891910034 1.5 0 0 1 I I 0 1 1.5 forward I I I I #
face $-1 $74 $75 $18 $-1 $76 reversed single #
loop $-1 $-1 $77 $30 #
plane-surface $-1 0 0 -9.7243014230187548 0 0 1 1 0 0 forward_v I I I I #
coedge $-1 $78 $79 $80 $81 forward $31 $-1 #
face $-1 $82 $83 $19 $-1 $84 reversed single #
loop $-1 $-1 $85 $33 #
plane-surface $-1 -40.964296958281594 0 -7.34452296661307 -1 0 0 0 0 1 forward_v I I I I #
coedge $-1 $86 $87 $88 $89 forward $34 $-1 #
face $-1 $90 $91 $20 $-1 $92 forward single #
loop $-1 $-1 $93 $36 #
plane-surface $-1 42.774504806896189 -33.119166058066874 1.8383218526994227 0 -0.5877852598018023 0.80901698891910034 1 0 0 forward_v I I I I #
coedge $-1 $94 $95 $96 $97 reversed $37 $-1 #
face $-1 $-1 $98 $21 $-1 $99 forward single #
loop $-1 $100 $101 $39 #
cone-surface $-1 42.774504806896189 -25.14260770310554 2.2722279160393057 0 0.5877852598018023 -0.80901698891910034 0.75 0 0 1 I I -0.70710678118654757 0.70710678118654757 0.75 forward I I I I #
loop $-1 $-1 $102 $27 #
coedge $-1 $64 $64 $103 $104 reversed $40 $-1 #
face $-1 $105 $106 $22 $-1 $107 reversed single #
loop $-1 $-1 $108 $42 #
plane-surface $-1 42.774504806896189 -20.468769941550981 40.772237104419162 0 0.5877852598018023 0.80901698891910034 1 0 0 forward_v I I I I #
coedge $-1 $109 $110 $111 $112 reversed $43 $-1 #
face $-1 $-1 $113 $23 $-1 $114 forward single #
loop $-1 $115 $116 $45 #
cone-surface $-1 42.774504806896189 25.14260770310554 2.2722279160393093 0 -0.5877852598018023 -0.80901698891910034 0.75 0 0 1 I I -0.70710678118654757 0.70710678118654757 0.75 forward I I I I #
loop $-1 $-1 $117 $29 #
coedge $-1 $73 $73 $118 $119 reversed $46 $-1 #
face $-1 $120 $121 $18 $-1 $122 reversed single #
loop $-1 $-1 $123 $48 #
plane-surface $-1 0 -33.119166058066867 0 0 1 0 0 0 1 forward_v I I I I #
coedge $-1 $124 $125 $126 $127 forward $49 $-1 #
coedge $-1 $128 $51 $129 $130 forward $31 $-1 #
coedge $-1 $51 $128 $131 $132 forward $31 $-1 #
coedge $-1 $133 $134 $51 $81 reversed $135 $-1 #
edge $-1 $136 -33.119166058066867 $137 33.119166058066867 $80 $138 forward 7 unknown #
face $-1 $139 $140 $19 $-1 $141 reversed single #
loop $-1 $-1 $142 $52 #
plane-surface $-1 0 0 -9.7243014230187548 0 0 1 1 0 0 forward_v I I I I #
coedge $-1 $143 $88 $144 $145 reversed $53 $-1 #
coedge $-1 $146 $55 $147 $148 reversed $34 $-1 #
coedge $-1 $55 $146 $149 $150 reversed $34 $-1 #
coedge $-1 $85 $151 $55 $89 reversed $53 $-1 #
edge $-1 $152 -33.119166058066867 $153 33.119166058066867 $88 $154 forward 7 unknown #
face $-1 $155 $156 $20 $-1 $157 reversed single #
loop $-1 $-1 $158 $56 #
plane-surface $-1 0 0 9.7243014230187548 0 0 1 1 0 0 forward_v I I I I #
coedge $-1 $159 $160 $161 $162 reversed $57 $-1 #
coedge $-1 $95 $59 $163 $164 reversed $37 $-1 #
coedge $-1 $59 $94 $159 $165 reversed $37 $-1 #
coedge $-1 $161 $166 $59 $97 forward $156 $-1 #
edge $-1 $167 29.730012420148942 $168 37.615991990468267 $96 $169 forward 7 unknown #
loop $-1 $-1 $103 $60 #
plane-surface $-1 42.774504806896189 -33.119166058066874 1.8383218526994227 0 -0.5877852598018023 0.80901698891910034 1 0 0 forward_v I I I I #
loop $-1 $-1 $170 $39 #
coedge $-1 $101 $101 $102 $171 reversed $61 $-1 #
coedge $-1 $102 $102 $101 $171 forward $63 $-1 #
coedge $-1 $103 $103 $64 $104 forward $98 $-1 #
edge $-1 $172 1.7594320469727973e-016 $172 6.2831853071796004 $103 $173 forward 7 unknown #
face $-1 $174 $175 $22 $-1 $176 reversed single #
loop $-1 $-1 $177 $65 #
plane-surface $-1 47.632068849757374 0 0 -1 0 0 0 0 1 forward_v I I I I #
coedge $-1 $178 $179 $180 $181 reversed $66 $-1 #
coedge $-1 $110 $68 $182 $183 reversed $43 $-1 #
coedge $-1 $68 $109 $178 $184 reversed $43 $-1 #
coedge $-1 $180 $185 $68 $112 forward $186 $-1 #
edge $-1 $187 -15.356123065090387 $188 -4.5020035711640816 $111 $189 forward 7 unknown #
loop $-1 $-1 $118 $69 #
plane-surface $-1 42.774504806896189 -20.468769941550981 40.772237104419162 0 0.5877852598018023 0.80901698891910034 1 0 0 forward_v I I I I #
loop $-1 $-1 $190 $45 #
coedge $-1 $116 $116 $117 $191 reversed $70 $-1 #
coedge $-1 $117 $117 $116 $191 forward $72 $-1 #
coedge $-1 $118 $118 $73 $119 forward $113 $-1 #
edge $-1 $192 -6.9992519817708759e-016 $192 6.2831853071795996 $118 $193 forward 7 unknown #
face $-1 $194 $195 $18 $-1 $196 reversed single #
loop $-1 $-1 $197 $74 #
plane-surface $-1 -47.632068849757374 0 0 1 0 0 0 0 -1 forward_v I I I I #
coedge $-1 $198 $131 $199 $200 forward $75 $-1 #
coedge $-1 $201 $77 $198 $202 forward $49 $-1 #
coedge $-1 $77 $201 $203 $204 forward $49 $-1 #
coedge $-1 $134 $133 $77 $127 reversed $135 $-1 #
edge $-1 $205 -33.119166058066867 $206 33.119166058066867 $126 $207 forward 7 unknown #
coedge $-1 $79 $78 $208 $209 forward $31 $-1 #
coedge $-1 $210 $211 $78 $130 reversed $195 $-1 #
edge $-1 $137 -47.632068849757374 $212 47.632068849757374 $129 $213 forward 7 unknown #
coedge $-1 $123 $214 $79 $132 reversed $75 $-1 #
edge $-1 $215 -47.632068849757374 $136 47.632068849757374 $131 $216 forward 7 unknown #
coedge $-1 $126 $80 $214 $217 forward $135 $-1 #
coedge $-1 $80 $126 $210 $218 reversed $135 $-1 #
loop $-1 $-1 $133 $194 #
vertex $-1 $81 $219 #
vertex $-1 $81 $220 #
straight-curve $-1 47.632068849757374 0 9.7243014230187548 0 1 0 I I #
face $-1 $221 $222 $19 $-1 $223 reversed single #
loop $-1 $-1 $144 $82 #
plane-surface $-1 0 -33.119166058066867 0 0 1 0 0 0 1 forward_v I I I I #
coedge $-1 $224 $225 $143 $226 forward $83 $-1 #
coedge $-1 $151 $85 $142 $226 reversed $53 $-1 #
coedge $-1 $149 $227 $85 $145 forward $140 $-1 #
edge $-1 $228 -6.0520399397122198 $152 -1.2924830269008503 $144 $229 forward 7 unknown #
coedge $-1 $87 $86 $230 $231 reversed $34 $-1 #
coedge $-1 $232 $233 $86 $148 forward $234 $-1 #
edge $-1 $235 -25.482977397747632 $153 -18.815205506271852 $147 $236 forward 7 unknown #
coedge $-1 $237 $144 $87 $150 forward $140 $-1 #
edge $-1 $152 18.815205506271852 $238 25.482977397747632 $149 $239 forward 7 unknown #
coedge $-1 $88 $143 $232 $240 reversed $53 $-1 #
vertex $-1 $150 $241 #
vertex $-1 $148 $242 #
straight-curve $-1 -40.964296958281594 0 -4.9647445102073853 0 1 0 I I #
face $-1 $-1 $243 $20 $-1 $244 reversed single #
loop $-1 $-1 $161 $90 #
plane-surface $-1 0 -33.119166058066867 0 0 1 0 0 0 1 forward_v I I I I #
coedge $-1 $163 $245 $246 $247 forward $91 $-1 #
coedge $-1 $246 $93 $95 $165 forward $57 $-1 #
coedge $-1 $93 $246 $248 $249 reversed $57 $-1 #
coedge $-1 $250 $96 $93 $162 forward $156 $-1 #
edge $-1 $168 16.52968836058691 $251 26.244816446309279 $161 $252 forward 7 unknown #
coedge $-1 $253 $158 $94 $164 forward $91 $-1 #
edge $-1 $254 -22.291964428644853 $167 -11.437844934718541 $163 $255 forward 7 unknown #
edge $-1 $168 8.7502459990790685e-015 $254 13.416429620876235 $95 $256 forward 7 unknown #
coedge $-1 $96 $250 $253 $257 reversed $156 $-1 #
vertex $-1 $257 $258 #
vertex $-1 $97 $259 #
straight-curve $-1 37.916940764035004 -33.119166058066867 39.454313843167697 0 0 -1 I I #
coedge $-1 $170 $170 $-1 $260 reversed $100 $-1 #
edge $-1 $261 0 $261 6.2831853071796004 $101 $262 forward 7 unknown #
vertex $-1 $104 $263 #
ellipse-curve $-1 42.774504806896189 -27.692106311103711 5.7813116378590923 0 -0.5877852598018023 0.80901698891910034 1.5 0 0 1 I I #
face $-1 $-1 $186 $22 $-1 $264 forward single #
loop $-1 $-1 $265 $105 #
plane-surface $-1 0 33.119166058066867 0 0 -1 0 0 0 -1 forward_v I I I I #
coedge $-1 $266 $267 $179 $268 forward $106 $-1 #
coedge $-1 $269 $108 $110 $184 forward $66 $-1 #
coedge $-1 $108 $269 $177 $268 reversed $66 $-1 #
coedge $-1 $270 $111 $108 $181 forward $186 $-1 #
edge $-1 $188 16.52968836058691 $271 26.244816446309279 $180 $272 forward 7 unknown #
coedge $-1 $273 $265 $109 $183 forward $175 $-1 #
edge $-1 $274 -57.082949616328136 $187 -49.196970046008815 $182 $275 forward 7 unknown #
edge $-1 $188 52.821902495257504 $274 66.238332116133734 $110 $276 forward 7 unknown #
coedge $-1 $111 $270 $273 $277 forward $186 $-1 #
loop $-1 $-1 $180 $174 #
vertex $-1 $183 $278 #
vertex $-1 $112 $279 #
straight-curve $-1 37.916940764035004 17.76304299297648 9.7243014230187583 0 -1 0 I I #
coedge $-1 $190 $190 $-1 $280 reversed $115 $-1 #
edge $-1 $281 0 $281 6.2831853071796004 $116 $282 forward 7 unknown #
vertex $-1 $119 $283 #
ellipse-curve $-1 42.774504806896189 27.692106311103714 5.7813116378590994 0 0.5877852598018023 0.80901698891910034 1.5 0 0 1 I I #
face $-1 $-1 $135 $18 $-1 $284 reversed single #
loop $-1 $-1 $210 $120 #
plane-surface $-1 0 33.119166058066867 0 0 -1 0 0 0 -1 forward_v I I I I #
coedge $-1 $285 $208 $211 $286 forward $121 $-1 #
coedge $-1 $214 $123 $124 $202 reversed $75 $-1 #
coedge $-1 $208 $285 $123 $200 reversed $121 $-1 #
edge $-1 $215 -9.7243014230187548 $287 9.7243014230187548 $199 $288 forward 7 unknown #
coedge $-1 $125 $124 $285 $289 forward $49 $-1 #
edge $-1 $206 -47.632068849757374 $287 47.632068849757374 $198 $290 forward 7 unknown #
coedge $-1 $211 $210 $125 $204 reversed $195 $-1 #
edge $-1 $291 -47.632068849757374 $205 47.632068849757374 $203 $292 forward 7 unknown #
vertex $-1 $127 $293 #
vertex $-1 $217 $294 #
straight-curve $-1 47.632068849757374 0 -9.7243014230187548 0 -1 0 I I #
coedge $-1 $197 $199 $128 $209 reversed $121 $-1 #
edge $-1 $212 -33.119166058066867 $215 33.119166058066867 $208 $295 forward 7 unknown #
coedge $-1 $203 $129 $134 $218 forward $195 $-1 #
coedge $-1 $129 $203 $197 $286 reversed $195 $-1 #
vertex $-1 $130 $296 #
straight-curve $-1 0 33.119166058066867 9.7243014230187548 -1 0 0 I I #
coedge $-1 $131 $198 $133 $217 reversed $75 $-1 #
vertex $-1 $209 $297 #
straight-curve $-1 0 -33.119166058066867 9.7243014230187548 1 0 0 I I #
edge $-1 $136 -9.7243014230187548 $206 9.7243014230187548 $133 $298 forward 7 unknown #
edge $-1 $137 -9.7243014230187548 $205 9.7243014230187548 $134 $299 forward 7 unknown #
point $-1 47.632068849757374 -33.119166058066867 9.7243014230187548 #
point $-1 47.632068849757374 33.119166058066867 9.7243014230187548 #
face $-1 $-1 $234 $19 $-1 $300 reversed single #
loop $-1 $-1 $230 $139 #
plane-surface $-1 -47.632068849757374 0 0 1 0 0 0 0 -1 forward_v I I I I #
coedge $-1 $301 $142 $227 $302 forward $83 $-1 #
coedge $-1 $142 $301 $303 $304 forward $83 $-1 #
edge $-1 $305 -33.119166058066867 $228 33.119166058066867 $142 $306 forward 7 unknown #
coedge $-1 $144 $237 $224 $302 reversed $140 $-1 #
vertex $-1 $302 $307 #
straight-curve $-1 -40.964296958281594 -33.119166058066867 -3.672261483306535 0 0 1 I I #
coedge $-1 $308 $309 $146 $231 forward $222 $-1 #
edge $-1 $238 -33.119166058066867 $235 33.119166058066867 $230 $310 forward 7 unknown #
coedge $-1 $303 $147 $151 $240 forward $234 $-1 #
coedge $-1 $147 $303 $308 $311 reversed $234 $-1 #
loop $-1 $-1 $232 $221 #
vertex $-1 $311 $312 #
straight-curve $-1 -22.149091452009742 33.119166058066867 -4.9647445102073853 1 0 0 I I #
coedge $-1 $227 $149 $309 $313 forward $140 $-1 #
vertex $-1 $313 $314 #
straight-curve $-1 -22.149091452009742 -33.119166058066867 -4.9647445102073853 -1 0 0 I I #
edge $-1 $153 1.2924830269008503 $305 6.0520399397122198 $232 $315 forward 7 unknown #
point $-1 -40.964296958281594 -33.119166058066867 -4.9647445102073853 #
point $-1 -40.964296958281594 33.119166058066867 -4.9647445102073853 #
loop $-1 $-1 $248 $155 #
plane-surface $-1 47.632068849757374 0 0 -1 0 0 0 0 1 forward_v I I I I #
coedge $-1 $158 $253 $316 $317 forward $91 $-1 #
coedge $-1 $160 $159 $158 $247 reversed $57 $-1 #
edge $-1 $318 -26.244816446309279 $254 -16.52968836058691 $158 $319 forward 7 unknown #
coedge $-1 $316 $320 $160 $249 forward $243 $-1 #
edge $-1 $251 -12.856714756010327 $318 0.55971486486589828 $248 $321 forward 7 unknown #
coedge $-1 $166 $161 $320 $322 reversed $156 $-1 #
vertex $-1 $162 $323 #
straight-curve $-1 21.387252403448095 -33.119166058066867 1.8383218526994263 1 0 0 I I #
coedge $-1 $245 $163 $166 $257 forward $91 $-1 #
vertex $-1 $164 $324 #
straight-curve $-1 37.916940764035004 -44.557010992785408 9.7243014230187512 0 -1 0 I I #
straight-curve $-1 37.916940764035004 -33.119166058066874 1.8383218526994227 0 0.80901698891910034 0.5877852598018023 I I #
edge $-1 $167 37.916940764035004 $325 47.632068849757374 $166 $326 forward 7 unknown #
point $-1 37.916940764035004 -33.119166058066867 9.7243014230187548 #
point $-1 37.916940764035004 -33.119166058066867 1.8383218526994278 #
edge $-1 $327 1 $327 0 $170 $-1 forward 7 unknown #
vertex $-1 $171 $328 #
ellipse-curve $-1 42.774504806896189 -25.58344664795689 2.8789906577286311 0 -0.5877852598018023 0.80901698891910034 1.5 0 0 1 I I #
point $-1 44.274504806896189 -27.692106311103707 5.7813116378590879 #
plane-surface $-1 0 0 9.7243014230187548 0 0 1 1 0 0 forward_v I I I I #
coedge $-1 $182 $329 $269 $330 forward $175 $-1 #
coedge $-1 $267 $177 $329 $331 reversed $106 $-1 #
coedge $-1 $177 $266 $270 $332 reversed $106 $-1 #
edge $-1 $271 32.559451193200971 $333 45.9758808140772 $177 $334 forward 7 unknown #
coedge $-1 $179 $178 $265 $330 reversed $66 $-1 #
coedge $-1 $185 $180 $267 $332 forward $186 $-1 #
vertex $-1 $332 $335 #
straight-curve $-1 21.387252403448095 22.265046564140569 9.7243014230187548 1 0 0 I I #
coedge $-1 $329 $182 $185 $277 reversed $175 $-1 #
vertex $-1 $183 $336 #
straight-curve $-1 37.916940764035004 33.119166058066867 58.921271469027566 0 0 1 I I #
straight-curve $-1 37.916940764035004 -20.468769941550981 40.772237104419162 0 0.80901698891910034 -0.5877852598018023 I I #
edge $-1 $337 -47.632068849757374 $187 -37.916940764035004 $273 $338 forward 7 unknown #
point $-1 37.916940764035004 33.119166058066867 9.7243014230187548 #
point $-1 37.916940764035004 22.265046564140562 9.7243014230187583 #
edge $-1 $339 1 $339 0 $190 $-1 forward 7 unknown #
vertex $-1 $191 $340 #
ellipse-curve $-1 42.774504806896189 25.58344664795689 2.8789906577286346 0 0.5877852598018023 0.80901698891910034 1.5 0 0 1 I I #
point $-1 44.274504806896189 27.692106311103707 5.7813116378590914 #
plane-surface $-1 47.632068849757374 0 0 -1 0 0 0 0 1 forward_v I I I I #
coedge $-1 $199 $197 $201 $289 reversed $121 $-1 #
edge $-1 $212 -9.7243014230187548 $291 9.7243014230187548 $211 $341 forward 7 unknown #
vertex $-1 $289 $342 #
straight-curve $-1 -47.632068849757374 -33.119166058066867 0 0 0 -1 I I #
edge $-1 $287 -33.119166058066867 $291 33.119166058066867 $285 $343 forward 7 unknown #
straight-curve $-1 0 -33.119166058066867 -9.7243014230187548 -1 0 0 I I #
vertex $-1 $204 $344 #
straight-curve $-1 0 33.119166058066867 -9.7243014230187548 1 0 0 I I #
point $-1 47.632068849757374 33.119166058066867 -9.7243014230187548 #
point $-1 47.632068849757374 -33.119166058066867 -9.7243014230187548 #
straight-curve $-1 -47.632068849757374 0 9.7243014230187548 0 -1 0 I I #
point $-1 -47.632068849757374 33.119166058066867 9.7243014230187548 #
point $-1 -47.632068849757374 -33.119166058066867 9.7243014230187548 #
straight-curve $-1 47.632068849757374 -33.119166058066867 0 0 0 -1 I I #
straight-curve $-1 47.632068849757374 33.119166058066867 0 0 0 -1 I I #
plane-surface $-1 0 33.119166058066867 0 0 -1 0 0 0 -1 forward_v I I I I #
coedge $-1 $225 $224 $345 $346 forward $83 $-1 #
edge $-1 $228 40.964296958281594 $347 47.632068849757374 $227 $348 forward 7 unknown #
coedge $-1 $233 $232 $225 $304 reversed $234 $-1 #
edge $-1 $349 -47.632068849757374 $305 -40.964296958281594 $303 $350 forward 7 unknown #
vertex $-1 $240 $351 #
straight-curve $-1 -40.964296958281594 0 -9.7243014230187548 0 -1 0 I I #
point $-1 -40.964296958281594 -33.119166058066867 -9.7243014230187548 #
coedge $-1 $345 $230 $233 $311 forward $222 $-1 #
coedge $-1 $230 $345 $237 $313 reversed $222 $-1 #
straight-curve $-1 -47.632068849757374 0 -4.9647445102073853 0 1 0 I I #
edge $-1 $235 4.9647445102073853 $349 9.7243014230187548 $233 $352 forward 7 unknown #
point $-1 -47.632068849757374 33.119166058066867 -4.9647445102073853 #
edge $-1 $238 4.9647445102073853 $347 9.7243014230187548 $309 $353 forward 7 unknown #
point $-1 -47.632068849757374 -33.119166058066867 -4.9647445102073853 #
straight-curve $-1 -40.964296958281594 33.119166058066867 -3.672261483306535 0 0 -1 I I #
coedge $-1 $320 $248 $245 $317 reversed $243 $-1 #
edge $-1 $325 -33.119166058066867 $318 -22.265046564140555 $316 $354 forward 7 unknown #
vertex $-1 $247 $355 #
straight-curve $-1 21.387252403448095 -22.265046564140558 9.7243014230187548 -1 0 0 I I #
coedge $-1 $248 $316 $250 $322 forward $243 $-1 #
straight-curve $-1 47.632068849757374 -22.717865398767625 9.3953092757586223 0 0.80901698891910034 0.5877852598018023 I I #
edge $-1 $325 -9.7243014230187548 $251 -1.8383218526994278 $320 $356 forward 7 unknown #
point $-1 47.632068849757374 -33.119166058066867 1.8383218526994278 #
point $-1 37.916940764035004 -22.265046564140555 9.7243014230187548 #
vertex $-1 $317 $357 #
straight-curve $-1 0 -33.119166058066867 9.7243014230187548 1 0 0 I I #
vertex $-1 $260 $358 #
point $-1 44.274504806896189 -25.58344664795689 2.8789906577286311 #
coedge $-1 $265 $273 $266 $331 forward $175 $-1 #
edge $-1 $333 -26.244816446309279 $274 -16.52968836058691 $265 $359 forward 7 unknown #
edge $-1 $337 -9.7243014230187548 $333 -1.8383218526994298 $266 $360 forward 7 unknown #
edge $-1 $271 22.265046564140562 $337 33.119166058066867 $267 $361 forward 7 unknown #
vertex $-1 $330 $362 #
straight-curve $-1 47.632068849757374 -4.0761026010413008 28.862266901618497 0 0.80901698891910034 -0.5877852598018023 I I #
point $-1 47.632068849757374 22.265046564140562 9.7243014230187583 #
point $-1 37.916940764035004 33.119166058066874 1.8383218526994298 #
vertex $-1 $332 $363 #
straight-curve $-1 0 33.119166058066867 9.7243014230187548 -1 0 0 I I #
vertex $-1 $280 $364 #
point $-1 44.274504806896189 25.58344664795689 2.8789906577286346 #
straight-curve $-1 -47.632068849757374 33.119166058066867 0 0 0 -1 I I #
point $-1 -47.632068849757374 -33.119166058066867 -9.7243014230187548 #
straight-curve $-1 -47.632068849757374 0 -9.7243014230187548 0 1 0 I I #
point $-1 -47.632068849757374 33.119166058066867 -9.7243014230187548 #
coedge $-1 $309 $308 $301 $346 reversed $222 $-1 #
edge $-1 $347 -33.119166058066867 $349 33.119166058066867 $345 $365 forward 7 unknown #
vertex $-1 $346 $366 #
straight-curve $-1 0 -33.119166058066867 -9.7243014230187548 -1 0 0 I I #
vertex $-1 $304 $367 #
straight-curve $-1 0 33.119166058066867 -9.7243014230187548 1 0 0 I I #
point $-1 -40.964296958281594 33.119166058066867 -9.7243014230187548 #
straight-curve $-1 -47.632068849757374 33.119166058066867 0 0 0 -1 I I #
straight-curve $-1 -47.632068849757374 -33.119166058066867 0 0 0 -1 I I #
straight-curve $-1 47.632068849757374 0 9.7243014230187548 0 1 0 I I #
point $-1 47.632068849757374 -22.265046564140555 9.7243014230187548 #
straight-curve $-1 47.632068849757374 -33.119166058066867 0 0 0 -1 I I #
point $-1 47.632068849757374 -33.119166058066867 9.7243014230187548 #
point $-1 42.774504806896189 -24.70176875825419 1.6654651743499804 #
straight-curve $-1 21.387252403448095 33.11916605806686 1.8383218526994334 -1 0 0 I I #
straight-curve $-1 47.632068849757374 33.119166058066867 0 0 0 -1 I I #
straight-curve $-1 47.632068849757374 0 9.7243014230187548 0 1 0 I I #
point $-1 47.632068849757374 33.119166058066874 1.8383218526994298 #
point $-1 47.632068849757374 33.119166058066867 9.7243014230187548 #
point $-1 42.774504806896189 24.70176875825419 1.665465174349984 #
straight-curve $-1 -47.632068849757374 0 -9.7243014230187548 0 1 0 I I #
point $-1 -47.632068849757374 -33.119166058066867 -9.7243014230187548 #
point $-1 -47.632068849757374 33.119166058066867 -9.7243014230187548 #
End-of-ACIS-data 