500 0 5 0           
7 Unknown 11 ACIS 5.0 NT 24 Fri Mar 26 18:41:52 1999 
-1 9.9999999999999995e-007 1e-010 
body $-1 $5 $-1 $6 #
body $-1 $7 $-1 $8 #
body $-1 $9 $-1 $10 #
body $-1 $11 $-1 $12 #
body $-1 $13 $-1 $14 #
lump $-1 $-1 $15 $0 #
transform $-1 1 0 0 0 1 0 0 0 1 52.892239143040257 23.999488300146304 10.015155585417357 1 rotate no_reflect no_shear #
lump $-1 $-1 $16 $1 #
transform $-1 1 0 0 0 1 0 0 0 1 52.892239143040257 23.999488300146304 10.015155585417357 1 rotate no_reflect no_shear #
lump $-1 $-1 $17 $2 #
transform $-1 1 0 0 0 1 0 0 0 1 52.892239143040257 23.999488300146304 10.015155585417357 1 rotate no_reflect no_shear #
lump $-1 $-1 $18 $3 #
transform $-1 1 0 0 0 1 0 0 0 1 52.892239143040257 23.999488300146304 10.015155585417357 1 rotate no_reflect no_shear #
lump $-1 $-1 $19 $4 #
transform $-1 1 0 0 0 1 0 0 0 1 52.892239143040257 23.999488300146304 10.015155585417357 1 rotate no_reflect no_shear #
shell $-1 $-1 $-1 $20 $-1 $5 #
shell $-1 $-1 $-1 $21 $-1 $7 #
shell $-1 $-1 $-1 $22 $-1 $9 #
shell $-1 $-1 $-1 $23 $-1 $11 #
shell $-1 $-1 $-1 $24 $-1 $13 #
face $-1 $25 $26 $15 $-1 $27 forward single #
face $-1 $28 $29 $16 $-1 $30 forward single #
face $-1 $31 $32 $17 $-1 $33 reversed single #
face $-1 $34 $35 $18 $-1 $36 forward single #
face $-1 $37 $38 $19 $-1 $39 forward single #
face $-1 $40 $41 $15 $-1 $42 reversed single #
loop $-1 $-1 $43 $20 #
plane-surface $-1 0 0 10.015155585417357 0 0 1 1 0 0 forward_v I I I I #
face $-1 $44 $45 $16 $-1 $46 forward single #
loop $-1 $-1 $47 $21 #
plane-surface $-1 0 -23.999488300146304 0 0 1 0 0 0 1 forward_v I I I I #
face $-1 $48 $49 $17 $-1 $50 reversed single #
loop $-1 $-1 $51 $22 #
plane-surface $-1 71.1241196198051 14.856277361321329 153.09121280497195 0 -1 0 -0.78801076186113728 0 -0.61566146476048833 forward_v I I I I #
face $-1 $52 $53 $18 $-1 $54 forward single #
loop $-1 $55 $56 $23 #
cone-surface $-1 49.794178891159184 8.0669545205801612 6.540705304817811 -0.78801076186113728 0 -0.61566146476048833 0.61566146476048833 0 -0.78801076186113728 1 I I 0 1 1 forward I I I I #
face $-1 $57 $58 $19 $-1 $59 forward single #
loop $-1 $60 $61 $24 #
cone-surface $-1 49.794178891159184 12.140548225024865 6.540705304817811 -0.78801076186113728 0 -0.61566146476048833 0.61566146476048833 0 -0.78801076186113728 1 I I 0 1 1 forward I I I I #
face $-1 $62 $63 $15 $-1 $64 reversed single #
loop $-1 $-1 $65 $25 #
plane-surface $-1 0 0 -10.015155585417357 0 0 1 1 0 0 forward_v I I I I #
coedge $-1 $66 $67 $68 $69 forward $26 $-1 #
face $-1 $70 $71 $16 $-1 $72 reversed single #
loop $-1 $-1 $73 $28 #
plane-surface $-1 0 0 10.015155585417357 0 0 1 1 0 0 forward_v I I I I #
coedge $-1 $74 $75 $76 $77 forward $29 $-1 #
face $-1 $78 $79 $17 $-1 $80 reversed single #
loop $-1 $-1 $81 $31 #
plane-surface $-1 -12.235187707492145 10.103751372802513 87.963785954439544 0.78801076186113728 0 0.61566146476048833 0.61566146476048833 0 -0.78801076186113728 forward_v I I I I #
coedge $-1 $82 $83 $84 $85 reversed $32 $-1 #
face $-1 $-1 $86 $18 $-1 $87 forward single #
loop $-1 $88 $89 $34 #
cone-surface $-1 48.415755268521295 8.0669545205801612 5.4637627709755527 -0.78801076186113728 0 -0.61566146476048833 0.30783073238024417 0 -0.39400538093056864 1 I I -0.70710678118654746 0.70710678118654746 0.5 forward I I I I #
loop $-1 $-1 $90 $23 #
coedge $-1 $56 $56 $91 $92 reversed $35 $-1 #
face $-1 $-1 $93 $19 $-1 $94 forward single #
loop $-1 $95 $96 $37 #
cone-surface $-1 48.415755268521295 12.140548225024865 5.4637627709755527 -0.78801076186113728 0 -0.61566146476048833 0.30783073238024417 0 -0.39400538093056864 1 I I -0.70710678118654746 0.70710678118654746 0.5 forward I I I I #
loop $-1 $-1 $97 $24 #
coedge $-1 $61 $61 $98 $99 reversed $38 $-1 #
face $-1 $100 $101 $15 $-1 $102 reversed single #
loop $-1 $-1 $103 $40 #
plane-surface $-1 0 -23.999488300146304 0 0 1 0 0 0 1 forward_v I I I I #
coedge $-1 $104 $105 $106 $107 forward $41 $-1 #
coedge $-1 $108 $43 $109 $110 forward $26 $-1 #
coedge $-1 $43 $108 $111 $112 forward $26 $-1 #
coedge $-1 $113 $114 $43 $69 reversed $115 $-1 #
edge $-1 $116 -23.999488300146304 $117 23.999488300146304 $68 $118 forward 7 unknown #
face $-1 $119 $120 $16 $-1 $121 reversed single #
loop $-1 $-1 $122 $44 #
plane-surface $-1 -52.892239143040257 0 0 1 0 0 0 0 -1 forward_v I I I I #
coedge $-1 $123 $124 $75 $125 forward $45 $-1 #
coedge $-1 $126 $47 $127 $128 reversed $29 $-1 #
coedge $-1 $47 $126 $73 $125 reversed $29 $-1 #
coedge $-1 $129 $130 $47 $77 reversed $131 $-1 #
edge $-1 $132 -10.015155585417357 $133 10.015155585417357 $76 $134 forward 7 unknown #
face $-1 $135 $136 $17 $-1 $137 forward single #
loop $-1 $-1 $138 $48 #
plane-surface $-1 71.1241196198051 5.3512253842836977 153.09121280497195 0 1 0 0.78801076186113728 0 0.61566146476048833 forward_v I I I I #
coedge $-1 $139 $140 $141 $142 reversed $49 $-1 #
coedge $-1 $83 $51 $143 $144 reversed $32 $-1 #
coedge $-1 $51 $82 $139 $145 reversed $32 $-1 #
coedge $-1 $141 $146 $51 $85 forward $136 $-1 #
edge $-1 $147 -17.330179333137707 $148 -13.10289531279021 $84 $149 forward 7 unknown #
loop $-1 $-1 $91 $52 #
plane-surface $-1 -12.235187707492145 10.103751372802513 87.963785954439544 0.78801076186113728 0 0.61566146476048833 0.61566146476048833 0 -0.78801076186113728 forward_v I I I I #
loop $-1 $-1 $150 $34 #
coedge $-1 $89 $89 $90 $151 reversed $53 $-1 #
coedge $-1 $90 $90 $89 $151 forward $55 $-1 #
coedge $-1 $91 $91 $56 $92 forward $86 $-1 #
edge $-1 $152 0 $152 6.2831853071796004 $91 $153 forward 7 unknown #
loop $-1 $-1 $98 $57 #
plane-surface $-1 -12.235187707492145 10.103751372802513 87.963785954439544 0.78801076186113728 0 0.61566146476048833 0.61566146476048833 0 -0.78801076186113728 forward_v I I I I #
loop $-1 $-1 $154 $37 #
coedge $-1 $96 $96 $97 $155 reversed $58 $-1 #
coedge $-1 $97 $97 $96 $155 forward $60 $-1 #
coedge $-1 $98 $98 $61 $99 forward $93 $-1 #
edge $-1 $156 0 $156 6.2831853071796004 $98 $157 forward 7 unknown #
face $-1 $158 $159 $15 $-1 $160 reversed single #
loop $-1 $-1 $161 $62 #
plane-surface $-1 -52.892239143040257 0 0 1 0 0 0 0 -1 forward_v I I I I #
coedge $-1 $162 $111 $163 $164 forward $63 $-1 #
coedge $-1 $165 $65 $162 $166 forward $41 $-1 #
coedge $-1 $65 $165 $167 $168 forward $41 $-1 #
coedge $-1 $114 $113 $65 $107 reversed $115 $-1 #
edge $-1 $169 -23.999488300146304 $170 23.999488300146304 $106 $171 forward 7 unknown #
coedge $-1 $67 $66 $172 $173 forward $26 $-1 #
coedge $-1 $174 $175 $66 $110 reversed $159 $-1 #
edge $-1 $117 -52.892239143040257 $176 52.892239143040257 $109 $177 forward 7 unknown #
coedge $-1 $103 $178 $67 $112 reversed $63 $-1 #
edge $-1 $179 -52.892239143040257 $116 52.892239143040257 $111 $180 forward 7 unknown #
coedge $-1 $106 $68 $178 $181 forward $115 $-1 #
coedge $-1 $68 $106 $174 $182 reversed $115 $-1 #
loop $-1 $-1 $113 $158 #
vertex $-1 $69 $183 #
vertex $-1 $69 $184 #
straight-curve $-1 52.892239143040257 0 10.015155585417357 0 1 0 I I #
face $-1 $185 $131 $16 $-1 $186 reversed single #
loop $-1 $-1 $187 $70 #
plane-surface $-1 -50.363280165126447 -35.516914166900058 0 0 1 0 0 0 1 forward_v I I I I #
coedge $-1 $188 $189 $126 $190 forward $71 $-1 #
coedge $-1 $191 $73 $189 $192 forward $45 $-1 #
coedge $-1 $73 $191 $129 $193 forward $45 $-1 #
edge $-1 $132 47.834321187212637 $194 52.892239143040257 $73 $195 forward 7 unknown #
coedge $-1 $75 $74 $122 $190 reversed $29 $-1 #
coedge $-1 $196 $197 $74 $128 forward $198 $-1 #
edge $-1 $199 -52.892239143040257 $133 -47.834321187212637 $127 $200 forward 7 unknown #
coedge $-1 $201 $76 $124 $193 reversed $131 $-1 #
coedge $-1 $76 $201 $196 $202 reversed $131 $-1 #
loop $-1 $-1 $201 $119 #
vertex $-1 $125 $203 #
vertex $-1 $202 $204 #
straight-curve $-1 -47.834321187212637 -23.999488300146304 0 0 0 -1 I I #
face $-1 $-1 $205 $17 $-1 $206 reversed single #
loop $-1 $-1 $84 $78 #
plane-surface $-1 0 0 10.015155585417357 0 0 1 1 0 0 forward_v I I I I #
coedge $-1 $207 $208 $209 $210 reversed $79 $-1 #
coedge $-1 $211 $81 $83 $145 forward $49 $-1 #
coedge $-1 $81 $211 $207 $212 forward $49 $-1 #
coedge $-1 $209 $84 $81 $142 forward $136 $-1 #
edge $-1 $148 -9.8044016749200722 $213 -0.29934969788244103 $141 $214 forward 7 unknown #
coedge $-1 $215 $216 $82 $144 forward $205 $-1 #
edge $-1 $217 -71.941127775343674 $147 -66.530450817068612 $143 $218 forward 7 unknown #
edge $-1 $148 98.918230742079942 $217 105.78447828608051 $83 $219 forward 7 unknown #
coedge $-1 $84 $209 $215 $220 forward $136 $-1 #
vertex $-1 $144 $221 #
vertex $-1 $85 $222 #
straight-curve $-1 35.56205980990255 14.856277361321329 10.015155585417361 -1 0 0 I I #
coedge $-1 $150 $150 $-1 $223 reversed $88 $-1 #
edge $-1 $224 0 $224 6.2831853071796004 $89 $225 forward 7 unknown #
vertex $-1 $92 $226 #
ellipse-curve $-1 50.778597132866508 8.0669545205801612 7.3098171062798301 0.78801076186113728 0 0.61566146476048833 0.61566146476048833 0 -0.78801076186113728 1 I I #
coedge $-1 $154 $154 $-1 $227 reversed $95 $-1 #
edge $-1 $228 0 $228 6.2831853071796004 $96 $229 forward 7 unknown #
vertex $-1 $99 $230 #
ellipse-curve $-1 50.778597132866508 12.140548225024865 7.3098171062798301 0.78801076186113728 0 0.61566146476048833 0.61566146476048833 0 -0.78801076186113728 1 I I #
face $-1 $-1 $115 $15 $-1 $231 reversed single #
loop $-1 $-1 $174 $100 #
plane-surface $-1 0 23.999488300146304 0 0 -1 0 0 0 -1 forward_v I I I I #
coedge $-1 $232 $172 $175 $233 forward $101 $-1 #
coedge $-1 $178 $103 $104 $166 reversed $63 $-1 #
coedge $-1 $172 $232 $103 $164 reversed $101 $-1 #
edge $-1 $179 -10.015155585417357 $234 10.015155585417357 $163 $235 forward 7 unknown #
coedge $-1 $105 $104 $232 $236 forward $41 $-1 #
edge $-1 $170 -52.892239143040257 $234 52.892239143040257 $162 $237 forward 7 unknown #
coedge $-1 $175 $174 $105 $168 reversed $159 $-1 #
edge $-1 $238 -52.892239143040257 $169 52.892239143040257 $167 $239 forward 7 unknown #
vertex $-1 $107 $240 #
vertex $-1 $181 $241 #
straight-curve $-1 52.892239143040257 0 -10.015155585417357 0 -1 0 I I #
coedge $-1 $161 $163 $108 $173 reversed $101 $-1 #
edge $-1 $176 -23.999488300146304 $179 23.999488300146304 $172 $242 forward 7 unknown #
coedge $-1 $167 $109 $114 $182 forward $159 $-1 #
coedge $-1 $109 $167 $161 $233 reversed $159 $-1 #
vertex $-1 $110 $243 #
straight-curve $-1 0 23.999488300146304 10.015155585417357 -1 0 0 I I #
coedge $-1 $111 $162 $113 $181 reversed $63 $-1 #
vertex $-1 $173 $244 #
straight-curve $-1 0 -23.999488300146304 10.015155585417357 1 0 0 I I #
edge $-1 $116 -10.015155585417357 $170 10.015155585417357 $113 $245 forward 7 unknown #
edge $-1 $117 -10.015155585417357 $169 10.015155585417357 $114 $246 forward 7 unknown #
point $-1 52.892239143040257 -23.999488300146304 10.015155585417357 #
point $-1 52.892239143040257 23.999488300146304 10.015155585417357 #
face $-1 $-1 $198 $16 $-1 $247 reversed single #
plane-surface $-1 -47.834321187212637 -29.758201233523181 0 -1 0 0 0 0 1 forward_v I I I I #
coedge $-1 $248 $249 $250 $251 forward $120 $-1 #
coedge $-1 $250 $122 $197 $252 reversed $71 $-1 #
coedge $-1 $122 $250 $123 $192 reversed $71 $-1 #
edge $-1 $194 -10.015155585417357 $199 10.015155585417357 $122 $253 forward 7 unknown #
coedge $-1 $124 $123 $249 $254 forward $45 $-1 #
edge $-1 $194 23.999488300146304 $255 35.516914166900058 $189 $256 forward 7 unknown #
edge $-1 $257 -5.7587129333768772 $132 5.7587129333768772 $129 $258 forward 7 unknown #
vertex $-1 $192 $259 #
straight-curve $-1 0 -23.999488300146304 10.015155585417357 -1 0 0 I I #
coedge $-1 $260 $127 $130 $202 forward $198 $-1 #
coedge $-1 $127 $260 $188 $252 forward $198 $-1 #
loop $-1 $-1 $127 $185 #
vertex $-1 $190 $261 #
straight-curve $-1 0 -23.999488300146304 -10.015155585417357 1 0 0 I I #
coedge $-1 $130 $129 $262 $263 forward $131 $-1 #
edge $-1 $133 -5.7587129333768772 $264 5.7587129333768772 $130 $265 forward 7 unknown #
point $-1 -47.834321187212637 -23.999488300146304 10.015155585417357 #
point $-1 -47.834321187212637 -23.999488300146304 -10.015155585417357 #
loop $-1 $-1 $143 $135 #
plane-surface $-1 52.892239143040257 0 0 -1 0 0 0 0 1 forward_v I I I I #
coedge $-1 $208 $138 $140 $212 reversed $79 $-1 #
coedge $-1 $138 $207 $266 $267 reversed $79 $-1 #
coedge $-1 $146 $141 $138 $210 forward $136 $-1 #
edge $-1 $213 13.10289531279021 $268 17.330179333137707 $209 $269 forward 7 unknown #
coedge $-1 $140 $139 $216 $270 reversed $49 $-1 #
edge $-1 $271 -105.78447828608051 $213 -98.918230742079942 $207 $272 forward 7 unknown #
vertex $-1 $142 $273 #
straight-curve $-1 48.664955122692767 5.0518756864012566 10.015155585417347 0 -1 0 I I #
coedge $-1 $266 $143 $146 $220 reversed $205 $-1 #
coedge $-1 $143 $266 $211 $270 forward $205 $-1 #
vertex $-1 $144 $274 #
straight-curve $-1 52.892239143040257 14.856277361321329 76.545606402485973 0 0 1 I I #
straight-curve $-1 -12.235187707492145 14.856277361321329 87.963785954439544 0.61566146476048833 0 -0.78801076186113728 I I #
edge $-1 $268 5.3512253842836977 $147 14.856277361321329 $215 $275 forward 7 unknown #
point $-1 52.892239143040257 14.856277361321329 10.015155585417357 #
point $-1 48.66495512269276 14.856277361321329 10.015155585417361 #
edge $-1 $276 1 $276 0 $150 $-1 forward 7 unknown #
vertex $-1 $151 $277 #
ellipse-curve $-1 48.80976064945186 8.0669545205801612 5.7715935033557972 0.78801076186113728 0 0.61566146476048833 0.61566146476048833 0 -0.78801076186113728 1 I I #
point $-1 51.394258597626994 8.0669545205801612 6.5218063444186889 #
edge $-1 $278 1 $278 0 $154 $-1 forward 7 unknown #
vertex $-1 $155 $279 #
ellipse-curve $-1 48.80976064945186 12.140548225024865 5.7715935033557972 0.78801076186113728 0 0.61566146476048833 0.61566146476048833 0 -0.78801076186113728 1 I I #
point $-1 51.394258597626994 12.140548225024865 6.5218063444186889 #
plane-surface $-1 52.892239143040257 0 0 -1 0 0 0 0 1 forward_v I I I I #
coedge $-1 $163 $161 $165 $236 reversed $101 $-1 #
edge $-1 $176 -10.015155585417357 $238 10.015155585417357 $175 $280 forward 7 unknown #
vertex $-1 $236 $281 #
straight-curve $-1 -52.892239143040257 -23.999488300146304 0 0 0 -1 I I #
edge $-1 $234 -23.999488300146304 $238 23.999488300146304 $232 $282 forward 7 unknown #
straight-curve $-1 0 -23.999488300146304 -10.015155585417357 -1 0 0 I I #
vertex $-1 $168 $283 #
straight-curve $-1 0 23.999488300146304 -10.015155585417357 1 0 0 I I #
point $-1 52.892239143040257 23.999488300146304 -10.015155585417357 #
point $-1 52.892239143040257 -23.999488300146304 -10.015155585417357 #
straight-curve $-1 -52.892239143040257 0 10.015155585417357 0 -1 0 I I #
point $-1 -52.892239143040257 23.999488300146304 10.015155585417357 #
point $-1 -52.892239143040257 -23.999488300146304 10.015155585417357 #
straight-curve $-1 52.892239143040257 -23.999488300146304 0 0 0 -1 I I #
straight-curve $-1 52.892239143040257 23.999488300146304 0 0 0 -1 I I #
plane-surface $-1 0 0 -10.015155585417357 0 0 1 1 0 0 forward_v I I I I #
coedge $-1 $262 $187 $260 $284 reversed $120 $-1 #
coedge $-1 $187 $262 $191 $254 reversed $120 $-1 #
coedge $-1 $189 $188 $187 $251 reversed $71 $-1 #
edge $-1 $255 -10.015155585417357 $285 10.015155585417357 $250 $286 forward 7 unknown #
edge $-1 $285 -35.516914166900058 $199 -23.999488300146304 $188 $287 forward 7 unknown #
straight-curve $-1 -52.892239143040257 -23.999488300146304 0 0 0 -1 I I #
edge $-1 $255 -2.5289589779138097 $257 2.5289589779138097 $249 $288 forward 7 unknown #
vertex $-1 $192 $289 #
straight-curve $-1 -52.892239143040257 0 10.015155585417357 0 -1 0 I I #
vertex $-1 $193 $290 #
straight-curve $-1 -47.834321187212637 -29.758201233523181 10.015155585417357 0 1 0 I I #
point $-1 -52.892239143040257 -23.999488300146304 10.015155585417357 #
coedge $-1 $197 $196 $248 $284 forward $198 $-1 #
point $-1 -52.892239143040257 -23.999488300146304 -10.015155585417357 #
coedge $-1 $249 $248 $201 $263 reversed $120 $-1 #
edge $-1 $257 -10.015155585417357 $264 10.015155585417357 $201 $291 forward 7 unknown #
vertex $-1 $263 $292 #
straight-curve $-1 -47.834321187212637 -29.758201233523181 -10.015155585417357 0 -1 0 I I #
coedge $-1 $216 $215 $208 $267 forward $205 $-1 #
edge $-1 $268 66.530450817068612 $271 71.941127775343674 $266 $293 forward 7 unknown #
vertex $-1 $220 $294 #
straight-curve $-1 35.56205980990255 5.3512253842836977 10.015155585417361 1 0 0 I I #
edge $-1 $271 0.29934969788244103 $217 9.8044016749200722 $216 $295 forward 7 unknown #
vertex $-1 $270 $296 #
straight-curve $-1 -12.235187707492145 5.3512253842836977 87.963785954439544 -0.61566146476048833 0 0.78801076186113728 I I #
point $-1 48.66495512269276 5.3512253842836977 10.015155585417361 #
point $-1 52.892239143040257 14.856277361321329 4.6044786271422993 #
straight-curve $-1 52.892239143040257 0 10.015155585417357 0 1 0 I I #
vertex $-1 $223 $297 #
point $-1 49.425422114212353 8.0669545205801612 4.9835827414946596 #
vertex $-1 $227 $298 #
point $-1 49.425422114212353 12.140548225024865 4.9835827414946596 #
straight-curve $-1 -52.892239143040257 23.999488300146304 0 0 0 -1 I I #
point $-1 -52.892239143040257 -23.999488300146304 -10.015155585417357 #
straight-curve $-1 -52.892239143040257 0 -10.015155585417357 0 1 0 I I #
point $-1 -52.892239143040257 23.999488300146304 -10.015155585417357 #
edge $-1 $264 -2.5289589779138097 $285 2.5289589779138097 $248 $299 forward 7 unknown #
vertex $-1 $252 $300 #
straight-curve $-1 -52.892239143040257 -35.516914166900058 0 0 0 -1 I I #
straight-curve $-1 -52.892239143040257 0 -10.015155585417357 0 1 0 I I #
straight-curve $-1 -50.363280165126447 -35.516914166900058 10.015155585417357 1 0 0 I I #
point $-1 -52.892239143040257 -35.516914166900058 10.015155585417357 #
point $-1 -47.834321187212637 -35.516914166900058 10.015155585417357 #
straight-curve $-1 -47.834321187212637 -35.516914166900058 0 0 0 -1 I I #
point $-1 -47.834321187212637 -35.516914166900058 -10.015155585417357 #
straight-curve $-1 52.892239143040257 5.3512253842836977 76.545606402485973 0 0 -1 I I #
point $-1 52.892239143040257 5.3512253842836977 10.015155585417357 #
straight-curve $-1 52.892239143040257 5.0518756864012566 4.6044786271423064 0 1 0 I I #
point $-1 52.892239143040257 5.3512253842836977 4.6044786271422993 #
point $-1 48.02174988759073 8.0669545205801612 5.1559320385953082 #
point $-1 48.02174988759073 12.140548225024865 5.1559320385953082 #
straight-curve $-1 -50.363280165126447 -35.516914166900058 -10.015155585417357 -1 0 0 I I #
point $-1 -52.892239143040257 -35.516914166900058 -10.015155585417357 #
End-of-ACIS-data 