500 0 4 0           
7 Unknown 11 ACIS 5.0 NT 24 Fri Mar 26 00:14:58 1999 
-1 9.9999999999999995e-007 1e-010 
body $-1 $4 $-1 $5 #
body $-1 $6 $-1 $7 #
body $-1 $8 $-1 $9 #
body $-1 $10 $-1 $11 #
lump $-1 $-1 $12 $0 #
transform $-1 1 0 0 0 1 0 0 0 1 71.43162327951903 37.753445182023576 18.373450858613097 1 rotate no_reflect no_shear #
lump $-1 $-1 $13 $1 #
transform $-1 1 0 0 0 1 0 0 0 1 71.43162327951903 37.753445182023576 18.373450858613097 1 rotate no_reflect no_shear #
lump $-1 $-1 $14 $2 #
transform $-1 1 0 0 0 1 0 0 0 1 71.43162327951903 37.753445182023576 18.373450858613097 1 rotate no_reflect no_shear #
lump $-1 $-1 $15 $3 #
transform $-1 1 0 0 0 1 0 0 0 1 71.43162327951903 37.753445182023576 18.373450858613097 1 rotate no_reflect no_shear #
shell $-1 $-1 $-1 $16 $-1 $4 #
shell $-1 $-1 $-1 $17 $-1 $6 #
shell $-1 $-1 $-1 $18 $-1 $8 #
shell $-1 $-1 $-1 $19 $-1 $10 #
face $-1 $20 $21 $12 $-1 $22 forward single #
face $-1 $23 $24 $13 $-1 $25 forward single #
face $-1 $26 $27 $14 $-1 $28 reversed single #
face $-1 $29 $30 $15 $-1 $31 forward single #
face $-1 $32 $33 $12 $-1 $34 reversed single #
loop $-1 $-1 $35 $16 #
plane-surface $-1 0 0 18.373450858613097 0 0 1 1 0 0 forward_v I I I I #
face $-1 $36 $37 $13 $-1 $38 reversed single #
loop $-1 $-1 $39 $17 #
plane-surface $-1 0 -37.753445182023576 0 0 1 0 0 0 1 forward_v I I I I #
face $-1 $40 $41 $14 $-1 $42 reversed single #
loop $-1 $-1 $43 $18 #
plane-surface $-1 -54.681041689652133 52.23694067100093 165.86553537174959 -1 0 0 0 0.54463904215088732 0.83867056331134215 forward_v I I I I #
face $-1 $44 $45 $15 $-1 $46 forward single #
loop $-1 $47 $48 $19 #
cone-surface $-1 -63.056332484585582 25.875809823983801 9.3027315229317082 0 -0.54463904215088732 -0.83867056331134215 1.5 0 0 1 I I 0 1 1.5 forward I I I I #
face $-1 $49 $50 $12 $-1 $51 reversed single #
loop $-1 $-1 $52 $20 #
plane-surface $-1 0 0 -18.373450858613097 0 0 1 1 0 0 forward_v I I I I #
coedge $-1 $53 $54 $55 $56 forward $21 $-1 #
face $-1 $57 $58 $13 $-1 $59 reversed single #
loop $-1 $-1 $60 $23 #
plane-surface $-1 0 0 -18.373450858613097 0 0 1 1 0 0 forward_v I I I I #
coedge $-1 $61 $62 $63 $64 forward $24 $-1 #
face $-1 $65 $66 $14 $-1 $67 forward single #
loop $-1 $-1 $68 $26 #
plane-surface $-1 -63.056332484585582 -25.571961093479608 46.050335903593975 0 0.54463904215088732 0.83867056331134215 1 0 0 forward_v I I I I #
coedge $-1 $69 $70 $71 $72 reversed $27 $-1 #
face $-1 $-1 $73 $15 $-1 $74 forward single #
loop $-1 $75 $76 $29 #
cone-surface $-1 -63.056332484585582 23.943065924877274 6.3265669641097091 0 -0.54463904215088732 -0.83867056331134215 0.75 0 0 1 I I -0.70710678118654757 0.70710678118654757 0.75 forward I I I I #
loop $-1 $-1 $77 $19 #
coedge $-1 $48 $48 $78 $79 reversed $30 $-1 #
face $-1 $80 $81 $12 $-1 $82 reversed single #
loop $-1 $-1 $83 $32 #
plane-surface $-1 0 -37.753445182023576 0 0 1 0 0 0 1 forward_v I I I I #
coedge $-1 $84 $85 $86 $87 forward $33 $-1 #
coedge $-1 $88 $35 $89 $90 forward $21 $-1 #
coedge $-1 $35 $88 $91 $92 forward $21 $-1 #
coedge $-1 $93 $94 $35 $56 reversed $95 $-1 #
edge $-1 $96 -37.753445182023576 $97 37.753445182023576 $55 $98 forward 7 unknown #
face $-1 $99 $100 $13 $-1 $101 forward single #
loop $-1 $-1 $102 $36 #
plane-surface $-1 71.43162327951903 0 0 -1 0 0 0 0 1 forward_v I I I I #
coedge $-1 $103 $104 $105 $106 forward $37 $-1 #
coedge $-1 $105 $39 $102 $107 reversed $24 $-1 #
coedge $-1 $39 $105 $108 $109 reversed $24 $-1 #
coedge $-1 $110 $111 $39 $64 reversed $100 $-1 #
edge $-1 $112 -71.43162327951903 $113 71.43162327951903 $63 $114 forward 7 unknown #
face $-1 $115 $116 $14 $-1 $117 reversed single #
loop $-1 $-1 $118 $40 #
plane-surface $-1 0 0 18.373450858613097 0 0 1 1 0 0 forward_v I I I I #
coedge $-1 $119 $120 $121 $122 reversed $41 $-1 #
coedge $-1 $70 $43 $123 $124 reversed $27 $-1 #
coedge $-1 $43 $69 $119 $125 reversed $27 $-1 #
coedge $-1 $121 $126 $43 $72 forward $116 $-1 #
edge $-1 $127 64.559316827261696 $128 78.00643222594752 $71 $129 forward 7 unknown #
loop $-1 $-1 $78 $44 #
plane-surface $-1 -63.056332484585582 -25.571961093479608 46.050335903593975 0 0.54463904215088732 0.83867056331134215 1 0 0 forward_v I I I I #
loop $-1 $-1 $130 $29 #
coedge $-1 $76 $76 $77 $131 reversed $45 $-1 #
coedge $-1 $77 $77 $76 $131 forward $47 $-1 #
coedge $-1 $78 $78 $48 $79 forward $73 $-1 #
edge $-1 $132 -4.3928480582972053e-016 $132 6.2831853071796004 $78 $133 forward 7 unknown #
face $-1 $134 $135 $12 $-1 $136 reversed single #
loop $-1 $-1 $137 $49 #
plane-surface $-1 -71.43162327951903 0 0 1 0 0 0 0 -1 forward_v I I I I #
coedge $-1 $91 $138 $93 $139 reversed $50 $-1 #
coedge $-1 $140 $52 $138 $141 forward $33 $-1 #
coedge $-1 $52 $140 $142 $143 forward $33 $-1 #
coedge $-1 $94 $93 $52 $87 reversed $95 $-1 #
edge $-1 $144 -37.753445182023576 $145 37.753445182023576 $86 $146 forward 7 unknown #
coedge $-1 $54 $53 $147 $148 forward $21 $-1 #
coedge $-1 $149 $150 $53 $90 reversed $135 $-1 #
edge $-1 $97 -71.43162327951903 $151 71.43162327951903 $89 $152 forward 7 unknown #
coedge $-1 $153 $83 $54 $92 reversed $50 $-1 #
edge $-1 $154 -71.43162327951903 $96 71.43162327951903 $91 $155 forward 7 unknown #
coedge $-1 $86 $55 $83 $139 forward $95 $-1 #
coedge $-1 $55 $86 $149 $156 reversed $95 $-1 #
loop $-1 $-1 $93 $134 #
vertex $-1 $56 $157 #
vertex $-1 $56 $158 #
straight-curve $-1 71.43162327951903 0 18.373450858613097 0 1 0 I I #
face $-1 $159 $160 $13 $-1 $161 reversed single #
loop $-1 $-1 $111 $57 #
plane-surface $-1 0 -47.128918049103426 -13.407286581309933 0 0 1 1 0 0 forward_v I I I I #
coedge $-1 $162 $163 $61 $107 forward $58 $-1 #
coedge $-1 $164 $60 $163 $165 forward $37 $-1 #
coedge $-1 $60 $164 $166 $167 forward $37 $-1 #
coedge $-1 $62 $61 $60 $106 reversed $24 $-1 #
edge $-1 $168 -71.43162327951903 $169 71.43162327951903 $60 $170 forward 7 unknown #
edge $-1 $169 -18.373450858613097 $113 -13.407286581309933 $102 $171 forward 7 unknown #
coedge $-1 $166 $172 $62 $109 forward $173 $-1 #
edge $-1 $112 13.407286581309933 $168 18.373450858613097 $108 $174 forward 7 unknown #
coedge $-1 $175 $63 $172 $176 forward $100 $-1 #
coedge $-1 $63 $175 $162 $177 forward $100 $-1 #
vertex $-1 $109 $178 #
vertex $-1 $177 $179 #
straight-curve $-1 0 -37.753445182023576 -13.407286581309933 1 0 0 I I #
face $-1 $-1 $180 $14 $-1 $181 reversed single #
loop $-1 $-1 $71 $65 #
plane-surface $-1 0 37.753445182023576 0 0 -1 0 0 0 -1 forward_v I I I I #
coedge $-1 $123 $182 $183 $184 forward $66 $-1 #
coedge $-1 $183 $68 $70 $125 forward $41 $-1 #
coedge $-1 $68 $183 $185 $186 reversed $41 $-1 #
coedge $-1 $187 $71 $68 $122 forward $116 $-1 #
edge $-1 $128 23.152875447359342 $188 39.903457037226239 $121 $189 forward 7 unknown #
coedge $-1 $190 $118 $69 $124 forward $66 $-1 #
edge $-1 $191 -9.0717666345697658 $127 11.634974846523111 $123 $192 forward 7 unknown #
edge $-1 $128 -75.506890364047166 $191 -50.816931771323965 $70 $193 forward 7 unknown #
coedge $-1 $71 $187 $190 $194 reversed $116 $-1 #
vertex $-1 $194 $195 #
vertex $-1 $72 $196 #
straight-curve $-1 -54.681041689652133 37.753445182023576 82.932767685874794 0 0 -1 I I #
coedge $-1 $130 $130 $-1 $197 reversed $75 $-1 #
edge $-1 $198 0 $198 6.2831853071796004 $76 $199 forward 7 unknown #
vertex $-1 $79 $200 #
ellipse-curve $-1 -63.056332484585582 27.400074441477148 11.649893159270176 0 0.54463904215088732 0.83867056331134215 1.5 0 0 1 I I #
face $-1 $-1 $95 $12 $-1 $201 reversed single #
loop $-1 $-1 $149 $80 #
plane-surface $-1 0 37.753445182023576 0 0 -1 0 0 0 -1 forward_v I I I I #
coedge $-1 $202 $147 $150 $203 forward $81 $-1 #
coedge $-1 $83 $153 $84 $141 reversed $50 $-1 #
edge $-1 $96 -18.373450858613097 $145 18.373450858613097 $93 $204 forward 7 unknown #
coedge $-1 $85 $84 $202 $205 forward $33 $-1 #
edge $-1 $145 -71.43162327951903 $206 71.43162327951903 $138 $207 forward 7 unknown #
coedge $-1 $150 $149 $85 $143 reversed $135 $-1 #
edge $-1 $208 -71.43162327951903 $144 71.43162327951903 $142 $209 forward 7 unknown #
vertex $-1 $87 $210 #
vertex $-1 $139 $211 #
straight-curve $-1 71.43162327951903 0 -18.373450858613097 0 -1 0 I I #
coedge $-1 $137 $212 $88 $148 reversed $81 $-1 #
edge $-1 $151 -37.753445182023576 $154 37.753445182023576 $147 $213 forward 7 unknown #
coedge $-1 $142 $89 $94 $156 forward $135 $-1 #
coedge $-1 $89 $142 $137 $203 reversed $135 $-1 #
vertex $-1 $90 $214 #
straight-curve $-1 0 37.753445182023576 18.373450858613097 -1 0 0 I I #
coedge $-1 $138 $91 $212 $215 forward $50 $-1 #
vertex $-1 $148 $216 #
straight-curve $-1 0 -37.753445182023576 18.373450858613097 1 0 0 I I #
edge $-1 $97 -18.373450858613097 $144 18.373450858613097 $94 $217 forward 7 unknown #
point $-1 71.43162327951903 -37.753445182023576 18.373450858613097 #
point $-1 71.43162327951903 37.753445182023576 18.373450858613097 #
face $-1 $-1 $173 $13 $-1 $218 reversed single #
loop $-1 $-1 $219 $99 #
plane-surface $-1 0 -56.504390916183276 -15.890368719961515 0 1 0 0 0 1 forward_v I I I I #
coedge $-1 $220 $102 $111 $177 reversed $58 $-1 #
coedge $-1 $102 $220 $103 $165 reversed $58 $-1 #
coedge $-1 $104 $103 $221 $222 forward $37 $-1 #
edge $-1 $169 37.753445182023576 $223 56.504390916183276 $163 $224 forward 7 unknown #
coedge $-1 $225 $108 $104 $167 reversed $173 $-1 #
edge $-1 $226 -56.504390916183276 $168 -37.753445182023576 $166 $227 forward 7 unknown #
vertex $-1 $109 $228 #
vertex $-1 $165 $229 #
straight-curve $-1 0 -37.753445182023576 -18.373450858613097 1 0 0 I I #
straight-curve $-1 71.43162327951903 -37.753445182023576 0 0 0 1 I I #
coedge $-1 $108 $225 $110 $176 reversed $173 $-1 #
loop $-1 $-1 $108 $159 #
straight-curve $-1 -71.43162327951903 -37.753445182023576 0 0 0 -1 I I #
coedge $-1 $111 $110 $230 $231 forward $100 $-1 #
edge $-1 $112 -9.3754728670798499 $232 9.3754728670798499 $172 $233 forward 7 unknown #
edge $-1 $234 -9.3754728670798499 $113 9.3754728670798499 $162 $235 forward 7 unknown #
point $-1 -71.43162327951903 -37.753445182023576 -13.407286581309933 #
point $-1 71.43162327951903 -37.753445182023576 -13.407286581309933 #
loop $-1 $-1 $185 $115 #
plane-surface $-1 -71.43162327951903 0 0 1 0 0 0 0 -1 forward_v I I I I #
coedge $-1 $118 $190 $236 $237 forward $66 $-1 #
coedge $-1 $120 $119 $118 $184 reversed $41 $-1 #
edge $-1 $238 -39.903457037226239 $191 -23.152875447359342 $118 $239 forward 7 unknown #
coedge $-1 $236 $240 $120 $186 forward $180 $-1 #
edge $-1 $188 -52.243259437795004 $238 -27.55330084507181 $185 $241 forward 7 unknown #
coedge $-1 $126 $121 $240 $242 reversed $116 $-1 #
vertex $-1 $122 $243 #
straight-curve $-1 -31.528166242292791 37.753445182023576 4.926335459927266 -1 0 0 I I #
coedge $-1 $182 $123 $126 $194 forward $66 $-1 #
vertex $-1 $124 $244 #
straight-curve $-1 -54.681041689652133 26.118470335500465 18.373450858613097 0 1 0 I I #
straight-curve $-1 -54.681041689652133 -25.571961093479608 46.050335903593975 0 -0.83867056331134215 0.54463904215088732 I I #
edge $-1 $127 54.681041689652133 $245 71.43162327951903 $126 $246 forward 7 unknown #
point $-1 -54.681041689652133 37.753445182023576 18.373450858613097 #
point $-1 -54.681041689652133 37.753445182023583 4.926335459927266 #
edge $-1 $247 1 $247 0 $130 $-1 forward 7 unknown #
vertex $-1 $131 $248 #
ellipse-curve $-1 -63.056332484585582 24.351545206490439 6.9555698865932154 0 0.54463904215088732 0.83867056331134215 1.5 0 0 1 I I #
point $-1 -61.556332484585582 27.400074441477162 11.649893159270199 #
plane-surface $-1 71.43162327951903 0 0 -1 0 0 0 0 1 forward_v I I I I #
coedge $-1 $212 $137 $140 $205 reversed $81 $-1 #
edge $-1 $151 -18.373450858613097 $208 18.373450858613097 $150 $249 forward 7 unknown #
straight-curve $-1 71.43162327951903 -37.753445182023576 0 0 0 -1 I I #
edge $-1 $206 -37.753445182023576 $208 37.753445182023576 $202 $250 forward 7 unknown #
vertex $-1 $205 $251 #
straight-curve $-1 0 -37.753445182023576 -18.373450858613097 -1 0 0 I I #
vertex $-1 $143 $252 #
straight-curve $-1 0 37.753445182023576 -18.373450858613097 1 0 0 I I #
point $-1 71.43162327951903 37.753445182023576 -18.373450858613097 #
point $-1 71.43162327951903 -37.753445182023576 -18.373450858613097 #
coedge $-1 $147 $202 $153 $215 reversed $81 $-1 #
straight-curve $-1 -71.43162327951903 0 18.373450858613097 0 -1 0 I I #
point $-1 -71.43162327951903 37.753445182023576 18.373450858613097 #
edge $-1 $154 -18.373450858613097 $206 18.373450858613097 $212 $253 forward 7 unknown #
point $-1 -71.43162327951903 -37.753445182023576 18.373450858613097 #
straight-curve $-1 71.43162327951903 37.753445182023576 0 0 0 -1 I I #
plane-surface $-1 -71.43162327951903 0 0 1 0 0 0 0 -1 forward_v I I I I #
coedge $-1 $221 $230 $225 $254 forward $160 $-1 #
coedge $-1 $163 $162 $255 $256 forward $58 $-1 #
coedge $-1 $255 $219 $164 $222 reversed $160 $-1 #
edge $-1 $223 -71.43162327951903 $226 71.43162327951903 $221 $257 forward 7 unknown #
vertex $-1 $256 $258 #
straight-curve $-1 71.43162327951903 0 -18.373450858613097 0 -1 0 I I #
coedge $-1 $172 $166 $219 $254 reversed $173 $-1 #
vertex $-1 $167 $259 #
straight-curve $-1 -71.43162327951903 0 -18.373450858613097 0 1 0 I I #
point $-1 -71.43162327951903 -37.753445182023576 -18.373450858613097 #
point $-1 71.43162327951903 -37.753445182023576 -18.373450858613097 #
coedge $-1 $219 $255 $175 $231 reversed $160 $-1 #
edge $-1 $232 -71.43162327951903 $234 71.43162327951903 $230 $260 forward 7 unknown #
vertex $-1 $176 $261 #
straight-curve $-1 -71.43162327951903 -47.128918049103426 -13.407286581309933 0 -1 0 I I #
vertex $-1 $177 $262 #
straight-curve $-1 71.43162327951903 -47.128918049103426 -13.407286581309933 0 1 0 I I #
coedge $-1 $240 $185 $182 $237 reversed $180 $-1 #
edge $-1 $245 -37.753445182023576 $238 -17.046703700930699 $236 $263 forward 7 unknown #
vertex $-1 $186 $264 #
straight-curve $-1 -31.528166242292791 17.046703700930706 18.373450858613097 1 0 0 I I #
coedge $-1 $185 $236 $187 $242 forward $180 $-1 #
straight-curve $-1 -71.43162327951903 -6.0614386398925539 33.380054238968242 0 -0.83867056331134215 0.54463904215088732 I I #
edge $-1 $245 -18.373450858613097 $188 -4.9263354599272615 $187 $265 forward 7 unknown #
point $-1 -71.43162327951903 37.753445182023576 4.9263354599272615 #
point $-1 -54.681041689652133 17.046703700930699 18.373450858613097 #
vertex $-1 $194 $266 #
straight-curve $-1 0 37.753445182023576 18.373450858613097 -1 0 0 I I #
vertex $-1 $197 $267 #
point $-1 -61.556332484585582 24.351545206490439 6.9555698865932154 #
straight-curve $-1 -71.43162327951903 37.753445182023576 0 0 0 -1 I I #
straight-curve $-1 -71.43162327951903 0 -18.373450858613097 0 1 0 I I #
point $-1 -71.43162327951903 -37.753445182023576 -18.373450858613097 #
point $-1 -71.43162327951903 37.753445182023576 -18.373450858613097 #
straight-curve $-1 -71.43162327951903 -37.753445182023576 0 0 0 -1 I I #
edge $-1 $232 -2.4830821386515822 $226 2.4830821386515822 $225 $268 forward 7 unknown #
coedge $-1 $230 $221 $220 $256 reversed $160 $-1 #
edge $-1 $234 -2.4830821386515822 $223 2.4830821386515822 $220 $269 forward 7 unknown #
straight-curve $-1 0 -56.504390916183276 -18.373450858613097 -1 0 0 I I #
point $-1 71.43162327951903 -56.504390916183276 -18.373450858613097 #
point $-1 -71.43162327951903 -56.504390916183276 -18.373450858613097 #
straight-curve $-1 0 -56.504390916183276 -13.407286581309933 1 0 0 I I #
point $-1 -71.43162327951903 -56.504390916183276 -13.407286581309933 #
point $-1 71.43162327951903 -56.504390916183276 -13.407286581309933 #
straight-curve $-1 -71.43162327951903 0 18.373450858613097 0 -1 0 I I #
point $-1 -71.43162327951903 17.046703700930699 18.373450858613097 #
straight-curve $-1 -71.43162327951903 37.753445182023576 0 0 0 -1 I I #
point $-1 -71.43162327951903 37.753445182023576 18.373450858613097 #
point $-1 -63.056332484585582 23.53458664326411 5.6975640416262028 #
straight-curve $-1 -71.43162327951903 -56.504390916183276 -15.890368719961515 0 0 -1 I I #
straight-curve $-1 71.43162327951903 -56.504390916183276 -15.890368719961515 0 0 -1 I I #
End-of-ACIS-data 